# Blender v2.92.0 OBJ File: 'quaternius_OGConvert.blend'
# www.blender.org
o Bathroom_Towel_Cylinder.002
v 0.530919 0.000000 -0.033877
v 0.530919 -0.029338 -0.016939
v 0.530919 -0.029338 0.016938
v 0.530919 0.000000 0.033877
v 0.530919 0.029338 0.016938
v 0.530919 0.029338 -0.016939
v 0.561784 -0.029338 -0.028036
v 0.549795 0.000000 -0.040001
v 0.585763 -0.029338 -0.004106
v 0.597753 0.000000 0.007859
v 0.585763 0.029338 -0.004106
v 0.561784 0.029338 -0.028036
v 0.572934 -0.029338 -0.052675
v 0.556023 0.000000 -0.051704
v 0.606755 -0.029338 -0.054617
v 0.623665 0.000000 -0.055588
v 0.606755 0.029338 -0.054617
v 0.572934 0.029338 -0.052675
v 0.572315 -0.029338 -0.126615
v 0.555405 0.000000 -0.126615
v 0.606136 -0.029338 -0.126615
v 0.623047 0.000000 -0.126615
v 0.606136 0.029338 -0.126615
v 0.572315 0.029338 -0.126615
v -0.468135 -0.000000 -0.033877
v -0.468135 -0.029338 -0.016938
v -0.468135 -0.029338 0.016939
v -0.468135 -0.000000 0.033877
v -0.468135 0.029338 0.016939
v -0.468135 0.029338 -0.016938
v -0.499000 -0.029338 -0.028035
v -0.487010 -0.000000 -0.040000
v -0.522979 -0.029338 -0.004105
v -0.534969 -0.000000 0.007859
v -0.522979 0.029338 -0.004105
v -0.499000 0.029338 -0.028035
v -0.510149 -0.029338 -0.052675
v -0.493239 -0.000000 -0.051704
v -0.543970 -0.029338 -0.054617
v -0.560881 -0.000000 -0.055587
v -0.543970 0.029338 -0.054616
v -0.510149 0.029338 -0.052675
v -0.509531 -0.029338 -0.126615
v -0.492620 -0.000000 -0.126615
v -0.543352 -0.029338 -0.126615
v -0.560262 -0.000000 -0.126615
v -0.543352 0.029338 -0.126615
v -0.509531 0.029338 -0.126615
v 0.404851 0.002545 -0.034501
v 0.404851 0.002545 0.034501
v 0.404851 0.032424 0.017250
v 0.404851 0.032424 -0.017251
v -0.180793 0.002545 -0.034501
v -0.180793 0.002545 0.034501
v -0.180793 0.032423 0.017251
v -0.180793 0.032423 -0.017250
v 0.404851 -0.621397 -0.034501
v 0.404851 -0.621397 0.034501
v -0.180793 -0.621397 -0.034501
v -0.180793 -0.621397 0.034501
v -0.180793 -0.508580 -0.034501
v 0.404851 -0.508580 -0.034501
v 0.404851 -0.508580 0.034501
v -0.180793 -0.508580 0.034501
v -0.180793 -0.549604 0.034501
v 0.404851 -0.549604 0.034501
v -0.180793 -0.535930 0.034501
v -0.180793 -0.522255 0.034501
v 0.404851 -0.522255 0.034501
v 0.404851 -0.535930 0.034501
v 0.404851 -0.549604 -0.034501
v -0.180793 -0.549604 -0.034501
v -0.180793 -0.535930 -0.034501
v -0.180793 -0.522255 -0.034501
v 0.404851 -0.522255 -0.034501
v 0.404851 -0.535930 -0.034501
v 0.404851 0.001686 -0.031294
v 0.404851 0.001686 0.031294
v 0.404851 0.029548 0.015590
v 0.404851 0.029548 -0.015591
v -0.180793 0.001685 -0.031294
v -0.180793 0.001685 0.031294
v -0.180793 0.029548 0.015591
v -0.180793 0.029548 -0.015590
v 0.404851 -0.621397 -0.031181
v 0.404851 -0.621397 0.031181
v -0.180793 -0.621397 -0.031181
v -0.180793 -0.621397 0.031181
v -0.180793 -0.508580 -0.031181
v 0.404851 -0.508580 -0.031181
v 0.404851 -0.508580 0.031181
v -0.180793 -0.508580 0.031181
v -0.180793 -0.549604 0.031181
v 0.404851 -0.549604 0.031181
v -0.180793 -0.535930 0.031181
v -0.180793 -0.522255 0.031181
v 0.404851 -0.522255 0.031181
v 0.404851 -0.535930 0.031181
v 0.404851 -0.549604 -0.031181
v -0.180793 -0.549604 -0.031181
v -0.180793 -0.535930 -0.031181
v -0.180793 -0.522255 -0.031181
v 0.404851 -0.522255 -0.031181
v 0.404851 -0.535930 -0.031181
vt 0.862639 0.382438
vt 0.878741 0.930973
vt 0.862639 0.930973
vt 0.735408 0.955665
vt 0.716808 0.407129
vt 0.735408 0.407129
vt 0.841118 0.950722
vt 0.825016 0.402186
vt 0.841118 0.402186
vt 0.819621 0.955665
vt 0.794928 0.972611
vt 0.801021 0.955665
vt 0.857233 0.950722
vt 0.857233 0.402186
vt 0.801021 0.407129
vt 0.358295 0.367082
vt 0.374403 0.380077
vt 0.358295 0.380610
vt 0.825024 0.372074
vt 0.841128 0.365491
vt 0.894856 0.930973
vt 0.878739 0.941337
vt 0.857241 0.372074
vt 0.710715 0.390182
vt 0.723853 0.377016
vt 0.862635 0.947920
vt 0.780334 0.997303
vt 0.740803 0.978393
vt 0.781400 0.978733
vt 0.390512 0.367082
vt 0.374403 0.373651
vt 0.501672 0.367082
vt 0.485564 0.401384
vt 0.485564 0.373652
vt 0.697186 0.384061
vt 0.696120 0.365491
vt 0.808067 0.985777
vt 0.517780 0.401384
vt 0.501672 0.401917
vt 0.517780 0.440916
vt 0.501672 0.440915
vt 0.374403 0.421208
vt 0.358295 0.421208
vt 0.390512 0.380610
vt 0.485564 0.440916
vt 0.656589 0.384400
vt 0.656589 0.365831
vt 0.794928 0.390182
vt 0.819621 0.407129
vt 0.428123 0.367082
vt 0.412015 0.380077
vt 0.412015 0.373651
vt 0.825024 0.980835
vt 0.825016 0.950722
vt 0.878739 0.372074
vt 0.894856 0.382438
vt 0.878741 0.382438
vt 0.857241 0.980835
vt 0.710715 0.972611
vt 0.716808 0.955665
vt 0.740803 0.384400
vt 0.780334 0.365491
vt 0.781400 0.384061
vt 0.395906 0.367082
vt 0.480169 0.401384
vt 0.464061 0.367082
vt 0.480169 0.373652
vt 0.723853 0.985777
vt 0.697186 0.978733
vt 0.808067 0.377016
vt 0.447953 0.401384
vt 0.447953 0.373652
vt 0.464061 0.401917
vt 0.447953 0.440916
vt 0.428123 0.380610
vt 0.412015 0.421208
vt 0.395906 0.380610
vt 0.480169 0.440916
vt 0.696120 0.997303
vt 0.656589 0.978393
vt 0.894852 0.947920
vt 0.740803 0.996963
vt 0.517780 0.373652
vt 0.390512 0.421208
vt 0.841128 0.987417
vt 0.894852 0.365491
vt 0.862635 0.365491
vt 0.740803 0.365831
vt 0.464061 0.440915
vt 0.428123 0.421208
vt 0.395906 0.421208
vt 0.656589 0.996963
vt 0.002697 0.361687
vt 0.324248 0.345276
vt 0.324248 0.361687
vt 0.545690 0.688633
vt 0.564633 0.367082
vt 0.564633 0.688633
vt 0.651194 0.345276
vt 0.329643 0.361687
vt 0.329643 0.345276
vt 0.002697 0.042116
vt 0.324248 0.002697
vt 0.324248 0.042115
vt 0.329643 0.042115
vt 0.651194 0.002697
vt 0.651194 0.042116
vt 0.329643 0.064640
vt 0.651194 0.064640
vt 0.002697 0.064640
vt 0.324248 0.064640
vt 0.002697 0.057132
vt 0.324248 0.049624
vt 0.324248 0.057132
vt 0.329643 0.057132
vt 0.651194 0.049624
vt 0.651194 0.057132
vt 0.656589 0.344804
vt 0.978140 0.360096
vt 0.656589 0.360096
vt 0.540295 0.367082
vt 0.523175 0.688633
vt 0.523175 0.367082
vt 0.324248 0.709189
vt 0.002697 0.724481
vt 0.002697 0.709189
vt 0.656589 0.002697
vt 0.978140 0.042116
vt 0.656589 0.042115
vt 0.002697 0.367082
vt 0.324248 0.406500
vt 0.002697 0.406500
vt 0.002697 0.429025
vt 0.656589 0.064640
vt 0.978140 0.344804
vt 0.656589 0.049624
vt 0.978140 0.057132
vt 0.656589 0.057132
vt 0.002697 0.414008
vt 0.324248 0.421516
vt 0.002697 0.421516
vt 0.613308 0.709660
vt 0.623691 0.724487
vt 0.622780 0.726065
vt 0.640811 0.724487
vt 0.641723 0.726065
vt 0.651194 0.709660
vt 0.649433 0.709188
vt 0.607914 0.709660
vt 0.597531 0.724487
vt 0.606153 0.709188
vt 0.579499 0.726065
vt 0.598442 0.726065
vt 0.570028 0.709660
vt 0.580411 0.724487
vt 0.442558 0.688633
vt 0.440735 0.367082
vt 0.442558 0.367082
vt 0.435340 0.688633
vt 0.433518 0.367082
vt 0.435340 0.367082
vt 0.613308 0.429025
vt 0.615069 0.709188
vt 0.607914 0.406500
vt 0.606091 0.367082
vt 0.607914 0.367082
vt 0.570028 0.429025
vt 0.571788 0.709188
vt 0.651194 0.406500
vt 0.649371 0.367082
vt 0.651194 0.367082
vt 0.651194 0.429025
vt 0.649371 0.429025
vt 0.607914 0.429025
vt 0.606091 0.429025
vt 0.613308 0.367082
vt 0.615131 0.406500
vt 0.613308 0.406500
vt 0.607914 0.421516
vt 0.606091 0.414008
vt 0.607914 0.414008
vt 0.613308 0.414008
vt 0.615131 0.421516
vt 0.613308 0.421516
vt 0.570028 0.367082
vt 0.571851 0.406500
vt 0.570028 0.406500
vt 0.570028 0.421516
vt 0.571851 0.414008
vt 0.571851 0.421516
vt 0.651194 0.421516
vt 0.649371 0.414008
vt 0.651194 0.414008
vt 0.002697 0.345276
vt 0.545690 0.367082
vt 0.651194 0.361687
vt 0.002697 0.002697
vt 0.329643 0.002697
vt 0.002697 0.049624
vt 0.329643 0.049624
vt 0.540295 0.688633
vt 0.324248 0.724481
vt 0.978140 0.002697
vt 0.324248 0.367082
vt 0.324248 0.429025
vt 0.978140 0.064640
vt 0.978140 0.049624
vt 0.324248 0.414008
vt 0.440735 0.688633
vt 0.433518 0.688633
vt 0.615131 0.429025
vt 0.606091 0.406500
vt 0.571851 0.429025
vt 0.649371 0.406500
vt 0.615131 0.367082
vt 0.606091 0.421516
vt 0.615131 0.414008
vt 0.571850 0.367082
vt 0.570028 0.414008
vt 0.649371 0.421516
vn 0.1381 -0.4908 -0.8603
vn -0.1645 0.0000 -0.9864
vn -0.1381 -0.4908 -0.8603
vn 0.0000 -1.0000 0.0000
vn -0.1733 0.0000 0.9849
vn 0.1684 -0.4929 0.8537
vn 0.1733 0.0000 0.9849
vn -0.0000 1.0000 0.0000
vn -0.1684 0.4929 0.8537
vn 0.1684 0.4929 0.8537
vn -0.5892 -0.4918 -0.6410
vn -0.9690 0.0000 -0.2469
vn -0.8567 -0.4882 -0.1665
vn 0.6034 -0.5011 0.6204
vn 0.7008 -0.0000 0.7134
vn -0.1381 0.4908 -0.8603
vn -0.6401 0.0000 -0.7683
vn 0.6034 0.5011 0.6204
vn -0.5892 0.4918 -0.6410
vn 0.8540 0.4882 0.1797
vn 0.8540 -0.4882 0.1797
vn 0.9846 0.0000 0.1746
vn 0.8663 -0.4994 -0.0075
vn 0.8664 -0.4994 -0.0075
vn -0.8663 -0.4994 0.0072
vn -0.8664 -0.4994 0.0072
vn -0.8567 0.4882 -0.1665
vn -0.8663 0.4994 0.0072
vn 0.8663 0.4994 -0.0075
vn 0.5892 -0.4918 -0.6410
vn 0.9690 -0.0000 -0.2469
vn 0.6401 -0.0000 -0.7683
vn -0.6034 -0.5011 0.6204
vn -0.1684 -0.4929 0.8537
vn 0.1381 0.4908 -0.8603
vn 0.1645 -0.0000 -0.9864
vn -0.6034 0.5011 0.6204
vn 0.5892 0.4918 -0.6410
vn -0.8540 0.4882 0.1797
vn -0.7008 -0.0000 0.7134
vn -0.8540 -0.4882 0.1797
vn -0.9846 0.0000 0.1746
vn -0.8663 -0.4994 -0.0075
vn 0.8567 -0.4882 -0.1665
vn 0.8663 -0.4994 0.0072
vn 0.8663 0.4994 0.0072
vn 0.8567 0.4882 -0.1665
vn -0.8663 0.4994 -0.0075
vn -0.8664 0.4994 0.0072
vn 0.8664 0.4994 -0.0075
vn -0.8664 -0.4994 -0.0075
vn 0.8664 -0.4994 0.0072
vn 0.8664 0.4994 0.0072
vn -0.8664 0.4994 -0.0075
vn 0.0000 0.5000 0.8660
vn 0.0000 0.2588 0.9659
vn -0.0000 0.2588 -0.9659
vn -0.0000 0.5000 -0.8660
vn 0.0000 0.0000 1.0000
vn -0.0000 0.0000 -1.0000
vn -0.0000 -0.2537 -0.9673
vn -0.0000 -0.4910 -0.8712
vn 0.0000 -0.2537 0.9673
vn 0.0000 -0.4910 0.8712
vn 0.0000 0.0001 1.0000
vn -0.0000 0.0001 -1.0000
vn 1.0000 0.0000 0.0000
vn -1.0000 -0.0000 0.0000
s 1
f 26/1/1 1/2/2 2/3/3
f 27/4/4 2/5/4 3/6/4
f 28/7/5 3/8/6 4/9/7
f 5/10/8 12/11/8 6/12/8
f 29/13/9 4/9/7 5/14/10
f 30/15/8 5/10/8 6/12/8
f 7/16/11 14/17/12 13/18/13
f 4/9/7 9/19/14 10/20/15
f 6/21/16 8/22/17 1/2/2
f 4/9/7 11/23/18 5/14/10
f 3/6/4 7/24/4 9/25/4
f 2/3/3 8/22/17 7/26/11
f 17/27/8 24/28/8 18/29/8
f 12/30/19 14/17/12 8/31/17
f 10/32/15 17/33/20 11/34/18
f 9/25/4 13/35/4 15/36/4
f 11/37/8 18/29/8 12/11/8
f 10/32/15 15/38/21 16/39/22
f 16/39/22 21/40/23 22/41/24
f 13/18/13 20/42/25 19/43/26
f 18/44/27 20/42/28 14/17/12
f 16/39/22 23/45/29 17/33/20
f 15/36/4 19/46/4 21/47/4
f 36/48/8 29/49/8 30/15/8
f 31/50/30 38/51/31 32/52/32
f 28/7/5 33/53/33 27/54/34
f 32/55/32 30/56/35 25/57/36
f 35/58/37 28/7/5 29/13/9
f 27/4/4 31/59/4 26/60/4
f 26/1/1 32/55/32 25/57/36
f 48/61/8 41/62/8 42/63/8
f 38/51/31 36/64/38 32/52/32
f 41/65/39 34/66/40 35/67/37
f 33/68/4 37/69/4 31/59/4
f 42/63/8 35/70/8 36/48/8
f 34/66/40 39/71/41 33/72/33
f 40/73/42 45/74/43 39/71/41
f 37/75/44 44/76/45 38/51/31
f 44/76/46 42/77/47 38/51/31
f 47/78/48 40/73/42 41/65/39
f 39/79/4 43/80/4 37/69/4
f 25/57/36 6/21/16 1/2/2
f 26/1/1 25/57/36 1/2/2
f 27/4/4 26/60/4 2/5/4
f 28/7/5 27/54/34 3/8/6
f 5/10/8 11/37/8 12/11/8
f 29/13/9 28/7/5 4/9/7
f 30/15/8 29/49/8 5/10/8
f 7/16/11 8/31/17 14/17/12
f 4/9/7 3/8/6 9/19/14
f 6/21/16 12/81/19 8/22/17
f 4/9/7 10/20/15 11/23/18
f 3/6/4 2/5/4 7/24/4
f 2/3/3 1/2/2 8/22/17
f 17/27/8 23/82/8 24/28/8
f 12/30/19 18/44/27 14/17/12
f 10/32/15 16/39/22 17/33/20
f 9/25/4 7/24/4 13/35/4
f 11/37/8 17/27/8 18/29/8
f 10/32/15 9/83/14 15/38/21
f 16/39/22 15/38/21 21/40/23
f 13/18/13 14/17/12 20/42/25
f 18/44/27 24/84/49 20/42/28
f 16/39/22 22/41/50 23/45/29
f 15/36/4 13/35/4 19/46/4
f 36/48/8 35/70/8 29/49/8
f 31/50/30 37/75/44 38/51/31
f 28/7/5 34/85/40 33/53/33
f 32/55/32 36/86/38 30/56/35
f 35/58/37 34/85/40 28/7/5
f 27/4/4 33/68/4 31/59/4
f 26/1/1 31/87/30 32/55/32
f 48/61/8 47/88/8 41/62/8
f 38/51/31 42/77/47 36/64/38
f 41/65/39 40/73/42 34/66/40
f 33/68/4 39/79/4 37/69/4
f 42/63/8 41/62/8 35/70/8
f 34/66/40 40/73/42 39/71/41
f 40/73/42 46/89/51 45/74/43
f 37/75/44 43/90/52 44/76/45
f 44/76/46 48/91/53 42/77/47
f 47/78/48 46/89/54 40/73/42
f 39/79/4 45/92/4 43/80/4
f 25/57/36 30/56/35 6/21/16
f 55/93/55 50/94/56 51/95/55
f 52/96/8 55/97/8 51/98/8
f 53/99/57 52/100/58 49/101/57
f 65/102/59 58/103/59 66/104/59
f 71/105/60 59/106/60 72/107/60
f 53/99/57 62/108/60 61/109/60
f 50/94/56 64/110/59 63/111/59
f 68/112/59 70/113/59 69/114/59
f 75/115/60 73/116/60 74/117/60
f 78/118/61 83/119/62 79/120/62
f 79/121/4 84/122/4 80/123/4
f 77/124/63 84/125/64 81/126/63
f 86/127/60 93/128/60 94/129/60
f 87/130/59 99/131/59 100/132/59
f 89/133/65 77/124/63 81/126/63
f 91/134/66 82/135/61 78/118/61
f 98/136/60 96/137/60 97/138/60
f 101/139/59 103/140/59 102/141/59
f 50/142/67 79/143/67 51/144/67
f 51/144/67 80/145/67 52/146/67
f 49/147/67 80/145/67 77/148/67
f 54/149/68 83/150/68 82/151/68
f 56/152/68 83/150/68 55/153/68
f 53/154/68 84/155/68 56/152/68
f 57/156/4 87/157/4 59/158/4
f 60/159/4 86/160/4 58/161/4
f 63/162/67 78/163/67 50/142/67
f 65/164/68 88/165/68 60/166/68
f 61/167/68 81/168/68 53/154/68
f 71/169/67 85/170/67 57/171/67
f 62/172/67 77/148/67 90/173/67
f 64/174/68 82/151/68 92/175/68
f 58/176/67 94/177/67 66/178/67
f 68/179/68 95/180/68 67/181/68
f 70/182/67 97/183/67 69/184/67
f 59/185/68 100/186/68 72/187/68
f 74/188/68 101/189/68 102/190/68
f 75/191/67 104/192/67 76/193/67
f 55/93/55 54/194/56 50/94/56
f 52/96/8 56/195/8 55/97/8
f 53/99/57 56/196/58 52/100/58
f 65/102/59 60/197/59 58/103/59
f 71/105/60 57/198/60 59/106/60
f 53/99/57 49/101/57 62/108/60
f 50/94/56 54/194/56 64/110/59
f 68/112/59 67/199/59 70/113/59
f 75/115/60 76/200/60 73/116/60
f 78/118/61 82/135/61 83/119/62
f 79/121/4 83/201/4 84/122/4
f 77/124/63 80/202/64 84/125/64
f 86/127/60 88/203/60 93/128/60
f 87/130/59 85/204/59 99/131/59
f 89/133/65 90/205/65 77/124/63
f 91/134/66 92/206/66 82/135/61
f 98/136/60 95/207/60 96/137/60
f 101/139/59 104/208/59 103/140/59
f 50/142/67 78/163/67 79/143/67
f 51/144/67 79/143/67 80/145/67
f 49/147/67 52/146/67 80/145/67
f 54/149/68 55/153/68 83/150/68
f 56/152/68 84/155/68 83/150/68
f 53/154/68 81/168/68 84/155/68
f 57/156/4 85/209/4 87/157/4
f 60/159/4 88/210/4 86/160/4
f 63/162/67 91/211/67 78/163/67
f 65/164/68 93/212/68 88/165/68
f 61/167/68 89/213/68 81/168/68
f 71/169/67 99/214/67 85/170/67
f 62/172/67 49/147/67 77/148/67
f 64/174/68 54/149/68 82/151/68
f 58/176/67 86/215/67 94/177/67
f 68/179/68 96/216/68 95/180/68
f 70/182/67 98/217/67 97/183/67
f 59/185/68 87/218/68 100/186/68
f 74/188/68 73/219/68 101/189/68
f 75/191/67 103/220/67 104/192/67
f 64/110/59 69/114/59 63/111/59
f 62/108/60 74/117/60 61/109/60
f 67/199/59 66/104/59 70/113/59
f 76/200/60 72/107/60 73/116/60
f 97/138/60 92/206/66 91/134/66
f 102/141/59 90/205/65 89/133/65
f 94/129/60 95/207/60 98/136/60
f 100/132/59 104/208/59 101/139/59
f 74/188/68 89/213/68 61/167/68
f 64/174/68 96/216/68 68/179/68
f 66/178/67 98/217/67 70/182/67
f 69/184/67 91/211/67 63/162/67
f 67/181/68 93/212/68 65/164/68
f 76/193/67 99/214/67 71/169/67
f 72/187/68 101/189/68 73/219/68
f 62/172/67 103/220/67 75/191/67
f 64/110/59 68/112/59 69/114/59
f 62/108/60 75/115/60 74/117/60
f 67/199/59 65/102/59 66/104/59
f 76/200/60 71/105/60 72/107/60
f 97/138/60 96/137/60 92/206/66
f 102/141/59 103/140/59 90/205/65
f 94/129/60 93/128/60 95/207/60
f 100/132/59 99/131/59 104/208/59
f 74/188/68 102/190/68 89/213/68
f 64/174/68 92/175/68 96/216/68
f 66/178/67 94/177/67 98/217/67
f 69/184/67 97/183/67 91/211/67
f 67/181/68 95/180/68 93/212/68
f 76/193/67 104/192/67 99/214/67
f 72/187/68 100/186/68 101/189/68
f 62/172/67 90/173/67 103/220/67
