# Blender v2.92.0 OBJ File: 'quaternius_OGConvert.blend'
# www.blender.org
o Door_7_Cube.054
v -1.739844 0.000000 0.090321
v -1.739844 4.197657 0.090321
v -0.000002 0.000000 0.090321
v -0.000002 4.197657 0.090321
v -1.707867 0.033536 0.090321
v -1.707867 4.164121 0.090321
v -0.031978 4.164121 0.090321
v -0.031978 0.033536 0.090321
v -1.688830 0.050232 0.106611
v -1.688830 4.147425 0.106611
v -0.051015 4.147425 0.106611
v -0.051015 0.050232 0.106611
v -1.531229 1.790480 0.153531
v -1.531229 1.742065 0.106055
v -1.504476 1.801562 0.153531
v -1.470242 1.767328 0.106055
v -1.493394 1.828316 0.153531
v -1.444979 1.828316 0.106055
v -1.504476 1.855070 0.153531
v -1.470242 1.889304 0.106055
v -1.531229 1.866151 0.153531
v -1.531229 1.914566 0.106055
v -1.557983 1.855070 0.153531
v -1.592218 1.889304 0.106055
v -1.569065 1.828316 0.153531
v -1.617480 1.828316 0.106055
v -1.557983 1.801562 0.153531
v -1.592218 1.767328 0.106055
v -1.531229 1.774104 0.172854
v -1.492896 1.789982 0.172854
v -1.477018 1.828316 0.172854
v -1.492896 1.866649 0.172854
v -1.531229 1.882527 0.172854
v -1.569563 1.866649 0.172854
v -1.585441 1.828316 0.172854
v -1.569563 1.789982 0.172854
v -1.531229 1.796077 0.210558
v -1.508434 1.805520 0.210558
v -1.498991 1.828316 0.210558
v -1.508434 1.851112 0.210558
v -1.531229 1.860554 0.210558
v -1.554026 1.851112 0.210558
v -1.563468 1.828316 0.210558
v -1.554026 1.805520 0.210558
v -1.739844 0.000000 -0.090321
v -1.739844 4.197657 -0.090321
v -0.000002 0.000000 -0.090321
v -0.000002 4.197657 -0.090321
v -1.739844 0.000000 0.000000
v -1.739844 4.197657 0.000000
v -0.000002 0.000000 0.000000
v -0.000002 4.197657 0.000000
v -1.707867 0.033536 -0.090321
v -1.707867 4.164121 -0.090321
v -0.031978 4.164121 -0.090321
v -0.031978 0.033536 -0.090321
v -1.688830 0.050232 -0.106610
v -1.688830 4.147425 -0.106610
v -0.051016 4.147425 -0.106611
v -0.051016 0.050232 -0.106611
v -1.531229 1.790480 -0.153530
v -1.531229 1.742065 -0.106055
v -1.504476 1.801562 -0.153530
v -1.470242 1.767328 -0.106055
v -1.493394 1.828316 -0.153530
v -1.444979 1.828316 -0.106055
v -1.504476 1.855070 -0.153530
v -1.470242 1.889304 -0.106055
v -1.531229 1.866151 -0.153530
v -1.531229 1.914566 -0.106055
v -1.557983 1.855070 -0.153530
v -1.592218 1.889304 -0.106055
v -1.569065 1.828316 -0.153530
v -1.617480 1.828316 -0.106055
v -1.557983 1.801562 -0.153530
v -1.592218 1.767328 -0.106055
v -1.531229 1.774104 -0.172853
v -1.492896 1.789982 -0.172853
v -1.477018 1.828316 -0.172853
v -1.492896 1.866649 -0.172853
v -1.531229 1.882527 -0.172853
v -1.569563 1.866649 -0.172853
v -1.585441 1.828316 -0.172853
v -1.569563 1.789982 -0.172853
v -1.531229 1.796077 -0.210558
v -1.508434 1.805520 -0.210558
v -1.498991 1.828316 -0.210558
v -1.508434 1.851112 -0.210558
v -1.531229 1.860554 -0.210558
v -1.554026 1.851112 -0.210558
v -1.563468 1.828316 -0.210558
v -1.554026 1.805520 -0.210558
vt 0.854901 0.994189
vt 0.833558 0.002258
vt 0.854901 0.002258
vt 0.002257 0.994189
vt 0.405836 0.986264
vt 0.413393 0.994189
vt 0.949305 0.413393
vt 0.927961 0.002257
vt 0.949305 0.002257
vt 0.949305 0.829043
vt 0.927961 0.417908
vt 0.949305 0.417908
vt 0.405836 0.010182
vt 0.014313 0.014128
vt 0.009814 0.010182
vt 0.002258 0.002258
vt 0.009814 0.986264
vt 0.014312 0.982319
vt 0.902103 0.994189
vt 0.923446 0.002258
vt 0.923446 0.994189
vt 0.413393 0.002258
vt 0.401338 0.014128
vt 0.401338 0.982319
vt 0.876244 0.002258
vt 0.425464 0.986264
vt 0.829043 0.994189
vt 0.417908 0.994189
vt 0.970648 0.002257
vt 0.970648 0.417908
vt 0.816988 0.014128
vt 0.425464 0.010182
vt 0.821486 0.010182
vt 0.821486 0.986264
vt 0.829043 0.002258
vt 0.816988 0.982319
vt 0.880760 0.002258
vt 0.880759 0.994189
vt 0.417908 0.002258
vt 0.429963 0.014128
vt 0.429962 0.982319
vt 0.833558 0.994189
vt 0.927961 0.413393
vt 0.927961 0.829043
vt 0.902103 0.002258
vt 0.876244 0.994189
vt 0.970648 0.413393
vt 0.970648 0.829043
vt 0.927961 0.860187
vt 0.938531 0.848966
vt 0.938531 0.855809
vt 0.927961 0.844588
vt 0.943370 0.844127
vt 0.954591 0.833558
vt 0.950213 0.844127
vt 0.955051 0.848966
vt 0.965621 0.844588
vt 0.955051 0.855809
vt 0.954591 0.871217
vt 0.950213 0.860648
vt 0.954591 0.913392
vt 0.938992 0.913392
vt 0.954591 0.875733
vt 0.943370 0.860648
vt 0.983612 0.887880
vt 0.979046 0.878821
vt 0.983612 0.881557
vt 0.974703 0.842616
vt 0.983612 0.848003
vt 0.974703 0.851674
vt 0.970136 0.842616
vt 0.970136 0.848938
vt 0.979046 0.896938
vt 0.979046 0.887880
vt 0.970136 0.926966
vt 0.974703 0.936024
vt 0.970136 0.933288
vt 0.970136 0.836294
vt 0.970136 0.955920
vt 0.974703 0.949598
vt 0.974703 0.958656
vt 0.970136 0.949598
vt 0.974703 0.940539
vt 0.970136 0.920644
vt 0.974703 0.926966
vt 0.989239 0.076066
vt 0.979286 0.080189
vt 0.975163 0.070235
vt 0.983612 0.932353
vt 0.970136 0.887880
vt 0.983612 0.837229
vt 0.983612 0.842616
vt 0.983612 0.921579
vt 0.983612 0.926966
vt 0.983612 0.944211
vt 0.983612 0.949598
vt 0.983612 0.954984
vt 0.970136 0.882493
vt 0.938531 0.940159
vt 0.927961 0.928938
vt 0.938531 0.933316
vt 0.943370 0.944998
vt 0.927961 0.944537
vt 0.954591 0.955567
vt 0.938992 0.955567
vt 0.955051 0.940159
vt 0.950213 0.944998
vt 0.955051 0.933316
vt 0.965621 0.944537
vt 0.954591 0.917907
vt 0.965621 0.928938
vt 0.938992 0.960082
vt 0.965621 0.971113
vt 0.954591 0.997742
vt 0.943370 0.928477
vt 0.950213 0.928477
vt 0.938992 0.917907
vt 0.974703 0.963171
vt 0.970136 0.972229
vt 0.970136 0.965907
vt 0.970136 0.870635
vt 0.979046 0.865248
vt 0.979046 0.874306
vt 0.983612 0.865248
vt 0.983612 0.871570
vt 0.974703 0.981288
vt 0.970136 0.978552
vt 0.984073 0.020374
vt 0.988639 0.011316
vt 0.988639 0.017638
vt 0.983612 0.858926
vt 0.984073 0.043006
vt 0.988639 0.033948
vt 0.988639 0.040270
vt 0.984073 0.024889
vt 0.988639 0.027626
vt 0.984073 0.011316
vt 0.988639 0.004994
vt 0.979286 0.047521
vt 0.989240 0.051644
vt 0.985117 0.061598
vt 0.975163 0.016703
vt 0.983612 0.972229
vt 0.974703 0.972229
vt 0.970136 0.859861
vt 0.979046 0.856189
vt 0.975163 0.005929
vt 0.984073 0.002257
vt 0.975163 0.033948
vt 0.984073 0.033948
vt 0.975163 0.039334
vt 0.938992 0.833558
vt 0.965621 0.860187
vt 0.927961 0.902362
vt 0.927961 0.886763
vt 0.938992 0.875733
vt 0.965621 0.886763
vt 0.965621 0.902362
vt 0.938992 0.871217
vt 0.983612 0.894202
vt 0.974703 0.833557
vt 0.970136 0.943276
vt 0.974703 0.917907
vt 0.979286 0.066113
vt 0.985117 0.066113
vt 0.989239 0.070235
vt 0.985117 0.080189
vt 0.975163 0.076066
vt 0.970136 0.893266
vt 0.927961 0.986712
vt 0.927961 0.971113
vt 0.954591 0.960082
vt 0.965621 0.986712
vt 0.938992 0.997742
vt 0.970136 0.865248
vt 0.985117 0.047521
vt 0.989240 0.057475
vt 0.979286 0.061598
vt 0.975163 0.057475
vt 0.975163 0.051644
vt 0.975163 0.011316
vt 0.983612 0.977616
vt 0.975163 0.028561
vt 0.983612 0.966843
vn 1.0000 0.0000 -0.0000
vn 0.0000 0.0000 1.0000
vn 0.0000 -1.0000 0.0000
vn 0.0000 1.0000 0.0000
vn 0.0000 -0.6984 0.7157
vn -0.6502 0.0000 0.7598
vn -1.0000 0.0000 0.0000
vn 0.6502 0.0000 0.7598
vn 0.0000 0.6984 0.7157
vn -0.0000 -0.0000 -1.0000
vn -0.0000 -0.6984 -0.7157
vn -0.6502 0.0000 -0.7598
vn 0.6502 0.0000 -0.7598
vn -0.0000 0.6984 -0.7157
vn 0.0000 0.6983 0.7158
vn -0.0000 0.6983 -0.7158
vn 0.2785 -0.6724 0.6857
vn 0.6724 -0.2785 0.6857
vn 0.6724 0.2785 0.6857
vn 0.2785 0.6724 0.6857
vn -0.2785 0.6724 0.6857
vn -0.6724 0.2785 0.6857
vn -0.6724 -0.2785 0.6857
vn -0.2785 -0.6724 0.6857
vn -0.7274 0.3013 -0.6165
vn 0.3370 0.8135 0.4741
vn 0.3013 0.7274 -0.6165
vn -0.7274 -0.3013 -0.6165
vn 0.7274 -0.3013 -0.6165
vn -0.3013 0.7274 -0.6165
vn -0.3013 -0.7274 -0.6165
vn 0.3013 -0.7274 -0.6165
vn 0.7274 0.3013 -0.6165
vn 0.8135 -0.3369 0.4741
vn -0.8135 -0.3369 0.4741
vn -0.3369 0.8135 0.4741
vn 0.8135 0.3369 0.4741
vn 0.3370 -0.8135 0.4741
vn -0.3369 -0.8135 0.4741
vn -0.8135 0.3369 0.4741
vn 0.2785 -0.6724 -0.6857
vn 0.6724 -0.2785 -0.6857
vn 0.6724 0.2785 -0.6857
vn 0.2785 0.6724 -0.6857
vn -0.2785 0.6724 -0.6857
vn -0.6724 0.2785 -0.6857
vn -0.6724 -0.2785 -0.6857
vn -0.2785 -0.6724 -0.6857
vn -0.7274 0.3013 0.6165
vn 0.3370 0.8135 -0.4741
vn 0.3013 0.7274 0.6165
vn -0.7274 -0.3013 0.6165
vn 0.7274 -0.3013 0.6165
vn -0.3013 0.7274 0.6165
vn -0.3013 -0.7274 0.6165
vn 0.3013 -0.7274 0.6165
vn 0.7274 0.3013 0.6165
vn 0.8135 -0.3369 -0.4741
vn -0.8135 -0.3370 -0.4741
vn -0.3369 0.8135 -0.4741
vn 0.8135 0.3369 -0.4741
vn 0.3370 -0.8135 -0.4741
vn -0.3369 -0.8135 -0.4741
vn -0.8135 0.3370 -0.4741
vn -0.8135 -0.3369 -0.4741
vn -0.8135 0.3369 -0.4741
s off
f 52/1/1 3/2/1 51/3/1
f 2/4/2 7/5/2 4/6/2
f 51/7/3 1/8/3 49/9/3
f 50/10/4 4/11/4 52/12/4
f 8/13/5 9/14/5 5/15/5
f 1/16/2 6/17/2 2/4/2
f 5/15/6 10/18/6 6/17/6
f 50/19/7 1/20/7 2/21/7
f 4/6/2 8/13/2 3/22/2
f 7/5/8 12/23/8 8/13/8
f 11/24/2 9/14/2 12/23/2
f 6/17/9 11/24/9 7/5/9
f 3/22/2 5/15/2 1/16/2
f 47/25/1 52/1/1 51/3/1
f 55/26/10 46/27/10 48/28/10
f 45/29/3 51/7/3 49/9/3
f 48/30/4 50/10/4 52/12/4
f 57/31/11 56/32/11 53/33/11
f 54/34/10 45/35/10 46/27/10
f 58/36/12 53/33/12 54/34/12
f 45/37/7 50/19/7 46/38/7
f 56/32/10 48/28/10 47/39/10
f 60/40/13 55/26/13 56/32/13
f 57/31/10 59/41/10 60/40/10
f 59/41/14 54/34/14 55/26/14
f 53/33/10 47/39/10 45/35/10
f 52/1/1 4/42/1 3/2/1
f 2/4/2 6/17/2 7/5/2
f 51/7/3 3/43/3 1/8/3
f 50/10/4 2/44/4 4/11/4
f 8/13/5 12/23/5 9/14/5
f 1/16/2 5/15/2 6/17/2
f 5/15/6 9/14/6 10/18/6
f 50/19/7 49/45/7 1/20/7
f 4/6/2 7/5/2 8/13/2
f 7/5/8 11/24/8 12/23/8
f 11/24/2 10/18/2 9/14/2
f 6/17/15 10/18/15 11/24/15
f 3/22/2 8/13/2 5/15/2
f 47/25/1 48/46/1 52/1/1
f 55/26/10 54/34/10 46/27/10
f 45/29/3 47/47/3 51/7/3
f 48/30/4 46/48/4 50/10/4
f 57/31/11 60/40/11 56/32/11
f 54/34/10 53/33/10 45/35/10
f 58/36/12 57/31/12 53/33/12
f 45/37/7 49/45/7 50/19/7
f 56/32/10 55/26/10 48/28/10
f 60/40/13 59/41/13 55/26/13
f 57/31/10 58/36/10 59/41/10
f 59/41/16 58/36/16 54/34/16
f 53/33/10 56/32/10 47/39/10
f 14/49/17 15/50/17 13/51/17
f 16/52/18 17/53/18 15/50/18
f 17/53/19 20/54/19 19/55/19
f 20/54/20 21/56/20 19/55/20
f 22/57/21 23/58/21 21/56/21
f 23/58/22 26/59/22 25/60/22
f 20/61/10 18/62/10 26/63/10
f 26/59/23 27/64/23 25/60/23
f 27/64/24 14/49/24 13/51/24
f 25/65/25 34/66/25 23/67/25
f 33/68/26 40/69/26 32/70/26
f 21/71/27 32/70/27 19/72/27
f 25/65/28 36/73/28 35/74/28
f 17/75/29 30/76/29 15/77/29
f 23/78/30 33/68/30 21/71/30
f 27/79/31 29/80/31 36/81/31
f 13/82/32 30/83/32 29/80/32
f 19/84/33 31/85/33 17/75/33
f 40/86/2 42/87/2 44/88/2
f 31/85/34 38/89/34 30/76/34
f 36/73/35 43/90/35 35/74/35
f 33/68/36 42/91/36 41/92/36
f 31/85/37 40/93/37 39/94/37
f 29/80/38 38/95/38 37/96/38
f 29/80/39 44/97/39 36/81/39
f 34/66/40 43/90/40 42/98/40
f 63/99/41 62/100/41 61/101/41
f 65/102/42 64/103/42 63/99/42
f 65/102/43 68/104/43 66/105/43
f 69/106/44 68/104/44 67/107/44
f 71/108/45 70/109/45 69/106/45
f 71/108/46 74/110/46 72/111/46
f 66/112/2 70/113/2 74/114/2
f 75/115/47 74/110/47 73/116/47
f 75/115/48 62/100/48 76/117/48
f 82/118/49 73/119/49 71/120/49
f 88/121/50 81/122/50 80/123/50
f 80/123/51 69/124/51 67/125/51
f 73/119/52 84/126/52 75/127/52
f 78/128/53 65/129/53 63/130/53
f 81/122/54 71/131/54 69/124/54
f 84/132/55 61/133/55 75/134/55
f 61/133/56 78/135/56 63/136/56
f 79/137/57 67/138/57 65/129/57
f 86/139/10 92/140/10 90/141/10
f 86/142/58 79/137/58 78/128/58
f 91/143/59 84/126/59 83/144/59
f 81/122/60 90/145/60 82/146/60
f 79/137/61 88/147/61 80/148/61
f 85/149/62 78/135/62 77/150/62
f 92/151/63 77/150/63 84/132/63
f 82/118/64 91/143/64 83/144/64
f 14/49/17 16/52/17 15/50/17
f 16/52/18 18/152/18 17/53/18
f 17/53/19 18/152/19 20/54/19
f 20/54/20 22/57/20 21/56/20
f 22/57/21 24/153/21 23/58/21
f 23/58/22 24/153/22 26/59/22
f 18/62/10 16/154/10 26/63/10
f 16/154/10 14/155/10 26/63/10
f 14/155/10 28/156/10 26/63/10
f 26/63/10 24/157/10 22/158/10
f 22/158/10 20/61/10 26/63/10
f 26/59/23 28/159/23 27/64/23
f 27/64/24 28/159/24 14/49/24
f 25/65/25 35/74/25 34/66/25
f 33/68/26 41/92/26 40/69/26
f 21/71/27 33/68/27 32/70/27
f 25/65/28 27/160/28 36/73/28
f 17/75/29 31/85/29 30/76/29
f 23/78/30 34/161/30 33/68/30
f 27/79/31 13/82/31 29/80/31
f 13/82/32 15/162/32 30/83/32
f 19/84/33 32/163/33 31/85/33
f 44/88/2 37/164/2 38/165/2
f 38/165/2 39/166/2 44/88/2
f 39/166/2 40/86/2 44/88/2
f 40/86/2 41/167/2 42/87/2
f 42/87/2 43/168/2 44/88/2
f 31/85/34 39/94/34 38/89/34
f 36/73/35 44/169/35 43/90/35
f 33/68/36 34/161/36 42/91/36
f 31/85/37 32/163/37 40/93/37
f 29/80/38 30/83/38 38/95/38
f 29/80/39 37/96/39 44/97/39
f 34/66/40 35/74/40 43/90/40
f 63/99/41 64/103/41 62/100/41
f 65/102/42 66/105/42 64/103/42
f 65/102/43 67/107/43 68/104/43
f 69/106/44 70/109/44 68/104/44
f 71/108/45 72/111/45 70/109/45
f 71/108/46 73/116/46 74/110/46
f 62/170/2 64/171/2 66/112/2
f 66/112/2 68/172/2 70/113/2
f 70/113/2 72/173/2 74/114/2
f 74/114/2 76/174/2 62/170/2
f 62/170/2 66/112/2 74/114/2
f 75/115/47 76/117/47 74/110/47
f 75/115/48 61/101/48 62/100/48
f 82/118/49 83/144/49 73/119/49
f 88/121/50 89/175/50 81/122/50
f 80/123/51 81/122/51 69/124/51
f 73/119/52 83/144/52 84/126/52
f 78/128/53 79/137/53 65/129/53
f 81/122/54 82/146/54 71/131/54
f 84/132/55 77/150/55 61/133/55
f 61/133/56 77/150/56 78/135/56
f 79/137/57 80/148/57 67/138/57
f 86/139/10 85/176/10 92/140/10
f 92/140/10 91/177/10 90/141/10
f 90/141/10 89/178/10 88/179/10
f 88/179/10 87/180/10 90/141/10
f 87/180/10 86/139/10 90/141/10
f 86/142/58 87/181/58 79/137/58
f 91/143/65 92/182/65 84/126/65
f 81/122/60 89/175/60 90/145/60
f 79/137/61 87/181/61 88/147/61
f 85/149/62 86/183/62 78/135/62
f 92/151/63 85/149/63 77/150/63
f 82/118/66 90/184/66 91/143/66
