# Blender v2.92.0 OBJ File: 'quaternius_OGConvert.blend'
# www.blender.org
o Light_Stand2_Cylinder.017
v -0.000000 2.310848 -0.318250
v 0.000000 2.925717 -0.298708
v 0.187062 2.310848 -0.257470
v 0.175575 2.925717 -0.241660
v 0.302672 2.310848 -0.098345
v 0.284087 2.925717 -0.092307
v 0.302672 2.310848 0.098343
v 0.284087 2.925717 0.092304
v 0.187062 2.310848 0.257467
v 0.175575 2.925717 0.241657
v -0.000000 2.310848 0.318247
v -0.000000 2.925717 0.298705
v -0.187062 2.310848 0.257467
v -0.175575 2.925717 0.241657
v -0.302672 2.310848 0.098343
v -0.284087 2.925717 0.092304
v -0.302672 2.310848 -0.098345
v -0.284087 2.925717 -0.092307
v -0.187062 2.310848 -0.257470
v -0.175575 2.925717 -0.241660
v -0.000000 2.309489 -0.288475
v 0.169561 2.309489 -0.233381
v 0.159149 2.927453 -0.219051
v 0.000000 2.927453 -0.270761
v 0.274355 2.309489 -0.089144
v 0.257508 2.927453 -0.083671
v 0.274355 2.309489 0.089142
v 0.257508 2.927453 0.083668
v 0.169561 2.309489 0.233379
v 0.159149 2.927453 0.219048
v -0.000000 2.309489 0.288473
v -0.000000 2.927453 0.270759
v -0.169561 2.309489 0.233379
v -0.159149 2.927453 0.219048
v -0.274355 2.309489 0.089142
v -0.257508 2.927453 0.083668
v -0.274355 2.309489 -0.089144
v -0.257508 2.927453 -0.083671
v -0.169561 2.309489 -0.233381
v -0.159149 2.927453 -0.219051
v 0.000000 0.000000 -0.338849
v 0.000000 0.045954 -0.338849
v 0.239602 0.000000 -0.239603
v 0.239602 0.045954 -0.239603
v 0.338848 0.000000 -0.000001
v 0.338848 0.045954 -0.000001
v 0.239602 0.000000 0.239601
v 0.239602 0.045954 0.239601
v -0.000000 0.000000 0.338847
v -0.000000 0.045954 0.338847
v -0.239602 0.000000 0.239601
v -0.239602 0.045954 0.239601
v -0.338848 0.000000 -0.000001
v -0.338848 0.045954 -0.000001
v -0.239602 0.000000 -0.239603
v -0.239602 0.045954 -0.239603
v 0.206644 0.083623 -0.206645
v 0.000000 0.083623 -0.292240
v 0.292239 0.083623 -0.000001
v 0.206644 0.083623 0.206643
v -0.000000 0.083623 0.292238
v -0.206644 0.083623 0.206643
v -0.292239 0.083623 -0.000001
v -0.206644 0.083623 -0.206645
v 0.142866 0.121292 -0.142867
v 0.000000 0.121292 -0.202044
v 0.202043 0.121292 -0.000001
v 0.142866 0.121292 0.142865
v -0.000000 0.121292 0.202042
v -0.142866 0.121292 0.142865
v -0.202043 0.121292 -0.000001
v -0.142866 0.121292 -0.142867
v 0.156429 0.143024 -0.156430
v 0.000000 0.143024 -0.221225
v 0.221223 0.143024 -0.000001
v 0.156429 0.143024 0.156427
v -0.000000 0.143024 0.221222
v -0.156429 0.143024 0.156427
v -0.221223 0.143024 -0.000001
v -0.156429 0.143024 -0.156430
v 0.133754 0.176347 -0.133755
v 0.000000 0.176347 -0.189158
v 0.189157 0.176347 -0.000001
v 0.133754 0.176347 0.133753
v -0.000000 0.176347 0.189156
v -0.133754 0.176347 0.133753
v -0.189157 0.176347 -0.000001
v -0.133754 0.176347 -0.133755
v 0.062828 0.203875 -0.062829
v 0.000000 0.203875 -0.088853
v 0.088852 0.203875 -0.000001
v 0.062828 0.203875 0.062827
v -0.000000 0.203875 0.088851
v -0.062828 0.203875 0.062827
v -0.088852 0.203875 -0.000001
v -0.062828 0.203875 -0.062829
v 0.025730 0.237198 -0.025731
v -0.000000 0.237198 -0.036388
v 0.036387 0.237198 -0.000001
v 0.025730 0.237198 0.025728
v -0.000000 0.237198 0.036386
v -0.025730 0.237198 0.025728
v -0.036387 0.237198 -0.000001
v -0.025730 0.237198 -0.025731
v 0.025730 2.945015 -0.025731
v -0.000000 2.945015 -0.036388
v 0.036387 2.945015 -0.000001
v 0.025730 2.945015 0.025728
v -0.000000 2.945015 0.036386
v -0.025730 2.945015 0.025728
v -0.036387 2.945015 -0.000001
v -0.025730 2.945015 -0.025731
v -0.006766 2.907655 -0.278331
v -0.006766 2.921188 -0.278331
v 0.006766 2.907655 -0.278331
v 0.006766 2.921188 -0.278331
v -0.006766 2.907655 0.278328
v -0.006766 2.921188 0.278328
v 0.006766 2.907655 0.278328
v 0.006766 2.921188 0.278328
v -0.278329 2.907655 0.006765
v -0.278329 2.921188 0.006765
v -0.278329 2.907655 -0.006767
v -0.278329 2.921188 -0.006767
v 0.278329 2.907655 0.006765
v 0.278329 2.921188 0.006765
v 0.278329 2.907655 -0.006767
v 0.278329 2.921188 -0.006767
vt 0.346470 0.165963
vt 0.313967 0.318903
vt 0.309794 0.165985
vt 0.282829 0.472590
vt 0.256256 0.319649
vt 0.287323 0.319672
vt 0.253670 0.472569
vt 0.208914 0.319649
vt 0.209235 0.472569
vt 0.163380 0.319672
vt 0.442354 0.155497
vt 0.409851 0.002556
vt 0.446527 0.002579
vt 0.407930 0.155476
vt 0.361155 0.002556
vt 0.362224 0.155476
vt 0.319039 0.002579
vt 0.499053 0.155474
vt 0.451639 0.002556
vt 0.500555 0.002556
vt 0.002556 0.477906
vt 0.041679 0.324203
vt 0.040732 0.477885
vt 0.433627 0.318903
vt 0.395166 0.165963
vt 0.437283 0.165985
vt 0.394097 0.318882
vt 0.083109 0.324203
vt 0.084872 0.477885
vt 0.550006 0.002556
vt 0.507029 0.156240
vt 0.505667 0.002556
vt 0.387179 0.477698
vt 0.422064 0.324035
vt 0.425355 0.477718
vt 0.343039 0.477698
vt 0.386232 0.324016
vt 0.313599 0.324035
vt 0.344802 0.324016
vt 0.458627 0.324036
vt 0.434599 0.477699
vt 0.430467 0.324016
vt 0.501308 0.477718
vt 0.461030 0.477718
vt 0.542815 0.324016
vt 0.501540 0.324036
vt 0.114313 0.324222
vt 0.118117 0.477906
vt 0.169990 0.219442
vt 0.163380 0.263206
vt 0.163380 0.217294
vt 0.234031 0.307587
vt 0.277696 0.300350
vt 0.234031 0.314537
vt 0.192131 0.145735
vt 0.238653 0.153446
vt 0.238653 0.160851
vt 0.234031 0.172913
vt 0.190366 0.180150
vt 0.234031 0.165963
vt 0.285175 0.145735
vt 0.306884 0.103873
vt 0.313927 0.106161
vt 0.196484 0.023663
vt 0.163380 0.057245
vt 0.192131 0.017672
vt 0.304682 0.217294
vt 0.273611 0.185773
vt 0.277696 0.180150
vt 0.194451 0.294727
vt 0.190366 0.300350
vt 0.306884 0.059534
vt 0.285175 0.017672
vt 0.313927 0.057245
vt 0.163380 0.106161
vt 0.196484 0.139744
vt 0.273611 0.294727
vt 0.304682 0.263206
vt 0.194451 0.185773
vt 0.238653 0.002556
vt 0.170422 0.059534
vt 0.280822 0.023663
vt 0.298072 0.261058
vt 0.348391 0.318882
vt 0.166497 0.472590
vt 0.322694 0.155497
vt 0.453141 0.155474
vt 0.005848 0.324222
vt 0.548645 0.156240
vt 0.309794 0.477718
vt 0.540048 0.477699
vt 0.169990 0.261058
vt 0.280822 0.139744
vt 0.298072 0.219442
vt 0.170422 0.103873
vt 0.238653 0.009961
vt 0.553227 0.230456
vt 0.541820 0.275313
vt 0.541798 0.230452
vt 0.151227 0.324203
vt 0.139779 0.375666
vt 0.139799 0.324205
vt 0.151208 0.375664
vt 0.139799 0.439548
vt 0.566568 0.002556
vt 0.555119 0.047421
vt 0.555140 0.002560
vt 0.566547 0.047417
vt 0.555140 0.111911
vt 0.123229 0.443379
vt 0.134667 0.383791
vt 0.134658 0.443379
vt 0.158267 0.112661
vt 0.147558 0.052599
vt 0.158267 0.048163
vt 0.123239 0.383791
vt 0.134658 0.324203
vt 0.553248 0.165967
vt 0.541820 0.165963
vt 0.048163 0.163380
vt 0.158267 0.208986
vt 0.112661 0.319091
vt 0.147558 0.108225
vt 0.099641 0.126834
vt 0.126834 0.099641
vt 0.002556 0.048163
vt 0.052599 0.013265
vt 0.013265 0.052599
vt 0.048163 0.158267
vt 0.108225 0.147558
vt 0.112661 0.158267
vt 0.108225 0.013265
vt 0.112661 0.002556
vt 0.013265 0.108225
vt 0.002556 0.112661
vt 0.052599 0.147558
vt 0.048163 0.002556
vt 0.163380 0.516605
vt 0.168789 0.555509
vt 0.163385 0.552136
vt 0.061183 0.126834
vt 0.033989 0.099641
vt 0.061183 0.033989
vt 0.126834 0.061183
vt 0.033989 0.061183
vt 0.099641 0.033989
vt 0.506911 0.165963
vt 0.467854 0.173331
vt 0.464802 0.165963
vt 0.456089 0.312940
vt 0.450688 0.272734
vt 0.456089 0.274488
vt 0.493702 0.313240
vt 0.488301 0.272734
vt 0.493702 0.275150
vt 0.142716 0.522925
vt 0.123229 0.487395
vt 0.127999 0.487395
vt 0.474896 0.274631
vt 0.469495 0.314837
vt 0.469495 0.272734
vt 0.168789 0.477702
vt 0.168782 0.516605
vt 0.503221 0.274559
vt 0.498814 0.314842
vt 0.498814 0.272734
vt 0.139343 0.448491
vt 0.142716 0.451864
vt 0.503859 0.260254
vt 0.477400 0.237207
vt 0.494313 0.237207
vt 0.536686 0.195738
vt 0.529318 0.234795
vt 0.529318 0.198790
vt 0.177078 0.549870
vt 0.450688 0.314837
vt 0.442395 0.275666
vt 0.488301 0.314440
vt 0.480008 0.276772
vt 0.506911 0.267622
vt 0.536686 0.237847
vt 0.461202 0.275905
vt 0.177073 0.516605
vt 0.465442 0.208336
vt 0.482394 0.208432
vt 0.477496 0.213329
vt 0.442395 0.198790
vt 0.465442 0.225248
vt 0.442395 0.234795
vt 0.503859 0.173331
vt 0.477400 0.196377
vt 0.506272 0.208336
vt 0.467854 0.260254
vt 0.494313 0.196377
vt 0.506272 0.225248
vt 0.554326 0.324016
vt 0.547927 0.997441
vt 0.547927 0.324017
vt 0.494217 0.213329
vt 0.489320 0.208432
vt 0.489320 0.225153
vt 0.494217 0.220255
vt 0.477496 0.220255
vt 0.482394 0.225153
vt 0.187088 0.494423
vt 0.182190 0.482600
vt 0.194014 0.477702
vt 0.299360 0.319649
vt 0.292435 0.993074
vt 0.292435 0.319649
vt 0.572697 0.324016
vt 0.565837 0.997441
vt 0.565837 0.324016
vt 0.590260 0.997444
vt 0.595078 0.324016
vt 0.595078 0.997440
vt 0.583335 0.997444
vt 0.590260 0.324019
vt 0.560725 0.324017
vt 0.554326 0.997440
vt 0.304178 0.319653
vt 0.299360 0.993074
vt 0.578223 0.324019
vt 0.572697 0.997440
vt 0.220870 0.477704
vt 0.223959 0.481068
vt 0.220870 0.481069
vt 0.583524 0.002556
vt 0.580158 0.136542
vt 0.580158 0.002557
vt 0.232159 0.481069
vt 0.229071 0.477702
vt 0.232159 0.477704
vt 0.147862 0.583099
vt 0.151227 0.444660
vt 0.151227 0.583099
vt 0.561726 0.165963
vt 0.558360 0.304402
vt 0.558360 0.165963
vt 0.566838 0.304402
vt 0.570203 0.165963
vt 0.570203 0.304402
vt 0.204023 0.481068
vt 0.207389 0.477702
vt 0.207389 0.481068
vt 0.587159 0.165964
vt 0.583793 0.292988
vt 0.583793 0.165963
vt 0.215758 0.481069
vt 0.212501 0.477702
vt 0.215758 0.477703
vt 0.592001 0.002556
vt 0.588636 0.129583
vt 0.588636 0.002557
vt 0.575046 0.140995
vt 0.571680 0.002556
vt 0.575046 0.002556
vt 0.578681 0.304402
vt 0.575316 0.165963
vt 0.578681 0.165963
vt 0.553248 0.275317
vt 0.151227 0.439546
vt 0.566568 0.111907
vt 0.123229 0.324203
vt 0.048163 0.319091
vt 0.002556 0.273484
vt 0.002556 0.208986
vt 0.112661 0.163380
vt 0.158267 0.273484
vt 0.139343 0.526298
vt 0.474896 0.313083
vt 0.163385 0.481075
vt 0.503221 0.313017
vt 0.442395 0.311666
vt 0.480008 0.312433
vt 0.461202 0.311905
vt 0.177078 0.483341
vt 0.182190 0.489526
vt 0.187088 0.477702
vt 0.198911 0.482600
vt 0.198911 0.489526
vt 0.194014 0.494423
vt 0.583335 0.324020
vt 0.560725 0.997441
vt 0.304178 0.993078
vt 0.578223 0.997443
vt 0.223959 0.477702
vt 0.583524 0.136542
vt 0.229071 0.481068
vt 0.147862 0.444660
vt 0.561726 0.304402
vt 0.566838 0.165963
vt 0.204023 0.477702
vt 0.587159 0.292989
vt 0.212501 0.481068
vt 0.592001 0.129581
vt 0.571680 0.140995
vt 0.575316 0.304402
vn 0.0000 0.0318 -0.9995
vn 0.5875 0.0318 -0.8086
vn 0.9506 0.0318 -0.3089
vn 0.9506 0.0318 0.3089
vn 0.5875 0.0318 0.8086
vn -0.0000 0.0318 0.9995
vn -0.5875 0.0318 0.8086
vn -0.9506 0.0318 0.3089
vn -0.9506 0.0318 -0.3089
vn -0.9507 -0.0287 0.3089
vn -0.5875 -0.0287 0.8087
vn -0.5875 0.0318 -0.8086
vn -0.0000 -0.0287 0.9996
vn -0.9507 -0.0287 -0.3089
vn -0.5875 -0.0287 -0.8087
vn 0.0000 -0.0287 -0.9996
vn 0.5875 -0.0287 -0.8087
vn 0.9507 -0.0287 -0.3089
vn 0.9507 -0.0287 0.3089
vn 0.5875 -0.0287 0.8087
vn -0.0589 0.9981 0.0192
vn -0.0589 0.9981 -0.0192
vn 0.0000 0.9981 -0.0620
vn 0.0364 0.9981 -0.0501
vn -0.0268 -0.9990 0.0369
vn -0.0000 -0.9990 0.0456
vn -0.0000 0.9981 0.0620
vn -0.0364 0.9981 0.0501
vn 0.0268 -0.9990 0.0369
vn 0.0433 -0.9990 0.0141
vn -0.0268 -0.9990 -0.0369
vn -0.0433 -0.9990 -0.0141
vn 0.0589 0.9981 0.0192
vn 0.0364 0.9981 0.0501
vn -0.0364 0.9981 -0.0501
vn 0.0433 -0.9990 -0.0141
vn 0.0268 -0.9990 -0.0369
vn -0.0433 -0.9990 0.0141
vn 0.0364 0.9981 -0.0502
vn 0.0589 0.9981 -0.0192
vn -0.0364 0.9981 0.0502
vn 0.0000 -0.9990 -0.0456
vn -0.0000 0.0000 -1.0000
vn 0.7071 0.0000 -0.7071
vn 1.0000 0.0000 -0.0000
vn 0.7071 0.0000 0.7071
vn -0.0000 0.0000 1.0000
vn -0.7071 0.0000 0.7071
vn -1.0000 0.0000 0.0000
vn 0.4445 0.7777 0.4445
vn -0.0000 0.8435 0.5371
vn -0.0000 0.7777 0.6286
vn -0.7071 0.0000 -0.7071
vn 0.0000 -1.0000 0.0000
vn 0.3798 0.8435 0.3798
vn 0.3854 0.9228 0.0000
vn 0.2725 0.9228 0.2725
vn -0.4445 0.7777 -0.4445
vn -0.5371 0.8435 0.0000
vn -0.3798 0.8435 -0.3798
vn 0.4445 0.7777 -0.4445
vn 0.5371 0.8435 0.0000
vn 0.6286 0.7777 0.0000
vn -0.3798 0.8435 0.3798
vn -0.4445 0.7777 0.4445
vn -0.0000 0.8435 -0.5371
vn -0.0000 0.7777 -0.6286
vn 0.3798 0.8435 -0.3798
vn -0.6286 0.7777 0.0000
vn -0.7498 -0.6617 0.0000
vn -0.5302 -0.6617 -0.5302
vn 0.2725 0.9228 -0.2725
vn -0.0000 0.9228 -0.3854
vn -0.3854 0.9228 -0.0000
vn -0.0000 0.9228 0.3854
vn -0.2725 0.9228 -0.2725
vn -0.2725 0.9228 0.2725
vn 0.5095 0.6934 0.5095
vn -0.0000 0.8310 0.5563
vn -0.0000 0.6934 0.7206
vn -0.0000 -0.6617 0.7498
vn -0.5302 -0.6617 0.5302
vn 0.7498 -0.6617 -0.0000
vn 0.5302 -0.6617 0.5302
vn -0.0000 -0.6617 -0.7498
vn 0.5302 -0.6617 -0.5302
vn 0.0000 0.8310 -0.5563
vn -0.2638 0.9278 -0.2638
vn 0.0000 0.9278 -0.3731
vn 0.7206 0.6934 0.0000
vn 0.3934 0.8310 -0.3934
vn 0.5563 0.8310 0.0000
vn -0.7206 0.6934 0.0000
vn -0.3934 0.8310 -0.3934
vn -0.5095 0.6934 -0.5095
vn -0.3934 0.8310 0.3934
vn -0.5095 0.6934 0.5095
vn 0.3934 0.8310 0.3934
vn 0.0000 0.6934 -0.7206
vn 0.5095 0.6934 -0.5095
vn -0.5563 0.8310 0.0000
vn -0.2638 0.9278 0.2638
vn -0.0000 0.8441 0.5361
vn -0.3791 0.8441 0.3791
vn -0.3731 0.9278 0.0000
vn -0.0000 0.9278 0.3731
vn 0.3731 0.9278 0.0000
vn 0.2638 0.9278 0.2638
vn 0.2638 0.9278 -0.2638
vn 0.5361 0.8441 0.0000
vn 0.3791 0.8441 0.3791
vn 0.0000 0.8441 -0.5361
vn 0.3791 0.8441 -0.3791
vn -0.5361 0.8441 0.0000
vn -0.3791 0.8441 -0.3791
vn 0.0000 1.0000 0.0000
s 1
f 1/1/1 4/2/2 3/3/2
f 4/4/2 5/5/3 3/6/2
f 6/7/3 7/8/4 5/5/3
f 8/9/4 9/10/5 7/8/4
f 10/11/5 11/12/6 9/13/5
f 12/14/6 13/15/7 11/12/6
f 14/16/7 15/17/8 13/15/7
f 16/18/8 17/19/9 15/20/8
f 25/21/10 23/22/11 22/23/11
f 18/24/9 19/25/12 17/26/9
f 20/27/12 1/1/1 19/25/12
f 22/23/11 24/28/13 21/29/13
f 27/30/14 26/31/10 25/32/10
f 29/33/15 28/34/14 27/35/14
f 31/36/16 30/37/15 29/33/15
f 31/36/16 34/38/17 32/39/16
f 35/40/18 34/41/17 33/42/17
f 35/40/18 38/43/19 36/44/18
f 39/45/20 38/43/19 37/46/19
f 21/29/13 40/47/20 39/48/20
f 36/49/21 18/50/22 16/51/21
f 24/52/23 4/53/24 2/54/23
f 13/55/25 31/56/26 11/57/26
f 32/58/27 14/59/28 12/60/27
f 9/61/29 27/62/30 7/63/30
f 39/64/31 17/65/32 19/66/31
f 8/67/33 30/68/34 10/69/34
f 18/50/22 40/70/35 20/71/35
f 25/72/36 3/73/37 5/74/36
f 15/75/38 33/76/25 13/55/25
f 23/77/39 6/78/40 4/53/24
f 34/79/41 16/51/21 14/59/28
f 31/56/26 9/61/29 11/57/26
f 1/80/42 39/64/31 19/66/31
f 30/68/34 12/60/27 10/69/34
f 20/71/35 24/52/23 2/54/23
f 27/62/30 5/74/36 7/63/30
f 37/81/32 15/75/38 17/65/32
f 22/82/37 1/80/42 3/73/37
f 26/83/40 8/67/33 6/78/40
f 1/1/1 2/84/1 4/2/2
f 4/4/2 6/7/3 5/5/3
f 6/7/3 8/9/4 7/8/4
f 8/9/4 10/85/5 9/10/5
f 10/11/5 12/14/6 11/12/6
f 12/14/6 14/16/7 13/15/7
f 14/16/7 16/86/8 15/17/8
f 16/18/8 18/87/9 17/19/9
f 25/21/10 26/88/10 23/22/11
f 18/24/9 20/27/12 19/25/12
f 20/27/12 2/84/1 1/1/1
f 22/23/11 23/22/11 24/28/13
f 27/30/14 28/89/14 26/31/10
f 29/33/15 30/37/15 28/34/14
f 31/36/16 32/39/16 30/37/15
f 31/36/16 33/90/17 34/38/17
f 35/40/18 36/44/18 34/41/17
f 35/40/18 37/46/19 38/43/19
f 39/45/20 40/91/20 38/43/19
f 21/29/13 24/28/13 40/47/20
f 36/49/21 38/92/22 18/50/22
f 24/52/23 23/77/39 4/53/24
f 13/55/25 33/76/25 31/56/26
f 32/58/27 34/79/41 14/59/28
f 9/61/29 29/93/29 27/62/30
f 39/64/31 37/81/32 17/65/32
f 8/67/33 28/94/33 30/68/34
f 18/50/22 38/92/22 40/70/35
f 25/72/36 22/82/37 3/73/37
f 15/75/38 35/95/38 33/76/25
f 23/77/39 26/83/40 6/78/40
f 34/79/41 36/49/21 16/51/21
f 31/56/26 29/93/29 9/61/29
f 1/80/42 21/96/42 39/64/31
f 30/68/34 32/58/27 12/60/27
f 20/71/35 40/70/35 24/52/23
f 27/62/30 25/72/36 5/74/36
f 37/81/32 35/95/38 15/75/38
f 22/82/37 21/96/42 1/80/42
f 26/83/40 28/94/33 8/67/33
f 42/97/43 43/98/44 41/99/43
f 44/100/44 45/101/45 43/102/44
f 46/103/45 47/104/46 45/101/45
f 48/105/46 49/106/47 47/107/46
f 50/108/47 51/109/48 49/106/47
f 52/110/48 53/111/49 51/112/48
f 48/113/50 61/114/51 50/115/52
f 54/116/49 55/117/53 53/111/49
f 56/118/53 41/99/43 55/119/53
f 47/120/54 51/121/54 55/122/54
f 60/123/55 67/124/56 68/125/57
f 56/126/58 63/127/59 64/128/60
f 44/129/61 59/130/62 46/131/63
f 50/115/52 62/132/64 52/133/65
f 56/126/58 58/134/66 42/135/67
f 44/129/61 58/134/66 57/136/68
f 46/131/63 60/123/55 48/113/50
f 52/133/65 63/127/59 54/137/69
f 71/138/70 80/139/71 72/140/71
f 58/134/66 65/141/72 57/136/68
f 64/128/60 66/142/73 58/134/66
f 62/132/64 71/143/74 63/127/59
f 60/123/55 69/144/75 61/114/51
f 57/136/68 67/124/56 59/130/62
f 64/128/60 71/143/74 72/145/76
f 61/114/51 70/146/77 62/132/64
f 76/147/78 85/148/79 77/149/80
f 69/150/81 78/151/82 70/152/82
f 67/153/83 76/154/84 68/155/84
f 66/156/85 73/157/86 65/158/86
f 66/159/85 80/160/71 74/161/85
f 71/138/70 78/162/82 79/163/70
f 69/164/81 76/165/84 77/166/81
f 65/158/86 75/167/83 67/168/83
f 82/169/87 96/170/88 90/171/89
f 75/172/90 81/173/91 83/174/92
f 79/163/93 88/175/94 80/139/95
f 77/176/80 86/177/96 78/151/97
f 75/178/90 84/179/98 76/154/78
f 74/180/99 81/173/91 73/181/100
f 80/160/95 82/182/87 74/161/99
f 78/162/97 87/183/101 79/163/93
f 94/184/102 101/185/103 102/186/104
f 86/187/96 95/188/105 87/189/101
f 84/190/98 93/191/106 85/148/79
f 81/173/91 91/192/107 83/174/92
f 87/189/101 96/170/88 88/193/94
f 85/148/79 94/184/102 86/187/96
f 83/174/92 92/194/108 84/190/98
f 82/169/87 89/195/109 81/173/91
f 103/196/49 112/197/53 104/198/53
f 92/194/108 99/199/110 100/200/111
f 89/195/109 98/201/112 97/202/113
f 96/170/88 98/201/112 90/171/89
f 94/184/102 103/203/114 95/188/105
f 92/194/108 101/185/103 93/191/106
f 89/195/109 99/199/110 91/192/107
f 95/188/105 104/204/115 96/170/88
f 107/205/116 106/206/116 111/207/116
f 101/208/47 110/209/48 102/210/48
f 99/211/45 108/212/46 100/213/46
f 98/214/43 105/215/44 97/216/44
f 104/217/53 106/218/43 98/214/43
f 102/219/48 111/220/49 103/196/49
f 100/221/46 109/222/47 101/208/47
f 97/223/44 107/224/45 99/211/45
f 114/225/43 115/226/43 113/227/43
f 116/228/45 119/229/45 115/230/45
f 120/231/47 117/232/47 119/233/47
f 118/234/49 113/235/49 117/236/49
f 115/237/54 117/238/54 113/239/54
f 120/240/116 114/241/116 118/242/116
f 122/243/49 123/244/49 121/245/49
f 124/246/43 127/247/43 123/248/43
f 128/249/45 125/250/45 127/251/45
f 126/252/47 121/253/47 125/254/47
f 127/255/54 121/256/54 123/257/54
f 124/258/116 126/259/116 128/260/116
f 42/97/43 44/261/44 43/98/44
f 44/100/44 46/103/45 45/101/45
f 46/103/45 48/262/46 47/104/46
f 48/105/46 50/108/47 49/106/47
f 50/108/47 52/263/48 51/109/48
f 52/110/48 54/116/49 53/111/49
f 48/113/50 60/123/55 61/114/51
f 54/116/49 56/264/53 55/117/53
f 56/118/53 42/97/43 41/99/43
f 55/122/54 41/265/54 43/266/54
f 43/266/54 45/267/54 47/120/54
f 47/120/54 49/268/54 51/121/54
f 51/121/54 53/269/54 55/122/54
f 55/122/54 43/266/54 47/120/54
f 60/123/55 59/130/62 67/124/56
f 56/126/58 54/137/69 63/127/59
f 44/129/61 57/136/68 59/130/62
f 50/115/52 61/114/51 62/132/64
f 56/126/58 64/128/60 58/134/66
f 44/129/61 42/135/67 58/134/66
f 46/131/63 59/130/62 60/123/55
f 52/133/65 62/132/64 63/127/59
f 71/138/70 79/163/70 80/139/71
f 58/134/66 66/142/73 65/141/72
f 64/128/60 72/145/76 66/142/73
f 62/132/64 70/146/77 71/143/74
f 60/123/55 68/125/57 69/144/75
f 57/136/68 65/141/72 67/124/56
f 64/128/60 63/127/59 71/143/74
f 61/114/51 69/144/75 70/146/77
f 76/147/78 84/190/98 85/148/79
f 69/150/81 77/176/81 78/151/82
f 67/153/83 75/178/83 76/154/84
f 66/156/85 74/270/85 73/157/86
f 66/159/85 72/271/71 80/160/71
f 71/138/70 70/272/82 78/162/82
f 69/164/81 68/273/84 76/165/84
f 65/158/86 73/157/86 75/167/83
f 82/169/87 88/193/94 96/170/88
f 75/172/90 73/181/100 81/173/91
f 79/163/93 87/183/101 88/175/94
f 77/176/80 85/274/79 86/177/96
f 75/178/90 83/275/92 84/179/98
f 74/180/99 82/169/87 81/173/91
f 80/160/95 88/276/94 82/182/87
f 78/162/97 86/277/96 87/183/101
f 94/184/102 93/191/106 101/185/103
f 86/187/96 94/184/102 95/188/105
f 84/190/98 92/194/108 93/191/106
f 81/173/91 89/195/109 91/192/107
f 87/189/101 95/188/105 96/170/88
f 85/148/79 93/191/106 94/184/102
f 83/174/92 91/192/107 92/194/108
f 82/169/87 90/171/89 89/195/109
f 103/196/49 111/220/49 112/197/53
f 92/194/108 91/192/107 99/199/110
f 89/195/109 90/171/89 98/201/112
f 96/170/88 104/204/115 98/201/112
f 94/184/102 102/186/104 103/203/114
f 92/194/108 100/200/111 101/185/103
f 89/195/109 97/202/113 99/199/110
f 95/188/105 103/203/114 104/204/115
f 107/205/116 105/278/116 106/206/116
f 106/206/116 112/279/116 111/207/116
f 111/207/116 110/280/116 109/281/116
f 109/281/116 108/282/116 111/207/116
f 108/282/116 107/205/116 111/207/116
f 101/208/47 109/222/47 110/209/48
f 99/211/45 107/224/45 108/212/46
f 98/214/43 106/218/43 105/215/44
f 104/217/53 112/283/53 106/218/43
f 102/219/48 110/284/48 111/220/49
f 100/221/46 108/285/46 109/222/47
f 97/223/44 105/286/44 107/224/45
f 114/225/43 116/287/43 115/226/43
f 116/228/45 120/288/45 119/229/45
f 120/231/47 118/289/47 117/232/47
f 118/234/49 114/290/49 113/235/49
f 115/237/54 119/291/54 117/238/54
f 120/240/116 116/292/116 114/241/116
f 122/243/49 124/293/49 123/244/49
f 124/246/43 128/294/43 127/247/43
f 128/249/45 126/295/45 125/250/45
f 126/252/47 122/296/47 121/253/47
f 127/255/54 125/297/54 121/256/54
f 124/258/116 122/298/116 126/259/116
