# Blender v2.92.0 OBJ File: 'quaternius_OGConvert.blend'
# www.blender.org
o Light_CeilingSingle_Cylinder.040
v -0.000000 -0.014759 -0.138915
v -0.000000 0.001923 -0.138915
v 0.081652 -0.014759 -0.112385
v 0.081652 0.001923 -0.112385
v 0.132116 -0.014759 -0.042927
v 0.132116 0.001923 -0.042927
v 0.132116 -0.014759 0.042927
v 0.132116 0.001923 0.042927
v 0.081652 -0.014759 0.112385
v 0.081652 0.001923 0.112385
v 0.000000 -0.014759 0.138915
v 0.000000 0.001923 0.138915
v -0.081652 -0.014759 0.112385
v -0.081652 0.001923 0.112385
v -0.132116 -0.014759 0.042927
v -0.132116 0.001923 0.042927
v -0.132116 -0.014759 -0.042927
v -0.132116 0.001923 -0.042927
v -0.081652 -0.014759 -0.112385
v -0.081652 0.001923 -0.112385
v -0.000000 -0.245662 -0.029539
v -0.000000 -0.229609 -0.029539
v 0.020887 -0.245662 -0.020887
v 0.020887 -0.229609 -0.020887
v 0.029539 -0.245662 -0.000000
v 0.029539 -0.229609 -0.000000
v 0.020887 -0.245662 0.020887
v 0.020887 -0.229609 0.020887
v 0.000000 -0.245662 0.029539
v 0.000000 -0.229609 0.029539
v -0.020887 -0.245662 0.020887
v -0.020887 -0.229609 0.020887
v -0.029539 -0.245662 0.000000
v -0.029539 -0.229609 0.000000
v -0.020887 -0.245662 -0.020887
v -0.020887 -0.229609 -0.020887
v -0.000000 -0.245662 -0.075560
v 0.053429 -0.245662 -0.053429
v 0.075560 -0.245662 -0.000000
v 0.053429 -0.245662 0.053429
v 0.000000 -0.245662 0.075560
v -0.053429 -0.245662 0.053429
v -0.075559 -0.245662 0.000000
v -0.053429 -0.245662 -0.053429
v -0.000000 -0.346603 -0.085885
v 0.060730 -0.346603 -0.060730
v 0.085885 -0.346603 -0.000000
v 0.060730 -0.346603 0.060730
v 0.000000 -0.346603 0.085885
v -0.060730 -0.346603 0.060730
v -0.085885 -0.346603 0.000000
v -0.060730 -0.346603 -0.060730
v -0.000000 -0.449199 -0.104073
v 0.073591 -0.449199 -0.073591
v 0.104073 -0.449199 -0.000000
v 0.073591 -0.449199 0.073591
v 0.000000 -0.449199 0.104073
v -0.073591 -0.449199 0.073591
v -0.104073 -0.449199 0.000000
v -0.073591 -0.449199 -0.073591
v -0.005190 -0.014229 0.005190
v -0.007340 -0.014229 0.000000
v -0.005190 -0.014229 -0.005190
v -0.000000 -0.014229 -0.007340
v -0.005190 -0.236484 -0.005190
v -0.007340 -0.236484 0.000000
v -0.005190 -0.236484 0.005190
v -0.000000 -0.236484 0.007340
v 0.005190 -0.236484 0.005190
v 0.007340 -0.236484 -0.000000
v 0.005190 -0.236484 -0.005190
v -0.000000 -0.236484 -0.007340
v -0.000000 -0.449199 -0.099221
v 0.070160 -0.449199 -0.070160
v 0.099221 -0.449199 -0.000000
v 0.070160 -0.449199 0.070160
v 0.000000 -0.449199 0.099221
v -0.070160 -0.449199 0.070160
v -0.099221 -0.449199 0.000000
v -0.070160 -0.449199 -0.070160
v -0.000000 -0.404773 -0.078033
v 0.055177 -0.404773 -0.055177
v 0.078033 -0.404773 -0.000000
v 0.055177 -0.404773 0.055177
v 0.000000 -0.404773 0.078033
v -0.055177 -0.404773 0.055177
v -0.078033 -0.404773 0.000000
v -0.055177 -0.404773 -0.055177
v -0.000000 -0.391358 -0.054596
v 0.038605 -0.391358 -0.038605
v 0.054596 -0.391358 -0.000000
v 0.038605 -0.391358 0.038605
v 0.000000 -0.391358 0.054596
v -0.038605 -0.391358 0.038605
v -0.054596 -0.391358 0.000000
v -0.038605 -0.391358 -0.038605
v -0.000000 -0.441665 -0.054596
v 0.038605 -0.441665 -0.038605
v 0.054596 -0.441665 -0.000000
v 0.038605 -0.441665 0.038605
v 0.000000 -0.441665 0.054596
v -0.038605 -0.441665 0.038605
v -0.054596 -0.441665 0.000000
v -0.038605 -0.441665 -0.038605
v -0.000000 -0.462626 -0.047955
v 0.033910 -0.462626 -0.033910
v 0.047955 -0.462626 -0.000000
v 0.033910 -0.462626 0.033910
v 0.000000 -0.462626 0.047955
v -0.033910 -0.462626 0.033910
v -0.047955 -0.462626 0.000000
v -0.033910 -0.462626 -0.033910
v -0.000000 -0.476461 -0.030749
v 0.021743 -0.476461 -0.021743
v 0.030749 -0.476461 -0.000000
v 0.021743 -0.476461 0.021743
v -0.000000 -0.476461 0.030749
v -0.021743 -0.476461 0.021743
v -0.030749 -0.476461 0.000000
v -0.021743 -0.476461 -0.021743
v -0.000000 -0.014229 0.007340
v 0.005190 -0.014229 0.005190
v 0.007340 -0.014229 -0.000000
v 0.005190 -0.014229 -0.005190
vt 0.637583 0.903722
vt 0.660564 0.785636
vt 0.660564 0.903808
vt 0.637583 0.785550
vt 0.664365 0.685278
vt 0.774798 0.934529
vt 0.797768 0.816079
vt 0.797768 0.934529
vt 0.265800 0.670073
vt 0.246619 0.770517
vt 0.242819 0.670159
vt 0.269601 0.770431
vt 0.246619 0.888688
vt 0.269601 0.888602
vt 0.242819 0.979537
vt 0.970518 0.004290
vt 0.951902 0.100118
vt 0.947547 0.004290
vt 0.974873 0.100118
vt 0.951902 0.218567
vt 0.299217 0.350998
vt 0.073913 0.350998
vt 0.004290 0.136721
vt 0.974873 0.218567
vt 0.947547 0.314395
vt 0.641383 0.994570
vt 0.664365 0.994656
vt 0.559696 0.004290
vt 0.741970 0.136721
vt 0.672348 0.350998
vt 0.641383 0.685192
vt 0.774798 0.816079
vt 0.265800 0.979451
vt 0.073913 0.040893
vt 0.368840 0.136721
vt 0.186565 0.004290
vt 0.299217 0.040893
vt 0.368840 0.255170
vt 0.186565 0.387600
vt 0.004291 0.255170
vt 0.970518 0.314395
vt 0.559696 0.387600
vt 0.377421 0.136721
vt 0.447044 0.350998
vt 0.377421 0.255170
vt 0.447044 0.040893
vt 0.672348 0.040893
vt 0.741970 0.255170
vt 0.629002 0.725957
vt 0.588237 0.824372
vt 0.489822 0.783607
vt 0.170437 0.946883
vt 0.116380 0.976250
vt 0.112790 0.946914
vt 0.376999 0.886426
vt 0.319352 0.955698
vt 0.319352 0.886394
vt 0.278182 0.957895
vt 0.278182 0.888592
vt 0.104209 0.930841
vt 0.033558 0.877580
vt 0.102829 0.877580
vt 0.170437 0.877580
vt 0.112790 0.877611
vt 0.589741 0.886214
vt 0.519090 0.832953
vt 0.588361 0.832953
vt 0.102829 0.984103
vt 0.034938 0.930841
vt 0.211607 0.879777
vt 0.588361 0.939476
vt 0.520470 0.886214
vt 0.701463 0.721054
vt 0.723395 0.762608
vt 0.701463 0.771692
vt 0.489822 0.839431
vt 0.004290 0.977625
vt 0.005503 0.930841
vt 0.211607 0.949081
vt 0.167016 0.976222
vt 0.519090 0.939476
vt 0.491035 0.886214
vt 0.376999 0.955729
vt 0.322773 0.985037
vt 0.286611 0.986967
vt 0.004290 0.884058
vt 0.746354 0.785566
vt 0.801782 0.730139
vt 0.737269 0.807498
vt 0.778823 0.785567
vt 0.787907 0.807498
vt 0.823714 0.771692
vt 0.823714 0.721054
vt 0.737269 0.685248
vt 0.778823 0.707180
vt 0.746354 0.707180
vt 0.801782 0.762608
vt 0.787907 0.685248
vt 0.723395 0.730139
vt 0.489822 0.725957
vt 0.530587 0.685192
vt 0.588237 0.685192
vt 0.629002 0.783607
vt 0.530587 0.824372
vt 0.033558 0.984103
vt 0.203178 0.978153
vt 0.489822 0.932998
vt 0.373408 0.985064
vt 0.598322 0.864134
vt 0.621132 0.833437
vt 0.620432 0.864619
vt 0.856539 0.293357
vt 0.835181 0.322174
vt 0.834435 0.293357
vt 0.857286 0.322174
vt 0.834435 0.350991
vt 0.898000 0.347319
vt 0.919410 0.315652
vt 0.920111 0.346834
vt 0.897300 0.316137
vt 0.920111 0.293357
vt 0.887972 0.293357
vt 0.866614 0.322174
vt 0.865867 0.293357
vt 0.803798 0.368659
vt 0.772607 0.368659
vt 0.750551 0.346603
vt 0.888719 0.322174
vt 0.865867 0.350991
vt 0.599022 0.886430
vt 0.621132 0.886915
vt 0.412143 0.797098
vt 0.414385 0.877813
vt 0.390088 0.819154
vt 0.453424 0.398091
vt 0.379712 0.534281
vt 0.379712 0.396181
vt 0.358897 0.743852
vt 0.414385 0.685192
vt 0.390088 0.743852
vt 0.358897 0.819154
vt 0.278182 0.821396
vt 0.336841 0.797098
vt 0.470803 0.741610
vt 0.470803 0.821396
vt 0.336841 0.765907
vt 0.334599 0.685192
vt 0.278182 0.741610
vt 0.334599 0.877813
vt 0.412143 0.765907
vt 0.278182 0.676611
vt 0.295926 0.536452
vt 0.847567 0.397974
vt 0.798886 0.534369
vt 0.790536 0.396181
vt 0.591352 0.396181
vt 0.675138 0.536452
vt 0.591352 0.534281
vt 0.849893 0.004290
vt 0.932205 0.144515
vt 0.841543 0.142478
vt 0.776719 0.144515
vt 0.792862 0.006083
vt 0.305999 0.398091
vt 0.708225 0.536406
vt 0.710773 0.397974
vt 0.507567 0.536452
vt 0.517639 0.398091
vt 0.004290 0.473889
vt 0.010475 0.581222
vt 0.004290 0.583784
vt 0.701463 0.676667
vt 0.489822 0.676611
vt 0.463497 0.536452
vt 0.379712 0.673981
vt 0.889878 0.676667
vt 0.811325 0.674198
vt 0.591352 0.673981
vt 0.829104 0.282307
vt 0.750551 0.284776
vt 0.986344 0.991282
vt 0.993504 0.685433
vt 0.993504 0.991468
vt 0.678562 0.991413
vt 0.685722 0.685192
vt 0.685722 0.991227
vt 0.220954 0.976257
vt 0.228703 0.670073
vt 0.228703 0.976253
vt 0.867206 0.378282
vt 0.861726 0.365052
vt 0.874956 0.359572
vt 0.979184 0.676667
vt 0.984719 0.370191
vt 0.984719 0.676371
vt 0.847665 0.378282
vt 0.839915 0.378282
vt 0.847665 0.359572
vt 0.992468 0.370195
vt 0.992468 0.676375
vt 0.234238 0.670368
vt 0.234238 0.976548
vt 0.834803 0.685248
vt 0.895296 0.782044
vt 0.832295 0.782044
vt 0.084560 0.655307
vt 0.081998 0.661492
vt 0.191893 0.661492
vt 0.263416 0.581222
vt 0.269601 0.583784
vt 0.269601 0.473889
vt 0.189331 0.402366
vt 0.191893 0.396181
vt 0.081998 0.396181
vt 0.010475 0.476451
vt 0.189331 0.655307
vt 0.263416 0.476451
vt 0.084560 0.402366
vt 0.004291 0.810735
vt 0.062555 0.670073
vt 0.203216 0.728337
vt 0.703816 0.816079
vt 0.764366 0.911279
vt 0.701463 0.920819
vt 0.900967 0.396181
vt 0.961460 0.492977
vt 0.898459 0.492977
vt 0.908203 0.685248
vt 0.968752 0.769678
vt 0.905849 0.760138
vt 0.970603 0.852051
vt 0.908203 0.864878
vt 0.897269 0.858169
vt 0.834803 0.878840
vt 0.766217 0.970177
vt 0.703816 0.995710
vt 0.963433 0.569103
vt 0.900967 0.589774
vt 0.692882 0.685378
vt 0.692882 0.991413
vt 0.979184 0.991468
vt 0.986344 0.685248
vt 0.599022 0.832953
vt 0.856539 0.350991
vt 0.898000 0.293841
vt 0.750551 0.315412
vt 0.772607 0.293357
vt 0.803798 0.293357
vt 0.825854 0.315412
vt 0.825854 0.346603
vt 0.887972 0.350991
vt 0.863711 0.536406
vt 0.665065 0.398091
vt 0.929656 0.006083
vt 0.481241 0.676611
vt 0.692882 0.676611
vt 0.938966 0.284776
vt 0.678562 0.685378
vt 0.220954 0.670077
vt 0.880436 0.372802
vt 0.874956 0.378282
vt 0.861726 0.372802
vt 0.867206 0.359572
vt 0.880436 0.365052
vt 0.979184 0.370486
vt 0.834435 0.372802
vt 0.834435 0.365052
vt 0.839915 0.359572
vt 0.853145 0.365052
vt 0.853145 0.372802
vt 0.897269 0.705918
vt 0.144952 0.868999
vt 0.062555 0.868999
vt 0.004290 0.728337
vt 0.144952 0.670073
vt 0.203216 0.810734
vt 0.766217 0.828906
vt 0.963433 0.416852
vt 0.970603 0.710780
vt 0.979184 0.685433
vn -0.0000 0.0000 -1.0000
vn 0.5878 0.0000 -0.8090
vn 0.9511 0.0000 -0.3090
vn 0.9511 0.0000 0.3090
vn 0.5878 0.0000 0.8090
vn 0.0000 0.0000 1.0000
vn -0.5878 0.0000 0.8090
vn -0.9511 0.0000 0.3090
vn -0.9511 0.0000 -0.3090
vn 0.0000 1.0000 -0.0000
vn -0.5878 0.0000 -0.8090
vn 0.0000 -1.0000 -0.0000
vn 0.0000 -0.1475 0.9891
vn 0.5978 -0.5340 0.5978
vn 0.6994 -0.1475 0.6994
vn 0.7071 0.0000 -0.7071
vn 0.0000 -0.1475 -0.9891
vn -0.6994 -0.1475 -0.6994
vn -0.7071 0.0000 -0.7071
vn -1.0000 0.0000 0.0000
vn -0.6994 -0.1475 0.6994
vn -0.7071 0.0000 0.7071
vn 0.7071 0.0000 0.7071
vn 1.0000 0.0000 -0.0000
vn 0.6994 -0.1475 -0.6994
vn -0.9891 -0.1475 0.0000
vn 0.9891 -0.1475 -0.0000
vn 0.0000 -0.5340 -0.8455
vn -0.2840 -0.9158 -0.2840
vn -0.5978 -0.5340 -0.5978
vn 0.5978 -0.5340 -0.5978
vn -0.8455 -0.5340 0.0000
vn 0.0000 -0.5340 0.8455
vn 0.8455 -0.5340 0.0000
vn -0.5978 -0.5340 0.5978
vn -0.4016 -0.9158 0.0000
vn 0.2840 -0.9158 0.2840
vn -0.2840 -0.9158 0.2840
vn 0.4016 -0.9158 -0.0000
vn 0.2840 -0.9158 -0.2840
vn 0.0000 -0.9158 0.4016
vn 0.0000 -0.9158 -0.4016
vn -0.7034 0.1018 -0.7034
vn -0.9902 0.1395 0.0000
vn -0.9948 0.1018 0.0000
vn -0.6962 0.1746 0.6962
vn -0.7002 0.1395 0.7002
vn -0.7034 0.1018 0.7034
vn 0.0000 0.1395 0.9902
vn 0.0000 0.1018 0.9948
vn 0.9948 0.1018 -0.0000
vn 0.7002 0.1395 0.7002
vn 0.9902 0.1395 -0.0000
vn -0.0000 0.1018 -0.9948
vn 0.7002 0.1395 -0.7002
vn 0.0000 0.1395 -0.9902
vn -0.7002 0.1395 -0.7002
vn 0.7034 0.1018 0.7034
vn 0.7034 0.1018 -0.7034
vn 0.6962 0.1746 0.6962
vn 0.6962 0.1746 -0.6963
vn -0.9846 0.1746 0.0000
vn -0.0000 0.1746 0.9846
vn 0.9846 0.1746 -0.0000
vn -0.0000 0.1746 -0.9846
vn -0.6963 0.1746 -0.6962
vn 0.6382 -0.4305 0.6382
vn 0.9026 -0.4305 -0.0000
vn 0.6382 -0.4305 -0.6382
vn -0.0000 -0.4305 -0.9026
vn -0.6382 -0.4305 -0.6382
vn -0.9026 -0.4305 0.0000
vn -0.6382 -0.4305 0.6382
vn -0.0000 -0.4305 0.9026
s 1
f 2/1/1 3/2/2 1/3/1
f 4/4/2 5/5/3 3/2/2
f 6/6/3 7/7/4 5/8/3
f 8/9/4 9/10/5 7/11/4
f 10/12/5 11/13/6 9/10/5
f 12/14/6 13/15/7 11/13/6
f 14/16/7 15/17/8 13/18/7
f 16/19/8 17/20/9 15/17/8
f 14/21/10 10/22/10 6/23/10
f 18/24/9 19/25/11 17/20/9
f 20/26/11 1/3/1 19/27/11
f 11/28/12 15/29/12 19/30/12
f 2/1/1 4/4/2 3/2/2
f 4/4/2 6/31/3 5/5/3
f 6/6/3 8/32/4 7/7/4
f 8/9/4 10/12/5 9/10/5
f 10/12/5 12/14/6 11/13/6
f 12/14/6 14/33/7 13/15/7
f 14/16/7 16/19/8 15/17/8
f 16/19/8 18/24/9 17/20/9
f 6/23/10 4/34/10 18/35/10
f 4/34/10 2/36/10 18/35/10
f 2/36/10 20/37/10 18/35/10
f 18/35/10 16/38/10 14/21/10
f 14/21/10 12/39/10 10/22/10
f 10/22/10 8/40/10 6/23/10
f 18/35/10 14/21/10 6/23/10
f 18/24/9 20/41/11 19/25/11
f 20/26/11 2/1/1 1/3/1
f 19/30/12 1/42/12 7/43/12
f 1/42/12 3/44/12 7/43/12
f 3/44/12 5/45/12 7/43/12
f 7/43/12 9/46/12 11/28/12
f 11/28/12 13/47/12 15/29/12
f 15/29/12 17/48/12 19/30/12
f 7/43/12 11/28/12 19/30/12
f 94/49/10 92/50/10 90/51/10
f 101/52/13 108/53/14 100/54/15
f 90/55/16 97/56/17 89/57/1
f 89/57/1 104/58/18 96/59/19
f 95/60/20 102/61/21 94/62/22
f 93/63/6 100/54/15 92/64/23
f 91/65/24 98/66/25 90/67/16
f 96/68/19 103/69/26 95/60/20
f 94/70/22 101/52/13 93/63/6
f 92/71/23 99/72/27 91/65/24
f 105/73/28 120/74/29 112/75/30
f 99/72/27 106/76/31 98/66/25
f 103/69/26 112/77/30 111/78/32
f 102/79/21 109/80/33 101/52/13
f 100/81/15 107/82/34 99/72/27
f 98/83/25 105/84/28 97/56/17
f 97/56/17 112/85/30 104/58/18
f 103/69/26 110/86/35 102/61/21
f 119/87/36 120/74/29 116/88/37
f 111/89/32 118/90/38 110/91/35
f 109/92/33 116/88/37 108/93/14
f 106/94/31 115/95/39 114/96/40
f 111/89/32 120/74/29 119/87/36
f 110/91/35 117/97/41 109/92/33
f 108/93/14 115/95/39 107/98/34
f 106/94/31 113/99/42 105/73/28
f 90/51/10 89/100/10 96/101/10
f 96/101/10 95/102/10 90/51/10
f 95/102/10 94/49/10 90/51/10
f 94/49/10 93/103/10 92/50/10
f 92/50/10 91/104/10 90/51/10
f 101/52/13 109/80/33 108/53/14
f 90/55/16 98/83/25 97/56/17
f 89/57/1 97/56/17 104/58/18
f 95/60/20 103/69/26 102/61/21
f 93/63/6 101/52/13 100/54/15
f 91/65/24 99/72/27 98/66/25
f 96/68/19 104/105/18 103/69/26
f 94/70/22 102/79/21 101/52/13
f 92/71/23 100/81/15 99/72/27
f 105/73/28 113/99/42 120/74/29
f 99/72/27 107/82/34 106/76/31
f 103/69/26 104/105/18 112/77/30
f 102/79/21 110/106/35 109/80/33
f 100/81/15 108/107/14 107/82/34
f 98/83/25 106/108/31 105/84/28
f 97/56/17 105/84/28 112/85/30
f 103/69/26 111/78/32 110/86/35
f 120/74/29 113/99/42 116/88/37
f 113/99/42 114/96/40 116/88/37
f 114/96/40 115/95/39 116/88/37
f 116/88/37 117/97/41 118/90/38
f 118/90/38 119/87/36 116/88/37
f 111/89/32 119/87/36 118/90/38
f 109/92/33 117/97/41 116/88/37
f 106/94/31 107/98/34 115/95/39
f 111/89/32 112/75/30 120/74/29
f 110/91/35 118/90/38 117/97/41
f 108/93/14 116/88/37 115/95/39
f 106/94/31 114/96/40 113/99/42
f 22/109/1 23/110/16 21/111/1
f 24/112/16 25/113/24 23/114/16
f 26/115/24 27/116/23 25/113/24
f 28/117/23 29/118/6 27/119/23
f 30/120/6 31/121/22 29/118/6
f 32/122/22 33/123/20 31/124/22
f 30/125/10 28/126/10 26/127/10
f 34/128/20 35/129/19 33/123/20
f 36/130/19 21/111/1 35/131/19
f 29/132/10 40/133/10 27/134/10
f 44/135/43 51/136/44 43/137/45
f 35/138/10 43/139/10 33/140/10
f 25/141/10 38/142/10 23/143/10
f 29/132/10 42/144/10 41/145/10
f 21/146/10 44/147/10 35/138/10
f 23/143/10 37/148/10 21/146/10
f 27/134/10 39/149/10 25/141/10
f 31/150/10 43/139/10 42/144/10
f 51/136/44 58/151/46 50/152/47
f 42/153/48 49/154/49 41/155/50
f 39/156/51 48/157/52 47/158/53
f 37/159/54 46/160/55 45/161/56
f 37/159/54 52/162/57 44/163/43
f 43/137/45 50/152/47 42/164/48
f 41/155/50 48/165/52 40/166/58
f 39/156/51 46/167/55 38/168/59
f 54/169/12 73/170/12 53/171/12
f 49/154/49 56/172/60 48/165/52
f 47/158/53 54/173/61 46/167/55
f 52/174/57 59/175/62 51/136/44
f 49/154/49 58/176/46 57/177/63
f 48/157/52 55/178/64 47/158/53
f 46/160/55 53/179/65 45/161/56
f 52/162/57 53/179/65 60/180/66
f 70/181/24 122/182/23 69/183/23
f 67/184/22 62/185/20 66/186/20
f 69/187/23 121/188/6 68/189/6
f 64/190/10 62/191/10 121/192/10
f 65/193/19 64/194/1 72/195/1
f 65/196/12 72/197/12 68/198/12
f 72/195/1 124/199/16 71/200/16
f 68/189/6 61/201/22 67/202/22
f 80/203/67 87/204/68 79/205/68
f 53/171/12 80/206/12 60/207/12
f 59/208/12 78/209/12 58/210/12
f 57/211/12 76/212/12 56/213/12
f 55/214/12 74/215/12 54/169/12
f 59/208/12 80/206/12 79/216/12
f 57/211/12 78/209/12 77/217/12
f 56/213/12 75/218/12 55/214/12
f 82/219/12 84/220/12 86/221/12
f 78/222/69 85/223/70 77/224/70
f 76/225/71 83/226/72 75/227/72
f 74/228/73 81/229/74 73/230/74
f 73/230/74 88/231/67 80/232/67
f 79/205/68 86/233/69 78/234/69
f 77/224/70 84/235/71 76/236/71
f 75/227/72 82/237/73 74/238/73
f 66/186/20 63/239/19 65/240/19
f 71/241/16 123/242/24 70/181/24
f 22/109/1 24/243/16 23/110/16
f 24/112/16 26/115/24 25/113/24
f 26/115/24 28/244/23 27/116/23
f 28/117/23 30/120/6 29/118/6
f 30/120/6 32/245/22 31/121/22
f 32/122/22 34/128/20 33/123/20
f 26/127/10 24/246/10 22/247/10
f 22/247/10 36/248/10 26/127/10
f 36/248/10 34/249/10 26/127/10
f 34/249/10 32/250/10 26/127/10
f 32/250/10 30/125/10 26/127/10
f 34/128/20 36/251/19 35/129/19
f 36/130/19 22/109/1 21/111/1
f 29/132/10 41/145/10 40/133/10
f 44/135/43 52/174/57 51/136/44
f 35/138/10 44/147/10 43/139/10
f 25/141/10 39/149/10 38/142/10
f 29/132/10 31/150/10 42/144/10
f 21/146/10 37/148/10 44/147/10
f 23/143/10 38/142/10 37/148/10
f 27/134/10 40/133/10 39/149/10
f 31/150/10 33/140/10 43/139/10
f 51/136/44 59/175/62 58/151/46
f 42/153/48 50/252/47 49/154/49
f 39/156/51 40/253/58 48/157/52
f 37/159/54 38/254/59 46/160/55
f 37/159/54 45/161/56 52/162/57
f 43/137/45 51/136/44 50/152/47
f 41/155/50 49/154/49 48/165/52
f 39/156/51 47/158/53 46/167/55
f 54/169/12 74/215/12 73/170/12
f 49/154/49 57/177/63 56/172/60
f 47/158/53 55/178/64 54/173/61
f 52/174/57 60/255/66 59/175/62
f 49/154/49 50/252/47 58/176/46
f 48/157/52 56/256/60 55/178/64
f 46/160/55 54/257/61 53/179/65
f 52/162/57 45/161/56 53/179/65
f 70/181/24 123/242/24 122/182/23
f 67/184/22 61/258/22 62/185/20
f 69/187/23 122/259/23 121/188/6
f 123/260/10 124/261/10 64/190/10
f 64/190/10 63/262/10 62/191/10
f 62/191/10 61/263/10 121/192/10
f 121/192/10 122/264/10 123/260/10
f 123/260/10 64/190/10 121/192/10
f 65/193/19 63/265/19 64/194/1
f 72/197/12 71/266/12 70/267/12
f 70/267/12 69/268/12 72/197/12
f 69/268/12 68/198/12 72/197/12
f 68/198/12 67/269/12 66/270/12
f 66/270/12 65/196/12 68/198/12
f 72/195/1 64/194/1 124/199/16
f 68/189/6 121/188/6 61/201/22
f 80/203/67 88/271/67 87/204/68
f 53/171/12 73/170/12 80/206/12
f 59/208/12 79/216/12 78/209/12
f 57/211/12 77/217/12 76/212/12
f 55/214/12 75/218/12 74/215/12
f 59/208/12 60/207/12 80/206/12
f 57/211/12 58/210/12 78/209/12
f 56/213/12 76/212/12 75/218/12
f 88/272/12 81/273/12 82/219/12
f 82/219/12 83/274/12 84/220/12
f 84/220/12 85/275/12 86/221/12
f 86/221/12 87/276/12 88/272/12
f 88/272/12 82/219/12 86/221/12
f 78/222/69 86/277/69 85/223/70
f 76/225/71 84/278/71 83/226/72
f 74/228/73 82/279/73 81/229/74
f 73/230/74 81/229/74 88/231/67
f 79/205/68 87/204/68 86/233/69
f 77/224/70 85/223/70 84/235/71
f 75/227/72 83/226/72 82/237/73
f 66/186/20 62/185/20 63/239/19
f 71/241/16 124/280/16 123/242/24
