# Blender v2.92.0 OBJ File: 'quaternius_OGConvert.blend'
# www.blender.org
o NightStand_1_Cube.001
v -0.420824 0.771255 0.420824
v -0.473368 0.828713 0.473368
v -0.420824 0.771255 -0.420824
v -0.473368 0.828713 -0.473368
v 0.420824 0.771255 0.420824
v 0.473368 0.828713 0.473368
v 0.420824 0.771255 -0.420824
v 0.473368 0.828713 -0.473368
v -0.476115 0.798653 0.476115
v -0.476115 0.798653 -0.476115
v 0.476115 0.798653 -0.476115
v 0.476115 0.798653 0.476115
v -0.407949 0.785988 0.407949
v -0.407949 0.785988 -0.407949
v 0.407949 0.785988 0.407949
v 0.407949 0.785988 -0.407949
v -0.394538 0.441283 -0.394538
v -0.394538 0.441283 0.394538
v 0.394538 0.441283 -0.394538
v 0.394538 0.441283 0.394538
v -0.390559 0.758945 0.407949
v 0.390559 0.758945 0.407949
v -0.377719 0.455722 0.394538
v 0.377719 0.455722 0.394538
v -0.369891 0.753441 0.400708
v 0.369891 0.753441 0.400708
v -0.357731 0.461045 0.387534
v 0.357731 0.461045 0.387534
v 0.356029 0.774667 0.356029
v 0.356029 0.774667 0.416781
v 0.416782 0.774667 0.356029
v 0.416782 0.774667 0.416781
v 0.349508 0.003794 0.369518
v 0.349508 0.003794 0.403292
v 0.383282 0.003794 0.369518
v 0.383282 0.003794 0.403292
v -0.356029 0.774667 0.356029
v -0.356029 0.774667 0.416781
v -0.416782 0.774667 0.356029
v -0.416782 0.774667 0.416781
v -0.349508 0.003794 0.369518
v -0.349508 0.003794 0.403292
v -0.383282 0.003794 0.369518
v -0.383282 0.003794 0.403292
v 0.356029 0.774667 -0.356029
v 0.356029 0.774667 -0.416781
v 0.416782 0.774667 -0.356029
v 0.416782 0.774667 -0.416781
v 0.349508 0.003794 -0.369518
v 0.349508 0.003794 -0.403292
v 0.383282 0.003794 -0.369518
v 0.383282 0.003794 -0.403292
v -0.356029 0.774667 -0.356029
v -0.356029 0.774667 -0.416781
v -0.416782 0.774667 -0.356029
v -0.416782 0.774667 -0.416781
v -0.349508 0.003794 -0.369518
v -0.349508 0.003794 -0.403292
v -0.383282 0.003794 -0.369518
v -0.383282 0.003794 -0.403292
v 0.000000 0.581771 0.418009
v 0.000000 0.580639 0.378262
v 0.015731 0.588287 0.418009
v 0.016531 0.587487 0.378262
v 0.022247 0.604018 0.418009
v 0.023379 0.604018 0.378262
v 0.015731 0.619749 0.418009
v 0.016531 0.620549 0.378262
v -0.000000 0.626265 0.418009
v -0.000000 0.627397 0.378262
v -0.015731 0.619749 0.418009
v -0.016531 0.620549 0.378262
v -0.022247 0.604018 0.418009
v -0.023379 0.604018 0.378262
v -0.015731 0.588287 0.418009
v -0.016531 0.587487 0.378262
v 0.000000 0.560179 0.433431
v 0.030999 0.573019 0.433431
v 0.043839 0.604018 0.433431
v 0.030999 0.635017 0.433431
v -0.000000 0.647857 0.433431
v -0.030999 0.635017 0.433431
v -0.043839 0.604018 0.433431
v -0.030999 0.573019 0.433431
v 0.000000 0.560179 0.452358
v 0.030999 0.573019 0.452358
v 0.043839 0.604018 0.452358
v 0.030999 0.635017 0.452358
v -0.000000 0.647857 0.452358
v -0.030999 0.635017 0.452358
v -0.043839 0.604018 0.452358
v -0.030999 0.573019 0.452358
v 0.000000 0.575882 0.461470
v 0.019895 0.584123 0.461470
v 0.028136 0.604018 0.461470
v 0.019895 0.623913 0.461470
v -0.000000 0.632154 0.461470
v -0.019895 0.623913 0.461470
v -0.028136 0.604018 0.461470
v -0.019895 0.584123 0.461470
vt 0.351239 0.371374
vt 0.339933 0.728523
vt 0.339933 0.370346
vt 0.995945 0.005088
vt 0.984641 0.362237
vt 0.984641 0.004055
vt 0.976532 0.005094
vt 0.965227 0.362232
vt 0.965227 0.004055
vt 0.995939 0.371379
vt 0.984641 0.728528
vt 0.984641 0.370346
vt 0.341477 0.341439
vt 0.024893 0.024852
vt 0.341477 0.024852
vt 0.370343 0.004055
vt 0.726454 0.360170
vt 0.370343 0.360170
vt 0.004055 0.362237
vt 0.024893 0.341439
vt 0.362234 0.362237
vt 0.362234 0.004055
vt 0.004055 0.004055
vt 0.677240 0.368279
vt 0.370343 0.675181
vt 0.370343 0.368280
vt 0.300864 0.667158
vt 0.004055 0.370346
vt 0.300864 0.370346
vt 0.685349 0.670136
vt 0.804876 0.668639
vt 0.815048 0.675181
vt 0.864237 0.310956
vt 0.734563 0.009099
vt 0.864237 0.004055
vt 0.952828 0.675176
vt 0.823157 0.373350
vt 0.952828 0.368279
vt 0.133725 0.982164
vt 0.004055 0.680286
vt 0.133725 0.675267
vt 0.362234 0.664165
vt 0.359502 0.378120
vt 0.362234 0.370346
vt 0.685349 0.373324
vt 0.804876 0.374821
vt 0.690780 0.379650
vt 0.690780 0.663810
vt 0.815048 0.368279
vt 0.802783 0.660865
vt 0.692761 0.387169
vt 0.802783 0.382595
vt 0.359589 0.672274
vt 0.362234 0.948914
vt 0.359589 0.956433
vt 0.501312 0.683290
vt 0.478461 0.706142
vt 0.478461 0.683290
vt 0.522125 0.726955
vt 0.509421 0.714251
vt 0.522125 0.714251
vt 0.331824 0.370539
vt 0.319121 0.660439
vt 0.308973 0.370346
vt 0.331824 0.958643
vt 0.319121 0.668764
vt 0.331824 0.668656
vt 0.823157 0.973273
vt 0.840870 0.683285
vt 0.846009 0.973273
vt 0.370343 0.973250
vt 0.388105 0.683290
vt 0.393195 0.973250
vt 0.509421 0.683290
vt 0.532273 0.706142
vt 0.509421 0.706142
vt 0.530235 0.726955
vt 0.542939 0.714251
vt 0.542938 0.726955
vt 0.882493 0.004162
vt 0.895197 0.294062
vt 0.872346 0.294255
vt 0.195645 0.675460
vt 0.182942 0.965340
vt 0.172794 0.675267
vt 0.859257 0.683285
vt 0.876970 0.973273
vt 0.854118 0.973273
vt 0.890169 0.683285
vt 0.907930 0.973245
vt 0.885079 0.973245
vt 0.563234 0.706142
vt 0.540382 0.683290
vt 0.563234 0.683290
vt 0.563752 0.714251
vt 0.551048 0.726955
vt 0.551048 0.714251
vt 0.151982 0.675374
vt 0.164685 0.965254
vt 0.141834 0.965448
vt 0.957118 0.004248
vt 0.944414 0.294148
vt 0.934266 0.004055
vt 0.239723 0.675267
vt 0.257566 0.965254
vt 0.234715 0.965254
vt 0.921097 0.683285
vt 0.938891 0.973245
vt 0.916039 0.973245
vt 0.571343 0.706142
vt 0.594194 0.683290
vt 0.594194 0.706142
vt 0.571861 0.714251
vt 0.584565 0.726955
vt 0.571861 0.726955
vt 0.226606 0.675460
vt 0.213902 0.965340
vt 0.203755 0.675267
vt 0.926157 0.294062
vt 0.913454 0.004162
vt 0.926157 0.004055
vt 0.265675 0.965254
vt 0.283519 0.675267
vt 0.288527 0.965254
vt 0.947000 0.973245
vt 0.964794 0.683285
vt 0.969852 0.973245
vt 0.351239 0.727484
vt 0.995945 0.361204
vt 0.976532 0.361204
vt 0.995939 0.727495
vt 0.726454 0.004055
vt 0.677240 0.675181
vt 0.004055 0.667158
vt 0.734563 0.305911
vt 0.823157 0.670158
vt 0.004055 0.977093
vt 0.359502 0.656390
vt 0.692761 0.656291
vt 0.362234 0.679793
vt 0.501312 0.706142
vt 0.509421 0.726955
vt 0.331824 0.660547
vt 0.308973 0.958837
vt 0.828166 0.683285
vt 0.375401 0.683290
vt 0.532273 0.683290
vt 0.530235 0.714251
vt 0.895197 0.004055
vt 0.195645 0.965447
vt 0.871961 0.683285
vt 0.902873 0.683285
vt 0.540382 0.706142
vt 0.563752 0.726955
vt 0.164685 0.675267
vt 0.957117 0.294255
vt 0.252427 0.675267
vt 0.933801 0.683285
vt 0.571343 0.683290
vt 0.584565 0.714251
vt 0.226606 0.965447
vt 0.903306 0.294255
vt 0.270815 0.675267
vt 0.952091 0.683285
vt 0.484679 0.714251
vt 0.490596 0.729213
vt 0.484679 0.729204
vt 0.700597 0.706379
vt 0.706819 0.721318
vt 0.700897 0.721332
vt 0.713033 0.706379
vt 0.712732 0.721332
vt 0.700597 0.683304
vt 0.706815 0.698243
vt 0.700897 0.698256
vt 0.706815 0.683290
vt 0.712732 0.698256
vt 0.602304 0.707662
vt 0.608518 0.722601
vt 0.602605 0.722614
vt 0.613793 0.683290
vt 0.618553 0.694780
vt 0.607063 0.699539
vt 0.614740 0.707662
vt 0.614440 0.722614
vt 0.478762 0.729213
vt 0.401304 0.704835
vt 0.408794 0.695317
vt 0.408794 0.701722
vt 0.431774 0.704835
vt 0.419728 0.706250
vt 0.424256 0.701722
vt 0.413323 0.690788
vt 0.422849 0.683290
vt 0.419728 0.690788
vt 0.413323 0.706250
vt 0.431774 0.692214
vt 0.424256 0.695317
vt 0.410228 0.683290
vt 0.422849 0.713760
vt 0.664316 0.694950
vt 0.657170 0.683290
vt 0.664290 0.683290
vt 0.439883 0.704835
vt 0.451094 0.708291
vt 0.448807 0.713759
vt 0.626662 0.694941
vt 0.633807 0.706610
vt 0.626688 0.706610
vt 0.641942 0.683290
vt 0.649035 0.694959
vt 0.641916 0.694959
vt 0.664290 0.706610
vt 0.657197 0.694950
vt 0.626688 0.683290
vt 0.633781 0.694941
vt 0.692468 0.706610
vt 0.685368 0.694950
vt 0.692488 0.694950
vt 0.685349 0.683290
vt 0.692468 0.683290
vt 0.649061 0.706610
vt 0.641942 0.706610
vt 0.445366 0.694464
vt 0.459194 0.688736
vt 0.464921 0.702564
vt 0.470352 0.704836
vt 0.459194 0.708292
vt 0.470352 0.692215
vt 0.461427 0.683290
vt 0.439883 0.692214
vt 0.451094 0.688736
vt 0.461428 0.713760
vt 0.464921 0.694464
vt 0.448807 0.683290
vt 0.445366 0.702564
vt 0.490897 0.714261
vt 0.706819 0.706365
vt 0.713033 0.683304
vt 0.608517 0.707648
vt 0.602304 0.694780
vt 0.602304 0.688049
vt 0.607063 0.683290
vt 0.618553 0.688049
vt 0.613793 0.699539
vt 0.478461 0.714261
vt 0.401304 0.692214
vt 0.410228 0.713760
vt 0.649061 0.683290
vt 0.657170 0.706610
vt 0.633807 0.683290
vt 0.685349 0.706610
vn -0.9959 0.0910 0.0000
vn 0.0000 0.0910 -0.9959
vn 0.9959 0.0910 0.0000
vn 0.0000 0.0910 0.9959
vn 0.1739 -0.9693 -0.1739
vn -0.1739 -0.9693 0.1739
vn -0.1739 -0.9693 -0.1739
vn 0.0000 1.0000 0.0000
vn 0.0000 -0.8960 0.4440
vn 0.1739 -0.9693 0.1739
vn 0.4440 -0.8960 0.0000
vn 0.0000 -0.8960 -0.4440
vn -0.4440 -0.8960 0.0000
vn 0.0000 -1.0000 0.0000
vn 0.0173 -0.0238 0.9996
vn 0.0419 -0.0241 0.9988
vn -0.0224 -0.0144 0.9996
vn 0.0000 -0.0389 -0.9992
vn 0.9992 -0.0389 0.0000
vn -0.9992 -0.0389 0.0000
vn 0.0000 -0.7961 0.6051
vn -0.0173 -0.0238 0.9996
vn -0.0419 -0.0241 0.9988
vn -0.0911 -0.0224 0.9956
vn 0.0911 -0.0224 0.9956
vn 0.0224 -0.0144 0.9996
vn 0.1809 -0.0362 0.9828
vn -0.1788 -0.0369 0.9832
vn -0.1809 -0.0362 0.9828
vn 0.0000 0.7961 0.6051
vn 0.0000 -0.0175 0.9998
vn 0.0000 -0.0175 -0.9998
vn 0.9991 -0.0434 0.0000
vn -1.0000 0.0085 0.0000
vn -0.9991 -0.0434 0.0000
vn 1.0000 0.0085 0.0000
vn 0.1788 -0.0369 0.9832
vn 0.3826 -0.9236 0.0263
vn 0.3825 -0.9236 0.0263
vn 0.9236 -0.3826 0.0263
vn 0.9236 0.3826 0.0263
vn 0.3826 0.9236 0.0263
vn 0.3825 0.9236 0.0263
vn -0.3826 0.9236 0.0263
vn -0.3825 0.9236 0.0263
vn -0.9236 0.3826 0.0263
vn -0.0000 0.0000 -1.0000
vn -0.9236 -0.3826 0.0263
vn -0.3826 -0.9236 0.0263
vn -0.3825 -0.9236 0.0263
vn -0.4110 0.4110 -0.8138
vn -0.0000 0.5812 -0.8138
vn -0.0000 -0.5812 -0.8138
vn -0.4110 -0.4110 -0.8138
vn 0.4110 0.4110 -0.8138
vn 0.5812 -0.0000 -0.8138
vn -0.5812 -0.0000 -0.8138
vn 0.4110 -0.4110 -0.8138
vn 0.3827 0.9239 0.0000
vn -0.0000 -0.5019 0.8649
vn -0.3549 -0.3549 0.8649
vn 0.9239 -0.3827 0.0000
vn -0.9239 -0.3827 0.0000
vn -0.3827 0.9239 0.0000
vn 0.9239 0.3827 0.0000
vn 0.3827 -0.9239 0.0000
vn -0.3827 -0.9239 0.0000
vn -0.9239 0.3827 0.0000
vn 0.0000 0.0000 1.0000
vn -0.3549 0.3549 0.8649
vn -0.5019 0.0000 0.8649
vn -0.0000 0.5019 0.8649
vn 0.3549 0.3549 0.8649
vn 0.3549 -0.3549 0.8649
vn 0.5019 0.0000 0.8649
s 1
f 2/1/1 10/2/1 9/3/1
f 4/4/2 11/5/2 10/6/2
f 8/7/3 12/8/3 11/9/3
f 6/10/4 9/11/4 12/12/4
f 7/13/5 1/14/6 3/15/7
f 4/16/8 6/17/8 8/18/8
f 12/19/9 1/14/6 5/20/10
f 11/21/11 5/20/10 7/13/5
f 10/22/12 7/13/5 3/15/7
f 9/23/13 3/15/7 1/14/6
f 13/24/8 16/25/8 14/26/8
f 19/27/14 18/28/14 17/29/14
f 18/30/15 21/31/16 13/32/17
f 16/33/18 17/34/18 14/35/18
f 15/36/19 19/37/19 16/38/19
f 14/39/20 18/40/20 13/41/20
f 21/42/21 26/43/21 22/44/21
f 20/45/22 22/46/23 24/47/24
f 20/45/22 23/48/25 18/30/15
f 13/32/17 22/46/23 15/49/26
f 25/50/27 28/51/28 26/52/29
f 24/47/24 26/52/29 28/51/28
f 24/53/30 27/54/30 23/55/30
f 23/48/25 25/50/27 21/31/16
f 30/56/8 31/57/8 29/58/8
f 35/59/14 34/60/14 33/61/14
f 30/62/31 36/63/31 32/64/31
f 29/65/32 35/66/32 33/67/32
f 32/68/33 35/69/33 31/70/33
f 29/71/34 34/72/34 30/73/34
f 39/74/8 38/75/8 37/76/8
f 42/77/14 43/78/14 41/79/14
f 44/80/31 38/81/31 40/82/31
f 37/83/32 43/84/32 39/85/32
f 43/86/35 40/87/35 39/88/35
f 42/89/36 37/90/36 38/91/36
f 47/92/8 46/93/8 45/94/8
f 50/95/14 51/96/14 49/97/14
f 52/98/32 46/99/32 48/100/32
f 45/101/31 51/102/31 47/103/31
f 51/104/33 48/105/33 47/106/33
f 50/107/34 45/108/34 46/109/34
f 54/110/8 55/111/8 53/112/8
f 59/113/14 58/114/14 57/115/14
f 54/116/32 60/117/32 56/118/32
f 53/119/31 59/120/31 57/121/31
f 56/122/35 59/123/35 55/124/35
f 53/125/36 58/126/36 54/127/36
f 2/1/1 4/128/1 10/2/1
f 4/4/2 8/129/2 11/5/2
f 8/7/3 6/130/3 12/8/3
f 6/10/4 2/131/4 9/11/4
f 7/13/5 5/20/10 1/14/6
f 4/16/8 2/132/8 6/17/8
f 12/19/9 9/23/9 1/14/6
f 11/21/11 12/19/11 5/20/10
f 10/22/12 11/21/12 7/13/5
f 9/23/13 10/22/13 3/15/7
f 13/24/8 15/133/8 16/25/8
f 19/27/14 20/134/14 18/28/14
f 18/30/15 23/48/25 21/31/16
f 16/33/18 19/135/18 17/34/18
f 15/36/19 20/136/19 19/37/19
f 14/39/20 17/137/20 18/40/20
f 21/42/21 25/138/21 26/43/21
f 20/45/22 15/49/26 22/46/23
f 20/45/22 24/47/24 23/48/25
f 13/32/17 21/31/16 22/46/23
f 25/50/27 27/139/37 28/51/28
f 24/47/24 22/46/23 26/52/29
f 24/53/30 28/140/30 27/54/30
f 23/48/25 27/139/37 25/50/27
f 30/56/8 32/141/8 31/57/8
f 35/59/14 36/142/14 34/60/14
f 30/62/31 34/143/31 36/63/31
f 29/65/32 31/144/32 35/66/32
f 32/68/33 36/145/33 35/69/33
f 29/71/34 33/146/34 34/72/34
f 39/74/8 40/147/8 38/75/8
f 42/77/14 44/148/14 43/78/14
f 44/80/31 42/149/31 38/81/31
f 37/83/32 41/150/32 43/84/32
f 43/86/35 44/151/35 40/87/35
f 42/89/36 41/152/36 37/90/36
f 47/92/8 48/153/8 46/93/8
f 50/95/14 52/154/14 51/96/14
f 52/98/32 50/155/32 46/99/32
f 45/101/31 49/156/31 51/102/31
f 51/104/33 52/157/33 48/105/33
f 50/107/34 49/158/34 45/108/34
f 54/110/8 56/159/8 55/111/8
f 59/113/14 60/160/14 58/114/14
f 54/116/32 58/161/32 60/117/32
f 53/119/31 55/162/31 59/120/31
f 56/122/35 60/163/35 59/123/35
f 53/125/36 57/164/36 58/126/36
f 62/165/38 63/166/38 61/167/39
f 64/168/40 65/169/40 63/170/40
f 65/169/41 68/171/41 67/172/41
f 68/173/42 69/174/43 67/175/43
f 70/176/44 71/177/44 69/174/45
f 72/178/46 73/179/46 71/180/46
f 74/181/47 70/182/47 66/183/47
f 73/179/48 76/184/48 75/185/48
f 75/186/49 62/165/49 61/167/50
f 82/187/51 69/188/52 71/189/51
f 77/190/53 75/191/54 61/192/53
f 67/193/55 79/194/56 65/195/56
f 73/196/57 82/187/51 71/189/51
f 65/195/56 78/197/58 63/198/58
f 69/188/52 80/199/55 67/193/55
f 84/200/54 73/196/57 75/191/54
f 81/201/59 88/202/59 80/203/59
f 85/204/60 100/205/61 92/206/61
f 79/207/62 86/208/62 78/209/62
f 84/210/63 91/211/63 83/212/63
f 82/213/64 89/214/64 81/201/64
f 80/215/65 87/216/65 79/207/65
f 78/217/66 85/218/66 77/219/66
f 77/219/67 92/220/67 84/221/67
f 83/212/68 90/222/68 82/223/68
f 94/224/69 96/225/69 98/226/69
f 90/227/70 99/228/71 98/226/70
f 89/229/72 96/225/73 88/230/73
f 86/231/74 95/232/75 94/224/74
f 92/206/61 99/228/71 91/233/71
f 90/227/70 97/234/72 89/229/72
f 88/230/73 95/232/75 87/235/75
f 86/231/74 93/236/60 85/204/60
f 63/198/58 77/190/53 61/192/53
f 62/165/38 64/237/38 63/166/38
f 64/168/40 66/238/40 65/169/40
f 65/169/41 66/238/41 68/171/41
f 68/173/42 70/176/42 69/174/43
f 70/176/44 72/239/44 71/177/44
f 72/178/46 74/240/46 73/179/46
f 66/183/47 64/241/47 74/181/47
f 64/241/47 62/242/47 74/181/47
f 62/242/47 76/243/47 74/181/47
f 74/181/47 72/244/47 70/182/47
f 70/182/47 68/245/47 66/183/47
f 73/179/48 74/240/48 76/184/48
f 75/186/49 76/246/49 62/165/49
f 82/187/51 81/247/52 69/188/52
f 77/190/53 84/200/54 75/191/54
f 67/193/55 80/199/55 79/194/56
f 73/196/57 83/248/57 82/187/51
f 65/195/56 79/194/56 78/197/58
f 69/188/52 81/247/52 80/199/55
f 84/200/54 83/248/57 73/196/57
f 81/201/59 89/214/59 88/202/59
f 85/204/60 93/236/60 100/205/61
f 79/207/62 87/216/62 86/208/62
f 84/210/63 92/249/63 91/211/63
f 82/213/64 90/250/64 89/214/64
f 80/215/65 88/251/65 87/216/65
f 78/217/66 86/252/66 85/218/66
f 77/219/67 85/218/67 92/220/67
f 83/212/68 91/211/68 90/222/68
f 100/205/69 93/236/69 94/224/69
f 94/224/69 95/232/69 96/225/69
f 96/225/69 97/234/69 98/226/69
f 98/226/69 99/228/69 100/205/69
f 100/205/69 94/224/69 98/226/69
f 90/227/70 91/233/71 99/228/71
f 89/229/72 97/234/72 96/225/73
f 86/231/74 87/235/75 95/232/75
f 92/206/61 100/205/61 99/228/71
f 90/227/70 98/226/70 97/234/72
f 88/230/73 96/225/73 95/232/75
f 86/231/74 94/224/74 93/236/60
f 63/198/58 78/197/58 77/190/53
