# Blender v2.92.0 OBJ File: 'quaternius_OGConvert.blend'
# www.blender.org
o NightStand_3_Cube.006
v -0.420824 0.771255 0.420824
v -0.473368 0.828713 0.473368
v -0.420824 0.771255 -0.420824
v -0.473368 0.828713 -0.473368
v 0.420824 0.771255 0.420824
v 0.473368 0.828713 0.473368
v 0.420824 0.771255 -0.420824
v 0.473368 0.828713 -0.473368
v -0.476115 0.798653 0.476115
v -0.476115 0.798653 -0.476115
v 0.476115 0.798653 -0.476115
v 0.476115 0.798653 0.476115
v 0.355245 0.781598 0.409851
v 0.355245 0.781598 0.350156
v 0.414940 0.781598 0.409851
v 0.414940 0.781598 0.350156
v 0.355245 0.001661 0.350156
v 0.355245 0.001661 0.409851
v 0.414940 0.001661 0.350156
v 0.414940 0.001661 0.409851
v -0.355245 0.781598 0.409851
v -0.355245 0.781598 0.350156
v -0.414940 0.781598 0.409851
v -0.414940 0.781598 0.350156
v -0.355245 0.001661 0.350156
v -0.355245 0.001661 0.409851
v -0.414940 0.001661 0.350156
v -0.414940 0.001661 0.409851
v 0.355245 0.781598 -0.409851
v 0.355245 0.781598 -0.350156
v 0.414940 0.781598 -0.409851
v 0.414940 0.781598 -0.350156
v 0.355245 0.001661 -0.350156
v 0.355245 0.001661 -0.409851
v 0.414940 0.001661 -0.350156
v 0.414940 0.001661 -0.409851
v -0.355245 0.781598 -0.409851
v -0.355245 0.781598 -0.350156
v -0.414940 0.781598 -0.409851
v -0.414940 0.781598 -0.350156
v -0.355245 0.001661 -0.350156
v -0.355245 0.001661 -0.409851
v -0.414940 0.001661 -0.350156
v -0.414940 0.001661 -0.409851
v -0.400633 0.777406 0.400633
v -0.400633 0.777406 -0.400633
v 0.400633 0.777406 0.400633
v 0.400633 0.777406 -0.400633
v -0.376528 0.759513 0.400633
v 0.376528 0.759513 0.400633
v -0.376528 0.459060 0.400633
v 0.376528 0.459060 0.400633
v -0.347311 0.747856 0.384952
v 0.347311 0.747856 0.384952
v -0.347311 0.470717 0.384952
v 0.347311 0.470717 0.384952
v 0.000000 0.581771 0.418009
v 0.000000 0.580639 0.378262
v 0.015731 0.588287 0.418009
v 0.016531 0.587487 0.378262
v 0.022247 0.604018 0.418009
v 0.023379 0.604018 0.378262
v 0.015731 0.619749 0.418009
v 0.016531 0.620549 0.378262
v -0.000000 0.626265 0.418009
v -0.000000 0.627397 0.378262
v -0.015731 0.619749 0.418009
v -0.016531 0.620549 0.378262
v -0.022247 0.604018 0.418009
v -0.023379 0.604018 0.378262
v -0.015731 0.588287 0.418009
v -0.016531 0.587487 0.378262
v 0.000000 0.560179 0.433431
v 0.030999 0.573019 0.433431
v 0.043839 0.604018 0.433431
v 0.030999 0.635017 0.433431
v -0.000000 0.647857 0.433431
v -0.030999 0.635017 0.433431
v -0.043839 0.604018 0.433431
v -0.030999 0.573019 0.433431
v 0.000000 0.560179 0.452358
v 0.030999 0.573019 0.452358
v 0.043839 0.604018 0.452358
v 0.030999 0.635017 0.452358
v -0.000000 0.647857 0.452358
v -0.030999 0.635017 0.452358
v -0.043839 0.604018 0.452358
v -0.030999 0.573019 0.452358
v 0.000000 0.575882 0.461470
v 0.019895 0.584123 0.461470
v 0.028136 0.604018 0.461470
v 0.019895 0.623913 0.461470
v -0.000000 0.632154 0.461470
v -0.019895 0.623913 0.461470
v -0.028136 0.604018 0.461470
v -0.019895 0.584123 0.461470
v -0.400633 0.104930 0.400633
v -0.400633 0.104930 -0.400633
v 0.400633 0.104930 0.400633
v 0.400633 0.104930 -0.400633
v -0.400633 0.441168 -0.400633
v -0.400633 0.441168 0.400633
v 0.400633 0.441168 -0.400633
v 0.400633 0.441168 0.400633
v -0.376528 0.122822 0.400633
v 0.376528 0.122822 0.400633
v -0.376528 0.423275 0.400633
v 0.376528 0.423275 0.400633
v -0.347311 0.134479 0.384952
v 0.347311 0.134479 0.384952
v -0.347311 0.411618 0.384952
v 0.347311 0.411618 0.384952
v 0.000000 0.300565 0.418009
v 0.000000 0.301696 0.378262
v 0.015731 0.294049 0.418009
v 0.016531 0.294849 0.378262
v 0.022247 0.278318 0.418009
v 0.023379 0.278318 0.378262
v 0.015731 0.262586 0.418009
v 0.016531 0.261786 0.378262
v -0.000000 0.256070 0.418009
v -0.000000 0.254939 0.378262
v -0.015731 0.262586 0.418009
v -0.016531 0.261786 0.378262
v -0.022247 0.278318 0.418009
v -0.023379 0.278318 0.378262
v -0.015731 0.294049 0.418009
v -0.016531 0.294849 0.378262
v 0.000000 0.322157 0.433431
v 0.030999 0.309316 0.433431
v 0.043839 0.278318 0.433431
v 0.030999 0.247319 0.433431
v -0.000000 0.234478 0.433431
v -0.030999 0.247319 0.433431
v -0.043839 0.278318 0.433431
v -0.030999 0.309316 0.433431
v 0.000000 0.322157 0.452358
v 0.030999 0.309316 0.452358
v 0.043839 0.278318 0.452358
v 0.030999 0.247319 0.452358
v -0.000000 0.234478 0.452358
v -0.030999 0.247319 0.452358
v -0.043839 0.278318 0.452358
v -0.030999 0.309316 0.452358
v 0.000000 0.306453 0.461470
v 0.019895 0.298212 0.461470
v 0.028136 0.278318 0.461470
v 0.019895 0.258423 0.461470
v -0.000000 0.250182 0.461470
v -0.019895 0.258423 0.461470
v -0.028136 0.278318 0.461470
v -0.019895 0.298212 0.461470
vt 0.956815 0.348109
vt 0.946205 0.683041
vt 0.946205 0.347147
vt 0.336281 0.350054
vt 0.325668 0.684988
vt 0.325668 0.349085
vt 0.976212 0.348122
vt 0.965602 0.683041
vt 0.965602 0.347147
vt 0.995606 0.348116
vt 0.985000 0.683050
vt 0.985000 0.347147
vt 0.023838 0.023898
vt 0.320727 0.320793
vt 0.023838 0.320793
vt 0.349078 0.004394
vt 0.683033 0.338359
vt 0.349078 0.338359
vt 0.340291 0.004394
vt 0.320727 0.023898
vt 0.004394 0.004394
vt 0.004394 0.340297
vt 0.340291 0.340297
vt 0.316879 0.916906
vt 0.295823 0.937964
vt 0.295823 0.916906
vt 0.841266 0.288306
vt 0.862323 0.309364
vt 0.841266 0.309364
vt 0.841045 0.004394
vt 0.862102 0.279515
vt 0.841045 0.279514
vt 0.907573 0.622267
vt 0.886516 0.347148
vt 0.907573 0.347147
vt 0.295823 0.349085
vt 0.316880 0.624210
vt 0.295823 0.624210
vt 0.916360 0.347147
vt 0.937418 0.622259
vt 0.916360 0.622259
vt 0.841081 0.922493
vt 0.862138 0.943550
vt 0.841081 0.943550
vt 0.892168 0.288306
vt 0.871111 0.309364
vt 0.871111 0.288306
vt 0.907573 0.631055
vt 0.886516 0.906177
vt 0.886516 0.631056
vt 0.870889 0.279514
vt 0.891946 0.004395
vt 0.891946 0.279515
vt 0.691821 0.279519
vt 0.712878 0.004394
vt 0.712878 0.279519
vt 0.250388 0.915634
vt 0.271446 0.640522
vt 0.271446 0.915634
vt 0.271445 0.945479
vt 0.250388 0.924421
vt 0.271445 0.924421
vt 0.900956 0.309364
vt 0.922013 0.288306
vt 0.922013 0.309364
vt 0.781356 0.279514
vt 0.802413 0.004395
vt 0.802413 0.279515
vt 0.316880 0.632997
vt 0.295823 0.908119
vt 0.295823 0.632998
vt 0.916360 0.906168
vt 0.937418 0.631056
vt 0.937418 0.906168
vt 0.721666 0.279519
vt 0.742723 0.004394
vt 0.742723 0.279519
vt 0.349078 0.951082
vt 0.370135 0.930025
vt 0.370135 0.951082
vt 0.907573 0.936022
vt 0.886516 0.914965
vt 0.907573 0.914965
vt 0.862138 0.913705
vt 0.841081 0.638585
vt 0.862138 0.638584
vt 0.811200 0.004394
vt 0.832257 0.279515
vt 0.811200 0.279514
vt 0.900734 0.004394
vt 0.921791 0.279506
vt 0.900734 0.279506
vt 0.751511 0.004394
vt 0.772568 0.279519
vt 0.751511 0.279519
vt 0.287035 0.349084
vt 0.004394 0.631734
vt 0.004394 0.349084
vt 0.595080 0.638584
vt 0.713687 0.921232
vt 0.595080 0.921226
vt 0.759119 0.347146
vt 0.646822 0.355650
vt 0.640510 0.347146
vt 0.004394 0.640522
vt 0.122997 0.923172
vt 0.004394 0.923172
vt 0.586292 0.921226
vt 0.467685 0.638589
vt 0.586292 0.638584
vt 0.646822 0.621293
vt 0.748681 0.610987
vt 0.752807 0.621293
vt 0.759119 0.629796
vt 0.752807 0.355650
vt 0.640510 0.629796
vt 0.650919 0.365956
vt 0.650919 0.610987
vt 0.281472 0.640522
vt 0.287035 0.895859
vt 0.281472 0.906166
vt 0.936135 0.270038
vt 0.930579 0.014700
vt 0.936135 0.004394
vt 0.349078 0.347147
vt 0.631723 0.629796
vt 0.349078 0.629796
vt 0.832294 0.638595
vt 0.832294 0.921237
vt 0.871417 0.355650
vt 0.877728 0.347146
vt 0.241600 0.640522
vt 0.241600 0.923172
vt 0.349078 0.921237
vt 0.349078 0.638595
vt 0.769528 0.610987
vt 0.871417 0.621293
vt 0.765431 0.621293
vt 0.765431 0.355650
vt 0.877728 0.629796
vt 0.867290 0.365956
vt 0.867290 0.610987
vt 0.944923 0.259731
vt 0.950480 0.004394
vt 0.950480 0.270038
vt 0.769528 0.365956
vt 0.877728 0.648890
vt 0.872165 0.904228
vt 0.872165 0.638584
vt 0.956815 0.682065
vt 0.336281 0.684019
vt 0.976212 0.682078
vt 0.995606 0.682081
vt 0.683033 0.004394
vt 0.316879 0.937964
vt 0.862323 0.288306
vt 0.862102 0.004395
vt 0.886516 0.622268
vt 0.316880 0.349085
vt 0.937418 0.347147
vt 0.862138 0.922493
vt 0.892168 0.309364
vt 0.907573 0.906176
vt 0.870889 0.004394
vt 0.691821 0.004394
vt 0.250388 0.640522
vt 0.250388 0.945479
vt 0.900956 0.288306
vt 0.781356 0.004394
vt 0.316880 0.908118
vt 0.916360 0.631056
vt 0.721666 0.004394
vt 0.349078 0.930025
vt 0.886516 0.936022
vt 0.841081 0.913705
vt 0.832257 0.004395
vt 0.921791 0.004394
vt 0.772568 0.004394
vt 0.287035 0.631734
vt 0.713687 0.638589
vt 0.122997 0.640522
vt 0.467685 0.921232
vt 0.748681 0.365956
vt 0.287035 0.650828
vt 0.930579 0.259731
vt 0.631723 0.347147
vt 0.944923 0.014700
vt 0.877728 0.893921
vt 0.425654 0.930025
vt 0.431203 0.944062
vt 0.425654 0.944048
vt 0.378922 0.930042
vt 0.384740 0.944048
vt 0.379206 0.944065
vt 0.390585 0.930042
vt 0.390304 0.944065
vt 0.889317 0.318170
vt 0.895148 0.332175
vt 0.889599 0.332193
vt 0.895148 0.318151
vt 0.900697 0.332193
vt 0.399373 0.930042
vt 0.405217 0.944048
vt 0.399654 0.944065
vt 0.845729 0.333390
vt 0.841266 0.322615
vt 0.852041 0.318151
vt 0.411035 0.930042
vt 0.410752 0.944065
vt 0.420105 0.944062
vt 0.795118 0.296676
vt 0.788030 0.305576
vt 0.788031 0.299569
vt 0.766545 0.296676
vt 0.777778 0.295322
vt 0.773530 0.299569
vt 0.783783 0.309823
vt 0.774913 0.316881
vt 0.777777 0.309823
vt 0.783784 0.295322
vt 0.766544 0.308511
vt 0.773530 0.305576
vt 0.786748 0.316881
vt 0.774914 0.288306
vt 0.332379 0.735368
vt 0.325668 0.724433
vt 0.332344 0.724433
vt 0.729182 0.308512
vt 0.739664 0.311766
vt 0.737552 0.316881
vt 0.325668 0.766054
vt 0.332377 0.776960
vt 0.325701 0.776960
vt 0.325701 0.785748
vt 0.332344 0.796654
vt 0.325668 0.796654
vt 0.332344 0.746303
vt 0.325703 0.735368
vt 0.325701 0.755090
vt 0.332344 0.766054
vt 0.325696 0.877720
vt 0.332344 0.888655
vt 0.325668 0.888655
vt 0.332372 0.899590
vt 0.325696 0.899590
vt 0.332377 0.807617
vt 0.325701 0.807618
vt 0.734292 0.298799
vt 0.747260 0.293427
vt 0.752631 0.306395
vt 0.757757 0.308512
vt 0.747260 0.311766
vt 0.757757 0.296676
vt 0.749388 0.288306
vt 0.729182 0.296676
vt 0.739664 0.293427
vt 0.749388 0.316881
vt 0.752631 0.298799
vt 0.737552 0.288306
vt 0.734292 0.306395
vt 0.910049 0.332193
vt 0.915599 0.318151
vt 0.915599 0.332175
vt 0.936035 0.332175
vt 0.941880 0.318169
vt 0.941599 0.332192
vt 0.930218 0.318169
vt 0.936034 0.318151
vt 0.451654 0.944062
vt 0.446105 0.930025
vt 0.451936 0.930040
vt 0.440555 0.944062
vt 0.446105 0.944048
vt 0.936645 0.302330
vt 0.942463 0.288324
vt 0.942180 0.302347
vt 0.869754 0.333390
vt 0.865291 0.328926
vt 0.865292 0.322615
vt 0.930800 0.288324
vt 0.936647 0.288306
vt 0.921148 0.332193
vt 0.921430 0.318170
vt 0.825493 0.305576
vt 0.832479 0.296676
vt 0.832479 0.308512
vt 0.815240 0.309823
vt 0.803906 0.308511
vt 0.810993 0.305576
vt 0.821246 0.295322
vt 0.812274 0.288306
vt 0.824110 0.288307
vt 0.821246 0.309823
vt 0.824110 0.316881
vt 0.815240 0.295322
vt 0.803906 0.296675
vt 0.825493 0.299570
vt 0.812274 0.316881
vt 0.332372 0.908377
vt 0.325668 0.919312
vt 0.325696 0.908377
vt 0.700190 0.288306
vt 0.696946 0.298799
vt 0.691821 0.296676
vt 0.332377 0.816405
vt 0.325668 0.827368
vt 0.325701 0.816405
vt 0.332344 0.857969
vt 0.325701 0.868932
vt 0.325668 0.857969
vt 0.332344 0.919312
vt 0.325696 0.930247
vt 0.332344 0.827369
vt 0.325701 0.838275
vt 0.325703 0.704710
vt 0.332344 0.693775
vt 0.332379 0.704710
vt 0.325668 0.715645
vt 0.332344 0.715645
vt 0.332377 0.847062
vt 0.325701 0.847063
vt 0.696946 0.306395
vt 0.702318 0.293427
vt 0.715285 0.298799
vt 0.720395 0.296676
vt 0.709914 0.293427
vt 0.712026 0.288306
vt 0.709914 0.311766
vt 0.720395 0.308512
vt 0.712026 0.316881
vt 0.700190 0.316881
vt 0.691821 0.308512
vt 0.715285 0.306395
vt 0.810993 0.299569
vt 0.431486 0.930040
vt 0.384739 0.930025
vt 0.900980 0.318170
vt 0.405219 0.930025
vt 0.856504 0.322614
vt 0.856504 0.328926
vt 0.852041 0.333390
vt 0.841266 0.328927
vt 0.845729 0.318152
vt 0.419823 0.930040
vt 0.795118 0.308511
vt 0.786749 0.288306
vt 0.332377 0.785748
vt 0.325668 0.746303
vt 0.332377 0.755091
vt 0.332372 0.877720
vt 0.909767 0.318170
vt 0.930501 0.332192
vt 0.440273 0.930040
vt 0.869755 0.318151
vt 0.880529 0.328926
vt 0.876066 0.318151
vt 0.880529 0.322615
vt 0.876066 0.333390
vt 0.931081 0.302347
vt 0.332377 0.868932
vt 0.332372 0.930247
vt 0.332377 0.838275
vt 0.325668 0.693775
vt 0.702318 0.311766
vn -0.9959 0.0910 0.0000
vn 0.0000 0.0910 -0.9959
vn 0.9959 0.0910 0.0000
vn 0.0000 0.0910 0.9959
vn 0.1739 -0.9693 -0.1739
vn -0.1739 -0.9693 0.1739
vn -0.1739 -0.9693 -0.1739
vn 0.0000 1.0000 0.0000
vn 0.0000 -0.8960 0.4440
vn 0.1739 -0.9693 0.1739
vn 0.4440 -0.8960 0.0000
vn 0.0000 -0.8960 -0.4440
vn -0.4440 -0.8960 0.0000
vn 0.0000 -1.0000 0.0000
vn 1.0000 0.0000 0.0000
vn -1.0000 0.0000 0.0000
vn 0.0000 0.0000 1.0000
vn 0.0000 0.0000 -1.0000
vn 0.1000 0.0000 0.9950
vn -0.1000 0.0000 0.9950
vn -0.2674 0.0000 0.9636
vn 0.2674 0.0000 0.9636
vn 0.0000 0.8025 0.5966
vn 0.0000 -0.8025 0.5966
vn 0.3826 -0.9236 0.0263
vn 0.3825 -0.9236 0.0263
vn 0.9236 -0.3826 0.0263
vn 0.9236 0.3826 0.0263
vn 0.3826 0.9236 0.0263
vn 0.3825 0.9236 0.0263
vn -0.3826 0.9236 0.0263
vn -0.3825 0.9236 0.0263
vn -0.9236 0.3826 0.0263
vn -0.9236 -0.3826 0.0263
vn -0.3826 -0.9236 0.0263
vn -0.3825 -0.9236 0.0263
vn -0.4110 0.4110 -0.8138
vn -0.0000 0.5812 -0.8138
vn -0.0000 -0.5812 -0.8138
vn -0.4110 -0.4110 -0.8138
vn 0.4110 0.4110 -0.8138
vn 0.5812 -0.0000 -0.8138
vn -0.5812 -0.0000 -0.8138
vn 0.4110 -0.4110 -0.8138
vn 0.3827 0.9239 0.0000
vn -0.0000 -0.5019 0.8649
vn -0.3549 -0.3549 0.8649
vn 0.9239 -0.3827 0.0000
vn -0.9239 -0.3827 0.0000
vn -0.3827 0.9239 0.0000
vn 0.9239 0.3827 0.0000
vn 0.3827 -0.9239 0.0000
vn -0.3827 -0.9239 0.0000
vn -0.9239 0.3827 0.0000
vn -0.3549 0.3549 0.8649
vn -0.5019 0.0000 0.8649
vn -0.0000 0.5019 0.8649
vn 0.3549 0.3549 0.8649
vn 0.3549 -0.3549 0.8649
vn 0.5019 0.0000 0.8649
s 1
f 2/1/1 10/2/1 9/3/1
f 4/4/2 11/5/2 10/6/2
f 8/7/3 12/8/3 11/9/3
f 6/10/4 9/11/4 12/12/4
f 7/13/5 1/14/6 3/15/7
f 4/16/8 6/17/8 8/18/8
f 12/19/9 1/14/6 5/20/10
f 11/21/11 5/20/10 7/13/5
f 10/22/12 7/13/5 3/15/7
f 9/23/13 3/15/7 1/14/6
f 13/24/8 16/25/8 14/26/8
f 19/27/14 18/28/14 17/29/14
f 20/30/15 16/31/15 15/32/15
f 17/33/16 13/34/16 14/35/16
f 18/36/17 15/37/17 13/38/17
f 19/39/18 14/40/18 16/41/18
f 24/42/8 21/43/8 22/44/8
f 26/45/14 27/46/14 25/47/14
f 24/48/16 28/49/16 23/50/16
f 21/51/15 25/52/15 22/53/15
f 23/54/17 26/55/17 21/56/17
f 22/57/18 27/58/18 24/59/18
f 32/60/8 29/61/8 30/62/8
f 34/63/14 35/64/14 33/65/14
f 32/66/15 36/67/15 31/68/15
f 29/69/16 33/70/16 30/71/16
f 31/72/18 34/73/18 29/74/18
f 30/75/17 35/76/17 32/77/17
f 37/78/8 40/79/8 38/80/8
f 43/81/14 42/82/14 41/83/14
f 44/84/16 40/85/16 39/86/16
f 41/87/15 37/88/15 38/89/15
f 42/90/18 39/91/18 37/92/18
f 43/93/17 38/94/17 40/95/17
f 45/96/8 48/97/8 46/98/8
f 46/99/16 102/100/16 45/101/16
f 102/102/17 49/103/19 45/104/17
f 48/105/18 101/106/18 46/107/18
f 47/108/15 103/109/15 48/110/15
f 50/111/20 56/112/21 52/113/20
f 104/114/17 51/115/19 102/102/17
f 45/104/17 50/111/20 47/116/17
f 47/116/17 52/113/20 104/114/17
f 53/117/22 56/112/21 54/118/21
f 52/119/23 55/120/23 51/121/23
f 51/115/19 53/117/22 49/103/19
f 49/122/24 54/123/24 50/124/24
f 100/125/14 97/126/14 98/127/14
f 102/100/16 98/128/16 97/129/16
f 105/130/19 102/102/17 97/131/17
f 101/106/18 100/132/18 98/133/18
f 103/109/15 99/134/15 100/135/15
f 112/136/21 106/137/20 108/138/20
f 107/139/19 104/114/17 102/102/17
f 106/137/20 97/131/17 99/140/17
f 108/138/20 99/140/17 104/114/17
f 112/136/21 109/141/22 110/142/21
f 111/143/24 108/144/24 107/145/24
f 105/130/19 111/146/22 107/139/19
f 110/147/23 105/148/23 106/149/23
f 2/1/1 4/150/1 10/2/1
f 4/4/2 8/151/2 11/5/2
f 8/7/3 6/152/3 12/8/3
f 6/10/4 2/153/4 9/11/4
f 7/13/5 5/20/10 1/14/6
f 4/16/8 2/154/8 6/17/8
f 12/19/9 9/23/9 1/14/6
f 11/21/11 12/19/11 5/20/10
f 10/22/12 11/21/12 7/13/5
f 9/23/13 10/22/13 3/15/7
f 13/24/8 15/155/8 16/25/8
f 19/27/14 20/156/14 18/28/14
f 20/30/15 19/157/15 16/31/15
f 17/33/16 18/158/16 13/34/16
f 18/36/17 20/159/17 15/37/17
f 19/39/18 17/160/18 14/40/18
f 24/42/8 23/161/8 21/43/8
f 26/45/14 28/162/14 27/46/14
f 24/48/16 27/163/16 28/49/16
f 21/51/15 26/164/15 25/52/15
f 23/54/17 28/165/17 26/55/17
f 22/57/18 25/166/18 27/58/18
f 32/60/8 31/167/8 29/61/8
f 34/63/14 36/168/14 35/64/14
f 32/66/15 35/169/15 36/67/15
f 29/69/16 34/170/16 33/70/16
f 31/72/18 36/171/18 34/73/18
f 30/75/17 33/172/17 35/76/17
f 37/78/8 39/173/8 40/79/8
f 43/81/14 44/174/14 42/82/14
f 44/84/16 43/175/16 40/85/16
f 41/87/15 42/176/15 37/88/15
f 42/90/18 44/177/18 39/91/18
f 43/93/17 41/178/17 38/94/17
f 45/96/8 47/179/8 48/97/8
f 46/99/16 101/180/16 102/100/16
f 102/102/17 51/115/19 49/103/19
f 48/105/18 103/181/18 101/106/18
f 47/108/15 104/182/15 103/109/15
f 50/111/20 54/118/21 56/112/21
f 104/114/17 52/113/20 51/115/19
f 45/104/17 49/103/19 50/111/20
f 47/116/17 50/111/20 52/113/20
f 53/117/22 55/183/22 56/112/21
f 52/119/23 56/184/23 55/120/23
f 51/115/19 55/183/22 53/117/22
f 49/122/24 53/185/24 54/123/24
f 100/125/14 99/186/14 97/126/14
f 102/100/16 101/180/16 98/128/16
f 105/130/19 107/139/19 102/102/17
f 101/106/18 103/181/18 100/132/18
f 103/109/15 104/182/15 99/134/15
f 112/136/21 110/142/21 106/137/20
f 107/139/19 108/138/20 104/114/17
f 106/137/20 105/130/19 97/131/17
f 108/138/20 106/137/20 99/140/17
f 112/136/21 111/146/22 109/141/22
f 111/143/24 112/187/24 108/144/24
f 105/130/19 109/141/22 111/146/22
f 110/147/23 109/188/23 105/148/23
f 58/189/25 59/190/25 57/191/26
f 60/192/27 61/193/27 59/194/27
f 61/193/28 64/195/28 63/196/28
f 64/197/29 65/198/30 63/199/30
f 66/200/31 67/201/31 65/198/32
f 68/202/33 69/203/33 67/204/33
f 70/205/18 66/206/18 62/207/18
f 69/203/34 72/208/34 71/209/34
f 71/210/35 58/189/35 57/191/36
f 78/211/37 65/212/38 67/213/37
f 73/214/39 71/215/40 57/216/39
f 63/217/41 75/218/42 61/219/42
f 69/220/43 78/211/37 67/213/37
f 61/219/42 74/221/44 59/222/44
f 65/212/38 76/223/41 63/217/41
f 80/224/40 69/220/43 71/215/40
f 77/225/45 84/226/45 76/227/45
f 81/228/46 96/229/47 88/230/47
f 75/231/48 82/232/48 74/233/48
f 80/234/49 87/235/49 79/236/49
f 78/237/50 85/238/50 77/225/50
f 76/239/51 83/240/51 75/231/51
f 74/241/52 81/242/52 73/243/52
f 73/243/53 88/244/53 80/245/53
f 79/236/54 86/246/54 78/247/54
f 90/248/17 92/249/17 94/250/17
f 86/251/55 95/252/56 94/250/55
f 85/253/57 92/249/58 84/254/58
f 82/255/59 91/256/60 90/248/59
f 88/230/47 95/252/56 87/257/56
f 86/251/55 93/258/57 85/253/57
f 84/254/58 91/256/60 83/259/60
f 82/255/59 89/260/46 81/228/46
f 59/222/44 73/214/39 57/216/39
f 115/261/29 114/262/29 113/263/30
f 117/264/28 116/265/28 115/266/28
f 117/264/27 120/267/27 118/268/27
f 119/269/25 122/270/25 120/271/25
f 123/272/35 122/270/35 121/273/36
f 125/274/34 124/275/34 123/276/34
f 126/277/18 128/278/18 114/279/18
f 125/274/33 128/280/33 126/281/33
f 127/282/31 114/262/31 128/283/31
f 123/284/40 133/285/39 134/286/40
f 127/287/37 129/288/38 113/289/38
f 119/290/44 131/291/42 132/292/44
f 125/293/43 134/286/40 135/294/43
f 117/295/42 130/296/41 131/291/42
f 119/290/44 133/285/39 121/297/39
f 125/293/43 136/298/37 127/287/37
f 140/299/52 133/300/52 132/301/52
f 144/302/55 145/303/57 137/304/57
f 138/305/51 131/306/51 130/307/51
f 143/308/54 136/309/54 135/310/54
f 141/311/53 134/312/53 133/300/53
f 139/313/48 132/314/48 131/306/48
f 137/315/45 130/316/45 129/317/45
f 144/318/50 129/317/50 136/319/50
f 142/320/49 135/310/49 134/321/49
f 146/322/17 152/323/17 150/324/17
f 142/325/47 151/326/56 143/327/56
f 148/328/59 141/329/46 140/330/59
f 146/322/58 139/331/60 138/332/58
f 151/326/56 144/302/55 143/327/56
f 149/333/46 142/325/47 141/329/46
f 139/331/60 148/328/59 140/330/59
f 145/303/57 138/332/58 137/304/57
f 115/334/41 129/288/38 130/296/41
f 58/189/25 60/335/25 59/190/25
f 60/192/27 62/336/27 61/193/27
f 61/193/28 62/336/28 64/195/28
f 64/197/29 66/200/29 65/198/30
f 66/200/31 68/337/31 67/201/31
f 68/202/33 70/338/33 69/203/33
f 62/207/18 60/339/18 70/205/18
f 60/339/18 58/340/18 70/205/18
f 58/340/18 72/341/18 70/205/18
f 70/205/18 68/342/18 66/206/18
f 66/206/18 64/343/18 62/207/18
f 69/203/34 70/338/34 72/208/34
f 71/210/35 72/344/35 58/189/35
f 78/211/37 77/345/38 65/212/38
f 73/214/39 80/224/40 71/215/40
f 63/217/41 76/223/41 75/218/42
f 69/220/43 79/346/43 78/211/37
f 61/219/42 75/218/42 74/221/44
f 65/212/38 77/345/38 76/223/41
f 80/224/40 79/346/43 69/220/43
f 77/225/45 85/238/45 84/226/45
f 81/228/46 89/260/46 96/229/47
f 75/231/48 83/240/48 82/232/48
f 80/234/49 88/347/49 87/235/49
f 78/237/50 86/348/50 85/238/50
f 76/239/51 84/349/51 83/240/51
f 74/241/52 82/350/52 81/242/52
f 73/243/53 81/242/53 88/244/53
f 79/236/54 87/235/54 86/246/54
f 96/229/17 89/260/17 90/248/17
f 90/248/17 91/256/17 92/249/17
f 92/249/17 93/258/17 94/250/17
f 94/250/17 95/252/17 96/229/17
f 96/229/17 90/248/17 94/250/17
f 86/251/55 87/257/56 95/252/56
f 85/253/57 93/258/57 92/249/58
f 82/255/59 83/259/60 91/256/60
f 88/230/47 96/229/47 95/252/56
f 86/251/55 94/250/55 93/258/57
f 84/254/58 92/249/58 91/256/60
f 82/255/59 90/248/59 89/260/46
f 59/222/44 74/221/44 73/214/39
f 115/261/29 116/351/29 114/262/29
f 117/264/28 118/268/28 116/265/28
f 117/264/27 119/352/27 120/267/27
f 119/269/25 121/273/26 122/270/25
f 123/272/35 124/353/35 122/270/35
f 125/274/34 126/281/34 124/275/34
f 114/279/18 116/354/18 122/355/18
f 116/354/18 118/356/18 122/355/18
f 118/356/18 120/357/18 122/355/18
f 122/355/18 124/358/18 114/279/18
f 124/358/18 126/277/18 114/279/18
f 125/274/33 127/359/33 128/280/33
f 127/282/31 113/263/32 114/262/31
f 123/284/40 121/297/39 133/285/39
f 127/287/37 136/298/37 129/288/38
f 119/290/44 117/295/42 131/291/42
f 125/293/43 123/284/40 134/286/40
f 117/295/42 115/334/41 130/296/41
f 119/290/44 132/292/44 133/285/39
f 125/293/43 135/294/43 136/298/37
f 140/299/52 141/311/52 133/300/52
f 144/302/55 152/323/55 145/303/57
f 138/305/51 139/313/51 131/306/51
f 143/308/54 144/360/54 136/309/54
f 141/311/53 142/361/53 134/312/53
f 139/313/48 140/362/48 132/314/48
f 137/315/45 138/363/45 130/316/45
f 144/318/50 137/315/50 129/317/50
f 142/320/49 143/308/49 135/310/49
f 146/322/17 145/303/17 152/323/17
f 152/323/17 151/326/17 150/324/17
f 150/324/17 149/333/17 146/322/17
f 149/333/17 148/328/17 146/322/17
f 148/328/17 147/364/17 146/322/17
f 142/325/47 150/324/47 151/326/56
f 148/328/59 149/333/46 141/329/46
f 146/322/58 147/364/60 139/331/60
f 151/326/56 152/323/55 144/302/55
f 149/333/46 150/324/47 142/325/47
f 139/331/60 147/364/60 148/328/59
f 145/303/57 146/322/58 138/332/58
f 115/334/41 113/289/38 129/288/38
