# Blender v2.92.0 OBJ File: 'quaternius_OGConvert.blend'
# www.blender.org
o Spoon_Plane.013
v -0.012411 0.000731 0.138130
v 0.012411 0.000731 0.138130
v -0.005764 0.003551 -0.117617
v 0.005764 0.003551 -0.117617
v -0.009222 0.000731 0.153533
v 0.009222 0.000731 0.153533
v 0.000387 0.000731 0.157788
v -0.000000 0.003551 -0.117617
v -0.000000 0.000731 0.138130
v -0.005764 -0.000731 -0.117674
v -0.012411 -0.003551 0.138072
v 0.012411 -0.003551 0.138072
v 0.005764 -0.000731 -0.117674
v 0.009222 -0.003551 0.153475
v -0.009222 -0.003551 0.153475
v -0.000000 -0.003551 0.138072
v -0.000000 -0.000731 -0.117674
v 0.000387 -0.003551 0.157731
v -0.013007 -0.003364 -0.117865
v 0.032827 -0.003364 -0.133566
v 0.024970 -0.003364 -0.214953
v -0.009054 -0.003364 -0.237309
v -0.036129 -0.003364 -0.176466
v -0.000168 -0.011727 -0.175966
v -0.042550 0.003402 -0.148477
v -0.034814 0.003402 -0.200036
v -0.000083 0.003402 -0.109974
v -0.026875 0.003402 -0.121424
v 0.041921 0.003402 -0.148477
v 0.026684 0.003402 -0.120485
v 0.019674 0.003402 -0.234445
v 0.034781 0.003402 -0.200036
v -0.019406 0.003402 -0.234445
v 0.000134 0.003402 -0.247586
v -0.031761 -0.004552 -0.135336
v 0.011853 -0.004552 -0.120000
v 0.034061 -0.004552 -0.176592
v 0.008873 -0.004552 -0.234445
v -0.023598 -0.004552 -0.213183
v -0.007735 -0.009467 -0.135336
v -0.020544 -0.009467 -0.178217
v 0.018574 -0.009467 -0.148477
v 0.015547 -0.009467 -0.200035
v -0.005521 -0.009467 -0.213182
v -0.012158 -0.000629 -0.123107
v 0.030262 -0.000513 -0.136876
v 0.022441 -0.000312 -0.212049
v -0.007924 -0.000252 -0.232785
v -0.033076 -0.000314 -0.175449
v -0.000159 -0.007365 -0.175924
v -0.039317 0.006238 -0.149636
v -0.031553 0.005818 -0.197488
v -0.000139 0.005627 -0.115950
v -0.024875 0.005364 -0.126749
v 0.038628 0.006197 -0.149440
v 0.024883 0.005460 -0.125899
v 0.017449 0.005888 -0.229968
v 0.031435 0.005813 -0.197774
v -0.017041 0.005844 -0.230091
v 0.000042 0.005985 -0.241988
v -0.029477 -0.001333 -0.138295
v 0.011137 -0.001346 -0.124573
v 0.031319 -0.001198 -0.175772
v 0.007868 -0.001135 -0.230432
v -0.021352 -0.001191 -0.210572
v -0.007426 -0.005277 -0.137200
v -0.019468 -0.005245 -0.177910
v 0.017733 -0.005230 -0.149436
v 0.014600 -0.005265 -0.198948
v -0.005140 -0.005236 -0.211605
vt 0.654222 0.926670
vt 0.686085 0.983156
vt 0.650980 0.997622
vt 0.657411 0.002378
vt 0.678231 0.002919
vt 0.619468 0.981425
vt 0.609395 0.925505
vt 0.699050 0.003460
vt 0.699050 0.927834
vt 0.748635 0.073323
vt 0.780496 0.016843
vt 0.793463 0.072159
vt 0.751823 0.997565
vt 0.703807 0.074487
vt 0.713880 0.018573
vt 0.793463 0.996484
vt 0.836446 0.057072
vt 0.822220 0.002473
vt 0.837672 0.002378
vt 0.800778 0.984044
vt 0.814703 0.962981
vt 0.816237 0.983981
vt 0.837672 0.980554
vt 0.820994 0.057167
vt 0.075128 0.537008
vt 0.060583 0.498847
vt 0.075128 0.499129
vt 0.798219 0.906229
vt 0.816237 0.002378
vt 0.813679 0.906166
vt 0.799243 0.963044
vt 0.384761 0.445117
vt 0.334729 0.367282
vt 0.418684 0.389241
vt 0.559254 0.431244
vt 0.473657 0.460023
vt 0.522540 0.366831
vt 0.604638 0.139414
vt 0.602070 0.281897
vt 0.558120 0.183705
vt 0.505566 0.030698
vt 0.565716 0.056889
vt 0.496150 0.118825
vt 0.356308 0.219342
vt 0.433016 0.102195
vt 0.412252 0.227716
vt 0.481490 0.254048
vt 0.385048 0.663472
vt 0.357816 0.713427
vt 0.361598 0.577935
vt 0.386219 0.791429
vt 0.466963 0.030852
vt 0.547128 0.002378
vt 0.603756 0.065869
vt 0.555997 0.587772
vt 0.528366 0.672046
vt 0.532521 0.541822
vt 0.556981 0.766075
vt 0.604638 0.386622
vt 0.526233 0.470917
vt 0.333105 0.744116
vt 0.308964 0.675327
vt 0.353060 0.698700
vt 0.335868 0.622082
vt 0.311423 0.570430
vt 0.353060 0.533363
vt 0.337525 0.475673
vt 0.308964 0.310935
vt 0.029904 0.545973
vt 0.052958 0.498847
vt 0.055826 0.545973
vt 0.556981 0.475673
vt 0.445972 0.475673
vt 0.445972 0.585270
vt 0.421682 0.534388
vt 0.386219 0.475673
vt 0.181972 0.453957
vt 0.172576 0.401429
vt 0.251994 0.409040
vt 0.037784 0.382012
vt 0.089240 0.344222
vt 0.099516 0.436281
vt 0.106033 0.117649
vt 0.126983 0.169031
vt 0.054853 0.242550
vt 0.225650 0.059850
vt 0.204302 0.134398
vt 0.167955 0.059856
vt 0.284782 0.278165
vt 0.237431 0.262451
vt 0.261714 0.146474
vt 0.167353 0.259353
vt 0.416926 0.601152
vt 0.393696 0.680218
vt 0.390976 0.547632
vt 0.416926 0.475673
vt 0.256840 0.073900
vt 0.202177 0.022229
vt 0.133534 0.055840
vt 0.523609 0.648080
vt 0.500558 0.697706
vt 0.497014 0.569263
vt 0.523609 0.475673
vt 0.014690 0.332133
vt 0.051174 0.423657
vt 0.593306 0.475673
vt 0.604638 0.515069
vt 0.561738 0.538813
vt 0.586645 0.587073
vt 0.566716 0.635613
vt 0.604638 0.667441
vt 0.594384 0.720199
vt 0.293303 0.373227
vt 0.025147 0.552549
vt 0.002378 0.536169
vt 0.025147 0.498847
vt 0.522977 0.760584
vt 0.492258 0.564162
vt 0.469320 0.515377
vt 0.492258 0.475673
vt 0.416693 0.776259
vt 0.304207 0.190980
vt 0.267603 0.059799
vt 0.127962 0.038844
vt 0.002378 0.334022
vt 0.066302 0.163354
vt 0.041818 0.442188
vt 0.135247 0.472604
vt 0.131823 0.494091
vt 0.304207 0.379317
vt 0.229420 0.447307
vt 0.204828 0.002378
vt 0.055537 0.153662
vt 0.233695 0.467554
vt 0.291212 0.198151
vt 0.745391 0.002378
vt 0.772643 0.997025
vt 0.822220 0.980649
vt 0.060583 0.536726
vt 0.800778 0.002441
vn 0.0000 1.0000 0.0055
vn 0.0000 1.0000 0.0000
vn 0.0000 0.9999 0.0110
vn 0.0000 1.0000 0.0059
vn 0.0000 -1.0000 -0.0055
vn 0.0000 -1.0000 0.0000
vn 0.0000 -1.0000 -0.0059
vn 0.0000 -0.9999 -0.0110
vn -0.9960 -0.0012 0.0895
vn -0.9792 -0.0027 0.2028
vn 0.4339 -0.0121 0.9009
vn -0.9997 0.0003 -0.0260
vn -0.9961 -0.0012 0.0884
vn -0.4049 -0.0123 0.9143
vn 0.9961 -0.0012 0.0884
vn 0.9997 0.0004 -0.0260
vn 0.9960 -0.0012 0.0895
vn 0.9792 -0.0027 0.2028
vn -0.2536 -0.7213 0.6445
vn -0.5703 -0.7573 0.3182
vn -0.0705 -0.9819 0.1758
vn 0.6477 -0.6685 0.3655
vn 0.2009 -0.8219 0.5330
vn 0.1949 -0.9773 0.0835
vn 0.6208 -0.7290 -0.2885
vn 0.6349 -0.7688 -0.0764
vn 0.2205 -0.9702 -0.1006
vn -0.3110 -0.7960 -0.5192
vn 0.2686 -0.8575 -0.4388
vn -0.0891 -0.9849 -0.1482
vn -0.7119 -0.6958 -0.0952
vn -0.5484 -0.7962 -0.2555
vn -0.2454 -0.9690 -0.0287
vn 0.0003 -1.0000 -0.0038
vn -0.7632 -0.5994 -0.2415
vn -0.6030 -0.6440 -0.4708
vn 0.0205 -0.7484 -0.6629
vn 0.5625 -0.6682 -0.4869
vn 0.7780 -0.5917 -0.2112
vn 0.7287 -0.6796 0.0842
vn 0.4814 -0.6134 0.6261
vn 0.0152 -0.6727 0.7398
vn -0.5417 -0.5726 0.6154
vn -0.7177 -0.6884 0.1051
vn 0.2558 0.7167 -0.6488
vn 0.0642 0.9838 -0.1675
vn 0.5683 0.7559 -0.3251
vn -0.6314 0.6836 -0.3661
vn -0.1792 0.9808 -0.0765
vn -0.2051 0.8116 -0.5470
vn -0.6225 0.7276 0.2882
vn -0.2134 0.9722 0.0966
vn -0.6358 0.7677 0.0803
vn 0.3130 0.7965 0.5174
vn 0.0861 0.9863 0.1410
vn -0.2759 0.8529 0.4432
vn 0.7054 0.7019 0.0989
vn 0.2335 0.9719 0.0304
vn 0.5555 0.7910 0.2564
vn -0.0004 1.0000 0.0041
vn 0.7698 0.5904 0.2426
vn 0.6133 0.6318 0.4740
vn -0.0194 0.7385 0.6740
vn -0.5743 0.6563 0.4893
vn -0.7837 0.5832 0.2137
vn -0.7428 0.6640 -0.0855
vn -0.4887 0.5929 -0.6400
vn -0.0126 0.6625 -0.7490
vn 0.5454 0.5520 -0.6307
vn 0.7281 0.6772 -0.1066
vn -0.5040 0.8486 -0.1607
vn -0.3938 0.8764 -0.2771
vn -0.3468 0.8839 -0.3138
vn 0.3498 0.8806 -0.3198
vn -0.0042 0.9104 -0.4138
vn 0.4059 0.8699 -0.2802
vn 0.6037 0.7866 0.1295
vn 0.5230 0.8421 -0.1313
vn 0.6234 0.7737 0.1131
vn 0.2238 0.9325 0.2834
vn -0.0079 0.9388 0.3443
vn -0.0037 0.9371 0.3490
vn -0.6043 0.7839 0.1425
vn -0.2753 0.9281 0.2508
vn -0.6318 0.7667 0.1139
vn 0.0015 0.9080 -0.4189
vn 0.5085 0.8472 -0.1537
vn 0.2949 0.9192 0.2611
vn -0.2193 0.9380 0.2685
vn -0.5234 0.8413 -0.1350
s 1
f 9/1/1 5/2/2 7/3/2
f 9/1/1 4/4/3 8/5/3
f 9/1/1 6/6/2 2/7/4
f 9/1/1 3/8/3 1/9/4
f 16/10/5 15/11/6 11/12/7
f 16/10/5 13/13/8 12/14/7
f 14/15/6 16/10/5 12/14/7
f 10/16/8 16/10/5 11/12/7
f 1/17/9 15/18/10 5/19/10
f 18/20/11 6/21/11 7/22/11
f 3/23/12 11/24/13 1/17/9
f 5/25/14 18/26/14 7/27/14
f 12/28/15 4/29/16 2/30/17
f 14/31/18 2/30/17 6/21/18
f 19/32/19 35/33/20 40/34/21
f 20/35/22 36/36/23 42/37/24
f 21/38/25 37/39/26 43/40/27
f 22/41/28 38/42/29 44/43/30
f 23/44/31 39/45/32 41/46/33
f 41/46/33 44/43/30 24/47/34
f 41/46/33 39/45/32 44/43/30
f 39/45/32 22/41/28 44/43/30
f 44/43/30 43/40/27 24/47/34
f 44/43/30 38/42/29 43/40/27
f 38/42/29 21/38/25 43/40/27
f 43/40/27 42/37/24 24/47/34
f 43/40/27 37/39/26 42/37/24
f 37/39/26 20/35/22 42/37/24
f 42/37/24 40/34/21 24/47/34
f 42/37/24 36/36/23 40/34/21
f 36/36/23 19/32/19 40/34/21
f 40/34/21 41/46/33 24/47/34
f 40/34/21 35/33/20 41/46/33
f 35/33/20 23/44/31 41/46/33
f 26/48/35 39/49/32 23/50/31
f 26/48/35 33/51/36 39/49/32
f 33/52/36 22/41/28 39/45/32
f 34/53/37 38/42/29 22/41/28
f 34/53/37 31/54/38 38/42/29
f 31/54/38 21/38/25 38/42/29
f 32/55/39 37/56/26 21/57/25
f 32/55/39 29/58/40 37/56/26
f 29/59/40 20/35/22 37/39/26
f 30/60/41 36/36/23 20/35/22
f 30/61/41 27/62/42 36/63/23
f 27/62/42 19/64/19 36/63/23
f 28/65/43 35/66/20 19/64/19
f 28/65/43 25/67/44 35/66/20
f 25/68/44 23/44/31 35/33/20
f 33/69/36 34/70/37 22/71/28
f 31/72/38 32/55/39 21/57/25
f 29/73/40 30/74/41 20/75/22
f 27/62/42 28/65/43 19/64/19
f 25/76/44 26/48/35 23/50/31
f 45/77/45 66/78/46 61/79/47
f 46/80/48 68/81/49 62/82/50
f 47/83/51 69/84/52 63/85/53
f 48/86/54 70/87/55 64/88/56
f 49/89/57 67/90/58 65/91/59
f 67/90/58 50/92/60 70/87/55
f 67/90/58 70/87/55 65/91/59
f 65/91/59 70/87/55 48/86/54
f 70/87/55 50/92/60 69/84/52
f 70/87/55 69/84/52 64/88/56
f 64/88/56 69/84/52 47/83/51
f 69/84/52 50/92/60 68/81/49
f 69/84/52 68/81/49 63/85/53
f 63/85/53 68/81/49 46/80/48
f 68/81/49 50/92/60 66/78/46
f 68/81/49 66/78/46 62/82/50
f 62/82/50 66/78/46 45/77/45
f 66/78/46 50/92/60 67/90/58
f 66/78/46 67/90/58 61/79/47
f 61/79/47 67/90/58 49/89/57
f 52/93/61 49/94/57 65/95/59
f 52/93/61 65/95/59 59/96/62
f 59/97/62 65/91/59 48/86/54
f 60/98/63 48/86/54 64/88/56
f 60/98/63 64/88/56 57/99/64
f 57/99/64 64/88/56 47/83/51
f 58/100/65 47/101/51 63/102/53
f 58/100/65 63/102/53 55/103/66
f 55/104/66 63/85/53 46/80/48
f 56/105/67 46/80/48 62/82/50
f 56/106/67 62/107/50 53/108/68
f 53/108/68 62/107/50 45/109/45
f 54/110/69 45/109/45 61/111/47
f 54/110/69 61/111/47 51/112/70
f 51/113/70 61/79/47 49/89/57
f 59/114/62 48/115/54 60/116/63
f 57/117/64 47/101/51 58/100/65
f 55/118/66 46/119/48 56/120/67
f 53/108/68 45/109/45 54/110/69
f 51/121/70 49/94/57 52/93/61
f 26/122/71 59/97/72 33/123/73
f 31/124/74 60/98/75 57/99/76
f 29/125/77 58/126/78 55/104/79
f 30/127/80 53/128/81 27/129/82
f 25/130/83 54/131/84 51/113/85
f 33/123/73 60/98/75 34/132/86
f 32/133/87 57/99/76 58/126/78
f 29/125/77 56/105/88 30/127/80
f 28/134/89 53/128/81 54/131/84
f 25/130/83 52/135/90 26/122/71
f 9/1/1 1/9/4 5/2/2
f 9/1/1 2/7/4 4/4/3
f 9/1/1 7/3/2 6/6/2
f 9/1/1 8/5/3 3/8/3
f 16/10/5 18/136/6 15/11/6
f 16/10/5 17/137/8 13/13/8
f 14/15/6 18/136/6 16/10/5
f 10/16/8 17/137/8 16/10/5
f 1/17/9 11/24/13 15/18/10
f 18/20/11 14/31/11 6/21/11
f 3/23/12 10/138/12 11/24/13
f 5/25/14 15/139/14 18/26/14
f 12/28/15 13/140/16 4/29/16
f 14/31/18 12/28/15 2/30/17
f 26/122/71 52/135/90 59/97/72
f 31/124/74 34/132/86 60/98/75
f 29/125/77 32/133/87 58/126/78
f 30/127/80 56/105/88 53/128/81
f 25/130/83 28/134/89 54/131/84
f 33/123/73 59/97/72 60/98/75
f 32/133/87 31/124/74 57/99/76
f 29/125/77 55/104/79 56/105/88
f 28/134/89 27/129/82 53/128/81
f 25/130/83 51/113/85 52/135/90
