####
#
#	OBJ File Generated by LightWave3D
#	LightWave3D OBJ Export v2.3
#
####
o jims_kendostick_1h.obj
mtllib jims_kendostick_1h.mtl
g default
v -0.0427361 0.0719778 0.00397159
v -0.0427361 0.0809699 0.00397159
v -0.0420048 0.0728351 0.0195546
v -0.0420048 0.0801126 0.0195546
v -0.0409765 0.0719778 -0.0127701
v -0.0409765 0.0809699 -0.0127701
v -0.0398872 0.0740607 0.0323
v -0.0398872 0.078886 0.0323
v -0.0370213 0.0728351 -0.0278606
v -0.0370213 0.0801126 -0.0278606
v -0.0323 0.0740607 -0.0398872
v -0.0323 0.078886 -0.0398872
v -0.0314291 0.083239 0.00692992
v -0.0293015 0.083239 -0.013313
v -0.0280339 0.0824916 0.0227014
v -0.0278606 0.0728351 0.0370213
v -0.0278606 0.0801126 0.0370213
v -0.0240325 0.170459 0.00365883
v -0.0234808 0.177141 0.00316335
v -0.0231059 0.0683682 0.00389658
v -0.0227585 0.17234 -0.0101585
v -0.0227014 0.0824916 -0.0280339
v -0.0225152 0.166232 0.00327777
v -0.0224494 0.176374 -0.00977466
v -0.0219713 0.0847607 0.00348227
v -0.0218445 0.51516 0.0039993
v -0.0217908 0.0683682 -0.00861542
v -0.0213998 0.519716 0.00378423
v -0.0210238 0.165441 -0.00880955
v -0.0207672 0.0847607 -0.00797427
v -0.0206844 0.0662348 0.00327609
v -0.020582 0.510338 0.00392096
v -0.0204374 0.332548 0.00389036
v -0.0203587 0.0945122 0.00335013
v -0.0202477 0.354764 0.00433934
v -0.0197598 0.0952269 -0.00721636
v -0.0196703 0.51459 -0.00830494
v -0.0196257 0.519992 -0.00744118
v -0.0196184 0.333398 -0.00771913
v -0.0195546 0.0728351 -0.0420048
v -0.0195546 0.0801126 -0.0420048
v -0.0195513 0.0662348 -0.00750503
v -0.0195143 0.355554 -0.00689093
v -0.0194905 0.443021 0.00253354
v -0.0193773 0.16214 0.00373899
v -0.0190239 0.443852 -0.00522078
v -0.0188597 0.509766 -0.0076165
v -0.0188268 0.162459 -0.00865827
v -0.0185826 0.413406 0.00405843
v -0.0185059 0.201218 0.0043044
v -0.018225 0.0683841 0.0147583
v -0.0182194 -0.0885784 0.00238343
v -0.0180809 0.414227 -0.00714641
v -0.017957 -0.127772 -0.0035418
v -0.0179176 0.524798 -0.00686242
v -0.017578 0.816706 0.00244587
v -0.0175163 0.66152 0.00292918
v -0.0174532 0.637641 0.00403379
v -0.0172712 -0.127766 0.0046701
v -0.0172411 0.778388 0.00293421
v -0.017148 -0.0885378 -0.00673082
v -0.0169951 0.196615 -0.00849859
v -0.0167077 0.66204 -0.00626047
v -0.0166726 0.817533 -0.0063195
v -0.0164167 0.8471 0.00170188
v -0.0163761 -0.0823345 0.00259409
v -0.0162752 0.0662348 0.0131794
v -0.0162741 0.0846181 0.0135667
v -0.0162135 0.637915 -0.00674806
v -0.0162023 0.443163 0.00892453
v -0.0159531 0.778822 -0.00659228
v -0.0158221 0.544051 0.00423708
v -0.0156258 0.0973277 0.00372415
v -0.0155466 0.332247 0.0128578
v -0.0154789 -0.0823345 -0.00594219
v -0.0154436 0.847542 -0.00583296
v -0.0153632 0.329531 0.00413301
v -0.0152963 0.501058 -0.00776459
v -0.0152823 -0.157631 0.00233078
v -0.015245 0.501177 0.00582079
v -0.0150569 0.130663 0.00397507
v -0.0149126 0.357967 0.0036249
v -0.0148324 0.0977811 -0.00676118
v -0.0147583 0.0683841 -0.018225
v -0.0146111 0.330327 -0.0070953
v -0.0145711 0.137395 -0.00662323
v -0.0145531 0.094429 0.0119389
v -0.0142893 0.354493 0.0124793
v -0.0142185 -0.156733 -0.00478838
v -0.0140675 0.447348 0.00344496
v -0.0140163 0.409509 0.00385748
v -0.0139553 0.358341 -0.00625987
v -0.0135684 0.660985 0.011037
v -0.0135077 0.410714 -0.00601971
v -0.0134785 0.447214 -0.00652531
v -0.013313 0.083239 0.0293015
v -0.0133088 0.637396 0.0107935
v -0.0132809 0.412918 0.011551
v -0.0132692 0.333803 -0.0147108
v -0.013236 0.634292 0.00253292
v -0.0132127 0.664038 0.00256722
v -0.0131794 0.0662348 -0.0162752
v -0.0131599 -0.0890477 0.0119619
v -0.0130898 0.0846745 -0.0156506
v -0.0129583 -0.128629 0.0117302
v -0.0129016 0.850464 0.00320615
v -0.0128848 -0.0823345 0.0104339
v -0.0128666 0.777735 0.0108669
v -0.0127701 0.0719778 0.0409765
v -0.0127701 0.0809699 0.0409765
v -0.0126888 0.774918 0.00238437
v -0.0126195 0.816332 0.011736
v -0.0125322 0.856439 0.0031295
v -0.0124057 0.850855 -0.00508263
v -0.0123788 0.414003 -0.013569
v -0.0122654 0.355991 -0.0140608
v -0.0121608 0.634428 -0.00566014
v -0.0121365 0.856779 -0.00489706
v -0.0120835 -0.127118 -0.0131776
v -0.0120524 0.0969782 -0.0144296
v -0.0119937 -0.158027 0.00977898
v -0.0119712 0.44424 -0.0143494
v -0.0116052 0.813473 -0.0129731
v -0.0115415 0.664352 -0.00620128
v -0.0115311 0.84683 0.010179
v -0.0115114 0.859319 0.00231998
v -0.0114775 0.169657 0.00911054
v -0.0114418 -0.0881121 -0.0135333
v -0.0112888 0.775363 -0.00575464
v -0.0112085 0.662115 -0.0110938
v -0.0111799 0.779472 -0.0125212
v -0.0110356 0.637766 -0.0127768
v -0.0109825 0.201054 0.00870068
v -0.0107904 0.860427 -0.00348836
v -0.0104628 0.847681 -0.0116913
v -0.0104339 -0.0823345 -0.0128848
v -0.0103836 0.447521 0.0139131
v -0.0102524 -0.157447 -0.0111545
v -0.0100292 0.514069 0.0077666
v -0.00988709 0.860653 0.00145145
v -0.00977117 0.19091 0.016923
v -0.00952159 0.168708 -0.0119328
v -0.00947344 0.328738 0.00790564
v -0.00945901 -0.164228 0.00149843
v -0.0092877 0.0976178 0.0073697
v -0.00906544 0.134599 0.00775541
v -0.0090127 0.54599 0.00733888
v -0.00894076 -0.164228 -0.00343233
v -0.00882232 0.163653 0.0192227
v -0.0087932 0.357724 0.00731516
v -0.00876796 0.178081 0.0218783
v -0.00868804 0.201514 -0.0109891
v -0.00866644 0.448885 0.0067342
v -0.00861542 0.0683682 0.0217908
v -0.00845658 0.513502 -0.0104352
v -0.00845202 0.0946022 0.0185598
v -0.00836603 0.332083 0.0190108
v -0.00835859 0.409816 0.00702538
v -0.00815978 0.517165 0.0197572
v -0.00805822 0.503439 0.0167925
v -0.00804899 0.354081 0.0187883
v -0.00798588 0.773897 0.00621642
v -0.00797963 0.634304 0.00607174
v -0.00797427 0.0847607 0.0207672
v -0.00761115 0.0998483 -0.009112
v -0.00760263 0.849366 0.00622584
v -0.00756976 0.664025 0.00631093
v -0.00750503 0.0662348 0.0195513
v -0.00744687 0.139381 -0.00937744
v -0.00744233 -0.164228 0.00602668
v -0.00740665 0.326103 -0.00930552
v -0.0073589 0.511862 0.0212012
v -0.00734422 0.359198 -0.0086778
v -0.00731566 0.328859 0.0143968
v -0.00727949 0.139626 0.014763
v -0.00711519 0.450433 0.0129725
v -0.00707216 0.356933 0.0137943
v -0.007056 0.411158 -0.00837973
v -0.00700342 0.328094 -0.0180291
v -0.00696105 0.0974822 0.0145177
v -0.00692992 0.083239 -0.0314291
v -0.00692818 0.447807 -0.00848774
v -0.00690311 0.857674 0.00991286
v -0.00688219 0.41287 0.0180579
v -0.00669869 0.86036 -0.00215296
v -0.00663253 -0.128426 0.0167054
v -0.00655829 0.859764 0.00508831
v -0.00651425 0.774229 -0.014396
v -0.00644044 0.635213 -0.00771079
v -0.00630479 0.777328 0.0159644
v -0.00627481 0.409345 0.0135197
v -0.00623506 0.849286 0.0115977
v -0.006162 -0.0851313 0.0165
v -0.00614768 0.860499 0.000860322
v -0.0061303 0.850624 -0.00767819
v -0.00609966 0.664044 -0.00754357
v -0.00604779 0.551401 0.0148735
v -0.00602668 -0.164228 -0.00744233
v -0.00599465 0.811776 0.0169914
v -0.00595719 -0.157311 0.0142957
v -0.00594219 -0.0823345 0.0154789
v -0.00591698 0.773247 -0.00743478
v -0.00582368 0.774131 0.0115006
v -0.00567545 0.84649 0.0156403
v -0.00564011 0.504719 0.020248
v -0.00558329 0.633664 0.0125283
v -0.00555062 0.859675 -0.00680995
v -0.00553789 0.169489 0.0243899
v -0.00552126 0.207336 -0.0174602
v -0.00506035 0.663299 0.0123831
v -0.00496726 0.657568 -0.0171242
v -0.00491416 0.661301 0.0170632
v -0.00487377 0.17904 -0.023346
v -0.00466114 0.500322 -0.0153391
v -0.00464991 0.860619 0.0099934
v -0.00452292 0.414151 -0.0181885
v -0.00438191 0.32541 -0.0154859
v -0.00430871 0.848043 -0.0155857
v -0.00420402 0.166262 -0.0210806
v -0.00408912 0.5195 -0.0216528
v -0.00400053 0.660608 -0.0122385
v -0.00397703 0.813602 -0.0176523
v -0.00397159 0.0719778 -0.0427361
v -0.00397159 0.0809699 -0.0427361
v -0.00394574 0.149088 -0.0160274
v -0.00389658 0.0683682 -0.0231059
v -0.00372635 0.356421 -0.0200658
v -0.00370666 0.101674 -0.0157922
v -0.00370439 -0.136105 -0.0175092
v -0.00366831 0.411037 -0.0141586
v -0.00366814 0.169497 -0.0236314
v -0.00365224 0.511113 -0.021377
v -0.00359566 0.638512 -0.017445
v -0.00358813 0.0990097 -0.0199886
v -0.00349257 0.44475 -0.0189562
v -0.00348227 0.0847607 -0.0219713
v -0.00347002 0.359449 -0.0145868
v -0.00343233 -0.164228 0.00894076
v -0.0033037 0.448278 -0.0147295
v -0.00329591 0.525286 -0.0175976
v -0.00328418 0.858723 0.0125698
v -0.00327609 0.0662348 -0.0206844
v -0.00323601 0.771368 -0.0123144
v -0.00321238 -0.157141 -0.0143009
v -0.00313873 0.851333 -0.0128517
v -0.00295299 0.860478 0.00607091
v -0.00289192 0.635592 -0.0132299
v -0.00279633 0.636194 0.0176362
v -0.00264255 0.857375 -0.012477
v -0.00259409 -0.0823345 -0.0163761
v -0.00240751 -0.0872528 -0.0184639
v -0.00157506 0.86049 -0.0103401
v -0.00149843 -0.164228 -0.00945901
v -0.00107734 0.860399 -0.00633251
v -0.00029885 0.85895 -6.42604e-005
v 0.000513008 0.447406 0.0194503
v 0.000657512 0.860612 0.00666656
v 0.000852912 0.858732 0.0130056
v 0.00126896 0.860838 0.0109699
v 0.00149843 -0.164228 0.00945901
v 0.00164435 0.84931 0.0133934
v 0.00218692 -0.157862 0.0151736
v 0.00218738 0.860479 -0.00643325
v 0.00256454 0.51733 0.021194
v 0.00259409 -0.0823345 0.0163761
v 0.00263864 0.177723 0.0245047
v 0.00280822 0.774427 -0.0168495
v 0.00283349 0.633046 0.0133691
v 0.00291733 0.167069 0.0242304
v 0.00293883 0.409316 0.0146494
v 0.00294768 0.331238 0.0205225
v 0.002956 -0.0856718 0.0177251
v 0.00296855 0.660249 0.0174258
v 0.00297179 0.846175 0.0162963
v 0.00302192 0.328218 0.0161035
v 0.00303172 0.663267 0.0128753
v 0.00307054 0.773712 0.0125439
v 0.00316546 0.0936687 0.0204299
v 0.00317902 0.450011 0.0147035
v 0.00326411 0.505754 0.0209499
v 0.00327453 0.353785 0.0203488
v 0.00327609 0.0662348 0.0206844
v 0.00335155 0.561464 0.0152024
v 0.00336218 0.138554 0.0155749
v 0.00343233 -0.164228 -0.00894076
v 0.00344781 0.859232 -0.0126114
v 0.00350773 0.0961308 0.0158569
v 0.00358964 0.163378 0.0206845
v 0.00373116 0.777298 0.0170839
v 0.00377694 0.860621 -0.0105052
v 0.00382549 -0.128994 0.0175219
v 0.00389658 0.0683682 0.0231059
v 0.00390494 0.502274 0.0179025
v 0.00397159 0.0719778 0.0427361
v 0.00397159 0.0809699 0.0427361
v 0.00401706 0.356662 0.0148563
v 0.00414525 0.856021 -0.0125888
v 0.00417517 0.0846003 0.0211751
v 0.00429986 0.851751 -0.012696
v 0.00478832 0.183107 0.020702
v 0.00481103 0.635822 -0.0128523
v 0.00487817 0.848444 -0.0159063
v 0.00491304 0.412486 0.0186346
v 0.00511261 0.813836 -0.0175022
v 0.00548597 0.810926 0.0168393
v 0.00549105 0.859802 0.00657175
v 0.00549865 -0.135745 -0.0172636
v 0.00552683 -0.156734 -0.0136959
v 0.00552806 0.772235 -0.0114441
v 0.00565059 0.63933 -0.0165687
v 0.00572988 0.66208 -0.0122182
v 0.00574432 -0.087538 -0.0179057
v 0.0059213 0.657858 -0.016824
v 0.00594219 -0.0823345 -0.0154789
v 0.00602668 -0.164228 0.00744233
v 0.00606785 0.860466 0.00233975
v 0.00610449 0.634777 0.00795222
v 0.00613444 0.103136 -0.0147698
v 0.00621458 0.527885 -0.0172749
v 0.00625399 0.851797 0.00762848
v 0.0062619 0.860507 -0.00111258
v 0.00628592 0.773608 0.00772242
v 0.00629924 0.662696 0.00773776
v 0.00642491 0.329822 -0.0209241
v 0.00658845 0.447989 -0.0126585
v 0.00663672 0.359621 -0.0125211
v 0.00665401 0.859812 -0.00535498
v 0.00680699 0.449881 0.00853274
v 0.00684946 0.411918 -0.0129825
v 0.00685502 0.520968 -0.0205175
v 0.00687126 0.636141 0.0146078
v 0.00692992 0.083239 0.0314291
v 0.00695278 0.100156 -0.0189663
v 0.00698461 0.327081 -0.0146377
v 0.00702409 0.14879 -0.0146345
v 0.00705179 0.511096 -0.0203913
v 0.0070569 0.414699 -0.0182426
v 0.00710354 0.444638 -0.0185632
v 0.0072251 0.858539 -0.00838285
v 0.0072296 0.360101 0.00874539
v 0.00737537 0.77243 -0.00605263
v 0.00737576 0.408681 0.00828293
v 0.00744233 -0.164228 -0.00602668
v 0.00750503 0.0662348 -0.0195513
v 0.00754144 0.327911 0.00935851
v 0.00755343 0.0997671 0.00914973
v 0.00756062 0.356948 -0.0192657
v 0.00763213 0.198772 -0.0176446
v 0.00770229 0.85159 -0.00612279
v 0.00797427 0.0847607 -0.0207672
v 0.0079855 0.66248 -0.00598552
v 0.00801475 0.636242 -0.00619746
v 0.00811624 0.512465 0.0104532
v 0.00834904 0.180967 -0.0219651
v 0.00838314 0.408229 -0.00679484
v 0.00849287 0.447993 -0.00694855
v 0.00861542 0.0683682 -0.0217908
v 0.00877178 0.360342 -0.00713027
v 0.00894076 -0.164228 0.00343233
v 0.00894141 0.167014 -0.0211513
v 0.00909523 0.502324 -0.0137688
v 0.0092283 0.172939 0.0122703
v 0.0092532 -0.158523 0.011825
v 0.00932439 0.326741 -0.00735888
v 0.00934212 0.172895 -0.0231359
v 0.00945901 -0.164228 -0.00149843
v 0.00954529 0.846005 0.0127207
v 0.00967349 0.103158 -0.00706237
v 0.0101384 0.8606 0.00387675
v 0.0103067 0.508986 -0.00857859
v 0.0104339 -0.0823345 0.0128848
v 0.0104545 0.0939063 0.0153885
v 0.0104565 0.860666 -0.00178282
v 0.0113047 -0.156148 -0.0103262
v 0.01141 0.17029 -0.00885683
v 0.011438 0.776919 0.0125752
v 0.0115927 -0.0861232 0.0132813
v 0.0115994 -0.129746 0.0131994
v 0.0116204 0.660172 0.0127338
v 0.0116971 0.85854 0.00488174
v 0.0120957 0.773167 0.00515258
v 0.0121344 0.849105 -0.00958303
v 0.0121395 0.41193 0.0135817
v 0.0121579 0.353872 0.0146378
v 0.0122877 0.775491 -0.0106629
v 0.0123078 0.852509 0.00578707
v 0.0123226 0.850377 0.00916919
v 0.0124041 0.772772 -0.0029618
v 0.0125194 0.330467 0.0156125
v 0.0125555 0.640829 0.0120486
v 0.0125673 0.446661 0.0128363
v 0.0126706 -0.130793 -0.0121845
v 0.0127318 0.662373 -0.00317223
v 0.0127454 0.662716 0.00447427
v 0.0127701 0.0719778 -0.0409765
v 0.0127701 0.0809699 -0.0409765
v 0.0127748 0.85836 -0.000901067
v 0.0127838 0.084724 0.0154452
v 0.0128601 0.639424 -0.0105868
v 0.0128848 -0.0823345 -0.0104339
v 0.0129785 0.636556 0.00457642
v 0.013058 0.852279 -0.00262927
v 0.0131794 0.0662348 0.0162752
v 0.0132311 -0.0868935 -0.0121186
v 0.0132503 0.658456 -0.0112785
v 0.013313 0.083239 -0.0293015
v 0.0133516 0.636161 -0.00300755
v 0.0134806 0.415115 -0.0130341
v 0.0135359 0.445427 -0.0119313
v 0.0135845 0.408333 0.0063503
v 0.013647 0.810465 0.0112674
v 0.0136897 0.804814 -0.0114433
v 0.013776 0.361057 0.00677259
v 0.013841 0.407705 -0.00425418
v 0.0139544 0.448671 -0.00408299
v 0.0141408 0.448993 0.00562236
v 0.0142408 0.102669 0.00713303
v 0.0142847 0.327855 0.00726505
v 0.0142887 -0.158599 0.00519095
v 0.0143997 0.480252 0.00641707
v 0.0144299 0.357378 -0.0124058
v 0.0145358 0.360754 -0.00286217
v 0.014561 0.470888 -0.00377435
v 0.0146519 0.0998888 -0.0120928
v 0.0147583 0.0683841 0.018225
v 0.0152467 0.330029 -0.0120312
v 0.0152768 -0.158867 -0.00237317
v 0.0154789 -0.0823345 0.00594219
v 0.0155541 0.102959 -0.00408309
v 0.0158466 0.0847211 -0.013108
v 0.0159427 0.327093 -0.00375555
v 0.016095 0.849949 -0.00273215
v 0.0162666 0.410764 -0.00810647
v 0.0162752 0.0662348 -0.0131794
v 0.0163761 -0.0823345 -0.00259409
v 0.0164249 0.776339 0.00628948
v 0.0167152 0.52335 0.00737318
v 0.0168324 0.776081 -0.00490835
v 0.0168463 0.659804 0.00555732
v 0.017107 -0.086839 0.00640099
v 0.0173373 0.640324 0.00561191
v 0.0174748 -0.130152 0.0050709
v 0.0175636 -0.129875 -0.00323777
v 0.017587 0.503348 0.00700591
v 0.0176508 0.659403 -0.00328136
v 0.0177965 0.639645 -0.00216707
v 0.0178955 0.098587 0.0089954
v 0.0179163 0.185955 0.00857053
v 0.0180118 0.521959 -0.00322053
v 0.0180644 0.805926 0.00411153
v 0.018073 0.161152 0.0085661
v 0.0181632 0.411732 0.00640052
v 0.018225 0.0683841 -0.0147583
v 0.0182658 0.809431 -0.00253086
v 0.0184939 0.503105 -0.00321465
v 0.0185105 -0.0863658 -0.00162018
v 0.0185111 0.18467 -0.00629477
v 0.0185663 0.358692 0.00785045
v 0.018915 0.445636 0.00633221
v 0.0190065 0.330511 0.00848304
v 0.0190911 0.161654 -0.00478543
v 0.0195261 0.445505 -0.00373429
v 0.0195513 0.0662348 0.00750503
v 0.0195546 0.0728351 0.0420048
v 0.0195546 0.0801126 0.0420048
v 0.0196372 0.358156 -0.00294418
v 0.0199873 0.0846626 0.00704118
v 0.0201985 0.516834 0.00629091
v 0.02036 0.505498 -0.00287915
v 0.0204151 0.505699 0.0062002
v 0.0204999 0.516289 -0.00336715
v 0.0206844 0.0662348 -0.00327609
v 0.020922 0.0991929 -0.00372793
v 0.0212892 0.164392 0.00887925
v 0.0213606 0.330527 -0.00199056
v 0.0214121 0.511282 0.00631793
v 0.0215871 0.512049 -0.00324591
v 0.0217908 0.0683682 0.00861542
v 0.0219713 0.0847607 -0.00348227
v 0.0226216 0.175147 0.00849667
v 0.0227014 0.0824916 0.0280339
v 0.0228576 0.164861 -0.0033055
v 0.0231059 0.0683682 -0.00389658
v 0.023214 0.168614 0.00927169
v 0.0232688 0.175516 -0.00396905
v 0.0251591 0.168357 0.00193159
v 0.0278606 0.0728351 -0.0370213
v 0.0278606 0.0801126 -0.0370213
v 0.0280339 0.0824916 -0.0227014
v 0.0293015 0.083239 0.013313
v 0.0314291 0.083239 -0.00692992
v 0.0323 0.0740607 0.0398872
v 0.0323 0.078886 0.0398872
v 0.0370213 0.0728351 0.0278606
v 0.0370213 0.0801126 0.0278606
v 0.0398872 0.0740607 -0.0323
v 0.0398872 0.078886 -0.0323
v 0.0409765 0.0719778 0.0127701
v 0.0409765 0.0809699 0.0127701
v 0.0420048 0.0728351 -0.0195546
v 0.0420048 0.0801126 -0.0195546
v 0.0427361 0.0719778 -0.00397159
v 0.0427361 0.0809699 -0.00397159
vt 0.0186336 0.381794
vt 0.0259192 0.215561
vt 0.0267205 0.667076
vt 0.0279563 0.149271
vt 0.0299032 0.230375
vt 0.0312962 0.654013
vt 0.0316546 0.134477
vt 0.0320573 0.72053
vt 0.032321 0.731586
vt 0.0337056 0.0208917
vt 0.0354191 0.97585
vt 0.0405776 0.352807
vt 0.0427657 0.382869
vt 0.0429843 0.372531
vt 0.0450181 0.394433
vt 0.0457376 0.406021
vt 0.0472681 0.228603
vt 0.0474693 0.665496
vt 0.0478994 0.149828
vt 0.0486505 0.7313
vt 0.0489004 0.652086
vt 0.0491532 0.135898
vt 0.050561 0.719427
vt 0.0521183 0.0193761
vt 0.0523733 0.215452
vt 0.0535298 0.980448
vt 0.0660754 0.38423
vt 0.0662628 0.393506
vt 0.0669297 0.374204
vt 0.0696974 0.213931
vt 0.072847 0.717783
vt 0.0729766 0.148156
vt 0.0735898 0.650841
vt 0.0739464 0.229572
vt 0.0743627 0.664352
vt 0.075358 0.730086
vt 0.0753782 0.351925
vt 0.0755399 0.134261
vt 0.0772194 0.448343
vt 0.0779617 0.0189077
vt 0.0799772 0.979306
vt 0.0856369 0.214978
vt 0.0891603 0.38043
vt 0.0905787 0.233689
vt 0.0926619 0.649871
vt 0.0927249 0.133826
vt 0.093242 0.14757
vt 0.0938038 0.663876
vt 0.0941329 0.715583
vt 0.0957012 0.730541
vt 0.0961021 0.452561
vt 0.0965587 0.018802
vt 0.0994052 0.977023
vt 0.103435 0.225323
vt 0.108556 0.236224
vt 0.110848 0.134137
vt 0.111651 0.356231
vt 0.11322 0.147136
vt 0.113428 0.649225
vt 0.114 0.0170259
vt 0.11414 0.38698
vt 0.115422 0.728181
vt 0.116749 0.376089
vt 0.117616 0.463749
vt 0.117695 0.977617
vt 0.119053 0.716987
vt 0.119457 0.361758
vt 0.123764 0.659897
vt 0.130705 0.224553
vt 0.135972 0.133951
vt 0.136139 0.387119
vt 0.137268 0.714633
vt 0.137354 0.363059
vt 0.138804 0.146562
vt 0.13895 0.235596
vt 0.139623 0.648003
vt 0.140091 0.728152
vt 0.140716 0.353288
vt 0.142269 0.486076
vt 0.143038 0.0162428
vt 0.146366 0.976877
vt 0.147623 0.65995
vt 0.156759 0.130974
vt 0.158132 0.145304
vt 0.158495 0.727772
vt 0.158926 0.651313
vt 0.159159 0.236292
vt 0.160039 0.71365
vt 0.160971 0.0239971
vt 0.161467 0.221849
vt 0.161724 0.376157
vt 0.163202 0.670419
vt 0.164906 0.97688
vt 0.174336 0.131327
vt 0.178443 0.143793
vt 0.178885 0.0259559
vt 0.180226 0.727395
vt 0.18055 0.71416
vt 0.180675 0.232701
vt 0.180822 0.304335
vt 0.181399 0.219022
vt 0.181926 0.655918
vt 0.182373 0.669919
vt 0.182979 0.400694
vt 0.184562 0.356205
vt 0.185281 0.976196
vt 0.188081 0.385871
vt 0.18858 0.362717
vt 0.18906 0.374171
vt 0.200841 0.668756
vt 0.201044 0.713949
vt 0.203373 0.727167
vt 0.203399 0.217961
vt 0.203425 0.129464
vt 0.203891 0.0243109
vt 0.205094 0.655921
vt 0.206731 0.375563
vt 0.206833 0.361828
vt 0.207221 0.384471
vt 0.208194 0.231185
vt 0.208313 0.355566
vt 0.20843 0.39793
vt 0.208484 0.2833
vt 0.210361 0.140719
vt 0.211277 0.975796
vt 0.219791 0.128343
vt 0.219818 0.728436
vt 0.222424 0.0225935
vt 0.222568 0.712593
vt 0.223718 0.656523
vt 0.224011 0.14939
vt 0.224463 0.670148
vt 0.224694 0.230858
vt 0.225492 0.216816
vt 0.230186 0.975491
vt 0.232519 0.369186
vt 0.236876 0.136025
vt 0.237396 0.020066
vt 0.239601 0.727614
vt 0.24094 0.229195
vt 0.242224 0.148048
vt 0.244369 0.71273
vt 0.245505 0.214294
vt 0.245637 0.354241
vt 0.245707 0.657104
vt 0.24736 0.670162
vt 0.248447 0.975501
vt 0.252592 0.412497
vt 0.255688 0.374978
vt 0.256542 0.396208
vt 0.264113 0.0173032
vt 0.264545 0.132189
vt 0.267868 0.14489
vt 0.26821 0.227848
vt 0.268589 0.725953
vt 0.268649 0.657877
vt 0.268973 0.213907
vt 0.270642 0.670482
vt 0.271008 0.713174
vt 0.275902 0.392459
vt 0.276688 0.376271
vt 0.276695 0.407631
vt 0.27673 0.974439
vt 0.281188 0.129066
vt 0.281345 0.350183
vt 0.282525 0.0151053
vt 0.282764 0.734661
vt 0.28659 0.227172
vt 0.287778 0.657776
vt 0.289323 0.143774
vt 0.291228 0.211002
vt 0.292818 0.724603
vt 0.29394 0.671112
vt 0.294265 0.979282
vt 0.30152 0.381839
vt 0.321958 0.208698
vt 0.324622 0.0197297
vt 0.327537 0.874498
vt 0.332277 0.0462285
vt 0.332759 0.290692
vt 0.333295 0.140342
vt 0.333735 0.639689
vt 0.336698 0.058802
vt 0.338024 0.588742
vt 0.338089 0.658153
vt 0.33885 0.839828
vt 0.341316 0.568284
vt 0.3457 0.919097
vt 0.351894 0.219394
vt 0.351954 0.0163606
vt 0.351971 0.27788
vt 0.35219 0.228053
vt 0.352804 0.197179
vt 0.353426 0.204727
vt 0.354719 0.139062
vt 0.354888 0.650562
vt 0.356218 0.948534
vt 0.356487 0.0395324
vt 0.356605 0.0521718
vt 0.358801 0.638031
vt 0.361001 0.589666
vt 0.361749 0.57679
vt 0.366109 0.880246
vt 0.371135 0.858779
vt 0.378045 0.231937
vt 0.378761 0.217509
vt 0.379537 0.0155665
vt 0.379613 0.207949
vt 0.381547 0.0378673
vt 0.383883 0.286837
vt 0.383893 0.197257
vt 0.385868 0.0502586
vt 0.386173 0.636975
vt 0.386248 0.126049
vt 0.387559 0.651045
vt 0.38779 0.587869
vt 0.391075 0.91467
vt 0.391881 0.574205
vt 0.392488 0.797412
vt 0.394083 0.881121
vt 0.394125 0.954349
vt 0.39638 0.871962
vt 0.398155 0.790528
vt 0.404888 0.286524
vt 0.405329 0.214076
vt 0.406002 0.0528563
vt 0.406067 0.0379487
vt 0.406165 0.0151142
vt 0.406265 0.135133
vt 0.408761 0.656043
vt 0.410215 0.637932
vt 0.410474 0.587592
vt 0.410717 0.571628
vt 0.411348 0.731445
vt 0.413196 0.711497
vt 0.419942 0.891258
vt 0.420016 0.756595
vt 0.423423 0.263335
vt 0.424863 0.872649
vt 0.426157 0.147058
vt 0.42617 0.811554
vt 0.42713 0.0511668
vt 0.42735 0.0385026
vt 0.428158 0.648998
vt 0.429455 0.572085
vt 0.429803 0.803776
vt 0.429942 0.202236
vt 0.430783 0.0162424
vt 0.430892 0.635766
vt 0.431004 0.234006
vt 0.431459 0.585799
vt 0.434235 0.731185
vt 0.43446 0.693055
vt 0.437187 0.719278
vt 0.437366 0.743103
vt 0.437659 0.772289
vt 0.437698 0.93001
vt 0.439347 0.216584
vt 0.440587 0.954512
vt 0.445671 0.710461
vt 0.445995 0.751838
vt 0.453192 0.900489
vt 0.454013 0.232463
vt 0.454782 0.211163
vt 0.454878 0.0373277
vt 0.456817 0.686746
vt 0.456911 0.584012
vt 0.457177 0.048509
vt 0.457548 0.0170258
vt 0.457615 0.706948
vt 0.457765 0.635429
vt 0.457894 0.755063
vt 0.458167 0.201341
vt 0.458262 0.570251
vt 0.458397 0.877563
vt 0.458606 0.145181
vt 0.459015 0.245603
vt 0.459542 0.777812
vt 0.462836 0.648275
vt 0.467084 0.823022
vt 0.469779 0.710035
vt 0.469843 0.751738
vt 0.470172 0.815112
vt 0.475455 0.0392463
vt 0.478491 0.742892
vt 0.478621 0.718841
vt 0.478774 0.0577249
vt 0.479905 0.0179778
vt 0.480133 0.77147
vt 0.480506 0.568863
vt 0.48075 0.583876
vt 0.480864 0.693384
vt 0.481497 0.222522
vt 0.481853 0.659148
vt 0.481921 0.730896
vt 0.482254 0.636792
vt 0.488487 0.963509
vt 0.491899 0.907513
vt 0.495236 0.881793
vt 0.497452 0.754034
vt 0.498117 0.709318
vt 0.498869 0.939904
vt 0.499704 0.0633145
vt 0.499858 0.56915
vt 0.500085 0.049058
vt 0.50192 0.58281
vt 0.502143 0.657331
vt 0.504266 0.19518
vt 0.504359 0.0177738
vt 0.50438 0.251566
vt 0.504479 0.732653
vt 0.505288 0.645225
vt 0.507411 0.204527
vt 0.508964 0.213926
vt 0.508982 0.227029
vt 0.512248 0.830575
vt 0.512534 0.822288
vt 0.522542 0.213733
vt 0.525297 0.90862
vt 0.52584 0.582321
vt 0.527424 0.888322
vt 0.528526 0.0163065
vt 0.530695 0.567622
vt 0.530826 0.0488907
vt 0.53128 0.644236
vt 0.532673 0.205574
vt 0.533532 0.22814
vt 0.534174 0.0633427
vt 0.534512 0.656449
vt 0.53711 0.196383
vt 0.540179 0.248497
vt 0.545608 0.743037
vt 0.545648 0.721621
vt 0.545813 0.976927
vt 0.548344 0.939911
vt 0.551266 0.56639
vt 0.551294 0.906655
vt 0.551889 0.58155
vt 0.552187 0.897361
vt 0.553596 0.764278
vt 0.553733 0.064152
vt 0.554779 0.0151415
vt 0.555386 0.0492958
vt 0.556598 0.660844
vt 0.557221 0.642954
vt 0.559374 0.21619
vt 0.559462 0.832479
vt 0.560192 0.824045
vt 0.560612 0.696693
vt 0.564816 0.730934
vt 0.565918 0.757376
vt 0.569498 0.721242
vt 0.571984 0.56768
vt 0.572841 0.728463
vt 0.573133 0.754675
vt 0.574259 0.740903
vt 0.574988 0.655625
vt 0.57577 0.713633
vt 0.576137 0.783994
vt 0.576399 0.913282
vt 0.577832 0.062205
vt 0.577977 0.752392
vt 0.578268 0.892887
vt 0.579803 0.580889
vt 0.580013 0.0497739
vt 0.580112 0.640511
vt 0.580646 0.0143607
vt 0.580653 0.280423
vt 0.580763 0.717968
vt 0.581212 0.732774
vt 0.582814 0.770902
vt 0.584352 0.166763
vt 0.584614 0.746873
vt 0.584924 0.761259
vt 0.585559 0.209602
vt 0.586525 0.238957
vt 0.587102 0.725108
vt 0.587257 0.221948
vt 0.589068 0.691702
vt 0.589706 0.753023
vt 0.594792 0.713981
vt 0.596853 0.738216
vt 0.59707 0.949914
vt 0.599688 0.761326
vt 0.601607 0.786142
vt 0.603336 0.72222
vt 0.603348 0.564348
vt 0.604132 0.975038
vt 0.605171 0.0470976
vt 0.606059 0.0587795
vt 0.606297 0.750801
vt 0.607052 0.837136
vt 0.607747 0.638686
vt 0.607877 0.713067
vt 0.608394 0.0147197
vt 0.608615 0.828883
vt 0.609155 0.917515
vt 0.609272 0.70669
vt 0.609823 0.65253
vt 0.609937 0.575716
vt 0.610267 0.728195
vt 0.610632 0.893098
vt 0.611555 0.301027
vt 0.612224 0.757944
vt 0.612225 0.744504
vt 0.612517 0.214089
vt 0.613115 0.691944
vt 0.613599 0.234845
vt 0.614437 0.205728
vt 0.616201 0.766721
vt 0.616375 0.165576
vt 0.617449 0.721888
vt 0.620372 0.734623
vt 0.620781 0.749103
vt 0.621562 0.565496
vt 0.622319 0.715218
vt 0.622641 0.780186
vt 0.624376 0.753537
vt 0.62671 0.7407
vt 0.628058 0.0576124
vt 0.628396 0.65721
vt 0.629951 0.586948
vt 0.630238 0.289737
vt 0.630303 0.0441633
vt 0.63213 0.755667
vt 0.632274 0.141631
vt 0.633414 0.638368
vt 0.636873 0.71046
vt 0.637483 0.018091
vt 0.641571 0.759758
vt 0.642143 0.208365
vt 0.643632 0.731688
vt 0.647223 0.892153
vt 0.647519 0.918345
vt 0.653951 0.830803
vt 0.654983 0.839056
vt 0.659056 0.949301
vt 0.660635 0.976742
vt 0.669735 0.525482
vt 0.674008 0.669994
vt 0.675612 0.180819
vt 0.677928 0.584278
vt 0.679687 0.894481
vt 0.679927 0.0693714
vt 0.680583 0.914871
vt 0.6807 0.191777
vt 0.683955 0.756217
vt 0.685521 0.560049
vt 0.688956 0.772465
vt 0.690615 0.0208771
vt 0.695354 0.527132
vt 0.696466 0.570762
vt 0.696647 0.67951
vt 0.697905 0.584298
vt 0.702146 0.179179
vt 0.702267 0.826715
vt 0.702749 0.835164
vt 0.703254 0.192605
vt 0.703285 0.0907635
vt 0.704305 0.753369
vt 0.705246 0.764392
vt 0.70545 0.900418
vt 0.70588 0.909761
vt 0.707409 0.943345
vt 0.710748 0.0224239
vt 0.711669 0.980949
vt 0.719888 0.67707
vt 0.720994 0.528403
vt 0.723137 0.583852
vt 0.724246 0.569657
vt 0.724294 0.750992
vt 0.724477 0.178591
vt 0.726 0.193281
vt 0.730585 0.892666
vt 0.730802 0.0247682
vt 0.731393 0.761434
vt 0.731501 0.913273
vt 0.73194 0.0904049
vt 0.744482 0.563844
vt 0.746633 0.529327
vt 0.746678 0.581846
vt 0.747355 0.17906
vt 0.747454 0.67578
vt 0.748905 0.193761
vt 0.749623 0.764834
vt 0.750472 0.750054
vt 0.750506 0.0232314
vt 0.750828 0.834175
vt 0.751233 0.825817
vt 0.752649 0.0908408
vt 0.756944 0.946599
vt 0.762624 0.889075
vt 0.763923 0.568191
vt 0.764649 0.913203
vt 0.765318 0.758738
vt 0.766692 0.97165
vt 0.768411 0.580882
vt 0.769237 0.664486
vt 0.771835 0.748289
vt 0.771869 0.19408
vt 0.772262 0.529959
vt 0.772789 0.0227756
vt 0.77335 0.088983
vt 0.774316 0.178424
vt 0.793402 0.0896834
vt 0.793459 0.758404
vt 0.793486 0.0242785
vt 0.79488 0.19422
vt 0.79512 0.747343
vt 0.795194 0.187447
vt 0.7952 0.58097
vt 0.795975 0.822732
vt 0.796217 0.566479
vt 0.797895 0.530228
vt 0.798126 0.830798
vt 0.798854 0.662089
vt 0.79901 0.883879
vt 0.802964 0.909394
vt 0.814236 0.964555
vt 0.814874 0.768045
vt 0.815306 0.747049
vt 0.815806 0.56145
vt 0.816064 0.0231943
vt 0.817924 0.194215
vt 0.817975 0.938794
vt 0.818127 0.186041
vt 0.818627 0.579656
vt 0.819493 0.0882745
vt 0.823524 0.53018
vt 0.824267 0.660816
vt 0.827764 0.757227
vt 0.832044 0.881999
vt 0.835484 0.901605
vt 0.835869 0.763763
vt 0.837589 0.02159
vt 0.837905 0.565844
vt 0.839885 0.578724
vt 0.840975 0.193952
vt 0.841623 0.0862577
vt 0.841656 0.813553
vt 0.842272 0.184739
vt 0.84346 0.821814
vt 0.845903 0.649927
vt 0.849151 0.529862
vt 0.859071 0.884247
vt 0.860454 0.0212245
vt 0.8605 0.893307
vt 0.861478 0.756112
vt 0.862948 0.658546
vt 0.863189 0.765148
vt 0.864014 0.193541
vt 0.864122 0.182553
vt 0.864826 0.925739
vt 0.86669 0.0848142
vt 0.867456 0.564317
vt 0.869662 0.578562
vt 0.870064 0.963598
vt 0.874773 0.529182
vt 0.881277 0.0198063
vt 0.882741 0.754775
vt 0.883973 0.807857
vt 0.884068 0.874035
vt 0.884199 0.183072
vt 0.884295 0.769633
vt 0.886263 0.81595
vt 0.88685 0.558972
vt 0.887065 0.19292
vt 0.887165 0.893266
vt 0.887578 0.084813
vt 0.888903 0.576475
vt 0.889093 0.647848
vt 0.900399 0.528228
vt 0.905269 0.563929
vt 0.906091 0.0246018
vt 0.906099 0.764651
vt 0.908521 0.754051
vt 0.909968 0.192112
vt 0.911893 0.923378
vt 0.913212 0.0817515
vt 0.913371 0.180986
vt 0.913878 0.796833
vt 0.915985 0.670285
vt 0.916123 0.947778
vt 0.917831 0.865247
vt 0.918725 0.574527
vt 0.91985 0.803409
vt 0.92233 0.889841
vt 0.924043 0.0221032
vt 0.926022 0.526943
vt 0.929799 0.765419
vt 0.932751 0.191191
vt 0.933028 0.754928
vt 0.935087 0.0695639
vt 0.93653 0.562113
vt 0.93713 0.178453
vt 0.940023 0.67015
vt 0.943841 0.572637
vt 0.944941 0.77193
vt 0.946609 0.0182541
vt 0.951627 0.525284
vt 0.952496 0.756305
vt 0.953132 0.946498
vt 0.954915 0.559144
vt 0.955277 0.190009
vt 0.958168 0.178692
vt 0.958312 0.851581
vt 0.958331 0.584646
vt 0.958843 0.067087
vt 0.963722 0.670426
vt 0.96528 0.88279
vt 0.96879 0.919921
vt 0.977218 0.523274
vn -0.987228 0.0043755 0.159251
vn -0.980976 0.0186174 0.193235
vn -0.979883 0.124552 0.155938
vn -0.978366 -0.0539346 -0.199725
vn -0.976682 0.14097 0.161923
vn -0.953016 0.130679 -0.273282
vn -0.95137 -0.0402811 0.305407
vn -0.942804 -0.298479 0.14843
vn -0.939211 -0.0390105 0.341116
vn -0.933252 0.322838 0.157529
vn -0.92843 -0.348042 0.129943
vn -0.92789 -0.038219 0.370889
vn -0.924069 -0.0717735 0.375426
vn -0.923725 0.0244721 -0.382274
vn -0.916211 0.382889 0.118125
vn -0.91613 0.0593865 -0.396459
vn -0.908827 0.398616 0.12304
vn -0.907627 0.0116731 -0.419616
vn -0.907123 0.205051 0.367535
vn -0.907038 0.0130935 -0.420846
vn -0.904913 -0.365107 0.218699
vn -0.900995 -0.360419 0.241467
vn -0.896762 0.0676781 0.437306
vn -0.89438 -0.411775 -0.174715
vn -0.893644 0.40227 0.198944
vn -0.893172 0.0135044 0.449513
vn -0.891869 0.0224478 0.451736
vn -0.888016 -0.0349784 0.458481
vn -0.884982 0.129546 -0.447242
vn -0.884348 0.0119573 0.466676
vn -0.883664 0.0115583 0.467978
vn -0.883227 -0.269651 0.383665
vn -0.880848 -0.309495 -0.358218
vn -0.876277 -0.305237 -0.372786
vn -0.875023 0.0602633 0.480316
vn -0.872303 0.268345 0.408753
vn -0.869825 -0.378011 -0.317035
vn -0.868028 0.149252 0.473552
vn -0.867718 -0.445844 0.219749
vn -0.861454 0.0383935 0.506382
vn -0.859041 -0.319683 0.399814
vn -0.854164 -0.370225 -0.365154
vn -0.851364 0.199513 0.485153
vn -0.848978 -0.389873 -0.356702
vn -0.845324 0.0172981 0.533974
vn -0.84505 -0.394879 0.360501
vn -0.841983 -0.496406 0.211297
vn -0.83609 -0.432973 -0.336879
vn -0.835996 0.00278523 0.548728
vn -0.833332 -0.00273438 0.552766
vn -0.818035 0.021384 0.57477
vn -0.816404 0.153538 -0.556696
vn -0.814098 0.561338 0.148811
vn -0.813847 0.0714764 0.576666
vn -0.810387 -0.204547 0.54903
vn -0.806388 0.157709 -0.569971
vn -0.805813 -0.160421 -0.570027
vn -0.803094 0.543621 -0.243958
vn -0.802431 -0.0999402 -0.588316
vn -0.798997 0.0264664 0.600752
vn -0.796187 -0.267475 0.542718
vn -0.794743 0.0127597 0.606812
vn -0.792543 0.267173 -0.548174
vn -0.790277 -0.0859371 -0.606694
vn -0.789907 -0.0393159 0.611966
vn -0.786697 0.0106954 0.617246
vn -0.785406 0.195352 -0.587346
vn -0.782837 -0.0407201 -0.620893
vn -0.78248 -0.0645635 0.61932
vn -0.782424 -0.121527 -0.610774
vn -0.781688 -0.326303 -0.531498
vn -0.778826 0.0477554 -0.62542
vn -0.777757 0.0407854 0.62724
vn -0.775004 -0.0362454 0.630916
vn -0.774345 0.103474 0.624245
vn -0.774035 0.00997968 0.633064
vn -0.773744 0.0224333 -0.633101
vn -0.773409 0.495855 -0.394926
vn -0.773061 0.0226075 0.633928
vn -0.773015 0.63368 -0.0299514
vn -0.771153 0.104084 0.628084
vn -0.768818 0.629097 0.114695
vn -0.767899 -0.640564 0.00297122
vn -0.767884 0.428719 0.475977
vn -0.761755 0.541716 -0.355351
vn -0.758783 0.632238 -0.1566
vn -0.758701 -0.0547875 0.649131
vn -0.756092 -0.639758 0.137961
vn -0.755865 0.603642 -0.253545
vn -0.751949 0.00436388 -0.659207
vn -0.751903 0.0169436 -0.659056
vn -0.751356 0.0876075 0.654056
vn -0.750584 0.0586172 0.65817
vn -0.747955 0.59534 0.293484
vn -0.746258 0.000228599 0.665656
vn -0.739093 0.00387918 -0.673592
vn -0.739047 0.501231 -0.450085
vn -0.735888 0.00338439 -0.677094
vn -0.733281 0.128153 -0.667739
vn -0.728171 0.629097 -0.272035
vn -0.727775 -0.000101784 0.685816
vn -0.71919 -0.463628 -0.517509
vn -0.715855 0.00559156 -0.698227
vn -0.712206 0.628751 -0.312145
vn -0.710886 -0.639758 -0.292147
vn -0.704759 -0.041845 -0.708212
vn -0.701681 0.0136785 0.71236
vn -0.700518 0.092012 0.707678
vn -0.699427 -0.000414993 0.714704
vn -0.696774 0.44288 0.564237
vn -0.69107 0.01061 -0.72271
vn -0.681185 -0.00901073 0.732056
vn -0.67343 0.438106 0.595445
vn -0.672619 -0.330712 -0.661977
vn -0.671891 0.515153 0.532146
vn -0.671392 -0.502536 0.544692
vn -0.669453 0.0323873 -0.742148
vn -0.667514 0.0188068 0.74436
vn -0.658444 0.00909739 -0.752575
vn -0.650105 0.731331 0.2062
vn -0.649953 -0.537604 0.537162
vn -0.648745 -0.557226 0.518295
vn -0.648432 0.0959822 -0.755198
vn -0.648297 -0.11804 0.752182
vn -0.643877 0.569694 0.510757
vn -0.64356 -0.525876 0.556134
vn -0.643146 -0.427588 -0.635241
vn -0.641809 0.694991 -0.324142
vn -0.641245 -0.564945 0.51927
vn -0.639293 -0.00428719 -0.768951
vn -0.639283 -0.0019632 0.768969
vn -0.635172 0.0993765 -0.765951
vn -0.632615 0.204594 0.746954
vn -0.630815 -0.752391 -0.189683
vn -0.630024 -0.291949 -0.719607
vn -0.629044 0.117046 -0.768507
vn -0.626179 -0.729685 -0.274699
vn -0.626135 0.0871157 0.774833
vn -0.622768 -0.0627162 -0.779889
vn -0.620228 -0.348073 0.702967
vn -0.618433 0.377951 -0.68898
vn -0.617401 0.594565 0.515081
vn -0.617119 0.0278105 -0.786378
vn -0.61475 -0.382268 -0.689894
vn -0.611053 -0.0349995 -0.790816
vn -0.610966 0.604745 0.510886
vn -0.602193 -0.552301 0.576479
vn -0.595836 0.0159046 -0.802948
vn -0.595037 0.792025 0.136483
vn -0.59334 0.00695216 -0.804922
vn -0.590045 -0.0622549 0.804966
vn -0.586429 0.470502 -0.65934
vn -0.576638 0.609371 -0.544202
vn -0.575372 -0.806811 0.134176
vn -0.574315 0.797747 0.183743
vn -0.572972 -0.67559 0.463984
vn -0.564237 0.44288 -0.696774
vn -0.563632 -0.0851551 -0.821625
vn -0.554641 -0.829289 0.068218
vn -0.541369 0.00316042 -0.840779
vn -0.54045 -0.542867 -0.642814
vn -0.540382 0.000277596 -0.84142
vn -0.538818 0.777825 0.323517
vn -0.532121 0.00779161 -0.846632
vn -0.531699 -0.821894 -0.204415
vn -0.53 0.270754 -0.803612
vn -0.52719 -0.841784 0.116066
vn -0.522189 -0.221112 -0.823668
vn -0.51927 -0.564945 -0.641245
vn -0.511568 0.758964 0.40283
vn -0.511168 0.0680873 -0.85678
vn -0.510706 -0.562715 -0.650023
vn -0.508034 -0.818544 -0.268117
vn -0.505948 0.00280533 -0.862559
vn -0.504348 -0.783349 -0.363314
vn -0.504258 0.00431203 -0.863542
vn -0.502325 -0.832619 0.23327
vn -0.49761 0.0193016 -0.867186
vn -0.497053 0.68194 -0.536559
vn -0.492465 0.276149 -0.825361
vn -0.485068 -0.526619 -0.698127
vn -0.484082 -0.0652243 0.872588
vn -0.473523 -0.656054 -0.587681
vn -0.472706 -0.839749 -0.267153
vn -0.465862 0.00986962 0.884802
vn -0.463984 -0.67559 -0.572972
vn -0.458399 -0.885367 0.0774276
vn -0.451265 0.752166 -0.480215
vn -0.450586 0.864129 -0.224174
vn -0.446726 0.421695 0.789056
vn -0.445404 -0.883308 0.146225
vn -0.441999 -0.10928 -0.890334
vn -0.438187 0.892271 -0.108832
vn -0.437781 -0.862845 0.252679
vn -0.433605 0.857036 -0.278345
vn -0.430133 0.733316 -0.526531
vn -0.428248 0.109545 -0.896997
vn -0.427684 0.872317 0.23696
vn -0.426813 0.194757 -0.88312
vn -0.42511 0.0265944 0.904751
vn -0.420942 0.00259849 0.907084
vn -0.41768 0.898356 -0.136013
vn -0.415792 -0.845698 -0.334534
vn -0.412457 0.77349 -0.48124
vn -0.408023 0.892976 0.190028
vn -0.40621 0.902317 0.144284
vn -0.406012 -0.02129 -0.91362
vn -0.400802 0.596525 -0.695353
vn -0.387056 0.821518 0.418683
vn -0.383982 0.55057 0.741236
vn -0.382471 0.86966 0.312102
vn -0.381156 -0.295773 -0.875921
vn -0.373074 -0.377381 -0.847584
vn -0.372969 0.432564 0.820843
vn -0.367158 -0.833497 0.41289
vn -0.364255 0.902477 -0.229901
vn -0.363432 -0.227919 -0.903311
vn -0.362274 0.82603 0.431778
vn -0.359035 -0.028138 0.9329
vn -0.358361 -0.919256 -0.16293
vn -0.356445 0.217664 0.908609
vn -0.355331 -0.428874 0.830546
vn -0.353723 -0.845413 0.400196
vn -0.351582 -0.911262 0.214457
vn -0.346591 -0.286125 0.893312
vn -0.342714 -0.915074 0.212573
vn -0.340529 -0.830008 0.441732
vn -0.336879 -0.432973 0.83609
vn -0.33542 -0.906492 0.256449
vn -0.333466 0.00545225 0.942746
vn -0.332621 0.910864 0.244316
vn -0.330762 0.909089 0.253286
vn -0.327071 0.00114509 -0.944999
vn -0.324883 -0.859971 0.393574
vn -0.32339 0.0719358 -0.943528
vn -0.321708 0.3711 0.871084
vn -0.319179 0.439411 -0.839668
vn -0.317214 -0.150796 0.936288
vn -0.312684 0.906747 -0.28291
vn -0.310008 -0.462528 0.83064
vn -0.304847 0.123186 0.944401
vn -0.304671 0.914494 -0.266225
vn -0.303565 0.658357 0.688777
vn -0.299736 0.340402 -0.891227
vn -0.298359 0.687695 -0.661859
vn -0.295777 -0.544943 0.784572
vn -0.290558 0.0397371 -0.956032
vn -0.285362 -0.367362 -0.88522
vn -0.285086 0.854294 -0.434635
vn -0.284476 0.910945 -0.298753
vn -0.282144 -0.855726 -0.433737
vn -0.28142 0.524608 0.803486
vn -0.27551 0.909929 0.310038
vn -0.273706 -0.935927 0.221642
vn -0.268734 0.918853 0.288948
vn -0.259244 -0.557147 0.788911
vn -0.257492 0.744642 0.615797
vn -0.252464 -0.45472 0.854103
vn -0.251197 0.927302 0.277508
vn -0.247502 -0.867059 -0.432379
vn -0.245889 0.132617 -0.960183
vn -0.227741 0.714659 -0.66136
vn -0.221642 -0.935927 -0.273706
vn -0.219222 0.882325 0.416466
vn -0.217667 -0.099943 -0.970893
vn -0.216848 0.000219642 -0.976205
vn -0.210543 -0.931995 -0.295053
vn -0.207422 0.444576 -0.871395
vn -0.204926 0.918097 0.339269
vn -0.199648 -0.966454 0.161576
vn -0.198829 0.340157 -0.919108
vn -0.196882 0.895722 0.398648
vn -0.194464 0.924591 -0.327591
vn -0.184283 -0.426651 -0.885443
vn -0.178643 0.973467 0.142998
vn -0.177497 -0.863535 -0.472019
vn -0.175278 0.406945 0.896478
vn -0.175118 0.327471 -0.928491
vn -0.171586 0.908184 -0.381784
vn -0.16774 0.984786 0.0453803
vn -0.164595 0.852643 -0.495891
vn -0.164228 -0.886203 0.433213
vn -0.163706 -0.475602 -0.864294
vn -0.16293 -0.919256 0.358361
vn -0.159943 0.985013 -0.0645545
vn -0.1551 -0.640719 0.751946
vn -0.14843 -0.298479 -0.942804
vn -0.148053 -0.930612 -0.334727
vn -0.147913 0.98171 0.119866
vn -0.126192 -0.544943 -0.828923
vn -0.123834 0.744642 -0.655876
vn -0.122542 -0.877019 -0.464565
vn -0.121511 -0.42976 0.89473
vn -0.119144 0.98193 -0.14703
vn -0.107961 0.23241 -0.966608
vn -0.0848298 -0.849654 -0.520473
vn -0.0774276 -0.885367 -0.458399
vn -0.0727067 0.996888 -0.0304773
vn -0.0707884 0.98455 0.160155
vn -0.0630375 0.99781 0.020044
vn -0.0400623 0.997026 0.0658399
vn -0.0382794 0.996094 -0.0795701
vn -0.0366841 0.984692 -0.170399
vn -0.0302636 -0.889411 -0.456106
vn -0.0299335 -0.640748 0.767167
vn -0.00758137 0.450847 0.892569
vn 0.00270831 0.633499 0.773738
vn 0.00307958 0.999909 -0.0131262
vn 0.00641962 0.998 0.0628866
vn 0.00853877 -0.758166 -0.652005
vn 0.0136686 0.814717 -0.579698
vn 0.0149406 0.406945 -0.913331
vn 0.0151829 0.869188 -0.49425
vn 0.0215048 0.996801 -0.0769703
vn 0.0321358 0.985535 0.166398
vn 0.0457836 -0.876702 0.47885
vn 0.0633089 0.996743 -0.0499542
vn 0.0703712 0.985171 -0.15648
vn 0.0709897 0.997439 0.008736
vn 0.0774276 -0.885367 0.458399
vn 0.0970247 0.747522 0.657113
vn 0.100321 0.520467 0.847968
vn 0.100492 0.218281 0.970698
vn 0.107622 -0.878893 0.464721
vn 0.111569 0.983456 0.142709
vn 0.115434 -0.843467 0.524632
vn 0.119451 -0.845294 0.520778
vn 0.123834 0.744642 0.655876
vn 0.126192 -0.544943 0.828923
vn 0.127192 0.75462 0.643717
vn 0.135595 0.559813 0.81745
vn 0.138152 0.749113 0.647876
vn 0.14583 0.897314 0.416606
vn 0.148155 0.981653 -0.120035
vn 0.14843 -0.298479 0.942804
vn 0.149349 -0.505808 -0.849619
vn 0.154748 -0.400206 0.903265
vn 0.154782 0.986008 0.0618876
vn 0.162354 0.327823 0.930684
vn 0.162844 0.0344844 0.986049
vn 0.16293 -0.919256 -0.358361
vn 0.163445 -0.95195 0.258991
vn 0.163518 0.633499 -0.756267
vn 0.165682 -0.921203 -0.352045
vn 0.167964 0.984751 -0.0453103
vn 0.169448 0.0300049 0.985082
vn 0.171623 0.172453 0.969951
vn 0.179766 0.894927 0.4084
vn 0.186708 0.838795 0.511433
vn 0.190186 0.749878 0.63365
vn 0.194535 -0.904425 0.379699
vn 0.199969 -0.0452878 0.978755
vn 0.200066 0.930223 -0.307667
vn 0.207581 -0.421085 -0.882948
vn 0.212967 0.830663 0.514436
vn 0.21759 -0.370806 -0.90286
vn 0.218303 -0.771141 -0.598069
vn 0.22137 -0.487441 -0.844628
vn 0.221642 -0.935927 0.273706
vn 0.223904 -0.369738 0.901754
vn 0.225096 0.940026 -0.256288
vn 0.225649 0.932524 -0.281924
vn 0.237779 -0.495378 -0.835501
vn 0.240477 0.867783 0.434883
vn 0.243176 -0.901808 0.357223
vn 0.247207 0.608841 -0.753791
vn 0.248546 0.944999 0.212606
vn 0.249176 0.00437312 0.968448
vn 0.257492 0.744642 -0.615797
vn 0.258651 -0.831815 0.491105
vn 0.262092 0.806365 -0.530173
vn 0.263334 0.715904 0.646635
vn 0.265513 0.00965076 0.964059
vn 0.266029 -0.424475 -0.865476
vn 0.267743 -0.921315 0.281945
vn 0.270243 0.118186 0.955511
vn 0.270427 0.512073 -0.815261
vn 0.271454 0.86144 -0.429224
vn 0.271571 -0.359098 0.892916
vn 0.272121 0.942775 -0.192679
vn 0.273706 -0.935927 -0.221642
vn 0.282806 0.89172 -0.35335
vn 0.286879 -0.361014 0.887339
vn 0.290486 0.923457 -0.250688
vn 0.292546 0.290907 0.910928
vn 0.295691 -0.827182 -0.477846
vn 0.295777 -0.544943 -0.784572
vn 0.300067 0.555036 -0.775819
vn 0.303772 0.426095 -0.852153
vn 0.306812 0.91216 0.271719
vn 0.307886 -0.916675 -0.25478
vn 0.312093 0.907571 -0.280915
vn 0.318506 0.0240536 -0.947616
vn 0.319956 -0.0781883 -0.9442
vn 0.322293 0.870673 0.371559
vn 0.323042 -0.888511 -0.32587
vn 0.323387 -0.906976 -0.269843
vn 0.335733 -0.808042 -0.4841
vn 0.336334 -0.89902 -0.280434
vn 0.336879 -0.432973 -0.83609
vn 0.340052 -0.86713 -0.363936
vn 0.348441 0.195013 0.91682
vn 0.351788 0.519439 -0.778735
vn 0.352273 0.195907 -0.915164
vn 0.352925 0.174307 -0.919272
vn 0.355088 -0.907544 -0.224223
vn 0.35632 0.879831 -0.314537
vn 0.358361 -0.919256 0.16293
vn 0.360669 0.907914 -0.213567
vn 0.362697 -0.343641 0.866234
vn 0.365391 0.891287 -0.268509
vn 0.368662 -0.900671 0.229956
vn 0.368789 0.572643 -0.732171
vn 0.371568 0.484075 -0.792217
vn 0.376272 0.894992 0.239603
vn 0.384407 0.815211 0.433201
vn 0.38726 -0.381043 0.839545
vn 0.397733 0.780048 0.483046
vn 0.404447 -0.853413 0.328798
vn 0.406704 0.739693 0.53614
vn 0.40675 0.0203799 -0.913312
vn 0.406936 0.00414106 -0.913447
vn 0.410388 0.812951 -0.413148
vn 0.411409 -0.0670003 0.908985
vn 0.415161 0.669953 -0.615471
vn 0.420663 -0.0612472 0.905147
vn 0.422602 -0.687635 0.590394
vn 0.423769 -0.838488 0.342576
vn 0.42642 0.86225 -0.273295
vn 0.427325 -0.894226 0.133239
vn 0.42807 -0.00766711 -0.903713
vn 0.429027 -0.35286 0.83152
vn 0.434335 0.00747921 0.90072
vn 0.439392 0.0094375 0.898246
vn 0.441424 -0.224134 0.868855
vn 0.443449 0.0552685 0.894594
vn 0.44582 0.0261423 0.894741
vn 0.447349 0.880803 0.15513
vn 0.449176 0.214311 0.867359
vn 0.450769 0.461065 0.764347
vn 0.454754 -0.871954 -0.181369
vn 0.458399 -0.885367 -0.0774276
vn 0.461122 0.842092 -0.279727
vn 0.463984 -0.67559 0.572972
vn 0.464183 0.858004 -0.219918
vn 0.46425 0.437518 0.770097
vn 0.465428 0.866925 0.178373
vn 0.469296 -0.879893 -0.0744989
vn 0.469367 0.0305447 -0.882475
vn 0.47117 0.0131139 0.881945
vn 0.479642 0.323243 0.815756
vn 0.48275 -0.213932 -0.849227
vn 0.484934 -0.0313206 -0.87399
vn 0.492496 0.00734297 0.870284
vn 0.497032 -0.857359 -0.133771
vn 0.500803 0.681038 0.534214
vn 0.504656 -0.83115 -0.233479
vn 0.506469 0.76338 -0.400923
vn 0.511358 0.297151 -0.806359
vn 0.51927 -0.564945 0.641245
vn 0.523932 -0.536896 0.66124
vn 0.527876 0.0404101 -0.848359
vn 0.53312 -0.393359 -0.749034
vn 0.533724 0.361896 0.76431
vn 0.534216 0.553075 0.639313
vn 0.537778 -0.548481 0.640283
vn 0.538911 0.67877 -0.498846
vn 0.542872 -0.817706 -0.19143
vn 0.544395 0.773763 -0.323923
vn 0.551079 0.0413145 -0.83343
vn 0.5514 0.148232 0.820966
vn 0.55586 -0.655621 -0.511059
vn 0.555876 -0.556564 0.617445
vn 0.560392 -0.780328 0.277577
vn 0.564237 0.44288 0.696774
vn 0.564581 -0.03152 -0.824776
vn 0.568815 -0.79286 0.218682
vn 0.569051 -0.0343799 0.821583
vn 0.57104 0.761872 0.30572
vn 0.572972 -0.67559 -0.463984
vn 0.573723 -0.411506 0.70817
vn 0.580508 0.146221 -0.801018
vn 0.584415 0.805225 -0.10036
vn 0.587217 -0.000853772 0.809429
vn 0.593592 -0.163866 -0.787906
vn 0.599251 -0.0139506 0.80044
vn 0.601482 0.584438 -0.544657
vn 0.602984 -0.0454662 0.796457
vn 0.605413 0.108104 0.788536
vn 0.606324 0.624676 -0.492088
vn 0.61154 0.00172817 0.791212
vn 0.612579 0.394245 0.685067
vn 0.625804 -0.531283 -0.571059
vn 0.626554 0.117456 -0.770476
vn 0.626881 0.14717 0.765089
vn 0.629535 -0.368442 -0.684059
vn 0.631105 0.489686 0.601593
vn 0.635165 0.0277631 0.771878
vn 0.636405 0.0223328 0.771032
vn 0.640939 -0.517885 0.566561
vn 0.641245 -0.564945 -0.51927
vn 0.644729 -0.556907 -0.523621
vn 0.646515 -0.0484177 0.761363
vn 0.649725 0.00108956 -0.760168
vn 0.649802 0.517429 -0.556798
vn 0.651312 0.447659 -0.612694
vn 0.658021 -0.0093203 -0.752942
vn 0.661168 0.750187 0.00876462
vn 0.666608 -0.0367656 0.744502
vn 0.671829 -0.319683 -0.668168
vn 0.672046 -0.366905 0.643222
vn 0.673919 0.193908 -0.712904
vn 0.674512 -0.0995372 0.731523
vn 0.683754 0.00172522 -0.72971
vn 0.686504 0.0112481 0.727039
vn 0.69524 -0.551024 -0.461535
vn 0.695525 -0.312186 0.647136
vn 0.696774 0.44288 -0.564237
vn 0.69696 0.00370916 -0.7171
vn 0.697177 -0.0330079 -0.716138
vn 0.704397 0.0110229 0.70972
vn 0.709225 0.00114621 0.704981
vn 0.710886 -0.639758 0.292147
vn 0.719851 0.000596178 0.694128
vn 0.726592 -0.23761 -0.644675
vn 0.728171 0.629097 0.272035
vn 0.728617 -0.00830038 -0.684871
vn 0.729919 -0.0415888 -0.682267
vn 0.733054 0.397442 0.55197
vn 0.733394 0.0178815 -0.679569
vn 0.741181 0.00309036 -0.671299
vn 0.744327 0.117625 -0.657375
vn 0.744781 -0.346294 0.570422
vn 0.748756 0.642946 -0.161199
vn 0.752577 0.0264998 -0.657971
vn 0.754793 0.150327 -0.638506
vn 0.756092 -0.639758 -0.137961
vn 0.75886 -0.417653 0.499696
vn 0.758999 0.0254102 0.650596
vn 0.761485 0.501788 0.410305
vn 0.76457 0.00317905 -0.644533
vn 0.766986 0.00631613 -0.641633
vn 0.768818 0.629097 -0.114695
vn 0.769866 -0.156897 -0.618619
vn 0.770968 -0.0660404 0.633441
vn 0.782026 -0.390975 0.485361
vn 0.78433 -0.556836 0.273424
vn 0.784559 -0.46421 -0.411068
vn 0.784858 -0.0275661 -0.619062
vn 0.788229 -0.489179 0.37336
vn 0.78834 0.012006 0.615123
vn 0.788572 0.123068 0.602502
vn 0.789468 0.120012 -0.601945
vn 0.793603 0.27212 -0.544191
vn 0.794987 -0.0783911 0.60154
vn 0.797397 0.252529 0.548076
vn 0.798346 0.008613 0.602138
vn 0.80242 -0.0334208 -0.595823
vn 0.809648 0.417396 0.412615
vn 0.822038 0.182396 0.53943
vn 0.830364 0.368199 0.41824
vn 0.832975 0.0411263 0.55178
vn 0.835771 0.0976784 -0.540319
vn 0.836713 0.00497663 -0.547619
vn 0.837944 -0.545498 0.0168099
vn 0.840838 0.226673 -0.49154
vn 0.842163 -0.505535 0.187605
vn 0.843614 0.00403893 -0.536936
vn 0.844303 0.389 0.368553
vn 0.850824 -0.0159352 -0.52521
vn 0.853222 0.499398 0.150379
vn 0.855904 0.338411 -0.391033
vn 0.856299 -0.310671 -0.412596
vn 0.863627 0.484619 -0.1389
vn 0.868202 -0.473921 -0.147051
vn 0.86869 0.378225 -0.31988
vn 0.872089 0.282292 0.399715
vn 0.872451 0.123204 0.472916
vn 0.874161 -0.438724 -0.208241
vn 0.875135 -0.375423 0.30528
vn 0.876025 -0.0365275 0.480881
vn 0.877843 0.40362 -0.257841
vn 0.877873 -0.435522 0.199148
vn 0.878522 -0.381192 -0.287909
vn 0.881621 -0.0478373 -0.469527
vn 0.882435 0.00471704 -0.470411
vn 0.885545 0.164699 -0.434377
vn 0.888817 0.197682 -0.413432
vn 0.892273 0.432919 -0.128181
vn 0.898746 -0.325694 0.293562
vn 0.902708 0.141653 0.406266
vn 0.904815 -0.404658 -0.132521
vn 0.907809 0.0534115 -0.415969
vn 0.908987 -0.337595 -0.244485
vn 0.910125 0.0011853 -0.414331
vn 0.913458 -0.353182 -0.202131
vn 0.914087 0.402511 -0.0492935
vn 0.918013 0.233813 0.320286
vn 0.929556 -0.0246065 0.367859
vn 0.935212 0.00221152 0.354081
vn 0.936961 0.0158998 0.349072
vn 0.939654 -0.0646842 0.335955
vn 0.951428 0.00444882 -0.307839
vn 0.957475 0.247761 -0.147841
vn 0.958684 0.0204904 -0.283734
vn 0.958713 -0.0647785 -0.2769
vn 0.962321 0.0266469 -0.270609
vn 0.962951 0.0372824 -0.267086
vn 0.967535 -0.0410867 -0.249376
vn 0.981582 0.160827 -0.103104
vn 0.98681 -0.151261 0.0576655
g group_jims_kendostick_1h
usemtl jims_kendostick_1h
s 1
f 146/229/65 145/226/109 180/242/131
f 175/240/124 146/229/65 180/242/131
f 145/226/109 81/214/28 73/212/31
f 146/229/65 81/214/28 145/226/109
f 461/330/525 482/326/548 451/308/533
f 482/326/548 474/313/500 451/308/533
f 375/346/549 461/330/525 368/341/520
f 368/341/520 461/330/525 429/328/606
f 360/375/463 375/346/549 335/372/485
f 354/376/512 348/368/494 375/346/549
f 335/372/485 368/341/520 318/361/431
f 335/372/485 375/346/549 368/341/520
f 457/331/532 485/327/588 375/346/549
f 486/318/611 484/314/513 474/313/500
f 482/326/548 486/318/611 474/313/500
f 461/330/525 451/308/533 429/328/606
f 429/328/606 451/308/533 417/303/545
f 362/293/488 288/273/410 284/276/424
f 484/314/513 362/293/488 474/313/500
f 474/313/500 362/293/488 451/308/533
f 284/276/424 180/242/131 287/268/433
f 284/276/424 175/240/124 180/242/131
f 346/287/478 284/276/424 287/268/433
f 362/293/488 284/276/424 346/287/478
f 451/308/533 362/293/488 346/287/478
f 417/303/545 451/308/533 346/287/478
f 231/406/212 360/375/463 219/409/213
f 29/194/102 142/176/158 48/193/135
f 225/411/192 318/361/431 228/390/130
f 225/411/192 335/372/485 318/361/431
f 81/214/28 86/195/64 83/199/18
f 81/214/28 83/199/18 73/212/31
f 86/195/64 165/183/162 83/199/18
f 86/195/64 169/181/139 165/183/162
f 219/409/213 360/375/463 335/372/485
f 225/411/192 219/409/213 335/372/485
f 142/431/158 219/409/213 225/411/192
f 169/426/139 228/390/130 165/420/162
f 169/426/139 225/411/192 228/390/130
f 142/431/158 225/411/192 169/426/139
f 48/193/135 142/176/158 169/181/139
f 48/193/135 169/181/139 86/195/64
f 45/211/41 86/195/64 81/214/28
f 45/211/41 48/193/135 86/195/64
f 334/353/421 364/336/530 348/368/494
f 348/368/494 364/336/530 375/346/549
f 209/403/171 334/353/421 348/368/494
f 217/387/178 334/353/421 209/403/171
f 171/415/91 209/403/171 152/423/117
f 171/415/91 217/387/178 209/403/171
f 85/202/77 152/180/117 62/191/99
f 85/202/77 171/187/91 152/180/117
f 50/210/23 85/202/77 62/191/99
f 77/218/27 85/202/77 50/210/23
f 143/233/107 50/210/23 133/224/60
f 143/233/107 77/218/27 50/210/23
f 174/245/51 133/224/60 141/238/108
f 174/245/51 143/233/107 133/224/60
f 275/274/346 174/245/51 141/238/108
f 275/274/346 141/238/108 300/277/439
f 345/290/499 275/274/346 300/277/439
f 345/290/499 300/277/439 362/293/488
f 418/304/539 345/290/499 448/310/560
f 448/310/560 345/290/499 362/293/488
f 431/323/607 448/310/560 457/331/532
f 431/323/607 418/304/539 448/310/560
f 364/336/530 457/331/532 375/346/549
f 364/336/530 431/323/607 457/331/532
f 127/225/69 45/211/41 146/229/65
f 146/229/65 45/211/41 81/214/28
f 62/191/99 152/180/117 142/176/158
f 24/192/56 62/191/99 142/176/158
f 133/224/60 50/210/23 19/205/38
f 133/224/60 19/205/38 127/225/69
f 141/238/108 133/224/60 127/225/69
f 151/250/133 141/238/108 127/225/69
f 288/273/410 149/247/140 175/240/124
f 288/273/410 175/240/124 284/276/424
f 23/208/46 21/189/57 29/194/102
f 29/194/102 48/193/135 45/211/41
f 23/208/46 29/194/102 45/211/41
f 24/192/56 21/189/57 18/206/13
f 21/189/57 24/192/56 142/176/158
f 21/189/57 142/176/158 29/194/102
f 19/205/38 24/192/56 18/206/13
f 50/210/23 62/191/99 19/205/38
f 19/205/38 62/191/99 24/192/56
f 19/205/38 18/206/13 127/225/69
f 18/206/13 21/189/57 23/208/46
f 127/225/69 23/208/46 45/211/41
f 127/225/69 18/206/13 23/208/46
f 213/408/197 354/376/512 365/378/476
f 348/368/494 354/376/512 213/408/197
f 209/403/171 348/368/494 213/408/197
f 213/408/197 365/378/476 231/406/212
f 142/431/158 231/406/212 219/409/213
f 213/408/197 231/406/212 142/431/158
f 152/423/117 209/403/171 213/408/197
f 152/423/117 213/408/197 142/431/158
f 231/406/212 365/378/476 360/375/463
f 365/378/476 375/346/549 360/375/463
f 365/378/476 354/376/512 375/346/549
f 480/315/556 484/314/513 486/318/611
f 480/315/556 362/293/488 484/314/513
f 480/315/556 448/310/560 362/293/488
f 485/327/588 480/315/556 486/318/611
f 457/331/532 448/310/560 485/327/588
f 485/327/588 448/310/560 480/315/556
f 485/327/588 486/318/611 482/326/548
f 266/263/402 151/250/133 208/258/238
f 300/277/439 151/250/133 266/263/402
f 300/277/439 141/238/108 151/250/133
f 300/277/439 266/263/402 362/293/488
f 362/293/488 266/263/402 269/264/417
f 362/293/488 269/264/417 288/273/410
f 266/263/402 208/258/238 269/264/417
f 269/264/417 208/258/238 149/247/140
f 269/264/417 149/247/140 288/273/410
f 149/247/140 127/225/69 175/240/124
f 175/240/124 127/225/69 146/229/65
f 208/258/238 151/250/133 149/247/140
f 151/250/133 127/225/69 149/247/140
f 375/346/549 482/326/548 461/330/525
f 375/346/549 485/327/588 482/326/548
f 241/352/236 183/350/36 192/333/118
f 241/352/236 215/354/231 183/350/36
f 258/358/451 259/369/333 241/352/236
f 259/369/333 215/354/231 241/352/236
f 306/381/420 259/369/333 258/358/451
f 369/394/415 306/381/420 380/398/492
f 369/394/415 380/398/492 397/416/576
f 373/412/380 369/394/415 397/416/576
f 397/416/576 386/407/578 402/428/587
f 397/416/576 380/398/492 386/407/578
f 327/413/469 373/412/380 397/416/576
f 397/416/576 402/428/587 349/432/563
f 327/413/469 397/416/576 349/432/563
f 249/410/180 297/425/449 245/417/235
f 297/425/449 299/430/462 245/417/235
f 252/404/273 286/418/377 249/410/180
f 249/410/180 286/418/377 297/425/449
f 297/425/449 339/419/572 349/432/563
f 299/430/462 297/425/449 349/432/563
f 252/404/273 290/414/384 286/418/377
f 290/414/384 327/413/469 339/419/572
f 286/418/377 290/414/384 339/419/572
f 286/418/377 339/419/572 297/425/449
f 339/419/572 327/413/469 349/432/563
f 207/384/196 249/410/180 195/385/123
f 249/410/180 245/417/235 195/385/123
f 207/384/196 252/404/273 249/410/180
f 114/359/16 118/371/63 195/385/123
f 118/371/63 207/384/196 195/385/123
f 134/374/189 207/384/196 118/371/63
f 140/362/275 134/374/189 126/355/94
f 215/354/231 187/356/170 183/350/36
f 187/356/170 140/362/275 126/355/94
f 183/350/36 166/332/54 192/333/118
f 183/350/36 187/356/170 166/332/54
f 187/356/170 126/355/94 113/351/43
f 126/355/94 134/374/189 118/371/63
f 126/355/94 118/371/63 113/351/43
f 380/398/492 306/381/420 320/379/471
f 386/407/578 380/398/492 320/379/471
f 113/351/43 118/371/63 114/359/16
f 113/351/43 114/359/16 106/340/35
f 113/351/43 106/340/35 166/332/54
f 187/356/170 113/351/43 166/332/54
f 261/349/340 241/352/236 192/333/118
f 258/358/451 241/352/236 261/349/340
f 320/379/471 258/358/451 261/349/340
f 306/381/420 258/358/451 320/379/471
f 215/354/231 259/369/333 257/377/314
f 215/354/231 257/377/314 246/370/302
f 257/377/314 259/369/333 306/381/420
f 369/394/415 316/386/300 306/381/420
f 316/386/300 257/377/314 306/381/420
f 369/394/415 373/412/380 316/386/300
f 373/412/380 321/401/298 316/386/300
f 321/401/298 373/412/380 327/413/469
f 290/414/384 252/404/273 263/405/309
f 263/405/309 252/404/273 254/391/301
f 290/414/384 263/405/309 327/413/469
f 263/405/309 321/401/298 327/413/469
f 254/391/301 252/404/273 207/384/196
f 134/374/189 185/380/317 207/384/196
f 185/380/317 254/391/301 207/384/196
f 134/374/189 140/362/275 185/380/317
f 140/362/275 194/373/319 185/380/317
f 215/354/231 246/370/302 187/356/170
f 246/370/302 194/373/319 187/356/170
f 194/373/319 140/362/275 187/356/170
f 246/370/302 257/377/314 255/382/308
f 257/377/314 316/386/300 255/382/308
f 316/386/300 321/401/298 255/382/308
f 263/405/309 254/391/301 255/382/308
f 321/401/298 263/405/309 255/382/308
f 254/391/301 185/380/317 255/382/308
f 185/380/317 194/373/319 255/382/308
f 194/373/319 246/370/302 255/382/308
f 178/164/103 237/151/150 173/166/164
f 178/164/103 230/152/266 237/151/150
f 94/22/119 173/10/164 92/24/20
f 94/22/119 178/7/103 173/10/164
f 91/38/30 92/24/20 82/40/26
f 91/38/30 94/22/119 92/24/20
f 158/46/76 91/38/30 150/52/66
f 91/38/30 82/40/26 150/52/66
f 191/56/62 150/52/66 177/60/185
f 191/56/62 158/46/76 150/52/66
f 270/70/434 177/60/185 296/80/450
f 270/70/434 191/56/62 177/60/185
f 342/83/454 270/70/434 340/89/521
f 340/89/521 270/70/434 296/80/450
f 410/94/557 342/83/454 413/96/551
f 413/96/551 342/83/454 340/89/521
f 414/114/586 413/96/551 422/115/595
f 414/114/586 410/94/557 413/96/551
f 355/126/564 414/114/586 358/128/514
f 414/114/586 422/115/595 358/128/514
f 230/152/266 329/137/507 326/138/504
f 230/152/266 326/138/504 237/151/150
f 32/29/32 37/13/59 47/14/71
f 26/27/12 37/13/59 32/29/32
f 80/37/55 78/12/70 90/34/7
f 90/34/7 78/12/70 95/17/68
f 32/29/32 47/14/71 80/37/55
f 80/37/55 47/14/71 78/12/70
f 214/165/217 361/144/544 325/140/453
f 239/154/207 214/165/217 325/140/453
f 232/161/168 336/149/452 214/165/217
f 336/149/452 361/144/544 214/165/217
f 423/123/585 415/120/570 356/133/558
f 469/118/573 470/108/538 455/121/584
f 470/108/538 444/105/517 455/121/584
f 455/121/584 444/105/517 420/100/555
f 455/121/584 420/100/555 423/123/585
f 423/123/585 420/100/555 416/99/599
f 423/123/585 416/99/599 415/120/570
f 420/100/555 328/87/509 416/99/599
f 477/117/593 476/109/581 469/118/573
f 476/109/581 470/108/538 469/118/573
f 205/67/256 172/63/151 160/57/61
f 280/73/435 205/67/256 293/78/432
f 205/67/256 160/57/61 293/78/432
f 264/71/376 159/61/75 172/63/151
f 280/73/435 172/63/151 205/67/256
f 264/71/376 172/63/151 280/73/435
f 159/61/75 139/43/112 172/63/151
f 172/63/151 139/43/112 160/57/61
f 139/43/112 32/29/32 80/37/55
f 444/105/517 353/91/486 420/100/555
f 420/100/555 353/91/486 328/87/509
f 477/117/593 468/107/577 476/109/581
f 468/107/577 437/104/552 353/91/486
f 471/119/554 468/107/577 477/117/593
f 449/122/566 468/107/577 471/119/554
f 449/122/566 437/104/552 468/107/577
f 449/122/566 471/119/554 370/136/531
f 361/144/544 356/133/558 325/140/453
f 361/144/544 370/136/531 356/133/558
f 370/136/531 477/117/593 469/118/573
f 370/136/531 423/123/585 356/133/558
f 370/136/531 455/121/584 423/123/585
f 336/149/452 370/136/531 361/144/544
f 330/150/459 319/148/482 370/136/531
f 370/136/531 469/118/573 455/121/584
f 232/161/168 220/160/199 336/149/452
f 220/160/199 330/150/459 336/149/452
f 155/175/148 232/161/168 214/165/217
f 155/175/148 220/160/199 232/161/168
f 240/162/166 330/150/459 220/160/199
f 240/162/166 319/148/482 330/150/459
f 155/175/148 214/165/217 182/168/145
f 214/165/217 239/154/207 182/168/145
f 78/12/70 182/5/145 95/17/68
f 78/12/70 155/1/148 182/5/145
f 37/13/59 38/15/67 155/1/148
f 37/13/59 155/1/148 47/14/71
f 47/14/71 155/1/148 78/12/70
f 240/162/166 220/160/199 155/175/148
f 197/64/138 147/51/73 159/61/75
f 159/61/75 147/51/73 139/43/112
f 139/43/112 26/27/12 32/29/32
f 28/28/19 26/27/12 139/43/112
f 26/27/12 38/15/67 37/13/59
f 28/28/19 38/15/67 26/27/12
f 55/16/52 38/15/67 28/28/19
f 147/51/73 72/39/92 139/43/112
f 72/39/92 28/28/19 139/43/112
f 72/39/92 55/16/52 28/28/19
f 38/15/67 55/16/52 155/1/148
f 468/107/577 353/91/486 476/109/581
f 476/109/581 353/91/486 470/108/538
f 470/108/538 353/91/486 444/105/517
f 353/91/486 280/73/435 293/78/432
f 353/91/486 264/71/376 280/73/435
f 283/79/436 264/71/376 353/91/486
f 264/71/376 197/64/138 159/61/75
f 283/79/436 197/64/138 264/71/376
f 401/102/562 317/86/498 437/104/552
f 437/104/552 317/86/498 353/91/486
f 407/116/608 437/104/552 449/122/566
f 407/116/608 401/102/562 437/104/552
f 352/130/535 449/122/566 370/136/531
f 352/130/535 407/116/608 449/122/566
f 301/145/470 352/130/535 319/148/482
f 319/148/482 352/130/535 370/136/531
f 247/156/247 319/148/482 240/162/166
f 247/156/247 301/145/470 319/148/482
f 189/169/143 240/162/166 155/175/148
f 189/169/143 247/156/247 240/162/166
f 117/21/72 189/6/143 55/16/52
f 55/16/52 189/6/143 155/1/148
f 72/39/92 100/33/40 55/16/52
f 163/45/45 100/33/40 147/51/73
f 147/51/73 100/33/40 72/39/92
f 197/64/138 163/45/45 147/51/73
f 206/59/200 163/45/45 197/64/138
f 283/79/436 206/59/200 197/64/138
f 268/76/437 206/59/200 283/79/436
f 317/86/498 283/79/436 353/91/486
f 317/86/498 268/76/437 283/79/436
f 124/20/96 202/11/174 196/9/98
f 129/26/90 202/11/174 124/20/96
f 111/41/1 129/26/90 124/20/96
f 111/41/1 124/20/96 101/36/49
f 203/65/95 162/53/101 167/50/50
f 203/65/95 167/50/50 210/62/201
f 162/53/101 111/41/1 101/36/49
f 162/53/101 101/36/49 167/50/50
f 277/81/368 203/65/95 210/62/201
f 277/81/368 210/62/201 276/77/491
f 322/93/524 277/81/368 276/77/491
f 322/93/524 276/77/491 323/85/484
f 381/106/522 322/93/524 323/85/484
f 394/97/600 381/106/522 323/85/484
f 388/125/603 381/106/522 394/97/600
f 388/125/603 394/97/600 393/112/541
f 341/135/519 388/125/603 393/112/541
f 351/127/568 341/135/519 393/112/541
f 309/147/542 341/135/519 351/127/568
f 309/147/542 351/127/568 311/139/422
f 196/167/98 243/163/176 221/155/160
f 202/174/174 243/163/176 196/167/98
f 160/57/61 139/43/112 153/44/74
f 176/55/182 160/57/61 153/44/74
f 153/44/74 80/37/55 90/34/7
f 139/43/112 80/37/55 153/44/74
f 293/78/432 160/57/61 176/55/182
f 293/78/432 176/55/182 279/75/426
f 293/78/432 279/75/426 328/87/509
f 353/91/486 293/78/432 328/87/509
f 329/137/507 355/126/564 326/138/504
f 355/126/564 358/128/514 326/138/504
f 243/163/176 309/147/542 311/139/422
f 243/163/176 311/139/422 221/155/160
f 471/119/554 477/117/593 370/136/531
f 336/149/452 330/150/459 370/136/531
f 100/33/40 117/21/72 55/16/52
f 71/454/44 129/452/175 111/470/159
f 60/469/21 71/454/44 111/470/159
f 108/481/121 111/470/159 162/479/194
f 108/481/121 60/469/21 111/470/159
f 203/493/227 108/481/121 162/479/194
f 190/497/258 108/481/121 203/493/227
f 190/497/258 203/493/227 277/513/327
f 289/511/379 190/497/258 277/513/327
f 376/527/473 277/513/327 322/522/365
f 376/527/473 289/511/379 277/513/327
f 376/527/473 322/522/365 381/536/419
f 436/537/547 376/527/473 381/536/419
f 436/537/547 381/536/419 388/555/455
f 438/556/594 436/537/547 388/555/455
f 267/585/354 309/573/401 243/594/260
f 188/597/161 267/585/354 243/594/260
f 131/607/127 188/597/161 202/603/134
f 202/603/134 188/597/161 243/594/260
f 71/454/44 131/442/127 129/452/175
f 129/452/175 131/442/127 202/448/134
f 267/585/354 385/570/472 309/573/401
f 385/570/472 388/555/455 341/566/406
f 385/570/472 438/556/594 388/555/455
f 385/570/472 341/566/406 309/573/401
f 56/467/2 71/454/44 60/469/21
f 56/467/2 64/453/14 71/454/44
f 112/483/79 60/469/21 108/481/121
f 112/483/79 56/467/2 60/469/21
f 199/498/230 108/481/121 190/497/258
f 199/498/230 112/483/79 108/481/121
f 305/516/373 190/497/258 289/511/379
f 305/516/373 199/498/230 190/497/258
f 411/530/515 289/511/379 376/527/473
f 411/530/515 305/516/373 289/511/379
f 412/571/527 385/570/472 267/585/354
f 304/582/393 412/571/527 267/585/354
f 222/596/233 267/585/354 188/597/161
f 222/596/233 304/582/393 267/585/354
f 131/607/127 222/596/233 188/597/161
f 123/609/111 222/596/233 131/607/127
f 64/453/14 123/440/111 71/454/44
f 123/440/111 131/442/127 71/454/44
f 412/571/527 438/556/594 385/570/472
f 412/571/527 454/549/605 438/556/594
f 135/601/141 218/592/237 222/596/233
f 135/601/141 222/596/233 123/609/111
f 195/598/188 218/592/237 135/601/141
f 64/453/14 135/447/141 123/440/111
f 76/460/97 135/447/141 64/453/14
f 114/461/128 195/449/188 76/460/97
f 65/471/15 64/453/14 56/467/2
f 65/471/15 76/460/97 64/453/14
f 218/592/237 302/576/388 304/582/393
f 218/592/237 304/582/393 222/596/233
f 245/590/245 299/575/425 302/576/388
f 245/590/245 302/576/388 218/592/237
f 302/576/388 382/560/506 304/582/393
f 304/582/393 382/560/506 412/571/527
f 299/575/425 349/564/423 302/576/388
f 274/509/339 204/499/214 199/498/230
f 274/509/339 199/498/230 305/516/373
f 204/499/214 125/486/115 112/483/79
f 204/499/214 112/483/79 199/498/230
f 387/531/497 320/520/330 367/521/464
f 386/534/479 320/520/330 387/531/497
f 125/486/115 56/467/2 112/483/79
f 125/486/115 65/471/15 56/467/2
f 106/476/163 65/471/15 125/486/115
f 192/495/218 166/485/253 125/486/115
f 166/485/253 106/476/163 125/486/115
f 114/461/128 76/460/97 65/471/15
f 106/476/163 114/461/128 65/471/15
f 367/521/464 305/516/373 411/530/515
f 367/521/464 274/509/339 305/516/373
f 261/506/332 274/509/339 367/521/464
f 320/520/330 261/506/332 367/521/464
f 261/506/332 204/499/214 274/509/339
f 450/543/601 376/527/473 436/537/547
f 450/543/601 411/530/515 376/527/473
f 367/521/464 411/530/515 450/543/601
f 387/531/497 367/521/464 450/543/601
f 450/543/601 436/537/547 438/556/594
f 454/549/605 450/543/601 438/556/594
f 454/549/605 432/548/597 450/543/601
f 432/548/597 387/531/497 450/543/601
f 402/550/443 386/534/479 432/548/597
f 382/560/506 432/548/597 454/549/605
f 382/560/506 454/549/605 412/571/527
f 402/550/443 432/548/597 382/560/506
f 261/506/332 192/495/218 204/499/214
f 192/495/218 125/486/115 204/499/214
f 195/449/188 135/447/141 76/460/97
f 195/598/188 245/590/245 218/592/237
f 349/564/423 382/560/506 302/576/388
f 349/564/423 402/550/443 382/560/506
f 386/534/479 387/531/497 432/548/597
f 446/110/579 401/102/474 407/116/457
f 446/110/579 441/103/590 401/102/474
f 352/130/399 399/132/493 407/116/457
f 399/132/493 446/110/579 407/116/457
f 399/132/493 352/130/399 301/145/398
f 310/146/374 399/132/493 301/145/398
f 310/146/374 301/145/398 247/156/296
f 233/158/283 310/146/374 247/156/296
f 132/173/172 247/156/296 189/169/288
f 132/173/172 233/158/283 247/156/296
f 132/3/172 189/6/288 117/21/203
f 69/18/42 132/3/172 117/21/203
f 69/18/42 117/21/203 100/33/167
f 58/35/22 69/18/42 100/33/167
f 163/45/226 97/48/147 100/33/167
f 97/48/147 58/35/22 100/33/167
f 97/48/147 163/45/226 206/59/223
f 248/68/293 97/48/147 206/59/223
f 331/82/461 248/68/293 268/76/370
f 248/68/293 206/59/223 268/76/370
f 390/92/511 331/82/461 317/86/477
f 317/86/477 331/82/461 268/76/370
f 441/103/590 390/92/511 401/102/474
f 401/102/474 390/92/511 317/86/477
f 124/20/250 196/9/313 130/8/208
f 124/20/250 130/8/208 63/23/104
f 57/31/17 69/18/42 58/35/22
f 57/31/17 63/23/104 69/18/42
f 101/36/206 63/23/104 57/31/17
f 101/36/206 124/20/250 63/23/104
f 93/49/146 58/35/22 97/48/147
f 93/49/146 57/31/17 58/35/22
f 101/36/206 57/31/17 93/49/146
f 167/50/259 101/36/206 93/49/146
f 212/66/252 97/48/147 248/68/293
f 212/66/252 93/49/146 97/48/147
f 212/66/252 210/62/269 93/49/146
f 210/62/269 167/50/259 93/49/146
f 273/72/385 248/68/293 331/82/461
f 273/72/385 212/66/252 248/68/293
f 276/77/348 212/66/252 273/72/385
f 276/77/348 210/62/269 212/66/252
f 390/92/511 273/72/385 331/82/461
f 379/88/456 273/72/385 390/92/511
f 276/77/348 273/72/385 379/88/456
f 323/85/367 276/77/348 379/88/456
f 439/98/569 390/92/511 441/103/590
f 439/98/569 379/88/456 390/92/511
f 394/97/438 379/88/456 439/98/569
f 394/97/438 323/85/367 379/88/456
f 445/111/574 441/103/590 446/110/579
f 445/111/574 439/98/569 441/103/590
f 394/97/438 439/98/569 445/111/574
f 393/112/429 394/97/438 445/111/574
f 405/129/505 446/110/579 399/132/493
f 405/129/505 445/111/574 446/110/579
f 393/112/429 445/111/574 405/129/505
f 351/127/407 393/112/429 405/129/505
f 313/142/389 399/132/493 310/146/374
f 313/142/389 405/129/505 399/132/493
f 311/139/371 405/129/505 313/142/389
f 211/159/271 313/142/389 310/146/374
f 211/159/271 310/146/374 233/158/283
f 211/159/271 233/158/283 132/173/172
f 130/172/208 211/159/271 132/173/172
f 130/172/208 221/155/311 211/159/271
f 63/23/104 130/8/208 69/18/42
f 69/18/42 130/8/208 132/3/172
f 130/172/208 196/167/313 221/155/311
f 221/155/311 313/142/389 211/159/271
f 221/155/311 311/139/371 313/142/389
f 311/139/371 351/127/407 405/129/505
f 178/164/267 115/170/183 230/152/292
f 115/170/183 216/153/248 230/152/292
f 115/4/183 178/7/267 94/22/184
f 53/19/33 115/4/183 94/22/184
f 44/30/10 53/19/33 49/32/39
f 44/30/10 46/25/58 53/19/33
f 49/32/39 94/22/184 91/38/177
f 49/32/39 53/19/33 94/22/184
f 235/157/278 338/143/414 337/141/363
f 235/157/278 337/141/363 216/153/248
f 355/126/357 433/124/516 414/114/468
f 408/131/496 462/113/582 433/124/516
f 409/134/467 462/113/582 408/131/496
f 235/157/278 239/154/281 338/143/414
f 239/154/281 325/140/382 338/143/414
f 122/171/152 216/153/248 115/170/183
f 122/171/152 235/157/278 216/153/248
f 239/154/281 235/157/278 122/171/152
f 182/168/239 239/154/281 122/171/152
f 46/25/58 122/2/152 53/19/33
f 53/19/33 122/2/152 115/4/183
f 95/17/195 182/5/239 122/2/152
f 95/17/195 122/2/152 46/25/58
f 90/34/155 46/25/58 44/30/10
f 90/34/155 95/17/195 46/25/58
f 325/140/382 409/134/467 338/143/414
f 325/140/382 356/133/361 409/134/467
f 137/54/113 153/44/149 70/42/84
f 70/42/84 90/34/155 44/30/10
f 153/44/149 90/34/155 70/42/84
f 137/54/113 70/42/84 98/47/126
f 176/55/209 153/44/149 137/54/113
f 70/42/84 49/32/39 98/47/126
f 70/42/84 44/30/10 49/32/39
f 158/46/229 98/47/126 91/38/177
f 98/47/126 49/32/39 91/38/177
f 328/87/390 279/75/364 391/90/465
f 338/143/414 409/134/467 408/131/496
f 338/143/414 408/131/496 337/141/363
f 337/141/363 408/131/496 329/137/386
f 408/131/496 433/124/516 355/126/357
f 329/137/386 408/131/496 355/126/357
f 216/153/248 337/141/363 230/152/292
f 337/141/363 329/137/386 230/152/292
f 462/113/582 459/101/561 452/95/583
f 416/99/447 459/101/561 462/113/582
f 415/120/411 416/99/447 462/113/582
f 356/133/361 415/120/411 409/134/467
f 415/120/411 462/113/582 409/134/467
f 462/113/582 452/95/583 433/124/516
f 383/84/466 342/83/351 410/94/428
f 452/95/583 383/84/466 410/94/428
f 433/124/516 452/95/583 414/114/468
f 452/95/583 410/94/428 414/114/468
f 459/101/561 391/90/465 383/84/466
f 459/101/561 383/84/466 452/95/583
f 416/99/447 328/87/390 391/90/465
f 416/99/447 391/90/465 459/101/561
f 391/90/465 303/74/383 383/84/466
f 383/84/466 303/74/383 270/70/326
f 383/84/466 270/70/326 342/83/351
f 256/69/306 137/54/113 184/58/222
f 176/55/209 137/54/113 256/69/306
f 279/75/364 176/55/209 256/69/306
f 279/75/364 256/69/306 391/90/465
f 391/90/465 256/69/306 303/74/383
f 256/69/306 184/58/222 303/74/383
f 98/47/126 158/46/229 191/56/215
f 184/58/222 98/47/126 191/56/215
f 137/54/113 98/47/126 184/58/222
f 303/74/383 184/58/222 270/70/326
f 184/58/222 191/56/215 270/70/326
f 334/353/396 426/338/502 364/336/391
f 324/364/358 426/338/502 334/353/396
f 324/364/358 334/353/396 217/387/276
f 179/400/181 324/364/358 217/387/276
f 171/415/137 179/400/181 217/387/276
f 99/422/114 179/400/181 171/415/137
f 85/202/173 99/184/114 171/187/137
f 39/201/37 99/184/114 85/202/173
f 33/216/47 85/202/173 77/218/191
f 33/216/47 39/201/37 85/202/173
f 74/232/122 77/218/191 143/233/224
f 74/232/122 33/216/47 77/218/191
f 174/245/234 74/232/122 143/233/224
f 157/251/240 74/232/122 174/245/234
f 157/251/240 174/245/234 275/274/316
f 271/267/360 157/251/240 275/274/316
f 389/291/427 275/274/316 345/290/342
f 389/291/427 271/267/360 275/274/316
f 389/291/427 345/290/342 418/304/412
f 460/306/546 389/291/427 418/304/412
f 475/320/592 418/304/412 431/323/441
f 475/320/592 460/306/546 418/304/412
f 426/338/502 475/320/592 431/323/441
f 426/338/502 431/323/441 364/336/391
f 88/231/142 33/216/47 74/232/122
f 88/231/142 35/213/25 33/216/47
f 82/215/205 35/213/25 88/231/142
f 150/230/255 82/215/205 88/231/142
f 161/249/190 74/232/122 157/251/240
f 161/249/190 88/231/142 74/232/122
f 177/244/272 88/231/142 161/249/190
f 177/244/272 150/230/255 88/231/142
f 281/271/322 157/251/240 271/267/360
f 281/271/322 161/249/190 157/251/240
f 177/244/272 161/249/190 281/271/322
f 296/279/349 177/244/272 281/271/322
f 384/296/446 271/267/360 389/291/427
f 384/296/446 281/271/322 271/267/360
f 384/296/446 296/279/349 281/271/322
f 340/294/350 296/279/349 384/296/446
f 460/306/546 384/296/446 389/291/427
f 458/312/559 384/296/446 460/306/546
f 458/312/559 413/307/395 384/296/446
f 413/307/395 340/294/350 384/296/446
f 475/320/592 458/312/559 460/306/546
f 466/325/534 458/312/559 475/320/592
f 413/307/395 458/312/559 466/325/534
f 422/329/409 413/307/395 466/325/534
f 421/345/490 475/320/592 426/338/502
f 421/345/490 466/325/534 475/320/592
f 422/329/409 466/325/534 421/345/490
f 358/344/362 422/329/409 421/345/490
f 347/366/413 426/338/502 324/364/358
f 347/366/413 421/345/490 426/338/502
f 326/357/353 421/345/490 347/366/413
f 326/357/353 358/344/362 421/345/490
f 227/393/244 324/364/358 179/400/181
f 227/393/244 347/366/413 324/364/358
f 237/399/279 347/366/413 227/393/244
f 237/399/279 326/357/353 347/366/413
f 99/422/114 227/393/244 179/400/181
f 116/427/179 227/393/244 99/422/114
f 237/399/279 227/393/244 116/427/179
f 173/421/242 237/399/279 116/427/179
f 43/200/85 99/184/114 39/201/37
f 43/200/85 116/182/179 99/184/114
f 92/196/216 116/182/179 43/200/85
f 92/196/216 173/185/242 116/182/179
f 35/213/25 43/200/85 39/201/37
f 35/213/25 39/201/37 33/216/47
f 82/215/205 92/196/216 43/200/85
f 82/215/205 43/200/85 35/213/25
f 344/600/400 434/589/501 400/577/553
f 314/591/405 344/600/400 400/577/553
f 400/577/553 472/572/596 435/567/610
f 434/589/501 472/572/596 400/577/553
f 472/572/596 463/558/580 435/567/610
f 435/567/610 463/558/580 428/551/598
f 463/558/580 403/544/460 371/538/495
f 428/551/598 463/558/580 371/538/495
f 371/538/495 282/529/335 265/524/323
f 403/544/460 282/529/335 371/538/495
f 282/529/335 201/508/241 265/524/323
f 282/529/335 168/514/228 201/508/241
f 168/514/228 107/500/81 201/508/241
f 168/514/228 67/501/129 107/500/81
f 31/480/8 66/484/3 107/500/81
f 67/501/129 31/480/8 107/500/81
f 31/480/8 75/473/6 66/484/3
f 31/480/8 42/468/48 75/473/6
f 42/468/48 136/458/136 75/473/6
f 42/468/48 102/451/169 136/458/136
f 242/439/287 250/446/295 136/458/136
f 102/451/169 242/439/287 136/458/136
f 242/612/287 314/591/405 250/604/295
f 242/612/287 344/600/400 314/591/405
f 314/591/405 400/577/553 404/580/536
f 314/591/405 404/580/536 312/595/404
f 400/577/553 435/567/610 456/563/604
f 400/577/553 456/563/604 404/580/536
f 435/567/610 428/551/598 456/563/604
f 456/563/604 428/551/598 440/552/591
f 428/551/598 371/538/495 440/552/591
f 371/538/495 377/541/489 440/552/591
f 371/538/495 265/524/323 272/526/347
f 371/538/495 272/526/347 377/541/489
f 265/524/323 201/508/241 193/510/221
f 265/524/323 193/510/221 272/526/347
f 201/508/241 107/500/81 193/510/221
f 193/510/221 107/500/81 103/504/93
f 107/500/81 66/484/3 52/482/5
f 107/500/81 52/482/5 103/504/93
f 66/484/3 75/473/6 52/482/5
f 75/473/6 61/472/29 52/482/5
f 75/473/6 136/458/136 61/472/29
f 136/458/136 128/455/132 61/472/29
f 136/458/136 250/446/295 251/441/261
f 136/458/136 251/441/261 128/455/132
f 250/604/295 314/591/405 312/595/404
f 251/605/261 250/604/295 312/595/404
f 312/595/404 392/579/528 307/593/394
f 312/595/404 404/580/536 392/579/528
f 404/580/536 443/569/609 392/579/528
f 404/580/536 456/563/604 443/569/609
f 456/563/604 440/552/591 443/569/609
f 443/569/609 440/552/591 442/554/602
f 442/554/602 378/539/503 363/535/481
f 442/554/602 363/535/481 419/546/550
f 440/552/591 378/539/503 442/554/602
f 440/552/591 377/541/489 378/539/503
f 378/539/503 291/528/352 262/523/337
f 378/539/503 262/523/337 363/535/481
f 377/541/489 291/528/352 378/539/503
f 377/541/489 272/526/347 291/528/352
f 291/528/352 186/505/219 200/507/225
f 291/528/352 200/507/225 262/523/337
f 272/526/347 186/505/219 291/528/352
f 272/526/347 193/510/221 186/505/219
f 186/505/219 105/503/87 200/507/225
f 200/507/225 105/503/87 121/502/116
f 193/510/221 103/504/93 186/505/219
f 186/505/219 103/504/93 105/503/87
f 105/503/87 59/490/9 79/487/11
f 105/503/87 79/487/11 121/502/116
f 103/504/93 59/490/9 105/503/87
f 103/504/93 52/482/5 59/490/9
f 59/490/9 54/478/4 79/487/11
f 54/478/4 89/475/34 79/487/11
f 59/490/9 52/482/5 54/478/4
f 52/482/5 61/472/29 54/478/4
f 54/478/4 119/459/106 89/475/34
f 89/475/34 119/459/106 138/465/144
f 61/472/29 119/459/106 54/478/4
f 61/472/29 128/455/132 119/459/106
f 119/459/106 229/444/265 138/465/144
f 229/444/265 244/450/274 138/465/144
f 128/455/132 251/441/261 119/459/106
f 119/459/106 251/441/261 229/444/265
f 229/608/265 307/593/394 308/588/356
f 229/608/265 308/588/356 244/599/274
f 251/605/261 307/593/394 229/608/265
f 251/605/261 312/595/404 307/593/394
f 442/554/602 419/546/550 427/559/575
f 443/569/609 442/554/602 427/559/575
f 307/593/394 392/579/528 374/574/510
f 307/593/394 374/574/510 308/588/356
f 374/574/510 443/569/609 427/559/575
f 392/579/528 443/569/609 374/574/510
f 489/553/334 491/525/345 501/533/543
f 491/525/345 503/518/508 501/533/543
f 406/578/318 489/553/334 488/568/369
f 396/587/343 406/578/318 488/568/369
f 489/553/334 501/533/543 497/547/518
f 488/568/369 489/553/334 497/547/518
f 350/583/403 430/557/458 406/578/318
f 406/578/318 430/557/458 489/553/334
f 430/557/458 479/519/483 491/525/345
f 430/557/458 491/525/345 489/553/334
f 487/562/387 453/542/381 357/565/341
f 487/562/387 496/545/480 453/542/381
f 453/542/381 500/532/537 483/515/442
f 496/545/480 500/532/537 453/542/381
f 488/568/369 497/547/518 487/562/387
f 497/547/518 496/545/480 487/562/387
f 396/587/343 488/568/369 487/562/387
f 396/587/343 487/562/387 395/584/336
f 501/533/543 503/518/508 502/517/565
f 500/532/537 501/533/543 502/517/565
f 497/547/518 501/533/543 500/532/537
f 496/545/480 497/547/518 500/532/537
f 181/611/303 406/578/318 396/587/343
f 181/611/303 396/587/343 224/610/312
f 224/610/312 396/587/343 395/584/336
f 224/610/312 395/584/336 223/606/310
f 395/584/336 487/562/387 357/565/341
f 500/532/537 502/517/565 483/515/442
f 6/262/86 14/257/285 10/236/100
f 14/257/285 22/217/294 10/236/100
f 22/217/294 181/188/303 41/203/291
f 181/188/303 224/178/312 41/203/291
f 10/236/100 22/217/294 12/220/157
f 22/217/294 41/203/291 12/220/157
f 104/221/204 181/188/303 22/217/294
f 104/221/204 236/197/262 181/188/303
f 30/259/89 104/221/204 14/257/285
f 14/257/285 104/221/204 22/217/294
f 84/241/263 40/204/290 226/219/297
f 11/222/186 40/204/290 84/241/263
f 9/239/105 11/222/186 84/241/263
f 9/239/105 84/241/263 27/280/220
f 11/222/186 12/220/157 40/204/290
f 12/220/157 41/203/291 40/204/290
f 41/203/291 224/178/312 40/204/290
f 40/204/290 224/178/312 223/186/310
f 6/262/86 10/236/100 5/275/24
f 10/236/100 9/239/105 5/275/24
f 10/236/100 12/220/157 9/239/105
f 12/220/157 11/222/186 9/239/105
f 236/602/262 406/578/318 181/611/303
f 236/602/262 350/583/403 406/578/318
f 499/494/571 490/491/338 495/477/526
f 490/491/338 481/464/325 495/477/526
f 481/464/325 332/437/315 465/445/328
f 332/437/315 295/434/307 465/445/328
f 495/477/526 481/464/325 493/463/475
f 481/464/325 465/445/328 493/463/475
f 398/466/416 298/438/372 481/464/325
f 298/438/372 332/437/315 481/464/325
f 467/496/540 398/466/416 490/491/338
f 490/491/338 398/466/416 481/464/325
f 425/457/359 464/443/329 292/436/320
f 492/462/444 464/443/329 425/457/359
f 494/474/523 492/462/444 425/457/359
f 494/474/523 425/457/359 478/488/408
f 492/462/444 493/463/475 464/443/329
f 493/463/475 465/445/328 464/443/329
f 465/445/328 295/434/307 464/443/329
f 464/443/329 295/434/307 294/433/305
f 499/494/571 495/477/526 498/492/567
f 495/477/526 494/474/523 498/492/567
f 495/477/526 493/463/475 494/474/523
f 493/463/475 492/462/444 494/474/523
f 502/517/565 499/494/571 498/492/567
f 503/518/508 499/494/571 502/517/565
f 491/525/345 490/491/338 503/518/508
f 503/518/508 490/491/338 499/494/571
f 479/519/483 467/496/540 490/491/338
f 491/525/345 479/519/483 490/491/338
f 332/437/315 96/383/299 295/434/307
f 96/383/299 110/397/277 295/434/307
f 164/388/243 96/383/299 332/437/315
f 298/438/372 164/388/243 332/437/315
f 295/434/307 110/397/277 294/433/305
f 110/397/277 109/402/286 294/433/305
f 15/335/289 13/302/280 4/319/82
f 13/302/280 2/298/80 4/319/82
f 96/383/299 15/335/289 17/360/257
f 110/397/277 96/383/299 17/360/257
f 15/335/289 4/319/82 8/337/110
f 17/360/257 15/335/289 8/337/110
f 164/388/243 68/334/211 96/383/299
f 96/383/299 68/334/211 15/335/289
f 68/334/211 25/297/120 13/302/280
f 68/334/211 13/302/280 15/335/289
f 16/363/246 51/347/254 154/392/284
f 16/363/246 7/339/156 51/347/254
f 51/347/254 3/321/88 20/316/187
f 7/339/156 3/321/88 51/347/254
f 17/360/257 8/337/110 16/363/246
f 8/337/110 7/339/156 16/363/246
f 110/397/277 17/360/257 16/363/246
f 110/397/277 16/363/246 109/402/286
f 4/319/82 2/298/80 1/299/83
f 3/321/88 4/319/82 1/299/83
f 8/337/110 4/319/82 3/321/88
f 7/339/156 8/337/110 3/321/88
f 2/298/80 5/275/24 1/299/83
f 2/298/80 6/262/86 5/275/24
f 13/302/280 14/257/285 2/298/80
f 14/257/285 6/262/86 2/298/80
f 25/297/120 14/257/285 13/302/280
f 25/297/120 30/259/89 14/257/285
f 109/402/286 16/363/246 154/392/284
f 3/321/88 1/299/83 20/316/187
f 40/204/290 223/186/310 226/219/297
f 223/606/310 395/584/336 357/565/341
f 223/606/310 357/565/341 226/586/297
f 5/275/24 9/239/105 27/280/220
f 1/299/83 27/280/220 20/316/187
f 1/299/83 5/275/24 27/280/220
f 294/433/305 109/402/286 154/392/284
f 294/433/305 154/392/284 292/436/320
f 464/443/329 294/433/305 292/436/320
f 498/492/567 494/474/523 478/488/408
f 483/515/442 502/517/565 478/488/408
f 502/517/565 498/492/567 478/488/408
f 344/561/400 357/565/341 434/540/501
f 357/565/341 453/542/381 434/540/501
f 434/540/501 483/515/442 472/512/596
f 453/542/381 483/515/442 434/540/501
f 472/512/596 483/515/442 463/489/580
f 483/515/442 478/488/408 463/489/580
f 463/489/580 478/488/408 403/456/460
f 478/488/408 425/457/359 403/456/460
f 403/456/460 292/436/320 282/435/335
f 425/457/359 292/436/320 403/456/460
f 292/436/320 168/396/228 282/435/335
f 292/436/320 154/392/284 168/396/228
f 154/392/284 67/348/129 168/396/228
f 154/392/284 51/347/254 67/348/129
f 20/316/187 31/317/8 67/348/129
f 51/347/254 20/316/187 67/348/129
f 20/316/187 42/283/48 31/317/8
f 20/316/187 27/280/220 42/283/48
f 27/280/220 102/246/169 42/283/48
f 27/280/220 84/241/263 102/246/169
f 226/219/297 242/223/287 102/246/169
f 84/241/263 226/219/297 102/246/169
f 226/586/297 344/561/400 242/581/287
f 226/586/297 357/565/341 344/561/400
f 156/243/210 87/227/125 164/248/243
f 164/248/243 87/227/125 68/228/211
f 180/242/264 145/226/232 87/227/125
f 156/243/210 180/242/264 87/227/125
f 87/227/125 34/209/53 25/207/120
f 87/227/125 25/207/120 68/228/211
f 145/226/232 73/212/198 87/227/125
f 73/212/198 34/209/53 87/227/125
f 34/209/53 36/198/78 30/190/89
f 34/209/53 30/190/89 25/207/120
f 73/212/198 83/199/193 34/209/53
f 83/199/193 36/198/78 34/209/53
f 36/198/78 120/179/153 104/177/204
f 30/190/89 36/198/78 104/177/204
f 83/199/193 165/183/202 120/179/153
f 83/199/193 120/179/153 36/198/78
f 120/424/153 234/389/268 236/395/262
f 120/424/153 236/395/262 104/429/204
f 165/420/202 228/390/249 120/424/153
f 228/390/249 234/389/268 120/424/153
f 234/389/268 350/367/403 236/395/262
f 234/389/268 333/365/366 350/367/403
f 228/390/249 318/361/378 333/365/366
f 228/390/249 333/365/366 234/389/268
f 333/365/366 424/343/487 350/367/403
f 350/367/403 424/343/487 430/342/458
f 318/361/378 368/341/392 424/343/487
f 333/365/366 318/361/378 424/343/487
f 424/343/487 473/324/589 430/342/458
f 473/324/589 479/322/483 430/342/458
f 368/341/392 429/328/445 424/343/487
f 424/343/487 429/328/445 473/324/589
f 473/324/589 447/305/529 467/309/540
f 479/322/483 473/324/589 467/309/540
f 429/328/445 417/303/418 473/324/589
f 473/324/589 417/303/418 447/305/529
f 278/265/331 164/248/243 298/269/372
f 278/265/331 156/243/210 164/248/243
f 180/242/264 156/243/210 278/265/331
f 287/268/355 180/242/264 278/265/331
f 447/305/529 372/284/440 467/309/540
f 372/284/440 398/288/416 467/309/540
f 398/288/416 372/284/440 298/269/372
f 372/284/440 278/265/331 298/269/372
f 417/303/418 346/287/321 372/284/440
f 447/305/529 417/303/418 372/284/440
f 372/284/440 287/268/355 278/265/331
f 346/287/321 287/268/355 372/284/440
f 427/253/575 419/266/550 359/270/430
f 419/266/550 363/292/481 315/281/375
f 363/292/481 262/301/337 260/286/324
f 315/281/375 363/292/481 260/286/324
f 262/301/337 200/311/225 238/295/282
f 262/301/337 238/295/282 260/286/324
f 200/311/225 121/300/116 238/295/282
f 121/300/116 79/289/11 144/282/154
f 121/300/116 144/282/154 170/285/270
f 79/289/11 89/278/34 148/272/165
f 89/278/34 138/256/144 148/272/165
f 138/256/144 244/237/274 198/261/251
f 244/237/274 253/255/304 198/261/251
f 253/255/304 285/252/344 238/295/282
f 285/252/344 260/286/324 238/295/282
f 343/254/397 359/270/430 315/281/375
f 343/254/397 366/260/448 359/270/430
f 170/285/270 253/255/304 238/295/282
f 198/261/251 253/255/304 170/285/270
f 148/272/165 198/261/251 170/285/270
f 144/282/154 148/272/165 170/285/270
f 343/254/397 427/253/575 366/260/448
f 285/252/344 374/235/510 343/254/397
f 285/252/344 315/281/375 260/286/324
f 285/252/344 343/254/397 315/281/375
f 308/234/356 374/235/510 285/252/344
f 308/234/356 285/252/344 253/255/304
f 244/237/274 308/234/356 253/255/304
f 374/235/510 427/253/575 343/254/397
f 359/270/430 419/266/550 315/281/375
f 366/260/448 427/253/575 359/270/430
f 138/256/144 198/261/251 148/272/165
f 79/289/11 148/272/165 144/282/154
f 121/300/116 170/285/270 238/295/282
