####
#
#	OBJ File Generated by LightWave3D
#	LightWave3D OBJ Export v2.3
#
####
o jims_kendostick_1hhull.obj
mtllib jims_kendostick_1hhull.mtl
g default
v -0.0418048 0.0718747 -0.00439386
v -0.0418048 0.0812554 -0.00439386
v -0.0401809 0.074173 0.0325379
v -0.0401809 0.0789572 0.0325379
v -0.0325379 0.074173 -0.0401809
v -0.0325379 0.0789572 -0.0401809
v -0.0200985 0.0677195 -0.00211243
v -0.0200985 0.0852699 -0.00211243
v -0.0170234 0.848006 -0.00178923
v -0.0157055 0.0677195 0.0127181
v -0.0157055 0.0852699 0.0127181
v -0.0156286 -0.158284 -0.00164263
v -0.0133025 0.848006 0.0107722
v -0.0127181 0.0677195 -0.0157055
v -0.0127181 0.0852699 -0.0157055
v -0.0122126 -0.158284 0.00988956
v -0.0119738 0.860713 -0.0012585
v -0.0107722 0.848006 -0.0133025
v -0.00988956 -0.158284 -0.0122126
v -0.00937715 -0.1646 -0.000985577
v -0.00935667 0.860713 0.00757688
v -0.00858242 0.590137 -0
v -0.00858242 0.607302 -0
v -0.00757688 0.860713 -0.00935666
v -0.00732755 -0.1646 0.00593373
v -0.00593373 -0.1646 -0.00732755
v -0.00439386 0.0718747 0.0418048
v -0.00439386 0.0812554 0.0418048
v -0.00211243 0.0677195 0.0200985
v -0.00211243 0.0852699 0.0200985
v -0.00178923 0.848006 0.0170234
v -0.00164263 -0.158284 0.0156286
v -0.0012585 0.860713 0.0119738
v -0.000985578 -0.1646 0.00937715
v 0.000985578 -0.1646 -0.00937715
v 0.0012585 0.860713 -0.0119738
v 0.00164263 -0.158284 -0.0156286
v 0.00178923 0.848006 -0.0170234
v 0.00211244 0.0677195 -0.0200985
v 0.00211244 0.0852699 -0.0200985
v 0.00439386 0.0718747 -0.0418048
v 0.00439386 0.0812554 -0.0418048
v 0.00593373 -0.1646 0.00732755
v 0.00732755 -0.1646 -0.00593373
v 0.00757688 0.860713 0.00935667
v 0.00858242 0.590137 -0
v 0.00935667 0.860713 -0.00757688
v 0.00937715 -0.1646 0.000985578
v 0.00988956 -0.158284 0.0122126
v 0.0107722 0.848006 0.0133025
v 0.0119738 0.860713 0.0012585
v 0.0122126 -0.158284 -0.00988956
v 0.0127181 0.0677195 0.0157055
v 0.0127181 0.0852699 0.0157055
v 0.0133025 0.848006 -0.0107722
v 0.0156286 -0.158284 0.00164263
v 0.0157055 0.0677195 -0.012718
v 0.0157055 0.0852699 -0.012718
v 0.0170234 0.848006 0.00178923
v 0.0200985 0.0677195 0.00211244
v 0.0200985 0.0852699 0.00211244
v 0.0325379 0.074173 0.0401809
v 0.0325379 0.0789572 0.0401809
v 0.0401809 0.074173 -0.0325379
v 0.0401809 0.0789572 -0.0325379
v 0.0418048 0.0718747 0.00439387
v 0.0418048 0.0812554 0.00439387
vn -0.962035 0.253504 -0.101114
vn -0.894034 0.438033 -0.0939668
vn -0.889666 -0.446934 -0.0935077
vn -0.882987 -0.468526 -0.0286062
vn -0.770627 0.129249 0.624042
vn -0.73577 0.563688 0.375364
vn -0.711553 0.698641 -0.0747873
vn -0.699836 -0.344042 0.625991
vn -0.688376 -0.72397 -0.0447963
vn -0.680017 0.726469 -0.0990889
vn -0.642136 -0.562178 -0.521169
vn -0.625991 -0.344041 -0.699836
vn -0.624042 0.129249 -0.770627
vn -0.556027 0.698641 0.450261
vn -0.545743 -0.827061 -0.134666
vn -0.521169 -0.562178 0.642136
vn -0.429681 -0.83325 0.347949
vn -0.42923 0.833635 0.347583
vn -0.390286 0.784467 -0.481963
vn -0.389484 -0.890467 0.235312
vn -0.375364 0.563688 -0.73577
vn -0.347949 -0.83325 -0.429681
vn -0.347583 0.833635 -0.42923
vn -0.167137 -0.946327 -0.276642
vn -0.109016 -0.890467 0.441797
vn -0.101114 0.253504 0.962035
vn -0.0990889 0.726469 0.680017
vn -0.0939668 0.438033 0.894034
vn -0.0935077 -0.446934 0.889666
vn -0.0447963 -0.72397 0.688376
vn -0.0362197 0.938048 0.344608
vn -0.0286062 -0.468526 0.882987
vn 0 0 -1
vn 0.0286062 -0.468525 -0.882987
vn 0.0447963 -0.72397 -0.688375
vn 0.0565808 0.840833 -0.53833
vn 0.0935077 -0.446934 -0.889666
vn 0.0939668 0.438033 -0.894034
vn 0.0990889 0.726469 -0.680017
vn 0.101114 0.253504 -0.962035
vn 0.109016 -0.890467 -0.441797
vn 0.167137 -0.946327 0.276642
vn 0.347583 0.833635 0.42923
vn 0.347949 -0.83325 0.429681
vn 0.375364 0.563688 0.73577
vn 0.389484 -0.890466 -0.235312
vn 0.42923 0.833635 -0.347583
vn 0.429681 -0.83325 -0.347949
vn 0.450261 0.698641 0.556027
vn 0.481963 0.784467 -0.390286
vn 0.521169 -0.562178 -0.642136
vn 0.545743 -0.827061 0.134666
vn 0.624042 0.129249 0.770627
vn 0.625991 -0.344042 0.699836
vn 0.642136 -0.562178 0.521169
vn 0.680017 0.726469 0.0990889
vn 0.688375 -0.72397 0.0447963
vn 0.699836 -0.344042 -0.625991
vn 0.711553 0.698641 0.0747872
vn 0.73577 0.563688 -0.375364
vn 0.770627 0.129249 -0.624042
vn 0.882987 -0.468526 0.0286062
vn 0.889666 -0.446934 0.0935077
vn 0.894034 0.438033 0.0939668
vn 0.962035 0.253504 0.101114
g group_Default
usemtl Default
s off
f 24//19 17//7 21//14
f 24//19 21//14 33//31
f 36//36 24//19 33//31
f 47//50 36//36 33//31
f 51//59 47//50 45//49
f 45//49 47//50 33//31
f 58//47 61//64 67//56
f 58//47 67//56 65//60
f 61//64 54//43 67//56
f 67//56 54//43 63//45
f 54//43 30//28 28//27
f 54//43 28//27 63//45
f 42//39 58//47 65//60
f 40//38 58//47 42//39
f 30//28 11//18 28//27
f 28//27 11//18 4//6
f 15//23 42//39 6//21
f 15//23 40//38 42//39
f 11//18 8//2 2//10
f 11//18 2//10 4//6
f 8//2 15//23 2//10
f 2//10 15//23 6//21
f 64//51 66//57 57//48
f 57//48 66//57 60//63
f 66//57 62//55 53//44
f 60//63 66//57 53//44
f 62//55 27//30 53//44
f 53//44 27//30 29//29
f 39//37 41//35 57//48
f 41//35 64//51 57//48
f 27//30 3//16 10//17
f 27//30 10//17 29//29
f 41//35 39//37 14//22
f 5//11 41//35 14//22
f 1//9 7//3 10//17
f 3//16 1//9 10//17
f 1//9 5//11 14//22
f 1//9 14//22 7//3
f 64//51 65//60 66//57
f 65//60 67//56 66//57
f 67//56 62//55 66//57
f 67//56 63//45 62//55
f 62//55 63//45 27//30
f 63//45 28//27 27//30
f 42//39 64//51 41//35
f 42//39 65//60 64//51
f 28//27 3//16 27//30
f 28//27 4//6 3//16
f 5//11 6//21 41//35
f 6//21 42//39 41//35
f 3//16 4//6 1//9
f 4//6 2//10 1//9
f 2//10 5//11 1//9
f 2//10 6//21 5//11
f 60//63 53//44 49//54
f 56//62 60//63 49//54
f 52//58 60//63 56//62
f 57//48 60//63 52//58
f 39//37 57//48 52//58
f 37//34 39//37 52//58
f 39//37 37//34 19//12
f 14//22 39//37 19//12
f 7//3 19//12 12//4
f 7//3 14//22 19//12
f 7//3 12//4 16//8
f 10//17 7//3 16//8
f 29//29 16//8 32//32
f 29//29 10//17 16//8
f 49//54 29//29 32//32
f 53//44 29//29 49//54
f 55//61 59//65 61//64
f 58//47 55//61 61//64
f 59//65 50//53 61//64
f 61//64 50//53 54//43
f 50//53 31//26 30//28
f 54//43 50//53 30//28
f 13//5 11//18 30//28
f 31//26 13//5 30//28
f 13//5 8//2 11//18
f 13//5 9//1 8//2
f 18//13 15//23 8//2
f 9//1 18//13 8//2
f 18//13 40//38 15//23
f 18//13 38//40 40//38
f 40//38 55//61 58//47
f 38//40 55//61 40//38
f 55//61 47//50 59//65
f 47//50 51//59 59//65
f 59//65 45//49 50//53
f 51//59 45//49 59//65
f 45//49 33//31 31//26
f 50//53 45//49 31//26
f 21//14 13//5 31//26
f 33//31 21//14 31//26
f 21//14 17//7 9//1
f 21//14 9//1 13//5
f 17//7 24//19 9//1
f 24//19 18//13 9//1
f 24//19 38//40 18//13
f 24//19 36//36 38//40
f 38//40 47//50 55//61
f 36//36 47//50 38//40
f 56//62 49//54 48//52
f 48//52 49//54 43//42
f 52//58 56//62 44//46
f 44//46 56//62 48//52
f 37//34 52//58 35//41
f 35//41 52//58 44//46
f 19//12 37//34 26//24
f 37//34 35//41 26//24
f 12//4 19//12 20//15
f 19//12 26//24 20//15
f 16//8 12//4 25//20
f 12//4 20//15 25//20
f 32//32 16//8 34//25
f 16//8 25//20 34//25
f 49//54 32//32 43//42
f 43//42 32//32 34//25
f 26//24 43//42 34//25
f 26//24 35//41 43//42
f 25//20 26//24 34//25
f 20//15 26//24 25//20
f 35//41 44//46 43//42
f 44//46 48//52 43//42
g group_Default
usemtl Default
s 1
f 22//33 23//33 46//33
