# Blender v2.92.0 OBJ File: 'kenney_OGConvert.blend'
# www.blender.org
o astronautA
v 0.130000 0.136866 -0.010696
v 0.130000 0.340000 0.055796
v 0.130000 0.311118 -0.055796
v 0.130000 0.165748 0.100896
v 0.181592 0.165748 0.100896
v 0.181592 0.136866 -0.010696
v 0.241592 0.194952 -0.025730
v 0.241592 0.311118 -0.055796
v 0.241592 0.223834 0.085862
v 0.241592 0.340000 0.055796
v 0.130000 0.473184 -0.055796
v 0.185796 0.473184 0.055796
v 0.185796 0.473184 -0.055796
v 0.130000 0.473184 0.055796
v 0.241592 0.417388 -0.055796
v 0.241592 0.417388 0.055796
v -0.130000 0.340000 0.055796
v -0.130000 0.136866 -0.010696
v -0.130000 0.311118 -0.055796
v -0.130000 0.165748 0.100896
v -0.181592 0.136866 -0.010696
v -0.241592 0.194952 -0.025730
v -0.241592 0.311118 -0.055796
v -0.241592 0.223834 0.085862
v -0.181592 0.165748 0.100896
v -0.241592 0.340000 0.055796
v -0.130000 0.473184 0.055796
v -0.241592 0.417388 0.055796
v -0.185796 0.473184 0.055796
v -0.241592 0.417388 -0.055796
v -0.130000 0.473184 -0.055796
v -0.185796 0.473184 -0.055796
v -0.130000 0.223184 0.100000
v 0.130000 0.223184 -0.100000
v 0.130000 0.223184 0.100000
v -0.130000 0.223184 -0.100000
v 0.130000 0.284202 0.100000
v -0.130000 0.284202 0.100000
v 0.030000 0.284202 0.100000
v -0.030000 0.284202 0.100000
v -0.130000 0.284202 -0.100000
v 0.130000 0.284202 -0.100000
v -0.100000 0.284202 -0.100000
v 0.100000 0.284202 -0.100000
v 0.130000 0.284202 -0.000000
v -0.130000 0.284202 0.000000
v 0.030000 0.383184 0.130000
v 0.030000 0.433184 0.100000
v 0.030000 0.433184 0.130000
v -0.030000 0.433184 0.130000
v -0.030000 0.433184 0.100000
v -0.030000 0.383184 0.130000
v 0.100000 0.284202 -0.150000
v -0.100000 0.284202 -0.150000
v -0.100000 0.334202 -0.200000
v 0.100000 0.334202 -0.200000
v -0.100000 0.533184 -0.200000
v 0.100000 0.533184 -0.200000
v 0.130000 0.383184 0.130000
v 0.130000 0.383184 -0.000000
v -0.130000 0.383184 0.130000
v -0.100000 0.533184 -0.100000
v -0.100000 0.483184 -0.100000
v 0.100000 0.533184 -0.100000
v 0.100000 0.483184 -0.100000
v -0.130000 0.383184 0.000000
v 0.130000 0.483184 0.130000
v -0.130000 0.483184 0.130000
v 0.130000 0.483184 -0.100000
v -0.130000 0.483184 -0.100000
v 0.130000 0.483184 -0.130000
v -0.130000 0.483184 -0.130000
v 0.130000 0.588184 0.065000
v 0.130000 0.543184 0.020000
v 0.130000 0.588184 0.020000
v 0.130000 0.543184 -0.020000
v 0.130000 0.568184 -0.020000
v 0.130000 0.568184 -0.130000
v 0.130000 0.678184 0.130000
v 0.130000 0.678184 0.065000
v -0.130000 0.568184 -0.130000
v -0.130000 0.543184 -0.020000
v -0.130000 0.543184 0.020000
v -0.130000 0.588184 0.020000
v -0.130000 0.588184 0.065000
v -0.130000 0.678184 0.065000
v -0.130000 0.678184 0.130000
v -0.130000 0.568184 -0.020000
v 0.190000 0.621934 0.020000
v 0.190000 0.554434 -0.020000
v 0.190000 0.621934 -0.020000
v 0.190000 0.554434 0.020000
v 0.130000 0.633184 -0.020000
v 0.130000 0.633184 0.020000
v -0.190000 0.621934 -0.020000
v -0.130000 0.633184 0.020000
v -0.130000 0.633184 -0.020000
v -0.190000 0.621934 0.020000
v -0.190000 0.554434 0.020000
v -0.190000 0.554434 -0.020000
v 0.034830 0.514051 0.130000
v 0.092483 0.565843 0.130000
v 0.034830 0.538326 0.130000
v -0.034831 0.538326 0.130000
v 0.092483 0.625979 0.130000
v 0.032347 0.625979 0.130000
v -0.032347 0.625979 0.130000
v -0.092483 0.625979 0.130000
v -0.034831 0.514051 0.130000
v -0.092483 0.565843 0.130000
v 0.032347 0.565843 0.130000
v -0.032347 0.565843 0.130000
v 0.130000 0.743184 0.000000
v 0.130000 0.743184 -0.130000
v 0.130000 0.743184 0.130000
v -0.130000 0.743184 -0.130000
v -0.130000 0.743184 0.000000
v -0.104000 0.793184 0.050000
v 0.104000 0.793184 0.130000
v 0.104000 0.793184 0.050000
v -0.104000 0.793184 0.130000
v -0.130000 0.743184 0.130000
v 0.130000 0.223184 0.055796
v 0.130000 0.128834 -0.054251
v 0.130000 0.223184 -0.055796
v 0.130000 0.128834 0.065796
v 0.018408 0.128834 0.065796
v 0.018408 0.223184 0.055796
v 0.018408 0.223184 -0.055796
v 0.018408 0.128834 -0.054251
v 0.130000 0.068968 0.100000
v 0.018408 -0.000000 0.100000
v 0.130000 -0.000000 0.100000
v 0.018408 0.068968 0.100000
v 0.130000 0.034484 -0.072706
v 0.018408 0.034484 -0.072706
v 0.130000 0.000000 -0.075796
v 0.018408 0.000000 -0.075796
v 0.018408 0.068968 0.055796
v 0.130000 0.068968 0.055796
v -0.018408 0.128834 0.065796
v -0.130000 0.068968 0.055796
v -0.018408 0.068968 0.055796
v -0.130000 0.128834 0.065796
v -0.018408 0.068968 0.100000
v -0.130000 0.000000 0.100000
v -0.018408 0.000000 0.100000
v -0.130000 0.068968 0.100000
v -0.130000 0.034484 -0.072706
v -0.018408 0.000000 -0.075796
v -0.130000 0.000000 -0.075796
v -0.018408 0.034484 -0.072706
v -0.130000 0.128834 -0.054251
v -0.018408 0.128834 -0.054251
v -0.130000 0.223184 -0.055796
v -0.018408 0.223184 0.055796
v -0.018408 0.223184 -0.055796
v -0.130000 0.223184 0.055796
vt 0.721673 0.411087
vt 0.785346 0.538941
vt 0.708754 0.530671
vt 0.798265 0.419356
vt 0.976640 0.081437
vt 0.942160 0.005977
vt 0.976640 0.005977
vt 0.942160 0.081437
vt 0.884798 0.527859
vt 0.850318 0.411087
vt 0.884798 0.411087
vt 0.810218 0.450012
vt 0.810218 0.527858
vt 0.091179 0.722995
vt 0.018987 0.770480
vt 0.014587 0.731262
vt 0.095579 0.762213
vt 0.838197 0.816453
vt 0.912777 0.855288
vt 0.878296 0.855288
vt 0.912777 0.738787
vt 0.838197 0.738787
vt 0.082569 0.643273
vt 0.005977 0.651540
vt 0.619676 0.695665
vt 0.556004 0.823519
vt 0.543084 0.703935
vt 0.632596 0.815250
vt 0.850399 0.231056
vt 0.884879 0.114284
vt 0.884879 0.231056
vt 0.810299 0.192131
vt 0.810299 0.114284
vt 0.721754 0.005977
vt 0.793946 0.053462
vt 0.717354 0.045195
vt 0.798346 0.014244
vt 0.942160 0.168851
vt 0.976640 0.093390
vt 0.976640 0.168851
vt 0.942160 0.093390
vt 0.451995 0.874400
vt 0.417515 0.757900
vt 0.451995 0.757900
vt 0.377415 0.796735
vt 0.377415 0.874400
vt 0.785336 0.133184
vt 0.708744 0.124917
vt 0.644549 0.968605
vt 0.690642 0.894024
vt 0.690642 0.968605
vt 0.644549 0.894024
vt 0.837804 0.313057
vt 0.912384 0.375979
vt 0.837804 0.375979
vt 0.912384 0.313057
vt 0.912384 0.399002
vt 0.837804 0.399002
vt 0.309186 0.630454
vt 0.193761 0.653498
vt 0.191696 0.630454
vt 0.206095 0.716547
vt 0.279643 0.676541
vt 0.309186 0.676541
vt 0.286326 0.716547
vt 0.708754 0.873937
vt 0.783334 0.913938
vt 0.708754 0.913938
vt 0.783334 0.873937
vt 0.949483 0.411087
vt 0.979026 0.485667
vt 0.949483 0.485667
vt 0.979026 0.411087
vt 0.400275 0.682898
vt 0.406958 0.642893
vt 0.480506 0.682898
vt 0.377415 0.596806
vt 0.492840 0.619849
vt 0.494905 0.596806
vt 0.377415 0.642893
vt 0.543084 0.898539
vt 0.617665 0.938540
vt 0.543084 0.938540
vt 0.617665 0.898539
vt 0.970430 0.249992
vt 0.924337 0.324573
vt 0.924337 0.249992
vt 0.970430 0.324573
vt 0.005977 0.908420
vt 0.080557 0.931443
vt 0.005977 0.931443
vt 0.080557 0.908420
vt 0.005977 0.845498
vt 0.080557 0.845498
vt 0.825850 0.249992
vt 0.710426 0.273036
vt 0.708361 0.249992
vt 0.722760 0.336085
vt 0.796308 0.296079
vt 0.825850 0.296079
vt 0.802991 0.336085
vt 0.731613 0.735869
vt 0.738296 0.695864
vt 0.811844 0.735869
vt 0.708754 0.649777
vt 0.824178 0.672820
vt 0.826243 0.649777
vt 0.708754 0.695864
vt 0.979025 0.572200
vt 0.949483 0.497620
vt 0.979025 0.497620
vt 0.949483 0.572200
vt 0.962020 0.649777
vt 0.924730 0.724357
vt 0.924730 0.649777
vt 0.962020 0.724357
vt 0.095579 0.554617
vt 0.016287 0.581278
vt 0.021789 0.543789
vt 0.090077 0.592107
vt 0.719054 0.195178
vt 0.798346 0.221840
vt 0.724556 0.232668
vt 0.792845 0.184350
vt 0.924730 0.736310
vt 0.962020 0.810891
vt 0.924730 0.810891
vt 0.962020 0.736310
vt 0.543084 0.518005
vt 0.629967 0.451861
vt 0.629967 0.518005
vt 0.563134 0.451861
vt 0.644549 0.782502
vt 0.684649 0.882071
vt 0.644549 0.882071
vt 0.684649 0.782502
vt 0.072810 0.072101
vt 0.005977 0.005977
vt 0.072810 0.005977
vt 0.005977 0.072101
vt 0.179743 0.072101
vt 0.112910 0.005977
vt 0.179743 0.005977
vt 0.112910 0.072101
vt 0.140949 0.888503
vt 0.174365 0.722122
vt 0.174365 0.855091
vt 0.107532 0.722122
vt 0.107532 0.888503
vt 0.377415 0.191696
vt 0.377415 0.200107
vt 0.377415 0.193385
vt 0.107532 0.710169
vt 0.174365 0.577201
vt 0.174365 0.710169
vt 0.140949 0.543789
vt 0.107532 0.543789
vt 0.389368 0.212060
vt 0.389368 0.212060
vt 0.389368 0.212060
vt 0.463948 0.757900
vt 0.530782 0.891566
vt 0.463948 0.891566
vt 0.530782 0.757900
vt 0.354555 0.630454
vt 0.321139 0.764120
vt 0.321139 0.630454
vt 0.354555 0.764120
vt 0.325362 0.485533
vt 0.258529 0.551677
vt 0.258529 0.485533
vt 0.345412 0.551677
vt 0.191696 0.908888
vt 0.266276 0.791548
vt 0.266276 0.908888
vt 0.191696 0.791548
vt 0.278229 0.908888
vt 0.352810 0.791548
vt 0.352810 0.908888
vt 0.278229 0.791548
vt 0.838197 0.687067
vt 0.912777 0.649777
vt 0.875487 0.649777
vt 0.884798 0.636166
vt 0.810218 0.598878
vt 0.847508 0.636166
vt 0.798265 0.626997
vt 0.724474 0.637823
vt 0.451995 0.963411
vt 0.377415 0.926121
vt 0.414705 0.963411
vt 0.810299 0.043265
vt 0.884879 0.005977
vt 0.847589 0.005977
vt 0.632596 0.607609
vt 0.558805 0.596783
vt 0.179743 0.138934
vt 0.112910 0.105517
vt 0.072810 0.105517
vt 0.005977 0.138934
vt 0.531131 0.431136
vt 0.377415 0.411086
vt 0.531131 0.411086
vt 0.377415 0.584853
vt 0.531131 0.564802
vt 0.531131 0.584853
vt 0.511081 0.596806
vt 0.531131 0.729784
vt 0.511081 0.729784
vt 0.531131 0.596806
vt 0.795287 0.810871
vt 0.815337 0.943849
vt 0.795287 0.943849
vt 0.815337 0.810871
vt 0.191696 0.618501
vt 0.191696 0.485533
vt 0.345412 0.618501
vt 0.696800 0.584830
vt 0.696800 0.451861
vt 0.543084 0.584830
vt 0.562912 0.225367
vt 0.696407 0.399133
vt 0.562912 0.399133
vt 0.696407 0.225367
vt 0.685329 0.596783
vt 0.644549 0.770549
vt 0.644549 0.596783
vt 0.685329 0.770549
vt 0.364763 0.791548
vt 0.364763 0.965314
vt 0.364763 0.898481
vt 0.364763 0.858382
vt 0.937529 0.411086
vt 0.896752 0.584853
vt 0.896752 0.411086
vt 0.937529 0.584853
vt 0.377415 0.213414
vt 0.377415 0.213414
vt 0.377415 0.213414
vt 0.896833 0.159693
vt 0.896833 0.005977
vt 0.896833 0.139643
vt 0.696800 0.411087
vt 0.563134 0.411087
vt 0.325362 0.444758
vt 0.191696 0.444758
vt 0.994023 0.715921
vt 0.973973 0.749333
vt 0.973973 0.649777
vt 0.994023 0.749333
vt 0.973973 0.860842
vt 0.994023 0.761286
vt 0.994023 0.860842
vt 0.973973 0.827430
vt 0.942160 0.180804
vt 0.962184 0.220904
vt 0.942160 0.220904
vt 0.962184 0.180804
vt 0.930207 0.139643
vt 0.930207 0.005977
vt 0.563124 0.138955
vt 0.696790 0.172725
vt 0.563124 0.172725
vt 0.696790 0.138955
vt 0.563124 0.005977
vt 0.696790 0.005977
vt 0.406958 0.745947
vt 0.481538 0.745947
vt 0.708753 0.810871
vt 0.783334 0.810871
vt 0.912777 0.867241
vt 0.838197 0.941821
vt 0.838197 0.867241
vt 0.912777 0.941821
vt 0.837804 0.249992
vt 0.912384 0.249992
vt 0.279643 0.779595
vt 0.205062 0.779595
vt 0.174365 0.900456
vt 0.099785 0.975036
vt 0.099785 0.900456
vt 0.174365 0.975036
vt 0.005977 0.782433
vt 0.080557 0.782433
vt 0.543084 0.835473
vt 0.617665 0.835473
vt 0.796308 0.399133
vt 0.721727 0.399133
vt 0.738296 0.798918
vt 0.812877 0.798918
vt 0.377415 0.225367
vt 0.550959 0.399133
vt 0.377415 0.399133
vt 0.550959 0.225367
vt 0.235137 0.076142
vt 0.265212 0.046071
vt 0.265212 0.076142
vt 0.191696 0.005977
vt 0.291945 0.046071
vt 0.365462 0.005977
vt 0.291945 0.062777
vt 0.365462 0.062777
vt 0.191696 0.136284
vt 0.235137 0.136284
vt 0.494366 0.179743
vt 0.551171 0.005977
vt 0.551171 0.179743
vt 0.494366 0.005977
vt 0.191696 0.432805
vt 0.365462 0.376004
vt 0.365462 0.432805
vt 0.291945 0.392710
vt 0.265212 0.392710
vt 0.265212 0.362639
vt 0.235137 0.362639
vt 0.235137 0.302498
vt 0.191696 0.302498
vt 0.291945 0.376004
vt 0.896833 0.216752
vt 0.923566 0.171646
vt 0.923566 0.216752
vt 0.896833 0.171646
vt 0.283849 0.937549
vt 0.243749 0.928360
vt 0.283849 0.920841
vt 0.243749 0.973469
vt 0.283849 0.980988
vt 0.962101 0.636907
vt 0.935403 0.597059
vt 0.962101 0.596806
vt 0.935403 0.637160
vt 0.774173 0.965991
vt 0.747440 0.925891
vt 0.774173 0.925891
vt 0.747440 0.965991
vt 0.924337 0.389157
vt 0.964437 0.366601
vt 0.964437 0.396676
vt 0.924337 0.344045
vt 0.964437 0.336526
vt 0.735487 0.965991
vt 0.708754 0.925891
vt 0.735487 0.925891
vt 0.708754 0.965991
vt 0.504048 0.933594
vt 0.463948 0.911038
vt 0.504048 0.903519
vt 0.463948 0.956150
vt 0.504048 0.963669
vt 0.191696 0.973469
vt 0.231796 0.964280
vt 0.231796 0.980988
vt 0.191696 0.928360
vt 0.231796 0.920841
vt 0.295802 0.965948
vt 0.322535 0.920841
vt 0.322535 0.965948
vt 0.295802 0.920841
vt 0.923449 0.637160
vt 0.896752 0.596806
vt 0.923449 0.597059
vt 0.896752 0.636907
vt 0.116138 0.159564
vt 0.154669 0.194177
vt 0.179743 0.269258
vt 0.116138 0.175787
vt 0.069581 0.175787
vt 0.154669 0.234368
vt 0.114478 0.234368
vt 0.071241 0.234368
vt 0.031050 0.234368
vt 0.069581 0.159564
vt 0.031050 0.194177
vt 0.005977 0.269258
vt 0.114478 0.194177
vt 0.389368 0.200107
vt 0.389368 0.200107
vt 0.389368 0.200107
vt 0.071241 0.194177
vt 0.278579 0.179720
vt 0.365462 0.179720
vt 0.291945 0.106213
vt 0.265212 0.106213
vt 0.191696 0.179720
vt 0.005977 0.358069
vt 0.092860 0.531835
vt 0.005977 0.531835
vt 0.092860 0.358069
vt 0.126276 0.375446
vt 0.179743 0.514459
vt 0.126276 0.514459
vt 0.179743 0.375446
vt 0.265212 0.332568
vt 0.191696 0.259062
vt 0.278579 0.259062
vt 0.291945 0.332568
vt 0.365462 0.259062
vt 0.179743 0.312700
vt 0.005977 0.312700
vt 0.162366 0.346116
vt 0.023353 0.346116
vt 0.245162 0.213414
vt 0.191696 0.213414
vt 0.245162 0.225367
vt 0.191696 0.225367
vt 0.377415 0.179743
vt 0.377415 0.005977
vn -1.0000 0.0000 0.0000
vn 0.0000 -0.9681 0.2506
vn -0.0000 -0.2506 -0.9681
vn 0.7071 -0.6845 0.1772
vn -0.0000 0.2506 0.9681
vn 1.0000 0.0000 -0.0000
vn -0.7071 -0.6845 0.1772
vn 0.0000 0.0000 1.0000
vn -0.0000 0.1920 -0.9814
vn -0.0000 0.0893 -0.9960
vn 0.0000 -0.1648 0.9863
vn 0.0000 1.0000 0.0000
vn 0.7071 0.7071 -0.0000
vn -0.7071 0.7071 0.0000
vn -0.0000 -0.1078 0.9942
vn 0.0134 -0.0798 0.9967
vn 0.0000 -0.2901 0.9570
vn 0.0000 -1.0000 -0.0000
vn -0.0000 0.0000 -1.0000
vn 0.0000 0.1550 -0.9879
vn 0.0654 0.2897 -0.9549
vn -0.0000 -0.7071 -0.7071
vn 0.0000 0.1054 0.9944
vn -0.0000 -0.0164 -0.9999
vn 0.9844 0.1754 -0.0131
vn -0.9991 0.0399 0.0128
vn 0.1843 -0.9829 0.0000
vn 0.1843 0.9829 0.0000
vn -0.1843 0.9829 0.0000
vn -0.1843 -0.9829 0.0000
vn 0.0000 0.0001 1.0000
vn 0.0000 0.7071 0.7071
vn 0.8872 0.4614 -0.0000
vn -0.8872 0.4614 0.0000
vn -0.0000 0.7071 -0.7071
s 1
f 1/1/1 2/2/1 3/3/1
f 2/2/1 1/1/1 4/4/1
f 5/5/2 1/6/2 6/7/2
f 1/6/2 5/5/2 4/8/2
f 3/9/3 6/10/3 1/11/3
f 6/10/3 3/9/3 7/12/3
f 7/12/3 3/9/3 8/13/3
f 9/14/4 6/15/4 7/16/4
f 6/15/4 9/14/4 5/17/4
f 9/18/5 4/19/5 5/20/5
f 4/19/5 9/18/5 2/21/5
f 2/21/5 9/18/5 10/22/5
f 10/23/6 7/16/6 8/24/6
f 7/16/6 10/23/6 9/14/6
f 17/25/6 18/26/6 19/27/6
f 18/26/6 17/25/6 20/28/6
f 21/29/3 19/30/3 18/31/3
f 19/30/3 21/29/3 22/32/3
f 19/30/3 22/32/3 23/33/3
f 21/34/7 24/35/7 22/36/7
f 24/35/7 21/34/7 25/37/7
f 25/38/2 18/39/2 20/40/2
f 18/39/2 25/38/2 21/41/2
f 17/42/5 25/43/5 20/44/5
f 25/43/5 17/42/5 24/45/5
f 24/45/5 17/42/5 26/46/5
f 22/36/1 26/47/1 23/48/1
f 26/47/1 22/36/1 24/35/1
f 131/49/8 132/50/8 133/51/8
f 132/50/8 131/49/8 134/52/8
f 130/53/9 135/54/9 136/55/9
f 135/54/9 130/53/9 124/56/9
f 136/55/10 137/57/10 138/58/10
f 137/57/10 136/55/10 135/54/10
f 132/59/1 136/60/1 138/61/1
f 136/60/1 132/59/1 130/62/1
f 130/62/1 132/59/1 139/63/1
f 139/63/1 132/59/1 134/64/1
f 127/65/1 130/62/1 139/63/1
f 126/66/11 139/67/11 140/68/11
f 139/67/11 126/66/11 127/69/11
f 139/70/12 131/71/12 140/72/12
f 131/71/12 139/70/12 134/73/12
f 126/74/6 140/75/6 124/76/6
f 133/77/6 124/76/6 140/75/6
f 133/77/6 135/78/6 124/76/6
f 135/78/6 133/77/6 137/79/6
f 133/77/6 140/75/6 131/80/6
f 141/81/11 142/82/11 143/83/11
f 142/82/11 141/81/11 144/84/11
f 145/85/8 146/86/8 147/87/8
f 146/86/8 145/85/8 148/88/8
f 149/89/10 150/90/10 151/91/10
f 150/90/10 149/89/10 152/92/10
f 153/93/9 152/92/9 149/89/9
f 152/92/9 153/93/9 154/94/9
f 146/95/1 149/96/1 151/97/1
f 149/96/1 146/95/1 153/98/1
f 153/98/1 146/95/1 142/99/1
f 142/99/1 146/95/1 148/100/1
f 144/101/1 153/98/1 142/99/1
f 141/102/6 143/103/6 154/104/6
f 147/105/6 154/104/6 143/103/6
f 147/105/6 152/106/6 154/104/6
f 152/106/6 147/105/6 150/107/6
f 147/105/6 143/103/6 145/108/6
f 142/109/12 145/110/12 143/111/12
f 145/110/12 142/109/12 148/112/12
f 11/113/12 12/114/12 13/115/12
f 12/114/12 11/113/12 14/116/12
f 12/117/13 15/118/13 13/119/13
f 15/118/13 12/117/13 16/120/13
f 30/121/14 29/122/14 32/123/14
f 29/122/14 30/121/14 28/124/14
f 31/125/12 29/126/12 27/127/12
f 29/126/12 31/125/12 32/128/12
f 59/129/6 45/130/6 60/131/6
f 45/130/6 59/129/6 37/132/6
f 48/133/8 40/134/15 39/135/16
f 40/134/15 48/133/8 51/136/8
f 52/137/17 38/138/17 40/139/17
f 38/138/17 52/137/17 61/140/17
f 59/141/17 39/142/17 37/143/17
f 39/142/17 59/141/17 47/144/17
f 54/145/1 57/146/1 55/147/1
f 57/146/1 54/145/1 62/148/1
f 62/148/1 54/145/1 43/149/1
f 62/150/1 43/151/1 63/152/18
f 64/153/6 56/154/6 58/155/6
f 56/154/6 64/153/6 53/156/6
f 53/156/6 64/153/6 44/157/6
f 44/158/6 64/159/6 65/160/1
f 57/161/12 64/162/12 58/163/12
f 64/162/12 57/161/12 62/164/12
f 64/165/8 63/166/8 65/167/8
f 63/166/8 64/165/8 62/168/8
f 38/169/1 66/170/1 46/171/1
f 66/170/1 38/169/1 61/172/1
f 132/173/18 137/174/18 133/175/18
f 137/174/18 132/173/18 138/176/18
f 146/177/18 150/178/18 147/179/18
f 150/178/18 146/177/18 151/180/18
f 16/181/8 2/21/8 10/22/8
f 2/21/8 16/181/8 14/182/8
f 14/182/8 16/181/8 12/183/8
f 16/120/6 8/24/6 15/118/6
f 8/24/6 16/120/6 10/23/6
f 11/184/19 8/13/19 3/9/19
f 8/13/19 11/184/19 15/185/19
f 15/185/19 11/184/19 13/186/19
f 3/3/1 14/187/1 11/188/1
f 14/187/1 3/3/1 2/2/1
f 27/189/8 26/46/8 17/42/8
f 26/46/8 27/189/8 28/190/8
f 28/190/8 27/189/8 29/191/8
f 26/47/1 30/121/1 23/48/1
f 30/121/1 26/47/1 28/124/1
f 30/192/19 19/30/19 23/33/19
f 19/30/19 30/192/19 31/193/19
f 31/193/19 30/192/19 32/194/19
f 27/195/6 19/27/6 31/196/6
f 19/27/6 27/195/6 17/25/6
f 67/197/8 47/144/8 59/141/8
f 47/144/8 67/197/8 49/198/8
f 49/198/8 67/197/8 50/199/8
f 68/200/8 50/199/8 67/197/8
f 61/140/8 50/199/8 68/200/8
f 50/199/8 61/140/8 52/137/8
f 65/201/12 67/202/12 69/203/12
f 67/202/12 65/201/12 68/204/12
f 68/204/12 65/201/12 63/205/12
f 68/204/12 63/205/12 70/206/12
f 70/207/19 43/208/20 41/209/19
f 43/208/20 70/207/19 63/210/19
f 65/211/19 42/212/19 44/213/21
f 42/212/19 65/211/19 69/214/19
f 46/171/1 70/215/1 41/216/1
f 70/215/1 46/171/1 66/170/1
f 70/215/1 66/170/1 68/217/1
f 68/217/1 66/170/1 61/172/1
f 69/218/6 60/131/6 42/219/6
f 60/131/6 69/218/6 67/220/6
f 60/131/6 67/220/6 59/129/6
f 45/130/6 42/219/6 60/131/6
f 33/221/18 34/222/18 35/223/18
f 34/222/18 33/221/18 36/224/18
f 37/225/8 33/226/8 35/227/8
f 33/226/8 37/225/8 38/228/8
f 38/229/8 37/230/8 39/231/16
f 38/229/8 39/231/16 40/232/15
f 41/233/19 34/234/19 36/235/19
f 34/234/19 41/233/19 42/236/19
f 42/237/19 41/238/19 43/239/20
f 42/240/19 43/241/20 44/242/21
f 45/130/6 34/243/6 42/219/6
f 34/243/6 45/130/6 35/244/6
f 35/244/6 45/130/6 37/132/6
f 33/245/1 41/216/1 36/246/1
f 41/216/1 33/245/1 46/171/1
f 46/171/1 33/245/1 38/169/1
f 47/247/1 48/248/1 39/249/1
f 48/248/1 47/247/1 49/250/1
f 50/251/6 40/252/6 51/253/6
f 40/252/6 50/251/6 52/254/6
f 50/255/18 48/256/18 49/257/18
f 48/256/18 50/255/18 51/258/18
f 43/241/18 53/259/18 44/242/18
f 53/259/18 43/241/18 54/260/18
f 55/261/22 53/262/22 54/263/22
f 53/262/22 55/261/22 56/264/22
f 57/265/19 56/264/19 55/261/19
f 56/264/19 57/265/19 58/266/19
f 123/267/6 124/76/6 125/268/6
f 124/76/6 123/267/6 126/74/6
f 123/269/23 127/69/23 126/66/23
f 127/69/23 123/269/23 128/270/23
f 129/271/12 123/272/12 125/273/12
f 123/272/12 129/271/12 128/274/12
f 129/275/24 124/56/24 130/53/24
f 124/56/24 129/275/24 125/276/24
f 130/62/1 128/277/1 129/278/1
f 128/277/1 130/62/1 127/65/1
f 155/279/12 156/280/12 157/281/12
f 156/280/12 155/279/12 158/282/12
f 155/283/24 154/94/24 153/93/24
f 154/94/24 155/283/24 157/284/24
f 156/285/23 144/84/23 141/81/23
f 144/84/23 156/285/23 158/286/23
f 153/98/1 158/287/1 155/288/1
f 158/287/1 153/98/1 144/101/1
f 156/289/6 154/104/6 157/290/6
f 154/104/6 156/289/6 141/102/6
f 68/291/18 71/292/18 67/293/18
f 71/292/18 68/291/18 72/294/18
f 73/295/6 74/296/6 75/297/6
f 67/298/6 74/296/6 73/295/6
f 67/298/6 76/299/6 74/296/6
f 71/300/6 76/299/6 67/298/6
f 71/300/6 77/301/6 76/299/6
f 77/301/6 71/300/6 78/302/6
f 67/298/6 73/295/6 79/303/6
f 79/303/6 73/295/6 80/304/25
f 81/305/19 71/306/19 72/307/19
f 71/306/19 81/305/19 78/308/19
f 68/309/1 81/310/1 72/311/1
f 81/310/1 68/309/1 82/312/1
f 82/312/1 68/309/1 83/313/1
f 83/313/1 68/309/1 84/314/1
f 84/314/1 68/309/1 85/315/1
f 85/315/1 68/309/1 86/316/26
f 86/316/26 68/309/1 87/317/1
f 88/318/1 81/310/1 82/312/1
f 89/319/6 90/320/6 91/321/6
f 90/320/6 89/319/6 92/322/6
f 77/323/19 90/324/19 76/325/19
f 90/324/19 77/323/19 91/326/19
f 91/326/19 77/323/19 93/327/19
f 74/328/27 90/329/27 92/330/27
f 90/329/27 74/328/27 76/331/27
f 93/332/28 89/333/28 91/334/28
f 89/333/28 93/332/28 94/335/28
f 92/336/8 75/337/8 74/338/8
f 75/337/8 92/336/8 89/339/8
f 75/337/8 89/339/8 94/340/8
f 95/341/29 96/342/29 97/343/29
f 96/342/29 95/341/29 98/344/29
f 84/345/8 99/346/8 83/347/8
f 99/346/8 84/345/8 98/348/8
f 98/348/8 84/345/8 96/349/8
f 100/350/19 88/351/19 82/352/19
f 88/351/19 100/350/19 95/353/19
f 88/351/19 95/353/19 97/354/19
f 99/355/1 95/356/1 100/357/1
f 95/356/1 99/355/1 98/358/1
f 99/359/30 82/360/30 83/361/30
f 82/360/30 99/359/30 100/362/30
f 67/197/8 101/363/8 68/200/8
f 101/363/8 67/197/8 102/364/8
f 102/364/8 67/197/8 79/365/8
f 101/363/8 102/364/8 103/366/8
f 103/366/8 102/364/8 104/367/8
f 102/364/8 79/365/8 105/368/8
f 105/368/8 79/365/8 106/369/8
f 106/369/8 79/365/8 107/370/8
f 107/370/8 79/365/8 108/371/8
f 109/372/8 68/200/8 101/363/8
f 110/373/31 68/200/8 109/372/8
f 110/373/31 109/372/8 104/367/8
f 68/200/8 110/373/31 87/374/8
f 87/374/8 110/373/31 108/371/8
f 87/374/8 108/371/8 79/365/8
f 110/373/31 104/367/8 111/375/31
f 111/375/31 104/367/8 102/364/8
f 110/376/31 111/377/31 112/378/32
f 106/369/8 112/379/32 111/375/31
f 112/379/32 106/369/8 107/370/8
f 113/380/6 78/302/6 114/381/6
f 78/302/6 113/380/6 93/382/6
f 93/382/6 113/380/6 94/383/6
f 94/383/6 113/380/6 115/384/6
f 94/383/6 115/384/6 80/304/25
f 94/383/6 80/304/25 75/297/6
f 80/304/25 115/384/6 79/303/6
f 73/295/6 75/297/6 80/304/25
f 77/301/6 78/302/6 93/382/6
f 116/385/12 113/386/12 114/387/12
f 113/386/12 116/385/12 117/388/12
f 118/389/12 119/390/12 120/391/12
f 119/390/12 118/389/12 121/392/12
f 85/315/1 96/393/1 84/314/1
f 86/316/26 96/393/1 85/315/1
f 122/394/1 96/393/1 86/316/26
f 117/395/1 96/393/1 122/394/1
f 117/395/1 97/396/1 96/393/1
f 116/397/1 97/396/1 117/395/1
f 116/397/1 88/318/1 97/396/1
f 88/318/1 116/397/1 81/310/1
f 122/394/1 86/316/26 87/317/1
f 115/398/8 87/374/8 79/365/8
f 87/374/8 115/398/8 122/399/8
f 122/399/8 115/398/8 119/400/8
f 122/399/8 119/400/8 121/401/8
f 120/402/33 115/384/33 113/380/33
f 115/384/33 120/402/33 119/403/33
f 122/394/34 118/404/34 117/395/34
f 118/404/34 122/394/34 121/405/34
f 117/388/35 120/391/35 113/386/35
f 120/391/35 117/388/35 118/389/35
f 116/406/19 78/308/19 81/305/19
f 78/308/19 116/406/19 114/407/19
f 103/366/8 109/372/8 101/363/8
f 109/372/8 103/366/8 104/367/8
f 107/370/8 110/373/31 112/379/32
f 110/373/31 107/370/8 108/371/8
f 105/368/8 111/375/31 102/364/8
f 111/375/31 105/368/8 106/369/8
