# Blender v2.92.0 OBJ File: 'kenney_OGConvert.blend'
# www.blender.org
o corridor_roof
v 0.500000 0.041421 0.500000
v 0.500000 0.000000 -0.500000
v 0.500000 0.041421 -0.500000
v 0.500000 -0.000000 0.500000
v -0.500000 0.000000 -0.500000
v -0.258579 0.141421 -0.500000
v -0.400000 0.000000 -0.500000
v -0.500000 0.041421 -0.500000
v -0.300000 0.241421 -0.500000
v 0.258579 0.141421 -0.500000
v 0.300000 0.241421 -0.500000
v 0.400000 0.000000 -0.500000
v -0.200000 0.241421 -0.500000
v 0.200000 0.241421 -0.500000
v 0.400000 -0.000000 0.500000
v 0.200000 0.241421 0.500000
v -0.200000 0.241421 0.500000
v 0.258579 0.141421 0.500000
v 0.300000 0.241421 0.500000
v -0.300000 0.241421 0.500000
v -0.258578 0.141421 0.500000
v -0.500000 0.041421 0.500000
v -0.500000 -0.000000 0.500000
v -0.400000 -0.000000 0.500000
vt 0.704693 0.497867
vt 0.684159 0.002133
vt 0.704693 0.002133
vt 0.684159 0.497867
vt 0.121814 0.997867
vt 0.051707 0.878186
vt 0.121814 0.948293
vt 0.101280 0.997867
vt 0.002133 0.898720
vt 0.051707 0.621814
vt 0.002133 0.601280
vt 0.101280 0.502133
vt 0.121814 0.502133
vt 0.121814 0.551707
vt 0.324402 0.502133
vt 0.324402 0.502133
vt 0.324402 0.502133
vt 0.382453 0.750000
vt 0.382453 0.502133
vt 0.382453 0.700427
vt 0.932054 0.497867
vt 0.981627 0.002133
vt 0.981627 0.497867
vt 0.932054 0.002133
vt 0.630319 0.002133
vt 0.432026 0.497867
vt 0.432026 0.002133
vt 0.630319 0.497867
vt 0.126080 0.502133
vt 0.196188 0.621814
vt 0.126080 0.551707
vt 0.146614 0.502133
vt 0.245761 0.601280
vt 0.245761 0.898720
vt 0.196188 0.878186
vt 0.146614 0.997867
vt 0.126080 0.997867
vt 0.126080 0.948293
vt 0.373920 0.502133
vt 0.373920 0.502133
vt 0.373920 0.502133
vt 0.378186 0.502133
vt 0.378186 0.750000
vt 0.378186 0.551707
vt 0.002133 0.497867
vt 0.051707 0.002133
vt 0.051707 0.497867
vt 0.002133 0.002133
vt 0.927787 0.002133
vt 0.907253 0.497867
vt 0.907253 0.002133
vt 0.927787 0.497867
vt 0.121814 0.497867
vt 0.378186 0.002133
vt 0.378186 0.497867
vt 0.121814 0.002133
vt 0.320135 0.502133
vt 0.250028 0.997867
vt 0.250028 0.502133
vt 0.320135 0.997867
vt 0.382453 0.497867
vt 0.382453 0.002133
vt 0.808107 0.002133
vt 0.808107 0.497867
vt 0.803840 0.497867
vt 0.803840 0.002133
vt 0.679893 0.002133
vt 0.679893 0.497867
vn 1.0000 0.0000 -0.0000
vn -0.0000 0.0000 -1.0000
vn -0.0000 -0.5390 -0.8423
vn 0.0000 0.7682 -0.6402
vn 0.0000 -1.0000 -0.0000
vn 0.0000 1.0000 0.0000
vn 0.0000 0.0000 1.0000
vn 0.0000 -0.9231 -0.3846
vn -1.0000 0.0000 0.0000
vn -0.7071 -0.7071 0.0000
vn -0.7071 0.7071 0.0000
vn 0.7071 -0.7071 -0.0000
vn 0.7071 0.7071 -0.0000
s 1
f 1/1/1 2/2/1 3/3/1
f 2/2/1 1/1/1 4/4/1
f 5/5/2 6/6/2 7/7/2
f 6/6/2 5/5/2 8/8/2
f 6/6/2 8/8/2 9/9/2
f 6/6/2 9/9/2 10/10/2
f 11/11/2 10/10/2 9/9/2
f 3/12/2 10/10/2 11/11/2
f 2/13/2 10/10/2 3/12/2
f 10/10/2 2/13/2 12/14/2
f 11/15/2 9/16/2 13/17/3
f 11/18/2 13/19/3 14/20/4
f 15/21/5 2/22/5 4/23/5
f 2/22/5 15/21/5 12/24/5
f 13/25/6 16/26/6 14/27/6
f 16/26/6 13/25/6 17/28/6
f 4/29/7 18/30/7 15/31/7
f 18/30/7 4/29/7 1/32/7
f 18/30/7 1/32/7 19/33/7
f 20/34/7 18/30/7 19/33/7
f 20/34/7 21/35/7 18/30/7
f 22/36/7 21/35/7 20/34/7
f 23/37/7 21/35/7 22/36/7
f 21/35/7 23/37/7 24/38/7
f 20/39/7 19/40/7 16/41/8
f 20/42/7 16/43/8 17/44/5
f 23/45/5 7/46/5 24/47/5
f 7/46/5 23/45/5 5/48/5
f 5/49/9 22/50/9 8/51/9
f 22/50/9 5/49/9 23/52/9
f 21/53/5 10/54/5 18/55/5
f 10/54/5 21/53/5 6/56/5
f 12/57/10 18/58/10 10/59/10
f 18/58/10 12/57/10 15/60/10
f 14/27/6 19/61/6 11/62/6
f 19/61/6 14/27/6 16/26/6
f 22/50/11 9/63/11 8/51/11
f 9/63/11 22/50/11 20/64/11
f 6/56/12 24/47/12 7/46/12
f 24/47/12 6/56/12 21/53/12
f 19/65/13 3/3/13 11/66/13
f 3/3/13 19/65/13 1/1/13
f 9/67/6 17/28/6 13/25/6
f 17/28/6 9/67/6 20/68/6
