# Blender v2.92.0 OBJ File: 'kenney_OGConvert.blend'
# www.blender.org
o desk_computer
v 0.262500 0.225000 0.112500
v 0.262500 0.187500 0.037500
v 0.262500 0.225000 0.037500
v 0.262500 0.187500 0.112500
v 0.262500 0.037500 0.037500
v 0.262500 0.375000 -0.037500
v 0.262500 0.000000 -0.112500
v 0.262500 0.225000 -0.112500
v 0.262500 0.375000 -0.112500
v 0.262500 -0.000000 0.112500
v 0.262500 0.018750 0.112500
v -0.262500 -0.000000 0.112500
v -0.187500 0.000000 -0.037500
v -0.187500 -0.000000 0.112500
v -0.262500 0.000000 -0.112500
v 0.187500 0.000000 -0.037500
v 0.187500 -0.000000 0.112500
v 0.187500 0.037500 0.037500
v 0.187500 0.187500 -0.037500
v 0.187500 0.018750 0.112500
v 0.187500 0.187500 0.037500
v -0.187500 0.187500 -0.037500
v -0.262500 0.225000 -0.112500
v -0.262500 0.187500 0.112500
v -0.262500 0.225000 0.112500
v -0.262500 0.037500 0.037500
v -0.262500 0.375000 -0.112500
v -0.262500 0.375000 -0.037500
v -0.262500 0.018750 0.112500
v -0.262500 0.225000 0.037500
v -0.262500 0.187500 0.037500
v -0.187500 0.187500 0.037500
v -0.187500 0.037500 0.037500
v -0.187500 0.018750 0.112500
v 0.225000 0.258541 0.020730
v 0.132295 0.258541 0.020730
v 0.225000 0.341459 -0.020730
v 0.132295 0.341459 -0.020730
v 0.100152 0.341459 -0.020730
v 0.007447 0.341459 -0.020730
v -0.024696 0.341459 -0.020730
v -0.225000 0.341459 -0.020729
v -0.225000 0.258541 0.020730
v 0.100152 0.258541 0.020730
v 0.007447 0.258541 0.020730
v -0.024696 0.258541 0.020730
vt 0.914483 0.856169
vt 0.879253 0.785709
vt 0.914483 0.785709
vt 0.879253 0.856169
vt 0.247038 0.862471
vt 0.247038 0.862471
vt 0.247038 0.862471
vt 0.144310 0.820460
vt 0.073850 0.503390
vt 0.144310 0.644310
vt 0.003390 0.855690
vt 0.003390 0.644310
vt 0.003390 0.503390
vt 0.214770 0.855690
vt 0.214770 0.838075
vt 0.362471 0.003390
vt 0.503390 0.073850
vt 0.362471 0.073850
vt 0.573850 0.003390
vt 0.503390 0.426150
vt 0.573850 0.496610
vt 0.362471 0.426150
vt 0.362471 0.496610
vt 0.832097 0.679540
vt 0.761637 0.644310
vt 0.832097 0.503390
vt 0.691177 0.679540
vt 0.691177 0.661925
vt 0.761637 0.503390
vt 0.439711 0.855690
vt 0.607684 0.503390
vt 0.607684 0.855690
vt 0.439711 0.503390
vt 0.214770 0.003390
vt 0.003390 0.496610
vt 0.003390 0.003390
vt 0.214770 0.496610
vt 0.872473 0.503390
vt 0.838878 0.996610
vt 0.838878 0.503390
vt 0.872473 0.996610
vt 0.432930 0.855690
vt 0.292011 0.820460
vt 0.432930 0.644310
vt 0.221551 0.855690
vt 0.432930 0.503390
vt 0.362470 0.503390
vt 0.221551 0.838075
vt 0.292011 0.644310
vt 0.253818 0.862471
vt 0.253818 0.862471
vt 0.253818 0.862471
vt 0.157871 0.862471
vt 0.193101 0.862471
vt 0.193101 0.932930
vt 0.157871 0.932930
vt 0.743008 0.003390
vt 0.813468 0.496610
vt 0.743008 0.496610
vt 0.813468 0.426150
vt 0.883928 0.426150
vt 0.813468 0.073850
vt 0.813468 0.003390
vt 0.883928 0.073850
vt 0.761637 0.686321
vt 0.691177 0.862471
vt 0.691177 0.686321
vt 0.761637 0.827241
vt 0.832097 0.862471
vt 0.832097 0.844856
vt 0.879253 0.644549
vt 0.949713 0.778928
vt 0.879253 0.778928
vt 0.949713 0.644550
vt 0.073850 0.862471
vt 0.003390 0.934555
vt 0.003390 0.862471
vt 0.073850 0.934555
vt 0.614465 0.503390
vt 0.684397 0.996610
vt 0.614465 0.996610
vt 0.684397 0.503390
vt 0.240257 0.862471
vt 0.223460 0.932930
vt 0.223460 0.862471
vt 0.240257 0.932930
vt 0.879253 0.503390
vt 0.949713 0.637769
vt 0.879253 0.637769
vt 0.949713 0.503390
vt 0.580631 0.003390
vt 0.615423 0.038620
vt 0.580631 0.496610
vt 0.736227 0.003390
vt 0.615423 0.125714
vt 0.701435 0.038620
vt 0.701435 0.125714
vt 0.701435 0.155911
vt 0.701435 0.243004
vt 0.701435 0.273201
vt 0.701435 0.461380
vt 0.615423 0.461380
vt 0.736227 0.496610
vt 0.956494 0.503390
vt 0.956494 0.839056
vt 0.956494 0.808859
vt 0.615423 0.155911
vt 0.956494 0.721766
vt 0.260599 0.862471
vt 0.260599 0.862471
vt 0.260599 0.862471
vt 0.615423 0.273201
vt 0.615423 0.243004
vt 0.151091 0.862471
vt 0.080631 0.934555
vt 0.080631 0.862471
vt 0.151091 0.934555
vt 0.890708 0.003390
vt 0.960640 0.496610
vt 0.890708 0.496610
vt 0.960640 0.003390
vt 0.216679 0.862471
vt 0.199882 0.932930
vt 0.199882 0.862471
vt 0.216679 0.932930
vt 0.355690 0.496610
vt 0.355690 0.003390
vn 1.0000 0.0000 -0.0000
vn -0.0000 -1.0000 -0.0000
vn -1.0000 -0.0000 0.0000
vn 0.0000 -0.0000 1.0000
vn -0.0000 0.0000 -1.0000
vn 0.1233 -0.8595 0.4961
vn 0.0000 0.9701 0.2425
vn 0.0000 1.0000 -0.0000
vn 0.0000 0.4472 0.8944
vn 0.0000 0.4462 0.8949
vn 0.0000 0.4347 0.9006
vn 0.0000 0.4413 0.8974
s 1
f 1/1/1 2/2/1 3/3/1
f 2/2/1 1/1/1 4/4/1
f 5/5/1 3/6/1 2/7/1
f 5/8/1 6/9/1 3/10/1
f 7/11/1 6/9/1 5/8/1
f 8/12/1 6/9/1 7/11/1
f 6/9/1 8/12/1 9/13/1
f 7/11/1 5/8/1 10/14/1
f 10/14/1 5/8/1 11/15/1
f 12/16/2 13/17/2 14/18/2
f 15/19/2 13/17/2 12/16/2
f 15/19/2 16/20/2 13/17/2
f 7/21/2 16/20/2 15/19/2
f 7/21/2 17/22/2 16/20/2
f 17/22/2 7/21/2 10/23/2
f 16/24/3 18/25/3 19/26/3
f 18/25/3 16/24/3 17/27/3
f 18/25/3 17/27/3 20/28/3
f 21/29/3 19/26/3 18/25/3
f 19/30/4 13/31/4 16/32/4
f 13/31/4 19/30/4 22/33/4
f 23/34/5 7/35/5 15/36/5
f 7/35/5 23/34/5 8/37/5
f 1/38/4 24/39/4 4/40/4
f 24/39/4 1/38/4 25/41/4
f 15/42/3 26/43/3 23/44/3
f 26/43/3 15/42/3 12/45/3
f 23/44/3 26/43/3 27/46/3
f 27/46/3 26/43/3 28/47/3
f 26/43/3 12/45/3 29/48/3
f 26/43/3 30/49/3 28/47/3
f 30/50/3 26/51/3 31/52/6
f 30/53/3 31/54/6 24/55/3
f 30/53/3 24/55/3 25/56/3
f 24/57/2 2/58/2 4/59/2
f 2/58/2 24/57/2 21/60/2
f 21/60/2 24/57/2 19/61/2
f 19/61/2 24/57/2 32/62/2
f 32/62/2 24/57/2 31/63/2
f 22/64/2 19/61/2 32/62/2
f 32/65/1 13/66/1 22/67/1
f 13/66/1 32/65/1 33/68/1
f 13/66/1 33/68/1 14/69/1
f 14/69/1 33/68/1 34/70/1
f 32/71/4 26/72/4 33/73/4
f 26/72/4 32/71/4 31/74/4
f 26/75/7 34/76/7 33/77/7
f 34/76/7 26/75/7 29/78/7
f 30/79/8 1/80/8 3/81/8
f 1/80/8 30/79/8 25/82/8
f 11/83/4 17/84/4 10/85/4
f 17/84/4 11/83/4 20/86/4
f 2/87/4 18/88/4 5/89/4
f 18/88/4 2/87/4 21/90/4
f 3/91/9 35/92/9 30/93/9
f 35/92/9 3/91/9 6/94/9
f 30/93/9 35/92/9 36/95/9
f 35/92/9 6/94/9 37/96/9
f 37/96/9 6/94/9 38/97/9
f 38/97/9 6/94/9 39/98/9
f 39/98/9 6/94/9 40/99/9
f 40/99/9 6/94/9 41/100/9
f 41/100/9 6/94/9 42/101/9
f 43/102/9 30/93/9 36/95/9
f 30/93/9 43/102/9 28/103/9
f 28/103/9 43/102/9 42/101/9
f 28/103/9 42/101/9 6/94/9
f 43/104/9 36/105/9 44/106/10
f 38/97/9 44/107/10 36/95/9
f 44/107/10 38/97/9 39/98/9
f 43/104/9 44/106/10 45/108/11
f 43/109/9 45/110/11 46/111/12
f 40/99/9 46/112/12 45/113/11
f 46/112/12 40/99/9 41/100/9
f 18/114/7 11/115/7 5/116/7
f 11/115/7 18/114/7 20/117/7
f 27/118/8 6/119/8 9/120/8
f 6/119/8 27/118/8 28/121/8
f 34/122/4 12/123/4 14/124/4
f 12/123/4 34/122/4 29/125/4
f 23/34/5 9/126/5 8/37/5
f 9/126/5 23/34/5 27/127/5
f 41/100/9 43/102/9 46/112/12
f 43/102/9 41/100/9 42/101/9
f 35/92/9 38/97/9 36/95/9
f 38/97/9 35/92/9 37/96/9
f 39/98/9 45/113/11 44/107/10
f 45/113/11 39/98/9 40/99/9
