# Blender v2.92.0 OBJ File: 'kenney_OGConvert.blend'
# www.blender.org
o machine_wireless
v -0.325000 0.150000 -0.200000
v 0.025000 0.050000 -0.200000
v -0.325000 0.050000 -0.200000
v 0.025000 0.150000 -0.200000
v 0.025000 0.150000 0.200000
v 0.025000 0.100000 0.150000
v 0.025000 0.150000 0.150000
v 0.025000 0.100000 0.200000
v -0.325000 0.050000 0.200000
v -0.325000 0.150000 0.200000
v 0.325000 0.175000 -0.050000
v 0.200000 0.300000 0.050000
v 0.325000 0.175000 0.050000
v 0.200000 0.300000 -0.050000
v 0.025000 0.050000 0.200000
v 0.025000 0.300000 0.050000
v 0.025000 0.300000 -0.050000
v 0.325000 0.050000 -0.050000
v 0.325000 0.050000 0.050000
v 0.275000 0.050000 0.050000
v 0.275000 0.150000 0.050000
v 0.175000 0.250000 0.050000
v 0.025000 0.250000 0.050000
v 0.025000 0.150000 -0.050000
v -0.175000 0.150000 0.050000
v 0.025000 0.150000 0.050000
v -0.175000 0.150000 -0.050000
v -0.175000 0.150000 0.100000
v 0.025000 0.150000 0.100000
v -0.175000 0.150000 -0.100000
v 0.025000 0.150000 -0.150000
v 0.025000 0.150000 -0.100000
v 0.025000 0.050000 -0.150000
v 0.175000 0.250000 -0.050000
v 0.025000 0.250000 -0.050000
v 0.275000 0.150000 -0.050000
v 0.275000 0.050000 -0.050000
v -0.375000 -0.000000 0.250000
v 0.375000 0.000000 -0.250000
v 0.375000 -0.000000 0.250000
v -0.375000 0.000000 -0.250000
v 0.375000 0.050000 0.250000
v 0.375000 0.050000 -0.250000
v -0.175000 0.175000 0.050000
v -0.175000 0.175000 0.100000
v 0.025000 0.200000 -0.050000
v -0.175000 0.175000 -0.050000
v -0.375000 0.050000 -0.250000
v 0.025000 0.200000 0.050000
v 0.025000 0.200000 0.100000
v -0.175000 0.175000 -0.100000
v 0.025000 0.200000 -0.100000
v -0.375000 0.050000 0.250000
v 0.275000 0.050000 0.150000
v 0.175000 0.050000 0.200000
v 0.175000 0.050000 0.150000
v 0.275000 0.050000 -0.150000
v 0.125000 0.050000 0.200000
v 0.075000 0.050000 0.200000
v 0.125000 0.050000 0.150000
v 0.075000 0.050000 0.150000
v 0.275000 0.150000 0.150000
v 0.275000 0.150000 -0.150000
v 0.175000 0.250000 -0.150000
v 0.025000 0.250000 -0.150000
v 0.025000 0.250000 0.150000
v 0.175000 0.250000 0.150000
v 0.175000 0.100000 0.150000
v 0.125000 0.100000 0.150000
v 0.075000 0.100000 0.150000
v 0.155816 0.400000 0.169184
v 0.161633 0.100000 0.186633
v 0.161633 0.100000 0.163367
v 0.155816 0.400000 0.180816
v 0.125000 0.100000 0.200000
v 0.075000 0.100000 0.200000
v 0.138367 0.100000 0.163367
v 0.175000 0.100000 0.200000
v 0.138367 0.100000 0.186633
v 0.144184 0.400000 0.180816
v 0.144184 0.400000 0.169184
v 0.061633 0.100000 0.163367
v 0.061633 0.100000 0.186633
v 0.038367 0.100000 0.163367
v 0.038367 0.100000 0.186633
v 0.055816 0.600000 0.169184
v 0.055816 0.600000 0.180816
v 0.044184 0.600000 0.169184
v 0.044184 0.600000 0.180816
vt 0.260375 0.763025
vt 0.328479 0.524659
vt 0.328479 0.763025
vt 0.260375 0.524659
vt 0.926980 0.927122
vt 0.892928 0.893070
vt 0.926980 0.893070
vt 0.892928 0.927122
vt 0.780402 0.797062
vt 0.712297 0.524643
vt 0.780402 0.524643
vt 0.712297 0.797062
vt 0.328479 0.857405
vt 0.260375 0.942799
vt 0.260375 0.857405
vt 0.328479 0.942799
vt 0.738222 0.218188
vt 0.704169 0.456554
vt 0.704169 0.218188
vt 0.772274 0.456554
vt 0.772274 0.218188
vt 0.422502 0.806311
vt 0.354397 0.925490
vt 0.354397 0.806311
vt 0.422502 0.925490
vt 0.328479 0.772274
vt 0.260375 0.772274
vt 0.615300 0.737366
vt 0.703048 0.763956
vt 0.681776 0.790547
vt 0.649868 0.721412
vt 0.639232 0.625686
vt 0.602005 0.617709
vt 0.703048 0.545915
vt 0.676458 0.524643
vt 0.354397 0.626800
vt 0.490602 0.694905
vt 0.354397 0.694905
vt 0.490602 0.626800
vt 0.592756 0.797062
vt 0.490602 0.728957
vt 0.354397 0.728957
vt 0.354397 0.763009
vt 0.354397 0.797062
vt 0.490602 0.592748
vt 0.592756 0.524643
vt 0.354397 0.524643
vt 0.354397 0.558695
vt 0.354397 0.592748
vt 0.806326 0.917862
vt 0.840378 0.849758
vt 0.840378 0.917862
vt 0.806326 0.849758
vt 0.079077 0.790563
vt 0.041851 0.689519
vt 0.105668 0.769290
vt 0.004624 0.697496
vt 0.017920 0.577839
vt 0.052487 0.593794
vt 0.084396 0.524659
vt 0.105668 0.551249
vt 0.148969 0.840379
vt 0.114917 0.772274
vt 0.148969 0.772274
vt 0.114917 0.840379
vt 0.004624 0.004624
vt 0.345148 0.515410
vt 0.004624 0.515410
vt 0.345148 0.004624
vt 0.926980 0.345148
vt 0.892928 0.004624
vt 0.926980 0.004624
vt 0.892928 0.345148
vt 0.099004 0.833864
vt 0.081978 0.799811
vt 0.099004 0.799811
vt 0.081978 0.833864
vt 0.755599 0.942520
vt 0.789651 0.806311
vt 0.789651 0.942520
vt 0.772625 0.806311
vt 0.806326 0.694920
vt 0.840378 0.184135
vt 0.840378 0.694920
vt 0.806326 0.184135
vt 0.926981 0.704180
vt 0.892928 0.840519
vt 0.892928 0.704180
vt 0.926981 0.840519
vt 0.953256 0.140834
vt 0.970282 0.004624
vt 0.970282 0.140834
vt 0.936229 0.004624
vt 0.883679 0.865182
vt 0.849627 0.524659
vt 0.883679 0.524659
vt 0.849627 0.865182
vt 0.703048 0.833848
vt 0.686022 0.799796
vt 0.703048 0.799796
vt 0.686022 0.833848
vt 0.712297 0.942520
vt 0.746350 0.806311
vt 0.746350 0.942520
vt 0.729324 0.806311
vt 0.883679 0.004624
vt 0.849627 0.515410
vt 0.849627 0.004624
vt 0.883679 0.515410
vt 0.953256 0.286292
vt 0.970282 0.150083
vt 0.970282 0.286292
vt 0.936229 0.150083
vt 0.558711 0.447291
vt 0.626816 0.447291
vt 0.558711 0.481343
vt 0.694921 0.515394
vt 0.660868 0.379189
vt 0.626816 0.379189
vt 0.694921 0.004624
vt 0.354397 0.515394
vt 0.490606 0.481343
vt 0.422502 0.447291
vt 0.388449 0.277035
vt 0.354397 0.004624
vt 0.490606 0.447291
vt 0.422502 0.277035
vt 0.388449 0.038676
vt 0.660868 0.345137
vt 0.660868 0.311086
vt 0.626816 0.345137
vt 0.626816 0.311086
vt 0.660868 0.277035
vt 0.660868 0.038676
vt 0.840378 0.704169
vt 0.806326 0.840509
vt 0.806326 0.704169
vt 0.840378 0.840509
vt 0.004624 0.867916
vt 0.072729 0.799811
vt 0.072729 0.867916
vt 0.004624 0.799811
vt 0.602005 0.867900
vt 0.670110 0.799796
vt 0.670110 0.867900
vt 0.602005 0.799796
vt 0.772274 0.174886
vt 0.840378 0.004624
vt 0.840378 0.174886
vt 0.772274 0.004624
vt 0.704169 0.072729
vt 0.704169 0.174886
vt 0.114917 0.849628
vt 0.148969 0.883680
vt 0.114917 0.883680
vt 0.183021 0.849628
vt 0.183021 0.917732
vt 0.148969 0.917732
vt 0.337728 0.524659
vt 0.337728 0.524659
vt 0.337728 0.524659
vt 0.217074 0.840379
vt 0.183021 0.772274
vt 0.217074 0.772274
vt 0.183021 0.738222
vt 0.148969 0.704169
vt 0.217074 0.738222
vt 0.217074 0.704169
vt 0.670110 0.936216
vt 0.602005 0.936216
vt 0.499855 0.806311
vt 0.431750 0.908465
vt 0.431750 0.806311
vt 0.499855 0.908465
vt 0.072729 0.936231
vt 0.004624 0.936231
vt 0.183021 0.694921
vt 0.251126 0.626816
vt 0.251126 0.694921
vt 0.217074 0.626816
vt 0.217074 0.592763
vt 0.217074 0.558711
vt 0.217074 0.524659
vt 0.183021 0.524659
vt 0.114917 0.626816
vt 0.114917 0.524659
vt 0.251126 0.558711
vt 0.251126 0.592763
vt 0.577209 0.806311
vt 0.509104 0.908465
vt 0.509104 0.806311
vt 0.577209 0.908465
vt 0.239242 0.704169
vt 0.251126 0.908495
vt 0.235281 0.908495
vt 0.247165 0.704169
vt 0.781523 0.499855
vt 0.747471 0.465803
vt 0.781523 0.465803
vt 0.747471 0.499855
vt 0.738222 0.184135
vt 0.704169 0.184135
vt 0.509104 0.917713
vt 0.518207 0.926817
vt 0.518207 0.942662
vt 0.543155 0.917713
vt 0.534052 0.926817
vt 0.543155 0.951766
vt 0.509104 0.951766
vt 0.534052 0.942662
vt 0.983492 0.004624
vt 0.995376 0.208946
vt 0.979531 0.208946
vt 0.991414 0.004624
vt 0.961323 0.908503
vt 0.973207 0.704180
vt 0.977168 0.908503
vt 0.965285 0.704180
vt 0.781523 0.201307
vt 0.789445 0.209229
vt 0.781523 0.209229
vt 0.789445 0.201307
vt 0.738222 0.465803
vt 0.704169 0.499855
vt 0.704169 0.465803
vt 0.738222 0.499855
vt 0.948113 0.908505
vt 0.936230 0.704180
vt 0.952075 0.704180
vt 0.940191 0.908505
vt 0.431750 0.917714
vt 0.440854 0.926817
vt 0.440854 0.942662
vt 0.465802 0.917714
vt 0.456698 0.926817
vt 0.465802 0.951766
vt 0.431750 0.951766
vt 0.456698 0.942662
vt 0.926980 0.883821
vt 0.892928 0.849768
vt 0.926980 0.849768
vt 0.892928 0.883821
vt 0.896890 0.354397
vt 0.908773 0.694931
vt 0.892928 0.694931
vt 0.904812 0.354397
vt 0.943116 0.694929
vt 0.955000 0.354397
vt 0.958961 0.694929
vt 0.947077 0.354397
vt 0.883679 0.908484
vt 0.849627 0.874431
vt 0.883679 0.874431
vt 0.849627 0.908484
vt 0.781523 0.184135
vt 0.789445 0.192058
vt 0.781523 0.192058
vt 0.789445 0.184135
vt 0.929906 0.694930
vt 0.918022 0.354397
vt 0.933867 0.354397
vt 0.921983 0.694930
vt 0.972171 0.354397
vt 0.984055 0.694927
vt 0.968210 0.694927
vt 0.980094 0.354397
vn -0.0000 0.0000 -1.0000
vn 1.0000 0.0000 -0.0000
vn -1.0000 0.0000 0.0000
vn 0.7071 0.7071 -0.0000
vn 0.0000 0.0000 1.0000
vn 0.0000 1.0000 -0.0000
vn -0.0000 -1.0000 -0.0000
vn -0.1240 0.9923 0.0000
vn -1.0000 -0.0003 -0.0000
vn 0.9998 0.0194 0.0000
vn 0.0000 0.0194 0.9998
vn -0.9998 0.0194 0.0000
vn -0.0000 0.0194 -0.9998
vn 0.9999 0.0116 -0.0000
vn -0.9999 0.0116 0.0000
vn 0.0000 0.0116 -0.9999
vn 0.0000 0.0116 0.9999
s 1
f 1/1/1 2/2/1 3/3/1
f 2/2/1 1/1/1 4/4/1
f 5/5/2 6/6/2 7/7/2
f 6/6/2 5/5/2 8/8/2
f 9/9/3 1/10/3 3/11/3
f 1/10/3 9/9/3 10/12/3
f 11/13/4 12/14/4 13/15/4
f 12/14/4 11/13/4 14/16/4
f 8/17/5 9/18/5 15/19/5
f 9/18/5 8/17/5 10/20/5
f 10/20/5 8/17/5 5/21/5
f 14/22/6 16/23/6 12/24/6
f 16/23/6 14/22/6 17/25/6
f 13/15/2 18/26/2 11/13/2
f 18/26/2 13/15/2 19/27/2
f 13/28/5 20/29/5 19/30/5
f 20/29/5 13/28/5 21/31/5
f 21/31/5 13/28/5 22/32/5
f 22/32/5 13/28/5 12/33/5
f 22/32/5 12/33/5 23/34/5
f 23/34/5 12/33/5 16/35/5
f 24/36/6 25/37/6 26/38/6
f 25/37/6 24/36/6 27/39/6
f 10/40/6 25/37/6 27/39/6
f 10/40/6 28/41/6 25/37/6
f 10/40/6 29/42/6 28/41/6
f 10/40/6 7/43/6 29/42/6
f 7/43/6 10/40/6 5/44/6
f 10/40/6 27/39/6 30/45/6
f 30/45/6 1/46/6 10/40/6
f 30/45/6 4/47/6 1/46/6
f 30/45/6 31/48/6 4/47/6
f 31/48/6 30/45/6 32/49/6
f 31/50/2 2/51/2 4/52/2
f 2/51/2 31/50/2 33/53/2
f 17/54/1 34/55/1 35/56/1
f 14/57/1 34/55/1 17/54/1
f 11/58/1 34/55/1 14/57/1
f 11/58/1 36/59/1 34/55/1
f 18/60/1 36/59/1 11/58/1
f 36/59/1 18/60/1 37/61/1
f 23/62/3 17/63/3 35/64/3
f 17/63/3 23/62/3 16/65/3
f 38/66/7 39/67/7 40/68/7
f 39/67/7 38/66/7 41/69/7
f 42/70/2 39/71/2 43/72/2
f 39/71/2 42/70/2 40/73/2
f 28/74/3 44/75/3 25/76/3
f 44/75/3 28/74/3 45/77/3
f 46/78/5 27/79/5 24/80/5
f 27/79/5 46/78/5 47/81/5
f 48/82/1 39/83/1 41/84/1
f 39/83/1 48/82/1 43/85/1
f 49/86/8 45/87/8 50/88/8
f 45/87/8 49/86/8 44/89/8
f 51/90/1 32/91/1 30/92/1
f 32/91/1 51/90/1 52/93/1
f 38/94/3 48/95/3 41/96/3
f 48/95/3 38/94/3 53/97/3
f 27/98/3 51/99/3 30/100/3
f 51/99/3 27/98/3 47/101/3
f 50/102/5 28/103/5 29/104/5
f 28/103/5 50/102/5 45/105/5
f 42/106/5 38/107/5 40/108/5
f 38/107/5 42/106/5 53/109/5
f 44/110/1 26/111/1 25/112/1
f 26/111/1 44/110/1 49/113/1
f 20/114/6 54/115/6 19/116/6
f 54/115/6 42/117/6 19/116/6
f 55/118/6 42/117/6 54/115/6
f 56/119/6 55/118/6 54/115/6
f 42/117/6 55/118/6 53/120/6
f 19/116/6 42/117/6 43/121/6
f 43/121/6 18/122/6 19/116/6
f 18/122/6 43/121/6 57/123/6
f 57/123/6 43/121/6 2/124/6
f 2/124/6 43/121/6 48/125/6
f 18/122/6 57/123/6 37/126/6
f 57/123/6 2/124/6 33/127/6
f 2/124/6 48/125/6 3/128/6
f 3/128/6 48/125/6 53/120/6
f 53/120/6 55/118/6 58/129/6
f 53/120/6 58/129/6 59/130/6
f 59/130/6 58/129/6 60/131/6
f 61/132/6 59/130/6 60/131/6
f 53/120/6 59/130/6 15/133/6
f 53/120/6 15/133/6 9/134/6
f 53/120/6 9/134/6 3/128/6
f 52/135/8 47/136/8 46/137/8
f 47/136/8 52/135/8 51/138/8
f 62/139/2 20/140/2 21/141/2
f 20/140/2 62/139/2 54/142/2
f 36/143/2 57/144/2 63/145/2
f 57/144/2 36/143/2 37/146/2
f 31/147/1 57/148/1 33/149/1
f 57/148/1 31/147/1 63/150/1
f 63/150/1 31/147/1 64/151/1
f 64/151/1 31/147/1 65/152/1
f 7/153/3 50/154/3 29/155/3
f 66/156/3 50/154/3 7/153/3
f 23/157/3 50/154/3 66/156/3
f 23/157/3 49/158/9 50/154/3
f 23/159/3 26/160/3 49/161/9
f 35/64/3 26/162/3 23/62/3
f 46/163/3 26/162/3 35/64/3
f 26/162/3 46/163/3 24/164/3
f 35/64/3 52/165/3 46/163/3
f 65/166/3 52/165/3 35/64/3
f 65/166/3 32/167/3 52/165/3
f 32/167/3 65/166/3 31/168/3
f 64/169/4 36/143/4 63/145/4
f 36/143/4 64/169/4 34/170/4
f 22/171/6 66/172/6 67/173/6
f 66/172/6 22/171/6 23/174/6
f 22/175/4 62/139/4 21/141/4
f 62/139/4 22/175/4 67/176/4
f 62/177/5 56/178/5 54/179/5
f 56/178/5 62/177/5 68/180/5
f 68/180/5 62/177/5 69/181/5
f 69/181/5 62/177/5 70/182/5
f 70/182/5 62/177/5 6/183/5
f 6/183/5 62/177/5 7/184/5
f 7/184/5 62/177/5 67/185/5
f 7/184/5 67/185/5 66/186/5
f 61/187/5 69/181/5 70/182/5
f 69/181/5 61/187/5 60/188/5
f 64/189/6 35/190/6 34/191/6
f 35/190/6 64/189/6 65/192/6
f 71/193/10 72/194/10 73/195/10
f 72/194/10 71/193/10 74/196/10
f 58/197/3 69/198/3 60/199/3
f 69/198/3 58/197/3 75/200/3
f 76/201/5 15/19/5 59/202/5
f 15/19/5 76/201/5 8/17/5
f 68/203/6 73/204/6 72/205/6
f 73/204/6 68/203/6 69/206/6
f 73/204/6 69/206/6 77/207/6
f 77/207/6 69/206/6 75/208/6
f 78/209/6 72/205/6 75/208/6
f 72/205/6 78/209/6 68/203/6
f 75/208/6 72/205/6 79/210/6
f 75/208/6 79/210/6 77/207/6
f 74/211/11 79/212/11 72/213/11
f 79/212/11 74/211/11 80/214/11
f 79/215/12 81/216/12 77/217/12
f 81/216/12 79/215/12 80/218/12
f 71/219/6 80/220/6 74/221/6
f 80/220/6 71/219/6 81/222/6
f 78/223/5 58/224/5 55/225/5
f 58/224/5 78/223/5 75/226/5
f 81/227/13 73/228/13 77/229/13
f 73/228/13 81/227/13 71/230/13
f 70/231/6 82/232/6 83/233/6
f 82/232/6 70/231/6 6/234/6
f 82/232/6 6/234/6 84/235/6
f 84/235/6 6/234/6 8/236/6
f 76/237/6 83/233/6 8/236/6
f 83/233/6 76/237/6 70/231/6
f 8/236/6 83/233/6 85/238/6
f 8/236/6 85/238/6 84/235/6
f 78/239/2 56/240/2 68/241/2
f 56/240/2 78/239/2 55/242/2
f 86/243/14 83/244/14 82/245/14
f 83/244/14 86/243/14 87/246/14
f 85/247/15 88/248/15 84/249/15
f 88/248/15 85/247/15 89/250/15
f 76/251/2 61/252/2 70/253/2
f 61/252/2 76/251/2 59/254/2
f 86/255/6 89/256/6 87/257/6
f 89/256/6 86/255/6 88/258/6
f 88/259/16 82/260/16 84/261/16
f 82/260/16 88/259/16 86/262/16
f 87/263/17 85/264/17 83/265/17
f 85/264/17 87/263/17 89/266/17
