# Blender v2.92.0 OBJ File: 'OGConvert.blend'
# www.blender.org
o monorail_trainPassenger
v 2.000000 1.600000 4.000000
v 1.600000 1.200000 4.000000
v 2.000000 1.200000 4.000000
v -1.600000 1.200000 4.000000
v -2.000000 1.200000 4.000000
v -2.000000 1.600000 4.000000
v 1.600000 6.000000 4.000000
v 2.000000 5.200000 -4.000000
v 1.600000 6.000000 -4.000000
v 2.000000 5.200000 -3.200000
v 2.000000 5.200000 -0.200000
v 2.000000 5.200000 0.200000
v 2.000000 5.200000 3.200000
v 2.000000 5.200000 4.000000
v 2.000000 1.200000 -4.000000
v 1.600000 1.200000 -4.000000
v -1.600000 1.200000 -4.000000
v -2.000000 1.200000 -4.000000
v -2.000000 5.200000 -3.200000
v -1.600000 6.000000 -4.000000
v -2.000000 5.200000 -4.000000
v -1.600000 6.000000 4.000000
v -2.000000 5.200000 -0.200000
v -2.000000 5.200000 0.200000
v -2.000000 5.200000 3.200000
v -2.000000 5.200000 4.000000
v -2.000000 1.600000 -4.000000
v -2.000000 1.600000 -3.600000
v -2.000000 2.000000 -3.200000
v -2.000000 2.000000 3.200000
v -2.000000 1.600000 3.600000
v 0.800000 6.000000 -3.200000
v -0.799999 6.000000 -3.200000
v -0.799999 6.000000 3.200000
v 0.800000 6.000000 3.200000
v 2.000000 1.600000 -3.600000
v 2.000000 1.600000 -4.000000
v 2.000000 2.000000 -3.200000
v 2.000000 2.000000 3.200000
v 2.000000 1.600000 3.600000
v 1.760000 5.200000 -0.200000
v 1.760000 5.200000 -3.200000
v 1.760000 5.200000 0.200000
v 1.760000 5.200000 3.200000
v -1.760000 5.200000 -0.200000
v -1.760000 5.200000 -3.200000
v -1.760000 5.200000 0.200000
v -1.760000 5.200000 3.200000
v 0.800000 6.400000 3.200000
v 0.800000 6.400000 -3.200000
v -0.799999 6.400000 -3.200000
v -0.799999 6.400000 3.200000
v 2.000000 3.200000 -3.200000
v 2.000000 3.200000 3.200000
v 2.000000 3.200000 -0.200000
v 2.000000 3.200000 0.200000
v -2.000000 3.200000 0.200000
v -2.000000 3.200000 -0.200000
v -2.000000 3.200000 3.200000
v -2.000000 3.200000 -3.200000
v 1.760000 3.200000 -0.200000
v 1.760000 3.200000 -3.200000
v 1.760000 3.200000 0.200000
v 1.760000 3.200000 3.200000
v -1.760000 3.200000 -3.200000
v -1.760000 3.200000 -0.200000
v -1.760000 3.200000 3.200000
v -1.760000 3.200000 0.200000
v 1.600000 0.800000 -4.000000
v 1.600000 0.800000 4.000000
v 1.200000 0.000000 -4.000000
v 1.200000 -0.000000 4.000000
v 0.800000 -0.000000 4.000000
v 0.800000 0.000000 -4.000000
v 0.800000 0.800000 -4.000000
v 0.800000 0.800000 4.000000
v -0.799999 0.800000 4.000000
v -0.799999 0.800000 -4.000000
v -0.799999 0.000000 -4.000000
v -0.799999 -0.000000 4.000000
v -1.200001 -0.000000 4.000000
v -1.200001 0.000000 -4.000000
v -1.600000 0.800000 -4.000000
v -1.600000 0.800000 4.000000
vt 0.004245 0.683915
vt 0.025896 0.705566
vt 0.004245 0.705566
vt 0.199104 0.705566
vt 0.220755 0.705566
vt 0.220755 0.683915
vt 0.264809 0.437264
vt 0.220490 0.004245
vt 0.264809 0.004245
vt 0.220490 0.047547
vt 0.220490 0.209929
vt 0.220490 0.231580
vt 0.220490 0.393962
vt 0.220490 0.437264
vt 0.901027 0.437264
vt 0.922678 0.004245
vt 0.922678 0.437264
vt 0.901027 0.004245
vt 0.922546 0.878773
vt 0.944197 0.445755
vt 0.944197 0.878773
vt 0.922546 0.445755
vt 0.317618 0.047547
vt 0.273300 0.004245
vt 0.317618 0.004245
vt 0.273300 0.437264
vt 0.317618 0.209929
vt 0.317618 0.231580
vt 0.317618 0.393962
vt 0.317618 0.437264
vt 0.250896 0.445755
vt 0.445755 0.489057
vt 0.229245 0.489057
vt 0.424104 0.445755
vt 0.025896 0.445755
vt 0.220755 0.489057
vt 0.004245 0.489057
vt 0.199104 0.445755
vt 0.533863 0.437264
vt 0.512239 0.004245
vt 0.533863 0.004245
vt 0.512239 0.025896
vt 0.490614 0.047547
vt 0.490614 0.393962
vt 0.461569 0.627453
vt 0.461569 0.688653
vt 0.461569 0.658053
vt 0.512239 0.415613
vt 0.512239 0.437264
vt 0.542354 0.004245
vt 0.585656 0.047547
vt 0.542354 0.437264
vt 0.715561 0.004245
vt 0.672259 0.047547
vt 0.672259 0.393962
vt 0.585656 0.393962
vt 0.715561 0.437264
vt 0.025870 0.025896
vt 0.004245 0.004245
vt 0.025870 0.004245
vt 0.004245 0.437264
vt 0.047494 0.047547
vt 0.047494 0.393962
vt 0.709742 0.627453
vt 0.709742 0.688653
vt 0.709742 0.658053
vt 0.025870 0.415613
vt 0.025870 0.437264
vt 0.229245 0.683915
vt 0.250896 0.705566
vt 0.229245 0.705566
vt 0.424104 0.705566
vt 0.445755 0.705566
vt 0.445755 0.683915
vt 0.301914 0.941391
vt 0.314905 0.779009
vt 0.314905 0.941391
vt 0.301914 0.779009
vt 0.250462 0.941391
vt 0.237471 0.779009
vt 0.250462 0.779009
vt 0.237471 0.941391
vt 0.271943 0.941391
vt 0.258952 0.779009
vt 0.271943 0.779009
vt 0.258952 0.941391
vt 0.323395 0.941391
vt 0.336386 0.779009
vt 0.336386 0.941391
vt 0.323395 0.779009
vt 0.952793 0.350660
vt 0.931168 0.004245
vt 0.952793 0.004245
vt 0.931168 0.350660
vt 0.974311 0.792170
vt 0.952687 0.445754
vt 0.974311 0.445754
vt 0.952687 0.792170
vt 0.628958 0.445755
vt 0.542354 0.792170
vt 0.542354 0.445755
vt 0.628958 0.792170
vt 0.388008 0.779009
vt 0.366357 0.865613
vt 0.366357 0.779009
vt 0.388008 0.865613
vt 0.418149 0.779009
vt 0.396498 0.865613
vt 0.396498 0.779009
vt 0.418149 0.865613
vt 0.461569 0.445755
vt 0.461569 0.618962
vt 0.461569 0.510707
vt 0.112368 0.393962
vt 0.112368 0.209929
vt 0.112368 0.231580
vt 0.425741 0.231580
vt 0.425741 0.209929
vt 0.425741 0.393962
vt 0.709742 0.618962
vt 0.709742 0.445755
vt 0.709742 0.510707
vt 0.426640 0.779009
vt 0.439630 0.887264
vt 0.426640 0.887264
vt 0.439630 0.779009
vt 0.982764 0.112500
vt 0.995755 0.004245
vt 0.995755 0.112500
vt 0.982764 0.004245
vt 0.797272 0.895754
vt 0.810263 0.787500
vt 0.810263 0.895754
vt 0.797272 0.787500
vt 0.448121 0.779009
vt 0.461111 0.887264
vt 0.448121 0.887264
vt 0.461111 0.779009
vt 0.961283 0.004245
vt 0.974274 0.112500
vt 0.961283 0.112500
vt 0.974274 0.004245
vt 0.818753 0.895754
vt 0.831744 0.787500
vt 0.831744 0.895754
vt 0.818753 0.787500
vt 0.840234 0.895754
vt 0.853225 0.787500
vt 0.853225 0.895754
vt 0.840234 0.787500
vt 0.775791 0.787500
vt 0.788782 0.895754
vt 0.775791 0.895754
vt 0.788782 0.787500
vt 0.112368 0.047547
vt 0.425741 0.047547
vt 0.982764 0.274882
vt 0.995755 0.274882
vt 0.357867 0.779009
vt 0.344876 0.941391
vt 0.344876 0.779009
vt 0.357867 0.941391
vt 0.961283 0.274882
vt 0.974274 0.274882
vt 0.293424 0.779009
vt 0.280433 0.941391
vt 0.280433 0.779009
vt 0.293424 0.941391
vt 0.533863 0.878773
vt 0.512239 0.445755
vt 0.533863 0.445755
vt 0.512239 0.878773
vt 0.470060 0.445755
vt 0.470060 0.878773
vt 0.892404 0.878773
vt 0.914055 0.445755
vt 0.914055 0.878773
vt 0.892404 0.445755
vt 0.767301 0.878773
vt 0.724052 0.445755
vt 0.767301 0.445755
vt 0.724052 0.878773
vt 0.724052 0.437264
vt 0.810656 0.004245
vt 0.810656 0.437264
vt 0.724052 0.004245
vt 0.862395 0.437264
vt 0.819146 0.004245
vt 0.862395 0.004245
vt 0.819146 0.437264
vt 0.870885 0.437264
vt 0.892537 0.004245
vt 0.892537 0.437264
vt 0.870886 0.004245
vt 0.701252 0.878773
vt 0.659073 0.445755
vt 0.701252 0.445755
vt 0.659073 0.878773
vt 0.637448 0.445755
vt 0.637448 0.878773
vt 0.025896 0.727217
vt 0.069198 0.770519
vt 0.047547 0.770519
vt 0.069198 0.727217
vt 0.155802 0.727217
vt 0.199104 0.727217
vt 0.177453 0.770519
vt 0.155802 0.770519
vt 0.250896 0.727217
vt 0.294198 0.770519
vt 0.272547 0.770519
vt 0.294198 0.727217
vt 0.380802 0.727217
vt 0.424104 0.727217
vt 0.402453 0.770519
vt 0.380802 0.770519
vt 0.883914 0.608137
vt 0.775791 0.445755
vt 0.883914 0.445755
vt 0.775791 0.608137
vt 0.883914 0.779009
vt 0.775791 0.616627
vt 0.883914 0.616627
vt 0.775791 0.779009
vt 0.228981 0.941391
vt 0.120858 0.779009
vt 0.228981 0.779009
vt 0.120858 0.941391
vt 0.112368 0.941391
vt 0.004245 0.779009
vt 0.112368 0.779009
vt 0.004245 0.941391
vn 0.0000 0.0000 1.0000
vn 0.8944 0.4472 0.0000
vn 0.0000 -1.0000 -0.0000
vn -0.8944 0.4472 0.0000
vn 0.0000 0.0000 -1.0000
vn -1.0000 -0.0000 0.0000
vn 0.0000 1.0000 0.0000
vn 1.0000 0.0000 0.0000
vn 0.8944 -0.4472 -0.0000
vn -0.8944 -0.4472 -0.0000
s 1
f 1/1/1 2/2/1 3/3/1
f 2/2/1 1/1/1 4/4/1
f 4/4/1 1/1/1 5/5/1
f 5/5/1 1/1/1 6/6/1
f 7/7/2 8/8/2 9/9/2
f 8/8/2 7/7/2 10/10/2
f 10/10/2 7/7/2 11/11/2
f 11/11/2 7/7/2 12/12/2
f 12/12/2 7/7/2 13/13/2
f 13/13/2 7/7/2 14/14/2
f 2/15/3 15/16/3 3/17/3
f 15/16/3 2/15/3 16/18/3
f 5/19/3 17/20/3 4/21/3
f 17/20/3 5/19/3 18/22/3
f 19/23/4 20/24/4 21/25/4
f 20/24/4 19/23/4 22/26/4
f 22/26/4 19/23/4 23/27/4
f 22/26/4 23/27/4 24/28/4
f 22/26/4 24/28/4 25/29/4
f 22/26/4 25/29/4 26/30/4
f 20/31/5 8/32/5 21/33/5
f 8/32/5 20/31/5 9/34/5
f 7/35/1 26/36/1 14/37/1
f 26/36/1 7/35/1 22/38/1
f 5/39/6 27/40/6 18/41/6
f 27/40/6 5/39/6 28/42/6
f 28/42/6 5/39/6 29/43/6
f 29/43/6 5/39/6 30/44/6
f 30/45/6 5/46/6 31/47/6
f 31/48/6 5/39/6 6/49/6
f 9/50/7 32/51/7 7/52/7
f 32/51/7 9/50/7 20/53/7
f 32/51/7 20/53/7 33/54/7
f 33/54/7 20/53/7 34/55/7
f 35/56/7 7/52/7 32/51/7
f 7/52/7 35/56/7 22/57/7
f 22/57/7 35/56/7 34/55/7
f 22/57/7 34/55/7 20/53/7
f 36/58/8 15/59/8 37/60/8
f 15/59/8 36/58/8 3/61/8
f 3/61/8 36/58/8 38/62/8
f 3/61/8 38/62/8 39/63/8
f 3/64/8 39/65/8 40/66/8
f 3/61/8 40/67/8 1/68/8
f 27/69/5 17/70/5 18/71/5
f 17/70/5 27/69/5 16/72/5
f 16/72/5 27/69/5 15/73/5
f 15/73/5 27/69/5 37/74/5
f 41/75/3 10/76/3 11/77/3
f 10/76/3 41/75/3 42/78/3
f 13/79/3 43/80/3 12/81/3
f 43/80/3 13/79/3 44/82/3
f 45/83/3 19/84/3 46/85/3
f 19/84/3 45/83/3 23/86/3
f 25/87/3 47/88/3 48/89/3
f 47/88/3 25/87/3 24/90/3
f 49/91/8 32/92/8 50/93/8
f 32/92/8 49/91/8 35/94/8
f 34/95/6 51/96/6 33/97/6
f 51/96/6 34/95/6 52/98/6
f 51/99/7 49/100/7 50/101/7
f 49/100/7 51/99/7 52/102/7
f 21/33/5 37/74/5 27/69/5
f 37/74/5 21/33/5 8/32/5
f 49/103/1 34/104/1 35/105/1
f 34/104/1 49/103/1 52/106/1
f 51/107/5 32/108/5 33/109/5
f 32/108/5 51/107/5 50/110/5
f 14/37/1 6/6/1 1/1/1
f 6/6/1 14/37/1 26/36/1
f 10/10/8 37/60/8 8/8/8
f 37/60/8 10/10/8 36/58/8
f 36/58/8 10/10/8 38/62/8
f 38/111/8 10/112/8 53/113/6
f 14/14/8 54/114/8 13/13/8
f 54/114/8 14/14/8 39/63/8
f 39/63/8 14/14/8 40/67/8
f 40/67/8 14/14/8 1/68/8
f 12/12/8 55/115/8 11/11/8
f 55/115/8 12/12/8 56/116/8
f 57/117/6 23/27/6 58/118/6
f 23/27/6 57/117/6 24/28/6
f 31/48/6 59/119/6 30/44/6
f 59/119/6 31/48/6 25/29/6
f 25/29/6 31/48/6 26/30/6
f 26/30/6 31/48/6 6/49/6
f 28/42/6 21/25/6 27/40/6
f 21/25/6 28/42/6 19/23/6
f 19/23/6 28/42/6 29/43/6
f 19/120/6 29/121/6 60/122/8
f 41/123/5 55/124/5 61/125/5
f 55/124/5 41/123/5 11/126/5
f 53/127/1 42/128/1 62/129/1
f 42/128/1 53/127/1 10/130/1
f 56/131/1 43/132/1 63/133/1
f 43/132/1 56/131/1 12/134/1
f 44/135/5 54/136/5 64/137/5
f 54/136/5 44/135/5 13/138/5
f 46/139/1 60/140/1 65/141/1
f 60/140/1 46/139/1 19/142/1
f 58/143/5 45/144/5 66/145/5
f 45/144/5 58/143/5 23/146/5
f 59/147/5 48/148/5 67/149/5
f 48/148/5 59/147/5 25/150/5
f 47/151/1 57/152/1 68/153/1
f 57/152/1 47/151/1 24/154/1
f 55/115/8 38/62/8 53/155/6
f 38/62/8 55/115/8 39/63/8
f 39/63/8 55/115/8 56/116/8
f 39/63/8 56/116/8 54/114/8
f 30/44/6 60/156/8 29/43/6
f 60/156/8 30/44/6 58/118/6
f 58/118/6 30/44/6 57/117/6
f 57/117/6 30/44/6 59/119/6
f 62/129/7 55/157/7 53/127/7
f 55/157/7 62/129/7 61/158/7
f 63/159/7 54/160/7 56/161/7
f 54/160/7 63/159/7 64/162/7
f 60/140/7 66/163/7 65/141/7
f 66/163/7 60/140/7 58/164/7
f 57/165/7 67/166/7 68/167/7
f 67/166/7 57/165/7 59/168/7
f 2/169/8 69/170/8 16/171/8
f 69/170/8 2/169/8 70/172/8
f 70/172/9 71/173/9 69/170/9
f 71/173/9 70/172/9 72/174/9
f 73/175/3 71/176/3 72/177/3
f 71/176/3 73/175/3 74/178/3
f 73/179/6 75/180/6 74/181/6
f 75/180/6 73/179/6 76/182/6
f 77/183/3 75/184/3 76/185/3
f 75/184/3 77/183/3 78/186/3
f 77/187/8 79/188/8 78/189/8
f 79/188/8 77/187/8 80/190/8
f 81/191/3 79/192/3 80/193/3
f 79/192/3 81/191/3 82/194/3
f 81/195/10 83/196/10 82/197/10
f 83/196/10 81/195/10 84/198/10
f 84/198/6 17/199/6 83/196/6
f 17/199/6 84/198/6 4/200/6
f 70/201/1 73/202/1 72/203/1
f 73/202/1 70/201/1 76/204/1
f 76/204/1 70/201/1 2/2/1
f 76/204/1 2/2/1 77/205/1
f 77/205/1 2/2/1 84/206/1
f 84/206/1 2/2/1 4/4/1
f 81/207/1 77/205/1 84/206/1
f 77/205/1 81/207/1 80/208/1
f 83/209/5 79/210/5 82/211/5
f 79/210/5 83/209/5 78/212/5
f 78/212/5 83/209/5 17/70/5
f 78/212/5 17/70/5 75/213/5
f 75/213/5 17/70/5 69/214/5
f 69/214/5 17/70/5 16/72/5
f 71/215/5 75/213/5 69/214/5
f 75/213/5 71/215/5 74/216/5
f 41/217/8 62/218/8 42/219/8
f 62/218/8 41/217/8 61/220/8
f 44/221/8 63/222/8 43/223/8
f 63/222/8 44/221/8 64/224/8
f 66/225/6 46/226/6 65/227/6
f 46/226/6 66/225/6 45/228/6
f 67/229/6 47/230/6 68/231/6
f 47/230/6 67/229/6 48/232/6
