# Blender v2.92.0 OBJ File: 'kenney_OGConvert.blend'
# www.blender.org
o rock_largeA
v 0.393693 0.358887 -0.060791
v 0.309646 0.215332 -0.206366
v 0.309646 0.358887 -0.206366
v 0.393693 0.215332 -0.060791
v 0.133066 0.215332 -0.191671
v 0.141550 0.358887 -0.206366
v 0.141550 0.215332 -0.206366
v 0.122059 0.358887 -0.172606
v 0.122059 0.300000 -0.172606
v 0.309646 0.358887 0.084785
v 0.309646 0.215332 0.084785
v 0.226196 0.215332 0.084785
v 0.204182 0.300000 0.084785
v 0.204182 0.358887 0.084785
v 0.339176 0.000000 -0.257514
v 0.112019 0.000000 -0.257514
v -0.091213 0.300000 0.211909
v -0.202213 0.500000 0.019651
v -0.202213 0.300000 0.019651
v -0.091213 0.500000 0.211909
v -0.091213 0.500000 -0.172606
v -0.004419 0.328050 -0.172606
v -0.091213 0.328050 -0.172606
v 0.130787 0.358887 -0.172606
v 0.130787 0.500000 -0.172606
v -0.004419 0.300000 -0.172606
v 0.339176 -0.000000 0.135933
v 0.452754 0.000000 -0.060791
v 0.289724 -0.000000 0.135933
v 0.097525 -0.000000 0.431819
v 0.289995 -0.000000 0.380247
v 0.341568 -0.000000 0.187776
v 0.101998 0.000000 -0.240156
v 0.041683 0.000000 -0.240156
v -0.040302 -0.000000 0.279459
v -0.043373 -0.000000 0.290921
v -0.051778 0.000000 -0.402036
v -0.130213 -0.000000 0.279459
v -0.294778 0.000000 -0.402036
v -0.204656 -0.000000 0.150520
v -0.253098 -0.000000 0.188640
v -0.438108 -0.000000 0.114641
v -0.388701 0.000000 -0.143826
v -0.466528 0.000000 -0.082582
v -0.416278 0.000000 -0.191591
v -0.263188 0.196830 -0.347320
v -0.353098 0.196830 -0.191591
v 0.006542 0.328050 -0.191591
v -0.083368 0.196830 -0.347320
v -0.083368 0.328050 -0.347320
v 0.004091 0.196830 -0.195837
v 0.006542 0.215683 -0.191591
v 0.130787 0.500000 0.211909
v 0.241787 0.358887 0.019651
v 0.241787 0.500000 0.019651
v 0.130787 0.300000 0.211909
v -0.170162 0.328050 -0.035863
v -0.170162 0.300000 -0.035863
v -0.263188 0.196830 -0.035863
v -0.353098 0.328050 -0.191591
v -0.263188 0.328050 -0.035863
v -0.263188 0.328050 -0.347320
v -0.196986 0.196830 -0.035863
v 0.225970 0.103296 0.135629
v 0.246404 0.050858 0.123852
v 0.291526 0.103296 0.201185
v 0.214619 0.172161 0.124278
v 0.147406 0.172161 0.240694
v 0.012380 0.103296 0.256200
v 0.016535 0.172161 0.240694
v -0.207359 0.172161 -0.029005
v -0.235451 0.172161 0.019651
v -0.260487 0.103296 0.137362
v -0.208854 0.103296 0.096731
v -0.343237 0.103296 -0.122510
v -0.328038 0.172161 -0.134470
v -0.267148 0.172161 -0.029005
v 0.253362 0.103296 0.343613
v -0.418426 0.103296 -0.063342
v 0.291526 0.172161 0.201185
v 0.253362 0.172161 0.343613
v 0.110934 0.103296 0.381777
v 0.110934 0.172161 0.381777
v -0.397395 0.103296 0.082603
v -0.418426 0.172161 -0.063342
v -0.196543 0.172161 0.087043
v 0.006669 0.103296 0.277512
v 0.006669 0.172161 0.277512
v -0.260487 0.172161 0.137362
v -0.397395 0.172161 0.082603
vt 0.681692 0.727574
vt 0.771186 0.639665
vt 0.776552 0.720191
vt 0.676326 0.647047
vt 0.318338 0.781979
vt 0.333631 0.702085
vt 0.327916 0.782747
vt 0.311627 0.700322
vt 0.309282 0.733410
vt 0.642749 0.082519
vt 0.575039 0.036414
vt 0.655562 0.036198
vt 0.562227 0.082735
vt 0.562227 0.130109
vt 0.609718 0.142479
vt 0.642749 0.142390
vt 0.825922 0.647047
vt 0.777236 0.513688
vt 0.851203 0.523664
vt 0.598529 0.308958
vt 0.727634 0.373512
vt 0.615451 0.373812
vt 0.710713 0.308657
vt 0.302865 0.657601
vt 0.202599 0.692290
vt 0.206410 0.664028
vt 0.214342 0.732322
vt 0.213959 0.735164
vt 0.293116 0.729890
vt 0.181310 0.734523
vt 0.186864 0.693339
vt 0.208358 0.475311
vt 0.417892 0.397854
vt 0.335485 0.497070
vt 0.198623 0.448975
vt 0.373172 0.276880
vt 0.003209 0.404869
vt 0.068565 0.497218
vt 0.181220 0.486792
vt 0.361955 0.274961
vt 0.350081 0.242839
vt 0.057215 0.301473
vt 0.050507 0.302094
vt 0.417892 0.161197
vt 0.039515 0.253590
vt 0.370053 0.031785
vt 0.093527 0.188561
vt 0.063689 0.170267
vt 0.066675 0.057171
vt 0.214051 0.032599
vt 0.166113 0.003209
vt 0.234060 0.008509
vt 0.871656 0.189183
vt 0.750720 0.303958
vt 0.734052 0.189183
vt 0.852548 0.303958
vt 0.200673 0.687057
vt 0.119169 0.590485
vt 0.192776 0.585581
vt 0.126851 0.689195
vt 0.137642 0.691257
vt 0.649046 0.523664
vt 0.710713 0.182628
vt 0.648481 0.121666
vt 0.727634 0.121454
vt 0.598529 0.182929
vt 0.127066 0.531932
vt 0.003209 0.582761
vt 0.013880 0.503635
vt 0.831287 0.727574
vt 0.011418 0.688245
vt 0.131882 0.732432
vt 0.008769 0.707885
vt 0.773721 0.808443
vt 0.738359 0.825944
vt 0.737462 0.810169
vt 0.780115 0.920921
vt 0.654544 0.926898
vt 0.649046 0.830195
vt 0.898363 0.596171
vt 0.966630 0.520662
vt 0.952556 0.592908
vt 0.912438 0.523925
vt 0.223708 0.860443
vt 0.302865 0.855169
vt 0.200673 0.527027
vt 0.340048 0.761663
vt 0.346084 0.700322
vt 0.346084 0.763350
vt 0.340048 0.745929
vt 0.861493 0.588885
vt 0.857620 0.529131
vt 0.860629 0.513688
vt 0.454256 0.003209
vt 0.436941 0.065804
vt 0.322317 0.907641
vt 0.333631 0.908548
vt 0.751402 0.377871
vt 0.853229 0.377871
vt 0.043031 0.993276
vt 0.107559 0.981609
vt 0.074216 0.996646
vt 0.051670 0.942220
vt 0.114391 0.941232
vt 0.534535 0.136368
vt 0.466532 0.118510
vt 0.524289 0.173411
vt 0.494909 0.129919
vt 0.484297 0.250020
vt 0.424309 0.330902
vt 0.424309 0.279860
vt 0.524289 0.247706
vt 0.436941 0.093878
vt 0.748335 0.735503
vt 0.742622 0.750084
vt 0.780115 0.733991
vt 0.435657 0.374397
vt 0.494756 0.406063
vt 0.432302 0.401533
vt 0.498332 0.377140
vt 0.935204 0.649156
vt 0.934442 0.608558
vt 0.950008 0.709230
vt 0.966630 0.708229
vt 0.897741 0.610768
vt 0.112834 0.866860
vt 0.050517 0.887185
vt 0.926155 0.403799
vt 0.980046 0.350037
vt 0.988263 0.403046
vt 0.918217 0.352586
vt 0.013343 0.936748
vt 0.003209 0.996646
vt 0.417156 0.528629
vt 0.371875 0.607420
vt 0.378557 0.527136
vt 0.410474 0.608912
vt 0.988263 0.487129
vt 0.926155 0.466020
vt 0.878074 0.346648
vt 0.887616 0.408213
vt 0.438815 0.507271
vt 0.499576 0.484309
vt 0.537812 0.370140
vt 0.543744 0.392873
vt 0.747921 0.385408
vt 0.745708 0.448288
vt 0.734052 0.450370
vt 0.754190 0.384288
vt 0.012191 0.881714
vt 0.417156 0.669429
vt 0.378557 0.667936
vt 0.754190 0.486140
vt 0.734052 0.489738
vt 0.864443 0.604189
vt 0.318312 0.693905
vt 0.309282 0.612126
vt 0.318312 0.503635
vt 0.533383 0.405960
vt 0.538203 0.484206
vt 0.887616 0.470434
vt 0.533469 0.765783
vt 0.642629 0.576712
vt 0.642629 0.702759
vt 0.424309 0.702759
vt 0.533469 0.513688
vt 0.424309 0.576712
vt 0.734052 0.054258
vt 0.744831 0.162580
vt 0.734052 0.156356
vt 0.787509 0.137940
vt 0.822471 0.003209
vt 0.865149 0.182765
vt 0.910891 0.156356
vt 0.910891 0.054258
vt 0.806871 0.763002
vt 0.857119 0.920489
vt 0.786532 0.856251
vt 0.897796 0.733991
vt 0.882583 0.873546
vt 0.909444 0.750394
vt 0.914165 0.748888
vt 0.914165 0.902288
vt 0.542819 0.787721
vt 0.424309 0.831855
vt 0.483048 0.772200
vt 0.446602 0.912553
vt 0.505170 0.854113
vt 0.542819 0.918175
vt 0.527635 0.933596
vt 0.974453 0.262726
vt 0.965494 0.230996
vt 0.996791 0.237166
vt 0.905815 0.197720
vt 0.878074 0.276710
vt 0.996791 0.328163
vt 0.932611 0.340231
vt 0.951219 0.189183
vn 0.8660 -0.0000 -0.5000
vn -0.8660 0.0000 -0.5000
vn 0.8660 -0.0000 0.5000
vn 0.0000 -0.0000 1.0000
vn -0.0000 0.2311 -0.9729
vn -0.8660 -0.0000 0.5000
vn -0.0000 0.0000 -1.0000
vn -0.0000 -1.0000 -0.0000
vn -0.8344 0.2678 -0.4817
vn 0.8426 0.2311 -0.4865
vn -0.0000 0.2678 -0.9635
vn -0.0000 0.2197 -0.9756
vn 0.8344 0.2678 -0.4817
vn 0.8426 0.2311 0.4865
vn -0.8426 0.2311 -0.4865
vn 0.6486 0.3984 -0.6486
vn 0.8449 0.2197 0.4878
vn 0.0000 0.2197 0.9756
vn 0.0000 0.2311 0.9729
vn -0.8449 0.2197 -0.4878
vn 0.5672 0.3984 0.7208
vn -0.8344 0.2678 0.4817
vn 0.8860 0.3984 0.2374
vn -0.5672 0.3984 -0.7208
vn 0.7071 -0.0000 -0.7071
vn 0.2588 0.0000 0.9659
vn -0.9078 0.3984 0.1308
vn -0.6184 -0.0000 -0.7859
vn -0.3406 0.3984 0.8516
vn -0.8449 0.2197 0.4878
vn -0.8860 0.3984 -0.2374
vn 0.9659 0.0000 0.2588
vn -0.7071 0.0000 0.7071
vn -0.9659 -0.0000 -0.2588
vn 0.0000 0.2678 0.9635
vn -0.6486 0.3984 0.6486
vn 0.2374 0.3984 0.8860
vn 0.6184 0.0000 0.7859
vn -0.3714 -0.0000 0.9285
vn -0.9898 -0.0000 0.1426
vn 0.0000 1.0000 0.0000
s 1
f 1/1/1 2/2/1 3/3/1
f 2/2/1 1/1/1 4/4/1
f 5/5/2 6/6/2 7/7/2
f 6/6/2 5/5/2 8/8/2
f 8/8/2 5/5/2 9/9/2
f 10/10/3 4/11/3 1/12/3
f 4/11/3 10/10/3 11/13/3
f 10/10/4 12/14/4 11/13/4
f 12/14/4 10/10/4 13/15/4
f 13/15/4 10/10/4 14/16/4
f 7/17/5 15/18/5 16/19/5
f 15/18/5 7/17/5 2/2/5
f 17/20/6 18/21/6 19/22/6
f 18/21/6 17/20/6 20/23/6
f 21/24/7 22/25/7 23/26/7
f 22/25/7 21/24/7 8/27/7
f 8/27/7 21/24/7 24/28/7
f 24/28/7 21/24/7 25/29/7
f 9/30/7 22/25/7 8/27/7
f 22/25/7 9/30/7 26/31/7
f 27/32/8 15/33/8 28/34/8
f 15/33/8 27/32/8 29/35/8
f 15/33/8 29/35/8 16/36/8
f 29/35/8 30/37/8 16/36/8
f 29/35/8 31/38/8 30/37/8
f 31/38/8 29/35/8 32/39/8
f 16/36/8 30/37/8 33/40/8
f 33/40/8 30/37/8 34/41/8
f 34/41/8 30/37/8 35/42/8
f 35/42/8 30/37/8 36/43/8
f 35/42/8 37/44/8 34/41/8
f 37/44/8 35/42/8 38/45/8
f 37/44/8 38/45/8 39/46/8
f 39/46/8 38/45/8 40/47/8
f 39/46/8 40/47/8 41/48/8
f 39/46/8 41/48/8 42/49/8
f 39/46/8 42/49/8 43/50/8
f 43/50/8 42/49/8 44/51/8
f 45/52/8 39/46/8 43/50/8
f 45/53/9 46/54/9 39/55/9
f 46/54/9 45/53/9 47/56/9
f 48/57/1 49/58/1 50/59/1
f 49/58/1 48/57/1 51/60/1
f 51/60/1 48/57/1 52/61/1
f 2/2/10 28/62/10 15/18/10
f 28/62/10 2/2/10 4/4/10
f 53/63/3 54/64/3 55/65/3
f 54/64/3 53/63/3 14/16/3
f 56/66/3 14/16/3 53/63/3
f 14/16/3 56/66/3 13/15/3
f 46/67/11 37/68/11 39/69/11
f 37/68/11 46/67/11 49/58/11
f 6/70/7 2/2/7 7/17/7
f 2/2/7 6/70/7 3/3/7
f 34/71/12 5/72/12 33/73/12
f 5/72/12 34/71/12 51/60/12
f 5/72/12 51/60/12 52/61/12
f 5/72/12 52/61/12 9/30/12
f 9/30/12 52/61/12 26/31/12
f 19/74/2 57/75/2 58/76/2
f 18/77/2 57/75/2 19/74/2
f 21/78/2 57/75/2 18/77/2
f 57/75/2 21/78/2 23/79/2
f 59/80/6 60/81/6 47/82/6
f 60/81/6 59/80/6 61/83/6
f 25/29/1 54/84/1 24/28/1
f 54/84/1 25/29/1 55/85/1
f 62/86/7 49/58/7 46/67/7
f 49/58/7 62/86/7 50/59/7
f 49/58/13 34/71/13 37/68/13
f 34/71/13 49/58/13 51/60/13
f 22/87/3 52/88/3 48/89/3
f 52/88/3 22/87/3 26/90/3
f 63/91/4 61/83/4 59/80/4
f 61/83/4 63/91/4 58/92/4
f 61/83/4 58/92/4 57/93/4
f 11/13/14 28/94/14 4/11/14
f 28/94/14 11/13/14 27/95/14
f 33/96/15 7/7/15 16/97/15
f 7/7/15 33/96/15 5/5/15
f 53/63/4 17/20/4 56/66/4
f 17/20/4 53/63/4 20/23/4
f 47/56/2 62/98/2 46/54/2
f 62/98/2 47/56/2 60/99/2
f 64/100/16 29/101/16 65/102/16
f 29/101/16 64/100/16 66/103/16
f 29/101/16 66/103/16 32/104/16
f 56/66/17 12/14/17 13/15/17
f 12/14/17 56/66/17 67/105/17
f 12/14/17 67/105/17 65/106/17
f 67/105/17 56/66/17 68/107/17
f 64/108/17 65/106/17 67/105/17
f 69/109/18 38/110/18 35/111/18
f 38/110/18 69/109/18 17/20/18
f 17/20/18 69/109/18 70/112/18
f 17/20/18 70/112/18 68/107/18
f 17/20/18 68/107/18 56/66/18
f 11/13/19 29/113/19 27/95/19
f 29/113/19 11/13/19 65/106/19
f 65/106/19 11/13/19 12/14/19
f 71/114/20 58/76/20 63/115/20
f 58/76/20 71/114/20 19/74/20
f 19/74/20 71/114/20 72/116/20
f 40/117/21 73/118/21 41/119/21
f 73/118/21 40/117/21 74/120/21
f 75/121/22 76/122/22 43/123/22
f 76/122/22 45/124/22 43/123/22
f 76/122/22 47/82/22 45/124/22
f 47/82/22 76/122/22 59/80/22
f 59/80/22 76/122/22 77/125/22
f 66/103/23 31/126/23 32/104/23
f 31/126/23 66/103/23 78/127/23
f 79/128/24 43/129/24 44/130/24
f 43/129/24 79/128/24 75/131/24
f 80/132/25 64/100/25 67/133/25
f 64/100/25 80/132/25 66/103/25
f 81/134/26 82/135/26 78/136/26
f 82/135/26 81/134/26 83/137/26
f 42/138/27 79/128/27 44/130/27
f 79/128/27 42/138/27 84/139/27
f 79/128/28 76/140/28 75/131/28
f 76/140/28 79/128/28 85/141/28
f 73/118/29 42/142/29 41/119/29
f 42/142/29 73/118/29 84/143/29
f 86/144/30 19/22/30 72/145/30
f 19/22/30 86/144/30 17/20/30
f 17/20/30 86/144/30 74/120/30
f 17/20/30 74/120/30 40/117/30
f 17/20/30 40/117/30 38/110/30
f 35/146/31 87/147/31 69/148/31
f 87/147/31 35/146/31 36/149/31
f 81/150/32 66/103/32 80/132/32
f 66/103/32 81/150/32 78/127/32
f 82/135/33 88/151/33 87/152/33
f 88/151/33 82/135/33 83/137/33
f 69/148/34 88/153/34 70/154/34
f 88/153/34 69/148/34 87/147/34
f 63/91/35 77/125/35 71/155/35
f 77/125/35 63/91/35 59/80/35
f 36/156/36 82/135/36 87/152/36
f 82/135/36 36/156/36 30/157/36
f 78/136/37 30/157/37 31/158/37
f 30/157/37 78/136/37 82/135/37
f 86/144/38 73/118/38 74/120/38
f 73/118/38 86/144/38 89/159/38
f 89/159/39 84/143/39 73/118/39
f 84/143/39 89/159/39 90/160/39
f 84/139/40 85/141/40 79/128/40
f 85/141/40 84/139/40 90/161/40
f 25/162/41 53/163/41 55/164/41
f 53/163/41 25/162/41 21/165/41
f 53/163/41 21/165/41 20/166/41
f 20/166/41 21/165/41 18/167/41
f 50/168/41 22/169/41 48/170/41
f 22/169/41 50/168/41 23/171/41
f 23/171/41 50/168/41 62/172/41
f 23/171/41 62/172/41 57/173/41
f 57/173/41 62/172/41 61/174/41
f 61/174/41 62/172/41 60/175/41
f 3/176/41 10/177/41 1/178/41
f 10/177/41 3/176/41 6/179/41
f 10/177/41 6/179/41 54/180/41
f 54/180/41 6/179/41 24/181/41
f 24/181/41 6/179/41 8/182/41
f 14/183/41 10/177/41 54/180/41
f 67/184/41 81/185/41 80/186/41
f 81/185/41 67/184/41 83/187/41
f 83/187/41 67/184/41 68/188/41
f 83/187/41 68/188/41 70/189/41
f 83/187/41 70/189/41 88/190/41
f 77/191/41 72/192/41 71/193/41
f 72/192/41 77/191/41 89/194/41
f 89/194/41 77/191/41 90/195/41
f 90/195/41 77/191/41 76/196/41
f 90/195/41 76/196/41 85/197/41
f 89/194/41 86/198/41 72/192/41
