# Blender v2.92.0 OBJ File: 'OGConvert.blend'
# www.blender.org
o rock_largeB
v 1.699843 1.240320 -1.315846
v 2.070581 0.744192 -1.686583
v 2.070581 1.240320 -1.686583
v 1.781622 0.744192 -1.397625
v 2.176502 4.000000 0.031993
v 1.288502 2.400000 -1.506068
v 1.288502 4.000000 -1.506068
v 2.176502 2.400000 0.031993
v 1.288502 4.000000 1.570055
v -0.487497 2.400000 1.570055
v 1.288502 2.400000 1.570055
v -0.487497 4.000000 1.570055
v -1.068133 3.200000 0.564367
v -1.068133 2.400000 0.564367
v -1.375498 4.000000 0.031993
v -1.375498 3.200000 0.031993
v -0.145655 0.744192 -2.842696
v 0.384407 1.240320 -3.372758
v 0.384407 0.744192 -3.372758
v -0.285294 1.240320 -2.703056
v 1.714250 0.744192 -3.016427
v 1.714250 1.240320 -3.016427
v 2.056295 0.000000 -3.358473
v 0.259210 0.000000 -3.840000
v 1.439261 1.240320 -1.767189
v 2.121138 0.000000 -1.144701
v 2.800502 -0.000000 0.031993
v 2.537822 0.000000 -1.561387
v 0.746036 0.744192 1.942887
v -0.799498 -0.000000 2.110454
v 0.357239 -0.000000 2.110454
v 0.716103 1.240320 1.831176
v 1.439261 1.240320 1.831176
v 2.215084 0.744192 0.710832
v 3.278473 -0.000000 0.562070
v 2.599500 -0.000000 0.380139
v 2.936427 0.744192 0.904114
v 2.319244 0.744192 3.207471
v 0.647356 -0.000000 3.193186
v 2.444442 -0.000000 3.674713
v 0.989401 0.744192 2.851141
v 2.936427 1.240320 0.904114
v 2.103373 1.240320 0.680899
v -0.487497 4.000000 -1.506068
v 0.624711 3.200000 -1.506068
v -0.487497 3.200000 -1.506068
v 0.624711 2.400000 -1.506068
v -1.731922 1.920000 -2.511755
v -0.528635 0.000000 -3.052154
v -2.043922 0.000000 -3.052154
v 0.044077 1.920000 -2.511755
v 0.154526 1.240320 -2.703056
v 0.044077 3.200000 -2.511755
v 0.562311 1.920000 -1.614148
v 3.760000 -0.000000 2.359156
v 3.292757 0.744192 2.233958
v -2.619922 1.920000 -0.973694
v -1.731922 3.200000 -2.511755
v -2.619922 3.200000 -0.973693
v 2.319244 1.240320 3.207471
v 3.292757 1.240320 2.233958
v 0.989401 1.240320 2.851141
v 0.694849 1.240320 -1.767189
v -3.243923 0.000000 -0.973694
v -1.126371 2.176000 0.564367
v -0.887184 2.176000 0.978651
v -0.851410 2.115980 1.067645
v -0.972758 1.305600 1.222406
v -0.970234 -0.000000 1.814730
v -1.731922 2.176000 0.564367
v -1.731922 3.200000 0.564367
v -2.158699 1.920000 -0.174830
v -2.533188 1.011129 -0.311845
v -2.875810 0.000000 -0.336104
v -2.376255 1.305600 -0.205793
v -1.596592 2.176000 2.018010
v -0.851410 2.176000 1.067645
v -1.596592 1.305600 2.018010
v -3.242672 1.305600 0.727318
v -2.497490 2.176000 -0.223048
v -2.497490 1.305600 -0.223048
v -3.242672 2.176000 0.727318
v -2.158699 2.176000 -0.174830
v -2.792223 1.305600 1.847847
v -2.792223 2.176000 1.847847
v -3.054043 -0.000000 2.181759
v -3.662760 -0.000000 0.667530
v -1.438326 -0.000000 2.411710
vt 0.010216 0.941552
vt 0.021251 0.905444
vt 0.033403 0.937050
vt 0.003178 0.908953
vt 0.486944 0.531271
vt 0.589949 0.656140
vt 0.481287 0.653084
vt 0.595605 0.534328
vt 0.483272 0.328099
vt 0.595044 0.206882
vt 0.592474 0.328976
vt 0.485842 0.206004
vt 0.531058 0.160389
vt 0.585659 0.160827
vt 0.471489 0.135571
vt 0.526090 0.136009
vt 0.067281 0.771010
vt 0.098686 0.824479
vt 0.064961 0.822152
vt 0.101617 0.759865
vt 0.471489 0.458886
vt 0.580151 0.461943
vt 0.947204 0.858249
vt 0.904634 0.767069
vt 0.938265 0.764804
vt 0.913574 0.860514
vt 0.913574 0.706436
vt 0.847906 0.758939
vt 0.859986 0.677002
vt 0.672990 0.634899
vt 0.671330 0.670645
vt 0.761688 0.614739
vt 0.766016 0.521546
vt 0.707917 0.638734
vt 0.033403 0.845430
vt 0.007342 0.850490
vt 0.947204 0.704171
vt 0.859986 0.885215
vt 0.710061 0.294867
vt 0.764793 0.190046
vt 0.763119 0.269569
vt 0.675107 0.291855
vt 0.674061 0.341570
vt 0.706354 0.493562
vt 0.770009 0.474780
vt 0.762517 0.505162
vt 0.714313 0.461284
vt 0.301126 0.879134
vt 0.255273 0.996822
vt 0.245135 0.870725
vt 0.308628 0.972446
vt 0.680619 0.460336
vt 0.671427 0.497613
vt 0.830933 0.802085
vt 0.783200 0.844641
vt 0.776552 0.798332
vt 0.841549 0.876033
vt 0.728819 0.840888
vt 0.732786 0.868526
vt 0.141153 0.692328
vt 0.012236 0.763060
vt 0.003178 0.699967
vt 0.151768 0.766276
vt 0.104246 0.778178
vt 0.778723 0.338174
vt 0.852631 0.247595
vt 0.858367 0.334370
vt 0.781546 0.250991
vt 0.775137 0.283940
vt 0.659869 0.443478
vt 0.255273 0.787523
vt 0.308628 0.817564
vt 0.151768 0.570998
vt 0.228163 0.698333
vt 0.238778 0.577004
vt 0.334939 0.877305
vt 0.342441 0.815735
vt 0.864724 0.265708
vt 0.917468 0.290221
vt 0.871945 0.298095
vt 0.905261 0.258697
vt 0.680619 0.366465
vt 0.714313 0.367413
vt 0.694698 0.841965
vt 0.652153 0.883684
vt 0.647704 0.852688
vt 0.238778 0.772281
vt 0.770009 0.347927
vt 0.342441 0.970616
vt 0.017524 0.536008
vt 0.869143 0.207116
vt 0.917468 0.198758
vt 0.601032 0.156946
vt 0.604898 0.175918
vt 0.609847 0.178953
vt 0.666906 0.172000
vt 0.762033 0.176504
vt 0.601908 0.115317
vt 0.532019 0.114755
vt 0.736972 0.003178
vt 0.612482 0.081606
vt 0.605027 0.045024
vt 0.673662 0.055524
vt 0.742922 0.032376
vt 0.654415 0.066798
vt 0.616492 0.133491
vt 0.605751 0.178921
vt 0.675898 0.133968
vt 0.834570 0.421186
vt 0.906233 0.347927
vt 0.916560 0.406328
vt 0.824243 0.362784
vt 0.517665 0.044322
vt 0.595010 0.081466
vt 0.008788 0.839073
vt 0.787168 0.677002
vt 0.841549 0.680755
vt 0.784252 0.202298
vt 0.858367 0.198758
vt 0.060388 0.852046
vt 0.064422 0.845430
vt 0.064466 0.852046
vt 0.789682 0.417629
vt 0.779355 0.359228
vt 0.049119 0.865960
vt 0.039760 0.905094
vt 0.044529 0.865078
vt 0.054031 0.924891
vt 0.041205 0.922426
vt 0.675898 0.050734
vt 0.616492 0.050256
vt 0.776366 0.510451
vt 0.837026 0.515258
vt 0.465132 0.067383
vt 0.242720 0.067383
vt 0.353926 0.003178
vt 0.242720 0.115899
vt 0.149608 0.175029
vt 0.215919 0.108718
vt 0.465132 0.195793
vt 0.003178 0.218898
vt 0.114384 0.154693
vt 0.003178 0.347308
vt 0.398131 0.234476
vt 0.418795 0.311593
vt 0.069776 0.385758
vt 0.096845 0.486779
vt 0.402129 0.328258
vt 0.450290 0.348801
vt 0.463823 0.460625
vt 0.292778 0.493720
vt 0.373746 0.528256
vt 0.256847 0.529651
vt 0.054031 0.845430
vt 0.923611 0.426369
vt 0.923611 0.499568
vt 0.768780 0.147967
vt 0.768780 0.035488
vt 0.348798 0.872401
vt 0.434375 0.952738
vt 0.398198 0.953574
vt 0.424265 0.918217
vt 0.394396 0.789033
vt 0.459747 0.881057
vt 0.438783 0.809478
vt 0.459747 0.787523
vt 0.351291 0.536008
vt 0.245135 0.719877
vt 0.245135 0.597298
vt 0.457448 0.597298
vt 0.351291 0.781166
vt 0.457448 0.719876
vt 0.870328 0.003178
vt 0.775137 0.137443
vt 0.783974 0.042832
vt 0.918887 0.037606
vt 0.852655 0.192401
vt 0.887029 0.123566
vt 0.918887 0.161988
vt 0.566385 0.918958
vt 0.581918 0.841998
vt 0.641347 0.890588
vt 0.471489 0.841368
vt 0.601665 0.721020
vt 0.605879 0.677002
vt 0.641347 0.706002
vt 0.491235 0.720390
vt 0.904706 0.527348
vt 0.818043 0.521615
vt 0.901396 0.521615
vt 0.917021 0.557982
vt 0.891232 0.590872
vt 0.776366 0.593801
vt 0.913206 0.645533
vt 0.901397 0.665987
vt 0.818043 0.665987
vn 0.7071 0.0000 0.7071
vn 0.8660 0.0000 -0.5000
vn 0.0000 0.0000 1.0000
vn -0.8660 0.0000 0.5000
vn -0.7071 0.0000 -0.7071
vn 0.8660 -0.0000 0.5000
vn 0.9659 0.0000 -0.2588
vn 0.2255 0.4905 -0.8417
vn 0.8449 0.2197 -0.4878
vn 0.6162 0.4905 0.6162
vn 0.2588 0.0000 -0.9659
vn 0.8417 0.4905 -0.2255
vn -0.0000 0.2197 0.9756
vn -0.2255 0.4905 0.8417
vn 0.0000 0.0000 -1.0000
vn 0.0000 0.2709 -0.9626
vn 0.8449 0.2197 0.4878
vn -0.8660 -0.0000 -0.5000
vn -0.9659 -0.0000 0.2588
vn 0.0000 0.2197 -0.9756
vn -0.2588 0.0000 0.9659
vn -0.8336 0.2709 -0.4813
vn -0.8417 0.4905 0.2255
vn -0.8449 0.2197 0.4878
vn -0.8336 0.2709 0.4813
vn 0.7869 0.0000 0.6170
vn -0.7869 0.0000 -0.6170
vn -0.6162 0.4905 -0.6162
vn 0.8336 0.2709 -0.4813
vn 0.9278 0.0000 -0.3730
vn -0.9278 -0.0000 0.3730
vn 0.1409 -0.0000 -0.9900
vn -0.1409 -0.0000 0.9900
vn -0.8931 0.2709 0.3590
vn -0.0000 -1.0000 -0.0000
vn 0.1356 0.2709 -0.9530
vn -0.7575 0.2709 -0.5940
vn 0.7575 0.2709 0.5940
vn -0.1356 0.2709 0.9530
vn 0.0000 1.0000 -0.0000
s 1
f 1/1/1 2/2/1 3/3/1
f 2/2/1 1/1/1 4/4/1
f 5/5/2 6/6/2 7/7/2
f 6/6/2 5/5/2 8/8/2
f 9/9/3 10/10/3 11/11/3
f 10/10/3 9/9/3 12/12/3
f 10/10/4 13/13/4 14/14/4
f 12/12/4 13/13/4 10/10/4
f 15/15/4 13/13/4 12/12/4
f 13/13/4 15/15/4 16/16/4
f 17/17/5 18/18/5 19/19/5
f 18/18/5 17/17/5 20/20/5
f 9/21/6 8/8/6 5/5/6
f 8/8/6 9/21/6 11/22/6
f 3/23/7 21/24/7 22/25/7
f 21/24/7 3/23/7 2/26/7
f 19/27/8 23/28/8 24/29/8
f 23/28/8 19/27/8 21/24/8
f 6/6/9 1/30/9 25/31/9
f 1/30/9 6/6/9 8/8/9
f 1/30/9 8/8/9 26/32/9
f 26/32/9 8/8/9 27/33/9
f 26/32/9 4/34/9 1/30/9
f 4/4/10 28/35/10 2/2/10
f 28/35/10 4/4/10 26/36/10
f 18/37/11 21/24/11 19/27/11
f 21/24/11 18/37/11 22/25/11
f 21/24/12 28/38/12 23/28/12
f 28/38/12 21/24/12 2/26/12
f 29/39/13 30/40/13 31/41/13
f 30/40/13 29/39/13 10/10/13
f 10/10/13 29/39/13 32/42/13
f 10/10/13 32/42/13 33/43/13
f 10/10/13 33/43/13 11/11/13
f 34/44/8 35/45/8 36/46/8
f 35/45/8 34/44/8 37/47/8
f 38/48/14 39/49/14 40/50/14
f 39/49/14 38/48/14 41/51/14
f 34/44/11 42/52/11 37/47/11
f 42/52/11 34/44/11 43/53/11
f 44/54/15 45/55/15 46/56/15
f 7/57/15 45/55/15 44/54/15
f 7/57/15 47/58/15 45/55/15
f 47/58/15 7/57/15 6/59/15
f 48/60/16 49/61/16 50/62/16
f 49/61/16 48/60/16 17/17/16
f 17/17/16 48/60/16 20/20/16
f 51/63/16 20/20/16 48/60/16
f 20/20/16 51/63/16 52/64/16
f 45/65/2 51/66/2 53/67/2
f 51/66/2 45/65/2 54/68/2
f 54/68/2 45/65/2 47/69/2
f 8/8/17 43/53/17 27/33/17
f 43/53/17 8/8/17 11/22/17
f 27/33/17 43/53/17 36/46/17
f 43/53/17 11/22/17 33/70/17
f 34/44/17 36/46/17 43/53/17
f 38/48/10 55/71/10 56/72/10
f 55/71/10 38/48/10 40/50/10
f 57/73/18 58/74/18 48/60/18
f 58/74/18 57/73/18 59/75/18
f 60/76/1 56/72/1 61/77/1
f 56/72/1 60/76/1 38/48/1
f 29/78/19 62/79/19 32/80/19
f 62/79/19 29/78/19 41/81/19
f 61/82/7 37/47/7 42/52/7
f 37/47/7 61/82/7 56/83/7
f 54/84/20 25/85/20 63/86/20
f 25/85/20 54/84/20 6/59/20
f 6/59/20 54/84/20 47/58/20
f 58/74/15 51/63/15 48/60/15
f 51/63/15 58/74/15 53/87/15
f 37/47/12 55/88/12 35/45/12
f 55/88/12 37/47/12 56/83/12
f 60/76/21 41/51/21 38/48/21
f 41/51/21 60/76/21 62/89/21
f 64/90/22 48/60/22 50/62/22
f 48/60/22 64/90/22 57/73/22
f 31/91/23 41/81/23 29/78/23
f 41/81/23 31/91/23 39/92/23
f 65/93/24 10/10/24 14/14/24
f 10/10/24 65/93/24 66/94/24
f 10/10/24 66/94/24 67/95/24
f 10/10/24 67/95/24 68/96/24
f 10/10/24 68/96/24 69/97/24
f 10/10/24 69/97/24 30/40/24
f 14/14/3 70/98/3 65/93/3
f 70/98/3 14/14/3 71/99/3
f 71/99/3 14/14/3 13/13/3
f 64/100/25 72/101/25 57/102/25
f 72/101/25 64/100/25 73/103/25
f 73/103/25 64/100/25 74/104/25
f 72/101/25 73/103/25 75/105/25
f 76/106/26 67/95/26 77/107/26
f 67/95/26 76/106/26 68/96/26
f 68/96/26 76/106/26 78/108/26
f 79/109/27 80/110/27 81/111/27
f 80/110/27 79/109/27 82/112/27
f 72/101/4 59/113/4 57/102/4
f 59/113/4 72/101/4 83/114/4
f 59/113/4 83/114/4 71/99/4
f 71/99/4 83/114/4 70/98/4
f 49/61/28 19/19/28 24/115/28
f 19/19/28 49/61/28 17/17/28
f 16/116/18 44/54/18 46/56/18
f 44/54/18 16/116/18 15/117/18
f 51/66/29 63/118/29 52/119/29
f 63/118/29 51/66/29 54/68/29
f 67/120/30 66/121/30 77/122/30
f 84/123/31 82/112/31 79/109/31
f 82/112/31 84/123/31 85/124/31
f 81/125/32 72/126/32 75/127/32
f 72/126/32 81/125/32 80/128/32
f 72/126/32 80/128/32 83/129/32
f 76/106/33 84/130/33 78/108/33
f 84/130/33 76/106/33 85/131/33
f 86/132/34 79/109/34 87/133/34
f 79/109/34 86/132/34 84/123/34
f 40/134/35 35/135/35 55/136/35
f 35/135/35 40/134/35 36/137/35
f 26/138/35 36/137/35 40/134/35
f 36/137/35 26/138/35 27/139/35
f 26/138/35 40/134/35 39/140/35
f 26/138/35 39/140/35 23/141/35
f 23/141/35 28/142/35 26/138/35
f 23/141/35 39/140/35 24/143/35
f 24/143/35 39/140/35 31/144/35
f 24/143/35 31/144/35 30/145/35
f 24/143/35 30/145/35 49/146/35
f 49/146/35 30/145/35 50/147/35
f 50/147/35 30/145/35 69/148/35
f 50/147/35 69/148/35 88/149/35
f 50/147/35 88/149/35 86/150/35
f 50/147/35 86/150/35 74/151/35
f 74/151/35 86/150/35 87/152/35
f 64/153/35 50/147/35 74/151/35
f 81/125/36 75/127/36 73/154/36
f 87/133/37 73/155/37 74/156/37
f 73/155/37 87/133/37 81/111/37
f 81/111/37 87/133/37 79/109/37
f 78/108/38 69/97/38 68/96/38
f 69/97/38 78/108/38 88/157/38
f 78/108/39 86/158/39 88/157/39
f 86/158/39 78/108/39 84/130/39
f 22/159/40 1/160/40 3/161/40
f 1/160/40 22/159/40 25/162/40
f 25/162/40 22/159/40 18/163/40
f 25/162/40 18/163/40 63/164/40
f 63/164/40 18/163/40 52/165/40
f 52/165/40 18/163/40 20/166/40
f 7/167/40 9/168/40 5/169/40
f 9/168/40 7/167/40 44/170/40
f 9/168/40 44/170/40 12/171/40
f 12/171/40 44/170/40 15/172/40
f 42/173/40 60/174/40 61/175/40
f 60/174/40 42/173/40 43/176/40
f 60/174/40 43/176/40 62/177/40
f 62/177/40 43/176/40 33/178/40
f 62/177/40 33/178/40 32/179/40
f 53/180/40 46/181/40 45/182/40
f 46/181/40 53/180/40 58/183/40
f 46/181/40 58/183/40 16/184/40
f 71/185/40 16/184/40 58/183/40
f 16/184/40 71/185/40 13/186/40
f 71/185/40 58/183/40 59/187/40
f 66/188/40 76/189/40 77/190/40
f 76/189/40 66/188/40 65/191/40
f 76/189/40 65/191/40 70/192/40
f 76/189/40 70/192/40 85/193/40
f 85/193/40 70/192/40 83/194/40
f 85/193/40 83/194/40 80/195/40
f 85/193/40 80/195/40 82/196/40
