# Blender v2.92.0 OBJ File: 'OGConvert.blend'
# www.blender.org
o stairs
v 1.200000 1.000000 0.800000
v -1.200001 0.900000 0.800000
v 1.200000 0.900000 0.800000
v -1.200001 1.000000 0.800000
v -1.200001 2.700000 -1.600000
v -1.200001 2.800000 -2.000000
v -1.200001 2.700000 -2.000000
v -1.200001 2.800000 -1.600000
v -1.200001 3.400000 -2.800000
v 1.200000 3.400000 -2.400000
v 1.200000 3.400000 -2.800000
v -1.200001 3.400000 -2.400000
v -1.200001 2.100000 -0.800000
v -1.200001 2.200000 -1.200000
v -1.200001 2.100000 -1.200000
v -1.200001 2.200000 -0.800000
v 1.200000 2.200000 -0.800000
v 1.200000 2.100000 -1.200000
v 1.200000 2.200000 -1.200000
v 1.200000 2.100000 -0.800000
v -1.200001 3.300000 -2.400000
v -1.200001 3.300000 -2.800000
v 1.200000 3.300000 -2.800000
v 1.200000 3.300000 -2.400000
v 1.200000 2.800000 -1.600000
v 1.200000 2.700000 -2.000000
v 1.200000 2.800000 -2.000000
v 1.200000 2.700000 -1.600000
v -1.200001 4.000000 -3.600000
v 1.200000 4.000000 -3.200000
v 1.200000 4.000000 -3.600000
v -1.200001 4.000000 -3.200000
v -1.200001 1.000000 0.400000
v -1.200001 0.900000 0.400000
v -1.200001 3.900000 -3.200000
v 1.200000 3.900000 -3.200000
v -1.200001 3.900000 -3.600000
v -1.200001 1.600000 -0.400000
v 1.200000 1.600000 0.000000
v 1.200000 1.600000 -0.400000
v -1.200001 1.600000 0.000000
v -1.200001 1.500000 0.000000
v -1.200001 1.500000 -0.400000
v 1.200000 1.500000 -0.400000
v 1.200000 1.500000 0.000000
v 1.200000 3.900000 -3.600000
v 1.200000 1.000000 0.400000
v 1.200000 0.400000 1.600000
v -1.200001 0.300000 1.600000
v 1.200000 0.300000 1.600000
v -1.200001 0.400000 1.600000
v 1.200000 0.900000 0.400000
v -1.200001 0.400000 1.200000
v -1.200001 0.300000 1.200000
v 1.200000 0.300000 1.200000
v 1.200000 0.400000 1.200000
v -0.400000 -0.000000 1.000000
v 0.400000 -0.000000 0.800000
v 0.400000 -0.000000 1.000000
v -0.400000 -0.000000 0.800000
v 0.400000 3.600000 -4.000000
v -0.400000 3.600000 -4.000000
v -0.400000 3.800000 -4.000000
v 0.400000 3.800000 -4.000000
v -0.400000 2.600000 -2.400000
v -0.400000 3.800000 -3.799999
v -0.400000 2.600000 -2.200000
v -0.400000 0.200000 1.000000
v -0.400000 2.750000 -2.400000
v 0.400000 0.200000 1.000000
v 0.400000 2.600000 -2.200000
v 0.400000 3.800000 -3.799999
v 0.400000 2.600000 -2.400000
v 0.400000 2.750000 -2.400000
v -1.200001 0.800000 0.800000
v 1.200000 0.800000 0.000000
v 1.200000 0.800000 0.800000
v -1.200001 0.800000 0.000000
v -1.200001 2.800000 -2.400000
v 1.200000 2.800000 -2.400000
v -1.200001 2.600000 -1.600000
v -1.200001 2.600000 -2.400000
v 1.200000 2.600000 -2.400000
v -1.200001 2.200000 -1.600000
v 1.200000 2.000000 -1.600000
v -1.200001 2.000000 -1.600000
v 1.200000 2.200000 -1.600000
v 1.200000 2.600000 -1.600000
v -1.200001 3.400000 -3.200000
v 1.200000 3.400000 -3.200000
v -1.200001 3.200000 -2.400000
v 1.200000 3.200000 -2.400000
v -1.200001 2.000000 -0.800000
v 1.200000 3.200000 -3.200000
v -1.200001 3.200000 -3.200000
v 1.200000 2.000000 -0.800000
v -1.200001 4.000000 -4.000000
v -1.200001 3.800000 -4.000000
v 1.200000 3.800000 -4.000000
v 1.200000 4.000000 -4.000000
v 1.200000 1.000000 0.000000
v -1.200001 1.600000 -0.800000
v 1.200000 1.400000 -0.800000
v -1.200001 1.400000 -0.800000
v 1.200000 1.600000 -0.800000
v -1.200001 3.800000 -3.200000
v 1.200000 3.800000 -3.200000
v -1.200001 1.400000 0.000000
v 1.200000 1.400000 0.000000
v -1.200001 1.000000 0.000000
v -1.200001 0.200000 1.600000
v 1.200000 0.200000 0.800000
v 1.200000 0.200000 1.600000
v -1.200001 0.200000 0.800000
v -1.200001 0.400000 0.800000
v 1.200000 0.400000 0.800000
vt 0.319313 0.514181
vt 0.312005 0.806482
vt 0.312005 0.514181
vt 0.319313 0.806482
vt 0.113452 0.889301
vt 0.101273 0.840584
vt 0.113452 0.840584
vt 0.101273 0.889301
vt 0.750370 0.296434
vt 0.711396 0.004132
vt 0.750370 0.004132
vt 0.711396 0.296434
vt 0.243944 0.889301
vt 0.231764 0.840584
vt 0.243944 0.840584
vt 0.231764 0.889301
vt 0.093009 0.889301
vt 0.080830 0.840584
vt 0.093009 0.840584
vt 0.080830 0.889301
vt 0.146075 0.889301
vt 0.133896 0.840584
vt 0.146075 0.840584
vt 0.133896 0.889301
vt 0.610570 0.304698
vt 0.603262 0.596999
vt 0.603262 0.304698
vt 0.610570 0.596999
vt 0.190877 0.889301
vt 0.178698 0.840584
vt 0.190877 0.840584
vt 0.178698 0.889301
vt 0.704089 0.296434
vt 0.704089 0.004132
vt 0.223500 0.889301
vt 0.211321 0.840584
vt 0.223500 0.840584
vt 0.211321 0.889301
vt 0.509744 0.004132
vt 0.502436 0.296434
vt 0.502436 0.004132
vt 0.509744 0.296434
vt 0.548717 0.296434
vt 0.548717 0.004132
vt 0.649543 0.596999
vt 0.649543 0.304698
vt 0.548717 0.596999
vt 0.509744 0.304698
vt 0.548717 0.304698
vt 0.509744 0.596999
vt 0.910613 0.428665
vt 0.898434 0.379948
vt 0.910613 0.379948
vt 0.898434 0.428665
vt 0.502436 0.596999
vt 0.502436 0.304698
vt 0.349500 0.912180
vt 0.337321 0.863463
vt 0.349500 0.863463
vt 0.337321 0.912180
vt 0.851196 0.296434
vt 0.812223 0.004132
vt 0.851196 0.004132
vt 0.812223 0.296434
vt 0.284254 0.889301
vt 0.272075 0.840584
vt 0.284254 0.840584
vt 0.272075 0.889301
vt 0.329056 0.912180
vt 0.316877 0.863463
vt 0.329056 0.863463
vt 0.316877 0.912180
vt 0.060386 0.889301
vt 0.048207 0.840584
vt 0.060386 0.840584
vt 0.048207 0.889301
vt 0.804915 0.296434
vt 0.804915 0.004132
vt 0.358287 0.806482
vt 0.358287 0.514181
vt 0.812223 0.304698
vt 0.804915 0.596999
vt 0.804915 0.304698
vt 0.812223 0.596999
vt 0.922793 0.534363
vt 0.910613 0.485646
vt 0.922793 0.485646
vt 0.910613 0.534363
vt 0.464578 0.874730
vt 0.464578 0.824514
vt 0.476393 0.827468
vt 0.452762 0.871776
vt 0.394302 0.912180
vt 0.382123 0.863463
vt 0.394302 0.863463
vt 0.382123 0.912180
vt 0.851196 0.596999
vt 0.851196 0.304698
vt 0.101566 0.783603
vt 0.199000 0.764116
vt 0.199000 0.783603
vt 0.101566 0.764116
vt 0.199000 0.033362
vt 0.101566 0.033362
vt 0.101566 0.018747
vt 0.199000 0.018747
vt 0.444498 0.749501
vt 0.425011 0.004132
vt 0.444498 0.018747
vt 0.425011 0.247717
vt 0.410396 0.023619
vt 0.410396 0.267203
vt 0.410396 0.754372
vt 0.429883 0.768987
vt 0.410396 0.236755
vt 0.304698 0.491301
vt 0.402132 0.505916
vt 0.304698 0.505916
vt 0.402132 0.491301
vt 0.402132 0.004132
vt 0.304698 0.004132
vt 0.452762 0.749501
vt 0.486864 0.754372
vt 0.467377 0.768988
vt 0.467377 0.525403
vt 0.486864 0.023619
vt 0.452762 0.536364
vt 0.452762 0.505916
vt 0.452762 0.018747
vt 0.472249 0.004132
vt 0.995868 0.004132
vt 0.898434 0.217269
vt 0.898434 0.004132
vt 0.995868 0.217269
vt 0.495128 0.605264
vt 0.573075 0.897565
vt 0.495128 0.897565
vt 0.573075 0.605264
vt 0.587691 0.296434
vt 0.587691 0.004132
vt 0.125632 0.889301
vt 0.101273 0.791867
vt 0.125632 0.791867
vt 0.789343 0.304698
vt 0.774728 0.402132
vt 0.774728 0.304698
vt 0.785690 0.402132
vt 0.785690 0.499566
vt 0.789343 0.596999
vt 0.774728 0.596999
vt 0.774728 0.499566
vt 0.688517 0.605264
vt 0.673902 0.897565
vt 0.673902 0.605264
vt 0.688517 0.897565
vt 0.199142 0.791867
vt 0.223500 0.791867
vt 0.199142 0.889301
vt 0.789343 0.296434
vt 0.789343 0.004132
vt 0.696781 0.296434
vt 0.696781 0.004132
vt 0.495128 0.296434
vt 0.495128 0.004132
vt 0.898434 0.225533
vt 0.922793 0.322967
vt 0.898434 0.322967
vt 0.256123 0.889301
vt 0.231764 0.791867
vt 0.486864 0.777252
vt 0.486864 0.877684
vt 0.486864 0.827468
vt 0.688517 0.004132
vt 0.673902 0.296434
vt 0.673902 0.004132
vt 0.688517 0.296434
vt 0.166519 0.791867
vt 0.190877 0.791867
vt 0.166519 0.889301
vt 0.688517 0.596999
vt 0.688517 0.304698
vt 0.696781 0.304698
vt 0.696781 0.596999
vt 0.755242 0.499566
vt 0.755242 0.402132
vt 0.595955 0.605264
vt 0.595955 0.897565
vt 0.595955 0.596999
vt 0.595955 0.304698
vt 0.068650 0.791867
vt 0.093009 0.791867
vt 0.068650 0.889301
vt 0.595955 0.004132
vt 0.595955 0.296434
vt 0.004132 0.004132
vt 0.004132 0.018747
vt 0.296434 0.018747
vt 0.296434 0.004132
vt 0.304698 0.806482
vt 0.304698 0.514181
vt 0.898434 0.436929
vt 0.922793 0.436929
vt 0.898434 0.534363
vt 0.789343 0.605264
vt 0.774728 0.897565
vt 0.774728 0.605264
vt 0.789343 0.897565
vt 0.004132 0.096694
vt 0.296434 0.096694
vt 0.199000 0.038234
vt 0.101566 0.038234
vt 0.587691 0.596999
vt 0.587691 0.304698
vt 0.797608 0.296434
vt 0.797608 0.004132
vt 0.158254 0.791867
vt 0.133896 0.791867
vt 0.158254 0.889301
vt 0.036028 0.791867
vt 0.060386 0.791867
vt 0.036028 0.889301
vt 0.495128 0.596999
vt 0.495128 0.304698
vt 0.696781 0.605264
vt 0.696781 0.897565
vt 0.361679 0.912180
vt 0.337321 0.814746
vt 0.361679 0.814746
vt 0.890170 0.296434
vt 0.890170 0.004132
vt 0.296434 0.889301
vt 0.272075 0.791867
vt 0.296434 0.791867
vt 0.304698 0.814746
vt 0.329056 0.814746
vt 0.304698 0.912180
vt 0.587691 0.605264
vt 0.587691 0.897565
vt 0.397260 0.806482
vt 0.397260 0.514181
vt 0.027763 0.791867
vt 0.027763 0.892299
vt 0.004132 0.886392
vt 0.410396 0.777252
vt 0.410396 0.877684
vt 0.410396 0.827468
vt 0.922793 0.428665
vt 0.898434 0.331231
vt 0.797608 0.605264
vt 0.875555 0.897565
vt 0.797608 0.897565
vt 0.875555 0.605264
vt 0.797608 0.596999
vt 0.797608 0.304698
vt 0.444498 0.777252
vt 0.444498 0.877684
vt 0.420867 0.871776
vt 0.420867 0.885949
vt 0.420867 0.885949
vt 0.420867 0.885949
vt 0.476393 0.877684
vt 0.476393 0.777252
vt 0.890170 0.596999
vt 0.890170 0.304698
vt 0.890170 0.605264
vt 0.890170 0.897565
vt 0.369943 0.814746
vt 0.394302 0.814746
vt 0.369943 0.912180
vn 0.0000 0.0000 1.0000
vn -1.0000 0.0000 0.0000
vn 0.0000 1.0000 0.0000
vn 0.9873 0.1586 0.0000
vn 1.0000 0.0000 0.0000
vn 0.4720 0.8816 0.0000
vn -0.7076 -0.7066 -0.0000
vn -1.0000 0.0002 -0.0000
vn 0.0000 -1.0000 -0.0000
vn 0.0000 -0.8000 -0.6000
vn 0.0000 0.0000 -1.0000
vn 0.0000 0.8000 0.6000
vn -1.0000 -0.0004 -0.0000
vn -1.0000 -0.0002 0.0000
s 1
f 1/1/1 2/2/1 3/3/1
f 2/2/1 1/1/1 4/4/1
f 5/5/2 6/6/2 7/7/2
f 6/6/2 5/5/2 8/8/2
f 9/9/3 10/10/3 11/11/3
f 10/10/3 9/9/3 12/12/3
f 13/13/2 14/14/2 15/15/4
f 14/14/2 13/13/2 16/16/2
f 17/17/5 18/18/5 19/19/5
f 18/18/5 17/17/5 20/20/5
f 21/21/2 9/22/2 22/23/2
f 9/22/2 21/21/2 12/24/2
f 17/25/1 13/26/1 20/27/1
f 13/26/1 17/25/1 16/28/1
f 10/29/5 23/30/5 11/31/5
f 23/30/5 10/29/5 24/32/5
f 10/10/1 21/33/1 24/34/1
f 21/33/1 10/10/1 12/12/1
f 25/35/5 26/36/5 27/37/5
f 26/36/5 25/35/5 28/38/5
f 25/39/1 5/40/1 28/41/1
f 5/40/1 25/39/1 8/42/1
f 6/43/3 25/39/3 27/44/3
f 25/39/3 6/43/3 8/42/3
f 14/45/3 17/25/3 19/46/3
f 17/25/3 14/45/3 16/28/3
f 29/47/3 30/48/3 31/49/3
f 30/48/3 29/47/3 32/50/3
f 2/51/2 33/52/2 34/53/6
f 33/52/2 2/51/2 4/54/2
f 30/48/1 35/55/1 36/56/1
f 35/55/1 30/48/1 32/50/1
f 35/57/2 29/58/2 37/59/7
f 29/58/2 35/57/2 32/60/2
f 38/61/3 39/62/3 40/63/3
f 39/62/3 38/61/3 41/64/3
f 42/65/2 38/66/2 43/67/2
f 38/66/2 42/65/2 41/68/2
f 39/69/5 44/70/5 40/71/5
f 44/70/5 39/69/5 45/72/5
f 30/73/5 46/74/5 31/75/5
f 46/74/5 30/73/5 36/76/5
f 39/62/1 42/77/1 45/78/1
f 42/77/1 39/62/1 41/64/1
f 33/79/3 1/1/3 47/80/3
f 1/1/3 33/79/3 4/4/3
f 48/81/1 49/82/1 50/83/1
f 49/82/1 48/81/1 51/84/1
f 1/85/5 52/86/5 47/87/5
f 52/86/5 1/85/5 3/88/5
f 49/89/2 53/90/2 54/91/8
f 53/90/2 49/89/2 51/92/2
f 48/93/5 55/94/5 56/95/5
f 55/94/5 48/93/5 50/96/5
f 53/97/3 48/81/3 56/98/3
f 48/81/3 53/97/3 51/84/3
f 57/99/9 58/100/9 59/101/9
f 58/100/9 57/99/9 60/102/9
f 60/102/10 61/103/10 58/100/10
f 61/103/10 60/102/10 62/104/10
f 63/105/11 61/103/11 62/104/11
f 61/103/11 63/105/11 64/106/11
f 60/107/2 63/108/2 62/109/2
f 63/108/2 60/107/2 65/110/2
f 63/108/2 65/110/2 66/111/2
f 65/110/2 60/107/2 67/112/2
f 67/112/2 60/107/2 68/113/2
f 68/113/2 60/107/2 57/114/2
f 69/115/2 66/111/2 65/110/2
f 70/116/1 57/117/1 59/118/1
f 57/117/1 70/116/1 68/119/1
f 67/120/12 70/116/12 71/121/12
f 70/116/12 67/120/12 68/119/12
f 72/122/5 61/123/5 64/124/5
f 61/123/5 72/122/5 73/125/5
f 61/123/5 73/125/5 58/126/5
f 73/125/5 72/122/5 74/127/5
f 58/126/5 73/125/5 71/128/5
f 58/126/5 71/128/5 70/129/5
f 58/126/5 70/129/5 59/130/5
f 66/131/12 74/132/12 72/133/12
f 74/132/12 66/131/12 69/134/12
f 75/135/9 76/136/9 77/137/9
f 76/136/9 75/135/9 78/138/9
f 79/139/3 27/44/3 80/140/3
f 27/44/3 79/139/3 6/43/3
f 81/141/2 79/142/2 82/143/2
f 7/7/2 81/141/2 5/5/2
f 6/6/2 79/142/2 7/7/2
f 79/142/2 81/141/2 7/7/2
f 79/144/11 65/145/11 82/146/11
f 65/145/11 79/144/11 69/147/11
f 69/147/11 79/144/11 74/148/11
f 80/149/11 74/148/11 79/144/11
f 83/150/11 74/148/11 80/149/11
f 74/148/11 83/150/11 73/151/11
f 84/152/11 85/153/11 86/154/11
f 85/153/11 84/152/11 87/155/11
f 27/37/5 83/156/5 80/157/5
f 83/156/5 27/37/5 26/36/5
f 83/156/5 26/36/5 88/158/5
f 88/158/5 26/36/5 28/38/5
f 89/159/3 11/11/3 90/160/3
f 11/11/3 89/159/3 9/9/3
f 24/34/1 91/161/1 92/162/1
f 91/161/1 24/34/1 21/33/1
f 28/41/1 81/163/1 88/164/1
f 81/163/1 28/41/1 5/40/1
f 93/165/2 84/166/2 86/167/2
f 15/15/4 93/168/2 13/13/2
f 14/14/2 84/169/2 15/15/4
f 84/170/2 93/171/2 15/172/4
f 89/173/11 94/174/11 95/175/11
f 94/174/11 89/173/11 90/176/11
f 11/31/5 94/177/5 90/178/5
f 94/177/5 11/31/5 23/30/5
f 94/177/5 23/30/5 92/179/5
f 92/179/5 23/30/5 24/32/5
f 84/180/3 19/46/3 87/181/3
f 19/46/3 84/180/3 14/45/3
f 81/182/9 83/150/9 88/183/9
f 83/150/9 81/182/9 71/184/9
f 71/184/9 81/182/9 67/185/9
f 67/185/9 81/182/9 65/145/9
f 65/145/9 81/182/9 82/146/9
f 73/151/9 83/150/9 71/184/9
f 93/186/9 85/153/9 96/187/9
f 85/153/9 93/186/9 86/154/9
f 20/27/1 93/188/1 96/189/1
f 93/188/1 20/27/1 13/26/1
f 19/19/5 85/190/5 87/191/5
f 85/190/5 19/19/5 18/18/5
f 85/190/5 18/18/5 96/192/5
f 96/192/5 18/18/5 20/20/5
f 91/193/9 94/174/9 92/194/9
f 94/174/9 91/193/9 95/175/9
f 97/195/11 63/105/11 98/196/11
f 63/105/11 97/195/11 64/106/11
f 64/106/11 97/195/11 99/197/11
f 99/197/11 97/195/11 100/198/11
f 3/3/1 75/199/1 77/200/1
f 75/199/1 3/3/1 2/2/1
f 47/87/5 76/201/5 101/202/5
f 76/201/5 47/87/5 52/86/5
f 76/201/5 52/86/5 77/203/5
f 77/203/5 52/86/5 3/88/5
f 102/204/11 103/205/11 104/206/11
f 103/205/11 102/204/11 105/207/11
f 106/208/9 99/197/9 107/209/9
f 99/197/9 106/208/9 72/210/9
f 72/210/9 106/208/9 66/211/9
f 66/211/9 106/208/9 63/105/9
f 63/105/9 106/208/9 98/196/9
f 64/106/9 99/197/9 72/210/9
f 97/212/3 31/49/3 100/213/3
f 31/49/3 97/212/3 29/47/3
f 45/78/1 108/214/1 109/215/1
f 108/214/1 45/78/1 42/77/1
f 95/216/2 22/23/2 89/217/2
f 22/23/2 95/216/2 91/218/2
f 22/23/2 91/218/2 21/21/2
f 9/22/2 89/217/2 22/23/2
f 31/75/5 99/219/5 100/220/5
f 99/219/5 31/75/5 46/74/5
f 99/219/5 46/74/5 107/221/5
f 107/221/5 46/74/5 36/76/5
f 36/56/1 106/222/1 107/223/1
f 106/222/1 36/56/1 35/55/1
f 108/224/9 103/205/9 109/225/9
f 103/205/9 108/224/9 104/206/9
f 106/226/13 97/227/2 98/228/2
f 97/227/2 106/226/13 37/59/7
f 37/59/7 106/226/13 35/57/2
f 29/58/2 97/227/2 37/59/7
f 102/229/3 40/63/3 105/230/3
f 40/63/3 102/229/3 38/61/3
f 108/231/2 102/232/2 104/233/2
f 102/232/2 108/231/2 43/67/2
f 43/67/2 108/231/2 42/65/2
f 38/66/2 102/232/2 43/67/2
f 40/71/5 103/234/5 105/235/5
f 103/234/5 40/71/5 44/70/5
f 103/234/5 44/70/5 109/236/5
f 109/236/5 44/70/5 45/72/5
f 110/237/11 76/136/11 78/138/11
f 76/136/11 110/237/11 101/238/11
f 110/239/3 47/80/3 101/240/3
f 47/80/3 110/239/3 33/79/3
f 75/241/14 110/242/2 78/243/2
f 110/244/2 75/245/14 34/246/6
f 34/53/6 75/247/14 2/51/2
f 33/52/2 110/248/2 34/53/6
f 111/249/9 112/250/9 113/251/9
f 112/250/9 111/249/9 114/252/9
f 50/83/1 111/253/1 113/254/1
f 111/253/1 50/83/1 49/82/1
f 111/255/2 115/256/2 114/257/2
f 115/258/2 111/259/2 54/260/8
f 54/91/8 111/261/2 49/89/2
f 53/90/2 115/262/2 54/91/8
f 115/263/3 56/98/3 116/264/3
f 56/98/3 115/263/3 53/97/3
f 115/265/11 112/250/11 114/252/11
f 112/250/11 115/265/11 116/266/11
f 56/95/5 112/267/5 116/268/5
f 112/267/5 56/95/5 55/94/5
f 112/267/5 55/94/5 113/269/5
f 113/269/5 55/94/5 50/96/5
