# Blender v2.92.0 OBJ File: 'OGConvert.blend'
# www.blender.org
o stairs_corner
v -1.200001 1.400000 0.000000
v -1.200001 1.600000 -0.800000
v -1.200001 1.400000 -0.800000
v -1.200001 1.500000 -0.400000
v -1.200001 1.500000 0.000000
v -1.200001 1.600000 -0.400000
v -1.200001 0.800000 0.800000
v 1.200000 0.800000 0.000000
v 1.200000 0.800000 0.800000
v 0.400000 0.800000 0.200000
v -0.400000 0.800000 0.200000
v -0.400000 0.800000 0.000000
v -1.200001 0.800000 0.000000
v 0.400000 0.800000 0.000000
v -1.200001 1.000000 0.000000
v -0.400000 0.950000 0.000000
v 1.200000 1.000000 0.000000
v 0.400000 0.950000 0.000000
v -1.200001 0.400000 0.800000
v 1.200000 0.400000 1.200000
v 1.200000 0.400000 0.800000
v -1.200001 0.400000 1.200000
v -1.200001 2.000000 -0.800000
v 1.200000 2.000000 -1.600000
v 1.200000 2.000000 -0.800000
v 0.400000 2.000000 -1.400000
v 0.400000 2.000000 -1.600000
v -0.400000 2.000000 -1.400000
v -0.400000 2.000000 -2.400000
v -1.200001 2.000000 -3.200000
v 1.200000 2.000000 -3.200000
v 1.200000 2.000000 -2.400000
v -1.200001 0.200000 1.600000
v -1.200001 0.200000 0.800000
v -1.200001 0.300000 1.200000
v -1.200001 0.300000 1.600000
v 1.200000 0.200000 0.800000
v 1.200000 0.300000 1.200000
v 1.200000 0.200000 1.600000
v 1.200000 0.300000 1.600000
v 1.200000 1.600000 -0.400000
v 1.200000 1.400000 -0.800000
v 1.200000 1.600000 -0.800000
v 1.200000 1.500000 -0.400000
v 1.200000 1.400000 0.000000
v 1.200000 1.500000 0.000000
v 0.400000 0.200000 1.000000
v -0.400000 0.200000 1.000000
v -0.400000 0.200000 0.800000
v 0.400000 0.200000 0.800000
v 1.200000 0.900000 0.800000
v -1.200001 0.900000 0.800000
v -1.200001 2.100000 -3.200000
v 1.200000 2.100000 -3.200000
v -0.400000 0.350000 0.800000
v 0.400000 0.350000 0.800000
v 1.200000 2.100000 -0.800000
v 1.200000 2.100000 -1.600000
v -1.200001 0.900000 0.400000
v -1.200001 1.000000 0.400000
v -0.400000 1.400000 -0.800000
v -0.400000 1.550000 -0.800000
v 0.400000 1.550000 -0.800000
v 0.400000 1.400000 -0.800000
v 0.400000 1.400000 -0.600000
v -0.400000 1.400000 -0.600000
v 1.200000 1.000000 0.400000
v 1.200000 0.900000 0.400000
v 2.800000 3.400000 -3.200000
v 2.400000 3.400000 -0.800000
v 2.800000 3.400000 -0.800000
v 2.400000 3.400000 -3.200000
v 2.000000 3.200000 -0.800000
v 2.800000 3.200000 -0.800000
v 2.400000 3.300000 -0.800000
v 2.000000 3.300000 -0.800000
v 2.000000 3.300000 -3.200000
v 2.800000 3.200000 -3.200000
v 2.000000 3.200000 -3.200000
v 2.400000 3.300000 -3.200000
v 2.000000 2.800000 -3.200000
v 1.600000 2.800000 -0.800000
v 2.000000 2.800000 -0.800000
v 1.600000 2.800000 -3.200000
v 2.800000 3.900000 -3.200000
v 3.600000 3.800000 -3.200000
v 2.800000 3.800000 -3.200000
v 3.200000 3.900000 -3.200000
v 3.600000 4.000000 -3.200000
v 3.200000 4.000000 -3.200000
v 2.800000 3.350000 -2.400000
v 2.800000 3.350000 -1.600000
v 2.800000 3.200000 -1.600000
v 2.800000 3.200000 -2.400000
v 3.600000 3.800000 -0.800000
v 3.200000 3.900000 -0.800000
v 2.800000 3.800000 -0.800000
v 3.600000 4.000000 -0.800000
v 3.200000 4.000000 -0.800000
v 2.800000 3.900000 -0.800000
v 1.200000 2.600000 -0.800000
v 2.000000 2.600000 -1.600000
v 2.000000 2.600000 -0.800000
v 1.800000 2.600000 -1.600000
v 1.800000 2.600000 -2.400000
v 1.200000 2.600000 -3.200000
v 2.000000 2.600000 -3.200000
v 2.000000 2.600000 -2.400000
v 1.600000 2.700000 -0.800000
v 1.200000 2.700000 -0.800000
v 3.600000 3.800000 -1.600000
v 3.400000 3.800000 -1.600000
v 3.400000 3.800000 -2.400000
v 3.600000 3.800000 -2.400000
v 1.200000 2.700000 -3.200000
v 1.600000 2.700000 -3.200000
v 2.600000 3.200000 -1.600000
v 2.600000 3.200000 -2.400000
v -1.200001 2.100000 -0.800000
v -0.799999 2.200000 -2.800000
v 0.800000 2.200000 -1.200000
v 0.800000 2.200000 -2.800000
v -0.799999 2.200000 -1.200000
v 1.200000 2.100000 -2.400000
v 2.000000 2.750000 -2.400000
v 2.000000 2.750000 -1.600000
v 1.200000 0.400000 1.600000
v -1.200001 0.400000 1.600000
v 1.200000 2.200000 -3.200000
v 1.200000 2.200000 -0.800000
v -1.200001 2.200000 -3.200000
v -1.200001 2.200000 -0.800000
v 1.200000 1.000000 0.800000
v -1.200001 1.000000 0.800000
v 1.200000 2.150000 -2.400000
v 1.200000 2.150000 -1.600000
v 1.200000 1.600000 0.000000
v -1.200001 1.600000 0.000000
v 2.000000 3.400000 -3.200000
v 2.800000 4.000000 -0.800000
v 2.800000 4.000000 -3.200000
v 2.000000 3.400000 -0.800000
v 1.200000 2.800000 -0.800000
v 1.200000 2.800000 -3.200000
v 0.400000 1.800000 -1.600000
v 0.400000 -0.000000 0.800000
v 0.400000 -0.000000 1.000000
v 1.200000 1.800000 -2.400000
v 1.200000 1.800000 -1.600000
v -0.400000 1.800000 -2.400000
v -0.400000 1.800000 -1.600000
v -0.400000 -0.000000 1.000000
v -0.400000 -0.000000 0.800000
v 3.600000 3.600000 -2.400000
v 3.600000 3.600000 -1.600000
vt 0.561935 0.889255
vt 0.542395 0.811097
vt 0.561935 0.811097
vt 0.552165 0.850176
vt 0.552165 0.889255
vt 0.542395 0.850176
vt 0.356929 0.495615
vt 0.435086 0.730087
vt 0.356929 0.730087
vt 0.415547 0.651930
vt 0.415547 0.573772
vt 0.435086 0.573772
vt 0.435086 0.495615
vt 0.435086 0.651930
vt 0.981390 0.444150
vt 0.961850 0.522307
vt 0.961850 0.444150
vt 0.976505 0.522307
vt 0.981390 0.678622
vt 0.976505 0.600465
vt 0.961850 0.678622
vt 0.961850 0.600465
vt 0.523912 0.730087
vt 0.484833 0.495615
vt 0.523912 0.495615
vt 0.484833 0.730087
vt 0.356929 0.005334
vt 0.435086 0.239807
vt 0.356929 0.239807
vt 0.415547 0.161649
vt 0.435086 0.161649
vt 0.415547 0.083492
vt 0.513244 0.083492
vt 0.591401 0.005334
vt 0.591401 0.239807
vt 0.513244 0.239807
vt 0.882394 0.250474
vt 0.882394 0.331037
vt 0.863438 0.326298
vt 0.688933 0.433482
vt 0.688933 0.433482
vt 0.688933 0.433482
vt 0.852770 0.290756
vt 0.852770 0.331037
vt 0.843292 0.328668
vt 0.843292 0.288386
vt 0.852770 0.250474
vt 0.913184 0.380784
vt 0.893645 0.341705
vt 0.913184 0.341705
vt 0.903415 0.380784
vt 0.893645 0.419863
vt 0.903415 0.419863
vt 0.912601 0.289553
vt 0.893062 0.250474
vt 0.912601 0.250474
vt 0.902831 0.289553
vt 0.893062 0.328632
vt 0.902831 0.328632
vt 0.005334 0.515053
vt 0.083491 0.749526
vt 0.005334 0.749526
vt 0.063952 0.671368
vt 0.063952 0.593211
vt 0.083491 0.593211
vt 0.083491 0.515053
vt 0.083491 0.671368
vt 0.971620 0.689290
vt 0.961850 0.923763
vt 0.961850 0.689290
vt 0.971620 0.923763
vt 0.982156 0.005334
vt 0.972386 0.239807
vt 0.972386 0.005334
vt 0.982156 0.239807
vt 0.455524 0.740755
vt 0.445754 0.975228
vt 0.445754 0.740755
vt 0.455524 0.975228
vt 0.024873 0.760194
vt 0.005334 0.838351
vt 0.005334 0.760194
vt 0.019988 0.838351
vt 0.019988 0.916509
vt 0.024873 0.994666
vt 0.005334 0.994666
vt 0.005334 0.916509
vt 0.611839 0.943302
vt 0.602069 0.865144
vt 0.611839 0.865144
vt 0.602069 0.943302
vt 0.852770 0.341705
vt 0.852770 0.422268
vt 0.833814 0.417529
vt 0.583271 0.586846
vt 0.583271 0.667409
vt 0.583271 0.627127
vt 0.045311 0.888098
vt 0.055081 0.927176
vt 0.045311 0.927176
vt 0.035541 0.888098
vt 0.035541 0.849019
vt 0.435086 0.740755
vt 0.415547 0.818913
vt 0.415547 0.740755
vt 0.430201 0.818913
vt 0.430201 0.897070
vt 0.435086 0.975228
vt 0.415547 0.975228
vt 0.415547 0.897070
vt 0.172317 0.749526
vt 0.133238 0.515053
vt 0.172317 0.515053
vt 0.133238 0.749526
vt 0.182985 0.515053
vt 0.261142 0.749526
vt 0.182985 0.749526
vt 0.241603 0.671368
vt 0.241603 0.593211
vt 0.261142 0.593211
vt 0.261142 0.515053
vt 0.261142 0.671368
vt 0.124367 0.888098
vt 0.104827 0.849019
vt 0.124367 0.849019
vt 0.114597 0.888098
vt 0.104827 0.927176
vt 0.114597 0.927176
vt 0.366699 0.740755
vt 0.356929 0.975228
vt 0.356929 0.740755
vt 0.366699 0.975228
vt 0.832150 0.678622
vt 0.793071 0.444149
vt 0.832150 0.444149
vt 0.793071 0.678622
vt 0.764528 0.005334
vt 0.803607 0.239806
vt 0.764528 0.239806
vt 0.803607 0.005334
vt 0.863438 0.419863
vt 0.882977 0.341705
vt 0.882977 0.419863
vt 0.583271 0.576178
vt 0.583271 0.495615
vt 0.583271 0.535896
vt 0.084390 0.888098
vt 0.094159 0.849019
vt 0.094159 0.888098
vt 0.084390 0.927176
vt 0.074620 0.927176
vt 0.602069 0.453919
vt 0.680227 0.463689
vt 0.602069 0.463689
vt 0.641148 0.453919
vt 0.680227 0.444150
vt 0.641148 0.444150
vt 0.651816 0.943302
vt 0.642046 0.708829
vt 0.651816 0.708829
vt 0.642046 0.943302
vt 0.853353 0.005334
vt 0.892432 0.239806
vt 0.853353 0.239806
vt 0.892432 0.005334
vt 0.183883 0.849019
vt 0.174113 0.927176
vt 0.174113 0.849019
vt 0.183883 0.888098
vt 0.193653 0.927176
vt 0.193653 0.888098
vt 0.951182 0.444150
vt 0.946298 0.522307
vt 0.931643 0.444150
vt 0.951182 0.678622
vt 0.946298 0.600465
vt 0.931643 0.600465
vt 0.931643 0.678622
vt 0.931643 0.522307
vt 0.143906 0.849019
vt 0.153676 0.888098
vt 0.143906 0.927176
vt 0.163445 0.849019
vt 0.163445 0.888098
vt 0.153676 0.927176
vt 0.842818 0.444150
vt 0.881896 0.678622
vt 0.842818 0.678622
vt 0.881896 0.444150
vt 0.961718 0.239806
vt 0.951948 0.005334
vt 0.961718 0.005334
vt 0.951948 0.239806
vt 0.842818 0.923763
vt 0.920975 0.845605
vt 0.920975 0.923763
vt 0.901436 0.845605
vt 0.901436 0.767448
vt 0.842818 0.689290
vt 0.920975 0.689290
vt 0.920975 0.767448
vt 0.223860 0.849019
vt 0.204321 0.927176
vt 0.204321 0.849019
vt 0.214090 0.888098
vt 0.223860 0.888098
vt 0.214090 0.927176
vt 0.753992 0.923763
vt 0.832150 0.845605
vt 0.832150 0.923763
vt 0.812610 0.845605
vt 0.812610 0.767448
vt 0.753992 0.689290
vt 0.832150 0.689290
vt 0.832150 0.767448
vt 0.112273 0.460513
vt 0.346261 0.485191
vt 0.342605 0.504385
vt 0.269484 0.470567
vt 0.192707 0.455943
vt 0.115930 0.441318
vt 0.244298 0.849019
vt 0.234528 0.927176
vt 0.234528 0.849019
vt 0.244298 0.888098
vt 0.254067 0.927176
vt 0.254067 0.888098
vt 0.951182 0.923762
vt 0.941413 0.689290
vt 0.951182 0.689290
vt 0.941413 0.923762
vt 0.602069 0.698161
vt 0.680227 0.620004
vt 0.680227 0.698161
vt 0.660687 0.620004
vt 0.660687 0.541846
vt 0.680227 0.541846
vt 0.514142 0.740755
vt 0.504372 0.975228
vt 0.504372 0.740755
vt 0.514142 0.975228
vt 0.552323 0.445868
vt 0.396008 0.289553
vt 0.552323 0.289553
vt 0.396008 0.445868
vt 0.611839 0.786987
vt 0.602069 0.708829
vt 0.611839 0.708829
vt 0.602069 0.786987
vt 0.336758 0.954883
vt 0.326989 0.720411
vt 0.336758 0.720411
vt 0.326989 0.954883
vt 0.299165 0.721115
vt 0.294280 0.799272
vt 0.279626 0.721115
vt 0.299165 0.955587
vt 0.294280 0.877430
vt 0.279626 0.877430
vt 0.279626 0.955587
vt 0.279626 0.799272
vt 0.981390 0.689290
vt 0.981390 0.923763
vt 0.591401 0.250474
vt 0.356929 0.250474
vt 0.591401 0.484947
vt 0.356929 0.484947
vt 0.523912 0.740755
vt 0.523912 0.975228
vt 0.991925 0.005334
vt 0.991925 0.239807
vt 0.317219 0.720411
vt 0.317219 0.954883
vt 0.621609 0.708829
vt 0.616724 0.786987
vt 0.621609 0.943302
vt 0.616724 0.865144
vt 0.094159 0.515053
vt 0.094159 0.749526
vt 0.124367 0.927176
vt 0.035541 0.927176
vt 0.833814 0.326298
vt 0.542395 0.889255
vt 0.465294 0.740755
vt 0.465294 0.975228
vt 0.912601 0.328632
vt 0.913184 0.419863
vt 0.753992 0.444149
vt 0.753992 0.678622
vt 0.376468 0.740755
vt 0.376468 0.975228
vt 0.445754 0.495615
vt 0.445754 0.730087
vt 0.602069 0.444150
vt 0.920975 0.678622
vt 0.920975 0.444150
vt 0.193653 0.849019
vt 0.632277 0.708829
vt 0.632277 0.943302
vt 0.842685 0.239806
vt 0.842685 0.005334
vt 0.163445 0.927176
vt 0.931511 0.239806
vt 0.931511 0.005334
vt 0.223860 0.927176
vt 0.931643 0.689290
vt 0.931643 0.923762
vt 0.942179 0.005334
vt 0.942179 0.239806
vt 0.254067 0.849019
vt 0.094159 0.927176
vt 0.561935 0.511246
vt 0.534580 0.507339
vt 0.550211 0.495615
vt 0.550211 0.593312
vt 0.534580 0.800429
vt 0.561935 0.584519
vt 0.561935 0.608943
vt 0.550211 0.691009
vt 0.561935 0.682216
vt 0.561935 0.706640
vt 0.561935 0.779913
vt 0.583271 0.678077
vt 0.583271 0.678077
vt 0.583271 0.678077
vt 0.708472 0.384276
vt 0.708472 0.403816
vt 0.688933 0.403816
vt 0.688933 0.384276
vt 0.163445 0.838351
vt 0.104827 0.760194
vt 0.163445 0.760194
vt 0.104827 0.838351
vt 0.254860 0.129640
vt 0.317012 0.221041
vt 0.240235 0.206417
vt 0.346261 0.067487
vt 0.269484 0.052863
vt 0.942808 0.250474
vt 0.923269 0.328632
vt 0.923269 0.250474
vt 0.942808 0.328632
vt 0.024528 0.085767
vt 0.039152 0.008990
vt 0.241603 0.838351
vt 0.182985 0.760194
vt 0.241603 0.760194
vt 0.182985 0.838351
vt 0.719140 0.403816
vt 0.738680 0.384276
vt 0.738680 0.403816
vt 0.719140 0.384276
vt 0.583271 0.688744
vt 0.583271 0.688744
vt 0.583271 0.688744
vt 0.714478 0.284201
vt 0.753860 0.373609
vt 0.724057 0.356845
vt 0.724057 0.267171
vt 0.701705 0.187342
vt 0.711285 0.170312
vt 0.715542 0.083034
vt 0.688933 0.090484
vt 0.736830 0.005334
vt 0.753860 0.014913
vt 0.711285 0.259986
vt 0.698512 0.163128
vt 0.273140 0.451372
vt 0.196363 0.436748
vt 0.743324 0.891244
vt 0.684706 0.813087
vt 0.743324 0.813087
vt 0.684706 0.891244
vt 0.019958 0.005334
vt 0.005334 0.082111
vt 0.764528 0.250474
vt 0.823146 0.328632
vt 0.764528 0.328632
vt 0.823146 0.250474
vt 0.299165 0.597118
vt 0.287442 0.612750
vt 0.299165 0.523846
vt 0.271810 0.698723
vt 0.287442 0.515053
vt 0.688933 0.414484
vt 0.688933 0.414484
vt 0.688933 0.414484
vt 0.678265 0.433482
vt 0.620211 0.157725
vt 0.629282 0.161354
vt 0.602069 0.150469
vt 0.678265 0.012591
vt 0.660123 0.005334
vt 0.672063 0.708829
vt 0.676321 0.800898
vt 0.672063 0.798503
vt 0.662484 0.725859
vt 0.299165 0.621543
vt 0.299165 0.694815
vt 0.287442 0.710447
vt 0.690895 0.732513
vt 0.708371 0.723774
vt 0.725848 0.802419
vt 0.743324 0.444150
vt 0.717109 0.719405
vt 0.572603 0.730087
vt 0.572603 0.495615
vt 0.572603 0.651930
vt 0.404879 0.740755
vt 0.404879 0.832922
vt 0.400737 0.743344
vt 0.336758 0.515053
vt 0.336758 0.699387
vt 0.324331 0.522820
vt 0.328474 0.612398
vt 0.316047 0.620165
vt 0.309833 0.693174
vt 0.320189 0.709743
vt 0.318118 0.595829
vt 0.394523 0.816353
vt 0.743324 0.793680
vt 0.764528 0.339300
vt 0.823146 0.417457
vt 0.764528 0.417457
vt 0.823146 0.339300
vt 0.035541 0.760194
vt 0.094159 0.838351
vt 0.035541 0.838351
vt 0.094159 0.760194
vn -1.0000 0.0000 0.0000
vn 0.0000 -1.0000 -0.0000
vn 0.0000 0.0000 -1.0000
vn 0.0000 1.0000 0.0000
vn 1.0000 0.0000 0.0000
vn 0.0000 0.0000 1.0000
vn -1.0000 -0.0002 0.0000
vn 0.0607 0.9980 0.0145
vn -0.9998 0.0000 0.0179
vn -0.0156 0.0000 0.9999
vn 1.0000 -0.0036 0.0000
vn 0.0000 0.8000 0.6000
vn 0.0000 -0.8000 -0.6000
vn 0.6000 -0.8000 0.0000
vn -0.6000 0.8000 0.0000
vn -0.0000 -0.4384 -0.8988
vn -0.7722 0.0000 0.6353
s 1
f 1/1/1 2/2/1 3/3/1
f 2/2/1 1/1/1 4/4/1
f 4/4/1 1/1/1 5/5/1
f 6/6/1 2/2/1 4/4/1
f 7/7/2 8/8/2 9/9/2
f 8/8/2 7/7/2 10/10/2
f 10/10/2 7/7/2 11/11/2
f 11/11/2 7/7/2 12/12/2
f 12/12/2 7/7/2 13/13/2
f 14/14/2 8/8/2 10/10/2
f 15/15/3 12/16/3 13/17/3
f 12/16/3 15/15/3 16/18/3
f 17/19/3 16/18/3 15/15/3
f 17/19/3 18/20/3 16/18/3
f 8/21/3 18/20/3 17/19/3
f 18/20/3 8/21/3 14/22/3
f 19/23/4 20/24/4 21/25/4
f 20/24/4 19/23/4 22/26/4
f 23/27/2 24/28/2 25/29/2
f 24/28/2 23/27/2 26/30/2
f 24/28/2 26/30/2 27/31/2
f 26/30/2 23/27/2 28/32/2
f 28/32/2 23/27/2 29/33/2
f 30/34/2 29/33/2 23/27/2
f 31/35/2 29/33/2 30/34/2
f 29/33/2 31/35/2 32/36/2
f 33/37/1 19/38/1 34/39/1
f 19/40/1 33/41/1 35/42/1
f 35/43/1 33/44/1 36/45/1
f 22/46/1 19/47/1 35/43/1
f 20/48/5 37/49/5 21/50/5
f 37/49/5 20/48/5 38/51/5
f 37/49/5 38/51/5 39/52/5
f 39/52/5 38/51/5 40/53/5
f 41/54/5 42/55/5 43/56/5
f 42/55/5 41/54/5 44/57/5
f 42/55/5 44/57/5 45/58/5
f 45/58/5 44/57/5 46/59/5
f 33/60/2 37/61/2 39/62/2
f 37/61/2 33/60/2 47/63/2
f 47/63/2 33/60/2 48/64/2
f 48/64/2 33/60/2 49/65/2
f 49/65/2 33/60/2 34/66/2
f 50/67/2 37/61/2 47/63/2
f 40/68/6 33/69/6 39/70/6
f 33/69/6 40/68/6 36/71/6
f 51/72/6 7/73/6 9/74/6
f 7/73/6 51/72/6 52/75/6
f 53/76/3 31/77/3 30/78/3
f 31/77/3 53/76/3 54/79/3
f 19/80/3 49/81/3 34/82/3
f 49/81/3 19/80/3 55/83/3
f 55/83/3 19/80/3 56/84/3
f 21/85/3 56/84/3 19/80/3
f 37/86/3 56/84/3 21/85/3
f 56/84/3 37/86/3 50/87/3
f 57/88/5 24/89/5 58/90/5
f 24/89/5 57/88/5 25/91/5
f 7/92/7 15/93/1 13/94/1
f 15/95/1 7/96/7 59/97/8
f 59/98/8 7/99/7 52/100/1
f 60/101/1 15/102/1 59/98/8
f 2/103/3 61/104/3 3/105/3
f 61/104/3 2/103/3 62/106/3
f 62/106/3 2/103/3 63/107/3
f 43/108/3 63/107/3 2/103/3
f 42/109/3 63/107/3 43/108/3
f 63/107/3 42/109/3 64/110/3
f 2/111/4 41/112/4 43/113/4
f 41/112/4 2/111/4 6/114/4
f 1/115/2 42/116/2 45/117/2
f 42/116/2 1/115/2 65/118/2
f 65/118/2 1/115/2 66/119/2
f 66/119/2 1/115/2 61/120/2
f 61/120/2 1/115/2 3/121/2
f 64/122/2 42/116/2 65/118/2
f 67/123/5 8/124/5 17/125/5
f 8/124/5 67/123/5 68/126/5
f 8/124/5 68/126/5 9/127/5
f 9/127/5 68/126/5 51/128/5
f 46/129/6 1/130/6 45/131/6
f 1/130/6 46/129/6 5/132/6
f 15/133/4 67/134/4 17/135/4
f 67/134/4 15/133/4 60/136/4
f 69/137/4 70/138/4 71/139/4
f 70/138/4 69/137/4 72/140/4
f 71/141/6 73/142/6 74/143/6
f 73/144/6 71/145/6 75/146/9
f 75/147/9 71/148/6 70/149/6
f 76/150/6 73/151/6 75/147/9
f 77/152/3 78/153/3 79/154/3
f 78/153/3 77/152/3 80/155/3
f 78/153/3 80/155/3 69/156/3
f 69/156/3 80/155/3 72/157/3
f 73/158/1 77/159/1 79/160/1
f 77/159/1 73/158/1 76/161/1
f 81/162/4 82/163/4 83/164/4
f 82/163/4 81/162/4 84/165/4
f 85/166/3 86/167/3 87/168/3
f 86/167/3 85/166/3 88/169/3
f 86/167/3 88/169/3 89/170/3
f 89/170/3 88/169/3 90/171/3
f 69/172/5 91/173/5 78/174/5
f 91/173/5 69/172/5 71/175/5
f 91/173/5 71/175/5 92/176/5
f 92/176/5 71/175/5 93/177/5
f 93/177/5 71/175/5 74/178/5
f 94/179/5 78/174/5 91/173/5
f 95/180/6 96/181/6 97/182/6
f 96/181/6 95/180/6 98/183/6
f 96/181/6 98/183/6 99/184/6
f 100/185/6 97/182/6 96/181/6
f 89/186/4 99/187/4 98/188/4
f 99/187/4 89/186/4 90/189/4
f 97/190/1 85/191/1 87/192/1
f 85/191/1 97/190/1 100/193/1
f 101/194/2 102/195/2 103/196/2
f 102/195/2 101/194/2 104/197/2
f 104/197/2 101/194/2 105/198/2
f 106/199/2 105/198/2 101/194/2
f 107/200/2 105/198/2 106/199/2
f 105/198/2 107/200/2 108/201/2
f 83/202/6 101/203/6 103/204/6
f 109/205/10 83/202/6 82/206/6
f 110/207/6 101/203/6 109/205/10
f 101/203/6 83/202/6 109/205/10
f 97/208/2 111/209/2 95/210/2
f 111/209/2 97/208/2 112/211/2
f 112/211/2 97/208/2 113/212/2
f 87/213/2 113/212/2 97/208/2
f 86/214/2 113/212/2 87/213/2
f 113/212/2 86/214/2 114/215/2
f 98/216/5 86/217/5 89/218/5
f 86/217/5 98/216/5 114/219/5
f 114/219/5 98/216/5 111/220/5
f 111/220/5 98/216/5 95/221/5
f 115/222/3 107/223/3 106/224/3
f 107/223/3 115/222/3 116/225/3
f 107/223/3 116/225/3 81/226/3
f 81/226/3 116/225/3 84/227/3
f 101/228/1 115/229/1 106/230/1
f 115/229/1 101/228/1 110/231/1
f 73/232/2 93/233/2 74/234/2
f 93/233/2 73/232/2 117/235/2
f 117/235/2 73/232/2 118/236/2
f 79/154/2 118/236/2 73/232/2
f 78/153/2 118/236/2 79/154/2
f 118/236/2 78/153/2 94/237/2
f 57/238/6 23/239/6 25/240/6
f 23/239/6 57/238/6 119/241/6
f 120/242/4 121/243/4 122/244/4
f 121/243/4 120/242/4 123/245/4
f 124/246/5 31/247/5 54/248/5
f 31/247/5 124/246/5 32/249/5
f 23/250/1 53/251/1 30/252/1
f 53/251/1 23/250/1 119/253/1
f 81/254/5 125/255/5 107/256/5
f 125/255/5 81/254/5 83/257/5
f 125/255/5 83/257/5 126/258/5
f 126/258/5 83/257/5 102/259/5
f 102/259/5 83/257/5 103/260/5
f 108/261/5 107/256/5 125/255/5
f 127/262/6 36/71/6 40/68/6
f 36/71/6 127/262/6 128/263/6
f 129/264/4 122/244/4 130/265/4
f 122/244/4 129/264/4 131/266/4
f 122/244/4 131/266/4 120/242/4
f 120/242/4 131/266/4 123/245/4
f 121/243/4 130/265/4 122/244/4
f 130/265/4 121/243/4 132/267/4
f 132/267/4 121/243/4 123/245/4
f 132/267/4 123/245/4 131/266/4
f 130/268/6 119/241/6 57/238/6
f 119/241/6 130/268/6 132/269/6
f 133/270/6 52/75/6 51/72/6
f 52/75/6 133/270/6 134/271/6
f 119/253/1 131/272/1 53/251/1
f 131/272/1 119/253/1 132/273/1
f 129/274/5 135/275/5 54/248/5
f 135/275/5 129/274/5 130/276/5
f 135/275/5 130/276/5 136/277/5
f 136/277/5 130/276/5 58/90/5
f 58/90/5 130/276/5 57/88/5
f 124/246/5 54/248/5 135/275/5
f 6/114/4 137/278/4 41/112/4
f 137/278/4 6/114/4 138/279/4
f 133/280/5 68/126/5 67/123/5
f 68/126/5 133/280/5 51/128/5
f 52/100/1 60/101/1 59/98/8
f 60/101/1 52/100/1 134/281/1
f 36/45/1 22/46/1 35/43/1
f 22/46/1 36/45/1 128/282/1
f 5/5/1 6/6/1 4/4/1
f 6/6/1 5/5/1 138/283/1
f 131/284/3 54/79/3 53/76/3
f 54/79/3 131/284/3 129/285/3
f 137/286/5 44/57/5 41/54/5
f 44/57/5 137/286/5 46/59/5
f 127/287/5 38/51/5 20/48/5
f 38/51/5 127/287/5 40/53/5
f 60/136/4 133/288/4 67/134/4
f 133/288/4 60/136/4 134/289/4
f 137/290/6 5/132/6 46/129/6
f 5/132/6 137/290/6 138/291/6
f 22/26/4 127/292/4 20/24/4
f 127/292/4 22/26/4 128/293/4
f 139/294/3 80/155/3 77/152/3
f 80/155/3 139/294/3 72/157/3
f 90/189/4 140/295/4 99/187/4
f 140/295/4 90/189/4 141/296/4
f 141/297/3 88/169/3 85/166/3
f 88/169/3 141/297/3 90/171/3
f 76/161/1 139/298/1 77/159/1
f 139/298/1 76/161/1 142/299/1
f 72/140/4 142/300/4 70/138/4
f 142/300/4 72/140/4 139/301/4
f 99/184/6 100/185/6 96/181/6
f 100/185/6 99/184/6 140/302/6
f 84/165/4 143/303/4 82/163/4
f 143/303/4 84/165/4 144/304/4
f 82/206/6 110/207/6 109/205/10
f 110/207/6 82/206/6 143/305/6
f 110/231/1 144/306/1 115/229/1
f 144/306/1 110/231/1 143/307/1
f 100/193/1 141/308/1 85/191/1
f 141/308/1 100/193/1 140/309/1
f 144/310/3 116/225/3 115/222/3
f 116/225/3 144/310/3 84/227/3
f 70/149/6 76/150/6 75/147/9
f 76/150/6 70/149/6 142/311/6
f 26/312/5 145/313/5 27/314/5
f 145/313/5 26/312/5 64/315/5
f 145/313/5 64/315/5 146/316/5
f 64/315/5 26/312/5 63/317/5
f 146/316/5 64/315/5 65/318/5
f 146/316/5 65/318/5 14/319/11
f 14/319/11 65/318/5 18/320/5
f 146/316/5 14/319/11 10/321/5
f 146/316/5 10/321/5 56/322/5
f 146/323/5 56/324/5 50/325/5
f 146/326/5 50/327/5 47/328/5
f 146/326/5 47/328/5 147/329/5
f 66/330/12 18/331/12 65/332/12
f 18/331/12 66/330/12 16/333/12
f 145/334/2 148/335/2 149/336/2
f 148/335/2 145/334/2 150/337/2
f 150/337/2 145/334/2 151/338/2
f 47/339/6 152/340/6 147/341/6
f 152/340/6 47/339/6 48/342/6
f 146/343/13 151/338/13 145/334/13
f 151/338/13 146/343/13 153/344/13
f 11/345/12 56/346/12 10/347/12
f 56/346/12 11/345/12 55/348/12
f 152/349/1 49/350/1 153/351/1
f 49/350/1 152/349/1 48/352/1
f 55/353/1 153/354/1 49/355/1
f 11/356/1 153/357/1 55/358/1
f 12/359/1 153/357/1 11/356/1
f 66/360/1 153/357/1 12/359/1
f 61/361/1 153/357/1 66/360/1
f 61/361/1 151/362/1 153/357/1
f 28/363/1 151/362/1 61/361/1
f 29/364/1 151/362/1 28/363/1
f 151/362/1 29/364/1 150/365/1
f 16/366/1 66/360/1 12/359/1
f 62/367/1 28/363/1 61/361/1
f 149/336/14 154/368/14 155/369/14
f 154/368/14 149/336/14 148/335/14
f 28/370/12 63/371/12 26/372/12
f 63/371/12 28/370/12 62/373/12
f 152/374/2 146/343/2 147/375/2
f 146/343/2 152/374/2 153/344/2
f 113/376/15 92/377/15 112/378/15
f 92/377/15 113/376/15 91/379/15
f 118/380/3 94/381/3 125/382/3
f 154/383/3 125/382/3 94/381/3
f 154/383/3 108/384/16 125/382/3
f 154/385/3 124/386/3 108/387/16
f 154/388/3 32/389/3 124/390/3
f 148/391/3 32/389/3 154/388/3
f 148/391/3 29/392/3 32/389/3
f 29/392/3 148/391/3 150/393/3
f 108/394/16 124/395/3 135/396/3
f 108/394/16 135/396/3 105/397/3
f 154/383/3 94/381/3 91/398/3
f 154/383/3 91/398/3 113/399/3
f 154/383/3 113/399/3 114/400/3
f 111/220/5 154/368/5 114/219/5
f 154/368/5 111/220/5 155/369/5
f 149/401/6 24/402/6 145/403/6
f 24/402/6 149/401/6 155/404/6
f 24/402/6 155/404/6 58/405/6
f 58/406/6 155/407/6 102/408/17
f 58/409/6 102/410/17 136/411/6
f 102/412/17 155/413/6 126/414/6
f 126/414/6 155/413/6 93/415/6
f 93/415/6 155/413/6 92/416/6
f 92/416/6 155/413/6 112/417/6
f 112/417/6 155/413/6 111/418/6
f 117/419/6 126/414/6 93/415/6
f 104/420/6 136/411/6 102/410/17
f 27/421/6 145/403/6 24/402/6
f 105/422/15 136/423/15 104/424/15
f 136/423/15 105/422/15 135/425/15
f 118/426/15 126/427/15 117/428/15
f 126/427/15 118/426/15 125/429/15
