# Blender v2.92.0 OBJ File: 'kenney_OGConvert.blend'
# www.blender.org
o terrain_roadEnd
v 0.500000 0.000000 -0.500000
v 0.241627 0.000000 -0.031250
v 0.500000 -0.000000 0.500000
v 0.231694 0.000000 -0.044194
v 0.218750 0.000000 -0.054127
v -0.500000 0.000000 -0.500000
v 0.247870 0.000000 -0.016176
v 0.250000 0.000000 -0.000000
v 0.203676 0.000000 -0.060370
v 0.187500 0.000000 -0.062500
v 0.171324 0.000000 -0.060370
v 0.156250 0.000000 -0.054127
v 0.143306 0.000000 -0.044194
v 0.133373 0.000000 -0.031250
v 0.127130 0.000000 -0.016176
v 0.125000 0.000000 -0.000000
v -0.143306 0.000000 -0.044194
v -0.133373 0.000000 -0.031250
v 0.125000 -0.000000 0.500000
v -0.127130 0.000000 -0.016176
v -0.125000 0.000000 0.000000
v -0.156250 0.000000 -0.054127
v -0.171324 0.000000 -0.060370
v -0.187500 0.000000 -0.062500
v -0.203676 0.000000 -0.060370
v -0.218750 0.000000 -0.054127
v -0.231694 0.000000 -0.044194
v -0.241627 0.000000 -0.031250
v -0.247870 0.000000 -0.016176
v -0.250000 0.000000 0.000000
v -0.250000 -0.000000 0.500000
v -0.500000 -0.000000 0.500000
v -0.125000 -0.000000 0.500000
v 0.250000 -0.000000 0.500000
vt 0.000998 0.000998
vt 0.258856 0.468812
vt 0.000998 0.999002
vt 0.268768 0.455894
vt 0.281687 0.445981
vt 0.999002 0.000998
vt 0.252624 0.483856
vt 0.250499 0.500000
vt 0.296730 0.439750
vt 0.312874 0.437625
vt 0.329018 0.439750
vt 0.344062 0.445981
vt 0.356980 0.455894
vt 0.366893 0.468812
vt 0.373124 0.483856
vt 0.375250 0.500000
vt 0.643020 0.455894
vt 0.633107 0.468812
vt 0.375249 0.999002
vt 0.626876 0.483856
vt 0.624750 0.500000
vt 0.655938 0.445981
vt 0.670982 0.439750
vt 0.687126 0.437625
vt 0.703270 0.439750
vt 0.718313 0.445981
vt 0.731232 0.455894
vt 0.741144 0.468812
vt 0.747376 0.483856
vt 0.749501 0.500000
vt 0.749501 0.999002
vt 0.999002 0.999002
vt 0.624750 0.999002
vt 0.250499 0.999002
vn 0.0000 1.0000 0.0000
s 1
f 1/1/1 2/2/1 3/3/1
f 2/2/1 1/1/1 4/4/1
f 4/4/1 1/1/1 5/5/1
f 5/5/1 1/1/1 6/6/1
f 3/3/1 2/2/1 7/7/1
f 3/3/1 7/7/1 8/8/1
f 5/5/1 6/6/1 9/9/1
f 9/9/1 6/6/1 10/10/1
f 10/10/1 6/6/1 11/11/1
f 11/11/1 6/6/1 12/12/1
f 12/12/1 6/6/1 13/13/1
f 13/13/1 6/6/1 14/14/1
f 14/14/1 6/6/1 15/15/1
f 15/15/1 6/6/1 16/16/1
f 16/16/1 6/6/1 17/17/1
f 16/16/1 17/17/1 18/18/1
f 16/16/1 18/18/1 19/19/1
f 19/19/1 18/18/1 20/20/1
f 19/19/1 20/20/1 21/21/1
f 17/17/1 6/6/1 22/22/1
f 22/22/1 6/6/1 23/23/1
f 23/23/1 6/6/1 24/24/1
f 24/24/1 6/6/1 25/25/1
f 25/25/1 6/6/1 26/26/1
f 26/26/1 6/6/1 27/27/1
f 27/27/1 6/6/1 28/28/1
f 28/28/1 6/6/1 29/29/1
f 29/29/1 6/6/1 30/30/1
f 30/30/1 6/6/1 31/31/1
f 31/31/1 6/6/1 32/32/1
f 33/33/1 19/19/1 21/21/1
f 34/34/1 3/3/1 8/8/1
f 20/20/1 33/33/1 21/21/1
f 33/33/1 20/20/1 31/31/1
f 31/31/1 20/20/1 18/18/1
f 31/31/1 18/18/1 17/17/1
f 31/31/1 17/17/1 22/22/1
f 31/31/1 22/22/1 23/23/1
f 31/31/1 23/23/1 24/24/1
f 31/31/1 24/24/1 25/25/1
f 31/31/1 25/25/1 26/26/1
f 31/31/1 26/26/1 27/27/1
f 31/31/1 27/27/1 28/28/1
f 31/31/1 28/28/1 29/29/1
f 31/31/1 29/29/1 30/30/1
f 7/7/1 34/34/1 8/8/1
f 34/34/1 7/7/1 19/19/1
f 19/19/1 7/7/1 2/2/1
f 19/19/1 2/2/1 4/4/1
f 19/19/1 4/4/1 5/5/1
f 19/19/1 5/5/1 9/9/1
f 19/19/1 9/9/1 10/10/1
f 19/19/1 10/10/1 11/11/1
f 19/19/1 11/11/1 12/12/1
f 19/19/1 12/12/1 13/13/1
f 19/19/1 13/13/1 14/14/1
f 19/19/1 14/14/1 15/15/1
f 19/19/1 15/15/1 16/16/1
