# Blender v2.79 (sub 0) OBJ File: 'deathclaw_hulls.blend'
# www.blender.org
o Mesh.001_Mesh_Mesh.001_Hull.001
v -0.001712 1.643821 0.689504
v -0.094088 1.577363 0.659599
v -0.046987 1.559887 0.742634
v -0.001712 1.600719 0.766612
v -0.001712 1.692514 0.580924
v -0.132134 1.634281 0.578940
v -0.001712 1.710152 0.499171
v -0.119346 1.633621 0.512076
v -0.001712 1.601568 0.432597
v -0.099042 1.545048 0.486012
v -0.001711 1.368133 0.476200
v -0.054646 1.418016 0.508096
v -0.001712 1.375927 0.576627
v -0.044072 1.421904 0.618613
v -0.001712 1.403572 0.771022
v -0.061251 1.480270 0.705515
v -0.001712 1.502467 0.793703
v -0.097660 1.486332 0.628164
v -0.094099 1.531527 0.559332
v 0.090664 1.577363 0.659599
v 0.043564 1.559887 0.742634
v 0.057828 1.480270 0.705515
v 0.094237 1.486332 0.628164
v 0.090675 1.531527 0.559332
v 0.128711 1.634282 0.578940
v 0.115923 1.633622 0.512076
v 0.095619 1.545048 0.486012
v 0.051223 1.418016 0.508096
v 0.040648 1.421904 0.618613
v 0.028089 1.622381 0.679856
v 0.011954 1.390759 0.590172
v 0.034117 1.686842 0.503102
v 0.017496 1.495306 0.765254
v 0.012894 1.587547 0.758876
v 0.017496 1.428315 0.749889
v 0.029687 1.583334 0.449829
v 0.015365 1.384225 0.486489
v 0.039502 1.677353 0.572460
v -0.029847 1.623579 0.680395
v -0.019846 1.495706 0.766843
v -0.019846 1.426932 0.751070
v -0.014613 1.389931 0.589415
v -0.015502 1.588282 0.759308
v -0.031356 1.584353 0.448866
v -0.037540 1.686842 0.503102
v -0.042926 1.677352 0.572460
v -0.017834 1.383327 0.485915
v 0.114932 1.693465 0.508394
v 0.145018 1.646919 0.564525
v 0.124610 1.677692 0.611468
v -0.118356 1.693464 0.508394
v -0.148441 1.646919 0.564525
v -0.128034 1.677691 0.611468
v -0.080839 1.710528 0.557916
v 0.077416 1.710528 0.557916
v 0.191385 1.716308 0.531356
v 0.206109 1.672459 0.581772
v 0.182507 1.707532 0.623962
v -0.194808 1.716307 0.531356
v -0.209532 1.672459 0.581772
v -0.185931 1.707531 0.623962
v -0.157229 1.743265 0.576213
v 0.153805 1.743265 0.576213
v 0.143765 1.627273 0.664843
v 0.160090 1.604850 0.630637
v -0.135044 1.627273 0.666633
v -0.149064 1.604850 0.631419
v 0.190079 1.649016 0.673947
v 0.208958 1.623460 0.643205
v -0.181860 1.649016 0.672644
v -0.198659 1.623460 0.640717
v 0.132466 1.579361 0.707115
v 0.147066 1.559307 0.676522
v -0.126249 1.553997 0.704677
v -0.138788 1.533943 0.673184
v 0.173887 1.598807 0.715257
v 0.190772 1.575951 0.687762
v -0.168119 1.573444 0.710053
v -0.183143 1.550587 0.681499
v 0.134164 1.566815 0.741712
v 0.146508 1.539746 0.726756
v -0.130298 1.528993 0.739973
v -0.141622 1.501923 0.724231
v 0.169183 1.584568 0.740123
v 0.183459 1.556627 0.728589
v -0.165135 1.546746 0.736064
v -0.178614 1.518804 0.723609
v 0.139735 1.571501 0.782326
v 0.151604 1.541767 0.781791
v -0.143268 1.525282 0.777580
v -0.153196 1.500010 0.773364
v 0.173409 1.585875 0.772991
v 0.187137 1.556939 0.775756
v -0.171674 1.538497 0.769220
v -0.183384 1.513561 0.767786
v 0.154807 1.587197 0.818378
v 0.162442 1.568845 0.823776
v -0.158319 1.534903 0.808993
v -0.165035 1.518709 0.811242
v 0.176467 1.594221 0.809881
v 0.185297 1.576994 0.817150
v -0.176434 1.541770 0.801266
v -0.184287 1.526340 0.805155
v 0.183586 1.613752 0.836017
v 0.185504 1.609919 0.838913
v -0.184142 1.555690 0.825102
v -0.185921 1.552122 0.827056
v 0.189027 1.614649 0.833397
v 0.191245 1.611246 0.836633
v -0.188658 1.556726 0.822658
v -0.190717 1.553490 0.824930
v 0.001035 0.656277 -0.579778
v 0.062259 0.711966 -0.645907
v 0.002130 0.782187 -0.644872
v 0.055623 0.733360 -0.898679
v 0.001455 0.778298 -0.886148
v 0.001453 0.692643 -0.965681
v 0.055627 0.643466 -0.923723
v 0.062264 0.618207 -0.647010
v 0.002141 0.541340 -0.654901
v 0.001463 0.598509 -0.936232
v -0.052707 0.643449 -0.923701
v -0.057990 0.618194 -0.646982
v -0.057995 0.711952 -0.645879
v -0.052711 0.733343 -0.898657
v 0.001035 0.692187 -0.864668
v 0.062259 0.753534 -0.916383
v 0.002130 0.815071 -0.903071
v 0.055623 0.777351 -1.160672
v 0.001455 0.819966 -1.148817
v 0.001453 0.738776 -1.224198
v 0.055627 0.692101 -1.184365
v 0.062264 0.671318 -0.933898
v 0.002141 0.605223 -0.954755
v 0.001463 0.649467 -1.196199
v -0.052707 0.692085 -1.184344
v -0.057990 0.671301 -0.933874
v -0.057995 0.753517 -0.916359
v -0.052711 0.777334 -1.160651
v 0.000636 0.812806 -0.238284
v 0.002114 0.928883 -0.388961
v -0.079114 0.847312 -0.367743
v 0.001524 0.793749 -0.655191
v -0.061202 0.730437 -0.640126
v 0.001522 0.637666 -0.696559
v -0.061197 0.603811 -0.610036
v -0.079108 0.684192 -0.325354
v 0.002129 0.602633 -0.304183
v 0.001533 0.540504 -0.595006
v 0.064258 0.603817 -0.610077
v 0.083352 0.684201 -0.325403
v 0.083346 0.847327 -0.367794
v 0.064253 0.730442 -0.640165
v 0.119293 0.358747 -0.164415
v 0.162062 0.298518 -0.182465
v 0.114655 0.316188 -0.220540
v 0.216337 0.088814 -0.117788
v 0.155301 0.045146 -0.144978
v 0.188420 0.025052 -0.072051
v 0.098491 0.090243 -0.080345
v 0.084832 0.303413 -0.156103
v 0.149343 0.298674 -0.084527
v 0.182748 0.090447 -0.029802
v 0.156577 0.061151 -0.180315
v 0.260094 0.004486 -0.110362
v 0.091283 0.004730 -0.073850
v 0.299624 0.000848 0.069819
v 0.130815 0.001089 0.106330
v 0.231441 0.058583 0.146286
v 0.128973 0.089791 0.098335
v 0.081749 0.120647 -0.069782
v 0.224582 0.120443 -0.100676
v 0.297784 0.089547 0.061823
v 0.202845 1.423494 0.353100
v 0.079788 1.432295 0.362909
v 0.065913 1.368057 0.262117
v 0.188970 1.359256 0.252308
v 0.012980 1.455197 0.284946
v 0.073252 1.527979 0.299115
v 0.196257 1.519565 0.288360
v 0.192282 1.460497 0.187369
v 0.069226 1.469299 0.197178
v 0.235623 1.370579 0.250892
v 0.288840 1.434308 0.260288
v 0.251415 1.423148 0.327554
v 0.246521 1.507822 0.280927
v 0.231125 1.454473 0.192903
v 0.620735 0.891419 0.332549
v 0.387645 1.080780 0.143710
v 0.448730 1.114741 0.095562
v 0.659198 0.908960 0.289952
v 0.372239 1.177821 0.145579
v 0.486415 1.172636 0.135184
v 0.679821 0.946771 0.300890
v 0.463021 1.196569 0.222950
v 0.661980 0.967039 0.354419
v 0.401939 1.162606 0.271097
v 0.616250 0.952308 0.397069
v 0.364251 1.104711 0.231478
v 0.595629 0.914498 0.386133
v 0.679879 0.891576 0.327735
v 0.680056 0.891561 0.372895
v 0.650742 0.879921 0.353575
v 0.693575 0.916611 0.335096
v 0.681246 0.932164 0.370050
v 0.648808 0.922793 0.399833
v 0.634253 0.896181 0.392141
v -0.620735 0.891419 0.332549
v -0.595629 0.914498 0.386133
v -0.634253 0.896181 0.392141
v -0.650742 0.879921 0.353575
v -0.680056 0.891561 0.372895
v -0.616250 0.952308 0.397069
v -0.648808 0.922793 0.399833
v -0.661980 0.967039 0.354419
v -0.681245 0.932164 0.370050
v -0.679821 0.946771 0.300890
v -0.693575 0.916611 0.335096
v -0.659198 0.908960 0.289952
v -0.679879 0.891576 0.327735
v -0.387645 1.080780 0.143710
v -0.364251 1.104711 0.231478
v -0.372239 1.177821 0.145579
v -0.401939 1.162606 0.271097
v -0.463021 1.196569 0.222950
v -0.486415 1.172636 0.135184
v -0.448729 1.114741 0.095562
v 0.107582 0.593521 0.076888
v 0.050055 0.861732 -0.049256
v 0.094121 0.811136 -0.239390
v 0.151560 0.566256 -0.023644
v 0.192077 0.847601 -0.227447
v 0.226470 0.583986 -0.031501
v 0.245430 0.905563 -0.070052
v 0.265795 0.629549 0.060177
v 0.199511 0.939991 0.063486
v 0.223106 0.657065 0.161483
v 0.089862 0.915827 0.073993
v 0.148195 0.639336 0.169340
v 0.167966 0.516298 0.021157
v 0.199032 0.520220 0.111537
v 0.128287 0.541260 0.098857
v 0.226495 0.529668 0.016411
v 0.261343 0.571025 0.085013
v 0.225685 0.594451 0.170032
v 0.162147 0.580860 0.177495
v 0.070135 0.909647 -0.067691
v 0.112197 0.932510 -0.077633
v 0.095222 0.890777 -0.175754
v 0.169975 0.904247 -0.182047
v 0.198303 0.936382 -0.079955
v 0.173153 0.957897 0.009074
v 0.092521 0.940809 0.009888
v 0.133336 0.291623 -0.203504
v 0.094150 0.305498 -0.129578
v 0.083498 0.332773 -0.218470
v 0.128059 0.541716 0.154123
v 0.095101 0.558838 0.076696
v 0.172970 0.281872 -0.124500
v 0.222925 0.532198 0.149167
v 0.188381 0.326329 -0.208317
v 0.267823 0.563171 0.074157
v 0.172442 0.334527 -0.227537
v 0.235681 0.608103 -0.003700
v 0.110204 0.355962 -0.230145
v 0.153419 0.631603 -0.020326
v 0.154973 0.596430 0.172328
v 0.183230 0.658595 0.123724
v 0.124332 0.629985 0.126991
v 0.218415 0.593418 0.165545
v 0.246297 0.616569 0.119192
v 0.232470 0.647309 0.061015
v 0.167472 0.669785 0.026761
v -0.095101 0.558838 0.076696
v -0.153419 0.631603 -0.020327
v -0.167472 0.669785 0.026761
v -0.124332 0.629985 0.126991
v -0.183230 0.658595 0.123724
v -0.235681 0.608102 -0.003700
v -0.232470 0.647309 0.061015
v -0.267823 0.563171 0.074157
v -0.246297 0.616569 0.119192
v -0.222925 0.532198 0.149166
v -0.218415 0.593418 0.165545
v -0.128059 0.541716 0.154124
v -0.154973 0.596430 0.172328
v -0.133336 0.291624 -0.203504
v -0.110204 0.355962 -0.230145
v -0.083498 0.332773 -0.218470
v -0.172442 0.334527 -0.227537
v -0.188381 0.326329 -0.208317
v -0.172970 0.281872 -0.124500
v -0.094150 0.305498 -0.129578
v -0.089862 0.915827 0.073993
v -0.050055 0.861732 -0.049256
v -0.070135 0.909647 -0.067691
v -0.092521 0.940809 0.009888
v -0.112197 0.932510 -0.077633
v -0.199511 0.939991 0.063486
v -0.173153 0.957897 0.009074
v -0.245430 0.905563 -0.070052
v -0.198303 0.936382 -0.079955
v -0.192077 0.847601 -0.227447
v -0.169975 0.904247 -0.182047
v -0.094121 0.811136 -0.239390
v -0.095222 0.890777 -0.175754
v -0.107582 0.593521 0.076888
v -0.148195 0.639336 0.169340
v -0.162147 0.580860 0.177495
v -0.128287 0.541260 0.098857
v -0.199032 0.520220 0.111537
v -0.223106 0.657065 0.161483
v -0.225685 0.594451 0.170032
v -0.265795 0.629549 0.060177
v -0.261343 0.571025 0.085013
v -0.226470 0.583986 -0.031501
v -0.226495 0.529668 0.016411
v -0.151560 0.566256 -0.023644
v -0.167966 0.516298 0.021157
v -0.415309 1.124746 0.184436
v -0.379812 1.139217 0.100270
v -0.360902 1.124266 0.186014
v -0.201292 1.326459 0.099295
v -0.171780 1.299239 0.198651
v -0.204380 1.393377 0.198651
v -0.260316 1.380902 0.099295
v -0.417633 1.169116 0.100270
v -0.436543 1.184067 0.186014
v -0.289830 1.408121 0.198651
v -0.260316 1.380902 0.298005
v -0.417633 1.169116 0.271754
v -0.379812 1.139217 0.271754
v -0.201292 1.326459 0.298005
v 0.415309 1.124746 0.184436
v 0.379812 1.139217 0.271754
v 0.360902 1.124267 0.186014
v 0.201292 1.326459 0.298005
v 0.171780 1.299239 0.198651
v 0.204380 1.393377 0.198651
v 0.260316 1.380902 0.298005
v 0.417632 1.169116 0.271754
v 0.436543 1.184067 0.186014
v 0.289830 1.408121 0.198651
v 0.260316 1.380902 0.099295
v 0.417632 1.169116 0.100270
v 0.379812 1.139217 0.100270
v 0.201292 1.326459 0.099295
v -0.667765 0.912286 0.417316
v -0.645722 0.840134 0.379303
v -0.634788 0.866160 0.366135
v -0.655277 0.916597 0.410630
v -0.637008 0.924418 0.341515
v -0.700433 0.928107 0.340498
v -0.676830 0.935838 0.336160
v -0.671000 0.858494 0.300148
v -0.653630 0.874861 0.305639
v -0.895742 0.552431 0.512245
v -0.857251 0.541019 0.518389
v -0.872393 0.673272 0.588069
v -0.894833 0.702275 0.447260
v -0.874615 0.574673 0.373301
v 0.895743 0.552431 0.512245
v 0.857252 0.541019 0.518389
v 0.874615 0.574673 0.373301
v 0.645722 0.840134 0.379303
v 0.671000 0.858494 0.300148
v 0.700433 0.928107 0.340498
v 0.894834 0.702274 0.447260
v 0.872393 0.673272 0.588069
v 0.667765 0.912286 0.417316
v 0.634788 0.866160 0.366135
v 0.637008 0.924418 0.341515
v 0.653630 0.874861 0.305639
v 0.676831 0.935838 0.336160
v 0.655278 0.916597 0.410630
v -0.192282 1.460497 0.187369
v -0.188970 1.359256 0.252308
v -0.235623 1.370579 0.250892
v -0.231125 1.454473 0.192903
v -0.288840 1.434308 0.260288
v -0.196257 1.519565 0.288360
v -0.246521 1.507822 0.280927
v -0.202845 1.423494 0.353100
v -0.251415 1.423148 0.327554
v -0.069226 1.469299 0.197177
v -0.065913 1.368057 0.262117
v -0.012980 1.455197 0.284946
v -0.073252 1.527980 0.299115
v -0.079788 1.432295 0.362909
v -0.156577 0.061151 -0.180315
v -0.260094 0.004486 -0.110362
v -0.224582 0.120443 -0.100676
v -0.299624 0.000848 0.069819
v -0.297784 0.089547 0.061823
v -0.231441 0.058583 0.146286
v -0.128973 0.089791 0.098335
v -0.081749 0.120647 -0.069782
v -0.091283 0.004730 -0.073850
v -0.130815 0.001089 0.106330
v -0.119293 0.358747 -0.164415
v -0.162062 0.298518 -0.182465
v -0.149343 0.298674 -0.084527
v -0.216337 0.088814 -0.117788
v -0.182748 0.090447 -0.029802
v -0.188420 0.025052 -0.072051
v -0.098491 0.090243 -0.080345
v -0.084832 0.303413 -0.156103
v -0.114655 0.316188 -0.220540
v -0.155301 0.045146 -0.144978
v 0.042568 0.781408 -0.030811
v 0.184303 0.816565 -0.135721
v 0.187371 1.003958 -0.062169
v 0.125250 0.943511 0.023130
v -0.005291 0.766306 0.005226
v -0.007909 0.932122 0.098600
v -0.049872 0.787349 -0.034133
v -0.143697 0.941759 0.039633
v -0.193245 0.816308 -0.134995
v -0.188951 0.995198 -0.056037
v -0.121056 0.886808 -0.293596
v -0.119663 1.057168 -0.215358
v 0.000413 0.910367 -0.368094
v -0.001047 1.087329 -0.268333
v 0.129387 0.880241 -0.283204
v 0.116899 1.068587 -0.207130
v 0.127225 1.075192 -0.039215
v -0.005903 1.097404 -0.013775
v 0.106789 1.022077 0.048491
v -0.010596 1.002659 0.114245
v -0.125513 1.021948 0.031164
v -0.159524 1.070304 -0.040896
v -0.106903 1.129099 -0.187254
v -0.002479 1.149608 -0.216601
v 0.107729 1.124364 -0.186360
v 0.038928 0.726146 -0.085986
v -0.001027 0.582355 -0.207474
v 0.099998 0.721791 -0.173132
v -0.004035 0.711712 -0.052624
v -0.044976 0.728874 -0.091007
v -0.111221 0.726101 -0.170967
v -0.059389 0.672054 -0.292047
v -0.002060 0.684784 -0.355186
v 0.055842 0.678214 -0.300370
v 0.138854 1.063457 -0.013113
v 0.102851 1.127845 -0.183442
v 0.125421 1.275779 -0.121256
v 0.165549 1.216379 0.040085
v 0.001216 1.165721 -0.193115
v -0.004155 1.288477 -0.157423
v -0.108172 1.129187 -0.187265
v -0.130458 1.277406 -0.125892
v -0.147841 1.063457 -0.013113
v -0.169155 1.216379 0.040085
v -0.100231 1.023993 0.099286
v -0.120828 1.168528 0.176375
v 0.001216 1.049179 0.135842
v -0.004155 1.159079 0.203285
v 0.092211 1.023993 0.099286
v 0.112519 1.168528 0.176375
v 0.106445 1.017366 -0.030689
v -0.004010 0.974781 -0.044248
v 0.078430 1.073879 -0.178588
v -0.004725 1.078331 -0.199343
v -0.080462 1.067993 -0.177980
v -0.109306 1.012315 -0.032462
v -0.074687 0.983621 0.049265
v -0.004725 0.973744 0.085474
v 0.070150 0.986656 0.056777
v 0.106558 1.307033 -0.092203
v -0.011967 1.300816 0.069161
v 0.141083 1.253644 0.052023
v -0.004927 1.317415 -0.126930
v -0.111176 1.309192 -0.093187
v -0.140707 1.256800 0.053130
v -0.103076 1.215003 0.167242
v -0.004927 1.201632 0.195003
v 0.095457 1.212474 0.169287
v -0.004407 1.463039 0.119120
v 0.128059 1.670862 0.126050
v 0.187123 1.582376 0.203589
v 0.076602 1.659062 0.486552
v 0.100635 1.538606 0.466476
v 0.001656 1.750454 0.060863
v -0.004153 1.700879 0.484727
v -0.137796 1.690924 0.119358
v -0.077156 1.655331 0.478643
v -0.195710 1.574590 0.201837
v -0.100047 1.540488 0.467363
v -0.137650 1.380909 0.364489
v -0.066096 1.423544 0.458550
v -0.004136 1.315777 0.335482
v -0.005777 1.373201 0.459290
v 0.112754 1.387479 0.362851
v 0.063688 1.420063 0.459474
v 0.043607 1.621830 0.519014
v -0.005751 1.545476 0.535292
v 0.074077 1.544567 0.505769
v -0.005104 1.651718 0.522365
v -0.057806 1.628750 0.515434
v -0.091924 1.545400 0.499969
v -0.062776 1.454261 0.495744
v -0.004734 1.430299 0.499772
v 0.048489 1.461301 0.501162
v -0.119229 1.438866 0.366868
v -0.153616 1.563881 0.320828
v 0.105421 1.438846 0.370217
v -0.004973 1.778702 0.261421
v 0.127883 1.593076 0.327620
v -0.095840 1.683549 0.285061
v -0.004375 1.385296 0.380184
v 0.083403 1.712998 0.286256
v 0.084052 1.382888 0.203386
v 0.134914 1.507442 0.150844
v 0.076707 1.559257 0.096494
v -0.000173 1.618597 0.060253
v -0.133937 1.506441 0.135934
v -0.098982 1.387137 0.235833
v -0.076519 1.556661 0.093936
v -0.004050 1.358025 0.203029
v -0.005046 1.670398 0.004135
v 0.003542 1.451795 -0.128520
v -0.143292 1.599516 0.036028
v 0.000361 1.306534 -0.162289
v -0.164197 1.283789 -0.073945
v 0.144454 1.285958 -0.099484
v 0.152684 1.598034 0.062110
v -0.173385 1.422196 -0.065446
v -0.204690 1.446594 0.215078
v -0.172117 1.217978 0.100553
v 0.154417 1.428156 -0.068901
v 0.177915 1.222551 0.068276
v 0.201521 1.457663 0.198689
v 0.189532 1.336685 0.131552
v 0.076618 1.160564 0.240972
v 0.087983 1.378290 0.362842
v -0.092168 1.392017 0.357813
v -0.100322 1.271973 0.311740
v -0.096466 1.159792 0.252040
v 0.085337 1.270952 0.318317
v -0.192730 1.331008 0.158033
v 0.047793 1.136176 0.145996
v -0.009484 1.150824 -0.010965
v 0.134489 1.181344 0.038723
v -0.065989 1.135504 0.148766
v -0.146609 1.178132 0.054025
v -0.133363 1.231966 -0.072886
v -0.014050 1.259915 -0.144752
v 0.112518 1.236300 -0.090465
v 0.155920 1.517185 0.218512
v -0.015506 1.592082 0.244949
v 0.082756 1.408269 0.363793
v -0.091304 1.416337 0.364350
v -0.165517 1.509115 0.219212
v -0.131157 1.652839 0.074568
v -0.009559 1.708214 0.062806
v 0.130767 1.660549 0.076849
v 0.001136 0.741407 -1.128949
v 0.001968 0.820385 -1.184327
v -0.043731 0.775951 -1.184167
v 0.001581 0.708097 -1.400093
v -0.024921 0.685050 -1.398634
v 0.001581 0.656004 -1.423949
v -0.024919 0.638960 -1.395730
v -0.043728 0.687099 -1.183871
v 0.001977 0.642677 -1.183733
v 0.001585 0.615917 -1.394282
v 0.028087 0.638964 -1.395743
v 0.047674 0.687111 -1.183893
v 0.047670 0.775963 -1.184190
v 0.028085 0.685055 -1.398647
vn -0.6522 0.6123 0.4470
vn -0.4607 0.7053 0.5388
vn -0.4711 -0.0464 -0.8808
vn -0.4434 0.2944 -0.8466
vn -0.4718 -0.2364 -0.8494
vn -0.6757 -0.7329 0.0795
vn -0.7740 -0.6113 0.1648
vn -0.8057 -0.1324 0.5773
vn -0.7182 -0.0417 0.6946
vn -0.7152 -0.6374 0.2867
vn -0.8934 -0.4441 -0.0674
vn -0.9442 -0.3295 0.0029
vn -0.9729 -0.2299 0.0232
vn -0.9337 -0.3121 -0.1755
vn -0.9762 -0.1974 0.0903
vn -0.8888 -0.0878 0.4499
vn 0.8888 -0.0878 0.4499
vn 0.9762 -0.1974 0.0903
vn 0.9337 -0.3121 -0.1755
vn 0.9729 -0.2299 0.0232
vn 0.9442 -0.3295 0.0029
vn 0.8934 -0.4441 -0.0674
vn 0.7152 -0.6374 0.2867
vn 0.7169 -0.0457 0.6956
vn 0.8057 -0.1324 0.5773
vn 0.7740 -0.6110 0.1663
vn 0.6755 -0.7330 0.0798
vn 0.4716 -0.2379 -0.8491
vn 0.4410 0.2935 -0.8481
vn 0.7150 -0.6601 0.2302
vn 0.4585 0.7055 0.5404
vn 0.6521 0.6116 0.4481
vn 0.6563 0.6476 0.3871
vn 0.4984 0.7710 0.3964
vn 0.4489 0.8822 0.1424
vn 0.4978 0.4188 -0.7595
vn 0.4802 -0.1754 -0.8595
vn 0.6833 -0.7274 0.0625
vn 0.7748 -0.6238 0.1027
vn 0.7599 0.1303 0.6369
vn -0.7603 0.1327 0.6359
vn -0.7748 -0.6240 0.1019
vn -0.6835 -0.7273 0.0621
vn -0.4803 -0.1745 -0.8596
vn -0.4949 0.4207 -0.7603
vn -0.4489 0.8822 0.1424
vn -0.4951 0.7734 0.3959
vn -0.6563 0.6482 0.3861
vn -0.4118 -0.6021 -0.6840
vn 0.4262 0.5682 0.7039
vn 0.4711 -0.0464 -0.8808
vn -0.7150 -0.6601 0.2302
vn -0.4164 -0.0295 0.9087
vn 0.3247 0.9343 -0.1473
vn -0.3247 0.9343 -0.1473
vn 0.4164 -0.0295 0.9087
vn -0.7923 0.5956 0.1324
vn 0.7923 0.5956 0.1324
vn 0.4118 -0.6021 -0.6840
vn 0.1639 0.8376 -0.5211
vn -0.4262 0.5682 0.7039
vn 0.4348 -0.7029 -0.5629
vn -0.4214 -0.7506 -0.5089
vn -0.1639 0.8376 -0.5211
vn -0.9000 0.0507 0.4330
vn -0.3403 -0.5133 -0.7878
vn 0.4221 0.6195 0.6618
vn 0.9300 -0.3187 -0.1833
vn -0.8838 -0.4569 -0.1005
vn -0.4262 0.5654 0.7061
vn -0.9201 0.2057 0.3333
vn 0.9075 0.3415 0.2447
vn -0.4338 0.8295 0.3517
vn -0.9108 -0.3900 -0.1354
vn 0.9401 -0.0612 -0.3353
vn 0.4160 -0.7017 -0.5784
vn 0.3224 0.4664 0.8237
vn 0.8817 0.0957 0.4619
vn -0.9229 -0.1083 -0.3695
vn -0.4291 0.6524 0.6247
vn 0.3846 0.8869 0.2559
vn 0.4037 -0.9148 -0.0138
vn -0.3669 -0.7706 -0.5211
vn -0.9129 0.2545 0.3192
vn 0.9333 -0.3292 -0.1430
vn 0.4074 -0.8521 -0.3286
vn 0.3565 0.7112 0.6059
vn 0.8972 0.3047 0.3198
vn 0.4136 -0.8110 0.4138
vn 0.8164 -0.3495 0.4597
vn 0.8870 0.4516 -0.0967
vn -0.8989 -0.4185 0.1296
vn -0.4258 0.9047 -0.0170
vn -0.3979 -0.9068 -0.1392
vn -0.8959 0.4410 -0.0541
vn 0.8723 -0.4375 0.2185
vn -0.4501 -0.5945 0.6663
vn -0.4192 0.7783 -0.4674
vn 0.4120 0.9095 -0.0561
vn 0.9001 0.4049 -0.1609
vn -0.8451 -0.2979 0.4439
vn -0.4074 0.8926 -0.1930
vn -0.4335 -0.8551 0.2843
vn -0.8908 0.4214 -0.1701
vn -0.2213 0.6016 0.7675
vn 0.1699 0.6918 0.7018
vn -0.7818 0.2230 -0.5823
vn 0.5268 -0.0459 0.8488
vn 0.4048 -0.5060 0.7616
vn 0.4428 0.8292 -0.3411
vn 0.8187 0.1572 -0.5523
vn -0.5819 0.0528 0.8115
vn 0.4801 0.3996 0.7809
vn 0.7105 0.7035 0.0144
vn 0.3673 0.6329 -0.6816
vn 0.7034 0.1908 -0.6847
vn 0.9997 0.0036 -0.0247
vn 0.7371 -0.0079 0.6758
vn 0.5045 -0.4690 0.7250
vn 0.7340 -0.6704 -0.1086
vn 0.4240 -0.2704 -0.8644
vn -0.4243 -0.2704 -0.8642
vn -0.7339 -0.6711 -0.1052
vn -0.5110 -0.4737 0.7173
vn -0.7491 -0.0078 0.6624
vn -0.9998 0.0028 -0.0197
vn -0.7037 0.1907 -0.6844
vn -0.3678 0.6328 -0.6814
vn -0.7108 0.7031 0.0183
vn -0.4858 0.4047 0.7747
vn 0.4562 0.2617 0.8505
vn 0.6771 0.7351 0.0330
vn 0.3510 0.6371 -0.6862
vn 0.6846 0.1952 -0.7023
vn 0.9996 0.0065 -0.0262
vn 0.7191 -0.1447 0.6796
vn 0.4786 -0.6288 0.6128
vn 0.7010 -0.7056 -0.1037
vn 0.4057 -0.2734 -0.8721
vn -0.4060 -0.2734 -0.8720
vn -0.7005 -0.7066 -0.1000
vn -0.4849 -0.6322 0.6043
vn -0.7315 -0.1421 0.6668
vn -0.9998 0.0051 -0.0209
vn -0.6848 0.1951 -0.7021
vn -0.3515 0.6370 -0.6861
vn -0.6776 0.7345 0.0367
vn -0.4616 0.2684 0.8455
vn -0.5392 0.6697 0.5107
vn -0.7114 0.6275 -0.3165
vn -0.4406 0.2300 -0.8678
vn -0.7727 -0.1468 -0.6176
vn -0.9982 -0.0148 -0.0590
vn -0.8255 0.1419 0.5463
vn -0.4835 -0.2650 0.8343
vn -0.7197 -0.6787 0.1464
vn -0.4910 -0.6295 -0.6022
vn 0.4907 -0.6295 -0.6024
vn 0.7198 -0.6792 0.1436
vn 0.4795 -0.2594 0.8383
vn 0.8158 0.1455 0.5598
vn 0.9979 -0.0157 -0.0629
vn 0.7725 -0.1468 -0.6178
vn 0.4401 0.2300 -0.8680
vn 0.7109 0.6267 -0.3192
vn 0.5344 0.6670 0.5191
vn 0.6262 0.5955 -0.5033
vn 0.5348 -0.1376 -0.8337
vn 0.6430 -0.6119 -0.4606
vn -0.5891 -0.8068 0.0452
vn -0.8319 -0.2484 -0.4962
vn -0.8312 0.4740 -0.2907
vn -0.6334 0.4850 0.6030
vn -0.6225 0.1672 0.7646
vn -0.4404 -0.5138 0.7362
vn 0.9228 -0.1494 0.3551
vn 0.9369 0.2625 0.2308
vn 0.8255 0.5543 0.1063
vn -0.1134 -0.8474 -0.5186
vn -0.0055 -0.9998 -0.0190
vn 0.1450 -0.7231 0.6753
vn -0.4042 0.0738 0.9117
vn -0.9703 -0.0494 0.2368
vn -0.8393 -0.0500 -0.5413
vn -0.1133 0.8408 -0.5293
vn 0.0382 0.9847 0.1700
vn 0.0886 0.9107 0.4034
vn 0.7711 0.0730 0.6325
vn 0.9405 0.1741 -0.2919
vn 0.6333 0.2550 -0.7307
vn -0.0173 -0.8421 0.5391
vn -0.7082 -0.5471 0.4462
vn -0.6357 0.3977 0.6616
vn 0.1078 0.5586 0.8224
vn 0.0185 0.8645 -0.5023
vn -0.6907 0.6382 -0.3401
vn -0.7715 -0.3254 -0.5467
vn -0.1051 -0.5345 -0.8386
vn 0.7129 -0.6382 0.2908
vn 0.2388 -0.8290 0.5057
vn 0.8036 0.3221 0.5005
vn 0.3277 0.5106 0.7949
vn 0.7133 0.5370 -0.4503
vn 0.1568 0.8417 -0.5167
vn 0.6221 -0.4223 -0.6592
vn 0.0742 -0.5513 -0.8310
vn -0.1590 -0.7735 -0.6135
vn -0.5900 -0.0782 -0.8036
vn -0.0472 0.5849 -0.8097
vn 0.6614 -0.0068 -0.7500
vn 0.7530 0.6579 0.0139
vn 0.0204 0.9659 -0.2580
vn -0.3549 0.9144 0.1948
vn 0.2814 0.6678 0.6891
vn -0.5792 -0.0759 0.8116
vn -0.8809 0.3978 0.2566
vn -0.9648 -0.1490 -0.2165
vn -0.6464 -0.7623 0.0317
vn 0.3701 -0.9290 -0.0018
vn -0.0316 -0.9077 -0.4185
vn 0.8777 -0.4791 -0.0036
vn 0.7877 -0.2688 -0.5543
vn 0.9425 -0.0042 0.3343
vn 0.8590 0.5042 0.0888
vn 0.6709 0.0323 0.7408
vn 0.4599 0.5657 0.6845
vn 0.3156 -0.4187 0.8515
vn -0.2235 -0.1562 0.9621
vn 0.0842 -0.9048 0.4175
vn -0.4487 -0.8770 0.1719
vn 0.4487 -0.8770 0.1719
vn -0.0841 -0.9048 0.4175
vn 0.2235 -0.1562 0.9621
vn -0.3156 -0.4187 0.8515
vn -0.4599 0.5657 0.6845
vn -0.6709 0.0323 0.7408
vn -0.8590 0.5042 0.0888
vn -0.9425 -0.0042 0.3343
vn -0.7877 -0.2688 -0.5543
vn -0.8777 -0.4791 -0.0036
vn 0.0316 -0.9077 -0.4185
vn -0.3701 -0.9290 -0.0018
vn 0.6464 -0.7623 0.0317
vn 0.9648 -0.1490 -0.2165
vn 0.8809 0.3978 0.2566
vn 0.5792 -0.0759 0.8116
vn -0.2814 0.6678 0.6891
vn 0.3549 0.9144 0.1948
vn -0.0204 0.9659 -0.2580
vn -0.7530 0.6579 0.0139
vn -0.6614 -0.0068 -0.7500
vn 0.0472 0.5849 -0.8097
vn 0.5900 -0.0782 -0.8036
vn 0.1590 -0.7735 -0.6135
vn -0.9233 -0.3337 -0.1903
vn 0.2044 -0.5934 -0.7785
vn 0.9452 -0.0932 -0.3129
vn 0.9334 0.1961 0.3005
vn 0.0192 0.3291 0.9441
vn -0.9285 -0.0477 0.3683
vn -0.3060 -0.9408 0.1460
vn -0.8425 -0.4736 -0.2567
vn 0.2200 -0.9749 -0.0333
vn 0.0817 -0.6550 -0.7512
vn 0.6568 -0.7452 0.1156
vn 0.9247 -0.2313 -0.3025
vn 0.6720 -0.5919 0.4450
vn 0.9266 0.0865 0.3660
vn 0.2245 -0.6516 0.7246
vn 0.0760 0.1464 0.9863
vn -0.3275 -0.7797 0.5337
vn -0.8769 -0.1502 0.4567
vn -0.5079 0.8208 -0.2612
vn -0.9284 0.2512 -0.2738
vn -0.1946 0.9143 -0.3552
vn -0.1489 0.6037 -0.7832
vn -0.0508 0.9566 -0.2870
vn 0.6183 0.6616 -0.4243
vn -0.0502 0.9675 -0.2480
vn 0.5678 0.8227 -0.0255
vn -0.2067 0.9686 -0.1383
vn -0.1763 0.9138 0.3659
vn -0.5034 0.8422 -0.1930
vn -0.9074 0.4060 0.1086
vn -0.5968 -0.7844 -0.1691
vn -0.9638 -0.1661 0.2084
vn -0.1408 -0.7353 0.6630
vn -0.2886 -0.9571 0.0266
vn 0.4800 -0.8085 -0.3406
vn 0.9007 -0.4083 0.1481
vn 0.9146 0.1255 -0.3843
vn 0.3826 -0.6918 -0.6124
vn -0.1040 -0.4122 -0.9051
vn 0.2783 0.5614 -0.7793
vn -0.8584 0.4075 -0.3117
vn -0.0542 -0.3986 -0.9155
vn -0.2861 0.6675 0.6874
vn -0.8617 0.1155 0.4941
vn 0.1138 0.5793 0.8071
vn 0.0475 -0.2939 0.9546
vn 0.4714 0.6423 0.6043
vn 0.8684 -0.0660 0.4914
vn 0.5455 0.7876 0.2865
vn 0.9226 0.3712 -0.1053
vn 0.2970 0.9529 0.0617
vn 0.4156 0.7285 -0.5446
vn -0.4228 0.8899 0.1714
vn -0.8584 0.4860 -0.1641
vn 0.8584 0.4860 -0.1641
vn 0.4228 0.8899 0.1714
vn -0.4156 0.7285 -0.5446
vn -0.2970 0.9529 0.0617
vn -0.9226 0.3712 -0.1053
vn -0.5455 0.7876 0.2865
vn -0.8684 -0.0660 0.4914
vn -0.4714 0.6423 0.6043
vn -0.0475 -0.2939 0.9546
vn -0.1138 0.5793 0.8071
vn 0.8617 0.1155 0.4941
vn 0.2861 0.6675 0.6874
vn 0.0542 -0.3986 -0.9155
vn 0.8584 0.4075 -0.3117
vn -0.2783 0.5614 -0.7793
vn 0.1040 -0.4122 -0.9051
vn -0.3826 -0.6918 -0.6124
vn -0.9146 0.1255 -0.3843
vn -0.9007 -0.4083 0.1481
vn -0.4800 -0.8085 -0.3406
vn 0.2886 -0.9571 0.0266
vn 0.1408 -0.7353 0.6630
vn 0.9638 -0.1661 0.2084
vn 0.5968 -0.7844 -0.1691
vn 0.9074 0.4060 0.1086
vn 0.5034 0.8422 -0.1930
vn 0.1763 0.9138 0.3659
vn 0.2067 0.9686 -0.1383
vn -0.5678 0.8227 -0.0255
vn 0.0502 0.9675 -0.2480
vn -0.6183 0.6616 -0.4243
vn 0.0508 0.9566 -0.2870
vn 0.1489 0.6037 -0.7832
vn 0.1946 0.9143 -0.3552
vn 0.9284 0.2512 -0.2738
vn 0.5079 0.8208 -0.2612
vn 0.8769 -0.1502 0.4567
vn 0.3275 -0.7797 0.5337
vn -0.0760 0.1464 0.9863
vn -0.2245 -0.6516 0.7246
vn -0.9266 0.0865 0.3660
vn -0.6720 -0.5919 0.4450
vn -0.9247 -0.2313 -0.3025
vn -0.6568 -0.7452 0.1156
vn -0.0817 -0.6550 -0.7512
vn -0.2200 -0.9749 -0.0333
vn 0.8425 -0.4736 -0.2567
vn 0.3060 -0.9408 0.1460
vn 0.9285 -0.0477 0.3683
vn -0.0192 0.3291 0.9441
vn -0.9334 0.1961 0.3005
vn -0.9452 -0.0932 -0.3129
vn -0.2044 -0.5934 -0.7785
vn 0.9233 -0.3337 -0.1903
vn -0.0037 -0.9853 -0.1710
vn 0.6685 -0.6680 -0.3270
vn 0.9282 0.3214 -0.1876
vn 0.6127 0.6642 -0.4283
vn -0.0025 -0.0028 -1.0000
vn -0.5765 -0.7293 -0.3685
vn -0.9324 -0.3298 -0.1481
vn -0.7712 0.5467 -0.3263
vn 0.1661 0.9625 -0.2144
vn 0.1661 0.9625 0.2144
vn -0.7890 0.5213 0.3252
vn -0.9301 -0.3368 0.1464
vn -0.5793 -0.7328 0.3569
vn -0.0658 -0.0755 0.9950
vn 0.6127 0.6642 0.4283
vn 0.9282 0.3214 0.1876
vn 0.6457 -0.6904 0.3262
vn -0.0136 -0.9855 0.1689
vn 0.0136 -0.9855 0.1689
vn -0.6457 -0.6904 0.3262
vn -0.9282 0.3214 0.1876
vn -0.6127 0.6642 0.4283
vn 0.0658 -0.0755 0.9950
vn 0.5793 -0.7328 0.3569
vn 0.9301 -0.3368 0.1464
vn 0.7890 0.5213 0.3252
vn -0.1661 0.9625 0.2144
vn -0.1661 0.9625 -0.2144
vn 0.7712 0.5467 -0.3263
vn 0.9324 -0.3298 -0.1481
vn 0.5765 -0.7293 -0.3685
vn 0.0025 -0.0028 -1.0000
vn -0.6127 0.6642 -0.4283
vn -0.9282 0.3214 -0.1876
vn -0.6685 -0.6680 -0.3270
vn 0.0037 -0.9853 -0.1710
vn 0.7540 -0.1662 0.6355
vn 0.9516 0.1497 0.2685
vn -0.2203 0.9299 0.2945
vn 0.2498 0.9526 0.1738
vn -0.2099 0.3996 -0.8923
vn 0.2564 0.5089 -0.8218
vn 0.7501 -0.5635 -0.3462
vn 0.9466 -0.0942 -0.3084
vn -0.2738 -0.4727 0.8376
vn 0.7400 -0.2032 0.6411
vn -0.6243 0.7187 0.3061
vn -0.9816 0.0810 0.1731
vn -0.9851 -0.0634 -0.1599
vn -0.6484 0.2529 -0.7180
vn 0.7295 -0.6226 -0.2831
vn -0.2511 -0.9491 -0.1901
vn 0.2511 -0.9491 -0.1901
vn -0.7295 -0.6226 -0.2831
vn 0.6484 0.2529 -0.7180
vn 0.9851 -0.0634 -0.1599
vn 0.9816 0.0810 0.1731
vn 0.6243 0.7187 0.3061
vn -0.7400 -0.2032 0.6411
vn 0.2738 -0.4727 0.8376
vn -0.9466 -0.0943 -0.3084
vn -0.7501 -0.5635 -0.3462
vn -0.2564 0.5089 -0.8218
vn 0.2099 0.3996 -0.8923
vn -0.2498 0.9526 0.1738
vn 0.2203 0.9299 0.2945
vn -0.9516 0.1497 0.2685
vn -0.7540 -0.1662 0.6355
vn -0.0742 -0.5513 -0.8310
vn -0.6221 -0.4223 -0.6592
vn -0.1568 0.8417 -0.5167
vn -0.7133 0.5370 -0.4503
vn -0.3277 0.5106 0.7949
vn -0.8036 0.3221 0.5005
vn -0.2388 -0.8290 0.5057
vn -0.7129 -0.6382 0.2908
vn 0.1051 -0.5345 -0.8386
vn 0.7715 -0.3254 -0.5467
vn 0.6907 0.6382 -0.3401
vn -0.0185 0.8645 -0.5023
vn -0.1078 0.5586 0.8224
vn 0.6357 0.3977 0.6616
vn 0.7082 -0.5471 0.4462
vn 0.0173 -0.8421 0.5391
vn -0.6333 0.2550 -0.7307
vn -0.9405 0.1741 -0.2919
vn -0.7711 0.0730 0.6325
vn -0.0886 0.9107 0.4034
vn -0.0382 0.9847 0.1700
vn 0.1133 0.8408 -0.5293
vn 0.8393 -0.0500 -0.5413
vn 0.9703 -0.0494 0.2368
vn 0.4042 0.0738 0.9117
vn -0.1450 -0.7231 0.6753
vn 0.0055 -0.9998 -0.0190
vn 0.1134 -0.8474 -0.5186
vn -0.8255 0.5543 0.1063
vn -0.9369 0.2625 0.2308
vn -0.9228 -0.1494 0.3551
vn 0.4404 -0.5138 0.7362
vn 0.6225 0.1672 0.7646
vn 0.6334 0.4850 0.6030
vn 0.8312 0.4740 -0.2907
vn 0.8319 -0.2484 -0.4962
vn 0.5891 -0.8068 0.0452
vn -0.6430 -0.6119 -0.4606
vn -0.5348 -0.1376 -0.8337
vn -0.6262 0.5955 -0.5033
vn 0.7195 -0.3869 0.5767
vn 0.5147 -0.4527 0.7281
vn -0.4761 -0.5153 0.7126
vn -0.7336 -0.4359 0.5213
vn -0.9247 0.1686 -0.3412
vn -0.4982 0.3954 -0.7717
vn 0.5252 0.3853 -0.7588
vn 0.9308 0.1552 -0.3310
vn 0.2381 0.8052 0.5431
vn 0.8023 0.2455 0.5440
vn 0.1995 0.7841 0.5876
vn 0.4996 -0.1631 0.8508
vn -0.2779 0.7770 0.5648
vn -0.4921 0.0092 0.8705
vn -0.2411 0.7494 0.6167
vn -0.8193 0.2286 0.5259
vn -0.2164 0.9304 0.2960
vn -0.9142 0.3311 -0.2338
vn -0.1199 0.9619 0.2456
vn -0.3976 0.4936 -0.7734
vn 0.1509 0.9567 0.2488
vn 0.4032 0.5049 -0.7632
vn 0.2104 0.9352 0.2847
vn 0.8647 0.4970 -0.0727
vn 0.6480 -0.5885 0.4835
vn 0.5740 -0.6465 0.5025
vn 0.6050 -0.6052 0.5173
vn 0.6061 -0.5767 0.5478
vn -0.6757 -0.5722 0.4649
vn -0.6863 -0.5361 0.4915
vn -0.6068 -0.5981 0.5235
vn -0.5414 -0.6497 0.5336
vn -0.8007 -0.5941 -0.0776
vn -0.8469 -0.3543 -0.3964
vn -0.4047 -0.7528 -0.5192
vn -0.5930 -0.1059 -0.7982
vn 0.4092 -0.7485 -0.5219
vn 0.5839 -0.0958 -0.8062
vn 0.8168 -0.5701 -0.0882
vn 0.8555 -0.3930 -0.3373
vn 0.9672 -0.0641 -0.2459
vn 0.2504 0.3151 -0.9154
vn -0.2098 0.3107 -0.9271
vn -0.9692 -0.0485 -0.2414
vn -0.9296 -0.2497 0.2710
vn -0.2087 -0.4991 0.8411
vn 0.2202 -0.4915 0.8425
vn 0.9233 -0.2669 0.2763
vn 0.3724 -0.8412 -0.3920
vn 0.8374 -0.4333 -0.3331
vn 0.0937 -0.8278 -0.5531
vn 0.1570 -0.0241 -0.9873
vn -0.0430 -0.8310 -0.5546
vn -0.1353 -0.0402 -0.9900
vn -0.3474 -0.8508 -0.3944
vn -0.8209 -0.4529 -0.3479
vn -0.3479 -0.9209 -0.1759
vn -0.7737 -0.6241 0.1086
vn -0.1354 -0.9908 -0.0087
vn -0.2435 -0.6585 0.7121
vn 0.1673 -0.9859 -0.0070
vn 0.2353 -0.6520 0.7208
vn 0.3724 -0.9131 -0.1661
vn 0.7908 -0.6007 0.1172
vn 0.3110 0.9131 0.2636
vn 0.8431 0.5377 -0.0075
vn 0.0656 0.9941 0.0865
vn 0.2582 0.7207 -0.6434
vn -0.0509 0.9953 0.0824
vn -0.2393 0.7342 -0.6354
vn -0.3411 0.9047 0.2551
vn -0.8384 0.5449 0.0147
vn -0.3400 0.8413 0.4203
vn -0.8074 0.4102 0.4240
vn -0.0689 0.7816 0.6199
vn -0.2175 0.2272 0.9493
vn 0.0727 0.7853 0.6149
vn 0.2114 0.2131 0.9539
vn 0.3099 0.8529 0.4200
vn 0.8061 0.3854 0.4490
vn 0.3365 -0.4749 -0.8132
vn 0.9406 0.2845 0.1854
vn 0.4870 0.8320 0.2657
vn 0.1618 -0.3531 -0.9215
vn -0.1275 -0.3480 -0.9288
vn -0.6217 0.7516 0.2203
vn -0.9088 0.3381 0.2444
vn -0.2566 -0.4304 -0.8654
vn -0.3104 -0.6621 -0.6821
vn -0.9061 -0.1984 0.3736
vn -0.5111 -0.8593 0.0169
vn -0.4190 -0.5677 -0.7087
vn 0.1764 -0.6141 -0.7693
vn 0.4869 -0.8727 -0.0353
vn 0.9563 -0.1780 0.2320
vn 0.3373 -0.4795 -0.8101
vn 0.3465 -0.0241 0.9377
vn 0.7455 0.0943 0.6598
vn 0.1405 0.1187 0.9829
vn 0.3011 0.5267 0.7949
vn -0.1806 0.1199 0.9762
vn -0.3958 0.5930 0.7012
vn -0.3792 -0.0164 0.9252
vn -0.8881 0.1996 0.4139
vn -0.3742 -0.1620 0.9131
vn -0.9079 -0.2940 0.2989
vn -0.1853 -0.2911 0.9386
vn -0.4018 -0.5954 0.6957
vn 0.1445 -0.2904 0.9459
vn 0.3521 -0.5698 0.7425
vn 0.3411 -0.1561 0.9270
vn 0.7803 -0.2741 0.5621
vn 0.8941 0.0109 0.4478
vn 0.1422 -0.3840 0.9123
vn -0.0995 -0.3322 0.9379
vn -0.8986 0.0261 0.4379
vn -0.8037 0.5297 0.2709
vn -0.5560 0.8312 0.0063
vn 0.5803 0.8109 -0.0757
vn 0.8254 0.5264 0.2039
vn -0.8325 -0.4798 -0.2771
vn 0.8764 -0.4526 -0.1645
vn 0.4382 -0.8851 -0.1571
vn 0.4528 0.0116 -0.8916
vn 0.7025 -0.0779 -0.7074
vn -0.6756 -0.0800 -0.7330
vn -0.3937 0.0020 -0.9192
vn -0.4231 -0.8775 -0.2257
vn -0.4166 0.4596 -0.7844
vn -0.4848 0.2081 -0.8495
vn 0.4152 0.1974 -0.8880
vn 0.4859 0.4673 -0.7386
vn -0.9631 0.2367 -0.1281
vn -0.9957 -0.0619 -0.0685
vn -0.3408 0.0351 -0.9395
vn -0.3634 0.5084 -0.7807
vn 0.9786 -0.0246 -0.2045
vn 0.9699 0.1547 -0.1878
vn 0.3779 0.5678 -0.7313
vn 0.3849 0.1682 -0.9075
vn 0.8648 -0.3079 0.3967
vn 0.8444 -0.3215 0.4286
vn 0.9849 -0.0015 -0.1732
vn 0.9847 -0.0037 -0.1742
vn -0.0531 -0.3547 0.9335
vn 0.0585 -0.4674 0.8821
vn -0.9035 -0.2251 0.3647
vn -0.8042 -0.1646 0.5711
vn 0.8840 -0.1975 0.4237
vn 0.8694 -0.3277 0.3697
vn -0.0322 -0.5718 0.8197
vn -0.0348 -0.3822 0.9234
vn -0.9849 -0.1128 -0.1313
vn -0.9930 -0.0502 -0.1064
vn -0.8652 -0.2911 0.4084
vn -0.8562 -0.3496 0.3805
vn 0.2644 -0.9465 -0.1848
vn 0.5857 -0.8061 0.0848
vn 0.0036 -0.9955 -0.0942
vn 0.0164 -0.9710 0.2385
vn -0.2769 -0.9423 -0.1883
vn -0.6363 -0.7661 0.0902
vn -0.3563 -0.8462 -0.3961
vn -0.8759 -0.4243 -0.2299
vn -0.1923 -0.7638 -0.6162
vn -0.4450 -0.2374 -0.8635
vn 0.1269 -0.7666 -0.6294
vn 0.3115 -0.3891 -0.8669
vn 0.3238 -0.8495 -0.4165
vn 0.7566 -0.5464 -0.3590
vn 0.3816 0.6370 0.6698
vn 0.7388 0.2770 0.6143
vn 0.0283 0.5534 0.8325
vn -0.0210 -0.1382 0.9902
vn -0.4550 0.6263 0.6330
vn -0.7410 0.2658 0.6167
vn -0.4720 0.6789 0.5625
vn -0.9217 0.3803 0.0758
vn -0.3176 0.8042 0.5024
vn -0.4290 0.6755 -0.5997
vn 0.2250 0.8182 0.5290
vn 0.4090 0.6066 -0.6818
vn 0.3927 0.6804 0.6188
vn 0.8800 0.4292 0.2036
vn -0.4881 0.5045 0.7122
vn -0.6440 0.6807 -0.3491
vn -0.3811 0.3850 -0.8406
vn -0.7149 -0.0440 -0.6979
vn -0.9962 -0.0021 -0.0872
vn -0.7755 0.0021 0.6314
vn -0.4307 -0.4407 0.7876
vn -0.6805 -0.7260 0.0991
vn -0.4278 -0.5377 -0.7265
vn 0.4276 -0.5377 -0.7267
vn 0.6808 -0.7261 0.0966
vn 0.4267 -0.4360 0.7923
vn 0.7641 0.0022 0.6451
vn 0.9959 -0.0021 -0.0908
vn 0.7146 -0.0440 -0.6981
vn 0.3806 0.3850 -0.8408
vn 0.6433 0.6803 -0.3512
vn 0.4831 0.4992 0.7193
s off
f 39//1 2//1 3//1 43//1
f 39//2 46//2 6//2 2//2
f 45//3 8//3 52//3 51//3
f 45//4 44//4 10//4 8//4
f 44//5 47//5 12//5 10//5
f 47//6 42//6 14//6 12//6
f 42//7 41//7 16//7 14//7
f 41//8 40//8 16//8
f 40//9 43//9 3//9 16//9
f 14//10 16//10 18//10
f 12//11 14//11 18//11 19//11
f 10//12 12//12 19//12
f 8//13 10//13 19//13
f 6//14 8//14 19//14
f 2//15 6//15 19//15 18//15
f 2//16 18//16 16//16 3//16
f 20//17 21//17 22//17 23//17
f 20//18 23//18 24//18 25//18
f 25//19 24//19 26//19
f 26//20 24//20 27//20
f 27//21 24//21 28//21
f 28//22 24//22 23//22 29//22
f 29//23 23//23 22//23
f 33//24 22//24 21//24 34//24
f 35//25 22//25 33//25
f 31//26 29//26 22//26 35//26
f 37//27 28//27 29//27 31//27
f 36//28 27//28 28//28 37//28
f 32//29 26//29 27//29 36//29
f 25//30 26//30 49//30 50//30
f 30//31 20//31 25//31 38//31
f 30//32 34//32 21//32 20//32
f 1//33 4//33 34//33 30//33
f 1//34 30//34 38//34 5//34
f 5//35 38//35 32//35 7//35
f 7//36 32//36 36//36 9//36
f 9//37 36//37 37//37 11//37
f 11//38 37//38 31//38 13//38
f 13//39 31//39 35//39 15//39
f 15//25 35//25 33//25 17//25
f 17//40 33//40 34//40 4//40
f 17//41 4//41 43//41 40//41
f 15//8 17//8 40//8 41//8
f 13//42 15//42 41//42 42//42
f 11//43 13//43 42//43 47//43
f 9//44 11//44 47//44 44//44
f 7//45 9//45 44//45 45//45
f 5//46 7//46 45//46 46//46
f 1//47 5//47 46//47 39//47
f 1//48 39//48 43//48 4//48
f 51//49 52//49 60//49 59//49
f 53//50 54//50 62//50 61//50
f 26//51 32//51 48//51 49//51
f 8//52 6//52 53//52 52//52
f 38//53 25//53 50//53 55//53
f 46//54 45//54 51//54 54//54
f 32//55 38//55 55//55 48//55
f 6//56 46//56 54//56 53//56
f 62//57 59//57 60//57 61//57
f 63//58 58//58 57//58 56//58
f 49//59 48//59 56//59 57//59
f 54//60 51//60 59//60 62//60
f 55//61 50//61 58//61 63//61
f 49//62 57//62 69//62 65//62
f 60//63 52//63 67//63 71//63
f 48//64 55//64 63//64 56//64
f 70//65 71//65 79//65 78//65
f 71//66 67//66 75//66 79//66
f 53//67 61//67 70//67 66//67
f 52//68 53//68 66//68 67//68
f 50//69 49//69 65//69 64//69
f 58//70 50//70 64//70 68//70
f 61//71 60//71 71//71 70//71
f 57//72 58//72 68//72 69//72
f 76//73 72//73 80//73 84//73
f 72//74 73//74 81//74 80//74
f 67//75 66//75 74//75 75//75
f 65//76 69//76 77//76 73//76
f 66//77 70//77 78//77 74//77
f 69//78 68//78 76//78 77//78
f 64//79 65//79 73//79 72//79
f 68//80 64//80 72//80 76//80
f 82//81 86//81 94//81 90//81
f 81//82 85//82 93//82 89//82
f 79//83 75//83 83//83 87//83
f 78//84 79//84 87//84 86//84
f 75//85 74//85 82//85 83//85
f 73//86 77//86 85//86 81//86
f 74//87 78//87 86//87 82//87
f 77//88 76//88 84//88 85//88
f 89//89 93//89 101//89 97//89
f 91//90 90//90 98//90 99//90
f 85//91 84//91 92//91 93//91
f 80//92 81//92 89//92 88//92
f 84//93 80//93 88//93 92//93
f 87//94 83//94 91//94 95//94
f 86//95 87//95 95//95 94//95
f 83//96 82//96 90//96 91//96
f 103//97 99//97 107//97 111//97
f 100//98 96//98 104//98 108//98
f 90//99 94//99 102//99 98//99
f 93//100 92//100 100//100 101//100
f 88//101 89//101 97//101 96//101
f 92//102 88//102 96//102 100//102
f 95//103 91//103 99//103 103//103
f 94//104 95//104 103//104 102//104
f 107//105 106//105 110//105 111//105
f 104//106 105//106 109//106 108//106
f 102//107 103//107 111//107 110//107
f 99//108 98//108 106//108 107//108
f 97//109 101//109 109//109 105//109
f 98//110 102//110 110//110 106//110
f 101//111 100//111 108//111 109//111
f 96//112 97//112 105//112 104//112
f 112//113 113//113 114//113
f 113//114 115//114 116//114 114//114
f 115//115 117//115 116//115
f 118//116 117//116 115//116
f 119//117 118//117 115//117 113//117
f 112//118 119//118 113//118
f 112//119 120//119 119//119
f 120//120 121//120 118//120 119//120
f 121//121 117//121 118//121
f 122//122 117//122 121//122
f 123//123 122//123 121//123 120//123
f 112//124 123//124 120//124
f 112//125 124//125 123//125
f 124//126 125//126 122//126 123//126
f 125//127 117//127 122//127
f 116//128 117//128 125//128
f 114//129 116//129 125//129 124//129
f 112//130 114//130 124//130
f 126//131 127//131 128//131
f 127//132 129//132 130//132 128//132
f 129//133 131//133 130//133
f 132//134 131//134 129//134
f 133//135 132//135 129//135 127//135
f 126//136 133//136 127//136
f 126//137 134//137 133//137
f 134//138 135//138 132//138 133//138
f 135//139 131//139 132//139
f 136//140 131//140 135//140
f 137//141 136//141 135//141 134//141
f 126//142 137//142 134//142
f 126//143 138//143 137//143
f 138//144 139//144 136//144 137//144
f 139//145 131//145 136//145
f 130//146 131//146 139//146
f 128//147 130//147 139//147 138//147
f 126//148 128//148 138//148
f 140//149 141//149 142//149
f 141//150 143//150 144//150 142//150
f 143//151 145//151 144//151
f 144//152 145//152 146//152
f 142//153 144//153 146//153 147//153
f 140//154 142//154 147//154
f 140//155 147//155 148//155
f 147//156 146//156 149//156 148//156
f 146//157 145//157 149//157
f 149//158 145//158 150//158
f 148//159 149//159 150//159 151//159
f 140//160 148//160 151//160
f 140//161 151//161 152//161
f 151//162 150//162 153//162 152//162
f 150//163 145//163 153//163
f 153//164 145//164 143//164
f 152//165 153//165 143//165 141//165
f 140//166 152//166 141//166
f 154//167 155//167 156//167
f 155//168 157//168 158//168 156//168
f 157//169 159//169 158//169
f 158//170 159//170 160//170
f 156//171 158//171 160//171 161//171
f 154//172 156//172 161//172
f 154//173 161//173 162//173
f 161//174 160//174 163//174 162//174
f 160//175 159//175 163//175
f 163//176 159//176 157//176
f 162//177 163//177 157//177 155//177
f 154//178 162//178 155//178
f 164//179 165//179 166//179
f 165//180 167//180 168//180 166//180
f 167//181 169//181 168//181
f 168//182 169//182 170//182
f 166//183 168//183 170//183 171//183
f 164//184 166//184 171//184
f 164//185 171//185 172//185
f 171//186 170//186 173//186 172//186
f 170//187 169//187 173//187
f 173//188 169//188 167//188
f 172//189 173//189 167//189 165//189
f 164//190 172//190 165//190
f 174//191 175//191 176//191 177//191
f 175//192 178//192 176//192
f 179//193 178//193 175//193
f 180//194 179//194 175//194 174//194
f 181//195 182//195 179//195 180//195
f 182//196 178//196 179//196
f 176//197 178//197 182//197
f 177//198 176//198 182//198 181//198
f 183//199 184//199 185//199
f 177//200 183//200 185//200 174//200
f 185//201 184//201 186//201
f 174//202 185//202 186//202 180//202
f 186//203 184//203 187//203
f 180//204 186//204 187//204 181//204
f 187//205 184//205 183//205
f 181//206 187//206 183//206 177//206
f 188//207 189//207 190//207 191//207
f 189//208 192//208 190//208
f 190//209 192//209 193//209
f 191//210 190//210 193//210 194//210
f 194//211 193//211 195//211 196//211
f 193//212 192//212 195//212
f 195//213 192//213 197//213
f 196//214 195//214 197//214 198//214
f 198//215 197//215 199//215 200//215
f 197//216 192//216 199//216
f 199//217 192//217 189//217
f 200//218 199//218 189//218 188//218
f 201//219 202//219 203//219
f 191//220 201//220 203//220 188//220
f 204//221 202//221 201//221
f 194//222 204//222 201//222 191//222
f 205//223 202//223 204//223
f 196//224 205//224 204//224 194//224
f 206//225 202//225 205//225
f 198//226 206//226 205//226 196//226
f 207//227 202//227 206//227
f 200//228 207//228 206//228 198//228
f 203//229 202//229 207//229
f 188//230 203//230 207//230 200//230
f 208//231 209//231 210//231 211//231
f 211//232 210//232 212//232
f 209//233 213//233 214//233 210//233
f 210//234 214//234 212//234
f 213//235 215//235 216//235 214//235
f 214//236 216//236 212//236
f 215//237 217//237 218//237 216//237
f 216//238 218//238 212//238
f 217//239 219//239 220//239 218//239
f 218//240 220//240 212//240
f 219//241 208//241 211//241 220//241
f 220//242 211//242 212//242
f 209//243 208//243 221//243 222//243
f 222//244 221//244 223//244
f 224//245 222//245 223//245
f 213//246 209//246 222//246 224//246
f 215//247 213//247 224//247 225//247
f 225//248 224//248 223//248
f 226//249 225//249 223//249
f 217//250 215//250 225//250 226//250
f 219//251 217//251 226//251 227//251
f 227//252 226//252 223//252
f 221//253 227//253 223//253
f 208//254 219//254 227//254 221//254
f 228//255 229//255 230//255 231//255
f 231//256 230//256 232//256 233//256
f 233//257 232//257 234//257 235//257
f 235//258 234//258 236//258 237//258
f 237//259 236//259 238//259 239//259
f 239//260 238//260 229//260 228//260
f 240//261 241//261 242//261
f 231//262 240//262 242//262 228//262
f 243//263 241//263 240//263
f 233//264 243//264 240//264 231//264
f 244//265 241//265 243//265
f 235//266 244//266 243//266 233//266
f 245//267 241//267 244//267
f 237//268 245//268 244//268 235//268
f 246//269 241//269 245//269
f 239//270 246//270 245//270 237//270
f 242//271 241//271 246//271
f 228//272 242//272 246//272 239//272
f 247//273 248//273 249//273
f 229//274 247//274 249//274 230//274
f 249//275 248//275 250//275
f 230//276 249//276 250//276 232//276
f 250//277 248//277 251//277
f 232//278 250//278 251//278 234//278
f 251//279 248//279 252//279
f 234//280 251//280 252//280 236//280
f 252//281 248//281 253//281
f 236//282 252//282 253//282 238//282
f 253//283 248//283 247//283
f 238//284 253//284 247//284 229//284
f 254//285 255//285 256//285
f 255//286 257//286 258//286 256//286
f 259//287 260//287 257//287 255//287
f 254//288 259//288 255//288
f 254//289 261//289 259//289
f 261//290 262//290 260//290 259//290
f 263//291 264//291 262//291 261//291
f 254//292 263//292 261//292
f 254//293 265//293 263//293
f 265//294 266//294 264//294 263//294
f 256//295 258//295 266//295 265//295
f 254//296 256//296 265//296
f 267//297 268//297 269//297
f 257//298 267//298 269//298 258//298
f 270//299 268//299 267//299
f 260//300 270//300 267//300 257//300
f 271//301 268//301 270//301
f 262//302 271//302 270//302 260//302
f 272//303 268//303 271//303
f 264//304 272//304 271//304 262//304
f 273//305 268//305 272//305
f 266//306 273//306 272//306 264//306
f 269//307 268//307 273//307
f 258//308 269//308 273//308 266//308
f 274//309 275//309 276//309 277//309
f 277//310 276//310 278//310
f 275//311 279//311 280//311 276//311
f 276//312 280//312 278//312
f 279//313 281//313 282//313 280//313
f 280//314 282//314 278//314
f 281//315 283//315 284//315 282//315
f 282//316 284//316 278//316
f 283//317 285//317 286//317 284//317
f 284//318 286//318 278//318
f 285//319 274//319 277//319 286//319
f 286//320 277//320 278//320
f 287//321 288//321 289//321
f 289//322 288//322 275//322 274//322
f 288//323 290//323 279//323 275//323
f 287//324 290//324 288//324
f 287//325 291//325 290//325
f 290//326 291//326 281//326 279//326
f 291//327 292//327 283//327 281//327
f 287//328 292//328 291//328
f 287//329 293//329 292//329
f 292//330 293//330 285//330 283//330
f 293//331 289//331 274//331 285//331
f 287//332 289//332 293//332
f 294//333 295//333 296//333 297//333
f 297//334 296//334 298//334
f 299//335 294//335 297//335 300//335
f 300//336 297//336 298//336
f 301//337 299//337 300//337 302//337
f 302//338 300//338 298//338
f 303//339 301//339 302//339 304//339
f 304//340 302//340 298//340
f 305//341 303//341 304//341 306//341
f 306//342 304//342 298//342
f 295//343 305//343 306//343 296//343
f 296//344 306//344 298//344
f 307//345 308//345 309//345 310//345
f 310//346 309//346 311//346
f 308//347 312//347 313//347 309//347
f 309//348 313//348 311//348
f 312//349 314//349 315//349 313//349
f 313//350 315//350 311//350
f 314//351 316//351 317//351 315//351
f 315//352 317//352 311//352
f 316//353 318//353 319//353 317//353
f 317//354 319//354 311//354
f 318//355 307//355 310//355 319//355
f 319//356 310//356 311//356
f 308//357 307//357 295//357 294//357
f 312//358 308//358 294//358 299//358
f 314//359 312//359 299//359 301//359
f 316//360 314//360 301//360 303//360
f 318//361 316//361 303//361 305//361
f 307//362 318//362 305//362 295//362
f 320//363 321//363 322//363
f 322//364 321//364 323//364 324//364
f 324//365 323//365 325//365
f 323//366 326//366 325//366
f 321//367 327//367 326//367 323//367
f 320//368 327//368 321//368
f 320//369 328//369 327//369
f 327//370 328//370 329//370 326//370
f 326//371 329//371 325//371
f 329//372 330//372 325//372
f 328//373 331//373 330//373 329//373
f 320//374 331//374 328//374
f 320//375 332//375 331//375
f 331//376 332//376 333//376 330//376
f 330//377 333//377 325//377
f 333//378 324//378 325//378
f 332//379 322//379 324//379 333//379
f 320//380 322//380 332//380
f 334//381 335//381 336//381
f 335//382 337//382 338//382 336//382
f 337//383 339//383 338//383
f 340//384 339//384 337//384
f 341//385 340//385 337//385 335//385
f 334//386 341//386 335//386
f 334//387 342//387 341//387
f 342//388 343//388 340//388 341//388
f 343//389 339//389 340//389
f 344//390 339//390 343//390
f 345//391 344//391 343//391 342//391
f 334//392 345//392 342//392
f 334//393 346//393 345//393
f 346//394 347//394 344//394 345//394
f 347//395 339//395 344//395
f 338//396 339//396 347//396
f 336//397 338//397 347//397 346//397
f 334//398 336//398 346//398
f 348//399 349//399 350//399 351//399
f 351//400 350//400 352//400
f 353//401 348//401 351//401 354//401
f 354//402 351//402 352//402
f 355//403 353//403 354//403 356//403
f 356//404 354//404 352//404
f 349//405 355//405 356//405 350//405
f 350//406 356//406 352//406
f 357//407 358//407 359//407
f 359//408 358//408 349//408 348//408
f 360//409 359//409 348//409 353//409
f 357//410 359//410 360//410
f 357//411 360//411 361//411
f 361//412 360//412 353//412 355//412
f 358//413 361//413 355//413 349//413
f 357//414 361//414 358//414
f 362//415 363//415 364//415
f 363//416 365//416 366//416 364//416
f 364//417 366//417 367//417 368//417
f 362//418 364//418 368//418
f 362//419 368//419 369//419
f 368//420 367//420 370//420 369//420
f 369//421 370//421 365//421 363//421
f 362//422 369//422 363//422
f 371//423 372//423 373//423
f 365//424 371//424 373//424 366//424
f 373//425 372//425 374//425
f 366//426 373//426 374//426 367//426
f 374//427 372//427 375//427
f 367//428 374//428 375//428 370//428
f 375//429 372//429 371//429
f 370//430 375//430 371//430 365//430
f 376//431 377//431 378//431 379//431
f 379//432 378//432 380//432
f 381//433 376//433 379//433 382//433
f 382//434 379//434 380//434
f 383//435 381//435 382//435 384//435
f 384//436 382//436 380//436
f 377//437 383//437 384//437 378//437
f 378//438 384//438 380//438
f 377//439 376//439 385//439 386//439
f 386//440 385//440 387//440
f 385//441 388//441 387//441
f 376//442 381//442 388//442 385//442
f 381//443 383//443 389//443 388//443
f 388//444 389//444 387//444
f 389//445 386//445 387//445
f 383//446 377//446 386//446 389//446
f 390//447 391//447 392//447
f 392//448 391//448 393//448 394//448
f 394//449 393//449 395//449
f 396//450 394//450 395//450
f 397//451 392//451 394//451 396//451
f 390//452 392//452 397//452
f 390//453 397//453 398//453
f 398//454 397//454 396//454 399//454
f 399//455 396//455 395//455
f 393//456 399//456 395//456
f 391//457 398//457 399//457 393//457
f 390//458 398//458 391//458
f 400//459 401//459 402//459
f 402//460 401//460 403//460 404//460
f 404//461 403//461 405//461
f 406//462 404//462 405//462
f 407//463 402//463 404//463 406//463
f 400//464 402//464 407//464
f 400//465 407//465 408//465
f 408//466 407//466 406//466 409//466
f 409//467 406//467 405//467
f 403//468 409//468 405//468
f 401//469 408//469 409//469 403//469
f 400//470 408//470 401//470
f 410//471 411//471 412//471 413//471
f 414//472 410//472 413//472 415//472
f 416//473 414//473 415//473 417//473
f 418//474 416//474 417//474 419//474
f 420//475 418//475 419//475 421//475
f 422//476 420//476 421//476 423//476
f 424//477 422//477 423//477 425//477
f 411//478 424//478 425//478 412//478
f 426//479 427//479 428//479
f 412//480 426//480 428//480 413//480
f 428//481 427//481 429//481
f 413//482 428//482 429//482 415//482
f 429//483 427//483 430//483
f 415//484 429//484 430//484 417//484
f 430//485 427//485 431//485
f 417//486 430//486 431//486 419//486
f 431//487 427//487 432//487
f 419//488 431//488 432//488 421//488
f 432//489 427//489 433//489
f 421//490 432//490 433//490 423//490
f 433//491 427//491 434//491
f 423//492 433//492 434//492 425//492
f 434//493 427//493 426//493
f 425//494 434//494 426//494 412//494
f 435//495 436//495 437//495
f 410//496 435//496 437//496 411//496
f 438//497 436//497 435//497
f 414//498 438//498 435//498 410//498
f 439//499 436//499 438//499
f 416//500 439//500 438//500 414//500
f 440//501 436//501 439//501
f 418//502 440//502 439//502 416//502
f 441//503 436//503 440//503
f 420//504 441//504 440//504 418//504
f 442//505 436//505 441//505
f 422//506 442//506 441//506 420//506
f 443//507 436//507 442//507
f 424//508 443//508 442//508 422//508
f 437//509 436//509 443//509
f 411//510 437//510 443//510 424//510
f 444//511 445//511 446//511 447//511
f 445//512 448//512 449//512 446//512
f 448//513 450//513 451//513 449//513
f 450//514 452//514 453//514 451//514
f 452//515 454//515 455//515 453//515
f 454//516 456//516 457//516 455//516
f 456//517 458//517 459//517 457//517
f 458//518 444//518 447//518 459//518
f 460//519 461//519 462//519
f 444//520 460//520 462//520 445//520
f 462//521 461//521 463//521
f 445//522 462//522 463//522 448//522
f 463//523 461//523 464//523
f 448//524 463//524 464//524 450//524
f 464//525 461//525 465//525
f 450//526 464//526 465//526 452//526
f 465//527 461//527 466//527
f 452//528 465//528 466//528 454//528
f 466//529 461//529 467//529
f 454//530 466//530 467//530 456//530
f 467//531 461//531 468//531
f 456//532 467//532 468//532 458//532
f 468//533 461//533 460//533
f 458//534 468//534 460//534 444//534
f 469//535 470//535 471//535
f 446//536 469//536 471//536 447//536
f 472//537 470//537 469//537
f 449//538 472//538 469//538 446//538
f 473//539 470//539 472//539
f 451//540 473//540 472//540 449//540
f 474//541 470//541 473//541
f 453//542 474//542 473//542 451//542
f 475//543 470//543 474//543
f 455//544 475//544 474//544 453//544
f 476//545 470//545 475//545
f 457//546 476//546 475//546 455//546
f 477//547 470//547 476//547
f 459//548 477//548 476//548 457//548
f 471//549 470//549 477//549
f 447//550 471//550 477//550 459//550
f 478//551 514//551 513//551
f 508//552 511//552 481//552 482//552
f 511//553 507//553 484//553 481//553
f 478//554 515//554 514//554
f 478//555 518//555 515//555
f 507//556 509//556 486//556 484//556
f 509//557 505//557 488//557 486//557
f 478//558 516//558 518//558
f 478//559 517//559 516//559
f 505//560 504//560 490//560 488//560
f 504//561 510//561 492//561 490//561
f 478//562 519//562 517//562
f 478//563 512//563 519//563
f 510//564 506//564 494//564 492//564
f 506//565 508//565 482//565 494//565
f 478//566 513//566 512//566
f 495//567 496//567 497//567
f 481//568 495//568 497//568 482//568
f 498//569 496//569 495//569
f 484//570 498//570 495//570 481//570
f 499//571 496//571 498//571
f 486//572 499//572 498//572 484//572
f 500//573 496//573 499//573
f 488//574 500//574 499//574 486//574
f 501//575 496//575 500//575
f 490//576 501//576 500//576 488//576
f 502//577 496//577 501//577
f 492//578 502//578 501//578 490//578
f 503//579 496//579 502//579
f 494//580 503//580 502//580 492//580
f 497//581 496//581 503//581
f 482//582 497//582 503//582 494//582
f 493//583 480//583 508//583 506//583
f 491//584 493//584 506//584 510//584
f 489//585 491//585 510//585 504//585
f 487//586 489//586 504//586 505//586
f 485//587 487//587 505//587 509//587
f 483//588 485//588 509//588 507//588
f 479//589 483//589 507//589 511//589
f 480//590 479//590 511//590 508//590
f 516//591 517//591 489//591 487//591
f 512//592 513//592 480//592 493//592
f 519//593 512//593 493//593 491//593
f 514//594 515//594 483//594 479//594
f 513//595 514//595 479//595 480//595
f 518//596 516//596 487//596 485//596
f 515//597 518//597 485//597 483//597
f 517//598 519//598 491//598 489//598
f 520//599 521//599 522//599
f 521//600 523//600 524//600
f 523//601 521//601 525//601
f 521//602 520//602 526//602
f 522//603 527//603 528//603
f 527//604 524//604 529//604
f 524//605 527//605 521//605
f 527//606 522//606 521//606
f 525//607 530//607 531//607
f 530//608 526//608 532//608
f 526//609 530//609 521//609
f 530//610 525//610 521//610
f 531//611 533//611 534//611
f 533//612 532//612 535//612
f 532//613 533//613 530//613
f 533//614 531//614 530//614
f 536//615 537//615 535//615
f 537//616 538//616 534//616
f 538//617 537//617 529//617
f 537//618 536//618 528//618
f 535//619 539//619 533//619
f 539//620 534//620 533//620
f 534//621 539//621 537//621
f 539//622 535//622 537//622
f 529//623 540//623 527//623
f 540//624 528//624 527//624
f 528//625 540//625 537//625
f 540//626 529//626 537//626
f 541//627 542//627 543//627
f 534//628 541//628 543//628 531//628
f 544//629 542//629 541//629
f 538//630 544//630 541//630 534//630
f 545//631 542//631 544//631
f 529//632 545//632 544//632 538//632
f 546//633 542//633 545//633
f 524//634 546//634 545//634 529//634
f 547//635 542//635 546//635
f 523//636 547//636 546//636 524//636
f 548//637 542//637 547//637
f 525//638 548//638 547//638 523//638
f 543//639 542//639 548//639
f 531//640 543//640 548//640 525//640
f 549//641 550//641 551//641
f 532//642 549//642 551//642 535//642
f 551//643 550//643 552//643
f 535//644 551//644 552//644 536//644
f 552//645 550//645 553//645
f 536//646 552//646 553//646 528//646
f 553//647 550//647 554//647
f 528//648 553//648 554//648 522//648
f 554//649 550//649 555//649
f 522//650 554//650 555//650 520//650
f 555//651 550//651 556//651
f 520//652 555//652 556//652 526//652
f 556//653 550//653 549//653
f 526//654 556//654 549//654 532//654
f 557//655 558//655 559//655
f 558//656 560//656 561//656 559//656
f 560//657 562//657 561//657
f 561//658 562//658 563//658
f 559//659 561//659 563//659 564//659
f 557//660 559//660 564//660
f 557//661 564//661 565//661
f 564//662 563//662 566//662 565//662
f 563//663 562//663 566//663
f 566//664 562//664 567//664
f 565//665 566//665 567//665 568//665
f 557//666 565//666 568//666
f 557//667 568//667 569//667
f 568//668 567//668 570//668 569//668
f 567//669 562//669 570//669
f 570//670 562//670 560//670
f 569//671 570//671 560//671 558//671
f 557//672 569//672 558//672
