# Blender v2.92.0 OBJ File: 'quaternius_OGConvert.blend'
# www.blender.org
o Cushioned_Chair_Cube.009
v -0.196822 -0.005166 0.192378
v -0.189614 0.251984 0.185170
v -0.196822 -0.005166 0.111095
v -0.189614 0.251984 0.118303
v -0.115539 -0.005166 0.192378
v -0.122747 0.251984 0.185170
v -0.115539 -0.005166 0.111095
v -0.122747 0.251984 0.118303
v -0.189614 0.318726 0.185170
v -0.122747 0.318726 0.118303
v -0.218945 0.375274 0.216303
v -0.218945 0.318726 0.216303
v -0.158512 0.375274 0.156599
v -0.158512 0.375274 0.216303
v -0.218945 0.375274 0.156599
v -0.158512 0.929952 0.216303
v -0.218945 0.929952 0.216303
v -0.158512 0.986090 0.156599
v -0.218945 0.986090 0.156599
v -0.218945 1.048653 0.000000
v 0.196822 -0.005166 0.192378
v 0.189614 0.251984 0.185170
v 0.196822 -0.005166 0.111095
v 0.189614 0.251984 0.118303
v 0.115539 -0.005166 0.192378
v 0.122747 0.251984 0.185170
v 0.115539 -0.005166 0.111095
v 0.122747 0.251984 0.118303
v 0.189614 0.318726 0.185170
v 0.122747 0.318726 0.118303
v 0.000000 0.251984 0.118303
v 0.000000 0.251984 0.185170
v 0.000000 0.318726 0.118303
v 0.000000 0.318726 0.185170
v 0.218945 0.375274 0.216303
v 0.000000 0.375274 0.216303
v 0.218945 0.318726 0.216303
v 0.000000 0.318726 0.216303
v -0.196822 -0.005166 -0.192378
v -0.189614 0.251984 -0.185170
v -0.196822 -0.005166 -0.111095
v -0.189614 0.251984 -0.118303
v -0.115539 -0.005166 -0.192378
v -0.122747 0.251984 -0.185170
v -0.115539 -0.005166 -0.111095
v -0.122747 0.251984 -0.118303
v -0.189614 0.318726 -0.185170
v -0.122747 0.318726 -0.118303
v -0.189614 0.251984 0.000000
v -0.122747 0.251984 0.000000
v -0.189614 0.318726 0.000000
v -0.122747 0.318726 0.000000
v -0.218945 0.375274 -0.216303
v -0.218945 0.318726 -0.216303
v -0.218945 0.318726 0.000000
v -0.158512 0.375274 -0.156599
v -0.158512 0.375274 -0.216303
v -0.218945 0.375274 -0.156599
v -0.158512 0.929952 -0.216303
v -0.218945 0.929952 -0.216303
v -0.158512 0.986090 -0.156599
v -0.218945 0.986090 -0.156599
v -0.158512 1.048653 0.000000
v -0.158494 0.375274 0.000000
v 0.196822 -0.005166 -0.192378
v 0.189614 0.251984 -0.185170
v 0.196822 -0.005166 -0.111095
v 0.189614 0.251984 -0.118303
v 0.115539 -0.005166 -0.192378
v 0.122747 0.251984 -0.185170
v 0.115539 -0.005166 -0.111095
v 0.122747 0.251984 -0.118303
v 0.189614 0.318726 -0.185170
v 0.122747 0.318726 -0.118303
v 0.189614 0.251984 0.000000
v 0.122747 0.251984 0.000000
v 0.189614 0.318726 0.000000
v 0.122747 0.318726 0.000000
v 0.000000 0.251984 -0.118303
v 0.000000 0.251984 -0.185170
v 0.000000 0.318726 -0.118303
v 0.000000 0.318726 -0.185170
v 0.218945 0.375274 -0.216303
v 0.218945 0.375274 0.000000
v 0.000000 0.375274 -0.216303
v 0.000000 0.318726 0.000000
v 0.000000 0.375274 0.000000
v 0.218945 0.318726 -0.216303
v 0.000000 0.318726 -0.216303
v 0.218945 0.318726 0.000000
v -0.001769 0.375274 0.185280
v -0.137547 0.375274 0.134139
v -0.137547 0.375274 0.185280
v -0.137531 0.375274 0.000000
v 0.185773 0.375274 0.000000
v -0.001769 0.375274 -0.185280
v 0.185773 0.375274 -0.185280
v -0.137547 0.375274 -0.134139
v -0.137547 0.375274 -0.185280
v 0.185773 0.375274 0.185280
v -0.158511 0.418059 0.185499
v -0.158511 0.418059 0.134298
v -0.158496 0.418059 0.000000
v -0.158511 0.893745 0.185499
v -0.158511 0.941889 0.134298
v -0.158511 0.418059 -0.185499
v -0.158511 0.418059 -0.134298
v -0.158511 0.893745 -0.185499
v -0.158511 0.941889 -0.134298
v -0.158511 0.995542 0.000000
v -0.123823 0.420855 0.183486
v -0.123823 0.420855 0.132840
v -0.123808 0.420855 -0.000000
v -0.123823 0.891379 0.183486
v -0.123823 0.939000 0.132840
v -0.123823 0.420855 -0.183486
v -0.123823 0.420855 -0.132840
v -0.123823 0.891379 -0.183486
v -0.123823 0.939000 -0.132840
v -0.123823 0.992072 -0.000000
v -0.002313 0.402421 0.000000
v -0.131105 0.402421 0.127238
v -0.002313 0.402421 0.175748
v -0.131091 0.402421 0.000000
v -0.131105 0.402421 0.175748
v 0.175581 0.402421 0.000000
v -0.002313 0.402421 -0.175748
v 0.175581 0.402421 -0.175748
v -0.131105 0.402421 -0.127238
v -0.131105 0.402421 -0.175748
v 0.175581 0.402421 0.175748
vt 0.832246 0.042630
vt 0.700475 0.004670
vt 0.832246 0.008364
vt 0.772533 0.912874
vt 0.810483 0.781072
vt 0.806799 0.912874
vt 0.405896 0.813008
vt 0.443856 0.681178
vt 0.440162 0.813008
vt 0.701002 0.362626
vt 0.832804 0.400596
vt 0.701002 0.396892
vt 0.148308 0.893858
vt 0.106656 0.852204
vt 0.148308 0.852204
vt 0.917238 0.202015
vt 0.882972 0.264914
vt 0.882972 0.202015
vt 0.960991 0.004670
vt 0.926727 0.065296
vt 0.926727 0.004670
vt 0.965634 0.589975
vt 0.931446 0.650600
vt 0.931446 0.589975
vt 0.871110 0.821007
vt 0.836948 0.883916
vt 0.836948 0.821014
vt 0.666840 0.459788
vt 0.666840 0.362620
vt 0.866392 0.103256
vt 0.832246 0.103256
vt 0.866392 0.008364
vt 0.601272 0.854359
vt 0.469442 0.816399
vt 0.601272 0.820092
vt 0.666840 0.781072
vt 0.704810 0.912874
vt 0.670544 0.912874
vt 0.880451 0.589975
vt 0.918411 0.721747
vt 0.884145 0.721747
vt 0.832804 0.519013
vt 0.701002 0.556963
vt 0.701002 0.522697
vt 0.046322 0.852204
vt 0.004670 0.893858
vt 0.004670 0.852204
vt 0.917238 0.327814
vt 0.882972 0.327814
vt 0.960843 0.262640
vt 0.926579 0.202015
vt 0.960843 0.202015
vt 0.931446 0.781191
vt 0.965591 0.841816
vt 0.931446 0.841816
vt 0.871110 0.946812
vt 0.836948 0.946818
vt 0.666840 0.556957
vt 0.635460 0.759467
vt 0.635460 0.854359
vt 0.832246 0.198147
vt 0.700475 0.160187
vt 0.832246 0.163881
vt 0.875732 0.004670
vt 0.913682 0.136472
vt 0.879416 0.136472
vt 0.831066 0.211182
vt 0.869026 0.343012
vt 0.834760 0.343012
vt 0.832804 0.730078
vt 0.701002 0.768048
vt 0.701002 0.733782
vt 0.469442 0.909047
vt 0.511094 0.867393
vt 0.511094 0.909047
vt 0.944359 0.400054
vt 0.910093 0.337155
vt 0.944359 0.337155
vt 0.960991 0.125921
vt 0.926727 0.125921
vt 0.965634 0.711225
vt 0.931446 0.711225
vt 0.402202 0.885251
vt 0.436364 0.948159
vt 0.402202 0.948153
vt 0.666840 0.670886
vt 0.666840 0.768054
vt 0.866392 0.198147
vt 0.601272 0.698842
vt 0.469442 0.660882
vt 0.601272 0.664576
vt 0.721518 0.912874
vt 0.759488 0.781072
vt 0.755785 0.912874
vt 0.884145 0.862859
vt 0.922105 0.731087
vt 0.918411 0.862859
vt 0.701002 0.573711
vt 0.832804 0.611661
vt 0.701002 0.607977
vt 0.055663 0.852204
vt 0.097315 0.893858
vt 0.055663 0.893858
vt 0.910093 0.462954
vt 0.944359 0.462954
vt 0.926579 0.323265
vt 0.960843 0.323265
vt 0.965591 0.720566
vt 0.931446 0.720566
vt 0.436364 0.822355
vt 0.402202 0.822348
vt 0.666840 0.573717
vt 0.601272 0.759467
vt 0.635460 0.664576
vt 0.700475 0.046324
vt 0.768829 0.781072
vt 0.402202 0.681178
vt 0.832804 0.358942
vt 0.106656 0.893858
vt 0.917238 0.264914
vt 0.960991 0.065296
vt 0.965634 0.650600
vt 0.871110 0.883910
vt 0.701002 0.459794
vt 0.469442 0.858053
vt 0.708494 0.781072
vt 0.922105 0.589975
vt 0.832804 0.560667
vt 0.046322 0.893858
vt 0.926579 0.262640
vt 0.965591 0.781191
vt 0.700475 0.201841
vt 0.917386 0.004670
vt 0.872720 0.211182
vt 0.832804 0.771732
vt 0.469442 0.867393
vt 0.910093 0.400054
vt 0.436364 0.885257
vt 0.701002 0.670879
vt 0.469442 0.702536
vt 0.717834 0.781072
vt 0.880451 0.731087
vt 0.832804 0.570007
vt 0.097315 0.852204
vt 0.085898 0.621172
vt 0.181095 0.637070
vt 0.084991 0.637070
vt 0.020625 0.402473
vt 0.115516 0.387442
vt 0.115516 0.402473
vt 0.004670 0.499637
vt 0.004670 0.387442
vt 0.700475 0.274081
vt 0.700475 0.211182
vt 0.761100 0.274081
vt 0.761100 0.211182
vt 0.347902 0.671817
vt 0.347902 0.642873
vt 0.429132 0.642859
vt 0.691134 0.317565
vt 0.660165 0.033648
vt 0.691134 0.033654
vt 0.035266 0.036678
vt 0.115516 0.004670
vt 0.195767 0.036678
vt 0.266299 0.349601
vt 0.251489 0.327685
vt 0.277727 0.327685
vt 0.842145 0.580634
vt 0.873358 0.550039
vt 0.873113 0.580634
vt 0.004670 0.065398
vt 0.035266 0.349172
vt 0.004670 0.349172
vt 0.578935 0.004690
vt 0.466736 0.033614
vt 0.466736 0.004670
vt 0.115516 0.611831
vt 0.020625 0.596801
vt 0.115516 0.596801
vt 0.020625 0.499637
vt 0.700475 0.336981
vt 0.761100 0.336981
vt 0.871110 0.811667
vt 0.842145 0.700821
vt 0.871110 0.700821
vt 0.085898 0.842864
vt 0.181095 0.826966
vt 0.198094 0.842864
vt 0.004670 0.651767
vt 0.015414 0.637070
vt 0.015414 0.663277
vt 0.004679 0.732018
vt 0.015421 0.732018
vt 0.210408 0.402473
vt 0.226362 0.499637
vt 0.210408 0.499637
vt 0.821725 0.274081
vt 0.821725 0.211182
vt 0.578935 0.033634
vt 0.195767 0.349172
vt 0.226362 0.065398
vt 0.226362 0.349172
vt 0.266299 0.036718
vt 0.346549 0.031876
vt 0.277727 0.059359
vt 0.873358 0.389538
vt 0.842145 0.358942
vt 0.873113 0.358942
vt 0.457395 0.065474
vt 0.441609 0.327685
vt 0.441609 0.084020
vt 0.235703 0.065474
vt 0.235703 0.349601
vt 0.873631 0.469788
vt 0.842390 0.389538
vt 0.210408 0.596801
vt 0.226362 0.611831
vt 0.821725 0.336981
vt 0.235703 0.642893
vt 0.235703 0.671837
vt 0.871110 0.589975
vt 0.004670 0.812268
vt 0.015414 0.826966
vt 0.004670 0.842864
vt 0.198094 0.732018
vt 0.198094 0.621172
vt 0.842390 0.550038
vt 0.226362 0.378102
vt 0.115516 0.378102
vt 0.460101 0.358942
vt 0.460101 0.642853
vt 0.181095 0.732018
vt 0.004670 0.621172
vt 0.015414 0.800758
vt 0.084991 0.826966
vt 0.426799 0.036718
vt 0.346549 0.004670
vt 0.346549 0.349601
vt 0.415371 0.327685
vt 0.426799 0.349601
vt 0.251489 0.084020
vt 0.457395 0.349601
vt 0.346549 0.327685
vt 0.415371 0.059359
vt 0.460101 0.671797
vt 0.660165 0.317560
vt 0.004670 0.611831
vt 0.842145 0.811667
vt 0.226362 0.387442
vt 0.691134 0.004710
vt 0.842663 0.469788
vt 0.842145 0.589975
vt 0.004670 0.378102
vt 0.429132 0.358948
vt 0.445704 0.891928
vt 0.459838 0.825665
vt 0.459838 0.891665
vt 0.974974 0.641646
vt 0.989108 0.550746
vt 0.989108 0.641909
vt 0.989011 0.815514
vt 0.974932 0.880718
vt 0.974932 0.815514
vt 0.974932 0.750310
vt 0.989012 0.746773
vt 0.459838 0.982828
vt 0.445704 0.988035
vt 0.981271 0.432103
vt 0.995330 0.522166
vt 0.981271 0.527051
vt 0.989108 0.707909
vt 0.974974 0.711225
vt 0.974932 0.725451
vt 0.989012 0.720566
vt 0.988130 0.030909
vt 0.970340 0.005702
vt 0.988130 0.004670
vt 0.953934 0.363393
vt 0.971491 0.432215
vt 0.953700 0.432215
vt 0.988130 0.168553
vt 0.970340 0.193759
vt 0.970340 0.167806
vt 0.953934 0.501037
vt 0.971722 0.500290
vt 0.631546 0.651541
vt 0.657499 0.410521
vt 0.657499 0.651541
vt 0.469442 0.410521
vt 0.495396 0.651541
vt 0.469442 0.651541
vt 0.563471 0.651541
vt 0.631546 0.386127
vt 0.495396 0.386127
vt 0.882972 0.337155
vt 0.900752 0.579156
vt 0.882972 0.580634
vt 0.207434 0.864651
vt 0.225214 0.622650
vt 0.225214 0.863487
vt 0.988122 0.099731
vt 0.970332 0.099731
vt 0.970340 0.031656
vt 0.954144 0.527275
vt 0.971930 0.526244
vt 0.954144 0.337155
vt 0.971722 0.364140
vt 0.392861 0.706037
vt 0.326863 0.681178
vt 0.392861 0.681178
vt 0.326863 0.861304
vt 0.392861 0.836445
vt 0.392861 0.861304
vt 0.235703 0.681178
vt 0.326863 0.771241
vt 0.235703 0.771241
vt 0.235703 0.861304
vt 0.392854 0.771241
vt 0.989012 0.884254
vt 0.974932 0.905577
vt 0.995330 0.342039
vt 0.995330 0.432103
vt 0.445704 0.822349
vt 0.974974 0.545539
vt 0.988130 0.194791
vt 0.563471 0.358942
vt 0.900752 0.338319
vt 0.207434 0.621171
vt 0.971930 0.338186
vt 0.989012 0.910462
vt 0.981271 0.337155
vn -0.9996 0.0280 0.0000
vn 0.0000 0.0280 -0.9996
vn 0.9996 0.0280 0.0000
vn 0.0000 0.0280 0.9996
vn 0.0000 -1.0000 0.0000
vn 1.0000 0.0000 0.0000
vn 0.0000 0.0000 -1.0000
vn 0.0000 0.0000 1.0000
vn -1.0000 0.0000 0.0000
vn 0.0000 1.0000 0.0000
vn 0.0000 0.7285 0.6850
vn 0.0000 0.7285 -0.6850
vn 0.0000 0.9286 -0.3710
vn 0.0000 0.9286 0.3710
vn 1.0000 0.0001 0.0001
vn 1.0000 0.0001 -0.0001
vn 0.0000 0.3313 -0.9435
vn 0.0000 0.3313 0.9435
vn -0.9730 0.2308 -0.0001
vn -0.9730 0.2308 0.0001
vn 0.9362 0.3515 0.0000
vn -0.9730 0.2309 0.0000
vn 0.0804 -0.9968 0.0000
vn 0.0925 0.9246 0.3694
vn 0.0925 0.9247 -0.3694
vn 1.0000 0.0000 0.0001
vn 1.0000 0.0000 -0.0001
vn 0.0579 0.0000 -0.9983
vn 0.0579 0.0000 0.9983
vn 0.0891 0.7256 -0.6823
vn 0.0891 0.7256 0.6823
vn 0.0925 0.9247 0.3694
vn 0.0925 0.9246 -0.3694
s off
f 4/1/1 1/2/1 2/3/1
f 8/4/2 3/5/2 4/6/2
f 6/7/3 7/8/3 8/9/3
f 2/10/4 5/11/4 6/12/4
f 3/13/5 5/14/5 1/15/5
f 8/16/5 32/17/5 6/18/5
f 4/19/5 50/20/5 8/21/5
f 8/22/6 52/23/6 10/24/6
f 10/25/7 31/26/7 8/27/7
f 6/12/8 34/28/8 9/29/8
f 2/10/8 6/12/8 9/29/8
f 4/1/9 51/30/9 49/31/9
f 4/1/9 2/3/9 9/32/9
f 22/33/3 23/34/3 24/35/3
f 23/36/2 28/37/2 24/38/2
f 27/39/1 26/40/1 28/41/1
f 25/42/4 22/43/4 26/44/4
f 25/45/5 23/46/5 21/47/5
f 32/17/5 28/48/5 26/49/5
f 76/50/5 24/51/5 28/52/5
f 78/53/9 28/54/9 30/55/9
f 31/26/7 30/56/7 28/57/7
f 34/28/8 26/44/8 29/58/8
f 22/43/8 29/58/8 26/44/8
f 24/35/6 77/59/6 29/60/6
f 24/35/6 29/60/6 22/33/6
f 40/61/1 41/62/1 42/63/1
f 41/64/4 46/65/4 42/66/4
f 45/67/3 44/68/3 46/69/3
f 43/70/2 40/71/2 44/72/2
f 43/73/5 41/74/5 39/75/5
f 80/76/5 46/77/5 44/78/5
f 50/20/5 42/79/5 46/80/5
f 52/23/6 46/81/6 48/82/6
f 79/83/8 48/84/8 46/85/8
f 82/86/7 44/72/7 47/87/7
f 40/71/7 47/87/7 44/72/7
f 42/63/9 51/30/9 47/88/9
f 42/63/9 47/88/9 40/61/9
f 68/89/3 65/90/3 66/91/3
f 72/92/4 67/93/4 68/94/4
f 70/95/1 71/96/1 72/97/1
f 66/98/2 69/99/2 70/100/2
f 67/101/5 69/102/5 65/103/5
f 72/104/5 80/76/5 70/105/5
f 68/106/5 76/50/5 72/107/5
f 72/108/9 78/53/9 74/109/9
f 74/110/8 79/83/8 72/111/8
f 70/100/7 82/86/7 73/112/7
f 66/98/7 70/100/7 73/112/7
f 68/89/6 77/59/6 75/113/6
f 68/89/6 66/91/6 73/114/6
f 4/1/1 3/115/1 1/2/1
f 8/4/2 7/116/2 3/5/2
f 6/7/3 5/117/3 7/8/3
f 2/10/4 1/118/4 5/11/4
f 3/13/5 7/119/5 5/14/5
f 8/16/5 31/120/5 32/17/5
f 4/19/5 49/121/5 50/20/5
f 8/22/6 50/122/6 52/23/6
f 10/25/7 33/123/7 31/26/7
f 6/12/8 32/124/8 34/28/8
f 4/1/9 9/32/9 51/30/9
f 22/33/3 21/125/3 23/34/3
f 23/36/2 27/126/2 28/37/2
f 27/39/1 25/127/1 26/40/1
f 25/42/4 21/128/4 22/43/4
f 25/45/5 27/129/5 23/46/5
f 32/17/5 31/120/5 28/48/5
f 76/50/5 75/130/5 24/51/5
f 78/53/9 76/131/9 28/54/9
f 31/26/7 33/123/7 30/56/7
f 34/28/8 32/124/8 26/44/8
f 24/35/6 75/113/6 77/59/6
f 40/61/1 39/132/1 41/62/1
f 41/64/4 45/133/4 46/65/4
f 45/67/3 43/134/3 44/68/3
f 43/70/2 39/135/2 40/71/2
f 43/73/5 45/136/5 41/74/5
f 80/76/5 79/137/5 46/77/5
f 50/20/5 49/121/5 42/79/5
f 52/23/6 50/122/6 46/81/6
f 79/83/8 81/138/8 48/84/8
f 82/86/7 80/139/7 44/72/7
f 42/63/9 49/31/9 51/30/9
f 68/89/3 67/140/3 65/90/3
f 72/92/4 71/141/4 67/93/4
f 70/95/1 69/142/1 71/96/1
f 66/98/2 65/143/2 69/99/2
f 67/101/5 71/144/5 69/102/5
f 72/104/5 79/137/5 80/76/5
f 68/106/5 75/130/5 76/50/5
f 72/108/9 76/131/9 78/53/9
f 74/110/8 81/138/8 79/83/8
f 70/100/7 80/139/7 82/86/7
f 68/89/6 73/114/6 77/59/6
f 36/145/10 100/146/10 91/147/10
f 9/148/5 55/149/5 51/150/5
f 9/148/5 38/151/5 12/152/5
f 33/153/5 10/154/5 86/155/5
f 10/154/5 52/156/5 86/155/5
f 38/157/8 36/158/8 14/159/8
f 60/160/7 57/161/7 53/162/7
f 19/163/9 20/164/9 62/165/9
f 56/166/6 106/167/6 107/168/6
f 16/169/11 19/170/11 17/171/11
f 17/172/9 15/173/9 11/174/9
f 89/175/7 83/176/7 88/177/7
f 90/178/5 29/179/5 77/180/5
f 29/179/5 38/151/5 34/181/5
f 33/153/5 86/155/5 30/182/5
f 30/182/5 86/155/5 78/183/5
f 88/184/6 84/185/6 90/186/6
f 85/187/10 97/188/10 83/189/10
f 13/190/10 93/191/10 92/192/10
f 64/193/10 92/192/10 94/194/10
f 55/149/5 47/195/5 51/150/5
f 47/195/5 89/196/5 82/197/5
f 81/198/5 86/155/5 48/199/5
f 48/199/5 86/155/5 52/156/5
f 57/161/7 85/200/7 89/175/7
f 58/201/9 60/202/9 53/203/9
f 61/204/6 110/205/6 109/206/6
f 62/207/12 59/208/12 60/209/12
f 16/210/6 101/211/6 104/212/6
f 59/213/6 106/167/6 57/214/6
f 20/215/13 61/216/13 62/207/13
f 73/217/5 90/178/5 77/180/5
f 73/217/5 89/196/5 88/218/5
f 81/198/5 74/219/5 86/155/5
f 74/219/5 78/183/5 86/155/5
f 35/220/8 38/157/8 37/221/8
f 84/185/6 37/222/6 90/186/6
f 56/223/10 99/224/10 57/225/10
f 84/226/10 100/146/10 35/227/10
f 18/228/14 20/215/14 19/170/14
f 58/201/9 54/229/9 55/230/9
f 14/159/8 17/231/8 11/232/8
f 84/226/10 97/188/10 95/233/10
f 36/145/10 93/191/10 14/234/10
f 64/193/10 98/235/10 56/223/10
f 85/187/10 99/224/10 96/236/10
f 18/237/6 110/205/6 63/238/6
f 64/239/15 102/240/15 13/241/15
f 59/213/6 109/206/6 108/242/6
f 13/241/6 101/211/6 14/243/6
f 64/239/16 107/168/16 103/244/16
f 16/210/6 105/245/6 18/237/6
f 36/145/10 35/227/10 100/146/10
f 9/148/5 12/152/5 55/149/5
f 9/148/5 34/181/5 38/151/5
f 11/232/8 12/246/8 14/159/8
f 12/246/8 38/157/8 14/159/8
f 60/160/7 59/247/7 57/161/7
f 62/165/9 58/201/9 15/173/9
f 15/173/9 19/163/9 62/165/9
f 56/166/6 57/214/6 106/167/6
f 16/169/11 18/228/11 19/170/11
f 17/172/9 19/163/9 15/173/9
f 89/175/7 85/200/7 83/176/7
f 90/178/5 37/248/5 29/179/5
f 29/179/5 37/248/5 38/151/5
f 88/184/6 83/249/6 84/185/6
f 85/187/10 96/236/10 97/188/10
f 13/190/10 14/234/10 93/191/10
f 64/193/10 13/190/10 92/192/10
f 55/149/5 54/250/5 47/195/5
f 47/195/5 54/250/5 89/196/5
f 89/175/7 54/251/7 57/161/7
f 54/251/7 53/162/7 57/161/7
f 58/201/9 62/165/9 60/202/9
f 61/204/6 63/238/6 110/205/6
f 62/207/12 61/216/12 59/208/12
f 16/210/6 14/243/6 101/211/6
f 59/213/6 108/242/6 106/167/6
f 20/215/13 63/252/13 61/216/13
f 73/217/5 88/218/5 90/178/5
f 73/217/5 82/197/5 89/196/5
f 35/220/8 36/158/8 38/157/8
f 84/185/6 35/253/6 37/222/6
f 56/223/10 98/235/10 99/224/10
f 84/226/10 95/233/10 100/146/10
f 18/228/14 63/252/14 20/215/14
f 11/174/9 15/173/9 12/254/9
f 15/173/9 58/201/9 55/230/9
f 58/201/9 53/203/9 54/229/9
f 55/230/9 12/254/9 15/173/9
f 14/159/8 16/255/8 17/231/8
f 84/226/10 83/189/10 97/188/10
f 36/145/10 91/147/10 93/191/10
f 64/193/10 94/194/10 98/235/10
f 85/187/10 57/225/10 99/224/10
f 18/237/6 105/245/6 110/205/6
f 64/239/15 103/244/15 102/240/15
f 59/213/6 61/204/6 109/206/6
f 13/241/6 102/240/6 101/211/6
f 64/239/16 56/166/16 107/168/16
f 16/210/6 104/212/6 105/245/6
f 96/256/17 130/257/17 127/258/17
f 91/259/18 131/260/18 123/261/18
f 94/262/19 122/263/19 124/264/19
f 94/262/20 129/265/20 98/266/20
f 96/256/17 128/267/17 97/268/17
f 95/269/21 131/270/21 100/271/21
f 91/259/18 125/272/18 93/273/18
f 98/266/22 130/274/22 99/275/22
f 102/276/23 111/277/23 101/278/23
f 105/279/24 120/280/24 110/281/24
f 107/282/23 116/283/23 117/284/23
f 109/285/25 120/280/25 119/286/25
f 112/287/6 114/288/6 111/289/6
f 118/290/6 117/291/6 116/292/6
f 113/293/26 115/294/26 112/287/26
f 119/295/27 113/293/27 117/291/27
f 108/296/28 116/297/28 106/298/28
f 104/299/29 111/300/29 114/301/29
f 103/302/23 117/284/23 113/303/23
f 103/302/23 112/304/23 102/276/23
f 108/305/30 119/286/30 118/306/30
f 104/307/31 115/308/31 105/279/31
f 129/309/10 127/310/10 130/311/10
f 123/312/10 122/313/10 125/314/10
f 128/315/10 127/310/10 121/316/10
f 126/317/10 128/315/10 121/316/10
f 126/317/10 121/316/10 131/318/10
f 131/318/10 121/316/10 123/312/10
f 124/319/10 122/313/10 121/316/10
f 124/319/10 121/316/10 129/309/10
f 92/320/22 125/321/22 122/263/22
f 95/269/21 128/322/21 126/323/21
f 96/256/17 99/324/17 130/257/17
f 91/259/18 100/325/18 131/260/18
f 94/262/19 92/320/19 122/263/19
f 94/262/20 124/264/20 129/265/20
f 96/256/17 127/258/17 128/267/17
f 95/269/21 126/323/21 131/270/21
f 91/259/18 123/261/18 125/272/18
f 98/266/22 129/265/22 130/274/22
f 102/276/23 112/304/23 111/277/23
f 105/279/32 115/308/32 120/280/32
f 107/282/23 106/326/23 116/283/23
f 109/285/33 110/281/33 120/280/33
f 112/287/6 115/294/6 114/288/6
f 118/290/6 119/295/6 117/291/6
f 113/293/6 120/327/6 115/294/6
f 119/295/6 120/327/6 113/293/6
f 108/296/28 118/328/28 116/297/28
f 104/299/29 101/329/29 111/300/29
f 103/302/23 107/282/23 117/284/23
f 103/302/23 113/303/23 112/304/23
f 108/305/30 109/285/30 119/286/30
f 104/307/31 114/330/31 115/308/31
f 129/309/10 121/316/10 127/310/10
f 123/312/10 121/316/10 122/313/10
f 92/320/22 93/331/22 125/321/22
f 95/269/21 97/332/21 128/322/21
l 86 87
