# Blender v2.92.0 OBJ File: 'kenney_OGConvert.blend'
# www.blender.org
o bathroomCabinet
v -0.200000 -0.000000 0.080000
v -0.200000 -0.000000 0.210000
v -0.430000 -0.000000 0.210000
v -0.430000 -0.000000 0.080000
v -0.200000 0.390000 0.210000
v -0.200000 0.390000 0.080000
v -0.430000 0.390000 0.080000
v -0.430000 0.390000 0.210000
v -0.403156 0.026844 0.080000
v -0.403156 0.363156 0.080000
v -0.226844 0.363156 0.080000
v -0.226844 0.026844 0.080000
v -0.226844 0.208422 0.190000
v -0.403156 0.208422 0.190000
v -0.403156 0.363156 0.190000
v -0.226844 0.363156 0.190000
v -0.226844 0.026844 0.190000
v -0.403156 0.026844 0.190000
v -0.226844 0.181578 0.100000
v -0.226844 0.181578 0.190000
v -0.403156 0.181578 0.190000
v -0.403156 0.181578 0.100000
v -0.226844 0.208422 0.100000
v -0.403156 0.208422 0.100000
v -0.403156 0.026844 0.100000
v -0.226844 0.026844 0.100000
v -0.226844 0.363156 0.100000
v -0.403156 0.363156 0.100000
v -0.382814 0.047186 0.080000
v -0.382814 0.342814 0.080000
v -0.247186 0.342814 0.080000
v -0.247186 0.047186 0.080000
vt 0.855592 0.682999
vt 0.714564 0.682999
vt 0.714564 0.433487
vt 0.855592 0.433487
vt 0.714564 0.689934
vt 0.855592 0.689934
vt 0.855592 0.939445
vt 0.714564 0.939445
vt 0.855592 0.003468
vt 0.855592 0.426552
vt 0.714564 0.426552
vt 0.714564 0.003468
vt 0.252979 0.426552
vt 0.003468 0.426552
vt 0.003468 0.003468
vt 0.252979 0.003468
vt 0.144496 0.433487
vt 0.144496 0.856572
vt 0.003468 0.856572
vt 0.003468 0.433487
vt 0.289036 0.397431
vt 0.509426 0.426552
vt 0.259914 0.426552
vt 0.259914 0.003468
vt 0.289036 0.032589
vt 0.480304 0.032589
vt 0.509426 0.003468
vt 0.480304 0.397431
vt 0.151431 0.805264
vt 0.319291 0.996532
vt 0.151431 0.996532
vt 0.319291 0.805264
vt 0.862528 0.194736
vt 0.981859 0.003468
vt 0.981859 0.194736
vt 0.862528 0.003468
vt 0.981859 0.201671
vt 0.862528 0.392940
vt 0.862528 0.201671
vt 0.981859 0.392940
vt 0.501599 0.631691
vt 0.403964 0.822959
vt 0.403964 0.631691
vt 0.501599 0.822959
vt 0.403964 0.624756
vt 0.501599 0.433487
vt 0.501599 0.624756
vt 0.403964 0.433487
vt 0.516361 0.747021
vt 0.684221 0.938290
vt 0.516361 0.938290
vt 0.684221 0.747021
vt 0.862528 0.433487
vt 0.891649 0.624756
vt 0.862528 0.624756
vt 0.891649 0.433487
vt 0.173128 0.601347
vt 0.151431 0.433487
vt 0.270762 0.433487
vt 0.173128 0.630469
vt 0.270762 0.601347
vt 0.151431 0.798329
vt 0.270762 0.798329
vt 0.270762 0.630469
vt 0.299394 0.601347
vt 0.277698 0.433487
vt 0.397029 0.433487
vt 0.299394 0.630469
vt 0.397029 0.601347
vt 0.277698 0.798329
vt 0.397029 0.798329
vt 0.397029 0.630469
vt 0.707629 0.368309
vt 0.516361 0.368309
vt 0.516361 0.003468
vt 0.707629 0.003468
vt 0.173128 0.433487
vt 0.173128 0.798329
vt 0.960163 0.201671
vt 0.960163 0.392940
vt 0.299394 0.433487
vt 0.299394 0.798329
vt 0.960163 0.194736
vt 0.960163 0.003468
vt 0.685562 0.718018
vt 0.707629 0.740086
vt 0.516361 0.740086
vt 0.707629 0.375244
vt 0.685562 0.397312
vt 0.538428 0.397312
vt 0.538428 0.718018
vt 0.516361 0.375244
vn -0.0000 -1.0000 -0.0000
vn 0.0000 1.0000 0.0000
vn 1.0000 -0.0000 -0.0000
vn 0.0000 -0.0000 1.0000
vn -1.0000 0.0000 0.0000
vn -0.0000 0.0000 -1.0000
s 1
f 1/1/1 2/2/1 3/3/1
f 3/3/1 4/4/1 1/1/1
f 5/5/2 6/6/2 7/7/2
f 7/7/2 8/8/2 5/5/2
f 1/9/3 6/10/3 5/11/3
f 5/11/3 2/12/3 1/9/3
f 3/13/4 2/14/4 5/15/4
f 5/15/4 8/16/4 3/13/4
f 7/17/5 4/18/5 3/19/5
f 3/19/5 8/20/5 7/17/5
f 9/21/6 1/22/6 4/23/6
f 4/23/6 7/24/6 9/21/6
f 7/24/6 10/25/6 9/21/6
f 7/24/6 11/26/6 10/25/6
f 7/24/6 6/27/6 11/26/6
f 12/28/6 6/27/6 1/22/6
f 1/22/6 9/21/6 12/28/6
f 12/28/6 11/26/6 6/27/6
f 13/29/4 15/30/4 14/31/4
f 15/30/4 13/29/4 16/32/4
f 17/33/1 9/34/1 12/35/1
f 9/34/1 17/33/1 18/36/1
f 11/37/2 15/38/2 16/39/2
f 15/38/2 11/37/2 10/40/2
f 19/41/2 21/42/2 20/43/2
f 21/42/2 19/41/2 22/44/2
f 13/45/1 24/46/1 23/47/1
f 24/46/1 13/45/1 14/48/1
f 17/49/4 21/50/4 18/51/4
f 21/50/4 17/49/4 20/52/4
f 19/53/4 24/54/4 22/55/4
f 24/54/4 19/53/4 23/56/4
f 22/57/5 9/58/5 18/59/5
f 9/58/5 22/57/5 24/60/5
f 22/57/5 18/59/5 21/61/5
f 24/60/5 10/62/5 9/58/5
f 10/62/5 24/60/5 15/63/5
f 15/63/5 24/60/5 14/64/5
f 23/65/3 11/66/3 16/67/3
f 11/66/3 23/65/3 19/68/3
f 23/65/3 16/67/3 13/69/3
f 19/68/3 12/70/3 11/66/3
f 12/70/3 19/68/3 17/71/3
f 17/71/3 19/68/3 20/72/3
f 25/73/4 26/74/4 27/75/4
f 27/75/4 28/76/4 25/73/4
f 10/62/5 9/58/5 25/77/5
f 25/77/5 28/78/5 10/62/5
f 27/79/2 11/37/2 10/40/2
f 10/40/2 28/80/2 27/79/2
f 12/70/3 11/66/3 27/81/3
f 27/81/3 26/82/3 12/70/3
f 12/35/1 26/83/1 25/84/1
f 25/84/1 9/34/1 12/35/1
f 29/85/4 9/86/4 12/87/4
f 9/86/4 29/85/4 10/88/4
f 10/88/4 29/85/4 30/89/4
f 10/88/4 30/89/4 31/90/4
f 12/87/4 32/91/4 29/85/4
f 32/91/4 12/87/4 11/92/4
f 32/91/4 11/92/4 31/90/4
f 31/90/4 11/92/4 10/88/4
f 32/91/4 30/89/4 29/85/4
f 30/89/4 32/91/4 31/90/4
