# Blender v2.92.0 OBJ File: 'OGConvert.blend'
# www.blender.org
o bedDouble
v -7.424000 1.800000 0.200000
v -7.424000 1.000000 0.200000
v -7.424000 1.000000 8.200000
v -7.424000 1.800000 8.200000
v -0.224000 1.000000 0.200000
v -0.224000 1.800000 0.200000
v -0.224000 1.800000 8.200000
v -0.224000 1.000000 8.200000
v -0.024000 1.000000 8.200000
v -0.024000 1.000000 0.000000
v -7.623999 1.000000 0.000000
v -7.623999 1.000000 8.200000
v -7.623999 3.000000 8.200000
v -0.024000 3.000000 8.200000
v -7.623999 0.400000 0.000000
v -7.623999 0.400000 9.000000
v -7.623999 3.000000 9.000000
v -0.024000 0.400000 0.000000
v -0.184000 0.400000 0.000000
v -1.024000 0.400000 0.000000
v -6.624000 0.400000 0.000000
v -7.464000 0.400000 0.000000
v -0.024000 0.400000 9.000000
v -0.184000 0.400000 0.600000
v -0.184000 0.400000 9.000000
v -0.184000 0.400000 8.200000
v -1.024000 0.400000 0.600000
v -1.024000 0.400000 8.200000
v -1.024000 0.400000 9.000000
v -6.624000 0.400000 0.600000
v -6.624000 0.400000 9.000000
v -6.624000 0.400000 8.200000
v -7.464000 0.400000 0.600000
v -7.464000 0.400000 8.200000
v -7.464000 0.400000 9.000000
v -0.024000 3.000000 9.000000
v -1.024000 0.000000 0.000000
v -0.184000 0.000000 0.000000
v -0.184000 -0.000000 0.600000
v -1.024000 -0.000000 0.600000
v -6.624000 0.000000 0.000000
v -6.624000 -0.000000 0.600000
v -1.024000 -0.000000 8.200000
v -1.024000 -0.000000 9.000000
v -0.184000 -0.000000 8.200000
v -0.184000 -0.000000 9.000000
v -7.464000 0.000000 0.000000
v -7.464000 -0.000000 0.600000
v -6.624000 -0.000000 8.200000
v -6.624000 -0.000000 9.000000
v -7.464000 -0.000000 8.200000
v -7.464000 -0.000000 9.000000
v -0.224000 1.800000 6.572617
v -7.424001 1.800000 6.572616
v -0.223999 2.000000 0.199999
v -0.079999 1.800000 0.079638
v -7.568000 1.800000 0.079637
v -7.424000 2.000000 0.199998
v -7.424001 1.200000 5.594783
v -7.568002 1.200000 5.594783
v -7.568000 1.200000 0.079637
v -7.424000 1.200000 0.199998
v -0.223999 1.200000 0.199999
v -0.079999 1.200000 0.079638
v -0.080000 1.200000 5.594784
v -0.224000 1.200000 5.594784
v -0.224000 1.200000 6.572617
v -7.424001 1.200000 6.572616
v -0.080000 1.800000 5.594784
v -0.224000 2.000000 5.594784
v -7.424001 2.000000 5.594783
v -7.568002 1.800000 5.594783
v -0.184000 2.080000 6.572617
v -7.464001 2.080000 6.572616
v -7.648001 1.200000 6.572616
v -7.648001 1.840000 6.572616
v -0.000000 1.200000 6.572617
v -0.000000 1.840000 6.572617
v -7.648001 1.200000 5.594783
v -0.184000 2.080000 5.594784
v -7.464001 2.080000 5.594783
v -7.648001 1.840000 5.594783
v 0.000000 1.200000 5.594784
v 0.000000 1.840000 5.594784
v -3.270400 2.117476 6.798923
v -3.270400 2.265871 7.973587
v -1.257600 2.265871 7.973587
v -1.257600 2.117476 6.798923
v -1.257600 1.948394 8.013696
v -3.270400 1.948394 8.013696
v -3.270400 1.800000 6.839030
v -1.257600 1.800000 6.839030
v -1.257600 2.133202 8.200000
v -3.270400 2.133202 8.200000
v -0.904000 1.958738 6.818977
v -0.904000 2.107133 7.993641
v -3.270400 1.932669 6.612617
v -1.257600 1.932669 6.612617
v -3.624000 2.107133 7.993641
v -3.624000 1.958738 6.818977
v -6.390400 2.117476 6.798923
v -6.390400 2.265871 7.973587
v -4.377600 2.265871 7.973587
v -4.377600 2.117476 6.798923
v -4.377600 1.948394 8.013696
v -6.390400 1.948394 8.013696
v -6.390400 1.800000 6.839030
v -4.377600 1.800000 6.839030
v -4.377600 2.133202 8.200000
v -6.390400 2.133202 8.200000
v -4.024000 1.958738 6.818977
v -4.024000 2.107133 7.993641
v -6.390400 1.932669 6.612617
v -4.377600 1.932669 6.612617
v -6.744001 2.107133 7.993641
v -6.744001 1.958738 6.818977
vt 0.564493 0.645289
vt 0.595174 0.645289
vt 0.595174 0.952093
vt 0.564493 0.952093
vt 0.604792 0.645289
vt 0.635472 0.645289
vt 0.635472 0.952093
vt 0.604792 0.952093
vt 0.004809 0.635565
vt 0.004809 0.328831
vt 0.280932 0.328831
vt 0.280932 0.635565
vt 0.756364 0.921412
vt 0.725684 0.921412
vt 0.725684 0.645289
vt 0.756364 0.645289
vt 0.240307 0.929898
vt 0.229574 0.931432
vt 0.229574 0.652240
vt 0.240307 0.653774
vt 0.263306 0.653774
vt 0.263306 0.645184
vt 0.238773 0.645184
vt 0.263306 0.929898
vt 0.263306 0.938488
vt 0.238773 0.938488
vt 0.343388 0.362615
vt 0.305891 0.359547
vt 0.343388 0.359547
vt 0.343388 0.368138
vt 0.305891 0.368138
vt 0.176589 0.645184
vt 0.176589 0.924375
vt 0.139097 0.924375
vt 0.139097 0.645184
vt 0.605853 0.290551
vt 0.615057 0.290551
vt 0.615057 0.328051
vt 0.605853 0.328051
vt 0.639601 0.290551
vt 0.639601 0.328051
vt 0.562486 0.328051
vt 0.562486 0.290551
vt 0.587031 0.290551
vt 0.587031 0.328051
vt 0.596235 0.290551
vt 0.596235 0.328051
vt 0.195411 0.645184
vt 0.219956 0.645184
vt 0.219956 0.648252
vt 0.196945 0.648252
vt 0.186207 0.652240
vt 0.189275 0.653774
vt 0.186207 0.931432
vt 0.189275 0.929898
vt 0.196945 0.935420
vt 0.195411 0.938488
vt 0.219956 0.935420
vt 0.219956 0.938488
vt 0.554875 0.696899
vt 0.546284 0.696899
vt 0.546284 0.659402
vt 0.554875 0.659402
vt 0.290551 0.337421
vt 0.290551 0.331899
vt 0.290551 0.328831
vt 0.851555 0.727880
vt 0.896473 0.727880
vt 0.896473 0.805072
vt 0.851555 0.805072
vt 0.834693 0.727880
vt 0.834693 0.805072
vt 0.789568 0.805072
vt 0.789568 0.727880
vt 0.841937 0.727880
vt 0.841937 0.805072
vt 0.905262 0.727880
vt 0.905262 0.805072
vt 0.788885 0.714320
vt 0.834009 0.714320
vt 0.919963 0.727880
vt 0.927055 0.727880
vt 0.927055 0.805072
vt 0.919963 0.805072
vt 0.897371 0.714320
vt 0.852453 0.714320
vt 0.834009 0.818633
vt 0.788885 0.818633
vt 0.897371 0.818633
vt 0.852453 0.818633
vt 0.780957 0.805072
vt 0.780957 0.727880
vt 0.534561 0.750154
vt 0.528452 0.763715
vt 0.522343 0.750154
vt 0.534561 0.672963
vt 0.522343 0.672963
vt 0.528452 0.659402
vt 0.824738 0.881635
vt 0.824738 0.836228
vt 0.830874 0.828251
vt 0.830874 0.889612
vt 0.837010 0.836228
vt 0.837010 0.881635
vt 0.920968 0.818633
vt 0.914880 0.805072
vt 0.914880 0.727880
vt 0.920968 0.714320
vt 0.808984 0.889612
vt 0.802848 0.881635
vt 0.802848 0.836228
vt 0.808984 0.828251
vt 0.815120 0.881635
vt 0.815120 0.836228
vt 0.451745 0.786894
vt 0.496663 0.786894
vt 0.496663 0.864086
vt 0.451745 0.864086
vt 0.505480 0.672963
vt 0.505480 0.750154
vt 0.460356 0.750154
vt 0.460356 0.672963
vt 0.512725 0.672963
vt 0.512725 0.750154
vt 0.505452 0.786894
vt 0.505452 0.864086
vt 0.459673 0.659402
vt 0.504797 0.659402
vt 0.541989 0.786894
vt 0.549081 0.786894
vt 0.549081 0.864086
vt 0.541989 0.864086
vt 0.497561 0.773333
vt 0.452643 0.773333
vt 0.504797 0.763715
vt 0.459673 0.763715
vt 0.497561 0.877647
vt 0.452643 0.877647
vt 0.451745 0.750154
vt 0.451745 0.672963
vt 0.527288 0.864086
vt 0.521179 0.877647
vt 0.515071 0.864086
vt 0.527288 0.786894
vt 0.515071 0.786894
vt 0.521179 0.773333
vt 0.780957 0.881635
vt 0.780957 0.836228
vt 0.787094 0.828251
vt 0.787094 0.889612
vt 0.793230 0.836228
vt 0.793230 0.881635
vt 0.542994 0.877647
vt 0.536907 0.864086
vt 0.536907 0.786894
vt 0.542994 0.773333
vt 0.857691 0.889612
vt 0.851555 0.881635
vt 0.851555 0.836228
vt 0.857691 0.828251
vt 0.863827 0.881635
vt 0.863827 0.836228
vt 0.012479 0.012478
vt 0.004809 0.319212
vt 0.004809 0.004809
vt 0.296273 0.004809
vt 0.288603 0.012478
vt 0.288603 0.319212
vt 0.296273 0.319212
vt 0.012479 0.319212
vt 0.050830 0.928977
vt 0.081510 0.928977
vt 0.081510 0.936647
vt 0.004809 0.936647
vt 0.004809 0.645184
vt 0.050830 0.652854
vt 0.081510 0.652854
vt 0.081510 0.645184
vt 0.857658 0.359547
vt 0.880669 0.359547
vt 0.880669 0.704701
vt 0.857658 0.674021
vt 0.780957 0.674021
vt 0.780957 0.704701
vt 0.129479 0.936647
vt 0.106469 0.936647
vt 0.106469 0.930511
vt 0.106469 0.898297
vt 0.106469 0.683534
vt 0.106469 0.651320
vt 0.106469 0.645184
vt 0.129479 0.645184
vt 0.989055 0.004809
vt 0.995191 0.004809
vt 0.995191 0.349929
vt 0.989055 0.027817
vt 0.989055 0.349929
vt 0.290551 0.347039
vt 0.290551 0.347039
vt 0.290551 0.347039
vt 0.520653 0.027817
vt 0.552868 0.027817
vt 0.552868 0.319252
vt 0.520653 0.319252
vt 0.305891 0.004809
vt 0.520653 0.004809
vt 0.520653 0.349929
vt 0.305891 0.027817
vt 0.305891 0.349929
vt 0.765983 0.645289
vt 0.765983 0.675962
vt 0.765983 0.967360
vt 0.947222 0.027817
vt 0.979436 0.027817
vt 0.979436 0.319252
vt 0.947222 0.319252
vt 0.941086 0.004809
vt 0.947222 0.004809
vt 0.947222 0.349929
vt 0.941086 0.349929
vt 0.913297 0.674021
vt 0.989998 0.674021
vt 0.989998 0.704701
vt 0.890287 0.704701
vt 0.890287 0.359547
vt 0.913297 0.359547
vt 0.675764 0.936752
vt 0.645091 0.936752
vt 0.645091 0.645289
vt 0.675764 0.645289
vt 0.916135 0.290137
vt 0.916135 0.296273
vt 0.816473 0.296273
vt 0.916135 0.257922
vt 0.916135 0.043160
vt 0.916135 0.010945
vt 0.916135 0.004809
vt 0.816473 0.004809
vt 0.785445 0.290551
vt 0.785445 0.322765
vt 0.762437 0.322765
vt 0.762437 0.290551
vt 0.476704 0.887265
vt 0.492044 0.887265
vt 0.492044 0.910275
vt 0.476704 0.910275
vt 0.515071 0.887265
vt 0.530411 0.887265
vt 0.530411 0.910275
vt 0.515071 0.910275
vt 0.346190 0.880529
vt 0.361530 0.880529
vt 0.361530 0.911209
vt 0.346190 0.911209
vt 0.873445 0.870084
vt 0.888786 0.870084
vt 0.888786 0.900764
vt 0.873445 0.900764
vt 0.091128 0.930511
vt 0.091128 0.898297
vt 0.752819 0.290551
vt 0.752819 0.322765
vt 0.729811 0.322765
vt 0.729811 0.290551
vt 0.931468 0.257922
vt 0.931468 0.290137
vt 0.891341 0.305891
vt 0.906681 0.305891
vt 0.906681 0.336571
vt 0.891341 0.336571
vt 0.881723 0.305891
vt 0.881723 0.338105
vt 0.866390 0.338105
vt 0.866390 0.305891
vt 0.856772 0.338105
vt 0.841431 0.338105
vt 0.841431 0.305891
vt 0.856772 0.305891
vt 0.451745 0.887265
vt 0.467085 0.887265
vt 0.467085 0.910275
vt 0.451745 0.910275
vt 0.091128 0.683534
vt 0.091128 0.651320
vt 0.679897 0.290551
vt 0.679897 0.322765
vt 0.649220 0.322765
vt 0.649220 0.290551
vt 0.931468 0.010945
vt 0.931468 0.043160
vt 0.898396 0.828251
vt 0.913736 0.828251
vt 0.913736 0.851261
vt 0.898396 0.851261
vt 0.831813 0.338105
vt 0.816473 0.338105
vt 0.816473 0.305891
vt 0.831813 0.305891
vt 0.720192 0.290551
vt 0.720192 0.322765
vt 0.689515 0.322765
vt 0.689515 0.290551
vt 0.305891 0.880529
vt 0.321231 0.880529
vt 0.321231 0.911209
vt 0.305891 0.911209
vt 0.888778 0.828251
vt 0.888778 0.860466
vt 0.873445 0.860466
vt 0.873445 0.828251
vt 0.806855 0.004809
vt 0.806855 0.280932
vt 0.562486 0.280933
vt 0.562486 0.004809
vt 0.716066 0.926935
vt 0.708393 0.932457
vt 0.708393 0.645289
vt 0.716066 0.650811
vt 0.554875 0.362615
vt 0.550259 0.368138
vt 0.550259 0.644261
vt 0.554875 0.649784
vt 0.343387 0.649784
vt 0.343387 0.644261
vt 0.419117 0.696902
vt 0.419117 0.659402
vt 0.442127 0.659402
vt 0.442127 0.903795
vt 0.419117 0.903795
vt 0.295923 0.921307
vt 0.272924 0.921307
vt 0.272924 0.645184
vt 0.295923 0.645184
vt 0.685382 0.932457
vt 0.685382 0.645289
vt 0.386488 0.866294
vt 0.386488 0.659402
vt 0.409498 0.659402
vt 0.386488 0.903795
vt 0.409498 0.903795
vt 0.376870 0.659402
vt 0.376870 0.870910
vt 0.353860 0.870910
vt 0.353860 0.659402
vt 0.346190 0.866294
vt 0.346190 0.659402
vt 0.771339 0.635671
vt 0.564493 0.635671
vt 0.564493 0.359547
vt 0.771339 0.359547
vt 0.305891 0.664018
vt 0.313561 0.659402
vt 0.313561 0.870910
vt 0.305891 0.870910
vt 0.336571 0.659402
vt 0.336571 0.870910
vn -1.0000 0.0000 0.0000
vn 1.0000 -0.0000 0.0000
vn 0.0000 1.0000 0.0000
vn 0.0000 0.0000 -1.0000
vn 0.0000 0.0000 1.0000
vn 0.0000 -1.0000 -0.0000
vn -0.7936 0.6084 0.0000
vn 0.7936 0.6084 0.0000
vn 0.0000 0.9871 -0.1599
vn 0.0000 0.9921 -0.1253
vn 0.0000 -0.9921 0.1253
vn 0.0000 -0.7100 0.7043
vn 0.0000 0.8628 0.5056
vn 0.6097 -0.7864 0.0994
vn 0.6097 -0.7864 0.0993
vn 0.0000 0.7100 -0.7042
vn -0.6097 0.7864 -0.0994
vn -0.6097 0.7864 -0.0993
vn -0.6097 -0.7864 0.0993
vn -0.6097 -0.7864 0.0994
vn 0.6097 0.7864 -0.0993
vn 0.6097 0.7864 -0.0994
vn 0.0000 -0.8628 -0.5056
vn 0.0000 0.1253 0.9921
vn 0.0000 -0.1253 -0.9921
vn 0.5206 -0.6062 0.6013
vn 0.5206 0.7367 0.4317
vn -0.5206 0.7367 0.4317
vn -0.5206 -0.6062 0.6013
vn -0.5206 0.6062 -0.6013
vn -0.5206 -0.7367 -0.4317
vn 0.5206 0.6062 -0.6013
vn 0.5206 -0.7367 -0.4317
vn 0.3867 -0.1934 -0.9017
vn 0.0031 -1.0000 -0.0000
vn 0.0000 0.5156 -0.8568
vn 0.8115 0.5843 0.0000
vn -0.8115 0.5843 -0.0000
s 1
f 1/1/1 2/2/1 3/3/1
f 3/3/1 4/4/1 1/1/1
f 5/5/2 6/6/2 7/7/2
f 7/7/2 8/8/2 5/5/2
f 7/9/3 6/10/3 1/11/3
f 1/11/3 4/12/3 7/9/3
f 6/13/4 5/14/4 2/15/4
f 2/15/4 1/16/4 6/13/4
f 53/17/5 73/18/5 74/19/5
f 74/19/5 54/20/5 53/17/5
f 74/19/5 68/21/5 54/20/5
f 74/19/5 75/22/5 68/21/5
f 74/19/5 76/23/5 75/22/5
f 73/18/5 53/17/5 67/24/5
f 73/18/5 67/24/5 77/25/5
f 77/25/5 78/26/5 73/18/5
f 60/27/6 75/28/6 79/29/6
f 75/28/6 60/27/6 59/30/6
f 59/30/6 68/31/6 75/28/6
f 74/32/3 73/33/3 80/34/3
f 80/34/3 81/35/3 74/32/3
f 81/36/7 82/37/7 76/38/7
f 76/38/7 74/39/7 81/36/7
f 82/37/1 79/40/1 75/41/1
f 75/41/1 76/38/1 82/37/1
f 77/42/2 83/43/2 84/44/2
f 84/44/2 78/45/2 77/42/2
f 78/45/8 84/44/8 80/46/8
f 80/46/8 73/47/8 78/45/8
f 84/48/4 83/49/4 65/50/4
f 65/50/4 69/51/4 84/48/4
f 69/51/4 80/52/4 84/48/4
f 69/51/4 70/53/4 80/52/4
f 70/53/4 81/54/4 80/52/4
f 70/53/4 71/55/4 81/54/4
f 71/55/4 72/56/4 81/54/4
f 72/56/4 82/57/4 81/54/4
f 72/56/4 60/58/4 82/57/4
f 60/58/4 79/59/4 82/57/4
f 77/60/6 67/61/6 66/62/6
f 66/62/6 83/63/6 77/60/6
f 66/64/6 65/65/9 83/66/6
f 85/67/10 86/68/10 87/69/10
f 87/69/10 88/70/10 85/67/10
f 89/71/11 90/72/11 91/73/11
f 91/73/11 92/74/11 89/71/11
f 93/75/12 94/76/12 90/72/12
f 90/72/12 89/71/12 93/75/12
f 86/68/13 94/77/13 93/78/13
f 93/78/13 87/69/13 86/68/13
f 95/79/14 96/80/15 89/71/15
f 89/71/15 92/74/15 95/79/14
f 97/81/16 85/82/16 88/83/16
f 88/83/16 98/84/16 97/81/16
f 99/85/17 86/68/18 85/67/18
f 85/67/18 100/86/18 99/85/17
f 91/73/19 90/72/19 99/87/19
f 99/87/19 100/88/20 91/73/19
f 87/69/21 96/89/22 95/90/21
f 95/90/21 88/70/21 87/69/21
f 92/74/23 91/73/23 97/91/23
f 97/91/23 98/92/23 92/74/23
f 89/93/24 96/94/24 87/95/24
f 87/95/24 90/96/24 89/93/24
f 87/95/24 86/97/24 90/96/24
f 86/97/24 99/98/24 90/96/24
f 91/99/1 90/100/1 94/101/1
f 94/101/1 97/102/1 91/99/1
f 94/101/1 86/103/1 97/102/1
f 86/103/1 85/104/1 97/102/1
f 88/83/25 95/105/25 92/106/25
f 92/106/25 91/107/25 88/83/25
f 91/107/25 85/82/25 88/83/25
f 91/107/25 100/108/25 85/82/25
f 93/109/2 89/110/2 92/111/2
f 92/111/2 98/112/2 93/109/2
f 98/112/2 87/113/2 93/109/2
f 98/112/2 88/114/2 87/113/2
f 96/80/26 93/75/26 89/71/26
f 93/78/27 96/89/27 87/69/27
f 94/77/28 86/68/28 99/85/28
f 90/72/29 94/76/29 99/87/29
f 100/108/30 85/82/30 97/81/30
f 91/73/31 100/88/31 97/91/31
f 93/75/11 94/76/11 99/87/11
f 99/87/11 96/80/11 93/75/11
f 99/87/11 95/79/11 96/80/11
f 99/87/11 100/88/11 95/79/11
f 100/88/11 97/91/11 95/79/11
f 97/91/11 98/92/11 95/79/11
f 88/83/32 95/105/32 98/84/32
f 95/79/33 92/74/33 98/92/33
f 101/115/10 102/116/10 103/117/10
f 103/117/10 104/118/10 101/115/10
f 105/119/11 106/120/11 107/121/11
f 107/121/11 108/122/11 105/119/11
f 109/123/12 110/124/12 106/120/12
f 106/120/12 105/119/12 109/123/12
f 102/116/13 110/125/13 109/126/13
f 109/126/13 103/117/13 102/116/13
f 111/127/14 112/128/15 105/119/15
f 105/119/15 108/122/15 111/127/14
f 113/129/16 101/130/16 104/131/16
f 104/131/16 114/132/16 113/129/16
f 115/133/17 102/116/18 101/115/18
f 101/115/18 116/134/18 115/133/17
f 107/121/19 106/120/19 115/135/19
f 115/135/19 116/136/20 107/121/19
f 103/117/21 112/137/22 111/138/21
f 111/138/21 104/118/21 103/117/21
f 108/122/23 107/121/23 113/139/23
f 113/139/23 114/140/23 108/122/23
f 105/141/24 112/142/24 103/143/24
f 103/143/24 106/144/24 105/141/24
f 103/143/24 102/145/24 106/144/24
f 102/145/24 115/146/24 106/144/24
f 107/147/1 106/148/1 110/149/1
f 110/149/1 113/150/1 107/147/1
f 110/149/1 102/151/1 113/150/1
f 102/151/1 101/152/1 113/150/1
f 104/131/25 111/153/25 108/154/25
f 108/154/25 107/155/25 104/131/25
f 107/155/25 101/130/25 104/131/25
f 107/155/25 116/156/25 101/130/25
f 109/157/2 105/158/2 108/159/2
f 108/159/2 114/160/2 109/157/2
f 114/160/2 103/161/2 109/157/2
f 114/160/2 104/162/2 103/161/2
f 112/128/26 109/123/26 105/119/26
f 109/126/27 112/137/27 103/117/27
f 110/125/28 102/116/28 115/133/28
f 106/120/29 110/124/29 115/135/29
f 116/156/30 101/130/30 113/129/30
f 107/121/31 116/136/31 113/139/31
f 109/123/11 110/124/11 115/135/11
f 115/135/11 112/128/11 109/123/11
f 115/135/11 111/127/11 112/128/11
f 115/135/11 116/136/11 111/127/11
f 116/136/11 113/139/11 111/127/11
f 113/139/11 114/140/11 111/127/11
f 104/131/32 111/153/32 114/132/32
f 111/127/33 108/122/33 114/140/33
f 5/163/3 9/164/3 10/165/3
f 10/165/3 11/166/3 5/163/3
f 11/166/3 2/167/3 5/163/3
f 11/166/3 3/168/3 2/167/3
f 11/166/3 12/169/3 3/168/3
f 9/164/3 5/163/3 8/170/3
f 4/171/4 3/172/4 12/173/4
f 12/173/4 13/174/4 4/171/4
f 13/174/4 14/175/4 4/171/4
f 7/176/4 4/171/4 14/175/4
f 8/177/4 7/176/4 14/175/4
f 14/175/4 9/178/4 8/177/4
f 11/179/1 15/180/1 16/181/1
f 16/181/1 12/182/1 11/179/1
f 16/181/1 13/183/1 12/182/1
f 16/181/1 17/184/1 13/183/1
f 10/185/4 18/186/4 19/187/4
f 19/187/4 20/188/4 10/185/4
f 20/188/4 21/189/4 10/185/4
f 21/189/4 22/190/4 10/185/4
f 22/190/4 15/191/4 10/185/4
f 15/191/4 11/192/4 10/185/4
f 19/193/6 18/194/6 23/195/6
f 23/195/6 24/196/6 19/193/6
f 23/195/6 25/197/6 24/196/6
f 25/198/6 26/199/34 24/200/6
f 27/201/6 24/202/6 26/203/34
f 26/203/34 28/204/6 27/201/6
f 27/201/6 28/204/6 21/205/6
f 21/205/6 20/206/6 27/201/6
f 28/204/6 29/207/6 21/205/6
f 29/207/6 30/208/6 21/205/6
f 29/207/6 31/209/6 30/208/6
f 31/210/6 32/211/35 30/212/6
f 33/213/6 30/214/6 32/215/35
f 32/215/35 34/216/6 33/213/6
f 33/213/6 34/216/6 15/217/6
f 15/217/6 22/218/6 33/213/6
f 34/216/6 35/219/6 15/217/6
f 35/219/6 16/220/6 15/217/6
f 9/221/2 14/222/2 36/223/2
f 9/221/2 36/223/2 23/224/2
f 9/221/2 23/224/2 18/225/2
f 18/225/2 10/226/2 9/221/2
f 36/227/3 14/228/3 13/229/3
f 13/229/3 17/230/3 36/227/3
f 25/231/5 23/232/5 36/233/5
f 36/233/5 29/234/5 25/231/5
f 36/233/5 31/235/5 29/234/5
f 36/233/5 35/236/5 31/235/5
f 36/233/5 16/237/5 35/236/5
f 36/233/5 17/238/5 16/237/5
f 37/239/6 38/240/6 39/241/6
f 39/241/6 40/242/6 37/239/6
f 20/243/1 37/244/1 40/245/1
f 40/245/1 27/246/1 20/243/1
f 41/247/2 21/248/2 30/249/2
f 30/249/2 42/250/2 41/247/2
f 28/251/1 43/252/1 44/253/1
f 44/253/1 29/254/1 28/251/1
f 45/255/2 26/256/2 25/257/2
f 25/257/2 46/258/2 45/255/2
f 19/187/4 38/259/4 37/260/4
f 37/260/4 20/188/4 19/187/4
f 47/261/6 41/262/6 42/263/6
f 42/263/6 48/264/6 47/261/6
f 44/265/5 46/266/5 25/231/5
f 25/231/5 29/234/5 44/265/5
f 49/267/2 32/268/2 31/269/2
f 31/269/2 50/270/2 49/267/2
f 48/271/5 42/272/5 30/273/5
f 30/273/5 33/274/5 48/271/5
f 32/275/4 49/276/4 51/277/4
f 51/277/4 34/278/4 32/275/4
f 22/279/1 47/280/1 48/281/1
f 48/281/1 33/282/1 22/279/1
f 21/189/4 41/283/4 47/284/4
f 47/284/4 22/190/4 21/189/4
f 43/285/6 45/286/6 46/287/6
f 46/287/6 44/288/6 43/285/6
f 52/289/5 50/290/5 31/235/5
f 31/235/5 35/236/5 52/289/5
f 38/291/2 19/292/2 24/293/2
f 24/293/2 39/294/2 38/291/2
f 26/295/4 45/296/4 43/297/4
f 43/297/4 28/298/4 26/295/4
f 51/299/6 49/300/6 50/301/6
f 50/301/6 52/302/6 51/299/6
f 34/303/1 51/304/1 52/305/1
f 52/305/1 35/306/1 34/303/1
f 40/307/5 39/308/5 24/309/5
f 24/309/5 27/310/5 40/307/5
f 53/311/6 54/312/6 1/313/6
f 1/313/6 6/314/6 53/311/6
f 55/315/36 56/316/36 57/317/36
f 57/317/36 58/318/36 55/315/36
f 59/30/6 60/27/6 61/319/6
f 61/319/6 62/320/6 59/30/6
f 61/319/6 63/321/6 62/320/6
f 63/321/6 61/319/6 64/322/6
f 63/321/6 64/322/6 65/323/9
f 65/323/9 66/324/6 63/321/6
f 66/325/1 67/326/1 53/327/1
f 66/325/1 53/327/1 6/328/1
f 6/328/1 63/329/1 66/325/1
f 63/330/5 6/331/5 1/332/5
f 1/332/5 62/333/5 63/330/5
f 56/316/4 64/334/4 61/335/4
f 61/335/4 57/317/4 56/316/4
f 59/336/2 62/337/2 1/338/2
f 1/338/2 68/339/2 59/336/2
f 1/338/2 54/340/2 68/339/2
f 65/341/2 64/342/2 56/343/2
f 56/343/2 69/344/2 65/341/2
f 69/344/37 56/343/37 55/345/37
f 55/345/37 70/346/37 69/344/37
f 58/347/3 71/348/3 70/349/3
f 70/349/3 55/350/3 58/347/3
f 58/351/38 57/352/38 72/353/38
f 72/353/38 71/354/38 58/351/38
f 57/352/1 61/355/1 60/356/1
f 60/356/1 72/353/1 57/352/1
