# Blender v2.92.0 OBJ File: 'kenney_OGConvert.blend'
# www.blender.org
o benchCushionLow
v -0.370000 0.050000 0.110000
v -0.030000 0.050000 0.110000
v -0.030000 0.070000 0.110000
v -0.370000 0.070000 0.110000
v -0.010000 0.050000 0.040000
v -0.010000 0.050000 0.160000
v -0.030000 0.050000 0.160000
v -0.030000 0.050000 0.040000
v -0.030000 0.050000 0.090000
v -0.370000 0.050000 0.090000
v -0.390000 0.050000 0.160000
v -0.370000 0.050000 0.160000
v -0.390000 0.050000 0.040000
v -0.370000 0.050000 0.040000
v -0.360000 0.000000 0.000000
v -0.360000 -0.000000 0.040000
v -0.400000 -0.000000 0.040000
v -0.400000 0.000000 0.000000
v -0.360000 0.140000 0.000000
v -0.360000 0.140000 0.040000
v -0.370000 0.070000 0.090000
v -0.030000 0.070000 0.090000
v -0.360000 0.140000 0.160000
v -0.400000 0.140000 0.160000
v -0.400000 0.140000 0.040000
v -0.360000 0.140000 0.200000
v -0.040000 0.140000 0.000000
v -0.040000 0.140000 0.040000
v -0.040000 0.140000 0.160000
v -0.040000 0.140000 0.200000
v 0.000000 0.140000 0.040000
v 0.000000 0.140000 0.160000
v -0.400000 0.170000 0.000000
v 0.000000 0.170000 0.000000
v 0.000000 0.000000 0.000000
v -0.040000 0.000000 0.000000
v 0.000000 -0.000000 0.160000
v 0.000000 -0.000000 0.200000
v -0.040000 -0.000000 0.200000
v -0.040000 -0.000000 0.160000
v 0.000000 -0.000000 0.040000
v -0.040000 -0.000000 0.040000
v -0.360000 -0.000000 0.160000
v -0.360000 -0.000000 0.200000
v -0.400000 -0.000000 0.200000
v -0.400000 -0.000000 0.160000
v -0.010000 0.070000 0.160000
v -0.010000 0.070000 0.040000
v -0.030000 0.070000 0.040000
v -0.030000 0.070000 0.160000
v -0.390000 0.070000 0.040000
v -0.370000 0.070000 0.040000
v -0.390000 0.070000 0.160000
v -0.370000 0.070000 0.160000
v 0.000000 0.170000 0.200000
v -0.400000 0.170000 0.200000
v 0.010000 0.200000 0.210000
v 0.010000 0.200000 -0.010000
v -0.410000 0.200000 -0.010000
v -0.410000 0.200000 0.210000
v 0.010000 0.170000 -0.010000
v -0.410000 0.170000 -0.010000
v 0.010000 0.170000 0.210000
v -0.410000 0.170000 0.210000
vt 0.336141 0.918585
vt 0.336141 0.579730
vt 0.356074 0.579730
vt 0.356074 0.918585
vt 0.967388 0.003884
vt 0.967388 0.123479
vt 0.947456 0.123479
vt 0.947456 0.003884
vt 0.372637 0.579730
vt 0.372637 0.579730
vt 0.372637 0.579730
vt 0.372637 0.579730
vt 0.864356 0.430236
vt 0.884288 0.430236
vt 0.884288 0.769090
vt 0.864356 0.769090
vt 0.934120 0.789023
vt 0.934120 0.769090
vt 0.814524 0.789023
vt 0.814524 0.769090
vt 0.203210 0.043749
vt 0.163345 0.043749
vt 0.163345 0.003884
vt 0.203210 0.003884
vt 0.420270 0.818922
vt 0.420270 0.958450
vt 0.380404 0.958450
vt 0.380404 0.818922
vt 0.308441 0.918585
vt 0.308441 0.579730
vt 0.328374 0.579730
vt 0.328374 0.918585
vt 0.967388 0.796790
vt 0.967388 0.916386
vt 0.927523 0.916386
vt 0.927523 0.796790
vt 0.363841 0.579730
vt 0.363841 0.579730
vt 0.363841 0.579730
vt 0.363841 0.579730
vt 0.806756 0.789023
vt 0.607430 0.789023
vt 0.607430 0.470101
vt 0.647296 0.470101
vt 0.766891 0.470101
vt 0.806756 0.470101
vt 0.647296 0.430236
vt 0.766891 0.430236
vt 0.372637 0.003884
vt 0.342738 0.043749
vt 0.342738 0.362671
vt 0.372637 0.402536
vt 0.203210 0.402536
vt 0.203210 0.362671
vt 0.043749 0.402536
vt 0.003884 0.402536
vt 0.003884 0.362671
vt 0.043749 0.362671
vt 0.163345 0.402536
vt 0.163345 0.362671
vt 0.949654 0.418071
vt 0.909789 0.418071
vt 0.909789 0.378205
vt 0.949654 0.378205
vt 0.957422 0.350505
vt 0.957422 0.230910
vt 0.977354 0.230910
vt 0.977354 0.350505
vt 0.372637 0.587498
vt 0.372637 0.587498
vt 0.372637 0.587498
vt 0.372637 0.587498
vt 0.230910 0.579730
vt 0.250842 0.579730
vt 0.250842 0.918585
vt 0.230910 0.918585
vt 0.300674 0.938517
vt 0.300674 0.918585
vt 0.181078 0.938517
vt 0.181078 0.918585
vt 0.003884 0.619596
vt 0.003884 0.579730
vt 0.173311 0.579730
vt 0.143412 0.619596
vt 0.143412 0.938517
vt 0.173311 0.978383
vt 0.003884 0.978383
vt 0.003884 0.938517
vt 0.163345 0.542064
vt 0.203210 0.571963
vt 0.003884 0.571963
vt 0.043749 0.542064
vt 0.637329 0.956251
vt 0.776858 0.956251
vt 0.776858 0.996116
vt 0.607430 0.996116
vt 0.637329 0.836655
vt 0.607430 0.796790
vt 0.776858 0.836655
vt 0.776858 0.796790
vt 0.919756 0.796790
vt 0.919756 0.936318
vt 0.879890 0.936318
vt 0.879890 0.796790
vt 0.467902 0.818922
vt 0.467902 0.958450
vt 0.428037 0.958450
vt 0.428037 0.818922
vt 0.949654 0.230910
vt 0.949654 0.370438
vt 0.909789 0.370438
vt 0.909789 0.230910
vt 0.579730 0.818922
vt 0.599663 0.818922
vt 0.599663 0.938517
vt 0.579730 0.938517
vt 0.947456 0.131247
vt 0.967388 0.131247
vt 0.967388 0.181078
vt 0.947456 0.181078
vt 0.485636 0.908618
vt 0.515535 0.958450
vt 0.475670 0.958450
vt 0.475670 0.818922
vt 0.485636 0.888686
vt 0.505568 0.888686
vt 0.505568 0.908618
vt 0.515535 0.818922
vt 0.308441 0.926352
vt 0.328374 0.926352
vt 0.328374 0.976184
vt 0.308441 0.976184
vt 0.533268 0.908618
vt 0.563167 0.958450
vt 0.523302 0.958450
vt 0.523302 0.818922
vt 0.533268 0.888686
vt 0.553201 0.888686
vt 0.553201 0.908618
vt 0.563167 0.818922
vt 0.927523 0.924153
vt 0.947456 0.924153
vt 0.947456 0.973985
vt 0.927523 0.973985
vt 0.794591 0.886487
vt 0.824490 0.936318
vt 0.784625 0.936318
vt 0.784625 0.796790
vt 0.794591 0.866554
vt 0.814524 0.866554
vt 0.814524 0.886487
vt 0.824490 0.796790
vt 0.955223 0.973985
vt 0.955223 0.924153
vt 0.975156 0.924153
vt 0.975156 0.973985
vt 0.842224 0.886487
vt 0.872123 0.936318
vt 0.832258 0.936318
vt 0.832258 0.796790
vt 0.842224 0.866554
vt 0.862157 0.866554
vt 0.862157 0.886487
vt 0.872123 0.796790
vt 0.941887 0.657262
vt 0.961820 0.657262
vt 0.961820 0.776858
vt 0.941887 0.776858
vt 0.826689 0.422468
vt 0.607430 0.422468
vt 0.607430 0.003884
vt 0.826689 0.003884
vt 0.864356 0.003884
vt 0.864356 0.422468
vt 0.834457 0.422468
vt 0.834457 0.003884
vt 0.909789 0.003884
vt 0.939688 0.003884
vt 0.939688 0.223142
vt 0.909789 0.223142
vt 0.589697 0.402536
vt 0.380404 0.392570
vt 0.599663 0.392570
vt 0.599663 0.811154
vt 0.589697 0.801188
vt 0.390371 0.801188
vt 0.390371 0.402536
vt 0.380404 0.811154
vt 0.941887 0.430236
vt 0.971786 0.430236
vt 0.971786 0.649495
vt 0.941887 0.649495
vt 0.902022 0.003884
vt 0.902022 0.422468
vt 0.872123 0.422468
vt 0.872123 0.003884
vt 0.390371 0.003884
vt 0.589697 0.003884
vn 0.0000 0.0000 1.0000
vn 0.0000 -1.0000 -0.0000
vn 0.3079 -0.9500 0.0523
vn 0.8944 -0.4472 0.0000
vn 1.0000 -0.0000 0.0000
vn -0.0000 0.0000 -1.0000
vn -0.0003 1.0000 -0.0000
vn -0.6388 -0.3193 -0.7000
vn 0.0000 1.0000 0.0000
vn -0.4000 0.2000 -0.8944
vn -1.0000 0.0000 0.0000
s 1
f 1/1/1 2/2/1 3/3/1
f 3/3/1 4/4/1 1/1/1
f 5/5/2 6/6/2 7/7/2
f 7/7/2 8/8/2 5/5/2
f 7/9/2 2/10/3 8/11/2
f 2/10/3 9/12/4 8/11/2
f 9/13/4 2/14/3 1/15/2
f 1/15/2 10/16/2 9/13/4
f 11/17/2 10/16/2 1/15/2
f 1/15/2 12/18/2 11/17/2
f 10/16/2 11/17/2 13/19/2
f 13/19/2 14/20/2 10/16/2
f 15/21/2 16/22/2 17/23/2
f 17/23/2 18/24/2 15/21/2
f 15/25/5 19/26/5 20/27/5
f 20/27/5 16/28/5 15/25/5
f 9/29/6 10/30/6 21/31/6
f 21/31/6 22/32/6 9/29/6
f 20/33/7 23/34/8 24/35/2
f 24/35/2 25/36/2 20/33/7
f 23/37/8 20/38/7 19/39/2
f 26/40/2 23/37/8 19/39/2
f 26/41/2 19/42/2 27/43/2
f 26/41/2 27/43/2 28/44/2
f 26/41/2 28/44/2 29/45/2
f 29/45/2 30/46/2 26/41/2
f 29/45/2 28/44/2 31/47/2
f 31/47/2 32/48/2 29/45/2
f 15/21/6 18/24/6 33/49/6
f 33/49/6 19/50/6 15/21/6
f 33/49/6 27/51/6 19/50/6
f 27/51/6 33/49/6 34/52/6
f 27/51/6 34/52/6 35/53/6
f 35/53/6 36/54/6 27/51/6
f 37/55/2 38/56/2 39/57/2
f 39/57/2 40/58/2 37/55/2
f 35/53/2 41/59/2 42/60/2
f 42/60/2 36/54/2 35/53/2
f 43/61/2 44/62/2 45/63/2
f 45/63/2 46/64/2 43/61/2
f 47/65/9 48/66/9 49/67/9
f 49/67/9 50/68/9 47/65/9
f 49/69/9 22/70/10 50/71/9
f 22/70/10 3/72/2 50/71/9
f 3/73/2 22/74/10 21/75/9
f 21/75/9 4/76/9 3/73/2
f 51/77/9 4/76/9 21/75/9
f 21/75/9 52/78/9 51/77/9
f 4/76/9 51/77/9 53/79/9
f 53/79/9 54/80/9 4/76/9
f 39/81/1 38/82/1 55/83/1
f 55/83/1 30/84/1 39/81/1
f 55/83/1 26/85/1 30/84/1
f 26/85/1 55/83/1 56/86/1
f 26/85/1 56/86/1 45/87/1
f 45/87/1 44/88/1 26/85/1
f 35/53/5 31/89/5 41/59/5
f 31/89/5 35/53/5 34/90/5
f 34/90/5 55/91/5 31/89/5
f 55/91/5 32/92/5 31/89/5
f 55/91/5 37/55/5 32/92/5
f 55/91/5 38/56/5 37/55/5
f 24/93/11 46/94/11 45/95/11
f 24/93/11 45/95/11 56/96/11
f 25/97/11 24/93/11 56/96/11
f 25/97/11 56/96/11 33/98/11
f 17/99/11 25/97/11 33/98/11
f 33/98/11 18/100/11 17/99/11
f 29/101/11 40/102/11 39/103/11
f 39/103/11 30/104/11 29/101/11
f 27/105/11 36/106/11 42/107/11
f 42/107/11 28/108/11 27/105/11
f 43/109/5 23/110/5 26/111/5
f 26/111/5 44/112/5 43/109/5
f 5/113/5 48/114/5 47/115/5
f 47/115/5 6/116/5 5/113/5
f 14/117/5 52/118/5 21/119/5
f 21/119/5 10/120/5 14/117/5
f 14/121/1 17/122/1 16/123/1
f 16/123/1 20/124/1 14/121/1
f 20/124/1 52/125/1 14/121/1
f 20/124/1 51/126/1 52/125/1
f 17/122/1 14/121/1 13/127/1
f 13/127/1 25/128/1 17/122/1
f 13/127/1 51/126/1 25/128/1
f 51/126/1 20/124/1 25/128/1
f 1/129/5 4/130/5 54/131/5
f 54/131/5 12/132/5 1/129/5
f 11/133/6 43/134/6 46/135/6
f 46/135/6 24/136/6 11/133/6
f 24/136/6 53/137/6 11/133/6
f 24/136/6 54/138/6 53/137/6
f 43/134/6 11/133/6 12/139/6
f 12/139/6 23/140/6 43/134/6
f 12/139/6 54/138/6 23/140/6
f 54/138/6 24/136/6 23/140/6
f 49/141/11 8/142/11 9/143/11
f 9/143/11 22/144/11 49/141/11
f 5/145/1 42/146/1 41/147/1
f 41/147/1 31/148/1 5/145/1
f 31/148/1 48/149/1 5/145/1
f 31/148/1 49/150/1 48/149/1
f 42/146/1 5/145/1 8/151/1
f 8/151/1 28/152/1 42/146/1
f 8/151/1 49/150/1 28/152/1
f 49/150/1 31/148/1 28/152/1
f 50/153/11 3/154/11 2/155/11
f 2/155/11 7/156/11 50/153/11
f 7/157/6 37/158/6 40/159/6
f 40/159/6 29/160/6 7/157/6
f 29/160/6 50/161/6 7/157/6
f 29/160/6 47/162/6 50/161/6
f 37/158/6 7/157/6 6/163/6
f 6/163/6 32/164/6 37/158/6
f 6/163/6 47/162/6 32/164/6
f 47/162/6 29/160/6 32/164/6
f 51/165/11 13/166/11 11/167/11
f 11/167/11 53/168/11 51/165/11
f 57/169/9 58/170/9 59/171/9
f 59/171/9 60/172/9 57/169/9
f 61/173/6 62/174/6 59/175/6
f 59/175/6 58/176/6 61/173/6
f 61/177/5 58/178/5 57/179/5
f 57/179/5 63/180/5 61/177/5
f 55/181/2 61/182/2 63/183/2
f 63/183/2 64/184/2 55/181/2
f 64/184/2 56/185/2 55/181/2
f 64/184/2 33/186/2 56/185/2
f 61/182/2 55/181/2 34/187/2
f 34/187/2 62/188/2 61/182/2
f 34/187/2 33/186/2 62/188/2
f 33/186/2 64/184/2 62/188/2
f 59/189/11 62/190/11 64/191/11
f 64/191/11 60/192/11 59/189/11
f 64/193/1 63/194/1 57/195/1
f 57/195/1 60/196/1 64/193/1
f 55/181/9 34/187/9 33/197/9
f 33/197/9 56/198/9 55/181/9
