# Blender v2.92.0 OBJ File: 'kenney_OGConvert.blend'
# www.blender.org
o computerMouse
v 0.012425 0.000000 -0.000000
v 0.024850 0.015335 0.022892
v 0.024850 -0.000000 0.022892
v -0.012425 0.000000 0.000000
v -0.024850 -0.000000 0.022892
v -0.024850 0.015335 0.022892
v 0.024850 -0.000000 0.059552
v 0.024329 -0.000000 0.066068
v 0.022025 -0.000000 0.072210
v 0.018107 -0.000000 0.077527
v 0.012863 -0.000000 0.081630
v 0.006676 -0.000000 0.084219
v 0.000000 -0.000000 0.085104
v -0.006676 -0.000000 0.084219
v -0.012863 -0.000000 0.081630
v -0.018107 -0.000000 0.077527
v -0.022025 -0.000000 0.072210
v -0.024329 -0.000000 0.066068
v -0.024850 -0.000000 0.059552
v 0.024850 0.023572 0.059552
v -0.024850 0.023572 0.059552
v 0.024329 0.023572 0.066068
v 0.022025 0.023572 0.072210
v 0.018107 0.023572 0.077527
v 0.012863 0.023572 0.081630
v 0.006676 0.023572 0.084219
v 0.000000 0.023572 0.085104
v -0.006676 0.023572 0.084219
v -0.012863 0.023572 0.081630
v -0.018107 0.023572 0.077527
v -0.022025 0.023572 0.072210
v -0.024329 0.023572 0.066068
vt 0.677599 0.001631
vt 0.780876 0.128216
vt 0.677599 0.128216
vt 0.998369 0.001631
vt 0.998369 0.128216
vt 0.895093 0.128216
vt 0.001631 0.422255
vt 0.336354 0.422255
vt 0.252673 0.579837
vt 0.085311 0.579837
vt 0.339615 0.420618
vt 0.339615 0.173721
vt 0.343127 0.129835
vt 0.423296 0.574794
vt 0.358644 0.088471
vt 0.385029 0.052659
vt 0.420349 0.025023
vt 0.462015 0.007588
vt 0.590657 0.574794
vt 0.506977 0.001631
vt 0.551938 0.007588
vt 0.593605 0.025023
vt 0.674338 0.420618
vt 0.628924 0.052659
vt 0.655309 0.088471
vt 0.670826 0.129835
vt 0.674338 0.173721
vt 0.336354 0.173622
vt 0.001631 0.173622
vt 0.836354 0.366338
vt 0.677599 0.366338
vt 0.998369 0.366338
vt 0.839615 0.366338
vt 0.332842 0.129762
vt 0.317325 0.088422
vt 0.290940 0.052630
vt 0.255620 0.025010
vt 0.213953 0.007584
vt 0.168992 0.001631
vt 0.124031 0.007584
vt 0.082364 0.025010
vt 0.047044 0.052630
vt 0.020659 0.088422
vt 0.005142 0.129762
vt 0.998369 0.409591
vt 0.839615 0.409591
vt 0.836354 0.409591
vt 0.677599 0.409591
vt 0.836354 0.453585
vt 0.677599 0.453585
vt 0.836354 0.495096
vt 0.677599 0.495096
vt 0.677599 0.531083
vt 0.836354 0.531083
vt 0.498369 0.749461
vt 0.498369 0.788454
vt 0.339615 0.788454
vt 0.339615 0.749461
vt 0.498369 0.705684
vt 0.339615 0.705684
vt 0.498369 0.660330
vt 0.339615 0.660330
vt 0.498369 0.616722
vt 0.339615 0.616722
vt 0.498369 0.578055
vt 0.339615 0.578055
vt 0.839615 0.453585
vt 0.998369 0.453585
vt 0.998369 0.495096
vt 0.839615 0.495096
vn 0.8789 0.0000 -0.4770
vn -0.8789 0.0000 -0.4770
vn -0.0000 0.8308 -0.5565
vn -0.0000 -1.0000 -0.0000
vn -0.0000 0.9757 -0.2192
vn 1.0000 0.0000 -0.0000
vn -1.0000 -0.0000 0.0000
vn 0.0000 1.0000 -0.0000
vn -0.9968 0.0000 0.0798
vn -0.9760 0.0000 0.2176
vn 0.9968 -0.0000 0.0798
vn 0.9760 -0.0000 0.2176
vn 0.8791 -0.0000 0.4767
vn 0.7173 -0.0000 0.6968
vn 0.5056 0.0000 0.8627
vn 0.2610 0.0000 0.9653
vn -0.0000 0.0000 1.0000
vn -0.2610 0.0000 0.9653
vn -0.5056 0.0000 0.8627
vn -0.7173 -0.0000 0.6968
vn -0.8790 -0.0000 0.4767
s 1
f 1/1/1 2/2/1 3/3/1
f 4/4/2 5/5/2 6/6/2
f 6/7/3 2/8/3 1/9/3
f 1/9/3 4/10/3 6/7/3
f 3/11/4 7/12/4 8/13/4
f 8/13/4 1/14/4 3/11/4
f 8/13/4 9/15/4 1/14/4
f 9/15/4 10/16/4 1/14/4
f 10/16/4 11/17/4 1/14/4
f 11/17/4 12/18/4 1/14/4
f 12/18/4 4/19/4 1/14/4
f 12/18/4 13/20/4 4/19/4
f 13/20/4 14/21/4 4/19/4
f 14/21/4 15/22/4 4/19/4
f 15/22/4 5/23/4 4/19/4
f 15/22/4 16/24/4 5/23/4
f 16/24/4 17/25/4 5/23/4
f 17/25/4 18/26/4 5/23/4
f 18/26/4 19/27/4 5/23/4
f 20/28/5 2/8/5 6/7/5
f 6/7/5 21/29/5 20/28/5
f 3/3/6 2/2/6 20/30/6
f 20/30/6 7/31/6 3/3/6
f 6/6/7 5/5/7 19/32/7
f 19/32/7 21/33/7 6/6/7
f 22/34/8 20/28/8 21/29/8
f 21/29/8 23/35/8 22/34/8
f 21/29/8 24/36/8 23/35/8
f 21/29/8 25/37/8 24/36/8
f 21/29/8 26/38/8 25/37/8
f 21/29/8 27/39/8 26/38/8
f 21/29/8 28/40/8 27/39/8
f 21/29/8 29/41/8 28/40/8
f 21/29/8 30/42/8 29/41/8
f 21/29/8 31/43/8 30/42/8
f 21/29/8 32/44/8 31/43/8
f 21/33/9 19/32/9 18/45/10
f 18/45/10 32/46/10 21/33/9
f 7/31/11 20/30/11 22/47/12
f 22/47/12 8/48/12 7/31/11
f 8/48/12 22/47/12 23/49/13
f 23/49/13 9/50/13 8/48/12
f 9/50/13 23/49/13 24/51/14
f 24/51/14 10/52/14 9/50/13
f 11/53/15 10/52/14 24/51/14
f 24/51/14 25/54/15 11/53/15
f 12/55/16 11/56/15 25/57/15
f 25/57/15 26/58/16 12/55/16
f 13/59/17 12/55/16 26/58/16
f 26/58/16 27/60/17 13/59/17
f 14/61/18 13/59/17 27/60/17
f 27/60/17 28/62/18 14/61/18
f 15/63/19 14/61/18 28/62/18
f 28/62/18 29/64/19 15/63/19
f 16/65/20 15/63/19 29/64/19
f 29/64/19 30/66/20 16/65/20
f 31/67/21 17/68/21 16/69/20
f 16/69/20 30/70/20 31/67/21
f 32/46/10 18/45/10 17/68/21
f 17/68/21 31/67/21 32/46/10
