# Blender v2.92.0 OBJ File: 'kenney_OGConvert.blend'
# www.blender.org
o kitchenBar
v 0.000000 -0.000000 0.040000
v 0.000000 -0.000000 0.170000
v -0.430000 -0.000000 0.170000
v -0.430000 -0.000000 0.040000
v -0.430000 0.058242 0.040000
v 0.000000 0.058242 0.040000
v -0.430000 0.058242 0.170000
v -0.430000 0.390000 0.190000
v -0.430000 0.390000 0.020000
v -0.430000 0.058242 0.020000
v -0.430000 0.058242 0.190000
v 0.000000 0.058242 0.020000
v 0.000000 0.390000 0.020000
v 0.000000 0.390000 0.190000
v 0.000000 0.058242 0.170000
v 0.000000 0.058242 0.190000
v -0.403156 0.085086 0.020000
v -0.403156 0.363156 0.020000
v -0.026844 0.363156 0.020000
v -0.026844 0.085086 0.020000
v -0.026844 0.085086 0.190000
v -0.026844 0.363156 0.190000
v -0.403156 0.363156 0.190000
v -0.403156 0.085086 0.190000
v -0.047186 0.105428 0.020000
v -0.382814 0.105428 0.020000
v -0.382814 0.342814 0.020000
v -0.047186 0.342814 0.020000
v -0.382814 0.105428 0.190000
v -0.047186 0.105428 0.190000
v -0.047186 0.342814 0.190000
v -0.382814 0.342814 0.190000
v 0.000000 0.390000 0.000000
v 0.000000 0.420000 0.000000
v 0.000000 0.420000 0.210000
v 0.000000 0.390000 0.210000
v -0.430000 0.420000 0.000000
v -0.430000 0.390000 0.000000
v -0.430000 0.420000 0.210000
v -0.430000 0.390000 0.210000
vt 0.188185 0.471515
vt 0.046520 0.471515
vt 0.046520 0.002931
vt 0.188185 0.002931
vt 0.839732 0.471515
vt 0.839732 0.002931
vt 0.903200 0.002931
vt 0.903200 0.471515
vt 0.648615 0.540845
vt 0.648615 0.477377
vt 0.790280 0.477377
vt 0.790280 0.540845
vt 0.812074 0.902372
vt 0.626821 0.902372
vt 0.626821 0.540845
vt 0.812074 0.540845
vt 0.209980 0.534983
vt 0.209980 0.896509
vt 0.024726 0.896509
vt 0.188185 0.534983
vt 0.046520 0.534982
vt 0.024726 0.534982
vt 0.266890 0.032184
vt 0.237637 0.471515
vt 0.237637 0.002931
vt 0.599163 0.002931
vt 0.569910 0.032184
vt 0.569910 0.442262
vt 0.266890 0.442262
vt 0.599163 0.471515
vt 0.997069 0.471515
vt 0.975274 0.471515
vt 0.975274 0.002931
vt 0.997069 0.002931
vt 0.839732 0.945961
vt 0.839732 0.477377
vt 0.903200 0.477377
vt 0.903200 0.945961
vt 0.969411 0.471515
vt 0.947617 0.471515
vt 0.947617 0.002931
vt 0.969411 0.002931
vt 0.266890 0.506630
vt 0.237637 0.945961
vt 0.237637 0.477377
vt 0.599163 0.477377
vt 0.569910 0.506630
vt 0.569910 0.916708
vt 0.266890 0.916708
vt 0.599163 0.945961
vt 0.289057 0.420095
vt 0.289057 0.054351
vt 0.547743 0.054351
vt 0.547743 0.420095
vt 0.289057 0.894541
vt 0.289057 0.528797
vt 0.547743 0.528797
vt 0.547743 0.894541
vt 0.231774 0.896509
vt 0.231774 0.929201
vt 0.002931 0.929201
vt 0.002931 0.896509
vt 0.605026 0.935063
vt 0.605026 0.902372
vt 0.833869 0.935063
vt 0.833869 0.902372
vt 0.909062 0.471515
vt 0.909062 0.002931
vt 0.941754 0.002931
vt 0.941754 0.471515
vt 0.605026 0.002931
vt 0.833869 0.002931
vt 0.833869 0.471515
vt 0.605026 0.471515
vt 0.997069 0.945961
vt 0.975274 0.945961
vt 0.975274 0.477377
vt 0.997069 0.477377
vt 0.909062 0.945961
vt 0.909062 0.477377
vt 0.941754 0.477377
vt 0.941754 0.945961
vt 0.969411 0.945961
vt 0.947617 0.945961
vt 0.947617 0.477377
vt 0.969411 0.477377
vn -0.0000 -1.0000 -0.0000
vn -0.0000 0.0000 -1.0000
vn -1.0000 0.0000 0.0000
vn 1.0000 -0.0000 -0.0000
vn 0.0000 0.0000 1.0000
vn 0.0000 1.0000 0.0000
s 1
f 1/1/1 2/2/1 3/3/1
f 3/3/1 4/4/1 1/1/1
f 1/5/2 4/6/2 5/7/2
f 5/7/2 6/8/2 1/5/2
f 5/9/3 4/10/3 3/11/3
f 5/9/3 3/11/3 7/12/3
f 5/9/3 7/12/3 8/13/3
f 5/9/3 8/13/3 9/14/3
f 9/14/3 10/15/3 5/9/3
f 7/12/3 11/16/3 8/13/3
f 12/17/4 13/18/4 14/19/4
f 14/19/4 6/20/4 12/17/4
f 14/19/4 1/1/4 6/20/4
f 14/19/4 15/21/4 1/1/4
f 14/19/4 16/22/4 15/21/4
f 1/1/4 15/21/4 2/2/4
f 17/23/2 12/24/2 10/25/2
f 10/25/2 9/26/2 17/23/2
f 9/26/2 18/27/2 17/23/2
f 9/26/2 19/28/2 18/27/2
f 12/24/2 17/23/2 20/29/2
f 20/29/2 13/30/2 12/24/2
f 20/29/2 19/28/2 13/30/2
f 19/28/2 9/26/2 13/30/2
f 12/31/1 6/32/1 5/33/1
f 5/33/1 10/34/1 12/31/1
f 3/35/5 2/36/5 15/37/5
f 15/37/5 7/38/5 3/35/5
f 15/39/1 16/40/1 11/41/1
f 11/41/1 7/42/1 15/39/1
f 21/43/5 11/44/5 16/45/5
f 16/45/5 14/46/5 21/43/5
f 14/46/5 22/47/5 21/43/5
f 14/46/5 23/48/5 22/47/5
f 11/44/5 21/43/5 24/49/5
f 24/49/5 8/50/5 11/44/5
f 24/49/5 23/48/5 8/50/5
f 23/48/5 14/46/5 8/50/5
f 25/51/2 26/52/2 27/53/2
f 27/53/2 28/54/2 25/51/2
f 29/55/5 30/56/5 31/57/5
f 31/57/5 32/58/5 29/55/5
f 33/59/4 34/60/4 35/61/4
f 35/61/4 13/18/4 33/59/4
f 35/61/4 14/19/4 13/18/4
f 35/61/4 36/62/4 14/19/4
f 37/63/3 38/64/3 9/14/3
f 9/14/3 39/65/3 37/63/3
f 9/14/3 8/13/3 39/65/3
f 8/13/3 40/66/3 39/65/3
f 33/67/2 38/68/2 37/69/2
f 37/69/2 34/70/2 33/67/2
f 35/71/6 34/72/6 37/73/6
f 37/73/6 39/74/6 35/71/6
f 33/75/1 13/76/1 9/77/1
f 9/77/1 38/78/1 33/75/1
f 40/79/5 36/80/5 35/81/5
f 35/81/5 39/82/5 40/79/5
f 14/83/1 36/84/1 40/85/1
f 40/85/1 8/86/1 14/83/1
f 26/52/2 20/29/2 17/23/2
f 17/23/2 18/27/2 26/52/2
f 18/27/2 27/53/2 26/52/2
f 18/27/2 28/54/2 27/53/2
f 20/29/2 26/52/2 25/51/2
f 25/51/2 19/28/2 20/29/2
f 25/51/2 28/54/2 19/28/2
f 28/54/2 18/27/2 19/28/2
f 30/56/5 24/49/5 21/43/5
f 21/43/5 22/47/5 30/56/5
f 22/47/5 31/57/5 30/56/5
f 22/47/5 32/58/5 31/57/5
f 24/49/5 30/56/5 29/55/5
f 29/55/5 23/48/5 24/49/5
f 29/55/5 32/58/5 23/48/5
f 32/58/5 22/47/5 23/48/5
