# Blender v2.92.0 OBJ File: 'kenney_OGConvert.blend'
# www.blender.org
o kitchenCabinetDrawer
v 0.000000 0.450000 0.450000
v 0.000000 0.450000 0.420000
v -0.430000 0.450000 0.420000
v -0.430000 0.450000 0.450000
v -0.430000 0.390000 0.450000
v 0.000000 0.390000 0.450000
v 0.000000 0.390000 0.000000
v 0.000000 0.390000 0.020000
v -0.430000 0.390000 0.020000
v -0.430000 0.390000 0.000000
v 0.000000 0.420000 0.420000
v 0.000000 0.420000 0.000000
v -0.430000 0.420000 0.000000
v -0.430000 0.420000 0.420000
v 0.000000 -0.000000 0.040000
v 0.000000 -0.000000 0.450000
v -0.430000 -0.000000 0.450000
v -0.430000 -0.000000 0.040000
v -0.026844 0.277543 0.400000
v -0.026844 0.277543 0.040000
v -0.403156 0.277543 0.040000
v -0.403156 0.277543 0.400000
v -0.026844 0.085086 0.400000
v -0.403156 0.085086 0.020000
v -0.403156 0.085086 0.400000
v -0.026844 0.363156 0.020000
v -0.026844 0.363156 0.400000
v -0.403156 0.363156 0.400000
v -0.403156 0.363156 0.020000
v 0.000000 0.058242 0.020000
v 0.000000 0.058242 0.040000
v -0.430000 0.058242 0.040000
v -0.430000 0.058242 0.020000
v -0.403156 0.277543 0.020000
v -0.403156 0.250699 0.040000
v -0.403156 0.250699 0.400000
v -0.026844 0.250699 0.400000
v -0.026844 0.250699 0.040000
v -0.403156 0.085086 0.040000
v -0.026844 0.085086 0.040000
v -0.026844 0.085086 0.020000
v -0.026844 0.277543 0.020000
v -0.357814 0.217201 0.020000
v -0.047186 0.105428 0.020000
v -0.382814 0.105428 0.020000
v -0.382814 0.257201 0.020000
v -0.357814 0.237201 0.020000
v -0.277814 0.237201 0.020000
v -0.277814 0.217201 0.020000
v -0.047186 0.257201 0.020000
v -0.277814 0.217201 0.000000
v -0.357814 0.217201 0.000000
v -0.357814 0.227201 0.000000
v -0.277814 0.227201 0.000000
v -0.357814 0.237201 0.010000
v -0.277814 0.237201 0.010000
v -0.382814 0.297885 0.020000
v -0.382814 0.342814 0.020000
v -0.047186 0.342814 0.020000
v -0.047186 0.297885 0.020000
v -0.047186 0.363156 0.040342
v -0.382814 0.363156 0.040342
v -0.382814 0.363156 0.379658
v -0.047186 0.363156 0.379658
v -0.255000 0.310349 0.020000
v -0.255000 0.330349 0.020000
v -0.175000 0.330349 0.020000
v -0.175000 0.310349 0.020000
v -0.047186 0.293156 0.379658
v -0.047186 0.293156 0.040342
v -0.382814 0.293156 0.040342
v -0.382814 0.293156 0.379658
v -0.175000 0.320349 0.000000
v -0.255000 0.320349 0.000000
v -0.255000 0.330349 0.010000
v -0.175000 0.330349 0.010000
v -0.255000 0.310349 0.000000
v -0.175000 0.310349 0.000000
vt 0.490993 0.528017
vt 0.507850 0.528017
vt 0.507850 0.769626
vt 0.490993 0.769626
vt 0.507850 0.299954
vt 0.266241 0.299954
vt 0.266241 0.266241
vt 0.507850 0.266241
vt 0.728222 0.980833
vt 0.716984 0.980833
vt 0.716984 0.739224
vt 0.728222 0.739224
vt 0.021321 0.482064
vt 0.021321 0.498920
vt 0.004465 0.498920
vt 0.004465 0.465207
vt 0.246074 0.465207
vt 0.257311 0.465207
vt 0.257311 0.482064
vt 0.283097 0.004465
vt 0.299954 0.004465
vt 0.299954 0.015702
vt 0.283097 0.240455
vt 0.299954 0.257311
vt 0.266241 0.240455
vt 0.266241 0.257311
vt 0.959596 0.246074
vt 0.959596 0.004465
vt 0.976452 0.004465
vt 0.976452 0.246074
vt 0.968526 0.507850
vt 0.968526 0.266241
vt 0.985382 0.266241
vt 0.985382 0.507850
vt 0.516779 0.266241
vt 0.752769 0.266241
vt 0.752769 0.507850
vt 0.516779 0.507850
vt 0.597449 0.938809
vt 0.603068 0.983759
vt 0.597449 0.983759
vt 0.603068 0.938809
vt 0.568352 0.938809
vt 0.557114 0.983759
vt 0.557114 0.938809
vt 0.568352 0.983759
vt 0.533636 0.226909
vt 0.528017 0.238147
vt 0.528017 0.226909
vt 0.539255 0.232528
vt 0.539255 0.238147
vt 0.577281 0.983759
vt 0.582900 0.938809
vt 0.582900 0.983759
vt 0.577281 0.938809
vt 0.559422 0.226909
vt 0.548184 0.232528
vt 0.553803 0.226909
vt 0.559422 0.238147
vt 0.548184 0.238147
vt 0.588519 0.983759
vt 0.588519 0.938809
vt 0.548184 0.983760
vt 0.542566 0.938809
vt 0.548184 0.938809
vt 0.542566 0.983760
vt 0.573970 0.226909
vt 0.568352 0.238147
vt 0.568352 0.226909
vt 0.579589 0.232528
vt 0.579589 0.238147
vt 0.536947 0.983760
vt 0.536947 0.938809
vt 0.611997 0.938809
vt 0.617616 0.983759
vt 0.611997 0.983759
vt 0.617616 0.938809
vt 0.528017 0.938809
vt 0.516779 0.983759
vt 0.516779 0.938809
vt 0.528017 0.983759
vt 0.599757 0.226909
vt 0.588519 0.232528
vt 0.594138 0.226909
vt 0.599757 0.238147
vt 0.588519 0.238147
vt 0.234836 0.246074
vt 0.004465 0.246074
vt 0.004465 0.004465
vt 0.234836 0.004465
vt 0.728222 0.730294
vt 0.516780 0.528017
vt 0.728222 0.528017
vt 0.516779 0.730294
vt 0.739459 0.217980
vt 0.528017 0.004465
vt 0.739459 0.004465
vt 0.528017 0.217980
vt 0.266241 0.528017
vt 0.477683 0.741532
vt 0.266241 0.741532
vt 0.477683 0.528017
vt 0.991989 0.758388
vt 0.980751 0.758388
vt 0.980751 0.516779
vt 0.991989 0.516779
vt 0.809803 0.266241
vt 0.761699 0.479756
vt 0.761699 0.266241
vt 0.809803 0.277479
vt 0.917941 0.266241
vt 0.809803 0.479756
vt 0.824887 0.277479
vt 0.917941 0.479756
vt 0.824887 0.479756
vt 0.926871 0.507850
vt 0.926871 0.266241
vt 0.959596 0.266241
vt 0.959596 0.507850
vt 0.486362 0.026940
vt 0.519087 0.026940
vt 0.519087 0.257311
vt 0.486362 0.015702
vt 0.246074 0.278799
vt 0.234836 0.278799
vt 0.854219 0.767318
vt 0.947274 0.978760
vt 0.854219 0.978760
vt 0.947274 0.767318
vt 0.004465 0.507850
vt 0.246074 0.507850
vt 0.246074 0.749459
vt 0.004465 0.749459
vt 0.507850 0.519087
vt 0.266241 0.519087
vt 0.950666 0.004465
vt 0.748389 0.215907
vt 0.748389 0.004465
vt 0.950666 0.215907
vt 0.830206 0.767318
vt 0.845289 0.978760
vt 0.830206 0.978760
vt 0.845289 0.767318
vt 0.359296 0.761699
vt 0.266241 0.750462
vt 0.374379 0.750462
vt 0.266241 0.963976
vt 0.422483 0.750462
vt 0.359296 0.963977
vt 0.374379 0.761699
vt 0.422483 0.963977
vt 0.374379 0.963977
vt 0.752235 0.531863
vt 0.737152 0.758388
vt 0.737152 0.516779
vt 0.923560 0.516779
vt 0.860373 0.531863
vt 0.908477 0.531863
vt 0.908477 0.743305
vt 0.752235 0.743305
vt 0.923560 0.758388
vt 0.860373 0.743305
vt 0.431413 0.750462
vt 0.479517 0.961904
vt 0.431413 0.961904
vt 0.479517 0.750462
vt 0.737152 0.978760
vt 0.737152 0.767318
vt 0.739459 0.015702
vt 0.528017 0.015702
vt 0.490993 0.778556
vt 0.502231 0.778556
vt 0.502231 0.989998
vt 0.490993 0.989998
vt 0.917941 0.277479
vt 0.266241 0.761699
vt 0.078698 0.944354
vt 0.015895 0.958401
vt 0.015895 0.769818
vt 0.101173 0.958401
vt 0.089935 0.944354
vt 0.089935 0.899403
vt 0.078698 0.899403
vt 0.101173 0.769818
vt 0.277671 0.539447
vt 0.466254 0.539447
vt 0.466254 0.730102
vt 0.277671 0.730102
vt 0.728222 0.516779
vt 0.516780 0.516779
vt 0.131036 0.886585
vt 0.124032 0.958401
vt 0.124032 0.769818
vt 0.149277 0.958401
vt 0.142274 0.886585
vt 0.142274 0.841634
vt 0.131036 0.841634
vt 0.149277 0.769818
vt 0.516779 0.929879
vt 0.516779 0.739224
vt 0.705362 0.739224
vt 0.705362 0.929879
vt 0.169637 0.758388
vt 0.208968 0.758388
vt 0.208968 0.949044
vt 0.169637 0.949044
vt 0.932490 0.705362
vt 0.932490 0.516779
vt 0.971821 0.516779
vt 0.971821 0.705362
vt 0.217898 0.758388
vt 0.257230 0.758388
vt 0.257230 0.949044
vt 0.217898 0.949044
vt 0.956203 0.955901
vt 0.956203 0.767318
vt 0.995535 0.767318
vt 0.995535 0.955901
vt 0.004465 0.969831
vt 0.004465 0.758388
vt 0.112603 0.969831
vt 0.112603 0.758388
vt 0.160707 0.969831
vt 0.160707 0.758388
vn 0.0000 1.0000 -0.0000
vn 0.0000 0.0000 1.0000
vn 0.0000 -1.0000 0.0000
vn 1.0000 0.0000 -0.0000
vn -1.0000 -0.0000 0.0000
vn -0.0000 0.0000 -1.0000
vn 0.0000 -0.7071 0.7071
s 1
f 1/1/1 2/2/1 3/3/1
f 3/3/1 4/4/1 1/1/1
f 5/5/2 6/6/2 1/7/2
f 1/7/2 4/8/2 5/5/2
f 7/9/3 8/10/3 9/11/3
f 9/11/3 10/12/3 7/9/3
f 11/13/4 2/14/4 1/15/4
f 11/13/4 1/15/4 6/16/4
f 11/13/4 6/16/4 8/17/4
f 11/13/4 8/17/4 7/18/4
f 7/18/4 12/19/4 11/13/4
f 13/20/5 10/21/5 9/22/5
f 9/22/5 14/23/5 13/20/5
f 9/22/5 5/24/5 14/23/5
f 5/24/5 3/25/5 14/23/5
f 5/24/5 4/26/5 3/25/5
f 7/27/6 10/28/6 13/29/6
f 13/29/6 12/30/6 7/27/6
f 11/31/6 14/32/6 3/33/6
f 3/33/6 2/34/6 11/31/6
f 11/35/1 12/36/1 13/37/1
f 13/37/1 14/38/1 11/35/1
f 51/39/2 53/40/2 52/41/2
f 53/40/2 51/39/2 54/42/2
f 51/43/1 43/44/1 49/45/1
f 43/44/1 51/43/1 52/46/1
f 53/47/4 43/48/4 52/49/4
f 43/48/4 53/47/4 55/50/4
f 43/48/4 55/50/4 47/51/4
f 48/52/3 55/53/3 56/54/3
f 55/53/3 48/52/3 47/55/3
f 51/56/5 56/57/5 54/58/5
f 56/57/5 51/56/5 49/59/5
f 56/57/5 49/59/5 48/60/5
f 54/61/7 55/53/7 53/62/7
f 55/53/7 54/61/7 56/54/7
f 73/63/7 75/64/7 74/65/7
f 75/64/7 73/63/7 76/66/7
f 74/67/4 65/68/4 77/69/4
f 65/68/4 74/67/4 75/70/4
f 65/68/4 75/70/4 66/71/4
f 67/72/3 75/64/3 76/66/3
f 75/64/3 67/72/3 66/73/3
f 78/74/2 74/75/2 77/76/2
f 74/75/2 78/74/2 73/77/2
f 78/78/1 65/79/1 68/80/1
f 65/79/1 78/78/1 77/81/1
f 78/82/5 76/83/5 73/84/5
f 76/83/5 78/82/5 68/85/5
f 76/83/5 68/85/5 67/86/5
f 15/87/3 16/88/3 17/89/3
f 17/89/3 18/90/3 15/87/3
f 19/91/3 21/92/3 20/93/3
f 21/92/3 19/91/3 22/94/3
f 23/95/3 24/96/3 41/97/3
f 24/96/3 23/95/3 25/98/3
f 26/99/1 28/100/1 27/101/1
f 28/100/1 26/99/1 29/102/1
f 30/103/3 31/104/3 32/105/3
f 32/105/3 33/106/3 30/103/3
f 34/107/5 28/108/5 29/109/5
f 28/108/5 34/107/5 21/110/5
f 21/110/5 34/107/5 24/111/5
f 28/108/5 21/110/5 22/112/5
f 24/111/5 35/113/5 21/110/5
f 35/113/5 24/111/5 25/114/5
f 35/113/5 25/114/5 36/115/5
f 15/116/6 18/117/6 32/118/6
f 32/118/6 31/119/6 15/116/6
f 32/120/5 18/121/5 17/122/5
f 32/120/5 17/122/5 5/24/5
f 32/120/5 5/24/5 9/22/5
f 9/22/5 33/123/5 32/120/5
f 30/124/4 8/17/4 6/16/4
f 6/16/4 31/125/4 30/124/4
f 6/16/4 15/87/4 31/125/4
f 6/16/4 16/88/4 15/87/4
f 23/126/2 36/127/2 25/128/2
f 36/127/2 23/126/2 37/129/2
f 6/130/1 8/131/1 9/132/1
f 9/132/1 5/133/1 6/130/1
f 17/134/2 16/135/2 6/6/2
f 6/6/2 5/5/2 17/134/2
f 38/136/1 36/137/1 37/138/1
f 36/137/1 38/136/1 35/139/1
f 38/140/2 21/141/2 35/142/2
f 21/141/2 38/140/2 20/143/2
f 38/144/4 41/145/4 42/146/4
f 41/145/4 38/144/4 23/147/4
f 38/144/4 42/146/4 26/148/4
f 23/147/4 38/144/4 37/149/4
f 26/148/4 20/150/4 38/144/4
f 20/150/4 26/148/4 27/151/4
f 20/150/4 27/151/4 19/152/4
f 24/153/6 30/154/6 33/155/6
f 33/155/6 9/156/6 24/153/6
f 9/156/6 34/157/6 24/153/6
f 9/156/6 29/158/6 34/157/6
f 9/156/6 26/159/6 29/158/6
f 30/154/6 24/153/6 41/160/6
f 41/160/6 8/161/6 30/154/6
f 26/159/6 9/156/6 8/161/6
f 41/160/6 42/162/6 8/161/6
f 42/162/6 26/159/6 8/161/6
f 19/163/2 28/164/2 22/165/2
f 28/164/2 19/163/2 27/166/2
f 39/167/2 40/168/2 20/143/2
f 20/143/2 21/141/2 39/167/2
f 41/97/3 40/169/3 39/170/3
f 39/170/3 24/96/3 41/97/3
f 20/171/1 42/172/1 34/173/1
f 34/173/1 21/174/1 20/171/1
f 34/107/5 24/111/5 39/175/5
f 39/175/5 21/110/5 34/107/5
f 41/145/4 42/146/4 20/150/4
f 20/150/4 40/176/4 41/145/4
f 43/177/2 45/178/2 44/179/2
f 45/178/2 43/177/2 46/180/2
f 46/180/2 43/177/2 47/181/2
f 46/180/2 47/181/2 48/182/2
f 44/179/2 49/183/2 43/177/2
f 49/183/2 44/179/2 50/184/2
f 49/183/2 50/184/2 48/182/2
f 48/182/2 50/184/2 46/180/2
f 22/165/2 19/163/2 27/166/2
f 27/166/2 28/164/2 22/165/2
f 61/185/1 27/101/1 26/99/1
f 26/99/1 29/102/1 61/185/1
f 29/102/1 62/186/1 61/185/1
f 29/102/1 63/187/1 62/186/1
f 27/101/1 61/185/1 64/188/1
f 64/188/1 28/100/1 27/101/1
f 64/188/1 63/187/1 28/100/1
f 63/187/1 29/102/1 28/100/1
f 42/146/4 26/148/4 27/151/4
f 27/151/4 19/152/4 42/146/4
f 42/189/3 19/91/3 22/94/3
f 22/94/3 34/190/3 42/189/3
f 29/109/5 34/107/5 22/112/5
f 22/112/5 28/108/5 29/109/5
f 65/191/2 57/192/2 60/193/2
f 57/192/2 65/191/2 58/194/2
f 58/194/2 65/191/2 66/195/2
f 58/194/2 66/195/2 67/196/2
f 60/193/2 68/197/2 65/191/2
f 68/197/2 60/193/2 59/198/2
f 68/197/2 59/198/2 67/196/2
f 67/196/2 59/198/2 58/194/2
f 69/199/1 70/200/1 71/201/1
f 71/201/1 72/202/1 69/199/1
f 71/203/4 62/204/4 63/205/4
f 63/205/4 72/206/4 71/203/4
f 69/207/6 72/208/6 63/209/6
f 63/209/6 64/210/6 69/207/6
f 61/211/5 70/212/5 69/213/5
f 69/213/5 64/214/5 61/211/5
f 71/215/2 70/216/2 61/217/2
f 61/217/2 62/218/2 71/215/2
f 45/178/2 24/219/2 41/220/2
f 24/219/2 45/178/2 34/221/2
f 34/221/2 45/178/2 46/180/2
f 34/221/2 46/180/2 50/184/2
f 41/220/2 44/179/2 45/178/2
f 44/179/2 41/220/2 42/222/2
f 44/179/2 42/222/2 50/184/2
f 50/184/2 42/222/2 34/221/2
f 57/192/2 34/221/2 42/222/2
f 34/221/2 57/192/2 29/223/2
f 29/223/2 57/192/2 58/194/2
f 29/223/2 58/194/2 59/198/2
f 42/222/2 60/193/2 57/192/2
f 60/193/2 42/222/2 26/224/2
f 60/193/2 26/224/2 59/198/2
f 59/198/2 26/224/2 29/223/2
