# Blender v2.92.0 OBJ File: 'kenney_OGConvert.blend'
# www.blender.org
o kitchenCabinetUpperCorner
v 0.000000 0.195000 0.080000
v 0.000000 0.195000 0.183156
v -0.188156 0.195000 0.183156
v -0.000684 0.195000 0.069558
v -0.002726 0.195000 0.059294
v -0.006090 0.195000 0.049385
v -0.010718 0.195000 0.040000
v -0.016532 0.195000 0.031299
v -0.023431 0.195000 0.023431
v -0.031299 0.195000 0.016532
v -0.040000 0.195000 0.010718
v -0.049385 0.195000 0.006090
v -0.059294 0.195000 0.002726
v -0.069558 0.195000 0.000684
v -0.080000 0.195000 0.000000
v -0.188156 0.195000 0.000000
v -0.006090 0.221844 0.049385
v -0.002726 0.221844 0.059294
v 0.000000 0.221844 0.183156
v 0.000000 0.221844 0.080000
v -0.000684 0.221844 0.069558
v -0.188156 0.221844 0.183156
v -0.010718 0.221844 0.040000
v -0.016532 0.221844 0.031299
v -0.023431 0.221844 0.023431
v -0.031299 0.221844 0.016532
v -0.040000 0.221844 0.010718
v -0.049385 0.221844 0.006090
v -0.059294 0.221844 0.002726
v -0.069558 0.221844 0.000684
v -0.080000 0.221844 0.000000
v -0.188156 0.221844 0.000000
v 0.000000 0.026844 0.183156
v 0.000000 0.026844 0.080000
v -0.000684 0.026844 0.069558
v -0.188156 0.026844 0.183156
v -0.002726 0.026844 0.059294
v -0.006090 0.026844 0.049385
v -0.010718 0.026844 0.040000
v -0.016532 0.026844 0.031299
v -0.023431 0.026844 0.023431
v -0.031299 0.026844 0.016532
v -0.040000 0.026844 0.010718
v -0.049385 0.026844 0.006090
v -0.059294 0.026844 0.002726
v -0.069558 0.026844 0.000684
v -0.080000 0.026844 0.000000
v -0.188156 0.026844 0.000000
v 0.000000 0.363156 0.080000
v 0.000000 0.390000 0.080000
v 0.000000 0.390000 0.210000
v 0.000000 0.363156 0.183156
v 0.000000 -0.000000 0.210000
v 0.000000 -0.000000 0.080000
v -0.188156 0.363156 0.000000
v -0.188156 0.363156 0.183156
v -0.215000 -0.000000 0.210000
v -0.215000 0.390000 0.210000
v -0.000684 -0.000000 0.069558
v -0.002726 -0.000000 0.059294
v -0.006090 -0.000000 0.049385
v -0.010718 -0.000000 0.040000
v -0.016532 -0.000000 0.031299
v -0.023431 -0.000000 0.023431
v -0.031299 -0.000000 0.016532
v -0.040000 -0.000000 0.010718
v -0.049385 -0.000000 0.006090
v -0.059294 -0.000000 0.002726
v -0.069558 -0.000000 0.000684
v -0.080000 0.000000 0.000000
v -0.215000 0.000000 0.000000
v -0.215000 0.390000 0.000000
v -0.000684 0.390000 0.069558
v -0.002726 0.390000 0.059294
v -0.006090 0.390000 0.049385
v -0.010718 0.390000 0.040000
v -0.016532 0.390000 0.031299
v -0.023431 0.390000 0.023431
v -0.031299 0.390000 0.016532
v -0.040000 0.390000 0.010718
v -0.049385 0.390000 0.006090
v -0.059294 0.390000 0.002726
v -0.069558 0.390000 0.000684
v -0.080000 0.390000 0.000000
v -0.059294 0.363156 0.002726
v -0.069558 0.363156 0.000684
v -0.031299 0.363156 0.016532
v -0.040000 0.363156 0.010718
v -0.023431 0.363156 0.023431
v -0.016532 0.363156 0.031299
v -0.010718 0.363156 0.040000
v -0.006090 0.363156 0.049385
v -0.049385 0.363156 0.006090
v -0.080000 0.363156 0.000000
v -0.000684 0.363156 0.069558
v -0.002726 0.363156 0.059294
vt 0.317572 0.647726
vt 0.425375 0.647726
vt 0.425375 0.844358
vt 0.306660 0.648441
vt 0.295934 0.650575
vt 0.285579 0.654090
vt 0.275770 0.658927
vt 0.266677 0.665003
vt 0.258455 0.672213
vt 0.251245 0.680435
vt 0.245169 0.689528
vt 0.240332 0.699336
vt 0.236817 0.709692
vt 0.234684 0.720418
vt 0.233968 0.731330
vt 0.233968 0.844358
vt 0.169713 0.620637
vt 0.169713 0.648690
vt 0.158921 0.648690
vt 0.158921 0.620637
vt 0.629159 0.647726
vt 0.736962 0.647726
vt 0.747875 0.648441
vt 0.629159 0.844358
vt 0.758600 0.650575
vt 0.768956 0.654090
vt 0.778764 0.658927
vt 0.787857 0.665003
vt 0.796079 0.672213
vt 0.803290 0.680435
vt 0.809365 0.689528
vt 0.814202 0.699336
vt 0.817717 0.709692
vt 0.819851 0.720418
vt 0.820566 0.731330
vt 0.820566 0.844358
vt 0.459617 0.206879
vt 0.468911 0.206879
vt 0.468911 0.234932
vt 0.459617 0.234932
vt 0.478878 0.206879
vt 0.478878 0.234932
vt 0.489347 0.206879
vt 0.500139 0.206879
vt 0.500139 0.234932
vt 0.489347 0.234932
vt 0.199443 0.620637
vt 0.199443 0.648690
vt 0.190149 0.648690
vt 0.190149 0.620637
vt 0.511070 0.206879
vt 0.511070 0.234932
vt 0.521951 0.206879
vt 0.521951 0.234932
vt 0.180182 0.648690
vt 0.180182 0.620637
vt 0.147990 0.620637
vt 0.147990 0.648690
vt 0.137108 0.648690
vt 0.137108 0.620637
vt 0.667308 0.003094
vt 0.775111 0.003094
vt 0.786024 0.003810
vt 0.667308 0.199726
vt 0.796750 0.005943
vt 0.807105 0.009458
vt 0.816913 0.014295
vt 0.826006 0.020371
vt 0.834228 0.027581
vt 0.841439 0.035803
vt 0.847514 0.044896
vt 0.852351 0.054704
vt 0.855867 0.065060
vt 0.858000 0.075786
vt 0.858715 0.086698
vt 0.858715 0.199726
vt 0.137108 0.796368
vt 0.137108 0.824421
vt 0.003094 0.824421
vt 0.030767 0.796368
vt 0.030767 0.648690
vt 0.030767 0.620637
vt 0.030767 0.444905
vt 0.003094 0.416852
vt 0.137108 0.416852
vt 0.137108 0.444905
vt 0.849228 0.205915
vt 0.996906 0.205915
vt 0.996906 0.394726
vt 0.849228 0.394726
vt 0.227780 0.410663
vt 0.003094 0.410663
vt 0.003094 0.003094
vt 0.227780 0.003094
vt 0.317572 0.416852
vt 0.453429 0.416852
vt 0.453429 0.641538
vt 0.306660 0.417567
vt 0.295934 0.419701
vt 0.285579 0.423216
vt 0.275770 0.428053
vt 0.266677 0.434128
vt 0.258455 0.441339
vt 0.251245 0.449561
vt 0.245169 0.458654
vt 0.240332 0.468462
vt 0.236817 0.478818
vt 0.234684 0.489543
vt 0.233968 0.500456
vt 0.233968 0.641538
vt 0.453429 0.003094
vt 0.453429 0.410663
vt 0.233968 0.410663
vt 0.233968 0.003094
vt 0.511070 0.003094
vt 0.521951 0.003094
vt 0.521951 0.031148
vt 0.511070 0.031148
vt 0.500139 0.003094
vt 0.500139 0.031148
vt 0.459617 0.003094
vt 0.468911 0.003094
vt 0.468911 0.031148
vt 0.459617 0.031148
vt 0.190149 0.416852
vt 0.190149 0.444905
vt 0.180182 0.444905
vt 0.180182 0.416852
vt 0.478878 0.003094
vt 0.489347 0.003094
vt 0.489347 0.031148
vt 0.478878 0.031148
vt 0.199443 0.416852
vt 0.199443 0.444905
vt 0.169713 0.444905
vt 0.169713 0.416852
vt 0.459617 0.416852
vt 0.595474 0.416852
vt 0.606386 0.417567
vt 0.459617 0.641538
vt 0.617112 0.419701
vt 0.627468 0.423216
vt 0.637276 0.428053
vt 0.646369 0.434128
vt 0.654591 0.441339
vt 0.661801 0.449561
vt 0.667877 0.458654
vt 0.672714 0.468462
vt 0.676229 0.478818
vt 0.678362 0.489543
vt 0.679078 0.500456
vt 0.679078 0.641538
vt 0.147990 0.416852
vt 0.147990 0.444905
vt 0.158921 0.416852
vt 0.158921 0.444905
vt 0.500139 0.382610
vt 0.511070 0.382610
vt 0.511070 0.410663
vt 0.500139 0.410663
vt 0.468911 0.382610
vt 0.478878 0.382610
vt 0.478878 0.410663
vt 0.468911 0.410663
vt 0.199443 0.796368
vt 0.199443 0.824421
vt 0.190149 0.824421
vt 0.190149 0.796368
vt 0.180182 0.796368
vt 0.180182 0.824421
vt 0.169713 0.824421
vt 0.169713 0.796368
vt 0.489347 0.382610
vt 0.489347 0.410663
vt 0.459617 0.382610
vt 0.459617 0.410663
vt 0.685266 0.416852
vt 0.860997 0.416852
vt 0.860997 0.605663
vt 0.685266 0.605663
vt 0.633447 0.031148
vt 0.661120 0.003094
vt 0.661120 0.410663
vt 0.633447 0.206879
vt 0.633447 0.234932
vt 0.633447 0.382610
vt 0.521951 0.382610
vt 0.521951 0.410663
vt 0.667308 0.399880
vt 0.667309 0.205915
vt 0.843040 0.205915
vt 0.843040 0.399880
vt 0.826755 0.841692
vt 0.826755 0.647726
vt 0.974432 0.647726
vt 0.974432 0.841692
vt 0.515168 0.647726
vt 0.622971 0.647726
vt 0.622971 0.844358
vt 0.504255 0.648441
vt 0.493529 0.650575
vt 0.483174 0.654090
vt 0.473366 0.658927
vt 0.464273 0.665003
vt 0.456051 0.672213
vt 0.448840 0.680435
vt 0.442765 0.689528
vt 0.437928 0.699336
vt 0.434413 0.709692
vt 0.432279 0.720418
vt 0.431564 0.731330
vt 0.431564 0.844358
vt 0.147990 0.796368
vt 0.147990 0.824421
vt 0.158921 0.796368
vt 0.158921 0.824421
vn 0.0000 -1.0000 -0.0000
vn 0.9239 0.0000 -0.3827
vn 0.9659 0.0000 -0.2588
vn -0.0000 1.0000 0.0000
vn 0.7071 0.0000 -0.7071
vn 0.6088 -0.0000 -0.7934
vn 0.5000 0.0000 -0.8660
vn 0.3827 0.0000 -0.9239
vn 0.2588 0.0000 -0.9659
vn 0.7934 0.0000 -0.6088
vn 0.1305 0.0000 -0.9914
vn 0.0654 0.0000 -0.9979
vn 0.8660 0.0000 -0.5000
vn 0.9914 0.0000 -0.1305
vn 0.9979 0.0000 -0.0654
vn 1.0000 -0.0000 -0.0000
vn 0.0000 -0.0000 1.0000
vn -1.0000 0.0000 0.0000
vn -0.0000 0.0000 -1.0000
s 1
f 1/1/1 2/2/1 3/3/1
f 3/3/1 4/4/1 1/1/1
f 3/3/1 5/5/1 4/4/1
f 3/3/1 6/6/1 5/5/1
f 3/3/1 7/7/1 6/6/1
f 3/3/1 8/8/1 7/7/1
f 3/3/1 9/9/1 8/8/1
f 3/3/1 10/10/1 9/9/1
f 3/3/1 11/11/1 10/10/1
f 3/3/1 12/12/1 11/11/1
f 3/3/1 13/13/1 12/12/1
f 3/3/1 14/14/1 13/13/1
f 3/3/1 15/15/1 14/14/1
f 3/3/1 16/16/1 15/15/1
f 6/17/2 17/18/2 18/19/3
f 18/19/3 5/20/3 6/17/2
f 19/21/4 20/22/4 21/23/4
f 21/23/4 22/24/4 19/21/4
f 21/23/4 18/25/4 22/24/4
f 18/25/4 17/26/4 22/24/4
f 17/26/4 23/27/4 22/24/4
f 23/27/4 24/28/4 22/24/4
f 24/28/4 25/29/4 22/24/4
f 25/29/4 26/30/4 22/24/4
f 26/30/4 27/31/4 22/24/4
f 27/31/4 28/32/4 22/24/4
f 28/32/4 29/33/4 22/24/4
f 29/33/4 30/34/4 22/24/4
f 30/34/4 31/35/4 22/24/4
f 31/35/4 32/36/4 22/24/4
f 9/37/5 10/38/6 26/39/6
f 26/39/6 25/40/5 9/37/5
f 10/38/6 11/41/7 27/42/7
f 27/42/7 26/39/6 10/38/6
f 12/43/8 13/44/9 29/45/9
f 29/45/9 28/46/8 12/43/8
f 9/47/5 25/48/5 24/49/10
f 24/49/10 8/50/10 9/47/5
f 13/44/9 14/51/11 30/52/11
f 30/52/11 29/45/9 13/44/9
f 11/41/7 12/43/8 28/46/8
f 28/46/8 27/42/7 11/41/7
f 14/51/11 15/53/12 31/54/12
f 31/54/12 30/52/11 14/51/11
f 8/50/10 24/49/10 23/55/13
f 23/55/13 7/56/13 8/50/10
f 4/57/14 21/58/14 20/59/15
f 20/59/15 1/60/15 4/57/14
f 5/20/3 18/19/3 21/58/14
f 21/58/14 4/57/14 5/20/3
f 7/56/13 23/55/13 17/18/2
f 17/18/2 6/17/2 7/56/13
f 33/61/4 34/62/4 35/63/4
f 35/63/4 36/64/4 33/61/4
f 35/63/4 37/65/4 36/64/4
f 37/65/4 38/66/4 36/64/4
f 38/66/4 39/67/4 36/64/4
f 39/67/4 40/68/4 36/64/4
f 40/68/4 41/69/4 36/64/4
f 41/69/4 42/70/4 36/64/4
f 42/70/4 43/71/4 36/64/4
f 43/71/4 44/72/4 36/64/4
f 44/72/4 45/73/4 36/64/4
f 45/73/4 46/74/4 36/64/4
f 46/74/4 47/75/4 36/64/4
f 47/75/4 48/76/4 36/64/4
f 49/77/16 50/78/16 51/79/16
f 51/79/16 52/80/16 49/77/16
f 51/79/16 19/81/16 52/80/16
f 51/79/16 2/82/16 19/81/16
f 51/79/16 33/83/16 2/82/16
f 33/83/16 51/79/16 53/84/16
f 33/83/16 53/84/16 54/85/16
f 54/85/16 34/86/16 33/83/16
f 19/81/16 2/82/16 1/60/16
f 1/60/16 20/59/16 19/81/16
f 32/87/16 55/88/16 56/89/16
f 56/89/16 22/90/16 32/87/16
f 57/91/17 53/92/17 51/93/17
f 51/93/17 58/94/17 57/91/17
f 54/95/1 53/96/1 57/97/1
f 57/97/1 59/98/1 54/95/1
f 57/97/1 60/99/1 59/98/1
f 57/97/1 61/100/1 60/99/1
f 57/97/1 62/101/1 61/100/1
f 57/97/1 63/102/1 62/101/1
f 57/97/1 64/103/1 63/102/1
f 57/97/1 65/104/1 64/103/1
f 57/97/1 66/105/1 65/104/1
f 57/97/1 67/106/1 66/105/1
f 57/97/1 68/107/1 67/106/1
f 57/97/1 69/108/1 68/107/1
f 57/97/1 70/109/1 69/108/1
f 57/97/1 71/110/1 70/109/1
f 72/111/18 71/112/18 57/113/18
f 57/113/18 58/114/18 72/111/18
f 69/115/11 70/116/12 47/117/12
f 47/117/12 46/118/11 69/115/11
f 68/119/9 69/115/11 46/118/11
f 46/118/11 45/120/9 68/119/9
f 64/121/5 65/122/6 42/123/6
f 42/123/6 41/124/5 64/121/5
f 63/125/10 40/126/10 39/127/13
f 39/127/13 62/128/13 63/125/10
f 66/129/7 67/130/8 44/131/8
f 44/131/8 43/132/7 66/129/7
f 67/130/8 68/119/9 45/120/9
f 45/120/9 44/131/8 67/130/8
f 64/133/5 41/134/5 40/126/10
f 40/126/10 63/125/10 64/133/5
f 62/128/13 39/127/13 38/135/2
f 38/135/2 61/136/2 62/128/13
f 65/122/6 66/129/7 43/132/7
f 43/132/7 42/123/6 65/122/6
f 51/137/4 50/138/4 73/139/4
f 73/139/4 58/140/4 51/137/4
f 73/139/4 74/141/4 58/140/4
f 74/141/4 75/142/4 58/140/4
f 75/142/4 76/143/4 58/140/4
f 76/143/4 77/144/4 58/140/4
f 77/144/4 78/145/4 58/140/4
f 78/145/4 79/146/4 58/140/4
f 79/146/4 80/147/4 58/140/4
f 80/147/4 81/148/4 58/140/4
f 81/148/4 82/149/4 58/140/4
f 82/149/4 83/150/4 58/140/4
f 83/150/4 84/151/4 58/140/4
f 84/151/4 72/152/4 58/140/4
f 59/153/14 35/154/14 34/86/15
f 34/86/15 54/85/15 59/153/14
f 60/155/3 37/156/3 35/154/14
f 35/154/14 59/153/14 60/155/3
f 61/136/2 38/135/2 37/156/3
f 37/156/3 60/155/3 61/136/2
f 85/157/9 86/158/11 83/159/11
f 83/159/11 82/160/9 85/157/9
f 87/161/6 88/162/7 80/163/7
f 80/163/7 79/164/6 87/161/6
f 89/165/5 78/166/5 77/167/10
f 77/167/10 90/168/10 89/165/5
f 91/169/13 76/170/13 75/171/2
f 75/171/2 92/172/2 91/169/13
f 90/168/10 77/167/10 76/170/13
f 76/170/13 91/169/13 90/168/10
f 88/162/7 93/173/8 81/174/8
f 81/174/8 80/163/7 88/162/7
f 89/175/5 87/161/6 79/164/6
f 79/164/6 78/176/5 89/175/5
f 93/173/8 85/157/9 82/160/9
f 82/160/9 81/174/8 93/173/8
f 48/177/16 16/178/16 3/179/16
f 3/179/16 36/180/16 48/177/16
f 48/181/19 70/116/19 71/182/19
f 71/182/19 72/183/19 48/181/19
f 72/183/19 16/184/19 48/181/19
f 72/183/19 32/185/19 16/184/19
f 32/185/19 15/53/19 16/184/19
f 72/183/19 55/186/19 32/185/19
f 72/183/19 94/187/19 55/186/19
f 72/183/19 84/188/19 94/187/19
f 15/53/19 32/185/19 31/54/19
f 70/116/19 48/181/19 47/117/19
f 33/189/19 36/190/19 3/191/19
f 3/191/19 2/192/19 33/189/19
f 19/193/19 22/194/19 56/195/19
f 56/195/19 52/196/19 19/193/19
f 49/197/1 52/198/1 56/199/1
f 56/199/1 95/200/1 49/197/1
f 56/199/1 96/201/1 95/200/1
f 56/199/1 92/202/1 96/201/1
f 56/199/1 91/203/1 92/202/1
f 56/199/1 90/204/1 91/203/1
f 56/199/1 89/205/1 90/204/1
f 56/199/1 87/206/1 89/205/1
f 56/199/1 88/207/1 87/206/1
f 56/199/1 93/208/1 88/207/1
f 56/199/1 85/209/1 93/208/1
f 56/199/1 86/210/1 85/209/1
f 56/199/1 94/211/1 86/210/1
f 56/199/1 55/212/1 94/211/1
f 95/213/14 73/214/14 50/78/15
f 50/78/15 49/77/15 95/213/14
f 96/215/3 74/216/3 73/214/14
f 73/214/14 95/213/14 96/215/3
f 92/172/2 75/171/2 74/216/3
f 74/216/3 96/215/3 92/172/2
f 86/158/11 94/187/12 84/188/12
f 84/188/12 83/159/11 86/158/11
