# Blender v2.92.0 OBJ File: 'kenney_OGConvert.blend'
# www.blender.org
o kitchenCabinetUpper
v 0.000000 0.000000 0.000000
v 0.000000 -0.000000 0.210000
v -0.430000 -0.000000 0.210000
v -0.430000 0.000000 0.000000
v 0.000000 0.390000 0.210000
v 0.000000 0.390000 0.000000
v -0.430000 0.390000 0.000000
v -0.430000 0.390000 0.210000
v -0.403156 0.026844 0.000000
v -0.403156 0.363156 0.000000
v -0.026844 0.363156 0.000000
v -0.026844 0.026844 0.000000
v -0.026844 0.208422 0.190000
v -0.403156 0.208422 0.190000
v -0.403156 0.363156 0.190000
v -0.026844 0.363156 0.190000
v -0.026844 0.026844 0.190000
v -0.403156 0.026844 0.190000
v -0.026844 0.181578 0.020000
v -0.026844 0.181578 0.190000
v -0.403156 0.181578 0.190000
v -0.403156 0.181578 0.020000
v -0.026844 0.208422 0.020000
v -0.403156 0.208422 0.020000
v -0.403156 0.026844 0.020000
v -0.026844 0.026844 0.020000
v -0.026844 0.363156 0.020000
v -0.403156 0.363156 0.020000
v -0.362814 0.067186 0.000000
v -0.047186 0.047186 0.000000
v -0.382814 0.047186 0.000000
v -0.382814 0.342814 0.000000
v -0.362814 0.087186 0.000000
v -0.282814 0.087186 0.000000
v -0.282814 0.067186 0.000000
v -0.047186 0.342814 0.000000
v -0.282814 0.087186 -0.010000
v -0.362814 0.087186 -0.010000
v -0.362814 0.067186 -0.010000
v -0.282814 0.067186 -0.010000
vt 0.143331 0.290225
vt 0.003114 0.290225
vt 0.003114 0.003114
vt 0.143331 0.003114
vt 0.640744 0.296452
vt 0.780961 0.296452
vt 0.780961 0.583563
vt 0.640744 0.583563
vt 0.143331 0.550628
vt 0.003114 0.550628
vt 0.409961 0.290225
vt 0.409961 0.003114
vt 0.670364 0.003114
vt 0.670364 0.290225
vt 0.816809 0.003114
vt 0.816809 0.263517
vt 0.676592 0.263517
vt 0.676592 0.003114
vt 0.161255 0.021038
vt 0.403734 0.003114
vt 0.385810 0.021038
vt 0.385810 0.272301
vt 0.161255 0.272301
vt 0.403734 0.290225
vt 0.893571 0.589791
vt 0.996886 0.841054
vt 0.893571 0.841054
vt 0.996886 0.589791
vt 0.003114 0.808118
vt 0.129977 0.556855
vt 0.129977 0.808118
vt 0.003114 0.556855
vt 0.263067 0.556855
vt 0.136204 0.808118
vt 0.136204 0.556855
vt 0.263067 0.808118
vt 0.382803 0.556855
vt 0.269295 0.808118
vt 0.269295 0.556855
vt 0.382803 0.808118
vt 0.640744 0.841054
vt 0.754253 0.589791
vt 0.754253 0.841054
vt 0.640744 0.589791
vt 0.823036 0.003114
vt 0.926352 0.254377
vt 0.823036 0.254377
vt 0.926352 0.003114
vt 0.920279 0.296452
vt 0.938203 0.547715
vt 0.920279 0.547715
vt 0.938203 0.296452
vt 0.773834 0.693106
vt 0.760480 0.589791
vt 0.887343 0.589791
vt 0.773834 0.711030
vt 0.887343 0.693106
vt 0.760480 0.814346
vt 0.887343 0.814346
vt 0.887343 0.711030
vt 0.800542 0.399768
vt 0.787188 0.296452
vt 0.914051 0.296452
vt 0.800542 0.417692
vt 0.914051 0.399768
vt 0.787188 0.521007
vt 0.914051 0.521007
vt 0.914051 0.417692
vt 0.409961 0.547715
vt 0.409961 0.296452
vt 0.634516 0.296452
vt 0.634516 0.547715
vt 0.773834 0.589791
vt 0.773834 0.814346
vt 0.249713 0.556855
vt 0.249713 0.808118
vt 0.800542 0.296452
vt 0.800542 0.521007
vt 0.116623 0.808118
vt 0.116623 0.556855
vt 0.436897 0.778270
vt 0.423543 0.791624
vt 0.423543 0.567525
vt 0.620934 0.791624
vt 0.450251 0.778270
vt 0.450251 0.724854
vt 0.436897 0.724854
vt 0.620934 0.567525
vt 0.409961 0.805206
vt 0.409961 0.553943
vt 0.634516 0.805206
vt 0.634516 0.553943
vt 0.390380 0.616498
vt 0.397057 0.669914
vt 0.390380 0.669914
vt 0.397057 0.616498
vt 0.683268 0.283098
vt 0.676592 0.269744
vt 0.683268 0.269744
vt 0.676592 0.283098
vt 0.696173 0.283098
vt 0.689496 0.269744
vt 0.696173 0.269744
vt 0.689496 0.283098
vt 0.390380 0.556855
vt 0.403734 0.610271
vt 0.390380 0.610271
vt 0.403734 0.556855
vt 0.397057 0.676142
vt 0.390380 0.729558
vt 0.390380 0.676142
vt 0.397057 0.729558
vn -0.0000 -1.0000 -0.0000
vn 0.0000 1.0000 0.0000
vn 1.0000 0.0000 -0.0000
vn 0.0000 -0.0000 1.0000
vn -1.0000 0.0000 0.0000
vn -0.0000 0.0000 -1.0000
s 1
f 1/1/1 2/2/1 3/3/1
f 3/3/1 4/4/1 1/1/1
f 5/5/2 6/6/2 7/7/2
f 7/7/2 8/8/2 5/5/2
f 1/1/3 6/9/3 5/10/3
f 5/10/3 2/2/3 1/1/3
f 3/11/4 2/12/4 5/13/4
f 5/13/4 8/14/4 3/11/4
f 7/15/5 4/16/5 3/17/5
f 3/17/5 8/18/5 7/15/5
f 9/19/6 1/1/6 4/4/6
f 4/4/6 7/20/6 9/19/6
f 7/20/6 10/21/6 9/19/6
f 7/20/6 11/22/6 10/21/6
f 1/1/6 9/19/6 12/23/6
f 12/23/6 6/24/6 1/1/6
f 12/23/6 11/22/6 6/24/6
f 11/22/6 7/20/6 6/24/6
f 13/25/4 15/26/4 14/27/4
f 15/26/4 13/25/4 16/28/4
f 17/29/1 9/30/1 12/31/1
f 9/30/1 17/29/1 18/32/1
f 11/33/2 15/34/2 16/35/2
f 15/34/2 11/33/2 10/36/2
f 19/37/2 21/38/2 20/39/2
f 21/38/2 19/37/2 22/40/2
f 13/41/1 24/42/1 23/43/1
f 24/42/1 13/41/1 14/44/1
f 17/45/4 21/46/4 18/47/4
f 21/46/4 17/45/4 20/48/4
f 19/49/4 24/50/4 22/51/4
f 24/50/4 19/49/4 23/52/4
f 22/53/5 9/54/5 18/55/5
f 9/54/5 22/53/5 24/56/5
f 22/53/5 18/55/5 21/57/5
f 24/56/5 10/58/5 9/54/5
f 10/58/5 24/56/5 15/59/5
f 15/59/5 24/56/5 14/60/5
f 23/61/3 11/62/3 16/63/3
f 11/62/3 23/61/3 19/64/3
f 23/61/3 16/63/3 13/65/3
f 19/64/3 12/66/3 11/62/3
f 12/66/3 19/64/3 17/67/3
f 17/67/3 19/64/3 20/68/3
f 25/69/4 26/70/4 27/71/4
f 27/71/4 28/72/4 25/69/4
f 10/58/5 9/54/5 25/73/5
f 25/73/5 28/74/5 10/58/5
f 27/75/2 11/33/2 10/36/2
f 10/36/2 28/76/2 27/75/2
f 12/66/3 11/62/3 27/77/3
f 27/77/3 26/78/3 12/66/3
f 12/31/1 26/79/1 25/80/1
f 25/80/1 9/30/1 12/31/1
f 29/81/4 31/82/4 30/83/4
f 31/82/4 29/81/4 32/84/4
f 32/84/4 29/81/4 33/85/4
f 32/84/4 33/85/4 34/86/4
f 30/83/4 35/87/4 29/81/4
f 35/87/4 30/83/4 36/88/4
f 35/87/4 36/88/4 34/86/4
f 34/86/4 36/88/4 32/84/4
f 31/82/4 9/89/4 12/90/4
f 9/89/4 31/82/4 10/91/4
f 10/91/4 31/82/4 32/84/4
f 10/91/4 32/84/4 36/88/4
f 12/90/4 30/83/4 31/82/4
f 30/83/4 12/90/4 11/92/4
f 30/83/4 11/92/4 36/88/4
f 36/88/4 11/92/4 10/91/4
f 33/93/1 37/94/1 34/95/1
f 37/94/1 33/93/1 38/96/1
f 38/97/3 29/98/3 39/99/3
f 29/98/3 38/97/3 33/100/3
f 40/101/5 34/102/5 37/103/5
f 34/102/5 40/101/5 35/104/5
f 40/105/4 38/106/4 39/107/4
f 38/106/4 40/105/4 37/108/4
f 40/109/2 29/110/2 35/111/2
f 29/110/2 40/109/2 39/112/2
