# Blender v2.92.0 OBJ File: 'OGConvert.blend'
# www.blender.org
o kitchenFridgeBuiltIn
v 0.000000 -0.000000 0.320000
v 0.000000 -0.000000 3.600000
v -3.440000 -0.000000 3.600000
v -3.440000 -0.000000 0.320000
v -0.214753 0.680688 0.240000
v -0.214753 0.680688 0.160000
v -3.225246 0.680688 0.160000
v -3.225246 0.680688 0.240000
v 0.000000 0.465935 0.160000
v 0.000000 0.465935 0.320000
v -3.440000 0.465935 0.320000
v -3.440000 0.465935 0.160000
v -3.440000 6.949982 3.600000
v -3.440000 6.949982 0.160000
v -0.000000 6.949982 0.160000
v -0.000000 6.949982 3.600000
v -0.214753 6.735229 0.160000
v -0.214753 6.735229 0.240000
v -3.225246 6.735229 0.160000
v -3.225246 6.735229 0.240000
v -0.402694 5.304871 2.080000
v -0.402694 5.304871 0.480000
v -3.037306 5.304871 0.480000
v -3.037306 5.304871 2.080000
v -3.225246 0.680829 2.335471
v -0.214753 0.680829 2.335471
v -0.214753 6.735229 2.335471
v -3.225246 6.735229 2.335471
v -3.037306 5.115889 0.480000
v -3.037306 5.115889 2.080000
v -3.037306 6.546247 2.080000
v -3.037306 6.546247 0.240000
v -3.037306 0.869671 0.240000
v -3.037306 0.869671 2.080000
v -0.402694 6.546247 2.080000
v -0.402694 6.546247 0.240000
v -0.402694 5.115889 0.480000
v -0.402694 0.869671 0.240000
v -0.402694 0.869671 2.080000
v -0.402694 5.115889 2.080000
v -0.689528 5.498807 0.480000
v -3.037306 5.210380 0.480000
v -0.402694 5.210380 0.480000
v -0.402694 6.546247 0.480000
v -0.689528 6.257820 0.480000
v -2.750471 6.257820 0.480000
v -2.750471 5.498807 0.480000
v -3.037306 6.546247 0.480000
v -2.657729 5.532962 0.640000
v -0.782271 5.532962 0.640000
v -0.782271 6.223664 0.640000
v -2.657729 6.223664 0.640000
v -0.402694 6.546247 0.080000
v -3.037306 6.546247 0.080000
v -0.402694 5.210380 0.080000
v -3.037306 5.210380 0.080000
v -2.897283 5.351180 0.080000
v -2.897283 5.491980 0.080000
v -2.337191 5.491980 0.080000
v -2.337191 5.351180 0.080000
v -2.337191 5.491980 0.000000
v -2.897283 5.491980 0.000000
v -2.897283 5.351180 0.000000
v -2.337191 5.351180 0.000000
v -2.897283 4.928780 0.080000
v -0.402694 0.869671 0.080000
v -3.037306 0.869671 0.080000
v -2.897283 5.069580 0.080000
v -2.337191 5.069580 0.080000
v -2.337191 4.928780 0.080000
v -0.402694 0.869671 0.480000
v -3.037306 0.869671 0.480000
v -0.689528 1.158098 0.480000
v -0.689528 1.668718 0.480000
v -0.689528 2.017734 0.480000
v -0.689528 2.865518 0.480000
v -0.689528 3.214534 0.480000
v -0.689528 4.062317 0.480000
v -0.689528 4.411333 0.480000
v -0.689528 4.921954 0.480000
v -2.750471 4.921954 0.480000
v -2.750471 1.158098 0.480000
v -2.750471 1.668718 0.480000
v -2.750471 2.017734 0.480000
v -2.750471 2.865518 0.480000
v -2.750471 3.214534 0.480000
v -2.750471 4.062317 0.480000
v -2.750471 4.411333 0.480000
v -0.689528 1.158098 0.320000
v -2.750471 1.158098 0.320000
v -2.750471 1.668718 0.320000
v -2.750471 2.865518 0.320000
v -2.750471 4.062317 0.320000
v -2.750471 4.921954 0.320000
v -0.689528 4.921954 0.320000
v -0.689528 1.668718 0.320000
v -0.689528 2.865518 0.320000
v -0.689528 4.062317 0.320000
v -2.337191 5.069580 0.000000
v -2.897283 5.069580 0.000000
v -2.337191 4.928780 0.000000
v -2.897283 4.928780 0.000000
v -2.750471 1.668718 0.800000
v -0.689528 1.668718 0.800000
v -0.689528 2.017734 0.800000
v -2.750471 2.017734 0.800000
v -0.689528 4.411333 0.800000
v -0.689528 4.062317 0.800000
v -2.750471 4.062317 0.800000
v -2.750471 4.411333 0.800000
v -2.750471 2.865518 0.800000
v -2.750471 3.214534 0.800000
v -0.689528 2.865518 0.800000
v -0.689528 3.214534 0.800000
vt 0.348556 0.840748
vt 0.186086 0.840748
vt 0.186086 0.670339
vt 0.348556 0.670339
vt 0.990812 0.164809
vt 0.994774 0.164809
vt 0.994774 0.313941
vt 0.990812 0.313941
vt 0.992740 0.530370
vt 0.984815 0.530370
vt 0.984815 0.359961
vt 0.992740 0.359961
vt 0.119473 0.862025
vt 0.119473 0.691616
vt 0.142554 0.691616
vt 0.142554 0.862025
vt 0.348517 0.326429
vt 0.348517 0.349510
vt 0.186086 0.349510
vt 0.186086 0.005225
vt 0.356440 0.005225
vt 0.356440 0.326429
vt 0.537246 0.028307
vt 0.537246 0.349510
vt 0.366891 0.349510
vt 0.529323 0.028307
vt 0.529323 0.005225
vt 0.366891 0.005225
vt 0.175635 0.349510
vt 0.005225 0.349510
vt 0.005226 0.005225
vt 0.175635 0.005226
vt 0.349631 0.359961
vt 0.349631 0.659888
vt 0.345669 0.659888
vt 0.345669 0.359961
vt 0.015864 0.670527
vt 0.175635 0.681165
vt 0.005226 0.681165
vt 0.005225 0.359961
vt 0.015864 0.370600
vt 0.164996 0.370600
vt 0.164996 0.670527
vt 0.175635 0.359961
vt 0.366891 0.670332
vt 0.537270 0.670332
vt 0.537270 0.840741
vt 0.366891 0.840741
vt 0.980361 0.005225
vt 0.980361 0.305152
vt 0.976399 0.305152
vt 0.976399 0.005225
vt 0.994774 0.154358
vt 0.990812 0.154358
vt 0.990812 0.005225
vt 0.994774 0.005225
vt 0.386703 0.981704
vt 0.366891 0.981704
vt 0.366891 0.851192
vt 0.386703 0.851192
vt 0.172818 0.822128
vt 0.153005 0.822128
vt 0.153005 0.691616
vt 0.172818 0.691616
vt 0.533411 0.419162
vt 0.656987 0.426137
vt 0.526475 0.426137
vt 0.526475 0.359961
vt 0.533411 0.412187
vt 0.561157 0.412187
vt 0.561157 0.419162
vt 0.656987 0.359961
vt 0.942446 0.670339
vt 0.942446 0.736515
vt 0.922638 0.736515
vt 0.922638 0.670339
vt 0.972706 0.885367
vt 0.972706 0.951543
vt 0.952897 0.951543
vt 0.952897 0.885367
vt 0.533411 0.440087
vt 0.656987 0.641165
vt 0.526475 0.641165
vt 0.533411 0.433112
vt 0.561157 0.433112
vt 0.561157 0.440087
vt 0.416965 0.981704
vt 0.397154 0.981704
vt 0.397154 0.851192
vt 0.416965 0.851192
vt 0.172818 0.963091
vt 0.153005 0.963091
vt 0.153005 0.832579
vt 0.172818 0.832579
vt 0.972706 0.670339
vt 0.952897 0.670339
vt 0.942446 0.951543
vt 0.922638 0.951543
vt 0.634139 0.979031
vt 0.554893 0.979031
vt 0.554893 0.848519
vt 0.634139 0.848519
vt 0.516024 0.659881
vt 0.366891 0.659881
vt 0.366891 0.359961
vt 0.516024 0.359961
vt 0.792432 0.005225
vt 0.792432 0.305152
vt 0.688660 0.305152
vt 0.688660 0.005232
vt 0.860895 0.570308
vt 0.860895 0.579670
vt 0.781660 0.579670
vt 0.781660 0.570308
vt 0.781660 0.641165
vt 0.872780 0.641165
vt 0.872780 0.359961
vt 0.781660 0.359961
vt 0.904453 0.135738
vt 0.904453 0.005225
vt 0.965948 0.005225
vt 0.965948 0.135738
vt 0.882117 0.066720
vt 0.802882 0.005225
vt 0.894002 0.005225
vt 0.882117 0.076082
vt 0.802882 0.066720
vt 0.894002 0.286429
vt 0.802882 0.286429
vt 0.802882 0.076082
vt 0.644590 0.979031
vt 0.644590 0.848519
vt 0.653951 0.848519
vt 0.653951 0.979031
vt 0.109022 0.840748
vt 0.005225 0.840748
vt 0.005225 0.691616
vt 0.109022 0.691616
vt 0.797950 0.880686
vt 0.667438 0.880686
vt 0.667438 0.670339
vt 0.797950 0.670339
vt 0.974364 0.490473
vt 0.883231 0.490473
vt 0.883231 0.359961
vt 0.974364 0.359961
vt 0.962485 0.631437
vt 0.883231 0.631437
vt 0.883231 0.500924
vt 0.962485 0.500924
vt 0.667438 0.659888
vt 0.667438 0.359961
vt 0.771209 0.359968
vt 0.771209 0.659888
vt 0.899543 0.960435
vt 0.808401 0.960435
vt 0.808401 0.829922
vt 0.899543 0.829922
vt 0.808401 0.670339
vt 0.912187 0.670339
vt 0.912187 0.819471
vt 0.808401 0.819471
vt 0.530097 0.981704
vt 0.530097 0.851192
vt 0.539459 0.851192
vt 0.539459 0.981704
vt 0.561906 0.057113
vt 0.678209 0.071401
vt 0.547697 0.071401
vt 0.547697 0.005225
vt 0.561906 0.019513
vt 0.664000 0.019513
vt 0.664000 0.057113
vt 0.678209 0.005226
vt 0.938669 0.146189
vt 0.938669 0.239094
vt 0.904453 0.239094
vt 0.904453 0.146189
vt 0.186086 0.953293
vt 0.186086 0.851199
vt 0.194032 0.855793
vt 0.194032 0.948699
vt 0.547697 0.334480
vt 0.547697 0.296880
vt 0.555736 0.298572
vt 0.555736 0.332788
vt 0.096403 0.948699
vt 0.088447 0.953293
vt 0.088447 0.851199
vt 0.096403 0.855794
vt 0.566187 0.334480
vt 0.566187 0.296880
vt 0.574227 0.298572
vt 0.574227 0.332787
vt 0.561906 0.272141
vt 0.678209 0.286429
vt 0.547697 0.286429
vt 0.561906 0.246846
vt 0.561906 0.229557
vt 0.561906 0.187560
vt 0.561906 0.170270
vt 0.561906 0.128273
vt 0.561906 0.110984
vt 0.561906 0.085689
vt 0.664000 0.085689
vt 0.664000 0.272141
vt 0.664000 0.246846
vt 0.664000 0.229557
vt 0.664000 0.187560
vt 0.664000 0.170270
vt 0.664000 0.128273
vt 0.664000 0.110984
vt 0.222860 0.851199
vt 0.230784 0.851199
vt 0.230784 0.953293
vt 0.222860 0.953293
vt 0.957044 0.146189
vt 0.957044 0.171483
vt 0.949120 0.171483
vt 0.949120 0.146189
vt 0.949120 0.230770
vt 0.957044 0.230770
vt 0.547697 0.349510
vt 0.547697 0.349510
vt 0.547697 0.349510
vt 0.949120 0.290056
vt 0.957044 0.290056
vt 0.558148 0.349510
vt 0.558148 0.349510
vt 0.558148 0.349510
vt 0.949120 0.332641
vt 0.957044 0.332641
vt 0.568599 0.349510
vt 0.568599 0.349510
vt 0.568599 0.349510
vt 0.212409 0.953293
vt 0.204483 0.953293
vt 0.204483 0.851199
vt 0.212409 0.851199
vt 0.656987 0.838068
vt 0.554893 0.838068
vt 0.554893 0.812773
vt 0.656987 0.812773
vt 0.554893 0.753486
vt 0.656987 0.753486
vt 0.554893 0.694200
vt 0.656987 0.694200
vt 0.554893 0.651616
vt 0.656987 0.651616
vt 0.991080 0.831496
vt 0.991080 0.856791
vt 0.983157 0.856791
vt 0.983157 0.831496
vt 0.991080 0.772210
vt 0.983157 0.772210
vt 0.991080 0.712923
vt 0.983157 0.712923
vt 0.540887 0.651616
vt 0.540887 0.651616
vt 0.540887 0.651616
vt 0.677984 0.342051
vt 0.677984 0.342051
vt 0.677984 0.342051
vt 0.991080 0.670339
vt 0.983157 0.670339
vt 0.778153 0.315603
vt 0.778153 0.315603
vt 0.778153 0.315603
vt 0.195396 0.650527
vt 0.335218 0.659888
vt 0.186086 0.659888
vt 0.186086 0.359961
vt 0.195396 0.369323
vt 0.325908 0.369323
vt 0.325908 0.650527
vt 0.335218 0.359961
vt 0.734913 0.343349
vt 0.734913 0.315603
vt 0.738876 0.315603
vt 0.738876 0.343349
vt 0.530436 0.651616
vt 0.530436 0.658591
vt 0.526475 0.658591
vt 0.526475 0.651616
vt 0.667533 0.335076
vt 0.667533 0.342051
vt 0.663572 0.342051
vt 0.663572 0.335076
vt 0.710049 0.343349
vt 0.706086 0.343349
vt 0.706086 0.315603
vt 0.710049 0.315603
vt 0.663572 0.324625
vt 0.663572 0.296880
vt 0.670546 0.296880
vt 0.670546 0.324625
vt 0.749327 0.343349
vt 0.749327 0.315603
vt 0.753289 0.315603
vt 0.753289 0.343349
vt 0.688660 0.343349
vt 0.688660 0.315603
vt 0.695635 0.315603
vt 0.695635 0.343349
vt 0.724462 0.343349
vt 0.720500 0.343349
vt 0.720500 0.315603
vt 0.724462 0.315603
vt 0.767702 0.315603
vt 0.767702 0.322578
vt 0.763740 0.322578
vt 0.763740 0.315603
vt 0.767702 0.333029
vt 0.767702 0.340004
vt 0.763740 0.340004
vt 0.763740 0.333029
vt 0.005225 0.953293
vt 0.005225 0.851199
vt 0.022515 0.851199
vt 0.022515 0.953293
vt 0.443267 0.953286
vt 0.427416 0.953286
vt 0.427416 0.851192
vt 0.451192 0.953286
vt 0.451192 0.851192
vt 0.778153 0.326054
vt 0.778153 0.326054
vt 0.778153 0.326054
vt 0.626823 0.324620
vt 0.626823 0.341910
vt 0.610976 0.341910
vt 0.610976 0.324620
vt 0.626823 0.296880
vt 0.626823 0.314169
vt 0.610976 0.314169
vt 0.610976 0.296880
vt 0.637274 0.314169
vt 0.637274 0.296880
vt 0.653121 0.296880
vt 0.653121 0.314169
vt 0.637274 0.341910
vt 0.637274 0.324620
vt 0.653121 0.324620
vt 0.653121 0.341910
vt 0.060706 0.953293
vt 0.060706 0.851199
vt 0.077996 0.851199
vt 0.077996 0.953293
vt 0.600525 0.296880
vt 0.600525 0.314169
vt 0.584678 0.314169
vt 0.584678 0.296880
vt 0.032966 0.953293
vt 0.032966 0.851199
vt 0.050255 0.851199
vt 0.050255 0.953293
vt 0.477494 0.953286
vt 0.461643 0.953286
vt 0.461643 0.851192
vt 0.485419 0.953286
vt 0.485419 0.851192
vt 0.778153 0.340004
vt 0.778153 0.340004
vt 0.778153 0.340004
vt 0.600525 0.324620
vt 0.600525 0.341910
vt 0.584678 0.341910
vt 0.584678 0.324620
vt 0.511721 0.953286
vt 0.495870 0.953286
vt 0.495870 0.851192
vt 0.519646 0.953286
vt 0.519646 0.851192
vt 0.781660 0.651616
vt 0.781660 0.651616
vt 0.781660 0.651616
vn 0.0000 -1.0000 -0.0000
vn 0.0000 1.0000 0.0000
vn 0.0000 0.0000 -1.0000
vn -1.0000 -0.0000 0.0000
vn 1.0000 0.0000 0.0000
vn 0.0000 -0.0000 1.0000
vn 0.0000 -1.0000 0.0001
vn 0.0000 -0.9718 0.2357
vn 0.8337 -0.0000 0.5522
vn 0.0000 0.9718 0.2357
vn -0.8337 0.0000 0.5522
s 1
f 1/1/1 2/2/1 3/3/1
f 3/3/1 4/4/1 1/1/1
f 5/5/2 6/6/2 7/7/2
f 7/7/2 8/8/2 5/5/2
f 9/9/1 10/10/1 11/11/1
f 11/11/1 12/12/1 9/9/1
f 1/13/3 4/14/3 11/15/3
f 11/15/3 10/16/3 1/13/3
f 11/17/4 4/18/4 3/19/4
f 11/17/4 3/19/4 13/20/4
f 11/17/4 13/20/4 14/21/4
f 14/21/4 12/22/4 11/17/4
f 9/23/5 15/24/5 16/25/5
f 16/25/5 10/26/5 9/23/5
f 16/25/5 1/27/5 10/26/5
f 16/25/5 2/28/5 1/27/5
f 3/29/6 2/30/6 16/31/6
f 16/31/6 13/32/6 3/29/6
f 17/33/4 6/34/4 5/35/4
f 5/35/4 18/36/4 17/33/4
f 7/37/3 9/38/3 12/39/3
f 12/39/3 14/40/3 7/37/3
f 14/40/3 19/41/3 7/37/3
f 14/40/3 17/42/3 19/41/3
f 9/38/3 7/37/3 6/43/3
f 6/43/3 15/44/3 9/38/3
f 6/43/3 17/42/3 15/44/3
f 17/42/3 14/40/3 15/44/3
f 16/45/2 15/46/2 14/47/2
f 14/47/2 13/48/2 16/45/2
f 7/49/5 19/50/5 20/51/5
f 20/51/5 8/52/5 7/49/5
f 17/53/1 18/54/1 20/55/1
f 20/55/1 19/56/1 17/53/1
f 44/57/2 53/58/2 54/59/2
f 54/59/2 48/60/2 44/57/2
f 55/61/1 43/62/1 42/63/1
f 42/63/1 56/64/1 55/61/1
f 57/65/3 55/66/3 56/67/3
f 56/67/3 54/68/3 57/65/3
f 54/68/3 58/69/3 57/65/3
f 54/68/3 59/70/3 58/69/3
f 55/66/3 57/65/3 60/71/3
f 60/71/3 53/72/3 55/66/3
f 60/71/3 59/70/3 53/72/3
f 59/70/3 54/68/3 53/72/3
f 54/73/4 56/74/4 42/75/4
f 42/75/4 48/76/4 54/73/4
f 55/77/5 53/78/5 44/79/5
f 44/79/5 43/80/5 55/77/5
f 65/81/3 66/82/3 67/83/3
f 67/83/3 56/67/3 65/81/3
f 56/67/3 68/84/3 65/81/3
f 56/67/3 69/85/3 68/84/3
f 66/82/3 65/81/3 70/86/3
f 70/86/3 55/66/3 66/82/3
f 70/86/3 69/85/3 55/66/3
f 69/85/3 56/67/3 55/66/3
f 43/87/2 55/88/2 56/89/2
f 56/89/2 42/90/2 43/87/2
f 66/91/1 71/92/1 72/93/1
f 72/93/1 67/94/1 66/91/1
f 66/95/5 55/77/5 43/80/5
f 43/80/5 71/96/5 66/95/5
f 56/74/4 67/97/4 72/98/4
f 72/98/4 42/75/4 56/74/4
f 21/99/2 22/100/2 23/101/2
f 23/101/2 24/102/2 21/99/2
f 25/103/6 26/104/6 27/105/6
f 27/105/6 28/106/6 25/103/6
f 5/107/5 18/108/5 27/109/5
f 27/109/5 26/110/5 5/107/5
f 29/111/5 23/112/5 24/113/5
f 24/113/5 30/114/5 29/111/5
f 31/115/5 24/113/5 23/112/5
f 32/116/5 31/115/5 23/112/5
f 23/112/5 33/117/5 32/116/5
f 33/117/5 23/112/5 29/111/5
f 29/111/5 34/118/5 33/117/5
f 29/111/5 30/114/5 34/118/5
f 21/119/3 24/120/3 31/121/3
f 31/121/3 35/122/3 21/119/3
f 22/123/4 35/124/4 36/125/4
f 36/125/4 37/126/4 22/123/4
f 22/123/4 21/127/4 35/124/4
f 37/126/4 36/125/4 38/128/4
f 38/128/4 39/129/4 37/126/4
f 39/129/4 40/130/4 37/126/4
f 22/123/4 37/126/4 40/130/4
f 40/130/4 21/127/4 22/123/4
f 37/131/3 29/132/3 23/133/3
f 23/133/3 22/134/3 37/131/3
f 5/135/7 26/136/7 25/137/7
f 25/137/7 8/138/7 5/135/7
f 39/139/3 34/140/3 30/141/3
f 30/141/3 40/142/3 39/139/3
f 39/143/2 38/144/2 33/145/2
f 33/145/2 34/146/2 39/143/2
f 37/147/1 40/148/1 30/149/1
f 30/149/1 29/150/1 37/147/1
f 20/151/4 8/152/4 25/153/4
f 25/153/4 28/154/4 20/151/4
f 36/155/1 35/156/1 31/157/1
f 31/157/1 32/158/1 36/155/1
f 27/159/2 18/160/2 20/161/2
f 20/161/2 28/162/2 27/159/2
f 30/163/6 40/164/6 21/165/6
f 21/165/6 24/166/6 30/163/6
f 41/167/6 42/168/6 43/169/6
f 43/169/6 44/170/6 41/167/6
f 44/170/6 45/171/6 41/167/6
f 44/170/6 46/172/6 45/171/6
f 42/168/6 41/167/6 47/173/6
f 47/173/6 48/174/6 42/168/6
f 47/173/6 46/172/6 48/174/6
f 46/172/6 44/170/6 48/174/6
f 49/175/6 50/176/6 51/177/6
f 51/177/6 52/178/6 49/175/6
f 47/179/8 41/180/8 50/181/8
f 50/181/8 49/182/8 47/179/8
f 41/183/9 45/184/9 51/185/9
f 51/185/9 50/186/9 41/183/9
f 51/187/10 45/188/10 46/189/10
f 46/189/10 52/190/10 51/187/10
f 46/191/11 47/192/11 49/193/11
f 49/193/11 52/194/11 46/191/11
f 73/195/6 72/196/6 71/197/6
f 71/197/6 43/169/6 73/195/6
f 43/169/6 74/198/6 73/195/6
f 43/169/6 75/199/6 74/198/6
f 43/169/6 76/200/6 75/199/6
f 43/169/6 77/201/6 76/200/6
f 43/169/6 78/202/6 77/201/6
f 43/169/6 79/203/6 78/202/6
f 43/169/6 80/204/6 79/203/6
f 43/169/6 81/205/6 80/204/6
f 72/196/6 73/195/6 82/206/6
f 82/206/6 42/168/6 72/196/6
f 81/205/6 43/169/6 42/168/6
f 82/206/6 83/207/6 42/168/6
f 83/207/6 84/208/6 42/168/6
f 84/208/6 85/209/6 42/168/6
f 85/209/6 86/210/6 42/168/6
f 86/210/6 87/211/6 42/168/6
f 87/211/6 88/212/6 42/168/6
f 88/212/6 81/205/6 42/168/6
f 73/213/2 89/214/2 90/215/2
f 90/215/2 82/216/2 73/213/2
f 90/217/5 91/218/5 83/219/5
f 83/219/5 82/220/5 90/217/5
f 85/221/5 83/219/5 91/218/5
f 91/218/5 92/222/5 85/221/5
f 85/223/5 84/224/2 83/225/5
f 87/226/5 85/221/5 92/222/5
f 92/222/5 93/227/5 87/226/5
f 87/228/5 86/229/5 85/230/5
f 81/231/5 87/226/5 93/227/5
f 93/227/5 94/232/5 81/231/5
f 81/233/5 88/234/2 87/235/5
f 95/236/1 80/237/1 81/238/1
f 81/238/1 94/239/1 95/236/1
f 90/240/6 89/241/6 96/242/6
f 96/242/6 91/243/6 90/240/6
f 91/243/6 96/242/6 97/244/6
f 97/244/6 92/245/6 91/243/6
f 92/245/6 97/244/6 98/246/6
f 98/246/6 93/247/6 92/245/6
f 93/247/6 98/246/6 95/248/6
f 95/248/6 94/249/6 93/247/6
f 96/250/4 89/251/4 73/252/4
f 73/252/4 74/253/4 96/250/4
f 97/254/4 96/250/4 74/253/4
f 74/253/4 76/255/4 97/254/4
f 98/256/4 97/254/4 76/255/4
f 76/255/4 78/257/4 98/256/4
f 76/258/4 77/259/4 78/260/4
f 74/261/4 75/262/1 76/263/4
f 95/264/4 98/256/4 78/257/4
f 78/257/4 80/265/4 95/264/4
f 78/266/4 79/267/1 80/268/4
f 33/269/3 5/270/3 8/271/3
f 8/271/3 20/272/3 33/269/3
f 20/272/3 32/273/3 33/269/3
f 20/272/3 36/274/3 32/273/3
f 5/270/3 33/269/3 38/275/3
f 38/275/3 18/276/3 5/270/3
f 38/275/3 36/274/3 18/276/3
f 36/274/3 20/272/3 18/276/3
f 58/277/2 59/278/2 61/279/2
f 61/279/2 62/280/2 58/277/2
f 62/281/4 63/282/4 57/283/4
f 57/283/4 58/284/4 62/281/4
f 64/285/5 61/286/5 59/287/5
f 59/287/5 60/288/5 64/285/5
f 64/289/1 60/290/1 57/291/1
f 57/291/1 63/292/1 64/289/1
f 64/293/3 63/294/3 62/295/3
f 62/295/3 61/296/3 64/293/3
f 68/297/2 69/298/2 99/299/2
f 99/299/2 100/300/2 68/297/2
f 101/301/3 102/302/3 100/303/3
f 100/303/3 99/304/3 101/301/3
f 101/305/1 70/306/1 65/307/1
f 65/307/1 102/308/1 101/305/1
f 100/309/4 102/310/4 65/311/4
f 65/311/4 68/312/4 100/309/4
f 101/313/5 99/314/5 69/315/5
f 69/315/5 70/316/5 101/313/5
f 103/317/6 104/318/6 105/319/6
f 105/319/6 106/320/6 103/317/6
f 74/321/1 104/322/1 103/323/1
f 103/323/1 96/324/1 74/321/1
f 103/323/1 91/325/1 96/324/1
f 103/326/1 83/327/1 91/328/1
f 74/329/5 75/330/5 105/331/5
f 105/331/5 104/332/5 74/329/5
f 84/333/4 83/334/4 103/335/4
f 103/335/4 106/336/4 84/333/4
f 78/337/5 79/338/5 107/339/5
f 107/339/5 108/340/5 78/337/5
f 88/341/4 87/342/4 109/343/4
f 109/343/4 110/344/4 88/341/4
f 109/345/6 108/346/6 107/347/6
f 107/347/6 110/348/6 109/345/6
f 86/349/4 85/350/4 111/351/4
f 111/351/4 112/352/4 86/349/4
f 111/353/6 113/354/6 114/355/6
f 114/355/6 112/356/6 111/353/6
f 76/357/1 113/358/1 111/359/1
f 111/359/1 97/360/1 76/357/1
f 111/359/1 92/361/1 97/360/1
f 111/362/1 85/363/1 92/364/1
f 76/365/5 77/366/5 114/367/5
f 114/367/5 113/368/5 76/365/5
f 78/369/1 108/370/1 109/371/1
f 109/371/1 98/372/1 78/369/1
f 109/371/1 93/373/1 98/372/1
f 109/374/1 87/375/1 93/376/1
