# Blender v2.92.0 OBJ File: 'OGConvert.blend'
# www.blender.org
o kitchenCabinet
v 0.000000 3.600000 3.600000
v 0.000000 3.600000 3.360000
v -3.440000 3.600000 3.360000
v -3.440000 3.600000 3.600000
v -3.440000 3.120000 3.600000
v 0.000000 3.120000 3.600000
v 0.000000 3.120000 0.000000
v 0.000000 3.120000 0.160000
v -3.440000 3.120000 0.160000
v -3.440000 3.120000 0.000000
v 0.000000 3.360000 3.360000
v 0.000000 3.360000 0.000000
v -3.440000 3.360000 0.000000
v -3.440000 3.360000 3.360000
v 0.000000 -0.000000 0.320000
v 0.000000 -0.000000 3.600000
v -3.440000 -0.000000 3.600000
v -3.440000 -0.000000 0.320000
v -0.214753 1.900344 3.200000
v -0.214753 1.900344 0.320000
v -3.225246 1.900344 0.320000
v -3.225246 1.900344 3.200000
v -0.214753 0.680688 3.200000
v -0.214753 0.680688 0.160000
v -3.225246 0.680688 3.200000
v -3.225246 2.905246 3.200000
v -0.214753 2.905246 3.200000
v -3.225246 2.905246 0.160000
v 0.000000 0.465935 0.160000
v 0.000000 0.465935 0.320000
v -3.440000 0.465935 0.320000
v -3.440000 0.465935 0.160000
v -3.225246 1.685590 0.320000
v -3.225246 1.685590 3.200000
v -0.214753 1.685590 3.200000
v -0.214753 1.685590 0.320000
v -3.225246 0.680688 0.320000
v -0.214753 0.680688 0.320000
v -0.214753 2.905246 0.320000
v -3.225246 2.905246 0.320000
v -3.225246 0.680688 0.160000
v -0.214753 2.905246 0.160000
v -2.862511 2.422511 0.160000
v -0.377489 0.843424 0.160000
v -3.062511 0.843424 0.160000
v -3.062511 2.742511 0.160000
v -2.862511 2.582511 0.160000
v -2.222511 2.582511 0.160000
v -2.222511 2.422511 0.160000
v -0.377489 2.742511 0.160000
v -2.222511 2.422511 0.000000
v -2.862511 2.422511 0.000000
v -2.862511 2.502511 0.000000
v -2.222511 2.502511 0.000000
v -2.862511 2.582511 0.080000
v -2.222511 2.582511 0.080000
vt 0.935637 0.003999
vt 0.953000 0.003999
vt 0.953000 0.252875
vt 0.935637 0.252875
vt 0.521325 0.307175
vt 0.272448 0.307175
vt 0.272448 0.272448
vt 0.521325 0.272448
vt 0.983057 0.778199
vt 0.971481 0.778199
vt 0.971481 0.529322
vt 0.983057 0.529322
vt 0.021362 0.495964
vt 0.021362 0.513328
vt 0.003999 0.513328
vt 0.003999 0.478601
vt 0.252875 0.478601
vt 0.264451 0.478601
vt 0.264451 0.495964
vt 0.289812 0.003999
vt 0.307175 0.003999
vt 0.307175 0.015574
vt 0.289812 0.247087
vt 0.307175 0.264451
vt 0.272448 0.247087
vt 0.272448 0.264451
vt 0.949347 0.521325
vt 0.949347 0.272448
vt 0.966711 0.272448
vt 0.966711 0.521325
vt 0.960998 0.252875
vt 0.960998 0.003999
vt 0.978361 0.003999
vt 0.978361 0.252875
vt 0.529322 0.272448
vt 0.772411 0.272448
vt 0.772411 0.521325
vt 0.529322 0.521325
vt 0.515537 0.587200
vt 0.515537 0.540898
vt 0.521325 0.540898
vt 0.521325 0.587200
vt 0.235692 0.824501
vt 0.224117 0.824501
vt 0.224117 0.778199
vt 0.235692 0.778199
vt 0.552473 0.237721
vt 0.552473 0.243509
vt 0.540898 0.243509
vt 0.546685 0.231933
vt 0.540898 0.231933
vt 0.243689 0.778199
vt 0.249477 0.778199
vt 0.249477 0.824501
vt 0.243689 0.824501
vt 0.552473 0.252875
vt 0.552473 0.258663
vt 0.546685 0.264451
vt 0.540898 0.252875
vt 0.540898 0.264451
vt 0.255265 0.778199
vt 0.255265 0.824501
vt 0.241300 0.252875
vt 0.003999 0.252875
vt 0.003999 0.003999
vt 0.241300 0.003999
vt 0.755122 0.529322
vt 0.963484 0.529322
vt 0.963484 0.747125
vt 0.755122 0.747125
vt 0.529322 0.749259
vt 0.529322 0.529322
vt 0.747125 0.529322
vt 0.747125 0.749260
vt 0.003999 0.996001
vt 0.003999 0.778199
vt 0.076701 0.778199
vt 0.076701 0.996001
vt 0.758700 0.003999
vt 0.758700 0.223936
vt 0.540898 0.223936
vt 0.540898 0.003999
vt 0.986284 0.521325
vt 0.974708 0.521325
vt 0.974708 0.272448
vt 0.986284 0.272448
vt 0.854937 0.015574
vt 0.766698 0.003999
vt 0.927640 0.003999
vt 0.927640 0.223936
vt 0.854937 0.223936
vt 0.839400 0.015574
vt 0.766698 0.223936
vt 0.839400 0.223936
vt 0.472461 0.789774
vt 0.472461 0.540898
vt 0.506171 0.540898
vt 0.506171 0.789774
vt 0.499191 0.027150
vt 0.532900 0.027150
vt 0.532900 0.264451
vt 0.499191 0.015574
vt 0.252875 0.286585
vt 0.241300 0.286585
vt 0.084698 0.996001
vt 0.084698 0.778199
vt 0.157401 0.778199
vt 0.157401 0.996001
vt 0.003999 0.521325
vt 0.252875 0.521325
vt 0.252875 0.770201
vt 0.003999 0.770201
vt 0.521325 0.532900
vt 0.272448 0.532900
vt 0.963484 0.972925
vt 0.755122 0.972925
vt 0.755122 0.755122
vt 0.963484 0.755122
vt 0.698261 0.975060
vt 0.698261 0.757257
vt 0.713798 0.757257
vt 0.713798 0.975060
vt 0.868648 0.284024
vt 0.780408 0.272448
vt 0.941350 0.272448
vt 0.941350 0.492386
vt 0.868648 0.492386
vt 0.853111 0.284024
vt 0.780408 0.492386
vt 0.853111 0.492386
vt 0.287985 0.556435
vt 0.272448 0.789774
vt 0.272448 0.540898
vt 0.464464 0.540898
vt 0.448927 0.556435
vt 0.448927 0.774237
vt 0.287985 0.774237
vt 0.464464 0.789774
vt 0.529322 0.975060
vt 0.529322 0.757257
vt 0.690264 0.757257
vt 0.690264 0.975060
vt 0.747125 0.975060
vt 0.735549 0.975060
vt 0.735549 0.757257
vt 0.747125 0.757257
vt 0.165398 0.778199
vt 0.176974 0.778199
vt 0.176974 0.996001
vt 0.165398 0.996001
vt 0.196547 0.778199
vt 0.196547 0.939141
vt 0.184971 0.939141
vt 0.184971 0.778199
vt 0.216119 0.778199
vt 0.216119 0.939141
vt 0.204544 0.939141
vt 0.204544 0.778199
vt 0.414002 0.582678
vt 0.299759 0.762464
vt 0.299759 0.568208
vt 0.437154 0.568208
vt 0.425578 0.582678
vt 0.425578 0.628980
vt 0.414002 0.628980
vt 0.437154 0.762464
vn 0.0000 1.0000 0.0000
vn 0.0000 0.0000 1.0000
vn 0.0000 -1.0000 0.0000
vn 1.0000 0.0000 0.0000
vn -1.0000 0.0000 0.0000
vn 0.0000 0.0000 -1.0000
vn 0.0000 0.7071 -0.7071
s 1
f 1/1/1 2/2/1 3/3/1
f 3/3/1 4/4/1 1/1/1
f 5/5/2 6/6/2 1/7/2
f 1/7/2 4/8/2 5/5/2
f 7/9/3 8/10/3 9/11/3
f 9/11/3 10/12/3 7/9/3
f 11/13/4 2/14/4 1/15/4
f 11/13/4 1/15/4 6/16/4
f 11/13/4 6/16/4 8/17/4
f 11/13/4 8/17/4 7/18/4
f 7/18/4 12/19/4 11/13/4
f 13/20/5 10/21/5 9/22/5
f 9/22/5 14/23/5 13/20/5
f 9/22/5 5/24/5 14/23/5
f 5/24/5 3/25/5 14/23/5
f 5/24/5 4/26/5 3/25/5
f 7/27/6 10/28/6 13/29/6
f 13/29/6 12/30/6 7/27/6
f 11/31/6 14/32/6 3/33/6
f 3/33/6 2/34/6 11/31/6
f 11/35/1 12/36/1 13/37/1
f 13/37/1 14/38/1 11/35/1
f 51/39/6 52/40/6 53/41/6
f 53/41/6 54/42/6 51/39/6
f 51/43/3 49/44/3 43/45/3
f 43/45/3 52/46/3 51/43/3
f 53/47/5 52/48/5 43/49/5
f 43/49/5 55/50/5 53/47/5
f 43/49/5 47/51/5 55/50/5
f 48/52/1 56/53/1 55/54/1
f 55/54/1 47/55/1 48/52/1
f 51/56/4 54/57/4 56/58/4
f 56/58/4 49/59/4 51/56/4
f 56/58/4 48/60/4 49/59/4
f 54/61/7 53/62/7 55/54/7
f 55/54/7 56/53/7 54/61/7
f 15/63/3 16/64/3 17/65/3
f 17/65/3 18/66/3 15/63/3
f 19/67/1 20/68/1 21/69/1
f 21/69/1 22/70/1 19/67/1
f 23/71/1 24/72/1 41/73/1
f 41/73/1 25/74/1 23/71/1
f 19/75/6 22/76/6 26/77/6
f 26/77/6 27/78/6 19/75/6
f 42/79/3 27/80/3 26/81/3
f 26/81/3 28/82/3 42/79/3
f 29/83/3 30/84/3 31/85/3
f 31/85/3 32/86/3 29/83/3
f 21/87/4 41/88/4 28/89/4
f 28/89/4 26/90/4 21/87/4
f 26/90/4 22/91/4 21/87/4
f 41/88/4 21/87/4 33/92/4
f 33/92/4 25/93/4 41/88/4
f 33/92/4 34/94/4 25/93/4
f 15/95/6 18/96/6 31/97/6
f 31/97/6 30/98/6 15/95/6
f 31/99/5 18/100/5 17/101/5
f 31/99/5 17/101/5 5/24/5
f 31/99/5 5/24/5 9/22/5
f 9/22/5 32/102/5 31/99/5
f 29/103/4 8/17/4 6/16/4
f 6/16/4 30/104/4 29/103/4
f 6/16/4 15/63/4 30/104/4
f 6/16/4 16/64/4 15/63/4
f 23/105/6 25/106/6 34/107/6
f 34/107/6 35/108/6 23/105/6
f 6/109/1 8/110/1 9/111/1
f 9/111/1 5/112/1 6/109/1
f 17/113/2 16/114/2 6/6/2
f 6/6/2 5/5/2 17/113/2
f 36/115/3 35/116/3 34/117/3
f 34/117/3 33/118/3 36/115/3
f 36/119/6 33/120/6 21/121/6
f 21/121/6 20/122/6 36/119/6
f 36/123/5 42/124/5 24/125/5
f 24/125/5 23/126/5 36/123/5
f 23/126/5 35/127/5 36/123/5
f 42/124/5 36/123/5 20/128/5
f 20/128/5 27/129/5 42/124/5
f 20/128/5 19/130/5 27/129/5
f 41/131/6 29/132/6 32/133/6
f 32/133/6 9/134/6 41/131/6
f 9/134/6 28/135/6 41/131/6
f 9/134/6 42/136/6 28/135/6
f 29/132/6 41/131/6 24/137/6
f 24/137/6 8/138/6 29/132/6
f 24/137/6 42/136/6 8/138/6
f 42/136/6 9/134/6 8/138/6
f 37/139/2 38/140/2 39/141/2
f 39/141/2 40/142/2 37/139/2
f 24/143/3 38/144/3 37/145/3
f 37/145/3 41/146/3 24/143/3
f 39/147/1 42/148/1 28/149/1
f 28/149/1 40/150/1 39/147/1
f 28/151/5 41/152/5 37/153/5
f 37/153/5 40/154/5 28/151/5
f 24/155/4 42/156/4 39/157/4
f 39/157/4 38/158/4 24/155/4
f 43/159/6 44/160/6 45/161/6
f 45/161/6 46/162/6 43/159/6
f 46/162/6 47/163/6 43/159/6
f 46/162/6 48/164/6 47/163/6
f 44/160/6 43/159/6 49/165/6
f 49/165/6 50/166/6 44/160/6
f 49/165/6 48/164/6 50/166/6
f 48/164/6 46/162/6 50/166/6
f 45/161/6 24/137/6 41/131/6
f 41/131/6 28/135/6 45/161/6
f 28/135/6 46/162/6 45/161/6
f 28/135/6 50/166/6 46/162/6
f 24/137/6 45/161/6 44/160/6
f 44/160/6 42/136/6 24/137/6
f 44/160/6 50/166/6 42/136/6
f 50/166/6 28/135/6 42/136/6
