# Blender v2.92.0 OBJ File: 'kenney_OGConvert.blend'
# www.blender.org
o lampRoundTable
v 0.000000 0.000000 0.000000
v 0.000000 -0.000000 0.120000
v -0.120000 -0.000000 0.120000
v -0.120000 0.000000 0.000000
v -0.052741 0.020000 0.052741
v -0.012000 0.020000 0.108000
v -0.012000 0.020000 0.012000
v -0.108000 0.020000 0.012000
v -0.067258 0.020000 0.052741
v -0.067258 0.020000 0.067259
v -0.052741 0.020000 0.067259
v -0.108000 0.020000 0.108000
v -0.050927 0.215000 0.069073
v -0.050927 0.215000 0.050927
v -0.069073 0.215000 0.050927
v -0.069073 0.215000 0.069073
v -0.060000 0.135750 0.104802
v -0.098799 0.135750 0.082401
v -0.098799 0.314250 0.082401
v -0.060000 0.314250 0.104802
v -0.021201 0.314250 0.037599
v -0.021201 0.135750 0.037599
v -0.021201 0.135750 0.082401
v -0.021201 0.314250 0.082401
v -0.098799 0.135750 0.037599
v -0.098799 0.314250 0.037599
v -0.060000 0.135750 0.015198
v -0.060000 0.314250 0.015198
v 0.016020 0.135750 0.103890
v -0.060000 0.135750 0.147780
v -0.136020 0.135750 0.103890
v 0.016020 0.135750 0.016110
v -0.060000 0.135750 -0.027780
v -0.136020 0.135750 0.016110
v -0.006026 0.314250 0.091162
v -0.006026 0.314250 0.028838
v -0.060000 0.314250 -0.002324
v -0.113974 0.314250 0.028838
v -0.060000 0.314250 0.122324
v -0.113974 0.314250 0.091162
vt 0.761405 0.003451
vt 0.761405 0.218703
vt 0.546153 0.218703
vt 0.546153 0.003451
vt 0.102572 0.729379
vt 0.003451 0.656298
vt 0.175653 0.656298
vt 0.175653 0.828500
vt 0.102572 0.755419
vt 0.076532 0.755419
vt 0.076532 0.729379
vt 0.003451 0.828500
vt 0.546153 0.258156
vt 0.546153 0.225606
vt 0.578704 0.225606
vt 0.578704 0.258156
vt 0.996549 0.914600
vt 0.972090 0.914387
vt 0.965975 0.564973
vt 0.996549 0.565239
vt 0.973414 0.353078
vt 0.948955 0.352865
vt 0.942840 0.003451
vt 0.973414 0.003717
vt 0.228330 0.858488
vt 0.228330 0.656298
vt 0.265068 0.683384
vt 0.265068 0.845136
vt 0.955817 0.564973
vt 0.959072 0.909675
vt 0.926522 0.909675
vt 0.929777 0.564973
vt 0.221427 0.656298
vt 0.221427 0.871550
vt 0.182555 0.850025
vt 0.182555 0.677823
vt 0.319815 0.663762
vt 0.319815 0.865952
vt 0.283077 0.838867
vt 0.283077 0.677115
vt 0.812332 0.356007
vt 0.851204 0.334482
vt 0.851204 0.549734
vt 0.812332 0.528209
vt 0.919619 0.909675
vt 0.887069 0.909675
vt 0.890324 0.564973
vt 0.916364 0.564973
vt 0.690958 0.884917
vt 0.611796 0.885457
vt 0.611796 0.565513
vt 0.690958 0.564973
vt 0.848672 0.003451
vt 0.848672 0.319465
vt 0.768308 0.319465
vt 0.768308 0.003451
vt 0.935938 0.003451
vt 0.935938 0.319465
vt 0.855574 0.319465
vt 0.855574 0.003451
vt 0.742530 0.887321
vt 0.742530 0.567377
vt 0.749433 0.564973
vt 0.801005 0.567377
vt 0.801005 0.887321
vt 0.749433 0.884917
vt 0.880167 0.566837
vt 0.880167 0.886781
vt 0.070216 0.120726
vt 0.003451 0.082180
vt 0.139813 0.003451
vt 0.139813 0.080544
vt 0.276174 0.082180
vt 0.209410 0.120726
vt 0.209410 0.201090
vt 0.070216 0.201090
vt 0.003451 0.239636
vt 0.139813 0.318365
vt 0.139813 0.241272
vt 0.276174 0.239636
vt 0.708613 0.526640
vt 0.805429 0.502174
vt 0.708613 0.558071
vt 0.611796 0.502174
vt 0.639015 0.486458
vt 0.611796 0.390379
vt 0.639015 0.406095
vt 0.708612 0.365913
vt 0.778209 0.486458
vt 0.805429 0.390379
vt 0.778210 0.406095
vt 0.708612 0.334482
vt 0.283077 0.006720
vt 0.438148 0.003451
vt 0.427058 0.325259
vt 0.316958 0.327580
vt 0.440534 0.656860
vt 0.283077 0.656860
vt 0.305908 0.334482
vt 0.417703 0.334482
vt 0.582062 0.334482
vt 0.604893 0.656860
vt 0.447436 0.656860
vt 0.470268 0.334482
vt 0.003451 0.328537
vt 0.158522 0.325267
vt 0.147433 0.647075
vt 0.037332 0.649396
vt 0.539251 0.006720
vt 0.498841 0.327580
vt 0.259625 0.328536
vt 0.219215 0.649396
vn -0.0000 -1.0000 -0.0000
vn -0.0000 1.0000 -0.0000
vn 0.0000 -0.0093 1.0000
vn 0.0000 -0.0093 -1.0000
vn -0.0000 0.5145 -0.8575
vn 1.0000 -0.0093 -0.0000
vn 0.8575 0.5145 -0.0000
vn 0.0000 0.5145 0.8575
vn -0.8575 0.5145 0.0000
vn -1.0000 -0.0093 0.0000
vn 0.5000 0.0000 -0.8660
vn -1.0000 0.0000 0.0000
vn 1.0000 -0.0000 -0.0000
vn -0.5000 0.0000 -0.8660
vn 0.5000 -0.0000 0.8660
vn -0.5000 -0.0000 0.8660
vn 0.4962 0.1226 -0.8595
vn 0.9925 0.1226 -0.0000
vn -0.9925 0.1226 0.0000
vn -0.4962 0.1226 0.8595
vn -0.4962 0.1226 -0.8595
vn 0.4962 0.1226 0.8595
s 1
f 1/1/1 2/2/1 3/3/1
f 3/3/1 4/4/1 1/1/1
f 5/5/2 6/6/2 7/7/2
f 7/7/2 8/8/2 5/5/2
f 8/8/2 9/9/2 5/5/2
f 8/8/2 10/10/2 9/9/2
f 6/6/2 5/5/2 11/11/2
f 11/11/2 12/12/2 6/6/2
f 11/11/2 10/10/2 12/12/2
f 10/10/2 8/8/2 12/12/2
f 13/13/2 14/14/2 15/15/2
f 15/15/2 16/16/2 13/13/2
f 10/17/3 11/18/3 13/19/3
f 13/19/3 16/20/3 10/17/3
f 5/21/4 9/22/4 15/23/4
f 15/23/4 14/24/4 5/21/4
f 1/25/5 4/26/5 8/27/5
f 8/27/5 7/28/5 1/25/5
f 5/29/6 14/30/6 13/31/6
f 13/31/6 11/32/6 5/29/6
f 2/33/7 1/34/7 7/35/7
f 7/35/7 6/36/7 2/33/7
f 3/37/8 2/38/8 6/39/8
f 6/39/8 12/40/8 3/37/8
f 8/41/9 4/42/9 3/43/9
f 3/43/9 12/44/9 8/41/9
f 16/45/10 15/46/10 9/47/10
f 9/47/10 10/48/10 16/45/10
f 17/49/11 18/50/11 19/51/11
f 19/51/11 20/52/11 17/49/11
f 21/53/12 22/54/12 23/55/12
f 23/55/12 24/56/12 21/53/12
f 25/57/13 26/58/13 19/59/13
f 19/59/13 18/60/13 25/57/13
f 23/61/14 17/49/14 20/52/14
f 20/52/14 24/62/14 23/61/14
f 25/63/15 27/64/15 28/65/15
f 28/65/15 26/66/15 25/63/15
f 27/64/16 22/67/16 21/68/16
f 21/68/16 28/65/16 27/64/16
f 23/69/1 29/70/1 30/71/1
f 30/71/1 17/72/1 23/69/1
f 30/71/1 31/73/1 17/72/1
f 31/73/1 18/74/1 17/72/1
f 31/73/1 25/75/1 18/74/1
f 29/70/1 23/69/1 22/76/1
f 32/77/1 29/70/1 22/76/1
f 22/76/1 33/78/1 32/77/1
f 22/76/1 27/79/1 33/78/1
f 27/79/1 34/80/1 33/78/1
f 27/79/1 25/75/1 34/80/1
f 25/75/1 31/73/1 34/80/1
f 21/81/2 35/82/2 36/83/2
f 36/83/2 37/84/2 21/81/2
f 37/84/2 28/85/2 21/81/2
f 37/84/2 38/86/2 28/85/2
f 38/86/2 26/87/2 28/85/2
f 38/86/2 19/88/2 26/87/2
f 35/82/2 21/81/2 24/89/2
f 24/89/2 39/90/2 35/82/2
f 24/89/2 20/91/2 39/90/2
f 20/91/2 19/88/2 39/90/2
f 19/88/2 40/92/2 39/90/2
f 19/88/2 38/86/2 40/92/2
f 32/93/17 33/94/17 37/95/17
f 37/95/17 36/96/17 32/93/17
f 29/97/18 32/98/18 36/99/18
f 36/99/18 35/100/18 29/97/18
f 38/101/19 34/102/19 31/103/19
f 31/103/19 40/104/19 38/101/19
f 31/105/20 30/106/20 39/107/20
f 39/107/20 40/108/20 31/105/20
f 33/94/21 34/109/21 38/110/21
f 38/110/21 37/95/21 33/94/21
f 30/106/22 29/111/22 35/112/22
f 35/112/22 39/107/22 30/106/22
