# Blender v2.92.0 OBJ File: 'OGConvert.blend'
# www.blender.org
o loungeSofa
v -7.118628 1.840000 0.160000
v -7.118628 2.640000 0.160000
v -7.118628 2.960000 0.480000
v -7.118628 1.840000 2.558629
v -7.118628 2.960000 2.558629
v -0.440686 2.960000 2.558629
v -0.440686 3.360000 2.558629
v -0.440686 3.360000 3.280000
v -0.440686 2.960000 3.280000
v -7.079314 3.680000 2.558629
v -7.399313 3.360000 2.558629
v -7.399313 3.360000 3.280000
v -7.079314 3.680000 3.280000
v -7.840000 2.960000 0.480000
v -7.399313 2.960000 2.558629
v -7.399313 2.960000 3.280000
v -7.840000 2.960000 3.280000
v -7.840000 2.640000 0.160000
v -0.760686 3.680000 3.280000
v -0.760686 3.680000 2.558629
v -7.840000 0.400000 0.160000
v -7.840000 0.400000 0.480000
v -7.840000 0.400000 2.960000
v -7.840000 0.400000 3.280000
v 0.000000 0.400000 0.160000
v 0.000000 2.640000 0.160000
v 0.000000 2.960000 0.480000
v 0.000000 0.400000 0.480000
v 0.000000 2.960000 3.280000
v -0.000000 0.400000 2.960000
v -0.000000 0.400000 3.280000
v -0.320000 0.400000 3.280000
v -7.520000 0.400000 3.280000
v -0.320000 0.400000 2.960000
v -7.520000 0.400000 0.480000
v -7.520000 0.400000 2.960000
v -7.520000 0.400000 0.160000
v -0.320000 0.400000 0.160000
v -0.320000 0.400000 0.480000
v -0.721372 1.840000 0.160000
v -0.721372 1.840000 0.000000
v -7.118628 1.840000 0.000000
v -0.721372 1.840000 2.558629
v -0.721372 1.158514 0.000000
v -7.118628 1.158514 0.000000
v -0.721372 1.158514 0.160000
v -7.118628 1.158514 0.160000
v -0.721372 2.640000 0.160000
v -0.721372 2.960000 0.480000
v -0.721372 2.960000 2.558629
v -7.520000 -0.000000 2.960000
v -7.520000 -0.000000 3.280000
v -7.840000 -0.000000 3.280000
v -7.840000 -0.000000 2.960000
v -7.520000 -0.000000 0.160000
v -7.840000 -0.000000 0.160000
v -0.000000 -0.000000 2.960000
v -0.320000 -0.000000 2.960000
v -0.000000 -0.000000 3.280000
v 0.000000 -0.000000 0.160000
v 0.000000 -0.000000 0.480000
v -0.320000 -0.000000 0.480000
v -0.320000 -0.000000 0.160000
v -7.520000 -0.000000 0.480000
v -7.840000 -0.000000 0.480000
v -0.320000 -0.000000 3.280000
vt 0.466930 0.589407
vt 0.525947 0.589407
vt 0.549554 0.613013
vt 0.466930 0.766356
vt 0.549554 0.766356
vt 0.466930 0.773717
vt 0.496439 0.773717
vt 0.496439 0.826933
vt 0.466930 0.826933
vt 0.556915 0.773717
vt 0.580521 0.773717
vt 0.580521 0.826933
vt 0.556915 0.826933
vt 0.865059 0.701336
vt 0.865059 0.547994
vt 0.918275 0.547994
vt 0.885766 0.701336
vt 0.885765 0.754553
vt 0.918275 0.754553
vt 0.865059 0.524387
vt 0.918275 0.524387
vt 0.925636 0.003680
vt 0.978853 0.003680
vt 0.978853 0.469813
vt 0.925636 0.469813
vt 0.264814 0.589407
vt 0.430061 0.589407
vt 0.430061 0.613014
vt 0.241207 0.613013
vt 0.430061 0.795966
vt 0.241207 0.819573
vt 0.430061 0.819573
vt 0.233846 0.618915
vt 0.233846 0.784162
vt 0.210240 0.807769
vt 0.210240 0.618915
vt 0.003680 0.807769
vt 0.027287 0.618915
vt 0.003680 0.618915
vt 0.270715 0.027287
vt 0.270715 0.003680
vt 0.459570 0.003680
vt 0.270715 0.558439
vt 0.459570 0.036190
vt 0.459570 0.582046
vt 0.270715 0.582046
vt 0.986213 0.549536
vt 0.986213 0.036190
vt 0.986213 0.003680
vt 0.865160 0.517026
vt 0.865160 0.003680
vt 0.894669 0.003680
vt 0.894669 0.517026
vt 0.918276 0.027287
vt 0.918276 0.493419
vt 0.210240 0.027287
vt 0.233846 0.027287
vt 0.233846 0.558439
vt 0.027287 0.558439
vt 0.658702 0.704676
vt 0.658702 0.704676
vt 0.658702 0.704676
vt 0.854917 0.665926
vt 0.831310 0.482974
vt 0.854917 0.482974
vt 0.831310 0.665926
vt 0.003680 0.558439
vt 0.003680 0.027287
vt 0.646899 0.704676
vt 0.646899 0.704676
vt 0.646899 0.704676
vt 0.854917 0.856239
vt 0.831311 0.856239
vt 0.831311 0.673287
vt 0.854917 0.673287
vt 0.845996 0.003680
vt 0.857800 0.003680
vt 0.857800 0.475613
vt 0.669047 0.003680
vt 0.669047 0.475613
vt 0.658702 0.712037
vt 0.658702 0.712037
vt 0.658702 0.712037
vt 0.925636 0.949106
vt 0.925636 0.477173
vt 0.975910 0.477173
vt 0.975910 0.949106
vt 0.823950 0.954907
vt 0.812146 0.954907
vt 0.812146 0.482974
vt 0.823950 0.482974
vt 0.658702 0.589407
vt 0.658702 0.639681
vt 0.646899 0.639681
vt 0.646899 0.589407
vt 0.658702 0.647041
vt 0.658702 0.697315
vt 0.646899 0.697315
vt 0.646899 0.647041
vt 0.632178 0.558439
vt 0.632178 0.582046
vt 0.466930 0.582046
vt 0.576221 0.528830
vt 0.525947 0.528830
vt 0.466930 0.528830
vt 0.576221 0.056897
vt 0.632178 0.003680
vt 0.003680 0.003680
vt 0.466930 0.003680
vt 0.525947 0.056897
vt 0.466930 0.056897
vt 0.865059 0.992079
vt 0.865059 0.785520
vt 0.918275 0.785520
vt 0.897569 0.938863
vt 0.918275 0.938863
vt 0.897569 0.992079
vt 0.865059 0.761913
vt 0.918275 0.761913
vt 0.580521 0.589407
vt 0.639538 0.589407
vt 0.639538 0.766356
vt 0.556915 0.613013
vt 0.556915 0.766356
vt 0.520045 0.773717
vt 0.520045 0.826933
vt 0.722162 0.975613
vt 0.722162 0.996320
vt 0.692654 0.996320
vt 0.722162 0.503680
vt 0.722162 0.482974
vt 0.692654 0.482974
vt 0.669047 0.972713
vt 0.669047 0.506581
vt 0.804786 0.503680
vt 0.804786 0.975613
vt 0.610030 0.773717
vt 0.610030 0.826933
vt 0.295781 0.850540
vt 0.272174 0.850540
vt 0.272174 0.826933
vt 0.295781 0.826933
vt 0.241207 0.582046
vt 0.241207 0.558439
vt 0.459570 0.795966
vt 0.459570 0.819573
vt 0.182124 0.844638
vt 0.158518 0.844638
vt 0.158518 0.815130
vt 0.182124 0.815130
vt 0.058255 0.815130
vt 0.058255 0.844638
vt 0.034648 0.844638
vt 0.034648 0.815130
vt 0.661686 0.558439
vt 0.661686 0.582046
vt 0.640997 0.803225
vt 0.617391 0.803225
vt 0.617391 0.773717
vt 0.640997 0.773717
vt 0.027287 0.589407
vt 0.003680 0.589407
vt 0.233846 0.589407
vt 0.210240 0.589407
vt 0.210240 0.565800
vt 0.233846 0.565800
vt 0.089222 0.815130
vt 0.089222 0.844638
vt 0.065615 0.844638
vt 0.065615 0.815130
vt 0.213092 0.844638
vt 0.189485 0.844638
vt 0.189485 0.815130
vt 0.213092 0.815130
vt 0.640997 0.840095
vt 0.617391 0.840095
vt 0.617391 0.810586
vt 0.640997 0.810586
vt 0.120190 0.815130
vt 0.120190 0.844638
vt 0.096583 0.844638
vt 0.096583 0.815130
vt 0.459570 0.589407
vt 0.459570 0.613014
vt 0.326749 0.850540
vt 0.303142 0.850540
vt 0.303142 0.826933
vt 0.326749 0.826933
vt 0.241207 0.027287
vt 0.241207 0.003680
vt 0.151157 0.815130
vt 0.151157 0.844638
vt 0.127550 0.844638
vt 0.127550 0.815130
vt 0.264814 0.850540
vt 0.241207 0.850540
vt 0.241207 0.826933
vt 0.264814 0.826933
vt 0.027287 0.844638
vt 0.003680 0.844638
vt 0.003680 0.815130
vt 0.027287 0.815130
vn 1.0000 0.0000 0.0000
vn -0.7071 0.7071 0.0000
vn 0.0000 1.0000 0.0000
vn 0.0000 0.7071 -0.7071
vn -1.0000 0.0000 0.0000
vn 0.0000 -0.0000 1.0000
vn 0.0000 -1.0000 -0.0000
vn -0.6484 -0.3242 -0.6888
vn -0.7599 -0.6500 -0.0000
vn -0.0000 0.0000 -1.0000
vn 0.7071 0.7071 0.0000
s 1
f 1/1/1 2/2/1 3/3/1
f 3/3/1 4/4/1 1/1/1
f 3/3/1 5/5/1 4/4/1
f 6/6/1 7/7/1 8/8/1
f 8/8/1 9/9/1 6/6/1
f 10/10/2 11/11/2 12/12/2
f 12/12/2 13/13/2 10/10/2
f 5/14/3 3/15/3 14/16/3
f 14/16/3 15/17/3 5/14/3
f 14/16/3 16/18/3 15/17/3
f 14/16/3 17/19/3 16/18/3
f 2/20/4 18/21/4 14/16/4
f 14/16/4 3/15/4 2/20/4
f 19/22/3 20/23/3 10/24/3
f 10/24/3 13/25/3 19/22/3
f 18/26/5 21/27/5 22/28/5
f 22/28/5 14/29/5 18/26/5
f 22/28/5 23/30/5 14/29/5
f 23/30/5 17/31/5 14/29/5
f 23/30/5 24/32/5 17/31/5
f 25/33/1 26/34/1 27/35/1
f 27/35/1 28/36/1 25/33/1
f 27/35/1 29/37/1 28/36/1
f 29/37/1 30/38/1 28/36/1
f 29/37/1 31/39/1 30/38/1
f 32/40/6 31/41/6 29/42/6
f 29/42/6 33/43/6 32/40/6
f 29/42/6 9/44/6 33/43/6
f 33/43/6 9/44/6 17/45/6
f 17/45/6 24/46/6 33/43/6
f 9/47/6 16/48/6 17/49/6
f 16/50/6 9/51/6 8/52/6
f 8/52/6 12/53/6 16/50/6
f 8/52/6 19/54/6 12/53/6
f 19/54/6 13/55/6 12/53/6
f 34/56/7 32/57/7 33/58/7
f 33/58/7 35/59/7 34/56/7
f 33/60/7 36/61/8 35/62/7
f 36/63/8 22/64/7 35/65/7
f 36/63/8 23/66/7 22/64/7
f 34/56/7 35/59/7 37/67/7
f 34/56/7 37/67/7 38/68/7
f 34/69/7 38/70/7 39/71/9
f 30/72/7 34/73/7 39/74/9
f 39/74/9 28/75/7 30/72/7
f 40/76/3 41/77/3 42/78/3
f 42/78/3 43/79/3 40/76/3
f 42/78/3 4/80/3 43/79/3
f 42/81/3 1/82/10 4/83/3
f 44/84/10 45/85/10 42/86/10
f 42/86/10 41/87/10 44/84/10
f 44/88/7 46/89/7 47/90/7
f 47/90/7 45/91/7 44/88/7
f 42/92/5 45/93/5 47/94/5
f 47/94/5 1/95/5 42/92/5
f 44/96/1 41/97/1 40/98/1
f 40/98/1 46/99/1 44/96/1
f 37/100/10 21/101/10 18/102/10
f 18/102/10 47/103/10 37/100/10
f 18/102/10 1/104/10 47/103/10
f 18/102/10 2/105/10 1/104/10
f 37/100/10 47/103/10 46/106/10
f 37/100/10 46/106/10 25/107/10
f 25/108/10 38/68/10 37/67/10
f 46/106/10 26/109/10 25/107/10
f 46/106/10 40/110/10 26/109/10
f 40/110/10 48/111/10 26/109/10
f 29/112/3 27/113/3 49/114/3
f 49/114/3 6/115/3 29/112/3
f 49/114/3 50/116/3 6/115/3
f 29/112/3 6/115/3 9/117/3
f 26/118/4 48/119/4 49/114/4
f 49/114/4 27/113/4 26/118/4
f 48/120/5 40/121/5 43/122/5
f 43/122/5 49/123/5 48/120/5
f 43/122/5 50/124/5 49/123/5
f 7/7/11 20/125/11 19/126/11
f 19/126/11 8/8/11 7/7/11
f 5/127/10 15/128/10 11/129/10
f 11/129/10 50/130/10 5/127/10
f 11/129/10 6/131/10 50/130/10
f 11/129/10 7/132/10 6/131/10
f 11/129/10 10/133/10 7/132/10
f 10/133/10 20/134/10 7/132/10
f 5/127/10 50/130/10 43/135/10
f 43/135/10 4/136/10 5/127/10
f 11/11/5 15/137/5 16/138/5
f 16/138/5 12/12/5 11/11/5
f 51/139/7 52/140/7 53/141/7
f 53/141/7 54/142/7 51/139/7
f 53/143/6 52/144/6 33/43/6
f 33/43/6 24/46/6 53/143/6
f 23/30/5 54/145/5 53/146/5
f 53/146/5 24/32/5 23/30/5
f 51/147/10 54/148/10 23/149/10
f 23/149/10 36/150/10 51/147/10
f 51/151/1 36/152/1 33/153/1
f 33/153/1 52/154/1 51/151/1
f 55/155/10 56/156/10 21/101/10
f 21/101/10 37/100/10 55/155/10
f 57/157/10 58/158/10 34/159/10
f 34/159/10 30/160/10 57/157/10
f 57/161/1 30/38/1 31/39/1
f 31/39/1 59/162/1 57/161/1
f 60/163/7 61/164/7 62/165/7
f 62/165/7 63/166/7 60/163/7
f 55/167/1 37/168/1 35/169/1
f 35/169/1 64/170/1 55/167/1
f 60/163/1 25/33/1 28/36/1
f 28/36/1 61/164/1 60/163/1
f 65/171/6 64/172/6 35/173/6
f 35/173/6 22/174/6 65/171/6
f 62/175/6 61/176/6 28/177/6
f 28/177/6 39/178/6 62/175/6
f 38/179/5 63/180/5 62/181/5
f 62/181/5 39/182/5 38/179/5
f 21/27/5 56/183/5 65/184/5
f 65/184/5 22/28/5 21/27/5
f 55/185/7 64/186/7 65/187/7
f 65/187/7 56/188/7 55/185/7
f 66/189/6 59/190/6 31/41/6
f 31/41/6 32/40/6 66/189/6
f 34/191/5 58/192/5 66/193/5
f 66/193/5 32/194/5 34/191/5
f 57/195/7 59/196/7 66/197/7
f 66/197/7 58/198/7 57/195/7
f 60/199/10 63/200/10 38/201/10
f 38/201/10 25/202/10 60/199/10
