# Blender v2.92.0 OBJ File: 'kenney_OGConvert.blend'
# www.blender.org
o sideTable
v -0.484475 0.050000 0.040000
v -0.484475 0.050000 0.160000
v -0.504475 0.050000 0.160000
v -0.504475 0.050000 0.040000
v -0.474475 0.000000 0.000000
v -0.474475 -0.000000 0.040000
v -0.514476 -0.000000 0.040000
v -0.514476 0.000000 0.000000
v -0.514476 0.324407 0.160000
v -0.514476 -0.000000 0.160000
v -0.514475 -0.000000 0.200000
v -0.514475 0.354407 0.200000
v -0.514476 0.324407 0.040000
v -0.514476 0.354407 0.000000
v -0.474475 0.324407 0.040000
v -0.474475 0.324407 0.160000
v -0.474475 0.324407 0.000000
v -0.474475 0.324407 0.200000
v -0.040000 0.324407 0.000000
v -0.040000 0.324407 0.040000
v -0.040000 0.324407 0.160000
v -0.040000 0.324407 0.200000
v 0.000000 0.324407 0.040000
v 0.000000 0.324407 0.160000
v 0.000000 0.354407 0.000000
v 0.000000 0.000000 0.000000
v -0.040000 0.000000 0.000000
v 0.000000 -0.000000 0.160000
v 0.000000 -0.000000 0.200000
v -0.040000 -0.000000 0.200000
v -0.040000 -0.000000 0.160000
v 0.000000 -0.000000 0.040000
v -0.040000 -0.000000 0.040000
v -0.474475 -0.000000 0.160000
v -0.474475 -0.000000 0.200000
v -0.010000 0.070000 0.160000
v -0.010000 0.070000 0.040000
v -0.030000 0.070000 0.040000
v -0.030000 0.070000 0.160000
v 0.010000 0.384408 0.210000
v 0.010000 0.384408 -0.010000
v -0.524476 0.384408 -0.010000
v -0.524475 0.384408 0.210000
v 0.000000 0.354407 0.200000
v 0.010000 0.354407 -0.010000
v -0.524476 0.354407 -0.010000
v 0.010000 0.354407 0.210000
v -0.524475 0.354407 0.210000
v -0.010000 0.050000 0.040000
v -0.010000 0.050000 0.160000
v -0.030000 0.050000 0.160000
v -0.030000 0.050000 0.040000
v -0.484475 0.070000 0.040000
v -0.484475 0.070000 0.160000
v -0.504475 0.070000 0.160000
v -0.504475 0.070000 0.040000
vt 0.559406 0.805167
vt 0.559406 0.897012
vt 0.544098 0.897012
vt 0.544098 0.805167
vt 0.274581 0.637735
vt 0.305196 0.637735
vt 0.305196 0.668350
vt 0.274581 0.668350
vt 0.125786 0.923295
vt 0.125786 0.675000
vt 0.156401 0.675000
vt 0.156401 0.946256
vt 0.033940 0.923295
vt 0.003325 0.946256
vt 0.033940 0.675000
vt 0.003325 0.675000
vt 0.874214 0.773548
vt 0.874214 0.865394
vt 0.843599 0.865394
vt 0.843599 0.773548
vt 0.386646 0.675000
vt 0.386646 0.675000
vt 0.386646 0.675000
vt 0.386646 0.675000
vt 0.937451 0.766898
vt 0.784375 0.766898
vt 0.784375 0.434360
vt 0.814990 0.434360
vt 0.906836 0.434360
vt 0.937451 0.434360
vt 0.814990 0.403744
vt 0.906836 0.403744
vt 0.003325 0.668350
vt 0.026287 0.637735
vt 0.026287 0.305196
vt 0.003325 0.274581
vt 0.274581 0.274581
vt 0.274581 0.305196
vt 0.397042 0.274581
vt 0.427657 0.274581
vt 0.427657 0.305196
vt 0.397042 0.305196
vt 0.305196 0.274581
vt 0.305196 0.305196
vt 0.379995 0.675000
vt 0.379995 0.923295
vt 0.349380 0.923295
vt 0.349380 0.675000
vt 0.305464 0.675000
vt 0.305464 0.923295
vt 0.274849 0.923295
vt 0.274849 0.675000
vt 0.639956 0.850086
vt 0.609341 0.850086
vt 0.609341 0.819471
vt 0.639956 0.819471
vt 0.500182 0.897012
vt 0.500182 0.805167
vt 0.515489 0.805167
vt 0.515489 0.897012
vt 0.609341 0.403744
vt 0.777725 0.403744
vt 0.777725 0.812821
vt 0.609341 0.812821
vt 0.305196 0.026287
vt 0.274581 0.003325
vt 0.427657 0.003325
vt 0.397042 0.026287
vt 0.944101 0.812821
vt 0.944101 0.403744
vt 0.967063 0.403744
vt 0.967063 0.812821
vt 0.784375 0.773548
vt 0.807337 0.773548
vt 0.807337 0.941932
vt 0.784375 0.941932
vt 0.595037 0.397094
vt 0.434307 0.389440
vt 0.602691 0.389440
vt 0.602691 0.798516
vt 0.595037 0.790863
vt 0.441961 0.790863
vt 0.441961 0.397094
vt 0.434307 0.798516
vt 0.813987 0.773548
vt 0.836949 0.773548
vt 0.836949 0.941932
vt 0.813987 0.941932
vt 0.973713 0.812821
vt 0.973713 0.403744
vt 0.996675 0.403744
vt 0.996675 0.812821
vt 0.537448 0.805167
vt 0.537448 0.897012
vt 0.522140 0.897012
vt 0.522140 0.805167
vt 0.880865 0.773548
vt 0.896172 0.773548
vt 0.896172 0.865394
vt 0.880865 0.865394
vt 0.894902 0.213351
vt 0.917863 0.251620
vt 0.887248 0.251620
vt 0.887248 0.003325
vt 0.894902 0.198043
vt 0.910209 0.198043
vt 0.910209 0.213351
vt 0.917863 0.003325
vt 0.566056 0.897012
vt 0.566056 0.805167
vt 0.581364 0.805167
vt 0.581364 0.897012
vt 0.456266 0.805167
vt 0.471573 0.805167
vt 0.471573 0.897012
vt 0.456266 0.897012
vt 0.170705 0.885026
vt 0.193667 0.923295
vt 0.163052 0.923295
vt 0.163052 0.675000
vt 0.170705 0.869718
vt 0.186013 0.869718
vt 0.186013 0.885026
vt 0.193667 0.675000
vt 0.427657 0.675000
vt 0.427657 0.923295
vt 0.397042 0.923295
vt 0.397042 0.675000
vt 0.609341 0.033940
vt 0.609341 0.003325
vt 0.880597 0.003325
vt 0.857636 0.033940
vt 0.857636 0.366479
vt 0.880597 0.397094
vt 0.609341 0.397094
vt 0.609341 0.366479
vt 0.342729 0.675000
vt 0.342729 0.923295
vt 0.312114 0.923295
vt 0.312114 0.675000
vt 0.478224 0.805167
vt 0.493531 0.805167
vt 0.493531 0.897012
vt 0.478224 0.897012
vt 0.245237 0.885026
vt 0.268198 0.923295
vt 0.237583 0.923295
vt 0.237583 0.675000
vt 0.245237 0.869718
vt 0.260544 0.869718
vt 0.260544 0.885026
vt 0.268198 0.675000
vt 0.434307 0.805167
vt 0.449615 0.805167
vt 0.449615 0.897012
vt 0.434307 0.897012
vt 0.207971 0.885026
vt 0.230932 0.923295
vt 0.200317 0.923295
vt 0.200317 0.675000
vt 0.207971 0.869718
vt 0.223279 0.869718
vt 0.223279 0.885026
vt 0.230932 0.675000
vt 0.441961 0.003325
vt 0.595037 0.003325
vn 0.0000 -1.0000 -0.0000
vn -1.0000 0.0000 0.0000
vn 0.0000 -0.2482 -0.9687
vn -0.0000 0.0000 -1.0000
vn 1.0000 -0.0000 0.0000
vn 0.0000 1.0000 0.0000
vn 0.0000 0.0000 1.0000
s 1
f 1/1/1 2/2/1 3/3/1
f 3/3/1 4/4/1 1/1/1
f 5/5/1 6/6/1 7/7/1
f 7/7/1 8/8/1 5/5/1
f 9/9/2 10/10/2 11/11/2
f 9/9/2 11/11/2 12/12/2
f 13/13/2 9/9/2 12/12/2
f 13/13/2 12/12/2 14/14/2
f 7/15/2 13/13/2 14/14/2
f 14/14/2 8/16/2 7/15/2
f 15/17/3 16/18/1 9/19/1
f 9/19/1 13/20/1 15/17/3
f 16/21/1 15/22/3 17/23/1
f 18/24/1 16/21/1 17/23/1
f 18/25/1 17/26/1 19/27/1
f 18/25/1 19/27/1 20/28/1
f 18/25/1 20/28/1 21/29/1
f 21/29/1 22/30/1 18/25/1
f 21/29/1 20/28/1 23/31/1
f 23/31/1 24/32/1 21/29/1
f 5/5/4 8/8/4 14/33/4
f 14/33/4 17/34/4 5/5/4
f 14/33/4 19/35/4 17/34/4
f 19/35/4 14/33/4 25/36/4
f 19/35/4 25/36/4 26/37/4
f 26/37/4 27/38/4 19/35/4
f 28/39/1 29/40/1 30/41/1
f 30/41/1 31/42/1 28/39/1
f 26/37/1 32/43/1 33/44/1
f 33/44/1 27/38/1 26/37/1
f 21/45/2 31/46/2 30/47/2
f 30/47/2 22/48/2 21/45/2
f 5/49/5 17/50/5 15/51/5
f 15/51/5 6/52/5 5/49/5
f 34/53/1 35/54/1 11/55/1
f 11/55/1 10/56/1 34/53/1
f 36/57/6 37/58/6 38/59/6
f 38/59/6 39/60/6 36/57/6
f 40/61/6 41/62/6 42/63/6
f 42/63/6 43/64/6 40/61/6
f 26/37/5 23/65/5 32/43/5
f 23/65/5 26/37/5 25/66/5
f 25/66/5 44/67/5 23/65/5
f 44/67/5 24/68/5 23/65/5
f 44/67/5 28/39/5 24/68/5
f 44/67/5 29/40/5 28/39/5
f 45/69/4 46/70/4 42/71/4
f 42/71/4 41/72/4 45/69/4
f 45/73/5 41/74/5 40/75/5
f 40/75/5 47/76/5 45/73/5
f 44/77/1 45/78/1 47/79/1
f 47/79/1 48/80/1 44/77/1
f 48/80/1 12/81/1 44/77/1
f 48/80/1 14/82/1 12/81/1
f 45/78/1 44/77/1 25/83/1
f 25/83/1 46/84/1 45/78/1
f 25/83/1 14/82/1 46/84/1
f 14/82/1 48/80/1 46/84/1
f 42/85/2 46/86/2 48/87/2
f 48/87/2 43/88/2 42/85/2
f 48/89/7 47/90/7 40/91/7
f 40/91/7 43/92/7 48/89/7
f 49/93/1 50/94/1 51/95/1
f 51/95/1 52/96/1 49/93/1
f 1/97/5 53/98/5 54/99/5
f 54/99/5 2/100/5 1/97/5
f 3/101/4 34/102/4 10/103/4
f 10/103/4 9/104/4 3/101/4
f 9/104/4 55/105/4 3/101/4
f 9/104/4 54/106/4 55/105/4
f 34/102/4 3/101/4 2/107/4
f 2/107/4 16/108/4 34/102/4
f 2/107/4 54/106/4 16/108/4
f 54/106/4 9/104/4 16/108/4
f 54/109/6 53/110/6 56/111/6
f 56/111/6 55/112/6 54/109/6
f 56/113/2 4/114/2 3/115/2
f 3/115/2 55/116/2 56/113/2
f 1/117/7 7/118/7 6/119/7
f 6/119/7 15/120/7 1/117/7
f 15/120/7 53/121/7 1/117/7
f 15/120/7 56/122/7 53/121/7
f 7/118/7 1/117/7 4/123/7
f 4/123/7 13/124/7 7/118/7
f 4/123/7 56/122/7 13/124/7
f 56/122/7 15/120/7 13/124/7
f 34/125/5 16/126/5 18/127/5
f 18/127/5 35/128/5 34/125/5
f 30/129/7 29/130/7 44/131/7
f 44/131/7 22/132/7 30/129/7
f 44/131/7 18/133/7 22/132/7
f 18/133/7 44/131/7 12/134/7
f 18/133/7 12/134/7 11/135/7
f 11/135/7 35/136/7 18/133/7
f 19/137/2 27/138/2 33/139/2
f 33/139/2 20/140/2 19/137/2
f 38/141/2 52/142/2 51/143/2
f 51/143/2 39/144/2 38/141/2
f 51/145/4 28/146/4 31/147/4
f 31/147/4 21/148/4 51/145/4
f 21/148/4 39/149/4 51/145/4
f 21/148/4 36/150/4 39/149/4
f 28/146/4 51/145/4 50/151/4
f 50/151/4 24/152/4 28/146/4
f 50/151/4 36/150/4 24/152/4
f 36/150/4 21/148/4 24/152/4
f 49/153/5 37/154/5 36/155/5
f 36/155/5 50/156/5 49/153/5
f 49/157/7 33/158/7 32/159/7
f 32/159/7 23/160/7 49/157/7
f 23/160/7 37/161/7 49/157/7
f 23/160/7 38/162/7 37/161/7
f 33/158/7 49/157/7 52/163/7
f 52/163/7 20/164/7 33/158/7
f 52/163/7 38/162/7 20/164/7
f 38/162/7 23/160/7 20/164/7
f 44/77/6 25/83/6 14/165/6
f 14/165/6 12/166/6 44/77/6
