# Blender v2.92.0 OBJ File: 'kenney_OGConvert.blend'
# www.blender.org
o tableCloth
v -0.048503 0.097007 0.197900
v -0.048503 0.048503 0.197900
v -0.792984 0.048503 0.197900
v -0.792984 0.097007 0.197900
v -0.792984 0.097007 0.249473
v -0.792984 0.048503 0.249473
v -0.048503 0.048503 0.249473
v -0.048503 0.097007 0.249473
v -0.048503 0.278230 0.395800
v -0.048503 0.278230 0.447373
v -0.147007 0.278230 0.447373
v -0.147007 0.278230 0.000000
v -0.048503 0.278230 0.000000
v -0.048503 0.278230 0.051573
v 0.000000 0.278230 0.395800
v 0.000000 0.278230 0.051573
v -0.694480 0.278230 0.447373
v -0.694480 0.278230 0.000000
v -0.792984 0.278230 0.447373
v -0.792984 0.278230 0.395800
v -0.792984 0.278230 0.000000
v -0.792984 0.278230 0.051573
v -0.841488 0.278230 0.395800
v -0.841488 0.278230 0.051574
v -0.024252 0.048503 0.051573
v -0.024252 0.048503 0.395800
v -0.048503 0.048503 0.395800
v -0.048503 0.048503 0.051573
v -0.817236 0.048503 0.395800
v -0.792984 0.048503 0.395800
v -0.817236 0.048503 0.051573
v -0.792984 0.048503 0.051573
v -0.024252 0.097007 0.395800
v -0.024252 0.097007 0.051573
v -0.048503 0.097007 0.051573
v -0.048503 0.097007 0.395800
v -0.817236 0.097007 0.395800
v -0.792984 0.097007 0.395800
v -0.817236 0.097007 0.051573
v -0.792984 0.097007 0.051573
v -0.792984 0.000000 0.000000
v -0.792984 -0.000000 0.051573
v -0.841488 -0.000000 0.395800
v -0.841488 -0.000000 0.447373
v -0.841488 0.326734 0.447373
v -0.841488 0.326734 0.000000
v -0.841488 -0.000000 0.051573
v -0.841488 0.000000 0.000000
v -0.792984 -0.000000 0.447373
v -0.792984 -0.000000 0.395800
v -0.000000 0.000000 0.000000
v 0.000000 -0.000000 0.051573
v -0.048503 -0.000000 0.051573
v -0.048503 -0.000000 0.000000
v 0.000000 -0.000000 0.395800
v 0.000000 -0.000000 0.447373
v -0.048503 -0.000000 0.447373
v -0.048503 -0.000000 0.395800
v -0.694480 0.326734 0.447373
v -0.000000 0.326734 0.000000
v 0.000000 0.326734 0.447373
v -0.694480 0.326734 0.000000
v -0.147007 0.326734 0.447373
v -0.147007 0.326734 0.000000
v -0.147007 0.229727 0.000000
v -0.694480 0.229727 0.000000
v -0.147007 0.229727 0.447373
v -0.694480 0.229727 0.447373
vt 0.273384 0.967107
vt 0.244153 0.967107
vt 0.244153 0.518445
vt 0.273384 0.518445
vt 0.525157 0.937877
vt 0.495927 0.937877
vt 0.495927 0.489214
vt 0.525157 0.489214
vt 0.312012 0.481667
vt 0.280931 0.481667
vt 0.280931 0.422303
vt 0.550541 0.422303
vt 0.550541 0.481667
vt 0.233863 0.518445
vt 0.233863 0.518445
vt 0.233863 0.518445
vt 0.996226 0.211222
vt 0.966996 0.211222
vt 0.966996 0.003773
vt 0.996226 0.003773
vt 0.280931 0.092368
vt 0.550541 0.092368
vt 0.280931 0.033004
vt 0.312012 0.033004
vt 0.550541 0.033004
vt 0.519460 0.033004
vt 0.312012 0.003774
vt 0.519460 0.003774
vt 0.488380 0.967107
vt 0.280931 0.967107
vt 0.280931 0.952492
vt 0.369115 0.952492
vt 0.400196 0.952492
vt 0.488380 0.952492
vt 0.400196 0.503829
vt 0.369115 0.503829
vt 0.280931 0.489214
vt 0.280931 0.503829
vt 0.488380 0.489214
vt 0.488380 0.503829
vt 0.535926 0.696663
vt 0.535926 0.489214
vt 0.550541 0.489214
vt 0.550541 0.696663
vt 0.226316 0.525992
vt 0.226316 0.525992
vt 0.226316 0.525992
vt 0.218769 0.637709
vt 0.218769 0.606629
vt 0.218769 0.518445
vt 0.123038 0.518445
vt 0.123038 0.967107
vt 0.091958 0.518445
vt 0.091958 0.967107
vt 0.003773 0.981723
vt 0.003773 0.967107
vt 0.211222 0.981723
vt 0.211222 0.967107
vt 0.715981 0.795602
vt 0.715981 0.963278
vt 0.684900 0.963278
vt 0.684900 0.795602
vt 0.233863 0.525992
vt 0.233863 0.525992
vt 0.233863 0.525992
vt 0.233863 0.525992
vt 0.977511 0.795602
vt 0.977511 0.883786
vt 0.948280 0.795602
vt 0.948280 0.883786
vt 0.587319 0.756974
vt 0.754995 0.756974
vt 0.754995 0.788055
vt 0.558088 0.788055
vt 0.587319 0.549525
vt 0.558088 0.518445
vt 0.754995 0.549525
vt 0.754995 0.518445
vt 0.589169 0.854063
vt 0.589169 0.963278
vt 0.558088 0.963278
vt 0.589169 0.824833
vt 0.558088 0.795602
vt 0.589169 0.795602
vt 0.677353 0.824833
vt 0.677353 0.854063
vt 0.996226 0.648761
vt 0.996226 0.679842
vt 0.966996 0.679842
vt 0.966996 0.648761
vt 0.966996 0.426218
vt 0.966996 0.218769
vt 0.996226 0.218769
vt 0.996226 0.426218
vt 0.525157 0.945424
vt 0.525157 0.976504
vt 0.495927 0.976504
vt 0.495927 0.945424
vt 0.889340 0.934047
vt 0.903956 0.963278
vt 0.874725 0.963278
vt 0.874725 0.795602
vt 0.889340 0.904817
vt 0.903956 0.904817
vt 0.903956 0.795602
vt 0.903956 0.934047
vt 0.966996 0.433765
vt 0.996226 0.433765
vt 0.996226 0.641214
vt 0.966996 0.641214
vt 0.977511 0.891333
vt 0.977511 0.922414
vt 0.948280 0.922414
vt 0.948280 0.891333
vt 0.867178 0.934047
vt 0.867178 0.963278
vt 0.837947 0.963278
vt 0.852563 0.934047
vt 0.837947 0.795602
vt 0.852563 0.904817
vt 0.867178 0.795602
vt 0.867178 0.904817
vt 0.940733 0.963278
vt 0.911503 0.963278
vt 0.911503 0.934047
vt 0.926118 0.934047
vt 0.940733 0.795602
vt 0.926118 0.904817
vt 0.911503 0.904817
vt 0.911503 0.795602
vt 0.830400 0.963278
vt 0.801170 0.963278
vt 0.801170 0.934047
vt 0.815785 0.934047
vt 0.830400 0.795602
vt 0.815785 0.904817
vt 0.801170 0.904817
vt 0.801170 0.795602
vt 0.488380 0.923261
vt 0.400196 0.923261
vt 0.226316 0.533539
vt 0.226316 0.533539
vt 0.226316 0.533539
vt 0.226316 0.533539
vt 0.723528 0.963278
vt 0.723528 0.795602
vt 0.754608 0.795602
vt 0.754608 0.963278
vt 0.977511 0.929961
vt 0.977511 0.961041
vt 0.948280 0.961041
vt 0.948280 0.929961
vt 0.280931 0.923261
vt 0.369115 0.923261
vt 0.226316 0.518445
vt 0.226316 0.518445
vt 0.226316 0.518445
vt 0.233863 0.533539
vt 0.233863 0.533539
vt 0.233863 0.533539
vt 0.793623 0.963278
vt 0.762542 0.963278
vt 0.793623 0.795602
vt 0.762542 0.795602
vt 0.558088 0.510898
vt 0.558088 0.481667
vt 0.725764 0.481667
vt 0.754995 0.510898
vt 0.725764 0.422303
vt 0.754995 0.422303
vt 0.930218 0.549525
vt 0.959449 0.518445
vt 0.959449 0.788055
vt 0.930218 0.756974
vt 0.762542 0.756974
vt 0.762542 0.788055
vt 0.762542 0.549525
vt 0.762542 0.518445
vt 0.273384 0.003774
vt 0.273384 0.092368
vt 0.003773 0.092368
vt 0.003774 0.003774
vt 0.762542 0.033004
vt 0.762542 0.003774
vt 0.959449 0.003774
vt 0.930218 0.033004
vt 0.959449 0.092368
vt 0.930218 0.092368
vt 0.273384 0.422303
vt 0.273384 0.510898
vt 0.003773 0.510898
vt 0.003773 0.422303
vt 0.762542 0.510898
vt 0.762542 0.481667
vt 0.930218 0.481667
vt 0.959449 0.510898
vt 0.930218 0.422303
vt 0.959449 0.422303
vt 0.725764 0.033004
vt 0.558088 0.033004
vt 0.558088 0.003773
vt 0.754995 0.003773
vt 0.754995 0.092368
vt 0.725764 0.092368
vt 0.900987 0.422303
vt 0.900987 0.092368
vt 0.696534 0.092368
vt 0.696534 0.422303
vn -0.0000 0.0000 -1.0000
vn 0.0000 -0.0000 1.0000
vn -0.0000 -1.0000 -0.0000
vn 0.6432 -0.7657 -0.0000
vn -0.2031 0.9792 -0.0000
vn 0.0000 1.0000 0.0000
vn -0.0342 0.2508 -0.9674
vn -0.6737 -0.7390 0.0000
vn 1.0000 0.0000 0.0000
vn -0.2249 0.8438 0.4872
vn -0.0599 -0.0000 -0.9982
vn -1.0000 0.0000 0.0000
vn -0.0599 0.8645 0.4991
vn -0.2249 -0.0000 -0.9744
vn -1.0000 0.0000 -0.0005
vn 0.6766 0.0000 -0.7364
vn -0.5888 -0.0000 -0.8083
s 1
f 1/1/1 2/2/1 3/3/1
f 3/3/1 4/4/1 1/1/1
f 5/5/2 6/6/2 7/7/2
f 7/7/2 8/8/2 5/5/2
f 9/9/3 10/10/3 11/11/3
f 9/9/3 11/11/3 12/12/3
f 9/9/3 12/12/3 13/13/3
f 9/14/3 13/15/3 14/16/4
f 15/17/3 9/18/3 14/19/4
f 14/19/4 16/20/3 15/17/3
f 11/11/3 17/21/3 12/12/3
f 17/21/3 18/22/3 12/12/3
f 17/21/3 19/23/3 18/22/3
f 19/23/3 20/24/3 18/22/3
f 20/24/3 21/25/3 18/22/3
f 20/24/3 22/26/5 21/25/3
f 22/26/5 20/24/3 23/27/3
f 23/27/3 24/28/3 22/26/5
f 25/29/3 26/30/3 27/31/3
f 27/31/3 7/32/3 25/29/3
f 7/32/3 2/33/3 25/29/3
f 2/33/3 28/34/3 25/29/3
f 3/35/3 2/33/3 7/32/3
f 7/32/3 6/36/3 3/35/3
f 29/37/3 3/35/3 6/36/3
f 6/36/3 30/38/3 29/37/3
f 29/37/3 31/39/3 3/35/3
f 32/40/3 3/35/3 31/39/3
f 33/41/6 34/42/6 35/43/6
f 35/43/6 36/44/6 33/41/6
f 35/45/6 1/46/7 36/47/6
f 1/48/7 8/49/8 36/50/6
f 1/51/7 4/52/6 8/53/8
f 4/52/6 5/54/6 8/53/8
f 5/54/6 4/52/6 37/55/6
f 37/55/6 38/56/6 5/54/6
f 4/52/6 39/57/6 37/55/6
f 4/52/6 40/58/6 39/57/6
f 41/59/9 21/60/9 22/61/9
f 22/61/9 42/62/9 41/59/9
f 22/63/9 40/64/10 42/65/9
f 40/64/10 32/66/11 42/65/9
f 40/67/10 4/68/9 32/69/11
f 4/68/9 3/70/9 32/69/11
f 23/71/12 43/72/12 44/73/12
f 23/71/12 44/73/12 45/74/12
f 24/75/12 23/71/12 45/74/12
f 24/75/12 45/74/12 46/76/12
f 47/77/12 24/75/12 46/76/12
f 46/76/12 48/78/12 47/77/12
f 38/79/9 20/80/9 19/81/9
f 19/81/9 30/82/9 38/79/9
f 30/82/9 19/81/9 49/83/9
f 49/83/9 50/84/9 30/82/9
f 38/79/9 30/82/9 6/85/9
f 6/85/9 5/86/9 38/79/9
f 50/87/3 49/88/3 44/89/3
f 44/89/3 43/90/3 50/87/3
f 37/91/12 39/92/12 31/93/12
f 31/93/12 29/94/12 37/91/12
f 51/95/3 52/96/3 53/97/3
f 53/97/3 54/98/3 51/95/3
f 29/99/1 50/100/1 43/101/1
f 43/101/1 23/102/1 29/99/1
f 23/102/1 37/103/1 29/99/1
f 23/102/1 38/104/1 37/103/1
f 23/102/1 20/105/1 38/104/1
f 50/100/1 29/99/1 30/106/1
f 25/107/9 34/108/9 33/109/9
f 33/109/9 26/110/9 25/107/9
f 55/111/3 56/112/3 57/113/3
f 57/113/3 58/114/3 55/111/3
f 28/115/2 53/116/2 52/117/2
f 52/117/2 25/118/2 28/115/2
f 52/117/2 16/119/2 25/118/2
f 16/119/2 34/120/2 25/118/2
f 16/119/2 14/121/2 34/120/2
f 35/122/2 34/120/2 14/121/2
f 47/123/2 42/124/2 32/125/2
f 32/125/2 31/126/2 47/123/2
f 24/127/2 47/123/2 31/126/2
f 31/126/2 39/128/2 24/127/2
f 39/128/2 40/129/2 24/127/2
f 40/129/2 22/130/2 24/127/2
f 55/131/1 58/132/1 27/133/1
f 27/133/1 26/134/1 55/131/1
f 15/135/1 55/131/1 26/134/1
f 26/134/1 33/136/1 15/135/1
f 33/136/1 36/137/1 15/135/1
f 36/137/1 9/138/1 15/135/1
f 35/139/13 28/34/14 2/33/12
f 2/33/12 1/140/12 35/139/13
f 28/141/14 35/142/13 14/143/15
f 53/144/12 28/141/14 14/143/15
f 53/145/12 14/146/15 13/147/12
f 13/147/12 54/148/12 53/145/12
f 41/149/3 42/150/3 47/151/3
f 47/151/3 48/152/3 41/149/3
f 36/153/16 8/154/12 7/32/12
f 7/32/12 27/31/17 36/153/16
f 27/155/17 9/156/15 36/157/16
f 27/158/17 58/159/12 9/160/15
f 58/161/12 57/162/12 9/163/15
f 57/162/12 10/164/12 9/163/15
f 44/165/2 49/166/2 19/167/2
f 19/167/2 45/168/2 44/165/2
f 19/167/2 17/169/2 45/168/2
f 17/169/2 59/170/2 45/168/2
f 16/171/9 60/172/9 61/173/9
f 61/173/9 15/174/9 16/171/9
f 61/173/9 55/175/9 15/174/9
f 61/173/9 56/176/9 55/175/9
f 60/172/9 16/171/9 52/177/9
f 52/177/9 51/178/9 60/172/9
f 45/179/6 59/180/6 62/181/6
f 62/181/6 46/182/6 45/179/6
f 41/183/1 48/184/1 46/185/1
f 46/185/1 21/186/1 41/183/1
f 21/186/1 46/185/1 62/187/1
f 62/187/1 18/188/1 21/186/1
f 63/189/6 61/190/6 60/191/6
f 60/191/6 64/192/6 63/189/6
f 51/193/1 54/194/1 13/195/1
f 13/195/1 60/196/1 51/193/1
f 13/195/1 12/197/1 60/196/1
f 12/197/1 64/198/1 60/196/1
f 10/199/2 57/200/2 56/201/2
f 56/201/2 61/202/2 10/199/2
f 61/202/2 63/203/2 10/199/2
f 11/204/2 10/199/2 63/203/2
f 59/180/6 63/189/6 64/192/6
f 64/192/6 62/181/6 59/180/6
f 12/197/1 18/188/1 62/187/1
f 62/187/1 64/198/1 12/197/1
f 18/188/1 12/197/1 65/205/1
f 65/205/1 66/206/1 18/188/1
f 17/169/2 11/204/2 63/203/2
f 63/203/2 59/170/2 17/169/2
f 67/207/2 17/169/2 68/208/2
f 17/169/2 67/207/2 11/204/2
