# Blender v2.92.0 OBJ File: 'OGConvert.blend'
# www.blender.org
o wallCorner
v -4.000000 -0.000000 0.800000
v -4.000000 10.316256 0.800000
v -4.000000 10.316256 4.400001
v -4.000000 -0.000000 4.400000
v -3.600000 -0.000000 0.400000
v 0.000000 -0.000000 0.400000
v 0.000000 10.316256 0.400000
v -3.600000 10.316256 0.400000
v 0.000000 0.000000 0.000000
v -3.600000 0.000000 0.000000
v -3.600000 10.316256 0.000000
v 0.000000 10.316256 0.000000
v -4.400000 -0.000000 4.400000
v -4.400000 10.316256 4.400001
v -4.400000 10.316256 0.800000
v -4.400000 -0.000000 0.800000
vt 0.796273 0.001919
vt 0.796273 0.502598
vt 0.621554 0.502598
vt 0.621554 0.001919
vt 0.598303 0.502598
vt 0.423584 0.502598
vt 0.423584 0.001919
vt 0.598303 0.001919
vt 0.617716 0.001919
vt 0.617716 0.502598
vt 0.419746 0.502598
vt 0.245028 0.502598
vt 0.245027 0.001919
vt 0.419746 0.001919
vt 0.048935 0.484129
vt 0.183666 0.001919
vt 0.202363 0.007143
vt 0.067632 0.489353
vt 0.998081 0.502598
vt 0.978668 0.502598
vt 0.978668 0.001919
vt 0.998081 0.001919
vt 0.974830 0.001919
vt 0.974830 0.502598
vt 0.800111 0.502598
vt 0.800111 0.001919
vt 0.206201 0.502598
vt 0.206201 0.001919
vt 0.343473 0.794707
vt 0.329746 0.808434
vt 0.206201 0.684889
vt 0.219928 0.671162
vt 0.206201 0.629980
vt 0.219928 0.643708
vt 0.329746 0.506436
vt 0.343473 0.520163
vt 0.034089 0.681548
vt 0.202363 0.728564
vt 0.197139 0.747261
vt 0.028865 0.700245
vt 0.001919 0.652403
vt 0.020616 0.657627
vn 1.0000 0.0000 0.0000
vn 0.0000 -0.0000 1.0000
vn 0.7071 -0.0000 0.7071
vn 0.0000 0.0000 -1.0000
vn -1.0000 0.0000 0.0000
vn -0.7071 0.0000 -0.7071
vn 0.0000 1.0000 0.0000
vn 0.0000 -1.0000 -0.0000
s 1
f 1/1/1 2/2/1 3/3/1
f 3/3/1 4/4/1 1/1/1
f 5/5/2 6/6/2 7/7/2
f 7/7/2 8/8/2 5/5/2
f 5/5/3 8/8/3 2/9/3
f 2/9/3 1/10/3 5/5/3
f 9/11/4 10/12/4 11/13/4
f 11/13/4 12/14/4 9/11/4
f 9/15/1 12/16/1 7/17/1
f 7/17/1 6/18/1 9/15/1
f 13/19/2 4/20/2 3/21/2
f 3/21/2 14/22/2 13/19/2
f 15/23/5 16/24/5 13/25/5
f 13/25/5 14/26/5 15/23/5
f 11/13/6 10/12/6 16/27/6
f 16/27/6 15/28/6 11/13/6
f 7/29/7 12/30/7 11/31/7
f 11/31/7 8/32/7 7/29/7
f 11/31/7 15/33/7 8/32/7
f 15/33/7 2/34/7 8/32/7
f 15/33/7 14/35/7 2/34/7
f 3/36/7 2/34/7 14/35/7
f 1/37/8 4/38/8 13/39/8
f 1/37/8 13/39/8 16/40/8
f 1/37/8 16/40/8 10/41/8
f 5/42/8 1/37/8 10/41/8
f 5/42/8 10/41/8 9/15/8
f 9/15/8 6/18/8 5/42/8
