# Blender v2.92.0 OBJ File: 'kenney_OGConvert.blend'
# www.blender.org
o wallWindow
v -0.263000 1.106531 0.069550
v -0.263000 1.106531 0.050000
v -0.737000 1.106531 0.050000
v -0.737000 1.106531 0.069550
v -0.263000 0.343001 0.050000
v -0.263000 0.343001 0.069550
v -0.737000 0.343001 0.069550
v -0.737000 0.343001 0.050000
v -0.312708 0.392708 0.069550
v -0.312708 1.056823 0.069550
v -0.687292 1.056823 0.069550
v -0.687292 0.392708 0.069550
v -0.687292 0.392708 -0.019550
v -0.263000 0.343001 -0.019550
v -0.737000 0.343001 -0.019550
v -0.737000 1.106531 -0.019550
v -0.687292 1.056823 -0.019550
v -0.312708 1.056823 -0.019550
v -0.312708 0.392708 -0.019550
v -0.263000 1.106531 -0.019550
v -0.263000 1.106531 0.000000
v -0.737000 1.106531 0.000000
v -0.263000 0.343001 0.000000
v -0.737000 0.343001 0.000000
v 0.000000 0.000000 0.000000
v 0.000000 -0.000000 0.050000
v -1.000000 -0.000000 0.050000
v -1.000000 0.000000 0.000000
v 0.000000 1.289532 0.050000
v 0.000000 1.289532 0.000000
v -1.000000 1.289532 0.000000
v -1.000000 1.289532 0.050000
v -0.361927 0.441927 0.025000
v -0.638073 0.441927 0.025000
v -0.638073 1.007605 0.025000
v -0.361927 1.007605 0.025000
v -0.638073 0.441927 0.012725
v -0.638073 1.007605 0.012725
v -0.638073 1.007605 0.037275
v -0.638073 0.441927 0.037275
v -0.361927 1.007605 0.012725
v -0.361927 1.007605 0.037275
v -0.361927 0.441927 0.012725
v -0.361927 0.441927 0.037275
v -0.687292 1.056823 0.012725
v -0.687292 0.392708 0.012725
v -0.687292 0.392708 0.037275
v -0.687292 1.056823 0.037275
v -0.312708 1.056823 0.037275
v -0.312708 1.056823 0.012725
v -0.312708 0.392708 0.037275
v -0.312708 0.392708 0.012725
vt 0.624359 0.736948
vt 0.631234 0.736948
vt 0.631234 0.903626
vt 0.624359 0.903626
vt 0.605482 0.903626
vt 0.598607 0.903626
vt 0.598607 0.736948
vt 0.605482 0.736948
vt 0.996999 0.003001
vt 0.996999 0.271491
vt 0.990125 0.271491
vt 0.990125 0.003001
vt 0.497518 0.713467
vt 0.646717 0.730946
vt 0.480039 0.730946
vt 0.480039 0.462456
vt 0.497518 0.479936
vt 0.629237 0.479936
vt 0.629237 0.713467
vt 0.646717 0.462456
vt 0.971247 0.003001
vt 0.971247 0.271490
vt 0.964372 0.271490
vt 0.964372 0.003001
vt 0.670198 0.713467
vt 0.819397 0.730946
vt 0.652718 0.730946
vt 0.652718 0.462456
vt 0.670198 0.479936
vt 0.801917 0.479936
vt 0.801917 0.713467
vt 0.819397 0.462456
vt 0.652718 0.736948
vt 0.659593 0.736948
vt 0.659593 0.903626
vt 0.652718 0.903626
vt 0.984123 0.003001
vt 0.984123 0.271490
vt 0.977249 0.271490
vt 0.977249 0.003001
vt 0.618358 0.903626
vt 0.611483 0.903626
vt 0.611483 0.736948
vt 0.618358 0.736948
vt 0.993577 0.462456
vt 0.993577 0.730946
vt 0.986702 0.730946
vt 0.986702 0.462456
vt 0.020583 0.354643
vt 0.003001 0.354643
vt 0.003001 0.003001
vt 0.020583 0.003001
vt 0.963119 0.462456
vt 0.980701 0.462456
vt 0.980701 0.814099
vt 0.963119 0.814099
vt 0.869014 0.207919
vt 0.869014 0.441450
vt 0.837683 0.441450
vt 0.837683 0.207919
vt 0.511370 0.868667
vt 0.480039 0.868667
vt 0.480039 0.736948
vt 0.511370 0.736948
vt 0.517371 0.736948
vt 0.548703 0.736948
vt 0.548703 0.868667
vt 0.517371 0.868667
vt 0.906347 0.207919
vt 0.906347 0.441450
vt 0.875015 0.441450
vt 0.875015 0.207919
vt 0.592606 0.736948
vt 0.592606 0.935864
vt 0.588289 0.935864
vt 0.588289 0.736948
vt 0.583973 0.935864
vt 0.583973 0.736948
vt 0.688862 0.834053
vt 0.684545 0.834053
vt 0.684545 0.736948
vt 0.688862 0.736948
vt 0.680229 0.736948
vt 0.680229 0.834053
vt 0.577971 0.736948
vt 0.577971 0.935864
vt 0.573655 0.935864
vt 0.573655 0.736948
vt 0.569339 0.935864
vt 0.569339 0.736948
vt 0.699179 0.736948
vt 0.703496 0.736948
vt 0.703496 0.834053
vt 0.699179 0.834053
vt 0.694863 0.736948
vt 0.694863 0.834053
vt 0.920981 0.207919
vt 0.920981 0.441450
vt 0.912348 0.441450
vt 0.912348 0.207919
vt 0.638084 0.736948
vt 0.646717 0.736948
vt 0.646717 0.868667
vt 0.638084 0.868667
vt 0.842705 0.678680
vt 0.957117 0.695987
vt 0.825398 0.695987
vt 0.825398 0.462456
vt 0.842705 0.479764
vt 0.939810 0.479764
vt 0.939810 0.678680
vt 0.957117 0.462456
vt 0.842705 0.918213
vt 0.957117 0.935520
vt 0.825398 0.935520
vt 0.825398 0.701989
vt 0.842705 0.719296
vt 0.939810 0.719296
vt 0.939810 0.918213
vt 0.957117 0.701989
vt 0.674227 0.868667
vt 0.665594 0.868667
vt 0.665594 0.736948
vt 0.674227 0.736948
vt 0.563337 0.736948
vt 0.563337 0.970479
vt 0.554704 0.970479
vt 0.554704 0.736948
vt 0.572521 0.335841
vt 0.831681 0.456455
vt 0.480039 0.456455
vt 0.480039 0.003001
vt 0.572521 0.067352
vt 0.739199 0.067352
vt 0.739199 0.335841
vt 0.831681 0.003001
vt 0.141196 0.095483
vt 0.474037 0.003001
vt 0.409686 0.095483
vt 0.409686 0.262161
vt 0.141196 0.262161
vt 0.474037 0.354643
vt 0.020583 0.808098
vt 0.003001 0.808098
vt 0.958371 0.003001
vt 0.958371 0.456455
vt 0.940789 0.456455
vt 0.940789 0.003001
vt 0.837683 0.201917
vt 0.934787 0.003001
vt 0.934787 0.201917
vt 0.837683 0.003001
vn 0.0000 1.0000 0.0000
vn 0.0000 -1.0000 0.0000
vn -1.0000 -0.0000 0.0000
vn 0.0000 -0.0000 1.0000
vn 1.0000 0.0000 0.0000
vn -0.0000 0.0000 -1.0000
s 1
f 1/1/1 2/2/1 3/3/1
f 3/3/1 4/4/1 1/1/1
f 5/5/2 6/6/2 7/7/2
f 7/7/2 8/8/2 5/5/2
f 3/9/3 8/10/3 7/11/3
f 7/11/3 4/12/3 3/9/3
f 9/13/4 7/14/4 6/15/4
f 6/15/4 1/16/4 9/13/4
f 1/16/4 10/17/4 9/13/4
f 1/16/4 11/18/4 10/17/4
f 7/14/4 9/13/4 12/19/4
f 12/19/4 4/20/4 7/14/4
f 12/19/4 11/18/4 4/20/4
f 11/18/4 1/16/4 4/20/4
f 5/21/5 2/22/5 1/23/5
f 1/23/5 6/24/5 5/21/5
f 13/25/6 14/26/6 15/27/6
f 15/27/6 16/28/6 13/25/6
f 16/28/6 17/29/6 13/25/6
f 16/28/6 18/30/6 17/29/6
f 14/26/6 13/25/6 19/31/6
f 19/31/6 20/32/6 14/26/6
f 19/31/6 18/30/6 20/32/6
f 18/30/6 16/28/6 20/32/6
f 21/33/1 20/34/1 16/35/1
f 16/35/1 22/36/1 21/33/1
f 14/37/5 20/38/5 21/39/5
f 21/39/5 23/40/5 14/37/5
f 14/41/2 23/42/2 24/43/2
f 24/43/2 15/44/2 14/41/2
f 16/45/3 15/46/3 24/47/3
f 24/47/3 22/48/3 16/45/3
f 25/49/2 26/50/2 27/51/2
f 27/51/2 28/52/2 25/49/2
f 29/53/1 30/54/1 31/55/1
f 31/55/1 32/56/1 29/53/1
f 13/57/5 17/58/5 11/59/5
f 11/59/5 12/60/5 13/57/5
f 18/61/2 10/62/2 11/63/2
f 11/63/2 17/64/2 18/61/2
f 9/65/1 19/66/1 13/67/1
f 13/67/1 12/68/1 9/65/1
f 18/69/3 19/70/3 9/71/3
f 9/71/3 10/72/3 18/69/3
f 37/73/5 38/74/5 35/75/5
f 35/75/5 34/76/5 37/73/5
f 34/76/5 35/75/5 39/77/5
f 39/77/5 40/78/5 34/76/5
f 41/79/2 36/80/2 35/81/2
f 35/81/2 38/82/2 41/79/2
f 39/83/2 35/81/2 36/80/2
f 36/80/2 42/84/2 39/83/2
f 41/85/3 43/86/3 33/87/3
f 33/87/3 36/88/3 41/85/3
f 36/88/3 33/87/3 44/89/3
f 44/89/3 42/90/3 36/88/3
f 33/91/1 43/92/1 37/93/1
f 37/93/1 34/94/1 33/91/1
f 44/95/1 33/91/1 34/94/1
f 34/94/1 40/96/1 44/95/1
f 45/97/3 46/98/3 47/99/3
f 47/99/3 48/100/3 45/97/3
f 49/101/1 50/102/1 45/103/1
f 45/103/1 48/104/1 49/101/1
f 44/105/4 47/106/4 51/107/4
f 51/107/4 49/108/4 44/105/4
f 49/108/4 42/109/4 44/105/4
f 49/108/4 39/110/4 42/109/4
f 47/106/4 44/105/4 40/111/4
f 40/111/4 48/112/4 47/106/4
f 40/111/4 39/110/4 48/112/4
f 39/110/4 49/108/4 48/112/4
f 37/113/6 52/114/6 46/115/6
f 46/115/6 45/116/6 37/113/6
f 45/116/6 38/117/6 37/113/6
f 45/116/6 41/118/6 38/117/6
f 52/114/6 37/113/6 43/119/6
f 43/119/6 50/120/6 52/114/6
f 43/119/6 41/118/6 50/120/6
f 41/118/6 45/116/6 50/120/6
f 52/121/2 51/122/2 47/123/2
f 47/123/2 46/124/2 52/121/2
f 52/125/5 50/126/5 49/127/5
f 49/127/5 51/128/5 52/125/5
f 5/129/4 27/130/4 26/131/4
f 26/131/4 29/132/4 5/129/4
f 29/132/4 2/133/4 5/129/4
f 29/132/4 3/134/4 2/133/4
f 27/130/4 5/129/4 8/135/4
f 8/135/4 32/136/4 27/130/4
f 8/135/4 3/134/4 32/136/4
f 3/134/4 29/132/4 32/136/4
f 24/137/6 25/49/6 28/52/6
f 28/52/6 31/138/6 24/137/6
f 31/138/6 22/139/6 24/137/6
f 31/138/6 21/140/6 22/139/6
f 23/141/6 30/142/6 25/49/6
f 25/49/6 24/137/6 23/141/6
f 23/141/6 21/140/6 30/142/6
f 21/140/6 31/138/6 30/142/6
f 25/49/5 30/143/5 29/144/5
f 29/144/5 26/50/5 25/49/5
f 31/145/3 28/146/3 27/147/3
f 27/147/3 32/148/3 31/145/3
f 33/149/4 35/150/4 34/151/4
f 35/150/4 33/149/4 36/152/4
