# Blender v2.92.0 OBJ File: 'kenney_OGConvert.blend'
# www.blender.org
o wallDoorway
v 0.000000 0.000000 0.000000
v 0.000000 1.289532 0.000000
v 0.000000 1.289532 0.050000
v 0.000000 -0.000000 0.050000
v -1.000000 1.289532 0.000000
v -1.000000 0.000000 0.000000
v -1.000000 -0.000000 0.050000
v -1.000000 1.289532 0.050000
v -0.743000 0.000000 0.000000
v -0.743000 1.009532 0.000000
v -0.257000 0.000000 0.000000
v -0.257000 1.009532 0.000000
v -0.743000 -0.000000 0.050000
v -0.743000 0.000000 -0.019550
v -0.743000 -0.000000 0.069550
v -0.714650 0.000000 -0.019550
v -0.714650 -0.000000 0.069550
v -0.257000 -0.000000 0.050000
v -0.257000 1.009532 0.050000
v -0.257000 1.009532 0.069550
v -0.257000 -0.000000 0.069550
v -0.285350 -0.000000 0.069550
v -0.285350 0.981182 0.069550
v -0.714650 0.981182 0.069550
v -0.743000 1.009532 0.069550
v -0.257000 0.000000 -0.019550
v -0.285350 0.000000 -0.019550
v -0.285350 0.981182 -0.019550
v -0.714650 0.981182 -0.019550
v -0.743000 1.009532 -0.019550
v -0.257000 1.009532 -0.019550
v -0.743000 1.009532 0.050000
vt 0.882408 0.557560
vt 0.882408 0.002681
vt 0.903923 0.002681
vt 0.903923 0.557560
vt 0.982915 0.002681
vt 0.982915 0.557560
vt 0.961400 0.557560
vt 0.961400 0.002681
vt 0.113267 0.557560
vt 0.002681 0.557560
vt 0.002681 0.002681
vt 0.113267 0.123164
vt 0.432976 0.002681
vt 0.432976 0.557560
vt 0.322390 0.557560
vt 0.322390 0.123164
vt 0.431653 0.562923
vt 0.453168 0.562923
vt 0.453168 0.993217
vt 0.431653 0.993217
vt 0.551298 0.673508
vt 0.529783 0.673508
vt 0.529783 0.562923
vt 0.551298 0.562923
vt 0.601773 0.562923
vt 0.601773 0.562923
vt 0.601773 0.562923
vt 0.601773 0.562923
vt 0.584211 0.601262
vt 0.584211 0.562923
vt 0.596410 0.562923
vt 0.596410 0.601262
vt 0.996690 0.442440
vt 0.996690 0.876836
vt 0.988278 0.876836
vt 0.988278 0.442440
vt 0.229366 0.997319
vt 0.217167 0.997319
vt 0.217167 0.562923
vt 0.229366 0.575122
vt 0.414092 0.575122
vt 0.426290 0.562923
vt 0.414092 0.997319
vt 0.426290 0.997319
vt 0.903923 0.668145
vt 0.912335 0.668145
vt 0.912335 0.680344
vt 0.882408 0.668145
vt 0.873996 0.668145
vt 0.873996 0.680344
vt 0.496870 0.747648
vt 0.458531 0.747648
vt 0.458531 0.562923
vt 0.496870 0.562923
vt 0.014880 0.997319
vt 0.002681 0.997319
vt 0.002681 0.562923
vt 0.014880 0.575122
vt 0.199606 0.575122
vt 0.211805 0.562923
vt 0.199606 0.997319
vt 0.211804 0.997319
vt 0.956037 0.002681
vt 0.956037 0.424878
vt 0.917698 0.424878
vt 0.917698 0.002681
vt 0.570436 0.562923
vt 0.578848 0.562923
vt 0.578848 0.772046
vt 0.570436 0.772046
vt 0.524420 0.562923
vt 0.524420 0.997319
vt 0.516008 0.997319
vt 0.516008 0.562923
vt 0.956037 0.430241
vt 0.956037 0.852438
vt 0.917698 0.852438
vt 0.917698 0.430241
vt 0.996690 0.002681
vt 0.996690 0.437077
vt 0.988278 0.437077
vt 0.988278 0.002681
vt 0.556661 0.562923
vt 0.565073 0.562923
vt 0.565073 0.772046
vt 0.556661 0.772046
vt 0.510645 0.562923
vt 0.510645 0.997319
vt 0.502233 0.997319
vt 0.502233 0.562923
vt 0.548924 0.557560
vt 0.438339 0.557560
vt 0.438339 0.002681
vt 0.548924 0.123164
vt 0.758047 0.123164
vt 0.868633 0.002681
vt 0.758047 0.557560
vt 0.868633 0.557560
vn 1.0000 0.0000 -0.0000
vn -1.0000 0.0000 0.0000
vn -0.0000 0.0000 -1.0000
vn 0.0000 1.0000 0.0000
vn 0.0000 -1.0000 -0.0000
vn 0.8082 0.5817 0.0919
vn 0.0000 -0.0000 1.0000
s 1
f 1/1/1 2/2/1 3/3/1
f 3/3/1 4/4/1 1/1/1
f 5/5/2 6/6/2 7/7/2
f 7/7/2 8/8/2 5/5/2
f 9/9/3 6/10/3 5/11/3
f 5/11/3 10/12/3 9/9/3
f 2/13/3 1/14/3 11/15/3
f 11/15/3 12/16/3 2/13/3
f 12/16/3 10/12/3 2/13/3
f 10/12/3 5/11/3 2/13/3
f 3/17/4 2/18/4 5/19/4
f 5/19/4 8/20/4 3/17/4
f 9/21/5 13/22/6 7/23/5
f 7/23/5 6/24/5 9/21/5
f 13/25/6 9/26/5 14/27/5
f 15/28/5 13/25/6 14/27/5
f 15/29/5 14/30/5 16/31/5
f 16/31/5 17/32/5 15/29/5
f 18/33/1 19/34/1 20/35/1
f 20/35/1 21/36/1 18/33/1
f 22/37/7 21/38/7 20/39/7
f 20/39/7 23/40/7 22/37/7
f 20/39/7 24/41/7 23/40/7
f 24/41/7 20/39/7 25/42/7
f 17/43/7 24/41/7 25/42/7
f 25/42/7 15/44/7 17/43/7
f 18/45/5 21/46/5 22/47/5
f 22/47/5 11/48/5 18/45/5
f 22/47/5 26/49/5 11/48/5
f 22/47/5 27/50/5 26/49/5
f 18/45/5 11/48/5 1/1/5
f 1/1/5 4/4/5 18/45/5
f 28/51/5 23/52/5 24/53/5
f 24/53/5 29/54/5 28/51/5
f 16/55/3 14/56/3 30/57/3
f 30/57/3 29/58/3 16/55/3
f 30/57/3 28/59/3 29/58/3
f 28/59/3 30/57/3 31/60/3
f 27/61/3 28/59/3 31/60/3
f 31/60/3 26/62/3 27/61/3
f 28/63/2 27/64/2 22/65/2
f 22/65/2 23/66/2 28/63/2
f 20/67/4 19/68/4 32/69/4
f 32/69/4 25/70/4 20/67/4
f 32/71/2 13/72/2 15/73/2
f 15/73/2 25/74/2 32/71/2
f 16/75/1 29/76/1 24/77/1
f 24/77/1 17/78/1 16/75/1
f 30/79/2 14/80/2 9/81/2
f 9/81/2 10/82/2 30/79/2
f 12/83/4 31/84/4 30/85/4
f 30/85/4 10/86/4 12/83/4
f 26/87/1 31/88/1 12/89/1
f 12/89/1 11/90/1 26/87/1
f 18/91/7 4/92/7 3/93/7
f 3/93/7 19/94/7 18/91/7
f 3/93/7 32/95/7 19/94/7
f 32/95/7 3/93/7 8/96/7
f 13/97/7 32/95/7 8/96/7
f 8/96/7 7/98/7 13/97/7
