# Blender v2.92.0 OBJ File: 'OGConvert.blend'
# www.blender.org
o wallHalf
v 0.000000 0.000000 0.000000
v 0.000000 -0.000000 0.400000
v -4.000000 -0.000000 0.400000
v -4.000000 0.000000 0.000000
v 0.000000 10.316256 0.400000
v 0.000000 10.316256 0.000000
v -4.000000 10.316256 0.000000
v -4.000000 10.316256 0.400000
vt 0.027681 0.263764
vt 0.001450 0.263764
vt 0.001450 0.001450
vt 0.027681 0.001450
vt 0.707105 0.680874
vt 0.733337 0.680874
vt 0.733337 0.943188
vt 0.707105 0.943188
vt 0.027681 0.940289
vt 0.001450 0.940289
vt 0.998550 0.001450
vt 0.998550 0.677974
vt 0.972319 0.677974
vt 0.972319 0.001450
vt 0.704206 0.001450
vt 0.704206 0.263764
vt 0.969419 0.677974
vt 0.707105 0.677974
vt 0.707105 0.001450
vt 0.969419 0.001450
vn 0.0000 -1.0000 -0.0000
vn 0.0000 1.0000 0.0000
vn 1.0000 0.0000 0.0000
vn -1.0000 0.0000 0.0000
vn 0.0000 0.0000 -1.0000
vn 0.0000 -0.0000 1.0000
s 1
f 1/1/1 2/2/1 3/3/1
f 3/3/1 4/4/1 1/1/1
f 5/5/2 6/6/2 7/7/2
f 7/7/2 8/8/2 5/5/2
f 1/1/3 6/9/3 5/10/3
f 5/10/3 2/2/3 1/1/3
f 7/11/4 4/12/4 3/13/4
f 3/13/4 8/14/4 7/11/4
f 1/1/5 4/4/5 7/15/5
f 7/15/5 6/16/5 1/1/5
f 3/17/6 2/18/6 5/19/6
f 5/19/6 8/20/6 3/17/6
