# Blender v2.92.0 OBJ File: 'kenney_OGConvert.blend'
# www.blender.org
o boat_small
v 3.750000 2.850000 1.727300
v 3.750000 2.000000 1.727299
v 3.750001 2.000000 6.140120
v 3.750001 3.500000 6.140120
v 3.750000 2.850000 -0.422700
v 3.750000 3.500000 -1.521909
v 3.750000 2.000000 -0.422700
v 3.750000 2.000000 -1.521910
v -3.750000 2.000000 1.727301
v -3.750000 2.850000 1.727301
v -3.750000 2.850000 -0.422699
v -3.750000 2.000000 -0.422699
v -3.749999 2.000000 6.140121
v 3.400000 0.000000 -0.000001
v 3.400001 -0.000000 6.450319
v -3.399999 -0.000000 6.450320
v 1.860000 0.000000 -2.756520
v -0.000001 0.000000 -3.816720
v -1.860000 0.000000 -2.756520
v -3.400000 -0.000000 0.000001
v -0.000001 2.000000 -7.527420
v 2.441249 2.000000 -6.135908
v -0.000001 2.000000 -5.687442
v 2.087607 2.000000 -4.497506
v 2.087607 3.500000 -4.497505
v -0.000001 3.500000 -5.687442
v -2.441251 2.000000 -6.135907
v -2.325001 3.500000 -5.460030
v -0.000001 3.500000 -6.785280
v -3.749999 3.500000 6.140121
v -4.462499 2.000000 7.298497
v 4.462502 2.000000 7.298495
v 4.250001 3.500000 7.298495
v -4.249999 3.500000 7.298497
v -2.724999 3.500000 7.298496
v -4.462501 2.000000 -2.517974
v -4.250000 3.500000 -2.014379
v 4.462500 2.000000 -2.517976
v -2.087609 2.000000 -4.497505
v -2.087609 3.500000 -4.497505
v -3.750000 3.500000 -1.521908
v -3.750000 2.000000 -1.521908
v 4.250000 3.500000 -2.014380
v 2.324999 3.500000 -5.460031
vt 0.819844 0.673225
vt 0.789299 0.673188
vt 0.789497 0.514608
vt 0.843400 0.514674
vt 0.819748 0.750488
vt 0.843056 0.790018
vt 0.789203 0.750451
vt 0.789153 0.789952
vt 0.271522 0.541278
vt 0.271522 0.810800
vt 0.241083 0.810800
vt 0.241083 0.541278
vt 0.002829 0.541278
vt 0.080093 0.541278
vt 0.080093 0.810800
vt 0.002829 0.810800
vt 0.204878 0.810800
vt 0.204878 0.541278
vt 0.235424 0.541278
vt 0.235424 0.810800
vt 0.028434 0.493991
vt 0.028434 0.335410
vt 0.297957 0.335410
vt 0.297957 0.493991
vt 0.611770 0.282440
vt 0.611770 0.508916
vt 0.367403 0.508916
vt 0.556428 0.185657
vt 0.489586 0.148432
vt 0.422745 0.185657
vt 0.367403 0.282440
vt 0.489586 0.002830
vt 0.577316 0.051687
vt 0.906347 0.589629
vt 0.902775 0.664650
vt 0.849059 0.664650
vt 0.852630 0.589629
vt 0.145315 0.629007
vt 0.145315 0.541277
vt 0.199219 0.545455
vt 0.199219 0.629007
vt 0.085751 0.810800
vt 0.085751 0.541278
vt 0.139656 0.541278
vt 0.139656 0.810800
vt 0.709327 0.514608
vt 0.709327 0.835340
vt 0.655611 0.827703
vt 0.655611 0.522244
vt 0.282840 0.541278
vt 0.282840 0.541278
vt 0.282840 0.541278
vt 0.401856 0.051687
vt 0.586361 0.972869
vt 0.532492 0.997171
vt 0.533072 0.867365
vt 0.586914 0.849245
vt 0.649952 0.178715
vt 0.592917 0.514641
vt 0.646819 0.514575
vt 0.646476 0.621679
vt 0.592573 0.621745
vt 0.783494 0.552790
vt 0.783494 0.797157
vt 0.401396 0.997147
vt 0.401396 0.644380
vt 0.455238 0.662501
vt 0.455238 0.997170
vt 0.623167 0.661209
vt 0.646819 0.897023
vt 0.623263 0.738472
vt 0.592719 0.738509
vt 0.592917 0.897089
vt 0.592622 0.661247
vt 0.002830 0.535619
vt 0.002830 0.182850
vt 0.323561 0.535619
vt 0.297957 0.258147
vt 0.297957 0.218646
vt 0.028434 0.218646
vt 0.075466 0.052835
vt 0.277181 0.541278
vt 0.277181 0.810298
vt 0.277181 0.696216
vt 0.288498 0.541278
vt 0.288498 0.541278
vt 0.288498 0.541278
vt 0.028434 0.258147
vt 0.088174 0.111713
vt 0.163196 0.002830
vt 0.163196 0.068952
vt 0.238216 0.111713
vt 0.250925 0.052835
vt 0.323561 0.182851
vt 0.902775 0.514608
vt 0.849059 0.514608
vt 0.533072 0.514598
vt 0.460897 0.776771
vt 0.460897 0.544971
vt 0.673579 0.191976
vt 0.655611 0.508949
vt 0.655611 0.174278
vt 0.724788 0.050454
vt 0.733319 0.085044
vt 0.808341 0.002830
vt 0.808341 0.042282
vt 0.891892 0.050454
vt 0.883361 0.085044
vt 0.943102 0.191976
vt 0.961070 0.174278
vt 0.943102 0.467321
vt 0.673579 0.467321
vt 0.906267 0.508949
vt 0.961070 0.508949
vt 0.586914 0.514575
vt 0.145315 0.716737
vt 0.199219 0.712559
vt 0.329220 0.178715
vt 0.843400 0.897122
vt 0.789497 0.897056
vt 0.329220 0.734975
vt 0.329220 0.966775
vt 0.400815 0.514575
vt 0.454685 0.538877
vn -1.0000 0.0000 0.0000
vn 0.0000 -0.0000 1.0000
vn 0.0000 1.0000 0.0000
vn -0.0000 0.0000 -1.0000
vn -0.0000 -1.0000 -0.0000
vn 0.2611 -0.8498 -0.4580
vn -0.4952 -0.0000 0.8688
vn -0.4550 0.3949 -0.7982
vn 0.0000 0.5474 0.8368
vn -0.2611 -0.8498 -0.4580
vn -0.8390 0.2762 -0.4687
vn 0.5938 -0.7331 -0.3317
vn 0.8730 0.0000 0.4877
vn 0.0000 -0.3904 0.9206
vn 0.9901 0.1403 -0.0000
vn 1.0000 0.0000 -0.0000
vn -0.0484 0.9988 0.0000
vn -0.4247 0.9053 0.0000
vn 0.4952 0.0000 0.8688
vn -0.8831 -0.4692 0.0000
vn -0.9901 0.1403 0.0000
vn 0.4550 0.3949 -0.7982
vn -0.5938 -0.7331 -0.3317
vn -0.8730 -0.0000 0.4877
vn 0.8831 -0.4692 -0.0000
vn 0.8390 0.2762 -0.4687
s 1
f 1/1/1 2/2/1 3/3/1
f 1/1/1 3/3/1 4/4/1
f 5/5/1 1/1/1 4/4/1
f 5/5/1 4/4/1 6/6/1
f 7/7/1 5/5/1 6/6/1
f 6/6/1 8/8/1 7/7/1
f 9/9/2 2/10/2 1/11/2
f 1/11/2 10/12/2 9/9/2
f 1/13/3 5/14/3 11/15/3
f 11/15/3 10/16/3 1/13/3
f 7/17/4 12/18/4 11/19/4
f 11/19/4 5/20/4 7/17/4
f 3/21/3 2/22/3 9/23/3
f 9/23/3 13/24/3 3/21/3
f 14/25/5 15/26/5 16/27/5
f 16/27/5 17/28/5 14/25/5
f 16/27/5 18/29/5 17/28/5
f 16/27/5 19/30/5 18/29/5
f 16/27/5 20/31/5 19/30/5
f 21/32/6 22/33/6 17/28/6
f 17/28/6 18/29/6 21/32/6
f 23/34/7 24/35/7 25/36/7
f 25/36/7 26/37/7 23/34/7
f 21/38/8 27/39/8 28/40/8
f 28/40/8 29/41/8 21/38/8
f 3/42/4 13/43/4 30/44/4
f 30/44/4 4/45/4 3/42/4
f 31/46/2 32/47/2 33/48/2
f 33/48/2 34/49/2 31/46/2
f 33/50/2 35/51/9 34/52/2
f 21/32/10 18/29/10 19/30/10
f 19/30/10 27/53/10 21/32/10
f 28/54/11 27/55/11 36/56/11
f 36/56/11 37/57/11 28/54/11
f 22/33/12 38/58/12 14/25/12
f 14/25/12 17/28/12 22/33/12
f 39/59/13 40/60/13 41/61/13
f 41/61/13 42/62/13 39/59/13
f 16/63/14 15/64/14 32/47/14
f 32/47/14 31/46/14 16/63/14
f 32/65/15 38/66/15 43/67/15
f 43/67/15 33/68/15 32/65/15
f 11/69/16 42/62/16 41/61/16
f 41/61/16 30/70/16 11/69/16
f 30/70/16 10/71/16 11/69/16
f 30/70/16 9/72/16 10/71/16
f 30/70/16 13/73/16 9/72/16
f 42/62/16 11/69/16 12/74/16
f 3/21/3 32/75/3 38/76/3
f 32/75/3 3/21/3 31/77/3
f 31/77/3 3/21/3 13/24/3
f 31/77/3 13/24/3 9/23/3
f 31/77/3 9/23/3 12/78/3
f 31/77/3 12/78/3 42/79/3
f 38/76/3 8/80/3 3/21/3
f 8/80/3 38/76/3 22/81/3
f 3/82/3 8/83/3 2/84/17
f 2/85/17 8/86/3 7/87/18
f 7/88/18 9/23/3 2/22/17
f 9/23/3 7/88/18 12/78/3
f 8/80/3 22/81/3 24/89/3
f 24/89/3 22/81/3 21/90/3
f 24/89/3 21/90/3 23/91/3
f 23/91/3 21/90/3 39/92/3
f 39/92/3 21/90/3 27/93/3
f 39/92/3 27/93/3 42/79/3
f 42/79/3 27/93/3 36/94/3
f 42/79/3 36/94/3 31/77/3
f 39/95/19 23/34/19 26/37/19
f 26/37/19 40/96/19 39/95/19
f 31/97/20 36/56/20 20/98/20
f 20/98/20 16/99/20 31/97/20
f 6/100/3 33/101/3 43/102/3
f 43/102/3 44/103/3 6/100/3
f 44/103/3 25/104/3 6/100/3
f 44/103/3 29/105/3 25/104/3
f 29/105/3 26/106/3 25/104/3
f 29/105/3 28/107/3 26/106/3
f 28/107/3 40/108/3 26/106/3
f 28/107/3 41/109/3 40/108/3
f 28/107/3 37/110/3 41/109/3
f 37/110/3 30/111/3 41/109/3
f 33/101/3 6/100/3 4/112/3
f 4/112/3 35/113/3 33/101/3
f 4/112/3 30/111/3 35/113/3
f 30/111/3 34/114/3 35/113/3
f 30/111/3 37/110/3 34/114/3
f 37/57/21 36/56/21 31/97/21
f 31/97/21 34/115/21 37/57/21
f 22/116/22 21/38/22 29/41/22
f 29/41/22 44/117/22 22/116/22
f 27/53/23 19/30/23 20/31/23
f 20/31/23 36/118/23 27/53/23
f 25/119/24 24/120/24 8/8/24
f 8/8/24 6/6/24 25/119/24
f 14/121/25 38/66/25 32/65/25
f 32/65/25 15/122/25 14/121/25
f 38/66/26 22/123/26 44/124/26
f 44/124/26 43/67/26 38/66/26
f 7/88/3 8/80/3 24/89/3
f 24/89/3 12/78/3 7/88/3
f 24/89/3 23/91/3 12/78/3
f 23/91/3 39/92/3 12/78/3
f 39/92/3 42/79/3 12/78/3
