# Blender v2.92.0 OBJ File: 'OGConvert.blend'
# www.blender.org
o boat_large
v 27.200001 0.000000 0.000000
v 27.200001 -0.000003 74.802559
v -27.200001 -0.000003 74.802559
v 14.880000 0.000001 -22.052160
v 0.000000 0.000001 -30.533760
v -14.880000 0.000001 -22.052160
v -27.200001 -0.000000 -0.000000
v -0.000000 16.000002 -60.219360
v 19.530001 16.000002 -49.087257
v -0.000000 16.000002 -45.499535
v 16.700865 16.000002 -35.980042
v 16.700865 28.000002 -35.980042
v -0.000000 28.000002 -45.499535
v 30.000000 15.999997 72.320953
v -30.000000 15.999997 72.320953
v -30.000000 27.999996 72.320953
v 30.000000 27.999996 72.320953
v -19.530001 16.000002 -49.087257
v -18.600000 28.000002 -43.680241
v -0.000000 28.000002 -54.282242
v -35.700001 15.999996 81.587997
v 35.700001 15.999996 81.587997
v 34.000000 27.999996 81.587997
v -34.000000 27.999996 81.587997
v -21.799999 27.999996 81.587997
v -35.700001 16.000000 -20.143801
v -34.000000 28.000000 -16.115038
v 35.700001 16.000000 -20.143801
v -16.700865 16.000002 -35.980042
v -16.700865 28.000002 -35.980042
v -30.000000 28.000000 -12.175271
v -30.000000 16.000000 -12.175271
v 34.000000 28.000000 -16.115038
v -30.000000 15.999998 52.618401
v 30.000000 15.999998 52.618401
v 30.000000 22.799997 52.618401
v -30.000000 22.799997 52.618401
v 30.000000 22.799997 35.418400
v -30.000000 22.799997 35.418400
v -30.000000 22.799999 -3.381598
v -30.000000 22.799999 13.818401
v -30.000000 15.999999 13.818401
v -30.000000 15.999998 35.418400
v -30.000000 16.000000 -3.381598
v 30.000000 15.999998 35.418400
v 18.600000 28.000002 -43.680241
v 30.000000 28.000000 -12.175271
v 30.000000 16.000000 -12.175271
v 30.000000 16.000000 -3.381598
v 30.000000 15.999999 13.818401
v 30.000000 22.799999 13.818401
v 30.000000 22.799999 -3.381598
vt 0.277864 0.269889
vt 0.277864 0.595759
vt 0.040446 0.595759
vt 0.224096 0.173821
vt 0.159155 0.136872
vt 0.094214 0.173821
vt 0.040446 0.269889
vt 0.159155 0.003349
vt 0.244390 0.051845
vt 0.259565 0.862076
vt 0.259565 0.804986
vt 0.311936 0.804986
vt 0.311936 0.862076
vt 0.551525 0.864885
vt 0.551525 0.603027
vt 0.603897 0.603027
vt 0.603897 0.864885
vt 0.073920 0.051845
vt 0.259565 0.713052
vt 0.259565 0.627817
vt 0.311936 0.631876
vt 0.311936 0.713052
vt 0.374031 0.603027
vt 0.374031 0.900321
vt 0.321659 0.893243
vt 0.321659 0.610105
vt 0.610595 0.603027
vt 0.610595 0.603027
vt 0.610595 0.603027
vt 0.876622 0.549908
vt 0.824276 0.573515
vt 0.824709 0.447353
vt 0.877034 0.429754
vt 0.314960 0.177934
vt 0.443860 0.647292
vt 0.443860 0.873802
vt 0.938784 0.471568
vt 0.886512 0.470956
vt 0.883732 0.371243
vt 0.936004 0.371857
vt 0.695233 0.577153
vt 0.691938 0.134215
vt 0.744791 0.151075
vt 0.747955 0.576472
vt 0.945482 0.253176
vt 0.945482 0.003349
vt 0.975160 0.003349
vt 0.975160 0.253176
vt 0.096035 0.627817
vt 0.171102 0.627817
vt 0.171102 0.889675
vt 0.096035 0.889675
vt 0.906672 0.333221
vt 0.886512 0.003349
vt 0.907238 0.258333
vt 0.907949 0.164288
vt 0.936859 0.258680
vt 0.908515 0.089399
vt 0.938135 0.089746
vt 0.938784 0.003963
vt 0.937569 0.164635
vt 0.936293 0.333569
vt 0.815644 0.845709
vt 0.815644 0.583851
vt 0.845321 0.583851
vt 0.845321 0.845709
vt 0.003349 0.627817
vt 0.089337 0.627817
vt 0.089337 0.889675
vt 0.003349 0.889675
vt 0.259565 0.798287
vt 0.311936 0.794228
vt 0.339116 0.187117
vt 0.321659 0.596328
vt 0.321659 0.169922
vt 0.388869 0.049620
vt 0.397158 0.083226
vt 0.470046 0.003349
vt 0.470046 0.041680
vt 0.551221 0.049620
vt 0.542933 0.083226
vt 0.600975 0.187117
vt 0.618432 0.169922
vt 0.600975 0.555884
vt 0.339116 0.555884
vt 0.565187 0.596328
vt 0.618432 0.596328
vt 0.824709 0.003366
vt 0.877034 0.003349
vt 0.936381 0.951091
vt 0.884010 0.951053
vt 0.883732 0.847033
vt 0.936103 0.847072
vt 0.754654 0.359359
vt 0.754654 0.032899
vt 0.003349 0.177934
vt 0.259565 0.944063
vt 0.311936 0.944063
vt 0.625130 0.219601
vt 0.627553 0.545289
vt 0.695260 0.003349
vt 0.747955 0.026442
vt 0.625130 0.583851
vt 0.663508 0.583851
vt 0.767400 0.641892
vt 0.625130 0.845709
vt 0.808945 0.714780
vt 0.767400 0.787668
vt 0.663508 0.845709
vt 0.290084 0.580748
vt 0.314960 0.621119
vt 0.003349 0.621119
vt 0.028226 0.580748
vt 0.028226 0.494915
vt 0.028226 0.419985
vt 0.028226 0.325887
vt 0.028226 0.250957
vt 0.028226 0.212648
vt 0.290084 0.212648
vt 0.610595 0.609725
vt 0.610595 0.609725
vt 0.610595 0.609725
vt 0.290084 0.494915
vt 0.290084 0.419985
vt 0.290084 0.325887
vt 0.610595 0.616423
vt 0.610595 0.616423
vt 0.610595 0.616423
vt 0.290084 0.250957
vt 0.232042 0.108945
vt 0.159155 0.067475
vt 0.086267 0.108945
vt 0.913495 0.733611
vt 0.883818 0.733589
vt 0.883889 0.639320
vt 0.913566 0.639342
vt 0.936381 0.478306
vt 0.913438 0.808677
vt 0.883761 0.808655
vt 0.913622 0.564277
vt 0.884010 0.478267
vt 0.883945 0.564255
vt 0.943079 0.996651
vt 0.943079 0.746824
vt 0.972756 0.746824
vt 0.972756 0.996651
vt 0.450558 0.603027
vt 0.544827 0.603027
vt 0.544827 0.864885
vt 0.450558 0.864885
vt 0.177800 0.627817
vt 0.252866 0.627817
vt 0.252866 0.889675
vt 0.177800 0.889675
vt 0.943079 0.740125
vt 0.943079 0.478267
vt 0.972756 0.478267
vt 0.972756 0.740125
vn 0.0000 -1.0000 -0.0000
vn 0.2611 -0.8498 -0.4580
vn -0.4952 0.0000 0.8688
vn 0.0000 0.0000 -1.0000
vn -0.2611 -0.8498 -0.4580
vn -0.4550 0.3949 -0.7982
vn 0.0000 0.0000 1.0000
vn -0.8390 0.2762 -0.4687
vn 0.5938 -0.7331 -0.3317
vn 0.0000 -0.3904 0.9206
vn 0.8730 0.0000 0.4877
vn 0.9901 0.1403 0.0000
vn 0.0000 1.0000 0.0000
vn 1.0000 0.0000 0.0000
vn 0.4550 0.3949 -0.7982
vn -0.9901 0.1403 0.0000
vn -0.8730 0.0000 0.4877
vn -0.8831 -0.4692 -0.0000
vn -0.5938 -0.7331 -0.3317
vn 0.4952 0.0000 0.8688
vn 0.8831 -0.4692 -0.0000
vn 0.8390 0.2762 -0.4687
vn -0.6388 -0.3193 -0.7000
vn -0.7324 0.6809 0.0000
vn -0.8944 -0.4472 -0.0000
vn -0.0615 0.4462 -0.8928
vn -1.0000 0.0000 0.0000
s 1
f 1/1/1 2/2/1 3/3/1
f 3/3/1 4/4/1 1/1/1
f 3/3/1 5/5/1 4/4/1
f 3/3/1 6/6/1 5/5/1
f 3/3/1 7/7/1 6/6/1
f 8/8/2 9/9/2 4/4/2
f 4/4/2 5/5/2 8/8/2
f 10/10/3 11/11/3 12/12/3
f 12/12/3 13/13/3 10/10/3
f 14/14/4 15/15/4 16/16/4
f 16/16/4 17/17/4 14/14/4
f 8/8/5 5/5/5 6/6/5
f 6/6/5 18/18/5 8/8/5
f 8/19/6 18/20/6 19/21/6
f 19/21/6 20/22/6 8/19/6
f 21/23/7 22/24/7 23/25/7
f 23/25/7 24/26/7 21/23/7
f 23/27/7 25/28/7 24/29/7
f 19/30/8 18/31/8 26/32/8
f 26/32/8 27/33/8 19/30/8
f 9/9/9 28/34/9 1/1/9
f 1/1/9 4/4/9 9/9/9
f 3/35/10 2/36/10 22/24/10
f 22/24/10 21/23/10 3/35/10
f 29/37/11 30/38/11 31/39/11
f 31/39/11 32/40/11 29/37/11
f 22/41/12 28/42/12 33/43/12
f 33/43/12 23/44/12 22/41/12
f 34/45/7 35/46/7 36/47/7
f 36/47/7 37/48/7 34/45/7
f 36/49/13 38/50/13 39/51/13
f 39/51/13 37/52/13 36/49/13
f 40/53/14 32/40/14 31/39/14
f 31/39/14 16/54/14 40/53/14
f 16/54/14 41/55/14 40/53/14
f 16/54/14 39/56/14 41/55/14
f 39/56/14 42/57/14 41/55/14
f 16/54/14 37/58/14 39/56/14
f 16/54/14 34/59/14 37/58/14
f 16/54/14 15/60/14 34/59/14
f 42/57/14 39/56/14 43/61/14
f 32/40/14 40/53/14 44/62/14
f 45/63/4 43/64/4 39/65/4
f 39/65/4 38/66/4 45/63/4
f 14/67/13 35/68/13 34/69/13
f 34/69/13 15/70/13 14/67/13
f 9/71/15 8/19/15 20/22/15
f 20/22/15 46/72/15 9/71/15
f 47/73/13 23/74/13 33/75/13
f 33/75/13 46/76/13 47/73/13
f 46/76/13 12/77/13 47/73/13
f 46/76/13 20/78/13 12/77/13
f 20/78/13 13/79/13 12/77/13
f 20/78/13 19/80/13 13/79/13
f 19/80/13 30/81/13 13/79/13
f 19/80/13 31/82/13 30/81/13
f 19/80/13 27/83/13 31/82/13
f 27/83/13 16/84/13 31/82/13
f 23/74/13 47/73/13 17/85/13
f 17/85/13 25/86/13 23/74/13
f 17/85/13 16/84/13 25/86/13
f 16/84/13 24/87/13 25/86/13
f 16/84/13 27/83/13 24/87/13
f 27/33/16 26/32/16 21/88/16
f 21/88/16 24/89/16 27/33/16
f 12/90/17 11/91/17 48/92/17
f 48/92/17 47/93/17 12/90/17
f 21/88/18 26/32/18 7/94/18
f 7/94/18 3/95/18 21/88/18
f 18/18/19 6/6/19 7/7/19
f 7/7/19 26/96/19 18/18/19
f 29/97/20 10/10/20 13/13/20
f 13/13/20 30/98/20 29/97/20
f 1/99/21 28/42/21 22/41/21
f 22/41/21 2/100/21 1/99/21
f 28/42/22 9/101/22 46/102/22
f 46/102/22 33/43/22 28/42/22
f 49/103/13 48/104/13 11/105/13
f 11/105/13 44/106/13 49/103/13
f 11/105/13 10/107/13 44/106/13
f 10/107/13 29/108/13 44/106/13
f 29/108/13 32/109/13 44/106/13
f 14/110/1 28/34/1 22/111/1
f 22/111/1 21/112/1 14/110/1
f 21/112/1 15/113/1 14/110/1
f 21/112/1 34/114/1 15/113/1
f 21/112/1 43/115/1 34/114/1
f 21/112/1 42/116/1 43/115/1
f 21/112/1 44/117/1 42/116/1
f 21/112/1 32/118/1 44/117/1
f 28/34/1 14/110/1 48/119/1
f 48/119/1 9/9/1 28/34/1
f 14/120/1 35/121/23 48/122/1
f 35/123/23 45/124/24 48/119/1
f 45/124/24 35/123/23 34/114/1
f 34/114/1 43/115/1 45/124/24
f 45/124/24 50/125/25 48/119/1
f 50/126/25 49/127/26 48/128/1
f 49/129/26 50/125/25 42/116/1
f 42/116/1 44/117/1 49/129/26
f 48/119/1 11/130/1 9/9/1
f 11/130/1 8/8/1 9/9/1
f 11/130/1 10/131/1 8/8/1
f 10/131/1 29/132/1 8/8/1
f 29/132/1 18/18/1 8/8/1
f 29/132/1 32/118/1 18/18/1
f 32/118/1 26/96/1 18/18/1
f 32/118/1 21/112/1 26/96/1
f 51/133/27 50/134/27 45/135/27
f 51/133/27 45/135/27 38/136/27
f 51/133/27 38/136/27 17/137/27
f 52/138/27 51/133/27 17/137/27
f 52/138/27 17/137/27 47/93/27
f 49/139/27 52/138/27 47/93/27
f 47/93/27 48/92/27 49/139/27
f 38/136/27 36/140/27 17/137/27
f 36/140/27 14/141/27 17/137/27
f 36/140/27 35/142/27 14/141/27
f 42/143/7 50/144/7 51/145/7
f 51/145/7 41/146/7 42/143/7
f 45/147/13 50/148/13 42/149/13
f 42/149/13 43/150/13 45/147/13
f 51/151/13 52/152/13 40/153/13
f 40/153/13 41/154/13 51/151/13
f 49/155/4 44/156/4 40/157/4
f 40/157/4 52/158/4 49/155/4
