# Blender v2.92.0 OBJ File: 'kenney_OGConvert.blend'
# www.blender.org
o formationLarge_stone
v 9.654243 0.000000 -6.775589
v 10.729239 3.203585 -5.888037
v 11.271649 3.203585 -6.430446
v 11.123458 0.000000 -8.244805
v 2.109775 4.474855 -4.029685
v 2.109775 4.474855 -3.412481
v 3.983716 4.474855 -2.330561
v 3.839338 4.474855 -4.029685
v 4.340299 4.474855 -5.029585
v 3.709472 4.474855 -4.738183
v 4.340300 4.474855 -2.536434
v 10.966419 0.000000 -3.244805
v 12.707689 0.000000 -3.244805
v 13.623459 0.000000 -6.450936
v 10.966420 0.000000 -2.006002
v 7.491928 0.000000 -0.000001
v 7.491927 0.000000 -8.024001
v 6.988361 0.000000 -7.733268
v 5.505728 0.000000 -1.146734
v 3.983717 0.000000 -0.268001
v 3.983715 0.000000 -9.468000
v -0.000000 0.000000 -2.568000
v -0.000001 0.000000 -7.168000
v 7.406382 13.801630 -4.364817
v 6.652861 13.801630 -1.750622
v 7.612118 13.801630 -1.196795
v 9.744997 13.801630 -3.659633
v 9.744998 13.801630 -2.428214
v 4.503861 6.741813 -5.737161
v 4.503861 6.741812 -4.012001
v 7.203701 6.741812 -4.999931
v 7.491927 6.741813 -7.462321
v 10.479989 6.741812 -4.012002
v 10.479989 6.741813 -5.737162
v 10.061660 9.413096 -2.355996
v 10.061659 9.413096 -3.839634
v 10.479990 6.741812 -2.286841
v 7.491928 6.741812 -0.561681
v 7.244053 9.413096 -4.689253
v 6.336195 9.413096 -1.539620
v 10.735279 3.203585 -4.632538
v 10.735279 3.203585 -5.884552
v 4.922192 9.413096 -3.839633
v 4.922192 9.413096 -2.355995
v 7.491928 9.413096 -0.872358
v 4.503861 6.741812 -2.286840
v 12.020829 3.203585 -5.892875
v 11.660839 3.203585 -4.632538
v 4.800763 1.272040 -1.659723
v 3.983717 1.272040 -1.188001
v 4.245932 3.166945 -2.137925
v 4.168213 2.089780 -5.408863
v 4.168213 2.089780 -5.930947
v 4.413588 2.089780 -1.951387
v 5.768743 2.089780 -6.855014
v 6.283397 1.272040 -7.220279
v 0.796742 1.272040 -6.708000
v 3.983716 1.272040 -8.548000
v 0.796743 1.272040 -3.028000
v 0.796743 1.272040 -4.077668
v 1.306658 2.089780 -3.248800
v 1.306658 2.089780 -4.130521
v 5.577203 1.272040 -7.628001
v 3.777461 2.089780 -4.130521
v 3.983717 2.089780 -1.703201
v 3.591940 2.089780 -5.142659
v 3.738175 1.272040 -4.077669
v 3.296456 1.272040 -6.487519
v 3.406418 2.089780 -6.154798
v 5.322245 2.089780 -7.112801
vt 0.958510 0.154353
vt 0.833227 0.112436
vt 0.835921 0.090059
vt 0.965808 0.093741
vt 0.907892 0.956664
vt 0.907892 0.932952
vt 0.979885 0.891387
vt 0.974338 0.956664
vt 0.993584 0.995078
vt 0.969349 0.983883
vt 0.993584 0.899296
vt 0.161360 0.444048
vt 0.286545 0.371456
vt 0.351709 0.417558
vt 0.172656 0.509983
vt 0.300001 0.523861
vt 0.114451 0.452085
vt 0.015951 0.333532
vt 0.319790 0.281478
vt 0.305514 0.264296
vt 0.046488 0.250883
vt 0.003340 0.198951
vt 0.351710 0.139268
vt 0.064589 0.033182
vt 0.238774 0.003340
vt 0.341549 0.663343
vt 0.341549 0.767864
vt 0.300245 0.778102
vt 0.247716 0.664492
vt 0.234613 0.709949
vt 0.834934 0.988369
vt 0.768657 0.988369
vt 0.806611 0.884646
vt 0.901211 0.873573
vt 0.768657 0.758779
vt 0.834934 0.758779
vt 0.564703 0.013402
vt 0.555554 0.178921
vt 0.527055 0.166799
vt 0.541048 0.003341
vt 0.686308 0.536606
vt 0.532175 0.536606
vt 0.542964 0.280942
vt 0.675518 0.280942
vt 0.509826 0.266846
vt 0.358390 0.830500
vt 0.478717 0.821804
vt 0.472463 0.989442
vt 0.372591 0.996660
vt 0.508379 0.526484
vt 0.489412 0.394749
vt 0.476687 0.252749
vt 0.465363 0.384519
vt 0.480918 0.543286
vt 0.587119 0.551005
vt 0.567277 0.653130
vt 0.475944 0.646492
vt 0.907892 0.828637
vt 0.923678 0.773869
vt 0.984563 0.758778
vt 0.984563 0.884706
vt 0.669551 0.178921
vt 0.358391 0.543286
vt 0.370570 0.646492
vt 0.158042 0.779309
vt 0.227932 0.796602
vt 0.224561 0.897766
vt 0.164454 0.882894
vt 0.348230 0.663344
vt 0.348230 0.663344
vt 0.348230 0.663344
vt 0.092031 0.785149
vt 0.107686 0.887917
vt 0.463556 0.815123
vt 0.376096 0.815123
vt 0.659320 0.013402
vt 0.505173 0.830500
vt 0.494421 0.996660
vt 0.960017 0.003341
vt 0.834186 0.062968
vt 0.971545 0.564258
vt 0.971545 0.612358
vt 0.935987 0.612358
vt 0.950939 0.543286
vt 0.922157 0.563938
vt 0.971777 0.564124
vt 0.458618 0.399115
vt 0.450445 0.534698
vt 0.358391 0.512821
vt 0.422431 0.390514
vt 0.679501 0.801852
vt 0.746873 0.797417
vt 0.736908 0.853081
vt 0.700741 0.855462
vt 0.962233 0.233442
vt 0.702474 0.227976
vt 0.833216 0.112215
vt 0.697330 0.118683
vt 0.141053 0.693929
vt 0.152009 0.642832
vt 0.045656 0.702368
vt 0.026021 0.790989
vt 0.023317 0.612934
vt 0.003340 0.614701
vt 0.181476 0.530542
vt 0.227932 0.542037
vt 0.164987 0.574493
vt 0.155931 0.603130
vt 0.876244 0.300677
vt 0.871163 0.364700
vt 0.692988 0.347501
vt 0.909385 0.280754
vt 0.960634 0.253586
vt 0.965807 0.363484
vt 0.953161 0.522838
vt 0.903227 0.492350
vt 0.913345 0.364867
vt 0.593800 0.845161
vt 0.632180 0.890109
vt 0.593800 0.543286
vt 0.761976 0.597500
vt 0.728876 0.643650
vt 0.690500 0.631279
vt 0.594334 0.600279
vt 0.710340 0.674183
vt 0.678104 0.663791
vt 0.910601 0.306583
vt 0.348171 0.622093
vt 0.253597 0.625047
vt 0.281969 0.532609
vt 0.348171 0.530541
vt 0.761976 0.712842
vt 0.711227 0.790736
vt 0.675082 0.763675
vt 0.712893 0.889401
vt 0.731921 0.888148
vt 0.732718 0.930618
vt 0.731089 0.982356
vt 0.746873 0.981317
vt 0.652516 0.756401
vt 0.324909 0.820422
vt 0.327403 0.910652
vt 0.300122 0.909299
vt 0.285937 0.818489
vt 0.557254 0.914668
vt 0.558972 0.821803
vt 0.581879 0.821803
vt 0.582330 0.914668
vt 0.768657 0.633015
vt 0.815135 0.543286
vt 0.915477 0.595262
vt 0.857826 0.669664
vt 0.844862 0.752097
vt 0.915477 0.748870
vt 0.234613 0.784783
vt 0.327403 0.789386
vt 0.246965 0.816556
vt 0.655302 0.918504
vt 0.904108 0.397293
vt 0.871559 0.393204
vt 0.877013 0.317008
vt 0.347202 0.653146
vt 0.234613 0.656663
vt 0.529793 0.892677
vt 0.550574 0.832717
vt 0.550574 0.915008
vt 0.512608 0.926023
vt 0.511853 0.901649
vt 0.534044 0.821804
vn -0.6708 0.3164 -0.6708
vn 0.0000 1.0000 -0.0000
vn 0.0000 -1.0000 -0.0000
vn 0.9985 0.0555 -0.0000
vn 0.9961 0.0880 -0.0000
vn 0.9961 0.0885 -0.0000
vn 0.4992 0.0555 0.8647
vn 0.4989 0.0660 0.8641
vn 0.4989 0.0661 0.8641
vn 0.9962 0.0871 0.0000
vn 0.9971 0.0765 -0.0000
vn -0.9600 0.0431 -0.2767
vn -0.3423 0.0878 -0.9355
vn 0.4991 0.0588 0.8645
vn 0.4991 0.0586 0.8645
vn 0.2877 0.0821 -0.9542
vn 0.2881 0.0646 -0.9554
vn 0.2881 0.0650 -0.9554
vn -0.4989 0.0660 0.8641
vn -0.4989 0.0661 0.8641
vn -0.4988 0.0687 0.8640
vn -0.4985 0.0772 0.8635
vn -0.5886 -0.6318 0.5043
vn -0.9971 0.0765 -0.0000
vn -0.9962 0.0871 0.0000
vn -0.9928 0.1197 -0.0000
vn 0.2884 0.0463 -0.9564
vn 0.2884 0.0462 -0.9564
vn 0.4996 0.0387 0.8654
vn -0.4991 0.0597 0.8645
vn 0.5530 0.3164 -0.7707
vn 0.9121 0.3164 0.2605
vn 0.4504 0.4344 0.7801
vn 0.4504 0.4344 0.7800
vn 0.4552 0.4136 0.7885
vn 0.4550 0.4145 0.7881
vn 0.0000 0.3164 0.9486
vn 0.4992 0.0555 -0.8647
vn 0.4993 0.0555 -0.8647
vn -0.9985 0.0555 0.0000
vn -0.4992 0.0555 0.8647
vn -0.4992 0.0555 -0.8647
vn -0.4504 0.4344 -0.7801
vn -0.4504 0.4344 0.7801
vn -0.4550 0.4145 0.7881
vn -0.4549 0.4150 0.7879
vn -0.9007 0.4344 -0.0000
vn -0.9011 0.4337 0.0000
vn -0.9010 0.4339 0.0000
vn -0.9367 0.3501 -0.0000
vn -0.9393 0.3431 0.0000
vn 0.4504 0.4344 -0.7800
vn 0.4504 0.4344 -0.7801
vn 0.4470 0.4479 -0.7743
vn 0.4459 0.4523 -0.7724
vn -0.0000 -0.0079 -1.0000
vn 0.0000 -0.0173 -0.9999
vn -0.0000 0.0326 -0.9995
vn -0.4773 0.2976 0.8268
vn -0.4782 0.2924 0.8282
vn -0.4925 0.1728 0.8530
vn 0.4782 0.2924 0.8282
vn 0.4788 0.2884 0.8292
vn 0.4925 0.1728 0.8530
vn -0.9680 0.2510 0.0000
vn -0.9832 0.0296 0.1802
vn -0.9835 0.0138 0.1803
vn -0.9830 0.0354 0.1802
vn -0.4156 0.1333 -0.8997
vn -0.9826 0.0453 0.1801
vn -0.4252 0.3104 -0.8502
vn -0.0000 -0.0497 -0.9988
vn 0.4399 0.4753 -0.7620
s 1
f 1/1/1 2/2/1 3/3/1
f 3/3/1 4/4/1 1/1/1
f 5/5/2 6/6/2 7/7/2
f 7/7/2 8/8/2 5/5/2
f 8/8/2 7/7/2 9/9/2
f 9/9/2 10/10/2 8/8/2
f 7/7/2 11/11/2 9/9/2
f 12/12/3 1/13/3 4/14/3
f 4/14/3 13/15/3 12/12/3
f 4/14/3 14/16/3 13/15/3
f 1/13/3 12/12/3 15/17/3
f 1/13/3 15/17/3 16/18/3
f 17/19/3 1/13/3 16/18/3
f 18/20/3 17/19/3 16/18/3
f 18/20/3 16/18/3 19/21/3
f 18/20/3 19/21/3 20/22/3
f 21/23/3 18/20/3 20/22/3
f 21/23/3 20/22/3 22/24/3
f 22/24/3 23/25/3 21/23/3
f 24/26/2 25/27/2 26/28/2
f 26/28/2 27/29/2 24/26/2
f 26/28/2 28/30/2 27/29/2
f 29/31/2 30/32/2 31/33/2
f 31/33/2 32/34/2 29/31/2
f 31/33/2 33/35/2 32/34/2
f 33/35/2 34/36/2 32/34/2
f 28/37/4 35/38/5 36/39/6
f 36/39/6 27/40/4 28/37/4
f 16/41/7 15/42/7 37/43/8
f 37/43/8 38/44/9 16/41/7
f 35/38/5 37/43/10 33/45/11
f 33/45/11 36/39/6 35/38/5
f 39/46/12 40/47/12 25/48/12
f 25/48/12 24/49/12 39/46/12
f 37/43/10 15/42/4 12/50/4
f 12/50/4 33/45/11 37/43/10
f 12/50/4 41/51/4 33/45/11
f 41/51/4 34/52/4 33/45/11
f 41/51/4 42/53/4 34/52/4
f 31/54/13 30/55/13 43/56/13
f 43/56/13 39/57/13 31/54/13
f 43/58/2 44/59/2 40/60/2
f 40/60/2 39/61/2 43/58/2
f 38/44/9 37/43/8 35/38/14
f 35/38/14 45/62/15 38/44/9
f 33/63/16 31/54/16 39/57/17
f 39/57/17 36/64/18 33/63/16
f 46/65/19 38/66/20 45/67/21
f 45/67/21 44/68/22 46/65/19
f 45/69/21 40/70/23 44/71/22
f 30/72/24 46/65/25 44/68/26
f 44/68/26 43/73/26 30/72/24
f 36/64/18 39/57/17 24/74/27
f 24/74/27 27/75/28 36/64/18
f 45/62/15 35/38/14 28/37/29
f 28/37/29 26/76/29 45/62/15
f 40/47/23 45/77/21 26/78/30
f 26/78/30 25/48/30 40/47/23
f 14/79/31 4/4/31 3/3/31
f 3/3/31 47/80/31 14/79/31
f 42/81/2 41/82/2 48/83/2
f 48/83/2 3/84/2 42/81/2
f 48/83/2 47/85/2 3/84/2
f 2/86/2 42/81/2 3/84/2
f 48/87/32 13/88/32 14/89/32
f 14/89/32 47/90/32 48/87/32
f 20/91/33 19/92/34 49/93/35
f 49/93/35 50/94/36 20/91/33
f 41/51/37 12/50/37 13/88/37
f 13/88/37 48/87/37 41/51/37
f 1/1/38 17/95/38 32/96/38
f 32/96/38 2/2/39 1/1/38
f 32/96/38 42/97/39 2/2/39
f 32/96/38 34/98/38 42/97/39
f 11/99/40 51/100/40 46/65/25
f 46/65/25 30/72/24 11/99/40
f 30/72/24 9/101/40 11/99/40
f 30/72/24 29/102/40 9/101/40
f 29/102/40 52/103/40 9/101/40
f 29/102/40 53/104/40 52/103/40
f 19/105/41 16/106/41 38/66/20
f 38/66/20 49/107/41 19/105/41
f 38/66/20 54/108/41 49/107/41
f 38/66/20 51/100/41 54/108/41
f 38/66/20 46/65/19 51/100/41
f 55/109/42 53/110/42 29/111/42
f 55/109/42 29/111/42 32/96/42
f 56/112/42 55/109/42 32/96/42
f 56/112/42 32/96/42 17/95/42
f 17/95/42 18/113/42 56/112/42
f 21/114/43 23/115/43 57/116/43
f 57/116/43 58/117/43 21/114/43
f 22/118/44 20/91/44 50/94/45
f 50/94/45 59/119/46 22/118/44
f 23/120/47 22/121/47 59/122/48
f 59/122/48 60/123/49 23/120/47
f 60/123/49 57/124/47 23/120/47
f 60/123/49 59/122/48 61/125/50
f 61/125/50 62/126/51 60/123/49
f 18/113/52 21/114/53 58/117/53
f 58/117/53 63/127/54 18/113/52
f 63/127/54 56/112/55 18/113/52
f 64/128/56 62/129/57 5/130/58
f 5/130/58 8/131/58 64/128/56
f 61/125/59 65/132/60 7/133/61
f 7/133/61 6/134/61 61/125/59
f 65/135/62 54/136/63 51/137/64
f 51/137/64 7/138/64 65/135/62
f 51/137/64 11/139/64 7/138/64
f 62/126/51 61/125/50 6/134/65
f 6/134/65 5/140/65 62/126/51
f 64/141/66 8/142/67 10/143/67
f 10/143/67 66/144/68 64/141/66
f 9/145/69 52/146/69 66/147/69
f 66/147/69 10/148/69 9/145/69
f 57/149/2 60/150/2 67/151/2
f 67/151/2 68/152/2 57/149/2
f 58/153/2 57/149/2 68/152/2
f 68/152/2 63/154/2 58/153/2
f 68/155/70 67/156/70 64/141/66
f 64/141/66 66/144/68 68/155/70
f 66/144/68 69/157/70 68/155/70
f 59/119/46 50/94/45 65/135/60
f 65/135/60 61/158/59 59/119/46
f 65/135/62 50/94/36 49/93/35
f 49/93/35 54/136/63 65/135/62
f 63/127/71 68/159/71 69/160/71
f 69/160/71 70/161/71 63/127/71
f 67/162/72 60/163/72 62/129/57
f 62/129/57 64/128/56 67/162/72
f 53/164/2 70/165/2 69/166/2
f 69/166/2 66/167/2 53/164/2
f 66/167/2 52/168/2 53/164/2
f 53/164/2 55/169/2 70/165/2
f 56/112/55 63/127/54 70/161/73
f 70/161/73 55/109/73 56/112/55
