# Blender v2.82 (sub 7) OBJ File: 'LODTerrain.blend'
# www.blender.org
o lod_1_074_Cube.074
v 381.570648 1.612656 -600.159546
v 389.897339 -4.316505 -605.923340
v 389.517090 -6.113824 -615.998657
v 388.953491 -10.194268 -623.713928
v 399.109009 -13.611073 -621.512451
v 389.486145 -16.264580 -635.804688
v 390.876099 -21.756077 -650.332642
v 384.035400 -22.597754 -655.501465
v 406.294861 -6.992637 -608.918274
v 419.019226 -13.235924 -620.565674
v 428.296204 -6.347736 -605.987488
v 428.801086 -13.824712 -630.549316
v 426.897980 -11.054473 -621.879028
v 437.796204 -20.239132 -644.998535
v 424.459839 -29.510719 -676.594238
v 440.526306 -17.257668 -622.819763
v 438.783997 -12.330082 -618.923340
v 458.864563 -20.704163 -624.734802
v 452.464783 -14.673742 -611.311523
v 466.880249 -15.043808 -578.908997
v 400.959412 0.371462 -591.754333
v 423.401306 -7.772475 -576.583130
v 468.553101 -37.471535 -667.536560
v 410.846558 -32.912170 -700.056885
v 461.802368 -41.337360 -693.107666
v 419.824585 -33.680710 -732.249390
v 480.358765 -22.777676 -611.680725
v 511.431396 -35.215221 -645.457336
v 459.127258 -38.118679 -738.096313
v 513.776978 -24.470661 -601.237122
v 491.182129 -21.447121 -587.257263
v 565.135376 -20.704216 -624.734802
v 571.535217 -14.673780 -611.311584
v 561.520874 -13.838145 -582.098145
v 556.493835 -37.300056 -667.768738
v 562.197632 -41.337395 -693.107727
v 536.135803 -20.194946 -583.637695
v 541.361816 -24.327856 -616.650146
v 559.561890 -38.354355 -737.954285
v 512.000244 -45.957096 -701.276550
v 515.929810 -44.472160 -679.689148
v 528.667297 -21.720060 -571.875000
v 509.105103 -23.482647 -571.875000
v 494.452423 -21.646156 -571.875000
v 472.324219 -16.120773 -571.875000
v 467.525330 -15.651800 -571.875000
v 460.853394 -14.682495 -571.875000
v 425.274567 -8.549001 -571.875000
v 571.875000 -12.230980 -580.636902
v 571.875000 -11.569283 -589.334351
v 571.875000 -13.086916 -571.875000
v 568.389893 -13.675922 -571.875000
v 571.875000 -14.556730 -611.236694
v 552.447327 -16.193844 -571.875000
v 536.616821 -20.165485 -571.875000
v 571.875000 -14.615574 -611.500610
v 571.875000 -17.893635 -622.784302
v 571.875000 -19.437567 -624.030945
v 571.875000 -20.555452 -631.216980
v 571.875000 -28.467453 -655.980347
v 571.875000 -39.737312 -694.427490
v 571.875000 -38.272507 -688.828186
v 571.875000 -39.572266 -702.131287
v 571.875000 -34.516804 -670.922180
v 571.875000 -37.064461 -736.379761
v 571.875000 -26.710138 -762.500000
v 570.044189 -26.994650 -762.500000
v 571.875000 -37.982674 -721.395752
v 553.456177 -29.648445 -762.500000
v 515.277100 -32.818436 -762.500000
v 509.081299 -32.781967 -762.500000
v 417.460388 -7.072772 -571.875000
v 388.444092 1.886456 -571.875000
v 381.250000 5.825592 -579.003113
v 381.250000 5.603346 -578.080933
v 381.250000 5.875244 -579.765503
v 502.625793 -32.792713 -762.500000
v 451.652222 -26.920059 -762.500000
v 435.759491 -24.166025 -762.500000
v 405.083954 -22.471781 -762.500000
v 381.250000 -19.748915 -747.271179
v 381.250000 -28.820072 -725.551208
v 381.250000 -30.110985 -709.077881
v 381.250000 -30.120125 -705.145264
v 463.193512 -28.769859 -762.500000
v 389.256012 -18.663260 -762.500000
v 383.023499 -16.938427 -762.500000
v 381.250000 -17.463360 -757.814392
v 381.250000 4.883348 -571.875000
v 381.250000 4.965715 -582.209534
v 381.250000 0.640032 -605.993835
v 381.250000 1.767038 -600.310425
v 381.250000 2.614975 -595.546326
v 381.250000 1.727819 -600.125793
v 381.250000 1.741337 -599.897949
v 381.250000 2.971682 -613.468933
v 381.250000 3.866976 -609.349915
v 381.250000 0.940096 -616.878540
v 381.250000 -0.650373 -621.311157
v 381.250000 0.321072 -623.870300
v 381.250000 -1.355160 -633.430115
v 381.250000 0.634935 -628.777588
v 381.250000 -6.937301 -638.626587
v 381.250000 -7.225905 -639.731995
v 381.250000 -12.330822 -648.254822
v 381.250000 -14.135799 -649.845703
v 381.250000 -21.251816 -654.825623
v 381.250000 -27.313091 -687.182068
v 381.250000 -22.445644 -656.641602
v 381.250000 -22.049149 -655.676270
v 381.250000 -16.288639 -762.500000
vt 0.082783 0.128615
vt 0.082781 0.128906
vt 0.082559 0.128909
vt 0.092120 0.127275
vt 0.083016 0.128887
vt 0.092233 0.118813
vt 0.095908 0.127175
vt 0.100997 0.120591
vt 0.103591 0.127645
vt 0.099478 0.127761
vt 0.106946 0.109969
vt 0.110408 0.120813
vt 0.114814 0.127686
vt 0.110355 0.128112
vt 0.121621 0.119491
vt 0.125483 0.127824
vt 0.124366 0.127828
vt 0.136325 0.118029
vt 0.134558 0.127077
vt 0.133163 0.127029
vt 0.094862 0.103899
vt 0.105208 0.090640
vt 0.088074 0.081399
vt 0.106513 0.081626
vt 0.116254 0.081554
vt 0.132403 0.072593
vt 0.157531 0.080013
vt 0.108537 0.069326
vt 0.102721 0.071666
vt 0.110355 0.055176
vt 0.096087 0.057474
vt 0.064009 0.047219
vt 0.078005 0.108129
vt 0.062774 0.085452
vt 0.079326 0.127794
vt 0.069930 0.124155
vt 0.066866 0.123820
vt 0.058951 0.118436
vt 0.057925 0.091735
vt 0.152579 0.041894
vt 0.185168 0.099106
vt 0.175315 0.049360
vt 0.214642 0.090124
vt 0.139905 0.124623
vt 0.187196 0.125318
vt 0.171913 0.127785
vt 0.141036 0.127355
vt 0.140113 0.127381
vt 0.190703 0.125198
vt 0.230094 0.127027
vt 0.208253 0.128088
vt 0.244356 0.119754
vt 0.240133 0.127249
vt 0.098011 0.030339
vt 0.076909 0.016756
vt 0.130707 0.001290
vt 0.164867 0.009967
vt 0.244993 0.104653
vt 0.247285 0.012716
vt 0.191992 0.018295
vt 0.222797 0.044558
vt 0.222094 0.048922
vt 0.247179 0.013290
vt 0.244654 0.046550
vt 0.242820 0.073698
vt 0.243700 0.057013
vt 0.087676 0.004764
vt 0.110355 0.055176
vt 0.107793 0.060710
vt 0.109687 0.060377
vt 0.096087 0.057474
vt 0.095974 0.057810
vt 0.096251 0.057827
vt 0.073359 0.058291
vt 0.066964 0.048249
vt 0.065854 0.058107
vt 0.117408 0.060748
vt 0.141976 0.058646
vt 0.152251 0.043674
vt 0.102278 0.027988
vt 0.071858 0.026077
vt 0.154138 0.056659
vt 0.175315 0.049360
vt 0.248278 0.041176
vt 0.206705 0.064954
vt 0.220546 0.057134
vt 0.244063 0.055125
vt 0.057340 0.017565
vt 0.139446 0.127570
vt 0.107563 0.128071
vt 0.058686 0.007737
vt 0.060870 0.015345
vt 0.058218 0.046597
vt 0.057310 0.041845
vt 0.057337 0.051583
vt 0.058170 0.083134
vt 0.177186 0.058808
vt 0.184382 0.058758
vt 0.056754 0.039534
vt 0.057286 0.053794
vt 0.244541 0.125666
vt 0.244634 0.127340
vt 0.170706 0.057304
vt 0.119121 0.127370
vt 0.058740 0.025637
vt 0.065875 0.123980
vt 0.059206 0.125694
vt 0.067582 0.123943
vt 0.247601 0.008693
vt 0.243938 0.056994
vt 0.057388 0.057165
vn 0.4415 0.8881 -0.1274
vn 0.3432 0.9370 0.0643
vn 0.2575 0.9540 -0.1536
vn 0.4736 0.8304 0.2934
vn 0.4475 0.8935 -0.0367
vn 0.3351 0.9214 -0.1965
vn 0.6551 0.7449 0.1257
vn 0.4787 0.8000 -0.3615
vn 0.6490 0.6701 -0.3601
vn 0.6847 0.6891 -0.2374
vn 0.1546 0.9001 -0.4073
vn 0.6039 0.7260 -0.3287
vn 0.8333 0.5419 -0.1088
vn 0.8002 0.5880 0.1177
vn 0.5523 0.7771 -0.3019
vn 0.7326 0.6446 -0.2183
vn 0.7504 0.5531 -0.3619
vn 0.2275 0.9058 -0.3573
vn 0.4082 0.5963 -0.6912
vn 0.5488 0.6706 -0.4991
vn 0.0741 0.9064 -0.4159
vn -0.0866 0.9583 -0.2723
vn 0.1505 0.9734 -0.1723
vn -0.0369 0.9439 -0.3281
vn 0.1461 0.9590 -0.2428
vn 0.2237 0.9298 -0.2923
vn 0.1342 0.9553 -0.2633
vn 0.2057 0.8485 -0.4876
vn 0.2324 0.8521 -0.4689
vn 0.2247 0.9332 -0.2805
vn 0.2885 0.9375 -0.1943
vn 0.2053 0.9785 -0.0161
vn 0.1780 0.9717 -0.1553
vn 0.2185 0.9705 0.1018
vn 0.4968 0.8546 -0.1511
vn 0.1049 0.9384 -0.3291
vn 0.2968 0.9448 0.1384
vn 0.3081 0.9301 0.1999
vn 0.2662 0.9438 0.1956
vn 0.1635 0.9512 -0.2615
vn 0.1254 0.9876 -0.0938
vn 0.1405 0.9875 -0.0711
vn 0.1417 0.9727 0.1839
vn 0.1801 0.8809 -0.4376
vn 0.1052 0.9921 -0.0678
vn 0.1180 0.9808 -0.1552
vn 0.1513 0.9585 -0.2417
vn 0.1954 0.8216 -0.5355
vn 0.1082 0.9937 0.0271
vn 0.2330 0.9347 0.2684
vn 0.1592 0.9628 0.2182
vn 0.2530 0.9438 0.2128
vn 0.2701 0.9402 0.2076
vn 0.1902 0.9668 -0.1703
vn 0.1609 0.9846 -0.0677
vn 0.0154 0.9648 -0.2627
vn -0.0133 0.9860 -0.1663
vn 0.1663 0.9483 0.2703
vn -0.0085 0.9720 0.2345
vn 0.0036 0.9987 0.0493
vn -0.0958 0.9705 0.2211
vn 0.1052 0.9701 0.2188
vn 0.0151 0.9709 0.2388
vn 0.1187 0.9204 0.3724
vn 0.1202 0.9271 0.3549
vn 0.1539 0.9151 0.3728
vn -0.0093 0.9911 -0.1327
vn -0.2435 0.9232 -0.2974
vn -0.2179 0.8524 -0.4752
vn -0.1021 0.8396 -0.5335
vn -0.2864 0.9378 -0.1959
vn -0.2891 0.9434 -0.1625
vn -0.2947 0.9235 -0.2456
vn -0.2576 0.9640 -0.0663
vn -0.2157 0.9763 -0.0131
vn -0.1647 0.9825 0.0862
vn -0.2655 0.9298 -0.2547
vn -0.2830 0.9074 -0.3106
vn -0.1752 0.9509 -0.2551
vn -0.1764 0.9594 -0.2199
vn -0.1957 0.9790 -0.0568
vn -0.2257 0.9341 -0.2764
vn -0.1434 0.9872 -0.0696
vn -0.1082 0.9281 0.3561
vn -0.1089 0.9916 0.0691
vn -0.1279 0.9702 0.2058
vn -0.1445 0.9201 0.3641
vn -0.1565 0.9876 -0.0132
vn 0.1156 0.6263 -0.7709
vn 0.7742 0.6322 -0.0290
vn 0.0282 0.9992 -0.0291
vn 0.1758 0.9841 -0.0246
vn 0.1187 0.9901 0.0747
vn 0.2009 0.9796 -0.0055
vn 0.1621 0.9828 0.0884
vn 0.1750 0.9802 0.0920
vn -0.1762 0.9787 -0.1051
vn -0.1192 0.9907 0.0659
vn -0.2203 0.9750 0.0291
vn -0.1626 0.9822 0.0936
vn 0.2910 0.9323 0.2146
vn 0.3348 0.9140 0.2291
vn -0.2059 0.9541 -0.2175
vn 0.8152 0.4975 -0.2963
vn -0.2184 0.9758 0.0065
vn 0.3141 0.9296 0.1927
vn 0.3823 0.9178 0.1065
vn 0.2277 0.9711 -0.0714
vn 0.0020 0.9776 0.2103
vn -0.1429 0.9200 0.3647
vn -0.1659 0.9814 0.0959
s 1
f 1/1/1 94/2/2 95/3/3
f 1/1/1 91/4/4 92/5/5
f 2/6/6 97/7/7 91/4/4
f 3/8/8 97/7/7 2/6/6
f 3/8/8 98/9/9 96/10/10
f 5/11/11 4/12/12 3/8/8
f 4/12/12 102/13/13 100/14/14
f 6/15/15 102/13/13 4/12/12
f 5/11/11 6/15/15 4/12/12
f 6/15/15 104/16/16 103/17/17
f 7/18/18 106/19/19 105/20/20
f 7/18/18 6/15/15 5/11/11
f 9/21/21 5/11/11 3/8/8
f 9/21/21 3/8/8 2/6/6
f 10/22/22 5/11/11 9/21/21
f 11/23/23 10/22/22 9/21/21
f 11/23/23 13/24/24 10/22/22
f 13/24/24 12/25/25 10/22/22
f 10/22/22 12/25/25 5/11/11
f 5/11/11 12/25/25 7/18/18
f 14/26/26 15/27/27 12/25/25
f 16/28/28 12/25/25 13/24/24
f 16/28/28 14/26/26 12/25/25
f 17/29/29 13/24/24 11/23/23
f 16/28/28 13/24/24 17/29/29
f 18/30/30 16/28/28 17/29/29
f 19/31/31 18/30/30 17/29/29
f 19/31/31 17/29/29 11/23/23
f 20/32/32 19/31/31 11/23/23
f 21/33/33 11/23/23 9/21/21
f 20/32/32 11/23/23 22/34/34
f 11/23/23 21/33/33 22/34/34
f 9/21/21 2/6/6 21/33/33
f 2/6/6 93/35/35 90/36/36
f 74/37/37 73/38/38 72/39/39
f 21/33/33 74/37/37 22/34/34
f 18/30/30 14/26/26 16/28/28
f 14/26/26 23/40/40 15/27/27
f 18/30/30 23/40/40 14/26/26
f 12/25/25 15/27/27 7/18/18
f 15/27/27 24/41/41 7/18/18
f 15/27/27 25/42/42 24/41/41
f 24/41/41 25/42/42 26/43/43
f 7/18/18 24/41/41 8/44/44
f 24/41/41 84/45/45 108/46/46
f 8/44/44 108/46/46 109/47/47
f 8/44/44 109/47/47 110/48/48
f 83/49/49 24/41/41 26/43/43
f 26/43/43 81/50/50 82/51/51
f 86/52/52 88/53/53 81/50/50
f 20/32/32 27/54/54 19/31/31
f 31/55/55 27/54/54 20/32/32
f 27/54/54 18/30/30 19/31/31
f 27/54/54 28/56/56 18/30/30
f 28/56/56 23/40/40 18/30/30
f 23/40/40 25/42/42 15/27/27
f 23/40/40 41/57/57 25/42/42
f 28/56/56 41/57/57 23/40/40
f 26/43/43 80/58/58 86/52/52
f 70/59/59 40/60/60 39/61/61
f 29/62/62 77/63/63 85/64/64
f 40/60/60 77/63/63 29/62/62
f 41/57/57 40/60/60 25/42/42
f 25/42/42 40/60/60 26/43/43
f 40/60/60 29/62/62 26/43/43
f 29/62/62 79/65/65 26/43/43
f 29/62/62 85/64/64 78/66/66
f 26/43/43 79/65/65 80/58/58
f 30/67/67 28/56/56 27/54/54
f 31/55/55 30/67/67 27/54/54
f 32/68/68 57/69/69 58/70/70
f 33/71/71 57/69/69 32/68/68
f 33/71/71 53/72/72 56/73/73
f 50/74/74 33/71/71 34/75/75
f 34/75/75 49/76/76 50/74/74
f 32/68/68 58/70/70 59/77/77
f 32/68/68 60/78/78 35/79/79
f 34/75/75 33/71/71 38/80/80
f 37/81/81 34/75/75 38/80/80
f 38/80/80 33/71/71 32/68/68
f 38/80/80 32/68/68 35/79/79
f 38/80/80 35/79/79 41/57/57
f 64/82/82 36/83/83 35/79/79
f 35/79/79 36/83/83 41/57/57
f 28/56/56 38/80/80 41/57/57
f 39/61/61 69/84/84 70/59/59
f 41/57/57 36/83/83 40/60/60
f 36/83/83 68/85/85 40/60/60
f 68/85/85 39/61/61 40/60/60
f 65/86/86 67/87/87 39/61/61
f 39/61/61 67/87/87 69/84/84
f 30/67/67 38/80/80 28/56/56
f 37/81/81 38/80/80 30/67/67
f 42/88/88 37/81/81 30/67/67
f 107/89/89 106/19/19 8/44/44
f 99/90/90 98/9/9 4/12/12
f 43/91/91 31/55/55 44/92/92
f 46/93/93 45/94/94 20/32/32
f 47/95/95 22/34/34 48/96/96
f 100/14/14 99/90/90 4/12/12
f 61/97/97 63/98/98 36/83/83
f 54/99/99 52/100/100 34/75/75
f 45/94/94 31/55/55 20/32/32
f 60/78/78 64/82/82 35/79/79
f 52/100/100 49/76/76 34/75/75
f 82/51/51 83/49/49 26/43/43
f 87/101/101 111/102/102 88/53/53
f 62/103/103 61/97/97 36/83/83
f 95/3/3 93/35/35 1/1/1
f 90/36/36 21/33/33 2/6/6
f 103/17/17 101/104/104 6/15/15
f 43/91/91 42/88/88 30/67/67
f 110/48/48 107/89/89 8/44/44
f 72/39/39 48/96/96 22/34/34
f 105/20/20 104/16/16 7/18/18
f 54/99/99 37/81/81 55/105/105
f 47/95/95 46/93/93 20/32/32
f 92/5/5 94/2/2 1/1/1
f 75/106/106 89/107/107 73/38/38
f 1/1/1 2/6/6 91/4/4
f 3/8/8 96/10/10 97/7/7
f 3/8/8 4/12/12 98/9/9
f 6/15/15 101/104/104 102/13/13
f 6/15/15 7/18/18 104/16/16
f 7/18/18 8/44/44 106/19/19
f 2/6/6 1/1/1 93/35/35
f 72/39/39 22/34/34 74/37/37
f 74/37/37 75/106/106 73/38/38
f 21/33/33 76/108/108 74/37/37
f 8/44/44 24/41/41 108/46/46
f 83/49/49 84/45/45 24/41/41
f 81/50/50 26/43/43 86/52/52
f 86/52/52 87/101/101 88/53/53
f 70/59/59 71/109/109 40/60/60
f 40/60/60 71/109/109 77/63/63
f 29/62/62 78/66/66 79/65/65
f 33/71/71 56/73/73 57/69/69
f 50/74/74 53/72/72 33/71/71
f 32/68/68 59/77/77 60/78/78
f 64/82/82 62/103/103 36/83/83
f 36/83/83 63/98/98 68/85/85
f 68/85/85 65/86/86 39/61/61
f 65/86/86 66/110/110 67/87/87
f 42/88/88 55/105/105 37/81/81
f 43/91/91 30/67/67 31/55/55
f 47/95/95 20/32/32 22/34/34
f 45/94/94 44/92/92 31/55/55
f 52/100/100 51/111/111 49/76/76
f 90/36/36 76/108/108 21/33/33
f 54/99/99 34/75/75 37/81/81
