# Blender v2.82 (sub 7) OBJ File: 'LODTerrain.blend'
# www.blender.org
o lod_1_153_Cube.153
v 376.662750 15.597769 194.838333
v 378.582886 10.252113 214.132187
v 371.399353 5.418540 226.303513
v 381.237732 5.950658 225.297531
v 378.838196 -0.792293 234.350037
v 375.385681 1.466477 237.085907
v 366.721008 -5.430804 239.841766
v 373.282135 -12.842157 254.113953
v 364.097656 -17.462515 335.383850
v 368.137360 -20.901175 300.154907
v 343.976379 -8.021760 267.877655
v 328.995850 -18.427504 321.416931
v 340.094727 2.030504 238.770813
v 332.668091 0.444476 245.930695
v 327.283997 -16.969362 296.860107
v 311.542969 -10.647448 265.366425
v 284.773987 -20.877838 316.377075
v 338.280945 -11.060735 355.208832
v 324.770874 -4.622567 373.976379
v 321.613068 -5.344499 357.448212
v 312.330322 -10.446537 348.990234
v 299.922058 -4.786160 352.756409
v 255.660675 -6.108021 375.635406
v 289.249573 -3.976641 361.642822
v 275.714111 -4.099290 369.258148
v 249.280975 -22.922668 309.318298
v 256.433502 -23.651251 289.330750
v 235.827850 -19.709579 324.028564
v 203.312225 -12.126110 347.850983
v 190.886322 -2.055946 373.460754
v 196.599670 -14.832428 324.417908
v 233.407166 -23.109585 292.186188
v 232.326950 -22.465475 264.956390
v 196.330612 -17.299355 290.953735
v 224.918915 -11.459104 244.701691
v 212.456757 -7.298820 206.969940
v 237.176575 -12.626977 248.682617
v 250.131958 -9.510037 241.826263
v 242.584869 -15.934788 249.133484
v 262.320923 -16.812094 254.037018
v 255.771667 -11.205521 247.449066
v 274.609863 -14.137270 256.288666
v 262.043396 -3.862729 241.000305
v 271.247803 -3.307873 244.465210
v 297.809174 3.111518 240.513412
v 284.556824 -2.923607 251.259186
v 291.505005 -5.893204 254.260193
v 281.848145 -11.630765 264.309937
v 287.410431 -21.411118 298.520447
v 295.057373 -15.441384 273.973877
v 294.288910 -7.685509 263.877625
v 312.507843 -2.506280 248.652374
v 320.528992 0.141379 244.580048
v 347.643494 -0.660986 234.195999
v 331.533081 10.663024 208.744080
v 349.404846 9.263020 222.470856
v 355.994263 5.346816 226.259460
v 357.746979 3.290172 233.494049
v 352.720734 12.850662 198.679688
v 311.590881 5.345130 233.998047
v 293.431152 4.722311 220.757019
v 309.849396 6.667302 202.773834
v 270.829254 1.908156 206.583801
v 316.465454 9.143954 372.058929
v 307.392242 -0.787122 364.323730
v 302.182251 13.003260 375.787354
v 284.768799 13.136790 373.208038
v 264.001587 1.985791 377.410950
v 381.250000 -12.969613 252.876266
v 381.250000 -15.383850 258.783508
v 381.250000 -6.672282 249.259399
v 381.250000 -13.011435 252.275589
v 381.250000 -1.642780 232.270096
v 381.250000 -2.372324 236.034714
v 381.250000 -4.273574 244.188400
v 381.250000 5.931169 225.300903
v 381.250000 5.941006 225.277267
v 381.250000 7.478927 214.471939
v 381.250000 9.932243 208.436157
v 381.250000 11.666743 200.503571
v 381.250000 13.081444 198.094086
v 381.250000 14.040932 192.918518
v 381.250000 14.069915 190.625000
v 376.451050 15.723948 190.625000
v 317.021210 5.541140 190.625000
v 324.380493 6.546090 190.625000
v 354.503540 14.360919 190.625000
v 375.006561 16.160547 190.625000
v 336.487640 8.699158 190.625000
v 296.374939 -0.240920 190.625000
v 303.973419 2.302266 190.625000
v 271.322449 -0.091231 190.625000
v 285.575134 -0.456856 190.625000
v 254.503082 -1.872480 190.625000
v 236.537796 -4.715025 190.625000
v 190.625000 -6.501254 240.884460
v 190.625000 -7.380187 242.603333
v 190.625000 -9.995283 255.116119
v 190.625000 -6.132388 235.200546
v 224.219742 -3.813221 190.625000
v 208.164429 -2.604686 190.625000
v 190.625000 -3.726498 199.725830
v 190.625000 -1.291767 190.625000
v 381.250000 -20.584286 330.311829
v 381.250000 -5.191550 381.250000
v 368.763611 -4.034732 381.250000
v 381.250000 -20.776802 326.001678
v 381.250000 -22.607241 311.442566
v 381.250000 -18.235676 270.869385
v 337.492004 -3.631837 381.250000
v 353.348145 -4.101060 381.250000
v 381.250000 -23.652416 297.555084
v 329.973633 -2.119150 381.250000
v 312.502594 21.272831 381.250000
v 319.829224 6.778090 381.250000
v 324.928436 -2.123119 381.250000
v 309.894135 21.330963 381.250000
v 306.773468 20.793337 381.250000
v 301.544403 20.834967 381.250000
v 297.800873 19.127096 381.250000
v 288.720856 18.706970 381.250000
v 286.248901 20.920797 381.250000
v 281.316315 17.632332 381.250000
v 264.404510 9.719872 381.250000
v 267.671631 7.918108 381.250000
v 258.511566 6.455717 381.250000
v 253.992691 3.559605 381.250000
v 276.468262 10.855239 381.250000
v 229.782104 -3.801506 381.250000
v 243.828247 -4.215693 381.250000
v 207.893875 -1.335000 381.250000
v 224.573883 -3.634727 381.250000
v 202.561493 1.834729 381.250000
v 202.245132 1.817783 381.250000
v 190.722168 8.439068 381.250000
v 190.625000 -6.302864 359.215240
v 190.625000 -1.987750 373.523254
v 190.625000 -7.668007 354.038849
v 190.625000 -11.948938 331.466248
v 190.625000 -13.198411 325.833771
v 190.625000 -12.546743 317.271973
v 190.625000 -15.259125 298.637878
v 190.625000 -14.338110 281.874237
v 190.625000 8.367956 381.250000
v 190.625000 -1.905878 373.711273
v 190.625000 -15.376915 291.480957
v 190.625000 -14.670717 289.450897
v 190.625000 -14.686789 287.916779
vt 0.691288 0.132142
vt 0.696137 0.127738
vt 0.693647 0.127831
vt 0.719468 0.127407
vt 0.708766 0.129622
vt 0.721498 0.137496
vt 0.727271 0.126937
vt 0.719473 0.127397
vt 0.729407 0.128755
vt 0.731461 0.133534
vt 0.734875 0.142210
vt 0.747805 0.134714
vt 0.789693 0.141568
vt 0.764112 0.126413
vt 0.826773 0.143024
vt 0.809781 0.177311
vt 0.761355 0.164654
vt 0.732529 0.164450
vt 0.740071 0.175217
vt 0.759549 0.196434
vt 0.785868 0.185897
vt 0.789534 0.218676
vt 0.814569 0.222896
vt 0.847013 0.173884
vt 0.849488 0.184697
vt 0.863711 0.182715
vt 0.841689 0.195853
vt 0.844709 0.206918
vt 0.854946 0.199368
vt 0.865761 0.251187
vt 0.853090 0.218857
vt 0.860972 0.230360
vt 0.865125 0.222506
vt 0.804193 0.257180
vt 0.783845 0.249792
vt 0.822132 0.276295
vt 0.869632 0.261695
vt 0.840592 0.304487
vt 0.868752 0.274987
vt 0.871632 0.303638
vt 0.872147 0.298669
vt 0.868587 0.279976
vt 0.864738 0.313915
vt 0.864794 0.314163
vt 0.864976 0.314175
vt 0.817765 0.313973
vt 0.819195 0.318511
vt 0.824420 0.318929
vt 0.851221 0.315663
vt 0.787242 0.278576
vt 0.782615 0.308555
vt 0.811288 0.315800
vt 0.757594 0.273615
vt 0.735265 0.312020
vt 0.749297 0.314301
vt 0.781475 0.314084
vt 0.783324 0.313973
vt 0.790632 0.313950
vt 0.740086 0.278987
vt 0.702625 0.289553
vt 0.694180 0.311524
vt 0.728332 0.311651
vt 0.742569 0.268604
vt 0.735777 0.255737
vt 0.743416 0.264361
vt 0.749136 0.242889
vt 0.742157 0.250437
vt 0.751027 0.231703
vt 0.736283 0.243734
vt 0.739213 0.234686
vt 0.736061 0.208656
vt 0.744901 0.222249
vt 0.747760 0.215489
vt 0.758250 0.213102
vt 0.760814 0.224778
vt 0.766950 0.212342
vt 0.742365 0.193830
vt 0.738751 0.186370
vt 0.728416 0.159963
vt 0.705992 0.175621
vt 0.718038 0.159152
vt 0.720224 0.152073
vt 0.728195 0.150900
vt 0.693561 0.155348
vt 0.729538 0.194892
vt 0.712367 0.213903
vt 0.700506 0.236009
vt 0.698123 0.196882
vt 0.685957 0.170323
vt 0.685593 0.296646
vt 0.863767 0.190541
vt 0.872900 0.194588
vt 0.872878 0.187448
vt 0.871565 0.182632
vt 0.872859 0.179354
vt 0.872458 0.173437
vt 0.872662 0.197160
vt 0.866428 0.206126
vt 0.871657 0.210046
vt 0.872083 0.206299
vt 0.871732 0.218603
vt 0.872212 0.229583
vt 0.872460 0.225401
vt 0.872348 0.220856
vt 0.871760 0.237153
vt 0.867986 0.240351
vt 0.871807 0.240154
vt 0.871476 0.247919
vt 0.871912 0.153819
vt 0.872241 0.139527
vt 0.685042 0.210460
vt 0.686112 0.202703
vt 0.685661 0.235506
vt 0.685416 0.250887
vt 0.872560 0.313687
vt 0.823482 0.126022
vt 0.818436 0.127015
vt 0.719450 0.127397
vt 0.872428 0.200890
vt 0.774264 0.314162
vt 0.745868 0.127893
vt 0.743531 0.127547
vt 0.685489 0.221142
vt 0.803549 0.125906
vt 0.686518 0.153304
vt 0.871641 0.303907
vt 0.873469 0.127239
vt 0.779789 0.314011
vt 0.738758 0.127249
vt 0.730880 0.126760
vt 0.684866 0.279542
vt 0.686812 0.181704
vt 0.703379 0.127421
vt 0.686222 0.189036
vt 0.685952 0.267366
vt 0.752236 0.126453
vt 0.746479 0.127181
vt 0.872183 0.252824
vt 0.709204 0.127452
vt 0.846239 0.316107
vt 0.687103 0.132192
vt 0.687482 0.133565
vt 0.689133 0.127422
vt 0.788713 0.127115
vt 0.733836 0.311867
vt 0.684804 0.313215
vt 0.872555 0.313788
vt 0.686849 0.127332
vn 0.1726 0.9722 0.1579
vn 0.4311 0.8664 0.2521
vn 0.1938 0.8893 0.4142
vn 0.4390 0.7961 0.4164
vn 0.3553 0.8924 0.2781
vn 0.0129 0.8709 0.4912
vn 0.6099 0.6612 0.4368
vn 0.7153 0.5289 0.4567
vn 0.4774 0.7945 0.3753
vn 0.2065 0.8509 0.4830
vn -0.1163 0.8321 0.5423
vn 0.1226 0.9099 0.3962
vn 0.1564 0.9847 0.0765
vn 0.2291 0.9531 0.1978
vn 0.0709 0.9771 -0.2008
vn 0.0137 0.9934 -0.1136
vn 0.0947 0.9520 0.2910
vn 0.1842 0.9340 0.3060
vn 0.0125 0.9370 0.3490
vn -0.0543 0.9343 0.3524
vn -0.0279 0.9845 0.1733
vn -0.0826 0.9909 0.1057
vn -0.0436 0.9833 -0.1765
vn 0.0956 0.9580 -0.2703
vn 0.3220 0.8090 -0.4917
vn 0.4865 0.8337 -0.2612
vn 0.1138 0.8894 -0.4426
vn 0.0370 0.8825 -0.4689
vn 0.1001 0.7676 -0.6330
vn -0.1751 0.7909 -0.5863
vn -0.2603 0.8062 -0.5312
vn -0.3265 0.7365 -0.5924
vn -0.1072 0.6416 -0.7595
vn 0.1216 0.9906 -0.0622
vn -0.0674 0.9959 0.0595
vn 0.1197 0.9862 -0.1144
vn -0.0660 0.8951 -0.4409
vn 0.1372 0.9635 -0.2297
vn 0.0297 0.9638 -0.2648
vn 0.2047 0.9047 -0.3736
vn 0.3092 0.8917 -0.3305
vn 0.0638 0.9567 -0.2838
vn 0.0668 0.8746 -0.4802
vn 0.1570 0.9232 -0.3508
vn -0.2818 0.6646 -0.6920
vn 0.2109 0.9754 -0.0642
vn 0.2424 0.9658 -0.0916
vn 0.2387 0.9528 -0.1874
vn 0.1863 0.9431 -0.2753
vn 0.0713 0.9944 -0.0772
vn 0.2413 0.9704 0.0090
vn 0.2406 0.9706 0.0016
vn 0.0610 0.9684 0.2419
vn 0.1315 0.9180 0.3741
vn 0.2424 0.9532 0.1807
vn 0.3890 0.9133 0.1205
vn 0.3280 0.9333 0.1458
vn 0.1920 0.9745 -0.1162
vn 0.0030 0.9472 0.3204
vn 0.0284 0.9897 0.1403
vn 0.0991 0.9780 0.1836
vn 0.1365 0.9885 0.0648
vn 0.1056 0.8439 0.5260
vn -0.1557 0.9033 0.3995
vn -0.2631 0.8965 0.3563
vn -0.1845 0.8729 0.4517
vn -0.4804 0.4506 0.7524
vn -0.3168 0.8734 0.3697
vn -0.3006 0.8874 0.3494
vn -0.1838 0.8488 0.4958
vn -0.0865 0.9374 0.3372
vn -0.5738 0.8090 0.1274
vn -0.0740 0.8769 0.4750
vn -0.0501 0.9183 0.3927
vn -0.2812 0.9319 0.2289
vn -0.0629 0.9356 0.3472
vn -0.0271 0.8855 0.4638
vn -0.0685 0.8827 0.4648
vn 0.2858 0.8362 0.4680
vn -0.1033 0.9937 0.0434
vn 0.0013 0.9202 0.3915
vn 0.0176 0.7924 0.6098
vn 0.1880 0.8575 0.4789
vn -0.1394 0.9854 0.0973
vn -0.0268 0.9613 0.2742
vn -0.1560 0.9874 0.0244
vn -0.1140 0.9933 -0.0185
vn -0.2162 0.9657 -0.1436
vn -0.1920 0.9746 -0.1154
vn 0.0723 0.9635 0.2577
vn 0.5076 0.6618 -0.5517
vn 0.2650 0.6359 -0.7248
vn 0.8607 0.4706 -0.1939
vn 0.5240 0.8019 -0.2869
vn 0.0751 0.9502 -0.3023
vn 0.1128 0.9564 -0.2694
vn -0.0401 0.6101 -0.7913
vn -0.0644 0.6448 -0.7616
vn -0.1201 0.6116 -0.7820
vn -0.1125 0.5622 -0.8192
vn 0.2895 0.6298 -0.7208
vn -0.5232 0.5490 -0.6518
vn -0.5654 0.5924 -0.5739
vn 0.0670 0.7107 -0.7002
vn -0.0325 0.5571 -0.8298
vn -0.2206 0.5107 -0.8310
vn 0.0042 0.4444 -0.8958
vn -0.2557 0.4422 -0.8597
vn 0.0145 0.9609 -0.2765
vn 0.0446 0.9575 -0.2849
vn -0.1740 0.9687 -0.1765
vn -0.2859 0.9374 -0.1985
vn -0.0385 0.9913 -0.1254
vn -0.1433 0.9858 -0.0869
vn -0.0282 0.5954 -0.8029
vn 0.1361 0.9803 -0.1431
vn 0.1375 0.9857 -0.0968
vn 0.7417 0.6568 0.1361
vn -0.0678 0.5993 -0.7976
vn 0.2766 0.9512 0.1364
vn 0.1445 0.8220 0.5508
vn -0.2593 0.7814 0.5676
vn -0.0078 0.9881 -0.1536
vn 0.1774 0.9806 -0.0836
vn -0.1765 0.9738 0.1435
vn 0.0587 0.8570 -0.5119
vn 0.0883 0.9535 -0.2881
vn 0.4025 0.9149 0.0308
vn -0.3448 0.8551 0.3871
vn 0.4390 0.8772 0.1942
vn 0.0712 0.9638 0.2568
vn -0.1482 0.9754 -0.1631
vn 0.5336 0.8208 0.2038
vn -0.1682 0.9675 -0.1889
vn -0.1131 0.9935 -0.0096
vn 0.1422 0.9509 0.2749
vn 0.0371 0.9899 0.1369
vn -0.3017 0.4393 -0.8461
vn 0.6993 0.6937 0.1726
vn 0.2231 0.9483 -0.2258
vn 0.3070 0.9516 0.0131
vn 0.0572 0.9922 0.1100
vn 0.3480 0.9346 0.0737
vn 0.2191 0.9727 0.0758
vn 0.1117 0.9627 0.2464
vn 0.0721 0.9635 0.2578
vn -0.3974 0.5428 -0.7399
vn 0.3258 0.9453 0.0119
s 1
f 1/1/1 80/2/2 81/3/3
f 4/4/4 2/5/5 3/6/6
f 4/4/4 73/7/7 76/8/8
f 4/4/4 3/6/6 5/9/9
f 3/6/6 6/10/10 5/9/9
f 6/10/10 3/6/6 7/11/11
f 5/9/9 6/10/10 8/12/12
f 6/10/10 7/11/11 8/12/12
f 10/13/13 109/14/14 8/12/12
f 9/15/15 10/13/13 12/16/16
f 8/12/12 11/17/17 10/13/13
f 11/17/17 8/12/12 13/18/18
f 13/18/18 14/19/19 11/17/17
f 11/17/17 16/20/20 15/21/21
f 14/19/19 16/20/20 11/17/17
f 11/17/17 15/21/21 10/13/13
f 10/13/13 15/21/21 12/16/16
f 16/20/20 49/22/22 15/21/21
f 15/21/21 49/22/22 12/16/16
f 12/16/16 49/22/22 17/23/23
f 9/15/15 12/16/16 18/24/24
f 18/24/24 20/25/25 19/26/26
f 12/16/16 21/27/27 18/24/24
f 18/24/24 21/27/27 20/25/25
f 12/16/16 17/23/23 21/27/27
f 17/23/23 22/28/28 21/27/27
f 21/27/27 22/28/28 65/29/29
f 17/23/23 23/30/30 22/28/28
f 22/28/28 23/30/30 24/31/31
f 24/31/31 23/30/30 25/32/32
f 24/31/31 25/32/32 67/33/33
f 17/23/23 26/34/34 23/30/30
f 17/23/23 27/35/35 26/34/34
f 26/34/34 27/35/35 28/36/36
f 23/30/30 26/34/34 28/36/36
f 28/36/36 130/37/37 23/30/30
f 28/36/36 27/35/35 29/38/38
f 29/38/38 129/39/39 28/36/36
f 29/38/38 133/40/40 131/41/41
f 29/38/38 131/41/41 132/42/42
f 30/43/43 137/44/44 145/45/45
f 31/46/46 140/47/47 139/48/48
f 136/49/49 30/43/43 29/38/38
f 139/48/48 29/38/38 31/46/46
f 32/50/50 29/38/38 27/35/35
f 32/50/50 31/46/46 29/38/38
f 34/51/51 141/52/52 32/50/50
f 27/35/35 33/53/53 32/50/50
f 33/53/53 34/51/51 32/50/50
f 33/53/53 97/54/54 98/55/55
f 34/51/51 147/56/56 146/57/57
f 34/51/51 146/57/57 142/58/58
f 35/59/59 97/54/54 33/53/53
f 36/60/60 102/61/61 99/62/62
f 99/62/62 35/59/59 36/60/60
f 35/59/59 37/63/63 38/64/64
f 37/63/63 39/65/65 38/64/64
f 37/63/63 35/59/59 33/53/53
f 37/63/63 33/53/53 39/65/65
f 38/64/64 39/65/65 33/53/53
f 40/66/66 38/64/64 33/53/53
f 41/67/67 38/64/64 40/66/66
f 40/66/66 33/53/53 27/35/35
f 42/68/68 40/66/66 27/35/35
f 43/69/69 41/67/67 40/66/66
f 38/64/64 41/67/67 43/69/69
f 44/70/70 43/69/69 40/66/66
f 44/70/70 40/66/66 42/68/68
f 45/71/71 44/70/70 42/68/68
f 45/71/71 42/68/68 46/72/72
f 45/71/71 46/72/72 47/73/73
f 46/72/72 42/68/68 47/73/73
f 51/74/74 47/73/73 48/75/75
f 47/73/73 42/68/68 48/75/75
f 48/75/75 42/68/68 27/35/35
f 27/35/35 49/22/22 48/75/75
f 49/22/22 27/35/35 17/23/23
f 50/76/76 49/22/22 16/20/20
f 50/76/76 48/75/75 49/22/22
f 51/74/74 48/75/75 50/76/76
f 16/20/20 51/74/74 50/76/76
f 47/73/73 51/74/74 16/20/20
f 52/77/77 45/71/71 47/73/73
f 52/77/77 47/73/73 16/20/20
f 53/78/78 52/77/77 16/20/20
f 14/19/19 53/78/78 16/20/20
f 54/79/79 13/18/18 8/12/12
f 13/18/18 55/80/80 14/19/19
f 56/81/81 13/18/18 54/79/79
f 56/81/81 54/79/79 57/82/82
f 57/82/82 54/79/79 58/83/83
f 58/83/83 54/79/79 7/11/11
f 7/11/11 54/79/79 8/12/12
f 57/82/82 58/83/83 7/11/11
f 3/6/6 57/82/82 7/11/11
f 3/6/6 56/81/81 57/82/82
f 2/5/5 56/81/81 3/6/6
f 1/1/1 56/81/81 2/5/5
f 1/1/1 59/84/84 56/81/81
f 59/84/84 55/80/80 56/81/81
f 56/81/81 55/80/80 13/18/18
f 55/80/80 60/85/85 14/19/19
f 14/19/19 60/85/85 53/78/78
f 53/78/78 60/85/85 52/77/77
f 60/85/85 45/71/71 52/77/77
f 61/86/86 45/71/71 60/85/85
f 61/86/86 44/70/70 45/71/71
f 55/80/80 61/86/86 60/85/85
f 44/70/70 61/86/86 43/69/69
f 61/86/86 63/87/87 43/69/69
f 63/87/87 38/64/64 43/69/69
f 62/88/88 61/86/86 55/80/80
f 89/89/89 55/80/80 59/84/84
f 63/87/87 35/59/59 38/64/64
f 63/87/87 36/60/60 35/59/59
f 101/90/90 102/61/61 36/60/60
f 64/91/91 114/92/92 115/93/93
f 19/26/26 115/93/93 116/94/94
f 19/26/26 113/95/95 18/24/24
f 18/24/24 113/95/95 110/96/96
f 20/25/25 64/91/91 19/26/26
f 20/25/25 21/27/27 64/91/91
f 21/27/27 65/29/29 64/91/91
f 64/91/91 117/97/97 114/92/92
f 66/98/98 117/97/97 65/29/29
f 66/98/98 120/99/99 119/100/100
f 65/29/29 22/28/28 66/98/98
f 22/28/28 24/31/31 66/98/98
f 66/98/98 121/101/101 120/99/99
f 67/33/33 128/102/102 123/103/103
f 67/33/33 123/103/103 122/104/104
f 25/32/32 125/105/105 128/102/102
f 68/106/106 124/107/107 125/105/105
f 25/32/32 23/30/30 68/106/106
f 68/106/106 126/108/108 124/107/107
f 18/24/24 111/109/109 9/15/15
f 9/15/15 111/109/109 106/110/110
f 90/111/111 62/88/88 91/112/112
f 92/113/113 94/114/114 63/87/87
f 145/45/45 135/115/115 30/43/43
f 104/116/116 107/117/117 9/15/15
f 76/8/8 77/118/118 4/4/4
f 119/100/100 118/119/119 66/98/98
f 143/120/120 33/53/53 98/55/55
f 72/121/121 71/122/122 8/12/12
f 93/123/123 61/86/86 90/111/111
f 77/118/118 2/5/5 4/4/4
f 108/124/124 10/13/13 9/15/15
f 121/101/101 67/33/33 122/104/104
f 107/117/117 108/124/124 9/15/15
f 87/125/125 89/89/89 59/84/84
f 135/115/115 134/126/126 30/43/43
f 105/127/127 9/15/15 106/110/110
f 143/120/120 148/128/128 34/51/51
f 93/123/123 92/113/113 63/87/87
f 75/129/129 74/130/130 5/9/9
f 100/131/131 101/90/90 36/60/60
f 86/132/132 62/88/88 55/80/80
f 79/133/133 1/1/1 2/5/5
f 85/134/134 91/112/112 62/88/88
f 95/135/135 63/87/87 94/114/114
f 75/129/129 8/12/12 71/122/122
f 141/52/52 31/46/46 32/50/50
f 70/136/136 69/137/137 8/12/12
f 133/40/40 30/43/43 134/126/126
f 127/138/138 126/108/108 23/30/30
f 78/139/139 79/133/133 2/5/5
f 138/140/140 136/49/49 29/38/38
f 148/128/128 147/56/56 34/51/51
f 130/37/37 127/138/138 23/30/30
f 84/141/141 88/142/142 1/1/1
f 69/137/137 72/121/121 8/12/12
f 95/135/135 100/131/131 36/60/60
f 87/125/125 1/1/1 88/142/142
f 81/3/3 82/143/143 1/1/1
f 74/130/130 73/7/7 5/9/9
f 109/14/14 70/136/136 8/12/12
f 82/143/143 84/141/141 1/1/1
f 4/4/4 5/9/9 73/7/7
f 10/13/13 112/144/144 109/14/14
f 28/36/36 129/39/39 130/37/37
f 29/38/38 132/42/42 129/39/39
f 136/49/49 137/44/44 30/43/43
f 139/48/48 138/140/140 29/38/38
f 34/51/51 142/58/58 141/52/52
f 35/59/59 96/145/145 97/54/54
f 99/62/62 96/145/145 35/59/59
f 89/89/89 86/132/132 55/80/80
f 101/90/90 103/146/146 102/61/61
f 19/26/26 64/91/91 115/93/93
f 19/26/26 116/94/94 113/95/95
f 64/91/91 65/29/29 117/97/97
f 66/98/98 118/119/119 117/97/97
f 66/98/98 24/31/31 121/101/101
f 67/33/33 25/32/32 128/102/102
f 25/32/32 68/106/106 125/105/105
f 68/106/106 23/30/30 126/108/108
f 18/24/24 110/96/96 111/109/109
f 90/111/111 61/86/86 62/88/88
f 145/45/45 144/147/147 135/115/115
f 143/120/120 34/51/51 33/53/53
f 93/123/123 63/87/87 61/86/86
f 77/118/118 78/139/139 2/5/5
f 108/124/124 112/144/144 10/13/13
f 121/101/101 24/31/31 67/33/33
f 105/127/127 104/116/116 9/15/15
f 86/132/132 85/134/134 62/88/88
f 79/133/133 80/2/2 1/1/1
f 95/135/135 36/60/60 63/87/87
f 75/129/129 5/9/9 8/12/12
f 141/52/52 140/47/47 31/46/46
f 133/40/40 29/38/38 30/43/43
f 87/125/125 59/84/84 1/1/1
f 82/143/143 83/148/148 84/141/141
