# Blender v2.82 (sub 7) OBJ File: 'LODTerrain.blend'
# www.blender.org
o lod_1_138_Cube.138
v 495.424927 -3.603591 182.992737
v 515.450439 -4.545369 167.206512
v 541.314575 -3.830999 173.789520
v 567.592224 -3.520278 155.002869
v 545.653809 -8.701822 138.830704
v 566.601685 -10.105562 114.867325
v 515.695984 -19.198801 107.078819
v 522.846313 -23.679478 80.037819
v 535.180969 -30.170523 62.942371
v 547.255005 -21.406235 80.445526
v 570.776672 -27.643658 48.292439
v 487.364655 -42.717834 5.035378
v 536.652588 -42.717392 5.045197
v 398.205994 8.286354 185.822281
v 466.736206 -4.078331 179.257385
v 456.407837 -3.520265 155.002777
v 422.364746 4.145124 174.521973
v 428.645325 6.066816 146.482208
v 412.934753 9.662497 149.386688
v 392.114563 15.484219 152.622772
v 464.687897 -9.250605 126.713318
v 494.462097 -8.652662 139.991348
v 505.239746 -23.901524 80.327789
v 488.319550 -25.559114 73.718163
v 514.920837 -41.144176 39.199493
v 470.415436 -31.196041 50.598862
v 461.708130 -13.666049 100.727036
v 421.312836 -1.820468 131.271606
v 421.471832 -11.549187 103.750534
v 411.700989 5.083750 136.737015
v 410.195007 -1.458507 125.716949
v 401.173279 9.064072 146.320938
v 396.838684 12.579998 141.853806
v 396.076477 3.204510 130.890381
v 388.526001 7.072050 138.637619
v 384.167664 -0.497524 119.774414
v 394.217529 -11.041052 85.879654
v 381.797729 15.824919 148.461212
v 453.223267 -27.643610 48.292458
v 419.562744 -16.021582 67.210030
v 385.710999 -7.009845 30.846962
v 434.318726 -22.620068 25.986160
v 394.962402 -17.256054 5.069191
v 383.146332 -10.211203 14.663383
v 381.827026 2.547679 3.097725
v 571.875000 -30.593918 24.611588
v 571.875000 -27.351801 46.996498
v 571.875000 -33.966171 0.000000
v 546.524902 -40.762077 0.000000
v 535.479065 -42.874672 0.000000
v 493.139404 -42.874790 0.000000
v 488.221680 -42.852341 0.000000
v 477.501862 -40.765182 0.000000
v 450.983521 -33.660091 0.000000
v 444.765564 -30.945160 0.000000
v 411.509003 -22.055824 0.000000
v 396.377747 -18.517460 0.000000
v 381.250000 -2.897911 27.102837
v 381.250000 -5.195680 32.431217
v 381.250000 -6.841032 17.161636
v 381.250000 -7.570276 14.458321
v 387.850952 -11.127222 0.000000
v 382.572479 -2.259863 0.000000
v 381.250000 0.888348 0.000000
v 381.250000 3.524345 2.692314
v 381.250000 -6.820355 13.044342
v 381.250000 2.972183 3.214653
v 565.050842 -2.439472 190.625000
v 552.058472 -5.132521 190.625000
v 571.875000 -2.555933 157.458481
v 571.875000 -1.077294 190.625000
v 545.937439 -4.949907 190.625000
v 571.875000 -2.041323 153.688416
v 571.875000 -7.139546 120.665512
v 571.875000 -10.317464 113.235603
v 571.875000 -27.264442 48.909702
v 571.875000 -22.674013 65.203491
v 571.875000 -20.024742 85.176628
v 571.875000 -17.015688 90.826126
v 520.267334 -4.505042 190.625000
v 498.000763 -5.205139 190.625000
v 491.511383 -4.561865 190.625000
v 463.681519 -3.151657 190.625000
v 472.312805 -5.153889 190.625000
v 412.743439 3.503542 190.625000
v 442.521698 0.839564 190.625000
v 539.468750 -5.259645 190.625000
v 458.949097 -2.439438 190.625000
v 398.583862 7.238426 190.625000
v 381.250000 14.247356 176.573425
v 381.250000 15.240723 169.833466
v 381.250000 15.979290 166.339859
v 386.730225 12.181040 190.625000
v 381.250000 14.069914 190.625000
v 381.250000 17.329502 154.287918
v 381.250000 15.956787 148.703171
v 381.250000 14.847109 138.857605
v 381.250000 15.834829 144.936462
v 381.250000 11.867205 134.228180
v 381.250000 7.663919 127.443283
v 381.250000 -5.385992 95.004944
v 381.250000 -0.071650 118.142151
v 381.250000 0.736625 119.825691
v 381.250000 -8.469353 78.285645
v 381.250000 -7.869884 78.634216
v 381.250000 -7.401999 72.268448
v 381.250000 -6.403954 51.075638
v 381.250000 -4.434715 40.174767
v 381.250000 15.883905 148.222473
vt 0.683592 0.023805
vt 0.662145 0.006285
vt 0.679421 0.014559
vt 0.681266 0.026722
vt 0.668065 0.025966
vt 0.685668 0.052560
vt 0.652648 0.059514
vt 0.649986 0.055927
vt 0.680839 0.038462
vt 0.637555 0.035386
vt 0.614507 0.051105
vt 0.635492 0.017563
vt 0.608584 0.008654
vt 0.579293 0.007093
vt 0.578229 0.012359
vt 0.564763 0.023476
vt 0.539557 0.007861
vt 0.577254 0.034949
vt 0.619435 0.057071
vt 0.612301 0.055604
vt 0.587153 0.055799
vt 0.583678 0.055231
vt 0.561554 0.059647
vt 0.546920 0.059410
vt 0.547305 0.060465
vt 0.502565 0.024736
vt 0.503026 0.024647
vt 0.498102 0.023953
vt 0.524812 0.058874
vt 0.501723 0.057250
vt 0.499254 0.033546
vt 0.671147 0.084437
vt 0.685172 0.095545
vt 0.686413 0.066632
vt 0.677054 0.038221
vt 0.687194 0.044076
vt 0.687503 0.035045
vt 0.686740 0.018875
vt 0.685667 0.052560
vt 0.649986 0.055927
vt 0.645645 0.096671
vt 0.681170 0.109973
vt 0.641380 0.083637
vt 0.642344 0.107198
vt 0.648232 0.116863
vt 0.626415 0.046209
vt 0.571007 0.023192
vt 0.600180 0.048079
vt 0.554704 0.037352
vt 0.599479 0.081759
vt 0.628704 0.090123
vt 0.633194 0.098043
vt 0.623214 0.099659
vt 0.638643 0.112536
vt 0.633725 0.121468
vt 0.627791 0.112456
vt 0.618659 0.124163
vt 0.585719 0.111801
vt 0.558706 0.091746
vt 0.594063 0.125681
vt 0.618471 0.127001
vt 0.623948 0.127967
vt 0.645189 0.127530
vt 0.631670 0.127372
vt 0.641756 0.127852
vt 0.666378 0.126981
vt 0.651507 0.126917
vt 0.644943 0.128017
vt 0.645523 0.128006
vt 0.662598 0.127075
vt 0.686560 0.121782
vt 0.685320 0.109976
vt 0.578984 0.126221
vt 0.546920 0.059410
vt 0.579172 0.124501
vt 0.571722 0.125954
vt 0.523206 0.075075
vt 0.528914 0.122265
vt 0.506003 0.115065
vt 0.498921 0.033598
vt 0.503662 0.127212
vt 0.514265 0.125524
vt 0.512677 0.127471
vt 0.503205 0.127770
vt 0.503734 0.127785
vt 0.514497 0.127359
vt 0.517027 0.127176
vt 0.526369 0.126655
vt 0.530070 0.126820
vt 0.536243 0.127466
vt 0.546271 0.129515
vt 0.616899 0.127066
vt 0.500506 0.113970
vt 0.500428 0.121040
vt 0.686797 0.012555
vt 0.497966 0.024031
vt 0.500340 0.126040
vt 0.501834 0.058317
vt 0.648658 0.060202
vt 0.498490 0.023875
vt 0.498671 0.099069
vt 0.500829 0.063944
vt 0.545543 0.060320
vt 0.672857 0.126784
vt 0.681450 0.031439
vt 0.685977 0.058406
vt 0.635618 0.127612
vt 0.500295 0.127435
vt 0.686849 0.127332
vn 0.0326 0.9994 0.0120
vn -0.0039 0.9966 -0.0818
vn 0.0008 0.9995 0.0312
vn -0.0263 0.9980 0.0574
vn -0.0211 0.9997 -0.0076
vn -0.1993 0.9789 -0.0439
vn -0.2283 0.9734 0.0159
vn -0.2003 0.9770 -0.0730
vn -0.0566 0.9982 0.0205
vn -0.0817 0.9801 -0.1807
vn -0.1255 0.9596 -0.2517
vn 0.0245 0.9825 -0.1847
vn -0.0156 0.9738 -0.2266
vn 0.0401 0.9536 -0.2981
vn -0.0608 0.9520 -0.3001
vn -0.1088 0.9353 -0.3367
vn -0.0157 0.9744 -0.2242
vn -0.0293 0.9266 -0.3749
vn -0.3040 0.9314 -0.2000
vn -0.0641 0.9419 -0.3296
vn -0.0171 0.9348 -0.3548
vn -0.0338 0.9291 -0.3681
vn -0.1849 0.9634 -0.1941
vn -0.2435 0.9530 -0.1803
vn -0.2211 0.9558 -0.1936
vn 0.1345 0.9878 -0.0785
vn -0.1365 0.9878 -0.0744
vn 0.0010 0.9995 -0.0299
vn -0.2589 0.9569 -0.1312
vn -0.2567 0.9575 -0.1312
vn -0.2469 0.9628 -0.1100
vn 0.2023 0.9748 0.0935
vn 0.1974 0.9677 0.1565
vn 0.1732 0.9848 -0.0146
vn 0.1007 0.9942 -0.0379
vn 0.1808 0.9830 -0.0316
vn 0.0607 0.9961 0.0644
vn 0.0145 0.9911 0.1319
vn 0.1712 0.9843 -0.0421
vn 0.2849 0.9569 -0.0565
vn 0.2009 0.9670 -0.1565
vn 0.2880 0.9470 0.1421
vn 0.2071 0.9644 -0.1646
vn 0.3122 0.8486 -0.4270
vn 0.2197 0.9684 -0.1173
vn 0.1353 0.9705 -0.1994
vn 0.0820 0.9356 -0.3435
vn 0.0740 0.9669 -0.2442
vn 0.1655 0.9587 -0.2310
vn 0.1246 0.9570 -0.2620
vn 0.0003 0.9182 -0.3960
vn 0.1507 0.8853 -0.4400
vn 0.1529 0.9012 -0.4056
vn 0.2921 0.8596 -0.4192
vn 0.2167 0.8455 -0.4881
vn 0.1230 0.8840 -0.4509
vn 0.2670 0.8818 -0.3887
vn 0.2036 0.9731 -0.1076
vn 0.2376 0.9691 -0.0668
vn 0.2674 0.9418 -0.2037
vn 0.3179 0.7743 -0.5472
vn 0.6754 0.6186 -0.4014
vn 0.2539 0.9346 -0.2490
vn 0.6646 0.6287 -0.4037
vn 0.7014 0.7047 -0.1070
vn 0.2703 0.9494 0.1599
vn 0.1603 0.9860 -0.0466
vn 0.1347 0.9888 -0.0647
vn 0.1426 0.9683 -0.2050
vn 0.2688 0.9464 0.1787
vn 0.3328 0.9424 0.0310
vn 0.3098 0.9337 0.1793
vn -0.4132 0.3715 0.8314
vn 0.2644 0.9540 -0.1414
vn -0.2205 0.6848 0.6945
vn 0.2187 0.9744 0.0522
vn 0.3170 0.9395 -0.1302
vn 0.4288 0.8989 -0.0892
vn 0.4746 0.8727 -0.1146
vn 0.2472 0.9626 -0.1110
vn 0.8144 0.5625 0.1422
vn 0.6544 0.7538 0.0594
vn 0.6084 0.5924 0.5281
vn 0.8678 0.4951 -0.0425
vn 0.5493 0.5814 0.6001
vn 0.8050 0.5855 0.0956
vn 0.7717 0.5969 -0.2194
vn 0.7064 0.7046 -0.0678
vn 0.4050 0.9088 0.0999
vn 0.2962 0.9550 -0.0105
vn 0.1906 0.9733 0.1276
vn 0.2939 0.9115 -0.2875
vn 0.4054 0.9072 -0.1125
vn 0.7454 0.5045 -0.4357
vn 0.0199 0.9798 0.1989
vn 0.0881 0.9960 -0.0116
vn 0.7677 0.4269 -0.4778
vn 0.3276 0.9355 -0.1317
vn -0.3348 0.9417 -0.0313
vn -0.0806 0.9966 -0.0123
vn 0.2322 0.9553 -0.1831
vn 0.3460 0.9249 -0.1572
vn -0.3754 0.9202 -0.1110
vn 0.2827 0.9543 0.0968
vn -0.0024 0.9977 0.0670
vn -0.1955 0.9797 -0.0437
vn 0.7070 0.6681 -0.2317
vn 0.8621 0.3621 -0.3545
vn 0.3258 0.9453 0.0119
s 1
f 80/1/1 2/2/2 1/3/3
f 87/4/4 3/5/5 2/2/2
f 68/6/6 70/7/7 4/8/8
f 3/5/5 69/9/9 4/8/8
f 5/10/10 3/5/5 4/8/8
f 5/10/10 4/8/8 6/11/11
f 5/10/10 2/2/2 3/5/5
f 22/12/12 2/2/2 5/10/10
f 22/12/12 5/10/10 7/13/13
f 23/14/14 7/13/13 8/15/15
f 9/16/16 25/17/17 8/15/15
f 9/16/16 8/15/15 10/18/18
f 10/18/18 8/15/15 6/11/11
f 6/11/11 8/15/15 7/13/13
f 6/11/11 7/13/13 5/10/10
f 6/11/11 74/19/19 75/20/20
f 4/8/8 74/19/19 6/11/11
f 6/11/11 79/21/21 10/18/18
f 10/18/18 78/22/22 9/16/16
f 9/16/16 78/22/22 77/23/23
f 11/24/24 77/23/23 76/25/25
f 25/17/17 9/16/16 11/24/24
f 12/26/26 25/17/17 13/27/27
f 13/27/27 25/17/17 11/24/24
f 13/27/27 51/28/28 12/26/26
f 46/29/29 48/30/30 49/31/31
f 17/32/32 85/33/33 86/34/34
f 15/35/35 83/36/36 84/37/37
f 1/3/3 84/37/37 82/38/38
f 15/35/35 88/39/39 83/36/36
f 16/40/40 86/34/34 88/39/39
f 19/41/41 14/42/42 17/32/32
f 18/43/43 19/41/41 17/32/32
f 14/42/42 85/33/33 17/32/32
f 32/44/44 20/45/45 19/41/41
f 18/43/43 17/32/32 16/40/40
f 21/46/46 16/40/40 15/35/35
f 22/12/12 21/46/46 15/35/35
f 22/12/12 1/3/3 2/2/2
f 22/12/12 15/35/35 1/3/3
f 7/13/13 21/46/46 22/12/12
f 7/13/13 23/14/14 21/46/46
f 8/15/15 25/17/17 23/14/14
f 24/47/47 23/14/14 25/17/17
f 24/47/47 27/48/48 23/14/14
f 24/47/47 26/49/49 27/48/48
f 27/48/48 21/46/46 23/14/14
f 27/48/48 29/50/50 21/46/46
f 21/46/46 29/50/50 18/43/43
f 21/46/46 18/43/43 16/40/40
f 28/51/51 19/41/41 18/43/43
f 29/50/50 28/51/51 18/43/43
f 28/51/51 30/52/52 19/41/41
f 29/50/50 31/53/53 28/51/51
f 28/51/51 31/53/53 30/52/52
f 31/53/53 32/44/44 30/52/52
f 30/52/52 32/44/44 19/41/41
f 32/44/44 33/54/54 20/45/45
f 33/54/54 35/55/55 20/45/45
f 35/55/55 33/54/54 34/56/56
f 34/56/56 33/54/54 32/44/44
f 31/53/53 34/56/56 32/44/44
f 34/56/56 36/57/57 35/55/55
f 34/56/56 31/53/53 36/57/57
f 36/57/57 31/53/53 29/50/50
f 29/50/50 37/58/58 36/57/57
f 40/59/59 37/58/58 29/50/50
f 101/60/60 36/57/57 37/58/58
f 36/57/57 103/61/61 100/62/62
f 20/45/45 35/55/55 38/63/63
f 36/57/57 100/62/62 99/64/64
f 99/64/64 35/55/55 36/57/57
f 35/55/55 98/65/65 38/63/63
f 20/45/45 91/66/66 19/41/41
f 38/63/63 95/67/67 20/45/45
f 38/63/63 109/68/68 96/69/69
f 20/45/45 95/67/67 92/70/70
f 14/42/42 93/71/71 89/72/72
f 37/58/58 104/73/73 101/60/60
f 26/49/49 29/50/50 27/48/48
f 26/49/49 40/59/59 29/50/50
f 39/74/74 40/59/59 26/49/49
f 26/49/49 24/47/47 25/17/17
f 25/17/17 12/26/26 26/49/49
f 12/26/26 39/74/74 26/49/49
f 37/58/58 105/75/75 104/73/73
f 37/58/58 106/76/76 105/75/75
f 40/59/59 106/76/76 37/58/58
f 42/77/77 40/59/59 39/74/74
f 40/59/59 42/77/77 41/78/78
f 42/77/77 43/79/79 41/78/78
f 53/80/80 39/74/74 12/26/26
f 43/79/79 45/81/81 44/82/82
f 45/81/81 66/83/83 44/82/82
f 45/81/81 65/84/84 67/85/85
f 44/82/82 61/86/86 60/87/87
f 60/87/87 41/78/78 44/82/82
f 43/79/79 44/82/82 41/78/78
f 41/78/78 58/88/88 59/89/89
f 108/90/90 107/91/91 40/59/59
f 102/92/92 103/61/61 36/57/57
f 108/90/90 41/78/78 59/89/89
f 57/93/93 62/94/94 43/79/79
f 81/95/95 80/1/1 1/3/3
f 52/96/96 53/80/80 12/26/26
f 63/97/97 65/84/84 45/81/81
f 54/98/98 42/77/77 39/74/74
f 70/7/7 73/99/99 4/8/8
f 49/31/31 50/100/100 13/27/27
f 62/94/94 45/81/81 43/79/79
f 51/28/28 52/96/96 12/26/26
f 56/101/101 43/79/79 42/77/77
f 55/102/102 56/101/101 42/77/77
f 47/103/103 46/29/29 11/24/24
f 82/38/38 81/95/95 1/3/3
f 66/83/83 61/86/86 44/82/82
f 91/66/66 14/42/42 19/41/41
f 76/25/25 47/103/103 11/24/24
f 90/104/104 93/71/71 14/42/42
f 98/65/65 109/68/68 38/63/63
f 69/9/9 68/6/6 4/8/8
f 80/1/1 87/4/4 2/2/2
f 87/4/4 72/105/105 3/5/5
f 68/6/6 71/106/106 70/7/7
f 3/5/5 72/105/105 69/9/9
f 4/8/8 73/99/99 74/19/19
f 6/11/11 75/20/20 79/21/21
f 10/18/18 79/21/21 78/22/22
f 11/24/24 9/16/16 77/23/23
f 13/27/27 50/100/100 51/28/28
f 49/31/31 13/27/27 46/29/29
f 13/27/27 11/24/24 46/29/29
f 1/3/3 15/35/35 84/37/37
f 15/35/35 16/40/40 88/39/39
f 16/40/40 17/32/32 86/34/34
f 14/42/42 89/72/72 85/33/33
f 101/60/60 102/92/92 36/57/57
f 99/64/64 97/107/107 35/55/55
f 35/55/55 97/107/107 98/65/65
f 20/45/45 92/70/70 91/66/66
f 38/63/63 96/69/69 95/67/67
f 40/59/59 107/91/91 106/76/76
f 53/80/80 54/98/98 39/74/74
f 45/81/81 67/85/85 66/83/83
f 60/87/87 58/88/88 41/78/78
f 108/90/90 40/59/59 41/78/78
f 63/97/97 64/108/108 65/84/84
f 54/98/98 55/102/102 42/77/77
f 62/94/94 63/97/97 45/81/81
f 56/101/101 57/93/93 43/79/79
f 91/66/66 90/104/104 14/42/42
f 90/104/104 94/109/109 93/71/71
