# Blender v2.82 (sub 7) OBJ File: 'LODTerrain.blend'
# www.blender.org
o lod_1_089_Cube.089
v 203.472565 1.490398 -444.382080
v 209.890717 1.762543 -494.246429
v 249.222076 11.130907 -474.701111
v 235.276093 12.888986 -451.897858
v 264.936737 12.222636 -510.297302
v 258.145538 13.980092 -488.973846
v 305.686707 25.698935 -518.723389
v 305.012421 25.871189 -499.534973
v 313.680847 23.263100 -512.620789
v 310.699585 23.344807 -493.786987
v 297.032959 23.879801 -468.572632
v 271.060730 22.331753 -475.188507
v 277.970825 30.641569 -447.794037
v 206.752411 7.826669 -403.856842
v 211.540054 -0.838034 -381.294922
v 346.471741 12.218395 -520.630676
v 328.287903 21.232651 -487.680908
v 363.998108 10.617155 -500.509521
v 350.652466 22.542202 -473.964722
v 337.375763 32.294556 -456.532959
v 300.659973 30.793320 -438.755737
v 255.885468 22.554134 -422.780060
v 282.587067 22.970438 -425.514801
v 269.535431 22.353806 -413.774353
v 295.102417 25.987722 -424.576416
v 315.031433 25.517328 -430.701660
v 326.485229 33.298103 -444.765503
v 357.030701 11.461117 -443.862122
v 362.841492 21.661200 -471.938324
v 361.814423 13.087707 -460.553741
v 353.045959 15.825060 -486.977570
v 351.950745 12.251240 -426.956238
v 368.959534 7.684724 -417.905945
v 357.559326 21.194563 -409.114197
v 367.865967 15.931198 -406.863464
v 375.384674 9.417648 -412.325897
v 376.329956 7.551323 -391.988342
v 380.484436 -6.070288 -385.111145
v 375.358337 -2.927135 -382.232086
v 380.104797 6.195050 -444.931122
v 231.767105 15.508047 -412.528503
v 215.181122 7.097537 -393.096710
v 224.855209 2.521967 -397.720520
v 241.297760 -1.398592 -387.230774
v 248.003967 15.192513 -406.648834
v 250.586990 15.717707 -398.856323
v 260.504120 10.785913 -399.841370
v 279.364502 21.364073 -403.585541
v 283.043396 12.832788 -393.537201
v 296.006348 7.167804 -408.131622
v 302.226196 18.970947 -419.142029
v 333.940063 9.753105 -386.806030
v 341.986877 -3.874365 -382.894592
v 313.624512 -7.797792 -384.248474
v 316.708740 9.889553 -403.430359
v 325.666626 20.928646 -417.203552
v 327.463562 7.704933 -399.732727
v 341.279633 22.130062 -399.081421
v 348.298950 19.169083 -396.473724
v 348.869202 11.994033 -389.487061
v 355.754578 10.609170 -401.136688
v 340.394714 23.211189 -407.332062
v 342.358154 29.150444 -419.353027
v 328.550354 34.763332 -430.826050
v 379.169312 3.996407 -483.259766
v 368.871460 17.433870 -476.191376
v 378.039734 12.818600 -472.181702
v 377.465393 5.449141 -460.837708
v 373.501404 10.898022 -399.972473
v 195.027863 -0.512868 -544.144226
v 248.510162 10.750112 -548.552979
v 238.535309 13.917759 -571.073181
v 259.633972 15.173085 -537.684631
v 296.175201 23.146523 -526.301575
v 323.569397 16.326437 -507.594208
v 310.699738 23.344822 -530.213257
v 275.926605 24.444874 -550.114624
v 298.646698 24.543911 -562.119751
v 328.674957 22.601177 -539.322571
v 350.652466 22.542210 -550.035400
v 337.375763 32.294563 -567.467163
v 362.841492 21.661190 -552.061707
v 361.814423 13.087702 -563.446289
v 365.677002 7.607034 -533.509277
v 353.897705 15.487181 -532.083801
v 379.169312 3.996403 -540.740295
v 368.871490 17.433802 -547.808594
v 378.039795 12.818565 -551.818359
v 377.465454 5.449125 -563.162292
v 375.559021 7.103311 -522.732788
v 381.250000 5.825603 -444.996887
v 381.250000 5.875252 -444.234528
v 381.250000 5.608822 -445.849915
v 381.250000 -6.937292 -385.373413
v 381.250000 -7.225899 -384.268036
v 381.250000 -9.033680 -381.250000
v 380.437683 -8.343256 -381.250000
v 376.140411 -4.259748 -381.250000
v 375.161835 -4.202871 -381.250000
v 361.699066 -12.462366 -381.250000
v 361.904358 -12.289618 -381.250000
v 364.655518 -10.578381 -381.250000
v 381.250000 2.971692 -410.531128
v 381.250000 0.940096 -407.121521
v 381.250000 0.634948 -395.222412
v 381.250000 -1.355122 -390.569885
v 381.250000 0.321067 -400.129761
v 381.250000 -0.650388 -402.688904
v 381.250000 3.866974 -414.650085
v 381.250000 0.640026 -418.006165
v 381.250000 4.965755 -441.790588
v 381.250000 1.767043 -423.689453
v 381.250000 2.615102 -428.454254
v 381.250000 1.741337 -424.102020
v 381.250000 1.727818 -423.874115
v 381.250000 3.812758 -461.287476
v 381.250000 9.327589 -473.058380
v 381.250000 10.482614 -471.160095
v 381.250000 3.183161 -481.772400
v 381.250000 3.249889 -495.755707
v 381.250000 3.279940 -497.720795
v 381.250000 3.273263 -497.906586
v 381.250000 3.250309 -515.660828
v 381.250000 2.760912 -518.615234
v 381.250000 3.164496 -531.876343
v 381.250000 2.863908 -520.972839
v 381.250000 3.183156 -542.227661
v 381.250000 9.327598 -550.941711
v 381.250000 3.757864 -519.966431
v 358.607574 -11.488533 -381.250000
v 341.425537 -4.415991 -381.250000
v 335.148499 3.839821 -381.250000
v 330.547119 6.007515 -381.250000
v 361.435303 -12.487221 -381.250000
v 361.090332 -11.983461 -381.250000
v 318.293030 -4.334004 -381.250000
v 328.272095 31.922329 -571.875000
v 308.816010 28.408316 -571.875000
v 381.250000 3.814795 -562.664368
v 381.250000 4.883349 -571.875000
v 378.911102 5.857703 -571.875000
v 381.250000 10.425833 -552.884827
v 366.977356 8.534775 -571.875000
v 359.398804 12.266345 -571.875000
v 344.213196 25.047171 -571.875000
v 333.296356 32.670471 -571.875000
v 314.318726 -9.317648 -381.250000
v 302.250946 -8.942930 -381.250000
v 293.699402 -8.481058 -381.250000
v 299.495972 27.180262 -571.875000
v 269.542847 -0.352975 -381.250000
v 270.954498 -0.137006 -381.250000
v 267.434845 -1.202553 -381.250000
v 247.502914 -2.956262 -381.250000
v 245.305649 -1.608626 -381.250000
v 242.525604 -4.328157 -381.250000
v 291.848480 -6.242807 -381.250000
v 279.894958 7.083649 -381.250000
v 277.631470 29.612944 -571.875000
v 273.356628 27.526136 -571.875000
v 244.695511 16.530178 -571.875000
v 231.557571 -5.178694 -381.250000
v 211.707886 -0.918135 -381.250000
v 211.532043 -0.849227 -381.250000
v 223.070221 -4.039288 -381.250000
v 207.441040 0.561417 -381.250000
v 190.625000 -0.774443 -381.250000
v 190.625000 1.014783 -386.775818
v 190.625000 3.511073 -403.811829
v 225.409088 -5.675585 -381.250000
v 190.625000 0.077109 -429.311646
v 190.625000 -1.579913 -488.618195
v 190.625000 -3.194596 -502.063782
v 190.625000 -0.141967 -477.675262
v 190.625000 0.147346 -442.266724
v 237.052475 13.347731 -571.875000
v 211.436554 4.130393 -571.875000
v 190.625000 -0.121057 -571.875000
v 190.625000 -0.816621 -556.936646
v 190.625000 -1.953545 -537.213074
v 190.625000 -0.883945 -547.803406
v 190.625000 -1.299187 -544.686279
v 284.327911 28.766745 -571.875000
v 238.996765 14.147455 -571.875000
vt 0.065528 0.300575
vt 0.066869 0.313489
vt 0.080864 0.312678
vt 0.014449 0.302250
vt 0.020121 0.319091
vt 0.030300 0.319385
vt 0.057275 0.268916
vt 0.034814 0.255499
vt 0.003338 0.240831
vt 0.024305 0.248189
vt 0.007129 0.202114
vt 0.011086 0.203080
vt 0.002354 0.193682
vt 0.003031 0.185835
vt 0.018173 0.195175
vt 0.042770 0.210033
vt 0.034984 0.235117
vt 0.024995 0.181727
vt 0.063359 0.228698
vt 0.107262 0.298031
vt 0.107097 0.312991
vt 0.123718 0.313100
vt 0.129014 0.298013
vt 0.126725 0.293256
vt 0.126774 0.293267
vt 0.008885 0.162120
vt 0.011682 0.143951
vt 0.020803 0.154266
vt 0.037182 0.156914
vt 0.069984 0.206610
vt 0.054733 0.170460
vt 0.084590 0.250473
vt 0.084467 0.225865
vt 0.097028 0.236932
vt 0.085366 0.212467
vt 0.066464 0.181123
vt 0.078566 0.191988
vt 0.078804 0.179050
vt 0.065602 0.151081
vt 0.050535 0.146275
vt 0.039296 0.146423
vt 0.082564 0.155461
vt 0.091959 0.139301
vt 0.082781 0.128906
vt 0.100781 0.150436
vt 0.102618 0.140681
vt 0.098400 0.132847
vt 0.103591 0.127645
vt 0.124621 0.128603
vt 0.119121 0.127370
vt 0.117628 0.132076
vt 0.126683 0.134165
vt 0.128094 0.128286
vt 0.125483 0.127824
vt 0.127649 0.133180
vt 0.066977 0.124862
vt 0.069930 0.124155
vt 0.067582 0.123943
vt 0.079325 0.127794
vt 0.049978 0.131918
vt 0.097565 0.272826
vt 0.116481 0.290472
vt 0.126775 0.293110
vt 0.127436 0.283336
vt 0.112094 0.280872
vt 0.127416 0.281064
vt 0.126615 0.274673
vt 0.119756 0.264268
vt 0.126279 0.262454
vt 0.102783 0.256935
vt 0.109711 0.255333
vt 0.126907 0.259487
vt 0.127200 0.257186
vt 0.110035 0.245028
vt 0.128601 0.238567
vt 0.104299 0.227891
vt 0.128394 0.236648
vt 0.103077 0.212283
vt 0.090400 0.204815
vt 0.115357 0.223458
vt 0.128432 0.235188
vt 0.127276 0.226804
vt 0.121735 0.174065
vt 0.127038 0.177210
vt 0.126664 0.171877
vt 0.126331 0.165610
vt 0.127646 0.165845
vt 0.126188 0.189084
vt 0.126523 0.205605
vt 0.122875 0.193685
vt 0.127120 0.216146
vt 0.127254 0.214577
vt 0.109233 0.189848
vt 0.094785 0.180577
vt 0.110250 0.178867
vt 0.109496 0.166978
vt 0.119240 0.160049
vt 0.112301 0.160132
vt 0.127111 0.145212
vt 0.127695 0.134341
vt 0.108676 0.153732
vt 0.126980 0.148254
vt 0.110301 0.135453
vt 0.101625 0.167255
vt 0.089705 0.165563
vt 0.008312 0.126643
vt 0.034950 0.140773
vt 0.028045 0.129143
vt 0.038096 0.131066
vt 0.038895 0.127856
vt 0.029462 0.127284
vt 0.107563 0.128071
vt 0.126986 0.148024
vt 0.028899 0.309403
vt 0.042006 0.313404
vt 0.032345 0.313802
vt 0.029450 0.313684
vt 0.023368 0.313749
vt 0.007485 0.317355
vt 0.033896 0.256646
vt 0.056344 0.267391
vt 0.025763 0.246969
vt 0.014808 0.211505
vt 0.018173 0.195175
vt 0.034265 0.231299
vt 0.026768 0.183580
vt 0.048928 0.207409
vt 0.058744 0.233076
vt 0.057440 0.261347
vt 0.058540 0.293192
vt 0.037182 0.156914
vt 0.018800 0.154386
vt 0.058515 0.179423
vt 0.057402 0.199905
vt 0.057811 0.207072
vt 0.058922 0.222153
vt 0.058529 0.229130
vt 0.054733 0.170460
vt 0.059127 0.174454
vt 0.050535 0.146275
vt 0.020039 0.143781
vt 0.039296 0.146423
vt 0.058514 0.163719
vt 0.049978 0.131918
vt 0.059289 0.128053
vt 0.057997 0.141754
vt 0.010853 0.133777
vt 0.034950 0.140773
vt 0.028045 0.129143
vt 0.038096 0.131066
vt 0.039085 0.127982
vt 0.029462 0.127284
vt 0.010245 0.126854
vt 0.020184 0.126870
vt 0.012420 0.126856
vt 0.008789 0.126598
vt 0.065893 0.123917
vt 0.124366 0.127828
vt 0.037395 0.127954
vt 0.066866 0.123820
vt 0.099478 0.127761
vt 0.114814 0.127686
vt 0.014679 0.126889
vt 0.092120 0.127275
vt 0.095908 0.127175
vt 0.057096 0.266941
vt 0.037395 0.127954
vt 0.127102 0.151008
vt 0.012537 0.126850
vt 0.082559 0.128909
vt 0.126966 0.148843
vt 0.083017 0.128887
vt 0.057296 0.268787
vt 0.126377 0.192939
vt 0.049309 0.128238
vt 0.129035 0.313248
vt 0.128203 0.127543
vt 0.126972 0.148527
vt 0.049194 0.128095
vt 0.110355 0.128112
vt 0.058143 0.148702
vt 0.009185 0.127117
vt 0.057555 0.313146
vt 0.059206 0.125694
vn -0.2412 0.9687 -0.0575
vn -0.1041 0.9946 -0.0006
vn -0.2226 0.9699 -0.0988
vn -0.2097 0.9771 -0.0368
vn -0.2044 0.9711 -0.1230
vn -0.1336 0.9901 -0.0416
vn -0.3149 0.9406 -0.1267
vn -0.3069 0.9382 -0.1598
vn -0.2715 0.9622 -0.0214
vn -0.5249 0.8248 -0.2102
vn 0.0295 0.9994 -0.0201
vn 0.0942 0.9955 -0.0002
vn 0.4700 0.8826 0.0081
vn 0.2693 0.9603 -0.0727
vn 0.2684 0.9632 -0.0127
vn 0.0011 0.9909 -0.1346
vn -0.2851 0.9442 -0.1650
vn 0.1080 0.9658 -0.2355
vn -0.1400 0.9895 -0.0360
vn -0.1773 0.9771 0.1179
vn -0.2585 0.9660 0.0060
vn -0.1187 0.9557 0.2691
vn 0.1290 0.9452 0.2998
vn 0.2425 0.8887 0.3891
vn 0.3305 0.9003 0.2832
vn 0.2045 0.9706 0.1264
vn 0.3196 0.9430 -0.0929
vn 0.2597 0.9116 -0.3187
vn 0.2770 0.9400 -0.1988
vn -0.0178 0.9865 0.1626
vn 0.2820 0.9594 -0.0004
vn -0.2141 0.9675 0.1346
vn 0.0130 0.9404 0.3398
vn -0.1175 0.9621 0.2460
vn 0.0247 0.8544 0.5190
vn 0.1085 0.9940 0.0163
vn -0.1740 0.8592 0.4811
vn 0.0224 0.9876 0.1550
vn 0.4542 0.8765 0.1593
vn 0.4473 0.8222 0.3520
vn 0.2407 0.9630 0.1214
vn 0.5434 0.8138 -0.2059
vn 0.3975 0.8282 -0.3949
vn 0.3440 0.9359 -0.0760
vn 0.4271 0.8758 0.2246
vn 0.4123 0.9023 0.1256
vn 0.5780 0.7811 -0.2360
vn 0.7048 0.6549 0.2725
vn 0.6846 0.5698 0.4545
vn 0.7628 0.4888 0.4233
vn 0.2449 0.8520 0.4626
vn 0.0975 0.6961 0.7112
vn 0.6060 0.6822 0.4089
vn 0.6378 0.6827 0.3566
vn 0.4789 0.6854 0.5485
vn 0.2648 0.9638 0.0289
vn 0.4599 0.8709 0.1732
vn 0.1366 0.9661 0.2190
vn 0.2339 0.9533 0.1909
vn 0.3885 0.8872 0.2489
vn -0.2378 0.9371 0.2554
vn 0.0950 0.9587 0.2679
vn 0.2258 0.7915 0.5679
vn 0.4498 0.7805 0.4342
vn 0.0986 0.8707 0.4818
vn 0.2121 0.8777 0.4297
vn -0.0715 0.8916 0.4471
vn -0.3559 0.7968 0.4883
vn -0.3628 0.8053 0.4689
vn -0.1810 0.8987 0.3994
vn -0.0926 0.9427 0.3203
vn -0.2217 0.7274 0.6493
vn 0.2134 0.7083 0.6728
vn -0.0308 0.8185 0.5737
vn -0.2012 0.7873 0.5827
vn 0.1785 0.9019 0.3933
vn -0.2355 0.7465 0.6223
vn 0.2136 0.7957 0.5667
vn 0.0379 0.7864 0.6165
vn 0.3452 0.7696 0.5371
vn -0.2299 0.7736 0.5904
vn -0.0338 0.9085 0.4164
vn -0.1103 0.8111 0.5744
vn -0.3320 0.8636 0.3794
vn 0.6054 0.6072 0.5146
vn 0.3869 0.6290 0.6742
vn 0.5586 0.7121 0.4252
vn -0.6572 0.7327 0.1768
vn 0.0448 0.8647 0.5002
vn -0.2905 0.8286 0.4785
vn 0.6985 0.5865 0.4100
vn 0.3647 0.7907 0.4916
vn -0.1406 0.7755 0.6154
vn -0.3287 0.7702 0.5465
vn -0.4296 0.7766 0.4608
vn -0.0796 0.9420 0.3261
vn 0.2524 0.5873 0.7690
vn 0.5002 0.8424 0.2002
vn -0.3994 0.6427 0.6538
vn -0.2034 0.6167 0.7604
vn 0.3649 0.6955 0.6189
vn -0.2004 0.6724 0.7126
vn 0.4415 0.8514 0.2829
vn -0.1507 0.8867 0.4370
vn 0.2975 0.9543 0.0281
vn 0.2461 0.9481 0.2015
vn 0.4342 0.7929 -0.4275
vn 0.4697 0.8519 -0.2317
vn 0.5701 0.8215 0.0032
vn 0.5572 0.8208 0.1259
vn 0.5323 0.7856 -0.3151
vn 0.7811 0.6239 -0.0262
vn -0.5383 0.6688 0.5127
vn -0.2069 0.9768 0.0550
vn -0.1884 0.9812 0.0415
vn -0.1187 0.9920 0.0422
vn -0.1877 0.9761 0.1091
vn -0.2482 0.9677 0.0434
vn -0.2404 0.9704 -0.0228
vn -0.3020 0.9412 0.1511
vn -0.3261 0.9376 0.1205
vn -0.4193 0.8916 0.1712
vn -0.4474 0.8331 0.3251
vn 0.1737 0.9848 0.0025
vn -0.2195 0.9583 0.1831
vn 0.0956 0.9570 0.2738
vn 0.0025 0.9819 0.1891
vn -0.4132 0.8886 0.1990
vn -0.3460 0.8986 0.2698
vn -0.2942 0.9556 -0.0141
vn 0.3107 0.9307 0.1929
vn 0.3051 0.9144 0.2660
vn -0.1670 0.9497 0.2647
vn -0.1416 0.9560 0.2569
vn -0.0194 0.9656 0.2593
vn 0.1176 0.9626 0.2440
vn -0.1408 0.9657 0.2183
vn 0.2849 0.9586 -0.0031
vn 0.0541 0.9979 0.0350
vn 0.4473 0.8222 -0.3520
vn 0.4635 0.8839 0.0613
vn 0.2261 0.9715 -0.0710
vn 0.6098 0.7430 -0.2758
vn 0.3895 0.8871 -0.2475
vn 0.3089 0.9463 0.0956
vn 0.3904 0.9086 -0.1481
vn 0.4719 0.8813 0.0242
vn 0.3960 0.8139 0.4251
vn 0.4557 0.8495 0.2656
vn 0.5718 0.8203 -0.0038
vn 0.5607 0.8157 -0.1424
vn 0.5331 0.7845 0.3168
vn 0.5307 0.7621 -0.3709
vn 0.2791 0.9599 0.0246
vn 0.3940 0.9189 -0.0184
vn 0.3035 0.9459 -0.1144
vn 0.3577 0.9228 -0.1429
vn 0.7561 0.5709 0.3198
vn 0.6038 0.6655 0.4388
vn 0.2952 0.9427 -0.1551
vn 0.6572 0.6853 0.3136
vn 0.8284 0.5554 0.0725
vn 0.4080 0.9128 0.0134
vn 0.4842 0.8479 -0.2157
vn 0.5570 0.7435 -0.3700
vn -0.3836 0.9225 0.0434
vn 0.5995 0.6637 -0.4473
vn 0.0808 0.3760 0.9231
vn 0.4017 0.9156 -0.0145
vn 0.3038 0.9481 0.0939
vn 0.6381 0.5203 0.5675
vn 0.4110 0.9098 -0.0572
vn -0.3446 0.9383 -0.0295
vn -0.3663 0.7930 0.4867
vn 0.4110 0.8846 -0.2202
vn -0.0754 0.9486 0.3072
vn 0.5891 0.6932 0.4152
vn 0.2174 0.6670 0.7126
vn 0.4090 0.8860 0.2182
vn 0.7978 0.5866 -0.1391
vn 0.5425 0.8067 -0.2341
vn 0.4478 0.8822 0.1456
vn -0.1999 0.9787 0.0456
vn 0.3824 0.9178 0.1065
s 1
f 1/1/1 175/2/2 171/3/3
f 2/4/4 172/5/5 174/6/6
f 1/1/1 174/6/6 175/2/2
f 4/7/7 2/4/4 1/1/1
f 3/8/8 2/4/4 4/7/7
f 5/9/9 2/4/4 3/8/8
f 5/9/9 3/8/8 6/10/10
f 7/11/11 5/9/9 8/12/12
f 9/13/13 7/11/11 8/12/12
f 75/14/14 9/13/13 8/12/12
f 75/14/14 8/12/12 10/15/15
f 8/12/12 11/16/16 10/15/15
f 8/12/12 5/9/9 12/17/17
f 8/12/12 12/17/17 11/16/16
f 10/15/15 11/16/16 17/18/18
f 5/9/9 6/10/10 12/17/17
f 6/10/10 3/8/8 12/17/17
f 12/17/17 3/8/8 13/19/19
f 3/8/8 4/7/7 13/19/19
f 171/3/3 14/20/20 1/1/1
f 14/20/20 169/21/21 168/22/22
f 168/22/22 166/23/23 14/20/20
f 15/24/24 166/23/23 164/25/25
f 16/26/26 75/14/14 17/18/18
f 75/14/14 10/15/15 17/18/18
f 18/27/27 16/26/26 17/18/18
f 31/28/28 17/18/18 19/29/29
f 17/18/18 21/30/30 20/31/31
f 17/18/18 11/16/16 21/30/30
f 11/16/16 13/19/19 21/30/30
f 11/16/16 12/17/17 13/19/19
f 13/19/19 4/7/7 22/32/32
f 13/19/19 22/32/32 23/33/33
f 23/33/33 22/32/32 24/34/34
f 21/30/30 13/19/19 23/33/33
f 21/30/30 23/33/33 25/35/35
f 20/31/31 21/30/30 27/36/36
f 21/30/30 26/37/37 27/36/36
f 19/29/29 17/18/18 20/31/31
f 27/36/36 26/37/37 64/38/38
f 28/39/39 20/31/31 27/36/36
f 30/40/40 19/29/29 20/31/31
f 31/28/28 19/29/29 29/41/41
f 30/40/40 20/31/31 28/39/39
f 28/39/39 27/36/36 32/42/42
f 32/42/42 27/36/36 64/38/38
f 33/43/43 115/44/44 32/42/42
f 32/42/42 34/45/45 33/43/43
f 33/43/43 34/45/45 35/46/46
f 36/47/47 33/43/43 35/46/46
f 35/46/46 104/48/48 36/47/47
f 38/49/49 106/50/50 37/51/51
f 38/49/49 37/51/51 39/52/52
f 97/53/53 95/54/54 38/49/49
f 38/49/49 98/55/55 97/53/53
f 40/56/56 111/57/57 92/58/58
f 28/39/39 113/59/59 40/56/56
f 68/60/60 28/39/39 40/56/56
f 28/39/39 68/60/60 30/40/40
f 22/32/32 4/7/7 41/61/61
f 4/7/7 14/20/20 41/61/61
f 4/7/7 1/1/1 14/20/20
f 42/62/62 14/20/20 15/24/24
f 42/62/62 163/63/63 165/64/64
f 43/65/65 165/64/64 170/66/66
f 43/65/65 162/67/67 44/68/68
f 44/68/68 162/67/67 156/69/69
f 45/70/70 43/65/65 44/68/68
f 45/70/70 41/61/61 43/65/65
f 43/65/65 14/20/20 42/62/62
f 41/61/61 14/20/20 43/65/65
f 22/32/32 41/61/61 45/70/70
f 22/32/32 45/70/70 24/34/34
f 46/71/71 45/70/70 44/68/68
f 44/68/68 155/72/72 46/71/71
f 46/71/71 154/73/73 47/74/74
f 45/70/70 46/71/71 47/74/74
f 24/34/34 45/70/70 47/74/74
f 47/74/74 154/73/73 153/75/75
f 48/76/76 24/34/34 47/74/74
f 23/33/33 24/34/34 48/76/76
f 47/74/74 151/77/77 48/76/76
f 23/33/33 48/76/76 50/78/78
f 25/35/35 23/33/33 50/78/78
f 51/79/79 25/35/35 50/78/78
f 21/30/30 25/35/35 51/79/79
f 26/37/37 21/30/30 51/79/79
f 50/78/78 48/76/76 49/80/80
f 49/80/80 151/77/77 152/81/81
f 49/80/80 152/81/81 158/82/82
f 52/83/83 133/84/84 132/85/85
f 53/86/86 132/85/85 131/87/87
f 52/83/83 136/88/88 133/84/84
f 50/78/78 148/89/89 54/90/90
f 49/80/80 158/82/82 157/91/91
f 49/80/80 149/92/92 50/78/78
f 50/78/78 54/90/90 55/93/93
f 51/79/79 50/78/78 55/93/93
f 26/37/37 51/79/79 55/93/93
f 26/37/37 55/93/93 56/94/94
f 56/94/94 55/93/93 57/95/95
f 57/95/95 55/93/93 54/90/90
f 57/95/95 54/90/90 52/83/83
f 58/96/96 57/95/95 52/83/83
f 58/96/96 52/83/83 53/86/86
f 60/97/97 58/96/96 53/86/86
f 59/98/98 58/96/96 60/97/97
f 39/52/52 102/99/99 99/100/100
f 37/51/51 102/99/99 39/52/52
f 61/101/101 100/102/102 69/103/103
f 61/101/101 59/98/98 60/97/97
f 61/101/101 58/96/96 59/98/98
f 35/46/46 34/45/45 61/101/101
f 35/46/46 61/101/101 69/103/103
f 34/45/45 62/104/104 61/101/101
f 62/104/104 58/96/96 61/101/101
f 62/104/104 57/95/95 58/96/96
f 62/104/104 56/94/94 57/95/95
f 63/105/105 56/94/94 62/104/104
f 34/45/45 63/105/105 62/104/104
f 32/42/42 63/105/105 34/45/45
f 63/105/105 64/38/38 56/94/94
f 32/42/42 64/38/38 63/105/105
f 64/38/38 26/37/37 56/94/94
f 18/27/27 124/106/106 16/26/26
f 18/27/27 17/18/18 31/28/28
f 30/40/40 29/41/41 19/29/29
f 66/107/107 31/28/28 29/41/41
f 65/108/108 31/28/28 66/107/107
f 66/107/107 29/41/41 67/109/109
f 67/109/109 65/108/108 66/107/107
f 29/41/41 30/40/40 68/60/60
f 67/109/109 29/41/41 68/60/60
f 68/60/60 118/110/110 67/109/109
f 67/109/109 119/111/111 65/108/108
f 69/103/103 108/112/112 35/46/46
f 69/103/103 101/113/113 37/51/51
f 70/114/114 179/115/115 181/116/116
f 70/114/114 181/116/116 182/117/117
f 70/114/114 182/117/117 180/118/118
f 2/4/4 180/118/118 173/119/119
f 2/4/4 71/120/120 70/114/114
f 72/121/121 70/114/114 71/120/120
f 5/9/9 71/120/120 2/4/4
f 5/9/9 73/122/122 71/120/120
f 74/123/123 73/122/122 5/9/9
f 7/11/11 74/123/123 5/9/9
f 9/13/13 76/124/124 7/11/11
f 75/14/14 76/124/124 9/13/13
f 7/11/11 76/124/124 77/125/125
f 74/123/123 7/11/11 77/125/125
f 77/125/125 79/126/126 78/127/127
f 76/124/124 79/126/126 77/125/125
f 74/123/123 77/125/125 73/122/122
f 73/122/122 77/125/125 71/120/120
f 77/125/125 160/128/128 71/120/120
f 71/120/120 161/129/129 72/121/121
f 72/121/121 177/130/130 70/114/114
f 75/14/14 16/26/26 76/124/124
f 16/26/26 79/126/126 76/124/124
f 16/26/26 80/131/131 79/126/126
f 85/132/132 80/131/131 16/26/26
f 79/126/126 137/133/133 138/134/134
f 138/134/134 78/127/127 79/126/126
f 78/127/127 150/135/135 183/136/136
f 77/125/125 183/136/136 159/137/137
f 81/138/138 146/139/139 137/133/133
f 80/131/131 81/138/138 79/126/126
f 83/140/140 81/138/138 80/131/131
f 84/141/141 82/142/142 80/131/131
f 83/140/140 145/143/143 81/138/138
f 89/144/144 141/145/145 143/146/146
f 16/26/26 90/147/147 85/132/132
f 90/147/147 84/141/141 85/132/132
f 84/141/141 80/131/131 85/132/132
f 83/140/140 80/131/131 82/142/142
f 87/148/148 82/142/142 84/141/141
f 86/149/149 87/148/148 84/141/141
f 87/148/148 88/150/150 82/142/142
f 88/150/150 87/148/148 86/149/149
f 82/142/142 89/144/144 83/140/140
f 88/150/150 89/144/144 82/142/142
f 142/151/151 89/144/144 88/150/150
f 127/152/152 88/150/150 86/149/149
f 90/147/147 126/153/153 84/141/141
f 125/154/154 84/141/141 126/153/153
f 122/155/155 123/156/156 18/27/27
f 93/157/157 68/60/60 40/56/56
f 143/146/146 83/140/140 89/144/144
f 164/25/25 163/63/63 15/24/24
f 95/54/54 94/158/158 38/49/49
f 99/100/100 98/55/55 39/52/52
f 128/159/159 142/151/151 88/150/150
f 92/58/58 91/160/160 40/56/56
f 104/48/48 103/161/161 36/47/47
f 105/162/162 69/103/103 37/51/51
f 120/163/163 31/28/28 65/108/108
f 110/164/164 36/47/47 109/165/165
f 173/119/119 172/5/5 2/4/4
f 161/129/129 184/166/166 72/121/121
f 113/59/59 111/57/57 40/56/56
f 118/110/110 117/167/167 67/109/109
f 91/160/160 93/157/157 40/56/56
f 106/50/50 105/162/162 37/51/51
f 130/168/168 60/97/97 53/86/86
f 124/106/106 90/147/147 16/26/26
f 131/87/87 130/168/168 53/86/86
f 121/169/169 18/27/27 31/28/28
f 114/170/170 32/42/42 115/44/44
f 103/161/161 109/165/165 36/47/47
f 135/171/171 61/101/101 60/97/97
f 110/164/164 112/172/172 33/43/43
f 184/166/166 176/173/173 72/121/121
f 147/174/174 136/88/88 54/90/90
f 125/154/154 127/152/152 86/149/149
f 145/143/143 146/139/139 81/138/138
f 119/111/111 120/163/163 65/108/108
f 177/130/130 179/115/115 70/114/114
f 139/175/175 141/145/145 89/144/144
f 148/89/89 147/174/174 54/90/90
f 1/1/1 2/4/4 174/6/6
f 171/3/3 169/21/21 14/20/20
f 168/22/22 167/176/176 166/23/23
f 15/24/24 14/20/20 166/23/23
f 33/43/43 112/172/172 115/44/44
f 35/46/46 108/112/112 104/48/48
f 38/49/49 94/158/158 106/50/50
f 97/53/53 96/177/177 95/54/54
f 38/49/49 39/52/52 98/55/55
f 28/39/39 114/170/170 113/59/59
f 42/62/62 15/24/24 163/63/63
f 43/65/65 42/62/62 165/64/64
f 43/65/65 170/66/66 162/67/67
f 44/68/68 156/69/69 155/72/72
f 46/71/71 155/72/72 154/73/73
f 47/74/74 153/75/75 151/77/77
f 49/80/80 48/76/76 151/77/77
f 53/86/86 52/83/83 132/85/85
f 52/83/83 54/90/90 136/88/88
f 50/78/78 149/92/92 148/89/89
f 49/80/80 157/91/91 149/92/92
f 37/51/51 101/113/113 102/99/99
f 61/101/101 134/178/178 100/102/102
f 18/27/27 123/156/156 124/106/106
f 68/60/60 116/179/179 118/110/110
f 67/109/109 117/167/167 119/111/111
f 69/103/103 107/180/180 108/112/112
f 69/103/103 100/102/102 101/113/113
f 2/4/4 70/114/114 180/118/118
f 77/125/125 159/137/137 160/128/128
f 71/120/120 160/128/128 161/129/129
f 72/121/121 176/173/173 177/130/130
f 79/126/126 81/138/138 137/133/133
f 138/134/134 150/135/135 78/127/127
f 77/125/125 78/127/127 183/136/136
f 83/140/140 144/181/181 145/143/143
f 142/151/151 139/175/175 89/144/144
f 127/152/152 128/159/159 88/150/150
f 90/147/147 129/182/182 126/153/153
f 125/154/154 86/149/149 84/141/141
f 93/157/157 116/179/179 68/60/60
f 143/146/146 144/181/181 83/140/140
f 105/162/162 107/180/180 69/103/103
f 120/163/163 121/169/169 31/28/28
f 110/164/164 33/43/43 36/47/47
f 130/168/168 135/171/171 60/97/97
f 124/106/106 129/182/182 90/147/147
f 121/169/169 122/155/155 18/27/27
f 114/170/170 28/39/39 32/42/42
f 135/171/171 134/178/178 61/101/101
f 177/130/130 178/183/183 179/115/115
f 139/175/175 140/184/184 141/145/145
