# Blender v2.82 (sub 7) OBJ File: 'LODTerrain.blend'
# www.blender.org
o lod_1_167_Cube.167
v -136.758667 -0.516870 511.174530
v -127.689857 1.758699 496.216644
v -119.633377 7.320111 511.230103
v -93.663536 16.858639 508.853058
v -115.301498 11.692301 499.904114
v -110.364059 12.377541 497.077576
v -118.064316 7.512547 484.656464
v -143.123184 -0.728508 479.682983
v -98.058685 26.428036 493.081238
v -96.062859 23.514484 481.025604
v -122.306480 17.775322 472.962555
v -120.023689 18.434216 461.383514
v -143.568573 2.783524 463.748962
v -175.639069 4.013797 452.713013
v -171.495346 11.251027 413.541229
v -152.731827 15.766914 401.275726
v -145.594772 6.835198 392.320770
v -141.993240 14.745951 413.018433
v -124.905319 14.433606 440.767761
v -118.933929 15.888871 453.251526
v -99.337425 29.056232 457.987823
v -103.429611 24.430618 433.423279
v -111.593620 23.790466 420.338531
v -132.771011 16.136929 409.152100
v -83.361168 6.707522 410.427368
v -112.864090 16.997471 407.802368
v -115.477203 14.548334 394.835205
v -100.589981 15.194746 406.150818
v -97.118530 2.532135 394.920288
v -83.675766 3.348654 399.325836
v -109.056229 -1.633806 383.347321
v -123.229446 5.197780 385.962616
v -4.725922 41.050056 509.627960
v -1.085678 36.917057 493.040222
v -15.277985 36.719616 492.772766
v -2.332146 34.087185 468.422882
v -39.711208 41.908150 507.290039
v -71.258041 41.578514 510.877045
v -32.390903 34.729584 475.391022
v -56.555618 43.324730 496.143402
v -33.632648 26.897434 454.200897
v -46.090004 37.512238 491.009460
v -34.973473 19.203583 419.798462
v -9.998314 23.654442 429.948853
v -75.590103 34.804981 498.880096
v -79.860268 29.861858 506.105133
v -91.991486 24.967937 497.371124
v -78.434364 36.527596 488.854889
v -87.945107 32.553398 464.736053
v -68.107460 35.886887 474.376801
v -51.866695 37.204697 474.371429
v -54.201294 30.565474 453.451233
v -12.810577 14.682955 393.391174
v -47.327656 21.320297 423.348267
v -60.202591 23.609978 439.315338
v -79.506950 29.435535 453.875458
v -76.676598 20.830275 433.533600
v -86.918243 20.039118 424.262756
v -66.765541 19.105923 418.559387
v -58.649254 9.362782 402.691162
v -130.120270 12.780352 398.905334
v -189.306274 -14.920265 509.477478
v -150.178711 -6.794968 510.688995
v -128.426300 1.456314 524.391357
v -115.142609 11.756156 522.228027
v -110.364059 12.377546 524.922485
v -118.064316 7.512545 537.343567
v -143.123184 -0.728497 542.317139
v -98.058685 26.428036 528.918823
v -96.062859 23.514469 540.974487
v -122.306664 17.775326 549.037476
v -120.023689 18.434237 560.616577
v -143.568573 2.783522 558.251038
v -175.639069 4.013791 569.286987
v -118.933838 15.888914 568.748535
v -99.337425 29.056231 564.012207
v -16.753784 34.167023 510.457245
v -6.656395 37.811333 523.550171
v -15.278343 36.719307 529.229126
v -2.332054 34.087185 553.577148
v -41.196285 41.902237 515.964294
v -32.390903 34.729588 546.609009
v -43.523888 37.710754 527.293213
v -37.713383 28.779179 561.811768
v -56.802132 43.238426 526.331909
v -74.212646 35.203705 522.144592
v -86.442764 23.145033 516.442627
v -91.991486 24.967922 524.628906
v -77.812630 36.886002 530.870056
v -87.945107 32.553406 557.263977
v -68.107460 35.886890 547.623230
v -51.866695 37.204708 547.628601
v -54.201294 30.565464 568.548828
v -79.506950 29.435526 568.124573
v 0.000000 42.935841 519.908081
v 0.000000 39.930725 526.647705
v 0.000000 43.897152 510.807861
v 0.000000 43.630783 514.806274
v 0.000000 43.631630 506.108307
v 0.000000 39.095375 495.825226
v 0.000000 38.134125 493.724579
v 0.000000 37.548889 492.597931
v 0.000000 35.819153 471.946625
v 0.000000 35.335716 470.150299
v 0.000000 36.157444 468.218231
v 0.000000 32.297752 445.319794
v 0.000000 34.892570 463.517487
v 0.000000 25.883636 424.053589
v 0.000000 22.998068 410.838318
v 0.000000 25.657200 391.151764
v 0.000000 23.357433 384.984100
v -6.500122 15.973013 381.250000
v -2.179886 19.955568 381.250000
v 0.000000 20.550072 381.250000
v -62.085674 1.852948 381.250000
v -63.888042 0.790470 381.250000
v -57.929573 1.707718 381.250000
v -32.717480 7.894960 381.250000
v -18.351700 10.142937 381.250000
v -75.607231 -1.469993 381.250000
v -14.838531 12.898413 381.250000
v -88.638634 -2.433504 381.250000
v -94.128494 -2.167500 381.250000
v -106.303162 -2.325125 381.250000
v -109.916656 -1.968725 381.250000
v -150.096405 7.414415 381.250000
v -138.153885 2.971072 381.250000
v -122.830109 3.463877 381.250000
v -190.625000 -12.832310 527.392944
v -190.625000 -14.860811 511.970673
v -190.625000 -11.929110 488.384308
v -190.625000 -14.860794 507.325775
v -190.625000 -6.834600 474.866852
v -190.625000 -11.272486 485.476898
v -190.625000 10.059226 424.054260
v -190.625000 6.569341 442.503387
v -190.625000 12.327803 401.461853
v -171.743866 10.482672 381.250000
v -174.721924 9.723429 381.250000
v -180.470291 10.252064 381.250000
v -190.625000 11.558514 387.845093
v -152.580170 9.580597 381.250000
v -190.625000 -14.860718 509.529877
v -190.625000 0.401001 456.607849
v -190.625000 10.937214 381.250000
v -19.940544 28.571774 571.875000
v -33.564644 27.673252 571.875000
v 0.000000 34.892536 558.482483
v 0.000000 32.982944 571.875000
v -5.978050 29.125477 571.875000
v 0.000000 36.157372 553.781799
v 0.000000 35.335674 551.849792
v 0.000000 35.808929 549.284546
v -37.030724 26.393394 571.875000
v -40.339619 26.741709 571.875000
v -53.441807 29.543943 571.875000
v -55.613396 28.928848 571.875000
v -62.639721 27.395046 571.875000
v -74.534515 27.934978 571.875000
v -78.153885 28.338568 571.875000
v -78.985123 27.848984 571.875000
v -92.051292 26.411335 571.875000
v -96.441971 26.953945 571.875000
v -100.647217 27.575638 571.875000
v -116.489151 17.235743 571.875000
v -120.429352 15.524443 571.875000
v -132.504410 9.690062 571.875000
v -143.145508 5.996102 571.875000
v -173.445419 4.713511 571.875000
v -175.365295 4.491943 571.875000
v -190.625000 -11.272573 536.522827
v -190.625000 -6.834644 547.132996
v -190.625000 -11.929203 533.615417
v -179.437820 4.661592 571.875000
v -190.625000 3.236175 571.875000
v -190.625000 0.401033 565.392212
vt 0.967900 0.638026
vt 0.993611 0.684308
vt 0.995183 0.645899
vt 0.975718 0.687605
vt 0.984453 0.623027
vt 0.997942 0.632785
vt 0.998199 0.616776
vt 0.988036 0.612517
vt 0.995102 0.591798
vt 0.983038 0.606659
vt 0.972806 0.616198
vt 0.981002 0.595411
vt 0.961570 0.618819
vt 0.969552 0.594293
vt 0.950715 0.616455
vt 0.952791 0.641573
vt 0.972962 0.688165
vt 0.963114 0.685779
vt 0.942549 0.667516
vt 0.945971 0.684710
vt 0.932138 0.684209
vt 0.901877 0.667204
vt 0.891782 0.687814
vt 0.913006 0.686099
vt 0.871732 0.676430
vt 0.878786 0.687587
vt 0.871564 0.667447
vt 0.892030 0.650007
vt 0.882497 0.639171
vt 0.873174 0.650736
vt 0.903237 0.638523
vt 0.929850 0.624307
vt 0.942992 0.615828
vt 0.943787 0.597081
vt 0.955149 0.586787
vt 0.923635 0.602583
vt 0.909214 0.609880
vt 0.899464 0.628165
vt 0.902753 0.580385
vt 0.897698 0.607940
vt 0.886223 0.612666
vt 0.896455 0.598709
vt 0.877328 0.619395
vt 0.885014 0.594019
vt 0.890144 0.581246
vt 0.914003 0.584953
vt 0.874341 0.606533
vt 0.983218 0.500790
vt 0.999034 0.516357
vt 0.996458 0.505083
vt 0.981187 0.515602
vt 0.956776 0.501841
vt 0.993926 0.537101
vt 0.963479 0.531593
vt 0.982528 0.554990
vt 0.998155 0.568803
vt 0.978920 0.544836
vt 0.943590 0.533579
vt 0.909901 0.533513
vt 0.920619 0.507188
vt 0.987279 0.574077
vt 0.995189 0.578421
vt 0.986085 0.590099
vt 0.977110 0.576850
vt 0.962721 0.566893
vt 0.962763 0.551843
vt 0.940716 0.552622
vt 0.913608 0.545888
vt 0.884192 0.512947
vt 0.892670 0.558150
vt 0.929046 0.558030
vt 0.944388 0.575674
vt 0.922851 0.576506
vt 0.908853 0.565110
vt 0.872217 0.586062
vt 0.873577 0.560481
vt 0.985263 0.499603
vt 0.983750 0.499734
vt 0.889182 0.627291
vt 0.975719 0.687606
vt 0.967900 0.638026
vt 0.985960 0.623029
vt 0.987829 0.612132
vt 0.983038 0.606659
vt 0.972806 0.616198
vt 0.981002 0.595411
vt 0.961570 0.618819
vt 0.969552 0.594293
vt 0.950715 0.616455
vt 0.952791 0.641573
vt 0.972962 0.688165
vt 0.963114 0.685779
vt 0.942549 0.667516
vt 0.945971 0.684710
vt 0.939910 0.671747
vt 0.942992 0.615827
vt 0.939191 0.631337
vt 0.939701 0.617951
vt 0.943787 0.597081
vt 0.955149 0.586787
vt 0.987371 0.506731
vt 0.993232 0.499728
vt 0.981185 0.515602
vt 0.956776 0.501841
vt 0.992035 0.540668
vt 0.963479 0.531593
vt 0.983954 0.543605
vt 0.949536 0.535998
vt 0.982145 0.555534
vt 0.989800 0.571917
vt 0.993481 0.584562
vt 0.978406 0.576086
vt 0.986085 0.590099
vt 0.962721 0.566893
vt 0.962763 0.551844
vt 0.940716 0.552622
vt 0.940436 0.571130
vt 0.939428 0.560763
vt 0.944387 0.575674
vt 0.940417 0.575828
vt 0.940614 0.574553
vt 0.939722 0.538700
vt 0.937721 0.551878
vt 0.981077 0.687710
vt 0.991797 0.685899
vt 0.998686 0.500101
vt 0.939483 0.640754
vt 0.934249 0.498996
vt 0.914655 0.499115
vt 0.872997 0.506641
vt 0.872525 0.514691
vt 0.872306 0.530549
vt 0.872337 0.517634
vt 0.937970 0.553894
vt 0.983374 0.500266
vt 0.989922 0.499556
vt 0.956517 0.499734
vt 0.951777 0.499633
vt 0.958540 0.499509
vt 0.939940 0.613739
vt 0.991797 0.685899
vt 0.993525 0.685606
vt 0.901478 0.500321
vt 0.881949 0.500156
vt 0.960750 0.499708
vt 0.993233 0.499728
vt 0.936843 0.594253
vt 0.937055 0.590466
vt 0.939986 0.665626
vt 0.937337 0.598842
vt 0.939661 0.535379
vt 0.956518 0.499734
vt 0.958540 0.499509
vt 0.872349 0.686784
vt 0.871650 0.632998
vt 0.872787 0.646814
vt 0.876311 0.500153
vt 0.872935 0.500228
vt 0.872931 0.502328
vt 0.873276 0.573569
vt 0.873005 0.562735
vt 0.873476 0.556323
vt 0.939862 0.667495
vt 0.939580 0.504384
vt 0.951777 0.499633
vt 0.872254 0.603757
vt 0.871875 0.591267
vt 0.872548 0.619250
vt 0.939129 0.532466
vt 0.939649 0.518024
vt 0.872239 0.607420
vt 0.960222 0.499545
vt 0.982568 0.499705
vt 0.871301 0.670177
vt 0.939613 0.684480
vt 0.938877 0.499164
vn -0.3276 0.9166 0.2290
vn -0.1190 0.9928 0.0094
vn -0.2804 0.9598 -0.0120
vn -0.1947 0.9644 0.1786
vn -0.4181 0.9080 0.0260
vn -0.3906 0.9186 -0.0587
vn -0.4720 0.8816 -0.0056
vn -0.4342 0.8874 -0.1548
vn -0.5090 0.8582 0.0654
vn -0.4985 0.8654 0.0508
vn -0.4784 0.8057 0.3492
vn -0.5284 0.8080 0.2604
vn -0.4667 0.8214 0.3279
vn -0.5079 0.8584 0.0717
vn -0.5115 0.8397 -0.1823
vn -0.3222 0.9275 0.1893
vn -0.1561 0.9485 0.2755
vn -0.1023 0.9190 0.3808
vn -0.0710 0.9506 0.3023
vn -0.1228 0.9174 0.3784
vn -0.0074 0.9674 0.2530
vn -0.0664 0.9931 0.0967
vn 0.0600 0.9982 -0.0061
vn 0.0246 0.9873 0.1567
vn 0.0870 0.9942 -0.0630
vn 0.0837 0.9941 -0.0680
vn -0.1727 0.9804 -0.0947
vn 0.1361 0.9824 -0.1278
vn 0.2920 0.9030 -0.3152
vn 0.3828 0.8835 -0.2700
vn -0.0990 0.9951 0.0002
vn -0.3663 0.9193 0.1435
vn -0.4865 0.8674 -0.1040
vn -0.2907 0.9509 -0.1060
vn -0.2334 0.9680 -0.0926
vn -0.0861 0.9853 -0.1476
vn -0.0237 0.9910 -0.1316
vn -0.2190 0.9583 -0.1838
vn -0.0231 0.9321 -0.3615
vn 0.6186 0.6609 -0.4248
vn 0.1274 0.8445 -0.5201
vn 0.2495 0.8319 -0.4957
vn 0.0421 0.8608 -0.5072
vn 0.1843 0.8323 -0.5228
vn 0.0059 0.9139 -0.4058
vn 0.1130 0.8312 -0.5443
vn 0.2143 0.8745 -0.4350
vn -0.3729 0.9120 -0.1708
vn -0.0134 0.9998 -0.0103
vn -0.5390 0.8376 -0.0884
vn 0.0593 0.9980 -0.0225
vn -0.3340 0.9338 -0.1284
vn 0.1510 0.9876 -0.0429
vn -0.0872 0.9640 -0.2513
vn 0.0027 0.9915 -0.1302
vn -0.4714 0.8818 0.0090
vn 0.1930 0.9498 -0.2461
vn -0.5846 0.7895 -0.1867
vn -0.0433 0.9556 -0.2915
vn -0.2139 0.9464 -0.2418
vn -0.5532 0.8269 0.1004
vn -0.7354 0.6776 0.0045
vn -0.4211 0.7324 0.5350
vn -0.3833 0.9213 0.0653
vn -0.0997 0.9641 -0.2461
vn 0.1493 0.9594 -0.2390
vn -0.0221 0.9457 -0.3241
vn -0.0737 0.9393 -0.3351
vn -0.3724 0.9104 -0.1801
vn -0.2924 0.8923 -0.3439
vn -0.0722 0.9456 -0.3171
vn -0.0398 0.9397 -0.3395
vn -0.1945 0.8983 -0.3940
vn -0.0069 0.9188 -0.3947
vn -0.0026 0.9526 -0.3040
vn -0.3057 0.9005 -0.3092
vn -0.6223 0.7156 -0.3171
vn -0.5962 0.7253 -0.3442
vn 0.2689 0.9163 -0.2968
vn -0.1958 0.9652 -0.1734
vn -0.3308 0.9183 -0.2173
vn -0.3754 0.9268 -0.0092
vn -0.4376 0.8777 0.1950
vn -0.5053 0.8614 -0.0516
vn -0.4767 0.8077 -0.3469
vn -0.5346 0.8061 -0.2536
vn -0.4667 0.8214 -0.3279
vn -0.5056 0.8594 -0.0759
vn -0.5115 0.8397 0.1823
vn -0.3222 0.9275 -0.1893
vn -0.1561 0.9485 -0.2755
vn -0.1023 0.9190 -0.3808
vn -0.0710 0.9506 -0.3023
vn -0.1228 0.9174 -0.3784
vn -0.0858 0.9295 -0.3587
vn -0.4865 0.8674 0.1040
vn -0.4042 0.9052 -0.1306
vn -0.4201 0.9024 -0.0957
vn -0.2907 0.9509 0.1060
vn -0.2335 0.9678 0.0937
vn -0.3359 0.9350 0.1131
vn -0.5564 0.8253 0.0964
vn 0.0176 0.9985 0.0523
vn -0.3333 0.9330 0.1353
vn 0.1278 0.9883 0.0830
vn -0.1090 0.9656 0.2359
vn 0.0855 0.9523 0.2928
vn -0.0529 0.9637 0.2616
vn -0.0026 0.9920 0.1260
vn -0.5642 0.8235 -0.0601
vn -0.5621 0.7958 -0.2253
vn -0.3950 0.9109 -0.1191
vn -0.4019 0.7376 -0.5426
vn -0.1005 0.9644 0.2445
vn 0.1537 0.9555 0.2517
vn -0.0059 0.9473 0.3202
vn 0.0564 0.9505 0.3055
vn -0.0928 0.9330 0.3476
vn -0.0398 0.9397 0.3395
vn -0.2880 0.8669 0.4068
vn -0.1422 0.9350 0.3248
vn 0.1596 0.9586 0.2357
vn 0.0010 0.9560 0.2933
vn -0.2008 0.9702 -0.1357
vn -0.1609 0.9810 -0.1085
vn -0.5180 0.8553 0.0110
vn -0.1892 0.9570 -0.2198
vn -0.5079 0.8488 -0.1469
vn -0.3371 0.9139 -0.2262
vn -0.5558 0.8061 -0.2032
vn -0.5055 0.8618 -0.0422
vn -0.1884 0.9393 -0.2866
vn -0.3187 0.9263 -0.2009
vn -0.2192 0.9091 0.3543
vn -0.3972 0.8832 0.2493
vn -0.5301 0.8257 0.1930
vn -0.6615 0.7490 0.0377
vn -0.5626 0.8159 -0.1335
vn -0.4390 0.8968 -0.0555
vn -0.5080 0.8610 0.0263
vn -0.1585 0.9795 0.1242
vn 0.0451 0.9990 0.0000
vn -0.4081 0.9035 -0.1309
vn -0.6569 0.7486 -0.0897
vn -0.3681 0.9147 0.1669
vn -0.5909 0.7746 -0.2253
vn 0.1287 0.9688 0.2116
vn -0.0420 0.9345 0.3533
vn -0.0610 0.9753 -0.2120
vn -0.2572 0.9565 0.1373
vn -0.1254 0.9634 0.2369
vn -0.6615 0.7490 -0.0377
vn -0.4717 0.8817 0.0005
vn 0.0670 0.9933 -0.0936
vn 0.0865 0.9572 -0.2760
vn 0.5365 0.8256 -0.1749
vn -0.6035 0.7325 -0.3150
vn -0.2130 0.7809 -0.5871
vn -0.5404 0.7547 -0.3720
vn -0.1379 0.9400 -0.3121
vn -0.3068 0.9072 -0.2877
vn -0.0535 0.9209 -0.3861
vn -0.0415 0.9833 -0.1773
vn -0.2560 0.9446 0.2051
vn -0.5626 0.8159 0.1335
vn 0.0105 0.9537 -0.3006
vn 0.0207 0.9468 -0.3210
vn 0.1912 0.9263 -0.3246
vn -0.2103 0.9441 0.2539
vn -0.0474 0.9648 0.2585
vn 0.2661 0.9289 -0.2575
vn -0.4865 0.8674 -0.1043
vn -0.5543 0.8054 -0.2100
vn -0.0678 0.9969 -0.0404
vn -0.1159 0.9100 -0.3980
vn -0.5383 0.8343 0.1189
s 1
f 8/1/1 62/2/2 63/3/3
f 131/4/4 62/2/2 8/1/1
f 2/5/5 63/3/3 1/6/6
f 2/5/5 8/1/1 63/3/3
f 2/5/5 1/6/6 3/7/7
f 2/5/5 3/7/7 5/8/8
f 4/9/9 5/8/8 3/7/7
f 6/10/10 2/5/5 5/8/8
f 6/10/10 7/11/11 2/5/5
f 7/11/11 8/1/1 2/5/5
f 9/12/12 7/11/11 6/10/10
f 11/13/13 7/11/11 10/14/14
f 8/1/1 7/11/11 11/13/13
f 12/15/15 13/16/16 11/13/13
f 13/16/16 8/1/1 11/13/13
f 8/1/1 134/17/17 131/4/4
f 133/18/18 13/16/16 14/19/19
f 14/19/19 144/20/20 133/18/18
f 14/19/19 136/21/21 144/20/20
f 15/22/22 137/23/23 135/24/24
f 135/24/24 14/19/19 15/22/22
f 140/25/25 141/26/26 137/23/23
f 138/27/27 15/22/22 16/28/28
f 17/29/29 142/30/30 16/28/28
f 16/28/28 15/22/22 18/31/31
f 17/29/29 16/28/28 18/31/31
f 15/22/22 14/19/19 18/31/31
f 18/31/31 14/19/19 13/16/16
f 19/32/32 18/31/31 13/16/16
f 20/33/33 19/32/32 13/16/16
f 20/33/33 13/16/16 12/15/15
f 20/33/33 12/15/15 21/34/34
f 21/34/34 12/15/15 11/13/13
f 49/35/35 21/34/34 11/13/13
f 22/36/36 20/33/33 21/34/34
f 22/36/36 19/32/32 20/33/33
f 23/37/37 19/32/32 22/36/36
f 24/38/38 18/31/31 19/32/32
f 23/37/37 24/38/38 19/32/32
f 25/39/39 23/37/37 22/36/36
f 26/40/40 27/41/41 23/37/37
f 28/42/42 26/40/40 23/37/37
f 25/39/39 28/42/42 23/37/37
f 27/41/41 24/38/38 23/37/37
f 27/41/41 32/43/43 24/38/38
f 29/44/44 27/41/41 26/40/40
f 29/44/44 26/40/40 28/42/42
f 30/45/45 29/44/44 28/42/42
f 30/45/45 28/42/42 25/39/39
f 58/46/46 25/39/39 22/36/36
f 31/47/47 27/41/41 29/44/44
f 31/47/47 32/43/43 27/41/41
f 34/48/48 77/49/49 33/50/50
f 35/51/51 77/49/49 34/48/48
f 36/52/52 35/51/51 34/48/48
f 35/51/51 37/53/53 77/49/49
f 39/54/54 37/53/53 35/51/51
f 40/55/55 38/56/56 37/53/53
f 42/57/57 40/55/55 37/53/53
f 36/52/52 39/54/54 35/51/51
f 42/57/57 37/53/53 39/54/54
f 39/54/54 41/58/58 42/57/57
f 43/59/59 41/58/58 39/54/54
f 44/60/60 39/54/54 36/52/52
f 44/60/60 43/59/59 39/54/54
f 40/55/55 45/61/61 38/56/56
f 38/56/56 45/61/61 46/62/62
f 45/61/61 4/9/9 46/62/62
f 45/61/61 47/63/63 4/9/9
f 48/64/64 47/63/63 45/61/61
f 47/63/63 6/10/10 4/9/9
f 6/10/10 5/8/8 4/9/9
f 9/12/12 6/10/10 47/63/63
f 10/14/14 7/11/11 9/12/12
f 48/64/64 9/12/12 47/63/63
f 48/64/64 10/14/14 9/12/12
f 49/35/35 10/14/14 48/64/64
f 48/64/64 45/61/61 40/55/55
f 40/55/55 50/65/65 48/64/64
f 50/65/65 49/35/35 48/64/64
f 51/66/66 50/65/65 40/55/55
f 42/57/57 51/66/66 40/55/55
f 41/58/58 51/66/66 42/57/57
f 41/58/58 52/67/67 51/66/66
f 51/66/66 52/67/67 50/65/65
f 54/68/68 52/67/67 41/58/58
f 43/59/59 54/68/68 41/58/58
f 53/69/69 43/59/59 44/60/60
f 60/70/70 55/71/71 54/68/68
f 54/68/68 55/71/71 52/67/67
f 55/71/71 50/65/65 52/67/67
f 50/65/65 55/71/71 56/72/72
f 56/72/72 49/35/35 50/65/65
f 49/35/35 11/13/13 10/14/14
f 56/72/72 21/34/34 49/35/35
f 57/73/73 21/34/34 56/72/72
f 58/46/46 22/36/36 21/34/34
f 58/46/46 21/34/34 57/73/73
f 25/39/39 58/46/46 57/73/73
f 55/71/71 59/74/74 56/72/72
f 59/74/74 57/73/73 56/72/72
f 60/70/70 59/74/74 55/71/71
f 59/74/74 25/39/39 57/73/73
f 60/70/70 30/45/45 59/74/74
f 59/74/74 30/45/45 25/39/39
f 122/75/75 29/44/44 30/45/45
f 115/76/76 60/70/70 54/68/68
f 34/48/48 100/77/77 101/78/78
f 17/29/29 61/79/79 32/43/43
f 61/79/79 17/29/29 24/38/38
f 24/38/38 17/29/29 18/31/31
f 32/43/43 61/79/79 24/38/38
f 63/3/3 173/80/80 68/81/81
f 68/81/81 1/6/6 63/3/3
f 64/82/82 1/6/6 68/81/81
f 64/82/82 3/7/7 1/6/6
f 65/83/83 3/7/7 64/82/82
f 4/9/9 3/7/7 65/83/83
f 66/84/84 65/83/83 64/82/82
f 66/84/84 64/82/82 67/85/85
f 67/85/85 64/82/82 68/81/81
f 69/86/86 66/84/84 67/85/85
f 71/87/87 70/88/88 67/85/85
f 68/81/81 71/87/87 67/85/85
f 72/89/89 71/87/87 73/90/90
f 73/90/90 71/87/87 68/81/81
f 68/81/81 171/91/91 73/90/90
f 73/90/90 172/92/92 74/93/93
f 74/93/93 172/92/92 176/94/94
f 176/94/94 174/95/95 74/93/93
f 75/96/96 167/97/97 166/98/98
f 75/96/96 72/89/89 73/90/90
f 75/96/96 76/99/99 72/89/89
f 76/99/99 71/87/87 72/89/89
f 90/100/100 71/87/87 76/99/99
f 33/50/50 77/49/49 78/101/101
f 78/101/101 98/102/102 33/50/50
f 79/103/103 78/101/101 77/49/49
f 80/104/104 78/101/101 79/103/103
f 81/105/105 79/103/103 77/49/49
f 81/105/105 77/49/49 37/53/53
f 81/105/105 37/53/53 38/56/56
f 82/106/106 79/103/103 81/105/105
f 81/105/105 83/107/107 82/106/106
f 80/104/104 79/103/103 82/106/106
f 84/108/108 82/106/106 83/107/107
f 85/109/109 83/107/107 81/105/105
f 81/105/105 38/56/56 85/109/109
f 85/109/109 38/56/56 86/110/110
f 38/56/56 87/111/111 86/110/110
f 87/111/111 38/56/56 46/62/62
f 87/111/111 46/62/62 4/9/9
f 89/112/112 86/110/110 87/111/111
f 89/112/112 87/111/111 88/113/113
f 88/113/113 87/111/111 4/9/9
f 88/113/113 4/9/9 66/84/84
f 66/84/84 4/9/9 65/83/83
f 69/86/86 88/113/113 66/84/84
f 70/88/88 69/86/86 67/85/85
f 89/112/112 88/113/113 69/86/86
f 89/112/112 69/86/86 70/88/88
f 90/100/100 89/112/112 70/88/88
f 89/112/112 85/109/109 86/110/110
f 85/109/109 89/112/112 91/114/114
f 91/114/114 89/112/112 90/100/100
f 92/115/115 85/109/109 91/114/114
f 84/108/108 83/107/107 85/109/109
f 84/108/108 85/109/109 92/115/115
f 84/108/108 92/115/115 93/116/116
f 92/115/115 91/114/114 93/116/116
f 91/114/114 159/117/117 158/118/118
f 94/119/119 91/114/114 90/100/100
f 90/100/100 70/88/88 71/87/87
f 94/119/119 90/100/100 76/99/99
f 161/120/120 160/121/121 94/119/119
f 155/122/122 93/116/116 156/123/123
f 129/124/124 62/2/2 130/125/125
f 98/102/102 97/126/126 33/50/50
f 168/127/127 167/97/97 73/90/90
f 106/128/128 108/129/129 44/60/60
f 112/130/130 121/131/131 53/69/69
f 118/132/132 53/69/69 119/133/133
f 157/134/134 156/123/123 93/116/116
f 96/135/135 95/136/136 78/101/101
f 105/137/137 107/138/138 36/52/52
f 104/139/139 105/137/137 36/52/52
f 166/98/98 165/140/140 75/96/96
f 165/140/140 76/99/99 75/96/96
f 158/118/118 93/116/116 91/114/114
f 132/141/141 143/142/142 62/2/2
f 109/143/143 110/144/144 53/69/69
f 153/145/145 78/101/101 80/104/104
f 97/126/126 99/146/146 33/50/50
f 163/147/147 162/148/148 76/99/99
f 169/149/149 73/90/90 74/93/93
f 164/150/150 163/147/147 76/99/99
f 155/122/122 154/151/151 84/108/108
f 151/152/152 152/153/153 80/104/104
f 140/25/25 145/154/154 141/26/26
f 109/143/143 44/60/60 108/129/129
f 127/155/155 126/156/156 17/29/29
f 111/157/157 114/158/158 113/159/159
f 120/160/160 60/70/70 116/161/161
f 118/132/132 117/162/162 43/59/59
f 174/95/95 170/163/163 74/93/93
f 150/164/164 148/165/165 80/104/104
f 124/166/166 29/44/44 123/167/167
f 120/160/160 122/75/75 30/45/45
f 152/153/153 153/145/145 80/104/104
f 112/130/130 110/144/144 111/157/157
f 106/128/128 36/52/52 107/138/138
f 127/155/155 32/43/43 128/168/168
f 147/169/169 84/108/108 154/151/151
f 170/163/163 169/149/149 74/93/93
f 162/148/148 94/119/119 76/99/99
f 147/169/169 146/170/170 82/106/106
f 124/166/166 125/171/171 31/47/47
f 125/171/171 32/43/43 31/47/47
f 148/165/165 151/152/152 80/104/104
f 103/172/172 34/48/48 102/173/173
f 117/162/162 54/68/68 43/59/59
f 100/77/77 33/50/50 99/146/146
f 146/170/170 80/104/104 82/106/106
f 160/121/121 159/117/117 94/119/119
f 103/172/172 104/139/139 36/52/52
f 142/30/30 138/27/27 16/28/28
f 121/131/131 119/133/133 53/69/69
f 101/78/78 102/173/173 34/48/48
f 143/142/142 130/125/125 62/2/2
f 131/4/4 132/141/141 62/2/2
f 8/1/1 13/16/16 134/17/17
f 133/18/18 134/17/17 13/16/16
f 135/24/24 136/21/21 14/19/19
f 137/23/23 15/22/22 139/174/174
f 139/174/174 140/25/25 137/23/23
f 138/27/27 139/174/174 15/22/22
f 17/29/29 126/156/156 142/30/30
f 122/75/75 123/167/167 29/44/44
f 115/76/76 116/161/161 60/70/70
f 63/3/3 129/124/124 173/80/80
f 68/81/81 173/80/80 171/91/91
f 73/90/90 171/91/91 172/92/92
f 176/94/94 175/175/175 174/95/95
f 75/96/96 73/90/90 167/97/97
f 78/101/101 95/136/136 98/102/102
f 91/114/114 94/119/119 159/117/117
f 155/122/122 84/108/108 93/116/116
f 129/124/124 63/3/3 62/2/2
f 118/132/132 43/59/59 53/69/69
f 165/140/140 164/150/150 76/99/99
f 158/118/118 157/134/134 93/116/116
f 153/145/145 96/135/135 78/101/101
f 169/149/149 168/127/127 73/90/90
f 109/143/143 53/69/69 44/60/60
f 120/160/160 30/45/45 60/70/70
f 150/164/164 149/176/176 148/165/165
f 124/166/166 31/47/47 29/44/44
f 111/157/157 113/159/159 112/130/130
f 112/130/130 53/69/69 110/144/144
f 106/128/128 44/60/60 36/52/52
f 127/155/155 17/29/29 32/43/43
f 147/169/169 82/106/106 84/108/108
f 162/148/148 161/120/120 94/119/119
f 125/171/171 128/168/168 32/43/43
f 103/172/172 36/52/52 34/48/48
f 117/162/162 115/76/76 54/68/68
f 100/77/77 34/48/48 33/50/50
f 146/170/170 150/164/164 80/104/104
