# Blender v2.82 (sub 7) OBJ File: 'LODTerrain.blend'
# www.blender.org
o lod_1_005_Cube.005
v -406.005280 6.307868 -1523.025024
v -409.952026 6.301801 -1497.640503
v -388.720093 9.171403 -1450.373535
v -395.000000 9.054536 -1464.105225
v -383.268829 1.532017 -1422.698730
v -397.176514 -2.531225 -1412.983032
v -427.004852 -19.544382 -1384.588867
v -405.040497 -8.746737 -1406.441284
v -397.348511 3.556300 -1432.404419
v -408.958344 -1.753283 -1423.598389
v -422.752686 2.659610 -1446.642822
v -418.508636 -1.337975 -1430.952515
v -446.937225 -2.938600 -1507.179810
v -428.442871 2.229674 -1476.165039
v -485.584778 -8.789268 -1506.971436
v -460.796661 -5.123549 -1485.685913
v -486.142700 -9.780560 -1487.321411
v -454.381439 -5.875201 -1482.140137
v -474.786743 -15.175299 -1463.713501
v -446.936035 -7.101580 -1465.672485
v -439.645752 -4.506571 -1450.614990
v -498.631500 -11.356872 -1482.947021
v -513.635437 -14.408991 -1477.051270
v -505.817902 -17.365915 -1471.614502
v -490.097626 -22.765762 -1445.514771
v -466.411285 -19.475647 -1407.418091
v -398.812042 -12.147060 -1343.493286
v -440.923218 -21.986490 -1362.601685
v -511.529327 -32.211777 -1391.635132
v -489.396271 -28.023441 -1354.667358
v -561.203308 -5.123534 -1485.685791
v -514.836182 -11.150639 -1505.009888
v -535.857422 -9.780513 -1487.321411
v -567.618652 -5.875166 -1482.140137
v -547.213379 -15.175217 -1463.713623
v -523.219421 -11.009900 -1483.476318
v -531.636658 -22.967834 -1445.733765
v -514.172058 -25.288094 -1418.887207
v -558.631104 -18.697065 -1407.466797
v -530.887512 -28.180706 -1354.132568
v -381.250000 -14.250339 -1337.401489
v -381.250000 -14.326320 -1334.375000
v -395.845581 -12.705332 -1334.375000
v -410.199371 -10.924249 -1334.375000
v -381.250000 -10.047764 -1357.338135
v -381.250000 -11.203894 -1375.516113
v -381.250000 -8.135862 -1395.050171
v -381.250000 0.679342 -1410.802856
v -381.250000 0.938861 -1411.569092
v -381.250000 3.429905 -1425.387573
v -381.250000 1.315399 -1415.560547
v -381.250000 8.515986 -1439.308228
v -381.250000 9.881042 -1451.116455
v -381.250000 10.207833 -1461.213257
v -381.250000 10.589095 -1472.758057
v -381.250000 10.232871 -1486.870239
v -381.250000 8.597539 -1510.555786
v -388.257446 6.822064 -1525.000000
v -397.598663 5.784696 -1525.000000
v -381.250000 5.418777 -1525.000000
v -403.871277 6.190228 -1525.000000
v -407.768951 5.748200 -1525.000000
v -455.247864 -15.909376 -1334.375000
v -480.347198 -19.904375 -1334.375000
v -421.564056 -12.177746 -1334.375000
v -448.194000 -14.680174 -1334.375000
v -412.502655 4.355477 -1525.000000
v -445.980469 -4.605875 -1525.000000
v -459.776520 -6.701959 -1525.000000
v -499.473419 -11.150674 -1525.000000
v -489.283295 -22.713926 -1334.375000
v -523.045898 -23.178154 -1334.375000
v -526.267029 -23.200758 -1334.375000
v -509.722473 -12.023007 -1525.000000
v -566.345703 -15.983383 -1334.375000
v -571.875000 -15.017509 -1334.375000
v -571.875000 -23.122116 -1361.048950
v -571.875000 -23.339357 -1366.443115
v -571.875000 -20.637955 -1380.994385
v -571.875000 -8.320988 -1449.606323
v -571.875000 -10.774912 -1431.555054
v -571.875000 -8.266674 -1464.208252
v -571.875000 -8.026026 -1465.448242
v -571.875000 -3.355868 -1505.027954
v -571.875000 -3.346682 -1504.075073
v -571.875000 -3.324022 -1505.402954
v -524.443665 -10.705471 -1525.000000
v -543.911194 -8.028343 -1525.000000
v -571.875000 -3.347372 -1505.935791
v -571.875000 -5.107344 -1525.000000
v -571.875000 -19.005648 -1399.134644
v -571.875000 -13.572193 -1414.400391
v -571.875000 -6.576262 -1472.725952
v -571.875000 -4.545205 -1481.159668
v -571.875000 -3.626599 -1501.829224
vt 0.988787 0.896432
vt 0.990137 0.894757
vt 0.990449 0.898101
vt 0.987564 0.889720
vt 0.961808 0.899114
vt 0.889098 0.874976
vt 0.916929 0.880761
vt 0.897017 0.888726
vt 0.879772 0.887902
vt 0.877388 0.872406
vt 0.850623 0.917509
vt 0.873402 0.895280
vt 0.889934 0.899657
vt 0.930801 0.886226
vt 0.912847 0.913845
vt 0.893073 0.909136
vt 0.916964 0.928858
vt 0.941957 0.919273
vt 0.972114 0.936097
vt 0.990445 0.902739
vt 0.989230 0.935212
vt 0.989795 0.948403
vt 0.973496 0.973051
vt 0.951057 0.950116
vt 0.951621 0.973347
vt 0.989739 0.986952
vt 0.964479 0.990410
vt 0.945280 0.943106
vt 0.931741 0.959933
vt 0.930875 0.936921
vt 0.947683 0.986429
vt 0.942732 0.995849
vt 0.937660 0.994299
vt 0.912472 0.979146
vt 0.874832 0.956879
vt 0.808913 0.890995
vt 0.844924 0.873536
vt 0.829959 0.930005
vt 0.801520 0.913189
vt 0.800817 0.902365
vt 0.886074 0.993441
vt 0.860022 0.991142
vt 0.824019 0.977993
vt 0.825439 0.978663
vt 0.800185 0.988280
vt 0.803550 0.946043
vt 0.803315 0.939143
vt 0.800676 0.888161
vt 0.803917 0.873661
vt 0.825367 0.873833
vt 0.951057 0.950116
vt 0.968916 0.940374
vt 0.968056 0.940372
vt 0.987324 0.993240
vt 0.986827 0.984649
vt 0.988301 0.967543
vt 0.969800 0.940416
vt 0.969224 0.940344
vt 0.965595 0.940195
vt 0.945280 0.943106
vt 0.931741 0.959933
vt 0.951621 0.973347
vt 0.948199 0.986508
vt 0.915628 0.979889
vt 0.874369 0.953105
vt 0.833937 0.938094
vt 0.829131 0.938926
vt 0.865721 0.940141
vt 0.848165 0.939475
vt 0.803855 0.946278
vt 0.905299 0.873252
vt 0.917646 0.873205
vt 0.974039 0.873304
vt 0.988199 0.873948
vt 0.987594 0.880990
vt 0.800347 0.988311
vt 0.929755 0.940076
vt 0.916687 0.939402
vt 0.802690 0.977120
vt 0.803549 0.969550
vt 0.891560 0.873035
vt 0.944735 0.939195
vt 0.937045 0.939570
vt 0.882087 0.872617
vt 0.878181 0.872392
vt 0.898148 0.939569
vt 0.879891 0.940125
vt 0.927321 0.872823
vt 0.862561 0.872133
vt 0.988791 0.939731
vt 0.930974 0.939556
vt 0.951775 0.871440
vt 0.938747 0.872212
vt 0.803455 0.940990
vt 0.801151 0.873697
vn -0.0934 0.9939 -0.0592
vn 0.0223 0.9991 -0.0353
vn -0.2381 0.9692 -0.0620
vn -0.0465 0.9981 -0.0398
vn -0.1733 0.9844 -0.0293
vn -0.3088 0.9252 0.2206
vn -0.1911 0.9729 0.1301
vn -0.1367 0.9538 0.2674
vn -0.3055 0.9171 0.2561
vn -0.1919 0.9101 0.3672
vn -0.1572 0.9767 0.1460
vn -0.5777 0.8064 -0.1259
vn -0.2028 0.9026 0.3798
vn -0.1551 0.9869 0.0436
vn -0.3038 0.9337 0.1895
vn -0.2358 0.9266 0.2930
vn -0.3622 0.9264 0.1032
vn -0.2834 0.9581 0.0416
vn -0.2017 0.9785 -0.0417
vn -0.2595 0.9609 -0.0961
vn -0.2047 0.9734 -0.1021
vn -0.1421 0.9858 -0.0893
vn -0.1177 0.9930 -0.0132
vn -0.0999 0.9779 0.1837
vn -0.1224 0.9790 0.1626
vn -0.0923 0.9940 -0.0590
vn 0.0302 0.9994 0.0168
vn -0.1868 0.9655 0.1812
vn -0.2040 0.9491 0.2399
vn -0.3429 0.9325 0.1130
vn -0.0943 0.9709 0.2201
vn 0.0721 0.9564 0.2831
vn -0.0504 0.9385 0.3414
vn -0.1477 0.9794 0.1373
vn -0.2080 0.9639 0.1661
vn -0.0307 0.9992 -0.0236
vn -0.1855 0.9821 0.0325
vn -0.1452 0.9853 -0.0902
vn -0.1010 0.9592 -0.2640
vn -0.0570 0.9776 -0.2023
vn 0.0174 0.9926 0.1201
vn -0.0005 0.9937 0.1114
vn -0.0962 0.9807 -0.1698
vn 0.0891 0.9811 -0.1717
vn -0.0079 0.9695 -0.2447
vn -0.1619 0.9431 -0.2905
vn -0.1323 0.9508 -0.2802
vn 0.1154 0.9930 0.0232
vn 0.0854 0.9917 0.0961
vn -0.1071 0.9941 0.0149
vn 0.1044 0.9790 0.1748
vn 0.1511 0.9872 0.0507
vn 0.1427 0.9897 0.0128
vn -0.0116 0.9988 -0.0465
vn 0.1193 0.9922 -0.0352
vn 0.1299 0.9901 -0.0525
vn 0.1261 0.9903 -0.0582
vn 0.1357 0.9905 0.0199
vn -0.0229 0.9927 0.1183
vn 0.1911 0.9642 0.1837
vn 0.2066 0.9474 0.2443
vn 0.1185 0.9790 0.1659
vn 0.1242 0.9761 0.1784
vn 0.1429 0.9789 0.1463
vn 0.2139 0.9620 0.1697
vn 0.1631 0.9856 0.0435
vn 0.1465 0.9772 -0.1535
vn 0.0839 0.9819 0.1697
vn 0.1891 0.9679 0.1655
vn 0.1657 0.9440 -0.2853
vn -0.3362 0.8991 0.2802
vn -0.0873 0.9937 0.0706
vn -0.0666 0.9937 -0.0898
vn 0.1919 0.9585 -0.2109
vn -0.0006 0.9926 -0.1217
vn 0.0709 0.9632 -0.2593
vn 0.2921 0.9490 0.1188
vn 0.3362 0.9398 0.0609
vn -0.1577 0.9555 -0.2491
vn -0.1995 0.9372 -0.2860
vn -0.4239 0.8587 0.2878
vn 0.3248 0.9351 0.1419
vn 0.2721 0.9426 0.1932
vn -0.2541 0.9619 0.1010
vn -0.2257 0.9521 0.2061
vn 0.3215 0.9377 0.1316
vn 0.2536 0.9435 0.2130
vn -0.0906 0.9953 0.0327
vn -0.1493 0.9233 0.3537
vn 0.1034 0.9904 -0.0914
vn 0.2614 0.9471 0.1864
vn -0.1202 0.9919 -0.0417
vn -0.1149 0.9933 -0.0064
vn 0.1648 0.9437 -0.2867
vn 0.1103 0.9936 0.0249
s 1
f 1/1/1 61/2/2 62/3/3
f 59/4/4 1/1/1 2/5/5
f 5/6/6 3/7/7 9/8/8
f 5/6/6 9/8/8 6/9/9
f 48/10/10 6/9/9 7/11/11
f 7/11/11 6/9/9 8/12/12
f 6/9/9 9/8/8 8/12/12
f 9/8/8 10/13/13 8/12/12
f 3/7/7 4/14/14 9/8/8
f 9/8/8 4/14/14 11/15/15
f 10/13/13 9/8/8 12/16/16
f 12/16/16 9/8/8 11/15/15
f 8/12/12 10/13/13 12/16/16
f 11/15/15 21/17/17 12/16/16
f 4/14/14 14/18/18 11/15/15
f 4/14/14 2/5/5 14/18/18
f 14/18/18 2/5/5 13/19/19
f 2/5/5 1/1/1 13/19/19
f 13/19/19 67/20/20 68/21/21
f 13/19/19 69/22/22 15/23/23
f 13/19/19 15/23/23 16/24/24
f 16/24/24 15/23/23 17/25/25
f 15/23/23 69/22/22 70/26/26
f 70/26/26 32/27/27 15/23/23
f 17/25/25 15/23/23 32/27/27
f 18/28/28 13/19/19 16/24/24
f 18/28/28 16/24/24 19/29/29
f 14/18/18 13/19/19 18/28/28
f 20/30/30 14/18/18 18/28/28
f 11/15/15 14/18/18 21/17/17
f 21/17/17 14/18/18 20/30/30
f 20/30/30 18/28/28 19/29/29
f 19/29/29 16/24/24 17/25/25
f 22/31/31 17/25/25 32/27/27
f 22/31/31 32/27/27 23/32/32
f 24/33/33 22/31/31 23/32/32
f 17/25/25 22/31/31 25/34/34
f 25/34/34 22/31/31 24/33/33
f 19/29/29 17/25/25 25/34/34
f 20/30/30 19/29/29 25/34/34
f 21/17/17 20/30/30 25/34/34
f 21/17/17 25/34/34 26/35/35
f 12/16/16 21/17/17 26/35/35
f 12/16/16 26/35/35 7/11/11
f 8/12/12 12/16/16 7/11/11
f 27/36/36 46/37/37 7/11/11
f 27/36/36 7/11/11 28/38/38
f 27/36/36 65/39/39 44/40/40
f 26/35/35 25/34/34 38/41/41
f 26/35/35 38/41/41 29/42/42
f 7/11/11 26/35/35 28/38/38
f 28/38/38 26/35/35 29/42/42
f 30/43/43 28/38/38 29/42/42
f 30/43/43 29/42/42 40/44/44
f 40/44/44 72/45/45 30/43/43
f 28/38/38 63/46/46 66/47/47
f 27/36/36 44/40/40 43/48/48
f 27/36/36 41/49/49 45/50/50
f 31/51/51 84/52/52 85/53/53
f 32/27/27 74/54/54 87/55/55
f 88/56/56 89/57/57 86/58/58
f 31/51/51 95/59/59 34/60/60
f 34/60/60 35/61/61 31/51/51
f 35/61/61 33/62/62 31/51/51
f 36/63/63 32/27/27 33/62/62
f 36/63/63 23/32/32 32/27/27
f 33/62/62 37/64/64 36/63/63
f 37/64/64 23/32/32 36/63/63
f 37/64/64 24/33/33 23/32/32
f 37/64/64 25/34/34 24/33/33
f 37/64/64 38/41/41 25/34/34
f 35/61/61 37/64/64 33/62/62
f 39/65/65 38/41/41 37/64/64
f 29/42/42 38/41/41 39/65/65
f 40/44/44 78/66/66 77/67/67
f 91/68/68 79/69/69 39/65/65
f 77/67/67 75/70/70 40/44/44
f 79/69/69 29/42/42 39/65/65
f 52/71/71 53/72/72 3/7/7
f 57/73/73 60/74/74 58/75/75
f 57/73/73 59/4/4 2/5/5
f 75/70/70 73/76/76 40/44/44
f 43/48/48 41/49/49 27/36/36
f 82/77/77 80/78/78 37/64/64
f 71/79/79 64/80/80 30/43/43
f 52/71/71 5/6/6 50/81/81
f 94/82/82 93/83/83 34/60/60
f 95/59/59 94/82/82 34/60/60
f 51/84/84 50/81/81 5/6/6
f 51/84/84 6/9/9 49/85/85
f 81/86/86 92/87/87 39/65/65
f 54/88/88 4/14/14 3/7/7
f 64/80/80 63/46/46 30/43/43
f 46/37/37 47/89/89 7/11/11
f 88/56/56 90/90/90 89/57/57
f 82/77/77 35/61/61 83/91/91
f 66/47/47 65/39/39 28/38/38
f 86/58/58 33/62/62 32/27/27
f 72/45/45 71/79/79 30/43/43
f 56/92/92 4/14/14 55/93/93
f 47/89/89 48/10/10 7/11/11
f 62/3/3 67/20/20 1/1/1
f 93/83/83 35/61/61 34/60/60
f 81/86/86 37/64/64 80/78/78
f 92/87/87 91/68/68 39/65/65
f 53/72/72 54/88/88 3/7/7
f 59/4/4 61/2/2 1/1/1
f 48/10/10 49/85/85 6/9/9
f 13/19/19 1/1/1 67/20/20
f 13/19/19 68/21/21 69/22/22
f 70/26/26 74/54/54 32/27/27
f 27/36/36 45/50/50 46/37/37
f 27/36/36 28/38/38 65/39/39
f 40/44/44 73/76/76 72/45/45
f 28/38/38 30/43/43 63/46/46
f 31/51/51 33/62/62 84/52/52
f 86/58/58 32/27/27 88/56/56
f 32/27/27 87/55/55 88/56/56
f 31/51/51 85/53/53 95/59/59
f 40/44/44 29/42/42 78/66/66
f 77/67/67 76/94/94 75/70/70
f 79/69/69 78/66/66 29/42/42
f 2/5/5 56/92/92 57/73/73
f 57/73/73 58/75/75 59/4/4
f 43/48/48 42/95/95 41/49/49
f 52/71/71 3/7/7 5/6/6
f 51/84/84 5/6/6 6/9/9
f 54/88/88 55/93/93 4/14/14
f 82/77/77 37/64/64 35/61/61
f 86/58/58 84/52/52 33/62/62
f 56/92/92 2/5/5 4/14/14
f 93/83/83 83/91/91 35/61/61
f 81/86/86 39/65/65 37/64/64
