# Blender v2.82 (sub 7) OBJ File: 'LODTerrain.blend'
# www.blender.org
o lod_0_323_Cube
v -1150.438965 -15.764984 -508.336975
v -1149.190063 -15.997984 -512.000977
v -1161.502075 -12.982983 -504.194977
v -1165.448975 -12.412982 -512.000977
v -1151.710083 -14.961983 -502.570007
v -1172.584961 -11.352981 -505.977966
v -1196.905029 -8.289968 -512.000977
v -1150.802002 -13.937983 -492.356995
v -1178.152222 -9.541990 -497.605988
v -1164.744995 -11.095982 -487.687988
v -1149.691895 -13.683983 -484.123993
v -1155.824951 -12.811983 -481.853973
v -1165.055908 -10.190983 -480.468994
v -1184.387939 -7.464980 -486.183990
v -1172.495117 -8.623971 -479.062988
v -1198.179932 -3.164968 -477.433014
v -1200.512817 -4.008979 -484.615967
v -1209.081055 -2.048978 -484.265991
v -1197.653076 -6.380978 -497.303986
v -1189.916138 -8.258979 -501.842987
v -1202.381104 -6.390987 -505.592041
v -1215.174072 -2.528987 -504.661957
v -1212.099121 -2.300967 -491.644012
v -1226.500000 1.237024 -501.185028
v -1220.402100 -0.942970 -494.303009
v -1234.492065 1.695035 -489.226013
v -1229.749878 0.872019 -493.355011
v -1235.826050 2.807035 -505.257996
v -1150.438965 -15.764984 -515.662964
v -1161.502075 -12.982983 -519.804993
v -1151.710083 -14.961983 -521.429993
v -1172.584961 -11.352981 -518.021973
v -1150.802002 -13.937983 -531.643005
v -1178.152222 -9.541990 -526.394043
v -1164.744995 -11.095982 -536.312012
v -1149.691895 -13.683983 -539.875977
v -1155.824951 -12.811983 -542.145996
v -1152.125977 -11.129984 -554.403015
v -1165.055908 -10.190983 -543.531006
v -1157.812012 -11.273983 -550.229980
v -1184.387939 -7.464980 -537.816040
v -1170.274902 -8.606972 -554.922974
v -1172.495117 -8.623971 -544.937012
v -1163.251099 -8.738983 -563.546997
v -1182.444214 -5.256981 -553.291992
v -1178.317749 -5.956982 -561.588989
v -1156.743042 -7.721983 -571.410034
v -1189.382202 -3.173980 -569.928955
v -1145.586792 -9.034985 -562.457031
v -1203.928955 -0.529977 -570.551025
v -1195.943970 -2.358970 -562.184998
v -1198.179932 -3.164968 -546.567017
v -1208.271973 -1.204978 -555.821045
v -1200.512817 -4.008979 -539.384033
v -1215.906982 -0.125983 -563.108032
v -1209.081055 -2.048978 -539.734009
v -1197.653076 -6.380978 -526.696045
v -1213.773804 -0.847984 -548.441040
v -1189.916138 -8.258979 -522.156982
v -1202.381104 -6.390987 -518.407959
v -1209.435181 -5.183988 -512.002014
v -1215.174072 -2.528987 -519.338013
v -1215.096924 -3.129977 -512.002014
v -1228.653198 1.451025 -512.000977
v -1212.099121 -2.300967 -532.355957
v -1226.500000 1.237024 -522.815002
v -1220.402100 -0.942970 -529.697021
v -1234.492065 1.695035 -534.773987
v -1229.749878 0.872019 -530.645020
v -1235.826050 2.807035 -518.742004
v -1224.574951 1.542034 -556.270020
v -1234.381104 2.874015 -548.738037
v -1235.841064 5.584025 -569.917969
v -1223.950806 1.552024 -564.893005
v -1143.750000 -17.014492 -509.588867
v -1143.750000 -17.014280 -512.000977
v -1143.750000 -17.035366 -507.803314
v -1143.750000 -16.860096 -504.432831
v -1198.055298 -3.120044 -476.562500
v -1196.142944 -3.435770 -476.562500
v -1143.750000 -13.487950 -479.214050
v -1143.750000 -12.845278 -476.562500
v -1146.059326 -12.837830 -476.562500
v -1143.750000 -14.188477 -483.612000
v -1150.958862 -12.354595 -476.562500
v -1154.228027 -12.085846 -476.562500
v -1166.845581 -9.647802 -476.562500
v -1160.831665 -10.822531 -476.562500
v -1171.939209 -8.619715 -476.562500
v -1175.472656 -7.616295 -476.562500
v -1157.125610 -11.805263 -476.562500
v -1183.179443 -6.092257 -476.562500
v -1143.750000 -15.154629 -490.391022
v -1143.750000 -15.321570 -493.360138
v -1143.750000 -15.941980 -496.022339
v -1143.750000 -16.569101 -501.248962
v -1199.129272 -2.980594 -476.562500
v -1228.649780 1.604900 -476.562500
v -1215.295044 -0.661263 -476.562500
v -1208.693604 -1.644817 -476.562500
v -1213.233032 -0.986402 -476.562500
v -1234.391479 2.764213 -476.562500
v -1239.062500 2.728283 -496.643341
v -1239.062500 2.736268 -497.022522
v -1239.062500 2.798810 -497.850128
v -1239.062500 3.486348 -512.000977
v -1239.062500 3.460957 -515.682922
v -1239.062500 3.460957 -508.317932
v -1238.661987 3.678025 -476.562500
v -1239.062500 3.777861 -476.562500
v -1239.062500 3.753252 -476.684174
v -1235.267822 2.974935 -476.562500
v -1239.062500 3.406801 -482.127869
v -1239.062500 2.964338 -487.252563
v -1239.062500 3.240944 -505.705078
v -1239.062500 3.240944 -518.294922
v -1143.750000 -17.035366 -516.196655
v -1143.750000 -17.014492 -514.411743
v -1143.750000 -16.860096 -519.567139
v -1143.750000 -16.569101 -522.751038
v -1143.750000 -15.941980 -527.977661
v -1143.750000 -15.321570 -530.639893
v -1143.750000 -15.154629 -533.608948
v -1143.750000 -14.188477 -540.388000
v -1143.750000 -13.487950 -544.785950
v -1143.750000 -12.114674 -550.451965
v -1143.750000 -11.187305 -554.944275
v -1143.750000 -9.832882 -559.774841
v -1143.750000 -8.708552 -564.131714
v -1143.750000 -7.439718 -571.875000
v -1148.660034 -7.578812 -571.875000
v -1156.350464 -7.645378 -571.875000
v -1163.616699 -6.931433 -571.875000
v -1156.692627 -7.648744 -571.875000
v -1170.200073 -6.268969 -571.875000
v -1170.932739 -6.121436 -571.875000
v -1174.261230 -5.552189 -571.875000
v -1186.329346 -3.478986 -571.875000
v -1222.941772 1.059742 -571.875000
v -1217.973389 -0.239304 -571.875000
v -1189.016846 -3.026630 -571.875000
v -1191.054565 -2.795843 -571.875000
v -1202.897949 -0.663242 -571.875000
v -1204.631592 -0.541299 -571.875000
v -1213.032837 -0.361789 -571.875000
v -1225.231445 1.557253 -571.875000
v -1232.404785 4.191689 -571.875000
v -1239.062500 2.798810 -526.149841
v -1239.062500 2.736268 -526.977417
v -1239.062500 2.728283 -527.356628
v -1239.062500 2.964338 -536.747437
v -1239.062500 3.406801 -541.872131
v -1239.062500 3.753252 -547.315857
v -1239.062500 4.719417 -552.082520
v -1239.062500 5.058895 -554.030457
v -1239.062500 5.601245 -558.289734
v -1239.062500 6.253728 -567.190247
v -1239.062500 6.672293 -570.279785
v -1237.820435 5.961831 -571.875000
v -1239.062500 6.404817 -571.875000
vt 0.000000 0.375800
vt 0.002370 0.381126
vt 0.000000 0.381113
vt 0.007600 0.363800
vt 0.003600 0.374600
vt 0.000000 0.359900
vt 0.007386 0.381097
vt 0.004131 0.381128
vt 0.009200 0.373300
vt 0.005900 0.352900
vt 0.000000 0.329200
vt 0.019200 0.374200
vt 0.015596 0.381072
vt 0.010477 0.381065
vt 0.014100 0.347500
vt 0.023700 0.360600
vt 0.021126 0.381115
vt 0.018242 0.381111
vt 0.029400 0.369300
vt 0.027200 0.375300
vt 0.031999 0.381108
vt 0.034591 0.378845
vt 0.034591 0.374051
vt 0.030800 0.360300
vt 0.034590 0.364440
vt 0.025200 0.341400
vt 0.034606 0.358551
vt 0.032200 0.353000
vt 0.034624 0.350097
vt 0.033800 0.327900
vt 0.034647 0.328023
vt 0.034641 0.329893
vt 0.026700 0.325700
vt 0.027100 0.317300
vt 0.034647 0.326978
vt 0.014400 0.328500
vt 0.009900 0.336000
vt 0.006300 0.323800
vt 0.000000 0.317000
vt 0.007200 0.311400
vt 0.000000 0.311400
vt 0.000000 0.298200
vt 0.019900 0.314400
vt 0.010600 0.300300
vt 0.017300 0.306200
vt 0.022200 0.292500
vt 0.034616 0.311217
vt 0.034620 0.313230
vt 0.018200 0.297100
vt 0.006600 0.291200
vt 0.034571 0.298214
vt 0.034624 0.292591
vt 0.002370 0.381126
vt 0.003600 0.374600
vt 0.007600 0.363800
vt 0.004131 0.381128
vt 0.007386 0.381097
vt 0.009200 0.373300
vt 0.005900 0.352900
vt 0.019200 0.374200
vt 0.015596 0.381072
vt 0.014100 0.347500
vt 0.023700 0.360600
vt 0.021126 0.381115
vt 0.027200 0.375300
vt 0.029400 0.369300
vt 0.031999 0.381108
vt 0.041400 0.372900
vt 0.030800 0.360300
vt 0.037300 0.367400
vt 0.025200 0.341400
vt 0.041900 0.355200
vt 0.032200 0.353000
vt 0.050300 0.362100
vt 0.040300 0.343300
vt 0.048400 0.347300
vt 0.058000 0.368400
vt 0.058439 0.354567
vt 0.058447 0.361700
vt 0.058439 0.355286
vt 0.056600 0.336500
vt 0.058451 0.351308
vt 0.049300 0.379300
vt 0.046657 0.381098
vt 0.037565 0.381090
vt 0.041908 0.381099
vt 0.058489 0.376296
vt 0.058456 0.368783
vt 0.050919 0.381102
vt 0.058503 0.339491
vt 0.058499 0.336865
vt 0.058488 0.334867
vt 0.057200 0.322300
vt 0.058485 0.323306
vt 0.049000 0.330100
vt 0.058487 0.321621
vt 0.033800 0.327900
vt 0.042800 0.318100
vt 0.026700 0.325700
vt 0.049900 0.310600
vt 0.058453 0.313435
vt 0.027100 0.317300
vt 0.014400 0.328500
vt 0.035600 0.312700
vt 0.009900 0.336000
vt 0.006300 0.323800
vt 0.007200 0.311400
vt 0.019900 0.314400
vt 0.010600 0.300300
vt 0.017300 0.306200
vt 0.022200 0.292500
vt 0.018200 0.297100
vt 0.006600 0.291200
vt 0.043200 0.302200
vt 0.035900 0.292600
vt 0.051700 0.302800
vt 0.056600 0.291200
vt 0.058503 0.294556
vt 0.058480 0.303778
vt 0.058498 0.301558
vt 0.058509 0.289262
vt 0.058453 0.368448
vt 0.034629 0.353551
vt 0.034500 0.288031
vt 0.034619 0.288030
vt 0.034620 0.288422
vt 0.014987 0.288004
vt 0.024149 0.288036
vt 0.013812 0.288005
vt 0.014619 0.288001
vt 0.003605 0.288023
vt 0.006160 0.288032
vt 0.027700 0.381114
vt 0.000000 0.288013
vt 0.013812 0.288005
vt 0.034604 0.381100
vt 0.056941 0.288031
vt 0.053917 0.288044
vt 0.029177 0.288033
vt 0.006160 0.288032
vt 0.003605 0.288023
vt 0.018242 0.381111
vt 0.014619 0.288001
vt 0.041035 0.287997
vt 0.045172 0.288028
vt 0.034571 0.368056
vt 0.034581 0.370854
vt 0.024149 0.288036
vt 0.014987 0.288003
vt 0.034627 0.291735
vt 0.027700 0.381114
vt 0.039146 0.288002
vt 0.034500 0.288031
vt 0.029177 0.288033
vt 0.058488 0.308652
vt 0.034618 0.317683
vt 0.034588 0.342581
vt 0.010477 0.381065
vt 0.058459 0.381109
vt 0.058504 0.288039
vn 0.2043 0.9789 0.0000
vn 0.1845 0.9828 0.0051
vn 0.1836 0.9830 0.0000
vn 0.1822 0.9819 -0.0518
vn 0.2192 0.9753 -0.0265
vn 0.1667 0.9860 0.0000
vn 0.2042 0.9760 -0.0761
vn 0.1882 0.9819 -0.0212
vn 0.2133 0.9716 -0.1026
vn 0.1501 0.9871 -0.0559
vn 0.1881 0.9821 0.0000
vn 0.1849 0.9794 -0.0805
vn 0.1957 0.9686 -0.1531
vn 0.2134 0.9714 -0.1039
vn 0.1654 0.9814 -0.0978
vn 0.1907 0.9778 -0.0866
vn 0.1636 0.9836 -0.0757
vn 0.1699 0.9741 -0.1489
vn 0.1667 0.9810 -0.0991
vn 0.1144 0.9874 -0.1093
vn 0.0761 0.9817 -0.1744
vn 0.0713 0.9813 -0.1785
vn 0.0880 0.9835 -0.1581
vn 0.2104 0.9732 -0.0927
vn 0.2398 0.9653 -0.1032
vn 0.1815 0.9749 -0.1288
vn 0.1954 0.9796 -0.0467
vn 0.2027 0.9733 -0.1077
vn 0.2092 0.9677 -0.1408
vn 0.1694 0.9785 -0.1173
vn 0.1469 0.9865 -0.0719
vn 0.1936 0.9693 -0.1515
vn 0.2051 0.9660 -0.1570
vn 0.1786 0.9791 -0.0971
vn 0.1358 0.9888 -0.0613
vn 0.2018 0.9724 -0.1172
vn 0.1574 0.9804 -0.1183
vn 0.2386 0.9632 -0.1233
vn 0.2880 0.9576 0.0000
vn 0.2846 0.9561 -0.0700
vn 0.3309 0.9437 0.0000
vn 0.2376 0.9713 0.0000
vn 0.2010 0.9755 -0.0896
vn 0.2234 0.9739 0.0389
vn 0.2129 0.9768 -0.0220
vn 0.2068 0.9777 -0.0358
vn 0.1576 0.9859 -0.0555
vn 0.1514 0.9869 -0.0545
vn 0.1751 0.9834 0.0481
vn 0.1569 0.9868 0.0398
vn 0.1780 0.9811 -0.0751
vn 0.2152 0.9729 -0.0838
vn 0.1845 0.9828 -0.0051
vn 0.2192 0.9753 0.0265
vn 0.1822 0.9819 0.0518
vn 0.1881 0.9819 0.0212
vn 0.2042 0.9760 0.0761
vn 0.2133 0.9716 0.1026
vn 0.1501 0.9871 0.0559
vn 0.1849 0.9794 0.0805
vn 0.1957 0.9686 0.1531
vn 0.1654 0.9814 0.0978
vn 0.1907 0.9778 0.0866
vn 0.1636 0.9836 0.0757
vn 0.1144 0.9874 0.1093
vn 0.1667 0.9810 0.0991
vn 0.0760 0.9817 0.1744
vn 0.0457 0.9805 0.1912
vn 0.2104 0.9732 0.0927
vn 0.1473 0.9807 0.1281
vn 0.1815 0.9749 0.1288
vn 0.2149 0.9724 0.0902
vn 0.2027 0.9733 0.1077
vn 0.1278 0.9787 0.1607
vn 0.2147 0.9725 0.0898
vn 0.2136 0.9735 0.0809
vn 0.0421 0.9836 0.1753
vn 0.1873 0.9751 0.1189
vn 0.0980 0.9736 0.2061
vn 0.1691 0.9744 0.1479
vn 0.1688 0.9831 0.0707
vn 0.1677 0.9802 0.1049
vn 0.0007 0.9756 0.2195
vn 0.0299 0.9635 0.2661
vn 0.0090 0.9746 0.2237
vn 0.0220 0.9711 0.2375
vn -0.0163 0.9873 0.1580
vn -0.0089 0.9878 0.1552
vn -0.0060 0.9827 0.1849
vn 0.1677 0.9797 0.1095
vn 0.1415 0.9847 0.1011
vn 0.1595 0.9857 0.0544
vn 0.0984 0.9949 0.0201
vn 0.1465 0.9891 0.0145
vn 0.1592 0.9852 0.0632
vn 0.0382 0.9988 -0.0288
vn 0.1694 0.9785 0.1173
vn 0.1179 0.9913 0.0590
vn 0.2051 0.9660 0.1570
vn 0.1357 0.9907 0.0099
vn 0.0227 0.9995 -0.0194
vn 0.1786 0.9791 0.0971
vn 0.2018 0.9724 0.1172
vn 0.1541 0.9867 0.0511
vn 0.1574 0.9804 0.1183
vn 0.2386 0.9632 0.1233
vn 0.2846 0.9561 0.0700
vn 0.2010 0.9755 0.0896
vn 0.2234 0.9739 -0.0389
vn 0.2129 0.9768 0.0220
vn 0.2068 0.9777 0.0358
vn 0.1750 0.9834 -0.0481
vn 0.1569 0.9868 -0.0398
vn 0.2216 0.9734 0.0580
vn 0.2252 0.9666 0.1219
vn 0.2615 0.9651 -0.0114
vn 0.3050 0.9519 -0.0281
vn 0.3386 0.9381 -0.0729
vn 0.2236 0.9735 -0.0478
vn 0.2861 0.9568 -0.0518
vn 0.3259 0.9335 -0.1494
vn 0.0425 0.9862 0.1599
vn 0.2303 0.9717 -0.0528
vn 0.2176 0.9690 -0.1169
vn 0.2376 0.9521 -0.1926
vn 0.2059 0.9757 -0.0745
vn 0.2011 0.9795 0.0125
vn 0.2423 0.9682 -0.0616
vn 0.1619 0.9842 -0.0718
vn 0.1755 0.9830 -0.0539
vn 0.1737 0.9844 0.0266
vn 0.1229 0.9899 0.0708
vn 0.0964 0.9841 -0.1489
vn 0.1919 0.9814 0.0000
vn 0.1619 0.9842 0.0718
vn 0.0031 0.9718 -0.2355
vn 0.3223 0.9463 -0.0236
vn 0.2730 0.9580 0.0872
vn 0.2270 0.9706 -0.0795
vn 0.1229 0.9899 -0.0708
vn 0.1737 0.9844 -0.0266
vn 0.1699 0.9741 0.1489
vn 0.1755 0.9830 0.0539
vn 0.2546 0.9560 0.1457
vn 0.2564 0.9620 0.0938
vn 0.1888 0.9722 -0.1386
vn 0.0867 0.9831 -0.1611
vn 0.2423 0.9682 0.0616
vn 0.2011 0.9795 -0.0125
vn 0.2235 0.9716 -0.0770
vn 0.0964 0.9841 0.1489
vn 0.2511 0.9522 0.1739
vn 0.2175 0.9690 0.1170
vn 0.2270 0.9706 0.0795
vn 0.1560 0.9865 -0.0495
vn 0.1406 0.9883 -0.0589
vn 0.1945 0.9673 -0.1625
vn 0.2134 0.9714 0.1039
vn -0.0279 0.9864 0.1616
vn 0.3317 0.9304 -0.1559
s 1
f 2/1/1 75/2/2 76/3/3
f 3/4/4 1/5/5 2/1/1
f 4/6/6 3/4/4 2/1/1
f 1/5/5 78/7/7 77/8/8
f 3/4/4 5/9/9 1/5/5
f 5/9/9 78/7/7 1/5/5
f 4/6/6 6/10/10 3/4/4
f 4/6/6 7/11/11 6/10/10
f 5/9/9 3/4/4 8/12/12
f 6/10/10 8/12/12 3/4/4
f 5/9/9 95/13/13 96/14/14
f 7/11/11 9/15/15 6/10/10
f 9/15/15 10/16/16 6/10/10
f 6/10/10 10/16/16 8/12/12
f 8/12/12 93/17/17 94/18/18
f 8/12/12 12/19/19 11/20/20
f 8/12/12 10/16/16 12/19/19
f 81/21/21 11/20/20 83/22/22
f 12/19/19 85/23/23 11/20/20
f 13/24/24 12/19/19 10/16/16
f 88/25/25 12/19/19 13/24/24
f 14/26/26 13/24/24 10/16/16
f 9/15/15 14/26/26 10/16/16
f 13/24/24 87/27/27 88/25/25
f 14/26/26 15/28/28 13/24/24
f 15/28/28 87/27/27 13/24/24
f 14/26/26 90/29/29 15/28/28
f 16/30/30 79/31/31 80/32/32
f 80/32/32 14/26/26 16/30/30
f 14/26/26 17/33/33 16/30/30
f 18/34/34 97/35/35 16/30/30
f 17/33/33 18/34/34 16/30/30
f 19/36/36 17/33/33 14/26/26
f 19/36/36 18/34/34 17/33/33
f 19/36/36 14/26/26 9/15/15
f 19/36/36 9/15/15 20/37/37
f 7/11/11 20/37/37 9/15/15
f 21/38/38 20/37/37 7/11/11
f 21/38/38 19/36/36 20/37/37
f 61/39/39 21/38/38 7/11/11
f 61/39/39 22/40/40 21/38/38
f 22/40/40 19/36/36 21/38/38
f 61/39/39 63/41/41 22/40/40
f 64/42/42 22/40/40 63/41/41
f 22/40/40 23/43/43 19/36/36
f 23/43/43 18/34/34 19/36/36
f 64/42/42 24/44/44 22/40/40
f 22/40/40 25/45/45 23/43/43
f 24/44/44 25/45/45 22/40/40
f 23/43/43 26/46/46 18/34/34
f 18/34/34 99/47/47 101/48/48
f 27/49/49 23/43/43 25/45/45
f 24/44/44 27/49/49 25/45/45
f 26/46/46 23/43/43 27/49/49
f 64/42/42 28/50/50 24/44/44
f 28/50/50 27/49/49 24/44/44
f 26/46/46 98/51/51 99/47/47
f 26/46/46 102/52/52 98/51/51
f 2/1/1 118/53/53 29/54/54
f 30/55/55 2/1/1 29/54/54
f 4/6/6 2/1/1 30/55/55
f 29/54/54 117/56/56 119/57/57
f 30/55/55 29/54/54 31/58/58
f 119/57/57 31/58/58 29/54/54
f 4/6/6 30/55/55 32/59/59
f 4/6/6 32/59/59 7/11/11
f 31/58/58 33/60/60 30/55/55
f 32/59/59 30/55/55 33/60/60
f 31/58/58 121/61/61 33/60/60
f 7/11/11 32/59/59 34/62/62
f 34/62/62 32/59/59 35/63/63
f 32/59/59 33/60/60 35/63/63
f 33/60/60 123/64/64 36/65/65
f 33/60/60 36/65/65 37/66/66
f 33/60/60 37/66/66 35/63/63
f 36/65/65 125/67/67 38/68/68
f 37/66/66 36/65/65 38/68/68
f 39/69/69 35/63/63 37/66/66
f 40/70/70 37/66/66 38/68/68
f 39/69/69 37/66/66 40/70/70
f 41/71/71 35/63/63 39/69/69
f 34/62/62 35/63/63 41/71/71
f 39/69/69 40/70/70 42/72/72
f 41/71/71 39/69/69 43/73/73
f 43/73/73 39/69/69 42/72/72
f 42/72/72 40/70/70 44/74/74
f 40/70/70 38/68/68 44/74/74
f 45/75/75 43/73/73 42/72/72
f 41/71/71 43/73/73 45/75/75
f 46/76/76 42/72/72 44/74/74
f 45/75/75 42/72/72 46/76/76
f 44/74/74 38/68/68 47/77/77
f 44/74/74 136/78/78 46/76/76
f 44/74/74 133/79/79 135/80/80
f 45/75/75 46/76/76 48/81/81
f 46/76/76 137/82/82 48/81/81
f 38/68/68 49/83/83 47/77/77
f 38/68/68 128/84/84 49/83/83
f 38/68/68 126/85/85 127/86/86
f 47/77/77 131/87/87 132/88/88
f 49/83/83 128/84/84 129/89/89
f 129/89/89 131/87/87 49/83/83
f 48/81/81 137/82/82 138/90/90
f 48/81/81 138/90/90 141/91/91
f 48/81/81 141/91/91 142/92/92
f 50/93/93 142/92/92 143/94/94
f 51/95/95 48/81/81 50/93/93
f 51/95/95 45/75/75 48/81/81
f 50/93/93 143/94/94 144/96/96
f 52/97/97 45/75/75 51/95/95
f 52/97/97 41/71/71 45/75/75
f 53/98/98 51/95/95 50/93/93
f 53/98/98 52/97/97 51/95/95
f 41/71/71 52/97/97 54/99/99
f 53/98/98 50/93/93 55/100/100
f 50/93/93 145/101/101 55/100/100
f 56/102/102 52/97/97 53/98/98
f 54/99/99 52/97/97 56/102/102
f 57/103/103 41/71/71 54/99/99
f 57/103/103 54/99/99 56/102/102
f 57/103/103 34/62/62 41/71/71
f 58/104/104 56/102/102 53/98/98
f 58/104/104 53/98/98 55/100/100
f 57/103/103 59/105/105 34/62/62
f 7/11/11 34/62/62 59/105/105
f 60/106/106 7/11/11 59/105/105
f 60/106/106 59/105/105 57/103/103
f 61/39/39 7/11/11 60/106/106
f 61/39/39 60/106/106 62/107/107
f 62/107/107 60/106/106 57/103/103
f 61/39/39 62/107/107 63/41/41
f 64/42/42 63/41/41 62/107/107
f 62/107/107 57/103/103 65/108/108
f 65/108/108 57/103/103 56/102/102
f 64/42/42 62/107/107 66/109/109
f 62/107/107 65/108/108 67/110/110
f 66/109/109 62/107/107 67/110/110
f 65/108/108 56/102/102 68/111/111
f 56/102/102 58/104/104 68/111/111
f 69/112/112 67/110/110 65/108/108
f 66/109/109 67/110/110 69/112/112
f 68/111/111 69/112/112 65/108/108
f 64/42/42 66/109/109 70/113/113
f 70/113/113 66/109/109 69/112/112
f 68/111/111 58/104/104 71/114/114
f 71/114/114 58/104/104 55/100/100
f 68/111/111 71/114/114 72/115/115
f 71/114/114 74/116/116 73/117/117
f 71/114/114 55/100/100 74/116/116
f 74/116/116 147/118/118 73/117/117
f 74/116/116 139/119/119 146/120/120
f 73/117/117 147/118/118 159/121/121
f 134/122/122 133/79/79 47/77/77
f 90/29/29 89/123/123 15/28/28
f 111/124/124 110/125/125 109/126/126
f 103/127/127 114/128/128 26/46/46
f 148/129/129 69/112/112 149/130/130
f 108/131/131 115/132/132 28/50/50
f 84/133/133 93/17/17 11/20/20
f 106/134/134 28/50/50 64/42/42
f 105/135/135 27/49/49 28/50/50
f 77/8/8 75/2/2 1/5/5
f 83/22/22 82/136/136 81/21/21
f 132/88/88 134/122/122 47/77/77
f 158/137/137 157/138/138 73/117/117
f 113/139/139 102/52/52 26/46/46
f 159/121/121 158/137/137 73/117/117
f 116/140/140 107/141/141 70/113/113
f 121/61/61 122/142/142 33/60/60
f 103/127/127 27/49/49 104/143/143
f 155/144/144 72/115/115 71/114/114
f 156/145/145 73/117/117 157/138/138
f 91/146/146 86/147/147 12/19/19
f 151/148/148 150/149/149 68/111/111
f 106/134/134 70/113/113 107/141/141
f 97/35/35 79/31/31 16/30/30
f 113/139/139 109/126/126 112/150/150
f 123/64/64 124/151/151 36/65/65
f 115/132/132 105/135/135 28/50/50
f 94/18/18 95/13/13 8/12/12
f 154/152/152 153/153/153 72/115/115
f 153/153/153 152/154/154 72/115/115
f 148/129/129 116/140/140 70/113/113
f 145/101/101 140/155/155 55/100/100
f 125/67/67 126/85/85 38/68/68
f 118/53/53 117/56/56 29/54/54
f 156/145/145 155/144/144 71/114/114
f 152/154/154 68/111/111 72/115/115
f 140/155/155 139/119/119 55/100/100
f 150/149/149 69/112/112 68/111/111
f 101/48/48 100/156/156 18/34/34
f 2/1/1 1/5/5 75/2/2
f 5/9/9 96/14/14 78/7/7
f 5/9/9 8/12/12 95/13/13
f 8/12/12 11/20/20 93/17/17
f 84/133/133 11/20/20 81/21/21
f 11/20/20 85/23/23 83/22/22
f 12/19/19 86/147/147 85/23/23
f 88/25/25 91/146/146 12/19/19
f 15/28/28 89/123/123 87/27/27
f 14/26/26 92/157/157 90/29/29
f 80/32/32 92/157/157 14/26/26
f 18/34/34 100/156/156 97/35/35
f 18/34/34 26/46/46 99/47/47
f 2/1/1 76/3/3 118/53/53
f 119/57/57 120/158/158 31/58/58
f 31/58/58 120/158/158 121/61/61
f 33/60/60 122/142/142 123/64/64
f 36/65/65 124/151/151 125/67/67
f 44/74/74 135/80/80 136/78/78
f 44/74/74 47/77/77 133/79/79
f 46/76/76 136/78/78 137/82/82
f 38/68/68 127/86/86 128/84/84
f 47/77/77 49/83/83 131/87/87
f 129/89/89 130/159/159 131/87/87
f 50/93/93 48/81/81 142/92/92
f 50/93/93 144/96/96 145/101/101
f 74/116/116 146/120/120 147/118/118
f 74/116/116 55/100/100 139/119/119
f 148/129/129 70/113/113 69/112/112
f 106/134/134 108/131/131 28/50/50
f 105/135/135 104/143/143 27/49/49
f 26/46/46 114/128/128 113/139/139
f 113/139/139 112/150/150 102/52/52
f 159/121/121 160/160/160 158/137/137
f 103/127/127 26/46/46 27/49/49
f 155/144/144 154/152/152 72/115/115
f 156/145/145 71/114/114 73/117/117
f 106/134/134 64/42/42 70/113/113
f 113/139/139 111/124/124 109/126/126
f 152/154/154 151/148/148 68/111/111
f 150/149/149 149/130/130 69/112/112
