# Blender v2.82 (sub 7) OBJ File: 'LODTerrain.blend'
# www.blender.org
o lod_1_175_Cube.175
v 1337.361572 10.374186 510.886017
v 1347.379395 14.350136 471.878906
v 1371.176514 11.249979 485.608582
v 1386.278687 5.963611 489.944519
v 1387.135864 5.583174 531.494568
v 1422.924438 7.177245 499.338684
v 1433.952026 6.301844 473.640442
v 1367.676514 14.365534 461.788666
v 1354.835205 9.028997 434.356567
v 1378.548950 7.460477 418.448669
v 1391.201538 12.156982 457.598602
v 1389.273071 11.398829 428.705566
v 1412.719971 9.171436 426.373413
v 1419.000000 9.054569 440.105164
v 1400.301636 8.081867 407.978271
v 1407.268799 1.532045 398.698730
v 1392.094482 6.794065 396.462097
v 1393.990967 -1.054080 388.329834
v 1404.092041 1.191099 387.466095
v 1421.176514 -2.531192 388.982941
v 1429.040527 -8.746744 382.441223
v 1421.348511 3.556350 408.404449
v 1432.958374 -1.753258 399.598389
v 1446.752686 2.659653 422.642761
v 1442.508545 -1.337953 406.952393
v 1470.937134 -2.938498 483.179749
v 1452.442993 2.229692 452.165009
v 1439.824097 2.404176 510.993805
v 1469.250000 -5.526047 513.864258
v 1503.348999 -8.012183 483.763153
v 1484.796631 -5.123522 461.685883
v 1510.142700 -9.780530 463.321442
v 1478.381470 -5.875188 458.140106
v 1498.786621 -15.175238 439.713470
v 1470.935913 -7.101523 441.672485
v 1463.645752 -4.506531 426.614777
v 1519.366943 -10.324577 461.904541
v 1492.587280 -16.852404 413.538879
v 1487.368652 -18.697008 383.466858
v 1382.515991 5.615650 388.901245
v 1340.899780 10.800627 402.288147
v 1347.379395 14.350132 550.121094
v 1355.541748 11.585833 511.287506
v 1371.176758 11.249973 536.391235
v 1401.322021 2.595652 510.501434
v 1415.407837 6.029110 516.381714
v 1428.484619 6.566211 523.304504
v 1433.952026 6.301842 548.359619
v 1367.676514 14.365534 560.211365
v 1391.201538 12.156982 564.401428
v 1452.442993 2.229691 569.835083
v 1473.763428 -2.978683 543.028503
v 1515.609985 -10.282625 518.413330
v 1484.796631 -5.123525 560.314148
v 1510.142700 -9.780531 558.678650
v 1478.381470 -5.875190 563.859924
v 1519.366943 -10.324589 560.095520
v 1525.000000 -10.769339 469.923218
v 1525.000000 -13.062494 455.355438
v 1525.000000 -10.900640 501.814392
v 1525.000000 -10.438471 484.027039
v 1525.000000 -10.770923 526.578796
v 1525.000000 -10.843434 475.773376
v 1525.000000 -19.181887 438.949402
v 1525.000000 -22.647751 427.313507
v 1525.000000 -13.521770 454.270294
v 1525.000000 -23.457851 420.467651
v 1525.000000 -23.721918 397.732758
v 1525.000000 -24.340031 390.899994
v 1447.218628 -11.430951 381.250000
v 1430.237915 -9.335337 381.250000
v 1525.000000 -26.829184 381.250000
v 1494.256836 -20.652695 381.250000
v 1486.259644 -18.859545 381.250000
v 1483.845093 -18.779116 381.250000
v 1429.300049 -7.164597 381.250000
v 1414.941895 -3.604522 381.250000
v 1398.266235 -1.580221 381.250000
v 1334.375000 16.114923 459.443176
v 1334.375000 15.792122 456.098358
v 1334.375000 11.117144 436.715515
v 1377.573730 2.012118 381.250000
v 1378.586792 2.542553 381.250000
v 1374.226440 2.525307 381.250000
v 1392.808960 -2.895823 381.250000
v 1387.246094 0.239404 381.250000
v 1345.379883 4.758214 381.250000
v 1334.375000 12.873503 478.373352
v 1334.375000 10.294308 509.271851
v 1334.375000 9.992599 511.257935
v 1334.375000 11.355047 413.785675
v 1334.375000 11.356085 399.733826
v 1334.375000 6.765127 381.250000
v 1518.187256 -14.870947 571.875000
v 1503.794922 -12.796059 571.875000
v 1525.000000 -13.521772 567.729736
v 1525.000000 -15.053049 571.875000
v 1492.157471 -10.412254 571.875000
v 1487.257080 -9.920447 571.875000
v 1474.757568 -6.472069 571.875000
v 1456.038330 0.415561 571.875000
v 1525.000000 -10.683570 544.635986
v 1525.000000 -9.937033 536.499329
v 1525.000000 -10.672972 551.107544
v 1525.000000 -13.062498 566.644592
v 1453.337402 1.691874 571.875000
v 1452.049805 2.259400 571.875000
v 1446.786133 3.384115 571.875000
v 1423.467529 8.232090 571.875000
v 1396.351929 11.442410 571.875000
v 1403.077637 10.831570 571.875000
v 1390.702759 11.960876 571.875000
v 1388.786255 11.260439 571.875000
v 1370.602539 12.507246 571.875000
v 1362.216675 12.096537 571.875000
v 1351.701904 11.265165 571.875000
v 1339.996216 13.934017 571.875000
v 1334.375000 15.792120 565.901611
v 1334.375000 16.114923 562.556824
v 1334.375000 14.351427 571.875000
v 1334.375000 11.651602 536.169556
vt 0.967009 0.803034
vt 0.995922 0.805895
vt 0.960832 0.815892
vt 0.993665 0.825125
vt 0.976127 0.837324
vt 0.979125 0.854288
vt 0.980049 0.854405
vt 0.998130 0.868395
vt 0.994188 0.880705
vt 0.987689 0.889027
vt 0.997334 0.905905
vt 0.946865 0.857895
vt 0.961808 0.899114
vt 0.950856 0.833398
vt 0.924660 0.823323
vt 0.908846 0.844508
vt 0.919179 0.857045
vt 0.897596 0.868277
vt 0.916929 0.880761
vt 0.930801 0.886226
vt 0.889098 0.874976
vt 0.897017 0.888726
vt 0.886976 0.859524
vt 0.879630 0.851040
vt 0.880537 0.860197
vt 0.878065 0.871265
vt 0.879772 0.887902
vt 0.871718 0.881960
vt 0.872481 0.865356
vt 0.873402 0.895281
vt 0.889934 0.899657
vt 0.912847 0.913845
vt 0.893073 0.909136
vt 0.916963 0.928858
vt 0.941957 0.919273
vt 0.972115 0.936097
vt 0.993333 0.932406
vt 0.974906 0.968216
vt 0.951057 0.950116
vt 0.951621 0.973347
vt 0.982106 0.988495
vt 0.973731 0.989167
vt 0.964515 0.988587
vt 0.945280 0.943106
vt 0.931741 0.959933
vt 0.930875 0.936920
vt 0.958662 0.988938
vt 0.950475 0.983358
vt 0.943373 0.988824
vt 0.944399 0.988928
vt 0.926690 0.984461
vt 0.915964 0.983106
vt 0.905446 0.959902
vt 0.908902 0.984387
vt 0.874369 0.953105
vt 0.872068 0.949656
vt 0.869540 0.913778
vt 0.872160 0.896492
vt 0.889162 0.989532
vt 0.882102 0.989107
vt 0.893548 0.807876
vt 0.904635 0.802416
vt 0.973188 0.802241
vt 0.960832 0.815892
vt 0.976127 0.837324
vt 0.988152 0.895039
vt 0.961808 0.899114
vt 0.946865 0.857895
vt 0.950856 0.833398
vt 0.939700 0.863368
vt 0.940002 0.869998
vt 0.941957 0.919273
vt 0.965399 0.941555
vt 0.990485 0.978778
vt 0.951057 0.950116
vt 0.951621 0.973347
vt 0.970008 0.988841
vt 0.945280 0.943106
vt 0.939391 0.950425
vt 0.957859 0.988659
vt 0.950475 0.983358
vt 0.943373 0.988824
vt 0.944399 0.988928
vt 0.938122 0.979365
vt 0.948968 0.802023
vt 0.940894 0.955281
vt 0.940070 0.913683
vt 0.940065 0.890077
vt 0.939861 0.820200
vt 0.940509 0.965849
vt 0.994570 0.802951
vt 0.995549 0.802695
vt 0.939961 0.920038
vt 0.939802 0.922704
vt 0.938269 0.940095
vt 0.890920 0.802099
vt 0.872613 0.854976
vt 0.873329 0.859410
vt 0.872297 0.813053
vt 0.980977 0.988122
vt 0.871421 0.840996
vt 0.945749 0.801984
vt 0.945749 0.801984
vt 0.939916 0.802589
vt 0.939955 0.807847
vt 0.926823 0.803949
vt 0.871833 0.895965
vt 0.939550 0.836388
vt 0.939945 0.918898
vt 0.871331 0.844281
vt 0.871456 0.845715
vt 0.872162 0.959776
vt 0.939607 0.855339
vt 0.939704 0.857675
vt 0.872175 0.951964
vt 0.948968 0.802023
vt 0.939718 0.829114
vt 0.963169 0.988126
vt 0.938859 0.987643
vt 0.872223 0.803080
vt 0.872330 0.989325
vn -0.0562 0.9920 0.1131
vn -0.0903 0.9958 0.0150
vn 0.0278 0.9989 0.0383
vn 0.0708 0.9975 -0.0009
vn 0.1839 0.9737 0.1344
vn 0.1205 0.9817 0.1475
vn 0.1028 0.9839 -0.1462
vn -0.0302 0.9995 -0.0065
vn -0.0386 0.9964 -0.0757
vn 0.0820 0.9919 0.0963
vn 0.2283 0.9736 0.0060
vn 0.0722 0.9971 0.0213
vn 0.1881 0.9817 0.0280
vn 0.0282 0.9991 -0.0308
vn 0.0454 0.9948 -0.0906
vn -0.0371 0.9926 -0.1153
vn -0.1251 0.9893 -0.0750
vn 0.1729 0.9567 -0.2341
vn 0.1911 0.9729 -0.1301
vn 0.1551 0.9869 -0.0436
vn 0.3088 0.9252 -0.2206
vn 0.1367 0.9538 -0.2674
vn 0.2696 0.8987 -0.3458
vn -0.0461 0.9577 -0.2841
vn 0.1376 0.9150 -0.3793
vn 0.0575 0.9489 -0.3101
vn 0.3055 0.9171 -0.2561
vn 0.2077 0.9157 -0.3439
vn -0.1381 0.9463 -0.2924
vn 0.5777 0.8064 0.1259
vn 0.2028 0.9026 -0.3798
vn 0.3038 0.9337 -0.1895
vn 0.2360 0.9266 -0.2928
vn 0.3751 0.9212 -0.1027
vn 0.2834 0.9581 -0.0416
vn 0.1997 0.9791 0.0392
vn 0.1855 0.9826 -0.0092
vn 0.1316 0.9913 0.0077
vn 0.1017 0.9781 -0.1816
vn 0.1248 0.9786 -0.1635
vn 0.1021 0.9945 0.0207
vn 0.1115 0.9937 -0.0112
vn 0.0977 0.9947 -0.0316
vn 0.1868 0.9655 -0.1812
vn 0.2055 0.9561 -0.2088
vn 0.3457 0.9302 -0.1234
vn 0.1073 0.9940 -0.0202
vn 0.1025 0.9757 -0.1936
vn 0.0154 0.9327 -0.3602
vn 0.0602 0.9383 -0.3406
vn 0.1186 0.9485 -0.2936
vn 0.1930 0.9656 -0.1739
vn 0.2636 0.9600 -0.0944
vn 0.2134 0.9745 -0.0694
vn 0.2046 0.9627 -0.1769
vn 0.1590 0.9444 -0.2877
vn 0.1555 0.9288 -0.3363
vn 0.3660 0.9263 -0.0898
vn 0.1782 0.9821 -0.0613
vn 0.1771 0.9712 -0.1594
vn 0.1169 0.9875 -0.1058
vn 0.0997 0.9950 0.0086
vn -0.1090 0.9900 -0.0899
vn 0.0259 0.9988 -0.0415
vn 0.1841 0.9734 -0.1361
vn 0.1097 0.9905 -0.0827
vn 0.1766 0.9835 -0.0388
vn 0.0743 0.9969 -0.0236
vn 0.0282 0.9991 0.0308
vn 0.0907 0.9953 0.0327
vn 0.1200 0.9926 -0.0147
vn 0.2803 0.9587 0.0475
vn 0.1826 0.9827 -0.0298
vn 0.0975 0.9948 -0.0280
vn 0.1092 0.9768 0.1844
vn 0.1249 0.9758 0.1794
vn 0.1342 0.9909 -0.0032
vn 0.1940 0.9618 0.1933
vn 0.1319 0.9360 0.3263
vn 0.1027 0.9944 0.0258
vn 0.1051 0.9746 0.1974
vn 0.0154 0.9327 0.3601
vn 0.0611 0.9385 0.3397
vn 0.0615 0.9432 0.3264
vn 0.1596 0.9868 0.0269
vn 0.1602 0.9322 0.3244
vn 0.2041 0.9789 0.0121
vn 0.1547 0.9879 -0.0121
vn 0.0529 0.9901 0.1299
vn 0.1709 0.9395 0.2969
vn -0.0837 0.9908 0.1059
vn -0.1226 0.9919 0.0331
vn 0.4182 0.9066 0.0556
vn 0.3511 0.9157 0.1955
vn 0.3085 0.9281 0.2086
vn 0.1409 0.9790 -0.1470
vn 0.4008 0.8476 -0.3478
vn 0.1578 0.9489 -0.2732
vn 0.1170 0.9608 -0.2510
vn 0.1054 0.9925 -0.0619
vn 0.1364 0.9763 -0.1679
vn 0.1869 0.9741 -0.1271
vn 0.1869 0.9741 0.1271
vn 0.0720 0.9696 0.2339
vn 0.1834 0.9743 0.1305
vn 0.0868 0.9887 -0.1223
vn 0.7190 0.5488 0.4265
vn 0.0187 0.9881 0.1527
vn 0.2959 0.9542 0.0431
vn -0.1535 0.9783 -0.1393
vn -0.2245 0.9387 -0.2617
vn 0.1934 0.9516 -0.2387
vn -0.0982 0.9913 0.0872
vn -0.1387 0.9902 0.0167
vn 0.0990 0.9876 -0.1219
vn 0.1591 0.9869 -0.0263
vn -0.0672 0.9848 0.1601
vn 0.1231 0.9901 0.0666
vn 0.0251 0.9377 0.3464
vn 0.1743 0.9557 -0.2373
vn 0.1910 0.9505 -0.2452
s 1
f 88/1/1 1/2/2 2/3/3
f 2/3/3 1/2/2 43/4/4
f 2/3/3 43/4/4 3/5/5
f 3/5/5 43/4/4 4/6/6
f 4/6/6 43/4/4 5/7/7
f 5/7/7 45/8/8 4/6/6
f 45/8/8 46/9/9 6/10/10
f 6/10/10 46/9/9 28/11/11
f 4/6/6 45/8/8 6/10/10
f 4/6/6 6/10/10 11/12/12
f 11/12/12 6/10/10 7/13/13
f 11/12/12 3/5/5 4/6/6
f 8/14/14 3/5/5 11/12/12
f 8/14/14 2/3/3 3/5/5
f 9/15/15 2/3/3 8/14/14
f 9/15/15 8/14/14 10/16/16
f 10/16/16 8/14/14 11/12/12
f 10/16/16 11/12/12 12/17/17
f 10/16/16 12/17/17 15/18/18
f 12/17/17 11/12/12 13/19/19
f 15/18/18 12/17/17 13/19/19
f 11/12/12 14/20/20 13/19/19
f 11/12/12 7/13/13 14/20/20
f 15/18/18 13/19/19 16/21/21
f 16/21/21 13/19/19 22/22/22
f 10/16/16 15/18/18 17/23/23
f 40/24/24 10/16/16 17/23/23
f 40/24/24 17/23/23 18/25/25
f 17/23/23 15/18/18 18/25/25
f 18/25/25 15/18/18 19/26/26
f 19/26/26 15/18/18 16/21/21
f 16/21/21 22/22/22 20/27/27
f 19/26/26 16/21/21 20/27/27
f 19/26/26 77/28/28 78/29/29
f 20/27/27 22/22/22 21/30/30
f 22/22/22 23/31/31 21/30/30
f 13/19/19 14/20/20 22/22/22
f 22/22/22 14/20/20 24/32/32
f 23/31/31 22/22/22 25/33/33
f 25/33/33 22/22/22 24/32/32
f 21/30/30 23/31/31 25/33/33
f 24/32/32 36/34/34 25/33/33
f 14/20/20 27/35/35 24/32/32
f 14/20/20 7/13/13 27/35/35
f 6/10/10 28/11/11 7/13/13
f 27/35/35 7/13/13 26/36/36
f 7/13/13 28/11/11 26/36/36
f 26/36/36 28/11/11 29/37/37
f 26/36/36 29/37/37 30/38/38
f 26/36/36 30/38/38 31/39/39
f 31/39/39 30/38/38 32/40/40
f 30/38/38 60/41/41 61/42/42
f 30/38/38 63/43/43 32/40/40
f 33/44/44 26/36/36 31/39/39
f 33/44/44 31/39/39 34/45/45
f 27/35/35 26/36/36 33/44/44
f 35/46/46 27/35/35 33/44/44
f 24/32/32 27/35/35 36/34/34
f 36/34/34 27/35/35 35/46/46
f 35/46/46 33/44/44 34/45/45
f 34/45/45 31/39/39 32/40/40
f 32/40/40 58/47/47 37/48/48
f 37/48/48 66/49/49 32/40/40
f 37/48/48 58/47/47 59/50/50
f 32/40/40 66/49/49 64/51/51
f 34/45/45 64/51/51 65/52/52
f 38/53/53 65/52/52 67/54/54
f 35/46/46 34/45/45 38/53/53
f 36/34/34 35/46/46 38/53/53
f 36/34/34 38/53/53 39/55/55
f 25/33/33 36/34/34 39/55/55
f 25/33/33 75/56/56 70/57/57
f 21/30/30 70/57/57 71/58/58
f 39/55/55 68/59/59 69/60/60
f 38/53/53 67/54/54 68/59/59
f 41/61/61 9/15/15 10/16/16
f 91/62/62 9/15/15 41/61/61
f 1/2/2 121/63/63 42/64/64
f 42/64/64 43/4/4 1/2/2
f 42/64/64 44/65/65 43/4/4
f 43/4/4 44/65/65 5/7/7
f 5/7/7 46/9/9 45/8/8
f 47/66/66 28/11/11 46/9/9
f 48/67/67 47/66/66 46/9/9
f 5/7/7 50/68/68 46/9/9
f 50/68/68 48/67/67 46/9/9
f 50/68/68 5/7/7 44/65/65
f 49/69/69 50/68/68 44/65/65
f 49/69/69 44/65/65 42/64/64
f 50/68/68 110/70/70 111/71/71
f 111/71/71 48/67/67 50/68/68
f 47/66/66 48/67/67 28/11/11
f 51/72/72 52/73/73 48/67/67
f 48/67/67 29/37/37 28/11/11
f 52/73/73 53/74/74 29/37/37
f 53/74/74 30/38/38 29/37/37
f 52/73/73 29/37/37 48/67/67
f 54/75/75 55/76/76 52/73/73
f 103/77/77 53/74/74 52/73/73
f 55/76/76 103/77/77 52/73/73
f 56/78/78 54/75/75 52/73/73
f 99/79/79 54/75/75 56/78/78
f 51/72/72 56/78/78 52/73/73
f 104/80/80 55/76/76 57/81/81
f 96/82/82 57/81/81 55/76/76
f 57/81/81 105/83/83 104/80/80
f 94/84/84 96/82/82 55/76/76
f 121/63/63 119/85/85 42/64/64
f 98/86/86 55/76/76 54/75/75
f 108/87/87 48/67/67 109/88/88
f 116/89/89 49/69/69 42/64/64
f 95/90/90 94/84/84 55/76/76
f 89/91/91 90/92/92 1/2/2
f 106/93/93 101/94/94 51/72/72
f 100/95/95 99/79/79 56/78/78
f 92/96/96 91/62/62 41/61/61
f 86/97/97 18/25/25 85/98/98
f 87/99/99 92/96/96 41/61/61
f 62/100/100 60/41/41 53/74/74
f 84/101/101 87/99/99 41/61/61
f 80/102/102 2/3/3 9/15/15
f 118/103/103 120/104/104 117/105/105
f 81/106/106 80/102/102 9/15/15
f 77/28/28 20/27/27 76/107/107
f 116/89/89 119/85/85 117/105/105
f 114/108/108 50/68/68 49/69/69
f 108/87/87 107/109/109 51/72/72
f 82/110/110 40/24/24 83/111/111
f 69/60/60 73/112/112 39/55/55
f 113/113/113 112/114/114 50/68/68
f 101/94/94 56/78/78 51/72/72
f 74/115/115 75/56/56 39/55/55
f 78/29/29 18/25/25 19/26/26
f 73/112/112 74/115/115 39/55/55
f 112/114/114 110/70/70 50/68/68
f 107/109/109 106/93/93 51/72/72
f 76/107/107 21/30/30 71/58/58
f 84/101/101 10/16/16 82/110/110
f 79/116/116 88/1/1 2/3/3
f 115/117/117 114/108/108 49/69/69
f 86/97/97 83/111/111 40/24/24
f 88/1/1 89/91/91 1/2/2
f 30/38/38 53/74/74 60/41/41
f 30/38/38 61/42/42 63/43/43
f 32/40/40 63/43/43 58/47/47
f 37/48/48 59/50/50 66/49/49
f 34/45/45 32/40/40 64/51/51
f 38/53/53 34/45/45 65/52/52
f 25/33/33 39/55/55 75/56/56
f 21/30/30 25/33/33 70/57/57
f 39/55/55 38/53/53 68/59/59
f 91/62/62 81/106/106 9/15/15
f 1/2/2 90/92/92 121/63/63
f 111/71/71 109/88/88 48/67/67
f 103/77/77 62/100/100 53/74/74
f 55/76/76 102/118/118 103/77/77
f 99/79/79 98/86/86 54/75/75
f 104/80/80 102/118/118 55/76/76
f 96/82/82 105/83/83 57/81/81
f 94/84/84 97/119/119 96/82/82
f 98/86/86 95/90/90 55/76/76
f 108/87/87 51/72/72 48/67/67
f 116/89/89 115/117/117 49/69/69
f 86/97/97 40/24/24 18/25/25
f 87/99/99 93/120/120 92/96/96
f 80/102/102 79/116/116 2/3/3
f 77/28/28 19/26/26 20/27/27
f 42/64/64 119/85/85 116/89/89
f 119/85/85 118/103/103 117/105/105
f 114/108/108 113/113/113 50/68/68
f 82/110/110 10/16/16 40/24/24
f 69/60/60 72/121/121 73/112/112
f 101/94/94 100/95/95 56/78/78
f 78/29/29 85/98/98 18/25/25
f 76/107/107 20/27/27 21/30/30
f 84/101/101 41/61/61 10/16/16
