# Blender v2.82 (sub 7) OBJ File: 'LODTerrain.blend'
# www.blender.org
o lod_1_096_Cube.096
v -1412.876221 -21.756126 -373.667358
v -1402.373291 -11.472358 -375.934540
v -1406.035400 -22.597813 -368.498474
v -1395.139648 -17.332777 -371.142242
v -1459.796387 -20.239044 -379.001923
v -1446.460205 -29.510815 -347.405701
v -1490.553223 -37.471478 -356.463837
v -1432.846313 -32.912186 -323.943176
v -1483.802124 -41.337379 -330.892120
v -1398.160156 -29.639988 -317.979706
v -1367.079712 -20.470428 -352.552399
v -1375.946289 -16.671494 -366.610199
v -1365.985962 -25.987179 -341.014496
v -1377.006104 -25.513176 -303.005920
v -1350.657959 -16.817408 -283.506317
v -1399.772217 -18.492889 -275.374512
v -1388.792847 -14.892245 -274.000793
v -1368.719238 -1.724958 -235.832306
v -1358.851074 -6.257477 -246.366074
v -1349.922363 -5.965870 -252.954742
v -1406.722046 -16.435787 -257.013000
v -1436.250244 -33.320820 -295.329773
v -1386.751709 -6.103631 -244.988632
v -1381.354980 2.594092 -229.136322
v -1390.646973 0.025258 -222.091202
v -1371.716553 12.904248 -225.192642
v -1365.056885 25.490124 -216.412750
v -1362.187012 2.175943 -231.731461
v -1367.669678 32.985168 -206.992310
v -1376.363770 23.355640 -205.579391
v -1375.034668 39.309246 -194.256378
v -1386.037842 28.969994 -202.124084
v -1342.279175 23.048653 -192.449432
v -1343.477661 19.980110 -202.300262
v -1343.390869 -25.940758 -326.615143
v -1339.856445 10.153390 -234.016022
v -1339.256592 3.493321 -248.707443
v -1342.674316 -4.247887 -255.642654
v -1359.732788 3.377827 -238.941940
v -1353.489258 12.588315 -233.199722
v -1357.369995 19.821541 -220.058655
v -1347.232422 1.997014 -236.707428
v -1346.515625 14.870282 -226.595398
v -1347.698730 22.335995 -211.831589
v -1356.549561 25.538410 -205.679596
v -1362.516602 34.756104 -194.797974
v -1339.078613 -15.359771 -369.329712
v -1355.713501 -15.276356 -363.192719
v -1349.095093 2.196601 -375.596985
v -1359.591797 -8.115457 -370.017059
v -1370.412109 -11.611361 -362.897034
v -1383.517578 -12.821616 -380.962128
v -1446.374878 -32.814209 -286.217285
v -1424.357666 -20.398682 -255.905060
v -1415.739502 -9.476632 -249.123505
v -1423.986938 -16.621479 -244.584122
v -1408.243652 -8.109636 -244.250214
v -1410.025146 1.258497 -223.817322
v -1417.768311 -4.752257 -236.981049
v -1388.651245 7.410406 -213.095337
v -1397.776855 17.438076 -205.869812
v -1404.768921 31.343224 -193.437866
v -1408.181030 24.580559 -199.764313
v -1424.122803 7.470205 -200.661896
v -1404.893188 16.107548 -208.399689
v -1418.735840 -3.456134 -229.938400
v -1419.701172 10.736917 -213.620605
v -1424.074097 4.290967 -210.490219
v -1437.343018 -5.227772 -224.990738
v -1453.020996 -9.814810 -225.058182
v -1484.544434 -16.298468 -205.901138
v -1473.787720 -17.327162 -237.570862
v -1483.644043 -39.168941 -288.423279
v -1449.452026 -13.874534 -232.883636
v -1440.183716 -15.849577 -240.463776
v -1433.199341 -2.173169 -232.625320
v -1427.176025 3.808136 -224.117844
v -1362.379150 34.837696 -190.625000
v -1360.555298 33.665520 -190.625000
v -1334.375000 21.344765 -192.137909
v -1334.375000 21.494030 -190.625000
v -1342.722046 23.325737 -190.625000
v -1334.375000 19.102409 -198.745651
v -1334.375000 15.818194 -212.792984
v -1334.375000 6.232639 -238.506592
v -1366.671997 36.503235 -190.625000
v -1375.678955 39.756275 -190.625000
v -1380.488281 38.314945 -190.625000
v -1402.520752 33.570538 -190.625000
v -1397.481201 32.361591 -190.625000
v -1387.099976 34.694950 -190.625000
v -1389.943604 32.420193 -190.625000
v -1405.418091 31.332802 -190.625000
v -1411.075317 24.160198 -190.625000
v -1406.717041 29.836742 -190.625000
v -1515.666504 -20.694530 -190.625000
v -1525.000000 -22.041500 -190.625000
v -1525.000000 -21.625542 -204.664688
v -1416.031982 17.837116 -190.625000
v -1424.168457 9.184666 -190.625000
v -1449.521973 0.759057 -190.625000
v -1440.409668 4.136902 -190.625000
v -1477.626709 -11.818474 -190.625000
v -1458.124512 -2.419415 -190.625000
v -1507.875122 -19.673546 -190.625000
v -1525.000000 -21.391922 -215.894730
v -1525.000000 -21.745842 -220.992920
v -1334.375000 -23.397724 -306.659760
v -1334.375000 -19.555462 -295.344666
v -1334.375000 -8.072037 -269.509369
v -1334.375000 -4.789793 -260.368408
v -1334.375000 -24.784637 -320.377777
v -1334.375000 -24.596210 -329.029266
v -1334.375000 -16.761374 -361.794250
v -1334.375000 -15.235009 -367.984222
v -1334.375000 -14.255409 -371.247559
v -1334.375000 -9.257301 -381.250000
v -1336.318726 -9.317663 -381.250000
v -1334.375000 6.235221 -238.616394
v -1334.375000 5.382356 -240.558289
v -1334.375000 1.943425 -249.835785
v -1334.375000 -1.891091 -253.191925
v -1340.293213 -4.333813 -381.250000
v -1357.148926 3.839752 -381.250000
v -1352.547363 6.007519 -381.250000
v -1363.425537 -4.415939 -381.250000
v -1380.608398 -11.488864 -381.250000
v -1383.090454 -11.983642 -381.250000
v -1383.435425 -12.487282 -381.250000
v -1383.699097 -12.462434 -381.250000
v -1383.904297 -12.289721 -381.250000
v -1397.161865 -4.202911 -381.250000
v -1386.654785 -10.578855 -381.250000
v -1449.650879 -17.981146 -381.250000
v -1427.412231 -18.716160 -381.250000
v -1398.140381 -4.259791 -381.250000
v -1402.437622 -8.343191 -381.250000
v -1405.990601 -11.362617 -381.250000
v -1412.150757 -18.889927 -381.250000
v -1415.042236 -19.613163 -381.250000
v -1525.000000 -31.412815 -259.498871
v -1525.000000 -34.822346 -267.809723
v -1525.000000 -44.383305 -328.164978
v -1525.000000 -44.769032 -335.762238
v -1458.396851 -19.241055 -381.250000
v -1484.942627 -27.761612 -381.250000
v -1462.133789 -20.290661 -381.250000
v -1525.000000 -33.225880 -381.250000
v -1525.000000 -35.788326 -374.149109
v -1525.000000 -43.850521 -340.900818
v -1460.073120 -19.936852 -381.250000
vt 0.132875 0.127849
vt 0.127695 0.134341
vt 0.127649 0.133180
vt 0.139905 0.124623
vt 0.138110 0.136151
vt 0.136325 0.118029
vt 0.128650 0.118792
vt 0.128595 0.115909
vt 0.132403 0.072593
vt 0.127191 0.081146
vt 0.129891 0.073987
vt 0.152579 0.041894
vt 0.157531 0.080013
vt 0.185168 0.099106
vt 0.175316 0.049360
vt 0.211602 0.097749
vt 0.187544 0.129826
vt 0.155714 0.162835
vt 0.142147 0.154421
vt 0.165314 0.162661
vt 0.176590 0.192004
vt 0.203906 0.153916
vt 0.231487 0.130355
vt 0.232418 0.141410
vt 0.270225 0.159503
vt 0.259622 0.170660
vt 0.261353 0.143234
vt 0.248763 0.124149
vt 0.261364 0.122289
vt 0.275654 0.148803
vt 0.283507 0.140281
vt 0.281404 0.156692
vt 0.273327 0.167395
vt 0.298410 0.162926
vt 0.288310 0.165511
vt 0.299033 0.153974
vt 0.309470 0.154471
vt 0.298172 0.172306
vt 0.302903 0.144751
vt 0.292873 0.141008
vt 0.313523 0.149490
vt 0.314309 0.163823
vt 0.310319 0.167998
vt 0.310853 0.126285
vt 0.313517 0.124358
vt 0.313612 0.125486
vt 0.314309 0.168025
vt 0.314296 0.170058
vt 0.313279 0.184726
vt 0.314391 0.192968
vt 0.313016 0.192729
vt 0.302664 0.185460
vt 0.292490 0.194214
vt 0.279654 0.182878
vt 0.305834 0.194042
vt 0.201057 0.195363
vt 0.184466 0.198941
vt 0.223012 0.180326
vt 0.236289 0.195653
vt 0.211909 0.195776
vt 0.271364 0.189190
vt 0.267180 0.194724
vt 0.267001 0.194701
vt 0.265037 0.194719
vt 0.256539 0.189922
vt 0.256188 0.194104
vt 0.246523 0.194153
vt 0.253705 0.179561
vt 0.249520 0.187192
vt 0.253031 0.194191
vt 0.266554 0.169737
vt 0.272231 0.176715
vt 0.284252 0.172741
vt 0.268381 0.182178
vt 0.293014 0.182442
vt 0.140297 0.189975
vt 0.141445 0.194728
vt 0.138109 0.194922
vt 0.146660 0.195263
vt 0.145957 0.160110
vt 0.145975 0.173732
vt 0.132434 0.180410
vt 0.136629 0.167453
vt 0.126188 0.189084
vt 0.127236 0.148451
vt 0.127102 0.151007
vt 0.126966 0.148843
vt 0.126972 0.148527
vt 0.169915 0.010726
vt 0.250607 0.107340
vt 0.222980 0.077152
vt 0.255436 0.115322
vt 0.261804 0.107379
vt 0.268633 0.113472
vt 0.298620 0.133264
vt 0.314019 0.140752
vt 0.313225 0.134156
vt 0.313450 0.128787
vt 0.295703 0.124491
vt 0.313107 0.119917
vt 0.304128 0.122678
vt 0.313546 0.115410
vt 0.282502 0.121995
vt 0.275519 0.112351
vt 0.290860 0.111839
vt 0.304564 0.107023
vt 0.294226 0.107246
vt 0.280426 0.094755
vt 0.280623 0.078277
vt 0.312446 0.089937
vt 0.297455 0.045991
vt 0.313749 0.054124
vt 0.311676 0.071958
vt 0.263956 0.057416
vt 0.219679 0.044869
vt 0.246302 0.010493
vt 0.272606 0.082674
vt 0.265471 0.091634
vt 0.273330 0.099165
vt 0.281290 0.104693
vt 0.129984 0.072262
vt 0.128127 0.049586
vt 0.129957 0.070661
vt 0.128570 0.125036
vt 0.313399 0.026214
vt 0.126980 0.148254
vt 0.126986 0.148024
vt 0.127111 0.145213
vt 0.299770 0.009571
vt 0.313606 0.019180
vt 0.174476 0.199804
vt 0.127038 0.177210
vt 0.135391 0.009256
vt 0.182547 0.010140
vt 0.239017 0.009866
vt 0.128094 0.128286
vt 0.283177 0.008847
vt 0.313272 0.009826
vt 0.128632 0.104049
vt 0.126664 0.171877
vt 0.174607 0.010970
vt 0.314208 0.107441
vt 0.313282 0.154060
vt 0.126377 0.192939
vt 0.127646 0.165845
vt 0.314164 0.143547
vt 0.314969 0.184569
vt 0.311810 0.080587
vt 0.288505 0.008626
vt 0.128397 0.009866
vt 0.126400 0.194979
vn -0.3404 0.6705 0.6592
vn 0.1218 0.6172 0.7773
vn -0.1827 0.6505 0.7372
vn -0.1801 0.8809 0.4376
vn -0.0499 0.7198 0.6924
vn -0.2275 0.9058 0.3573
vn -0.5656 0.7878 0.2437
vn -0.0581 0.9562 0.2868
vn -0.2237 0.9298 0.2923
vn -0.0556 0.9435 0.3266
vn -0.2105 0.9354 0.2841
vn -0.1632 0.9514 0.2613
vn -0.1342 0.9553 0.2633
vn -0.1277 0.9869 0.0986
vn -0.1379 0.9873 0.0792
vn -0.1619 0.9761 -0.1449
vn -0.1039 0.9940 0.0327
vn -0.1108 0.9092 0.4013
vn -0.3597 0.8601 0.3616
vn -0.0518 0.9439 0.3261
vn -0.0829 0.9937 0.0748
vn -0.0985 0.9670 -0.2347
vn -0.2460 0.9214 -0.3008
vn -0.1431 0.9307 -0.3366
vn -0.1521 0.8173 -0.5557
vn -0.1356 0.8728 -0.4689
vn -0.1398 0.9322 -0.3337
vn -0.2045 0.8910 -0.4053
vn -0.0956 0.8985 -0.4283
vn -0.3614 0.7715 -0.5235
vn -0.1935 0.8409 -0.5053
vn -0.2820 0.6379 -0.7166
vn -0.3796 0.7626 -0.5238
vn 0.0065 0.8753 -0.4835
vn 0.0408 0.7666 -0.6407
vn -0.4086 0.5827 -0.7024
vn -0.0329 0.9252 -0.3781
vn 0.4046 0.8509 -0.3352
vn -0.2891 0.6635 -0.6901
vn -0.1713 0.7130 -0.6798
vn -0.4078 0.8275 -0.3859
vn 0.3445 0.9375 -0.0494
vn 0.3926 0.8782 -0.2733
vn -0.3558 0.7909 -0.4979
vn -0.7663 0.6091 -0.2045
vn -0.6856 0.7111 -0.1556
vn 0.4544 0.8902 -0.0323
vn 0.5150 0.8570 -0.0181
vn 0.3526 0.9163 -0.1896
vn 0.2134 0.9722 -0.0959
vn 0.2139 0.9547 -0.2067
vn 0.3609 0.9002 -0.2437
vn 0.2114 0.9446 -0.2508
vn 0.2239 0.8494 -0.4780
vn 0.1995 0.9394 -0.2788
vn -0.0661 0.9761 -0.2068
vn -0.0840 0.9945 -0.0630
vn -0.1043 0.9322 -0.3464
vn -0.1927 0.9171 -0.3488
vn -0.0942 0.9337 -0.3455
vn 0.1352 0.9290 -0.3444
vn 0.5322 0.8437 -0.0692
vn 0.3980 0.8761 -0.2720
vn 0.2868 0.8811 -0.3760
vn -0.1702 0.8471 -0.5034
vn 0.1084 0.7853 -0.6095
vn -0.1618 0.9176 -0.3631
vn -0.3223 0.8809 -0.3465
vn -0.2418 0.8408 -0.4842
vn -0.0370 0.7801 -0.6246
vn -0.4669 0.6778 -0.5679
vn -0.0974 0.7200 -0.6871
vn 0.0644 0.8034 -0.5919
vn -0.1785 0.7336 -0.6557
vn 0.4717 0.8488 -0.2389
vn 0.1665 0.8718 0.4607
vn -0.0993 0.9609 0.2582
vn -0.0567 0.9190 0.3900
vn -0.0845 0.9688 0.2329
vn -0.4158 0.8498 0.3238
vn 0.0990 0.8215 0.5615
vn 0.2722 0.7694 0.5779
vn -0.2592 0.7655 0.5889
vn 0.6977 0.5954 0.3985
vn -0.0367 0.7848 0.6187
vn -0.3352 0.8286 0.4484
vn -0.1667 0.3953 0.9033
vn -0.4993 0.6327 0.5920
vn -0.0919 0.9761 0.1966
vn -0.2234 0.9070 -0.3569
vn -0.1420 0.9491 -0.2810
vn -0.3247 0.9196 -0.2209
vn -0.3158 0.8369 -0.4470
vn -0.3300 0.8731 -0.3588
vn -0.0177 0.6640 -0.7476
vn -0.3947 0.7485 -0.5328
vn 0.0853 0.7111 -0.6978
vn -0.0457 0.8006 -0.5974
vn 0.0573 0.7053 -0.7065
vn -0.7709 0.5990 -0.2166
vn -0.4340 0.7491 -0.5004
vn -0.7351 0.6628 -0.1424
vn 0.0300 0.8104 -0.5852
vn -0.0231 0.8295 -0.5580
vn -0.4389 0.8075 -0.3941
vn -0.5584 0.8102 -0.1781
vn -0.6513 0.7542 -0.0833
vn -0.4948 0.8245 -0.2743
vn -0.2315 0.9180 -0.3218
vn -0.3294 0.9156 -0.2305
vn -0.2332 0.9654 -0.1165
vn -0.3705 0.9231 -0.1029
vn -0.3517 0.9102 -0.2187
vn -0.1537 0.9537 -0.2584
vn -0.0871 0.9733 -0.2122
vn -0.1164 0.9368 -0.3298
vn 0.0528 0.9077 -0.4163
vn -0.1875 0.8574 -0.4793
vn -0.3763 0.7708 -0.5139
vn -0.2749 0.8766 -0.3950
vn -0.2690 0.9496 0.1608
vn -0.2286 0.9229 0.3098
vn -0.2663 0.9294 0.2556
vn -0.6250 0.6859 0.3727
vn -0.1523 0.9882 -0.0143
vn 0.4203 0.6871 0.5926
vn 0.4276 0.6505 0.6276
vn 0.3667 0.6038 0.7077
vn -0.1323 0.9909 0.0222
vn -0.1339 0.9907 0.0233
vn -0.1076 0.9834 0.1457
vn -0.0135 0.8253 0.5646
vn -0.1085 0.9473 0.3015
vn -0.0508 0.9957 -0.0777
vn -0.0507 0.9518 -0.3025
vn -0.6151 0.6761 0.4055
vn -0.1298 0.9817 -0.1393
vn -0.1428 0.9893 0.0293
vn 0.0374 0.9502 0.3093
vn -0.4498 0.6587 0.6032
vn -0.0911 0.9933 0.0707
vn -0.5365 0.8314 -0.1444
vn -0.0065 0.9923 -0.1233
vn 0.3674 0.7925 0.4867
vn -0.5436 0.7243 0.4241
vn -0.4951 0.7586 -0.4234
vn 0.3869 0.9209 -0.0459
vn -0.3366 0.9092 -0.2450
vn -0.1173 0.9926 -0.0310
vn -0.1273 0.9330 0.3366
vn -0.0277 0.8942 0.4468
s 1
f 2/1/1 132/2/2 136/3/3
f 2/1/1 3/4/4 4/5/5
f 1/6/6 3/4/4 2/1/1
f 1/6/6 139/7/7 140/8/8
f 5/9/9 134/10/10 145/11/11
f 5/9/9 7/12/12 6/13/13
f 6/13/13 8/14/14 1/6/6
f 6/13/13 9/15/15 8/14/14
f 8/14/14 9/15/15 22/16/16
f 1/6/6 8/14/14 3/4/4
f 8/14/14 10/17/17 11/18/18
f 3/4/4 8/14/14 11/18/18
f 4/5/5 3/4/4 12/19/19
f 3/4/4 11/18/18 12/19/19
f 11/18/18 10/17/17 13/20/20
f 10/17/17 35/21/21 13/20/20
f 10/17/17 14/22/22 35/21/21
f 22/16/16 10/17/17 8/14/14
f 10/17/17 22/16/16 14/22/22
f 22/16/16 16/23/23 14/22/22
f 17/24/24 18/25/25 14/22/22
f 18/25/25 19/26/26 14/22/22
f 14/22/22 16/23/23 17/24/24
f 17/24/24 23/27/27 18/25/25
f 22/16/16 21/28/28 16/23/23
f 16/23/23 23/27/27 17/24/24
f 21/28/28 23/27/27 16/23/23
f 21/28/28 57/29/29 23/27/27
f 23/27/27 24/30/30 18/25/25
f 23/27/27 25/31/31 24/30/30
f 25/31/31 26/32/32 24/30/30
f 18/25/25 24/30/30 26/32/32
f 18/25/25 26/32/32 28/33/33
f 26/32/32 29/34/34 27/35/35
f 26/32/32 30/36/36 29/34/34
f 30/36/36 31/37/37 29/34/34
f 29/34/34 31/37/37 45/38/38
f 32/39/39 30/36/36 60/40/40
f 32/39/39 31/37/37 30/36/36
f 32/39/39 88/41/41 31/37/37
f 31/37/37 86/42/42 46/43/43
f 62/44/44 95/45/45 93/46/46
f 46/43/43 86/42/42 78/47/47
f 46/43/43 78/47/47 79/48/48
f 79/48/48 33/49/49 46/43/43
f 33/49/49 81/50/50 80/51/51
f 34/52/52 84/53/53 43/54/54
f 33/49/49 83/55/55 34/52/52
f 35/21/21 108/56/56 112/57/57
f 15/58/58 110/59/59 109/60/60
f 36/61/61 85/62/62 119/63/63
f 36/61/61 120/64/64 37/65/65
f 37/65/65 120/64/64 121/66/66
f 15/58/58 111/67/67 110/59/59
f 14/22/22 20/68/68 15/58/58
f 38/69/69 111/67/67 15/58/58
f 15/58/58 20/68/68 38/69/69
f 37/65/65 122/70/70 38/69/69
f 20/68/68 37/65/65 38/69/69
f 14/22/22 19/26/26 20/68/68
f 19/26/26 18/25/25 39/71/71
f 18/25/25 28/33/33 39/71/71
f 39/71/71 40/72/72 19/26/26
f 39/71/71 28/33/33 40/72/72
f 28/33/33 41/73/73 40/72/72
f 19/26/26 40/72/72 42/74/74
f 19/26/26 42/74/74 20/68/68
f 20/68/68 42/74/74 37/65/65
f 37/65/65 42/74/74 36/61/61
f 43/54/54 36/61/61 42/74/74
f 40/72/72 43/54/54 42/74/74
f 40/72/72 41/73/73 43/54/54
f 41/73/73 44/75/75 43/54/54
f 44/75/75 34/52/52 43/54/54
f 41/73/73 45/38/38 44/75/75
f 26/32/32 41/73/73 28/33/33
f 26/32/32 27/35/35 41/73/73
f 29/34/34 45/38/38 27/35/35
f 27/35/35 45/38/38 41/73/73
f 45/38/38 34/52/52 44/75/75
f 45/38/38 46/43/43 34/52/52
f 46/43/43 33/49/49 34/52/52
f 31/37/37 46/43/43 45/38/38
f 47/76/76 115/77/77 116/78/78
f 35/21/21 114/79/79 47/76/76
f 12/19/19 11/18/18 51/80/80
f 13/20/20 35/21/21 11/18/18
f 48/81/81 11/18/18 35/21/21
f 48/81/81 35/21/21 47/76/76
f 49/82/82 48/81/81 47/76/76
f 50/83/83 48/81/81 49/82/82
f 47/76/76 123/84/84 49/82/82
f 51/80/80 48/81/81 50/83/83
f 12/19/19 51/80/80 50/83/83
f 51/80/80 11/18/18 48/81/81
f 52/85/85 12/19/19 50/83/83
f 4/5/5 12/19/19 52/85/85
f 50/83/83 127/86/86 52/85/85
f 52/85/85 127/86/86 128/87/87
f 52/85/85 128/87/87 129/88/88
f 7/12/12 9/15/15 6/13/13
f 150/89/89 9/15/15 7/12/12
f 22/16/16 54/90/90 21/28/28
f 22/16/16 53/91/91 54/90/90
f 55/92/92 54/90/90 56/93/93
f 54/90/90 55/92/92 21/28/28
f 55/92/92 57/29/29 21/28/28
f 56/93/93 57/29/29 55/92/92
f 57/29/29 25/31/31 23/27/27
f 56/93/93 59/94/94 57/29/29
f 25/31/31 60/40/40 26/32/32
f 60/40/40 30/36/36 26/32/32
f 61/95/95 32/39/39 60/40/40
f 92/96/96 32/39/39 61/95/95
f 61/95/95 90/97/97 92/96/96
f 62/44/44 90/97/97 61/95/95
f 62/44/44 93/46/46 89/98/98
f 65/99/99 62/44/44 61/95/95
f 94/100/100 62/44/44 63/101/101
f 63/101/101 99/102/102 94/100/100
f 63/101/101 62/44/44 65/99/99
f 58/103/103 65/99/99 61/95/95
f 58/103/103 61/95/95 25/31/31
f 25/31/31 61/95/95 60/40/40
f 57/29/29 58/103/103 25/31/31
f 66/104/104 58/103/103 57/29/29
f 59/94/94 66/104/104 57/29/29
f 66/104/104 67/105/105 58/103/103
f 67/105/105 65/99/99 58/103/103
f 67/105/105 63/101/101 65/99/99
f 67/105/105 64/106/106 63/101/101
f 68/107/107 64/106/106 67/105/105
f 64/106/106 99/102/102 63/101/101
f 69/108/108 64/106/106 68/107/107
f 70/109/109 102/110/110 64/106/106
f 70/109/109 64/106/106 69/108/108
f 71/111/111 103/112/112 104/113/113
f 104/113/113 70/109/109 71/111/111
f 71/111/111 70/109/109 72/114/114
f 9/15/15 73/115/115 22/16/16
f 22/16/16 73/115/115 53/91/91
f 73/115/115 141/116/116 72/114/114
f 73/115/115 72/114/114 53/91/91
f 72/114/114 70/109/109 53/91/91
f 74/117/117 70/109/109 69/108/108
f 53/91/91 70/109/109 74/117/117
f 75/118/118 74/117/117 69/108/108
f 75/118/118 69/108/108 76/119/119
f 74/117/117 75/118/118 53/91/91
f 53/91/91 75/118/118 54/90/90
f 54/90/90 75/118/118 56/93/93
f 75/118/118 76/119/119 56/93/93
f 56/93/93 76/119/119 66/104/104
f 56/93/93 66/104/104 59/94/94
f 76/119/119 77/120/120 66/104/104
f 77/120/120 67/105/105 66/104/104
f 77/120/120 69/108/108 67/105/105
f 69/108/108 68/107/107 67/105/105
f 76/119/119 69/108/108 77/120/120
f 145/11/11 151/121/121 5/9/9
f 146/122/122 5/9/9 147/123/123
f 138/124/124 139/7/7 1/6/6
f 105/125/125 103/112/112 71/111/111
f 130/126/126 131/127/127 52/85/85
f 129/88/88 130/126/126 52/85/85
f 133/128/128 4/5/5 52/85/85
f 151/121/121 147/123/123 5/9/9
f 131/127/127 133/128/128 52/85/85
f 98/129/129 96/130/130 105/125/125
f 108/56/56 15/58/58 109/60/60
f 112/57/57 113/131/131 35/21/21
f 123/84/84 125/132/132 49/82/82
f 149/133/133 150/89/89 7/12/12
f 143/134/134 142/135/135 73/115/115
f 138/124/124 2/1/1 137/136/136
f 141/116/116 107/137/137 72/114/114
f 98/129/129 97/138/138 96/130/130
f 84/53/53 85/62/62 43/54/54
f 146/122/122 149/133/133 7/12/12
f 107/137/137 71/111/111 72/114/114
f 135/139/139 6/13/13 1/6/6
f 124/140/140 49/82/82 125/132/132
f 143/134/134 9/15/15 144/141/141
f 102/110/110 100/142/142 64/106/106
f 136/3/3 137/136/136 2/1/1
f 88/41/41 87/143/143 31/37/37
f 116/78/78 118/144/144 47/76/76
f 140/8/8 135/139/139 1/6/6
f 124/140/140 126/145/145 50/83/83
f 114/79/79 115/77/77 47/76/76
f 2/1/1 4/5/5 132/2/2
f 5/9/9 6/13/13 134/10/10
f 32/39/39 91/146/146 88/41/41
f 31/37/37 87/143/143 86/42/42
f 79/48/48 82/147/147 33/49/49
f 33/49/49 82/147/147 81/50/50
f 34/52/52 83/55/55 84/53/53
f 33/49/49 80/51/51 83/55/55
f 35/21/21 14/22/22 108/56/56
f 36/61/61 43/54/54 85/62/62
f 36/61/61 119/63/63 120/64/64
f 38/69/69 122/70/70 111/67/67
f 37/65/65 121/66/66 122/70/70
f 35/21/21 113/131/131 114/79/79
f 47/76/76 118/144/144 123/84/84
f 50/83/83 126/145/145 127/86/86
f 150/89/89 144/141/141 9/15/15
f 92/96/96 91/146/146 32/39/39
f 62/44/44 89/98/98 90/97/97
f 94/100/100 95/45/45 62/44/44
f 64/106/106 100/142/142 99/102/102
f 70/109/109 101/148/148 102/110/110
f 104/113/113 101/148/148 70/109/109
f 73/115/115 142/135/135 141/116/116
f 146/122/122 7/12/12 5/9/9
f 133/128/128 132/2/2 4/5/5
f 71/111/111 106/149/149 105/125/125
f 106/149/149 98/129/129 105/125/125
f 108/56/56 14/22/22 15/58/58
f 138/124/124 1/6/6 2/1/1
f 146/122/122 148/150/150 149/133/133
f 107/137/137 106/149/149 71/111/111
f 135/139/139 134/10/10 6/13/13
f 124/140/140 50/83/83 49/82/82
f 143/134/134 73/115/115 9/15/15
f 116/78/78 117/151/151 118/144/144
