# Blender v2.82 (sub 7) OBJ File: 'LODTerrain.blend'
# www.blender.org
o lod_1_092_Cube.092
v 919.756836 -18.787558 -493.669617
v 924.192688 -19.899591 -528.269836
v 851.127502 -7.762358 -514.734375
v 888.422302 -11.130205 -472.536804
v 884.286743 -5.174856 -433.884125
v 945.394531 -17.157902 -473.362274
v 917.916443 -3.673984 -442.652649
v 945.970825 5.951345 -405.809082
v 918.561218 14.049819 -382.695129
v 873.216736 -1.648824 -383.038483
v 828.972351 -0.512930 -479.855621
v 775.490051 10.750003 -475.447113
v 785.464600 13.917735 -452.926880
v 765.854370 13.980070 -488.973907
v 806.354248 5.887400 -441.631348
v 855.165527 -2.319960 -403.751038
v 817.247559 7.826649 -403.856842
v 812.459900 -0.838079 -381.294922
v 768.114502 22.554115 -422.780060
v 792.232910 15.508022 -412.528503
v 808.818909 7.097515 -393.096741
v 799.144775 2.521889 -397.720398
v 782.702209 -1.398614 -387.230774
v 775.996094 15.192444 -406.648834
v 773.412964 15.717687 -398.856323
v 763.495911 10.785958 -399.841461
v 943.933289 17.490604 -381.423706
v 888.422302 -11.130212 -551.463196
v 945.394409 -17.157883 -550.637756
v 814.110046 1.762390 -529.754517
v 777.499390 9.693664 -535.751099
v 768.190857 14.623117 -554.758545
v 944.007019 17.584713 -381.250000
v 943.782593 17.560520 -381.250000
v 944.315002 17.631405 -381.250000
v 952.717957 18.874205 -381.250000
v 953.125000 6.788101 -401.785767
v 953.125000 18.788040 -381.250000
v 936.317017 16.887175 -381.250000
v 919.534058 14.877796 -381.250000
v 916.288513 13.454843 -381.250000
v 874.116577 -1.103523 -381.250000
v 870.476868 -2.219003 -381.250000
v 953.125000 -18.656687 -476.192230
v 953.125000 -12.981174 -461.801270
v 953.125000 -22.312672 -492.639374
v 953.125000 -23.568583 -505.973389
v 953.125000 -7.946557 -449.040924
v 953.125000 5.496173 -406.075806
v 953.125000 -23.802343 -522.146240
v 953.125000 -16.641254 -553.386719
v 953.125000 -19.417204 -543.169312
v 920.719604 -7.368263 -571.875000
v 916.786255 -6.737371 -571.875000
v 953.125000 -11.666080 -564.950928
v 953.125000 -8.839593 -571.875000
v 911.608765 -6.449720 -571.875000
v 886.238403 -7.985294 -571.875000
v 863.079712 -3.078453 -571.875000
v 819.530884 1.532619 -571.875000
v 852.357422 -4.866741 -381.250000
v 816.558838 0.561392 -381.250000
v 838.592346 -1.188926 -381.250000
v 812.467896 -0.849273 -381.250000
v 812.292053 -0.918180 -381.250000
v 800.929810 -4.039317 -381.250000
v 798.590942 -5.675607 -381.250000
v 792.442444 -5.178713 -381.250000
v 781.474365 -4.328179 -381.250000
v 778.694336 -1.608648 -381.250000
v 776.497070 -2.956282 -381.250000
v 762.500000 -1.724780 -381.250000
v 762.500000 9.063285 -397.169983
v 762.500000 12.061545 -401.377838
v 762.500000 19.681210 -411.115143
v 762.500000 22.471714 -419.075836
v 762.500000 22.641651 -423.355103
v 762.500000 24.610090 -429.139069
v 762.500000 23.656591 -449.937836
v 762.500000 17.960157 -474.871429
v 762.500000 19.520700 -463.254150
v 762.500000 16.411152 -485.075531
v 762.500000 11.914569 -503.005371
v 762.500000 11.569587 -511.511688
v 762.500000 13.112063 -499.505768
v 762.500000 11.751225 -515.042053
v 762.500000 17.100416 -542.773621
v 788.859985 12.829287 -571.875000
v 788.653687 12.869003 -571.875000
v 762.500000 17.303560 -551.713989
v 788.454895 12.911682 -571.875000
v 762.500000 11.344517 -400.039154
v 762.500000 15.212068 -487.795074
v 762.500000 22.825182 -571.875000
v 762.500000 18.736456 -560.265991
vt 0.016486 0.402362
vt 0.012210 0.431255
vt 0.011165 0.430809
vt 0.019599 0.398978
vt 0.019854 0.430546
vt 0.001067 0.331273
vt 0.036327 0.367211
vt 0.072186 0.364666
vt 0.067297 0.397698
vt 0.036216 0.422242
vt 0.047488 0.430656
vt 0.103087 0.421385
vt 0.125753 0.397296
vt 0.123818 0.352336
vt 0.028900 0.309403
vt 0.106875 0.333204
vt 0.014449 0.302250
vt 0.033896 0.256646
vt 0.056344 0.267391
vt 0.027368 0.244841
vt 0.024305 0.248189
vt 0.046887 0.244323
vt 0.069756 0.287057
vt 0.107262 0.298031
vt 0.126925 0.394765
vt 0.127188 0.398178
vt 0.125968 0.349530
vt 0.125403 0.352890
vt 0.129042 0.317975
vt 0.129014 0.298013
vt 0.126726 0.293256
vt 0.084590 0.250473
vt 0.097565 0.272826
vt 0.116481 0.290472
vt 0.126775 0.293110
vt 0.112094 0.280872
vt 0.127436 0.283336
vt 0.126615 0.274673
vt 0.119756 0.264268
vt 0.126279 0.262454
vt 0.102783 0.256935
vt 0.099176 0.244397
vt 0.109711 0.255333
vt 0.126907 0.259487
vt 0.127200 0.257186
vt 0.110035 0.245028
vt 0.112703 0.244099
vt 0.127306 0.413103
vt 0.126930 0.421575
vt 0.127117 0.421647
vt 0.127096 0.421952
vt 0.127014 0.429924
vt 0.107854 0.430056
vt 0.104372 0.432156
vt 0.033693 0.429711
vt 0.036327 0.367211
vt 0.057075 0.391555
vt 0.055264 0.365867
vt 0.057190 0.400368
vt 0.057387 0.396790
vt 0.029663 0.430053
vt 0.036216 0.422242
vt 0.039196 0.430415
vt 0.051440 0.430030
vt 0.054738 0.345804
vt 0.025797 0.259588
vt 0.057045 0.269095
vt 0.057078 0.268858
vt 0.040874 0.249173
vt 0.030610 0.244161
vt 0.058263 0.244156
vt 0.046648 0.243915
vt 0.057060 0.268657
vt 0.079193 0.244938
vt 0.084564 0.245299
vt 0.009732 0.244140
vt 0.004032 0.244666
vt 0.034957 0.244363
vt 0.037989 0.243647
vt 0.013949 0.244554
vt 0.025183 0.244780
vt 0.109732 0.244123
vt 0.057596 0.300835
vt 0.060429 0.244859
vt 0.127104 0.421424
vt 0.007525 0.244328
vt 0.108601 0.244135
vt 0.089706 0.244903
vt 0.128864 0.330743
vt 0.126774 0.293267
vt 0.060131 0.431609
vt 0.127416 0.281064
vt 0.128184 0.244111
vt 0.127071 0.430413
vt 0.058637 0.430339
vn 0.1317 0.9846 0.1149
vn 0.1255 0.9911 -0.0448
vn 0.1166 0.9899 0.0798
vn 0.1348 0.9825 -0.1286
vn 0.1085 0.9819 -0.1553
vn 0.2058 0.9785 0.0124
vn 0.1171 0.9814 -0.1521
vn -0.0156 0.9915 -0.1286
vn -0.0050 0.9697 -0.2442
vn 0.0947 0.9508 -0.2948
vn 0.0462 0.9292 -0.3666
vn 0.0175 0.9378 -0.3466
vn -0.2160 0.9291 -0.3001
vn -0.2250 0.9716 -0.0733
vn 0.2069 0.9768 -0.0550
vn 0.1116 0.9937 0.0110
vn 0.2122 0.9764 0.0385
vn 0.3121 0.9379 -0.1515
vn 0.3262 0.9376 -0.1205
vn 0.4216 0.8866 -0.1901
vn 0.4719 0.8537 -0.2202
vn 0.3807 0.8937 -0.2373
vn 0.2994 0.9526 -0.0527
vn 0.1718 0.9788 0.1112
vn -0.3362 0.9304 -0.1456
vn -0.1912 0.9016 -0.3879
vn -0.1717 0.9838 0.0506
vn -0.3125 0.9410 -0.1296
vn 0.2101 0.9601 0.1845
vn -0.1290 0.9452 0.2998
vn -0.2426 0.8887 0.3891
vn 0.2235 0.9660 0.1298
vn 0.2489 0.9409 0.2296
vn -0.0950 0.9587 0.2679
vn -0.2259 0.7915 0.5678
vn -0.0986 0.8707 0.4817
vn -0.4498 0.7805 0.4342
vn 0.0715 0.8916 0.4471
vn 0.3559 0.7968 0.4883
vn 0.3628 0.8053 0.4689
vn 0.1810 0.8987 0.3994
vn 0.1502 0.8867 0.4371
vn 0.0926 0.9427 0.3204
vn 0.2217 0.7274 0.6493
vn -0.2134 0.7083 0.6728
vn 0.0308 0.8185 0.5737
vn 0.0960 0.8198 0.5644
vn -0.0964 0.8946 -0.4363
vn -0.1058 0.8949 -0.4335
vn -0.1210 0.8934 -0.4326
vn -0.1324 0.8921 -0.4321
vn 0.0478 0.8784 -0.4754
vn 0.1371 0.8926 -0.4294
vn 0.0528 0.9554 -0.2904
vn 0.0856 0.9580 -0.2735
vn 0.1268 0.9797 0.1549
vn 0.0271 0.9672 0.2526
vn 0.0833 0.9862 0.1430
vn 0.1273 0.9487 0.2894
vn 0.0970 0.9572 0.2724
vn 0.0736 0.9731 0.2181
vn 0.0832 0.9539 0.2883
vn 0.0594 0.9373 0.3433
vn 0.0475 0.9237 0.3801
vn 0.1833 0.9778 0.1007
vn 0.2622 0.9589 0.1085
vn 0.2383 0.9648 0.1107
vn 0.1956 0.9698 0.1456
vn 0.3567 0.9202 0.1610
vn 0.4125 0.9077 0.0762
vn 0.3389 0.8874 0.3125
vn 0.3775 0.8854 0.2711
vn 0.2394 0.9525 0.1882
vn 0.3014 0.9525 0.0418
vn -0.0044 0.9814 0.1921
vn 0.2546 0.9638 -0.0793
vn 0.1852 0.9827 -0.0043
vn 0.4773 0.8699 -0.1239
vn 0.4542 0.8884 0.0669
vn 0.5811 0.7748 -0.2489
vn 0.2283 0.9217 -0.3135
vn 0.3474 0.7953 0.4968
vn 0.2174 0.9758 0.0226
vn 0.3699 0.9173 -0.1472
vn -0.0855 0.8964 -0.4349
vn 0.2398 0.9677 0.0775
vn 0.1084 0.7982 0.5925
vn 0.1422 0.9611 0.2369
vn 0.0720 0.9900 0.1210
vn -0.3305 0.9003 0.2833
vn 0.0529 0.9400 -0.3371
vn -0.2121 0.8777 0.4297
vn 0.0726 0.8256 0.5595
vn 0.1798 0.8492 -0.4964
vn 0.0420 0.9250 0.3776
s 1
f 2/1/1 47/2/2 50/3/3
f 1/4/4 46/5/5 47/2/2
f 2/1/1 3/6/6 1/4/4
f 3/6/6 4/7/7 1/4/4
f 4/7/7 5/8/8 7/9/9
f 4/7/7 7/9/9 1/4/4
f 1/4/4 7/9/9 6/10/10
f 6/10/10 46/5/5 1/4/4
f 7/9/9 45/11/11 6/10/10
f 5/8/8 8/12/12 7/9/9
f 9/13/13 8/12/12 5/8/8
f 5/8/8 10/14/14 9/13/13
f 11/15/15 16/16/16 5/8/8
f 11/15/15 5/8/8 4/7/7
f 11/15/15 4/7/7 3/6/6
f 30/17/17 11/15/15 3/6/6
f 30/17/17 12/18/18 11/15/15
f 13/19/19 11/15/15 12/18/18
f 82/20/20 12/18/18 14/21/21
f 81/22/22 13/19/19 12/18/18
f 13/19/19 15/23/23 11/15/15
f 15/23/23 16/16/16 11/15/15
f 5/8/8 16/16/16 10/14/14
f 15/23/23 17/24/24 16/16/16
f 9/13/13 41/25/25 40/26/26
f 10/14/14 41/25/25 9/13/13
f 10/14/14 43/27/27 42/28/28
f 63/29/29 16/16/16 17/24/24
f 17/24/24 62/30/30 63/29/29
f 18/31/31 62/30/30 17/24/24
f 19/32/32 15/23/23 13/19/19
f 19/32/32 20/33/33 15/23/23
f 15/23/23 20/33/33 17/24/24
f 21/34/34 18/31/31 17/24/24
f 21/34/34 65/35/35 18/31/31
f 22/36/36 66/37/37 21/34/34
f 68/38/38 22/36/36 23/39/39
f 23/39/39 69/40/40 68/38/38
f 24/41/41 23/39/39 22/36/36
f 24/41/41 22/36/36 20/33/33
f 22/36/36 21/34/34 17/24/24
f 20/33/33 22/36/36 17/24/24
f 19/32/32 24/41/41 20/33/33
f 19/32/32 75/42/42 24/41/41
f 25/43/43 23/39/39 24/41/41
f 70/44/44 23/39/39 25/43/43
f 71/45/45 25/43/43 26/46/46
f 24/41/41 26/46/46 25/43/43
f 73/47/47 71/45/45 26/46/46
f 9/13/13 39/48/48 8/12/12
f 39/48/48 27/49/49 8/12/12
f 27/49/49 33/50/50 35/51/51
f 27/49/49 36/52/52 8/12/12
f 36/52/52 37/53/53 8/12/12
f 8/12/12 49/54/54 7/9/9
f 6/10/10 45/11/11 44/55/55
f 3/6/6 2/1/1 28/56/56
f 2/1/1 57/57/57 28/56/56
f 28/56/56 57/57/57 58/58/58
f 2/1/1 53/59/59 54/60/60
f 2/1/1 52/61/61 29/62/62
f 29/62/62 51/63/63 55/64/64
f 55/64/64 53/59/59 29/62/62
f 28/56/56 59/65/65 30/17/17
f 3/6/6 28/56/56 30/17/17
f 31/66/66 88/67/67 89/68/68
f 32/69/69 87/70/70 31/66/66
f 32/69/69 94/71/71 95/72/72
f 31/66/66 91/73/73 32/69/69
f 78/74/74 77/75/75 19/32/32
f 83/76/76 30/17/17 84/77/77
f 80/78/78 81/22/22 12/18/18
f 95/72/72 90/79/79 32/69/69
f 85/80/80 93/81/81 14/21/21
f 92/82/82 73/47/47 26/46/46
f 60/83/83 88/67/67 30/17/17
f 52/61/61 51/63/63 29/62/62
f 59/65/65 60/83/83 30/17/17
f 78/74/74 13/19/19 79/84/84
f 34/85/85 33/50/50 27/49/49
f 83/76/76 14/21/21 12/18/18
f 84/77/77 31/66/66 86/86/86
f 74/87/87 92/82/82 26/46/46
f 77/75/75 76/88/88 19/32/32
f 74/87/87 24/41/41 75/42/42
f 87/70/70 86/86/86 31/66/66
f 43/27/27 16/16/16 61/89/89
f 65/35/35 64/90/90 18/31/31
f 93/81/81 82/20/20 14/21/21
f 49/54/54 48/91/91 7/9/9
f 2/1/1 1/4/4 47/2/2
f 6/10/10 44/55/55 46/5/5
f 7/9/9 48/91/91 45/11/11
f 82/20/20 80/78/78 12/18/18
f 81/22/22 79/84/84 13/19/19
f 10/14/14 42/28/28 41/25/25
f 63/29/29 61/89/89 16/16/16
f 18/31/31 64/90/90 62/30/30
f 21/34/34 66/37/37 65/35/35
f 22/36/36 67/92/92 66/37/37
f 68/38/38 67/92/92 22/36/36
f 19/32/32 76/88/88 75/42/42
f 70/44/44 69/40/40 23/39/39
f 71/45/45 70/44/44 25/43/43
f 73/47/47 72/93/93 71/45/45
f 9/13/13 40/26/26 39/48/48
f 39/48/48 34/85/85 27/49/49
f 27/49/49 35/51/51 36/52/52
f 36/52/52 38/94/94 37/53/53
f 8/12/12 37/53/53 49/54/54
f 2/1/1 54/60/60 57/57/57
f 2/1/1 29/62/62 53/59/59
f 2/1/1 50/3/3 52/61/61
f 55/64/64 56/95/95 53/59/59
f 28/56/56 58/58/58 59/65/65
f 31/66/66 30/17/17 88/67/67
f 32/69/69 90/79/79 87/70/70
f 32/69/69 91/73/73 94/71/71
f 31/66/66 89/68/68 91/73/73
f 83/76/76 12/18/18 30/17/17
f 78/74/74 19/32/32 13/19/19
f 83/76/76 85/80/80 14/21/21
f 84/77/77 30/17/17 31/66/66
f 74/87/87 26/46/46 24/41/41
f 43/27/27 10/14/14 16/16/16
