# Blender v2.82 (sub 7) OBJ File: 'LODTerrain.blend'
# www.blender.org
o lod_1_234_Cube.234
v 384.721741 -16.435701 1279.012939
v 419.824707 -33.680706 1313.750610
v 387.807678 17.722023 1193.235596
v 384.723083 31.311937 1206.969360
v 392.746826 23.626925 1201.030151
v 412.739197 1.000281 1161.221924
v 402.357605 -20.398655 1277.905151
v 393.739258 -9.476581 1271.123535
v 401.987183 -16.621525 1266.584106
v 386.243652 -8.109643 1266.250244
v 388.025116 1.258378 1245.817627
v 395.768311 -4.752214 1258.981201
v 382.768982 31.343328 1215.437866
v 386.181152 24.580465 1221.764526
v 402.211548 10.811361 1203.102661
v 402.122681 7.470315 1222.661743
v 382.893066 16.107662 1230.399658
v 396.735626 -3.455991 1251.938232
v 397.701019 10.736950 1235.620605
v 402.073792 4.291120 1232.490112
v 415.342621 -5.227618 1246.990601
v 404.630066 13.991707 1189.401611
v 405.453613 9.251726 1183.031616
v 412.757385 10.579020 1194.032593
v 419.529480 3.785034 1186.552856
v 424.054382 -6.589621 1160.319824
v 425.604126 0.028471 1172.029297
v 408.425537 -1.125787 1150.842285
v 397.614929 8.065441 1146.746216
v 384.145508 19.195381 1146.353271
v 450.539673 -20.285437 1150.444702
v 445.718567 -16.117800 1152.540894
v 432.100952 -4.427312 1165.640381
v 442.363647 -12.446997 1167.197266
v 457.845276 -16.789156 1166.579712
v 457.043518 -11.686163 1195.497559
v 426.985107 2.381733 1207.340454
v 431.020752 -9.814730 1247.058105
v 460.966888 -15.195824 1220.388794
v 466.909515 -20.226620 1261.199219
v 505.173462 -22.130150 1240.772583
v 492.476593 -23.854923 1180.839478
v 512.000122 -22.422768 1211.526367
v 459.127136 -38.118671 1307.903809
v 445.808960 -18.165604 1264.422607
v 427.451752 -13.874517 1254.883667
v 418.183411 -15.849464 1262.463745
v 411.199280 -2.173323 1254.625610
v 405.175842 3.808200 1246.117920
v 561.455627 -16.298460 1227.901123
v 548.383423 -22.415501 1263.107178
v 526.165466 -22.194786 1200.756348
v 562.625061 -14.650177 1183.715332
v 543.770691 -27.886423 1154.337280
v 508.913147 -32.022907 1279.972778
v 559.562073 -38.354336 1308.045776
v 571.875000 -14.155436 1234.233032
v 571.875000 -10.824911 1221.876587
v 571.875000 -9.550825 1204.892944
v 571.875000 -19.066162 1264.143921
v 571.875000 -15.777857 1254.653076
v 571.875000 -21.023081 1148.527954
v 571.875000 -22.044600 1143.750000
v 567.923950 -22.861492 1143.750000
v 571.875000 -9.030874 1201.671265
v 571.875000 -9.430384 1199.269043
v 571.875000 -13.073923 1170.837158
v 571.875000 -13.283257 1169.675415
v 571.875000 -20.691328 1150.652710
v 541.185425 -30.254255 1143.750000
v 512.083008 -32.480587 1143.750000
v 511.824524 -32.463211 1143.750000
v 512.978149 -32.397953 1143.750000
v 478.831268 -29.208078 1143.750000
v 467.737274 -25.763453 1143.750000
v 458.099915 -23.844748 1143.750000
v 451.889832 -21.995884 1143.750000
v 442.881592 -17.638016 1143.750000
v 439.477356 -15.281786 1143.750000
v 430.741730 -11.982512 1143.750000
v 420.524689 -7.492925 1143.750000
v 404.682343 -1.616906 1143.750000
v 381.250000 0.827314 1245.213989
v 381.250000 -5.801052 1259.961914
v 381.250000 -7.643543 1266.421875
v 381.250000 10.208130 1235.889893
v 381.250000 16.414909 1229.815552
v 381.250000 28.322744 1218.138428
v 381.250000 22.026407 1194.105713
v 381.250000 31.280935 1204.767944
v 381.250000 34.046474 1206.670532
v 381.250000 32.848122 1213.537476
v 381.250000 16.792713 1181.146729
v 381.250000 15.487455 1176.121948
v 381.250000 20.817999 1188.734131
v 381.250000 15.183620 1175.203857
v 381.250000 13.077715 1154.106445
v 381.250000 13.413309 1153.595215
v 400.842682 2.589492 1143.750000
v 381.250000 15.914566 1151.353516
v 381.250000 23.419924 1145.097168
v 394.189819 8.263247 1143.750000
v 385.452759 15.557625 1143.750000
v 381.250000 22.684633 1143.750000
v 571.875000 -38.162518 1327.192993
v 571.875000 -37.064453 1309.620239
v 554.617432 -40.557060 1334.375000
v 531.143494 -43.203709 1334.375000
v 571.875000 -38.769661 1334.375000
v 571.875000 -25.010468 1279.212646
v 511.241211 -42.918293 1334.375000
v 490.787476 -43.119652 1334.375000
v 469.382751 -40.557037 1334.375000
v 441.943359 -37.715118 1334.375000
v 414.072784 -33.188343 1334.375000
v 385.490448 -30.503391 1334.375000
v 381.250000 -29.911400 1334.375000
v 381.250000 -28.820061 1320.448853
v 381.250000 -19.748911 1298.728882
v 381.250000 -17.463331 1288.185547
v 381.250000 -14.639521 1276.922607
vt 0.214642 0.090124
vt 0.193335 0.121343
vt 0.195759 0.095878
vt 0.230094 0.127028
vt 0.208253 0.128088
vt 0.240133 0.127249
vt 0.248763 0.124149
vt 0.250952 0.127467
vt 0.261364 0.122289
vt 0.332620 0.121000
vt 0.336151 0.127161
vt 0.331360 0.127101
vt 0.319160 0.123879
vt 0.321064 0.127108
vt 0.319437 0.127478
vt 0.310853 0.126285
vt 0.324499 0.116415
vt 0.344252 0.128228
vt 0.250607 0.107340
vt 0.255436 0.115322
vt 0.261804 0.107378
vt 0.267648 0.127395
vt 0.261362 0.127156
vt 0.268633 0.113472
vt 0.312708 0.127781
vt 0.308196 0.127801
vt 0.295703 0.124491
vt 0.296377 0.126517
vt 0.304128 0.122678
vt 0.323358 0.107838
vt 0.291418 0.128229
vt 0.282502 0.121995
vt 0.282853 0.128388
vt 0.275519 0.112351
vt 0.290860 0.111839
vt 0.304564 0.107023
vt 0.294226 0.107246
vt 0.316596 0.080941
vt 0.280426 0.094755
vt 0.336020 0.104713
vt 0.343361 0.104583
vt 0.364546 0.097452
vt 0.333231 0.096665
vt 0.339671 0.090725
vt 0.363841 0.085757
vt 0.353174 0.084184
vt 0.360469 0.078328
vt 0.375124 0.101497
vt 0.350097 0.128467
vt 0.349159 0.128482
vt 0.378094 0.111819
vt 0.372039 0.126521
vt 0.379375 0.124372
vt 0.372437 0.126556
vt 0.381899 0.128343
vt 0.380617 0.128046
vt 0.381923 0.114473
vt 0.381525 0.108237
vt 0.380905 0.089804
vt 0.381959 0.104398
vt 0.374755 0.059707
vt 0.380191 0.051500
vt 0.381243 0.058356
vt 0.380531 0.067610
vt 0.371102 0.065743
vt 0.379761 0.079726
vt 0.358799 0.068747
vt 0.354327 0.053269
vt 0.332267 0.052696
vt 0.280623 0.078277
vt 0.303233 0.049604
vt 0.265271 0.044382
vt 0.287200 0.009450
vt 0.343895 0.016927
vt 0.314184 0.010087
vt 0.326512 0.017632
vt 0.379840 0.006729
vt 0.250805 0.008140
vt 0.198345 0.026590
vt 0.222797 0.044558
vt 0.222094 0.048922
vt 0.260591 0.063338
vt 0.272606 0.082674
vt 0.265471 0.091635
vt 0.273330 0.099165
vt 0.281290 0.104693
vt 0.379829 0.006757
vt 0.378512 0.029741
vt 0.297455 0.045991
vt 0.303063 0.056232
vt 0.321997 0.058241
vt 0.291891 0.056662
vt 0.275335 0.059390
vt 0.325437 0.058644
vt 0.343897 0.044890
vt 0.370118 0.030755
vt 0.379846 0.007406
vt 0.269448 0.038367
vt 0.220546 0.057134
vt 0.247777 0.056971
vt 0.262468 0.058047
vt 0.356782 0.059206
vt 0.327903 0.057907
vt 0.355730 0.058904
vt 0.193920 0.068645
vt 0.197024 0.049458
vt 0.380169 0.028323
vt 0.376540 0.058179
vt 0.381229 0.058132
vt 0.380991 0.054369
vt 0.197024 0.049458
vt 0.195072 0.061525
vt 0.203159 0.063619
vt 0.381831 0.123414
vt 0.198010 0.028302
vt 0.374644 0.126713
vt 0.374507 0.058161
vt 0.379661 0.071623
vt 0.198821 0.012926
vt 0.377426 0.041602
vt 0.193417 0.125645
vn 0.1418 0.9727 0.1839
vn 0.1303 0.9893 0.0645
vn 0.1212 0.9926 0.0101
vn 0.2330 0.9347 0.2684
vn 0.1592 0.9628 0.2182
vn 0.2701 0.9402 0.2076
vn 0.2040 0.8917 0.4039
vn 0.1722 0.8701 0.4617
vn 0.0956 0.8985 0.4283
vn 0.2944 0.8302 -0.4734
vn 0.5707 0.7612 -0.3079
vn 0.4470 0.7722 -0.4514
vn 0.6188 0.7576 -0.2077
vn 0.4126 0.6279 -0.6598
vn 0.6095 0.7444 -0.2724
vn 0.3558 0.7909 0.4979
vn 0.5489 0.8021 -0.2351
vn 0.3697 0.8894 -0.2689
vn 0.2187 0.9091 0.3545
vn 0.3246 0.9197 0.2209
vn 0.3158 0.8369 0.4470
vn -0.0548 0.9224 0.3822
vn 0.0986 0.9037 0.4166
vn 0.3300 0.8731 0.3588
vn 0.4939 0.8292 0.2618
vn -0.1273 0.6959 0.7067
vn -0.0572 0.7053 0.7065
vn -0.1220 0.6946 0.7089
vn 0.4340 0.7491 0.5004
vn 0.5418 0.8093 0.2266
vn -0.1201 0.6952 0.7087
vn -0.0300 0.8104 0.5851
vn -0.1026 0.8155 0.5695
vn 0.0231 0.8295 0.5580
vn 0.4389 0.8075 0.3941
vn 0.5584 0.8102 0.1781
vn 0.6514 0.7542 0.0833
vn 0.3817 0.9102 0.1605
vn 0.4948 0.8245 0.2743
vn 0.3060 0.9124 -0.2717
vn 0.1820 0.8798 -0.4391
vn 0.4364 0.8615 -0.2593
vn 0.3798 0.9250 0.0089
vn 0.3697 0.8679 -0.3318
vn 0.3138 0.8877 -0.3370
vn 0.3878 0.8898 -0.2406
vn 0.3978 0.8770 -0.2693
vn 0.4414 0.8698 -0.2203
vn 0.3266 0.9124 -0.2464
vn 0.2991 0.9180 -0.2604
vn 0.6094 0.7914 -0.0479
vn 0.4725 0.8555 0.2116
vn 0.7283 0.6487 0.2207
vn 0.4612 0.6772 0.5733
vn 0.8301 0.4895 -0.2672
vn 0.8176 0.5740 0.0458
vn 0.5322 0.6250 -0.5710
vn 0.6548 0.6214 -0.4302
vn 0.3894 0.9085 -0.1512
vn 0.5622 0.7499 -0.3486
vn 0.3644 0.9007 -0.2365
vn 0.2080 0.9414 -0.2656
vn 0.3439 0.9241 -0.1667
vn 0.5188 0.8101 -0.2730
vn 0.5326 0.8266 -0.1818
vn 0.3666 0.9181 -0.1508
vn 0.4184 0.8722 -0.2534
vn 0.2814 0.9261 -0.2510
vn 0.3900 0.9204 -0.0279
vn 0.2295 0.9150 0.3317
vn 0.2727 0.9587 0.0801
vn 0.1491 0.9568 0.2498
vn 0.0316 0.9928 0.1157
vn 0.1519 0.9774 -0.1467
vn 0.0009 0.9988 -0.0481
vn -0.1205 0.9878 -0.0986
vn -0.0004 0.9841 -0.1775
vn 0.0066 0.9642 0.2651
vn -0.0159 0.9862 0.1645
vn -0.0925 0.9709 0.2207
vn 0.1021 0.9702 0.2199
vn 0.1118 0.9295 0.3515
vn 0.1137 0.8882 0.4452
vn 0.1798 0.8610 0.4757
vn 0.3763 0.7708 0.5140
vn 0.2749 0.8766 0.3950
vn 0.0764 0.9793 -0.1874
vn 0.2126 0.9530 -0.2158
vn -0.2406 0.9639 0.1136
vn -0.4036 0.9063 0.1254
vn -0.2996 0.9436 0.1410
vn -0.2780 0.9509 0.1356
vn -0.2102 0.9625 0.1714
vn -0.2767 0.9609 -0.0004
vn -0.3168 0.9344 -0.1628
vn -0.2078 0.9591 -0.1923
vn -0.0890 0.9831 -0.1599
vn -0.1254 0.9586 0.2555
vn -0.1280 0.9700 0.2064
vn -0.1467 0.9201 0.3632
vn -0.1474 0.9275 0.3433
vn -0.3504 0.9095 -0.2239
vn -0.2803 0.9479 -0.1514
vn -0.3713 0.9155 -0.1546
vn 0.1163 0.9908 0.0690
vn 0.1167 0.9919 0.0501
vn -0.1534 0.9716 -0.1798
vn -0.2496 0.9549 -0.1610
vn -0.1982 0.9585 -0.2049
vn -0.2459 0.9553 -0.1641
vn -0.1107 0.9917 0.0647
vn -0.1026 0.9912 0.0838
vn -0.1084 0.9916 0.0701
vn 0.5893 0.5994 -0.5416
vn 0.0188 0.9863 0.1638
vn 0.4762 0.5830 0.6583
vn -0.2705 0.9306 -0.2466
vn 0.4140 0.8858 -0.2097
vn 0.0025 0.9805 0.1963
vn 0.2525 0.9328 -0.2572
vn 0.1378 0.9874 0.0774
s 1
f 2/1/1 116/2/2 115/3/3
f 2/1/1 119/4/4 118/5/5
f 2/1/1 120/6/6 119/4/4
f 1/7/7 121/8/8 120/6/6
f 10/9/9 121/8/8 1/7/7
f 3/10/10 95/11/11 89/12/12
f 4/13/13 90/14/14 91/15/15
f 3/10/10 90/14/14 4/13/13
f 13/16/16 5/17/17 4/13/13
f 5/17/17 3/10/10 4/13/13
f 3/10/10 93/18/18 95/11/11
f 2/1/1 7/19/19 1/7/7
f 8/20/20 7/19/19 9/21/21
f 7/19/19 8/20/20 1/7/7
f 8/20/20 10/9/9 1/7/7
f 9/21/21 10/9/9 8/20/20
f 10/9/9 84/22/22 85/23/23
f 9/21/21 12/24/24 10/9/9
f 13/16/16 92/25/25 88/26/26
f 4/13/13 92/25/25 13/16/16
f 17/27/27 88/26/26 87/28/28
f 14/29/29 5/17/17 13/16/16
f 14/29/29 15/30/30 5/17/17
f 14/29/29 13/16/16 17/27/27
f 17/27/27 86/31/31 11/32/32
f 11/32/32 86/31/31 83/33/33
f 11/32/32 84/22/22 10/9/9
f 18/34/34 11/32/32 10/9/9
f 12/24/24 18/34/34 10/9/9
f 18/34/34 19/35/35 11/32/32
f 19/35/35 17/27/27 11/32/32
f 19/35/35 14/29/29 17/27/27
f 19/35/35 16/36/36 14/29/29
f 20/37/37 16/36/36 19/35/35
f 16/36/36 15/30/30 14/29/29
f 37/38/38 15/30/30 16/36/36
f 21/39/39 16/36/36 20/37/37
f 22/40/40 3/10/10 5/17/17
f 15/30/30 22/40/40 5/17/17
f 22/40/40 23/41/41 3/10/10
f 3/10/10 23/41/41 6/42/42
f 24/43/43 22/40/40 15/30/30
f 15/30/30 37/38/38 24/43/43
f 24/43/43 25/44/44 22/40/40
f 23/41/41 26/45/45 6/42/42
f 27/46/46 23/41/41 22/40/40
f 25/44/44 27/46/46 22/40/40
f 27/46/46 26/45/45 23/41/41
f 27/46/46 33/47/47 26/45/45
f 26/45/45 28/48/48 6/42/42
f 6/42/42 96/49/49 94/50/50
f 29/51/51 97/52/52 28/48/48
f 30/53/53 98/54/54 29/51/51
f 30/53/53 104/55/55 101/56/56
f 29/51/51 102/57/57 30/53/53
f 28/48/48 99/58/58 29/51/51
f 28/48/48 81/59/59 82/60/60
f 31/61/61 76/62/62 77/63/63
f 78/64/64 32/65/65 31/61/61
f 26/45/45 81/59/59 28/48/48
f 32/65/65 80/66/66 26/45/45
f 33/47/47 32/65/65 26/45/45
f 34/67/67 32/65/65 33/47/47
f 34/67/67 33/47/47 27/46/46
f 25/44/44 34/67/67 27/46/46
f 35/68/68 34/67/67 25/44/44
f 35/68/68 25/44/44 24/43/43
f 36/69/69 35/68/68 24/43/43
f 36/69/69 24/43/43 37/38/38
f 38/70/70 37/38/38 16/36/36
f 38/70/70 16/36/36 21/39/39
f 39/71/71 36/69/69 37/38/38
f 39/71/71 37/38/38 38/70/70
f 39/71/71 38/70/70 40/72/72
f 41/73/73 39/71/71 40/72/72
f 42/74/74 36/69/69 39/71/71
f 43/75/75 42/74/74 39/71/71
f 52/76/76 42/74/74 43/75/75
f 71/77/77 42/74/74 52/76/76
f 41/73/73 43/75/75 39/71/71
f 55/78/78 41/73/73 40/72/72
f 55/78/78 108/79/79 56/80/80
f 44/81/81 55/78/78 40/72/72
f 44/81/81 45/82/82 2/1/1
f 44/81/81 40/72/72 45/82/82
f 40/72/72 38/70/70 45/82/82
f 46/83/83 38/70/70 21/39/39
f 45/82/82 38/70/70 46/83/83
f 47/84/84 46/83/83 21/39/39
f 47/84/84 21/39/39 48/85/85
f 46/83/83 47/84/84 45/82/82
f 2/1/1 45/82/82 7/19/19
f 45/82/82 47/84/84 7/19/19
f 7/19/19 47/84/84 9/21/21
f 47/84/84 48/85/85 9/21/21
f 9/21/21 48/85/85 18/34/34
f 9/21/21 18/34/34 12/24/24
f 48/85/85 49/86/86 18/34/34
f 49/86/86 19/35/35 18/34/34
f 49/86/86 21/39/39 19/35/35
f 21/39/39 20/37/37 19/35/35
f 48/85/85 21/39/39 49/86/86
f 42/74/74 72/87/87 74/88/88
f 74/88/88 35/68/68 42/74/74
f 42/74/74 35/68/68 36/69/69
f 35/68/68 31/61/61 34/67/67
f 34/67/67 31/61/61 32/65/65
f 35/68/68 76/62/62 31/61/61
f 50/89/89 58/90/90 59/91/91
f 50/89/89 57/92/92 58/90/90
f 50/89/89 61/93/93 57/92/92
f 52/76/76 59/91/91 65/94/94
f 65/94/94 53/95/95 52/76/76
f 52/76/76 53/95/95 54/96/96
f 52/76/76 73/97/97 71/77/77
f 43/75/75 50/89/89 52/76/76
f 41/73/73 50/89/89 43/75/75
f 51/98/98 50/89/89 41/73/73
f 55/78/78 51/98/98 41/73/73
f 56/80/80 51/98/98 55/78/78
f 56/80/80 106/99/99 110/100/100
f 110/100/100 51/98/98 56/80/80
f 51/98/98 60/101/101 61/93/93
f 53/95/95 68/102/102 54/96/96
f 53/95/95 66/103/103 67/104/104
f 114/105/105 113/106/106 2/1/1
f 97/52/52 96/49/49 28/48/48
f 70/107/107 73/97/97 54/96/96
f 62/108/108 63/109/109 64/110/110
f 113/106/106 44/81/81 2/1/1
f 115/3/3 114/105/105 2/1/1
f 107/111/111 109/112/112 105/113/113
f 94/50/50 3/10/10 6/42/42
f 118/5/5 116/2/2 2/1/1
f 77/63/63 78/64/64 31/61/61
f 102/57/57 103/114/114 30/53/53
f 112/115/115 55/78/78 44/81/81
f 105/113/113 106/99/99 56/80/80
f 101/56/56 100/116/116 30/53/53
f 68/102/102 69/117/117 54/96/96
f 69/117/117 64/110/110 54/96/96
f 2/1/1 1/7/7 120/6/6
f 10/9/9 85/23/23 121/8/8
f 3/10/10 89/12/12 90/14/14
f 4/13/13 91/15/15 92/25/25
f 17/27/27 13/16/16 88/26/26
f 17/27/27 87/28/28 86/31/31
f 11/32/32 83/33/33 84/22/22
f 6/42/42 28/48/48 96/49/49
f 29/51/51 98/54/54 97/52/52
f 30/53/53 100/116/116 98/54/54
f 30/53/53 103/114/114 104/55/55
f 29/51/51 99/58/58 102/57/57
f 28/48/48 82/60/60 99/58/58
f 78/64/64 79/118/118 32/65/65
f 26/45/45 80/66/66 81/59/59
f 32/65/65 79/118/118 80/66/66
f 71/77/77 72/87/87 42/74/74
f 55/78/78 111/119/119 108/79/79
f 74/88/88 75/120/120 35/68/68
f 35/68/68 75/120/120 76/62/62
f 50/89/89 51/98/98 61/93/93
f 52/76/76 50/89/89 59/91/91
f 65/94/94 66/103/103 53/95/95
f 52/76/76 54/96/96 73/97/97
f 110/100/100 60/101/101 51/98/98
f 53/95/95 67/104/104 68/102/102
f 113/106/106 112/115/115 44/81/81
f 94/50/50 93/18/18 3/10/10
f 118/5/5 117/121/121 116/2/2
f 112/115/115 111/119/119 55/78/78
f 56/80/80 108/79/79 107/111/111
f 107/111/111 105/113/113 56/80/80
f 62/108/108 64/110/110 69/117/117
f 64/110/110 70/107/107 54/96/96
