# Blender v2.82 (sub 7) OBJ File: 'LODTerrain.blend'
# www.blender.org
o lod_1_255_Cube.255
v 1479.430420 -39.546108 1387.996704
v 1439.415649 -24.150043 1344.496704
v 1508.338379 -46.109943 1394.921631
v 1492.172485 -36.411354 1359.435669
v 1522.478882 -51.944889 1441.883789
v 1478.844971 -44.025764 1407.331177
v 1466.889160 -43.833294 1416.118042
v 1511.514038 -52.735500 1451.264404
v 1513.851318 -55.832520 1489.688477
v 1472.481079 -45.884617 1497.781494
v 1435.733032 -33.602058 1515.995239
v 1407.344971 -22.794224 1502.593018
v 1466.634521 -46.835102 1456.562012
v 1442.450195 -39.980652 1433.954712
v 1449.822266 -40.411568 1424.956543
v 1419.428467 -6.075020 1428.235596
v 1422.021362 -19.675850 1418.214844
v 1410.584229 1.723391 1430.036255
v 1418.922607 -25.796827 1444.896362
v 1399.025391 -3.039467 1443.302979
v 1381.000610 29.602156 1452.393311
v 1393.734375 13.154049 1465.099121
v 1416.208740 -29.272018 1460.279907
v 1436.325562 -36.871067 1448.784180
v 1405.859863 -21.886332 1480.069824
v 1395.686646 -16.399162 1479.695557
v 1371.919067 13.604715 1475.557861
v 1383.786621 23.985199 1464.993286
v 1367.277954 42.881981 1461.711914
v 1357.142456 22.364447 1477.862061
v 1351.564087 48.021099 1457.179199
v 1366.923218 0.867089 1496.807129
v 1336.890137 47.669716 1459.652222
v 1339.805664 33.115604 1485.305298
v 1346.203979 53.268456 1441.330933
v 1350.480347 16.027184 1512.872559
v 1350.680542 26.149042 1497.071167
v 1337.529541 54.773994 1414.833862
v 1339.012451 36.182484 1394.139038
v 1350.276611 30.439268 1397.839478
v 1347.555054 44.435925 1413.683838
v 1353.021973 48.179760 1425.700073
v 1362.594360 44.255398 1415.838989
v 1361.677734 26.387604 1401.518311
v 1374.875977 12.166430 1381.220947
v 1386.944824 2.887068 1377.362427
v 1375.802734 26.689756 1401.363159
v 1396.731934 12.296403 1388.381348
v 1402.784790 -3.231283 1373.924072
v 1366.774902 17.687880 1370.361450
v 1378.486572 3.367084 1358.623169
v 1408.295410 -12.381313 1368.174072
v 1343.741211 30.010450 1375.145386
v 1355.516846 23.124838 1358.172852
v 1334.383301 40.559269 1370.760132
v 1340.960327 29.498896 1350.061401
v 1347.491455 30.804792 1342.007446
v 1367.065186 19.363495 1338.299683
v 1351.734863 27.320568 1334.749268
v 1376.099243 13.997883 1344.056885
v 1387.697876 1.515500 1346.830322
v 1403.228760 -7.334827 1345.924561
v 1402.414917 4.091187 1337.034912
v 1413.618530 -12.961570 1346.208496
v 1422.597168 -14.231144 1341.738770
v 1441.554932 -15.715344 1336.354126
v 1439.940552 -27.259430 1365.496704
v 1435.589600 -30.294127 1409.123535
v 1413.740234 -18.727705 1397.449951
v 1402.025269 -3.347852 1414.722778
v 1386.455200 16.266005 1434.061279
v 1379.303101 21.344215 1442.536987
v 1363.916626 44.082039 1434.033081
v 1382.992188 10.645422 1411.521973
v 1370.818726 31.663363 1423.378784
v 1394.590088 14.792384 1401.451294
v 1413.152954 -12.657398 1379.680176
v 1426.400635 -24.403862 1383.563354
v 1345.534912 7.567155 1523.362671
v 1360.624268 1.867497 1520.436890
v 1355.065918 12.370182 1506.207275
v 1400.028931 -16.876238 1508.224976
v 1403.819336 -16.214197 1523.238037
v 1420.271973 -24.465820 1520.573242
v 1432.048340 -26.584129 1523.945923
v 1525.000000 -55.319927 1485.011475
v 1525.000000 -57.386204 1513.093506
v 1519.461304 -55.577583 1525.000000
v 1469.395386 -45.053169 1525.000000
v 1525.000000 -56.861641 1525.000000
v 1447.789551 -37.960373 1525.000000
v 1444.854614 -36.947491 1525.000000
v 1525.000000 -50.852955 1428.500122
v 1525.000000 -52.540890 1449.836914
v 1525.000000 -53.968021 1468.387451
v 1525.000000 -46.365990 1382.716797
v 1525.000000 -44.158646 1371.662109
v 1472.488647 -24.936152 1334.375000
v 1469.580322 -24.450541 1334.375000
v 1473.560913 -25.536098 1334.375000
v 1455.415527 -22.831186 1334.375000
v 1451.300171 -22.463146 1334.375000
v 1525.000000 -39.612659 1360.265015
v 1507.872681 -27.788136 1334.375000
v 1499.309937 -27.039402 1334.375000
v 1525.000000 -30.753717 1334.375000
v 1430.867554 -25.873306 1525.000000
v 1406.595459 -16.801382 1525.000000
v 1437.906982 -31.045576 1525.000000
v 1447.130859 -18.487011 1334.375000
v 1441.309326 -15.403444 1334.375000
v 1430.826294 -3.983476 1334.375000
v 1434.747559 -7.358574 1334.375000
v 1427.844238 -1.838534 1334.375000
v 1425.185913 -1.091637 1334.375000
v 1417.362671 2.555050 1334.375000
v 1396.897461 -13.455972 1525.000000
v 1375.044800 -5.504366 1525.000000
v 1394.888184 18.292721 1334.375000
v 1392.402100 19.960968 1334.375000
v 1413.672485 6.033606 1334.375000
v 1409.964111 9.769865 1334.375000
v 1406.857056 11.302337 1334.375000
v 1404.505005 9.398683 1334.375000
v 1397.463623 14.479868 1334.375000
v 1401.855713 9.634840 1334.375000
v 1360.987671 1.429349 1525.000000
v 1387.009521 20.737038 1334.375000
v 1382.990356 18.411268 1334.375000
v 1378.099243 22.453949 1334.375000
v 1375.605957 19.756302 1334.375000
v 1369.119995 21.196917 1334.375000
v 1365.940796 21.561033 1334.375000
v 1368.433228 20.975260 1334.375000
v 1348.032837 6.485844 1525.000000
v 1343.972412 8.515997 1525.000000
v 1334.375000 15.445804 1517.323364
v 1334.375000 18.184008 1514.306763
v 1334.375000 28.223532 1492.205566
v 1334.375000 34.679317 1482.262207
v 1334.375000 56.002438 1434.186401
v 1334.375000 56.630878 1437.719360
v 1334.375000 56.058964 1423.514893
v 1337.409180 46.076111 1334.375000
v 1341.148804 41.207565 1334.375000
v 1351.711792 27.443729 1334.375000
v 1364.440308 21.725540 1334.375000
v 1351.486450 27.578453 1334.375000
v 1334.375000 14.968753 1525.000000
v 1334.375000 46.273857 1461.955811
v 1334.375000 47.946835 1459.891724
v 1334.375000 48.554195 1457.846558
v 1334.375000 51.280811 1451.450928
v 1334.375000 55.449417 1415.599487
v 1334.375000 50.488270 1410.710205
v 1334.375000 39.800114 1398.970581
v 1334.375000 38.233921 1389.370117
v 1334.375000 54.121010 1413.249268
v 1334.375000 36.256580 1377.808960
v 1334.375000 40.560760 1370.769165
v 1334.375000 40.563076 1370.747192
v 1334.375000 34.886234 1349.017700
v 1337.258789 46.205910 1334.375000
v 1334.375000 38.864941 1344.523071
v 1336.784912 46.517155 1334.375000
v 1334.375000 47.410534 1335.132812
v 1334.375000 47.132729 1334.375000
vt 0.171228 0.960115
vt 0.195962 0.962659
vt 0.194113 0.940537
vt 0.142298 0.945127
vt 0.193779 0.936164
vt 0.193904 0.919384
vt 0.186329 0.905379
vt 0.194338 0.915603
vt 0.193778 0.938860
vt 0.135636 0.971900
vt 0.157798 0.989758
vt 0.108748 0.981429
vt 0.146926 0.988702
vt 0.097419 0.977053
vt 0.123238 0.943613
vt 0.115911 0.931824
vt 0.081096 0.974371
vt 0.088273 0.981392
vt 0.018303 0.903460
vt 0.037472 0.940403
vt 0.030714 0.875318
vt 0.071847 0.934315
vt 0.071984 0.882842
vt 0.084324 0.903065
vt 0.097069 0.909920
vt 0.108081 0.914940
vt 0.041465 0.973800
vt 0.064606 0.988222
vt 0.101729 0.886887
vt 0.113623 0.889280
vt 0.122727 0.902690
vt 0.099659 0.875729
vt 0.087530 0.886969
vt 0.089550 0.866953
vt 0.087059 0.847631
vt 0.078891 0.847928
vt 0.067473 0.860326
vt 0.067014 0.850515
vt 0.051112 0.872738
vt 0.051505 0.860651
vt 0.056602 0.839399
vt 0.070272 0.832970
vt 0.055559 0.824643
vt 0.074949 0.818930
vt 0.038370 0.836386
vt 0.071764 0.803661
vt 0.047222 0.807885
vt 0.035818 0.818932
vt 0.088825 0.816376
vt 0.080599 0.801772
vt 0.073239 0.801185
vt 0.020246 0.818601
vt 0.135283 0.808751
vt 0.131676 0.820413
vt 0.156252 0.812086
vt 0.116871 0.816247
vt 0.116634 0.805099
vt 0.106864 0.821192
vt 0.114387 0.830617
vt 0.130174 0.829638
vt 0.148475 0.841767
vt 0.127981 0.843604
vt 0.153355 0.854940
vt 0.142034 0.863083
vt 0.159446 0.834876
vt 0.170490 0.846257
vt 0.162196 0.875726
vt 0.155152 0.870014
vt 0.171235 0.824008
vt 0.161130 0.802627
vt 0.178474 0.808047
vt 0.186386 0.815445
vt 0.191669 0.834085
vt 0.194772 0.818630
vt 0.195140 0.818449
vt 0.194511 0.808577
vt 0.194271 0.805040
vt 0.194275 0.804879
vt 0.186521 0.845215
vt 0.195526 0.844151
vt 0.195373 0.836361
vt 0.183692 0.855131
vt 0.195362 0.850244
vt 0.195469 0.846151
vt 0.195346 0.854530
vt 0.195375 0.835575
vt 0.195104 0.862185
vt 0.195297 0.859929
vt 0.183358 0.869262
vt 0.195247 0.864328
vt 0.192709 0.868480
vt 0.195337 0.870798
vt 0.195260 0.868365
vt 0.195165 0.873370
vt 0.195672 0.876879
vt 0.184777 0.880995
vt 0.194650 0.884806
vt 0.194842 0.881014
vt 0.193432 0.907829
vt 0.195102 0.907451
vt 0.195947 0.902728
vt 0.194709 0.912359
vt 0.163458 0.906609
vt 0.147082 0.892117
vt 0.132333 0.880816
vt 0.118780 0.868402
vt 0.099072 0.855730
vt 0.118649 0.851385
vt 0.096778 0.831830
vt 0.107407 0.837752
vt 0.128918 0.860802
vt 0.152111 0.880609
vt 0.188111 0.890208
vt 0.194768 0.893745
vt 0.194667 0.891410
vt 0.098904 0.802850
vt 0.094637 0.803384
vt 0.027355 0.822309
vt 0.010406 0.814304
vt 0.012925 0.830127
vt 0.010852 0.871488
vt 0.024892 0.866287
vt 0.013233 0.886543
vt 0.010452 0.898240
vt 0.120322 0.802555
vt 0.130894 0.803829
vt 0.118016 0.802036
vt 0.195350 0.831572
vt 0.019547 0.987142
vt 0.047365 0.986829
vt 0.169168 0.988154
vt 0.194779 0.988760
vt 0.195641 0.969942
vt 0.009227 0.865067
vt 0.009095 0.874088
vt 0.194315 0.804453
vt 0.194576 0.802337
vt 0.193773 0.802279
vt 0.195127 0.818622
vt 0.008933 0.914172
vt 0.010071 0.936005
vt 0.009286 0.984507
vt 0.161140 0.802619
vt 0.161119 0.802618
vt 0.069604 0.801325
vt 0.009178 0.904141
vt 0.008922 0.911358
vt 0.019186 0.803304
vt 0.196369 0.899680
vt 0.016330 0.803424
vt 0.008814 0.812703
vt 0.140245 0.803454
vt 0.152859 0.802453
vt 0.115883 0.802030
vt 0.108662 0.802342
vt 0.008947 0.817103
vt 0.040495 0.802391
vt 0.050213 0.802411
vt 0.071581 0.801367
vt 0.184503 0.802184
vt 0.009294 0.844208
vt 0.008889 0.830900
vt 0.009369 0.897102
vt 0.179294 0.802108
vt 0.195261 0.833146
vt 0.008844 0.803184
vt 0.008846 0.989163
vn 0.2863 0.9393 0.1888
vn 0.0696 0.9277 0.3667
vn 0.3728 0.9198 0.1222
vn 0.1480 0.9658 0.2129
vn 0.1316 0.9602 0.2462
vn 0.0947 0.9616 0.2574
vn 0.3201 0.8503 0.4178
vn 0.2290 0.8802 0.4156
vn 0.2673 0.9479 0.1732
vn 0.1596 0.9796 0.1221
vn 0.1289 0.9569 0.2601
vn 0.0805 0.9921 0.0961
vn 0.1356 0.9770 0.1646
vn 0.0254 0.9946 0.1003
vn 0.1061 0.9743 0.1986
vn 0.2140 0.9661 0.1445
vn 0.0693 0.9929 0.0963
vn -0.0069 0.9970 0.0769
vn 0.4194 0.8947 -0.1538
vn 0.2681 0.9629 -0.0310
vn 0.4322 0.8970 -0.0925
vn 0.2307 0.9729 0.0178
vn 0.5877 0.8071 0.0556
vn 0.4638 0.8785 0.1144
vn 0.5344 0.8116 0.2359
vn 0.3783 0.9094 0.1728
vn 0.1086 0.9938 0.0248
vn -0.0106 0.9967 0.0801
vn 0.6567 0.7504 -0.0744
vn 0.5884 0.7082 -0.3901
vn 0.4805 0.8768 0.0206
vn 0.6249 0.7779 0.0649
vn 0.4936 0.6984 0.5181
vn 0.7536 0.6030 0.2616
vn 0.7257 0.6776 -0.1192
vn 0.6183 0.7145 -0.3273
vn 0.7471 0.5504 0.3725
vn 0.5997 0.5888 0.5419
vn 0.5529 0.8131 0.1819
vn 0.4587 0.7324 0.5031
vn 0.4707 0.5332 0.7029
vn 0.4165 0.8773 0.2385
vn 0.5284 0.6753 0.5146
vn 0.3053 0.8769 0.3712
vn 0.6471 0.7159 0.2623
vn 0.1373 0.8652 0.4822
vn 0.2242 0.8767 0.4256
vn 0.4616 0.8081 0.3659
vn 0.3619 0.9252 0.1144
vn 0.1426 0.9212 0.3619
vn 0.0679 0.9301 0.3611
vn 0.4527 0.7455 0.4892
vn 0.4763 0.8242 -0.3063
vn 0.4548 0.7896 -0.4118
vn 0.5668 0.8235 0.0248
vn 0.3989 0.7486 -0.5295
vn 0.3423 0.8532 -0.3934
vn 0.4370 0.8824 -0.1744
vn 0.5090 0.8342 -0.2121
vn 0.2413 0.7501 -0.6157
vn 0.4901 0.8252 -0.2809
vn 0.4580 0.8459 -0.2730
vn 0.3755 0.7973 -0.4725
vn 0.5403 0.7619 -0.3571
vn 0.5767 0.8044 -0.1424
vn 0.5861 0.8090 0.0456
vn 0.5328 0.8391 -0.1097
vn 0.4022 0.6552 -0.6394
vn 0.5427 0.8394 0.0268
vn 0.5383 0.8332 0.1259
vn 0.5059 0.8474 0.1611
vn 0.5708 0.7773 0.2644
vn 0.3553 0.8698 0.3423
vn 0.5622 0.8236 0.0750
vn 0.7329 0.6800 -0.0181
vn 0.7819 0.6006 0.1669
vn 0.5846 0.6369 0.5025
vn 0.4716 0.6568 0.5883
vn 0.3000 0.7596 0.5770
vn -0.2963 0.8141 0.4993
vn 0.0210 0.9015 0.4322
vn 0.4528 0.7068 0.5434
vn 0.1655 0.6146 0.7712
vn -0.0042 0.7536 0.6573
vn -0.0921 0.5391 0.8371
vn -0.0955 0.9320 0.3495
vn 0.3884 0.4807 0.7862
vn 0.1911 0.5153 0.8354
vn 0.4465 0.8235 0.3498
vn 0.6743 0.4677 0.5715
vn 0.1635 0.5886 0.7917
vn -0.2777 0.5156 0.8106
vn 0.3140 0.4363 0.8432
vn -0.0258 0.5302 0.8475
vn 0.2998 0.4780 0.8256
vn 0.4379 0.7761 0.4536
vn 0.3852 0.4688 0.7949
vn 0.4622 0.4679 0.7532
vn 0.5745 0.6802 0.4551
vn 0.6524 0.7569 0.0383
vn 0.4973 0.5617 0.6612
vn 0.5127 0.5785 0.6343
vn 0.3186 0.9390 0.1291
vn 0.4854 0.8681 0.1040
vn 0.6920 0.7127 0.1147
vn 0.6857 0.7127 -0.1479
vn 0.7218 0.6912 0.0347
vn 0.6553 0.7223 0.2208
vn 0.6450 0.7591 0.0878
vn 0.7840 0.6054 -0.1371
vn 0.6367 0.7117 0.2966
vn 0.6884 0.6298 -0.3598
vn 0.3096 0.6040 0.7344
vn 0.1859 0.4842 0.8549
vn 0.1729 0.4554 0.8733
vn 0.3442 0.9331 -0.1038
vn 0.2602 0.9644 0.0457
vn 0.7857 0.5557 0.2718
vn 0.4164 0.8638 0.2836
vn 0.5069 0.8457 0.1666
vn 0.3609 0.9120 -0.1951
vn 0.3554 0.8680 -0.3467
vn 0.3679 0.8372 -0.4047
vn 0.4908 0.8375 -0.2401
vn -0.0591 0.7144 -0.6972
vn 0.0332 0.8151 -0.5784
vn 0.2115 0.6804 -0.7016
vn 0.3080 0.8920 0.3309
vn 0.1923 0.9810 -0.0265
vn -0.0130 0.9968 0.0782
vn 0.0951 0.9278 0.3608
vn 0.1617 0.9337 0.3195
vn 0.1061 0.9291 0.3541
vn 0.3378 0.9319 -0.1319
vn 0.3367 0.9140 -0.2260
vn 0.4364 0.7223 0.5365
vn 0.2332 0.9130 -0.3347
vn 0.4009 0.8869 0.2294
vn 0.4532 0.8547 0.2531
vn 0.3225 0.9464 0.0170
vn 0.2631 0.9648 0.0003
vn 0.2224 0.9742 -0.0369
vn 0.5834 0.8003 -0.1382
vn 0.5132 0.7843 0.3485
vn 0.0138 0.8484 0.5291
vn 0.6088 0.7216 -0.3294
vn 0.4077 0.9100 -0.0749
vn 0.1588 0.8249 0.5426
vn 0.4055 0.5421 0.7360
vn 0.3078 0.8138 0.4929
vn 0.5328 0.8460 0.0182
vn 0.5191 0.8428 -0.1422
vn 0.5750 0.8083 0.1265
vn 0.1437 0.9570 -0.2520
vn 0.3673 0.9301 -0.0042
vn 0.3780 0.9251 0.0342
vn -0.0216 0.8535 0.5206
vn -0.0393 0.8585 0.5113
vn 0.1406 0.8741 0.4649
vn 0.4400 0.6657 0.6026
vn 0.4251 0.9049 0.0196
vn 0.4055 0.9124 0.0553
vn 0.3992 0.9025 -0.1614
vn 0.5827 0.7653 0.2734
vn 0.1400 0.8805 0.4529
vn 0.5572 0.8288 0.0515
vn 0.2256 0.9733 -0.0429
s 1
f 4/1/1 105/2/2 100/3/3
f 1/4/4 99/5/5 101/6/6
f 2/7/7 101/6/6 102/8/8
f 1/4/4 98/9/9 99/5/5
f 4/1/1 98/9/9 3/10/10
f 3/10/10 97/11/11 4/1/1
f 3/10/10 93/12/12 96/13/13
f 5/14/14 3/10/10 1/4/4
f 6/15/15 5/14/14 1/4/4
f 7/16/16 8/17/17 6/15/15
f 6/15/15 8/17/17 5/14/14
f 5/14/14 94/18/18 93/12/12
f 8/17/17 94/18/18 5/14/14
f 11/19/19 10/20/20 12/21/21
f 12/21/21 10/20/20 13/22/22
f 23/23/23 13/22/22 24/24/24
f 24/24/24 13/22/22 14/25/25
f 13/22/22 8/17/17 15/26/26
f 14/25/25 13/22/22 15/26/26
f 9/27/27 8/17/17 13/22/22
f 9/27/27 95/28/28 8/17/17
f 13/22/22 10/20/20 9/27/27
f 15/26/26 8/17/17 7/16/16
f 16/29/29 14/25/25 15/26/26
f 16/29/29 15/26/26 17/30/30
f 17/30/30 15/26/26 68/31/31
f 18/32/32 16/29/29 17/30/30
f 18/32/32 19/33/33 16/29/29
f 19/33/33 18/32/32 20/34/34
f 20/34/34 23/23/23 19/33/33
f 72/35/35 21/36/36 20/34/34
f 21/36/36 22/37/37 20/34/34
f 28/38/38 22/37/37 21/36/36
f 22/37/37 23/23/23 20/34/34
f 19/33/33 24/24/24 16/29/29
f 24/24/24 14/25/25 16/29/29
f 23/23/23 24/24/24 19/33/33
f 25/39/39 13/22/22 23/23/23
f 25/39/39 12/21/21 13/22/22
f 25/39/39 23/23/23 22/37/37
f 26/40/40 25/39/39 22/37/37
f 27/41/41 26/40/40 22/37/37
f 28/38/38 27/41/41 22/37/37
f 29/42/42 27/41/41 28/38/38
f 29/42/42 28/38/38 21/36/36
f 72/35/35 29/42/42 21/36/36
f 30/43/43 27/41/41 29/42/42
f 31/44/44 30/43/43 29/42/42
f 32/45/45 26/40/40 27/41/41
f 30/43/43 32/45/45 27/41/41
f 12/21/21 25/39/39 26/40/40
f 33/46/46 30/43/43 31/44/44
f 34/47/47 30/43/43 33/46/46
f 37/48/48 30/43/43 34/47/47
f 33/46/46 31/44/44 35/49/49
f 33/46/46 153/50/50 152/51/51
f 35/49/49 153/50/50 33/46/46
f 36/52/52 37/48/48 34/47/47
f 39/53/53 40/54/54 53/55/55
f 41/56/56 39/53/53 38/57/57
f 41/56/56 40/54/54 39/53/53
f 42/58/58 41/56/56 38/57/57
f 41/56/56 43/59/59 40/54/54
f 40/54/54 43/59/59 44/60/60
f 41/56/56 42/58/58 43/59/59
f 40/54/54 44/60/60 45/61/61
f 45/61/61 47/62/62 46/63/63
f 44/60/60 47/62/62 45/61/61
f 43/59/59 47/62/62 44/60/60
f 47/62/62 48/64/64 46/63/63
f 45/61/61 46/63/63 50/65/65
f 40/54/54 45/61/61 50/65/65
f 50/65/65 46/63/63 51/66/66
f 46/63/63 52/67/67 51/66/66
f 46/63/63 49/68/68 52/67/67
f 53/55/55 50/65/65 54/69/69
f 50/65/65 51/66/66 54/69/69
f 53/55/55 40/54/54 50/65/65
f 55/70/70 53/55/55 54/69/69
f 55/70/70 54/69/69 56/71/71
f 54/69/69 57/72/72 56/71/71
f 54/69/69 58/73/73 57/72/72
f 54/69/69 51/66/66 58/73/73
f 59/74/74 148/75/75 145/76/76
f 57/72/72 58/73/73 59/74/74
f 56/71/71 144/77/77 163/78/78
f 51/66/66 60/79/79 58/73/73
f 58/73/73 131/80/80 132/81/81
f 51/66/66 61/82/82 60/79/79
f 60/79/79 129/83/83 130/84/84
f 61/82/82 128/85/85 129/83/83
f 58/73/73 132/81/81 134/86/86
f 61/82/82 119/87/87 120/88/88
f 62/89/89 125/90/90 119/87/87
f 63/91/91 124/92/92 126/93/93
f 123/94/94 63/91/91 62/89/89
f 62/89/89 122/95/95 123/94/94
f 64/96/96 116/97/97 121/98/98
f 66/99/99 111/100/100 113/101/101
f 2/7/7 110/102/102 66/99/99
f 1/4/4 2/7/7 67/103/103
f 6/15/15 1/4/4 67/103/103
f 64/96/96 67/103/103 2/7/7
f 6/15/15 67/103/103 78/104/104
f 7/16/16 6/15/15 78/104/104
f 68/31/31 7/16/16 78/104/104
f 68/31/31 15/26/26 7/16/16
f 17/30/30 68/31/31 69/105/105
f 69/105/105 68/31/31 78/104/104
f 17/30/30 69/105/105 70/106/106
f 18/32/32 17/30/30 70/106/106
f 71/107/107 18/32/32 70/106/106
f 71/107/107 20/34/34 18/32/32
f 72/35/35 20/34/34 71/107/107
f 71/107/107 70/106/106 74/108/108
f 71/107/107 73/109/109 72/35/35
f 73/109/109 71/107/107 75/110/110
f 75/110/110 71/107/107 74/108/108
f 75/110/110 74/108/108 43/59/59
f 43/59/59 74/108/108 47/62/62
f 47/62/62 74/108/108 76/111/111
f 76/111/111 48/64/64 47/62/62
f 74/108/108 70/106/106 76/111/111
f 46/63/63 48/64/64 49/68/68
f 70/106/106 69/105/105 76/111/111
f 76/111/111 69/105/105 48/64/64
f 48/64/64 69/105/105 78/104/104
f 48/64/64 78/104/104 77/112/112
f 48/64/64 77/112/112 49/68/68
f 77/112/112 52/67/67 49/68/68
f 77/112/112 78/104/104 52/67/67
f 52/67/67 78/104/104 67/103/103
f 52/67/67 67/103/103 64/96/96
f 51/66/66 52/67/67 64/96/96
f 61/82/82 51/66/66 64/96/96
f 61/82/82 64/96/96 62/89/89
f 64/96/96 2/7/7 65/113/113
f 65/113/113 114/114/114 115/115/115
f 29/42/42 72/35/35 31/44/44
f 31/44/44 72/35/35 35/49/49
f 35/49/49 72/35/35 73/109/109
f 35/49/49 73/109/109 42/58/58
f 35/49/49 141/116/116 142/117/117
f 73/109/109 75/110/110 42/58/58
f 42/58/58 75/110/110 43/59/59
f 36/52/52 81/118/118 37/48/48
f 79/119/119 80/120/120 36/52/52
f 36/52/52 80/120/120 81/118/118
f 83/121/121 12/21/21 82/122/122
f 83/121/121 84/123/123 12/21/21
f 85/124/124 84/123/123 83/121/121
f 84/123/123 85/124/124 11/19/19
f 84/123/123 11/19/19 12/21/21
f 12/21/21 26/40/40 32/45/45
f 80/120/120 82/122/122 12/21/21
f 80/120/120 12/21/21 32/45/45
f 81/118/118 80/120/120 32/45/45
f 81/118/118 32/45/45 37/48/48
f 37/48/48 32/45/45 30/43/43
f 145/76/76 57/72/72 59/74/74
f 155/125/125 39/53/53 156/126/126
f 155/125/125 158/127/127 38/57/57
f 147/128/128 59/74/74 58/73/73
f 87/129/129 86/130/130 9/27/27
f 103/131/131 106/132/132 104/133/133
f 117/134/134 108/135/135 83/121/121
f 165/136/136 167/137/137 166/138/138
f 146/139/139 148/75/75 59/74/74
f 91/140/140 89/141/141 10/20/20
f 121/98/98 122/95/95 64/96/96
f 89/141/141 88/142/142 10/20/20
f 161/143/143 160/144/144 55/70/70
f 150/145/145 34/47/47 33/46/46
f 115/115/115 116/97/97 65/113/113
f 109/146/146 11/19/19 85/124/124
f 91/140/140 11/19/19 92/147/147
f 138/148/148 79/119/119 36/52/52
f 112/149/149 114/114/114 2/7/7
f 137/150/150 136/151/151 79/119/119
f 157/152/152 53/55/55 159/153/153
f 157/152/152 156/126/126 39/53/53
f 154/154/154 143/155/155 38/57/57
f 113/101/101 2/7/7 66/99/99
f 136/151/151 135/156/156 79/119/119
f 158/127/127 154/154/154 38/57/57
f 108/135/135 85/124/124 83/121/121
f 159/153/153 55/70/70 160/144/144
f 139/157/157 34/47/47 140/158/158
f 104/133/133 105/2/2 4/1/1
f 152/51/51 151/159/159 33/46/46
f 135/156/156 80/120/120 79/119/119
f 126/93/93 125/90/90 63/91/91
f 164/160/160 56/71/71 163/78/78
f 143/155/155 42/58/58 38/57/57
f 117/134/134 82/122/122 118/161/161
f 139/157/157 138/148/148 36/52/52
f 110/102/102 111/100/100 66/99/99
f 151/159/159 150/145/145 33/46/46
f 118/161/161 80/120/120 127/162/162
f 107/163/163 109/146/146 85/124/124
f 161/143/143 56/71/71 162/164/164
f 164/160/160 162/164/164 56/71/71
f 9/27/27 88/142/142 87/129/129
f 120/88/88 128/85/85 61/82/82
f 133/165/165 147/128/128 58/73/73
f 130/84/84 131/80/80 60/79/79
f 134/86/86 133/165/165 58/73/73
f 2/7/7 1/4/4 101/6/6
f 1/4/4 3/10/10 98/9/9
f 4/1/1 100/3/3 98/9/9
f 3/10/10 96/13/13 97/11/11
f 3/10/10 5/14/14 93/12/12
f 8/17/17 95/28/28 94/18/18
f 9/27/27 86/130/130 95/28/28
f 35/49/49 142/117/117 153/50/50
f 56/71/71 57/72/72 144/77/77
f 58/73/73 60/79/79 131/80/80
f 60/79/79 61/82/82 129/83/83
f 61/82/82 62/89/89 119/87/87
f 62/89/89 63/91/91 125/90/90
f 123/94/94 124/92/92 63/91/91
f 62/89/89 64/96/96 122/95/95
f 64/96/96 65/113/113 116/97/97
f 2/7/7 102/8/8 110/102/102
f 65/113/113 2/7/7 114/114/114
f 35/49/49 42/58/58 141/116/116
f 145/76/76 144/77/77 57/72/72
f 155/125/125 38/57/57 39/53/53
f 147/128/128 146/139/139 59/74/74
f 150/145/145 140/158/158 34/47/47
f 109/146/146 92/147/147 11/19/19
f 91/140/140 10/20/20 11/19/19
f 138/148/148 137/150/150 79/119/119
f 137/150/150 149/166/166 136/151/151
f 157/152/152 39/53/53 53/55/55
f 113/101/101 112/149/149 2/7/7
f 108/135/135 107/163/163 85/124/124
f 159/153/153 53/55/55 55/70/70
f 139/157/157 36/52/52 34/47/47
f 4/1/1 97/11/11 103/131/131
f 103/131/131 104/133/133 4/1/1
f 135/156/156 127/162/162 80/120/120
f 165/136/136 166/138/138 163/78/78
f 166/138/138 164/160/160 163/78/78
f 143/155/155 141/116/116 42/58/58
f 117/134/134 83/121/121 82/122/122
f 118/161/161 82/122/122 80/120/120
f 161/143/143 55/70/70 56/71/71
f 10/20/20 88/142/142 9/27/27
f 88/142/142 90/167/167 87/129/129
