# Blender v2.82 (sub 7) OBJ File: 'LODTerrain.blend'
# www.blender.org
o lod_1_071_Cube.071
v -189.591217 7.897878 -594.925476
v -48.591217 12.893272 -758.823059
v -36.715969 14.438706 -755.644348
v -20.800072 13.056770 -751.786499
v -44.350685 7.689299 -737.788757
v -17.077286 19.025139 -760.033203
v -94.428978 12.838714 -748.768433
v -80.118050 -3.840076 -699.306885
v -91.320663 1.052727 -718.109741
v -61.927094 -6.688798 -683.651367
v -40.720257 -2.153972 -691.448181
v -63.954735 -22.000837 -638.655151
v -40.035530 -14.855434 -662.417908
v -41.581779 -27.092958 -618.543701
v -9.341217 4.688533 -701.991638
v -4.959984 0.081705 -687.347168
v -8.606407 -7.401372 -670.901123
v -16.683250 -26.167604 -619.235840
v -2.094086 -8.285871 -662.597778
v -52.783936 -31.872206 -579.557312
v -94.560783 -25.975737 -592.714905
v -141.921249 -10.865513 -578.130676
v -139.998871 -10.124846 -610.913391
v -73.364487 -28.829741 -597.088562
v -115.798248 -15.520876 -640.050293
v -45.510715 -30.865702 -597.158447
v -79.613388 -21.049921 -634.522827
v -83.965820 -14.102793 -659.943909
v -105.169655 -14.050798 -658.588318
v -125.246819 4.023653 -706.788513
v -114.232094 3.862687 -716.853088
v -142.643341 14.507235 -743.236755
v -152.735825 18.122046 -743.741028
v -157.939682 23.710999 -750.980042
v -170.171875 32.818657 -758.899719
v -171.431183 22.638256 -750.492432
v -181.279694 30.812624 -759.329224
v -184.837311 25.832821 -745.420227
v -126.218964 -2.980842 -684.455383
v -132.441406 1.986514 -685.542847
v -176.492584 20.366871 -734.058289
v -155.764160 -2.850529 -636.461731
v -181.779083 5.008961 -584.841003
v -178.416977 3.588963 -588.264038
v -179.070068 4.315953 -587.653015
v -181.447479 6.424273 -608.830872
v -184.801315 33.432098 -757.084045
v -186.563721 29.314606 -726.682434
v -187.438507 22.199598 -715.155823
v -152.268890 5.854025 -674.561340
v -146.825607 7.180979 -688.347229
v -139.745453 0.049358 -678.965271
v -139.365585 1.295735 -669.028259
v -129.395630 -6.784118 -664.582275
v -150.252609 -3.699886 -641.256165
v -189.768661 17.509872 -682.415100
v -188.017242 20.204655 -703.256775
v -185.920074 12.375015 -654.352295
v -172.528290 6.462988 -643.080811
v -184.721771 12.230826 -634.007507
v -185.511490 26.929869 -619.857117
v -176.430878 14.224289 -626.668640
v 0.000000 -23.953218 -602.557739
v 0.000000 -28.855310 -571.875000
v -16.465004 -33.670433 -571.875000
v -30.563812 -34.216049 -571.875000
v -42.992992 -34.742134 -571.875000
v -50.256172 -33.380508 -571.875000
v -51.892567 -32.842163 -571.875000
v -57.907471 -34.324463 -571.875000
v 0.000000 -22.383303 -607.323059
v 0.000000 7.315526 -703.634521
v 0.000000 7.277097 -701.025330
v 0.000000 4.708439 -696.080139
v 0.000000 11.019616 -719.728271
v 0.000000 16.793478 -751.954956
v 0.000000 12.048486 -724.291077
v 0.000000 -21.480200 -620.324524
v 0.000000 -13.968628 -645.367554
v 0.000000 -18.868286 -633.610840
v 0.000000 -11.947598 -651.498718
v 0.000000 -5.296267 -662.302490
v 0.000000 -4.274952 -661.424011
v 0.000000 -4.114915 -663.465393
v 0.000000 2.601187 -668.798035
v 0.000000 -10.838884 -654.265808
v 0.000000 -2.851455 -672.838379
v 0.000000 0.973027 -683.595337
v 0.000000 1.369887 -687.494080
v 0.000000 11.504606 -721.377014
v -10.124504 19.881695 -762.500000
v -7.265060 19.426888 -762.500000
v 0.000000 20.282980 -761.349792
v -1.901894 20.374245 -762.500000
v 0.000000 20.718754 -762.500000
v -14.167923 22.754673 -762.500000
v -16.283333 20.357327 -762.500000
v -16.776825 19.657742 -762.500000
v -24.373962 17.078629 -762.500000
v -65.085144 -34.892410 -571.875000
v -67.620415 14.509425 -762.500000
v -70.574173 14.472151 -762.500000
v -61.024937 14.254641 -762.500000
v -32.173771 17.043274 -762.500000
v -38.289154 21.482567 -762.500000
v -40.502014 23.290995 -762.500000
v -45.638268 20.423405 -762.500000
v -48.463654 14.485535 -762.500000
v -54.071167 15.443975 -762.500000
v -70.903595 -33.888329 -571.875000
v -85.860870 -30.418680 -571.875000
v -102.322205 -24.693512 -571.875000
v -138.206833 -12.529469 -571.875000
v -145.980011 -10.512573 -571.875000
v -150.735764 -6.634601 -571.875000
v -74.156708 14.857976 -762.500000
v -87.728378 16.925331 -762.500000
v -96.770844 18.638588 -762.500000
v -129.003098 19.300949 -762.500000
v -130.726318 19.404926 -762.500000
v -131.478210 19.471092 -762.500000
v -103.844177 18.229111 -762.500000
v -158.312775 -2.712971 -571.875000
v -174.281952 1.765249 -571.875000
v -177.979858 3.125526 -571.875000
v -190.625000 17.833088 -682.715637
v -190.625000 15.170572 -671.173340
v -190.625000 14.655960 -659.668030
v -154.611572 25.939703 -762.500000
v -156.607407 26.616377 -762.500000
v -157.700180 27.297119 -762.500000
v -164.790344 31.096060 -762.500000
v -173.016541 35.386490 -762.500000
v -175.476944 39.409042 -762.500000
v -179.266464 38.398865 -762.500000
v -190.625000 9.693019 -577.220459
v -190.625000 8.528795 -592.909424
v -190.625000 9.047616 -594.552490
v -178.807480 3.489028 -571.875000
v -190.625000 9.711504 -571.875000
v -190.625000 11.138498 -595.742798
v -190.625000 24.030846 -606.646484
v -190.625000 19.799126 -611.685608
v -190.625000 29.341013 -618.073120
v -190.625000 29.209352 -621.578491
v -190.625000 20.338341 -630.492310
v -190.625000 22.820496 -634.469055
v -190.625000 20.677574 -641.683899
v -190.625000 19.917257 -650.779358
v -190.625000 14.773088 -654.672546
v -190.625000 14.012403 -654.947144
v -190.625000 21.149761 -698.382080
v -190.625000 18.331333 -683.511047
v -190.625000 26.025597 -703.970581
v -190.625000 26.586639 -707.584290
v -190.625000 27.342703 -710.434387
v -190.625000 26.016994 -715.201050
v -190.625000 39.359833 -725.494812
v -190.625000 34.516453 -719.611572
v -190.625000 31.180441 -729.236145
v -190.625000 30.114277 -737.096985
v -190.625000 34.353237 -742.644775
v -190.625000 31.980581 -745.394043
v -190.625000 31.264015 -751.727173
v -190.625000 32.209312 -753.176514
v -183.712326 40.255310 -762.500000
v -186.176682 44.628326 -762.500000
v -188.721573 47.187805 -762.500000
v -190.625000 36.610695 -755.605713
v -190.625000 44.684586 -762.500000
vt 0.082948 0.683575
vt 0.082145 0.684898
vt 0.080983 0.684685
vt 0.083544 0.684836
vt 0.242465 0.548388
vt 0.245553 0.544879
vt 0.245371 0.547837
vt 0.237691 0.537151
vt 0.244281 0.537864
vt 0.244803 0.539799
vt 0.244714 0.532008
vt 0.235859 0.519542
vt 0.216799 0.540203
vt 0.245900 0.516166
vt 0.245609 0.523351
vt 0.245540 0.553204
vt 0.242056 0.515741
vt 0.244372 0.509045
vt 0.244270 0.513300
vt 0.173724 0.538256
vt 0.183938 0.508239
vt 0.204483 0.499810
vt 0.245675 0.559083
vt 0.231408 0.592665
vt 0.244481 0.600886
vt 0.244415 0.625716
vt 0.244834 0.595288
vt 0.245325 0.567307
vt 0.181984 0.575760
vt 0.244955 0.564309
vt 0.200186 0.590191
vt 0.170488 0.556999
vt 0.127149 0.561819
vt 0.105595 0.541425
vt 0.148977 0.538949
vt 0.171889 0.504836
vt 0.155715 0.507481
vt 0.167607 0.500385
vt 0.103126 0.514661
vt 0.148195 0.502868
vt 0.147988 0.500785
vt 0.148972 0.500403
vt 0.066179 0.549387
vt 0.060320 0.556895
vt 0.058749 0.549166
vt 0.060848 0.565958
vt 0.084376 0.542643
vt 0.081926 0.573004
vt 0.143253 0.602637
vt 0.118590 0.578538
vt 0.145080 0.582493
vt 0.190986 0.622362
vt 0.200903 0.607628
vt 0.244410 0.627295
vt 0.226175 0.638394
vt 0.244132 0.651645
vt 0.227096 0.649208
vt 0.244224 0.653781
vt 0.231914 0.655071
vt 0.243781 0.661685
vt 0.240163 0.666723
vt 0.233465 0.667636
vt 0.241070 0.675542
vt 0.227045 0.680404
vt 0.244190 0.671883
vt 0.244344 0.674850
vt 0.169020 0.629863
vt 0.214826 0.673007
vt 0.167677 0.623043
vt 0.147927 0.626798
vt 0.123206 0.613203
vt 0.114376 0.651938
vt 0.075076 0.594067
vt 0.089176 0.639881
vt 0.063032 0.638725
vt 0.057675 0.655422
vt 0.057849 0.647423
vt 0.071100 0.677500
vt 0.074500 0.674200
vt 0.073900 0.674900
vt 0.096159 0.676403
vt 0.093141 0.686318
vt 0.239189 0.679843
vt 0.234058 0.685973
vt 0.244267 0.678406
vt 0.244447 0.681380
vt 0.237910 0.685948
vt 0.244512 0.684059
vt 0.227304 0.686113
vt 0.210039 0.682188
vt 0.220023 0.685829
vt 0.212812 0.685909
vt 0.208781 0.686328
vt 0.202741 0.686128
vt 0.198196 0.682696
vt 0.198067 0.685734
vt 0.159150 0.648866
vt 0.171422 0.643619
vt 0.163344 0.636210
vt 0.153656 0.636240
vt 0.124672 0.647471
vt 0.168807 0.682623
vt 0.155800 0.685948
vt 0.186727 0.683569
vt 0.182445 0.686632
vt 0.169710 0.684090
vt 0.190616 0.686078
vt 0.187277 0.686223
vt 0.169082 0.683510
vt 0.138706 0.683113
vt 0.126460 0.685940
vt 0.120420 0.680404
vt 0.128143 0.668691
vt 0.120765 0.686263
vt 0.115803 0.686104
vt 0.106080 0.681816
vt 0.106862 0.686527
vt 0.104345 0.685812
vt 0.112547 0.672239
vt 0.244498 0.686124
vt 0.060027 0.571687
vt 0.064439 0.686117
vt 0.058602 0.674411
vt 0.144181 0.687371
vt 0.139264 0.687333
vt 0.091329 0.498927
vt 0.105841 0.499999
vt 0.058622 0.673589
vt 0.138695 0.686977
vt 0.059027 0.546809
vt 0.243350 0.499533
vt 0.244464 0.499584
vt 0.244408 0.501273
vt 0.182966 0.499159
vt 0.186029 0.499351
vt 0.098545 0.684664
vt 0.244599 0.506323
vt 0.059032 0.527565
vt 0.057079 0.515145
vt 0.056180 0.601058
vt 0.056399 0.584859
vt 0.060036 0.539777
vt 0.138941 0.500274
vt 0.135600 0.499732
vt 0.153788 0.498924
vt 0.224708 0.685856
vt 0.156784 0.500034
vt 0.058112 0.642783
vt 0.235262 0.499949
vt 0.171543 0.499879
vt 0.117964 0.499395
vt 0.129329 0.499724
vt 0.207486 0.499816
vt 0.057934 0.670257
vt 0.245300 0.571176
vt 0.245245 0.585991
vt 0.178368 0.499312
vt 0.243882 0.669093
vt 0.146754 0.500491
vt 0.244415 0.628068
vt 0.134720 0.686707
vt 0.202707 0.499759
vt 0.057190 0.635091
vt 0.244692 0.515218
vt 0.193349 0.686007
vt 0.086779 0.499662
vt 0.243696 0.654988
vt 0.235567 0.685908
vt 0.059365 0.686050
vt 0.056948 0.500104
vn 0.6299 0.7435 0.2247
vn 0.7248 0.4970 0.4769
vn 0.5072 0.8617 -0.0096
vn 0.7993 0.3736 0.4707
vn -0.1840 0.8809 0.4361
vn -0.4002 0.5240 0.7518
vn -0.5180 0.7913 0.3247
vn -0.0197 0.8744 0.4848
vn 0.5154 0.6540 0.5537
vn -0.0079 0.6102 0.7922
vn 0.1901 0.8693 0.4562
vn -0.1173 0.9431 0.3111
vn -0.0610 0.9652 0.2540
vn -0.6789 0.7110 0.1831
vn -0.1285 0.9136 0.3858
vn -0.0676 0.7698 0.6347
vn -0.4512 0.7826 0.4288
vn 0.1601 0.7012 0.6948
vn 0.0406 0.5290 0.8477
vn -0.0971 0.9460 0.3092
vn -0.1664 0.9368 0.3077
vn -0.1692 0.9631 0.2093
vn 0.0182 0.9561 0.2925
vn 0.0804 0.9422 0.3252
vn 0.0100 0.9331 0.3594
vn 0.0552 0.9498 0.3080
vn 0.0473 0.9230 0.3818
vn 0.0405 0.9580 0.2837
vn -0.0240 0.9636 0.2662
vn 0.0009 0.9642 0.2652
vn -0.0318 0.9450 0.3254
vn -0.0778 0.9502 0.3016
vn 0.1179 0.9731 0.1976
vn 0.0028 0.9764 0.2159
vn -0.0220 0.9467 0.3212
vn -0.2690 0.9083 0.3202
vn -0.3288 0.8877 0.3222
vn -0.3480 0.9049 0.2451
vn -0.1469 0.9661 0.2122
vn -0.6231 0.6661 0.4099
vn -0.8117 0.5772 -0.0888
vn -0.6902 0.4623 0.5567
vn 0.0486 0.9861 0.1590
vn -0.1257 0.9663 0.2246
vn 0.0593 0.9912 0.1183
vn 0.0207 0.9736 0.2273
vn 0.0319 0.9879 0.1520
vn 0.1125 0.9774 0.1791
vn 0.1156 0.9604 0.2534
vn 0.0871 0.9797 0.1803
vn 0.0696 0.9621 0.2637
vn 0.2262 0.9521 0.2056
vn 0.1449 0.9578 0.2483
vn 0.0735 0.9519 0.2975
vn 0.2344 0.9397 0.2491
vn 0.2861 0.8914 0.3513
vn 0.2584 0.9274 0.2706
vn 0.4310 0.8521 0.2969
vn 0.2706 0.8350 0.4791
vn 0.4529 0.8495 0.2705
vn 0.2177 0.7835 0.5820
vn 0.1547 0.8892 0.4306
vn 0.3683 0.6888 0.6243
vn 0.4993 0.8441 0.1952
vn 0.0681 0.5199 0.8515
vn 0.0065 0.3841 0.9232
vn 0.3899 0.8274 0.4042
vn 0.1057 0.9048 0.4125
vn 0.2981 0.9007 0.3160
vn 0.3636 0.9189 0.1528
vn 0.2548 0.9602 0.1145
vn 0.5341 0.7479 0.3942
vn 0.2403 0.9587 0.1522
vn 0.3264 0.9436 0.0551
vn 0.3795 0.9214 0.0833
vn 0.3382 0.9408 -0.0199
vn 0.4899 0.8654 0.1051
vn 0.4218 0.9067 -0.0048
vn 0.3957 0.9168 0.0529
vn 0.7277 0.0814 0.6810
vn 0.6876 0.6408 0.3415
vn 0.8881 0.4575 0.0435
vn 0.5178 0.6072 0.6027
vn 0.3640 0.8444 0.3931
vn 0.5640 0.3898 0.7279
vn 0.4893 0.4277 0.7600
vn 0.3835 0.4548 0.8037
vn -0.0020 0.5463 0.8375
vn 0.6846 0.6459 -0.3377
vn 0.7952 0.6045 0.0468
vn 0.6246 0.7802 0.0330
vn 0.5862 0.6858 -0.4312
vn 0.9239 0.3794 -0.0496
vn 0.8786 0.3463 0.3289
vn 0.6451 0.7342 0.2115
vn 0.6917 0.5824 0.4269
vn 0.3043 0.9314 0.1996
vn 0.2942 0.9386 0.1800
vn 0.3987 0.8890 0.2251
vn 0.1706 0.7451 0.6447
vn 0.3540 0.9136 0.1998
vn 0.2979 0.9278 0.2244
vn 0.3152 0.9347 0.1642
vn 0.4947 -0.7973 0.3457
vn 0.6658 0.7136 0.2178
vn 0.5056 0.8319 0.2286
vn 0.8943 0.4354 0.1032
vn 0.8935 0.4198 0.1593
vn 0.1886 0.8885 0.4182
vn 0.5004 0.8614 -0.0869
vn 0.8496 0.5213 -0.0797
vn 0.5435 0.7833 -0.3017
vn 0.3936 0.9079 -0.1442
vn 0.8714 0.4880 0.0509
vn 0.7147 0.6413 -0.2791
vn 0.6800 0.7285 0.0825
vn 0.4791 0.7967 -0.3684
vn 0.5020 0.7620 0.4091
vn 0.6459 0.7624 -0.0391
vn -0.6494 0.4938 0.5783
vn 0.1802 0.9699 0.1636
vn 0.4534 0.8910 -0.0213
vn 0.4292 0.9032 0.0075
vn 0.3783 0.9236 0.0615
vn 0.3392 0.7877 -0.5142
vn -0.3612 0.9066 0.2179
vn -0.2603 0.9567 0.1306
vn 0.3731 0.9276 0.0163
vn 0.3023 0.4834 -0.8215
vn 0.2332 0.9658 0.1129
vn -0.1646 0.9239 0.3454
vn -0.1670 0.9220 0.3493
vn -0.1640 0.9243 0.3446
vn -0.2822 0.9292 0.2385
vn -0.2472 0.9602 0.1296
vn 0.7622 0.5830 0.2813
vn -0.0926 0.9029 0.4198
vn -0.0403 0.9869 0.1559
vn -0.1574 0.9752 0.1552
vn 0.3233 0.9442 0.0623
vn 0.2624 0.9602 0.0952
vn 0.0630 0.9874 0.1451
vn -0.4243 0.8304 0.3611
vn -0.2179 0.9243 0.3132
vn -0.7604 0.6489 0.0252
vn 0.8310 0.5557 0.0269
vn -0.4948 0.8380 -0.2300
vn 0.4927 0.8262 0.2730
vn -0.1687 0.9510 0.2591
vn -0.2378 0.9426 0.2344
vn -0.1212 0.9348 0.3340
vn -0.1788 0.9303 0.3201
vn -0.1874 0.9661 0.1772
vn 0.3257 0.9454 -0.0019
vn 0.1103 0.9468 0.3021
vn 0.1537 0.9240 0.3500
vn -0.2449 0.8902 0.3840
vn 0.7654 0.6233 -0.1602
vn -0.8880 0.4596 0.0136
vn 0.1437 0.9350 0.3242
vn 0.7820 0.5870 -0.2094
vn -0.1310 0.9535 0.2713
vn 0.2981 0.9515 0.0761
vn -0.7692 0.6320 0.0937
vn 0.8666 0.4971 0.0433
vn -0.3128 0.9307 0.1893
vn 0.4799 0.8348 0.2698
vn 0.2827 0.7110 0.6439
vn 0.4659 0.8848 -0.0031
vn -0.2774 0.9487 0.1516
s 1
f 1/1/1 138/2/2 137/3/3
f 1/1/1 141/4/4 138/2/2
f 2/5/5 107/6/6 108/7/7
f 3/8/8 105/9/9 106/10/10
f 3/8/8 104/11/11 105/9/9
f 106/10/10 2/5/5 3/8/8
f 4/12/12 104/11/11 3/8/8
f 5/13/13 4/12/12 3/8/8
f 5/13/13 3/8/8 2/5/5
f 4/12/12 98/14/14 99/15/15
f 2/5/5 108/7/7 109/16/16
f 6/17/17 98/14/14 4/12/12
f 6/17/17 91/18/18 96/19/19
f 11/20/20 4/12/12 5/13/13
f 15/21/21 90/22/22 11/20/20
f 2/5/5 109/16/16 103/23/23
f 7/24/24 122/25/25 119/26/26
f 7/24/24 118/27/27 122/25/25
f 102/28/28 7/24/24 8/29/29
f 5/13/13 103/23/23 101/30/30
f 5/13/13 102/28/28 8/29/29
f 9/31/31 8/29/29 7/24/24
f 5/13/13 8/29/29 10/32/32
f 11/20/20 5/13/13 10/32/32
f 12/33/33 10/32/32 8/29/29
f 14/34/34 10/32/32 12/33/33
f 13/35/35 10/32/32 14/34/34
f 13/35/35 11/20/20 10/32/32
f 16/36/36 15/21/21 17/37/37
f 15/21/21 11/20/20 13/35/35
f 17/37/37 15/21/21 13/35/35
f 17/37/37 88/38/38 16/36/36
f 18/39/39 17/37/37 13/35/35
f 18/39/39 13/35/35 14/34/34
f 19/40/40 82/41/41 84/42/42
f 20/43/43 70/44/44 69/45/45
f 20/43/43 100/46/46 70/44/44
f 20/43/43 26/47/47 24/48/48
f 26/47/47 29/49/49 24/48/48
f 27/50/50 29/49/49 26/47/47
f 26/47/47 28/51/51 27/50/50
f 12/33/33 28/51/51 26/47/47
f 14/34/34 12/33/33 26/47/47
f 18/39/39 14/34/34 26/47/47
f 12/33/33 8/29/29 28/51/51
f 8/29/29 9/31/31 28/51/51
f 27/50/50 28/51/51 29/49/49
f 28/51/51 30/52/52 29/49/49
f 28/51/51 31/53/53 30/52/52
f 28/51/51 9/31/31 31/53/53
f 9/31/31 7/24/24 31/53/53
f 119/26/26 31/53/53 7/24/24
f 120/54/54 32/55/55 31/53/53
f 31/53/53 32/55/55 30/52/52
f 129/56/56 33/57/57 32/55/55
f 130/58/58 34/59/59 33/57/57
f 34/59/59 132/60/60 35/61/61
f 34/59/59 35/61/61 36/62/62
f 33/57/57 34/59/59 36/62/62
f 35/61/61 37/63/63 36/62/62
f 38/64/64 33/57/57 36/62/62
f 37/63/63 134/65/65 135/66/66
f 30/52/52 32/55/55 33/57/57
f 30/52/52 33/57/57 40/67/67
f 40/67/67 33/57/57 38/64/64
f 40/67/67 38/64/64 41/68/68
f 39/69/69 30/52/52 40/67/67
f 29/49/49 30/52/52 39/69/69
f 54/70/70 29/49/49 39/69/69
f 24/48/48 29/49/49 25/71/71
f 25/71/71 42/72/72 24/48/48
f 24/48/48 42/72/72 21/73/73
f 21/73/73 42/72/72 23/74/74
f 22/75/75 21/73/73 23/74/74
f 22/75/75 123/76/76 115/77/77
f 43/78/78 44/79/79 1/1/1
f 45/80/80 43/78/78 44/79/79
f 23/74/74 1/1/1 44/79/79
f 1/1/1 42/72/72 46/81/81
f 23/74/74 42/72/72 1/1/1
f 1/1/1 142/82/82 141/4/4
f 37/63/63 47/83/83 36/62/62
f 36/62/62 47/83/83 38/64/64
f 47/83/83 164/84/84 38/64/64
f 47/83/83 166/85/85 167/86/86
f 169/87/87 47/83/83 168/88/88
f 38/64/64 164/84/84 163/89/89
f 41/68/68 38/64/64 48/90/90
f 48/90/90 161/91/91 160/92/92
f 48/90/90 160/92/92 158/93/93
f 48/90/90 159/94/94 49/95/95
f 41/68/68 48/90/90 49/95/95
f 49/95/95 159/94/94 157/96/96
f 50/97/97 41/68/68 49/95/95
f 40/67/67 41/68/68 51/98/98
f 51/98/98 41/68/68 50/97/97
f 52/99/99 39/69/69 40/67/67
f 54/70/70 39/69/69 52/99/99
f 52/99/99 40/67/67 51/98/98
f 52/99/99 51/98/98 50/97/97
f 53/100/100 52/99/99 50/97/97
f 54/70/70 52/99/99 53/100/100
f 54/70/70 53/100/100 50/97/97
f 29/49/49 54/70/70 25/71/71
f 25/71/71 54/70/70 50/97/97
f 25/71/71 50/97/97 55/101/101
f 50/97/97 56/102/102 55/101/101
f 56/102/102 127/103/103 55/101/101
f 50/97/97 49/95/95 56/102/102
f 56/102/102 49/95/95 57/104/104
f 56/102/102 152/105/105 153/106/106
f 57/104/104 155/107/107 154/108/108
f 49/95/95 155/107/107 57/104/104
f 56/102/102 153/106/106 126/109/109
f 127/103/103 58/110/110 55/101/101
f 58/110/110 148/111/111 60/112/112
f 59/113/113 58/110/110 60/112/112
f 60/112/112 147/114/114 146/115/115
f 61/116/116 145/117/117 144/118/118
f 61/116/116 146/115/115 145/117/117
f 61/116/116 62/119/119 60/112/112
f 46/81/81 62/119/119 61/116/116
f 62/119/119 59/113/113 60/112/112
f 42/72/72 62/119/119 46/81/81
f 42/72/72 55/101/101 62/119/119
f 62/119/119 55/101/101 59/113/113
f 59/113/113 55/101/101 58/110/110
f 42/72/72 25/71/71 55/101/101
f 168/88/88 170/120/120 169/87/87
f 110/121/121 24/48/48 21/73/73
f 136/122/122 139/123/123 43/78/78
f 90/22/22 4/12/12 11/20/20
f 128/124/124 151/125/125 58/110/110
f 71/126/126 78/127/127 18/39/39
f 125/128/128 43/78/78 139/123/123
f 151/125/125 150/129/129 58/110/110
f 69/45/45 68/130/130 20/43/43
f 93/131/131 95/132/132 94/133/133
f 73/134/134 72/135/135 15/21/21
f 143/136/136 142/82/82 46/81/81
f 91/18/18 4/12/12 92/137/137
f 66/138/138 65/139/139 18/39/39
f 112/140/140 111/141/141 21/73/73
f 67/142/142 20/43/43 68/130/130
f 86/143/143 17/37/37 81/144/144
f 148/111/111 147/114/114 60/112/112
f 85/145/145 19/40/40 84/42/42
f 163/89/89 162/146/146 38/64/64
f 85/145/145 87/147/147 17/37/37
f 162/146/146 161/91/91 38/64/64
f 115/77/77 114/148/148 22/75/75
f 92/137/137 76/149/149 94/133/133
f 88/38/38 89/150/150 16/36/36
f 80/151/151 79/152/152 18/39/39
f 77/153/153 76/149/149 4/12/12
f 124/154/154 44/79/79 125/128/128
f 135/66/66 166/85/85 37/63/63
f 116/155/155 117/156/156 7/24/24
f 74/157/157 73/134/134 15/21/21
f 132/60/60 133/158/158 35/61/61
f 74/157/157 16/36/36 89/150/150
f 83/159/159 82/41/41 19/40/40
f 121/160/160 129/56/56 32/55/55
f 150/129/129 149/161/161 58/110/110
f 72/135/135 75/162/162 15/21/21
f 111/141/141 110/121/121 21/73/73
f 66/138/138 26/47/47 67/142/142
f 133/158/158 134/65/65 35/61/61
f 154/108/108 152/105/105 57/104/104
f 78/127/127 80/151/151 18/39/39
f 143/136/136 61/116/116 144/118/118
f 79/152/152 17/37/37 18/39/39
f 117/156/156 118/27/27 7/24/24
f 114/148/148 113/163/163 22/75/75
f 124/154/154 123/76/76 23/74/74
f 137/3/3 43/78/78 1/1/1
f 96/19/19 97/164/164 6/17/17
f 157/96/96 156/165/165 49/95/95
f 63/166/166 71/126/126 18/39/39
f 112/140/140 22/75/75 113/163/163
f 86/143/143 83/159/159 19/40/40
f 65/139/139 63/166/166 18/39/39
f 106/10/10 107/6/6 2/5/5
f 4/12/12 99/15/15 104/11/11
f 6/17/17 97/164/164 98/14/14
f 15/21/21 75/162/162 90/22/22
f 102/28/28 116/155/155 7/24/24
f 5/13/13 2/5/5 103/23/23
f 5/13/13 101/30/30 102/28/28
f 17/37/37 87/147/147 88/38/38
f 20/43/43 24/48/48 100/46/46
f 119/26/26 120/54/54 31/53/53
f 120/54/54 121/160/160 32/55/55
f 129/56/56 130/58/58 33/57/57
f 130/58/58 131/167/167 34/59/59
f 34/59/59 131/167/167 132/60/60
f 37/63/63 35/61/61 134/65/65
f 22/75/75 23/74/74 123/76/76
f 1/1/1 46/81/81 142/82/82
f 47/83/83 165/168/168 164/84/84
f 47/83/83 37/63/63 166/85/85
f 165/168/168 47/83/83 169/87/87
f 47/83/83 167/86/86 168/88/88
f 48/90/90 38/64/64 161/91/91
f 48/90/90 158/93/93 159/94/94
f 56/102/102 126/109/109 127/103/103
f 56/102/102 57/104/104 152/105/105
f 49/95/95 156/165/165 155/107/107
f 127/103/103 128/124/124 58/110/110
f 58/110/110 149/161/161 148/111/111
f 61/116/116 60/112/112 146/115/115
f 110/121/121 100/46/46 24/48/48
f 136/122/122 140/169/169 139/123/123
f 90/22/22 77/153/153 4/12/12
f 125/128/128 44/79/79 43/78/78
f 91/18/18 6/17/17 4/12/12
f 67/142/142 26/47/47 20/43/43
f 86/143/143 19/40/40 17/37/37
f 85/145/145 17/37/37 19/40/40
f 4/12/12 76/149/149 92/137/137
f 76/149/149 93/131/131 94/133/133
f 124/154/154 23/74/74 44/79/79
f 74/157/157 15/21/21 16/36/36
f 66/138/138 18/39/39 26/47/47
f 143/136/136 46/81/81 61/116/116
f 79/152/152 81/144/144 17/37/37
f 137/3/3 136/122/122 43/78/78
f 112/140/140 21/73/73 22/75/75
f 65/139/139 64/170/170 63/166/166
