# Blender v2.82 (sub 7) OBJ File: 'LODTerrain.blend'
# www.blender.org
o lod_1_108_Cube.108
v 884.338379 5.090625 -360.934296
v 876.897278 2.841589 -348.239899
v 907.053284 15.281422 -349.662842
v 936.704285 28.829325 -355.389801
v 909.987427 18.305027 -338.724823
v 877.014648 2.006060 -340.813568
v 850.750366 -6.324213 -368.373108
v 828.073853 -10.397320 -331.111969
v 815.962708 -5.727570 -361.681030
v 798.466553 -7.516621 -377.551025
v 776.714600 -17.450380 -333.977661
v 773.119080 -18.866665 -308.002930
v 813.176941 -15.555037 -298.830353
v 856.486572 -0.246469 -318.439209
v 851.047180 3.046722 -297.323059
v 841.237305 -2.059676 -294.652405
v 837.673279 -6.267042 -247.714554
v 797.435059 -17.121977 -296.673889
v 862.071655 3.940631 -264.661835
v 885.285889 12.947088 -273.549896
v 886.653931 13.552591 -302.882507
v 897.806824 19.165907 -298.899689
v 917.432922 21.652828 -277.571411
v 880.760742 8.789650 -312.785950
v 892.427490 12.524166 -323.824768
v 901.920532 13.731104 -326.022675
v 909.173706 21.839142 -324.452209
v 915.337463 20.998600 -326.742950
v 911.967712 23.173162 -313.976593
v 922.437683 27.129440 -299.043243
v 911.613770 15.896439 -268.344360
v 939.558167 23.104076 -278.529205
v 952.941772 24.613758 -291.558533
v 947.969360 27.939644 -327.742828
v 912.921021 11.595987 -245.602783
v 926.606873 16.474890 -229.294510
v 943.627991 27.106808 -215.193207
v 951.503174 34.666069 -194.863403
v 938.334351 30.110817 -194.397675
v 944.426086 35.552887 -204.570740
v 946.633301 23.561836 -227.554901
v 935.332153 24.580650 -207.632782
v 925.019958 26.751350 -198.149933
v 918.428589 18.272766 -203.286835
v 877.818970 3.957145 -212.865143
v 885.614380 5.483134 -224.958069
v 824.756958 -8.656351 -229.696548
v 785.789185 -10.330261 -257.246613
v 800.890198 -6.727091 -215.023834
v 783.136292 1.466279 -195.427002
v 826.627686 -5.879326 -199.619598
v 933.367737 22.228699 -226.135086
v 947.749878 32.704117 -219.529572
v 780.344788 -7.023312 -375.747833
v 952.164795 27.994032 -362.036407
v 930.129761 23.896114 -365.509705
v 936.728394 29.875099 -190.625000
v 940.477783 30.827522 -190.625000
v 953.125000 36.746368 -191.229477
v 953.125000 36.701679 -190.625000
v 934.679688 29.043413 -190.625000
v 925.208313 26.572857 -190.625000
v 911.158875 19.630089 -190.625000
v 916.791748 21.813393 -190.625000
v 922.432739 22.879272 -190.625000
v 953.125000 35.971478 -195.305206
v 953.125000 35.588459 -194.042740
v 953.125000 39.111992 -200.855820
v 953.125000 35.415901 -205.536102
v 953.125000 31.835840 -214.943100
v 884.780212 8.819271 -190.625000
v 875.263062 7.040282 -190.625000
v 856.660950 4.628553 -190.625000
v 953.125000 32.831139 -216.191132
v 953.125000 32.660858 -219.302032
v 953.125000 30.710802 -225.159576
v 953.125000 26.242336 -229.459015
v 953.125000 25.251408 -243.101074
v 953.125000 25.540058 -234.167389
v 953.125000 26.128525 -261.623901
v 953.125000 26.313019 -262.523102
v 953.125000 22.343472 -283.442505
v 953.125000 26.334429 -264.068146
v 953.125000 24.576813 -291.528320
v 953.125000 24.688103 -292.186157
v 953.125000 28.137177 -326.536255
v 953.125000 27.948921 -361.662231
v 953.125000 28.173615 -360.830566
v 953.125000 28.724436 -330.988678
v 953.125000 27.575596 -362.061462
v 953.125000 27.557930 -362.829590
v 944.007019 17.584713 -381.250000
v 943.782593 17.560520 -381.250000
v 953.125000 24.259886 -370.163269
v 953.125000 20.881031 -377.240967
v 944.315002 17.631407 -381.250000
v 953.125000 19.653774 -379.768494
v 953.125000 18.788040 -381.250000
v 952.717957 18.874207 -381.250000
v 936.317017 16.887175 -381.250000
v 919.534058 14.877796 -381.250000
v 916.288513 13.454843 -381.250000
v 874.116577 -1.103523 -381.250000
v 870.476868 -2.219003 -381.250000
v 834.061157 0.036285 -190.625000
v 828.652893 -1.767687 -190.625000
v 817.013184 -2.864924 -190.625000
v 783.568604 2.228099 -190.625000
v 780.537598 2.842360 -190.625000
v 775.615540 3.937081 -190.625000
v 832.552856 -1.079494 -190.625000
v 762.500000 8.114989 -206.086380
v 762.500000 2.922449 -230.000244
v 762.500000 8.427058 -202.456696
v 762.500000 8.321047 -190.625000
v 762.500000 2.067845 -234.196716
v 762.500000 -8.590927 -265.316498
v 762.500000 -15.872070 -285.530273
v 762.500000 -17.394577 -295.283020
v 762.500000 -19.751909 -308.043823
v 762.500000 -18.969879 -326.246338
v 762.500000 -18.804892 -333.901062
v 762.500000 -14.370296 -342.967438
v 838.592346 -1.188926 -381.250000
v 852.357422 -4.866740 -381.250000
v 816.558838 0.561392 -381.250000
v 812.467896 -0.849273 -381.250000
v 812.292053 -0.918180 -381.250000
v 762.500000 -7.639355 -364.052582
v 762.500000 -4.032396 -377.844574
v 800.929810 -4.039316 -381.250000
v 798.590942 -5.675606 -381.250000
v 792.442444 -5.178712 -381.250000
v 781.474365 -4.328179 -381.250000
v 778.694336 -1.608648 -381.250000
v 776.497070 -2.956282 -381.250000
v 762.500000 -1.724779 -381.250000
vt 0.141448 0.329334
vt 0.125968 0.349530
vt 0.128864 0.330743
vt 0.143408 0.359193
vt 0.158000 0.386088
vt 0.142828 0.407794
vt 0.159953 0.356710
vt 0.151578 0.414636
vt 0.170098 0.387996
vt 0.168202 0.357546
vt 0.180834 0.380975
vt 0.147843 0.297998
vt 0.176642 0.310012
vt 0.126775 0.293110
vt 0.130857 0.281108
vt 0.174431 0.256511
vt 0.200332 0.253206
vt 0.207786 0.294160
vt 0.213575 0.319629
vt 0.188302 0.336375
vt 0.209792 0.330090
vt 0.210266 0.278558
vt 0.254996 0.321022
vt 0.242155 0.341845
vt 0.232472 0.367012
vt 0.204750 0.366244
vt 0.207542 0.376041
vt 0.229485 0.395694
vt 0.184236 0.370849
vt 0.192370 0.390272
vt 0.195505 0.359861
vt 0.180212 0.394780
vt 0.183284 0.387863
vt 0.208868 0.401708
vt 0.237932 0.391403
vt 0.226734 0.418200
vt 0.243694 0.430859
vt 0.242042 0.430885
vt 0.212895 0.431677
vt 0.181249 0.421865
vt 0.223298 0.432229
vt 0.212971 0.431871
vt 0.244456 0.430761
vt 0.257221 0.390203
vt 0.279502 0.370695
vt 0.276525 0.404533
vt 0.276945 0.303827
vt 0.278093 0.424496
vt 0.262011 0.430809
vt 0.290132 0.357646
vt 0.289254 0.422247
vt 0.298617 0.430910
vt 0.289917 0.430348
vt 0.310611 0.416715
vt 0.314381 0.414930
vt 0.314349 0.418705
vt 0.313711 0.431089
vt 0.309379 0.429376
vt 0.303428 0.430691
vt 0.300125 0.422515
vt 0.296985 0.414575
vt 0.285744 0.425442
vt 0.288851 0.430258
vt 0.285755 0.430748
vt 0.280103 0.430767
vt 0.275978 0.430842
vt 0.307279 0.402956
vt 0.301288 0.396142
vt 0.313578 0.399841
vt 0.314076 0.412719
vt 0.313415 0.395687
vt 0.312400 0.364747
vt 0.313021 0.389132
vt 0.313130 0.355100
vt 0.314194 0.335313
vt 0.305196 0.307301
vt 0.313258 0.313758
vt 0.248566 0.268208
vt 0.287504 0.281392
vt 0.310855 0.264197
vt 0.314171 0.309583
vt 0.313343 0.312569
vt 0.278479 0.410636
vt 0.314127 0.298098
vt 0.182055 0.243330
vt 0.132280 0.260785
vt 0.148861 0.430643
vt 0.147723 0.429669
vt 0.148002 0.430620
vt 0.147666 0.430615
vt 0.146810 0.430596
vt 0.127104 0.421424
vt 0.200222 0.243352
vt 0.214313 0.243167
vt 0.315359 0.261764
vt 0.315410 0.264821
vt 0.212346 0.431855
vt 0.271452 0.430946
vt 0.129042 0.317975
vt 0.127117 0.421647
vt 0.138716 0.430640
vt 0.166107 0.244047
vt 0.173216 0.244096
vt 0.270128 0.244949
vt 0.241795 0.245558
vt 0.300954 0.245231
vt 0.315336 0.256507
vt 0.127200 0.257186
vt 0.131496 0.244113
vt 0.145325 0.243825
vt 0.129014 0.298013
vt 0.126774 0.293267
vt 0.125403 0.352890
vt 0.127306 0.413103
vt 0.127188 0.398178
vt 0.126907 0.259487
vt 0.127096 0.421952
vt 0.128458 0.430439
vt 0.127014 0.429924
vt 0.127071 0.430413
vt 0.126615 0.274673
vt 0.310294 0.430972
vt 0.308881 0.430865
vt 0.127436 0.283336
vt 0.296443 0.245355
vt 0.223915 0.243615
vt 0.127416 0.281064
vt 0.274012 0.244810
vt 0.126925 0.394765
vt 0.182316 0.428648
vt 0.177897 0.427967
vt 0.126279 0.262454
vt 0.314140 0.402810
vt 0.130927 0.430659
vt 0.313951 0.243980
vt 0.128184 0.244111
vt 0.314311 0.431072
vn -0.0903 0.9930 0.0757
vn -0.2650 0.9590 -0.1002
vn 0.0424 0.9922 0.1176
vn -0.3449 0.9340 -0.0930
vn -0.3984 0.9109 -0.1078
vn -0.2622 0.9166 -0.3019
vn -0.3896 0.9201 0.0395
vn -0.1894 0.9760 -0.1073
vn -0.3896 0.9202 -0.0379
vn -0.3645 0.9304 -0.0390
vn -0.3911 0.8867 -0.2464
vn -0.0998 0.9730 0.2080
vn -0.2023 0.9787 0.0333
vn -0.3388 0.8866 0.3147
vn -0.1450 0.9303 0.3368
vn -0.0748 0.9838 0.1631
vn -0.0678 0.9965 -0.0485
vn -0.2328 0.9724 -0.0163
vn -0.4148 0.9097 -0.0174
vn -0.3035 0.9365 -0.1757
vn -0.4082 0.9089 -0.0847
vn -0.0588 0.9961 -0.0654
vn -0.2622 0.9649 0.0126
vn -0.3405 0.9365 0.0835
vn -0.2658 0.9512 0.1563
vn -0.3607 0.9240 -0.1267
vn -0.3635 0.9315 -0.0108
vn -0.1374 0.9322 0.3347
vn -0.3322 0.9041 -0.2688
vn -0.2662 0.9538 -0.1392
vn -0.3470 0.9142 -0.2091
vn -0.2253 0.9524 -0.2052
vn -0.4135 0.8213 -0.3931
vn -0.1439 0.9878 0.0593
vn -0.1832 0.9389 0.2914
vn -0.0713 0.9937 0.0867
vn -0.2564 0.9602 0.1104
vn -0.1928 0.9805 -0.0381
vn 0.1062 0.9781 0.1787
vn -0.1106 0.9930 0.0399
vn 0.0858 0.9928 0.0833
vn 0.1578 0.9626 0.2204
vn -0.2875 0.9478 0.1383
vn -0.2568 0.9633 0.0772
vn -0.2631 0.9623 -0.0683
vn -0.3502 0.9289 -0.1205
vn -0.1051 0.9889 -0.1046
vn -0.3938 0.8643 -0.3127
vn -0.3219 0.9467 0.0057
vn -0.2603 0.9604 -0.0987
vn -0.4906 0.8359 -0.2459
vn -0.1389 0.8141 -0.5639
vn -0.4436 0.8828 0.1541
vn -0.3727 0.9268 -0.0450
vn -0.3272 0.9415 -0.0805
vn -0.3648 0.9306 0.0305
vn -0.3862 0.9153 -0.1138
vn -0.4236 0.9044 0.0498
vn -0.3930 0.9186 0.0403
vn -0.4195 0.8780 -0.2303
vn -0.4691 0.8375 -0.2803
vn -0.5122 0.8551 -0.0806
vn -0.2643 0.8811 0.3920
vn 0.0157 0.9829 -0.1835
vn -0.3468 0.7296 -0.5894
vn -0.4474 0.8008 -0.3980
vn -0.5016 0.8349 -0.2264
vn -0.3422 0.9025 -0.2615
vn -0.6096 0.7871 -0.0936
vn -0.2836 0.9589 -0.0034
vn -0.2247 0.9432 -0.2446
vn -0.3027 0.9465 -0.1122
vn -0.3623 0.9256 -0.1091
vn -0.1699 0.9706 -0.1703
vn -0.1450 0.9668 -0.2103
vn -0.2284 0.9610 -0.1559
vn -0.3670 0.9227 -0.1179
vn 0.1245 0.9713 -0.2026
vn -0.0245 0.9315 -0.3628
vn 0.2343 0.9643 -0.1231
vn -0.1295 0.9125 -0.3880
vn -0.4809 0.8647 -0.1446
vn -0.3715 0.8292 -0.4176
vn 0.0900 0.9693 -0.2286
vn -0.0871 0.9955 0.0355
vn 0.1057 0.9172 0.3840
vn -0.0968 0.9928 -0.0707
vn 0.0394 0.9605 -0.2755
vn 0.2101 0.8763 -0.4334
vn 0.3714 0.8715 -0.3203
vn 0.1712 0.9361 -0.3073
vn -0.0916 0.8937 -0.4392
vn -0.0826 0.9942 -0.0689
vn -0.0551 0.9856 -0.1600
vn 0.2081 0.9643 -0.1637
vn 0.1712 0.9705 -0.1694
vn -0.0405 0.9935 0.1059
vn -0.3450 0.9368 -0.0584
vn 0.1216 0.9561 0.2665
vn -0.1106 0.8928 -0.4367
vn -0.1285 0.8953 -0.4265
vn -0.0164 0.9377 0.3471
vn -0.0910 0.9686 0.2314
vn 0.2785 0.9346 -0.2212
vn 0.1826 0.9271 -0.3272
vn 0.3329 0.9419 -0.0446
vn 0.2998 0.9537 -0.0212
vn -0.1082 0.7618 0.6387
vn 0.1003 0.8982 0.4280
vn 0.1156 0.9591 0.2582
vn -0.1124 0.9470 0.3009
vn -0.3321 0.8996 0.2835
vn -0.3014 0.9437 -0.1361
vn -0.0914 0.8958 -0.4349
vn -0.3071 0.9001 -0.3090
vn 0.0221 0.7159 0.6979
vn -0.1350 0.8937 -0.4277
vn -0.1082 0.8917 -0.4395
vn 0.0031 0.8846 -0.4663
vn 0.1798 0.8493 -0.4963
vn 0.0696 0.8905 0.4495
vn -0.4347 0.8895 -0.1406
vn -0.5229 0.7720 0.3613
vn -0.3025 0.7867 0.5381
vn 0.3308 0.9345 -0.1309
vn 0.0034 0.9808 -0.1949
vn -0.2691 0.8658 0.4219
vn 0.3098 0.9307 -0.1946
vn -0.3781 0.8980 -0.2250
vn -0.0644 0.9915 0.1129
vn -0.1323 0.9908 0.0295
vn 0.3677 0.8031 0.4689
vn -0.5553 0.8309 0.0336
vn -0.1343 0.8933 -0.4289
vn 0.3170 0.9484 0.0085
vn 0.0726 0.8256 0.5595
vn -0.4203 0.9049 0.0669
s 1
f 7/1/1 104/2/2 125/3/3
f 1/4/4 3/5/5 56/6/6
f 1/4/4 2/7/7 3/5/5
f 56/6/6 3/5/5 4/8/8
f 3/5/5 5/9/9 4/8/8
f 2/7/7 5/9/9 3/5/5
f 2/7/7 6/10/10 5/9/9
f 6/10/10 26/11/11 5/9/9
f 7/1/1 2/7/7 1/4/4
f 7/1/1 6/10/10 2/7/7
f 7/1/1 9/12/12 8/13/13
f 7/1/1 8/13/13 6/10/10
f 9/12/12 128/14/14 10/15/15
f 10/15/15 11/16/16 9/12/12
f 9/12/12 11/16/16 8/13/13
f 11/16/16 12/17/17 13/18/18
f 11/16/16 13/18/18 8/13/13
f 8/13/13 13/18/18 16/19/19
f 8/13/13 16/19/19 14/20/20
f 14/20/20 16/19/19 15/21/21
f 18/22/22 17/23/23 13/18/18
f 13/18/18 17/23/23 16/19/19
f 16/19/19 17/23/23 19/24/24
f 15/21/21 16/19/19 19/24/24
f 15/21/21 19/24/24 20/25/25
f 14/20/20 15/21/21 21/26/26
f 15/21/21 20/25/25 21/26/26
f 19/24/24 17/23/23 20/25/25
f 21/26/26 20/25/25 22/27/27
f 22/27/27 20/25/25 23/28/28
f 25/29/29 22/27/27 29/30/30
f 24/31/31 21/26/26 22/27/27
f 24/31/31 22/27/27 25/29/29
f 14/20/20 21/26/26 24/31/31
f 6/10/10 8/13/13 14/20/20
f 14/20/20 24/31/31 6/10/10
f 6/10/10 24/31/31 25/29/29
f 6/10/10 25/29/29 26/11/11
f 25/29/29 29/30/30 26/11/11
f 5/9/9 26/11/11 28/32/32
f 28/32/32 26/11/11 27/33/33
f 27/33/33 29/30/30 28/32/32
f 26/11/11 29/30/30 27/33/33
f 29/30/30 22/27/27 30/34/34
f 22/27/27 23/28/28 30/34/34
f 20/25/25 31/35/35 23/28/28
f 23/28/28 31/35/35 32/36/36
f 32/36/36 81/37/37 83/38/38
f 30/34/34 23/28/28 32/36/36
f 30/34/34 32/36/36 33/39/39
f 28/32/32 29/30/30 30/34/34
f 30/34/34 33/39/39 34/40/40
f 28/32/32 30/34/34 34/40/40
f 33/39/39 82/41/41 84/42/42
f 31/35/35 80/43/43 81/37/37
f 20/25/25 35/44/44 31/35/35
f 20/25/25 17/23/23 35/44/44
f 17/23/23 46/45/45 35/44/44
f 35/44/44 46/45/45 36/46/46
f 17/23/23 18/22/22 47/47/47
f 35/44/44 36/46/46 41/48/48
f 17/23/23 47/47/47 46/45/45
f 35/44/44 78/49/49 80/43/43
f 46/45/45 47/47/47 45/50/50
f 37/51/51 69/52/52 70/53/53
f 39/54/54 57/55/55 58/56/56
f 59/57/57 38/58/58 39/54/54
f 38/58/58 68/59/59 40/60/60
f 39/54/54 38/58/58 40/60/60
f 40/60/60 69/52/52 37/51/51
f 42/61/61 40/60/60 37/51/51
f 53/62/62 74/63/63 75/64/64
f 53/62/62 75/64/64 76/65/65
f 41/48/48 76/65/65 77/66/66
f 42/61/61 39/54/54 40/60/60
f 42/61/61 43/67/67 39/54/54
f 44/68/68 43/67/67 42/61/61
f 65/69/69 43/67/67 44/68/68
f 43/67/67 61/70/70 39/54/54
f 64/71/71 44/68/68 46/45/45
f 45/50/50 71/72/72 63/73/73
f 63/73/73 46/45/45 45/50/50
f 46/45/45 44/68/68 36/46/46
f 44/68/68 42/61/61 36/46/46
f 72/74/74 45/50/50 47/47/47
f 47/47/47 73/75/75 72/74/74
f 51/76/76 105/77/77 47/47/47
f 48/78/78 47/47/47 18/22/22
f 12/17/17 18/22/22 13/18/18
f 12/17/17 48/78/78 18/22/22
f 48/78/78 49/79/79 47/47/47
f 49/79/79 50/80/80 47/47/47
f 47/47/47 50/80/80 51/76/76
f 51/76/76 106/81/81 111/82/82
f 36/46/46 52/83/83 41/48/48
f 36/46/46 42/61/61 52/83/83
f 52/83/83 42/61/61 37/51/51
f 52/83/83 37/51/51 41/48/48
f 41/48/48 37/51/51 53/62/62
f 53/62/62 70/53/53 74/63/63
f 50/80/80 107/84/84 51/76/76
f 121/85/85 12/17/17 11/16/16
f 54/86/86 11/16/16 10/15/15
f 5/9/9 28/32/32 34/40/40
f 4/8/8 5/9/9 34/40/40
f 34/40/40 88/87/87 55/88/88
f 4/8/8 34/40/40 55/88/88
f 55/88/88 87/89/89 90/90/90
f 55/88/88 90/90/90 91/91/91
f 55/88/88 56/6/6 4/8/8
f 55/88/88 93/92/92 56/6/6
f 120/93/93 119/94/94 12/17/17
f 109/95/95 108/96/96 50/80/80
f 85/97/97 34/40/40 33/39/39
f 78/49/49 41/48/48 79/98/98
f 125/3/3 124/99/99 7/1/1
f 77/66/66 79/98/98 41/48/48
f 92/100/100 55/88/88 94/101/101
f 91/91/91 94/101/101 55/88/88
f 123/102/102 122/103/103 11/16/16
f 116/104/104 49/79/79 48/78/78
f 124/99/99 9/12/12 7/1/1
f 122/103/103 121/85/85 11/16/16
f 117/105/105 116/104/104 48/78/78
f 84/42/42 85/97/97 33/39/39
f 114/106/106 110/107/107 50/80/80
f 136/108/108 130/109/109 54/86/86
f 129/110/110 123/102/102 11/16/16
f 126/111/111 127/112/112 9/12/12
f 107/84/84 106/81/81 51/76/76
f 104/2/2 1/4/4 103/113/113
f 58/56/56 59/57/57 39/54/54
f 105/77/77 73/75/75 47/47/47
f 100/114/114 101/115/115 56/6/6
f 129/110/110 54/86/86 130/109/109
f 135/116/116 136/108/108 54/86/86
f 96/117/117 97/118/118 99/119/119
f 97/118/118 98/120/120 99/119/119
f 133/121/121 54/86/86 10/15/15
f 67/122/122 66/123/123 38/58/58
f 128/14/14 131/124/124 10/15/15
f 112/125/125 50/80/80 49/79/79
f 118/126/126 12/17/17 119/94/94
f 118/126/126 117/105/105 48/78/78
f 131/124/124 132/127/127 10/15/15
f 132/127/127 133/121/121 10/15/15
f 113/128/128 112/125/125 49/79/79
f 102/129/129 103/113/113 1/4/4
f 86/130/130 89/131/131 34/40/40
f 102/129/129 56/6/6 101/115/115
f 83/38/38 82/41/41 32/36/36
f 110/107/107 109/95/95 50/80/80
f 134/132/132 135/116/116 54/86/86
f 61/70/70 57/55/55 39/54/54
f 93/92/92 100/114/114 56/6/6
f 88/87/87 87/89/89 55/88/88
f 9/12/12 127/112/112 128/14/14
f 32/36/36 31/35/35 81/37/37
f 33/39/39 32/36/36 82/41/41
f 31/35/35 35/44/44 80/43/43
f 59/57/57 67/122/122 38/58/58
f 38/58/58 66/123/123 68/59/59
f 40/60/60 68/59/59 69/52/52
f 41/48/48 53/62/62 76/65/65
f 65/69/69 62/133/133 43/67/67
f 43/67/67 62/133/133 61/70/70
f 64/71/71 65/69/69 44/68/68
f 63/73/73 64/71/71 46/45/45
f 72/74/74 71/72/72 45/50/50
f 51/76/76 111/82/82 105/77/77
f 53/62/62 37/51/51 70/53/53
f 50/80/80 108/96/96 107/84/84
f 121/85/85 120/93/93 12/17/17
f 34/40/40 89/131/131 88/87/87
f 55/88/88 92/100/100 93/92/92
f 85/97/97 86/130/130 34/40/40
f 78/49/49 35/44/44 41/48/48
f 95/134/134 96/117/117 94/101/101
f 96/117/117 92/100/100 94/101/101
f 116/104/104 113/128/128 49/79/79
f 124/99/99 126/111/111 9/12/12
f 114/106/106 115/135/135 110/107/107
f 136/108/108 137/136/136 130/109/109
f 104/2/2 7/1/1 1/4/4
f 58/56/56 60/137/137 59/57/57
f 129/110/110 11/16/16 54/86/86
f 96/117/117 95/134/134 97/118/118
f 133/121/121 134/132/132 54/86/86
f 112/125/125 114/106/106 50/80/80
f 118/126/126 48/78/78 12/17/17
f 102/129/129 1/4/4 56/6/6
