# Blender v2.82 (sub 7) OBJ File: 'LODTerrain.blend'
# www.blender.org
o lod_1_253_Cube.253
v 1063.840942 -39.595287 1505.779053
v 1039.463013 -38.831696 1506.118408
v 998.221802 -28.072174 1515.380981
v 977.352905 -15.022194 1483.998291
v 958.074036 -8.150298 1471.885986
v 962.511658 28.496807 1346.339355
v 968.953308 31.133827 1362.953735
v 978.724915 25.626011 1343.250366
v 992.856018 15.907458 1348.196533
v 991.806335 16.369205 1336.703369
v 1104.117920 -3.839977 1346.692871
v 1085.927246 -6.688833 1362.348877
v 1064.720215 -2.153986 1354.551880
v 1087.954590 -22.000862 1407.344971
v 1064.035522 -14.855300 1383.581787
v 1065.581787 -27.092964 1427.456421
v 1033.340942 4.688571 1344.008423
v 978.268005 28.905315 1359.195435
v 983.263428 21.789726 1364.829224
v 998.768982 13.157575 1362.995361
v 1000.245911 10.429245 1370.901001
v 1011.039062 4.736004 1358.122192
v 1013.040466 2.942473 1370.694702
v 1028.960083 0.081533 1358.653320
v 1032.606323 -7.401330 1375.098755
v 1040.683228 -26.167629 1426.764282
v 1022.395325 -12.795299 1398.119019
v 1023.932983 -18.838966 1412.331543
v 1018.894775 -11.408882 1417.913330
v 1021.737122 -20.844387 1425.527832
v 1010.549988 -13.702566 1421.450317
v 1013.176147 -7.036590 1415.554199
v 1003.152405 -4.963665 1408.117798
v 1009.529907 10.314464 1398.591187
v 1008.674377 16.583199 1385.858765
v 1026.094116 -8.285873 1383.402222
v 1017.826416 7.549462 1388.036255
v 1015.903931 12.010577 1379.180420
v 1004.777893 17.435165 1379.276489
v 990.843567 18.536507 1377.496826
v 1000.755371 19.008713 1391.321045
v 988.085876 11.888057 1390.316528
v 970.793213 27.118942 1376.777588
v 972.351196 19.197540 1384.562988
v 962.396667 23.347118 1392.488281
v 953.918579 21.173756 1398.879883
v 962.128479 7.841158 1418.722412
v 977.408081 -5.989192 1435.104492
v 992.038330 -7.521377 1419.966064
v 1012.763794 -19.834564 1446.700195
v 1005.144165 -21.450436 1462.292114
v 1076.783936 -31.872227 1466.442871
v 1086.716919 -36.626480 1481.336792
v 1118.560791 -25.975700 1453.285156
v 1136.176636 -23.127529 1502.346191
v 1097.364502 -28.829746 1448.911621
v 1139.798218 -15.520865 1405.949829
v 1069.510742 -30.865723 1448.841797
v 1103.613281 -21.049931 1411.477295
v 1107.965820 -14.102818 1386.056274
v 970.971191 12.214812 1409.012939
v 981.276062 3.206555 1403.570679
v 995.673340 15.399194 1395.437256
v 1129.169678 -14.050797 1387.411743
v 1143.750000 -20.807701 1512.238892
v 1143.750000 -21.441936 1525.000000
v 1104.996216 -35.828819 1525.000000
v 1143.750000 -20.775578 1502.647339
v 1143.750000 -20.813698 1500.277588
v 1143.750000 -20.005465 1493.567993
v 1143.750000 -17.939165 1461.041992
v 1143.750000 -17.188564 1443.196655
v 1143.750000 -14.205178 1426.747070
v 1143.750000 -14.268045 1406.304688
v 1143.750000 -14.165053 1405.811523
v 1143.750000 -16.458160 1435.280396
v 1143.750000 -13.204810 1402.210449
v 1143.750000 -12.981721 1398.820190
v 1143.750000 -9.677338 1383.804321
v 1143.750000 -6.382844 1369.494141
v 1143.750000 -0.924710 1352.407593
v 1143.750000 1.610090 1345.448975
v 1143.750000 3.904819 1334.375000
v 1135.451660 2.212282 1334.375000
v 1114.500854 -0.636901 1334.375000
v 1095.493408 -39.216778 1525.000000
v 1091.589844 -40.152672 1525.000000
v 1070.947510 -39.879322 1525.000000
v 1068.909912 -39.394344 1525.000000
v 1066.471313 -40.245064 1525.000000
v 1057.076782 -39.934299 1525.000000
v 1049.256104 -39.686195 1525.000000
v 1034.350220 -38.396633 1525.000000
v 1111.457153 -0.634687 1334.375000
v 1076.845093 0.740612 1334.375000
v 1092.668945 -0.149487 1334.375000
v 1107.682007 0.313685 1334.375000
v 1102.257568 -0.270492 1334.375000
v 1066.300903 2.131827 1334.375000
v 1058.058960 2.932425 1334.375000
v 1037.268066 7.054123 1334.375000
v 1028.267456 8.127206 1334.375000
v 1015.622375 -33.297485 1525.000000
v 954.561035 -23.449726 1525.000000
v 997.267456 15.590335 1334.375000
v 991.237854 16.872017 1334.375000
v 953.125000 -23.256721 1525.000000
v 953.125000 -20.473488 1503.515503
v 953.125000 -18.152082 1497.210938
v 953.125000 -12.424519 1483.369263
v 953.125000 27.557957 1384.829468
v 953.125000 27.575626 1384.061401
v 953.125000 27.948925 1383.662231
v 953.125000 28.173603 1382.830566
v 953.125000 28.724442 1352.988770
v 989.692261 16.832439 1334.375000
v 964.527771 26.122448 1334.375000
v 953.125000 5.496181 1428.075806
v 953.125000 -7.598626 1470.994507
v 953.125000 6.788023 1423.786011
v 953.125000 19.653694 1401.768677
v 953.125000 20.881008 1399.240967
v 953.125000 24.260029 1392.162964
v 953.125000 28.137173 1348.536255
v 959.018799 27.079575 1334.375000
v 953.125000 26.715218 1334.375000
vt 0.194710 0.437595
vt 0.182316 0.428648
vt 0.184258 0.440997
vt 0.196159 0.443400
vt 0.193234 0.468719
vt 0.195483 0.468249
vt 0.195606 0.466851
vt 0.195420 0.473999
vt 0.173724 0.538256
vt 0.192479 0.539103
vt 0.194501 0.531998
vt 0.183938 0.508239
vt 0.194461 0.512337
vt 0.194132 0.503633
vt 0.177897 0.427967
vt 0.167605 0.446700
vt 0.186848 0.456583
vt 0.179724 0.468888
vt 0.181984 0.575760
vt 0.194293 0.579970
vt 0.194331 0.574112
vt 0.194417 0.548320
vt 0.127149 0.561819
vt 0.170488 0.556999
vt 0.105594 0.541425
vt 0.148977 0.538949
vt 0.170639 0.486925
vt 0.169720 0.456325
vt 0.165468 0.459526
vt 0.166560 0.475447
vt 0.158110 0.476843
vt 0.171889 0.504836
vt 0.158145 0.490551
vt 0.155715 0.507481
vt 0.103126 0.514661
vt 0.131849 0.498287
vt 0.118024 0.499334
vt 0.148195 0.502868
vt 0.106209 0.498010
vt 0.113298 0.494892
vt 0.109497 0.485996
vt 0.115944 0.489929
vt 0.132468 0.485649
vt 0.122112 0.478730
vt 0.146474 0.485542
vt 0.142504 0.493484
vt 0.151975 0.490873
vt 0.151205 0.480644
vt 0.151712 0.467313
vt 0.139352 0.476606
vt 0.140229 0.465037
vt 0.153127 0.448117
vt 0.146516 0.449557
vt 0.127061 0.457497
vt 0.148860 0.430643
vt 0.148002 0.430620
vt 0.137991 0.439542
vt 0.138716 0.430640
vt 0.131272 0.431443
vt 0.061186 0.435016
vt 0.104372 0.432156
vt 0.061939 0.430417
vt 0.113853 0.440967
vt 0.095736 0.453369
vt 0.048533 0.456029
vt 0.030414 0.427628
vt 0.019385 0.472914
vt 0.083384 0.488329
vt 0.110541 0.467090
vt 0.068302 0.482710
vt 0.026926 0.514449
vt 0.008713 0.524511
vt 0.029562 0.536190
vt 0.009760 0.548315
vt 0.066178 0.549387
vt 0.054819 0.563943
vt 0.084376 0.542642
vt 0.081926 0.573004
vt 0.010843 0.575339
vt 0.075076 0.594067
vt 0.031044 0.607179
vt 0.031263 0.615313
vt 0.033504 0.615060
vt 0.039188 0.615211
vt 0.143253 0.602637
vt 0.118590 0.578538
vt 0.145080 0.582493
vt 0.122937 0.449152
vt 0.135491 0.471923
vt 0.194042 0.589333
vt 0.193908 0.585214
vt 0.177918 0.616962
vt 0.184874 0.617054
vt 0.195774 0.605319
vt 0.160171 0.616772
vt 0.123206 0.613203
vt 0.100193 0.617438
vt 0.122333 0.617033
vt 0.082893 0.619464
vt 0.091251 0.617885
vt 0.130390 0.617154
vt 0.146066 0.617178
vt 0.127100 0.617067
vt 0.123374 0.617133
vt 0.010271 0.550846
vt 0.011676 0.571439
vt 0.049979 0.429108
vt 0.068670 0.617819
vt 0.193128 0.564378
vt 0.009448 0.531493
vt 0.010169 0.544339
vt 0.009409 0.491330
vt 0.130927 0.430659
vt 0.128458 0.430439
vt 0.021891 0.615863
vt 0.008743 0.510469
vt 0.147666 0.430615
vt 0.010246 0.431473
vt 0.010818 0.582716
vt 0.107854 0.430056
vt 0.010232 0.618136
vt 0.194696 0.429970
vt 0.146810 0.430596
vt 0.036269 0.428619
vt 0.195752 0.615043
vt 0.010242 0.430074
vn 0.0341 0.9912 -0.1274
vn -0.0654 0.9909 -0.1173
vn 0.0655 0.9828 -0.1724
vn 0.2687 0.9524 -0.1437
vn 0.3019 0.9531 0.0186
vn 0.0720 0.9784 0.1937
vn 0.2509 0.9673 -0.0354
vn 0.2255 0.9512 0.2107
vn 0.0971 0.9460 0.3092
vn 0.1116 0.9702 0.2148
vn 0.1535 0.9690 0.1936
vn 0.1664 0.9368 0.3077
vn 0.1292 0.9567 0.2608
vn 0.1899 0.9521 0.2398
vn -0.0988 0.9916 -0.0829
vn 0.1595 0.9851 0.0634
vn 0.2296 0.8178 -0.5277
vn 0.4806 0.8765 0.0259
vn 0.0240 0.9636 0.2662
vn 0.0895 0.9356 0.3414
vn -0.0405 0.9580 0.2837
vn 0.0988 0.9692 0.2253
vn -0.1179 0.9731 0.1976
vn 0.0778 0.9502 0.3016
vn -0.0028 0.9764 0.2159
vn 0.0220 0.9467 0.3212
vn 0.3718 0.9022 0.2185
vn 0.4436 0.8850 0.1411
vn 0.5489 0.8279 0.1150
vn 0.5372 0.8402 0.0736
vn 0.4738 0.8354 -0.2785
vn 0.2690 0.9083 0.3202
vn 0.4317 0.8559 -0.2846
vn 0.3288 0.8877 0.3222
vn 0.1468 0.9660 0.2127
vn 0.5749 0.7454 0.3374
vn 0.4678 0.8443 0.2615
vn 0.6231 0.6661 0.4099
vn 0.3743 0.8972 0.2342
vn 0.5960 0.7459 0.2972
vn 0.1172 0.7019 0.7026
vn 0.3478 0.7359 0.5809
vn 0.4502 0.6759 0.5834
vn 0.0461 0.7240 0.6882
vn 0.5705 0.8201 0.0445
vn 0.7178 0.6671 0.1991
vn 0.4915 0.8353 -0.2463
vn 0.3708 0.8413 -0.3933
vn 0.2712 0.9620 0.0300
vn 0.0374 0.9283 0.3700
vn -0.1718 0.8390 0.5162
vn 0.2986 0.8732 0.3852
vn 0.2950 0.7820 0.5490
vn 0.3914 0.8482 0.3568
vn 0.0803 0.9746 0.2091
vn 0.2374 0.8272 0.5092
vn 0.3428 0.8936 0.2899
vn 0.0680 0.9096 0.4099
vn 0.0143 0.8888 0.4581
vn 0.1353 0.9446 0.2990
vn 0.0530 0.9554 0.2906
vn 0.0472 0.9452 0.3228
vn 0.1896 0.8690 0.4571
vn 0.3794 0.8794 0.2874
vn 0.2110 0.9438 0.2545
vn 0.0943 0.9617 0.2572
vn 0.2031 0.9590 0.1977
vn 0.3528 0.9098 0.2187
vn 0.3579 0.8556 0.3739
vn 0.3121 0.9321 0.1834
vn 0.1506 0.9838 0.0973
vn 0.0506 0.9985 0.0189
vn -0.1305 0.9874 0.0889
vn -0.0760 0.9902 0.1169
vn -0.0485 0.9860 0.1596
vn -0.0026 0.9885 0.1509
vn -0.0319 0.9879 0.1520
vn -0.1125 0.9774 0.1791
vn -0.2725 0.9580 0.0892
vn -0.2402 0.9587 0.1521
vn -0.3223 0.9452 0.0519
vn -0.2964 0.9550 -0.0058
vn -0.2763 0.9591 0.0613
vn -0.3069 0.9489 0.0727
vn -0.1156 0.9604 0.2534
vn -0.0871 0.9797 0.1803
vn -0.0696 0.9621 0.2637
vn 0.4390 0.8282 0.3484
vn -0.2374 0.7896 0.5658
vn -0.0710 0.9674 0.2431
vn 0.0802 0.9520 0.2955
vn -0.0363 0.9406 0.3376
vn -0.1587 0.9598 0.2315
vn -0.1740 0.9618 0.2111
vn -0.1482 0.9471 0.2847
vn -0.2548 0.9602 0.1145
vn -0.2615 0.9613 0.0870
vn -0.3085 0.9467 0.0927
vn -0.3036 0.9502 0.0696
vn -0.2157 0.9551 0.2031
vn -0.2743 0.9438 0.1841
vn -0.2315 0.9489 0.2145
vn -0.4260 0.8984 0.1063
vn -0.3095 0.9247 0.2215
vn 0.1448 0.9814 0.1254
vn -0.1181 0.9886 0.0930
vn 0.0826 0.9218 0.3787
vn -0.3179 0.9467 0.0517
vn 0.0432 0.9673 0.2496
vn 0.0322 0.9991 0.0290
vn -0.1652 0.9846 0.0559
vn 0.2460 0.9660 0.0797
vn -0.1331 0.8925 0.4309
vn 0.1565 0.8557 0.4932
vn -0.3367 0.9408 0.0372
vn 0.1899 0.9814 0.0288
vn 0.3592 0.8473 0.3910
vn 0.1338 0.9817 0.1354
vn -0.3375 0.9393 0.0621
vn 0.0950 0.9274 0.3618
vn -0.3476 0.9365 0.0465
vn -0.0614 0.9931 -0.0997
vn 0.3201 0.9386 0.1286
vn 0.0744 0.9311 0.3571
vn -0.1958 0.9602 0.1990
vn 0.1321 0.9830 0.1273
s 1
f 125/1/1 124/2/2 6/3/3
f 6/3/3 117/4/4 125/1/1
f 10/5/5 106/6/6 116/7/7
f 6/3/3 116/7/7 117/4/4
f 10/5/5 105/8/8 106/6/6
f 13/9/9 99/10/10 100/11/11
f 17/12/12 101/13/13 102/14/14
f 6/3/3 115/15/15 7/16/16
f 6/3/3 8/17/17 10/5/5
f 8/17/17 9/18/18 10/5/5
f 11/19/19 97/20/20 98/21/21
f 13/9/9 95/22/22 99/10/10
f 14/23/23 11/19/19 12/24/24
f 16/25/25 14/23/23 12/24/24
f 15/26/26 16/25/25 12/24/24
f 15/26/26 12/24/24 13/9/9
f 17/12/12 105/8/8 10/5/5
f 9/18/18 17/12/12 10/5/5
f 22/27/27 17/12/12 9/18/18
f 8/17/17 18/28/28 9/18/18
f 18/28/28 8/17/17 6/3/3
f 7/16/16 18/28/28 6/3/3
f 18/28/28 19/29/29 9/18/18
f 7/16/16 19/29/29 18/28/28
f 19/29/29 20/30/30 9/18/18
f 20/30/30 22/27/27 9/18/18
f 19/29/29 21/31/31 20/30/30
f 21/31/31 22/27/27 20/30/30
f 22/27/27 24/32/32 17/12/12
f 23/33/33 24/32/32 22/27/27
f 24/32/32 25/34/34 17/12/12
f 17/12/12 15/26/26 13/9/9
f 25/34/34 15/26/26 17/12/12
f 25/34/34 24/32/32 23/33/33
f 26/35/35 15/26/26 25/34/34
f 26/35/35 16/25/25 15/26/26
f 27/36/36 26/35/35 25/34/34
f 28/37/37 26/35/35 27/36/36
f 27/36/36 25/34/34 36/38/38
f 30/39/39 26/35/35 28/37/37
f 29/40/40 30/39/39 28/37/37
f 30/39/39 29/40/40 31/41/41
f 31/41/41 29/40/40 32/42/42
f 29/40/40 28/37/37 32/42/42
f 32/42/42 28/37/37 27/36/36
f 34/43/43 31/41/41 32/42/42
f 31/41/41 34/43/43 33/44/44
f 32/42/42 27/36/36 34/43/43
f 27/36/36 35/45/45 34/43/43
f 37/46/46 27/36/36 36/38/38
f 35/45/45 27/36/36 37/46/46
f 38/47/47 36/38/38 25/34/34
f 38/47/47 25/34/34 23/33/33
f 36/38/38 38/47/47 35/45/45
f 37/46/46 36/38/38 35/45/45
f 35/45/45 38/47/47 23/33/33
f 21/31/31 23/33/33 22/27/27
f 39/48/48 35/45/45 23/33/33
f 39/48/48 23/33/33 21/31/31
f 40/49/49 39/48/48 21/31/31
f 41/50/50 35/45/45 39/48/48
f 40/49/49 41/50/50 39/48/48
f 42/51/51 41/50/50 40/49/49
f 40/49/49 21/31/31 19/29/29
f 42/51/51 40/49/49 43/52/52
f 43/52/52 40/49/49 19/29/29
f 44/53/53 42/51/51 43/52/52
f 62/54/54 42/51/51 44/53/53
f 43/52/52 19/29/29 7/16/16
f 43/52/52 114/55/55 113/56/56
f 45/57/57 123/58/58 46/59/59
f 5/60/60 118/61/61 119/62/62
f 47/63/63 5/60/60 48/64/64
f 4/65/65 108/66/66 3/67/67
f 5/60/60 4/65/65 48/64/64
f 48/64/64 50/68/68 49/69/69
f 48/64/64 51/70/70 50/68/68
f 4/65/65 51/70/70 48/64/64
f 3/67/67 51/70/70 4/65/65
f 3/67/67 2/71/71 51/70/70
f 2/71/71 26/35/35 51/70/70
f 92/72/72 1/73/73 2/71/71
f 1/73/73 89/74/74 52/75/75
f 89/74/74 53/76/76 52/75/75
f 1/73/73 52/75/75 58/77/77
f 52/75/75 53/76/76 56/78/78
f 53/76/76 86/79/79 54/80/80
f 55/81/81 68/82/82 69/83/83
f 55/81/81 69/83/83 70/84/84
f 70/84/84 54/80/80 55/81/81
f 53/76/76 54/80/80 56/78/78
f 52/75/75 56/78/78 58/77/77
f 58/77/77 56/78/78 64/85/85
f 59/86/86 58/77/77 64/85/85
f 58/77/77 59/86/86 60/87/87
f 14/23/23 58/77/77 60/87/87
f 16/25/25 58/77/77 14/23/23
f 26/35/35 58/77/77 16/25/25
f 1/73/73 58/77/77 26/35/35
f 2/71/71 1/73/73 26/35/35
f 50/68/68 26/35/35 30/39/39
f 51/70/70 26/35/35 50/68/68
f 49/69/69 50/68/68 30/39/39
f 49/69/69 30/39/39 31/41/41
f 49/69/69 31/41/41 33/44/44
f 49/69/69 62/54/54 61/88/88
f 48/64/64 49/69/69 61/88/88
f 47/63/63 48/64/64 61/88/88
f 46/59/59 47/63/63 61/88/88
f 46/59/59 61/88/88 45/57/57
f 45/57/57 62/54/54 44/53/53
f 61/88/88 62/54/54 45/57/57
f 62/54/54 49/69/69 42/51/51
f 42/51/51 49/69/69 63/89/89
f 63/89/89 41/50/50 42/51/51
f 49/69/69 33/44/44 63/89/89
f 63/89/89 33/44/44 41/50/50
f 41/50/50 33/44/44 34/43/43
f 41/50/50 34/43/43 35/45/45
f 14/23/23 60/87/87 11/19/19
f 11/19/19 85/90/90 94/91/91
f 59/86/86 64/85/85 60/87/87
f 60/87/87 81/92/92 82/93/93
f 82/93/93 84/94/94 60/87/87
f 60/87/87 84/94/94 85/90/90
f 64/85/85 80/95/95 81/92/92
f 56/78/78 57/96/96 64/85/85
f 57/96/96 73/97/97 74/98/98
f 54/80/80 73/97/97 56/78/78
f 54/80/80 72/99/99 76/100/100
f 64/85/85 78/101/101 79/102/102
f 57/96/96 77/103/103 78/101/101
f 57/96/96 75/104/104 77/103/103
f 88/105/105 87/106/106 53/76/76
f 79/102/102 80/95/95 64/85/85
f 74/98/98 75/104/104 57/96/96
f 119/62/62 110/107/107 5/60/60
f 71/108/108 72/99/99 54/80/80
f 96/109/109 12/24/24 11/19/19
f 91/110/110 90/111/111 1/73/73
f 103/112/112 2/71/71 3/67/67
f 110/107/107 4/65/65 5/60/60
f 115/15/15 114/55/55 7/16/16
f 98/21/21 96/109/109 11/19/19
f 123/58/58 122/113/113 46/59/59
f 122/113/113 121/114/114 46/59/59
f 94/91/91 97/20/20 11/19/19
f 65/115/115 68/82/82 55/81/81
f 93/116/116 92/72/72 2/71/71
f 112/117/117 45/57/57 44/53/53
f 113/56/56 44/53/53 43/52/52
f 108/66/66 104/118/118 3/67/67
f 121/114/114 47/63/63 46/59/59
f 100/11/11 101/13/13 13/9/9
f 67/119/119 54/80/80 86/79/79
f 104/118/118 103/112/112 3/67/67
f 120/120/120 118/61/61 47/63/63
f 66/121/121 55/81/81 67/119/119
f 125/1/1 126/122/122 124/2/2
f 6/3/3 10/5/5 116/7/7
f 17/12/12 13/9/9 101/13/13
f 6/3/3 124/2/2 115/15/15
f 13/9/9 12/24/24 95/22/22
f 17/12/12 102/14/14 105/8/8
f 43/52/52 7/16/16 114/55/55
f 45/57/57 111/123/123 123/58/58
f 5/60/60 47/63/63 118/61/61
f 4/65/65 109/124/124 108/66/66
f 92/72/72 91/110/110 1/73/73
f 1/73/73 90/111/111 89/74/74
f 89/74/74 88/105/105 53/76/76
f 53/76/76 87/106/106 86/79/79
f 70/84/84 71/108/108 54/80/80
f 11/19/19 60/87/87 85/90/90
f 60/87/87 64/85/85 81/92/92
f 82/93/93 83/125/125 84/94/94
f 57/96/96 56/78/78 73/97/97
f 54/80/80 76/100/100 73/97/97
f 64/85/85 57/96/96 78/101/101
f 96/109/109 95/22/22 12/24/24
f 103/112/112 93/116/116 2/71/71
f 110/107/107 109/124/124 4/65/65
f 112/117/117 111/123/123 45/57/57
f 113/56/56 112/117/117 44/53/53
f 108/66/66 107/126/126 104/118/118
f 121/114/114 120/120/120 47/63/63
f 67/119/119 55/81/81 54/80/80
f 66/121/121 65/115/115 55/81/81
