# Blender v2.82 (sub 7) OBJ File: 'LODTerrain.blend'
# www.blender.org
o lod_1_032_Cube.032
v -1475.320557 -9.811460 -1136.674927
v -1507.837891 -17.554573 -1121.315796
v -1512.149292 -29.007414 -1090.120972
v -1499.995850 -28.544092 -1085.473511
v -1443.471680 -11.549219 -1127.750488
v -1416.217773 -11.041126 -1109.879761
v -1384.932861 2.602033 -1131.894897
v -1368.072021 5.790086 -1118.261597
v -1344.198242 4.096133 -1114.010986
v -1392.061523 -6.250538 -1095.733521
v -1369.304443 0.431420 -1083.667725
v -1334.760986 7.746805 -1083.539795
v -1350.941406 5.467968 -1071.388550
v -1369.531494 2.060364 -1060.876099
v -1350.862061 14.813664 -1028.719849
v -1350.413818 63.789772 -955.323975
v -1377.457886 18.003489 -961.234497
v -1356.010742 56.341721 -960.942627
v -1348.738770 60.352730 -965.176147
v -1403.151611 -2.846734 -955.083496
v -1438.461426 -19.384995 -958.739746
v -1510.922607 -41.696083 -966.611572
v -1335.298340 27.134768 -997.983276
v -1475.223633 -27.643793 -1072.292114
v -1509.347168 -42.717346 -1029.045532
v -1441.563232 -16.021681 -1091.209961
v -1407.710938 -7.009794 -1054.847046
v -1456.318359 -22.619978 -1049.986328
v -1395.950195 -2.227044 -1059.023682
v -1393.154175 6.489712 -1037.366577
v -1416.962646 -17.256102 -1029.069092
v -1422.029663 -21.771931 -1010.921631
v -1472.340088 -35.387672 -1010.132935
v -1425.723145 -22.768770 -1002.692200
v -1432.909668 -23.011358 -992.607788
v -1405.345215 -7.244005 -1020.788452
v -1405.146729 -10.211319 -1038.663452
v -1403.827148 2.547638 -1027.097778
v -1393.945068 9.817640 -1029.100098
v -1394.378662 18.540039 -1020.459351
v -1404.047485 1.036165 -1014.029297
v -1386.798584 26.164770 -1010.875000
v -1379.437378 12.591399 -1023.152222
v -1399.045776 11.141335 -1007.567749
v -1413.961792 -1.340814 -995.843018
v -1375.253906 35.373554 -1009.725586
v -1368.055664 22.060570 -1020.428101
v -1366.748779 44.535706 -1002.350403
v -1363.155518 29.217691 -1016.382751
v -1362.542725 11.275463 -1028.788696
v -1398.640747 1.350838 -1047.234131
v -1511.017090 -43.019211 -991.372559
v -1460.024902 -31.646090 -989.941528
v -1463.576904 -30.918074 -969.596985
v -1438.366943 -19.866219 -978.370361
v -1431.863159 -12.050663 -971.545898
v -1425.029541 -13.730827 -975.289185
v -1423.853027 -3.039244 -965.521240
v -1413.912354 -8.267004 -987.709717
v -1395.797852 17.690063 -991.675476
v -1379.828125 46.717499 -993.091064
v -1374.518921 40.595139 -999.900391
v -1366.121948 54.188187 -979.687378
v -1383.610840 36.728325 -982.303772
v -1358.336426 50.577003 -992.113647
v -1360.777344 60.892738 -969.803894
v -1356.328125 61.509140 -974.687134
v -1348.758423 51.808838 -989.216431
v -1348.735229 35.928314 -1011.143860
v -1340.960083 24.750940 -1011.260620
v -1338.493408 18.897688 -1025.907837
v -1338.677734 37.489311 -975.921692
v -1340.619385 38.699978 -985.256836
v -1393.354614 12.905485 -969.552979
v -1401.289795 24.266354 -978.244568
v -1414.520630 -1.377877 -977.008301
v -1408.616699 7.099637 -966.373901
v -1419.462646 -8.821898 -957.800476
v -1348.548828 44.245712 -999.891907
v -1334.375000 55.266693 -953.617493
v -1334.375000 55.258873 -953.125000
v -1349.034546 63.024452 -953.125000
v -1334.375000 54.731071 -955.726929
v -1334.375000 45.820778 -967.061462
v -1351.480103 62.423477 -953.125000
v -1361.363770 42.765205 -953.125000
v -1364.915649 36.294174 -953.125000
v -1426.063843 -13.434328 -953.125000
v -1432.134644 -15.871357 -953.125000
v -1365.696411 35.339394 -953.125000
v -1367.145264 32.292732 -953.125000
v -1377.248779 21.453121 -953.125000
v -1384.458008 15.856281 -953.125000
v -1399.564331 1.611550 -953.125000
v -1402.302612 -2.386947 -953.125000
v -1440.594849 -19.355808 -953.125000
v -1455.987915 -25.397421 -953.125000
v -1474.671265 -31.707792 -953.125000
v -1494.862671 -36.444405 -953.125000
v -1512.501465 -40.338791 -953.125000
v -1516.438477 -40.152924 -953.125000
v -1525.000000 -42.937515 -986.651001
v -1525.000000 -41.896683 -975.707947
v -1525.000000 -40.392754 -953.125000
v -1334.375000 27.575521 -996.614929
v -1334.375000 27.384792 -997.583008
v -1334.375000 36.693321 -975.991394
v -1334.375000 40.775360 -970.810364
v -1334.375000 27.045053 -998.475769
v -1334.375000 19.854332 -1023.401367
v -1334.375000 18.955280 -1034.669922
v -1334.375000 7.849598 -1083.367065
v -1334.375000 8.307989 -1081.177368
v -1334.375000 13.724154 -1052.834717
v -1334.375000 14.537281 -1048.484985
v -1334.375000 7.062426 -1101.536987
v -1334.375000 2.659519 -1126.109985
v -1334.375000 17.916103 -1041.068604
v -1525.000000 -43.452812 -996.302673
v -1525.000000 -43.361443 -1010.283142
v -1525.000000 -42.097115 -1049.948364
v -1525.000000 -39.594345 -1063.481079
v -1525.000000 -38.264221 -1068.110474
v -1525.000000 -36.515083 -1073.482422
v -1525.000000 -26.436239 -1097.984985
v -1334.375000 4.944435 -1140.759155
v -1337.573120 6.493036 -1143.750000
v -1347.266724 9.772957 -1143.750000
v -1371.342163 11.101549 -1143.750000
v -1375.804565 11.256141 -1143.750000
v -1334.375000 5.285025 -1143.750000
v -1380.663452 8.922408 -1143.750000
v -1387.780029 7.113317 -1143.750000
v -1406.123901 -0.491113 -1143.750000
v -1406.175171 -0.505201 -1143.750000
v -1406.225220 -0.514528 -1143.750000
v -1435.258179 -4.199560 -1143.750000
v -1497.996094 -12.351238 -1143.750000
v -1521.081543 -13.053852 -1143.750000
v -1525.000000 -13.764620 -1143.750000
v -1525.000000 -18.370523 -1128.781250
v -1525.000000 -22.205252 -1109.608398
v -1443.379395 -5.893381 -1143.750000
v -1446.157715 -4.953487 -1143.750000
v -1470.156616 -6.488527 -1143.750000
v -1476.951660 -8.938375 -1143.750000
vt 0.593181 0.028023
vt 0.615238 0.037503
vt 0.614311 0.014860
vt 0.564927 0.021925
vt 0.584850 0.011134
vt 0.574087 0.010371
vt 0.550101 0.009075
vt 0.567536 0.040926
vt 0.612390 0.053658
vt 0.599479 0.081759
vt 0.618457 0.059932
vt 0.618591 0.053131
vt 0.616469 0.086621
vt 0.615167 0.082462
vt 0.616767 0.094797
vt 0.585719 0.111801
vt 0.618629 0.124098
vt 0.558707 0.091745
vt 0.618632 0.124207
vt 0.618635 0.124154
vt 0.605848 0.145287
vt 0.617152 0.142063
vt 0.615723 0.154192
vt 0.616142 0.149478
vt 0.592134 0.161587
vt 0.615644 0.158137
vt 0.587804 0.182786
vt 0.616712 0.181461
vt 0.613318 0.195027
vt 0.616337 0.191809
vt 0.575534 0.192810
vt 0.599136 0.194066
vt 0.562035 0.157748
vt 0.573173 0.138664
vt 0.554207 0.192054
vt 0.545793 0.179228
vt 0.535327 0.162756
vt 0.529968 0.195266
vt 0.503612 0.178095
vt 0.502554 0.190896
vt 0.517381 0.195188
vt 0.437932 0.174064
vt 0.431928 0.179375
vt 0.441678 0.180782
vt 0.430548 0.131995
vt 0.441404 0.148710
vt 0.432364 0.128664
vt 0.432520 0.106273
vt 0.438349 0.094779
vt 0.430036 0.038548
vt 0.448873 0.068349
vt 0.442468 0.023944
vt 0.474429 0.193676
vt 0.473044 0.194619
vt 0.474036 0.194541
vt 0.474920 0.194622
vt 0.500011 0.195037
vt 0.511184 0.195008
vt 0.546920 0.059409
vt 0.526411 0.009046
vt 0.503026 0.024648
vt 0.523206 0.075076
vt 0.528914 0.122265
vt 0.531963 0.134273
vt 0.523740 0.131191
vt 0.515732 0.137127
vt 0.506003 0.115065
vt 0.486323 0.111144
vt 0.488887 0.058004
vt 0.477185 0.105381
vt 0.467923 0.098150
vt 0.503662 0.127212
vt 0.514265 0.125524
vt 0.496895 0.124825
vt 0.504887 0.137020
vt 0.496164 0.136351
vt 0.492214 0.127832
vt 0.487274 0.144195
vt 0.499380 0.150338
vt 0.483871 0.131149
vt 0.473883 0.116660
vt 0.487701 0.155839
vt 0.468996 0.135411
vt 0.495933 0.159527
vt 0.480690 0.163095
vt 0.492331 0.166915
vt 0.504795 0.168268
vt 0.467291 0.023774
vt 0.465825 0.073114
vt 0.454803 0.092891
vt 0.448094 0.098443
vt 0.452185 0.105460
vt 0.443241 0.107888
vt 0.463364 0.116753
vt 0.468444 0.151570
vt 0.474403 0.156160
vt 0.468981 0.170788
vt 0.456402 0.163774
vt 0.459174 0.146470
vt 0.448621 0.169013
vt 0.451924 0.174330
vt 0.465893 0.181004
vt 0.478062 0.180322
vt 0.487713 0.181153
vt 0.487497 0.187765
vt 0.454088 0.190997
vt 0.448164 0.194746
vt 0.453686 0.195206
vt 0.429986 0.180705
vt 0.432419 0.194639
vt 0.434458 0.194599
vt 0.443827 0.194506
vt 0.462192 0.189059
vt 0.446840 0.138317
vt 0.451299 0.128497
vt 0.453401 0.116574
vt 0.443491 0.122072
vt 0.435556 0.111691
vt 0.464381 0.010259
vt 0.431341 0.168073
vt 0.430007 0.178331
vt 0.431818 0.164457
vt 0.552316 0.192608
vt 0.554099 0.192454
vt 0.431913 0.144463
vt 0.432786 0.150472
vt 0.432015 0.163619
vt 0.453141 0.009567
vt 0.430610 0.129305
vt 0.428765 0.021413
vt 0.431320 0.075299
vt 0.601204 0.010600
vt 0.540867 0.009160
vt 0.547094 0.010880
vt 0.432705 0.100693
vt 0.526049 0.195478
vt 0.432150 0.161824
vt 0.487405 0.009957
vt 0.616321 0.194839
vt 0.429387 0.009106
vt 0.429137 0.017231
vt 0.432121 0.092021
vt 0.431485 0.057445
vt 0.431942 0.194643
vt 0.474053 0.010229
vt 0.614615 0.010853
vn -0.0960 0.9600 0.2631
vn -0.1113 0.9777 0.1779
vn -0.1233 0.9564 0.2647
vn -0.1054 0.9362 0.3353
vn -0.0544 0.9528 0.2986
vn -0.0297 0.9347 0.3541
vn -0.1324 0.9378 0.3209
vn -0.1527 0.9474 0.2811
vn -0.1229 0.9543 0.2723
vn -0.1093 0.9565 0.2704
vn -0.1391 0.9315 0.3359
vn -0.2362 0.9562 0.1725
vn 0.0593 0.9410 0.3330
vn 0.1001 0.9257 0.3648
vn -0.1431 0.9252 0.3515
vn -0.2036 0.9731 0.1076
vn -0.1702 0.9503 0.2608
vn -0.2214 0.9724 0.0737
vn -0.2759 0.9279 0.2505
vn -0.2276 0.9467 0.2278
vn -0.3290 0.9035 0.2745
vn -0.2929 0.8681 0.4007
vn -0.2297 0.9350 0.2702
vn -0.3468 0.8737 0.3409
vn -0.1380 0.9720 0.1898
vn 0.0393 0.9800 0.1950
vn -0.0104 0.9997 0.0233
vn 0.1758 0.9701 0.1670
vn 0.3261 0.9355 0.1357
vn 0.3248 0.9358 0.1372
vn -0.2053 0.9761 -0.0704
vn 0.2366 0.9685 0.0771
vn -0.2046 0.9787 -0.0157
vn 0.2506 0.6420 -0.7246
vn -0.2243 0.9695 -0.0990
vn -0.2427 0.9608 -0.1337
vn -0.2068 0.9615 -0.1806
vn -0.2723 0.9456 -0.1776
vn -0.1929 0.8333 -0.5180
vn -0.0718 0.9416 -0.3290
vn -0.2868 0.9288 -0.2344
vn -0.6633 0.6845 0.3023
vn -0.2342 0.9714 -0.0382
vn 0.2344 0.9190 -0.3168
vn -0.6681 0.6750 -0.3131
vn -0.7027 0.6831 0.1989
vn -0.4911 0.8136 0.3113
vn -0.4151 0.9086 -0.0462
vn -0.4773 0.8785 -0.0187
vn -0.2243 0.9683 -0.1100
vn -0.3118 0.9447 -0.1011
vn -0.0990 0.9913 -0.0866
vn 0.3578 0.8659 -0.3494
vn 0.0990 0.9257 -0.3649
vn -0.1509 0.9565 -0.2494
vn -0.0696 0.9502 -0.3036
vn -0.0955 0.9721 -0.2141
vn -0.3129 0.9392 -0.1409
vn -0.2426 0.9532 0.1804
vn -0.1601 0.9758 0.1488
vn -0.1379 0.9875 0.0758
vn -0.3170 0.9395 0.1302
vn -0.4288 0.8989 0.0892
vn -0.2524 0.9433 -0.2155
vn -0.5699 0.8140 -0.1122
vn -0.4008 0.8621 -0.3099
vn -0.4746 0.8727 0.1146
vn -0.5432 0.8361 -0.0767
vn -0.2515 0.9666 0.0502
vn -0.5460 0.8007 -0.2464
vn -0.4285 0.8764 -0.2197
vn -0.8144 0.5625 -0.1422
vn -0.6544 0.7538 -0.0594
vn -0.8358 0.5488 0.0156
vn -0.3231 0.7638 -0.5587
vn -0.5007 0.7822 -0.3707
vn -0.8155 0.5014 -0.2892
vn -0.5824 0.8123 -0.0294
vn -0.0838 0.7767 -0.6243
vn -0.7472 0.6282 -0.2169
vn -0.7710 0.6344 0.0551
vn -0.4349 0.6891 -0.5796
vn -0.7843 0.6117 -0.1032
vn -0.1931 0.5426 -0.8175
vn -0.2257 0.8452 -0.4844
vn -0.0816 0.6313 -0.7712
vn -0.1810 0.8331 -0.5227
vn -0.1149 0.9928 -0.0327
vn -0.2984 0.9517 -0.0722
vn -0.4217 0.8769 -0.2304
vn -0.5409 0.7546 -0.3714
vn -0.4598 0.7578 -0.4629
vn -0.5641 0.8245 0.0445
vn -0.7503 0.6593 0.0493
vn -0.5337 0.7696 -0.3504
vn -0.5175 0.7078 -0.4808
vn -0.1092 0.8566 -0.5043
vn -0.6316 0.7703 -0.0871
vn -0.7190 0.5817 0.3803
vn -0.4393 0.8647 0.2437
vn 0.1261 0.9640 -0.2342
vn 0.5494 0.7704 -0.3233
vn 0.4349 0.7169 -0.5448
vn 0.3126 0.7423 -0.5926
vn 0.6276 0.7280 -0.2757
vn 0.5155 0.7360 -0.4389
vn 0.3877 0.5917 -0.7068
vn 0.1494 0.8514 -0.5027
vn 0.2553 0.9516 0.1710
vn 0.4751 0.8743 -0.0992
vn 0.5271 0.7801 -0.3370
vn 0.4926 0.5720 -0.6558
vn 0.8426 0.5320 -0.0838
vn -0.3121 0.6529 0.6901
vn -0.6278 0.7770 0.0460
vn -0.8160 0.5426 -0.1992
vn -0.5195 0.7076 0.4788
vn -0.3467 0.5662 0.7477
vn -0.0006 0.9981 -0.0614
vn -0.8560 0.4686 0.2182
vn -0.7523 0.6574 0.0437
vn -0.6547 0.5088 0.5589
vn -0.2638 0.9472 -0.1819
vn -0.1937 0.9703 -0.1445
vn -0.6226 0.6986 -0.3525
vn -0.6579 0.6989 -0.2803
vn -0.7993 0.4287 0.4210
vn 0.0383 0.9951 -0.0913
vn -0.6940 0.7072 0.1348
vn -0.0754 0.9912 -0.1086
vn -0.3459 0.9260 -0.1510
vn -0.1559 0.9545 0.2542
vn -0.1910 0.9569 0.2186
vn -0.1713 0.9441 0.2817
vn -0.3697 0.9159 -0.1566
vn -0.2128 0.9217 -0.3243
vn -0.8467 0.4503 0.2833
vn -0.0266 0.9996 0.0121
vn 0.3513 0.9302 0.1059
vn -0.0279 0.9974 -0.0664
vn 0.0181 0.9963 -0.0838
vn -0.3676 0.9187 -0.1444
vn -0.2554 0.9586 -0.1260
vn 0.4680 0.8836 0.0140
vn -0.0250 0.9995 -0.0169
vn -0.1708 0.9417 0.2897
s 1
f 2/1/1 138/2/2 139/3/3
f 3/4/4 142/5/5 125/6/6
f 3/4/4 125/6/6 124/7/7
f 3/4/4 4/8/8 2/1/1
f 4/8/8 1/9/9 2/1/1
f 1/9/9 138/2/2 2/1/1
f 5/10/10 145/11/11 1/9/9
f 1/9/9 145/11/11 146/12/12
f 5/10/10 143/13/13 144/14/14
f 5/10/10 137/15/15 143/13/13
f 6/16/16 136/17/17 5/10/10
f 26/18/18 6/16/16 5/10/10
f 6/16/16 134/19/19 135/20/20
f 7/21/21 133/22/22 134/19/19
f 7/21/21 130/23/23 132/24/24
f 8/25/25 129/26/26 130/23/23
f 9/27/27 128/28/28 129/26/26
f 126/29/29 127/30/30 128/28/28
f 9/27/27 116/31/31 117/32/32
f 11/33/33 9/27/27 8/25/25
f 10/34/34 8/25/25 7/21/21
f 6/16/16 10/34/34 7/21/21
f 10/34/34 11/33/33 8/25/25
f 12/35/35 9/27/27 11/33/33
f 13/36/36 12/35/35 11/33/33
f 12/35/35 116/31/31 9/27/27
f 11/33/33 14/37/37 13/36/36
f 14/37/37 114/38/38 13/36/36
f 15/39/39 71/40/40 14/37/37
f 71/40/40 118/41/41 14/37/37
f 18/42/42 16/43/43 19/44/44
f 94/45/45 17/46/46 20/47/47
f 88/48/48 20/47/47 21/49/49
f 99/50/50 54/51/51 22/52/52
f 23/53/53 105/54/54 106/55/55
f 23/53/53 106/55/55 109/56/56
f 71/40/40 110/57/57 111/58/58
f 4/8/8 5/10/10 1/9/9
f 4/8/8 26/18/18 5/10/10
f 24/59/59 26/18/18 4/8/8
f 24/59/59 121/60/60 25/61/61
f 6/16/16 11/33/33 10/34/34
f 6/16/16 14/37/37 11/33/33
f 26/18/18 14/37/37 6/16/16
f 28/62/62 26/18/18 24/59/59
f 26/18/18 28/62/62 27/63/63
f 29/64/64 14/37/37 26/18/18
f 29/64/64 26/18/18 27/63/63
f 51/65/65 30/66/66 29/64/64
f 28/62/62 31/67/67 27/63/63
f 32/68/68 31/67/67 28/62/62
f 33/69/69 28/62/62 24/59/59
f 25/61/61 33/69/69 24/59/59
f 33/69/69 32/68/68 28/62/62
f 33/69/69 34/70/70 32/68/68
f 33/69/69 35/71/71 34/70/70
f 31/67/67 38/72/72 37/73/73
f 36/74/74 38/72/72 31/67/67
f 32/68/68 36/74/74 31/67/67
f 38/72/72 39/75/75 37/73/73
f 38/72/72 40/76/76 39/75/75
f 36/74/74 40/76/76 38/72/72
f 36/74/74 41/77/77 40/76/76
f 42/78/78 40/76/76 41/77/77
f 40/76/76 43/79/79 39/75/75
f 42/78/78 43/79/79 40/76/76
f 44/80/80 42/78/78 41/77/77
f 32/68/68 41/77/77 36/74/74
f 32/68/68 44/80/80 41/77/77
f 34/70/70 45/81/81 32/68/68
f 45/81/81 44/80/80 32/68/68
f 44/80/80 46/82/82 42/78/78
f 44/80/80 60/83/83 46/82/82
f 42/78/78 46/82/82 43/79/79
f 43/79/79 46/82/82 47/84/84
f 46/82/82 48/85/85 49/86/86
f 46/82/82 49/86/86 47/84/84
f 47/84/84 49/86/86 50/87/87
f 47/84/84 50/87/87 43/79/79
f 50/87/87 15/39/39 14/37/37
f 50/87/87 14/37/37 43/79/79
f 39/75/75 30/66/66 37/73/73
f 43/79/79 14/37/37 29/64/64
f 30/66/66 43/79/79 29/64/64
f 30/66/66 39/75/75 43/79/79
f 37/73/73 30/66/66 51/65/65
f 37/73/73 51/65/65 27/63/63
f 31/67/67 37/73/73 27/63/63
f 27/63/63 51/65/65 29/64/64
f 52/88/88 33/69/69 25/61/61
f 52/88/88 53/89/89 33/69/69
f 53/89/89 35/71/71 33/69/69
f 53/89/89 55/90/90 35/71/71
f 54/51/51 55/90/90 53/89/89
f 54/51/51 21/49/49 55/90/90
f 54/51/51 53/89/89 52/88/88
f 22/52/52 54/51/51 52/88/88
f 21/49/49 56/91/91 55/90/90
f 55/90/90 57/92/92 35/71/71
f 56/91/91 57/92/92 55/90/90
f 58/93/93 57/92/92 56/91/91
f 35/71/71 45/81/81 34/70/70
f 35/71/71 59/94/94 45/81/81
f 57/92/92 59/94/94 35/71/71
f 45/81/81 60/83/83 44/80/80
f 59/94/94 60/83/83 45/81/81
f 61/95/95 62/96/96 60/83/83
f 60/83/83 62/96/96 46/82/82
f 62/96/96 48/85/85 46/82/82
f 62/96/96 65/97/97 48/85/85
f 61/95/95 63/98/98 62/96/96
f 64/99/99 61/95/95 60/83/83
f 64/99/99 63/98/98 61/95/95
f 63/98/98 65/97/97 62/96/96
f 17/46/46 63/98/98 64/99/99
f 63/98/98 66/100/100 67/101/101
f 17/46/46 66/100/100 63/98/98
f 63/98/98 67/101/101 65/97/97
f 67/101/101 68/102/102 65/97/97
f 65/97/97 79/103/103 48/85/85
f 48/85/85 79/103/103 49/86/86
f 79/103/103 69/104/104 49/86/86
f 49/86/86 69/104/104 15/39/39
f 49/86/86 15/39/39 50/87/87
f 69/104/104 70/105/105 71/40/40
f 69/104/104 71/40/40 15/39/39
f 23/53/53 110/57/57 71/40/40
f 23/53/53 71/40/40 70/105/105
f 72/106/106 105/54/54 23/53/53
f 72/106/106 108/107/107 107/108/108
f 82/109/109 80/110/110 16/43/43
f 16/43/43 83/111/111 19/44/44
f 19/44/44 83/111/111 84/112/112
f 84/112/112 72/106/106 19/44/44
f 19/44/44 72/106/106 67/101/101
f 67/101/101 72/106/106 73/113/113
f 18/42/42 19/44/44 67/101/101
f 18/42/42 67/101/101 66/100/100
f 74/114/114 17/46/46 64/99/99
f 20/47/47 17/46/46 74/114/114
f 64/99/99 60/83/83 59/94/94
f 75/115/115 64/99/99 59/94/94
f 76/116/116 75/115/115 59/94/94
f 57/92/92 76/116/116 59/94/94
f 57/92/92 77/117/117 76/116/116
f 58/93/93 77/117/117 57/92/92
f 77/117/117 75/115/115 76/116/116
f 75/115/115 74/114/114 64/99/99
f 77/117/117 74/114/114 75/115/115
f 77/117/117 20/47/47 74/114/114
f 78/118/118 20/47/47 77/117/117
f 21/49/49 20/47/47 78/118/118
f 78/118/118 77/117/117 58/93/93
f 21/49/49 78/118/118 58/93/93
f 21/49/49 58/93/93 56/91/91
f 67/101/101 73/113/113 68/102/102
f 73/113/113 72/106/106 23/53/53
f 73/113/113 23/53/53 68/102/102
f 79/103/103 23/53/53 70/105/105
f 68/102/102 23/53/53 79/103/103
f 65/97/97 68/102/102 79/103/103
f 79/103/103 70/105/105 69/104/104
f 52/88/88 102/119/119 22/52/52
f 86/120/120 85/121/121 16/43/43
f 86/120/120 18/42/42 87/122/122
f 136/17/17 137/15/15 5/10/10
f 85/121/121 82/109/109 16/43/43
f 113/123/123 112/124/124 12/35/35
f 93/125/125 92/126/126 17/46/46
f 87/122/122 66/100/100 90/127/127
f 22/52/52 102/119/119 103/128/128
f 95/129/129 94/45/45 20/47/47
f 124/7/7 4/8/8 3/4/4
f 100/130/130 99/50/50 22/52/52
f 97/131/131 21/49/49 54/51/51
f 141/132/132 142/5/5 2/1/1
f 122/133/133 4/8/8 123/134/134
f 89/135/135 88/48/48 21/49/49
f 118/41/41 115/136/136 14/37/37
f 92/126/126 91/137/137 17/46/46
f 120/138/138 52/88/88 25/61/61
f 91/137/137 66/100/100 17/46/46
f 126/29/29 131/139/139 127/30/30
f 132/24/24 133/22/22 7/21/21
f 103/128/128 104/140/140 101/141/141
f 96/142/142 89/135/135 21/49/49
f 139/3/3 141/132/132 2/1/1
f 121/60/60 120/138/138 25/61/61
f 113/123/123 13/36/36 114/38/38
f 98/143/143 97/131/131 54/51/51
f 3/4/4 2/1/1 142/5/5
f 1/9/9 146/12/12 138/2/2
f 5/10/10 144/14/14 145/11/11
f 6/16/16 135/20/20 136/17/17
f 6/16/16 7/21/21 134/19/19
f 7/21/21 8/25/25 130/23/23
f 8/25/25 9/27/27 129/26/26
f 128/28/28 9/27/27 117/32/32
f 117/32/32 126/29/29 128/28/28
f 12/35/35 112/124/124 116/31/31
f 14/37/37 115/136/136 114/38/38
f 71/40/40 111/58/58 118/41/41
f 94/45/45 93/125/125 17/46/46
f 88/48/48 95/129/129 20/47/47
f 99/50/50 98/143/143 54/51/51
f 24/59/59 122/133/133 121/60/60
f 23/53/53 109/56/56 110/57/57
f 72/106/106 107/108/108 105/54/54
f 82/109/109 81/144/144 80/110/110
f 16/43/43 80/110/110 83/111/111
f 84/112/112 108/107/107 72/106/106
f 52/88/88 119/145/145 102/119/119
f 86/120/120 16/43/43 18/42/42
f 87/122/122 18/42/42 66/100/100
f 103/128/128 101/141/141 22/52/52
f 101/141/141 100/130/130 22/52/52
f 124/7/7 123/134/134 4/8/8
f 97/131/131 96/142/142 21/49/49
f 122/133/133 24/59/59 4/8/8
f 120/138/138 119/145/145 52/88/88
f 91/137/137 90/127/127 66/100/100
f 139/3/3 140/146/146 141/132/132
f 113/123/123 12/35/35 13/36/36
