# Blender v2.92.0 OBJ File: 'quaternius_OGConvert.blend'
# www.blender.org
o Bricks_RightStraight_Cube.066
v -0.385265 -0.056409 0.068213
v -0.385265 0.067422 0.068213
v -0.385265 -0.060186 -0.068213
v -0.385265 0.079088 -0.068213
v -0.277566 -0.064716 0.068213
v -0.277566 0.067422 0.068213
v -0.277566 -0.069004 -0.068213
v -0.277566 0.076791 -0.068213
v -0.388305 -0.207205 0.068213
v -0.388305 -0.076557 0.068213
v -0.388305 -0.213163 -0.068213
v -0.388305 -0.058573 -0.068213
v -0.166846 -0.213163 0.068213
v -0.166846 -0.076738 0.068213
v -0.166846 -0.213163 -0.068213
v -0.166846 -0.069123 -0.068213
v -0.266509 -0.069004 0.068213
v -0.266509 0.067422 0.068213
v -0.266509 -0.065662 -0.068213
v -0.266509 0.067422 -0.068213
v -0.048724 -0.066260 0.068213
v -0.048724 0.067422 0.068213
v -0.048724 -0.069004 -0.068213
v -0.048724 0.067422 -0.068213
v -0.388305 0.080728 0.068213
v -0.388305 0.207333 0.068213
v -0.388305 0.070908 -0.068213
v -0.388305 0.207333 -0.068213
v -0.166846 0.070908 0.068213
v -0.166846 0.207333 0.068213
v -0.166846 0.070908 -0.068213
v -0.166846 0.207333 -0.068213
v -0.155789 -0.211254 0.068213
v -0.155789 -0.068115 0.068213
v -0.155789 -0.200559 -0.068213
v -0.155789 -0.076738 -0.068213
v 0.082971 -0.213163 0.068213
v 0.082971 -0.073663 0.068213
v 0.082971 -0.212438 -0.068213
v 0.082971 -0.076738 -0.068213
v -0.037667 -0.069004 0.068213
v -0.037667 0.067422 0.068213
v -0.037667 -0.069004 -0.068213
v -0.037667 0.081430 -0.068213
v 0.201093 -0.059592 0.068213
v 0.201093 0.067970 0.068213
v 0.201093 -0.063116 -0.068213
v 0.201093 0.070527 -0.068213
v -0.155789 0.073416 0.068213
v -0.155789 0.213164 0.068213
v -0.155789 0.079041 -0.068213
v -0.155789 0.211413 -0.068213
v 0.082971 0.082795 0.068213
v 0.082971 0.207333 0.068213
v 0.082971 0.078822 -0.068213
v 0.082971 0.207333 -0.068213
v 0.094029 -0.206423 0.068213
v 0.094029 -0.071108 0.068213
v 0.094029 -0.213163 -0.068213
v 0.094029 -0.072595 -0.068213
v 0.332789 -0.213163 0.068213
v 0.332789 -0.072332 0.068213
v 0.332789 -0.211909 -0.068213
v 0.332789 -0.070539 -0.068213
v 0.212151 -0.069004 0.068213
v 0.212151 0.067422 0.068213
v 0.212151 -0.069004 -0.028727
v 0.212151 0.067422 -0.028727
v 0.406241 -0.067618 0.068213
v 0.406241 0.067422 0.068213
v 0.406241 -0.067888 -0.028727
v 0.406241 0.069355 -0.028727
v 0.094029 0.070908 0.068213
v 0.094029 0.207333 0.068213
v 0.094029 0.076558 -0.068213
v 0.094029 0.212986 -0.068213
v 0.332789 0.070908 0.068213
v 0.332789 0.207333 0.068213
v 0.332789 0.070908 -0.068213
v 0.332789 0.210367 -0.068213
vt 0.814986 0.014687
vt 0.917060 0.110164
vt 0.814986 0.107338
vt 0.800494 0.734845
vt 0.698420 0.836920
vt 0.698420 0.738053
vt 0.977439 0.947770
vt 0.896858 0.855119
vt 0.977439 0.848903
vt 0.977507 0.836933
vt 0.896862 0.734897
vt 0.977507 0.734845
vt 0.551035 0.975854
vt 0.470458 0.873680
vt 0.551035 0.873648
vt 0.698501 0.209972
vt 0.800575 0.312182
vt 0.698501 0.307724
vt 0.458517 0.752649
vt 0.356442 0.854724
vt 0.356442 0.752649
vt 0.689078 0.006042
vt 0.591326 0.171658
vt 0.587004 0.005958
vt 0.686503 0.577759
vt 0.584421 0.743445
vt 0.584408 0.577709
vt 0.108033 0.974089
vt 0.005958 0.874515
vt 0.108033 0.872015
vt 0.230334 0.974367
vt 0.128260 0.874345
vt 0.230334 0.872292
vt 0.472911 0.171718
vt 0.575087 0.006058
vt 0.575087 0.171749
vt 0.228281 0.741361
vt 0.128260 0.578413
vt 0.230334 0.578413
vt 0.356442 0.577767
vt 0.458526 0.740693
vt 0.356466 0.740733
vt 0.800494 0.863194
vt 0.698420 0.957921
vt 0.698420 0.855846
vt 0.686482 0.973913
vt 0.584408 0.871838
vt 0.686482 0.871838
vt 0.108007 0.741449
vt 0.005958 0.578528
vt 0.108007 0.578507
vt 0.242255 0.743432
vt 0.336982 0.577735
vt 0.344329 0.743432
vt 0.686584 0.196599
vt 0.584502 0.362285
vt 0.584474 0.196517
vt 0.572491 0.743409
vt 0.470442 0.577739
vt 0.572491 0.577719
vt 0.230334 0.860375
vt 0.128260 0.761280
vt 0.230334 0.753278
vt 0.812492 0.198818
vt 0.914566 0.300892
vt 0.812492 0.300350
vt 0.008680 0.184628
vt 0.113052 0.006815
vt 0.113052 0.185463
vt 0.458526 0.565851
vt 0.356469 0.387204
vt 0.458501 0.387121
vt 0.700995 0.016439
vt 0.803069 0.118514
vt 0.700995 0.118514
vt 0.356442 0.974412
vt 0.453798 0.872338
vt 0.456434 0.974412
vt 0.584478 0.387157
vt 0.686404 0.565793
vt 0.584408 0.565793
vt 0.134896 0.197279
vt 0.230338 0.375702
vt 0.128264 0.375937
vt 0.470471 0.196517
vt 0.572557 0.375073
vt 0.470484 0.375100
vt 0.686482 0.859922
vt 0.584408 0.759570
vt 0.686482 0.755362
vt 0.338408 0.873552
vt 0.245228 0.975626
vt 0.242255 0.873552
vt 0.242448 0.375224
vt 0.344539 0.196584
vt 0.344539 0.375215
vt 0.339797 0.184601
vt 0.242255 0.005958
vt 0.346815 0.005958
vt 0.358768 0.184591
vt 0.460820 0.005965
vt 0.460820 0.184519
vt 0.572491 0.565802
vt 0.470442 0.387121
vt 0.572491 0.387140
vt 0.344329 0.760391
vt 0.242255 0.860522
vt 0.242255 0.755349
vt 0.108033 0.754324
vt 0.005958 0.858756
vt 0.005958 0.753386
vt 0.230338 0.006498
vt 0.129096 0.184624
vt 0.124969 0.005958
vt 0.356456 0.375140
vt 0.458554 0.196517
vt 0.458554 0.375204
vt 0.884941 0.994042
vt 0.812411 0.891967
vt 0.884942 0.891967
vt 0.969403 0.577709
vt 0.896872 0.678949
vt 0.896872 0.577911
vt 0.128313 0.387875
vt 0.230343 0.566497
vt 0.128264 0.566497
vt 0.799458 0.722929
vt 0.698420 0.577709
vt 0.800494 0.577709
vt 0.884942 0.880047
vt 0.812412 0.734852
vt 0.884942 0.734845
vt 0.470444 0.857508
vt 0.572431 0.759569
vt 0.572431 0.861731
vt 0.914996 0.387121
vt 0.812921 0.489195
vt 0.812921 0.387121
vt 0.812443 0.577724
vt 0.884956 0.722923
vt 0.812411 0.722925
vt 0.005958 0.566591
vt 0.108033 0.387949
vt 0.108033 0.566591
vt 0.344328 0.565819
vt 0.242277 0.387181
vt 0.344328 0.387141
vt 0.006002 0.376032
vt 0.108102 0.197396
vt 0.108102 0.376032
vt 0.698932 0.532346
vt 0.801005 0.387712
vt 0.801005 0.532933
vt 0.917060 0.005958
vt 0.800494 0.843930
vt 0.896858 0.947770
vt 0.896858 0.836987
vt 0.470442 0.975925
vt 0.800575 0.196517
vt 0.458517 0.860421
vt 0.689078 0.171738
vt 0.686494 0.743445
vt 0.005958 0.974089
vt 0.128260 0.974367
vt 0.472736 0.005958
vt 0.128260 0.741361
vt 0.458526 0.577778
vt 0.800494 0.957921
vt 0.584408 0.973913
vt 0.005958 0.741469
vt 0.242255 0.577735
vt 0.686575 0.362285
vt 0.470442 0.743429
vt 0.128260 0.853924
vt 0.914566 0.196517
vt 0.005958 0.005958
vt 0.356456 0.565851
vt 0.803069 0.005958
vt 0.358355 0.872338
vt 0.686382 0.387121
vt 0.230338 0.197060
vt 0.572557 0.196520
vt 0.584408 0.858612
vt 0.338408 0.975626
vt 0.242255 0.196517
vt 0.246617 0.184601
vt 0.358732 0.005958
vt 0.470472 0.565795
vt 0.344329 0.861635
vt 0.108033 0.860098
vt 0.230338 0.185143
vt 0.356486 0.196519
vt 0.812411 0.994042
vt 0.969403 0.680395
vt 0.230337 0.387853
vt 0.698420 0.722929
vt 0.812411 0.880051
vt 0.470442 0.755346
vt 0.914996 0.491465
vt 0.884956 0.577709
vt 0.005958 0.387949
vt 0.242255 0.565812
vt 0.005958 0.197379
vt 0.698321 0.387121
vn -1.0000 0.0000 0.0000
vn 1.0000 0.0000 0.0000
vn 0.0000 0.0000 1.0000
vn -0.0769 -0.9967 0.0276
vn 0.0000 0.9977 0.0685
vn -0.0269 -0.9987 0.0436
vn 0.0008 0.9984 0.0557
vn -0.0153 -0.9996 -0.0245
vn 0.0000 1.0000 0.0000
vn -0.0442 -0.9964 0.0717
vn -0.0495 -0.9957 -0.0781
vn 0.0000 0.9997 -0.0225
vn 0.0247 -0.9997 0.0000
vn -0.0023 0.9998 0.0187
vn 0.0392 -0.9984 -0.0412
vn 0.0171 0.9999 0.0000
vn -0.0282 -0.9984 0.0493
vn -0.0086 0.9999 0.0131
vn 0.0058 -1.0000 0.0000
vn -0.0100 0.9998 0.0199
vn -0.0236 -0.9989 -0.0414
vn 0.0000 0.9998 0.0222
vn -0.0000 0.0000 -1.0000
vn -0.0816 -0.9962 0.0313
vn 0.0212 0.9961 0.0852
vn 0.0000 -1.0000 0.0000
vn 0.0472 0.9903 0.1305
vn 0.0126 -0.9997 0.0201
vn -0.0080 -1.0000 -0.0053
vn 0.0232 0.9977 -0.0631
vn 0.0394 -0.9989 0.0258
vn 0.0454 0.9937 0.1020
vn -0.0009 -0.9996 0.0291
vn 0.0244 0.9996 -0.0128
vn 0.0053 -0.9999 -0.0092
vn 0.0051 0.9999 -0.0109
vn 0.0071 -1.0000 0.0028
vn 0.0110 0.9991 0.0414
s off
f 2/1/1 3/2/1 1/3/1
f 7/4/2 6/5/2 5/6/2
f 6/7/3 1/8/3 5/9/3
f 3/10/4 5/11/4 1/12/4
f 8/13/5 2/14/5 6/15/5
f 10/16/1 11/17/1 9/18/1
f 15/19/2 14/20/2 13/21/2
f 14/22/3 9/23/3 13/24/3
f 11/25/6 13/26/6 9/27/6
f 18/28/1 19/29/1 17/30/1
f 24/31/2 21/32/2 23/33/2
f 16/34/7 10/35/7 14/36/7
f 21/37/3 18/38/3 17/39/3
f 23/40/8 17/41/8 19/42/8
f 25/43/1 28/44/1 27/45/1
f 32/46/2 29/47/2 31/48/2
f 20/49/9 22/50/9 24/51/9
f 30/52/3 25/53/3 29/54/3
f 27/55/10 29/56/10 25/57/10
f 28/58/9 30/59/9 32/60/9
f 34/61/1 35/62/1 33/63/1
f 40/64/2 37/65/2 39/66/2
f 38/67/3 33/68/3 37/69/3
f 39/70/11 33/71/11 35/72/11
f 42/73/1 43/74/1 41/75/1
f 48/76/2 45/77/2 47/78/2
f 36/79/12 38/80/12 40/81/12
f 45/82/3 42/83/3 41/84/3
f 47/85/13 41/86/13 43/87/13
f 50/88/1 51/89/1 49/90/1
f 56/91/2 53/92/2 55/93/2
f 48/94/14 42/95/14 46/96/14
f 53/97/3 50/98/3 49/99/3
f 51/100/15 53/101/15 49/102/15
f 52/103/16 54/104/16 56/105/16
f 57/106/1 60/107/1 59/108/1
f 63/109/2 62/110/2 61/111/2
f 62/112/3 57/113/3 61/114/3
f 59/115/17 61/116/17 57/117/17
f 66/118/1 67/119/1 65/120/1
f 71/121/2 70/122/2 69/123/2
f 60/124/18 62/125/18 64/126/18
f 69/127/3 66/128/3 65/129/3
f 71/130/19 65/131/19 67/132/19
f 74/133/1 75/134/1 73/135/1
f 79/136/2 78/137/2 77/138/2
f 68/139/20 70/140/20 72/141/20
f 78/142/3 73/143/3 77/144/3
f 79/145/21 73/146/21 75/147/21
f 80/148/22 74/149/22 78/150/22
f 68/151/23 71/152/23 67/153/23
f 2/1/1 4/154/1 3/2/1
f 7/4/2 8/155/2 6/5/2
f 6/7/3 2/156/3 1/8/3
f 3/10/24 7/157/24 5/11/24
f 8/13/25 4/158/25 2/14/25
f 10/16/1 12/159/1 11/17/1
f 15/19/2 16/160/2 14/20/2
f 14/22/3 10/161/3 9/23/3
f 11/25/26 15/162/26 13/26/26
f 18/28/1 20/163/1 19/29/1
f 24/31/2 22/164/2 21/32/2
f 16/34/27 12/165/27 10/35/27
f 21/37/3 22/166/3 18/38/3
f 23/40/28 21/167/28 17/41/28
f 25/43/1 26/168/1 28/44/1
f 32/46/2 30/169/2 29/47/2
f 20/49/9 18/170/9 22/50/9
f 30/52/3 26/171/3 25/53/3
f 27/55/26 31/172/26 29/56/26
f 28/58/9 26/173/9 30/59/9
f 34/61/1 36/174/1 35/62/1
f 40/64/2 38/175/2 37/65/2
f 38/67/3 34/176/3 33/68/3
f 39/70/29 37/177/29 33/71/29
f 42/73/1 44/178/1 43/74/1
f 48/76/2 46/179/2 45/77/2
f 36/79/30 34/180/30 38/80/30
f 45/82/3 46/181/3 42/83/3
f 47/85/31 45/182/31 41/86/31
f 50/88/1 52/183/1 51/89/1
f 56/91/2 54/184/2 53/92/2
f 48/94/32 44/185/32 42/95/32
f 53/97/3 54/186/3 50/98/3
f 51/100/33 55/187/33 53/101/33
f 52/103/34 50/188/34 54/104/34
f 57/106/1 58/189/1 60/107/1
f 63/109/2 64/190/2 62/110/2
f 62/112/3 58/191/3 57/113/3
f 59/115/35 63/192/35 61/116/35
f 66/118/1 68/193/1 67/119/1
f 71/121/2 72/194/2 70/122/2
f 60/124/36 58/195/36 62/125/36
f 69/127/3 70/196/3 66/128/3
f 71/130/37 69/197/37 65/131/37
f 74/133/1 76/198/1 75/134/1
f 79/136/2 80/199/2 78/137/2
f 68/139/9 66/200/9 70/140/9
f 78/142/3 74/201/3 73/143/3
f 79/145/26 77/202/26 73/146/26
f 80/148/38 76/203/38 74/149/38
f 68/151/23 72/204/23 71/152/23
