# Blender v2.92.0 OBJ File: 'quaternius_OGConvert.blend'
# www.blender.org
o Door5_Cube.168
v -0.220458 -0.011651 0.045892
v -0.154088 0.046202 0.045892
v -0.154088 0.461043 0.045892
v -0.154088 0.046202 0.038054
v -0.154088 0.461043 0.038054
v -0.138781 0.061630 0.038054
v -0.138781 0.445615 0.038054
v -0.138781 0.061630 0.033451
v -0.138781 0.445615 0.033451
v -0.220458 -0.011651 0.002955
v -0.033316 0.046202 0.045892
v -0.033316 0.461043 0.045892
v -0.033316 0.046202 0.038054
v -0.033316 0.461043 0.038054
v -0.048623 0.061630 0.038054
v -0.048623 0.445615 0.038054
v -0.048623 0.061630 0.033451
v -0.048623 0.445615 0.033451
v 0.220458 -0.011651 0.045892
v 0.154088 0.046202 0.045892
v 0.154088 0.461043 0.045892
v 0.154088 0.046202 0.038054
v 0.154088 0.461043 0.038054
v 0.138781 0.061630 0.038054
v 0.138781 0.445615 0.038054
v 0.138781 0.061630 0.033451
v 0.138781 0.445615 0.033451
v 0.220458 -0.011651 0.002955
v 0.000000 -0.011651 0.045892
v 0.033316 0.046202 0.045892
v 0.033316 0.461043 0.045892
v 0.033316 0.046202 0.038054
v 0.033316 0.461043 0.038054
v 0.048623 0.061630 0.038054
v 0.048623 0.445615 0.038054
v 0.048623 0.061630 0.033451
v 0.048623 0.445615 0.033451
v 0.000000 -0.011651 0.002955
v -0.220458 0.902908 0.045892
v -0.220458 0.494022 0.045892
v -0.154088 0.845054 0.045892
v -0.154088 0.523599 0.045892
v -0.154088 0.845054 0.038054
v -0.154088 0.523599 0.038054
v -0.138781 0.829626 0.038054
v -0.138781 0.539027 0.038054
v -0.138781 0.829626 0.033451
v -0.138781 0.539027 0.033451
v -0.220458 0.902908 0.002955
v -0.220458 0.494022 0.002955
v -0.033316 0.845054 0.045892
v -0.033316 0.523599 0.045892
v -0.033316 0.845054 0.038054
v -0.033316 0.523599 0.038054
v -0.048623 0.829626 0.038054
v -0.048623 0.539027 0.038054
v -0.048623 0.829626 0.033451
v -0.048623 0.539027 0.033451
v 0.220458 0.902908 0.045892
v 0.220458 0.494022 0.045892
v 0.154088 0.845054 0.045892
v 0.154088 0.523599 0.045892
v 0.154088 0.845054 0.038054
v 0.154088 0.523599 0.038054
v 0.138781 0.829626 0.038054
v 0.138781 0.539027 0.038054
v 0.138781 0.829626 0.033451
v 0.138781 0.539027 0.033451
v 0.220458 0.902908 0.002955
v 0.220458 0.494022 0.002955
v 0.000000 0.902908 0.045892
v 0.000000 0.494022 0.045892
v 0.033316 0.845054 0.045892
v 0.033316 0.523599 0.045892
v 0.033316 0.845054 0.038054
v 0.033316 0.523599 0.038054
v 0.048623 0.829626 0.038054
v 0.048623 0.539027 0.038054
v 0.048623 0.829626 0.033451
v 0.048623 0.539027 0.033451
v 0.000000 0.902908 0.002955
v 0.000000 0.494022 0.002955
vt 0.003772 0.458459
vt 0.063450 0.055792
vt 0.063450 0.428805
vt 0.785554 0.709395
vt 0.778506 0.817990
vt 0.778506 0.709395
vt 0.202001 0.458459
vt 0.913270 0.003772
vt 0.920318 0.376785
vt 0.913270 0.376785
vt 0.800146 0.817990
vt 0.793098 0.709395
vt 0.800146 0.709395
vt 0.885848 0.811777
vt 0.881709 0.892845
vt 0.881709 0.811777
vt 0.516369 0.003772
vt 0.421538 0.017644
vt 0.407774 0.003772
vt 0.421538 0.362912
vt 0.407774 0.376785
vt 0.516369 0.376785
vt 0.859574 0.003772
vt 0.778506 0.349040
vt 0.778506 0.003772
vt 0.957044 0.300360
vt 0.961182 0.645628
vt 0.957044 0.645628
vt 0.897530 0.892845
vt 0.893391 0.811777
vt 0.897530 0.811777
vt 0.678659 0.458459
vt 0.640051 0.003772
vt 0.678659 0.003772
vt 0.905726 0.202001
vt 0.867118 0.003772
vt 0.905726 0.003772
vt 0.172044 0.055792
vt 0.202001 0.003772
vt 0.913270 0.780787
vt 0.920318 0.407774
vt 0.920318 0.780787
vt 0.502606 0.362912
vt 0.968726 0.645628
vt 0.972864 0.300360
vt 0.972864 0.645628
vt 0.003772 0.003772
vt 0.400231 0.458459
vt 0.340553 0.055792
vt 0.400231 0.003772
vt 0.807689 0.709395
vt 0.814737 0.817990
vt 0.807689 0.817990
vt 0.340553 0.428805
vt 0.231958 0.428805
vt 0.927861 0.376785
vt 0.934909 0.003772
vt 0.934909 0.376785
vt 0.822280 0.817990
vt 0.829328 0.709395
vt 0.829328 0.817990
vt 0.793098 0.825533
vt 0.797236 0.906601
vt 0.793098 0.906601
vt 0.523913 0.003772
vt 0.618744 0.017644
vt 0.537676 0.017644
vt 0.618744 0.362912
vt 0.632507 0.003772
vt 0.632507 0.376785
vt 0.523913 0.376785
vt 0.537676 0.362912
vt 0.859574 0.701852
vt 0.778506 0.356583
vt 0.859574 0.356583
vt 0.980408 0.645628
vt 0.984546 0.300360
vt 0.984546 0.645628
vt 0.781416 0.906601
vt 0.785554 0.825533
vt 0.785554 0.906601
vt 0.724811 0.003772
vt 0.686203 0.458459
vt 0.686203 0.003772
vt 0.867118 0.400231
vt 0.905726 0.400231
vt 0.231958 0.055792
vt 0.927861 0.384328
vt 0.934909 0.757341
vt 0.927861 0.757341
vt 0.992090 0.300360
vt 0.996228 0.645628
vt 0.992090 0.645628
vt 0.770963 0.458459
vt 0.732355 0.003772
vt 0.770963 0.003772
vt 0.063450 0.774098
vt 0.003772 0.826118
vt 0.836872 0.709395
vt 0.843920 0.817990
vt 0.836872 0.817990
vt 0.063450 0.485054
vt 0.172044 0.485054
vt 0.949500 0.003772
vt 0.942452 0.292816
vt 0.942452 0.003772
vt 0.851463 0.817990
vt 0.858511 0.709395
vt 0.858511 0.817990
vt 0.807689 0.825533
vt 0.811827 0.906601
vt 0.807689 0.906601
vt 0.516369 0.673373
vt 0.421538 0.659500
vt 0.502606 0.659500
vt 0.421538 0.398201
vt 0.407774 0.673373
vt 0.407774 0.384328
vt 0.516369 0.384328
vt 0.502606 0.398201
vt 0.407774 0.680916
vt 0.488842 0.942216
vt 0.407774 0.942216
vt 0.632507 0.680916
vt 0.628369 0.942216
vt 0.628369 0.680916
vt 0.822280 0.906601
vt 0.826419 0.825533
vt 0.826419 0.906601
vt 0.640051 0.826118
vt 0.678659 0.826118
vt 0.867118 0.804233
vt 0.905726 0.606004
vt 0.905726 0.804233
vt 0.172044 0.774098
vt 0.949500 0.589404
vt 0.942452 0.300360
vt 0.949500 0.300360
vt 0.589136 0.942216
vt 0.584997 0.680916
vt 0.589136 0.680916
vt 0.202001 0.826118
vt 0.340553 0.774098
vt 0.340553 0.485054
vt 0.920318 0.788331
vt 0.913270 0.896925
vt 0.913270 0.788331
vt 0.949500 0.885992
vt 0.942452 0.596947
vt 0.949500 0.596947
vt 0.874166 0.920371
vt 0.867118 0.811777
vt 0.874166 0.811777
vt 0.841010 0.825533
vt 0.836872 0.906601
vt 0.836872 0.825533
vt 0.523913 0.673373
vt 0.618744 0.659500
vt 0.632507 0.673373
vt 0.618744 0.398201
vt 0.632507 0.384328
vt 0.523913 0.384328
vt 0.496386 0.942216
vt 0.577454 0.680916
vt 0.577454 0.942216
vt 0.620825 0.942216
vt 0.616687 0.680916
vt 0.620826 0.680916
vt 0.855602 0.906601
vt 0.851463 0.825533
vt 0.855602 0.825533
vt 0.724811 0.826118
vt 0.686203 0.826118
vt 0.867118 0.407774
vt 0.905726 0.407774
vt 0.231958 0.774098
vt 0.964092 0.003772
vt 0.957044 0.292816
vt 0.957044 0.003772
vt 0.537676 0.398201
vt 0.600818 0.680916
vt 0.596679 0.942216
vt 0.596679 0.680916
vt 0.732355 0.826118
vt 0.770963 0.826118
vt 0.400231 0.826118
vt 0.785554 0.817990
vt 0.172044 0.428805
vt 0.920318 0.003772
vt 0.793098 0.817990
vt 0.885848 0.892845
vt 0.502606 0.017644
vt 0.859574 0.349040
vt 0.961182 0.300360
vt 0.893391 0.892845
vt 0.640051 0.458459
vt 0.867118 0.202001
vt 0.913270 0.407774
vt 0.968726 0.300360
vt 0.814737 0.709395
vt 0.927861 0.003772
vt 0.822280 0.709395
vt 0.797236 0.825533
vt 0.778506 0.701852
vt 0.980408 0.300360
vt 0.781416 0.825533
vt 0.724811 0.458459
vt 0.934909 0.384328
vt 0.996228 0.300360
vt 0.732355 0.458459
vt 0.843920 0.709395
vt 0.949500 0.292816
vt 0.851463 0.709395
vt 0.811827 0.825533
vt 0.488842 0.680916
vt 0.632507 0.942216
vt 0.822280 0.825533
vt 0.867118 0.606004
vt 0.942452 0.589404
vt 0.584997 0.942216
vt 0.920318 0.896925
vt 0.231958 0.485054
vt 0.942452 0.885992
vt 0.867118 0.920371
vt 0.841010 0.906601
vt 0.537676 0.659500
vt 0.496386 0.680916
vt 0.616687 0.942216
vt 0.851463 0.906601
vt 0.964092 0.292816
vt 0.600818 0.942216
vn -0.0000 0.0000 1.0000
vn 0.0000 1.0000 0.0000
vn 1.0000 0.0000 0.0000
vn 0.0000 -1.0000 0.0000
vn -1.0000 0.0000 0.0000
s off
f 40/1/1 2/2/1 3/3/1
f 13/4/2 2/5/2 11/6/2
f 3/3/1 72/7/1 40/1/1
f 2/8/3 5/9/3 3/10/3
f 14/11/4 3/12/4 5/13/4
f 17/14/2 6/15/2 15/16/2
f 13/17/1 6/18/1 4/19/1
f 4/19/1 7/20/1 5/21/1
f 7/20/1 14/22/1 5/21/1
f 17/23/1 9/24/1 8/25/1
f 6/26/3 9/27/3 7/28/3
f 18/29/4 7/30/4 9/31/4
f 40/32/5 10/33/5 1/34/5
f 38/35/4 1/36/4 10/37/4
f 72/7/1 11/38/1 29/39/1
f 14/40/5 11/41/5 12/42/5
f 16/43/1 13/17/1 14/22/1
f 18/44/5 15/45/5 16/46/5
f 29/39/1 2/2/1 1/47/1
f 60/48/1 20/49/1 19/50/1
f 20/51/2 32/52/2 30/53/2
f 21/54/1 72/7/1 31/55/1
f 23/56/5 20/57/5 21/58/5
f 21/59/4 33/60/4 23/61/4
f 24/62/2 36/63/2 34/64/2
f 32/65/1 24/66/1 34/67/1
f 25/68/1 22/69/1 23/70/1
f 25/68/1 33/71/1 35/72/1
f 27/73/1 36/74/1 26/75/1
f 27/76/5 24/77/5 25/78/5
f 25/79/4 37/80/4 27/81/4
f 28/82/3 60/83/3 19/84/3
f 19/85/4 38/35/4 28/86/4
f 72/7/1 30/87/1 31/55/1
f 30/88/3 33/89/3 31/90/3
f 32/65/1 35/72/1 33/71/1
f 34/91/3 37/92/3 35/93/3
f 72/94/5 38/95/5 29/96/5
f 29/39/1 20/49/1 30/87/1
f 40/1/1 41/97/1 39/98/1
f 41/99/4 53/100/4 51/101/4
f 42/102/1 72/7/1 52/103/1
f 44/104/3 41/105/3 42/106/3
f 42/107/2 54/108/2 44/109/2
f 45/110/4 57/111/4 55/112/4
f 53/113/1 45/114/1 55/115/1
f 46/116/1 43/117/1 44/118/1
f 46/116/1 54/119/1 56/120/1
f 48/121/1 57/122/1 47/123/1
f 48/124/3 45/125/3 46/126/3
f 46/127/2 58/128/2 48/129/2
f 49/130/5 40/32/5 39/131/5
f 39/132/2 81/133/2 49/134/2
f 72/7/1 51/135/1 52/103/1
f 51/136/5 54/137/5 52/138/5
f 53/113/1 56/120/1 54/119/1
f 55/139/5 58/140/5 56/141/5
f 71/142/1 41/97/1 51/135/1
f 60/48/1 61/143/1 62/144/1
f 75/145/4 61/146/4 73/147/4
f 62/144/1 72/7/1 60/48/1
f 61/148/5 64/149/5 62/150/5
f 76/151/2 62/152/2 64/153/2
f 79/154/4 65/155/4 77/156/4
f 75/157/1 65/158/1 63/159/1
f 63/159/1 66/160/1 64/161/1
f 66/160/1 76/162/1 64/161/1
f 79/163/1 68/164/1 67/165/1
f 65/166/5 68/167/5 66/168/5
f 80/169/2 66/170/2 68/171/2
f 60/83/3 69/172/3 59/173/3
f 81/133/2 59/174/2 69/175/2
f 72/7/1 73/176/1 71/142/1
f 76/177/3 73/178/3 74/179/3
f 78/180/1 75/157/1 76/162/1
f 80/181/3 77/182/3 78/183/3
f 81/184/5 72/94/5 71/185/5
f 71/142/1 61/143/1 59/186/1
f 40/1/1 1/47/1 2/2/1
f 13/4/2 4/187/2 2/5/2
f 3/3/1 12/188/1 72/7/1
f 2/8/3 4/189/3 5/9/3
f 14/11/4 12/190/4 3/12/4
f 17/14/2 8/191/2 6/15/2
f 13/17/1 15/192/1 6/18/1
f 4/19/1 6/18/1 7/20/1
f 7/20/1 16/43/1 14/22/1
f 17/23/1 18/193/1 9/24/1
f 6/26/3 8/194/3 9/27/3
f 18/29/4 16/195/4 7/30/4
f 40/32/5 50/196/5 10/33/5
f 38/35/4 29/197/4 1/36/4
f 72/7/1 12/188/1 11/38/1
f 14/40/5 13/198/5 11/41/5
f 16/43/1 15/192/1 13/17/1
f 18/44/5 17/199/5 15/45/5
f 29/39/1 11/38/1 2/2/1
f 60/48/1 21/54/1 20/49/1
f 20/51/2 22/200/2 32/52/2
f 21/54/1 60/48/1 72/7/1
f 23/56/5 22/201/5 20/57/5
f 21/59/4 31/202/4 33/60/4
f 24/62/2 26/203/2 36/63/2
f 32/65/1 22/69/1 24/66/1
f 25/68/1 24/66/1 22/69/1
f 25/68/1 23/70/1 33/71/1
f 27/73/1 37/204/1 36/74/1
f 27/76/5 26/205/5 24/77/5
f 25/79/4 35/206/4 37/80/4
f 28/82/3 70/207/3 60/83/3
f 19/85/4 29/197/4 38/35/4
f 72/7/1 29/39/1 30/87/1
f 30/88/3 32/208/3 33/89/3
f 32/65/1 34/67/1 35/72/1
f 34/91/3 36/209/3 37/92/3
f 72/94/5 82/210/5 38/95/5
f 29/39/1 19/50/1 20/49/1
f 40/1/1 42/102/1 41/97/1
f 41/99/4 43/211/4 53/100/4
f 42/102/1 40/1/1 72/7/1
f 44/104/3 43/212/3 41/105/3
f 42/107/2 52/213/2 54/108/2
f 45/110/4 47/214/4 57/111/4
f 53/113/1 43/117/1 45/114/1
f 46/116/1 45/114/1 43/117/1
f 46/116/1 44/118/1 54/119/1
f 48/121/1 58/215/1 57/122/1
f 48/124/3 47/216/3 45/125/3
f 46/127/2 56/217/2 58/128/2
f 49/130/5 50/196/5 40/32/5
f 39/132/2 71/218/2 81/133/2
f 72/7/1 71/142/1 51/135/1
f 51/136/5 53/219/5 54/137/5
f 53/113/1 55/115/1 56/120/1
f 55/139/5 57/220/5 58/140/5
f 71/142/1 39/98/1 41/97/1
f 60/48/1 59/186/1 61/143/1
f 75/145/4 63/221/4 61/146/4
f 62/144/1 74/222/1 72/7/1
f 61/148/5 63/223/5 64/149/5
f 76/151/2 74/224/2 62/152/2
f 79/154/4 67/225/4 65/155/4
f 75/157/1 77/226/1 65/158/1
f 63/159/1 65/158/1 66/160/1
f 66/160/1 78/180/1 76/162/1
f 79/163/1 80/227/1 68/164/1
f 65/166/5 67/228/5 68/167/5
f 80/169/2 78/229/2 66/170/2
f 60/83/3 70/207/3 69/172/3
f 81/133/2 71/218/2 59/174/2
f 72/7/1 74/222/1 73/176/1
f 76/177/3 75/230/3 73/178/3
f 78/180/1 77/226/1 75/157/1
f 80/181/3 79/231/3 77/182/3
f 81/184/5 82/210/5 72/94/5
f 71/142/1 73/176/1 61/143/1
