# Blender v2.92.0 OBJ File: 'quaternius_OGConvert.blend'
# www.blender.org
o Door_Window2_Cube.173
v -0.221863 -0.008413 0.045107
v -0.221863 0.898182 0.045107
v -0.221863 -0.008413 0.006891
v -0.221863 0.898182 0.006891
v 0.221863 -0.008413 0.045107
v 0.221863 0.898182 0.045107
v 0.221863 -0.008413 0.006891
v 0.221863 0.898182 0.006891
v 0.056894 -0.008413 0.006891
v 0.056894 0.898182 0.006891
v 0.056894 -0.008413 0.045107
v 0.056894 0.898182 0.045107
v 0.178959 0.898182 0.006891
v 0.178959 -0.008413 0.045107
v 0.178959 -0.008413 0.006891
v 0.178959 0.898182 0.045107
v 0.162234 0.837229 0.045107
v 0.073619 0.837229 0.045107
v 0.073619 0.052539 0.045107
v 0.162234 0.052539 0.045107
v 0.162234 0.837229 0.056458
v 0.073619 0.837229 0.056458
v 0.073619 0.052539 0.056458
v 0.162234 0.052539 0.056458
v 0.151515 0.825854 0.056458
v 0.084338 0.825854 0.056458
v 0.084338 0.063915 0.056458
v 0.151515 0.063915 0.056458
v 0.151515 0.825854 0.048644
v 0.084338 0.825854 0.048644
v 0.084338 0.063915 0.048644
v 0.151515 0.063915 0.048644
v -0.198238 0.818770 0.049441
v -0.198238 0.818770 0.042978
v 0.081724 0.818770 0.042978
v 0.081724 0.818770 0.049441
v -0.198238 0.809889 0.049441
v -0.198238 0.809889 0.042978
v 0.081724 0.809889 0.049441
v 0.081724 0.809889 0.042978
v -0.198238 0.671331 0.049441
v -0.198238 0.671331 0.042978
v 0.081724 0.671331 0.042978
v 0.081724 0.671331 0.049441
v -0.198238 0.662450 0.049441
v -0.198238 0.662450 0.042978
v 0.081724 0.662450 0.049441
v 0.081724 0.662450 0.042978
v -0.198238 0.523892 0.049441
v -0.198238 0.523892 0.042978
v 0.081724 0.523892 0.042978
v 0.081724 0.523892 0.049441
v -0.198238 0.515011 0.049441
v -0.198238 0.515011 0.042978
v 0.081724 0.515011 0.049441
v 0.081724 0.515011 0.042978
v -0.198238 0.376453 0.049441
v -0.198238 0.376453 0.042978
v 0.081724 0.376453 0.042978
v 0.081724 0.376453 0.049441
v -0.198238 0.367571 0.049441
v -0.198238 0.367571 0.042978
v 0.081724 0.367571 0.049441
v 0.081724 0.367571 0.042978
v -0.198238 0.229014 0.049441
v -0.198238 0.229014 0.042978
v 0.081724 0.229014 0.042978
v 0.081724 0.229014 0.049441
v -0.198238 0.220132 0.049441
v -0.198238 0.220132 0.042978
v 0.081724 0.220132 0.049441
v 0.081724 0.220132 0.042978
v -0.198238 0.081575 0.049441
v -0.198238 0.081575 0.042978
v 0.081724 0.081575 0.042978
v 0.081724 0.081575 0.049441
v -0.198238 0.072693 0.049441
v -0.198238 0.072693 0.042978
v 0.081724 0.072693 0.049441
v 0.081724 0.072693 0.042978
vt 0.771174 0.996593
vt 0.729308 0.003407
vt 0.771174 0.003407
vt 0.722494 0.996593
vt 0.680628 0.003407
vt 0.722494 0.003407
vt 0.308788 0.996593
vt 0.003407 0.003407
vt 0.308788 0.003407
vt 0.819854 0.489514
vt 0.777988 0.442512
vt 0.819854 0.442512
vt 0.868534 0.489514
vt 0.826667 0.184132
vt 0.868534 0.184132
vt 0.826667 0.050408
vt 0.868534 0.050408
vt 0.819854 0.308788
vt 0.777988 0.003407
vt 0.819854 0.003407
vt 0.327111 0.929819
vt 0.489514 0.996593
vt 0.442512 0.003407
vt 0.489514 0.003407
vt 0.826667 0.003407
vt 0.868534 0.003407
vt 0.777988 0.308788
vt 0.887782 0.863045
vt 0.875347 0.003407
vt 0.887782 0.003407
vt 0.442512 0.996593
vt 0.424190 0.070181
vt 0.424190 0.929819
vt 0.327111 0.070181
vt 0.593406 0.003407
vt 0.508070 0.015868
vt 0.496327 0.003407
vt 0.894596 0.003407
vt 0.907030 0.863045
vt 0.894596 0.863045
vt 0.806966 0.906922
vt 0.794531 0.809843
vt 0.806966 0.809843
vt 0.840054 0.906922
vt 0.827619 0.809843
vt 0.840054 0.809843
vt 0.922404 0.838122
vt 0.913844 0.003407
vt 0.922404 0.003407
vt 0.496327 0.863045
vt 0.581664 0.850584
vt 0.593406 0.863045
vt 0.581664 0.015868
vt 0.508070 0.850584
vt 0.673814 0.838122
vt 0.600220 0.003407
vt 0.673814 0.003407
vt 0.929218 0.003407
vt 0.937777 0.838122
vt 0.929218 0.838122
vt 0.779158 0.809843
vt 0.787718 0.883437
vt 0.779158 0.883437
vt 0.859227 0.809843
vt 0.867787 0.883437
vt 0.859227 0.883437
vt 0.867787 0.803029
vt 0.860707 0.496327
vt 0.867787 0.496327
vt 0.944591 0.623624
vt 0.951671 0.316922
vt 0.951671 0.623624
vt 0.600220 0.861480
vt 0.607300 0.871210
vt 0.600220 0.871210
vt 0.628007 0.861480
vt 0.635088 0.871210
vt 0.628007 0.871210
vt 0.837349 0.496327
vt 0.827619 0.803029
vt 0.827619 0.496327
vt 0.951671 0.937139
vt 0.944591 0.630437
vt 0.951671 0.630437
vt 0.958485 0.623624
vt 0.965565 0.316922
vt 0.965565 0.623624
vt 0.641901 0.861480
vt 0.648981 0.871210
vt 0.641901 0.871210
vt 0.666734 0.861480
vt 0.673814 0.871210
vt 0.666734 0.871210
vt 0.853893 0.496327
vt 0.844163 0.803029
vt 0.844163 0.496327
vt 0.965565 0.937139
vt 0.958485 0.630437
vt 0.965565 0.630437
vt 0.961135 0.310109
vt 0.968215 0.003407
vt 0.968215 0.310109
vt 0.496327 0.869859
vt 0.503407 0.879589
vt 0.496327 0.879589
vt 0.510221 0.869859
vt 0.517301 0.879589
vt 0.510221 0.879589
vt 0.954321 0.003407
vt 0.944591 0.310109
vt 0.944591 0.003407
vt 0.979459 0.623624
vt 0.972379 0.316922
vt 0.979459 0.316922
vt 0.972379 0.937139
vt 0.979459 0.630437
vt 0.979459 0.937139
vt 0.600220 0.844936
vt 0.607300 0.854666
vt 0.600220 0.854666
vt 0.614114 0.844936
vt 0.621194 0.854666
vt 0.614114 0.854666
vt 0.787718 0.496327
vt 0.777988 0.803029
vt 0.777988 0.496327
vt 0.982109 0.310109
vt 0.975029 0.003407
vt 0.982109 0.003407
vt 0.986272 0.623624
vt 0.993352 0.316922
vt 0.993352 0.623624
vt 0.628007 0.844936
vt 0.635088 0.854666
vt 0.628007 0.854666
vt 0.666734 0.844936
vt 0.673814 0.854666
vt 0.666734 0.854666
vt 0.804262 0.496327
vt 0.794531 0.803029
vt 0.794531 0.496327
vt 0.993352 0.937139
vt 0.986272 0.630437
vt 0.993352 0.630437
vt 0.988922 0.310109
vt 0.996002 0.003407
vt 0.996002 0.310109
vt 0.641901 0.844936
vt 0.648981 0.854666
vt 0.641901 0.854666
vt 0.614114 0.861480
vt 0.621194 0.871210
vt 0.614114 0.871210
vt 0.820805 0.496327
vt 0.811075 0.803029
vt 0.811075 0.496327
vt 0.729308 0.996593
vt 0.680628 0.996593
vt 0.003407 0.996593
vt 0.777988 0.489514
vt 0.826667 0.489514
vt 0.875347 0.863045
vt 0.907031 0.003407
vt 0.794531 0.906922
vt 0.827619 0.906922
vt 0.913844 0.838122
vt 0.600220 0.838122
vt 0.937777 0.003407
vt 0.787718 0.809843
vt 0.867787 0.809843
vt 0.860707 0.803029
vt 0.944591 0.316922
vt 0.607300 0.861480
vt 0.635088 0.861480
vt 0.837349 0.803029
vt 0.944591 0.937139
vt 0.958485 0.316922
vt 0.648981 0.861480
vt 0.673814 0.861480
vt 0.853893 0.803029
vt 0.958485 0.937139
vt 0.961135 0.003407
vt 0.503407 0.869859
vt 0.517301 0.869859
vt 0.954321 0.310109
vt 0.972379 0.623624
vt 0.972379 0.630437
vt 0.607300 0.844936
vt 0.621194 0.844936
vt 0.787718 0.803029
vt 0.975029 0.310109
vt 0.986272 0.316922
vt 0.635088 0.844936
vt 0.673814 0.844936
vt 0.804262 0.803029
vt 0.986272 0.937139
vt 0.988922 0.003407
vt 0.648981 0.844936
vt 0.621194 0.861480
vt 0.820805 0.803029
vn -1.0000 0.0000 0.0000
vn 1.0000 0.0000 0.0000
vn 0.0000 0.0000 1.0000
vn 0.0000 -1.0000 0.0000
vn 0.0000 1.0000 0.0000
s off
f 2/1/1 3/2/1 1/3/1
f 8/4/2 5/5/2 7/6/2
f 12/7/3 1/8/3 11/9/3
f 7/10/4 14/11/4 15/12/4
f 4/13/5 12/14/5 10/15/5
f 10/15/5 16/16/5 13/17/5
f 9/18/4 1/19/4 3/20/4
f 11/9/3 18/21/3 12/7/3
f 6/22/3 14/23/3 5/24/3
f 13/17/5 6/25/5 8/26/5
f 15/12/4 11/27/4 9/18/4
f 17/28/2 24/29/2 20/30/2
f 16/31/3 20/32/3 14/23/3
f 12/7/3 17/33/3 16/31/3
f 11/9/3 20/32/3 19/34/3
f 24/35/3 27/36/3 23/37/3
f 19/38/1 22/39/1 18/40/1
f 20/41/4 23/42/4 19/43/4
f 18/44/5 21/45/5 17/46/5
f 25/47/1 32/48/1 28/49/1
f 22/50/3 25/51/3 21/52/3
f 21/52/3 28/53/3 24/35/3
f 23/37/3 26/54/3 22/50/3
f 29/55/3 31/56/3 32/57/3
f 27/58/2 30/59/2 26/60/2
f 28/61/5 31/62/5 27/63/5
f 26/64/4 29/65/4 25/66/4
f 34/67/5 36/68/5 35/69/5
f 39/70/4 38/71/4 40/72/4
f 38/73/1 33/74/1 34/75/1
f 39/76/2 35/77/2 36/78/2
f 37/79/3 36/80/3 33/81/3
f 42/82/5 44/83/5 43/84/5
f 47/85/4 46/86/4 48/87/4
f 46/88/1 41/89/1 42/90/1
f 47/91/2 43/92/2 44/93/2
f 45/94/3 44/95/3 41/96/3
f 50/97/5 52/98/5 51/99/5
f 55/100/4 54/101/4 56/102/4
f 54/103/1 49/104/1 50/105/1
f 55/106/2 51/107/2 52/108/2
f 53/109/3 52/110/3 49/111/3
f 58/112/5 60/113/5 59/114/5
f 63/115/4 62/116/4 64/117/4
f 62/118/1 57/119/1 58/120/1
f 63/121/2 59/122/2 60/123/2
f 61/124/3 60/125/3 57/126/3
f 66/127/5 68/128/5 67/129/5
f 71/130/4 70/131/4 72/132/4
f 70/133/1 65/134/1 66/135/1
f 71/136/2 67/137/2 68/138/2
f 69/139/3 68/140/3 65/141/3
f 74/142/5 76/143/5 75/144/5
f 79/145/4 78/146/4 80/147/4
f 78/148/1 73/149/1 74/150/1
f 79/151/2 75/152/2 76/153/2
f 77/154/3 76/155/3 73/156/3
f 2/1/1 4/157/1 3/2/1
f 8/4/2 6/158/2 5/5/2
f 12/7/3 2/159/3 1/8/3
f 7/10/4 5/160/4 14/11/4
f 4/13/5 2/161/5 12/14/5
f 10/15/5 12/14/5 16/16/5
f 9/18/4 11/27/4 1/19/4
f 11/9/3 19/34/3 18/21/3
f 6/22/3 16/31/3 14/23/3
f 13/17/5 16/16/5 6/25/5
f 15/12/4 14/11/4 11/27/4
f 17/28/2 21/162/2 24/29/2
f 16/31/3 17/33/3 20/32/3
f 12/7/3 18/21/3 17/33/3
f 11/9/3 14/23/3 20/32/3
f 24/35/3 28/53/3 27/36/3
f 19/38/1 23/163/1 22/39/1
f 20/41/4 24/164/4 23/42/4
f 18/44/5 22/165/5 21/45/5
f 25/47/1 29/166/1 32/48/1
f 22/50/3 26/54/3 25/51/3
f 21/52/3 25/51/3 28/53/3
f 23/37/3 27/36/3 26/54/3
f 29/55/3 30/167/3 31/56/3
f 27/58/2 31/168/2 30/59/2
f 28/61/5 32/169/5 31/62/5
f 26/64/4 30/170/4 29/65/4
f 34/67/5 33/171/5 36/68/5
f 39/70/4 37/172/4 38/71/4
f 38/73/1 37/173/1 33/74/1
f 39/76/2 40/174/2 35/77/2
f 37/79/3 39/175/3 36/80/3
f 42/82/5 41/176/5 44/83/5
f 47/85/4 45/177/4 46/86/4
f 46/88/1 45/178/1 41/89/1
f 47/91/2 48/179/2 43/92/2
f 45/94/3 47/180/3 44/95/3
f 50/97/5 49/181/5 52/98/5
f 55/100/4 53/182/4 54/101/4
f 54/103/1 53/183/1 49/104/1
f 55/106/2 56/184/2 51/107/2
f 53/109/3 55/185/3 52/110/3
f 58/112/5 57/186/5 60/113/5
f 63/115/4 61/187/4 62/116/4
f 62/118/1 61/188/1 57/119/1
f 63/121/2 64/189/2 59/122/2
f 61/124/3 63/190/3 60/125/3
f 66/127/5 65/191/5 68/128/5
f 71/130/4 69/192/4 70/131/4
f 70/133/1 69/193/1 65/134/1
f 71/136/2 72/194/2 67/137/2
f 69/139/3 71/195/3 68/140/3
f 74/142/5 73/196/5 76/143/5
f 79/145/4 77/197/4 78/146/4
f 78/148/1 77/198/1 73/149/1
f 79/151/2 80/199/2 75/152/2
f 77/154/3 79/200/3 76/155/3
