# Blender v2.92.0 OBJ File: 'quaternius_OGConvert.blend'
# www.blender.org
o Pipe_L_Cylinder.003
v -0.330654 -0.032976 0.000000
v -0.330654 -0.016488 -0.028558
v -0.330654 0.016488 -0.028558
v -0.330654 0.032976 0.000000
v -0.330654 0.016488 0.028558
v -0.330654 -0.016488 0.028558
v -0.356417 -0.046708 0.000000
v -0.365884 -0.033208 -0.028558
v -0.384816 -0.006209 -0.028558
v -0.394282 0.007291 0.000000
v -0.384816 -0.006209 0.028558
v -0.365884 -0.033208 0.028558
v -0.364649 -0.062987 0.000000
v -0.379177 -0.062987 -0.028558
v -0.408233 -0.062987 -0.028558
v -0.422762 -0.062987 0.000000
v -0.408233 -0.062987 0.028558
v -0.379177 -0.062987 0.028558
v 0.400071 -0.032976 0.187310
v 0.330654 -0.032976 0.000000
v 0.428629 -0.016488 0.187145
v 0.330654 -0.016488 -0.028558
v 0.428629 0.016488 0.187145
v 0.330654 0.016488 -0.028558
v 0.400071 0.032976 0.187310
v 0.330654 0.032976 0.000000
v 0.371514 0.016488 0.187474
v 0.330654 0.016488 0.028558
v 0.371514 -0.016488 0.187474
v 0.330654 -0.016488 0.028558
v 0.400220 -0.046708 0.213072
v 0.428832 -0.033208 0.222374
v 0.428941 -0.006209 0.241306
v 0.400438 0.007291 0.250937
v 0.371826 -0.006209 0.241635
v 0.371717 -0.033208 0.222703
v 0.400267 -0.062987 0.221303
v 0.428908 -0.062987 0.235667
v 0.429076 -0.062987 0.264723
v 0.400602 -0.062987 0.279416
v 0.371961 -0.062987 0.265052
v 0.371793 -0.062987 0.235996
v 0.371657 -0.032976 0.012125
v 0.386747 -0.016488 -0.012120
v 0.386747 0.016488 -0.012120
v 0.371657 0.032976 0.012125
v 0.356567 0.016488 0.036371
v 0.356567 -0.016488 0.036371
v 0.425448 -0.016488 0.061849
v 0.425448 0.016488 0.061849
v 0.396891 0.032976 0.062014
v 0.368333 0.016488 0.062178
v 0.368333 -0.016488 0.062178
v 0.396891 -0.032976 0.062014
vt 0.648423 0.744314
vt 0.701217 0.063539
vt 0.679579 0.754903
vt 0.613479 0.750355
vt 0.670061 0.052950
vt 0.246233 0.074854
vt 0.003397 0.803535
vt 0.209280 0.064714
vt 0.521750 0.124624
vt 0.535785 0.830784
vt 0.496154 0.115431
vt 0.559239 0.119932
vt 0.561382 0.839976
vt 0.521541 0.042948
vt 0.635758 0.802821
vt 0.544307 0.062806
vt 0.451989 0.921134
vt 0.430428 0.968613
vt 0.427156 0.928184
vt 0.252341 0.002142
vt 0.491871 0.953451
vt 0.488599 0.913022
vt 0.794149 0.708390
vt 0.775209 0.737961
vt 0.775209 0.707166
vt 0.607454 0.029396
vt 0.576136 0.079444
vt 0.708368 0.845699
vt 0.634826 0.828799
vt 0.599731 0.002142
vt 0.664989 0.778082
vt 0.695160 0.816901
vt 0.712652 0.800906
vt 0.712652 0.765252
vt 0.742622 0.749684
vt 0.775209 0.672054
vt 0.809856 0.674029
vt 0.679773 0.002142
vt 0.708368 0.026451
vt 0.644828 0.008183
vt 0.002142 0.871438
vt 0.040350 0.813675
vt 0.039540 0.863346
vt 0.541152 0.880037
vt 0.564809 0.871164
vt 0.598871 0.835284
vt 0.602298 0.866472
vt 0.315100 0.164220
vt 0.280778 0.122686
vt 0.316707 0.132805
vt 0.784100 0.542171
vt 0.734512 0.579403
vt 0.748343 0.531530
vt 0.750376 0.100079
vt 0.727230 0.040758
vt 0.762098 0.056536
vt 0.739582 0.440029
vt 0.712652 0.455865
vt 0.732556 0.405269
vt 0.461778 0.044008
vt 0.491870 0.002142
vt 0.484550 0.037443
vt 0.185573 0.981696
vt 0.252341 0.969937
vt 0.226771 0.997858
vt 0.773041 0.457418
vt 0.727052 0.475002
vt 0.764199 0.484580
vt 0.727325 0.512938
vt 0.714053 0.527247
vt 0.748905 0.664957
vt 0.712652 0.598523
vt 0.772618 0.583831
vt 0.787262 0.002142
vt 0.770925 0.722431
vt 0.741789 0.745401
vt 0.712652 0.731698
vt 0.787217 0.512957
vt 0.786944 0.475020
vt 0.327825 0.080870
vt 0.341382 0.112631
vt 0.571706 0.894319
vt 0.609195 0.889627
vt 0.080873 0.907427
vt 0.059349 0.853165
vt 0.081131 0.874531
vt 0.063025 0.938235
vt 0.793371 0.332293
vt 0.739060 0.249694
vt 0.776784 0.242709
vt 0.326044 0.048048
vt 0.459997 0.011185
vt 0.712652 0.107064
vt 0.203421 0.950888
vt 0.203679 0.917992
vt 0.787217 0.343561
vt 0.475336 0.075769
vt 0.635117 0.058991
vt 0.453845 0.950748
vt 0.214035 0.002767
vt 0.809856 0.739936
vt 0.609195 0.060827
vt 0.696111 0.786524
vt 0.772592 0.769770
vt 0.772592 0.805424
vt 0.742622 0.820992
vt 0.278491 0.172332
vt 0.763907 0.505793
vt 0.724133 0.667770
vt 0.784100 0.653078
vt 0.793371 0.035134
vt 0.712652 0.695024
vt 0.741788 0.672054
vt 0.770925 0.685757
vt 0.755646 0.339277
vt 0.256625 0.111505
vt 0.794243 0.378321
vn -0.0000 -0.8660 -0.5000
vn -0.0000 0.0000 -1.0000
vn -0.0000 0.8660 -0.5000
vn 0.0000 0.8660 0.5000
vn 0.0000 0.0000 1.0000
vn -0.3300 0.8175 0.4720
vn 0.3802 -0.8010 -0.4625
vn -0.3300 0.8175 -0.4720
vn 0.3802 -0.8010 0.4625
vn 0.8126 -0.4109 0.4134
vn -0.8340 0.3380 -0.4362
vn -0.8366 0.3450 0.4256
vn 0.0000 -1.0000 0.0000
vn 0.8183 -0.3653 -0.4439
vn 0.1457 -0.8579 -0.4927
vn 0.2812 0.0000 -0.9596
vn 0.1457 0.8579 -0.4927
vn -0.1482 0.8582 0.4914
vn -0.2887 0.0000 0.9574
vn -0.1482 -0.8582 0.4914
vn -0.4701 0.8175 0.3327
vn 1.0000 0.0000 -0.0058
vn -1.0000 0.0000 0.0058
vn 0.4949 -0.7657 -0.4110
vn 0.4932 0.8033 0.3338
vn -0.4646 -0.8010 -0.3775
vn -0.4486 -0.3653 -0.8157
vn 0.4410 0.3380 0.8314
vn -0.4314 0.3380 0.8365
vn 0.4392 -0.3653 -0.8208
vn -0.4866 -0.8450 0.2219
vn -0.9099 0.0000 0.4149
vn -0.4866 0.8450 0.2219
vn 0.4837 0.8403 -0.2447
vn 0.8860 0.0000 -0.4636
vn 0.4837 -0.8403 -0.2447
vn 0.4999 -0.8660 -0.0127
vn 0.9997 0.0000 -0.0254
vn 0.4999 0.8660 -0.0127
vn -0.4999 0.8660 0.0127
vn -0.9997 0.0000 0.0254
vn -0.4999 -0.8660 0.0127
vn 0.0000 -0.8660 0.5000
vn -0.3366 0.8033 0.4913
vn 0.4081 -0.7657 -0.4972
vn -0.3366 0.8033 -0.4913
vn 0.4081 -0.7657 0.4972
vn 0.8183 -0.3653 0.4439
vn -0.8366 0.3450 -0.4256
vn -0.8340 0.3380 0.4362
vn 0.8126 -0.4109 -0.4134
vn 0.1450 -0.8569 -0.4947
vn 0.1450 0.8569 -0.4947
vn -0.1463 0.8567 0.4946
vn -0.1463 -0.8567 0.4946
vn -0.4894 0.8033 0.3394
vn 0.4603 -0.8010 -0.3828
vn 0.4739 0.8175 0.3273
vn -0.4996 -0.7657 -0.4052
vn -0.4181 -0.4109 -0.8102
vn 0.4304 0.3450 0.8341
vn -0.4208 0.3450 0.8390
vn 0.4087 -0.4109 -0.8150
vn -0.4995 -0.8287 0.2526
vn -0.4995 0.8287 0.2526
vn 0.4932 0.8308 -0.2580
vn 0.4932 -0.8308 -0.2580
s off
f 2/1/1 20/2/1 1/3/1
f 3/4/2 22/5/2 2/1/2
f 4/6/3 24/7/3 3/8/3
f 5/9/4 26/10/4 4/11/4
f 6/12/5 28/13/5 5/9/5
f 10/14/6 5/9/6 4/11/6
f 2/1/2 9/15/2 3/4/2
f 11/16/5 6/12/5 5/9/5
f 1/17/7 8/18/7 2/19/7
f 3/8/8 10/20/8 4/6/8
f 12/21/9 1/17/9 6/22/9
f 7/23/10 18/24/10 13/25/10
f 17/26/5 12/27/5 11/16/5
f 9/15/11 16/28/11 10/29/11
f 11/16/12 16/30/12 17/26/12
f 8/31/2 15/32/2 9/15/2
f 16/33/13 15/34/13 14/35/13
f 7/23/14 14/36/14 8/37/14
f 20/2/15 44/38/15 43/39/15
f 22/5/16 45/40/16 44/38/16
f 45/41/17 26/42/17 46/43/17
f 46/44/18 28/13/18 47/45/18
f 47/45/19 30/46/19 48/47/19
f 30/48/20 43/49/20 48/50/20
f 27/51/21 34/52/21 25/53/21
f 21/54/22 33/55/22 32/56/22
f 29/57/23 35/58/23 27/59/23
f 19/60/24 32/61/24 31/62/24
f 23/63/25 34/64/25 33/65/25
f 19/66/26 36/67/26 29/57/26
f 31/68/27 42/69/27 36/67/27
f 36/67/23 41/70/23 35/58/23
f 40/71/28 33/72/28 34/52/28
f 35/73/29 40/71/29 34/52/29
f 39/74/22 32/56/22 33/55/22
f 40/75/13 41/76/13 42/77/13
f 38/78/30 31/68/30 32/79/30
f 48/50/31 54/80/31 53/81/31
f 52/82/32 48/47/32 53/83/32
f 51/84/33 47/85/33 52/86/33
f 50/87/34 46/43/34 51/84/34
f 44/88/35 50/89/35 49/90/35
f 43/49/36 49/91/36 54/80/36
f 19/60/37 49/91/37 21/92/37
f 49/90/38 23/93/38 21/54/38
f 50/87/39 25/94/39 23/63/39
f 51/84/40 27/95/40 25/94/40
f 52/96/41 29/57/41 27/59/41
f 29/97/42 54/80/42 19/60/42
f 1/17/43 30/48/43 6/22/43
f 2/1/1 22/5/1 20/2/1
f 3/4/2 24/98/2 22/5/2
f 4/6/3 26/42/3 24/7/3
f 5/9/4 28/13/4 26/10/4
f 6/12/5 30/46/5 28/13/5
f 10/14/44 11/16/44 5/9/44
f 2/1/2 8/31/2 9/15/2
f 11/16/5 12/27/5 6/12/5
f 1/17/45 7/99/45 8/18/45
f 3/8/46 9/100/46 10/20/46
f 12/21/47 7/99/47 1/17/47
f 7/23/48 12/101/48 18/24/48
f 17/26/5 18/102/5 12/27/5
f 9/15/49 15/32/49 16/28/49
f 11/16/50 10/14/50 16/30/50
f 8/31/2 14/103/2 15/32/2
f 14/35/13 13/104/13 16/33/13
f 13/104/13 18/105/13 16/33/13
f 18/105/13 17/106/13 16/33/13
f 7/23/51 13/25/51 14/36/51
f 20/2/52 22/5/52 44/38/52
f 22/5/16 24/98/16 45/40/16
f 45/41/53 24/7/53 26/42/53
f 46/44/54 26/10/54 28/13/54
f 47/45/19 28/13/19 30/46/19
f 30/48/55 20/107/55 43/49/55
f 27/51/56 35/73/56 34/52/56
f 21/54/22 23/93/22 33/55/22
f 29/57/23 36/67/23 35/58/23
f 19/60/57 21/92/57 32/61/57
f 23/63/58 25/94/58 34/64/58
f 19/66/59 31/68/59 36/67/59
f 31/68/60 37/108/60 42/69/60
f 36/67/23 42/69/23 41/70/23
f 40/71/61 39/109/61 33/72/61
f 35/73/62 41/110/62 40/71/62
f 39/74/22 38/111/22 32/56/22
f 42/77/13 37/112/13 40/75/13
f 37/112/13 38/113/13 40/75/13
f 38/113/13 39/114/13 40/75/13
f 38/78/63 37/108/63 31/68/63
f 48/50/64 43/49/64 54/80/64
f 52/82/32 47/45/32 48/47/32
f 51/84/65 46/43/65 47/85/65
f 50/87/66 45/41/66 46/43/66
f 44/88/35 45/115/35 50/89/35
f 43/49/67 44/116/67 49/91/67
f 19/60/37 54/80/37 49/91/37
f 49/90/38 50/89/38 23/93/38
f 50/87/39 51/84/39 25/94/39
f 51/84/40 52/86/40 27/95/40
f 52/96/41 53/117/41 29/57/41
f 29/97/42 53/81/42 54/80/42
f 1/17/43 20/107/43 30/48/43
