# Blender v2.92.0 OBJ File: 'quaternius_OGConvert.blend'
# www.blender.org
o Bush1_Icosphere
v -0.249716 0.499654 0.226411
v 0.363290 0.592644 0.354891
v -0.174198 0.750560 0.530309
v -0.481920 0.686934 0.079277
v 0.347977 0.478610 0.101028
v 0.592328 0.924396 0.265238
v -0.283436 0.520818 -0.216761
v -0.394503 1.121231 0.294302
v -0.028576 0.496355 0.078880
v 0.039773 0.495063 0.039440
v 0.039707 0.498565 -0.039440
v -0.028707 0.503361 -0.078880
v -0.096232 0.504638 -0.039915
v -0.097055 0.504623 -0.038742
v -0.096989 0.501151 0.039440
v 0.208499 1.178953 0.439389
v -0.470251 0.880185 -0.243848
v -0.164112 1.224927 0.427773
v 0.394881 0.700048 -0.229686
v 0.109025 0.509351 -0.250665
v 0.144226 1.473918 0.051068
v -0.182882 0.880975 -0.543776
v -0.408588 1.161445 -0.111709
v -0.140193 1.430051 -0.045203
v 0.456959 1.159400 -0.127461
v 0.062155 1.145892 -0.454335
v -0.000000 -0.017234 -0.100378
v -0.078718 0.145677 -0.100378
v 0.005838 0.125499 -0.050189
v 0.086930 -0.017234 -0.050189
v -0.086930 -0.017234 -0.050189
v -0.026132 0.366030 -0.078880
v 0.086930 -0.017234 0.050189
v 0.000000 -0.017234 0.100378
v -0.086930 -0.017234 0.050189
v 0.005838 0.125499 0.050189
v -0.163273 0.165856 -0.050189
v 0.042168 0.367311 -0.039440
v -0.094432 0.364750 -0.039440
v -0.078718 0.145677 0.100378
v -0.163273 0.165856 0.050189
v 0.042168 0.367311 0.039440
v -0.097055 0.504623 -0.039440
v -0.094432 0.364750 0.039440
v -0.026132 0.366030 0.078880
vt 0.510645 0.095084
vt 0.433138 0.344038
vt 0.376709 0.113495
vt 0.709112 0.508981
vt 0.801702 0.389744
vt 0.804518 0.609219
vt 0.541280 0.347730
vt 0.002593 0.569531
vt 0.171461 0.393098
vt 0.329582 0.460091
vt 0.695069 0.096909
vt 0.576144 0.002593
vt 0.973050 0.497446
vt 0.298087 0.387913
vt 0.187156 0.368693
vt 0.371524 0.258246
vt 0.577678 0.221960
vt 0.610292 0.224749
vt 0.582530 0.165175
vt 0.231660 0.639712
vt 0.833461 0.002593
vt 0.988375 0.020027
vt 0.937145 0.124091
vt 0.888491 0.676982
vt 0.997407 0.382568
vt 0.134521 0.217187
vt 0.695069 0.261039
vt 0.329582 0.736270
vt 0.120764 0.731614
vt 0.777040 0.182533
vt 0.997407 0.604832
vt 0.448595 0.386241
vt 0.561093 0.382568
vt 0.496541 0.582870
vt 0.279582 0.083132
vt 0.671971 0.377382
vt 0.700254 0.046023
vt 0.703926 0.432171
vt 0.622003 0.595752
vt 0.371524 0.007188
vt 0.988375 0.230214
vt 0.376709 0.539573
vt 0.121563 0.002593
vt 0.049872 0.271112
vt 0.002593 0.067543
vt 0.703926 0.680923
vt 0.498795 0.739811
vt 0.957404 0.360627
vt 0.758232 0.306897
vt 0.629026 0.197752
vt 0.563796 0.192172
vt 0.615312 0.168323
vt 0.614856 0.167940
vt 0.830633 0.837932
vt 0.807177 0.895597
vt 0.801072 0.831342
vt 0.022905 0.958712
vt 0.042674 0.892083
vt 0.064358 0.961560
vt 0.820042 0.738844
vt 0.105724 0.741455
vt 0.141905 0.804068
vt 0.069544 0.804173
vt 0.837403 0.893751
vt 0.870704 0.841085
vt 0.877474 0.896904
vt 0.028681 0.799634
vt 0.061289 0.801340
vt 0.907694 0.684988
vt 0.922397 0.744540
vt 0.882659 0.755630
vt 0.754670 0.685492
vt 0.709112 0.763974
vt 0.728541 0.684940
vt 0.875306 0.739341
vt 0.846044 0.682694
vt 0.822372 0.682167
vt 0.031807 0.741455
vt 0.032200 0.741476
vt 0.775105 0.752938
vt 0.795887 0.682167
vt 0.735241 0.764526
vt 0.739955 0.843603
vt 0.913323 0.845126
vt 0.877474 0.686618
vt 0.843817 0.736864
vt 0.760488 0.844037
vt 0.763603 0.900667
vt 0.334934 0.393679
vt 0.334767 0.393330
vt 0.334934 0.393098
vt 0.948992 0.896476
vt 0.916566 0.899230
vt 0.795887 0.896063
vt 0.002593 0.880904
vt 0.069544 0.762396
vt 0.141905 0.762291
vt 0.105724 0.825009
vt 0.948992 0.682167
vt 0.064358 0.744219
vt 0.945813 0.843440
vt 0.743331 0.901679
vt 0.743150 0.901675
vt 0.792910 0.841955
vn -0.0173 -0.7689 0.6391
vn -0.7076 -0.4484 0.5461
vn 0.0532 -0.9121 0.4065
vn 0.3194 0.0354 0.9469
vn -0.6320 -0.7749 0.0111
vn -0.8123 -0.1192 0.5710
vn 0.8314 -0.5239 0.1852
vn -0.0444 -0.9980 -0.0443
vn 0.3475 -0.1129 0.9309
vn -0.8358 -0.4574 -0.3037
vn -0.9840 0.1664 0.0640
vn -0.5541 0.1871 0.8111
vn 0.8893 -0.4283 -0.1606
vn -0.0346 -0.9974 -0.0636
vn 0.6258 0.6675 0.4035
vn -0.0044 0.2114 0.9774
vn -0.6635 -0.3929 -0.6367
vn -0.9803 0.1901 0.0528
vn -0.5347 0.7848 0.3133
vn 0.9351 -0.0482 -0.3512
vn 0.5245 -0.7400 -0.4211
vn -0.0839 -0.6569 -0.7493
vn 0.0802 0.8001 0.5945
vn 0.7405 0.6577 0.1384
vn -0.6507 0.4350 -0.6223
vn -0.7158 0.6921 0.0934
vn -0.2634 0.8898 0.3726
vn 0.6337 0.0855 -0.7689
vn 0.3343 -0.4076 -0.8498
vn 0.4228 0.7273 -0.5407
vn -0.4586 0.6167 -0.6399
vn 0.0577 0.8331 -0.5501
vn 0.4468 -0.1137 -0.8874
vn -0.4368 0.6231 -0.6488
vn 0.5380 0.2600 -0.8019
vn -0.4860 -0.2348 -0.8418
vn 0.5037 -0.0360 -0.8631
vn -0.0000 -1.0000 -0.0000
vn 0.8695 0.4940 -0.0000
vn -0.4928 0.2002 -0.8468
vn 0.5380 0.2600 0.8019
vn -0.9230 -0.3849 0.0000
vn 0.9889 -0.1486 0.0000
vn 0.4999 0.0094 -0.8660
vn -0.4999 -0.0094 -0.8660
vn -0.4860 -0.2348 0.8418
vn -0.9450 0.3271 0.0000
vn 0.5037 -0.0360 0.8631
vn 0.9998 0.0187 -0.0000
vn -0.9998 -0.0187 0.0000
vn -0.0188 0.9998 -0.0001
vn -0.4625 0.2067 0.8622
vn 0.4999 0.0094 0.8660
vn -0.4999 -0.0094 0.8660
vn 0.4810 0.2733 -0.8331
vn -0.5364 -0.2237 -0.8138
vn 0.5002 -0.0367 -0.8651
vn -0.4625 0.2067 -0.8622
vn 0.4810 0.2733 0.8331
vn -0.5364 -0.2237 0.8138
vn 0.5002 -0.0367 0.8651
vn -0.4928 0.2002 0.8468
s off
f 1/1/1 2/2/1 3/3/1
f 1/4/2 3/5/2 4/6/2
f 2/2/3 1/1/3 5/7/3
f 3/8/4 2/9/4 6/10/4
f 7/11/5 1/1/5 4/12/5
f 4/6/6 3/5/6 8/13/6
f 2/14/7 5/15/7 6/16/7
f 5/7/8 10/17/8 11/18/8
f 7/11/8 15/19/8 1/1/8
f 16/20/9 3/8/9 6/10/9
f 7/21/10 4/22/10 17/23/10
f 4/6/11 8/13/11 17/24/11
f 8/13/12 3/5/12 18/25/12
f 6/16/13 5/15/13 19/26/13
f 5/7/14 7/11/14 20/27/14
f 16/20/15 6/10/15 21/28/15
f 3/8/16 16/20/16 18/29/16
f 7/21/17 17/23/17 22/30/17
f 17/24/18 8/13/18 23/31/18
f 8/32/19 18/33/19 24/34/19
f 6/16/20 19/26/20 25/35/20
f 5/7/21 20/27/21 19/36/21
f 20/37/22 7/21/22 22/30/22
f 18/33/23 16/38/23 21/39/23
f 21/40/24 6/16/24 25/35/24
f 17/23/25 23/41/25 22/30/25
f 23/42/26 8/32/26 24/34/26
f 24/34/27 18/33/27 21/39/27
f 19/26/28 26/43/28 25/35/28
f 19/26/29 20/44/29 22/45/29
f 25/46/30 26/47/30 21/39/30
f 22/30/31 23/41/31 24/48/31
f 26/47/32 24/34/32 21/39/32
f 19/26/33 22/45/33 26/43/33
f 26/49/34 22/30/34 24/48/34
f 12/50/8 7/11/8 5/7/8
f 5/7/8 1/1/8 9/51/8
f 5/7/8 9/51/8 10/17/8
f 11/18/8 12/50/8 5/7/8
f 7/11/8 12/50/8 13/52/8
f 7/11/8 13/52/8 14/53/8
f 15/19/8 9/51/8 1/1/8
f 7/11/8 14/53/8 15/19/8
f 29/54/35 27/55/35 28/56/35
f 31/57/36 28/58/36 27/59/36
f 32/60/37 29/54/37 28/56/37
f 30/61/38 34/62/38 31/63/38
f 30/64/39 36/65/39 33/66/39
f 28/58/40 39/67/40 32/68/40
f 34/69/41 36/70/41 40/71/41
f 35/72/42 37/73/42 31/74/42
f 29/54/43 42/75/43 36/65/43
f 11/76/44 32/60/44 12/77/44
f 39/67/45 43/78/45 13/79/45
f 40/80/46 35/72/46 34/81/46
f 41/82/47 39/83/47 37/73/47
f 36/70/48 45/84/48 40/71/48
f 10/85/49 38/86/49 11/76/49
f 39/83/50 44/87/50 15/88/50
f 13/89/51 43/90/51 14/91/51
f 40/80/52 44/87/52 41/82/52
f 45/84/53 10/92/53 9/93/53
f 44/87/54 9/94/54 15/88/54
f 29/54/55 30/64/55 27/55/55
f 31/57/56 37/95/56 28/58/56
f 32/60/57 38/86/57 29/54/57
f 31/63/38 27/96/38 30/61/38
f 30/61/38 33/97/38 34/62/38
f 34/62/38 35/98/38 31/63/38
f 30/64/39 29/54/39 36/65/39
f 28/58/58 37/95/58 39/67/58
f 34/69/59 33/99/59 36/70/59
f 35/72/42 41/82/42 37/73/42
f 29/54/43 38/86/43 42/75/43
f 11/76/44 38/86/44 32/60/44
f 13/79/45 12/100/45 39/67/45
f 12/100/45 32/68/45 39/67/45
f 40/80/60 41/82/60 35/72/60
f 41/82/47 44/87/47 39/83/47
f 36/70/61 42/101/61 45/84/61
f 10/85/49 42/75/49 38/86/49
f 15/88/50 14/102/50 39/83/50
f 14/102/50 43/103/50 39/83/50
f 40/80/62 45/104/62 44/87/62
f 45/84/53 42/101/53 10/92/53
f 44/87/54 45/104/54 9/94/54
