# Blender v2.91.0 OBJ File: ''
# www.blender.org
o Cube_Cube.001
v -0.000000 0.005988 -0.000000
v 0.004277 0.004277 -0.000000
v 0.005988 -0.000000 -0.000000
v 0.004277 -0.004277 -0.000000
v -0.005988 -0.000000 -0.106920
v -0.004277 0.004277 -0.106920
v -0.000000 -0.005988 0.000000
v -0.004277 -0.004277 0.000000
v -0.000000 -0.005988 -0.106920
v -0.004277 -0.004277 -0.106920
v -0.005988 -0.000000 -0.000000
v -0.004277 0.004277 -0.000000
v 0.005988 -0.000000 -0.106920
v 0.004277 -0.004277 -0.106920
v -0.000000 0.005988 -0.106920
v 0.004277 0.004277 -0.106920
v 0.005988 0.000000 0.106920
v 0.004277 -0.004277 0.106920
v -0.004277 -0.004277 0.106920
v -0.004277 0.004277 0.106920
v 0.000000 0.005988 0.106920
v -0.005988 0.000000 0.106920
v 0.004277 0.004277 0.106920
v 0.000000 -0.005988 0.106920
vt 0.443037 0.999002
vt 0.398611 0.999002
vt 0.398611 0.749501
vt 0.443037 0.749501
vt 0.220094 0.999002
vt 0.175669 0.999002
vt 0.175669 0.749501
vt 0.220094 0.749501
vt 0.817162 0.000998
vt 0.861588 0.000998
vt 0.861588 0.250499
vt 0.817162 0.250499
vt 0.811466 0.999002
vt 0.767040 0.999002
vt 0.767040 0.749501
vt 0.811466 0.749501
vt 0.711221 0.999002
vt 0.649872 0.999002
vt 0.649872 0.749501
vt 0.711221 0.749501
vt 0.114319 0.999002
vt 0.114319 0.749501
vt 0.448733 0.000998
vt 0.510082 0.000998
vt 0.510082 0.250499
vt 0.448733 0.250499
vt 0.337262 0.999002
vt 0.337262 0.749501
vt 0.331565 0.250499
vt 0.287140 0.250499
vt 0.287140 0.000998
vt 0.331565 0.000998
vt 0.108623 0.250499
vt 0.064198 0.250499
vt 0.064198 0.000998
vt 0.108623 0.000998
vt 0.867284 0.749501
vt 0.911710 0.749501
vt 0.911710 0.999002
vt 0.867284 0.999002
vt 0.716919 0.749501
vt 0.761344 0.749501
vt 0.761344 0.999002
vt 0.716919 0.999002
vt 0.515780 0.749501
vt 0.577130 0.749501
vt 0.577130 0.999002
vt 0.515781 0.999002
vt 0.002848 0.250499
vt 0.002848 0.000998
vt 0.582826 0.749501
vt 0.644176 0.749501
vt 0.644176 0.999002
vt 0.582826 0.999002
vt 0.225791 0.250499
vt 0.225791 0.000998
vn -0.3714 0.9285 -0.0000
vn 0.3714 -0.9285 0.0000
vn 0.9285 0.3714 -0.0000
vn -0.9285 -0.3714 0.0000
vn -0.9285 0.3714 0.0000
vn -0.3714 -0.9285 0.0000
vn 0.9285 -0.3714 -0.0000
vn 0.3714 0.9285 -0.0000
s 1
f 12/1/1 1/2/1 15/3/1 6/4/1
f 4/5/2 7/6/2 9/7/2 14/8/2
f 2/9/3 3/10/3 13/11/3 16/12/3
f 8/13/4 11/14/4 5/15/4 10/16/4
f 11/17/5 12/18/5 6/19/5 5/20/5
f 7/6/6 8/21/6 10/22/6 9/7/6
f 3/23/7 4/24/7 14/25/7 13/26/7
f 1/2/8 2/27/8 16/28/8 15/3/8
f 20/29/1 21/30/1 1/31/1 12/32/1
f 18/33/2 24/34/2 7/35/2 4/36/2
f 23/37/3 17/38/3 3/39/3 2/40/3
f 19/41/4 22/42/4 11/43/4 8/44/4
f 22/45/5 20/46/5 12/47/5 11/48/5
f 24/34/6 19/49/6 8/50/6 7/35/6
f 17/51/7 18/52/7 4/53/7 3/54/7
f 21/30/8 23/55/8 2/56/8 1/31/8
