# Blender v2.92.0 OBJ File: 'OGConvert.blend'
# www.blender.org
o coffin
v 1.761976 1.492000 -0.078174
v 1.527784 0.281600 -0.130678
v 1.761976 0.281600 -0.078174
v 1.527784 1.492000 -0.130678
v 2.023576 1.492000 -2.205006
v 2.131192 1.492000 -1.725006
v 2.185000 1.492000 -1.965006
v 1.891192 1.492000 -1.725006
v 1.891192 1.492000 -2.205006
v 0.776168 0.281600 -3.345966
v 0.776168 1.492000 -3.825966
v 0.776168 0.281600 -3.825966
v 0.776168 1.492000 -3.345966
v 2.023576 0.281600 -2.205006
v 1.891192 0.281600 -2.205006
v -1.891192 1.492000 -1.725006
v -1.891192 0.281600 -2.205006
v -1.891192 1.492000 -2.205006
v -1.891192 0.281600 -1.725006
v -2.131192 0.281600 -1.725006
v -2.131192 1.492000 -1.725006
v 1.891192 0.281600 -1.725006
v 2.131192 0.281600 -1.725006
v 1.667800 1.492000 -0.755174
v 1.901984 1.492000 -0.702670
v 1.901984 0.281600 -0.702670
v 1.667800 0.281600 -0.755174
v -2.023576 1.492000 -2.205006
v -2.185000 1.492000 -1.965006
v -2.023576 0.281600 -2.205006
v -1.901984 1.492000 -0.702670
v -1.667800 0.281600 -0.755174
v -1.901984 0.281600 -0.702670
v -1.667800 1.492000 -0.755174
v 0.444256 0.281600 3.825970
v 0.444256 1.492000 3.635642
v 0.444256 0.281600 3.635642
v 0.444256 1.492000 3.825970
v 0.929336 0.281600 3.635642
v 0.929336 1.492000 3.635642
v 0.886664 1.492000 3.825970
v -1.527784 1.492000 -0.130678
v -1.761976 0.281600 -0.078174
v -1.527784 0.281600 -0.130678
v -1.761976 1.492000 -0.078174
v -0.750360 1.492000 -3.384334
v -0.750360 0.281600 -3.825966
v -0.750360 1.492000 -3.825966
v -0.750360 0.281600 -3.384334
v -0.929336 1.492000 3.635642
v -0.444256 1.492000 3.825970
v -0.444256 1.492000 3.635642
v -0.886664 1.492000 3.825970
v -0.444256 0.281600 3.635642
v -0.444256 0.281600 3.825970
v 0.933320 1.492000 -3.825966
v 1.256168 1.492000 -3.345966
v -0.929336 0.281600 3.635642
v -0.933320 1.492000 -3.825966
v -1.230360 1.492000 -3.384334
v 1.256168 0.281600 -3.345966
v -1.230360 0.281600 -3.384334
v -2.371200 0.000000 -1.999998
v -1.026000 1.641600 -3.999998
v -1.026000 0.000000 -3.999998
v 1.026000 0.000000 -3.999998
v 1.026000 1.641600 -3.999998
v 2.371200 0.000000 -1.999998
v 1.026000 1.641600 4.000002
v 1.026000 -0.000000 4.000002
v -0.886664 1.641600 3.825970
v -2.185000 1.641600 -1.965006
v 0.886664 1.641600 3.825970
v 2.185000 1.641600 -1.965006
v -1.026000 -0.000000 4.000002
v -1.026000 1.641600 4.000002
v 0.933320 1.641600 -3.825966
v -0.933320 1.641600 -3.825966
v 1.026000 1.953504 4.000002
v 2.371200 1.641600 -2.000001
v 2.371200 1.953504 -2.000001
v -1.026000 1.953504 4.000002
v -2.371200 1.641600 -2.000001
v -1.026000 1.953504 -4.000002
v -2.371200 1.953504 -2.000001
v 1.026000 1.953504 -4.000002
v -2.045520 1.953504 -1.048259
v 1.456596 1.953504 1.578526
v 2.045520 1.953504 -1.048259
v -1.456596 1.953504 1.578526
v 2.258901 1.953504 -2.000001
v -2.258901 1.953504 -2.000001
v 1.252322 1.953504 2.489652
v -1.252322 1.953504 2.489652
v -2.258901 2.113504 -2.000001
v 2.045520 2.113504 -1.048259
v 2.258901 2.113504 -2.000001
v -2.045520 2.113504 -1.048259
v -1.456596 2.113504 1.578526
v 1.252322 2.113504 2.489652
v 1.456596 2.113504 1.578526
v -1.252322 2.113504 2.489652
vt 0.623150 0.922483
vt 0.636377 0.990846
vt 0.623150 0.990846
vt 0.636377 0.922483
vt 0.082807 0.925084
vt 0.076729 0.952194
vt 0.073690 0.938639
vt 0.090284 0.952194
vt 0.090284 0.925084
vt 0.530495 0.909718
vt 0.503541 0.978080
vt 0.503541 0.909718
vt 0.530495 0.978080
vt 0.541067 0.901514
vt 0.548544 0.969877
vt 0.541067 0.969877
vt 0.548544 0.901514
vt 0.468020 0.978080
vt 0.494974 0.909718
vt 0.494974 0.978080
vt 0.468020 0.909718
vt 0.557112 0.922483
vt 0.570666 0.990846
vt 0.557112 0.990846
vt 0.570666 0.922483
vt 0.579234 0.922483
vt 0.592789 0.990846
vt 0.579234 0.990846
vt 0.592789 0.922483
vt 0.004284 0.961231
vt 0.017839 0.925084
vt 0.017839 0.961231
vt 0.004284 0.925084
vt 0.644944 0.922483
vt 0.658171 0.990846
vt 0.644944 0.990846
vt 0.658171 0.922483
vt 0.056006 0.925084
vt 0.048529 0.952194
vt 0.048529 0.925084
vt 0.062084 0.952194
vt 0.065123 0.938639
vt 0.432499 0.978080
vt 0.459453 0.909718
vt 0.459453 0.978080
vt 0.432499 0.909718
vt 0.978932 0.081213
vt 0.986409 0.149576
vt 0.978932 0.149576
vt 0.986409 0.081213
vt 0.666738 0.922483
vt 0.679965 0.990846
vt 0.666738 0.990846
vt 0.679965 0.922483
vt 0.988507 0.464684
vt 0.977820 0.533046
vt 0.977820 0.464684
vt 0.988507 0.533046
vt 0.325180 0.909718
vt 0.352577 0.978080
vt 0.325180 0.978080
vt 0.352577 0.909718
vt 0.786344 0.949880
vt 0.775595 0.924893
vt 0.786344 0.922483
vt 0.775595 0.949880
vt 0.601356 0.922483
vt 0.614583 0.990846
vt 0.601356 0.990846
vt 0.614583 0.922483
vt 0.794911 0.971583
vt 0.830827 0.903220
vt 0.830827 0.971583
vt 0.794911 0.903220
vt 0.985015 0.614711
vt 0.960216 0.683074
vt 0.960216 0.614711
vt 0.985015 0.683074
vt 0.098851 0.925084
vt 0.109601 0.952481
vt 0.098851 0.952481
vt 0.109601 0.927495
vt 0.316613 0.909718
vt 0.280698 0.978080
vt 0.280698 0.909718
vt 0.316613 0.978080
vt 0.989619 0.004284
vt 0.978932 0.072646
vt 0.978932 0.004284
vt 0.989619 0.072646
vt 0.026407 0.925084
vt 0.039962 0.961231
vt 0.026406 0.961231
vt 0.039962 0.925085
vt 0.946015 0.418336
vt 0.918905 0.427212
vt 0.918905 0.400102
vt 0.946015 0.427212
vt 0.839394 0.903220
vt 0.866791 0.971583
vt 0.839394 0.971583
vt 0.866791 0.903220
vt 0.688532 0.939260
vt 0.713475 0.949593
vt 0.688532 0.949593
vt 0.713475 0.922483
vt 0.361144 0.909718
vt 0.388254 0.978080
vt 0.361144 0.978080
vt 0.388254 0.909718
vt 0.396822 0.909718
vt 0.423932 0.978080
vt 0.396822 0.978080
vt 0.423932 0.909718
vt 0.786344 0.585133
vt 0.693628 0.464684
vt 0.786344 0.464684
vt 0.693628 0.585133
vt 0.574728 0.793467
vt 0.667444 0.913916
vt 0.574728 0.913916
vt 0.667444 0.793467
vt 0.574728 0.464684
vt 0.667444 0.464684
vt 0.871724 0.894653
vt 0.863274 0.561610
vt 0.871723 0.561610
vt 0.863274 0.575412
vt 0.863274 0.634207
vt 0.794912 0.575412
vt 0.863274 0.670123
vt 0.794912 0.670123
vt 0.863274 0.883707
vt 0.863274 0.894653
vt 0.794912 0.883707
vt 0.794912 0.634207
vt 0.833525 0.264729
vt 0.901888 0.323525
vt 0.833525 0.323524
vt 0.901888 0.264729
vt 0.910337 0.004284
vt 0.910337 0.337327
vt 0.901888 0.337327
vt 0.901888 0.228814
vt 0.901888 0.015230
vt 0.833526 0.015230
vt 0.833526 0.228814
vt 0.901888 0.004284
vt 0.973007 0.728413
vt 0.880291 0.844308
vt 0.880291 0.728413
vt 0.973007 0.844308
vt 0.973007 0.852875
vt 0.880291 0.968770
vt 0.880291 0.852875
vt 0.973007 0.968770
vt 0.918905 0.391535
vt 0.927354 0.366548
vt 0.927354 0.391535
vt 0.927354 0.316366
vt 0.927354 0.291379
vt 0.918905 0.291379
vt 0.995716 0.316366
vt 0.995716 0.366548
vt 0.918905 0.282812
vt 0.927354 0.273936
vt 0.927354 0.282812
vt 0.927354 0.187719
vt 0.927354 0.177385
vt 0.918905 0.177385
vt 0.995716 0.187719
vt 0.995716 0.273936
vt 0.472568 0.456117
vt 0.472568 0.004284
vt 0.548544 0.117242
vt 0.356673 0.456117
vt 0.356673 0.004284
vt 0.280698 0.117242
vt 0.786344 0.913916
vt 0.693628 0.913916
vt 0.833525 0.349827
vt 0.901888 0.409252
vt 0.833526 0.409252
vt 0.901888 0.349827
vt 0.910337 0.434253
vt 0.901888 0.434253
vt 0.308893 0.515930
vt 0.287993 0.586655
vt 0.280698 0.588291
vt 0.293924 0.613109
vt 0.318219 0.663797
vt 0.333651 0.696484
vt 0.413168 0.896655
vt 0.321393 0.702271
vt 0.335346 0.509999
vt 0.439901 0.890662
vt 0.305961 0.669584
vt 0.280698 0.616074
vt 0.413544 0.464684
vt 0.329415 0.483546
vt 0.442253 0.901151
vt 0.488868 0.879683
vt 0.419001 0.489023
vt 0.515601 0.873690
vt 0.445454 0.483092
vt 0.502047 0.658730
vt 0.515602 0.658730
vt 0.496445 0.539921
vt 0.503740 0.538285
vt 0.502047 0.622583
vt 0.502375 0.566374
vt 0.515602 0.622583
vt 0.515602 0.563409
vt 0.491220 0.890173
vt 0.863274 0.464684
vt 0.871724 0.464684
vt 0.863274 0.487686
vt 0.863274 0.549109
vt 0.794912 0.487686
vt 0.794912 0.549109
vt 0.633087 0.004284
vt 0.567628 0.119218
vt 0.557111 0.117242
vt 0.638322 0.014113
vt 0.748982 0.004284
vt 0.743748 0.014113
vt 0.814442 0.119218
vt 0.824958 0.117242
vt 0.633087 0.456117
vt 0.640957 0.446287
vt 0.748982 0.456117
vt 0.741113 0.446287
vt 0.557112 0.464684
vt 0.557112 0.793467
vt 0.990623 0.728413
vt 0.990623 0.844308
vt 0.676012 0.464684
vt 0.676011 0.585133
vt 0.557112 0.913916
vt 0.990623 0.852875
vt 0.990623 0.968770
vt 0.196155 0.916517
vt 0.196155 0.464684
vt 0.272130 0.577642
vt 0.080259 0.916517
vt 0.080259 0.464684
vt 0.004284 0.577642
vt 0.253736 0.170996
vt 0.055940 0.319354
vt 0.022678 0.170996
vt 0.220474 0.319354
vt 0.080259 0.456117
vt 0.010626 0.117242
vt 0.004284 0.117242
vt 0.080259 0.004284
vt 0.265788 0.117242
vt 0.196155 0.004284
vt 0.272130 0.117242
vt 0.067477 0.370814
vt 0.208937 0.370814
vt 0.196155 0.456117
vt 0.880291 0.464684
vt 0.934044 0.707794
vt 0.880291 0.719845
vt 0.934044 0.476736
vt 0.951648 0.464684
vt 0.942612 0.695742
vt 0.942612 0.464684
vt 0.951648 0.695742
vt 0.548544 0.464684
vt 0.539508 0.719845
vt 0.539508 0.464684
vt 0.548544 0.719845
vt 0.918905 0.004284
vt 0.970364 0.157281
vt 0.918905 0.168818
vt 0.970364 0.015821
vt 0.548544 0.728413
vt 0.539508 0.892947
vt 0.539508 0.728413
vt 0.548544 0.892947
vt 0.969252 0.464684
vt 0.960216 0.606144
vt 0.960216 0.464684
vt 0.969252 0.606144
vt 0.676012 0.913916
vt 0.748683 0.972411
vt 0.739646 0.922483
vt 0.748683 0.922483
vt 0.739646 0.972411
vt 0.757250 0.922483
vt 0.766287 0.972411
vt 0.757250 0.972411
vt 0.766287 0.922483
vt 0.954582 0.400102
vt 0.963619 0.452255
vt 0.954582 0.452255
vt 0.963619 0.400102
vt 0.731079 0.974636
vt 0.722042 0.922483
vt 0.731079 0.922483
vt 0.722042 0.974636
vn -0.2188 -0.0000 0.9758
vn 0.0000 1.0000 0.0000
vn -1.0000 0.0000 0.0000
vn 0.0000 0.0000 -1.0000
vn 1.0000 0.0000 0.0000
vn 0.0000 -0.0000 1.0000
vn 0.2188 0.0000 -0.9758
vn -0.2188 0.0000 -0.9758
vn 0.2188 -0.0000 0.9758
vn 0.9758 0.0000 -0.2188
vn -0.9758 0.0000 -0.2188
vn -0.8298 -0.0000 -0.5581
vn 0.8298 -0.0000 -0.5581
vn 0.9758 0.0000 0.2188
vn 0.9758 -0.0001 -0.2188
vn -0.9758 -0.0001 -0.2188
vn -0.0000 -1.0000 -0.0000
vn -0.9758 0.0000 0.2188
vn -0.8298 0.0000 0.5581
vn 0.8298 0.0000 0.5581
vn 0.9744 -0.0000 0.2247
vn -0.8224 -0.0000 -0.5689
vn 0.8224 -0.0000 -0.5689
vn -0.9744 0.0000 0.2247
s 1
f 1/1/1 2/2/1 3/3/1
f 2/2/1 1/1/1 4/4/1
f 5/5/2 6/6/2 7/7/2
f 6/6/2 5/5/2 8/8/2
f 8/8/2 5/5/2 9/9/2
f 10/10/3 11/11/3 12/12/3
f 11/11/3 10/10/3 13/13/3
f 9/14/4 14/15/4 15/16/4
f 14/15/4 9/14/4 5/17/4
f 16/18/5 17/19/5 18/20/5
f 17/19/5 16/18/5 19/21/5
f 16/22/6 20/23/6 19/24/6
f 20/23/6 16/22/6 21/25/6
f 6/26/6 22/27/6 23/28/6
f 22/27/6 6/26/6 8/29/6
f 24/30/2 1/31/2 25/32/2
f 1/31/2 24/30/2 4/33/2
f 24/34/7 26/35/7 27/36/7
f 26/35/7 24/34/7 25/37/7
f 28/38/2 16/39/2 18/40/2
f 16/39/2 28/38/2 21/41/2
f 21/41/2 28/38/2 29/42/2
f 22/43/3 9/44/3 15/45/3
f 9/44/3 22/43/3 8/46/3
f 28/47/4 17/48/4 30/49/4
f 17/48/4 28/47/4 18/50/4
f 31/51/8 32/52/8 33/53/8
f 32/52/8 31/51/8 34/54/8
f 35/55/3 36/56/3 37/57/3
f 36/56/3 35/55/3 38/58/3
f 36/59/4 39/60/4 37/61/4
f 39/60/4 36/59/4 40/62/4
f 36/63/2 41/64/2 40/65/2
f 41/64/2 36/63/2 38/66/2
f 42/67/9 43/68/9 44/69/9
f 43/68/9 42/67/9 45/70/9
f 42/71/10 32/72/10 34/73/10
f 32/72/10 42/71/10 44/74/10
f 46/75/5 47/76/5 48/77/5
f 47/76/5 46/75/5 49/78/5
f 50/79/2 51/80/2 52/81/2
f 51/80/2 50/79/2 53/82/2
f 2/83/11 24/84/11 27/85/11
f 24/84/11 2/83/11 4/86/11
f 51/87/5 54/88/5 52/89/5
f 54/88/5 51/87/5 55/90/5
f 34/91/2 45/92/2 42/93/2
f 45/92/2 34/91/2 31/94/2
f 56/95/2 13/96/2 57/97/2
f 13/96/2 56/95/2 11/98/2
f 50/99/4 54/100/4 58/101/4
f 54/100/4 50/99/4 52/102/4
f 59/103/2 46/104/2 48/105/2
f 46/104/2 59/103/2 60/106/2
f 57/107/6 10/108/6 61/109/6
f 10/108/6 57/107/6 13/110/6
f 46/111/6 62/112/6 49/113/6
f 62/112/6 46/111/6 60/114/6
f 63/115/12 64/116/12 65/117/12
f 64/116/12 63/115/12 83/118/12
f 80/119/13 66/120/13 67/121/13
f 66/120/13 80/119/13 68/122/13
f 69/123/14 68/122/14 80/119/14
f 68/122/14 69/123/14 70/124/14
f 71/125/10 29/126/10 72/127/10
f 29/126/10 71/125/10 21/128/10
f 21/128/10 71/125/10 31/129/10
f 21/128/10 31/129/10 20/130/10
f 31/129/10 71/125/10 45/131/15
f 45/131/15 71/125/10 43/132/10
f 43/132/10 71/125/10 50/133/10
f 50/133/10 71/125/10 53/134/10
f 58/135/10 43/132/10 50/133/10
f 33/136/10 20/130/10 31/129/10
f 26/137/11 6/138/11 23/139/11
f 25/140/11 6/138/11 26/137/11
f 73/141/11 6/138/11 25/140/11
f 74/142/11 6/138/11 73/141/11
f 6/138/11 74/142/11 7/143/11
f 73/141/11 25/140/11 1/144/16
f 73/141/11 1/144/16 40/145/11
f 40/145/11 1/144/16 39/146/11
f 39/146/11 1/144/16 3/147/11
f 73/141/11 40/145/11 41/148/11
f 69/149/6 75/150/6 70/151/6
f 75/150/6 69/149/6 76/152/6
f 64/153/4 66/154/4 65/155/4
f 66/154/4 64/153/4 67/156/4
f 71/157/4 51/158/4 53/159/4
f 51/158/4 71/157/4 38/160/4
f 38/160/4 71/157/4 41/161/4
f 41/161/4 71/157/4 73/162/4
f 35/163/4 51/158/4 38/160/4
f 51/158/4 35/163/4 55/164/4
f 77/165/6 11/166/6 56/167/6
f 11/166/6 77/165/6 48/168/6
f 48/168/6 77/165/6 59/169/6
f 59/169/6 77/165/6 78/170/6
f 47/171/6 11/166/6 48/168/6
f 11/166/6 47/171/6 12/172/6
f 70/173/17 66/174/17 68/175/17
f 66/174/17 70/173/17 75/176/17
f 66/174/17 75/176/17 65/177/17
f 65/177/17 75/176/17 63/178/17
f 75/179/18 83/118/18 63/115/18
f 83/118/18 75/179/18 76/180/18
f 14/181/19 57/182/19 61/183/19
f 5/184/19 57/182/19 14/181/19
f 74/142/19 57/182/19 5/184/19
f 77/185/19 57/182/19 74/142/19
f 57/182/19 77/185/19 56/186/19
f 74/142/19 5/184/19 7/143/19
f 61/187/2 15/188/2 14/189/2
f 15/188/2 61/187/2 22/190/2
f 22/190/2 61/187/2 27/191/2
f 27/191/2 61/187/2 2/192/2
f 39/193/2 2/192/2 61/187/2
f 2/192/2 39/193/2 3/194/2
f 39/193/2 61/187/2 10/195/2
f 39/193/2 10/195/2 37/196/2
f 26/197/2 22/190/2 27/191/2
f 22/190/2 26/197/2 23/198/2
f 10/195/2 47/199/2 37/196/2
f 47/199/2 10/195/2 12/200/2
f 37/196/2 47/199/2 35/201/2
f 35/201/2 47/199/2 54/202/2
f 54/202/2 47/199/2 49/203/2
f 54/202/2 49/203/2 58/204/2
f 58/204/2 49/203/2 62/205/2
f 58/204/2 62/205/2 44/206/2
f 58/204/2 44/206/2 43/207/2
f 62/205/2 17/208/2 44/206/2
f 17/208/2 62/205/2 30/209/2
f 44/206/2 17/208/2 32/210/2
f 19/211/2 32/210/2 17/208/2
f 32/210/2 19/211/2 33/212/2
f 33/212/2 19/211/2 20/213/2
f 55/214/2 35/201/2 54/202/2
f 72/127/20 59/215/20 78/216/20
f 59/215/20 72/127/20 60/217/20
f 60/217/20 72/127/20 28/218/20
f 60/217/20 28/218/20 62/219/20
f 28/218/20 72/127/20 29/126/20
f 30/220/20 62/219/20 28/218/20
f 67/221/2 74/222/2 80/223/2
f 74/222/2 67/221/2 77/224/2
f 77/224/2 67/221/2 64/225/2
f 77/224/2 64/225/2 78/226/2
f 78/226/2 64/225/2 72/227/2
f 72/227/2 64/225/2 83/228/2
f 74/222/2 69/229/2 80/223/2
f 69/229/2 74/222/2 73/230/2
f 69/229/2 73/230/2 76/231/2
f 76/231/2 72/227/2 83/228/2
f 76/231/2 73/230/2 71/232/2
f 76/231/2 71/232/2 72/227/2
f 79/233/21 80/119/21 81/234/21
f 80/119/21 79/233/21 69/123/21
f 79/235/6 76/152/6 69/149/6
f 76/152/6 79/235/6 82/236/6
f 83/118/22 84/237/22 64/116/22
f 84/237/22 83/118/22 85/238/22
f 81/234/23 67/121/23 86/239/23
f 67/121/23 81/234/23 80/119/23
f 84/240/4 67/156/4 64/153/4
f 67/156/4 84/240/4 86/241/4
f 69/242/17 67/243/17 80/244/17
f 67/243/17 69/242/17 76/245/17
f 67/243/17 76/245/17 64/246/17
f 64/246/17 76/245/17 83/247/17
f 87/248/2 88/249/2 89/250/2
f 88/249/2 87/248/2 90/251/2
f 79/252/2 89/250/2 88/249/2
f 79/252/2 91/253/2 89/250/2
f 91/253/2 79/252/2 81/254/2
f 86/255/2 91/253/2 81/254/2
f 91/253/2 86/255/2 92/256/2
f 92/256/2 86/255/2 84/257/2
f 92/256/2 84/257/2 85/258/2
f 85/258/2 90/251/2 87/248/2
f 85/258/2 87/248/2 92/256/2
f 79/252/2 88/249/2 93/259/2
f 79/252/2 93/259/2 94/260/2
f 85/258/2 94/260/2 90/251/2
f 79/252/2 94/260/2 82/261/2
f 82/261/2 94/260/2 85/258/2
f 95/262/2 96/263/2 97/264/2
f 96/263/2 95/262/2 98/265/2
f 96/266/6 87/267/6 89/268/6
f 87/267/6 96/266/6 98/269/6
f 95/270/4 91/271/4 92/272/4
f 91/271/4 95/270/4 97/273/4
f 99/274/2 100/275/2 101/276/2
f 100/275/2 99/274/2 102/277/2
f 99/278/4 88/279/4 90/280/4
f 88/279/4 99/278/4 101/281/4
f 100/282/6 94/283/6 93/284/6
f 94/283/6 100/282/6 102/285/6
f 76/180/24 85/238/24 83/118/24
f 85/238/24 76/180/24 82/286/24
f 100/287/21 88/288/21 101/289/21
f 88/288/21 100/287/21 93/290/21
f 94/291/24 99/292/24 90/293/24
f 99/292/24 94/291/24 102/294/24
f 96/295/21 91/296/21 97/297/21
f 91/296/21 96/295/21 89/298/21
f 87/299/24 95/300/24 92/301/24
f 95/300/24 87/299/24 98/302/24
