# Blender v2.92.0 OBJ File: 'kenney_OGConvert.blend'
# www.blender.org
o fence
v 0.250000 0.518571 -0.515000
v 0.333333 0.590000 -0.485000
v 0.333333 0.590000 -0.515000
v 0.250000 0.518571 -0.485000
v 0.500000 0.590000 -0.470000
v 0.500000 0.000000 -0.530000
v 0.500000 0.590000 -0.530000
v 0.500000 0.000000 -0.470000
v 0.416667 0.000000 -0.515000
v 0.416667 0.518571 -0.530000
v 0.416667 0.000000 -0.530000
v 0.416667 0.518571 -0.515000
v 0.416667 0.000000 -0.470000
v 0.416667 0.518571 -0.470000
v 0.416667 0.518571 -0.485000
v -0.500000 0.000000 -0.470000
v -0.416667 0.000000 -0.485000
v -0.416667 0.000000 -0.470000
v -0.416667 0.000000 -0.515000
v -0.500000 0.000000 -0.530000
v -0.416667 0.000000 -0.530000
v -0.250000 0.000000 -0.515000
v -0.250000 0.000000 -0.485000
v -0.250000 0.000000 -0.530000
v -0.250000 0.000000 -0.470000
v -0.083333 0.000000 -0.530000
v -0.083333 0.000000 -0.470000
v -0.083333 0.000000 -0.515000
v -0.083333 0.000000 -0.485000
v 0.083333 0.000000 -0.515000
v 0.083333 0.000000 -0.485000
v 0.083333 0.000000 -0.530000
v 0.083333 0.000000 -0.470000
v 0.250000 0.000000 -0.530000
v 0.250000 0.000000 -0.470000
v 0.250000 0.000000 -0.515000
v 0.250000 0.000000 -0.485000
v 0.416667 0.000000 -0.485000
v -0.416667 0.518571 -0.470000
v -0.500000 0.590000 -0.470000
v -0.500000 0.590000 -0.530000
v -0.416667 0.518571 -0.485000
v -0.416667 0.518571 -0.530000
v -0.250000 0.518571 -0.485000
v -0.333333 0.590000 -0.485000
v -0.250000 0.518571 -0.530000
v -0.083333 0.518571 -0.530000
v -0.166667 0.590000 -0.530000
v -0.416667 0.518571 -0.515000
v -0.166667 0.590000 -0.470000
v -0.250000 0.518571 -0.470000
v -0.250000 0.518571 -0.515000
v -0.083333 0.518571 -0.515000
v -0.333333 0.590000 -0.515000
v -0.083333 0.518571 -0.470000
v -0.083333 0.518571 -0.485000
v 0.250000 0.518571 -0.470000
v 0.083333 0.518571 -0.470000
v 0.166667 0.590000 -0.470000
v 0.083333 0.518571 -0.515000
v -0.000000 0.590000 -0.515000
v 0.083333 0.518571 -0.530000
v 0.250000 0.518571 -0.530000
v 0.166667 0.590000 -0.530000
v 0.083333 0.518571 -0.485000
v -0.000000 0.590000 -0.485000
v 0.500000 0.347494 -0.450000
v -0.500000 0.242506 -0.450000
v 0.500000 0.242506 -0.450000
v -0.500000 0.347494 -0.450000
v 0.500000 0.242506 -0.470000
v -0.500000 0.242506 -0.470000
v -0.500000 0.347494 -0.470000
v 0.500000 0.347494 -0.470000
v -0.500000 0.347494 -0.550000
v 0.500000 0.242506 -0.550000
v -0.500000 0.242506 -0.550000
v 0.500000 0.347494 -0.550000
v -0.500000 0.242506 -0.530000
v 0.500000 0.242506 -0.530000
v -0.500000 0.347494 -0.530000
v 0.500000 0.347494 -0.530000
vt 0.677413 0.803934
vt 0.658713 0.759409
vt 0.677413 0.759409
vt 0.658713 0.803934
vt 0.935823 0.244118
vt 0.973224 0.004770
vt 0.973224 0.244118
vt 0.935823 0.004770
vt 0.135849 0.960920
vt 0.145200 0.637665
vt 0.145200 0.960920
vt 0.135849 0.637665
vt 0.721899 0.004770
vt 0.773845 0.372550
vt 0.721899 0.372550
vt 0.773845 0.049295
vt 0.494184 0.803934
vt 0.456783 0.759409
vt 0.494184 0.759409
vt 0.456783 0.803934
vt 0.258632 0.759409
vt 0.258632 0.759409
vt 0.258632 0.759409
vt 0.750138 0.768948
vt 0.750138 0.768948
vt 0.750138 0.768948
vt 0.192140 0.915248
vt 0.182790 0.863301
vt 0.192140 0.863301
vt 0.164089 0.863301
vt 0.154739 0.915248
vt 0.154739 0.863301
vt 0.164089 0.759409
vt 0.182790 0.759409
vt 0.248620 0.759409
vt 0.248620 0.759409
vt 0.248620 0.759409
vt 0.248620 0.759409
vt 0.239081 0.863301
vt 0.201679 0.759409
vt 0.239081 0.759409
vt 0.201679 0.863301
vt 0.249092 0.768948
vt 0.249092 0.768948
vt 0.249092 0.768948
vt 0.249092 0.768948
vt 0.333812 0.863301
vt 0.315111 0.759409
vt 0.333812 0.759409
vt 0.315111 0.863301
vt 0.343351 0.768948
vt 0.343351 0.768948
vt 0.343351 0.768948
vt 0.343351 0.759409
vt 0.343351 0.759409
vt 0.343351 0.759409
vt 0.305572 0.863301
vt 0.268171 0.759409
vt 0.305572 0.759409
vt 0.268171 0.863301
vt 0.750138 0.759408
vt 0.750138 0.759408
vt 0.750138 0.759408
vt 0.750138 0.759408
vt 0.400303 0.863301
vt 0.381603 0.759409
vt 0.400303 0.759409
vt 0.381603 0.863301
vt 0.759678 0.768948
vt 0.759678 0.768948
vt 0.759678 0.768948
vt 0.759678 0.759408
vt 0.759678 0.759408
vt 0.759678 0.759408
vt 0.447244 0.811355
vt 0.409843 0.759409
vt 0.447244 0.759409
vt 0.409843 0.811355
vt 0.935823 0.576912
vt 0.945173 0.253657
vt 0.945173 0.576912
vt 0.935823 0.253657
vt 0.721899 0.426615
vt 0.773845 0.749869
vt 0.721899 0.749869
vt 0.773845 0.382089
vt 0.844870 0.372550
vt 0.882271 0.004770
vt 0.882271 0.372550
vt 0.844870 0.004770
vt 0.004770 0.848037
vt 0.014120 0.637665
vt 0.014120 0.848037
vt 0.004770 0.637665
vt 0.783384 0.004770
vt 0.835330 0.372550
vt 0.783384 0.372550
vt 0.835330 0.049295
vt 0.154739 0.049295
vt 0.258632 0.372550
vt 0.154739 0.372550
vt 0.258632 0.049295
vt 0.206685 0.004770
vt 0.627167 0.827826
vt 0.608467 0.759408
vt 0.627167 0.759408
vt 0.608467 0.827826
vt 0.381603 0.049295
vt 0.485495 0.372550
vt 0.381603 0.372550
vt 0.485496 0.049295
vt 0.433549 0.004770
vt 0.783384 0.426615
vt 0.835330 0.749869
vt 0.783384 0.749869
vt 0.835330 0.382089
vt 0.268171 0.049295
vt 0.372063 0.372550
vt 0.268171 0.372550
vt 0.372064 0.049295
vt 0.320117 0.004770
vt 0.495035 0.426615
vt 0.598927 0.749869
vt 0.495035 0.749869
vt 0.598927 0.426615
vt 0.546981 0.382089
vt 0.042171 0.916454
vt 0.032821 0.848037
vt 0.042171 0.848037
vt 0.004770 0.916454
vt 0.541125 0.803934
vt 0.503724 0.759409
vt 0.541125 0.759409
vt 0.503724 0.803934
vt 0.258632 0.768948
vt 0.258632 0.768948
vt 0.258632 0.768948
vt 0.258632 0.768948
vt 0.107805 0.848037
vt 0.117156 0.637665
vt 0.117156 0.848037
vt 0.107805 0.637665
vt 0.598927 0.827826
vt 0.580227 0.759408
vt 0.598927 0.759408
vt 0.580227 0.827826
vt 0.079754 0.848037
vt 0.089105 0.637665
vt 0.089105 0.848037
vt 0.079754 0.637665
vt 0.938751 0.960920
vt 0.948101 0.637665
vt 0.948101 0.960920
vt 0.938751 0.637665
vt 0.608467 0.426615
vt 0.712359 0.749869
vt 0.608467 0.749869
vt 0.712359 0.426615
vt 0.660413 0.382089
vt 0.891810 0.848037
vt 0.901161 0.637665
vt 0.901161 0.848037
vt 0.891810 0.637665
vt 0.268171 0.426615
vt 0.372063 0.749869
vt 0.268171 0.749869
vt 0.372064 0.426615
vt 0.320117 0.382089
vt 0.705653 0.803934
vt 0.686953 0.759409
vt 0.705653 0.759409
vt 0.686953 0.803934
vt 0.495035 0.049295
vt 0.598927 0.372550
vt 0.495035 0.372550
vt 0.598927 0.049295
vt 0.546981 0.004770
vt 0.381603 0.426615
vt 0.485495 0.749869
vt 0.381603 0.749869
vt 0.485496 0.426615
vt 0.433549 0.382089
vt 0.353363 0.759409
vt 0.372063 0.827826
vt 0.353363 0.827826
vt 0.372064 0.759409
vt 0.042171 0.637665
vt 0.032821 0.637665
vt 0.882271 0.426615
vt 0.844870 0.382089
vt 0.882271 0.382089
vt 0.872921 0.426615
vt 0.854220 0.426615
vt 0.844870 0.426615
vt 0.608467 0.049295
vt 0.712359 0.372550
vt 0.608467 0.372550
vt 0.712359 0.049295
vt 0.660413 0.004770
vt 0.872921 0.749869
vt 0.882271 0.749869
vt 0.844870 0.749869
vt 0.854220 0.749869
vt 0.919861 0.848037
vt 0.929212 0.637665
vt 0.929212 0.848037
vt 0.919861 0.637665
vt 0.740599 0.803934
vt 0.721899 0.759409
vt 0.740599 0.759409
vt 0.721899 0.803934
vt 0.117156 0.916454
vt 0.079754 0.916454
vt 0.154739 0.426615
vt 0.258632 0.749869
vt 0.154739 0.749869
vt 0.258632 0.426615
vt 0.206685 0.382089
vt 0.060865 0.960920
vt 0.070215 0.637665
vt 0.070215 0.960920
vt 0.060865 0.637665
vt 0.929212 0.916454
vt 0.891810 0.916454
vt 0.070215 0.004770
vt 0.004770 0.628126
vt 0.004770 0.004770
vt 0.070215 0.628126
vt 0.913816 0.004770
vt 0.926284 0.628126
vt 0.913816 0.628126
vt 0.926284 0.004770
vt 0.636706 0.824854
vt 0.649174 0.759408
vt 0.649174 0.824854
vt 0.636706 0.759408
vt 0.973224 0.769536
vt 0.960757 0.296248
vt 0.973224 0.296248
vt 0.960757 0.769536
vt 0.973224 0.253657
vt 0.960757 0.253657
vt 0.145200 0.004770
vt 0.079754 0.628126
vt 0.079754 0.004770
vt 0.145200 0.628126
vt 0.891810 0.004770
vt 0.904277 0.628126
vt 0.891810 0.628126
vt 0.904277 0.004770
vt 0.558220 0.824854
vt 0.570688 0.759408
vt 0.570688 0.824854
vt 0.558220 0.759408
vt 0.995230 0.520648
vt 0.982763 0.047361
vt 0.995230 0.047361
vt 0.982763 0.520648
vt 0.995230 0.004770
vt 0.982763 0.004770
vn -0.6508 0.7593 0.0000
vn 1.0000 -0.0000 0.0000
vn -1.0000 0.0000 0.0000
vn 0.0000 -0.0000 1.0000
vn -0.6509 0.7592 0.0000
vn -0.6509 0.7592 0.0002
vn 0.0000 0.0000 0.0000
vn -0.0000 -1.0000 -0.0000
vn 0.0000 -0.4213 -0.9069
vn -0.7000 0.5888 0.4041
vn -0.0000 -1.0000 -0.0005
vn -0.0000 -1.0000 0.0002
vn 0.0000 -0.4472 -0.8944
vn -0.0000 1.0000 -0.0000
vn 0.7637 0.4715 0.4409
vn -0.0003 -1.0000 0.0000
vn 0.0000 -0.4473 0.8944
vn 0.0000 -1.0000 0.0003
vn 0.0000 0.0000 -1.0000
vn 0.6508 0.7593 0.0000
vn 0.2706 0.9239 -0.2706
s 1
f 1/1/1 2/2/1 3/3/1
f 2/2/1 1/1/1 4/4/1
f 5/5/2 6/6/2 7/7/2
f 6/6/2 5/5/2 8/8/2
f 9/9/3 10/10/3 11/11/3
f 10/10/3 9/9/3 12/12/3
f 5/13/4 13/14/4 8/15/4
f 13/14/4 5/13/4 14/16/4
f 10/17/5 5/18/1 7/19/1
f 5/18/1 10/17/5 14/20/6
f 14/21/6 10/22/5 12/23/1
f 14/24/6 12/25/1 15/26/7
f 16/27/8 17/28/8 18/29/8
f 17/28/8 16/27/8 19/30/8
f 20/31/8 19/30/8 16/27/8
f 19/30/8 20/31/8 21/32/8
f 22/33/9 17/28/8 19/30/8
f 22/33/9 23/34/10 17/28/8
f 24/35/8 23/36/10 22/37/9
f 24/35/8 25/38/11 23/36/10
f 26/39/12 25/40/11 24/41/8
f 26/39/12 27/42/12 25/40/11
f 28/43/8 27/44/12 26/45/12
f 28/43/8 29/46/8 27/44/12
f 30/47/13 29/48/8 28/49/8
f 29/48/8 30/47/13 31/50/14
f 32/51/8 31/52/14 30/53/13
f 32/54/8 33/55/8 31/56/14
f 34/57/8 33/58/8 32/59/8
f 34/57/8 35/60/11 33/58/8
f 36/61/8 35/62/11 34/63/8
f 36/61/8 37/64/15 35/62/11
f 9/65/16 37/66/15 36/67/8
f 9/65/16 38/68/17 37/66/15
f 11/69/12 38/70/17 9/71/16
f 11/72/12 13/73/18 38/74/17
f 6/75/8 13/76/18 11/77/12
f 13/76/18 6/75/8 8/78/8
f 13/79/3 15/80/3 38/81/3
f 15/80/3 13/79/3 14/82/3
f 39/83/4 16/84/4 18/85/4
f 16/84/4 39/83/4 40/86/4
f 16/87/3 41/88/3 20/89/3
f 41/88/3 16/87/3 40/90/3
f 39/91/2 17/92/2 42/93/2
f 17/92/2 39/91/2 18/94/2
f 41/95/19 21/96/19 20/97/19
f 21/96/19 41/95/19 43/98/19
f 1/99/19 9/100/19 36/101/19
f 9/100/19 1/99/19 12/102/19
f 12/102/19 1/99/19 3/103/19
f 3/104/20 15/105/20 12/106/20
f 15/105/20 3/104/20 2/107/20
f 15/108/4 37/109/4 38/110/4
f 37/109/4 15/108/4 4/111/4
f 4/111/4 15/108/4 2/112/4
f 10/113/19 6/114/19 11/115/19
f 6/114/19 10/113/19 7/116/19
f 44/117/4 17/118/4 23/119/4
f 17/118/4 44/117/4 42/120/4
f 42/120/4 44/117/4 45/121/4
f 46/122/19 26/123/19 24/124/19
f 26/123/19 46/122/19 47/125/19
f 47/125/19 46/122/19 48/126/19
f 41/127/20 49/128/20 43/129/20
f 49/128/20 41/127/20 42/93/20
f 40/130/20 42/93/20 41/127/20
f 42/93/20 40/130/20 39/91/20
f 46/131/5 50/132/1 48/133/1
f 50/132/1 46/131/5 51/134/1
f 51/135/1 46/136/5 52/137/21
f 51/135/1 52/137/21 44/138/19
f 53/139/2 26/140/2 47/141/2
f 26/140/2 53/139/2 28/142/2
f 54/143/20 44/144/20 52/145/20
f 44/144/20 54/143/20 45/146/20
f 55/147/2 29/148/2 56/149/2
f 29/148/2 55/147/2 27/150/2
f 22/151/3 46/152/3 24/153/3
f 46/152/3 22/151/3 52/154/3
f 57/155/4 33/156/4 35/157/4
f 33/156/4 57/155/4 58/158/4
f 58/158/4 57/155/4 59/159/4
f 57/160/2 37/161/2 4/162/2
f 37/161/2 57/160/2 35/163/2
f 55/164/4 25/165/4 27/166/4
f 25/165/4 55/164/4 51/167/4
f 51/167/4 55/164/4 50/168/4
f 49/169/1 45/170/1 54/171/1
f 45/170/1 49/169/1 42/172/1
f 53/173/19 30/174/19 28/175/19
f 30/174/19 53/173/19 60/176/19
f 60/176/19 53/173/19 61/177/19
f 62/178/19 34/179/19 32/180/19
f 34/179/19 62/178/19 63/181/19
f 63/181/19 62/178/19 64/182/19
f 61/183/20 65/184/20 60/185/20
f 65/184/20 61/183/20 66/186/20
f 49/128/2 21/187/2 43/129/2
f 21/187/2 49/128/2 19/188/2
f 62/189/1 59/190/1 64/191/1
f 59/190/1 62/189/1 60/192/1
f 65/193/1 59/190/1 60/192/1
f 59/190/1 65/193/1 58/194/1
f 65/195/4 29/196/4 31/197/4
f 29/196/4 65/195/4 56/198/4
f 56/198/4 65/195/4 66/199/4
f 30/200/3 62/189/3 32/201/3
f 62/189/3 30/200/3 60/192/3
f 33/202/3 65/193/3 31/203/3
f 65/193/3 33/202/3 58/194/3
f 1/204/2 34/205/2 63/206/2
f 34/205/2 1/204/2 36/207/2
f 53/208/1 66/209/1 61/210/1
f 66/209/1 53/208/1 56/211/1
f 48/212/20 53/139/20 47/141/20
f 53/139/20 48/212/20 56/149/20
f 56/149/20 48/212/20 55/147/20
f 55/147/20 48/212/20 50/213/20
f 49/214/19 22/215/19 19/216/19
f 22/215/19 49/214/19 52/217/19
f 52/217/19 49/214/19 54/218/19
f 25/219/3 44/220/3 23/221/3
f 44/220/3 25/219/3 51/222/3
f 64/223/20 1/204/20 63/206/20
f 1/204/20 64/223/20 4/162/20
f 4/162/20 64/223/20 57/160/20
f 57/160/20 64/223/20 59/224/20
f 67/225/4 68/226/4 69/227/4
f 68/226/4 67/225/4 70/228/4
f 68/229/8 71/230/8 69/231/8
f 71/230/8 68/229/8 72/232/8
f 68/233/3 73/234/3 72/235/3
f 73/234/3 68/233/3 70/236/3
f 73/237/14 67/238/14 74/239/14
f 67/238/14 73/237/14 70/240/14
f 67/238/2 71/241/2 74/239/2
f 71/241/2 67/238/2 69/242/2
f 75/243/19 76/244/19 77/245/19
f 76/244/19 75/243/19 78/246/19
f 79/247/8 76/248/8 80/249/8
f 76/248/8 79/247/8 77/250/8
f 79/251/3 75/252/3 77/253/3
f 75/252/3 79/251/3 81/254/3
f 75/255/14 82/256/14 78/257/14
f 82/256/14 75/255/14 81/258/14
f 82/256/2 76/259/2 78/257/2
f 76/259/2 82/256/2 80/260/2
