# Blender v2.92.0 OBJ File: 'OGConvert.blend'
# www.blender.org
o gravestoneWide
v 0.000000 3.917600 -0.538783
v 0.472356 3.898809 0.538783
v 0.472356 3.898809 -0.538783
v 0.000000 3.917600 0.538783
v 2.072570 2.906222 0.405983
v 2.137323 2.875950 0.273183
v 2.137323 2.875950 0.405983
v 2.072570 2.906222 0.273183
v -2.302360 1.092386 0.405983
v 2.302354 1.092386 0.538783
v 2.302354 1.092386 0.405983
v -2.302360 1.092386 0.538783
v -1.859705 3.619351 -0.538783
v -1.405157 3.749216 0.538783
v -1.405157 3.749216 -0.538783
v -1.859705 3.619351 0.538783
v -0.941731 3.842568 -0.538783
v -0.472356 3.898809 0.538783
v -0.472356 3.898809 -0.538783
v -0.941731 3.842568 0.538783
v 3.146490 0.464800 0.863200
v -3.146490 -0.000000 0.863200
v 3.146490 -0.000000 0.863200
v -3.146490 0.464800 0.863200
v 1.673990 3.055243 0.405983
v 1.673990 3.055243 0.273183
v -1.264834 3.172140 0.405983
v -0.847689 3.256163 0.273183
v -0.847689 3.256163 0.405983
v -1.264834 3.172140 0.273183
v -2.137323 2.875950 0.405983
v -2.137323 1.257423 0.273183
v -2.137323 2.875950 0.273183
v -2.137323 1.257423 0.405983
v -2.730747 3.253600 -0.538783
v -2.302493 3.453803 0.538783
v -2.302493 3.453803 -0.538783
v -2.730747 3.253600 0.538783
v 2.730747 3.253600 0.538783
v 2.730747 0.664000 -0.538783
v 2.730747 3.253600 -0.538783
v 2.730747 0.664000 0.538783
v -3.020629 0.664000 -0.828672
v 3.146490 0.464800 -0.863200
v -3.146490 0.464800 -0.863200
v 3.020629 0.664000 -0.828672
v -2.730747 0.664000 0.538783
v 2.302354 2.980982 0.538783
v 2.136513 3.058510 0.538783
v 1.725636 3.212126 0.538783
v 1.303857 3.332630 0.538783
v 2.302500 3.453803 0.538783
v 0.873844 3.419248 0.538783
v 0.438306 3.471438 0.538783
v 1.859705 3.619351 0.538783
v 0.000000 3.488875 0.538783
v -2.302360 2.980982 0.538783
v -2.136513 3.058510 0.538783
v -1.725636 3.212126 0.538783
v -1.303857 3.332630 0.538783
v -0.873844 3.419248 0.538783
v -0.438306 3.471438 0.538783
v 1.405157 3.749216 0.538783
v 0.941731 3.842568 0.538783
v 2.137323 1.257423 0.405983
v 2.137323 1.257423 0.273183
v 0.847689 3.256163 0.405983
v 1.264834 3.172140 0.273183
v 1.264834 3.172140 0.405983
v 0.847689 3.256163 0.273183
v 2.302500 3.453803 -0.538783
v 2.302354 2.980982 0.405983
v -3.020629 0.664000 0.828672
v 1.725636 3.212126 0.405983
v 1.303857 3.332630 0.405983
v 3.146490 0.000000 -0.863200
v -3.146490 0.000000 -0.863200
v -1.303857 3.332630 0.405983
v -1.725636 3.212126 0.405983
v 0.941731 3.842568 -0.538783
v 2.136513 3.058510 0.405983
v 1.405157 3.749216 -0.538783
v 1.859705 3.619351 -0.538783
v 0.873844 3.419248 0.405983
v 0.438306 3.471438 0.405983
v 3.020629 0.664000 0.828672
v -2.072570 2.906222 0.405983
v -1.673990 3.055243 0.273183
v -1.673990 3.055243 0.405983
v -2.072570 2.906222 0.273183
v 0.000000 3.488875 0.405983
v -0.438306 3.471438 0.405983
v -2.730747 0.664000 -0.538783
v 0.000000 3.323705 0.405983
v 0.425186 3.306793 0.273183
v 0.425186 3.306793 0.405983
v 0.000000 3.323705 0.273183
v -2.302360 2.980982 0.405983
v -2.136513 3.058510 0.405983
v -0.425186 3.306793 0.405983
v -0.873844 3.419248 0.405983
v -0.425186 3.306793 0.273183
vt 0.373361 0.697627
vt 0.282864 0.657957
vt 0.373361 0.657957
vt 0.282864 0.697627
vt 0.743202 0.749895
vt 0.754355 0.755333
vt 0.743202 0.755333
vt 0.754355 0.749895
vt 0.719222 0.783053
vt 0.708070 0.396337
vt 0.719222 0.396337
vt 0.708070 0.783053
vt 0.373361 0.853810
vt 0.282864 0.815636
vt 0.373361 0.815636
vt 0.282864 0.853810
vt 0.373361 0.776716
vt 0.282864 0.737297
vt 0.373361 0.737297
vt 0.282864 0.776716
vt 0.259708 0.468291
vt 0.220673 0.996793
vt 0.220673 0.468291
vt 0.259708 0.996793
vt 0.743202 0.716421
vt 0.754355 0.716421
vt 0.743202 0.469611
vt 0.754355 0.504644
vt 0.743202 0.504644
vt 0.754355 0.469611
vt 0.200716 0.767469
vt 0.211869 0.632359
vt 0.211869 0.767469
vt 0.200716 0.632359
vt 0.373361 0.926963
vt 0.282864 0.890997
vt 0.373361 0.890997
vt 0.282864 0.926963
vt 0.379774 0.684464
vt 0.470271 0.468291
vt 0.470271 0.684464
vt 0.379774 0.468291
vt 0.977356 0.013777
vt 0.960571 0.531709
vt 0.960571 0.003207
vt 0.977356 0.521138
vt 0.003207 0.003207
vt 0.039183 0.039184
vt 0.003207 0.461878
vt 0.220686 0.003207
vt 0.197791 0.039184
vt 0.204302 0.053112
vt 0.217203 0.087619
vt 0.227323 0.123041
vt 0.237500 0.039172
vt 0.234598 0.159154
vt 0.238981 0.195732
vt 0.251403 0.076359
vt 0.240445 0.232542
vt 0.039183 0.425901
vt 0.220686 0.461878
vt 0.197791 0.425901
vt 0.204302 0.411973
vt 0.217203 0.377466
vt 0.227323 0.342044
vt 0.237500 0.425912
vt 0.234598 0.305930
vt 0.238981 0.269353
vt 0.251403 0.388726
vt 0.262309 0.114533
vt 0.262309 0.350551
vt 0.270149 0.153453
vt 0.270149 0.311632
vt 0.274872 0.192873
vt 0.274872 0.272212
vt 0.276450 0.232542
vt 0.194303 0.827288
vt 0.183150 0.468291
vt 0.194303 0.468291
vt 0.183150 0.827288
vt 0.743202 0.647026
vt 0.754355 0.682059
vt 0.743202 0.682059
vt 0.754355 0.647026
vt 0.373361 0.504257
vt 0.282864 0.468291
vt 0.373361 0.468291
vt 0.282864 0.504257
vt 0.200716 0.625946
vt 0.211869 0.468291
vt 0.211869 0.625946
vt 0.200716 0.468291
vt 0.494471 0.613279
vt 0.476684 0.471191
vt 0.494471 0.468291
vt 0.476684 0.610379
vt 0.725636 0.699197
vt 0.736789 0.734619
vt 0.725636 0.734619
vt 0.736789 0.699197
vt 0.921544 0.531709
vt 0.921544 0.003207
vt 0.725636 0.444771
vt 0.736789 0.480194
vt 0.725636 0.480194
vt 0.736789 0.444771
vt 0.282864 0.618538
vt 0.373361 0.618538
vt 0.915131 0.531709
vt 0.770143 0.003207
vt 0.915131 0.003207
vt 0.770143 0.531709
vt 0.736789 0.769126
vt 0.725636 0.769126
vt 0.736789 0.783053
vt 0.725636 0.783053
vt 0.282864 0.579618
vt 0.373361 0.579618
vt 0.282864 0.541444
vt 0.373361 0.541444
vt 0.725636 0.626505
vt 0.736789 0.663083
vt 0.725636 0.663083
vt 0.736789 0.626505
vt 0.276450 0.478861
vt 0.276450 0.986223
vt 0.743202 0.401775
vt 0.754355 0.435249
vt 0.743202 0.435249
vt 0.754355 0.401775
vt 0.725636 0.552885
vt 0.736789 0.589695
vt 0.725636 0.589695
vt 0.736789 0.552885
vt 0.743202 0.396337
vt 0.754355 0.396337
vt 0.770143 0.754294
vt 0.860640 0.538122
vt 0.860640 0.754294
vt 0.770143 0.538122
vt 0.743202 0.575835
vt 0.754355 0.611543
vt 0.743202 0.611543
vt 0.754355 0.575835
vt 0.500301 0.003207
vt 0.282864 0.461878
vt 0.282864 0.003207
vt 0.500301 0.461878
vt 0.517112 0.039173
vt 0.517112 0.425913
vt 0.531012 0.076359
vt 0.531012 0.388726
vt 0.541916 0.114533
vt 0.541916 0.350551
vt 0.549755 0.153453
vt 0.549755 0.311632
vt 0.554477 0.192873
vt 0.554477 0.272212
vt 0.556055 0.232542
vt 0.562468 0.003207
vt 0.576328 0.017066
vt 0.562468 0.389923
vt 0.721076 0.003207
vt 0.712255 0.017066
vt 0.714797 0.022505
vt 0.727313 0.055978
vt 0.727587 0.017134
vt 0.737130 0.090340
vt 0.740488 0.051641
vt 0.744186 0.125373
vt 0.750608 0.087063
vt 0.748438 0.160856
vt 0.749858 0.196565
vt 0.576328 0.376063
vt 0.721076 0.389923
vt 0.712255 0.376063
vt 0.714797 0.370625
vt 0.727313 0.337151
vt 0.727587 0.375995
vt 0.737130 0.302789
vt 0.740488 0.341488
vt 0.744186 0.267756
vt 0.750608 0.306066
vt 0.748438 0.232273
vt 0.757882 0.123177
vt 0.757882 0.269953
vt 0.762265 0.159755
vt 0.762265 0.233375
vt 0.763730 0.196565
vt 0.533271 0.613279
vt 0.533271 0.468291
vt 0.754355 0.540127
vt 0.743202 0.540127
vt 0.539684 0.625946
vt 0.550837 0.468291
vt 0.550837 0.625946
vt 0.539684 0.468291
vt 0.725636 0.396337
vt 0.736789 0.410265
vt 0.725636 0.410265
vt 0.736789 0.396337
vt 0.533271 0.622592
vt 0.515484 0.764680
vt 0.515484 0.619692
vt 0.533271 0.761781
vt 0.476684 0.619692
vt 0.476684 0.764680
vt 0.736789 0.516307
vt 0.725636 0.516307
vt 0.139134 0.468291
vt 0.003207 0.827288
vt 0.003207 0.468291
vt 0.139134 0.827288
vt 0.141676 0.473729
vt 0.141676 0.821850
vt 0.154191 0.507203
vt 0.154191 0.788376
vt 0.164008 0.541565
vt 0.164008 0.754014
vt 0.171065 0.576598
vt 0.171065 0.718981
vt 0.175317 0.612081
vt 0.175317 0.683498
vt 0.176737 0.647790
vt 0.539684 0.767469
vt 0.550837 0.632359
vt 0.550837 0.767469
vt 0.539684 0.632359
vt 0.701656 0.396337
vt 0.677311 0.420682
vt 0.562468 0.396337
vt 0.701656 0.903698
vt 0.677311 0.879353
vt 0.586814 0.879353
vt 0.586814 0.420682
vt 0.562468 0.903698
vn 0.0000 1.0000 0.0000
vn 0.0794 0.9968 0.0000
vn -0.3872 -0.9220 0.0000
vn -0.4235 -0.9059 0.0000
vn -0.3127 0.9499 0.0000
vn -0.2363 0.9717 0.0000
vn -0.1583 0.9874 0.0000
vn -0.0794 0.9968 0.0000
vn 0.0000 0.0000 1.0000
vn -0.3127 -0.9499 0.0000
vn 0.2363 -0.9717 0.0000
vn 0.1583 -0.9874 0.0000
vn 1.0000 0.0000 0.0000
vn -0.4235 0.9059 0.0000
vn -0.3872 0.9220 0.0000
vn 0.0000 0.1708 -0.9853
vn -0.1583 -0.9874 0.0000
vn -0.2363 -0.9717 0.0000
vn 0.3872 0.9220 0.0000
vn 0.4235 0.9059 0.0000
vn -1.0000 0.0000 0.0000
vn -0.8454 0.5341 0.0000
vn 0.0000 0.0000 -1.0000
vn 0.3127 -0.9499 0.0000
vn 0.1583 0.9874 0.0000
vn 0.0000 -1.0000 -0.0000
vn 0.2363 0.9717 0.0000
vn 0.3127 0.9499 0.0000
vn -0.0794 -0.9968 0.0000
vn 0.0000 0.1708 0.9853
vn 0.3872 -0.9220 0.0000
vn 0.0794 -0.9968 0.0000
vn 0.4235 -0.9059 0.0000
vn 0.3871 -0.9220 0.0000
vn 0.8454 0.5341 0.0000
s 1
f 1/1/1 2/2/2 3/3/2
f 2/2/2 1/1/1 4/4/1
f 5/5/3 6/6/4 7/7/4
f 6/6/4 5/5/3 8/8/3
f 9/9/1 10/10/1 11/11/1
f 10/10/1 9/9/1 12/12/1
f 13/13/5 14/14/6 15/15/6
f 14/14/6 13/13/5 16/16/5
f 17/17/7 18/18/8 19/19/8
f 18/18/8 17/17/7 20/20/7
f 21/21/9 22/22/9 23/23/9
f 22/22/9 21/21/9 24/24/9
f 25/25/10 8/8/3 5/5/3
f 8/8/3 25/25/10 26/26/10
f 27/27/11 28/28/12 29/29/12
f 28/28/12 27/27/11 30/30/11
f 31/31/13 32/32/13 33/33/13
f 32/32/13 31/31/13 34/34/13
f 35/35/14 36/36/15 37/37/15
f 36/36/15 35/35/14 38/38/14
f 39/39/13 40/40/13 41/41/13
f 40/40/13 39/39/13 42/42/13
f 43/43/16 44/44/16 45/45/16
f 44/44/16 43/43/16 46/46/16
f 42/47/9 10/48/9 47/49/9
f 10/48/9 42/47/9 39/50/9
f 10/48/9 39/50/9 48/51/9
f 48/51/9 39/50/9 49/52/9
f 49/52/9 39/50/9 50/53/9
f 50/53/9 39/50/9 51/54/9
f 51/54/9 39/50/9 52/55/9
f 51/54/9 52/55/9 53/56/9
f 53/56/9 52/55/9 54/57/9
f 54/57/9 52/55/9 55/58/9
f 54/57/9 55/58/9 56/59/9
f 12/60/9 47/49/9 10/48/9
f 47/49/9 12/60/9 38/61/9
f 38/61/9 12/60/9 57/62/9
f 38/61/9 57/62/9 58/63/9
f 38/61/9 58/63/9 59/64/9
f 38/61/9 59/64/9 60/65/9
f 38/61/9 60/65/9 36/66/9
f 36/66/9 60/65/9 61/67/9
f 36/66/9 61/67/9 62/68/9
f 36/66/9 62/68/9 16/69/9
f 16/69/9 62/68/9 56/59/9
f 16/69/9 56/59/9 55/58/9
f 16/69/9 55/58/9 63/70/9
f 16/69/9 63/70/9 14/71/9
f 14/71/9 63/70/9 64/72/9
f 14/71/9 64/72/9 20/73/9
f 20/73/9 64/72/9 2/74/9
f 20/73/9 2/74/9 18/75/9
f 18/75/9 2/74/9 4/76/9
f 19/19/8 4/4/1 1/1/1
f 4/4/1 19/19/8 18/18/8
f 32/77/1 65/78/1 66/79/1
f 65/78/1 32/77/1 34/80/1
f 67/81/17 68/82/18 69/83/18
f 68/82/18 67/81/17 70/84/17
f 71/85/19 39/86/20 41/87/20
f 39/86/20 71/85/19 52/88/19
f 10/89/21 72/90/21 11/91/21
f 72/90/21 10/89/21 48/92/21
f 24/93/22 43/94/22 45/95/22
f 43/94/22 24/93/22 73/96/22
f 51/97/18 74/98/10 50/99/10
f 74/98/10 51/97/18 75/100/18
f 45/45/23 76/101/23 77/102/23
f 76/101/23 45/45/23 44/44/23
f 59/103/24 78/104/11 60/105/11
f 78/104/11 59/103/24 79/106/24
f 3/3/2 64/107/25 80/108/25
f 64/107/25 3/3/2 2/2/2
f 22/109/26 76/110/26 23/111/26
f 76/110/26 22/109/26 77/112/26
f 15/15/6 20/20/7 17/17/7
f 20/20/7 15/15/6 14/14/6
f 50/99/10 81/113/3 49/114/3
f 81/113/3 50/99/10 74/98/10
f 49/114/3 72/115/4 48/116/4
f 72/115/4 49/114/3 81/113/3
f 80/108/25 63/117/27 82/118/27
f 63/117/27 80/108/25 64/107/25
f 82/118/27 55/119/28 83/120/28
f 55/119/28 82/118/27 63/117/27
f 54/121/29 84/122/17 53/123/17
f 84/122/17 54/121/29 85/124/29
f 86/125/30 24/24/30 21/21/30
f 24/24/30 86/125/30 73/126/30
f 87/127/31 88/128/24 89/129/24
f 88/128/24 87/127/31 90/130/31
f 37/37/15 16/16/5 13/13/5
f 16/16/5 37/37/15 36/36/15
f 62/131/32 91/132/26 56/133/26
f 91/132/26 62/131/32 92/134/32
f 31/135/33 90/130/31 87/127/31
f 90/130/31 31/135/33 33/136/33
f 47/137/21 35/138/21 93/139/21
f 35/138/21 47/137/21 38/140/21
f 69/83/18 26/26/10 25/25/10
f 26/26/10 69/83/18 68/82/18
f 94/141/26 95/142/29 96/143/29
f 95/142/29 94/141/26 97/144/26
f 35/145/23 40/146/23 93/147/23
f 40/146/23 35/145/23 41/148/23
f 41/148/23 35/145/23 37/149/23
f 41/148/23 37/149/23 71/150/23
f 71/150/23 37/149/23 13/151/23
f 71/150/23 13/151/23 83/152/23
f 83/152/23 13/151/23 15/153/23
f 83/152/23 15/153/23 82/154/23
f 82/154/23 15/153/23 17/155/23
f 82/154/23 17/155/23 80/156/23
f 80/156/23 17/155/23 19/157/23
f 80/156/23 19/157/23 3/158/23
f 3/158/23 19/157/23 1/159/23
f 11/160/9 65/161/9 9/162/9
f 65/161/9 11/160/9 72/163/9
f 65/161/9 72/163/9 7/164/9
f 7/164/9 72/163/9 5/165/9
f 5/165/9 72/163/9 25/166/9
f 25/166/9 72/163/9 81/167/9
f 25/166/9 81/167/9 69/168/9
f 69/168/9 81/167/9 74/169/9
f 69/168/9 74/169/9 67/170/9
f 67/170/9 74/169/9 75/171/9
f 67/170/9 75/171/9 96/172/9
f 96/172/9 75/171/9 94/173/9
f 34/174/9 9/162/9 65/161/9
f 9/162/9 34/174/9 98/175/9
f 98/175/9 34/174/9 31/176/9
f 98/175/9 31/176/9 87/177/9
f 98/175/9 87/177/9 89/178/9
f 98/175/9 89/178/9 99/179/9
f 99/179/9 89/178/9 27/180/9
f 99/179/9 27/180/9 79/181/9
f 79/181/9 27/180/9 29/182/9
f 79/181/9 29/182/9 78/183/9
f 78/183/9 94/173/9 75/171/9
f 78/183/9 29/182/9 100/184/9
f 78/183/9 100/184/9 94/173/9
f 78/183/9 75/171/9 84/185/9
f 78/183/9 84/185/9 101/186/9
f 101/186/9 84/185/9 85/187/9
f 101/186/9 85/187/9 92/188/9
f 92/188/9 85/187/9 91/189/9
f 22/190/21 45/95/21 77/191/21
f 45/95/21 22/190/21 24/93/21
f 96/143/29 70/84/17 67/81/17
f 70/84/17 96/143/29 95/142/29
f 29/29/12 102/192/32 100/193/32
f 102/192/32 29/29/12 28/28/12
f 57/194/13 9/195/13 98/196/13
f 9/195/13 57/194/13 12/197/13
f 57/198/33 99/199/34 58/200/34
f 99/199/34 57/198/33 98/201/33
f 46/202/35 21/203/35 44/204/35
f 21/203/35 46/202/35 86/205/35
f 56/133/26 85/124/29 54/121/29
f 85/124/29 56/133/26 91/132/26
f 21/203/13 76/206/13 44/204/13
f 76/206/13 21/203/13 23/207/13
f 60/105/11 101/208/12 61/209/12
f 101/208/12 60/105/11 78/104/11
f 58/200/34 79/106/24 59/103/24
f 79/106/24 58/200/34 99/199/34
f 53/123/17 75/100/18 51/97/18
f 75/100/18 53/123/17 84/122/17
f 100/193/32 97/144/26 94/141/26
f 97/144/26 100/193/32 102/192/32
f 89/129/24 30/30/11 27/27/11
f 30/30/11 89/129/24 88/128/24
f 6/210/9 32/211/9 66/212/9
f 32/211/9 6/210/9 33/213/9
f 33/213/9 6/210/9 8/214/9
f 33/213/9 8/214/9 90/215/9
f 90/215/9 8/214/9 26/216/9
f 90/215/9 26/216/9 88/217/9
f 88/217/9 26/216/9 68/218/9
f 88/217/9 68/218/9 30/219/9
f 30/219/9 68/218/9 70/220/9
f 30/219/9 70/220/9 28/221/9
f 28/221/9 70/220/9 95/222/9
f 28/221/9 95/222/9 102/223/9
f 102/223/9 95/222/9 97/224/9
f 83/120/28 52/88/19 71/85/19
f 52/88/19 83/120/28 55/119/28
f 65/225/21 6/226/21 66/227/21
f 6/226/21 65/225/21 7/228/21
f 61/209/12 92/134/32 62/131/32
f 92/134/32 61/209/12 101/208/12
f 46/229/1 40/230/1 86/231/1
f 40/230/1 46/229/1 43/232/1
f 40/230/1 43/232/1 93/233/1
f 93/233/1 43/232/1 47/234/1
f 42/235/1 86/231/1 40/230/1
f 86/231/1 42/235/1 73/236/1
f 73/236/1 42/235/1 47/234/1
f 73/236/1 47/234/1 43/232/1
