# Blender v2.92.0 OBJ File: 'OGConvert.blend'
# www.blender.org
o pine
v -1.540044 6.191553 -2.667434
v 1.862594 4.332000 -3.226106
v -1.862594 4.332000 -3.226106
v 1.540044 6.191553 -2.667434
v 0.881223 13.042752 -1.526322
v 2.323399 10.969840 0.000000
v 1.161699 10.969840 -2.012122
v 1.762446 13.042752 0.000001
v 0.881223 13.042752 1.526323
v -1.161699 10.969840 2.012123
v 1.161699 10.969840 2.012123
v -0.881223 13.042752 1.526323
v -1.447942 14.179568 0.000001
v 0.000000 18.318785 0.000001
v -0.723971 14.179568 -1.253954
v 0.723971 14.179568 -1.253954
v 0.723971 14.179568 1.253955
v 1.447942 14.179568 0.000001
v -0.723971 14.179568 1.253955
v -1.508701 7.410441 2.613147
v -2.398046 9.374320 0.000000
v -3.017401 7.410441 0.000000
v -1.199023 9.374320 2.076770
v 1.199023 9.374320 2.076770
v 1.508701 7.410441 2.613147
v -2.323399 10.969840 0.000000
v -1.762446 13.042752 0.000001
v 3.017401 7.410441 0.000000
v 2.398046 9.374320 0.000000
v -0.881223 13.042752 -1.526322
v -1.161699 10.969840 -2.012122
v 1.199023 9.374320 -2.076769
v 1.508701 7.410441 -2.613146
v -1.199023 9.374320 -2.076769
v -1.508701 7.410441 -2.613146
v 3.725186 4.332000 0.000000
v 3.080088 6.191553 0.000000
v -3.725186 4.332000 0.000000
v -3.080088 6.191553 0.000000
v -1.540044 6.191553 2.667435
v -1.862594 4.332000 3.226107
v 1.862594 4.332000 3.226107
v 1.540044 6.191553 2.667435
v 1.498826 9.374320 2.596043
v 2.997652 9.374320 0.000000
v -1.498826 9.374320 2.596043
v -2.997652 9.374320 0.000000
v 1.498826 9.374320 -2.596042
v -1.498826 9.374320 -2.596042
v -2.278215 13.042752 0.000001
v -1.139108 13.042752 -1.972991
v 2.278215 13.042752 0.000001
v 1.139108 13.042752 1.972993
v 1.139108 13.042752 -1.972991
v -1.139108 13.042752 1.972993
v 2.356000 2.964000 -4.080712
v -2.356000 2.964000 -4.080712
v -1.908360 6.191553 3.305377
v -3.816720 6.191553 0.000000
v 1.908360 6.191553 3.305377
v 3.816720 6.191553 0.000000
v 1.908360 6.191553 -3.305377
v -1.908360 6.191553 -3.305377
v 2.356000 2.964000 4.080712
v 4.712000 2.964000 0.000000
v 1.220488 2.964000 0.000000
v 0.610244 2.964000 1.056974
v -2.356000 2.964000 4.080712
v -0.610244 2.964000 1.056974
v -1.220488 2.964000 0.000000
v 0.610244 2.964000 -1.056973
v -0.610244 2.964000 -1.056973
v -4.712000 2.964000 0.000000
v 0.848239 -0.000000 1.469194
v 0.848239 0.000000 -1.469194
v 1.696478 0.000000 0.000000
v -0.848239 0.000000 -1.469194
v -0.848239 -0.000000 1.469194
v -1.696478 0.000000 0.000000
v -0.677371 0.760000 -1.173241
v -1.354742 0.760000 0.000000
v 0.677371 0.760000 -1.173241
v 0.677371 0.760000 1.173241
v -0.677371 0.760000 1.173241
v 1.354742 0.760000 0.000000
vt 0.545625 0.403909
vt 0.424099 0.455651
vt 0.471461 0.376492
vt 0.506465 0.469359
vt 0.025787 0.906674
vt 0.115593 0.819851
vt 0.115593 0.918594
vt 0.025787 0.831771
vt 0.932196 0.648603
vt 0.819983 0.674135
vt 0.849522 0.624763
vt 0.909789 0.686055
vt 0.484159 0.921380
vt 0.532908 0.741825
vt 0.519805 0.917518
vt 0.715583 0.741825
vt 0.610931 0.895658
vt 0.590675 0.866073
vt 0.702480 0.917518
vt 0.666833 0.921380
vt 0.428256 0.895658
vt 0.408000 0.866073
vt 0.062155 0.508740
vt 0.148355 0.623816
vt 0.062155 0.636977
vt 0.148355 0.521901
vt 0.178844 0.470943
vt 0.100518 0.444621
vt 0.819983 0.772877
vt 0.909789 0.760957
vt 0.644703 0.063672
vt 0.761392 0.101469
vt 0.675192 0.114630
vt 0.723029 0.037350
vt 0.003379 0.794320
vt 0.086053 0.770480
vt 0.932196 0.798408
vt 0.849522 0.822249
vt 0.003379 0.944125
vt 0.086053 0.967965
vt 0.675192 0.216545
vt 0.761392 0.229706
vt 0.644703 0.267502
vt 0.723029 0.293824
vt 0.178844 0.674774
vt 0.100518 0.701096
vt 0.424099 0.613968
vt 0.506465 0.600260
vt 0.619491 0.613968
vt 0.741017 0.665711
vt 0.666852 0.693127
vt 0.701857 0.600260
vt 0.701857 0.469359
vt 0.619491 0.455651
vt 0.471461 0.693127
vt 0.545625 0.665711
vt 0.741017 0.403909
vt 0.666852 0.376492
vt 0.968436 0.525650
vt 0.946367 0.410994
vt 0.968436 0.398252
vt 0.946367 0.512909
vt 0.858106 0.589349
vt 0.858106 0.563866
vt 0.769845 0.512909
vt 0.747776 0.525650
vt 0.858106 0.334554
vt 0.858106 0.360036
vt 0.747776 0.398252
vt 0.769845 0.410994
vt 0.187800 0.932922
vt 0.149688 0.996621
vt 0.187800 0.805524
vt 0.149688 0.741825
vt 0.747776 0.659807
vt 0.747776 0.787205
vt 0.785888 0.596108
vt 0.785888 0.850904
vt 0.476822 0.979533
vt 0.532908 0.973456
vt 0.659496 0.979533
vt 0.715583 0.973456
vt 0.571539 0.939061
vt 0.539667 0.892512
vt 0.388864 0.939061
vt 0.994627 0.051791
vt 0.910777 0.025299
vt 0.910777 0.003379
vt 0.975644 0.062751
vt 0.994627 0.148613
vt 0.975644 0.137653
vt 0.910777 0.175104
vt 0.910777 0.197024
vt 0.826926 0.051791
vt 0.845909 0.062751
vt 0.826926 0.148613
vt 0.845909 0.137653
vt 0.356992 0.892512
vt 0.356992 0.434682
vt 0.416901 0.334554
vt 0.003380 0.491755
vt 0.003380 0.653962
vt 0.051905 0.410651
vt 0.637944 0.084483
vt 0.497468 0.034686
vt 0.497468 0.003379
vt 0.610832 0.100136
vt 0.637944 0.246691
vt 0.610832 0.231038
vt 0.497468 0.296488
vt 0.497468 0.327795
vt 0.356992 0.084483
vt 0.384104 0.100136
vt 0.356992 0.246691
vt 0.384104 0.231038
vt 0.771642 0.003379
vt 0.820167 0.084483
vt 0.051905 0.735066
vt 0.820167 0.246691
vt 0.771642 0.327795
vt 0.350233 0.103508
vt 0.003380 0.103508
vt 0.176807 0.003380
vt 0.176807 0.151766
vt 0.221727 0.177701
vt 0.350233 0.303764
vt 0.221727 0.229571
vt 0.176807 0.255506
vt 0.131886 0.177701
vt 0.003380 0.303764
vt 0.131886 0.229571
vt 0.176807 0.403892
vt 0.552384 0.634938
vt 0.612293 0.735066
vt 0.552384 0.434682
vt 0.612293 0.334554
vt 0.416901 0.735066
vt 0.356992 0.634938
vt 0.325385 0.748614
vt 0.200506 0.748614
vt 0.262945 0.712565
vt 0.200506 0.820713
vt 0.325385 0.820713
vt 0.262945 0.856763
vt 0.185603 0.518799
vt 0.237483 0.540325
vt 0.207172 0.554849
vt 0.220259 0.511538
vt 0.237483 0.576131
vt 0.185603 0.597657
vt 0.207172 0.561608
vt 0.220259 0.604919
vt 0.237483 0.425174
vt 0.185603 0.446700
vt 0.207172 0.410651
vt 0.220259 0.453962
vt 0.237483 0.691282
vt 0.185603 0.669756
vt 0.220259 0.662495
vt 0.207172 0.705806
vt 0.325385 0.430880
vt 0.309868 0.456815
vt 0.325385 0.685577
vt 0.309868 0.659642
vt 0.309868 0.508685
vt 0.325385 0.534620
vt 0.325385 0.581837
vt 0.309868 0.607772
vn 0.0000 0.2877 -0.9577
vn 0.8432 0.2282 -0.4868
vn 0.0000 0.2282 0.9736
vn -0.8288 0.2899 -0.4785
vn 0.0000 0.2899 -0.9570
vn 0.8288 0.2899 0.4785
vn 0.0000 0.2899 0.9570
vn 0.8288 0.2899 -0.4785
vn -0.8288 0.2899 0.4785
vn -0.8354 0.2635 0.4823
vn 0.0000 0.2635 0.9647
vn -0.8432 0.2282 0.4868
vn 0.8354 0.2635 0.4823
vn 0.8432 0.2282 0.4868
vn -0.8432 0.2282 -0.4868
vn 0.0000 0.2282 -0.9736
vn 0.8354 0.2635 -0.4823
vn 0.0000 0.2635 -0.9647
vn -0.8354 0.2635 -0.4823
vn 0.8294 0.2877 -0.4789
vn -0.8294 0.2877 -0.4789
vn -0.8294 0.2877 0.4789
vn 0.8294 0.2877 0.4789
vn 0.0000 0.2877 0.9577
vn 0.0000 -1.0000 -0.0000
vn 0.0000 0.3437 -0.9391
vn 0.8133 0.3437 0.4695
vn 0.8133 0.3437 -0.4695
vn -0.8133 0.3437 0.4695
vn 0.0000 0.3437 0.9391
vn -0.8133 0.3437 -0.4695
vn -0.7319 0.5346 -0.4226
vn 0.7319 0.5346 0.4226
vn 0.7319 0.5345 0.4226
vn 0.0000 0.5345 -0.8451
vn -0.7319 0.5346 0.4226
vn 0.7319 0.5346 -0.4226
vn 0.0000 0.5345 0.8451
vn 0.0000 0.5346 0.8451
vn 0.0000 0.5298 -0.8481
vn -0.7531 0.4938 0.4348
vn 0.0000 0.4938 0.8696
vn 0.7531 0.4938 0.4348
vn -0.7531 0.4938 -0.4348
vn 0.7531 0.4938 -0.4348
vn 0.0000 0.4938 -0.8696
vn -0.7345 0.5298 -0.4241
vn 0.0000 0.5298 0.8481
vn 0.7345 0.5298 0.4241
vn -0.7345 0.5298 0.4241
vn 0.7345 0.5298 -0.4241
vn -0.8070 0.3629 -0.4659
vn 0.0000 0.3629 -0.9318
vn 0.0000 0.3629 0.9318
vn 0.8070 0.3629 0.4659
vn -0.8070 0.3629 0.4659
vn 0.8070 0.3629 -0.4659
vn 0.0000 0.0527 0.9986
vn 0.8648 0.0527 0.4993
vn -0.8648 0.0527 0.4993
vn -0.8648 0.0527 -0.4993
vn 0.0000 0.0527 -0.9986
vn 0.8648 0.0527 -0.4993
s 1
f 1/1/1 2/2/1 3/3/1
f 2/2/1 1/1/1 4/4/1
f 5/5/2 6/6/2 7/7/2
f 6/6/2 5/5/2 8/8/2
f 9/9/3 10/10/3 11/11/3
f 10/10/3 9/9/3 12/12/3
f 13/13/4 14/14/4 15/15/4
f 14/16/5 16/17/5 15/18/5
f 17/19/6 18/20/6 14/16/6
f 14/14/7 19/21/7 17/22/7
f 18/20/8 16/17/8 14/16/8
f 19/21/9 14/14/9 13/13/9
f 20/23/10 21/24/10 22/25/10
f 21/24/10 20/23/10 23/26/10
f 24/27/11 20/23/11 25/28/11
f 20/23/11 24/27/11 23/26/11
f 26/29/12 12/12/12 27/30/12
f 12/12/12 26/29/12 10/10/12
f 24/31/13 28/32/13 29/33/13
f 28/32/13 24/31/13 25/34/13
f 9/35/14 6/6/14 8/8/14
f 6/6/14 9/35/14 11/36/14
f 26/29/15 30/37/15 31/38/15
f 30/37/15 26/29/15 27/30/15
f 30/39/16 7/7/16 31/40/16
f 7/7/16 30/39/16 5/5/16
f 32/41/17 28/32/17 33/42/17
f 28/32/17 32/41/17 29/33/17
f 34/43/18 33/42/18 35/44/18
f 33/42/18 34/43/18 32/41/18
f 22/25/19 34/45/19 35/46/19
f 34/45/19 22/25/19 21/24/19
f 4/4/20 36/47/20 2/2/20
f 36/47/20 4/4/20 37/48/20
f 38/49/21 1/50/21 3/51/21
f 1/50/21 38/49/21 39/52/21
f 38/49/22 40/53/22 39/52/22
f 40/53/22 38/49/22 41/54/22
f 37/48/23 42/55/23 36/47/23
f 42/55/23 37/48/23 43/56/23
f 43/57/24 41/54/24 42/58/24
f 41/54/24 43/57/24 40/53/24
f 44/59/25 29/60/25 45/61/25
f 29/60/25 44/59/25 24/62/25
f 24/62/25 44/59/25 46/63/25
f 24/62/25 46/63/25 23/64/25
f 23/64/25 46/63/25 21/65/25
f 21/65/25 46/63/25 47/66/25
f 29/60/25 48/67/25 45/61/25
f 48/67/25 29/60/25 32/68/25
f 48/67/25 32/68/25 49/69/25
f 49/69/25 21/65/25 47/66/25
f 49/69/25 32/68/25 34/70/25
f 49/69/25 34/70/25 21/65/25
f 31/40/26 48/71/26 49/72/26
f 48/71/26 31/40/26 7/7/26
f 11/36/27 45/73/27 6/6/27
f 45/73/27 11/36/27 44/74/27
f 7/7/28 45/73/28 48/71/28
f 45/73/28 7/7/28 6/6/28
f 46/75/29 26/29/29 47/76/29
f 26/29/29 46/75/29 10/10/29
f 11/11/30 46/75/30 44/77/30
f 46/75/30 11/11/30 10/10/30
f 47/76/31 31/38/31 49/78/31
f 31/38/31 47/76/31 26/29/31
f 50/79/32 15/15/32 51/80/32
f 15/15/32 50/79/32 13/13/32
f 17/19/33 52/81/33 18/20/34
f 52/81/33 17/19/33 53/82/33
f 15/18/35 54/83/35 51/84/35
f 54/83/35 15/18/35 16/17/35
f 55/85/36 13/13/36 50/79/36
f 13/13/36 55/85/36 19/21/36
f 16/17/37 52/81/37 54/83/37
f 52/81/37 16/17/37 18/20/37
f 53/86/25 8/87/25 52/88/25
f 8/87/25 53/86/25 9/89/25
f 9/89/25 53/86/25 55/90/25
f 9/89/25 55/90/25 12/91/25
f 12/91/25 55/90/25 27/92/25
f 27/92/25 55/90/25 50/93/25
f 8/87/25 54/94/25 52/88/25
f 54/94/25 8/87/25 5/95/25
f 54/94/25 5/95/25 51/96/25
f 51/96/25 27/92/25 50/93/25
f 51/96/25 5/95/25 30/97/25
f 51/96/25 30/97/25 27/92/25
f 17/22/38 55/85/38 53/98/39
f 55/85/38 17/22/38 19/21/38
f 3/3/40 56/99/40 57/100/40
f 56/99/40 3/3/40 2/2/40
f 58/101/41 22/25/41 59/102/41
f 22/25/41 58/101/41 20/23/41
f 25/28/42 58/101/42 60/103/42
f 58/101/42 25/28/42 20/23/42
f 60/104/25 37/105/25 61/106/25
f 37/105/25 60/104/25 43/107/25
f 43/107/25 60/104/25 58/108/25
f 43/107/25 58/108/25 40/109/25
f 40/109/25 58/108/25 39/110/25
f 39/110/25 58/108/25 59/111/25
f 37/105/25 62/112/25 61/106/25
f 62/112/25 37/105/25 4/113/25
f 62/112/25 4/113/25 63/114/25
f 63/114/25 39/110/25 59/111/25
f 63/114/25 4/113/25 1/115/25
f 63/114/25 1/115/25 39/110/25
f 28/32/43 60/116/43 61/117/43
f 60/116/43 28/32/43 25/34/43
f 59/102/44 35/46/44 63/118/44
f 35/46/44 59/102/44 22/25/44
f 33/42/45 61/117/45 62/119/45
f 61/117/45 33/42/45 28/32/45
f 35/44/46 62/119/46 63/120/46
f 62/119/46 35/44/46 33/42/46
f 64/121/25 56/122/25 65/123/25
f 56/122/25 64/121/25 66/124/25
f 66/124/25 64/121/25 67/125/25
f 67/125/25 64/121/25 68/126/25
f 67/125/25 68/126/25 69/127/25
f 69/127/25 68/126/25 70/128/25
f 71/129/25 56/122/25 66/124/25
f 56/122/25 71/129/25 57/130/25
f 57/130/25 70/128/25 68/126/25
f 57/130/25 71/129/25 72/131/25
f 57/130/25 72/131/25 70/128/25
f 57/130/25 68/126/25 73/132/25
f 73/133/47 3/51/47 57/134/47
f 3/51/47 73/133/47 38/49/47
f 42/58/48 68/135/48 64/136/48
f 68/135/48 42/58/48 41/54/48
f 36/47/49 64/137/49 65/138/49
f 64/137/49 36/47/49 42/55/49
f 68/135/50 38/49/50 73/133/50
f 38/49/50 68/135/50 41/54/50
f 2/2/51 65/138/51 56/99/51
f 65/138/51 2/2/51 36/47/51
f 74/139/25 75/140/25 76/141/25
f 75/140/25 74/139/25 77/142/25
f 77/142/25 74/139/25 78/143/25
f 77/142/25 78/143/25 79/144/25
f 79/145/52 80/146/52 77/147/52
f 80/146/52 79/145/52 81/148/52
f 80/149/53 75/150/53 77/151/53
f 75/150/53 80/149/53 82/152/53
f 83/153/54 78/154/54 74/155/54
f 78/154/54 83/153/54 84/156/54
f 83/157/55 76/158/55 85/159/55
f 76/158/55 83/157/55 74/160/55
f 79/145/56 84/156/56 81/148/56
f 84/156/56 79/145/56 78/154/56
f 82/152/57 76/158/57 75/150/57
f 76/158/57 82/152/57 85/159/57
f 67/161/58 84/156/58 83/153/58
f 84/156/58 67/161/58 69/162/58
f 67/163/59 85/159/59 66/164/59
f 85/159/59 67/163/59 83/157/59
f 81/148/60 69/162/60 70/165/60
f 69/162/60 81/148/60 84/156/60
f 81/148/61 72/166/61 80/146/61
f 72/166/61 81/148/61 70/165/61
f 72/167/62 82/152/62 80/149/62
f 82/152/62 72/167/62 71/168/62
f 71/168/63 85/159/63 82/152/63
f 85/159/63 71/168/63 66/164/63
