# Blender v2.92.0 OBJ File: 'kenney_OGConvert.blend'
# www.blender.org
o pumpkinTallCarved
v -0.041385 0.083455 0.096734
v -0.038799 0.085178 0.116891
v -0.031039 0.083455 0.096734
v -0.051732 0.085178 0.116891
v -0.060000 -0.000000 0.103923
v -0.139200 0.070000 0.000000
v -0.120000 0.000000 0.000000
v -0.069600 0.070000 0.120551
v -0.060000 0.000000 -0.103923
v -0.069600 0.070000 -0.120551
v 0.069600 0.070000 0.120551
v 0.120000 0.000000 -0.000000
v 0.139200 0.070000 -0.000000
v 0.060000 -0.000000 0.103923
v -0.052896 0.190000 -0.091619
v -0.105792 0.190000 0.000000
v 0.041385 0.083455 0.096734
v 0.047605 0.114822 0.109744
v 0.038084 0.107170 0.091016
v 0.051732 0.085178 0.116891
v -0.020693 0.093513 0.094309
v -0.012933 0.085178 0.116891
v -0.010346 0.083455 0.096734
v -0.025866 0.097751 0.113860
v 0.060000 0.000000 -0.103923
v 0.069600 0.070000 -0.120551
v 0.028536 0.160000 0.098852
v 0.019015 0.129962 0.085521
v 0.028860 0.150662 0.080530
v 0.014268 0.130000 0.106085
v 0.023803 0.098754 0.113618
v 0.030214 0.083455 0.096734
v 0.019042 0.094315 0.094115
v 0.037767 0.085178 0.116891
v 0.052896 0.190000 -0.091619
v 0.040145 0.129962 0.085521
v 0.044892 0.130000 0.106085
v -0.020059 0.129962 0.085521
v -0.030624 0.160000 0.098852
v -0.030624 0.150662 0.080530
v -0.015312 0.130000 0.106085
v -0.045936 0.130000 0.106085
v -0.041189 0.129962 0.085521
v -0.052896 0.190000 0.091619
v 0.007871 0.083455 0.096734
v 0.009838 0.085178 0.116891
v 0.052896 0.190000 0.091619
v 0.105792 0.190000 -0.000000
v -0.047605 0.114822 0.109744
v 0.048670 0.190000 -0.000000
v 0.024335 0.190000 -0.042149
v -0.024335 0.190000 -0.042149
v -0.048670 0.190000 0.000000
v 0.024335 0.190000 0.042149
v -0.024335 0.190000 0.042149
v -0.038084 0.107170 0.091016
v -0.022750 0.230000 -0.012750
v 0.020000 0.190000 -0.020000
v -0.020000 0.190000 -0.020000
v 0.002750 0.230000 -0.012750
v 0.002750 0.230000 0.012750
v -0.020000 0.190000 0.020000
v 0.020000 0.190000 0.020000
v -0.022750 0.230000 0.012750
v 0.008415 0.260000 -0.008415
v 0.008415 0.260000 0.008415
v -0.008415 0.260000 0.008415
v -0.008415 0.260000 -0.008415
vt 0.906649 0.810568
vt 0.943249 0.815258
vt 0.906649 0.829332
vt 0.943249 0.791802
vt 0.736888 0.406369
vt 0.589808 0.202913
vt 0.720550 0.205005
vt 0.608761 0.436496
vt 0.736888 0.032924
vt 0.608761 0.003299
vt 0.609634 0.443095
vt 0.718053 0.686371
vt 0.586905 0.690032
vt 0.737647 0.473495
vt 0.398143 0.063806
vt 0.383739 0.215513
vt 0.200118 0.844104
vt 0.237958 0.891249
vt 0.200118 0.888707
vt 0.237958 0.835495
vt 0.744246 0.666822
vt 0.979290 0.785204
vt 0.761657 0.785204
vt 0.996701 0.666822
vt 0.902530 0.848095
vt 0.943249 0.862169
vt 0.906649 0.866861
vt 0.938101 0.838713
vt 0.995942 0.127329
vt 0.760898 0.003299
vt 0.978531 0.003299
vt 0.743487 0.127329
vt 0.284770 0.835495
vt 0.248758 0.883884
vt 0.248758 0.841973
vt 0.284770 0.896235
vt 0.937690 0.928794
vt 0.906649 0.940421
vt 0.902200 0.920159
vt 0.943249 0.954119
vt 0.737647 0.830453
vt 0.609634 0.857167
vt 0.965647 0.348551
vt 0.773782 0.348551
vt 0.786002 0.367223
vt 0.822446 0.416391
vt 0.786001 0.408879
vt 0.822446 0.356021
vt 0.157042 0.846594
vt 0.193519 0.895524
vt 0.157042 0.888014
vt 0.193519 0.835495
vt 0.875421 0.402855
vt 0.912713 0.355924
vt 0.912713 0.411464
vt 0.875421 0.364534
vt 0.398143 0.393036
vt 0.779403 0.355150
vt 0.743487 0.403761
vt 0.743487 0.361505
vt 0.779403 0.416391
vt 0.906649 0.899899
vt 0.943249 0.903467
vt 0.906649 0.960681
vt 0.943249 0.979446
vt 0.401013 0.470614
vt 0.383739 0.658286
vt 0.351829 0.470492
vt 0.377140 0.445165
vt 0.377140 0.495817
vt 0.377140 0.593048
vt 0.377140 0.755364
vt 0.377140 0.704712
vt 0.377140 0.780691
vt 0.964295 0.638524
vt 0.776652 0.638524
vt 0.774540 0.443095
vt 0.784136 0.583256
vt 0.789057 0.554958
vt 0.956810 0.583256
vt 0.818720 0.499027
vt 0.926013 0.499027
vt 0.966406 0.443095
vt 0.377140 0.663414
vt 0.342182 0.445165
vt 0.342182 0.445165
vt 0.342182 0.445165
vt 0.353699 0.525872
vt 0.377140 0.502416
vt 0.377140 0.549327
vt 0.953783 0.554958
vt 0.346621 0.593048
vt 0.346621 0.757775
vt 0.346621 0.702235
vt 0.346621 0.648588
vt 0.898243 0.554958
vt 0.844597 0.554958
vt 0.377140 0.112116
vt 0.003299 0.112116
vt 0.190220 0.003299
vt 0.377140 0.329749
vt 0.003299 0.329749
vt 0.190220 0.438566
vt 0.003299 0.732963
vt 0.335583 0.732963
vt 0.169441 0.828896
vt 0.169441 0.725299
vt 0.093008 0.681165
vt 0.003299 0.541098
vt 0.093008 0.592896
vt 0.169441 0.548762
vt 0.245874 0.681165
vt 0.335583 0.541098
vt 0.245874 0.592896
vt 0.169441 0.445165
vt 0.401013 0.785309
vt 0.421031 0.872375
vt 0.383739 0.919306
vt 0.383739 0.863766
vt 0.421031 0.910697
vt 0.985313 0.964476
vt 0.949848 0.809070
vt 0.985313 0.791803
vt 0.949848 0.947209
vt 0.868823 0.356021
vt 0.829046 0.402696
vt 0.829045 0.358342
vt 0.868823 0.411464
vt 0.895601 0.870273
vt 0.823224 0.791803
vt 0.895601 0.796722
vt 0.849461 0.867137
vt 0.770483 0.847927
vt 0.816625 0.918683
vt 0.744246 0.923580
vt 0.816625 0.844805
vt 0.003299 0.957854
vt 0.061331 0.885383
vt 0.075169 0.957854
vt 0.015514 0.885383
vt 0.106663 0.891749
vt 0.150443 0.956405
vt 0.081768 0.958114
vt 0.150443 0.890659
vt 0.112628 0.836214
vt 0.141524 0.835495
vt 0.756528 0.793863
vt 0.786981 0.791802
vt 0.048932 0.835495
vt 0.018693 0.835495
vt 0.865942 0.923256
vt 0.835489 0.921186
vt 0.133173 0.673303
vt 0.133173 0.600758
vt 0.205709 0.600758
vt 0.205709 0.673303
vt 0.377140 0.586449
vt 0.346621 0.555926
vt 0.377140 0.555926
vt 0.346621 0.586449
vt 0.493017 0.863766
vt 0.510872 0.902359
vt 0.472550 0.902359
vt 0.315336 0.945086
vt 0.335583 0.891788
vt 0.335583 0.924826
vt 0.316831 0.873022
vt 0.291369 0.841482
vt 0.335583 0.835495
vt 0.335583 0.854259
vt 0.291369 0.979621
vt 0.335583 0.965348
vt 0.335583 0.985608
vt 0.446791 0.863766
vt 0.465951 0.902359
vt 0.427630 0.902359
vn 0.0000 0.9964 -0.0852
vn -0.8426 -0.2311 0.4865
vn -0.8426 -0.2311 -0.4865
vn 0.8426 -0.2311 0.4865
vn -0.8419 0.2344 -0.4861
vn -0.8891 -0.0135 0.4575
vn -0.8891 -0.0134 0.4575
vn 0.0000 -0.2311 0.9729
vn 0.6935 0.7200 0.0274
vn 0.6934 0.7200 0.0275
vn -0.0000 -0.2311 -0.9729
vn 0.9017 -0.3785 0.2089
vn 0.6983 0.6420 -0.3166
vn 0.6983 0.6420 -0.3165
vn 0.8426 -0.2311 -0.4865
vn -0.0000 0.2344 -0.9721
vn -0.8794 -0.4303 0.2038
vn -0.8908 -0.4049 0.2064
vn -0.0000 1.0000 -0.0018
vn -0.8419 0.2344 0.4861
vn 0.8908 -0.4049 0.2064
vn 0.8419 0.2344 0.4861
vn 0.0000 0.2344 0.9721
vn -0.0010 0.4472 0.8945
vn -0.0321 0.9946 0.0982
vn -0.0000 0.2343 0.9722
vn 0.0044 0.5032 0.8641
vn -0.0006 0.5159 0.8566
vn 0.0000 0.2344 0.9722
vn -0.0001 0.2344 0.9721
vn 0.3608 -0.4474 0.8183
vn -0.0001 0.2248 0.9744
vn -0.6962 0.7178 0.0066
vn -0.0000 -1.0000 -0.0000
vn 0.0000 1.0000 0.0000
vn -0.6975 0.6396 -0.3232
vn 0.8419 0.2344 -0.4861
vn 0.0000 -0.9257 0.3782
vn 0.8891 -0.0135 0.4575
vn 0.8891 -0.0134 0.4575
vn -0.0000 0.1783 -0.9840
vn 0.0000 0.1783 0.9840
vn -0.9976 -0.0686 0.0000
vn 0.9183 0.3960 -0.0000
vn 0.9826 -0.1856 -0.0000
vn 0.0000 0.1430 0.9897
vn -0.9023 0.4311 -0.0000
vn -0.0000 0.1430 -0.9897
s 1
f 1/1/1 2/2/1 3/3/1
f 2/2/1 1/1/1 4/4/1
f 5/5/2 6/6/2 7/7/2
f 6/6/2 5/5/2 8/8/2
f 9/9/3 6/6/3 10/10/3
f 6/6/3 9/9/3 7/7/3
f 11/11/4 12/12/4 13/13/4
f 12/12/4 11/11/4 14/14/4
f 6/6/5 15/15/5 10/10/5
f 15/15/5 6/6/5 16/16/5
f 17/17/6 18/18/6 19/19/7
f 18/18/6 17/17/6 20/20/6
f 11/21/8 5/22/8 14/23/8
f 5/22/8 11/21/8 8/24/8
f 21/25/9 22/26/9 23/27/10
f 22/26/9 21/25/9 24/28/9
f 10/29/11 25/30/11 9/31/11
f 25/30/11 10/29/11 26/32/11
f 27/33/12 28/34/12 29/35/12
f 28/34/12 27/33/12 30/36/12
f 31/37/13 32/38/13 33/39/13
f 32/38/13 31/37/13 34/40/14
f 13/13/15 25/41/15 26/42/15
f 25/41/15 13/13/15 12/12/15
f 15/43/16 26/32/16 10/29/16
f 26/32/16 15/43/16 35/44/16
f 36/45/17 27/46/17 29/47/17
f 27/46/17 36/45/17 37/48/17
f 38/49/18 39/50/18 40/51/18
f 39/50/18 38/49/18 41/52/18
f 38/53/19 42/54/19 41/55/19
f 42/54/19 38/53/19 43/56/19
f 8/8/20 16/16/20 6/6/20
f 16/16/20 8/8/20 44/57/20
f 39/58/21 43/59/21 40/60/21
f 43/59/21 39/58/21 42/61/21
f 45/62/1 22/26/1 46/63/1
f 22/26/1 45/62/1 23/27/1
f 17/64/1 34/40/1 20/65/1
f 34/40/1 17/64/1 32/38/1
f 47/66/22 13/13/22 48/67/22
f 13/13/22 47/66/22 11/11/22
f 31/68/23 46/69/24 34/70/25
f 4/71/23 34/72/25 46/73/24
f 4/71/23 20/74/26 34/72/25
f 4/75/23 8/24/23 20/76/26
f 11/21/23 20/76/26 8/24/23
f 20/76/26 11/21/23 47/77/23
f 20/76/26 47/77/23 18/78/23
f 18/78/23 47/77/23 37/79/23
f 18/78/23 37/79/23 49/80/23
f 37/79/23 47/77/23 27/81/23
f 27/81/23 47/77/23 39/82/23
f 8/24/23 4/75/23 44/83/23
f 44/83/23 4/75/23 49/80/23
f 44/83/23 39/82/23 47/77/23
f 4/71/23 46/73/24 22/84/27
f 4/85/23 22/86/27 2/87/28
f 24/88/29 2/89/28 22/90/27
f 44/83/23 49/80/23 42/91/30
f 42/91/30 49/80/23 37/79/23
f 44/83/23 42/91/30 39/82/23
f 42/92/30 37/93/23 30/94/31
f 42/92/30 30/94/31 41/95/32
f 27/81/23 41/96/32 30/97/31
f 41/96/32 27/81/23 39/82/23
f 33/39/33 46/63/33 31/37/33
f 46/63/33 33/39/33 45/62/33
f 14/98/34 25/99/34 12/100/34
f 25/99/34 14/98/34 5/101/34
f 25/99/34 5/101/34 9/102/34
f 9/102/34 5/101/34 7/103/34
f 35/104/35 47/105/35 48/106/35
f 47/105/35 35/104/35 50/107/35
f 50/107/35 35/104/35 51/108/35
f 51/108/35 35/104/35 15/109/35
f 51/108/35 15/109/35 52/110/35
f 52/110/35 15/109/35 53/111/35
f 54/112/35 47/105/35 50/107/35
f 47/105/35 54/112/35 44/113/35
f 44/113/35 53/111/35 15/109/35
f 44/113/35 54/112/35 55/114/35
f 44/113/35 55/114/35 53/111/35
f 44/113/35 15/109/35 16/115/35
f 3/3/36 24/28/36 21/25/36
f 24/28/36 3/3/36 2/2/36
f 35/116/37 13/13/37 26/42/37
f 13/13/37 35/116/37 48/67/37
f 36/117/19 30/118/19 37/119/19
f 30/118/19 36/117/19 28/120/19
f 49/121/38 19/122/38 18/123/38
f 19/122/38 49/121/38 56/124/38
f 49/125/39 1/126/39 56/127/40
f 1/126/39 49/125/39 4/128/39
f 57/129/41 58/130/41 59/131/41
f 58/130/41 57/129/41 60/132/41
f 61/133/42 62/134/42 63/135/42
f 62/134/42 61/133/42 64/136/42
f 62/137/43 57/138/43 59/139/43
f 57/138/43 62/137/43 64/140/43
f 60/141/44 63/142/44 58/143/44
f 63/142/44 60/141/44 61/144/44
f 65/145/45 61/144/45 60/141/45
f 61/144/45 65/145/45 66/146/45
f 66/147/46 64/136/46 61/133/46
f 64/136/46 66/147/46 67/148/46
f 64/140/47 68/149/47 57/138/47
f 68/149/47 64/140/47 67/150/47
f 68/151/48 60/132/48 57/129/48
f 60/132/48 68/151/48 65/152/48
f 51/108/35 54/112/35 50/107/35
f 54/112/35 51/108/35 58/153/35
f 58/153/35 51/108/35 52/110/35
f 58/153/35 52/110/35 59/154/35
f 59/154/35 52/110/35 62/155/35
f 63/156/35 54/112/35 58/153/35
f 54/112/35 63/156/35 55/114/35
f 55/114/35 63/156/35 62/155/35
f 55/114/35 62/155/35 52/110/35
f 55/114/35 52/110/35 53/111/35
f 68/157/35 66/158/35 65/159/35
f 66/158/35 68/157/35 67/160/35
f 29/161/23 28/162/23 36/163/23
f 33/164/23 23/165/23 45/166/23
f 23/165/23 33/164/23 21/167/23
f 56/168/23 21/167/23 33/164/23
f 1/169/23 21/167/23 56/168/23
f 21/167/23 1/169/23 3/170/23
f 56/168/23 33/164/23 19/171/23
f 32/172/23 19/171/23 33/164/23
f 19/171/23 32/172/23 17/173/23
f 40/174/23 43/175/23 38/176/23
