# This file uses centimeters as units for non-parametric coordinates.

g default
v -16.648773 1.945448 0.007814
v -16.648773 1.930872 0.001776
v -16.648773 1.916296 0.007814
v -16.648773 1.910258 0.022390
v -16.648773 1.916296 0.036966
v -16.648773 1.930872 0.043003
v -16.648773 1.945448 0.036966
v -16.648773 1.951486 0.022390
v -16.618576 1.946190 0.007071
v -16.618576 1.930872 0.000725
v -16.618576 1.915553 0.007071
v -16.618576 1.909207 0.022389
v -16.618576 1.915553 0.037709
v -16.618576 1.930872 0.044054
v -16.618576 1.946190 0.037709
v -16.618576 1.952535 0.022389
v -16.678459 1.948604 0.004657
v -16.678459 1.930872 -0.002689
v -16.678459 1.913139 0.004657
v -16.678459 1.905792 0.022389
v -16.678459 1.913139 0.040123
v -16.678459 1.930872 0.047468
v -16.678459 1.948604 0.040123
v -16.678459 1.955950 0.022389
v -16.622498 1.930872 0.022389
v -16.678460 1.930872 0.022389
v -16.661996 1.930872 0.048284
v -16.661996 1.912561 0.040699
v -16.661996 1.904978 0.022389
v -16.661996 1.912561 0.004080
v -16.661996 1.930872 -0.003504
v -16.661996 1.949182 0.004080
v -16.661996 1.956766 0.022389
v -16.661996 1.949182 0.040699
v -16.670479 1.952904 0.044423
v -16.670479 1.930872 0.053549
v -16.670479 1.908839 0.044423
v -16.670479 1.899712 0.022389
v -16.670479 1.908839 0.000357
v -16.670479 1.930872 -0.008769
v -16.670479 1.952904 0.000357
v -16.670479 1.962030 0.022389
v -16.624797 1.949906 0.041423
v -16.624797 1.930872 0.049307
v -16.624797 1.911838 0.041423
v -16.624797 1.903954 0.022389
v -16.624797 1.911838 0.003356
v -16.624797 1.930872 -0.004528
v -16.624797 1.949906 0.003356
v -16.624797 1.957788 0.022389
v -16.632639 1.930872 0.045730
v -16.632639 1.914367 0.038894
v -16.632639 1.907531 0.022389
v -16.632639 1.914367 0.005885
v -16.632639 1.930872 -0.000951
v -16.632639 1.947375 0.005885
v -16.632639 1.954212 0.022389
v -16.632639 1.947375 0.038894
v -15.891347 1.945448 0.036966
v -15.891347 1.930872 0.043003
v -15.891347 1.916296 0.036966
v -15.891347 1.910258 0.022390
v -15.891347 1.916296 0.007814
v -15.891347 1.930872 0.001776
v -15.891347 1.945448 0.007814
v -15.891347 1.951486 0.022390
v -16.540873 1.945448 0.036966
v -16.540873 1.930872 0.043003
v -16.540873 1.916296 0.036966
v -16.540873 1.910258 0.022390
v -16.540873 1.916296 0.007814
v -16.540873 1.930872 0.001776
v -16.540873 1.945448 0.007814
v -16.540873 1.951486 0.022390
v -15.986455 1.930872 0.043003
v -15.986455 1.916296 0.036966
v -15.986455 1.910258 0.022391
v -15.986455 1.916296 0.007814
v -15.986455 1.930872 0.001776
v -15.986455 1.945448 0.007814
v -15.986455 1.951486 0.022391
v -15.986455 1.945448 0.036966
v -15.909434 1.915552 0.007071
v -15.909434 1.930871 0.000725
v -15.909434 1.946190 0.007071
v -15.909434 1.952535 0.022389
v -15.909434 1.946190 0.037709
v -15.909434 1.930871 0.044054
v -15.909434 1.915552 0.037709
v -15.909434 1.909207 0.022389
v -15.849551 1.913139 0.004657
v -15.849551 1.930871 -0.002689
v -15.849551 1.948604 0.004657
v -15.849551 1.955950 0.022389
v -15.849551 1.948604 0.040123
v -15.849551 1.930871 0.047468
v -15.849551 1.913139 0.040123
v -15.849551 1.905792 0.022389
v -15.905512 1.930871 0.022389
v -15.849551 1.930871 0.022389
v -15.866015 1.930871 0.048284
v -15.866015 1.949182 0.040699
v -15.866015 1.956764 0.022389
v -15.866015 1.949182 0.004080
v -15.866015 1.930871 -0.003504
v -15.866015 1.912561 0.004080
v -15.866015 1.904977 0.022389
v -15.866015 1.912561 0.040699
v -15.857531 1.908838 0.044423
v -15.857531 1.930871 0.053549
v -15.857531 1.952903 0.044423
v -15.857531 1.962030 0.022389
v -15.857531 1.952903 0.000357
v -15.857531 1.930871 -0.008769
v -15.857531 1.908838 0.000357
v -15.857531 1.899712 0.022389
v -15.903213 1.911837 0.041423
v -15.903213 1.930871 0.049307
v -15.903213 1.949905 0.041423
v -15.903213 1.957789 0.022389
v -15.903213 1.949905 0.003356
v -15.903213 1.930871 -0.004528
v -15.903213 1.911837 0.003356
v -15.903213 1.903955 0.022389
v -15.895372 1.930871 0.045730
v -15.895372 1.947375 0.038894
v -15.895372 1.954211 0.022389
v -15.895372 1.947375 0.005885
v -15.895372 1.930871 -0.000951
v -15.895372 1.914367 0.005885
v -15.895372 1.907530 0.022389
v -15.895372 1.914367 0.038894
v -15.988486 1.930872 0.045686
v -15.988486 1.914398 0.038863
v -16.538842 1.930872 0.045686
v -16.538842 1.914398 0.038863
v -15.988486 1.907575 0.022391
v -16.538842 1.907575 0.022390
v -15.988486 1.914398 0.005917
v -16.538842 1.914398 0.005917
v -15.988486 1.930872 -0.000907
v -16.538842 1.930872 -0.000907
v -15.988486 1.947345 0.005917
v -16.538842 1.947345 0.005917
v -15.988486 1.954168 0.022391
v -16.538842 1.954168 0.022390
v -15.988486 1.947345 0.038863
v -16.538842 1.947345 0.038863
v -16.248777 2.233225 0.106128
v -16.264005 2.239533 0.106128
v -16.279233 2.233225 0.106128
v -16.285541 2.217996 0.106128
v -16.279233 2.202769 0.106128
v -16.264005 2.196461 0.106128
v -16.248777 2.202769 0.106128
v -16.242468 2.217996 0.106128
v -16.248001 2.234001 0.074580
v -16.264005 2.240630 0.074580
v -16.280009 2.234001 0.074580
v -16.286639 2.217997 0.074580
v -16.280009 2.201992 0.074580
v -16.264005 2.195363 0.074580
v -16.248001 2.201992 0.074580
v -16.241373 2.217997 0.074580
v -16.245479 2.236523 0.137142
v -16.264005 2.244197 0.137142
v -16.282531 2.236523 0.137142
v -16.290205 2.217997 0.137142
v -16.282531 2.199471 0.137142
v -16.264005 2.191797 0.137142
v -16.245479 2.199471 0.137142
v -16.237805 2.217997 0.137142
v -16.264005 2.217997 0.078678
v -16.264005 2.217997 0.137143
v -16.264005 2.190944 0.119942
v -16.283135 2.198868 0.119942
v -16.291057 2.217997 0.119942
v -16.283135 2.237126 0.119942
v -16.264005 2.245049 0.119942
v -16.244876 2.237126 0.119942
v -16.236952 2.217997 0.119942
v -16.244876 2.198868 0.119942
v -16.240986 2.194978 0.128805
v -16.264005 2.185444 0.128805
v -16.287023 2.194978 0.128805
v -16.296558 2.217997 0.128805
v -16.287023 2.241015 0.128805
v -16.264005 2.250550 0.128805
v -16.240986 2.241015 0.128805
v -16.231452 2.217997 0.128805
v -16.244119 2.198112 0.081080
v -16.264005 2.189875 0.081080
v -16.283890 2.198112 0.081080
v -16.292127 2.217997 0.081080
v -16.283890 2.237882 0.081080
v -16.264005 2.246118 0.081080
v -16.244119 2.237882 0.081080
v -16.235885 2.217997 0.081080
v -16.264005 2.193612 0.089272
v -16.281248 2.200754 0.089272
v -16.288390 2.217997 0.089272
v -16.281248 2.235239 0.089272
v -16.264005 2.242382 0.089272
v -16.246763 2.235239 0.089272
v -16.239620 2.217997 0.089272
v -16.246763 2.200754 0.089272
v -16.264004 2.195903 0.030081
v -16.279627 2.202374 0.030081
v -16.286098 2.217997 0.030081
v -16.279627 2.233619 0.030081
v -16.264004 2.240090 0.030081
v -16.248382 2.233619 0.030081
v -16.241911 2.217997 0.030081
v -16.248382 2.202374 0.030081
v -16.264004 2.195903 0.017369
v -16.279627 2.202374 0.017369
v -16.286098 2.217997 0.017369
v -16.279627 2.233619 0.017369
v -16.264004 2.240090 0.017369
v -16.248382 2.233619 0.017369
v -16.241911 2.217997 0.017369
v -16.248382 2.202374 0.017369
v -16.264004 2.195903 0.041950
v -16.279627 2.202374 0.041950
v -16.286098 2.217997 0.041950
v -16.279627 2.233619 0.041950
v -16.264004 2.240090 0.041950
v -16.248382 2.233619 0.041950
v -16.241911 2.217997 0.041950
v -16.248382 2.202374 0.041950
v -16.264004 2.190062 0.036207
v -16.283758 2.198244 0.036207
v -16.291940 2.217997 0.036207
v -16.283758 2.237750 0.036207
v -16.264004 2.245932 0.036207
v -16.244252 2.237750 0.036207
v -16.236069 2.217997 0.036207
v -16.244252 2.198244 0.036207
v -16.264004 2.190062 0.024251
v -16.283758 2.198244 0.024251
v -16.291940 2.217997 0.024251
v -16.283758 2.237750 0.024251
v -16.264004 2.245932 0.024251
v -16.244252 2.237750 0.024251
v -16.236069 2.217997 0.024251
v -16.244252 2.198244 0.024251
v -16.236069 2.217997 0.011345
v -16.244252 2.198244 0.011345
v -16.264004 2.190062 0.011345
v -16.283758 2.198244 0.011345
v -16.291940 2.217997 0.011345
v -16.283758 2.237750 0.011345
v -16.264004 2.245932 0.011345
v -16.244252 2.237750 0.011345
v -16.248069 2.202062 0.004211
v -16.264004 2.195461 0.004211
v -16.279940 2.202062 0.004211
v -16.286541 2.217997 0.004211
v -16.279940 2.233932 0.004211
v -16.264004 2.240533 0.004211
v -16.248069 2.233932 0.004211
v -16.241469 2.217997 0.004211
v -15.942614 1.930871 0.043537
v -15.942614 1.945824 0.037343
v -15.942614 1.952018 0.022389
v -15.942614 1.945824 0.007436
v -15.942614 1.930871 0.001242
v -15.942614 1.915917 0.007436
v -15.942614 1.909723 0.022389
v -15.942614 1.915917 0.037343
v -15.954781 1.930871 0.043537
v -15.954781 1.945824 0.037343
v -15.954781 1.952018 0.022389
v -15.954781 1.945824 0.007436
v -15.954781 1.930871 0.001242
v -15.954781 1.915917 0.007436
v -15.954781 1.909723 0.022389
v -15.954781 1.915917 0.037343
v -15.931253 1.930871 0.043537
v -15.931253 1.945824 0.037343
v -15.931253 1.952018 0.022389
v -15.931253 1.945824 0.007436
v -15.931253 1.930871 0.001242
v -15.931253 1.915917 0.007436
v -15.931253 1.909723 0.022389
v -15.931253 1.915917 0.037343
v -15.936750 1.930871 0.049128
v -15.936750 1.949778 0.041297
v -15.936750 1.957609 0.022389
v -15.936750 1.949778 0.003482
v -15.936750 1.930871 -0.004350
v -15.936750 1.911963 0.003482
v -15.936750 1.904132 0.022389
v -15.936750 1.911963 0.041297
v -15.948195 1.930871 0.049128
v -15.948195 1.949778 0.041297
v -15.948195 1.957609 0.022389
v -15.948195 1.949778 0.003482
v -15.948195 1.930871 -0.004350
v -15.948195 1.911963 0.003482
v -15.948195 1.904132 0.022389
v -15.948195 1.911963 0.041297
v -15.960548 1.904132 0.022389
v -15.960548 1.911963 0.041297
v -15.960548 1.930871 0.049128
v -15.960548 1.949778 0.041297
v -15.960548 1.957609 0.022389
v -15.960548 1.949778 0.003482
v -15.960548 1.930871 -0.004350
v -15.960548 1.911963 0.003482
v -15.967376 1.915618 0.037642
v -15.967376 1.930871 0.043960
v -15.967376 1.946123 0.037642
v -15.967376 1.952442 0.022389
v -15.967376 1.946123 0.007136
v -15.967376 1.930871 0.000818
v -15.967376 1.915618 0.007136
v -15.967376 1.909300 0.022389
v -16.579930 1.930871 0.043537
v -16.579930 1.945824 0.037343
v -16.579930 1.952018 0.022389
v -16.579930 1.945824 0.007436
v -16.579930 1.930871 0.001242
v -16.579930 1.915917 0.007436
v -16.579930 1.909723 0.022389
v -16.579930 1.915917 0.037343
v -16.592098 1.930871 0.043537
v -16.592098 1.945824 0.037343
v -16.592098 1.952018 0.022389
v -16.592098 1.945824 0.007436
v -16.592098 1.930871 0.001242
v -16.592098 1.915917 0.007436
v -16.592098 1.909723 0.022389
v -16.592098 1.915917 0.037343
v -16.568569 1.930871 0.043537
v -16.568569 1.945824 0.037343
v -16.568569 1.952018 0.022389
v -16.568569 1.945824 0.007436
v -16.568569 1.930871 0.001242
v -16.568569 1.915917 0.007436
v -16.568569 1.909723 0.022389
v -16.568569 1.915917 0.037343
v -16.574066 1.930871 0.049128
v -16.574066 1.949778 0.041297
v -16.574066 1.957609 0.022389
v -16.574066 1.949778 0.003482
v -16.574066 1.930871 -0.004350
v -16.574066 1.911963 0.003482
v -16.574066 1.904132 0.022389
v -16.574066 1.911963 0.041297
v -16.585511 1.930871 0.049128
v -16.585511 1.949778 0.041297
v -16.585511 1.957609 0.022389
v -16.585511 1.949778 0.003482
v -16.585511 1.930871 -0.004350
v -16.585511 1.911963 0.003482
v -16.585511 1.904132 0.022389
v -16.585511 1.911963 0.041297
v -16.597864 1.904132 0.022389
v -16.597864 1.911963 0.041297
v -16.597864 1.930871 0.049128
v -16.597864 1.949778 0.041297
v -16.597864 1.957609 0.022389
v -16.597864 1.949778 0.003482
v -16.597864 1.930871 -0.004350
v -16.597864 1.911963 0.003482
v -16.604692 1.915618 0.037642
v -16.604692 1.930871 0.043960
v -16.604692 1.946123 0.037642
v -16.604692 1.952442 0.022389
v -16.604692 1.946123 0.007136
v -16.604692 1.930871 0.000818
v -16.604692 1.915618 0.007136
v -16.604692 1.909300 0.022389
v -16.539603 0.445933 0.018020
v -15.987357 0.445933 0.021447
v -16.539603 1.908654 0.021386
v -15.987357 1.908654 0.021386
v -16.276199 2.243156 0.023361
v -16.253666 2.242449 0.023775
v -15.939868 1.944028 0.024886
v -15.945876 1.935194 0.024886
v -16.253943 2.228406 0.023775
v -16.275924 2.229163 0.023361
v -16.587546 1.936451 0.022336
v -16.593560 1.943060 0.022335
v -16.276062 2.236282 0.029474
v -16.590867 1.940443 0.028088
v -16.590867 1.940443 0.016584
v -16.276062 2.236282 0.017248
v -16.253802 2.235532 0.017661
v -15.942612 1.940114 0.019070
v -15.942612 1.940114 0.030699
v -16.253802 2.235532 0.029888
v -16.394576 0.445933 0.018020
v -16.394576 1.908654 0.021386
v -16.119327 0.445933 0.009877
v -16.119327 1.908654 0.021386
v -16.054796 0.445933 0.001988
v -16.054796 1.908654 0.021386
v -16.322887 0.445933 0.016586
v -16.322887 1.908654 0.021386
v -16.438696 0.445933 0.007938
v -16.438696 1.908654 0.021386
v -16.483190 0.445933 0.003673
v -16.483190 1.908654 0.021386
v -16.274025 0.445933 0.012266
v -16.274025 1.908654 0.021386
v -16.228462 0.445933 0.022890
v -16.228462 1.908654 0.021386
v -16.202657 0.445933 0.011428
v -16.202657 1.908654 0.021386
v -16.160180 0.445933 0.007760
v -16.160180 1.908654 0.021386
v -15.987357 1.443159 0.025301
v -16.054796 1.443159 0.020752
v -16.119327 1.443159 0.022596
v -16.160179 1.443159 0.022102
v -16.202657 1.443159 0.022959
v -16.228462 1.443159 0.025638
v -16.274025 1.443159 0.026056
v -16.322887 1.443159 0.024164
v -16.394576 1.443159 0.024500
v -16.438696 1.443159 0.022143
v -16.483190 1.443159 0.021146
v -16.539603 1.443159 0.024500
v -15.987357 0.902019 0.011162
v -16.054796 0.902019 0.029549
v -16.119327 0.902019 0.022097
v -16.160179 0.902019 0.024099
v -16.202657 0.902019 0.020628
v -16.228462 0.902019 0.009798
v -16.274025 0.902019 0.021254
v -16.322887 0.902019 0.015752
v -16.394576 0.902019 0.014397
v -16.438696 0.902019 0.023926
v -16.483190 0.902019 0.027959
v -16.539603 0.902019 0.014397
v -16.264005 2.239533 -0.116168
v -16.248777 2.233225 -0.116168
v -16.242468 2.217996 -0.116168
v -16.248777 2.202769 -0.116168
v -16.264005 2.196461 -0.116168
v -16.279233 2.202769 -0.116168
v -16.285541 2.217996 -0.116168
v -16.279233 2.233225 -0.116168
v -16.264004 2.217997 -0.116168
v -16.539603 0.445933 0.013787
v -15.987357 0.445933 0.017214
v -16.539603 1.908654 0.017153
v -15.987357 1.908654 0.017153
v -16.394576 0.445933 0.013787
v -16.394576 1.908654 0.017153
v -16.119327 0.445933 0.005643
v -16.119327 1.908654 0.017153
v -16.054796 0.445933 -0.002245
v -16.054796 1.908654 0.017153
v -16.322887 0.445933 0.012353
v -16.322887 1.908654 0.017153
v -16.438696 0.445933 0.003705
v -16.438696 1.908654 0.017153
v -16.483190 0.445933 -0.000560
v -16.483190 1.908654 0.017153
v -16.274025 0.445933 0.008033
v -16.274025 1.908654 0.017153
v -16.228462 0.445933 0.018657
v -16.228462 1.908654 0.017153
v -16.202657 0.445933 0.007195
v -16.202657 1.908654 0.017153
v -16.160180 0.445933 0.003527
v -16.160180 1.908654 0.017153
v -15.987357 1.443159 0.021068
v -16.054796 1.443159 0.016519
v -16.119327 1.443159 0.018363
v -16.160179 1.443159 0.017868
v -16.202657 1.443159 0.018726
v -16.228462 1.443159 0.021405
v -16.274025 1.443159 0.021823
v -16.322887 1.443159 0.019931
v -16.394576 1.443159 0.020267
v -16.438696 1.443159 0.017910
v -16.483190 1.443159 0.016913
v -16.539603 1.443159 0.020267
v -15.987357 0.902019 0.006929
v -16.054796 0.902019 0.025316
v -16.119327 0.902019 0.017864
v -16.160179 0.902019 0.019866
v -16.202657 0.902019 0.016395
v -16.228462 0.902019 0.005565
v -16.274025 0.902019 0.017021
v -16.322887 0.902019 0.011519
v -16.394576 0.902019 0.010164
v -16.438696 0.902019 0.019693
v -16.483190 0.902019 0.023726
v -16.539603 0.902019 0.010164
vt 0.756734 0.500923
vt 0.756734 0.509789
vt 0.750324 0.509789
vt 0.750324 0.500923
vt 0.756734 0.518655
vt 0.750324 0.518655
vt 0.756734 0.527521
vt 0.750324 0.527522
vt 0.756734 0.536388
vt 0.750324 0.536388
vt 0.756734 0.545254
vt 0.750324 0.545254
vt 0.756735 0.474324
vt 0.756734 0.483190
vt 0.750324 0.483190
vt 0.750325 0.474324
vt 0.756735 0.492056
vt 0.750324 0.492057
vt 0.699203 0.508880
vt 0.702248 0.501730
vt 0.709812 0.508880
vt 0.702248 0.516247
vt 0.709812 0.519300
vt 0.716781 0.516247
vt 0.719833 0.508880
vt 0.716781 0.501731
vt 0.709812 0.498686
vt 0.716781 0.516248
vt 0.709812 0.519300
vt 0.709812 0.508880
vt 0.702248 0.516248
vt 0.699203 0.508880
vt 0.702248 0.501731
vt 0.709812 0.498686
vt 0.716781 0.501730
vt 0.719833 0.508880
vt 0.722050 0.536388
vt 0.722050 0.545254
vt 0.716421 0.545254
vt 0.716421 0.536388
vt 0.722050 0.527522
vt 0.716421 0.527521
vt 0.722050 0.518655
vt 0.716421 0.518655
vt 0.722050 0.509789
vt 0.716421 0.509789
vt 0.722050 0.500923
vt 0.716421 0.500923
vt 0.722050 0.492057
vt 0.716421 0.492057
vt 0.722051 0.483190
vt 0.716422 0.483190
vt 0.722051 0.474324
vt 0.716422 0.474324
vt 0.709870 0.483190
vt 0.709870 0.474324
vt 0.709869 0.545254
vt 0.709869 0.536388
vt 0.709869 0.527521
vt 0.709869 0.518655
vt 0.709869 0.509789
vt 0.709869 0.500923
vt 0.709869 0.492057
vt 0.745055 0.483190
vt 0.745055 0.474324
vt 0.745054 0.545254
vt 0.745054 0.536388
vt 0.745054 0.527522
vt 0.745054 0.518655
vt 0.745054 0.509789
vt 0.745054 0.500923
vt 0.745055 0.492056
vt 0.827505 0.433325
vt 0.835294 0.433325
vt 0.835294 0.477953
vt 0.827505 0.477953
vt 0.819716 0.433325
vt 0.819716 0.477953
vt 0.811928 0.433325
vt 0.811928 0.477953
vt 0.804139 0.433325
vt 0.804139 0.477953
vt 0.796350 0.433325
vt 0.796350 0.477953
vt 0.788562 0.433326
vt 0.788562 0.477953
vt 0.843083 0.433325
vt 0.850872 0.433325
vt 0.850872 0.477953
vt 0.843083 0.477953
vt 0.827505 0.769929
vt 0.835293 0.769929
vt 0.835293 0.813213
vt 0.827505 0.813212
vt 0.819716 0.769929
vt 0.819716 0.813212
vt 0.811927 0.769928
vt 0.811927 0.813212
vt 0.804138 0.769929
vt 0.804138 0.813212
vt 0.796349 0.769929
vt 0.796349 0.813212
vt 0.788561 0.769928
vt 0.788561 0.813212
vt 0.843082 0.769929
vt 0.850871 0.769928
vt 0.850871 0.813212
vt 0.843082 0.813212
vt 0.355398 0.936830
vt 0.355398 0.929041
vt 0.681994 0.929042
vt 0.681994 0.936830
vt 0.355398 0.944618
vt 0.681994 0.944619
vt 0.355398 0.952407
vt 0.681994 0.952408
vt 0.355398 0.960196
vt 0.681994 0.960197
vt 0.355398 0.967984
vt 0.681994 0.967985
vt 0.355398 0.913463
vt 0.355398 0.905675
vt 0.681993 0.905675
vt 0.681994 0.913464
vt 0.355398 0.921252
vt 0.681994 0.921253
vt 0.756734 0.500923
vt 0.756734 0.509789
vt 0.750324 0.509789
vt 0.750324 0.500923
vt 0.756734 0.518655
vt 0.750324 0.518655
vt 0.756734 0.527521
vt 0.750324 0.527522
vt 0.756734 0.536388
vt 0.750324 0.536388
vt 0.756734 0.545254
vt 0.750324 0.545254
vt 0.756735 0.474324
vt 0.756734 0.483190
vt 0.750324 0.483190
vt 0.750325 0.474324
vt 0.756735 0.492056
vt 0.750324 0.492057
vt 0.719833 0.508880
vt 0.716781 0.516247
vt 0.709812 0.508880
vt 0.716781 0.501731
vt 0.709812 0.498686
vt 0.702248 0.501731
vt 0.699203 0.508880
vt 0.702248 0.516247
vt 0.709812 0.519299
vt 0.702248 0.501730
vt 0.709811 0.498686
vt 0.709812 0.508880
vt 0.716781 0.501731
vt 0.719833 0.508880
vt 0.716781 0.516247
vt 0.709812 0.519299
vt 0.702248 0.516248
vt 0.699203 0.508880
vt 0.722050 0.536388
vt 0.722050 0.545254
vt 0.716421 0.545254
vt 0.716421 0.536388
vt 0.722050 0.527522
vt 0.716421 0.527521
vt 0.722050 0.518655
vt 0.716421 0.518655
vt 0.722050 0.509789
vt 0.716421 0.509789
vt 0.722050 0.500923
vt 0.716421 0.500923
vt 0.722050 0.492057
vt 0.716421 0.492057
vt 0.722051 0.483190
vt 0.716422 0.483190
vt 0.722051 0.474324
vt 0.716422 0.474324
vt 0.709870 0.483190
vt 0.709870 0.474324
vt 0.709869 0.545254
vt 0.709869 0.536388
vt 0.709869 0.527521
vt 0.709869 0.518655
vt 0.709869 0.509789
vt 0.709869 0.500923
vt 0.709869 0.492057
vt 0.745055 0.483190
vt 0.745055 0.474324
vt 0.745054 0.545254
vt 0.745054 0.536388
vt 0.745054 0.527522
vt 0.745054 0.518655
vt 0.745054 0.509789
vt 0.745054 0.500923
vt 0.745055 0.492056
vt 0.352983 0.936830
vt 0.352983 0.929041
vt 0.684409 0.929042
vt 0.684408 0.936830
vt 0.352983 0.944618
vt 0.684408 0.944619
vt 0.352983 0.952407
vt 0.684408 0.952408
vt 0.352983 0.960196
vt 0.684409 0.960197
vt 0.352983 0.967984
vt 0.684408 0.967985
vt 0.352983 0.913463
vt 0.352983 0.905675
vt 0.684408 0.905675
vt 0.684408 0.913464
vt 0.352983 0.921252
vt 0.684408 0.921253
vt 0.796349 1.016976
vt 0.788561 1.016976
vt 0.804138 1.016976
vt 0.811927 1.016976
vt 0.819716 1.016976
vt 0.827505 1.016976
vt 0.835293 1.016976
vt 0.843082 1.016976
vt 0.850871 1.016976
vt 0.756734 0.500923
vt 0.756734 0.509789
vt 0.750324 0.509789
vt 0.750324 0.500923
vt 0.756734 0.518655
vt 0.750324 0.518655
vt 0.756734 0.527521
vt 0.750324 0.527522
vt 0.756734 0.536388
vt 0.750324 0.536388
vt 0.756734 0.545254
vt 0.750324 0.545254
vt 0.756735 0.474324
vt 0.756734 0.483190
vt 0.750324 0.483190
vt 0.750325 0.474324
vt 0.756735 0.492056
vt 0.750324 0.492057
vt 0.699203 0.508880
vt 0.702248 0.501731
vt 0.709811 0.508880
vt 0.702248 0.516248
vt 0.709812 0.519299
vt 0.716781 0.516247
vt 0.719833 0.508880
vt 0.716781 0.501731
vt 0.709812 0.498686
vt 0.702248 0.501731
vt 0.709812 0.498686
vt 0.709811 0.508880
vt 0.716781 0.501731
vt 0.719833 0.508880
vt 0.716781 0.516247
vt 0.709812 0.519300
vt 0.702248 0.516247
vt 0.699203 0.508880
vt 0.722050 0.536388
vt 0.722050 0.545254
vt 0.716421 0.545254
vt 0.716421 0.536388
vt 0.722050 0.527522
vt 0.716421 0.527521
vt 0.722050 0.518655
vt 0.716421 0.518655
vt 0.722050 0.509789
vt 0.716421 0.509789
vt 0.722050 0.500923
vt 0.716421 0.500923
vt 0.722050 0.492057
vt 0.716421 0.492057
vt 0.722051 0.483190
vt 0.716422 0.483190
vt 0.722051 0.474324
vt 0.716422 0.474324
vt 0.709870 0.483190
vt 0.709870 0.474324
vt 0.709869 0.545254
vt 0.709869 0.536388
vt 0.709869 0.527521
vt 0.709869 0.518655
vt 0.709869 0.509789
vt 0.709869 0.500923
vt 0.709869 0.492057
vt 0.745055 0.483190
vt 0.745055 0.474324
vt 0.745054 0.545254
vt 0.745054 0.536388
vt 0.745054 0.527522
vt 0.745054 0.518655
vt 0.745054 0.509789
vt 0.745054 0.500923
vt 0.745055 0.492056
vt 0.718223 0.229415
vt 0.718223 0.249295
vt 0.710651 0.249295
vt 0.710651 0.229415
vt 0.718223 0.209535
vt 0.710651 0.209535
vt 0.718223 0.189655
vt 0.710651 0.189655
vt 0.718223 0.169775
vt 0.710651 0.169775
vt 0.718223 0.149895
vt 0.710651 0.149895
vt 0.718223 0.289054
vt 0.718223 0.308934
vt 0.710651 0.308934
vt 0.710651 0.289054
vt 0.718223 0.269175
vt 0.710651 0.269175
vt 0.738689 0.229415
vt 0.738689 0.249295
vt 0.729135 0.249295
vt 0.729135 0.229415
vt 0.738689 0.209535
vt 0.729135 0.209535
vt 0.738689 0.189655
vt 0.729135 0.189655
vt 0.738689 0.169775
vt 0.729135 0.169775
vt 0.738689 0.149896
vt 0.729135 0.149895
vt 0.738689 0.289054
vt 0.738689 0.308934
vt 0.729135 0.308934
vt 0.729135 0.289054
vt 0.738689 0.269175
vt 0.729135 0.269175
vt 0.702678 0.249295
vt 0.702678 0.229415
vt 0.702678 0.209535
vt 0.702678 0.189655
vt 0.702677 0.169775
vt 0.702678 0.149895
vt 0.702677 0.308934
vt 0.702678 0.289054
vt 0.702677 0.269175
vt 0.744236 0.269175
vt 0.744236 0.289054
vt 0.744236 0.249295
vt 0.744236 0.229415
vt 0.744236 0.209535
vt 0.744236 0.189655
vt 0.744236 0.169775
vt 0.744236 0.149895
vt 0.744236 0.308934
vt 0.764391 0.249295
vt 0.764391 0.269175
vt 0.764391 0.229415
vt 0.764391 0.209535
vt 0.764391 0.189655
vt 0.764391 0.169775
vt 0.764391 0.149895
vt 0.764391 0.289054
vt 0.764391 0.308934
vt 0.718223 0.229415
vt 0.718223 0.249295
vt 0.710651 0.249295
vt 0.710651 0.229415
vt 0.718223 0.209535
vt 0.710651 0.209535
vt 0.718223 0.189655
vt 0.710651 0.189655
vt 0.718223 0.169775
vt 0.710651 0.169775
vt 0.718223 0.149895
vt 0.710651 0.149895
vt 0.718223 0.289054
vt 0.718223 0.308934
vt 0.710651 0.308934
vt 0.710651 0.289054
vt 0.718223 0.269175
vt 0.710651 0.269175
vt 0.738689 0.229415
vt 0.738689 0.249295
vt 0.729135 0.249295
vt 0.729135 0.229415
vt 0.738689 0.209535
vt 0.729135 0.209535
vt 0.738689 0.189655
vt 0.729135 0.189655
vt 0.738689 0.169775
vt 0.729135 0.169775
vt 0.738689 0.149896
vt 0.729135 0.149895
vt 0.738689 0.289054
vt 0.738689 0.308934
vt 0.729135 0.308934
vt 0.729135 0.289054
vt 0.738689 0.269175
vt 0.729135 0.269175
vt 0.702678 0.249295
vt 0.702678 0.229415
vt 0.702678 0.209535
vt 0.702678 0.189655
vt 0.702677 0.169775
vt 0.702678 0.149895
vt 0.702677 0.308934
vt 0.702678 0.289054
vt 0.702677 0.269175
vt 0.744236 0.269175
vt 0.744236 0.289054
vt 0.744236 0.249295
vt 0.744236 0.229415
vt 0.744236 0.209535
vt 0.744236 0.189655
vt 0.744236 0.169775
vt 0.744236 0.149895
vt 0.744236 0.308934
vt 0.764391 0.249295
vt 0.764391 0.269175
vt 0.764391 0.229415
vt 0.764391 0.209535
vt 0.764391 0.189655
vt 0.764391 0.169775
vt 0.764391 0.149895
vt 0.764391 0.289054
vt 0.764391 0.308934
vt 0.718223 0.229415
vt 0.718223 0.249295
vt 0.710651 0.249295
vt 0.710651 0.229415
vt 0.718223 0.209535
vt 0.710651 0.209535
vt 0.718223 0.189655
vt 0.710651 0.189655
vt 0.718223 0.169775
vt 0.710651 0.169775
vt 0.718223 0.149895
vt 0.710651 0.149895
vt 0.718223 0.289054
vt 0.718223 0.308934
vt 0.710651 0.308934
vt 0.710651 0.289054
vt 0.718223 0.269175
vt 0.710651 0.269175
vt 0.738689 0.229415
vt 0.738689 0.249295
vt 0.729135 0.249295
vt 0.729135 0.229415
vt 0.738689 0.209535
vt 0.729135 0.209535
vt 0.738689 0.189655
vt 0.729135 0.189655
vt 0.738689 0.169775
vt 0.729135 0.169775
vt 0.738689 0.149896
vt 0.729135 0.149895
vt 0.738689 0.289054
vt 0.738689 0.308934
vt 0.729135 0.308934
vt 0.729135 0.289054
vt 0.738689 0.269175
vt 0.729135 0.269175
vt 0.702678 0.249295
vt 0.702678 0.229415
vt 0.702678 0.209535
vt 0.702678 0.189655
vt 0.702677 0.169775
vt 0.702678 0.149895
vt 0.702677 0.308934
vt 0.702678 0.289054
vt 0.702677 0.269175
vt 0.744236 0.269175
vt 0.744236 0.289054
vt 0.744236 0.249295
vt 0.744236 0.229415
vt 0.744236 0.209535
vt 0.744236 0.189655
vt 0.744236 0.169775
vt 0.744236 0.149895
vt 0.744236 0.308934
vt 0.764391 0.249295
vt 0.764391 0.269175
vt 0.764391 0.229415
vt 0.764391 0.209535
vt 0.764391 0.189655
vt 0.764391 0.169775
vt 0.764391 0.149895
vt 0.764391 0.289054
vt 0.764391 0.308934
vt 0.355299 0.035303
vt 0.388715 0.035303
vt 0.388715 0.303053
vt 0.355299 0.303053
vt 0.743287 0.401044
vt 0.743287 0.045022
vt 0.753509 0.045022
vt 0.753509 0.401044
vt 0.753509 0.427704
vt 0.743287 0.427703
vt 0.743287 0.029519
vt 0.753509 0.029519
vt 0.724090 0.045022
vt 0.733239 0.045022
vt 0.733239 0.401044
vt 0.724090 0.401044
vt 0.713801 0.401044
vt 0.713801 0.045022
vt 0.724090 0.029518
vt 0.733239 0.029518
vt 0.733239 0.427704
vt 0.724090 0.427704
vt 0.713801 0.427704
vt 0.713801 0.029518
vt 0.441204 0.035303
vt 0.483668 0.035303
vt 0.483668 0.303053
vt 0.441204 0.303053
vt 0.604244 0.035303
vt 0.642467 0.035303
vt 0.642467 0.303053
vt 0.604244 0.303053
vt 0.682413 0.035303
vt 0.682413 0.303053
vt 0.512610 0.035303
vt 0.512610 0.303053
vt 0.415070 0.035303
vt 0.415070 0.303053
vt 0.539599 0.303053
vt 0.539599 0.035303
vt 0.554884 0.035303
vt 0.554884 0.303053
vt 0.580045 0.303053
vt 0.580045 0.035303
vt 0.642467 0.620735
vt 0.682413 0.620735
vt 0.682413 0.894008
vt 0.642467 0.894008
vt 0.604244 0.620735
vt 0.604244 0.894008
vt 0.580045 0.620735
vt 0.580045 0.894008
vt 0.554884 0.894008
vt 0.554884 0.620735
vt 0.539599 0.620735
vt 0.539599 0.894008
vt 0.512610 0.894008
vt 0.512610 0.620735
vt 0.483668 0.620735
vt 0.483668 0.894008
vt 0.441204 0.620735
vt 0.441204 0.894008
vt 0.415070 0.620735
vt 0.415070 0.894008
vt 0.388715 0.894008
vt 0.388715 0.620735
vt 0.355299 0.620735
vt 0.355299 0.894008
vt 0.796349 0.916330
vt 0.850871 0.916329
vt 0.788561 0.916329
vt 0.843082 0.916330
vt 0.835293 0.916329
vt 0.827505 0.916329
vt 0.819716 0.916330
vt 0.811927 0.916329
vt 0.804138 0.916329
vt 0.823386 0.559656
vt 0.799558 0.549786
vt 0.823385 0.525959
vt 0.789688 0.525958
vt 0.799558 0.502132
vt 0.823386 0.492262
vt 0.847213 0.502132
vt 0.857083 0.525958
vt 0.847213 0.549786
vt 0.355299 0.035303
vt 0.355299 0.303053
vt 0.388715 0.303053
vt 0.388715 0.035303
vt 0.441204 0.035303
vt 0.441204 0.303053
vt 0.483668 0.303053
vt 0.483668 0.035303
vt 0.604244 0.035303
vt 0.604244 0.303053
vt 0.642467 0.303053
vt 0.642467 0.035303
vt 0.682413 0.303053
vt 0.682413 0.035303
vt 0.512610 0.303053
vt 0.512610 0.035303
vt 0.415070 0.035303
vt 0.415070 0.303053
vt 0.539599 0.303053
vt 0.539599 0.035303
vt 0.554884 0.303053
vt 0.554884 0.035303
vt 0.580045 0.303053
vt 0.580045 0.035303
vt 0.642467 0.620735
vt 0.642467 0.894008
vt 0.682413 0.894008
vt 0.682413 0.620735
vt 0.604244 0.620735
vt 0.604244 0.894008
vt 0.580045 0.620735
vt 0.580045 0.894008
vt 0.554884 0.620735
vt 0.554884 0.894008
vt 0.539599 0.620735
vt 0.539599 0.894008
vt 0.512610 0.620735
vt 0.512610 0.894008
vt 0.483668 0.620735
vt 0.483668 0.894008
vt 0.441204 0.620735
vt 0.441204 0.894008
vt 0.415070 0.620735
vt 0.415070 0.894008
vt 0.388715 0.620735
vt 0.388715 0.894008
vt 0.355299 0.620735
vt 0.355299 0.894008
vn 0.945326 0.230608 -0.230606
vn 0.945321 -0.000003 -0.326142
vn 0.142078 0.000006 -0.989856
vn 0.142080 0.699946 -0.699920
vn 0.945325 -0.230601 -0.230617
vn 0.142084 -0.699918 -0.699948
vn 0.945329 -0.326119 -0.000002
vn 0.142081 -0.989855 -0.000005
vn 0.945323 -0.230610 0.230615
vn 0.142078 -0.699922 0.699945
vn 0.945321 -0.000002 0.326141
vn 0.142066 0.000005 0.989857
vn 0.945323 0.230621 0.230603
vn 0.142071 0.699951 0.699918
vn 0.945322 0.326140 -0.000003
vn 0.142081 0.989855 -0.000005
vn 1.000000 -0.000006 0.000002
vn -0.901706 0.305716 -0.305719
vn -0.901705 -0.000001 -0.432353
vn -1.000000 -0.000002 -0.000000
vn -0.901700 -0.305723 -0.305730
vn -0.901702 -0.432357 -0.000002
vn -0.901706 -0.305716 0.305720
vn -0.901713 0.000000 0.432335
vn -0.901711 0.305711 0.305708
vn -0.901708 0.432345 -0.000003
vn 0.317901 -0.670434 0.670416
vn 0.317908 0.000010 0.948122
vn -0.050190 0.000007 0.998740
vn -0.050179 -0.706219 0.706213
vn 0.317889 -0.948128 -0.000003
vn -0.050172 -0.998741 -0.000005
vn 0.317889 -0.670428 -0.670427
vn -0.050181 -0.706208 -0.706224
vn 0.317885 0.000009 -0.948129
vn -0.050188 0.000004 -0.998740
vn 0.317889 0.670426 -0.670430
vn -0.050195 0.706214 -0.706217
vn 0.317890 0.948128 -0.000004
vn -0.050197 0.998739 -0.000005
vn 0.317899 0.670432 0.670418
vn -0.050192 0.706227 0.706204
vn -0.171354 0.696653 0.696643
vn -0.171358 0.000010 0.985209
vn -0.171359 -0.696649 0.696647
vn -0.171362 -0.985208 -0.000004
vn -0.171351 -0.696647 -0.696650
vn -0.171346 0.000011 -0.985211
vn -0.171345 0.696654 -0.696645
vn -0.171340 0.985212 -0.000003
vn 0.000003 0.000002 1.000000
vn 0.000003 0.707101 0.707113
vn 0.000003 0.707101 0.707113
vn 0.000003 0.000002 1.000000
vn 0.000003 -0.707096 0.707117
vn 0.000003 -0.707096 0.707117
vn 0.000001 -1.000000 0.000009
vn 0.000001 -1.000000 0.000009
vn -0.000001 -0.707108 -0.707105
vn -0.000001 -0.707108 -0.707105
vn 0.000000 0.000002 -1.000000
vn 0.000000 0.000002 -1.000000
vn -0.000001 0.707113 -0.707101
vn -0.000001 0.707113 -0.707101
vn 0.000001 1.000000 0.000009
vn 0.000001 1.000000 0.000009
vn 0.000000 0.000002 1.000000
vn 0.000000 0.707102 0.707111
vn 0.000000 0.707102 0.707111
vn 0.000000 0.000002 1.000000
vn 0.000000 -0.707104 0.707110
vn 0.000000 -0.707104 0.707110
vn 0.000000 -1.000000 0.000005
vn 0.000000 -1.000000 0.000005
vn 0.000000 -0.707107 -0.707106
vn 0.000000 -0.707107 -0.707106
vn 0.000000 0.000002 -1.000000
vn 0.000000 0.000002 -1.000000
vn 0.000000 0.707106 -0.707108
vn 0.000000 0.707106 -0.707108
vn 0.000000 1.000000 0.000005
vn 0.000000 1.000000 0.000005
vn -0.000000 -0.707096 0.707117
vn -0.000001 0.000008 1.000000
vn -0.000001 0.000008 1.000000
vn -0.000000 -0.707096 0.707117
vn -0.000000 -1.000000 0.000010
vn -0.000000 -1.000000 0.000010
vn 0.000000 -0.707111 -0.707103
vn 0.000000 -0.707111 -0.707103
vn -0.000000 0.000004 -1.000000
vn -0.000000 0.000004 -1.000000
vn 0.000000 0.707109 -0.707105
vn 0.000000 0.707109 -0.707105
vn -0.000000 1.000000 0.000009
vn -0.000000 1.000000 0.000009
vn -0.000000 0.707098 0.707116
vn -0.000000 0.707098 0.707116
vn -0.945320 -0.230627 -0.230613
vn -0.945319 -0.000001 -0.326148
vn -0.142070 -0.000002 -0.989857
vn -0.142068 -0.699947 -0.699922
vn -0.945323 0.230608 -0.230618
vn -0.142070 0.699925 -0.699944
vn -0.945326 0.326128 -0.000001
vn -0.142066 0.989857 -0.000006
vn -0.945323 0.230611 0.230616
vn -0.142067 0.699929 0.699941
vn -0.945319 0.000000 0.326148
vn -0.142058 -0.000001 0.989858
vn -0.945320 -0.230627 0.230612
vn -0.142066 -0.699950 0.699920
vn -0.945314 -0.326162 -0.000001
vn -0.142070 -0.989857 -0.000005
vn -1.000000 0.000001 0.000002
vn 0.901707 -0.305714 -0.305717
vn 0.901705 -0.000001 -0.432352
vn 1.000000 -0.000000 -0.000000
vn 0.901701 0.305719 -0.305731
vn 0.901702 0.432359 -0.000003
vn 0.901705 0.305716 0.305721
vn 0.901713 -0.000001 0.432335
vn 0.901712 -0.305711 0.305706
vn 0.901708 -0.432345 -0.000003
vn -0.317903 0.670435 0.670413
vn -0.317909 -0.000008 0.948121
vn 0.050190 -0.000003 0.998740
vn 0.050178 0.706219 0.706213
vn -0.317893 0.948127 -0.000003
vn 0.050171 0.998741 -0.000004
vn -0.317891 0.670432 -0.670423
vn 0.050183 0.706208 -0.706223
vn -0.317886 -0.000008 -0.948129
vn 0.050190 -0.000003 -0.998740
vn -0.317890 -0.670424 -0.670431
vn 0.050193 -0.706213 -0.706218
vn -0.317895 -0.948126 -0.000002
vn 0.050191 -0.998740 -0.000004
vn -0.317903 -0.670427 0.670421
vn 0.050188 -0.706223 0.706208
vn 0.171356 -0.696652 0.696644
vn 0.171364 -0.000008 0.985208
vn 0.171370 0.696651 0.696642
vn 0.171375 0.985206 -0.000005
vn 0.171363 0.696649 -0.696645
vn 0.171352 -0.000008 -0.985210
vn 0.171349 -0.696651 -0.696647
vn 0.171342 -0.985212 -0.000005
vn 0.797258 -0.426833 0.426841
vn 0.797241 0.000008 0.603661
vn 0.797241 0.000008 0.603661
vn 0.797258 -0.426833 0.426841
vn -0.797250 0.000005 0.603650
vn -0.797263 -0.426828 0.426837
vn -0.797263 -0.426828 0.426837
vn -0.797250 0.000005 0.603650
vn 0.797248 -0.603653 0.000008
vn 0.797248 -0.603653 0.000008
vn -0.797255 -0.603642 0.000005
vn -0.797255 -0.603642 0.000005
vn 0.797253 -0.426854 -0.426830
vn 0.797253 -0.426854 -0.426830
vn -0.797245 -0.426863 -0.426835
vn -0.797245 -0.426863 -0.426835
vn 0.797255 -0.000004 -0.603643
vn 0.797255 -0.000004 -0.603643
vn -0.797253 -0.000007 -0.603645
vn -0.797253 -0.000007 -0.603645
vn 0.797241 0.426860 -0.426847
vn 0.797241 0.426860 -0.426847
vn -0.797245 0.426852 -0.426847
vn -0.797245 0.426852 -0.426847
vn 0.797207 0.603706 0.000016
vn 0.797207 0.603706 0.000016
vn -0.797238 0.603665 0.000004
vn -0.797238 0.603665 0.000004
vn 0.797211 0.426885 0.426877
vn 0.797211 0.426885 0.426877
vn -0.797236 0.426860 0.426855
vn -0.797236 0.426860 0.426855
vn 0.230617 0.230596 -0.945326
vn -0.000001 0.326128 -0.945326
vn -0.000007 0.989856 -0.142075
vn 0.699953 0.699913 -0.142084
vn -0.230602 0.230609 -0.945326
vn -0.699928 0.699941 -0.142069
vn -0.326124 -0.000000 -0.945327
vn -0.989857 0.000002 -0.142066
vn -0.230610 -0.230619 -0.945322
vn -0.699924 -0.699946 -0.142064
vn -0.000003 -0.326149 -0.945318
vn -0.000010 -0.989859 -0.142055
vn 0.230624 -0.230607 -0.945322
vn 0.699950 -0.699917 -0.142076
vn 0.326155 -0.000001 -0.945316
vn 0.989854 0.000000 -0.142089
vn -0.000000 -0.000002 -1.000000
vn 0.305713 0.305715 0.901709
vn -0.000003 0.432347 0.901707
vn -0.000001 0.000001 1.000000
vn -0.305720 0.305724 0.901703
vn -0.432350 0.000003 0.901706
vn -0.305715 -0.305715 0.901708
vn -0.000002 -0.432334 0.901713
vn 0.305708 -0.305707 0.901713
vn 0.432341 0.000001 0.901710
vn -0.670434 -0.670415 -0.317903
vn 0.000000 -0.948120 -0.317914
vn -0.000004 -0.998740 0.050176
vn -0.706222 -0.706210 0.050180
vn -0.948127 -0.000001 -0.317892
vn -0.998740 -0.000000 0.050179
vn -0.670433 0.670419 -0.317897
vn -0.706217 0.706215 0.050181
vn 0.000001 0.948126 -0.317896
vn -0.000004 0.998740 0.050182
vn 0.670417 0.670432 -0.317903
vn 0.706215 0.706217 0.050178
vn 0.948122 0.000001 -0.317905
vn 0.998740 0.000001 0.050177
vn 0.670418 -0.670428 -0.317910
vn 0.706221 -0.706211 0.050175
vn 0.696646 -0.696651 0.171354
vn -0.000002 -0.985208 0.171365
vn -0.696647 -0.696647 0.171367
vn -0.985206 0.000002 0.171374
vn -0.696651 0.696642 0.171370
vn -0.000001 0.985207 0.171367
vn 0.696650 0.696647 0.171353
vn 0.985213 0.000000 0.171335
vn -0.511760 -0.511764 -0.690072
vn 0.000002 -0.723741 -0.690072
vn 0.000004 -0.999848 0.017432
vn -0.707000 -0.706999 0.017426
vn -0.723738 -0.000001 -0.690075
vn -0.999848 -0.000003 0.017420
vn -0.511759 0.511772 -0.690066
vn -0.706990 0.707009 0.017418
vn -0.000001 0.723752 -0.690060
vn -0.000000 0.999848 0.017418
vn 0.511759 0.511765 -0.690072
vn 0.706994 0.707005 0.017419
vn 0.723736 -0.000001 -0.690077
vn 0.999848 -0.000001 0.017417
vn 0.511762 -0.511763 -0.690071
vn 0.707000 -0.706999 0.017424
vn -0.539078 -0.539077 -0.647140
vn 0.000003 -0.762367 -0.647145
vn 0.000004 -0.999022 0.044225
vn -0.706414 -0.706416 0.044229
vn -0.762375 -0.000002 -0.647136
vn -0.999021 -0.000005 0.044233
vn -0.539080 0.539093 -0.647126
vn -0.706407 0.706422 0.044231
vn -0.000000 0.762393 -0.647115
vn -0.000000 0.999021 0.044233
vn 0.539079 0.539089 -0.647130
vn 0.706410 0.706420 0.044232
vn 0.762373 0.000001 -0.647138
vn 0.999021 -0.000001 0.044230
vn 0.539081 -0.539078 -0.647137
vn 0.706415 -0.706415 0.044228
vn 0.000003 -0.701041 0.713121
vn -0.495717 -0.495713 0.713115
vn -0.701055 -0.000003 0.713107
vn -0.495720 0.495733 0.713099
vn 0.000000 0.701072 0.713091
vn 0.495719 0.495727 0.713104
vn 0.701055 -0.000001 0.713107
vn 0.495720 -0.495718 0.713110
vn 0.000003 -0.706426 0.707787
vn -0.499515 -0.499519 0.707789
vn -0.706424 -0.000004 0.707789
vn -0.499520 0.499529 0.707779
vn 0.000000 0.706442 0.707771
vn 0.499519 0.499523 0.707783
vn 0.706426 -0.000002 0.707787
vn 0.499519 -0.499522 0.707785
vn 0.705611 -0.705607 0.065049
vn 0.997882 -0.000003 0.065055
vn 0.717904 -0.000003 0.696142
vn 0.507636 -0.507633 0.696143
vn 0.000003 -0.997882 0.065050
vn 0.000004 -0.717894 0.696152
vn -0.705609 -0.705609 0.065053
vn -0.507631 -0.507634 0.696146
vn -0.997882 -0.000004 0.065054
vn -0.717904 -0.000006 0.696142
vn -0.705608 0.705611 0.065050
vn -0.507633 0.507637 0.696142
vn 0.000004 0.997882 0.065048
vn 0.000003 0.717905 0.696141
vn 0.705609 0.705609 0.065055
vn 0.507635 0.507634 0.696142
vn 0.000002 -0.797357 -0.603508
vn 0.563822 -0.563819 -0.603500
vn -0.563822 -0.563821 -0.603499
vn -0.797370 -0.000000 -0.603490
vn -0.563822 0.563822 -0.603498
vn 0.000003 0.797364 -0.603499
vn 0.563825 0.563826 -0.603492
vn 0.797371 -0.000001 -0.603490
vn -0.690088 0.511752 0.511750
vn -0.690088 0.000001 0.723726
vn 0.017403 0.000002 0.999849
vn 0.017405 0.707001 0.706999
vn -0.690087 0.723726 0.000000
vn 0.017407 0.999848 0.000001
vn -0.690089 0.511752 -0.511749
vn 0.017405 0.707001 -0.706998
vn -0.690089 0.000001 -0.723724
vn 0.017403 0.000001 -0.999849
vn -0.690091 -0.511750 -0.511748
vn 0.017404 -0.707000 -0.706999
vn -0.690091 -0.723722 0.000000
vn 0.017406 -0.999849 0.000000
vn -0.690090 -0.511751 0.511749
vn 0.017405 -0.706999 0.707000
vn -0.647152 0.539072 0.539069
vn -0.647149 -0.000000 0.762363
vn 0.044207 -0.000001 0.999022
vn 0.044204 0.706417 0.706415
vn -0.647153 0.762360 0.000000
vn 0.044203 0.999023 -0.000000
vn -0.647153 0.539072 -0.539068
vn 0.044206 0.706416 -0.706415
vn -0.647151 0.000000 -0.762362
vn 0.044208 0.000000 -0.999022
vn -0.647153 -0.539072 -0.539068
vn 0.044206 -0.706417 -0.706414
vn -0.647153 -0.762360 -0.000000
vn 0.044204 -0.999023 -0.000000
vn -0.647152 -0.539073 0.539069
vn 0.044206 -0.706419 0.706413
vn 0.713098 0.000002 0.701064
vn 0.713103 0.495724 0.495723
vn 0.713103 0.701059 0.000001
vn 0.713103 0.495725 -0.495723
vn 0.713100 0.000001 -0.701063
vn 0.713104 -0.495722 -0.495724
vn 0.713106 -0.701056 0.000000
vn 0.713104 -0.495722 0.495725
vn 0.707767 -0.000002 0.706446
vn 0.707767 0.499533 0.499532
vn 0.707767 0.706446 -0.000001
vn 0.707770 0.499529 -0.499532
vn 0.707769 0.000000 -0.706444
vn 0.707771 -0.499530 -0.499530
vn 0.707768 -0.706445 -0.000000
vn 0.707769 -0.499534 0.499529
vn 0.065037 -0.705611 0.705608
vn 0.065038 -0.997883 -0.000001
vn 0.696128 -0.717918 0.000000
vn 0.696128 -0.507644 0.507644
vn 0.065032 0.000002 0.997883
vn 0.696126 0.000002 0.717920
vn 0.065036 0.705613 0.705606
vn 0.696127 0.507647 0.507643
vn 0.065041 0.997883 -0.000001
vn 0.696128 0.717918 -0.000000
vn 0.065035 0.705611 -0.705608
vn 0.696129 0.507644 -0.507643
vn 0.065032 0.000002 -0.997883
vn 0.696128 0.000002 -0.717918
vn 0.065035 -0.705610 -0.705610
vn 0.696129 -0.507644 -0.507644
vn -0.603508 0.000001 0.797357
vn -0.603502 -0.563822 0.563817
vn -0.603501 0.563824 0.563816
vn -0.603497 0.797365 -0.000001
vn -0.603504 0.563820 -0.563817
vn -0.603510 0.000001 -0.797355
vn -0.603505 -0.563818 -0.563818
vn -0.603501 -0.797362 -0.000001
vn -0.690087 0.511754 0.511750
vn -0.690088 0.000005 0.723726
vn 0.017403 0.000004 0.999849
vn 0.017406 0.707001 0.706998
vn -0.690088 0.723726 -0.000000
vn 0.017406 0.999849 0.000001
vn -0.690091 0.511748 -0.511751
vn 0.017403 0.707001 -0.706999
vn -0.690089 -0.000004 -0.723724
vn 0.017403 -0.000001 -0.999849
vn -0.690091 -0.511752 -0.511747
vn 0.017403 -0.707002 -0.706998
vn -0.690092 -0.723722 0.000000
vn 0.017403 -0.999849 0.000001
vn -0.690092 -0.511747 0.511750
vn 0.017403 -0.706999 0.707001
vn -0.647138 0.539080 0.539079
vn -0.647135 -0.000002 0.762375
vn 0.044228 -0.000000 0.999022
vn 0.044225 0.706418 0.706412
vn -0.647142 0.762370 -0.000000
vn 0.044222 0.999022 -0.000000
vn -0.647139 0.539079 -0.539078
vn 0.044225 0.706418 -0.706412
vn -0.647137 0.000001 -0.762374
vn 0.044228 0.000001 -0.999021
vn -0.647140 -0.539080 -0.539076
vn 0.044225 -0.706418 -0.706412
vn -0.647140 -0.762371 -0.000000
vn 0.044222 -0.999022 -0.000000
vn -0.647138 -0.539082 0.539076
vn 0.044225 -0.706419 0.706410
vn 0.713098 0.000001 0.701064
vn 0.713103 0.495724 0.495723
vn 0.713102 0.701060 0.000001
vn 0.713102 0.495727 -0.495722
vn 0.713100 0.000002 -0.701063
vn 0.713103 -0.495724 -0.495723
vn 0.713104 -0.701059 0.000001
vn 0.713102 -0.495724 0.495724
vn 0.707781 0.000002 0.706432
vn 0.707782 0.499526 0.499518
vn 0.707779 0.706434 0.000000
vn 0.707784 0.499524 -0.499518
vn 0.707783 0.000000 -0.706430
vn 0.707784 -0.499524 -0.499518
vn 0.707778 -0.706435 -0.000000
vn 0.707782 -0.499526 0.499518
vn 0.065055 -0.705610 0.705608
vn 0.065053 -0.997882 0.000001
vn 0.696140 -0.717906 0.000001
vn 0.696144 -0.507633 0.507635
vn 0.065054 0.000000 0.997882
vn 0.696141 0.000002 0.717905
vn 0.065057 0.705610 0.705608
vn 0.696145 0.507634 0.507632
vn 0.065058 0.997882 0.000001
vn 0.696142 0.717904 0.000001
vn 0.065055 0.705611 -0.705607
vn 0.696145 0.507635 -0.507631
vn 0.065054 -0.000000 -0.997882
vn 0.696143 -0.000001 -0.717903
vn 0.065053 -0.705611 -0.705607
vn 0.696142 -0.507637 -0.507633
vn -0.603493 -0.000002 0.797369
vn -0.603490 -0.563829 0.563823
vn -0.603489 0.563827 0.563826
vn -0.603488 0.797372 0.000000
vn -0.603490 0.563827 -0.563825
vn -0.603495 0.000001 -0.797367
vn -0.603492 -0.563826 -0.563824
vn -0.603492 -0.797369 0.000000
vn 0.006955 -0.022646 0.999719
vn 0.002181 -0.033379 0.999440
vn -0.012928 -0.015481 0.999797
vn -0.041628 -0.012852 0.999050
vn -0.031301 0.027690 0.999126
vn -0.031301 0.027690 0.999126
vn 0.684461 -0.729049 0.000536
vn 0.684461 -0.729049 0.000536
vn -0.688720 -0.725027 -0.000535
vn 0.018211 0.022579 0.999579
vn 0.018211 0.022579 0.999579
vn -0.688720 -0.725027 -0.000535
vn -0.027158 0.030210 -0.999175
vn -0.686173 0.727439 -0.000469
vn -0.686173 0.727439 -0.000469
vn -0.027158 0.030210 -0.999175
vn 0.022789 0.019884 -0.999543
vn 0.689017 0.724745 0.000665
vn 0.689017 0.724745 0.000665
vn 0.022789 0.019884 -0.999543
vn -0.002862 -0.004335 0.999987
vn -0.005772 -0.002027 0.999981
vn -0.023536 -0.008337 0.999688
vn 0.017055 -0.008365 0.999820
vn 0.000995 -0.037433 0.999299
vn -0.002283 -0.031255 0.999509
vn 0.013545 -0.014964 0.999796
vn -0.005745 -0.016463 0.999848
vn -0.007944 -0.018935 0.999789
vn 0.047133 -0.011941 0.998817
vn -0.001482 -0.002220 0.999996
vn 0.012733 -0.008906 0.999879
vn -0.004436 -0.028834 0.999574
vn 0.026581 -0.014358 0.999544
vn -0.001357 -0.006717 0.999977
vn 0.010689 0.004383 0.999933
vn 0.007279 -0.011862 0.999903
vn -0.043145 -0.010176 0.999017
vn -0.002846 -0.014555 0.999890
vn 0.000461 -0.029640 0.999561
vn 0.009826 0.001725 0.999950
vn 0.034260 -0.000696 0.999413
vn -0.033705 0.003521 0.999426
vn -0.009712 0.002070 0.999951
vn -0.004182 0.002933 0.999987
vn 0.004117 0.001343 0.999991
vn -0.002067 0.001401 0.999997
vn 0.002018 0.002262 0.999995
vn 0.030974 0.004353 0.999511
vn -0.031296 -0.002052 0.999508
vn 0.007455 -0.004943 0.999960
vn 0.028225 0.007917 0.999570
vn -0.007384 0.008791 0.999934
vn 0.009775 -0.003385 0.999947
vn -0.024906 -0.003740 0.999683
vn -0.008510 0.007163 0.999938
vn 0.012395 -0.003574 0.999917
vn -0.012181 0.005242 0.999912
vn 0.019320 0.001247 0.999813
vn -0.018950 0.002355 0.999818
vn 0.009256 0.001820 0.999956
vn -0.009386 0.002140 0.999954
vn -0.030255 0.000029 0.999542
vn 0.029708 0.003085 0.999554
vn 0.707095 0.707118 0.000000
vn -0.000003 1.000000 0.000000
vn -0.000003 1.000000 0.000000
vn 0.707095 0.707118 0.000000
vn 1.000000 -0.000006 0.000000
vn 1.000000 -0.000006 0.000000
vn 0.707083 -0.707131 0.000000
vn 0.707083 -0.707131 0.000000
vn 0.000000 -1.000000 0.000000
vn 0.000000 -1.000000 0.000000
vn -0.707102 -0.707112 0.000000
vn -0.707102 -0.707112 0.000000
vn -1.000000 -0.000006 0.000000
vn -1.000000 -0.000006 0.000000
vn -0.707116 0.707097 0.000000
vn -0.707116 0.707097 0.000000
vn 0.000003 -0.000001 -1.000000
vn 0.000003 -0.000001 -1.000000
vn 0.000003 -0.000001 -1.000000
vn 0.000001 0.000002 -1.000000
vn 0.000001 0.000002 -1.000000
vn 0.000001 0.000002 -1.000000
vn -0.000001 0.000001 -1.000000
vn -0.000001 0.000001 -1.000000
vn -0.000001 0.000001 -1.000000
vn -0.000002 -0.000002 -1.000000
vn -0.000002 -0.000002 -1.000000
vn -0.000002 -0.000002 -1.000000
vn 0.000006 -0.000002 -1.000000
vn 0.000006 -0.000002 -1.000000
vn 0.000006 -0.000002 -1.000000
vn 0.000001 0.000002 -1.000000
vn 0.000001 0.000002 -1.000000
vn 0.000001 0.000002 -1.000000
vn 0.000001 0.000004 -1.000000
vn 0.000001 0.000004 -1.000000
vn 0.000001 0.000004 -1.000000
vn -0.000003 -0.000001 -1.000000
vn -0.000003 -0.000001 -1.000000
vn -0.000003 -0.000001 -1.000000
vn -0.006955 0.022646 -0.999719
vn 0.041628 0.012852 -0.999050
vn 0.012928 0.015481 -0.999797
vn -0.002181 0.033379 -0.999440
vn 0.002862 0.004335 -0.999987
vn -0.017055 0.008365 -0.999820
vn 0.023536 0.008337 -0.999688
vn 0.005772 0.002027 -0.999981
vn -0.000995 0.037433 -0.999299
vn 0.005745 0.016463 -0.999848
vn -0.013545 0.014964 -0.999796
vn 0.002283 0.031256 -0.999509
vn -0.047133 0.011941 -0.998817
vn 0.007944 0.018935 -0.999789
vn -0.012733 0.008906 -0.999879
vn 0.001482 0.002220 -0.999996
vn 0.004436 0.028834 -0.999574
vn -0.026581 0.014358 -0.999544
vn 0.001357 0.006717 -0.999977
vn -0.010689 -0.004383 -0.999933
vn 0.043145 0.010176 -0.999017
vn -0.007279 0.011862 -0.999903
vn 0.002846 0.014555 -0.999890
vn -0.000461 0.029640 -0.999561
vn -0.009826 -0.001725 -0.999950
vn 0.009712 -0.002070 -0.999951
vn 0.033705 -0.003521 -0.999426
vn -0.034260 0.000696 -0.999413
vn 0.004182 -0.002933 -0.999987
vn -0.004117 -0.001343 -0.999991
vn 0.002067 -0.001401 -0.999997
vn -0.002018 -0.002262 -0.999995
vn 0.031296 0.002053 -0.999508
vn -0.030974 -0.004353 -0.999511
vn -0.007455 0.004943 -0.999960
vn -0.028225 -0.007917 -0.999570
vn -0.009775 0.003385 -0.999947
vn 0.007384 -0.008791 -0.999934
vn 0.024906 0.003740 -0.999683
vn 0.008510 -0.007163 -0.999938
vn -0.012395 0.003574 -0.999917
vn 0.012180 -0.005242 -0.999912
vn -0.019320 -0.001247 -0.999813
vn 0.018950 -0.002355 -0.999818
vn 0.009386 -0.002140 -0.999954
vn -0.009256 -0.001820 -0.999956
vn 0.030255 -0.000029 -0.999542
vn -0.029708 -0.003085 -0.999554
s 1
g polySurface26666
f 9/1/1 10/2/2 48/3/3 49/4/4
f 10/2/2 11/5/5 47/6/6 48/3/3
f 11/5/5 12/7/7 46/8/8 47/6/6
f 12/7/7 13/9/9 45/10/10 46/8/8
f 13/9/9 14/11/11 44/12/12 45/10/10
f 14/13/11 15/14/13 43/15/14 44/16/12
f 15/14/13 16/17/15 50/18/16 43/15/14
f 16/17/15 9/1/1 49/4/4 50/18/16
f 10/19/2 9/20/1 25/21/17
f 11/22/5 10/19/2 25/21/17
f 12/23/7 11/22/5 25/21/17
f 13/24/9 12/23/7 25/21/17
f 14/25/11 13/24/9 25/21/17
f 15/26/13 14/25/11 25/21/17
f 16/27/15 15/26/13 25/21/17
f 9/20/1 16/27/15 25/21/17
f 17/28/18 18/29/19 26/30/20
f 18/29/19 19/31/21 26/30/20
f 19/31/21 20/32/22 26/30/20
f 20/32/22 21/33/23 26/30/20
f 21/33/23 22/34/24 26/30/20
f 22/34/24 23/35/25 26/30/20
f 23/35/25 24/36/26 26/30/20
f 24/36/26 17/28/18 26/30/20
f 28/37/27 27/38/28 36/39/29 37/40/30
f 29/41/31 28/37/27 37/40/30 38/42/32
f 30/43/33 29/41/31 38/42/32 39/44/34
f 31/45/35 30/43/33 39/44/34 40/46/36
f 32/47/37 31/45/35 40/46/36 41/48/38
f 33/49/39 32/47/37 41/48/38 42/50/40
f 34/51/41 33/49/39 42/50/40 35/52/42
f 27/53/28 34/51/41 35/52/42 36/54/29
f 36/54/29 35/52/42 23/55/25 22/56/24
f 37/40/30 36/39/29 22/57/24 21/58/23
f 38/42/32 37/40/30 21/58/23 20/59/22
f 39/44/34 38/42/32 20/59/22 19/60/21
f 40/46/36 39/44/34 19/60/21 18/61/19
f 41/48/38 40/46/36 18/61/19 17/62/18
f 42/50/40 41/48/38 17/62/18 24/63/26
f 35/52/42 42/50/40 24/63/26 23/55/25
f 44/16/12 43/15/14 58/64/43 51/65/44
f 45/10/10 44/12/12 51/66/44 52/67/45
f 46/8/8 45/10/10 52/67/45 53/68/46
f 47/6/6 46/8/8 53/68/46 54/69/47
f 48/3/3 47/6/6 54/69/47 55/70/48
f 49/4/4 48/3/3 55/70/48 56/71/49
f 50/18/16 49/4/4 56/71/49 57/72/50
f 43/15/14 50/18/16 57/72/50 58/64/43
f 52/67/45 51/66/44 27/38/28 28/37/27
f 53/68/46 52/67/45 28/37/27 29/41/31
f 54/69/47 53/68/46 29/41/31 30/43/33
f 55/70/48 54/69/47 30/43/33 31/45/35
f 56/71/49 55/70/48 31/45/35 32/47/37
f 57/72/50 56/71/49 32/47/37 33/49/39
f 58/64/43 57/72/50 33/49/39 34/51/41
f 51/65/44 58/64/43 34/51/41 27/53/28
s 2
f 60/73/51 59/74/52 82/75/53 75/76/54
f 61/77/55 60/73/51 75/76/54 76/78/56
f 62/79/57 61/77/55 76/78/56 77/80/58
f 63/81/59 62/79/57 77/80/58 78/82/60
f 64/83/61 63/81/59 78/82/60 79/84/62
f 65/85/63 64/83/61 79/84/62 80/86/64
f 66/87/65 65/88/63 80/89/64 81/90/66
f 59/74/52 66/87/65 81/90/66 82/75/53
s 3
f 68/91/67 67/92/68 7/93/69 6/94/70
f 69/95/71 68/91/67 6/94/70 5/96/72
f 70/97/73 69/95/71 5/96/72 4/98/74
f 71/99/75 70/97/73 4/98/74 3/100/76
f 72/101/77 71/99/75 3/100/76 2/102/78
f 73/103/79 72/101/77 2/102/78 1/104/80
f 74/105/81 73/106/79 1/107/80 8/108/82
f 67/92/68 74/105/81 8/108/82 7/93/69
s 4
f 134/109/83 133/110/84 135/111/85 136/112/86
f 137/113/87 134/109/83 136/112/86 138/114/88
f 139/115/89 137/113/87 138/114/88 140/116/90
f 141/117/91 139/115/89 140/116/90 142/118/92
f 143/119/93 141/117/91 142/118/92 144/120/94
f 145/121/95 143/122/93 144/123/94 146/124/96
f 147/125/97 145/121/95 146/124/96 148/126/98
f 133/110/84 147/125/97 148/126/98 135/111/85
s 5
f 83/127/99 84/128/100 122/129/101 123/130/102
f 84/128/100 85/131/103 121/132/104 122/129/101
f 85/131/103 86/133/105 120/134/106 121/132/104
f 86/133/105 87/135/107 119/136/108 120/134/106
f 87/135/107 88/137/109 118/138/110 119/136/108
f 88/139/109 89/140/111 117/141/112 118/142/110
f 89/140/111 90/143/113 124/144/114 117/141/112
f 90/143/113 83/127/99 123/130/102 124/144/114
f 84/145/100 83/146/99 99/147/115
f 85/148/103 84/145/100 99/147/115
f 86/149/105 85/148/103 99/147/115
f 87/150/107 86/149/105 99/147/115
f 88/151/109 87/150/107 99/147/115
f 89/152/111 88/151/109 99/147/115
f 90/153/113 89/152/111 99/147/115
f 83/146/99 90/153/113 99/147/115
f 91/154/116 92/155/117 100/156/118
f 92/155/117 93/157/119 100/156/118
f 93/157/119 94/158/120 100/156/118
f 94/158/120 95/159/121 100/156/118
f 95/159/121 96/160/122 100/156/118
f 96/160/122 97/161/123 100/156/118
f 97/161/123 98/162/124 100/156/118
f 98/162/124 91/154/116 100/156/118
f 102/163/125 101/164/126 110/165/127 111/166/128
f 103/167/129 102/163/125 111/166/128 112/168/130
f 104/169/131 103/167/129 112/168/130 113/170/132
f 105/171/133 104/169/131 113/170/132 114/172/134
f 106/173/135 105/171/133 114/172/134 115/174/136
f 107/175/137 106/173/135 115/174/136 116/176/138
f 108/177/139 107/175/137 116/176/138 109/178/140
f 101/179/126 108/177/139 109/178/140 110/180/127
f 110/180/127 109/178/140 97/181/123 96/182/122
f 111/166/128 110/165/127 96/183/122 95/184/121
f 112/168/130 111/166/128 95/184/121 94/185/120
f 113/170/132 112/168/130 94/185/120 93/186/119
f 114/172/134 113/170/132 93/186/119 92/187/117
f 115/174/136 114/172/134 92/187/117 91/188/116
f 116/176/138 115/174/136 91/188/116 98/189/124
f 109/178/140 116/176/138 98/189/124 97/181/123
f 118/142/110 117/141/112 132/190/141 125/191/142
f 119/136/108 118/138/110 125/192/142 126/193/143
f 120/134/106 119/136/108 126/193/143 127/194/144
f 121/132/104 120/134/106 127/194/144 128/195/145
f 122/129/101 121/132/104 128/195/145 129/196/146
f 123/130/102 122/129/101 129/196/146 130/197/147
f 124/144/114 123/130/102 130/197/147 131/198/148
f 117/141/112 124/144/114 131/198/148 132/190/141
f 126/193/143 125/192/142 101/164/126 102/163/125
f 127/194/144 126/193/143 102/163/125 103/167/129
f 128/195/145 127/194/144 103/167/129 104/169/131
f 129/196/146 128/195/145 104/169/131 105/171/133
f 130/197/147 129/196/146 105/171/133 106/173/135
f 131/198/148 130/197/147 106/173/135 107/175/137
f 132/190/141 131/198/148 107/175/137 108/177/139
f 125/191/142 132/190/141 108/177/139 101/179/126
s 6
f 76/199/149 75/200/150 133/110/151 134/109/152
s 7
f 68/201/153 69/202/154 136/112/155 135/111/156
s 6
f 77/203/157 76/199/149 134/109/152 137/113/158
s 7
f 69/202/154 70/204/159 138/114/160 136/112/155
s 6
f 78/205/161 77/203/157 137/113/158 139/115/162
s 7
f 70/204/159 71/206/163 140/116/164 138/114/160
s 6
f 79/207/165 78/205/161 139/115/162 141/117/166
s 7
f 71/206/163 72/208/167 142/118/168 140/116/164
s 6
f 80/209/169 79/207/165 141/117/166 143/119/170
s 7
f 72/208/167 73/210/171 144/120/172 142/118/168
s 6
f 81/211/173 80/212/169 143/122/170 145/121/174
s 7
f 73/213/171 74/214/175 146/124/176 144/123/172
s 6
f 82/215/177 81/211/173 145/121/174 147/125/178
s 7
f 74/214/175 67/216/179 148/126/180 146/124/176
s 6
f 75/200/150 82/215/177 147/125/178 133/110/151
s 7
f 67/216/179 68/201/153 135/111/156 148/126/180
s 8
f 157/226/181 158/227/182 196/228/183 197/229/184
f 158/227/182 159/230/185 195/231/186 196/228/183
f 159/230/185 160/232/187 194/233/188 195/231/186
f 160/232/187 161/234/189 193/235/190 194/233/188
f 161/234/189 162/236/191 192/237/192 193/235/190
f 162/238/191 163/239/193 191/240/194 192/241/192
f 163/239/193 164/242/195 198/243/196 191/240/194
f 164/242/195 157/226/181 197/229/184 198/243/196
f 158/244/182 157/245/181 173/246/197
f 159/247/185 158/244/182 173/246/197
f 160/248/187 159/247/185 173/246/197
f 161/249/189 160/248/187 173/246/197
f 162/250/191 161/249/189 173/246/197
f 163/251/193 162/250/191 173/246/197
f 164/252/195 163/251/193 173/246/197
f 157/245/181 164/252/195 173/246/197
f 165/253/198 166/254/199 174/255/200
f 166/254/199 167/256/201 174/255/200
f 167/256/201 168/257/202 174/255/200
f 168/257/202 169/258/203 174/255/200
f 169/258/203 170/259/204 174/255/200
f 170/259/204 171/260/205 174/255/200
f 171/260/205 172/261/206 174/255/200
f 172/261/206 165/253/198 174/255/200
f 176/262/207 175/263/208 184/264/209 185/265/210
f 177/266/211 176/262/207 185/265/210 186/267/212
f 178/268/213 177/266/211 186/267/212 187/269/214
f 179/270/215 178/268/213 187/269/214 188/271/216
f 180/272/217 179/270/215 188/271/216 189/273/218
f 181/274/219 180/272/217 189/273/218 190/275/220
f 182/276/221 181/274/219 190/275/220 183/277/222
f 175/278/208 182/276/221 183/277/222 184/279/209
f 184/279/209 183/277/222 171/280/205 170/281/204
f 185/265/210 184/264/209 170/282/204 169/283/203
f 186/267/212 185/265/210 169/283/203 168/284/202
f 187/269/214 186/267/212 168/284/202 167/285/201
f 188/271/216 187/269/214 167/285/201 166/286/199
f 189/273/218 188/271/216 166/286/199 165/287/198
f 190/275/220 189/273/218 165/287/198 172/288/206
f 183/277/222 190/275/220 172/288/206 171/280/205
f 192/241/192 191/240/194 206/289/223 199/290/224
f 193/235/190 192/237/192 199/291/224 200/292/225
f 194/233/188 193/235/190 200/292/225 201/293/226
f 195/231/186 194/233/188 201/293/226 202/294/227
f 196/228/183 195/231/186 202/294/227 203/295/228
f 197/229/184 196/228/183 203/295/228 204/296/229
f 198/243/196 197/229/184 204/296/229 205/297/230
f 191/240/194 198/243/196 205/297/230 206/289/223
f 200/292/225 199/291/224 175/263/208 176/262/207
f 201/293/226 200/292/225 176/262/207 177/266/211
f 202/294/227 201/293/226 177/266/211 178/268/213
f 203/295/228 202/294/227 178/268/213 179/270/215
f 204/296/229 203/295/228 179/270/215 180/272/217
f 205/297/230 204/296/229 180/272/217 181/274/219
f 206/289/223 205/297/230 181/274/219 182/276/221
f 199/290/224 206/289/223 182/276/221 175/278/208
s 9
f 208/298/231 207/299/232 231/300/233 232/301/234
f 209/302/235 208/298/231 232/301/234 233/303/236
f 210/304/237 209/302/235 233/303/236 234/305/238
f 211/306/239 210/304/237 234/305/238 235/307/240
f 212/308/241 211/306/239 235/307/240 236/309/242
f 213/310/243 212/311/241 236/312/242 237/313/244
f 214/314/245 213/310/243 237/313/244 238/315/246
f 207/299/232 214/314/245 238/315/246 231/300/233
s 10
f 216/316/247 215/317/248 239/318/249 240/319/250
f 217/320/251 216/316/247 240/319/250 241/321/252
f 218/322/253 217/320/251 241/321/252 242/323/254
f 219/324/255 218/322/253 242/323/254 243/325/256
f 220/326/257 219/324/255 243/325/256 244/327/258
f 221/328/259 220/329/257 244/330/258 245/331/260
f 222/332/261 221/328/259 245/331/260 246/333/262
f 215/317/248 222/332/261 246/333/262 239/318/249
s 9
f 232/301/234 231/300/233 223/334/263 224/335/264
f 233/303/236 232/301/234 224/335/264 225/336/265
f 234/305/238 233/303/236 225/336/265 226/337/266
f 235/307/240 234/305/238 226/337/266 227/338/267
f 236/309/242 235/307/240 227/338/267 228/339/268
f 237/313/244 236/312/242 228/340/268 229/341/269
f 238/315/246 237/313/244 229/341/269 230/342/270
f 231/300/233 238/315/246 230/342/270 223/334/263
s 10
f 240/319/250 239/318/249 207/299/271 208/298/272
f 241/321/252 240/319/250 208/298/272 209/302/273
f 242/323/254 241/321/252 209/302/273 210/304/274
f 243/325/256 242/323/254 210/304/274 211/306/275
f 244/327/258 243/325/256 211/306/275 212/308/276
f 245/331/260 244/330/258 212/311/276 213/310/277
f 246/333/262 245/331/260 213/310/277 214/314/278
f 239/318/249 246/333/262 214/314/278 207/299/271
s 11
f 248/343/279 247/344/280 221/328/281 222/332/282
f 249/345/283 248/343/279 222/332/282 215/317/284
f 250/346/285 249/345/283 215/317/284 216/316/286
f 251/347/287 250/346/285 216/316/286 217/320/288
f 252/348/289 251/347/287 217/320/288 218/322/290
f 253/349/291 252/348/289 218/322/290 219/324/292
f 254/350/293 253/349/291 219/324/292 220/326/294
f 247/344/280 254/351/293 220/329/294 221/328/281
f 249/345/283 256/352/295 255/353/296 248/343/279
f 250/346/285 257/354/297 256/352/295 249/345/283
f 251/347/287 258/355/298 257/354/297 250/346/285
f 252/348/289 259/356/299 258/355/298 251/347/287
f 253/349/291 260/357/300 259/356/299 252/348/289
f 254/350/293 261/358/301 260/357/300 253/349/291
f 247/344/280 262/359/302 261/360/301 254/351/293
f 248/343/279 255/353/296 262/359/302 247/344/280
s 12
f 264/361/303 263/362/304 287/363/305 288/364/306
f 265/365/307 264/361/303 288/364/306 289/366/308
f 266/367/309 265/365/307 289/366/308 290/368/310
f 267/369/311 266/367/309 290/368/310 291/370/312
f 268/371/313 267/369/311 291/370/312 292/372/314
f 269/373/315 268/374/313 292/375/314 293/376/316
f 270/377/317 269/373/315 293/376/316 294/378/318
f 263/362/304 270/377/317 294/378/318 287/363/305
s 13
f 272/379/319 271/380/320 295/381/321 296/382/322
f 273/383/323 272/379/319 296/382/322 297/384/324
f 274/385/325 273/383/323 297/384/324 298/386/326
f 275/387/327 274/385/325 298/386/326 299/388/328
f 276/389/329 275/387/327 299/388/328 300/390/330
f 277/391/331 276/392/329 300/393/330 301/394/332
f 278/395/333 277/391/331 301/394/332 302/396/334
f 271/380/320 278/395/333 302/396/334 295/381/321
s 12
f 288/364/306 287/363/305 279/397/335 280/398/336
f 289/366/308 288/364/306 280/398/336 281/399/337
f 290/368/310 289/366/308 281/399/337 282/400/338
f 291/370/312 290/368/310 282/400/338 283/401/339
f 292/372/314 291/370/312 283/401/339 284/402/340
f 293/376/316 292/375/314 284/403/340 285/404/341
f 294/378/318 293/376/316 285/404/341 286/405/342
f 287/363/305 294/378/318 286/405/342 279/397/335
s 13
f 296/382/322 295/381/321 263/362/343 264/361/344
f 297/384/324 296/382/322 264/361/344 265/365/345
f 298/386/326 297/384/324 265/365/345 266/367/346
f 299/388/328 298/386/326 266/367/346 267/369/347
f 300/390/330 299/388/328 267/369/347 268/371/348
f 301/394/332 300/393/330 268/374/348 269/373/349
f 302/396/334 301/394/332 269/373/349 270/377/350
f 295/381/321 302/396/334 270/377/350 263/362/343
s 14
f 304/406/351 303/407/352 277/391/353 278/395/354
f 305/408/355 304/406/351 278/395/354 271/380/356
f 306/409/357 305/408/355 271/380/356 272/379/358
f 307/410/359 306/409/357 272/379/358 273/383/360
f 308/411/361 307/410/359 273/383/360 274/385/362
f 309/412/363 308/411/361 274/385/362 275/387/364
f 310/413/365 309/412/363 275/387/364 276/389/366
f 303/407/352 310/414/365 276/392/366 277/391/353
f 305/408/355 312/415/367 311/416/368 304/406/351
f 306/409/357 313/417/369 312/415/367 305/408/355
f 307/410/359 314/418/370 313/417/369 306/409/357
f 308/411/361 315/419/371 314/418/370 307/410/359
f 309/412/363 316/420/372 315/419/371 308/411/361
f 310/413/365 317/421/373 316/420/372 309/412/363
f 303/407/352 318/422/374 317/423/373 310/414/365
f 304/406/351 311/416/368 318/422/374 303/407/352
s 15
f 320/424/375 319/425/376 343/426/377 344/427/378
f 321/428/379 320/424/375 344/427/378 345/429/380
f 322/430/381 321/428/379 345/429/380 346/431/382
f 323/432/383 322/430/381 346/431/382 347/433/384
f 324/434/385 323/432/383 347/433/384 348/435/386
f 325/436/387 324/437/385 348/438/386 349/439/388
f 326/440/389 325/436/387 349/439/388 350/441/390
f 319/425/376 326/440/389 350/441/390 343/426/377
s 16
f 328/442/391 327/443/392 351/444/393 352/445/394
f 329/446/395 328/442/391 352/445/394 353/447/396
f 330/448/397 329/446/395 353/447/396 354/449/398
f 331/450/399 330/448/397 354/449/398 355/451/400
f 332/452/401 331/450/399 355/451/400 356/453/402
f 333/454/403 332/455/401 356/456/402 357/457/404
f 334/458/405 333/454/403 357/457/404 358/459/406
f 327/443/392 334/458/405 358/459/406 351/444/393
s 15
f 344/427/378 343/426/377 335/460/407 336/461/408
f 345/429/380 344/427/378 336/461/408 337/462/409
f 346/431/382 345/429/380 337/462/409 338/463/410
f 347/433/384 346/431/382 338/463/410 339/464/411
f 348/435/386 347/433/384 339/464/411 340/465/412
f 349/439/388 348/438/386 340/466/412 341/467/413
f 350/441/390 349/439/388 341/467/413 342/468/414
f 343/426/377 350/441/390 342/468/414 335/460/407
s 16
f 352/445/394 351/444/393 319/425/415 320/424/416
f 353/447/396 352/445/394 320/424/416 321/428/417
f 354/449/398 353/447/396 321/428/417 322/430/418
f 355/451/400 354/449/398 322/430/418 323/432/419
f 356/453/402 355/451/400 323/432/419 324/434/420
f 357/457/404 356/456/402 324/437/420 325/436/421
f 358/459/406 357/457/404 325/436/421 326/440/422
f 351/444/393 358/459/406 326/440/422 319/425/415
s 17
f 360/469/423 359/470/424 333/454/425 334/458/426
f 361/471/427 360/469/423 334/458/426 327/443/428
f 362/472/429 361/471/427 327/443/428 328/442/430
f 363/473/431 362/472/429 328/442/430 329/446/432
f 364/474/433 363/473/431 329/446/432 330/448/434
f 365/475/435 364/474/433 330/448/434 331/450/436
f 366/476/437 365/475/435 331/450/436 332/452/438
f 359/470/424 366/477/437 332/455/438 333/454/425
f 361/471/427 368/478/439 367/479/440 360/469/423
f 362/472/429 369/480/441 368/478/439 361/471/427
f 363/473/431 370/481/442 369/480/441 362/472/429
f 364/474/433 371/482/443 370/481/442 363/473/431
f 365/475/435 372/483/444 371/482/443 364/474/433
f 366/476/437 373/484/445 372/483/444 365/475/435
f 359/470/424 374/485/446 373/486/445 366/477/437
f 360/469/423 367/479/440 374/485/446 359/470/424
s 18
f 375/487/447 405/488/448 437/489/449 438/490/450
s 19
f 387/491/451 388/492/452 385/493/453 384/494/454
s 20
f 382/495/455 393/496/456 394/497/457 383/498/458
s 19
f 389/499/459 386/500/460 379/501/461 390/502/462
f 390/502/462 384/503/454 385/504/453 389/499/459
s 20
f 391/505/463 380/506/464 381/507/465 392/508/466
f 392/508/466 382/509/455 383/510/458 391/505/463
s 19
f 386/500/460 388/492/452 387/491/451 379/501/461
s 20
f 394/497/457 393/496/456 381/507/465 380/506/464
s 18
f 395/511/467 401/512/468 434/513/469 435/514/470
f 397/515/471 399/516/472 428/517/473 429/518/474
f 399/516/472 376/519/475 427/520/476 428/517/473
f 401/512/468 407/521/477 433/522/478 434/513/469
f 403/523/479 395/511/467 435/514/470 436/524/480
f 436/524/480 437/489/449 405/488/448 403/523/479
f 432/525/481 433/522/478 407/521/477 409/526/482
f 409/526/482 411/527/483 431/528/484 432/525/481
f 430/529/485 431/528/484 411/527/483 413/530/486
f 413/530/486 397/515/471 429/518/474 430/529/485
f 416/531/487 415/532/488 378/533/489 400/534/490
f 417/535/491 416/531/487 400/534/490 398/536/492
f 418/537/493 417/535/491 398/536/492 414/538/494
f 414/538/494 412/539/495 419/540/496 418/537/493
f 420/541/497 419/540/496 412/539/495 410/542/498
f 410/542/498 408/543/499 421/544/500 420/541/497
f 422/545/501 421/544/500 408/543/499 402/546/502
f 423/547/503 422/545/501 402/546/502 396/548/504
f 424/549/505 423/547/503 396/548/504 404/550/506
f 404/550/506 406/551/507 425/552/508 424/549/505
f 426/553/509 425/552/508 406/551/507 377/554/510
f 428/517/473 427/520/476 415/532/488 416/531/487
f 429/518/474 428/517/473 416/531/487 417/535/491
f 430/529/485 429/518/474 417/535/491 418/537/493
f 418/537/493 419/540/496 431/528/484 430/529/485
f 432/525/481 431/528/484 419/540/496 420/541/497
f 420/541/497 421/544/500 433/522/478 432/525/481
f 434/513/469 433/522/478 421/544/500 422/545/501
f 435/514/470 434/513/469 422/545/501 423/547/503
f 436/524/480 435/514/470 423/547/503 424/549/505
f 424/549/505 425/552/508 437/489/449 436/524/480
f 438/490/450 437/489/449 425/552/508 426/553/509
s 21
f 440/557/511 439/555/512 150/217/513 149/218/514
f 441/558/515 440/556/511 149/225/514 156/224/516
f 442/559/517 441/558/515 156/224/516 155/223/518
f 443/560/519 442/559/517 155/223/518 154/222/520
f 444/561/521 443/560/519 154/222/520 153/221/522
f 445/562/523 444/561/521 153/221/522 152/220/524
f 446/563/525 445/562/523 152/220/524 151/219/526
f 439/555/512 446/563/525 151/219/526 150/217/513
s off
f 439/564/527 440/565/528 447/566/529
f 440/565/530 441/567/531 447/566/532
f 441/567/533 442/568/534 447/566/535
f 442/568/536 443/569/537 447/566/538
f 443/569/539 444/570/540 447/566/541
f 444/570/542 445/571/543 447/566/544
f 445/571/545 446/572/546 447/566/547
f 446/572/548 439/564/549 447/566/550
s 30
f 448/573/551 495/574/552 494/575/553 462/576/554
f 452/577/555 492/578/556 491/579/557 458/580/558
f 454/581/559 486/582/560 485/583/561 456/584/562
f 456/584/562 485/583/561 484/585/563 449/586/564
f 458/580/558 491/579/557 490/587/565 464/588/566
f 460/589/567 493/590/568 492/578/556 452/577/555
f 493/590/568 460/589/567 462/576/554 494/575/553
f 489/591/569 466/592/570 464/588/566 490/587/565
f 466/592/570 489/591/569 488/593/571 468/594/572
f 487/595/573 470/596/574 468/594/572 488/593/571
f 470/596/574 487/595/573 486/582/560 454/581/559
f 473/597/575 457/598/576 451/599/577 472/600/578
f 474/601/579 455/602/580 457/598/576 473/597/575
f 475/603/581 471/604/582 455/602/580 474/601/579
f 471/604/582 475/603/581 476/605/583 469/606/584
f 477/607/585 467/608/586 469/606/584 476/605/583
f 467/608/586 477/607/585 478/609/587 465/610/588
f 479/611/589 459/612/590 465/610/588 478/609/587
f 480/613/591 453/614/592 459/612/590 479/611/589
f 481/615/593 461/616/594 453/614/592 480/613/591
f 461/616/594 481/615/593 482/617/595 463/618/596
f 483/619/597 450/620/598 463/618/596 482/617/595
f 485/583/561 473/597/575 472/600/578 484/585/563
f 486/582/560 474/601/579 473/597/575 485/583/561
f 487/595/573 475/603/581 474/601/579 486/582/560
f 475/603/581 487/595/573 488/593/571 476/605/583
f 489/591/569 477/607/585 476/605/583 488/593/571
f 477/607/585 489/591/569 490/587/565 478/609/587
f 491/579/557 479/611/589 478/609/587 490/587/565
f 492/578/556 480/613/591 479/611/589 491/579/557
f 493/590/568 481/615/593 480/613/591 492/578/556
f 481/615/593 493/590/568 494/575/553 482/617/595
f 495/574/552 483/619/597 482/617/595 494/575/553
