# This file uses centimeters as units for non-parametric coordinates.

g default
v -17.624059 1.947075 0.007814
v -17.624059 1.932499 0.001776
v -17.624059 1.917923 0.007814
v -17.624059 1.911885 0.022390
v -17.624059 1.917923 0.036966
v -17.624059 1.932499 0.043003
v -17.624059 1.947075 0.036966
v -17.624059 1.953113 0.022390
v -17.593862 1.947818 0.007071
v -17.593862 1.932499 0.000725
v -17.593862 1.917180 0.007071
v -17.593862 1.910835 0.022389
v -17.593862 1.917180 0.037709
v -17.593862 1.932499 0.044054
v -17.593862 1.947818 0.037709
v -17.593862 1.954162 0.022389
v -17.653745 1.950231 0.004657
v -17.653745 1.932499 -0.002689
v -17.653745 1.914766 0.004657
v -17.653745 1.907420 0.022389
v -17.653745 1.914766 0.040123
v -17.653745 1.932499 0.047468
v -17.653745 1.950231 0.040123
v -17.653745 1.957577 0.022389
v -17.597784 1.932499 0.022389
v -17.653746 1.932499 0.022389
v -17.637281 1.932499 0.048284
v -17.637281 1.914188 0.040699
v -17.637281 1.906605 0.022389
v -17.637281 1.914188 0.004080
v -17.637281 1.932499 -0.003504
v -17.637281 1.950809 0.004080
v -17.637281 1.958393 0.022389
v -17.637281 1.950809 0.040699
v -17.645765 1.954532 0.044423
v -17.645765 1.932499 0.053549
v -17.645765 1.910467 0.044423
v -17.645765 1.901340 0.022389
v -17.645765 1.910467 0.000357
v -17.645765 1.932499 -0.008769
v -17.645765 1.954532 0.000357
v -17.645765 1.963658 0.022389
v -17.600083 1.951533 0.041423
v -17.600083 1.932499 0.049307
v -17.600083 1.913465 0.041423
v -17.600083 1.905581 0.022389
v -17.600083 1.913465 0.003356
v -17.600083 1.932499 -0.004528
v -17.600083 1.951533 0.003356
v -17.600083 1.959415 0.022389
v -17.607924 1.932499 0.045730
v -17.607924 1.915994 0.038894
v -17.607924 1.909158 0.022389
v -17.607924 1.915994 0.005885
v -17.607924 1.932499 -0.000951
v -17.607924 1.949003 0.005885
v -17.607924 1.955840 0.022389
v -17.607924 1.949003 0.038894
v -16.866633 1.947075 0.036966
v -16.866633 1.932499 0.043003
v -16.866633 1.917923 0.036966
v -16.866633 1.911885 0.022390
v -16.866633 1.917923 0.007814
v -16.866633 1.932499 0.001776
v -16.866633 1.947075 0.007814
v -16.866633 1.953113 0.022390
v -17.516159 1.947075 0.036966
v -17.516159 1.932499 0.043003
v -17.516159 1.917923 0.036966
v -17.516159 1.911885 0.022390
v -17.516159 1.917923 0.007814
v -17.516159 1.932499 0.001776
v -17.516159 1.947075 0.007814
v -17.516159 1.953113 0.022390
v -16.961740 1.932499 0.043003
v -16.961740 1.917923 0.036966
v -16.961740 1.911885 0.022391
v -16.961740 1.917923 0.007814
v -16.961740 1.932499 0.001776
v -16.961740 1.947075 0.007814
v -16.961740 1.953113 0.022391
v -16.961740 1.947075 0.036966
v -16.884720 1.917179 0.007071
v -16.884720 1.932498 0.000725
v -16.884720 1.947817 0.007071
v -16.884720 1.954162 0.022389
v -16.884720 1.947817 0.037709
v -16.884720 1.932498 0.044054
v -16.884720 1.917179 0.037709
v -16.884720 1.910835 0.022389
v -16.824837 1.914766 0.004657
v -16.824837 1.932498 -0.002689
v -16.824837 1.950231 0.004657
v -16.824837 1.957577 0.022389
v -16.824837 1.950231 0.040123
v -16.824837 1.932498 0.047468
v -16.824837 1.914766 0.040123
v -16.824837 1.907420 0.022389
v -16.880798 1.932498 0.022389
v -16.824836 1.932498 0.022389
v -16.841301 1.932498 0.048284
v -16.841301 1.950809 0.040699
v -16.841301 1.958392 0.022389
v -16.841301 1.950809 0.004080
v -16.841301 1.932498 -0.003504
v -16.841301 1.914188 0.004080
v -16.841301 1.906604 0.022389
v -16.841301 1.914188 0.040699
v -16.832817 1.910466 0.044423
v -16.832817 1.932498 0.053549
v -16.832817 1.954531 0.044423
v -16.832817 1.963658 0.022389
v -16.832817 1.954531 0.000357
v -16.832817 1.932498 -0.008769
v -16.832817 1.910466 0.000357
v -16.832817 1.901340 0.022389
v -16.878499 1.913464 0.041423
v -16.878499 1.932498 0.049307
v -16.878499 1.951532 0.041423
v -16.878499 1.959416 0.022389
v -16.878499 1.951532 0.003356
v -16.878499 1.932498 -0.004528
v -16.878499 1.913464 0.003356
v -16.878499 1.905582 0.022389
v -16.870658 1.932498 0.045730
v -16.870658 1.949003 0.038894
v -16.870658 1.955839 0.022389
v -16.870658 1.949003 0.005885
v -16.870658 1.932498 -0.000951
v -16.870658 1.915994 0.005885
v -16.870658 1.909157 0.022389
v -16.870658 1.915994 0.038894
v -16.963772 1.932499 0.045686
v -16.963772 1.916026 0.038863
v -17.514127 1.932499 0.045686
v -17.514127 1.916026 0.038863
v -16.963772 1.909202 0.022391
v -17.514127 1.909202 0.022390
v -16.963772 1.916026 0.005917
v -17.514127 1.916026 0.005917
v -16.963772 1.932499 -0.000907
v -17.514127 1.932499 -0.000907
v -16.963772 1.948972 0.005917
v -17.514127 1.948972 0.005917
v -16.963772 1.955796 0.022391
v -17.514127 1.955796 0.022390
v -16.963772 1.948972 0.038863
v -17.514127 1.948972 0.038863
v -17.225642 -0.079142 -0.034644
v -17.239291 -0.079142 -0.040298
v -17.252939 -0.079142 -0.034644
v -17.258591 -0.079142 -0.020996
v -17.252939 -0.079142 -0.007348
v -17.239291 -0.079142 -0.001695
v -17.225642 -0.079142 -0.007348
v -17.219990 -0.079142 -0.020996
v -17.223491 -0.025791 -0.036794
v -17.239291 -0.025791 -0.043339
v -17.255090 -0.025791 -0.036794
v -17.261634 -0.025791 -0.020996
v -17.255090 -0.025791 -0.005198
v -17.239291 -0.025791 0.001347
v -17.223491 -0.025791 -0.005198
v -17.216948 -0.025791 -0.020996
v -17.239291 -0.079763 -0.020996
v -17.239291 -0.040754 -0.020996
v -17.239291 -0.040459 0.002074
v -17.255603 -0.040459 -0.004683
v -17.262360 -0.040459 -0.020996
v -17.255603 -0.040459 -0.037308
v -17.239291 -0.040459 -0.044066
v -17.222978 -0.040459 -0.037308
v -17.216223 -0.040459 -0.020996
v -17.222978 -0.040459 -0.004683
v -17.219662 -0.032901 -0.001367
v -17.239291 -0.032901 0.006764
v -17.258920 -0.032901 -0.001367
v -17.267051 -0.032901 -0.020996
v -17.258920 -0.032901 -0.040626
v -17.239291 -0.032901 -0.048757
v -17.219662 -0.032901 -0.040626
v -17.211530 -0.032901 -0.020996
v -17.222334 -0.073600 -0.004038
v -17.239291 -0.073600 0.002985
v -17.256248 -0.073600 -0.004038
v -17.263271 -0.073600 -0.020996
v -17.256248 -0.073600 -0.037953
v -17.239291 -0.073600 -0.044978
v -17.222334 -0.073600 -0.037953
v -17.215310 -0.073600 -0.020996
v -17.239291 -0.066614 -0.000201
v -17.253995 -0.066614 -0.006292
v -17.260086 -0.066614 -0.020996
v -17.253995 -0.066614 -0.035700
v -17.239291 -0.066614 -0.041791
v -17.224587 -0.066614 -0.035700
v -17.218495 -0.066614 -0.020996
v -17.224587 -0.066614 -0.006292
v -17.224063 -0.036710 -0.036224
v -17.239291 -0.036710 -0.042532
v -17.254519 -0.036710 -0.036224
v -17.260827 -0.036710 -0.020996
v -17.254519 -0.036710 -0.005768
v -17.239291 -0.036710 0.000540
v -17.224063 -0.036710 -0.005768
v -17.217754 -0.036710 -0.020996
v -17.224063 2.229681 -0.036224
v -17.239291 2.229681 -0.042532
v -17.254519 2.229681 -0.036224
v -17.260827 2.229681 -0.020996
v -17.254519 2.229681 -0.005768
v -17.239291 2.229681 0.000540
v -17.224063 2.229681 -0.005768
v -17.217754 2.229681 -0.020996
v -17.223286 2.198133 -0.037000
v -17.239291 2.198133 -0.043629
v -17.255295 2.198133 -0.037000
v -17.261925 2.198133 -0.020996
v -17.255295 2.198133 -0.004992
v -17.239291 2.198133 0.001637
v -17.223286 2.198133 -0.004992
v -17.216658 2.198133 -0.020996
v -17.220765 2.260695 -0.039522
v -17.239291 2.260695 -0.047197
v -17.257817 2.260695 -0.039522
v -17.265491 2.260695 -0.020996
v -17.257817 2.260695 -0.002470
v -17.239291 2.260695 0.005204
v -17.220765 2.260695 -0.002470
v -17.213091 2.260695 -0.020996
v -17.239291 2.202230 -0.020996
v -17.239291 2.260695 -0.020996
v -17.239291 2.243495 0.006056
v -17.258421 2.243495 -0.001867
v -17.266343 2.243495 -0.020996
v -17.258421 2.243495 -0.040125
v -17.239291 2.243495 -0.048049
v -17.220162 2.243495 -0.040125
v -17.212238 2.243495 -0.020996
v -17.220162 2.243495 -0.001867
v -17.216272 2.252357 0.002022
v -17.239291 2.252357 0.011557
v -17.262309 2.252357 0.002022
v -17.271844 2.252357 -0.020996
v -17.262309 2.252357 -0.044015
v -17.239291 2.252357 -0.053549
v -17.216272 2.252357 -0.044015
v -17.206738 2.252357 -0.020996
v -17.219405 2.204632 -0.001111
v -17.239291 2.204632 0.007125
v -17.259176 2.204632 -0.001111
v -17.267413 2.204632 -0.020996
v -17.259176 2.204632 -0.040881
v -17.239291 2.204632 -0.049118
v -17.219405 2.204632 -0.040881
v -17.211171 2.204632 -0.020996
v -17.239291 2.212824 0.003388
v -17.256533 2.212824 -0.003753
v -17.263675 2.212824 -0.020996
v -17.256533 2.212824 -0.038239
v -17.239291 2.212824 -0.045381
v -17.222049 2.212824 -0.038239
v -17.214906 2.212824 -0.020996
v -17.222049 2.212824 -0.003753
v -17.239290 2.153634 0.001097
v -17.254913 2.153634 -0.005374
v -17.261384 2.153634 -0.020996
v -17.254913 2.153634 -0.036619
v -17.239290 2.153634 -0.043090
v -17.223668 2.153634 -0.036619
v -17.217197 2.153634 -0.020996
v -17.223668 2.153634 -0.005374
v -17.239290 2.140922 0.001097
v -17.254913 2.140922 -0.005374
v -17.261384 2.140922 -0.020996
v -17.254913 2.140922 -0.036619
v -17.239290 2.140922 -0.043090
v -17.223668 2.140922 -0.036619
v -17.217197 2.140922 -0.020996
v -17.223668 2.140922 -0.005374
v -17.239290 2.165503 0.001097
v -17.254913 2.165503 -0.005374
v -17.261384 2.165503 -0.020996
v -17.254913 2.165503 -0.036619
v -17.239290 2.165503 -0.043090
v -17.223668 2.165503 -0.036619
v -17.217197 2.165503 -0.020996
v -17.223668 2.165503 -0.005374
v -17.239290 2.159760 0.006939
v -17.259043 2.159760 -0.001243
v -17.267226 2.159760 -0.020996
v -17.259043 2.159760 -0.040749
v -17.239290 2.159760 -0.048931
v -17.219537 2.159760 -0.040749
v -17.211355 2.159760 -0.020996
v -17.219537 2.159760 -0.001243
v -17.239290 2.147803 0.006939
v -17.259043 2.147803 -0.001243
v -17.267226 2.147803 -0.020996
v -17.259043 2.147803 -0.040749
v -17.239290 2.147803 -0.048931
v -17.219537 2.147803 -0.040749
v -17.211355 2.147803 -0.020996
v -17.219537 2.147803 -0.001243
v -17.211355 2.134897 -0.020996
v -17.219537 2.134897 -0.001243
v -17.239290 2.134897 0.006939
v -17.259043 2.134897 -0.001243
v -17.267226 2.134897 -0.020996
v -17.259043 2.134897 -0.040749
v -17.239290 2.134897 -0.048931
v -17.219537 2.134897 -0.040749
v -17.223355 2.127764 -0.005061
v -17.239290 2.127764 0.001540
v -17.255226 2.127764 -0.005061
v -17.261826 2.127764 -0.020996
v -17.255226 2.127764 -0.036932
v -17.239290 2.127764 -0.043532
v -17.223355 2.127764 -0.036932
v -17.216754 2.127764 -0.020996
v -16.917899 1.932498 0.043537
v -16.917899 1.947452 0.037343
v -16.917899 1.953645 0.022389
v -16.917899 1.947452 0.007436
v -16.917899 1.932498 0.001242
v -16.917899 1.917544 0.007436
v -16.917899 1.911350 0.022389
v -16.917899 1.917544 0.037343
v -16.930067 1.932498 0.043537
v -16.930067 1.947452 0.037343
v -16.930067 1.953645 0.022389
v -16.930067 1.947452 0.007436
v -16.930067 1.932498 0.001242
v -16.930067 1.917544 0.007436
v -16.930067 1.911350 0.022389
v -16.930067 1.917544 0.037343
v -16.906539 1.932498 0.043537
v -16.906539 1.947452 0.037343
v -16.906539 1.953645 0.022389
v -16.906539 1.947452 0.007436
v -16.906539 1.932498 0.001242
v -16.906539 1.917544 0.007436
v -16.906539 1.911350 0.022389
v -16.906539 1.917544 0.037343
v -16.912035 1.932498 0.049128
v -16.912035 1.951405 0.041297
v -16.912035 1.959237 0.022389
v -16.912035 1.951405 0.003482
v -16.912035 1.932498 -0.004350
v -16.912035 1.913591 0.003482
v -16.912035 1.905759 0.022389
v -16.912035 1.913591 0.041297
v -16.923480 1.932498 0.049128
v -16.923480 1.951405 0.041297
v -16.923480 1.959237 0.022389
v -16.923480 1.951405 0.003482
v -16.923480 1.932498 -0.004350
v -16.923480 1.913591 0.003482
v -16.923480 1.905759 0.022389
v -16.923480 1.913591 0.041297
v -16.935833 1.905759 0.022389
v -16.935833 1.913591 0.041297
v -16.935833 1.932498 0.049128
v -16.935833 1.951405 0.041297
v -16.935833 1.959237 0.022389
v -16.935833 1.951405 0.003482
v -16.935833 1.932498 -0.004350
v -16.935833 1.913591 0.003482
v -16.942662 1.917245 0.037642
v -16.942662 1.932498 0.043960
v -16.942662 1.947751 0.037642
v -16.942662 1.954069 0.022389
v -16.942662 1.947751 0.007136
v -16.942662 1.932498 0.000818
v -16.942662 1.917245 0.007136
v -16.942662 1.910927 0.022389
v -17.555216 1.932498 0.043537
v -17.555216 1.947452 0.037343
v -17.555216 1.953645 0.022389
v -17.555216 1.947452 0.007436
v -17.555216 1.932498 0.001242
v -17.555216 1.917544 0.007436
v -17.555216 1.911350 0.022389
v -17.555216 1.917544 0.037343
v -17.567384 1.932498 0.043537
v -17.567384 1.947452 0.037343
v -17.567384 1.953645 0.022389
v -17.567384 1.947452 0.007436
v -17.567384 1.932498 0.001242
v -17.567384 1.917544 0.007436
v -17.567384 1.911350 0.022389
v -17.567384 1.917544 0.037343
v -17.543855 1.932498 0.043537
v -17.543855 1.947452 0.037343
v -17.543855 1.953645 0.022389
v -17.543855 1.947452 0.007436
v -17.543855 1.932498 0.001242
v -17.543855 1.917544 0.007436
v -17.543855 1.911350 0.022389
v -17.543855 1.917544 0.037343
v -17.549352 1.932498 0.049128
v -17.549352 1.951405 0.041297
v -17.549352 1.959237 0.022389
v -17.549352 1.951405 0.003482
v -17.549352 1.932498 -0.004350
v -17.549352 1.913591 0.003482
v -17.549352 1.905759 0.022389
v -17.549352 1.913591 0.041297
v -17.560797 1.932498 0.049128
v -17.560797 1.951405 0.041297
v -17.560797 1.959237 0.022389
v -17.560797 1.951405 0.003482
v -17.560797 1.932498 -0.004350
v -17.560797 1.913591 0.003482
v -17.560797 1.905759 0.022389
v -17.560797 1.913591 0.041297
v -17.573150 1.905759 0.022389
v -17.573150 1.913591 0.041297
v -17.573150 1.932498 0.049128
v -17.573150 1.951405 0.041297
v -17.573150 1.959237 0.022389
v -17.573150 1.951405 0.003482
v -17.573150 1.932498 -0.004350
v -17.573150 1.913591 0.003482
v -17.579978 1.917245 0.037642
v -17.579978 1.932498 0.043960
v -17.579978 1.947751 0.037642
v -17.579978 1.954069 0.022389
v -17.579978 1.947751 0.007136
v -17.579978 1.932498 0.000818
v -17.579978 1.917245 0.007136
v -17.579978 1.910927 0.022389
v -17.514889 0.447561 0.018020
v -16.962643 0.447561 0.021447
v -17.514889 1.910282 0.021386
v -16.962643 1.910282 0.021386
v -17.256911 2.140962 -0.031437
v -17.223525 2.140255 -0.031023
v -16.915154 1.945655 0.024886
v -16.921162 1.936821 0.024886
v -17.223935 2.126212 -0.031023
v -17.256505 2.126969 -0.031437
v -17.562832 1.938078 0.022336
v -17.568846 1.944688 0.022335
v -17.256709 2.134088 -0.025324
v -17.566153 1.942070 0.028088
v -17.566153 1.942070 0.016584
v -17.256709 2.134088 -0.037550
v -17.223727 2.133338 -0.037138
v -16.917898 1.941742 0.019070
v -16.917898 1.941742 0.030699
v -17.223727 2.133338 -0.024911
v -17.369862 0.447561 0.018020
v -17.369862 1.910282 0.021386
v -17.094612 0.447561 0.009877
v -17.094612 1.910282 0.021386
v -17.030081 0.447561 0.001988
v -17.030081 1.910282 0.021386
v -17.298173 0.447561 0.016586
v -17.298173 1.910282 0.021386
v -17.413981 0.447561 0.007938
v -17.413981 1.910282 0.021386
v -17.458475 0.447561 0.003673
v -17.458475 1.910282 0.021386
v -17.249311 0.447561 0.012266
v -17.249311 1.910282 0.021386
v -17.203748 0.447561 0.022890
v -17.203748 1.910282 0.021386
v -17.177942 0.447561 0.011428
v -17.177942 1.910282 0.021386
v -17.135465 0.447561 0.007760
v -17.135465 1.910282 0.021386
v -16.962643 1.444786 0.025301
v -17.030081 1.444786 0.020752
v -17.094612 1.444786 0.022596
v -17.135465 1.444786 0.022102
v -17.177942 1.444786 0.022959
v -17.203748 1.444786 0.025638
v -17.249311 1.444786 0.026056
v -17.298173 1.444786 0.024164
v -17.369862 1.444786 0.024500
v -17.413981 1.444786 0.022143
v -17.458475 1.444786 0.021146
v -17.514889 1.444786 0.024500
v -16.962643 0.903647 0.011162
v -17.030081 0.903647 0.029549
v -17.094612 0.903647 0.022097
v -17.135465 0.903647 0.024099
v -17.177942 0.903647 0.020628
v -17.203748 0.903647 0.009798
v -17.249311 0.903647 0.021254
v -17.298173 0.903647 0.015752
v -17.369862 0.903647 0.014397
v -17.413981 0.903647 0.023926
v -17.458475 0.903647 0.027959
v -17.514889 0.903647 0.014397
v -17.514889 0.447561 0.013787
v -16.962643 0.447561 0.017214
v -17.514889 1.910282 0.017153
v -16.962643 1.910282 0.017153
v -17.369862 0.447561 0.013787
v -17.369862 1.910282 0.017153
v -17.094612 0.447561 0.005643
v -17.094612 1.910282 0.017153
v -17.030081 0.447561 -0.002245
v -17.030081 1.910282 0.017153
v -17.298173 0.447561 0.012353
v -17.298173 1.910282 0.017153
v -17.413981 0.447561 0.003705
v -17.413981 1.910282 0.017153
v -17.458475 0.447561 -0.000560
v -17.458475 1.910282 0.017153
v -17.249311 0.447561 0.008033
v -17.249311 1.910282 0.017153
v -17.203748 0.447561 0.018657
v -17.203748 1.910282 0.017153
v -17.177942 0.447561 0.007195
v -17.177942 1.910282 0.017153
v -17.135465 0.447561 0.003527
v -17.135465 1.910282 0.017153
v -16.962643 1.444786 0.021068
v -17.030081 1.444786 0.016519
v -17.094612 1.444786 0.018363
v -17.135465 1.444786 0.017868
v -17.177942 1.444786 0.018726
v -17.203748 1.444786 0.021405
v -17.249311 1.444786 0.021823
v -17.298173 1.444786 0.019931
v -17.369862 1.444786 0.020267
v -17.413981 1.444786 0.017910
v -17.458475 1.444786 0.016913
v -17.514889 1.444786 0.020267
v -16.962643 0.903647 0.006929
v -17.030081 0.903647 0.025316
v -17.094612 0.903647 0.017864
v -17.135465 0.903647 0.019866
v -17.177942 0.903647 0.016395
v -17.203748 0.903647 0.005565
v -17.249311 0.903647 0.017021
v -17.298173 0.903647 0.011519
v -17.369862 0.903647 0.010164
v -17.413981 0.903647 0.019693
v -17.458475 0.903647 0.023726
v -17.514889 0.903647 0.010164
vt 0.756734 0.500923
vt 0.756734 0.509789
vt 0.750324 0.509789
vt 0.750324 0.500923
vt 0.756734 0.518655
vt 0.750324 0.518655
vt 0.756734 0.527521
vt 0.750324 0.527522
vt 0.756734 0.536388
vt 0.750324 0.536388
vt 0.756734 0.545254
vt 0.750324 0.545254
vt 0.756735 0.474324
vt 0.756734 0.483190
vt 0.750324 0.483190
vt 0.750325 0.474324
vt 0.756735 0.492056
vt 0.750324 0.492057
vt 0.699203 0.508880
vt 0.702248 0.501730
vt 0.709812 0.508880
vt 0.702248 0.516247
vt 0.709812 0.519300
vt 0.716781 0.516247
vt 0.719833 0.508880
vt 0.716781 0.501731
vt 0.709812 0.498686
vt 0.716781 0.516248
vt 0.709812 0.519300
vt 0.709812 0.508880
vt 0.702248 0.516248
vt 0.699203 0.508880
vt 0.702248 0.501731
vt 0.709812 0.498686
vt 0.716781 0.501730
vt 0.719833 0.508880
vt 0.722050 0.536388
vt 0.722050 0.545254
vt 0.716421 0.545254
vt 0.716421 0.536388
vt 0.722050 0.527522
vt 0.716421 0.527521
vt 0.722050 0.518655
vt 0.716421 0.518655
vt 0.722050 0.509789
vt 0.716421 0.509789
vt 0.722050 0.500923
vt 0.716421 0.500923
vt 0.722050 0.492057
vt 0.716421 0.492057
vt 0.722051 0.483190
vt 0.716422 0.483190
vt 0.722051 0.474324
vt 0.716422 0.474324
vt 0.709870 0.483190
vt 0.709870 0.474324
vt 0.709869 0.545254
vt 0.709869 0.536388
vt 0.709869 0.527521
vt 0.709869 0.518655
vt 0.709869 0.509789
vt 0.709869 0.500923
vt 0.709869 0.492057
vt 0.745055 0.483190
vt 0.745055 0.474324
vt 0.745054 0.545254
vt 0.745054 0.536388
vt 0.745054 0.527522
vt 0.745054 0.518655
vt 0.745054 0.509789
vt 0.745054 0.500923
vt 0.745055 0.492056
vt 0.827505 0.433325
vt 0.835294 0.433325
vt 0.835294 0.477953
vt 0.827505 0.477953
vt 0.819716 0.433325
vt 0.819716 0.477953
vt 0.811928 0.433325
vt 0.811928 0.477953
vt 0.804139 0.433325
vt 0.804139 0.477953
vt 0.796350 0.433325
vt 0.796350 0.477953
vt 0.788562 0.433326
vt 0.788562 0.477953
vt 0.843083 0.433325
vt 0.850872 0.433325
vt 0.850872 0.477953
vt 0.843083 0.477953
vt 0.827505 0.769929
vt 0.835293 0.769929
vt 0.835293 0.813213
vt 0.827505 0.813212
vt 0.819716 0.769929
vt 0.819716 0.813212
vt 0.811927 0.769928
vt 0.811927 0.813212
vt 0.804138 0.769929
vt 0.804138 0.813212
vt 0.796349 0.769929
vt 0.796349 0.813212
vt 0.788561 0.769928
vt 0.788561 0.813212
vt 0.843082 0.769929
vt 0.850871 0.769928
vt 0.850871 0.813212
vt 0.843082 0.813212
vt 0.355398 0.936830
vt 0.355398 0.929041
vt 0.681994 0.929042
vt 0.681994 0.936830
vt 0.355398 0.944618
vt 0.681994 0.944619
vt 0.355398 0.952407
vt 0.681994 0.952408
vt 0.355398 0.960196
vt 0.681994 0.960197
vt 0.355398 0.967984
vt 0.681994 0.967985
vt 0.355398 0.913463
vt 0.355398 0.905675
vt 0.681993 0.905675
vt 0.681994 0.913464
vt 0.355398 0.921252
vt 0.681994 0.921253
vt 0.756734 0.500923
vt 0.756734 0.509789
vt 0.750324 0.509789
vt 0.750324 0.500923
vt 0.756734 0.518655
vt 0.750324 0.518655
vt 0.756734 0.527521
vt 0.750324 0.527522
vt 0.756734 0.536388
vt 0.750324 0.536388
vt 0.756734 0.545254
vt 0.750324 0.545254
vt 0.756735 0.474324
vt 0.756734 0.483190
vt 0.750324 0.483190
vt 0.750325 0.474324
vt 0.756735 0.492056
vt 0.750324 0.492057
vt 0.719833 0.508880
vt 0.716781 0.516247
vt 0.709812 0.508880
vt 0.716781 0.501731
vt 0.709812 0.498686
vt 0.702248 0.501731
vt 0.699203 0.508880
vt 0.702248 0.516247
vt 0.709812 0.519299
vt 0.702248 0.501730
vt 0.709811 0.498686
vt 0.709812 0.508880
vt 0.716781 0.501731
vt 0.719833 0.508880
vt 0.716781 0.516247
vt 0.709812 0.519299
vt 0.702248 0.516248
vt 0.699203 0.508880
vt 0.722050 0.536388
vt 0.722050 0.545254
vt 0.716421 0.545254
vt 0.716421 0.536388
vt 0.722050 0.527522
vt 0.716421 0.527521
vt 0.722050 0.518655
vt 0.716421 0.518655
vt 0.722050 0.509789
vt 0.716421 0.509789
vt 0.722050 0.500923
vt 0.716421 0.500923
vt 0.722050 0.492057
vt 0.716421 0.492057
vt 0.722051 0.483190
vt 0.716422 0.483190
vt 0.722051 0.474324
vt 0.716422 0.474324
vt 0.709870 0.483190
vt 0.709870 0.474324
vt 0.709869 0.545254
vt 0.709869 0.536388
vt 0.709869 0.527521
vt 0.709869 0.518655
vt 0.709869 0.509789
vt 0.709869 0.500923
vt 0.709869 0.492057
vt 0.745055 0.483190
vt 0.745055 0.474324
vt 0.745054 0.545254
vt 0.745054 0.536388
vt 0.745054 0.527522
vt 0.745054 0.518655
vt 0.745054 0.509789
vt 0.745054 0.500923
vt 0.745055 0.492056
vt 0.352983 0.936830
vt 0.352983 0.929041
vt 0.684409 0.929042
vt 0.684408 0.936830
vt 0.352983 0.944618
vt 0.684408 0.944619
vt 0.352983 0.952407
vt 0.684408 0.952408
vt 0.352983 0.960196
vt 0.684409 0.960197
vt 0.352983 0.967984
vt 0.684408 0.967985
vt 0.352983 0.913463
vt 0.352983 0.905675
vt 0.684408 0.905675
vt 0.684408 0.913464
vt 0.352983 0.921252
vt 0.684408 0.921253
vt 0.756734 0.500923
vt 0.756734 0.509789
vt 0.750324 0.509789
vt 0.750324 0.500923
vt 0.756734 0.518655
vt 0.750324 0.518655
vt 0.756734 0.527521
vt 0.750324 0.527522
vt 0.756734 0.536388
vt 0.750324 0.536388
vt 0.756734 0.545254
vt 0.750324 0.545254
vt 0.756735 0.474324
vt 0.756734 0.483190
vt 0.750324 0.483190
vt 0.750325 0.474324
vt 0.756735 0.492056
vt 0.750324 0.492057
vt 0.699203 0.508880
vt 0.702248 0.501731
vt 0.709812 0.508880
vt 0.702248 0.516248
vt 0.709812 0.519300
vt 0.716781 0.516248
vt 0.719833 0.508880
vt 0.716781 0.501731
vt 0.709812 0.498686
vt 0.716781 0.501730
vt 0.719833 0.508880
vt 0.709811 0.508880
vt 0.716781 0.516248
vt 0.709811 0.519300
vt 0.702248 0.516248
vt 0.699203 0.508880
vt 0.702248 0.501730
vt 0.709812 0.498686
vt 0.722050 0.536388
vt 0.722050 0.545254
vt 0.716421 0.545254
vt 0.716421 0.536388
vt 0.722050 0.527522
vt 0.716421 0.527521
vt 0.722050 0.518655
vt 0.716421 0.518655
vt 0.722050 0.509789
vt 0.716421 0.509789
vt 0.722050 0.500923
vt 0.716421 0.500923
vt 0.722050 0.492057
vt 0.716421 0.492057
vt 0.722051 0.483190
vt 0.716422 0.483190
vt 0.722051 0.474324
vt 0.716422 0.474324
vt 0.709870 0.483190
vt 0.709870 0.474324
vt 0.709869 0.545254
vt 0.709869 0.536388
vt 0.709869 0.527521
vt 0.709869 0.518655
vt 0.709869 0.509789
vt 0.709869 0.500923
vt 0.709869 0.492057
vt 0.745055 0.483190
vt 0.745055 0.474324
vt 0.745054 0.545254
vt 0.745054 0.536388
vt 0.745054 0.527522
vt 0.745054 0.518655
vt 0.745054 0.509789
vt 0.745054 0.500923
vt 0.745055 0.492056
vt 0.788561 -0.009152
vt 0.796350 -0.009152
vt 0.796349 1.016976
vt 0.788561 1.016976
vt 0.804139 -0.009152
vt 0.804138 1.016976
vt 0.811927 -0.009152
vt 0.811927 1.016976
vt 0.819716 -0.009152
vt 0.819716 1.016976
vt 0.827505 -0.009152
vt 0.827505 1.016976
vt 0.835294 -0.009152
vt 0.835293 1.016976
vt 0.843082 -0.009152
vt 0.843082 1.016976
vt 0.850872 -0.009152
vt 0.850871 1.016976
vt 0.756734 0.500923
vt 0.756734 0.509789
vt 0.750324 0.509789
vt 0.750324 0.500923
vt 0.756734 0.518655
vt 0.750324 0.518655
vt 0.756734 0.527521
vt 0.750324 0.527522
vt 0.756734 0.536388
vt 0.750324 0.536388
vt 0.756734 0.545254
vt 0.750324 0.545254
vt 0.756735 0.474324
vt 0.756734 0.483190
vt 0.750324 0.483190
vt 0.750325 0.474324
vt 0.756735 0.492056
vt 0.750324 0.492057
vt 0.699203 0.508880
vt 0.702248 0.501731
vt 0.709811 0.508880
vt 0.702248 0.516248
vt 0.709812 0.519299
vt 0.716781 0.516247
vt 0.719833 0.508880
vt 0.716781 0.501731
vt 0.709812 0.498686
vt 0.702248 0.501731
vt 0.709812 0.498686
vt 0.709811 0.508880
vt 0.716781 0.501731
vt 0.719833 0.508880
vt 0.716781 0.516247
vt 0.709812 0.519300
vt 0.702248 0.516247
vt 0.699203 0.508880
vt 0.722050 0.536388
vt 0.722050 0.545254
vt 0.716421 0.545254
vt 0.716421 0.536388
vt 0.722050 0.527522
vt 0.716421 0.527521
vt 0.722050 0.518655
vt 0.716421 0.518655
vt 0.722050 0.509789
vt 0.716421 0.509789
vt 0.722050 0.500923
vt 0.716421 0.500923
vt 0.722050 0.492057
vt 0.716421 0.492057
vt 0.722051 0.483190
vt 0.716422 0.483190
vt 0.722051 0.474324
vt 0.716422 0.474324
vt 0.709870 0.483190
vt 0.709870 0.474324
vt 0.709869 0.545254
vt 0.709869 0.536388
vt 0.709869 0.527521
vt 0.709869 0.518655
vt 0.709869 0.509789
vt 0.709869 0.500923
vt 0.709869 0.492057
vt 0.745055 0.483190
vt 0.745055 0.474324
vt 0.745054 0.545254
vt 0.745054 0.536388
vt 0.745054 0.527522
vt 0.745054 0.518655
vt 0.745054 0.509789
vt 0.745054 0.500923
vt 0.745055 0.492056
vt 0.718223 0.229415
vt 0.718223 0.249295
vt 0.710651 0.249295
vt 0.710651 0.229415
vt 0.718223 0.209535
vt 0.710651 0.209535
vt 0.718223 0.189655
vt 0.710651 0.189655
vt 0.718223 0.169775
vt 0.710651 0.169775
vt 0.718223 0.149895
vt 0.710651 0.149895
vt 0.718223 0.289054
vt 0.718223 0.308934
vt 0.710651 0.308934
vt 0.710651 0.289054
vt 0.718223 0.269175
vt 0.710651 0.269175
vt 0.738689 0.229415
vt 0.738689 0.249295
vt 0.729135 0.249295
vt 0.729135 0.229415
vt 0.738689 0.209535
vt 0.729135 0.209535
vt 0.738689 0.189655
vt 0.729135 0.189655
vt 0.738689 0.169775
vt 0.729135 0.169775
vt 0.738689 0.149896
vt 0.729135 0.149895
vt 0.738689 0.289054
vt 0.738689 0.308934
vt 0.729135 0.308934
vt 0.729135 0.289054
vt 0.738689 0.269175
vt 0.729135 0.269175
vt 0.702678 0.249295
vt 0.702678 0.229415
vt 0.702678 0.209535
vt 0.702678 0.189655
vt 0.702677 0.169775
vt 0.702678 0.149895
vt 0.702677 0.308934
vt 0.702678 0.289054
vt 0.702677 0.269175
vt 0.744236 0.269175
vt 0.744236 0.289054
vt 0.744236 0.249295
vt 0.744236 0.229415
vt 0.744236 0.209535
vt 0.744236 0.189655
vt 0.744236 0.169775
vt 0.744236 0.149895
vt 0.744236 0.308934
vt 0.764391 0.249295
vt 0.764391 0.269175
vt 0.764391 0.229415
vt 0.764391 0.209535
vt 0.764391 0.189655
vt 0.764391 0.169775
vt 0.764391 0.149895
vt 0.764391 0.289054
vt 0.764391 0.308934
vt 0.718223 0.229415
vt 0.718223 0.249295
vt 0.710651 0.249295
vt 0.710651 0.229415
vt 0.718223 0.209535
vt 0.710651 0.209535
vt 0.718223 0.189655
vt 0.710651 0.189655
vt 0.718223 0.169775
vt 0.710651 0.169775
vt 0.718223 0.149895
vt 0.710651 0.149895
vt 0.718223 0.289054
vt 0.718223 0.308934
vt 0.710651 0.308934
vt 0.710651 0.289054
vt 0.718223 0.269175
vt 0.710651 0.269175
vt 0.738689 0.229415
vt 0.738689 0.249295
vt 0.729135 0.249295
vt 0.729135 0.229415
vt 0.738689 0.209535
vt 0.729135 0.209535
vt 0.738689 0.189655
vt 0.729135 0.189655
vt 0.738689 0.169775
vt 0.729135 0.169775
vt 0.738689 0.149896
vt 0.729135 0.149895
vt 0.738689 0.289054
vt 0.738689 0.308934
vt 0.729135 0.308934
vt 0.729135 0.289054
vt 0.738689 0.269175
vt 0.729135 0.269175
vt 0.702678 0.249295
vt 0.702678 0.229415
vt 0.702678 0.209535
vt 0.702678 0.189655
vt 0.702677 0.169775
vt 0.702678 0.149895
vt 0.702677 0.308934
vt 0.702678 0.289054
vt 0.702677 0.269175
vt 0.744236 0.269175
vt 0.744236 0.289054
vt 0.744236 0.249295
vt 0.744236 0.229415
vt 0.744236 0.209535
vt 0.744236 0.189655
vt 0.744236 0.169775
vt 0.744236 0.149895
vt 0.744236 0.308934
vt 0.764391 0.249295
vt 0.764391 0.269175
vt 0.764391 0.229415
vt 0.764391 0.209535
vt 0.764391 0.189655
vt 0.764391 0.169775
vt 0.764391 0.149895
vt 0.764391 0.289054
vt 0.764391 0.308934
vt 0.718223 0.229415
vt 0.718223 0.249295
vt 0.710651 0.249295
vt 0.710651 0.229415
vt 0.718223 0.209535
vt 0.710651 0.209535
vt 0.718223 0.189655
vt 0.710651 0.189655
vt 0.718223 0.169775
vt 0.710651 0.169775
vt 0.718223 0.149895
vt 0.710651 0.149895
vt 0.718223 0.289054
vt 0.718223 0.308934
vt 0.710651 0.308934
vt 0.710651 0.289054
vt 0.718223 0.269175
vt 0.710651 0.269175
vt 0.738689 0.229415
vt 0.738689 0.249295
vt 0.729135 0.249295
vt 0.729135 0.229415
vt 0.738689 0.209535
vt 0.729135 0.209535
vt 0.738689 0.189655
vt 0.729135 0.189655
vt 0.738689 0.169775
vt 0.729135 0.169775
vt 0.738689 0.149896
vt 0.729135 0.149895
vt 0.738689 0.289054
vt 0.738689 0.308934
vt 0.729135 0.308934
vt 0.729135 0.289054
vt 0.738689 0.269175
vt 0.729135 0.269175
vt 0.702678 0.249295
vt 0.702678 0.229415
vt 0.702678 0.209535
vt 0.702678 0.189655
vt 0.702677 0.169775
vt 0.702678 0.149895
vt 0.702677 0.308934
vt 0.702678 0.289054
vt 0.702677 0.269175
vt 0.744236 0.269175
vt 0.744236 0.289054
vt 0.744236 0.249295
vt 0.744236 0.229415
vt 0.744236 0.209535
vt 0.744236 0.189655
vt 0.744236 0.169775
vt 0.744236 0.149895
vt 0.744236 0.308934
vt 0.764391 0.249295
vt 0.764391 0.269175
vt 0.764391 0.229415
vt 0.764391 0.209535
vt 0.764391 0.189655
vt 0.764391 0.169775
vt 0.764391 0.149895
vt 0.764391 0.289054
vt 0.764391 0.308934
vt 0.355299 0.035303
vt 0.388715 0.035303
vt 0.388715 0.303053
vt 0.355299 0.303053
vt 0.743287 0.401044
vt 0.743287 0.045022
vt 0.753509 0.045022
vt 0.753509 0.401044
vt 0.753509 0.427704
vt 0.743287 0.427703
vt 0.743287 0.029519
vt 0.753509 0.029519
vt 0.724090 0.045022
vt 0.733239 0.045022
vt 0.733239 0.401044
vt 0.724090 0.401044
vt 0.713801 0.401044
vt 0.713801 0.045022
vt 0.724090 0.029518
vt 0.733239 0.029518
vt 0.733239 0.427704
vt 0.724090 0.427704
vt 0.713801 0.427704
vt 0.713801 0.029518
vt 0.441204 0.035303
vt 0.483668 0.035303
vt 0.483668 0.303053
vt 0.441204 0.303053
vt 0.604244 0.035303
vt 0.642467 0.035303
vt 0.642467 0.303053
vt 0.604244 0.303053
vt 0.682413 0.035303
vt 0.682413 0.303053
vt 0.512610 0.035303
vt 0.512610 0.303053
vt 0.415070 0.035303
vt 0.415070 0.303053
vt 0.539599 0.303053
vt 0.539599 0.035303
vt 0.554884 0.035303
vt 0.554884 0.303053
vt 0.580045 0.303053
vt 0.580045 0.035303
vt 0.642467 0.620735
vt 0.682413 0.620735
vt 0.682413 0.894008
vt 0.642467 0.894008
vt 0.604244 0.620735
vt 0.604244 0.894008
vt 0.580045 0.620735
vt 0.580045 0.894008
vt 0.554884 0.894008
vt 0.554884 0.620735
vt 0.539599 0.620735
vt 0.539599 0.894008
vt 0.512610 0.894008
vt 0.512610 0.620735
vt 0.483668 0.620735
vt 0.483668 0.894008
vt 0.441204 0.620735
vt 0.441204 0.894008
vt 0.415070 0.620735
vt 0.415070 0.894008
vt 0.388715 0.894008
vt 0.388715 0.620735
vt 0.355299 0.620735
vt 0.355299 0.894008
vt 0.355299 0.035303
vt 0.355299 0.303053
vt 0.388715 0.303053
vt 0.388715 0.035303
vt 0.441204 0.035303
vt 0.441204 0.303053
vt 0.483668 0.303053
vt 0.483668 0.035303
vt 0.604244 0.035303
vt 0.604244 0.303053
vt 0.642467 0.303053
vt 0.642467 0.035303
vt 0.682413 0.303053
vt 0.682413 0.035303
vt 0.512610 0.303053
vt 0.512610 0.035303
vt 0.415070 0.035303
vt 0.415070 0.303053
vt 0.539599 0.303053
vt 0.539599 0.035303
vt 0.554884 0.303053
vt 0.554884 0.035303
vt 0.580045 0.303053
vt 0.580045 0.035303
vt 0.642467 0.620735
vt 0.642467 0.894008
vt 0.682413 0.894008
vt 0.682413 0.620735
vt 0.604244 0.620735
vt 0.604244 0.894008
vt 0.580045 0.620735
vt 0.580045 0.894008
vt 0.554884 0.620735
vt 0.554884 0.894008
vt 0.539599 0.620735
vt 0.539599 0.894008
vt 0.512610 0.620735
vt 0.512610 0.894008
vt 0.483668 0.620735
vt 0.483668 0.894008
vt 0.441204 0.620735
vt 0.441204 0.894008
vt 0.415070 0.620735
vt 0.415070 0.894008
vt 0.388715 0.620735
vt 0.388715 0.894008
vt 0.355299 0.620735
vt 0.355299 0.894008
vn 0.945327 0.230607 -0.230604
vn 0.945321 -0.000000 -0.326141
vn 0.142077 0.000005 -0.989856
vn 0.142078 0.699947 -0.699920
vn 0.945326 -0.230595 -0.230620
vn 0.142082 -0.699918 -0.699949
vn 0.945330 -0.326114 -0.000002
vn 0.142080 -0.989855 -0.000005
vn 0.945324 -0.230605 0.230617
vn 0.142075 -0.699922 0.699946
vn 0.945321 0.000000 0.326141
vn 0.142066 0.000002 0.989857
vn 0.945325 0.230615 0.230602
vn 0.142074 0.699949 0.699919
vn 0.945323 0.326135 -0.000001
vn 0.142082 0.989855 -0.000005
vn 1.000000 -0.000004 0.000002
vn -0.901706 0.305716 -0.305719
vn -0.901705 0.000004 -0.432353
vn -1.000000 0.000002 -0.000000
vn -0.901701 -0.305718 -0.305731
vn -0.901702 -0.432358 -0.000002
vn -0.901707 -0.305711 0.305721
vn -0.901713 0.000009 0.432335
vn -0.901711 0.305712 0.305709
vn -0.901708 0.432345 -0.000002
vn 0.317902 -0.670434 0.670416
vn 0.317908 0.000007 0.948121
vn -0.050189 0.000004 0.998740
vn -0.050176 -0.706219 0.706213
vn 0.317893 -0.948127 -0.000004
vn -0.050167 -0.998741 -0.000004
vn 0.317890 -0.670428 -0.670426
vn -0.050179 -0.706207 -0.706225
vn 0.317885 0.000008 -0.948129
vn -0.050189 0.000006 -0.998740
vn 0.317890 0.670425 -0.670430
vn -0.050192 0.706215 -0.706216
vn 0.317893 0.948127 -0.000005
vn -0.050194 0.998739 -0.000005
vn 0.317901 0.670431 0.670419
vn -0.050192 0.706226 0.706205
vn -0.171355 0.696653 0.696643
vn -0.171358 0.000008 0.985209
vn -0.171361 -0.696649 0.696646
vn -0.171365 -0.985208 -0.000004
vn -0.171353 -0.696647 -0.696650
vn -0.171346 0.000011 -0.985211
vn -0.171347 0.696653 -0.696646
vn -0.171343 0.985212 -0.000005
vn 0.000003 0.000002 1.000000
vn 0.000003 0.707097 0.707116
vn 0.000003 0.707097 0.707116
vn 0.000003 0.000002 1.000000
vn 0.000003 -0.707096 0.707117
vn 0.000003 -0.707096 0.707117
vn 0.000001 -1.000000 0.000009
vn 0.000001 -1.000000 0.000009
vn -0.000001 -0.707108 -0.707105
vn -0.000001 -0.707108 -0.707105
vn 0.000000 0.000002 -1.000000
vn 0.000000 0.000002 -1.000000
vn -0.000001 0.707110 -0.707104
vn -0.000001 0.707110 -0.707104
vn 0.000001 1.000000 0.000009
vn 0.000001 1.000000 0.000009
vn 0.000000 0.000002 1.000000
vn 0.000000 0.707105 0.707108
vn 0.000000 0.707105 0.707108
vn 0.000000 0.000002 1.000000
vn 0.000000 -0.707101 0.707112
vn 0.000000 -0.707101 0.707112
vn 0.000000 -1.000000 0.000005
vn 0.000000 -1.000000 0.000005
vn 0.000000 -0.707105 -0.707109
vn 0.000000 -0.707105 -0.707109
vn 0.000000 0.000002 -1.000000
vn 0.000000 0.000002 -1.000000
vn 0.000000 0.707109 -0.707105
vn 0.000000 0.707109 -0.707105
vn 0.000000 1.000000 0.000005
vn 0.000000 1.000000 0.000005
vn -0.000000 -0.707096 0.707117
vn -0.000001 0.000006 1.000000
vn -0.000001 0.000006 1.000000
vn -0.000000 -0.707096 0.707117
vn -0.000000 -1.000000 0.000010
vn -0.000000 -1.000000 0.000010
vn 0.000000 -0.707111 -0.707103
vn 0.000000 -0.707111 -0.707103
vn -0.000000 0.000002 -1.000000
vn -0.000000 0.000002 -1.000000
vn 0.000000 0.707111 -0.707103
vn 0.000000 0.707111 -0.707103
vn -0.000000 1.000000 0.000009
vn -0.000000 1.000000 0.000009
vn -0.000000 0.707100 0.707113
vn -0.000000 0.707100 0.707113
vn -0.945319 -0.230627 -0.230613
vn -0.945319 -0.000001 -0.326148
vn -0.142071 -0.000002 -0.989857
vn -0.142072 -0.699948 -0.699920
vn -0.945323 0.230608 -0.230618
vn -0.142074 0.699925 -0.699943
vn -0.945326 0.326127 -0.000002
vn -0.142071 0.989857 -0.000006
vn -0.945323 0.230611 0.230616
vn -0.142068 0.699929 0.699940
vn -0.945319 0.000002 0.326148
vn -0.142058 -0.000005 0.989858
vn -0.945320 -0.230626 0.230612
vn -0.142067 -0.699953 0.699917
vn -0.945314 -0.326161 -0.000002
vn -0.142075 -0.989856 -0.000005
vn -1.000000 0.000003 0.000002
vn 0.901707 -0.305713 -0.305718
vn 0.901705 -0.000001 -0.432353
vn 1.000000 -0.000000 -0.000000
vn 0.901700 0.305719 -0.305732
vn 0.901703 0.432356 -0.000003
vn 0.901706 0.305714 0.305721
vn 0.901713 -0.000001 0.432335
vn 0.901713 -0.305708 0.305708
vn 0.901710 -0.432341 -0.000003
vn -0.317901 0.670436 0.670413
vn -0.317909 -0.000008 0.948121
vn 0.050191 -0.000003 0.998740
vn 0.050181 0.706220 0.706212
vn -0.317891 0.948127 -0.000004
vn 0.050172 0.998741 -0.000006
vn -0.317890 0.670432 -0.670423
vn 0.050184 0.706208 -0.706224
vn -0.317886 -0.000006 -0.948129
vn 0.050190 -0.000001 -0.998740
vn -0.317890 -0.670424 -0.670431
vn 0.050194 -0.706211 -0.706220
vn -0.317894 -0.948126 -0.000003
vn 0.050195 -0.998740 -0.000005
vn -0.317902 -0.670429 0.670420
vn 0.050190 -0.706224 0.706208
vn 0.171354 -0.696654 0.696643
vn 0.171364 -0.000010 0.985208
vn 0.171369 0.696651 0.696643
vn 0.171372 0.985206 -0.000004
vn 0.171361 0.696651 -0.696644
vn 0.171352 -0.000007 -0.985210
vn 0.171347 -0.696653 -0.696646
vn 0.171339 -0.985212 -0.000004
vn 0.797253 -0.426838 0.426845
vn 0.797242 0.000007 0.603660
vn 0.797242 0.000007 0.603660
vn 0.797253 -0.426838 0.426845
vn -0.797251 0.000001 0.603648
vn -0.797269 -0.426811 0.426842
vn -0.797269 -0.426811 0.426842
vn -0.797251 0.000001 0.603648
vn 0.797239 -0.603663 0.000005
vn 0.797239 -0.603663 0.000005
vn -0.797269 -0.603624 0.000007
vn -0.797269 -0.603624 0.000007
vn 0.797256 -0.426842 -0.426836
vn 0.797256 -0.426842 -0.426836
vn -0.797249 -0.426850 -0.426841
vn -0.797249 -0.426850 -0.426841
vn 0.797256 0.000014 -0.603642
vn 0.797256 0.000014 -0.603642
vn -0.797254 0.000007 -0.603644
vn -0.797254 0.000007 -0.603644
vn 0.797251 0.426842 -0.426844
vn 0.797251 0.426842 -0.426844
vn -0.797240 0.426863 -0.426845
vn -0.797240 0.426863 -0.426845
vn 0.797227 0.603679 0.000012
vn 0.797227 0.603679 0.000012
vn -0.797233 0.603672 0.000005
vn -0.797233 0.603672 0.000005
vn 0.797219 0.426869 0.426878
vn 0.797219 0.426869 0.426878
vn -0.797237 0.426856 0.426857
vn -0.797237 0.426856 0.426857
vn 0.301360 -0.904641 -0.301340
vn -0.000002 -0.904648 -0.426159
vn -0.000003 -0.142073 -0.989856
vn 0.699945 -0.142068 -0.699924
vn -0.301360 -0.904644 -0.301331
vn -0.699958 -0.142082 -0.699908
vn -0.426180 -0.904638 0.000001
vn -0.989854 -0.142088 0.000005
vn -0.301344 -0.904650 0.301330
vn -0.699946 -0.142085 0.699920
vn -0.000001 -0.904649 0.426157
vn -0.000001 -0.142069 0.989857
vn 0.301354 -0.904641 0.301347
vn 0.699934 -0.142058 0.699937
vn 0.426195 -0.904631 0.000004
vn 0.989858 -0.142060 0.000008
vn -0.000001 -1.000000 0.000001
vn 0.107578 0.988358 -0.107591
vn 0.000007 0.988362 -0.152120
vn 0.000003 1.000000 -0.000005
vn -0.107563 0.988363 -0.107561
vn -0.152117 0.988362 0.000001
vn -0.107563 0.988362 0.107569
vn 0.000007 0.988360 0.152134
vn 0.107577 0.988357 0.107597
vn 0.152133 0.988360 0.000000
vn -0.670411 -0.317917 0.670431
vn -0.000001 -0.317900 0.948124
vn 0.000005 0.050176 0.998740
vn -0.706209 0.050163 0.706224
vn -0.948111 -0.317939 0.000005
vn -0.998742 0.050150 0.000006
vn -0.670421 -0.317926 -0.670416
vn -0.706221 0.050158 -0.706212
vn -0.000000 -0.317916 -0.948119
vn 0.000005 0.050177 -0.998740
vn 0.670428 -0.317908 -0.670419
vn 0.706217 0.050154 -0.706216
vn 0.948117 -0.317922 0.000005
vn 0.998743 0.050132 0.000006
vn 0.670416 -0.317904 0.670433
vn 0.706205 0.050156 0.706228
vn 0.696641 0.171357 0.696655
vn -0.000003 0.171369 0.985207
vn -0.696648 0.171354 0.696649
vn -0.985212 0.171338 0.000006
vn -0.696659 0.171349 -0.696639
vn -0.000003 0.171366 -0.985207
vn 0.696653 0.171357 -0.696643
vn 0.985210 0.171352 0.000006
vn 0.707097 0.000000 -0.707116
vn 0.000000 0.000000 -1.000000
vn 0.000000 0.000000 -1.000000
vn 0.707097 0.000000 -0.707116
vn -0.707116 0.000000 -0.707097
vn -0.707116 0.000000 -0.707097
vn -1.000000 0.000000 0.000005
vn -1.000000 0.000000 0.000005
vn -0.707103 0.000000 0.707111
vn -0.707103 0.000000 0.707111
vn 0.000000 0.000000 1.000000
vn 0.000000 0.000000 1.000000
vn 0.707084 0.000000 0.707130
vn 0.707084 0.000000 0.707130
vn 1.000000 0.000000 0.000006
vn 1.000000 0.000000 0.000006
vn 0.230616 -0.945327 -0.230595
vn -0.000002 -0.945325 -0.326131
vn -0.000007 -0.142072 -0.989856
vn 0.699954 -0.142082 -0.699912
vn -0.230603 -0.945326 -0.230612
vn -0.699928 -0.142069 -0.699941
vn -0.326124 -0.945327 -0.000002
vn -0.989858 -0.142062 -0.000004
vn -0.230609 -0.945323 0.230618
vn -0.699927 -0.142060 0.699944
vn -0.000004 -0.945318 0.326151
vn -0.000010 -0.142050 0.989860
vn 0.230624 -0.945321 0.230609
vn 0.699950 -0.142068 0.699919
vn 0.326155 -0.945316 0.000003
vn 0.989854 -0.142087 0.000003
vn -0.000001 -1.000000 0.000002
vn 0.305713 0.901710 -0.305710
vn -0.000002 0.901709 -0.432343
vn -0.000000 1.000000 0.000000
vn -0.305719 0.901705 -0.305719
vn -0.432352 0.901705 0.000000
vn -0.305716 0.901708 0.305714
vn -0.000003 0.901715 0.432331
vn 0.305709 0.901714 0.305703
vn 0.432341 0.901710 -0.000001
vn -0.670434 -0.317901 0.670416
vn 0.000001 -0.317914 0.948120
vn -0.000005 0.050176 0.998740
vn -0.706222 0.050180 0.706210
vn -0.948128 -0.317890 0.000001
vn -0.998740 0.050182 0.000001
vn -0.670434 -0.317895 -0.670419
vn -0.706217 0.050185 -0.706215
vn 0.000001 -0.317901 -0.948124
vn -0.000004 0.050178 -0.998740
vn 0.670417 -0.317907 -0.670430
vn 0.706214 0.050174 -0.706218
vn 0.948121 -0.317909 0.000001
vn 0.998741 0.050174 -0.000001
vn 0.670417 -0.317914 0.670426
vn 0.706221 0.050171 0.706212
vn 0.696646 0.171356 0.696650
vn -0.000001 0.171369 0.985207
vn -0.696646 0.171372 0.696646
vn -0.985206 0.171376 -0.000001
vn -0.696651 0.171368 -0.696643
vn -0.000001 0.171365 -0.985208
vn 0.696652 0.171355 -0.696645
vn 0.985213 0.171337 0.000001
vn -0.511755 -0.690078 0.511761
vn 0.000004 -0.690082 0.723731
vn 0.000003 0.017412 0.999848
vn -0.706997 0.017417 0.707002
vn -0.723731 -0.690082 0.000000
vn -0.999848 0.017416 -0.000002
vn -0.511756 -0.690080 -0.511757
vn -0.706996 0.017414 -0.707003
vn 0.000002 -0.690081 -0.723732
vn 0.000003 0.017413 -0.999848
vn 0.511758 -0.690079 -0.511756
vn 0.706999 0.017414 -0.707000
vn 0.723731 -0.690082 0.000000
vn 0.999848 0.017416 0.000002
vn 0.511758 -0.690083 0.511751
vn 0.706999 0.017410 0.707000
vn -0.539078 -0.647136 0.539082
vn 0.000003 -0.647134 0.762376
vn 0.000003 0.044230 0.999021
vn -0.706411 0.044230 0.706419
vn -0.762370 -0.647141 0.000003
vn -0.999021 0.044228 0.000002
vn -0.539079 -0.647137 -0.539080
vn -0.706413 0.044232 -0.706416
vn 0.000004 -0.647133 -0.762378
vn 0.000002 0.044231 -0.999021
vn 0.539081 -0.647137 -0.539079
vn 0.706413 0.044227 -0.706417
vn 0.762370 -0.647141 -0.000003
vn 0.999021 0.044228 -0.000002
vn 0.539081 -0.647140 0.539075
vn 0.706416 0.044228 0.706414
vn 0.000000 0.713104 0.701058
vn -0.495719 0.713108 0.495721
vn -0.701052 0.713110 -0.000003
vn -0.495718 0.713106 -0.495726
vn 0.000001 0.713104 -0.701058
vn 0.495720 0.713106 -0.495723
vn 0.701052 0.713110 0.000003
vn 0.495719 0.713104 0.495728
vn 0.000002 0.707784 0.706429
vn -0.499516 0.707785 0.499523
vn -0.706423 0.707790 0.000000
vn -0.499517 0.707787 -0.499520
vn -0.000001 0.707784 -0.706429
vn 0.499517 0.707784 -0.499525
vn 0.706423 0.707790 0.000000
vn 0.499518 0.707786 0.499521
vn 0.705606 0.065048 0.705612
vn 0.997882 0.065051 0.000000
vn 0.717901 0.696146 0.000000
vn 0.507634 0.696141 0.507637
vn 0.000002 0.065050 0.997882
vn 0.000001 0.696135 0.717911
vn -0.705604 0.065052 0.705614
vn -0.507634 0.696142 0.507636
vn -0.997882 0.065051 0.000000
vn -0.717901 0.696146 0.000000
vn -0.705604 0.065052 -0.705614
vn -0.507634 0.696142 -0.507636
vn 0.000002 0.065050 -0.997882
vn 0.000001 0.696135 -0.717911
vn 0.705606 0.065048 -0.705612
vn 0.507634 0.696141 -0.507637
vn 0.000003 -0.603491 0.797370
vn 0.563819 -0.603497 0.563825
vn -0.563817 -0.603493 0.563831
vn -0.797360 -0.603504 0.000000
vn -0.563817 -0.603493 -0.563831
vn 0.000003 -0.603491 -0.797370
vn 0.563819 -0.603497 -0.563825
vn 0.797360 -0.603504 0.000000
vn -0.690086 0.511758 0.511748
vn -0.690088 0.000004 0.723726
vn 0.017405 0.000004 0.999849
vn 0.017401 0.707006 0.706993
vn -0.690089 0.723725 -0.000001
vn 0.017400 0.999849 -0.000001
vn -0.690089 0.511753 -0.511749
vn 0.017402 0.707001 -0.706998
vn -0.690089 -0.000002 -0.723724
vn 0.017405 -0.000002 -0.999849
vn -0.690089 -0.511756 -0.511746
vn 0.017405 -0.707004 -0.706996
vn -0.690093 -0.723721 0.000001
vn 0.017400 -0.999849 0.000000
vn -0.690090 -0.511752 0.511748
vn 0.017403 -0.707002 0.706997
vn -0.647152 0.539070 0.539072
vn -0.647149 0.000000 0.762363
vn 0.044206 -0.000000 0.999022
vn 0.044205 0.706417 0.706414
vn -0.647154 0.762360 0.000000
vn 0.044203 0.999023 0.000000
vn -0.647153 0.539069 -0.539071
vn 0.044205 0.706417 -0.706414
vn -0.647151 0.000000 -0.762362
vn 0.044206 0.000000 -0.999022
vn -0.647154 -0.539070 -0.539069
vn 0.044204 -0.706417 -0.706414
vn -0.647154 -0.762360 0.000000
vn 0.044201 -0.999023 0.000000
vn -0.647153 -0.539071 0.539070
vn 0.044204 -0.706417 0.706414
vn 0.713098 0.000003 0.701064
vn 0.713097 0.495733 0.495724
vn 0.713094 0.701068 -0.000001
vn 0.713101 0.495725 -0.495725
vn 0.713100 -0.000001 -0.701063
vn 0.713105 -0.495723 -0.495722
vn 0.713100 -0.701062 -0.000001
vn 0.713102 -0.495726 0.495722
vn 0.707767 -0.000000 0.706446
vn 0.707768 0.499535 0.499529
vn 0.707765 0.706448 0.000000
vn 0.707769 0.499535 -0.499528
vn 0.707769 0.000000 -0.706444
vn 0.707768 -0.499534 -0.499531
vn 0.707765 -0.706448 0.000000
vn 0.707767 -0.499534 0.499532
vn 0.065033 -0.705613 0.705607
vn 0.065033 -0.997883 0.000000
vn 0.696124 -0.717922 0.000000
vn 0.696126 -0.507649 0.507643
vn 0.065032 -0.000000 0.997883
vn 0.696126 -0.000000 0.717920
vn 0.065034 0.705612 0.705607
vn 0.696126 0.507649 0.507643
vn 0.065037 0.997883 -0.000000
vn 0.696126 0.717920 -0.000001
vn 0.065034 0.705614 -0.705605
vn 0.696126 0.507652 -0.507640
vn 0.065031 0.000002 -0.997883
vn 0.696128 0.000003 -0.717918
vn 0.065032 -0.705615 -0.705605
vn 0.696126 -0.507651 -0.507641
vn -0.603507 0.000000 0.797358
vn -0.603505 -0.563820 0.563816
vn -0.603502 0.563820 0.563819
vn -0.603500 0.797363 0.000000
vn -0.603503 0.563820 -0.563818
vn -0.603509 0.000000 -0.797357
vn -0.603506 -0.563820 -0.563815
vn -0.603504 -0.797360 0.000000
vn -0.690094 0.511741 0.511753
vn -0.690088 0.000001 0.723726
vn 0.017401 0.000000 0.999849
vn 0.017399 0.706997 0.707003
vn -0.690097 0.723717 0.000001
vn 0.017401 0.999849 0.000001
vn -0.690093 0.511745 -0.511751
vn 0.017399 0.707002 -0.706997
vn -0.690089 0.000001 -0.723724
vn 0.017399 0.000002 -0.999849
vn -0.690097 -0.511740 -0.511750
vn 0.017400 -0.706999 -0.707001
vn -0.690102 -0.723713 -0.000001
vn 0.017399 -0.999849 -0.000002
vn -0.690094 -0.511744 0.511750
vn 0.017401 -0.707001 0.706999
vn -0.647135 0.539086 0.539076
vn -0.647137 0.000000 0.762374
vn 0.044226 0.000003 0.999022
vn 0.044228 0.706423 0.706407
vn -0.647133 0.762377 -0.000002
vn 0.044228 0.999021 -0.000002
vn -0.647138 0.539083 -0.539075
vn 0.044228 0.706419 -0.706411
vn -0.647138 0.000000 -0.762373
vn 0.044227 0.000000 -0.999022
vn -0.647138 -0.539080 -0.539078
vn 0.044225 -0.706419 -0.706411
vn -0.647135 -0.762376 -0.000003
vn 0.044228 -0.999021 -0.000001
vn -0.647134 -0.539085 0.539078
vn 0.044229 -0.706420 0.706410
vn 0.713098 -0.000001 0.701064
vn 0.713100 0.495727 0.495725
vn 0.713103 0.701059 0.000001
vn 0.713098 0.495734 -0.495721
vn 0.713100 0.000003 -0.701062
vn 0.713103 -0.495728 -0.495719
vn 0.713105 -0.701057 -0.000001
vn 0.713101 -0.495730 0.495721
vn 0.707783 0.000004 0.706430
vn 0.707780 0.499530 0.499517
vn 0.707782 0.706430 -0.000001
vn 0.707785 0.499522 -0.499518
vn 0.707785 0.000001 -0.706428
vn 0.707783 -0.499527 -0.499517
vn 0.707781 -0.706432 0.000001
vn 0.707783 -0.499525 0.499518
vn 0.065060 -0.705610 0.705607
vn 0.065065 -0.997881 -0.000002
vn 0.696151 -0.717895 0.000000
vn 0.696145 -0.507631 0.507635
vn 0.065053 0.000000 0.997882
vn 0.696141 0.000001 0.717905
vn 0.065062 0.705610 0.705607
vn 0.696145 0.507630 0.507635
vn 0.065064 0.997881 -0.000001
vn 0.696148 0.717899 0.000001
vn 0.065057 0.705612 -0.705606
vn 0.696144 0.507634 -0.507634
vn 0.065053 0.000004 -0.997882
vn 0.696143 0.000001 -0.717903
vn 0.065056 -0.705608 -0.705610
vn 0.696146 -0.507630 -0.507634
vn -0.603494 0.000000 0.797367
vn -0.603487 -0.563832 0.563823
vn -0.603485 0.563834 0.563824
vn -0.603482 0.797377 -0.000003
vn -0.603488 0.563832 -0.563823
vn -0.603496 0.000006 -0.797366
vn -0.603492 -0.563825 -0.563825
vn -0.603486 -0.797374 -0.000003
vn 0.006955 -0.022646 0.999719
vn 0.002181 -0.033379 0.999440
vn -0.012928 -0.015481 0.999797
vn -0.041628 -0.012852 0.999050
vn 0.108618 0.096248 0.989413
vn 0.108618 0.096248 0.989413
vn 0.523367 -0.851927 -0.017563
vn 0.523367 -0.851927 -0.017563
vn -0.527200 -0.849454 -0.022120
vn -0.124657 0.086732 0.988402
vn -0.124657 0.086732 0.988402
vn -0.527200 -0.849454 -0.022120
vn -0.156885 -0.029587 -0.987174
vn -0.528285 0.848927 0.015415
vn -0.528285 0.848927 0.015415
vn -0.156885 -0.029587 -0.987174
vn 0.157721 -0.039024 -0.986712
vn 0.529764 0.847887 0.020919
vn 0.529764 0.847887 0.020919
vn 0.157721 -0.039024 -0.986712
vn -0.002862 -0.004335 0.999987
vn -0.005772 -0.002027 0.999981
vn -0.023536 -0.008337 0.999688
vn 0.017055 -0.008365 0.999820
vn 0.000995 -0.037433 0.999299
vn -0.002283 -0.031256 0.999509
vn 0.013545 -0.014964 0.999796
vn -0.005745 -0.016463 0.999848
vn -0.007944 -0.018935 0.999789
vn 0.047133 -0.011941 0.998817
vn -0.001482 -0.002220 0.999996
vn 0.012733 -0.008906 0.999879
vn -0.004436 -0.028834 0.999574
vn 0.026581 -0.014358 0.999544
vn -0.001357 -0.006717 0.999977
vn 0.010689 0.004383 0.999933
vn 0.007279 -0.011862 0.999903
vn -0.043145 -0.010176 0.999017
vn -0.002846 -0.014555 0.999890
vn 0.000461 -0.029640 0.999561
vn 0.009826 0.001725 0.999950
vn 0.034260 -0.000696 0.999413
vn -0.033705 0.003521 0.999426
vn -0.009712 0.002070 0.999951
vn -0.004182 0.002933 0.999987
vn 0.004117 0.001343 0.999991
vn -0.002067 0.001401 0.999997
vn 0.002018 0.002262 0.999995
vn 0.030974 0.004353 0.999511
vn -0.031296 -0.002053 0.999508
vn 0.007455 -0.004943 0.999960
vn 0.028225 0.007917 0.999570
vn -0.007384 0.008791 0.999934
vn 0.009775 -0.003385 0.999947
vn -0.024906 -0.003740 0.999683
vn -0.008510 0.007163 0.999938
vn 0.012395 -0.003574 0.999917
vn -0.012181 0.005242 0.999912
vn 0.019320 0.001247 0.999813
vn -0.018950 0.002355 0.999818
vn 0.009256 0.001820 0.999956
vn -0.009386 0.002140 0.999954
vn -0.030255 0.000029 0.999542
vn 0.029708 0.003085 0.999554
vn -0.006955 0.022646 -0.999719
vn 0.041628 0.012852 -0.999050
vn 0.012928 0.015481 -0.999797
vn -0.002181 0.033379 -0.999440
vn 0.002862 0.004335 -0.999987
vn -0.017055 0.008365 -0.999820
vn 0.023536 0.008337 -0.999688
vn 0.005772 0.002027 -0.999981
vn -0.000995 0.037433 -0.999299
vn 0.005745 0.016463 -0.999848
vn -0.013545 0.014964 -0.999796
vn 0.002283 0.031256 -0.999509
vn -0.047133 0.011941 -0.998817
vn 0.007944 0.018935 -0.999789
vn -0.012733 0.008906 -0.999879
vn 0.001482 0.002220 -0.999996
vn 0.004436 0.028834 -0.999574
vn -0.026581 0.014358 -0.999544
vn 0.001357 0.006717 -0.999977
vn -0.010689 -0.004383 -0.999933
vn 0.043145 0.010176 -0.999017
vn -0.007279 0.011862 -0.999903
vn 0.002846 0.014555 -0.999890
vn -0.000461 0.029640 -0.999561
vn -0.009826 -0.001725 -0.999950
vn 0.009712 -0.002070 -0.999951
vn 0.033705 -0.003521 -0.999426
vn -0.034260 0.000696 -0.999413
vn 0.004182 -0.002933 -0.999987
vn -0.004117 -0.001343 -0.999991
vn 0.002067 -0.001401 -0.999997
vn -0.002018 -0.002262 -0.999995
vn 0.031296 0.002052 -0.999508
vn -0.030974 -0.004353 -0.999511
vn -0.007455 0.004943 -0.999960
vn -0.028225 -0.007917 -0.999570
vn -0.009775 0.003385 -0.999947
vn 0.007384 -0.008791 -0.999934
vn 0.024906 0.003740 -0.999683
vn 0.008510 -0.007163 -0.999938
vn -0.012395 0.003574 -0.999917
vn 0.012180 -0.005242 -0.999912
vn -0.019320 -0.001247 -0.999813
vn 0.018950 -0.002355 -0.999818
vn 0.009386 -0.002140 -0.999954
vn -0.009256 -0.001820 -0.999956
vn 0.030255 -0.000029 -0.999542
vn -0.029708 -0.003085 -0.999554
s 1
g polySurface26665
f 9/1/1 10/2/2 48/3/3 49/4/4
f 10/2/2 11/5/5 47/6/6 48/3/3
f 11/5/5 12/7/7 46/8/8 47/6/6
f 12/7/7 13/9/9 45/10/10 46/8/8
f 13/9/9 14/11/11 44/12/12 45/10/10
f 14/13/11 15/14/13 43/15/14 44/16/12
f 15/14/13 16/17/15 50/18/16 43/15/14
f 16/17/15 9/1/1 49/4/4 50/18/16
f 10/19/2 9/20/1 25/21/17
f 11/22/5 10/19/2 25/21/17
f 12/23/7 11/22/5 25/21/17
f 13/24/9 12/23/7 25/21/17
f 14/25/11 13/24/9 25/21/17
f 15/26/13 14/25/11 25/21/17
f 16/27/15 15/26/13 25/21/17
f 9/20/1 16/27/15 25/21/17
f 17/28/18 18/29/19 26/30/20
f 18/29/19 19/31/21 26/30/20
f 19/31/21 20/32/22 26/30/20
f 20/32/22 21/33/23 26/30/20
f 21/33/23 22/34/24 26/30/20
f 22/34/24 23/35/25 26/30/20
f 23/35/25 24/36/26 26/30/20
f 24/36/26 17/28/18 26/30/20
f 28/37/27 27/38/28 36/39/29 37/40/30
f 29/41/31 28/37/27 37/40/30 38/42/32
f 30/43/33 29/41/31 38/42/32 39/44/34
f 31/45/35 30/43/33 39/44/34 40/46/36
f 32/47/37 31/45/35 40/46/36 41/48/38
f 33/49/39 32/47/37 41/48/38 42/50/40
f 34/51/41 33/49/39 42/50/40 35/52/42
f 27/53/28 34/51/41 35/52/42 36/54/29
f 36/54/29 35/52/42 23/55/25 22/56/24
f 37/40/30 36/39/29 22/57/24 21/58/23
f 38/42/32 37/40/30 21/58/23 20/59/22
f 39/44/34 38/42/32 20/59/22 19/60/21
f 40/46/36 39/44/34 19/60/21 18/61/19
f 41/48/38 40/46/36 18/61/19 17/62/18
f 42/50/40 41/48/38 17/62/18 24/63/26
f 35/52/42 42/50/40 24/63/26 23/55/25
f 44/16/12 43/15/14 58/64/43 51/65/44
f 45/10/10 44/12/12 51/66/44 52/67/45
f 46/8/8 45/10/10 52/67/45 53/68/46
f 47/6/6 46/8/8 53/68/46 54/69/47
f 48/3/3 47/6/6 54/69/47 55/70/48
f 49/4/4 48/3/3 55/70/48 56/71/49
f 50/18/16 49/4/4 56/71/49 57/72/50
f 43/15/14 50/18/16 57/72/50 58/64/43
f 52/67/45 51/66/44 27/38/28 28/37/27
f 53/68/46 52/67/45 28/37/27 29/41/31
f 54/69/47 53/68/46 29/41/31 30/43/33
f 55/70/48 54/69/47 30/43/33 31/45/35
f 56/71/49 55/70/48 31/45/35 32/47/37
f 57/72/50 56/71/49 32/47/37 33/49/39
f 58/64/43 57/72/50 33/49/39 34/51/41
f 51/65/44 58/64/43 34/51/41 27/53/28
s 2
f 60/73/51 59/74/52 82/75/53 75/76/54
f 61/77/55 60/73/51 75/76/54 76/78/56
f 62/79/57 61/77/55 76/78/56 77/80/58
f 63/81/59 62/79/57 77/80/58 78/82/60
f 64/83/61 63/81/59 78/82/60 79/84/62
f 65/85/63 64/83/61 79/84/62 80/86/64
f 66/87/65 65/88/63 80/89/64 81/90/66
f 59/74/52 66/87/65 81/90/66 82/75/53
s 3
f 68/91/67 67/92/68 7/93/69 6/94/70
f 69/95/71 68/91/67 6/94/70 5/96/72
f 70/97/73 69/95/71 5/96/72 4/98/74
f 71/99/75 70/97/73 4/98/74 3/100/76
f 72/101/77 71/99/75 3/100/76 2/102/78
f 73/103/79 72/101/77 2/102/78 1/104/80
f 74/105/81 73/106/79 1/107/80 8/108/82
f 67/92/68 74/105/81 8/108/82 7/93/69
s 4
f 134/109/83 133/110/84 135/111/85 136/112/86
f 137/113/87 134/109/83 136/112/86 138/114/88
f 139/115/89 137/113/87 138/114/88 140/116/90
f 141/117/91 139/115/89 140/116/90 142/118/92
f 143/119/93 141/117/91 142/118/92 144/120/94
f 145/121/95 143/122/93 144/123/94 146/124/96
f 147/125/97 145/121/95 146/124/96 148/126/98
f 133/110/84 147/125/97 148/126/98 135/111/85
s 5
f 83/127/99 84/128/100 122/129/101 123/130/102
f 84/128/100 85/131/103 121/132/104 122/129/101
f 85/131/103 86/133/105 120/134/106 121/132/104
f 86/133/105 87/135/107 119/136/108 120/134/106
f 87/135/107 88/137/109 118/138/110 119/136/108
f 88/139/109 89/140/111 117/141/112 118/142/110
f 89/140/111 90/143/113 124/144/114 117/141/112
f 90/143/113 83/127/99 123/130/102 124/144/114
f 84/145/100 83/146/99 99/147/115
f 85/148/103 84/145/100 99/147/115
f 86/149/105 85/148/103 99/147/115
f 87/150/107 86/149/105 99/147/115
f 88/151/109 87/150/107 99/147/115
f 89/152/111 88/151/109 99/147/115
f 90/153/113 89/152/111 99/147/115
f 83/146/99 90/153/113 99/147/115
f 91/154/116 92/155/117 100/156/118
f 92/155/117 93/157/119 100/156/118
f 93/157/119 94/158/120 100/156/118
f 94/158/120 95/159/121 100/156/118
f 95/159/121 96/160/122 100/156/118
f 96/160/122 97/161/123 100/156/118
f 97/161/123 98/162/124 100/156/118
f 98/162/124 91/154/116 100/156/118
f 102/163/125 101/164/126 110/165/127 111/166/128
f 103/167/129 102/163/125 111/166/128 112/168/130
f 104/169/131 103/167/129 112/168/130 113/170/132
f 105/171/133 104/169/131 113/170/132 114/172/134
f 106/173/135 105/171/133 114/172/134 115/174/136
f 107/175/137 106/173/135 115/174/136 116/176/138
f 108/177/139 107/175/137 116/176/138 109/178/140
f 101/179/126 108/177/139 109/178/140 110/180/127
f 110/180/127 109/178/140 97/181/123 96/182/122
f 111/166/128 110/165/127 96/183/122 95/184/121
f 112/168/130 111/166/128 95/184/121 94/185/120
f 113/170/132 112/168/130 94/185/120 93/186/119
f 114/172/134 113/170/132 93/186/119 92/187/117
f 115/174/136 114/172/134 92/187/117 91/188/116
f 116/176/138 115/174/136 91/188/116 98/189/124
f 109/178/140 116/176/138 98/189/124 97/181/123
f 118/142/110 117/141/112 132/190/141 125/191/142
f 119/136/108 118/138/110 125/192/142 126/193/143
f 120/134/106 119/136/108 126/193/143 127/194/144
f 121/132/104 120/134/106 127/194/144 128/195/145
f 122/129/101 121/132/104 128/195/145 129/196/146
f 123/130/102 122/129/101 129/196/146 130/197/147
f 124/144/114 123/130/102 130/197/147 131/198/148
f 117/141/112 124/144/114 131/198/148 132/190/141
f 126/193/143 125/192/142 101/164/126 102/163/125
f 127/194/144 126/193/143 102/163/125 103/167/129
f 128/195/145 127/194/144 103/167/129 104/169/131
f 129/196/146 128/195/145 104/169/131 105/171/133
f 130/197/147 129/196/146 105/171/133 106/173/135
f 131/198/148 130/197/147 106/173/135 107/175/137
f 132/190/141 131/198/148 107/175/137 108/177/139
f 125/191/142 132/190/141 108/177/139 101/179/126
s 6
f 76/199/149 75/200/150 133/110/151 134/109/152
s 7
f 68/201/153 69/202/154 136/112/155 135/111/156
s 6
f 77/203/157 76/199/149 134/109/152 137/113/158
s 7
f 69/202/154 70/204/159 138/114/160 136/112/155
s 6
f 78/205/161 77/203/157 137/113/158 139/115/162
s 7
f 70/204/159 71/206/163 140/116/164 138/114/160
s 6
f 79/207/165 78/205/161 139/115/162 141/117/166
s 7
f 71/206/163 72/208/167 142/118/168 140/116/164
s 6
f 80/209/169 79/207/165 141/117/166 143/119/170
s 7
f 72/208/167 73/210/171 144/120/172 142/118/168
s 6
f 81/211/173 80/212/169 143/122/170 145/121/174
s 7
f 73/213/171 74/214/175 146/124/176 144/123/172
s 6
f 82/215/177 81/211/173 145/121/174 147/125/178
s 7
f 74/214/175 67/216/179 148/126/180 146/124/176
s 6
f 75/200/150 82/215/177 147/125/178 133/110/151
s 7
f 67/216/179 68/201/153 135/111/156 148/126/180
s 8
f 149/217/181 150/218/182 188/219/183 189/220/184
f 150/218/182 151/221/185 187/222/186 188/219/183
f 151/221/185 152/223/187 186/224/188 187/222/186
f 152/223/187 153/225/189 185/226/190 186/224/188
f 153/225/189 154/227/191 184/228/192 185/226/190
f 154/229/191 155/230/193 183/231/194 184/232/192
f 155/230/193 156/233/195 190/234/196 183/231/194
f 156/233/195 149/217/181 189/220/184 190/234/196
f 150/235/182 149/236/181 165/237/197
f 151/238/185 150/235/182 165/237/197
f 152/239/187 151/238/185 165/237/197
f 153/240/189 152/239/187 165/237/197
f 154/241/191 153/240/189 165/237/197
f 155/242/193 154/241/191 165/237/197
f 156/243/195 155/242/193 165/237/197
f 149/236/181 156/243/195 165/237/197
f 157/244/198 158/245/199 166/246/200
f 158/245/199 159/247/201 166/246/200
f 159/247/201 160/248/202 166/246/200
f 160/248/202 161/249/203 166/246/200
f 161/249/203 162/250/204 166/246/200
f 162/250/204 163/251/205 166/246/200
f 163/251/205 164/252/206 166/246/200
f 164/252/206 157/244/198 166/246/200
f 168/253/207 167/254/208 176/255/209 177/256/210
f 169/257/211 168/253/207 177/256/210 178/258/212
f 170/259/213 169/257/211 178/258/212 179/260/214
f 171/261/215 170/259/213 179/260/214 180/262/216
f 172/263/217 171/261/215 180/262/216 181/264/218
f 173/265/219 172/263/217 181/264/218 182/266/220
f 174/267/221 173/265/219 182/266/220 175/268/222
f 167/269/208 174/267/221 175/268/222 176/270/209
f 176/270/209 175/268/222 163/271/205 162/272/204
f 177/256/210 176/255/209 162/273/204 161/274/203
f 178/258/212 177/256/210 161/274/203 160/275/202
f 179/260/214 178/258/212 160/275/202 159/276/201
f 180/262/216 179/260/214 159/276/201 158/277/199
f 181/264/218 180/262/216 158/277/199 157/278/198
f 182/266/220 181/264/218 157/278/198 164/279/206
f 175/268/222 182/266/220 164/279/206 163/271/205
f 184/232/192 183/231/194 198/280/223 191/281/224
f 185/226/190 184/228/192 191/282/224 192/283/225
f 186/224/188 185/226/190 192/283/225 193/284/226
f 187/222/186 186/224/188 193/284/226 194/285/227
f 188/219/183 187/222/186 194/285/227 195/286/228
f 189/220/184 188/219/183 195/286/228 196/287/229
f 190/234/196 189/220/184 196/287/229 197/288/230
f 183/231/194 190/234/196 197/288/230 198/280/223
f 192/283/225 191/282/224 167/254/208 168/253/207
f 193/284/226 192/283/225 168/253/207 169/257/211
f 194/285/227 193/284/226 169/257/211 170/259/213
f 195/286/228 194/285/227 170/259/213 171/261/215
f 196/287/229 195/286/228 171/261/215 172/263/217
f 197/288/230 196/287/229 172/263/217 173/265/219
f 198/280/223 197/288/230 173/265/219 174/267/221
f 191/281/224 198/280/223 174/267/221 167/269/208
s 9
f 199/289/231 200/290/232 208/291/233 207/292/234
f 200/290/232 201/293/235 209/294/236 208/291/233
f 201/293/235 202/295/237 210/296/238 209/294/236
f 202/295/237 203/297/239 211/298/240 210/296/238
f 203/297/239 204/299/241 212/300/242 211/298/240
f 204/299/241 205/301/243 213/302/244 212/300/242
f 205/301/243 206/303/245 214/304/246 213/302/244
f 206/303/245 199/305/231 207/306/234 214/304/246
s 10
f 215/307/247 216/308/248 254/309/249 255/310/250
f 216/308/248 217/311/251 253/312/252 254/309/249
f 217/311/251 218/313/253 252/314/254 253/312/252
f 218/313/253 219/315/255 251/316/256 252/314/254
f 219/315/255 220/317/257 250/318/258 251/316/256
f 220/319/257 221/320/259 249/321/260 250/322/258
f 221/320/259 222/323/261 256/324/262 249/321/260
f 222/323/261 215/307/247 255/310/250 256/324/262
f 216/325/248 215/326/247 231/327/263
f 217/328/251 216/325/248 231/327/263
f 218/329/253 217/328/251 231/327/263
f 219/330/255 218/329/253 231/327/263
f 220/331/257 219/330/255 231/327/263
f 221/332/259 220/331/257 231/327/263
f 222/333/261 221/332/259 231/327/263
f 215/326/247 222/333/261 231/327/263
f 223/334/264 224/335/265 232/336/266
f 224/335/265 225/337/267 232/336/266
f 225/337/267 226/338/268 232/336/266
f 226/338/268 227/339/269 232/336/266
f 227/339/269 228/340/270 232/336/266
f 228/340/270 229/341/271 232/336/266
f 229/341/271 230/342/272 232/336/266
f 230/342/272 223/334/264 232/336/266
f 234/343/273 233/344/274 242/345/275 243/346/276
f 235/347/277 234/343/273 243/346/276 244/348/278
f 236/349/279 235/347/277 244/348/278 245/350/280
f 237/351/281 236/349/279 245/350/280 246/352/282
f 238/353/283 237/351/281 246/352/282 247/354/284
f 239/355/285 238/353/283 247/354/284 248/356/286
f 240/357/287 239/355/285 248/356/286 241/358/288
f 233/359/274 240/357/287 241/358/288 242/360/275
f 242/360/275 241/358/288 229/361/271 228/362/270
f 243/346/276 242/345/275 228/363/270 227/364/269
f 244/348/278 243/346/276 227/364/269 226/365/268
f 245/350/280 244/348/278 226/365/268 225/366/267
f 246/352/282 245/350/280 225/366/267 224/367/265
f 247/354/284 246/352/282 224/367/265 223/368/264
f 248/356/286 247/354/284 223/368/264 230/369/272
f 241/358/288 248/356/286 230/369/272 229/361/271
f 250/322/258 249/321/260 264/370/289 257/371/290
f 251/316/256 250/318/258 257/372/290 258/373/291
f 252/314/254 251/316/256 258/373/291 259/374/292
f 253/312/252 252/314/254 259/374/292 260/375/293
f 254/309/249 253/312/252 260/375/293 261/376/294
f 255/310/250 254/309/249 261/376/294 262/377/295
f 256/324/262 255/310/250 262/377/295 263/378/296
f 249/321/260 256/324/262 263/378/296 264/370/289
f 258/373/291 257/372/290 233/344/274 234/343/273
f 259/374/292 258/373/291 234/343/273 235/347/277
f 260/375/293 259/374/292 235/347/277 236/349/279
f 261/376/294 260/375/293 236/349/279 237/351/281
f 262/377/295 261/376/294 237/351/281 238/353/283
f 263/378/296 262/377/295 238/353/283 239/355/285
f 264/370/289 263/378/296 239/355/285 240/357/287
f 257/371/290 264/370/289 240/357/287 233/359/274
s 11
f 266/379/297 265/380/298 289/381/299 290/382/300
f 267/383/301 266/379/297 290/382/300 291/384/302
f 268/385/303 267/383/301 291/384/302 292/386/304
f 269/387/305 268/385/303 292/386/304 293/388/306
f 270/389/307 269/387/305 293/388/306 294/390/308
f 271/391/309 270/392/307 294/393/308 295/394/310
f 272/395/311 271/391/309 295/394/310 296/396/312
f 265/380/298 272/395/311 296/396/312 289/381/299
s 12
f 274/397/313 273/398/314 297/399/315 298/400/316
f 275/401/317 274/397/313 298/400/316 299/402/318
f 276/403/319 275/401/317 299/402/318 300/404/320
f 277/405/321 276/403/319 300/404/320 301/406/322
f 278/407/323 277/405/321 301/406/322 302/408/324
f 279/409/325 278/410/323 302/411/324 303/412/326
f 280/413/327 279/409/325 303/412/326 304/414/328
f 273/398/314 280/413/327 304/414/328 297/399/315
s 11
f 290/382/300 289/381/299 281/415/329 282/416/330
f 291/384/302 290/382/300 282/416/330 283/417/331
f 292/386/304 291/384/302 283/417/331 284/418/332
f 293/388/306 292/386/304 284/418/332 285/419/333
f 294/390/308 293/388/306 285/419/333 286/420/334
f 295/394/310 294/393/308 286/421/334 287/422/335
f 296/396/312 295/394/310 287/422/335 288/423/336
f 289/381/299 296/396/312 288/423/336 281/415/329
s 12
f 298/400/316 297/399/315 265/380/337 266/379/338
f 299/402/318 298/400/316 266/379/338 267/383/339
f 300/404/320 299/402/318 267/383/339 268/385/340
f 301/406/322 300/404/320 268/385/340 269/387/341
f 302/408/324 301/406/322 269/387/341 270/389/342
f 303/412/326 302/411/324 270/392/342 271/391/343
f 304/414/328 303/412/326 271/391/343 272/395/344
f 297/399/315 304/414/328 272/395/344 265/380/337
s 13
f 306/424/345 305/425/346 279/409/347 280/413/348
f 307/426/349 306/424/345 280/413/348 273/398/350
f 308/427/351 307/426/349 273/398/350 274/397/352
f 309/428/353 308/427/351 274/397/352 275/401/354
f 310/429/355 309/428/353 275/401/354 276/403/356
f 311/430/357 310/429/355 276/403/356 277/405/358
f 312/431/359 311/430/357 277/405/358 278/407/360
f 305/425/346 312/432/359 278/410/360 279/409/347
f 307/426/349 314/433/361 313/434/362 306/424/345
f 308/427/351 315/435/363 314/433/361 307/426/349
f 309/428/353 316/436/364 315/435/363 308/427/351
f 310/429/355 317/437/365 316/436/364 309/428/353
f 311/430/357 318/438/366 317/437/365 310/429/355
f 312/431/359 319/439/367 318/438/366 311/430/357
f 305/425/346 320/440/368 319/441/367 312/432/359
f 306/424/345 313/434/362 320/440/368 305/425/346
s 14
f 322/442/369 321/443/370 345/444/371 346/445/372
f 323/446/373 322/442/369 346/445/372 347/447/374
f 324/448/375 323/446/373 347/447/374 348/449/376
f 325/450/377 324/448/375 348/449/376 349/451/378
f 326/452/379 325/450/377 349/451/378 350/453/380
f 327/454/381 326/455/379 350/456/380 351/457/382
f 328/458/383 327/454/381 351/457/382 352/459/384
f 321/443/370 328/458/383 352/459/384 345/444/371
s 15
f 330/460/385 329/461/386 353/462/387 354/463/388
f 331/464/389 330/460/385 354/463/388 355/465/390
f 332/466/391 331/464/389 355/465/390 356/467/392
f 333/468/393 332/466/391 356/467/392 357/469/394
f 334/470/395 333/468/393 357/469/394 358/471/396
f 335/472/397 334/473/395 358/474/396 359/475/398
f 336/476/399 335/472/397 359/475/398 360/477/400
f 329/461/386 336/476/399 360/477/400 353/462/387
s 14
f 346/445/372 345/444/371 337/478/401 338/479/402
f 347/447/374 346/445/372 338/479/402 339/480/403
f 348/449/376 347/447/374 339/480/403 340/481/404
f 349/451/378 348/449/376 340/481/404 341/482/405
f 350/453/380 349/451/378 341/482/405 342/483/406
f 351/457/382 350/456/380 342/484/406 343/485/407
f 352/459/384 351/457/382 343/485/407 344/486/408
f 345/444/371 352/459/384 344/486/408 337/478/401
s 15
f 354/463/388 353/462/387 321/443/409 322/442/410
f 355/465/390 354/463/388 322/442/410 323/446/411
f 356/467/392 355/465/390 323/446/411 324/448/412
f 357/469/394 356/467/392 324/448/412 325/450/413
f 358/471/396 357/469/394 325/450/413 326/452/414
f 359/475/398 358/474/396 326/455/414 327/454/415
f 360/477/400 359/475/398 327/454/415 328/458/416
f 353/462/387 360/477/400 328/458/416 321/443/409
s 16
f 362/487/417 361/488/418 335/472/419 336/476/420
f 363/489/421 362/487/417 336/476/420 329/461/422
f 364/490/423 363/489/421 329/461/422 330/460/424
f 365/491/425 364/490/423 330/460/424 331/464/426
f 366/492/427 365/491/425 331/464/426 332/466/428
f 367/493/429 366/492/427 332/466/428 333/468/430
f 368/494/431 367/493/429 333/468/430 334/470/432
f 361/488/418 368/495/431 334/473/432 335/472/419
f 363/489/421 370/496/433 369/497/434 362/487/417
f 364/490/423 371/498/435 370/496/433 363/489/421
f 365/491/425 372/499/436 371/498/435 364/490/423
f 366/492/427 373/500/437 372/499/436 365/491/425
f 367/493/429 374/501/438 373/500/437 366/492/427
f 368/494/431 375/502/439 374/501/438 367/493/429
f 361/488/418 376/503/440 375/504/439 368/495/431
f 362/487/417 369/497/434 376/503/440 361/488/418
s 17
f 378/505/441 377/506/442 401/507/443 402/508/444
f 379/509/445 378/505/441 402/508/444 403/510/446
f 380/511/447 379/509/445 403/510/446 404/512/448
f 381/513/449 380/511/447 404/512/448 405/514/450
f 382/515/451 381/513/449 405/514/450 406/516/452
f 383/517/453 382/518/451 406/519/452 407/520/454
f 384/521/455 383/517/453 407/520/454 408/522/456
f 377/506/442 384/521/455 408/522/456 401/507/443
s 18
f 386/523/457 385/524/458 409/525/459 410/526/460
f 387/527/461 386/523/457 410/526/460 411/528/462
f 388/529/463 387/527/461 411/528/462 412/530/464
f 389/531/465 388/529/463 412/530/464 413/532/466
f 390/533/467 389/531/465 413/532/466 414/534/468
f 391/535/469 390/536/467 414/537/468 415/538/470
f 392/539/471 391/535/469 415/538/470 416/540/472
f 385/524/458 392/539/471 416/540/472 409/525/459
s 17
f 402/508/444 401/507/443 393/541/473 394/542/474
f 403/510/446 402/508/444 394/542/474 395/543/475
f 404/512/448 403/510/446 395/543/475 396/544/476
f 405/514/450 404/512/448 396/544/476 397/545/477
f 406/516/452 405/514/450 397/545/477 398/546/478
f 407/520/454 406/519/452 398/547/478 399/548/479
f 408/522/456 407/520/454 399/548/479 400/549/480
f 401/507/443 408/522/456 400/549/480 393/541/473
s 18
f 410/526/460 409/525/459 377/506/481 378/505/482
f 411/528/462 410/526/460 378/505/482 379/509/483
f 412/530/464 411/528/462 379/509/483 380/511/484
f 413/532/466 412/530/464 380/511/484 381/513/485
f 414/534/468 413/532/466 381/513/485 382/515/486
f 415/538/470 414/537/468 382/518/486 383/517/487
f 416/540/472 415/538/470 383/517/487 384/521/488
f 409/525/459 416/540/472 384/521/488 377/506/481
s 19
f 418/550/489 417/551/490 391/535/491 392/539/492
f 419/552/493 418/550/489 392/539/492 385/524/494
f 420/553/495 419/552/493 385/524/494 386/523/496
f 421/554/497 420/553/495 386/523/496 387/527/498
f 422/555/499 421/554/497 387/527/498 388/529/500
f 423/556/501 422/555/499 388/529/500 389/531/502
f 424/557/503 423/556/501 389/531/502 390/533/504
f 417/551/490 424/558/503 390/536/504 391/535/491
f 419/552/493 426/559/505 425/560/506 418/550/489
f 420/553/495 427/561/507 426/559/505 419/552/493
f 421/554/497 428/562/508 427/561/507 420/553/495
f 422/555/499 429/563/509 428/562/508 421/554/497
f 423/556/501 430/564/510 429/563/509 422/555/499
f 424/557/503 431/565/511 430/564/510 423/556/501
f 417/551/490 432/566/512 431/567/511 424/558/503
f 418/550/489 425/560/506 432/566/512 417/551/490
s 20
f 433/568/513 463/569/514 495/570/515 496/571/516
s 21
f 445/572/517 446/573/518 443/574/519 442/575/520
s 22
f 440/576/521 451/577/522 452/578/523 441/579/524
s 21
f 447/580/525 444/581/526 437/582/527 448/583/528
f 448/583/528 442/584/520 443/585/519 447/580/525
s 22
f 449/586/529 438/587/530 439/588/531 450/589/532
f 450/589/532 440/590/521 441/591/524 449/586/529
s 21
f 444/581/526 446/573/518 445/572/517 437/582/527
s 22
f 452/578/523 451/577/522 439/588/531 438/587/530
s 20
f 453/592/533 459/593/534 492/594/535 493/595/536
f 455/596/537 457/597/538 486/598/539 487/599/540
f 457/597/538 434/600/541 485/601/542 486/598/539
f 459/593/534 465/602/543 491/603/544 492/594/535
f 461/604/545 453/592/533 493/595/536 494/605/546
f 494/605/546 495/570/515 463/569/514 461/604/545
f 490/606/547 491/603/544 465/602/543 467/607/548
f 467/607/548 469/608/549 489/609/550 490/606/547
f 488/610/551 489/609/550 469/608/549 471/611/552
f 471/611/552 455/596/537 487/599/540 488/610/551
f 474/612/553 473/613/554 436/614/555 458/615/556
f 475/616/557 474/612/553 458/615/556 456/617/558
f 476/618/559 475/616/557 456/617/558 472/619/560
f 472/619/560 470/620/561 477/621/562 476/618/559
f 478/622/563 477/621/562 470/620/561 468/623/564
f 468/623/564 466/624/565 479/625/566 478/622/563
f 480/626/567 479/625/566 466/624/565 460/627/568
f 481/628/569 480/626/567 460/627/568 454/629/570
f 482/630/571 481/628/569 454/629/570 462/631/572
f 462/631/572 464/632/573 483/633/574 482/630/571
f 484/634/575 483/633/574 464/632/573 435/635/576
f 486/598/539 485/601/542 473/613/554 474/612/553
f 487/599/540 486/598/539 474/612/553 475/616/557
f 488/610/551 487/599/540 475/616/557 476/618/559
f 476/618/559 477/621/562 489/609/550 488/610/551
f 490/606/547 489/609/550 477/621/562 478/622/563
f 478/622/563 479/625/566 491/603/544 490/606/547
f 492/594/535 491/603/544 479/625/566 480/626/567
f 493/595/536 492/594/535 480/626/567 481/628/569
f 494/605/546 493/595/536 481/628/569 482/630/571
f 482/630/571 483/633/574 495/570/515 494/605/546
f 496/571/516 495/570/515 483/633/574 484/634/575
s 23
f 497/636/577 544/637/578 543/638/579 511/639/580
f 501/640/581 541/641/582 540/642/583 507/643/584
f 503/644/585 535/645/586 534/646/587 505/647/588
f 505/647/588 534/646/587 533/648/589 498/649/590
f 507/643/584 540/642/583 539/650/591 513/651/592
f 509/652/593 542/653/594 541/641/582 501/640/581
f 542/653/594 509/652/593 511/639/580 543/638/579
f 538/654/595 515/655/596 513/651/592 539/650/591
f 515/655/596 538/654/595 537/656/597 517/657/598
f 536/658/599 519/659/600 517/657/598 537/656/597
f 519/659/600 536/658/599 535/645/586 503/644/585
f 522/660/601 506/661/602 500/662/603 521/663/604
f 523/664/605 504/665/606 506/661/602 522/660/601
f 524/666/607 520/667/608 504/665/606 523/664/605
f 520/667/608 524/666/607 525/668/609 518/669/610
f 526/670/611 516/671/612 518/669/610 525/668/609
f 516/671/612 526/670/611 527/672/613 514/673/614
f 528/674/615 508/675/616 514/673/614 527/672/613
f 529/676/617 502/677/618 508/675/616 528/674/615
f 530/678/619 510/679/620 502/677/618 529/676/617
f 510/679/620 530/678/619 531/680/621 512/681/622
f 532/682/623 499/683/624 512/681/622 531/680/621
f 534/646/587 522/660/601 521/663/604 533/648/589
f 535/645/586 523/664/605 522/660/601 534/646/587
f 536/658/599 524/666/607 523/664/605 535/645/586
f 524/666/607 536/658/599 537/656/597 525/668/609
f 538/654/595 526/670/611 525/668/609 537/656/597
f 526/670/611 538/654/595 539/650/591 527/672/613
f 540/642/583 528/674/615 527/672/613 539/650/591
f 541/641/582 529/676/617 528/674/615 540/642/583
f 542/653/594 530/678/619 529/676/617 541/641/582
f 530/678/619 542/653/594 543/638/579 531/680/621
f 544/637/578 532/682/623 531/680/621 543/638/579
