# This file uses centimeters as units for non-parametric coordinates.

g default
v -23.598545 0.760176 -0.092462
v -23.644777 0.760176 -0.080074
v -23.678619 0.760176 -0.046231
v -23.691008 0.760176 0.000000
v -23.678619 0.760176 0.046231
v -23.644777 0.760176 0.080074
v -23.598545 0.760176 0.092462
v -23.552317 0.760176 0.080074
v -23.518473 0.760176 0.046231
v -23.506084 0.760176 -0.000000
v -23.518473 0.760176 -0.046231
v -23.552317 0.760176 -0.080074
v -23.598545 0.922051 -0.112545
v -23.654818 0.922051 -0.097467
v -23.696012 0.922051 -0.056273
v -23.711090 0.922051 -0.000000
v -23.696012 0.922051 0.056273
v -23.654818 0.922051 0.097467
v -23.598545 0.922051 0.112545
v -23.542273 0.922051 0.097467
v -23.501080 0.922051 0.056273
v -23.486000 0.922051 -0.000000
v -23.501080 0.922051 -0.056272
v -23.542273 0.922051 -0.097467
v -23.598545 0.976036 -0.085746
v -23.641418 0.976036 -0.074258
v -23.672804 0.976036 -0.042873
v -23.684292 0.976036 -0.000000
v -23.672804 0.976036 0.042873
v -23.641418 0.976036 0.074258
v -23.598545 0.976036 0.085746
v -23.555674 0.976036 0.074258
v -23.524288 0.976036 0.042873
v -23.512800 0.976036 -0.000000
v -23.524288 0.976036 -0.042873
v -23.555674 0.976036 -0.074258
v -23.598545 1.022895 -0.057204
v -23.627148 1.022895 -0.049540
v -23.648087 1.022895 -0.028602
v -23.655750 1.022895 -0.000000
v -23.648087 1.022895 0.028602
v -23.627148 1.022895 0.049540
v -23.598545 1.022895 0.057204
v -23.569944 1.022895 0.049540
v -23.549006 1.022895 0.028602
v -23.541342 1.022895 0.000000
v -23.549006 1.022895 -0.028602
v -23.569944 1.022895 -0.049540
v -23.598545 1.084881 -0.039082
v -23.618088 1.084881 -0.033846
v -23.632391 1.084881 -0.019541
v -23.637629 1.084881 0.000000
v -23.632391 1.084881 0.019541
v -23.618088 1.084881 0.033846
v -23.598545 1.084881 0.039082
v -23.579004 1.084881 0.033846
v -23.564701 1.084881 0.019541
v -23.559464 1.084881 -0.000000
v -23.564701 1.084881 -0.019541
v -23.579004 1.084881 -0.033846
v -23.598545 1.248567 -0.024590
v -23.610840 1.248567 -0.021295
v -23.619843 1.248567 -0.012295
v -23.623135 1.248567 0.000000
v -23.619843 1.248567 0.012295
v -23.610840 1.248567 0.021296
v -23.598545 1.248567 0.024590
v -23.586250 1.248567 0.021296
v -23.577251 1.248567 0.012295
v -23.573956 1.248567 -0.000000
v -23.577251 1.248567 -0.012295
v -23.586250 1.248567 -0.021295
v -23.571724 1.159389 -0.000000
v -23.575315 1.159389 0.013411
v -23.585135 1.159389 0.023229
v -23.598545 1.159389 0.026823
v -23.611958 1.159389 0.023229
v -23.621777 1.159389 0.013412
v -23.625370 1.159389 0.000000
v -23.621775 1.159389 -0.013411
v -23.611958 1.159389 -0.023229
v -23.598545 1.159389 -0.026823
v -23.585135 1.159389 -0.023229
v -23.575315 1.159389 -0.013411
v -23.598545 1.253701 -0.029495
v -23.613295 1.253701 -0.025543
v -23.624088 1.253701 -0.014747
v -23.628040 1.253701 0.000000
v -23.624090 1.253701 0.014748
v -23.613295 1.253701 0.025544
v -23.598545 1.253701 0.029495
v -23.583799 1.253701 0.025544
v -23.573002 1.253701 0.014748
v -23.569050 1.253701 0.000000
v -23.573002 1.253701 -0.014748
v -23.583799 1.253701 -0.025544
v -23.598545 1.253021 -0.019746
v -23.608419 1.253021 -0.017100
v -23.598545 0.770349 0.000000
v -23.615646 1.253021 -0.009873
v -23.618292 1.253021 0.000000
v -23.615646 1.253021 0.009873
v -23.608419 1.253021 0.017101
v -23.598545 1.253021 0.019746
v -23.588673 1.253021 0.017101
v -23.581446 1.253021 0.009873
v -23.578798 1.253021 0.000000
v -23.581446 1.253021 -0.009873
v -23.588673 1.253021 -0.017100
v -23.574579 1.257933 0.000000
v -23.577787 1.257933 0.011984
v -23.586561 1.257933 0.020757
v -23.598545 1.257933 0.023968
v -23.610531 1.257933 0.020757
v -23.619303 1.257933 0.011984
v -23.622515 1.257933 0.000000
v -23.619303 1.257933 -0.011984
v -23.610531 1.257933 -0.020757
v -23.598545 1.257933 -0.023968
v -23.586561 1.257933 -0.020757
v -23.577787 1.257933 -0.011984
v -23.598545 0.752443 -0.081780
v -23.639437 0.752443 -0.070823
v -23.669371 0.752443 -0.040890
v -23.680326 0.752443 -0.000000
v -23.669371 0.752443 0.040890
v -23.639437 0.752443 0.070823
v -23.598545 0.752443 0.081780
v -23.557655 0.752443 0.070824
v -23.527723 0.752443 0.040890
v -23.516766 0.752443 0.000000
v -23.527723 0.752443 -0.040890
v -23.557655 0.752443 -0.070823
v -23.598545 0.748235 -0.079592
v -23.638342 0.748235 -0.068928
v -23.598545 0.754541 -0.000000
v -23.667475 0.748235 -0.039796
v -23.678137 0.748235 0.000000
v -23.667475 0.748235 0.039796
v -23.638342 0.748235 0.068929
v -23.598545 0.748235 0.079592
v -23.558750 0.748235 0.068929
v -23.529617 0.748235 0.039796
v -23.518953 0.748235 0.000000
v -23.529617 0.748235 -0.039796
v -23.558750 0.748235 -0.068929
v -23.598545 0.783213 0.103219
v -23.650156 0.783213 0.089390
v -23.687937 0.783213 0.051609
v -23.701765 0.783213 0.000000
v -23.687937 0.783213 -0.051609
v -23.650156 0.783213 -0.089389
v -23.598545 0.783213 -0.103218
v -23.546938 0.783213 -0.089389
v -23.509155 0.783213 -0.051609
v -23.495327 0.783213 -0.000000
v -23.509155 0.783213 0.051609
v -23.546938 0.783213 0.089390
v -23.497711 0.826159 0.058217
v -23.540329 0.826159 0.100835
v -23.598545 0.826159 0.116434
v -23.656763 0.826159 0.100835
v -23.699381 0.826159 0.058217
v -23.714979 0.826024 0.000000
v -23.699381 0.826024 -0.058217
v -23.656763 0.826024 -0.100834
v -23.598545 0.826159 -0.116434
v -23.540329 0.826159 -0.100835
v -23.497711 0.826159 -0.058217
v -23.482113 0.826159 0.000000
v -23.493166 0.873943 0.060841
v -23.537704 0.873943 0.105380
v -23.598545 0.873943 0.121682
v -23.659386 0.873943 0.105380
v -23.703926 0.873943 0.060841
v -23.720228 0.873695 -0.000000
v -23.703926 0.873695 -0.060841
v -23.659386 0.873695 -0.105380
v -23.598545 0.873943 -0.121682
v -23.537704 0.873943 -0.105380
v -23.493166 0.873943 -0.060841
v -23.476864 0.873943 0.000000
v -23.582859 1.230863 -0.009057
v -23.589489 1.230863 -0.015687
v -23.598545 1.230863 -0.018113
v -23.607603 1.230863 -0.015687
v -23.614231 1.230863 -0.009057
v -23.616659 1.230863 -0.000000
v -23.614231 1.230863 0.009057
v -23.607603 1.230863 0.015687
v -23.598545 1.230863 0.018113
v -23.589489 1.230863 0.015687
v -23.582859 1.230863 0.009057
v -23.580433 1.230863 -0.000000
v -23.578743 1.276593 -0.011432
v -23.587112 1.276593 -0.019801
v -23.598545 1.276593 -0.022865
v -23.609978 1.276593 -0.019801
v -23.618347 1.276593 -0.011432
v -23.621410 1.276593 -0.000000
v -23.618347 1.276593 0.011433
v -23.609978 1.276593 0.019802
v -23.598545 1.276593 0.022865
v -23.587112 1.276593 0.019802
v -23.578743 1.276593 0.011433
v -23.575680 1.276593 -0.000000
v -23.598545 1.230863 -0.000000
v -23.598545 1.276593 -0.000000
vt -0.270824 0.043409
vt -0.114009 0.043409
vt 0.015632 0.043409
vt 0.139023 0.043409
vt 0.260418 0.048714
vt 0.381708 0.049832
vt 0.503351 0.049832
vt 0.624895 0.049707
vt 0.746097 0.048802
vt 0.869425 0.043409
vt 0.991045 0.043409
vt 1.120705 0.043409
vt 1.279116 0.043409
vt -0.270824 0.252933
vt -0.114009 0.242345
vt 0.015632 0.238211
vt 0.139023 0.236645
vt 0.265529 0.231583
vt 0.385084 0.229954
vt 0.503335 0.229918
vt 0.622514 0.230125
vt 0.745052 0.231847
vt 0.874341 0.237060
vt 0.991045 0.238639
vt 1.120705 0.242270
vt 1.279116 0.252179
vt -0.224599 0.336640
vt -0.079898 0.320586
vt 0.042599 0.310818
vt 0.159192 0.306514
vt 0.272627 0.299522
vt 0.386503 0.297388
vt 0.503203 0.297405
vt 0.620033 0.297798
vt 0.734774 0.299526
vt 0.847277 0.306267
vt 0.964271 0.310893
vt 1.086788 0.320182
vt 1.234785 0.335660
vt -0.095222 0.402832
vt 0.002332 0.388823
vt 0.100579 0.379534
vt 0.199146 0.374142
vt 0.296354 0.371438
vt 0.397306 0.370418
vt 0.503375 0.370115
vt 0.609425 0.370205
vt 0.710383 0.371073
vt 0.807656 0.373727
vt 0.906374 0.379179
vt 1.005120 0.388522
vt 1.103458 0.402711
vt 0.619908 0.503954
vt 0.704574 0.465003
vt 0.504252 0.411795
vt 0.504252 0.518211
vt 0.388596 0.503954
vt 0.303930 0.465003
vt 0.272940 0.411795
vt 0.303930 0.358587
vt 0.388596 0.319636
vt 0.504252 0.305379
vt 0.619907 0.319636
vt 0.704574 0.358587
vt 0.151595 0.818009
vt 0.215543 0.818009
vt 0.279492 0.818009
vt 0.343440 0.818009
vt 0.407388 0.818009
vt 0.471336 0.818009
vt 0.535285 0.818009
vt 0.599233 0.818009
vt 0.663181 0.818009
vt 0.727129 0.818009
vt 0.791078 0.818009
vt 0.855026 0.818009
vt 0.035325 0.499697
vt 0.099005 0.489342
vt 0.170695 0.481871
vt 0.246773 0.477011
vt 0.331490 0.474049
vt 0.418738 0.472483
vt 0.503353 0.472008
vt 0.587998 0.472422
vt 0.675305 0.474014
vt 0.760081 0.476964
vt 0.836202 0.481862
vt 0.907825 0.489385
vt 0.971404 0.499811
vt 0.119621 0.723661
vt 0.183569 0.723661
vt 0.247518 0.723661
vt 0.311466 0.723661
vt 0.375414 0.723661
vt 0.439362 0.723661
vt 0.503311 0.723661
vt 0.567259 0.723661
vt 0.631207 0.723661
vt 0.695155 0.723661
vt 0.759103 0.723661
vt 0.823052 0.723661
vt 0.887000 0.723661
vt 0.708217 0.587011
vt 0.641430 0.587242
vt 0.577260 0.587338
vt 0.503216 0.587369
vt 0.429256 0.587341
vt 0.365157 0.587192
vt 0.298309 0.586983
vt 0.224865 0.586686
vt 0.158612 0.586212
vt 0.911520 0.585614
vt 0.095130 0.585534
vt 0.847993 0.586272
vt 0.781791 0.586712
vt 0.119621 0.741774
vt 0.183569 0.741774
vt 0.247518 0.741774
vt 0.311466 0.741774
vt 0.375414 0.741774
vt 0.439362 0.741774
vt 0.503311 0.741774
vt 0.567259 0.741774
vt 0.631207 0.741774
vt 0.695155 0.741774
vt 0.759103 0.741774
vt 0.823052 0.741774
vt 0.887000 0.741774
vt 0.119621 0.771357
vt 0.183569 0.771357
vt 0.247518 0.771357
vt 0.311466 0.771357
vt 0.375414 0.771357
vt 0.439362 0.771357
vt 0.503311 0.771357
vt 0.567259 0.771357
vt 0.631207 0.771357
vt 0.695155 0.771357
vt 0.759103 0.771357
vt 0.823052 0.771357
vt 0.887000 0.771357
vt 0.695155 0.754323
vt 0.631207 0.754323
vt 0.567259 0.754323
vt 0.503311 0.754323
vt 0.439362 0.754323
vt 0.375414 0.754323
vt 0.311466 0.754323
vt 0.247518 0.754323
vt 0.183569 0.754323
vt 0.887000 0.754323
vt 0.119621 0.754323
vt 0.823052 0.754323
vt 0.759103 0.754323
vt -0.114009 0.019497
vt -0.270824 0.019497
vt 0.015632 0.019497
vt 0.139023 0.019497
vt 0.259910 0.019497
vt 0.381713 0.019497
vt 0.503330 0.019497
vt 0.624853 0.019497
vt 0.746403 0.019497
vt 0.868267 0.019497
vt 0.991045 0.019497
vt 1.120705 0.019497
vt 1.279116 0.019497
vt -0.114009 0.000515
vt -0.270824 0.000515
vt 0.015632 0.000515
vt 0.139023 0.000515
vt 0.259744 0.000515
vt 0.381538 0.000515
vt 0.503270 0.000515
vt 0.624845 0.000515
vt 0.746359 0.000515
vt 0.867872 0.000515
vt 0.991045 0.000515
vt 1.120705 0.000515
vt 1.279116 0.000515
vt 0.735564 0.411795
vt 0.503308 0.093126
vt 0.381517 0.092933
vt 0.259877 0.090371
vt 0.139023 0.074629
vt 0.015632 0.074629
vt -0.114009 0.074629
vt 1.279116 0.074629
vt -0.270824 0.074629
vt 1.120705 0.074629
vt 0.991045 0.074629
vt 0.871210 0.074629
vt 0.748286 0.090037
vt 0.625306 0.093206
vt 0.749652 0.137061
vt 0.625634 0.137285
vt 0.503321 0.137430
vt 0.381562 0.137538
vt 0.260521 0.136912
vt 0.139023 0.127769
vt 0.015632 0.127769
vt -0.114009 0.127769
vt 1.279116 0.127769
vt -0.270824 0.127769
vt 1.120705 0.127769
vt 0.991045 0.127769
vt 0.873379 0.127769
vt 0.748330 0.181443
vt 0.624836 0.181505
vt 0.503300 0.181661
vt 0.382455 0.181689
vt 0.262557 0.181486
vt 0.139023 0.178918
vt 0.015632 0.179238
vt -0.114009 0.180082
vt 1.279116 0.182091
vt -0.270824 0.182245
vt 1.120705 0.180067
vt 0.991045 0.179325
vt 0.874554 0.179002
vt 0.698900 0.868768
vt 0.679077 0.889332
vt 0.358940 0.861183
vt 0.383963 0.835225
vt 0.662746 0.910203
vt 0.338325 0.887529
vt 0.649954 0.931321
vt 0.322178 0.914188
vt 0.640739 0.952627
vt 0.310545 0.941082
vt 0.635126 0.974058
vt 0.303460 0.968135
vt 0.633131 0.995554
vt 0.300942 0.995270
vt 0.634761 0.974921
vt 0.302999 0.969565
vt 0.640011 0.953480
vt 0.309626 0.942500
vt 0.648865 0.932159
vt 0.320803 0.915586
vt 0.661298 0.911019
vt 0.336498 0.888900
vt 0.677275 0.890121
vt 0.356666 0.862519
vt 0.696750 0.869523
vt 0.381249 0.836519
vt 0.889324 0.945353
vt 0.842846 0.968669
vt 0.784435 0.913501
vt 0.906336 0.913501
vt 0.889324 0.881650
vt 0.842846 0.858333
vt 0.779356 0.849799
vt 0.715866 0.858333
vt 0.669388 0.881650
vt 0.652376 0.913501
vt 0.669388 0.945353
vt 0.715866 0.968669
vt 0.779356 0.977204
vt 0.157154 0.968669
vt 0.110676 0.945353
vt 0.225723 0.913501
vt 0.093664 0.913501
vt 0.110676 0.881650
vt 0.157154 0.858333
vt 0.220644 0.849799
vt 0.284134 0.858333
vt 0.330612 0.881650
vt 0.347624 0.913501
vt 0.330612 0.945353
vt 0.284134 0.968669
vt 0.220644 0.977204
vn -0.238401 -0.879012 -0.412921
vn 0.000006 -0.879006 -0.476811
vn -0.000001 -1.000000 0.000000
vn -0.412897 -0.879026 -0.238389
vn -0.476781 -0.879022 0.000007
vn -0.412928 -0.879009 0.238398
vn -0.238392 -0.879019 0.412910
vn 0.000005 -0.879014 0.476796
vn 0.238413 -0.879005 0.412927
vn 0.412925 -0.879008 0.238406
vn 0.476791 -0.879017 0.000000
vn 0.412973 -0.878975 -0.238445
vn 0.238452 -0.878967 -0.412986
vn 0.000011 -0.638575 -0.769559
vn -0.384778 -0.638587 -0.666448
vn -0.466416 -0.359887 -0.808046
vn 0.000100 -0.359655 -0.933085
vn -0.666456 -0.638580 -0.384776
vn -0.807965 -0.359992 -0.466476
vn -0.769560 -0.638575 -0.000002
vn -0.933001 -0.359873 0.000095
vn -0.666457 -0.638577 0.384779
vn -0.808033 -0.359652 0.466619
vn -0.384778 -0.638580 0.666455
vn -0.466557 -0.359570 0.808105
vn 0.000007 -0.638569 0.769564
vn 0.000007 -0.359557 0.933123
vn 0.384779 -0.638575 0.666459
vn 0.466558 -0.359557 0.808110
vn 0.666463 -0.638566 0.384786
vn 0.808108 -0.359551 0.466566
vn 0.769584 -0.638545 -0.000004
vn 0.933124 -0.359554 0.000001
vn 0.666455 -0.638580 -0.384776
vn 0.808097 -0.359584 -0.466561
vn 0.384771 -0.638587 -0.666452
vn 0.466554 -0.359576 -0.808104
vn -0.489424 -0.203084 -0.848069
vn 0.000179 -0.202796 -0.979221
vn -0.847956 -0.203214 -0.489566
vn -0.979160 -0.203090 0.000176
vn -0.847943 -0.202795 0.489762
vn -0.489622 -0.202659 0.848056
vn 0.000002 -0.202668 0.979248
vn 0.489625 -0.202665 0.848053
vn 0.848058 -0.202651 0.489623
vn 0.979253 -0.202644 -0.000000
vn 0.848058 -0.202649 -0.489624
vn 0.489624 -0.202662 -0.848055
vn -0.499632 0.038742 -0.865371
vn -0.000015 0.039033 -0.999238
vn -0.865379 0.038605 -0.499629
vn -0.999249 0.038752 -0.000015
vn -0.865371 0.039049 0.499607
vn -0.499610 0.039196 0.865363
vn 0.000000 0.039190 0.999232
vn 0.499618 0.039186 0.865359
vn 0.865361 0.039200 0.499613
vn 0.999232 0.039198 -0.000001
vn 0.865362 0.039189 -0.499613
vn 0.499619 0.039190 -0.865358
vn -0.000097 0.318833 -0.947811
vn -0.474028 0.318595 -0.820850
vn -0.437831 0.482915 -0.758351
vn 0.000005 0.482920 -0.875665
vn -0.820922 0.318507 -0.473962
vn -0.758351 0.482910 -0.437837
vn -0.947881 0.318625 -0.000099
vn -0.875672 0.482907 0.000001
vn -0.820870 0.318855 0.473818
vn -0.758351 0.482915 0.437832
vn -0.473883 0.318940 0.820800
vn -0.437827 0.482922 0.758350
vn 0.000002 0.318936 0.947776
vn 0.000005 0.482916 0.875667
vn 0.473889 0.318946 0.820793
vn 0.437831 0.482926 0.758344
vn 0.820796 0.318945 0.473887
vn 0.758341 0.482933 0.437830
vn 0.947778 0.318931 -0.000001
vn 0.875660 0.482928 -0.000002
vn 0.820799 0.318936 -0.473887
vn 0.758344 0.482923 -0.437835
vn 0.473891 0.318945 -0.820793
vn 0.437835 0.482920 -0.758346
vn -0.457319 0.404276 -0.792099
vn 0.000008 0.404271 -0.914639
vn -0.792102 0.404262 -0.457325
vn -0.914647 0.404253 0.000000
vn -0.792100 0.404273 0.457319
vn -0.457315 0.404279 0.792100
vn 0.000008 0.404267 0.914641
vn 0.457322 0.404277 0.792096
vn 0.792090 0.404293 0.457319
vn 0.914625 0.404302 -0.000002
vn 0.792094 0.404278 -0.457325
vn 0.457328 0.404265 -0.792099
vn -0.000027 0.369029 0.929418
vn 0.464732 0.369001 0.804899
vn -0.000024 1.000000 -0.000053
vn 0.804940 0.368943 0.464708
vn 0.929440 0.368974 0.000008
vn 0.804911 0.369000 -0.464712
vn 0.464724 0.368987 -0.804910
vn -0.000021 0.368994 -0.929432
vn -0.464702 0.369082 -0.804879
vn -0.804871 0.369086 -0.464714
vn -0.929435 0.368987 0.000005
vn -0.804907 0.368967 0.464746
vn -0.464735 0.369011 0.804893
vn -0.487540 0.221953 -0.844418
vn 0.000013 0.221942 -0.975060
vn -0.844422 0.221939 -0.487539
vn -0.975061 0.221937 -0.000014
vn -0.844423 0.221941 0.487537
vn -0.487533 0.221938 0.844426
vn 0.000012 0.221938 0.975061
vn 0.487541 0.221939 0.844421
vn 0.844427 0.221947 0.487526
vn 0.975056 0.221958 -0.000002
vn 0.844428 0.221942 -0.487528
vn 0.487545 0.221934 -0.844420
vn -0.497786 0.093946 -0.862197
vn 0.000013 0.093943 -0.995578
vn -0.862189 0.093942 -0.497801
vn -0.995578 0.093941 -0.000029
vn -0.862193 0.093947 0.497793
vn -0.497771 0.093944 0.862206
vn 0.000012 0.093941 0.995578
vn 0.497802 0.093939 0.862188
vn 0.862204 0.093941 0.497774
vn 0.995578 0.093942 -0.000003
vn 0.862202 0.093941 -0.497778
vn 0.497800 0.093941 -0.862189
vn 0.999687 0.025018 -0.000002
vn 0.865765 0.025024 0.499824
vn 0.499858 0.025028 0.865746
vn 0.000008 0.025029 0.999687
vn -0.499806 0.025037 0.865776
vn -0.865755 0.025045 0.499841
vn -0.999687 0.025031 -0.000033
vn -0.865750 0.025020 -0.499852
vn -0.499821 0.025025 -0.865767
vn 0.000010 0.025032 -0.999687
vn 0.499851 0.025039 -0.865749
vn 0.865761 0.025030 -0.499832
vn 0.000012 -0.690834 -0.723014
vn -0.361528 -0.690804 -0.626169
vn -0.498405 0.080245 -0.863223
vn 0.000015 0.080234 -0.996776
vn -0.626252 -0.690728 -0.361528
vn -0.863253 0.080279 -0.498347
vn -0.723092 -0.690752 -0.000036
vn -0.996777 0.080223 -0.000043
vn -0.626138 -0.690871 0.361453
vn -0.863263 0.080161 0.498348
vn -0.361461 -0.690894 0.626108
vn -0.498387 0.080173 0.863240
vn 0.000027 -0.690835 0.723012
vn 0.000035 0.080233 0.996776
vn 0.361497 -0.690843 0.626143
vn 0.498390 0.080185 0.863237
vn 0.626062 -0.690925 0.361482
vn 0.863230 0.080132 0.498410
vn 0.722915 -0.690937 -0.000003
vn 0.996777 0.080224 0.000015
vn 0.626086 -0.690893 -0.361501
vn 0.863218 0.080236 -0.498415
vn 0.361499 -0.690844 -0.626141
vn 0.498386 0.080223 -0.863236
vn 0.050071 0.994974 0.086717
vn -0.000007 0.994977 0.100108
vn 0.086742 0.994971 0.050089
vn 0.100108 0.994977 -0.000005
vn 0.086675 0.994978 -0.050066
vn 0.050067 0.994974 -0.086722
vn 0.000004 0.994973 -0.100146
vn -0.049990 0.994986 -0.086625
vn -0.086635 0.994986 -0.049981
vn -0.100213 0.994966 0.000025
vn -0.086800 0.994966 0.050085
vn -0.050067 0.994976 0.086701
vn 0.000011 -0.810017 -0.586407
vn -0.293212 -0.810014 -0.507843
vn -0.507883 -0.809985 -0.293222
vn -0.586427 -0.810002 -0.000009
vn -0.507849 -0.810009 0.293213
vn -0.293214 -0.810005 0.507856
vn 0.000004 -0.810017 0.586406
vn 0.293210 -0.810014 0.507844
vn 0.507867 -0.809997 0.293216
vn 0.586483 -0.809962 -0.000010
vn 0.507892 -0.809981 -0.293218
vn 0.293204 -0.810013 -0.507848
vn -0.443577 -0.461472 -0.768299
vn 0.000009 -0.461447 -0.887168
vn -0.768273 -0.461529 -0.443563
vn -0.887134 -0.461512 0.000012
vn -0.768309 -0.461464 0.443569
vn -0.443567 -0.461504 0.768286
vn 0.000009 -0.461477 0.887152
vn 0.443598 -0.461442 0.768305
vn 0.768300 -0.461461 0.443586
vn 0.887147 -0.461488 -0.000000
vn 0.768351 -0.461331 -0.443633
vn 0.443642 -0.461297 -0.768367
vn 0.861389 -0.103372 -0.497316
vn 0.497318 -0.103348 -0.861391
vn 0.497318 -0.103348 -0.861391
vn 0.861389 -0.103372 -0.497316
vn 0.000012 -0.103348 -0.994645
vn 0.000012 -0.103348 -0.994645
vn -0.497336 -0.103344 -0.861381
vn -0.497336 -0.103344 -0.861381
vn -0.861385 -0.103353 -0.497328
vn -0.861385 -0.103353 -0.497328
vn -0.994642 -0.103384 -0.000004
vn -0.994642 -0.103384 -0.000004
vn -0.861385 -0.103364 0.497324
vn -0.861385 -0.103364 0.497324
vn -0.497327 -0.103340 0.861387
vn -0.497327 -0.103340 0.861387
vn 0.000011 -0.103348 0.994645
vn 0.000011 -0.103348 0.994645
vn 0.497309 -0.103352 0.861395
vn 0.497309 -0.103352 0.861395
vn 0.861390 -0.103379 0.497313
vn 0.861390 -0.103379 0.497313
vn 0.994640 -0.103404 -0.000004
vn 0.994640 -0.103404 -0.000004
vn 0.000000 -1.000000 0.000000
vn 0.000000 -1.000000 0.000000
vn 0.000000 -1.000000 0.000000
vn 0.000000 -1.000000 0.000000
vn 0.000000 -1.000000 0.000000
vn 0.000000 -1.000000 0.000000
vn 0.000000 -1.000000 0.000000
vn 0.000000 -1.000000 0.000000
vn 0.000000 -1.000000 0.000000
vn 0.000000 -1.000000 0.000000
vn 0.000000 -1.000000 0.000000
vn 0.000000 -1.000000 0.000000
vn 0.000000 -1.000000 0.000000
vn 0.000000 1.000000 -0.000000
vn 0.000000 1.000000 -0.000007
vn 0.000000 1.000000 0.000000
vn 0.000000 1.000000 0.000000
vn 0.000000 1.000000 -0.000004
vn 0.000000 1.000000 0.000004
vn 0.000000 1.000000 0.000000
vn 0.000000 1.000000 0.000000
vn 0.000000 1.000000 0.000007
vn 0.000000 1.000000 0.000000
vn 0.000000 1.000000 0.000004
vn 0.000000 1.000000 -0.000004
vn 0.000000 1.000000 0.000000
s 1
g polySurface7770
f 135/53/1 134/54/2 136/55/3
f 137/56/4 135/53/1 136/55/3
f 138/57/5 137/56/4 136/55/3
f 139/58/6 138/57/5 136/55/3
f 140/59/7 139/58/6 136/55/3
f 141/60/8 140/59/7 136/55/3
f 142/61/9 141/60/8 136/55/3
f 143/62/10 142/61/9 136/55/3
f 144/63/11 143/62/10 136/55/3
f 145/64/12 144/63/11 136/55/3
f 146/181/13 145/64/12 136/55/3
f 134/54/2 146/181/13 136/55/3
s 2
f 1/1/14 2/2/15 152/187/16 153/189/17
f 2/2/15 3/3/18 151/186/19 152/187/16
f 3/3/18 4/4/20 150/185/21 151/186/19
f 4/4/20 5/5/22 149/184/23 150/185/21
f 5/5/22 6/6/24 148/183/25 149/184/23
f 6/6/24 7/7/26 147/182/27 148/183/25
f 7/7/26 8/8/28 158/194/29 147/182/27
f 8/8/28 9/9/30 157/193/31 158/194/29
f 157/193/31 9/9/30 10/10/32 156/192/33
f 10/10/32 11/11/34 155/191/35 156/192/33
f 11/11/34 12/12/36 154/190/37 155/191/35
f 12/12/36 1/13/14 153/188/17 154/190/37
f 153/189/17 152/187/16 166/202/38 167/204/39
f 152/187/16 151/186/19 165/201/40 166/202/38
f 151/186/19 150/185/21 164/200/41 165/201/40
f 150/185/21 149/184/23 163/199/42 164/200/41
f 149/184/23 148/183/25 162/198/43 163/199/42
f 148/183/25 147/182/27 161/197/44 162/198/43
f 147/182/27 158/194/29 160/196/45 161/197/44
f 160/196/45 158/194/29 157/193/31 159/195/46
f 157/193/31 156/192/33 170/207/47 159/195/46
f 156/192/33 155/191/35 169/206/48 170/207/47
f 155/191/35 154/190/37 168/205/49 169/206/48
f 154/190/37 153/188/17 167/203/39 168/205/49
f 178/215/50 179/217/51 167/204/39 166/202/38
f 177/214/52 178/215/50 166/202/38 165/201/40
f 176/213/53 177/214/52 165/201/40 164/200/41
f 175/212/54 176/213/53 164/200/41 163/199/42
f 174/211/55 175/212/54 163/199/42 162/198/43
f 173/210/56 174/211/55 162/198/43 161/197/44
f 172/209/57 173/210/56 161/197/44 160/196/45
f 171/208/58 172/209/57 160/196/45 159/195/46
f 182/220/59 171/208/58 159/195/46 170/207/47
f 181/219/60 182/220/59 170/207/47 169/206/48
f 180/218/61 181/219/60 169/206/48 168/205/49
f 179/216/51 180/218/61 168/205/49 167/203/39
f 13/14/62 14/15/63 26/28/64 25/27/65
f 14/15/63 15/16/66 27/29/67 26/28/64
f 15/16/66 16/17/68 28/30/69 27/29/67
f 16/17/68 17/18/70 29/31/71 28/30/69
f 17/18/70 18/19/72 30/32/73 29/31/71
f 18/19/72 19/20/74 31/33/75 30/32/73
f 19/20/74 20/21/76 32/34/77 31/33/75
f 20/21/76 21/22/78 33/35/79 32/34/77
f 21/22/78 22/23/80 34/36/81 33/35/79
f 22/23/80 23/24/82 35/37/83 34/36/81
f 23/24/82 24/25/84 36/38/85 35/37/83
f 24/25/84 13/26/62 25/39/65 36/38/85
f 25/27/65 26/28/64 38/41/86 37/40/87
f 26/28/64 27/29/67 39/42/88 38/41/86
f 27/29/67 28/30/69 40/43/89 39/42/88
f 28/30/69 29/31/71 41/44/90 40/43/89
f 29/31/71 30/32/73 42/45/91 41/44/90
f 30/32/73 31/33/75 43/46/92 42/45/91
f 31/33/75 32/34/77 44/47/93 43/46/92
f 32/34/77 33/35/79 45/48/94 44/47/93
f 33/35/79 34/36/81 46/49/95 45/48/94
f 34/36/81 35/37/83 47/50/96 46/49/95
f 35/37/83 36/38/85 48/51/97 47/50/96
f 36/38/85 25/39/65 37/52/87 48/51/97
s 3
f 97/129/98 98/130/99 99/65/100
f 98/130/99 100/131/101 99/66/100
f 100/131/101 101/132/102 99/67/100
f 101/132/102 102/133/103 99/68/100
f 102/133/103 103/134/104 99/69/100
f 103/134/104 104/135/105 99/70/100
f 104/135/105 105/136/106 99/71/100
f 105/136/106 106/137/107 99/72/100
f 106/137/107 107/138/108 99/73/100
f 107/138/108 108/139/109 99/74/100
f 108/139/109 109/140/110 99/75/100
f 109/140/110 97/141/98 99/76/100
s 2
f 37/40/87 38/41/86 50/78/111 49/77/112
f 38/41/86 39/42/88 51/79/113 50/78/111
f 39/42/88 40/43/89 52/80/114 51/79/113
f 40/43/89 41/44/90 53/81/115 52/80/114
f 41/44/90 42/45/91 54/82/116 53/81/115
f 42/45/91 43/46/92 55/83/117 54/82/116
f 43/46/92 44/47/93 56/84/118 55/83/117
f 44/47/93 45/48/94 57/85/119 56/84/118
f 45/48/94 46/49/95 58/86/120 57/85/119
f 46/49/95 47/50/96 59/87/121 58/86/120
f 47/50/96 48/51/97 60/88/122 59/87/121
f 48/51/97 37/52/87 49/89/112 60/88/122
f 49/77/112 50/78/111 81/111/123 82/113/124
f 50/78/111 51/79/113 80/110/125 81/111/123
f 51/79/113 52/80/114 79/109/126 80/110/125
f 52/80/114 53/81/115 78/108/127 79/109/126
f 53/81/115 54/82/116 77/107/128 78/108/127
f 54/82/116 55/83/117 76/106/129 77/107/128
f 55/83/117 56/84/118 75/105/130 76/106/129
f 56/84/118 57/85/119 74/104/131 75/105/130
f 57/85/119 58/86/120 73/103/132 74/104/131
f 58/86/120 59/87/121 84/115/133 73/103/132
f 59/87/121 60/88/122 83/114/134 84/115/133
f 60/88/122 49/89/112 82/112/124 83/114/134
f 74/104/131 73/103/132 70/99/135 69/98/136
f 75/105/130 74/104/131 69/98/136 68/97/137
f 76/106/129 75/105/130 68/97/137 67/96/138
f 77/107/128 76/106/129 67/96/138 66/95/139
f 78/108/127 77/107/128 66/95/139 65/94/140
f 79/109/126 78/108/127 65/94/140 64/93/141
f 80/110/125 79/109/126 64/93/141 63/92/142
f 81/111/123 80/110/125 63/92/142 62/91/143
f 82/113/124 81/111/123 62/91/143 61/90/144
f 83/114/134 82/112/124 61/102/144 72/101/145
f 84/115/133 83/114/134 72/101/145 71/100/146
f 73/103/132 84/115/133 71/100/146 70/99/135
s 3
f 61/90/147 62/91/148 86/117/149 85/116/150
f 62/91/148 63/92/151 87/118/152 86/117/149
f 63/92/151 64/93/153 88/119/154 87/118/152
f 64/93/153 65/94/155 89/120/156 88/119/154
f 65/94/155 66/95/157 90/121/158 89/120/156
f 66/95/157 67/96/159 91/122/160 90/121/158
f 67/96/159 68/97/161 92/123/162 91/122/160
f 68/97/161 69/98/163 93/124/164 92/123/162
f 69/98/163 70/99/165 94/125/166 93/124/164
f 70/99/165 71/100/167 95/126/168 94/125/166
f 71/100/167 72/101/169 96/127/170 95/126/168
f 72/101/169 61/102/147 85/128/150 96/127/170
f 85/116/150 86/117/149 118/150/171 119/152/172
f 86/117/149 87/118/152 117/149/173 118/150/171
f 87/118/152 88/119/154 116/148/174 117/149/173
f 88/119/154 89/120/156 115/147/175 116/148/174
f 89/120/156 90/121/158 114/146/176 115/147/175
f 90/121/158 91/122/160 113/145/177 114/146/176
f 91/122/160 92/123/162 112/144/178 113/145/177
f 92/123/162 93/124/164 111/143/179 112/144/178
f 93/124/164 94/125/166 110/142/180 111/143/179
f 94/125/166 95/126/168 121/154/181 110/142/180
f 95/126/168 96/127/170 120/153/182 121/154/181
f 96/127/170 85/128/150 119/151/172 120/153/182
f 111/143/179 110/142/180 107/138/108 106/137/107
f 112/144/178 111/143/179 106/137/107 105/136/106
f 113/145/177 112/144/178 105/136/106 104/135/105
f 114/146/176 113/145/177 104/135/105 103/134/104
f 115/147/175 114/146/176 103/134/104 102/133/103
f 116/148/174 115/147/175 102/133/103 101/132/102
f 117/149/173 116/148/174 101/132/102 100/131/101
f 118/150/171 117/149/173 100/131/101 98/130/99
f 119/152/172 118/150/171 98/130/99 97/129/98
f 120/153/182 119/151/172 97/141/98 109/140/110
f 121/154/181 120/153/182 109/140/110 108/139/109
f 110/142/180 121/154/181 108/139/109 107/138/108
s 2
f 2/2/15 1/1/14 122/156/183 123/155/184
f 3/3/18 2/2/15 123/155/184 124/157/185
f 4/4/20 3/3/18 124/157/185 125/158/186
f 5/5/22 4/4/20 125/158/186 126/159/187
f 6/6/24 5/5/22 126/159/187 127/160/188
f 7/7/26 6/6/24 127/160/188 128/161/189
f 8/8/28 7/7/26 128/161/189 129/162/190
f 9/9/30 8/8/28 129/162/190 130/163/191
f 10/10/32 9/9/30 130/163/191 131/164/192
f 11/11/34 10/10/32 131/164/192 132/165/193
f 12/12/36 11/11/34 132/165/193 133/166/194
f 1/13/14 12/12/36 133/166/194 122/167/183
s 1
f 123/155/195 122/156/196 134/169/2 135/168/1
f 124/157/197 123/155/195 135/168/1 137/170/4
f 125/158/198 124/157/197 137/170/4 138/171/5
f 126/159/199 125/158/198 138/171/5 139/172/6
f 127/160/200 126/159/199 139/172/6 140/173/7
f 128/161/201 127/160/200 140/173/7 141/174/8
f 129/162/202 128/161/201 141/174/8 142/175/9
f 130/163/203 129/162/202 142/175/9 143/176/10
f 131/164/204 130/163/203 143/176/10 144/177/11
f 132/165/205 131/164/204 144/177/11 145/178/12
f 133/166/206 132/165/205 145/178/12 146/179/13
f 122/167/196 133/166/206 146/179/13 134/180/2
s 2
f 172/209/57 171/208/58 21/22/78 20/21/76
f 173/210/56 172/209/57 20/21/76 19/20/74
f 174/211/55 173/210/56 19/20/74 18/19/72
f 175/212/54 174/211/55 18/19/72 17/18/70
f 176/213/53 175/212/54 17/18/70 16/17/68
f 177/214/52 176/213/53 16/17/68 15/16/66
f 178/215/50 177/214/52 15/16/66 14/15/63
f 179/217/51 178/215/50 14/15/63 13/14/62
f 180/218/61 179/216/51 13/26/62 24/25/84
f 181/219/60 180/218/61 24/25/84 23/24/82
f 182/220/59 181/219/60 23/24/82 22/23/80
f 171/208/58 182/220/59 22/23/80 21/22/78
s 4
f 183/221/207 184/222/208 196/223/209 195/224/210
f 184/222/208 185/225/211 197/226/212 196/223/209
f 185/225/211 186/227/213 198/228/214 197/226/212
f 186/227/213 187/229/215 199/230/216 198/228/214
f 187/229/215 188/231/217 200/232/218 199/230/216
f 188/231/217 189/233/219 201/234/220 200/232/218
f 189/233/219 190/235/221 202/236/222 201/234/220
f 190/235/221 191/237/223 203/238/224 202/236/222
f 191/237/223 192/239/225 204/240/226 203/238/224
f 192/239/225 193/241/227 205/242/228 204/240/226
f 193/241/227 194/243/229 206/244/230 205/242/228
f 194/243/229 183/245/207 195/246/210 206/244/230
s 5
f 184/247/231 183/248/232 207/249/233
f 185/250/234 184/247/231 207/249/233
f 186/251/235 185/250/234 207/249/233
f 187/252/236 186/251/235 207/249/233
f 188/253/237 187/252/236 207/249/233
f 189/254/238 188/253/237 207/249/233
f 190/255/239 189/254/238 207/249/233
f 191/256/240 190/255/239 207/249/233
f 192/257/241 191/256/240 207/249/233
f 193/258/242 192/257/241 207/249/233
f 194/259/243 193/258/242 207/249/233
f 183/248/232 194/259/243 207/249/233
s 6
f 195/260/244 196/261/245 208/262/246
f 196/261/245 197/263/247 208/262/246
f 197/263/247 198/264/248 208/262/246
f 198/264/248 199/265/249 208/262/246
f 199/265/249 200/266/250 208/262/246
f 200/266/250 201/267/251 208/262/246
f 201/267/251 202/268/252 208/262/246
f 202/268/252 203/269/253 208/262/246
f 203/269/253 204/270/254 208/262/246
f 204/270/254 205/271/255 208/262/246
f 205/271/255 206/272/256 208/262/246
f 206/272/256 195/260/244 208/262/246
