# This file uses centimeters as units for non-parametric coordinates.

g default
v -24.290663 0.798900 -0.001629
v -24.256660 0.816941 -0.001629
v -24.252579 0.829212 -0.001628
v -24.287504 1.054468 -0.001630
v -24.304787 1.052477 -0.001629
v -24.308559 1.073856 -0.001629
v -24.287504 1.076491 -0.001630
v -24.231215 0.830469 -0.001628
v -24.239691 0.803743 -0.001629
v -24.285007 0.778159 -0.001629
v -24.287504 1.054468 0.000001
v -24.287504 1.076491 0.000001
v -24.304787 1.052477 0.000000
v -24.308559 1.073856 0.000000
v -24.239691 0.803743 -0.000000
v -24.256660 0.816941 -0.000000
v -24.252579 0.829212 -0.000000
v -24.231215 0.830469 -0.000000
v -24.290663 0.798900 -0.000000
v -24.285007 0.778159 -0.000000
v -24.287504 1.065480 0.006168
v -24.306673 1.063166 0.006168
v -24.306673 1.063166 -0.007797
v -24.287504 1.065480 -0.007797
v -24.241896 0.829841 -0.007797
v -24.248175 0.810342 -0.007797
v -24.287834 0.788530 -0.007797
v -24.287834 0.788530 0.006168
v -24.248175 0.810342 0.006168
v -24.241896 0.829841 0.006168
v -24.287716 1.051129 -0.000814
v -24.304365 1.049106 -0.000814
v -24.259312 0.818861 -0.000814
v -24.255894 0.829477 -0.000814
v -24.291893 0.802064 -0.000814
v -24.287174 1.079785 -0.000814
v -24.309008 1.077224 -0.000814
v -24.227892 0.830231 -0.000814
v -24.237015 0.801858 -0.000814
v -24.283804 0.774984 -0.000814
v -24.269161 1.053086 0.006168
v -24.260534 1.057953 -0.000001
v -24.257835 1.059571 -0.000814
v -24.260534 1.057953 -0.001627
v -24.269161 1.053086 -0.007797
v -24.277788 1.048219 -0.001627
v -24.280415 1.046566 -0.000814
v -24.277788 1.048219 -0.000001
v -24.393091 0.810958 0.045356
v -24.395899 0.812240 0.039407
v -24.401848 0.810958 0.036599
v -24.407454 0.807861 0.038577
v -24.409431 0.804765 0.044183
v -24.406624 0.803483 0.050132
v -24.400675 0.804765 0.052940
v -24.395069 0.807861 0.050961
v -24.397095 0.820764 0.049359
v -24.399902 0.822046 0.043410
v -24.405851 0.820764 0.040602
v -24.411457 0.817668 0.042580
v -24.413435 0.814571 0.048186
v -24.410627 0.813289 0.054135
v -24.404678 0.814571 0.056943
v -24.399073 0.817668 0.054965
v -24.393208 0.823882 0.050261
v -24.397551 0.825866 0.041058
v -24.406754 0.823882 0.036715
v -24.415424 0.819092 0.039775
v -24.418486 0.814303 0.048447
v -24.414141 0.812319 0.057650
v -24.404940 0.814303 0.061994
v -24.396267 0.819092 0.058933
v -24.394979 0.828222 0.052034
v -24.399323 0.830206 0.042830
v -24.408525 0.828222 0.038486
v -24.417196 0.823433 0.041547
v -24.420259 0.818643 0.050219
v -24.415913 0.816659 0.059422
v -24.406712 0.818643 0.063766
v -24.398039 0.823433 0.060705
v -24.408098 0.824607 0.051605
v -24.334887 1.103503 -0.000558
v -24.305841 1.103327 -0.000687
v -24.298836 1.108010 -0.000660
v -24.294779 1.114546 -0.000645
v -24.288029 1.112924 -0.000532
v -24.294325 1.102949 -0.000513
v -24.304504 1.097265 -0.000513
v -24.334454 1.097199 -0.000611
v -24.334887 1.103503 0.005553
v -24.305841 1.103327 0.005682
v -24.304504 1.097265 0.005508
v -24.334454 1.097199 0.005606
v -24.298836 1.108010 0.005655
v -24.294325 1.102949 0.005508
v -24.294779 1.114546 0.005640
v -24.288029 1.112924 0.005527
v -24.379511 1.103503 0.005553
v -24.408558 1.103327 0.005682
v -24.409893 1.097265 0.005508
v -24.379944 1.097199 0.005606
v -24.415562 1.108010 0.005655
v -24.420073 1.102949 0.005508
v -24.419619 1.114546 0.005640
v -24.426369 1.112924 0.005527
v -24.379511 1.103503 -0.000558
v -24.379944 1.097199 -0.000611
v -24.409893 1.097265 -0.000513
v -24.408558 1.103327 -0.000687
v -24.420073 1.102949 -0.000513
v -24.415562 1.108010 -0.000660
v -24.426369 1.112924 -0.000532
v -24.419619 1.114546 -0.000645
v -24.342936 1.321727 0.005633
v -24.342388 1.327680 0.005534
v -24.342388 1.327680 -0.000539
v -24.342936 1.321727 -0.000638
v -24.316280 1.313408 0.005648
v -24.314005 1.318733 0.005522
v -24.314005 1.318733 -0.000527
v -24.316280 1.313408 -0.000653
v -24.295918 1.294567 0.005660
v -24.291195 1.297739 0.005517
v -24.291195 1.297739 -0.000522
v -24.295918 1.294567 -0.000664
v -24.283739 1.263518 0.005640
v -24.277378 1.264730 0.005526
v -24.277378 1.264730 -0.000531
v -24.283739 1.263518 -0.000645
v -24.280804 1.221807 0.005621
v -24.274326 1.221608 0.005545
v -24.274326 1.221608 -0.000550
v -24.280804 1.221807 -0.000626
v -24.288488 1.154545 0.005591
v -24.281948 1.153289 0.005573
v -24.281948 1.153289 -0.000578
v -24.288488 1.154545 -0.000596
v -24.425907 1.154545 0.005591
v -24.425907 1.154545 -0.000596
v -24.432449 1.153289 -0.000578
v -24.432449 1.153289 0.005573
v -24.433592 1.221807 0.005621
v -24.433592 1.221807 -0.000626
v -24.440071 1.221608 -0.000550
v -24.440071 1.221608 0.005545
v -24.430658 1.263518 0.005640
v -24.430658 1.263518 -0.000645
v -24.437021 1.264730 -0.000531
v -24.437021 1.264730 0.005526
v -24.418480 1.294567 0.005660
v -24.418480 1.294567 -0.000664
v -24.423204 1.297739 -0.000522
v -24.423204 1.297739 0.005517
v -24.398117 1.313408 0.005648
v -24.398117 1.313408 -0.000653
v -24.400393 1.318733 -0.000527
v -24.400393 1.318733 0.005522
v -24.371462 1.321727 0.005633
v -24.371462 1.321727 -0.000638
v -24.372009 1.327680 -0.000539
v -24.372009 1.327680 0.005534
v -24.423912 0.798900 -0.001629
v -24.457912 0.816941 -0.001629
v -24.461994 0.829212 -0.001628
v -24.427071 1.054468 -0.001630
v -24.409788 1.052477 -0.001629
v -24.406015 1.073856 -0.001629
v -24.427071 1.076491 -0.001630
v -24.483358 0.830469 -0.001628
v -24.474882 0.803743 -0.001629
v -24.429567 0.778159 -0.001629
v -24.427071 1.054468 0.000001
v -24.427071 1.076491 0.000001
v -24.409788 1.052477 0.000000
v -24.406015 1.073856 0.000000
v -24.474882 0.803743 -0.000000
v -24.457912 0.816941 -0.000000
v -24.461994 0.829212 -0.000000
v -24.483358 0.830469 -0.000000
v -24.423912 0.798900 -0.000000
v -24.429567 0.778159 -0.000000
v -24.427071 1.065480 0.006168
v -24.407902 1.063166 0.006168
v -24.407902 1.063166 -0.007797
v -24.427071 1.065480 -0.007797
v -24.472675 0.829841 -0.007797
v -24.466398 0.810342 -0.007797
v -24.426739 0.788530 -0.007797
v -24.426739 0.788530 0.006168
v -24.466398 0.810342 0.006168
v -24.472675 0.829841 0.006168
v -24.426859 1.051129 -0.000814
v -24.410210 1.049106 -0.000814
v -24.455261 0.818861 -0.000814
v -24.458679 0.829477 -0.000814
v -24.422682 0.802064 -0.000814
v -24.427401 1.079785 -0.000814
v -24.405565 1.077224 -0.000814
v -24.486681 0.830231 -0.000814
v -24.477558 0.801858 -0.000814
v -24.430769 0.774984 -0.000814
v -24.445412 1.053086 0.006168
v -24.454041 1.057953 -0.000001
v -24.456739 1.059571 -0.000814
v -24.454041 1.057953 -0.001627
v -24.445412 1.053086 -0.007797
v -24.436783 1.048219 -0.001627
v -24.434156 1.046566 -0.000814
v -24.436783 1.048219 -0.000001
v -24.357161 0.760420 -0.088734
v -24.445896 0.760420 -0.000000
v -24.357161 0.760420 0.088734
v -24.268427 0.760420 -0.000000
v -24.357161 0.788579 -0.084630
v -24.441790 0.788579 -0.000000
v -24.357161 0.788579 0.084630
v -24.272530 0.788579 -0.000000
v -24.279474 0.806430 -0.000000
v -24.287777 0.814228 -0.000000
v -24.357161 0.814228 -0.069385
v -24.357161 0.806430 -0.077686
v -24.426546 0.814228 -0.000000
v -24.434847 0.806430 -0.000000
v -24.357161 0.814228 0.069385
v -24.357161 0.806430 0.077686
v -24.357161 0.834440 -0.024740
v -24.381901 0.834440 -0.000000
v -24.357161 0.834440 0.024740
v -24.332420 0.834440 -0.000000
v -24.357161 0.837559 -0.036971
v -24.394131 0.837559 -0.000000
v -24.357161 0.837559 0.036971
v -24.320190 0.837559 -0.000000
v -24.357161 0.845833 -0.039023
v -24.396183 0.845833 -0.000000
v -24.357161 0.845833 0.039023
v -24.318136 0.845833 -0.000000
v -24.357161 0.841240 -0.019911
v -24.377071 0.841240 -0.000000
v -24.357161 0.841240 0.019911
v -24.337250 0.841240 -0.000000
v -24.357161 0.852284 -0.000000
v -24.357161 0.855021 -0.012132
v -24.369291 0.855021 -0.000000
v -24.357161 0.855021 0.012132
v -24.345028 0.855021 -0.000000
v -24.357161 0.826789 0.026342
v -24.383503 0.826789 -0.000000
v -24.357161 0.826789 -0.026343
v -24.330818 0.826789 -0.000000
v -24.348875 0.855021 0.008286
v -24.343561 0.841240 0.013599
v -24.330507 0.845833 0.026653
v -24.331909 0.837559 0.025251
v -24.340263 0.834440 0.016898
v -24.339169 0.826789 0.017992
v -24.309769 0.814228 0.047390
v -24.304100 0.806430 0.053060
v -24.299356 0.788579 0.057803
v -24.296555 0.760420 0.060606
v -24.348875 0.855021 -0.008286
v -24.343561 0.841240 -0.013600
v -24.330507 0.845833 -0.026654
v -24.331909 0.837559 -0.025252
v -24.340263 0.834440 -0.016898
v -24.339169 0.826789 -0.017992
v -24.309769 0.814228 -0.047391
v -24.304100 0.806430 -0.053061
v -24.299356 0.788579 -0.057804
v -24.296555 0.760420 -0.060607
v -24.365448 0.855021 -0.008286
v -24.370758 0.841240 -0.013600
v -24.383814 0.845833 -0.026654
v -24.382412 0.837559 -0.025252
v -24.374058 0.834440 -0.016898
v -24.375153 0.826789 -0.017992
v -24.404551 0.814228 -0.047391
v -24.410221 0.806430 -0.053061
v -24.414963 0.788579 -0.057804
v -24.417767 0.760420 -0.060607
v -24.365448 0.855021 0.008286
v -24.370758 0.841240 0.013599
v -24.383814 0.845833 0.026653
v -24.382412 0.837559 0.025251
v -24.374058 0.834440 0.016898
v -24.375153 0.826789 0.017992
v -24.404551 0.815358 0.047390
v -24.410221 0.807562 0.053060
v -24.414450 0.788579 0.058335
v -24.417252 0.760420 0.061138
v -24.419785 0.760503 -0.062623
v -24.357161 0.760503 -0.091864
v -24.419785 0.760503 0.062622
v -24.357161 0.760503 0.091864
v -24.294537 0.760503 0.062622
v -24.265295 0.760503 -0.000000
v -24.294537 0.760503 -0.062623
v -24.449024 0.760503 -0.000000
v -24.357161 0.739545 -0.000000
v -24.421211 0.739545 -0.064051
v -24.357161 0.739545 -0.093959
v -24.421211 0.739545 0.064051
v -24.357161 0.739545 0.093959
v -24.293110 0.739545 0.064051
v -24.263201 0.739545 -0.000000
v -24.293110 0.739545 -0.064051
v -24.451120 0.739545 -0.000000
v -24.321009 0.842986 -0.000814
v -24.357161 0.842986 0.035339
v -24.393314 0.842986 -0.000814
v -24.357161 0.842986 -0.036968
v -24.316771 0.865445 -0.000814
v -24.357161 0.865445 0.039577
v -24.397552 0.865445 -0.000814
v -24.357161 0.865445 -0.041206
v -24.291672 0.878143 -0.000814
v -24.357161 0.878143 0.064673
v -24.422649 0.878143 -0.000814
v -24.357161 0.878143 -0.066302
v -24.283300 0.888496 -0.000814
v -24.357161 0.888496 0.073046
v -24.431021 0.888496 -0.000814
v -24.357161 0.888496 -0.074675
v -24.275881 0.938968 -0.000814
v -24.357161 0.938968 0.080464
v -24.438440 0.938968 -0.000814
v -24.357161 0.938968 -0.082093
v -24.281710 0.985137 -0.000814
v -24.357161 0.985137 0.074636
v -24.432610 0.985137 -0.000814
v -24.357161 0.985137 -0.076265
v -24.295300 1.028348 -0.000814
v -24.357161 1.028348 0.061045
v -24.419020 1.028348 -0.000814
v -24.357161 1.028348 -0.062674
v -24.314909 1.028348 0.041436
v -24.305628 0.985137 0.050719
v -24.301647 0.938968 0.054700
v -24.306713 0.888496 0.049633
v -24.312431 0.878143 0.043915
v -24.329573 0.865445 0.026773
v -24.332466 0.842986 0.023879
v -24.399412 1.028348 0.041436
v -24.408695 0.985137 0.050719
v -24.412676 0.938968 0.054700
v -24.407608 0.888496 0.049633
v -24.401890 0.878143 0.043915
v -24.384748 0.865445 0.026773
v -24.381853 0.842986 0.023879
v -24.314909 1.028348 -0.043065
v -24.305628 0.985137 -0.052348
v -24.301647 0.938968 -0.056329
v -24.306713 0.888496 -0.051262
v -24.312431 0.878143 -0.045543
v -24.329573 0.865445 -0.028402
v -24.332466 0.842986 -0.025508
v -24.399412 1.028348 -0.043065
v -24.408695 0.985137 -0.052348
v -24.412676 0.938968 -0.056329
v -24.407608 0.888496 -0.051262
v -24.401890 0.878143 -0.045543
v -24.384748 0.865445 -0.028402
v -24.381853 0.842986 -0.025508
v -24.295513 1.024350 0.000000
v -24.357161 1.024350 0.061648
v -24.418808 1.024350 0.000000
v -24.357161 1.024350 -0.061648
v -24.292912 1.026835 0.000000
v -24.357161 1.026835 0.064248
v -24.421408 1.026835 0.000000
v -24.357161 1.026835 -0.064248
v -24.296799 1.045935 0.000000
v -24.357161 1.045935 0.060363
v -24.417522 1.045935 0.000000
v -24.357161 1.045935 -0.060363
v -24.290155 1.050186 0.000000
v -24.357161 1.050186 0.067004
v -24.424166 1.050186 0.000000
v -24.357161 1.050186 -0.067004
v -24.318384 1.089571 0.000000
v -24.357161 1.089571 0.038777
v -24.395939 1.089571 0.000000
v -24.357161 1.089571 -0.038777
v -24.319006 1.109368 0.000000
v -24.357161 1.109368 0.038156
v -24.395317 1.109368 0.000000
v -24.357161 1.109368 -0.038155
v -24.312407 1.113453 0.000000
v -24.357161 1.113453 0.044754
v -24.401913 1.113453 0.000000
v -24.357161 1.113453 -0.044754
v -24.335293 1.121349 0.000000
v -24.357161 1.121349 0.021868
v -24.379028 1.121349 0.000000
v -24.357161 1.121349 -0.021868
v -24.357161 1.123832 0.000000
v -24.298004 1.074510 0.000000
v -24.357161 1.074510 -0.059156
v -24.416317 1.074510 0.000000
v -24.357161 1.074510 0.059156
v -24.315054 1.024350 0.042106
v -24.313278 1.026835 0.043882
v -24.315933 1.045935 0.041229
v -24.311396 1.050186 0.045765
v -24.316755 1.074510 0.040405
v -24.330677 1.089571 0.026485
v -24.331100 1.109368 0.026061
v -24.326593 1.113453 0.030567
v -24.342226 1.121349 0.014936
v -24.399267 1.024350 0.042106
v -24.401043 1.026835 0.043882
v -24.398390 1.045935 0.041229
v -24.402925 1.050186 0.045765
v -24.397566 1.074510 0.040405
v -24.383646 1.089571 0.026485
v -24.383221 1.109368 0.026061
v -24.387730 1.113453 0.030567
v -24.372097 1.121349 0.014936
v -24.342226 1.121349 -0.014936
v -24.326593 1.113453 -0.030567
v -24.331100 1.109368 -0.026060
v -24.330677 1.089571 -0.026485
v -24.316755 1.074510 -0.040404
v -24.311396 1.050186 -0.045765
v -24.315933 1.045935 -0.041228
v -24.313278 1.026835 -0.043882
v -24.315054 1.024350 -0.042106
v -24.372097 1.121349 -0.014936
v -24.387730 1.113453 -0.030567
v -24.383221 1.109368 -0.026060
v -24.383646 1.089571 -0.026485
v -24.397566 1.074510 -0.040404
v -24.402925 1.050186 -0.045765
v -24.398390 1.045935 -0.041228
v -24.401043 1.026835 -0.043882
v -24.399267 1.024350 -0.042106
v -24.340809 1.077228 0.016351
v -24.333221 1.077228 0.000000
v -24.357161 1.077228 0.023940
v -24.373510 1.077228 0.016351
v -24.381100 1.077228 0.000000
v -24.373510 1.077228 -0.016351
v -24.357161 1.077228 -0.023940
v -24.340809 1.077228 -0.016351
v -24.357161 1.077228 0.000000
v -24.316490 1.038641 0.040670
v -24.357161 1.038641 0.059544
v -24.397829 1.038641 0.040670
v -24.416704 1.038641 0.000000
v -24.397829 1.038641 -0.040669
v -24.357161 1.038641 -0.059544
v -24.316490 1.038641 -0.040669
v -24.297615 1.038641 0.000000
v -24.390093 0.843079 -0.004968
v -24.402229 0.845228 -0.004444
v -24.414091 0.860825 0.010456
v -24.421707 0.885408 0.031032
v -24.420902 0.915554 0.052892
v -24.390108 0.843376 0.000514
v -24.399765 0.845437 0.000576
v -24.409643 0.859623 0.013519
v -24.418289 0.883986 0.035309
v -24.415785 0.912861 0.054221
v -24.420389 0.912423 0.057795
v -24.423029 0.881063 0.034573
v -24.414299 0.856268 0.014110
v -24.402960 0.840973 -0.001158
v -24.391371 0.838016 -0.002110
v -24.315840 0.842194 -0.018664
v -24.325855 0.839397 -0.017421
v -24.327927 0.844261 -0.019644
v -24.317879 0.846483 -0.020805
v -24.326267 0.844372 -0.014275
v -24.318419 0.846039 -0.015107
v -24.297651 0.861380 -0.008348
v -24.301790 0.863883 -0.005630
v -24.300735 0.865687 -0.010859
v -24.282164 0.885504 0.003751
v -24.287176 0.886905 0.005761
v -24.285425 0.888618 0.000481
v -24.338812 0.999381 0.073596
v -24.340786 1.000743 0.068169
v -24.339542 0.994387 0.069555
v -24.361881 0.990028 0.078326
v -24.363512 0.991927 0.072637
v -24.360107 0.986227 0.073230
v -24.317585 0.995680 0.065035
v -24.320988 0.991056 0.062484
v -24.320202 0.996758 0.059692
v -24.299465 0.981484 0.054408
v -24.304384 0.977776 0.052900
v -24.302694 0.982565 0.049157
v -24.285801 0.961251 0.042863
v -24.290823 0.958790 0.042349
v -24.289036 0.962463 0.038480
v -24.277969 0.938096 0.030071
v -24.283424 0.936709 0.030572
v -24.281546 0.939821 0.026192
v -24.277506 0.912745 0.017061
v -24.282913 0.912429 0.018291
v -24.281282 0.915096 0.013615
v -24.384542 0.969842 0.076419
v -24.385851 0.971883 0.071388
v -24.381857 0.967713 0.071840
v -24.405167 0.942454 0.070042
v -24.406153 0.945009 0.065114
v -24.401493 0.941573 0.065779
v -24.343998 0.843079 0.029783
v -24.337475 0.845228 0.040031
v -24.318642 0.860825 0.042853
v -24.297014 0.885408 0.039161
v -24.278484 0.915554 0.027533
v -24.339241 0.843376 0.027056
v -24.334360 0.845437 0.035387
v -24.318213 0.859623 0.037469
v -24.295019 0.883986 0.034063
v -24.279892 0.912861 0.022438
v -24.274494 0.912423 0.024639
v -24.293285 0.881063 0.038536
v -24.315372 0.856268 0.041207
v -24.334263 0.840973 0.039021
v -24.340881 0.838016 0.029461
v -24.392984 0.842194 -0.027673
v -24.386902 0.839397 -0.019623
v -24.387791 0.844261 -0.016716
v -24.393820 0.846483 -0.024838
v -24.383970 0.844372 -0.020837
v -24.388617 0.846039 -0.027220
v -24.393145 0.861380 -0.048584
v -24.388723 0.863883 -0.046359
v -24.393778 0.865687 -0.044658
v -24.390411 0.885504 -0.068045
v -24.386166 0.886905 -0.064711
v -24.391611 0.888618 -0.063586
v -24.301600 0.999381 -0.053909
v -24.305313 1.000743 -0.049488
v -24.304735 0.994387 -0.051258
v -24.285967 0.990028 -0.036295
v -24.290077 0.991927 -0.032039
v -24.291267 0.986227 -0.035284
v -24.319626 0.995680 -0.068012
v -24.320135 0.991056 -0.063790
v -24.322945 0.996758 -0.063075
v -24.337889 0.981484 -0.078390
v -24.336737 0.977776 -0.073376
v -24.340824 0.982565 -0.072970
v -24.354721 0.961251 -0.084452
v -24.352654 0.958790 -0.079846
v -24.356899 0.962463 -0.079460
v -24.369715 0.938096 -0.084839
v -24.366550 0.936709 -0.080364
v -24.371286 0.939821 -0.079802
v -24.381212 0.912745 -0.078735
v -24.377445 0.912429 -0.074666
v -24.382309 0.915096 -0.073740
v -24.276289 0.969842 -0.015718
v -24.279991 0.971883 -0.012069
v -24.281599 0.967713 -0.015754
v -24.271500 0.942454 0.005331
v -24.275272 0.945009 0.008651
v -24.277029 0.941573 0.004282
v -24.336948 0.843079 -0.027513
v -24.331335 0.845228 -0.038285
v -24.338308 0.860825 -0.056007
v -24.352320 0.885408 -0.072891
v -24.371655 0.915554 -0.083123
v -24.341690 0.843376 -0.030268
v -24.336916 0.845437 -0.038661
v -24.343184 0.859623 -0.053686
v -24.357731 0.883986 -0.072069
v -24.375364 0.912861 -0.079357
v -24.376156 0.912423 -0.085132
v -24.354725 0.881063 -0.075807
v -24.341370 0.856268 -0.058015
v -24.333817 0.840973 -0.040561
v -24.338787 0.838016 -0.030049
v -24.362215 0.842194 0.043639
v -24.358284 0.839397 0.034346
v -24.355324 0.844261 0.033662
v -24.359343 0.846483 0.042945
v -24.360802 0.844372 0.032414
v -24.364006 0.846039 0.039629
v -24.380243 0.861380 0.054234
v -24.380527 0.863883 0.049291
v -24.376526 0.865687 0.052819
v -24.398464 0.885504 0.061597
v -24.397699 0.886905 0.056253
v -24.394003 0.888618 0.060408
v -24.430630 0.999381 -0.022384
v -24.424944 1.000743 -0.021379
v -24.426765 0.994387 -0.020995
v -24.423189 0.990028 -0.044729
v -24.417448 0.991927 -0.043296
v -24.419662 0.986227 -0.040644
v -24.433828 0.995680 0.000279
v -24.429918 0.991056 -0.001392
v -24.427893 0.996758 0.000684
v -24.433685 0.981484 0.021285
v -24.429918 0.977776 0.017778
v -24.427523 0.982565 0.021116
v -24.430519 0.961251 0.038891
v -24.427563 0.958790 0.034798
v -24.425106 0.962463 0.038282
v -24.423355 0.938096 0.052070
v -24.421064 0.936709 0.047094
v -24.418209 0.939821 0.050912
v -24.412321 0.912745 0.058976
v -24.410683 0.912429 0.053678
v -24.407448 0.915096 0.057428
v -24.410208 0.969842 -0.063399
v -24.405197 0.971883 -0.062017
v -24.407585 0.967713 -0.058783
v -24.394375 0.942454 -0.078071
v -24.389612 0.945009 -0.076463
v -24.392517 0.941573 -0.072758
vt 0.932449 0.680870
vt 0.907374 0.658774
vt 0.893508 0.664383
vt 0.930316 0.697343
vt 0.962364 0.697482
vt 0.961608 0.681125
vt 0.911507 0.280051
vt 0.893635 0.318389
vt 0.909757 0.319520
vt 0.922938 0.291568
vt 0.984337 0.250564
vt 0.986565 0.266626
vt 0.930316 0.697343
vt 0.932449 0.680870
vt 0.961608 0.681125
vt 0.962364 0.697482
vt 0.911507 0.280051
vt 0.922938 0.291568
vt 0.909757 0.319520
vt 0.893635 0.318389
vt 0.907374 0.658774
vt 0.893508 0.664383
vt 0.984337 0.250564
vt 0.986565 0.266626
vt 0.934580 0.664397
vt 0.921239 0.653166
vt 0.960852 0.664769
vt 0.934580 0.664397
vt 0.960852 0.664769
vt 0.925879 0.320651
vt 0.921239 0.653166
vt 0.934370 0.303085
vt 0.988794 0.282687
vt 0.934370 0.303085
vt 0.988794 0.282687
vt 0.925879 0.320651
vt 0.935543 0.659443
vt 0.925492 0.651202
vt 0.960872 0.659643
vt 0.937968 0.306471
vt 0.930796 0.321690
vt 0.990021 0.287660
vt 0.929182 0.702206
vt 0.889150 0.666280
vt 0.962385 0.702608
vt 0.888705 0.317389
vt 0.907862 0.276713
vt 0.983151 0.245581
vt 0.082941 0.566067
vt 0.083071 0.584100
vt 0.053483 0.584297
vt 0.053353 0.566277
vt 0.083154 0.602293
vt 0.053567 0.602360
vt 0.083154 0.458177
vt 0.083142 0.476425
vt 0.053555 0.476320
vt 0.053567 0.458243
vt 0.083042 0.494588
vt 0.053454 0.494375
vt 0.082912 0.512577
vt 0.053324 0.512383
vt 0.082828 0.530414
vt 0.053240 0.530349
vt 0.082840 0.548201
vt 0.053252 0.548303
vt 0.056953 0.416591
vt 0.057691 0.389993
vt 0.076293 0.398293
vt 0.037918 0.584341
vt 0.037717 0.566325
vt 0.038047 0.602374
vt 0.038029 0.476297
vt 0.038047 0.458258
vt 0.037873 0.494327
vt 0.037672 0.512339
vt 0.037542 0.530335
vt 0.037561 0.548326
vt 0.029849 0.584397
vt 0.029647 0.566385
vt 0.029978 0.602393
vt 0.029959 0.476268
vt 0.029978 0.458277
vt 0.029804 0.494267
vt 0.029602 0.512283
vt 0.029473 0.530316
vt 0.029491 0.548355
vt 0.037651 0.434901
vt 0.030367 0.415879
vt 0.075276 0.435918
vt 0.083577 0.417316
vt 0.056252 0.443202
vt 0.038669 0.397277
vt 0.082643 0.672421
vt 0.083480 0.681107
vt 0.142008 0.679521
vt 0.141138 0.671842
vt 0.165510 0.669087
vt 0.159364 0.661746
vt 0.182439 0.647759
vt 0.172048 0.644500
vt 0.193517 0.586893
vt 0.184495 0.585081
vt 0.122087 0.323962
vt 0.165728 0.361835
vt 0.171971 0.357849
vt 0.124726 0.316723
vt 0.193623 0.416161
vt 0.199432 0.487463
vt 0.208280 0.487725
vt 0.202375 0.414733
vt 0.028191 0.661585
vt 0.085243 0.661585
vt 0.086112 0.669091
vt 0.029028 0.670076
vt 0.099651 0.652073
vt 0.105797 0.659249
vt 0.107949 0.638796
vt 0.118340 0.642015
vt 0.120396 0.580709
vt 0.129418 0.582481
vt 0.135332 0.485281
vt 0.144181 0.485537
vt 0.067904 0.322158
vt 0.065266 0.329234
vt 0.012789 0.312808
vt 0.013281 0.304934
vt 0.082077 0.663818
vt 0.139129 0.663818
vt 0.139998 0.671325
vt 0.082914 0.672309
vt 0.153537 0.654306
vt 0.159682 0.661483
vt 0.161835 0.641029
vt 0.172226 0.644248
vt 0.174282 0.582943
vt 0.183303 0.584714
vt 0.165588 0.360807
vt 0.121790 0.324391
vt 0.198067 0.487770
vt 0.192161 0.416414
vt 0.067167 0.307167
vt 0.067366 0.299606
vt 0.082643 0.672421
vt 0.141138 0.671842
vt 0.142008 0.679521
vt 0.083480 0.681107
vt 0.159364 0.661746
vt 0.165510 0.669087
vt 0.172048 0.644500
vt 0.182439 0.647759
vt 0.184495 0.585081
vt 0.193517 0.586893
vt 0.199432 0.487463
vt 0.208280 0.487725
vt 0.124726 0.316723
vt 0.122087 0.323962
vt 0.066874 0.307660
vt 0.067366 0.299606
vt 0.028191 0.661585
vt 0.029028 0.670076
vt 0.086112 0.669091
vt 0.085243 0.661585
vt 0.105797 0.659249
vt 0.099651 0.652073
vt 0.118340 0.642015
vt 0.107949 0.638796
vt 0.129418 0.582481
vt 0.120396 0.580709
vt 0.065266 0.329234
vt 0.105459 0.362469
vt 0.111702 0.358574
vt 0.067904 0.322158
vt 0.129524 0.415577
vt 0.135332 0.485281
vt 0.144181 0.485537
vt 0.138275 0.414181
vt 0.082077 0.663818
vt 0.139129 0.663818
vt 0.139998 0.671325
vt 0.082914 0.672309
vt 0.153537 0.654306
vt 0.159682 0.661483
vt 0.161835 0.641029
vt 0.172226 0.644248
vt 0.174282 0.582943
vt 0.183303 0.584714
vt 0.165728 0.361835
vt 0.159345 0.364703
vt 0.119152 0.331468
vt 0.189218 0.487515
vt 0.193623 0.416161
vt 0.183410 0.417811
vt 0.066675 0.315041
vt 0.075494 0.479930
vt 0.075494 0.526956
vt 0.066042 0.526090
vt 0.066042 0.480796
vt 0.105520 0.479930
vt 0.105520 0.525224
vt 0.095564 0.525224
vt 0.095564 0.479930
vt 0.066874 0.307660
vt 0.066675 0.315041
vt 0.119152 0.331468
vt 0.111702 0.358574
vt 0.105459 0.362469
vt 0.159345 0.364703
vt 0.138275 0.414181
vt 0.129524 0.415577
vt 0.183410 0.417811
vt 0.189218 0.487515
vt 0.198067 0.487770
vt 0.202375 0.414733
vt 0.192161 0.416414
vt 0.171971 0.357849
vt 0.165588 0.360807
vt 0.121790 0.324391
vt 0.013281 0.304934
vt 0.012789 0.312808
vt 0.067167 0.307167
vt 0.075830 0.479930
vt 0.085282 0.480796
vt 0.085282 0.526090
vt 0.075830 0.526956
vt 0.085610 0.479930
vt 0.095253 0.479930
vt 0.095253 0.526956
vt 0.085610 0.526956
vt 0.932449 0.680870
vt 0.930316 0.697343
vt 0.893508 0.664383
vt 0.907374 0.658774
vt 0.961608 0.681125
vt 0.962364 0.697482
vt 0.911507 0.280051
vt 0.922938 0.291568
vt 0.909757 0.319520
vt 0.893635 0.318389
vt 0.984337 0.250564
vt 0.986565 0.266626
vt 0.930316 0.697343
vt 0.962364 0.697482
vt 0.961608 0.681125
vt 0.932449 0.680870
vt 0.911507 0.280051
vt 0.893635 0.318389
vt 0.909757 0.319520
vt 0.922938 0.291568
vt 0.893508 0.664383
vt 0.907374 0.658774
vt 0.986565 0.266626
vt 0.984337 0.250564
vt 0.934580 0.664397
vt 0.921239 0.653166
vt 0.960852 0.664769
vt 0.960852 0.664769
vt 0.934580 0.664397
vt 0.921239 0.653166
vt 0.925879 0.320651
vt 0.934370 0.303085
vt 0.988794 0.282687
vt 0.988794 0.282687
vt 0.934370 0.303085
vt 0.925879 0.320651
vt 0.935543 0.659443
vt 0.925492 0.651202
vt 0.960872 0.659643
vt 0.930796 0.321690
vt 0.937968 0.306471
vt 0.990021 0.287660
vt 0.929182 0.702206
vt 0.889150 0.666280
vt 0.962385 0.702608
vt 0.907862 0.276713
vt 0.888705 0.317389
vt 0.983151 0.245581
vt 0.685857 0.131366
vt 0.685857 0.091375
vt 0.749306 0.091375
vt 0.749306 0.131366
vt 0.241715 0.131366
vt 0.241715 0.091375
vt 0.305164 0.091375
vt 0.305164 0.131366
vt 0.368613 0.091375
vt 0.368613 0.131366
vt 0.432061 0.091375
vt 0.432061 0.131366
vt 0.495510 0.091375
vt 0.495510 0.131366
vt 0.558959 0.091375
vt 0.558959 0.131366
vt 0.622408 0.091375
vt 0.622408 0.131366
vt 0.124269 0.177405
vt 0.055640 0.246034
vt 0.124269 0.278079
vt 0.124269 0.076732
vt 0.055640 0.108777
vt 0.224943 0.177405
vt 0.192897 0.108777
vt 0.192897 0.246033
vt 0.878601 0.174133
vt 0.878601 0.207457
vt 0.855839 0.196894
vt 0.845276 0.174133
vt 0.855839 0.151371
vt 0.878601 0.140808
vt 0.901362 0.151371
vt 0.911925 0.174133
vt 0.901362 0.196894
vt 0.622408 0.152851
vt 0.685857 0.152851
vt 0.749306 0.152851
vt 0.241715 0.152851
vt 0.305164 0.152851
vt 0.368613 0.152851
vt 0.432061 0.152851
vt 0.495510 0.152851
vt 0.558959 0.152851
vt 0.749306 0.167808
vt 0.685857 0.167808
vt 0.622408 0.167808
vt 0.558959 0.167808
vt 0.241715 0.167808
vt 0.305164 0.167808
vt 0.368613 0.167808
vt 0.432062 0.167808
vt 0.495510 0.167808
vt 0.749306 0.210617
vt 0.685857 0.210617
vt 0.241715 0.210617
vt 0.305164 0.210617
vt 0.368613 0.210617
vt 0.432062 0.210617
vt 0.495510 0.210617
vt 0.558959 0.210617
vt 0.622408 0.210617
vt 0.749306 0.246138
vt 0.685857 0.246138
vt 0.685857 0.234089
vt 0.749306 0.234089
vt 0.241715 0.246138
vt 0.241715 0.234089
vt 0.305164 0.234089
vt 0.305164 0.246138
vt 0.368613 0.246138
vt 0.368613 0.234089
vt 0.432062 0.234089
vt 0.432062 0.246138
vt 0.495510 0.246138
vt 0.495510 0.234089
vt 0.558959 0.234089
vt 0.558959 0.246138
vt 0.622408 0.246138
vt 0.622408 0.234089
vt 0.749306 0.271933
vt 0.685857 0.271933
vt 0.241715 0.271933
vt 0.305164 0.271933
vt 0.368613 0.271933
vt 0.432062 0.271933
vt 0.495510 0.271933
vt 0.558959 0.271933
vt 0.622408 0.271933
vt 0.878601 0.228825
vt 0.915956 0.211488
vt 0.951814 0.247345
vt 0.878601 0.281323
vt 0.805389 0.247345
vt 0.841245 0.211488
vt 0.823908 0.174133
vt 0.771410 0.174133
vt 0.805389 0.100920
vt 0.841245 0.136777
vt 0.878601 0.119441
vt 0.878601 0.066942
vt 0.951814 0.100920
vt 0.915956 0.136777
vt 0.933293 0.174133
vt 0.985791 0.174133
vt 0.023595 0.177405
vt 0.241715 0.086172
vt 0.305164 0.086172
vt 0.432061 0.086172
vt 0.495510 0.086172
vt 0.558959 0.086172
vt 0.622408 0.086172
vt 0.685857 0.086172
vt 0.368613 0.086172
vt 0.749306 0.086172
vt 0.241715 0.075441
vt 0.305164 0.075441
vt 0.432061 0.075441
vt 0.495510 0.075441
vt 0.558959 0.075441
vt 0.622408 0.075441
vt 0.685857 0.075441
vt 0.368613 0.075441
vt 0.749306 0.075441
vt 0.618157 0.392922
vt 0.618157 0.330272
vt 0.684338 0.330272
vt 0.684338 0.392922
vt 0.551976 0.330272
vt 0.551976 0.392922
vt 0.419614 0.330272
vt 0.485795 0.330272
vt 0.485795 0.392922
vt 0.419614 0.392922
vt 0.287253 0.330272
vt 0.353433 0.330272
vt 0.353433 0.392922
vt 0.287253 0.392922
vt 0.750519 0.330272
vt 0.750519 0.392922
vt 0.618157 0.443929
vt 0.684338 0.443929
vt 0.551976 0.443929
vt 0.485795 0.443929
vt 0.419614 0.443929
vt 0.353433 0.443929
vt 0.287253 0.443929
vt 0.750519 0.443929
vt 0.618157 0.463909
vt 0.684338 0.463909
vt 0.551976 0.463909
vt 0.485795 0.463909
vt 0.419614 0.463909
vt 0.353433 0.463909
vt 0.287253 0.463909
vt 0.750519 0.463909
vt 0.618157 0.530788
vt 0.684338 0.530788
vt 0.551976 0.530788
vt 0.485795 0.530788
vt 0.419614 0.530788
vt 0.353433 0.530788
vt 0.287253 0.530788
vt 0.750519 0.530788
vt 0.618157 0.590916
vt 0.684338 0.590916
vt 0.551976 0.590916
vt 0.485795 0.590916
vt 0.419614 0.590916
vt 0.353433 0.590916
vt 0.287253 0.590916
vt 0.750519 0.590916
vt 0.684338 0.661713
vt 0.618157 0.661713
vt 0.551976 0.661713
vt 0.485795 0.661713
vt 0.419614 0.661713
vt 0.353433 0.661713
vt 0.287253 0.661713
vt 0.750519 0.661713
vt 0.221072 0.590916
vt 0.221072 0.661713
vt 0.221072 0.530788
vt 0.221072 0.463909
vt 0.221072 0.443929
vt 0.221072 0.392922
vt 0.221072 0.330272
vt 0.616623 0.717854
vt 0.616623 0.709044
vt 0.677278 0.709044
vt 0.677277 0.717854
vt 0.555969 0.709044
vt 0.555969 0.717854
vt 0.495314 0.709044
vt 0.495314 0.717854
vt 0.434660 0.709044
vt 0.434660 0.717854
vt 0.374006 0.709044
vt 0.374006 0.717854
vt 0.313352 0.709044
vt 0.313352 0.717854
vt 0.737932 0.709044
vt 0.737932 0.717854
vt 0.616623 0.741779
vt 0.677278 0.741779
vt 0.555969 0.741779
vt 0.495314 0.741779
vt 0.434660 0.741779
vt 0.374006 0.741779
vt 0.313352 0.741779
vt 0.737932 0.741779
vt 0.616623 0.772762
vt 0.616623 0.756010
vt 0.677278 0.756010
vt 0.677278 0.772762
vt 0.555969 0.756010
vt 0.555969 0.772762
vt 0.495314 0.756010
vt 0.495314 0.772762
vt 0.434660 0.756010
vt 0.434660 0.772762
vt 0.374006 0.756010
vt 0.374006 0.772762
vt 0.313352 0.756010
vt 0.313352 0.772762
vt 0.737932 0.756010
vt 0.737932 0.772762
vt 0.616623 0.817769
vt 0.677278 0.817769
vt 0.555969 0.817769
vt 0.495314 0.817769
vt 0.434660 0.817769
vt 0.374006 0.817769
vt 0.313352 0.817769
vt 0.737932 0.817769
vt 0.616623 0.863379
vt 0.677277 0.863379
vt 0.555969 0.863379
vt 0.495314 0.863379
vt 0.434660 0.863379
vt 0.374006 0.863379
vt 0.313352 0.863379
vt 0.737932 0.863379
vt 0.616623 0.906795
vt 0.677278 0.906795
vt 0.555970 0.906795
vt 0.495314 0.906795
vt 0.434660 0.906795
vt 0.374006 0.906795
vt 0.313352 0.906795
vt 0.737932 0.906795
vt 0.979329 0.806094
vt 0.994362 0.806094
vt 0.956097 0.888544
vt 0.945829 0.878277
vt 0.956097 0.723644
vt 0.945829 0.733912
vt 0.873647 0.685379
vt 0.873647 0.700412
vt 0.791197 0.723644
vt 0.801465 0.733912
vt 0.752932 0.806094
vt 0.767965 0.806094
vt 0.791197 0.888544
vt 0.801465 0.878277
vt 0.873647 0.926809
vt 0.873647 0.911777
vt 0.925285 0.806094
vt 0.908916 0.841364
vt 0.908916 0.770824
vt 0.873647 0.754455
vt 0.838377 0.770824
vt 0.822008 0.806094
vt 0.838377 0.841364
vt 0.873647 0.857733
vt 0.873647 0.806094
vt 0.252697 0.863379
vt 0.252697 0.906795
vt 0.252697 0.817769
vt 0.252697 0.772762
vt 0.252697 0.756010
vt 0.252697 0.717854
vt 0.252697 0.741779
vt 0.252697 0.709044
vt 0.230939 0.806094
vt 0.197439 0.733912
vt 0.153287 0.778064
vt 0.166296 0.806094
vt 0.125256 0.700412
vt 0.125256 0.765055
vt 0.053074 0.733912
vt 0.097226 0.778064
vt 0.019574 0.806094
vt 0.084217 0.806094
vt 0.053074 0.878277
vt 0.097226 0.834125
vt 0.125256 0.911777
vt 0.125256 0.847134
vt 0.197439 0.878277
vt 0.153287 0.834125
vt 0.125256 0.806094
vt 0.801232 0.337180
vt 0.798836 0.341530
vt 0.775925 0.343999
vt 0.778863 0.337802
vt 0.834965 0.366663
vt 0.833358 0.370927
vt 0.869405 0.416050
vt 0.865794 0.420643
vt 0.886405 0.483412
vt 0.884997 0.484158
vt 0.873335 0.546646
vt 0.846157 0.604033
vt 0.845865 0.602604
vt 0.872646 0.546248
vt 0.798836 0.341530
vt 0.797538 0.346986
vt 0.779451 0.348688
vt 0.775925 0.343999
vt 0.833358 0.370927
vt 0.826900 0.373715
vt 0.865794 0.420643
vt 0.861918 0.423510
vt 0.884997 0.484158
vt 0.875892 0.483661
vt 0.845865 0.602604
vt 0.837910 0.598593
vt 0.863781 0.543864
vt 0.872646 0.546248
vt 0.811484 0.666868
vt 0.853866 0.652152
vt 0.851141 0.649008
vt 0.810074 0.664047
vt 0.810437 0.655521
vt 0.847305 0.642891
vt 0.810803 0.647961
vt 0.768037 0.670362
vt 0.768549 0.667250
vt 0.810653 0.645643
vt 0.768549 0.667250
vt 0.765677 0.659214
vt 0.803506 0.639097
vt 0.810653 0.645643
vt 0.765677 0.659214
vt 0.768037 0.670362
vt 0.852340 0.339507
vt 0.832323 0.336905
vt 0.830355 0.342416
vt 0.850277 0.344210
vt 0.831537 0.347457
vt 0.847058 0.348824
vt 0.887349 0.377466
vt 0.879115 0.384036
vt 0.883450 0.381914
vt 0.907867 0.429060
vt 0.917744 0.424788
vt 0.913512 0.426713
vt 0.879105 0.612796
vt 0.888701 0.619608
vt 0.884791 0.616585
vt 0.904194 0.573225
vt 0.914061 0.577203
vt 0.909849 0.575184
vt 0.917375 0.528109
vt 0.928188 0.529479
vt 0.923260 0.528731
vt 0.917226 0.479525
vt 0.927966 0.478584
vt 0.922647 0.479204
vt 0.801232 0.337180
vt 0.798836 0.341530
vt 0.775925 0.343999
vt 0.778863 0.337802
vt 0.834965 0.366663
vt 0.833358 0.370927
vt 0.869405 0.416050
vt 0.865794 0.420643
vt 0.886405 0.483412
vt 0.884997 0.484158
vt 0.873335 0.546646
vt 0.846157 0.604033
vt 0.845865 0.602604
vt 0.872646 0.546248
vt 0.798836 0.341530
vt 0.797538 0.346986
vt 0.779451 0.348688
vt 0.775925 0.343999
vt 0.833358 0.370927
vt 0.826900 0.373715
vt 0.865794 0.420643
vt 0.861918 0.423510
vt 0.884997 0.484158
vt 0.875892 0.483661
vt 0.845865 0.602604
vt 0.837910 0.598593
vt 0.863781 0.543864
vt 0.872646 0.546248
vt 0.811484 0.666868
vt 0.853866 0.652152
vt 0.851141 0.649008
vt 0.810074 0.664047
vt 0.810437 0.655521
vt 0.847305 0.642891
vt 0.810803 0.647961
vt 0.768037 0.670362
vt 0.768549 0.667250
vt 0.810653 0.645643
vt 0.768549 0.667250
vt 0.765677 0.659214
vt 0.803506 0.639097
vt 0.810653 0.645643
vt 0.765677 0.659214
vt 0.768037 0.670362
vt 0.852340 0.339507
vt 0.832323 0.336905
vt 0.830355 0.342416
vt 0.850277 0.344210
vt 0.831537 0.347457
vt 0.847058 0.348824
vt 0.887349 0.377466
vt 0.879115 0.384036
vt 0.883450 0.381914
vt 0.907867 0.429060
vt 0.917744 0.424788
vt 0.913512 0.426713
vt 0.879105 0.612796
vt 0.888701 0.619608
vt 0.884791 0.616585
vt 0.904194 0.573225
vt 0.914061 0.577203
vt 0.909849 0.575184
vt 0.917375 0.528109
vt 0.928188 0.529479
vt 0.923260 0.528731
vt 0.917226 0.479525
vt 0.927966 0.478584
vt 0.922647 0.479204
vt 0.801232 0.337180
vt 0.798836 0.341530
vt 0.775925 0.343999
vt 0.778863 0.337802
vt 0.834965 0.366663
vt 0.833358 0.370927
vt 0.869405 0.416050
vt 0.865794 0.420643
vt 0.886405 0.483412
vt 0.884997 0.484158
vt 0.873335 0.546646
vt 0.846157 0.604033
vt 0.845865 0.602604
vt 0.872646 0.546248
vt 0.798836 0.341530
vt 0.797538 0.346986
vt 0.779451 0.348688
vt 0.775925 0.343999
vt 0.833358 0.370927
vt 0.826900 0.373715
vt 0.865794 0.420643
vt 0.861918 0.423510
vt 0.884997 0.484158
vt 0.875892 0.483661
vt 0.845865 0.602604
vt 0.837910 0.598593
vt 0.863781 0.543864
vt 0.872646 0.546248
vt 0.811484 0.666868
vt 0.853866 0.652152
vt 0.851141 0.649008
vt 0.810074 0.664047
vt 0.810437 0.655521
vt 0.847305 0.642891
vt 0.810803 0.647961
vt 0.768037 0.670362
vt 0.768549 0.667250
vt 0.810653 0.645643
vt 0.768549 0.667250
vt 0.765677 0.659214
vt 0.803506 0.639097
vt 0.810653 0.645643
vt 0.765677 0.659214
vt 0.768037 0.670362
vt 0.852340 0.339507
vt 0.832323 0.336905
vt 0.830355 0.342416
vt 0.850277 0.344210
vt 0.831537 0.347457
vt 0.847058 0.348824
vt 0.887349 0.377466
vt 0.879115 0.384036
vt 0.883450 0.381914
vt 0.907867 0.429060
vt 0.917744 0.424788
vt 0.913512 0.426713
vt 0.879105 0.612796
vt 0.888701 0.619608
vt 0.884791 0.616585
vt 0.904194 0.573225
vt 0.914061 0.577203
vt 0.909849 0.575184
vt 0.917375 0.528109
vt 0.928188 0.529479
vt 0.923260 0.528731
vt 0.917226 0.479525
vt 0.927966 0.478584
vt 0.922647 0.479204
vn 0.001125 -0.001138 0.999999
vn 0.001618 -0.000036 0.999999
vn 0.432639 0.273593 0.859052
vn 0.131841 0.487288 0.863231
vn -0.060208 0.489293 0.870039
vn -0.001383 -0.000124 0.999999
vn 0.382845 -0.311948 0.869550
vn 0.514673 -0.047052 0.856095
vn 0.000072 0.001923 0.999998
vn 0.001963 0.001929 0.999996
vn 0.252700 -0.453060 0.854915
vn 0.003309 0.002083 0.999992
vn 0.131842 0.487318 -0.863214
vn 0.001122 -0.001106 -0.999999
vn -0.001382 -0.000112 -0.999999
vn -0.060208 0.489313 -0.870027
vn 0.382851 -0.311936 -0.869552
vn 0.001964 0.001936 -0.999996
vn 0.000073 0.001929 -0.999998
vn 0.514684 -0.047039 -0.856088
vn 0.001615 -0.000011 -0.999999
vn 0.432649 0.273614 -0.859041
vn 0.252699 -0.453059 -0.854916
vn 0.003309 0.002083 -0.999992
vn -0.129788 -0.488832 0.862669
vn -0.430352 -0.273968 0.860081
vn 0.057802 -0.489508 0.870081
vn -0.129793 -0.488808 -0.862682
vn 0.057802 -0.489508 -0.870081
vn -0.514552 0.050341 -0.855980
vn -0.430362 -0.273944 -0.860083
vn -0.379562 0.315409 -0.869741
vn -0.247042 0.456621 -0.854674
vn -0.379559 0.315409 0.869743
vn -0.247043 0.456621 0.854673
vn -0.514541 0.050343 0.855986
vn -0.059501 -0.233683 0.970491
vn -0.203328 -0.130780 0.970337
vn -0.203328 -0.130780 0.970337
vn -0.059501 -0.233683 0.970491
vn -0.059484 -0.233680 -0.970492
vn -0.059484 -0.233680 -0.970492
vn -0.845053 -0.534682 0.000000
vn -0.681708 -0.252734 -0.686586
vn -0.681708 -0.252734 0.686586
vn -0.176742 0.150126 -0.972741
vn -0.176742 0.150126 -0.972741
vn -0.247130 0.024021 -0.968685
vn -0.247130 0.024021 -0.968685
vn -0.247183 0.024029 0.968671
vn -0.247183 0.024029 0.968671
vn -0.176760 0.150139 0.972736
vn -0.176760 0.150139 0.972736
vn -0.203275 -0.130773 -0.970349
vn -0.203275 -0.130773 -0.970349
vn -0.997603 0.069199 0.000000
vn -0.730938 -0.098246 -0.675335
vn -0.730937 -0.098247 0.675336
vn 0.062961 0.231449 -0.970808
vn 0.205049 0.129134 -0.970195
vn 0.205049 0.129134 -0.970195
vn 0.062961 0.231449 -0.970808
vn -0.722244 0.073560 -0.687716
vn -0.950990 0.309221 0.000000
vn 0.062971 0.231468 0.970802
vn 0.062971 0.231468 0.970802
vn -0.722244 0.073560 0.687716
vn 0.245272 -0.021300 -0.969220
vn 0.245272 -0.021300 -0.969220
vn 0.776070 -0.630646 -0.000009
vn 0.180617 -0.146774 -0.972540
vn 0.180632 -0.146783 0.972536
vn 0.245323 -0.021306 0.969207
vn 0.245323 -0.021306 0.969207
vn 0.205096 0.129159 0.970182
vn 0.205096 0.129159 0.970182
vn -0.585299 -0.411975 -0.698357
vn -0.657640 -0.753333 0.000001
vn -0.585300 -0.411973 0.698357
vn 0.933037 0.353485 0.067006
vn 0.612352 0.500103 -0.612309
vn 0.701906 -0.121231 -0.701876
vn 0.958097 -0.238264 -0.158996
vn -0.066992 0.353627 -0.932984
vn 0.159044 -0.238153 -0.958117
vn -0.707118 0.000150 -0.707096
vn -0.352479 -0.520578 -0.777661
vn -0.933038 -0.353481 -0.067021
vn -0.533002 -0.803159 -0.266167
vn -0.612334 -0.500142 0.612295
vn -0.276719 -0.920253 0.276698
vn 0.067000 -0.353581 0.933001
vn 0.266135 -0.803193 0.532966
vn 0.707122 -0.000046 0.707091
vn 0.777651 -0.520627 0.352429
vn -0.353557 0.866024 0.353552
vn -0.915602 0.349776 0.198316
vn -0.685568 0.244727 0.685642
vn 0.701862 -0.121232 -0.701920
vn 0.958145 -0.238067 -0.159007
vn 0.159043 -0.238254 -0.958092
vn -0.352393 -0.520674 -0.777636
vn -0.532875 -0.803250 -0.266145
vn -0.276737 -0.920221 0.276785
vn 0.266082 -0.803221 0.532950
vn 0.777638 -0.520668 0.352397
vn 0.192813 0.962090 -0.192887
vn 0.422717 0.857105 0.294417
vn -0.294381 0.856990 -0.422975
vn -0.753513 0.603422 -0.260958
vn -0.198375 0.349764 0.915594
vn 0.260852 0.603408 0.753562
vn -0.000544 -0.009910 0.999951
vn 0.001177 -0.710600 0.703595
vn 0.179430 -0.678449 0.712398
vn 0.006953 -0.015609 0.999854
vn 0.484462 -0.511026 0.710034
vn 0.015592 -0.016030 0.999750
vn 0.660164 -0.246590 0.709491
vn 0.013162 -0.006097 0.999895
vn 0.703998 -0.092288 0.704180
vn 0.008366 -0.001133 0.999964
vn 0.011094 0.018216 0.999773
vn 0.018212 0.012966 0.999750
vn 0.578731 0.406007 0.707269
vn 0.354067 0.611100 0.707950
vn 0.017301 0.004488 0.999840
vn 0.010892 0.000108 0.999941
vn 0.709368 -0.014110 0.704697
vn 0.689504 0.164268 0.705408
vn -0.000540 -0.009892 -0.999951
vn 0.006935 -0.015599 -0.999854
vn 0.179418 -0.678447 -0.712404
vn 0.001180 -0.710594 -0.703601
vn 0.015567 -0.016017 -0.999751
vn 0.484451 -0.511024 -0.710044
vn 0.013140 -0.006083 -0.999895
vn 0.660157 -0.246584 -0.709500
vn 0.008340 -0.001129 -0.999965
vn 0.703989 -0.092287 -0.704190
vn 0.010884 0.000107 -0.999941
vn 0.709365 -0.014110 -0.704700
vn 0.354068 0.611095 -0.707954
vn 0.011093 0.018205 -0.999773
vn 0.002860 0.017475 -0.999843
vn 0.107994 0.701032 -0.704905
vn 0.006062 0.999982 0.000000
vn 0.006062 0.999982 0.000000
vn -0.287431 0.957801 0.000000
vn -0.287431 0.957801 0.000000
vn -0.718925 0.695088 0.000000
vn -0.718925 0.695088 0.000000
vn -0.937400 0.348255 0.000000
vn -0.937400 0.348255 0.000000
vn -0.990918 0.134470 0.000000
vn -0.990918 0.134470 0.000000
vn 0.578730 0.406008 -0.707268
vn 0.689504 0.164269 -0.705408
vn 0.107993 0.701043 0.704894
vn 0.000544 -0.009909 0.999951
vn -0.006954 -0.015610 0.999854
vn -0.179423 -0.678453 0.712397
vn -0.001178 -0.710600 0.703595
vn -0.015593 -0.016032 0.999750
vn -0.484523 -0.510950 0.710048
vn -0.013161 -0.006097 0.999895
vn -0.660211 -0.246495 0.709480
vn -0.008364 -0.001133 0.999964
vn -0.703996 -0.092297 0.704181
vn -0.010889 0.000108 0.999941
vn -0.709366 -0.014121 0.704699
vn -0.354062 0.611102 0.707951
vn -0.011093 0.018213 0.999773
vn -0.002861 0.017505 0.999843
vn -0.107990 0.701043 0.704894
vn 0.000540 -0.009892 -0.999951
vn -0.001180 -0.710594 -0.703601
vn -0.179411 -0.678451 -0.712402
vn -0.006936 -0.015601 -0.999854
vn -0.484510 -0.510950 -0.710057
vn -0.015568 -0.016022 -0.999750
vn -0.660203 -0.246490 -0.709489
vn -0.013139 -0.006085 -0.999895
vn -0.703987 -0.092295 -0.704190
vn -0.008338 -0.001128 -0.999965
vn -0.011092 0.018203 -0.999773
vn -0.018207 0.012967 -0.999750
vn -0.578715 0.406031 -0.707268
vn -0.354062 0.611098 -0.707954
vn -0.017295 0.004488 -0.999840
vn -0.010881 0.000107 -0.999941
vn -0.709363 -0.014122 -0.704702
vn -0.689495 0.164289 -0.705412
vn -0.006062 0.999982 0.000000
vn 0.287533 0.957771 0.000000
vn 0.287533 0.957771 0.000000
vn -0.006062 0.999982 0.000000
vn 0.718983 0.695028 0.000000
vn 0.718983 0.695028 0.000000
vn 0.937396 0.348265 0.000000
vn 0.937396 0.348265 0.000000
vn 0.990917 0.134478 0.000000
vn 0.990917 0.134478 0.000000
vn 0.500835 -0.865543 0.000000
vn 0.825890 -0.563831 0.000000
vn 0.825890 -0.563831 0.000000
vn 0.500835 -0.865543 0.000000
vn 0.999762 0.021814 0.000000
vn 0.999762 0.021814 0.000000
vn 0.975456 -0.220195 0.000000
vn 0.975456 -0.220195 0.000000
vn 0.150685 -0.988582 0.000000
vn 0.150685 -0.988582 0.000000
vn 0.002861 0.017506 0.999843
vn -0.150681 -0.988582 0.000000
vn -0.150681 -0.988582 0.000000
vn -0.500832 -0.865544 0.000000
vn -0.500832 -0.865544 0.000000
vn 0.018211 0.012968 -0.999750
vn -0.825919 -0.563789 0.000000
vn -0.825919 -0.563789 0.000000
vn 0.017300 0.004489 -0.999840
vn -0.975453 -0.220208 0.000000
vn -0.975453 -0.220208 0.000000
vn -0.999764 0.021730 0.000000
vn -0.999764 0.021730 0.000000
vn -0.689495 0.164289 0.705412
vn -0.017296 0.004487 0.999840
vn -0.578716 0.406029 0.707268
vn -0.018208 0.012963 0.999750
vn -0.107991 0.701033 -0.704905
vn -0.002860 0.017476 -0.999843
vn -0.001109 -0.001118 0.999999
vn -0.131838 0.487291 0.863230
vn -0.432598 0.273579 0.859077
vn -0.001582 -0.000011 0.999999
vn 0.001383 -0.000144 0.999999
vn 0.060208 0.489307 0.870031
vn -0.382833 -0.311897 0.869574
vn -0.001941 0.001983 0.999996
vn -0.000035 0.001970 0.999998
vn -0.514622 -0.047011 0.856127
vn -0.252694 -0.453051 0.854921
vn -0.003298 0.002086 0.999992
vn -0.131842 0.487283 -0.863234
vn 0.060208 0.489293 -0.870039
vn 0.001384 -0.000152 -0.999999
vn -0.001112 -0.001126 -0.999999
vn -0.382838 -0.311887 -0.869576
vn -0.514634 -0.047003 -0.856121
vn -0.000035 0.001974 -0.999998
vn -0.001942 0.001989 -0.999996
vn -0.432610 0.273578 -0.859071
vn -0.001585 -0.000017 -0.999999
vn -0.003297 0.002088 -0.999992
vn -0.252693 -0.453048 -0.854923
vn 0.129812 -0.488803 0.862682
vn 0.430368 -0.273910 0.860091
vn -0.057800 -0.489557 0.870053
vn -0.057801 -0.489558 -0.870053
vn 0.129811 -0.488809 -0.862679
vn 0.430376 -0.273919 -0.860084
vn 0.514571 0.050382 -0.855966
vn 0.379585 0.315449 -0.869717
vn 0.247057 0.456618 -0.854671
vn 0.247057 0.456618 0.854671
vn 0.379581 0.315449 0.869719
vn 0.514560 0.050384 0.855973
vn 0.059521 -0.233719 0.970481
vn 0.059521 -0.233719 0.970481
vn 0.203349 -0.130842 0.970324
vn 0.203349 -0.130842 0.970324
vn 0.059507 -0.233692 -0.970488
vn 0.681261 -0.254491 -0.686380
vn 0.843929 -0.536455 0.000000
vn 0.059507 -0.233692 -0.970488
vn 0.681261 -0.254490 0.686380
vn 0.176744 0.150143 -0.972738
vn 0.247130 0.024047 -0.968684
vn 0.247130 0.024047 -0.968684
vn 0.176744 0.150143 -0.972738
vn 0.247183 0.024021 0.968671
vn 0.176762 0.150120 0.972738
vn 0.176762 0.150120 0.972738
vn 0.247183 0.024021 0.968671
vn 0.203299 -0.130812 -0.970339
vn 0.203299 -0.130812 -0.970339
vn 0.997537 0.070138 -0.000000
vn 0.731143 -0.097428 -0.675231
vn 0.731143 -0.097428 0.675231
vn -0.062963 0.231442 -0.970809
vn -0.062963 0.231442 -0.970809
vn -0.205051 0.129153 -0.970192
vn -0.205051 0.129153 -0.970192
vn 0.722250 0.074447 -0.687614
vn 0.950680 0.310173 -0.000000
vn -0.062970 0.231457 0.970805
vn 0.722250 0.074447 0.687613
vn -0.062970 0.231457 0.970805
vn -0.245272 -0.021314 -0.969220
vn -0.180626 -0.146802 -0.972535
vn -0.776036 -0.630688 -0.000008
vn -0.245272 -0.021314 -0.969220
vn -0.180641 -0.146802 0.972532
vn -0.245322 -0.021308 0.969207
vn -0.245322 -0.021308 0.969207
vn -0.205094 0.129173 0.970181
vn -0.205094 0.129173 0.970181
vn 0.585288 -0.411999 -0.698352
vn 0.585288 -0.411999 0.698352
vn 0.657589 -0.753377 -0.000000
vn 0.685128 0.247383 -0.685128
vn 0.441265 0.781392 -0.441262
vn -0.000003 0.791787 -0.610797
vn -0.000003 0.255572 -0.966790
vn -0.441240 0.781416 -0.441244
vn -0.685125 0.247400 -0.685125
vn -0.610674 0.791881 0.001325
vn -0.967856 0.251503 0.001233
vn -0.439670 0.781476 0.442702
vn -0.684130 0.242732 0.687784
vn 0.001502 0.791737 0.610860
vn 0.002183 0.254500 0.967070
vn 0.441264 0.781392 0.441262
vn 0.685128 0.247383 0.685128
vn 0.610821 0.791769 -0.000001
vn 0.966804 0.255520 -0.000000
vn 0.000000 -1.000000 0.000000
vn -0.507055 -0.696987 -0.507055
vn 0.000001 -0.709996 -0.704205
vn 0.000000 -0.709993 0.704209
vn -0.507052 -0.696992 0.507051
vn 0.704180 -0.710022 -0.000000
vn 0.507043 -0.697001 0.507048
vn 0.507042 -0.697003 -0.507046
vn 0.000000 1.000000 -0.000001
vn -0.000004 0.911140 -0.412098
vn -0.430031 0.793823 -0.430022
vn -0.412111 0.911134 -0.000009
vn -0.430024 0.793836 0.430005
vn 0.000012 0.911144 0.412089
vn 0.429997 0.793843 0.430020
vn 0.412043 0.911165 0.000007
vn 0.429989 0.793849 -0.430015
vn 0.826387 0.563103 -0.000005
vn 0.590656 0.549769 -0.590660
vn -0.000002 0.563081 -0.826402
vn -0.590667 0.549748 -0.590669
vn -0.829168 0.558989 -0.003261
vn -0.591287 0.547408 0.592220
vn 0.004730 0.561470 0.827484
vn 0.590649 0.549781 0.590657
vn -0.000003 0.870640 -0.491922
vn 0.357009 0.863185 -0.357011
vn 0.491884 0.870661 -0.000004
vn 0.357003 0.863189 0.357008
vn -0.357007 0.863182 -0.357020
vn -0.491342 0.870925 -0.008519
vn -0.349920 0.868966 0.349934
vn 0.008517 0.870902 0.491382
vn -0.000000 0.697764 -0.716328
vn 0.514990 0.685250 -0.514993
vn -0.514986 0.685251 -0.514995
vn -0.714836 0.699268 -0.005885
vn -0.510540 0.691877 0.510543
vn 0.005881 0.699306 0.714798
vn 0.514958 0.685299 0.514959
vn 0.716301 0.697792 -0.000002
vn -0.000006 -0.722768 -0.691091
vn 0.497447 -0.710695 -0.497453
vn 0.590298 -0.550535 -0.590304
vn -0.000006 -0.563839 -0.825885
vn -0.590315 -0.550505 -0.590316
vn -0.497462 -0.710684 -0.497453
vn -0.691086 -0.722772 -0.000007
vn -0.825884 -0.563840 -0.000012
vn -0.590319 -0.550486 0.590329
vn -0.497444 -0.710705 0.497442
vn -0.000002 -0.722781 0.691077
vn -0.000005 -0.563785 0.825922
vn 0.590335 -0.550460 0.590338
vn 0.497417 -0.710734 0.497426
vn 0.691035 -0.722822 -0.000005
vn 0.825905 -0.563810 -0.000000
vn 0.000010 0.753091 -0.657917
vn 0.474310 0.741653 -0.474322
vn -0.474327 0.741649 -0.474310
vn -0.657936 0.753074 -0.000001
vn -0.474336 0.741640 0.474315
vn 0.000011 0.753073 0.657937
vn 0.474346 0.741603 0.474363
vn 0.657968 0.753046 -0.000010
vn 0.000008 0.927090 -0.374838
vn 0.273008 0.922453 -0.273032
vn -0.273039 0.922448 -0.273019
vn -0.374863 0.927080 0.000000
vn -0.273036 0.922451 0.273011
vn 0.000010 0.927093 0.374831
vn 0.273014 0.922451 0.273033
vn 0.374788 0.927111 0.000002
vn -0.704205 -0.709997 0.000001
vn 0.000000 0.779645 -0.626222
vn -0.452633 0.768278 -0.452628
vn -0.452862 0.768316 0.452334
vn 0.000210 0.779885 0.625923
vn 0.452642 0.768264 0.452644
vn 0.626250 0.779622 -0.000002
vn 0.452645 0.768261 -0.452646
vn -0.626470 0.779445 0.000170
vn 0.788506 -0.615028 -0.000002
vn 0.982655 -0.185443 0.000001
vn 0.695661 -0.179345 -0.695623
vn 0.564765 -0.601752 -0.564744
vn 0.695666 -0.179322 0.695624
vn 0.564766 -0.601748 0.564746
vn -0.695638 -0.179329 0.695650
vn -0.000007 -0.185430 0.982658
vn -0.000005 -0.615019 0.788512
vn -0.564756 -0.601737 0.564767
vn -0.695636 -0.179329 -0.695652
vn -0.982648 -0.185479 0.000001
vn -0.788494 -0.615043 0.000001
vn -0.564754 -0.601741 -0.564766
vn -0.000009 -0.185418 -0.982660
vn -0.000005 -0.615017 -0.788514
vn 0.625177 -0.780483 -0.000004
vn 0.451366 -0.769769 -0.451359
vn 0.451354 -0.769782 0.451348
vn -0.000005 -0.780513 0.625139
vn -0.451344 -0.769785 0.451353
vn -0.625131 -0.780520 0.000000
vn -0.451344 -0.769785 -0.451353
vn -0.000002 -0.780507 -0.625147
vn 0.914037 -0.405631 -0.000001
vn 0.649908 -0.394008 -0.649906
vn 0.649905 -0.394020 0.649901
vn -0.000002 -0.405690 0.914011
vn -0.649896 -0.394034 0.649902
vn -0.914016 -0.405678 0.000000
vn -0.649897 -0.394027 -0.649905
vn -0.000001 -0.405674 -0.914018
vn 0.999948 -0.010209 0.000000
vn 0.707066 -0.009861 -0.707079
vn 0.707066 -0.009855 0.707078
vn 0.000005 -0.010206 0.999948
vn -0.707074 -0.009853 0.707071
vn -0.999948 -0.010189 -0.000000
vn -0.707074 -0.009853 -0.707071
vn 0.000005 -0.010209 -0.999948
vn 0.976883 0.213774 -0.000001
vn 0.691814 0.206807 -0.691827
vn 0.691812 0.206819 0.691825
vn 0.000005 0.213794 0.976879
vn -0.691826 0.206810 0.691813
vn -0.976883 0.213774 0.000001
vn -0.691824 0.206822 -0.691812
vn 0.000005 0.213786 -0.976880
vn 0.676573 0.290662 -0.676583
vn 0.953939 0.299999 -0.000002
vn 0.676569 0.290678 0.676580
vn 0.000003 0.300035 0.953928
vn -0.676587 0.290663 0.676569
vn -0.953938 0.300003 0.000003
vn -0.676580 0.290691 -0.676564
vn 0.000004 0.300032 -0.953929
vn 0.974412 -0.224771 0.000030
vn -0.083937 -0.996471 0.000034
vn -0.061479 -0.996215 0.061452
vn 0.690164 -0.217531 -0.690184
vn -0.061381 -0.996226 -0.061362
vn 0.690183 -0.217420 0.690200
vn 0.000019 -0.996475 -0.083889
vn 0.000013 -0.224747 0.974417
vn 0.061466 -0.996216 -0.061440
vn -0.690167 -0.217544 0.690177
vn 0.083840 -0.996479 -0.000081
vn -0.974421 -0.224729 -0.000067
vn 0.061298 -0.996232 0.061360
vn -0.690226 -0.217387 -0.690167
vn -0.000014 -0.996471 0.083936
vn -0.000018 -0.224793 -0.974407
vn 0.990859 0.134901 0.000003
vn 0.701075 0.130323 -0.701078
vn 0.701078 0.130266 0.701085
vn -0.000002 0.134685 0.990889
vn -0.701095 0.130174 0.701085
vn -0.990885 0.134712 -0.000005
vn -0.701099 0.130177 -0.701081
vn -0.000005 0.134690 -0.990888
vn 0.933292 -0.359118 -0.000003
vn 0.840709 -0.541488 -0.000003
vn 0.600381 -0.528275 -0.600390
vn 0.662800 -0.348379 -0.662818
vn 0.600364 -0.528304 0.600381
vn 0.662799 -0.348373 0.662822
vn 0.000005 -0.541595 0.840640
vn 0.000007 -0.359089 0.933303
vn -0.600338 -0.528382 0.600339
vn -0.662801 -0.348390 0.662811
vn -0.840638 -0.541597 0.000007
vn -0.933280 -0.359149 0.000011
vn -0.600344 -0.528364 -0.600349
vn -0.662795 -0.348397 -0.662814
vn 0.000004 -0.541595 -0.840640
vn 0.000008 -0.359096 -0.933300
vn 0.807034 0.590506 0.000000
vn 0.577451 0.577145 -0.577454
vn 0.577446 0.577156 0.577450
vn 0.000003 0.590488 0.807046
vn -0.577457 0.577139 0.577454
vn -0.807064 0.590464 -0.000002
vn -0.577457 0.577144 -0.577449
vn 0.000006 0.590488 -0.807047
vn 0.878755 0.477273 0.000002
vn 0.626163 0.464590 -0.626160
vn 0.626159 0.464601 0.626156
vn 0.000007 0.477332 0.878723
vn -0.626152 0.464602 0.626163
vn -0.878741 0.477298 -0.000003
vn -0.626154 0.464603 -0.626159
vn 0.000009 0.477329 -0.878725
vn 0.871586 -0.490243 0.000005
vn 0.621339 -0.477354 -0.621346
vn 0.621348 -0.477334 0.621353
vn 0.000009 -0.490150 0.871638
vn -0.621335 -0.477340 0.621361
vn -0.871617 -0.490187 -0.000005
vn -0.621350 -0.477317 -0.621363
vn 0.000009 -0.490161 -0.871632
vn 0.991607 0.129289 0.000012
vn 0.701548 0.124968 -0.701579
vn 0.701553 0.124979 0.701572
vn 0.000010 0.129329 0.991602
vn -0.701560 0.124959 0.701569
vn -0.991607 0.129292 -0.000008
vn -0.701570 0.124982 -0.701555
vn 0.000015 0.129321 -0.991603
vn 0.220259 0.975442 0.000002
vn 0.160963 0.973745 -0.160969
vn 0.160961 0.973747 0.160962
vn -0.000002 0.975441 0.220259
vn -0.160963 0.973747 0.160959
vn -0.220258 0.975442 0.000002
vn -0.160958 0.973749 -0.160952
vn 0.000005 0.975440 -0.220264
vn 0.000005 1.000000 0.000000
vn -0.321737 -0.890491 -0.321731
vn -0.442581 -0.896729 0.000005
vn 0.000000 -0.896728 -0.442582
vn 0.321741 -0.890489 -0.321733
vn 0.442582 -0.896728 -0.000002
vn 0.321739 -0.890489 0.321734
vn 0.000002 -0.896726 0.442587
vn -0.321744 -0.890486 0.321737
vn 0.000000 -1.000000 0.000001
vn -0.387566 -0.889216 0.243080
vn -0.575140 -0.421532 -0.701088
vn -0.163787 -0.518369 -0.839325
vn -0.226372 -0.970111 0.087406
vn -0.573403 -0.693904 0.435553
vn -0.919162 -0.158153 -0.360733
vn -0.596534 -0.542551 0.591428
vn -0.986769 0.001877 -0.162123
vn -0.453464 -0.343448 0.822444
vn -0.967846 0.202174 0.149665
vn -0.261741 -0.144751 0.954222
vn -0.162656 -0.015942 0.986554
vn -0.702545 0.580252 0.411992
vn -0.838108 0.406086 0.364238
vn 0.378924 0.893540 -0.240837
vn 0.378924 0.893540 -0.240837
vn 0.186542 0.978254 -0.090671
vn 0.186542 0.978254 -0.090671
vn 0.594647 0.684651 -0.421484
vn 0.594647 0.684651 -0.421484
vn 0.640532 0.520284 -0.564821
vn 0.640532 0.520284 -0.564821
vn 0.489718 0.324525 -0.809234
vn 0.489718 0.324525 -0.809234
vn 0.144285 0.021636 -0.989300
vn 0.144285 0.021636 -0.989300
vn 0.260748 0.148325 -0.953945
vn 0.260748 0.148325 -0.953945
vn 0.253469 0.292905 0.921933
vn 0.528535 0.323577 0.784824
vn 0.405610 0.913972 -0.011615
vn -0.028913 0.968403 0.247710
vn 0.291521 -0.630064 0.719747
vn 0.144464 -0.562019 0.814411
vn -0.256306 -0.260607 -0.930801
vn -0.529778 -0.303460 -0.791990
vn -0.529778 -0.303460 -0.791990
vn -0.256306 -0.260607 -0.930801
vn -0.011954 0.142215 0.989764
vn -0.462648 0.794955 0.392432
vn -0.006605 -0.119445 -0.992819
vn -0.006605 -0.119445 -0.992819
vn 0.441183 -0.632520 0.636612
vn 0.531319 -0.593348 0.604680
vn 0.565449 -0.551533 0.613253
vn 0.382512 -0.541526 0.748622
vn 0.492659 -0.543238 0.679838
vn 0.359559 -0.513206 0.779318
vn 0.166243 -0.449200 0.877828
vn -0.047459 -0.386919 0.920891
vn 0.508384 -0.858988 -0.060707
vn 0.228383 -0.969249 -0.091637
vn -0.000458 -0.430564 -0.902560
vn 0.303957 -0.280688 -0.910398
vn -0.501344 0.864268 0.041173
vn -0.206743 0.977103 0.050276
vn -0.206743 0.977103 0.050276
vn -0.501344 0.864268 0.041173
vn 0.228808 -0.538544 0.810936
vn 0.203987 -0.564296 0.799975
vn 0.783167 -0.621595 0.016420
vn 0.187727 -0.562454 0.805235
vn -0.789969 0.613137 -0.003471
vn -0.789969 0.613137 -0.003471
vn 0.610133 -0.070466 -0.789159
vn 0.208369 -0.497463 0.842089
vn 0.896704 -0.419306 0.141787
vn -0.902041 0.413546 -0.123697
vn -0.902041 0.413546 -0.123697
vn 0.705145 0.074026 -0.705189
vn 0.092665 -0.475421 0.874864
vn 0.721485 0.254101 0.644121
vn -0.714000 -0.252804 -0.652913
vn -0.714000 -0.252804 -0.652913
vn 0.635725 0.736387 -0.231490
vn 0.124169 -0.435201 0.891730
vn 0.847680 0.133913 0.513328
vn -0.840592 -0.138293 -0.523717
vn -0.840592 -0.138293 -0.523717
vn 0.726921 0.571834 -0.380253
vn 0.182661 -0.435667 0.881379
vn 0.929565 -0.034596 0.367032
vn -0.929103 0.036234 -0.368041
vn -0.929103 0.036234 -0.368041
vn 0.755552 0.403480 -0.516086
vn 0.214143 -0.449974 0.866987
vn 0.946872 -0.197256 0.254017
vn -0.949439 0.193209 -0.247458
vn -0.949439 0.193209 -0.247458
vn 0.752732 0.249382 -0.609265
vn 0.404287 -0.889197 0.214200
vn -0.319606 -0.421405 0.848687
vn -0.644954 -0.518377 0.561534
vn 0.188850 -0.970111 0.152384
vn 0.663983 -0.693751 0.278990
vn 0.147080 -0.157809 0.976455
vn 0.810472 -0.542465 0.221060
vn 0.352818 0.002097 0.935690
vn 0.938969 -0.343506 -0.018482
vn 0.613485 0.202171 0.763389
vn 0.957221 -0.144796 -0.250524
vn 0.935703 -0.016060 -0.352422
vn 0.708186 0.580137 0.402384
vn 0.734599 0.406002 0.543624
vn -0.398091 0.893510 -0.207762
vn -0.398091 0.893510 -0.207762
vn -0.171777 0.978259 -0.116200
vn -0.171777 0.978259 -0.116200
vn -0.662421 0.684546 -0.304296
vn -0.662421 0.684546 -0.304296
vn -0.809393 0.520297 -0.272349
vn -0.809393 0.520297 -0.272349
vn -0.945602 0.324744 -0.019441
vn -0.945602 0.324744 -0.019441
vn -0.928828 0.021893 0.369863
vn -0.928828 0.021893 0.369863
vn -0.956425 0.148610 0.251330
vn -0.956425 0.148610 0.251330
vn 0.671712 0.292865 -0.680466
vn 0.415440 0.323441 -0.850174
vn -0.212848 0.913948 -0.345536
vn 0.228989 0.968402 -0.098805
vn 0.477537 -0.630123 -0.612294
vn 0.633042 -0.562160 -0.532197
vn -0.677900 -0.260670 0.687388
vn -0.421013 -0.303575 0.854746
vn -0.421013 -0.303575 0.854746
vn -0.677900 -0.260670 0.687388
vn 0.863164 0.142165 -0.484496
vn 0.571217 0.794925 0.204464
vn -0.856466 -0.119291 0.502231
vn -0.856466 -0.119291 0.502231
vn 0.330741 -0.632532 -0.700367
vn 0.257977 -0.593357 -0.762480
vn 0.248312 -0.551509 -0.796353
vn 0.457090 -0.541561 -0.705536
vn 0.342395 -0.543263 -0.766571
vn 0.495161 -0.513249 -0.700993
vn 0.677088 -0.449276 -0.582841
vn 0.821208 -0.387032 -0.419314
vn -0.306788 -0.858877 -0.410135
vn -0.193649 -0.969202 -0.152141
vn -0.781549 -0.430315 0.451675
vn -0.940468 -0.280531 0.191891
vn 0.286383 0.864264 0.413560
vn 0.146945 0.977094 0.153930
vn 0.146945 0.977094 0.153930
vn 0.286383 0.864264 0.413560
vn 0.588019 -0.538288 -0.603722
vn 0.590926 -0.564126 -0.576687
vn -0.377253 -0.621557 -0.686548
vn 0.603602 -0.562337 -0.565192
vn 0.392103 0.613134 0.685800
vn 0.392103 0.613134 0.685800
vn -0.988483 -0.070530 -0.133894
vn 0.625211 -0.497330 -0.601477
vn -0.325454 -0.419291 -0.847511
vn 0.344089 0.413337 0.843063
vn 0.344089 0.413337 0.843063
vn -0.963287 0.073937 -0.258093
vn 0.711335 -0.475496 -0.517597
vn 0.197137 0.253964 -0.946911
vn -0.208587 -0.252667 0.944802
vn -0.208587 -0.252667 0.944802
vn -0.518283 0.736332 -0.434969
vn 0.710147 -0.435209 -0.553429
vn 0.020809 0.134044 -0.990757
vn -0.033419 -0.138216 0.989838
vn -0.033419 -0.138216 0.989838
vn -0.692632 0.571976 -0.439437
vn 0.671994 -0.435586 -0.598906
vn -0.146834 -0.034469 -0.988560
vn 0.145711 0.036145 0.988667
vn 0.145711 0.036145 0.988667
vn -0.824685 0.403541 -0.396294
vn 0.643891 -0.449858 -0.618896
vn -0.253359 -0.197264 -0.947046
vn 0.260457 0.192990 0.946000
vn 0.260457 0.192990 0.946000
vn -0.904024 0.249264 -0.347286
vn -0.016767 -0.889246 -0.457122
vn 0.894674 -0.421627 -0.147614
vn 0.808677 -0.518560 0.277736
vn 0.037466 -0.970124 -0.239698
vn -0.090590 -0.693772 -0.714475
vn 0.772022 -0.157901 -0.615670
vn -0.213923 -0.542432 -0.812406
vn 0.633889 0.002085 -0.773421
vn -0.485492 -0.343566 -0.803903
vn 0.354370 0.202061 -0.913013
vn -0.695568 -0.144869 -0.703703
vn -0.773109 -0.015944 -0.634073
vn -0.005585 0.580248 -0.814421
vn 0.103504 0.405992 -0.907996
vn 0.019133 0.893549 0.448557
vn 0.019133 0.893549 0.448557
vn -0.014752 0.978264 0.206839
vn -0.014752 0.978264 0.206839
vn 0.067767 0.684548 0.725811
vn 0.067767 0.684548 0.725811
vn 0.168919 0.520215 0.837164
vn 0.168919 0.520215 0.837164
vn 0.455976 0.324604 0.828685
vn 0.455976 0.324604 0.828685
vn 0.784674 0.021743 0.619528
vn 0.784674 0.021743 0.619528
vn 0.695827 0.148343 0.702723
vn 0.695827 0.148343 0.702723
vn -0.925167 0.292833 -0.241486
vn -0.943988 0.323449 0.065321
vn -0.192800 0.913988 0.357008
vn -0.200139 0.968382 -0.148934
vn -0.769072 -0.630071 -0.107418
vn -0.777407 -0.562222 -0.282037
vn 0.934285 -0.260501 0.243414
vn 0.950771 -0.303462 -0.062818
vn 0.950771 -0.303462 -0.062818
vn 0.934285 -0.260501 0.243414
vn -0.851158 0.142239 -0.505271
vn -0.108526 0.794921 -0.596928
vn 0.863137 -0.119298 0.490675
vn 0.863137 -0.119298 0.490675
vn -0.771960 -0.632466 0.063748
vn -0.789316 -0.593343 0.157873
vn -0.813772 -0.551558 0.183193
vn -0.839633 -0.541453 -0.042948
vn -0.835086 -0.543230 0.086792
vn -0.854769 -0.513094 -0.078131
vn -0.843321 -0.449277 -0.294889
vn -0.773699 -0.387134 -0.501514
vn -0.201434 -0.858945 0.470785
vn -0.034515 -0.969207 0.243817
vn 0.782105 -0.430013 0.451000
vn 0.636528 -0.280342 0.718499
vn 0.215011 0.864258 -0.454785
vn 0.059822 0.977109 -0.204155
vn 0.059822 0.977109 -0.204155
vn 0.215011 0.864258 -0.454785
vn -0.816602 -0.538687 -0.207310
vn -0.794677 -0.564463 -0.223316
vn -0.405859 -0.621577 0.670016
vn -0.791235 -0.562421 -0.240063
vn 0.397968 0.613040 -0.682498
vn 0.397968 0.613040 -0.682498
vn 0.378304 -0.070507 0.922992
vn -0.833558 -0.497273 -0.240625
vn -0.571244 -0.419238 0.705634
vn 0.558118 0.413355 -0.719474
vn 0.558118 0.413355 -0.719474
vn 0.258129 0.073895 0.963280
vn -0.803856 -0.475642 -0.357184
vn -0.918623 0.253916 0.302751
vn 0.922492 -0.252750 -0.291766
vn 0.922492 -0.252750 -0.291766
vn -0.117477 0.736404 0.666264
vn -0.834342 -0.435256 -0.338269
vn -0.868395 0.133890 0.477456
vn 0.873922 -0.138231 -0.465996
vn 0.873922 -0.138231 -0.465996
vn -0.034232 0.571868 0.819631
vn -0.854738 -0.435567 -0.282320
vn -0.782593 -0.034482 0.621578
vn 0.783269 0.036104 -0.620634
vn 0.783269 0.036104 -0.620634
vn 0.069232 0.403500 0.912356
vn -0.858020 -0.449796 -0.247961
vn -0.693395 -0.197193 0.693050
vn 0.688982 0.193030 -0.698601
vn 0.688982 0.193030 -0.698601
vn 0.151354 0.249250 0.956539
s 1
g polySurface4029
f 21/1/1 41/2/2 42/3/3 12/4/4
f 12/4/4 14/5/5 22/6/6 21/1/1
f 15/7/7 18/8/8 30/9/9 29/10/10
f 18/8/8 42/3/3 41/2/2 30/9/9
f 20/11/11 15/7/7 29/10/10 28/12/12
s 2
f 7/13/13 24/14/14 23/15/15 6/16/16
f 9/17/17 26/18/18 25/19/19 8/20/20
f 8/20/20 25/19/19 45/21/21 44/22/22
f 9/17/17 10/23/23 27/24/24 26/18/18
s 1
f 11/25/25 48/26/26 41/2/2 21/1/1
f 22/6/6 13/27/27 11/25/25 21/1/1
s 2
f 24/14/14 4/28/28 5/29/29 23/15/15
f 25/19/19 3/30/30 46/31/31 45/21/21
f 26/18/18 2/32/32 3/30/30 25/19/19
f 26/18/18 27/24/24 1/33/33 2/32/32
s 1
f 28/12/12 29/10/10 16/34/34 19/35/35
f 30/9/9 17/36/36 16/34/34 29/10/10
f 30/9/9 41/2/2 48/26/26 17/36/36
s 3
f 31/37/37 47/38/38 48/26/39 11/25/40
f 4/28/41 31/37/42 32/39/43 5/29/44
f 5/29/44 32/39/43 13/27/45
f 13/27/45 32/39/43 31/37/37 11/25/40
f 2/32/46 33/40/47 34/41/48 3/30/49
f 17/36/50 34/41/51 33/40/52 16/34/53
f 47/38/38 34/41/51 17/36/50 48/26/39
f 47/38/54 46/31/55 3/30/49 34/41/48
f 35/42/56 33/40/47 2/32/46 1/33/57
f 19/35/58 35/42/56 1/33/57
f 35/42/56 19/35/58 16/34/53 33/40/52
s 4
f 36/43/59 43/44/60 44/22/61 7/13/62
f 6/16/63 37/45/64 36/43/59 7/13/62
f 12/4/65 36/43/66 37/45/64 14/5/67
f 14/5/67 37/45/64 6/16/63
f 8/20/68 38/46/69 39/47/70 9/17/71
f 15/7/72 39/47/70 38/46/73 18/8/74
f 38/46/69 8/20/68 44/22/61 43/44/60
f 38/46/73 43/44/75 42/3/76 18/8/74
f 10/23/77 40/48/78 20/11/79
f 40/48/78 39/47/70 15/7/72 20/11/79
f 40/48/78 10/23/77 9/17/71 39/47/70
f 36/43/66 12/4/65 42/3/76 43/44/75
s 2
f 24/14/14 7/13/13 44/22/22 45/21/21
f 4/28/28 24/14/14 45/21/21 46/31/31
s 3
f 31/37/42 4/28/41 46/31/55 47/38/54
s 5
f 49/49/80 50/50/81 58/51/82 57/52/83
f 50/50/81 51/53/84 59/54/85 58/51/82
f 51/55/84 52/56/86 60/57/87 59/58/85
f 52/56/86 53/59/88 61/60/89 60/57/87
f 53/59/88 54/61/90 62/62/91 61/60/89
f 54/61/90 55/63/92 63/64/93 62/62/91
f 55/63/92 56/65/94 64/66/95 63/64/93
f 56/65/94 49/49/80 57/52/83 64/66/95
f 81/67/96 77/68/97 78/69/98
f 57/52/83 58/51/82 66/70/99 65/71/100
f 58/51/82 59/54/85 67/72/101 66/70/99
f 59/58/85 60/57/87 68/73/102 67/74/101
f 60/57/87 61/60/89 69/75/103 68/73/102
f 61/60/89 62/62/91 70/76/104 69/75/103
f 62/62/91 63/64/93 71/77/105 70/76/104
f 63/64/93 64/66/95 72/78/106 71/77/105
f 64/66/95 57/52/83 65/71/100 72/78/106
f 65/71/100 66/70/99 74/79/107 73/80/108
f 66/70/99 67/72/101 75/81/109 74/79/107
f 67/74/101 68/73/102 76/82/110 75/83/109
f 68/73/102 69/75/103 77/84/97 76/82/110
f 69/75/103 70/76/104 78/85/98 77/84/97
f 70/76/104 71/77/105 79/86/111 78/85/98
f 71/77/105 72/78/106 80/87/112 79/86/111
f 72/78/106 65/71/100 73/80/108 80/87/112
f 81/67/96 74/88/107 75/89/109
f 80/90/112 81/67/96 79/91/111
f 73/92/108 81/67/96 80/90/112
f 73/92/108 74/88/107 81/67/96
f 81/67/96 76/93/110 77/68/97
f 81/67/96 75/89/109 76/93/110
f 79/91/111 81/67/96 78/69/98
s 6
f 90/94/113 93/95/114 92/96/115 91/97/116
f 92/96/115 95/98/117 94/99/118 91/97/116
f 95/98/117 97/100/119 96/101/120 94/99/118
f 97/100/119 135/102/121 134/103/122 96/101/120
f 118/104/123 122/105/124 123/106/125 119/107/126
f 126/108/127 130/109/128 131/110/129 127/111/130
f 122/105/124 126/108/127 127/111/130 123/106/125
f 82/112/131 83/113/132 88/114/133 89/115/134
f 88/114/133 83/113/132 84/116/135 87/117/136
f 87/117/136 84/116/135 85/118/137 86/119/138
f 86/119/138 85/118/137 137/120/139 136/121/140
f 136/121/140 137/120/139 133/122/141 132/123/142
f 120/124/143 121/125/144 117/126/145 116/127/146
s 7
f 82/128/147 90/94/148 91/97/149 83/129/150
s 6
f 88/130/133 92/96/115 93/95/114 89/131/134
s 7
f 83/129/150 91/97/149 94/99/151 84/132/152
s 6
f 87/133/136 95/98/117 92/96/115 88/130/133
s 7
f 84/132/152 94/99/151 96/101/153 85/134/154
s 6
f 86/135/138 97/100/119 95/98/117 87/133/136
s 7
f 85/134/154 96/101/153 134/103/155 137/136/156
s 6
f 136/137/140 135/102/121 97/100/119 86/135/138
f 123/106/125 124/138/157 120/139/143 119/107/126
f 135/102/121 136/137/140 132/140/142 131/110/129
f 131/110/129 132/140/142 128/141/158 127/111/130
f 127/111/130 128/141/158 124/138/157 123/106/125
f 119/107/126 120/139/143 116/142/146 115/143/159
f 98/144/160 99/145/161 100/146/162 101/147/163
f 100/146/162 99/145/161 102/148/164 103/149/165
f 103/149/165 102/148/164 104/150/166 105/151/167
f 105/151/167 104/150/166 138/152/168 141/153/169
f 141/153/169 138/152/168 142/154/170 145/155/171
f 157/156/172 154/157/173 158/158/174 161/159/175
f 106/160/176 107/161/177 108/162/178 109/163/179
f 108/162/178 110/164/180 111/165/181 109/163/179
f 110/164/180 112/166/182 113/167/183 111/165/181
f 112/166/182 140/168/184 139/169/185 113/167/183
f 155/170/186 151/171/187 152/172/188 156/173/189
f 147/174/190 143/175/191 144/176/192 148/177/193
f 151/171/187 147/174/190 148/177/193 152/172/188
s 7
f 106/178/194 109/179/195 99/145/196 98/144/197
s 6
f 108/180/178 107/181/177 101/147/163 100/146/162
s 7
f 109/179/195 111/182/198 102/148/199 99/145/196
s 6
f 110/183/180 108/180/178 100/146/162 103/149/165
s 7
f 111/182/198 113/184/200 104/150/201 102/148/199
s 6
f 112/185/182 110/183/180 103/149/165 105/151/167
s 7
f 113/184/200 139/186/202 138/152/203 104/150/201
s 6
f 140/187/184 112/185/182 105/151/167 141/153/169
s 7
f 154/157/204 150/188/205 151/189/206 155/190/207
f 142/154/208 138/152/203 139/186/202 143/191/209
f 146/192/210 142/154/208 143/191/209 147/193/211
f 150/188/205 146/192/210 147/193/211 151/189/206
f 158/158/212 154/157/204 155/190/207 159/194/213
s 6
f 115/195/159 161/196/175 158/197/174 114/198/214
s 7
f 114/199/215 158/200/212 159/201/213 117/202/216
s 6
f 119/107/126 115/143/159 114/203/214 118/104/123
s 7
f 114/203/215 117/204/216 121/205/217 118/104/218
s 6
f 121/125/144 120/124/143 124/206/157 125/207/219
s 7
f 118/104/218 121/205/217 125/208/220 122/105/221
s 6
f 125/207/219 124/206/157 128/209/158 129/210/222
s 7
f 122/105/221 125/208/220 129/211/223 126/108/224
s 6
f 129/210/222 128/209/158 132/123/142 133/122/141
s 7
f 126/108/224 129/211/223 133/212/225 130/109/226
s 6
f 135/102/121 131/110/129 130/109/128 134/103/122
s 7
f 130/109/226 133/212/225 137/136/156 134/103/155
s 6
f 140/168/184 144/176/192 143/175/191 139/169/185
f 141/153/169 145/155/171 144/213/192 140/187/184
f 145/155/171 149/214/227 148/215/193 144/213/192
f 146/192/228 149/214/227 145/155/171 142/154/170
f 149/214/227 153/216/229 152/217/188 148/215/193
f 150/188/230 153/216/229 149/214/227 146/192/228
f 153/216/229 157/156/172 156/218/189 152/217/188
f 154/157/173 157/156/172 153/216/229 150/188/230
f 156/173/189 160/219/231 159/220/232 155/170/186
f 157/156/172 161/159/175 160/221/231 156/218/189
f 116/222/146 117/223/145 159/224/232 160/225/231
f 115/226/159 116/227/146 160/228/231 161/229/175
s 8
f 182/230/233 173/231/234 203/232/235 202/233/236
f 173/231/234 182/230/233 183/234/237 175/235/238
f 176/236/239 190/237/240 191/238/241 179/239/242
f 179/239/242 191/238/241 202/233/236 203/232/235
f 181/240/243 189/241/244 190/237/240 176/236/239
s 9
f 168/242/245 167/243/246 184/244/247 185/245/248
f 170/246/249 169/247/250 186/248/251 187/249/252
f 169/247/250 205/250/253 206/251/254 186/248/251
f 170/246/249 187/249/252 188/252/255 171/253/256
s 8
f 172/254/257 182/230/233 202/233/236 209/255/258
f 183/234/237 182/230/233 172/254/257 174/256/259
s 9
f 185/245/248 184/244/247 166/257/260 165/258/261
f 186/248/251 206/251/254 207/259/262 164/260/263
f 187/249/252 186/248/251 164/260/263 163/261/264
f 187/249/252 163/261/264 162/262/265 188/252/255
s 8
f 189/241/244 180/263/266 177/264/267 190/237/240
f 191/238/241 190/237/240 177/264/267 178/265/268
f 191/238/241 178/265/268 209/255/258 202/233/236
s 10
f 192/266/269 172/254/270 209/255/271 208/267/272
f 165/258/273 166/257/274 193/268/275 192/266/276
f 166/257/274 174/256/277 193/268/275
f 174/256/277 172/254/270 192/266/269 193/268/275
f 163/261/278 164/260/279 195/269/280 194/270/281
f 178/265/282 177/264/283 194/270/284 195/269/285
f 208/267/272 209/255/271 178/265/282 195/269/285
f 208/267/286 195/269/280 164/260/279 207/259/287
f 196/271/288 162/262/289 163/261/278 194/270/281
f 180/263/290 162/262/289 196/271/288
f 196/271/288 194/270/284 177/264/283 180/263/290
s 11
f 197/272/291 168/242/292 205/250/293 204/273/294
f 167/243/295 168/242/292 197/272/291 198/274/296
f 173/231/297 175/235/298 198/274/296 197/272/299
f 175/235/298 167/243/295 198/274/296
f 169/247/300 170/246/301 200/275/302 199/276/303
f 176/236/304 179/239/305 199/276/306 200/275/302
f 199/276/303 204/273/294 205/250/293 169/247/300
f 199/276/306 179/239/305 203/232/307 204/273/308
f 171/253/309 181/240/310 201/277/311
f 201/277/311 181/240/310 176/236/304 200/275/302
f 201/277/311 200/275/302 170/246/301 171/253/309
f 197/272/299 204/273/308 203/232/307 173/231/297
s 9
f 185/245/248 206/251/254 205/250/253 168/242/245
f 165/258/261 207/259/262 206/251/254 185/245/248
s 10
f 192/266/276 208/267/286 207/259/287 165/258/273
s 12
f 269/278/312 270/279/313 210/280/314 214/281/315
f 214/282/315 210/283/314 280/284/316 279/285/317
f 279/285/317 280/284/316 211/286/318 215/287/319
f 215/287/319 211/286/318 290/288/320 289/289/321
f 289/289/321 290/288/320 212/290/322 216/291/323
f 216/291/323 212/290/322 260/292/324 259/293/325
f 259/293/325 260/292/324 213/294/326 217/295/327
f 217/295/327 213/294/326 270/279/313 269/278/312
f 299/296/328 300/297/329 301/298/330
f 303/299/331 302/300/332 299/296/328
f 305/301/333 304/302/334 299/296/328
f 299/296/328 306/303/335 305/301/333
f 242/304/336 243/305/337 271/306/338 244/307/339
f 242/304/336 244/307/339 281/308/340 245/309/341
f 242/304/336 245/309/341 251/310/342 246/311/343
f 242/304/336 246/311/343 261/312/344 243/305/337
f 218/313/345 217/295/327 269/278/312 268/314/346
f 268/314/346 269/278/312 214/281/315 221/315/347
f 221/316/347 214/282/315 279/285/317 278/317/348
f 278/317/348 279/285/317 215/287/319 223/318/349
f 223/318/349 215/287/319 289/289/321 288/319/350
f 288/319/350 289/289/321 216/291/323 225/320/351
f 225/320/351 216/291/323 259/293/325 258/321/352
f 258/321/352 259/293/325 217/295/327 218/313/345
f 220/322/353 267/323/354 268/314/346 221/315/347
f 258/321/352 218/313/345 219/324/355 257/325/356
f 220/326/353 221/316/347 278/317/348 277/327/357
f 222/328/358 277/327/357 278/317/348 223/318/349
f 222/328/358 223/318/349 288/319/350 287/329/359
f 224/330/360 287/329/359 288/319/350 225/320/351
f 224/330/360 225/320/351 258/321/352 257/325/356
f 249/331/361 266/332/362 267/323/354 220/322/353
f 249/333/361 220/326/353 277/327/357 276/334/363
f 248/335/364 276/334/363 277/327/357 222/328/358
f 248/335/364 222/328/358 287/329/359 286/336/365
f 247/337/366 286/336/365 287/329/359 224/330/360
f 247/337/366 224/330/360 257/325/356 256/338/367
f 250/339/368 256/338/367 257/325/356 219/324/355
f 250/339/368 219/324/355 267/323/354 266/332/362
f 230/340/369 264/341/370 265/342/371 226/343/372
f 230/344/369 226/345/372 275/346/373 274/347/374
f 231/348/375 274/347/374 275/346/373 227/349/376
f 231/348/375 227/349/376 285/350/377 284/351/378
f 232/352/379 284/351/378 285/350/377 228/353/380
f 232/352/379 228/353/380 255/354/381 254/355/382
f 233/356/383 254/355/382 255/354/381 229/357/384
f 233/356/383 229/357/384 265/342/371 264/341/370
f 234/358/385 263/359/386 264/341/370 230/340/369
f 234/360/385 230/344/369 274/347/374 273/361/387
f 235/362/388 273/361/387 274/347/374 231/348/375
f 235/362/388 231/348/375 284/351/378 283/363/389
f 236/364/390 283/363/389 284/351/378 232/352/379
f 236/364/390 232/352/379 254/355/382 253/365/391
f 237/366/392 253/365/391 254/355/382 233/356/383
f 237/366/392 233/356/383 264/341/370 263/359/386
f 238/367/393 262/368/394 263/369/386 234/370/385
f 238/367/393 234/370/385 273/371/387 272/372/395
f 239/373/396 272/372/395 273/371/387 235/374/388
f 239/373/396 235/374/388 283/375/389 282/376/397
f 240/377/398 282/376/397 283/375/389 236/378/390
f 240/377/398 236/378/390 253/379/391 252/380/399
f 241/381/400 252/380/399 253/379/391 237/382/392
f 241/381/400 237/382/392 263/369/386 262/368/394
f 243/305/337 261/312/344 262/368/394 238/367/393
f 243/305/337 238/367/393 272/372/395 271/306/338
f 244/307/339 271/306/338 272/372/395 239/373/396
f 244/307/339 239/373/396 282/376/397 281/308/340
f 245/309/341 281/308/340 282/376/397 240/377/398
f 245/309/341 240/377/398 252/380/399 251/310/342
f 246/311/343 251/310/342 252/380/399 241/381/400
f 261/312/344 246/311/343 241/381/400 262/368/394
f 255/354/381 228/353/380 247/337/366 256/338/367
f 228/353/380 285/350/377 286/336/365 247/337/366
f 285/350/377 227/349/376 248/335/364 286/336/365
f 227/349/376 275/346/373 276/334/363 248/335/364
f 275/346/373 226/345/372 249/333/361 276/334/363
f 226/343/372 265/342/371 266/332/362 249/331/361
f 265/342/371 229/357/384 250/339/368 266/332/362
f 229/357/384 255/354/381 256/338/367 250/339/368
f 218/313/345 268/314/346 267/323/354 219/324/355
f 299/296/328 302/300/332 307/383/401
f 301/298/330 306/303/335 299/296/328
f 299/296/328 304/302/334 303/299/331
f 307/383/401 300/297/329 299/296/328
f 280/284/316 210/283/314 292/384/402 291/385/403
f 212/290/322 290/288/320 293/386/404 294/387/405
f 213/294/326 260/292/324 295/388/406 296/389/407
f 270/279/313 213/294/326 296/389/407 297/390/408
f 290/288/320 211/286/318 298/391/409 293/386/404
f 210/280/314 270/279/313 297/390/408 292/392/402
f 260/292/324 212/290/322 294/387/405 295/388/406
f 211/286/318 280/284/316 291/385/403 298/391/409
f 291/385/403 292/384/402 301/393/330 300/394/329
f 294/387/405 293/386/404 302/395/332 303/396/331
f 296/389/407 295/388/406 304/397/334 305/398/333
f 297/390/408 296/389/407 305/398/333 306/399/335
f 293/386/404 298/391/409 307/400/401 302/395/332
f 292/392/402 297/390/408 306/399/335 301/401/330
f 295/388/406 294/387/405 303/396/331 304/397/334
f 298/391/409 291/385/403 300/394/329 307/400/401
s 13
f 312/402/410 308/403/411 356/404/412 355/405/413
f 342/406/414 308/403/411 312/402/410 341/407/415
f 349/408/416 309/409/417 313/410/418 348/411/419
f 363/412/420 310/413/421 314/414/422 362/415/423
f 356/404/412 311/416/424 315/417/425 355/405/413
f 316/418/426 312/402/410 355/405/413 354/419/427
f 341/407/415 312/402/410 316/418/426 340/420/428
f 348/411/419 313/410/418 317/421/429 347/422/430
f 314/414/422 318/423/431 361/424/432 362/415/423
f 355/405/413 315/417/425 319/425/433 354/419/427
f 320/426/434 316/418/426 354/419/427 353/427/435
f 340/420/428 316/418/426 320/426/434 339/428/436
f 347/422/430 317/421/429 321/429/437 346/430/438
f 318/423/431 322/431/439 360/432/440 361/424/432
f 354/419/427 319/425/433 323/433/441 353/427/435
f 324/434/442 320/426/434 353/427/435 352/435/443
f 339/428/436 320/426/434 324/434/442 338/436/444
f 346/430/438 321/429/437 325/437/445 345/438/446
f 322/431/439 326/439/447 359/440/448 360/432/440
f 353/427/435 323/433/441 327/441/449 352/435/443
f 328/442/450 324/434/442 352/435/443 351/443/451
f 338/436/444 324/434/442 328/442/450 337/444/452
f 345/438/446 325/437/445 329/445/453 344/446/454
f 326/439/447 330/447/455 358/448/456 359/440/448
f 352/435/443 327/441/449 331/449/457 351/443/451
f 350/450/458 332/451/459 328/442/450 351/443/451
f 337/444/452 328/442/450 332/451/459 336/452/460
f 344/446/454 329/445/453 333/453/461 343/454/462
f 330/447/455 334/455/463 357/456/464 358/448/456
f 351/443/451 331/449/457 335/457/465 350/450/458
f 329/445/453 337/444/452 336/452/460 333/453/461
f 325/437/445 338/436/444 337/444/452 329/445/453
f 321/429/437 339/428/436 338/436/444 325/437/445
f 317/421/429 340/420/428 339/428/436 321/429/437
f 313/410/418 341/407/415 340/420/428 317/421/429
f 309/409/417 342/406/414 341/407/415 313/410/418
f 330/447/455 344/446/454 343/454/462 334/455/463
f 326/439/447 345/438/446 344/446/454 330/447/455
f 322/431/439 346/430/438 345/438/446 326/439/447
f 318/423/431 347/422/430 346/430/438 322/431/439
f 314/414/422 348/411/419 347/422/430 318/423/431
f 310/413/421 349/408/416 348/411/419 314/414/422
f 331/458/457 358/448/456 357/456/464 335/459/465
f 327/460/449 359/440/448 358/448/456 331/458/457
f 323/461/441 360/432/440 359/440/448 327/460/449
f 319/462/433 361/424/432 360/432/440 323/461/441
f 315/463/425 362/415/423 361/424/432 319/462/433
f 311/464/424 363/412/420 362/415/423 315/463/425
s 14
f 368/465/466 364/466/467 427/467/468 426/468/469
f 401/469/470 364/466/467 368/465/466 402/470/471
f 365/471/472 401/469/470 402/470/471 369/472/473
f 410/473/474 365/471/472 369/472/473 411/474/475
f 366/475/476 410/473/474 411/474/475 370/476/477
f 436/477/478 366/475/476 370/476/477 435/478/479
f 427/467/468 367/479/480 371/480/481 426/468/469
f 453/481/482 368/465/466 426/468/469 452/482/483
f 402/470/471 368/465/466 453/481/482 446/483/484
f 369/472/473 402/470/471 446/483/484 447/484/485
f 411/474/475 369/472/473 447/484/485 448/485/486
f 370/476/477 411/474/475 448/485/486 449/486/487
f 435/478/479 370/476/477 449/486/487 450/487/488
f 426/468/469 371/480/481 451/488/489 452/482/483
f 376/489/490 372/490/491 425/491/492 424/492/493
f 403/493/494 372/490/491 376/489/490 404/494/495
f 373/495/496 403/493/494 404/494/495 377/496/497
f 412/497/498 373/495/496 377/496/497 413/498/499
f 374/499/500 412/497/498 413/498/499 378/500/501
f 434/501/502 374/499/500 378/500/501 433/502/503
f 425/491/492 375/503/504 379/504/505 424/492/493
f 397/505/506 376/489/490 424/492/493 423/506/507
f 404/494/495 376/489/490 397/505/506 405/507/508
f 377/496/497 404/494/495 405/507/508 400/508/509
f 413/498/499 377/496/497 400/508/509 414/509/510
f 378/500/501 413/498/499 414/509/510 399/510/511
f 433/502/503 378/500/501 399/510/511 432/511/512
f 424/492/493 379/504/505 398/512/513 423/506/507
f 380/513/514 397/505/506 423/506/507 422/514/515
f 397/505/506 380/513/514 406/515/516 405/507/508
f 405/507/508 406/515/516 381/516/517 400/508/509
f 400/508/509 381/516/517 415/517/518 414/509/510
f 399/510/511 414/509/510 415/517/518 382/518/519
f 399/510/511 382/518/519 431/519/520 432/511/512
f 398/512/513 383/520/521 422/514/515 423/506/507
f 384/521/522 380/513/514 422/514/515 421/522/523
f 406/515/516 380/513/514 384/521/522 407/523/524
f 381/516/517 406/515/516 407/523/524 385/524/525
f 415/517/518 381/516/517 385/524/525 416/525/526
f 382/518/519 415/517/518 416/525/526 386/526/527
f 431/519/520 382/518/519 386/526/527 430/527/528
f 422/514/515 383/520/521 387/528/529 421/522/523
f 388/529/530 384/530/522 421/531/523 420/532/531
f 407/533/524 384/530/522 388/529/530 408/534/532
f 385/535/525 407/533/524 408/534/532 389/536/533
f 416/537/526 385/535/525 389/536/533 417/538/534
f 386/539/527 416/537/526 417/538/534 390/540/535
f 430/541/528 386/539/527 390/540/535 429/542/536
f 421/531/523 387/543/529 391/544/537 420/532/531
f 392/545/538 388/529/530 420/532/531 419/546/539
f 408/534/532 388/529/530 392/545/538 409/547/540
f 389/536/533 408/534/532 409/547/540 393/548/541
f 417/538/534 389/536/533 393/548/541 418/549/542
f 390/540/535 417/538/534 418/549/542 394/550/543
f 429/542/536 390/540/535 394/550/543 428/551/544
f 420/532/531 391/544/537 395/552/545 419/546/539
f 396/553/546 392/545/538 419/546/539
f 409/547/540 392/545/538 396/553/546
f 393/548/541 409/547/540 396/553/546
f 418/549/542 393/548/541 396/553/546
f 394/550/543 418/549/542 396/553/546
f 428/551/544 394/550/543 396/553/546
f 419/546/539 395/552/545 396/553/546
f 395/552/545 428/551/544 396/553/546
f 391/544/537 429/542/536 428/551/544 395/552/545
f 387/543/529 430/541/528 429/542/536 391/544/537
f 383/554/521 431/519/520 430/527/528 387/555/529
f 398/556/513 432/511/512 431/519/520 383/554/521
f 379/557/505 433/502/503 432/511/512 398/556/513
f 375/558/504 434/501/502 433/502/503 379/557/505
f 371/559/481 435/478/479 450/487/488 451/560/489
f 367/561/480 436/477/478 435/478/479 371/559/481
f 364/562/467 401/563/470 437/564/547 438/565/548
f 401/563/470 365/566/472 439/567/549 437/564/547
f 365/566/472 410/568/474 440/569/550 439/567/549
f 410/568/474 366/570/476 441/571/551 440/569/550
f 366/570/476 436/572/478 442/573/552 441/571/551
f 436/572/478 367/574/480 443/575/553 442/573/552
f 367/574/480 427/576/468 444/577/554 443/575/553
f 427/576/468 364/562/467 438/565/548 444/577/554
f 438/565/548 437/564/547 445/578/555
f 437/564/547 439/567/549 445/578/555
f 439/567/549 440/569/550 445/578/555
f 440/569/550 441/571/551 445/578/555
f 441/571/551 442/573/552 445/578/555
f 442/573/552 443/575/553 445/578/555
f 443/575/553 444/577/554 445/578/555
f 444/577/554 438/565/548 445/578/555
f 447/484/485 446/483/484 403/493/494 373/495/496
f 448/485/486 447/484/485 373/495/496 412/497/498
f 449/486/487 448/485/486 412/497/498 374/499/500
f 450/487/488 449/486/487 374/499/500 434/501/502
f 451/560/489 450/487/488 434/501/502 375/558/504
f 452/482/483 451/488/489 375/503/504 425/491/492
f 372/490/491 453/481/482 452/482/483 425/491/492
f 446/483/484 453/481/482 372/490/491 403/493/494
s 15
f 467/579/556 455/580/557 454/581/558 468/582/559
f 466/583/560 456/584/561 455/580/557 467/579/556
f 465/585/562 457/586/563 456/584/561 466/583/560
f 464/587/564 458/588/565 457/586/563 465/585/562
f 505/589/566 502/590/567 503/591/568 506/592/569
s 16
f 455/593/570 460/594/571 459/595/572 454/596/573
f 456/597/574 461/598/575 460/594/571 455/593/570
f 457/599/576 462/600/577 461/598/575 456/597/574
f 458/601/578 463/602/579 462/600/577 457/599/576
f 503/603/580 504/604/581 507/605/582 506/606/583
s 15
f 481/607/584 487/608/585 489/609/586 482/610/587
f 483/611/588 488/612/589 487/608/585 481/607/584
s 16
f 482/610/590 489/609/591 488/612/592 483/611/593
s 15
f 484/613/594 481/614/584 482/615/587 485/616/595
s 16
f 482/617/590 483/618/593 486/619/596 485/620/597
s 15
f 502/590/567 484/613/594 485/616/595 503/591/568
s 16
f 485/620/597 486/619/596 504/604/581 503/603/580
s 15
f 483/621/588 481/622/584 484/613/594 486/619/598
f 486/619/598 484/613/594 502/590/567 504/604/599
f 504/604/599 502/590/567 505/589/566 507/605/600
f 462/600/601 463/602/602 464/587/564 465/585/562
f 461/598/603 462/600/601 465/585/562 466/583/560
f 460/594/604 461/598/603 466/583/560 467/579/556
f 459/595/605 460/594/604 467/579/556 468/582/559
f 469/623/606 470/624/607 471/625/608 472/626/609
s 16
f 472/626/610 471/625/611 473/627/612 474/628/613
s 15
f 473/627/614 470/624/607 469/623/606 474/628/615
f 474/628/615 469/623/606 475/629/616 476/630/617
s 16
f 472/626/610 474/628/613 476/630/618 477/631/619
s 15
f 475/629/616 469/623/606 472/626/609 477/631/620
f 479/632/621 476/630/617 475/629/616 478/633/622
s 16
f 480/634/623 477/631/619 476/630/618 479/632/624
s 15
f 475/629/616 477/631/620 480/634/625 478/633/622
f 488/612/589 491/635/626 490/636/627 487/608/585
s 16
f 489/609/591 492/637/628 491/635/629 488/612/592
s 15
f 490/636/627 492/637/630 489/609/586 487/608/585
f 491/635/626 494/638/631 493/639/632 490/636/627
s 16
f 492/637/628 495/640/633 494/638/634 491/635/629
s 15
f 493/639/632 495/640/635 492/637/630 490/636/627
f 494/638/631 497/641/636 496/642/637 493/639/632
s 16
f 495/640/633 498/643/638 497/641/639 494/638/634
s 15
f 496/642/637 498/643/640 495/640/635 493/639/632
f 497/641/636 500/644/641 499/645/642 496/642/637
s 16
f 498/643/638 501/646/643 500/644/644 497/641/639
s 15
f 499/645/642 501/646/645 498/643/640 496/642/637
f 500/644/641 479/632/621 478/633/622 499/645/642
s 16
f 501/646/643 480/634/623 479/632/624 500/644/644
s 15
f 478/633/622 480/634/625 501/646/645 499/645/642
f 505/589/566 506/592/569 458/588/565 464/587/564
s 16
f 507/605/582 463/602/579 458/601/578 506/606/583
s 15
f 463/602/602 507/605/600 505/589/566 464/587/564
s 17
f 521/647/646 509/648/647 508/649/648 522/650/649
f 520/651/650 510/652/651 509/648/647 521/647/646
f 519/653/652 511/654/653 510/652/651 520/651/650
f 518/655/654 512/656/655 511/654/653 519/653/652
f 559/657/656 556/658/657 557/659/658 560/660/659
s 18
f 509/661/660 514/662/661 513/663/662 508/664/663
f 510/665/664 515/666/665 514/662/661 509/661/660
f 511/667/666 516/668/667 515/666/665 510/665/664
f 512/669/668 517/670/669 516/668/667 511/667/666
f 557/671/670 558/672/671 561/673/672 560/674/673
s 17
f 535/675/674 541/676/675 543/677/676 536/678/677
f 537/679/678 542/680/679 541/676/675 535/675/674
s 18
f 536/678/680 543/677/681 542/680/682 537/679/683
s 17
f 538/681/684 535/682/674 536/683/677 539/684/685
s 18
f 536/685/680 537/686/683 540/687/686 539/688/687
s 17
f 556/658/657 538/681/684 539/684/685 557/659/658
s 18
f 539/688/687 540/687/686 558/672/671 557/671/670
s 17
f 537/689/678 535/690/674 538/681/684 540/687/688
f 540/687/688 538/681/684 556/658/657 558/672/689
f 558/672/689 556/658/657 559/657/656 561/673/690
f 516/668/691 517/670/692 518/655/654 519/653/652
f 515/666/693 516/668/691 519/653/652 520/651/650
f 514/662/694 515/666/693 520/651/650 521/647/646
f 513/663/695 514/662/694 521/647/646 522/650/649
f 523/691/696 524/692/697 525/693/698 526/694/699
s 18
f 526/694/700 525/693/701 527/695/702 528/696/703
s 17
f 527/695/704 524/692/697 523/691/696 528/696/705
f 528/696/705 523/691/696 529/697/706 530/698/707
s 18
f 526/694/700 528/696/703 530/698/708 531/699/709
s 17
f 529/697/706 523/691/696 526/694/699 531/699/710
f 533/700/711 530/698/707 529/697/706 532/701/712
s 18
f 534/702/713 531/699/709 530/698/708 533/700/714
s 17
f 529/697/706 531/699/710 534/702/715 532/701/712
f 542/680/679 545/703/716 544/704/717 541/676/675
s 18
f 543/677/681 546/705/718 545/703/719 542/680/682
s 17
f 544/704/717 546/705/720 543/677/676 541/676/675
f 545/703/716 548/706/721 547/707/722 544/704/717
s 18
f 546/705/718 549/708/723 548/706/724 545/703/719
s 17
f 547/707/722 549/708/725 546/705/720 544/704/717
f 548/706/721 551/709/726 550/710/727 547/707/722
s 18
f 549/708/723 552/711/728 551/709/729 548/706/724
s 17
f 550/710/727 552/711/730 549/708/725 547/707/722
f 551/709/726 554/712/731 553/713/732 550/710/727
s 18
f 552/711/728 555/714/733 554/712/734 551/709/729
s 17
f 553/713/732 555/714/735 552/711/730 550/710/727
f 554/712/731 533/700/711 532/701/712 553/713/732
s 18
f 555/714/733 534/702/713 533/700/714 554/712/734
s 17
f 532/701/712 534/702/715 555/714/735 553/713/732
f 559/657/656 560/660/659 512/656/655 518/655/654
s 18
f 561/673/672 517/670/669 512/669/668 560/674/673
s 17
f 517/670/692 561/673/690 559/657/656 518/655/654
s 19
f 575/715/736 563/716/737 562/717/738 576/718/739
f 574/719/740 564/720/741 563/716/737 575/715/736
f 573/721/742 565/722/743 564/720/741 574/719/740
f 572/723/744 566/724/745 565/722/743 573/721/742
f 613/725/746 610/726/747 611/727/748 614/728/749
s 20
f 563/729/750 568/730/751 567/731/752 562/732/753
f 564/733/754 569/734/755 568/730/751 563/729/750
f 565/735/756 570/736/757 569/734/755 564/733/754
f 566/737/758 571/738/759 570/736/757 565/735/756
f 611/739/760 612/740/761 615/741/762 614/742/763
s 19
f 589/743/764 595/744/765 597/745/766 590/746/767
f 591/747/768 596/748/769 595/744/765 589/743/764
s 20
f 590/746/770 597/745/771 596/748/772 591/747/773
s 19
f 592/749/774 589/750/764 590/751/767 593/752/775
s 20
f 590/753/770 591/754/773 594/755/776 593/756/777
s 19
f 610/726/747 592/749/774 593/752/775 611/727/748
s 20
f 593/756/777 594/755/776 612/740/761 611/739/760
s 19
f 591/757/768 589/758/764 592/749/774 594/755/778
f 594/755/778 592/749/774 610/726/747 612/740/779
f 612/740/779 610/726/747 613/725/746 615/741/780
f 570/736/781 571/738/782 572/723/744 573/721/742
f 569/734/783 570/736/781 573/721/742 574/719/740
f 568/730/784 569/734/783 574/719/740 575/715/736
f 567/731/785 568/730/784 575/715/736 576/718/739
f 577/759/786 578/760/787 579/761/788 580/762/789
s 20
f 580/762/790 579/761/791 581/763/792 582/764/793
s 19
f 581/763/794 578/760/787 577/759/786 582/764/795
f 582/764/795 577/759/786 583/765/796 584/766/797
s 20
f 580/762/790 582/764/793 584/766/798 585/767/799
s 19
f 583/765/796 577/759/786 580/762/789 585/767/800
f 587/768/801 584/766/797 583/765/796 586/769/802
s 20
f 588/770/803 585/767/799 584/766/798 587/768/804
s 19
f 583/765/796 585/767/800 588/770/805 586/769/802
f 596/748/769 599/771/806 598/772/807 595/744/765
s 20
f 597/745/771 600/773/808 599/771/809 596/748/772
s 19
f 598/772/807 600/773/810 597/745/766 595/744/765
f 599/771/806 602/774/811 601/775/812 598/772/807
s 20
f 600/773/808 603/776/813 602/774/814 599/771/809
s 19
f 601/775/812 603/776/815 600/773/810 598/772/807
f 602/774/811 605/777/816 604/778/817 601/775/812
s 20
f 603/776/813 606/779/818 605/777/819 602/774/814
s 19
f 604/778/817 606/779/820 603/776/815 601/775/812
f 605/777/816 608/780/821 607/781/822 604/778/817
s 20
f 606/779/818 609/782/823 608/780/824 605/777/819
s 19
f 607/781/822 609/782/825 606/779/820 604/778/817
f 608/780/821 587/768/801 586/769/802 607/781/822
s 20
f 609/782/823 588/770/803 587/768/804 608/780/824
s 19
f 586/769/802 588/770/805 609/782/825 607/781/822
f 613/725/746 614/728/749 566/724/745 572/723/744
s 20
f 615/741/762 571/738/759 566/737/758 614/742/763
s 19
f 571/738/782 615/741/780 613/725/746 572/723/744
