# This file uses centimeters as units for non-parametric coordinates.

g default
v -23.943455 0.737065 -0.080104
v -24.035950 0.737065 -0.080104
v -24.082197 0.737065 -0.000000
v -24.035950 0.737065 0.080104
v -23.943455 0.737065 0.080104
v -23.897207 0.737065 0.000000
v -23.955542 1.066792 -0.061466
v -24.023863 1.066792 -0.061466
v -24.082197 1.066792 -0.000000
v -24.023863 1.066792 0.061466
v -23.955542 1.066792 0.061466
v -23.897207 1.066792 0.000000
v -23.989702 0.737065 0.000000
v -23.989702 1.127113 0.000000
v -23.942589 0.836103 0.065553
v -24.036816 0.836103 0.065553
v -24.117401 0.836103 -0.000000
v -24.036816 0.836103 -0.065553
v -23.942589 0.836103 -0.065553
v -23.862003 0.836103 0.000000
v -24.024746 0.947577 0.078627
v -24.104324 0.947577 -0.000000
v -24.024746 0.947577 -0.078627
v -23.954659 0.947577 -0.078627
v -23.875080 0.947577 0.000000
v -23.954659 0.947577 0.078627
vt 0.578125 0.020934
vt 0.421875 0.020934
vt 0.343750 0.156250
vt 0.421875 0.291566
vt 0.578125 0.291566
vt 0.656250 0.156250
vt 0.375000 0.312500
vt 0.416667 0.312500
vt 0.458333 0.312500
vt 0.500000 0.312500
vt 0.541667 0.312500
vt 0.583333 0.312500
vt 0.625000 0.312500
vt 0.375000 0.688440
vt 0.416667 0.688440
vt 0.458333 0.688440
vt 0.500000 0.688440
vt 0.541667 0.688440
vt 0.583333 0.688440
vt 0.625000 0.688440
vt 0.578125 0.708434
vt 0.421875 0.708434
vt 0.343750 0.843750
vt 0.421875 0.979066
vt 0.578125 0.979066
vt 0.656250 0.843750
vt 0.500000 0.150000
vt 0.500000 0.837500
vt 0.541667 0.425418
vt 0.500000 0.425418
vt 0.458333 0.425418
vt 0.416667 0.425418
vt 0.625000 0.425418
vt 0.375000 0.425418
vt 0.583333 0.425418
vt 0.500000 0.552516
vt 0.458333 0.552516
vt 0.416667 0.552516
vt 0.625000 0.552516
vt 0.375000 0.552516
vt 0.583333 0.552516
vt 0.541667 0.552516
vn 0.000000 0.145358 -0.989379
vn 0.000000 0.145358 -0.989379
vn 0.000000 0.014563 -0.999894
vn 0.000000 0.014563 -0.999894
vn -0.751182 -0.088716 -0.654106
vn -0.751182 -0.088716 -0.654106
vn -0.712552 -0.028538 -0.701039
vn -0.712552 -0.028538 -0.701039
vn -0.751181 -0.088743 0.654104
vn -0.751181 -0.088743 0.654104
vn -0.712552 -0.028541 0.701039
vn -0.712552 -0.028541 0.701039
vn 0.000000 0.014563 0.999894
vn 0.000000 0.145359 0.989379
vn 0.000000 0.145359 0.989379
vn 0.000000 0.014563 0.999894
vn 0.751182 -0.088728 0.654105
vn 0.751182 -0.088728 0.654105
vn 0.712552 -0.028545 0.701039
vn 0.712552 -0.028545 0.701039
vn 0.751182 -0.088727 -0.654105
vn 0.751182 -0.088727 -0.654105
vn 0.712552 -0.028534 -0.701039
vn 0.712552 -0.028534 -0.701039
vn 0.000000 -1.000000 0.000000
vn 0.000000 -1.000000 0.000000
vn 0.000000 -1.000000 0.000000
vn 0.000000 -1.000000 0.000000
vn 0.000000 -1.000000 0.000000
vn 0.000000 -1.000000 0.000000
vn 0.000000 -1.000000 0.000000
vn 0.251907 0.757006 -0.602897
vn -0.251906 0.757007 -0.602896
vn 0.000002 1.000000 0.000002
vn -0.546250 0.837622 -0.000004
vn -0.251902 0.757003 0.602903
vn 0.251907 0.756998 0.602907
vn 0.546257 0.837618 -0.000001
vn 0.000000 0.013105 0.999914
vn 0.000000 0.013105 0.999914
vn -0.689123 0.075253 0.720727
vn -0.689123 0.075253 0.720727
vn -0.689123 0.075243 -0.720728
vn -0.689123 0.075243 -0.720728
vn 0.000000 0.013105 -0.999914
vn 0.000000 0.013105 -0.999914
vn 0.689123 0.075250 -0.720727
vn 0.689123 0.075250 -0.720727
vn 0.689123 0.075248 0.720727
vn 0.689123 0.075248 0.720727
vn -0.707616 0.118427 0.696602
vn -0.707616 0.118427 0.696602
vn -0.707616 0.118426 -0.696602
vn -0.707616 0.118426 -0.696602
vn 0.000000 0.142471 -0.989799
vn 0.000000 0.142471 -0.989799
vn 0.707617 0.118423 -0.696602
vn 0.707617 0.118423 -0.696602
vn 0.707615 0.118438 0.696601
vn 0.707615 0.118438 0.696601
vn 0.000000 0.142471 0.989799
vn 0.000000 0.142471 0.989799
s 1
g pCylinder3
f 1/7/1 2/8/2 18/32/3 19/34/4
s 2
f 2/8/5 3/9/6 17/31/7 18/32/8
s 3
f 3/9/9 4/10/10 16/30/11 17/31/12
s 4
f 16/30/13 4/10/14 5/11/15 15/29/16
s 5
f 5/11/17 6/12/18 20/35/19 15/29/20
s 6
f 6/12/21 1/13/22 19/33/23 20/35/24
s 7
f 2/2/25 1/1/26 13/27/27
f 3/3/28 2/2/25 13/27/27
f 4/4/29 3/3/28 13/27/27
f 5/5/30 4/4/29 13/27/27
f 6/6/31 5/5/30 13/27/27
f 1/1/26 6/6/31 13/27/27
s 8
f 7/25/32 8/24/33 14/28/34
f 8/24/33 9/23/35 14/28/34
f 9/23/35 10/22/36 14/28/34
f 10/22/36 11/21/37 14/28/34
f 11/21/37 12/26/38 14/28/34
f 12/26/38 7/25/32 14/28/34
s 4
f 16/30/13 15/29/16 26/42/39 21/36/40
s 3
f 17/31/12 16/30/11 21/36/41 22/37/42
s 2
f 18/32/8 17/31/7 22/37/43 23/38/44
s 1
f 19/34/4 18/32/3 23/38/45 24/40/46
s 6
f 20/35/24 19/33/23 24/39/47 25/41/48
s 5
f 15/29/20 20/35/19 25/41/49 26/42/50
s 3
f 22/37/42 21/36/41 10/17/51 9/16/52
s 2
f 23/38/44 22/37/43 9/16/53 8/15/54
s 1
f 24/40/46 23/38/45 8/15/55 7/14/56
s 6
f 25/41/48 24/39/47 7/20/57 12/19/58
s 5
f 26/42/50 25/41/49 12/19/59 11/18/60
s 4
f 21/36/40 26/42/39 11/18/61 10/17/62
