# This file uses centimeters as units for non-parametric coordinates.

g default
v -24.313389 0.737065 -0.080103
v -24.405884 0.737065 -0.080103
v -24.452129 0.737065 0.000000
v -24.405884 0.737065 0.080103
v -24.313389 0.737065 0.080103
v -24.267139 0.737065 0.000000
v -24.325474 1.066792 -0.061467
v -24.393795 1.066792 -0.061467
v -24.452129 1.066792 0.000000
v -24.393795 1.066792 0.061467
v -24.325474 1.066792 0.061467
v -24.267139 1.066792 0.000000
v -24.359634 0.737065 0.000000
v -24.359634 1.127113 0.000000
v -24.312523 0.836103 0.065553
v -24.406746 0.836103 0.065553
v -24.487335 0.836103 0.000000
v -24.406746 0.836103 -0.065553
v -24.312523 0.836103 -0.065553
v -24.231937 0.836103 0.000000
v -24.394680 0.947577 0.078627
v -24.474258 0.947577 0.000000
v -24.394680 0.947577 -0.078627
v -24.324593 0.947577 -0.078627
v -24.245014 0.947577 0.000000
v -24.324593 0.947577 0.078627
v -24.296654 1.114546 0.000770
v -24.289902 1.112924 -0.001700
v -24.289902 1.112924 0.004359
v -24.428246 1.112924 0.004359
v -24.428246 1.112924 -0.001700
v -24.421494 1.114546 0.000770
v -24.315880 1.318733 0.004354
v -24.315880 1.318733 -0.001696
v -24.318153 1.313408 0.000762
v -24.276199 1.221608 0.004377
v -24.276199 1.221608 -0.001719
v -24.282677 1.221807 0.000789
v -24.435467 1.221807 0.000789
v -24.441944 1.221608 -0.001719
v -24.441944 1.221608 0.004377
v -24.399990 1.313408 0.000762
v -24.402267 1.318733 -0.001696
v -24.402267 1.318733 0.004354
v -24.357880 1.327680 0.004366
v -24.357922 1.321727 0.000777
v -24.357880 1.327680 -0.001708
v -24.291927 1.279615 0.000760
v -24.286415 1.281844 -0.001695
v -24.286415 1.281844 0.004353
v -24.431812 1.281649 0.004353
v -24.431812 1.281649 -0.001695
v -24.426289 1.279432 0.000760
vt 0.578125 0.020934
vt 0.421875 0.020934
vt 0.343750 0.156250
vt 0.421875 0.291566
vt 0.578125 0.291566
vt 0.656250 0.156250
vt 0.375000 0.312500
vt 0.416667 0.312500
vt 0.458333 0.312500
vt 0.500000 0.312500
vt 0.541667 0.312500
vt 0.583333 0.312500
vt 0.625000 0.312500
vt 0.375000 0.688440
vt 0.416667 0.688440
vt 0.458333 0.688440
vt 0.500000 0.688440
vt 0.541667 0.688440
vt 0.583333 0.688440
vt 0.625000 0.688440
vt 0.578125 0.708434
vt 0.421875 0.708434
vt 0.343750 0.843750
vt 0.421875 0.979066
vt 0.578125 0.979066
vt 0.656250 0.843750
vt 0.500000 0.150000
vt 0.500000 0.837500
vt 0.541667 0.425418
vt 0.500000 0.425418
vt 0.458333 0.425418
vt 0.416667 0.425418
vt 0.625000 0.425418
vt 0.375000 0.425418
vt 0.583333 0.425418
vt 0.500000 0.552516
vt 0.458333 0.552516
vt 0.416667 0.552516
vt 0.625000 0.552516
vt 0.375000 0.552516
vt 0.583333 0.552516
vt 0.541667 0.552516
vt 0.135332 0.485281
vt 0.144181 0.485537
vt 0.118340 0.642015
vt 0.107949 0.638796
vt 0.121790 0.324391
vt 0.124726 0.316723
vt 0.186612 0.385241
vt 0.178384 0.387584
vt 0.198067 0.487770
vt 0.208280 0.487725
vt 0.182439 0.647759
vt 0.172226 0.644248
vt 0.208280 0.487725
vt 0.182439 0.647759
vt 0.161835 0.641029
vt 0.189218 0.487515
vt 0.124655 0.385679
vt 0.067904 0.322158
vt 0.065266 0.329234
vt 0.117190 0.388357
vt 0.144181 0.485537
vt 0.135332 0.485281
vt 0.075494 0.501546
vt 0.095564 0.500749
vt 0.119152 0.331468
vt 0.065266 0.329234
vt 0.067904 0.322158
vt 0.124498 0.385351
vt 0.117047 0.388043
vt 0.170933 0.390276
vt 0.189218 0.487515
vt 0.161835 0.641029
vt 0.118340 0.642015
vt 0.107949 0.638796
vt 0.198067 0.487770
vt 0.172226 0.644248
vt 0.186791 0.385577
vt 0.178541 0.387912
vt 0.171075 0.390590
vt 0.124726 0.316723
vt 0.121790 0.324391
vt 0.119152 0.331468
vt 0.085282 0.501616
vt 0.075830 0.501546
vt 0.095253 0.501546
vt 0.085610 0.501546
vt 0.000000 0.000000
vt 1.000000 0.000000
vt 0.724416 0.774571
vt 0.000000 0.000000
vt 1.000000 0.000000
vt 0.644049 0.688654
vn 0.000000 0.145358 -0.989379
vn 0.000000 0.145358 -0.989379
vn 0.000000 0.014562 -0.999894
vn 0.000000 0.014562 -0.999894
vn -0.751176 -0.088728 -0.654112
vn -0.751176 -0.088728 -0.654112
vn -0.712544 -0.028543 -0.701046
vn -0.712544 -0.028543 -0.701046
vn -0.751176 -0.088731 0.654111
vn -0.751176 -0.088731 0.654111
vn -0.712544 -0.028544 0.701046
vn -0.712544 -0.028544 0.701046
vn 0.000000 0.014562 0.999894
vn 0.000000 0.145358 0.989379
vn 0.000000 0.145358 0.989379
vn 0.000000 0.014562 0.999894
vn 0.751175 -0.088737 0.654111
vn 0.751175 -0.088737 0.654111
vn 0.712548 -0.028541 0.701042
vn 0.712548 -0.028541 0.701042
vn 0.751175 -0.088743 -0.654111
vn 0.751175 -0.088743 -0.654111
vn 0.712548 -0.028545 -0.701042
vn 0.712548 -0.028545 -0.701042
vn 0.000000 -1.000000 0.000000
vn 0.000000 -1.000000 0.000000
vn 0.000000 -1.000000 0.000000
vn 0.000000 -1.000000 0.000000
vn 0.000000 -1.000000 0.000000
vn 0.000000 -1.000000 0.000000
vn 0.000000 -1.000000 0.000000
vn 0.251907 0.757007 -0.602896
vn -0.251907 0.757007 -0.602896
vn 0.000000 1.000000 0.000000
vn -0.546257 0.837618 0.000000
vn -0.251907 0.757007 0.602896
vn 0.251907 0.757007 0.602896
vn 0.546257 0.837618 0.000000
vn 0.000000 0.013103 0.999914
vn 0.000000 0.013103 0.999914
vn -0.689118 0.075246 0.720732
vn -0.689118 0.075246 0.720732
vn -0.689118 0.075247 -0.720732
vn -0.689118 0.075247 -0.720732
vn 0.000000 0.013103 -0.999914
vn 0.000000 0.013103 -0.999914
vn 0.689123 0.075246 -0.720728
vn 0.689123 0.075246 -0.720728
vn 0.689122 0.075247 0.720728
vn 0.689122 0.075247 0.720728
vn -0.707616 0.118431 0.696602
vn -0.707616 0.118431 0.696602
vn -0.707616 0.118433 -0.696601
vn -0.707616 0.118433 -0.696601
vn 0.000000 0.142471 -0.989799
vn 0.000000 0.142471 -0.989799
vn 0.707617 0.118421 -0.696602
vn 0.707617 0.118421 -0.696602
vn 0.707617 0.118421 0.696602
vn 0.707617 0.118421 0.696602
vn 0.000000 0.142471 0.989799
vn 0.000000 0.142471 0.989799
vn -0.360121 -0.008566 -0.932866
vn 0.559878 0.011116 -0.828500
vn 0.566015 -0.070717 -0.821357
vn -0.346420 0.044406 -0.937028
vn 0.271522 0.447219 -0.852215
vn 0.235577 0.392126 0.889236
vn 0.432111 0.190437 0.881484
vn 0.491159 0.217469 -0.843487
vn 0.500333 0.009835 0.865777
vn 0.509183 -0.063379 0.858321
vn -0.500431 0.009653 0.865723
vn -0.509185 -0.063365 0.858322
vn 0.469613 0.060028 0.880829
vn 0.486930 -0.010980 0.873372
vn -0.491473 0.217000 -0.843425
vn -0.268882 0.447756 -0.852770
vn 0.203533 -0.324782 -0.923629
vn 0.350880 -0.159351 -0.922763
vn -0.559961 0.010910 -0.828447
vn 0.360020 -0.008407 -0.932907
vn 0.002683 0.477048 0.878873
vn -0.002806 -0.521667 0.853145
vn -0.277004 -0.438062 0.855202
vn -0.205441 -0.324255 -0.923392
vn -0.350860 -0.159759 -0.922700
vn -0.472939 -0.214691 0.854539
vn -0.487049 -0.011187 0.873303
vn -0.469611 0.060041 0.880830
vn -0.566016 -0.070705 -0.821356
vn 0.346421 0.044392 -0.937028
vn -0.432415 0.190040 0.881421
vn 0.472993 -0.214144 0.854646
vn -0.233204 0.392520 0.889688
vn 0.274510 -0.438845 0.855605
vn -0.002085 -0.387785 -0.921748
vn 0.003019 0.542005 -0.840370
vn -0.233616 -0.972329 0.000000
vn -0.233616 -0.972329 0.000000
vn -0.233616 -0.972329 0.000000
vn 0.233576 -0.972339 0.000000
vn 0.233576 -0.972339 0.000000
vn 0.233576 -0.972339 0.000000
s 1
g polySurface8373
f 1/7/1 2/8/2 18/32/3 19/34/4
s 2
f 2/8/5 3/9/6 17/31/7 18/32/8
s 3
f 3/9/9 4/10/10 16/30/11 17/31/12
s 4
f 16/30/13 4/10/14 5/11/15 15/29/16
s 5
f 5/11/17 6/12/18 20/35/19 15/29/20
s 6
f 6/12/21 1/13/22 19/33/23 20/35/24
s 7
f 2/2/25 1/1/26 13/27/27
f 3/3/28 2/2/25 13/27/27
f 4/4/29 3/3/28 13/27/27
f 5/5/30 4/4/29 13/27/27
f 6/6/31 5/5/30 13/27/27
f 1/1/26 6/6/31 13/27/27
s 8
f 7/25/32 8/24/33 14/28/34
f 8/24/33 9/23/35 14/28/34
f 9/23/35 10/22/36 14/28/34
f 10/22/36 11/21/37 14/28/34
f 11/21/37 12/26/38 14/28/34
f 12/26/38 7/25/32 14/28/34
s 4
f 16/30/13 15/29/16 26/42/39 21/36/40
s 3
f 17/31/12 16/30/11 21/36/41 22/37/42
s 2
f 18/32/8 17/31/7 22/37/43 23/38/44
s 1
f 19/34/4 18/32/3 23/38/45 24/40/46
s 6
f 20/35/24 19/33/23 24/39/47 25/41/48
s 5
f 15/29/20 20/35/19 25/41/49 26/42/50
s 3
f 22/37/42 21/36/41 10/17/51 9/16/52
s 2
f 23/38/44 22/37/43 9/16/53 8/15/54
s 1
f 24/40/46 23/38/45 8/15/55 7/14/56
s 6
f 25/41/48 24/39/47 7/20/57 12/19/58
s 5
f 26/42/50 25/41/49 12/19/59 11/18/60
s 4
f 21/36/40 26/42/39 11/18/61 10/17/62
s 9
f 38/43/63 37/44/64 28/45/65 27/46/66
f 34/47/67 33/48/68 50/49/69 49/50/70
f 37/51/64 36/52/71 29/53/72 28/54/65
f 37/51/64 49/50/70 50/49/69 36/52/71
f 41/55/73 30/56/74 32/57/75 39/58/76
f 52/59/77 43/60/78 42/61/79 53/62/80
f 40/63/81 52/59/77 53/62/80 39/64/82
f 33/48/68 45/65/83 46/66/84 35/67/85
f 35/68/86 34/69/67 49/70/70 48/71/87
f 33/48/68 35/67/85 48/72/88 50/49/69
f 48/71/87 49/70/70 37/44/64 38/43/63
f 48/72/88 38/73/89 36/52/71 50/49/69
f 36/52/71 38/73/89 27/74/90 29/53/72
f 31/75/91 40/63/81 39/64/82 32/76/92
f 30/56/74 41/55/73 40/77/81 31/78/91
f 41/55/73 51/79/93 52/80/77 40/77/81
f 51/79/93 41/55/73 39/58/76 53/81/94
f 51/79/93 44/82/95 43/83/78 52/80/77
f 42/84/96 44/82/95 51/79/93 53/81/94
f 35/68/86 46/85/97 47/86/98 34/69/67
f 47/87/98 45/88/83 33/48/68 34/47/67
f 45/65/83 44/82/95 42/84/96 46/66/84
f 43/60/78 47/86/98 46/85/97 42/61/79
f 44/82/95 45/88/83 47/87/98 43/83/78
s off
f 27/89/99 28/90/100 29/91/101
f 32/92/102 30/93/103 31/94/104
