# This file uses centimeters as units for non-parametric coordinates.

g default
v -23.922640 0.798874 -0.001629
v -23.888638 0.816915 -0.001629
v -23.884556 0.829187 -0.001628
v -23.919481 1.054443 -0.001630
v -23.936762 1.052451 -0.001629
v -23.940535 1.073830 -0.001629
v -23.919481 1.076465 -0.001630
v -23.863190 0.830443 -0.001628
v -23.871668 0.803717 -0.001629
v -23.916983 0.778134 -0.001629
v -23.919481 1.054443 0.000001
v -23.919481 1.076465 0.000001
v -23.936762 1.052451 0.000000
v -23.940535 1.073830 0.000000
v -23.871668 0.803717 -0.000000
v -23.888638 0.816915 -0.000000
v -23.884556 0.829187 -0.000000
v -23.863190 0.830443 -0.000000
v -23.922640 0.798874 -0.000000
v -23.916983 0.778134 -0.000000
v -23.919481 1.065454 0.006168
v -23.938648 1.063141 0.006168
v -23.938648 1.063141 -0.007797
v -23.919481 1.065454 -0.007797
v -23.873873 0.829815 -0.007797
v -23.880154 0.810316 -0.007797
v -23.919811 0.788504 -0.007797
v -23.919811 0.788504 0.006168
v -23.880154 0.810316 0.006168
v -23.873873 0.829815 0.006168
v -23.919693 1.051103 -0.000814
v -23.936340 1.049080 -0.000814
v -23.891287 0.818835 -0.000814
v -23.887873 0.829451 -0.000814
v -23.923868 0.802039 -0.000814
v -23.919149 1.079759 -0.000814
v -23.940987 1.077198 -0.000814
v -23.859869 0.830205 -0.000814
v -23.868992 0.801832 -0.000814
v -23.915783 0.774958 -0.000814
v -23.901138 1.053061 0.006168
v -23.892511 1.057927 -0.000001
v -23.889811 1.059546 -0.000814
v -23.892511 1.057927 -0.001627
v -23.901138 1.053061 -0.007797
v -23.909767 1.048194 -0.001627
v -23.912392 1.046540 -0.000814
v -23.909767 1.048194 -0.000001
v -24.025068 0.810932 0.045356
v -24.027876 0.812214 0.039407
v -24.033825 0.810932 0.036599
v -24.039431 0.807836 0.038577
v -24.041409 0.804739 0.044183
v -24.038601 0.803457 0.050132
v -24.032652 0.804739 0.052940
v -24.027046 0.807836 0.050961
v -24.029070 0.820738 0.049359
v -24.031878 0.822020 0.043410
v -24.037827 0.820738 0.040602
v -24.043432 0.817642 0.042580
v -24.045412 0.814546 0.048186
v -24.042603 0.813263 0.054135
v -24.036654 0.814546 0.056943
v -24.031048 0.817642 0.054965
v -24.025183 0.823856 0.050261
v -24.029528 0.825840 0.041058
v -24.038731 0.823856 0.036715
v -24.047401 0.819066 0.039775
v -24.050463 0.814277 0.048447
v -24.046120 0.812293 0.057650
v -24.036915 0.814277 0.061994
v -24.028244 0.819066 0.058933
v -24.026955 0.828196 0.052034
v -24.031300 0.830180 0.042830
v -24.040501 0.828196 0.038486
v -24.049175 0.823407 0.041547
v -24.052235 0.818617 0.050219
v -24.047892 0.816633 0.059422
v -24.038687 0.818617 0.063766
v -24.030016 0.823407 0.060705
v -24.040073 0.824581 0.051605
v -23.966864 1.100234 0.003903
v -23.937817 1.100443 0.003963
v -23.930811 1.096040 0.005557
v -23.926754 1.089902 0.007802
v -23.920004 1.091385 0.007136
v -23.926304 1.100738 0.003669
v -23.936481 1.106071 0.001703
v -23.966431 1.106168 0.001773
v -23.966864 1.098121 -0.001831
v -23.937817 1.098241 -0.002013
v -23.936481 1.103990 -0.003946
v -23.966431 1.104018 -0.004061
v -23.930811 1.093856 -0.000369
v -23.926304 1.098657 -0.001981
v -23.926754 1.087729 0.001905
v -23.920004 1.089290 0.001450
v -24.011488 1.098121 -0.001831
v -24.040533 1.098241 -0.002013
v -24.041870 1.103990 -0.003946
v -24.011919 1.104018 -0.004061
v -24.047539 1.093856 -0.000369
v -24.052048 1.098657 -0.001981
v -24.051596 1.087729 0.001905
v -24.058346 1.089290 0.001450
v -24.011488 1.100234 0.003903
v -24.011919 1.106168 0.001773
v -24.041870 1.106071 0.001703
v -24.040533 1.100443 0.003963
v -24.052048 1.100738 0.003669
v -24.047539 1.096040 0.005557
v -24.058346 1.091385 0.007136
v -24.051596 1.089902 0.007802
v -23.974911 0.893328 0.073544
v -23.974365 0.887776 0.075695
v -23.974365 0.889876 0.081394
v -23.974911 0.895496 0.079428
v -23.948257 0.901129 0.070653
v -23.945982 0.896175 0.072613
v -23.945982 0.898266 0.078289
v -23.948257 0.903307 0.076566
v -23.927895 0.918804 0.064128
v -23.923170 0.915877 0.065359
v -23.923170 0.917965 0.071025
v -23.927895 0.920991 0.070062
v -23.915714 0.947945 0.053412
v -23.909353 0.946846 0.053937
v -23.909353 0.948941 0.059621
v -23.915714 0.950118 0.059309
v -23.912781 0.987089 0.039008
v -23.906303 0.987303 0.039010
v -23.906303 0.989410 0.044730
v -23.912781 0.989249 0.044870
v -23.920467 1.050214 0.015780
v -23.913925 1.051398 0.015363
v -23.913925 1.053525 0.021135
v -23.920467 1.052353 0.021586
v -24.057884 1.050214 0.015780
v -24.057884 1.052353 0.021586
v -24.064425 1.053525 0.021135
v -24.064425 1.051398 0.015363
v -24.065571 0.987089 0.039008
v -24.065571 0.989249 0.044870
v -24.072048 0.989410 0.044730
v -24.072048 0.987303 0.039010
v -24.062637 0.947945 0.053412
v -24.062637 0.950118 0.059309
v -24.068996 0.948941 0.059621
v -24.068996 0.946846 0.053937
v -24.050455 0.918804 0.064128
v -24.050455 0.920991 0.070062
v -24.055180 0.917965 0.071025
v -24.055180 0.915877 0.065359
v -24.030094 0.901129 0.070653
v -24.030094 0.903307 0.076566
v -24.032370 0.898266 0.078289
v -24.032370 0.896175 0.072613
v -24.003441 0.893328 0.073544
v -24.003441 0.895496 0.079428
v -24.003984 0.889876 0.081394
v -24.003984 0.887776 0.075695
v -24.055887 0.798874 -0.001629
v -24.089890 0.816915 -0.001629
v -24.093971 0.829187 -0.001628
v -24.059046 1.054443 -0.001630
v -24.041763 1.052451 -0.001629
v -24.037991 1.073830 -0.001629
v -24.059046 1.076465 -0.001630
v -24.115335 0.830443 -0.001628
v -24.106857 0.803717 -0.001629
v -24.061544 0.778134 -0.001629
v -24.059046 1.054443 0.000001
v -24.059046 1.076465 0.000001
v -24.041763 1.052451 0.000000
v -24.037991 1.073830 0.000000
v -24.106857 0.803717 -0.000000
v -24.089890 0.816915 -0.000000
v -24.093971 0.829187 -0.000000
v -24.115335 0.830443 -0.000000
v -24.055887 0.798874 -0.000000
v -24.061544 0.778134 -0.000000
v -24.059046 1.065454 0.006168
v -24.039877 1.063141 0.006168
v -24.039877 1.063141 -0.007797
v -24.059046 1.065454 -0.007797
v -24.104654 0.829815 -0.007797
v -24.098373 0.810316 -0.007797
v -24.058716 0.788504 -0.007797
v -24.058716 0.788504 0.006168
v -24.098373 0.810316 0.006168
v -24.104654 0.829815 0.006168
v -24.058834 1.051103 -0.000814
v -24.042187 1.049080 -0.000814
v -24.087240 0.818835 -0.000814
v -24.090654 0.829451 -0.000814
v -24.054659 0.802039 -0.000814
v -24.059378 1.079759 -0.000814
v -24.037540 1.077198 -0.000814
v -24.118658 0.830205 -0.000814
v -24.109535 0.801832 -0.000814
v -24.062746 0.774958 -0.000814
v -24.077389 1.053061 0.006168
v -24.086016 1.057927 -0.000001
v -24.088717 1.059546 -0.000814
v -24.086016 1.057927 -0.001627
v -24.077389 1.053061 -0.007797
v -24.068760 1.048194 -0.001627
v -24.066135 1.046540 -0.000814
v -24.068760 1.048194 -0.000001
v -23.989138 0.760394 -0.088734
v -24.077871 0.760394 -0.000000
v -23.989138 0.760394 0.088734
v -23.900402 0.760394 -0.000000
v -23.989138 0.788554 -0.084630
v -24.073769 0.788554 -0.000000
v -23.989138 0.788554 0.084630
v -23.904507 0.788554 -0.000000
v -23.911451 0.806404 -0.000000
v -23.919752 0.814202 -0.000000
v -23.989138 0.814202 -0.069385
v -23.989138 0.806404 -0.077686
v -24.058521 0.814202 -0.000000
v -24.066824 0.806404 -0.000000
v -23.989138 0.814202 0.069385
v -23.989138 0.806404 0.077686
v -23.989138 0.834414 -0.024740
v -24.013878 0.834414 -0.000000
v -23.989138 0.834414 0.024740
v -23.964397 0.834414 -0.000000
v -23.989138 0.837533 -0.036971
v -24.026108 0.837533 -0.000000
v -23.989138 0.837533 0.036971
v -23.952166 0.837533 -0.000000
v -23.989138 0.845807 -0.039023
v -24.028160 0.845807 -0.000000
v -23.989138 0.845807 0.039023
v -23.950115 0.845807 -0.000000
v -23.989138 0.841214 -0.019911
v -24.009047 0.841214 -0.000000
v -23.989138 0.841214 0.019911
v -23.969227 0.841214 -0.000000
v -23.989138 0.852258 -0.000000
v -23.989138 0.854995 -0.012132
v -24.001270 0.854995 -0.000000
v -23.989138 0.854995 0.012132
v -23.977007 0.854995 -0.000000
v -23.989138 0.826763 0.026342
v -24.015480 0.826763 -0.000000
v -23.989138 0.826763 -0.026343
v -23.962795 0.826763 -0.000000
v -23.980850 0.854995 0.008286
v -23.975536 0.841214 0.013599
v -23.962484 0.845807 0.026653
v -23.963886 0.837533 0.025251
v -23.972240 0.834414 0.016898
v -23.971146 0.826763 0.017992
v -23.941748 0.814202 0.047390
v -23.936077 0.806404 0.053060
v -23.931335 0.788554 0.057803
v -23.928532 0.760394 0.060606
v -23.980850 0.854995 -0.008286
v -23.975536 0.841214 -0.013600
v -23.962484 0.845807 -0.026654
v -23.963886 0.837533 -0.025252
v -23.972240 0.834414 -0.016898
v -23.971146 0.826763 -0.017992
v -23.941748 0.814202 -0.047391
v -23.936077 0.806404 -0.053061
v -23.931335 0.788554 -0.057804
v -23.928532 0.760394 -0.060607
v -23.997423 0.854995 -0.008286
v -24.002737 0.841214 -0.013600
v -24.015791 0.845807 -0.026654
v -24.014389 0.837533 -0.025252
v -24.006035 0.834414 -0.016898
v -24.007130 0.826763 -0.017992
v -24.036530 0.814202 -0.047391
v -24.042198 0.806404 -0.053061
v -24.046940 0.788554 -0.057804
v -24.049744 0.760394 -0.060607
v -23.997423 0.854995 0.008286
v -24.002737 0.841214 0.013599
v -24.015791 0.845807 0.026653
v -24.014389 0.837533 0.025251
v -24.006035 0.834414 0.016898
v -24.007130 0.826763 0.017992
v -24.036530 0.815332 0.047390
v -24.042198 0.807536 0.053060
v -24.046425 0.788554 0.058335
v -24.049231 0.760394 0.061138
v -24.051760 0.760477 -0.062623
v -23.989138 0.760477 -0.091864
v -24.051760 0.760477 0.062622
v -23.989138 0.760477 0.091864
v -23.926514 0.760477 0.062622
v -23.897274 0.760477 -0.000000
v -23.926514 0.760477 -0.062623
v -24.081001 0.760477 -0.000000
v -23.989138 0.739519 -0.000000
v -24.053188 0.739519 -0.064051
v -23.989138 0.739519 -0.093959
v -24.053188 0.739519 0.064051
v -23.989138 0.739519 0.093959
v -23.925087 0.739519 0.064051
v -23.895178 0.739519 -0.000000
v -23.925087 0.739519 -0.064051
v -24.083097 0.739519 -0.000000
v -23.952984 0.842960 -0.000814
v -23.989138 0.842960 0.035339
v -24.025290 0.842960 -0.000814
v -23.989138 0.842960 -0.036968
v -23.948746 0.865419 -0.000814
v -23.989138 0.865419 0.039577
v -24.029528 0.865419 -0.000814
v -23.989138 0.865419 -0.041206
v -23.923649 0.878117 -0.000814
v -23.989138 0.878117 0.064673
v -24.054625 0.878117 -0.000814
v -23.989138 0.878117 -0.066302
v -23.915276 0.888471 -0.000814
v -23.989138 0.888471 0.073046
v -24.062998 0.888471 -0.000814
v -23.989138 0.888471 -0.074675
v -23.907860 0.938942 -0.000814
v -23.989138 0.938942 0.080464
v -24.070415 0.938942 -0.000814
v -23.989138 0.938942 -0.082093
v -23.913689 0.985111 -0.000814
v -23.989138 0.985111 0.074636
v -24.064589 0.985111 -0.000814
v -23.989138 0.985111 -0.076265
v -23.927279 1.028322 -0.000814
v -23.989138 1.028322 0.061045
v -24.050995 1.028322 -0.000814
v -23.989138 1.028322 -0.062674
v -23.946886 1.028322 0.041436
v -23.937603 0.985111 0.050719
v -23.933622 0.938942 0.054700
v -23.938690 0.888471 0.049633
v -23.944408 0.878117 0.043915
v -23.961550 0.865419 0.026773
v -23.964445 0.842960 0.023879
v -24.031389 1.028322 0.041436
v -24.040670 0.985111 0.050719
v -24.044651 0.938942 0.054700
v -24.039583 0.888471 0.049633
v -24.033865 0.878117 0.043915
v -24.016726 0.865419 0.026773
v -24.013832 0.842960 0.023879
v -23.946886 1.028322 -0.043065
v -23.937603 0.985111 -0.052348
v -23.933622 0.938942 -0.056329
v -23.938690 0.888471 -0.051262
v -23.944408 0.878117 -0.045543
v -23.961550 0.865419 -0.028402
v -23.964445 0.842960 -0.025508
v -24.031389 1.028322 -0.043065
v -24.040670 0.985111 -0.052348
v -24.044651 0.938942 -0.056329
v -24.039583 0.888471 -0.051262
v -24.033865 0.878117 -0.045543
v -24.016726 0.865419 -0.028402
v -24.013832 0.842960 -0.025508
v -23.927488 1.024325 0.000000
v -23.989138 1.024325 0.061648
v -24.050785 1.024325 0.000000
v -23.989138 1.024325 -0.061648
v -23.924891 1.026809 0.000000
v -23.989138 1.026809 0.064248
v -24.053387 1.026809 0.000000
v -23.989138 1.026809 -0.064248
v -23.928776 1.045909 0.000000
v -23.989138 1.045909 0.060363
v -24.049500 1.045909 0.000000
v -23.989138 1.045909 -0.060363
v -23.922132 1.050161 0.000000
v -23.989138 1.050161 0.067004
v -24.056143 1.050161 0.000000
v -23.989138 1.050161 -0.067004
v -23.950359 1.089546 0.000000
v -23.989138 1.089546 0.038777
v -24.027914 1.089546 0.000000
v -23.989138 1.089546 -0.038777
v -23.950981 1.109342 0.000000
v -23.989138 1.109342 0.038156
v -24.027292 1.109342 0.000000
v -23.989138 1.109342 -0.038155
v -23.944382 1.113428 0.000000
v -23.989138 1.113428 0.044754
v -24.033892 1.113428 0.000000
v -23.989138 1.113428 -0.044754
v -23.967270 1.121323 0.000000
v -23.989138 1.121323 0.021868
v -24.011005 1.121323 0.000000
v -23.989138 1.121323 -0.021868
v -23.989138 1.123806 0.000000
v -23.929981 1.074484 0.000000
v -23.989138 1.074484 -0.059156
v -24.048294 1.074484 0.000000
v -23.989138 1.074484 0.059156
v -23.947029 1.024325 0.042106
v -23.945255 1.026809 0.043882
v -23.947908 1.045909 0.041229
v -23.943373 1.050161 0.045765
v -23.948732 1.074484 0.040405
v -23.962652 1.089546 0.026485
v -23.963078 1.109342 0.026061
v -23.958569 1.113428 0.030567
v -23.974201 1.121323 0.014936
v -24.031244 1.024325 0.042106
v -24.033020 1.026809 0.043882
v -24.030365 1.045909 0.041229
v -24.034903 1.050161 0.045765
v -24.029543 1.074484 0.040405
v -24.015621 1.089546 0.026485
v -24.015198 1.109342 0.026061
v -24.019705 1.113428 0.030567
v -24.004072 1.121323 0.014936
v -23.974201 1.121323 -0.014936
v -23.958569 1.113428 -0.030567
v -23.963078 1.109342 -0.026060
v -23.962652 1.089546 -0.026485
v -23.948732 1.074484 -0.040404
v -23.943373 1.050161 -0.045765
v -23.947908 1.045909 -0.041228
v -23.945255 1.026809 -0.043882
v -23.947029 1.024325 -0.042106
v -24.004072 1.121323 -0.014936
v -24.019705 1.113428 -0.030567
v -24.015198 1.109342 -0.026060
v -24.015621 1.089546 -0.026485
v -24.029543 1.074484 -0.040404
v -24.034903 1.050161 -0.045765
v -24.030365 1.045909 -0.041228
v -24.033020 1.026809 -0.043882
v -24.031244 1.024325 -0.042106
v -23.972786 1.077202 0.016351
v -23.965199 1.077202 0.000000
v -23.989138 1.077202 0.023940
v -24.005489 1.077202 0.016351
v -24.013077 1.077202 0.000000
v -24.005489 1.077202 -0.016351
v -23.989138 1.077202 -0.023940
v -23.972786 1.077202 -0.016351
v -23.989138 1.077202 0.000000
v -23.948467 1.038615 0.040670
v -23.989138 1.038615 0.059544
v -24.029808 1.038615 0.040670
v -24.048683 1.038615 0.000000
v -24.029808 1.038615 -0.040669
v -23.989138 1.038615 -0.059544
v -23.948467 1.038615 -0.040669
v -23.929594 1.038615 0.000000
v -24.022070 0.843053 -0.004968
v -24.034206 0.845202 -0.004444
v -24.046066 0.860799 0.010456
v -24.053682 0.885383 0.031032
v -24.052877 0.915528 0.052892
v -24.022085 0.843350 0.000514
v -24.031740 0.845411 0.000576
v -24.041618 0.859597 0.013519
v -24.050264 0.883961 0.035309
v -24.047762 0.912836 0.054221
v -24.052366 0.912397 0.057795
v -24.055006 0.881037 0.034573
v -24.046276 0.856242 0.014110
v -24.034935 0.840948 -0.001158
v -24.023348 0.837990 -0.002110
v -23.947819 0.842168 -0.018664
v -23.957832 0.839371 -0.017421
v -23.959904 0.844235 -0.019644
v -23.949854 0.846457 -0.020805
v -23.958246 0.844346 -0.014275
v -23.950394 0.846014 -0.015107
v -23.929628 0.861354 -0.008348
v -23.933765 0.863858 -0.005630
v -23.932711 0.865662 -0.010859
v -23.914139 0.885478 0.003751
v -23.919151 0.886879 0.005761
v -23.917402 0.888592 0.000481
v -23.970789 0.999355 0.073596
v -23.972761 1.000717 0.068169
v -23.971518 0.994361 0.069555
v -23.993858 0.990002 0.078326
v -23.995489 0.991901 0.072637
v -23.992086 0.986202 0.073230
v -23.949562 0.995654 0.065035
v -23.952965 0.991030 0.062484
v -23.952179 0.996732 0.059692
v -23.931444 0.981458 0.054408
v -23.936363 0.977750 0.052900
v -23.934669 0.982539 0.049157
v -23.917778 0.961225 0.042863
v -23.922800 0.958764 0.042349
v -23.921013 0.962437 0.038480
v -23.909945 0.938070 0.030071
v -23.915401 0.936683 0.030572
v -23.913523 0.939795 0.026192
v -23.909483 0.912719 0.017061
v -23.914890 0.912403 0.018291
v -23.913260 0.915070 0.013615
v -24.016520 0.969816 0.076419
v -24.017826 0.971857 0.071388
v -24.013832 0.967687 0.071840
v -24.037142 0.942428 0.070042
v -24.038130 0.944983 0.065114
v -24.033468 0.941547 0.065779
v -23.975973 0.843053 0.029783
v -23.969452 0.845202 0.040031
v -23.950617 0.860799 0.042853
v -23.928991 0.885383 0.039161
v -23.910461 0.915528 0.027533
v -23.971218 0.843350 0.027056
v -23.966337 0.845411 0.035387
v -23.950190 0.859597 0.037469
v -23.926994 0.883961 0.034063
v -23.911869 0.912836 0.022438
v -23.906471 0.912397 0.024639
v -23.925262 0.881037 0.038536
v -23.947348 0.856242 0.041207
v -23.966240 0.840948 0.039021
v -23.972858 0.837990 0.029461
v -24.024961 0.842168 -0.027673
v -24.018877 0.839371 -0.019623
v -24.019766 0.844235 -0.016716
v -24.025795 0.846457 -0.024838
v -24.015945 0.844346 -0.020837
v -24.020592 0.846014 -0.027220
v -24.025122 0.861354 -0.048584
v -24.020699 0.863858 -0.046359
v -24.025755 0.865662 -0.044658
v -24.022388 0.885478 -0.068045
v -24.018143 0.886879 -0.064711
v -24.023590 0.888592 -0.063586
v -23.933575 0.999355 -0.053909
v -23.937288 1.000717 -0.049488
v -23.936710 0.994361 -0.051258
v -23.917946 0.990002 -0.036295
v -23.922056 0.991901 -0.032039
v -23.923244 0.986202 -0.035284
v -23.951603 0.995654 -0.068012
v -23.952110 0.991030 -0.063790
v -23.954922 0.996732 -0.063075
v -23.969866 0.981458 -0.078390
v -23.968712 0.977750 -0.073376
v -23.972801 0.982539 -0.072970
v -23.986696 0.961225 -0.084452
v -23.984631 0.958764 -0.079846
v -23.988876 0.962437 -0.079460
v -24.001692 0.938070 -0.084839
v -23.998529 0.936683 -0.080364
v -24.003262 0.939795 -0.079802
v -24.013191 0.912719 -0.078735
v -24.009420 0.912403 -0.074666
v -24.014286 0.915070 -0.073740
v -23.908266 0.969816 -0.015718
v -23.911968 0.971857 -0.012069
v -23.913574 0.967687 -0.015754
v -23.903477 0.942428 0.005331
v -23.907251 0.944983 0.008651
v -23.909004 0.941547 0.004282
v -23.968925 0.843053 -0.027513
v -23.963312 0.845202 -0.038285
v -23.970285 0.860799 -0.056007
v -23.984297 0.885383 -0.072891
v -24.003632 0.915528 -0.083123
v -23.973667 0.843350 -0.030268
v -23.968893 0.845411 -0.038661
v -23.975163 0.859597 -0.053686
v -23.989708 0.883961 -0.072069
v -24.007339 0.912836 -0.079357
v -24.008133 0.912397 -0.085132
v -23.986702 0.881037 -0.075807
v -23.973345 0.856242 -0.058015
v -23.965792 0.840948 -0.040561
v -23.970762 0.837990 -0.030049
v -23.994190 0.842168 0.043639
v -23.990261 0.839371 0.034346
v -23.987299 0.844235 0.033662
v -23.991318 0.846457 0.042945
v -23.992779 0.844346 0.032414
v -23.995983 0.846014 0.039629
v -24.012220 0.861354 0.054234
v -24.012505 0.863858 0.049291
v -24.008505 0.865662 0.052819
v -24.030441 0.885478 0.061597
v -24.029678 0.886879 0.056253
v -24.025980 0.888592 0.060408
v -24.062605 0.999355 -0.022384
v -24.056919 1.000717 -0.021379
v -24.058741 0.994361 -0.020995
v -24.055166 0.990002 -0.044729
v -24.049425 0.991901 -0.043296
v -24.051641 0.986202 -0.040644
v -24.065805 0.995654 0.000279
v -24.061893 0.991030 -0.001392
v -24.059870 0.996732 0.000684
v -24.065660 0.981458 0.021285
v -24.061895 0.977750 0.017778
v -24.059500 0.982539 0.021116
v -24.062496 0.961225 0.038891
v -24.059540 0.958764 0.034798
v -24.057083 0.962437 0.038282
v -24.055332 0.938070 0.052070
v -24.053040 0.936683 0.047094
v -24.050186 0.939795 0.050912
v -24.044296 0.912719 0.058976
v -24.042660 0.912403 0.053678
v -24.039425 0.915070 0.057428
v -24.042187 0.969816 -0.063399
v -24.037174 0.971857 -0.062017
v -24.039562 0.967687 -0.058783
v -24.026350 0.942428 -0.078071
v -24.021589 0.944983 -0.076463
v -24.024494 0.941547 -0.072758
vt 0.932449 0.680870
vt 0.907374 0.658774
vt 0.893508 0.664383
vt 0.930316 0.697343
vt 0.962364 0.697482
vt 0.961608 0.681125
vt 0.911507 0.280051
vt 0.893635 0.318389
vt 0.909757 0.319520
vt 0.922938 0.291568
vt 0.984337 0.250564
vt 0.986565 0.266626
vt 0.930316 0.697343
vt 0.932449 0.680870
vt 0.961608 0.681125
vt 0.962364 0.697482
vt 0.911507 0.280051
vt 0.922938 0.291568
vt 0.909757 0.319520
vt 0.893635 0.318389
vt 0.907374 0.658774
vt 0.893508 0.664383
vt 0.984337 0.250564
vt 0.986565 0.266626
vt 0.934580 0.664397
vt 0.921239 0.653166
vt 0.960852 0.664769
vt 0.934580 0.664397
vt 0.960852 0.664769
vt 0.925879 0.320651
vt 0.921239 0.653166
vt 0.934370 0.303085
vt 0.988794 0.282687
vt 0.934370 0.303085
vt 0.988794 0.282687
vt 0.925879 0.320651
vt 0.935543 0.659443
vt 0.925492 0.651202
vt 0.960872 0.659643
vt 0.937968 0.306471
vt 0.930796 0.321690
vt 0.990021 0.287660
vt 0.929182 0.702206
vt 0.889150 0.666280
vt 0.962385 0.702608
vt 0.888705 0.317389
vt 0.907862 0.276713
vt 0.983151 0.245581
vt 0.082941 0.566067
vt 0.083071 0.584100
vt 0.053483 0.584297
vt 0.053353 0.566277
vt 0.083154 0.602293
vt 0.053567 0.602360
vt 0.083154 0.458177
vt 0.083142 0.476425
vt 0.053555 0.476320
vt 0.053567 0.458243
vt 0.083042 0.494588
vt 0.053454 0.494375
vt 0.082912 0.512577
vt 0.053324 0.512383
vt 0.082828 0.530414
vt 0.053240 0.530349
vt 0.082840 0.548201
vt 0.053252 0.548303
vt 0.056953 0.416591
vt 0.057691 0.389993
vt 0.076293 0.398293
vt 0.037918 0.584341
vt 0.037717 0.566325
vt 0.038047 0.602374
vt 0.038029 0.476297
vt 0.038047 0.458258
vt 0.037873 0.494327
vt 0.037672 0.512339
vt 0.037542 0.530335
vt 0.037561 0.548326
vt 0.029849 0.584397
vt 0.029647 0.566385
vt 0.029978 0.602393
vt 0.029959 0.476268
vt 0.029978 0.458277
vt 0.029804 0.494267
vt 0.029602 0.512283
vt 0.029473 0.530316
vt 0.029491 0.548355
vt 0.037651 0.434901
vt 0.030367 0.415879
vt 0.075276 0.435918
vt 0.083577 0.417316
vt 0.056252 0.443202
vt 0.038669 0.397277
vt 0.082643 0.672421
vt 0.083480 0.681107
vt 0.142008 0.679521
vt 0.141138 0.671842
vt 0.165510 0.669087
vt 0.159364 0.661746
vt 0.182439 0.647759
vt 0.172048 0.644500
vt 0.193517 0.586893
vt 0.184495 0.585081
vt 0.122087 0.323962
vt 0.165728 0.361835
vt 0.171971 0.357849
vt 0.124726 0.316723
vt 0.193623 0.416161
vt 0.199432 0.487463
vt 0.208280 0.487725
vt 0.202375 0.414733
vt 0.028191 0.661585
vt 0.085243 0.661585
vt 0.086112 0.669091
vt 0.029028 0.670076
vt 0.099651 0.652073
vt 0.105797 0.659249
vt 0.107949 0.638796
vt 0.118340 0.642015
vt 0.120396 0.580709
vt 0.129418 0.582481
vt 0.135332 0.485281
vt 0.144181 0.485537
vt 0.067904 0.322158
vt 0.065266 0.329234
vt 0.012789 0.312808
vt 0.013281 0.304934
vt 0.082077 0.663818
vt 0.139129 0.663818
vt 0.139998 0.671325
vt 0.082914 0.672309
vt 0.153537 0.654306
vt 0.159682 0.661483
vt 0.161835 0.641029
vt 0.172226 0.644248
vt 0.174282 0.582943
vt 0.183303 0.584714
vt 0.165588 0.360807
vt 0.121790 0.324391
vt 0.198067 0.487770
vt 0.192161 0.416414
vt 0.067167 0.307167
vt 0.067366 0.299606
vt 0.082643 0.672421
vt 0.141138 0.671842
vt 0.142008 0.679521
vt 0.083480 0.681107
vt 0.159364 0.661746
vt 0.165510 0.669087
vt 0.172048 0.644500
vt 0.182439 0.647759
vt 0.184495 0.585081
vt 0.193517 0.586893
vt 0.199432 0.487463
vt 0.208280 0.487725
vt 0.124726 0.316723
vt 0.122087 0.323962
vt 0.066874 0.307660
vt 0.067366 0.299606
vt 0.028191 0.661585
vt 0.029028 0.670076
vt 0.086112 0.669091
vt 0.085243 0.661585
vt 0.105797 0.659249
vt 0.099651 0.652073
vt 0.118340 0.642015
vt 0.107949 0.638796
vt 0.129418 0.582481
vt 0.120396 0.580709
vt 0.065266 0.329234
vt 0.105459 0.362469
vt 0.111702 0.358574
vt 0.067904 0.322158
vt 0.129524 0.415577
vt 0.135332 0.485281
vt 0.144181 0.485537
vt 0.138275 0.414181
vt 0.082077 0.663818
vt 0.139129 0.663818
vt 0.139998 0.671325
vt 0.082914 0.672309
vt 0.153537 0.654306
vt 0.159682 0.661483
vt 0.161835 0.641029
vt 0.172226 0.644248
vt 0.174282 0.582943
vt 0.183303 0.584714
vt 0.165728 0.361835
vt 0.159345 0.364703
vt 0.119152 0.331468
vt 0.189218 0.487515
vt 0.193623 0.416161
vt 0.183410 0.417811
vt 0.066675 0.315041
vt 0.075494 0.479930
vt 0.075494 0.526956
vt 0.066042 0.526090
vt 0.066042 0.480796
vt 0.105520 0.479930
vt 0.105520 0.525224
vt 0.095564 0.525224
vt 0.095564 0.479930
vt 0.066874 0.307660
vt 0.066675 0.315041
vt 0.119152 0.331468
vt 0.111702 0.358574
vt 0.105459 0.362469
vt 0.159345 0.364703
vt 0.138275 0.414181
vt 0.129524 0.415577
vt 0.183410 0.417811
vt 0.189218 0.487515
vt 0.198067 0.487770
vt 0.202375 0.414733
vt 0.192161 0.416414
vt 0.171971 0.357849
vt 0.165588 0.360807
vt 0.121790 0.324391
vt 0.013281 0.304934
vt 0.012789 0.312808
vt 0.067167 0.307167
vt 0.075830 0.479930
vt 0.085282 0.480796
vt 0.085282 0.526090
vt 0.075830 0.526956
vt 0.085610 0.479930
vt 0.095253 0.479930
vt 0.095253 0.526956
vt 0.085610 0.526956
vt 0.932449 0.680870
vt 0.930316 0.697343
vt 0.893508 0.664383
vt 0.907374 0.658774
vt 0.961608 0.681125
vt 0.962364 0.697482
vt 0.911507 0.280051
vt 0.922938 0.291568
vt 0.909757 0.319520
vt 0.893635 0.318389
vt 0.984337 0.250564
vt 0.986565 0.266626
vt 0.930316 0.697343
vt 0.962364 0.697482
vt 0.961608 0.681125
vt 0.932449 0.680870
vt 0.911507 0.280051
vt 0.893635 0.318389
vt 0.909757 0.319520
vt 0.922938 0.291568
vt 0.893508 0.664383
vt 0.907374 0.658774
vt 0.986565 0.266626
vt 0.984337 0.250564
vt 0.934580 0.664397
vt 0.921239 0.653166
vt 0.960852 0.664769
vt 0.960852 0.664769
vt 0.934580 0.664397
vt 0.921239 0.653166
vt 0.925879 0.320651
vt 0.934370 0.303085
vt 0.988794 0.282687
vt 0.988794 0.282687
vt 0.934370 0.303085
vt 0.925879 0.320651
vt 0.935543 0.659443
vt 0.925492 0.651202
vt 0.960872 0.659643
vt 0.930796 0.321690
vt 0.937968 0.306471
vt 0.990021 0.287660
vt 0.929182 0.702206
vt 0.889150 0.666280
vt 0.962385 0.702608
vt 0.907862 0.276713
vt 0.888705 0.317389
vt 0.983151 0.245581
vt 0.685857 0.131366
vt 0.685857 0.091375
vt 0.749306 0.091375
vt 0.749306 0.131366
vt 0.241715 0.131366
vt 0.241715 0.091375
vt 0.305164 0.091375
vt 0.305164 0.131366
vt 0.368613 0.091375
vt 0.368613 0.131366
vt 0.432061 0.091375
vt 0.432061 0.131366
vt 0.495510 0.091375
vt 0.495510 0.131366
vt 0.558959 0.091375
vt 0.558959 0.131366
vt 0.622408 0.091375
vt 0.622408 0.131366
vt 0.124269 0.177405
vt 0.055640 0.246034
vt 0.124269 0.278079
vt 0.124269 0.076732
vt 0.055640 0.108777
vt 0.224943 0.177405
vt 0.192897 0.108777
vt 0.192897 0.246033
vt 0.878601 0.174133
vt 0.878601 0.207457
vt 0.855839 0.196894
vt 0.845276 0.174133
vt 0.855839 0.151371
vt 0.878601 0.140808
vt 0.901362 0.151371
vt 0.911925 0.174133
vt 0.901362 0.196894
vt 0.622408 0.152851
vt 0.685857 0.152851
vt 0.749306 0.152851
vt 0.241715 0.152851
vt 0.305164 0.152851
vt 0.368613 0.152851
vt 0.432061 0.152851
vt 0.495510 0.152851
vt 0.558959 0.152851
vt 0.749306 0.167808
vt 0.685857 0.167808
vt 0.622408 0.167808
vt 0.558959 0.167808
vt 0.241715 0.167808
vt 0.305164 0.167808
vt 0.368613 0.167808
vt 0.432062 0.167808
vt 0.495510 0.167808
vt 0.749306 0.210617
vt 0.685857 0.210617
vt 0.241715 0.210617
vt 0.305164 0.210617
vt 0.368613 0.210617
vt 0.432062 0.210617
vt 0.495510 0.210617
vt 0.558959 0.210617
vt 0.622408 0.210617
vt 0.749306 0.246138
vt 0.685857 0.246138
vt 0.685857 0.234089
vt 0.749306 0.234089
vt 0.241715 0.246138
vt 0.241715 0.234089
vt 0.305164 0.234089
vt 0.305164 0.246138
vt 0.368613 0.246138
vt 0.368613 0.234089
vt 0.432062 0.234089
vt 0.432062 0.246138
vt 0.495510 0.246138
vt 0.495510 0.234089
vt 0.558959 0.234089
vt 0.558959 0.246138
vt 0.622408 0.246138
vt 0.622408 0.234089
vt 0.749306 0.271933
vt 0.685857 0.271933
vt 0.241715 0.271933
vt 0.305164 0.271933
vt 0.368613 0.271933
vt 0.432062 0.271933
vt 0.495510 0.271933
vt 0.558959 0.271933
vt 0.622408 0.271933
vt 0.878601 0.228825
vt 0.915956 0.211488
vt 0.951814 0.247345
vt 0.878601 0.281323
vt 0.805389 0.247345
vt 0.841245 0.211488
vt 0.823908 0.174133
vt 0.771410 0.174133
vt 0.805389 0.100920
vt 0.841245 0.136777
vt 0.878601 0.119441
vt 0.878601 0.066942
vt 0.951814 0.100920
vt 0.915956 0.136777
vt 0.933293 0.174133
vt 0.985791 0.174133
vt 0.023595 0.177405
vt 0.241715 0.086172
vt 0.305164 0.086172
vt 0.432061 0.086172
vt 0.495510 0.086172
vt 0.558959 0.086172
vt 0.622408 0.086172
vt 0.685857 0.086172
vt 0.368613 0.086172
vt 0.749306 0.086172
vt 0.241715 0.075441
vt 0.305164 0.075441
vt 0.432061 0.075441
vt 0.495510 0.075441
vt 0.558959 0.075441
vt 0.622408 0.075441
vt 0.685857 0.075441
vt 0.368613 0.075441
vt 0.749306 0.075441
vt 0.618157 0.392922
vt 0.618157 0.330272
vt 0.684338 0.330272
vt 0.684338 0.392922
vt 0.551976 0.330272
vt 0.551976 0.392922
vt 0.419614 0.330272
vt 0.485795 0.330272
vt 0.485795 0.392922
vt 0.419614 0.392922
vt 0.287253 0.330272
vt 0.353433 0.330272
vt 0.353433 0.392922
vt 0.287253 0.392922
vt 0.750519 0.330272
vt 0.750519 0.392922
vt 0.618157 0.443929
vt 0.684338 0.443929
vt 0.551976 0.443929
vt 0.485795 0.443929
vt 0.419614 0.443929
vt 0.353433 0.443929
vt 0.287253 0.443929
vt 0.750519 0.443929
vt 0.618157 0.463909
vt 0.684338 0.463909
vt 0.551976 0.463909
vt 0.485795 0.463909
vt 0.419614 0.463909
vt 0.353433 0.463909
vt 0.287253 0.463909
vt 0.750519 0.463909
vt 0.618157 0.530788
vt 0.684338 0.530788
vt 0.551976 0.530788
vt 0.485795 0.530788
vt 0.419614 0.530788
vt 0.353433 0.530788
vt 0.287253 0.530788
vt 0.750519 0.530788
vt 0.618157 0.590916
vt 0.684338 0.590916
vt 0.551976 0.590916
vt 0.485795 0.590916
vt 0.419614 0.590916
vt 0.353433 0.590916
vt 0.287253 0.590916
vt 0.750519 0.590916
vt 0.684338 0.661713
vt 0.618157 0.661713
vt 0.551976 0.661713
vt 0.485795 0.661713
vt 0.419614 0.661713
vt 0.353433 0.661713
vt 0.287253 0.661713
vt 0.750519 0.661713
vt 0.221072 0.590916
vt 0.221072 0.661713
vt 0.221072 0.530788
vt 0.221072 0.463909
vt 0.221072 0.443929
vt 0.221072 0.392922
vt 0.221072 0.330272
vt 0.616623 0.717854
vt 0.616623 0.709044
vt 0.677278 0.709044
vt 0.677277 0.717854
vt 0.555969 0.709044
vt 0.555969 0.717854
vt 0.495314 0.709044
vt 0.495314 0.717854
vt 0.434660 0.709044
vt 0.434660 0.717854
vt 0.374006 0.709044
vt 0.374006 0.717854
vt 0.313352 0.709044
vt 0.313352 0.717854
vt 0.737932 0.709044
vt 0.737932 0.717854
vt 0.616623 0.741779
vt 0.677278 0.741779
vt 0.555969 0.741779
vt 0.495314 0.741779
vt 0.434660 0.741779
vt 0.374006 0.741779
vt 0.313352 0.741779
vt 0.737932 0.741779
vt 0.616623 0.772762
vt 0.616623 0.756010
vt 0.677278 0.756010
vt 0.677278 0.772762
vt 0.555969 0.756010
vt 0.555969 0.772762
vt 0.495314 0.756010
vt 0.495314 0.772762
vt 0.434660 0.756010
vt 0.434660 0.772762
vt 0.374006 0.756010
vt 0.374006 0.772762
vt 0.313352 0.756010
vt 0.313352 0.772762
vt 0.737932 0.756010
vt 0.737932 0.772762
vt 0.616623 0.817769
vt 0.677278 0.817769
vt 0.555969 0.817769
vt 0.495314 0.817769
vt 0.434660 0.817769
vt 0.374006 0.817769
vt 0.313352 0.817769
vt 0.737932 0.817769
vt 0.616623 0.863379
vt 0.677277 0.863379
vt 0.555969 0.863379
vt 0.495314 0.863379
vt 0.434660 0.863379
vt 0.374006 0.863379
vt 0.313352 0.863379
vt 0.737932 0.863379
vt 0.616623 0.906795
vt 0.677278 0.906795
vt 0.555970 0.906795
vt 0.495314 0.906795
vt 0.434660 0.906795
vt 0.374006 0.906795
vt 0.313352 0.906795
vt 0.737932 0.906795
vt 0.979329 0.806094
vt 0.994362 0.806094
vt 0.956097 0.888544
vt 0.945829 0.878277
vt 0.956097 0.723644
vt 0.945829 0.733912
vt 0.873647 0.685379
vt 0.873647 0.700412
vt 0.791197 0.723644
vt 0.801465 0.733912
vt 0.752932 0.806094
vt 0.767965 0.806094
vt 0.791197 0.888544
vt 0.801465 0.878277
vt 0.873647 0.926809
vt 0.873647 0.911777
vt 0.925285 0.806094
vt 0.908916 0.841364
vt 0.908916 0.770824
vt 0.873647 0.754455
vt 0.838377 0.770824
vt 0.822008 0.806094
vt 0.838377 0.841364
vt 0.873647 0.857733
vt 0.873647 0.806094
vt 0.252697 0.863379
vt 0.252697 0.906795
vt 0.252697 0.817769
vt 0.252697 0.772762
vt 0.252697 0.756010
vt 0.252697 0.717854
vt 0.252697 0.741779
vt 0.252697 0.709044
vt 0.230939 0.806094
vt 0.197439 0.733912
vt 0.153287 0.778064
vt 0.166296 0.806094
vt 0.125256 0.700412
vt 0.125256 0.765055
vt 0.053074 0.733912
vt 0.097226 0.778064
vt 0.019574 0.806094
vt 0.084217 0.806094
vt 0.053074 0.878277
vt 0.097226 0.834125
vt 0.125256 0.911777
vt 0.125256 0.847134
vt 0.197439 0.878277
vt 0.153287 0.834125
vt 0.125256 0.806094
vt 0.801232 0.337180
vt 0.798836 0.341530
vt 0.775925 0.343999
vt 0.778863 0.337802
vt 0.834965 0.366663
vt 0.833358 0.370927
vt 0.869405 0.416050
vt 0.865794 0.420643
vt 0.886405 0.483412
vt 0.884997 0.484158
vt 0.873335 0.546646
vt 0.846157 0.604033
vt 0.845865 0.602604
vt 0.872646 0.546248
vt 0.798836 0.341530
vt 0.797538 0.346986
vt 0.779451 0.348688
vt 0.775925 0.343999
vt 0.833358 0.370927
vt 0.826900 0.373715
vt 0.865794 0.420643
vt 0.861918 0.423510
vt 0.884997 0.484158
vt 0.875892 0.483661
vt 0.845865 0.602604
vt 0.837910 0.598593
vt 0.863781 0.543864
vt 0.872646 0.546248
vt 0.811484 0.666868
vt 0.853866 0.652152
vt 0.851141 0.649008
vt 0.810074 0.664047
vt 0.810437 0.655521
vt 0.847305 0.642891
vt 0.810803 0.647961
vt 0.768037 0.670362
vt 0.768549 0.667250
vt 0.810653 0.645643
vt 0.768549 0.667250
vt 0.765677 0.659214
vt 0.803506 0.639097
vt 0.810653 0.645643
vt 0.765677 0.659214
vt 0.768037 0.670362
vt 0.852340 0.339507
vt 0.832323 0.336905
vt 0.830355 0.342416
vt 0.850277 0.344210
vt 0.831537 0.347457
vt 0.847058 0.348824
vt 0.887349 0.377466
vt 0.879115 0.384036
vt 0.883450 0.381914
vt 0.907867 0.429060
vt 0.917744 0.424788
vt 0.913512 0.426713
vt 0.879105 0.612796
vt 0.888701 0.619608
vt 0.884791 0.616585
vt 0.904194 0.573225
vt 0.914061 0.577203
vt 0.909849 0.575184
vt 0.917375 0.528109
vt 0.928188 0.529479
vt 0.923260 0.528731
vt 0.917226 0.479525
vt 0.927966 0.478584
vt 0.922647 0.479204
vt 0.801232 0.337180
vt 0.798836 0.341530
vt 0.775925 0.343999
vt 0.778863 0.337802
vt 0.834965 0.366663
vt 0.833358 0.370927
vt 0.869405 0.416050
vt 0.865794 0.420643
vt 0.886405 0.483412
vt 0.884997 0.484158
vt 0.873335 0.546646
vt 0.846157 0.604033
vt 0.845865 0.602604
vt 0.872646 0.546248
vt 0.798836 0.341530
vt 0.797538 0.346986
vt 0.779451 0.348688
vt 0.775925 0.343999
vt 0.833358 0.370927
vt 0.826900 0.373715
vt 0.865794 0.420643
vt 0.861918 0.423510
vt 0.884997 0.484158
vt 0.875892 0.483661
vt 0.845865 0.602604
vt 0.837910 0.598593
vt 0.863781 0.543864
vt 0.872646 0.546248
vt 0.811484 0.666868
vt 0.853866 0.652152
vt 0.851141 0.649008
vt 0.810074 0.664047
vt 0.810437 0.655521
vt 0.847305 0.642891
vt 0.810803 0.647961
vt 0.768037 0.670362
vt 0.768549 0.667250
vt 0.810653 0.645643
vt 0.768549 0.667250
vt 0.765677 0.659214
vt 0.803506 0.639097
vt 0.810653 0.645643
vt 0.765677 0.659214
vt 0.768037 0.670362
vt 0.852340 0.339507
vt 0.832323 0.336905
vt 0.830355 0.342416
vt 0.850277 0.344210
vt 0.831537 0.347457
vt 0.847058 0.348824
vt 0.887349 0.377466
vt 0.879115 0.384036
vt 0.883450 0.381914
vt 0.907867 0.429060
vt 0.917744 0.424788
vt 0.913512 0.426713
vt 0.879105 0.612796
vt 0.888701 0.619608
vt 0.884791 0.616585
vt 0.904194 0.573225
vt 0.914061 0.577203
vt 0.909849 0.575184
vt 0.917375 0.528109
vt 0.928188 0.529479
vt 0.923260 0.528731
vt 0.917226 0.479525
vt 0.927966 0.478584
vt 0.922647 0.479204
vt 0.801232 0.337180
vt 0.798836 0.341530
vt 0.775925 0.343999
vt 0.778863 0.337802
vt 0.834965 0.366663
vt 0.833358 0.370927
vt 0.869405 0.416050
vt 0.865794 0.420643
vt 0.886405 0.483412
vt 0.884997 0.484158
vt 0.873335 0.546646
vt 0.846157 0.604033
vt 0.845865 0.602604
vt 0.872646 0.546248
vt 0.798836 0.341530
vt 0.797538 0.346986
vt 0.779451 0.348688
vt 0.775925 0.343999
vt 0.833358 0.370927
vt 0.826900 0.373715
vt 0.865794 0.420643
vt 0.861918 0.423510
vt 0.884997 0.484158
vt 0.875892 0.483661
vt 0.845865 0.602604
vt 0.837910 0.598593
vt 0.863781 0.543864
vt 0.872646 0.546248
vt 0.811484 0.666868
vt 0.853866 0.652152
vt 0.851141 0.649008
vt 0.810074 0.664047
vt 0.810437 0.655521
vt 0.847305 0.642891
vt 0.810803 0.647961
vt 0.768037 0.670362
vt 0.768549 0.667250
vt 0.810653 0.645643
vt 0.768549 0.667250
vt 0.765677 0.659214
vt 0.803506 0.639097
vt 0.810653 0.645643
vt 0.765677 0.659214
vt 0.768037 0.670362
vt 0.852340 0.339507
vt 0.832323 0.336905
vt 0.830355 0.342416
vt 0.850277 0.344210
vt 0.831537 0.347457
vt 0.847058 0.348824
vt 0.887349 0.377466
vt 0.879115 0.384036
vt 0.883450 0.381914
vt 0.907867 0.429060
vt 0.917744 0.424788
vt 0.913512 0.426713
vt 0.879105 0.612796
vt 0.888701 0.619608
vt 0.884791 0.616585
vt 0.904194 0.573225
vt 0.914061 0.577203
vt 0.909849 0.575184
vt 0.917375 0.528109
vt 0.928188 0.529479
vt 0.923260 0.528731
vt 0.917226 0.479525
vt 0.927966 0.478584
vt 0.922647 0.479204
vn 0.001122 -0.001139 0.999999
vn 0.001616 -0.000025 0.999999
vn 0.432617 0.273611 0.859057
vn 0.131834 0.487279 0.863238
vn -0.060216 0.489234 0.870071
vn -0.001383 -0.000151 0.999999
vn 0.382801 -0.311914 0.869582
vn 0.514616 -0.047042 0.856130
vn 0.000042 0.001931 0.999998
vn 0.001928 0.001957 0.999996
vn 0.252692 -0.453019 0.854939
vn 0.003297 0.002120 0.999992
vn 0.131838 0.487284 -0.863234
vn 0.001126 -0.001142 -0.999999
vn -0.001383 -0.000145 -0.999999
vn -0.060215 0.489245 -0.870065
vn 0.382806 -0.311908 -0.869582
vn 0.001929 0.001960 -0.999996
vn 0.000043 0.001936 -0.999998
vn 0.514627 -0.047033 -0.856123
vn 0.001619 -0.000030 -0.999999
vn 0.432629 0.273612 -0.859051
vn 0.252692 -0.453020 -0.854938
vn 0.003297 0.002120 -0.999992
vn -0.129784 -0.488825 0.862674
vn -0.430332 -0.273966 0.860091
vn 0.057809 -0.489497 0.870087
vn -0.129782 -0.488835 -0.862668
vn 0.057809 -0.489497 -0.870087
vn -0.514547 0.050347 -0.855983
vn -0.430339 -0.273978 -0.860084
vn -0.379583 0.315426 -0.869726
vn -0.247055 0.456644 -0.854658
vn -0.379579 0.315425 0.869728
vn -0.247055 0.456643 0.854658
vn -0.514536 0.050347 0.855989
vn -0.059517 -0.233703 0.970485
vn -0.203346 -0.130805 0.970330
vn -0.203346 -0.130805 0.970330
vn -0.059517 -0.233703 0.970485
vn -0.059503 -0.233704 -0.970485
vn -0.059503 -0.233704 -0.970485
vn -0.844482 -0.535583 0.000000
vn -0.681484 -0.253618 -0.686482
vn -0.681484 -0.253618 0.686482
vn -0.176765 0.150115 -0.972738
vn -0.176765 0.150115 -0.972738
vn -0.247137 0.023984 -0.968684
vn -0.247137 0.023984 -0.968684
vn -0.247190 0.023990 0.968670
vn -0.247190 0.023990 0.968670
vn -0.176783 0.150127 0.972733
vn -0.176783 0.150127 0.972733
vn -0.203296 -0.130801 -0.970341
vn -0.203296 -0.130801 -0.970341
vn -0.997596 0.069294 -0.000000
vn -0.730956 -0.098207 -0.675321
vn -0.730956 -0.098206 0.675321
vn 0.062937 0.231414 -0.970818
vn 0.205026 0.129107 -0.970204
vn 0.205026 0.129107 -0.970204
vn 0.062937 0.231414 -0.970818
vn -0.722231 0.072627 -0.687828
vn -0.951334 0.308162 0.000000
vn 0.062947 0.231433 0.970812
vn 0.062947 0.231433 0.970812
vn -0.722231 0.072627 0.687828
vn 0.245304 -0.021313 -0.969212
vn 0.245304 -0.021313 -0.969212
vn 0.776068 -0.630649 -0.000010
vn 0.180664 -0.146813 -0.972526
vn 0.180681 -0.146823 0.972521
vn 0.245355 -0.021318 0.969199
vn 0.245355 -0.021318 0.969199
vn 0.205071 0.129131 0.970191
vn 0.205071 0.129131 0.970191
vn -0.585694 -0.411236 -0.698461
vn -0.658349 -0.752713 -0.000000
vn -0.585694 -0.411236 0.698461
vn 0.933039 0.353494 0.066930
vn 0.612412 0.499946 -0.612377
vn 0.701902 -0.121090 -0.701905
vn 0.958116 -0.238155 -0.159046
vn -0.066992 0.353512 -0.933028
vn 0.159052 -0.238110 -0.958126
vn -0.707102 0.000109 -0.707112
vn -0.352493 -0.520623 -0.777625
vn -0.933108 -0.353308 -0.066959
vn -0.533076 -0.803135 -0.266091
vn -0.612413 -0.499883 0.612428
vn -0.276821 -0.920183 0.276829
vn 0.066987 -0.353605 0.932993
vn 0.266065 -0.803197 0.532996
vn 0.707159 -0.000049 0.707054
vn 0.777604 -0.520674 0.352464
vn -0.353530 0.866041 0.353540
vn -0.915616 0.349757 0.198287
vn -0.685581 0.244751 0.685620
vn 0.701869 -0.121075 -0.701941
vn 0.958102 -0.238237 -0.159011
vn 0.159079 -0.238132 -0.958117
vn -0.352426 -0.520730 -0.777584
vn -0.532878 -0.803264 -0.266098
vn -0.276718 -0.920241 0.276737
vn 0.266099 -0.803170 0.533019
vn 0.777553 -0.520722 0.352504
vn 0.192866 0.962069 -0.192942
vn 0.422915 0.857011 0.294408
vn -0.294380 0.857012 -0.422931
vn -0.753521 0.603446 -0.260882
vn -0.198263 0.349870 0.915578
vn 0.260884 0.603356 0.753592
vn -0.000536 -0.336497 -0.941684
vn 0.001184 0.423472 -0.905909
vn 0.179423 0.390275 -0.903046
vn 0.006944 -0.331129 -0.943560
vn 0.484478 0.233934 -0.842945
vn 0.015573 -0.330746 -0.943591
vn 0.660157 -0.013921 -0.750998
vn 0.013143 -0.340031 -0.940322
vn 0.703990 -0.156836 -0.692676
vn 0.008341 -0.344634 -0.938700
vn 0.011102 -0.362694 -0.931842
vn 0.018236 -0.357828 -0.933609
vn 0.578713 -0.625528 -0.523264
vn 0.354054 -0.818166 -0.453045
vn 0.017328 -0.349931 -0.936615
vn 0.010890 -0.345818 -0.938238
vn 0.709360 -0.230430 -0.666116
vn 0.689502 -0.398060 -0.605092
vn -0.000539 0.355027 0.934856
vn 0.006944 0.360314 0.932805
vn 0.179414 0.882908 0.433917
vn 0.001182 0.910045 0.414509
vn 0.015568 0.360744 0.932535
vn 0.484442 0.725021 0.489552
vn 0.013135 0.351504 0.936094
vn 0.660140 0.476763 0.580441
vn 0.008339 0.346743 0.937923
vn 0.703984 0.330042 0.628871
vn 0.010881 0.345550 0.938337
vn 0.709377 0.256804 0.656381
vn 0.354048 -0.328688 0.875565
vn 0.011098 0.328540 0.944425
vn 0.002859 0.329293 0.944223
vn 0.107982 -0.414088 0.903809
vn 0.006059 -0.938314 0.345730
vn 0.006059 -0.938314 0.345730
vn -0.287479 -0.898722 0.331141
vn -0.287479 -0.898722 0.331141
vn -0.718937 -0.652207 0.240324
vn -0.718937 -0.652207 0.240324
vn -0.937393 -0.326797 0.120410
vn -0.937393 -0.326797 0.120410
vn -0.990921 -0.126154 0.046476
vn -0.990921 -0.126154 0.046476
vn 0.578722 -0.136480 0.804024
vn 0.689507 0.089739 0.718698
vn 0.107985 -0.901514 -0.419061
vn 0.000536 -0.336478 -0.941691
vn -0.006943 -0.331043 -0.943590
vn -0.179457 0.390275 -0.903040
vn -0.001185 0.423481 -0.905904
vn -0.015572 -0.330582 -0.943649
vn -0.484485 0.233996 -0.842924
vn -0.013144 -0.339961 -0.940348
vn -0.660166 -0.013973 -0.750990
vn -0.008342 -0.344710 -0.938672
vn -0.703993 -0.156905 -0.692658
vn -0.010891 -0.345894 -0.938210
vn -0.709371 -0.230404 -0.666113
vn -0.354082 -0.818166 -0.453024
vn -0.011101 -0.362731 -0.931828
vn -0.002864 -0.362102 -0.932134
vn -0.107984 -0.901522 -0.419044
vn 0.000539 0.355020 0.934859
vn -0.001182 0.910043 0.414512
vn -0.179468 0.882897 0.433918
vn -0.006944 0.360287 0.932816
vn -0.484513 0.724944 0.489596
vn -0.015566 0.360635 0.932577
vn -0.660189 0.476604 0.580517
vn -0.013132 0.351389 0.936137
vn -0.703990 0.330061 0.628855
vn -0.008338 0.346793 0.937905
vn -0.011099 0.328579 0.944411
vn -0.018235 0.333465 0.942586
vn -0.578753 -0.136416 0.804013
vn -0.354077 -0.328631 0.875575
vn -0.017319 0.341481 0.939729
vn -0.010882 0.345659 0.938297
vn -0.709355 0.256963 0.656343
vn -0.689510 0.089779 0.718690
vn -0.006062 -0.938304 0.345759
vn 0.287460 -0.898726 0.331146
vn 0.287460 -0.898726 0.331146
vn -0.006062 -0.938304 0.345759
vn 0.718946 -0.652198 0.240322
vn 0.718946 -0.652198 0.240322
vn 0.937412 -0.326738 0.120422
vn 0.937412 -0.326738 0.120422
vn 0.990918 -0.126177 0.046485
vn 0.990918 -0.126177 0.046485
vn 0.500881 0.812135 -0.299257
vn 0.825895 0.529049 -0.194948
vn 0.825895 0.529049 -0.194948
vn 0.500881 0.812135 -0.299257
vn 0.999762 -0.020454 0.007531
vn 0.999762 -0.020454 0.007531
vn 0.975444 0.206664 -0.076149
vn 0.975444 0.206664 -0.076149
vn 0.150706 0.927610 -0.341800
vn 0.150706 0.927610 -0.341800
vn 0.002864 -0.362081 -0.932142
vn -0.150700 0.927614 -0.341793
vn -0.150700 0.927614 -0.341793
vn -0.500850 0.812155 -0.299257
vn -0.500850 0.812155 -0.299257
vn 0.018233 0.333479 0.942581
vn -0.825880 0.529073 -0.194948
vn -0.825880 0.529073 -0.194948
vn 0.017316 0.341481 0.939729
vn -0.975445 0.206663 -0.076140
vn -0.975445 0.206663 -0.076140
vn -0.999763 -0.020401 0.007531
vn -0.999763 -0.020401 0.007531
vn -0.689529 -0.397994 -0.605104
vn -0.017330 -0.349891 -0.936630
vn -0.578777 -0.625450 -0.523288
vn -0.018237 -0.357786 -0.933625
vn -0.107982 -0.414071 0.903817
vn -0.002859 0.329315 0.944216
vn -0.001122 -0.001115 0.999999
vn -0.131838 0.487319 0.863214
vn -0.432636 0.273615 0.859046
vn -0.001626 -0.000017 0.999999
vn 0.001382 -0.000111 0.999999
vn 0.060207 0.489314 0.870027
vn -0.382840 -0.311941 0.869555
vn -0.001951 0.001955 0.999996
vn -0.000073 0.001947 0.999998
vn -0.514667 -0.047055 0.856098
vn -0.252703 -0.453040 0.854924
vn -0.003303 0.002093 0.999992
vn -0.131842 0.487330 -0.863207
vn 0.060207 0.489337 -0.870014
vn 0.001382 -0.000098 -0.999999
vn -0.001125 -0.001112 -0.999999
vn -0.382849 -0.311911 -0.869562
vn -0.514679 -0.047027 -0.856092
vn -0.000075 0.001961 -0.999998
vn -0.001953 0.001974 -0.999996
vn -0.432649 0.273610 -0.859042
vn -0.001629 -0.000025 -0.999999
vn -0.003302 0.002094 -0.999992
vn -0.252703 -0.453040 -0.854924
vn 0.129789 -0.488823 0.862674
vn 0.430333 -0.273956 0.860094
vn -0.057802 -0.489508 0.870081
vn -0.057802 -0.489508 -0.870081
vn 0.129788 -0.488830 -0.862671
vn 0.430340 -0.273966 -0.860087
vn 0.514547 0.050385 -0.855981
vn 0.379579 0.315449 -0.869720
vn 0.247058 0.456620 -0.854670
vn 0.247057 0.456618 0.854671
vn 0.379574 0.315447 0.869722
vn 0.514535 0.050387 0.855987
vn 0.059517 -0.233744 0.970475
vn 0.059517 -0.233744 0.970475
vn 0.203346 -0.130866 0.970322
vn 0.203346 -0.130866 0.970322
vn 0.059502 -0.233714 -0.970483
vn 0.681262 -0.254488 -0.686381
vn 0.843930 -0.536453 0.000000
vn 0.059502 -0.233714 -0.970483
vn 0.681262 -0.254488 0.686381
vn 0.176765 0.150138 -0.972735
vn 0.247137 0.024005 -0.968683
vn 0.247137 0.024005 -0.968683
vn 0.176765 0.150138 -0.972735
vn 0.247191 0.024001 0.968670
vn 0.176784 0.150138 0.972731
vn 0.176784 0.150138 0.972731
vn 0.247191 0.024001 0.968670
vn 0.203294 -0.130831 -0.970337
vn 0.203294 -0.130831 -0.970337
vn 0.997528 0.070266 0.000000
vn 0.731162 -0.097374 -0.675219
vn 0.731162 -0.097375 0.675219
vn -0.062938 0.231415 -0.970817
vn -0.062938 0.231415 -0.970817
vn -0.204990 0.129105 -0.970212
vn -0.204990 0.129105 -0.970212
vn 0.722252 0.074474 -0.687609
vn 0.950661 0.310231 0.000000
vn -0.062946 0.231438 0.970811
vn 0.722252 0.074473 0.687609
vn -0.062946 0.231438 0.970811
vn -0.245204 -0.021297 -0.969238
vn -0.180584 -0.146765 -0.972548
vn -0.776033 -0.630693 -0.000011
vn -0.245204 -0.021297 -0.969238
vn -0.180601 -0.146775 0.972543
vn -0.245255 -0.021303 0.969225
vn -0.245255 -0.021303 0.969225
vn -0.205033 0.129133 0.970199
vn -0.205033 0.129133 0.970199
vn 0.585297 -0.411977 -0.698356
vn 0.585297 -0.411979 0.698356
vn 0.657636 -0.753336 -0.000001
vn 0.685128 0.247362 -0.685136
vn 0.441253 0.781399 -0.441261
vn 0.000003 0.791793 -0.610790
vn 0.000000 0.255557 -0.966794
vn -0.441248 0.781406 -0.441254
vn -0.685130 0.247362 -0.685134
vn -0.610689 0.791869 0.001321
vn -0.967865 0.251469 0.001234
vn -0.439658 0.781483 0.442702
vn -0.684125 0.242752 0.687782
vn 0.001505 0.791740 0.610857
vn 0.002187 0.254524 0.967064
vn 0.441252 0.781400 0.441261
vn 0.685127 0.247374 0.685133
vn 0.610792 0.791791 -0.000000
vn 0.966808 0.255503 0.000000
vn 0.000000 -1.000000 0.000000
vn -0.507073 -0.696959 -0.507076
vn -0.000001 -0.709980 -0.704222
vn -0.000001 -0.709992 0.704209
vn -0.507071 -0.696961 0.507075
vn 0.704184 -0.710018 -0.000000
vn 0.507042 -0.697006 0.507041
vn 0.507049 -0.696997 -0.507046
vn -0.000000 1.000000 0.000002
vn -0.000011 0.911132 -0.412114
vn -0.430040 0.793821 -0.430016
vn -0.412122 0.911129 0.000009
vn -0.430036 0.793830 0.430004
vn -0.000016 0.911132 0.412116
vn 0.430013 0.793854 0.429983
vn 0.412091 0.911143 -0.000011
vn 0.430022 0.793850 -0.429982
vn 0.826454 0.563004 -0.000006
vn 0.590693 0.549695 -0.590693
vn 0.000005 0.563050 -0.826423
vn -0.590650 0.549768 -0.590667
vn -0.829126 0.559053 -0.003258
vn -0.591259 0.547462 0.592198
vn 0.004743 0.561481 0.827476
vn 0.590680 0.549716 0.590685
vn 0.000004 0.870635 -0.491930
vn 0.357037 0.863161 -0.357039
vn 0.491930 0.870635 -0.000005
vn 0.357029 0.863165 0.357039
vn -0.356985 0.863200 -0.356998
vn -0.491291 0.870954 -0.008519
vn -0.349892 0.868990 0.349902
vn 0.008527 0.870900 0.491385
vn -0.000000 0.697790 -0.716302
vn 0.514970 0.685277 -0.514977
vn -0.514988 0.685257 -0.514985
vn -0.714847 0.699256 -0.005884
vn -0.510554 0.691861 0.510552
vn 0.005881 0.699290 0.714814
vn 0.514957 0.685295 0.514965
vn 0.716287 0.697805 -0.000001
vn 0.000004 -0.722770 -0.691089
vn 0.497446 -0.710690 -0.497461
vn 0.590312 -0.550491 -0.590331
vn 0.000005 -0.563801 -0.825911
vn -0.590314 -0.550508 -0.590314
vn -0.497455 -0.710694 -0.497447
vn -0.691092 -0.722767 0.000004
vn -0.825885 -0.563839 0.000002
vn -0.590321 -0.550501 0.590313
vn -0.497460 -0.710694 0.497442
vn 0.000007 -0.722775 0.691083
vn 0.000008 -0.563808 0.825906
vn 0.590329 -0.550458 0.590344
vn 0.497452 -0.710685 0.497462
vn 0.691079 -0.722780 0.000002
vn 0.825911 -0.563801 0.000000
vn 0.000002 0.753083 -0.657926
vn 0.474318 0.741643 -0.474329
vn -0.474318 0.741648 -0.474320
vn -0.657923 0.753085 0.000002
vn -0.474323 0.741644 0.474322
vn -0.000002 0.753082 0.657926
vn 0.474322 0.741642 0.474327
vn 0.657923 0.753085 0.000004
vn -0.000017 0.927085 -0.374851
vn 0.273024 0.922461 -0.272992
vn -0.273036 0.922445 -0.273032
vn -0.374850 0.927086 0.000002
vn -0.273034 0.922449 0.273022
vn -0.000010 0.927085 0.374851
vn 0.273024 0.922459 0.272995
vn 0.374830 0.927094 -0.000002
vn -0.704241 -0.709961 -0.000000
vn 0.000002 0.779660 -0.626203
vn -0.452606 0.768304 -0.452610
vn -0.452830 0.768344 0.452319
vn 0.000209 0.779883 0.625925
vn 0.452647 0.768260 0.452645
vn 0.626251 0.779622 -0.000000
vn 0.452643 0.768267 -0.452638
vn -0.626418 0.779487 0.000169
vn 0.788499 -0.615036 -0.000000
vn 0.982652 -0.185461 -0.000000
vn 0.695638 -0.179324 -0.695652
vn 0.564756 -0.601738 -0.564767
vn 0.695638 -0.179335 0.695648
vn 0.564755 -0.601743 0.564764
vn -0.695673 -0.179281 0.695628
vn 0.000006 -0.185424 0.982659
vn 0.000003 -0.615022 0.788510
vn -0.564781 -0.601729 0.564752
vn -0.695672 -0.179270 -0.695631
vn -0.982670 -0.185364 -0.000000
vn -0.788533 -0.614992 -0.000000
vn -0.564782 -0.601724 -0.564756
vn 0.000006 -0.185399 -0.982663
vn 0.000003 -0.615013 -0.788517
vn 0.625126 -0.780524 -0.000001
vn 0.451346 -0.769779 -0.451361
vn 0.451339 -0.769787 0.451354
vn -0.000007 -0.780497 0.625159
vn -0.451376 -0.769756 0.451371
vn -0.625184 -0.780477 -0.000000
vn -0.451372 -0.769761 -0.451366
vn -0.000002 -0.780497 -0.625159
vn 0.914021 -0.405667 -0.000001
vn 0.649899 -0.394011 -0.649912
vn 0.649895 -0.394028 0.649907
vn -0.000010 -0.405661 0.914023
vn -0.649908 -0.394001 0.649910
vn -0.914029 -0.405648 -0.000000
vn -0.649906 -0.394010 -0.649906
vn -0.000005 -0.405663 -0.914023
vn 0.999948 -0.010196 -0.000000
vn 0.707077 -0.009848 -0.707068
vn 0.707077 -0.009853 0.707068
vn -0.000007 -0.010208 0.999948
vn -0.707070 -0.009888 0.707074
vn -0.999948 -0.010245 0.000000
vn -0.707070 -0.009877 -0.707075
vn -0.000007 -0.010208 -0.999948
vn 0.976888 0.213752 -0.000001
vn 0.691829 0.206806 -0.691812
vn 0.691829 0.206806 0.691812
vn -0.000005 0.213787 0.976880
vn -0.691819 0.206820 0.691818
vn -0.976877 0.213802 0.000000
vn -0.691817 0.206836 -0.691815
vn -0.000005 0.213792 -0.976879
vn 0.676585 0.290666 -0.676569
vn 0.953937 0.300006 -0.000001
vn 0.676584 0.290669 0.676569
vn -0.000003 0.300016 0.953934
vn -0.676571 0.290706 0.676566
vn -0.953914 0.300079 -0.000001
vn -0.676570 0.290716 -0.676563
vn -0.000002 0.300026 -0.953931
vn 0.974446 -0.224620 0.000015
vn -0.083706 -0.996490 0.000022
vn -0.061317 -0.996231 0.061357
vn 0.690218 -0.217415 -0.690166
vn -0.061251 -0.996239 -0.061292
vn 0.690232 -0.217307 0.690187
vn 0.000040 -0.996478 -0.083851
vn 0.000029 -0.224717 0.974424
vn 0.061462 -0.996217 -0.061427
vn -0.690160 -0.217523 0.690190
vn 0.084041 -0.996462 0.000016
vn -0.974388 -0.224874 0.000011
vn 0.061496 -0.996214 0.061442
vn -0.690147 -0.217567 -0.690190
vn 0.000016 -0.996475 0.083896
vn 0.000008 -0.224754 -0.974415
vn 0.990878 0.134766 -0.000005
vn 0.701099 0.130242 -0.701068
vn 0.701099 0.130188 0.701079
vn -0.000005 0.134701 0.990886
vn -0.701074 0.130285 0.701086
vn -0.990865 0.134856 -0.000000
vn -0.701075 0.130277 -0.701086
vn -0.000006 0.134717 -0.990884
vn 0.933299 -0.359099 0.000018
vn 0.840724 -0.541464 0.000011
vn 0.600386 -0.528284 -0.600378
vn 0.662806 -0.348372 -0.662816
vn 0.600378 -0.528318 0.600356
vn 0.662814 -0.348380 0.662804
vn -0.000015 -0.541567 0.840658
vn -0.000013 -0.359111 0.933295
vn -0.600374 -0.528283 0.600391
vn -0.662796 -0.348385 0.662819
vn -0.840698 -0.541505 -0.000006
vn -0.933294 -0.359113 -0.000007
vn -0.600385 -0.528276 -0.600385
vn -0.662810 -0.348371 -0.662813
vn -0.000004 -0.541567 -0.840657
vn -0.000002 -0.359097 -0.933300
vn 0.807060 0.590470 0.000003
vn 0.577452 0.577145 -0.577453
vn 0.577463 0.577123 0.577464
vn 0.000000 0.590475 0.807056
vn -0.577455 0.577139 0.577456
vn -0.807049 0.590485 0.000001
vn -0.577453 0.577142 -0.577456
vn -0.000002 0.590483 -0.807050
vn 0.878735 0.477310 0.000001
vn 0.626148 0.464610 -0.626161
vn 0.626146 0.464612 0.626160
vn -0.000002 0.477345 0.878716
vn -0.626148 0.464633 0.626143
vn -0.878729 0.477322 0.000001
vn -0.626147 0.464632 -0.626144
vn -0.000004 0.477347 -0.878715
vn 0.871614 -0.490193 0.000005
vn 0.621337 -0.477334 -0.621363
vn 0.621343 -0.477323 0.621366
vn 0.000002 -0.490179 0.871622
vn -0.621349 -0.477347 0.621342
vn -0.871600 -0.490217 0.000007
vn -0.621343 -0.477351 -0.621345
vn -0.000000 -0.490168 -0.871628
vn 0.991605 0.129301 0.000008
vn 0.701546 0.124951 -0.701584
vn 0.701545 0.124957 0.701585
vn 0.000018 0.129272 0.991609
vn -0.701569 0.124936 0.701564
vn -0.991611 0.129259 0.000013
vn -0.701563 0.124927 -0.701572
vn 0.000010 0.129282 -0.991608
vn 0.220247 0.975444 -0.000000
vn 0.160957 0.973747 -0.160963
vn 0.160958 0.973746 0.160967
vn 0.000001 0.975440 0.220267
vn -0.160966 0.973745 0.160966
vn -0.220261 0.975441 0.000003
vn -0.160964 0.973745 -0.160968
vn -0.000003 0.975439 -0.220268
vn -0.000006 1.000000 -0.000001
vn -0.321735 -0.890491 -0.321733
vn -0.442578 -0.896730 -0.000001
vn 0.000002 -0.896728 -0.442583
vn 0.321741 -0.890489 -0.321732
vn 0.442592 -0.896723 0.000001
vn 0.321744 -0.890488 0.321734
vn 0.000002 -0.896727 0.442583
vn -0.321735 -0.890491 0.321733
vn 0.000000 -1.000000 0.000000
vn -0.387694 -0.889136 0.243169
vn -0.575187 -0.421394 -0.701133
vn -0.163812 -0.518311 -0.839356
vn -0.226432 -0.970097 0.087406
vn -0.573630 -0.693687 0.435600
vn -0.919168 -0.157810 -0.360869
vn -0.596724 -0.542416 0.591359
vn -0.986726 0.002117 -0.162380
vn -0.453511 -0.343456 0.822414
vn -0.967879 0.202109 0.149539
vn -0.261750 -0.144744 0.954220
vn -0.162660 -0.015854 0.986555
vn -0.702546 0.580297 0.411928
vn -0.838128 0.406039 0.364246
vn 0.378913 0.893527 -0.240905
vn 0.378913 0.893527 -0.240905
vn 0.186542 0.978251 -0.090702
vn 0.186542 0.978251 -0.090702
vn 0.594669 0.684586 -0.421558
vn 0.594669 0.684586 -0.421558
vn 0.640537 0.520364 -0.564741
vn 0.640537 0.520364 -0.564741
vn 0.489728 0.324647 -0.809179
vn 0.489728 0.324647 -0.809179
vn 0.144279 0.021540 -0.989303
vn 0.144279 0.021540 -0.989303
vn 0.260741 0.148207 -0.953965
vn 0.260741 0.148207 -0.953965
vn 0.253446 0.292873 0.921949
vn 0.528556 0.323497 0.784843
vn 0.405669 0.913948 -0.011511
vn -0.028921 0.968393 0.247749
vn 0.291508 -0.630080 0.719738
vn 0.144470 -0.562046 0.814391
vn -0.256314 -0.260649 -0.930787
vn -0.529756 -0.303416 -0.792021
vn -0.529756 -0.303416 -0.792021
vn -0.256314 -0.260649 -0.930787
vn -0.011971 0.142246 0.989759
vn -0.462664 0.794969 0.392385
vn -0.006593 -0.119450 -0.992818
vn -0.006593 -0.119450 -0.992818
vn 0.441186 -0.632514 0.636617
vn 0.531317 -0.593299 0.604730
vn 0.565436 -0.551484 0.613309
vn 0.382437 -0.541506 0.748674
vn 0.492647 -0.543167 0.679903
vn 0.359501 -0.513151 0.779382
vn 0.166231 -0.449085 0.877890
vn -0.047467 -0.386867 0.920913
vn 0.508361 -0.859004 -0.060676
vn 0.228364 -0.969252 -0.091660
vn -0.000458 -0.430542 -0.902570
vn 0.304029 -0.280842 -0.910326
vn -0.501330 0.864278 0.041137
vn -0.206567 0.977144 0.050206
vn -0.206567 0.977144 0.050206
vn -0.501330 0.864278 0.041137
vn 0.228789 -0.538571 0.810923
vn 0.204006 -0.564354 0.799929
vn 0.783115 -0.621659 0.016445
vn 0.187770 -0.562495 0.805196
vn -0.790014 0.613079 -0.003416
vn -0.790014 0.613079 -0.003416
vn 0.610204 -0.070624 -0.789090
vn 0.208395 -0.497390 0.842125
vn 0.896729 -0.419255 0.141786
vn -0.902118 0.413413 -0.123586
vn -0.902118 0.413413 -0.123586
vn 0.705110 0.074017 -0.705224
vn 0.092666 -0.475442 0.874853
vn 0.721487 0.253985 0.644165
vn -0.713926 -0.252630 -0.653060
vn -0.713926 -0.252630 -0.653060
vn 0.635848 0.736333 -0.231324
vn 0.124150 -0.435271 0.891698
vn 0.847644 0.133947 0.513379
vn -0.840553 -0.138183 -0.523809
vn -0.840553 -0.138183 -0.523809
vn 0.726886 0.571931 -0.380173
vn 0.182631 -0.435684 0.881377
vn 0.929569 -0.034503 0.367030
vn -0.929105 0.036188 -0.368042
vn -0.929105 0.036188 -0.368042
vn 0.755434 0.403605 -0.516161
vn 0.214142 -0.449841 0.867056
vn 0.946891 -0.197167 0.254015
vn -0.949497 0.192994 -0.247405
vn -0.949497 0.192994 -0.247405
vn 0.752664 0.249358 -0.609358
vn 0.404413 -0.889156 0.214131
vn -0.319634 -0.421409 0.848675
vn -0.644988 -0.518404 0.561469
vn 0.189016 -0.970094 0.152286
vn 0.664034 -0.693711 0.278969
vn 0.147084 -0.157772 0.976460
vn 0.810468 -0.542457 0.221092
vn 0.352821 0.002115 0.935688
vn 0.938955 -0.343546 -0.018411
vn 0.613460 0.202087 0.763432
vn 0.957244 -0.144754 -0.250462
vn 0.935698 -0.015894 -0.352443
vn 0.708087 0.580258 0.402384
vn 0.734530 0.406001 0.543718
vn -0.398103 0.893519 -0.207697
vn -0.398103 0.893519 -0.207697
vn -0.171820 0.978251 -0.116205
vn -0.171820 0.978251 -0.116205
vn -0.662448 0.684538 -0.304253
vn -0.662448 0.684538 -0.304253
vn -0.809399 0.520247 -0.272427
vn -0.809399 0.520247 -0.272427
vn -0.945624 0.324669 -0.019641
vn -0.945624 0.324669 -0.019641
vn -0.928933 0.021510 0.369622
vn -0.928933 0.021510 0.369622
vn -0.956561 0.148246 0.251025
vn -0.956561 0.148246 0.251025
vn 0.671730 0.292882 -0.680441
vn 0.415410 0.323543 -0.850150
vn -0.212804 0.913955 -0.345545
vn 0.229035 0.968389 -0.098827
vn 0.477598 -0.630040 -0.612331
vn 0.633061 -0.561999 -0.532345
vn -0.677938 -0.260634 0.687365
vn -0.420981 -0.303508 0.854785
vn -0.420981 -0.303508 0.854785
vn -0.677938 -0.260634 0.687365
vn 0.863172 0.142208 -0.484470
vn 0.571207 0.794937 0.204444
vn -0.856524 -0.119383 0.502110
vn -0.856524 -0.119383 0.502110
vn 0.330803 -0.632509 -0.700359
vn 0.258057 -0.593304 -0.762494
vn 0.248386 -0.551455 -0.796368
vn 0.457116 -0.541592 -0.705495
vn 0.342452 -0.543246 -0.766557
vn 0.495151 -0.513191 -0.701042
vn 0.677151 -0.449056 -0.582937
vn 0.821337 -0.386677 -0.419389
vn -0.306791 -0.858998 -0.409879
vn -0.193637 -0.969241 -0.151907
vn -0.781418 -0.430507 0.451720
vn -0.940381 -0.280757 0.191990
vn 0.286307 0.864313 0.413512
vn 0.146883 0.977115 0.153855
vn 0.146883 0.977115 0.153855
vn 0.286307 0.864313 0.413512
vn 0.587798 -0.538650 -0.603614
vn 0.590739 -0.564331 -0.576679
vn -0.377217 -0.621653 -0.686480
vn 0.603527 -0.562295 -0.565314
vn 0.392023 0.613142 0.685839
vn 0.392023 0.613142 0.685839
vn -0.988465 -0.070824 -0.133872
vn 0.625115 -0.497284 -0.601614
vn -0.325455 -0.419320 -0.847496
vn 0.343989 0.413357 0.843094
vn 0.343989 0.413357 0.843094
vn -0.963286 0.073765 -0.258143
vn 0.711295 -0.475492 -0.517656
vn 0.197134 0.253956 -0.946913
vn -0.208550 -0.252717 0.944797
vn -0.208550 -0.252717 0.944797
vn -0.518234 0.736350 -0.434997
vn 0.710181 -0.435277 -0.553333
vn 0.020858 0.133956 -0.990768
vn -0.033399 -0.138290 0.989829
vn -0.033399 -0.138290 0.989829
vn -0.692620 0.571950 -0.439488
vn 0.672006 -0.435639 -0.598854
vn -0.146883 -0.034478 -0.988553
vn 0.145739 0.036169 0.988662
vn 0.145739 0.036169 0.988662
vn -0.824720 0.403589 -0.396173
vn 0.643761 -0.449907 -0.618995
vn -0.253514 -0.197252 -0.947007
vn 0.260425 0.193071 0.945993
vn 0.260425 0.193071 0.945993
vn -0.904057 0.249323 -0.347159
vn -0.016585 -0.889136 -0.457343
vn 0.894831 -0.421344 -0.147473
vn 0.808841 -0.518233 0.277866
vn 0.037573 -0.970079 -0.239867
vn -0.090305 -0.693735 -0.714547
vn 0.772121 -0.157736 -0.615588
vn -0.213787 -0.542509 -0.812391
vn 0.633916 0.002127 -0.773399
vn -0.485513 -0.343602 -0.803875
vn 0.354383 0.202049 -0.913011
vn -0.695611 -0.144760 -0.703683
vn -0.773078 -0.016015 -0.634109
vn -0.005589 0.580169 -0.814477
vn 0.103515 0.405994 -0.907994
vn 0.019131 0.893527 0.448602
vn 0.019131 0.893527 0.448602
vn -0.014752 0.978261 0.206854
vn -0.014752 0.978261 0.206854
vn 0.067752 0.684582 0.725781
vn 0.067752 0.684582 0.725781
vn 0.168925 0.520320 0.837097
vn 0.168925 0.520320 0.837097
vn 0.456010 0.324696 0.828630
vn 0.456010 0.324696 0.828630
vn 0.784640 0.021826 0.619568
vn 0.784640 0.021826 0.619568
vn 0.695847 0.148404 0.702691
vn 0.695847 0.148404 0.702691
vn -0.925156 0.292892 -0.241457
vn -0.943986 0.323459 0.065310
vn -0.192827 0.913964 0.357054
vn -0.200107 0.968397 -0.148881
vn -0.769081 -0.630057 -0.107433
vn -0.777444 -0.562149 -0.282081
vn 0.934315 -0.260386 0.243422
vn 0.950873 -0.303158 -0.062735
vn 0.950873 -0.303158 -0.062735
vn 0.934315 -0.260386 0.243422
vn -0.851158 0.142133 -0.505300
vn -0.108515 0.794925 -0.596925
vn 0.863134 -0.119217 0.490702
vn 0.863134 -0.119217 0.490702
vn -0.771875 -0.632570 0.063756
vn -0.789312 -0.593348 0.157876
vn -0.813843 -0.551452 0.183195
vn -0.839540 -0.541595 -0.042983
vn -0.835081 -0.543226 0.086866
vn -0.854604 -0.513328 -0.078392
vn -0.843291 -0.449193 -0.295103
vn -0.773788 -0.386785 -0.501646
vn -0.201528 -0.859033 0.470584
vn -0.034870 -0.969281 0.243472
vn 0.781740 -0.430931 0.450756
vn 0.636404 -0.280768 0.718442
vn 0.214980 0.864291 -0.454737
vn 0.059787 0.977123 -0.204100
vn 0.059787 0.977123 -0.204100
vn 0.214980 0.864291 -0.454737
vn -0.816622 -0.538701 -0.207196
vn -0.794674 -0.564510 -0.223208
vn -0.405792 -0.621515 0.670113
vn -0.791215 -0.562501 -0.239940
vn 0.397939 0.613109 -0.682453
vn 0.397939 0.613109 -0.682453
vn 0.378338 -0.070385 0.922988
vn -0.833607 -0.497297 -0.240407
vn -0.571173 -0.419149 0.705744
vn 0.558085 0.413351 -0.719501
vn 0.558085 0.413351 -0.719501
vn 0.258169 0.073952 0.963265
vn -0.803927 -0.475536 -0.357164
vn -0.918604 0.254028 0.302717
vn 0.922548 -0.252603 -0.291713
vn 0.922548 -0.252603 -0.291713
vn -0.117506 0.736427 0.666234
vn -0.834392 -0.435134 -0.338301
vn -0.868429 0.134094 0.477337
vn 0.873938 -0.138304 -0.465945
vn 0.873938 -0.138304 -0.465945
vn -0.034234 0.571962 0.819566
vn -0.854705 -0.435595 -0.282375
vn -0.782607 -0.034493 0.621560
vn 0.783338 0.036157 -0.620543
vn 0.783338 0.036157 -0.620543
vn 0.069238 0.403519 0.912348
vn -0.858025 -0.449875 -0.247801
vn -0.693312 -0.197215 0.693127
vn 0.688990 0.193053 -0.698587
vn 0.688990 0.193053 -0.698587
vn 0.151377 0.249287 0.956526
s 1
g polySurface4030
f 21/1/1 41/2/2 42/3/3 12/4/4
f 12/4/4 14/5/5 22/6/6 21/1/1
f 15/7/7 18/8/8 30/9/9 29/10/10
f 18/8/8 42/3/3 41/2/2 30/9/9
f 20/11/11 15/7/7 29/10/10 28/12/12
s 2
f 7/13/13 24/14/14 23/15/15 6/16/16
f 9/17/17 26/18/18 25/19/19 8/20/20
f 8/20/20 25/19/19 45/21/21 44/22/22
f 9/17/17 10/23/23 27/24/24 26/18/18
s 1
f 11/25/25 48/26/26 41/2/2 21/1/1
f 22/6/6 13/27/27 11/25/25 21/1/1
s 2
f 24/14/14 4/28/28 5/29/29 23/15/15
f 25/19/19 3/30/30 46/31/31 45/21/21
f 26/18/18 2/32/32 3/30/30 25/19/19
f 26/18/18 27/24/24 1/33/33 2/32/32
s 1
f 28/12/12 29/10/10 16/34/34 19/35/35
f 30/9/9 17/36/36 16/34/34 29/10/10
f 30/9/9 41/2/2 48/26/26 17/36/36
s 3
f 31/37/37 47/38/38 48/26/39 11/25/40
f 4/28/41 31/37/42 32/39/43 5/29/44
f 5/29/44 32/39/43 13/27/45
f 13/27/45 32/39/43 31/37/37 11/25/40
f 2/32/46 33/40/47 34/41/48 3/30/49
f 17/36/50 34/41/51 33/40/52 16/34/53
f 47/38/38 34/41/51 17/36/50 48/26/39
f 47/38/54 46/31/55 3/30/49 34/41/48
f 35/42/56 33/40/47 2/32/46 1/33/57
f 19/35/58 35/42/56 1/33/57
f 35/42/56 19/35/58 16/34/53 33/40/52
s 4
f 36/43/59 43/44/60 44/22/61 7/13/62
f 6/16/63 37/45/64 36/43/59 7/13/62
f 12/4/65 36/43/66 37/45/64 14/5/67
f 14/5/67 37/45/64 6/16/63
f 8/20/68 38/46/69 39/47/70 9/17/71
f 15/7/72 39/47/70 38/46/73 18/8/74
f 38/46/69 8/20/68 44/22/61 43/44/60
f 38/46/73 43/44/75 42/3/76 18/8/74
f 10/23/77 40/48/78 20/11/79
f 40/48/78 39/47/70 15/7/72 20/11/79
f 40/48/78 10/23/77 9/17/71 39/47/70
f 36/43/66 12/4/65 42/3/76 43/44/75
s 2
f 24/14/14 7/13/13 44/22/22 45/21/21
f 4/28/28 24/14/14 45/21/21 46/31/31
s 3
f 31/37/42 4/28/41 46/31/55 47/38/54
s 5
f 49/49/80 50/50/81 58/51/82 57/52/83
f 50/50/81 51/53/84 59/54/85 58/51/82
f 51/55/84 52/56/86 60/57/87 59/58/85
f 52/56/86 53/59/88 61/60/89 60/57/87
f 53/59/88 54/61/90 62/62/91 61/60/89
f 54/61/90 55/63/92 63/64/93 62/62/91
f 55/63/92 56/65/94 64/66/95 63/64/93
f 56/65/94 49/49/80 57/52/83 64/66/95
f 81/67/96 77/68/97 78/69/98
f 57/52/83 58/51/82 66/70/99 65/71/100
f 58/51/82 59/54/85 67/72/101 66/70/99
f 59/58/85 60/57/87 68/73/102 67/74/101
f 60/57/87 61/60/89 69/75/103 68/73/102
f 61/60/89 62/62/91 70/76/104 69/75/103
f 62/62/91 63/64/93 71/77/105 70/76/104
f 63/64/93 64/66/95 72/78/106 71/77/105
f 64/66/95 57/52/83 65/71/100 72/78/106
f 65/71/100 66/70/99 74/79/107 73/80/108
f 66/70/99 67/72/101 75/81/109 74/79/107
f 67/74/101 68/73/102 76/82/110 75/83/109
f 68/73/102 69/75/103 77/84/97 76/82/110
f 69/75/103 70/76/104 78/85/98 77/84/97
f 70/76/104 71/77/105 79/86/111 78/85/98
f 71/77/105 72/78/106 80/87/112 79/86/111
f 72/78/106 65/71/100 73/80/108 80/87/112
f 81/67/96 74/88/107 75/89/109
f 80/90/112 81/67/96 79/91/111
f 73/92/108 81/67/96 80/90/112
f 73/92/108 74/88/107 81/67/96
f 81/67/96 76/93/110 77/68/97
f 81/67/96 75/89/109 76/93/110
f 79/91/111 81/67/96 78/69/98
s 6
f 90/94/113 93/95/114 92/96/115 91/97/116
f 92/96/115 95/98/117 94/99/118 91/97/116
f 95/98/117 97/100/119 96/101/120 94/99/118
f 97/100/119 135/102/121 134/103/122 96/101/120
f 118/104/123 122/105/124 123/106/125 119/107/126
f 126/108/127 130/109/128 131/110/129 127/111/130
f 122/105/124 126/108/127 127/111/130 123/106/125
f 82/112/131 83/113/132 88/114/133 89/115/134
f 88/114/133 83/113/132 84/116/135 87/117/136
f 87/117/136 84/116/135 85/118/137 86/119/138
f 86/119/138 85/118/137 137/120/139 136/121/140
f 136/121/140 137/120/139 133/122/141 132/123/142
f 120/124/143 121/125/144 117/126/145 116/127/146
s 7
f 82/128/147 90/94/148 91/97/149 83/129/150
s 6
f 88/130/133 92/96/115 93/95/114 89/131/134
s 7
f 83/129/150 91/97/149 94/99/151 84/132/152
s 6
f 87/133/136 95/98/117 92/96/115 88/130/133
s 7
f 84/132/152 94/99/151 96/101/153 85/134/154
s 6
f 86/135/138 97/100/119 95/98/117 87/133/136
s 7
f 85/134/154 96/101/153 134/103/155 137/136/156
s 6
f 136/137/140 135/102/121 97/100/119 86/135/138
f 123/106/125 124/138/157 120/139/143 119/107/126
f 135/102/121 136/137/140 132/140/142 131/110/129
f 131/110/129 132/140/142 128/141/158 127/111/130
f 127/111/130 128/141/158 124/138/157 123/106/125
f 119/107/126 120/139/143 116/142/146 115/143/159
f 98/144/160 99/145/161 100/146/162 101/147/163
f 100/146/162 99/145/161 102/148/164 103/149/165
f 103/149/165 102/148/164 104/150/166 105/151/167
f 105/151/167 104/150/166 138/152/168 141/153/169
f 141/153/169 138/152/168 142/154/170 145/155/171
f 157/156/172 154/157/173 158/158/174 161/159/175
f 106/160/176 107/161/177 108/162/178 109/163/179
f 108/162/178 110/164/180 111/165/181 109/163/179
f 110/164/180 112/166/182 113/167/183 111/165/181
f 112/166/182 140/168/184 139/169/185 113/167/183
f 155/170/186 151/171/187 152/172/188 156/173/189
f 147/174/190 143/175/191 144/176/192 148/177/193
f 151/171/187 147/174/190 148/177/193 152/172/188
s 7
f 106/178/194 109/179/195 99/145/196 98/144/197
s 6
f 108/180/178 107/181/177 101/147/163 100/146/162
s 7
f 109/179/195 111/182/198 102/148/199 99/145/196
s 6
f 110/183/180 108/180/178 100/146/162 103/149/165
s 7
f 111/182/198 113/184/200 104/150/201 102/148/199
s 6
f 112/185/182 110/183/180 103/149/165 105/151/167
s 7
f 113/184/200 139/186/202 138/152/203 104/150/201
s 6
f 140/187/184 112/185/182 105/151/167 141/153/169
s 7
f 154/157/204 150/188/205 151/189/206 155/190/207
f 142/154/208 138/152/203 139/186/202 143/191/209
f 146/192/210 142/154/208 143/191/209 147/193/211
f 150/188/205 146/192/210 147/193/211 151/189/206
f 158/158/212 154/157/204 155/190/207 159/194/213
s 6
f 115/195/159 161/196/175 158/197/174 114/198/214
s 7
f 114/199/215 158/200/212 159/201/213 117/202/216
s 6
f 119/107/126 115/143/159 114/203/214 118/104/123
s 7
f 114/203/215 117/204/216 121/205/217 118/104/218
s 6
f 121/125/144 120/124/143 124/206/157 125/207/219
s 7
f 118/104/218 121/205/217 125/208/220 122/105/221
s 6
f 125/207/219 124/206/157 128/209/158 129/210/222
s 7
f 122/105/221 125/208/220 129/211/223 126/108/224
s 6
f 129/210/222 128/209/158 132/123/142 133/122/141
s 7
f 126/108/224 129/211/223 133/212/225 130/109/226
s 6
f 135/102/121 131/110/129 130/109/128 134/103/122
s 7
f 130/109/226 133/212/225 137/136/156 134/103/155
s 6
f 140/168/184 144/176/192 143/175/191 139/169/185
f 141/153/169 145/155/171 144/213/192 140/187/184
f 145/155/171 149/214/227 148/215/193 144/213/192
f 146/192/228 149/214/227 145/155/171 142/154/170
f 149/214/227 153/216/229 152/217/188 148/215/193
f 150/188/230 153/216/229 149/214/227 146/192/228
f 153/216/229 157/156/172 156/218/189 152/217/188
f 154/157/173 157/156/172 153/216/229 150/188/230
f 156/173/189 160/219/231 159/220/232 155/170/186
f 157/156/172 161/159/175 160/221/231 156/218/189
f 116/222/146 117/223/145 159/224/232 160/225/231
f 115/226/159 116/227/146 160/228/231 161/229/175
s 8
f 182/230/233 173/231/234 203/232/235 202/233/236
f 173/231/234 182/230/233 183/234/237 175/235/238
f 176/236/239 190/237/240 191/238/241 179/239/242
f 179/239/242 191/238/241 202/233/236 203/232/235
f 181/240/243 189/241/244 190/237/240 176/236/239
s 9
f 168/242/245 167/243/246 184/244/247 185/245/248
f 170/246/249 169/247/250 186/248/251 187/249/252
f 169/247/250 205/250/253 206/251/254 186/248/251
f 170/246/249 187/249/252 188/252/255 171/253/256
s 8
f 172/254/257 182/230/233 202/233/236 209/255/258
f 183/234/237 182/230/233 172/254/257 174/256/259
s 9
f 185/245/248 184/244/247 166/257/260 165/258/261
f 186/248/251 206/251/254 207/259/262 164/260/263
f 187/249/252 186/248/251 164/260/263 163/261/264
f 187/249/252 163/261/264 162/262/265 188/252/255
s 8
f 189/241/244 180/263/266 177/264/267 190/237/240
f 191/238/241 190/237/240 177/264/267 178/265/268
f 191/238/241 178/265/268 209/255/258 202/233/236
s 10
f 192/266/269 172/254/270 209/255/271 208/267/272
f 165/258/273 166/257/274 193/268/275 192/266/276
f 166/257/274 174/256/277 193/268/275
f 174/256/277 172/254/270 192/266/269 193/268/275
f 163/261/278 164/260/279 195/269/280 194/270/281
f 178/265/282 177/264/283 194/270/284 195/269/285
f 208/267/272 209/255/271 178/265/282 195/269/285
f 208/267/286 195/269/280 164/260/279 207/259/287
f 196/271/288 162/262/289 163/261/278 194/270/281
f 180/263/290 162/262/289 196/271/288
f 196/271/288 194/270/284 177/264/283 180/263/290
s 11
f 197/272/291 168/242/292 205/250/293 204/273/294
f 167/243/295 168/242/292 197/272/291 198/274/296
f 173/231/297 175/235/298 198/274/296 197/272/299
f 175/235/298 167/243/295 198/274/296
f 169/247/300 170/246/301 200/275/302 199/276/303
f 176/236/304 179/239/305 199/276/306 200/275/302
f 199/276/303 204/273/294 205/250/293 169/247/300
f 199/276/306 179/239/305 203/232/307 204/273/308
f 171/253/309 181/240/310 201/277/311
f 201/277/311 181/240/310 176/236/304 200/275/302
f 201/277/311 200/275/302 170/246/301 171/253/309
f 197/272/299 204/273/308 203/232/307 173/231/297
s 9
f 185/245/248 206/251/254 205/250/253 168/242/245
f 165/258/261 207/259/262 206/251/254 185/245/248
s 10
f 192/266/276 208/267/286 207/259/287 165/258/273
s 12
f 269/278/312 270/279/313 210/280/314 214/281/315
f 214/282/315 210/283/314 280/284/316 279/285/317
f 279/285/317 280/284/316 211/286/318 215/287/319
f 215/287/319 211/286/318 290/288/320 289/289/321
f 289/289/321 290/288/320 212/290/322 216/291/323
f 216/291/323 212/290/322 260/292/324 259/293/325
f 259/293/325 260/292/324 213/294/326 217/295/327
f 217/295/327 213/294/326 270/279/313 269/278/312
f 299/296/328 300/297/329 301/298/330
f 303/299/331 302/300/332 299/296/328
f 305/301/333 304/302/334 299/296/328
f 299/296/328 306/303/335 305/301/333
f 242/304/336 243/305/337 271/306/338 244/307/339
f 242/304/336 244/307/339 281/308/340 245/309/341
f 242/304/336 245/309/341 251/310/342 246/311/343
f 242/304/336 246/311/343 261/312/344 243/305/337
f 218/313/345 217/295/327 269/278/312 268/314/346
f 268/314/346 269/278/312 214/281/315 221/315/347
f 221/316/347 214/282/315 279/285/317 278/317/348
f 278/317/348 279/285/317 215/287/319 223/318/349
f 223/318/349 215/287/319 289/289/321 288/319/350
f 288/319/350 289/289/321 216/291/323 225/320/351
f 225/320/351 216/291/323 259/293/325 258/321/352
f 258/321/352 259/293/325 217/295/327 218/313/345
f 220/322/353 267/323/354 268/314/346 221/315/347
f 258/321/352 218/313/345 219/324/355 257/325/356
f 220/326/353 221/316/347 278/317/348 277/327/357
f 222/328/358 277/327/357 278/317/348 223/318/349
f 222/328/358 223/318/349 288/319/350 287/329/359
f 224/330/360 287/329/359 288/319/350 225/320/351
f 224/330/360 225/320/351 258/321/352 257/325/356
f 249/331/361 266/332/362 267/323/354 220/322/353
f 249/333/361 220/326/353 277/327/357 276/334/363
f 248/335/364 276/334/363 277/327/357 222/328/358
f 248/335/364 222/328/358 287/329/359 286/336/365
f 247/337/366 286/336/365 287/329/359 224/330/360
f 247/337/366 224/330/360 257/325/356 256/338/367
f 250/339/368 256/338/367 257/325/356 219/324/355
f 250/339/368 219/324/355 267/323/354 266/332/362
f 230/340/369 264/341/370 265/342/371 226/343/372
f 230/344/369 226/345/372 275/346/373 274/347/374
f 231/348/375 274/347/374 275/346/373 227/349/376
f 231/348/375 227/349/376 285/350/377 284/351/378
f 232/352/379 284/351/378 285/350/377 228/353/380
f 232/352/379 228/353/380 255/354/381 254/355/382
f 233/356/383 254/355/382 255/354/381 229/357/384
f 233/356/383 229/357/384 265/342/371 264/341/370
f 234/358/385 263/359/386 264/341/370 230/340/369
f 234/360/385 230/344/369 274/347/374 273/361/387
f 235/362/388 273/361/387 274/347/374 231/348/375
f 235/362/388 231/348/375 284/351/378 283/363/389
f 236/364/390 283/363/389 284/351/378 232/352/379
f 236/364/390 232/352/379 254/355/382 253/365/391
f 237/366/392 253/365/391 254/355/382 233/356/383
f 237/366/392 233/356/383 264/341/370 263/359/386
f 238/367/393 262/368/394 263/369/386 234/370/385
f 238/367/393 234/370/385 273/371/387 272/372/395
f 239/373/396 272/372/395 273/371/387 235/374/388
f 239/373/396 235/374/388 283/375/389 282/376/397
f 240/377/398 282/376/397 283/375/389 236/378/390
f 240/377/398 236/378/390 253/379/391 252/380/399
f 241/381/400 252/380/399 253/379/391 237/382/392
f 241/381/400 237/382/392 263/369/386 262/368/394
f 243/305/337 261/312/344 262/368/394 238/367/393
f 243/305/337 238/367/393 272/372/395 271/306/338
f 244/307/339 271/306/338 272/372/395 239/373/396
f 244/307/339 239/373/396 282/376/397 281/308/340
f 245/309/341 281/308/340 282/376/397 240/377/398
f 245/309/341 240/377/398 252/380/399 251/310/342
f 246/311/343 251/310/342 252/380/399 241/381/400
f 261/312/344 246/311/343 241/381/400 262/368/394
f 255/354/381 228/353/380 247/337/366 256/338/367
f 228/353/380 285/350/377 286/336/365 247/337/366
f 285/350/377 227/349/376 248/335/364 286/336/365
f 227/349/376 275/346/373 276/334/363 248/335/364
f 275/346/373 226/345/372 249/333/361 276/334/363
f 226/343/372 265/342/371 266/332/362 249/331/361
f 265/342/371 229/357/384 250/339/368 266/332/362
f 229/357/384 255/354/381 256/338/367 250/339/368
f 218/313/345 268/314/346 267/323/354 219/324/355
f 299/296/328 302/300/332 307/383/401
f 301/298/330 306/303/335 299/296/328
f 299/296/328 304/302/334 303/299/331
f 307/383/401 300/297/329 299/296/328
f 280/284/316 210/283/314 292/384/402 291/385/403
f 212/290/322 290/288/320 293/386/404 294/387/405
f 213/294/326 260/292/324 295/388/406 296/389/407
f 270/279/313 213/294/326 296/389/407 297/390/408
f 290/288/320 211/286/318 298/391/409 293/386/404
f 210/280/314 270/279/313 297/390/408 292/392/402
f 260/292/324 212/290/322 294/387/405 295/388/406
f 211/286/318 280/284/316 291/385/403 298/391/409
f 291/385/403 292/384/402 301/393/330 300/394/329
f 294/387/405 293/386/404 302/395/332 303/396/331
f 296/389/407 295/388/406 304/397/334 305/398/333
f 297/390/408 296/389/407 305/398/333 306/399/335
f 293/386/404 298/391/409 307/400/401 302/395/332
f 292/392/402 297/390/408 306/399/335 301/401/330
f 295/388/406 294/387/405 303/396/331 304/397/334
f 298/391/409 291/385/403 300/394/329 307/400/401
s 13
f 312/402/410 308/403/411 356/404/412 355/405/413
f 342/406/414 308/403/411 312/402/410 341/407/415
f 349/408/416 309/409/417 313/410/418 348/411/419
f 363/412/420 310/413/421 314/414/422 362/415/423
f 356/404/412 311/416/424 315/417/425 355/405/413
f 316/418/426 312/402/410 355/405/413 354/419/427
f 341/407/415 312/402/410 316/418/426 340/420/428
f 348/411/419 313/410/418 317/421/429 347/422/430
f 314/414/422 318/423/431 361/424/432 362/415/423
f 355/405/413 315/417/425 319/425/433 354/419/427
f 320/426/434 316/418/426 354/419/427 353/427/435
f 340/420/428 316/418/426 320/426/434 339/428/436
f 347/422/430 317/421/429 321/429/437 346/430/438
f 318/423/431 322/431/439 360/432/440 361/424/432
f 354/419/427 319/425/433 323/433/441 353/427/435
f 324/434/442 320/426/434 353/427/435 352/435/443
f 339/428/436 320/426/434 324/434/442 338/436/444
f 346/430/438 321/429/437 325/437/445 345/438/446
f 322/431/439 326/439/447 359/440/448 360/432/440
f 353/427/435 323/433/441 327/441/449 352/435/443
f 328/442/450 324/434/442 352/435/443 351/443/451
f 338/436/444 324/434/442 328/442/450 337/444/452
f 345/438/446 325/437/445 329/445/453 344/446/454
f 326/439/447 330/447/455 358/448/456 359/440/448
f 352/435/443 327/441/449 331/449/457 351/443/451
f 350/450/458 332/451/459 328/442/450 351/443/451
f 337/444/452 328/442/450 332/451/459 336/452/460
f 344/446/454 329/445/453 333/453/461 343/454/462
f 330/447/455 334/455/463 357/456/464 358/448/456
f 351/443/451 331/449/457 335/457/465 350/450/458
f 329/445/453 337/444/452 336/452/460 333/453/461
f 325/437/445 338/436/444 337/444/452 329/445/453
f 321/429/437 339/428/436 338/436/444 325/437/445
f 317/421/429 340/420/428 339/428/436 321/429/437
f 313/410/418 341/407/415 340/420/428 317/421/429
f 309/409/417 342/406/414 341/407/415 313/410/418
f 330/447/455 344/446/454 343/454/462 334/455/463
f 326/439/447 345/438/446 344/446/454 330/447/455
f 322/431/439 346/430/438 345/438/446 326/439/447
f 318/423/431 347/422/430 346/430/438 322/431/439
f 314/414/422 348/411/419 347/422/430 318/423/431
f 310/413/421 349/408/416 348/411/419 314/414/422
f 331/458/457 358/448/456 357/456/464 335/459/465
f 327/460/449 359/440/448 358/448/456 331/458/457
f 323/461/441 360/432/440 359/440/448 327/460/449
f 319/462/433 361/424/432 360/432/440 323/461/441
f 315/463/425 362/415/423 361/424/432 319/462/433
f 311/464/424 363/412/420 362/415/423 315/463/425
s 14
f 368/465/466 364/466/467 427/467/468 426/468/469
f 401/469/470 364/466/467 368/465/466 402/470/471
f 365/471/472 401/469/470 402/470/471 369/472/473
f 410/473/474 365/471/472 369/472/473 411/474/475
f 366/475/476 410/473/474 411/474/475 370/476/477
f 436/477/478 366/475/476 370/476/477 435/478/479
f 427/467/468 367/479/480 371/480/481 426/468/469
f 453/481/482 368/465/466 426/468/469 452/482/483
f 402/470/471 368/465/466 453/481/482 446/483/484
f 369/472/473 402/470/471 446/483/484 447/484/485
f 411/474/475 369/472/473 447/484/485 448/485/486
f 370/476/477 411/474/475 448/485/486 449/486/487
f 435/478/479 370/476/477 449/486/487 450/487/488
f 426/468/469 371/480/481 451/488/489 452/482/483
f 376/489/490 372/490/491 425/491/492 424/492/493
f 403/493/494 372/490/491 376/489/490 404/494/495
f 373/495/496 403/493/494 404/494/495 377/496/497
f 412/497/498 373/495/496 377/496/497 413/498/499
f 374/499/500 412/497/498 413/498/499 378/500/501
f 434/501/502 374/499/500 378/500/501 433/502/503
f 425/491/492 375/503/504 379/504/505 424/492/493
f 397/505/506 376/489/490 424/492/493 423/506/507
f 404/494/495 376/489/490 397/505/506 405/507/508
f 377/496/497 404/494/495 405/507/508 400/508/509
f 413/498/499 377/496/497 400/508/509 414/509/510
f 378/500/501 413/498/499 414/509/510 399/510/511
f 433/502/503 378/500/501 399/510/511 432/511/512
f 424/492/493 379/504/505 398/512/513 423/506/507
f 380/513/514 397/505/506 423/506/507 422/514/515
f 397/505/506 380/513/514 406/515/516 405/507/508
f 405/507/508 406/515/516 381/516/517 400/508/509
f 400/508/509 381/516/517 415/517/518 414/509/510
f 399/510/511 414/509/510 415/517/518 382/518/519
f 399/510/511 382/518/519 431/519/520 432/511/512
f 398/512/513 383/520/521 422/514/515 423/506/507
f 384/521/522 380/513/514 422/514/515 421/522/523
f 406/515/516 380/513/514 384/521/522 407/523/524
f 381/516/517 406/515/516 407/523/524 385/524/525
f 415/517/518 381/516/517 385/524/525 416/525/526
f 382/518/519 415/517/518 416/525/526 386/526/527
f 431/519/520 382/518/519 386/526/527 430/527/528
f 422/514/515 383/520/521 387/528/529 421/522/523
f 388/529/530 384/530/522 421/531/523 420/532/531
f 407/533/524 384/530/522 388/529/530 408/534/532
f 385/535/525 407/533/524 408/534/532 389/536/533
f 416/537/526 385/535/525 389/536/533 417/538/534
f 386/539/527 416/537/526 417/538/534 390/540/535
f 430/541/528 386/539/527 390/540/535 429/542/536
f 421/531/523 387/543/529 391/544/537 420/532/531
f 392/545/538 388/529/530 420/532/531 419/546/539
f 408/534/532 388/529/530 392/545/538 409/547/540
f 389/536/533 408/534/532 409/547/540 393/548/541
f 417/538/534 389/536/533 393/548/541 418/549/542
f 390/540/535 417/538/534 418/549/542 394/550/543
f 429/542/536 390/540/535 394/550/543 428/551/544
f 420/532/531 391/544/537 395/552/545 419/546/539
f 396/553/546 392/545/538 419/546/539
f 409/547/540 392/545/538 396/553/546
f 393/548/541 409/547/540 396/553/546
f 418/549/542 393/548/541 396/553/546
f 394/550/543 418/549/542 396/553/546
f 428/551/544 394/550/543 396/553/546
f 419/546/539 395/552/545 396/553/546
f 395/552/545 428/551/544 396/553/546
f 391/544/537 429/542/536 428/551/544 395/552/545
f 387/543/529 430/541/528 429/542/536 391/544/537
f 383/554/521 431/519/520 430/527/528 387/555/529
f 398/556/513 432/511/512 431/519/520 383/554/521
f 379/557/505 433/502/503 432/511/512 398/556/513
f 375/558/504 434/501/502 433/502/503 379/557/505
f 371/559/481 435/478/479 450/487/488 451/560/489
f 367/561/480 436/477/478 435/478/479 371/559/481
f 364/562/467 401/563/470 437/564/547 438/565/548
f 401/563/470 365/566/472 439/567/549 437/564/547
f 365/566/472 410/568/474 440/569/550 439/567/549
f 410/568/474 366/570/476 441/571/551 440/569/550
f 366/570/476 436/572/478 442/573/552 441/571/551
f 436/572/478 367/574/480 443/575/553 442/573/552
f 367/574/480 427/576/468 444/577/554 443/575/553
f 427/576/468 364/562/467 438/565/548 444/577/554
f 438/565/548 437/564/547 445/578/555
f 437/564/547 439/567/549 445/578/555
f 439/567/549 440/569/550 445/578/555
f 440/569/550 441/571/551 445/578/555
f 441/571/551 442/573/552 445/578/555
f 442/573/552 443/575/553 445/578/555
f 443/575/553 444/577/554 445/578/555
f 444/577/554 438/565/548 445/578/555
f 447/484/485 446/483/484 403/493/494 373/495/496
f 448/485/486 447/484/485 373/495/496 412/497/498
f 449/486/487 448/485/486 412/497/498 374/499/500
f 450/487/488 449/486/487 374/499/500 434/501/502
f 451/560/489 450/487/488 434/501/502 375/558/504
f 452/482/483 451/488/489 375/503/504 425/491/492
f 372/490/491 453/481/482 452/482/483 425/491/492
f 446/483/484 453/481/482 372/490/491 403/493/494
s 15
f 467/579/556 455/580/557 454/581/558 468/582/559
f 466/583/560 456/584/561 455/580/557 467/579/556
f 465/585/562 457/586/563 456/584/561 466/583/560
f 464/587/564 458/588/565 457/586/563 465/585/562
f 505/589/566 502/590/567 503/591/568 506/592/569
s 16
f 455/593/570 460/594/571 459/595/572 454/596/573
f 456/597/574 461/598/575 460/594/571 455/593/570
f 457/599/576 462/600/577 461/598/575 456/597/574
f 458/601/578 463/602/579 462/600/577 457/599/576
f 503/603/580 504/604/581 507/605/582 506/606/583
s 15
f 481/607/584 487/608/585 489/609/586 482/610/587
f 483/611/588 488/612/589 487/608/585 481/607/584
s 16
f 482/610/590 489/609/591 488/612/592 483/611/593
s 15
f 484/613/594 481/614/584 482/615/587 485/616/595
s 16
f 482/617/590 483/618/593 486/619/596 485/620/597
s 15
f 502/590/567 484/613/594 485/616/595 503/591/568
s 16
f 485/620/597 486/619/596 504/604/581 503/603/580
s 15
f 483/621/588 481/622/584 484/613/594 486/619/598
f 486/619/598 484/613/594 502/590/567 504/604/599
f 504/604/599 502/590/567 505/589/566 507/605/600
f 462/600/601 463/602/602 464/587/564 465/585/562
f 461/598/603 462/600/601 465/585/562 466/583/560
f 460/594/604 461/598/603 466/583/560 467/579/556
f 459/595/605 460/594/604 467/579/556 468/582/559
f 469/623/606 470/624/607 471/625/608 472/626/609
s 16
f 472/626/610 471/625/611 473/627/612 474/628/613
s 15
f 473/627/614 470/624/607 469/623/606 474/628/615
f 474/628/615 469/623/606 475/629/616 476/630/617
s 16
f 472/626/610 474/628/613 476/630/618 477/631/619
s 15
f 475/629/616 469/623/606 472/626/609 477/631/620
f 479/632/621 476/630/617 475/629/616 478/633/622
s 16
f 480/634/623 477/631/619 476/630/618 479/632/624
s 15
f 475/629/616 477/631/620 480/634/625 478/633/622
f 488/612/589 491/635/626 490/636/627 487/608/585
s 16
f 489/609/591 492/637/628 491/635/629 488/612/592
s 15
f 490/636/627 492/637/630 489/609/586 487/608/585
f 491/635/626 494/638/631 493/639/632 490/636/627
s 16
f 492/637/628 495/640/633 494/638/634 491/635/629
s 15
f 493/639/632 495/640/635 492/637/630 490/636/627
f 494/638/631 497/641/636 496/642/637 493/639/632
s 16
f 495/640/633 498/643/638 497/641/639 494/638/634
s 15
f 496/642/637 498/643/640 495/640/635 493/639/632
f 497/641/636 500/644/641 499/645/642 496/642/637
s 16
f 498/643/638 501/646/643 500/644/644 497/641/639
s 15
f 499/645/642 501/646/645 498/643/640 496/642/637
f 500/644/641 479/632/621 478/633/622 499/645/642
s 16
f 501/646/643 480/634/623 479/632/624 500/644/644
s 15
f 478/633/622 480/634/625 501/646/645 499/645/642
f 505/589/566 506/592/569 458/588/565 464/587/564
s 16
f 507/605/582 463/602/579 458/601/578 506/606/583
s 15
f 463/602/602 507/605/600 505/589/566 464/587/564
s 17
f 521/647/646 509/648/647 508/649/648 522/650/649
f 520/651/650 510/652/651 509/648/647 521/647/646
f 519/653/652 511/654/653 510/652/651 520/651/650
f 518/655/654 512/656/655 511/654/653 519/653/652
f 559/657/656 556/658/657 557/659/658 560/660/659
s 18
f 509/661/660 514/662/661 513/663/662 508/664/663
f 510/665/664 515/666/665 514/662/661 509/661/660
f 511/667/666 516/668/667 515/666/665 510/665/664
f 512/669/668 517/670/669 516/668/667 511/667/666
f 557/671/670 558/672/671 561/673/672 560/674/673
s 17
f 535/675/674 541/676/675 543/677/676 536/678/677
f 537/679/678 542/680/679 541/676/675 535/675/674
s 18
f 536/678/680 543/677/681 542/680/682 537/679/683
s 17
f 538/681/684 535/682/674 536/683/677 539/684/685
s 18
f 536/685/680 537/686/683 540/687/686 539/688/687
s 17
f 556/658/657 538/681/684 539/684/685 557/659/658
s 18
f 539/688/687 540/687/686 558/672/671 557/671/670
s 17
f 537/689/678 535/690/674 538/681/684 540/687/688
f 540/687/688 538/681/684 556/658/657 558/672/689
f 558/672/689 556/658/657 559/657/656 561/673/690
f 516/668/691 517/670/692 518/655/654 519/653/652
f 515/666/693 516/668/691 519/653/652 520/651/650
f 514/662/694 515/666/693 520/651/650 521/647/646
f 513/663/695 514/662/694 521/647/646 522/650/649
f 523/691/696 524/692/697 525/693/698 526/694/699
s 18
f 526/694/700 525/693/701 527/695/702 528/696/703
s 17
f 527/695/704 524/692/697 523/691/696 528/696/705
f 528/696/705 523/691/696 529/697/706 530/698/707
s 18
f 526/694/700 528/696/703 530/698/708 531/699/709
s 17
f 529/697/706 523/691/696 526/694/699 531/699/710
f 533/700/711 530/698/707 529/697/706 532/701/712
s 18
f 534/702/713 531/699/709 530/698/708 533/700/714
s 17
f 529/697/706 531/699/710 534/702/715 532/701/712
f 542/680/679 545/703/716 544/704/717 541/676/675
s 18
f 543/677/681 546/705/718 545/703/719 542/680/682
s 17
f 544/704/717 546/705/720 543/677/676 541/676/675
f 545/703/716 548/706/721 547/707/722 544/704/717
s 18
f 546/705/718 549/708/723 548/706/724 545/703/719
s 17
f 547/707/722 549/708/725 546/705/720 544/704/717
f 548/706/721 551/709/726 550/710/727 547/707/722
s 18
f 549/708/723 552/711/728 551/709/729 548/706/724
s 17
f 550/710/727 552/711/730 549/708/725 547/707/722
f 551/709/726 554/712/731 553/713/732 550/710/727
s 18
f 552/711/728 555/714/733 554/712/734 551/709/729
s 17
f 553/713/732 555/714/735 552/711/730 550/710/727
f 554/712/731 533/700/711 532/701/712 553/713/732
s 18
f 555/714/733 534/702/713 533/700/714 554/712/734
s 17
f 532/701/712 534/702/715 555/714/735 553/713/732
f 559/657/656 560/660/659 512/656/655 518/655/654
s 18
f 561/673/672 517/670/669 512/669/668 560/674/673
s 17
f 517/670/692 561/673/690 559/657/656 518/655/654
s 19
f 575/715/736 563/716/737 562/717/738 576/718/739
f 574/719/740 564/720/741 563/716/737 575/715/736
f 573/721/742 565/722/743 564/720/741 574/719/740
f 572/723/744 566/724/745 565/722/743 573/721/742
f 613/725/746 610/726/747 611/727/748 614/728/749
s 20
f 563/729/750 568/730/751 567/731/752 562/732/753
f 564/733/754 569/734/755 568/730/751 563/729/750
f 565/735/756 570/736/757 569/734/755 564/733/754
f 566/737/758 571/738/759 570/736/757 565/735/756
f 611/739/760 612/740/761 615/741/762 614/742/763
s 19
f 589/743/764 595/744/765 597/745/766 590/746/767
f 591/747/768 596/748/769 595/744/765 589/743/764
s 20
f 590/746/770 597/745/771 596/748/772 591/747/773
s 19
f 592/749/774 589/750/764 590/751/767 593/752/775
s 20
f 590/753/770 591/754/773 594/755/776 593/756/777
s 19
f 610/726/747 592/749/774 593/752/775 611/727/748
s 20
f 593/756/777 594/755/776 612/740/761 611/739/760
s 19
f 591/757/768 589/758/764 592/749/774 594/755/778
f 594/755/778 592/749/774 610/726/747 612/740/779
f 612/740/779 610/726/747 613/725/746 615/741/780
f 570/736/781 571/738/782 572/723/744 573/721/742
f 569/734/783 570/736/781 573/721/742 574/719/740
f 568/730/784 569/734/783 574/719/740 575/715/736
f 567/731/785 568/730/784 575/715/736 576/718/739
f 577/759/786 578/760/787 579/761/788 580/762/789
s 20
f 580/762/790 579/761/791 581/763/792 582/764/793
s 19
f 581/763/794 578/760/787 577/759/786 582/764/795
f 582/764/795 577/759/786 583/765/796 584/766/797
s 20
f 580/762/790 582/764/793 584/766/798 585/767/799
s 19
f 583/765/796 577/759/786 580/762/789 585/767/800
f 587/768/801 584/766/797 583/765/796 586/769/802
s 20
f 588/770/803 585/767/799 584/766/798 587/768/804
s 19
f 583/765/796 585/767/800 588/770/805 586/769/802
f 596/748/769 599/771/806 598/772/807 595/744/765
s 20
f 597/745/771 600/773/808 599/771/809 596/748/772
s 19
f 598/772/807 600/773/810 597/745/766 595/744/765
f 599/771/806 602/774/811 601/775/812 598/772/807
s 20
f 600/773/808 603/776/813 602/774/814 599/771/809
s 19
f 601/775/812 603/776/815 600/773/810 598/772/807
f 602/774/811 605/777/816 604/778/817 601/775/812
s 20
f 603/776/813 606/779/818 605/777/819 602/774/814
s 19
f 604/778/817 606/779/820 603/776/815 601/775/812
f 605/777/816 608/780/821 607/781/822 604/778/817
s 20
f 606/779/818 609/782/823 608/780/824 605/777/819
s 19
f 607/781/822 609/782/825 606/779/820 604/778/817
f 608/780/821 587/768/801 586/769/802 607/781/822
s 20
f 609/782/823 588/770/803 587/768/804 608/780/824
s 19
f 586/769/802 588/770/805 609/782/825 607/781/822
f 613/725/746 614/728/749 566/724/745 572/723/744
s 20
f 615/741/762 571/738/759 566/737/758 614/742/763
s 19
f 571/738/782 615/741/780 613/725/746 572/723/744
