# This file uses centimeters as units for non-parametric coordinates.

g default
v -43.537601 1.559600 -0.191323
v -43.365013 0.489448 -0.459727
v -43.864372 0.489448 0.085320
v -43.754250 0.489448 0.308722
v -43.466591 0.489448 0.489574
v -43.365128 0.749443 -0.496746
v -43.904091 0.715127 0.107690
v -43.842941 0.717356 0.282356
v -43.466591 0.740026 0.200532
v -43.637821 0.489448 -0.381905
v -43.648712 0.749443 -0.417993
v -43.365013 0.944493 -0.462653
v -43.663303 0.934956 -0.420740
v -43.702492 0.914149 -0.023473
v -43.561440 0.862386 0.068326
v -43.474358 0.846306 0.153127
v -43.553795 0.825619 -0.057335
v -43.452217 0.794686 -0.009121
v -43.365131 1.194973 -0.480666
v -43.657593 1.164088 -0.406237
v -43.644218 1.088070 -0.133695
v -43.365013 1.409969 -0.455904
v -43.600552 1.415793 -0.399992
v -43.673336 1.400032 -0.139448
v -43.454079 1.408702 -0.135273
v -43.495766 1.464158 -0.207478
v -43.477303 1.498368 -0.317345
v -43.365013 1.511347 -0.388818
v -43.466122 0.918968 -0.024954
v -43.539024 1.685475 -0.197485
v -43.365013 1.600914 0.009353
v -43.490803 1.516790 -0.071059
v -43.486412 1.621830 -0.052938
v -43.365013 1.608115 -0.419926
v -43.542400 1.598686 -0.302579
v -43.365013 1.727127 -0.418718
v -43.536308 1.715982 -0.312570
v -43.569412 1.844827 -0.189388
v -43.365013 1.851806 -0.395844
v -43.537525 1.853075 -0.296554
v -43.489983 1.828289 -0.014135
v -43.365013 1.822926 0.021508
v -43.365013 2.023533 -0.182387
v -43.187626 1.598686 -0.302579
v -43.193718 1.715982 -0.312570
v -43.192425 1.559600 -0.191323
v -43.263084 0.489455 0.496746
v -42.959084 0.489448 0.352601
v -42.864922 0.489448 0.104330
v -43.092205 0.489448 -0.381905
v -42.822914 0.714631 0.115256
v -42.898407 0.712591 0.309496
v -43.259178 0.739363 0.210316
v -43.081539 0.749443 -0.417994
v -43.067097 0.934956 -0.420740
v -42.976200 0.913884 -0.018411
v -43.166496 0.861901 0.061839
v -43.252220 0.845540 0.161064
v -43.176231 0.825619 -0.057335
v -43.277809 0.794686 -0.009121
v -43.264278 0.918968 -0.024955
v -43.072670 1.164089 -0.406237
v -43.086044 1.088070 -0.133695
v -43.056751 1.400032 -0.139448
v -43.162453 1.414691 -0.381775
v -43.275948 1.408702 -0.135273
v -43.252724 1.498368 -0.317345
v -43.234261 1.464158 -0.207478
v -43.239223 1.516790 -0.071059
v -43.243614 1.621830 -0.052938
v -43.160614 1.844827 -0.189388
v -43.192501 1.853075 -0.296554
v -43.240044 1.828289 -0.014135
v -43.191002 1.685475 -0.197485
v -43.490303 1.946634 -0.180430
v -43.470406 1.950017 -0.243996
v -43.365013 1.954659 -0.303706
v -43.259621 1.950017 -0.243996
v -43.239723 1.946634 -0.180430
v -43.287682 1.946320 -0.085072
v -43.365013 1.946489 -0.056005
v -43.442345 1.946320 -0.085072
v -43.363045 0.489448 0.027963
v -43.358017 1.507683 -0.032582
v -43.254471 1.108260 -0.028349
v -43.475796 1.108260 -0.028349
v -43.759430 0.489448 -0.175071
v -43.793114 0.746927 -0.193115
v -43.817688 0.931547 -0.204205
v -43.799294 1.118939 -0.219660
v -43.742443 1.400353 -0.254215
v -42.987202 1.400077 -0.248481
v -42.928856 1.118940 -0.211274
v -42.909897 0.931843 -0.196792
v -42.933907 0.746711 -0.184835
v -42.970745 0.489448 -0.169031
vt 0.171533 0.627414
vt 0.298530 0.625010
vt 0.163391 0.690171
vt 0.295748 0.677047
vt 0.370799 0.605042
vt 0.049018 0.059900
vt 0.365057 0.039574
vt 0.427287 0.033069
vt 0.510262 0.015872
vt 0.051458 0.182342
vt 0.372974 0.118273
vt 0.429233 0.098999
vt 0.484790 0.113191
vt 0.169288 0.055840
vt 0.175035 0.169265
vt 0.068017 0.277600
vt 0.185401 0.250300
vt 0.387561 0.204089
vt 0.444304 0.176469
vt 0.482408 0.156405
vt 0.448850 0.222360
vt 0.483054 0.209116
vt 0.483140 0.252383
vt 0.081970 0.347045
vt 0.197075 0.316535
vt 0.406252 0.298755
vt 0.358888 0.426483
vt 0.246482 0.458958
vt 0.142519 0.513165
vt 0.445162 0.487462
vt 0.181392 0.571751
vt 0.273174 0.542261
vt 0.368641 0.520678
vt 0.446208 0.589784
vt 0.450442 0.646267
vt 0.367946 0.747725
vt 0.174705 0.786734
vt 0.309859 0.758700
vt 0.516275 0.641684
vt 0.458453 0.738592
vt 0.516261 0.736276
vt 0.365317 0.660812
vt 0.342386 0.861154
vt 0.385451 0.846098
vt 0.458200 0.838077
vt 0.263916 0.917180
vt 0.734083 0.624915
vt 0.736836 0.676992
vt 0.661793 0.604921
vt 0.678221 0.042221
vt 0.609227 0.032143
vt 0.545170 0.024453
vt 0.662836 0.112588
vt 0.602347 0.092091
vt 0.544148 0.110476
vt 0.860819 0.057542
vt 0.855942 0.169088
vt 0.846010 0.249349
vt 0.641883 0.199170
vt 0.579892 0.171862
vt 0.539970 0.152392
vt 0.576311 0.217444
vt 0.540425 0.206549
vt 0.543771 0.250520
vt 0.834669 0.315757
vt 0.624076 0.296573
vt 0.673444 0.426081
vt 0.785851 0.458569
vt 0.587295 0.487328
vt 0.759433 0.541974
vt 0.663906 0.520473
vt 0.586361 0.589703
vt 0.582128 0.646189
vt 0.664639 0.747631
vt 0.722713 0.758620
vt 0.574135 0.738553
vt 0.667471 0.660687
vt 0.690168 0.861237
vt 0.647071 0.846202
vt 0.574379 0.838050
vt 0.516321 0.834767
vt 0.910429 0.913482
vt 0.861453 0.627291
vt 0.869358 0.690257
vt 0.979411 0.060753
vt 0.978045 0.181744
vt 0.962963 0.276399
vt 0.949593 0.345964
vt 0.890097 0.512570
vt 0.851457 0.571293
vt 0.857870 0.786777
vt 0.768811 0.917358
vt 0.095589 0.808536
vt 0.095224 0.901475
vt 0.188171 0.912637
vt 0.167753 0.956114
vt 0.114422 0.991309
vt 0.142843 0.822686
vt 0.076691 0.992726
vt 0.020332 0.964653
vt 0.002872 0.916337
vt 0.048336 0.822686
vt 0.520182 0.589741
vt 0.556459 0.325701
vt 0.473235 0.326703
vt 0.270019 0.049836
vt 0.162660 0.862003
vt 0.282445 0.151878
vt 0.296007 0.231214
vt 0.296286 0.296048
vt 0.310229 0.416045
vt 0.720243 0.415228
vt 0.731673 0.293634
vt 0.731553 0.227802
vt 0.747198 0.148440
vt 0.028537 0.863098
vt 0.763143 0.053738
vn -0.712295 0.340930 -0.613516
vn -0.829536 -0.192920 -0.524072
vn -0.000001 -0.152281 -0.988337
vn 0.024907 0.282082 -0.959067
vn -0.696977 -0.353806 0.623735
vn -0.970289 -0.223034 0.093779
vn -0.912252 0.388105 0.131034
vn -0.378490 -0.066421 0.923219
vn -0.854103 0.010087 -0.520005
vn 0.000000 0.062806 -0.998026
vn -0.716411 -0.142509 0.682969
vn -0.988651 -0.053408 0.140415
vn 0.000033 -0.034662 -0.999399
vn 0.000003 -0.144875 -0.989450
vn -0.596166 -0.143039 -0.790017
vn -0.577438 -0.081579 -0.812349
vn -0.965794 0.250582 0.066715
vn -0.978057 -0.208014 0.011643
vn -0.635705 0.171025 0.752748
vn -0.415322 0.639648 0.646806
vn -0.085489 0.648329 0.756546
vn -0.055893 0.616203 0.785601
vn 0.026486 0.664812 0.746541
vn 0.008717 0.635637 0.771939
vn -0.886475 -0.132532 -0.443392
vn -0.882656 -0.129736 -0.451759
vn 0.000062 0.034582 -0.999402
vn -0.546797 0.001406 -0.837264
vn -0.974712 0.172679 -0.141842
vn -0.696058 0.590959 0.407764
vn 0.107723 0.936425 0.333923
vn 0.239140 0.874374 0.422234
vn -0.126623 0.938233 0.322002
vn -0.006275 0.830105 0.557572
vn 0.002680 0.627242 0.778820
vn 0.008028 0.827440 0.561497
vn 0.012577 0.061858 -0.998006
vn -0.534715 0.070396 -0.842095
vn -0.935563 0.267892 0.230121
vn -0.480258 0.553213 -0.680668
vn 0.034781 0.442545 -0.896072
vn -0.682164 0.713814 0.158499
vn -0.426863 0.441605 0.789160
vn -0.432742 0.290214 0.853528
vn -0.198141 0.146786 0.969120
vn -0.231310 0.066847 0.970581
vn 0.231085 0.067223 0.970609
vn 0.198019 0.146796 0.969144
vn -0.758761 0.364953 -0.539528
vn -0.000001 0.439172 -0.898403
vn 0.005088 -0.201592 0.979457
vn 0.352849 -0.408551 0.841774
vn 0.706818 -0.345008 0.617558
vn 0.719657 -0.134492 0.681180
vn -0.000000 0.241915 0.970298
vn -0.662192 0.241877 0.709223
vn -0.664404 0.742213 0.087679
vn -0.958975 0.262894 0.106083
vn -0.447709 0.728233 0.518877
vn 0.000000 0.723927 0.689876
vn -0.000002 0.784575 -0.620034
vn -0.519427 0.764738 -0.381276
vn 0.000004 0.998585 0.053183
vn 0.854103 0.010091 -0.520005
vn 0.829536 -0.192924 -0.524071
vn 0.974500 0.218476 0.051169
vn 0.983408 -0.181378 -0.003157
vn 0.888358 -0.142326 -0.436536
vn 0.884403 -0.134172 -0.447022
vn 0.407551 0.655226 0.636067
vn 0.628379 0.238168 0.740551
vn 0.970282 0.145723 -0.193179
vn 0.580706 -0.082178 -0.809955
vn 0.599686 -0.144339 -0.787111
vn 0.550493 0.002179 -0.834837
vn -0.222170 0.875725 0.428658
vn -0.219320 0.783003 0.582070
vn 0.030574 0.612401 0.789956
vn 0.043630 0.437175 0.898318
vn 0.534336 0.101582 -0.839146
vn 0.936744 0.303440 0.174458
vn 0.487638 0.543379 -0.683336
vn 0.664153 0.735343 0.134799
vn 0.410906 0.440289 0.798312
vn 0.401005 0.313200 0.860872
vn 0.383554 -0.067558 0.921044
vn 0.719235 0.304967 -0.624256
vn 0.917512 0.382978 0.107237
vn 0.970290 -0.223031 0.093778
vn 0.988652 -0.053398 0.140415
vn 0.958973 0.262902 0.106083
vn 0.662192 0.241878 0.709223
vn 0.758760 0.364962 -0.539525
vn 0.447709 0.728233 0.518877
vn 0.664410 0.742208 0.087677
vn 0.519432 0.764736 -0.381275
vn 0.000002 -1.000000 0.000003
vn -0.000000 -1.000000 0.000000
vn -0.000000 -1.000000 0.000000
vn -0.000000 -1.000000 -0.000000
vn -0.000000 -1.000000 0.000000
vn 0.000018 -1.000000 0.000004
vn -0.000000 -1.000000 -0.000000
vn 0.000010 -1.000000 0.000014
vn -0.000008 -1.000000 0.000010
vn -0.000000 -1.000000 0.000000
vn -0.000000 -1.000000 -0.000000
vn -0.000000 -1.000000 -0.000000
vn 0.019264 0.452745 0.891432
vn 0.253593 0.791850 0.555576
vn 0.237567 0.635809 0.734377
vn -0.328466 -0.420522 0.845738
vn 0.000000 -0.719993 0.693982
vn 0.782415 0.530423 0.326311
vn -0.303327 0.580520 0.755638
s 1
g polySurface8324
f 27/32/1 35/2/2 34/1/3 28/31/4
f 32/34/5 1/5/6 26/33/7 25/30/8
f 34/1/3 35/2/2 37/4/9 36/3/10
f 1/5/6 32/34/5 33/35/11 30/42/12
f 6/10/13 2/6/14 10/14/15 11/15/16
f 7/11/17 3/7/18 4/8/19 8/12/20
f 5/9/21 9/13/22 8/12/20 4/8/19
f 9/13/22 5/9/21 47/52/23 53/55/24
f 11/15/16 10/14/15 87/106/25 88/108/26
f 12/16/27 6/10/13 11/15/16 13/17/28
f 13/17/28 11/15/16 88/108/26 89/109/29
f 14/18/30 7/11/17 8/12/20
f 9/13/22 16/20/31 15/19/32 8/12/20
f 16/20/31 9/13/22 53/55/24 58/61/33
f 16/20/31 18/22/34 17/21/35 15/19/32
f 18/22/34 16/20/31 58/61/33 60/63/36
f 19/24/37 12/16/27 13/17/28 20/25/38
f 20/25/38 13/17/28 89/109/29 90/110/39
f 20/25/38 23/28/40 22/29/41 19/24/37
f 23/28/40 20/25/38 90/110/39 91/111/42
f 25/30/8 24/27/43 21/26/44 86/105/45
f 28/31/4 22/29/41 23/28/40 27/32/1
f 27/32/1 23/28/40 91/111/42 26/33/7
f 86/105/45 29/23/46 61/64/47 85/104/48
f 18/22/34 29/23/46 17/21/35
f 29/23/46 18/22/34 60/63/36 61/64/47
f 1/5/6 35/2/2 27/32/1 26/33/7
f 24/27/43 25/30/8 26/33/7 91/111/42
f 36/3/10 37/4/9 40/38/49 39/37/50
f 31/39/51 84/103/52 69/72/53 70/73/54
f 33/35/11 31/39/51 42/41/55 41/40/56
f 75/44/57 38/36/58 41/40/56 82/45/59
f 82/45/59 41/40/56 42/41/55 81/81/60
f 77/46/61 39/37/50 40/38/49 76/43/62
f 76/43/62 40/38/49 38/36/58 75/44/57
f 37/4/9 35/2/2 1/5/6 30/42/12
f 30/42/12 33/35/11 41/40/56 38/36/58
f 40/38/49 37/4/9 30/42/12 38/36/58
f 76/43/62 75/44/57 43/82/63
f 43/82/63 75/44/57 82/45/59
f 43/82/63 82/45/59 81/81/60
f 77/46/61 76/43/62 43/82/63
f 34/83/3 36/84/10 45/48/64 44/47/65
f 51/53/66 49/50/67 96/117/68 95/115/69
f 52/54/70 48/51/71 49/50/67 51/53/66
f 47/52/23 48/51/71 52/54/70 53/55/24
f 94/114/72 51/53/66 95/115/69
f 54/57/73 50/56/74 2/85/14 6/86/13
f 55/58/75 54/57/73 6/86/13 12/87/27
f 57/60/76 52/54/70 56/59/77
f 53/55/24 52/54/70 57/60/76 58/61/33
f 59/62/78 57/60/76 56/59/77 63/66/79
f 58/61/33 57/60/76 59/62/78 60/63/36
f 62/65/80 55/58/75 12/87/27 19/88/37
f 54/57/73 95/115/69 96/117/68 50/56/74
f 55/58/75 94/114/72 95/115/69 54/57/73
f 93/113/81 94/114/72 55/58/75 62/65/80
f 62/65/80 19/88/37 22/89/41 65/68/82
f 92/112/83 93/113/81 62/65/80 65/68/82
f 64/67/84 63/66/85 93/113/81 92/112/83
f 63/66/85 64/67/84 66/69/86 85/104/48
f 60/63/36 59/62/78 61/64/47
f 67/70/87 28/90/4 34/83/3 44/47/65
f 68/71/88 66/69/86 64/67/84 92/112/83
f 66/69/86 68/71/88 46/49/89 69/72/53
f 74/77/90 70/73/54 69/72/53 46/49/89
f 67/70/87 68/71/88 92/112/83 65/68/82
f 67/70/87 65/68/82 22/89/41 28/90/4
f 74/77/90 71/74/91 73/76/92 70/73/54
f 45/48/64 72/75/93 71/74/91 74/77/90
f 36/84/10 39/91/50 72/75/93 45/48/64
f 80/80/94 73/76/92 71/74/91 79/79/95
f 42/41/55 73/76/92 80/80/94 81/81/60
f 78/78/96 72/75/93 39/91/50 77/92/61
f 79/79/95 71/74/91 72/75/93 78/78/96
f 70/73/54 73/76/92 42/41/55 31/39/51
f 44/47/65 45/48/64 74/77/90 46/49/89
f 43/82/63 78/78/96 77/92/61
f 79/79/95 78/78/96 43/82/63
f 80/80/94 79/79/95 43/82/63
f 43/82/63 81/81/60 80/80/94
f 68/71/88 67/70/87 44/47/65 46/49/89
s 2
f 83/94/97 3/95/98 87/107/99 10/98/100
f 83/94/97 4/96/101 3/95/98
f 83/94/97 5/97/102 4/96/101
f 83/94/97 10/98/100 2/93/103
f 83/94/97 47/99/104 5/97/102
f 83/94/97 48/100/105 47/99/104
f 83/94/97 49/101/106 48/100/105
f 83/94/97 50/102/107 96/116/108 49/101/106
f 83/94/97 2/93/103 50/102/107
s 1
f 21/26/109 14/18/110 15/19/32 17/21/35
f 63/66/85 56/59/111 93/113/81
f 33/35/11 32/34/5 84/103/112 31/39/51
f 84/103/112 32/34/5 25/30/8
f 25/30/8 86/105/45 85/104/48 66/69/86
f 86/105/45 21/26/109 17/21/35 29/23/46
f 63/66/79 85/104/48 61/64/47 59/62/78
f 7/11/17 88/108/26 87/106/25 3/7/18
f 14/18/30 89/109/29 7/11/17
f 14/18/30 90/110/39 89/109/29
f 24/27/43 91/111/42 90/110/39 21/26/44
f 84/103/52 66/69/86 69/72/53
f 84/103/113 25/30/8 66/69/86
f 7/11/17 89/109/29 88/108/26
f 56/59/114 51/53/66 94/114/72
f 56/59/114 52/54/70 51/53/66
f 14/18/110 8/12/20 15/19/32
f 93/113/81 56/59/114 94/114/72
f 21/26/44 90/110/39 14/18/115
