# This file uses centimeters as units for non-parametric coordinates.

g default
v -25.631008 0.887815 -0.068498
v -25.631008 0.887786 0.068497
v -25.631004 1.991902 -0.067962
v -25.631004 1.991902 0.067809
v -25.631004 2.021028 -0.000753
v -24.233700 0.887815 -0.068498
v -24.233700 0.887786 0.068497
v -24.233696 1.991902 -0.067962
v -24.233696 1.991902 0.067809
v -24.233696 2.021028 -0.000753
v -24.234292 0.865345 -0.068632
v -24.234261 0.865345 0.068631
v -25.585603 0.865349 -0.068095
v -25.585603 0.865349 0.067942
v -24.939533 0.867260 -0.118377
v -24.891451 0.867260 -0.118377
v -24.891451 0.867245 -0.069571
v -24.939533 0.867245 -0.069571
v -24.890586 -0.187167 -0.068578
v -24.940295 -0.187167 -0.068578
v -24.890584 -0.187198 -0.119312
v -24.940296 -0.187198 -0.119312
v -24.891449 0.867771 0.118361
v -24.939482 0.867771 0.118361
v -24.891449 0.867756 0.069709
v -24.939482 0.867756 0.069709
v -24.890715 -0.187063 0.119308
v -24.940150 -0.187063 0.119308
v -24.890651 -0.187096 0.068702
v -24.940209 -0.187096 0.068702
v -25.642113 0.850829 0.122989
v -25.642113 0.902272 0.122989
v -25.579029 0.850829 0.065088
v -25.579029 0.902272 0.065088
v -25.642113 0.902299 -0.122989
v -25.642113 0.850856 -0.122989
v -25.579029 0.850856 -0.064965
v -25.579029 0.902299 -0.064965
v -24.217785 0.850913 0.122989
v -24.217785 0.902356 0.122989
v -24.282108 0.850913 0.065088
v -24.282108 0.902356 0.065088
v -24.217785 0.902383 -0.122989
v -24.217785 0.850940 -0.122989
v -24.282108 0.850940 -0.064965
v -24.282108 0.902383 -0.064965
v -25.642113 0.545291 0.122989
v -25.642113 0.596734 0.122989
v -25.579029 0.545291 0.065088
v -25.579029 0.596734 0.065088
v -25.642113 0.596761 -0.122989
v -25.642113 0.545318 -0.122989
v -25.579029 0.545318 -0.064965
v -25.579029 0.596761 -0.064965
v -24.217785 0.545376 0.122989
v -24.217785 0.596819 0.122989
v -24.282108 0.545376 0.065088
v -24.282108 0.596819 0.065088
v -24.217785 0.596846 -0.122989
v -24.217785 0.545403 -0.122989
v -24.282108 0.545403 -0.064965
v -24.282108 0.596846 -0.064965
v -25.641453 1.953929 0.125999
v -25.641453 2.004388 0.125999
v -25.544040 1.992350 0.039433
v -25.544040 2.042809 0.039433
v -25.641453 2.004412 -0.125999
v -25.641453 1.953952 -0.125999
v -25.544040 1.992425 -0.039329
v -25.544040 2.042884 -0.039329
v -24.218666 1.954002 0.125999
v -24.218666 2.004462 0.125999
v -24.315197 1.992423 0.039433
v -24.315197 2.042882 0.039433
v -24.218666 2.004485 -0.125999
v -24.218666 1.954026 -0.125999
v -24.315197 1.992498 -0.039329
v -24.315197 2.042957 -0.039329
v -24.315197 2.012204 0.000000
v -24.315197 2.062664 0.000000
v -24.218666 2.062664 0.000000
v -24.218666 2.012204 0.000000
v -25.641453 2.012098 0.000000
v -25.641453 2.062557 0.000000
v -25.545090 2.062557 0.000000
v -25.545090 2.012098 0.000000
v -24.367747 2.138548 -0.000021
v -24.367747 2.108444 -0.051303
v -24.367747 2.049136 -0.050987
v -24.367747 2.019735 -0.000021
v -24.367736 2.049892 0.051291
v -24.367747 2.108970 0.051028
v -24.356622 2.149443 -0.000002
v -24.356622 2.112695 0.060146
v -24.356622 2.113368 -0.059851
v -24.356622 2.045049 -0.058572
v -24.356622 2.011824 -0.000002
v -24.356622 2.046025 0.059005
v -24.159199 2.077168 -0.000002
v -24.159199 2.149443 -0.000002
v -24.159199 2.112695 0.060146
v -24.159196 2.113368 -0.059851
v -24.159199 2.046024 0.059005
v -24.159199 2.011823 -0.000002
v -24.159196 2.045049 -0.058572
v -25.501792 2.147730 0.000001
v -25.491356 2.137146 0.000157
v -25.491356 2.105069 -0.052158
v -25.501792 2.110981 -0.060147
v -25.501792 2.111655 0.059846
v -25.491356 2.105991 0.052052
v -25.501792 2.043336 0.058571
v -25.491356 2.047720 0.051517
v -25.491356 2.017764 0.000157
v -25.501792 2.010111 0.000001
v -25.501792 2.044312 -0.059005
v -25.491356 2.048357 -0.051492
v -25.699214 2.075455 0.000001
v -25.699214 2.147730 0.000001
v -25.699214 2.110981 -0.060147
v -25.699221 2.111655 0.059846
v -25.699214 2.044311 -0.059005
v -25.699214 2.010110 0.000001
v -25.699221 2.043336 0.058571
v -24.753278 2.147865 -0.000002
v -24.743246 2.137892 0.000077
v -24.743246 2.106948 -0.051711
v -24.753278 2.113497 -0.059107
v -24.753278 2.114488 0.058660
v -24.743246 2.107839 0.051465
v -24.753278 2.045099 0.059221
v -24.743246 2.048611 0.051443
v -24.753278 2.010477 -0.000002
v -24.743246 2.018617 0.000077
v -24.753278 2.044055 -0.058753
v -24.743246 2.048476 -0.051227
v -25.481224 2.147866 -0.000002
v -25.125092 2.147866 -0.000002
v -25.125092 2.113498 -0.059107
v -25.481224 2.113498 -0.059107
v -25.481224 2.044055 -0.058753
v -25.125092 2.044055 -0.058753
v -25.481224 2.010477 -0.000002
v -25.125092 2.010477 -0.000002
v -25.125092 2.045099 0.059224
v -25.481224 2.045099 0.059221
v -25.481224 2.114488 0.058660
v -25.125092 2.114488 0.058660
v -25.114719 2.138482 -0.000002
v -25.103854 2.147865 -0.000002
v -25.103854 2.113497 -0.059107
v -25.114719 2.108809 -0.051036
v -25.114719 2.048852 -0.050730
v -25.103854 2.044055 -0.058753
v -25.114719 2.019861 -0.000002
v -25.103854 2.010477 -0.000002
v -25.103854 2.045099 0.059224
v -25.114708 2.049753 0.051137
v -25.114719 2.109664 0.050649
v -25.103854 2.114488 0.058660
v -24.734027 2.147866 -0.000002
v -24.377900 2.147866 -0.000002
v -24.377900 2.113498 -0.059107
v -24.734027 2.113498 -0.059107
v -24.734027 2.044055 -0.058753
v -24.377900 2.044055 -0.058753
v -24.734027 2.010477 -0.000002
v -24.377900 2.010477 -0.000002
v -24.377900 2.045099 0.059224
v -24.734027 2.045099 0.059221
v -24.734027 2.114488 0.058660
v -24.377900 2.114488 0.058660
v -24.179221 1.999924 0.172514
v -24.179221 1.981902 0.164847
v -24.916056 1.999934 0.172481
v -24.916056 1.981912 0.164813
v -24.351594 1.982432 0.166643
v -24.306494 1.946425 0.151753
v -24.256359 1.982431 0.166640
v -24.256359 2.000455 0.174310
v -24.353890 1.964005 0.208591
v -24.306638 1.926242 0.193460
v -24.254069 1.964002 0.208591
v -24.303699 2.038542 0.189757
v -24.303501 1.971918 0.216638
v -24.303699 2.023080 0.232183
v -24.353893 1.983239 0.216498
v -24.254069 1.983237 0.216502
v -24.351594 2.000456 0.174310
v -24.582379 1.982433 0.166647
v -24.536561 1.946427 0.151756
v -24.487138 1.982432 0.166643
v -24.584672 1.964004 0.208591
v -24.536670 1.926240 0.193474
v -24.484854 1.964003 0.208586
v -24.487138 2.000455 0.174307
v -24.532204 2.038542 0.189754
v -24.534286 1.971918 0.216638
v -24.532078 2.023080 0.232180
v -24.584676 1.983237 0.216498
v -24.484854 1.983237 0.216498
v -24.582379 2.000456 0.174314
v -24.834188 1.982433 0.166640
v -24.787137 1.946426 0.151753
v -24.738950 1.982433 0.166643
v -24.836481 1.964002 0.208591
v -24.787169 1.926238 0.193477
v -24.736644 1.964003 0.208591
v -24.738950 2.000456 0.174307
v -24.784591 2.038539 0.189754
v -24.786093 1.971917 0.216648
v -24.784496 2.023081 0.232175
v -24.836481 1.983237 0.216498
v -24.736647 1.983238 0.216496
v -24.834188 2.000453 0.174314
v -25.674348 1.999925 0.172514
v -25.674348 1.981901 0.164854
v -25.090749 1.982432 0.166651
v -25.045604 1.946427 0.151756
v -24.995426 1.982433 0.166643
v -24.995426 2.000455 0.174310
v -25.093048 1.964003 0.208591
v -25.045747 1.926242 0.193460
v -24.993127 1.964003 0.208591
v -25.042805 2.038539 0.189757
v -25.042614 1.971917 0.216643
v -25.042805 2.023080 0.232180
v -25.093048 1.983238 0.216496
v -24.993127 1.983238 0.216496
v -25.090749 2.000455 0.174310
v -25.342791 1.982433 0.166651
v -25.296933 1.946427 0.151756
v -25.247462 1.982433 0.166643
v -25.345091 1.964003 0.208591
v -25.297044 1.926240 0.193474
v -25.245172 1.964002 0.208591
v -25.247462 2.000455 0.174310
v -25.292567 2.038541 0.189754
v -25.294657 1.971917 0.216643
v -25.292441 2.023080 0.232180
v -25.345091 1.983238 0.216496
v -25.245172 1.983238 0.216496
v -25.342791 2.000455 0.174310
v -25.594827 1.982433 0.166651
v -25.547733 1.946427 0.151756
v -25.499511 1.982432 0.166651
v -25.597130 1.964003 0.208591
v -25.547775 1.926240 0.193474
v -25.497202 1.964003 0.208591
v -25.499511 2.000455 0.174310
v -25.545191 2.038538 0.189757
v -25.546692 1.971916 0.216648
v -25.545096 2.023080 0.232180
v -25.597130 1.983238 0.216496
v -25.497202 1.983238 0.216496
v -25.594830 2.000453 0.174314
v -25.674935 2.047986 0.023799
v -25.674935 2.060976 0.029795
v -25.588285 2.061347 0.031713
v -25.545473 2.096814 0.047293
v -25.506046 2.061347 0.031712
v -25.336246 2.061347 0.031712
v -25.292944 2.096816 0.047291
v -25.254007 2.061347 0.031712
v -25.084207 2.061347 0.031712
v -25.042834 2.096815 0.047293
v -25.001968 2.061347 0.031712
v -24.916313 2.060976 0.029681
v -24.827646 2.061347 0.031712
v -24.784873 2.096815 0.047289
v -24.745478 2.061348 0.031709
v -24.575838 2.061349 0.031715
v -24.532577 2.096817 0.047291
v -24.493676 2.061347 0.031706
v -24.345058 2.061348 0.031712
v -24.303725 2.096818 0.047293
v -24.262894 2.061349 0.031712
v -24.179808 2.060976 0.029793
v -24.179808 2.047986 0.023798
v -25.588279 2.043596 0.024490
v -25.547629 2.019284 0.012953
v -25.506049 2.043596 0.024490
v -25.336246 2.043597 0.024490
v -25.296641 2.019285 0.012953
v -25.254010 2.043599 0.024483
v -25.084203 2.043596 0.024490
v -25.045205 2.019284 0.012953
v -25.001968 2.043611 0.024461
v -24.916313 2.047995 0.023664
v -24.827646 2.043597 0.024485
v -24.787033 2.019284 0.012951
v -24.745485 2.043596 0.024489
v -24.575838 2.043597 0.024489
v -24.536268 2.019285 0.012953
v -24.493676 2.043597 0.024485
v -24.345058 2.043595 0.024489
v -24.306100 2.019282 0.012950
v -24.262897 2.043611 0.024454
v -25.674935 1.999924 -0.172514
v -25.674935 1.981902 -0.164848
v -24.938101 1.999934 -0.172482
v -24.938101 1.981912 -0.164814
v -25.502563 1.982432 -0.166644
v -25.547662 1.946425 -0.151753
v -25.597798 1.982431 -0.166641
v -25.597798 2.000455 -0.174310
v -25.500267 1.964005 -0.208591
v -25.547519 1.926242 -0.193460
v -25.600088 1.964002 -0.208591
v -25.550458 2.038542 -0.189757
v -25.550656 1.971918 -0.216639
v -25.550458 2.023080 -0.232183
v -25.500263 1.983239 -0.216500
v -25.600088 1.983237 -0.216503
v -25.502563 2.000456 -0.174310
v -25.271778 1.982433 -0.166648
v -25.317596 1.946427 -0.151758
v -25.367018 1.982432 -0.166644
v -25.269484 1.964004 -0.208591
v -25.317486 1.926240 -0.193475
v -25.369303 1.964003 -0.208587
v -25.367018 2.000455 -0.174307
v -25.321953 2.038542 -0.189754
v -25.319871 1.971918 -0.216639
v -25.322078 2.023080 -0.232180
v -25.269481 1.983237 -0.216500
v -25.369303 1.983237 -0.216500
v -25.271778 2.000456 -0.174314
v -25.019969 1.982433 -0.166641
v -25.067020 1.946426 -0.151753
v -25.115207 1.982433 -0.166644
v -25.017675 1.964002 -0.208591
v -25.066988 1.926238 -0.193478
v -25.117513 1.964003 -0.208591
v -25.115207 2.000456 -0.174307
v -25.069567 2.038539 -0.189754
v -25.068064 1.971917 -0.216648
v -25.069660 2.023081 -0.232176
v -25.017675 1.983237 -0.216500
v -25.117510 1.983238 -0.216496
v -25.019969 2.000453 -0.174314
v -24.179808 1.999925 -0.172514
v -24.179808 1.981901 -0.164855
v -24.763407 1.982432 -0.166651
v -24.808553 1.946427 -0.151758
v -24.858731 1.982433 -0.166644
v -24.858731 2.000455 -0.174310
v -24.761108 1.964003 -0.208591
v -24.808409 1.926242 -0.193460
v -24.861030 1.964003 -0.208591
v -24.811352 2.038539 -0.189757
v -24.811542 1.971917 -0.216645
v -24.811352 2.023080 -0.232180
v -24.761108 1.983238 -0.216496
v -24.861030 1.983238 -0.216496
v -24.763407 2.000455 -0.174310
v -24.511366 1.982433 -0.166651
v -24.557223 1.946427 -0.151758
v -24.606695 1.982433 -0.166644
v -24.509066 1.964003 -0.208591
v -24.557113 1.926240 -0.193475
v -24.608985 1.964002 -0.208591
v -24.606695 2.000455 -0.174310
v -24.561590 2.038541 -0.189754
v -24.559500 1.971917 -0.216645
v -24.561716 2.023080 -0.232180
v -24.509066 1.983238 -0.216496
v -24.608985 1.983238 -0.216496
v -24.511366 2.000455 -0.174310
v -24.259330 1.982433 -0.166651
v -24.306424 1.946427 -0.151758
v -24.354646 1.982432 -0.166651
v -24.257026 1.964003 -0.208591
v -24.306381 1.926240 -0.193475
v -24.356955 1.964003 -0.208591
v -24.354646 2.000455 -0.174310
v -24.308966 2.038538 -0.189757
v -24.307465 1.971916 -0.216648
v -24.309060 2.023080 -0.232180
v -24.257026 1.983238 -0.216496
v -24.356955 1.983238 -0.216496
v -24.259327 2.000453 -0.174314
v -24.179221 2.047986 -0.023799
v -24.179221 2.060976 -0.029796
v -24.265872 2.061347 -0.031713
v -24.308684 2.096814 -0.047294
v -24.348111 2.061347 -0.031712
v -24.517911 2.061347 -0.031712
v -24.561213 2.096816 -0.047291
v -24.600149 2.061347 -0.031712
v -24.769950 2.061347 -0.031712
v -24.811322 2.096815 -0.047294
v -24.852189 2.061347 -0.031712
v -24.937843 2.060976 -0.029681
v -25.026510 2.061347 -0.031712
v -25.069284 2.096815 -0.047290
v -25.108678 2.061348 -0.031711
v -25.278319 2.061349 -0.031715
v -25.321580 2.096817 -0.047291
v -25.360481 2.061347 -0.031707
v -25.509099 2.061348 -0.031712
v -25.550432 2.096818 -0.047294
v -25.591263 2.061349 -0.031712
v -25.674348 2.060976 -0.029794
v -25.674348 2.047986 -0.023798
v -24.265878 2.043596 -0.024491
v -24.306527 2.019284 -0.012954
v -24.348107 2.043596 -0.024491
v -24.517911 2.043597 -0.024491
v -24.557516 2.019285 -0.012954
v -24.600146 2.043599 -0.024483
v -24.769954 2.043596 -0.024491
v -24.808951 2.019284 -0.012954
v -24.852189 2.043611 -0.024461
v -24.937843 2.047995 -0.023665
v -25.026510 2.043597 -0.024485
v -25.067124 2.019284 -0.012952
v -25.108672 2.043596 -0.024490
v -25.278319 2.043597 -0.024490
v -25.317889 2.019285 -0.012954
v -25.360481 2.043597 -0.024485
v -25.509099 2.043595 -0.024490
v -25.548057 2.019282 -0.012951
v -25.591259 2.043611 -0.024456
v -25.647856 2.042294 0.063844
v -25.647856 2.008554 0.131135
v -25.568801 2.042294 0.063844
v -25.568801 2.008554 0.131135
v -25.647856 -0.193271 0.064012
v -25.647856 -0.193268 0.131297
v -25.568801 -0.193269 0.064012
v -25.568801 -0.193266 0.131295
v -25.647856 2.008554 -0.128755
v -25.647856 2.042294 -0.061463
v -25.568801 2.008554 -0.128755
v -25.568801 2.042294 -0.061463
v -25.647856 -0.193279 -0.128587
v -25.647856 -0.193277 -0.061301
v -25.568801 -0.193277 -0.128587
v -25.568801 -0.193275 -0.061303
v -24.290489 2.042294 0.063844
v -24.290489 2.008554 0.131135
v -24.211432 2.042294 0.063844
v -24.211432 2.008554 0.131135
v -24.290489 -0.193271 0.064012
v -24.290489 -0.193268 0.131297
v -24.211432 -0.193269 0.064012
v -24.211432 -0.193266 0.131295
v -24.290489 2.008554 -0.128755
v -24.290489 2.042294 -0.061463
v -24.211432 2.008554 -0.128755
v -24.211432 2.042294 -0.061463
v -24.290489 -0.193279 -0.128587
v -24.290489 -0.193277 -0.061301
v -24.211432 -0.193277 -0.128587
v -24.211432 -0.193275 -0.061303
v -24.278065 0.883751 -0.097484
v -24.278065 1.989621 -0.098205
v -25.574474 1.989621 -0.098205
v -25.574478 0.883743 -0.096725
v -24.278065 0.883751 0.091292
v -24.278065 1.989621 0.090571
v -25.574474 1.989621 0.090571
v -25.574478 0.883743 0.092052
vt 0.993322 0.250301
vt 0.984359 0.265753
vt 0.984792 0.235349
vt 0.756797 0.264841
vt 0.756445 0.236019
vt 0.993322 0.250301
vt 0.984792 0.235349
vt 0.984359 0.265753
vt 0.756445 0.236019
vt 0.756797 0.264841
vt 0.729399 0.233376
vt 0.996382 0.233420
vt 0.996592 0.260643
vt 0.729582 0.260430
vt 0.066345 0.551839
vt 0.066352 0.522117
vt 0.685345 0.522117
vt 0.685326 0.551839
vt 0.066283 0.488598
vt 0.685270 0.488598
vt 0.066296 0.522117
vt 0.066381 0.488598
vt 0.685316 0.488598
vt 0.685239 0.522117
vt 0.685245 0.522117
vt 0.685245 0.551839
vt 0.066322 0.551839
vt 0.066322 0.522117
vt 0.066313 0.551839
vt 0.066295 0.522117
vt 0.685261 0.522117
vt 0.685266 0.551839
vt 0.066379 0.488598
vt 0.685323 0.488598
vt 0.066381 0.522117
vt 0.066296 0.488598
vt 0.685226 0.488598
vt 0.685303 0.522117
vt 0.685289 0.522117
vt 0.685289 0.551839
vt 0.066346 0.551839
vt 0.066346 0.522117
vt 0.577855 0.551839
vt 0.577855 0.522117
vt 0.712589 0.522117
vt 0.712589 0.551839
vt 0.613740 0.522117
vt 0.577855 0.488598
vt 0.712589 0.488598
vt 0.676857 0.522117
vt 0.676850 0.522117
vt 0.676850 0.551839
vt 0.613740 0.551839
vt 0.613740 0.522117
vt 0.613740 0.488598
vt 0.676857 0.488598
vt 0.659034 0.551839
vt 0.659038 0.522117
vt 0.090841 0.522117
vt 0.090833 0.551839
vt 0.055043 0.522117
vt 0.055043 0.551839
vt 0.694799 0.551839
vt 0.694799 0.522117
vt 0.694796 0.488598
vt 0.054614 0.488598
vt 0.694794 0.522117
vt 0.659036 0.488598
vt 0.090867 0.488598
vt 0.054626 0.522117
vt 0.694799 0.551839
vt 0.694802 0.522117
vt 0.054831 0.522117
vt 0.055033 0.551839
vt 0.090835 0.522117
vt 0.090835 0.551839
vt 0.659033 0.551839
vt 0.659033 0.522117
vt 0.659036 0.488598
vt 0.090865 0.488598
vt 0.659036 0.522117
vt 0.694794 0.488598
vt 0.054626 0.488598
vt 0.090867 0.522117
vt 0.613740 0.551839
vt 0.613730 0.522117
vt 0.676857 0.522117
vt 0.676851 0.551839
vt 0.577855 0.522117
vt 0.613740 0.488598
vt 0.676857 0.488598
vt 0.712589 0.522117
vt 0.712589 0.522117
vt 0.712589 0.551839
vt 0.577855 0.551839
vt 0.577855 0.522117
vt 0.577855 0.488598
vt 0.712589 0.488598
vt 0.577855 0.551839
vt 0.577855 0.522117
vt 0.712589 0.522117
vt 0.712589 0.551839
vt 0.613740 0.522117
vt 0.577855 0.488598
vt 0.712589 0.488598
vt 0.676857 0.522117
vt 0.676850 0.522117
vt 0.676850 0.551839
vt 0.613740 0.551839
vt 0.613740 0.522117
vt 0.613740 0.488598
vt 0.676857 0.488598
vt 0.659034 0.551839
vt 0.659038 0.522117
vt 0.090841 0.522117
vt 0.090833 0.551839
vt 0.055043 0.522117
vt 0.055043 0.551839
vt 0.694799 0.551839
vt 0.694799 0.522117
vt 0.694796 0.488598
vt 0.054614 0.488598
vt 0.694794 0.522117
vt 0.659036 0.488598
vt 0.090867 0.488598
vt 0.054626 0.522117
vt 0.694799 0.551839
vt 0.694802 0.522117
vt 0.054831 0.522117
vt 0.055033 0.551839
vt 0.090835 0.522117
vt 0.090835 0.551839
vt 0.659033 0.551839
vt 0.659033 0.522117
vt 0.659036 0.488598
vt 0.090865 0.488598
vt 0.659036 0.522117
vt 0.694794 0.488598
vt 0.054626 0.488598
vt 0.090867 0.522117
vt 0.613740 0.551839
vt 0.613730 0.522117
vt 0.676857 0.522117
vt 0.676851 0.551839
vt 0.577855 0.522117
vt 0.613740 0.488598
vt 0.676857 0.488598
vt 0.712589 0.522117
vt 0.712589 0.522117
vt 0.712589 0.551839
vt 0.577855 0.551839
vt 0.577855 0.522117
vt 0.577855 0.488598
vt 0.712589 0.488598
vt 0.577855 0.551839
vt 0.577855 0.522117
vt 0.645222 0.522117
vt 0.645222 0.551839
vt 0.613740 0.522117
vt 0.577855 0.488598
vt 0.645222 0.488598
vt 0.645257 0.522117
vt 0.676850 0.522117
vt 0.676850 0.551839
vt 0.645254 0.551839
vt 0.645254 0.522117
vt 0.613740 0.488598
vt 0.645257 0.488598
vt 0.659034 0.551839
vt 0.659038 0.522117
vt 0.090841 0.522117
vt 0.090833 0.551839
vt 0.033765 0.522117
vt 0.033765 0.551839
vt 0.694799 0.551839
vt 0.694799 0.522117
vt 0.694796 0.488598
vt 0.027876 0.488598
vt 0.694794 0.522117
vt 0.659036 0.488598
vt 0.090867 0.488598
vt 0.027889 0.522117
vt 0.694799 0.551839
vt 0.694802 0.522117
vt 0.030959 0.522117
vt 0.033755 0.551839
vt 0.090835 0.522117
vt 0.090835 0.551839
vt 0.659033 0.551839
vt 0.659033 0.522117
vt 0.659036 0.488598
vt 0.090865 0.488598
vt 0.659036 0.522117
vt 0.694794 0.488598
vt 0.027889 0.488598
vt 0.090867 0.522117
vt 0.613740 0.551839
vt 0.613730 0.522117
vt 0.645252 0.522117
vt 0.645254 0.551839
vt 0.577855 0.522117
vt 0.613740 0.488598
vt 0.645257 0.488598
vt 0.645222 0.522117
vt 0.712589 0.522117
vt 0.712589 0.551839
vt 0.645222 0.551839
vt 0.645222 0.522117
vt 0.577855 0.488598
vt 0.645222 0.488598
vt 0.712589 0.522117
vt 0.712589 0.551839
vt 0.712589 0.488598
vt 0.676857 0.522117
vt 0.613740 0.551839
vt 0.613740 0.522117
vt 0.676857 0.488598
vt 0.676857 0.522117
vt 0.676851 0.551839
vt 0.676857 0.488598
vt 0.712589 0.522117
vt 0.577855 0.551839
vt 0.577855 0.522117
vt 0.712589 0.488598
vt 0.310377 0.630860
vt 0.304554 0.630857
vt 0.304554 0.656586
vt 0.310377 0.656640
vt 0.310377 0.605302
vt 0.304554 0.605383
vt 0.310377 0.578075
vt 0.304554 0.579201
vt 0.304554 0.707565
vt 0.304554 0.741411
vt 0.310377 0.740286
vt 0.310377 0.707653
vt 0.310377 0.682929
vt 0.304554 0.682879
vt 0.447376 0.613178
vt 0.447376 0.651742
vt 0.414892 0.632134
vt 0.479697 0.632493
vt 0.389128 0.630868
vt 0.389079 0.656575
vt 0.389280 0.682910
vt 0.389540 0.707912
vt 0.389597 0.739998
vt 0.389597 0.577787
vt 0.389399 0.605223
vt 0.447376 0.578314
vt 0.415510 0.596562
vt 0.479007 0.596042
vt 0.310377 0.630860
vt 0.304554 0.630857
vt 0.304554 0.656586
vt 0.310377 0.656640
vt 0.310377 0.605302
vt 0.304554 0.605383
vt 0.310377 0.578075
vt 0.304554 0.579201
vt 0.304554 0.707565
vt 0.304554 0.741411
vt 0.310377 0.740286
vt 0.310377 0.707653
vt 0.310377 0.682929
vt 0.304554 0.682879
vt 0.447376 0.613178
vt 0.447376 0.651742
vt 0.414892 0.632134
vt 0.479697 0.632493
vt 0.389128 0.630868
vt 0.389079 0.656575
vt 0.389280 0.682910
vt 0.389540 0.707912
vt 0.389597 0.739998
vt 0.389597 0.577787
vt 0.389399 0.605223
vt 0.447376 0.578314
vt 0.415510 0.596562
vt 0.479007 0.596042
vt 0.299217 0.630424
vt 0.304985 0.630434
vt 0.304985 0.605405
vt 0.299217 0.605376
vt 0.299217 0.655007
vt 0.304985 0.655058
vt 0.299217 0.682671
vt 0.304985 0.682694
vt 0.299217 0.707972
vt 0.304985 0.707774
vt 0.299217 0.739507
vt 0.304985 0.740718
vt 0.299217 0.577296
vt 0.304985 0.578507
vt 0.013920 0.630633
vt 0.152583 0.630538
vt 0.152583 0.605555
vt 0.013920 0.605664
vt 0.013920 0.577437
vt 0.152583 0.577618
vt 0.013920 0.707646
vt 0.013920 0.739647
vt 0.152583 0.739829
vt 0.152583 0.707752
vt 0.152583 0.682593
vt 0.013920 0.682375
vt 0.013920 0.654966
vt 0.152583 0.655051
vt 0.158561 0.630530
vt 0.164257 0.630508
vt 0.164257 0.605474
vt 0.158561 0.605577
vt 0.158561 0.578739
vt 0.164257 0.577415
vt 0.158561 0.707657
vt 0.158561 0.740950
vt 0.164257 0.739626
vt 0.164257 0.707876
vt 0.164257 0.682650
vt 0.158561 0.682602
vt 0.158561 0.655053
vt 0.164257 0.655060
vt 0.008428 0.630726
vt 0.008428 0.605912
vt 0.008428 0.578863
vt 0.008428 0.741074
vt 0.008428 0.707250
vt 0.008428 0.682206
vt 0.008428 0.654933
vt 0.013920 0.630633
vt 0.152583 0.630538
vt 0.152583 0.605555
vt 0.013920 0.605664
vt 0.013920 0.577437
vt 0.152583 0.577618
vt 0.013920 0.707646
vt 0.013920 0.739647
vt 0.152583 0.739829
vt 0.152583 0.707752
vt 0.152583 0.682593
vt 0.013920 0.682375
vt 0.013920 0.654966
vt 0.152583 0.655051
vt 0.158561 0.630530
vt 0.158561 0.605577
vt 0.158561 0.578739
vt 0.158561 0.740950
vt 0.158561 0.707657
vt 0.158561 0.682602
vt 0.158561 0.655053
vt 0.008428 0.630726
vt 0.008428 0.605912
vt 0.008428 0.578863
vt 0.008428 0.741074
vt 0.008428 0.707250
vt 0.008428 0.682206
vt 0.008428 0.654933
vt 0.130958 0.853291
vt 0.126967 0.800932
vt 0.106539 0.801280
vt 0.106443 0.854002
vt 0.086290 0.800956
vt 0.082765 0.853341
vt 0.127461 0.894986
vt 0.157079 0.895551
vt 0.154353 0.888436
vt 0.127503 0.887624
vt 0.131033 0.867916
vt 0.106393 0.867916
vt 0.081710 0.867916
vt 0.465738 0.741435
vt 0.496600 0.740098
vt 0.470761 0.709307
vt 0.156335 0.878993
vt 0.184099 0.895575
vt 0.184289 0.878993
vt 0.076150 0.854448
vt 0.074732 0.867916
vt 0.136831 0.854362
vt 0.137919 0.867916
vt 0.472922 0.772813
vt 0.460683 0.772999
vt 0.458479 0.709510
vt 0.434760 0.740500
vt 0.231847 0.853119
vt 0.227640 0.800848
vt 0.206982 0.801296
vt 0.206138 0.854035
vt 0.189435 0.800929
vt 0.186731 0.853285
vt 0.231157 0.867916
vt 0.205835 0.867916
vt 0.185014 0.867916
vt 0.426524 0.796696
vt 0.458923 0.798154
vt 0.432904 0.764556
vt 0.268098 0.878993
vt 0.268145 0.895967
vt 0.295337 0.895701
vt 0.295310 0.878993
vt 0.176496 0.854366
vt 0.174967 0.867916
vt 0.237202 0.854150
vt 0.238048 0.867916
vt 0.432807 0.828257
vt 0.420146 0.828238
vt 0.420243 0.764536
vt 0.395442 0.795126
vt 0.208827 0.888865
vt 0.206324 0.895906
vt 0.265831 0.888925
vt 0.331942 0.852199
vt 0.328895 0.800397
vt 0.308373 0.800946
vt 0.307429 0.853319
vt 0.288965 0.800631
vt 0.285201 0.852676
vt 0.331683 0.867916
vt 0.306998 0.867916
vt 0.284705 0.867916
vt 0.465955 0.849474
vt 0.496600 0.850435
vt 0.472128 0.817286
vt 0.378382 0.878993
vt 0.380093 0.895977
vt 0.406453 0.895722
vt 0.406498 0.878993
vt 0.277625 0.853812
vt 0.275761 0.867916
vt 0.337775 0.853219
vt 0.337894 0.867916
vt 0.472045 0.881380
vt 0.459777 0.881139
vt 0.459884 0.817018
vt 0.434749 0.848684
vt 0.320087 0.888901
vt 0.317253 0.895953
vt 0.376199 0.888932
vt 0.431223 0.896078
vt 0.464066 0.896072
vt 0.464066 0.888839
vt 0.434000 0.889011
vt 0.358829 0.800118
vt 0.359484 0.851629
vt 0.432157 0.878993
vt 0.318940 0.878993
vt 0.207643 0.878993
vt 0.086290 0.800956
vt 0.056055 0.800582
vt 0.055107 0.853161
vt 0.082765 0.853341
vt 0.130958 0.853291
vt 0.126967 0.800932
vt 0.106539 0.801280
vt 0.106443 0.854002
vt 0.086290 0.800956
vt 0.082765 0.853341
vt 0.127461 0.894986
vt 0.157079 0.895551
vt 0.154353 0.888436
vt 0.127503 0.887624
vt 0.055534 0.800868
vt 0.055107 0.853161
vt 0.131033 0.867916
vt 0.106393 0.867916
vt 0.081710 0.867916
vt 0.465738 0.741435
vt 0.496600 0.740098
vt 0.470761 0.709307
vt 0.156335 0.878993
vt 0.184099 0.895575
vt 0.184289 0.878993
vt 0.076150 0.854448
vt 0.074732 0.867916
vt 0.136831 0.854362
vt 0.137919 0.867916
vt 0.472922 0.772813
vt 0.460683 0.772999
vt 0.458479 0.709510
vt 0.434760 0.740500
vt 0.231847 0.853119
vt 0.227640 0.800848
vt 0.206982 0.801296
vt 0.206138 0.854035
vt 0.189435 0.800929
vt 0.186731 0.853285
vt 0.231157 0.867916
vt 0.205835 0.867916
vt 0.185014 0.867916
vt 0.426524 0.796696
vt 0.458923 0.798154
vt 0.432904 0.764556
vt 0.268098 0.878993
vt 0.268145 0.895967
vt 0.295337 0.895701
vt 0.295310 0.878993
vt 0.176496 0.854366
vt 0.174967 0.867916
vt 0.237202 0.854150
vt 0.238048 0.867916
vt 0.432807 0.828257
vt 0.420146 0.828238
vt 0.420243 0.764536
vt 0.395442 0.795126
vt 0.208827 0.888865
vt 0.206324 0.895906
vt 0.265831 0.888925
vt 0.331942 0.852199
vt 0.328895 0.800397
vt 0.308373 0.800946
vt 0.307429 0.853319
vt 0.288965 0.800631
vt 0.285201 0.852676
vt 0.331683 0.867916
vt 0.306998 0.867916
vt 0.284705 0.867916
vt 0.465955 0.849474
vt 0.496600 0.850435
vt 0.472128 0.817286
vt 0.378382 0.878993
vt 0.380093 0.895977
vt 0.406453 0.895722
vt 0.406498 0.878993
vt 0.277625 0.853812
vt 0.275761 0.867916
vt 0.337775 0.853219
vt 0.337894 0.867916
vt 0.472045 0.881380
vt 0.459777 0.881139
vt 0.459884 0.817018
vt 0.434749 0.848684
vt 0.320087 0.888901
vt 0.317253 0.895953
vt 0.376199 0.888932
vt 0.431223 0.896078
vt 0.464066 0.896072
vt 0.464066 0.888839
vt 0.434000 0.889011
vt 0.432157 0.878993
vt 0.318940 0.878993
vt 0.207643 0.878993
vt 0.358959 0.799627
vt 0.328895 0.800397
vt 0.331942 0.852199
vt 0.359484 0.851629
vt 0.015187 0.994190
vt 0.012348 0.941661
vt 0.004321 0.941639
vt 0.004214 0.994190
vt 0.428362 0.947800
vt 0.464066 0.948229
vt 0.406326 0.947874
vt 0.383066 0.947708
vt 0.315605 0.947698
vt 0.295420 0.947857
vt 0.269932 0.947706
vt 0.204546 0.947677
vt 0.183878 0.947768
vt 0.159578 0.947498
vt 0.126897 0.947529
vt 0.428362 0.947800
vt 0.464066 0.948229
vt 0.406326 0.947874
vt 0.383066 0.947708
vt 0.315605 0.947698
vt 0.295420 0.947857
vt 0.269932 0.947706
vt 0.204546 0.947677
vt 0.183878 0.947768
vt 0.159578 0.947498
vt 0.126897 0.947529
vt 0.015187 0.994190
vt 0.004214 0.994190
vt 0.004321 0.941639
vt 0.012348 0.941661
vt 0.130958 0.853291
vt 0.126967 0.800932
vt 0.106539 0.801280
vt 0.106443 0.854002
vt 0.086290 0.800956
vt 0.082765 0.853341
vt 0.127461 0.894986
vt 0.157079 0.895551
vt 0.154353 0.888436
vt 0.127503 0.887624
vt 0.131033 0.867916
vt 0.106393 0.867916
vt 0.081710 0.867916
vt 0.465738 0.741435
vt 0.496600 0.740098
vt 0.470761 0.709307
vt 0.156335 0.878993
vt 0.184099 0.895575
vt 0.184289 0.878993
vt 0.076150 0.854448
vt 0.074732 0.867916
vt 0.136831 0.854362
vt 0.137919 0.867916
vt 0.472922 0.772813
vt 0.460683 0.772999
vt 0.458479 0.709510
vt 0.434760 0.740500
vt 0.231847 0.853119
vt 0.227640 0.800848
vt 0.206982 0.801296
vt 0.206138 0.854035
vt 0.189435 0.800929
vt 0.186731 0.853285
vt 0.231157 0.867916
vt 0.205835 0.867916
vt 0.185014 0.867916
vt 0.426524 0.796696
vt 0.458923 0.798154
vt 0.432904 0.764556
vt 0.268098 0.878993
vt 0.268145 0.895967
vt 0.295337 0.895701
vt 0.295310 0.878993
vt 0.176496 0.854366
vt 0.174967 0.867916
vt 0.237202 0.854150
vt 0.238048 0.867916
vt 0.432807 0.828257
vt 0.420146 0.828238
vt 0.420243 0.764536
vt 0.395442 0.795126
vt 0.208827 0.888865
vt 0.206324 0.895906
vt 0.265831 0.888925
vt 0.331942 0.852199
vt 0.328895 0.800397
vt 0.308373 0.800946
vt 0.307429 0.853319
vt 0.288965 0.800631
vt 0.285201 0.852676
vt 0.331683 0.867916
vt 0.306998 0.867916
vt 0.284705 0.867916
vt 0.465955 0.849474
vt 0.496600 0.850435
vt 0.472128 0.817286
vt 0.378382 0.878993
vt 0.380093 0.895977
vt 0.406453 0.895722
vt 0.406498 0.878993
vt 0.277625 0.853812
vt 0.275761 0.867916
vt 0.337775 0.853219
vt 0.337894 0.867916
vt 0.472045 0.881380
vt 0.459777 0.881139
vt 0.459884 0.817018
vt 0.434749 0.848684
vt 0.320087 0.888901
vt 0.317253 0.895953
vt 0.376199 0.888932
vt 0.431223 0.896078
vt 0.464066 0.896072
vt 0.464066 0.888839
vt 0.434000 0.889011
vt 0.358829 0.800118
vt 0.359484 0.851629
vt 0.432157 0.878993
vt 0.318940 0.878993
vt 0.207643 0.878993
vt 0.086290 0.800956
vt 0.056055 0.800582
vt 0.055107 0.853161
vt 0.082765 0.853341
vt 0.130958 0.853291
vt 0.126967 0.800932
vt 0.106539 0.801280
vt 0.106443 0.854002
vt 0.086290 0.800956
vt 0.082765 0.853341
vt 0.127461 0.894986
vt 0.157079 0.895551
vt 0.154353 0.888436
vt 0.127503 0.887624
vt 0.055534 0.800868
vt 0.055107 0.853161
vt 0.131033 0.867916
vt 0.106393 0.867916
vt 0.081710 0.867916
vt 0.465738 0.741435
vt 0.496600 0.740098
vt 0.470761 0.709307
vt 0.156335 0.878993
vt 0.184099 0.895575
vt 0.184289 0.878993
vt 0.076150 0.854448
vt 0.074732 0.867916
vt 0.136831 0.854362
vt 0.137919 0.867916
vt 0.472922 0.772813
vt 0.460683 0.772999
vt 0.458479 0.709510
vt 0.434760 0.740500
vt 0.231847 0.853119
vt 0.227640 0.800848
vt 0.206982 0.801296
vt 0.206138 0.854035
vt 0.189435 0.800929
vt 0.186731 0.853285
vt 0.231157 0.867916
vt 0.205835 0.867916
vt 0.185014 0.867916
vt 0.426524 0.796696
vt 0.458923 0.798154
vt 0.432904 0.764556
vt 0.268098 0.878993
vt 0.268145 0.895967
vt 0.295337 0.895701
vt 0.295310 0.878993
vt 0.176496 0.854366
vt 0.174967 0.867916
vt 0.237202 0.854150
vt 0.238048 0.867916
vt 0.432807 0.828257
vt 0.420146 0.828238
vt 0.420243 0.764536
vt 0.395442 0.795126
vt 0.208827 0.888865
vt 0.206324 0.895906
vt 0.265831 0.888925
vt 0.331942 0.852199
vt 0.328895 0.800397
vt 0.308373 0.800946
vt 0.307429 0.853319
vt 0.288965 0.800631
vt 0.285201 0.852676
vt 0.331683 0.867916
vt 0.306998 0.867916
vt 0.284705 0.867916
vt 0.465955 0.849474
vt 0.496600 0.850435
vt 0.472128 0.817286
vt 0.378382 0.878993
vt 0.380093 0.895977
vt 0.406453 0.895722
vt 0.406498 0.878993
vt 0.277625 0.853812
vt 0.275761 0.867916
vt 0.337775 0.853219
vt 0.337894 0.867916
vt 0.472045 0.881380
vt 0.459777 0.881139
vt 0.459884 0.817018
vt 0.434749 0.848684
vt 0.320087 0.888901
vt 0.317253 0.895953
vt 0.376199 0.888932
vt 0.431223 0.896078
vt 0.464066 0.896072
vt 0.464066 0.888839
vt 0.434000 0.889011
vt 0.432157 0.878993
vt 0.318940 0.878993
vt 0.207643 0.878993
vt 0.358959 0.799627
vt 0.328895 0.800397
vt 0.331942 0.852199
vt 0.359484 0.851629
vt 0.015187 0.994190
vt 0.012348 0.941661
vt 0.004321 0.941639
vt 0.004214 0.994190
vt 0.428362 0.947800
vt 0.464066 0.948229
vt 0.406326 0.947874
vt 0.383066 0.947708
vt 0.315605 0.947698
vt 0.295420 0.947857
vt 0.269932 0.947706
vt 0.204546 0.947677
vt 0.183878 0.947768
vt 0.159578 0.947498
vt 0.126897 0.947529
vt 0.428362 0.947800
vt 0.464066 0.948229
vt 0.406326 0.947874
vt 0.383066 0.947708
vt 0.315605 0.947698
vt 0.295420 0.947857
vt 0.269932 0.947706
vt 0.204546 0.947677
vt 0.183878 0.947768
vt 0.159578 0.947498
vt 0.126897 0.947529
vt 0.015187 0.994190
vt 0.004214 0.994190
vt 0.004321 0.941639
vt 0.012348 0.941661
vt 0.713948 0.522117
vt 0.704721 0.551839
vt 0.089085 0.551839
vt 0.089090 0.522117
vt 0.713951 0.551839
vt 0.089048 0.551839
vt 0.089035 0.522117
vt 0.704722 0.522117
vt 0.089045 0.488598
vt 0.704725 0.488598
vt 0.713950 0.522117
vt 0.089086 0.522117
vt 0.089086 0.488598
vt 0.713950 0.488598
vt 0.704722 0.522117
vt 0.713948 0.551839
vt 0.089089 0.551839
vt 0.089085 0.522117
vt 0.704726 0.551839
vt 0.089041 0.551839
vt 0.089035 0.522117
vt 0.713950 0.522117
vt 0.089044 0.488598
vt 0.713953 0.488598
vt 0.704719 0.522117
vt 0.089089 0.522117
vt 0.089089 0.488598
vt 0.704719 0.488598
vt 0.713948 0.522117
vt 0.704721 0.551839
vt 0.089085 0.551839
vt 0.089090 0.522117
vt 0.713951 0.551839
vt 0.089048 0.551839
vt 0.089035 0.522117
vt 0.704722 0.522117
vt 0.089045 0.488598
vt 0.704725 0.488598
vt 0.713950 0.522117
vt 0.089086 0.522117
vt 0.089086 0.488598
vt 0.713950 0.488598
vt 0.704722 0.522117
vt 0.713948 0.551839
vt 0.089089 0.551839
vt 0.089085 0.522117
vt 0.704726 0.551839
vt 0.089041 0.551839
vt 0.089035 0.522117
vt 0.713950 0.522117
vt 0.089044 0.488598
vt 0.713953 0.488598
vt 0.704719 0.522117
vt 0.089089 0.522117
vt 0.089089 0.488598
vt 0.704719 0.488598
vt 0.997026 0.225083
vt 0.997020 0.454012
vt 0.723112 0.454005
vt 0.723107 0.225091
vt 0.723107 0.225083
vt 0.997026 0.225091
vt 0.997021 0.454005
vt 0.723114 0.454012
vt 0.511625 0.551839
vt 0.511616 0.522117
vt 0.551450 0.522117
vt 0.551459 0.551839
vt 0.172158 0.488598
vt 0.172149 0.522117
vt 0.153081 0.522117
vt 0.153090 0.488598
vt 0.172158 0.488598
vt 0.172149 0.522117
vt 0.153081 0.522117
vt 0.153090 0.488598
vt 0.375115 0.551839
vt 0.375103 0.522117
vt 0.417719 0.522117
vt 0.417730 0.551839
vt 0.237501 0.488598
vt 0.237493 0.522117
vt 0.217094 0.522117
vt 0.217103 0.488598
vt 0.237501 0.488598
vt 0.237493 0.522117
vt 0.217094 0.522117
vt 0.217103 0.488598
vn -1.000000 0.000030 0.000000
vn -1.000000 0.000030 0.000000
vn -1.000000 0.000030 0.000000
vn -1.000000 0.000003 0.000000
vn -1.000000 0.000003 0.000000
vn -1.000000 0.000003 0.000000
vn -1.000000 0.000003 0.000000
vn 1.000000 -0.000030 0.000000
vn 1.000000 -0.000030 0.000000
vn 1.000000 -0.000030 0.000000
vn 1.000000 -0.000004 -0.000000
vn 1.000000 -0.000004 -0.000000
vn 1.000000 -0.000004 -0.000000
vn 1.000000 -0.000004 -0.000000
vn -0.000003 -1.000000 0.000000
vn -0.000003 -1.000000 0.000000
vn -0.000003 -1.000000 0.000000
vn -0.000003 -1.000000 0.000000
vn 0.000000 0.000942 1.000000
vn 0.000000 0.000942 1.000000
vn 0.000000 0.000942 1.000000
vn 0.000000 0.000942 1.000000
vn -1.000000 0.000723 0.000009
vn -1.000000 0.000723 0.000009
vn -1.000000 0.000723 0.000009
vn -1.000000 0.000723 0.000009
vn 1.000000 0.000821 0.000019
vn 1.000000 0.000821 0.000019
vn 1.000000 0.000821 0.000019
vn 1.000000 0.000821 0.000019
vn 0.000000 0.000887 -1.000000
vn 0.000000 0.000887 -1.000000
vn 0.000000 0.000887 -1.000000
vn 0.000000 0.000887 -1.000000
vn 0.000000 0.000898 1.000000
vn 0.000000 0.000898 1.000000
vn 0.000000 0.000898 1.000000
vn 0.000000 0.000898 1.000000
vn -1.000000 0.000662 0.000595
vn -1.000000 0.000662 0.000595
vn -1.000000 0.000662 0.000595
vn -1.000000 0.000662 0.000595
vn 1.000000 0.000725 0.000653
vn 1.000000 0.000725 0.000653
vn 1.000000 0.000725 0.000653
vn 1.000000 0.000725 0.000653
vn 0.000000 0.000954 -1.000000
vn 0.000000 0.000954 -1.000000
vn 0.000000 0.000954 -1.000000
vn 0.000000 0.000954 -1.000000
vn 1.000000 0.000000 0.000000
vn 1.000000 0.000000 0.000000
vn 1.000000 0.000000 0.000000
vn 1.000000 0.000000 0.000000
vn -0.000000 -1.000000 -0.000143
vn -0.000000 -1.000000 -0.000143
vn -0.000000 -1.000000 -0.000143
vn -0.000000 -1.000000 -0.000143
vn -1.000000 0.000000 0.000000
vn -1.000000 0.000000 0.000000
vn -1.000000 0.000000 0.000000
vn -1.000000 0.000000 0.000000
vn 0.000000 1.000000 0.000144
vn 0.000000 1.000000 0.000144
vn 0.000000 1.000000 0.000144
vn 0.000000 1.000000 0.000144
vn -0.000000 0.000000 1.000000
vn -0.000000 0.000000 1.000000
vn -0.000000 0.000000 1.000000
vn -0.000000 0.000000 1.000000
vn 0.000000 0.000000 -1.000000
vn 0.000000 0.000000 -1.000000
vn 0.000000 0.000000 -1.000000
vn 0.000000 0.000000 -1.000000
vn -0.000062 1.000000 -0.000002
vn -0.000062 1.000000 -0.000002
vn -0.000062 1.000000 -0.000002
vn -0.000062 1.000000 -0.000002
vn 0.000062 -1.000000 0.000000
vn 0.000062 -1.000000 0.000000
vn 0.000062 -1.000000 0.000000
vn 0.000062 -1.000000 0.000000
vn -0.000000 0.000000 1.000000
vn -0.000000 0.000000 1.000000
vn -0.000000 0.000000 1.000000
vn -0.000000 0.000000 1.000000
vn 0.000000 0.000000 -1.000000
vn 0.000000 0.000000 -1.000000
vn 0.000000 0.000000 -1.000000
vn 0.000000 0.000000 -1.000000
vn -0.000062 1.000000 0.000000
vn -0.000062 1.000000 0.000000
vn -0.000062 1.000000 0.000000
vn -0.000062 1.000000 0.000000
vn 0.000062 -1.000000 -0.000002
vn 0.000062 -1.000000 -0.000002
vn 0.000062 -1.000000 -0.000002
vn 0.000062 -1.000000 -0.000002
vn 1.000000 0.000000 0.000000
vn 1.000000 0.000000 0.000000
vn 1.000000 0.000000 0.000000
vn 1.000000 0.000000 0.000000
vn 0.000000 -1.000000 -0.000144
vn 0.000000 -1.000000 -0.000144
vn 0.000000 -1.000000 -0.000144
vn 0.000000 -1.000000 -0.000144
vn -1.000000 0.000000 0.000000
vn -1.000000 0.000000 0.000000
vn -1.000000 0.000000 0.000000
vn -1.000000 0.000000 0.000000
vn -0.000000 1.000000 0.000143
vn -0.000000 1.000000 0.000143
vn -0.000000 1.000000 0.000143
vn -0.000000 1.000000 0.000143
vn 1.000000 0.000000 0.000000
vn 1.000000 0.000000 0.000000
vn 1.000000 0.000000 0.000000
vn 1.000000 0.000000 0.000000
vn -0.000000 -1.000000 -0.000144
vn -0.000000 -1.000000 -0.000144
vn -0.000000 -1.000000 -0.000144
vn -0.000000 -1.000000 -0.000144
vn -1.000000 0.000000 0.000000
vn -1.000000 0.000000 0.000000
vn -1.000000 0.000000 0.000000
vn -1.000000 0.000000 0.000000
vn 0.000000 1.000000 0.000144
vn 0.000000 1.000000 0.000144
vn 0.000000 1.000000 0.000144
vn 0.000000 1.000000 0.000144
vn 0.000000 0.000000 1.000000
vn 0.000000 0.000000 1.000000
vn 0.000000 0.000000 1.000000
vn 0.000000 0.000000 1.000000
vn -0.000000 0.000000 -1.000000
vn -0.000000 0.000000 -1.000000
vn -0.000000 0.000000 -1.000000
vn -0.000000 0.000000 -1.000000
vn -0.000062 1.000000 -0.000001
vn -0.000062 1.000000 -0.000001
vn -0.000062 1.000000 -0.000001
vn -0.000062 1.000000 -0.000001
vn 0.000062 -1.000000 0.000000
vn 0.000062 -1.000000 0.000000
vn 0.000062 -1.000000 0.000000
vn 0.000062 -1.000000 0.000000
vn -0.000000 0.000000 1.000000
vn -0.000000 0.000000 1.000000
vn -0.000000 0.000000 1.000000
vn -0.000000 0.000000 1.000000
vn -0.000000 0.000000 -1.000000
vn -0.000000 0.000000 -1.000000
vn -0.000000 0.000000 -1.000000
vn -0.000000 0.000000 -1.000000
vn -0.000062 1.000000 0.000000
vn -0.000062 1.000000 0.000000
vn -0.000062 1.000000 0.000000
vn -0.000062 1.000000 0.000000
vn 0.000062 -1.000000 -0.000001
vn 0.000062 -1.000000 -0.000001
vn 0.000062 -1.000000 -0.000001
vn 0.000062 -1.000000 -0.000001
vn 1.000000 0.000000 0.000000
vn 1.000000 0.000000 0.000000
vn 1.000000 0.000000 0.000000
vn 1.000000 0.000000 0.000000
vn 0.000000 -1.000000 -0.000144
vn 0.000000 -1.000000 -0.000144
vn 0.000000 -1.000000 -0.000144
vn 0.000000 -1.000000 -0.000144
vn -1.000000 0.000000 0.000000
vn -1.000000 0.000000 0.000000
vn -1.000000 0.000000 0.000000
vn -1.000000 0.000000 0.000000
vn -0.000000 1.000000 0.000144
vn -0.000000 1.000000 0.000144
vn -0.000000 1.000000 0.000144
vn -0.000000 1.000000 0.000144
vn 1.000000 0.000000 0.000000
vn 1.000000 0.000000 0.000000
vn 1.000000 0.000000 0.000000
vn 1.000000 0.000000 0.000000
vn 0.011047 -0.904588 0.426145
vn 0.011047 -0.904588 0.426145
vn 0.012286 -0.999925 -0.000122
vn 0.012286 -0.999925 -0.000122
vn -1.000000 0.000000 0.000000
vn -1.000000 0.000000 0.000000
vn -1.000000 0.000000 0.000000
vn -1.000000 0.000000 0.000000
vn -0.011047 0.904588 -0.426145
vn -0.011047 0.904588 -0.426145
vn -0.012286 0.999925 0.000121
vn -0.012286 0.999925 0.000121
vn -0.000000 0.000000 1.000000
vn -0.000000 0.000000 1.000000
vn -0.000000 0.000000 1.000000
vn -0.000000 0.000000 1.000000
vn 0.000000 0.000000 -1.000000
vn 0.000000 0.000000 -1.000000
vn 0.000000 0.000000 -1.000000
vn 0.000000 0.000000 -1.000000
vn -0.000051 0.914000 -0.405714
vn -0.000051 0.914000 -0.405714
vn -0.000051 0.914000 -0.405714
vn -0.000051 0.914000 -0.405714
vn 0.000050 -0.914000 0.405714
vn 0.000050 -0.914000 0.405714
vn 0.000050 -0.914000 0.405714
vn 0.000050 -0.914000 0.405714
vn 0.000000 0.000000 1.000000
vn 0.000000 0.000000 1.000000
vn 0.000000 0.000000 1.000000
vn 0.000000 0.000000 1.000000
vn 0.000000 0.000000 -1.000000
vn 0.000000 0.000000 -1.000000
vn 0.000000 0.000000 -1.000000
vn 0.000000 0.000000 -1.000000
vn -0.000051 0.914021 0.405666
vn -0.000051 0.914021 0.405666
vn -0.000051 0.914021 0.405666
vn -0.000051 0.914021 0.405666
vn 0.000050 -0.914022 -0.405664
vn 0.000050 -0.914022 -0.405664
vn 0.000050 -0.914022 -0.405664
vn 0.000050 -0.914022 -0.405664
vn 0.999645 0.000000 0.026664
vn 0.999645 0.000000 0.026664
vn 1.000000 0.000000 0.000035
vn 1.000000 0.000000 0.000035
vn -0.010815 -0.904755 0.425794
vn -0.010815 -0.904755 0.425794
vn -0.012027 -0.999928 -0.000122
vn -0.012027 -0.999928 -0.000122
vn -1.000000 0.000000 0.000000
vn -1.000000 0.000000 0.000000
vn -1.000000 0.000000 0.000000
vn -1.000000 0.000000 0.000000
vn 0.010817 0.904756 -0.425794
vn 0.010817 0.904756 -0.425794
vn 0.012028 0.999928 0.000123
vn 0.012028 0.999928 0.000123
vn 1.000000 0.000000 0.000000
vn 1.000000 0.000000 0.000000
vn 0.011181 -0.904482 -0.426365
vn 0.011181 -0.904482 -0.426365
vn -1.000000 0.000000 0.000000
vn -1.000000 0.000000 0.000000
vn -0.011181 0.904483 0.426363
vn -0.011181 0.904483 0.426363
vn 0.999646 0.000000 -0.026594
vn 0.999646 0.000000 -0.026594
vn -0.010949 -0.904649 -0.426016
vn -0.010949 -0.904649 -0.426016
vn -1.000000 0.000000 0.000000
vn -1.000000 0.000000 0.000000
vn 0.010949 0.904649 0.426016
vn 0.010949 0.904649 0.426016
vn -0.677204 0.735786 0.003712
vn -0.677204 0.735786 0.003712
vn -0.661606 0.366393 0.654243
vn -0.661606 0.366393 0.654243
vn -0.661847 0.358832 -0.658178
vn -0.661847 0.358832 -0.658178
vn -0.616513 -0.407227 -0.673853
vn -0.616513 -0.407227 -0.673853
vn -0.591193 -0.806520 0.003973
vn -0.591193 -0.806520 0.003973
vn -0.623437 -0.402932 0.670054
vn -0.623437 -0.402932 0.670054
vn 1.000000 0.000001 0.000032
vn 1.000000 0.000000 0.000032
vn 1.000000 0.000004 0.000000
vn 1.000000 0.000000 0.000064
vn -0.000002 0.999996 0.002996
vn -0.000002 0.999996 0.002996
vn -0.000001 0.481719 0.876326
vn -0.000001 0.481719 0.876326
vn -0.000001 -0.506665 0.862143
vn -0.000001 -0.506665 0.862143
vn -0.000002 -0.999989 0.004640
vn -0.000002 -0.999989 0.004640
vn -0.000001 -0.511346 -0.859375
vn -0.000001 -0.511346 -0.859375
vn -0.000001 0.483643 -0.875265
vn -0.000001 0.483643 -0.875265
vn 1.000000 0.000000 0.000033
vn 1.000000 0.000004 0.000000
vn 1.000000 0.000000 0.000065
vn 0.711933 0.702248 -0.000316
vn 0.711933 0.702248 -0.000316
vn 0.680667 0.341194 -0.648290
vn 0.680667 0.341194 -0.648290
vn 0.669007 0.347967 0.656772
vn 0.669007 0.347967 0.656772
vn 0.620291 -0.401814 0.673635
vn 0.620291 -0.401814 0.673635
vn 0.610632 -0.791910 -0.002720
vn 0.610632 -0.791910 -0.002720
vn 0.628898 -0.398003 -0.667893
vn 0.628898 -0.398003 -0.667893
vn -1.000000 -0.000002 -0.000064
vn -1.000000 0.000000 -0.000064
vn -1.000000 -0.000006 0.000000
vn -1.000000 0.000000 -0.000128
vn 0.000002 0.999996 -0.002980
vn 0.000002 0.999996 -0.002980
vn 0.000001 0.481715 -0.876328
vn 0.000001 0.481715 -0.876328
vn 0.000002 -0.506668 -0.862141
vn 0.000002 -0.506668 -0.862141
vn 0.000002 -0.999989 -0.004642
vn 0.000002 -0.999989 -0.004642
vn 0.000001 -0.511321 0.859390
vn 0.000001 -0.511321 0.859390
vn 0.000001 0.483656 0.875258
vn 0.000001 0.483656 0.875258
vn -1.000000 0.000000 -0.000065
vn -1.000000 -0.000006 0.000000
vn -1.000000 0.000000 -0.000130
vn 0.720121 0.693843 -0.002879
vn 0.720121 0.693843 -0.002879
vn 0.686294 0.344907 -0.640344
vn 0.686294 0.344907 -0.640344
vn 0.686321 0.352020 0.636432
vn 0.686321 0.352020 0.636432
vn 0.639517 -0.386003 0.664846
vn 0.639517 -0.386003 0.664846
vn 0.636179 -0.771517 0.006165
vn 0.636179 -0.771517 0.006165
vn 0.647649 -0.384402 -0.657865
vn 0.647649 -0.384402 -0.657865
vn 0.000000 0.999989 -0.004686
vn 0.000000 0.999989 -0.004686
vn 0.000000 0.496457 -0.868062
vn 0.000000 0.496457 -0.868062
vn -0.000001 -0.504096 -0.863648
vn -0.000001 -0.504096 -0.863648
vn -0.000002 -0.999988 0.004896
vn -0.000002 -0.999988 0.004896
vn -0.000004 -0.494130 0.869388
vn -0.000004 -0.494130 0.869388
vn -0.000003 0.506227 0.862400
vn -0.000003 0.506227 0.862400
vn -0.653553 0.756870 -0.003966
vn -0.653553 0.756870 -0.003966
vn -0.651640 0.376055 -0.658747
vn -0.651640 0.376055 -0.658747
vn -0.652177 -0.381312 -0.655184
vn -0.652177 -0.381312 -0.655184
vn -0.653699 -0.756744 0.004135
vn -0.653699 -0.756744 0.004135
vn -0.651712 -0.374348 0.659647
vn -0.651712 -0.374348 0.659647
vn -0.652400 0.382807 0.654090
vn -0.652400 0.382807 0.654090
vn 0.668916 0.368474 -0.645584
vn 0.670839 0.741593 -0.003914
vn 0.670839 0.741593 -0.003914
vn 0.668916 0.368474 -0.645584
vn 0.669421 -0.373635 -0.642084
vn 0.669421 -0.373635 -0.642084
vn 0.670687 -0.741729 0.004108
vn 0.670687 -0.741729 0.004108
vn 0.668595 -0.367017 0.646746
vn 0.668595 -0.367017 0.646746
vn 0.669453 0.375116 0.641188
vn 0.669453 0.375116 0.641188
vn 0.000000 0.496455 -0.868063
vn 0.000001 0.999989 -0.004692
vn 0.000001 0.999989 -0.004692
vn 0.000000 0.496455 -0.868063
vn -0.000001 -0.504099 -0.863646
vn -0.000001 -0.504099 -0.863646
vn 0.000000 -0.999988 0.004899
vn 0.000000 -0.999988 0.004899
vn 0.000003 -0.494130 0.869388
vn 0.000003 -0.494130 0.869388
vn 0.000002 0.506230 0.862399
vn 0.000002 0.506230 0.862399
vn -0.752906 0.658126 -0.001934
vn -0.752906 0.658126 -0.001934
vn -0.693176 0.327444 -0.642097
vn -0.693176 0.327444 -0.642097
vn -0.621354 -0.395423 -0.676432
vn -0.621354 -0.395423 -0.676432
vn -0.597376 -0.801921 0.008087
vn -0.597376 -0.801921 0.008087
vn -0.603898 -0.405501 0.686204
vn -0.603898 -0.405501 0.686204
vn -0.692783 0.334921 0.638655
vn -0.692783 0.334921 0.638655
vn 0.000000 0.999989 -0.004687
vn 0.000000 0.999989 -0.004687
vn 0.000000 0.496457 -0.868062
vn 0.000000 0.496457 -0.868062
vn -0.000001 -0.504097 -0.863647
vn -0.000001 -0.504097 -0.863647
vn -0.000002 -0.999988 0.004896
vn -0.000002 -0.999988 0.004896
vn -0.000004 -0.494131 0.869388
vn -0.000004 -0.494131 0.869388
vn -0.000003 0.506227 0.862400
vn -0.000003 0.506227 0.862400
vn 0.671830 0.363650 -0.645293
vn 0.684620 0.728886 -0.004519
vn 0.684620 0.728886 -0.004519
vn 0.671830 0.363650 -0.645293
vn 0.671026 -0.370006 -0.642511
vn 0.671026 -0.370006 -0.642511
vn 0.678260 -0.734811 0.004106
vn 0.678260 -0.734811 0.004106
vn 0.669399 -0.364711 0.647218
vn 0.669399 -0.364711 0.647218
vn 0.675084 0.366873 0.640051
vn 0.675084 0.366873 0.640051
vn -0.748696 0.662908 -0.002711
vn -0.748696 0.662908 -0.002711
vn -0.716253 0.329538 -0.615131
vn -0.716253 0.329538 -0.615131
vn -0.679019 -0.370434 -0.633808
vn -0.679019 -0.370434 -0.633808
vn -0.667841 -0.744277 0.006351
vn -0.667841 -0.744277 0.006351
vn -0.671057 -0.372780 0.640872
vn -0.671057 -0.372780 0.640872
vn -0.716272 0.336456 0.611352
vn -0.716272 0.336456 0.611352
vn -0.664821 -0.670028 -0.330265
vn -0.326036 -0.858874 -0.395014
vn -0.025018 -0.895452 -0.444455
vn -0.025476 -0.897168 -0.440954
vn 0.576086 -0.732785 -0.362146
vn 0.804949 -0.524697 -0.277040
vn 0.018709 -0.391429 0.920018
vn 0.018709 -0.391429 0.920018
vn 0.018709 -0.391429 0.920018
vn 0.018709 -0.391429 0.920018
vn -0.907796 -0.363769 -0.208755
vn -0.025950 -0.898932 -0.437319
vn 0.896689 -0.385607 -0.217387
vn 0.000371 -0.375458 0.926839
vn 0.000559 -0.290712 0.956811
vn -0.077841 -0.334933 0.939021
vn 0.908465 0.401576 0.115878
vn 0.840174 0.513365 0.174826
vn 0.002900 0.935288 0.353875
vn 0.002832 0.940464 0.339882
vn -0.837990 0.516499 0.176072
vn -0.907292 0.403989 0.116680
vn 0.079218 -0.334716 0.938983
vn 0.080496 -0.417447 0.905129
vn -0.079930 -0.413394 0.907037
vn -0.000266 -0.452501 0.891764
vn -0.661444 -0.672838 -0.331330
vn -0.322433 -0.860054 -0.395405
vn -0.017870 -0.895597 -0.444507
vn -0.018227 -0.897328 -0.440987
vn 0.305455 -0.865465 -0.397074
vn 0.645288 -0.686012 -0.336142
vn -0.906163 -0.367067 -0.210071
vn -0.018598 -0.899107 -0.437333
vn 0.898215 -0.382757 -0.216117
vn 0.000715 -0.375401 0.926862
vn 0.001264 -0.290724 0.956806
vn -0.077511 -0.333504 0.939557
vn 0.913495 0.391298 0.111412
vn 0.849240 0.500300 0.168794
vn 0.026551 0.934975 0.353718
vn 0.026552 0.940136 0.339763
vn -0.829197 0.528573 0.181778
vn -0.902442 0.413474 0.120988
vn 0.079626 -0.336196 0.938420
vn 0.080726 -0.416882 0.905369
vn -0.079843 -0.413776 0.906871
vn 0.000009 -0.452285 0.891873
vn -0.000009 -0.391368 0.920234
vn -0.000009 -0.391368 0.920234
vn -0.000009 -0.391368 0.920234
vn -0.000009 -0.391368 0.920234
vn -0.658076 -0.673623 -0.336404
vn -0.323189 -0.856346 -0.402767
vn -0.005575 -0.895740 -0.444543
vn -0.005722 -0.897464 -0.441050
vn 0.311139 -0.863698 -0.396507
vn 0.650702 -0.681600 -0.334675
vn -0.903406 -0.372586 -0.212218
vn -0.005874 -0.899236 -0.437425
vn 0.900890 -0.377421 -0.214359
vn 0.000779 -0.375288 0.926908
vn 0.001120 -0.290438 0.956893
vn -0.077755 -0.333704 0.939466
vn 0.912156 0.394152 0.112324
vn 0.846872 0.503822 0.170209
vn 0.020521 0.935113 0.353754
vn 0.020487 0.940293 0.339750
vn -0.831379 0.525611 0.180394
vn -0.903634 0.411160 0.119972
vn 0.079715 -0.335519 0.938655
vn 0.081029 -0.415931 0.905779
vn -0.079815 -0.414655 0.906472
vn 0.000360 -0.452401 0.891815
vn -0.000031 -0.391385 0.920227
vn -0.000031 -0.391385 0.920227
vn -0.000031 -0.391385 0.920227
vn -0.000031 -0.391385 0.920227
vn -0.018078 -0.391557 0.919976
vn -0.018078 -0.391557 0.919976
vn -0.018078 -0.391557 0.919976
vn -0.018078 -0.391557 0.919976
vn -0.014368 -0.911996 -0.409947
vn -0.014368 -0.911996 -0.409947
vn 0.015621 -0.911896 -0.410123
vn 0.015621 -0.911896 -0.410123
vn 0.015621 -0.911896 -0.410123
vn 0.015621 -0.911896 -0.410123
vn -0.664610 -0.670181 -0.330381
vn -0.325802 -0.858943 -0.395058
vn -0.024977 -0.895452 -0.444457
vn -0.025437 -0.897143 -0.441008
vn 0.309076 -0.860898 -0.404137
vn 0.644497 -0.684558 -0.340594
vn 0.018640 -0.391405 0.920030
vn 0.018640 -0.391405 0.920030
vn 0.018640 -0.391405 0.920030
vn 0.018640 -0.391405 0.920030
vn 0.014817 -0.911975 -0.409978
vn 0.014817 -0.911975 -0.409978
vn -0.907699 -0.363925 -0.208904
vn -0.025914 -0.898880 -0.437427
vn 0.896582 -0.385711 -0.217643
vn 0.000391 -0.375370 0.926875
vn 0.000595 -0.290565 0.956855
vn -0.077899 -0.334773 0.939074
vn 0.908366 0.401819 0.115812
vn 0.840004 0.513644 0.174826
vn 0.002931 0.935292 0.353865
vn 0.002861 0.940471 0.339861
vn -0.837787 0.516792 0.176177
vn -0.907173 0.404237 0.116751
vn 0.079329 -0.334508 0.939048
vn 0.080546 -0.417350 0.905169
vn -0.079957 -0.413369 0.907046
vn -0.000260 -0.452592 0.891717
vn -0.661262 -0.672963 -0.331441
vn -0.322237 -0.860116 -0.395428
vn -0.017883 -0.895600 -0.444500
vn -0.018236 -0.897317 -0.441009
vn 0.305248 -0.865526 -0.397101
vn 0.645078 -0.686149 -0.336265
vn -0.906081 -0.367179 -0.210232
vn -0.018601 -0.899082 -0.437386
vn 0.898101 -0.382916 -0.216309
vn 0.000689 -0.375310 0.926899
vn 0.001261 -0.290614 0.956840
vn -0.077582 -0.333354 0.939604
vn 0.913403 0.391518 0.111397
vn 0.849073 0.500570 0.168832
vn 0.026560 0.934981 0.353701
vn 0.026567 0.940149 0.339726
vn -0.828994 0.528872 0.181835
vn -0.902314 0.413751 0.120998
vn 0.079666 -0.335970 0.938497
vn 0.080683 -0.416749 0.905434
vn -0.079874 -0.413745 0.906882
vn -0.000037 -0.452374 0.891828
vn -0.000024 -0.391290 0.920267
vn -0.000024 -0.391290 0.920267
vn -0.000024 -0.391290 0.920267
vn -0.000024 -0.391290 0.920267
vn -0.817195 -0.508763 -0.270837
vn -0.599818 -0.716577 -0.355999
vn -0.005529 -0.895747 -0.444530
vn -0.005695 -0.897444 -0.441091
vn 0.310972 -0.863747 -0.396532
vn 0.650516 -0.681732 -0.334769
vn -0.903281 -0.372733 -0.212495
vn -0.005868 -0.899189 -0.437521
vn 0.900775 -0.377611 -0.214510
vn 0.000763 -0.375308 0.926900
vn 0.001090 -0.290501 0.956874
vn -0.077744 -0.333673 0.939478
vn 0.912084 0.394325 0.112298
vn 0.846728 0.504055 0.170237
vn 0.020514 0.935122 0.353732
vn 0.020477 0.940311 0.339700
vn -0.831236 0.525835 0.180399
vn -0.903566 0.411329 0.119902
vn 0.079661 -0.335546 0.938649
vn 0.080958 -0.415966 0.905769
vn -0.079762 -0.414623 0.906491
vn 0.000356 -0.452464 0.891783
vn 0.000001 -0.391123 0.920339
vn 0.000001 -0.391123 0.920339
vn 0.000001 -0.391123 0.920339
vn 0.000001 -0.391123 0.920339
vn -0.018200 -0.391164 0.920141
vn -0.018200 -0.391164 0.920141
vn -0.018200 -0.391164 0.920141
vn -0.018200 -0.391164 0.920141
vn -0.015030 -0.911939 -0.410050
vn -0.015030 -0.911939 -0.410050
vn -0.015030 -0.911939 -0.410050
vn -0.015030 -0.911939 -0.410050
vn -0.999993 -0.001485 0.003458
vn -0.999993 -0.001485 0.003458
vn -0.999993 -0.001485 0.003458
vn -0.999993 -0.001485 0.003458
vn -0.013764 0.919551 0.392729
vn -0.013764 0.919551 0.392729
vn -0.013764 0.919551 0.392729
vn -0.013764 0.919551 0.392729
vn 0.020546 0.929613 0.367963
vn -0.653465 0.703386 0.279699
vn 0.684012 0.678707 0.267366
vn 0.000000 0.919659 0.392718
vn 0.000000 0.919659 0.392718
vn 0.000000 0.919659 0.392718
vn 0.000000 0.919659 0.392718
vn 0.026547 0.929496 0.367875
vn -0.649141 0.706707 0.281392
vn 0.688598 0.674833 0.265392
vn 0.000000 0.919660 0.392715
vn 0.000000 0.919660 0.392715
vn 0.000000 0.919660 0.392715
vn 0.000000 0.919660 0.392715
vn 0.003002 0.929794 0.368068
vn -0.666307 0.693277 0.274596
vn 0.670772 0.689651 0.272849
vn 0.014153 0.919618 0.392559
vn 0.014153 0.919618 0.392559
vn 0.014153 0.919618 0.392559
vn 0.014153 0.919618 0.392559
vn -0.013699 0.919608 0.392598
vn -0.013699 0.919608 0.392598
vn -0.013699 0.919608 0.392598
vn -0.013699 0.919608 0.392598
vn 0.020550 0.929616 0.367957
vn -0.653780 0.703139 0.279584
vn 0.684322 0.678435 0.267264
vn -0.000017 0.919661 0.392713
vn -0.000017 0.919661 0.392713
vn -0.000017 0.919661 0.392713
vn -0.000017 0.919661 0.392713
vn 0.026544 0.929498 0.367870
vn -0.649496 0.706429 0.281270
vn 0.688933 0.674536 0.265279
vn -0.000017 0.919661 0.392713
vn -0.000017 0.919661 0.392713
vn -0.000017 0.919661 0.392713
vn -0.000017 0.919661 0.392713
vn 0.002969 0.929795 0.368066
vn -0.666685 0.692967 0.274458
vn 0.671100 0.689371 0.272751
vn 0.014296 0.919569 0.392669
vn 0.014296 0.919569 0.392669
vn 0.014296 0.919569 0.392669
vn 0.014296 0.919569 0.392669
vn 0.999993 0.001539 -0.003458
vn 0.999993 0.001539 -0.003458
vn 0.999993 0.001539 -0.003458
vn 0.999993 0.001539 -0.003458
vn 0.664822 -0.670028 0.330265
vn 0.326043 -0.858872 0.395013
vn 0.025023 -0.895449 0.444460
vn 0.025474 -0.897166 0.440958
vn -0.576090 -0.732782 0.362146
vn -0.804954 -0.524685 0.277046
vn -0.018710 -0.391391 -0.920034
vn -0.018710 -0.391391 -0.920034
vn -0.018710 -0.391391 -0.920034
vn -0.018710 -0.391391 -0.920034
vn 0.907792 -0.363775 0.208760
vn 0.025940 -0.898931 0.437322
vn -0.896694 -0.385590 0.217395
vn -0.000377 -0.375473 -0.926833
vn -0.000568 -0.290689 -0.956818
vn 0.077829 -0.334961 -0.939012
vn -0.908464 0.401578 -0.115879
vn -0.840170 0.513372 -0.174824
vn -0.002892 0.935288 -0.353876
vn -0.002838 0.940464 -0.339882
vn 0.837996 0.516492 -0.176066
vn 0.907293 0.403990 -0.116667
vn -0.079221 -0.334731 -0.938978
vn -0.080509 -0.417461 -0.905121
vn 0.079937 -0.413442 -0.907015
vn 0.000265 -0.452501 -0.891764
vn 0.661446 -0.672833 0.331338
vn 0.322434 -0.860053 0.395406
vn 0.017873 -0.895598 0.444504
vn 0.018227 -0.897326 0.440992
vn -0.305454 -0.865468 0.397068
vn -0.645283 -0.686014 0.336146
vn 0.906166 -0.367054 0.210083
vn 0.018593 -0.899101 0.437345
vn -0.898210 -0.382761 0.216132
vn -0.000710 -0.375414 -0.926857
vn -0.001264 -0.290697 -0.956815
vn 0.077501 -0.333533 -0.939548
vn -0.913497 0.391296 -0.111402
vn -0.849246 0.500291 -0.168789
vn -0.026560 0.934977 -0.353713
vn -0.026550 0.940139 -0.339756
vn 0.829189 0.528588 -0.181770
vn 0.902436 0.413488 -0.120982
vn -0.079611 -0.336206 -0.938418
vn -0.080721 -0.416899 -0.905361
vn 0.079851 -0.413821 -0.906850
vn -0.000002 -0.452285 -0.891874
vn 0.000009 -0.391323 -0.920253
vn 0.000009 -0.391323 -0.920253
vn 0.000009 -0.391323 -0.920253
vn 0.000009 -0.391323 -0.920253
vn 0.658069 -0.673629 0.336407
vn 0.323182 -0.856351 0.402761
vn 0.005557 -0.895739 0.444546
vn 0.005713 -0.897462 0.441055
vn -0.311149 -0.863691 0.396514
vn -0.650706 -0.681596 0.334677
vn 0.903399 -0.372597 0.212231
vn 0.005876 -0.899233 0.437431
vn -0.900889 -0.377425 0.214359
vn -0.000784 -0.375302 -0.926902
vn -0.001129 -0.290448 -0.956890
vn 0.077729 -0.333751 -0.939451
vn -0.912158 0.394146 -0.112328
vn -0.846872 0.503821 -0.170210
vn -0.020516 0.935114 -0.353752
vn -0.020482 0.940294 -0.339747
vn 0.831389 0.525599 -0.180384
vn 0.903644 0.411142 -0.119955
vn -0.079704 -0.335537 -0.938649
vn -0.081027 -0.415932 -0.905779
vn 0.079806 -0.414688 -0.906457
vn -0.000361 -0.452381 -0.891825
vn 0.000031 -0.391345 -0.920244
vn 0.000031 -0.391345 -0.920244
vn 0.000031 -0.391345 -0.920244
vn 0.000031 -0.391345 -0.920244
vn 0.018068 -0.391557 -0.919977
vn 0.018068 -0.391557 -0.919977
vn 0.018068 -0.391557 -0.919977
vn 0.018068 -0.391557 -0.919977
vn 0.014370 -0.911998 0.409943
vn 0.014370 -0.911998 0.409943
vn -0.015616 -0.911896 0.410125
vn -0.015616 -0.911896 0.410125
vn -0.015616 -0.911896 0.410125
vn -0.015616 -0.911896 0.410125
vn 0.664602 -0.670187 0.330383
vn 0.325794 -0.858946 0.395056
vn 0.024973 -0.895453 0.444455
vn 0.025435 -0.897143 0.441007
vn -0.309074 -0.860898 0.404138
vn -0.644495 -0.684558 0.340597
vn -0.018629 -0.391405 -0.920030
vn -0.018629 -0.391405 -0.920030
vn -0.018629 -0.391405 -0.920030
vn -0.018629 -0.391405 -0.920030
vn -0.014820 -0.911976 0.409976
vn -0.014820 -0.911976 0.409976
vn 0.907695 -0.363932 0.208910
vn 0.025913 -0.898880 0.437427
vn -0.896583 -0.385707 0.217645
vn -0.000390 -0.375377 -0.926872
vn -0.000594 -0.290532 -0.956865
vn 0.077919 -0.334772 -0.939072
vn -0.908360 0.401834 -0.115810
vn -0.839996 0.513657 -0.174823
vn -0.002929 0.935293 -0.353861
vn -0.002860 0.940472 -0.339860
vn 0.837785 0.516796 -0.176178
vn 0.907171 0.404238 -0.116755
vn -0.079346 -0.334508 -0.939047
vn -0.080572 -0.417376 -0.905155
vn 0.079985 -0.413393 -0.907033
vn 0.000260 -0.452611 -0.891708
vn 0.661261 -0.672964 0.331441
vn 0.322233 -0.860118 0.395428
vn 0.017878 -0.895600 0.444501
vn 0.018244 -0.897315 0.441014
vn -0.305248 -0.865524 0.397104
vn -0.645075 -0.686149 0.336270
vn 0.906079 -0.367182 0.210234
vn 0.018623 -0.899077 0.437395
vn -0.898099 -0.382918 0.216315
vn -0.000689 -0.375316 -0.926897
vn -0.001262 -0.290582 -0.956849
vn 0.077601 -0.333355 -0.939602
vn -0.913397 0.391533 -0.111395
vn -0.849069 0.500579 -0.168828
vn -0.026557 0.934983 -0.353696
vn -0.026551 0.940149 -0.339728
vn 0.828998 0.528864 -0.181836
vn 0.902324 0.413726 -0.121002
vn -0.079685 -0.335973 -0.938495
vn -0.080710 -0.416780 -0.905417
vn 0.079902 -0.413761 -0.906873
vn 0.000038 -0.452388 -0.891821
vn 0.000021 -0.391268 -0.920277
vn 0.000021 -0.391268 -0.920277
vn 0.000021 -0.391268 -0.920277
vn 0.000021 -0.391268 -0.920277
vn 0.817200 -0.508747 0.270852
vn 0.599831 -0.716563 0.356007
vn 0.005539 -0.895743 0.444538
vn 0.005694 -0.897442 0.441095
vn -0.310971 -0.863747 0.396533
vn -0.650510 -0.681735 0.334775
vn 0.903283 -0.372716 0.212513
vn 0.005855 -0.899189 0.437522
vn -0.900768 -0.377621 0.214522
vn -0.000763 -0.375318 -0.926896
vn -0.001090 -0.290508 -0.956872
vn 0.077730 -0.333701 -0.939469
vn -0.912086 0.394324 -0.112286
vn -0.846732 0.504050 -0.170231
vn -0.020517 0.935124 -0.353725
vn -0.020472 0.940316 -0.339686
vn 0.831225 0.525858 -0.180385
vn 0.903553 0.411363 -0.119883
vn -0.079647 -0.335570 -0.938642
vn -0.080956 -0.415975 -0.905765
vn 0.079759 -0.414640 -0.906484
vn -0.000356 -0.452447 -0.891791
vn -0.000001 -0.391125 -0.920338
vn -0.000001 -0.391125 -0.920338
vn -0.000001 -0.391125 -0.920338
vn -0.000001 -0.391125 -0.920338
vn 0.018194 -0.391140 -0.920151
vn 0.018194 -0.391140 -0.920151
vn 0.018194 -0.391140 -0.920151
vn 0.018194 -0.391140 -0.920151
vn 0.015030 -0.911941 0.410046
vn 0.015030 -0.911941 0.410046
vn 0.015030 -0.911941 0.410046
vn 0.015030 -0.911941 0.410046
vn 0.999993 -0.001493 -0.003458
vn 0.999993 -0.001493 -0.003458
vn 0.999993 -0.001493 -0.003458
vn 0.999993 -0.001493 -0.003458
vn 0.013761 0.919550 -0.392733
vn 0.013761 0.919550 -0.392733
vn 0.013761 0.919550 -0.392733
vn 0.013761 0.919550 -0.392733
vn -0.020557 0.929613 -0.367964
vn 0.653460 0.703392 -0.279697
vn -0.684023 0.678695 -0.267368
vn 0.000000 0.919659 -0.392719
vn 0.000000 0.919659 -0.392719
vn 0.000000 0.919659 -0.392719
vn 0.000000 0.919659 -0.392719
vn -0.026558 0.929501 -0.367862
vn 0.649126 0.706724 -0.281384
vn -0.688600 0.674834 -0.265386
vn 0.000000 0.919659 -0.392718
vn 0.000000 0.919659 -0.392718
vn 0.000000 0.919659 -0.392718
vn 0.000000 0.919659 -0.392718
vn -0.003000 0.929797 -0.368060
vn 0.666301 0.693283 -0.274593
vn -0.670763 0.689661 -0.272846
vn -0.014148 0.919618 -0.392560
vn -0.014148 0.919618 -0.392560
vn -0.014148 0.919618 -0.392560
vn -0.014148 0.919618 -0.392560
vn 0.013694 0.919612 -0.392588
vn 0.013694 0.919612 -0.392588
vn 0.013694 0.919612 -0.392588
vn 0.013694 0.919612 -0.392588
vn -0.020545 0.929617 -0.367954
vn 0.653783 0.703135 -0.279588
vn -0.684317 0.678442 -0.267258
vn 0.000014 0.919658 -0.392720
vn 0.000014 0.919658 -0.392720
vn 0.000014 0.919658 -0.392720
vn 0.000014 0.919658 -0.392720
vn -0.026564 0.929498 -0.367869
vn 0.649482 0.706446 -0.281262
vn -0.688948 0.674518 -0.265284
vn 0.000016 0.919663 -0.392709
vn 0.000016 0.919663 -0.392709
vn 0.000016 0.919663 -0.392709
vn 0.000016 0.919663 -0.392709
vn -0.002947 0.929794 -0.368068
vn 0.666704 0.692947 -0.274465
vn -0.671085 0.689387 -0.272745
vn -0.014294 0.919568 -0.392672
vn -0.014294 0.919568 -0.392672
vn -0.014294 0.919568 -0.392672
vn -0.014294 0.919568 -0.392672
vn -0.999993 0.001539 0.003458
vn -0.999993 0.001539 0.003458
vn -0.999993 0.001539 0.003458
vn -0.999993 0.001539 0.003458
vn 1.000000 0.000000 0.000000
vn 1.000000 0.000000 0.000000
vn 1.000000 0.000000 0.000000
vn 1.000000 0.000000 0.000000
vn -1.000000 0.000000 0.000000
vn -1.000000 0.000000 0.000000
vn -1.000000 0.000000 0.000000
vn -1.000000 0.000000 0.000000
vn 0.000012 0.000073 1.000000
vn 0.000012 0.000073 1.000000
vn 0.000012 0.000073 1.000000
vn 0.000012 0.000073 1.000000
vn 0.000000 -0.000075 -1.000000
vn 0.000000 -0.000075 -1.000000
vn 0.000000 -0.000075 -1.000000
vn 0.000000 -0.000075 -1.000000
vn 1.000000 -0.000000 0.000000
vn 1.000000 -0.000000 0.000000
vn 1.000000 -0.000000 0.000000
vn 1.000000 -0.000000 0.000000
vn -1.000000 0.000000 0.000000
vn -1.000000 0.000000 0.000000
vn -1.000000 0.000000 0.000000
vn -1.000000 0.000000 0.000000
vn 0.000012 0.000072 1.000000
vn 0.000012 0.000072 1.000000
vn 0.000012 0.000072 1.000000
vn 0.000012 0.000072 1.000000
vn 0.000000 -0.000076 -1.000000
vn 0.000000 -0.000076 -1.000000
vn 0.000000 -0.000076 -1.000000
vn 0.000000 -0.000076 -1.000000
vn 1.000000 -0.000000 0.000000
vn 1.000000 -0.000000 0.000000
vn 1.000000 -0.000000 0.000000
vn 1.000000 -0.000000 0.000000
vn -1.000000 0.000000 0.000000
vn -1.000000 0.000000 0.000000
vn -1.000000 0.000000 0.000000
vn -1.000000 0.000000 0.000000
vn 0.000012 0.000073 1.000000
vn 0.000012 0.000073 1.000000
vn 0.000012 0.000073 1.000000
vn 0.000012 0.000073 1.000000
vn 0.000000 -0.000075 -1.000000
vn 0.000000 -0.000075 -1.000000
vn 0.000000 -0.000075 -1.000000
vn 0.000000 -0.000075 -1.000000
vn 1.000000 -0.000000 0.000000
vn 1.000000 -0.000000 0.000000
vn 1.000000 -0.000000 0.000000
vn 1.000000 -0.000000 0.000000
vn -1.000000 0.000000 0.000000
vn -1.000000 0.000000 0.000000
vn -1.000000 0.000000 0.000000
vn -1.000000 0.000000 0.000000
vn 0.000012 0.000072 1.000000
vn 0.000012 0.000072 1.000000
vn 0.000012 0.000072 1.000000
vn 0.000012 0.000072 1.000000
vn 0.000000 -0.000076 -1.000000
vn 0.000000 -0.000076 -1.000000
vn 0.000000 -0.000076 -1.000000
vn 0.000000 -0.000076 -1.000000
vn -0.000293 -0.000995 -1.000000
vn -0.000293 -0.000995 -1.000000
vn -0.000293 -0.000995 -1.000000
vn -0.000293 -0.000995 -1.000000
vn 0.000293 0.000995 1.000000
vn 0.000293 0.000995 1.000000
vn 0.000293 0.000995 1.000000
vn 0.000293 0.000995 1.000000
vn 0.000000 -1.000000 0.000601
vn 0.000000 -1.000000 0.000601
vn 0.000000 -1.000000 0.000601
vn 0.000000 -1.000000 0.000601
vn 0.000020 -1.000000 0.000037
vn 0.000020 -1.000000 0.000037
vn 0.000020 -1.000000 0.000037
vn 0.000020 -1.000000 0.000037
vn 0.000020 -1.000000 0.000037
vn 0.000020 -1.000000 0.000037
vn 0.000020 -1.000000 0.000037
vn 0.000020 -1.000000 0.000037
vn 0.000000 -1.000000 0.000646
vn 0.000000 -1.000000 0.000646
vn 0.000000 -1.000000 0.000646
vn 0.000000 -1.000000 0.000646
vn 0.000018 -1.000000 0.000039
vn 0.000018 -1.000000 0.000039
vn 0.000018 -1.000000 0.000039
vn 0.000018 -1.000000 0.000039
vn 0.000018 -1.000000 0.000039
vn 0.000018 -1.000000 0.000039
vn 0.000018 -1.000000 0.000039
vn 0.000018 -1.000000 0.000039
s off
g polySurface26629
f 5/1/1 3/2/2 4/3/3
f 3/2/4 1/4/5 2/5/6 4/3/7
f 10/6/8 9/7/9 8/8/10
f 8/8/11 9/7/12 7/9/13 6/10/14
f 13/11/15 11/12/16 12/13/17 14/14/18
f 17/15/19 18/16/20 20/17/21 19/18/22
f 18/16/23 15/19/24 22/20/25 20/17/26
f 16/21/27 17/22/28 19/23/29 21/24/30
f 21/25/31 22/26/32 15/27/33 16/28/34
f 23/29/35 24/30/36 28/31/37 27/32/38
f 24/30/39 26/33/40 30/34/41 28/31/42
f 25/35/43 23/36/44 27/37/45 29/38/46
f 29/39/47 30/40/48 26/41/49 25/42/50
f 44/43/51 43/44/52 40/45/53 39/46/54
f 45/47/55 44/48/56 39/49/57 41/50/58
f 41/51/59 42/52/60 46/53/61 45/54/62
f 43/44/63 46/55/64 42/56/65 40/45/66
f 45/57/67 46/58/68 38/59/69 37/60/70
f 36/61/71 35/62/72 43/63/73 44/64/74
f 46/58/75 43/65/76 35/66/77 38/59/78
f 44/67/79 45/68/80 37/69/81 36/70/82
f 39/71/83 40/72/84 32/73/85 31/74/86
f 33/75/87 34/76/88 42/77/89 41/78/90
f 40/72/91 42/79/92 34/80/93 32/73/94
f 41/81/95 39/82/96 31/83/97 33/84/98
f 37/85/99 38/86/100 34/87/101 33/88/102
f 36/89/103 37/90/104 33/91/105 31/92/106
f 31/93/107 32/94/108 35/95/109 36/96/110
f 38/86/111 35/97/112 32/98/113 34/87/114
f 60/99/115 59/100/116 56/101/117 55/102/118
f 61/103/119 60/104/120 55/105/121 57/106/122
f 57/107/123 58/108/124 62/109/125 61/110/126
f 59/100/127 62/111/128 58/112/129 56/101/130
f 61/113/131 62/114/132 54/115/133 53/116/134
f 52/117/135 51/118/136 59/119/137 60/120/138
f 62/114/139 59/121/140 51/122/141 54/115/142
f 60/123/143 61/124/144 53/125/145 52/126/146
f 55/127/147 56/128/148 48/129/149 47/130/150
f 49/131/151 50/132/152 58/133/153 57/134/154
f 56/128/155 58/135/156 50/136/157 48/129/158
f 57/137/159 55/138/160 47/139/161 49/140/162
f 53/141/163 54/142/164 50/143/165 49/144/166
f 52/145/167 53/146/168 49/147/169 47/148/170
f 47/149/171 48/150/172 51/151/173 52/152/174
f 54/142/175 51/153/176 48/154/177 50/143/178
s 45
f 76/155/179 75/156/180 81/157/181 82/158/182
s 46
f 77/159/183 76/160/184 82/161/185 79/162/186
s 47
f 73/163/187 74/164/188 80/165/189 79/166/190
s 48
f 75/156/191 78/167/192 80/168/193 81/157/194
s off
f 77/169/195 78/170/196 70/171/197 69/172/198
f 68/173/199 67/174/200 75/175/201 76/176/202
f 78/170/203 75/177/204 67/178/205 70/171/206
f 76/179/207 77/180/208 69/181/209 68/182/210
f 71/183/211 72/184/212 64/185/213 63/186/214
f 65/187/215 66/188/216 74/189/217 73/190/218
f 72/184/219 74/191/220 66/192/221 64/185/222
f 73/193/223 71/194/224 63/195/225 65/196/226
s 57
f 69/197/227 70/198/228 85/199/229 86/200/230
s 58
f 68/201/231 69/202/232 86/203/233 83/204/234
s 59
f 63/205/235 64/206/236 84/207/237 83/208/238
s 60
f 70/198/239 67/209/240 84/210/241 85/199/242
s 45
f 82/158/182 81/157/181 72/211/243 71/212/244
s 46
f 79/162/186 82/161/185 71/213/245 73/214/246
s 47
f 79/166/190 80/165/189 78/215/247 77/216/248
s 48
f 81/157/194 80/168/193 74/217/249 72/211/250
s 57
f 86/200/230 85/199/229 66/218/251 65/219/252
s 58
f 83/204/234 86/203/233 65/220/253 63/221/254
s 59
f 83/208/238 84/207/237 67/222/255 68/223/256
s 60
f 85/199/242 84/210/241 64/224/257 66/218/258
s 61
f 93/225/259 87/226/260 92/227/261 94/228/262
f 93/225/259 95/229/263 88/230/264 87/226/260
f 95/229/263 96/231/265 89/232/266 88/230/264
f 90/233/267 89/234/266 96/235/265 97/236/268
f 97/236/268 98/237/269 91/238/270 90/233/267
f 98/237/269 94/228/262 92/227/261 91/238/270
s 62
f 99/239/271 100/240/272 101/241/273
f 99/239/271 102/242/274 100/240/272
s 63
f 100/243/275 93/225/276 94/228/277 101/244/278
f 101/244/278 94/228/277 98/237/279 103/245/280
f 104/246/281 103/245/280 98/237/279 97/236/282
f 96/235/283 105/247/284 104/246/281 97/236/282
f 105/248/284 96/231/283 95/229/285 102/249/286
f 100/243/275 102/249/286 95/229/285 93/225/276
s 62
f 104/250/287 99/239/271 103/251/288
f 104/250/287 105/252/289 99/239/271
f 99/239/271 105/252/289 102/242/274
f 103/251/288 99/239/271 101/241/273
s 64
f 106/253/290 107/254/291 108/255/292 109/256/293
f 106/253/290 110/257/294 111/258/295 107/254/291
f 110/257/294 112/259/296 113/260/297 111/258/295
f 114/261/298 113/262/297 112/263/296 115/264/299
f 115/264/299 116/265/300 117/266/301 114/261/298
f 116/265/300 109/256/293 108/255/292 117/266/301
s 65
f 118/267/302 119/268/303 120/269/304
f 118/267/302 121/270/305 119/268/303
s 66
f 119/271/306 106/253/307 109/256/308 120/272/309
f 120/272/309 109/256/308 116/265/310 122/273/311
f 123/274/312 122/273/311 116/265/310 115/264/313
f 112/263/314 124/275/315 123/274/312 115/264/313
f 124/276/315 112/259/314 110/257/316 121/277/317
f 119/271/306 121/277/317 110/257/316 106/253/307
s 65
f 123/278/318 118/267/302 122/279/319
f 123/278/318 124/280/320 118/267/302
f 118/267/302 124/280/320 121/270/305
f 122/279/319 118/267/302 120/269/304
s 67
f 125/281/321 126/282/322 127/283/323 128/284/324
f 125/281/321 129/285/325 130/286/326 126/282/322
f 129/285/325 131/287/327 132/288/328 130/286/326
f 133/289/329 134/290/330 132/288/328 131/287/327
f 133/289/329 135/291/331 136/292/332 134/290/330
f 135/293/331 128/284/324 127/283/323 136/294/332
s 68
f 137/295/333 138/296/334 139/297/335 140/298/336
f 141/299/337 140/298/336 139/297/335 142/300/338
f 143/301/339 141/302/337 142/303/338 144/304/340
f 143/301/339 144/304/340 145/305/341 146/306/342
f 147/307/343 146/306/342 145/305/341 148/308/344
f 137/295/333 147/307/343 148/308/344 138/296/334
s 69
f 149/309/345 150/310/346 151/311/347 152/312/348
f 153/313/349 152/312/348 151/311/347 154/314/350
f 155/315/351 153/316/349 154/317/350 156/318/352
f 155/315/351 156/318/352 157/319/353 158/320/354
f 159/321/355 158/320/354 157/319/353 160/322/356
f 149/309/345 159/321/355 160/322/356 150/310/346
s 70
f 139/297/357 138/296/358 149/309/359 152/312/360
f 142/300/361 139/297/357 152/312/360 153/313/362
f 144/304/363 142/303/361 153/316/362 155/315/364
f 145/305/365 144/304/363 155/315/364 158/320/366
f 148/308/367 145/305/365 158/320/366 159/321/368
f 138/296/358 148/308/367 159/321/368 149/309/359
s 71
f 151/311/369 150/310/370 125/281/371 128/284/372
f 154/314/373 151/311/369 128/284/372 135/293/374
f 156/318/375 154/317/373 135/291/374 133/289/376
f 157/319/377 156/318/375 133/289/376 131/287/378
f 160/322/379 157/319/377 131/287/378 129/285/380
f 150/310/370 160/322/379 129/285/380 125/281/371
s 72
f 107/323/381 137/295/382 140/298/383 108/324/384
f 108/324/384 140/298/383 141/299/385 117/325/386
f 117/326/386 141/302/385 143/301/387 114/327/388
f 114/327/388 143/301/387 146/306/389 113/328/390
f 113/328/390 146/306/389 147/307/391 111/329/392
f 111/329/392 147/307/391 137/295/382 107/323/381
s 73
f 161/330/393 162/331/394 163/332/395 164/333/396
f 165/334/397 164/333/396 163/332/395 166/335/398
f 167/336/399 165/337/397 166/338/398 168/339/400
f 167/336/399 168/339/400 169/340/401 170/341/402
f 171/342/403 170/341/402 169/340/401 172/343/404
f 161/330/393 171/342/403 172/343/404 162/331/394
s 74
f 163/332/405 162/331/406 87/344/407 88/345/408
f 166/335/409 163/332/405 88/345/408 89/346/410
f 168/339/411 166/338/409 89/347/410 90/348/412
f 169/340/413 168/339/411 90/348/412 91/349/414
f 172/343/415 169/340/413 91/349/414 92/350/416
f 162/331/406 172/343/415 92/350/416 87/344/407
s 75
f 126/351/417 161/330/418 164/333/419 127/352/420
f 127/352/420 164/333/419 165/334/421 136/353/422
f 136/354/422 165/337/421 167/336/423 134/355/424
f 134/355/424 167/336/423 170/341/425 132/356/426
f 132/356/426 170/341/425 171/342/427 130/357/428
f 130/357/428 171/342/427 161/330/418 126/351/417
s 76
f 177/358/429 296/359/430 297/360/431 178/361/432
f 178/361/432 297/360/431 298/362/433 179/363/434
s off
f 173/364/435 180/365/436 179/366/437 174/367/438
s 76
f 181/368/439 177/358/429 178/361/432 182/369/440
f 182/369/440 178/361/432 179/363/434 183/370/441
s 78
f 185/371/442 186/372/443 187/373/444
s 76
f 188/374/445 180/365/446 184/375/447 186/376/448
f 183/370/441 179/363/434 180/377/446 188/378/445
f 189/379/449 177/358/429 181/368/439 187/380/450
s 78
f 188/381/451 185/371/442 183/382/452
f 187/373/444 181/383/453 185/371/442
f 185/371/442 181/383/453 182/384/454
s 76
f 190/385/455 293/386/456 294/387/457 191/388/458
f 191/388/458 294/387/457 295/389/459 192/390/460
f 193/391/461 190/385/455 191/388/458 194/392/462
f 194/392/462 191/388/458 192/390/460 195/393/463
s 79
f 198/394/464 199/395/465 200/396/466
s 76
f 201/397/467 196/398/468 197/399/469 199/400/470
f 195/393/463 192/390/460 196/401/468 201/402/467
f 202/403/471 190/385/455 193/391/461 200/404/472
s 79
f 201/405/473 198/394/464 195/406/474
f 200/396/466 193/407/475 198/394/464
f 198/394/464 193/407/475 194/408/476
s off
f 177/409/477 189/410/478 196/398/479 192/411/480
s 76
f 295/389/459 296/359/430 177/358/429 192/390/460
f 203/412/481 290/413/482 291/414/483 204/415/484
f 204/415/484 291/414/483 292/416/485 205/417/486
f 206/418/487 203/412/481 204/415/484 207/419/488
f 207/419/488 204/415/484 205/417/486 208/420/489
s 81
f 211/421/490 212/422/491 213/423/492
s 76
f 214/424/493 209/425/494 210/426/495 212/427/496
f 208/420/489 205/417/486 209/428/494 214/429/493
f 215/430/497 203/412/481 206/418/487 213/431/498
s 81
f 214/432/499 211/421/490 208/433/500
f 213/423/492 206/434/501 211/421/490
f 211/421/490 206/434/501 207/435/502
s off
f 190/436/503 202/437/504 209/425/505 205/438/506
s 76
f 292/416/485 293/386/456 190/385/455 205/417/486
s off
f 215/439/507 175/440/508 176/441/509 203/442/510
s 76
f 289/443/511 290/413/482 203/412/481 176/444/512
f 213/445/498 212/427/496 210/426/495 215/439/497
f 200/446/472 199/400/470 197/399/469 202/437/471
f 187/447/450 186/376/448 184/375/447 189/410/449
s 81
f 211/421/490 207/435/502 208/433/500
f 211/421/490 214/432/499 212/422/491
s 79
f 198/394/464 194/408/476 195/406/474
f 198/394/464 201/405/473 199/395/465
s 78
f 185/371/442 182/384/454 183/382/452
f 185/371/442 188/381/451 186/372/443
s off
f 298/448/513 279/449/514 174/450/515 179/451/516
s 85
f 218/452/517 286/453/518 287/454/519 219/455/520
f 219/455/520 287/454/519 288/456/521 220/457/522
s off
f 175/458/523 221/459/524 220/460/525 176/461/526
s 85
f 288/456/521 289/462/527 176/463/528 220/457/522
f 222/464/529 218/452/517 219/455/520 223/465/530
f 223/465/530 219/455/520 220/457/522 224/466/531
s 87
f 226/467/532 227/468/533 228/469/534
s 85
f 229/470/535 221/459/536 225/471/537 227/472/538
f 224/466/531 220/457/522 221/473/536 229/474/535
f 230/475/539 218/452/517 222/464/529 228/476/540
s 87
f 229/477/541 226/467/532 224/478/542
f 228/469/534 222/479/543 226/467/532
f 226/467/532 222/479/543 223/480/544
s 85
f 231/481/545 283/482/546 284/483/547 232/484/548
f 232/484/548 284/483/547 285/485/549 233/486/550
f 234/487/551 231/481/545 232/484/548 235/488/552
f 235/488/552 232/484/548 233/486/550 236/489/553
s 88
f 239/490/554 240/491/555 241/492/556
s 85
f 242/493/557 237/494/558 238/495/559 240/496/560
f 236/489/553 233/486/550 237/497/558 242/498/557
f 243/499/561 231/481/545 234/487/551 241/500/562
s 88
f 242/501/563 239/490/554 236/502/564
f 241/492/556 234/503/565 239/490/554
f 239/490/554 234/503/565 235/504/566
s off
f 218/505/567 230/506/568 237/494/569 233/507/570
s 85
f 285/485/549 286/453/518 218/452/517 233/486/550
f 244/508/571 280/509/572 281/510/573 245/511/574
f 245/511/574 281/510/573 282/512/575 246/513/576
f 247/514/577 244/508/571 245/511/574 248/515/578
f 248/515/578 245/511/574 246/513/576 249/516/579
s 90
f 252/517/580 253/518/581 254/519/582
s 85
f 255/520/583 250/521/584 251/522/585 253/523/586
f 249/516/579 246/513/576 250/524/584 255/525/583
f 256/526/587 244/508/571 247/514/577 254/527/588
s 90
f 255/528/589 252/517/580 249/529/590
f 254/519/582 247/530/591 252/517/580
f 252/517/580 247/530/591 248/531/592
s off
f 231/532/593 243/533/594 250/521/595 246/534/596
s 85
f 282/512/575 283/482/546 231/481/545 246/513/576
s off
f 256/535/597 216/536/598 217/537/599 244/538/600
s 85
f 254/539/588 253/523/586 251/522/585 256/535/587
f 241/540/562 240/496/560 238/495/559 243/533/561
f 228/541/540 227/472/538 225/471/537 230/506/539
s 90
f 252/517/580 248/531/592 249/529/590
f 252/517/580 255/528/589 253/518/581
s 88
f 239/490/554 235/504/566 236/502/564
f 239/490/554 242/501/563 240/491/555
s 87
f 226/467/532 223/480/544 224/478/542
f 226/467/532 229/477/541 227/468/533
s off
f 257/542/601 280/543/602 244/544/603 217/545/604
f 216/546/605 258/547/606 257/548/607 217/549/608
f 259/550/609 258/551/610 216/536/611 256/535/612
s 85
f 256/535/587 251/522/585 260/552/613 259/550/614
f 250/521/584 261/553/615 260/552/613 251/522/585
s off
f 243/533/616 262/554/617 261/553/618 250/521/619
s 85
f 243/533/561 238/495/559 263/555/620 262/554/621
f 237/494/558 264/556/622 263/555/620 238/495/559
s off
f 230/506/623 265/557/624 264/556/625 237/494/626
s 85
f 230/506/539 225/471/537 266/558/627 265/557/628
f 221/459/536 267/559/629 266/558/627 225/471/537
s off
f 268/560/630 267/559/631 221/459/632 175/458/633
f 269/561/634 268/562/635 175/440/636 215/439/637
s 76
f 215/439/497 210/426/495 270/563/638 269/561/639
f 209/425/494 271/564/640 270/563/638 210/426/495
s off
f 202/437/641 272/565/642 271/564/643 209/425/644
s 76
f 202/437/471 197/399/469 273/566/645 272/565/646
f 196/398/468 274/567/647 273/566/645 197/399/469
s off
f 189/410/648 275/568/649 274/567/650 196/398/651
s 76
f 189/410/449 184/375/447 276/569/652 275/568/653
f 180/365/446 277/570/654 276/569/652 184/375/447
s off
f 278/571/655 277/570/656 180/365/657 173/364/658
f 173/572/659 174/573/660 279/574/661 278/575/662
s 104
f 303/576/663 422/577/664 423/578/665 304/579/666
f 304/579/666 423/578/665 424/580/667 305/581/668
s off
f 299/582/669 306/583/670 305/584/671 300/585/672
s 104
f 307/586/673 303/576/663 304/579/666 308/587/674
f 308/587/674 304/579/666 305/581/668 309/588/675
s 106
f 311/589/676 312/590/677 313/591/678
s 104
f 314/592/679 306/583/680 310/593/681 312/594/682
f 309/588/675 305/581/668 306/595/680 314/596/679
f 315/597/683 303/576/663 307/586/673 313/598/684
s 106
f 314/599/685 311/589/676 309/600/686
f 313/591/678 307/601/687 311/589/676
f 311/589/676 307/601/687 308/602/688
s 104
f 316/603/689 419/604/690 420/605/691 317/606/692
f 317/606/692 420/605/691 421/607/693 318/608/694
f 319/609/695 316/603/689 317/606/692 320/610/696
f 320/610/696 317/606/692 318/608/694 321/611/697
s 107
f 324/612/698 325/613/699 326/614/700
s 104
f 327/615/701 322/616/702 323/617/703 325/618/704
f 321/611/697 318/608/694 322/619/702 327/620/701
f 328/621/705 316/603/689 319/609/695 326/622/706
s 107
f 327/623/707 324/612/698 321/624/708
f 326/614/700 319/625/709 324/612/698
f 324/612/698 319/625/709 320/626/710
s off
f 303/627/711 315/628/712 322/616/713 318/629/714
s 104
f 421/607/693 422/577/664 303/576/663 318/608/694
f 329/630/715 416/631/716 417/632/717 330/633/718
f 330/633/718 417/632/717 418/634/719 331/635/720
f 332/636/721 329/630/715 330/633/718 333/637/722
f 333/637/722 330/633/718 331/635/720 334/638/723
s 109
f 337/639/724 338/640/725 339/641/726
s 104
f 340/642/727 335/643/728 336/644/729 338/645/730
f 334/638/723 331/635/720 335/646/728 340/647/727
f 341/648/731 329/630/715 332/636/721 339/649/732
s 109
f 340/650/733 337/639/724 334/651/734
f 339/641/726 332/652/735 337/639/724
f 337/639/724 332/652/735 333/653/736
s off
f 316/654/737 328/655/738 335/643/739 331/656/740
s 104
f 418/634/719 419/604/690 316/603/689 331/635/720
s off
f 341/657/741 301/658/742 302/659/743 329/660/744
s 104
f 415/661/745 416/631/716 329/630/715 302/662/746
f 339/663/732 338/645/730 336/644/729 341/657/731
f 326/664/706 325/618/704 323/617/703 328/655/705
f 313/665/684 312/594/682 310/593/681 315/628/683
s 109
f 337/639/724 333/653/736 334/651/734
f 337/639/724 340/650/733 338/640/725
s 107
f 324/612/698 320/626/710 321/624/708
f 324/612/698 327/623/707 325/613/699
s 106
f 311/589/676 308/602/688 309/600/686
f 311/589/676 314/599/685 312/590/677
s off
f 424/666/747 405/667/748 300/668/749 305/669/750
s 113
f 344/670/751 412/671/752 413/672/753 345/673/754
f 345/673/754 413/672/753 414/674/755 346/675/756
s off
f 301/676/757 347/677/758 346/678/759 302/679/760
s 113
f 414/674/755 415/680/761 302/681/762 346/675/756
f 348/682/763 344/670/751 345/673/754 349/683/764
f 349/683/764 345/673/754 346/675/756 350/684/765
s 115
f 352/685/766 353/686/767 354/687/768
s 113
f 355/688/769 347/677/770 351/689/771 353/690/772
f 350/684/765 346/675/756 347/691/770 355/692/769
f 356/693/773 344/670/751 348/682/763 354/694/774
s 115
f 355/695/775 352/685/766 350/696/776
f 354/687/768 348/697/777 352/685/766
f 352/685/766 348/697/777 349/698/778
s 113
f 357/699/779 409/700/780 410/701/781 358/702/782
f 358/702/782 410/701/781 411/703/783 359/704/784
f 360/705/785 357/699/779 358/702/782 361/706/786
f 361/706/786 358/702/782 359/704/784 362/707/787
s 116
f 365/708/788 366/709/789 367/710/790
s 113
f 368/711/791 363/712/792 364/713/793 366/714/794
f 362/707/787 359/704/784 363/715/792 368/716/791
f 369/717/795 357/699/779 360/705/785 367/718/796
s 116
f 368/719/797 365/708/788 362/720/798
f 367/710/790 360/721/799 365/708/788
f 365/708/788 360/721/799 361/722/800
s off
f 344/723/801 356/724/802 363/712/803 359/725/804
s 113
f 411/703/783 412/671/752 344/670/751 359/704/784
f 370/726/805 406/727/806 407/728/807 371/729/808
f 371/729/808 407/728/807 408/730/809 372/731/810
f 373/732/811 370/726/805 371/729/808 374/733/812
f 374/733/812 371/729/808 372/731/810 375/734/813
s 118
f 378/735/814 379/736/815 380/737/816
s 113
f 381/738/817 376/739/818 377/740/819 379/741/820
f 375/734/813 372/731/810 376/742/818 381/743/817
f 382/744/821 370/726/805 373/732/811 380/745/822
s 118
f 381/746/823 378/735/814 375/747/824
f 380/737/816 373/748/825 378/735/814
f 378/735/814 373/748/825 374/749/826
s off
f 357/750/827 369/751/828 376/739/829 372/752/830
s 113
f 408/730/809 409/700/780 357/699/779 372/731/810
s off
f 382/753/831 342/754/832 343/755/833 370/756/834
s 113
f 380/757/822 379/741/820 377/740/819 382/753/821
f 367/758/796 366/714/794 364/713/793 369/751/795
f 354/759/774 353/690/772 351/689/771 356/724/773
s 118
f 378/735/814 374/749/826 375/747/824
f 378/735/814 381/746/823 379/736/815
s 116
f 365/708/788 361/722/800 362/720/798
f 365/708/788 368/719/797 366/709/789
s 115
f 352/685/766 349/698/778 350/696/776
f 352/685/766 355/695/775 353/686/767
s off
f 383/760/835 406/761/836 370/762/837 343/763/838
f 342/764/839 384/765/840 383/766/841 343/767/842
f 385/768/843 384/769/844 342/754/845 382/753/846
s 113
f 382/753/821 377/740/819 386/770/847 385/768/848
f 376/739/818 387/771/849 386/770/847 377/740/819
s off
f 369/751/850 388/772/851 387/771/852 376/739/853
s 113
f 369/751/795 364/713/793 389/773/854 388/772/855
f 363/712/792 390/774/856 389/773/854 364/713/793
s off
f 356/724/857 391/775/858 390/774/859 363/712/860
s 113
f 356/724/773 351/689/771 392/776/861 391/775/862
f 347/677/770 393/777/863 392/776/861 351/689/771
s off
f 394/778/864 393/777/865 347/677/866 301/676/867
f 395/779/868 394/780/869 301/658/870 341/657/871
s 104
f 341/657/731 336/644/729 396/781/872 395/779/873
f 335/643/728 397/782/874 396/781/872 336/644/729
s off
f 328/655/875 398/783/876 397/782/877 335/643/878
s 104
f 328/655/705 323/617/703 399/784/879 398/783/880
f 322/616/702 400/785/881 399/784/879 323/617/703
s off
f 315/628/882 401/786/883 400/785/884 322/616/885
s 104
f 315/628/683 310/593/681 402/787/886 401/786/887
f 306/583/680 403/788/888 402/787/886 310/593/681
s off
f 404/789/889 403/788/890 306/583/891 299/582/892
f 299/790/893 300/791/894 405/792/895 404/793/896
f 427/794/897 428/795/898 432/796/899 431/797/900
f 425/798/901 429/799/902 430/800/903 426/801/904
f 426/801/905 430/800/906 432/802/907 428/803/908
f 427/804/909 431/805/910 429/806/911 425/807/912
f 435/808/913 436/809/914 440/810/915 439/811/916
f 433/812/917 437/813/918 438/814/919 434/815/920
f 434/815/921 438/814/922 440/816/923 436/817/924
f 435/818/925 439/819/926 437/820/927 433/821/928
f 443/822/929 444/823/930 448/824/931 447/825/932
f 441/826/933 445/827/934 446/828/935 442/829/936
f 442/829/937 446/828/938 448/830/939 444/831/940
f 443/832/941 447/833/942 445/834/943 441/835/944
f 451/836/945 452/837/946 456/838/947 455/839/948
f 449/840/949 453/841/950 454/842/951 450/843/952
f 450/843/953 454/842/954 456/844/955 452/845/956
f 451/846/957 455/847/958 453/848/959 449/849/960
f 460/850/961 459/851/962 458/852/963 457/853/964
f 464/854/965 461/855/966 462/856/967 463/857/968
f 19/858/969 20/859/970 22/860/971 21/861/972
f 440/862/973 438/863/974 437/864/975 439/865/976
f 456/866/977 454/867/978 453/868/979 455/869/980
f 27/870/981 28/871/982 30/872/983 29/873/984
f 432/874/985 430/875/986 429/876/987 431/877/988
f 448/878/989 446/879/990 445/880/991 447/881/992
