# This file uses centimeters as units for non-parametric coordinates.

g default
v -21.070316 0.811760 0.057565
v -21.070324 0.811738 0.136081
v -20.983463 0.811760 0.057565
v -20.983454 0.811738 0.136081
v -21.070316 -0.197985 0.059487
v -21.070316 -0.197982 0.136201
v -20.981831 -0.197983 0.059487
v -20.981831 -0.197980 0.136199
v -21.070324 0.811738 -0.133322
v -21.070316 0.811760 -0.057565
v -20.983454 0.811738 -0.133322
v -20.983463 0.811760 -0.057565
v -21.070316 -0.197993 -0.133111
v -21.070316 -0.197990 -0.056397
v -20.981831 -0.197992 -0.133111
v -20.981831 -0.197989 -0.056399
v -19.046207 0.811760 0.057565
v -19.046215 0.811738 0.136081
v -18.959312 0.811760 0.057565
v -18.959305 0.811738 0.136081
v -19.047798 -0.197985 0.059487
v -19.047798 -0.197982 0.136201
v -18.959312 -0.197983 0.059487
v -18.959312 -0.197980 0.136199
v -19.046215 0.811738 -0.133322
v -19.046207 0.811760 -0.057565
v -18.959305 0.811738 -0.133322
v -18.959312 0.811760 -0.057565
v -19.047798 -0.197993 -0.133111
v -19.047798 -0.197990 -0.056397
v -18.959312 -0.197992 -0.133111
v -18.959312 -0.197989 -0.056399
v -21.105644 1.586926 0.171763
v -18.924026 1.586926 0.171763
v -21.105644 1.586926 -0.171763
v -18.924026 1.586926 -0.171763
v -21.105644 1.723017 -0.051738
v -18.924026 1.723017 -0.051738
v -21.105644 1.723017 0.051738
v -18.924026 1.723017 0.051738
v -21.061594 0.508911 0.129920
v -18.966316 0.508911 0.129920
v -21.061594 0.559530 0.129920
v -18.966316 0.559530 0.129920
v -21.061594 0.559530 -0.127950
v -18.966316 0.559530 -0.127950
v -21.061594 0.508911 -0.127950
v -18.966316 0.508911 -0.127950
v -19.664980 0.881137 0.124606
v -19.664980 -0.191443 0.124606
v -19.614361 0.881137 0.124606
v -19.614361 -0.191443 0.124606
v -19.614361 0.881137 -0.123155
v -19.614361 -0.191443 -0.123155
v -19.664980 0.881137 -0.123155
v -19.664980 -0.191443 -0.123155
v -20.330143 0.881137 0.124606
v -20.330143 -0.191443 0.124606
v -20.279526 0.881137 0.124606
v -20.279526 -0.191443 0.124606
v -20.279526 0.881137 -0.123155
v -20.279526 -0.191443 -0.123155
v -20.330143 0.881137 -0.123155
v -20.330143 -0.191443 -0.123155
vt 0.713948 0.522117
vt 0.704721 0.551839
vt 0.089085 0.551839
vt 0.089090 0.522117
vt 0.713951 0.551839
vt 0.089048 0.551839
vt 0.089035 0.522117
vt 0.704722 0.522117
vt 0.089045 0.488598
vt 0.704725 0.488598
vt 0.713950 0.522117
vt 0.089086 0.522117
vt 0.089086 0.488598
vt 0.713950 0.488598
vt 0.704722 0.522117
vt 0.713948 0.551839
vt 0.089089 0.551839
vt 0.089085 0.522117
vt 0.704726 0.551839
vt 0.089041 0.551839
vt 0.089035 0.522117
vt 0.713950 0.522117
vt 0.089044 0.488598
vt 0.713953 0.488598
vt 0.704719 0.522117
vt 0.089089 0.522117
vt 0.089089 0.488598
vt 0.704719 0.488598
vt 0.713948 0.522117
vt 0.704721 0.551839
vt 0.089085 0.551839
vt 0.089090 0.522117
vt 0.713951 0.551839
vt 0.089048 0.551839
vt 0.089035 0.522117
vt 0.704722 0.522117
vt 0.089045 0.488598
vt 0.704725 0.488598
vt 0.713950 0.522117
vt 0.089086 0.522117
vt 0.089086 0.488598
vt 0.713950 0.488598
vt 0.704722 0.522117
vt 0.713948 0.551839
vt 0.089089 0.551839
vt 0.089085 0.522117
vt 0.704726 0.551839
vt 0.089041 0.551839
vt 0.089035 0.522117
vt 0.713950 0.522117
vt 0.089044 0.488598
vt 0.713953 0.488598
vt 0.704719 0.522117
vt 0.089089 0.522117
vt 0.089089 0.488598
vt 0.704719 0.488598
vt 0.172158 0.488598
vt 0.172149 0.522117
vt 0.153081 0.522117
vt 0.153090 0.488598
vt 0.172158 0.488598
vt 0.172149 0.522117
vt 0.153081 0.522117
vt 0.153090 0.488598
vt 0.237501 0.488598
vt 0.237493 0.522117
vt 0.217094 0.522117
vt 0.217103 0.488598
vt 0.237501 0.488598
vt 0.237493 0.522117
vt 0.217094 0.522117
vt 0.217103 0.488598
vt 0.375000 0.000000
vt 0.389738 0.000000
vt 0.365989 0.279812
vt 0.382369 0.465295
vt 0.389738 0.750000
vt 0.375000 0.750000
vt 0.805590 0.000000
vt 0.875000 0.000000
vt 0.840295 0.250000
vt 0.125000 0.000000
vt 0.194410 0.000000
vt 0.159705 0.250000
vt 0.610247 0.000000
vt 0.625000 0.000000
vt 0.634005 0.279812
vt 0.610247 0.750000
vt 0.617624 0.465295
vt 0.625000 0.750000
vt 0.389738 0.819410
vt 0.610247 0.819410
vt 0.300470 0.000000
vt 0.617624 0.465295
vt 0.382369 0.465295
vt 0.365989 0.279812
vt 0.634005 0.279812
vt 0.699530 0.000000
vt 0.610247 0.925470
vt 0.625000 0.819410
vt 0.625000 0.925470
vt 0.389738 0.925470
vt 0.375000 0.819410
vt 0.375000 0.925470
vt 0.389738 1.000000
vt 0.610247 1.000000
vt 0.375000 0.000000
vt 0.625000 0.000000
vt 0.625000 0.250000
vt 0.375000 0.250000
vt 0.625000 0.500000
vt 0.375000 0.500000
vt 0.625000 0.750000
vt 0.375000 0.750000
vt 0.625000 1.000000
vt 0.375000 1.000000
vt 0.875000 0.000000
vt 0.875000 0.250000
vt 0.125000 0.000000
vt 0.125000 0.250000
vt 0.375000 0.000000
vt 0.625000 0.000000
vt 0.625000 0.250000
vt 0.375000 0.250000
vt 0.625000 0.500000
vt 0.375000 0.500000
vt 0.625000 0.750000
vt 0.375000 0.750000
vt 0.625000 1.000000
vt 0.375000 1.000000
vt 0.875000 0.000000
vt 0.875000 0.250000
vt 0.125000 0.000000
vt 0.125000 0.250000
vt 0.375000 0.000000
vt 0.625000 0.000000
vt 0.625000 0.250000
vt 0.375000 0.250000
vt 0.625000 0.500000
vt 0.375000 0.500000
vt 0.625000 0.750000
vt 0.375000 0.750000
vt 0.625000 1.000000
vt 0.375000 1.000000
vt 0.875000 0.000000
vt 0.875000 0.250000
vt 0.125000 0.000000
vt 0.125000 0.250000
vn 0.999999 0.001613 -0.000061
vn 0.999999 0.001613 -0.000061
vn 0.999999 0.001613 -0.000061
vn 0.999999 0.001613 -0.000061
vn -1.000000 -0.000005 -0.000049
vn -1.000000 -0.000005 -0.000049
vn -1.000000 -0.000005 -0.000049
vn -1.000000 -0.000005 -0.000049
vn 0.000012 0.000117 1.000000
vn 0.000012 0.000117 1.000000
vn 0.000012 0.000117 1.000000
vn 0.000012 0.000117 1.000000
vn -0.000000 -0.001904 -0.999998
vn -0.000000 -0.001904 -0.999998
vn -0.000000 -0.001904 -0.999998
vn -0.000000 -0.001904 -0.999998
vn 0.999999 0.001613 0.000062
vn 0.999999 0.001613 0.000062
vn 0.999999 0.001613 0.000062
vn 0.999999 0.001613 0.000062
vn -1.000000 -0.000005 0.000050
vn -1.000000 -0.000005 0.000050
vn -1.000000 -0.000005 0.000050
vn -1.000000 -0.000005 0.000050
vn 0.000011 0.001155 0.999999
vn 0.000011 0.001155 0.999999
vn 0.000011 0.001155 0.999999
vn 0.000011 0.001155 0.999999
vn 0.000000 -0.000209 -1.000000
vn 0.000000 -0.000209 -1.000000
vn 0.000000 -0.000209 -1.000000
vn 0.000000 -0.000209 -1.000000
vn 1.000000 -0.000004 -0.000049
vn 1.000000 -0.000004 -0.000049
vn 1.000000 -0.000004 -0.000049
vn 1.000000 -0.000004 -0.000049
vn -0.999999 0.001570 -0.000049
vn -0.999999 0.001570 -0.000049
vn -0.999999 0.001570 -0.000049
vn -0.999999 0.001570 -0.000049
vn 0.000012 0.000117 1.000000
vn 0.000012 0.000117 1.000000
vn 0.000012 0.000117 1.000000
vn 0.000012 0.000117 1.000000
vn -0.000000 -0.001904 -0.999998
vn -0.000000 -0.001904 -0.999998
vn -0.000000 -0.001904 -0.999998
vn -0.000000 -0.001904 -0.999998
vn 1.000000 -0.000003 0.000050
vn 1.000000 -0.000003 0.000050
vn 1.000000 -0.000003 0.000050
vn 1.000000 -0.000003 0.000050
vn -0.999999 0.001570 0.000050
vn -0.999999 0.001570 0.000050
vn -0.999999 0.001570 0.000050
vn -0.999999 0.001570 0.000050
vn 0.000011 0.001155 0.999999
vn 0.000011 0.001155 0.999999
vn 0.000011 0.001155 0.999999
vn 0.000011 0.001155 0.999999
vn 0.000000 -0.000209 -1.000000
vn 0.000000 -0.000209 -1.000000
vn 0.000000 -0.000209 -1.000000
vn 0.000000 -0.000209 -1.000000
vn 0.000018 -1.000000 0.000039
vn 0.000018 -1.000000 0.000039
vn 0.000018 -1.000000 0.000039
vn 0.000018 -1.000000 0.000039
vn 0.000018 -1.000000 0.000039
vn 0.000018 -1.000000 0.000039
vn 0.000018 -1.000000 0.000039
vn 0.000018 -1.000000 0.000039
vn 0.000017 -1.000000 0.000041
vn 0.000017 -1.000000 0.000041
vn 0.000017 -1.000000 0.000041
vn 0.000017 -1.000000 0.000041
vn 0.000017 -1.000000 0.000041
vn 0.000017 -1.000000 0.000041
vn 0.000017 -1.000000 0.000041
vn 0.000017 -1.000000 0.000041
vn 0.000000 -0.045983 0.998942
vn 0.000000 -0.045982 0.998942
vn 0.000000 -0.045982 0.998942
vn 0.000000 -0.049528 -0.998773
vn 0.000000 -0.049528 -0.998773
vn 0.000000 -0.049529 -0.998773
vn 0.998966 -0.045464 0.000057
vn 0.998966 -0.045455 0.000114
vn 0.999540 -0.030316 0.000038
vn -0.998964 -0.045509 0.000114
vn -0.998964 -0.045518 0.000057
vn -0.999539 -0.030355 0.000038
vn 0.000000 -0.045981 0.998942
vn 0.000000 -0.045981 0.998942
vn 0.000000 -0.045981 0.998942
vn 0.000000 -0.049528 -0.998773
vn 0.000000 -0.049528 -0.998773
vn 0.000000 -0.049527 -0.998773
vn 0.000000 -1.000000 0.000098
vn 0.000000 -1.000000 0.000294
vn 0.000000 -1.000000 0.000294
vn 0.000000 -1.000000 0.000098
vn -0.998964 -0.045518 -0.000055
vn -0.999539 -0.030355 -0.000037
vn 0.000000 1.000000 0.000000
vn 0.000000 1.000000 0.000000
vn 0.000000 1.000000 0.000000
vn 0.000000 1.000000 0.000000
vn 0.998966 -0.045463 -0.000055
vn 0.999540 -0.030316 -0.000037
vn 0.000000 -1.000000 -0.000095
vn 0.000000 -1.000000 0.000000
vn 0.000000 -1.000000 0.000000
vn 0.000000 -1.000000 -0.000095
vn 0.000000 -1.000000 0.000000
vn 0.000000 -1.000000 0.000000
vn -0.998964 -0.045509 -0.000110
vn 0.998966 -0.045454 -0.000110
vn 0.000000 -1.000000 -0.000284
vn 0.000000 -1.000000 -0.000284
vn 0.000000 0.661450 -0.749989
vn 0.000000 0.661450 -0.749989
vn 0.000000 0.661450 -0.749989
vn 0.000000 0.661450 -0.749989
vn -1.000000 -0.000008 0.000000
vn -1.000000 -0.000008 0.000000
vn 0.000000 0.661450 0.749989
vn 0.000000 0.661450 0.749989
vn 0.000000 0.661450 0.749989
vn 0.000000 0.661450 0.749989
vn 1.000000 0.000000 0.000000
vn 1.000000 0.000000 0.000000
vn 0.000000 0.000001 1.000000
vn 0.000000 0.000001 1.000000
vn 0.000000 0.000001 1.000000
vn 0.000000 0.000001 1.000000
vn 0.000000 1.000000 0.000000
vn 0.000000 1.000000 0.000000
vn 0.000000 1.000000 0.000000
vn 0.000000 1.000000 0.000000
vn 0.000000 -0.000000 -1.000000
vn 0.000000 -0.000000 -1.000000
vn 0.000000 -0.000000 -1.000000
vn 0.000000 -0.000000 -1.000000
vn 0.000000 -1.000000 0.000000
vn 0.000000 -1.000000 0.000000
vn 0.000000 -1.000000 0.000000
vn 0.000000 -1.000000 0.000000
vn 1.000000 -0.000045 0.000000
vn 1.000000 -0.000045 0.000000
vn 1.000000 -0.000045 0.000000
vn 1.000000 -0.000045 0.000000
vn -1.000000 0.000061 0.000000
vn -1.000000 0.000061 0.000000
vn -1.000000 0.000061 0.000000
vn -1.000000 0.000061 0.000000
vn 0.000001 0.000000 1.000000
vn 0.000001 0.000000 1.000000
vn 0.000001 0.000000 1.000000
vn 0.000001 0.000000 1.000000
vn 1.000000 0.000000 0.000000
vn 1.000000 0.000000 0.000000
vn 1.000000 0.000000 0.000000
vn 1.000000 0.000000 0.000000
vn 0.000000 0.000000 -1.000000
vn 0.000000 0.000000 -1.000000
vn 0.000000 0.000000 -1.000000
vn 0.000000 0.000000 -1.000000
vn -1.000000 0.000000 0.000000
vn -1.000000 0.000000 0.000000
vn -1.000000 0.000000 0.000000
vn -1.000000 0.000000 0.000000
vn 0.000000 -1.000000 0.000000
vn 0.000000 -1.000000 0.000000
vn 0.000000 -1.000000 0.000000
vn 0.000000 -1.000000 0.000000
vn 0.000000 1.000000 0.000000
vn 0.000000 1.000000 0.000000
vn 0.000000 1.000000 0.000000
vn 0.000000 1.000000 0.000000
vn 0.000001 0.000000 1.000000
vn 0.000001 0.000000 1.000000
vn 0.000001 0.000000 1.000000
vn 0.000001 0.000000 1.000000
vn 1.000000 0.000000 0.000000
vn 1.000000 0.000000 0.000000
vn 1.000000 0.000000 0.000000
vn 1.000000 0.000000 0.000000
vn 0.000000 0.000000 -1.000000
vn 0.000000 0.000000 -1.000000
vn 0.000000 0.000000 -1.000000
vn 0.000000 0.000000 -1.000000
vn -1.000000 0.000000 0.000000
vn -1.000000 0.000000 0.000000
vn -1.000000 0.000000 0.000000
vn -1.000000 0.000000 0.000000
vn 0.000000 -1.000000 0.000000
vn 0.000000 -1.000000 0.000000
vn 0.000000 -1.000000 0.000000
vn 0.000000 -1.000000 0.000000
vn 0.000000 1.000000 0.000000
vn 0.000000 1.000000 0.000000
vn 0.000000 1.000000 0.000000
vn 0.000000 1.000000 0.000000
s off
g polySurface26647
f 3/1/1 4/2/2 8/3/3 7/4/4
f 1/5/5 5/6/6 6/7/7 2/8/8
f 2/8/9 6/7/10 8/9/11 4/10/12
f 3/11/13 7/12/14 5/13/15 1/14/16
f 11/15/17 12/16/18 16/17/19 15/18/20
f 9/19/21 13/20/22 14/21/23 10/22/24
f 10/22/25 14/21/26 16/23/27 12/24/28
f 11/25/29 15/26/30 13/27/31 9/28/32
f 19/29/33 20/30/34 24/31/35 23/32/36
f 17/33/37 21/34/38 22/35/39 18/36/40
f 18/36/41 22/35/42 24/37/43 20/38/44
f 19/39/45 23/40/46 21/41/47 17/42/48
f 27/43/49 28/44/50 32/45/51 31/46/52
f 25/47/53 29/48/54 30/49/55 26/50/56
f 26/50/57 30/49/58 32/51/59 28/52/60
f 27/53/61 31/54/62 29/55/63 25/56/64
f 16/57/65 14/58/66 13/59/67 15/60/68
f 32/61/69 30/62/70 29/63/71 31/64/72
f 8/65/73 6/66/74 5/67/75 7/68/76
f 24/69/77 22/70/78 21/71/79 23/72/80
s 21
f 2/73/81 4/74/82 33/75/83
s 22
f 35/76/84 11/77/85 9/78/86
s 23
f 28/79/87 27/80/88 36/81/89
s 24
f 9/82/90 10/83/91 35/84/92
s 21
f 18/85/93 20/86/94 34/87/95
s 22
f 25/88/96 36/89/97 27/90/98
s 21
f 4/74/82 18/85/93 34/87/95 33/75/83
s 22
f 11/77/85 35/76/84 36/89/97 25/88/96
s 25
f 12/91/99 11/77/100 25/88/101 26/92/102
s 24
f 10/83/91 1/93/103 33/75/104 35/84/92
s off
f 38/94/105 37/95/106 39/96/107 40/97/108
s 23
f 19/98/109 28/79/87 36/81/89 34/87/110
s 25
f 17/99/111 26/92/102 28/100/112 19/101/113
f 3/102/114 12/91/99 26/92/102 17/99/111
f 10/103/115 12/91/99 3/102/114 1/104/116
s 24
f 1/93/103 2/73/117 33/75/104
s 23
f 20/86/118 19/98/109 34/87/110
s 25
f 4/105/119 3/102/114 17/99/111 18/106/120
s off
f 36/89/121 35/76/122 37/95/123 38/94/124
s 24
f 35/76/92 33/75/104 39/96/125 37/95/126
s off
f 33/75/127 34/87/128 40/97/129 39/96/130
s 23
f 34/87/110 36/89/89 38/94/131 40/97/132
s off
f 41/107/133 42/108/134 44/109/135 43/110/136
f 43/110/137 44/109/138 46/111/139 45/112/140
f 45/112/141 46/111/142 48/113/143 47/114/144
f 47/114/145 48/113/146 42/115/147 41/116/148
f 42/108/149 48/117/150 46/118/151 44/109/152
f 47/119/153 41/107/154 43/110/155 45/120/156
f 49/121/157 50/122/158 52/123/159 51/124/160
f 51/124/161 52/123/162 54/125/163 53/126/164
f 53/126/165 54/125/166 56/127/167 55/128/168
f 55/128/169 56/127/170 50/129/171 49/130/172
f 50/122/173 56/131/174 54/132/175 52/123/176
f 55/133/177 49/121/178 51/124/179 53/134/180
f 57/135/181 58/136/182 60/137/183 59/138/184
f 59/138/185 60/137/186 62/139/187 61/140/188
f 61/140/189 62/139/190 64/141/191 63/142/192
f 63/142/193 64/141/194 58/143/195 57/144/196
f 58/136/197 64/145/198 62/146/199 60/137/200
f 63/147/201 57/135/202 59/138/203 61/148/204
