# This file uses centimeters as units for non-parametric coordinates.

g default
v -34.785816 0.729185 0.019759
v -31.529779 0.729185 0.019759
v -34.785816 1.561172 0.019759
v -31.529779 1.561172 0.019759
v -31.542017 1.556279 0.016780
v -31.542017 0.731151 0.016780
v -31.542017 1.556279 -0.012530
v -31.542017 0.731151 -0.012530
v -31.484821 0.673960 -0.033077
v -31.484821 1.613470 -0.033077
v -31.484821 0.673960 0.033077
v -31.484821 1.613470 0.033077
v -31.542017 0.731151 0.033077
v -31.542017 1.556279 0.033077
v -31.542017 0.731151 -0.033077
v -31.542017 1.556279 -0.033077
v -34.773582 0.731151 0.016780
v -34.773582 0.731151 -0.012530
v -34.830772 0.673960 -0.033077
v -34.830772 0.673960 0.033077
v -34.773582 0.731151 0.033077
v -34.773582 0.731151 -0.033077
v -34.773582 1.556279 0.016780
v -34.773582 1.556279 -0.012530
v -34.830772 1.613470 -0.033077
v -34.830772 1.613470 0.033077
v -34.773582 1.556279 0.033077
v -34.773582 1.556279 -0.033077
v -31.529779 0.729185 -0.020577
v -34.785816 0.729185 -0.020577
v -31.529779 1.561172 -0.020577
v -34.785816 1.561172 -0.020577
vt 0.238500 0.002302
vt 0.935032 0.000803
vt 0.238457 0.175027
vt 0.935271 0.174909
vt 0.746161 0.180521
vt 0.922378 0.179937
vt 0.922391 0.183854
vt 0.746154 0.183998
vt 0.733957 0.204848
vt 0.934641 0.204441
vt 0.922438 0.214049
vt 0.746185 0.214471
vt 0.733945 0.193619
vt 0.934622 0.193247
vt 0.922432 0.217016
vt 0.746203 0.217317
vt 0.251021 0.181249
vt 0.922713 0.180017
vt 0.922720 0.183662
vt 0.251019 0.185203
vt 0.239120 0.205796
vt 0.934641 0.204441
vt 0.922765 0.214136
vt 0.251006 0.215339
vt 0.239127 0.194626
vt 0.934622 0.193247
vt 0.922764 0.217056
vt 0.251010 0.218342
vt 0.746156 0.180418
vt 0.922378 0.179903
vt 0.922391 0.183854
vt 0.746150 0.184033
vt 0.733952 0.204840
vt 0.934641 0.204441
vt 0.922438 0.214049
vt 0.746181 0.214461
vt 0.733941 0.193632
vt 0.934622 0.193247
vt 0.922431 0.217048
vt 0.746196 0.217369
vt 0.251021 0.181180
vt 0.922713 0.179849
vt 0.922720 0.183770
vt 0.251019 0.185203
vt 0.239120 0.205796
vt 0.934641 0.204441
vt 0.922767 0.214091
vt 0.251006 0.215339
vt 0.239127 0.194626
vt 0.934622 0.193247
vt 0.922767 0.217128
vt 0.251010 0.218402
vt 0.238500 0.002302
vt 0.935032 0.000803
vt 0.935271 0.174909
vt 0.238457 0.175027
vn 0.000000 0.000000 1.000000
vn 0.000000 0.000000 1.000000
vn 0.000000 0.000000 1.000000
vn 0.000000 0.000000 1.000000
vn -1.000000 0.000000 0.000000
vn -1.000000 0.000000 0.000000
vn -1.000000 0.000000 0.000000
vn -1.000000 0.000000 0.000000
vn -0.000000 0.000000 -1.000000
vn -0.000000 0.000000 -1.000000
vn -0.000000 0.000000 -1.000000
vn -0.000000 0.000000 -1.000000
vn 1.000000 0.000000 0.000000
vn 1.000000 0.000000 0.000000
vn 1.000000 0.000000 0.000000
vn 1.000000 0.000000 0.000000
vn 0.000000 0.000000 1.000000
vn 0.000000 0.000000 1.000000
vn 0.000000 0.000000 1.000000
vn 0.000000 0.000000 1.000000
vn -1.000000 0.000000 0.000000
vn -1.000000 0.000000 0.000000
vn -1.000000 0.000000 0.000000
vn -1.000000 0.000000 0.000000
vn 0.000000 1.000000 0.000000
vn 0.000000 1.000000 0.000000
vn 0.000000 1.000000 0.000000
vn 0.000000 1.000000 0.000000
vn 0.000000 0.000000 -1.000000
vn 0.000000 0.000000 -1.000000
vn 0.000000 0.000000 -1.000000
vn 0.000000 0.000000 -1.000000
vn -0.000000 -1.000000 0.000000
vn -0.000000 -1.000000 0.000000
vn -0.000000 -1.000000 0.000000
vn -0.000000 -1.000000 0.000000
vn 0.000000 0.000000 1.000000
vn 0.000000 0.000000 1.000000
vn 0.000000 0.000000 1.000000
vn 0.000000 0.000000 1.000000
vn 0.000000 1.000000 0.000000
vn 0.000000 1.000000 0.000000
vn 0.000000 1.000000 0.000000
vn 0.000000 1.000000 0.000000
vn 1.000000 0.000000 0.000000
vn 1.000000 0.000000 0.000000
vn 1.000000 0.000000 0.000000
vn 1.000000 0.000000 0.000000
vn 0.000000 0.000000 -1.000000
vn 0.000000 0.000000 -1.000000
vn 0.000000 0.000000 -1.000000
vn 0.000000 0.000000 -1.000000
vn -1.000000 0.000000 0.000000
vn -1.000000 0.000000 0.000000
vn -1.000000 0.000000 0.000000
vn -1.000000 0.000000 0.000000
vn -0.000000 0.000000 1.000000
vn -0.000000 0.000000 1.000000
vn -0.000000 0.000000 1.000000
vn -0.000000 0.000000 1.000000
vn 1.000000 0.000000 0.000000
vn 1.000000 0.000000 0.000000
vn 1.000000 0.000000 0.000000
vn 1.000000 0.000000 0.000000
vn 0.000000 -1.000000 0.000000
vn 0.000000 -1.000000 0.000000
vn 0.000000 -1.000000 0.000000
vn 0.000000 -1.000000 0.000000
vn 0.000000 0.000000 -1.000000
vn 0.000000 0.000000 -1.000000
vn 0.000000 0.000000 -1.000000
vn 0.000000 0.000000 -1.000000
vn 0.000000 1.000000 0.000000
vn 0.000000 1.000000 0.000000
vn 0.000000 1.000000 0.000000
vn 0.000000 1.000000 0.000000
vn 0.000000 0.000000 1.000000
vn 0.000000 0.000000 1.000000
vn 0.000000 0.000000 1.000000
vn 0.000000 0.000000 1.000000
vn 0.000000 -1.000000 0.000000
vn 0.000000 -1.000000 0.000000
vn 0.000000 -1.000000 0.000000
vn 0.000000 -1.000000 0.000000
vn 0.000000 0.000000 -1.000000
vn 0.000000 0.000000 -1.000000
vn 0.000000 0.000000 -1.000000
vn 0.000000 0.000000 -1.000000
s off
g polySurface26630
f 1/1/1 2/2/2 4/4/3 3/3/4
f 5/5/5 6/6/6 13/7/7 14/8/8
f 10/9/9 9/10/10 15/11/11 16/12/12
f 12/13/13 11/14/14 9/10/15 10/9/16
f 14/8/17 13/7/18 11/14/19 12/13/20
f 16/12/21 15/11/22 8/15/23 7/16/24
f 6/17/25 17/18/26 21/19/27 13/20/28
f 9/21/29 19/22/30 22/23/31 15/24/32
f 11/25/33 20/26/34 19/22/35 9/21/36
f 13/20/37 21/19/38 20/26/39 11/25/40
f 15/24/41 22/23/42 18/27/43 8/28/44
f 17/29/45 23/30/46 27/31/47 21/32/48
f 19/33/49 25/34/50 28/35/51 22/36/52
f 20/37/53 26/38/54 25/34/55 19/33/56
f 21/32/57 27/31/58 26/38/59 20/37/60
f 22/36/61 28/35/62 24/39/63 18/40/64
f 23/41/65 5/42/66 14/43/67 27/44/68
f 25/45/69 10/46/70 16/47/71 28/48/72
f 26/49/73 12/50/74 10/46/75 25/45/76
f 27/44/77 14/43/78 12/50/79 26/49/80
f 28/48/81 16/47/82 7/51/83 24/52/84
f 29/53/85 30/54/86 32/55/87 31/56/88
