# This file uses centimeters as units for non-parametric coordinates.

g default
v -24.940441 0.881137 0.124606
v -24.940441 -0.191443 0.124606
v -24.889824 0.881137 0.124606
v -24.889824 -0.191443 0.124606
v -24.889824 0.881137 -0.123155
v -24.889824 -0.191443 -0.123155
v -24.940441 0.881137 -0.123155
v -24.940441 -0.191443 -0.123155
v -25.652571 0.844896 0.057565
v -25.652580 0.844873 0.136081
v -25.565720 0.844896 0.057565
v -25.565708 0.844873 0.136081
v -25.652571 -0.197985 0.059487
v -25.652571 -0.197982 0.136201
v -25.564087 -0.197983 0.059487
v -25.564087 -0.197980 0.136199
v -25.652580 0.844873 -0.133322
v -25.652571 0.844896 -0.057565
v -25.565708 0.844873 -0.133322
v -25.565720 0.844896 -0.057565
v -25.652571 -0.197993 -0.133111
v -25.652571 -0.197990 -0.056397
v -25.564087 -0.197992 -0.133111
v -25.564087 -0.197989 -0.056399
v -24.293613 0.844896 0.057565
v -24.293621 0.844873 0.136081
v -24.206718 0.844896 0.057565
v -24.206711 0.844873 0.136081
v -24.295204 -0.197985 0.059487
v -24.295204 -0.197982 0.136201
v -24.206718 -0.197983 0.059487
v -24.206718 -0.197980 0.136199
v -24.293621 0.844873 -0.133322
v -24.293613 0.844896 -0.057565
v -24.206711 0.844873 -0.133322
v -24.206718 0.844896 -0.057565
v -24.295204 -0.197993 -0.133111
v -24.295204 -0.197990 -0.056397
v -24.206718 -0.197992 -0.133111
v -24.206718 -0.197989 -0.056399
v -25.687899 1.994275 0.171763
v -24.171432 1.994275 0.171763
v -25.687899 1.994275 -0.171763
v -24.171432 1.994275 -0.171763
v -25.687899 2.130366 -0.051738
v -24.171432 2.130366 -0.051738
v -25.687899 2.130366 0.051738
v -24.171432 2.130366 0.051738
v -25.643848 0.551220 0.129920
v -24.213722 0.551220 0.129920
v -25.643848 0.601839 0.129920
v -24.213722 0.601839 0.129920
v -25.643848 0.601839 -0.127950
v -24.213722 0.601839 -0.127950
v -25.643848 0.551220 -0.127950
v -24.213722 0.551220 -0.127950
vt 0.375000 0.000000
vt 0.625000 0.000000
vt 0.375000 0.250000
vt 0.625000 0.250000
vt 0.375000 0.500000
vt 0.625000 0.500000
vt 0.375000 0.750000
vt 0.625000 0.750000
vt 0.375000 1.000000
vt 0.625000 1.000000
vt 0.875000 0.000000
vt 0.875000 0.250000
vt 0.125000 0.000000
vt 0.125000 0.250000
vt 0.713948 0.522117
vt 0.704721 0.551839
vt 0.089085 0.551839
vt 0.089090 0.522117
vt 0.713951 0.551839
vt 0.089048 0.551839
vt 0.089035 0.522117
vt 0.704722 0.522117
vt 0.089045 0.488598
vt 0.704725 0.488598
vt 0.713950 0.522117
vt 0.089086 0.522117
vt 0.089086 0.488598
vt 0.713950 0.488598
vt 0.704722 0.522117
vt 0.713948 0.551839
vt 0.089089 0.551839
vt 0.089085 0.522117
vt 0.704726 0.551839
vt 0.089041 0.551839
vt 0.089035 0.522117
vt 0.713950 0.522117
vt 0.089044 0.488598
vt 0.713953 0.488598
vt 0.704719 0.522117
vt 0.089089 0.522117
vt 0.089089 0.488598
vt 0.704719 0.488598
vt 0.713948 0.522117
vt 0.704721 0.551839
vt 0.089085 0.551839
vt 0.089090 0.522117
vt 0.713951 0.551839
vt 0.089048 0.551839
vt 0.089035 0.522117
vt 0.704722 0.522117
vt 0.089045 0.488598
vt 0.704725 0.488598
vt 0.713950 0.522117
vt 0.089086 0.522117
vt 0.089086 0.488598
vt 0.713950 0.488598
vt 0.704722 0.522117
vt 0.713948 0.551839
vt 0.089089 0.551839
vt 0.089085 0.522117
vt 0.704726 0.551839
vt 0.089041 0.551839
vt 0.089035 0.522117
vt 0.713950 0.522117
vt 0.089044 0.488598
vt 0.713953 0.488598
vt 0.704719 0.522117
vt 0.089089 0.522117
vt 0.089089 0.488598
vt 0.704719 0.488598
vt 0.172158 0.488598
vt 0.172149 0.522117
vt 0.153081 0.522117
vt 0.153090 0.488598
vt 0.172158 0.488598
vt 0.172149 0.522117
vt 0.153081 0.522117
vt 0.153090 0.488598
vt 0.237501 0.488598
vt 0.237493 0.522117
vt 0.217094 0.522117
vt 0.217103 0.488598
vt 0.237501 0.488598
vt 0.237493 0.522117
vt 0.217094 0.522117
vt 0.217103 0.488598
vt 0.375000 0.000000
vt 0.389738 0.000000
vt 0.365989 0.279812
vt 0.382369 0.465295
vt 0.389738 0.750000
vt 0.375000 0.750000
vt 0.805590 0.000000
vt 0.875000 0.000000
vt 0.840295 0.250000
vt 0.125000 0.000000
vt 0.194410 0.000000
vt 0.159705 0.250000
vt 0.610247 0.000000
vt 0.625000 0.000000
vt 0.634005 0.279812
vt 0.610247 0.750000
vt 0.617624 0.465295
vt 0.625000 0.750000
vt 0.389738 0.819410
vt 0.610247 0.819410
vt 0.300470 0.000000
vt 0.617624 0.465295
vt 0.382369 0.465295
vt 0.365989 0.279812
vt 0.634005 0.279812
vt 0.699530 0.000000
vt 0.610247 0.925470
vt 0.625000 0.819410
vt 0.625000 0.925470
vt 0.389738 0.925470
vt 0.375000 0.819410
vt 0.375000 0.925470
vt 0.389738 1.000000
vt 0.610247 1.000000
vt 0.375000 0.000000
vt 0.625000 0.000000
vt 0.625000 0.250000
vt 0.375000 0.250000
vt 0.625000 0.500000
vt 0.375000 0.500000
vt 0.625000 0.750000
vt 0.375000 0.750000
vt 0.625000 1.000000
vt 0.375000 1.000000
vt 0.875000 0.000000
vt 0.875000 0.250000
vt 0.125000 0.000000
vt 0.125000 0.250000
vn 0.000001 0.000000 1.000000
vn 0.000001 0.000000 1.000000
vn 0.000001 0.000000 1.000000
vn 0.000001 0.000000 1.000000
vn 1.000000 0.000000 0.000000
vn 1.000000 0.000000 0.000000
vn 1.000000 0.000000 0.000000
vn 1.000000 0.000000 0.000000
vn 0.000000 0.000000 -1.000000
vn 0.000000 0.000000 -1.000000
vn 0.000000 0.000000 -1.000000
vn 0.000000 0.000000 -1.000000
vn -1.000000 0.000000 0.000000
vn -1.000000 0.000000 0.000000
vn -1.000000 0.000000 0.000000
vn -1.000000 0.000000 0.000000
vn 0.000000 -1.000000 0.000000
vn 0.000000 -1.000000 0.000000
vn 0.000000 -1.000000 0.000000
vn 0.000000 -1.000000 0.000000
vn 0.000000 1.000000 0.000000
vn 0.000000 1.000000 0.000000
vn 0.000000 1.000000 0.000000
vn 0.000000 1.000000 0.000000
vn 0.999999 0.001560 -0.000074
vn 0.999999 0.001560 -0.000074
vn 0.999999 0.001560 -0.000074
vn 0.999999 0.001560 -0.000074
vn -1.000000 -0.000006 -0.000061
vn -1.000000 -0.000006 -0.000061
vn -1.000000 -0.000006 -0.000061
vn -1.000000 -0.000006 -0.000061
vn 0.000012 0.000114 1.000000
vn 0.000012 0.000114 1.000000
vn 0.000012 0.000114 1.000000
vn 0.000012 0.000114 1.000000
vn -0.000000 -0.001844 -0.999998
vn -0.000000 -0.001844 -0.999998
vn -0.000000 -0.001844 -0.999998
vn -0.000000 -0.001844 -0.999998
vn 0.999999 0.001560 0.000075
vn 0.999999 0.001560 0.000075
vn 0.999999 0.001560 0.000075
vn 0.999999 0.001560 0.000075
vn -1.000000 -0.000006 0.000063
vn -1.000000 -0.000006 0.000063
vn -1.000000 -0.000006 0.000063
vn -1.000000 -0.000006 0.000063
vn 0.000011 0.001118 0.999999
vn 0.000011 0.001118 0.999999
vn 0.000011 0.001118 0.999999
vn 0.000011 0.001118 0.999999
vn 0.000000 -0.000203 -1.000000
vn 0.000000 -0.000203 -1.000000
vn 0.000000 -0.000203 -1.000000
vn 0.000000 -0.000203 -1.000000
vn 1.000000 -0.000003 -0.000049
vn 1.000000 -0.000003 -0.000049
vn 1.000000 -0.000003 -0.000049
vn 1.000000 -0.000003 -0.000049
vn -0.999999 0.001520 -0.000049
vn -0.999999 0.001520 -0.000049
vn -0.999999 0.001520 -0.000049
vn -0.999999 0.001520 -0.000049
vn 0.000012 0.000114 1.000000
vn 0.000012 0.000114 1.000000
vn 0.000012 0.000114 1.000000
vn 0.000012 0.000114 1.000000
vn -0.000000 -0.001844 -0.999998
vn -0.000000 -0.001844 -0.999998
vn -0.000000 -0.001844 -0.999998
vn -0.000000 -0.001844 -0.999998
vn 1.000000 -0.000004 0.000050
vn 1.000000 -0.000004 0.000050
vn 1.000000 -0.000004 0.000050
vn 1.000000 -0.000004 0.000050
vn -0.999999 0.001519 0.000050
vn -0.999999 0.001519 0.000050
vn -0.999999 0.001519 0.000050
vn -0.999999 0.001519 0.000050
vn 0.000011 0.001118 0.999999
vn 0.000011 0.001118 0.999999
vn 0.000011 0.001118 0.999999
vn 0.000011 0.001118 0.999999
vn 0.000000 -0.000203 -1.000000
vn 0.000000 -0.000203 -1.000000
vn 0.000000 -0.000203 -1.000000
vn 0.000000 -0.000203 -1.000000
vn 0.000018 -1.000000 0.000039
vn 0.000018 -1.000000 0.000039
vn 0.000018 -1.000000 0.000039
vn 0.000018 -1.000000 0.000039
vn 0.000018 -1.000000 0.000039
vn 0.000018 -1.000000 0.000039
vn 0.000018 -1.000000 0.000039
vn 0.000018 -1.000000 0.000039
vn 0.000017 -1.000000 0.000041
vn 0.000017 -1.000000 0.000041
vn 0.000017 -1.000000 0.000041
vn 0.000017 -1.000000 0.000041
vn 0.000017 -1.000000 0.000041
vn 0.000017 -1.000000 0.000041
vn 0.000017 -1.000000 0.000041
vn 0.000017 -1.000000 0.000041
vn 0.000000 -0.031027 0.999519
vn 0.000000 -0.031028 0.999519
vn 0.000000 -0.031028 0.999519
vn 0.000000 -0.033425 -0.999441
vn 0.000000 -0.033425 -0.999441
vn 0.000000 -0.033424 -0.999441
vn 0.999529 -0.030679 0.000055
vn 0.999530 -0.030673 0.000110
vn 0.999791 -0.020455 0.000037
vn -0.999528 -0.030706 0.000135
vn -0.999528 -0.030715 0.000067
vn -0.999790 -0.020476 0.000045
vn 0.000000 -0.031028 0.999519
vn 0.000000 -0.031028 0.999519
vn 0.000000 -0.031028 0.999519
vn 0.000000 -0.033425 -0.999441
vn 0.000000 -0.033425 -0.999441
vn 0.000000 -0.033425 -0.999441
vn 0.000000 -1.000000 0.000098
vn 0.000000 -1.000000 0.000293
vn 0.000000 -1.000000 0.000293
vn 0.000000 -1.000000 0.000098
vn -0.999528 -0.030716 -0.000065
vn -0.999790 -0.020477 -0.000043
vn 0.000000 1.000000 0.000000
vn 0.000000 1.000000 0.000000
vn 0.000000 1.000000 0.000000
vn 0.000000 1.000000 0.000000
vn 0.999529 -0.030682 -0.000053
vn 0.999791 -0.020457 -0.000035
vn 0.000000 -1.000000 -0.000094
vn 0.000000 -1.000000 0.000000
vn 0.000000 -1.000000 0.000000
vn 0.000000 -1.000000 -0.000094
vn 0.000000 -1.000000 0.000000
vn 0.000000 -1.000000 0.000000
vn -0.999528 -0.030710 -0.000130
vn 0.999529 -0.030678 -0.000106
vn 0.000000 -1.000000 -0.000283
vn 0.000000 -1.000000 -0.000283
vn 0.000000 0.661449 -0.749990
vn 0.000000 0.661449 -0.749990
vn 0.000000 0.661449 -0.749990
vn 0.000000 0.661449 -0.749990
vn -1.000000 0.000008 0.000000
vn -1.000000 0.000008 0.000000
vn 0.000000 0.661450 0.749989
vn 0.000000 0.661450 0.749989
vn 0.000000 0.661450 0.749989
vn 0.000000 0.661450 0.749989
vn 1.000000 0.000000 0.000000
vn 1.000000 0.000000 0.000000
vn 0.000000 0.000001 1.000000
vn 0.000000 0.000001 1.000000
vn 0.000000 0.000001 1.000000
vn 0.000000 0.000001 1.000000
vn 0.000000 1.000000 0.000000
vn 0.000000 1.000000 0.000000
vn 0.000000 1.000000 0.000000
vn 0.000000 1.000000 0.000000
vn 0.000000 -0.000000 -1.000000
vn 0.000000 -0.000000 -1.000000
vn 0.000000 -0.000000 -1.000000
vn 0.000000 -0.000000 -1.000000
vn 0.000000 -1.000000 0.000000
vn 0.000000 -1.000000 0.000000
vn 0.000000 -1.000000 0.000000
vn 0.000000 -1.000000 0.000000
vn 1.000000 -0.000063 0.000000
vn 1.000000 -0.000063 0.000000
vn 1.000000 -0.000063 0.000000
vn 1.000000 -0.000063 0.000000
vn -1.000000 0.000102 0.000000
vn -1.000000 0.000102 0.000000
vn -1.000000 0.000102 0.000000
vn -1.000000 0.000102 0.000000
s off
g polySurface26639
f 1/1/1 2/2/2 4/4/3 3/3/4
f 3/3/5 4/4/6 6/6/7 5/5/8
f 5/5/9 6/6/10 8/8/11 7/7/12
f 7/7/13 8/8/14 2/10/15 1/9/16
f 2/2/17 8/11/18 6/12/19 4/4/20
f 7/13/21 1/1/22 3/3/23 5/14/24
f 11/15/25 12/16/26 16/17/27 15/18/28
f 9/19/29 13/20/30 14/21/31 10/22/32
f 10/22/33 14/21/34 16/23/35 12/24/36
f 11/25/37 15/26/38 13/27/39 9/28/40
f 19/29/41 20/30/42 24/31/43 23/32/44
f 17/33/45 21/34/46 22/35/47 18/36/48
f 18/36/49 22/35/50 24/37/51 20/38/52
f 19/39/53 23/40/54 21/41/55 17/42/56
f 27/43/57 28/44/58 32/45/59 31/46/60
f 25/47/61 29/48/62 30/49/63 26/50/64
f 26/50/65 30/49/66 32/51/67 28/52/68
f 27/53/69 31/54/70 29/55/71 25/56/72
f 35/57/73 36/58/74 40/59/75 39/60/76
f 33/61/77 37/62/78 38/63/79 34/64/80
f 34/64/81 38/63/82 40/65/83 36/66/84
f 35/67/85 39/68/86 37/69/87 33/70/88
f 24/71/89 22/72/90 21/73/91 23/74/92
f 40/75/93 38/76/94 37/77/95 39/78/96
f 16/79/97 14/80/98 13/81/99 15/82/100
f 32/83/101 30/84/102 29/85/103 31/86/104
s 27
f 10/87/105 12/88/106 41/89/107
s 28
f 43/90/108 19/91/109 17/92/110
s 29
f 36/93/111 35/94/112 44/95/113
s 30
f 17/96/114 18/97/115 43/98/116
s 27
f 26/99/117 28/100/118 42/101/119
s 28
f 33/102/120 44/103/121 35/104/122
s 27
f 12/88/106 26/99/117 42/101/119 41/89/107
s 28
f 19/91/109 43/90/108 44/103/121 33/102/120
s 31
f 20/105/123 19/91/124 33/102/125 34/106/126
s 30
f 18/97/115 9/107/127 41/89/128 43/98/116
s off
f 46/108/129 45/109/130 47/110/131 48/111/132
s 29
f 27/112/133 36/93/111 44/95/113 42/101/134
s 31
f 25/113/135 34/106/126 36/114/136 27/115/137
f 11/116/138 20/105/123 34/106/126 25/113/135
f 18/117/139 20/105/123 11/116/138 9/118/140
s 30
f 9/107/127 10/87/141 41/89/128
s 29
f 28/100/142 27/112/133 42/101/134
s 31
f 12/119/143 11/116/138 25/113/135 26/120/144
s off
f 44/103/145 43/90/146 45/109/147 46/108/148
s 30
f 43/90/116 41/89/128 47/110/149 45/109/150
s off
f 41/89/151 42/101/152 48/111/153 47/110/154
s 29
f 42/101/134 44/103/113 46/108/155 48/111/156
s off
f 49/121/157 50/122/158 52/123/159 51/124/160
f 51/124/161 52/123/162 54/125/163 53/126/164
f 53/126/165 54/125/166 56/127/167 55/128/168
f 55/128/169 56/127/170 50/129/171 49/130/172
f 50/122/173 56/131/174 54/132/175 52/123/176
f 55/133/177 49/121/178 51/124/179 53/134/180
