# This file uses centimeters as units for non-parametric coordinates.

g default
v -30.702883 0.694030 0.016733
v -28.532515 0.694030 0.016733
v -30.702883 1.579879 0.016733
v -28.532515 1.579879 0.016733
v -28.532515 0.694030 -0.019753
v -30.702883 0.694030 -0.019753
v -28.532515 1.579879 -0.019753
v -30.702883 1.579879 -0.019753
v -28.544518 1.569924 0.008891
v -28.544516 1.569925 -0.009156
v -30.693800 1.569924 0.008891
v -30.693802 1.569925 -0.009156
v -28.544518 1.569924 0.041192
v -30.693800 1.569924 0.041192
v -28.544518 1.569924 -0.041192
v -30.693800 1.569924 -0.041192
v -28.467813 1.646626 -0.041192
v -30.770502 1.646626 -0.041192
v -28.467813 1.646626 0.041192
v -30.770502 1.646626 0.041192
v -30.693798 0.714805 0.008891
v -30.693802 0.714805 -0.009156
v -30.693800 0.714805 0.041192
v -30.693798 0.714805 -0.041192
v -30.770502 0.638103 -0.041192
v -30.770502 0.638103 0.041192
v -28.544518 0.714805 0.008891
v -28.544516 0.714804 -0.009156
v -28.544518 0.714805 0.041192
v -28.544518 0.714805 -0.041192
v -28.467813 0.638103 -0.041192
v -28.467813 0.638103 0.041192
vt 0.253269 0.277284
vt 0.714644 0.278683
vt 0.714853 0.464427
vt 0.253681 0.466105
vt 0.253269 0.277284
vt 0.714644 0.278683
vt 0.714853 0.464427
vt 0.253681 0.466105
vt 0.187090 0.022420
vt 0.193614 0.022413
vt 0.194025 0.452035
vt 0.187442 0.452013
vt 0.205571 0.006382
vt 0.205916 0.468100
vt 0.229775 0.022368
vt 0.237242 0.022544
vt 0.237545 0.452177
vt 0.229943 0.452141
vt 0.219082 0.006353
vt 0.219441 0.468181
vt 0.187839 0.242199
vt 0.193719 0.242206
vt 0.193783 0.414760
vt 0.187955 0.414727
vt 0.205718 0.226142
vt 0.205871 0.430903
vt 0.230141 0.242327
vt 0.235624 0.242024
vt 0.235761 0.414577
vt 0.230358 0.414908
vt 0.219303 0.226163
vt 0.219379 0.430953
vt 0.187251 0.022411
vt 0.193552 0.022406
vt 0.194025 0.452035
vt 0.187533 0.452012
vt 0.205571 0.006382
vt 0.205916 0.468100
vt 0.229936 0.022398
vt 0.236759 0.022456
vt 0.237177 0.452110
vt 0.229943 0.452141
vt 0.219082 0.006353
vt 0.219441 0.468181
vt 0.187839 0.242199
vt 0.193719 0.242206
vt 0.193784 0.414760
vt 0.187955 0.414727
vt 0.205718 0.226142
vt 0.205877 0.430907
vt 0.230141 0.242327
vt 0.235624 0.242023
vt 0.235761 0.414576
vt 0.230359 0.414909
vt 0.219303 0.226163
vt 0.219383 0.430963
vn 0.000000 0.000000 1.000000
vn 0.000000 0.000000 1.000000
vn 0.000000 0.000000 1.000000
vn 0.000000 0.000000 1.000000
vn 0.000000 0.000000 -1.000000
vn 0.000000 0.000000 -1.000000
vn 0.000000 0.000000 -1.000000
vn 0.000000 0.000000 -1.000000
vn 0.000000 -1.000000 0.000000
vn 0.000000 -1.000000 0.000000
vn 0.000000 -1.000000 0.000000
vn 0.000000 -1.000000 0.000000
vn 0.000000 0.000000 1.000000
vn 0.000000 0.000000 1.000000
vn 0.000000 0.000000 1.000000
vn 0.000000 0.000000 1.000000
vn 0.000000 -1.000000 0.000010
vn 0.000000 -1.000000 0.000010
vn 0.000000 -1.000000 0.000010
vn 0.000000 -1.000000 0.000010
vn -0.000000 0.000000 -1.000000
vn -0.000000 0.000000 -1.000000
vn -0.000000 0.000000 -1.000000
vn -0.000000 0.000000 -1.000000
vn 0.000000 1.000000 0.000000
vn 0.000000 1.000000 0.000000
vn 0.000000 1.000000 0.000000
vn 0.000000 1.000000 0.000000
vn 1.000000 0.000002 0.000030
vn 1.000000 0.000002 0.000030
vn 1.000000 0.000002 0.000030
vn 1.000000 0.000002 0.000030
vn 0.000000 0.000000 1.000000
vn 0.000000 0.000000 1.000000
vn 0.000000 0.000000 1.000000
vn 0.000000 0.000000 1.000000
vn 1.000000 0.000002 0.000089
vn 1.000000 0.000002 0.000089
vn 1.000000 0.000002 0.000089
vn 1.000000 0.000002 0.000089
vn 0.000000 0.000000 -1.000000
vn 0.000000 0.000000 -1.000000
vn 0.000000 0.000000 -1.000000
vn 0.000000 0.000000 -1.000000
vn -1.000000 0.000000 0.000000
vn -1.000000 0.000000 0.000000
vn -1.000000 0.000000 0.000000
vn -1.000000 0.000000 0.000000
vn 0.000000 1.000000 0.000000
vn 0.000000 1.000000 0.000000
vn 0.000000 1.000000 0.000000
vn 0.000000 1.000000 0.000000
vn 0.000000 0.000000 1.000000
vn 0.000000 0.000000 1.000000
vn 0.000000 0.000000 1.000000
vn 0.000000 0.000000 1.000000
vn 0.000000 1.000000 0.000014
vn 0.000000 1.000000 0.000014
vn 0.000000 1.000000 0.000014
vn 0.000000 1.000000 0.000014
vn 0.000000 0.000000 -1.000000
vn 0.000000 0.000000 -1.000000
vn 0.000000 0.000000 -1.000000
vn 0.000000 0.000000 -1.000000
vn -0.000000 -1.000000 0.000000
vn -0.000000 -1.000000 0.000000
vn -0.000000 -1.000000 0.000000
vn -0.000000 -1.000000 0.000000
vn -1.000000 0.000000 0.000000
vn -1.000000 0.000000 0.000000
vn -1.000000 0.000000 0.000000
vn -1.000000 0.000000 0.000000
vn 0.000000 0.000000 1.000000
vn 0.000000 0.000000 1.000000
vn 0.000000 0.000000 1.000000
vn 0.000000 0.000000 1.000000
vn -1.000000 0.000000 0.000060
vn -1.000000 0.000000 0.000060
vn -1.000000 0.000000 0.000060
vn -1.000000 0.000000 0.000060
vn 0.000000 0.000000 -1.000000
vn 0.000000 0.000000 -1.000000
vn 0.000000 0.000000 -1.000000
vn 0.000000 0.000000 -1.000000
vn 1.000000 0.000000 0.000000
vn 1.000000 0.000000 0.000000
vn 1.000000 0.000000 0.000000
vn 1.000000 0.000000 0.000000
s off
g polySurface26632
f 1/1/1 2/2/2 4/3/3 3/4/4
f 5/5/5 6/6/6 8/7/7 7/8/8
f 9/9/9 13/10/10 14/11/11 11/12/12
f 13/10/13 19/13/14 20/14/15 14/11/16
f 15/15/17 10/16/18 12/17/19 16/18/20
f 17/19/21 15/15/22 16/18/23 18/20/24
f 19/13/25 17/19/26 18/20/27 20/14/28
f 11/21/29 14/22/30 23/23/31 21/24/32
f 14/22/33 20/25/34 26/26/35 23/23/36
f 16/27/37 12/28/38 22/29/39 24/30/40
f 18/31/41 16/27/42 24/30/43 25/32/44
f 20/25/45 18/31/46 25/32/47 26/26/48
f 21/33/49 23/34/50 29/35/51 27/36/52
f 23/34/53 26/37/54 32/38/55 29/35/56
f 24/39/57 22/40/58 28/41/59 30/42/60
f 25/43/61 24/39/62 30/42/63 31/44/64
f 26/37/65 25/43/66 31/44/67 32/38/68
f 27/45/69 29/46/70 13/47/71 9/48/72
f 29/46/73 32/49/74 19/50/75 13/47/76
f 30/51/77 28/52/78 10/53/79 15/54/80
f 31/55/81 30/51/82 15/54/83 17/56/84
f 32/49/85 31/55/86 17/56/87 19/50/88
