# This file uses centimeters as units for non-parametric coordinates.

g default
v -22.368212 0.767437 -0.041427
v -22.401075 0.767437 -0.071752
v -22.445971 0.767437 -0.082851
v -22.490866 0.767437 -0.071752
v -22.523729 0.767437 -0.041427
v -22.535757 0.767437 -0.000000
v -22.523729 0.767437 0.041426
v -22.490866 0.767437 0.071752
v -22.445971 0.767437 0.082853
v -22.401075 0.767437 0.071752
v -22.368212 0.767437 0.041426
v -22.356182 0.767437 -0.000000
v -22.371256 0.915316 -0.128855
v -22.316561 0.915316 -0.074394
v -22.445969 0.915316 -0.148788
v -22.520683 0.915316 -0.128855
v -22.575377 0.915316 -0.074394
v -22.595396 0.915316 -0.000000
v -22.575377 0.915316 0.074394
v -22.520683 0.915316 0.128854
v -22.445971 0.915316 0.148788
v -22.371256 0.915316 0.128854
v -22.316563 0.915316 0.074394
v -22.296541 0.915316 -0.000000
v -22.445971 0.759012 -0.000000
v -22.360502 0.753304 -0.045759
v -22.396679 0.753307 -0.079162
v -22.445971 0.753308 -0.091358
v -22.495264 0.753307 -0.079162
v -22.531437 0.753304 -0.045759
v -22.544712 0.753303 -0.000000
v -22.531437 0.753304 0.045757
v -22.495264 0.753307 0.079161
v -22.445971 0.753308 0.091358
v -22.396679 0.753307 0.079161
v -22.360502 0.753304 0.045757
v -22.347227 0.753303 -0.000000
v -22.323042 0.837027 -0.068460
v -22.375057 0.836880 -0.118474
v -22.445971 0.836807 -0.136743
v -22.516884 0.836880 -0.118474
v -22.568895 0.837027 -0.068460
v -22.587973 0.837102 -0.000000
v -22.568895 0.837027 0.068460
v -22.516884 0.836880 0.118474
v -22.445971 0.836808 0.136744
v -22.375057 0.836880 0.118474
v -22.323042 0.837027 0.068460
v -22.303967 0.837102 -0.000000
v -22.445971 0.759012 -0.000000
v -22.311829 0.914690 0.077140
v -22.368528 0.914649 0.133597
v -22.445971 0.914629 0.154259
v -22.523411 0.914649 0.133597
v -22.580111 0.914689 0.077139
v -22.600870 0.914710 -0.000000
v -22.580111 0.914690 -0.077140
v -22.523411 0.914649 -0.133598
v -22.445971 0.914629 -0.154259
v -22.368528 0.914649 -0.133598
v -22.311827 0.914690 -0.077140
v -22.291067 0.914710 0.000000
v -22.445971 0.859452 -0.136832
v -22.516111 0.859452 -0.118499
v -22.567461 0.859452 -0.068416
v -22.586254 0.859452 -0.000000
v -22.567461 0.859452 0.068416
v -22.516111 0.859452 0.118500
v -22.445971 0.859452 0.136832
v -22.375828 0.859452 0.118500
v -22.324480 0.859452 0.068416
v -22.305685 0.859452 -0.000000
v -22.323145 0.859452 -0.069169
v -22.375828 0.859452 -0.118500
v -22.445971 0.806827 -0.118037
v -22.508394 0.806827 -0.102224
v -22.554094 0.806827 -0.059019
v -22.570820 0.806827 -0.000000
v -22.554094 0.806827 0.059019
v -22.508394 0.806827 0.102223
v -22.445971 0.806827 0.118038
v -22.383545 0.806827 0.102223
v -22.337845 0.806827 0.059019
v -22.321119 0.806827 -0.000000
v -22.337845 0.806827 -0.059019
v -22.383545 0.806827 -0.102224
v -22.315552 0.916972 0.074979
v -22.295374 0.916976 -0.000000
v -22.315550 0.916971 -0.074979
v -22.370674 0.916963 -0.129866
v -22.445969 0.916959 -0.149954
v -22.521263 0.916963 -0.129866
v -22.576384 0.916972 -0.074979
v -22.596561 0.916976 -0.000000
v -22.576384 0.916971 0.074979
v -22.521263 0.916963 0.129865
v -22.445971 0.916959 0.149954
v -22.370674 0.916963 0.129865
v -22.313076 0.916560 0.076415
v -22.292511 0.916575 0.000000
v -22.313076 0.916560 -0.076415
v -22.369249 0.916530 -0.132346
v -22.445971 0.916515 -0.152815
v -22.522690 0.916530 -0.132346
v -22.578861 0.916560 -0.076415
v -22.599424 0.916575 -0.000000
v -22.578861 0.916560 0.076414
v -22.522690 0.916530 0.132345
v -22.445971 0.916515 0.152815
v -22.369249 0.916530 0.132345
v -22.369995 0.917135 0.131045
v -22.314373 0.917154 0.075663
v -22.294010 0.917163 0.000000
v -22.314373 0.917154 -0.075663
v -22.369995 0.917135 -0.131046
v -22.445969 0.917126 -0.151315
v -22.521942 0.917135 -0.131046
v -22.577562 0.917154 -0.075663
v -22.597923 0.917163 -0.000000
v -22.577562 0.917154 0.075662
v -22.521942 0.917135 0.131045
v -22.445971 0.917126 0.151315
v -22.314964 0.881418 0.074800
v -22.370369 0.881299 0.129495
v -22.445971 0.881241 0.149493
v -22.521572 0.881298 0.129495
v -22.576975 0.881418 0.074799
v -22.597277 0.881480 -0.000000
v -22.576975 0.881418 -0.074800
v -22.521572 0.881299 -0.129495
v -22.445971 0.881241 -0.149493
v -22.370369 0.881299 -0.129495
v -22.314964 0.881418 -0.074800
v -22.294662 0.881480 0.000000
v -22.340364 0.787657 0.057455
v -22.385059 0.787621 0.099407
v -22.445971 0.787603 0.114725
v -22.506882 0.787621 0.099407
v -22.551575 0.787656 0.057455
v -22.567974 0.787674 -0.000000
v -22.551575 0.787656 -0.057454
v -22.506882 0.787621 -0.099407
v -22.445971 0.787603 -0.114726
v -22.385059 0.787621 -0.099407
v -22.340364 0.787656 -0.057454
v -22.323963 0.787674 -0.000000
vt -1.000137 -0.019018
vt -0.822937 -0.019022
vt -0.656760 -0.019032
vt -0.500363 -0.019037
vt -0.343966 -0.019032
vt -0.177788 -0.019022
vt -0.000587 -0.019018
vt 0.176615 -0.019022
vt 0.660873 0.290541
vt -1.000139 0.289799
vt -0.828529 0.290044
vt -0.662036 0.290541
vt -0.500363 0.290794
vt -0.338689 0.290541
vt -0.172195 0.290044
vt -0.000585 0.289799
vt 0.171020 0.290044
vt 0.337523 0.290541
vt 0.499198 0.290794
vt 0.407140 0.860920
vt 0.333150 0.527008
vt 0.166560 0.526871
vt -0.000587 0.526802
vt -0.167726 0.526870
vt -0.334316 0.527007
vt -0.500363 0.527077
vt -0.666407 0.527008
vt -0.832998 0.526871
vt -1.000139 0.526803
vt 0.831838 0.526871
vt 0.665244 0.527008
vt 0.499197 0.527077
vt 0.662381 0.366415
vt 0.828932 0.366415
vt 0.658171 0.188363
vt -1.000139 0.366415
vt -1.000138 0.188362
vt -0.830092 0.366415
vt -0.825709 0.188362
vt -0.663542 0.366415
vt -0.659333 0.188363
vt -0.500363 0.366415
vt -0.500363 0.188363
vt -0.337182 0.366415
vt -0.341392 0.188363
vt -0.170632 0.366415
vt -0.175016 0.188363
vt -0.000585 0.366415
vt -0.000586 0.188362
vt 0.169463 0.366415
vt 0.173845 0.188362
vt 0.336015 0.366415
vt 0.340224 0.188363
vt 0.499198 0.366415
vt 0.499198 0.188363
vt 0.304874 0.758850
vt 0.654945 0.000280
vt -1.000136 0.000280
vt -0.822251 0.000280
vt -0.656106 0.000280
vt -0.500363 0.000280
vt -0.344620 0.000280
vt -0.178473 0.000280
vt -0.000587 0.000280
vt 0.177300 0.000280
vt 0.343451 0.000280
vt 0.499198 0.000280
vt 0.166600 0.546582
vt 0.333191 0.546582
vt -0.000587 0.546582
vt -0.167770 0.546582
vt -0.334359 0.546582
vt -0.500363 0.546582
vt -0.666365 0.546582
vt -0.832955 0.546582
vt -1.000141 0.546582
vt 0.831795 0.546582
vt 0.665201 0.546582
vt 0.499198 0.546582
vt 0.998982 -0.019018
vt 0.998980 0.289799
vt 0.655599 -0.019032
vt 0.821781 -0.019022
vt 0.546499 0.619028
vt 0.342797 -0.019032
vt 0.499198 -0.019037
vt 0.998979 0.526803
vt 0.827375 0.290044
vt 0.998980 0.366415
vt 0.998980 0.188362
vt 0.998982 0.000280
vt 0.546499 0.898189
vt 0.685857 0.860920
vt 0.998977 0.546582
vt 0.824550 0.188362
vt 0.821094 0.000280
vt 0.788126 0.758850
vt 0.825660 0.619028
vt 0.788126 0.479205
vt 0.685857 0.377134
vt 0.546499 0.339866
vt 0.407140 0.377134
vt 0.304874 0.479205
vt 0.267337 0.619028
vt 0.692558 0.860068
vt 0.548673 0.611513
vt 0.797890 0.755017
vt 0.548673 0.898520
vt 0.404785 0.860068
vt 0.299453 0.755017
vt 0.260897 0.611513
vt 0.299453 0.468007
vt 0.404785 0.362953
vt 0.548673 0.324500
vt 0.692558 0.362953
vt 0.797890 0.468007
vt 0.836446 0.611513
vt 0.333183 0.542412
vt 0.499198 0.542426
vt 0.665210 0.542411
vt 0.831804 0.542382
vt -1.000141 0.542368
vt 0.998977 0.542368
vt -0.832964 0.542382
vt -0.666374 0.542412
vt -0.500363 0.542426
vt -0.334350 0.542411
vt -0.167760 0.542382
vt -0.000587 0.542368
vt 0.166592 0.542382
vt 0.333161 0.532175
vt 0.499197 0.532225
vt 0.665233 0.532174
vt 0.831827 0.532073
vt -1.000140 0.532024
vt 0.998979 0.532024
vt -0.832987 0.532073
vt -0.666396 0.532175
vt -0.500363 0.532225
vt -0.334327 0.532174
vt -0.167738 0.532073
vt -0.000587 0.532023
vt 0.166570 0.532073
vt 0.166581 0.537477
vt 0.333172 0.537541
vt 0.499197 0.537573
vt 0.665221 0.537540
vt 0.831815 0.537477
vt -1.000140 0.537446
vt 0.998978 0.537446
vt -0.832975 0.537477
vt -0.666385 0.537541
vt -0.500363 0.537573
vt -0.334339 0.537540
vt -0.167750 0.537477
vt -0.000587 0.537446
vt 0.334189 0.419568
vt 0.167617 0.419165
vt -0.000585 0.418971
vt -0.168787 0.419165
vt -0.335356 0.419568
vt -0.500363 0.419777
vt -0.665368 0.419568
vt -0.831937 0.419165
vt 0.998979 0.418971
vt -1.000139 0.418971
vt 0.830778 0.419165
vt 0.664206 0.419568
vt 0.499198 0.419777
vt 0.340856 0.118126
vt 0.174536 0.118007
vt -0.000586 0.117948
vt -0.175708 0.118007
vt -0.342024 0.118126
vt -0.500363 0.118185
vt -0.658701 0.118126
vt -0.825017 0.118007
vt 0.998981 0.117948
vt -1.000138 0.117948
vt 0.823859 0.118007
vt 0.657539 0.118126
vt 0.499198 0.118185
vn 0.705141 -0.561962 -0.432405
vn 0.395085 -0.561301 -0.727221
vn 0.421588 -0.482311 -0.767880
vn 0.751664 -0.476350 -0.456171
vn -0.000001 -0.561169 -0.827701
vn -0.000002 -0.485316 -0.874339
vn -0.395092 -0.561302 -0.727215
vn -0.421600 -0.482303 -0.767878
vn -0.705134 -0.561993 -0.432378
vn -0.751670 -0.476355 -0.456156
vn -0.826774 -0.562535 0.000003
vn -0.880839 -0.473416 -0.000000
vn -0.705142 -0.561986 0.432374
vn -0.751673 -0.476351 0.456155
vn -0.395085 -0.561312 0.727212
vn -0.421598 -0.482308 0.767877
vn 0.000000 -0.561155 0.827711
vn 0.000000 -0.485316 0.874339
vn 0.395074 -0.561315 0.727215
vn 0.421583 -0.482319 0.767878
vn 0.705119 -0.562002 0.432389
vn 0.751650 -0.476379 0.456163
vn 0.826773 -0.562535 -0.000004
vn 0.880831 -0.473430 -0.000003
vn 0.818014 -0.306922 -0.486470
vn 0.461800 -0.328500 -0.823911
vn 0.485780 -0.194394 -0.852191
vn 0.850352 -0.171960 -0.497324
vn -0.000002 -0.339001 -0.940786
vn -0.000001 -0.205407 -0.978677
vn -0.461810 -0.328505 -0.823903
vn -0.485788 -0.194408 -0.852183
vn -0.818016 -0.306933 -0.486460
vn -0.850353 -0.171974 -0.497318
vn -0.955234 -0.295853 -0.000002
vn -0.987030 -0.160535 -0.000000
vn -0.818019 -0.306922 0.486461
vn -0.850356 -0.171964 0.497316
vn -0.461813 -0.328498 0.823904
vn -0.485790 -0.194398 0.852184
vn 0.000000 -0.339004 0.940785
vn -0.000001 -0.205392 0.978680
vn 0.461799 -0.328503 0.823910
vn 0.485782 -0.194378 0.852193
vn 0.818008 -0.306940 0.486467
vn 0.850352 -0.171949 0.497328
vn 0.955233 -0.295856 -0.000002
vn 0.987030 -0.160534 0.000003
vn -0.028833 -0.998126 0.053978
vn -0.049973 -0.998264 0.031178
vn 0.000000 -1.000000 -0.000000
vn -0.000000 -0.998057 0.062310
vn 0.028834 -0.998126 0.053976
vn 0.049974 -0.998264 0.031177
vn 0.057723 -0.998333 0.000000
vn 0.049975 -0.998264 -0.031177
vn 0.028835 -0.998126 -0.053976
vn -0.000000 -0.998057 -0.062312
vn -0.028833 -0.998126 -0.053978
vn -0.049972 -0.998264 -0.031177
vn -0.057723 -0.998333 0.000000
vn -0.836713 0.237816 0.493310
vn -0.470795 0.258798 0.843431
vn -0.414724 0.506503 0.755949
vn -0.741526 0.500545 0.446760
vn 0.000003 0.269742 0.962933
vn 0.000003 0.508815 0.860876
vn 0.475227 0.259052 0.840864
vn 0.417951 0.503996 0.755848
vn 0.836767 0.237147 0.493540
vn 0.744563 0.494242 0.448721
vn 0.974144 0.225927 0.000001
vn 0.872115 0.489301 0.000001
vn 0.836768 0.237147 -0.493538
vn 0.744566 0.494240 -0.448719
vn 0.475230 0.259051 -0.840862
vn 0.417957 0.503994 -0.755845
vn 0.000003 0.269744 -0.962932
vn 0.000002 0.508810 -0.860879
vn -0.475233 0.259045 -0.840862
vn -0.417956 0.503992 -0.755847
vn -0.836766 0.237142 -0.493544
vn -0.744568 0.494234 -0.448723
vn -0.974211 0.225576 -0.005283
vn -0.870691 0.491821 -0.002981
vn -0.215442 0.892499 0.396272
vn 0.000000 1.000000 0.000001
vn -0.382179 0.893917 0.234206
vn 0.000000 0.891862 0.452307
vn 0.215448 0.892495 0.396276
vn 0.382179 0.893917 0.234204
vn 0.446648 0.894710 0.000000
vn 0.382180 0.893917 -0.234201
vn 0.215453 0.892495 -0.396274
vn 0.000000 0.891860 -0.452312
vn -0.215448 0.892497 -0.396271
vn -0.382175 0.893919 -0.234201
vn -0.446656 0.894706 0.000002
vn -0.456427 0.396414 -0.796574
vn -0.797189 0.386483 -0.463811
vn 0.000008 0.401297 -0.915948
vn 0.456579 0.395963 -0.796712
vn 0.797538 0.385556 -0.463983
vn 0.924781 0.380499 -0.000012
vn 0.797465 0.385787 0.463917
vn 0.456512 0.396160 0.796652
vn 0.000007 0.401331 0.915933
vn -0.455084 0.393222 0.798921
vn -0.799334 0.380616 0.464969
vn -0.925851 0.377883 -0.002356
vn -0.444444 0.858167 -0.256942
vn -0.255030 0.859840 -0.442307
vn 0.000007 0.860657 -0.509185
vn 0.255296 0.859597 -0.442625
vn 0.445148 0.857684 -0.257335
vn 0.515555 0.856856 -0.000017
vn 0.444988 0.857798 0.257233
vn 0.255214 0.859679 0.442513
vn 0.000007 0.860670 0.509163
vn -0.255032 0.859834 0.442317
vn -0.444666 0.858028 0.257022
vn -0.514979 0.857203 0.000028
vn 0.105175 0.992519 0.062008
vn 0.119302 0.992858 -0.000009
vn 0.105151 0.992522 -0.061990
vn 0.062735 0.991870 -0.110715
vn 0.000007 0.991558 -0.129666
vn -0.062532 0.991908 -0.110489
vn -0.104994 0.992552 -0.061786
vn -0.119341 0.992853 0.000000
vn -0.104978 0.992552 0.061809
vn -0.062564 0.991904 0.110510
vn 0.000010 0.991557 0.129672
vn 0.062767 0.991864 0.110749
vn 0.962044 0.272894 0.000029
vn 0.598587 0.801057 0.000024
vn 0.518951 0.799883 0.301458
vn 0.832925 0.268882 0.483672
vn 0.832871 0.269113 -0.483637
vn 0.518729 0.800076 -0.301328
vn 0.480551 0.261087 -0.837200
vn 0.300015 0.797940 -0.522764
vn 0.000003 0.256996 -0.966412
vn 0.000011 0.796908 -0.604100
vn -0.480561 0.261129 -0.837182
vn -0.299875 0.798111 -0.522584
vn -0.832789 0.269380 -0.483628
vn -0.518433 0.800351 -0.301106
vn -0.961861 0.273538 -0.000001
vn -0.598074 0.801441 0.000002
vn -0.832792 0.269373 0.483627
vn -0.518413 0.800363 0.301110
vn -0.480563 0.261127 0.837181
vn -0.299879 0.798114 0.522576
vn 0.000008 0.256975 0.966418
vn 0.000018 0.796891 0.604123
vn 0.480587 0.260949 0.837223
vn 0.300127 0.797812 0.522895
s 1
g pSphere2
f 26/82/1 27/83/2 144/180/3 145/181/4
f 27/83/2 28/80/5 143/178/6 144/180/3
f 28/1/5 29/2/7 142/177/8 143/179/6
f 29/2/7 30/3/9 141/176/10 142/177/8
f 30/3/9 31/4/11 140/175/12 141/176/10
f 31/4/11 32/5/13 139/174/14 140/175/12
f 32/5/13 33/6/15 138/173/16 139/174/14
f 33/6/15 34/7/17 137/172/18 138/173/16
f 34/7/17 35/8/19 136/171/20 137/172/18
f 136/171/20 35/8/19 36/85/21 135/170/22
f 36/85/21 37/86/23 146/182/24 135/170/22
f 37/86/23 26/82/1 145/181/4 146/182/24
f 38/9/25 39/88/26 132/167/27 133/168/28
f 39/88/26 40/81/29 131/165/30 132/167/27
f 40/10/29 41/11/31 130/164/32 131/166/30
f 41/11/31 42/12/33 129/163/34 130/164/32
f 42/12/33 43/13/35 128/162/36 129/163/34
f 43/13/35 44/14/37 127/161/38 128/162/36
f 44/14/37 45/15/39 126/160/40 127/161/38
f 45/15/39 46/16/41 125/159/42 126/160/40
f 46/16/41 47/17/43 124/158/44 125/159/42
f 47/17/43 48/18/45 123/157/46 124/158/44
f 123/157/46 48/18/45 49/19/47 134/169/48
f 49/19/47 38/9/25 133/168/28 134/169/48
s 2
f 27/20/49 26/56/50 50/84/51
f 28/92/52 27/20/49 50/84/51
f 29/93/53 28/92/52 50/84/51
f 30/97/54 29/93/53 50/84/51
f 31/98/55 30/97/54 50/84/51
f 32/99/56 31/98/55 50/84/51
f 33/100/57 32/99/56 50/84/51
f 34/101/58 33/100/57 50/84/51
f 35/102/59 34/101/58 50/84/51
f 36/103/60 35/102/59 50/84/51
f 37/104/61 36/103/60 50/84/51
f 26/56/50 37/104/61 50/84/51
s 1
f 73/33/62 74/34/63 86/95/64 85/35/65
f 74/34/63 63/89/66 75/90/67 86/95/64
f 63/36/66 64/38/68 76/39/69 75/37/67
f 64/38/68 65/40/70 77/41/71 76/39/69
f 65/40/70 66/42/72 78/43/73 77/41/71
f 66/42/72 67/44/74 79/45/75 78/43/73
f 67/44/74 68/46/76 80/47/77 79/45/75
f 68/46/76 69/48/78 81/49/79 80/47/77
f 69/48/78 70/50/80 82/51/81 81/49/79
f 70/50/80 71/52/82 83/53/83 82/51/81
f 71/52/82 72/54/84 84/55/85 83/53/83
f 72/54/84 73/33/62 85/35/65 84/55/85
f 2/105/86 25/106/87 1/107/88
f 3/108/89 25/106/87 2/105/86
f 4/109/90 25/106/87 3/108/89
f 5/110/91 25/106/87 4/109/90
f 6/111/92 25/106/87 5/110/91
f 7/112/93 25/106/87 6/111/92
f 8/113/94 25/106/87 7/112/93
f 9/114/95 25/106/87 8/113/94
f 10/115/96 25/106/87 9/114/95
f 11/116/97 25/106/87 10/115/96
f 12/117/98 25/106/87 11/116/97
f 1/107/88 25/106/87 12/117/98
f 22/68/99 23/69/100 71/52/82 70/50/80
f 21/70/101 22/68/99 70/50/80 69/48/78
f 20/71/102 21/70/101 69/48/78 68/46/76
f 19/72/103 20/71/102 68/46/76 67/44/74
f 18/73/104 19/72/103 67/44/74 66/42/72
f 17/74/105 18/73/104 66/42/72 65/40/70
f 16/75/106 17/74/105 65/40/70 64/38/68
f 15/76/107 16/75/106 64/38/68 63/36/66
f 13/77/108 15/94/107 63/89/66 74/34/63
f 14/78/109 13/77/108 74/34/63 73/33/62
f 24/79/110 14/78/109 73/33/62 72/54/84
f 23/69/100 24/79/110 72/54/84 71/52/82
f 83/53/83 84/55/85 12/67/98 11/66/97
f 82/51/81 83/53/83 11/66/97 10/65/96
f 81/49/79 82/51/81 10/65/96 9/64/95
f 80/47/77 81/49/79 9/64/95 8/63/94
f 79/45/75 80/47/77 8/63/94 7/62/93
f 78/43/73 79/45/75 7/62/93 6/61/92
f 77/41/71 78/43/73 6/61/92 5/60/91
f 76/39/69 77/41/71 5/60/91 4/59/90
f 75/37/67 76/39/69 4/59/90 3/58/89
f 86/95/64 75/90/67 3/91/89 2/96/86
f 85/35/65 86/95/64 2/96/86 1/57/88
f 12/67/98 84/55/85 85/35/65 1/57/88
f 87/118/111 23/69/100 22/68/99 98/130/112
f 22/68/99 21/70/101 97/129/113 98/130/112
f 21/70/101 20/71/102 96/128/114 97/129/113
f 20/71/102 19/72/103 95/127/115 96/128/114
f 19/72/103 18/73/104 94/126/116 95/127/115
f 18/73/104 17/74/105 93/125/117 94/126/116
f 17/74/105 16/75/106 92/124/118 93/125/117
f 16/75/106 15/76/107 91/122/119 92/124/118
f 15/94/107 13/77/108 90/121/120 91/123/119
f 13/77/108 14/78/109 89/120/121 90/121/120
f 14/78/109 24/79/110 88/119/122 89/120/121
f 24/79/110 23/69/100 87/118/111 88/119/122
f 88/119/122 87/118/111 112/145/123 113/146/124
f 89/120/121 88/119/122 113/146/124 114/147/125
f 90/121/120 89/120/121 114/147/125 115/148/126
f 91/123/119 90/121/120 115/148/126 116/150/127
f 92/124/118 91/122/119 116/149/127 117/151/128
f 93/125/117 92/124/118 117/151/128 118/152/129
f 94/126/116 93/125/117 118/152/129 119/153/130
f 95/127/115 94/126/116 119/153/130 120/154/131
f 96/128/114 95/127/115 120/154/131 121/155/132
f 97/129/113 96/128/114 121/155/132 122/156/133
f 122/156/133 111/144/134 98/130/112 97/129/113
f 87/118/111 98/130/112 111/144/134 112/145/123
f 62/32/135 100/132/136 99/131/137 51/21/138
f 61/31/139 101/133/140 100/132/136 62/32/135
f 60/30/141 102/134/142 101/133/140 61/31/139
f 59/87/143 103/136/144 102/134/142 60/30/141
f 58/28/145 104/137/146 103/135/144 59/29/143
f 57/27/147 105/138/148 104/137/146 58/28/145
f 56/26/149 106/139/150 105/138/148 57/27/147
f 55/25/151 107/140/152 106/139/150 56/26/149
f 54/24/153 108/141/154 107/140/152 55/25/151
f 53/23/155 109/142/156 108/141/154 54/24/153
f 52/22/157 110/143/158 109/142/156 53/23/155
f 51/21/138 99/131/137 110/143/158 52/22/157
f 112/145/123 111/144/134 110/143/158 99/131/137
f 113/146/124 112/145/123 99/131/137 100/132/136
f 114/147/125 113/146/124 100/132/136 101/133/140
f 115/148/126 114/147/125 101/133/140 102/134/142
f 116/150/127 115/148/126 102/134/142 103/136/144
f 117/151/128 116/149/127 103/135/144 104/137/146
f 118/152/129 117/151/128 104/137/146 105/138/148
f 119/153/130 118/152/129 105/138/148 106/139/150
f 120/154/131 119/153/130 106/139/150 107/140/152
f 121/155/132 120/154/131 107/140/152 108/141/154
f 122/156/133 121/155/132 108/141/154 109/142/156
f 110/143/158 111/144/134 122/156/133 109/142/156
f 52/22/157 124/158/44 123/157/46 51/21/138
f 53/23/155 125/159/42 124/158/44 52/22/157
f 54/24/153 126/160/40 125/159/42 53/23/155
f 55/25/151 127/161/38 126/160/40 54/24/153
f 56/26/149 128/162/36 127/161/38 55/25/151
f 57/27/147 129/163/34 128/162/36 56/26/149
f 58/28/145 130/164/32 129/163/34 57/27/147
f 59/29/143 131/166/30 130/164/32 58/28/145
f 60/30/141 132/167/27 131/165/30 59/87/143
f 61/31/139 133/168/28 132/167/27 60/30/141
f 62/32/135 134/169/48 133/168/28 61/31/139
f 51/21/138 123/157/46 134/169/48 62/32/135
f 47/17/43 136/171/20 135/170/22 48/18/45
f 46/16/41 137/172/18 136/171/20 47/17/43
f 45/15/39 138/173/16 137/172/18 46/16/41
f 44/14/37 139/174/14 138/173/16 45/15/39
f 43/13/35 140/175/12 139/174/14 44/14/37
f 42/12/33 141/176/10 140/175/12 43/13/35
f 41/11/31 142/177/8 141/176/10 42/12/33
f 40/10/29 143/179/6 142/177/8 41/11/31
f 39/88/26 144/180/3 143/178/6 40/81/29
f 38/9/25 145/181/4 144/180/3 39/88/26
f 49/19/47 146/182/24 145/181/4 38/9/25
f 48/18/45 135/170/22 146/182/24 49/19/47
