# This file uses centimeters as units for non-parametric coordinates.

g default
v -22.370087 0.767437 -0.041427
v -22.447845 0.767437 -0.082851
v -22.525604 0.767437 -0.041427
v -22.525604 0.767437 0.041426
v -22.447845 0.767437 0.082853
v -22.370087 0.767437 0.041426
v -22.318436 0.915316 -0.074394
v -22.447845 0.915316 -0.148788
v -22.577251 0.915316 -0.074394
v -22.577251 0.915316 0.074394
v -22.447845 0.915316 0.148788
v -22.318439 0.915316 0.074394
v -22.447845 0.759012 -0.000000
v -22.362377 0.753304 -0.045759
v -22.447845 0.753308 -0.091358
v -22.533314 0.753304 -0.045759
v -22.533314 0.753304 0.045757
v -22.447845 0.753308 0.091358
v -22.362377 0.753304 0.045757
v -22.324917 0.837027 -0.068460
v -22.447845 0.836807 -0.136743
v -22.570770 0.837027 -0.068460
v -22.570770 0.837027 0.068460
v -22.447845 0.836808 0.136744
v -22.324917 0.837027 0.068460
v -22.447845 0.759012 -0.000000
v -22.313705 0.914690 0.077140
v -22.447845 0.914629 0.154259
v -22.581985 0.914689 0.077139
v -22.581985 0.914690 -0.077140
v -22.447845 0.914629 -0.154259
v -22.313702 0.914690 -0.077140
vt -1.000137 -0.019018
vt -0.656760 -0.019032
vt -0.343966 -0.019032
vt -0.000587 -0.019018
vt 0.660873 0.290541
vt -1.000139 0.289799
vt -0.662036 0.290541
vt -0.338689 0.290541
vt -0.000585 0.289799
vt 0.337523 0.290541
vt 0.333150 0.527008
vt -0.000587 0.526802
vt -0.334316 0.527007
vt -0.666407 0.527008
vt -1.000139 0.526803
vt 0.665244 0.527008
vt 0.304874 0.758850
vt 0.654945 0.000280
vt -1.000136 0.000280
vt -0.656106 0.000280
vt -0.344620 0.000280
vt -0.000587 0.000280
vt 0.343451 0.000280
vt 0.333191 0.546582
vt -0.000587 0.546582
vt -0.334359 0.546582
vt -0.666365 0.546582
vt -1.000141 0.546582
vt 0.665201 0.546582
vt 0.998982 -0.019018
vt 0.998980 0.289799
vt 0.655599 -0.019032
vt 0.546499 0.619028
vt 0.342797 -0.019032
vt 0.998979 0.526803
vt 0.998982 0.000280
vt 0.546499 0.898189
vt 0.998977 0.546582
vt 0.788126 0.758850
vt 0.788126 0.479205
vt 0.546499 0.339866
vt 0.304874 0.479205
vt 0.548673 0.611513
vt 0.797890 0.755017
vt 0.548673 0.898520
vt 0.299453 0.755017
vt 0.299453 0.468007
vt 0.548673 0.324500
vt 0.797890 0.468007
vn 0.760868 -0.468414 -0.449075
vn -0.000004 -0.468086 -0.883683
vn -0.000005 -0.341722 -0.939801
vn 0.814009 -0.332261 -0.476437
vn -0.760884 -0.468389 -0.449075
vn -0.814013 -0.332255 -0.476434
vn -0.760884 -0.468392 0.449070
vn -0.814014 -0.332254 0.476432
vn -0.000004 -0.468095 0.883678
vn -0.000004 -0.341724 0.939801
vn 0.760868 -0.468417 0.449071
vn 0.814008 -0.332260 0.476439
vn 0.000000 0.639558 -0.768743
vn 0.656078 0.650690 -0.382315
vn -0.656090 0.650676 -0.382317
vn -0.656095 0.650661 0.382335
vn -0.000013 0.639543 0.768755
vn 0.656076 0.650684 0.382328
vn -0.049986 -0.998264 0.031158
vn -0.000000 -1.000000 -0.000000
vn -0.000001 -0.998057 0.062310
vn 0.049985 -0.998264 0.031156
vn 0.049986 -0.998264 -0.031157
vn 0.000000 -0.998057 -0.062311
vn -0.049985 -0.998264 -0.031158
vn 0.000001 0.826281 0.563258
vn 0.000000 1.000000 0.000001
vn -0.484122 0.827491 0.284401
vn 0.484126 0.827489 0.284402
vn 0.484130 0.827486 -0.284402
vn 0.000000 0.826282 -0.563256
vn -0.484124 0.827489 -0.284405
vn -0.000008 0.887459 -0.460887
vn -0.399790 0.886711 -0.232187
vn 0.399781 0.886719 -0.232173
vn 0.399785 0.886712 0.232192
vn 0.000006 0.887448 0.460908
vn -0.399788 0.886712 0.232186
s 1
g pSphere6
f 14/32/1 15/30/2 21/31/3 20/5/4
f 15/1/2 16/2/5 22/7/6 21/6/3
f 16/2/5 17/3/7 23/8/8 22/7/6
f 17/3/7 18/4/9 24/9/10 23/8/8
f 18/4/9 19/34/11 25/10/12 24/9/10
f 25/10/12 19/34/11 14/32/1 20/5/4
f 20/5/4 21/31/3 31/35/13 32/16/14
f 21/6/3 22/7/6 30/14/15 31/15/13
f 22/7/6 23/8/8 29/13/16 30/14/15
f 23/8/8 24/9/10 28/12/17 29/13/16
f 24/9/10 25/10/12 27/11/18 28/12/17
f 27/11/18 25/10/12 20/5/4 32/16/14
s 2
f 14/17/19 26/33/20 15/37/21
f 15/37/21 26/33/20 16/39/22
f 16/39/22 26/33/20 17/40/23
f 17/40/23 26/33/20 18/41/24
f 19/42/25 18/41/24 26/33/20
f 19/42/25 26/33/20 14/17/19
s 1
f 2/45/26 13/43/27 1/44/28
f 3/46/29 13/43/27 2/45/26
f 4/47/30 13/43/27 3/46/29
f 5/48/31 13/43/27 4/47/30
f 6/49/32 13/43/27 5/48/31
f 1/44/28 13/43/27 6/49/32
f 6/23/32 5/22/31 11/25/33 12/24/34
f 5/22/31 4/21/30 10/26/35 11/25/33
f 4/21/30 3/20/29 9/27/36 10/26/35
f 3/20/29 2/19/26 8/28/37 9/27/36
f 8/38/37 2/36/26 1/18/28 7/29/38
f 1/18/28 6/23/32 12/24/34 7/29/38
f 27/11/18 12/24/34 11/25/33 28/12/17
f 11/25/33 10/26/35 29/13/16 28/12/17
f 10/26/35 9/27/36 30/14/15 29/13/16
f 9/27/36 8/28/37 31/15/13 30/14/15
f 8/38/37 7/29/38 32/16/14 31/35/13
f 7/29/38 12/24/34 27/11/18 32/16/14
