# This file uses centimeters as units for non-parametric coordinates.

g default
v -38.921200 0.485310 0.390652
v -37.953110 0.485310 0.390652
v -38.918522 0.512835 0.387752
v -37.955795 0.512835 0.387752
v -38.918522 0.512835 -0.387753
v -37.955795 0.512835 -0.387753
v -38.921200 0.485310 -0.390652
v -37.953110 0.485310 -0.390652
v -38.932789 0.530968 0.399350
v -37.941513 0.530968 0.399350
v -37.941513 0.530968 -0.399350
v -38.932789 0.530968 -0.399350
v -38.932789 0.571626 0.399350
v -37.941513 0.571626 0.399350
v -37.941513 0.571626 -0.399350
v -38.932789 0.571626 -0.399350
v -38.890617 0.571626 0.353688
v -37.983681 0.571626 0.353688
v -37.983681 0.571626 -0.353687
v -38.890617 0.571626 -0.353687
v -38.884327 0.550833 0.349981
v -37.989983 0.550833 0.349981
v -37.989983 0.550833 -0.349981
v -38.884327 0.550833 -0.349981
v -38.882507 0.558015 0.349085
v -37.991802 0.558015 0.349085
v -37.991802 0.558015 -0.349085
v -38.882507 0.558015 -0.349085
v -38.822956 0.383733 0.366603
v -38.860764 0.365300 0.366603
v -38.822956 0.383733 0.341879
v -38.860764 0.365300 0.341879
v -38.822956 0.456006 0.341879
v -38.860764 0.490254 0.341879
v -38.860764 0.490254 0.366603
v -38.822956 0.456006 0.366603
v -38.671375 0.490254 0.366603
v -38.694824 0.456006 0.366603
v -38.694824 0.456006 0.341879
v -38.671375 0.490254 0.341879
v -38.050503 0.383733 0.366603
v -38.012695 0.365300 0.366603
v -38.050503 0.383733 0.341879
v -38.012695 0.365300 0.341879
v -38.050503 0.456006 0.341879
v -38.012695 0.490254 0.341879
v -38.012695 0.490254 0.366603
v -38.050503 0.456006 0.366603
v -38.202084 0.490254 0.366603
v -38.178642 0.456006 0.366603
v -38.178642 0.456006 0.341879
v -38.202084 0.490254 0.341879
v -38.050503 0.379874 -0.339323
v -38.012695 0.361442 -0.339323
v -38.050503 0.379874 -0.364048
v -38.012695 0.361442 -0.364048
v -38.050503 0.452147 -0.364048
v -38.012695 0.486395 -0.364048
v -38.012695 0.486395 -0.339323
v -38.050503 0.452147 -0.339323
v -38.202084 0.486395 -0.339323
v -38.178642 0.452147 -0.339323
v -38.178642 0.452147 -0.364048
v -38.202084 0.486395 -0.364048
v -38.822956 0.379874 -0.339323
v -38.860764 0.361442 -0.339323
v -38.822956 0.379874 -0.364048
v -38.860764 0.361442 -0.364048
v -38.822956 0.452147 -0.364048
v -38.860764 0.486395 -0.364048
v -38.860764 0.486395 -0.339323
v -38.822956 0.452147 -0.339323
v -38.671375 0.486395 -0.339323
v -38.694824 0.452147 -0.339323
v -38.694824 0.452147 -0.364048
v -38.671375 0.486395 -0.364048
v -38.870934 0.383733 0.289903
v -38.870934 0.365300 0.327709
v -38.895653 0.383733 0.289903
v -38.895653 0.365300 0.327709
v -38.895653 0.456006 0.289903
v -38.895653 0.490254 0.327709
v -38.870934 0.490254 0.327709
v -38.870934 0.456006 0.289903
v -38.870934 0.490254 0.190358
v -38.870934 0.456006 0.213799
v -38.895653 0.456006 0.213799
v -38.895653 0.490254 0.190358
v -38.870934 0.379874 -0.292017
v -38.870934 0.361442 -0.329823
v -38.895653 0.379874 -0.292017
v -38.895653 0.361442 -0.329823
v -38.895653 0.452147 -0.292017
v -38.895653 0.486395 -0.329823
v -38.870934 0.486395 -0.329823
v -38.870934 0.452147 -0.292017
v -38.870934 0.486395 -0.192472
v -38.870934 0.452147 -0.215913
v -38.895653 0.452147 -0.215913
v -38.895653 0.486395 -0.192472
v -37.976425 0.383733 0.289903
v -37.976425 0.365300 0.327709
v -38.001152 0.383733 0.289903
v -38.001152 0.365300 0.327709
v -38.001152 0.456006 0.289903
v -38.001152 0.490254 0.327709
v -37.976425 0.490254 0.327709
v -37.976425 0.456006 0.289903
v -37.976425 0.490254 0.190358
v -37.976425 0.456006 0.213799
v -38.001152 0.456006 0.213799
v -38.001152 0.490254 0.190358
v -37.976425 0.379874 -0.292017
v -37.976425 0.361442 -0.329823
v -38.001152 0.379874 -0.292017
v -38.001152 0.361442 -0.329823
v -38.001152 0.452147 -0.292017
v -38.001152 0.486395 -0.329823
v -37.976425 0.486395 -0.329823
v -37.976425 0.452147 -0.292017
v -37.976425 0.486395 -0.192472
v -37.976425 0.452147 -0.215913
v -38.001152 0.452147 -0.215913
v -38.001152 0.486395 -0.192472
v -38.017796 0.140390 0.380804
v -37.959236 0.140390 0.382866
v -38.017796 0.140390 0.324300
v -37.961750 0.140390 0.324300
v -37.959236 0.505090 0.382866
v -38.017796 0.505090 0.380804
v -38.017796 0.505090 0.324300
v -37.961750 0.505090 0.324300
v -38.915070 0.140390 0.382866
v -38.856499 0.140390 0.380804
v -38.912552 0.140390 0.324300
v -38.856499 0.140390 0.324300
v -38.915070 0.493804 0.382866
v -38.912552 0.493804 0.324300
v -38.856499 0.493804 0.324300
v -38.856499 0.493804 0.380804
v -38.912552 0.140390 -0.322383
v -38.856499 0.140390 -0.322383
v -38.915070 0.140390 -0.380949
v -38.856499 0.140390 -0.378887
v -38.915070 0.500369 -0.380949
v -38.912552 0.500369 -0.322383
v -38.856499 0.500369 -0.322383
v -38.856499 0.500369 -0.378887
v -38.017796 0.140390 -0.322383
v -37.961750 0.140390 -0.322383
v -38.017796 0.140390 -0.378887
v -37.959236 0.140390 -0.380949
v -37.959236 0.493242 -0.380949
v -38.017796 0.493242 -0.378887
v -38.017796 0.493242 -0.322383
v -37.961750 0.493242 -0.322383
vt -0.153957 0.468189
vt 0.605894 0.468189
vt 0.349422 0.188283
vt 0.665860 0.188283
vt 0.666123 0.423759
vt 0.349159 0.423759
vt 1.219103 0.468953
vt 0.459260 0.468953
vt 0.333979 0.440687
vt 0.681303 0.440687
vt 0.681305 0.164579
vt 0.333977 0.164579
vt -0.149576 0.494823
vt 0.606066 0.494823
vt 1.214136 0.493234
vt 0.458502 0.493234
vt -0.169887 0.512369
vt 0.608171 0.512369
vt 0.608171 0.555094
vt -0.169887 0.555094
vt 1.234341 0.513042
vt 1.234863 0.555136
vt 0.456294 0.513042
vt 0.456816 0.555136
vt 0.329816 0.166306
vt 0.685467 0.166306
vt 0.671429 0.182035
vt 0.343853 0.182035
vt 0.685975 0.448436
vt 0.670639 0.431759
vt 0.329307 0.448436
vt 0.344643 0.431759
vt 0.667688 0.185677
vt 0.347594 0.185677
vt 0.667264 0.425744
vt 0.348018 0.425744
vt 0.321762 0.358312
vt 0.266530 0.358312
vt 0.266530 0.340568
vt 0.321762 0.340568
vt 0.359246 0.244391
vt 0.359246 0.330296
vt 0.385794 0.306751
vt 0.385794 0.257063
vt 0.359246 0.330296
vt 0.359246 0.244391
vt 0.385794 0.257063
vt 0.385794 0.306751
vt 0.568338 0.358312
vt 0.516509 0.358312
vt 0.516509 0.340568
vt 0.568338 0.340568
vt 0.377454 0.358312
vt 0.377454 0.340568
vt 0.475771 0.306751
vt 0.492232 0.330296
vt 0.492232 0.330296
vt 0.475771 0.306751
vt 0.321762 0.358312
vt 0.321762 0.340568
vt 0.266530 0.340568
vt 0.266530 0.358312
vt 0.359246 0.244391
vt 0.385794 0.257063
vt 0.385794 0.306751
vt 0.359246 0.330296
vt 0.359246 0.330296
vt 0.385794 0.306751
vt 0.385794 0.257063
vt 0.359246 0.244391
vt 0.568338 0.358312
vt 0.568338 0.340568
vt 0.516509 0.340568
vt 0.516509 0.358312
vt 0.377454 0.358312
vt 0.377454 0.340568
vt 0.492232 0.330296
vt 0.475771 0.306751
vt 0.475771 0.306751
vt 0.492232 0.330296
vt 0.321762 0.358312
vt 0.321762 0.340568
vt 0.266530 0.340568
vt 0.266530 0.358312
vt 0.359246 0.244391
vt 0.385794 0.257063
vt 0.385794 0.306751
vt 0.359246 0.330296
vt 0.359246 0.330296
vt 0.385794 0.306751
vt 0.385794 0.257063
vt 0.359246 0.244391
vt 0.568338 0.358312
vt 0.568338 0.340568
vt 0.516509 0.340568
vt 0.516509 0.358312
vt 0.377454 0.358312
vt 0.377454 0.340568
vt 0.492232 0.330296
vt 0.475771 0.306751
vt 0.475771 0.306751
vt 0.492232 0.330296
vt 0.321762 0.358312
vt 0.266530 0.358312
vt 0.266530 0.340568
vt 0.321762 0.340568
vt 0.359246 0.244391
vt 0.359246 0.330296
vt 0.385794 0.306751
vt 0.385794 0.257063
vt 0.359246 0.330296
vt 0.359246 0.244391
vt 0.385794 0.257063
vt 0.385794 0.306751
vt 0.568338 0.358312
vt 0.516509 0.358312
vt 0.516509 0.340568
vt 0.568338 0.340568
vt 0.377454 0.358312
vt 0.377454 0.340568
vt 0.475771 0.306751
vt 0.492232 0.330296
vt 0.492232 0.330296
vt 0.475771 0.306751
vt 0.321762 0.358312
vt 0.266530 0.358312
vt 0.266530 0.340568
vt 0.321762 0.340568
vt 0.359246 0.244391
vt 0.359246 0.330296
vt 0.385794 0.306751
vt 0.385794 0.257063
vt 0.359246 0.330296
vt 0.359246 0.244391
vt 0.385794 0.257063
vt 0.385794 0.306751
vt 0.568338 0.358312
vt 0.516509 0.358312
vt 0.516509 0.340568
vt 0.568338 0.340568
vt 0.377454 0.358312
vt 0.377454 0.340568
vt 0.475771 0.306751
vt 0.492232 0.330296
vt 0.492232 0.330296
vt 0.475771 0.306751
vt 0.321762 0.358312
vt 0.321762 0.340568
vt 0.266530 0.340568
vt 0.266530 0.358312
vt 0.359246 0.244391
vt 0.385794 0.257063
vt 0.385794 0.306751
vt 0.359246 0.330296
vt 0.359246 0.330296
vt 0.385794 0.306751
vt 0.385794 0.257063
vt 0.359246 0.244391
vt 0.568338 0.358312
vt 0.568338 0.340568
vt 0.516509 0.340568
vt 0.516509 0.358312
vt 0.377454 0.358312
vt 0.377454 0.340568
vt 0.492232 0.330296
vt 0.475771 0.306751
vt 0.475771 0.306751
vt 0.492232 0.330296
vt 0.321762 0.358312
vt 0.266530 0.358312
vt 0.266530 0.340568
vt 0.321762 0.340568
vt 0.359246 0.244391
vt 0.359246 0.330296
vt 0.385794 0.306751
vt 0.385794 0.257063
vt 0.359246 0.330296
vt 0.359246 0.244391
vt 0.385794 0.257063
vt 0.385794 0.306751
vt 0.568338 0.358312
vt 0.516509 0.358312
vt 0.516509 0.340568
vt 0.568338 0.340568
vt 0.377454 0.358312
vt 0.377454 0.340568
vt 0.475771 0.306751
vt 0.492232 0.330296
vt 0.492232 0.330296
vt 0.475771 0.306751
vt 0.321762 0.358312
vt 0.321762 0.340568
vt 0.266530 0.340568
vt 0.266530 0.358312
vt 0.359246 0.244391
vt 0.385794 0.257063
vt 0.385794 0.306751
vt 0.359246 0.330296
vt 0.359246 0.330296
vt 0.385794 0.306751
vt 0.385794 0.257063
vt 0.359246 0.244391
vt 0.568338 0.358312
vt 0.568338 0.340568
vt 0.516509 0.340568
vt 0.516509 0.358312
vt 0.377454 0.358312
vt 0.377454 0.340568
vt 0.492232 0.330296
vt 0.475771 0.306751
vt 0.475771 0.306751
vt 0.492232 0.330296
vt 1.547970 0.063951
vt 1.547970 0.006710
vt 1.182515 0.006767
vt 1.182515 0.063895
vt 1.182515 0.126238
vt 1.182515 0.066736
vt 1.547970 0.066671
vt 1.547970 0.126302
vt 0.565915 0.333005
vt 0.615373 0.333005
vt 0.615373 0.283143
vt 0.563692 0.281323
vt 1.547970 0.006710
vt 1.547970 0.066671
vt 1.182515 0.066612
vt 1.182515 0.006769
vt 1.547970 0.127093
vt 1.547970 0.063951
vt 1.182515 0.064019
vt 1.182515 0.127026
vt 1.547970 0.063951
vt 1.547970 0.006710
vt 1.193825 0.006767
vt 1.193825 0.063895
vt 1.193825 0.126238
vt 1.193825 0.066736
vt 1.547970 0.066671
vt 1.547970 0.126302
vt 0.565915 0.333005
vt 0.615373 0.333005
vt 0.615373 0.283143
vt 0.563692 0.281323
vt 1.547970 0.006710
vt 1.547970 0.066671
vt 1.193825 0.066607
vt 1.193825 0.006774
vt 1.547970 0.127093
vt 1.547970 0.063951
vt 1.193825 0.064014
vt 1.193825 0.127031
vt 0.565915 0.333005
vt 0.615373 0.333005
vt 0.615373 0.283143
vt 0.563692 0.281323
vt 1.547970 0.127093
vt 1.547970 0.063951
vt 1.187245 0.064014
vt 1.187245 0.127031
vt 1.547970 0.063951
vt 1.547970 0.006710
vt 1.187245 0.006772
vt 1.187245 0.063889
vt 1.547970 0.006710
vt 1.547970 0.066671
vt 1.187245 0.066607
vt 1.187245 0.006774
vt 1.187245 0.126243
vt 1.187245 0.066730
vt 1.547970 0.066671
vt 1.547970 0.126302
vt 0.565915 0.333005
vt 0.615373 0.333005
vt 0.615373 0.283143
vt 0.563692 0.281323
vt 1.194388 0.126243
vt 1.194388 0.066730
vt 1.547970 0.066671
vt 1.547970 0.126302
vt 1.547970 0.127093
vt 1.547970 0.063951
vt 1.194388 0.064019
vt 1.194388 0.127026
vt 1.547970 0.063951
vt 1.547970 0.006710
vt 1.194388 0.006772
vt 1.194388 0.063889
vt 1.547970 0.006710
vt 1.547970 0.066671
vt 1.194388 0.066612
vt 1.194388 0.006769
vn 0.000000 0.104782 0.994495
vn 0.000000 0.104782 0.994495
vn 0.000000 0.104782 0.994495
vn 0.000000 0.104782 0.994495
vn 0.000000 1.000000 0.000000
vn 0.000000 1.000000 0.000000
vn 0.000000 1.000000 0.000000
vn 0.000000 1.000000 0.000000
vn 0.000000 0.104765 -0.994497
vn 0.000000 0.104765 -0.994497
vn 0.000000 0.104765 -0.994497
vn 0.000000 0.104765 -0.994497
vn 0.000000 -1.000000 0.000000
vn 0.000000 -1.000000 0.000000
vn 0.000000 -1.000000 0.000000
vn 0.000000 -1.000000 0.000000
vn 0.995276 0.097084 0.000000
vn 0.995276 0.097084 0.000000
vn 0.995276 0.097084 0.000000
vn 0.995276 0.097084 0.000000
vn -0.995308 0.096763 0.000000
vn -0.995308 0.096763 0.000000
vn -0.995308 0.096763 0.000000
vn -0.995308 0.096763 0.000000
vn 0.000000 -0.538840 0.842408
vn 0.000000 -0.538840 0.842408
vn 0.000000 -0.538840 0.842408
vn 0.000000 -0.538840 0.842408
vn 0.785586 -0.618753 0.000000
vn 0.785586 -0.618753 0.000000
vn 0.785586 -0.618753 0.000000
vn 0.785586 -0.618753 0.000000
vn 0.000000 -0.538809 -0.842428
vn 0.000000 -0.538809 -0.842428
vn 0.000000 -0.538809 -0.842428
vn 0.000000 -0.538809 -0.842428
vn -0.785954 -0.618285 0.000000
vn -0.785954 -0.618285 0.000000
vn -0.785954 -0.618285 0.000000
vn -0.785954 -0.618285 0.000000
vn 0.000000 0.000000 1.000000
vn 0.000000 0.000000 1.000000
vn 0.000000 0.000000 1.000000
vn 0.000000 0.000000 1.000000
vn 1.000000 0.000000 0.000000
vn 1.000000 0.000000 0.000000
vn 1.000000 0.000000 0.000000
vn 1.000000 0.000000 0.000000
vn 0.000000 0.000000 -1.000000
vn 0.000000 0.000000 -1.000000
vn 0.000000 0.000000 -1.000000
vn 0.000000 0.000000 -1.000000
vn -1.000000 0.000000 0.000000
vn -1.000000 0.000000 0.000000
vn -1.000000 0.000000 0.000000
vn -1.000000 0.000000 0.000000
vn 0.000000 1.000000 0.000001
vn 0.000000 1.000000 0.000001
vn 0.000000 1.000000 0.000001
vn 0.000000 1.000000 0.000001
vn 0.000000 1.000000 -0.000000
vn 0.000000 1.000000 -0.000000
vn 0.000000 1.000000 -0.000000
vn 0.000000 1.000000 -0.000000
vn 0.000000 0.175509 -0.984478
vn 0.000000 0.175509 -0.984478
vn 0.000000 0.175509 -0.984478
vn 0.000000 0.175509 -0.984478
vn -0.957031 0.289987 0.000000
vn -0.957031 0.289987 0.000000
vn -0.957031 0.289987 0.000000
vn -0.957031 0.289987 0.000000
vn 0.000000 0.175487 0.984482
vn 0.000000 0.175487 0.984482
vn 0.000000 0.175487 0.984482
vn 0.000000 0.175487 0.984482
vn 0.957151 0.289588 0.000000
vn 0.957151 0.289588 0.000000
vn 0.957151 0.289588 0.000000
vn 0.957151 0.289588 0.000000
vn 0.000000 0.123795 0.992308
vn 0.000000 0.123795 0.992308
vn 0.000000 0.123795 0.992308
vn 0.000000 0.123795 0.992308
vn 0.969344 0.245709 0.000000
vn 0.969344 0.245709 0.000000
vn 0.969344 0.245709 0.000000
vn 0.969344 0.245709 0.000000
vn 0.000000 0.123730 -0.992316
vn 0.000000 0.123730 -0.992316
vn 0.000000 0.123730 -0.992316
vn 0.000000 0.123730 -0.992316
vn -0.969342 0.245714 0.000000
vn -0.969342 0.245714 0.000000
vn -0.969342 0.245714 0.000000
vn -0.969342 0.245714 0.000000
vn 0.438233 -0.898861 0.000000
vn 0.438233 -0.898861 0.000000
vn 0.438233 -0.898861 0.000000
vn 0.438233 -0.898861 0.000000
vn 0.000001 0.000000 -1.000000
vn 0.000000 0.000000 -1.000000
vn 0.000000 0.000000 -1.000000
vn 0.000001 0.000000 -1.000000
vn -0.000000 0.000000 1.000000
vn -0.000001 0.000000 1.000000
vn -0.000001 0.000000 1.000000
vn -0.000000 0.000000 1.000000
vn 0.825109 -0.564973 0.000000
vn 0.825109 -0.564973 0.000000
vn 0.825109 -0.564973 0.000000
vn 0.825109 -0.564973 0.000000
vn 1.000000 0.000000 0.000000
vn 1.000000 0.000000 0.000000
vn 1.000000 0.000000 0.000000
vn 1.000000 0.000000 0.000000
vn 0.000000 0.000000 1.000000
vn 0.000000 0.000000 1.000000
vn 0.000000 -1.000000 0.000000
vn 0.000000 -1.000000 0.000000
vn 0.000000 -1.000000 0.000000
vn 0.000000 -1.000000 0.000000
vn 0.000000 0.000000 -1.000000
vn 0.000000 0.000000 -1.000000
vn -0.438233 -0.898861 0.000000
vn -0.438233 -0.898861 0.000000
vn -0.438233 -0.898861 0.000000
vn -0.438233 -0.898861 0.000000
vn -0.000001 0.000000 -1.000000
vn -0.000001 0.000000 -1.000000
vn -0.000000 0.000000 -1.000000
vn -0.000000 0.000000 -1.000000
vn 0.000000 0.000000 1.000000
vn 0.000000 0.000000 1.000000
vn 0.000001 0.000000 1.000000
vn 0.000001 0.000000 1.000000
vn -0.825190 -0.564855 0.000000
vn -0.825190 -0.564855 0.000000
vn -0.825190 -0.564855 0.000000
vn -0.825190 -0.564855 0.000000
vn -1.000000 0.000000 0.000000
vn -1.000000 0.000000 0.000000
vn -1.000000 0.000000 0.000000
vn -1.000000 0.000000 0.000000
vn 0.000000 0.000000 1.000000
vn 0.000000 0.000000 1.000000
vn 0.000000 -1.000000 0.000000
vn 0.000000 -1.000000 0.000000
vn 0.000000 -1.000000 0.000000
vn 0.000000 -1.000000 0.000000
vn 0.000000 0.000000 -1.000000
vn 0.000000 0.000000 -1.000000
vn -0.438222 -0.898867 0.000000
vn -0.438222 -0.898867 0.000000
vn -0.438222 -0.898867 0.000000
vn -0.438222 -0.898867 0.000000
vn 0.000000 0.000000 -1.000000
vn 0.000000 0.000000 -1.000000
vn 0.000000 0.000000 -1.000000
vn 0.000000 0.000000 -1.000000
vn 0.000000 0.000000 1.000000
vn 0.000000 0.000000 1.000000
vn 0.000000 0.000000 1.000000
vn 0.000000 0.000000 1.000000
vn -0.825202 -0.564838 0.000000
vn -0.825202 -0.564838 0.000000
vn -0.825202 -0.564838 0.000000
vn -0.825202 -0.564838 0.000000
vn -1.000000 0.000000 0.000000
vn -1.000000 0.000000 0.000000
vn -1.000000 0.000000 0.000000
vn -1.000000 0.000000 0.000000
vn 0.000000 0.000000 1.000000
vn 0.000000 0.000000 1.000000
vn 0.000000 -1.000000 0.000000
vn 0.000000 -1.000000 0.000000
vn 0.000000 -1.000000 0.000000
vn 0.000000 -1.000000 0.000000
vn 0.000000 0.000000 -1.000000
vn 0.000000 0.000000 -1.000000
vn 0.438222 -0.898867 0.000000
vn 0.438222 -0.898867 0.000000
vn 0.438222 -0.898867 0.000000
vn 0.438222 -0.898867 0.000000
vn 0.000000 0.000000 -1.000000
vn 0.000000 0.000000 -1.000000
vn 0.000000 0.000000 -1.000000
vn 0.000000 0.000000 -1.000000
vn 0.000000 0.000000 1.000000
vn 0.000000 0.000000 1.000000
vn 0.000000 0.000000 1.000000
vn 0.000000 0.000000 1.000000
vn 0.825120 -0.564957 0.000000
vn 0.825120 -0.564957 0.000000
vn 0.825120 -0.564957 0.000000
vn 0.825120 -0.564957 0.000000
vn 1.000000 0.000000 0.000000
vn 1.000000 0.000000 0.000000
vn 1.000000 0.000000 0.000000
vn 1.000000 0.000000 0.000000
vn 0.000000 0.000000 1.000000
vn 0.000000 0.000000 1.000000
vn 0.000000 -1.000000 0.000000
vn 0.000000 -1.000000 0.000000
vn 0.000000 -1.000000 0.000000
vn 0.000000 -1.000000 0.000000
vn 0.000000 0.000000 -1.000000
vn 0.000000 0.000000 -1.000000
vn 0.000000 -0.898869 -0.438217
vn 0.000000 -0.898869 -0.438217
vn 0.000000 -0.898869 -0.438217
vn 0.000000 -0.898869 -0.438217
vn -1.000000 0.000000 0.000000
vn -1.000000 0.000033 0.000000
vn -1.000000 0.000033 0.000000
vn -1.000000 0.000000 0.000000
vn 1.000000 0.000065 0.000000
vn 1.000000 0.000000 0.000000
vn 1.000000 0.000000 0.000000
vn 1.000000 0.000065 0.000000
vn 0.000000 -0.564803 -0.825226
vn 0.000000 -0.564803 -0.825226
vn 0.000000 -0.564803 -0.825226
vn 0.000000 -0.564803 -0.825226
vn 0.000000 0.000000 -1.000000
vn 0.000000 0.000000 -1.000000
vn 0.000000 0.000000 -1.000000
vn 0.000000 0.000000 -1.000000
vn 1.000000 0.000130 0.000000
vn 1.000000 0.000130 0.000000
vn 0.000000 -1.000000 0.000000
vn 0.000000 -1.000000 0.000000
vn 0.000000 -1.000000 0.000000
vn 0.000000 -1.000000 0.000000
vn -1.000000 0.000065 0.000000
vn -1.000000 0.000065 0.000000
vn 0.000000 -0.898870 0.438215
vn 0.000000 -0.898870 0.438215
vn 0.000000 -0.898870 0.438215
vn 0.000000 -0.898870 0.438215
vn -1.000000 0.000000 0.000000
vn -1.000000 0.000000 0.000000
vn -1.000000 -0.000016 0.000000
vn -1.000000 -0.000016 0.000000
vn 1.000000 0.000016 0.000000
vn 1.000000 0.000016 0.000000
vn 1.000000 0.000000 0.000000
vn 1.000000 0.000000 0.000000
vn 0.000000 -0.564801 0.825227
vn 0.000000 -0.564801 0.825227
vn 0.000000 -0.564801 0.825227
vn 0.000000 -0.564801 0.825227
vn 0.000000 0.000000 1.000000
vn 0.000000 0.000000 1.000000
vn 0.000000 0.000000 1.000000
vn 0.000000 0.000000 1.000000
vn 1.000000 0.000033 0.000000
vn 1.000000 0.000033 0.000000
vn 0.000000 -1.000000 0.000000
vn 0.000000 -1.000000 0.000000
vn 0.000000 -1.000000 0.000000
vn 0.000000 -1.000000 0.000000
vn -1.000000 -0.000033 0.000000
vn -1.000000 -0.000033 0.000000
vn 0.000000 -0.898860 -0.438236
vn 0.000000 -0.898860 -0.438236
vn 0.000000 -0.898860 -0.438236
vn 0.000000 -0.898860 -0.438236
vn -1.000000 0.000000 0.000000
vn -1.000000 -0.000033 0.000000
vn -1.000000 -0.000033 0.000000
vn -1.000000 0.000000 0.000000
vn 1.000000 0.000000 0.000000
vn 1.000000 0.000000 0.000000
vn 1.000000 0.000000 0.000000
vn 1.000000 0.000000 0.000000
vn 0.000000 -0.564802 -0.825226
vn 0.000000 -0.564802 -0.825226
vn 0.000000 -0.564802 -0.825226
vn 0.000000 -0.564802 -0.825226
vn 0.000000 0.000000 -1.000000
vn 0.000000 0.000000 -1.000000
vn 0.000000 0.000000 -1.000000
vn 0.000000 0.000000 -1.000000
vn 1.000000 0.000000 0.000000
vn 1.000000 0.000000 0.000000
vn 0.000000 -1.000000 0.000000
vn 0.000000 -1.000000 0.000000
vn 0.000000 -1.000000 0.000000
vn 0.000000 -1.000000 0.000000
vn -1.000000 -0.000065 0.000000
vn -1.000000 -0.000065 0.000000
vn 0.000000 -0.898861 0.438234
vn 0.000000 -0.898861 0.438234
vn 0.000000 -0.898861 0.438234
vn 0.000000 -0.898861 0.438234
vn -1.000000 0.000000 0.000000
vn -1.000000 0.000000 0.000000
vn -1.000000 -0.000016 0.000000
vn -1.000000 -0.000016 0.000000
vn 1.000000 -0.000016 0.000000
vn 1.000000 -0.000016 0.000000
vn 1.000000 0.000000 0.000000
vn 1.000000 0.000000 0.000000
vn 0.000000 -0.564841 0.825200
vn 0.000000 -0.564841 0.825200
vn 0.000000 -0.564841 0.825200
vn 0.000000 -0.564841 0.825200
vn 0.000000 0.000000 1.000000
vn 0.000000 0.000000 1.000000
vn 0.000000 0.000000 1.000000
vn 0.000000 0.000000 1.000000
vn 1.000000 -0.000033 0.000000
vn 1.000000 -0.000033 0.000000
vn 0.000000 -1.000000 0.000000
vn 0.000000 -1.000000 0.000000
vn 0.000000 -1.000000 0.000000
vn 0.000000 -1.000000 0.000000
vn -1.000000 -0.000033 0.000000
vn -1.000000 -0.000033 0.000000
vn -0.035196 0.000000 0.999380
vn -0.035196 0.000000 0.999380
vn -0.035196 0.000000 0.999380
vn -0.035196 0.000000 0.999380
vn 0.000000 0.000000 -1.000000
vn 0.000000 0.000000 -1.000000
vn 0.000000 0.000000 -1.000000
vn 0.000000 0.000000 -1.000000
vn 0.000000 -1.000000 0.000000
vn 0.000000 -1.000000 0.000000
vn 0.000000 -1.000000 0.000000
vn 0.000000 -1.000000 0.000000
vn 0.999080 0.000000 -0.042884
vn 0.999080 0.000000 -0.042884
vn 0.999080 0.000000 -0.042884
vn 0.999080 0.000000 -0.042884
vn -1.000000 0.000000 0.000000
vn -1.000000 0.000000 0.000000
vn -1.000000 0.000000 0.000000
vn -1.000000 0.000000 0.000000
vn 0.035189 0.000000 0.999381
vn 0.035189 0.000000 0.999381
vn 0.035189 0.000000 0.999381
vn 0.035189 0.000000 0.999381
vn 0.000000 0.000000 -1.000000
vn 0.000000 0.000000 -1.000000
vn 0.000000 0.000000 -1.000000
vn 0.000000 0.000000 -1.000000
vn 0.000000 -1.000000 0.000000
vn 0.000000 -1.000000 0.000000
vn 0.000000 -1.000000 0.000000
vn 0.000000 -1.000000 0.000000
vn 1.000000 0.000000 0.000000
vn 1.000000 0.000000 0.000000
vn 1.000000 0.000000 0.000000
vn 1.000000 0.000000 0.000000
vn -0.999077 0.000000 -0.042949
vn -0.999077 0.000000 -0.042949
vn -0.999077 0.000000 -0.042949
vn -0.999077 0.000000 -0.042949
vn 0.000000 -1.000000 -0.000000
vn 0.000000 -1.000000 -0.000000
vn 0.000000 -1.000000 -0.000000
vn 0.000000 -1.000000 -0.000000
vn -0.999077 0.000000 0.042949
vn -0.999077 0.000000 0.042949
vn -0.999077 0.000000 0.042949
vn -0.999077 0.000000 0.042949
vn 0.000000 0.000000 1.000000
vn 0.000000 0.000000 1.000000
vn 0.000000 0.000000 1.000000
vn 0.000000 0.000000 1.000000
vn 1.000000 0.000000 0.000000
vn 1.000000 0.000000 0.000000
vn 1.000000 0.000000 0.000000
vn 1.000000 0.000000 0.000000
vn 0.035189 0.000000 -0.999381
vn 0.035189 0.000000 -0.999381
vn 0.035189 0.000000 -0.999381
vn 0.035189 0.000000 -0.999381
vn 0.000000 -1.000000 0.000000
vn 0.000000 -1.000000 0.000000
vn 0.000000 -1.000000 0.000000
vn 0.000000 -1.000000 0.000000
vn -0.035196 0.000000 -0.999380
vn -0.035196 0.000000 -0.999380
vn -0.035196 0.000000 -0.999380
vn -0.035196 0.000000 -0.999380
vn -1.000000 0.000000 0.000000
vn -1.000000 0.000000 0.000000
vn -1.000000 0.000000 0.000000
vn -1.000000 0.000000 0.000000
vn 0.000000 0.000000 1.000000
vn 0.000000 0.000000 1.000000
vn 0.000000 0.000000 1.000000
vn 0.000000 0.000000 1.000000
vn 0.999080 0.000000 0.042884
vn 0.999080 0.000000 0.042884
vn 0.999080 0.000000 0.042884
vn 0.999080 0.000000 0.042884
s off
g polySurface7609
f 3/13/1 1/1/2 2/2/3 4/14/4
f 25/3/5 26/4/6 27/5/7 28/6/8
f 8/7/9 7/8/10 5/16/11 6/15/12
f 7/9/13 8/10/14 2/11/15 1/12/16
f 2/2/17 8/7/18 6/15/19 4/14/20
f 7/8/21 1/1/22 3/13/23 5/16/24
f 9/17/25 3/13/26 4/14/27 10/18/28
f 4/14/29 6/15/30 11/21/31 10/18/32
f 6/15/33 5/16/34 12/23/35 11/21/36
f 5/16/37 3/13/38 9/17/39 12/23/40
f 9/17/41 10/18/42 14/19/43 13/20/44
f 10/18/45 11/21/46 15/22/47 14/19/48
f 11/21/49 12/23/50 16/24/51 15/22/52
f 12/23/53 9/17/54 13/20/55 16/24/56
s 15
f 13/25/57 14/26/58 18/27/59 17/28/60
f 14/26/58 15/29/61 19/30/62 18/27/59
f 15/29/61 16/31/63 20/32/64 19/30/62
f 16/31/63 13/25/57 17/28/60 20/32/64
s off
f 17/28/65 18/27/66 22/33/67 21/34/68
f 18/27/69 19/30/70 23/35/71 22/33/72
f 19/30/73 20/32/74 24/36/75 23/35/76
f 20/32/77 17/28/78 21/34/79 24/36/80
f 21/34/81 22/33/82 26/4/83 25/3/84
f 22/33/85 23/35/86 27/5/87 26/4/88
f 23/35/89 24/36/90 28/6/91 27/5/92
f 24/36/93 21/34/94 25/3/95 28/6/96
f 29/37/97 30/38/98 32/39/99 31/40/100
s 25
f 32/41/101 34/42/102 33/43/103 31/44/104
s 26
f 35/45/105 30/46/106 29/47/107 36/48/108
s off
f 37/49/109 38/50/110 39/51/111 40/52/112
f 36/53/113 29/37/114 31/40/115 33/54/116
s 26
f 35/45/105 36/48/108 38/55/117 37/56/118
s off
f 36/53/119 33/54/120 39/51/121 38/50/122
s 25
f 33/43/103 34/42/102 40/57/123 39/58/124
s off
f 41/59/125 43/60/126 44/61/127 42/62/128
s 31
f 44/63/129 43/64/130 45/65/131 46/66/132
s 32
f 47/67/133 48/68/134 41/69/135 42/70/136
s off
f 49/71/137 52/72/138 51/73/139 50/74/140
f 48/75/141 45/76/142 43/60/143 41/59/144
s 32
f 47/67/133 49/77/145 50/78/146 48/68/134
s off
f 48/75/147 50/74/148 51/73/149 45/76/150
s 31
f 45/65/131 51/79/151 52/80/152 46/66/132
s off
f 53/81/153 55/82/154 56/83/155 54/84/156
s 37
f 56/85/157 55/86/158 57/87/159 58/88/160
s 38
f 59/89/161 60/90/162 53/91/163 54/92/164
s off
f 61/93/165 64/94/166 63/95/167 62/96/168
f 60/97/169 57/98/170 55/82/171 53/81/172
s 38
f 59/89/161 61/99/173 62/100/174 60/90/162
s off
f 60/97/175 62/96/176 63/95/177 57/98/178
s 37
f 57/87/159 63/101/179 64/102/180 58/88/160
s off
f 65/103/181 66/104/182 68/105/183 67/106/184
s 43
f 68/107/185 70/108/186 69/109/187 67/110/188
s 44
f 71/111/189 66/112/190 65/113/191 72/114/192
s off
f 73/115/193 74/116/194 75/117/195 76/118/196
f 72/119/197 65/103/198 67/106/199 69/120/200
s 44
f 71/111/189 72/114/192 74/121/201 73/122/202
s off
f 72/119/203 69/120/204 75/117/205 74/116/206
s 43
f 69/109/187 70/108/186 76/123/207 75/124/208
s off
f 77/125/209 78/126/210 80/127/211 79/128/212
s 49
f 80/129/213 82/130/214 81/131/215 79/132/216
s 50
f 83/133/217 78/134/218 77/135/219 84/136/220
s off
f 85/137/221 86/138/222 87/139/223 88/140/224
f 84/141/225 77/125/226 79/128/227 81/142/228
s 50
f 83/133/217 84/136/220 86/143/229 85/144/230
s off
f 84/141/231 81/142/232 87/139/233 86/138/234
s 49
f 81/131/215 82/130/214 88/145/235 87/146/236
s off
f 89/147/237 91/148/238 92/149/239 90/150/240
s 55
f 92/151/241 91/152/242 93/153/243 94/154/244
s 56
f 95/155/245 96/156/246 89/157/247 90/158/248
s off
f 97/159/249 100/160/250 99/161/251 98/162/252
f 96/163/253 93/164/254 91/148/255 89/147/256
s 56
f 95/155/245 97/165/257 98/166/258 96/156/246
s off
f 96/163/259 98/162/260 99/161/261 93/164/262
s 55
f 93/153/243 99/167/263 100/168/264 94/154/244
s off
f 101/169/265 102/170/266 104/171/267 103/172/268
s 61
f 104/173/269 106/174/270 105/175/271 103/176/272
s 62
f 107/177/273 102/178/274 101/179/275 108/180/276
s off
f 109/181/277 110/182/278 111/183/279 112/184/280
f 108/185/281 101/169/282 103/172/283 105/186/284
s 62
f 107/177/273 108/180/276 110/187/285 109/188/286
s off
f 108/185/287 105/186/288 111/183/289 110/182/290
s 61
f 105/175/271 106/174/270 112/189/291 111/190/292
s off
f 113/191/293 115/192/294 116/193/295 114/194/296
s 67
f 116/195/297 115/196/298 117/197/299 118/198/300
s 68
f 119/199/301 120/200/302 113/201/303 114/202/304
s off
f 121/203/305 124/204/306 123/205/307 122/206/308
f 120/207/309 117/208/310 115/192/311 113/191/312
s 68
f 119/199/301 121/209/313 122/210/314 120/200/302
s off
f 120/207/315 122/206/316 123/205/317 117/208/318
s 67
f 117/197/299 123/211/319 124/212/320 118/198/300
s off
f 125/213/321 126/214/322 129/215/323 130/216/324
f 131/217/325 132/218/326 128/219/327 127/220/328
f 127/221/329 128/222/330 126/223/331 125/224/332
f 126/225/333 128/226/334 132/227/335 129/228/336
f 127/229/337 125/230/338 130/231/339 131/232/340
f 133/233/341 134/234/342 140/235/343 137/236/344
f 138/237/345 139/238/346 136/239/347 135/240/348
f 135/241/349 136/242/350 134/243/351 133/244/352
f 134/245/353 136/246/354 139/247/355 140/248/356
f 135/249/357 133/250/358 137/251/359 138/252/360
f 143/253/361 144/254/362 142/255/363 141/256/364
f 143/257/365 141/258/366 146/259/367 145/260/368
f 141/261/369 142/262/370 147/263/371 146/264/372
f 142/265/373 144/266/374 148/267/375 147/268/376
f 145/269/377 148/270/378 144/271/379 143/272/380
f 151/273/381 152/274/382 150/275/383 149/276/384
f 154/277/385 153/278/386 152/279/387 151/280/388
f 151/281/389 149/282/390 155/283/391 154/284/392
f 149/285/393 150/286/394 156/287/395 155/288/396
f 150/289/397 152/290/398 153/291/399 156/292/400
