# This file uses centimeters as units for non-parametric coordinates.

g default
v -27.202837 0.552351 -0.271738
v -27.171087 0.536871 -0.271738
v -27.202837 0.552351 -0.292501
v -27.171087 0.536871 -0.292501
v -27.202837 0.613050 -0.292501
v -27.171087 0.641813 -0.292501
v -27.171087 0.641813 -0.271738
v -27.202837 0.613050 -0.271738
v -27.330139 0.641813 -0.271738
v -27.310455 0.613050 -0.271738
v -27.310455 0.613050 -0.292501
v -27.330139 0.641813 -0.292501
v -27.140631 0.552351 -0.232006
v -27.140631 0.536871 -0.263759
v -27.161388 0.552351 -0.232006
v -27.161388 0.536871 -0.263759
v -27.161388 0.613050 -0.232006
v -27.161388 0.641813 -0.263759
v -27.140631 0.641813 -0.263759
v -27.140631 0.613050 -0.232006
v -27.140631 0.641813 -0.148404
v -27.140631 0.613050 -0.168091
v -27.161388 0.613050 -0.168091
v -27.161388 0.641813 -0.148404
v -27.934088 0.640643 0.315357
v -27.121046 0.640643 0.315357
v -27.931835 0.659164 0.312922
v -27.123295 0.659164 0.312922
v -27.931835 0.659164 -0.312922
v -27.123295 0.659164 -0.312922
v -27.934088 0.640643 -0.315357
v -27.121046 0.640643 -0.315357
v -27.943832 0.671365 0.322662
v -27.111301 0.671365 0.322662
v -27.111301 0.671365 -0.322662
v -27.943832 0.671365 -0.322662
v -27.943832 0.701076 0.322662
v -27.111301 0.701076 0.322662
v -27.111301 0.701076 -0.322662
v -27.943832 0.701076 -0.322662
v -27.851583 0.552351 0.295454
v -27.883337 0.536871 0.295454
v -27.851583 0.552351 0.274690
v -27.883337 0.536871 0.274690
v -27.851583 0.613050 0.274690
v -27.883337 0.641813 0.274690
v -27.883337 0.641813 0.295454
v -27.851583 0.613050 0.295454
v -27.724285 0.641813 0.295454
v -27.743979 0.613050 0.295454
v -27.743979 0.613050 0.274690
v -27.724285 0.641813 0.274690
v -27.202837 0.552351 0.295454
v -27.171087 0.536871 0.295454
v -27.202837 0.552351 0.274690
v -27.171087 0.536871 0.274690
v -27.202837 0.613050 0.274690
v -27.171087 0.641813 0.274690
v -27.171087 0.641813 0.295454
v -27.202837 0.613050 0.295454
v -27.330139 0.641813 0.295454
v -27.310455 0.613050 0.295454
v -27.310455 0.613050 0.274690
v -27.330139 0.641813 0.274690
v -27.851583 0.552351 -0.271738
v -27.883337 0.536871 -0.271738
v -27.851583 0.552351 -0.292501
v -27.883337 0.536871 -0.292501
v -27.851583 0.613050 -0.292501
v -27.883337 0.641813 -0.292501
v -27.883337 0.641813 -0.271738
v -27.851583 0.613050 -0.271738
v -27.724285 0.641813 -0.271738
v -27.743979 0.613050 -0.271738
v -27.743979 0.613050 -0.292501
v -27.724285 0.641813 -0.292501
v -27.891876 0.552351 0.231037
v -27.891876 0.536871 0.262789
v -27.912643 0.552351 0.231037
v -27.912643 0.536871 0.262789
v -27.912643 0.613050 0.231037
v -27.912643 0.641813 0.262789
v -27.891876 0.641813 0.262789
v -27.891876 0.613050 0.231037
v -27.891876 0.641813 0.147434
v -27.891876 0.613050 0.167121
v -27.912643 0.613050 0.167121
v -27.912643 0.641813 0.147434
v -27.891876 0.552351 -0.232006
v -27.891876 0.536871 -0.263759
v -27.912643 0.552351 -0.232006
v -27.912643 0.536871 -0.263759
v -27.912643 0.613050 -0.232006
v -27.912643 0.641813 -0.263759
v -27.891876 0.641813 -0.263759
v -27.891876 0.613050 -0.232006
v -27.891876 0.641813 -0.148404
v -27.891876 0.613050 -0.168091
v -27.912643 0.613050 -0.168091
v -27.912643 0.641813 -0.148404
v -27.140631 0.552351 0.231037
v -27.140631 0.536871 0.262789
v -27.161388 0.552351 0.231037
v -27.161388 0.536871 0.262789
v -27.161388 0.613050 0.231037
v -27.161388 0.641813 0.262789
v -27.140631 0.641813 0.262789
v -27.140631 0.613050 0.231037
v -27.140631 0.641813 0.147434
v -27.140631 0.613050 0.167121
v -27.161388 0.613050 0.167121
v -27.161388 0.641813 0.147434
v -27.926830 0.006296 -0.259631
v -27.879757 0.006296 -0.259631
v -27.926830 0.670341 -0.259631
v -27.879757 0.670341 -0.259631
v -27.928947 0.670341 -0.308818
v -27.879757 0.670341 -0.307085
v -27.928947 0.006296 -0.308818
v -27.879757 0.006296 -0.307085
v -27.928947 0.006296 0.309113
v -27.879757 0.006296 0.307381
v -27.928947 0.670341 0.309113
v -27.879757 0.670341 0.307381
v -27.926830 0.670341 0.259926
v -27.879757 0.670341 0.259926
v -27.926830 0.006296 0.259926
v -27.879757 0.006296 0.259926
v -27.175377 0.006296 0.307381
v -27.126190 0.006296 0.309113
v -27.175377 0.670341 0.307381
v -27.126190 0.670341 0.309113
v -27.175377 0.670341 0.259926
v -27.128304 0.670341 0.259926
v -27.175377 0.006296 0.259926
v -27.128304 0.006296 0.259926
v -27.175377 0.006296 -0.259631
v -27.128304 0.006296 -0.259631
v -27.175377 0.670341 -0.259631
v -27.128304 0.670341 -0.259631
v -27.175377 0.670341 -0.307085
v -27.126190 0.670341 -0.308818
v -27.175377 0.006296 -0.307085
v -27.126190 0.006296 -0.308818
v -27.922676 0.224930 0.281504
v -27.886030 0.223639 0.281504
v -27.922676 0.224930 -0.270187
v -27.886030 0.223639 -0.270187
v -27.921101 0.188277 -0.270187
v -27.886030 0.188277 -0.270187
v -27.921101 0.188277 0.281504
v -27.886030 0.188277 0.281504
v -27.170446 0.224930 0.281504
v -27.133793 0.223639 0.281504
v -27.170446 0.224930 -0.270187
v -27.133793 0.223639 -0.270187
v -27.168871 0.188277 -0.270187
v -27.133793 0.188277 -0.270187
v -27.168871 0.188277 0.281504
v -27.133793 0.188277 0.281504
v -27.154028 0.220713 0.019767
v -27.154028 0.219719 -0.008451
v -27.903496 0.220713 0.019767
v -27.903496 0.219719 -0.008451
v -27.903496 0.192495 0.018554
v -27.903496 0.192495 -0.008451
v -27.154028 0.192495 0.018554
v -27.154028 0.192495 -0.008451
vt -0.005952 0.358312
vt -0.005952 0.340568
vt -0.061185 0.340568
vt -0.061185 0.358312
vt 0.031531 0.244391
vt 0.058079 0.257063
vt 0.058079 0.306751
vt 0.031531 0.330296
vt 0.031531 0.330296
vt 0.058079 0.306751
vt 0.058079 0.257063
vt 0.031531 0.244391
vt 0.240623 0.358312
vt 0.240623 0.340568
vt 0.188794 0.340568
vt 0.188794 0.358312
vt 0.049739 0.358312
vt 0.049739 0.340568
vt 0.164517 0.330296
vt 0.148057 0.306751
vt 0.148057 0.306751
vt 0.164517 0.330296
vt -0.005952 0.358312
vt -0.005952 0.340568
vt -0.061185 0.340568
vt -0.061185 0.358312
vt 0.031531 0.244391
vt 0.058079 0.257063
vt 0.058079 0.306751
vt 0.031531 0.330296
vt 0.031531 0.330296
vt 0.058079 0.306751
vt 0.058079 0.257063
vt 0.031531 0.244391
vt 0.240623 0.358312
vt 0.240623 0.340568
vt 0.188794 0.340568
vt 0.188794 0.358312
vt 0.049739 0.358312
vt 0.049739 0.340568
vt 0.164517 0.330296
vt 0.148057 0.306751
vt 0.148057 0.306751
vt 0.164517 0.330296
vt -0.233746 0.468638
vt 0.526096 0.468638
vt 0.526269 0.494647
vt -0.229368 0.494647
vt 0.692649 0.176878
vt 1.048293 0.176878
vt 1.048294 0.403691
vt 0.692648 0.403691
vt 0.256194 0.494623
vt 1.011833 0.494623
vt 1.016208 0.468547
vt 0.256363 0.468547
vt 0.696809 0.395817
vt 1.044133 0.395817
vt 1.044132 0.175151
vt 0.696811 0.175151
vt 0.528375 0.512093
vt -0.249679 0.512093
vt 1.032146 0.511895
vt 0.254089 0.511895
vt 0.528376 0.555338
vt -0.249675 0.555338
vt 1.032141 0.555397
vt 0.254088 0.555397
vt -0.005952 0.358312
vt -0.061185 0.358312
vt -0.061185 0.340568
vt -0.005952 0.340568
vt 0.031531 0.244391
vt 0.031531 0.330296
vt 0.058079 0.306751
vt 0.058079 0.257063
vt 0.031531 0.330296
vt 0.031531 0.244391
vt 0.058079 0.257063
vt 0.058079 0.306751
vt 0.240623 0.358312
vt 0.188794 0.358312
vt 0.188794 0.340568
vt 0.240623 0.340568
vt 0.049739 0.358312
vt 0.049739 0.340568
vt 0.148057 0.306751
vt 0.164517 0.330296
vt 0.164517 0.330296
vt 0.148057 0.306751
vt -0.005952 0.358312
vt -0.005952 0.340568
vt -0.061185 0.340568
vt -0.061185 0.358312
vt 0.031531 0.244391
vt 0.058079 0.257063
vt 0.058079 0.306751
vt 0.031531 0.330296
vt 0.031531 0.330296
vt 0.058079 0.306751
vt 0.058079 0.257063
vt 0.031531 0.244391
vt 0.240623 0.358312
vt 0.240623 0.340568
vt 0.188794 0.340568
vt 0.188794 0.358312
vt 0.049739 0.358312
vt 0.049739 0.340568
vt 0.164517 0.330296
vt 0.148057 0.306751
vt 0.148057 0.306751
vt 0.164517 0.330296
vt -0.005952 0.358312
vt -0.061185 0.358312
vt -0.061185 0.340568
vt -0.005952 0.340568
vt 0.031531 0.244391
vt 0.031531 0.330296
vt 0.058079 0.306751
vt 0.058079 0.257063
vt 0.031531 0.330296
vt 0.031531 0.244391
vt 0.058079 0.257063
vt 0.058079 0.306751
vt 0.240623 0.358312
vt 0.188794 0.358312
vt 0.188794 0.340568
vt 0.240623 0.340568
vt 0.049739 0.358312
vt 0.049739 0.340568
vt 0.148057 0.306751
vt 0.164517 0.330296
vt 0.164517 0.330296
vt 0.148057 0.306751
vt -0.005952 0.358312
vt -0.061185 0.358312
vt -0.061185 0.340568
vt -0.005952 0.340568
vt 0.031531 0.244391
vt 0.031531 0.330296
vt 0.058079 0.306751
vt 0.058079 0.257063
vt 0.031531 0.330296
vt 0.031531 0.244391
vt 0.058079 0.257063
vt 0.058079 0.306751
vt 0.240623 0.358312
vt 0.188794 0.358312
vt 0.188794 0.340568
vt 0.240623 0.340568
vt 0.049739 0.358312
vt 0.049739 0.340568
vt 0.148057 0.306751
vt 0.164517 0.330296
vt 0.164517 0.330296
vt 0.148057 0.306751
vt -0.005952 0.358312
vt -0.005952 0.340568
vt -0.061185 0.340568
vt -0.061185 0.358312
vt 0.031531 0.244391
vt 0.058079 0.257063
vt 0.058079 0.306751
vt 0.031531 0.330296
vt 0.031531 0.330296
vt 0.058079 0.306751
vt 0.058079 0.257063
vt 0.031531 0.244391
vt 0.240623 0.358312
vt 0.240623 0.340568
vt 0.188794 0.340568
vt 0.188794 0.358312
vt 0.049739 0.358312
vt 0.049739 0.340568
vt 0.164517 0.330296
vt 0.148057 0.306751
vt 0.148057 0.306751
vt 0.164517 0.330296
vt -0.005952 0.358312
vt -0.061185 0.358312
vt -0.061185 0.340568
vt -0.005952 0.340568
vt 0.031531 0.244391
vt 0.031531 0.330296
vt 0.058079 0.306751
vt 0.058079 0.257063
vt 0.031531 0.330296
vt 0.031531 0.244391
vt 0.058079 0.257063
vt 0.058079 0.306751
vt 0.240623 0.358312
vt 0.188794 0.358312
vt 0.188794 0.340568
vt 0.240623 0.340568
vt 0.049739 0.358312
vt 0.049739 0.340568
vt 0.148057 0.306751
vt 0.164517 0.330296
vt 0.164517 0.330296
vt 0.148057 0.306751
vt 1.547970 0.063951
vt 1.547970 0.006710
vt 0.755663 0.006819
vt 0.755663 0.063843
vt 0.237236 0.281511
vt 0.286381 0.283268
vt 0.288575 0.332861
vt 0.237302 0.332836
vt 0.755663 0.126199
vt 0.755663 0.066774
vt 1.547970 0.066671
vt 1.547970 0.126302
vt 0.238200 0.333005
vt 0.287659 0.333005
vt 0.287659 0.283143
vt 0.235977 0.281323
vt 1.547970 0.006710
vt 1.547970 0.066671
vt 0.755663 0.066559
vt 0.755663 0.006822
vt 1.547970 0.127093
vt 1.547970 0.063951
vt 0.755663 0.064061
vt 0.755663 0.126984
vt 1.547970 0.063951
vt 1.547970 0.006710
vt 0.755663 0.006809
vt 0.755663 0.063852
vt 0.236134 0.281479
vt 0.287495 0.283300
vt 0.287508 0.332854
vt 0.238356 0.332842
vt 0.755663 0.126189
vt 0.755663 0.066784
vt 1.547970 0.066671
vt 1.547970 0.126302
vt 0.238200 0.333005
vt 0.287659 0.333005
vt 0.287659 0.283143
vt 0.235977 0.281323
vt 1.547970 0.006710
vt 1.547970 0.066671
vt 0.755663 0.066559
vt 0.755663 0.006822
vt 1.547970 0.127093
vt 1.547970 0.063951
vt 0.755663 0.064061
vt 0.755663 0.126984
vt 1.547970 0.063951
vt 1.547970 0.006710
vt 0.755663 0.006809
vt 0.755663 0.063852
vt 0.236167 0.282372
vt 0.287489 0.282438
vt 0.287514 0.333730
vt 0.238324 0.331935
vt 0.755663 0.126189
vt 0.755663 0.066784
vt 1.547970 0.066671
vt 1.547970 0.126302
vt 0.238200 0.333005
vt 0.287659 0.333005
vt 0.287659 0.283143
vt 0.235977 0.281323
vt 1.547970 0.006710
vt 1.547970 0.066671
vt 0.755663 0.066567
vt 0.755663 0.006814
vt 1.547970 0.127093
vt 1.547970 0.063951
vt 0.755663 0.064069
vt 0.755663 0.126976
vt 1.547970 0.063951
vt 1.547970 0.006710
vt 0.755663 0.006819
vt 0.755663 0.063843
vt 0.237281 0.282418
vt 0.286387 0.282393
vt 0.288568 0.333723
vt 0.237257 0.331942
vt 0.755663 0.126199
vt 0.755663 0.066774
vt 1.547970 0.066671
vt 1.547970 0.126302
vt 0.238200 0.333005
vt 0.287659 0.333005
vt 0.287659 0.283143
vt 0.235977 0.281323
vt 1.547970 0.006710
vt 1.547970 0.066671
vt 0.755663 0.066567
vt 0.755663 0.006814
vt 1.547970 0.127093
vt 1.547970 0.063951
vt 0.755663 0.064069
vt 0.755663 0.126976
vt 1.547970 0.064491
vt 1.547970 0.017709
vt 0.755663 0.017790
vt 0.755663 0.064409
vt 0.236134 0.281479
vt 0.287495 0.283300
vt 0.287508 0.332854
vt 0.238356 0.332842
vt 0.755663 0.115356
vt 0.755663 0.066806
vt 1.547970 0.066713
vt 1.547970 0.115448
vt 0.238200 0.333005
vt 0.287659 0.333005
vt 0.287659 0.283143
vt 0.235977 0.281323
vt 1.547970 0.017709
vt 1.547970 0.066713
vt 0.755663 0.066622
vt 0.755663 0.017800
vt 1.547970 0.116095
vt 1.547970 0.064491
vt 0.755663 0.064580
vt 0.755663 0.116005
vt 1.547970 0.064491
vt 1.547970 0.017709
vt 0.755663 0.017790
vt 0.755663 0.064409
vt 0.236134 0.281479
vt 0.287495 0.283300
vt 0.287508 0.332854
vt 0.238356 0.332842
vt 0.755663 0.115356
vt 0.755663 0.066806
vt 1.547970 0.066713
vt 1.547970 0.115448
vt 0.238200 0.333005
vt 0.287659 0.333005
vt 0.287659 0.283143
vt 0.235977 0.281323
vt 1.547970 0.017709
vt 1.547970 0.066713
vt 0.755663 0.066622
vt 0.755663 0.017800
vt 1.547970 0.116095
vt 1.547970 0.064491
vt 0.755663 0.064580
vt 0.755663 0.116005
vt 1.547970 0.065232
vt 1.547970 0.032832
vt 0.471635 0.032892
vt 0.471635 0.065172
vt 0.236187 0.281530
vt 0.287441 0.283353
vt 0.287458 0.332805
vt 0.238408 0.332788
vt 0.471635 0.100455
vt 0.471635 0.066840
vt 1.547970 0.066771
vt 1.547970 0.100524
vt 0.238200 0.333005
vt 0.287659 0.333005
vt 0.287659 0.283143
vt 0.235977 0.281323
vt 1.547970 0.032832
vt 1.547970 0.066771
vt 0.471635 0.066703
vt 0.471635 0.032900
vt 1.547970 0.100972
vt 1.547970 0.065232
vt 0.471635 0.065298
vt 0.471635 0.100905
vn -0.438265 -0.898846 0.000000
vn -0.438265 -0.898846 0.000000
vn -0.438265 -0.898846 0.000000
vn -0.438265 -0.898846 0.000000
vn 0.000000 0.000000 -1.000000
vn 0.000000 0.000000 -1.000000
vn 0.000000 0.000000 -1.000000
vn 0.000000 0.000000 -1.000000
vn 0.000000 0.000000 1.000000
vn 0.000000 0.000000 1.000000
vn 0.000000 0.000000 1.000000
vn 0.000000 0.000000 1.000000
vn -0.825260 -0.564752 0.000000
vn -0.825260 -0.564752 0.000000
vn -0.825260 -0.564752 0.000000
vn -0.825260 -0.564752 0.000000
vn -1.000000 0.000000 0.000000
vn -1.000000 0.000000 0.000000
vn -1.000000 0.000000 0.000000
vn -1.000000 0.000000 0.000000
vn 0.000000 0.000000 1.000000
vn 0.000000 0.000000 1.000000
vn 0.000000 -1.000000 0.000000
vn 0.000000 -1.000000 0.000000
vn 0.000000 -1.000000 0.000000
vn 0.000000 -1.000000 0.000000
vn 0.000000 0.000000 -1.000000
vn 0.000000 0.000000 -1.000000
vn 0.000000 -0.898866 0.438224
vn 0.000000 -0.898866 0.438224
vn 0.000000 -0.898866 0.438224
vn 0.000000 -0.898866 0.438224
vn -1.000000 0.000000 0.000000
vn -1.000000 0.000000 0.000000
vn -1.000000 -0.000012 0.000000
vn -1.000000 -0.000012 0.000000
vn 1.000000 0.000012 0.000000
vn 1.000000 0.000012 0.000000
vn 1.000000 0.000000 0.000000
vn 1.000000 0.000000 0.000000
vn 0.000000 -0.564811 0.825220
vn 0.000000 -0.564811 0.825220
vn 0.000000 -0.564811 0.825220
vn 0.000000 -0.564811 0.825220
vn 0.000000 0.000000 1.000000
vn 0.000000 0.000000 1.000000
vn 0.000000 0.000000 1.000000
vn 0.000000 0.000000 1.000000
vn 1.000000 0.000023 0.000000
vn 1.000000 0.000023 0.000000
vn 0.000000 -1.000000 0.000000
vn 0.000000 -1.000000 0.000000
vn 0.000000 -1.000000 0.000000
vn 0.000000 -1.000000 0.000000
vn -1.000000 -0.000023 0.000000
vn -1.000000 -0.000023 0.000000
vn 0.000000 0.130386 0.991463
vn 0.000000 0.130386 0.991463
vn 0.000000 0.130386 0.991463
vn 0.000000 0.130386 0.991463
vn 0.000000 1.000000 0.000000
vn 0.000000 1.000000 0.000000
vn 0.000000 1.000000 0.000000
vn 0.000000 1.000000 0.000000
vn 0.000000 0.130361 -0.991467
vn 0.000000 0.130361 -0.991467
vn 0.000000 0.130361 -0.991467
vn 0.000000 0.130361 -0.991467
vn 0.000000 -1.000000 0.000000
vn 0.000000 -1.000000 0.000000
vn 0.000000 -1.000000 0.000000
vn 0.000000 -1.000000 0.000000
vn 0.992704 0.120575 0.000000
vn 0.992704 0.120575 0.000000
vn 0.992704 0.120575 0.000000
vn 0.992704 0.120575 0.000000
vn -0.992693 0.120668 0.000000
vn -0.992693 0.120668 0.000000
vn -0.992693 0.120668 0.000000
vn -0.992693 0.120668 0.000000
vn 0.000000 -0.623919 0.781489
vn 0.000000 -0.623919 0.781489
vn 0.000000 -0.623919 0.781489
vn 0.000000 -0.623919 0.781489
vn 0.713100 -0.701063 0.000000
vn 0.713100 -0.701063 0.000000
vn 0.713100 -0.701063 0.000000
vn 0.713100 -0.701063 0.000000
vn 0.000000 -0.623902 -0.781503
vn 0.000000 -0.623902 -0.781503
vn 0.000000 -0.623902 -0.781503
vn 0.000000 -0.623902 -0.781503
vn -0.713150 -0.701011 0.000000
vn -0.713150 -0.701011 0.000000
vn -0.713150 -0.701011 0.000000
vn -0.713150 -0.701011 0.000000
vn 0.000000 0.000000 1.000000
vn 0.000000 0.000000 1.000000
vn 0.000000 0.000000 1.000000
vn 0.000000 0.000000 1.000000
vn 1.000000 0.000000 0.000000
vn 1.000000 0.000000 0.000000
vn 1.000000 0.000000 0.000000
vn 1.000000 0.000000 0.000000
vn 0.000000 0.000000 -1.000000
vn 0.000000 0.000000 -1.000000
vn 0.000000 0.000000 -1.000000
vn 0.000000 0.000000 -1.000000
vn -1.000000 0.000000 0.000000
vn -1.000000 0.000000 0.000000
vn -1.000000 0.000000 0.000000
vn -1.000000 0.000000 0.000000
vn 0.438210 -0.898873 0.000000
vn 0.438210 -0.898873 0.000000
vn 0.438210 -0.898873 0.000000
vn 0.438210 -0.898873 0.000000
vn 0.000001 0.000000 -1.000000
vn 0.000000 0.000000 -1.000000
vn 0.000000 0.000000 -1.000000
vn 0.000001 0.000000 -1.000000
vn 0.000000 0.000000 1.000000
vn 0.000001 0.000000 1.000000
vn 0.000001 0.000000 1.000000
vn 0.000000 0.000000 1.000000
vn 0.825151 -0.564912 0.000000
vn 0.825151 -0.564912 0.000000
vn 0.825151 -0.564912 0.000000
vn 0.825151 -0.564912 0.000000
vn 1.000000 0.000000 0.000000
vn 1.000000 0.000000 0.000000
vn 1.000000 0.000000 0.000000
vn 1.000000 0.000000 0.000000
vn 0.000000 0.000000 1.000000
vn 0.000000 0.000000 1.000000
vn 0.000000 -1.000000 0.000000
vn 0.000000 -1.000000 0.000000
vn 0.000000 -1.000000 0.000000
vn 0.000000 -1.000000 0.000000
vn 0.000000 0.000000 -1.000000
vn 0.000000 0.000000 -1.000000
vn -0.438242 -0.898857 0.000000
vn -0.438242 -0.898857 0.000000
vn -0.438242 -0.898857 0.000000
vn -0.438242 -0.898857 0.000000
vn -0.000001 0.000000 -1.000000
vn -0.000001 0.000000 -1.000000
vn -0.000000 0.000000 -1.000000
vn -0.000000 0.000000 -1.000000
vn 0.000000 0.000000 1.000000
vn 0.000000 0.000000 1.000000
vn 0.000000 0.000000 1.000000
vn 0.000000 0.000000 1.000000
vn -0.825266 -0.564744 0.000000
vn -0.825266 -0.564744 0.000000
vn -0.825266 -0.564744 0.000000
vn -0.825266 -0.564744 0.000000
vn -1.000000 0.000000 0.000000
vn -1.000000 0.000000 0.000000
vn -1.000000 0.000000 0.000000
vn -1.000000 0.000000 0.000000
vn 0.000000 0.000000 1.000000
vn 0.000000 0.000000 1.000000
vn 0.000000 -1.000000 0.000000
vn 0.000000 -1.000000 0.000000
vn 0.000000 -1.000000 0.000000
vn 0.000000 -1.000000 0.000000
vn 0.000000 0.000000 -1.000000
vn 0.000000 0.000000 -1.000000
vn 0.438233 -0.898861 0.000000
vn 0.438233 -0.898861 0.000000
vn 0.438233 -0.898861 0.000000
vn 0.438233 -0.898861 0.000000
vn 0.000000 0.000000 -1.000000
vn 0.000000 0.000000 -1.000000
vn 0.000000 0.000000 -1.000000
vn 0.000000 0.000000 -1.000000
vn -0.000000 0.000000 1.000000
vn -0.000000 0.000000 1.000000
vn -0.000000 0.000000 1.000000
vn -0.000000 0.000000 1.000000
vn 0.825145 -0.564921 0.000000
vn 0.825145 -0.564921 0.000000
vn 0.825145 -0.564921 0.000000
vn 0.825145 -0.564921 0.000000
vn 1.000000 0.000000 0.000000
vn 1.000000 0.000000 0.000000
vn 1.000000 0.000000 0.000000
vn 1.000000 0.000000 0.000000
vn 0.000000 0.000000 1.000000
vn 0.000000 0.000000 1.000000
vn 0.000000 -1.000000 0.000000
vn 0.000000 -1.000000 0.000000
vn 0.000000 -1.000000 0.000000
vn 0.000000 -1.000000 0.000000
vn 0.000000 0.000000 -1.000000
vn 0.000000 0.000000 -1.000000
vn 0.000000 -0.898865 -0.438226
vn 0.000000 -0.898865 -0.438226
vn 0.000000 -0.898865 -0.438226
vn 0.000000 -0.898865 -0.438226
vn -1.000000 0.000000 0.000000
vn -1.000000 0.000000 0.000000
vn -1.000000 0.000000 0.000000
vn -1.000000 0.000000 0.000000
vn 1.000000 0.000000 0.000000
vn 1.000000 0.000000 0.000000
vn 1.000000 0.000000 0.000000
vn 1.000000 0.000000 0.000000
vn 0.000000 -0.564803 -0.825226
vn 0.000000 -0.564803 -0.825226
vn 0.000000 -0.564803 -0.825226
vn 0.000000 -0.564803 -0.825226
vn 0.000000 0.000000 -1.000000
vn 0.000000 0.000000 -1.000000
vn 0.000000 0.000000 -1.000000
vn 0.000000 0.000000 -1.000000
vn 1.000000 0.000000 0.000000
vn 1.000000 0.000000 0.000000
vn 0.000000 -1.000000 0.000000
vn 0.000000 -1.000000 0.000000
vn 0.000000 -1.000000 0.000000
vn 0.000000 -1.000000 0.000000
vn -1.000000 0.000000 0.000000
vn -1.000000 0.000000 0.000000
vn 0.000000 -0.898865 0.438226
vn 0.000000 -0.898865 0.438226
vn 0.000000 -0.898865 0.438226
vn 0.000000 -0.898865 0.438226
vn -1.000000 0.000000 0.000000
vn -1.000000 0.000000 0.000000
vn -1.000000 -0.000012 0.000000
vn -1.000000 -0.000012 0.000000
vn 1.000000 0.000000 0.000000
vn 1.000000 0.000000 0.000000
vn 1.000000 0.000000 0.000000
vn 1.000000 0.000000 0.000000
vn 0.000000 -0.564803 0.825226
vn 0.000000 -0.564803 0.825226
vn 0.000000 -0.564803 0.825226
vn 0.000000 -0.564803 0.825226
vn 0.000000 0.000000 1.000000
vn 0.000000 0.000000 1.000000
vn 0.000000 0.000000 1.000000
vn 0.000000 0.000000 1.000000
vn 1.000000 0.000000 0.000000
vn 1.000000 0.000000 0.000000
vn 0.000000 -1.000000 0.000000
vn 0.000000 -1.000000 0.000000
vn 0.000000 -1.000000 0.000000
vn 0.000000 -1.000000 0.000000
vn -1.000000 -0.000023 0.000000
vn -1.000000 -0.000023 0.000000
vn 0.000000 -0.898850 -0.438256
vn 0.000000 -0.898850 -0.438256
vn 0.000000 -0.898850 -0.438256
vn 0.000000 -0.898850 -0.438256
vn -1.000000 0.000000 0.000000
vn -1.000000 -0.000023 0.000000
vn -1.000000 -0.000023 0.000000
vn -1.000000 0.000000 0.000000
vn 1.000000 0.000000 0.000000
vn 1.000000 0.000000 0.000000
vn 1.000000 0.000000 0.000000
vn 1.000000 0.000000 0.000000
vn 0.000000 -0.564811 -0.825220
vn 0.000000 -0.564811 -0.825220
vn 0.000000 -0.564811 -0.825220
vn 0.000000 -0.564811 -0.825220
vn 0.000000 0.000000 -1.000000
vn 0.000000 0.000000 -1.000000
vn 0.000000 0.000000 -1.000000
vn 0.000000 0.000000 -1.000000
vn 1.000000 0.000000 0.000000
vn 1.000000 0.000000 0.000000
vn 0.000000 -1.000000 0.000000
vn 0.000000 -1.000000 0.000000
vn 0.000000 -1.000000 0.000000
vn 0.000000 -1.000000 0.000000
vn -1.000000 -0.000046 0.000000
vn -1.000000 -0.000046 0.000000
vn 0.000000 0.000000 1.000000
vn 0.000000 0.000000 1.000000
vn 0.000000 0.000000 1.000000
vn 0.000000 0.000000 1.000000
vn 0.000000 1.000000 0.000000
vn 0.000000 1.000000 0.000000
vn 0.000000 1.000000 0.000000
vn 0.000000 1.000000 0.000000
vn 0.035205 0.000000 -0.999380
vn 0.035205 0.000000 -0.999380
vn 0.035205 0.000000 -0.999380
vn 0.035205 0.000000 -0.999380
vn 0.000000 -1.000000 -0.000000
vn 0.000000 -1.000000 -0.000000
vn 0.000000 -1.000000 -0.000000
vn 0.000000 -1.000000 -0.000000
vn 1.000000 0.000000 0.000000
vn 1.000000 0.000000 0.000000
vn 1.000000 0.000000 0.000000
vn 1.000000 0.000000 0.000000
vn -0.999075 0.000000 0.043003
vn -0.999075 0.000000 0.043003
vn -0.999075 0.000000 0.043003
vn -0.999075 0.000000 0.043003
vn 0.035186 0.000000 0.999381
vn 0.035186 0.000000 0.999381
vn 0.035186 0.000000 0.999381
vn 0.035186 0.000000 0.999381
vn 0.000000 1.000000 -0.000000
vn 0.000000 1.000000 -0.000000
vn 0.000000 1.000000 -0.000000
vn 0.000000 1.000000 -0.000000
vn 0.000000 0.000000 -1.000000
vn 0.000000 0.000000 -1.000000
vn 0.000000 0.000000 -1.000000
vn 0.000000 0.000000 -1.000000
vn 0.000000 -1.000000 0.000000
vn 0.000000 -1.000000 0.000000
vn 0.000000 -1.000000 0.000000
vn 0.000000 -1.000000 0.000000
vn 1.000000 0.000000 0.000000
vn 1.000000 0.000000 0.000000
vn 1.000000 0.000000 0.000000
vn 1.000000 0.000000 0.000000
vn -0.999075 0.000000 -0.043003
vn -0.999075 0.000000 -0.043003
vn -0.999075 0.000000 -0.043003
vn -0.999075 0.000000 -0.043003
vn -0.035188 0.000000 0.999381
vn -0.035188 0.000000 0.999381
vn -0.035188 0.000000 0.999381
vn -0.035188 0.000000 0.999381
vn 0.000000 1.000000 0.000000
vn 0.000000 1.000000 0.000000
vn 0.000000 1.000000 0.000000
vn 0.000000 1.000000 0.000000
vn 0.000000 0.000000 -1.000000
vn 0.000000 0.000000 -1.000000
vn 0.000000 0.000000 -1.000000
vn 0.000000 0.000000 -1.000000
vn 0.000000 -1.000000 0.000000
vn 0.000000 -1.000000 0.000000
vn 0.000000 -1.000000 0.000000
vn 0.000000 -1.000000 0.000000
vn 0.999078 0.000000 -0.042926
vn 0.999078 0.000000 -0.042926
vn 0.999078 0.000000 -0.042926
vn 0.999078 0.000000 -0.042926
vn -1.000000 0.000000 0.000000
vn -1.000000 0.000000 0.000000
vn -1.000000 0.000000 0.000000
vn -1.000000 0.000000 0.000000
vn 0.000000 0.000000 1.000000
vn 0.000000 0.000000 1.000000
vn 0.000000 0.000000 1.000000
vn 0.000000 0.000000 1.000000
vn 0.000000 1.000000 0.000000
vn 0.000000 1.000000 0.000000
vn 0.000000 1.000000 0.000000
vn 0.000000 1.000000 0.000000
vn -0.035208 0.000000 -0.999380
vn -0.035208 0.000000 -0.999380
vn -0.035208 0.000000 -0.999380
vn -0.035208 0.000000 -0.999380
vn 0.000000 -1.000000 -0.000000
vn 0.000000 -1.000000 -0.000000
vn 0.000000 -1.000000 -0.000000
vn 0.000000 -1.000000 -0.000000
vn 0.999078 0.000000 0.042926
vn 0.999078 0.000000 0.042926
vn 0.999078 0.000000 0.042926
vn 0.999078 0.000000 0.042926
vn -1.000000 0.000000 0.000000
vn -1.000000 0.000000 0.000000
vn -1.000000 0.000000 0.000000
vn -1.000000 0.000000 0.000000
vn 0.035212 0.999380 0.000000
vn 0.035212 0.999380 0.000000
vn 0.035212 0.999380 0.000000
vn 0.035212 0.999380 0.000000
vn 0.000000 0.000000 -1.000000
vn 0.000000 0.000000 -1.000000
vn 0.000000 0.000000 -1.000000
vn 0.000000 0.000000 -1.000000
vn 0.000000 -1.000000 0.000000
vn 0.000000 -1.000000 0.000000
vn 0.000000 -1.000000 0.000000
vn 0.000000 -1.000000 0.000000
vn 0.000000 0.000000 1.000000
vn 0.000000 0.000000 1.000000
vn 0.000000 0.000000 1.000000
vn 0.000000 0.000000 1.000000
vn 1.000000 0.000000 0.000000
vn 1.000000 0.000000 0.000000
vn 1.000000 0.000000 0.000000
vn 1.000000 0.000000 0.000000
vn -0.999076 -0.042973 0.000000
vn -0.999076 -0.042973 0.000000
vn -0.999076 -0.042973 0.000000
vn -0.999076 -0.042973 0.000000
vn 0.035204 0.999380 0.000000
vn 0.035204 0.999380 0.000000
vn 0.035204 0.999380 0.000000
vn 0.035204 0.999380 0.000000
vn 0.000000 0.000000 -1.000000
vn 0.000000 0.000000 -1.000000
vn 0.000000 0.000000 -1.000000
vn 0.000000 0.000000 -1.000000
vn 0.000000 -1.000000 0.000000
vn 0.000000 -1.000000 0.000000
vn 0.000000 -1.000000 0.000000
vn 0.000000 -1.000000 0.000000
vn 0.000000 0.000000 1.000000
vn 0.000000 0.000000 1.000000
vn 0.000000 0.000000 1.000000
vn 0.000000 0.000000 1.000000
vn 1.000000 0.000000 0.000000
vn 1.000000 0.000000 0.000000
vn 1.000000 0.000000 0.000000
vn 1.000000 0.000000 0.000000
vn -0.999076 -0.042973 0.000000
vn -0.999076 -0.042973 0.000000
vn -0.999076 -0.042973 0.000000
vn -0.999076 -0.042973 0.000000
vn 0.000000 0.999380 -0.035200
vn 0.000000 0.999380 -0.035200
vn 0.000000 0.999380 -0.035200
vn 0.000000 0.999380 -0.035200
vn -1.000000 -0.000005 0.000000
vn -1.000000 -0.000005 0.000000
vn -1.000000 -0.000005 0.000000
vn -1.000000 -0.000005 0.000000
vn 0.000000 -1.000000 0.000000
vn 0.000000 -1.000000 0.000000
vn 0.000000 -1.000000 0.000000
vn 0.000000 -1.000000 0.000000
vn 1.000000 0.000019 0.000000
vn 1.000000 0.000019 0.000000
vn 1.000000 0.000019 0.000000
vn 1.000000 0.000019 0.000000
vn 0.000000 0.000000 -1.000000
vn 0.000000 0.000000 -1.000000
vn 0.000000 0.000000 -1.000000
vn 0.000000 0.000000 -1.000000
vn 0.000000 -0.042950 0.999077
vn 0.000000 -0.042950 0.999077
vn 0.000000 -0.042950 0.999077
vn 0.000000 -0.042950 0.999077
s off
g polySurface7683
f 1/1/1 3/2/2 4/3/3 2/4/4
s 2
f 4/5/5 3/6/6 5/7/7 6/8/8
s 3
f 7/9/9 8/10/10 1/11/11 2/12/12
s off
f 9/13/13 12/14/14 11/15/15 10/16/16
f 8/17/17 5/18/18 3/2/19 1/1/20
s 3
f 7/9/9 9/19/21 10/20/22 8/10/10
s off
f 8/17/23 10/16/24 11/15/25 5/18/26
s 2
f 5/7/7 11/21/27 12/22/28 6/8/8
s off
f 13/23/29 15/24/30 16/25/31 14/26/32
s 8
f 16/27/33 15/28/34 17/29/35 18/30/36
s 9
f 19/31/37 20/32/38 13/33/39 14/34/40
s off
f 21/35/41 24/36/42 23/37/43 22/38/44
f 20/39/45 17/40/46 15/24/47 13/23/48
s 9
f 19/31/37 21/41/49 22/42/50 20/32/38
s off
f 20/39/51 22/38/52 23/37/53 17/40/54
s 8
f 17/29/35 23/43/55 24/44/56 18/30/36
s off
f 25/45/57 26/46/58 28/47/59 27/48/60
f 37/49/61 38/50/62 39/51/63 40/52/64
f 29/53/65 30/54/66 32/55/67 31/56/68
f 31/57/69 32/58/70 26/59/71 25/60/72
f 26/46/73 32/55/74 30/54/75 28/47/76
f 31/56/77 25/45/78 27/48/79 29/53/80
f 27/48/81 28/47/82 34/61/83 33/62/84
f 28/47/85 30/54/86 35/63/87 34/61/88
f 30/54/89 29/53/90 36/64/91 35/63/92
f 29/53/93 27/48/94 33/62/95 36/64/96
f 33/62/97 34/61/98 38/65/99 37/66/100
f 34/61/101 35/63/102 39/67/103 38/65/104
f 35/63/105 36/64/106 40/68/107 39/67/108
f 36/64/109 33/62/110 37/66/111 40/68/112
f 41/69/113 42/70/114 44/71/115 43/72/116
s 28
f 44/73/117 46/74/118 45/75/119 43/76/120
s 29
f 47/77/121 42/78/122 41/79/123 48/80/124
s off
f 49/81/125 50/82/126 51/83/127 52/84/128
f 48/85/129 41/69/130 43/72/131 45/86/132
s 29
f 47/77/121 48/80/124 50/87/133 49/88/134
s off
f 48/85/135 45/86/136 51/83/137 50/82/138
s 28
f 45/75/119 46/74/118 52/89/139 51/90/140
s off
f 53/91/141 55/92/142 56/93/143 54/94/144
s 34
f 56/95/145 55/96/146 57/97/147 58/98/148
s 35
f 59/99/149 60/100/150 53/101/151 54/102/152
s off
f 61/103/153 64/104/154 63/105/155 62/106/156
f 60/107/157 57/108/158 55/92/159 53/91/160
s 35
f 59/99/149 61/109/161 62/110/162 60/100/150
s off
f 60/107/163 62/106/164 63/105/165 57/108/166
s 34
f 57/97/147 63/111/167 64/112/168 58/98/148
s off
f 65/113/169 66/114/170 68/115/171 67/116/172
s 40
f 68/117/173 70/118/174 69/119/175 67/120/176
s 41
f 71/121/177 66/122/178 65/123/179 72/124/180
s off
f 73/125/181 74/126/182 75/127/183 76/128/184
f 72/129/185 65/113/186 67/116/187 69/130/188
s 41
f 71/121/177 72/124/180 74/131/189 73/132/190
s off
f 72/129/191 69/130/192 75/127/193 74/126/194
s 40
f 69/119/175 70/118/174 76/133/195 75/134/196
s off
f 77/135/197 78/136/198 80/137/199 79/138/200
s 46
f 80/139/201 82/140/202 81/141/203 79/142/204
s 47
f 83/143/205 78/144/206 77/145/207 84/146/208
s off
f 85/147/209 86/148/210 87/149/211 88/150/212
f 84/151/213 77/135/214 79/138/215 81/152/216
s 47
f 83/143/205 84/146/208 86/153/217 85/154/218
s off
f 84/151/219 81/152/220 87/149/221 86/148/222
s 46
f 81/141/203 82/140/202 88/155/223 87/156/224
s off
f 89/157/225 91/158/226 92/159/227 90/160/228
s 52
f 92/161/229 91/162/230 93/163/231 94/164/232
s 53
f 95/165/233 96/166/234 89/167/235 90/168/236
s off
f 97/169/237 100/170/238 99/171/239 98/172/240
f 96/173/241 93/174/242 91/158/243 89/157/244
s 53
f 95/165/233 97/175/245 98/176/246 96/166/234
s off
f 96/173/247 98/172/248 99/171/249 93/174/250
s 52
f 93/163/231 99/177/251 100/178/252 94/164/232
s off
f 101/179/253 102/180/254 104/181/255 103/182/256
s 58
f 104/183/257 106/184/258 105/185/259 103/186/260
s 59
f 107/187/261 102/188/262 101/189/263 108/190/264
s off
f 109/191/265 110/192/266 111/193/267 112/194/268
f 108/195/269 101/179/270 103/182/271 105/196/272
s 59
f 107/187/261 108/190/264 110/197/273 109/198/274
s off
f 108/195/275 105/196/276 111/193/277 110/192/278
s 58
f 105/185/259 106/184/258 112/199/279 111/200/280
s off
f 113/201/281 114/202/282 116/203/283 115/204/284
f 115/205/285 116/206/286 118/207/287 117/208/288
f 117/209/289 118/210/290 120/211/291 119/212/292
f 119/213/293 120/214/294 114/215/295 113/216/296
f 114/217/297 120/218/298 118/219/299 116/220/300
f 119/221/301 113/222/302 115/223/303 117/224/304
f 121/225/305 122/226/306 124/227/307 123/228/308
f 123/229/309 124/230/310 126/231/311 125/232/312
f 125/233/313 126/234/314 128/235/315 127/236/316
f 127/237/317 128/238/318 122/239/319 121/240/320
f 122/241/321 128/242/322 126/243/323 124/244/324
f 127/245/325 121/246/326 123/247/327 125/248/328
f 129/249/329 130/250/330 132/251/331 131/252/332
f 131/253/333 132/254/334 134/255/335 133/256/336
f 133/257/337 134/258/338 136/259/339 135/260/340
f 135/261/341 136/262/342 130/263/343 129/264/344
f 130/265/345 136/266/346 134/267/347 132/268/348
f 135/269/349 129/270/350 131/271/351 133/272/352
f 137/273/353 138/274/354 140/275/355 139/276/356
f 139/277/357 140/278/358 142/279/359 141/280/360
f 141/281/361 142/282/362 144/283/363 143/284/364
f 143/285/365 144/286/366 138/287/367 137/288/368
f 138/289/369 144/290/370 142/291/371 140/292/372
f 143/293/373 137/294/374 139/295/375 141/296/376
f 145/297/377 146/298/378 148/299/379 147/300/380
f 147/301/381 148/302/382 150/303/383 149/304/384
f 149/305/385 150/306/386 152/307/387 151/308/388
f 151/309/389 152/310/390 146/311/391 145/312/392
f 146/313/393 152/314/394 150/315/395 148/316/396
f 151/317/397 145/318/398 147/319/399 149/320/400
f 153/321/401 154/322/402 156/323/403 155/324/404
f 155/325/405 156/326/406 158/327/407 157/328/408
f 157/329/409 158/330/410 160/331/411 159/332/412
f 159/333/413 160/334/414 154/335/415 153/336/416
f 154/337/417 160/338/418 158/339/419 156/340/420
f 159/341/421 153/342/422 155/343/423 157/344/424
f 161/345/425 162/346/426 164/347/427 163/348/428
f 163/349/429 164/350/430 166/351/431 165/352/432
f 165/353/433 166/354/434 168/355/435 167/356/436
f 167/357/437 168/358/438 162/359/439 161/360/440
f 162/361/441 168/362/442 166/363/443 164/364/444
f 167/365/445 161/366/446 163/367/447 165/368/448
