# This file uses centimeters as units for non-parametric coordinates.

g default
v -32.368389 0.390182 0.484042
v -32.368385 0.390182 -0.484043
v -32.371281 0.368129 0.481361
v -32.371284 0.368129 -0.481361
v -34.594563 0.368129 0.481361
v -34.594566 0.368129 -0.481361
v -34.597466 0.390182 0.484042
v -34.597458 0.390182 -0.484041
v -32.359692 0.353601 0.495641
v -32.359684 0.353601 -0.495641
v -34.606155 0.353601 -0.495641
v -34.606163 0.353601 0.495641
v -32.359692 0.318226 0.495641
v -32.359688 0.318226 -0.495641
v -34.606155 0.318226 -0.495640
v -34.606163 0.318226 0.495641
v -32.398857 0.363894 0.469594
v -34.583725 0.363894 0.469595
v -32.398853 0.363894 -0.006615
v -34.583717 0.363894 -0.006615
v -34.583725 0.363894 -0.463874
v -32.398857 0.363894 -0.463874
v -32.398857 0.540060 0.469594
v -34.583725 0.540060 0.469595
v -34.583717 0.540060 -0.006615
v -34.583725 0.540060 -0.463874
v -32.398857 0.540060 -0.463874
v -32.398853 0.540060 -0.006615
v -32.368389 0.520323 0.484042
v -32.368385 0.520323 -0.484043
v -32.371281 0.542376 0.481361
v -32.371284 0.542376 -0.481361
v -34.594563 0.542376 0.481361
v -34.594566 0.542376 -0.481361
v -34.597466 0.520323 0.484042
v -34.597458 0.520323 -0.484041
v -32.359692 0.556903 0.495641
v -32.359684 0.556903 -0.495641
v -34.606155 0.556903 -0.495641
v -34.606163 0.556903 0.495641
v -32.359692 0.592279 0.495641
v -32.359688 0.592279 -0.495641
v -34.606155 0.592279 -0.495640
v -34.606163 0.592279 0.495641
v -32.392441 0.216024 0.385806
v -32.392441 0.197591 0.423613
v -32.417164 0.216024 0.385806
v -32.417164 0.197591 0.423613
v -32.417164 0.288297 0.385806
v -32.417164 0.322545 0.423613
v -32.392441 0.322545 0.423613
v -32.392441 0.288297 0.385806
v -32.392437 0.322545 0.234230
v -32.392441 0.288297 0.257671
v -32.417160 0.288297 0.257671
v -32.417156 0.322545 0.234230
v -32.392441 0.216024 -0.386651
v -32.392441 0.197591 -0.424457
v -32.417164 0.216024 -0.386650
v -32.417164 0.197591 -0.424458
v -32.417164 0.288297 -0.386650
v -32.417164 0.322545 -0.424458
v -32.392441 0.322545 -0.424457
v -32.392441 0.288297 -0.386651
v -32.392441 0.322545 -0.235075
v -32.392437 0.288297 -0.258515
v -32.417156 0.288297 -0.258515
v -32.417160 0.322545 -0.235075
v -32.469139 0.216024 0.433778
v -32.431328 0.197591 0.433778
v -32.469131 0.216024 0.458502
v -32.431328 0.197591 0.458502
v -32.469131 0.288297 0.458502
v -32.431328 0.322545 0.458502
v -32.431328 0.322545 0.433778
v -32.469139 0.288297 0.433778
v -32.568680 0.322545 0.433778
v -32.545235 0.288297 0.433778
v -32.545235 0.288297 0.458502
v -32.568676 0.322545 0.458502
v -32.469139 0.216024 -0.460729
v -32.431328 0.197591 -0.460729
v -32.469139 0.216024 -0.436003
v -32.431328 0.197591 -0.436003
v -32.469139 0.288297 -0.436003
v -32.431328 0.322545 -0.436003
v -32.431328 0.322545 -0.460729
v -32.469139 0.288297 -0.460729
v -32.568680 0.322545 -0.460727
v -32.545235 0.288297 -0.460727
v -32.545235 0.288297 -0.436004
v -32.568680 0.322545 -0.436004
v -32.376167 0.113131 0.477915
v -32.378231 0.113131 0.419350
v -32.376167 0.740326 0.477915
v -32.378231 0.740326 0.419350
v -32.434734 0.740326 0.475397
v -32.434734 0.740326 0.419349
v -32.434734 0.113131 0.475397
v -32.434734 0.113131 0.419349
v -32.378231 0.113131 -0.419350
v -32.376171 0.113131 -0.477916
v -32.378231 0.740326 -0.419350
v -32.376171 0.740326 -0.477916
v -32.434742 0.740326 -0.419350
v -32.434742 0.740326 -0.475397
v -32.434742 0.113131 -0.419350
v -32.434742 0.113131 -0.475397
v -32.368389 0.686486 0.484042
v -32.368385 0.686486 -0.484043
v -32.371281 0.708539 0.481361
v -32.371284 0.708539 -0.481361
v -32.441185 0.708539 0.481360
v -32.441185 0.708539 -0.481361
v -32.444088 0.686486 0.484042
v -32.444084 0.686486 -0.484042
v -32.359692 0.723066 0.495641
v -32.359684 0.723066 -0.495641
v -32.452782 0.723066 -0.495641
v -32.452785 0.723066 0.495641
v -32.359692 0.758442 0.495641
v -32.359688 0.758442 -0.495641
v -32.452782 0.758442 -0.495641
v -32.452785 0.758442 0.495641
v -34.576870 0.216024 0.385805
v -34.576870 0.197591 0.423612
v -34.552147 0.216024 0.385805
v -34.552147 0.197591 0.423613
v -34.552147 0.288297 0.385805
v -34.552147 0.322545 0.423613
v -34.576870 0.322545 0.423612
v -34.576870 0.288297 0.385805
v -34.576866 0.322545 0.234230
v -34.576866 0.288297 0.257671
v -34.552147 0.288297 0.257671
v -34.552147 0.322545 0.234230
v -34.576870 0.216024 -0.386650
v -34.576870 0.197591 -0.424457
v -34.552147 0.216024 -0.386650
v -34.552147 0.197591 -0.424457
v -34.552147 0.288297 -0.386650
v -34.552147 0.322545 -0.424457
v -34.576870 0.322545 -0.424457
v -34.576870 0.288297 -0.386650
v -34.576866 0.322545 -0.235074
v -34.576866 0.288297 -0.258515
v -34.552147 0.288297 -0.258515
v -34.552147 0.322545 -0.235074
v -34.500168 0.216024 0.433779
v -34.537971 0.197591 0.433779
v -34.500164 0.216024 0.458503
v -34.537971 0.197591 0.458503
v -34.500164 0.288297 0.458503
v -34.537971 0.322545 0.458503
v -34.537971 0.322545 0.433779
v -34.500168 0.288297 0.433779
v -34.400627 0.322545 0.433778
v -34.424065 0.288297 0.433778
v -34.424065 0.288297 0.458502
v -34.400620 0.322545 0.458502
v -34.500168 0.216024 -0.460727
v -34.537971 0.197591 -0.460727
v -34.500168 0.216024 -0.436004
v -34.537971 0.197591 -0.436004
v -34.500168 0.288297 -0.436004
v -34.537971 0.322545 -0.436004
v -34.537971 0.322545 -0.460727
v -34.500168 0.288297 -0.460727
v -34.400627 0.322545 -0.460728
v -34.424065 0.288297 -0.460728
v -34.424065 0.288297 -0.436002
v -34.400627 0.322545 -0.436002
v -34.600922 0.812828 0.484042
v -34.600922 0.812828 -0.484041
v -34.598019 0.834881 0.481361
v -34.598015 0.834881 -0.481361
v -34.528114 0.834881 0.481361
v -34.528114 0.834881 -0.481361
v -34.525223 0.812828 0.484042
v -34.525215 0.812828 -0.484041
v -34.609612 0.849409 0.495641
v -34.609612 0.849409 -0.495641
v -34.516518 0.849409 -0.495641
v -34.516525 0.849409 0.495641
v -34.609612 0.884784 0.495641
v -34.609619 0.884784 -0.495640
v -34.516518 0.884784 -0.495640
v -34.516525 0.884784 0.495641
v -34.584698 0.726004 0.427602
v -34.583225 0.684317 0.427602
v -34.584698 0.726004 -0.429770
v -34.583225 0.684317 -0.429770
v -34.543007 0.724212 -0.429770
v -34.543007 0.684317 -0.429770
v -34.543007 0.724212 0.427602
v -34.543007 0.684317 0.427602
v -34.593128 0.113131 0.477915
v -34.591068 0.113131 0.419350
v -34.593128 0.874523 0.477915
v -34.591068 0.874523 0.419350
v -34.534565 0.874523 0.475397
v -34.534565 0.874523 0.419350
v -34.534565 0.113131 0.475397
v -34.534565 0.113131 0.419350
v -34.591068 0.113131 -0.419350
v -34.593128 0.113131 -0.477916
v -34.591068 0.874523 -0.419350
v -34.593128 0.874523 -0.477916
v -34.534569 0.874523 -0.419350
v -34.534569 0.874523 -0.475396
v -34.534569 0.113131 -0.419350
v -34.534569 0.113131 -0.475396
v -33.510956 0.349572 0.477915
v -33.508896 0.349572 0.419350
v -33.510956 0.563093 0.477915
v -33.508896 0.563093 0.419350
v -33.452396 0.563093 0.475397
v -33.452396 0.563093 0.419350
v -33.452396 0.349572 0.475397
v -33.452396 0.349572 0.419350
v -33.508896 0.349572 -0.419349
v -33.510960 0.349572 -0.477916
v -33.508896 0.563093 -0.419349
v -33.510960 0.563093 -0.477916
v -33.452393 0.563093 -0.419350
v -33.452393 0.563093 -0.475396
v -33.452393 0.349572 -0.419350
v -33.452393 0.349572 -0.475396
vt -0.153957 0.468189
vt -0.149576 0.494823
vt 0.606066 0.494823
vt 0.605894 0.468189
vt 0.902683 0.152123
vt 0.124036 0.152125
vt 0.124036 0.452764
vt 0.902683 0.452766
vt 1.644384 0.494905
vt 1.644553 0.468541
vt 2.404387 0.468541
vt 2.400012 0.494905
vt 0.131552 0.155643
vt 0.904331 0.155641
vt 0.904331 0.449248
vt 0.131552 0.449246
vt -0.169887 0.512369
vt 0.608171 0.512369
vt 2.420323 0.512361
vt 1.642279 0.512361
vt -0.169887 0.555094
vt 0.608171 0.555094
vt 2.420318 0.554880
vt 1.642277 0.554880
vt 0.747296 0.278834
vt 0.885428 0.278835
vt 0.885430 0.451179
vt 0.747294 0.451179
vt 1.396226 0.451212
vt 0.747700 0.451233
vt 0.747700 0.278828
vt 1.396226 0.278829
vt 0.887618 0.451233
vt 0.745996 0.451233
vt 0.745998 0.278827
vt 0.887616 0.278827
vt 0.747297 0.278834
vt 0.747295 0.451179
vt 0.885429 0.451179
vt 0.885427 0.278835
vt 1.396226 0.451212
vt 1.396226 0.278829
vt 0.747700 0.278828
vt 0.747700 0.451233
vt 0.887618 0.451233
vt 0.887616 0.278827
vt 0.745998 0.278827
vt 0.745996 0.451233
vt -0.153957 0.468189
vt -0.149576 0.494823
vt 0.606066 0.494823
vt 0.605894 0.468189
vt 0.902683 0.152123
vt 0.124036 0.152125
vt 0.124036 0.452764
vt 0.902683 0.452766
vt 1.644384 0.494905
vt 1.644553 0.468541
vt 2.404387 0.468541
vt 2.400012 0.494905
vt 0.131552 0.155643
vt 0.904331 0.155641
vt 0.904331 0.449248
vt 0.131552 0.449246
vt -0.169887 0.512369
vt 0.608171 0.512369
vt 2.420323 0.512361
vt 1.642279 0.512361
vt -0.169887 0.555094
vt 0.608171 0.555094
vt 2.420318 0.554880
vt 1.642277 0.554880
vt 0.321762 0.358312
vt 0.266530 0.358312
vt 0.266530 0.340568
vt 0.321762 0.340568
vt 0.359246 0.244391
vt 0.359246 0.330296
vt 0.385794 0.306751
vt 0.385794 0.257063
vt 0.359246 0.330296
vt 0.359246 0.244391
vt 0.385794 0.257063
vt 0.385794 0.306751
vt 0.568338 0.358312
vt 0.516509 0.358312
vt 0.516509 0.340568
vt 0.568338 0.340568
vt 0.377454 0.358312
vt 0.377454 0.340568
vt 0.475771 0.306751
vt 0.492232 0.330296
vt 0.492232 0.330296
vt 0.475771 0.306751
vt 0.321762 0.358312
vt 0.321762 0.340568
vt 0.266530 0.340568
vt 0.266530 0.358312
vt 0.359246 0.244391
vt 0.385794 0.257063
vt 0.385794 0.306751
vt 0.359246 0.330296
vt 0.359246 0.330296
vt 0.385794 0.306751
vt 0.385794 0.257063
vt 0.359246 0.244391
vt 0.568338 0.358312
vt 0.568338 0.340568
vt 0.516509 0.340568
vt 0.516509 0.358312
vt 0.377454 0.358312
vt 0.377454 0.340568
vt 0.492232 0.330296
vt 0.475771 0.306751
vt 0.475771 0.306751
vt 0.492232 0.330296
vt 0.321762 0.358312
vt 0.266530 0.358312
vt 0.266530 0.340568
vt 0.321762 0.340568
vt 0.359246 0.244391
vt 0.359246 0.330296
vt 0.385794 0.306751
vt 0.385794 0.257063
vt 0.359246 0.330296
vt 0.359246 0.244391
vt 0.385794 0.257063
vt 0.385794 0.306751
vt 0.568338 0.358312
vt 0.516509 0.358312
vt 0.516509 0.340568
vt 0.568338 0.340568
vt 0.377454 0.358312
vt 0.377454 0.340568
vt 0.475771 0.306751
vt 0.492232 0.330296
vt 0.492232 0.330296
vt 0.475771 0.306751
vt 0.321762 0.358312
vt 0.266530 0.358312
vt 0.266530 0.340568
vt 0.321762 0.340568
vt 0.359246 0.244391
vt 0.359246 0.330296
vt 0.385794 0.306751
vt 0.385794 0.257063
vt 0.359246 0.330296
vt 0.359246 0.244391
vt 0.385794 0.257063
vt 0.385794 0.306751
vt 0.568338 0.358312
vt 0.516509 0.358312
vt 0.516509 0.340568
vt 0.568338 0.340568
vt 0.377454 0.358312
vt 0.377454 0.340568
vt 0.475771 0.306751
vt 0.492232 0.330296
vt 0.492232 0.330296
vt 0.475771 0.306751
vt 1.547970 0.063951
vt 1.547970 0.006710
vt 0.901603 0.006816
vt 0.901603 0.063845
vt 0.563902 0.281530
vt 0.615156 0.283353
vt 0.615173 0.332805
vt 0.566123 0.332788
vt 0.901603 0.126181
vt 0.901603 0.066792
vt 1.547970 0.066671
vt 1.547970 0.126302
vt 0.565915 0.333005
vt 0.615373 0.333005
vt 0.615373 0.283143
vt 0.563692 0.281323
vt 1.547970 0.006710
vt 1.547970 0.066671
vt 0.901603 0.066551
vt 0.901603 0.006830
vt 1.547970 0.127093
vt 1.547970 0.063951
vt 0.901603 0.064069
vt 0.901603 0.126976
vt 1.547970 0.063951
vt 1.547970 0.006710
vt 0.901603 0.006816
vt 0.901603 0.063845
vt 0.563938 0.282427
vt 0.615154 0.282488
vt 0.615175 0.333674
vt 0.566087 0.331887
vt 0.901603 0.126181
vt 0.901603 0.066792
vt 1.547970 0.066671
vt 1.547970 0.126302
vt 0.565915 0.333005
vt 0.615373 0.333005
vt 0.615373 0.283143
vt 0.563692 0.281323
vt 1.547970 0.006710
vt 1.547970 0.066671
vt 0.901603 0.066560
vt 0.901603 0.006821
vt 1.547970 0.127093
vt 1.547970 0.063951
vt 0.901603 0.064078
vt 0.901603 0.126967
vt -0.153957 0.468189
vt 0.605894 0.468189
vt 0.606066 0.494823
vt -0.149576 0.494823
vt 0.634341 0.212799
vt 0.989992 0.212799
vt 0.989990 0.245701
vt 0.634342 0.245701
vt -0.094709 0.494817
vt 0.660933 0.494817
vt 0.665315 0.468282
vt -0.094536 0.468282
vt 0.638503 0.237826
vt 0.985829 0.237826
vt 0.985830 0.211072
vt 0.638502 0.211072
vt 0.608171 0.512369
vt -0.169887 0.512369
vt 0.681244 0.512376
vt -0.096815 0.512376
vt 0.608171 0.555094
vt -0.169887 0.555094
vt 0.681245 0.555036
vt -0.096813 0.555036
vt 0.321762 0.358312
vt 0.266530 0.358312
vt 0.266530 0.340568
vt 0.321762 0.340568
vt 0.359246 0.244391
vt 0.359246 0.330296
vt 0.385794 0.306751
vt 0.385794 0.257063
vt 0.359246 0.330296
vt 0.359246 0.244391
vt 0.385794 0.257063
vt 0.385794 0.306751
vt 0.568338 0.358312
vt 0.516509 0.358312
vt 0.516509 0.340568
vt 0.568338 0.340568
vt 0.377454 0.358312
vt 0.377454 0.340568
vt 0.475771 0.306751
vt 0.492232 0.330296
vt 0.492232 0.330296
vt 0.475771 0.306751
vt 0.321762 0.358312
vt 0.321762 0.340568
vt 0.266530 0.340568
vt 0.266530 0.358312
vt 0.359246 0.244391
vt 0.385794 0.257063
vt 0.385794 0.306751
vt 0.359246 0.330296
vt 0.359246 0.330296
vt 0.385794 0.306751
vt 0.385794 0.257063
vt 0.359246 0.244391
vt 0.568338 0.358312
vt 0.568338 0.340568
vt 0.516509 0.340568
vt 0.516509 0.358312
vt 0.377454 0.358312
vt 0.377454 0.340568
vt 0.492232 0.330296
vt 0.475771 0.306751
vt 0.475771 0.306751
vt 0.492232 0.330296
vt 0.321762 0.358312
vt 0.266530 0.358312
vt 0.266530 0.340568
vt 0.321762 0.340568
vt 0.359246 0.244391
vt 0.359246 0.330296
vt 0.385794 0.306751
vt 0.385794 0.257063
vt 0.359246 0.330296
vt 0.359246 0.244391
vt 0.385794 0.257063
vt 0.385794 0.306751
vt 0.568338 0.358312
vt 0.516509 0.358312
vt 0.516509 0.340568
vt 0.568338 0.340568
vt 0.377454 0.358312
vt 0.377454 0.340568
vt 0.475771 0.306751
vt 0.492232 0.330296
vt 0.492232 0.330296
vt 0.475771 0.306751
vt 0.321762 0.358312
vt 0.266530 0.358312
vt 0.266530 0.340568
vt 0.321762 0.340568
vt 0.359246 0.244391
vt 0.359246 0.330296
vt 0.385794 0.306751
vt 0.385794 0.257063
vt 0.359246 0.330296
vt 0.359246 0.244391
vt 0.385794 0.257063
vt 0.385794 0.306751
vt 0.568338 0.358312
vt 0.516509 0.358312
vt 0.516509 0.340568
vt 0.568338 0.340568
vt 0.377454 0.358312
vt 0.377454 0.340568
vt 0.475771 0.306751
vt 0.492232 0.330296
vt 0.492232 0.330296
vt 0.475771 0.306751
vt -0.153957 0.468189
vt 0.605894 0.468189
vt 0.606066 0.494823
vt -0.149576 0.494823
vt 0.634341 0.212799
vt 0.989992 0.212799
vt 0.989990 0.245701
vt 0.634342 0.245701
vt -0.094709 0.494817
vt 0.660933 0.494817
vt 0.665315 0.468282
vt -0.094536 0.468282
vt 0.638503 0.237826
vt 0.985829 0.237826
vt 0.985830 0.211072
vt 0.638502 0.211072
vt 0.608171 0.512369
vt -0.169887 0.512369
vt 0.681244 0.512376
vt -0.096815 0.512376
vt 0.608171 0.555094
vt -0.169887 0.555094
vt 0.681245 0.555036
vt -0.096813 0.555036
vt 1.991956 0.063784
vt 1.991956 0.006877
vt 0.785018 0.006820
vt 0.785018 0.063842
vt 0.563954 0.281582
vt 0.615102 0.283405
vt 0.615122 0.332755
vt 0.566175 0.332734
vt 0.785018 0.126177
vt 0.785018 0.066796
vt 1.991956 0.066861
vt 1.991956 0.126112
vt 0.566019 0.332896
vt 0.615273 0.332905
vt 0.615264 0.283248
vt 0.563797 0.281427
vt 1.991956 0.006898
vt 1.991956 0.066483
vt 0.785018 0.066547
vt 0.785018 0.006834
vt 1.991956 0.126909
vt 1.991956 0.064136
vt 0.785018 0.064073
vt 0.785018 0.126972
vt 1.547970 0.063951
vt 0.785018 0.063842
vt 0.785018 0.006820
vt 1.547970 0.006710
vt 0.563954 0.281582
vt 0.566175 0.332734
vt 0.615122 0.332755
vt 0.615102 0.283405
vt 0.785018 0.126177
vt 1.547970 0.126302
vt 1.547970 0.066671
vt 0.785018 0.066796
vt 0.565915 0.333005
vt 0.563692 0.281323
vt 0.615373 0.283143
vt 0.615373 0.333005
vt 1.547970 0.006710
vt 0.785018 0.006834
vt 0.785018 0.066547
vt 1.547970 0.066671
vt 1.547970 0.127093
vt 0.785018 0.126972
vt 0.785018 0.064073
vt 1.547970 0.063951
vt 1.547970 0.063951
vt 0.785018 0.063842
vt 0.785018 0.006820
vt 1.547970 0.006710
vt 0.563994 0.282481
vt 0.566135 0.331839
vt 0.615121 0.333618
vt 0.615104 0.282538
vt 0.785018 0.126177
vt 1.547970 0.126302
vt 1.547970 0.066671
vt 0.785018 0.066796
vt 0.565915 0.333005
vt 0.563692 0.281323
vt 0.615373 0.283143
vt 0.615373 0.333005
vt 1.547970 0.006710
vt 0.785018 0.006825
vt 0.785018 0.066556
vt 1.547970 0.066671
vt 1.547970 0.127093
vt 0.785018 0.126963
vt 0.785018 0.064082
vt 1.547970 0.063951
vt 1.547970 0.063951
vt 1.334010 0.063840
vt 1.334010 0.006822
vt 1.547970 0.006710
vt 0.564006 0.281633
vt 0.566227 0.332681
vt 0.615073 0.332705
vt 0.615048 0.283457
vt 1.334010 0.126175
vt 1.547970 0.126302
vt 1.547970 0.066671
vt 1.334010 0.066798
vt 0.565915 0.333005
vt 0.563692 0.281323
vt 0.615373 0.283143
vt 0.615373 0.333005
vt 1.547970 0.006710
vt 1.334010 0.006836
vt 1.334010 0.066545
vt 1.547970 0.066671
vt 1.547970 0.127093
vt 1.334010 0.126970
vt 1.334010 0.064075
vt 1.547970 0.063951
vt 1.547970 0.063951
vt 1.334010 0.063840
vt 1.334010 0.006822
vt 1.547970 0.006710
vt 0.564050 0.282535
vt 0.566182 0.331791
vt 0.615066 0.333562
vt 0.615054 0.282587
vt 1.334010 0.126175
vt 1.547970 0.126302
vt 1.547970 0.066671
vt 1.334010 0.066798
vt 0.565915 0.333005
vt 0.563692 0.281323
vt 0.615373 0.283143
vt 0.615373 0.333005
vt 1.547970 0.006710
vt 1.334010 0.006827
vt 1.334010 0.066554
vt 1.547970 0.066671
vt 1.547970 0.127093
vt 1.334010 0.126961
vt 1.334010 0.064084
vt 1.547970 0.063951
vn 0.991474 -0.130308 0.000000
vn 0.991474 -0.130308 0.000000
vn 0.991474 -0.130308 0.000000
vn 0.991474 -0.130308 0.000000
vn 0.000000 -1.000000 0.000000
vn 0.000000 -1.000000 0.000000
vn 0.000000 -1.000000 0.000000
vn 0.000000 -1.000000 0.000000
vn -0.991485 -0.130221 -0.000002
vn -0.991485 -0.130221 -0.000002
vn -0.991485 -0.130221 -0.000002
vn -0.991485 -0.130221 -0.000002
vn 0.000000 1.000000 -0.000000
vn 0.000000 1.000000 -0.000000
vn 0.000000 1.000000 -0.000000
vn 0.000000 1.000000 -0.000000
vn -0.000000 -0.120706 -0.992688
vn -0.000000 -0.120706 -0.992688
vn -0.000000 -0.120706 -0.992688
vn -0.000000 -0.120706 -0.992688
vn -0.000000 -0.120696 0.992690
vn -0.000000 -0.120696 0.992690
vn -0.000000 -0.120696 0.992690
vn -0.000000 -0.120696 0.992690
vn 0.781592 0.623791 0.000002
vn 0.781592 0.623791 0.000002
vn 0.781592 0.623791 0.000002
vn 0.781592 0.623791 0.000002
vn 0.000000 0.701009 -0.713153
vn 0.000000 0.701009 -0.713153
vn 0.000000 0.701009 -0.713153
vn 0.000000 0.701009 -0.713153
vn -0.781540 0.623855 -0.000002
vn -0.781540 0.623855 -0.000002
vn -0.781540 0.623855 -0.000002
vn -0.781540 0.623855 -0.000002
vn -0.000000 0.701003 0.713158
vn -0.000000 0.701003 0.713158
vn -0.000000 0.701003 0.713158
vn -0.000000 0.701003 0.713158
vn 1.000000 0.000000 0.000006
vn 1.000000 0.000000 0.000006
vn 1.000000 0.000000 0.000006
vn 1.000000 0.000000 0.000006
vn -0.000000 -0.000013 -1.000000
vn -0.000000 -0.000013 -1.000000
vn -0.000000 -0.000013 -1.000000
vn -0.000000 -0.000013 -1.000000
vn -1.000000 0.000000 -0.000008
vn -1.000000 0.000000 -0.000008
vn -1.000000 0.000000 -0.000008
vn -1.000000 0.000000 -0.000008
vn -0.000000 0.000000 1.000000
vn -0.000000 0.000000 1.000000
vn -0.000000 0.000000 1.000000
vn -0.000000 0.000000 1.000000
vn -1.000000 0.000000 -0.000016
vn -1.000000 0.000000 -0.000016
vn -1.000000 0.000000 -0.000016
vn -1.000000 0.000000 -0.000016
vn 0.000000 0.000000 1.000000
vn 0.000000 0.000000 1.000000
vn 0.000000 0.000000 1.000000
vn 0.000000 0.000000 1.000000
vn 1.000000 0.000000 0.000008
vn 1.000000 0.000000 0.000008
vn 1.000000 0.000000 0.000008
vn 1.000000 0.000000 0.000008
vn -1.000000 0.000000 0.000017
vn -1.000000 0.000000 0.000017
vn -1.000000 0.000000 0.000017
vn -1.000000 0.000000 0.000017
vn -0.000000 0.000000 -1.000000
vn -0.000000 0.000000 -1.000000
vn -0.000000 0.000000 -1.000000
vn -0.000000 0.000000 -1.000000
vn 1.000000 0.000000 -0.000008
vn 1.000000 0.000000 -0.000008
vn 1.000000 0.000000 -0.000008
vn 1.000000 0.000000 -0.000008
vn 0.991475 0.130298 0.000000
vn 0.991475 0.130298 0.000000
vn 0.991475 0.130298 0.000000
vn 0.991475 0.130298 0.000000
vn 0.000000 1.000000 0.000000
vn 0.000000 1.000000 0.000000
vn 0.000000 1.000000 0.000000
vn 0.000000 1.000000 0.000000
vn -0.991478 0.130277 -0.000002
vn -0.991478 0.130277 -0.000002
vn -0.991478 0.130277 -0.000002
vn -0.991478 0.130277 -0.000002
vn 0.000000 -1.000000 0.000000
vn 0.000000 -1.000000 0.000000
vn 0.000000 -1.000000 0.000000
vn 0.000000 -1.000000 0.000000
vn -0.000000 0.120706 -0.992688
vn -0.000000 0.120706 -0.992688
vn -0.000000 0.120706 -0.992688
vn -0.000000 0.120706 -0.992688
vn -0.000000 0.120695 0.992690
vn -0.000000 0.120695 0.992690
vn -0.000000 0.120695 0.992690
vn -0.000000 0.120695 0.992690
vn 0.781574 -0.623813 0.000002
vn 0.781574 -0.623813 0.000002
vn 0.781574 -0.623813 0.000002
vn 0.781574 -0.623813 0.000002
vn 0.000000 -0.701011 -0.713150
vn 0.000000 -0.701011 -0.713150
vn 0.000000 -0.701011 -0.713150
vn 0.000000 -0.701011 -0.713150
vn -0.781584 -0.623800 -0.000002
vn -0.781584 -0.623800 -0.000002
vn -0.781584 -0.623800 -0.000002
vn -0.781584 -0.623800 -0.000002
vn -0.000000 -0.701006 0.713155
vn -0.000000 -0.701006 0.713155
vn -0.000000 -0.701006 0.713155
vn -0.000000 -0.701006 0.713155
vn 1.000000 0.000000 0.000006
vn 1.000000 0.000000 0.000006
vn 1.000000 0.000000 0.000006
vn 1.000000 0.000000 0.000006
vn -0.000000 0.000013 -1.000000
vn -0.000000 0.000013 -1.000000
vn -0.000000 0.000013 -1.000000
vn -0.000000 0.000013 -1.000000
vn -1.000000 0.000038 -0.000008
vn -1.000000 0.000038 -0.000008
vn -1.000000 0.000038 -0.000008
vn -1.000000 0.000038 -0.000008
vn -0.000000 0.000000 1.000000
vn -0.000000 0.000000 1.000000
vn -0.000000 0.000000 1.000000
vn -0.000000 0.000000 1.000000
vn 0.000000 -0.898867 -0.438222
vn 0.000000 -0.898867 -0.438222
vn 0.000000 -0.898867 -0.438222
vn 0.000000 -0.898867 -0.438222
vn -1.000000 0.000000 0.000000
vn -1.000000 0.000000 -0.000018
vn -1.000000 0.000000 -0.000018
vn -1.000000 0.000000 0.000000
vn 1.000000 -0.000044 0.000006
vn 1.000000 0.000000 0.000000
vn 1.000000 0.000000 0.000000
vn 1.000000 -0.000044 0.000006
vn 0.000000 -0.564800 -0.825228
vn 0.000000 -0.564800 -0.825228
vn 0.000000 -0.564800 -0.825228
vn 0.000000 -0.564800 -0.825228
vn 0.000000 0.000000 -1.000000
vn 0.000000 0.000000 -1.000000
vn 0.000000 0.000000 -1.000000
vn 0.000000 0.000000 -1.000000
vn 1.000000 -0.000088 0.000012
vn 1.000000 -0.000088 0.000012
vn 0.000000 -1.000000 0.000000
vn 0.000000 -1.000000 0.000000
vn 0.000000 -1.000000 0.000000
vn 0.000000 -1.000000 0.000000
vn -1.000000 0.000000 -0.000036
vn -1.000000 0.000000 -0.000036
vn 0.000000 -0.898845 0.438267
vn 0.000000 -0.898845 0.438267
vn 0.000000 -0.898845 0.438267
vn 0.000000 -0.898845 0.438267
vn -1.000000 0.000000 0.000000
vn -1.000000 0.000000 0.000000
vn -1.000000 0.000000 0.000018
vn -1.000000 0.000000 0.000018
vn 1.000000 -0.000044 -0.000006
vn 1.000000 -0.000044 -0.000006
vn 1.000000 0.000000 0.000000
vn 1.000000 0.000000 0.000000
vn -0.000015 -0.564800 0.825228
vn -0.000015 -0.564800 0.825228
vn -0.000015 -0.564800 0.825228
vn -0.000015 -0.564800 0.825228
vn 0.000020 0.000000 1.000000
vn 0.000020 0.000000 1.000000
vn 0.000020 0.000000 1.000000
vn 0.000020 0.000000 1.000000
vn 1.000000 -0.000088 -0.000012
vn 1.000000 -0.000088 -0.000012
vn 0.000000 -1.000000 -0.000000
vn 0.000000 -1.000000 -0.000000
vn 0.000000 -1.000000 -0.000000
vn 0.000000 -1.000000 -0.000000
vn -1.000000 0.000000 0.000036
vn -1.000000 0.000000 0.000036
vn -0.438206 -0.898875 0.000068
vn -0.438206 -0.898875 0.000068
vn -0.438206 -0.898875 0.000068
vn -0.438206 -0.898875 0.000068
vn -0.000001 0.000000 1.000000
vn -0.000000 0.000000 1.000000
vn -0.000000 0.000000 1.000000
vn -0.000001 0.000000 1.000000
vn 0.000003 -0.000000 -1.000000
vn 0.000001 0.000000 -1.000000
vn 0.000001 0.000000 -1.000000
vn 0.000003 -0.000000 -1.000000
vn -0.825170 -0.564884 0.000064
vn -0.825170 -0.564884 0.000064
vn -0.825170 -0.564884 0.000064
vn -0.825170 -0.564884 0.000064
vn -1.000000 0.000000 0.000309
vn -1.000000 0.000000 0.000309
vn -1.000000 0.000000 0.000309
vn -1.000000 0.000000 0.000309
vn 0.000005 -0.000001 -1.000000
vn 0.000005 -0.000001 -1.000000
vn 0.000000 -1.000000 0.000000
vn 0.000000 -1.000000 0.000000
vn 0.000000 -1.000000 0.000000
vn 0.000000 -1.000000 0.000000
vn 0.000000 0.000000 1.000000
vn 0.000000 0.000000 1.000000
vn -0.438195 -0.898880 0.000000
vn -0.438195 -0.898880 0.000000
vn -0.438195 -0.898880 0.000000
vn -0.438195 -0.898880 0.000000
vn 0.000000 0.000000 1.000000
vn -0.000007 0.000001 1.000000
vn -0.000007 0.000001 1.000000
vn 0.000000 0.000000 1.000000
vn -0.000007 0.000001 -1.000000
vn -0.000000 0.000000 -1.000000
vn -0.000000 0.000000 -1.000000
vn -0.000007 0.000001 -1.000000
vn -0.825187 -0.564859 0.000000
vn -0.825187 -0.564859 0.000000
vn -0.825187 -0.564859 0.000000
vn -0.825187 -0.564859 0.000000
vn -1.000000 0.000000 0.000000
vn -1.000000 0.000000 0.000000
vn -1.000000 0.000000 0.000000
vn -1.000000 0.000000 0.000000
vn -0.000013 0.000003 -1.000000
vn -0.000013 0.000003 -1.000000
vn 0.000000 -1.000000 0.000000
vn 0.000000 -1.000000 0.000000
vn 0.000000 -1.000000 0.000000
vn 0.000000 -1.000000 0.000000
vn -0.000014 0.000003 1.000000
vn -0.000014 0.000003 1.000000
vn 0.999380 0.000000 -0.035217
vn 0.999380 0.000000 -0.035217
vn 0.999380 0.000000 -0.035217
vn 0.999380 0.000000 -0.035217
vn 0.000000 1.000000 0.000001
vn 0.000000 1.000000 0.000001
vn 0.000000 1.000000 0.000001
vn 0.000000 1.000000 0.000001
vn -1.000000 0.000000 0.000000
vn -1.000000 0.000000 0.000000
vn -1.000000 0.000000 0.000000
vn -1.000000 0.000000 0.000000
vn 0.000000 -1.000000 0.000000
vn 0.000000 -1.000000 0.000000
vn 0.000000 -1.000000 0.000000
vn 0.000000 -1.000000 0.000000
vn 0.000008 0.000000 -1.000000
vn 0.000008 0.000000 -1.000000
vn 0.000008 0.000000 -1.000000
vn 0.000008 0.000000 -1.000000
vn -0.042957 0.000000 0.999077
vn -0.042957 0.000000 0.999077
vn -0.042957 0.000000 0.999077
vn -0.042957 0.000000 0.999077
vn 0.999382 0.000000 0.035151
vn 0.999382 0.000000 0.035151
vn 0.999382 0.000000 0.035151
vn 0.999382 0.000000 0.035151
vn 0.000000 1.000000 -0.000001
vn 0.000000 1.000000 -0.000001
vn 0.000000 1.000000 -0.000001
vn 0.000000 1.000000 -0.000001
vn -1.000000 0.000000 0.000000
vn -1.000000 0.000000 0.000000
vn -1.000000 0.000000 0.000000
vn -1.000000 0.000000 0.000000
vn 0.000000 -1.000000 0.000000
vn 0.000000 -1.000000 0.000000
vn 0.000000 -1.000000 0.000000
vn 0.000000 -1.000000 0.000000
vn -0.042979 0.000000 -0.999076
vn -0.042979 0.000000 -0.999076
vn -0.042979 0.000000 -0.999076
vn -0.042979 0.000000 -0.999076
vn -0.000008 0.000000 1.000000
vn -0.000008 0.000000 1.000000
vn -0.000008 0.000000 1.000000
vn -0.000008 0.000000 1.000000
vn 0.991475 0.130298 0.000000
vn 0.991475 0.130298 0.000000
vn 0.991475 0.130298 0.000000
vn 0.991475 0.130298 0.000000
vn 0.000000 1.000000 0.000000
vn 0.000000 1.000000 0.000000
vn 0.000000 1.000000 0.000000
vn 0.000000 1.000000 0.000000
vn -0.991465 0.130375 -0.000002
vn -0.991465 0.130375 -0.000002
vn -0.991465 0.130375 -0.000002
vn -0.991465 0.130375 -0.000002
vn 0.000000 -1.000000 0.000000
vn 0.000000 -1.000000 0.000000
vn 0.000000 -1.000000 0.000000
vn 0.000000 -1.000000 0.000000
vn -0.000009 0.120701 -0.992689
vn -0.000009 0.120701 -0.992689
vn -0.000009 0.120701 -0.992689
vn -0.000009 0.120701 -0.992689
vn -0.000006 0.120693 0.992690
vn -0.000006 0.120693 0.992690
vn -0.000006 0.120693 0.992690
vn -0.000006 0.120693 0.992690
vn 0.781574 -0.623813 0.000001
vn 0.781574 -0.623813 0.000001
vn 0.781574 -0.623813 0.000001
vn 0.781574 -0.623813 0.000001
vn 0.000000 -0.701002 -0.713160
vn 0.000000 -0.701002 -0.713160
vn 0.000000 -0.701002 -0.713160
vn 0.000000 -0.701002 -0.713160
vn -0.781561 -0.623829 -0.000002
vn -0.781561 -0.623829 -0.000002
vn -0.781561 -0.623829 -0.000002
vn -0.781561 -0.623829 -0.000002
vn -0.000002 -0.701011 0.713150
vn -0.000002 -0.701011 0.713150
vn -0.000002 -0.701011 0.713150
vn -0.000002 -0.701011 0.713150
vn 1.000000 0.000000 0.000006
vn 1.000000 0.000000 0.000006
vn 1.000000 0.000000 0.000006
vn 1.000000 0.000000 0.000006
vn 0.000000 0.000000 -1.000000
vn 0.000000 0.000000 -1.000000
vn 0.000000 0.000000 -1.000000
vn 0.000000 0.000000 -1.000000
vn -1.000000 0.000000 -0.000004
vn -1.000000 0.000000 -0.000004
vn -1.000000 0.000000 -0.000004
vn -1.000000 0.000000 -0.000004
vn 0.000000 0.000000 1.000000
vn 0.000000 0.000000 1.000000
vn 0.000000 0.000000 1.000000
vn 0.000000 0.000000 1.000000
vn 0.000009 -0.898867 -0.438222
vn 0.000009 -0.898867 -0.438222
vn 0.000009 -0.898867 -0.438222
vn 0.000009 -0.898867 -0.438222
vn 1.000000 0.000000 0.000000
vn 1.000000 0.000000 0.000000
vn 1.000000 0.000022 0.000000
vn 1.000000 0.000022 0.000000
vn -1.000000 -0.000011 -0.000012
vn -1.000000 -0.000011 -0.000012
vn -1.000000 0.000000 0.000000
vn -1.000000 0.000000 0.000000
vn 0.000000 -0.564800 -0.825228
vn 0.000000 -0.564800 -0.825228
vn 0.000000 -0.564800 -0.825228
vn 0.000000 -0.564800 -0.825228
vn 0.000019 0.000000 -1.000000
vn 0.000019 0.000000 -1.000000
vn 0.000019 0.000000 -1.000000
vn 0.000019 0.000000 -1.000000
vn -1.000000 -0.000022 -0.000024
vn -1.000000 -0.000022 -0.000024
vn 0.000000 -1.000000 0.000000
vn 0.000000 -1.000000 0.000000
vn 0.000000 -1.000000 0.000000
vn 0.000000 -1.000000 0.000000
vn 1.000000 0.000044 0.000000
vn 1.000000 0.000044 0.000000
vn 0.000000 -0.898867 0.438222
vn 0.000000 -0.898867 0.438222
vn 0.000000 -0.898867 0.438222
vn 0.000000 -0.898867 0.438222
vn 1.000000 0.000000 0.000000
vn 1.000000 0.000044 0.000000
vn 1.000000 0.000044 0.000000
vn 1.000000 0.000000 0.000000
vn -1.000000 0.000044 0.000012
vn -1.000000 0.000000 0.000000
vn -1.000000 0.000000 0.000000
vn -1.000000 0.000044 0.000012
vn 0.000000 -0.564800 0.825228
vn 0.000000 -0.564800 0.825228
vn 0.000000 -0.564800 0.825228
vn 0.000000 -0.564800 0.825228
vn 0.000000 0.000000 1.000000
vn 0.000000 0.000000 1.000000
vn 0.000000 0.000000 1.000000
vn 0.000000 0.000000 1.000000
vn -1.000000 0.000088 0.000024
vn -1.000000 0.000088 0.000024
vn 0.000000 -1.000000 -0.000000
vn 0.000000 -1.000000 -0.000000
vn 0.000000 -1.000000 -0.000000
vn 0.000000 -1.000000 -0.000000
vn 1.000000 0.000088 0.000000
vn 1.000000 0.000088 0.000000
vn 0.438259 -0.898849 -0.000034
vn 0.438259 -0.898849 -0.000034
vn 0.438259 -0.898849 -0.000034
vn 0.438259 -0.898849 -0.000034
vn 0.000000 0.000000 1.000000
vn 0.000000 0.000000 1.000000
vn 0.000001 0.000000 1.000000
vn 0.000001 0.000000 1.000000
vn -0.000002 -0.000000 -1.000000
vn -0.000002 -0.000000 -1.000000
vn -0.000001 0.000000 -1.000000
vn -0.000001 0.000000 -1.000000
vn 0.825224 -0.564805 -0.000128
vn 0.825224 -0.564805 -0.000128
vn 0.825224 -0.564805 -0.000128
vn 0.825224 -0.564805 -0.000128
vn 1.000000 0.000000 -0.000154
vn 1.000000 0.000000 -0.000154
vn 1.000000 0.000000 -0.000154
vn 1.000000 0.000000 -0.000154
vn -0.000002 -0.000000 -1.000000
vn -0.000002 -0.000000 -1.000000
vn 0.000000 -1.000000 0.000000
vn 0.000000 -1.000000 0.000000
vn 0.000000 -1.000000 0.000000
vn 0.000000 -1.000000 0.000000
vn 0.000002 0.000000 1.000000
vn 0.000002 0.000000 1.000000
vn 0.438257 -0.898850 0.000000
vn 0.438257 -0.898850 0.000000
vn 0.438257 -0.898850 0.000000
vn 0.438257 -0.898850 0.000000
vn -0.000001 0.000000 1.000000
vn -0.000001 0.000000 1.000000
vn -0.000008 -0.000001 1.000000
vn -0.000008 -0.000001 1.000000
vn -0.000006 -0.000002 -1.000000
vn -0.000006 -0.000002 -1.000000
vn 0.000002 0.000000 -1.000000
vn 0.000002 0.000000 -1.000000
vn 0.825245 -0.564775 0.000000
vn 0.825245 -0.564775 0.000000
vn 0.825245 -0.564775 0.000000
vn 0.825245 -0.564775 0.000000
vn 1.000000 0.000000 0.000000
vn 1.000000 0.000000 0.000000
vn 1.000000 0.000000 0.000000
vn 1.000000 0.000000 0.000000
vn -0.000013 -0.000004 -1.000000
vn -0.000013 -0.000004 -1.000000
vn 0.000000 -1.000000 0.000000
vn 0.000000 -1.000000 0.000000
vn 0.000000 -1.000000 0.000000
vn 0.000000 -1.000000 0.000000
vn -0.000014 -0.000003 1.000000
vn -0.000014 -0.000003 1.000000
vn -0.991416 0.130744 -0.000002
vn -0.991416 0.130744 -0.000002
vn -0.991416 0.130744 -0.000002
vn -0.991416 0.130744 -0.000002
vn 0.000000 1.000000 -0.000000
vn 0.000000 1.000000 -0.000000
vn 0.000000 1.000000 -0.000000
vn 0.000000 1.000000 -0.000000
vn 0.991462 0.130395 0.000004
vn 0.991462 0.130395 0.000004
vn 0.991462 0.130395 0.000004
vn 0.991462 0.130395 0.000004
vn 0.000000 -1.000000 -0.000000
vn 0.000000 -1.000000 -0.000000
vn 0.000000 -1.000000 -0.000000
vn 0.000000 -1.000000 -0.000000
vn 0.000000 0.120672 -0.992692
vn 0.000000 0.120672 -0.992692
vn 0.000000 0.120672 -0.992692
vn 0.000000 0.120672 -0.992692
vn -0.000006 0.120698 0.992689
vn -0.000006 0.120698 0.992689
vn -0.000006 0.120698 0.992689
vn -0.000006 0.120698 0.992689
vn -0.781440 -0.623980 -0.000002
vn -0.781440 -0.623980 -0.000002
vn -0.781440 -0.623980 -0.000002
vn -0.781440 -0.623980 -0.000002
vn 0.000000 -0.701013 -0.713148
vn 0.000000 -0.701013 -0.713148
vn 0.000000 -0.701013 -0.713148
vn 0.000000 -0.701013 -0.713148
vn 0.781645 -0.623723 0.000003
vn 0.781645 -0.623723 0.000003
vn 0.781645 -0.623723 0.000003
vn 0.781645 -0.623723 0.000003
vn -0.000004 -0.700984 0.713177
vn -0.000004 -0.700984 0.713177
vn -0.000004 -0.700984 0.713177
vn -0.000004 -0.700984 0.713177
vn -1.000000 -0.000109 0.000004
vn -1.000000 -0.000109 0.000004
vn -1.000000 -0.000109 0.000004
vn -1.000000 -0.000109 0.000004
vn 0.000000 0.000027 -1.000000
vn 0.000000 0.000027 -1.000000
vn 0.000000 0.000027 -1.000000
vn 0.000000 0.000027 -1.000000
vn 1.000000 0.000000 0.000008
vn 1.000000 0.000000 0.000008
vn 1.000000 0.000000 0.000008
vn 1.000000 0.000000 0.000008
vn -0.000005 0.000000 1.000000
vn -0.000005 0.000000 1.000000
vn -0.000005 0.000000 1.000000
vn -0.000005 0.000000 1.000000
vn -0.999377 -0.035305 0.000000
vn -0.999377 -0.035305 0.000000
vn -0.999377 -0.035305 0.000000
vn -0.999377 -0.035305 0.000000
vn 0.000000 0.000000 -1.000000
vn 0.000000 0.000000 -1.000000
vn 0.000000 0.000000 -1.000000
vn 0.000000 0.000000 -1.000000
vn 1.000000 0.000000 0.000000
vn 1.000000 0.000000 0.000000
vn 1.000000 0.000000 0.000000
vn 1.000000 0.000000 0.000000
vn -0.000001 0.000000 1.000000
vn -0.000001 0.000000 1.000000
vn -0.000001 0.000000 1.000000
vn -0.000001 0.000000 1.000000
vn 0.000000 -1.000000 0.000000
vn 0.000000 -1.000000 0.000000
vn 0.000000 -1.000000 0.000000
vn 0.000000 -1.000000 0.000000
vn 0.042960 0.999077 0.000000
vn 0.042960 0.999077 0.000000
vn 0.042960 0.999077 0.000000
vn 0.042960 0.999077 0.000000
vn -0.999382 0.000000 -0.035152
vn -0.999382 0.000000 -0.035152
vn -0.999382 0.000000 -0.035152
vn -0.999382 0.000000 -0.035152
vn 0.000000 1.000000 -0.000001
vn 0.000000 1.000000 -0.000001
vn 0.000000 1.000000 -0.000001
vn 0.000000 1.000000 -0.000001
vn 1.000000 0.000000 0.000000
vn 1.000000 0.000000 0.000000
vn 1.000000 0.000000 0.000000
vn 1.000000 0.000000 0.000000
vn 0.000000 -1.000000 0.000000
vn 0.000000 -1.000000 0.000000
vn 0.000000 -1.000000 0.000000
vn 0.000000 -1.000000 0.000000
vn 0.000000 0.000000 -1.000000
vn 0.000000 0.000000 -1.000000
vn 0.000000 0.000000 -1.000000
vn 0.000000 0.000000 -1.000000
vn 0.042960 0.000000 0.999077
vn 0.042960 0.000000 0.999077
vn 0.042960 0.000000 0.999077
vn 0.042960 0.000000 0.999077
vn -0.999382 0.000000 0.035151
vn -0.999382 0.000000 0.035151
vn -0.999382 0.000000 0.035151
vn -0.999382 0.000000 0.035151
vn 0.000000 1.000000 -0.000001
vn 0.000000 1.000000 -0.000001
vn 0.000000 1.000000 -0.000001
vn 0.000000 1.000000 -0.000001
vn 1.000000 0.000000 0.000000
vn 1.000000 0.000000 0.000000
vn 1.000000 0.000000 0.000000
vn 1.000000 0.000000 0.000000
vn 0.000000 -1.000000 0.000000
vn 0.000000 -1.000000 0.000000
vn 0.000000 -1.000000 0.000000
vn 0.000000 -1.000000 0.000000
vn 0.042987 0.000000 -0.999076
vn 0.042987 0.000000 -0.999076
vn 0.042987 0.000000 -0.999076
vn 0.042987 0.000000 -0.999076
vn 0.000000 0.000000 1.000000
vn 0.000000 0.000000 1.000000
vn 0.000000 0.000000 1.000000
vn 0.000000 0.000000 1.000000
vn -0.999382 0.000000 -0.035152
vn -0.999382 0.000000 -0.035152
vn -0.999382 0.000000 -0.035152
vn -0.999382 0.000000 -0.035152
vn 0.000000 1.000000 -0.000000
vn 0.000000 1.000000 -0.000000
vn 0.000000 1.000000 -0.000000
vn 0.000000 1.000000 -0.000000
vn 1.000000 0.000000 0.000000
vn 1.000000 0.000000 0.000000
vn 1.000000 0.000000 0.000000
vn 1.000000 0.000000 0.000000
vn 0.000000 -1.000000 0.000000
vn 0.000000 -1.000000 0.000000
vn 0.000000 -1.000000 0.000000
vn 0.000000 -1.000000 0.000000
vn 0.000000 0.000000 -1.000000
vn 0.000000 0.000000 -1.000000
vn 0.000000 0.000000 -1.000000
vn 0.000000 0.000000 -1.000000
vn 0.042963 0.000000 0.999077
vn 0.042963 0.000000 0.999077
vn 0.042963 0.000000 0.999077
vn 0.042963 0.000000 0.999077
vn -0.999380 0.000000 0.035216
vn -0.999380 0.000000 0.035216
vn -0.999380 0.000000 0.035216
vn -0.999380 0.000000 0.035216
vn 0.000000 1.000000 -0.000000
vn 0.000000 1.000000 -0.000000
vn 0.000000 1.000000 -0.000000
vn 0.000000 1.000000 -0.000000
vn 1.000000 0.000000 0.000000
vn 1.000000 0.000000 0.000000
vn 1.000000 0.000000 0.000000
vn 1.000000 0.000000 0.000000
vn 0.000000 -1.000000 0.000000
vn 0.000000 -1.000000 0.000000
vn 0.000000 -1.000000 0.000000
vn 0.000000 -1.000000 0.000000
vn 0.042981 0.000000 -0.999076
vn 0.042981 0.000000 -0.999076
vn 0.042981 0.000000 -0.999076
vn 0.042981 0.000000 -0.999076
vn 0.000009 0.000000 1.000000
vn 0.000009 0.000000 1.000000
vn 0.000009 0.000000 1.000000
vn 0.000009 0.000000 1.000000
s off
g polySurface7742
f 1/1/1 3/2/2 4/3/3 2/4/4
f 13/5/5 16/6/6 15/7/7 14/8/8
f 5/9/9 7/10/10 8/11/11 6/12/12
f 7/13/13 1/14/14 2/15/15 8/16/16
f 2/4/17 4/3/18 6/12/19 8/11/20
f 7/10/21 5/9/22 3/2/23 1/1/24
f 3/2/25 9/17/26 10/18/27 4/3/28
f 4/3/29 10/18/30 11/19/31 6/12/32
f 6/12/33 11/19/34 12/20/35 5/9/36
f 5/9/37 12/20/38 9/17/39 3/2/40
f 9/17/41 13/21/42 14/22/43 10/18/44
f 10/18/45 14/22/46 15/23/47 11/19/48
f 11/19/49 15/23/50 16/24/51 12/20/52
f 12/20/53 16/24/54 13/21/55 9/17/56
f 24/25/57 25/26/58 20/27/59 18/28/60
f 18/29/61 17/30/62 23/31/63 24/32/64
f 17/33/65 19/34/66 28/35/67 23/36/68
f 26/37/69 21/38/70 20/39/71 25/40/72
f 21/41/73 26/42/74 27/43/75 22/44/76
f 22/45/77 27/46/78 28/47/79 19/48/80
f 29/49/81 30/52/82 32/51/83 31/50/84
f 41/53/85 42/56/86 43/55/87 44/54/88
f 33/57/89 34/60/90 36/59/91 35/58/92
f 35/61/93 36/64/94 30/63/95 29/62/96
f 30/52/97 36/59/98 34/60/99 32/51/100
f 35/58/101 29/49/102 31/50/103 33/57/104
f 31/50/105 32/51/106 38/66/107 37/65/108
f 32/51/109 34/60/110 39/67/111 38/66/112
f 34/60/113 33/57/114 40/68/115 39/67/116
f 33/57/117 31/50/118 37/65/119 40/68/120
f 37/65/121 38/66/122 42/70/123 41/69/124
f 38/66/125 39/67/126 43/71/127 42/70/128
f 39/67/129 40/68/130 44/72/131 43/71/132
f 40/68/133 37/65/134 41/69/135 44/72/136
f 45/73/137 46/74/138 48/75/139 47/76/140
s 36
f 48/77/141 50/78/142 49/79/143 47/80/144
s 37
f 51/81/145 46/82/146 45/83/147 52/84/148
s off
f 53/85/149 54/86/150 55/87/151 56/88/152
f 52/89/153 45/73/154 47/76/155 49/90/156
s 37
f 51/81/145 52/84/148 54/91/157 53/92/158
s off
f 52/89/159 49/90/160 55/87/161 54/86/162
s 36
f 49/79/143 50/78/142 56/93/163 55/94/164
s off
f 57/95/165 59/96/166 60/97/167 58/98/168
s 42
f 60/99/169 59/100/170 61/101/171 62/102/172
s 43
f 63/103/173 64/104/174 57/105/175 58/106/176
s off
f 65/107/177 68/108/178 67/109/179 66/110/180
f 64/111/181 61/112/182 59/96/183 57/95/184
s 43
f 63/103/173 65/113/185 66/114/186 64/104/174
s off
f 64/111/187 66/110/188 67/109/189 61/112/190
s 42
f 61/101/171 67/115/191 68/116/192 62/102/172
s off
f 69/117/193 70/118/194 72/119/195 71/120/196
s 48
f 72/121/197 74/122/198 73/123/199 71/124/200
s 49
f 75/125/201 70/126/202 69/127/203 76/128/204
s off
f 77/129/205 78/130/206 79/131/207 80/132/208
f 76/133/209 69/117/210 71/120/211 73/134/212
s 49
f 75/125/201 76/128/204 78/135/213 77/136/214
s off
f 76/133/215 73/134/216 79/131/217 78/130/218
s 48
f 73/123/199 74/122/198 80/137/219 79/138/220
s off
f 81/139/221 82/140/222 84/141/223 83/142/224
s 54
f 84/143/225 86/144/226 85/145/227 83/146/228
s 55
f 87/147/229 82/148/230 81/149/231 88/150/232
s off
f 89/151/233 90/152/234 91/153/235 92/154/236
f 88/155/237 81/139/238 83/142/239 85/156/240
s 55
f 87/147/229 88/150/232 90/157/241 89/158/242
s off
f 88/155/243 85/156/244 91/153/245 90/152/246
s 54
f 85/145/227 86/144/226 92/159/247 91/160/248
s off
f 93/161/249 94/162/250 96/163/251 95/164/252
f 95/165/253 96/166/254 98/167/255 97/168/256
f 97/169/257 98/170/258 100/171/259 99/172/260
f 99/173/261 100/174/262 94/175/263 93/176/264
f 94/177/265 100/178/266 98/179/267 96/180/268
f 99/181/269 93/182/270 95/183/271 97/184/272
f 101/185/273 102/186/274 104/187/275 103/188/276
f 103/189/277 104/190/278 106/191/279 105/192/280
f 105/193/281 106/194/282 108/195/283 107/196/284
f 107/197/285 108/198/286 102/199/287 101/200/288
f 102/201/289 108/202/290 106/203/291 104/204/292
f 107/205/293 101/206/294 103/207/295 105/208/296
f 109/209/297 110/210/298 112/211/299 111/212/300
f 121/213/301 122/214/302 123/215/303 124/216/304
f 113/217/305 114/218/306 116/219/307 115/220/308
f 115/221/309 116/222/310 110/223/311 109/224/312
f 110/210/313 116/219/314 114/218/315 112/211/316
f 115/220/317 109/209/318 111/212/319 113/217/320
f 111/212/321 112/211/322 118/225/323 117/226/324
f 112/211/325 114/218/326 119/227/327 118/225/328
f 114/218/329 113/217/330 120/228/331 119/227/332
f 113/217/333 111/212/334 117/226/335 120/228/336
f 117/226/337 118/225/338 122/229/339 121/230/340
f 118/225/341 119/227/342 123/231/343 122/229/344
f 119/227/345 120/228/346 124/232/347 123/231/348
f 120/228/349 117/226/350 121/230/351 124/232/352
f 125/233/353 127/236/354 128/235/355 126/234/356
s 86
f 128/237/357 127/240/358 129/239/359 130/238/360
s 87
f 131/241/361 132/244/362 125/243/363 126/242/364
s off
f 133/245/365 136/248/366 135/247/367 134/246/368
f 132/249/369 129/250/370 127/236/371 125/233/372
s 87
f 131/241/361 133/252/373 134/251/374 132/244/362
s off
f 132/249/375 134/246/376 135/247/377 129/250/378
s 86
f 129/239/359 135/254/379 136/253/380 130/238/360
s off
f 137/255/381 138/258/382 140/257/383 139/256/384
s 92
f 140/259/385 142/262/386 141/261/387 139/260/388
s 93
f 143/263/389 138/266/390 137/265/391 144/264/392
s off
f 145/267/393 146/270/394 147/269/395 148/268/396
f 144/271/397 137/255/398 139/256/399 141/272/400
s 93
f 143/263/389 144/264/392 146/274/401 145/273/402
s off
f 144/271/403 141/272/404 147/269/405 146/270/406
s 92
f 141/261/387 142/262/386 148/276/407 147/275/408
s off
f 149/277/409 151/280/410 152/279/411 150/278/412
s 98
f 152/281/413 151/284/414 153/283/415 154/282/416
s 99
f 155/285/417 156/288/418 149/287/419 150/286/420
s off
f 157/289/421 160/292/422 159/291/423 158/290/424
f 156/293/425 153/294/426 151/280/427 149/277/428
s 99
f 155/285/417 157/296/429 158/295/430 156/288/418
s off
f 156/293/431 158/290/432 159/291/433 153/294/434
s 98
f 153/283/415 159/298/435 160/297/436 154/282/416
s off
f 161/299/437 163/302/438 164/301/439 162/300/440
s 104
f 164/303/441 163/306/442 165/305/443 166/304/444
s 105
f 167/307/445 168/310/446 161/309/447 162/308/448
s off
f 169/311/449 172/314/450 171/313/451 170/312/452
f 168/315/453 165/316/454 163/302/455 161/299/456
s 105
f 167/307/445 169/318/457 170/317/458 168/310/446
s off
f 168/315/459 170/312/460 171/313/461 165/316/462
s 104
f 165/305/443 171/320/463 172/319/464 166/304/444
s off
f 173/321/465 175/324/466 176/323/467 174/322/468
f 185/325/469 188/328/470 187/327/471 186/326/472
f 177/329/473 179/332/474 180/331/475 178/330/476
f 179/333/477 173/336/478 174/335/479 180/334/480
f 174/322/481 176/323/482 178/330/483 180/331/484
f 179/332/485 177/329/486 175/324/487 173/321/488
f 175/324/489 181/338/490 182/337/491 176/323/492
f 176/323/493 182/337/494 183/339/495 178/330/496
f 178/330/497 183/339/498 184/340/499 177/329/500
f 177/329/501 184/340/502 181/338/503 175/324/504
f 181/338/505 185/342/506 186/341/507 182/337/508
f 182/337/509 186/341/510 187/343/511 183/339/512
f 183/339/513 187/343/514 188/344/515 184/340/516
f 184/340/517 188/344/518 185/342/519 181/338/520
f 189/345/521 191/348/522 192/347/523 190/346/524
f 191/349/525 193/352/526 194/351/527 192/350/528
f 193/353/529 195/356/530 196/355/531 194/354/532
f 195/357/533 189/360/534 190/359/535 196/358/536
f 190/361/537 192/364/538 194/363/539 196/362/540
f 195/365/541 193/368/542 191/367/543 189/366/544
f 197/369/545 199/370/546 200/371/547 198/372/548
f 199/373/549 201/374/550 202/375/551 200/376/552
f 201/377/553 203/378/554 204/379/555 202/380/556
f 203/381/557 197/382/558 198/383/559 204/384/560
f 198/385/561 200/386/562 202/387/563 204/388/564
f 203/389/565 201/390/566 199/391/567 197/392/568
f 205/393/569 207/394/570 208/395/571 206/396/572
f 207/397/573 209/398/574 210/399/575 208/400/576
f 209/401/577 211/402/578 212/403/579 210/404/580
f 211/405/581 205/406/582 206/407/583 212/408/584
f 206/409/585 208/410/586 210/411/587 212/412/588
f 211/413/589 209/414/590 207/415/591 205/416/592
f 213/417/593 215/418/594 216/419/595 214/420/596
f 215/421/597 217/422/598 218/423/599 216/424/600
f 217/425/601 219/426/602 220/427/603 218/428/604
f 219/429/605 213/430/606 214/431/607 220/432/608
f 214/433/609 216/434/610 218/435/611 220/436/612
f 219/437/613 217/438/614 215/439/615 213/440/616
f 221/441/617 223/442/618 224/443/619 222/444/620
f 223/445/621 225/446/622 226/447/623 224/448/624
f 225/449/625 227/450/626 228/451/627 226/452/628
f 227/453/629 221/454/630 222/455/631 228/456/632
f 222/457/633 224/458/634 226/459/635 228/460/636
f 227/461/637 225/462/638 223/463/639 221/464/640
