# This file uses centimeters as units for non-parametric coordinates.

g default
v -40.891052 0.455974 0.170628
v -39.373737 0.455974 0.170628
v -40.888153 0.479834 0.167491
v -39.376640 0.479834 0.167491
v -40.888153 0.479834 -0.167490
v -39.376640 0.479834 -0.167490
v -40.891052 0.455974 -0.170628
v -39.373737 0.455974 -0.170628
v -40.903603 0.495553 0.180039
v -39.361191 0.495553 0.180039
v -39.361191 0.495553 -0.180039
v -40.903603 0.495553 -0.180039
v -40.903603 0.533828 0.180039
v -39.361191 0.533828 0.180039
v -39.361191 0.533828 -0.180039
v -40.903603 0.533828 -0.180039
v -40.784767 0.342229 0.142979
v -40.825668 0.322286 0.142979
v -40.784767 0.342229 0.116229
v -40.825668 0.322286 0.116229
v -40.784767 0.420426 0.116229
v -40.825668 0.457481 0.116229
v -40.825668 0.457481 0.142979
v -40.784767 0.420426 0.142979
v -40.620766 0.457481 0.142979
v -40.646126 0.420426 0.142979
v -40.646126 0.420426 0.116229
v -40.620766 0.457481 0.116229
v -39.493843 0.342229 0.142979
v -39.452942 0.322286 0.142979
v -39.493843 0.342229 0.116229
v -39.452942 0.322286 0.116229
v -39.493843 0.420426 0.116229
v -39.452942 0.457481 0.116229
v -39.452942 0.457481 0.142979
v -39.493843 0.420426 0.142979
v -39.657845 0.457481 0.142979
v -39.632484 0.420426 0.142979
v -39.632484 0.420426 0.116229
v -39.657845 0.457481 0.116229
v -39.493843 0.342229 -0.114434
v -39.452942 0.322286 -0.114434
v -39.493843 0.342229 -0.141184
v -39.452942 0.322286 -0.141184
v -39.493843 0.420426 -0.141184
v -39.452942 0.457481 -0.141184
v -39.452942 0.457481 -0.114434
v -39.493843 0.420426 -0.114434
v -39.657845 0.457481 -0.114434
v -39.632484 0.420426 -0.114434
v -39.632484 0.420426 -0.141184
v -39.657845 0.457481 -0.141184
v -40.784767 0.342229 -0.114434
v -40.825668 0.322286 -0.114434
v -40.784767 0.342229 -0.141184
v -40.825668 0.322286 -0.141184
v -40.784767 0.420426 -0.141184
v -40.825668 0.457481 -0.141184
v -40.825668 0.457481 -0.114434
v -40.784767 0.420426 -0.114434
v -40.620766 0.457481 -0.114434
v -40.646126 0.420426 -0.114434
v -40.646126 0.420426 -0.141184
v -40.620766 0.457481 -0.141184
v -39.458466 0.150300 0.158343
v -39.395100 0.150300 0.160575
v -39.458466 0.150300 0.097209
v -39.397827 0.150300 0.097209
v -39.458466 0.150300 -0.098837
v -39.397827 0.150300 -0.098837
v -39.458466 0.150300 -0.159972
v -39.395100 0.150300 -0.162203
v -40.884422 0.150300 0.160575
v -40.821060 0.150300 0.158343
v -40.881699 0.150300 0.097209
v -40.821060 0.150300 0.097209
v -40.881699 0.150300 -0.098837
v -40.821060 0.150300 -0.098837
v -40.884422 0.150300 -0.162203
v -40.821060 0.150300 -0.159972
v -40.884422 0.516132 0.160575
v -40.881699 0.516132 0.097209
v -40.821060 0.516132 0.097209
v -40.821060 0.516132 0.158343
v -40.821060 0.520401 -0.098837
v -40.881699 0.520401 -0.098837
v -40.884422 0.520401 -0.162203
v -40.821060 0.520401 -0.159972
v -39.458466 0.513237 -0.098837
v -39.458466 0.513237 -0.159972
v -39.395100 0.513237 -0.162203
v -39.397827 0.513237 -0.098837
v -39.397827 0.512015 0.097209
v -39.458466 0.512015 0.097209
v -39.458466 0.512015 0.158343
v -39.395100 0.512015 0.160575
vt 0.050470 0.468783
vt 1.270579 0.468948
vt 1.270438 0.494953
vt 0.054574 0.494800
vt 0.692650 0.305459
vt 1.258664 0.305464
vt 1.258663 0.403687
vt 0.692648 0.403691
vt 0.256194 0.494623
vt 1.472705 0.494730
vt 1.476446 0.468716
vt 0.256363 0.468547
vt 0.696809 0.395817
vt 1.254501 0.395812
vt 1.254502 0.303150
vt 0.696812 0.303145
vt 1.274058 0.512374
vt 0.035800 0.512243
vt 1.491855 0.512189
vt 0.254089 0.511895
vt 1.274219 0.555241
vt 0.035897 0.555267
vt 1.492310 0.555227
vt 0.254088 0.555397
vt -0.005952 0.358312
vt -0.061185 0.358312
vt -0.061185 0.340568
vt -0.005952 0.340568
vt 0.031531 0.244391
vt 0.031531 0.330296
vt 0.058079 0.306751
vt 0.058079 0.257063
vt 0.031531 0.330296
vt 0.031531 0.244391
vt 0.058079 0.257063
vt 0.058079 0.306751
vt 0.240623 0.358312
vt 0.188794 0.358312
vt 0.188794 0.340568
vt 0.240623 0.340568
vt 0.049739 0.358312
vt 0.049739 0.340568
vt 0.148057 0.306751
vt 0.164517 0.330296
vt 0.164517 0.330296
vt 0.148057 0.306751
vt -0.005952 0.358312
vt -0.005952 0.340568
vt -0.061185 0.340568
vt -0.061185 0.358312
vt 0.031531 0.244391
vt 0.058079 0.257063
vt 0.058079 0.306751
vt 0.031531 0.330296
vt 0.031531 0.330296
vt 0.058079 0.306751
vt 0.058079 0.257063
vt 0.031531 0.244391
vt 0.240623 0.358312
vt 0.240623 0.340568
vt 0.188794 0.340568
vt 0.188794 0.358312
vt 0.049739 0.358312
vt 0.049739 0.340568
vt 0.164517 0.330296
vt 0.148057 0.306751
vt 0.148057 0.306751
vt 0.164517 0.330296
vt -0.005952 0.358312
vt -0.005952 0.340568
vt -0.061185 0.340568
vt -0.061185 0.358312
vt 0.031531 0.244391
vt 0.058079 0.257063
vt 0.058079 0.306751
vt 0.031531 0.330296
vt 0.031531 0.330296
vt 0.058079 0.306751
vt 0.058079 0.257063
vt 0.031531 0.244391
vt 0.240623 0.358312
vt 0.240623 0.340568
vt 0.188794 0.340568
vt 0.188794 0.358312
vt 0.049739 0.358312
vt 0.049739 0.340568
vt 0.164517 0.330296
vt 0.148057 0.306751
vt 0.148057 0.306751
vt 0.164517 0.330296
vt -0.005952 0.358312
vt -0.061185 0.358312
vt -0.061185 0.340568
vt -0.005952 0.340568
vt 0.031531 0.244391
vt 0.031531 0.330296
vt 0.058079 0.306751
vt 0.058079 0.257063
vt 0.031531 0.330296
vt 0.031531 0.244391
vt 0.058079 0.257063
vt 0.058079 0.306751
vt 0.240623 0.358312
vt 0.188794 0.358312
vt 0.188794 0.340568
vt 0.240623 0.340568
vt 0.049739 0.358312
vt 0.049739 0.340568
vt 0.148057 0.306751
vt 0.164517 0.330296
vt 0.164517 0.330296
vt 0.148057 0.306751
vt 1.547970 0.063951
vt 1.547970 0.006710
vt 1.547970 0.066671
vt 1.547970 0.126302
vt 0.238200 0.333005
vt 0.287659 0.333005
vt 0.287659 0.283143
vt 0.235977 0.281323
vt 1.547970 0.006710
vt 1.547970 0.066671
vt 1.547970 0.127093
vt 1.547970 0.063951
vt 1.547970 0.063951
vt 1.547970 0.006710
vt 1.547970 0.066671
vt 1.547970 0.126302
vt 0.238200 0.333005
vt 0.287659 0.333005
vt 0.287659 0.283143
vt 0.235977 0.281323
vt 1.547970 0.006710
vt 1.547970 0.066671
vt 1.547970 0.127093
vt 1.547970 0.063951
vt 1.547970 0.063951
vt 1.547970 0.006710
vt 1.547970 0.066671
vt 1.547970 0.126302
vt 0.238200 0.333005
vt 0.287659 0.333005
vt 0.287659 0.283143
vt 0.235977 0.281323
vt 1.547970 0.006710
vt 1.547970 0.066671
vt 1.547970 0.127093
vt 1.547970 0.063951
vt 1.547970 0.063951
vt 1.547970 0.006710
vt 1.547970 0.066671
vt 1.547970 0.126302
vt 0.238200 0.333005
vt 0.287659 0.333005
vt 0.287659 0.283143
vt 0.235977 0.281323
vt 1.547970 0.006710
vt 1.547970 0.066671
vt 1.547970 0.127093
vt 1.547970 0.063951
vt 1.157427 0.063986
vt 1.157427 0.063920
vt 1.157427 0.127059
vt 1.157427 0.126267
vt 1.157427 0.066707
vt 1.157427 0.066636
vt 1.157427 0.006741
vt 1.157427 0.006745
vt 1.153379 0.006745
vt 1.153379 0.006746
vt 1.153379 0.063986
vt 1.153379 0.063917
vt 1.153379 0.127058
vt 1.153379 0.126269
vt 1.153379 0.066704
vt 1.153379 0.066635
vt 1.160172 0.063988
vt 1.160172 0.063917
vt 1.160172 0.127056
vt 1.160172 0.126270
vt 1.160172 0.066703
vt 1.160172 0.066638
vt 1.160172 0.006744
vt 1.160172 0.006743
vt 1.161330 0.066706
vt 1.161330 0.066638
vt 1.161330 0.127057
vt 1.161330 0.126267
vt 1.161330 0.063988
vt 1.161330 0.063920
vt 1.161330 0.006741
vt 1.161330 0.006743
vn 0.000000 0.130375 0.991465
vn 0.000000 0.130375 0.991465
vn 0.000000 0.130375 0.991465
vn 0.000000 0.130375 0.991465
vn 0.000000 1.000000 0.000000
vn 0.000000 1.000000 0.000000
vn 0.000000 1.000000 0.000000
vn 0.000000 1.000000 0.000000
vn 0.000000 0.130365 -0.991466
vn 0.000000 0.130365 -0.991466
vn 0.000000 0.130365 -0.991466
vn 0.000000 0.130365 -0.991466
vn 0.000000 -1.000000 0.000000
vn 0.000000 -1.000000 0.000000
vn 0.000000 -1.000000 0.000000
vn 0.000000 -1.000000 0.000000
vn 0.992678 0.120791 0.000000
vn 0.992678 0.120791 0.000000
vn 0.992678 0.120791 0.000000
vn 0.992678 0.120791 0.000000
vn -0.992691 0.120681 0.000000
vn -0.992691 0.120681 0.000000
vn -0.992691 0.120681 0.000000
vn -0.992691 0.120681 0.000000
vn 0.000000 -0.623902 0.781502
vn 0.000000 -0.623902 0.781502
vn 0.000000 -0.623902 0.781502
vn 0.000000 -0.623902 0.781502
vn 0.713163 -0.700998 0.000000
vn 0.713163 -0.700998 0.000000
vn 0.713163 -0.700998 0.000000
vn 0.713163 -0.700998 0.000000
vn 0.000000 -0.623910 -0.781496
vn 0.000000 -0.623910 -0.781496
vn 0.000000 -0.623910 -0.781496
vn 0.000000 -0.623910 -0.781496
vn -0.713124 -0.701038 0.000000
vn -0.713124 -0.701038 0.000000
vn -0.713124 -0.701038 0.000000
vn -0.713124 -0.701038 0.000000
vn 0.000000 0.000000 1.000000
vn 0.000000 0.000000 1.000000
vn 0.000000 0.000000 1.000000
vn 0.000000 0.000000 1.000000
vn 1.000000 0.000000 0.000000
vn 1.000000 0.000000 0.000000
vn 1.000000 0.000000 0.000000
vn 1.000000 0.000000 0.000000
vn 0.000000 0.000000 -1.000000
vn 0.000000 0.000000 -1.000000
vn 0.000000 0.000000 -1.000000
vn 0.000000 0.000000 -1.000000
vn -1.000000 0.000000 0.000000
vn -1.000000 0.000000 0.000000
vn -1.000000 0.000000 0.000000
vn -1.000000 0.000000 0.000000
vn 0.438276 -0.898840 0.000000
vn 0.438276 -0.898840 0.000000
vn 0.438276 -0.898840 0.000000
vn 0.438276 -0.898840 0.000000
vn 0.000000 0.000000 -1.000000
vn 0.000000 0.000000 -1.000000
vn 0.000000 0.000000 -1.000000
vn 0.000000 0.000000 -1.000000
vn -0.000000 0.000000 1.000000
vn -0.000000 0.000000 1.000000
vn -0.000000 0.000000 1.000000
vn -0.000000 0.000000 1.000000
vn 0.825231 -0.564796 0.000000
vn 0.825231 -0.564796 0.000000
vn 0.825231 -0.564796 0.000000
vn 0.825231 -0.564796 0.000000
vn 1.000000 0.000000 0.000000
vn 1.000000 0.000000 0.000000
vn 1.000000 0.000000 0.000000
vn 1.000000 0.000000 0.000000
vn 0.000000 0.000000 1.000000
vn 0.000000 0.000000 1.000000
vn 0.000000 -1.000000 0.000000
vn 0.000000 -1.000000 0.000000
vn 0.000000 -1.000000 0.000000
vn 0.000000 -1.000000 0.000000
vn 0.000000 0.000000 -1.000000
vn 0.000000 0.000000 -1.000000
vn -0.438276 -0.898840 0.000000
vn -0.438276 -0.898840 0.000000
vn -0.438276 -0.898840 0.000000
vn -0.438276 -0.898840 0.000000
vn 0.000000 0.000000 -1.000000
vn 0.000000 0.000000 -1.000000
vn 0.000000 0.000000 -1.000000
vn 0.000000 0.000000 -1.000000
vn 0.000000 0.000000 1.000000
vn 0.000000 0.000000 1.000000
vn 0.000000 0.000000 1.000000
vn 0.000000 0.000000 1.000000
vn -0.825277 -0.564728 0.000000
vn -0.825277 -0.564728 0.000000
vn -0.825277 -0.564728 0.000000
vn -0.825277 -0.564728 0.000000
vn -1.000000 0.000000 0.000000
vn -1.000000 0.000000 0.000000
vn -1.000000 0.000000 0.000000
vn -1.000000 0.000000 0.000000
vn 0.000000 0.000000 1.000000
vn 0.000000 0.000000 1.000000
vn 0.000000 -1.000000 0.000000
vn 0.000000 -1.000000 0.000000
vn 0.000000 -1.000000 0.000000
vn 0.000000 -1.000000 0.000000
vn 0.000000 0.000000 -1.000000
vn 0.000000 0.000000 -1.000000
vn -0.438273 -0.898842 0.000000
vn -0.438273 -0.898842 0.000000
vn -0.438273 -0.898842 0.000000
vn -0.438273 -0.898842 0.000000
vn 0.000000 0.000000 -1.000000
vn 0.000000 0.000000 -1.000000
vn 0.000000 0.000000 -1.000000
vn 0.000000 0.000000 -1.000000
vn -0.000000 0.000000 1.000000
vn -0.000000 0.000000 1.000000
vn -0.000000 0.000000 1.000000
vn -0.000000 0.000000 1.000000
vn -0.825229 -0.564799 0.000000
vn -0.825229 -0.564799 0.000000
vn -0.825229 -0.564799 0.000000
vn -0.825229 -0.564799 0.000000
vn -1.000000 0.000000 0.000000
vn -1.000000 0.000000 0.000000
vn -1.000000 0.000000 0.000000
vn -1.000000 0.000000 0.000000
vn 0.000000 0.000000 1.000000
vn 0.000000 0.000000 1.000000
vn 0.000000 -1.000000 0.000000
vn 0.000000 -1.000000 0.000000
vn 0.000000 -1.000000 0.000000
vn 0.000000 -1.000000 0.000000
vn 0.000000 0.000000 -1.000000
vn 0.000000 0.000000 -1.000000
vn 0.438273 -0.898842 0.000000
vn 0.438273 -0.898842 0.000000
vn 0.438273 -0.898842 0.000000
vn 0.438273 -0.898842 0.000000
vn 0.000000 0.000000 -1.000000
vn 0.000000 0.000000 -1.000000
vn 0.000000 0.000000 -1.000000
vn 0.000000 0.000000 -1.000000
vn 0.000000 0.000000 1.000000
vn 0.000000 0.000000 1.000000
vn 0.000000 0.000000 1.000000
vn 0.000000 0.000000 1.000000
vn 0.825275 -0.564732 0.000000
vn 0.825275 -0.564732 0.000000
vn 0.825275 -0.564732 0.000000
vn 0.825275 -0.564732 0.000000
vn 1.000000 0.000000 0.000000
vn 1.000000 0.000000 0.000000
vn 1.000000 0.000000 0.000000
vn 1.000000 0.000000 0.000000
vn 0.000000 0.000000 1.000000
vn 0.000000 0.000000 1.000000
vn 0.000000 -1.000000 0.000000
vn 0.000000 -1.000000 0.000000
vn 0.000000 -1.000000 0.000000
vn 0.000000 -1.000000 0.000000
vn 0.000000 0.000000 -1.000000
vn 0.000000 0.000000 -1.000000
vn 0.000000 -1.000000 -0.000000
vn 0.000000 -1.000000 -0.000000
vn 0.000000 -1.000000 -0.000000
vn 0.000000 -1.000000 -0.000000
vn 0.000000 0.000000 1.000000
vn 0.000000 0.000000 1.000000
vn 0.000000 0.000000 1.000000
vn 0.000000 0.000000 1.000000
vn -0.035192 0.000000 -0.999381
vn -0.035192 0.000000 -0.999381
vn -0.035192 0.000000 -0.999381
vn -0.035192 0.000000 -0.999381
vn 0.000000 -1.000000 0.000000
vn 0.000000 -1.000000 0.000000
vn 0.000000 -1.000000 0.000000
vn 0.000000 -1.000000 0.000000
vn 0.999075 0.000000 0.043004
vn 0.999075 0.000000 0.043004
vn 0.999075 0.000000 0.043004
vn 0.999075 0.000000 0.043004
vn -1.000000 0.000000 0.000000
vn -1.000000 0.000000 0.000000
vn -1.000000 0.000000 0.000000
vn -1.000000 0.000000 0.000000
vn 0.035198 0.000000 0.999380
vn 0.035198 0.000000 0.999380
vn 0.035198 0.000000 0.999380
vn 0.035198 0.000000 0.999380
vn 0.000000 0.000000 -1.000000
vn 0.000000 0.000000 -1.000000
vn 0.000000 0.000000 -1.000000
vn 0.000000 0.000000 -1.000000
vn 0.000000 -1.000000 -0.000000
vn 0.000000 -1.000000 -0.000000
vn 0.000000 -1.000000 -0.000000
vn 0.000000 -1.000000 -0.000000
vn 1.000000 0.000000 0.000000
vn 1.000000 0.000000 0.000000
vn 1.000000 0.000000 0.000000
vn 1.000000 0.000000 0.000000
vn -0.999078 0.000000 -0.042944
vn -0.999078 0.000000 -0.042944
vn -0.999078 0.000000 -0.042944
vn -0.999078 0.000000 -0.042944
vn 0.000000 0.000000 1.000000
vn 0.000000 0.000000 1.000000
vn 0.000000 0.000000 1.000000
vn 0.000000 0.000000 1.000000
vn 0.035194 0.000000 -0.999381
vn 0.035194 0.000000 -0.999381
vn 0.035194 0.000000 -0.999381
vn 0.035194 0.000000 -0.999381
vn 0.000000 -1.000000 0.000000
vn 0.000000 -1.000000 0.000000
vn 0.000000 -1.000000 0.000000
vn 0.000000 -1.000000 0.000000
vn 1.000000 0.000000 0.000000
vn 1.000000 0.000000 0.000000
vn 1.000000 0.000000 0.000000
vn 1.000000 0.000000 0.000000
vn -0.999078 0.000000 0.042944
vn -0.999078 0.000000 0.042944
vn -0.999078 0.000000 0.042944
vn -0.999078 0.000000 0.042944
vn 0.000000 0.000000 -1.000000
vn 0.000000 0.000000 -1.000000
vn 0.000000 0.000000 -1.000000
vn 0.000000 0.000000 -1.000000
vn -1.000000 0.000000 0.000000
vn -1.000000 0.000000 0.000000
vn -1.000000 0.000000 0.000000
vn -1.000000 0.000000 0.000000
vn -0.035196 0.000000 0.999381
vn -0.035196 0.000000 0.999381
vn -0.035196 0.000000 0.999381
vn -0.035196 0.000000 0.999381
vn 0.999075 0.000000 -0.043004
vn 0.999075 0.000000 -0.043004
vn 0.999075 0.000000 -0.043004
vn 0.999075 0.000000 -0.043004
s off
g polySurface7779
f 1/1/1 2/2/2 4/3/3 3/4/4
f 13/5/5 14/6/6 15/7/7 16/8/8
f 5/9/9 6/10/10 8/11/11 7/12/12
f 7/13/13 8/14/14 2/15/15 1/16/16
f 2/2/17 8/11/18 6/10/19 4/3/20
f 7/12/21 1/1/22 3/4/23 5/9/24
f 3/4/25 4/3/26 10/17/27 9/18/28
f 4/3/29 6/10/30 11/19/31 10/17/32
f 6/10/33 5/9/34 12/20/35 11/19/36
f 5/9/37 3/4/38 9/18/39 12/20/40
f 9/18/41 10/17/42 14/21/43 13/22/44
f 10/17/45 11/19/46 15/23/47 14/21/48
f 11/19/49 12/20/50 16/24/51 15/23/52
f 12/20/53 9/18/54 13/22/55 16/24/56
f 17/25/57 18/26/58 20/27/59 19/28/60
s 16
f 20/29/61 22/30/62 21/31/63 19/32/64
s 17
f 23/33/65 18/34/66 17/35/67 24/36/68
s off
f 25/37/69 26/38/70 27/39/71 28/40/72
f 24/41/73 17/25/74 19/28/75 21/42/76
s 17
f 23/33/65 24/36/68 26/43/77 25/44/78
s off
f 24/41/79 21/42/80 27/39/81 26/38/82
s 16
f 21/31/63 22/30/62 28/45/83 27/46/84
s off
f 29/47/85 31/48/86 32/49/87 30/50/88
s 22
f 32/51/89 31/52/90 33/53/91 34/54/92
s 23
f 35/55/93 36/56/94 29/57/95 30/58/96
s off
f 37/59/97 40/60/98 39/61/99 38/62/100
f 36/63/101 33/64/102 31/48/103 29/47/104
s 23
f 35/55/93 37/65/105 38/66/106 36/56/94
s off
f 36/63/107 38/62/108 39/61/109 33/64/110
s 22
f 33/53/91 39/67/111 40/68/112 34/54/92
s off
f 41/69/113 43/70/114 44/71/115 42/72/116
s 28
f 44/73/117 43/74/118 45/75/119 46/76/120
s 29
f 47/77/121 48/78/122 41/79/123 42/80/124
s off
f 49/81/125 52/82/126 51/83/127 50/84/128
f 48/85/129 45/86/130 43/70/131 41/69/132
s 29
f 47/77/121 49/87/133 50/88/134 48/78/122
s off
f 48/85/135 50/84/136 51/83/137 45/86/138
s 28
f 45/75/119 51/89/139 52/90/140 46/76/120
s off
f 53/91/141 54/92/142 56/93/143 55/94/144
s 34
f 56/95/145 58/96/146 57/97/147 55/98/148
s 35
f 59/99/149 54/100/150 53/101/151 60/102/152
s off
f 61/103/153 62/104/154 63/105/155 64/106/156
f 60/107/157 53/91/158 55/94/159 57/108/160
s 35
f 59/99/149 60/102/152 62/109/161 61/110/162
s off
f 60/107/163 57/108/164 63/105/165 62/104/166
s 34
f 57/97/147 58/96/146 64/111/167 63/112/168
s off
f 67/117/169 68/118/170 66/119/171 65/120/172
f 69/125/173 70/126/174 92/183/175 89/178/176
f 90/180/177 91/181/178 72/127/179 71/128/180
f 71/129/181 72/130/182 70/131/183 69/132/184
f 70/133/185 72/134/186 91/182/187 92/184/188
f 71/135/189 69/136/190 89/177/191 90/179/192
f 73/137/193 74/138/194 84/167/195 81/162/196
f 82/164/197 83/165/198 76/139/199 75/140/200
f 75/141/201 76/142/202 74/143/203 73/144/204
f 74/145/205 76/146/206 83/166/207 84/168/208
f 75/147/209 73/148/210 81/161/211 82/163/212
f 77/149/213 78/150/214 85/169/215 86/172/216
f 87/174/217 88/175/218 80/151/219 79/152/220
f 79/153/221 80/154/222 78/155/223 77/156/224
f 78/157/225 80/158/226 88/176/227 85/170/228
f 79/159/229 77/160/230 86/171/231 87/173/232
f 94/188/233 93/185/234 68/115/235 67/116/236
f 67/123/237 65/124/238 95/189/239 94/187/240
f 65/113/241 66/114/242 96/191/243 95/190/244
f 66/121/245 68/122/246 93/186/247 96/192/248
