# This file uses centimeters as units for non-parametric coordinates.

g default
v -36.144363 0.002013 0.253599
v -36.085793 0.002013 0.251536
v -36.144363 2.097745 0.253599
v -36.085793 2.097745 0.251536
v -36.141838 2.097745 0.195033
v -36.085793 2.097745 0.195033
v -36.141838 0.002013 0.195033
v -36.085793 0.002013 0.195033
v -36.141838 0.002013 -0.195034
v -36.085793 0.002013 -0.195034
v -36.141838 2.097745 -0.195034
v -36.085793 2.097745 -0.195034
v -36.144363 2.097745 -0.253599
v -36.085793 2.097745 -0.251536
v -36.144363 0.002013 -0.253599
v -36.085793 0.002013 -0.251536
v -35.247093 0.002013 0.251536
v -35.188530 0.002013 0.253599
v -35.247093 2.097745 0.251536
v -35.188530 2.097745 0.253599
v -35.247093 2.097745 0.195033
v -35.191048 2.097745 0.195033
v -35.247093 0.002013 0.195033
v -35.191048 0.002013 0.195033
v -35.247093 0.002013 -0.195034
v -35.191048 0.002013 -0.195034
v -35.247093 2.097745 -0.195034
v -35.191048 2.097745 -0.195034
v -35.247093 2.097745 -0.251536
v -35.188530 2.097745 -0.253599
v -35.247093 0.002013 -0.251536
v -35.188530 0.002013 -0.253599
v -36.150482 2.089396 0.261385
v -35.182400 2.089396 0.261385
v -36.147800 2.111450 0.258485
v -35.185085 2.111450 0.258485
v -36.147800 2.111450 -0.258485
v -35.185085 2.111450 -0.258485
v -36.150482 2.089396 -0.261386
v -35.182400 2.089396 -0.261386
v -36.162083 2.125978 0.270083
v -35.170803 2.125978 0.270083
v -35.170803 2.125978 -0.270083
v -36.162083 2.125978 -0.270083
v -36.162083 2.161353 0.270083
v -35.170803 2.161353 0.270083
v -35.170803 2.161353 -0.270083
v -36.162083 2.161353 -0.270083
v -36.082073 0.282212 0.218731
v -35.249691 0.282212 0.218731
v -36.079178 0.283671 0.237157
v -35.252594 0.283671 0.237157
v -36.079178 0.526382 0.237157
v -35.252594 0.526382 0.237157
v -36.082073 0.527841 0.218731
v -35.249691 0.527841 0.218731
v -36.087502 0.615649 0.238060
v -35.245384 0.615649 0.238060
v -36.087502 0.615649 0.161116
v -35.245384 0.615649 0.161116
v -36.087502 0.531161 0.238060
v -35.245384 0.531161 0.238060
v -35.245384 0.531161 0.161116
v -36.087502 0.531161 0.161116
v -36.085766 0.623274 0.218844
v -35.668022 0.623274 0.218844
v -36.085766 0.623274 0.235824
v -35.671162 0.623274 0.235824
v -36.085766 2.082290 0.235824
v -35.671162 2.082290 0.235824
v -36.085766 2.082290 0.218844
v -35.668022 2.082290 0.218844
v -36.052246 0.104905 0.237336
v -36.090057 0.086473 0.237336
v -36.052246 0.104905 0.212613
v -36.090057 0.086473 0.212613
v -36.052246 0.177178 0.212613
v -36.090057 0.211426 0.212613
v -36.090057 0.211426 0.237336
v -36.052246 0.177178 0.237336
v -35.900673 0.211426 0.237336
v -35.924110 0.177178 0.237336
v -35.924110 0.177178 0.212613
v -35.900673 0.211426 0.212613
v -35.246975 2.081524 0.218844
v -35.664711 2.081524 0.218844
v -35.246975 2.081524 0.235824
v -35.661579 2.081524 0.235824
v -35.246975 0.624040 0.235824
v -35.661579 0.624040 0.235824
v -35.246975 0.624040 0.218844
v -35.664711 0.624040 0.218844
v -36.150482 0.279063 0.261385
v -35.182400 0.279063 0.261385
v -36.147800 0.257010 0.258485
v -35.185085 0.257010 0.258485
v -36.147800 0.257010 -0.258485
v -35.185085 0.257010 -0.258485
v -36.150482 0.279063 -0.261386
v -35.182400 0.279063 -0.261386
v -36.162083 0.242483 0.270083
v -35.170803 0.242483 0.270083
v -35.170803 0.242483 -0.270083
v -36.162083 0.242483 -0.270083
v -36.162083 0.207107 0.270083
v -35.170803 0.207107 0.270083
v -35.170803 0.207107 -0.270083
v -36.162083 0.207107 -0.270083
v -35.279793 0.104905 0.237336
v -35.241993 0.086473 0.237336
v -35.279793 0.104905 0.212613
v -35.241993 0.086473 0.212613
v -35.279793 0.177178 0.212613
v -35.241993 0.211426 0.212613
v -35.241993 0.211426 0.237336
v -35.279793 0.177178 0.237336
v -35.431374 0.211426 0.237336
v -35.407932 0.177178 0.237336
v -35.407932 0.177178 0.212613
v -35.431374 0.211426 0.212613
v -35.279793 0.104905 -0.209447
v -35.241993 0.086473 -0.209447
v -35.279793 0.104905 -0.234172
v -35.241993 0.086473 -0.234172
v -35.279793 0.177178 -0.234172
v -35.241993 0.211426 -0.234172
v -35.241993 0.211426 -0.209447
v -35.279793 0.177178 -0.209447
v -35.431374 0.211426 -0.209447
v -35.407932 0.177178 -0.209447
v -35.407932 0.177178 -0.234172
v -35.431374 0.211426 -0.234172
v -36.052246 0.104905 -0.209447
v -36.090057 0.086473 -0.209447
v -36.052246 0.104905 -0.234172
v -36.090057 0.086473 -0.234172
v -36.052246 0.177178 -0.234172
v -36.090057 0.211426 -0.234172
v -36.090057 0.211426 -0.209447
v -36.052246 0.177178 -0.209447
v -35.900673 0.211426 -0.209447
v -35.924110 0.177178 -0.209447
v -35.924110 0.177178 -0.234172
v -35.900673 0.211426 -0.234172
v -36.100227 0.104905 0.160635
v -36.100227 0.086473 0.198442
v -36.124950 0.104905 0.160635
v -36.124950 0.086473 0.198442
v -36.124950 0.177178 0.160635
v -36.124950 0.211426 0.198442
v -36.100227 0.211426 0.198442
v -36.100227 0.177178 0.160635
v -36.100227 0.211426 0.061091
v -36.100227 0.177178 0.084532
v -36.124950 0.177178 0.084532
v -36.124950 0.211426 0.061091
v -36.100227 0.104905 -0.162141
v -36.100227 0.086473 -0.199947
v -36.124950 0.104905 -0.162141
v -36.124950 0.086473 -0.199947
v -36.124950 0.177178 -0.162141
v -36.124950 0.211426 -0.199947
v -36.100227 0.211426 -0.199947
v -36.100227 0.177178 -0.162141
v -36.100227 0.211426 -0.062597
v -36.100227 0.177178 -0.086037
v -36.124950 0.177178 -0.086037
v -36.124950 0.211426 -0.062597
v -35.205715 0.104905 0.160635
v -35.205715 0.086473 0.198442
v -35.230442 0.104905 0.160635
v -35.230442 0.086473 0.198442
v -35.230442 0.177178 0.160635
v -35.230442 0.211426 0.198442
v -35.205715 0.211426 0.198442
v -35.205715 0.177178 0.160635
v -35.205715 0.211426 0.061091
v -35.205715 0.177178 0.084532
v -35.230442 0.177178 0.084532
v -35.230442 0.211426 0.061091
v -35.205715 0.104905 -0.162141
v -35.205715 0.086473 -0.199947
v -35.230442 0.104905 -0.162141
v -35.230442 0.086473 -0.199947
v -35.230442 0.177178 -0.162141
v -35.230442 0.211426 -0.199947
v -35.205715 0.211426 -0.199947
v -35.205715 0.177178 -0.162141
v -35.205715 0.211426 -0.062597
v -35.205715 0.177178 -0.086037
v -35.230442 0.177178 -0.086037
v -35.230442 0.211426 -0.062597
v -36.136040 0.252775 0.230916
v -36.136040 2.098832 0.230916
v -36.136040 2.098832 -0.243531
v -36.136040 0.252775 -0.243531
v -35.659828 2.098832 0.230916
v -35.659828 0.252775 0.230916
v -35.659828 2.098832 -0.243531
v -35.659828 0.252775 -0.243531
v -35.202572 2.098832 -0.243531
v -35.202572 0.252775 -0.243531
v -35.202572 0.252775 0.230916
v -35.202572 2.098832 0.230916
v -35.727955 1.274888 0.264720
v -35.700306 1.274888 0.264720
v -35.727955 1.392426 0.264720
v -35.700306 1.392426 0.264720
v -35.720909 1.388690 0.225506
v -35.707352 1.388690 0.225506
v -35.720909 1.278625 0.225506
v -35.707352 1.278625 0.225506
v -35.727398 1.392208 0.254714
v -35.727398 1.275107 0.254714
v -35.700871 1.275107 0.254714
v -35.700871 1.392208 0.254714
v -35.725388 1.390658 0.254726
v -35.725388 1.276657 0.254726
v -35.702881 1.276657 0.254726
v -35.702881 1.390658 0.254726
v -35.723377 1.279682 0.264721
v -35.704884 1.279682 0.264721
v -35.704884 1.387633 0.264721
v -35.723377 1.387633 0.264721
v -35.723377 1.279682 0.262197
v -35.704884 1.279682 0.262197
v -35.704884 1.387633 0.262197
v -35.723377 1.387633 0.262197
v -35.630508 1.274888 0.264720
v -35.602863 1.274888 0.264720
v -35.630508 1.392426 0.264720
v -35.602863 1.392426 0.264720
v -35.623466 1.388690 0.225506
v -35.609909 1.388690 0.225506
v -35.623466 1.278625 0.225506
v -35.609909 1.278625 0.225506
v -35.629948 1.392208 0.254714
v -35.629948 1.275107 0.254714
v -35.603428 1.275107 0.254714
v -35.603428 1.392208 0.254714
v -35.627937 1.390658 0.254726
v -35.627941 1.276657 0.254726
v -35.605438 1.276657 0.254726
v -35.605438 1.390658 0.254726
v -35.625935 1.279682 0.264721
v -35.607441 1.279682 0.264721
v -35.607441 1.387633 0.264721
v -35.625935 1.387633 0.264721
v -35.625935 1.279682 0.262197
v -35.607441 1.279682 0.262197
v -35.607441 1.387633 0.262197
v -35.625935 1.387633 0.262197
v -35.607529 0.450039 0.264720
v -35.607529 0.477684 0.264720
v -35.725063 0.450039 0.264720
v -35.725063 0.477684 0.264720
v -35.721333 0.457081 0.225506
v -35.721333 0.470642 0.225506
v -35.611267 0.457081 0.225506
v -35.611267 0.470642 0.225506
v -35.724846 0.450596 0.254714
v -35.607742 0.450596 0.254714
v -35.607742 0.477127 0.254714
v -35.724846 0.477127 0.254714
v -35.723297 0.452609 0.254726
v -35.609291 0.452609 0.254726
v -35.609291 0.475114 0.254726
v -35.723297 0.475114 0.254726
v -35.612324 0.454618 0.264721
v -35.612324 0.473105 0.264721
v -35.720280 0.473105 0.264721
v -35.720280 0.454618 0.264721
v -35.612324 0.454618 0.262197
v -35.612324 0.473105 0.262197
v -35.720280 0.473105 0.262197
v -35.720280 0.454618 0.262197
vt 1.547970 0.063951
vt 1.547970 0.006710
vt -0.552112 0.006710
vt -0.552112 0.063951
vt 0.563692 0.281323
vt 0.615373 0.283143
vt 0.615373 0.333005
vt 0.565915 0.333005
vt -0.552112 0.126302
vt -0.552112 0.066671
vt 1.547970 0.066671
vt 1.547970 0.126302
vt 0.565915 0.333005
vt 0.615373 0.333005
vt 0.615373 0.283143
vt 0.563692 0.281323
vt 1.547970 0.006710
vt 1.547970 0.066671
vt -0.552112 0.066671
vt -0.552112 0.006710
vt 1.547970 0.127093
vt 1.547970 0.063951
vt -0.552112 0.063951
vt -0.552112 0.127093
vt 1.547970 0.063951
vt 1.547970 0.006710
vt -0.552112 0.006710
vt -0.552112 0.063951
vt 0.563692 0.281323
vt 0.615373 0.283143
vt 0.615373 0.333005
vt 0.565915 0.333005
vt -0.552112 0.126302
vt -0.552112 0.066671
vt 1.547970 0.066671
vt 1.547970 0.126302
vt 0.565915 0.333005
vt 0.615373 0.333005
vt 0.615373 0.283143
vt 0.563692 0.281323
vt 1.547970 0.006710
vt 1.547970 0.066671
vt -0.552112 0.066671
vt -0.552112 0.006710
vt 1.547970 0.127093
vt 1.547970 0.063951
vt -0.552112 0.063951
vt -0.552112 0.127093
vt 1.547970 0.063951
vt 1.547970 0.006710
vt -0.552112 0.006710
vt -0.552112 0.063951
vt 0.563692 0.281323
vt 0.615373 0.283143
vt 0.615373 0.333005
vt 0.565915 0.333005
vt -0.552112 0.126302
vt -0.552112 0.066671
vt 1.547970 0.066671
vt 1.547970 0.126302
vt 0.565915 0.333005
vt 0.615373 0.333005
vt 0.615373 0.283143
vt 0.563692 0.281323
vt 1.547970 0.006710
vt 1.547970 0.066671
vt -0.552112 0.066671
vt -0.552112 0.006710
vt 1.547970 0.127093
vt 1.547970 0.063951
vt -0.552112 0.063951
vt -0.552112 0.127093
vt 1.547970 0.063951
vt 1.547970 0.006710
vt -0.552112 0.006710
vt -0.552112 0.063951
vt 0.563692 0.281323
vt 0.615373 0.283143
vt 0.615373 0.333005
vt 0.565915 0.333005
vt -0.552112 0.126302
vt -0.552112 0.066671
vt 1.547970 0.066671
vt 1.547970 0.126302
vt 0.565915 0.333005
vt 0.615373 0.333005
vt 0.615373 0.283143
vt 0.563692 0.281323
vt 1.547970 0.006710
vt 1.547970 0.066671
vt -0.552112 0.066671
vt -0.552112 0.006710
vt 1.547970 0.127093
vt 1.547970 0.063951
vt -0.552112 0.063951
vt -0.552112 0.127093
vt -0.153957 0.468189
vt 0.605894 0.468189
vt 0.606066 0.494823
vt -0.149576 0.494823
vt 0.634341 0.212799
vt 0.989992 0.212799
vt 0.989992 0.403696
vt 0.634341 0.403696
vt 0.256195 0.494823
vt 1.011838 0.494823
vt 1.016218 0.468189
vt 0.256367 0.468189
vt 0.638502 0.395821
vt 0.985830 0.395821
vt 0.985830 0.211072
vt 0.638502 0.211072
vt 0.608171 0.512369
vt -0.169887 0.512369
vt 1.032149 0.512369
vt 0.254090 0.512369
vt 0.608171 0.555094
vt -0.169887 0.555094
vt 1.032149 0.555094
vt 0.254090 0.555094
vt -0.050759 0.585811
vt 1.050760 0.585811
vt 1.050760 0.617068
vt -0.050759 0.617068
vt 0.021814 0.210529
vt 0.546094 0.210529
vt 0.546094 0.400572
vt 0.021814 0.400572
vt -0.050759 0.617165
vt 1.050760 0.617165
vt 1.050760 0.585607
vt -0.050759 0.585607
vt 0.317023 0.585607
vt 0.682977 0.585607
vt 0.682977 0.616865
vt 0.317023 0.616865
vt 0.682977 0.585811
vt 1.048931 0.585811
vt 1.048931 0.617068
vt 0.682977 0.617068
vt -0.048931 0.585811
vt 0.317023 0.585811
vt 0.317023 0.617068
vt -0.048931 0.617068
vt 0.173715 0.578129
vt 0.173715 0.641074
vt 0.826285 0.641074
vt 0.826285 0.578129
vt 0.173715 0.577523
vt 0.173715 0.640468
vt 0.826285 0.640468
vt 0.826285 0.577523
vt 0.943709 0.070299
vt 0.056291 0.070299
vt 0.056291 0.127667
vt 0.943709 0.127667
vt 0.346171 0.620271
vt 0.653829 0.620271
vt 0.650700 0.644342
vt 0.346171 0.644342
vt 1.553890 0.146310
vt 1.553890 0.450839
vt -0.553890 0.450839
vt -0.553890 0.146310
vt 0.346171 0.581477
vt 0.650700 0.581477
vt 0.653829 0.605549
vt 0.346171 0.605549
vt -0.553890 0.146310
vt -0.553890 0.453968
vt 1.553890 0.453968
vt 1.553890 0.146310
vt 1.553890 0.634295
vt -0.553890 0.634295
vt -0.553890 0.615515
vt 1.553890 0.615515
vt -0.553890 0.594413
vt 1.553890 0.594413
vt 1.553890 0.610063
vt -0.553890 0.610063
vt 0.321762 0.358312
vt 0.266530 0.358312
vt 0.266530 0.340568
vt 0.321762 0.340568
vt 0.359246 0.244391
vt 0.359246 0.330296
vt 0.385794 0.306751
vt 0.385794 0.257063
vt 0.359246 0.330296
vt 0.359246 0.244391
vt 0.385794 0.257063
vt 0.385794 0.306751
vt 0.568338 0.358312
vt 0.516509 0.358312
vt 0.516509 0.340568
vt 0.568338 0.340568
vt 0.377454 0.358312
vt 0.377454 0.340568
vt 0.475771 0.306751
vt 0.492232 0.330296
vt 0.492232 0.330296
vt 0.475771 0.306751
vt 0.346171 0.620271
vt 0.653829 0.620271
vt 0.650700 0.644342
vt 0.346171 0.644342
vt 1.553890 0.146310
vt 1.553890 0.450839
vt -0.553890 0.450839
vt -0.553890 0.146310
vt 0.346171 0.581477
vt 0.650700 0.581477
vt 0.653829 0.605549
vt 0.346171 0.605549
vt -0.553890 0.146310
vt -0.553890 0.453968
vt 1.553890 0.453968
vt 1.553890 0.146310
vt 1.553890 0.634295
vt -0.553890 0.634295
vt -0.553890 0.615515
vt 1.553890 0.615515
vt -0.553890 0.594413
vt 1.553890 0.594413
vt 1.553890 0.610063
vt -0.553890 0.610063
vt -0.153957 0.468189
vt -0.149576 0.494823
vt 0.606066 0.494823
vt 0.605894 0.468189
vt 0.634341 0.212799
vt 0.634341 0.403696
vt 0.989992 0.403696
vt 0.989992 0.212799
vt 0.256195 0.494823
vt 0.256367 0.468189
vt 1.016218 0.468189
vt 1.011838 0.494823
vt 0.638502 0.395821
vt 0.638502 0.211072
vt 0.985830 0.211072
vt 0.985830 0.395821
vt -0.169887 0.512369
vt 0.608171 0.512369
vt 1.032149 0.512369
vt 0.254090 0.512369
vt -0.169887 0.555094
vt 0.608171 0.555094
vt 1.032149 0.555094
vt 0.254090 0.555094
vt 0.321762 0.358312
vt 0.321762 0.340568
vt 0.266530 0.340568
vt 0.266530 0.358312
vt 0.359246 0.244391
vt 0.385794 0.257063
vt 0.385794 0.306751
vt 0.359246 0.330296
vt 0.359246 0.330296
vt 0.385794 0.306751
vt 0.385794 0.257063
vt 0.359246 0.244391
vt 0.568338 0.358312
vt 0.568338 0.340568
vt 0.516509 0.340568
vt 0.516509 0.358312
vt 0.377454 0.358312
vt 0.377454 0.340568
vt 0.492232 0.330296
vt 0.475771 0.306751
vt 0.475771 0.306751
vt 0.492232 0.330296
vt 0.321762 0.358312
vt 0.321762 0.340568
vt 0.266530 0.340568
vt 0.266530 0.358312
vt 0.359246 0.244391
vt 0.385794 0.257063
vt 0.385794 0.306751
vt 0.359246 0.330296
vt 0.359246 0.330296
vt 0.385794 0.306751
vt 0.385794 0.257063
vt 0.359246 0.244391
vt 0.568338 0.358312
vt 0.568338 0.340568
vt 0.516509 0.340568
vt 0.516509 0.358312
vt 0.377454 0.358312
vt 0.377454 0.340568
vt 0.492232 0.330296
vt 0.475771 0.306751
vt 0.475771 0.306751
vt 0.492232 0.330296
vt 0.321762 0.358312
vt 0.266530 0.358312
vt 0.266530 0.340568
vt 0.321762 0.340568
vt 0.359246 0.244391
vt 0.359246 0.330296
vt 0.385794 0.306751
vt 0.385794 0.257063
vt 0.359246 0.330296
vt 0.359246 0.244391
vt 0.385794 0.257063
vt 0.385794 0.306751
vt 0.568338 0.358312
vt 0.516509 0.358312
vt 0.516509 0.340568
vt 0.568338 0.340568
vt 0.377454 0.358312
vt 0.377454 0.340568
vt 0.475771 0.306751
vt 0.492232 0.330296
vt 0.492232 0.330296
vt 0.475771 0.306751
vt 0.321762 0.358312
vt 0.266530 0.358312
vt 0.266530 0.340568
vt 0.321762 0.340568
vt 0.359246 0.244391
vt 0.359246 0.330296
vt 0.385794 0.306751
vt 0.385794 0.257063
vt 0.359246 0.330296
vt 0.359246 0.244391
vt 0.385794 0.257063
vt 0.385794 0.306751
vt 0.568338 0.358312
vt 0.516509 0.358312
vt 0.516509 0.340568
vt 0.568338 0.340568
vt 0.377454 0.358312
vt 0.377454 0.340568
vt 0.475771 0.306751
vt 0.492232 0.330296
vt 0.492232 0.330296
vt 0.475771 0.306751
vt 0.321762 0.358312
vt 0.321762 0.340568
vt 0.266530 0.340568
vt 0.266530 0.358312
vt 0.359246 0.244391
vt 0.385794 0.257063
vt 0.385794 0.306751
vt 0.359246 0.330296
vt 0.359246 0.330296
vt 0.385794 0.306751
vt 0.385794 0.257063
vt 0.359246 0.244391
vt 0.568338 0.358312
vt 0.568338 0.340568
vt 0.516509 0.340568
vt 0.516509 0.358312
vt 0.377454 0.358312
vt 0.377454 0.340568
vt 0.492232 0.330296
vt 0.475771 0.306751
vt 0.475771 0.306751
vt 0.492232 0.330296
vt 0.321762 0.358312
vt 0.266530 0.358312
vt 0.266530 0.340568
vt 0.321762 0.340568
vt 0.359246 0.244391
vt 0.359246 0.330296
vt 0.385794 0.306751
vt 0.385794 0.257063
vt 0.359246 0.330296
vt 0.359246 0.244391
vt 0.385794 0.257063
vt 0.385794 0.306751
vt 0.568338 0.358312
vt 0.516509 0.358312
vt 0.516509 0.340568
vt 0.568338 0.340568
vt 0.377454 0.358312
vt 0.377454 0.340568
vt 0.475771 0.306751
vt 0.492232 0.330296
vt 0.492232 0.330296
vt 0.475771 0.306751
vt 0.321762 0.358312
vt 0.321762 0.340568
vt 0.266530 0.340568
vt 0.266530 0.358312
vt 0.359246 0.244391
vt 0.385794 0.257063
vt 0.385794 0.306751
vt 0.359246 0.330296
vt 0.359246 0.330296
vt 0.385794 0.306751
vt 0.385794 0.257063
vt 0.359246 0.244391
vt 0.568338 0.358312
vt 0.568338 0.340568
vt 0.516509 0.340568
vt 0.516509 0.358312
vt 0.377454 0.358312
vt 0.377454 0.340568
vt 0.492232 0.330296
vt 0.475771 0.306751
vt 0.475771 0.306751
vt 0.492232 0.330296
vt -0.619583 0.392801
vt -0.619582 0.226085
vt 1.560551 0.226085
vt 1.560551 0.392801
vt 1.560551 0.227067
vt 1.560551 0.392299
vt -0.619583 0.392299
vt -0.619583 0.227067
vt 1.560551 0.223457
vt 1.560551 0.394355
vt -0.619583 0.394355
vt -0.619583 0.223457
vt -0.619583 0.392801
vt 1.560551 0.392801
vt 1.560551 0.226085
vt -0.619582 0.226085
vt 1.560551 0.227067
vt -0.619583 0.227067
vt -0.619583 0.392299
vt 1.560551 0.392299
vt 1.560551 0.223457
vt -0.619583 0.223457
vt -0.619583 0.394355
vt 1.560551 0.394355
vt 0.757374 0.800766
vt 0.757373 0.857916
vt 0.269312 0.857916
vt 0.269312 0.800766
vt 0.235444 0.777354
vt 0.235444 0.881328
vt 0.186468 0.874570
vt 0.186468 0.784112
vt 0.840218 0.784112
vt 0.840218 0.874570
vt 0.791242 0.881328
vt 0.791243 0.777354
vt 0.786733 0.906959
vt 0.239953 0.906959
vt 0.786733 0.751722
vt 0.239953 0.751722
vt 0.786029 0.747720
vt 0.240657 0.747720
vt 0.847864 0.785167
vt 0.847864 0.873514
vt 0.786029 0.910961
vt 0.240657 0.910961
vt 0.178822 0.873514
vt 0.178822 0.785167
vt 0.773570 0.676905
vt 0.253116 0.676904
vt 0.983174 0.803838
vt 0.983174 0.854843
vt 0.773570 0.981777
vt 0.253116 0.981777
vt 0.043512 0.854842
vt 0.043512 0.803838
vt 0.763178 0.863880
vt 0.763178 0.794801
vt 0.263508 0.863880
vt 0.263508 0.794801
vt 0.757374 0.800766
vt 0.757373 0.857916
vt 0.269312 0.857916
vt 0.269312 0.800766
vt 0.235444 0.777354
vt 0.235444 0.881328
vt 0.186468 0.874570
vt 0.186468 0.784112
vt 0.840218 0.784112
vt 0.840218 0.874570
vt 0.791242 0.881328
vt 0.791243 0.777354
vt 0.786733 0.906959
vt 0.239953 0.906959
vt 0.786733 0.751722
vt 0.239953 0.751722
vt 0.786029 0.747720
vt 0.240657 0.747720
vt 0.847864 0.785167
vt 0.847864 0.873514
vt 0.786029 0.910961
vt 0.240657 0.910961
vt 0.178822 0.873514
vt 0.178822 0.785167
vt 0.773570 0.676905
vt 0.253116 0.676904
vt 0.983174 0.803838
vt 0.983174 0.854843
vt 0.773570 0.981777
vt 0.253116 0.981777
vt 0.043512 0.854842
vt 0.043512 0.803838
vt 0.763178 0.863880
vt 0.763178 0.794801
vt 0.263508 0.863880
vt 0.263508 0.794801
vt 0.757374 0.800766
vt 0.757373 0.857916
vt 0.269312 0.857916
vt 0.269312 0.800766
vt 0.235444 0.777354
vt 0.235444 0.881328
vt 0.186468 0.874570
vt 0.186468 0.784112
vt 0.840218 0.784112
vt 0.840218 0.874570
vt 0.791242 0.881328
vt 0.791243 0.777354
vt 0.786733 0.906959
vt 0.239953 0.906959
vt 0.786733 0.751722
vt 0.239953 0.751722
vt 0.786029 0.747720
vt 0.240657 0.747720
vt 0.847864 0.785167
vt 0.847864 0.873514
vt 0.786029 0.910961
vt 0.240657 0.910961
vt 0.178822 0.873514
vt 0.178822 0.785167
vt 0.773570 0.676905
vt 0.253116 0.676904
vt 0.983174 0.803838
vt 0.983174 0.854843
vt 0.773570 0.981777
vt 0.253116 0.981777
vt 0.043512 0.854842
vt 0.043512 0.803838
vt 0.763178 0.863880
vt 0.763178 0.794801
vt 0.263508 0.863880
vt 0.263508 0.794801
vn 0.035193 0.000000 0.999381
vn 0.035193 0.000000 0.999381
vn 0.035193 0.000000 0.999381
vn 0.035193 0.000000 0.999381
vn 0.000000 1.000000 0.000001
vn 0.000000 1.000000 0.000001
vn 0.000000 1.000000 0.000001
vn 0.000000 1.000000 0.000001
vn 0.000000 0.000000 -1.000000
vn 0.000000 0.000000 -1.000000
vn 0.000000 0.000000 -1.000000
vn 0.000000 0.000000 -1.000000
vn 0.000000 -1.000000 -0.000000
vn 0.000000 -1.000000 -0.000000
vn 0.000000 -1.000000 -0.000000
vn 0.000000 -1.000000 -0.000000
vn 1.000000 0.000000 0.000000
vn 1.000000 0.000000 0.000000
vn 1.000000 0.000000 0.000000
vn 1.000000 0.000000 0.000000
vn -0.999072 0.000000 -0.043080
vn -0.999072 0.000000 -0.043080
vn -0.999072 0.000000 -0.043080
vn -0.999072 0.000000 -0.043080
vn 0.000000 0.000000 1.000000
vn 0.000000 0.000000 1.000000
vn 0.000000 0.000000 1.000000
vn 0.000000 0.000000 1.000000
vn 0.000000 1.000000 -0.000001
vn 0.000000 1.000000 -0.000001
vn 0.000000 1.000000 -0.000001
vn 0.000000 1.000000 -0.000001
vn 0.035185 0.000000 -0.999381
vn 0.035185 0.000000 -0.999381
vn 0.035185 0.000000 -0.999381
vn 0.035185 0.000000 -0.999381
vn 0.000000 -1.000000 0.000000
vn 0.000000 -1.000000 0.000000
vn 0.000000 -1.000000 0.000000
vn 0.000000 -1.000000 0.000000
vn 1.000000 0.000000 0.000000
vn 1.000000 0.000000 0.000000
vn 1.000000 0.000000 0.000000
vn 1.000000 0.000000 0.000000
vn -0.999072 0.000000 0.043081
vn -0.999072 0.000000 0.043081
vn -0.999072 0.000000 0.043081
vn -0.999072 0.000000 0.043081
vn -0.035198 0.000000 0.999380
vn -0.035198 0.000000 0.999380
vn -0.035198 0.000000 0.999380
vn -0.035198 0.000000 0.999380
vn 0.000000 1.000000 0.000000
vn 0.000000 1.000000 0.000000
vn 0.000000 1.000000 0.000000
vn 0.000000 1.000000 0.000000
vn 0.000000 0.000000 -1.000000
vn 0.000000 0.000000 -1.000000
vn 0.000000 0.000000 -1.000000
vn 0.000000 0.000000 -1.000000
vn 0.000000 -1.000000 -0.000000
vn 0.000000 -1.000000 -0.000000
vn 0.000000 -1.000000 -0.000000
vn 0.000000 -1.000000 -0.000000
vn 0.999077 0.000000 -0.042950
vn 0.999077 0.000000 -0.042950
vn 0.999077 0.000000 -0.042950
vn 0.999077 0.000000 -0.042950
vn -1.000000 0.000000 0.000000
vn -1.000000 0.000000 0.000000
vn -1.000000 0.000000 0.000000
vn -1.000000 0.000000 0.000000
vn 0.000000 0.000000 1.000000
vn 0.000000 0.000000 1.000000
vn 0.000000 0.000000 1.000000
vn 0.000000 0.000000 1.000000
vn 0.000000 1.000000 0.000000
vn 0.000000 1.000000 0.000000
vn 0.000000 1.000000 0.000000
vn 0.000000 1.000000 0.000000
vn -0.035189 0.000000 -0.999381
vn -0.035189 0.000000 -0.999381
vn -0.035189 0.000000 -0.999381
vn -0.035189 0.000000 -0.999381
vn 0.000000 -1.000000 0.000000
vn 0.000000 -1.000000 0.000000
vn 0.000000 -1.000000 0.000000
vn 0.000000 -1.000000 0.000000
vn 0.999077 0.000000 0.042951
vn 0.999077 0.000000 0.042951
vn 0.999077 0.000000 0.042951
vn 0.999077 0.000000 0.042951
vn -1.000000 0.000000 0.000000
vn -1.000000 0.000000 0.000000
vn -1.000000 0.000000 0.000000
vn -1.000000 0.000000 0.000000
vn 0.000000 0.130378 0.991464
vn 0.000000 0.130378 0.991464
vn 0.000000 0.130378 0.991464
vn 0.000000 0.130378 0.991464
vn 0.000000 1.000000 0.000000
vn 0.000000 1.000000 0.000000
vn 0.000000 1.000000 0.000000
vn 0.000000 1.000000 0.000000
vn 0.000000 0.130419 -0.991459
vn 0.000000 0.130419 -0.991459
vn 0.000000 0.130419 -0.991459
vn 0.000000 0.130419 -0.991459
vn 0.000000 -1.000000 0.000000
vn 0.000000 -1.000000 0.000000
vn 0.000000 -1.000000 0.000000
vn 0.000000 -1.000000 0.000000
vn 0.992673 0.120834 0.000000
vn 0.992673 0.120834 0.000000
vn 0.992673 0.120834 0.000000
vn 0.992673 0.120834 0.000000
vn -0.992698 0.120629 0.000000
vn -0.992698 0.120629 0.000000
vn -0.992698 0.120629 0.000000
vn -0.992698 0.120629 0.000000
vn 0.000000 -0.623899 0.781505
vn 0.000000 -0.623899 0.781505
vn 0.000000 -0.623899 0.781505
vn 0.000000 -0.623899 0.781505
vn 0.713094 -0.701068 0.000000
vn 0.713094 -0.701068 0.000000
vn 0.713094 -0.701068 0.000000
vn 0.713094 -0.701068 0.000000
vn 0.000000 -0.623899 -0.781505
vn 0.000000 -0.623899 -0.781505
vn 0.000000 -0.623899 -0.781505
vn 0.000000 -0.623899 -0.781505
vn -0.713181 -0.700980 0.000000
vn -0.713181 -0.700980 0.000000
vn -0.713181 -0.700980 0.000000
vn -0.713181 -0.700980 0.000000
vn 0.000000 0.000000 1.000000
vn 0.000000 0.000000 1.000000
vn 0.000000 0.000000 1.000000
vn 0.000000 0.000000 1.000000
vn 1.000000 0.000000 0.000000
vn 1.000000 0.000000 0.000000
vn 1.000000 0.000000 0.000000
vn 1.000000 0.000000 0.000000
vn 0.000000 0.000000 -1.000000
vn 0.000000 0.000000 -1.000000
vn 0.000000 0.000000 -1.000000
vn 0.000000 0.000000 -1.000000
vn -1.000000 0.000000 0.000000
vn -1.000000 0.000000 0.000000
vn -1.000000 0.000000 0.000000
vn -1.000000 0.000000 0.000000
vn 0.000000 -0.996878 0.078954
vn 0.000000 -0.996878 0.078954
vn 0.000000 -0.996878 0.078954
vn 0.000000 -0.996878 0.078954
vn 0.000000 0.000000 1.000000
vn 0.000000 0.000000 1.000000
vn 0.000000 0.000000 1.000000
vn 0.000000 0.000000 1.000000
vn 0.000000 0.996878 0.078953
vn 0.000000 0.996878 0.078953
vn 0.000000 0.996878 0.078953
vn 0.000000 0.996878 0.078953
vn 0.000000 0.000000 -1.000000
vn 0.000000 0.000000 -1.000000
vn 0.000000 0.000000 -1.000000
vn 0.000000 0.000000 -1.000000
vn 0.987816 0.000000 0.155628
vn 0.987816 0.000000 0.155628
vn 0.987816 0.000000 0.155628
vn 0.987816 0.000000 0.155628
vn -0.987879 0.000000 0.155228
vn -0.987879 0.000000 0.155228
vn -0.987879 0.000000 0.155228
vn -0.987879 0.000000 0.155228
vn 0.000000 -1.000000 0.000000
vn 0.000000 -1.000000 0.000000
vn 0.000000 -1.000000 0.000000
vn 0.000000 -1.000000 0.000000
vn 0.000000 1.000000 0.000000
vn 0.000000 1.000000 0.000000
vn 0.000000 1.000000 0.000000
vn 0.000000 1.000000 0.000000
vn 0.000000 0.000000 1.000000
vn 0.000000 0.000000 1.000000
vn 0.000000 0.000000 1.000000
vn 0.000000 0.000000 1.000000
vn 0.000000 -1.000000 0.000000
vn 0.000000 -1.000000 0.000000
vn 0.000000 -1.000000 0.000000
vn 0.000000 -1.000000 0.000000
vn 0.000000 0.000000 1.000000
vn 0.000000 0.000000 1.000000
vn 0.000000 0.000000 1.000000
vn 0.000000 0.000000 1.000000
vn 0.000000 1.000000 0.000008
vn 0.000000 1.000000 0.000008
vn 0.000000 1.000000 0.000008
vn 0.000000 1.000000 0.000008
vn 0.000000 0.000000 -1.000000
vn 0.000000 0.000000 -1.000000
vn 0.000000 0.000000 -1.000000
vn 0.000000 0.000000 -1.000000
vn 0.983332 0.000000 0.181817
vn 0.983332 0.000000 0.181817
vn 0.983332 0.000000 0.181817
vn 0.983332 0.000000 0.181817
vn -1.000000 0.000000 0.000000
vn -1.000000 0.000000 0.000000
vn -1.000000 0.000000 0.000000
vn -1.000000 0.000000 0.000000
vn 0.438182 -0.898886 0.000000
vn 0.438182 -0.898886 0.000000
vn 0.438182 -0.898886 0.000000
vn 0.438182 -0.898886 0.000000
vn -0.000000 0.000000 -1.000000
vn -0.000000 0.000000 -1.000000
vn -0.000000 0.000000 -1.000000
vn -0.000000 0.000000 -1.000000
vn 0.000000 0.000000 1.000000
vn 0.000000 0.000000 1.000000
vn 0.000000 0.000000 1.000000
vn 0.000000 0.000000 1.000000
vn 0.825245 -0.564774 0.000000
vn 0.825245 -0.564774 0.000000
vn 0.825245 -0.564774 0.000000
vn 0.825245 -0.564774 0.000000
vn 1.000000 0.000000 0.000000
vn 1.000000 0.000000 0.000000
vn 1.000000 0.000000 0.000000
vn 1.000000 0.000000 0.000000
vn 0.000000 0.000000 1.000000
vn 0.000000 0.000000 1.000000
vn 0.000000 -1.000000 0.000000
vn 0.000000 -1.000000 0.000000
vn 0.000000 -1.000000 0.000000
vn 0.000000 -1.000000 0.000000
vn 0.000000 0.000000 -1.000000
vn 0.000000 0.000000 -1.000000
vn 0.000000 1.000000 0.000000
vn 0.000000 1.000000 0.000000
vn 0.000000 1.000000 0.000000
vn 0.000000 1.000000 0.000000
vn 0.000000 0.000000 1.000000
vn 0.000000 0.000000 1.000000
vn 0.000000 0.000000 1.000000
vn 0.000000 0.000000 1.000000
vn 0.000000 -1.000000 0.000000
vn 0.000000 -1.000000 0.000000
vn 0.000000 -1.000000 0.000000
vn 0.000000 -1.000000 0.000000
vn 0.000000 0.000000 -1.000000
vn 0.000000 0.000000 -1.000000
vn 0.000000 0.000000 -1.000000
vn 0.000000 0.000000 -1.000000
vn -0.983411 0.000000 0.181390
vn -0.983411 0.000000 0.181390
vn -0.983411 0.000000 0.181390
vn -0.983411 0.000000 0.181390
vn 1.000000 0.000000 0.000000
vn 1.000000 0.000000 0.000000
vn 1.000000 0.000000 0.000000
vn 1.000000 0.000000 0.000000
vn 0.000000 -0.130380 0.991464
vn 0.000000 -0.130380 0.991464
vn 0.000000 -0.130380 0.991464
vn 0.000000 -0.130380 0.991464
vn 0.000000 -1.000000 0.000000
vn 0.000000 -1.000000 0.000000
vn 0.000000 -1.000000 0.000000
vn 0.000000 -1.000000 0.000000
vn 0.000000 -0.130422 -0.991459
vn 0.000000 -0.130422 -0.991459
vn 0.000000 -0.130422 -0.991459
vn 0.000000 -0.130422 -0.991459
vn 0.000000 1.000000 0.000000
vn 0.000000 1.000000 0.000000
vn 0.000000 1.000000 0.000000
vn 0.000000 1.000000 0.000000
vn 0.992666 -0.120889 0.000000
vn 0.992666 -0.120889 0.000000
vn 0.992666 -0.120889 0.000000
vn 0.992666 -0.120889 0.000000
vn -0.992706 -0.120563 0.000000
vn -0.992706 -0.120563 0.000000
vn -0.992706 -0.120563 0.000000
vn -0.992706 -0.120563 0.000000
vn 0.000000 0.623910 0.781496
vn 0.000000 0.623910 0.781496
vn 0.000000 0.623910 0.781496
vn 0.000000 0.623910 0.781496
vn 0.713092 0.701070 0.000000
vn 0.713092 0.701070 0.000000
vn 0.713092 0.701070 0.000000
vn 0.713092 0.701070 0.000000
vn 0.000000 0.623910 -0.781496
vn 0.000000 0.623910 -0.781496
vn 0.000000 0.623910 -0.781496
vn 0.000000 0.623910 -0.781496
vn -0.713181 0.700980 0.000000
vn -0.713181 0.700980 0.000000
vn -0.713181 0.700980 0.000000
vn -0.713181 0.700980 0.000000
vn 0.000000 0.000000 1.000000
vn 0.000000 0.000000 1.000000
vn 0.000000 0.000000 1.000000
vn 0.000000 0.000000 1.000000
vn 1.000000 0.000000 0.000000
vn 1.000000 0.000000 0.000000
vn 1.000000 0.000000 0.000000
vn 1.000000 0.000000 0.000000
vn 0.000000 0.000000 -1.000000
vn 0.000000 0.000000 -1.000000
vn 0.000000 0.000000 -1.000000
vn 0.000000 0.000000 -1.000000
vn -1.000000 0.000000 0.000000
vn -1.000000 0.000000 0.000000
vn -1.000000 0.000000 0.000000
vn -1.000000 0.000000 0.000000
vn -0.438295 -0.898831 0.000000
vn -0.438295 -0.898831 0.000000
vn -0.438295 -0.898831 0.000000
vn -0.438295 -0.898831 0.000000
vn 0.000000 0.000000 -1.000000
vn 0.000000 0.000000 -1.000000
vn 0.000000 0.000000 -1.000000
vn 0.000000 0.000000 -1.000000
vn 0.000000 0.000000 1.000000
vn 0.000000 0.000000 1.000000
vn 0.000000 0.000000 1.000000
vn 0.000000 0.000000 1.000000
vn -0.825218 -0.564814 0.000000
vn -0.825218 -0.564814 0.000000
vn -0.825218 -0.564814 0.000000
vn -0.825218 -0.564814 0.000000
vn -1.000000 0.000000 0.000000
vn -1.000000 0.000000 0.000000
vn -1.000000 0.000000 0.000000
vn -1.000000 0.000000 0.000000
vn 0.000000 0.000000 1.000000
vn 0.000000 0.000000 1.000000
vn 0.000000 -1.000000 0.000000
vn 0.000000 -1.000000 0.000000
vn 0.000000 -1.000000 0.000000
vn 0.000000 -1.000000 0.000000
vn 0.000000 0.000000 -1.000000
vn 0.000000 0.000000 -1.000000
vn -0.438286 -0.898836 0.000000
vn -0.438286 -0.898836 0.000000
vn -0.438286 -0.898836 0.000000
vn -0.438286 -0.898836 0.000000
vn 0.000000 0.000000 -1.000000
vn 0.000000 0.000000 -1.000000
vn 0.000000 0.000000 -1.000000
vn 0.000000 0.000000 -1.000000
vn 0.000000 0.000000 1.000000
vn 0.000000 0.000000 1.000000
vn 0.000000 0.000000 1.000000
vn 0.000000 0.000000 1.000000
vn -0.825228 -0.564799 0.000000
vn -0.825228 -0.564799 0.000000
vn -0.825228 -0.564799 0.000000
vn -0.825228 -0.564799 0.000000
vn -1.000000 0.000000 0.000000
vn -1.000000 0.000000 0.000000
vn -1.000000 0.000000 0.000000
vn -1.000000 0.000000 0.000000
vn 0.000000 0.000000 1.000000
vn 0.000000 0.000000 1.000000
vn 0.000000 -1.000000 0.000000
vn 0.000000 -1.000000 0.000000
vn 0.000000 -1.000000 0.000000
vn 0.000000 -1.000000 0.000000
vn 0.000000 0.000000 -1.000000
vn 0.000000 0.000000 -1.000000
vn 0.438196 -0.898880 0.000000
vn 0.438196 -0.898880 0.000000
vn 0.438196 -0.898880 0.000000
vn 0.438196 -0.898880 0.000000
vn 0.000000 0.000000 -1.000000
vn 0.000000 0.000000 -1.000000
vn 0.000000 0.000000 -1.000000
vn 0.000000 0.000000 -1.000000
vn 0.000000 0.000000 1.000000
vn 0.000000 0.000000 1.000000
vn 0.000000 0.000000 1.000000
vn 0.000000 0.000000 1.000000
vn 0.825255 -0.564760 0.000000
vn 0.825255 -0.564760 0.000000
vn 0.825255 -0.564760 0.000000
vn 0.825255 -0.564760 0.000000
vn 1.000000 0.000000 0.000000
vn 1.000000 0.000000 0.000000
vn 1.000000 0.000000 0.000000
vn 1.000000 0.000000 0.000000
vn 0.000000 0.000000 1.000000
vn 0.000000 0.000000 1.000000
vn 0.000000 -1.000000 0.000000
vn 0.000000 -1.000000 0.000000
vn 0.000000 -1.000000 0.000000
vn 0.000000 -1.000000 0.000000
vn 0.000000 0.000000 -1.000000
vn 0.000000 0.000000 -1.000000
vn 0.000000 -0.898867 -0.438222
vn 0.000000 -0.898867 -0.438222
vn 0.000000 -0.898867 -0.438222
vn 0.000000 -0.898867 -0.438222
vn -1.000000 0.000000 0.000000
vn -1.000000 -0.000033 0.000000
vn -1.000000 -0.000033 0.000000
vn -1.000000 0.000000 0.000000
vn 1.000000 0.000000 0.000000
vn 1.000000 0.000000 0.000000
vn 1.000000 0.000000 0.000000
vn 1.000000 0.000000 0.000000
vn 0.000000 -0.564780 -0.825241
vn 0.000000 -0.564780 -0.825241
vn 0.000000 -0.564780 -0.825241
vn 0.000000 -0.564780 -0.825241
vn 0.000000 0.000000 -1.000000
vn 0.000000 0.000000 -1.000000
vn 0.000000 0.000000 -1.000000
vn 0.000000 0.000000 -1.000000
vn 1.000000 0.000000 0.000000
vn 1.000000 0.000000 0.000000
vn 0.000000 -1.000000 0.000000
vn 0.000000 -1.000000 0.000000
vn 0.000000 -1.000000 0.000000
vn 0.000000 -1.000000 0.000000
vn -1.000000 -0.000065 0.000000
vn -1.000000 -0.000065 0.000000
vn 0.000000 -0.898845 0.438267
vn 0.000000 -0.898845 0.438267
vn 0.000000 -0.898845 0.438267
vn 0.000000 -0.898845 0.438267
vn -1.000000 0.000000 0.000000
vn -1.000000 0.000000 0.000000
vn -1.000000 0.000016 0.000000
vn -1.000000 0.000016 0.000000
vn 1.000000 -0.000016 0.000000
vn 1.000000 -0.000016 0.000000
vn 1.000000 0.000000 0.000000
vn 1.000000 0.000000 0.000000
vn 0.000000 -0.564780 0.825241
vn 0.000000 -0.564780 0.825241
vn 0.000000 -0.564780 0.825241
vn 0.000000 -0.564780 0.825241
vn 0.000000 0.000000 1.000000
vn 0.000000 0.000000 1.000000
vn 0.000000 0.000000 1.000000
vn 0.000000 0.000000 1.000000
vn 1.000000 -0.000033 0.000000
vn 1.000000 -0.000033 0.000000
vn 0.000000 -1.000000 0.000000
vn 0.000000 -1.000000 0.000000
vn 0.000000 -1.000000 0.000000
vn 0.000000 -1.000000 0.000000
vn -1.000000 0.000033 0.000000
vn -1.000000 0.000033 0.000000
vn 0.000000 -0.898862 -0.438232
vn 0.000000 -0.898862 -0.438232
vn 0.000000 -0.898862 -0.438232
vn 0.000000 -0.898862 -0.438232
vn -1.000000 0.000000 0.000000
vn -1.000000 -0.000065 0.000000
vn -1.000000 -0.000065 0.000000
vn -1.000000 0.000000 0.000000
vn 1.000000 0.000000 0.000000
vn 1.000000 0.000000 0.000000
vn 1.000000 0.000000 0.000000
vn 1.000000 0.000000 0.000000
vn 0.000000 -0.564800 -0.825228
vn 0.000000 -0.564800 -0.825228
vn 0.000000 -0.564800 -0.825228
vn 0.000000 -0.564800 -0.825228
vn 0.000000 0.000000 -1.000000
vn 0.000000 0.000000 -1.000000
vn 0.000000 0.000000 -1.000000
vn 0.000000 0.000000 -1.000000
vn 1.000000 0.000000 0.000000
vn 1.000000 0.000000 0.000000
vn 0.000000 -1.000000 0.000000
vn 0.000000 -1.000000 0.000000
vn 0.000000 -1.000000 0.000000
vn 0.000000 -1.000000 0.000000
vn -1.000000 -0.000130 0.000000
vn -1.000000 -0.000130 0.000000
vn 0.000000 -0.898862 0.438232
vn 0.000000 -0.898862 0.438232
vn 0.000000 -0.898862 0.438232
vn 0.000000 -0.898862 0.438232
vn -1.000000 0.000000 0.000000
vn -1.000000 0.000000 0.000000
vn -1.000000 -0.000016 0.000000
vn -1.000000 -0.000016 0.000000
vn 1.000000 0.000016 0.000000
vn 1.000000 0.000016 0.000000
vn 1.000000 0.000000 0.000000
vn 1.000000 0.000000 0.000000
vn 0.000000 -0.564800 0.825228
vn 0.000000 -0.564800 0.825228
vn 0.000000 -0.564800 0.825228
vn 0.000000 -0.564800 0.825228
vn 0.000000 0.000000 1.000000
vn 0.000000 0.000000 1.000000
vn 0.000000 0.000000 1.000000
vn 0.000000 0.000000 1.000000
vn 1.000000 0.000033 0.000000
vn 1.000000 0.000033 0.000000
vn 0.000000 -1.000000 0.000000
vn 0.000000 -1.000000 0.000000
vn 0.000000 -1.000000 0.000000
vn 0.000000 -1.000000 0.000000
vn -1.000000 -0.000033 0.000000
vn -1.000000 -0.000033 0.000000
vn 0.000000 0.000000 -1.000000
vn 0.000000 0.000000 -1.000000
vn 0.000000 0.000000 -1.000000
vn 0.000000 0.000000 -1.000000
vn -1.000000 0.000000 0.000000
vn -1.000000 0.000000 0.000000
vn -1.000000 0.000000 0.000000
vn -1.000000 0.000000 0.000000
vn 0.000000 0.000000 1.000000
vn 0.000000 0.000000 1.000000
vn 0.000000 0.000000 1.000000
vn 0.000000 0.000000 1.000000
vn 0.000000 0.000000 -1.000000
vn 0.000000 0.000000 -1.000000
vn 0.000000 0.000000 -1.000000
vn 0.000000 0.000000 -1.000000
vn 1.000000 0.000000 0.000000
vn 1.000000 0.000000 0.000000
vn 1.000000 0.000000 0.000000
vn 1.000000 0.000000 0.000000
vn 0.000000 0.000000 1.000000
vn 0.000000 0.000000 1.000000
vn 0.000000 0.000000 1.000000
vn 0.000000 0.000000 1.000000
vn 0.577350 0.577350 0.577350
vn -0.577350 0.577350 0.577350
vn -0.577350 -0.577350 0.577350
vn 0.577350 -0.577350 0.577350
vn -0.418534 0.419078 0.805731
vn 0.418626 0.419189 0.805626
vn 0.395852 0.395715 -0.828680
vn -0.395966 0.395812 -0.828580
vn -0.395962 -0.395807 -0.828584
vn 0.395848 -0.395710 -0.828685
vn 0.418631 -0.419193 0.805621
vn -0.418538 -0.419082 0.805727
vn -0.374972 -0.377867 -0.846530
vn -0.374972 0.377868 -0.846529
vn 0.375015 -0.377896 -0.846498
vn 0.375015 0.377896 -0.846498
vn -0.695413 -0.701943 -0.153872
vn -0.695413 0.701943 -0.153872
vn 0.695446 -0.701949 -0.153695
vn 0.695446 0.701949 -0.153695
vn -0.408192 0.408195 0.816552
vn 0.408192 0.408195 0.816552
vn -0.408192 -0.408195 0.816552
vn 0.408192 -0.408195 0.816552
vn 0.577350 0.577350 0.577350
vn -0.577350 0.577350 0.577350
vn -0.577350 -0.577350 0.577350
vn 0.577350 -0.577350 0.577350
vn -0.418582 0.419135 0.805677
vn 0.418628 0.419190 0.805624
vn 0.395850 0.395713 -0.828682
vn -0.395906 0.395762 -0.828632
vn -0.395901 -0.395757 -0.828637
vn 0.395846 -0.395708 -0.828686
vn 0.418633 -0.419195 0.805619
vn -0.418587 -0.419140 0.805672
vn -0.375002 -0.377888 -0.846507
vn -0.375003 0.377889 -0.846506
vn 0.375014 -0.377895 -0.846499
vn 0.375015 0.377896 -0.846498
vn -0.695438 -0.701947 -0.153744
vn -0.695438 0.701947 -0.153740
vn 0.695446 -0.701948 -0.153700
vn 0.695446 0.701949 -0.153696
vn -0.408192 0.408195 0.816552
vn 0.408191 0.408195 0.816552
vn -0.408192 -0.408195 0.816552
vn 0.408192 -0.408195 0.816552
vn -0.577350 0.577350 0.577350
vn -0.577350 -0.577350 0.577350
vn 0.577350 -0.577350 0.577350
vn 0.577350 0.577350 0.577350
vn -0.419055 -0.418510 0.805756
vn -0.419055 0.418511 0.805755
vn -0.395835 0.395991 -0.828556
vn -0.395836 -0.395991 -0.828556
vn 0.395886 -0.396041 -0.828508
vn 0.395886 0.396041 -0.828509
vn 0.419004 0.418456 0.805810
vn 0.419003 -0.418456 0.805811
vn 0.377852 -0.374980 -0.846533
vn -0.377911 -0.375025 -0.846486
vn 0.377854 0.374984 -0.846530
vn -0.377913 0.375029 -0.846484
vn 0.701922 -0.695427 -0.153906
vn -0.701961 -0.695447 -0.153637
vn 0.701922 0.695430 -0.153892
vn -0.701961 0.695450 -0.153623
vn -0.408195 -0.408191 0.816552
vn -0.408195 0.408191 0.816552
vn 0.408195 -0.408191 0.816552
vn 0.408195 0.408191 0.816552
s off
g polySurface7589
f 1/1/1 2/2/2 4/3/3 3/4/4
f 3/5/5 4/6/6 6/7/7 5/8/8
f 5/9/9 6/10/10 8/11/11 7/12/12
f 7/13/13 8/14/14 2/15/15 1/16/16
f 2/17/17 8/18/18 6/19/19 4/20/20
f 7/21/21 1/22/22 3/23/23 5/24/24
f 9/25/25 10/26/26 12/27/27 11/28/28
f 11/29/29 12/30/30 14/31/31 13/32/32
f 13/33/33 14/34/34 16/35/35 15/36/36
f 15/37/37 16/38/38 10/39/39 9/40/40
f 10/41/41 16/42/42 14/43/43 12/44/44
f 15/45/45 9/46/46 11/47/47 13/48/48
f 17/49/49 18/50/50 20/51/51 19/52/52
f 19/53/53 20/54/54 22/55/55 21/56/56
f 21/57/57 22/58/58 24/59/59 23/60/60
f 23/61/61 24/62/62 18/63/63 17/64/64
f 18/65/65 24/66/66 22/67/67 20/68/68
f 23/69/69 17/70/70 19/71/71 21/72/72
f 25/73/73 26/74/74 28/75/75 27/76/76
f 27/77/77 28/78/78 30/79/79 29/80/80
f 29/81/81 30/82/82 32/83/83 31/84/84
f 31/85/85 32/86/86 26/87/87 25/88/88
f 26/89/89 32/90/90 30/91/91 28/92/92
f 31/93/93 25/94/94 27/95/95 29/96/96
f 33/97/97 34/98/98 36/99/99 35/100/100
f 45/101/101 46/102/102 47/103/103 48/104/104
f 37/105/105 38/106/106 40/107/107 39/108/108
f 39/109/109 40/110/110 34/111/111 33/112/112
f 34/98/113 40/107/114 38/106/115 36/99/116
f 39/108/117 33/97/118 35/100/119 37/105/120
f 35/100/121 36/99/122 42/113/123 41/114/124
f 36/99/125 38/106/126 43/115/127 42/113/128
f 38/106/129 37/105/130 44/116/131 43/115/132
f 37/105/133 35/100/134 41/114/135 44/116/136
f 41/114/137 42/113/138 46/117/139 45/118/140
f 42/113/141 43/115/142 47/119/143 46/117/144
f 43/115/145 44/116/146 48/120/147 47/119/148
f 44/116/149 41/114/150 45/118/151 48/120/152
f 49/121/153 50/122/154 52/123/155 51/124/156
f 51/125/157 52/126/158 54/127/159 53/128/160
f 53/129/161 54/130/162 56/131/163 55/132/164
f 55/133/165 56/134/166 50/135/167 49/136/168
f 50/137/169 56/138/170 54/139/171 52/140/172
f 55/141/173 49/142/174 51/143/175 53/144/176
f 61/145/177 64/146/178 63/147/179 62/148/180
f 59/149/181 57/150/182 58/151/183 60/152/184
f 58/153/185 57/154/186 61/155/187 62/156/188
f 65/157/189 66/158/190 68/159/191 67/160/192
f 67/161/193 68/162/194 70/163/195 69/164/196
f 69/165/197 70/166/198 72/167/199 71/168/200
f 71/169/201 72/170/202 66/171/203 65/172/204
f 66/173/205 72/174/206 70/175/207 68/176/208
f 71/177/209 65/178/210 67/179/211 69/180/212
f 73/181/213 74/182/214 76/183/215 75/184/216
s 55
f 76/185/217 78/186/218 77/187/219 75/188/220
s 56
f 79/189/221 74/190/222 73/191/223 80/192/224
s off
f 81/193/225 82/194/226 83/195/227 84/196/228
f 80/197/229 73/181/230 75/184/231 77/198/232
s 56
f 79/189/221 80/192/224 82/199/233 81/200/234
s off
f 80/197/235 77/198/236 83/195/237 82/194/238
s 55
f 77/187/219 78/186/218 84/201/239 83/202/240
s off
f 85/203/241 86/204/242 88/205/243 87/206/244
f 87/207/245 88/208/246 90/209/247 89/210/248
f 89/211/249 90/212/250 92/213/251 91/214/252
f 91/215/253 92/216/254 86/217/255 85/218/256
f 86/219/257 92/220/258 90/221/259 88/222/260
f 91/223/261 85/224/262 87/225/263 89/226/264
f 93/227/265 95/228/266 96/229/267 94/230/268
f 105/231/269 108/232/270 107/233/271 106/234/272
f 97/235/273 99/236/274 100/237/275 98/238/276
f 99/239/277 93/240/278 94/241/279 100/242/280
f 94/230/281 96/229/282 98/238/283 100/237/284
f 99/236/285 97/235/286 95/228/287 93/227/288
f 95/228/289 101/243/290 102/244/291 96/229/292
f 96/229/293 102/244/294 103/245/295 98/238/296
f 98/238/297 103/245/298 104/246/299 97/235/300
f 97/235/301 104/246/302 101/243/303 95/228/304
f 101/243/305 105/247/306 106/248/307 102/244/308
f 102/244/309 106/248/310 107/249/311 103/245/312
f 103/245/313 107/249/314 108/250/315 104/246/316
f 104/246/317 108/250/318 105/247/319 101/243/320
f 109/251/321 111/252/322 112/253/323 110/254/324
s 81
f 112/255/325 111/256/326 113/257/327 114/258/328
s 82
f 115/259/329 116/260/330 109/261/331 110/262/332
s off
f 117/263/333 120/264/334 119/265/335 118/266/336
f 116/267/337 113/268/338 111/252/339 109/251/340
s 82
f 115/259/329 117/269/341 118/270/342 116/260/330
s off
f 116/267/343 118/266/344 119/265/345 113/268/346
s 81
f 113/257/327 119/271/347 120/272/348 114/258/328
s off
f 121/273/349 123/274/350 124/275/351 122/276/352
s 87
f 124/277/353 123/278/354 125/279/355 126/280/356
s 88
f 127/281/357 128/282/358 121/283/359 122/284/360
s off
f 129/285/361 132/286/362 131/287/363 130/288/364
f 128/289/365 125/290/366 123/274/367 121/273/368
s 88
f 127/281/357 129/291/369 130/292/370 128/282/358
s off
f 128/289/371 130/288/372 131/287/373 125/290/374
s 87
f 125/279/355 131/293/375 132/294/376 126/280/356
s off
f 133/295/377 134/296/378 136/297/379 135/298/380
s 93
f 136/299/381 138/300/382 137/301/383 135/302/384
s 94
f 139/303/385 134/304/386 133/305/387 140/306/388
s off
f 141/307/389 142/308/390 143/309/391 144/310/392
f 140/311/393 133/295/394 135/298/395 137/312/396
s 94
f 139/303/385 140/306/388 142/313/397 141/314/398
s off
f 140/311/399 137/312/400 143/309/401 142/308/402
s 93
f 137/301/383 138/300/382 144/315/403 143/316/404
s off
f 145/317/405 146/318/406 148/319/407 147/320/408
s 99
f 148/321/409 150/322/410 149/323/411 147/324/412
s 100
f 151/325/413 146/326/414 145/327/415 152/328/416
s off
f 153/329/417 154/330/418 155/331/419 156/332/420
f 152/333/421 145/317/422 147/320/423 149/334/424
s 100
f 151/325/413 152/328/416 154/335/425 153/336/426
s off
f 152/333/427 149/334/428 155/331/429 154/330/430
s 99
f 149/323/411 150/322/410 156/337/431 155/338/432
s off
f 157/339/433 159/340/434 160/341/435 158/342/436
s 105
f 160/343/437 159/344/438 161/345/439 162/346/440
s 106
f 163/347/441 164/348/442 157/349/443 158/350/444
s off
f 165/351/445 168/352/446 167/353/447 166/354/448
f 164/355/449 161/356/450 159/340/451 157/339/452
s 106
f 163/347/441 165/357/453 166/358/454 164/348/442
s off
f 164/355/455 166/354/456 167/353/457 161/356/458
s 105
f 161/345/439 167/359/459 168/360/460 162/346/440
s off
f 169/361/461 170/362/462 172/363/463 171/364/464
s 111
f 172/365/465 174/366/466 173/367/467 171/368/468
s 112
f 175/369/469 170/370/470 169/371/471 176/372/472
s off
f 177/373/473 178/374/474 179/375/475 180/376/476
f 176/377/477 169/361/478 171/364/479 173/378/480
s 112
f 175/369/469 176/372/472 178/379/481 177/380/482
s off
f 176/377/483 173/378/484 179/375/485 178/374/486
s 111
f 173/367/467 174/366/466 180/381/487 179/382/488
s off
f 181/383/489 183/384/490 184/385/491 182/386/492
s 117
f 184/387/493 183/388/494 185/389/495 186/390/496
s 118
f 187/391/497 188/392/498 181/393/499 182/394/500
s off
f 189/395/501 192/396/502 191/397/503 190/398/504
f 188/399/505 185/400/506 183/384/507 181/383/508
s 118
f 187/391/497 189/401/509 190/402/510 188/392/498
s off
f 188/399/511 190/398/512 191/397/513 185/400/514
s 117
f 185/389/495 191/403/515 192/404/516 186/390/496
s off
f 195/405/517 199/406/518 200/407/519 196/408/520
f 196/409/521 193/410/522 194/411/523 195/412/524
f 193/413/525 198/414/526 197/415/527 194/416/528
f 201/417/529 202/418/530 200/419/531 199/420/532
f 202/421/533 201/422/534 204/423/535 203/424/536
f 203/425/537 204/426/538 197/427/539 198/428/540
s 128
f 225/429/541 226/430/542 227/431/543 228/432/544
f 207/433/545 208/434/546 216/435/547 213/436/548
f 214/437/549 215/438/550 206/439/551 205/440/552
f 206/439/551 215/441/550 216/442/547 208/434/546
f 214/443/549 205/440/552 207/433/545 213/444/548
f 218/445/553 214/443/549 213/444/548 217/446/554
f 218/447/553 219/448/555 215/438/550 214/437/549
f 216/442/547 215/441/550 219/449/555 220/450/556
f 213/436/548 216/435/547 220/451/556 217/452/554
f 211/453/557 218/445/553 217/446/554 209/454/558
f 211/455/557 212/456/559 219/448/555 218/447/553
f 220/450/556 219/449/555 212/457/559 210/458/560
f 217/452/554 220/451/556 210/459/560 209/460/558
f 205/440/552 206/439/551 222/461/561 221/462/562
f 206/439/551 208/434/546 223/463/563 222/461/561
f 208/434/546 207/433/545 224/464/564 223/463/563
f 207/433/545 205/440/552 221/462/562 224/464/564
f 221/462/562 222/461/561 226/430/542 225/429/541
f 222/461/561 223/463/563 227/431/543 226/430/542
f 223/463/563 224/464/564 228/432/544 227/431/543
f 224/464/564 221/462/562 225/429/541 228/432/544
s 129
f 249/465/565 250/466/566 251/467/567 252/468/568
f 231/469/569 232/470/570 240/471/571 237/472/572
f 238/473/573 239/474/574 230/475/575 229/476/576
f 230/475/575 239/477/574 240/478/571 232/470/570
f 238/479/573 229/476/576 231/469/569 237/480/572
f 242/481/577 238/479/573 237/480/572 241/482/578
f 242/483/577 243/484/579 239/474/574 238/473/573
f 240/478/571 239/477/574 243/485/579 244/486/580
f 237/472/572 240/471/571 244/487/580 241/488/578
f 235/489/581 242/481/577 241/482/578 233/490/582
f 235/491/581 236/492/583 243/484/579 242/483/577
f 244/486/580 243/485/579 236/493/583 234/494/584
f 241/488/578 244/487/580 234/495/584 233/496/582
f 229/476/576 230/475/575 246/497/585 245/498/586
f 230/475/575 232/470/570 247/499/587 246/497/585
f 232/470/570 231/469/569 248/500/588 247/499/587
f 231/469/569 229/476/576 245/498/586 248/500/588
f 245/498/586 246/497/585 250/466/566 249/465/565
f 246/497/585 247/499/587 251/467/567 250/466/566
f 247/499/587 248/500/588 252/468/568 251/467/567
f 248/500/588 245/498/586 249/465/565 252/468/568
s 130
f 273/501/589 274/502/590 275/503/591 276/504/592
f 255/505/593 256/506/594 264/507/595 261/508/596
f 262/509/597 263/510/598 254/511/599 253/512/600
f 254/511/599 263/513/598 264/514/595 256/506/594
f 262/515/597 253/512/600 255/505/593 261/516/596
f 266/517/601 262/515/597 261/516/596 265/518/602
f 266/519/601 267/520/603 263/510/598 262/509/597
f 264/514/595 263/513/598 267/521/603 268/522/604
f 261/508/596 264/507/595 268/523/604 265/524/602
f 259/525/605 266/517/601 265/518/602 257/526/606
f 259/527/605 260/528/607 267/520/603 266/519/601
f 268/522/604 267/521/603 260/529/607 258/530/608
f 265/524/602 268/523/604 258/531/608 257/532/606
f 253/512/600 254/511/599 270/533/609 269/534/610
f 254/511/599 256/506/594 271/535/611 270/533/609
f 256/506/594 255/505/593 272/536/612 271/535/611
f 255/505/593 253/512/600 269/534/610 272/536/612
f 269/534/610 270/533/609 274/502/590 273/501/589
f 270/533/609 271/535/611 275/503/591 274/502/590
f 271/535/611 272/536/612 276/504/592 275/503/591
f 272/536/612 269/534/610 273/501/589 276/504/592
