# This file uses centimeters as units for non-parametric coordinates.

g default
v -37.607708 0.646706 0.252525
v -36.639629 0.646706 0.252525
v -37.605026 0.674231 0.249625
v -36.642311 0.674231 0.249625
v -37.605026 0.674231 -0.267346
v -36.642311 0.674231 -0.267346
v -37.607708 0.646706 -0.270247
v -36.639629 0.646706 -0.270247
v -37.619308 0.692364 0.261223
v -36.628029 0.692364 0.261223
v -36.628029 0.692364 -0.278943
v -37.619308 0.692364 -0.278943
v -37.619308 0.733022 0.261223
v -36.628029 0.733022 0.261223
v -36.628029 0.733022 -0.278943
v -37.619308 0.733022 -0.278943
v -37.577141 0.733022 0.215560
v -36.670204 0.733022 0.215560
v -36.670204 0.733022 -0.233281
v -37.577141 0.733022 -0.233281
v -37.570835 0.712229 0.211854
v -36.676498 0.712229 0.211854
v -36.676498 0.712229 -0.229575
v -37.570835 0.712229 -0.229575
v -37.569023 0.719411 0.210959
v -36.678318 0.719411 0.210959
v -36.678318 0.719411 -0.228680
v -37.569023 0.719411 -0.228680
v -37.605709 0.672318 0.250350
v -37.605709 0.672318 -0.268072
v -36.641640 0.672318 -0.268072
v -36.641640 0.672318 0.250350
v -37.607353 0.677170 0.253197
v -37.607353 0.677170 -0.270918
v -36.639984 0.677170 -0.270918
v -36.639984 0.677170 0.253197
v -37.509476 0.229234 0.228475
v -37.547287 0.210801 0.228475
v -37.509476 0.229234 0.203752
v -37.547287 0.210801 0.203752
v -37.509476 0.301507 0.203752
v -37.547287 0.335755 0.203752
v -37.547287 0.335755 0.228475
v -37.509476 0.301507 0.228475
v -37.357899 0.335755 0.228475
v -37.381344 0.301507 0.228475
v -37.381344 0.301507 0.203752
v -37.357899 0.335755 0.203752
v -37.607708 0.403392 0.252525
v -36.639629 0.403392 0.252525
v -37.605026 0.381339 0.249625
v -36.642311 0.381339 0.249625
v -37.605026 0.381339 -0.267346
v -36.642311 0.381339 -0.267346
v -37.607708 0.403392 -0.270247
v -36.639629 0.403392 -0.270247
v -37.619308 0.366812 0.261223
v -36.628029 0.366812 0.261223
v -36.628029 0.366812 -0.278943
v -37.619308 0.366812 -0.278943
v -37.619308 0.331436 0.261223
v -36.628029 0.331436 0.261223
v -36.628029 0.331436 -0.278943
v -37.619308 0.331436 -0.278943
v -36.737019 0.229234 0.228475
v -36.699215 0.210801 0.228475
v -36.737019 0.229234 0.203752
v -36.699215 0.210801 0.203752
v -36.737019 0.301507 0.203752
v -36.699215 0.335755 0.203752
v -36.699215 0.335755 0.228475
v -36.737019 0.301507 0.228475
v -36.888588 0.335755 0.228475
v -36.865158 0.301507 0.228475
v -36.865158 0.301507 0.203752
v -36.888588 0.335755 0.203752
v -36.737019 0.229234 -0.218308
v -36.699215 0.210801 -0.218308
v -36.737019 0.229234 -0.243032
v -36.699215 0.210801 -0.243032
v -36.737019 0.301507 -0.243032
v -36.699215 0.335755 -0.243032
v -36.699215 0.335755 -0.218308
v -36.737019 0.301507 -0.218308
v -36.888588 0.335755 -0.218308
v -36.865158 0.301507 -0.218308
v -36.865158 0.301507 -0.243032
v -36.888588 0.335755 -0.243032
v -37.509476 0.229234 -0.218308
v -37.547287 0.210801 -0.218308
v -37.509476 0.229234 -0.243032
v -37.547287 0.210801 -0.243032
v -37.509476 0.301507 -0.243032
v -37.547287 0.335755 -0.243032
v -37.547287 0.335755 -0.218308
v -37.509476 0.301507 -0.218308
v -37.357899 0.335755 -0.218308
v -37.381344 0.301507 -0.218308
v -37.381344 0.301507 -0.243032
v -37.357899 0.335755 -0.243032
v -37.557457 0.229234 0.151774
v -37.557457 0.210801 0.189582
v -37.582176 0.229234 0.151774
v -37.582176 0.210801 0.189582
v -37.582176 0.301507 0.151774
v -37.582176 0.335755 0.189582
v -37.557457 0.335755 0.189582
v -37.557457 0.301507 0.151774
v -37.557457 0.335755 0.052230
v -37.557457 0.301507 0.075671
v -37.582176 0.301507 0.075671
v -37.582176 0.335755 0.052230
v -37.557457 0.229234 -0.171001
v -37.557457 0.210801 -0.208808
v -37.582176 0.229234 -0.171001
v -37.582176 0.210801 -0.208808
v -37.582176 0.301507 -0.171001
v -37.582176 0.335755 -0.208808
v -37.557457 0.335755 -0.208808
v -37.557457 0.301507 -0.171001
v -37.557457 0.335755 -0.071457
v -37.557457 0.301507 -0.094898
v -37.582176 0.301507 -0.094898
v -37.582176 0.335755 -0.071457
v -36.662941 0.229234 0.151774
v -36.662941 0.210801 0.189582
v -36.687668 0.229234 0.151774
v -36.687668 0.210801 0.189582
v -36.687668 0.301507 0.151774
v -36.687668 0.335755 0.189582
v -36.662941 0.335755 0.189582
v -36.662941 0.301507 0.151774
v -36.662941 0.335755 0.052230
v -36.662941 0.301507 0.075671
v -36.687668 0.301507 0.075671
v -36.687668 0.335755 0.052230
v -36.662941 0.229234 -0.171001
v -36.662941 0.210801 -0.208808
v -36.687668 0.229234 -0.171001
v -36.687668 0.210801 -0.208808
v -36.687668 0.301507 -0.171001
v -36.687668 0.335755 -0.208808
v -36.662941 0.335755 -0.208808
v -36.662941 0.301507 -0.171001
v -36.662941 0.335755 -0.071457
v -36.662941 0.301507 -0.094898
v -36.687668 0.301507 -0.094898
v -36.687668 0.335755 -0.071457
v -37.588799 0.377104 0.232247
v -37.588799 0.377104 -0.249159
v -37.112591 0.377104 0.232247
v -37.112591 0.377104 -0.249159
v -36.655334 0.377104 -0.249159
v -36.655334 0.377104 0.232247
v -37.112591 0.668135 -0.249159
v -37.588799 0.668135 -0.249159
v -37.588799 0.668135 0.232247
v -37.112591 0.668135 0.232247
v -36.655334 0.668135 0.232247
v -36.655334 0.668135 -0.249159
v -37.612648 0.568238 0.049992
v -37.612648 0.595882 0.049992
v -37.612648 0.568238 -0.067547
v -37.612648 0.595882 -0.067547
v -37.573441 0.575279 -0.063810
v -37.573441 0.588841 -0.063810
v -37.573441 0.575279 0.046254
v -37.573441 0.588841 0.046254
v -37.602646 0.568794 -0.067328
v -37.602646 0.568794 0.049772
v -37.602646 0.595326 0.049772
v -37.602646 0.595326 -0.067328
v -37.602661 0.570808 -0.065779
v -37.602661 0.570808 0.048223
v -37.602661 0.593312 0.048223
v -37.602661 0.593312 -0.065779
v -37.612652 0.572816 0.045197
v -37.612652 0.591304 0.045197
v -37.612652 0.591304 -0.062753
v -37.612652 0.572816 -0.062753
v -37.610134 0.572816 0.045197
v -37.610134 0.591304 0.045197
v -37.610134 0.591304 -0.062753
v -37.610134 0.572816 -0.062753
v -36.636566 0.568238 0.049992
v -36.636566 0.595882 0.049992
v -36.636566 0.568238 -0.067547
v -36.636566 0.595882 -0.067547
v -36.675781 0.575279 -0.063810
v -36.675781 0.588841 -0.063810
v -36.675781 0.575279 0.046254
v -36.675781 0.588841 0.046254
v -36.646576 0.568794 -0.067328
v -36.646576 0.568794 0.049772
v -36.646576 0.595326 0.049772
v -36.646576 0.595326 -0.067328
v -36.646561 0.570808 -0.065779
v -36.646561 0.570808 0.048223
v -36.646561 0.593312 0.048223
v -36.646561 0.593312 -0.065779
v -36.636566 0.572816 0.045197
v -36.636566 0.591304 0.045197
v -36.636566 0.591304 -0.062753
v -36.636566 0.572816 -0.062753
v -36.639095 0.572816 0.045197
v -36.639095 0.591304 0.045197
v -36.639095 0.591304 -0.062753
v -36.639095 0.572816 -0.062753
v -37.601585 0.126341 0.244738
v -37.543022 0.126341 0.242676
v -37.599068 0.126341 0.186172
v -37.543022 0.126341 0.186172
v -37.601585 0.671918 0.244738
v -37.599068 0.671918 0.186172
v -37.543022 0.671918 0.186172
v -37.543022 0.671918 0.242676
v -37.599068 0.126341 -0.203894
v -37.543022 0.126341 -0.203894
v -37.601585 0.126341 -0.262459
v -37.543022 0.126341 -0.260397
v -37.601585 0.678484 -0.262461
v -37.599068 0.678484 -0.203894
v -37.543022 0.678484 -0.203894
v -37.543022 0.678484 -0.260397
v -36.704319 0.126341 0.242676
v -36.645756 0.126341 0.244738
v -36.704319 0.126341 0.186172
v -36.648277 0.126341 0.186172
v -36.645756 0.683205 0.244738
v -36.704319 0.683205 0.242676
v -36.704319 0.683205 0.186172
v -36.648277 0.683205 0.186172
v -36.704319 0.126341 -0.203894
v -36.648277 0.126341 -0.203894
v -36.704319 0.126341 -0.260397
v -36.645756 0.126341 -0.262459
v -36.645756 0.671357 -0.262459
v -36.704319 0.671357 -0.260397
v -36.704319 0.671357 -0.203895
v -36.648277 0.671357 -0.203895
v -37.052109 0.697745 0.278942
v -37.052109 0.725389 0.278942
v -37.169647 0.697745 0.278942
v -37.169647 0.725389 0.278942
v -37.165913 0.704787 0.239727
v -37.165913 0.718348 0.239727
v -37.055851 0.704787 0.239727
v -37.055851 0.718348 0.239727
v -37.169426 0.698301 0.268936
v -37.052326 0.698301 0.268936
v -37.052326 0.724833 0.268936
v -37.169426 0.724833 0.268936
v -37.167885 0.700315 0.268947
v -37.053875 0.700315 0.268947
v -37.053875 0.722819 0.268947
v -37.167885 0.722819 0.268947
v -37.056908 0.702323 0.278943
v -37.056908 0.720811 0.278943
v -37.164856 0.720811 0.278943
v -37.164856 0.702323 0.278943
v -37.056908 0.702323 0.276418
v -37.056908 0.720811 0.276418
v -37.164856 0.720811 0.276418
v -37.164856 0.702323 0.276418
vt -0.153957 0.468189
vt 0.605894 0.468189
vt 0.606066 0.494823
vt -0.149576 0.494823
vt 0.634341 0.212799
vt 0.989992 0.212799
vt 0.989992 0.403696
vt 0.634341 0.403696
vt 0.256195 0.494823
vt 1.011838 0.494823
vt 1.016218 0.468189
vt 0.256367 0.468189
vt 0.638502 0.395821
vt 0.985830 0.395821
vt 0.985830 0.211072
vt 0.638502 0.211072
vt 0.608171 0.512369
vt -0.169887 0.512369
vt 1.032149 0.512369
vt 0.254090 0.512369
vt 0.608171 0.555094
vt -0.169887 0.555094
vt 1.032149 0.555094
vt 0.254090 0.555094
vt 0.648378 0.228527
vt 0.975954 0.228527
vt 0.975954 0.387967
vt 0.648378 0.387967
vt 0.652119 0.232169
vt 0.972213 0.232169
vt 0.972213 0.384326
vt 0.652119 0.384326
vt 0.653947 0.234776
vt 0.970385 0.234776
vt 0.970385 0.381719
vt 0.653947 0.381719
vt -0.150672 0.488159
vt 0.256238 0.488159
vt 1.012934 0.488159
vt 0.606023 0.488159
vt -0.152868 0.497666
vt 0.255854 0.497666
vt 1.015129 0.497666
vt 0.606407 0.497666
vt 0.321762 0.358312
vt 0.266530 0.358312
vt 0.266530 0.340568
vt 0.321762 0.340568
vt 0.359246 0.244391
vt 0.359246 0.330296
vt 0.385794 0.306751
vt 0.385794 0.257063
vt 0.359246 0.330296
vt 0.359246 0.244391
vt 0.385794 0.257063
vt 0.385794 0.306751
vt 0.568338 0.358312
vt 0.516509 0.358312
vt 0.516509 0.340568
vt 0.568338 0.340568
vt 0.377454 0.358312
vt 0.377454 0.340568
vt 0.475771 0.306751
vt 0.492232 0.330296
vt 0.492232 0.330296
vt 0.475771 0.306751
vt -0.153957 0.468189
vt -0.149576 0.494823
vt 0.606066 0.494823
vt 0.605894 0.468189
vt 0.634341 0.212799
vt 0.634341 0.403696
vt 0.989992 0.403696
vt 0.989992 0.212799
vt 0.256195 0.494823
vt 0.256367 0.468189
vt 1.016218 0.468189
vt 1.011838 0.494823
vt 0.638502 0.395821
vt 0.638502 0.211072
vt 0.985830 0.211072
vt 0.985830 0.395821
vt -0.169887 0.512369
vt 0.608171 0.512369
vt 1.032149 0.512369
vt 0.254090 0.512369
vt -0.169887 0.555094
vt 0.608171 0.555094
vt 1.032149 0.555094
vt 0.254090 0.555094
vt 0.321762 0.358312
vt 0.321762 0.340568
vt 0.266530 0.340568
vt 0.266530 0.358312
vt 0.359246 0.244391
vt 0.385794 0.257063
vt 0.385794 0.306751
vt 0.359246 0.330296
vt 0.359246 0.330296
vt 0.385794 0.306751
vt 0.385794 0.257063
vt 0.359246 0.244391
vt 0.568338 0.358312
vt 0.568338 0.340568
vt 0.516509 0.340568
vt 0.516509 0.358312
vt 0.377454 0.358312
vt 0.377454 0.340568
vt 0.492232 0.330296
vt 0.475771 0.306751
vt 0.475771 0.306751
vt 0.492232 0.330296
vt 0.321762 0.358312
vt 0.321762 0.340568
vt 0.266530 0.340568
vt 0.266530 0.358312
vt 0.359246 0.244391
vt 0.385794 0.257063
vt 0.385794 0.306751
vt 0.359246 0.330296
vt 0.359246 0.330296
vt 0.385794 0.306751
vt 0.385794 0.257063
vt 0.359246 0.244391
vt 0.568338 0.358312
vt 0.568338 0.340568
vt 0.516509 0.340568
vt 0.516509 0.358312
vt 0.377454 0.358312
vt 0.377454 0.340568
vt 0.492232 0.330296
vt 0.475771 0.306751
vt 0.475771 0.306751
vt 0.492232 0.330296
vt 0.321762 0.358312
vt 0.266530 0.358312
vt 0.266530 0.340568
vt 0.321762 0.340568
vt 0.359246 0.244391
vt 0.359246 0.330296
vt 0.385794 0.306751
vt 0.385794 0.257063
vt 0.359246 0.330296
vt 0.359246 0.244391
vt 0.385794 0.257063
vt 0.385794 0.306751
vt 0.568338 0.358312
vt 0.516509 0.358312
vt 0.516509 0.340568
vt 0.568338 0.340568
vt 0.377454 0.358312
vt 0.377454 0.340568
vt 0.475771 0.306751
vt 0.492232 0.330296
vt 0.492232 0.330296
vt 0.475771 0.306751
vt 0.321762 0.358312
vt 0.266530 0.358312
vt 0.266530 0.340568
vt 0.321762 0.340568
vt 0.359246 0.244391
vt 0.359246 0.330296
vt 0.385794 0.306751
vt 0.385794 0.257063
vt 0.359246 0.330296
vt 0.359246 0.244391
vt 0.385794 0.257063
vt 0.385794 0.306751
vt 0.568338 0.358312
vt 0.516509 0.358312
vt 0.516509 0.340568
vt 0.568338 0.340568
vt 0.377454 0.358312
vt 0.377454 0.340568
vt 0.475771 0.306751
vt 0.492232 0.330296
vt 0.492232 0.330296
vt 0.475771 0.306751
vt 0.321762 0.358312
vt 0.321762 0.340568
vt 0.266530 0.340568
vt 0.266530 0.358312
vt 0.359246 0.244391
vt 0.385794 0.257063
vt 0.385794 0.306751
vt 0.359246 0.330296
vt 0.359246 0.330296
vt 0.385794 0.306751
vt 0.385794 0.257063
vt 0.359246 0.244391
vt 0.568338 0.358312
vt 0.568338 0.340568
vt 0.516509 0.340568
vt 0.516509 0.358312
vt 0.377454 0.358312
vt 0.377454 0.340568
vt 0.492232 0.330296
vt 0.475771 0.306751
vt 0.475771 0.306751
vt 0.492232 0.330296
vt 0.321762 0.358312
vt 0.266530 0.358312
vt 0.266530 0.340568
vt 0.321762 0.340568
vt 0.359246 0.244391
vt 0.359246 0.330296
vt 0.385794 0.306751
vt 0.385794 0.257063
vt 0.359246 0.330296
vt 0.359246 0.244391
vt 0.385794 0.257063
vt 0.385794 0.306751
vt 0.568338 0.358312
vt 0.516509 0.358312
vt 0.516509 0.340568
vt 0.568338 0.340568
vt 0.377454 0.358312
vt 0.377454 0.340568
vt 0.475771 0.306751
vt 0.492232 0.330296
vt 0.492232 0.330296
vt 0.475771 0.306751
vt 0.321762 0.358312
vt 0.321762 0.340568
vt 0.266530 0.340568
vt 0.266530 0.358312
vt 0.359246 0.244391
vt 0.385794 0.257063
vt 0.385794 0.306751
vt 0.359246 0.330296
vt 0.359246 0.330296
vt 0.385794 0.306751
vt 0.385794 0.257063
vt 0.359246 0.244391
vt 0.568338 0.358312
vt 0.568338 0.340568
vt 0.516509 0.340568
vt 0.516509 0.358312
vt 0.377454 0.358312
vt 0.377454 0.340568
vt 0.492232 0.330296
vt 0.475771 0.306751
vt 0.475771 0.306751
vt 0.492232 0.330296
vt -0.309773 0.346671
vt 0.516439 0.346671
vt 0.516439 0.144121
vt -0.309773 0.144121
vt 1.560551 0.227067
vt 1.560551 0.392299
vt 1.216852 0.392299
vt 1.216853 0.227067
vt -0.309773 0.144121
vt 0.516439 0.144121
vt 0.516439 0.346671
vt -0.309773 0.346671
vt 1.309772 0.144121
vt 1.309772 0.346671
vt 1.309772 0.346671
vt 1.309772 0.144121
vt 1.560551 0.227067
vt 1.216853 0.227067
vt 1.216852 0.392299
vt 1.560551 0.392299
vt 0.263508 0.794801
vt 0.263508 0.863880
vt 0.763178 0.794801
vt 0.763178 0.863880
vt 0.757374 0.800766
vt 0.757373 0.857916
vt 0.269312 0.857916
vt 0.269312 0.800766
vt 0.235444 0.777354
vt 0.235444 0.881328
vt 0.186468 0.874570
vt 0.186468 0.784112
vt 0.840218 0.784112
vt 0.840218 0.874570
vt 0.791242 0.881328
vt 0.791243 0.777354
vt 0.786733 0.906959
vt 0.239953 0.906959
vt 0.786733 0.751722
vt 0.239953 0.751722
vt 0.786029 0.747720
vt 0.240657 0.747720
vt 0.847864 0.785167
vt 0.847864 0.873514
vt 0.786029 0.910961
vt 0.240657 0.910961
vt 0.178822 0.873514
vt 0.178822 0.785167
vt 0.773570 0.676905
vt 0.253116 0.676904
vt 0.983174 0.803838
vt 0.983174 0.854843
vt 0.773570 0.981777
vt 0.253116 0.981777
vt 0.043512 0.854842
vt 0.043512 0.803838
vt 0.763178 0.863880
vt 0.763178 0.794801
vt 0.263508 0.863880
vt 0.263508 0.794801
vt 0.757374 0.800766
vt 0.757373 0.857916
vt 0.269312 0.857916
vt 0.269312 0.800766
vt 0.235444 0.777354
vt 0.235444 0.881328
vt 0.186468 0.874570
vt 0.186468 0.784112
vt 0.840218 0.784112
vt 0.840218 0.874570
vt 0.791242 0.881328
vt 0.791243 0.777354
vt 0.786733 0.906959
vt 0.239953 0.906959
vt 0.786733 0.751722
vt 0.239953 0.751722
vt 0.786029 0.747720
vt 0.240657 0.747720
vt 0.847864 0.785167
vt 0.847864 0.873514
vt 0.786029 0.910961
vt 0.240657 0.910961
vt 0.178822 0.873514
vt 0.178822 0.785167
vt 0.773570 0.676905
vt 0.253116 0.676904
vt 0.983174 0.803838
vt 0.983174 0.854843
vt 0.773570 0.981777
vt 0.253116 0.981777
vt 0.043512 0.854842
vt 0.043512 0.803838
vt 0.763178 0.863880
vt 0.763178 0.794801
vt 0.263508 0.863880
vt 0.263508 0.794801
vt 1.547970 0.063951
vt 1.547970 0.006710
vt 1.001261 0.006710
vt 1.001261 0.063951
vt 1.001261 0.126302
vt 1.001261 0.066671
vt 1.547970 0.066671
vt 1.547970 0.126302
vt 0.565915 0.333005
vt 0.615373 0.333005
vt 0.615373 0.283143
vt 0.563692 0.281323
vt 1.547970 0.006710
vt 1.547970 0.066671
vt 1.001261 0.066671
vt 1.001261 0.006710
vt 1.547970 0.127093
vt 1.547970 0.063951
vt 1.001261 0.063951
vt 1.001261 0.127093
vt 0.565915 0.333005
vt 0.615373 0.333005
vt 0.615373 0.283143
vt 0.563692 0.281323
vt 1.547970 0.127093
vt 1.547970 0.063951
vt 0.994681 0.063951
vt 0.994681 0.127093
vt 1.547970 0.063951
vt 1.547970 0.006710
vt 0.994681 0.006710
vt 0.994681 0.063951
vt 1.547970 0.006710
vt 1.547970 0.066671
vt 0.994681 0.066671
vt 0.994681 0.006710
vt 0.994681 0.126302
vt 0.994681 0.066671
vt 1.547970 0.066671
vt 1.547970 0.126302
vt 1.547970 0.063951
vt 1.547970 0.006710
vt 0.989951 0.006710
vt 0.989951 0.063951
vt 0.989951 0.126302
vt 0.989951 0.066671
vt 1.547970 0.066671
vt 1.547970 0.126302
vt 0.565915 0.333005
vt 0.615373 0.333005
vt 0.615373 0.283143
vt 0.563692 0.281323
vt 1.547970 0.006710
vt 1.547970 0.066671
vt 0.989951 0.066671
vt 0.989951 0.006710
vt 1.547970 0.127093
vt 1.547970 0.063951
vt 0.989951 0.063951
vt 0.989951 0.127093
vt 0.565915 0.333005
vt 0.615373 0.333005
vt 0.615373 0.283143
vt 0.563692 0.281323
vt 1.001824 0.126302
vt 1.001824 0.066671
vt 1.547970 0.066671
vt 1.547970 0.126302
vt 1.547970 0.127093
vt 1.547970 0.063951
vt 1.001824 0.063951
vt 1.001824 0.127093
vt 1.547970 0.063951
vt 1.547970 0.006710
vt 1.001824 0.006710
vt 1.001824 0.063951
vt 1.547970 0.006710
vt 1.547970 0.066671
vt 1.001824 0.066671
vt 1.001824 0.006710
vt 0.757374 0.800766
vt 0.757373 0.857916
vt 0.269312 0.857916
vt 0.269312 0.800766
vt 0.235444 0.777354
vt 0.235444 0.881328
vt 0.186468 0.874570
vt 0.186468 0.784112
vt 0.840218 0.784112
vt 0.840218 0.874570
vt 0.791242 0.881328
vt 0.791243 0.777354
vt 0.786733 0.906959
vt 0.239953 0.906959
vt 0.786733 0.751722
vt 0.239953 0.751722
vt 0.786029 0.747720
vt 0.240657 0.747720
vt 0.847864 0.785167
vt 0.847864 0.873514
vt 0.786029 0.910961
vt 0.240657 0.910961
vt 0.178822 0.873514
vt 0.178822 0.785167
vt 0.773570 0.676905
vt 0.253116 0.676904
vt 0.983174 0.803838
vt 0.983174 0.854843
vt 0.773570 0.981777
vt 0.253116 0.981777
vt 0.043512 0.854842
vt 0.043512 0.803838
vn 0.000000 0.084584 0.996416
vn 0.000000 0.084584 0.996416
vn 0.000000 0.221748 0.975104
vn 0.000000 0.221748 0.975104
vn 0.000000 1.000000 0.000000
vn 0.000000 1.000000 0.000000
vn 0.000000 1.000000 0.000000
vn 0.000000 1.000000 0.000000
vn 0.000000 0.221969 -0.975054
vn 0.000000 0.221969 -0.975054
vn 0.000000 0.084602 -0.996415
vn 0.000000 0.084602 -0.996415
vn 0.000000 -1.000000 0.000000
vn 0.000000 -1.000000 0.000000
vn 0.000000 -1.000000 0.000000
vn 0.000000 -1.000000 0.000000
vn 0.996932 0.078275 0.000000
vn 0.996932 0.078275 0.000000
vn 0.978265 0.207360 0.000000
vn 0.978265 0.207360 0.000000
vn -0.996970 0.077792 0.000000
vn -0.996970 0.077792 0.000000
vn -0.977901 0.209067 0.000000
vn -0.977901 0.209067 0.000000
vn 0.000000 -0.772235 0.635337
vn 0.000000 -0.772235 0.635337
vn 0.000000 -0.632015 0.774956
vn 0.000000 -0.632015 0.774956
vn 0.783678 -0.621167 0.000000
vn 0.783678 -0.621167 0.000000
vn 0.784786 -0.619767 0.000000
vn 0.784786 -0.619767 0.000000
vn 0.000000 -0.772277 -0.635286
vn 0.000000 -0.772277 -0.635286
vn 0.000000 -0.632021 -0.774951
vn 0.000000 -0.632021 -0.774951
vn -0.783726 -0.621106 0.000000
vn -0.783726 -0.621106 0.000000
vn -0.784800 -0.619749 0.000000
vn -0.784800 -0.619749 0.000000
vn 0.000000 0.000000 1.000000
vn 0.000000 0.000000 1.000000
vn 0.000000 0.000000 1.000000
vn 0.000000 0.000000 1.000000
vn 1.000000 0.000000 0.000000
vn 1.000000 0.000000 0.000000
vn 1.000000 0.000000 0.000000
vn 1.000000 0.000000 0.000000
vn 0.000000 0.000000 -1.000000
vn 0.000000 0.000000 -1.000000
vn 0.000000 0.000000 -1.000000
vn 0.000000 0.000000 -1.000000
vn -1.000000 0.000000 0.000000
vn -1.000000 0.000000 0.000000
vn -1.000000 0.000000 0.000000
vn -1.000000 0.000000 0.000000
vn 0.000000 1.000000 0.000000
vn 0.000000 1.000000 0.000000
vn 0.000000 1.000000 0.000000
vn 0.000000 1.000000 0.000000
vn 0.000000 1.000000 0.000000
vn 0.000000 1.000000 0.000000
vn 0.000000 1.000000 0.000000
vn 0.000000 1.000000 0.000000
vn 0.000000 0.175495 -0.984480
vn 0.000000 0.175495 -0.984480
vn 0.000000 0.175495 -0.984480
vn 0.000000 0.175495 -0.984480
vn -0.957118 0.289697 0.000000
vn -0.957118 0.289697 0.000000
vn -0.957118 0.289697 0.000000
vn -0.957118 0.289697 0.000000
vn 0.000000 0.175429 0.984492
vn 0.000000 0.175429 0.984492
vn 0.000000 0.175429 0.984492
vn 0.000000 0.175429 0.984492
vn 0.956987 0.290131 0.000000
vn 0.956987 0.290131 0.000000
vn 0.956987 0.290131 0.000000
vn 0.956987 0.290131 0.000000
vn 0.000000 0.123686 0.992322
vn 0.000000 0.123686 0.992322
vn 0.000000 0.123686 0.992322
vn 0.000000 0.123686 0.992322
vn 0.969383 0.245552 0.000000
vn 0.969383 0.245552 0.000000
vn 0.969383 0.245552 0.000000
vn 0.969383 0.245552 0.000000
vn 0.000000 0.123751 -0.992313
vn 0.000000 0.123751 -0.992313
vn 0.000000 0.123751 -0.992313
vn 0.000000 0.123751 -0.992313
vn -0.969605 0.244674 0.000000
vn -0.969605 0.244674 0.000000
vn -0.969605 0.244674 0.000000
vn -0.969605 0.244674 0.000000
vn -0.941625 0.336663 0.000000
vn -0.941625 0.336663 0.000000
vn 0.000000 0.355047 -0.934848
vn 0.000000 0.355047 -0.934848
vn 0.942956 0.332917 0.000000
vn 0.942956 0.332917 0.000000
vn 0.000000 0.354640 0.935003
vn 0.000000 0.354640 0.935003
vn -0.785872 -0.618389 0.000000
vn -0.785872 -0.618389 0.000000
vn 0.000000 -0.467005 -0.884255
vn 0.000000 -0.467005 -0.884255
vn 0.785892 -0.618364 0.000000
vn 0.785892 -0.618364 0.000000
vn 0.000000 -0.467049 0.884232
vn 0.000000 -0.467049 0.884232
vn 0.438182 -0.898886 0.000000
vn 0.438182 -0.898886 0.000000
vn 0.438182 -0.898886 0.000000
vn 0.438182 -0.898886 0.000000
vn 0.000000 0.000000 -1.000000
vn 0.000000 0.000000 -1.000000
vn 0.000000 0.000000 -1.000000
vn 0.000000 0.000000 -1.000000
vn -0.000000 0.000000 1.000000
vn -0.000000 0.000000 1.000000
vn -0.000000 0.000000 1.000000
vn -0.000000 0.000000 1.000000
vn 0.825164 -0.564893 0.000000
vn 0.825164 -0.564893 0.000000
vn 0.825164 -0.564893 0.000000
vn 0.825164 -0.564893 0.000000
vn 1.000000 0.000000 0.000000
vn 1.000000 0.000000 0.000000
vn 1.000000 0.000000 0.000000
vn 1.000000 0.000000 0.000000
vn 0.000000 0.000000 1.000000
vn 0.000000 0.000000 1.000000
vn 0.000000 -1.000000 0.000000
vn 0.000000 -1.000000 0.000000
vn 0.000000 -1.000000 0.000000
vn 0.000000 -1.000000 0.000000
vn 0.000000 0.000000 -1.000000
vn 0.000000 0.000000 -1.000000
vn 0.000000 -0.130360 0.991467
vn 0.000000 -0.130360 0.991467
vn 0.000000 -0.130360 0.991467
vn 0.000000 -0.130360 0.991467
vn 0.000000 -1.000000 0.000000
vn 0.000000 -1.000000 0.000000
vn 0.000000 -1.000000 0.000000
vn 0.000000 -1.000000 0.000000
vn 0.000000 -0.130423 -0.991458
vn 0.000000 -0.130423 -0.991458
vn 0.000000 -0.130423 -0.991458
vn 0.000000 -0.130423 -0.991458
vn 0.000000 1.000000 0.000000
vn 0.000000 1.000000 0.000000
vn 0.000000 1.000000 0.000000
vn 0.000000 1.000000 0.000000
vn 0.992666 -0.120889 0.000000
vn 0.992666 -0.120889 0.000000
vn 0.992666 -0.120889 0.000000
vn 0.992666 -0.120889 0.000000
vn -0.992686 -0.120726 0.000000
vn -0.992686 -0.120726 0.000000
vn -0.992686 -0.120726 0.000000
vn -0.992686 -0.120726 0.000000
vn 0.000000 0.623893 0.781510
vn 0.000000 0.623893 0.781510
vn 0.000000 0.623893 0.781510
vn 0.000000 0.623893 0.781510
vn 0.713004 0.701160 0.000000
vn 0.713004 0.701160 0.000000
vn 0.713004 0.701160 0.000000
vn 0.713004 0.701160 0.000000
vn 0.000000 0.623877 -0.781523
vn 0.000000 0.623877 -0.781523
vn 0.000000 0.623877 -0.781523
vn 0.000000 0.623877 -0.781523
vn -0.713004 0.701160 0.000000
vn -0.713004 0.701160 0.000000
vn -0.713004 0.701160 0.000000
vn -0.713004 0.701160 0.000000
vn 0.000000 0.000000 1.000000
vn 0.000000 0.000000 1.000000
vn 0.000000 0.000000 1.000000
vn 0.000000 0.000000 1.000000
vn 1.000000 0.000000 0.000000
vn 1.000000 0.000000 0.000000
vn 1.000000 0.000000 0.000000
vn 1.000000 0.000000 0.000000
vn 0.000000 0.000000 -1.000000
vn 0.000000 0.000000 -1.000000
vn 0.000000 0.000000 -1.000000
vn 0.000000 0.000000 -1.000000
vn -1.000000 0.000000 0.000000
vn -1.000000 0.000000 0.000000
vn -1.000000 0.000000 0.000000
vn -1.000000 0.000000 0.000000
vn -0.438250 -0.898853 0.000000
vn -0.438250 -0.898853 0.000000
vn -0.438250 -0.898853 0.000000
vn -0.438250 -0.898853 0.000000
vn 0.000000 0.000000 -1.000000
vn 0.000000 0.000000 -1.000000
vn 0.000000 0.000000 -1.000000
vn 0.000000 0.000000 -1.000000
vn 0.000000 0.000000 1.000000
vn 0.000000 0.000000 1.000000
vn 0.000000 0.000000 1.000000
vn 0.000000 0.000000 1.000000
vn -0.825354 -0.564616 0.000000
vn -0.825354 -0.564616 0.000000
vn -0.825354 -0.564616 0.000000
vn -0.825354 -0.564616 0.000000
vn -1.000000 0.000000 0.000000
vn -1.000000 0.000000 0.000000
vn -1.000000 0.000000 0.000000
vn -1.000000 0.000000 0.000000
vn 0.000000 0.000000 1.000000
vn 0.000000 0.000000 1.000000
vn 0.000000 -1.000000 0.000000
vn 0.000000 -1.000000 0.000000
vn 0.000000 -1.000000 0.000000
vn 0.000000 -1.000000 0.000000
vn 0.000000 0.000000 -1.000000
vn 0.000000 0.000000 -1.000000
vn -0.438264 -0.898846 0.000000
vn -0.438264 -0.898846 0.000000
vn -0.438264 -0.898846 0.000000
vn -0.438264 -0.898846 0.000000
vn 0.000000 0.000000 -1.000000
vn 0.000000 0.000000 -1.000000
vn 0.000000 0.000000 -1.000000
vn 0.000000 0.000000 -1.000000
vn -0.000000 0.000000 1.000000
vn -0.000000 0.000000 1.000000
vn -0.000000 0.000000 1.000000
vn -0.000000 0.000000 1.000000
vn -0.825337 -0.564641 0.000000
vn -0.825337 -0.564641 0.000000
vn -0.825337 -0.564641 0.000000
vn -0.825337 -0.564641 0.000000
vn -1.000000 0.000000 0.000000
vn -1.000000 0.000000 0.000000
vn -1.000000 0.000000 0.000000
vn -1.000000 0.000000 0.000000
vn 0.000000 0.000000 1.000000
vn 0.000000 0.000000 1.000000
vn 0.000000 -1.000000 0.000000
vn 0.000000 -1.000000 0.000000
vn 0.000000 -1.000000 0.000000
vn 0.000000 -1.000000 0.000000
vn 0.000000 0.000000 -1.000000
vn 0.000000 0.000000 -1.000000
vn 0.438196 -0.898879 0.000000
vn 0.438196 -0.898879 0.000000
vn 0.438196 -0.898879 0.000000
vn 0.438196 -0.898879 0.000000
vn 0.000000 0.000000 -1.000000
vn 0.000000 0.000000 -1.000000
vn 0.000000 0.000000 -1.000000
vn 0.000000 0.000000 -1.000000
vn 0.000000 0.000000 1.000000
vn 0.000000 0.000000 1.000000
vn 0.000000 0.000000 1.000000
vn 0.000000 0.000000 1.000000
vn 0.825174 -0.564878 0.000000
vn 0.825174 -0.564878 0.000000
vn 0.825174 -0.564878 0.000000
vn 0.825174 -0.564878 0.000000
vn 1.000000 0.000000 0.000000
vn 1.000000 0.000000 0.000000
vn 1.000000 0.000000 0.000000
vn 1.000000 0.000000 0.000000
vn 0.000000 0.000000 1.000000
vn 0.000000 0.000000 1.000000
vn 0.000000 -1.000000 0.000000
vn 0.000000 -1.000000 0.000000
vn 0.000000 -1.000000 0.000000
vn 0.000000 -1.000000 0.000000
vn 0.000000 0.000000 -1.000000
vn 0.000000 0.000000 -1.000000
vn 0.000000 -0.898849 -0.438258
vn 0.000000 -0.898849 -0.438258
vn 0.000000 -0.898849 -0.438258
vn 0.000000 -0.898849 -0.438258
vn -1.000000 0.000000 0.000000
vn -1.000000 0.000033 0.000000
vn -1.000000 0.000033 0.000000
vn -1.000000 0.000000 0.000000
vn 1.000000 0.000000 0.000000
vn 1.000000 0.000000 0.000000
vn 1.000000 0.000000 0.000000
vn 1.000000 0.000000 0.000000
vn 0.000000 -0.564840 -0.825201
vn 0.000000 -0.564840 -0.825201
vn 0.000000 -0.564840 -0.825201
vn 0.000000 -0.564840 -0.825201
vn 0.000000 0.000000 -1.000000
vn 0.000000 0.000000 -1.000000
vn 0.000000 0.000000 -1.000000
vn 0.000000 0.000000 -1.000000
vn 1.000000 0.000000 0.000000
vn 1.000000 0.000000 0.000000
vn 0.000000 -1.000000 0.000000
vn 0.000000 -1.000000 0.000000
vn 0.000000 -1.000000 0.000000
vn 0.000000 -1.000000 0.000000
vn -1.000000 0.000065 0.000000
vn -1.000000 0.000065 0.000000
vn 0.000000 -0.898871 0.438213
vn 0.000000 -0.898871 0.438213
vn 0.000000 -0.898871 0.438213
vn 0.000000 -0.898871 0.438213
vn -1.000000 0.000000 0.000000
vn -1.000000 0.000000 0.000000
vn -1.000000 -0.000033 0.000000
vn -1.000000 -0.000033 0.000000
vn 1.000000 -0.000065 0.000000
vn 1.000000 -0.000065 0.000000
vn 1.000000 0.000000 0.000000
vn 1.000000 0.000000 0.000000
vn 0.000000 -0.564800 0.825228
vn 0.000000 -0.564800 0.825228
vn 0.000000 -0.564800 0.825228
vn 0.000000 -0.564800 0.825228
vn 0.000000 0.000000 1.000000
vn 0.000000 0.000000 1.000000
vn 0.000000 0.000000 1.000000
vn 0.000000 0.000000 1.000000
vn 1.000000 -0.000130 0.000000
vn 1.000000 -0.000130 0.000000
vn 0.000000 -1.000000 0.000000
vn 0.000000 -1.000000 0.000000
vn 0.000000 -1.000000 0.000000
vn 0.000000 -1.000000 0.000000
vn -1.000000 -0.000065 0.000000
vn -1.000000 -0.000065 0.000000
vn 0.000000 -0.898862 -0.438232
vn 0.000000 -0.898862 -0.438232
vn 0.000000 -0.898862 -0.438232
vn 0.000000 -0.898862 -0.438232
vn -1.000000 0.000000 0.000000
vn -1.000000 0.000033 0.000000
vn -1.000000 0.000033 0.000000
vn -1.000000 0.000000 0.000000
vn 1.000000 0.000000 0.000000
vn 1.000000 0.000000 0.000000
vn 1.000000 0.000000 0.000000
vn 1.000000 0.000000 0.000000
vn 0.000000 -0.564840 -0.825201
vn 0.000000 -0.564840 -0.825201
vn 0.000000 -0.564840 -0.825201
vn 0.000000 -0.564840 -0.825201
vn 0.000000 0.000000 -1.000000
vn 0.000000 0.000000 -1.000000
vn 0.000000 0.000000 -1.000000
vn 0.000000 0.000000 -1.000000
vn 1.000000 0.000000 0.000000
vn 1.000000 0.000000 0.000000
vn 0.000000 -1.000000 0.000000
vn 0.000000 -1.000000 0.000000
vn 0.000000 -1.000000 0.000000
vn 0.000000 -1.000000 0.000000
vn -1.000000 0.000065 0.000000
vn -1.000000 0.000065 0.000000
vn 0.000000 -0.898862 0.438232
vn 0.000000 -0.898862 0.438232
vn 0.000000 -0.898862 0.438232
vn 0.000000 -0.898862 0.438232
vn -1.000000 0.000000 0.000000
vn -1.000000 0.000000 0.000000
vn -1.000000 0.000000 0.000000
vn -1.000000 0.000000 0.000000
vn 1.000000 -0.000033 0.000000
vn 1.000000 -0.000033 0.000000
vn 1.000000 0.000000 0.000000
vn 1.000000 0.000000 0.000000
vn 0.000000 -0.564800 0.825228
vn 0.000000 -0.564800 0.825228
vn 0.000000 -0.564800 0.825228
vn 0.000000 -0.564800 0.825228
vn 0.000000 0.000000 1.000000
vn 0.000000 0.000000 1.000000
vn 0.000000 0.000000 1.000000
vn 0.000000 0.000000 1.000000
vn 1.000000 -0.000065 0.000000
vn 1.000000 -0.000065 0.000000
vn 0.000000 -1.000000 0.000000
vn 0.000000 -1.000000 0.000000
vn 0.000000 -1.000000 0.000000
vn 0.000000 -1.000000 0.000000
vn -1.000000 0.000000 0.000000
vn -1.000000 0.000000 0.000000
vn 0.000000 0.000000 -1.000000
vn 0.000000 0.000000 -1.000000
vn 0.000000 0.000000 -1.000000
vn 0.000000 0.000000 -1.000000
vn -1.000000 0.000000 0.000000
vn -1.000000 0.000000 0.000000
vn -1.000000 0.000000 0.000000
vn -1.000000 0.000000 0.000000
vn 0.000000 0.000000 1.000000
vn 0.000000 0.000000 1.000000
vn 0.000000 0.000000 1.000000
vn 0.000000 0.000000 1.000000
vn 0.000000 0.000000 1.000000
vn 0.000000 0.000000 1.000000
vn 0.000000 0.000000 1.000000
vn 0.000000 0.000000 1.000000
vn 1.000000 0.000000 0.000000
vn 1.000000 0.000000 0.000000
vn 1.000000 0.000000 0.000000
vn 1.000000 0.000000 0.000000
vn 0.000000 0.000000 -1.000000
vn 0.000000 0.000000 -1.000000
vn 0.000000 0.000000 -1.000000
vn 0.000000 0.000000 -1.000000
vn -0.577350 0.577350 -0.577350
vn -0.577350 -0.577350 -0.577350
vn -0.577350 -0.577350 0.577350
vn -0.577350 0.577350 0.577350
vn -0.805458 -0.418931 -0.419206
vn -0.805458 0.418931 -0.419206
vn 0.829083 0.395668 -0.395055
vn 0.828970 -0.395958 -0.395000
vn 0.828970 -0.395958 0.395000
vn 0.829083 0.395668 0.395055
vn -0.805458 0.418931 0.419206
vn -0.805458 -0.418931 0.419206
vn 0.846854 -0.374999 0.377113
vn 0.846854 -0.374999 -0.377114
vn 0.846957 0.374718 0.377162
vn 0.846956 0.374718 -0.377162
vn 0.153712 -0.695445 0.701947
vn 0.153712 -0.695444 -0.701948
vn 0.153704 0.695446 0.701948
vn 0.153704 0.695446 -0.701948
vn -0.816801 -0.407811 -0.408076
vn -0.816801 0.407811 -0.408076
vn -0.816801 -0.407811 0.408076
vn -0.816801 0.407811 0.408076
vn 0.577350 0.577350 -0.577350
vn 0.577350 0.577350 0.577350
vn 0.577350 -0.577350 0.577350
vn 0.577350 -0.577350 -0.577350
vn 0.805783 -0.418483 -0.419029
vn -0.829215 -0.395316 -0.395130
vn -0.829229 0.395278 -0.395137
vn 0.805783 0.418483 -0.419029
vn -0.829215 -0.395316 0.395130
vn 0.805783 -0.418483 0.419029
vn 0.805783 0.418483 0.419029
vn -0.829229 0.395278 0.395138
vn -0.847087 -0.374365 0.377219
vn -0.847087 -0.374365 -0.377220
vn -0.847099 0.374330 0.377227
vn -0.847099 0.374330 -0.377227
vn -0.153712 -0.695445 0.701947
vn -0.153712 -0.695444 -0.701948
vn -0.153703 0.695446 0.701948
vn -0.153703 0.695446 -0.701948
vn 0.816497 0.408248 -0.408248
vn 0.816497 -0.408248 -0.408248
vn 0.816497 -0.408248 0.408248
vn 0.816497 0.408248 0.408248
vn 0.035193 -0.000000 0.999381
vn 0.035193 -0.000000 0.999381
vn 0.035193 -0.000000 0.999381
vn 0.035193 -0.000000 0.999381
vn 0.000000 0.000000 -1.000000
vn 0.000000 0.000000 -1.000000
vn 0.000000 0.000000 -1.000000
vn 0.000000 0.000000 -1.000000
vn 0.000000 -1.000000 -0.000000
vn 0.000000 -1.000000 -0.000000
vn 0.000000 -1.000000 -0.000000
vn 0.000000 -1.000000 -0.000000
vn 1.000000 0.000000 0.000000
vn 1.000000 0.000000 0.000000
vn 1.000000 0.000000 0.000000
vn 1.000000 0.000000 0.000000
vn -0.999077 0.000000 -0.042950
vn -0.999077 0.000000 -0.042950
vn -0.999077 0.000000 -0.042950
vn -0.999077 0.000000 -0.042950
vn 0.000000 -1.000000 0.000000
vn 0.000000 -1.000000 0.000000
vn 0.000000 -1.000000 0.000000
vn 0.000000 -1.000000 0.000000
vn -0.999077 -0.000004 0.042949
vn -0.999077 -0.000004 0.042949
vn -0.999077 -0.000004 0.042949
vn -0.999077 -0.000004 0.042949
vn 0.000000 0.000000 1.000000
vn 0.000000 0.000000 1.000000
vn 0.000000 0.000000 1.000000
vn 0.000000 0.000000 1.000000
vn 1.000000 0.000000 0.000000
vn 1.000000 0.000000 0.000000
vn 1.000000 0.000000 0.000000
vn 1.000000 0.000000 0.000000
vn 0.035205 -0.000002 -0.999380
vn 0.035205 -0.000002 -0.999380
vn 0.035205 -0.000002 -0.999380
vn 0.035205 -0.000002 -0.999380
vn -0.035194 -0.000000 0.999381
vn -0.035194 -0.000000 0.999381
vn -0.035194 -0.000000 0.999381
vn -0.035194 -0.000000 0.999381
vn 0.000000 0.000000 -1.000000
vn 0.000000 0.000000 -1.000000
vn 0.000000 0.000000 -1.000000
vn 0.000000 0.000000 -1.000000
vn 0.000000 -1.000000 0.000000
vn 0.000000 -1.000000 0.000000
vn 0.000000 -1.000000 0.000000
vn 0.000000 -1.000000 0.000000
vn 0.999074 -0.000001 -0.043015
vn 0.999074 -0.000001 -0.043015
vn 0.999074 -0.000001 -0.043015
vn 0.999074 -0.000001 -0.043015
vn -1.000000 0.000008 0.000000
vn -1.000000 0.000008 0.000000
vn -1.000000 0.000008 0.000000
vn -1.000000 0.000008 0.000000
vn 0.000000 -1.000000 0.000000
vn 0.000000 -1.000000 0.000000
vn 0.000000 -1.000000 0.000000
vn 0.000000 -1.000000 0.000000
vn -0.035189 0.000000 -0.999381
vn -0.035189 0.000000 -0.999381
vn -0.035189 0.000000 -0.999381
vn -0.035189 0.000000 -0.999381
vn -1.000000 0.000000 0.000000
vn -1.000000 0.000000 0.000000
vn -1.000000 0.000000 0.000000
vn -1.000000 0.000000 0.000000
vn 0.000000 0.000002 1.000000
vn 0.000000 0.000002 1.000000
vn 0.000000 0.000002 1.000000
vn 0.000000 0.000002 1.000000
vn 0.999074 -0.000002 0.043015
vn 0.999074 -0.000002 0.043015
vn 0.999074 -0.000002 0.043015
vn 0.999074 -0.000002 0.043015
vn -0.577350 0.577350 0.577350
vn -0.577350 -0.577350 0.577350
vn 0.577350 -0.577350 0.577350
vn 0.577350 0.577350 0.577350
vn -0.419078 -0.418535 0.805730
vn -0.419078 0.418535 0.805730
vn -0.395858 0.396006 -0.828538
vn -0.395858 -0.396006 -0.828539
vn 0.395921 -0.396053 -0.828486
vn 0.395921 0.396053 -0.828486
vn 0.419028 0.418481 0.805785
vn 0.419028 -0.418481 0.805785
vn 0.377939 -0.375044 -0.846466
vn -0.377949 -0.375061 -0.846454
vn 0.377941 0.375046 -0.846464
vn -0.377950 0.375063 -0.846453
vn 0.701922 -0.695429 -0.153897
vn -0.701936 -0.695435 -0.153807
vn 0.701922 0.695430 -0.153888
vn -0.701935 0.695437 -0.153799
vn -0.408221 -0.408220 0.816525
vn -0.408221 0.408220 0.816525
vn 0.408221 -0.408220 0.816524
vn 0.408221 0.408220 0.816524
s 1
g polySurface7566
f 1/1/1 2/2/2 32/40/3 29/37/4
s off
f 25/33/5 26/34/6 27/35/7 28/36/8
s 3
f 30/38/9 31/39/10 8/11/11 7/12/12
s off
f 7/13/13 8/14/14 2/15/15 1/16/16
s 5
f 2/2/17 8/11/18 31/39/19 32/40/20
s 6
f 7/12/21 1/1/22 29/37/23 30/38/24
s 7
f 3/4/25 4/3/26 36/44/27 33/41/28
s 8
f 4/3/29 6/10/30 35/43/31 36/44/32
s 9
f 6/10/33 5/9/34 34/42/35 35/43/36
s 10
f 5/9/37 3/4/38 33/41/39 34/42/40
s off
f 9/18/41 10/17/42 14/21/43 13/22/44
f 10/17/45 11/19/46 15/23/47 14/21/48
f 11/19/49 12/20/50 16/24/51 15/23/52
f 12/20/53 9/18/54 13/22/55 16/24/56
s 15
f 13/5/57 14/6/58 18/26/59 17/25/60
f 14/6/58 15/7/61 19/27/62 18/26/59
f 15/7/61 16/8/63 20/28/64 19/27/62
f 16/8/63 13/5/57 17/25/60 20/28/64
s off
f 17/25/65 18/26/66 22/30/67 21/29/68
f 18/26/69 19/27/70 23/31/71 22/30/72
f 19/27/73 20/28/74 24/32/75 23/31/76
f 20/28/77 17/25/78 21/29/79 24/32/80
f 21/29/81 22/30/82 26/34/83 25/33/84
f 22/30/85 23/31/86 27/35/87 26/34/88
f 23/31/89 24/32/90 28/36/91 27/35/92
f 24/32/93 21/29/94 25/33/95 28/36/96
s 6
f 30/38/24 29/37/23 3/4/97 5/9/98
s 3
f 5/9/99 6/10/100 31/39/10 30/38/9
s 5
f 32/40/20 31/39/19 6/10/101 4/3/102
s 1
f 29/37/4 32/40/3 4/3/103 3/4/104
s 10
f 34/42/40 33/41/39 9/18/105 12/20/106
s 9
f 35/43/36 34/42/35 12/20/107 11/19/108
s 8
f 36/44/32 35/43/31 11/19/109 10/17/110
s 7
f 33/41/28 36/44/27 10/17/111 9/18/112
s off
f 37/45/113 38/46/114 40/47/115 39/48/116
s 25
f 40/49/117 42/50/118 41/51/119 39/52/120
s 26
f 43/53/121 38/54/122 37/55/123 44/56/124
s off
f 45/57/125 46/58/126 47/59/127 48/60/128
f 44/61/129 37/45/130 39/48/131 41/62/132
s 26
f 43/53/121 44/56/124 46/63/133 45/64/134
s off
f 44/61/135 41/62/136 47/59/137 46/58/138
s 25
f 41/51/119 42/50/118 48/65/139 47/66/140
s off
f 49/67/141 51/68/142 52/69/143 50/70/144
f 61/71/145 64/72/146 63/73/147 62/74/148
f 53/75/149 55/76/150 56/77/151 54/78/152
f 55/79/153 49/80/154 50/81/155 56/82/156
f 50/70/157 52/69/158 54/78/159 56/77/160
f 55/76/161 53/75/162 51/68/163 49/67/164
f 51/68/165 57/83/166 58/84/167 52/69/168
f 52/69/169 58/84/170 59/85/171 54/78/172
f 54/78/173 59/85/174 60/86/175 53/75/176
f 53/75/177 60/86/178 57/83/179 51/68/180
f 57/83/181 61/87/182 62/88/183 58/84/184
f 58/84/185 62/88/186 63/89/187 59/85/188
f 59/85/189 63/89/190 64/90/191 60/86/192
f 60/86/193 64/90/194 61/87/195 57/83/196
f 65/91/197 67/92/198 68/93/199 66/94/200
s 45
f 68/95/201 67/96/202 69/97/203 70/98/204
s 46
f 71/99/205 72/100/206 65/101/207 66/102/208
s off
f 73/103/209 76/104/210 75/105/211 74/106/212
f 72/107/213 69/108/214 67/92/215 65/91/216
s 46
f 71/99/205 73/109/217 74/110/218 72/100/206
s off
f 72/107/219 74/106/220 75/105/221 69/108/222
s 45
f 69/97/203 75/111/223 76/112/224 70/98/204
s off
f 77/113/225 79/114/226 80/115/227 78/116/228
s 51
f 80/117/229 79/118/230 81/119/231 82/120/232
s 52
f 83/121/233 84/122/234 77/123/235 78/124/236
s off
f 85/125/237 88/126/238 87/127/239 86/128/240
f 84/129/241 81/130/242 79/114/243 77/113/244
s 52
f 83/121/233 85/131/245 86/132/246 84/122/234
s off
f 84/129/247 86/128/248 87/127/249 81/130/250
s 51
f 81/119/231 87/133/251 88/134/252 82/120/232
s off
f 89/135/253 90/136/254 92/137/255 91/138/256
s 57
f 92/139/257 94/140/258 93/141/259 91/142/260
s 58
f 95/143/261 90/144/262 89/145/263 96/146/264
s off
f 97/147/265 98/148/266 99/149/267 100/150/268
f 96/151/269 89/135/270 91/138/271 93/152/272
s 58
f 95/143/261 96/146/264 98/153/273 97/154/274
s off
f 96/151/275 93/152/276 99/149/277 98/148/278
s 57
f 93/141/259 94/140/258 100/155/279 99/156/280
s off
f 101/157/281 102/158/282 104/159/283 103/160/284
s 63
f 104/161/285 106/162/286 105/163/287 103/164/288
s 64
f 107/165/289 102/166/290 101/167/291 108/168/292
s off
f 109/169/293 110/170/294 111/171/295 112/172/296
f 108/173/297 101/157/298 103/160/299 105/174/300
s 64
f 107/165/289 108/168/292 110/175/301 109/176/302
s off
f 108/173/303 105/174/304 111/171/305 110/170/306
s 63
f 105/163/287 106/162/286 112/177/307 111/178/308
s off
f 113/179/309 115/180/310 116/181/311 114/182/312
s 69
f 116/183/313 115/184/314 117/185/315 118/186/316
s 70
f 119/187/317 120/188/318 113/189/319 114/190/320
s off
f 121/191/321 124/192/322 123/193/323 122/194/324
f 120/195/325 117/196/326 115/180/327 113/179/328
s 70
f 119/187/317 121/197/329 122/198/330 120/188/318
s off
f 120/195/331 122/194/332 123/193/333 117/196/334
s 69
f 117/185/315 123/199/335 124/200/336 118/186/316
s off
f 125/201/337 126/202/338 128/203/339 127/204/340
s 75
f 128/205/341 130/206/342 129/207/343 127/208/344
s 76
f 131/209/345 126/210/346 125/211/347 132/212/348
s off
f 133/213/349 134/214/350 135/215/351 136/216/352
f 132/217/353 125/201/354 127/204/355 129/218/356
s 76
f 131/209/345 132/212/348 134/219/357 133/220/358
s off
f 132/217/359 129/218/360 135/215/361 134/214/362
s 75
f 129/207/343 130/206/342 136/221/363 135/222/364
s off
f 137/223/365 139/224/366 140/225/367 138/226/368
s 81
f 140/227/369 139/228/370 141/229/371 142/230/372
s 82
f 143/231/373 144/232/374 137/233/375 138/234/376
s off
f 145/235/377 148/236/378 147/237/379 146/238/380
f 144/239/381 141/240/382 139/224/383 137/223/384
s 82
f 143/231/373 145/241/385 146/242/386 144/232/374
s off
f 144/239/387 146/238/388 147/237/389 141/240/390
s 81
f 141/229/371 147/243/391 148/244/392 142/230/372
s off
f 156/245/393 155/246/394 152/247/395 150/248/396
f 150/249/397 149/250/398 157/251/399 156/252/400
f 149/253/401 151/254/402 158/255/403 157/256/404
f 154/257/405 159/258/406 158/255/407 151/254/408
f 153/261/409 160/262/410 159/263/411 154/264/412
f 155/246/413 160/259/414 153/260/415 152/247/416
s 92
f 181/269/417 182/270/418 183/271/419 184/272/420
f 163/273/421 164/274/422 172/275/423 169/276/424
f 170/277/425 171/278/426 162/279/427 161/280/428
f 162/279/427 171/281/426 172/282/423 164/274/422
f 170/283/425 161/280/428 163/273/421 169/284/424
f 174/285/429 170/283/425 169/284/424 173/286/430
f 174/287/429 175/288/431 171/278/426 170/277/425
f 172/282/423 171/281/426 175/289/431 176/290/432
f 169/276/424 172/275/423 176/291/432 173/292/430
f 167/293/433 174/285/429 173/286/430 165/294/434
f 167/295/433 168/296/435 175/288/431 174/287/429
f 176/290/432 175/289/431 168/297/435 166/298/436
f 173/292/430 176/291/432 166/299/436 165/300/434
f 161/280/428 162/279/427 178/301/437 177/302/438
f 162/279/427 164/274/422 179/303/439 178/301/437
f 164/274/422 163/273/421 180/304/440 179/303/439
f 163/273/421 161/280/428 177/302/438 180/304/440
f 177/302/438 178/301/437 182/270/418 181/269/417
f 178/301/437 179/303/439 183/271/419 182/270/418
f 179/303/439 180/304/440 184/272/420 183/271/419
f 180/304/440 177/302/438 181/269/417 184/272/420
s 93
f 205/305/441 208/308/442 207/307/443 206/306/444
f 187/309/445 193/312/446 196/311/447 188/310/448
f 194/313/449 185/316/450 186/315/451 195/314/452
f 186/315/451 188/310/448 196/318/447 195/317/452
f 194/319/449 193/320/446 187/309/445 185/316/450
f 198/321/453 197/322/454 193/320/446 194/319/449
f 198/323/453 194/313/449 195/314/452 199/324/455
f 196/318/447 200/326/456 199/325/455 195/317/452
f 193/312/446 197/328/454 200/327/456 196/311/447
f 191/329/457 189/330/458 197/322/454 198/321/453
f 191/331/457 198/323/453 199/324/455 192/332/459
f 200/326/456 190/334/460 192/333/459 199/325/455
f 197/328/454 189/336/458 190/335/460 200/327/456
f 185/316/450 201/338/461 202/337/462 186/315/451
f 186/315/451 202/337/462 203/339/463 188/310/448
f 188/310/448 203/339/463 204/340/464 187/309/445
f 187/309/445 204/340/464 201/338/461 185/316/450
f 201/338/461 205/305/441 206/306/444 202/337/462
f 202/337/462 206/306/444 207/307/443 203/339/463
f 203/339/463 207/307/443 208/308/442 204/340/464
f 204/340/464 208/308/442 205/305/441 201/338/461
s off
f 209/341/465 210/342/466 216/343/467 213/344/468
f 214/345/469 215/346/470 212/347/471 211/348/472
f 211/349/473 212/350/474 210/351/475 209/352/476
f 210/353/477 212/354/478 215/355/479 216/356/480
f 211/357/481 209/358/482 213/359/483 214/360/484
f 219/361/485 220/362/486 218/363/487 217/364/488
f 219/365/489 217/366/490 222/367/491 221/368/492
f 217/369/493 218/370/494 223/371/495 222/372/496
f 218/373/497 220/374/498 224/375/499 223/376/500
f 221/377/501 224/378/502 220/379/503 219/380/504
f 225/381/505 226/382/506 229/383/507 230/384/508
f 231/385/509 232/386/510 228/387/511 227/388/512
f 227/389/513 228/390/514 226/391/515 225/392/516
f 226/393/517 228/394/518 232/395/519 229/396/520
f 227/397/521 225/398/522 230/399/523 231/400/524
f 235/401/525 236/402/526 234/403/527 233/404/528
f 238/405/529 237/406/530 236/407/531 235/408/532
f 235/409/533 233/410/534 239/411/535 238/412/536
f 233/413/537 234/414/538 240/415/539 239/416/540
f 234/417/541 236/418/542 237/419/543 240/420/544
s 114
f 261/421/545 262/422/546 263/423/547 264/424/548
f 243/425/549 244/426/550 252/427/551 249/428/552
f 250/429/553 251/430/554 242/431/555 241/432/556
f 242/431/555 251/433/554 252/434/551 244/426/550
f 250/435/553 241/432/556 243/425/549 249/436/552
f 254/437/557 250/435/553 249/436/552 253/438/558
f 254/439/557 255/440/559 251/430/554 250/429/553
f 252/434/551 251/433/554 255/441/559 256/442/560
f 249/428/552 252/427/551 256/443/560 253/444/558
f 247/445/561 254/437/557 253/438/558 245/446/562
f 247/447/561 248/448/563 255/440/559 254/439/557
f 256/442/560 255/441/559 248/449/563 246/450/564
f 253/444/558 256/443/560 246/451/564 245/452/562
f 241/432/556 242/431/555 258/268/565 257/267/566
f 242/431/555 244/426/550 259/266/567 258/268/565
f 244/426/550 243/425/549 260/265/568 259/266/567
f 243/425/549 241/432/556 257/267/566 260/265/568
f 257/267/566 258/268/565 262/422/546 261/421/545
f 258/268/565 259/266/567 263/423/547 262/422/546
f 259/266/567 260/265/568 264/424/548 263/423/547
f 260/265/568 257/267/566 261/421/545 264/424/548
