# This file uses centimeters as units for non-parametric coordinates.

g default
v -26.385201 0.408672 -0.162647
v -26.211983 0.408672 -0.162647
v -26.385201 0.408672 -0.140649
v -26.211983 0.408672 -0.140649
v -26.484545 0.835940 -0.186971
v -26.112638 0.835940 -0.186971
v -26.484545 0.835940 -0.208968
v -26.112638 0.835940 -0.208968
v -26.178261 0.007573 -0.126311
v -26.141438 0.007573 -0.126311
v -26.185932 0.393311 -0.117553
v -26.151876 0.393311 -0.117553
v -26.188812 0.393311 -0.155636
v -26.156021 0.393311 -0.155636
v -26.181376 0.007573 -0.167488
v -26.145920 0.007573 -0.167488
v -26.151960 0.007573 0.198979
v -26.107742 0.007573 0.198979
v -26.161253 0.393311 0.187126
v -26.120361 0.393311 0.187126
v -26.164131 0.393311 0.149044
v -26.124504 0.393311 0.149044
v -26.155073 0.007573 0.157802
v -26.112223 0.007573 0.157802
v -26.460049 0.007573 -0.126311
v -26.423223 0.007573 -0.126311
v -26.449547 0.393311 -0.117553
v -26.415493 0.393311 -0.117553
v -26.445517 0.393311 -0.155636
v -26.412724 0.393311 -0.155636
v -26.455688 0.007573 -0.167488
v -26.420231 0.007573 -0.167488
v -26.492783 0.007573 0.198979
v -26.448563 0.007573 0.198979
v -26.480164 0.393311 0.187126
v -26.439272 0.393311 0.187126
v -26.476133 0.393311 0.149044
v -26.436504 0.393311 0.149044
v -26.488422 0.007573 0.157802
v -26.445574 0.007573 0.157802
v -26.498089 0.386099 0.200513
v -26.101244 0.386099 0.200513
v -26.510895 0.441933 0.208968
v -26.088436 0.441933 0.208968
v -26.464176 0.441933 -0.182778
v -26.135151 0.441933 -0.182778
v -26.455830 0.386099 -0.174323
v -26.143503 0.386099 -0.174323
vt 0.375000 0.000000
vt 0.625000 0.000000
vt 0.375000 0.250000
vt 0.625000 0.250000
vt 0.375000 0.500000
vt 0.625000 0.500000
vt 0.375000 0.750000
vt 0.625000 0.750000
vt 0.375000 1.000000
vt 0.625000 1.000000
vt 0.875000 0.000000
vt 0.875000 0.250000
vt 0.125000 0.000000
vt 0.125000 0.250000
vt 0.375000 0.000000
vt 0.625000 0.000000
vt 0.625000 0.250000
vt 0.375000 0.250000
vt 0.625000 0.500000
vt 0.375000 0.500000
vt 0.625000 0.750000
vt 0.375000 0.750000
vt 0.625000 1.000000
vt 0.375000 1.000000
vt 0.875000 0.000000
vt 0.875000 0.250000
vt 0.125000 0.000000
vt 0.125000 0.250000
vt 0.375000 0.000000
vt 0.625000 0.000000
vt 0.625000 0.250000
vt 0.375000 0.250000
vt 0.625000 0.500000
vt 0.375000 0.500000
vt 0.625000 0.750000
vt 0.375000 0.750000
vt 0.625000 1.000000
vt 0.375000 1.000000
vt 0.875000 0.000000
vt 0.875000 0.250000
vt 0.125000 0.000000
vt 0.125000 0.250000
vt 0.375000 0.000000
vt 0.625000 0.000000
vt 0.625000 0.250000
vt 0.375000 0.250000
vt 0.625000 0.500000
vt 0.375000 0.500000
vt 0.625000 0.750000
vt 0.375000 0.750000
vt 0.625000 1.000000
vt 0.375000 1.000000
vt 0.875000 0.000000
vt 0.875000 0.250000
vt 0.125000 0.000000
vt 0.125000 0.250000
vt 0.375000 0.000000
vt 0.625000 0.000000
vt 0.625000 0.250000
vt 0.375000 0.250000
vt 0.625000 0.500000
vt 0.375000 0.500000
vt 0.625000 0.750000
vt 0.375000 0.750000
vt 0.625000 1.000000
vt 0.375000 1.000000
vt 0.875000 0.000000
vt 0.875000 0.250000
vt 0.125000 0.000000
vt 0.125000 0.250000
vt 0.375000 0.000000
vt 0.625000 0.000000
vt 0.625000 0.250000
vt 0.375000 0.250000
vt 0.625000 0.500000
vt 0.375000 0.500000
vt 0.625000 0.750000
vt 0.375000 0.750000
vt 0.625000 1.000000
vt 0.375000 1.000000
vt 0.875000 0.000000
vt 0.875000 0.250000
vt 0.125000 0.000000
vt 0.125000 0.250000
vn 0.000000 -1.000000 0.000000
vn 0.000000 -1.000000 0.000000
vn 0.000000 -1.000000 0.000000
vn 0.000000 -1.000000 0.000000
vn 0.000000 0.107782 0.994175
vn 0.000000 0.107782 0.994175
vn 0.000000 0.107782 0.994175
vn 0.000000 0.107782 0.994175
vn 0.000000 1.000000 0.000000
vn 0.000000 1.000000 0.000000
vn 0.000000 1.000000 0.000000
vn 0.000000 1.000000 0.000000
vn 0.000000 -0.107781 -0.994175
vn 0.000000 -0.107781 -0.994175
vn 0.000000 -0.107781 -0.994175
vn 0.000000 -0.107781 -0.994175
vn 0.974017 -0.226475 0.000000
vn 0.974017 -0.226475 0.000000
vn 0.974017 -0.226475 0.000000
vn 0.974017 -0.226475 0.000000
vn -0.974018 -0.226469 0.000000
vn -0.974018 -0.226469 0.000000
vn -0.974018 -0.226469 0.000000
vn -0.974018 -0.226469 0.000000
vn 0.000000 -0.022698 0.999742
vn 0.000000 -0.022698 0.999742
vn 0.000000 -0.022698 0.999742
vn 0.000000 -0.022698 0.999742
vn 0.000000 1.000000 -0.000000
vn 0.000000 1.000000 -0.000000
vn 0.000000 1.000000 -0.000000
vn 0.000000 1.000000 -0.000000
vn 0.000000 0.030712 -0.999528
vn 0.000000 0.030712 -0.999528
vn 0.000000 0.030712 -0.999528
vn 0.000000 0.030712 -0.999528
vn 0.000000 -1.000000 0.000000
vn 0.000000 -1.000000 0.000000
vn 0.000000 -1.000000 0.000000
vn 0.000000 -1.000000 0.000000
vn 0.993700 0.029352 -0.108158
vn 0.993700 0.029352 -0.108158
vn 0.993700 0.029352 -0.108158
vn 0.993700 0.029352 -0.108158
vn -0.996921 -0.021538 0.075401
vn -0.996921 -0.021538 0.075401
vn -0.996921 -0.021538 0.075401
vn -0.996921 -0.021538 0.075401
vn 0.000000 0.030714 0.999528
vn 0.000000 0.030714 0.999528
vn 0.000000 0.030714 0.999528
vn 0.000000 0.030714 0.999528
vn 0.000000 1.000000 0.000000
vn 0.000000 1.000000 0.000000
vn 0.000000 1.000000 0.000000
vn 0.000000 1.000000 0.000000
vn 0.000000 -0.022699 -0.999742
vn 0.000000 -0.022699 -0.999742
vn 0.000000 -0.022699 -0.999742
vn 0.000000 -0.022699 -0.999742
vn 0.000000 -1.000000 0.000000
vn 0.000000 -1.000000 0.000000
vn 0.000000 -1.000000 0.000000
vn 0.000000 -1.000000 0.000000
vn 0.993710 0.029189 -0.108112
vn 0.993710 0.029189 -0.108112
vn 0.993710 0.029189 -0.108112
vn 0.993710 0.029189 -0.108112
vn -0.996921 -0.021701 0.075354
vn -0.996921 -0.021701 0.075354
vn -0.996921 -0.021701 0.075354
vn -0.996921 -0.021701 0.075354
vn 0.000000 -0.022698 0.999742
vn 0.000000 -0.022698 0.999742
vn 0.000000 -0.022698 0.999742
vn 0.000000 -0.022698 0.999742
vn 0.000000 1.000000 0.000000
vn 0.000000 1.000000 0.000000
vn 0.000000 1.000000 0.000000
vn 0.000000 1.000000 0.000000
vn 0.000000 0.030713 -0.999528
vn 0.000000 0.030713 -0.999528
vn 0.000000 0.030713 -0.999528
vn 0.000000 0.030713 -0.999528
vn 0.000000 -1.000000 0.000000
vn 0.000000 -1.000000 0.000000
vn 0.000000 -1.000000 0.000000
vn 0.000000 -1.000000 0.000000
vn 0.997135 -0.021629 0.072490
vn 0.997135 -0.021629 0.072490
vn 0.997135 -0.021629 0.072490
vn 0.997135 -0.021629 0.072490
vn -0.994012 0.029444 -0.105225
vn -0.994012 0.029444 -0.105225
vn -0.994012 0.029444 -0.105225
vn -0.994012 0.029444 -0.105225
vn 0.000000 0.030713 0.999528
vn 0.000000 0.030713 0.999528
vn 0.000000 0.030713 0.999528
vn 0.000000 0.030713 0.999528
vn 0.000000 1.000000 0.000000
vn 0.000000 1.000000 0.000000
vn 0.000000 1.000000 0.000000
vn 0.000000 1.000000 0.000000
vn 0.000000 -0.022696 -0.999743
vn 0.000000 -0.022696 -0.999743
vn 0.000000 -0.022696 -0.999743
vn 0.000000 -0.022696 -0.999743
vn 0.000000 -1.000000 -0.000000
vn 0.000000 -1.000000 -0.000000
vn 0.000000 -1.000000 -0.000000
vn 0.000000 -1.000000 -0.000000
vn 0.997136 -0.021802 0.072419
vn 0.997136 -0.021802 0.072419
vn 0.997136 -0.021802 0.072419
vn 0.997136 -0.021802 0.072419
vn -0.994017 0.029274 -0.105227
vn -0.994017 0.029274 -0.105227
vn -0.994017 0.029274 -0.105227
vn -0.994017 0.029274 -0.105227
vn 0.000000 -0.149728 0.988727
vn 0.000000 -0.149728 0.988727
vn 0.000000 -0.149728 0.988727
vn 0.000000 -0.149728 0.988727
vn 0.000000 1.000000 0.000000
vn 0.000000 1.000000 0.000000
vn 0.000000 1.000000 0.000000
vn 0.000000 1.000000 0.000000
vn 0.000000 -0.149734 -0.988726
vn 0.000000 -0.149734 -0.988726
vn 0.000000 -0.149734 -0.988726
vn 0.000000 -0.149734 -0.988726
vn 0.000000 -1.000000 0.000000
vn 0.000000 -1.000000 0.000000
vn 0.000000 -1.000000 0.000000
vn 0.000000 -1.000000 0.000000
vn 0.976194 -0.184954 -0.113303
vn 0.976194 -0.184954 -0.113303
vn 0.976194 -0.184954 -0.113303
vn 0.976194 -0.184954 -0.113303
vn -0.976206 -0.184887 -0.113309
vn -0.976206 -0.184887 -0.113309
vn -0.976206 -0.184887 -0.113309
vn -0.976206 -0.184887 -0.113309
s off
g polySurface7808
f 1/1/1 2/2/2 4/4/3 3/3/4
f 3/3/5 4/4/6 6/6/7 5/5/8
f 5/5/9 6/6/10 8/8/11 7/7/12
f 7/7/13 8/8/14 2/10/15 1/9/16
f 2/2/17 8/11/18 6/12/19 4/4/20
f 7/13/21 1/1/22 3/3/23 5/14/24
f 9/15/25 10/16/26 12/17/27 11/18/28
f 11/18/29 12/17/30 14/19/31 13/20/32
f 13/20/33 14/19/34 16/21/35 15/22/36
f 15/22/37 16/21/38 10/23/39 9/24/40
f 10/16/41 16/25/42 14/26/43 12/17/44
f 15/27/45 9/15/46 11/18/47 13/28/48
f 17/29/49 18/30/50 20/31/51 19/32/52
f 19/32/53 20/31/54 22/33/55 21/34/56
f 21/34/57 22/33/58 24/35/59 23/36/60
f 23/36/61 24/35/62 18/37/63 17/38/64
f 18/30/65 24/39/66 22/40/67 20/31/68
f 23/41/69 17/29/70 19/32/71 21/42/72
f 25/43/73 26/44/74 28/45/75 27/46/76
f 27/46/77 28/45/78 30/47/79 29/48/80
f 29/48/81 30/47/82 32/49/83 31/50/84
f 31/50/85 32/49/86 26/51/87 25/52/88
f 26/44/89 32/53/90 30/54/91 28/45/92
f 31/55/93 25/43/94 27/46/95 29/56/96
f 33/57/97 34/58/98 36/59/99 35/60/100
f 35/60/101 36/59/102 38/61/103 37/62/104
f 37/62/105 38/61/106 40/63/107 39/64/108
f 39/64/109 40/63/110 34/65/111 33/66/112
f 34/58/113 40/67/114 38/68/115 36/59/116
f 39/69/117 33/57/118 35/60/119 37/70/120
f 41/71/121 42/72/122 44/73/123 43/74/124
f 43/74/125 44/73/126 46/75/127 45/76/128
f 45/76/129 46/75/130 48/77/131 47/78/132
f 47/78/133 48/77/134 42/79/135 41/80/136
f 42/72/137 48/81/138 46/82/139 44/73/140
f 47/83/141 41/71/142 43/74/143 45/84/144
