# This file uses centimeters as units for non-parametric coordinates.

g default
v -31.148674 0.506931 0.170628
v -29.466808 0.506931 0.170628
v -31.145775 0.530792 0.167491
v -29.469713 0.530792 0.167491
v -31.145775 0.530792 -0.167490
v -29.469713 0.530792 -0.167490
v -31.148674 0.506931 -0.170628
v -29.466808 0.506931 -0.170628
v -31.161224 0.546510 0.180039
v -29.454264 0.546510 0.180039
v -29.454264 0.546510 -0.180039
v -31.161224 0.546510 -0.180039
v -31.161224 0.584785 0.180039
v -29.454264 0.584785 0.180039
v -29.454264 0.584785 -0.180039
v -31.161224 0.584785 -0.180039
v -31.042389 0.393186 0.142979
v -31.083294 0.373243 0.142979
v -31.042389 0.393186 0.116229
v -31.083294 0.373243 0.116229
v -31.042389 0.471383 0.116229
v -31.083294 0.508438 0.116229
v -31.083294 0.508438 0.142979
v -31.042389 0.471383 0.142979
v -30.878387 0.508438 0.142979
v -30.903749 0.471383 0.142979
v -30.903749 0.471383 0.116229
v -30.878387 0.508438 0.116229
v -29.586920 0.393186 0.142979
v -29.546015 0.373243 0.142979
v -29.586920 0.393186 0.116229
v -29.546015 0.373243 0.116229
v -29.586920 0.471383 0.116229
v -29.546015 0.508438 0.116229
v -29.546015 0.508438 0.142979
v -29.586920 0.471383 0.142979
v -29.750921 0.508438 0.142979
v -29.725559 0.471383 0.142979
v -29.725559 0.471383 0.116229
v -29.750921 0.508438 0.116229
v -29.586920 0.393186 -0.114434
v -29.546015 0.373243 -0.114434
v -29.586920 0.393186 -0.141184
v -29.546015 0.373243 -0.141184
v -29.586920 0.471383 -0.141184
v -29.546015 0.508438 -0.141184
v -29.546015 0.508438 -0.114434
v -29.586920 0.471383 -0.114434
v -29.750921 0.508438 -0.114434
v -29.725559 0.471383 -0.114434
v -29.725559 0.471383 -0.141184
v -29.750921 0.508438 -0.141184
v -31.042389 0.393186 -0.114434
v -31.083294 0.373243 -0.114434
v -31.042389 0.393186 -0.141184
v -31.083294 0.373243 -0.141184
v -31.042389 0.471383 -0.141184
v -31.083294 0.508438 -0.141184
v -31.083294 0.508438 -0.114434
v -31.042389 0.471383 -0.114434
v -30.878387 0.508438 -0.114434
v -30.903749 0.471383 -0.114434
v -30.903749 0.471383 -0.141184
v -30.878387 0.508438 -0.141184
v -31.148674 1.397979 0.170628
v -29.466808 1.397979 0.170628
v -31.145775 1.421840 0.167491
v -29.469713 1.421840 0.167491
v -31.145775 1.421840 -0.167490
v -29.469713 1.421840 -0.167490
v -31.148674 1.397979 -0.170628
v -29.466808 1.397979 -0.170628
v -31.161224 1.437558 0.180039
v -29.454264 1.437558 0.180039
v -29.454264 1.437558 -0.180039
v -31.161224 1.437558 -0.180039
v -31.161224 1.475833 0.180039
v -29.454264 1.475833 0.180039
v -29.454264 1.475833 -0.180039
v -31.161224 1.475833 -0.180039
v -31.042389 1.284235 0.142979
v -31.083294 1.264291 0.142979
v -31.042389 1.284235 0.116229
v -31.083294 1.264291 0.116229
v -31.042389 1.362432 0.116229
v -31.083294 1.399487 0.116229
v -31.083294 1.399487 0.142979
v -31.042389 1.362432 0.142979
v -30.878387 1.399487 0.142979
v -30.903749 1.362432 0.142979
v -30.903749 1.362432 0.116229
v -30.878387 1.399487 0.116229
v -29.586920 1.284235 0.142979
v -29.546015 1.264291 0.142979
v -29.586920 1.284235 0.116229
v -29.546015 1.264291 0.116229
v -29.586920 1.362432 0.116229
v -29.546015 1.399487 0.116229
v -29.546015 1.399487 0.142979
v -29.586920 1.362432 0.142979
v -29.750921 1.399487 0.142979
v -29.725559 1.362432 0.142979
v -29.725559 1.362432 0.116229
v -29.750921 1.399487 0.116229
v -29.586920 1.284235 -0.114434
v -29.546015 1.264291 -0.114434
v -29.586920 1.284235 -0.141184
v -29.546015 1.264291 -0.141184
v -29.586920 1.362432 -0.141184
v -29.546015 1.399487 -0.141184
v -29.546015 1.399487 -0.114434
v -29.586920 1.362432 -0.114434
v -29.750921 1.399487 -0.114434
v -29.725559 1.362432 -0.114434
v -29.725559 1.362432 -0.141184
v -29.750921 1.399487 -0.141184
v -31.042389 1.284235 -0.114434
v -31.083294 1.264291 -0.114434
v -31.042389 1.284235 -0.141184
v -31.083294 1.264291 -0.141184
v -31.042389 1.362432 -0.141184
v -31.083294 1.399487 -0.141184
v -31.083294 1.399487 -0.114434
v -31.042389 1.362432 -0.114434
v -30.878387 1.399487 -0.114434
v -30.903749 1.362432 -0.114434
v -30.903749 1.362432 -0.141184
v -30.878387 1.399487 -0.141184
v -31.148674 0.962611 0.170628
v -29.466808 0.962611 0.170628
v -31.145775 0.986472 0.167491
v -29.469713 0.986472 0.167491
v -31.145775 0.986472 -0.167490
v -29.469713 0.986472 -0.167490
v -31.148674 0.962611 -0.170628
v -29.466808 0.962611 -0.170628
v -31.161224 1.002190 0.180039
v -29.454264 1.002190 0.180039
v -29.454264 1.002190 -0.180039
v -31.161224 1.002190 -0.180039
v -31.161224 1.040466 0.180039
v -29.454264 1.040466 0.180039
v -29.454264 1.040466 -0.180039
v -31.161224 1.040466 -0.180039
v -31.042389 0.848866 0.142979
v -31.083294 0.828923 0.142979
v -31.042389 0.848866 0.116229
v -31.083294 0.828923 0.116229
v -31.042389 0.927063 0.116229
v -31.083294 0.964119 0.116229
v -31.083294 0.964119 0.142979
v -31.042389 0.927063 0.142979
v -30.878387 0.964119 0.142979
v -30.903749 0.927063 0.142979
v -30.903749 0.927063 0.116229
v -30.878387 0.964119 0.116229
v -29.586920 0.848866 0.142979
v -29.546015 0.828923 0.142979
v -29.586920 0.848866 0.116229
v -29.546015 0.828923 0.116229
v -29.586920 0.927063 0.116229
v -29.546015 0.964119 0.116229
v -29.546015 0.964119 0.142979
v -29.586920 0.927063 0.142979
v -29.750921 0.964119 0.142979
v -29.725559 0.927063 0.142979
v -29.725559 0.927063 0.116229
v -29.750921 0.964119 0.116229
v -29.586920 0.848866 -0.114434
v -29.546015 0.828923 -0.114434
v -29.586920 0.848866 -0.141184
v -29.546015 0.828923 -0.141184
v -29.586920 0.927063 -0.141184
v -29.546015 0.964119 -0.141184
v -29.546015 0.964119 -0.114434
v -29.586920 0.927063 -0.114434
v -29.750921 0.964119 -0.114434
v -29.725559 0.927063 -0.114434
v -29.725559 0.927063 -0.141184
v -29.750921 0.964119 -0.141184
v -31.042389 0.848866 -0.114434
v -31.083294 0.828923 -0.114434
v -31.042389 0.848866 -0.141184
v -31.083294 0.828923 -0.141184
v -31.042389 0.927063 -0.141184
v -31.083294 0.964119 -0.141184
v -31.083294 0.964119 -0.114434
v -31.042389 0.927063 -0.114434
v -30.878387 0.964119 -0.114434
v -30.903749 0.927063 -0.114434
v -30.903749 0.927063 -0.141184
v -30.878387 0.964119 -0.141184
v -29.551537 -0.009602 0.158343
v -29.488171 -0.009602 0.160575
v -29.551537 1.465436 0.158343
v -29.488171 1.465436 0.160575
v -29.551537 1.465436 0.097209
v -29.490898 1.465436 0.097209
v -29.551537 -0.009602 0.097209
v -29.490898 -0.009602 0.097209
v -29.551537 -0.009602 -0.098837
v -29.490898 -0.009602 -0.098837
v -29.551537 1.465436 -0.098837
v -29.490898 1.465436 -0.098837
v -29.551537 1.465436 -0.159972
v -29.488171 1.465436 -0.162203
v -29.551537 -0.009602 -0.159972
v -29.488171 -0.009602 -0.162203
v -31.142050 -0.009602 0.160575
v -31.078684 -0.009602 0.158343
v -31.142050 1.465436 0.160575
v -31.078684 1.465436 0.158343
v -31.139322 1.465436 0.097209
v -31.078684 1.465436 0.097209
v -31.139322 -0.009602 0.097209
v -31.078684 -0.009602 0.097209
v -31.139322 -0.009602 -0.098837
v -31.078684 -0.009602 -0.098837
v -31.139322 1.465436 -0.098837
v -31.078684 1.465436 -0.098837
v -31.142050 1.465436 -0.162203
v -31.078684 1.465436 -0.159972
v -31.142050 -0.009602 -0.162203
v -31.078684 -0.009602 -0.159972
vt 0.050470 0.468783
vt 1.270579 0.468948
vt 1.270438 0.494953
vt 0.054574 0.494800
vt 0.692650 0.305459
vt 1.258664 0.305464
vt 1.258663 0.403687
vt 0.692648 0.403691
vt 0.256194 0.494623
vt 1.472705 0.494730
vt 1.476446 0.468716
vt 0.256363 0.468547
vt 0.696809 0.395817
vt 1.254501 0.395812
vt 1.254502 0.303150
vt 0.696812 0.303145
vt 1.274058 0.512374
vt 0.035800 0.512243
vt 1.491855 0.512189
vt 0.254089 0.511895
vt 1.274219 0.555241
vt 0.035897 0.555267
vt 1.492310 0.555227
vt 0.254088 0.555397
vt -0.005952 0.358312
vt -0.061185 0.358312
vt -0.061185 0.340568
vt -0.005952 0.340568
vt 0.031531 0.244391
vt 0.031531 0.330296
vt 0.058079 0.306751
vt 0.058079 0.257063
vt 0.031531 0.330296
vt 0.031531 0.244391
vt 0.058079 0.257063
vt 0.058079 0.306751
vt 0.240623 0.358312
vt 0.188794 0.358312
vt 0.188794 0.340568
vt 0.240623 0.340568
vt 0.049739 0.358312
vt 0.049739 0.340568
vt 0.148057 0.306751
vt 0.164517 0.330296
vt 0.164517 0.330296
vt 0.148057 0.306751
vt -0.005952 0.358312
vt -0.005952 0.340568
vt -0.061185 0.340568
vt -0.061185 0.358312
vt 0.031531 0.244391
vt 0.058079 0.257063
vt 0.058079 0.306751
vt 0.031531 0.330296
vt 0.031531 0.330296
vt 0.058079 0.306751
vt 0.058079 0.257063
vt 0.031531 0.244391
vt 0.240623 0.358312
vt 0.240623 0.340568
vt 0.188794 0.340568
vt 0.188794 0.358312
vt 0.049739 0.358312
vt 0.049739 0.340568
vt 0.164517 0.330296
vt 0.148057 0.306751
vt 0.148057 0.306751
vt 0.164517 0.330296
vt -0.005952 0.358312
vt -0.005952 0.340568
vt -0.061185 0.340568
vt -0.061185 0.358312
vt 0.031531 0.244391
vt 0.058079 0.257063
vt 0.058079 0.306751
vt 0.031531 0.330296
vt 0.031531 0.330296
vt 0.058079 0.306751
vt 0.058079 0.257063
vt 0.031531 0.244391
vt 0.240623 0.358312
vt 0.240623 0.340568
vt 0.188794 0.340568
vt 0.188794 0.358312
vt 0.049739 0.358312
vt 0.049739 0.340568
vt 0.164517 0.330296
vt 0.148057 0.306751
vt 0.148057 0.306751
vt 0.164517 0.330296
vt -0.005952 0.358312
vt -0.061185 0.358312
vt -0.061185 0.340568
vt -0.005952 0.340568
vt 0.031531 0.244391
vt 0.031531 0.330296
vt 0.058079 0.306751
vt 0.058079 0.257063
vt 0.031531 0.330296
vt 0.031531 0.244391
vt 0.058079 0.257063
vt 0.058079 0.306751
vt 0.240623 0.358312
vt 0.188794 0.358312
vt 0.188794 0.340568
vt 0.240623 0.340568
vt 0.049739 0.358312
vt 0.049739 0.340568
vt 0.148057 0.306751
vt 0.164517 0.330296
vt 0.164517 0.330296
vt 0.148057 0.306751
vt 0.050470 0.468783
vt 1.270579 0.468948
vt 1.270438 0.494953
vt 0.054574 0.494800
vt 0.692650 0.305459
vt 1.258664 0.305464
vt 1.258663 0.403687
vt 0.692648 0.403691
vt 0.256194 0.494623
vt 1.472705 0.494730
vt 1.476446 0.468716
vt 0.256363 0.468547
vt 0.696809 0.395817
vt 1.254501 0.395812
vt 1.254502 0.303150
vt 0.696812 0.303145
vt 1.274058 0.512374
vt 0.035800 0.512243
vt 1.491855 0.512189
vt 0.254089 0.511895
vt 1.274219 0.555241
vt 0.035897 0.555267
vt 1.492310 0.555227
vt 0.254088 0.555397
vt -0.005952 0.358312
vt -0.061185 0.358312
vt -0.061185 0.340568
vt -0.005952 0.340568
vt 0.031531 0.244391
vt 0.031531 0.330296
vt 0.058079 0.306751
vt 0.058079 0.257063
vt 0.031531 0.330296
vt 0.031531 0.244391
vt 0.058079 0.257063
vt 0.058079 0.306751
vt 0.240623 0.358312
vt 0.188794 0.358312
vt 0.188794 0.340568
vt 0.240623 0.340568
vt 0.049739 0.358312
vt 0.049739 0.340568
vt 0.148057 0.306751
vt 0.164517 0.330296
vt 0.164517 0.330296
vt 0.148057 0.306751
vt -0.005952 0.358312
vt -0.005952 0.340568
vt -0.061185 0.340568
vt -0.061185 0.358312
vt 0.031531 0.244391
vt 0.058079 0.257063
vt 0.058079 0.306751
vt 0.031531 0.330296
vt 0.031531 0.330296
vt 0.058079 0.306751
vt 0.058079 0.257063
vt 0.031531 0.244391
vt 0.240623 0.358312
vt 0.240623 0.340568
vt 0.188794 0.340568
vt 0.188794 0.358312
vt 0.049739 0.358312
vt 0.049739 0.340568
vt 0.164517 0.330296
vt 0.148057 0.306751
vt 0.148057 0.306751
vt 0.164517 0.330296
vt -0.005952 0.358312
vt -0.005952 0.340568
vt -0.061185 0.340568
vt -0.061185 0.358312
vt 0.031531 0.244391
vt 0.058079 0.257063
vt 0.058079 0.306751
vt 0.031531 0.330296
vt 0.031531 0.330296
vt 0.058079 0.306751
vt 0.058079 0.257063
vt 0.031531 0.244391
vt 0.240623 0.358312
vt 0.240623 0.340568
vt 0.188794 0.340568
vt 0.188794 0.358312
vt 0.049739 0.358312
vt 0.049739 0.340568
vt 0.164517 0.330296
vt 0.148057 0.306751
vt 0.148057 0.306751
vt 0.164517 0.330296
vt -0.005952 0.358312
vt -0.061185 0.358312
vt -0.061185 0.340568
vt -0.005952 0.340568
vt 0.031531 0.244391
vt 0.031531 0.330296
vt 0.058079 0.306751
vt 0.058079 0.257063
vt 0.031531 0.330296
vt 0.031531 0.244391
vt 0.058079 0.257063
vt 0.058079 0.306751
vt 0.240623 0.358312
vt 0.188794 0.358312
vt 0.188794 0.340568
vt 0.240623 0.340568
vt 0.049739 0.358312
vt 0.049739 0.340568
vt 0.148057 0.306751
vt 0.164517 0.330296
vt 0.164517 0.330296
vt 0.148057 0.306751
vt 0.050470 0.468783
vt 1.270579 0.468948
vt 1.270438 0.494953
vt 0.054574 0.494800
vt 0.692650 0.305459
vt 1.258664 0.305464
vt 1.258663 0.403687
vt 0.692648 0.403691
vt 0.256194 0.494623
vt 1.472705 0.494730
vt 1.476446 0.468716
vt 0.256363 0.468547
vt 0.696809 0.395817
vt 1.254501 0.395812
vt 1.254502 0.303150
vt 0.696812 0.303145
vt 1.274058 0.512374
vt 0.035800 0.512243
vt 1.491855 0.512189
vt 0.254089 0.511895
vt 1.274219 0.555241
vt 0.035897 0.555267
vt 1.492310 0.555227
vt 0.254088 0.555397
vt -0.005952 0.358312
vt -0.061185 0.358312
vt -0.061185 0.340568
vt -0.005952 0.340568
vt 0.031531 0.244391
vt 0.031531 0.330296
vt 0.058079 0.306751
vt 0.058079 0.257063
vt 0.031531 0.330296
vt 0.031531 0.244391
vt 0.058079 0.257063
vt 0.058079 0.306751
vt 0.240623 0.358312
vt 0.188794 0.358312
vt 0.188794 0.340568
vt 0.240623 0.340568
vt 0.049739 0.358312
vt 0.049739 0.340568
vt 0.148057 0.306751
vt 0.164517 0.330296
vt 0.164517 0.330296
vt 0.148057 0.306751
vt -0.005952 0.358312
vt -0.005952 0.340568
vt -0.061185 0.340568
vt -0.061185 0.358312
vt 0.031531 0.244391
vt 0.058079 0.257063
vt 0.058079 0.306751
vt 0.031531 0.330296
vt 0.031531 0.330296
vt 0.058079 0.306751
vt 0.058079 0.257063
vt 0.031531 0.244391
vt 0.240623 0.358312
vt 0.240623 0.340568
vt 0.188794 0.340568
vt 0.188794 0.358312
vt 0.049739 0.358312
vt 0.049739 0.340568
vt 0.164517 0.330296
vt 0.148057 0.306751
vt 0.148057 0.306751
vt 0.164517 0.330296
vt -0.005952 0.358312
vt -0.005952 0.340568
vt -0.061185 0.340568
vt -0.061185 0.358312
vt 0.031531 0.244391
vt 0.058079 0.257063
vt 0.058079 0.306751
vt 0.031531 0.330296
vt 0.031531 0.330296
vt 0.058079 0.306751
vt 0.058079 0.257063
vt 0.031531 0.244391
vt 0.240623 0.358312
vt 0.240623 0.340568
vt 0.188794 0.340568
vt 0.188794 0.358312
vt 0.049739 0.358312
vt 0.049739 0.340568
vt 0.164517 0.330296
vt 0.148057 0.306751
vt 0.148057 0.306751
vt 0.164517 0.330296
vt -0.005952 0.358312
vt -0.061185 0.358312
vt -0.061185 0.340568
vt -0.005952 0.340568
vt 0.031531 0.244391
vt 0.031531 0.330296
vt 0.058079 0.306751
vt 0.058079 0.257063
vt 0.031531 0.330296
vt 0.031531 0.244391
vt 0.058079 0.257063
vt 0.058079 0.306751
vt 0.240623 0.358312
vt 0.188794 0.358312
vt 0.188794 0.340568
vt 0.240623 0.340568
vt 0.049739 0.358312
vt 0.049739 0.340568
vt 0.148057 0.306751
vt 0.164517 0.330296
vt 0.164517 0.330296
vt 0.148057 0.306751
vt 1.547970 0.063951
vt 1.547970 0.006710
vt 0.149303 0.006822
vt 0.149303 0.063839
vt 0.236392 0.282589
vt 0.287289 0.282637
vt 0.287298 0.333507
vt 0.238515 0.331744
vt 0.149303 0.126174
vt 0.149303 0.066799
vt 1.547970 0.066671
vt 1.547970 0.126302
vt 0.238200 0.333005
vt 0.287659 0.333005
vt 0.287659 0.283143
vt 0.235977 0.281323
vt 1.547970 0.006710
vt 1.547970 0.066671
vt 0.149303 0.066553
vt 0.149303 0.006828
vt 1.547970 0.127093
vt 1.547970 0.063951
vt 0.149303 0.064085
vt 0.149303 0.126960
vt 1.547970 0.063951
vt 1.547970 0.006710
vt 0.149303 0.006833
vt 0.149303 0.063829
vt 0.237481 0.282617
vt 0.286180 0.282608
vt 0.288360 0.333517
vt 0.237473 0.331734
vt 0.149303 0.126185
vt 0.149303 0.066788
vt 1.547970 0.066671
vt 1.547970 0.126302
vt 0.238200 0.333005
vt 0.287659 0.333005
vt 0.287659 0.283143
vt 0.235977 0.281323
vt 1.547970 0.006710
vt 1.547970 0.066671
vt 0.149303 0.066553
vt 0.149303 0.006828
vt 1.547970 0.127093
vt 1.547970 0.063951
vt 0.149303 0.064085
vt 0.149303 0.126960
vt 1.547970 0.063951
vt 1.547970 0.006710
vt 0.149303 0.006822
vt 0.149303 0.063839
vt 0.236343 0.281685
vt 0.287279 0.283509
vt 0.287308 0.332655
vt 0.238563 0.332627
vt 0.149303 0.126174
vt 0.149303 0.066799
vt 1.547970 0.066671
vt 1.547970 0.126302
vt 0.238200 0.333005
vt 0.287659 0.333005
vt 0.287659 0.283143
vt 0.235977 0.281323
vt 1.547970 0.006710
vt 1.547970 0.066671
vt 0.149303 0.066544
vt 0.149303 0.006837
vt 1.547970 0.127093
vt 1.547970 0.063951
vt 0.149303 0.064075
vt 0.149303 0.126969
vt 1.547970 0.063951
vt 1.547970 0.006710
vt 0.149303 0.006833
vt 0.149303 0.063829
vt 0.237453 0.281734
vt 0.286190 0.283460
vt 0.288350 0.332645
vt 0.237501 0.332637
vt 0.149303 0.126185
vt 0.149303 0.066788
vt 1.547970 0.066671
vt 1.547970 0.126302
vt 0.238200 0.333005
vt 0.287659 0.333005
vt 0.287659 0.283143
vt 0.235977 0.281323
vt 1.547970 0.006710
vt 1.547970 0.066671
vt 0.149303 0.066544
vt 0.149303 0.006837
vt 1.547970 0.127093
vt 1.547970 0.063951
vt 0.149303 0.064075
vt 0.149303 0.126969
vn 0.000000 0.130375 0.991465
vn 0.000000 0.130375 0.991465
vn 0.000000 0.130375 0.991465
vn 0.000000 0.130375 0.991465
vn 0.000000 1.000000 0.000000
vn 0.000000 1.000000 0.000000
vn 0.000000 1.000000 0.000000
vn 0.000000 1.000000 0.000000
vn 0.000000 0.130365 -0.991466
vn 0.000000 0.130365 -0.991466
vn 0.000000 0.130365 -0.991466
vn 0.000000 0.130365 -0.991466
vn 0.000000 -1.000000 0.000000
vn 0.000000 -1.000000 0.000000
vn 0.000000 -1.000000 0.000000
vn 0.000000 -1.000000 0.000000
vn 0.992675 0.120814 0.000000
vn 0.992675 0.120814 0.000000
vn 0.992675 0.120814 0.000000
vn 0.992675 0.120814 0.000000
vn -0.992691 0.120681 0.000000
vn -0.992691 0.120681 0.000000
vn -0.992691 0.120681 0.000000
vn -0.992691 0.120681 0.000000
vn 0.000000 -0.623903 0.781502
vn 0.000000 -0.623903 0.781502
vn 0.000000 -0.623903 0.781502
vn 0.000000 -0.623903 0.781502
vn 0.713185 -0.700976 0.000000
vn 0.713185 -0.700976 0.000000
vn 0.713185 -0.700976 0.000000
vn 0.713185 -0.700976 0.000000
vn 0.000000 -0.623910 -0.781496
vn 0.000000 -0.623910 -0.781496
vn 0.000000 -0.623910 -0.781496
vn 0.000000 -0.623910 -0.781496
vn -0.713208 -0.700953 0.000000
vn -0.713208 -0.700953 0.000000
vn -0.713208 -0.700953 0.000000
vn -0.713208 -0.700953 0.000000
vn 0.000000 0.000000 1.000000
vn 0.000000 0.000000 1.000000
vn 0.000000 0.000000 1.000000
vn 0.000000 0.000000 1.000000
vn 1.000000 0.000000 0.000000
vn 1.000000 0.000000 0.000000
vn 1.000000 0.000000 0.000000
vn 1.000000 0.000000 0.000000
vn 0.000000 0.000000 -1.000000
vn 0.000000 0.000000 -1.000000
vn 0.000000 0.000000 -1.000000
vn 0.000000 0.000000 -1.000000
vn -1.000000 0.000000 0.000000
vn -1.000000 0.000000 0.000000
vn -1.000000 0.000000 0.000000
vn -1.000000 0.000000 0.000000
vn 0.438238 -0.898859 0.000000
vn 0.438238 -0.898859 0.000000
vn 0.438238 -0.898859 0.000000
vn 0.438238 -0.898859 0.000000
vn 0.000000 0.000000 -1.000000
vn 0.000000 0.000000 -1.000000
vn 0.000000 0.000000 -1.000000
vn 0.000000 0.000000 -1.000000
vn -0.000000 0.000000 1.000000
vn -0.000000 0.000000 1.000000
vn -0.000000 0.000000 1.000000
vn -0.000000 0.000000 1.000000
vn 0.825208 -0.564829 0.000000
vn 0.825208 -0.564829 0.000000
vn 0.825208 -0.564829 0.000000
vn 0.825208 -0.564829 0.000000
vn 1.000000 0.000000 0.000000
vn 1.000000 0.000000 0.000000
vn 1.000000 0.000000 0.000000
vn 1.000000 0.000000 0.000000
vn 0.000000 0.000000 1.000000
vn 0.000000 0.000000 1.000000
vn 0.000000 -1.000000 0.000000
vn 0.000000 -1.000000 0.000000
vn 0.000000 -1.000000 0.000000
vn 0.000000 -1.000000 0.000000
vn 0.000000 0.000000 -1.000000
vn 0.000000 0.000000 -1.000000
vn -0.438218 -0.898869 0.000000
vn -0.438218 -0.898869 0.000000
vn -0.438218 -0.898869 0.000000
vn -0.438218 -0.898869 0.000000
vn 0.000000 0.000000 -1.000000
vn 0.000000 0.000000 -1.000000
vn 0.000000 0.000000 -1.000000
vn 0.000000 0.000000 -1.000000
vn 0.000000 0.000000 1.000000
vn 0.000000 0.000000 1.000000
vn 0.000000 0.000000 1.000000
vn 0.000000 0.000000 1.000000
vn -0.825231 -0.564796 0.000000
vn -0.825231 -0.564796 0.000000
vn -0.825231 -0.564796 0.000000
vn -0.825231 -0.564796 0.000000
vn -1.000000 0.000000 0.000000
vn -1.000000 0.000000 0.000000
vn -1.000000 0.000000 0.000000
vn -1.000000 0.000000 0.000000
vn 0.000000 0.000000 1.000000
vn 0.000000 0.000000 1.000000
vn 0.000000 -1.000000 0.000000
vn 0.000000 -1.000000 0.000000
vn 0.000000 -1.000000 0.000000
vn 0.000000 -1.000000 0.000000
vn 0.000000 0.000000 -1.000000
vn 0.000000 0.000000 -1.000000
vn -0.438235 -0.898861 0.000000
vn -0.438235 -0.898861 0.000000
vn -0.438235 -0.898861 0.000000
vn -0.438235 -0.898861 0.000000
vn 0.000000 0.000000 -1.000000
vn 0.000000 0.000000 -1.000000
vn 0.000000 0.000000 -1.000000
vn 0.000000 0.000000 -1.000000
vn -0.000000 0.000000 1.000000
vn -0.000000 0.000000 1.000000
vn -0.000000 0.000000 1.000000
vn -0.000000 0.000000 1.000000
vn -0.825229 -0.564799 0.000000
vn -0.825229 -0.564799 0.000000
vn -0.825229 -0.564799 0.000000
vn -0.825229 -0.564799 0.000000
vn -1.000000 0.000000 0.000000
vn -1.000000 0.000000 0.000000
vn -1.000000 0.000000 0.000000
vn -1.000000 0.000000 0.000000
vn 0.000000 0.000000 1.000000
vn 0.000000 0.000000 1.000000
vn 0.000000 -1.000000 0.000000
vn 0.000000 -1.000000 0.000000
vn 0.000000 -1.000000 0.000000
vn 0.000000 -1.000000 0.000000
vn 0.000000 0.000000 -1.000000
vn 0.000000 0.000000 -1.000000
vn 0.438235 -0.898861 0.000000
vn 0.438235 -0.898861 0.000000
vn 0.438235 -0.898861 0.000000
vn 0.438235 -0.898861 0.000000
vn 0.000000 0.000000 -1.000000
vn 0.000000 0.000000 -1.000000
vn 0.000000 0.000000 -1.000000
vn 0.000000 0.000000 -1.000000
vn 0.000000 0.000000 1.000000
vn 0.000000 0.000000 1.000000
vn 0.000000 0.000000 1.000000
vn 0.000000 0.000000 1.000000
vn 0.825229 -0.564799 0.000000
vn 0.825229 -0.564799 0.000000
vn 0.825229 -0.564799 0.000000
vn 0.825229 -0.564799 0.000000
vn 1.000000 0.000000 0.000000
vn 1.000000 0.000000 0.000000
vn 1.000000 0.000000 0.000000
vn 1.000000 0.000000 0.000000
vn 0.000000 0.000000 1.000000
vn 0.000000 0.000000 1.000000
vn 0.000000 -1.000000 0.000000
vn 0.000000 -1.000000 0.000000
vn 0.000000 -1.000000 0.000000
vn 0.000000 -1.000000 0.000000
vn 0.000000 0.000000 -1.000000
vn 0.000000 0.000000 -1.000000
vn 0.000000 0.130376 0.991465
vn 0.000000 0.130376 0.991465
vn 0.000000 0.130376 0.991465
vn 0.000000 0.130376 0.991465
vn 0.000000 1.000000 0.000000
vn 0.000000 1.000000 0.000000
vn 0.000000 1.000000 0.000000
vn 0.000000 1.000000 0.000000
vn 0.000000 0.130366 -0.991466
vn 0.000000 0.130366 -0.991466
vn 0.000000 0.130366 -0.991466
vn 0.000000 0.130366 -0.991466
vn 0.000000 -1.000000 0.000000
vn 0.000000 -1.000000 0.000000
vn 0.000000 -1.000000 0.000000
vn 0.000000 -1.000000 0.000000
vn 0.992675 0.120814 0.000000
vn 0.992675 0.120814 0.000000
vn 0.992675 0.120814 0.000000
vn 0.992675 0.120814 0.000000
vn -0.992691 0.120681 0.000000
vn -0.992691 0.120681 0.000000
vn -0.992691 0.120681 0.000000
vn -0.992691 0.120681 0.000000
vn 0.000000 -0.623905 0.781500
vn 0.000000 -0.623905 0.781500
vn 0.000000 -0.623905 0.781500
vn 0.000000 -0.623905 0.781500
vn 0.713179 -0.700982 0.000000
vn 0.713179 -0.700982 0.000000
vn 0.713179 -0.700982 0.000000
vn 0.713179 -0.700982 0.000000
vn 0.000000 -0.623912 -0.781495
vn 0.000000 -0.623912 -0.781495
vn 0.000000 -0.623912 -0.781495
vn 0.000000 -0.623912 -0.781495
vn -0.713203 -0.700958 0.000000
vn -0.713203 -0.700958 0.000000
vn -0.713203 -0.700958 0.000000
vn -0.713203 -0.700958 0.000000
vn 0.000000 0.000000 1.000000
vn 0.000000 0.000000 1.000000
vn 0.000000 0.000000 1.000000
vn 0.000000 0.000000 1.000000
vn 1.000000 0.000000 0.000000
vn 1.000000 0.000000 0.000000
vn 1.000000 0.000000 0.000000
vn 1.000000 0.000000 0.000000
vn 0.000000 0.000000 -1.000000
vn 0.000000 0.000000 -1.000000
vn 0.000000 0.000000 -1.000000
vn 0.000000 0.000000 -1.000000
vn -1.000000 0.000000 0.000000
vn -1.000000 0.000000 0.000000
vn -1.000000 0.000000 0.000000
vn -1.000000 0.000000 0.000000
vn 0.438242 -0.898857 0.000000
vn 0.438242 -0.898857 0.000000
vn 0.438242 -0.898857 0.000000
vn 0.438242 -0.898857 0.000000
vn 0.000000 0.000000 -1.000000
vn 0.000000 0.000000 -1.000000
vn 0.000000 0.000000 -1.000000
vn 0.000000 0.000000 -1.000000
vn -0.000000 0.000000 1.000000
vn -0.000000 0.000000 1.000000
vn -0.000000 0.000000 1.000000
vn -0.000000 0.000000 1.000000
vn 0.825206 -0.564832 0.000000
vn 0.825206 -0.564832 0.000000
vn 0.825206 -0.564832 0.000000
vn 0.825206 -0.564832 0.000000
vn 1.000000 0.000000 0.000000
vn 1.000000 0.000000 0.000000
vn 1.000000 0.000000 0.000000
vn 1.000000 0.000000 0.000000
vn 0.000000 0.000000 1.000000
vn 0.000000 0.000000 1.000000
vn 0.000000 -1.000000 0.000000
vn 0.000000 -1.000000 0.000000
vn 0.000000 -1.000000 0.000000
vn 0.000000 -1.000000 0.000000
vn 0.000000 0.000000 -1.000000
vn 0.000000 0.000000 -1.000000
vn -0.438223 -0.898867 0.000000
vn -0.438223 -0.898867 0.000000
vn -0.438223 -0.898867 0.000000
vn -0.438223 -0.898867 0.000000
vn 0.000000 0.000000 -1.000000
vn 0.000000 0.000000 -1.000000
vn 0.000000 0.000000 -1.000000
vn 0.000000 0.000000 -1.000000
vn 0.000000 0.000000 1.000000
vn 0.000000 0.000000 1.000000
vn 0.000000 0.000000 1.000000
vn 0.000000 0.000000 1.000000
vn -0.825229 -0.564798 0.000000
vn -0.825229 -0.564798 0.000000
vn -0.825229 -0.564798 0.000000
vn -0.825229 -0.564798 0.000000
vn -1.000000 0.000000 0.000000
vn -1.000000 0.000000 0.000000
vn -1.000000 0.000000 0.000000
vn -1.000000 0.000000 0.000000
vn 0.000000 0.000000 1.000000
vn 0.000000 0.000000 1.000000
vn 0.000000 -1.000000 0.000000
vn 0.000000 -1.000000 0.000000
vn 0.000000 -1.000000 0.000000
vn 0.000000 -1.000000 0.000000
vn 0.000000 0.000000 -1.000000
vn 0.000000 0.000000 -1.000000
vn -0.438239 -0.898859 0.000000
vn -0.438239 -0.898859 0.000000
vn -0.438239 -0.898859 0.000000
vn -0.438239 -0.898859 0.000000
vn 0.000000 0.000000 -1.000000
vn 0.000000 0.000000 -1.000000
vn 0.000000 0.000000 -1.000000
vn 0.000000 0.000000 -1.000000
vn 0.000000 0.000000 1.000000
vn 0.000000 0.000000 1.000000
vn 0.000000 0.000000 1.000000
vn 0.000000 0.000000 1.000000
vn -0.825227 -0.564802 0.000000
vn -0.825227 -0.564802 0.000000
vn -0.825227 -0.564802 0.000000
vn -0.825227 -0.564802 0.000000
vn -1.000000 0.000000 0.000000
vn -1.000000 0.000000 0.000000
vn -1.000000 0.000000 0.000000
vn -1.000000 0.000000 0.000000
vn 0.000000 0.000000 1.000000
vn 0.000000 0.000000 1.000000
vn 0.000000 -1.000000 0.000000
vn 0.000000 -1.000000 0.000000
vn 0.000000 -1.000000 0.000000
vn 0.000000 -1.000000 0.000000
vn 0.000000 0.000000 -1.000000
vn 0.000000 0.000000 -1.000000
vn 0.438239 -0.898859 0.000000
vn 0.438239 -0.898859 0.000000
vn 0.438239 -0.898859 0.000000
vn 0.438239 -0.898859 0.000000
vn 0.000000 0.000000 -1.000000
vn 0.000000 0.000000 -1.000000
vn 0.000000 0.000000 -1.000000
vn 0.000000 0.000000 -1.000000
vn 0.000000 0.000000 1.000000
vn 0.000000 0.000000 1.000000
vn 0.000000 0.000000 1.000000
vn 0.000000 0.000000 1.000000
vn 0.825227 -0.564802 0.000000
vn 0.825227 -0.564802 0.000000
vn 0.825227 -0.564802 0.000000
vn 0.825227 -0.564802 0.000000
vn 1.000000 0.000000 0.000000
vn 1.000000 0.000000 0.000000
vn 1.000000 0.000000 0.000000
vn 1.000000 0.000000 0.000000
vn 0.000000 0.000000 1.000000
vn 0.000000 0.000000 1.000000
vn 0.000000 -1.000000 0.000000
vn 0.000000 -1.000000 0.000000
vn 0.000000 -1.000000 0.000000
vn 0.000000 -1.000000 0.000000
vn 0.000000 0.000000 -1.000000
vn 0.000000 0.000000 -1.000000
vn 0.000000 0.130375 0.991465
vn 0.000000 0.130375 0.991465
vn 0.000000 0.130375 0.991465
vn 0.000000 0.130375 0.991465
vn 0.000000 1.000000 0.000000
vn 0.000000 1.000000 0.000000
vn 0.000000 1.000000 0.000000
vn 0.000000 1.000000 0.000000
vn 0.000000 0.130365 -0.991466
vn 0.000000 0.130365 -0.991466
vn 0.000000 0.130365 -0.991466
vn 0.000000 0.130365 -0.991466
vn 0.000000 -1.000000 0.000000
vn 0.000000 -1.000000 0.000000
vn 0.000000 -1.000000 0.000000
vn 0.000000 -1.000000 0.000000
vn 0.992675 0.120814 0.000000
vn 0.992675 0.120814 0.000000
vn 0.992675 0.120814 0.000000
vn 0.992675 0.120814 0.000000
vn -0.992691 0.120681 0.000000
vn -0.992691 0.120681 0.000000
vn -0.992691 0.120681 0.000000
vn -0.992691 0.120681 0.000000
vn 0.000000 -0.623890 0.781512
vn 0.000000 -0.623890 0.781512
vn 0.000000 -0.623890 0.781512
vn 0.000000 -0.623890 0.781512
vn 0.713195 -0.700965 0.000000
vn 0.713195 -0.700965 0.000000
vn 0.713195 -0.700965 0.000000
vn 0.713195 -0.700965 0.000000
vn 0.000000 -0.623897 -0.781506
vn 0.000000 -0.623897 -0.781506
vn 0.000000 -0.623897 -0.781506
vn 0.000000 -0.623897 -0.781506
vn -0.713219 -0.700942 0.000000
vn -0.713219 -0.700942 0.000000
vn -0.713219 -0.700942 0.000000
vn -0.713219 -0.700942 0.000000
vn 0.000000 0.000000 1.000000
vn 0.000000 0.000000 1.000000
vn 0.000000 0.000000 1.000000
vn 0.000000 0.000000 1.000000
vn 1.000000 0.000000 0.000000
vn 1.000000 0.000000 0.000000
vn 1.000000 0.000000 0.000000
vn 1.000000 0.000000 0.000000
vn 0.000000 0.000000 -1.000000
vn 0.000000 0.000000 -1.000000
vn 0.000000 0.000000 -1.000000
vn 0.000000 0.000000 -1.000000
vn -1.000000 0.000000 0.000000
vn -1.000000 0.000000 0.000000
vn -1.000000 0.000000 0.000000
vn -1.000000 0.000000 0.000000
vn 0.438242 -0.898857 0.000000
vn 0.438242 -0.898857 0.000000
vn 0.438242 -0.898857 0.000000
vn 0.438242 -0.898857 0.000000
vn -0.000000 0.000000 -1.000000
vn -0.000000 0.000000 -1.000000
vn -0.000000 0.000000 -1.000000
vn -0.000000 0.000000 -1.000000
vn 0.000000 0.000000 1.000000
vn 0.000000 0.000000 1.000000
vn 0.000000 0.000000 1.000000
vn 0.000000 0.000000 1.000000
vn 0.825209 -0.564827 0.000000
vn 0.825209 -0.564827 0.000000
vn 0.825209 -0.564827 0.000000
vn 0.825209 -0.564827 0.000000
vn 1.000000 0.000000 0.000000
vn 1.000000 0.000000 0.000000
vn 1.000000 0.000000 0.000000
vn 1.000000 0.000000 0.000000
vn 0.000000 0.000000 1.000000
vn 0.000000 0.000000 1.000000
vn 0.000000 -1.000000 0.000000
vn 0.000000 -1.000000 0.000000
vn 0.000000 -1.000000 0.000000
vn 0.000000 -1.000000 0.000000
vn 0.000000 0.000000 -1.000000
vn 0.000000 0.000000 -1.000000
vn -0.438223 -0.898867 0.000000
vn -0.438223 -0.898867 0.000000
vn -0.438223 -0.898867 0.000000
vn -0.438223 -0.898867 0.000000
vn 0.000000 0.000000 -1.000000
vn 0.000000 0.000000 -1.000000
vn 0.000000 0.000000 -1.000000
vn 0.000000 0.000000 -1.000000
vn 0.000000 0.000000 1.000000
vn 0.000000 0.000000 1.000000
vn 0.000000 0.000000 1.000000
vn 0.000000 0.000000 1.000000
vn -0.825233 -0.564793 0.000000
vn -0.825233 -0.564793 0.000000
vn -0.825233 -0.564793 0.000000
vn -0.825233 -0.564793 0.000000
vn -1.000000 0.000000 0.000000
vn -1.000000 0.000000 0.000000
vn -1.000000 0.000000 0.000000
vn -1.000000 0.000000 0.000000
vn 0.000000 0.000000 1.000000
vn 0.000000 0.000000 1.000000
vn 0.000000 -1.000000 0.000000
vn 0.000000 -1.000000 0.000000
vn 0.000000 -1.000000 0.000000
vn 0.000000 -1.000000 0.000000
vn 0.000000 0.000000 -1.000000
vn 0.000000 0.000000 -1.000000
vn -0.438239 -0.898859 0.000000
vn -0.438239 -0.898859 0.000000
vn -0.438239 -0.898859 0.000000
vn -0.438239 -0.898859 0.000000
vn 0.000000 0.000000 -1.000000
vn 0.000000 0.000000 -1.000000
vn 0.000000 0.000000 -1.000000
vn 0.000000 0.000000 -1.000000
vn 0.000000 0.000000 1.000000
vn 0.000000 0.000000 1.000000
vn 0.000000 0.000000 1.000000
vn 0.000000 0.000000 1.000000
vn -0.825230 -0.564797 0.000000
vn -0.825230 -0.564797 0.000000
vn -0.825230 -0.564797 0.000000
vn -0.825230 -0.564797 0.000000
vn -1.000000 0.000000 0.000000
vn -1.000000 0.000000 0.000000
vn -1.000000 0.000000 0.000000
vn -1.000000 0.000000 0.000000
vn 0.000000 0.000000 1.000000
vn 0.000000 0.000000 1.000000
vn 0.000000 -1.000000 0.000000
vn 0.000000 -1.000000 0.000000
vn 0.000000 -1.000000 0.000000
vn 0.000000 -1.000000 0.000000
vn 0.000000 0.000000 -1.000000
vn 0.000000 0.000000 -1.000000
vn 0.438239 -0.898859 0.000000
vn 0.438239 -0.898859 0.000000
vn 0.438239 -0.898859 0.000000
vn 0.438239 -0.898859 0.000000
vn 0.000000 0.000000 -1.000000
vn 0.000000 0.000000 -1.000000
vn 0.000000 0.000000 -1.000000
vn 0.000000 0.000000 -1.000000
vn -0.000000 0.000000 1.000000
vn -0.000000 0.000000 1.000000
vn -0.000000 0.000000 1.000000
vn -0.000000 0.000000 1.000000
vn 0.825230 -0.564797 0.000000
vn 0.825230 -0.564797 0.000000
vn 0.825230 -0.564797 0.000000
vn 0.825230 -0.564797 0.000000
vn 1.000000 0.000000 0.000000
vn 1.000000 0.000000 0.000000
vn 1.000000 0.000000 0.000000
vn 1.000000 0.000000 0.000000
vn 0.000000 0.000000 1.000000
vn 0.000000 0.000000 1.000000
vn 0.000000 -1.000000 0.000000
vn 0.000000 -1.000000 0.000000
vn 0.000000 -1.000000 0.000000
vn 0.000000 -1.000000 0.000000
vn 0.000000 0.000000 -1.000000
vn 0.000000 0.000000 -1.000000
vn -0.035196 0.000000 0.999380
vn -0.035196 0.000000 0.999380
vn -0.035196 0.000000 0.999380
vn -0.035196 0.000000 0.999380
vn 0.000000 1.000000 0.000000
vn 0.000000 1.000000 0.000000
vn 0.000000 1.000000 0.000000
vn 0.000000 1.000000 0.000000
vn 0.000000 0.000000 -1.000000
vn 0.000000 0.000000 -1.000000
vn 0.000000 0.000000 -1.000000
vn 0.000000 0.000000 -1.000000
vn 0.000000 -1.000000 0.000000
vn 0.000000 -1.000000 0.000000
vn 0.000000 -1.000000 0.000000
vn 0.000000 -1.000000 0.000000
vn 0.999075 0.000000 -0.043004
vn 0.999075 0.000000 -0.043004
vn 0.999075 0.000000 -0.043004
vn 0.999075 0.000000 -0.043004
vn -1.000000 0.000000 0.000000
vn -1.000000 0.000000 0.000000
vn -1.000000 0.000000 0.000000
vn -1.000000 0.000000 0.000000
vn 0.000000 0.000000 1.000000
vn 0.000000 0.000000 1.000000
vn 0.000000 0.000000 1.000000
vn 0.000000 0.000000 1.000000
vn 0.000000 1.000000 0.000000
vn 0.000000 1.000000 0.000000
vn 0.000000 1.000000 0.000000
vn 0.000000 1.000000 0.000000
vn -0.035192 0.000000 -0.999381
vn -0.035192 0.000000 -0.999381
vn -0.035192 0.000000 -0.999381
vn -0.035192 0.000000 -0.999381
vn 0.000000 -1.000000 0.000000
vn 0.000000 -1.000000 0.000000
vn 0.000000 -1.000000 0.000000
vn 0.000000 -1.000000 0.000000
vn 0.999075 0.000000 0.043004
vn 0.999075 0.000000 0.043004
vn 0.999075 0.000000 0.043004
vn 0.999075 0.000000 0.043004
vn -1.000000 0.000000 0.000000
vn -1.000000 0.000000 0.000000
vn -1.000000 0.000000 0.000000
vn -1.000000 0.000000 0.000000
vn 0.035196 0.000000 0.999380
vn 0.035196 0.000000 0.999380
vn 0.035196 0.000000 0.999380
vn 0.035196 0.000000 0.999380
vn 0.000000 1.000000 -0.000000
vn 0.000000 1.000000 -0.000000
vn 0.000000 1.000000 -0.000000
vn 0.000000 1.000000 -0.000000
vn 0.000000 0.000000 -1.000000
vn 0.000000 0.000000 -1.000000
vn 0.000000 0.000000 -1.000000
vn 0.000000 0.000000 -1.000000
vn 0.000000 -1.000000 -0.000000
vn 0.000000 -1.000000 -0.000000
vn 0.000000 -1.000000 -0.000000
vn 0.000000 -1.000000 -0.000000
vn 1.000000 0.000000 0.000000
vn 1.000000 0.000000 0.000000
vn 1.000000 0.000000 0.000000
vn 1.000000 0.000000 0.000000
vn -0.999075 0.000000 -0.043004
vn -0.999075 0.000000 -0.043004
vn -0.999075 0.000000 -0.043004
vn -0.999075 0.000000 -0.043004
vn 0.000000 0.000000 1.000000
vn 0.000000 0.000000 1.000000
vn 0.000000 0.000000 1.000000
vn 0.000000 0.000000 1.000000
vn 0.000000 1.000000 0.000000
vn 0.000000 1.000000 0.000000
vn 0.000000 1.000000 0.000000
vn 0.000000 1.000000 0.000000
vn 0.035192 0.000000 -0.999381
vn 0.035192 0.000000 -0.999381
vn 0.035192 0.000000 -0.999381
vn 0.035192 0.000000 -0.999381
vn 0.000000 -1.000000 0.000000
vn 0.000000 -1.000000 0.000000
vn 0.000000 -1.000000 0.000000
vn 0.000000 -1.000000 0.000000
vn 1.000000 0.000000 0.000000
vn 1.000000 0.000000 0.000000
vn 1.000000 0.000000 0.000000
vn 1.000000 0.000000 0.000000
vn -0.999075 0.000000 0.043004
vn -0.999075 0.000000 0.043004
vn -0.999075 0.000000 0.043004
vn -0.999075 0.000000 0.043004
s off
g polySurface7665
f 1/1/1 2/2/2 4/3/3 3/4/4
f 13/5/5 14/6/6 15/7/7 16/8/8
f 5/9/9 6/10/10 8/11/11 7/12/12
f 7/13/13 8/14/14 2/15/15 1/16/16
f 2/2/17 8/11/18 6/10/19 4/3/20
f 7/12/21 1/1/22 3/4/23 5/9/24
f 3/4/25 4/3/26 10/17/27 9/18/28
f 4/3/29 6/10/30 11/19/31 10/17/32
f 6/10/33 5/9/34 12/20/35 11/19/36
f 5/9/37 3/4/38 9/18/39 12/20/40
f 9/18/41 10/17/42 14/21/43 13/22/44
f 10/17/45 11/19/46 15/23/47 14/21/48
f 11/19/49 12/20/50 16/24/51 15/23/52
f 12/20/53 9/18/54 13/22/55 16/24/56
f 17/25/57 18/26/58 20/27/59 19/28/60
s 16
f 20/29/61 22/30/62 21/31/63 19/32/64
s 17
f 23/33/65 18/34/66 17/35/67 24/36/68
s off
f 25/37/69 26/38/70 27/39/71 28/40/72
f 24/41/73 17/25/74 19/28/75 21/42/76
s 17
f 23/33/65 24/36/68 26/43/77 25/44/78
s off
f 24/41/79 21/42/80 27/39/81 26/38/82
s 16
f 21/31/63 22/30/62 28/45/83 27/46/84
s off
f 29/47/85 31/48/86 32/49/87 30/50/88
s 22
f 32/51/89 31/52/90 33/53/91 34/54/92
s 23
f 35/55/93 36/56/94 29/57/95 30/58/96
s off
f 37/59/97 40/60/98 39/61/99 38/62/100
f 36/63/101 33/64/102 31/48/103 29/47/104
s 23
f 35/55/93 37/65/105 38/66/106 36/56/94
s off
f 36/63/107 38/62/108 39/61/109 33/64/110
s 22
f 33/53/91 39/67/111 40/68/112 34/54/92
s off
f 41/69/113 43/70/114 44/71/115 42/72/116
s 28
f 44/73/117 43/74/118 45/75/119 46/76/120
s 29
f 47/77/121 48/78/122 41/79/123 42/80/124
s off
f 49/81/125 52/82/126 51/83/127 50/84/128
f 48/85/129 45/86/130 43/70/131 41/69/132
s 29
f 47/77/121 49/87/133 50/88/134 48/78/122
s off
f 48/85/135 50/84/136 51/83/137 45/86/138
s 28
f 45/75/119 51/89/139 52/90/140 46/76/120
s off
f 53/91/141 54/92/142 56/93/143 55/94/144
s 34
f 56/95/145 58/96/146 57/97/147 55/98/148
s 35
f 59/99/149 54/100/150 53/101/151 60/102/152
s off
f 61/103/153 62/104/154 63/105/155 64/106/156
f 60/107/157 53/91/158 55/94/159 57/108/160
s 35
f 59/99/149 60/102/152 62/109/161 61/110/162
s off
f 60/107/163 57/108/164 63/105/165 62/104/166
s 34
f 57/97/147 58/96/146 64/111/167 63/112/168
s off
f 65/113/169 66/114/170 68/115/171 67/116/172
f 77/117/173 78/118/174 79/119/175 80/120/176
f 69/121/177 70/122/178 72/123/179 71/124/180
f 71/125/181 72/126/182 66/127/183 65/128/184
f 66/114/185 72/123/186 70/122/187 68/115/188
f 71/124/189 65/113/190 67/116/191 69/121/192
f 67/116/193 68/115/194 74/129/195 73/130/196
f 68/115/197 70/122/198 75/131/199 74/129/200
f 70/122/201 69/121/202 76/132/203 75/131/204
f 69/121/205 67/116/206 73/130/207 76/132/208
f 73/130/209 74/129/210 78/133/211 77/134/212
f 74/129/213 75/131/214 79/135/215 78/133/216
f 75/131/217 76/132/218 80/136/219 79/135/220
f 76/132/221 73/130/222 77/134/223 80/136/224
f 81/137/225 82/138/226 84/139/227 83/140/228
s 54
f 84/141/229 86/142/230 85/143/231 83/144/232
s 55
f 87/145/233 82/146/234 81/147/235 88/148/236
s off
f 89/149/237 90/150/238 91/151/239 92/152/240
f 88/153/241 81/137/242 83/140/243 85/154/244
s 55
f 87/145/233 88/148/236 90/155/245 89/156/246
s off
f 88/153/247 85/154/248 91/151/249 90/150/250
s 54
f 85/143/231 86/142/230 92/157/251 91/158/252
s off
f 93/159/253 95/160/254 96/161/255 94/162/256
s 60
f 96/163/257 95/164/258 97/165/259 98/166/260
s 61
f 99/167/261 100/168/262 93/169/263 94/170/264
s off
f 101/171/265 104/172/266 103/173/267 102/174/268
f 100/175/269 97/176/270 95/160/271 93/159/272
s 61
f 99/167/261 101/177/273 102/178/274 100/168/262
s off
f 100/175/275 102/174/276 103/173/277 97/176/278
s 60
f 97/165/259 103/179/279 104/180/280 98/166/260
s off
f 105/181/281 107/182/282 108/183/283 106/184/284
s 66
f 108/185/285 107/186/286 109/187/287 110/188/288
s 67
f 111/189/289 112/190/290 105/191/291 106/192/292
s off
f 113/193/293 116/194/294 115/195/295 114/196/296
f 112/197/297 109/198/298 107/182/299 105/181/300
s 67
f 111/189/289 113/199/301 114/200/302 112/190/290
s off
f 112/197/303 114/196/304 115/195/305 109/198/306
s 66
f 109/187/287 115/201/307 116/202/308 110/188/288
s off
f 117/203/309 118/204/310 120/205/311 119/206/312
s 72
f 120/207/313 122/208/314 121/209/315 119/210/316
s 73
f 123/211/317 118/212/318 117/213/319 124/214/320
s off
f 125/215/321 126/216/322 127/217/323 128/218/324
f 124/219/325 117/203/326 119/206/327 121/220/328
s 73
f 123/211/317 124/214/320 126/221/329 125/222/330
s off
f 124/219/331 121/220/332 127/217/333 126/216/334
s 72
f 121/209/315 122/208/314 128/223/335 127/224/336
s off
f 129/225/337 130/226/338 132/227/339 131/228/340
f 141/229/341 142/230/342 143/231/343 144/232/344
f 133/233/345 134/234/346 136/235/347 135/236/348
f 135/237/349 136/238/350 130/239/351 129/240/352
f 130/226/353 136/235/354 134/234/355 132/227/356
f 135/236/357 129/225/358 131/228/359 133/233/360
f 131/228/361 132/227/362 138/241/363 137/242/364
f 132/227/365 134/234/366 139/243/367 138/241/368
f 134/234/369 133/233/370 140/244/371 139/243/372
f 133/233/373 131/228/374 137/242/375 140/244/376
f 137/242/377 138/241/378 142/245/379 141/246/380
f 138/241/381 139/243/382 143/247/383 142/245/384
f 139/243/385 140/244/386 144/248/387 143/247/388
f 140/244/389 137/242/390 141/246/391 144/248/392
f 145/249/393 146/250/394 148/251/395 147/252/396
s 92
f 148/253/397 150/254/398 149/255/399 147/256/400
s 93
f 151/257/401 146/258/402 145/259/403 152/260/404
s off
f 153/261/405 154/262/406 155/263/407 156/264/408
f 152/265/409 145/249/410 147/252/411 149/266/412
s 93
f 151/257/401 152/260/404 154/267/413 153/268/414
s off
f 152/265/415 149/266/416 155/263/417 154/262/418
s 92
f 149/255/399 150/254/398 156/269/419 155/270/420
s off
f 157/271/421 159/272/422 160/273/423 158/274/424
s 98
f 160/275/425 159/276/426 161/277/427 162/278/428
s 99
f 163/279/429 164/280/430 157/281/431 158/282/432
s off
f 165/283/433 168/284/434 167/285/435 166/286/436
f 164/287/437 161/288/438 159/272/439 157/271/440
s 99
f 163/279/429 165/289/441 166/290/442 164/280/430
s off
f 164/287/443 166/286/444 167/285/445 161/288/446
s 98
f 161/277/427 167/291/447 168/292/448 162/278/428
s off
f 169/293/449 171/294/450 172/295/451 170/296/452
s 104
f 172/297/453 171/298/454 173/299/455 174/300/456
s 105
f 175/301/457 176/302/458 169/303/459 170/304/460
s off
f 177/305/461 180/306/462 179/307/463 178/308/464
f 176/309/465 173/310/466 171/294/467 169/293/468
s 105
f 175/301/457 177/311/469 178/312/470 176/302/458
s off
f 176/309/471 178/308/472 179/307/473 173/310/474
s 104
f 173/299/455 179/313/475 180/314/476 174/300/456
s off
f 181/315/477 182/316/478 184/317/479 183/318/480
s 110
f 184/319/481 186/320/482 185/321/483 183/322/484
s 111
f 187/323/485 182/324/486 181/325/487 188/326/488
s off
f 189/327/489 190/328/490 191/329/491 192/330/492
f 188/331/493 181/315/494 183/318/495 185/332/496
s 111
f 187/323/485 188/326/488 190/333/497 189/334/498
s off
f 188/331/499 185/332/500 191/329/501 190/328/502
s 110
f 185/321/483 186/320/482 192/335/503 191/336/504
s off
f 193/337/505 194/338/506 196/339/507 195/340/508
f 195/341/509 196/342/510 198/343/511 197/344/512
f 197/345/513 198/346/514 200/347/515 199/348/516
f 199/349/517 200/350/518 194/351/519 193/352/520
f 194/353/521 200/354/522 198/355/523 196/356/524
f 199/357/525 193/358/526 195/359/527 197/360/528
f 201/361/529 202/362/530 204/363/531 203/364/532
f 203/365/533 204/366/534 206/367/535 205/368/536
f 205/369/537 206/370/538 208/371/539 207/372/540
f 207/373/541 208/374/542 202/375/543 201/376/544
f 202/377/545 208/378/546 206/379/547 204/380/548
f 207/381/549 201/382/550 203/383/551 205/384/552
f 209/385/553 210/386/554 212/387/555 211/388/556
f 211/389/557 212/390/558 214/391/559 213/392/560
f 213/393/561 214/394/562 216/395/563 215/396/564
f 215/397/565 216/398/566 210/399/567 209/400/568
f 210/401/569 216/402/570 214/403/571 212/404/572
f 215/405/573 209/406/574 211/407/575 213/408/576
f 217/409/577 218/410/578 220/411/579 219/412/580
f 219/413/581 220/414/582 222/415/583 221/416/584
f 221/417/585 222/418/586 224/419/587 223/420/588
f 223/421/589 224/422/590 218/423/591 217/424/592
f 218/425/593 224/426/594 222/427/595 220/428/596
f 223/429/597 217/430/598 219/431/599 221/432/600
