# This file uses centimeters as units for non-parametric coordinates.

g default
v -27.366222 0.117791 0.163507
v -27.366222 0.154868 0.163507
v -27.699627 0.117791 0.163507
v -27.699627 0.154868 0.163507
v -27.699627 0.117791 -0.169720
v -27.699627 0.154868 -0.169720
v -27.366222 0.117791 -0.169720
v -27.366222 0.154868 -0.169720
v -27.529835 0.154868 -0.017830
v -27.529835 0.117791 -0.017830
v -27.529835 0.117791 0.011618
v -27.529835 0.154868 0.011618
v -27.416084 0.007118 -0.118284
v -27.364622 0.007118 -0.118284
v -27.416084 0.384344 -0.118284
v -27.364622 0.384344 -0.118284
v -27.416084 0.384344 -0.172034
v -27.364622 0.384344 -0.172034
v -27.416084 0.007118 -0.172034
v -27.364622 0.007118 -0.172034
v -27.416084 0.007118 0.172395
v -27.364622 0.007118 0.172395
v -27.416084 0.384344 0.172395
v -27.364622 0.384344 0.172395
v -27.416084 0.384344 0.118645
v -27.364622 0.384344 0.118645
v -27.416084 0.007118 0.118645
v -27.364622 0.007118 0.118645
v -27.708286 0.351950 0.178785
v -27.358393 0.351950 0.178785
v -27.718283 0.414930 0.186958
v -27.348394 0.414930 0.186958
v -27.718283 0.414930 -0.186958
v -27.348394 0.414930 -0.186958
v -27.708286 0.351950 -0.178785
v -27.358393 0.351950 -0.178785
v -27.697470 0.007118 0.172395
v -27.646009 0.007118 0.172395
v -27.697470 0.384344 0.172395
v -27.646009 0.384344 0.172395
v -27.697470 0.384344 0.118645
v -27.646009 0.384344 0.118645
v -27.697470 0.007118 0.118645
v -27.646009 0.007118 0.118645
v -27.697470 0.007118 -0.118284
v -27.646009 0.007118 -0.118284
v -27.697470 0.384344 -0.118284
v -27.646009 0.384344 -0.118284
v -27.697470 0.384344 -0.172034
v -27.646009 0.384344 -0.172034
v -27.697470 0.007118 -0.172034
v -27.646009 0.007118 -0.172034
vt 0.375000 0.000000
vt 0.625000 0.000000
vt 0.375000 0.250000
vt 0.625000 0.250000
vt 0.375000 0.500000
vt 0.625000 0.500000
vt 0.375000 0.750000
vt 0.625000 0.750000
vt 0.375000 1.000000
vt 0.625000 1.000000
vt 0.875000 0.000000
vt 0.875000 0.250000
vt 0.125000 0.000000
vt 0.125000 0.250000
vt 0.625000 0.627318
vt 0.875000 0.122682
vt 0.125000 0.122682
vt 0.375000 0.627318
vt 0.375000 0.122682
vt 0.625000 0.122682
vt 0.375000 0.000000
vt 0.625000 0.000000
vt 0.625000 0.250000
vt 0.375000 0.250000
vt 0.625000 0.500000
vt 0.375000 0.500000
vt 0.625000 0.750000
vt 0.375000 0.750000
vt 0.625000 1.000000
vt 0.375000 1.000000
vt 0.875000 0.000000
vt 0.875000 0.250000
vt 0.125000 0.000000
vt 0.125000 0.250000
vt 0.375000 0.000000
vt 0.625000 0.000000
vt 0.625000 0.250000
vt 0.375000 0.250000
vt 0.625000 0.500000
vt 0.375000 0.500000
vt 0.625000 0.750000
vt 0.375000 0.750000
vt 0.625000 1.000000
vt 0.375000 1.000000
vt 0.875000 0.000000
vt 0.875000 0.250000
vt 0.125000 0.000000
vt 0.125000 0.250000
vt 0.375000 0.000000
vt 0.625000 0.000000
vt 0.625000 0.250000
vt 0.375000 0.250000
vt 0.625000 0.500000
vt 0.375000 0.500000
vt 0.625000 0.750000
vt 0.375000 0.750000
vt 0.625000 1.000000
vt 0.375000 1.000000
vt 0.875000 0.000000
vt 0.875000 0.250000
vt 0.125000 0.000000
vt 0.125000 0.250000
vt 0.375000 0.000000
vt 0.625000 0.000000
vt 0.625000 0.250000
vt 0.375000 0.250000
vt 0.625000 0.500000
vt 0.375000 0.500000
vt 0.625000 0.750000
vt 0.375000 0.750000
vt 0.625000 1.000000
vt 0.375000 1.000000
vt 0.875000 0.000000
vt 0.875000 0.250000
vt 0.125000 0.000000
vt 0.125000 0.250000
vt 0.375000 0.000000
vt 0.625000 0.000000
vt 0.625000 0.250000
vt 0.375000 0.250000
vt 0.625000 0.500000
vt 0.375000 0.500000
vt 0.625000 0.750000
vt 0.375000 0.750000
vt 0.625000 1.000000
vt 0.375000 1.000000
vt 0.875000 0.000000
vt 0.875000 0.250000
vt 0.125000 0.000000
vt 0.125000 0.250000
vn -0.009228 0.000000 0.999957
vn -0.009228 0.000000 0.999957
vn 0.666722 0.000000 0.745306
vn 0.666722 0.000000 0.745306
vn -1.000000 0.000000 0.000000
vn -1.000000 0.000000 0.000000
vn -1.000000 0.000000 0.000000
vn -1.000000 0.000000 0.000000
vn 0.666722 0.000000 -0.745306
vn 0.666722 0.000000 -0.745306
vn -0.009228 0.000000 -0.999957
vn -0.009228 0.000000 -0.999957
vn 1.000000 0.000000 0.000000
vn 1.000000 0.000000 0.000000
vn 1.000000 0.000000 0.000000
vn 1.000000 0.000000 0.000000
vn 0.000000 1.000000 0.000000
vn 0.000000 1.000000 0.000000
vn 0.000000 1.000000 0.000000
vn 0.000000 1.000000 0.000000
vn 0.000000 -1.000000 0.000000
vn 0.000000 -1.000000 0.000000
vn 0.000000 -1.000000 0.000000
vn 0.000000 -1.000000 0.000000
vn -0.680364 0.000000 -0.732874
vn -0.680364 0.000000 -0.732874
vn 0.000000 -1.000000 0.000000
vn 0.000000 -1.000000 0.000000
vn -0.680364 0.000000 0.732874
vn -0.680364 0.000000 0.732874
vn 0.000000 1.000000 0.000000
vn 0.000000 1.000000 0.000000
vn 0.000000 0.000000 1.000000
vn 0.000000 0.000000 1.000000
vn 0.000000 0.000000 1.000000
vn 0.000000 0.000000 1.000000
vn 0.000000 1.000000 0.000000
vn 0.000000 1.000000 0.000000
vn 0.000000 1.000000 0.000000
vn 0.000000 1.000000 0.000000
vn 0.000000 0.000000 -1.000000
vn 0.000000 0.000000 -1.000000
vn 0.000000 0.000000 -1.000000
vn 0.000000 0.000000 -1.000000
vn 0.000000 -1.000000 0.000000
vn 0.000000 -1.000000 0.000000
vn 0.000000 -1.000000 0.000000
vn 0.000000 -1.000000 0.000000
vn 1.000000 0.000000 0.000000
vn 1.000000 0.000000 0.000000
vn 1.000000 0.000000 0.000000
vn 1.000000 0.000000 0.000000
vn -1.000000 0.000000 0.000000
vn -1.000000 0.000000 0.000000
vn -1.000000 0.000000 0.000000
vn -1.000000 0.000000 0.000000
vn 0.000000 0.000000 1.000000
vn 0.000000 0.000000 1.000000
vn 0.000000 0.000000 1.000000
vn 0.000000 0.000000 1.000000
vn 0.000000 1.000000 0.000000
vn 0.000000 1.000000 0.000000
vn 0.000000 1.000000 0.000000
vn 0.000000 1.000000 0.000000
vn 0.000000 0.000000 -1.000000
vn 0.000000 0.000000 -1.000000
vn 0.000000 0.000000 -1.000000
vn 0.000000 0.000000 -1.000000
vn 0.000000 -1.000000 0.000000
vn 0.000000 -1.000000 0.000000
vn 0.000000 -1.000000 0.000000
vn 0.000000 -1.000000 0.000000
vn 1.000000 0.000000 0.000000
vn 1.000000 0.000000 0.000000
vn 1.000000 0.000000 0.000000
vn 1.000000 0.000000 0.000000
vn -1.000000 0.000000 0.000000
vn -1.000000 0.000000 0.000000
vn -1.000000 0.000000 0.000000
vn -1.000000 0.000000 0.000000
vn 0.000000 -0.128697 0.991684
vn 0.000000 -0.128697 0.991684
vn 0.000000 -0.128697 0.991684
vn 0.000000 -0.128697 0.991684
vn 0.000000 1.000000 0.000000
vn 0.000000 1.000000 0.000000
vn 0.000000 1.000000 0.000000
vn 0.000000 1.000000 0.000000
vn 0.000000 -0.128694 -0.991684
vn 0.000000 -0.128694 -0.991684
vn 0.000000 -0.128694 -0.991684
vn 0.000000 -0.128694 -0.991684
vn 0.000000 -1.000000 0.000000
vn 0.000000 -1.000000 0.000000
vn 0.000000 -1.000000 0.000000
vn 0.000000 -1.000000 0.000000
vn 0.987640 -0.156741 0.000000
vn 0.987640 -0.156741 0.000000
vn 0.987640 -0.156741 0.000000
vn 0.987640 -0.156741 0.000000
vn -0.987640 -0.156740 0.000000
vn -0.987640 -0.156740 0.000000
vn -0.987640 -0.156740 0.000000
vn -0.987640 -0.156740 0.000000
vn 0.000000 0.000000 1.000000
vn 0.000000 0.000000 1.000000
vn 0.000000 0.000000 1.000000
vn 0.000000 0.000000 1.000000
vn 0.000000 1.000000 0.000000
vn 0.000000 1.000000 0.000000
vn 0.000000 1.000000 0.000000
vn 0.000000 1.000000 0.000000
vn 0.000000 0.000000 -1.000000
vn 0.000000 0.000000 -1.000000
vn 0.000000 0.000000 -1.000000
vn 0.000000 0.000000 -1.000000
vn 0.000000 -1.000000 0.000000
vn 0.000000 -1.000000 0.000000
vn 0.000000 -1.000000 0.000000
vn 0.000000 -1.000000 0.000000
vn 1.000000 0.000000 0.000000
vn 1.000000 0.000000 0.000000
vn 1.000000 0.000000 0.000000
vn 1.000000 0.000000 0.000000
vn -1.000000 0.000000 0.000000
vn -1.000000 0.000000 0.000000
vn -1.000000 0.000000 0.000000
vn -1.000000 0.000000 0.000000
vn 0.000000 0.000000 1.000000
vn 0.000000 0.000000 1.000000
vn 0.000000 0.000000 1.000000
vn 0.000000 0.000000 1.000000
vn 0.000000 1.000000 0.000000
vn 0.000000 1.000000 0.000000
vn 0.000000 1.000000 0.000000
vn 0.000000 1.000000 0.000000
vn 0.000000 0.000000 -1.000000
vn 0.000000 0.000000 -1.000000
vn 0.000000 0.000000 -1.000000
vn 0.000000 0.000000 -1.000000
vn 0.000000 -1.000000 0.000000
vn 0.000000 -1.000000 0.000000
vn 0.000000 -1.000000 0.000000
vn 0.000000 -1.000000 0.000000
vn 1.000000 0.000000 0.000000
vn 1.000000 0.000000 0.000000
vn 1.000000 0.000000 0.000000
vn 1.000000 0.000000 0.000000
vn -1.000000 0.000000 0.000000
vn -1.000000 0.000000 0.000000
vn -1.000000 0.000000 0.000000
vn -1.000000 0.000000 0.000000
s 1
g polySurface7809
f 11/19/1 12/20/2 4/4/3 3/3/4
s off
f 3/3/5 4/4/6 6/6/7 5/5/8
s 3
f 5/5/9 6/6/10 9/15/11 10/18/12
s off
f 7/7/13 8/8/14 2/10/15 1/9/16
s 5
f 12/20/17 9/16/18 6/12/19 4/4/20
s 6
f 10/17/21 11/19/22 3/3/23 5/14/24
s 3
f 10/18/12 9/15/11 8/8/25 7/7/26
s 6
f 7/13/27 1/1/28 11/19/22 10/17/21
s 1
f 1/1/29 2/2/30 12/20/2 11/19/1
s 5
f 2/2/31 8/11/32 9/16/18 12/20/17
s off
f 13/21/33 14/22/34 16/23/35 15/24/36
f 15/24/37 16/23/38 18/25/39 17/26/40
f 17/26/41 18/25/42 20/27/43 19/28/44
f 19/28/45 20/27/46 14/29/47 13/30/48
f 14/22/49 20/31/50 18/32/51 16/23/52
f 19/33/53 13/21/54 15/24/55 17/34/56
f 21/35/57 22/36/58 24/37/59 23/38/60
f 23/38/61 24/37/62 26/39/63 25/40/64
f 25/40/65 26/39/66 28/41/67 27/42/68
f 27/42/69 28/41/70 22/43/71 21/44/72
f 22/36/73 28/45/74 26/46/75 24/37/76
f 27/47/77 21/35/78 23/38/79 25/48/80
f 29/49/81 30/50/82 32/51/83 31/52/84
f 31/52/85 32/51/86 34/53/87 33/54/88
f 33/54/89 34/53/90 36/55/91 35/56/92
f 35/56/93 36/55/94 30/57/95 29/58/96
f 30/50/97 36/59/98 34/60/99 32/51/100
f 35/61/101 29/49/102 31/52/103 33/62/104
f 37/63/105 38/64/106 40/65/107 39/66/108
f 39/66/109 40/65/110 42/67/111 41/68/112
f 41/68/113 42/67/114 44/69/115 43/70/116
f 43/70/117 44/69/118 38/71/119 37/72/120
f 38/64/121 44/73/122 42/74/123 40/65/124
f 43/75/125 37/63/126 39/66/127 41/76/128
f 45/77/129 46/78/130 48/79/131 47/80/132
f 47/80/133 48/79/134 50/81/135 49/82/136
f 49/82/137 50/81/138 52/83/139 51/84/140
f 51/84/141 52/83/142 46/85/143 45/86/144
f 46/78/145 52/87/146 50/88/147 48/79/148
f 51/89/149 45/77/150 47/80/151 49/90/152
