# This file uses centimeters as units for non-parametric coordinates.

g default
v -26.120064 0.734283 -0.191482
v -26.474129 0.734283 -0.191482
v -26.108715 0.825381 -0.200839
v -26.485477 0.825381 -0.200839
v -26.111881 0.827183 -0.180324
v -26.482311 0.827183 -0.180324
v -26.123039 0.735687 -0.170936
v -26.471153 0.735687 -0.170936
v -26.335371 0.406381 -0.160550
v -26.382891 0.406381 -0.160550
v -26.345924 0.794203 -0.200088
v -26.406546 0.794203 -0.200088
v -26.345924 0.794203 -0.187751
v -26.406546 0.794203 -0.187751
v -26.335371 0.406381 -0.148212
v -26.382891 0.406381 -0.148212
v -26.273336 0.406381 -0.160550
v -26.320856 0.406381 -0.160550
v -26.266785 0.794203 -0.200088
v -26.327408 0.794203 -0.200088
v -26.266785 0.794203 -0.187751
v -26.327408 0.794203 -0.187751
v -26.273336 0.406381 -0.148212
v -26.320856 0.406381 -0.148212
v -26.211302 0.406381 -0.160550
v -26.258821 0.406381 -0.160550
v -26.187647 0.794203 -0.200088
v -26.248268 0.794203 -0.200088
v -26.187647 0.794203 -0.187751
v -26.248268 0.794203 -0.187751
v -26.211302 0.406381 -0.148212
v -26.258821 0.406381 -0.148212
v -26.213158 0.827183 -0.188338
v -26.218216 0.735687 -0.178950
v -26.218216 0.734283 -0.199496
v -26.213158 0.825381 -0.208853
v -26.379305 0.827183 -0.188338
v -26.374352 0.735687 -0.178950
v -26.374352 0.734283 -0.199496
v -26.379305 0.825381 -0.208853
v -26.141098 0.383128 -0.175126
v -26.453098 0.383129 -0.175126
v -26.145756 0.398336 -0.169075
v -26.448437 0.398337 -0.169075
v -26.105827 0.398337 0.198216
v -26.488369 0.398337 0.198216
v -26.098532 0.383128 0.204267
v -26.495665 0.383129 0.204266
v -26.136272 0.410572 -0.178892
v -26.457922 0.410572 -0.178892
v -26.503056 0.410573 0.208024
v -26.091141 0.410573 0.208024
v -26.135990 0.438064 -0.179722
v -26.458202 0.438064 -0.179723
v -26.503904 0.438064 0.208852
v -26.090290 0.438064 0.208853
v -26.150747 0.173096 -0.134975
v -26.175678 0.171871 -0.135031
v -26.119589 0.173097 0.168551
v -26.149818 0.171870 0.168608
v -26.119635 0.136405 0.169557
v -26.148823 0.136552 0.169526
v -26.150799 0.136405 -0.135954
v -26.174858 0.136552 -0.135922
v -26.418835 0.173097 -0.134975
v -26.443813 0.171870 -0.135031
v -26.444742 0.173097 0.168551
v -26.475044 0.171870 0.168608
v -26.446800 0.136405 0.169557
v -26.475979 0.136552 0.169526
v -26.420525 0.136405 -0.135954
v -26.444582 0.136552 -0.135922
v -26.444323 0.169615 0.007304
v -26.446617 0.168654 0.031231
v -26.153118 0.169615 0.007304
v -26.150875 0.168654 0.031231
v -26.152267 0.139996 0.008134
v -26.150181 0.140127 0.031207
v -26.445190 0.139996 0.008134
v -26.447327 0.140127 0.031207
v -26.396969 0.304623 -0.149969
v -26.413937 0.286648 -0.150485
v -26.398657 0.304623 -0.126854
v -26.415915 0.286648 -0.127293
v -26.397488 0.356585 -0.125580
v -26.415276 0.390122 -0.124758
v -26.413305 0.390122 -0.147554
v -26.395815 0.356584 -0.148504
v -26.297966 0.390066 -0.147560
v -26.297970 0.356559 -0.148500
v -26.297985 0.356559 -0.125582
v -26.297981 0.390066 -0.124759
v -26.198994 0.304624 -0.149969
v -26.182034 0.286648 -0.150485
v -26.197330 0.304623 -0.126854
v -26.180080 0.286648 -0.127293
v -26.198484 0.356584 -0.125580
v -26.180691 0.390122 -0.124758
v -26.182632 0.390122 -0.147554
v -26.200127 0.356585 -0.148504
v -26.176792 0.304624 0.158863
v -26.155994 0.286648 0.159297
v -26.175131 0.304624 0.181957
v -26.154047 0.286648 0.182474
v -26.176544 0.356584 0.180444
v -26.154793 0.390122 0.179469
v -26.156734 0.390122 0.156661
v -26.178185 0.356585 0.157517
v -26.298155 0.390066 0.156644
v -26.298164 0.356559 0.157532
v -26.298176 0.356559 0.180448
v -26.298170 0.390066 0.179467
v -26.419552 0.304623 0.158863
v -26.440361 0.286648 0.159297
v -26.421240 0.304623 0.181957
v -26.442337 0.286648 0.182474
v -26.419811 0.356585 0.180444
v -26.441553 0.390122 0.179469
v -26.439583 0.390122 0.156661
v -26.418137 0.356584 0.157517
v -26.463182 0.304517 0.132536
v -26.466721 0.286591 0.155399
v -26.443190 0.304517 0.132537
v -26.444881 0.286591 0.155399
v -26.439701 0.356559 0.131526
v -26.439934 0.390128 0.152906
v -26.466009 0.390128 0.152906
v -26.463873 0.356559 0.131525
v -26.452740 0.390065 0.016418
v -26.451530 0.356559 0.016428
v -26.430244 0.356559 0.016428
v -26.427353 0.390065 0.016418
v -26.439785 0.304517 -0.099647
v -26.438587 0.286591 -0.122503
v -26.422609 0.304517 -0.099647
v -26.420374 0.286591 -0.122503
v -26.419603 0.356559 -0.098668
v -26.416243 0.390128 -0.120066
v -26.437994 0.390128 -0.120066
v -26.440369 0.356559 -0.098668
v -26.154388 0.304517 0.132536
v -26.152752 0.286591 0.155399
v -26.134398 0.304517 0.132537
v -26.130917 0.286591 0.155399
v -26.133675 0.356559 0.131526
v -26.131567 0.390128 0.152906
v -26.157639 0.390128 0.152906
v -26.157845 0.356559 0.131525
v -26.169945 0.390066 0.016418
v -26.167072 0.356559 0.016428
v -26.145790 0.356559 0.016428
v -26.144562 0.390065 0.016418
v -26.174501 0.304517 -0.099647
v -26.176701 0.286591 -0.122503
v -26.157326 0.304517 -0.099647
v -26.158485 0.286591 -0.122503
v -26.156715 0.356559 -0.098668
v -26.159035 0.390128 -0.120066
v -26.180779 0.390128 -0.120066
v -26.177479 0.356559 -0.098668
v -26.445030 0.006320 0.159803
v -26.482025 0.006307 0.159649
v -26.434692 0.393167 0.149655
v -26.469103 0.393180 0.149510
v -26.437323 0.393177 0.182899
v -26.474167 0.393140 0.183993
v -26.447857 0.006310 0.195547
v -26.487469 0.006347 0.196720
v -26.113604 0.006307 0.159649
v -26.150591 0.006320 0.159802
v -26.126431 0.393180 0.149511
v -26.160831 0.393167 0.149654
v -26.121389 0.393140 0.183993
v -26.158230 0.393177 0.182899
v -26.108187 0.006347 0.196720
v -26.147791 0.006310 0.195547
v -26.417755 0.006310 -0.164099
v -26.449219 0.006347 -0.165271
v -26.409325 0.393177 -0.151606
v -26.438591 0.393140 -0.152699
v -26.412235 0.393167 -0.118361
v -26.441048 0.393180 -0.118218
v -26.420887 0.006320 -0.128355
v -26.451866 0.006308 -0.128201
v -26.146145 0.006347 -0.165272
v -26.177628 0.006310 -0.164098
v -26.156696 0.393140 -0.152699
v -26.185982 0.393177 -0.151606
v -26.154282 0.393180 -0.118215
v -26.183094 0.393167 -0.118360
v -26.143545 0.006307 -0.128198
v -26.174522 0.006320 -0.128353
vt -0.171245 0.256976
vt 0.280600 0.256976
vt 0.473148 0.449228
vt -0.171244 0.339380
vt 0.473148 0.435675
vt -0.171244 0.352933
vt 0.280600 0.435337
vt -0.171244 0.448890
vt 0.280600 0.448890
vt -0.171244 0.435337
vt -0.339724 0.448552
vt -0.339724 0.434999
vt 0.280600 0.435337
vt 0.280600 0.448890
vt 0.280600 0.352933
vt 0.280600 0.339380
vt 1.196788 0.502184
vt 1.196788 0.554462
vt -0.209399 0.554462
vt -0.209399 0.502184
vt -0.209399 0.515757
vt -0.209399 0.568034
vt 1.196788 0.568034
vt 1.196788 0.515757
vt 1.951544 0.501306
vt 1.951544 0.553582
vt 0.545357 0.553582
vt 0.545357 0.501306
vt 0.545357 0.514878
vt 0.545357 0.567155
vt 1.951544 0.567155
vt 1.951544 0.514878
vt 0.475828 0.501496
vt 0.475828 0.553773
vt -0.930359 0.553773
vt -0.930359 0.501496
vt -0.930359 0.515068
vt -0.930359 0.567346
vt 0.475828 0.567346
vt 0.475828 0.515068
vt -0.045987 0.352933
vt -0.045987 0.435337
vt -0.045987 0.256976
vt -0.045987 0.448890
vt -0.045987 0.339380
vt 0.153270 0.352933
vt 0.153270 0.435337
vt 0.153270 0.256976
vt 0.153270 0.448890
vt 0.153270 0.339380
vt 0.418753 0.468853
vt 0.741235 0.468770
vt 0.740998 0.494781
vt 0.422682 0.494867
vt 0.892544 0.274197
vt 1.048292 0.274195
vt 1.048294 0.403691
vt 0.892544 0.403689
vt 0.694027 0.494648
vt 1.011833 0.494623
vt 1.016208 0.468547
vt 0.693633 0.468646
vt 0.896706 0.395814
vt 1.044133 0.395817
vt 1.044131 0.272023
vt 0.896706 0.272026
vt 0.744590 0.512235
vt 0.403821 0.512305
vt 1.032146 0.511895
vt 0.690948 0.512105
vt 0.744531 0.555268
vt 0.403804 0.555268
vt 1.032141 0.555397
vt 0.691397 0.555280
vt 1.127955 0.064305
vt 1.127955 0.017894
vt 0.755663 0.017790
vt 0.755663 0.064409
vt 0.236134 0.281479
vt 0.287495 0.283300
vt 0.287508 0.332854
vt 0.238356 0.332842
vt 0.755663 0.115356
vt 0.755663 0.066806
vt 1.127955 0.066924
vt 1.127955 0.115237
vt 0.238387 0.332810
vt 0.287478 0.332825
vt 0.287463 0.283332
vt 0.236166 0.281510
vt 1.127955 0.017918
vt 1.127955 0.066504
vt 0.755663 0.066622
vt 0.755663 0.017800
vt 1.127955 0.115890
vt 1.127955 0.064695
vt 0.755663 0.064580
vt 0.755663 0.116005
vt 1.127955 0.064305
vt 1.127955 0.017894
vt 0.755663 0.017790
vt 0.755663 0.064409
vt 0.236134 0.281479
vt 0.287495 0.283300
vt 0.287508 0.332854
vt 0.238356 0.332842
vt 0.755663 0.115356
vt 0.755663 0.066806
vt 1.127955 0.066924
vt 1.127955 0.115237
vt 0.238387 0.332810
vt 0.287478 0.332825
vt 0.287463 0.283332
vt 0.236166 0.281510
vt 1.127955 0.017918
vt 1.127955 0.066504
vt 0.755663 0.066622
vt 0.755663 0.017800
vt 1.127955 0.115890
vt 1.127955 0.064695
vt 0.755663 0.064580
vt 0.755663 0.116005
vt 1.547970 0.065232
vt 1.547970 0.032832
vt 1.157591 0.032959
vt 1.157591 0.065105
vt 0.236345 0.281686
vt 0.287278 0.283510
vt 0.287307 0.332654
vt 0.238565 0.332625
vt 1.157591 0.100379
vt 1.157591 0.066916
vt 1.547970 0.066771
vt 1.547970 0.100524
vt 0.238200 0.333005
vt 0.287659 0.333005
vt 0.287659 0.283143
vt 0.235977 0.281323
vt 1.547970 0.032832
vt 1.547970 0.066771
vt 1.157591 0.066628
vt 1.157591 0.032975
vt 1.547970 0.100972
vt 1.547970 0.065232
vt 1.157591 0.065372
vt 1.157591 0.100831
vt -0.005952 0.358312
vt -0.005952 0.340568
vt -0.061185 0.340568
vt -0.061185 0.358312
vt 0.031531 0.244391
vt 0.058079 0.257063
vt 0.058079 0.306751
vt 0.031531 0.330296
vt 0.031531 0.330296
vt 0.058079 0.306751
vt 0.058079 0.257063
vt 0.031531 0.244391
vt 0.049739 0.358312
vt 0.049739 0.340568
vt 0.133282 0.330226
vt 0.133226 0.306817
vt 0.165914 0.358262
vt 0.165914 0.340618
vt 0.133226 0.306817
vt 0.133282 0.330226
vt -0.005952 0.358312
vt -0.061185 0.358312
vt -0.061185 0.340568
vt -0.005952 0.340568
vt 0.031531 0.244391
vt 0.031531 0.330296
vt 0.058079 0.306751
vt 0.058079 0.257063
vt 0.031531 0.330296
vt 0.031531 0.244391
vt 0.058079 0.257063
vt 0.058079 0.306751
vt 0.049739 0.358312
vt 0.049739 0.340568
vt 0.133226 0.306817
vt 0.133282 0.330226
vt 0.165914 0.340618
vt 0.165914 0.358262
vt 0.133282 0.330226
vt 0.133226 0.306817
vt -0.005952 0.358312
vt -0.061185 0.358312
vt -0.061185 0.340568
vt -0.005952 0.340568
vt 0.031531 0.244391
vt 0.031531 0.330296
vt 0.058079 0.306751
vt 0.058079 0.257063
vt 0.031531 0.330296
vt 0.031531 0.244391
vt 0.058079 0.257063
vt 0.058079 0.306751
vt 0.049739 0.358312
vt 0.049739 0.340568
vt 0.133226 0.306817
vt 0.133282 0.330226
vt 0.165914 0.340618
vt 0.165914 0.358262
vt 0.133282 0.330226
vt 0.133226 0.306817
vt -0.005952 0.358312
vt -0.005952 0.340568
vt -0.061185 0.340568
vt -0.061185 0.358312
vt 0.031531 0.244391
vt 0.058079 0.257063
vt 0.058079 0.306751
vt 0.031531 0.330296
vt 0.031531 0.330296
vt 0.058079 0.306751
vt 0.058079 0.257063
vt 0.031531 0.244391
vt 0.049739 0.358312
vt 0.049739 0.340568
vt 0.133282 0.330226
vt 0.133226 0.306817
vt 0.165914 0.358262
vt 0.165914 0.340618
vt 0.133226 0.306817
vt 0.133282 0.330226
vt -0.005952 0.358312
vt -0.005952 0.340568
vt -0.061185 0.340568
vt -0.061185 0.358312
vt 0.031531 0.244391
vt 0.058079 0.257063
vt 0.058079 0.306751
vt 0.031531 0.330296
vt 0.031531 0.330296
vt 0.058079 0.306751
vt 0.058079 0.257063
vt 0.031531 0.244391
vt 0.049739 0.358312
vt 0.049739 0.340568
vt 0.177975 0.330170
vt 0.166573 0.306834
vt 0.238496 0.358214
vt 0.238496 0.340666
vt 0.166573 0.306834
vt 0.177975 0.330170
vt -0.005952 0.358312
vt -0.061185 0.358312
vt -0.061185 0.340568
vt -0.005952 0.340568
vt 0.031531 0.244391
vt 0.031531 0.330296
vt 0.058079 0.306751
vt 0.058079 0.257063
vt 0.031531 0.330296
vt 0.031531 0.244391
vt 0.058079 0.257063
vt 0.058079 0.306751
vt 0.049739 0.358312
vt 0.049739 0.340568
vt 0.166573 0.306834
vt 0.177975 0.330170
vt 0.238496 0.340666
vt 0.238496 0.358214
vt 0.177975 0.330170
vt 0.166573 0.306834
vt -0.005952 0.358312
vt -0.005952 0.340568
vt -0.061185 0.340568
vt -0.061185 0.358312
vt 0.031531 0.244391
vt 0.058079 0.257063
vt 0.058079 0.306751
vt 0.031531 0.330296
vt 0.031531 0.330296
vt 0.058079 0.306751
vt 0.058079 0.257063
vt 0.031531 0.244391
vt 0.049739 0.358312
vt 0.049739 0.340568
vt 0.177975 0.330170
vt 0.166573 0.306834
vt 0.238496 0.358214
vt 0.238496 0.340666
vt 0.166573 0.306834
vt 0.177975 0.330170
vt -0.005952 0.358312
vt -0.061185 0.358312
vt -0.061185 0.340568
vt -0.005952 0.340568
vt 0.031531 0.244391
vt 0.031531 0.330296
vt 0.058079 0.306751
vt 0.058079 0.257063
vt 0.031531 0.330296
vt 0.031531 0.244391
vt 0.058079 0.257063
vt 0.058079 0.306751
vt 0.049739 0.358312
vt 0.049739 0.340568
vt 0.166573 0.306834
vt 0.177975 0.330170
vt 0.238496 0.340666
vt 0.238496 0.358214
vt 0.177975 0.330170
vt 0.166573 0.306834
vt 1.547970 0.063951
vt 1.547970 0.006710
vt 1.076867 0.006826
vt 1.076867 0.063835
vt 0.237331 0.282468
vt 0.286335 0.282447
vt 0.288516 0.333672
vt 0.237311 0.331890
vt 1.076867 0.126192
vt 1.076867 0.066782
vt 1.547970 0.066671
vt 1.547970 0.126302
vt 0.238200 0.333005
vt 0.287659 0.333005
vt 0.287659 0.283143
vt 0.235977 0.281323
vt 1.547970 0.006710
vt 1.547970 0.066671
vt 1.076867 0.066560
vt 1.076867 0.006821
vt 1.547970 0.127093
vt 1.547970 0.063951
vt 1.076867 0.064078
vt 1.076867 0.126967
vt 1.547970 0.063951
vt 1.547970 0.006710
vt 1.076867 0.006826
vt 1.076867 0.063835
vt 0.237291 0.281567
vt 0.286333 0.283316
vt 0.288519 0.332807
vt 0.237352 0.332786
vt 1.076867 0.126192
vt 1.076867 0.066782
vt 1.547970 0.066671
vt 1.547970 0.126302
vt 0.238200 0.333005
vt 0.287659 0.333005
vt 0.287659 0.283143
vt 0.235977 0.281323
vt 1.547970 0.006710
vt 1.547970 0.066671
vt 1.076867 0.066551
vt 1.076867 0.006830
vt 1.547970 0.127093
vt 1.547970 0.063951
vt 1.076867 0.064069
vt 1.076867 0.126976
vt 1.547970 0.063951
vt 1.547970 0.006710
vt 1.076867 0.006816
vt 1.076867 0.063845
vt 0.236223 0.282427
vt 0.287439 0.282488
vt 0.287460 0.333674
vt 0.238372 0.331887
vt 1.076867 0.126181
vt 1.076867 0.066792
vt 1.547970 0.066671
vt 1.547970 0.126302
vt 0.238200 0.333005
vt 0.287659 0.333005
vt 0.287659 0.283143
vt 0.235977 0.281323
vt 1.547970 0.006710
vt 1.547970 0.066671
vt 1.076867 0.066560
vt 1.076867 0.006821
vt 1.547970 0.127093
vt 1.547970 0.063951
vt 1.076867 0.064078
vt 1.076867 0.126967
vt 1.547970 0.063951
vt 1.547970 0.006710
vt 1.076867 0.006816
vt 1.076867 0.063845
vt 0.236187 0.281530
vt 0.287441 0.283353
vt 0.287458 0.332805
vt 0.238408 0.332788
vt 1.076867 0.126181
vt 1.076867 0.066792
vt 1.547970 0.066671
vt 1.547970 0.126302
vt 0.238200 0.333005
vt 0.287659 0.333005
vt 0.287659 0.283143
vt 0.235977 0.281323
vt 1.547970 0.006710
vt 1.547970 0.066671
vt 1.076867 0.066551
vt 1.076867 0.006830
vt 1.547970 0.127093
vt 1.547970 0.063951
vt 1.076867 0.064069
vt 1.076867 0.126976
vn 0.078397 -0.108847 -0.990962
vn 0.039229 -0.105593 -0.993635
vn 0.039229 -0.105593 -0.993635
vn 0.078397 -0.108847 -0.990962
vn 0.006777 0.996188 -0.086969
vn 0.003388 0.996182 -0.087234
vn 0.003388 0.996182 -0.087234
vn 0.006777 0.996188 -0.086969
vn -0.080832 0.108823 0.990769
vn -0.040449 0.105534 0.993593
vn -0.040449 0.105534 0.993593
vn -0.080832 0.108823 0.990769
vn -0.005619 -0.997684 0.067784
vn -0.002810 -0.997682 0.067987
vn -0.002810 -0.997682 0.067987
vn -0.005619 -0.997684 0.067784
vn -0.982280 -0.105159 0.155136
vn -0.982280 -0.105159 0.155136
vn -0.982280 -0.105159 0.155136
vn -0.982280 -0.105159 0.155136
vn 0.982280 -0.105159 0.155136
vn 0.982280 -0.105159 0.155136
vn 0.982280 -0.105159 0.155136
vn 0.982280 -0.105159 0.155136
vn 0.000000 -0.101420 -0.994844
vn 0.000000 -0.101420 -0.994844
vn 0.000000 -0.101420 -0.994844
vn 0.000000 -0.101420 -0.994844
vn 0.000000 0.101420 0.994844
vn 0.000000 0.101420 0.994844
vn 0.000000 0.101420 0.994844
vn 0.000000 0.101420 0.994844
vn -0.998145 -0.060879 0.000000
vn -0.998145 -0.060879 0.000000
vn -0.998145 -0.060879 0.000000
vn -0.998145 -0.060879 0.000000
vn 0.999629 0.027222 0.000000
vn 0.999629 0.027222 0.000000
vn 0.999629 0.027222 0.000000
vn 0.999629 0.027222 0.000000
vn 0.000000 -0.101424 -0.994843
vn 0.000000 -0.101424 -0.994843
vn 0.000000 -0.101424 -0.994843
vn 0.000000 -0.101424 -0.994843
vn 0.000000 0.101424 0.994843
vn 0.000000 0.101424 0.994843
vn 0.000000 0.101424 0.994843
vn 0.000000 0.101424 0.994843
vn -0.999857 -0.016890 0.000000
vn -0.999857 -0.016890 0.000000
vn -0.999857 -0.016890 0.000000
vn -0.999857 -0.016890 0.000000
vn 0.999857 -0.016890 0.000000
vn 0.999857 -0.016890 0.000000
vn 0.999857 -0.016890 0.000000
vn 0.999857 -0.016890 0.000000
vn 0.000000 -0.101420 -0.994844
vn 0.000000 -0.101420 -0.994844
vn 0.000000 -0.101420 -0.994844
vn 0.000000 -0.101420 -0.994844
vn 0.000000 0.101420 0.994844
vn 0.000000 0.101420 0.994844
vn 0.000000 0.101420 0.994844
vn 0.000000 0.101420 0.994844
vn -0.999630 0.027197 0.000000
vn -0.999630 0.027197 0.000000
vn -0.999630 0.027197 0.000000
vn -0.999630 0.027197 0.000000
vn 0.998145 -0.060879 0.000000
vn 0.998145 -0.060879 0.000000
vn 0.998145 -0.060879 0.000000
vn 0.998145 -0.060879 0.000000
vn 0.039774 0.105456 0.993628
vn 0.039774 0.105456 0.993628
vn 0.002764 -0.997682 0.067991
vn 0.002764 -0.997682 0.067991
vn -0.038593 -0.105517 -0.993668
vn -0.038593 -0.105517 -0.993668
vn -0.003333 0.996182 -0.087241
vn -0.003333 0.996182 -0.087241
vn 0.079484 0.108673 0.990895
vn 0.079484 0.108673 0.990895
vn 0.005527 -0.997684 0.067793
vn 0.005527 -0.997684 0.067793
vn -0.077128 -0.108700 -0.991078
vn -0.077128 -0.108700 -0.991078
vn -0.006665 0.996188 -0.086983
vn -0.006665 0.996188 -0.086983
vn 0.000000 0.369715 -0.929145
vn 0.000000 0.369715 -0.929145
vn 0.000000 0.369715 -0.929145
vn 0.000000 0.369715 -0.929145
vn 0.000000 1.000000 -0.000001
vn 0.000000 1.000000 -0.000001
vn 0.000000 1.000000 -0.000001
vn 0.000000 1.000000 -0.000001
vn 0.000000 0.369657 0.929169
vn 0.000000 0.369657 0.929169
vn 0.000000 0.369657 0.929169
vn 0.000000 0.369657 0.929169
vn -0.000001 -1.000000 0.000000
vn -0.000001 -1.000000 0.000000
vn -0.000001 -1.000000 0.000000
vn -0.000001 -1.000000 0.000000
vn -0.925821 0.363858 -0.102291
vn -0.925821 0.363858 -0.102291
vn -0.925821 0.363858 -0.102291
vn -0.925821 0.363858 -0.102291
vn 0.925824 0.363851 -0.102287
vn 0.925824 0.363851 -0.102287
vn 0.925824 0.363851 -0.102287
vn 0.925824 0.363851 -0.102287
vn -0.000000 -0.625801 -0.779983
vn -0.000000 -0.625801 -0.779983
vn -0.000000 -0.625801 -0.779983
vn -0.000000 -0.625801 -0.779983
vn -0.709245 -0.700409 -0.079994
vn -0.709245 -0.700409 -0.079994
vn -0.709245 -0.700409 -0.079994
vn -0.709245 -0.700409 -0.079994
vn -0.000001 -0.625452 0.780263
vn -0.000001 -0.625452 0.780263
vn -0.000001 -0.625452 0.780263
vn -0.000001 -0.625452 0.780263
vn 0.709149 -0.700508 -0.079977
vn 0.709149 -0.700508 -0.079977
vn 0.709149 -0.700508 -0.079977
vn 0.709149 -0.700508 -0.079977
vn 0.000001 -0.030197 -0.999544
vn 0.000001 -0.030197 -0.999544
vn 0.000001 -0.030197 -0.999544
vn 0.000001 -0.030197 -0.999544
vn -0.993003 -0.020381 -0.116314
vn -0.993003 -0.020381 -0.116314
vn -0.993003 -0.020381 -0.116314
vn -0.993003 -0.020381 -0.116314
vn -0.000001 -0.030132 0.999546
vn -0.000001 -0.030132 0.999546
vn -0.000001 -0.030132 0.999546
vn -0.000001 -0.030132 0.999546
vn 0.993001 -0.020507 -0.116308
vn 0.993001 -0.020507 -0.116308
vn 0.993001 -0.020507 -0.116308
vn 0.993001 -0.020507 -0.116308
vn -0.044408 0.999005 0.004170
vn -0.044408 0.999005 0.004170
vn -0.044408 0.999005 0.004170
vn -0.044408 0.999005 0.004170
vn -0.000060 0.026703 0.999643
vn -0.000060 0.026703 0.999643
vn -0.000060 0.026703 0.999643
vn -0.000060 0.026703 0.999643
vn -0.005543 -0.999985 0.000519
vn -0.005543 -0.999985 0.000519
vn -0.005543 -0.999985 0.000519
vn -0.005543 -0.999985 0.000519
vn -0.000075 0.025969 -0.999663
vn -0.000075 0.025969 -0.999663
vn -0.000075 0.025969 -0.999663
vn -0.000075 0.025969 -0.999663
vn -0.996064 -0.025567 0.084866
vn -0.996064 -0.025567 0.084866
vn -0.996064 -0.025567 0.084866
vn -0.996064 -0.025567 0.084866
vn 0.994804 -0.001316 -0.101798
vn 0.994804 -0.001316 -0.101798
vn 0.994804 -0.001316 -0.101798
vn 0.994804 -0.001316 -0.101798
vn -0.044317 0.999009 -0.004170
vn -0.044317 0.999009 -0.004170
vn -0.044317 0.999009 -0.004170
vn -0.044317 0.999009 -0.004170
vn -0.000047 0.026696 0.999644
vn -0.000047 0.026696 0.999644
vn -0.000047 0.026696 0.999644
vn -0.000047 0.026696 0.999644
vn -0.005537 -0.999985 -0.000523
vn -0.005537 -0.999985 -0.000523
vn -0.005537 -0.999985 -0.000523
vn -0.005537 -0.999985 -0.000523
vn -0.000075 0.025972 -0.999663
vn -0.000075 0.025972 -0.999663
vn -0.000075 0.025972 -0.999663
vn -0.000075 0.025972 -0.999663
vn -0.994469 0.023983 -0.102254
vn -0.994469 0.023983 -0.102254
vn -0.994469 0.023983 -0.102254
vn -0.994469 0.023983 -0.102254
vn 0.995064 -0.050789 0.085258
vn 0.995064 -0.050789 0.085258
vn 0.995064 -0.050789 0.085258
vn 0.995064 -0.050789 0.085258
vn 0.000000 0.999195 0.040126
vn 0.000000 0.999195 0.040126
vn 0.000000 0.999195 0.040126
vn 0.000000 0.999195 0.040126
vn 0.995510 0.025131 -0.091264
vn 0.995510 0.025131 -0.091264
vn 0.995510 0.025131 -0.091264
vn 0.995510 0.025131 -0.091264
vn -0.000000 -0.999984 0.005681
vn -0.000000 -0.999984 0.005681
vn -0.000000 -0.999984 0.005681
vn -0.000000 -0.999984 0.005681
vn -0.995298 0.025758 -0.093376
vn -0.995298 0.025758 -0.093376
vn -0.995298 0.025758 -0.093376
vn -0.995298 0.025758 -0.093376
vn 0.000000 -0.000819 1.000000
vn 0.000000 -0.000819 1.000000
vn 0.000000 -0.000819 1.000000
vn 0.000000 -0.000819 1.000000
vn 0.000000 -0.028018 -0.999608
vn 0.000000 -0.028018 -0.999608
vn 0.000000 -0.028018 -0.999608
vn 0.000000 -0.028018 -0.999608
vn 0.722296 -0.689216 0.057182
vn 0.722296 -0.689216 0.057182
vn 0.722296 -0.689216 0.057182
vn 0.722296 -0.689216 0.057182
vn 0.000065 -0.024496 0.999700
vn 0.000065 -0.024496 0.999700
vn 0.000032 -0.024513 0.999699
vn 0.000032 -0.024513 0.999699
vn 0.000081 0.028223 -0.999602
vn 0.000081 0.028223 -0.999602
vn 0.000167 0.028270 -0.999600
vn 0.000167 0.028270 -0.999600
vn 0.997055 -0.024172 0.072784
vn 0.997055 -0.024172 0.072784
vn 0.997055 -0.024172 0.072784
vn 0.997055 -0.024172 0.072784
vn -0.000004 0.028176 -0.999603
vn -0.000004 0.028176 -0.999603
vn -0.000256 -1.000000 -0.000005
vn -0.000256 -1.000000 -0.000005
vn -0.000256 -1.000000 -0.000005
vn -0.000256 -1.000000 -0.000005
vn -0.000001 -0.024530 0.999699
vn -0.000001 -0.024530 0.999699
vn -0.722465 -0.689102 0.056419
vn -0.722465 -0.689102 0.056419
vn -0.722465 -0.689102 0.056419
vn -0.722465 -0.689102 0.056419
vn -0.000072 -0.024492 0.999700
vn -0.000036 -0.024511 0.999700
vn -0.000036 -0.024511 0.999700
vn -0.000072 -0.024492 0.999700
vn -0.000085 0.028225 -0.999602
vn -0.000175 0.028277 -0.999600
vn -0.000175 0.028277 -0.999600
vn -0.000085 0.028225 -0.999602
vn -0.997148 -0.023901 0.071593
vn -0.997148 -0.023901 0.071593
vn -0.997148 -0.023901 0.071593
vn -0.997148 -0.023901 0.071593
vn 0.000005 0.028173 -0.999603
vn 0.000005 0.028173 -0.999603
vn 0.000255 -1.000000 -0.000015
vn 0.000255 -1.000000 -0.000015
vn 0.000255 -1.000000 -0.000015
vn 0.000255 -1.000000 -0.000015
vn 0.000000 -0.024530 0.999699
vn 0.000000 -0.024530 0.999699
vn -0.651238 -0.757172 0.050789
vn -0.651238 -0.757172 0.050789
vn -0.651238 -0.757172 0.050789
vn -0.651238 -0.757172 0.050789
vn 0.000123 0.029061 0.999578
vn 0.000060 0.029103 0.999576
vn 0.000060 0.029103 0.999576
vn 0.000123 0.029061 0.999578
vn -0.000259 -0.025812 -0.999667
vn -0.000532 -0.025622 -0.999672
vn -0.000532 -0.025622 -0.999672
vn -0.000259 -0.025812 -0.999667
vn -0.997125 -0.025003 0.071534
vn -0.997125 -0.025003 0.071534
vn -0.997125 -0.025003 0.071534
vn -0.997125 -0.025003 0.071534
vn 0.000014 -0.026002 -0.999662
vn 0.000014 -0.026002 -0.999662
vn 0.000208 -1.000000 -0.000012
vn 0.000208 -1.000000 -0.000012
vn 0.000208 -1.000000 -0.000012
vn 0.000208 -1.000000 -0.000012
vn -0.000002 0.029145 0.999575
vn -0.000002 0.029145 0.999575
vn 0.650869 -0.757438 0.051540
vn 0.650869 -0.757438 0.051540
vn 0.650869 -0.757438 0.051540
vn 0.650869 -0.757438 0.051540
vn -0.000111 0.029059 0.999578
vn -0.000111 0.029059 0.999578
vn -0.000054 0.029102 0.999577
vn -0.000054 0.029102 0.999577
vn 0.000258 -0.025812 -0.999667
vn 0.000258 -0.025812 -0.999667
vn 0.000531 -0.025622 -0.999672
vn 0.000531 -0.025622 -0.999672
vn 0.997022 -0.025308 0.072850
vn 0.997022 -0.025308 0.072850
vn 0.997022 -0.025308 0.072850
vn 0.997022 -0.025308 0.072850
vn -0.000014 -0.026001 -0.999662
vn -0.000014 -0.026001 -0.999662
vn -0.000209 -1.000000 -0.000002
vn -0.000209 -1.000000 -0.000002
vn -0.000209 -1.000000 -0.000002
vn -0.000209 -1.000000 -0.000002
vn 0.000003 0.029145 0.999575
vn 0.000003 0.029145 0.999575
vn 0.000006 -0.786957 -0.617008
vn 0.000006 -0.786957 -0.617008
vn 0.000006 -0.786957 -0.617008
vn 0.000006 -0.786957 -0.617008
vn 0.996689 -0.052642 0.061969
vn 0.996689 -0.052642 0.061969
vn 0.995419 -0.059878 0.074533
vn 0.995419 -0.059878 0.074533
vn -0.993456 -0.010038 -0.113775
vn -0.993456 -0.010038 -0.113775
vn -0.991993 -0.002731 -0.126266
vn -0.991993 -0.002731 -0.126266
vn 0.000017 -0.019428 -0.999811
vn 0.000017 -0.019428 -0.999811
vn 0.000017 -0.019428 -0.999811
vn 0.000017 -0.019428 -0.999811
vn -0.994709 -0.017344 -0.101259
vn -0.994709 -0.017344 -0.101259
vn -0.000001 -1.000000 0.000002
vn -0.000001 -1.000000 0.000002
vn -0.000001 -1.000000 0.000002
vn -0.000001 -1.000000 0.000002
vn 0.993939 -0.067102 0.087080
vn 0.993939 -0.067102 0.087080
vn 0.000009 -0.786868 0.617121
vn 0.000009 -0.786868 0.617121
vn 0.000009 -0.786868 0.617121
vn 0.000009 -0.786868 0.617121
vn 0.992927 -0.047937 0.108616
vn 0.993646 -0.056592 0.097287
vn 0.993646 -0.056592 0.097287
vn 0.992927 -0.047937 0.108616
vn -0.995815 -0.006766 -0.091137
vn -0.996807 0.001815 -0.079827
vn -0.996807 0.001815 -0.079827
vn -0.995815 -0.006766 -0.091137
vn 0.000007 -0.018809 0.999823
vn 0.000007 -0.018809 0.999823
vn 0.000007 -0.018809 0.999823
vn 0.000007 -0.018809 0.999823
vn -0.994622 -0.015347 -0.102429
vn -0.994622 -0.015347 -0.102429
vn 0.000000 -1.000000 -0.000002
vn 0.000000 -1.000000 -0.000002
vn 0.000000 -1.000000 -0.000002
vn 0.000000 -1.000000 -0.000002
vn 0.994162 -0.065236 0.085938
vn 0.994162 -0.065236 0.085938
vn 0.000001 -0.786961 -0.617003
vn 0.000001 -0.786961 -0.617003
vn 0.000001 -0.786961 -0.617003
vn 0.000001 -0.786961 -0.617003
vn 0.992254 -0.003256 -0.124183
vn 0.992254 -0.003256 -0.124183
vn 0.993680 -0.010542 -0.111750
vn 0.993680 -0.010542 -0.111750
vn -0.995598 -0.059367 0.072529
vn -0.995598 -0.059367 0.072529
vn -0.996843 -0.052084 0.059935
vn -0.996843 -0.052084 0.059935
vn 0.000016 -0.019427 -0.999811
vn 0.000016 -0.019427 -0.999811
vn 0.000016 -0.019427 -0.999811
vn 0.000016 -0.019427 -0.999811
vn -0.994141 -0.066638 0.085108
vn -0.994141 -0.066638 0.085108
vn -0.000004 -1.000000 0.000002
vn -0.000004 -1.000000 0.000002
vn -0.000004 -1.000000 0.000002
vn -0.000004 -1.000000 0.000002
vn 0.994898 -0.017825 -0.099294
vn 0.994898 -0.017825 -0.099294
vn 0.000005 -0.786900 0.617080
vn 0.000005 -0.786900 0.617080
vn 0.000005 -0.786900 0.617080
vn 0.000005 -0.786900 0.617080
vn 0.996960 0.001336 -0.077909
vn 0.995989 -0.007232 -0.089181
vn 0.995989 -0.007232 -0.089181
vn 0.996960 0.001336 -0.077909
vn -0.993869 -0.056050 0.095307
vn -0.993165 -0.047402 0.106659
vn -0.993165 -0.047402 0.106659
vn -0.993869 -0.056050 0.095307
vn 0.000013 -0.018807 0.999823
vn 0.000013 -0.018807 0.999823
vn 0.000013 -0.018807 0.999823
vn 0.000013 -0.018807 0.999823
vn -0.994369 -0.064687 0.083936
vn -0.994369 -0.064687 0.083936
vn -0.000000 -1.000000 -0.000002
vn -0.000000 -1.000000 -0.000002
vn -0.000000 -1.000000 -0.000002
vn -0.000000 -1.000000 -0.000002
vn 0.994818 -0.015800 -0.100436
vn 0.994818 -0.015800 -0.100436
vn 0.004175 -0.026336 -0.999645
vn 0.004175 -0.026336 -0.999645
vn 0.004175 -0.026336 -0.999645
vn 0.004175 -0.026336 -0.999645
vn -0.000335 1.000000 0.000405
vn -0.000335 1.000000 0.000405
vn -0.000335 1.000000 0.000405
vn -0.000335 1.000000 0.000405
vn 0.029606 0.031857 0.999054
vn 0.029606 0.031857 0.999054
vn 0.029606 0.031857 0.999054
vn 0.029606 0.031857 0.999054
vn -0.000311 -1.000000 0.000377
vn -0.000311 -1.000000 0.000377
vn -0.000311 -1.000000 0.000377
vn -0.000311 -1.000000 0.000377
vn -0.988966 0.029229 -0.145229
vn -0.988966 0.029229 -0.145229
vn -0.988966 0.029229 -0.145229
vn -0.988966 0.029229 -0.145229
vn 0.996586 -0.024565 0.078828
vn 0.996586 -0.024565 0.078828
vn 0.996586 -0.024565 0.078828
vn 0.996586 -0.024565 0.078828
vn -0.004157 -0.026334 -0.999645
vn -0.004157 -0.026334 -0.999645
vn -0.004157 -0.026334 -0.999645
vn -0.004157 -0.026334 -0.999645
vn 0.000335 1.000000 0.000406
vn 0.000335 1.000000 0.000406
vn 0.000335 1.000000 0.000406
vn 0.000335 1.000000 0.000406
vn -0.029617 0.031863 0.999053
vn -0.029617 0.031863 0.999053
vn -0.029617 0.031863 0.999053
vn -0.029617 0.031863 0.999053
vn 0.000312 -1.000000 0.000377
vn 0.000312 -1.000000 0.000377
vn 0.000312 -1.000000 0.000377
vn 0.000312 -1.000000 0.000377
vn -0.996654 -0.024339 0.078034
vn -0.996654 -0.024339 0.078034
vn -0.996654 -0.024339 0.078034
vn -0.996654 -0.024339 0.078034
vn 0.989071 0.029005 -0.144560
vn 0.989071 0.029005 -0.144560
vn 0.989071 0.029005 -0.144560
vn 0.989071 0.029005 -0.144560
vn 0.037256 0.031439 -0.998811
vn 0.037256 0.031439 -0.998811
vn 0.037256 0.031439 -0.998811
vn 0.037256 0.031439 -0.998811
vn -0.000410 1.000000 -0.000473
vn -0.000410 1.000000 -0.000473
vn -0.000410 1.000000 -0.000473
vn -0.000410 1.000000 -0.000473
vn 0.004954 -0.025935 0.999651
vn 0.004954 -0.025935 0.999651
vn 0.004954 -0.025935 0.999651
vn 0.004954 -0.025935 0.999651
vn -0.000381 -1.000000 -0.000441
vn -0.000381 -1.000000 -0.000441
vn -0.000381 -1.000000 -0.000441
vn -0.000381 -1.000000 -0.000441
vn -0.997025 0.029707 -0.071123
vn -0.997025 0.029707 -0.071123
vn -0.997025 0.029707 -0.071123
vn -0.997025 0.029707 -0.071123
vn 0.995887 -0.024528 0.087226
vn 0.995887 -0.024528 0.087226
vn 0.995887 -0.024528 0.087226
vn 0.995887 -0.024528 0.087226
vn -0.037260 0.031450 -0.998811
vn -0.037260 0.031450 -0.998811
vn -0.037260 0.031450 -0.998811
vn -0.037260 0.031450 -0.998811
vn 0.000411 1.000000 -0.000477
vn 0.000411 1.000000 -0.000477
vn 0.000411 1.000000 -0.000477
vn 0.000411 1.000000 -0.000477
vn -0.005007 -0.025933 0.999651
vn -0.005007 -0.025933 0.999651
vn -0.005007 -0.025933 0.999651
vn -0.005007 -0.025933 0.999651
vn 0.000382 -1.000000 -0.000445
vn 0.000382 -1.000000 -0.000445
vn 0.000382 -1.000000 -0.000445
vn 0.000382 -1.000000 -0.000445
vn -0.995954 -0.024306 0.086512
vn -0.995954 -0.024306 0.086512
vn -0.995954 -0.024306 0.086512
vn -0.995954 -0.024306 0.086512
vn 0.997120 0.029473 -0.069873
vn 0.997120 0.029473 -0.069873
vn 0.997120 0.029473 -0.069873
vn 0.997120 0.029473 -0.069873
s 1
g polySurface7783
f 1/1/1 35/43/2 36/45/3 3/4/4
s 2
f 3/4/5 36/45/6 33/41/7 5/6/8
s 3
f 5/6/9 33/41/10 34/42/11 7/10/12
s 4
f 7/10/13 34/42/14 35/44/15 1/8/16
s off
f 2/14/17 8/7/18 6/5/19 4/3/20
f 7/10/21 1/8/22 3/11/23 5/12/24
f 9/17/25 10/18/26 12/19/27 11/20/28
f 13/21/29 14/22/30 16/23/31 15/24/32
f 10/18/33 16/23/34 14/22/35 12/19/36
f 15/24/37 9/17/38 11/20/39 13/21/40
f 17/25/41 18/26/42 20/27/43 19/28/44
f 21/29/45 22/30/46 24/31/47 23/32/48
f 18/26/49 24/31/50 22/30/51 20/27/52
f 23/32/53 17/25/54 19/28/55 21/29/56
f 25/33/57 26/34/58 28/35/59 27/36/60
f 29/37/61 30/38/62 32/39/63 31/40/64
f 26/34/65 32/39/66 30/38/67 28/35/68
f 31/40/69 25/33/70 27/36/71 29/37/72
s 3
f 33/41/10 37/46/73 38/47/74 34/42/11
s 4
f 35/44/15 34/42/14 38/47/75 39/49/76
s 1
f 36/45/3 35/43/2 39/48/77 40/50/78
s 2
f 33/41/7 36/45/6 40/50/79 37/46/80
s 3
f 37/46/73 6/15/81 8/13/82 38/47/74
s 4
f 39/49/76 38/47/75 8/13/83 2/9/84
s 1
f 40/50/78 39/48/77 2/2/85 4/16/86
s 2
f 37/46/80 40/50/79 4/16/87 6/15/88
s off
f 41/51/89 42/52/90 44/53/91 43/54/92
f 53/55/93 54/56/94 55/57/95 56/58/96
f 45/59/97 46/60/98 48/61/99 47/62/100
f 47/63/101 48/64/102 42/65/103 41/66/104
f 42/52/105 48/61/106 46/60/107 44/53/108
f 47/62/109 41/51/110 43/54/111 45/59/112
f 43/54/113 44/53/114 50/67/115 49/68/116
f 44/53/117 46/60/118 51/69/119 50/67/120
f 46/60/121 45/59/122 52/70/123 51/69/124
f 45/59/125 43/54/126 49/68/127 52/70/128
f 49/68/129 50/67/130 54/71/131 53/72/132
f 50/67/133 51/69/134 55/73/135 54/71/136
f 51/69/137 52/70/138 56/74/139 55/73/140
f 52/70/141 49/68/142 53/72/143 56/74/144
f 57/75/145 58/76/146 60/77/147 59/78/148
f 59/79/149 60/80/150 62/81/151 61/82/152
f 61/83/153 62/84/154 64/85/155 63/86/156
f 63/87/157 64/88/158 58/89/159 57/90/160
f 58/91/161 64/92/162 62/93/163 60/94/164
f 63/95/165 57/96/166 59/97/167 61/98/168
f 65/99/169 66/100/170 68/101/171 67/102/172
f 67/103/173 68/104/174 70/105/175 69/106/176
f 69/107/177 70/108/178 72/109/179 71/110/180
f 71/111/181 72/112/182 66/113/183 65/114/184
f 66/115/185 72/116/186 70/117/187 68/118/188
f 71/119/189 65/120/190 67/121/191 69/122/192
f 73/123/193 74/124/194 76/125/195 75/126/196
f 75/127/197 76/128/198 78/129/199 77/130/200
f 77/131/201 78/132/202 80/133/203 79/134/204
f 79/135/205 80/136/206 74/137/207 73/138/208
f 74/139/209 80/140/210 78/141/211 76/142/212
f 79/143/213 73/144/214 75/145/215 77/146/216
f 81/147/217 83/148/218 84/149/219 82/150/220
s 52
f 84/151/221 83/152/222 85/153/223 86/154/224
s 53
f 87/155/225 88/156/226 81/157/227 82/158/228
s off
f 88/159/229 85/160/230 83/148/231 81/147/232
s 53
f 87/155/225 89/161/233 90/162/234 88/156/226
s off
f 88/159/235 90/163/236 91/164/237 85/160/238
s 52
f 85/153/223 91/165/239 92/166/240 86/154/224
s off
f 93/167/241 94/168/242 96/169/243 95/170/244
s 57
f 96/171/245 98/172/246 97/173/247 95/174/248
s 58
f 99/175/249 94/176/250 93/177/251 100/178/252
s off
f 100/179/253 93/167/254 95/170/255 97/180/256
s 58
f 99/175/249 100/178/252 90/181/257 89/182/258
s off
f 100/179/259 97/180/260 91/183/261 90/184/262
s 57
f 97/173/247 98/172/246 92/185/263 91/186/264
s off
f 101/187/265 102/188/266 104/189/267 103/190/268
s 62
f 104/191/269 106/192/270 105/193/271 103/194/272
s 63
f 107/195/273 102/196/274 101/197/275 108/198/276
s off
f 108/199/277 101/187/278 103/190/279 105/200/280
s 63
f 107/195/273 108/198/276 110/201/281 109/202/282
s off
f 108/199/283 105/200/284 111/203/285 110/204/286
s 62
f 105/193/271 106/192/270 112/205/287 111/206/288
s off
f 113/207/289 115/208/290 116/209/291 114/210/292
s 67
f 116/211/293 115/212/294 117/213/295 118/214/296
s 68
f 119/215/297 120/216/298 113/217/299 114/218/300
s off
f 120/219/301 117/220/302 115/208/303 113/207/304
s 68
f 119/215/297 109/221/305 110/222/306 120/216/298
s off
f 120/219/307 110/223/308 111/224/309 117/220/310
s 67
f 117/213/295 111/225/311 112/226/312 118/214/296
s off
f 121/227/313 123/228/314 124/229/315 122/230/316
s 72
f 124/231/317 123/232/318 125/233/319 126/234/320
s 73
f 127/235/321 128/236/322 121/237/323 122/238/324
s off
f 128/239/325 125/240/326 123/228/327 121/227/328
s 73
f 127/235/321 129/241/329 130/242/330 128/236/322
s off
f 128/239/331 130/243/332 131/244/333 125/240/334
s 72
f 125/233/319 131/245/335 132/246/336 126/234/320
s off
f 133/247/337 134/248/338 136/249/339 135/250/340
s 77
f 136/251/341 138/252/342 137/253/343 135/254/344
s 78
f 139/255/345 134/256/346 133/257/347 140/258/348
s off
f 140/259/349 133/247/350 135/250/351 137/260/352
s 78
f 139/255/345 140/258/348 130/261/353 129/262/354
s off
f 140/259/355 137/260/356 131/263/357 130/264/358
s 77
f 137/253/343 138/252/342 132/265/359 131/266/360
s off
f 141/267/361 143/268/362 144/269/363 142/270/364
s 82
f 144/271/365 143/272/366 145/273/367 146/274/368
s 83
f 147/275/369 148/276/370 141/277/371 142/278/372
s off
f 148/279/373 145/280/374 143/268/375 141/267/376
s 83
f 147/275/369 149/281/377 150/282/378 148/276/370
s off
f 148/279/379 150/283/380 151/284/381 145/280/382
s 82
f 145/273/367 151/285/383 152/286/384 146/274/368
s off
f 153/287/385 154/288/386 156/289/387 155/290/388
s 87
f 156/291/389 158/292/390 157/293/391 155/294/392
s 88
f 159/295/393 154/296/394 153/297/395 160/298/396
s off
f 160/299/397 153/287/398 155/290/399 157/300/400
s 88
f 159/295/393 160/298/396 150/301/401 149/302/402
s off
f 160/299/403 157/300/404 151/303/405 150/304/406
s 87
f 157/293/391 158/292/390 152/305/407 151/306/408
s off
f 161/307/409 162/308/410 164/309/411 163/310/412
f 163/311/413 164/312/414 166/313/415 165/314/416
f 165/315/417 166/316/418 168/317/419 167/318/420
f 167/319/421 168/320/422 162/321/423 161/322/424
f 162/323/425 168/324/426 166/325/427 164/326/428
f 167/327/429 161/328/430 163/329/431 165/330/432
f 169/331/433 170/332/434 172/333/435 171/334/436
f 171/335/437 172/336/438 174/337/439 173/338/440
f 173/339/441 174/340/442 176/341/443 175/342/444
f 175/343/445 176/344/446 170/345/447 169/346/448
f 170/347/449 176/348/450 174/349/451 172/350/452
f 175/351/453 169/352/454 171/353/455 173/354/456
f 177/355/457 178/356/458 180/357/459 179/358/460
f 179/359/461 180/360/462 182/361/463 181/362/464
f 181/363/465 182/364/466 184/365/467 183/366/468
f 183/367/469 184/368/470 178/369/471 177/370/472
f 178/371/473 184/372/474 182/373/475 180/374/476
f 183/375/477 177/376/478 179/377/479 181/378/480
f 185/379/481 186/380/482 188/381/483 187/382/484
f 187/383/485 188/384/486 190/385/487 189/386/488
f 189/387/489 190/388/490 192/389/491 191/390/492
f 191/391/493 192/392/494 186/393/495 185/394/496
f 186/395/497 192/396/498 190/397/499 188/398/500
f 191/399/501 185/400/502 187/401/503 189/402/504
