# This file uses centimeters as units for non-parametric coordinates.

g default
v -27.704891 0.353673 0.176919
v -27.359781 0.353673 0.176919
v -27.702641 0.372194 0.174483
v -27.362034 0.372194 0.174483
v -27.702641 0.372194 -0.174483
v -27.362034 0.372194 -0.174483
v -27.704891 0.353673 -0.176918
v -27.359781 0.353673 -0.176918
v -27.714634 0.384395 0.184223
v -27.350040 0.384395 0.184223
v -27.350040 0.384395 -0.184223
v -27.714634 0.384395 -0.184223
v -27.714634 0.414105 0.184223
v -27.350040 0.414105 0.184223
v -27.350040 0.414105 -0.184223
v -27.714634 0.414105 -0.184223
v -27.692249 0.154323 0.127492
v -27.655594 0.153032 0.127492
v -27.692249 0.154323 -0.131749
v -27.655594 0.153032 -0.131749
v -27.690674 0.117671 -0.131749
v -27.655594 0.117671 -0.131749
v -27.690674 0.117671 0.127492
v -27.655594 0.117671 0.127492
v -27.409178 0.154323 0.127492
v -27.372528 0.153032 0.127492
v -27.409178 0.154323 -0.131749
v -27.372528 0.153032 -0.131749
v -27.407602 0.117671 -0.131749
v -27.372528 0.117671 -0.131749
v -27.407602 0.117671 0.127492
v -27.372528 0.117671 0.127492
v -27.392759 0.150106 0.010015
v -27.392759 0.149112 -0.018204
v -27.664589 0.150106 0.010015
v -27.664589 0.149112 -0.018204
v -27.664589 0.121888 0.008801
v -27.664589 0.121888 -0.018204
v -27.392759 0.121888 0.008801
v -27.392759 0.121888 -0.018204
v -27.441576 0.270271 0.154543
v -27.409819 0.254791 0.154543
v -27.441576 0.270271 0.133780
v -27.409819 0.254791 0.133780
v -27.441576 0.330969 0.133780
v -27.409819 0.359733 0.133780
v -27.409819 0.359733 0.154543
v -27.441576 0.330969 0.154543
v -27.531401 0.359733 0.154543
v -27.531401 0.330969 0.154543
v -27.531401 0.330969 0.133780
v -27.531401 0.359733 0.133780
v -27.621220 0.270271 0.154543
v -27.652973 0.254791 0.154543
v -27.621220 0.270271 0.133780
v -27.652973 0.254791 0.133780
v -27.621220 0.330969 0.133780
v -27.652973 0.359733 0.133780
v -27.652973 0.359733 0.154543
v -27.621220 0.330969 0.154543
v -27.621220 0.270271 -0.133298
v -27.652973 0.254791 -0.133298
v -27.621220 0.270271 -0.154063
v -27.652973 0.254791 -0.154063
v -27.621220 0.330969 -0.154063
v -27.652973 0.359733 -0.154063
v -27.652973 0.359733 -0.133298
v -27.621220 0.330969 -0.133298
v -27.531401 0.359733 -0.133298
v -27.531401 0.330969 -0.133298
v -27.531401 0.330969 -0.154063
v -27.531401 0.359733 -0.154063
v -27.441576 0.270271 -0.133298
v -27.409819 0.254791 -0.133298
v -27.441576 0.270271 -0.154063
v -27.409819 0.254791 -0.154063
v -27.441576 0.330969 -0.154063
v -27.409819 0.359733 -0.154063
v -27.409819 0.359733 -0.133298
v -27.441576 0.330969 -0.133298
v -27.379362 0.270271 -0.093568
v -27.379362 0.254791 -0.125319
v -27.400127 0.270271 -0.093568
v -27.400127 0.254791 -0.125319
v -27.400127 0.330969 -0.093568
v -27.400127 0.359733 -0.125319
v -27.379362 0.359733 -0.125319
v -27.379362 0.330969 -0.093568
v -27.379362 0.359733 -0.001720
v -27.379362 0.330969 -0.001720
v -27.400127 0.330969 -0.001720
v -27.400127 0.359733 -0.001720
v -27.379362 0.270271 0.090127
v -27.379362 0.254791 0.121879
v -27.400127 0.270271 0.090127
v -27.400127 0.254791 0.121879
v -27.400127 0.330969 0.090127
v -27.400127 0.359733 0.121879
v -27.379362 0.359733 0.121879
v -27.379362 0.330969 0.090127
v -27.661516 0.270271 -0.093568
v -27.661516 0.254791 -0.125319
v -27.682274 0.270271 -0.093568
v -27.682274 0.254791 -0.125319
v -27.682274 0.330969 -0.093568
v -27.682274 0.359733 -0.125319
v -27.661516 0.359733 -0.125319
v -27.661516 0.330969 -0.093568
v -27.661516 0.359733 -0.001720
v -27.661516 0.330969 -0.001720
v -27.682274 0.330969 -0.001720
v -27.682274 0.359733 -0.001720
v -27.661516 0.270271 0.090127
v -27.661516 0.254791 0.121879
v -27.682274 0.270271 0.090127
v -27.682274 0.254791 0.121879
v -27.682274 0.330969 0.090127
v -27.682274 0.359733 0.121879
v -27.661516 0.359733 0.121879
v -27.661516 0.330969 0.090127
v -27.414112 0.006296 -0.121192
v -27.367039 0.006296 -0.121192
v -27.414112 0.401135 -0.121192
v -27.367039 0.401135 -0.121192
v -27.414112 0.401135 -0.168647
v -27.364925 0.401135 -0.170379
v -27.414112 0.006296 -0.168647
v -27.364925 0.006296 -0.170379
v -27.696461 0.006296 -0.121192
v -27.649395 0.006296 -0.121192
v -27.696461 0.401135 -0.121192
v -27.649395 0.401135 -0.121192
v -27.698578 0.401135 -0.170379
v -27.649395 0.401135 -0.168647
v -27.698578 0.006296 -0.170379
v -27.649395 0.006296 -0.168647
v -27.414112 0.006296 0.166678
v -27.364925 0.006296 0.168411
v -27.414112 0.401135 0.166678
v -27.364925 0.401135 0.168411
v -27.414112 0.401135 0.119225
v -27.367039 0.401135 0.119225
v -27.414112 0.006296 0.119225
v -27.367039 0.006296 0.119225
v -27.698578 0.006296 0.168411
v -27.649395 0.006296 0.166678
v -27.698578 0.401135 0.168411
v -27.649395 0.401135 0.166678
v -27.696461 0.401135 0.119225
v -27.649395 0.401135 0.119225
v -27.696461 0.006296 0.119225
v -27.649395 0.006296 0.119225
vt 0.418753 0.468853
vt 0.741235 0.468770
vt 0.740998 0.494781
vt 0.422682 0.494867
vt 0.892544 0.274197
vt 1.048292 0.274195
vt 1.048294 0.403691
vt 0.892544 0.403689
vt 0.694027 0.494648
vt 1.011833 0.494623
vt 1.016208 0.468547
vt 0.693633 0.468646
vt 0.896706 0.395814
vt 1.044133 0.395817
vt 1.044131 0.272023
vt 0.896706 0.272026
vt 0.744590 0.512235
vt 0.403821 0.512305
vt 1.032146 0.511895
vt 0.690948 0.512105
vt 0.744531 0.555268
vt 0.403804 0.555268
vt 1.032141 0.555397
vt 0.691397 0.555280
vt 1.127955 0.064305
vt 1.127955 0.017894
vt 0.755663 0.017790
vt 0.755663 0.064409
vt 0.236134 0.281479
vt 0.287495 0.283300
vt 0.287508 0.332854
vt 0.238356 0.332842
vt 0.755663 0.115356
vt 0.755663 0.066806
vt 1.127955 0.066924
vt 1.127955 0.115237
vt 0.238387 0.332810
vt 0.287478 0.332825
vt 0.287463 0.283332
vt 0.236166 0.281510
vt 1.127955 0.017918
vt 1.127955 0.066504
vt 0.755663 0.066622
vt 0.755663 0.017800
vt 1.127955 0.115890
vt 1.127955 0.064695
vt 0.755663 0.064580
vt 0.755663 0.116005
vt 1.127955 0.064305
vt 1.127955 0.017894
vt 0.755663 0.017790
vt 0.755663 0.064409
vt 0.236134 0.281479
vt 0.287495 0.283300
vt 0.287508 0.332854
vt 0.238356 0.332842
vt 0.755663 0.115356
vt 0.755663 0.066806
vt 1.127955 0.066924
vt 1.127955 0.115237
vt 0.238387 0.332810
vt 0.287478 0.332825
vt 0.287463 0.283332
vt 0.236166 0.281510
vt 1.127955 0.017918
vt 1.127955 0.066504
vt 0.755663 0.066622
vt 0.755663 0.017800
vt 1.127955 0.115890
vt 1.127955 0.064695
vt 0.755663 0.064580
vt 0.755663 0.116005
vt 1.547970 0.065232
vt 1.547970 0.032832
vt 1.157591 0.032959
vt 1.157591 0.065105
vt 0.236345 0.281686
vt 0.287278 0.283510
vt 0.287307 0.332654
vt 0.238565 0.332625
vt 1.157591 0.100379
vt 1.157591 0.066916
vt 1.547970 0.066771
vt 1.547970 0.100524
vt 0.238200 0.333005
vt 0.287659 0.333005
vt 0.287659 0.283143
vt 0.235977 0.281323
vt 1.547970 0.032832
vt 1.547970 0.066771
vt 1.157591 0.066628
vt 1.157591 0.032975
vt 1.547970 0.100972
vt 1.547970 0.065232
vt 1.157591 0.065372
vt 1.157591 0.100831
vt -0.005952 0.358312
vt -0.005952 0.340568
vt -0.061185 0.340568
vt -0.061185 0.358312
vt 0.031531 0.244391
vt 0.058079 0.257063
vt 0.058079 0.306751
vt 0.031531 0.330296
vt 0.031531 0.330296
vt 0.058079 0.306751
vt 0.058079 0.257063
vt 0.031531 0.244391
vt 0.049739 0.358312
vt 0.049739 0.340568
vt 0.133282 0.330226
vt 0.133226 0.306817
vt 0.165914 0.358262
vt 0.165914 0.340618
vt 0.133226 0.306817
vt 0.133282 0.330226
vt -0.005952 0.358312
vt -0.061185 0.358312
vt -0.061185 0.340568
vt -0.005952 0.340568
vt 0.031531 0.244391
vt 0.031531 0.330296
vt 0.058079 0.306751
vt 0.058079 0.257063
vt 0.031531 0.330296
vt 0.031531 0.244391
vt 0.058079 0.257063
vt 0.058079 0.306751
vt 0.049739 0.358312
vt 0.049739 0.340568
vt 0.133226 0.306817
vt 0.133282 0.330226
vt 0.165914 0.340618
vt 0.165914 0.358262
vt 0.133282 0.330226
vt 0.133226 0.306817
vt -0.005952 0.358312
vt -0.061185 0.358312
vt -0.061185 0.340568
vt -0.005952 0.340568
vt 0.031531 0.244391
vt 0.031531 0.330296
vt 0.058079 0.306751
vt 0.058079 0.257063
vt 0.031531 0.330296
vt 0.031531 0.244391
vt 0.058079 0.257063
vt 0.058079 0.306751
vt 0.049739 0.358312
vt 0.049739 0.340568
vt 0.133226 0.306817
vt 0.133282 0.330226
vt 0.165914 0.340618
vt 0.165914 0.358262
vt 0.133282 0.330226
vt 0.133226 0.306817
vt -0.005952 0.358312
vt -0.005952 0.340568
vt -0.061185 0.340568
vt -0.061185 0.358312
vt 0.031531 0.244391
vt 0.058079 0.257063
vt 0.058079 0.306751
vt 0.031531 0.330296
vt 0.031531 0.330296
vt 0.058079 0.306751
vt 0.058079 0.257063
vt 0.031531 0.244391
vt 0.049739 0.358312
vt 0.049739 0.340568
vt 0.133282 0.330226
vt 0.133226 0.306817
vt 0.165914 0.358262
vt 0.165914 0.340618
vt 0.133226 0.306817
vt 0.133282 0.330226
vt -0.005952 0.358312
vt -0.005952 0.340568
vt -0.061185 0.340568
vt -0.061185 0.358312
vt 0.031531 0.244391
vt 0.058079 0.257063
vt 0.058079 0.306751
vt 0.031531 0.330296
vt 0.031531 0.330296
vt 0.058079 0.306751
vt 0.058079 0.257063
vt 0.031531 0.244391
vt 0.049739 0.358312
vt 0.049739 0.340568
vt 0.177975 0.330170
vt 0.166573 0.306834
vt 0.238496 0.358214
vt 0.238496 0.340666
vt 0.166573 0.306834
vt 0.177975 0.330170
vt -0.005952 0.358312
vt -0.061185 0.358312
vt -0.061185 0.340568
vt -0.005952 0.340568
vt 0.031531 0.244391
vt 0.031531 0.330296
vt 0.058079 0.306751
vt 0.058079 0.257063
vt 0.031531 0.330296
vt 0.031531 0.244391
vt 0.058079 0.257063
vt 0.058079 0.306751
vt 0.049739 0.358312
vt 0.049739 0.340568
vt 0.166573 0.306834
vt 0.177975 0.330170
vt 0.238496 0.340666
vt 0.238496 0.358214
vt 0.177975 0.330170
vt 0.166573 0.306834
vt -0.005952 0.358312
vt -0.005952 0.340568
vt -0.061185 0.340568
vt -0.061185 0.358312
vt 0.031531 0.244391
vt 0.058079 0.257063
vt 0.058079 0.306751
vt 0.031531 0.330296
vt 0.031531 0.330296
vt 0.058079 0.306751
vt 0.058079 0.257063
vt 0.031531 0.244391
vt 0.049739 0.358312
vt 0.049739 0.340568
vt 0.177975 0.330170
vt 0.166573 0.306834
vt 0.238496 0.358214
vt 0.238496 0.340666
vt 0.166573 0.306834
vt 0.177975 0.330170
vt -0.005952 0.358312
vt -0.061185 0.358312
vt -0.061185 0.340568
vt -0.005952 0.340568
vt 0.031531 0.244391
vt 0.031531 0.330296
vt 0.058079 0.306751
vt 0.058079 0.257063
vt 0.031531 0.330296
vt 0.031531 0.244391
vt 0.058079 0.257063
vt 0.058079 0.306751
vt 0.049739 0.358312
vt 0.049739 0.340568
vt 0.166573 0.306834
vt 0.177975 0.330170
vt 0.238496 0.340666
vt 0.238496 0.358214
vt 0.177975 0.330170
vt 0.166573 0.306834
vt 1.547970 0.063951
vt 1.547970 0.006710
vt 1.076867 0.006826
vt 1.076867 0.063835
vt 0.237331 0.282468
vt 0.286335 0.282447
vt 0.288516 0.333672
vt 0.237311 0.331890
vt 1.076867 0.126192
vt 1.076867 0.066782
vt 1.547970 0.066671
vt 1.547970 0.126302
vt 0.238200 0.333005
vt 0.287659 0.333005
vt 0.287659 0.283143
vt 0.235977 0.281323
vt 1.547970 0.006710
vt 1.547970 0.066671
vt 1.076867 0.066560
vt 1.076867 0.006821
vt 1.547970 0.127093
vt 1.547970 0.063951
vt 1.076867 0.064078
vt 1.076867 0.126967
vt 1.547970 0.063951
vt 1.547970 0.006710
vt 1.076867 0.006826
vt 1.076867 0.063835
vt 0.237291 0.281567
vt 0.286333 0.283316
vt 0.288519 0.332807
vt 0.237352 0.332786
vt 1.076867 0.126192
vt 1.076867 0.066782
vt 1.547970 0.066671
vt 1.547970 0.126302
vt 0.238200 0.333005
vt 0.287659 0.333005
vt 0.287659 0.283143
vt 0.235977 0.281323
vt 1.547970 0.006710
vt 1.547970 0.066671
vt 1.076867 0.066551
vt 1.076867 0.006830
vt 1.547970 0.127093
vt 1.547970 0.063951
vt 1.076867 0.064069
vt 1.076867 0.126976
vt 1.547970 0.063951
vt 1.547970 0.006710
vt 1.076867 0.006816
vt 1.076867 0.063845
vt 0.236223 0.282427
vt 0.287439 0.282488
vt 0.287460 0.333674
vt 0.238372 0.331887
vt 1.076867 0.126181
vt 1.076867 0.066792
vt 1.547970 0.066671
vt 1.547970 0.126302
vt 0.238200 0.333005
vt 0.287659 0.333005
vt 0.287659 0.283143
vt 0.235977 0.281323
vt 1.547970 0.006710
vt 1.547970 0.066671
vt 1.076867 0.066560
vt 1.076867 0.006821
vt 1.547970 0.127093
vt 1.547970 0.063951
vt 1.076867 0.064078
vt 1.076867 0.126967
vt 1.547970 0.063951
vt 1.547970 0.006710
vt 1.076867 0.006816
vt 1.076867 0.063845
vt 0.236187 0.281530
vt 0.287441 0.283353
vt 0.287458 0.332805
vt 0.238408 0.332788
vt 1.076867 0.126181
vt 1.076867 0.066792
vt 1.547970 0.066671
vt 1.547970 0.126302
vt 0.238200 0.333005
vt 0.287659 0.333005
vt 0.287659 0.283143
vt 0.235977 0.281323
vt 1.547970 0.006710
vt 1.547970 0.066671
vt 1.076867 0.066551
vt 1.076867 0.006830
vt 1.547970 0.127093
vt 1.547970 0.063951
vt 1.076867 0.064069
vt 1.076867 0.126976
vn 0.000000 0.130388 0.991463
vn 0.000000 0.130388 0.991463
vn 0.000000 0.130388 0.991463
vn 0.000000 0.130388 0.991463
vn 0.000000 1.000000 0.000000
vn 0.000000 1.000000 0.000000
vn 0.000000 1.000000 0.000000
vn 0.000000 1.000000 0.000000
vn 0.000000 0.130362 -0.991466
vn 0.000000 0.130362 -0.991466
vn 0.000000 0.130362 -0.991466
vn 0.000000 0.130362 -0.991466
vn 0.000000 -1.000000 0.000000
vn 0.000000 -1.000000 0.000000
vn 0.000000 -1.000000 0.000000
vn 0.000000 -1.000000 0.000000
vn 0.992689 0.120698 0.000000
vn 0.992689 0.120698 0.000000
vn 0.992689 0.120698 0.000000
vn 0.992689 0.120698 0.000000
vn -0.992695 0.120652 0.000000
vn -0.992695 0.120652 0.000000
vn -0.992695 0.120652 0.000000
vn -0.992695 0.120652 0.000000
vn 0.000000 -0.623893 0.781510
vn 0.000000 -0.623893 0.781510
vn 0.000000 -0.623893 0.781510
vn 0.000000 -0.623893 0.781510
vn 0.713166 -0.700995 0.000000
vn 0.713166 -0.700995 0.000000
vn 0.713166 -0.700995 0.000000
vn 0.713166 -0.700995 0.000000
vn 0.000000 -0.623893 -0.781510
vn 0.000000 -0.623893 -0.781510
vn 0.000000 -0.623893 -0.781510
vn 0.000000 -0.623893 -0.781510
vn -0.713091 -0.701072 0.000000
vn -0.713091 -0.701072 0.000000
vn -0.713091 -0.701072 0.000000
vn -0.713091 -0.701072 0.000000
vn 0.000000 0.000000 1.000000
vn 0.000000 0.000000 1.000000
vn 0.000000 0.000000 1.000000
vn 0.000000 0.000000 1.000000
vn 1.000000 0.000000 0.000000
vn 1.000000 0.000000 0.000000
vn 1.000000 0.000000 0.000000
vn 1.000000 0.000000 0.000000
vn 0.000000 0.000000 -1.000000
vn 0.000000 0.000000 -1.000000
vn 0.000000 0.000000 -1.000000
vn 0.000000 0.000000 -1.000000
vn -1.000000 0.000000 0.000000
vn -1.000000 0.000000 0.000000
vn -1.000000 0.000000 0.000000
vn -1.000000 0.000000 0.000000
vn 0.035198 0.999380 0.000000
vn 0.035198 0.999380 0.000000
vn 0.035198 0.999380 0.000000
vn 0.035198 0.999380 0.000000
vn -0.000000 0.000000 -1.000000
vn -0.000000 0.000000 -1.000000
vn -0.000000 0.000000 -1.000000
vn -0.000000 0.000000 -1.000000
vn 0.000000 -1.000000 0.000000
vn 0.000000 -1.000000 0.000000
vn 0.000000 -1.000000 0.000000
vn 0.000000 -1.000000 0.000000
vn 0.000000 0.000000 1.000000
vn 0.000000 0.000000 1.000000
vn 0.000000 0.000000 1.000000
vn 0.000000 0.000000 1.000000
vn 1.000000 0.000000 0.000000
vn 1.000000 0.000000 0.000000
vn 1.000000 0.000000 0.000000
vn 1.000000 0.000000 0.000000
vn -0.999077 -0.042968 0.000000
vn -0.999077 -0.042968 0.000000
vn -0.999077 -0.042968 0.000000
vn -0.999077 -0.042968 0.000000
vn 0.035205 0.999380 0.000000
vn 0.035205 0.999380 0.000000
vn 0.035205 0.999380 0.000000
vn 0.035205 0.999380 0.000000
vn -0.000000 0.000000 -1.000000
vn -0.000000 0.000000 -1.000000
vn -0.000000 0.000000 -1.000000
vn -0.000000 0.000000 -1.000000
vn 0.000000 -1.000000 0.000000
vn 0.000000 -1.000000 0.000000
vn 0.000000 -1.000000 0.000000
vn 0.000000 -1.000000 0.000000
vn 0.000000 0.000000 1.000000
vn 0.000000 0.000000 1.000000
vn 0.000000 0.000000 1.000000
vn 0.000000 0.000000 1.000000
vn 1.000000 0.000000 0.000000
vn 1.000000 0.000000 0.000000
vn 1.000000 0.000000 0.000000
vn 1.000000 0.000000 0.000000
vn -0.999077 -0.042968 0.000000
vn -0.999077 -0.042968 0.000000
vn -0.999077 -0.042968 0.000000
vn -0.999077 -0.042968 0.000000
vn 0.000000 0.999380 -0.035202
vn 0.000000 0.999380 -0.035202
vn 0.000000 0.999380 -0.035202
vn 0.000000 0.999380 -0.035202
vn -1.000000 0.000000 0.000000
vn -1.000000 0.000000 0.000000
vn -1.000000 0.000000 0.000000
vn -1.000000 0.000000 0.000000
vn 0.000000 -1.000000 0.000000
vn 0.000000 -1.000000 0.000000
vn 0.000000 -1.000000 0.000000
vn 0.000000 -1.000000 0.000000
vn 1.000000 0.000034 0.000000
vn 1.000000 0.000034 0.000000
vn 1.000000 0.000034 0.000000
vn 1.000000 0.000034 0.000000
vn 0.000000 0.000000 -1.000000
vn 0.000000 0.000000 -1.000000
vn 0.000000 0.000000 -1.000000
vn 0.000000 0.000000 -1.000000
vn 0.000000 -0.042966 0.999077
vn 0.000000 -0.042966 0.999077
vn 0.000000 -0.042966 0.999077
vn 0.000000 -0.042966 0.999077
vn -0.438169 -0.898893 0.000000
vn -0.438169 -0.898893 0.000000
vn -0.438169 -0.898893 0.000000
vn -0.438169 -0.898893 0.000000
vn 0.000000 0.000000 -1.000000
vn 0.000000 0.000000 -1.000000
vn 0.000000 0.000000 -1.000000
vn 0.000000 0.000000 -1.000000
vn 0.000000 0.000000 1.000000
vn 0.000000 0.000000 1.000000
vn 0.000000 0.000000 1.000000
vn 0.000000 0.000000 1.000000
vn -1.000000 0.000000 0.000000
vn -1.000000 0.000000 0.000000
vn -1.000000 0.000000 0.000000
vn -1.000000 0.000000 0.000000
vn 0.000000 0.000000 1.000000
vn 0.000000 0.000000 1.000000
vn 0.000000 -1.000000 0.000000
vn 0.000000 -1.000000 0.000000
vn 0.000000 -1.000000 0.000000
vn 0.000000 -1.000000 0.000000
vn 0.000000 0.000000 -1.000000
vn 0.000000 0.000000 -1.000000
vn 0.438201 -0.898877 0.000000
vn 0.438201 -0.898877 0.000000
vn 0.438201 -0.898877 0.000000
vn 0.438201 -0.898877 0.000000
vn -0.000000 0.000000 -1.000000
vn -0.000000 0.000000 -1.000000
vn -0.000000 0.000000 -1.000000
vn -0.000000 0.000000 -1.000000
vn 0.000000 0.000000 1.000000
vn 0.000000 0.000000 1.000000
vn 0.000000 0.000000 1.000000
vn 0.000000 0.000000 1.000000
vn 1.000000 0.000000 0.000000
vn 1.000000 0.000000 0.000000
vn 1.000000 0.000000 0.000000
vn 1.000000 0.000000 0.000000
vn 0.000000 0.000000 1.000000
vn 0.000000 0.000000 1.000000
vn 0.000000 -1.000000 0.000000
vn 0.000000 -1.000000 0.000000
vn 0.000000 -1.000000 0.000000
vn 0.000000 -1.000000 0.000000
vn 0.000000 0.000000 -1.000000
vn 0.000000 0.000000 -1.000000
vn 0.438210 -0.898873 0.000000
vn 0.438210 -0.898873 0.000000
vn 0.438210 -0.898873 0.000000
vn 0.438210 -0.898873 0.000000
vn -0.000000 0.000000 -1.000000
vn -0.000000 0.000000 -1.000000
vn -0.000000 0.000000 -1.000000
vn -0.000000 0.000000 -1.000000
vn 0.000000 0.000000 1.000000
vn 0.000000 0.000000 1.000000
vn 0.000000 0.000000 1.000000
vn 0.000000 0.000000 1.000000
vn 1.000000 0.000000 0.000000
vn 1.000000 0.000000 0.000000
vn 1.000000 0.000000 0.000000
vn 1.000000 0.000000 0.000000
vn 0.000000 0.000000 1.000000
vn 0.000000 0.000000 1.000000
vn 0.000000 -1.000000 0.000000
vn 0.000000 -1.000000 0.000000
vn 0.000000 -1.000000 0.000000
vn 0.000000 -1.000000 0.000000
vn 0.000000 0.000000 -1.000000
vn 0.000000 0.000000 -1.000000
vn -0.438178 -0.898888 0.000000
vn -0.438178 -0.898888 0.000000
vn -0.438178 -0.898888 0.000000
vn -0.438178 -0.898888 0.000000
vn 0.000001 0.000000 -1.000000
vn 0.000001 0.000000 -1.000000
vn 0.000000 0.000000 -1.000000
vn 0.000000 0.000000 -1.000000
vn 0.000000 0.000000 1.000000
vn 0.000000 0.000000 1.000000
vn 0.000000 0.000000 1.000000
vn 0.000000 0.000000 1.000000
vn -1.000000 0.000000 0.000000
vn -1.000000 0.000000 0.000000
vn -1.000000 0.000000 0.000000
vn -1.000000 0.000000 0.000000
vn 0.000000 0.000000 1.000000
vn 0.000000 0.000000 1.000000
vn 0.000000 -1.000000 0.000000
vn 0.000000 -1.000000 0.000000
vn 0.000000 -1.000000 0.000000
vn 0.000000 -1.000000 0.000000
vn 0.000000 0.000000 -1.000000
vn 0.000000 0.000000 -1.000000
vn 0.000000 -0.898849 0.438258
vn 0.000000 -0.898849 0.438258
vn 0.000000 -0.898849 0.438258
vn 0.000000 -0.898849 0.438258
vn -1.000000 0.000000 0.000000
vn -1.000000 0.000000 0.000000
vn -1.000000 -0.000029 0.000000
vn -1.000000 -0.000029 0.000000
vn 1.000000 0.000000 0.000000
vn 1.000000 0.000000 0.000000
vn 1.000000 0.000000 0.000000
vn 1.000000 0.000000 0.000000
vn 0.000000 0.000000 1.000000
vn 0.000000 0.000000 1.000000
vn 0.000000 0.000000 1.000000
vn 0.000000 0.000000 1.000000
vn 1.000000 0.000000 0.000000
vn 1.000000 0.000000 0.000000
vn 0.000000 -1.000000 0.000000
vn 0.000000 -1.000000 0.000000
vn 0.000000 -1.000000 0.000000
vn 0.000000 -1.000000 0.000000
vn -1.000000 -0.000058 0.000000
vn -1.000000 -0.000058 0.000000
vn 0.000000 -0.898865 -0.438226
vn 0.000000 -0.898865 -0.438226
vn 0.000000 -0.898865 -0.438226
vn 0.000000 -0.898865 -0.438226
vn -1.000000 0.000000 0.000000
vn -1.000000 0.000000 0.000000
vn -1.000000 0.000000 0.000000
vn -1.000000 0.000000 0.000000
vn 1.000000 0.000000 0.000000
vn 1.000000 0.000000 0.000000
vn 1.000000 0.000000 0.000000
vn 1.000000 0.000000 0.000000
vn 0.000000 0.000000 -1.000000
vn 0.000000 0.000000 -1.000000
vn 0.000000 0.000000 -1.000000
vn 0.000000 0.000000 -1.000000
vn 1.000000 0.000000 0.000000
vn 1.000000 0.000000 0.000000
vn 0.000000 -1.000000 0.000000
vn 0.000000 -1.000000 0.000000
vn 0.000000 -1.000000 0.000000
vn 0.000000 -1.000000 0.000000
vn -1.000000 0.000000 0.000000
vn -1.000000 0.000000 0.000000
vn 0.000000 -0.898866 0.438224
vn 0.000000 -0.898866 0.438224
vn 0.000000 -0.898866 0.438224
vn 0.000000 -0.898866 0.438224
vn -1.000000 0.000000 0.000000
vn -1.000000 0.000000 0.000000
vn -1.000000 -0.000019 0.000000
vn -1.000000 -0.000019 0.000000
vn 1.000000 0.000000 0.000000
vn 1.000000 0.000000 0.000000
vn 1.000000 0.000000 0.000000
vn 1.000000 0.000000 0.000000
vn 0.000000 0.000000 1.000000
vn 0.000000 0.000000 1.000000
vn 0.000000 0.000000 1.000000
vn 0.000000 0.000000 1.000000
vn 1.000000 0.000000 0.000000
vn 1.000000 0.000000 0.000000
vn 0.000000 -1.000000 0.000000
vn 0.000000 -1.000000 0.000000
vn 0.000000 -1.000000 0.000000
vn 0.000000 -1.000000 0.000000
vn -1.000000 -0.000038 0.000000
vn -1.000000 -0.000038 0.000000
vn 0.000000 -0.898850 -0.438256
vn 0.000000 -0.898850 -0.438256
vn 0.000000 -0.898850 -0.438256
vn 0.000000 -0.898850 -0.438256
vn -1.000000 0.000000 0.000000
vn -1.000000 0.000000 0.000000
vn -1.000000 0.000000 0.000000
vn -1.000000 0.000000 0.000000
vn 1.000000 0.000000 0.000000
vn 1.000000 0.000000 0.000000
vn 1.000000 0.000000 0.000000
vn 1.000000 0.000000 0.000000
vn 0.000000 0.000000 -1.000000
vn 0.000000 0.000000 -1.000000
vn 0.000000 0.000000 -1.000000
vn 0.000000 0.000000 -1.000000
vn 1.000000 0.000000 0.000000
vn 1.000000 0.000000 0.000000
vn 0.000000 -1.000000 0.000000
vn 0.000000 -1.000000 0.000000
vn 0.000000 -1.000000 0.000000
vn 0.000000 -1.000000 0.000000
vn -1.000000 0.000000 0.000000
vn -1.000000 0.000000 0.000000
vn 0.000000 0.000000 1.000000
vn 0.000000 0.000000 1.000000
vn 0.000000 0.000000 1.000000
vn 0.000000 0.000000 1.000000
vn 0.000000 1.000000 0.000000
vn 0.000000 1.000000 0.000000
vn 0.000000 1.000000 0.000000
vn 0.000000 1.000000 0.000000
vn -0.035189 0.000000 -0.999381
vn -0.035189 0.000000 -0.999381
vn -0.035189 0.000000 -0.999381
vn -0.035189 0.000000 -0.999381
vn 0.000000 -1.000000 -0.000000
vn 0.000000 -1.000000 -0.000000
vn 0.000000 -1.000000 -0.000000
vn 0.000000 -1.000000 -0.000000
vn 0.999078 0.000000 0.042927
vn 0.999078 0.000000 0.042927
vn 0.999078 0.000000 0.042927
vn 0.999078 0.000000 0.042927
vn -1.000000 0.000000 0.000000
vn -1.000000 0.000000 0.000000
vn -1.000000 0.000000 0.000000
vn -1.000000 0.000000 0.000000
vn 0.000000 0.000000 1.000000
vn 0.000000 0.000000 1.000000
vn 0.000000 0.000000 1.000000
vn 0.000000 0.000000 1.000000
vn 0.000000 1.000000 0.000001
vn 0.000000 1.000000 0.000001
vn 0.000000 1.000000 0.000001
vn 0.000000 1.000000 0.000001
vn 0.035191 0.000000 -0.999381
vn 0.035191 0.000000 -0.999381
vn 0.035191 0.000000 -0.999381
vn 0.035191 0.000000 -0.999381
vn 0.000000 -1.000000 0.000000
vn 0.000000 -1.000000 0.000000
vn 0.000000 -1.000000 0.000000
vn 0.000000 -1.000000 0.000000
vn 1.000000 0.000000 0.000000
vn 1.000000 0.000000 0.000000
vn 1.000000 0.000000 0.000000
vn 1.000000 0.000000 0.000000
vn -0.999075 0.000000 0.043004
vn -0.999075 0.000000 0.043004
vn -0.999075 0.000000 0.043004
vn -0.999075 0.000000 0.043004
vn -0.035198 0.000000 0.999380
vn -0.035198 0.000000 0.999380
vn -0.035198 0.000000 0.999380
vn -0.035198 0.000000 0.999380
vn 0.000000 1.000000 0.000000
vn 0.000000 1.000000 0.000000
vn 0.000000 1.000000 0.000000
vn 0.000000 1.000000 0.000000
vn 0.000000 0.000000 -1.000000
vn 0.000000 0.000000 -1.000000
vn 0.000000 0.000000 -1.000000
vn 0.000000 0.000000 -1.000000
vn 0.000000 -1.000000 0.000000
vn 0.000000 -1.000000 0.000000
vn 0.000000 -1.000000 0.000000
vn 0.000000 -1.000000 0.000000
vn 0.999078 0.000000 -0.042927
vn 0.999078 0.000000 -0.042927
vn 0.999078 0.000000 -0.042927
vn 0.999078 0.000000 -0.042927
vn -1.000000 0.000000 0.000000
vn -1.000000 0.000000 0.000000
vn -1.000000 0.000000 0.000000
vn -1.000000 0.000000 0.000000
vn 0.035201 0.000000 0.999380
vn 0.035201 0.000000 0.999380
vn 0.035201 0.000000 0.999380
vn 0.035201 0.000000 0.999380
vn 0.000000 1.000000 -0.000001
vn 0.000000 1.000000 -0.000001
vn 0.000000 1.000000 -0.000001
vn 0.000000 1.000000 -0.000001
vn 0.000000 0.000000 -1.000000
vn 0.000000 0.000000 -1.000000
vn 0.000000 0.000000 -1.000000
vn 0.000000 0.000000 -1.000000
vn 0.000000 -1.000000 -0.000000
vn 0.000000 -1.000000 -0.000000
vn 0.000000 -1.000000 -0.000000
vn 0.000000 -1.000000 -0.000000
vn 1.000000 0.000000 0.000000
vn 1.000000 0.000000 0.000000
vn 1.000000 0.000000 0.000000
vn 1.000000 0.000000 0.000000
vn -0.999075 0.000000 -0.043004
vn -0.999075 0.000000 -0.043004
vn -0.999075 0.000000 -0.043004
vn -0.999075 0.000000 -0.043004
s off
g polySurface7703
f 1/1/1 2/2/2 4/3/3 3/4/4
f 13/5/5 14/6/6 15/7/7 16/8/8
f 5/9/9 6/10/10 8/11/11 7/12/12
f 7/13/13 8/14/14 2/15/15 1/16/16
f 2/2/17 8/11/18 6/10/19 4/3/20
f 7/12/21 1/1/22 3/4/23 5/9/24
f 3/4/25 4/3/26 10/17/27 9/18/28
f 4/3/29 6/10/30 11/19/31 10/17/32
f 6/10/33 5/9/34 12/20/35 11/19/36
f 5/9/37 3/4/38 9/18/39 12/20/40
f 9/18/41 10/17/42 14/21/43 13/22/44
f 10/17/45 11/19/46 15/23/47 14/21/48
f 11/19/49 12/20/50 16/24/51 15/23/52
f 12/20/53 9/18/54 13/22/55 16/24/56
f 17/25/57 18/26/58 20/27/59 19/28/60
f 19/29/61 20/30/62 22/31/63 21/32/64
f 21/33/65 22/34/66 24/35/67 23/36/68
f 23/37/69 24/38/70 18/39/71 17/40/72
f 18/41/73 24/42/74 22/43/75 20/44/76
f 23/45/77 17/46/78 19/47/79 21/48/80
f 25/49/81 26/50/82 28/51/83 27/52/84
f 27/53/85 28/54/86 30/55/87 29/56/88
f 29/57/89 30/58/90 32/59/91 31/60/92
f 31/61/93 32/62/94 26/63/95 25/64/96
f 26/65/97 32/66/98 30/67/99 28/68/100
f 31/69/101 25/70/102 27/71/103 29/72/104
f 33/73/105 34/74/106 36/75/107 35/76/108
f 35/77/109 36/78/110 38/79/111 37/80/112
f 37/81/113 38/82/114 40/83/115 39/84/116
f 39/85/117 40/86/118 34/87/119 33/88/120
f 34/89/121 40/90/122 38/91/123 36/92/124
f 39/93/125 33/94/126 35/95/127 37/96/128
f 41/97/129 43/98/130 44/99/131 42/100/132
s 34
f 44/101/133 43/102/134 45/103/135 46/104/136
s 35
f 47/105/137 48/106/138 41/107/139 42/108/140
s off
f 48/109/141 45/110/142 43/98/143 41/97/144
s 35
f 47/105/137 49/111/145 50/112/146 48/106/138
s off
f 48/109/147 50/113/148 51/114/149 45/110/150
s 34
f 45/103/135 51/115/151 52/116/152 46/104/136
s off
f 53/117/153 54/118/154 56/119/155 55/120/156
s 39
f 56/121/157 58/122/158 57/123/159 55/124/160
s 40
f 59/125/161 54/126/162 53/127/163 60/128/164
s off
f 60/129/165 53/117/166 55/120/167 57/130/168
s 40
f 59/125/161 60/128/164 50/131/169 49/132/170
s off
f 60/129/171 57/130/172 51/133/173 50/134/174
s 39
f 57/123/159 58/122/158 52/135/175 51/136/176
s off
f 61/137/177 62/138/178 64/139/179 63/140/180
s 44
f 64/141/181 66/142/182 65/143/183 63/144/184
s 45
f 67/145/185 62/146/186 61/147/187 68/148/188
s off
f 68/149/189 61/137/190 63/140/191 65/150/192
s 45
f 67/145/185 68/148/188 70/151/193 69/152/194
s off
f 68/149/195 65/150/196 71/153/197 70/154/198
s 44
f 65/143/183 66/142/182 72/155/199 71/156/200
s off
f 73/157/201 75/158/202 76/159/203 74/160/204
s 49
f 76/161/205 75/162/206 77/163/207 78/164/208
s 50
f 79/165/209 80/166/210 73/167/211 74/168/212
s off
f 80/169/213 77/170/214 75/158/215 73/157/216
s 50
f 79/165/209 69/171/217 70/172/218 80/166/210
s off
f 80/169/219 70/173/220 71/174/221 77/170/222
s 49
f 77/163/207 71/175/223 72/176/224 78/164/208
s off
f 81/177/225 83/178/226 84/179/227 82/180/228
s 54
f 84/181/229 83/182/230 85/183/231 86/184/232
s 55
f 87/185/233 88/186/234 81/187/235 82/188/236
s off
f 88/189/237 85/190/238 83/178/239 81/177/240
s 55
f 87/185/233 89/191/241 90/192/242 88/186/234
s off
f 88/189/243 90/193/244 91/194/245 85/190/246
s 54
f 85/183/231 91/195/247 92/196/248 86/184/232
s off
f 93/197/249 94/198/250 96/199/251 95/200/252
s 59
f 96/201/253 98/202/254 97/203/255 95/204/256
s 60
f 99/205/257 94/206/258 93/207/259 100/208/260
s off
f 100/209/261 93/197/262 95/200/263 97/210/264
s 60
f 99/205/257 100/208/260 90/211/265 89/212/266
s off
f 100/209/267 97/210/268 91/213/269 90/214/270
s 59
f 97/203/255 98/202/254 92/215/271 91/216/272
s off
f 101/217/273 103/218/274 104/219/275 102/220/276
s 64
f 104/221/277 103/222/278 105/223/279 106/224/280
s 65
f 107/225/281 108/226/282 101/227/283 102/228/284
s off
f 108/229/285 105/230/286 103/218/287 101/217/288
s 65
f 107/225/281 109/231/289 110/232/290 108/226/282
s off
f 108/229/291 110/233/292 111/234/293 105/230/294
s 64
f 105/223/279 111/235/295 112/236/296 106/224/280
s off
f 113/237/297 114/238/298 116/239/299 115/240/300
s 69
f 116/241/301 118/242/302 117/243/303 115/244/304
s 70
f 119/245/305 114/246/306 113/247/307 120/248/308
s off
f 120/249/309 113/237/310 115/240/311 117/250/312
s 70
f 119/245/305 120/248/308 110/251/313 109/252/314
s off
f 120/249/315 117/250/316 111/253/317 110/254/318
s 69
f 117/243/303 118/242/302 112/255/319 111/256/320
s off
f 121/257/321 122/258/322 124/259/323 123/260/324
f 123/261/325 124/262/326 126/263/327 125/264/328
f 125/265/329 126/266/330 128/267/331 127/268/332
f 127/269/333 128/270/334 122/271/335 121/272/336
f 122/273/337 128/274/338 126/275/339 124/276/340
f 127/277/341 121/278/342 123/279/343 125/280/344
f 129/281/345 130/282/346 132/283/347 131/284/348
f 131/285/349 132/286/350 134/287/351 133/288/352
f 133/289/353 134/290/354 136/291/355 135/292/356
f 135/293/357 136/294/358 130/295/359 129/296/360
f 130/297/361 136/298/362 134/299/363 132/300/364
f 135/301/365 129/302/366 131/303/367 133/304/368
f 137/305/369 138/306/370 140/307/371 139/308/372
f 139/309/373 140/310/374 142/311/375 141/312/376
f 141/313/377 142/314/378 144/315/379 143/316/380
f 143/317/381 144/318/382 138/319/383 137/320/384
f 138/321/385 144/322/386 142/323/387 140/324/388
f 143/325/389 137/326/390 139/327/391 141/328/392
f 145/329/393 146/330/394 148/331/395 147/332/396
f 147/333/397 148/334/398 150/335/399 149/336/400
f 149/337/401 150/338/402 152/339/403 151/340/404
f 151/341/405 152/342/406 146/343/407 145/344/408
f 146/345/409 152/346/410 150/347/411 148/348/412
f 151/349/413 145/350/414 147/351/415 149/352/416
