# This file uses centimeters as units for non-parametric coordinates.

g default
v -40.526215 1.902919 -0.058897
v -41.012924 2.104520 -0.058897
v -41.499634 1.902919 -0.058897
v -41.701233 1.416210 -0.058897
v -41.499634 0.929501 -0.058897
v -41.012924 0.727899 -0.058897
v -40.526215 0.929500 -0.058897
v -40.324612 1.416210 -0.058897
v -40.526215 1.902919 0.058897
v -41.012924 2.104520 0.058897
v -41.499634 1.902919 0.058897
v -41.701233 1.416210 0.058897
v -41.499634 0.929501 0.058897
v -41.012924 0.727899 0.058897
v -40.526215 0.929500 0.058897
v -40.324612 1.416210 0.058897
v -41.012924 1.416210 -0.190322
v -41.012924 1.416210 0.190322
v -40.515560 2.386499 0.077012
v -40.358585 2.386499 0.077012
v -40.523506 2.668458 0.077012
v -40.350643 2.668458 0.077012
v -40.523506 2.668458 -0.072194
v -40.350643 2.668458 -0.072194
v -40.515560 2.386499 -0.072194
v -40.358585 2.386499 -0.072194
v -41.669453 2.386499 0.077012
v -41.512478 2.386499 0.077012
v -41.677399 2.668458 0.077012
v -41.504536 2.668458 0.077012
v -41.677399 2.668458 -0.072194
v -41.504536 2.668458 -0.072194
v -41.669453 2.386499 -0.072194
v -41.512478 2.386499 -0.072194
v -42.031563 0.496434 0.077012
v -41.864807 0.496434 0.077012
v -42.031563 2.289839 0.077012
v -41.864807 2.289839 0.077012
v -42.031563 2.289839 -0.072194
v -41.864807 2.289839 -0.072194
v -42.031563 0.496434 -0.072194
v -41.864807 0.496434 -0.072194
v -40.170559 0.496434 0.077012
v -40.003803 0.496434 0.077012
v -40.170559 2.289839 0.077012
v -40.003803 2.289839 0.077012
v -40.170559 2.289839 -0.072194
v -40.003803 2.289839 -0.072194
v -40.170559 0.496434 -0.072194
v -40.003803 0.496434 -0.072194
v -42.137589 2.250479 0.081250
v -39.888935 2.250479 0.081250
v -42.283218 2.415542 0.081250
v -39.743305 2.415542 0.081250
v -42.283218 2.415542 -0.076432
v -39.743305 2.415542 -0.076432
v -42.137589 2.250479 -0.076432
v -39.888935 2.250479 -0.076432
v -41.808346 2.649126 0.081250
v -40.215088 2.649126 0.081250
v -41.953972 2.814189 0.081250
v -40.069458 2.814189 0.081250
v -41.953972 2.814189 -0.076432
v -40.069458 2.814189 -0.076432
v -41.808346 2.649126 -0.076432
v -40.215088 2.649126 -0.076432
vt 0.610485 0.045765
vt 0.500000 0.000000
vt 0.389515 0.045765
vt 0.343750 0.156250
vt 0.389515 0.266735
vt 0.500000 0.312500
vt 0.610485 0.266735
vt 0.656250 0.156250
vt 0.375000 0.312500
vt 0.406250 0.312500
vt 0.437500 0.312500
vt 0.468750 0.312500
vt 0.500000 0.312500
vt 0.531250 0.312500
vt 0.562500 0.312500
vt 0.593750 0.312500
vt 0.625000 0.312500
vt 0.375000 0.688440
vt 0.406250 0.688440
vt 0.437500 0.688440
vt 0.468750 0.688440
vt 0.500000 0.688440
vt 0.531250 0.688440
vt 0.562500 0.688440
vt 0.593750 0.688440
vt 0.625000 0.688440
vt 0.610485 0.733265
vt 0.500000 0.687500
vt 0.389515 0.733265
vt 0.343750 0.843750
vt 0.389515 0.954235
vt 0.500000 1.000000
vt 0.610485 0.954235
vt 0.656250 0.843750
vt 0.500000 0.150000
vt 0.500000 0.837500
vt 0.375000 0.000000
vt 0.625000 0.000000
vt 0.625000 0.250000
vt 0.375000 0.250000
vt 0.625000 0.500000
vt 0.375000 0.500000
vt 0.625000 0.750000
vt 0.375000 0.750000
vt 0.625000 1.000000
vt 0.375000 1.000000
vt 0.875000 0.000000
vt 0.875000 0.250000
vt 0.125000 0.000000
vt 0.125000 0.250000
vt 0.375000 0.000000
vt 0.625000 0.000000
vt 0.625000 0.250000
vt 0.375000 0.250000
vt 0.625000 0.500000
vt 0.375000 0.500000
vt 0.625000 0.750000
vt 0.375000 0.750000
vt 0.625000 1.000000
vt 0.375000 1.000000
vt 0.875000 0.000000
vt 0.875000 0.250000
vt 0.125000 0.000000
vt 0.125000 0.250000
vt 0.375000 0.000000
vt 0.625000 0.000000
vt 0.625000 0.250000
vt 0.375000 0.250000
vt 0.625000 0.500000
vt 0.375000 0.500000
vt 0.625000 0.750000
vt 0.375000 0.750000
vt 0.625000 1.000000
vt 0.375000 1.000000
vt 0.875000 0.000000
vt 0.875000 0.250000
vt 0.125000 0.000000
vt 0.125000 0.250000
vt 0.375000 0.000000
vt 0.625000 0.000000
vt 0.625000 0.250000
vt 0.375000 0.250000
vt 0.625000 0.500000
vt 0.375000 0.500000
vt 0.625000 0.750000
vt 0.375000 0.750000
vt 0.625000 1.000000
vt 0.375000 1.000000
vt 0.875000 0.000000
vt 0.875000 0.250000
vt 0.125000 0.000000
vt 0.125000 0.250000
vt 0.375000 0.000000
vt 0.625000 0.000000
vt 0.625000 0.250000
vt 0.375000 0.250000
vt 0.625000 0.500000
vt 0.375000 0.500000
vt 0.625000 0.750000
vt 0.375000 0.750000
vt 0.625000 1.000000
vt 0.375000 1.000000
vt 0.875000 0.000000
vt 0.875000 0.250000
vt 0.125000 0.000000
vt 0.125000 0.250000
vt 0.375000 0.000000
vt 0.625000 0.000000
vt 0.625000 0.250000
vt 0.375000 0.250000
vt 0.625000 0.500000
vt 0.375000 0.500000
vt 0.625000 0.750000
vt 0.375000 0.750000
vt 0.625000 1.000000
vt 0.375000 1.000000
vt 0.875000 0.000000
vt 0.875000 0.250000
vt 0.125000 0.000000
vt 0.125000 0.250000
vn 0.382683 0.923880 0.000000
vn 0.382683 0.923880 0.000000
vn 0.382683 0.923880 0.000000
vn 0.382683 0.923880 0.000000
vn -0.382683 0.923880 0.000000
vn -0.382683 0.923880 0.000000
vn -0.382683 0.923880 0.000000
vn -0.382683 0.923880 0.000000
vn -0.923883 0.382674 0.000000
vn -0.923883 0.382674 0.000000
vn -0.923883 0.382674 0.000000
vn -0.923883 0.382674 0.000000
vn -0.923883 -0.382674 0.000000
vn -0.923883 -0.382674 0.000000
vn -0.923883 -0.382674 0.000000
vn -0.923883 -0.382674 0.000000
vn -0.382683 -0.923880 0.000000
vn -0.382683 -0.923880 0.000000
vn -0.382683 -0.923880 0.000000
vn -0.382683 -0.923880 0.000000
vn 0.382683 -0.923880 0.000000
vn 0.382683 -0.923880 0.000000
vn 0.382683 -0.923880 0.000000
vn 0.382683 -0.923880 0.000000
vn 0.923878 -0.382687 0.000000
vn 0.923878 -0.382687 0.000000
vn 0.923878 -0.382687 0.000000
vn 0.923878 -0.382687 0.000000
vn 0.923878 0.382687 0.000000
vn 0.923878 0.382687 0.000000
vn 0.923878 0.382687 0.000000
vn 0.923878 0.382687 0.000000
vn 0.000000 0.187550 -0.982255
vn 0.132618 0.132617 -0.982255
vn -0.000000 -0.000000 -1.000000
vn -0.132618 0.132617 -0.982255
vn -0.187551 0.000000 -0.982255
vn -0.132618 -0.132618 -0.982255
vn -0.000000 -0.187550 -0.982255
vn 0.132618 -0.132617 -0.982255
vn 0.187550 0.000000 -0.982255
vn 0.132618 0.132617 0.982255
vn 0.000000 0.187550 0.982255
vn -0.000000 -0.000000 1.000000
vn -0.132618 0.132617 0.982255
vn -0.187551 0.000000 0.982255
vn -0.132618 -0.132618 0.982255
vn -0.000000 -0.187550 0.982255
vn 0.132618 -0.132617 0.982255
vn 0.187550 0.000000 0.982255
vn 0.000000 0.000000 1.000000
vn 0.000000 0.000000 1.000000
vn 0.000000 0.000000 1.000000
vn 0.000000 0.000000 1.000000
vn 0.000000 1.000000 0.000000
vn 0.000000 1.000000 0.000000
vn 0.000000 1.000000 0.000000
vn 0.000000 1.000000 0.000000
vn 0.000000 0.000000 -1.000000
vn 0.000000 0.000000 -1.000000
vn 0.000000 0.000000 -1.000000
vn 0.000000 0.000000 -1.000000
vn 0.000000 -1.000000 0.000000
vn 0.000000 -1.000000 0.000000
vn 0.000000 -1.000000 0.000000
vn 0.000000 -1.000000 0.000000
vn 0.999603 -0.028166 0.000000
vn 0.999603 -0.028166 0.000000
vn 0.999603 -0.028166 0.000000
vn 0.999603 -0.028166 0.000000
vn -0.999603 -0.028166 0.000000
vn -0.999603 -0.028166 0.000000
vn -0.999603 -0.028166 0.000000
vn -0.999603 -0.028166 0.000000
vn 0.000000 0.000000 1.000000
vn 0.000000 0.000000 1.000000
vn 0.000000 0.000000 1.000000
vn 0.000000 0.000000 1.000000
vn 0.000000 1.000000 0.000000
vn 0.000000 1.000000 0.000000
vn 0.000000 1.000000 0.000000
vn 0.000000 1.000000 0.000000
vn 0.000000 0.000000 -1.000000
vn 0.000000 0.000000 -1.000000
vn 0.000000 0.000000 -1.000000
vn 0.000000 0.000000 -1.000000
vn 0.000000 -1.000000 0.000000
vn 0.000000 -1.000000 0.000000
vn 0.000000 -1.000000 0.000000
vn 0.000000 -1.000000 0.000000
vn 0.999604 -0.028155 0.000000
vn 0.999604 -0.028155 0.000000
vn 0.999604 -0.028155 0.000000
vn 0.999604 -0.028155 0.000000
vn -0.999603 -0.028166 0.000000
vn -0.999603 -0.028166 0.000000
vn -0.999603 -0.028166 0.000000
vn -0.999603 -0.028166 0.000000
vn 0.000000 0.000000 1.000000
vn 0.000000 0.000000 1.000000
vn 0.000000 0.000000 1.000000
vn 0.000000 0.000000 1.000000
vn 0.000000 1.000000 0.000000
vn 0.000000 1.000000 0.000000
vn 0.000000 1.000000 0.000000
vn 0.000000 1.000000 0.000000
vn 0.000000 0.000000 -1.000000
vn 0.000000 0.000000 -1.000000
vn 0.000000 0.000000 -1.000000
vn 0.000000 0.000000 -1.000000
vn 0.000000 -1.000000 0.000000
vn 0.000000 -1.000000 0.000000
vn 0.000000 -1.000000 0.000000
vn 0.000000 -1.000000 0.000000
vn 1.000000 0.000000 0.000000
vn 1.000000 0.000000 0.000000
vn 1.000000 0.000000 0.000000
vn 1.000000 0.000000 0.000000
vn -1.000000 0.000000 0.000000
vn -1.000000 0.000000 0.000000
vn -1.000000 0.000000 0.000000
vn -1.000000 0.000000 0.000000
vn 0.000000 0.000000 1.000000
vn 0.000000 0.000000 1.000000
vn 0.000000 0.000000 1.000000
vn 0.000000 0.000000 1.000000
vn 0.000000 1.000000 0.000000
vn 0.000000 1.000000 0.000000
vn 0.000000 1.000000 0.000000
vn 0.000000 1.000000 0.000000
vn 0.000000 0.000000 -1.000000
vn 0.000000 0.000000 -1.000000
vn 0.000000 0.000000 -1.000000
vn 0.000000 0.000000 -1.000000
vn 0.000000 -1.000000 0.000000
vn 0.000000 -1.000000 0.000000
vn 0.000000 -1.000000 0.000000
vn 0.000000 -1.000000 0.000000
vn 1.000000 0.000000 0.000000
vn 1.000000 0.000000 0.000000
vn 1.000000 0.000000 0.000000
vn 1.000000 0.000000 0.000000
vn -1.000000 0.000000 0.000000
vn -1.000000 0.000000 0.000000
vn -1.000000 0.000000 0.000000
vn -1.000000 0.000000 0.000000
vn 0.000000 0.000000 1.000000
vn 0.000000 0.000000 1.000000
vn 0.000000 0.000000 1.000000
vn 0.000000 0.000000 1.000000
vn 0.000000 1.000000 0.000000
vn 0.000000 1.000000 0.000000
vn 0.000000 1.000000 0.000000
vn 0.000000 1.000000 0.000000
vn 0.000000 0.000000 -1.000000
vn 0.000000 0.000000 -1.000000
vn 0.000000 0.000000 -1.000000
vn 0.000000 0.000000 -1.000000
vn 0.000000 -1.000000 0.000000
vn 0.000000 -1.000000 0.000000
vn 0.000000 -1.000000 0.000000
vn 0.000000 -1.000000 0.000000
vn 0.749866 -0.661590 0.000000
vn 0.749866 -0.661590 0.000000
vn 0.749866 -0.661590 0.000000
vn 0.749866 -0.661590 0.000000
vn -0.749866 -0.661590 0.000000
vn -0.749866 -0.661590 0.000000
vn -0.749866 -0.661590 0.000000
vn -0.749866 -0.661590 0.000000
vn 0.000000 0.000000 1.000000
vn 0.000000 0.000000 1.000000
vn 0.000000 0.000000 1.000000
vn 0.000000 0.000000 1.000000
vn 0.000000 1.000000 0.000000
vn 0.000000 1.000000 0.000000
vn 0.000000 1.000000 0.000000
vn 0.000000 1.000000 0.000000
vn 0.000000 0.000000 -1.000000
vn 0.000000 0.000000 -1.000000
vn 0.000000 0.000000 -1.000000
vn 0.000000 0.000000 -1.000000
vn 0.000000 -1.000000 0.000000
vn 0.000000 -1.000000 0.000000
vn 0.000000 -1.000000 0.000000
vn 0.000000 -1.000000 0.000000
vn 0.749873 -0.661582 0.000000
vn 0.749873 -0.661582 0.000000
vn 0.749873 -0.661582 0.000000
vn 0.749873 -0.661582 0.000000
vn -0.749880 -0.661574 0.000000
vn -0.749880 -0.661574 0.000000
vn -0.749880 -0.661574 0.000000
vn -0.749880 -0.661574 0.000000
s off
g polySurface8326
f 1/9/1 2/10/2 10/19/3 9/18/4
f 2/10/5 3/11/6 11/20/7 10/19/8
f 3/11/9 4/12/10 12/21/11 11/20/12
f 4/12/13 5/13/14 13/22/15 12/21/16
f 5/13/17 6/14/18 14/23/19 13/22/20
f 6/14/21 7/15/22 15/24/23 14/23/24
f 7/15/25 8/16/26 16/25/27 15/24/28
f 8/16/29 1/17/30 9/26/31 16/25/32
s 9
f 2/2/33 1/1/34 17/35/35
f 3/3/36 2/2/33 17/35/35
f 4/4/37 3/3/36 17/35/35
f 5/5/38 4/4/37 17/35/35
f 6/6/39 5/5/38 17/35/35
f 7/7/40 6/6/39 17/35/35
f 8/8/41 7/7/40 17/35/35
f 1/1/34 8/8/41 17/35/35
s 10
f 9/33/42 10/32/43 18/36/44
f 10/32/43 11/31/45 18/36/44
f 11/31/45 12/30/46 18/36/44
f 12/30/46 13/29/47 18/36/44
f 13/29/47 14/28/48 18/36/44
f 14/28/48 15/27/49 18/36/44
f 15/27/49 16/34/50 18/36/44
f 16/34/50 9/33/42 18/36/44
s off
f 19/37/51 20/38/52 22/39/53 21/40/54
f 21/40/55 22/39/56 24/41/57 23/42/58
f 23/42/59 24/41/60 26/43/61 25/44/62
f 25/44/63 26/43/64 20/45/65 19/46/66
f 20/38/67 26/47/68 24/48/69 22/39/70
f 25/49/71 19/37/72 21/40/73 23/50/74
f 27/51/75 28/52/76 30/53/77 29/54/78
f 29/54/79 30/53/80 32/55/81 31/56/82
f 31/56/83 32/55/84 34/57/85 33/58/86
f 33/58/87 34/57/88 28/59/89 27/60/90
f 28/52/91 34/61/92 32/62/93 30/53/94
f 33/63/95 27/51/96 29/54/97 31/64/98
f 35/65/99 36/66/100 38/67/101 37/68/102
f 37/68/103 38/67/104 40/69/105 39/70/106
f 39/70/107 40/69/108 42/71/109 41/72/110
f 41/72/111 42/71/112 36/73/113 35/74/114
f 36/66/115 42/75/116 40/76/117 38/67/118
f 41/77/119 35/65/120 37/68/121 39/78/122
f 43/79/123 44/80/124 46/81/125 45/82/126
f 45/82/127 46/81/128 48/83/129 47/84/130
f 47/84/131 48/83/132 50/85/133 49/86/134
f 49/86/135 50/85/136 44/87/137 43/88/138
f 44/80/139 50/89/140 48/90/141 46/81/142
f 49/91/143 43/79/144 45/82/145 47/92/146
f 51/93/147 52/94/148 54/95/149 53/96/150
f 53/96/151 54/95/152 56/97/153 55/98/154
f 55/98/155 56/97/156 58/99/157 57/100/158
f 57/100/159 58/99/160 52/101/161 51/102/162
f 52/94/163 58/103/164 56/104/165 54/95/166
f 57/105/167 51/93/168 53/96/169 55/106/170
f 59/107/171 60/108/172 62/109/173 61/110/174
f 61/110/175 62/109/176 64/111/177 63/112/178
f 63/112/179 64/111/180 66/113/181 65/114/182
f 65/114/183 66/113/184 60/115/185 59/116/186
f 60/108/187 66/117/188 64/118/189 62/109/190
f 65/119/191 59/107/192 61/110/193 63/120/194
