# This file uses centimeters as units for non-parametric coordinates.

g default
v -30.910360 1.323223 0.011655
v -30.895983 1.323223 0.011655
v -30.910360 1.662203 0.011655
v -30.895983 1.662203 0.011655
v -30.910360 1.662203 -0.002995
v -30.895983 1.662203 -0.002995
v -30.910360 1.323223 -0.002995
v -30.895983 1.323223 -0.002995
v -30.848196 1.011318 -0.095222
v -30.958151 1.011318 -0.095222
v -31.013126 1.011318 0.000000
v -30.958151 1.011318 0.095222
v -30.848196 1.011318 0.095222
v -30.793221 1.011318 0.000000
v -30.812222 1.190380 -0.157535
v -30.994125 1.190380 -0.157535
v -31.085079 1.190380 0.000000
v -30.994125 1.190380 0.157535
v -30.812222 1.190380 0.157535
v -30.721268 1.190380 0.000000
v -30.848196 1.369442 -0.095222
v -30.958151 1.369442 -0.095222
v -31.013126 1.369442 0.000000
v -30.958151 1.369442 0.095222
v -30.848196 1.369442 0.095222
v -30.793221 1.369442 0.000000
v -30.903173 0.987092 0.000000
v -30.903173 1.393669 0.000000
vt 0.375000 0.000000
vt 0.625000 0.000000
vt 0.375000 0.250000
vt 0.625000 0.250000
vt 0.375000 0.500000
vt 0.625000 0.500000
vt 0.375000 0.750000
vt 0.625000 0.750000
vt 0.375000 1.000000
vt 0.625000 1.000000
vt 0.875000 0.000000
vt 0.875000 0.250000
vt 0.125000 0.000000
vt 0.125000 0.250000
vt 0.000000 0.250000
vt 0.166667 0.250000
vt 0.166667 0.500000
vt 0.000000 0.500000
vt 0.333333 0.250000
vt 0.333333 0.500000
vt 0.500000 0.250000
vt 0.500000 0.500000
vt 0.666667 0.250000
vt 0.666667 0.500000
vt 0.833333 0.250000
vt 0.833333 0.500000
vt 1.000000 0.250000
vt 1.000000 0.500000
vt 0.166667 0.750000
vt 0.000000 0.750000
vt 0.333333 0.750000
vt 0.500000 0.750000
vt 0.666667 0.750000
vt 0.833333 0.750000
vt 1.000000 0.750000
vt 0.083333 0.000000
vt 0.250000 0.000000
vt 0.416667 0.000000
vt 0.583333 0.000000
vt 0.750000 0.000000
vt 0.916667 0.000000
vt 0.083333 1.000000
vt 0.250000 1.000000
vt 0.416667 1.000000
vt 0.583333 1.000000
vt 0.750000 1.000000
vt 0.916667 1.000000
vn 0.000000 0.000000 1.000000
vn 0.000000 0.000000 1.000000
vn 0.000000 0.000000 1.000000
vn 0.000000 0.000000 1.000000
vn 0.000000 1.000000 0.000000
vn 0.000000 1.000000 0.000000
vn 0.000000 1.000000 0.000000
vn 0.000000 1.000000 0.000000
vn 0.000000 0.000000 -1.000000
vn 0.000000 0.000000 -1.000000
vn 0.000000 0.000000 -1.000000
vn 0.000000 0.000000 -1.000000
vn 0.000000 -1.000000 0.000000
vn 0.000000 -1.000000 0.000000
vn 0.000000 -1.000000 0.000000
vn 0.000000 -1.000000 0.000000
vn 1.000000 0.000000 0.000000
vn 1.000000 0.000000 0.000000
vn 1.000000 0.000000 0.000000
vn 1.000000 0.000000 0.000000
vn -1.000000 0.000000 0.000000
vn -1.000000 0.000000 0.000000
vn -1.000000 0.000000 0.000000
vn -1.000000 0.000000 0.000000
vn 0.000000 -0.328664 -0.944447
vn 0.000000 -0.328664 -0.944447
vn 0.000000 -0.328664 -0.944447
vn 0.000000 -0.328664 -0.944447
vn -0.817915 -0.328664 -0.472223
vn -0.817915 -0.328664 -0.472223
vn -0.817915 -0.328664 -0.472223
vn -0.817915 -0.328664 -0.472223
vn -0.817915 -0.328664 0.472223
vn -0.817915 -0.328664 0.472223
vn -0.817915 -0.328664 0.472223
vn -0.817915 -0.328664 0.472223
vn 0.000000 -0.328664 0.944447
vn 0.000000 -0.328664 0.944447
vn 0.000000 -0.328664 0.944447
vn 0.000000 -0.328664 0.944447
vn 0.817913 -0.328672 0.472222
vn 0.817913 -0.328672 0.472222
vn 0.817913 -0.328672 0.472222
vn 0.817913 -0.328672 0.472222
vn 0.817915 -0.328664 -0.472223
vn 0.817915 -0.328664 -0.472223
vn 0.817915 -0.328664 -0.472223
vn 0.817915 -0.328664 -0.472223
vn 0.000000 0.328664 -0.944447
vn 0.000000 0.328664 -0.944447
vn 0.000000 0.328664 -0.944447
vn 0.000000 0.328664 -0.944447
vn -0.817915 0.328664 -0.472224
vn -0.817915 0.328664 -0.472224
vn -0.817915 0.328664 -0.472224
vn -0.817915 0.328664 -0.472224
vn -0.817915 0.328664 0.472224
vn -0.817915 0.328664 0.472224
vn -0.817915 0.328664 0.472224
vn -0.817915 0.328664 0.472224
vn 0.000000 0.328664 0.944447
vn 0.000000 0.328664 0.944447
vn 0.000000 0.328664 0.944447
vn 0.000000 0.328664 0.944447
vn 0.817913 0.328672 0.472222
vn 0.817913 0.328672 0.472222
vn 0.817913 0.328672 0.472222
vn 0.817913 0.328672 0.472222
vn 0.817913 0.328671 -0.472222
vn 0.817913 0.328671 -0.472222
vn 0.817913 0.328671 -0.472222
vn 0.817913 0.328671 -0.472222
vn 0.000000 -0.969128 -0.246559
vn 0.000000 -0.969128 -0.246559
vn 0.000000 -0.969128 -0.246559
vn -0.213532 -0.969126 -0.123281
vn -0.213532 -0.969126 -0.123281
vn -0.213532 -0.969126 -0.123281
vn -0.213533 -0.969126 0.123281
vn -0.213533 -0.969126 0.123281
vn -0.213533 -0.969126 0.123281
vn 0.000000 -0.969128 0.246559
vn 0.000000 -0.969128 0.246559
vn 0.000000 -0.969128 0.246559
vn 0.213542 -0.969123 0.123287
vn 0.213542 -0.969123 0.123287
vn 0.213542 -0.969123 0.123287
vn 0.213542 -0.969124 -0.123286
vn 0.213542 -0.969124 -0.123286
vn 0.213542 -0.969124 -0.123286
vn 0.000000 0.969128 -0.246558
vn 0.000000 0.969128 -0.246558
vn 0.000000 0.969128 -0.246558
vn -0.213533 0.969127 -0.123279
vn -0.213533 0.969127 -0.123279
vn -0.213533 0.969127 -0.123279
vn -0.213533 0.969127 0.123279
vn -0.213533 0.969127 0.123279
vn -0.213533 0.969127 0.123279
vn 0.000000 0.969128 0.246558
vn 0.000000 0.969128 0.246558
vn 0.000000 0.969128 0.246558
vn 0.213542 0.969124 0.123284
vn 0.213542 0.969124 0.123284
vn 0.213542 0.969124 0.123284
vn 0.213542 0.969124 -0.123284
vn 0.213542 0.969124 -0.123284
vn 0.213542 0.969124 -0.123284
s off
g polySurface8328
f 1/1/1 2/2/2 4/4/3 3/3/4
f 3/3/5 4/4/6 6/6/7 5/5/8
f 5/5/9 6/6/10 8/8/11 7/7/12
f 7/7/13 8/8/14 2/10/15 1/9/16
f 2/2/17 8/11/18 6/12/19 4/4/20
f 7/13/21 1/1/22 3/3/23 5/14/24
f 9/15/25 10/16/26 16/17/27 15/18/28
f 10/16/29 11/19/30 17/20/31 16/17/32
f 11/19/33 12/21/34 18/22/35 17/20/36
f 12/21/37 13/23/38 19/24/39 18/22/40
f 13/23/41 14/25/42 20/26/43 19/24/44
f 14/25/45 9/27/46 15/28/47 20/26/48
f 15/18/49 16/17/50 22/29/51 21/30/52
f 16/17/53 17/20/54 23/31/55 22/29/56
f 17/20/57 18/22/58 24/32/59 23/31/60
f 18/22/61 19/24/62 25/33/63 24/32/64
f 19/24/65 20/26/66 26/34/67 25/33/68
f 20/26/69 15/28/70 21/35/71 26/34/72
f 10/16/73 9/15/74 27/36/75
f 11/19/76 10/16/77 27/37/78
f 12/21/79 11/19/80 27/38/81
f 13/23/82 12/21/83 27/39/84
f 14/25/85 13/23/86 27/40/87
f 9/27/88 14/25/89 27/41/90
f 21/30/91 22/29/92 28/42/93
f 22/29/94 23/31/95 28/43/96
f 23/31/97 24/32/98 28/44/99
f 24/32/100 25/33/101 28/45/102
f 25/33/103 26/34/104 28/46/105
f 26/34/106 21/35/107 28/47/108
