# This file uses centimeters as units for non-parametric coordinates.

g default
v -62.084202 0.788519 -0.095007
v -62.084202 0.788519 0.101039
v -62.084202 0.907473 -0.135609
v -62.084202 0.907473 0.141642
v -62.084202 1.026427 -0.095007
v -62.084202 1.026427 0.101039
v -62.185360 1.026427 0.002313
v -62.185360 0.788519 0.002313
v -62.227261 0.907473 0.002022
v -61.983044 1.026427 0.003569
v -61.983044 0.788519 0.003569
v -61.941135 0.907473 0.003798
v -62.081631 1.377278 0.006414
v -62.082409 1.386984 -0.003391
v -62.081631 1.377277 -0.013195
v -62.082409 1.367375 -0.003391
v -63.088741 1.377542 0.006414
v -63.088009 1.387248 -0.003391
v -63.088741 1.377542 -0.013195
v -63.088009 1.367640 -0.003391
v -64.065857 1.426531 0.006414
v -64.065811 1.416729 -0.003391
v -64.065857 1.426531 -0.013195
v -64.065811 1.436338 -0.003391
v -61.092396 1.448426 -0.003391
v -61.092365 1.438618 -0.013195
v -61.092396 1.428817 -0.003391
v -61.092365 1.438619 0.006414
v -59.608261 1.643674 0.006414
v -59.614342 1.632808 -0.003391
v -59.608261 1.643674 -0.013195
v -59.614342 1.652416 -0.003391
v -65.469406 1.601997 0.006414
v -65.463974 1.610829 -0.003391
v -65.469406 1.601996 -0.013195
v -65.463974 1.591220 -0.003391
v -63.078018 1.079121 0.103283
v -63.088844 1.079121 -0.103283
v -63.088844 0.745696 -0.103283
v -63.078018 0.745696 0.103283
v -62.985058 1.079121 -0.002381
v -62.985058 0.745696 -0.002381
v -63.181679 1.079121 0.004812
v -63.181679 0.745696 0.004812
v -62.936172 0.858714 -0.003563
v -63.091534 0.858714 -0.154605
v -63.230495 0.858714 0.007203
v -63.075329 0.858714 0.154605
v -62.936981 0.970407 -0.003544
v -63.091488 0.970407 -0.153760
v -63.229691 0.970407 0.007164
v -63.075375 0.970407 0.153760
v -64.068390 0.843978 -0.095007
v -64.068390 0.843978 0.101039
v -64.068390 0.962932 -0.135609
v -64.068390 0.962932 0.141642
v -64.068390 1.081886 -0.095007
v -64.068390 1.081886 0.101039
v -64.169540 1.081886 0.002313
v -64.169540 0.843978 0.002313
v -64.211441 0.962932 0.002022
v -63.967228 1.081886 0.003569
v -63.967228 0.843978 0.003569
v -63.925323 0.962932 0.003798
v -61.087536 1.153894 0.103283
v -61.098362 1.153894 -0.103283
v -61.098362 0.820469 -0.103283
v -61.087536 0.820469 0.103283
v -60.994572 1.153894 -0.002381
v -60.994572 0.820469 -0.002381
v -61.191196 1.153894 0.004812
v -61.191196 0.820469 0.004812
v -60.945690 0.933487 -0.003563
v -61.101048 0.933487 -0.154605
v -61.240009 0.933487 0.007203
v -61.084843 0.933487 0.154605
v -60.946499 1.045180 -0.003544
v -61.101002 1.045180 -0.153760
v -61.239208 1.045180 0.007164
v -61.084888 1.045180 0.153760
vt 0.253462 0.649720
vt 0.253462 0.770579
vt 0.008022 0.770579
vt 0.008022 0.649720
vt 0.746708 0.649720
vt 0.746709 0.770579
vt 0.501040 0.770579
vt 0.501040 0.649720
vt 0.253462 0.891438
vt 0.008022 0.891438
vt 0.746708 0.891438
vt 0.501040 0.891438
vt 0.994058 0.891438
vt 0.994058 0.649720
vt 0.994058 0.770579
vt 3.646567 0.074066
vt 3.646471 0.104823
vt 1.242195 0.104823
vt 1.240790 0.074066
vt -2.657806 0.104823
vt -2.657890 0.074066
vt -0.216088 0.074066
vt -0.217417 0.104823
vt -0.216088 0.141732
vt -2.657890 0.141732
vt 3.646567 0.141732
vt 1.240790 0.141732
vt -0.217417 0.104823
vt -2.657806 0.104823
vt 3.646471 0.104823
vt 1.242195 0.104823
vt -5.622972 0.104823
vt -5.613787 0.074066
vt -5.622972 0.104823
vt -5.613787 0.141732
vt 6.746913 0.104823
vt 6.736650 0.141732
vt 6.736650 0.074066
vt 6.746913 0.104823
vt 0.743828 0.322761
vt 0.993823 0.322761
vt 0.993824 0.421793
vt 0.743828 0.421793
vt 0.010885 0.322761
vt 0.256102 0.322761
vt 0.256102 0.421793
vt 0.010885 0.421793
vt 0.502354 0.322761
vt 0.502354 0.421793
vt 0.256102 0.120600
vt 0.502354 0.120600
vt 0.502354 0.225004
vt 0.256102 0.225004
vt 0.743828 0.120600
vt 0.993824 0.120600
vt 0.993823 0.225004
vt 0.743828 0.225004
vt 0.010885 0.120600
vt 0.010885 0.225004
vt 0.253462 0.649720
vt 0.253462 0.770579
vt 0.008022 0.770579
vt 0.008022 0.649720
vt 0.746708 0.649720
vt 0.746709 0.770579
vt 0.501040 0.770579
vt 0.501040 0.649720
vt 0.253462 0.891438
vt 0.008022 0.891438
vt 0.746708 0.891438
vt 0.501040 0.891438
vt 0.994058 0.891438
vt 0.994058 0.649720
vt 0.994058 0.770579
vt 0.743828 0.322761
vt 0.993823 0.322761
vt 0.993824 0.421793
vt 0.743828 0.421793
vt 0.010885 0.322761
vt 0.256102 0.322761
vt 0.256102 0.421793
vt 0.010885 0.421793
vt 0.502354 0.322761
vt 0.502354 0.421793
vt 0.256102 0.120600
vt 0.502354 0.120600
vt 0.502354 0.225004
vt 0.256102 0.225004
vt 0.743828 0.120600
vt 0.993824 0.120600
vt 0.993823 0.225004
vt 0.743828 0.225004
vt 0.010885 0.120600
vt 0.010885 0.225004
vt 0.031437 0.000000
vt 1.000000 0.000000
vt 0.969280 0.974829
vt 0.000000 0.974085
vt 0.000000 0.000000
vt 0.952118 0.000000
vt 1.000000 0.954175
vt 0.059659 0.965399
vt 0.031437 0.000000
vt 1.000000 0.000000
vt 0.969280 0.974829
vt 0.000000 0.974085
vt 0.000000 0.000000
vt 0.952118 0.000000
vt 1.000000 0.954175
vt 0.059642 0.965418
vt 0.048655 0.000000
vt 1.000000 0.000000
vt 0.963105 0.965765
vt 0.000000 0.977280
vt 0.000000 0.000000
vt 0.968563 0.000000
vt 1.000000 0.974085
vt 0.030720 0.974829
vt 0.048691 0.000000
vt 1.000000 0.000000
vt 0.963086 0.965745
vt 0.000000 0.977240
vt 0.031061 0.000000
vt 1.000000 0.000000
vt 0.969656 0.963180
vt 0.000000 0.962444
vn -0.943189 -0.332242 -0.003187
vn -0.999994 -0.000008 -0.003377
vn 0.003366 -0.000008 -0.999994
vn 0.003184 -0.323052 -0.946376
vn 0.943177 -0.332282 0.002508
vn 0.999996 -0.000016 0.002659
vn -0.003382 -0.000016 0.999994
vn -0.003201 -0.323038 0.946381
vn -0.943194 0.332228 -0.003184
vn 0.003186 0.323038 -0.946381
vn 0.943187 0.332254 0.002508
vn -0.003201 0.323010 0.946390
vn 0.099414 -0.995046 -0.000021
vn -0.000411 0.003292 0.999995
vn -0.000035 0.003074 0.999995
vn 0.030916 -0.999522 -0.000021
vn 0.000486 0.004326 0.999991
vn -0.087039 -0.996205 -0.000020
vn -0.025245 -0.999681 -0.000020
vn 0.000037 0.003223 0.999995
vn 0.025156 0.999683 -0.000029
vn 0.087252 0.996186 -0.000030
vn -0.099575 0.995030 -0.000026
vn -0.030796 0.999526 -0.000026
vn 0.000036 0.003215 -0.999995
vn 0.000486 0.004316 -0.999991
vn -0.000411 0.003286 -0.999995
vn -0.000034 0.003069 -0.999995
vn 0.000902 0.007222 0.999974
vn -0.123945 -0.992289 -0.000021
vn 0.000901 0.007213 -0.999974
vn 0.123945 0.992289 -0.000029
vn -0.000752 0.005447 -0.999985
vn -0.136793 0.990600 -0.000027
vn 0.136793 -0.990600 -0.000021
vn -0.000753 0.005453 0.999985
vn 0.975991 0.214353 -0.038654
vn -0.043416 0.224835 -0.973429
vn -0.040043 0.421582 -0.905906
vn 0.913803 0.404490 -0.036775
vn -0.975510 0.214288 0.049604
vn -0.913395 0.404409 0.046518
vn 0.043234 0.224704 0.973467
vn 0.039878 0.421576 0.905916
vn -0.916653 -0.396949 0.046677
vn 0.040061 -0.413938 0.909423
vn 0.043364 -0.213081 0.976072
vn -0.977882 -0.203161 0.049722
vn 0.917061 -0.397039 -0.036862
vn -0.040234 -0.413927 -0.909421
vn -0.043550 -0.213188 -0.976040
vn 0.978372 -0.203196 -0.038726
vn -0.943199 -0.332213 -0.003192
vn -0.999994 0.000008 -0.003386
vn 0.003347 -0.000008 -0.999994
vn 0.003167 -0.323003 -0.946393
vn 0.943192 -0.332240 0.002505
vn 0.999996 -0.000008 0.002655
vn -0.003397 0.000008 0.999994
vn -0.003216 -0.323031 0.946383
vn -0.943194 0.332228 -0.003195
vn 0.003169 0.322989 -0.946397
vn 0.943197 0.332226 0.002503
vn -0.003214 0.323045 0.946378
vn 0.975991 0.214355 -0.038651
vn -0.043413 0.224822 -0.973432
vn -0.040047 0.421597 -0.905899
vn 0.913793 0.404513 -0.036769
vn -0.975513 0.214278 0.049602
vn -0.913392 0.404414 0.046513
vn 0.043242 0.224708 0.973466
vn 0.039884 0.421586 0.905911
vn -0.916671 -0.396908 0.046682
vn 0.040054 -0.413909 0.909437
vn 0.043365 -0.213067 0.976075
vn -0.977884 -0.203152 0.049723
vn 0.917059 -0.397044 -0.036861
vn -0.040239 -0.413919 -0.909424
vn -0.043548 -0.213206 -0.976036
vn 0.978370 -0.203207 -0.038726
vn 0.000000 1.000000 0.000000
vn 0.000000 1.000000 0.000000
vn 0.000000 1.000000 0.000000
vn 0.000000 1.000000 0.000000
vn 0.000000 1.000000 0.000000
vn 0.000000 1.000000 0.000000
vn 0.000000 1.000000 0.000000
vn 0.000000 1.000000 0.000000
vn 0.000000 1.000000 0.000000
vn 0.000000 1.000000 0.000000
vn 0.000000 1.000000 0.000000
vn 0.000000 1.000000 0.000000
vn 0.000000 1.000000 0.000000
vn 0.000000 1.000000 0.000000
vn 0.000000 1.000000 0.000000
vn 0.000000 1.000000 0.000000
vn 0.000000 -1.000000 0.000000
vn 0.000000 -1.000000 0.000000
vn 0.000000 -1.000000 0.000000
vn 0.000000 -1.000000 0.000000
vn 0.000000 -1.000000 0.000000
vn 0.000000 -1.000000 0.000000
vn 0.000000 -1.000000 0.000000
vn 0.000000 -1.000000 0.000000
vn 0.000000 -1.000000 -0.000000
vn 0.000000 -1.000000 -0.000000
vn 0.000000 -1.000000 -0.000000
vn 0.000000 -1.000000 -0.000000
vn 0.000000 -1.000000 0.000000
vn 0.000000 -1.000000 0.000000
vn 0.000000 -1.000000 0.000000
vn 0.000000 -1.000000 0.000000
s 1
g polySurface19533
f 8/1/1 9/2/2 3/3/3 1/4/4
f 11/5/5 12/6/6 4/7/7 2/8/8
f 9/2/2 7/9/9 5/10/10 3/3/3
f 12/6/6 10/11/11 6/12/12 4/7/7
f 2/8/8 4/7/7 9/2/2 8/1/1
f 4/7/7 6/12/12 7/9/9 9/2/2
f 1/14/4 3/15/3 12/6/6 11/5/5
f 3/15/3 5/13/10 10/11/11 12/6/6
s 2
f 27/16/13 28/17/14 13/18/15 16/19/16
f 21/20/17 22/21/18 20/22/19 17/23/20
f 18/24/21 24/25/22 21/20/17 17/23/20
f 13/18/15 28/17/14 25/26/23 14/27/24
f 19/28/25 23/29/26 24/25/22 18/24/21
f 25/26/23 26/30/27 15/31/28 14/27/24
f 20/22/19 22/21/18 23/29/26 19/28/25
f 26/30/27 27/16/13 16/19/16 15/31/28
f 18/24/21 17/23/20 13/18/15 14/27/24
f 15/31/28 19/28/25 18/24/21 14/27/24
f 16/19/16 20/22/19 19/28/25 15/31/28
f 13/18/15 17/23/20 20/22/19 16/19/16
f 22/21/18 21/20/17 33/32/29 36/33/30
f 23/29/26 22/21/18 36/33/30 35/34/31
f 24/25/22 23/29/26 35/34/31 34/35/32
f 21/20/17 24/25/22 34/35/32 33/32/29
f 31/36/33 26/30/27 25/26/23 32/37/34
f 30/38/35 27/16/13 26/30/27 31/36/33
f 28/17/14 27/16/13 30/38/35 29/39/36
f 25/26/23 28/17/14 29/39/36 32/37/34
s 3
f 49/40/37 50/41/38 38/42/39 41/43/40
f 50/44/38 51/45/41 43/46/42 38/47/39
f 51/45/41 52/48/43 37/49/44 43/46/42
f 49/40/37 41/43/40 37/49/44 52/48/43
f 44/50/45 40/51/46 48/52/47 47/53/48
f 42/54/49 39/55/50 46/56/51 45/57/52
f 40/51/46 42/54/49 45/57/52 48/52/47
f 39/58/50 44/50/45 47/53/48 46/59/51
f 48/52/47 45/57/52 49/40/37 52/48/43
f 45/57/52 46/56/51 50/41/38 49/40/37
f 46/59/51 47/53/48 51/45/41 50/44/38
f 47/53/48 48/52/47 52/48/43 51/45/41
s 4
f 60/60/53 61/61/54 55/62/55 53/63/56
f 63/64/57 64/65/58 56/66/59 54/67/60
f 61/61/54 59/68/61 57/69/62 55/62/55
f 64/65/58 62/70/63 58/71/64 56/66/59
f 54/67/60 56/66/59 61/61/54 60/60/53
f 56/66/59 58/71/64 59/68/61 61/61/54
f 53/73/56 55/74/55 64/65/58 63/64/57
f 55/74/55 57/72/62 62/70/63 64/65/58
s 5
f 77/75/65 78/76/66 66/77/67 69/78/68
f 78/79/66 79/80/69 71/81/70 66/82/67
f 79/80/69 80/83/71 65/84/72 71/81/70
f 77/75/65 69/78/68 65/84/72 80/83/71
f 72/85/73 68/86/74 76/87/75 75/88/76
f 70/89/77 67/90/78 74/91/79 73/92/80
f 68/86/74 70/89/77 73/92/80 76/87/75
f 67/93/78 72/85/73 75/88/76 74/94/79
f 76/87/75 73/92/80 77/75/65 80/83/71
f 73/92/80 74/91/79 78/76/66 77/75/65
f 74/94/79 75/88/76 79/80/69 78/79/66
f 75/88/76 76/87/75 80/83/71 79/80/69
s off
f 57/95/81 59/96/82 58/97/83 62/98/84
f 38/99/85 43/100/86 37/101/87 41/102/88
f 5/103/89 7/104/90 6/105/91 10/106/92
f 66/107/93 71/108/94 65/109/95 69/110/96
f 70/111/97 68/112/98 72/113/99 67/114/100
f 8/115/101 1/116/102 11/117/103 2/118/104
f 42/119/105 40/120/106 44/121/107 39/122/108
f 53/123/109 63/124/110 54/125/111 60/126/112
