# This file uses centimeters as units for non-parametric coordinates.

g default
v -29.062227 1.552460 0.176530
v -29.019325 1.552460 0.176530
v -29.062227 1.589346 0.176530
v -29.019325 1.589346 0.176530
v -29.062227 1.589346 -0.203011
v -29.019325 1.589346 -0.203011
v -29.062227 1.552460 -0.203011
v -29.019325 1.552460 -0.203011
v -29.041124 1.535509 0.198842
v -29.079836 1.562597 0.198842
v -29.085617 1.580917 0.198842
v -29.077908 1.596906 0.198842
v -29.053272 1.591662 0.198842
v -29.052643 1.634972 0.198842
v -29.077908 1.640974 0.198842
v -29.244675 1.547686 0.198842
v -29.275984 1.538909 0.198842
v -29.314234 1.547501 0.198842
v -29.325535 1.570411 0.198842
v -29.247400 1.597616 0.198842
v -29.041124 1.706146 0.198842
v -29.073217 1.690635 0.198842
v -29.247400 1.597616 0.171378
v -29.314234 1.547501 0.171378
v -29.325535 1.570411 0.171378
v -29.244675 1.547686 0.171378
v -29.275984 1.538909 0.171378
v -29.077908 1.596906 0.171378
v -29.079836 1.562597 0.171378
v -29.085617 1.580917 0.171378
v -29.077908 1.640974 0.171378
v -29.073217 1.690635 0.171378
v -29.052643 1.634972 0.171378
v -29.041124 1.706146 0.171378
v -29.053272 1.591662 0.171378
v -29.041124 1.535509 0.171378
v -28.834846 1.597616 0.171378
v -28.768011 1.547501 0.171378
v -28.756710 1.570411 0.171378
v -28.837568 1.547686 0.171378
v -28.806263 1.538909 0.171378
v -29.004337 1.596906 0.171378
v -29.002409 1.562597 0.171378
v -28.996626 1.580917 0.171378
v -29.009027 1.690635 0.171378
v -29.004337 1.640974 0.171378
v -29.029604 1.634972 0.171378
v -29.028975 1.591662 0.171378
v -28.834846 1.597616 0.198842
v -28.756710 1.570411 0.198842
v -28.768011 1.547501 0.198842
v -28.806263 1.538909 0.198842
v -28.837568 1.547686 0.198842
v -29.004337 1.596906 0.198842
v -28.996626 1.580917 0.198842
v -29.002409 1.562597 0.198842
v -29.009027 1.690635 0.198842
v -29.004337 1.640974 0.198842
v -29.029604 1.634972 0.198842
v -29.028975 1.591662 0.198842
v -29.041122 1.700710 0.218360
v -29.041124 1.716461 0.218360
v -29.041122 1.700710 -0.238566
v -29.041124 1.716461 -0.238566
v -28.829479 1.606207 -0.238566
v -28.833950 1.591889 -0.238566
v -28.754103 1.564683 -0.238566
v -28.737585 1.573275 -0.238566
v -28.829479 1.606207 0.218360
v -28.737585 1.573275 0.218360
v -28.754103 1.564683 0.218360
v -28.833950 1.591889 0.218360
v -29.252766 1.606207 -0.238566
v -29.344660 1.573275 -0.238566
v -29.328142 1.564683 -0.238566
v -29.248293 1.591889 -0.238566
v -29.252766 1.606207 0.218360
v -29.248293 1.591889 0.218360
v -29.328142 1.564683 0.218360
v -29.344660 1.573275 0.218360
v -29.072716 0.318056 -0.125262
v -29.008101 0.318056 -0.125262
v -29.072716 0.382673 -0.125262
v -29.008101 0.382673 -0.125262
v -29.072716 0.382673 -0.189880
v -29.008101 0.382673 -0.189880
v -29.072716 0.318056 -0.189880
v -29.008101 0.318056 -0.189880
v -29.072716 0.318056 0.238566
v -29.008101 0.318056 0.238566
v -29.008101 0.382673 0.191700
v -29.072716 0.382673 0.191700
v -28.651077 0.318056 -0.189880
v -28.651077 0.318056 -0.125262
v -28.691135 0.382673 -0.189880
v -28.691135 0.382673 -0.125262
v -29.429739 0.318056 -0.189880
v -29.429739 0.318056 -0.125262
v -29.389679 0.382673 -0.125262
v -29.389679 0.382673 -0.189880
v -29.072716 1.647604 -0.125262
v -29.008101 1.647604 -0.125262
v -29.008101 1.647604 -0.189880
v -29.072716 1.647604 -0.189880
v -29.065495 1.134815 0.129313
v -29.016277 1.134815 0.129313
v -29.065495 1.162183 0.166295
v -29.016277 1.162183 0.166295
v -29.065495 1.162183 -0.126106
v -29.016277 1.162183 -0.126106
v -29.065495 1.134815 -0.126106
v -29.016277 1.134815 -0.126106
v -29.065495 1.134815 -0.105130
v -29.065495 1.162183 -0.105118
v -29.016277 1.162183 -0.105118
v -29.016277 1.134815 -0.105130
v -29.065495 0.814648 -0.126106
v -29.016277 0.814648 -0.126106
v -29.016277 0.852907 -0.105130
v -29.065495 0.852907 -0.105130
v -29.022215 0.916706 -0.109172
v -29.022215 0.947431 -0.100591
v -29.022215 1.127995 0.039214
v -29.022215 1.137262 0.072791
v -29.022215 1.126922 0.098494
v -29.022215 1.095901 0.096317
v -29.022215 1.081837 0.068065
v -29.022215 1.097877 0.051518
v -29.022215 0.940337 -0.072938
v -29.022215 0.915131 -0.058759
v -29.022215 0.890517 -0.068317
v -29.022215 0.886678 -0.097457
v -29.059755 1.097877 0.051518
v -29.059755 1.127995 0.039214
v -29.059755 1.137262 0.072791
v -29.059755 1.081837 0.068065
v -29.059755 0.940337 -0.072938
v -29.059755 0.947431 -0.100591
v -29.059755 0.916706 -0.109172
v -29.059755 0.915131 -0.058759
v -29.059755 0.890517 -0.068317
v -29.059755 0.886678 -0.097457
v -29.059755 1.095901 0.096317
v -29.059755 1.126922 0.098494
v -29.059755 1.036900 -0.023828
v -29.059755 1.054674 -0.045759
v -29.022215 1.054674 -0.045759
v -29.022215 1.036900 -0.023828
v -29.059755 1.072980 0.011247
v -29.059755 1.094798 -0.006363
v -29.022215 1.094798 -0.006363
v -29.022215 1.072980 0.011247
v -29.059755 0.992602 -0.051257
v -29.059755 1.005923 -0.075560
v -29.022215 1.005923 -0.075560
v -29.022215 0.992602 -0.051257
v -29.041124 1.535509 -0.193530
v -29.079836 1.562597 -0.193530
v -29.085617 1.580917 -0.193530
v -29.077908 1.596906 -0.193530
v -29.053272 1.591662 -0.193530
v -29.052643 1.634972 -0.193530
v -29.077908 1.640974 -0.193530
v -29.244675 1.547686 -0.193530
v -29.275984 1.538909 -0.193530
v -29.314234 1.547501 -0.193530
v -29.325535 1.570411 -0.193530
v -29.247400 1.597616 -0.193530
v -29.041124 1.706146 -0.193530
v -29.073217 1.690635 -0.193530
v -29.247400 1.597616 -0.220994
v -29.314234 1.547501 -0.220994
v -29.325535 1.570411 -0.220994
v -29.244675 1.547686 -0.220994
v -29.275984 1.538909 -0.220994
v -29.077908 1.596906 -0.220994
v -29.079836 1.562597 -0.220994
v -29.085617 1.580917 -0.220994
v -29.077908 1.640974 -0.220994
v -29.073217 1.690635 -0.220994
v -29.052643 1.634972 -0.220994
v -29.041124 1.706146 -0.220994
v -29.053272 1.591662 -0.220994
v -29.041124 1.535509 -0.220994
v -28.834846 1.597616 -0.220994
v -28.768011 1.547501 -0.220994
v -28.756710 1.570411 -0.220994
v -28.837568 1.547686 -0.220994
v -28.806263 1.538909 -0.220994
v -29.004337 1.596906 -0.220994
v -29.002409 1.562597 -0.220994
v -28.996626 1.580917 -0.220994
v -29.009027 1.690635 -0.220994
v -29.004337 1.640974 -0.220994
v -29.029604 1.634972 -0.220994
v -29.028975 1.591662 -0.220994
v -28.834846 1.597616 -0.193530
v -28.756710 1.570411 -0.193530
v -28.768011 1.547501 -0.193530
v -28.806263 1.538909 -0.193530
v -28.837568 1.547686 -0.193530
v -29.004337 1.596906 -0.193530
v -28.996626 1.580917 -0.193530
v -29.002409 1.562597 -0.193530
v -29.009027 1.690635 -0.193530
v -29.004337 1.640974 -0.193530
v -29.029604 1.634972 -0.193530
v -29.028975 1.591662 -0.193530
v -28.948662 1.193859 -0.004277
v -28.988205 1.193859 -0.043823
v -29.042227 1.193859 -0.058298
v -29.096249 1.193859 -0.043823
v -29.135796 1.193859 -0.004277
v -29.150270 1.193859 0.049744
v -29.135796 1.193859 0.103765
v -29.096249 1.193859 0.143312
v -29.042227 1.193859 0.157787
v -28.988205 1.193859 0.143312
v -28.948662 1.193859 0.103765
v -28.934185 1.193859 0.049744
v -28.919975 1.248436 -0.020838
v -28.971645 1.248436 -0.072508
v -29.042227 1.248436 -0.091420
v -29.112810 1.248436 -0.072508
v -29.164480 1.248436 -0.020838
v -29.183392 1.248436 0.049744
v -29.164480 1.248436 0.120327
v -29.112810 1.248436 0.171996
v -29.042227 1.248436 0.190908
v -28.971645 1.248436 0.171996
v -28.919975 1.248436 0.120327
v -28.901062 1.248436 0.049744
v -28.909904 1.312813 -0.026653
v -28.965832 1.312813 -0.082580
v -29.042227 1.312813 -0.103051
v -29.118626 1.312813 -0.082580
v -29.174553 1.312813 -0.026653
v -29.195023 1.312813 0.049744
v -29.174553 1.312813 0.126142
v -29.118626 1.312813 0.182069
v -29.042227 1.312813 0.202539
v -28.965832 1.312813 0.182069
v -28.909904 1.312813 0.126142
v -28.889433 1.312813 0.049744
v -28.919975 1.377191 -0.020838
v -28.971645 1.377191 -0.072508
v -29.042227 1.377191 -0.091420
v -29.112810 1.377191 -0.072508
v -29.164480 1.377191 -0.020838
v -29.183392 1.377191 0.049744
v -29.164480 1.377191 0.120327
v -29.112810 1.377191 0.171996
v -29.042227 1.377191 0.190908
v -28.971645 1.377191 0.171996
v -28.919975 1.377191 0.120327
v -28.901062 1.377191 0.049744
v -28.948662 1.431768 -0.004277
v -28.988205 1.431768 -0.043823
v -29.042227 1.431768 -0.058298
v -29.096249 1.431768 -0.043823
v -29.135796 1.431768 -0.004277
v -29.150270 1.431768 0.049744
v -29.135796 1.431768 0.103765
v -29.096249 1.431768 0.143312
v -29.042227 1.431768 0.157787
v -28.988205 1.431768 0.143312
v -28.948662 1.431768 0.103765
v -28.934185 1.431768 0.049744
v -28.954592 1.198897 -0.000853
v -28.991632 1.198897 -0.037892
v -28.975563 1.251890 -0.065723
v -28.926762 1.251890 -0.016921
v -29.042227 1.198897 -0.051450
v -29.042227 1.251890 -0.083586
v -29.092825 1.198898 -0.037892
v -29.108892 1.251890 -0.065723
v -29.129866 1.198898 -0.000852
v -29.157696 1.251890 -0.016921
v -29.143421 1.198898 0.049745
v -29.175560 1.251890 0.049744
v -29.129866 1.198898 0.100341
v -29.157696 1.251890 0.116409
v -29.092825 1.198898 0.137381
v -29.108892 1.251890 0.165212
v -29.042227 1.198898 0.150938
v -29.042227 1.251890 0.183074
v -28.991632 1.198897 0.137381
v -28.975563 1.251890 0.165212
v -28.954592 1.198897 0.100341
v -28.926762 1.251890 0.116409
v -28.941034 1.198897 0.049744
v -28.908899 1.251890 0.049744
v -28.970051 1.312813 -0.075272
v -28.917212 1.312813 -0.022434
v -29.042227 1.312813 -0.094612
v -29.114407 1.312813 -0.075272
v -29.167246 1.312813 -0.022434
v -29.186583 1.312813 0.049744
v -29.167246 1.312813 0.121922
v -29.114407 1.312813 0.174760
v -29.042227 1.312813 0.194100
v -28.970051 1.312813 0.174760
v -28.917212 1.312813 0.121922
v -28.897871 1.312813 0.049744
v -28.975563 1.373737 -0.065723
v -28.926762 1.373737 -0.016921
v -29.042227 1.373737 -0.083586
v -29.108892 1.373737 -0.065723
v -29.157696 1.373737 -0.016921
v -29.175560 1.373737 0.049744
v -29.157696 1.373737 0.116409
v -29.108892 1.373737 0.165212
v -29.042227 1.373737 0.183074
v -28.975563 1.373737 0.165212
v -28.926762 1.373737 0.116409
v -28.908899 1.373737 0.049744
v -28.991632 1.426730 -0.037892
v -28.954592 1.426730 -0.000852
v -29.042227 1.426730 -0.051450
v -29.092825 1.426730 -0.037892
v -29.129866 1.426730 -0.000852
v -29.143421 1.426730 0.049745
v -29.129866 1.426730 0.100341
v -29.092825 1.426730 0.137381
v -29.042227 1.426730 0.150938
v -28.991632 1.426730 0.137381
v -28.954592 1.426730 0.100341
v -28.941034 1.426730 0.049745
v -28.953503 1.432600 -0.001481
v -28.991003 1.432600 -0.038980
v -29.042227 1.432600 -0.052706
v -29.093452 1.432600 -0.038980
v -29.130955 1.432600 -0.001481
v -29.144680 1.432600 0.049745
v -29.130955 1.432600 0.100970
v -29.093452 1.432600 0.138469
v -29.042227 1.432600 0.152195
v -28.991005 1.432600 0.138470
v -28.953503 1.432600 0.100970
v -28.939777 1.432600 0.049745
v -28.939714 1.192981 0.049744
v -28.953449 1.192981 0.101001
v -28.990971 1.192981 0.138524
v -29.042227 1.192981 0.152257
v -29.093483 1.192981 0.138524
v -29.131006 1.192981 0.101001
v -29.144741 1.192981 0.049745
v -29.131006 1.192981 -0.001512
v -29.093483 1.192981 -0.039035
v -29.042227 1.192981 -0.052768
v -28.990971 1.192981 -0.039035
v -28.953449 1.192981 -0.001512
v -29.036839 1.514856 0.050269
v -29.046696 1.514853 0.050276
v -29.041899 1.528367 0.046696
v -29.046238 1.526395 0.045508
v -29.041904 1.527755 0.053212
v -29.039074 1.526533 0.046516
v -29.041813 1.490329 0.048840
v -29.046329 1.498396 0.049445
v -29.037209 1.498396 0.049445
v -29.037209 1.501106 0.046914
v -29.046329 1.501106 0.046914
v -29.041813 1.499567 0.041173
v -29.041813 1.500319 0.057258
v -29.046329 1.501787 0.052683
v -29.037209 1.501787 0.052683
v -29.038980 1.569344 0.046396
v -29.041883 1.570313 0.052881
v -29.045967 1.569234 0.045595
v -28.920963 1.428449 0.052803
v -28.924807 1.433712 0.050004
v -28.920963 1.428449 0.046458
v -28.939583 1.423489 0.050004
v -28.939583 1.416834 0.046458
v -28.954533 1.433159 0.050004
v -28.959345 1.428214 0.044606
v -29.021887 1.497765 0.049994
v -29.026943 1.492616 0.045714
v -29.041769 1.512214 0.050075
v -29.041769 1.503036 0.044385
v -29.061897 1.498007 0.050031
v -29.056358 1.492381 0.045351
v -29.130581 1.433928 0.050071
v -29.124004 1.429041 0.044989
v -29.144249 1.425574 0.050171
v -29.143820 1.415371 0.044940
v -29.158638 1.435821 0.050091
v -29.164057 1.428377 0.044953
v -29.164101 1.428324 0.054260
v -29.143820 1.415324 0.054274
v -29.123947 1.428977 0.054218
v -29.056313 1.492318 0.053856
v -29.041769 1.502918 0.054848
v -29.026987 1.492558 0.053493
v -28.959406 1.428145 0.054602
v -28.939716 1.415323 0.054273
vt 0.014900 0.445376
vt 0.014911 0.202592
vt 0.014911 0.278134
vt 0.014900 0.369741
vt 0.993718 0.278180
vt 0.993707 0.369788
vt 0.993707 0.445329
vt 0.993707 0.110939
vt 0.993718 0.202546
vt 0.014900 0.110985
vt 0.148215 0.150887
vt 0.034235 0.059315
vt 0.014961 0.101177
vt 0.152857 0.059654
vt 0.099468 0.043617
vt 0.445265 0.320854
vt 0.437265 0.230111
vt 0.437265 0.149589
vt 0.433978 0.086900
vt 0.424116 0.120374
vt 0.500000 0.349197
vt 0.480353 0.219146
vt 0.500000 0.037402
vt 0.479280 0.140009
vt 0.520721 0.140009
vt 0.148215 0.150887
vt 0.014961 0.101177
vt 0.034235 0.059315
vt 0.099468 0.043617
vt 0.152857 0.059654
vt 0.437265 0.149589
vt 0.424116 0.120374
vt 0.433978 0.086900
vt 0.437265 0.230111
vt 0.445265 0.320854
vt 0.500000 0.349197
vt 0.480353 0.219146
vt 0.500000 0.037402
vt 0.479280 0.140009
vt 0.103581 0.252197
vt 0.103581 0.300615
vt 0.180357 0.300615
vt 0.180357 0.252197
vt 0.728833 0.537633
vt 0.728833 0.395542
vt 0.790379 0.395542
vt 0.790379 0.537633
vt 0.728833 0.390593
vt 0.728833 0.447522
vt 0.790379 0.447522
vt 0.790379 0.390593
vt 0.728833 0.517081
vt 0.790379 0.517081
vt 0.728833 0.078794
vt 0.790379 0.078794
vt 0.103581 0.284102
vt 0.103581 0.322819
vt 0.180357 0.322819
vt 0.180357 0.284102
vt 0.103581 0.356609
vt 0.180357 0.356609
vt 0.790379 0.087324
vt 0.728833 0.087324
vt 0.728833 0.041378
vt 0.790379 0.041378
vt 0.728833 0.010057
vt 0.790379 0.010057
vt 0.103581 0.345528
vt 0.103581 0.437058
vt 0.180357 0.437058
vt 0.180357 0.345528
vt 0.728833 0.010057
vt 0.728833 0.090829
vt 0.790379 0.090829
vt 0.790379 0.010057
vt 0.728833 0.087324
vt 0.728833 0.042524
vt 0.790379 0.042524
vt 0.790379 0.087324
vt 0.851785 0.150887
vt 0.985039 0.101177
vt 0.965766 0.059315
vt 0.900532 0.043617
vt 0.847143 0.059654
vt 0.562735 0.149589
vt 0.575884 0.120374
vt 0.566022 0.086900
vt 0.562735 0.230111
vt 0.554735 0.320854
vt 0.519647 0.219146
vt 0.851785 0.150887
vt 0.965766 0.059315
vt 0.985039 0.101177
vt 0.847143 0.059654
vt 0.900532 0.043617
vt 0.554735 0.320854
vt 0.562735 0.230111
vt 0.562735 0.149589
vt 0.566022 0.086900
vt 0.575884 0.120374
vt 0.519647 0.219146
vt 0.520721 0.140009
vt 0.103581 0.252197
vt 0.180357 0.252197
vt 0.180357 0.300615
vt 0.103581 0.300615
vt 0.728833 0.527261
vt 0.790379 0.527261
vt 0.790379 0.385170
vt 0.728833 0.385170
vt 0.728833 0.380221
vt 0.790379 0.380221
vt 0.790379 0.437150
vt 0.728833 0.437150
vt 0.790379 0.506709
vt 0.728833 0.506709
vt 0.790379 0.076951
vt 0.728833 0.076951
vt 0.103581 0.284102
vt 0.180357 0.284102
vt 0.180357 0.322819
vt 0.103581 0.322819
vt 0.180357 0.356609
vt 0.103581 0.356609
vt 0.790379 0.068422
vt 0.728833 0.068422
vt 0.728833 0.031006
vt 0.790379 0.031006
vt 0.103581 0.345528
vt 0.180357 0.345528
vt 0.180357 0.437058
vt 0.103581 0.437058
vt 0.790379 0.080457
vt 0.728833 0.080457
vt 0.728833 0.076951
vt 0.790379 0.076951
vt 0.790379 0.032151
vt 0.728833 0.032151
vt 0.767694 0.167570
vt 0.750717 0.015012
vt 0.772158 0.036333
vt 0.788698 0.168302
vt 0.783155 0.526771
vt 0.763195 0.533393
vt 0.236865 0.167570
vt 0.215861 0.168302
vt 0.232402 0.036333
vt 0.253842 0.015012
vt 0.241364 0.533393
vt 0.221404 0.526771
vt 0.757992 0.370537
vt 0.242008 0.370537
vt 0.242008 0.506273
vt 0.757992 0.506273
vt 0.242008 0.534351
vt 0.757992 0.534351
vt 0.242008 0.378140
vt 0.757992 0.378140
vt 0.242008 0.018368
vt 0.757992 0.018367
vt 0.242008 0.018367
vt 0.757992 0.018367
vt 0.767694 0.167570
vt 0.788698 0.168302
vt 0.772158 0.036333
vt 0.750717 0.015012
vt 0.783155 0.526771
vt 0.763195 0.533393
vt 0.236865 0.167570
vt 0.253842 0.015012
vt 0.232402 0.036333
vt 0.215861 0.168302
vt 0.221404 0.526771
vt 0.241364 0.533393
vt 0.757992 0.370537
vt 0.757992 0.506273
vt 0.242008 0.506273
vt 0.242008 0.370537
vt 0.757992 0.534351
vt 0.242008 0.534351
vt 0.757992 0.378140
vt 0.242008 0.378140
vt 0.757992 0.018367
vt 0.242008 0.018368
vt 0.242008 0.018367
vt 0.757992 0.018367
vt 0.375000 0.028674
vt 0.625000 0.028674
vt 0.625000 0.221326
vt 0.375000 0.221326
vt 0.669229 0.203458
vt 0.669229 0.330160
vt 0.542526 0.330160
vt 0.542526 0.203458
vt -0.633130 0.075327
vt -0.633130 0.172586
vt -0.554385 0.172586
vt -0.554385 0.075327
vt 0.415824 0.203458
vt 0.415824 0.330160
vt 0.289121 0.330160
vt 0.289121 0.203458
vt 0.625000 0.028674
vt 0.875000 0.028674
vt 0.875000 0.221326
vt 0.625000 0.221326
vt 0.125000 0.028674
vt 0.375000 0.028674
vt 0.375000 0.221326
vt 0.125000 0.221326
vt 0.099128 0.531238
vt 0.099114 0.401150
vt 0.900872 0.401103
vt 0.900886 0.531192
vt 0.099114 0.271015
vt 0.797594 0.271056
vt 0.099128 0.140927
vt 0.797609 0.140968
vt 0.099128 0.010885
vt 0.900886 0.010839
vt -0.554219 0.173612
vt -0.554219 0.075583
vt 1.558325 0.075583
vt 1.558325 0.173612
vt -0.554219 0.467697
vt -0.554219 0.369669
vt 1.558325 0.369669
vt 1.558325 0.467698
vt 0.437351 0.404960
vt 0.437364 0.531912
vt -0.254853 0.531957
vt -0.254866 0.405005
vt 0.437364 0.024105
vt 0.437364 0.151048
vt -0.177186 0.151009
vt -0.254853 0.024149
vt 0.437351 0.278000
vt -0.177198 0.277961
vt 0.562649 0.531904
vt 0.562636 0.404952
vt 1.254853 0.404908
vt 1.254866 0.531859
vt 0.562636 0.278008
vt 1.177186 0.278048
vt 0.562649 0.151057
vt 1.177199 0.151096
vt 0.562649 0.024096
vt 1.254866 0.024052
vt -0.554219 0.271640
vt 1.558325 0.271640
vt 0.377602 0.164090
vt 0.377602 0.273354
vt 0.268338 0.273354
vt 0.268338 0.164090
vt 0.487818 0.103151
vt 0.487811 0.211966
vt 0.459147 0.211964
vt 0.459154 0.103149
vt 0.459147 0.263925
vt 0.459154 0.372740
vt 0.532095 0.339451
vt 0.532095 0.426011
vt 0.467905 0.426011
vt 0.467905 0.339451
vt 0.487794 0.263924
vt 0.487801 0.372738
vt 0.487818 0.424652
vt 0.459154 0.424650
vt 0.807975 0.372718
vt 0.858481 0.424676
vt 0.858481 0.103175
vt 0.858474 0.211989
vt 0.807968 0.263903
vt 0.993659 0.117479
vt 0.993659 0.241612
vt 0.154232 0.241612
vt 0.154232 0.117479
vt 0.993659 0.284432
vt 0.254541 0.284432
vt 0.993659 0.408565
vt 0.254541 0.408565
vt 0.993659 0.451385
vt 0.154232 0.451385
vt 0.825514 0.251093
vt 0.933834 0.301864
vt 0.940157 0.142506
vt 0.830804 0.158503
vt 0.694362 0.161909
vt 0.686461 0.247774
vt 0.091588 0.134279
vt 0.085505 0.288271
vt 0.185673 0.252715
vt 0.184157 0.166424
vt 0.012877 0.150729
vt 0.014745 0.245276
vt 1.007501 0.180164
vt 1.004724 0.253855
vt 0.825514 0.251093
vt 0.830804 0.158503
vt 0.940157 0.142506
vt 0.933834 0.301864
vt 0.686461 0.247774
vt 0.694362 0.161909
vt 0.348124 0.247556
vt 0.351231 0.161478
vt 0.502838 0.163887
vt 0.507613 0.250006
vt 0.091588 0.134279
vt 0.184157 0.166424
vt 0.185673 0.252715
vt 0.085505 0.288271
vt 0.014745 0.245276
vt 0.012877 0.150729
vt 1.007501 0.180164
vt 1.004724 0.253855
vt -0.339794 0.361600
vt -0.336783 0.464065
vt -0.431218 0.464065
vt -0.434316 0.361600
vt 1.321761 0.361600
vt 1.320302 0.464065
vt 1.257776 0.464065
vt 1.259216 0.361600
vt -0.186724 0.361600
vt -0.183996 0.464065
vt 1.129374 0.464065
vt 1.130687 0.361600
vt -0.034056 0.361600
vt 0.121108 0.361600
vt 0.123150 0.464065
vt -0.031636 0.464065
vt 0.380674 0.361600
vt 0.381818 0.464065
vt 0.295458 0.464065
vt 0.293954 0.361600
vt 0.698611 0.361600
vt 0.698509 0.464065
vt 0.620173 0.464065
vt 0.619990 0.361600
vt 0.548661 0.464065
vt 0.548200 0.361600
vt 0.469092 0.464065
vt 0.468294 0.361600
vt 1.491772 0.361600
vt 1.490309 0.464065
vt 1.405936 0.464065
vt 1.407390 0.361600
vt -0.506363 0.464065
vt -0.509477 0.361600
vt 0.502838 0.163887
vt 0.351231 0.161478
vt 0.348124 0.247556
vt 0.507613 0.250006
vt 0.851799 0.464065
vt 0.852435 0.361600
vt 0.994023 0.361600
vt 0.992965 0.464065
vt 0.148215 0.150887
vt 0.034235 0.059315
vt 0.014961 0.101177
vt 0.152857 0.059654
vt 0.099468 0.043617
vt 0.445265 0.320854
vt 0.437265 0.230111
vt 0.437265 0.149589
vt 0.433978 0.086900
vt 0.424116 0.120374
vt 0.500000 0.349197
vt 0.480353 0.219146
vt 0.500000 0.037402
vt 0.479280 0.140009
vt 0.520721 0.140009
vt 0.148215 0.150887
vt 0.014961 0.101177
vt 0.034235 0.059315
vt 0.099468 0.043617
vt 0.152857 0.059654
vt 0.437265 0.149589
vt 0.424116 0.120374
vt 0.433978 0.086900
vt 0.437265 0.230111
vt 0.445265 0.320854
vt 0.500000 0.349197
vt 0.480353 0.219146
vt 0.500000 0.037402
vt 0.479280 0.140009
vt 0.103581 0.252197
vt 0.103581 0.300615
vt 0.180357 0.300615
vt 0.180357 0.252197
vt 0.728833 0.537633
vt 0.728833 0.395542
vt 0.790379 0.395542
vt 0.790379 0.537633
vt 0.728833 0.390593
vt 0.728833 0.447522
vt 0.790379 0.447522
vt 0.790379 0.390593
vt 0.728833 0.517081
vt 0.790379 0.517081
vt 0.728833 0.078794
vt 0.790379 0.078794
vt 0.103581 0.284102
vt 0.103581 0.322819
vt 0.180357 0.322819
vt 0.180357 0.284102
vt 0.103581 0.356609
vt 0.180357 0.356609
vt 0.790379 0.087324
vt 0.728833 0.087324
vt 0.728833 0.041378
vt 0.790379 0.041378
vt 0.728833 0.010057
vt 0.790379 0.010057
vt 0.103581 0.345528
vt 0.103581 0.437058
vt 0.180357 0.437058
vt 0.180357 0.345528
vt 0.728833 0.010057
vt 0.728833 0.090829
vt 0.790379 0.090829
vt 0.790379 0.010057
vt 0.728833 0.087324
vt 0.728833 0.042524
vt 0.790379 0.042524
vt 0.790379 0.087324
vt 0.851785 0.150887
vt 0.985039 0.101177
vt 0.965766 0.059315
vt 0.900532 0.043617
vt 0.847143 0.059654
vt 0.562735 0.149589
vt 0.575884 0.120374
vt 0.566022 0.086900
vt 0.562735 0.230111
vt 0.554735 0.320854
vt 0.519647 0.219146
vt 0.851785 0.150887
vt 0.965766 0.059315
vt 0.985039 0.101177
vt 0.847143 0.059654
vt 0.900532 0.043617
vt 0.554735 0.320854
vt 0.562735 0.230111
vt 0.562735 0.149589
vt 0.566022 0.086900
vt 0.575884 0.120374
vt 0.519647 0.219146
vt 0.520721 0.140009
vt 0.103581 0.252197
vt 0.180357 0.252197
vt 0.180357 0.300615
vt 0.103581 0.300615
vt 0.728833 0.527261
vt 0.790379 0.527261
vt 0.790379 0.385170
vt 0.728833 0.385170
vt 0.728833 0.380221
vt 0.790379 0.380221
vt 0.790379 0.437150
vt 0.728833 0.437150
vt 0.790379 0.506709
vt 0.728833 0.506709
vt 0.790379 0.076951
vt 0.728833 0.076951
vt 0.103581 0.284102
vt 0.180357 0.284102
vt 0.180357 0.322819
vt 0.103581 0.322819
vt 0.180357 0.356609
vt 0.103581 0.356609
vt 0.790379 0.068422
vt 0.728833 0.068422
vt 0.728833 0.031006
vt 0.790379 0.031006
vt 0.103581 0.345528
vt 0.180357 0.345528
vt 0.180357 0.437058
vt 0.103581 0.437058
vt 0.790379 0.080457
vt 0.728833 0.080457
vt 0.728833 0.076951
vt 0.790379 0.076951
vt 0.790379 0.032151
vt 0.728833 0.032151
vt 0.829719 0.637764
vt 0.829719 0.599307
vt 0.911889 0.599307
vt 0.911889 0.637764
vt 0.994058 0.599307
vt 0.994058 0.637764
vt 0.008022 0.637764
vt 0.008022 0.599307
vt 0.090192 0.599307
vt 0.090192 0.637764
vt 0.172361 0.599307
vt 0.172362 0.637763
vt 0.254531 0.599307
vt 0.254531 0.637763
vt 0.336701 0.599307
vt 0.336701 0.637763
vt 0.418871 0.599307
vt 0.418871 0.637763
vt 0.501040 0.599307
vt 0.501040 0.637764
vt 0.583210 0.599307
vt 0.583210 0.637764
vt 0.665380 0.599307
vt 0.665380 0.637764
vt 0.747550 0.599307
vt 0.747550 0.637764
vt 0.829719 0.547744
vt 0.911889 0.547744
vt 0.994058 0.547744
vt 0.008022 0.547744
vt 0.090192 0.547744
vt 0.172361 0.547744
vt 0.254531 0.547744
vt 0.336701 0.547744
vt 0.418871 0.547744
vt 0.501040 0.547744
vt 0.583210 0.547744
vt 0.665380 0.547744
vt 0.747550 0.547744
vt 0.829719 0.992364
vt 0.829719 0.940801
vt 0.911889 0.940801
vt 0.911889 0.992364
vt 0.994058 0.940801
vt 0.994058 0.992364
vt 0.008022 0.992364
vt 0.008022 0.940801
vt 0.090192 0.940801
vt 0.090192 0.992364
vt 0.172361 0.940801
vt 0.172361 0.992364
vt 0.254531 0.940801
vt 0.254531 0.992364
vt 0.336701 0.940801
vt 0.336701 0.992364
vt 0.418871 0.940801
vt 0.418871 0.992364
vt 0.501040 0.940801
vt 0.501040 0.992364
vt 0.583210 0.940801
vt 0.583210 0.992364
vt 0.665380 0.940801
vt 0.665380 0.992364
vt 0.747550 0.940801
vt 0.747550 0.992364
vt 0.829719 0.902344
vt 0.911889 0.902344
vt 0.994058 0.902344
vt 0.008022 0.902344
vt 0.090192 0.902344
vt 0.172362 0.902344
vt 0.254531 0.902344
vt 0.336701 0.902344
vt 0.418871 0.902344
vt 0.501040 0.902344
vt 0.583210 0.902344
vt 0.665380 0.902344
vt 0.747549 0.902344
vt 0.829719 0.649720
vt 0.911889 0.649720
vt 0.911889 0.705170
vt 0.829719 0.705170
vt 0.994058 0.649720
vt 0.994058 0.705170
vt 0.008022 0.649720
vt 0.090192 0.649720
vt 0.090192 0.705170
vt 0.008022 0.705170
vt 0.172362 0.649720
vt 0.172361 0.705170
vt 0.254531 0.649720
vt 0.254531 0.705170
vt 0.336701 0.649720
vt 0.336701 0.705170
vt 0.418871 0.649720
vt 0.418870 0.705170
vt 0.501040 0.649720
vt 0.501040 0.705170
vt 0.583210 0.649720
vt 0.583210 0.705170
vt 0.665380 0.649720
vt 0.665380 0.705170
vt 0.747550 0.649720
vt 0.747550 0.705170
vt 0.911889 0.770579
vt 0.829719 0.770579
vt 0.994058 0.770579
vt 0.090192 0.770579
vt 0.008022 0.770579
vt 0.172361 0.770579
vt 0.254531 0.770579
vt 0.336701 0.770579
vt 0.418871 0.770579
vt 0.501040 0.770579
vt 0.583210 0.770579
vt 0.665380 0.770579
vt 0.747550 0.770579
vt 0.911889 0.835987
vt 0.829719 0.835987
vt 0.994058 0.835987
vt 0.090192 0.835987
vt 0.008022 0.835987
vt 0.172361 0.835987
vt 0.254531 0.835987
vt 0.336701 0.835987
vt 0.418870 0.835987
vt 0.501040 0.835987
vt 0.583210 0.835987
vt 0.665380 0.835987
vt 0.747550 0.835987
vt 0.911889 0.891438
vt 0.829719 0.891438
vt 0.994058 0.891438
vt 0.090192 0.891438
vt 0.008022 0.891438
vt 0.172362 0.891438
vt 0.254531 0.891438
vt 0.336701 0.891438
vt 0.418871 0.891438
vt 0.501040 0.891438
vt 0.583210 0.891438
vt 0.665380 0.891438
vt 0.747550 0.891438
vt 0.829719 0.642419
vt 0.911889 0.642419
vt 0.994058 0.642419
vt 0.008022 0.642419
vt 0.090192 0.642419
vt 0.172362 0.642419
vt 0.254531 0.642419
vt 0.336701 0.642419
vt 0.418871 0.642419
vt 0.501040 0.642419
vt 0.583210 0.642419
vt 0.665380 0.642419
vt 0.747550 0.642419
vt 0.911889 0.897193
vt 0.829719 0.897193
vt 0.994058 0.897193
vt 0.090192 0.897193
vt 0.008022 0.897193
vt 0.172362 0.897193
vt 0.254531 0.897193
vt 0.336701 0.897193
vt 0.418871 0.897193
vt 0.501040 0.897193
vt 0.583210 0.897193
vt 0.665380 0.897193
vt 0.747549 0.897193
vt 0.586795 0.769741
vt 0.586795 0.772380
vt 0.586795 0.775352
vt 0.554392 0.769741
vt 0.554392 0.775352
vt 0.528027 0.775352
vt 0.528027 0.769741
vt 0.528027 0.772380
vt 0.554392 0.772502
vt 0.500674 0.772362
vt 0.500674 0.775352
vt 0.500674 0.769741
vt 0.460071 0.775352
vt 0.460071 0.772364
vt 0.429475 0.772364
vt 0.429475 0.775352
vt 0.460071 0.769741
vt 0.429475 0.769741
vt 0.409446 0.774596
vt 0.409446 0.769489
vt 0.410666 0.772081
vt 0.415355 0.769489
vt 0.415355 0.772081
vt 0.421646 0.769489
vt 0.421646 0.772081
vt 0.443325 0.769489
vt 0.443325 0.772081
vt 0.447786 0.769489
vt 0.447786 0.772081
vt 0.452244 0.769489
vt 0.452244 0.772081
vt 0.473777 0.769489
vt 0.473777 0.772081
vt 0.480174 0.769489
vt 0.480309 0.772081
vt 0.486609 0.769489
vt 0.486609 0.772081
vt 0.486609 0.774596
vt 0.480173 0.774596
vt 0.473777 0.774596
vt 0.452244 0.774596
vt 0.447785 0.774596
vt 0.443325 0.774596
vt 0.421646 0.774596
vt 0.415397 0.774596
vn 0.000000 1.000000 0.000000
vn 0.000000 1.000000 0.000000
vn 0.000000 1.000000 0.000000
vn 0.000000 1.000000 0.000000
vn 0.000000 -1.000000 0.000000
vn 0.000000 -1.000000 0.000000
vn 0.000000 -1.000000 0.000000
vn 0.000000 -1.000000 0.000000
vn 1.000000 0.000000 0.000000
vn 1.000000 0.000000 0.000000
vn 1.000000 0.000000 0.000000
vn 1.000000 0.000000 0.000000
vn -1.000000 0.000000 0.000000
vn -1.000000 0.000000 0.000000
vn -1.000000 0.000000 0.000000
vn -1.000000 0.000000 0.000000
vn -0.000000 0.000000 -1.000000
vn -0.000000 0.000000 -1.000000
vn -0.000000 0.000000 -1.000000
vn 0.000000 0.000000 -1.000000
vn 0.000000 0.000000 -1.000000
vn 0.000000 0.000000 -1.000000
vn 0.000001 0.000000 -1.000000
vn 0.000001 0.000000 -1.000000
vn 0.000001 0.000000 -1.000000
vn -0.000000 0.000000 -1.000000
vn -0.000000 0.000000 -1.000000
vn -0.000000 0.000000 -1.000000
vn -0.000000 0.000000 -1.000000
vn -0.000002 0.000000 -1.000000
vn -0.000002 0.000000 -1.000000
vn -0.000002 0.000000 -1.000000
vn 0.000000 0.000000 -1.000000
vn 0.000000 0.000000 -1.000000
vn 0.000000 0.000000 -1.000000
vn 0.000000 0.000000 -1.000000
vn 0.000000 0.000000 -1.000000
vn 0.000000 0.000000 -1.000000
vn 0.000000 0.000000 -1.000000
vn 0.000001 0.000000 -1.000000
vn 0.000001 0.000000 -1.000000
vn 0.000001 0.000000 -1.000000
vn 0.000001 0.000000 -1.000000
vn 0.000000 0.000000 1.000000
vn 0.000000 0.000000 1.000000
vn 0.000000 0.000000 1.000000
vn -0.000001 0.000000 1.000000
vn -0.000001 0.000000 1.000000
vn -0.000001 0.000000 1.000000
vn 0.000001 0.000000 1.000000
vn 0.000001 0.000000 1.000000
vn 0.000001 0.000000 1.000000
vn 0.000000 0.000000 1.000000
vn 0.000000 0.000000 1.000000
vn 0.000000 0.000000 1.000000
vn 0.000000 0.000000 1.000000
vn 0.000000 0.000000 1.000000
vn 0.000000 0.000000 1.000000
vn 0.000000 0.000000 1.000000
vn 0.000001 0.000000 1.000000
vn 0.000001 0.000000 1.000000
vn 0.000001 0.000000 1.000000
vn 0.000001 0.000000 1.000000
vn 0.000001 0.000000 1.000000
vn 0.000001 0.000000 1.000000
vn 0.000001 0.000000 1.000000
vn 0.000001 0.000000 1.000000
vn -0.896831 -0.442373 0.000000
vn -0.896831 -0.442373 0.000000
vn -0.896831 -0.442373 0.000000
vn -0.896831 -0.442373 0.000000
vn -0.328824 0.944391 0.000000
vn -0.401155 0.916010 0.000000
vn -0.401155 0.916010 0.000000
vn -0.328824 0.944391 0.000000
vn 0.381722 -0.924277 0.000000
vn 0.026172 -0.999658 0.000000
vn 0.026172 -0.999658 0.000000
vn 0.381722 -0.924277 0.000000
vn -0.219151 -0.975691 0.000000
vn -0.219151 -0.975691 0.000000
vn -0.453213 0.891402 0.000000
vn -0.453213 0.891402 0.000000
vn -0.806275 -0.591541 0.000000
vn -0.953635 -0.300966 0.000000
vn -0.953635 -0.300966 0.000000
vn -0.806275 -0.591541 0.000000
vn -0.900722 0.434397 0.000000
vn -0.900722 0.434397 0.000000
vn -0.900722 0.434397 0.000000
vn -0.900722 0.434397 0.000000
vn 0.488196 -0.872734 0.000000
vn 0.488196 -0.872734 0.000000
vn -0.231116 -0.972926 0.000000
vn -0.231116 -0.972926 0.000000
vn -0.231116 -0.972926 0.000000
vn -0.231116 -0.972926 0.000000
vn -0.435177 0.900345 0.000000
vn -0.435177 0.900345 0.000000
vn -0.999894 0.014531 0.000000
vn -0.999894 0.014531 0.000000
vn -0.999894 0.014531 0.000000
vn -0.999894 0.014531 0.000000
vn -0.573329 -0.819325 0.000000
vn -0.573329 -0.819325 0.000000
vn 0.208177 0.978091 0.000000
vn 0.208177 0.978091 0.000000
vn 0.208177 0.978091 0.000000
vn 0.208177 0.978091 0.000000
vn 0.000001 0.000000 -1.000000
vn 0.000001 0.000000 -1.000000
vn 0.000001 0.000000 -1.000000
vn 0.000000 0.000000 -1.000000
vn 0.000000 0.000000 -1.000000
vn 0.000000 0.000000 -1.000000
vn -0.000001 0.000000 -1.000000
vn -0.000001 0.000000 -1.000000
vn -0.000001 0.000000 -1.000000
vn 0.000004 0.000000 -1.000000
vn 0.000004 0.000000 -1.000000
vn 0.000004 0.000000 -1.000000
vn 0.000000 0.000000 -1.000000
vn 0.000000 0.000000 -1.000000
vn 0.000000 0.000000 -1.000000
vn 0.000000 0.000000 -1.000000
vn -0.000001 0.000000 -1.000000
vn -0.000001 0.000000 -1.000000
vn -0.000001 0.000000 -1.000000
vn -0.000001 0.000000 -1.000000
vn -0.000000 0.000000 -1.000000
vn -0.000000 0.000000 -1.000000
vn -0.000000 0.000000 -1.000000
vn -0.000000 0.000000 -1.000000
vn 0.000000 0.000000 1.000000
vn 0.000000 0.000000 1.000000
vn 0.000000 0.000000 1.000000
vn 0.000000 0.000000 1.000000
vn 0.000000 0.000000 1.000000
vn 0.000000 0.000000 1.000000
vn -0.000001 0.000000 1.000000
vn -0.000001 0.000000 1.000000
vn -0.000001 0.000000 1.000000
vn 0.000000 0.000000 1.000000
vn 0.000000 0.000000 1.000000
vn 0.000000 0.000000 1.000000
vn 0.000000 0.000000 1.000000
vn 0.000000 0.000000 1.000000
vn 0.000000 0.000000 1.000000
vn 0.000000 0.000000 1.000000
vn 0.000000 0.000000 1.000000
vn 0.000000 0.000000 1.000000
vn 0.000000 0.000000 1.000000
vn 0.000000 0.000000 1.000000
vn 0.000000 0.000000 1.000000
vn 0.000000 0.000000 1.000000
vn 0.000000 0.000000 1.000000
vn 0.000000 0.000000 1.000000
vn 0.000000 0.000000 1.000000
vn 0.000000 0.000000 1.000000
vn 0.000000 0.000000 1.000000
vn 0.000000 0.000000 1.000000
vn 0.896831 -0.442373 0.000000
vn 0.896831 -0.442373 0.000000
vn 0.896831 -0.442373 0.000000
vn 0.896831 -0.442373 0.000000
vn 0.328816 0.944394 0.000000
vn 0.328816 0.944394 0.000000
vn 0.401154 0.916011 0.000000
vn 0.401154 0.916011 0.000000
vn -0.381738 -0.924270 0.000000
vn -0.381738 -0.924270 0.000000
vn -0.026196 -0.999657 0.000000
vn -0.026196 -0.999657 0.000000
vn 0.219139 -0.975694 0.000000
vn 0.219139 -0.975694 0.000000
vn -0.488196 -0.872734 0.000000
vn -0.488196 -0.872734 0.000000
vn 0.806227 -0.591606 0.000000
vn 0.806227 -0.591606 0.000000
vn 0.953602 -0.301069 0.000000
vn 0.953602 -0.301069 0.000000
vn 0.900722 0.434397 0.000000
vn 0.900722 0.434397 0.000000
vn 0.900722 0.434397 0.000000
vn 0.900722 0.434397 0.000000
vn 0.453191 0.891413 0.000000
vn 0.453191 0.891413 0.000000
vn 0.231078 -0.972935 0.000000
vn 0.231078 -0.972935 0.000000
vn 0.231078 -0.972935 0.000000
vn 0.231078 -0.972935 0.000000
vn 0.435129 0.900368 0.000000
vn 0.435129 0.900368 0.000000
vn 0.999894 0.014531 0.000000
vn 0.999894 0.014531 0.000000
vn 0.999894 0.014531 0.000000
vn 0.999894 0.014531 0.000000
vn 0.573286 -0.819355 0.000000
vn 0.573286 -0.819355 0.000000
vn -0.208142 0.978099 0.000000
vn -0.208142 0.978099 0.000000
vn -0.208142 0.978099 0.000000
vn -0.208142 0.978099 0.000000
vn 0.000000 0.000000 1.000000
vn 0.000000 0.000000 1.000000
vn 0.000000 0.000000 1.000000
vn 0.000000 0.000000 1.000000
vn 0.000000 0.000000 1.000000
vn 0.000000 0.000000 1.000000
vn 0.000000 0.000000 -1.000000
vn 0.000000 0.000000 -1.000000
vn 0.000000 0.000000 -1.000000
vn 0.000000 0.000000 -1.000000
vn 0.000000 0.000000 -1.000000
vn 0.000000 0.000000 -1.000000
vn 0.000000 0.000000 -1.000000
vn 0.000000 0.000000 -1.000000
vn 0.000000 0.000000 -1.000000
vn 0.000000 0.000000 -1.000000
vn 0.000000 0.000000 -1.000000
vn 0.000000 0.000000 -1.000000
vn 0.000000 0.000000 -1.000000
vn 0.000000 0.000000 -1.000000
vn 0.000000 0.000000 -1.000000
vn 0.000000 0.000000 1.000000
vn 0.000000 0.000000 1.000000
vn 0.000000 0.000000 1.000000
vn 0.000000 0.000000 1.000000
vn 0.000000 0.000000 1.000000
vn 0.000000 0.000000 1.000000
vn 0.000000 0.000000 1.000000
vn 0.000000 0.000000 1.000000
vn -0.394958 -0.918699 0.000000
vn -0.394958 -0.918699 0.000000
vn 0.075541 -0.997143 0.000000
vn 0.075541 -0.997143 0.000000
vn 0.461435 -0.887174 0.000000
vn 0.461435 -0.887174 0.000000
vn 0.337370 0.941372 0.000000
vn 0.337370 0.941372 0.000000
vn 0.400616 0.916246 0.000000
vn 0.400616 0.916246 0.000000
vn 0.462006 0.886877 0.000000
vn 0.462006 0.886877 0.000000
vn -0.465020 -0.885300 0.000000
vn -0.465020 -0.885300 0.000000
vn 0.000000 0.000000 -1.000000
vn 0.000000 0.000000 -1.000000
vn 0.000000 0.000000 -1.000000
vn 0.000000 0.000000 -1.000000
vn -0.000000 0.000000 -1.000000
vn -0.000000 0.000000 -1.000000
vn -0.000000 0.000000 -1.000000
vn -0.000000 0.000000 -1.000000
vn -0.000000 0.000000 1.000000
vn -0.000000 0.000000 1.000000
vn -0.000000 0.000000 1.000000
vn -0.000000 0.000000 1.000000
vn -0.000000 0.000000 1.000000
vn -0.000000 0.000000 1.000000
vn -0.000000 0.000000 1.000000
vn -0.000000 0.000000 1.000000
vn 0.394956 -0.918700 0.000000
vn -0.075545 -0.997142 0.000000
vn -0.075545 -0.997142 0.000000
vn 0.394956 -0.918700 0.000000
vn -0.461435 -0.887174 0.000000
vn -0.461435 -0.887174 0.000000
vn -0.337370 0.941372 0.000000
vn -0.400619 0.916245 0.000000
vn -0.400619 0.916245 0.000000
vn -0.337370 0.941372 0.000000
vn -0.462013 0.886873 0.000000
vn -0.462013 0.886873 0.000000
vn 0.465024 -0.885298 0.000000
vn 0.465024 -0.885298 0.000000
vn 0.000000 0.587104 0.809512
vn 0.000000 0.587104 0.809512
vn 0.000000 0.587104 0.809512
vn 0.000000 0.587104 0.809512
vn 0.000000 1.000000 0.000000
vn 0.000000 1.000000 0.000000
vn 0.000000 1.000000 0.000000
vn 0.000000 1.000000 0.000000
vn 0.000000 0.000000 -1.000000
vn 0.000000 0.000000 -1.000000
vn 0.000000 0.000000 -1.000000
vn 0.000000 0.000000 -1.000000
vn 0.000000 -1.000000 0.000000
vn 0.000000 -1.000000 0.000000
vn 0.000000 -1.000000 0.000000
vn 0.000000 -1.000000 0.000000
vn 0.849926 0.526903 0.000000
vn 0.849926 0.526903 0.000000
vn 0.849926 0.526903 0.000000
vn 0.849926 0.526903 0.000000
vn -0.849915 0.526920 0.000000
vn -0.849915 0.526920 0.000000
vn -0.849915 0.526920 0.000000
vn -0.849915 0.526920 0.000000
vn 0.000000 -1.000000 0.000000
vn 0.000000 -1.000000 0.000000
vn 1.000000 0.000000 0.000000
vn 1.000000 0.000000 0.000000
vn 1.000000 0.000000 0.000000
vn 1.000000 0.000000 0.000000
vn 0.000000 1.000000 0.000000
vn 0.000000 1.000000 0.000000
vn 0.000000 1.000000 0.000000
vn 0.000000 1.000000 0.000000
vn -1.000000 -0.000043 0.000000
vn -1.000000 -0.000043 0.000000
vn -1.000000 -0.000043 0.000000
vn -1.000000 -0.000043 0.000000
vn 0.000000 0.000000 -1.000000
vn 0.000000 0.000000 -1.000000
vn -1.000000 0.000000 0.000000
vn -1.000000 0.000000 0.000000
vn -1.000000 0.000000 0.000000
vn -1.000000 0.000000 0.000000
vn 0.000000 -1.000000 0.000000
vn 0.000000 -1.000000 0.000000
vn 0.000000 0.000000 -1.000000
vn 0.000000 0.000000 -1.000000
vn 0.000000 1.000000 0.000000
vn 0.000000 1.000000 0.000000
vn 0.000000 1.000000 0.000000
vn 0.000000 1.000000 0.000000
vn 0.000000 0.000000 1.000000
vn 0.000000 0.000000 1.000000
vn 0.000000 0.000000 1.000000
vn 0.000000 0.000000 1.000000
vn 0.000000 -1.000000 0.000000
vn 0.000000 -1.000000 0.000000
vn 0.000000 0.000000 1.000000
vn 0.000000 0.000000 1.000000
vn 0.000000 0.000000 1.000000
vn 0.000000 0.000000 1.000000
vn 0.000000 1.000000 0.000000
vn 0.000000 1.000000 0.000000
vn 0.000000 1.000000 0.000000
vn 0.000000 1.000000 0.000000
vn 0.000000 0.000000 -1.000000
vn 0.000000 0.000000 -1.000000
vn 0.000000 0.000000 1.000000
vn 0.000000 0.000000 1.000000
vn 0.000000 0.000000 1.000000
vn 0.000000 0.000000 1.000000
vn 1.000000 0.000000 0.000000
vn 1.000000 0.000000 0.000000
vn 1.000000 0.000000 0.000000
vn 1.000000 0.000000 0.000000
vn 0.000000 -0.803813 0.594882
vn 0.000000 -0.803813 0.594882
vn 0.000000 -0.803813 0.594882
vn 0.000000 -0.803813 0.594882
vn 0.000000 1.000000 0.000000
vn 0.000000 1.000000 0.000000
vn 0.000000 1.000000 0.000000
vn 0.000000 1.000000 0.000000
vn 0.000000 0.000000 -1.000000
vn 0.000000 0.000000 -1.000000
vn 0.000000 0.000000 -1.000000
vn 0.000000 0.000000 -1.000000
vn 0.000000 -0.480761 0.876852
vn 0.000000 -0.480761 0.876852
vn 0.000000 -0.480761 0.876852
vn 0.000000 -0.480761 0.876852
vn 1.000000 0.000008 0.000000
vn 1.000000 0.000029 0.000000
vn 1.000000 0.000057 0.000000
vn 1.000000 0.000011 0.000000
vn -1.000000 0.000000 0.000000
vn -1.000000 0.000018 0.000000
vn -1.000000 0.000026 0.000000
vn -1.000000 0.000000 0.000000
vn -1.000000 0.000053 0.000000
vn -1.000000 0.000053 0.000000
vn 0.000000 1.000000 0.000000
vn 0.000000 1.000000 0.000000
vn 1.000000 -0.000034 0.000000
vn 1.000000 -0.000034 0.000000
vn 0.000000 -1.000000 0.000000
vn 0.000000 -1.000000 0.000000
vn 0.000000 -1.000000 0.000000
vn 0.000000 -1.000000 0.000000
vn 0.000000 0.000000 -1.000000
vn 0.000000 0.000000 -1.000000
vn 1.000000 0.000000 0.000000
vn 1.000000 0.000000 0.000000
vn 0.000000 0.000000 1.000000
vn 0.000000 0.000000 1.000000
vn 0.000000 0.000000 1.000000
vn 0.000000 0.000000 1.000000
vn -1.000000 0.000000 0.000000
vn -1.000000 0.000000 0.000000
vn -1.000000 0.000000 0.000000
vn -1.000000 0.000000 0.000000
vn -1.000000 0.000000 0.000000
vn -1.000000 0.000000 0.000000
vn -1.000000 0.000038 0.000000
vn -1.000000 0.000019 0.000000
vn -1.000000 0.000019 0.000000
vn -1.000000 0.000038 0.000000
vn -1.000000 0.000028 0.000000
vn -1.000000 0.000028 0.000000
vn -1.000000 0.000028 0.000000
vn -1.000000 0.000028 0.000000
vn -1.000000 0.000000 0.000000
vn -1.000000 0.000000 0.000000
vn -1.000000 0.000000 0.000000
vn -1.000000 0.000000 0.000000
vn -1.000000 -0.000013 0.000000
vn -1.000000 -0.000013 0.000000
vn -1.000000 -0.000013 0.000000
vn -1.000000 -0.000013 0.000000
vn 1.000000 0.000000 0.000000
vn 1.000000 0.000000 0.000000
vn 1.000000 0.000000 0.000000
vn 1.000000 0.000000 0.000000
vn 1.000000 0.000000 0.000000
vn 1.000000 0.000000 0.000000
vn 1.000000 0.000000 0.000000
vn 1.000000 0.000000 0.000000
vn 1.000000 -0.000018 0.000000
vn 1.000000 -0.000018 0.000000
vn 1.000000 0.000000 0.000000
vn 1.000000 0.000000 0.000000
vn 1.000000 0.000000 0.000000
vn 1.000000 0.000000 0.000000
vn 1.000000 0.000000 0.000000
vn 1.000000 0.000000 0.000000
vn 1.000000 -0.000055 0.000000
vn 1.000000 -0.000055 0.000000
vn 1.000000 -0.000055 0.000000
vn 1.000000 -0.000055 0.000000
vn 1.000000 -0.000051 0.000000
vn 1.000000 -0.000051 0.000000
vn 1.000000 -0.000051 0.000000
vn 1.000000 -0.000051 0.000000
vn 0.000000 0.900711 -0.434418
vn 0.000000 0.900711 -0.434418
vn 0.000000 0.998398 0.056575
vn 0.000000 0.998398 0.056575
vn 0.000000 -0.988169 -0.153372
vn 0.000000 -0.988169 -0.153372
vn 0.000000 -0.718006 -0.696037
vn 0.000000 -0.718006 -0.696037
vn 0.000000 0.757033 -0.653377
vn 0.000000 0.757033 -0.653377
vn 0.000000 -0.779699 0.626154
vn 0.000000 -0.779699 0.626154
vn 0.000000 -0.850576 0.525852
vn 0.000000 -0.850576 0.525852
vn 0.000000 0.615052 -0.788487
vn 0.000000 0.458696 -0.888593
vn 0.000000 0.458696 -0.888593
vn 0.000000 0.615052 -0.788487
vn 0.000000 -0.049798 -0.998759
vn 0.000000 -0.049798 -0.998759
vn 0.000000 0.331941 -0.943300
vn 0.000000 0.331941 -0.943300
vn 0.000000 0.490258 0.871577
vn 0.000000 0.490258 0.871577
vn 0.000000 0.070935 0.997481
vn 0.000000 0.070935 0.997481
vn 0.000000 -0.786498 0.617593
vn 0.000000 -0.786498 0.617593
vn 0.000000 -0.860814 -0.508919
vn 0.000000 -0.860814 -0.508919
vn 0.000000 0.530439 0.847723
vn 0.000000 0.530439 0.847723
vn 0.000000 -0.555930 0.831229
vn 0.000000 -0.555930 0.831229
vn -1.000000 -0.000020 0.000000
vn -1.000000 -0.000020 0.000000
vn -1.000000 -0.000020 0.000000
vn -1.000000 -0.000020 0.000000
vn 0.000000 -0.456282 0.889835
vn 0.000000 -0.456282 0.889835
vn 0.000000 -0.615364 0.788243
vn 0.000000 -0.615364 0.788243
vn -1.000000 0.000000 0.000000
vn -1.000000 0.000000 0.000000
vn 1.000000 -0.000036 0.000000
vn 1.000000 -0.000036 0.000000
vn 0.000000 -0.383166 0.923680
vn 0.000000 -0.383166 0.923680
vn 0.000000 0.000000 -1.000000
vn 0.000000 0.000000 -1.000000
vn 0.000000 0.000000 -1.000000
vn 0.000000 0.000000 -1.000000
vn 0.000000 0.000000 -1.000000
vn 0.000000 0.000000 -1.000000
vn 0.000000 0.000000 -1.000000
vn 0.000000 0.000000 -1.000000
vn 0.000000 0.000000 -1.000000
vn -0.000000 0.000000 -1.000000
vn -0.000000 0.000000 -1.000000
vn -0.000000 0.000000 -1.000000
vn -0.000000 0.000000 -1.000000
vn 0.000000 0.000000 -1.000000
vn 0.000000 0.000000 -1.000000
vn 0.000000 0.000000 -1.000000
vn -0.000000 0.000000 -1.000000
vn -0.000000 0.000000 -1.000000
vn -0.000000 0.000000 -1.000000
vn -0.000000 0.000000 -1.000000
vn 0.000000 0.000000 -1.000000
vn 0.000000 0.000000 -1.000000
vn 0.000000 0.000000 -1.000000
vn 0.000000 0.000000 -1.000000
vn 0.000000 0.000000 -1.000000
vn 0.000000 0.000000 -1.000000
vn 0.000000 0.000000 -1.000000
vn 0.000000 0.000000 1.000000
vn 0.000000 0.000000 1.000000
vn 0.000000 0.000000 1.000000
vn 0.000000 0.000000 1.000000
vn 0.000000 0.000000 1.000000
vn 0.000000 0.000000 1.000000
vn 0.000001 0.000000 1.000000
vn 0.000001 0.000000 1.000000
vn 0.000001 0.000000 1.000000
vn 0.000000 0.000000 1.000000
vn 0.000000 0.000000 1.000000
vn 0.000000 0.000000 1.000000
vn 0.000000 0.000000 1.000000
vn 0.000000 0.000000 1.000000
vn 0.000000 0.000000 1.000000
vn 0.000000 0.000000 1.000000
vn 0.000001 0.000000 1.000000
vn 0.000001 0.000000 1.000000
vn 0.000001 0.000000 1.000000
vn 0.000001 0.000000 1.000000
vn -0.000000 0.000000 1.000000
vn -0.000000 0.000000 1.000000
vn -0.000000 0.000000 1.000000
vn -0.000000 0.000000 1.000000
vn -0.896831 -0.442373 0.000000
vn -0.896831 -0.442373 0.000000
vn -0.896831 -0.442373 0.000000
vn -0.896831 -0.442373 0.000000
vn -0.328824 0.944391 0.000000
vn -0.401156 0.916010 0.000000
vn -0.401156 0.916010 0.000000
vn -0.328824 0.944391 0.000000
vn 0.381721 -0.924277 0.000000
vn 0.026172 -0.999658 0.000000
vn 0.026172 -0.999658 0.000000
vn 0.381721 -0.924277 0.000000
vn -0.219151 -0.975691 0.000000
vn -0.219151 -0.975691 0.000000
vn -0.453212 0.891403 0.000000
vn -0.453212 0.891403 0.000000
vn -0.806275 -0.591541 0.000000
vn -0.953635 -0.300966 0.000000
vn -0.953635 -0.300966 0.000000
vn -0.806275 -0.591541 0.000000
vn -0.900722 0.434397 0.000000
vn -0.900722 0.434397 0.000000
vn -0.900722 0.434397 0.000000
vn -0.900722 0.434397 0.000000
vn 0.488196 -0.872734 0.000000
vn 0.488196 -0.872734 0.000000
vn -0.231116 -0.972926 0.000000
vn -0.231116 -0.972926 0.000000
vn -0.231116 -0.972926 0.000000
vn -0.231116 -0.972926 0.000000
vn -0.435176 0.900345 0.000000
vn -0.435176 0.900345 0.000000
vn -0.999894 0.014531 0.000000
vn -0.999894 0.014531 0.000000
vn -0.999894 0.014531 0.000000
vn -0.999894 0.014531 0.000000
vn -0.573329 -0.819325 0.000000
vn -0.573329 -0.819325 0.000000
vn 0.208177 0.978091 0.000000
vn 0.208177 0.978091 0.000000
vn 0.208177 0.978091 0.000000
vn 0.208177 0.978091 0.000000
vn -0.000001 0.000000 -1.000000
vn -0.000001 0.000000 -1.000000
vn -0.000001 0.000000 -1.000000
vn 0.000000 0.000000 -1.000000
vn 0.000000 0.000000 -1.000000
vn 0.000000 0.000000 -1.000000
vn 0.000000 0.000000 -1.000000
vn 0.000000 0.000000 -1.000000
vn 0.000000 0.000000 -1.000000
vn 0.000000 0.000000 -1.000000
vn 0.000000 0.000000 -1.000000
vn 0.000000 0.000000 -1.000000
vn 0.000000 0.000000 -1.000000
vn 0.000000 0.000000 -1.000000
vn 0.000000 0.000000 -1.000000
vn 0.000000 0.000000 -1.000000
vn 0.000001 0.000000 -1.000000
vn 0.000001 0.000000 -1.000000
vn 0.000001 0.000000 -1.000000
vn 0.000001 0.000000 -1.000000
vn 0.000000 0.000000 -1.000000
vn 0.000000 0.000000 -1.000000
vn 0.000000 0.000000 -1.000000
vn 0.000000 0.000000 -1.000000
vn 0.000000 0.000000 1.000000
vn 0.000000 0.000000 1.000000
vn 0.000000 0.000000 1.000000
vn 0.000001 0.000000 1.000000
vn 0.000001 0.000000 1.000000
vn 0.000001 0.000000 1.000000
vn -0.000001 0.000000 1.000000
vn -0.000001 0.000000 1.000000
vn -0.000001 0.000000 1.000000
vn -0.000000 0.000000 1.000000
vn -0.000000 0.000000 1.000000
vn -0.000000 0.000000 1.000000
vn -0.000000 0.000000 1.000000
vn -0.000002 0.000000 1.000000
vn -0.000002 0.000000 1.000000
vn -0.000002 0.000000 1.000000
vn 0.000000 0.000000 1.000000
vn 0.000000 0.000000 1.000000
vn 0.000000 0.000000 1.000000
vn 0.000000 0.000000 1.000000
vn 0.000000 0.000000 1.000000
vn 0.000000 0.000000 1.000000
vn 0.000000 0.000000 1.000000
vn 0.000000 0.000000 1.000000
vn 0.000001 0.000000 1.000000
vn 0.000001 0.000000 1.000000
vn 0.000001 0.000000 1.000000
vn 0.000001 0.000000 1.000000
vn 0.896831 -0.442373 0.000000
vn 0.896831 -0.442373 0.000000
vn 0.896831 -0.442373 0.000000
vn 0.896831 -0.442373 0.000000
vn 0.328816 0.944394 0.000000
vn 0.328816 0.944394 0.000000
vn 0.401154 0.916011 0.000000
vn 0.401154 0.916011 0.000000
vn -0.381738 -0.924271 0.000000
vn -0.381738 -0.924271 0.000000
vn -0.026196 -0.999657 0.000000
vn -0.026196 -0.999657 0.000000
vn 0.219139 -0.975694 0.000000
vn 0.219139 -0.975694 0.000000
vn -0.488196 -0.872734 0.000000
vn -0.488196 -0.872734 0.000000
vn 0.806227 -0.591606 0.000000
vn 0.806227 -0.591606 0.000000
vn 0.953602 -0.301069 0.000000
vn 0.953602 -0.301069 0.000000
vn 0.900722 0.434397 0.000000
vn 0.900722 0.434397 0.000000
vn 0.900722 0.434397 0.000000
vn 0.900722 0.434397 0.000000
vn 0.453191 0.891413 0.000000
vn 0.453191 0.891413 0.000000
vn 0.231078 -0.972935 0.000000
vn 0.231078 -0.972935 0.000000
vn 0.231078 -0.972935 0.000000
vn 0.231078 -0.972935 0.000000
vn 0.435129 0.900368 0.000000
vn 0.435129 0.900368 0.000000
vn 0.999894 0.014531 0.000000
vn 0.999894 0.014531 0.000000
vn 0.999894 0.014531 0.000000
vn 0.999894 0.014531 0.000000
vn 0.573286 -0.819355 0.000000
vn 0.573286 -0.819355 0.000000
vn -0.208142 0.978099 0.000000
vn -0.208142 0.978099 0.000000
vn -0.208142 0.978099 0.000000
vn -0.208142 0.978099 0.000000
vn 0.000000 0.000000 1.000000
vn 0.000000 0.000000 1.000000
vn 0.000000 0.000000 1.000000
vn 0.000000 0.000000 1.000000
vn 0.000000 0.000000 1.000000
vn 0.000000 0.000000 1.000000
vn 0.000000 0.000000 -1.000000
vn 0.000000 0.000000 -1.000000
vn 0.000000 0.000000 -1.000000
vn 0.000000 0.000000 -1.000000
vn 0.000000 0.000000 -1.000000
vn 0.000000 0.000000 -1.000000
vn 0.000000 0.000000 -1.000000
vn -0.854362 0.163564 0.493267
vn -0.809637 0.354941 0.467445
vn -0.467449 0.354928 0.809641
vn -0.493271 0.163565 0.854360
vn -0.000005 0.354919 0.934897
vn -0.000005 0.163592 0.986528
vn 0.467442 0.354929 0.809644
vn 0.493255 0.163688 0.854345
vn 0.809638 0.354936 0.467448
vn 0.854341 0.163675 0.493266
vn 0.934893 0.354930 0.000000
vn 0.986529 0.163589 -0.000001
vn 0.809638 0.354935 -0.467447
vn 0.854342 0.163668 -0.493267
vn 0.467439 0.354931 -0.809645
vn 0.493256 0.163666 -0.854349
vn -0.000005 0.354926 -0.934894
vn -0.000007 0.163597 -0.986527
vn -0.467447 0.354933 -0.809639
vn -0.493269 0.163500 -0.854373
vn -0.809638 0.354940 -0.467444
vn -0.854369 0.163564 -0.493256
vn -0.934889 0.354940 0.000001
vn -0.986518 0.163651 -0.000003
vn -0.866025 0.000007 0.500001
vn -0.500002 -0.000004 0.866024
vn -0.000005 -0.000003 1.000000
vn 0.499992 0.000000 0.866030
vn 0.866026 0.000000 0.499998
vn 1.000000 -0.000007 0.000002
vn 0.866027 -0.000007 -0.499998
vn 0.499992 0.000003 -0.866030
vn -0.000005 0.000003 -1.000000
vn -0.500001 -0.000000 -0.866025
vn -0.866025 0.000007 -0.500001
vn -1.000000 0.000014 0.000001
vn -0.809643 -0.354925 0.467447
vn -0.467452 -0.354922 0.809641
vn -0.000005 -0.354922 0.934896
vn 0.467442 -0.354927 0.809645
vn 0.809639 -0.354932 0.467449
vn 0.934892 -0.354933 0.000001
vn 0.809638 -0.354938 -0.467446
vn 0.467441 -0.354925 -0.809646
vn -0.000005 -0.354922 -0.934896
vn -0.467449 -0.354926 -0.809641
vn -0.809642 -0.354925 -0.467448
vn -0.934894 -0.354926 0.000001
vn -0.853767 -0.167668 0.492919
vn -0.492915 -0.167693 0.853765
vn -0.000003 -0.167819 0.985818
vn 0.492904 -0.167792 0.853751
vn 0.853757 -0.167681 0.492931
vn 0.985840 -0.167687 -0.000005
vn 0.853748 -0.167768 -0.492918
vn 0.492904 -0.167766 -0.853757
vn -0.000007 -0.167818 -0.985818
vn -0.492905 -0.167813 -0.853747
vn -0.853748 -0.167762 -0.492919
vn -0.985828 -0.167761 -0.000000
vn 0.478723 -0.833327 -0.276388
vn 0.276393 -0.833324 -0.478726
vn 0.467448 -0.354935 -0.809638
vn 0.809643 -0.354918 -0.467452
vn 0.000002 -0.833313 -0.552802
vn 0.000004 -0.354944 -0.934888
vn -0.276388 -0.833321 -0.478734
vn -0.467440 -0.354945 -0.809638
vn -0.478738 -0.833317 -0.276394
vn -0.809639 -0.354941 -0.467442
vn -0.552836 -0.833290 0.000006
vn -0.934892 -0.354933 0.000001
vn -0.478760 -0.833302 0.276399
vn -0.809641 -0.354937 0.467441
vn -0.276389 -0.833319 0.478736
vn -0.467440 -0.354936 0.809642
vn 0.000000 -0.833312 0.552802
vn 0.000003 -0.354936 0.934891
vn 0.276393 -0.833325 0.478724
vn 0.467448 -0.354939 0.809637
vn 0.478724 -0.833327 0.276388
vn 0.809641 -0.354925 0.467451
vn 0.552783 -0.833326 -0.000001
vn 0.934899 -0.354914 -0.000001
vn 0.500001 0.000005 -0.866025
vn 0.866022 0.000006 -0.500006
vn 0.000005 -0.000001 -1.000000
vn -0.499996 -0.000001 -0.866028
vn -0.866028 -0.000001 -0.499996
vn -1.000000 -0.000001 -0.000002
vn -0.866027 -0.000001 0.499997
vn -0.499996 -0.000001 0.866028
vn 0.000005 -0.000001 1.000000
vn 0.500000 -0.000001 0.866025
vn 0.866022 -0.000001 0.500006
vn 1.000000 -0.000001 -0.000001
vn 0.467448 0.354937 -0.809637
vn 0.809642 0.354920 -0.467452
vn 0.000003 0.354937 -0.934890
vn -0.467441 0.354938 -0.809641
vn -0.809639 0.354940 -0.467442
vn -0.934890 0.354939 -0.000000
vn -0.809639 0.354942 0.467441
vn -0.467440 0.354938 0.809641
vn 0.000003 0.354938 0.934890
vn 0.467448 0.354938 0.809637
vn 0.809641 0.354924 0.467451
vn 0.934899 0.354913 -0.000001
vn 0.274297 0.836094 -0.475087
vn 0.475082 0.836098 -0.274295
vn 0.000002 0.836098 -0.548581
vn -0.274293 0.836096 -0.475086
vn -0.475107 0.836084 -0.274295
vn -0.548624 0.836069 0.000001
vn -0.475111 0.836082 0.274295
vn -0.274291 0.836098 0.475084
vn -0.000001 0.836102 0.548574
vn 0.274285 0.836108 0.475070
vn 0.475072 0.836108 0.274282
vn 0.548566 0.836107 -0.000002
vn -0.475867 -0.835502 0.274749
vn -0.274744 -0.835510 0.475856
vn -0.000002 -0.835507 0.549479
vn 0.274793 -0.835446 0.475940
vn 0.475921 -0.835459 0.274787
vn 0.549453 -0.835525 0.000005
vn 0.475905 -0.835468 -0.274786
vn 0.274786 -0.835455 -0.475928
vn -0.000006 -0.835501 -0.549489
vn -0.274709 -0.835544 -0.475817
vn -0.475875 -0.835502 -0.274735
vn -0.549560 -0.835454 -0.000004
vn -0.278493 0.830507 0.482390
vn -0.482380 0.830513 0.278491
vn 0.000001 0.830440 0.557109
vn 0.278534 0.830451 0.482463
vn 0.482344 0.830530 0.278503
vn 0.556963 0.830537 -0.000005
vn 0.482413 0.830480 -0.278534
vn 0.278523 0.830464 -0.482446
vn -0.000007 0.830436 -0.557114
vn -0.278554 0.830431 -0.482486
vn -0.482447 0.830454 -0.278551
vn -0.557088 0.830454 -0.000003
vn 0.503468 0.095395 0.858731
vn -0.017055 0.870956 -0.491065
vn -0.504394 0.091074 0.858657
vn 0.930280 0.094876 0.354368
vn -0.928117 0.093288 0.360411
vn -0.946816 0.319995 0.033811
vn 0.947736 0.317251 0.033892
vn -0.007247 -0.998626 0.051893
vn -0.007165 -0.252275 -0.967629
vn 0.006256 -0.288417 0.957485
vn -0.927390 0.062766 -0.368793
vn 0.932663 0.062606 -0.355274
vn -0.856768 -0.074681 -0.510265
vn 0.032347 0.132032 0.990718
vn 0.050409 0.005846 0.998712
vn -0.828980 0.003769 -0.559265
vn 0.884823 -0.055094 -0.462658
vn 0.869449 -0.000051 -0.494023
vn 0.807048 0.113524 0.579470
vn 0.745737 0.125336 -0.654345
vn 0.201619 0.979339 0.015640
vn 0.044167 -0.389068 -0.920150
vn 0.068422 0.997172 0.031074
vn -0.253373 -0.354722 -0.899986
vn 0.623212 0.781252 0.035387
vn -0.280688 -0.363729 -0.888209
vn 0.653018 0.756123 0.042960
vn 0.012139 -0.400893 -0.916044
vn 0.009765 0.998426 0.055233
vn 0.298162 -0.366877 -0.881193
vn -0.644411 0.763396 0.044299
vn 0.307501 -0.371580 -0.875997
vn -0.614796 0.787267 0.047291
vn 0.010832 -0.421084 -0.906957
vn -0.007551 0.998252 0.058620
vn -0.769180 0.124002 -0.626885
vn -0.204818 0.978270 0.032201
vn -0.776074 0.071304 0.626598
vn 0.010564 -0.463934 0.885807
vn 0.338097 -0.407957 0.848093
vn 0.326729 -0.403421 0.854693
vn 0.012471 -0.444391 0.895746
vn -0.308751 -0.399791 0.863041
vn -0.303649 -0.406335 0.861794
vn 0.050977 -0.470269 0.881050
s off
g polySurface3779
f 3/4/1 4/3/2 6/5/3 5/6/4
f 7/8/5 8/9/6 2/2/7 1/10/8
f 2/2/9 8/9/10 6/5/11 4/3/12
f 7/7/13 1/1/14 3/4/15 5/6/16
f 23/11/17 24/12/18 25/13/19
f 23/11/20 26/14/21 27/15/22
f 23/11/23 27/15/24 24/12/25
f 26/14/26 23/11/27 32/16/28 31/17/29
f 28/18/30 29/19/31 30/20/32
f 34/21/33 33/22/34 31/17/35 32/16/36
f 36/23/37 35/24/38 48/25/39
f 36/23/40 29/19/41 28/18/42 35/24/43
f 20/26/44 19/27/45 18/28/46
f 20/26/47 17/29/48 16/30/49
f 20/26/50 18/28/51 17/29/52
f 12/31/53 11/32/54 10/33/55
f 15/34/56 22/35/57 20/26/58 16/30/59
f 21/36/60 22/35/61 15/34/62 14/37/63
f 9/38/64 13/39/65 12/31/66 10/33/67
f 18/40/68 19/41/69 25/42/70 24/43/71
s 21
f 19/44/72 20/45/73 23/46/74 25/47/75
s 22
f 16/48/76 17/49/77 27/50/78 26/51/79
f 17/49/77 18/52/80 24/53/81 27/50/78
s 21
f 23/46/74 20/45/73 22/54/82 32/55/83
s 23
f 10/56/84 11/57/85 30/58/86 29/59/87
s off
f 11/57/88 12/60/89 28/61/90 30/58/91
s 22
f 26/51/79 31/62/92 15/63/93 16/48/76
s off
f 14/64/94 15/63/95 31/62/96 33/65/97
s 21
f 22/54/82 21/66/98 34/67/99 32/55/83
s off
f 13/68/100 14/69/101 33/70/102 35/71/103
s 23
f 9/72/104 10/73/84 29/74/87 36/75/105
s off
f 12/76/106 13/77/107 35/78/108 28/79/109
f 37/80/110 39/81/111 38/82/112
f 37/80/113 41/83/114 40/84/115
f 37/80/116 38/82/117 41/83/118
f 42/85/119 44/86/120 43/87/121
f 46/88/122 45/89/123 37/80/124 40/84/125
f 34/21/126 45/89/127 46/88/128 47/90/129
f 36/23/130 48/25/131 42/85/132 43/87/133
f 49/91/134 51/92/135 50/93/136
f 49/91/137 53/94/138 52/95/139
f 49/91/140 52/95/141 51/92/142
f 53/94/143 49/91/144 57/96/145 58/97/146
f 54/98/147 56/99/148 55/100/149
f 21/36/150 59/101/151 58/97/152 57/96/153
f 13/39/154 60/102/155 59/101/156 14/37/157
f 9/38/158 56/99/159 54/98/160 60/102/161
f 51/103/162 38/104/163 39/105/164 50/106/165
s 44
f 50/107/166 39/108/167 37/109/168 49/110/169
s 45
f 53/111/170 40/112/171 41/113/172 52/114/173
f 52/114/173 41/113/172 38/115/174 51/116/175
f 46/117/176 40/112/171 53/111/170 58/118/177
s 46
f 56/119/178 43/120/179 44/121/180 55/122/181
s off
f 55/122/182 44/121/183 42/123/184 54/124/185
s 44
f 37/109/168 45/125/186 57/126/187 49/110/169
s off
f 59/127/188 47/128/189 46/117/190 58/118/191
s 44
f 57/126/187 45/125/186 34/67/192 21/66/193
s off
f 60/129/194 48/130/195 47/131/196 59/132/197
s 46
f 9/72/198 36/75/199 43/133/179 56/134/178
s off
f 54/135/200 42/136/201 48/137/202 60/138/203
f 14/37/204 59/101/205 21/36/206
f 9/38/207 60/102/208 13/39/209
f 47/90/210 33/22/211 34/21/212
f 48/25/213 35/24/214 33/22/215 47/90/216
f 65/139/217 68/140/218 67/141/219 66/142/220
f 63/143/221 64/144/222 65/139/223 66/142/224
f 69/145/225 72/146/226 71/147/227 70/148/228
f 72/146/229 69/145/230 62/149/231 61/150/232
s 59
f 72/151/233 66/152/234 67/153/235 71/154/236
f 71/154/236 67/153/235 68/155/237 70/156/238
s 60
f 70/156/239 68/155/240 65/157/241 69/158/242
f 65/157/241 64/159/243 62/160/244 69/158/242
s 59
f 63/161/245 66/152/234 72/151/233 61/162/246
s off
f 73/163/247 76/164/248 75/165/249 74/166/250
f 63/167/251 76/164/252 73/163/253 64/168/254
f 77/169/255 80/170/256 79/171/257 78/172/258
f 78/172/259 61/173/260 62/174/261 77/169/262
s 65
f 78/175/263 79/176/264 75/177/265 76/178/266
f 79/176/264 80/179/267 74/180/268 75/177/265
s 66
f 80/179/269 77/181/270 73/182/271 74/180/272
f 73/182/271 77/181/270 62/183/273 64/184/274
s 65
f 63/185/275 61/186/276 78/175/263 76/178/266
s off
f 89/187/277 90/188/278 91/189/279 92/190/280
f 101/191/281 102/192/282 103/193/283 104/194/284
s 69
f 85/195/285 86/196/286 88/197/287 87/198/288
s 70
f 87/199/289 88/200/290 82/201/291 81/202/292
s off
f 94/203/293 93/204/294 95/205/295 96/206/296
f 97/207/297 98/208/298 99/209/299 100/210/300
s 70
f 81/211/292 82/212/291 90/213/301 89/214/302
s off
f 82/212/303 84/215/304 91/216/305 90/213/306
f 84/215/307 83/217/308 92/218/309 91/216/310
f 83/217/311 81/219/312 89/220/313 92/218/314
s 69
f 86/221/286 85/222/285 104/223/315 103/224/316
s off
f 85/225/317 83/226/318 101/227/319 104/228/320
s 70
f 82/229/291 88/230/290 93/231/321 94/232/322
s 69
f 88/233/287 86/234/286 95/235/323 93/236/324
s off
f 86/234/325 84/237/326 96/238/327 95/235/328
f 84/237/329 82/229/330 94/232/331 96/238/332
s 70
f 87/239/289 81/240/292 98/241/333 97/242/334
s off
f 81/240/335 83/243/336 99/244/337 98/241/338
f 83/243/339 85/245/340 100/246/341 99/244/342
s 69
f 85/245/285 87/247/288 97/248/343 100/246/344
s off
f 84/249/345 102/250/346 101/227/347 83/226/348
f 86/221/349 103/224/350 102/250/351 84/249/352
f 105/251/353 106/252/354 108/253/355 107/254/356
s 84
f 114/255/357 115/256/358 110/257/359 109/258/360
s 85
f 109/258/361 110/257/362 112/259/363 111/260/364
s off
f 117/261/365 118/262/366 119/263/367 120/264/368
s 87
f 116/265/369 112/259/370 110/257/371 115/256/372
s 88
f 111/260/373 113/266/374 114/267/375 109/268/376
f 113/266/374 105/269/377 107/270/378 114/267/375
s 84
f 107/271/379 108/272/380 115/256/358 114/255/357
s 87
f 106/273/381 116/265/369 115/256/372 108/272/382
s off
f 113/266/383 116/265/384 106/273/385 105/269/386
s 85
f 111/274/364 112/275/363 118/276/387 117/277/388
s 87
f 112/275/370 116/278/369 119/279/389 118/276/390
s off
f 116/278/391 113/280/392 120/281/393 119/279/394
s 88
f 113/280/374 111/282/373 117/283/395 120/281/396
s off
f 133/284/397 136/285/398 135/286/399 134/287/400
s 92
f 134/287/401 150/288/402 149/289/403 133/284/404
s off
f 139/290/405 140/291/406 137/292/407 138/293/408
f 139/290/409 142/294/410 141/295/411 140/291/412
f 144/296/413 135/286/414 136/285/415 143/297/416
f 128/298/417 123/299/418 124/300/419 127/301/420
s 97
f 128/298/421 152/302/422 151/303/423 123/299/424
f 156/304/425 155/305/426 147/306/427 148/307/428
s off
f 121/308/429 122/309/430 129/310/431 130/311/432
f 121/308/433 130/311/434 131/312/435 132/313/436
f 125/314/437 126/315/438 127/301/439 124/300/440
s 101
f 123/316/441 134/317/442 135/318/443 124/319/444
f 127/320/445 136/321/446 133/322/447 128/323/448
f 123/316/441 151/324/449 150/325/450 134/317/442
s 102
f 149/326/451 152/327/452 128/323/453 133/322/454
s 101
f 147/328/455 155/329/456 154/330/457 146/331/458
f 121/332/459 139/333/460 138/334/461 122/335/462
f 129/336/463 137/337/464 140/338/465 130/339/466
f 130/339/466 140/338/465 141/340/467 131/341/468
f 131/341/468 141/340/467 142/342/469 132/343/470
f 132/343/470 142/342/469 139/333/460 121/332/459
f 125/344/471 144/345/472 143/346/473 126/347/474
f 126/347/474 143/346/473 136/321/446 127/320/445
f 124/319/444 135/318/443 144/348/472 125/349/471
s 92
f 146/350/475 154/351/476 153/352/477 145/353/478
s 102
f 153/354/479 156/355/480 148/356/481 145/357/482
s 92
f 150/288/402 146/350/475 145/353/478 149/289/403
s 101
f 151/324/449 147/328/455 146/331/458 150/325/450
s 97
f 148/307/428 147/306/427 151/303/423 152/302/422
s 102
f 145/357/482 148/356/481 152/327/452 149/326/451
s 92
f 154/351/476 138/293/483 137/292/484 153/352/477
s 101
f 155/329/456 122/335/462 138/334/461 154/330/457
s 97
f 129/310/485 122/309/486 155/305/426 156/304/425
s 102
f 137/337/487 129/336/488 156/355/480 153/354/479
s off
f 171/358/489 172/359/490 173/360/491
f 171/358/492 174/361/493 175/362/494
f 171/358/495 175/362/496 172/359/497
f 174/361/498 171/358/499 180/363/500 179/364/501
f 176/365/502 177/366/503 178/367/504
f 182/368/505 181/369/506 179/364/507 180/363/508
f 184/370/509 183/371/510 196/372/511
f 184/370/512 177/366/513 176/365/514 183/371/515
f 168/373/516 167/374/517 166/375/518
f 168/373/519 165/376/520 164/377/521
f 168/373/522 166/375/523 165/376/524
f 160/378/525 159/379/526 158/380/527
f 163/381/528 170/382/529 168/373/530 164/377/531
f 169/383/532 170/382/533 163/381/534 162/384/535
f 157/385/536 161/386/537 160/378/538 158/380/539
f 166/387/540 167/388/541 173/389/542 172/390/543
s 119
f 167/391/544 168/392/545 171/393/546 173/394/547
s 120
f 164/395/548 165/396/549 175/397/550 174/398/551
f 165/396/549 166/399/552 172/400/553 175/397/550
s 119
f 171/393/546 168/392/545 170/401/554 180/402/555
s 121
f 158/403/556 159/404/557 178/405/558 177/406/559
s off
f 159/404/560 160/407/561 176/408/562 178/405/563
s 120
f 174/398/551 179/409/564 163/410/565 164/395/548
s off
f 162/411/566 163/410/567 179/409/568 181/412/569
s 119
f 170/401/554 169/413/570 182/414/571 180/402/555
s off
f 161/415/572 162/416/573 181/417/574 183/418/575
s 121
f 157/419/576 158/420/556 177/421/559 184/422/577
s off
f 160/423/578 161/424/579 183/425/580 176/426/581
f 185/427/582 187/428/583 186/429/584
f 185/427/585 189/430/586 188/431/587
f 185/427/588 186/429/589 189/430/590
f 190/432/591 192/433/592 191/434/593
f 194/435/594 193/436/595 185/427/596 188/431/597
f 182/368/598 193/436/599 194/435/600 195/437/601
f 184/370/602 196/372/603 190/432/604 191/434/605
f 197/438/606 199/439/607 198/440/608
f 197/438/609 201/441/610 200/442/611
f 197/438/612 200/442/613 199/439/614
f 201/441/615 197/438/616 205/443/617 206/444/618
f 202/445/619 204/446/620 203/447/621
f 169/383/622 207/448/623 206/444/624 205/443/625
f 161/386/626 208/449/627 207/448/628 162/384/629
f 157/385/630 204/446/631 202/445/632 208/449/633
f 199/450/634 186/451/635 187/452/636 198/453/637
s 142
f 198/454/638 187/455/639 185/456/640 197/457/641
s 143
f 201/458/642 188/459/643 189/460/644 200/461/645
f 200/461/645 189/460/644 186/462/646 199/463/647
f 194/464/648 188/459/643 201/458/642 206/465/649
s 144
f 204/466/650 191/467/651 192/468/652 203/469/653
s off
f 203/469/654 192/468/655 190/470/656 202/471/657
s 142
f 185/456/640 193/472/658 205/473/659 197/457/641
s off
f 207/474/660 195/475/661 194/464/662 206/465/663
s 142
f 205/473/659 193/472/658 182/414/664 169/413/665
s off
f 208/476/666 196/477/667 195/478/668 207/479/669
s 144
f 157/419/670 184/422/671 191/480/651 204/481/650
s off
f 202/482/672 190/483/673 196/484/674 208/485/675
f 162/384/676 207/448/677 169/383/678
f 157/385/679 208/449/680 161/386/681
f 195/437/682 181/369/683 182/368/684
f 196/372/685 183/371/686 181/369/687 195/437/688
s 153
f 269/486/689 272/487/690 271/488/691 270/489/692
f 270/489/692 271/488/691 274/490/693 273/491/694
f 273/492/694 274/493/693 276/494/695 275/495/696
f 275/495/696 276/494/695 278/496/697 277/497/698
f 277/497/698 278/496/697 280/498/699 279/499/700
f 279/499/700 280/498/699 282/500/701 281/501/702
f 281/501/702 282/500/701 284/502/703 283/503/704
f 283/503/704 284/502/703 286/504/705 285/505/706
f 285/505/706 286/504/705 288/506/707 287/507/708
f 287/507/708 288/506/707 290/508/709 289/509/710
f 289/509/710 290/508/709 292/510/711 291/511/712
f 291/511/712 292/510/711 272/487/690 269/486/689
f 272/487/690 294/512/713 293/513/714 271/488/691
f 271/488/691 293/513/714 295/514/715 274/490/693
f 274/493/693 295/515/715 296/516/716 276/494/695
f 276/494/695 296/516/716 297/517/717 278/496/697
f 278/496/697 297/517/717 298/518/718 280/498/699
f 280/498/699 298/518/718 299/519/719 282/500/701
f 282/500/701 299/519/719 300/520/720 284/502/703
f 284/502/703 300/520/720 301/521/721 286/504/705
f 286/504/705 301/521/721 302/522/722 288/506/707
f 288/506/707 302/522/722 303/523/723 290/508/709
f 290/508/709 303/523/723 304/524/724 292/510/711
f 292/510/711 304/524/724 294/512/713 272/487/690
f 294/525/713 306/526/725 305/527/726 293/528/714
f 293/528/714 305/527/726 307/529/727 295/530/715
f 295/531/715 307/532/727 308/533/728 296/534/716
f 296/534/716 308/533/728 309/535/729 297/536/717
f 297/536/717 309/535/729 310/537/730 298/538/718
f 298/538/718 310/537/730 311/539/731 299/540/719
f 299/540/719 311/539/731 312/541/732 300/542/720
f 300/542/720 312/541/732 313/543/733 301/544/721
f 301/544/721 313/543/733 314/545/734 302/546/722
f 302/546/722 314/545/734 315/547/735 303/548/723
f 303/548/723 315/547/735 316/549/736 304/550/724
f 304/550/724 316/549/736 306/526/725 294/525/713
f 306/526/725 318/551/737 317/552/738 305/527/726
f 305/527/726 317/552/738 319/553/739 307/529/727
f 307/532/727 319/554/739 320/555/740 308/533/728
f 308/533/728 320/555/740 321/556/741 309/535/729
f 309/535/729 321/556/741 322/557/742 310/537/730
f 310/537/730 322/557/742 323/558/743 311/539/731
f 311/539/731 323/558/743 324/559/744 312/541/732
f 312/541/732 324/559/744 325/560/745 313/543/733
f 313/543/733 325/560/745 326/561/746 314/545/734
f 314/545/734 326/561/746 327/562/747 315/547/735
f 315/547/735 327/562/747 328/563/748 316/549/736
f 316/549/736 328/563/748 318/551/737 306/526/725
f 209/564/749 210/565/750 222/566/751 221/567/752
f 210/565/750 211/568/753 223/569/754 222/566/751
f 211/570/753 212/571/755 224/572/756 223/573/754
f 212/571/755 213/574/757 225/575/758 224/572/756
f 213/574/757 214/576/759 226/577/760 225/575/758
f 214/576/759 215/578/761 227/579/762 226/577/760
f 215/578/761 216/580/763 228/581/764 227/579/762
f 216/580/763 217/582/765 229/583/766 228/581/764
f 217/582/765 218/584/767 230/585/768 229/583/766
f 218/584/767 219/586/769 231/587/770 230/585/768
f 219/586/769 220/588/771 232/589/772 231/587/770
f 220/588/771 209/564/749 221/567/752 232/589/772
f 221/567/752 222/566/751 234/590/773 233/591/774
f 222/566/751 223/569/754 235/592/775 234/590/773
f 223/573/754 224/572/756 236/593/776 235/594/775
f 224/572/756 225/575/758 237/595/777 236/593/776
f 225/575/758 226/577/760 238/596/778 237/595/777
f 226/577/760 227/579/762 239/597/779 238/596/778
f 227/579/762 228/581/764 240/598/780 239/597/779
f 228/581/764 229/583/766 241/599/781 240/598/780
f 229/583/766 230/585/768 242/600/782 241/599/781
f 230/585/768 231/587/770 243/601/783 242/600/782
f 231/587/770 232/589/772 244/602/784 243/601/783
f 232/589/772 221/567/752 233/591/774 244/602/784
f 233/591/774 234/590/773 246/603/785 245/604/786
f 234/590/773 235/592/775 247/605/787 246/603/785
f 235/594/775 236/593/776 248/606/788 247/607/787
f 236/593/776 237/595/777 249/608/789 248/606/788
f 237/595/777 238/596/778 250/609/790 249/608/789
f 238/596/778 239/597/779 251/610/791 250/609/790
f 239/597/779 240/598/780 252/611/792 251/610/791
f 240/598/780 241/599/781 253/612/793 252/611/792
f 241/599/781 242/600/782 254/613/794 253/612/793
f 242/600/782 243/601/783 255/614/795 254/613/794
f 243/601/783 244/602/784 256/615/796 255/614/795
f 244/602/784 233/591/774 245/604/786 256/615/796
f 245/604/786 246/603/785 258/616/797 257/617/798
f 246/603/785 247/605/787 259/618/799 258/616/797
f 247/607/787 248/606/788 260/619/800 259/620/799
f 248/606/788 249/608/789 261/621/801 260/619/800
f 249/608/789 250/609/790 262/622/802 261/621/801
f 250/609/790 251/610/791 263/623/803 262/622/802
f 251/610/791 252/611/792 264/624/804 263/623/803
f 252/611/792 253/612/793 265/625/805 264/624/804
f 253/612/793 254/613/794 266/626/806 265/625/805
f 254/613/794 255/614/795 267/627/807 266/626/806
f 255/614/795 256/615/796 268/628/808 267/627/807
f 256/615/796 245/604/786 257/617/798 268/628/808
f 209/564/749 352/629/809 351/630/810 210/565/750
f 210/565/750 351/630/810 350/631/811 211/568/753
f 211/570/753 350/632/811 349/633/812 212/571/755
f 212/571/755 349/633/812 348/634/813 213/574/757
f 213/574/757 348/634/813 347/635/814 214/576/759
f 214/576/759 347/635/814 346/636/815 215/578/761
f 215/578/761 346/636/815 345/637/816 216/580/763
f 216/580/763 345/637/816 344/638/817 217/582/765
f 217/582/765 344/638/817 343/639/818 218/584/767
f 218/584/767 343/639/818 342/640/819 219/586/769
f 219/586/769 342/640/819 341/641/820 220/588/771
f 220/588/771 341/641/820 352/629/809 209/564/749
f 258/616/797 330/642/821 329/643/822 257/617/798
f 259/618/799 331/644/823 330/642/821 258/616/797
f 260/619/800 332/645/824 331/646/823 259/620/799
f 261/621/801 333/647/825 332/645/824 260/619/800
f 262/622/802 334/648/826 333/647/825 261/621/801
f 263/623/803 335/649/827 334/648/826 262/622/802
f 264/624/804 336/650/828 335/649/827 263/623/803
f 265/625/805 337/651/829 336/650/828 264/624/804
f 266/626/806 338/652/830 337/651/829 265/625/805
f 267/627/807 339/653/831 338/652/830 266/626/806
f 268/628/808 340/654/832 339/653/831 267/627/807
f 257/617/798 329/643/822 340/654/832 268/628/808
f 330/642/821 317/552/738 318/551/737 329/643/822
f 331/644/823 319/553/739 317/552/738 330/642/821
f 332/645/824 320/555/740 319/554/739 331/646/823
f 333/647/825 321/556/741 320/555/740 332/645/824
f 334/648/826 322/557/742 321/556/741 333/647/825
f 335/649/827 323/558/743 322/557/742 334/648/826
f 336/650/828 324/559/744 323/558/743 335/649/827
f 337/651/829 325/560/745 324/559/744 336/650/828
f 338/652/830 326/561/746 325/560/745 337/651/829
f 339/653/831 327/562/747 326/561/746 338/652/830
f 340/654/832 328/563/748 327/562/747 339/653/831
f 329/643/822 318/551/737 328/563/748 340/654/832
f 342/640/819 289/509/710 291/511/712 341/641/820
f 343/639/818 287/507/708 289/509/710 342/640/819
f 344/638/817 285/505/706 287/507/708 343/639/818
f 345/637/816 283/503/704 285/505/706 344/638/817
f 346/636/815 281/501/702 283/503/704 345/637/816
f 347/635/814 279/499/700 281/501/702 346/636/815
f 348/634/813 277/497/698 279/499/700 347/635/814
f 349/633/812 275/495/696 277/497/698 348/634/813
f 350/632/811 273/492/694 275/495/696 349/633/812
f 351/630/810 270/489/692 273/491/694 350/631/811
f 352/629/809 269/486/689 270/489/692 351/630/810
f 341/641/820 291/511/712 269/486/689 352/629/809
s 154
f 353/655/833 355/656/834 354/657/835
f 362/658/836 363/659/837 360/660/838 361/661/839
f 359/662/840 360/660/838 363/659/837 364/663/841
f 359/662/840 364/663/841 362/658/836 361/661/839
f 365/664/842 366/665/843 360/660/838 359/662/840
f 365/664/842 359/662/840 361/661/839 367/666/844
f 356/667/845 357/668/846 369/669/847 370/670/848
f 369/669/847 357/668/846 358/671/849 368/672/850
f 358/671/849 356/667/845 370/670/848 368/672/850
f 367/666/844 361/661/839 360/660/838 366/665/843
f 355/656/834 353/655/833 362/658/836 364/663/841
f 363/659/837 362/658/836 353/655/833 354/657/835
f 354/657/835 355/656/834 364/663/841 363/659/837
f 358/671/849 357/668/846 365/664/842 367/666/844
f 366/665/843 365/664/842 357/668/846 356/667/845
f 367/666/844 366/665/843 356/667/845 358/671/849
s 155
f 371/673/851 373/674/852 372/675/853
f 372/675/853 373/674/852 375/676/854 374/677/855
f 374/677/855 375/676/854 377/678/856 376/679/857
f 379/680/858 378/681/859 376/679/857 377/678/856
f 378/681/859 379/680/858 381/682/860 380/683/861
f 380/683/861 381/682/860 383/684/862 382/685/863
f 385/686/864 384/687/865 382/685/863 383/684/862
f 384/687/865 385/686/864 387/688/866 386/689/867
f 386/689/867 387/688/866 389/690/868 388/691/869
f 388/691/869 389/690/868 390/692/870
f 391/693/871 390/692/870 389/690/868 387/688/866
f 392/694/872 391/693/871 387/688/866 385/686/864
f 385/686/864 383/684/862 393/695/873 392/694/872
f 394/696/874 393/695/873 383/684/862 381/682/860
f 395/697/875 394/696/874 381/682/860 379/680/858
f 379/680/858 377/678/856 396/698/876 395/697/875
f 397/699/877 396/698/876 377/678/856 375/676/854
f 371/673/851 397/699/877 375/676/854 373/674/852
f 391/693/871 386/689/867 388/691/869 390/692/870
f 392/694/872 384/687/865 386/689/867 391/693/871
f 393/695/873 382/685/863 384/687/865 392/694/872
f 394/696/874 380/683/861 382/685/863 393/695/873
f 395/697/875 378/681/859 380/683/861 394/696/874
f 396/698/876 376/679/857 378/681/859 395/697/875
f 397/699/877 374/677/855 376/679/857 396/698/876
f 371/673/851 372/675/853 374/677/855 397/699/877
