# This file uses centimeters as units for non-parametric coordinates.

g default
v -30.352943 1.052661 -0.054021
v -30.392488 1.052661 -0.093568
v -30.446508 1.052661 -0.108043
v -30.500530 1.052661 -0.093568
v -30.540077 1.052661 -0.054021
v -30.554552 1.052661 0.000000
v -30.540077 1.052661 0.054021
v -30.500530 1.052661 0.093567
v -30.446508 1.052661 0.108042
v -30.392488 1.052661 0.093567
v -30.352943 1.052661 0.054021
v -30.338469 1.052661 0.000000
v -30.324257 1.107238 -0.070582
v -30.375927 1.107238 -0.122252
v -30.446508 1.107238 -0.141165
v -30.517092 1.107238 -0.122252
v -30.568762 1.107238 -0.070582
v -30.587673 1.107238 0.000000
v -30.568762 1.107238 0.070582
v -30.517092 1.107238 0.122252
v -30.446508 1.107238 0.141164
v -30.375927 1.107238 0.122252
v -30.324257 1.107238 0.070582
v -30.305347 1.107238 0.000000
v -30.314186 1.171616 -0.076398
v -30.370113 1.171616 -0.132325
v -30.446508 1.171616 -0.152795
v -30.522907 1.171616 -0.132325
v -30.578835 1.171616 -0.076398
v -30.599304 1.171616 0.000000
v -30.578835 1.171616 0.076397
v -30.522907 1.171616 0.132324
v -30.446508 1.171616 0.152795
v -30.370113 1.171616 0.132324
v -30.314186 1.171616 0.076397
v -30.293715 1.171616 0.000000
v -30.324257 1.235993 -0.070582
v -30.375927 1.235993 -0.122252
v -30.446508 1.235993 -0.141165
v -30.517092 1.235993 -0.122252
v -30.568762 1.235993 -0.070582
v -30.587673 1.235993 0.000000
v -30.568762 1.235993 0.070582
v -30.517092 1.235993 0.122252
v -30.446508 1.235993 0.141164
v -30.375927 1.235993 0.122252
v -30.324257 1.235993 0.070582
v -30.305347 1.235993 0.000000
v -30.352943 1.290570 -0.054021
v -30.392488 1.290570 -0.093568
v -30.446508 1.290570 -0.108043
v -30.500530 1.290570 -0.093568
v -30.540077 1.290570 -0.054021
v -30.554552 1.290570 0.000000
v -30.540077 1.290570 0.054021
v -30.500530 1.290570 0.093567
v -30.446508 1.290570 0.108042
v -30.392488 1.290570 0.093567
v -30.352943 1.290570 0.054021
v -30.338469 1.290570 0.000000
v -30.358873 1.057700 -0.050597
v -30.395914 1.057700 -0.087636
v -30.379847 1.110692 -0.115468
v -30.331043 1.110692 -0.066665
v -30.446508 1.057700 -0.101194
v -30.446508 1.110692 -0.133330
v -30.497107 1.057700 -0.087636
v -30.513174 1.110692 -0.115468
v -30.534147 1.057700 -0.050597
v -30.561977 1.110692 -0.066665
v -30.547703 1.057700 0.000000
v -30.579842 1.110692 0.000000
v -30.534147 1.057700 0.050596
v -30.561977 1.110692 0.066665
v -30.497107 1.057700 0.087636
v -30.513174 1.110692 0.115467
v -30.446508 1.057700 0.101193
v -30.446508 1.110692 0.133330
v -30.395914 1.057700 0.087636
v -30.379847 1.110692 0.115467
v -30.358873 1.057700 0.050597
v -30.331043 1.110692 0.066665
v -30.345316 1.057700 0.000000
v -30.313181 1.110692 0.000000
v -30.374332 1.171616 -0.125016
v -30.321493 1.171616 -0.072179
v -30.446508 1.171616 -0.144356
v -30.518688 1.171616 -0.125016
v -30.571527 1.171616 -0.072179
v -30.590864 1.171616 0.000000
v -30.571527 1.171616 0.072178
v -30.518688 1.171616 0.125016
v -30.446508 1.171616 0.144356
v -30.374332 1.171616 0.125016
v -30.321493 1.171616 0.072178
v -30.302153 1.171616 0.000000
v -30.379847 1.232539 -0.115468
v -30.331043 1.232539 -0.066665
v -30.446508 1.232539 -0.133330
v -30.513174 1.232539 -0.115468
v -30.561977 1.232539 -0.066665
v -30.579842 1.232539 0.000000
v -30.561977 1.232539 0.066665
v -30.513174 1.232539 0.115467
v -30.446508 1.232539 0.133330
v -30.379847 1.232539 0.115467
v -30.331043 1.232539 0.066665
v -30.313181 1.232539 0.000000
v -30.395914 1.285532 -0.087637
v -30.358873 1.285532 -0.050597
v -30.446508 1.285532 -0.101194
v -30.497107 1.285532 -0.087636
v -30.534147 1.285532 -0.050597
v -30.547703 1.285532 0.000000
v -30.534147 1.285532 0.050597
v -30.497107 1.285532 0.087636
v -30.446508 1.285532 0.101193
v -30.395914 1.285532 0.087636
v -30.358873 1.285532 0.050596
v -30.345316 1.285532 0.000000
v -30.357784 1.291402 -0.051226
v -30.395285 1.291402 -0.088725
v -30.446508 1.291402 -0.102451
v -30.497734 1.291402 -0.088725
v -30.535236 1.291402 -0.051226
v -30.548962 1.291402 0.000000
v -30.535236 1.291402 0.051225
v -30.497734 1.291402 0.088725
v -30.446508 1.291402 0.102450
v -30.395287 1.291402 0.088725
v -30.357784 1.291402 0.051225
v -30.344059 1.291402 0.000000
v -30.343996 1.051783 0.000000
v -30.357733 1.051783 0.051256
v -30.395254 1.051783 0.088778
v -30.446508 1.051783 0.102513
v -30.497766 1.051783 0.088778
v -30.535288 1.051783 0.051256
v -30.549023 1.051783 0.000000
v -30.535288 1.051783 -0.051257
v -30.497766 1.051783 -0.088779
v -30.446508 1.051783 -0.102513
v -30.395254 1.051783 -0.088779
v -30.357733 1.051783 -0.051257
v -30.439358 1.373901 0.001517
v -30.452734 1.373885 0.001541
v -30.446188 1.389193 -0.003301
v -30.452204 1.385036 -0.005374
v -30.446138 1.386808 0.005490
v -30.441631 1.385200 -0.004309
v -30.450600 1.660592 -0.004708
v -30.446033 1.660569 0.003530
v -30.441385 1.660453 -0.004686
v -30.446100 1.347092 -0.000949
v -30.452646 1.357314 -0.000197
v -30.439455 1.357305 -0.000196
v -30.439480 1.359997 -0.002496
v -30.452621 1.359994 -0.002481
v -30.446102 1.357848 -0.010544
v -30.446075 1.358515 0.009461
v -30.452621 1.360631 0.002591
v -30.441490 1.360589 0.002938
v -30.325247 1.287251 0.003058
v -30.329088 1.292514 0.000259
v -30.325247 1.287251 -0.003287
v -30.343864 1.282290 0.000259
v -30.343864 1.275637 -0.003287
v -30.358814 1.291961 0.000259
v -30.363626 1.287016 -0.005139
v -30.426168 1.356567 0.000250
v -30.431225 1.351418 -0.004030
v -30.446051 1.371017 0.000330
v -30.446051 1.361838 -0.005359
v -30.466179 1.356809 0.000287
v -30.460640 1.351183 -0.004394
v -30.534864 1.292730 0.000326
v -30.528286 1.287843 -0.004755
v -30.548531 1.284377 0.000426
v -30.548103 1.274174 -0.004805
v -30.562920 1.294623 0.000346
v -30.568338 1.287179 -0.004791
v -30.568382 1.287127 0.004516
v -30.548101 1.274126 0.004529
v -30.528229 1.287778 0.004473
v -30.460594 1.351120 0.004112
v -30.446051 1.361721 0.005103
v -30.431269 1.351360 0.003749
v -30.363688 1.286948 0.004857
v -30.343996 1.274125 0.004528
vt 0.829719 0.637764
vt 0.829719 0.599307
vt 0.911889 0.599307
vt 0.911889 0.637764
vt 0.994058 0.599307
vt 0.994058 0.637764
vt 0.008022 0.637764
vt 0.008022 0.599307
vt 0.090192 0.599307
vt 0.090192 0.637764
vt 0.172361 0.599307
vt 0.172362 0.637763
vt 0.254531 0.599307
vt 0.254531 0.637763
vt 0.336701 0.599307
vt 0.336701 0.637763
vt 0.418871 0.599307
vt 0.418871 0.637763
vt 0.501040 0.599307
vt 0.501040 0.637764
vt 0.583210 0.599307
vt 0.583210 0.637764
vt 0.665380 0.599307
vt 0.665380 0.637764
vt 0.747550 0.599307
vt 0.747550 0.637764
vt 0.829719 0.547744
vt 0.911889 0.547744
vt 0.994058 0.547744
vt 0.008022 0.547744
vt 0.090192 0.547744
vt 0.172361 0.547744
vt 0.254531 0.547744
vt 0.336701 0.547744
vt 0.418871 0.547744
vt 0.501040 0.547744
vt 0.583210 0.547744
vt 0.665380 0.547744
vt 0.747550 0.547744
vt 0.829719 0.992364
vt 0.829719 0.940801
vt 0.911889 0.940801
vt 0.911889 0.992364
vt 0.994058 0.940801
vt 0.994058 0.992364
vt 0.008022 0.992364
vt 0.008022 0.940801
vt 0.090192 0.940801
vt 0.090192 0.992364
vt 0.172361 0.940801
vt 0.172361 0.992364
vt 0.254531 0.940801
vt 0.254531 0.992364
vt 0.336701 0.940801
vt 0.336701 0.992364
vt 0.418871 0.940801
vt 0.418871 0.992364
vt 0.501040 0.940801
vt 0.501040 0.992364
vt 0.583210 0.940801
vt 0.583210 0.992364
vt 0.665380 0.940801
vt 0.665380 0.992364
vt 0.747550 0.940801
vt 0.747550 0.992364
vt 0.829719 0.902344
vt 0.911889 0.902344
vt 0.994058 0.902344
vt 0.008022 0.902344
vt 0.090192 0.902344
vt 0.172362 0.902344
vt 0.254531 0.902344
vt 0.336701 0.902344
vt 0.418871 0.902344
vt 0.501040 0.902344
vt 0.583210 0.902344
vt 0.665380 0.902344
vt 0.747549 0.902344
vt 0.829719 0.649720
vt 0.911889 0.649720
vt 0.911889 0.705170
vt 0.829719 0.705170
vt 0.994058 0.649720
vt 0.994058 0.705170
vt 0.008022 0.649720
vt 0.090192 0.649720
vt 0.090192 0.705170
vt 0.008022 0.705170
vt 0.172362 0.649720
vt 0.172361 0.705170
vt 0.254531 0.649720
vt 0.254531 0.705170
vt 0.336701 0.649720
vt 0.336701 0.705170
vt 0.418871 0.649720
vt 0.418870 0.705170
vt 0.501040 0.649720
vt 0.501040 0.705170
vt 0.583210 0.649720
vt 0.583210 0.705170
vt 0.665380 0.649720
vt 0.665380 0.705170
vt 0.747550 0.649720
vt 0.747550 0.705170
vt 0.911889 0.770579
vt 0.829719 0.770579
vt 0.994058 0.770579
vt 0.090192 0.770579
vt 0.008022 0.770579
vt 0.172361 0.770579
vt 0.254531 0.770579
vt 0.336701 0.770579
vt 0.418871 0.770579
vt 0.501040 0.770579
vt 0.583210 0.770579
vt 0.665380 0.770579
vt 0.747550 0.770579
vt 0.911889 0.835987
vt 0.829719 0.835987
vt 0.994058 0.835987
vt 0.090192 0.835987
vt 0.008022 0.835987
vt 0.172361 0.835987
vt 0.254531 0.835987
vt 0.336701 0.835987
vt 0.418870 0.835987
vt 0.501040 0.835987
vt 0.583210 0.835987
vt 0.665380 0.835987
vt 0.747550 0.835987
vt 0.911889 0.891438
vt 0.829719 0.891438
vt 0.994058 0.891438
vt 0.090192 0.891438
vt 0.008022 0.891438
vt 0.172362 0.891438
vt 0.254531 0.891438
vt 0.336701 0.891438
vt 0.418871 0.891438
vt 0.501040 0.891438
vt 0.583210 0.891438
vt 0.665380 0.891438
vt 0.747550 0.891438
vt 0.829719 0.642419
vt 0.911889 0.642419
vt 0.994058 0.642419
vt 0.008022 0.642419
vt 0.090192 0.642419
vt 0.172362 0.642419
vt 0.254531 0.642419
vt 0.336701 0.642419
vt 0.418871 0.642419
vt 0.501040 0.642419
vt 0.583210 0.642419
vt 0.665380 0.642419
vt 0.747550 0.642419
vt 0.911889 0.897193
vt 0.829719 0.897193
vt 0.994058 0.897193
vt 0.090192 0.897193
vt 0.008022 0.897193
vt 0.172362 0.897193
vt 0.254531 0.897193
vt 0.336701 0.897193
vt 0.418871 0.897193
vt 0.501040 0.897193
vt 0.583210 0.897193
vt 0.665380 0.897193
vt 0.747549 0.897193
vt 1.158639 0.463666
vt 1.158639 0.438945
vt 1.158639 0.411102
vt -0.181308 0.411102
vt -0.181296 0.439111
vt -0.181309 0.463666
vt 1.000993 0.463667
vt 1.000993 0.411101
vt 0.872726 0.411102
vt 0.872726 0.463666
vt 0.872726 0.438945
vt 1.000993 0.437797
vt 0.739647 0.439112
vt 0.739647 0.411101
vt 0.739646 0.463666
vt 0.542108 0.411101
vt 0.542108 0.439087
vt 0.542108 0.463665
vt 0.295811 0.418186
vt 0.295812 0.466025
vt 0.301746 0.441747
vt 0.324561 0.466025
vt 0.324560 0.441746
vt 0.355168 0.466025
vt 0.355167 0.441747
vt 0.460640 0.466025
vt 0.460639 0.441747
vt 0.482341 0.466025
vt 0.482340 0.441747
vt 0.504032 0.466025
vt 0.504032 0.441747
vt 0.608793 0.466025
vt 0.608792 0.441746
vt 0.639914 0.466025
vt 0.640571 0.441747
vt 0.671222 0.466025
vt 0.671222 0.441747
vt 0.671222 0.418186
vt 0.639911 0.418186
vt 0.608792 0.418186
vt 0.504032 0.418186
vt 0.482339 0.418186
vt 0.460639 0.418186
vt 0.355167 0.418186
vt 0.324764 0.418186
vn -0.854345 0.163649 0.493269
vn -0.809638 0.354932 0.467450
vn -0.467446 0.354928 0.809643
vn -0.493263 0.163697 0.854339
vn -0.000007 0.354921 0.934896
vn -0.000010 0.163638 0.986520
vn 0.467438 0.354935 0.809644
vn 0.493257 0.163597 0.854361
vn 0.809639 0.354935 0.467446
vn 0.854361 0.163578 0.493264
vn 0.934895 0.354924 -0.000000
vn 0.986544 0.163496 0.000006
vn 0.809638 0.354936 -0.467447
vn 0.854370 0.163495 -0.493277
vn 0.467440 0.354933 -0.809643
vn 0.493260 0.163606 -0.854358
vn -0.000007 0.354928 -0.934894
vn -0.000009 0.163622 -0.986523
vn -0.467446 0.354931 -0.809641
vn -0.493268 0.163674 -0.854340
vn -0.809636 0.354939 -0.467449
vn -0.854346 0.163642 -0.493269
vn -0.934892 0.354933 -0.000001
vn -0.986535 0.163552 -0.000001
vn -0.866023 -0.000000 0.500005
vn -0.499997 0.000000 0.866027
vn -0.000007 0.000000 1.000000
vn 0.499991 0.000007 0.866031
vn 0.866026 0.000007 0.499998
vn 1.000000 0.000000 -0.000001
vn 0.866027 -0.000000 -0.499998
vn 0.499992 -0.000000 -0.866030
vn -0.000006 0.000000 -1.000000
vn -0.499997 0.000000 -0.866027
vn -0.866023 0.000000 -0.500005
vn -1.000000 -0.000000 0.000000
vn -0.809634 -0.354945 0.467447
vn -0.467444 -0.354935 0.809641
vn -0.000007 -0.354923 0.934896
vn 0.467439 -0.354930 0.809645
vn 0.809641 -0.354927 0.467448
vn 0.934899 -0.354915 -0.000001
vn 0.809641 -0.354928 -0.467448
vn 0.467439 -0.354930 -0.809645
vn -0.000007 -0.354926 -0.934895
vn -0.467446 -0.354931 -0.809641
vn -0.809636 -0.354939 -0.467449
vn -0.934889 -0.354941 -0.000003
vn -0.853763 -0.167690 0.492919
vn -0.492912 -0.167709 0.853763
vn -0.000007 -0.167806 0.985820
vn 0.492905 -0.167692 0.853770
vn 0.853762 -0.167691 0.492920
vn 0.985824 -0.167784 -0.000001
vn 0.853761 -0.167692 -0.492921
vn 0.492905 -0.167692 -0.853770
vn -0.000008 -0.167806 -0.985820
vn -0.492908 -0.167796 -0.853749
vn -0.853747 -0.167765 -0.492921
vn -0.985826 -0.167771 -0.000004
vn 0.478730 -0.833326 -0.276380
vn 0.276393 -0.833326 -0.478721
vn 0.467449 -0.354930 -0.809640
vn 0.809644 -0.354934 -0.467438
vn 0.000002 -0.833322 -0.552788
vn 0.000005 -0.354937 -0.934890
vn -0.276391 -0.833323 -0.478728
vn -0.467442 -0.354939 -0.809640
vn -0.478738 -0.833318 -0.276390
vn -0.809641 -0.354935 -0.467442
vn -0.552818 -0.833302 0.000003
vn -0.934891 -0.354935 0.000002
vn -0.478746 -0.833312 0.276394
vn -0.809641 -0.354936 0.467441
vn -0.276388 -0.833323 0.478729
vn -0.467440 -0.354943 0.809639
vn 0.000002 -0.833316 0.552798
vn 0.000006 -0.354936 0.934891
vn 0.276381 -0.833333 0.478716
vn 0.467447 -0.354928 0.809641
vn 0.478738 -0.833323 0.276375
vn 0.809643 -0.354936 0.467438
vn 0.552812 -0.833306 0.000008
vn 0.934891 -0.354936 0.000002
vn 0.500001 -0.000001 -0.866025
vn 0.866029 0.000001 -0.499994
vn 0.000005 -0.000001 -1.000000
vn -0.499997 0.000001 -0.866027
vn -0.866028 0.000001 -0.499995
vn -1.000000 0.000001 -0.000000
vn -0.866027 0.000001 0.499997
vn -0.499997 0.000001 0.866027
vn 0.000005 -0.000001 1.000000
vn 0.500002 -0.000001 0.866025
vn 0.866028 0.000001 0.499996
vn 1.000000 0.000001 0.000000
vn 0.467449 0.354930 -0.809639
vn 0.809645 0.354933 -0.467438
vn 0.000005 0.354938 -0.934890
vn -0.467444 0.354934 -0.809641
vn -0.809643 0.354931 -0.467443
vn -0.934889 0.354940 0.000001
vn -0.809640 0.354938 0.467442
vn -0.467441 0.354941 0.809639
vn 0.000006 0.354936 0.934891
vn 0.467448 0.354923 0.809643
vn 0.809644 0.354932 0.467439
vn 0.934891 0.354935 0.000002
vn 0.274313 0.836074 -0.475114
vn 0.475131 0.836067 -0.274303
vn 0.000000 0.836073 -0.548618
vn -0.274314 0.836067 -0.475125
vn -0.475128 0.836066 -0.274313
vn -0.548632 0.836064 0.000001
vn -0.475131 0.836063 0.274314
vn -0.274309 0.836073 0.475118
vn 0.000002 0.836074 0.548618
vn 0.274303 0.836079 0.475111
vn 0.475128 0.836071 0.274297
vn 0.548642 0.836057 0.000002
vn -0.475915 -0.835461 0.274791
vn -0.274806 -0.835431 0.475960
vn -0.000009 -0.835472 0.549533
vn 0.274748 -0.835493 0.475883
vn 0.475859 -0.835509 0.274743
vn 0.549391 -0.835565 0.000007
vn 0.475792 -0.835557 -0.274711
vn 0.274752 -0.835493 -0.475881
vn -0.000008 -0.835488 -0.549509
vn -0.274812 -0.835436 -0.475947
vn -0.475909 -0.835461 -0.274799
vn -0.549443 -0.835531 0.000008
vn -0.278481 0.830523 0.482368
vn -0.482328 0.830549 0.278476
vn -0.000007 0.830475 0.557056
vn 0.278466 0.830538 0.482352
vn 0.482339 0.830542 0.278477
vn 0.557036 0.830489 -0.000001
vn 0.482339 0.830542 -0.278478
vn 0.278466 0.830536 -0.482355
vn -0.000006 0.830473 -0.557059
vn -0.278533 0.830463 -0.482442
vn -0.482395 0.830490 -0.278535
vn -0.557009 0.830507 -0.000001
vn 0.001335 0.300970 0.953633
vn 0.001335 0.300970 0.953633
vn 0.001335 0.300970 0.953633
vn -0.579807 0.724074 -0.373551
vn 0.023819 0.732536 0.680312
vn 0.643655 0.670512 -0.368946
vn 0.930171 0.053318 0.363235
vn -0.927991 0.052194 0.368929
vn -0.961744 0.271350 0.037668
vn 0.952551 0.301249 0.043528
vn 0.014075 -0.998683 0.049335
vn -0.006356 -0.245629 -0.969343
vn 0.040763 -0.285898 0.957393
vn -0.925196 0.021650 -0.378871
vn 0.929634 0.040562 -0.366245
vn -0.865642 -0.086546 -0.493127
vn 0.039044 0.122698 0.991676
vn 0.876790 -0.087752 -0.472800
vn -0.007257 0.238643 -0.971080
vn 0.908516 -0.144627 0.392022
vn -0.904690 -0.148779 0.399251
vn 0.807685 0.589614 0.000000
vn 0.807685 0.589614 0.000000
vn 0.807685 0.589614 0.000000
vn -0.531386 0.846810 0.023266
vn 0.254043 -0.383440 -0.887939
vn 0.044215 -0.389034 -0.920162
vn 0.068394 0.997174 0.031084
vn -0.253336 -0.354741 -0.899989
vn 0.623196 0.781265 0.035388
vn -0.280692 -0.363689 -0.888224
vn 0.652990 0.756145 0.043002
vn 0.012167 -0.400840 -0.916067
vn 0.009732 0.998425 0.055250
vn 0.298212 -0.366858 -0.881184
vn -0.644416 0.763393 0.044271
vn 0.307450 -0.371610 -0.876003
vn -0.614794 0.787268 0.047295
vn 0.010739 -0.421113 -0.906945
vn -0.007533 0.998251 0.058643
vn -0.255507 -0.420380 -0.870630
vn 0.556056 0.829732 0.048442
vn -0.808288 0.588787 -0.000465
vn -0.808288 0.588787 -0.000465
vn -0.808288 0.588787 -0.000465
vn 0.010465 -0.463991 0.885778
vn -0.285615 -0.456213 0.842790
vn 0.338040 -0.408038 0.848077
vn 0.326775 -0.403381 0.854694
vn 0.012483 -0.444354 0.895765
vn -0.308772 -0.399790 0.863034
vn -0.303641 -0.406313 0.861808
vn 0.051018 -0.470244 0.881061
vn 0.320756 -0.450259 0.833296
s 1
g polySurface3764
f 61/1/1 64/2/2 63/3/3 62/4/4
f 62/4/4 63/3/3 66/5/5 65/6/6
f 65/7/6 66/8/5 68/9/7 67/10/8
f 67/10/8 68/9/7 70/11/9 69/12/10
f 69/12/10 70/11/9 72/13/11 71/14/12
f 71/14/12 72/13/11 74/15/13 73/16/14
f 73/16/14 74/15/13 76/17/15 75/18/16
f 75/18/16 76/17/15 78/19/17 77/20/18
f 77/20/18 78/19/17 80/21/19 79/22/20
f 79/22/20 80/21/19 82/23/21 81/24/22
f 81/24/22 82/23/21 84/25/23 83/26/24
f 83/26/24 84/25/23 64/2/2 61/1/1
f 64/2/2 86/27/25 85/28/26 63/3/3
f 63/3/3 85/28/26 87/29/27 66/5/5
f 66/8/5 87/30/27 88/31/28 68/9/7
f 68/9/7 88/31/28 89/32/29 70/11/9
f 70/11/9 89/32/29 90/33/30 72/13/11
f 72/13/11 90/33/30 91/34/31 74/15/13
f 74/15/13 91/34/31 92/35/32 76/17/15
f 76/17/15 92/35/32 93/36/33 78/19/17
f 78/19/17 93/36/33 94/37/34 80/21/19
f 80/21/19 94/37/34 95/38/35 82/23/21
f 82/23/21 95/38/35 96/39/36 84/25/23
f 84/25/23 96/39/36 86/27/25 64/2/2
f 86/40/25 98/41/37 97/42/38 85/43/26
f 85/43/26 97/42/38 99/44/39 87/45/27
f 87/46/27 99/47/39 100/48/40 88/49/28
f 88/49/28 100/48/40 101/50/41 89/51/29
f 89/51/29 101/50/41 102/52/42 90/53/30
f 90/53/30 102/52/42 103/54/43 91/55/31
f 91/55/31 103/54/43 104/56/44 92/57/32
f 92/57/32 104/56/44 105/58/45 93/59/33
f 93/59/33 105/58/45 106/60/46 94/61/34
f 94/61/34 106/60/46 107/62/47 95/63/35
f 95/63/35 107/62/47 108/64/48 96/65/36
f 96/65/36 108/64/48 98/41/37 86/40/25
f 98/41/37 110/66/49 109/67/50 97/42/38
f 97/42/38 109/67/50 111/68/51 99/44/39
f 99/47/39 111/69/51 112/70/52 100/48/40
f 100/48/40 112/70/52 113/71/53 101/50/41
f 101/50/41 113/71/53 114/72/54 102/52/42
f 102/52/42 114/72/54 115/73/55 103/54/43
f 103/54/43 115/73/55 116/74/56 104/56/44
f 104/56/44 116/74/56 117/75/57 105/58/45
f 105/58/45 117/75/57 118/76/58 106/60/46
f 106/60/46 118/76/58 119/77/59 107/62/47
f 107/62/47 119/77/59 120/78/60 108/64/48
f 108/64/48 120/78/60 110/66/49 98/41/37
f 1/79/61 2/80/62 14/81/63 13/82/64
f 2/80/62 3/83/65 15/84/66 14/81/63
f 3/85/65 4/86/67 16/87/68 15/88/66
f 4/86/67 5/89/69 17/90/70 16/87/68
f 5/89/69 6/91/71 18/92/72 17/90/70
f 6/91/71 7/93/73 19/94/74 18/92/72
f 7/93/73 8/95/75 20/96/76 19/94/74
f 8/95/75 9/97/77 21/98/78 20/96/76
f 9/97/77 10/99/79 22/100/80 21/98/78
f 10/99/79 11/101/81 23/102/82 22/100/80
f 11/101/81 12/103/83 24/104/84 23/102/82
f 12/103/83 1/79/61 13/82/64 24/104/84
f 13/82/64 14/81/63 26/105/85 25/106/86
f 14/81/63 15/84/66 27/107/87 26/105/85
f 15/88/66 16/87/68 28/108/88 27/109/87
f 16/87/68 17/90/70 29/110/89 28/108/88
f 17/90/70 18/92/72 30/111/90 29/110/89
f 18/92/72 19/94/74 31/112/91 30/111/90
f 19/94/74 20/96/76 32/113/92 31/112/91
f 20/96/76 21/98/78 33/114/93 32/113/92
f 21/98/78 22/100/80 34/115/94 33/114/93
f 22/100/80 23/102/82 35/116/95 34/115/94
f 23/102/82 24/104/84 36/117/96 35/116/95
f 24/104/84 13/82/64 25/106/86 36/117/96
f 25/106/86 26/105/85 38/118/97 37/119/98
f 26/105/85 27/107/87 39/120/99 38/118/97
f 27/109/87 28/108/88 40/121/100 39/122/99
f 28/108/88 29/110/89 41/123/101 40/121/100
f 29/110/89 30/111/90 42/124/102 41/123/101
f 30/111/90 31/112/91 43/125/103 42/124/102
f 31/112/91 32/113/92 44/126/104 43/125/103
f 32/113/92 33/114/93 45/127/105 44/126/104
f 33/114/93 34/115/94 46/128/106 45/127/105
f 34/115/94 35/116/95 47/129/107 46/128/106
f 35/116/95 36/117/96 48/130/108 47/129/107
f 36/117/96 25/106/86 37/119/98 48/130/108
f 37/119/98 38/118/97 50/131/109 49/132/110
f 38/118/97 39/120/99 51/133/111 50/131/109
f 39/122/99 40/121/100 52/134/112 51/135/111
f 40/121/100 41/123/101 53/136/113 52/134/112
f 41/123/101 42/124/102 54/137/114 53/136/113
f 42/124/102 43/125/103 55/138/115 54/137/114
f 43/125/103 44/126/104 56/139/116 55/138/115
f 44/126/104 45/127/105 57/140/117 56/139/116
f 45/127/105 46/128/106 58/141/118 57/140/117
f 46/128/106 47/129/107 59/142/119 58/141/118
f 47/129/107 48/130/108 60/143/120 59/142/119
f 48/130/108 37/119/98 49/132/110 60/143/120
f 1/79/61 144/144/121 143/145/122 2/80/62
f 2/80/62 143/145/122 142/146/123 3/83/65
f 3/85/65 142/147/123 141/148/124 4/86/67
f 4/86/67 141/148/124 140/149/125 5/89/69
f 5/89/69 140/149/125 139/150/126 6/91/71
f 6/91/71 139/150/126 138/151/127 7/93/73
f 7/93/73 138/151/127 137/152/128 8/95/75
f 8/95/75 137/152/128 136/153/129 9/97/77
f 9/97/77 136/153/129 135/154/130 10/99/79
f 10/99/79 135/154/130 134/155/131 11/101/81
f 11/101/81 134/155/131 133/156/132 12/103/83
f 12/103/83 133/156/132 144/144/121 1/79/61
f 50/131/109 122/157/133 121/158/134 49/132/110
f 51/133/111 123/159/135 122/157/133 50/131/109
f 52/134/112 124/160/136 123/161/135 51/135/111
f 53/136/113 125/162/137 124/160/136 52/134/112
f 54/137/114 126/163/138 125/162/137 53/136/113
f 55/138/115 127/164/139 126/163/138 54/137/114
f 56/139/116 128/165/140 127/164/139 55/138/115
f 57/140/117 129/166/141 128/165/140 56/139/116
f 58/141/118 130/167/142 129/166/141 57/140/117
f 59/142/119 131/168/143 130/167/142 58/141/118
f 60/143/120 132/169/144 131/168/143 59/142/119
f 49/132/110 121/158/134 132/169/144 60/143/120
f 122/157/133 109/67/50 110/66/49 121/158/134
f 123/159/135 111/68/51 109/67/50 122/157/133
f 124/160/136 112/70/52 111/69/51 123/161/135
f 125/162/137 113/71/53 112/70/52 124/160/136
f 126/163/138 114/72/54 113/71/53 125/162/137
f 127/164/139 115/73/55 114/72/54 126/163/138
f 128/165/140 116/74/56 115/73/55 127/164/139
f 129/166/141 117/75/57 116/74/56 128/165/140
f 130/167/142 118/76/58 117/75/57 129/166/141
f 131/168/143 119/77/59 118/76/58 130/167/142
f 132/169/144 120/78/60 119/77/59 131/168/143
f 121/158/134 110/66/49 120/78/60 132/169/144
f 134/155/131 81/24/22 83/26/24 133/156/132
f 135/154/130 79/22/20 81/24/22 134/155/131
f 136/153/129 77/20/18 79/22/20 135/154/130
f 137/152/128 75/18/16 77/20/18 136/153/129
f 138/151/127 73/16/14 75/18/16 137/152/128
f 139/150/126 71/14/12 73/16/14 138/151/127
f 140/149/125 69/12/10 71/14/12 139/150/126
f 141/148/124 67/10/8 69/12/10 140/149/125
f 142/147/123 65/7/6 67/10/8 141/148/124
f 143/145/122 62/4/4 65/6/6 142/146/123
f 144/144/121 61/1/1 62/4/4 143/145/122
f 133/156/132 83/26/24 61/1/1 144/144/121
s off
f 145/170/145 147/171/146 146/172/147
s 3
f 151/173/148 152/174/149 153/175/150
f 157/176/151 158/177/152 155/178/153 156/179/154
f 154/180/155 155/178/153 158/177/152 159/181/156
f 154/180/155 159/181/156 157/176/151 156/179/154
f 160/182/157 161/183/158 155/178/153 154/180/155
f 160/182/157 154/180/155 156/179/154 162/184/159
f 148/185/160 149/186/161 152/174/149 151/173/148
f 152/174/149 149/186/161 150/187/162 153/175/150
f 150/187/162 148/185/160 151/173/148 153/175/150
f 162/184/159 156/179/154 155/178/153 161/183/158
f 147/171/163 145/170/164 157/176/151 159/181/156
f 158/177/152 157/176/151 145/170/164 146/172/165
f 146/172/165 147/171/163 159/181/156 158/177/152
f 150/187/162 149/186/161 160/182/157 162/184/159
f 161/183/158 160/182/157 149/186/161 148/185/160
f 162/184/159 161/183/158 148/185/160 150/187/162
s off
f 163/188/166 165/189/167 164/190/168
s 5
f 164/190/169 165/189/170 167/191/171 166/192/172
f 166/192/172 167/191/171 169/193/173 168/194/174
f 171/195/175 170/196/176 168/194/174 169/193/173
f 170/196/176 171/195/175 173/197/177 172/198/178
f 172/198/178 173/197/177 175/199/179 174/200/180
f 177/201/181 176/202/182 174/200/180 175/199/179
f 176/202/182 177/201/181 179/203/183 178/204/184
f 178/204/184 179/203/183 181/205/185 180/206/186
s off
f 180/206/187 181/205/188 182/207/189
s 5
f 183/208/190 182/207/191 181/205/185 179/203/183
f 184/209/192 183/208/190 179/203/183 177/201/181
f 177/201/181 175/199/179 185/210/193 184/209/192
f 186/211/194 185/210/193 175/199/179 173/197/177
f 187/212/195 186/211/194 173/197/177 171/195/175
f 171/195/175 169/193/173 188/213/196 187/212/195
f 189/214/197 188/213/196 169/193/173 167/191/171
f 163/188/198 189/214/197 167/191/171 165/189/170
f 183/208/190 178/204/184 180/206/186 182/207/191
f 184/209/192 176/202/182 178/204/184 183/208/190
f 185/210/193 174/200/180 176/202/182 184/209/192
f 186/211/194 172/198/178 174/200/180 185/210/193
f 187/212/195 170/196/176 172/198/178 186/211/194
f 188/213/196 168/194/174 170/196/176 187/212/195
f 189/214/197 166/192/172 168/194/174 188/213/196
f 163/188/198 164/190/169 166/192/172 189/214/197
