# This file uses centimeters as units for non-parametric coordinates.

g default
v -54.322784 0.788519 -0.095007
v -54.322784 0.788519 0.101039
v -54.322784 0.907473 -0.135609
v -54.322784 0.907473 0.141642
v -54.322784 1.026427 -0.095007
v -54.322784 1.026427 0.101039
v -54.423943 1.026427 0.002313
v -54.423943 0.788519 0.002313
v -54.465843 0.907473 0.002022
v -54.221626 1.026427 0.003569
v -54.221626 0.788519 0.003569
v -54.179718 0.907473 0.003798
v -59.066628 1.824819 -0.003391
v -50.496735 1.871476 -0.003391
v -59.066628 1.834623 0.006414
v -50.496735 1.881280 0.006414
v -59.066628 1.844427 -0.003391
v -50.496735 1.891084 -0.003391
v -59.066628 1.834623 -0.013195
v -50.496735 1.881280 -0.013195
v -54.320213 1.377278 0.006414
v -54.320992 1.386984 -0.003391
v -54.320213 1.377277 -0.013195
v -54.320992 1.367375 -0.003391
v -55.327324 1.377542 0.006414
v -55.326591 1.387248 -0.003391
v -55.327324 1.377542 -0.013195
v -55.326591 1.367640 -0.003391
v -56.304440 1.426531 0.006414
v -56.304398 1.416729 -0.003391
v -56.304440 1.426531 -0.013195
v -56.304398 1.436338 -0.003391
v -53.330978 1.448426 -0.003391
v -53.330948 1.438618 -0.013195
v -53.330978 1.428817 -0.003391
v -53.330948 1.438619 0.006414
v -52.181610 1.568449 0.006414
v -52.186996 1.557583 -0.003391
v -52.181610 1.568449 -0.013195
v -52.186996 1.577191 -0.003391
v -57.373222 1.526772 0.006414
v -57.368408 1.535604 -0.003391
v -57.373222 1.526771 -0.013195
v -57.368408 1.515995 -0.003391
v -55.316601 1.079121 0.103283
v -55.327427 1.079121 -0.103283
v -55.327427 0.745696 -0.103283
v -55.316601 0.745696 0.103283
v -55.223640 1.079121 -0.002381
v -55.223640 0.745696 -0.002381
v -55.420261 1.079121 0.004812
v -55.420261 0.745696 0.004812
v -55.174755 0.858714 -0.003564
v -55.330116 0.858714 -0.154606
v -55.469078 0.858714 0.007203
v -55.313911 0.858714 0.154606
v -55.175564 0.970407 -0.003544
v -55.330070 0.970407 -0.153760
v -55.468273 0.970407 0.007164
v -55.313957 0.970407 0.153760
v -52.189568 0.973861 -0.095007
v -52.189568 0.973861 0.101039
v -52.189568 1.092815 -0.135609
v -52.189568 1.092815 0.141642
v -52.189568 1.211769 -0.095007
v -52.189568 1.211769 0.101039
v -52.290726 1.211769 0.002313
v -52.290726 0.973861 0.002313
v -52.332626 1.092815 0.002022
v -52.088409 1.211769 0.003569
v -52.088409 0.973861 0.003569
v -52.046501 1.092815 0.003798
v -56.306969 0.843978 -0.095007
v -56.306969 0.843978 0.101039
v -56.306969 0.962932 -0.135609
v -56.306969 0.962932 0.141642
v -56.306969 1.081886 -0.095007
v -56.306969 1.081886 0.101039
v -56.408127 1.081886 0.002313
v -56.408127 0.843978 0.002313
v -56.450027 0.962932 0.002022
v -56.205811 1.081886 0.003569
v -56.205811 0.843978 0.003569
v -56.163906 0.962932 0.003798
v -57.368362 1.244124 0.103283
v -57.379189 1.244124 -0.103283
v -57.379189 0.910700 -0.103283
v -57.368362 0.910700 0.103283
v -57.275402 1.244124 -0.002381
v -57.275402 0.910700 -0.002381
v -57.472023 1.244124 0.004812
v -57.472023 0.910700 0.004812
v -57.226517 1.023718 -0.003564
v -57.381878 1.023718 -0.154606
v -57.520840 1.023718 0.007203
v -57.365673 1.023718 0.154606
v -57.227325 1.135410 -0.003544
v -57.381832 1.135410 -0.153760
v -57.520035 1.135410 0.007164
v -57.365719 1.135410 0.153760
v -53.326118 1.153894 0.103283
v -53.336945 1.153894 -0.103283
v -53.336945 0.820469 -0.103283
v -53.326118 0.820469 0.103283
v -53.233154 1.153894 -0.002381
v -53.233154 0.820469 -0.002381
v -53.429779 1.153894 0.004812
v -53.429779 0.820469 0.004812
v -53.184273 0.933487 -0.003564
v -53.339630 0.933487 -0.154606
v -53.478592 0.933487 0.007203
v -53.323425 0.933487 0.154606
v -53.185081 1.045180 -0.003544
v -53.339584 1.045180 -0.153760
v -53.477791 1.045180 0.007164
v -53.323471 1.045180 0.153760
vt 0.253462 0.649720
vt 0.253462 0.770579
vt 0.008022 0.770579
vt 0.008022 0.649720
vt 0.746708 0.649720
vt 0.746709 0.770579
vt 0.501040 0.770579
vt 0.501040 0.649720
vt 0.253462 0.891438
vt 0.008022 0.891438
vt 0.746708 0.891438
vt 0.501040 0.891438
vt 0.994058 0.891438
vt 0.994058 0.649720
vt 0.994058 0.770579
vt -10.089370 0.104823
vt -10.089370 0.074066
vt -5.613787 0.074066
vt -5.622972 0.104823
vt -10.089370 0.141732
vt -5.613787 0.141732
vt -10.089370 0.104823
vt -5.622972 0.104823
vt 11.089370 0.074066
vt 11.089370 0.104823
vt 11.089370 0.141732
vt 11.089370 0.104823
vt 6.736650 0.141732
vt 6.746913 0.104823
vt 6.746913 0.104823
vt 6.736650 0.074066
vt 3.646567 0.074066
vt 3.646471 0.104823
vt 1.242195 0.104823
vt 1.240790 0.074066
vt -2.657806 0.104823
vt -2.657890 0.074066
vt -0.216088 0.074066
vt -0.217417 0.104823
vt -0.216088 0.141732
vt -2.657890 0.141732
vt 3.646567 0.141732
vt 1.240790 0.141732
vt -0.217417 0.104823
vt -2.657806 0.104823
vt 3.646471 0.104823
vt 1.242195 0.104823
vt 0.743828 0.322761
vt 0.993823 0.322761
vt 0.993824 0.421793
vt 0.743828 0.421793
vt 0.010885 0.322761
vt 0.256102 0.322761
vt 0.256102 0.421793
vt 0.010885 0.421793
vt 0.502354 0.322761
vt 0.502354 0.421793
vt 0.256102 0.120600
vt 0.502354 0.120600
vt 0.502354 0.225004
vt 0.256102 0.225004
vt 0.743828 0.120600
vt 0.993824 0.120600
vt 0.993823 0.225004
vt 0.743828 0.225004
vt 0.010885 0.120600
vt 0.010885 0.225004
vt 0.253462 0.649720
vt 0.253462 0.770579
vt 0.008022 0.770579
vt 0.008022 0.649720
vt 0.746708 0.649720
vt 0.746709 0.770579
vt 0.501040 0.770579
vt 0.501040 0.649720
vt 0.253462 0.891438
vt 0.008022 0.891438
vt 0.746708 0.891438
vt 0.501040 0.891438
vt 0.994058 0.891438
vt 0.994058 0.649720
vt 0.994058 0.770579
vt 0.253462 0.649720
vt 0.253462 0.770579
vt 0.008022 0.770579
vt 0.008022 0.649720
vt 0.746708 0.649720
vt 0.746709 0.770579
vt 0.501040 0.770579
vt 0.501040 0.649720
vt 0.253462 0.891438
vt 0.008022 0.891438
vt 0.746708 0.891438
vt 0.501040 0.891438
vt 0.994058 0.891438
vt 0.994058 0.649720
vt 0.994058 0.770579
vt 0.743828 0.322761
vt 0.993823 0.322761
vt 0.993824 0.421793
vt 0.743828 0.421793
vt 0.010885 0.322761
vt 0.256102 0.322761
vt 0.256102 0.421793
vt 0.010885 0.421793
vt 0.502354 0.322761
vt 0.502354 0.421793
vt 0.256102 0.120600
vt 0.502354 0.120600
vt 0.502354 0.225004
vt 0.256102 0.225004
vt 0.743828 0.120600
vt 0.993824 0.120600
vt 0.993823 0.225004
vt 0.743828 0.225004
vt 0.010885 0.120600
vt 0.010885 0.225004
vt 0.743828 0.322761
vt 0.993823 0.322761
vt 0.993824 0.421793
vt 0.743828 0.421793
vt 0.010885 0.322761
vt 0.256102 0.322761
vt 0.256102 0.421793
vt 0.010885 0.421793
vt 0.502354 0.322761
vt 0.502354 0.421793
vt 0.256102 0.120600
vt 0.502354 0.120600
vt 0.502354 0.225004
vt 0.256102 0.225004
vt 0.743828 0.120600
vt 0.993824 0.120600
vt 0.993823 0.225004
vt 0.743828 0.225004
vt 0.010885 0.120600
vt 0.010885 0.225004
vt 0.047882 0.000000
vt 1.000000 0.000000
vt 0.940341 0.965399
vt 0.000000 0.954175
vt 0.031061 0.000000
vt 1.000000 0.000000
vt 0.969656 0.963180
vt 0.000000 0.962444
vt 0.047882 0.000000
vt 1.000000 0.000000
vt 0.940341 0.965399
vt 0.000000 0.954175
vt 0.031061 0.000000
vt 1.000000 0.000000
vt 0.969656 0.963180
vt 0.000000 0.962444
vt 0.047882 0.000000
vt 1.000000 0.000000
vt 0.940358 0.965418
vt 0.000000 0.954175
vt 0.029635 0.000000
vt 1.000000 0.000000
vt 0.969647 0.963171
vt 0.000000 0.963907
vt 0.047571 0.000000
vt 1.000000 0.000000
vt 0.964192 0.936823
vt 0.000000 0.947988
vt 0.000000 0.000000
vt 0.970365 0.000000
vt 1.000000 0.963907
vt 0.030353 0.963171
vt 0.047571 0.000000
vt 1.000000 0.000000
vt 0.964192 0.936823
vt 0.000000 0.947988
vt 0.000000 0.000000
vt 0.970365 0.000000
vt 1.000000 0.963907
vt 0.030353 0.963171
vt 0.047571 0.000000
vt 1.000000 0.000000
vt 0.964210 0.936840
vt 0.000000 0.947988
vt 0.000000 0.000000
vt 0.970365 0.000000
vt 1.000000 0.963907
vt 0.030353 0.963171
vn -0.943189 -0.332242 -0.003192
vn -0.999994 -0.000008 -0.003383
vn 0.003362 -0.000000 -0.999994
vn 0.003181 -0.323038 -0.946381
vn 0.943177 -0.332282 0.002508
vn 0.999996 -0.000008 0.002660
vn -0.003380 -0.000016 0.999994
vn -0.003199 -0.323052 0.946376
vn -0.943194 0.332228 -0.003190
vn 0.003181 0.323038 -0.946381
vn 0.943182 0.332268 0.002510
vn -0.003199 0.323024 0.946385
vn 0.000444 0.002441 0.999997
vn -0.178890 -0.983869 -0.000021
vn -0.136495 -0.990641 -0.000020
vn 0.000835 0.007777 0.999969
vn 0.178890 0.983869 -0.000028
vn 0.136039 0.990704 -0.000029
vn 0.000442 0.002433 -0.999997
vn 0.000834 0.007768 -0.999969
vn 1.000000 0.000000 0.000000
vn 1.000000 0.000000 0.000000
vn 1.000000 0.000000 0.000000
vn 1.000000 0.000000 0.000000
vn -1.000000 0.000310 0.000000
vn -1.000000 0.000310 0.000000
vn -1.000000 0.000310 0.000000
vn -1.000000 0.000310 0.000000
vn -0.000291 0.001569 0.999999
vn -0.182568 0.983193 -0.000028
vn -0.147322 0.989089 -0.000028
vn -0.000788 0.006481 0.999979
vn -0.000290 0.001562 -0.999999
vn -0.000787 0.006474 -0.999979
vn 0.182568 -0.983193 -0.000021
vn 0.147668 -0.989037 -0.000021
vn 0.086910 -0.996216 -0.000021
vn -0.000675 0.006247 0.999980
vn -0.000035 0.003074 0.999995
vn 0.030916 -0.999522 -0.000021
vn 0.000648 0.007259 0.999973
vn -0.071530 -0.997438 -0.000019
vn -0.025245 -0.999681 -0.000020
vn 0.000037 0.003227 0.999995
vn 0.025156 0.999684 -0.000029
vn 0.071780 0.997420 -0.000031
vn -0.087166 0.996194 -0.000027
vn -0.030796 0.999526 -0.000026
vn 0.000037 0.003218 -0.999995
vn 0.000647 0.007247 -0.999974
vn -0.000675 0.006242 -0.999980
vn -0.000034 0.003069 -0.999995
vn 0.975985 0.214382 -0.038652
vn -0.043422 0.224850 -0.973425
vn -0.040054 0.421601 -0.905896
vn 0.913777 0.404548 -0.036772
vn -0.975509 0.214295 0.049604
vn -0.913403 0.404389 0.046517
vn 0.043229 0.224725 0.973463
vn 0.039869 0.421596 0.905907
vn -0.916651 -0.396952 0.046679
vn 0.040054 -0.413962 0.909413
vn 0.043361 -0.213085 0.976071
vn -0.977885 -0.203145 0.049723
vn 0.917036 -0.397098 -0.036860
vn -0.040241 -0.413969 -0.909401
vn -0.043554 -0.213207 -0.976036
vn 0.978364 -0.203233 -0.038725
vn -0.943194 -0.332228 -0.003190
vn -0.999994 -0.000000 -0.003382
vn 0.003363 -0.000008 -0.999994
vn 0.003182 -0.323038 -0.946381
vn 0.943177 -0.332283 0.002508
vn 0.999996 -0.000008 0.002657
vn -0.003382 -0.000000 0.999994
vn -0.003201 -0.323038 0.946381
vn -0.943194 0.332228 -0.003190
vn 0.003184 0.323024 -0.946386
vn 0.943182 0.332268 0.002505
vn -0.003201 0.323038 0.946381
vn -0.943189 -0.332242 -0.003192
vn -0.999994 0.000000 -0.003385
vn 0.003365 0.000000 -0.999994
vn 0.003185 -0.323040 -0.946380
vn 0.943182 -0.332268 0.002510
vn 0.999996 0.000000 0.002662
vn -0.003373 0.000000 0.999994
vn -0.003192 -0.323040 0.946380
vn -0.943189 0.332242 -0.003192
vn 0.003185 0.323040 -0.946380
vn 0.943182 0.332268 0.002510
vn -0.003193 0.323040 0.946380
vn 0.975997 0.214328 -0.038655
vn -0.043411 0.224815 -0.973434
vn -0.040033 0.421598 -0.905899
vn 0.913807 0.404480 -0.036777
vn -0.975511 0.214282 0.049609
vn -0.913384 0.404431 0.046525
vn 0.043234 0.224691 0.973471
vn 0.039877 0.421572 0.905918
vn -0.916660 -0.396933 0.046684
vn 0.040054 -0.413922 0.909431
vn 0.043361 -0.213083 0.976071
vn -0.977880 -0.203171 0.049725
vn 0.917062 -0.397036 -0.036866
vn -0.040231 -0.413925 -0.909422
vn -0.043548 -0.213216 -0.976034
vn 0.978368 -0.203214 -0.038728
vn 0.975992 0.214347 -0.038658
vn -0.043406 0.224825 -0.973432
vn -0.040034 0.421583 -0.905906
vn 0.913795 0.404507 -0.036783
vn -0.975511 0.214282 0.049607
vn -0.913392 0.404414 0.046523
vn 0.043236 0.224701 0.973468
vn 0.039872 0.421593 0.905908
vn -0.916669 -0.396910 0.046684
vn 0.040052 -0.413912 0.909435
vn 0.043364 -0.213080 0.976072
vn -0.977884 -0.203149 0.049725
vn 0.917058 -0.397046 -0.036864
vn -0.040237 -0.413922 -0.909423
vn -0.043547 -0.213196 -0.976038
vn 0.978369 -0.203213 -0.038727
vn 0.000000 -1.000000 0.000000
vn 0.000000 -1.000000 0.000000
vn 0.000000 -1.000000 0.000000
vn 0.000000 -1.000000 0.000000
vn 0.000000 -1.000000 0.000000
vn 0.000000 -1.000000 0.000000
vn 0.000000 -1.000000 0.000000
vn 0.000000 -1.000000 0.000000
vn 0.000000 -1.000000 0.000000
vn 0.000000 -1.000000 0.000000
vn 0.000000 -1.000000 0.000000
vn 0.000000 -1.000000 0.000000
vn 0.000000 -1.000000 0.000000
vn 0.000000 -1.000000 0.000000
vn 0.000000 -1.000000 0.000000
vn 0.000000 -1.000000 0.000000
vn 0.000000 -1.000000 0.000000
vn 0.000000 -1.000000 0.000000
vn 0.000000 -1.000000 0.000000
vn 0.000000 -1.000000 0.000000
vn 0.000000 -1.000000 0.000000
vn 0.000000 -1.000000 0.000000
vn 0.000000 -1.000000 0.000000
vn 0.000000 -1.000000 0.000000
vn 0.000000 1.000000 0.000000
vn 0.000000 1.000000 0.000000
vn 0.000000 1.000000 0.000000
vn 0.000000 1.000000 0.000000
vn 0.000000 1.000000 0.000000
vn 0.000000 1.000000 0.000000
vn 0.000000 1.000000 0.000000
vn 0.000000 1.000000 0.000000
vn 0.000000 1.000000 0.000000
vn 0.000000 1.000000 0.000000
vn 0.000000 1.000000 0.000000
vn 0.000000 1.000000 0.000000
vn 0.000000 1.000000 0.000000
vn 0.000000 1.000000 0.000000
vn 0.000000 1.000000 0.000000
vn 0.000000 1.000000 0.000000
vn 0.000000 1.000000 -0.000000
vn 0.000000 1.000000 -0.000000
vn 0.000000 1.000000 -0.000000
vn 0.000000 1.000000 -0.000000
vn 0.000000 1.000000 0.000000
vn 0.000000 1.000000 0.000000
vn 0.000000 1.000000 0.000000
vn 0.000000 1.000000 0.000000
s 1
g polySurface19532
f 8/1/1 9/2/2 3/3/3 1/4/4
f 11/5/5 12/6/6 4/7/7 2/8/8
f 9/2/2 7/9/9 5/10/10 3/3/3
f 12/6/6 10/11/11 6/12/12 4/7/7
f 2/8/8 4/7/7 9/2/2 8/1/1
f 4/7/7 6/12/12 7/9/9 9/2/2
f 1/14/4 3/15/3 12/6/6 11/5/5
f 3/15/3 5/13/10 10/11/11 12/6/6
s 2
f 15/16/13 13/17/14 44/18/15 41/19/16
f 17/20/17 15/16/13 41/19/16 42/21/18
f 19/22/19 17/20/17 42/21/18 43/23/20
f 13/17/14 19/22/19 43/23/20 44/18/15
s off
f 14/24/21 20/25/22 18/26/23 16/27/24
f 19/22/25 13/17/26 15/16/27 17/20/28
s 2
f 16/27/29 18/26/30 40/28/31 37/29/32
f 18/26/30 20/25/33 39/30/34 40/28/31
f 20/25/33 14/24/35 38/31/36 39/30/34
f 14/24/35 16/27/29 37/29/32 38/31/36
f 35/32/37 36/33/38 21/34/39 24/35/40
f 29/36/41 30/37/42 28/38/43 25/39/44
f 26/40/45 32/41/46 29/36/41 25/39/44
f 21/34/39 36/33/38 33/42/47 22/43/48
f 27/44/49 31/45/50 32/41/46 26/40/45
f 33/42/47 34/46/51 23/47/52 22/43/48
f 28/38/43 30/37/42 31/45/50 27/44/49
f 34/46/51 35/32/37 24/35/40 23/47/52
f 26/40/45 25/39/44 21/34/39 22/43/48
f 23/47/52 27/44/49 26/40/45 22/43/48
f 24/35/40 28/38/43 27/44/49 23/47/52
f 21/34/39 25/39/44 28/38/43 24/35/40
f 30/37/42 29/36/41 41/19/16 44/18/15
f 31/45/50 30/37/42 44/18/15 43/23/20
f 32/41/46 31/45/50 43/23/20 42/21/18
f 29/36/41 32/41/46 42/21/18 41/19/16
f 39/30/34 34/46/51 33/42/47 40/28/31
f 38/31/36 35/32/37 34/46/51 39/30/34
f 36/33/38 35/32/37 38/31/36 37/29/32
f 33/42/47 36/33/38 37/29/32 40/28/31
s 5
f 57/48/53 58/49/54 46/50/55 49/51/56
f 58/52/54 59/53/57 51/54/58 46/55/55
f 59/53/57 60/56/59 45/57/60 51/54/58
f 57/48/53 49/51/56 45/57/60 60/56/59
f 52/58/61 48/59/62 56/60/63 55/61/64
f 50/62/65 47/63/66 54/64/67 53/65/68
f 48/59/62 50/62/65 53/65/68 56/60/63
f 47/66/66 52/58/61 55/61/64 54/67/67
f 56/60/63 53/65/68 57/48/53 60/56/59
f 53/65/68 54/64/67 58/49/54 57/48/53
f 54/67/67 55/61/64 59/53/57 58/52/54
f 55/61/64 56/60/63 60/56/59 59/53/57
s 6
f 68/68/69 69/69/70 63/70/71 61/71/72
f 71/72/73 72/73/74 64/74/75 62/75/76
f 69/69/70 67/76/77 65/77/78 63/70/71
f 72/73/74 70/78/79 66/79/80 64/74/75
f 62/75/76 64/74/75 69/69/70 68/68/69
f 64/74/75 66/79/80 67/76/77 69/69/70
f 61/81/72 63/82/71 72/73/74 71/72/73
f 63/82/71 65/80/78 70/78/79 72/73/74
s 7
f 80/83/81 81/84/82 75/85/83 73/86/84
f 83/87/85 84/88/86 76/89/87 74/90/88
f 81/84/82 79/91/89 77/92/90 75/85/83
f 84/88/86 82/93/91 78/94/92 76/89/87
f 74/90/88 76/89/87 81/84/82 80/83/81
f 76/89/87 78/94/92 79/91/89 81/84/82
f 73/96/84 75/97/83 84/88/86 83/87/85
f 75/97/83 77/95/90 82/93/91 84/88/86
s 8
f 97/98/93 98/99/94 86/100/95 89/101/96
f 98/102/94 99/103/97 91/104/98 86/105/95
f 99/103/97 100/106/99 85/107/100 91/104/98
f 97/98/93 89/101/96 85/107/100 100/106/99
f 92/108/101 88/109/102 96/110/103 95/111/104
f 90/112/105 87/113/106 94/114/107 93/115/108
f 88/109/102 90/112/105 93/115/108 96/110/103
f 87/116/106 92/108/101 95/111/104 94/117/107
f 96/110/103 93/115/108 97/98/93 100/106/99
f 93/115/108 94/114/107 98/99/94 97/98/93
f 94/117/107 95/111/104 99/103/97 98/102/94
f 95/111/104 96/110/103 100/106/99 99/103/97
s 9
f 113/118/109 114/119/110 102/120/111 105/121/112
f 114/122/110 115/123/113 107/124/114 102/125/111
f 115/123/113 116/126/115 101/127/116 107/124/114
f 113/118/109 105/121/112 101/127/116 116/126/115
f 108/128/117 104/129/118 112/130/119 111/131/120
f 106/132/121 103/133/122 110/134/123 109/135/124
f 104/129/118 106/132/121 109/135/124 112/130/119
f 103/136/122 108/128/117 111/131/120 110/137/123
f 112/130/119 109/135/124 113/118/109 116/126/115
f 109/135/124 110/134/123 114/119/110 113/118/109
f 110/137/123 111/131/120 115/123/113 114/122/110
f 111/131/120 112/130/119 116/126/115 115/123/113
s off
f 92/138/125 87/139/126 90/140/127 88/141/128
f 73/142/129 83/143/130 74/144/131 80/145/132
f 52/146/133 47/147/134 50/148/135 48/149/136
f 1/150/137 11/151/138 2/152/139 8/153/140
f 108/154/141 103/155/142 106/156/143 104/157/144
f 62/158/145 68/159/146 61/160/147 71/161/148
f 91/162/149 85/163/150 89/164/151 86/165/152
f 79/166/153 78/167/154 82/168/155 77/169/156
f 51/170/157 45/171/158 49/172/159 46/173/160
f 7/174/161 6/175/162 10/176/163 5/177/164
f 107/178/165 101/179/166 105/180/167 102/181/168
f 67/182/169 66/183/170 70/184/171 65/185/172
