# This file uses centimeters as units for non-parametric coordinates.

g default
v -30.747780 1.191941 -0.059268
v -30.812103 1.191941 -0.138701
v -30.910833 1.191941 -0.165156
v -31.006256 1.191941 -0.128527
v -31.061924 1.191941 -0.042804
v -31.056576 1.191941 0.059267
v -30.992250 1.191941 0.138701
v -30.893522 1.191941 0.165155
v -30.798100 1.191941 0.128526
v -30.742430 1.191941 0.042804
v -30.811745 1.306961 0.111672
v -30.894655 1.306961 0.143498
v -30.980440 1.306961 0.120514
v -31.036327 1.306961 0.051496
v -31.040977 1.306961 -0.037191
v -30.992607 1.306961 -0.111673
v -30.909698 1.306961 -0.143499
v -30.823914 1.306961 -0.120514
v -30.768024 1.306961 -0.051497
v -30.763378 1.306961 0.037191
v -30.811745 1.076921 0.111672
v -30.894655 1.076921 0.143498
v -30.980440 1.076921 0.120514
v -31.036327 1.076921 0.051496
v -31.040977 1.076921 -0.037191
v -30.992607 1.076921 -0.111673
v -30.909698 1.076921 -0.143499
v -30.823914 1.076921 -0.120514
v -30.768024 1.076921 -0.051497
v -30.763378 1.076921 0.037191
v -30.834915 1.019801 0.083059
v -30.896584 1.019801 0.106730
v -30.960386 1.019801 0.089634
v -31.001955 1.019801 0.038301
v -31.005411 1.019801 -0.027662
v -30.969437 1.019801 -0.083059
v -30.907772 1.019801 -0.106730
v -30.843967 1.019801 -0.089635
v -30.802399 1.019801 -0.038301
v -30.798943 1.019801 0.027661
v -30.834915 1.364081 0.083059
v -30.896584 1.364081 0.106730
v -30.960386 1.364081 0.089634
v -31.001955 1.364081 0.038301
v -31.005411 1.364081 -0.027662
v -30.969437 1.364081 -0.083059
v -30.907772 1.364081 -0.106730
v -30.843967 1.364081 -0.089635
v -30.802399 1.364081 -0.038301
v -30.798943 1.364081 0.027661
v -30.801750 1.249451 0.124018
v -30.893826 1.249451 0.159362
v -30.989090 1.249451 0.133836
v -31.051159 1.249451 0.057188
v -31.056318 1.249451 -0.041302
v -31.002604 1.249451 -0.124017
v -30.910530 1.249451 -0.159362
v -30.815262 1.249451 -0.133835
v -30.753197 1.249451 -0.057189
v -30.748034 1.249451 0.041303
v -30.801750 1.134430 0.124018
v -30.893826 1.134430 0.159362
v -30.989090 1.134430 0.133836
v -31.051159 1.134430 0.057188
v -31.056318 1.134430 -0.041302
v -31.002604 1.134430 -0.124017
v -30.910530 1.134430 -0.159362
v -30.815262 1.134430 -0.133835
v -30.753197 1.134430 -0.057189
v -30.748034 1.134430 0.041303
v -30.807871 1.105675 0.116458
v -30.894335 1.105675 0.149650
v -30.983795 1.105675 0.125679
v -31.042078 1.105675 0.053702
v -31.046925 1.105675 -0.038785
v -30.996485 1.105675 -0.116459
v -30.910019 1.105675 -0.149650
v -30.820560 1.105675 -0.125678
v -30.762278 1.105675 -0.053702
v -30.757431 1.105675 0.038785
v -30.801128 1.163186 0.124786
v -30.893772 1.163186 0.160351
v -30.989628 1.163186 0.134665
v -31.052084 1.163186 0.057544
v -31.057276 1.163186 -0.041559
v -31.003227 1.163186 -0.124786
v -30.910582 1.163186 -0.160350
v -30.814724 1.163186 -0.134665
v -30.752272 1.163186 -0.057544
v -30.747078 1.163186 0.041559
v -30.801128 1.220696 0.124786
v -30.893772 1.220696 0.160351
v -30.989628 1.220696 0.134665
v -31.052084 1.220696 0.057544
v -31.057276 1.220696 -0.041559
v -31.003227 1.220696 -0.124786
v -30.910582 1.220696 -0.160350
v -30.814724 1.220696 -0.134665
v -30.752272 1.220696 -0.057544
v -30.747078 1.220696 0.041559
v -30.807871 1.278206 0.116458
v -30.894335 1.278206 0.149650
v -30.983795 1.278206 0.125679
v -31.042078 1.278206 0.053702
v -31.046925 1.278206 -0.038785
v -30.996485 1.278206 -0.116459
v -30.910019 1.278206 -0.149650
v -30.820560 1.278206 -0.125678
v -30.762278 1.278206 -0.053702
v -30.757431 1.278206 0.038785
v -30.824259 1.335521 0.096220
v -30.895699 1.335521 0.123643
v -30.969610 1.335521 0.103838
v -31.017767 1.335521 0.044371
v -31.021770 1.335521 -0.032044
v -30.980097 1.335521 -0.096221
v -30.908657 1.335521 -0.123643
v -30.834743 1.335521 -0.103838
v -30.786589 1.335521 -0.044371
v -30.782583 1.335521 0.032044
v -30.824259 1.048360 0.096220
v -30.895699 1.048360 0.123643
v -30.969610 1.048360 0.103838
v -31.017767 1.048360 0.044371
v -31.021770 1.048360 -0.032044
v -30.980097 1.048360 -0.096221
v -30.908657 1.048360 -0.123643
v -30.834743 1.048360 -0.103838
v -30.786589 1.048360 -0.044371
v -30.782583 1.048360 0.032044
v -30.839260 1.019801 0.077694
v -30.896944 1.019801 0.099835
v -30.956627 1.019801 0.083844
v -30.995510 1.019801 0.035828
v -30.998745 1.019801 -0.025875
v -30.965092 1.019801 -0.077694
v -30.907410 1.019801 -0.099836
v -30.847729 1.019801 -0.083845
v -30.808846 1.019801 -0.035827
v -30.805609 1.019801 0.025875
v -30.839260 1.364081 0.077694
v -30.896944 1.364081 0.099835
v -30.956627 1.364081 0.083844
v -30.995510 1.364081 0.035828
v -30.998745 1.364081 -0.025875
v -30.965092 1.364081 -0.077694
v -30.907410 1.364081 -0.099836
v -30.847729 1.364081 -0.083845
v -30.808846 1.364081 -0.035827
v -30.805609 1.364081 0.025875
v -30.803511 1.191941 0.121844
v -30.893970 1.191941 0.156569
v -30.987570 1.191941 0.131490
v -31.048548 1.191941 0.056186
v -31.053617 1.191941 -0.040578
v -31.000845 1.191941 -0.121844
v -30.910381 1.191941 -0.156569
v -30.816788 1.191941 -0.131490
v -30.755806 1.191941 -0.056186
v -30.750736 1.191941 0.040579
v -30.845850 1.365912 -0.086740
v -30.805622 1.365912 -0.037065
v -30.802275 1.365912 0.026768
v -30.837090 1.365912 0.080377
v -30.896763 1.365912 0.103284
v -30.958508 1.365912 0.086740
v -30.998732 1.365912 0.037065
v -31.002077 1.365912 -0.026768
v -30.967264 1.365912 -0.080377
v -30.907591 1.365912 -0.103283
v -30.805622 1.017969 -0.037065
v -30.845850 1.017969 -0.086740
v -30.907591 1.017969 -0.103283
v -30.967264 1.017969 -0.080377
v -31.002077 1.017969 -0.026768
v -30.998732 1.017969 0.037065
v -30.958508 1.017969 0.086740
v -30.896763 1.017969 0.103284
v -30.837090 1.017969 0.080377
v -30.802275 1.017969 0.026768
v -30.895452 1.441896 0.002834
v -30.908833 1.441880 0.002859
v -30.902285 1.457188 -0.001984
v -30.908302 1.453031 -0.004057
v -30.902233 1.454804 0.006807
v -30.897728 1.453195 -0.002991
v -30.906694 1.662578 -0.003390
v -30.902130 1.662555 0.004848
v -30.897480 1.662439 -0.003368
v -30.902197 1.415087 0.000369
v -30.908743 1.425309 0.001122
v -30.895552 1.425300 0.001122
v -30.895576 1.427992 -0.001179
v -30.908716 1.427989 -0.001163
v -30.902201 1.425843 -0.009226
v -30.902172 1.426510 0.010778
v -30.908718 1.428626 0.003908
v -30.897587 1.428584 0.004255
v -30.781343 1.355246 0.004375
v -30.785187 1.360509 0.001577
v -30.781343 1.355246 -0.001969
v -30.799961 1.350286 0.001577
v -30.799961 1.343632 -0.001969
v -30.814911 1.359956 0.001577
v -30.819723 1.355011 -0.003821
v -30.882265 1.424562 0.001568
v -30.887321 1.419413 -0.002712
v -30.902147 1.439011 0.001648
v -30.902147 1.429833 -0.004042
v -30.922276 1.424804 0.001604
v -30.916737 1.419178 -0.003077
v -30.990961 1.360725 0.001644
v -30.984383 1.355838 -0.003437
v -31.004625 1.352371 0.001744
v -31.004200 1.342168 -0.003488
v -31.019016 1.362618 0.001663
v -31.024435 1.355175 -0.003473
v -31.024477 1.355121 0.005833
v -31.004198 1.342121 0.005846
v -30.984324 1.355773 0.005791
v -30.916689 1.419115 0.005430
v -30.902147 1.429715 0.006420
v -30.887365 1.419355 0.005066
v -30.819786 1.354942 0.006174
v -30.800095 1.342120 0.005846
vt 0.895530 0.151577
vt 0.797236 0.151577
vt 0.797236 0.127623
vt 0.895530 0.127623
vt 0.993823 0.151577
vt 0.993823 0.127623
vt 0.109179 0.151577
vt 0.010885 0.151577
vt 0.010885 0.127623
vt 0.109179 0.127623
vt 0.207472 0.151577
vt 0.207472 0.127623
vt 0.305766 0.151577
vt 0.305766 0.127623
vt 0.404060 0.151577
vt 0.404060 0.127623
vt 0.502354 0.151577
vt 0.502354 0.127623
vt 0.600648 0.151577
vt 0.600648 0.127623
vt 0.698942 0.151577
vt 0.698942 0.127623
vt 0.895530 0.199648
vt 0.797236 0.199648
vt 0.797236 0.175530
vt 0.895530 0.175530
vt 0.993823 0.199648
vt 0.993823 0.175530
vt 0.109179 0.199648
vt 0.010885 0.199648
vt 0.010885 0.175530
vt 0.109179 0.175530
vt 0.207472 0.199648
vt 0.207472 0.175530
vt 0.305766 0.199648
vt 0.305766 0.175530
vt 0.404060 0.199648
vt 0.404060 0.175530
vt 0.502354 0.199648
vt 0.502354 0.175530
vt 0.600648 0.199648
vt 0.600648 0.175530
vt 0.698942 0.199648
vt 0.698942 0.175530
vt 0.895530 0.271999
vt 0.895530 0.296117
vt 0.797236 0.296117
vt 0.797236 0.271999
vt 0.993823 0.271999
vt 0.993823 0.296117
vt 0.109179 0.271999
vt 0.109179 0.296117
vt 0.010885 0.296117
vt 0.010885 0.271999
vt 0.207472 0.271999
vt 0.207472 0.296117
vt 0.305766 0.271999
vt 0.305766 0.296117
vt 0.404060 0.271999
vt 0.404060 0.296117
vt 0.502354 0.271999
vt 0.502354 0.296117
vt 0.600648 0.271999
vt 0.600648 0.296117
vt 0.698942 0.271999
vt 0.698942 0.296117
vt 0.895530 0.392422
vt 0.797236 0.392422
vt 0.797236 0.368468
vt 0.895530 0.368468
vt 0.993823 0.392422
vt 0.993823 0.368468
vt 0.109179 0.392422
vt 0.010885 0.392422
vt 0.010885 0.368468
vt 0.109179 0.368468
vt 0.207472 0.392422
vt 0.207472 0.368468
vt 0.305766 0.392422
vt 0.305766 0.368468
vt 0.404060 0.392422
vt 0.404060 0.368468
vt 0.502354 0.392422
vt 0.502354 0.368468
vt 0.600648 0.392422
vt 0.600648 0.368468
vt 0.698942 0.392422
vt 0.698942 0.368468
vt 0.600648 0.320234
vt 0.600648 0.344351
vt 0.502354 0.344351
vt 0.502354 0.320234
vt 0.404060 0.320234
vt 0.404060 0.344351
vt 0.305766 0.320234
vt 0.305766 0.344351
vt 0.207472 0.320234
vt 0.207472 0.344351
vt 0.109179 0.320234
vt 0.109179 0.344351
vt 0.010885 0.320234
vt 0.010885 0.344351
vt 0.895530 0.320234
vt 0.993823 0.320234
vt 0.993823 0.344351
vt 0.895530 0.344351
vt 0.797236 0.320234
vt 0.797236 0.344351
vt 0.698942 0.320234
vt 0.698942 0.344351
vt 0.600648 0.247882
vt 0.502354 0.247882
vt 0.502354 0.223765
vt 0.600648 0.223765
vt 0.404060 0.247882
vt 0.404060 0.223765
vt 0.305766 0.247882
vt 0.305766 0.223765
vt 0.207472 0.247882
vt 0.207472 0.223765
vt 0.109179 0.247882
vt 0.109179 0.223765
vt 0.010885 0.247882
vt 0.010885 0.223765
vt 0.993823 0.247882
vt 0.895530 0.247882
vt 0.895530 0.223765
vt 0.993823 0.223765
vt 0.797236 0.247882
vt 0.797236 0.223765
vt 0.698942 0.247882
vt 0.698942 0.223765
vt 0.600648 0.416375
vt 0.502354 0.416375
vt 0.404060 0.416375
vt 0.305766 0.416375
vt 0.207472 0.416375
vt 0.109179 0.416375
vt 0.010885 0.416375
vt 0.993823 0.416375
vt 0.895530 0.416375
vt 0.797236 0.416375
vt 0.698942 0.416375
vt 0.502354 0.120600
vt 0.600648 0.120600
vt 0.404060 0.120600
vt 0.305766 0.120600
vt 0.207472 0.120600
vt 0.109179 0.120600
vt 0.010885 0.120600
vt 0.895530 0.120600
vt 0.993824 0.120600
vt 0.797236 0.120600
vt 0.698942 0.120600
vt 0.600648 0.421793
vt 0.502354 0.421793
vt 0.404060 0.421793
vt 0.305766 0.421793
vt 0.207472 0.421793
vt 0.109179 0.421793
vt 0.010885 0.421793
vt 0.993824 0.421793
vt 0.895530 0.421793
vt 0.797236 0.421793
vt 0.698942 0.421793
vt 0.600648 0.115194
vt 0.502354 0.115194
vt 0.502354 0.004921
vt 0.600648 0.004921
vt 0.404060 0.115194
vt 0.404060 0.004921
vt 0.305766 0.115194
vt 0.305766 0.004921
vt 0.207472 0.115194
vt 0.207472 0.004921
vt 0.109179 0.115194
vt 0.109179 0.004921
vt 0.010885 0.115194
vt 0.010885 0.004921
vt 0.993823 0.115194
vt 0.895530 0.115194
vt 0.895530 0.004921
vt 0.993823 0.004921
vt 0.797236 0.115194
vt 0.797236 0.004921
vt 0.698942 0.115194
vt 0.698942 0.004921
vt 0.502354 0.427278
vt 0.600648 0.427278
vt 0.600648 0.537876
vt 0.502354 0.537876
vt 0.404060 0.427278
vt 0.404060 0.537876
vt 0.305766 0.427278
vt 0.305766 0.537876
vt 0.207472 0.427278
vt 0.207472 0.537876
vt 0.109179 0.427278
vt 0.109179 0.537876
vt 0.010885 0.427278
vt 0.010885 0.537876
vt 0.895530 0.427278
vt 0.993823 0.427278
vt 0.993823 0.537876
vt 0.895530 0.537876
vt 0.797236 0.427278
vt 0.797236 0.537876
vt 0.698942 0.427278
vt 0.698942 0.537876
vt 1.111401 0.470728
vt 1.111401 0.448103
vt 1.111401 0.422620
vt -0.114936 0.422620
vt -0.114926 0.448254
vt -0.114937 0.470728
vt 0.967121 0.470729
vt 0.967121 0.422620
vt 0.849730 0.422620
vt 0.849730 0.470728
vt 0.849730 0.448103
vt 0.967121 0.447052
vt 0.727934 0.448255
vt 0.727934 0.422620
vt 0.727934 0.470728
vt 0.547144 0.422620
vt 0.547144 0.448233
vt 0.547144 0.470727
vt 0.321730 0.429104
vt 0.321731 0.472887
vt 0.327161 0.450667
vt 0.348042 0.472887
vt 0.348041 0.450666
vt 0.376054 0.472887
vt 0.376053 0.450667
vt 0.472583 0.472887
vt 0.472583 0.450667
vt 0.492444 0.472887
vt 0.492444 0.450667
vt 0.512296 0.472887
vt 0.512296 0.450667
vt 0.608175 0.472887
vt 0.608174 0.450666
vt 0.636657 0.472887
vt 0.637259 0.450667
vt 0.665311 0.472887
vt 0.665311 0.450667
vt 0.665311 0.429104
vt 0.636654 0.429104
vt 0.608174 0.429104
vt 0.512296 0.429104
vt 0.492443 0.429104
vt 0.472583 0.429104
vt 0.376053 0.429104
vt 0.348228 0.429104
vn 0.458005 -0.541132 -0.705271
vn 0.785093 -0.541119 -0.301361
vn 0.641771 -0.726264 -0.246314
vn 0.374359 -0.726275 -0.576524
vn -0.044012 -0.541118 -0.839794
vn -0.035968 -0.726226 -0.686515
vn -0.529220 -0.541133 -0.653529
vn -0.432650 -0.726222 -0.534243
vn -0.812282 -0.541136 -0.217644
vn -0.664074 -0.726184 -0.177939
vn -0.785091 -0.541119 0.301369
vn -0.641790 -0.726242 0.246331
vn -0.458014 -0.541115 0.705278
vn -0.374391 -0.726237 0.576551
vn 0.044009 -0.541123 0.839792
vn 0.035973 -0.726187 0.686555
vn 0.529230 -0.541118 0.653534
vn 0.432655 -0.726193 0.534278
vn 0.812305 -0.541101 0.217649
vn 0.664079 -0.726181 0.177931
vn 0.525110 -0.265418 -0.808587
vn 0.900090 -0.265448 -0.345507
vn 0.855852 -0.399487 -0.328523
vn 0.499297 -0.399478 -0.768843
vn -0.050458 -0.265414 -0.962813
vn -0.047979 -0.399479 -0.915486
vn -0.606759 -0.265389 -0.749274
vn -0.576932 -0.399461 -0.712447
vn -0.931291 -0.265385 -0.249537
vn -0.885512 -0.399465 -0.237268
vn -0.900095 -0.265438 0.345502
vn -0.855857 -0.399470 0.328531
vn -0.525102 -0.265457 0.808579
vn -0.499299 -0.399479 0.768841
vn 0.050464 -0.265434 0.962808
vn 0.047981 -0.399494 0.915479
vn 0.606750 -0.265435 0.749265
vn 0.576935 -0.399470 0.712440
vn 0.931271 -0.265459 0.249530
vn 0.885508 -0.399473 0.237270
vn 0.544640 -0.000013 -0.838670
vn 0.541912 0.099953 -0.834470
vn 0.928905 0.099944 -0.356576
vn 0.933579 -0.000014 -0.358371
vn -0.052337 -0.000000 -0.998629
vn -0.052077 0.099990 -0.993625
vn -0.629322 0.000000 -0.777145
vn -0.626168 0.100007 -0.773248
vn -0.965925 -0.000009 -0.258822
vn -0.961082 0.100007 -0.257528
vn -0.933581 -0.000014 0.358368
vn -0.928901 0.099994 0.356572
vn -0.544631 -0.000008 0.838676
vn -0.541903 0.099978 0.834473
vn 0.052340 -0.000002 0.998629
vn 0.052077 0.099970 0.993627
vn 0.629319 -0.000010 0.777147
vn 0.626168 0.099944 0.773256
vn 0.965925 -0.000012 0.258824
vn 0.961089 0.099941 0.257528
vn 0.458007 0.541128 -0.705274
vn 0.785094 0.541120 -0.301360
vn 0.855856 0.399479 -0.328522
vn 0.499295 0.399488 -0.768839
vn -0.044012 0.541114 -0.839797
vn -0.047979 0.399487 -0.915483
vn -0.529215 0.541143 -0.653525
vn -0.576926 0.399480 -0.712441
vn -0.812277 0.541146 -0.217640
vn -0.885504 0.399485 -0.237265
vn -0.785090 0.541119 0.301369
vn -0.855859 0.399462 0.328534
vn -0.458014 0.541115 0.705278
vn -0.499302 0.399471 0.768844
vn 0.044008 0.541127 0.839788
vn 0.047982 0.399491 0.915481
vn 0.529219 0.541139 0.653525
vn 0.576932 0.399473 0.712440
vn 0.812295 0.541118 0.217643
vn 0.885510 0.399470 0.237268
vn 0.619079 0.179655 0.764503
vn 0.606754 0.265413 0.749270
vn 0.050465 0.265417 0.962812
vn 0.051487 0.179643 0.982384
vn -0.535774 0.179653 0.825028
vn -0.525106 0.265436 0.808584
vn -0.918391 0.179670 0.352529
vn -0.900101 0.265413 0.345505
vn -0.950208 0.179659 -0.254612
vn -0.931286 0.265406 -0.249533
vn -0.619087 0.179657 -0.764496
vn -0.606754 0.265415 -0.749269
vn -0.051488 0.179663 -0.982380
vn -0.050459 0.265419 -0.962812
vn 0.535780 0.179667 -0.825021
vn 0.525112 0.265417 -0.808586
vn 0.918390 0.179663 -0.352535
vn 0.900098 0.265421 -0.345508
vn 0.950210 0.179660 0.254606
vn 0.931279 0.265432 0.249532
vn 0.626167 -0.099952 0.773256
vn 0.052076 -0.099976 0.993626
vn 0.051486 -0.179657 0.982381
vn 0.619079 -0.179667 0.764501
vn -0.541902 -0.099987 0.834473
vn -0.535773 -0.179663 0.825026
vn -0.928899 -0.100015 0.356571
vn -0.918388 -0.179690 0.352528
vn -0.961079 -0.100039 -0.257527
vn -0.950204 -0.179678 -0.254613
vn -0.626168 -0.100017 -0.773247
vn -0.619087 -0.179657 -0.764496
vn -0.052077 -0.099985 -0.993625
vn -0.051487 -0.179657 -0.982381
vn 0.541911 -0.099977 -0.834468
vn 0.535777 -0.179686 -0.825019
vn 0.928904 -0.099962 -0.356575
vn 0.918387 -0.179683 -0.352534
vn 0.961089 -0.099941 0.257527
vn 0.950210 -0.179660 0.254605
vn 0.432619 0.726233 0.534253
vn 0.035971 0.726190 0.686552
vn -0.374395 0.726235 0.576551
vn -0.641819 0.726215 0.246335
vn -0.664088 0.726174 -0.177930
vn -0.432637 0.726237 -0.534233
vn -0.035964 0.726217 -0.686524
vn 0.374394 0.726229 -0.576559
vn 0.641851 0.726185 -0.246341
vn 0.664095 0.726176 0.177897
vn -0.000012 -1.000000 0.000084
vn -0.000084 -1.000000 -0.000046
vn 0.000086 -1.000000 -0.000019
vn 0.000094 -1.000000 -0.000089
vn 0.000003 -1.000000 0.000011
vn 0.000028 -1.000000 0.000048
vn 0.000015 -1.000000 0.000033
vn -0.000086 -1.000000 0.000070
vn 0.000014 -1.000000 0.000072
vn 0.000010 -1.000000 -0.000064
vn -0.000109 1.000000 -0.000064
vn -0.000010 1.000000 0.000079
vn 0.000063 1.000000 -0.000002
vn 0.000034 1.000000 -0.000062
vn -0.000026 1.000000 0.000016
vn 0.000037 1.000000 0.000063
vn 0.000023 1.000000 0.000020
vn -0.000049 1.000000 0.000016
vn 0.000084 1.000000 0.000038
vn 0.000022 1.000000 -0.000088
vn -0.580568 -0.386047 -0.716874
vn -0.048290 -0.386198 -0.921151
vn -0.052338 0.000000 -0.998630
vn -0.629321 0.000001 -0.777146
vn 0.502443 -0.386114 -0.773607
vn 0.544641 0.000000 -0.838669
vn 0.861192 -0.386067 -0.330606
vn 0.933582 0.000002 -0.358363
vn 0.891025 -0.386090 0.238767
vn 0.965926 0.000002 0.258817
vn 0.580538 -0.386088 0.716876
vn 0.629322 0.000002 0.777145
vn 0.048277 -0.386142 0.921175
vn 0.052332 0.000002 0.998630
vn -0.502400 -0.386135 0.773624
vn -0.544641 -0.000003 0.838670
vn -0.861127 -0.386214 0.330605
vn -0.933579 -0.000004 0.358373
vn -0.891000 -0.386119 -0.238814
vn -0.965927 0.000000 -0.258814
vn -0.048285 0.386195 -0.921153
vn -0.580561 0.386061 -0.716872
vn 0.502431 0.386142 -0.773600
vn 0.861183 0.386103 -0.330587
vn 0.891021 0.386097 0.238768
vn 0.580534 0.386087 0.716880
vn 0.048284 0.386152 0.921171
vn -0.502408 0.386141 0.773616
vn -0.861143 0.386182 0.330598
vn -0.891007 0.386109 -0.238801
vn 0.001392 0.301217 0.953555
vn 0.001392 0.301217 0.953555
vn 0.001392 0.301217 0.953555
vn -0.579367 0.724533 -0.373343
vn 0.023795 0.733119 0.679684
vn 0.643519 0.670682 -0.368875
vn 0.930214 0.053220 0.363139
vn -0.927971 0.052168 0.368983
vn -0.961754 0.271322 0.037606
vn 0.952643 0.300994 0.043303
vn 0.013905 -0.998680 0.049452
vn -0.006543 -0.245777 -0.969304
vn 0.040793 -0.285810 0.957418
vn -0.925181 0.021670 -0.378907
vn 0.929579 0.040330 -0.366409
vn -0.865695 -0.085765 -0.493170
vn 0.039106 0.123484 0.991576
vn 0.876807 -0.087538 -0.472808
vn -0.007411 0.238526 -0.971108
vn 0.908573 -0.144652 0.391882
vn -0.904648 -0.148899 0.399300
vn 0.807832 0.589413 0.000000
vn 0.807832 0.589413 0.000000
vn 0.807832 0.589413 0.000000
vn -0.531336 0.846841 0.023273
vn 0.254024 -0.383469 -0.887932
vn 0.044168 -0.388983 -0.920185
vn 0.068349 0.997175 0.031157
vn -0.253342 -0.354647 -0.900024
vn 0.623175 0.781277 0.035484
vn -0.280619 -0.363724 -0.888233
vn 0.653029 0.756108 0.043045
vn 0.012233 -0.400845 -0.916064
vn 0.009761 0.998422 0.055301
vn 0.298205 -0.366785 -0.881217
vn -0.644406 0.763398 0.044329
vn 0.307412 -0.371572 -0.876032
vn -0.614805 0.787257 0.047344
vn 0.010718 -0.421103 -0.906950
vn -0.007583 0.998249 0.058670
vn -0.255513 -0.420389 -0.870624
vn 0.555973 0.829788 0.048435
vn -0.808252 0.588837 -0.000271
vn -0.808252 0.588837 -0.000271
vn -0.808252 0.588837 -0.000271
vn 0.010454 -0.463998 0.885774
vn -0.285636 -0.456176 0.842802
vn 0.338070 -0.408096 0.848037
vn 0.326829 -0.403438 0.854647
vn 0.012504 -0.444409 0.895737
vn -0.308806 -0.399857 0.862991
vn -0.303741 -0.406385 0.861738
vn 0.050954 -0.470262 0.881055
vn 0.320747 -0.450211 0.833326
s 1
g polySurface3765
f 128/1/1 129/2/2 39/3/3 38/4/4
f 127/5/5 128/1/1 38/4/4 37/6/6
f 126/7/7 127/8/5 37/9/6 36/10/8
f 125/11/9 126/7/7 36/10/8 35/12/10
f 124/13/11 125/11/9 35/12/10 34/14/12
f 123/15/13 124/13/11 34/14/12 33/16/14
f 122/17/15 123/15/13 33/16/14 32/18/16
f 121/19/17 122/17/15 32/18/16 31/20/18
f 130/21/19 121/19/17 31/20/18 40/22/20
f 129/2/2 130/21/19 40/22/20 39/3/3
f 78/23/21 79/24/22 29/25/23 28/26/24
f 77/27/25 78/23/21 28/26/24 27/28/26
f 76/29/27 77/30/25 27/31/26 26/32/28
f 75/33/29 76/29/27 26/32/28 25/34/30
f 74/35/31 75/33/29 25/34/30 24/36/32
f 73/37/33 74/35/31 24/36/32 23/38/34
f 72/39/35 73/37/33 23/38/34 22/40/36
f 71/41/37 72/39/35 22/40/36 21/42/38
f 80/43/39 71/41/37 21/42/38 30/44/40
f 79/24/22 80/43/39 30/44/40 29/25/23
f 2/45/41 98/46/42 99/47/43 1/48/44
f 3/49/45 97/50/46 98/46/42 2/45/41
f 4/51/47 96/52/48 97/53/46 3/54/45
f 5/55/49 95/56/50 96/52/48 4/51/47
f 6/57/51 94/58/52 95/56/50 5/55/49
f 7/59/53 93/60/54 94/58/52 6/57/51
f 8/61/55 92/62/56 93/60/54 7/59/53
f 9/63/57 91/64/58 92/62/56 8/61/55
f 10/65/59 100/66/60 91/64/58 9/63/57
f 1/48/44 99/47/43 100/66/60 10/65/59
f 118/67/61 119/68/62 19/69/63 18/70/64
f 117/71/65 118/67/61 18/70/64 17/72/66
f 116/73/67 117/74/65 17/75/66 16/76/68
f 115/77/69 116/73/67 16/76/68 15/78/70
f 114/79/71 115/77/69 15/78/70 14/80/72
f 113/81/73 114/79/71 14/80/72 13/82/74
f 112/83/75 113/81/73 13/82/74 12/84/76
f 111/85/77 112/83/75 12/84/76 11/86/78
f 120/87/79 111/85/77 11/86/78 20/88/80
f 119/68/62 120/87/79 20/88/80 19/69/63
f 51/89/81 101/90/82 102/91/83 52/92/84
f 53/93/85 52/92/84 102/91/83 103/94/86
f 54/95/87 53/93/85 103/94/86 104/96/88
f 55/97/89 54/95/87 104/96/88 105/98/90
f 56/99/91 55/97/89 105/98/90 106/100/92
f 57/101/93 56/99/91 106/100/92 107/102/94
f 58/103/95 57/104/93 107/105/94 108/106/96
f 59/107/97 58/103/95 108/106/96 109/108/98
f 60/109/99 59/107/97 109/108/98 110/110/100
f 51/89/81 60/109/99 110/110/100 101/90/82
f 81/111/101 82/112/102 62/113/103 61/114/104
f 82/112/102 83/115/105 63/116/106 62/113/103
f 83/115/105 84/117/107 64/118/108 63/116/106
f 84/117/107 85/119/109 65/120/110 64/118/108
f 85/119/109 86/121/111 66/122/112 65/120/110
f 86/121/111 87/123/113 67/124/114 66/122/112
f 87/125/113 88/126/115 68/127/116 67/128/114
f 88/126/115 89/129/117 69/130/118 68/127/116
f 89/129/117 90/131/119 70/132/120 69/130/118
f 90/131/119 81/111/101 61/114/104 70/132/120
f 61/114/104 62/113/103 72/39/35 71/41/37
f 62/113/103 63/116/106 73/37/33 72/39/35
f 63/116/106 64/118/108 74/35/31 73/37/33
f 64/118/108 65/120/110 75/33/29 74/35/31
f 65/120/110 66/122/112 76/29/27 75/33/29
f 66/122/112 67/124/114 77/30/25 76/29/27
f 67/128/114 68/127/116 78/23/21 77/27/25
f 68/127/116 69/130/118 79/24/22 78/23/21
f 69/130/118 70/132/120 80/43/39 79/24/22
f 70/132/120 61/114/104 71/41/37 80/43/39
f 9/63/57 8/61/55 82/112/102 81/111/101
f 8/61/55 7/59/53 83/115/105 82/112/102
f 7/59/53 6/57/51 84/117/107 83/115/105
f 6/57/51 5/55/49 85/119/109 84/117/107
f 5/55/49 4/51/47 86/121/111 85/119/109
f 4/51/47 3/54/45 87/123/113 86/121/111
f 3/49/45 2/45/41 88/126/115 87/125/113
f 2/45/41 1/48/44 89/129/117 88/126/115
f 1/48/44 10/65/59 90/131/119 89/129/117
f 10/65/59 9/63/57 81/111/101 90/131/119
f 91/64/58 51/89/81 52/92/84 92/62/56
f 93/60/54 92/62/56 52/92/84 53/93/85
f 94/58/52 93/60/54 53/93/85 54/95/87
f 95/56/50 94/58/52 54/95/87 55/97/89
f 96/52/48 95/56/50 55/97/89 56/99/91
f 97/53/46 96/52/48 56/99/91 57/101/93
f 98/46/42 97/50/46 57/104/93 58/103/95
f 99/47/43 98/46/42 58/103/95 59/107/97
f 100/66/60 99/47/43 59/107/97 60/109/99
f 91/64/58 100/66/60 60/109/99 51/89/81
f 101/90/82 11/86/78 12/84/76 102/91/83
f 103/94/86 102/91/83 12/84/76 13/82/74
f 104/96/88 103/94/86 13/82/74 14/80/72
f 105/98/90 104/96/88 14/80/72 15/78/70
f 106/100/92 105/98/90 15/78/70 16/76/68
f 107/102/94 106/100/92 16/76/68 17/75/66
f 108/106/96 107/105/94 17/72/66 18/70/64
f 109/108/98 108/106/96 18/70/64 19/69/63
f 110/110/100 109/108/98 19/69/63 20/88/80
f 101/90/82 110/110/100 20/88/80 11/86/78
f 41/133/121 42/134/122 112/83/75 111/85/77
f 42/134/122 43/135/123 113/81/73 112/83/75
f 43/135/123 44/136/124 114/79/71 113/81/73
f 44/136/124 45/137/125 115/77/69 114/79/71
f 45/137/125 46/138/126 116/73/67 115/77/69
f 46/138/126 47/139/127 117/74/65 116/73/67
f 47/140/127 48/141/128 118/67/61 117/71/65
f 48/141/128 49/142/129 119/68/62 118/67/61
f 49/142/129 50/143/130 120/87/79 119/68/62
f 50/143/130 41/133/121 111/85/77 120/87/79
f 21/42/38 22/40/36 122/17/15 121/19/17
f 22/40/36 23/38/34 123/15/13 122/17/15
f 23/38/34 24/36/32 124/13/11 123/15/13
f 24/36/32 25/34/30 125/11/9 124/13/11
f 25/34/30 26/32/28 126/7/7 125/11/9
f 26/32/28 27/31/26 127/8/5 126/7/7
f 27/28/26 28/26/24 128/1/1 127/5/5
f 28/26/24 29/25/23 129/2/2 128/1/1
f 29/25/23 30/44/40 130/21/19 129/2/2
f 30/44/40 21/42/38 121/19/17 130/21/19
f 31/20/18 32/18/16 178/144/131 179/145/132
f 32/18/16 33/16/14 177/146/133 178/144/131
f 33/16/14 34/14/12 176/147/134 177/146/133
f 34/14/12 35/12/10 175/148/135 176/147/134
f 35/12/10 36/10/8 174/149/136 175/148/135
f 36/10/8 37/9/6 173/150/137 174/149/136
f 37/6/6 38/4/4 172/151/138 173/152/137
f 38/4/4 39/3/3 171/153/139 172/151/138
f 39/3/3 40/22/20 180/154/140 171/153/139
f 40/22/20 31/20/18 179/145/132 180/154/140
f 42/134/122 41/133/121 164/155/141 165/156/142
f 43/135/123 42/134/122 165/156/142 166/157/143
f 44/136/124 43/135/123 166/157/143 167/158/144
f 45/137/125 44/136/124 167/158/144 168/159/145
f 46/138/126 45/137/125 168/159/145 169/160/146
f 47/139/127 46/138/126 169/160/146 170/161/147
f 48/141/128 47/140/127 170/162/147 161/163/148
f 49/142/129 48/141/128 161/163/148 162/164/149
f 50/143/130 49/142/129 162/164/149 163/165/150
f 41/133/121 50/143/130 163/165/150 164/155/141
f 131/166/151 132/167/152 152/168/153 151/169/154
f 132/167/152 133/170/155 153/171/156 152/168/153
f 133/170/155 134/172/157 154/173/158 153/171/156
f 134/172/157 135/174/159 155/175/160 154/173/158
f 135/174/159 136/176/161 156/177/162 155/175/160
f 136/176/161 137/178/163 157/179/164 156/177/162
f 137/180/163 138/181/165 158/182/166 157/183/164
f 138/181/165 139/184/167 159/185/168 158/182/166
f 139/184/167 140/186/169 160/187/170 159/185/168
f 140/186/169 131/166/151 151/169/154 160/187/170
f 142/188/171 141/189/172 151/190/154 152/191/153
f 143/192/173 142/188/171 152/191/153 153/193/156
f 144/194/174 143/192/173 153/193/156 154/195/158
f 145/196/175 144/194/174 154/195/158 155/197/160
f 146/198/176 145/196/175 155/197/160 156/199/162
f 147/200/177 146/198/176 156/199/162 157/201/164
f 148/202/178 147/203/177 157/204/164 158/205/166
f 149/206/179 148/202/178 158/205/166 159/207/168
f 150/208/180 149/206/179 159/207/168 160/209/170
f 141/189/172 150/208/180 160/209/170 151/190/154
f 162/164/149 161/163/148 148/202/178 149/206/179
f 163/165/150 162/164/149 149/206/179 150/208/180
f 164/155/141 163/165/150 150/208/180 141/189/172
f 165/156/142 164/155/141 141/189/172 142/188/171
f 166/157/143 165/156/142 142/188/171 143/192/173
f 167/158/144 166/157/143 143/192/173 144/194/174
f 168/159/145 167/158/144 144/194/174 145/196/175
f 169/160/146 168/159/145 145/196/175 146/198/176
f 170/161/147 169/160/146 146/198/176 147/200/177
f 161/163/148 170/162/147 147/203/177 148/202/178
f 172/151/138 171/153/139 139/184/167 138/181/165
f 173/152/137 172/151/138 138/181/165 137/180/163
f 174/149/136 173/150/137 137/178/163 136/176/161
f 175/148/135 174/149/136 136/176/161 135/174/159
f 176/147/134 175/148/135 135/174/159 134/172/157
f 177/146/133 176/147/134 134/172/157 133/170/155
f 178/144/131 177/146/133 133/170/155 132/167/152
f 179/145/132 178/144/131 132/167/152 131/166/151
f 180/154/140 179/145/132 131/166/151 140/186/169
f 171/153/139 180/154/140 140/186/169 139/184/167
s off
f 181/210/181 183/211/182 182/212/183
s 3
f 187/213/184 188/214/185 189/215/186
f 193/216/187 194/217/188 191/218/189 192/219/190
f 190/220/191 191/218/189 194/217/188 195/221/192
f 190/220/191 195/221/192 193/216/187 192/219/190
f 196/222/193 197/223/194 191/218/189 190/220/191
f 196/222/193 190/220/191 192/219/190 198/224/195
f 184/225/196 185/226/197 188/214/185 187/213/184
f 188/214/185 185/226/197 186/227/198 189/215/186
f 186/227/198 184/225/196 187/213/184 189/215/186
f 198/224/195 192/219/190 191/218/189 197/223/194
f 183/211/199 181/210/200 193/216/187 195/221/192
f 194/217/188 193/216/187 181/210/200 182/212/201
f 182/212/201 183/211/199 195/221/192 194/217/188
f 186/227/198 185/226/197 196/222/193 198/224/195
f 197/223/194 196/222/193 185/226/197 184/225/196
f 198/224/195 197/223/194 184/225/196 186/227/198
s off
f 199/228/202 201/229/203 200/230/204
s 5
f 200/230/205 201/229/206 203/231/207 202/232/208
f 202/232/208 203/231/207 205/233/209 204/234/210
f 207/235/211 206/236/212 204/234/210 205/233/209
f 206/236/212 207/235/211 209/237/213 208/238/214
f 208/238/214 209/237/213 211/239/215 210/240/216
f 213/241/217 212/242/218 210/240/216 211/239/215
f 212/242/218 213/241/217 215/243/219 214/244/220
f 214/244/220 215/243/219 217/245/221 216/246/222
s off
f 216/246/223 217/245/224 218/247/225
s 5
f 219/248/226 218/247/227 217/245/221 215/243/219
f 220/249/228 219/248/226 215/243/219 213/241/217
f 213/241/217 211/239/215 221/250/229 220/249/228
f 222/251/230 221/250/229 211/239/215 209/237/213
f 223/252/231 222/251/230 209/237/213 207/235/211
f 207/235/211 205/233/209 224/253/232 223/252/231
f 225/254/233 224/253/232 205/233/209 203/231/207
f 199/228/234 225/254/233 203/231/207 201/229/206
f 219/248/226 214/244/220 216/246/222 218/247/227
f 220/249/228 212/242/218 214/244/220 219/248/226
f 221/250/229 210/240/216 212/242/218 220/249/228
f 222/251/230 208/238/214 210/240/216 221/250/229
f 223/252/231 206/236/212 208/238/214 222/251/230
f 224/253/232 204/234/210 206/236/212 223/252/231
f 225/254/233 202/232/208 204/234/210 224/253/232
f 199/228/234 200/230/205 202/232/208 225/254/233
