# This file uses centimeters as units for non-parametric coordinates.

g default
v -34.474819 0.561846 0.443153
v -32.329002 0.561846 0.486187
v -34.447903 0.663556 0.427703
v -32.416042 0.682723 0.430575
v -34.447903 0.663556 -0.427703
v -32.416042 0.682723 -0.430575
v -34.474819 0.561846 -0.443153
v -32.329002 0.561846 -0.486187
v -33.625439 0.682723 -0.432360
v -33.624611 0.561846 -0.488208
v -33.624611 0.561846 0.488208
v -33.625439 0.682723 0.432360
v -33.819767 0.702889 0.464327
v -33.819767 0.702889 -0.464327
v -33.819199 0.561846 -0.512353
v -33.819199 0.561846 0.512353
v -34.130993 0.744830 0.469597
v -34.130993 0.744830 -0.469597
v -34.150753 0.561846 -0.490350
v -34.150753 0.561846 0.490350
v -34.187603 0.664708 0.419991
v -34.187603 0.664708 -0.419991
v -34.203175 0.561846 -0.467598
v -34.203175 0.561846 0.467598
v -34.446934 0.704979 0.283914
v -34.474819 0.561846 0.286769
v -34.187603 0.719220 0.278795
v -34.187603 0.719220 -0.279417
v -34.446934 0.704979 -0.284548
v -34.474819 0.561846 -0.287409
vt 0.375000 0.000000
vt 0.625000 0.000000
vt 0.375000 0.250000
vt 0.625000 0.250000
vt 0.375000 0.500000
vt 0.625000 0.500000
vt 0.375000 0.750000
vt 0.625000 0.750000
vt 0.375000 1.000000
vt 0.625000 1.000000
vt 0.875000 0.000000
vt 0.875000 0.250000
vt 0.125000 0.000000
vt 0.125000 0.250000
vt 0.460046 0.500000
vt 0.460046 0.750000
vt 0.460046 0.000000
vt 0.460046 1.000000
vt 0.460046 0.250000
vt 0.443432 0.250000
vt 0.443432 0.500000
vt 0.443432 0.750000
vt 0.443432 0.000000
vt 0.443432 1.000000
vt 0.404570 0.250000
vt 0.404570 0.500000
vt 0.404570 0.750000
vt 0.404570 0.000000
vt 0.404570 1.000000
vt 0.399787 0.250000
vt 0.399787 0.500000
vt 0.399787 0.750000
vt 0.399787 0.000000
vt 0.399787 1.000000
vt 0.330889 0.250000
vt 0.375000 0.294111
vt 0.330889 0.000000
vt 0.375000 0.955889
vt 0.399787 0.294111
vt 0.399787 0.456069
vt 0.168931 0.250000
vt 0.375000 0.456069
vt 0.168931 0.000000
vt 0.375000 0.793931
vn -0.677582 -0.323070 0.660688
vn -0.226100 -0.805582 0.547647
vn -0.468585 0.596162 0.651935
vn -0.463621 0.663440 0.587284
vn -0.368476 0.919141 0.139301
vn -0.648806 0.752881 0.110547
vn -0.463486 0.663103 -0.587772
vn -0.468468 0.595789 -0.652360
vn -0.226101 -0.805581 -0.547647
vn -0.677547 -0.323040 -0.660738
vn -0.776304 -0.630266 0.010812
vn -0.776307 -0.630262 -0.010858
vn 0.346653 0.854354 0.387185
vn 0.667032 0.002820 0.745024
vn 0.667032 0.002821 -0.745024
vn 0.346653 0.854354 -0.387185
vn 0.076773 0.833184 -0.547641
vn 0.069488 -0.552772 -0.830431
vn 0.069488 -0.552771 0.830431
vn 0.076773 0.833184 0.547640
vn 0.117339 0.797867 0.591304
vn 0.117340 0.797866 -0.591305
vn 0.058717 -0.600092 -0.797773
vn 0.058717 -0.600091 0.797774
vn -0.466768 0.738443 0.486650
vn -0.466766 0.738338 -0.486813
vn -0.280645 -0.646754 -0.709188
vn -0.280645 -0.646756 0.709187
vn -0.368517 0.919041 -0.139853
vn -0.648826 0.752798 -0.110995
s 1
g pCube19
f 1/1/1 24/33/2 21/30/3 3/3/4
f 3/3/4 21/30/3 27/39/5 25/36/6
f 5/5/7 22/31/8 23/32/9 7/7/10
f 23/32/9 24/34/2 26/38/11 30/44/12
f 4/4/13 2/2/14 8/11/15 6/12/16
f 26/37/11 1/1/1 3/3/4 25/35/6
f 9/15/17 6/6/16 8/8/15 10/16/18
f 2/10/14 11/18/19 10/16/18 8/8/15
f 12/19/20 11/17/19 2/2/14 4/4/13
f 12/19/20 4/4/13 6/6/16 9/15/17
f 13/20/21 12/19/20 9/15/17 14/21/22
f 15/22/23 14/21/22 9/15/17 10/16/18
f 11/18/19 16/24/24 15/22/23 10/16/18
f 13/20/21 16/23/24 11/17/19 12/19/20
f 17/25/25 13/20/21 14/21/22 18/26/26
f 19/27/27 18/26/26 14/21/22 15/22/23
f 16/24/24 20/29/28 19/27/27 15/22/23
f 17/25/25 20/28/28 16/23/24 13/20/21
f 28/40/29 18/26/26 22/31/8
f 23/32/9 22/31/8 18/26/26 19/27/27
f 20/29/28 24/34/2 23/32/9 19/27/27
f 21/30/3 24/33/2 20/28/28 17/25/25
f 30/43/12 26/37/11 25/35/6 29/41/30
f 25/36/6 27/39/5 28/40/29 29/42/30
f 29/42/30 28/40/29 22/31/8 5/5/7
f 7/13/10 30/43/12 29/41/30 5/14/7
f 7/7/10 23/32/9 30/44/12
f 27/39/5 21/30/3 17/25/25
f 27/39/5 17/25/25 18/26/26 28/40/29
f 26/38/11 24/34/2 1/9/1
