# This file uses centimeters as units for non-parametric coordinates.

g default
v -34.529343 0.665250 0.419670
v -34.552120 0.642472 0.419670
v -34.529343 0.642472 0.442448
v -34.529343 0.642472 -0.441394
v -34.552120 0.642472 -0.418616
v -34.529343 0.665250 -0.418616
v -34.529343 0.562662 0.442448
v -34.552120 0.562662 0.419670
v -34.552120 0.562662 -0.418616
v -34.529343 0.562662 -0.441394
v -33.920265 0.562662 0.442448
v -33.920265 0.642472 0.442448
v -33.920265 0.665250 0.419670
v -33.920265 0.665250 -0.418616
v -33.920265 0.642472 -0.441394
v -33.920265 0.562662 -0.441394
v -32.587593 0.679515 0.380034
v -32.424225 0.585800 0.397052
v -32.581619 0.585800 0.488178
v -34.261711 0.685333 0.381462
v -34.225365 0.598291 0.487537
v -33.269356 0.585800 0.494332
v -33.257175 0.679961 0.380277
v -33.904476 0.585801 0.480015
v -33.876312 0.675528 0.380278
v -32.585117 0.620918 0.462358
v -32.453796 0.620918 0.382017
v -32.588337 0.665408 0.440478
v -32.483505 0.665408 0.379307
v -32.472839 0.587855 0.452854
v -34.205826 0.698915 0.394297
v -34.261711 0.675375 0.442811
v -34.148155 0.588523 0.497953
v -34.250519 0.624388 0.478055
v -32.882751 0.585800 0.494334
v -33.257175 0.620918 0.467008
v -32.878189 0.675527 0.380276
v -33.257175 0.670998 0.441448
v -33.632603 0.585801 0.494332
v -33.887699 0.620918 0.467008
v -33.614239 0.675528 0.380277
v -33.878281 0.666420 0.441448
v -32.589752 0.561086 0.481645
v -32.427341 0.561086 0.389574
v -34.266922 0.664579 0.375903
v -34.231800 0.572952 0.458966
v -33.926796 0.561086 0.473809
v -33.285576 0.561086 0.488126
v -34.165192 0.630288 0.493618
v -34.199322 0.688473 0.457569
v -32.488335 0.619675 0.441816
v -32.514675 0.662081 0.421885
v -32.878189 0.620918 0.467008
v -32.878189 0.666420 0.441447
v -33.614239 0.620918 0.467008
v -33.614239 0.666420 0.441448
v -32.476357 0.565779 0.449428
v -34.266918 0.664364 0.419571
v -34.145485 0.565041 0.482027
v -34.250534 0.604285 0.441689
v -32.894897 0.561086 0.488125
v -33.652138 0.561086 0.488126
v -33.946678 0.565040 0.493563
v -33.924133 0.589706 0.500009
v -33.906940 0.630839 0.495565
v -33.896137 0.684135 0.459415
v -33.894165 0.694803 0.395904
v -34.199322 0.688473 -0.457570
v -34.165192 0.630288 -0.493618
v -33.906940 0.630839 -0.495566
v -33.896137 0.684135 -0.459417
v -34.250526 0.624388 -0.478056
v -34.261711 0.675375 -0.442811
v -34.225365 0.598291 -0.487538
v -34.148155 0.588523 -0.497954
v -33.924133 0.589706 -0.500009
v -34.261711 0.685333 -0.381464
v -34.205826 0.698915 -0.394298
v -33.894165 0.694803 -0.395905
v -32.483505 0.665407 -0.379310
v -32.453796 0.620918 -0.382020
v -32.424232 0.585800 -0.397054
v -32.587593 0.679515 -0.380037
v -32.588337 0.665407 -0.440480
v -32.585117 0.620918 -0.462360
v -32.488335 0.619674 -0.441818
v -32.514675 0.662080 -0.421887
v -32.581619 0.585800 -0.488181
v -32.472839 0.587855 -0.452857
v -32.878189 0.620918 -0.467009
v -32.878189 0.666419 -0.441450
v -33.257175 0.620918 -0.467009
v -33.257175 0.670998 -0.441450
v -33.269356 0.585800 -0.494335
v -32.882751 0.585800 -0.494336
v -32.878189 0.675527 -0.380279
v -33.257175 0.679961 -0.380279
v -33.614239 0.620918 -0.467009
v -33.614239 0.666420 -0.441450
v -33.887699 0.620918 -0.467009
v -33.878281 0.666420 -0.441449
v -33.904476 0.585801 -0.480018
v -33.632603 0.585801 -0.494335
v -33.614239 0.675528 -0.380279
v -33.876312 0.675528 -0.380279
v -32.589752 0.561086 -0.481990
v -32.476357 0.565779 -0.449773
v -32.427341 0.561086 -0.389918
v -34.266922 0.664579 -0.376247
v -34.266918 0.664364 -0.419917
v -34.231800 0.572952 -0.459311
v -34.145485 0.565041 -0.485994
v -33.946678 0.565040 -0.493908
v -34.250534 0.604285 -0.442033
v -33.285583 0.561086 -0.488472
v -32.894897 0.561086 -0.488472
v -33.926796 0.561086 -0.474154
v -33.652138 0.561086 -0.488472
v -32.419678 0.561086 0.145540
v -32.417221 0.585800 0.148654
v -32.448608 0.620918 0.143264
v -32.482521 0.666420 0.143264
v -32.587349 0.679771 0.143264
v -32.878189 0.685397 0.156731
v -33.257175 0.678564 0.173972
v -33.614239 0.684616 0.192712
v -33.874928 0.678564 0.218212
v -33.894165 0.698359 0.227521
v -34.205826 0.743040 0.273763
v -34.261711 0.729298 0.264557
v -34.266922 0.705392 0.260569
v -34.266918 0.705392 -0.269368
v -34.261711 0.729298 -0.273616
v -34.205826 0.743040 -0.283418
v -33.894165 0.698359 -0.237238
v -33.874928 0.678564 -0.227327
v -33.614239 0.685009 -0.201889
v -33.257175 0.678564 -0.183195
v -32.878189 0.685841 -0.165994
v -32.587349 0.680047 -0.152562
v -32.482521 0.666419 -0.152562
v -32.448608 0.620918 -0.152562
v -32.417221 0.585801 -0.158300
v -32.419678 0.561086 -0.154985
v -34.297592 0.720821 0.236594
v -34.297588 0.720821 -0.226758
v -34.445770 0.720821 0.236594
v -34.445778 0.720821 -0.226758
v -34.290527 0.721567 -0.205992
v -34.452839 0.721567 -0.205992
v -34.290527 0.721567 0.214418
v -34.452835 0.721567 0.214418
v -34.225647 0.656902 -0.271792
v -34.210804 0.656950 -0.255188
v -34.210808 0.656950 0.263224
v -34.225655 0.656902 0.281659
v -34.517708 0.656902 0.281659
v -34.532562 0.656950 0.263224
v -34.532558 0.656950 -0.255188
v -34.517712 0.656902 -0.271792
v -34.221790 0.681281 -0.278382
v -34.206635 0.681251 -0.261433
v -34.206635 0.681251 0.269421
v -34.221790 0.681281 0.288247
v -34.521572 0.681281 0.288247
v -34.536728 0.681251 0.269421
v -34.536728 0.681251 -0.261433
v -34.521576 0.681281 -0.278382
v -34.492855 0.701575 0.263244
v -34.492863 0.701575 -0.253376
v -34.504978 0.701684 -0.235014
v -34.504986 0.701684 0.243216
v -34.250507 0.701575 -0.253376
v -34.238388 0.701684 -0.235014
v -34.238384 0.701684 0.243216
v -34.250515 0.701575 0.263244
v -34.287270 0.722596 -0.095524
v -34.287270 0.722596 0.103831
v -34.456097 0.722596 0.103831
v -34.456093 0.722596 -0.095524
v -34.545174 0.681340 -0.098108
v -34.545166 0.681340 0.105939
v -34.540771 0.656682 0.104104
v -34.540764 0.656682 -0.096220
v -34.202599 0.656682 0.104104
v -34.202591 0.656682 -0.096220
v -34.198189 0.681340 0.105939
v -34.198193 0.681340 -0.098108
v -34.231606 0.702209 0.105428
v -34.231606 0.702209 -0.097362
v -34.511757 0.702209 -0.097362
v -34.511761 0.702209 0.105428
v -34.368607 0.723598 0.235172
v -34.368664 0.725645 0.211958
v -34.366810 0.681503 -0.282129
v -34.366917 0.656233 -0.275434
v -34.366802 0.681503 0.292156
v -34.366917 0.656233 0.285462
v -34.368607 0.723598 -0.225278
v -34.368668 0.725645 -0.203497
v -34.369801 0.703004 0.265486
v -34.369804 0.703004 -0.255488
v -34.368469 0.727108 0.101976
v -34.368469 0.727108 -0.093635
vt 0.609988 0.098920
vt 0.646055 0.098920
vt 0.646055 0.570660
vt 0.609988 0.570660
vt 0.977035 0.020778
vt 0.977035 0.086101
vt 0.657986 0.086101
vt 0.657986 0.020778
vt 0.977035 0.098920
vt 0.977035 0.570660
vt 0.657986 0.570660
vt 0.657986 0.098920
vt 0.657986 0.648801
vt 0.657986 0.583478
vt 0.977035 0.583478
vt 0.977035 0.648801
vt 0.618274 0.058513
vt 0.629922 0.043499
vt 0.629922 0.626080
vt 0.618274 0.611066
vt 0.085718 0.886003
vt 0.055106 0.866556
vt 0.072257 0.749570
vt 0.100297 0.748928
vt 0.055053 0.906617
vt 0.083213 0.915949
vt 0.041279 0.896149
vt 0.035153 0.856767
vt 0.052717 0.752452
vt 0.128890 0.749951
vt 0.208075 0.754505
vt 0.178739 0.902261
vt 0.115248 0.895098
vt 0.112794 0.926058
vt 0.181284 0.930999
vt 0.131109 0.140842
vt 0.245381 0.122925
vt 0.247342 0.150584
vt 0.139277 0.163514
vt 0.117595 0.121831
vt 0.240887 0.099660
vt 0.144517 0.208082
vt 0.250050 0.199611
vt 0.116678 0.209566
vt 0.094051 0.207374
vt 0.103810 0.161144
vt 0.122022 0.178021
vt 0.073708 0.205386
vt 0.090544 0.148645
vt 0.102624 0.332250
vt 0.125195 0.331001
vt 0.108988 0.479618
vt 0.131943 0.479798
vt 0.090994 0.484183
vt 0.083301 0.335400
vt 0.151587 0.329592
vt 0.157162 0.479976
vt 0.247860 0.325453
vt 0.242312 0.480327
vt 0.099551 0.616139
vt 0.122001 0.618841
vt 0.075238 0.733318
vt 0.103618 0.734392
vt 0.053825 0.737326
vt 0.079667 0.620733
vt 0.148911 0.621648
vt 0.136016 0.736962
vt 0.230472 0.626859
vt 0.213083 0.741473
vt 0.061114 0.208216
vt 0.080196 0.143208
vt 0.116066 0.109222
vt 0.110429 0.937175
vt 0.087338 0.927522
vt 0.026302 0.907613
vt 0.020324 0.854891
vt 0.036311 0.759297
vt 0.045264 0.923962
vt 0.080031 0.490355
vt 0.072123 0.341265
vt 0.038495 0.744082
vt 0.067419 0.627035
vt 0.241573 0.086869
vt 0.182029 0.943776
vt 0.546215 0.886046
vt 0.531579 0.748882
vt 0.559666 0.749520
vt 0.576852 0.866553
vt 0.576883 0.906635
vt 0.548735 0.915993
vt 0.596807 0.856755
vt 0.590645 0.896163
vt 0.579222 0.752397
vt 0.519174 0.926244
vt 0.455246 0.930341
vt 0.457916 0.901854
vt 0.516688 0.895150
vt 0.502961 0.749940
vt 0.428327 0.754241
vt 0.501129 0.141133
vt 0.492791 0.163757
vt 0.389112 0.150877
vt 0.391208 0.123236
vt 0.514770 0.122189
vt 0.395964 0.100024
vt 0.386156 0.199888
vt 0.487452 0.208360
vt 0.515289 0.209885
vt 0.510031 0.178350
vt 0.528329 0.161533
vt 0.537913 0.207777
vt 0.541682 0.149136
vt 0.558252 0.205861
vt 0.529058 0.332490
vt 0.506516 0.331208
vt 0.522619 0.479585
vt 0.499682 0.479776
vt 0.548357 0.335662
vt 0.540581 0.484133
vt 0.480156 0.329760
vt 0.474460 0.479961
vt 0.393229 0.480300
vt 0.387920 0.325613
vt 0.532219 0.616000
vt 0.509777 0.618719
vt 0.556675 0.733273
vt 0.528251 0.734357
vt 0.552119 0.620575
vt 0.578102 0.737266
vt 0.482883 0.621544
vt 0.495873 0.736898
vt 0.422999 0.741221
vt 0.405300 0.626653
vt 0.552031 0.143715
vt 0.570836 0.208723
vt 0.516470 0.109572
vt 0.544638 0.927583
vt 0.521643 0.937328
vt 0.611634 0.854890
vt 0.605629 0.907633
vt 0.595635 0.759243
vt 0.586675 0.923984
vt 0.559511 0.341533
vt 0.551522 0.490288
vt 0.564384 0.626862
vt 0.593436 0.744022
vt 0.395306 0.087167
vt 0.454449 0.943351
vt 0.728598 0.952476
vt 0.736470 0.961766
vt 0.729537 0.972833
vt 0.720893 0.963185
vt 0.771085 0.925313
vt 0.808280 0.924255
vt 0.808258 0.934045
vt 0.774243 0.934674
vt 0.848416 0.925271
vt 0.845252 0.934630
vt 0.903139 0.963193
vt 0.894475 0.972837
vt 0.882936 0.961838
vt 0.890913 0.952491
vt 0.894503 0.677047
vt 0.883027 0.688058
vt 0.807389 0.685310
vt 0.809355 0.674636
vt 0.736394 0.688124
vt 0.729513 0.677052
vt 0.809354 0.975371
vt 0.807392 0.964680
vt 0.774223 0.715215
vt 0.808258 0.715857
vt 0.808280 0.725036
vt 0.771072 0.723940
vt 0.845271 0.715257
vt 0.848430 0.723984
vt 0.903135 0.685794
vt 0.890881 0.696547
vt 0.728625 0.696560
vt 0.720894 0.685802
vt 0.808175 0.777039
vt 0.769831 0.776157
vt 0.849670 0.776168
vt 0.849672 0.873007
vt 0.808186 0.872153
vt 0.769821 0.873017
vt 0.896196 0.874026
vt 0.908881 0.878355
vt 0.908891 0.770512
vt 0.896197 0.774908
vt 0.715159 0.878355
vt 0.723312 0.874025
vt 0.723306 0.774907
vt 0.715159 0.770512
vt 0.750943 0.701836
vt 0.745687 0.709660
vt 0.745688 0.939486
vt 0.741997 0.873719
vt 0.741995 0.775336
vt 0.750975 0.948030
vt 0.808851 0.949882
vt 0.868538 0.948013
vt 0.873812 0.939485
vt 0.877506 0.873716
vt 0.877512 0.775339
vt 0.873813 0.709659
vt 0.868569 0.701851
vt 0.808852 0.700094
vt 0.506334 0.701630
vt 0.519419 0.666009
vt 0.128048 0.666009
vt 0.141132 0.701630
vt 0.482025 0.717026
vt 0.382913 0.719433
vt 0.494208 0.139180
vt 0.153259 0.139180
vt 0.519574 0.177326
vt 0.510208 0.150211
vt 0.137259 0.150211
vt 0.126422 0.177326
vt 0.524259 0.239775
vt 0.123208 0.239775
vt 0.503191 0.144326
vt 0.144276 0.144326
vt 0.522051 0.570158
vt 0.522051 0.447438
vt 0.125416 0.447438
vt 0.125416 0.570158
vt 0.522051 0.332294
vt 0.516237 0.246021
vt 0.131231 0.246020
vt 0.125416 0.332294
vt 0.260858 0.719433
vt 0.165442 0.717026
vt 0.963677 0.559439
vt 0.963677 0.131231
vt 0.690134 0.142267
vt 0.699995 0.131231
vt 0.699995 0.559439
vt 0.690134 0.548404
vt 0.170995 0.139180
vt 0.476472 0.139180
vn -0.812524 -0.475962 0.336549
vn -0.854769 0.367006 0.366983
vn -0.854769 0.367006 -0.366983
vn -0.812524 -0.475962 -0.336549
vn 0.000000 -0.707107 0.707107
vn 0.000000 0.382688 0.923878
vn -0.367004 0.367023 0.854753
vn -0.259694 -0.734511 0.626939
vn 0.000000 0.923881 0.382679
vn 0.000000 0.923881 -0.382679
vn -0.367005 0.854769 -0.366985
vn -0.367005 0.854769 0.366985
vn -0.259694 -0.734511 -0.626939
vn -0.367004 0.367023 -0.854753
vn 0.000000 0.382688 -0.923878
vn 0.000000 -0.707107 -0.707107
vn -0.132714 0.816147 0.562398
vn -0.102914 0.312176 0.944434
vn 0.447430 0.185260 0.874920
vn 0.485761 0.709994 0.509849
vn -0.672463 -0.009095 0.740075
vn -0.775626 0.495644 0.390821
vn -0.455014 -0.377545 0.806487
vn -0.109858 -0.227450 0.967573
vn 0.337637 -0.308572 0.889261
vn 0.434703 0.891599 0.126827
vn 0.447087 0.893220 0.047660
vn -0.075603 0.988947 0.127547
vn -0.111481 0.971188 0.210635
vn -0.713387 0.678471 0.175373
vn -0.728240 0.674608 0.120706
vn 0.745183 0.620082 0.245358
vn 0.779981 0.625756 0.007677
vn 0.510704 0.859746 0.004165
vn 0.485766 0.855396 0.179803
vn 0.906542 0.261773 0.331144
vn 0.952934 0.302889 0.013231
vn 0.073169 0.989643 0.123502
vn 0.070356 0.997500 0.006666
vn 0.086745 0.799980 0.593724
vn 0.114500 0.520832 0.845945
vn 0.460652 0.569118 0.681105
vn 0.310942 0.823985 0.473670
vn 0.151283 0.165650 0.974512
vn 0.544933 0.176637 0.819663
vn 0.006695 0.540759 0.841151
vn 0.005379 0.810882 0.585185
vn -0.000044 0.544825 0.838550
vn -0.000250 0.817827 0.575464
vn -0.000001 0.206111 0.978529
vn 0.009634 0.199285 0.979894
vn 0.001939 0.995562 0.094088
vn -0.000165 0.996547 0.083033
vn 0.000408 0.999941 0.010881
vn -0.000264 0.999949 0.010103
vn -0.006428 0.521621 0.853153
vn -0.004329 0.820630 0.571444
vn 0.445204 0.286454 0.848374
vn 0.487410 0.701549 0.519867
vn 0.347944 -0.145865 0.926098
vn -0.020169 0.184211 0.982680
vn -0.004905 0.996193 0.087039
vn 0.409539 0.907965 0.088753
vn -0.003393 0.999899 0.013785
vn 0.385938 0.922417 0.014131
vn 0.110161 -0.796198 0.594924
vn 0.223528 -0.891668 0.393654
vn 0.731496 -0.613940 0.296635
vn -0.985794 0.164207 0.035304
vn -0.998100 -0.036206 0.049854
vn -0.573730 -0.752340 0.323758
vn -0.097229 -0.876883 0.470769
vn 0.081325 -0.888410 0.451790
vn -0.925287 -0.351618 0.142161
vn -0.000000 -0.788529 0.614997
vn 0.006366 -0.790732 0.612129
vn 0.078044 -0.865869 0.494145
vn -0.016386 -0.782115 0.622918
vn 0.632995 -0.774100 0.009271
vn -0.976500 0.212046 0.038528
vn -0.132710 0.816147 -0.562398
vn 0.485747 0.710007 -0.509843
vn 0.447423 0.185281 -0.874919
vn -0.102909 0.312173 -0.944435
vn -0.671709 -0.008337 -0.740769
vn -0.775271 0.495941 -0.391150
vn -0.111890 -0.196307 -0.974138
vn -0.458624 -0.358403 -0.813149
vn 0.339674 -0.287302 -0.895589
vn -0.714335 0.675175 -0.184025
vn -0.729653 0.671427 -0.129588
vn -0.076639 0.987607 -0.136962
vn -0.112479 0.969014 -0.219909
vn 0.435003 0.890970 -0.130174
vn 0.447508 0.892827 -0.050953
vn 0.745098 0.620065 -0.245661
vn 0.486012 0.855194 -0.180099
vn 0.510979 0.859583 -0.004243
vn 0.779953 0.625787 -0.007991
vn 0.905767 0.263934 -0.331550
vn 0.952922 0.302904 -0.013765
vn 0.070768 0.997470 -0.006674
vn 0.073496 0.989536 -0.124161
vn 0.086746 0.799973 -0.593733
vn 0.310933 0.823988 -0.473671
vn 0.460655 0.569122 -0.681100
vn 0.114499 0.520838 -0.845942
vn 0.544300 0.182340 -0.818834
vn 0.151025 0.172140 -0.973427
vn 0.006694 0.540759 -0.841151
vn 0.005379 0.810875 -0.585194
vn -0.000044 0.544830 -0.838547
vn -0.000250 0.817821 -0.575472
vn 0.009623 0.205690 -0.978570
vn -0.000000 0.212526 -0.977155
vn 0.001890 0.995455 -0.095214
vn -0.000150 0.996464 -0.084021
vn -0.000249 0.999945 -0.010507
vn 0.000360 0.999938 -0.011102
vn -0.006428 0.521631 -0.853147
vn -0.004329 0.820626 -0.571449
vn 0.445197 0.286488 -0.848366
vn 0.487396 0.701563 -0.519860
vn -0.020149 0.190715 -0.981439
vn 0.348561 -0.140320 -0.926723
vn -0.004906 0.996081 -0.088307
vn 0.409510 0.907867 -0.089881
vn 0.385953 0.922397 -0.014995
vn -0.003393 0.999888 -0.014564
vn 0.225119 -0.890026 -0.396453
vn 0.110943 -0.792239 -0.600041
vn 0.733422 -0.610942 -0.298066
vn -0.998095 -0.035845 -0.050224
vn -0.985741 0.164091 -0.037267
vn -0.102454 -0.861827 -0.496747
vn -0.580819 -0.742256 -0.334223
vn 0.085613 -0.879749 -0.467666
vn -0.925322 -0.351071 -0.143279
vn 0.006420 -0.786718 -0.617280
vn -0.000000 -0.784487 -0.620146
vn -0.016517 -0.777992 -0.628058
vn 0.079331 -0.863739 -0.497656
vn 0.632938 -0.774142 -0.009642
vn -0.976487 0.211560 -0.041428
vn 0.856098 0.415225 0.307709
vn 0.396805 0.384002 0.833719
vn 0.422945 -0.296189 0.856382
vn 0.907701 -0.242535 0.342427
vn 0.184863 0.980721 0.063344
vn 0.001796 0.999196 0.040044
vn 0.001122 0.945250 0.326346
vn 0.121948 0.955328 0.269216
vn -0.183095 0.981060 0.063223
vn -0.120464 0.955544 0.269117
vn -0.907763 -0.242206 0.342496
vn -0.422165 -0.296069 0.856808
vn -0.395886 0.383679 0.834305
vn -0.856030 0.415374 0.307697
vn -0.399377 -0.295589 -0.867828
vn -0.376339 0.379137 -0.845354
vn 0.000741 0.312257 -0.949998
vn 0.000798 -0.260259 -0.965539
vn 0.377168 0.379531 -0.844808
vn 0.400119 -0.295549 -0.867500
vn 0.000833 -0.260280 0.965533
vn 0.000771 0.312507 0.949915
vn 0.119743 0.954216 -0.274105
vn 0.001112 0.944270 -0.329170
vn 0.001793 0.999103 -0.042300
vn 0.183466 0.980754 -0.066797
vn -0.118299 0.954424 -0.274007
vn -0.181714 0.981089 -0.066668
vn -0.897746 -0.246945 -0.364787
vn -0.847649 0.417432 -0.327479
vn 0.847599 0.417535 -0.327477
vn 0.897801 -0.246714 -0.364810
vn 0.001983 0.999980 -0.006038
vn 0.201669 0.979420 -0.008081
vn -0.199724 0.979819 -0.008045
vn -0.199740 0.979816 0.008036
vn 0.001983 0.999980 0.006032
vn 0.201680 0.979418 0.008071
vn -0.913775 0.405517 0.023917
vn -0.983703 -0.177999 0.025404
vn -0.983666 -0.178198 -0.025432
vn -0.913787 0.405487 -0.023945
vn 0.983644 -0.178320 0.025418
vn 0.913826 0.405401 0.023931
vn 0.913769 0.405529 -0.023950
vn 0.983681 -0.178117 -0.025435
vn 0.176468 0.890190 -0.420025
vn 0.382937 0.915497 -0.123389
vn 0.387486 0.914422 0.116992
vn 0.438672 0.898566 0.012104
vn 0.438631 0.898586 -0.012118
vn 0.182092 0.891905 0.413942
vn 0.000485 0.805497 0.592600
vn -0.181617 0.891765 0.414452
vn -0.387500 0.914417 0.116984
vn -0.438707 0.898549 0.012101
vn -0.438632 0.898585 -0.012114
vn -0.382950 0.915493 -0.123375
vn -0.176043 0.890042 -0.420516
vn 0.000470 0.804899 -0.593412
s 1
g polySurface7761
f 8/1/1 2/2/2 5/3/3 9/4/4
f 11/5/5 12/6/6 3/7/7 7/8/8
f 13/9/9 14/10/10 6/11/11 1/12/12
f 10/13/13 4/14/14 15/15/15 16/16/16
f 2/2/2 1/12/12 6/11/11 5/3/3
f 3/7/7 2/2/2 8/17/1 7/18/8
f 1/12/12 3/7/7 12/6/6 13/9/9
f 5/3/3 4/14/14 10/19/13 9/20/4
f 4/14/14 6/11/11 14/10/10 15/15/15
f 1/12/12 2/2/2 3/7/7
f 4/14/14 5/3/3 6/11/11
s 2
f 50/21/17 49/22/18 65/23/19 66/24/20
f 34/25/21 49/22/18 50/21/17 32/26/22
f 34/25/21 21/27/23 33/28/24 49/22/18
f 33/28/24 64/29/25 65/23/19 49/22/18
f 67/30/26 128/31/27 129/32/28 31/33/29
f 20/34/30 31/33/29 129/32/28 130/35/31
f 27/36/32 121/37/33 122/38/34 29/39/35
f 18/40/36 120/41/37 121/37/33 27/36/32
f 66/24/20 67/30/26 31/33/29 50/21/17
f 31/33/29 20/34/30 32/26/22 50/21/17
f 17/42/38 29/39/35 122/38/34 123/43/39
f 28/44/40 26/45/41 51/46/42 52/47/43
f 26/45/41 19/48/44 30/49/45 51/46/42
f 30/49/45 18/40/36 27/36/32 51/46/42
f 51/46/42 27/36/32 29/39/35 52/47/43
f 52/47/43 17/42/38 28/44/40
f 53/50/46 26/45/41 28/44/40 54/51/47
f 36/52/48 53/50/46 54/51/47 38/53/49
f 36/52/48 22/54/50 35/55/51 53/50/46
f 35/55/51 19/48/44 26/45/41 53/50/46
f 28/44/40 17/42/38 37/56/52 54/51/47
f 37/56/52 23/57/53 38/53/49 54/51/47
f 17/42/38 123/43/39 124/58/54 37/56/52
f 23/57/53 37/56/52 124/58/54 125/59/55
f 55/60/56 36/52/48 38/53/49 56/61/57
f 40/62/58 55/60/56 56/61/57 42/63/59
f 40/62/58 24/64/60 39/65/61 55/60/56
f 39/65/61 22/54/50 36/52/48 55/60/56
f 38/53/49 23/57/53 41/66/62 56/61/57
f 41/66/62 25/67/63 42/63/59 56/61/57
f 23/57/53 125/59/55 126/68/64 41/66/62
f 25/67/63 41/66/62 126/68/64 127/69/65
f 30/49/45 19/48/44 43/70/66 57/71/67
f 44/72/68 18/40/36 30/49/45 57/71/67
f 32/26/22 20/34/30 45/73/69 58/74/70
f 33/28/24 21/27/23 46/75/71 59/76/72
f 63/77/73 64/29/25 33/28/24 59/76/72
f 58/74/70 60/78/74 34/25/21 32/26/22
f 46/75/71 21/27/23 34/25/21 60/78/74
f 35/55/51 22/54/50 48/79/75 61/80/76
f 43/70/66 19/48/44 35/55/51 61/80/76
f 39/65/61 24/64/60 47/81/77 62/82/78
f 48/79/75 22/54/50 39/65/61 62/82/78
f 18/40/36 44/72/68 119/83/79 120/41/37
f 20/34/30 130/35/31 131/84/80 45/73/69
f 29/39/35 17/42/38 52/47/43
f 47/81/77 24/64/60 64/29/25 63/77/73
f 65/23/19 64/29/25 24/64/60 40/62/58
f 65/23/19 40/62/58 42/63/59 66/24/20
f 42/63/59 25/67/63 67/30/26 66/24/20
f 25/67/63 127/69/65 128/31/27 67/30/26
f 68/85/81 71/86/82 70/87/83 69/88/84
f 72/89/85 73/90/86 68/85/81 69/88/84
f 72/89/85 69/88/84 75/91/87 74/92/88
f 75/91/87 69/88/84 70/87/83 76/93/89
f 77/94/90 133/95/91 134/96/92 78/97/93
f 79/98/94 78/97/93 134/96/92 135/99/95
f 81/100/96 80/101/97 141/102/98 142/103/99
f 82/104/100 81/100/96 142/103/99 143/105/101
f 71/86/82 68/85/81 78/97/93 79/98/94
f 78/97/93 68/85/81 73/90/86 77/94/90
f 140/106/102 141/102/98 80/101/97 83/107/103
f 84/108/104 87/109/105 86/110/106 85/111/107
f 85/111/107 86/110/106 89/112/108 88/113/109
f 89/112/108 86/110/106 81/100/96 82/104/100
f 86/110/106 87/109/105 80/101/97 81/100/96
f 87/109/105 84/108/104 83/107/103
f 90/114/110 91/115/111 84/108/104 85/111/107
f 92/116/112 93/117/113 91/115/111 90/114/110
f 92/116/112 90/114/110 95/118/114 94/119/115
f 95/118/114 90/114/110 85/111/107 88/113/109
f 84/108/104 91/115/111 96/120/116 83/107/103
f 96/120/116 91/115/111 93/117/113 97/121/117
f 138/122/118 139/123/119 96/120/116 97/121/117
f 140/106/102 83/107/103 96/120/116 139/123/119
f 98/124/120 99/125/121 93/117/113 92/116/112
f 100/126/122 101/127/123 99/125/121 98/124/120
f 100/126/122 98/124/120 103/128/124 102/129/125
f 103/128/124 98/124/120 92/116/112 94/119/115
f 93/117/113 99/125/121 104/130/126 97/121/117
f 104/130/126 99/125/121 101/127/123 105/131/127
f 136/132/128 137/133/129 104/130/126 105/131/127
f 138/122/118 97/121/117 104/130/126 137/133/129
f 89/112/108 107/134/130 106/135/131 88/113/109
f 108/136/132 107/134/130 89/112/108 82/104/100
f 73/90/86 110/137/133 109/138/134 77/94/90
f 75/91/87 112/139/135 111/140/136 74/92/88
f 113/141/137 112/139/135 75/91/87 76/93/89
f 110/137/133 73/90/86 72/89/85 114/142/138
f 111/140/136 114/142/138 72/89/85 74/92/88
f 95/118/114 116/143/139 115/144/140 94/119/115
f 106/135/131 116/143/139 95/118/114 88/113/109
f 103/128/124 118/145/141 117/146/142 102/129/125
f 115/144/140 118/145/141 103/128/124 94/119/115
f 82/104/100 143/105/101 144/147/143 108/136/132
f 77/94/90 109/138/134 132/148/144 133/95/91
f 80/101/97 87/109/105 83/107/103
f 117/146/142 113/141/137 76/93/89 102/129/125
f 70/87/83 100/126/122 102/129/125 76/93/89
f 70/87/83 71/86/82 101/127/123 100/126/122
f 101/127/123 71/86/82 79/98/94 105/131/127
f 136/132/128 105/131/127 79/98/94 135/99/95
f 121/37/33 120/41/37 143/105/101 142/103/99
f 122/38/34 121/37/33 142/103/99 141/102/98
f 123/43/39 122/38/34 141/102/98 140/106/102
f 124/58/54 123/43/39 140/106/102 139/123/119
f 125/59/55 124/58/54 139/123/119 138/122/118
f 126/68/64 125/59/55 138/122/118 137/133/129
f 127/69/65 126/68/64 137/133/129 136/132/128
f 128/31/27 127/69/65 136/132/128 135/99/95
f 129/32/28 128/31/27 135/99/95 134/96/92
f 130/35/31 129/32/28 134/96/92 133/95/91
f 132/148/144 131/84/80 130/35/31 133/95/91
f 119/83/79 144/147/143 143/105/101 120/41/37
s 3
f 163/149/145 164/150/146 156/151/147 155/152/148
f 151/153/149 194/154/150 193/155/151 145/156/152
f 152/157/153 147/158/154 193/155/151 194/154/150
f 158/159/155 157/160/156 165/161/157 166/162/158
f 160/163/159 168/164/160 195/165/161 196/166/162
f 161/167/163 153/168/164 196/166/162 195/165/161
f 198/169/165 197/170/166 165/161/157 157/160/156
f 156/151/147 164/150/146 197/170/166 198/169/165
f 146/171/167 199/172/168 200/173/169 149/174/170
f 148/175/171 150/176/172 200/173/169 199/172/168
f 160/163/159 159/177/173 167/178/174 168/164/160
f 161/167/163 162/179/175 154/180/176 153/168/164
f 200/173/169 204/181/177 177/182/178 149/174/170
f 150/176/172 180/183/179 204/181/177 200/173/169
f 179/184/180 152/157/153 194/154/150 203/185/181
f 203/185/181 194/154/150 151/153/149 178/186/182
f 158/159/155 166/162/158 182/187/183 183/188/184
f 167/178/174 159/177/173 184/189/185 181/190/186
f 163/149/145 155/152/148 185/191/187 187/192/188
f 154/180/176 162/179/175 188/193/189 186/194/190
f 162/179/175 161/167/163 173/195/191 174/196/192
f 146/171/167 149/174/170 174/196/192 173/195/191
f 175/197/193 163/149/145 187/192/188 189/198/194
f 190/199/195 188/193/189 162/179/175 174/196/192
f 174/196/192 149/174/170 177/182/178 190/199/195
f 189/198/194 178/186/182 151/153/149 175/197/193
f 164/150/146 163/149/145 175/197/193 176/200/196
f 151/153/149 145/156/152 176/200/196 175/197/193
f 201/201/197 197/170/166 164/150/146 176/200/196
f 176/200/196 145/156/152 193/155/151 201/201/197
f 147/158/154 169/202/198 201/201/197 193/155/151
f 169/202/198 165/161/157 197/170/166 201/201/197
f 147/158/154 152/157/153 172/203/199 169/202/198
f 166/162/158 165/161/157 169/202/198 172/203/199
f 192/204/200 182/187/183 166/162/158 172/203/199
f 172/203/199 152/157/153 179/184/180 192/204/200
f 191/205/201 180/183/179 150/176/172 171/206/202
f 171/206/202 167/178/174 181/190/186 191/205/201
f 168/164/160 167/178/174 171/206/202 170/207/203
f 150/176/172 148/175/171 170/207/203 171/206/202
f 168/164/160 170/207/203 202/208/204 195/165/161
f 170/207/203 148/175/171 199/172/168 202/208/204
f 202/208/204 199/172/168 146/171/167 173/195/191
f 173/195/191 161/167/163 195/165/161 202/208/204
f 177/182/178 178/186/182 189/198/194 190/199/195
f 178/186/182 177/182/178 204/181/177 203/185/181
f 180/183/179 179/184/180 203/185/181 204/181/177
f 179/184/180 180/183/179 191/205/201 192/204/200
f 181/190/186 182/187/183 192/204/200 191/205/201
f 183/188/184 182/187/183 181/190/186 184/189/185
f 187/192/188 185/191/187 186/194/190 188/193/189
f 187/192/188 188/193/189 190/199/195 189/198/194
s 2
f 57/209/67 43/210/66 106/211/131 107/212/130
f 44/213/68 57/209/67 119/214/79
f 58/215/70 45/242/69 109/241/134 110/216/133
f 59/217/72 46/218/71 111/219/136 112/220/135
f 63/221/73 59/217/72 112/220/135 113/222/137
f 60/223/74 58/215/70 110/216/133 114/224/138
f 46/218/71 60/223/74 114/224/138 111/219/136
f 61/225/76 48/226/75 115/227/140 116/228/139
f 43/210/66 61/225/76 116/228/139 106/211/131
f 62/229/78 47/230/77 117/231/142 118/232/141
f 48/226/75 62/229/78 118/232/141 115/227/140
f 47/230/77 63/221/73 113/222/137 117/231/142
s 1
f 9/240/4 10/239/13 7/238/8 8/237/1
f 11/236/5 7/238/8 10/239/13 16/235/16
s 2
f 144/233/143 107/212/130 108/234/132
f 119/214/79 57/209/67 107/212/130 144/233/143
