# This file uses centimeters as units for non-parametric coordinates.

g default
v -21.704201 0.052730 0.000843
v -20.523254 0.052730 0.000843
v -21.704201 1.871424 0.000843
v -20.523254 1.871424 0.000843
v -21.530411 1.871430 0.001166
v -21.520477 1.871424 -0.008769
v -21.520782 1.871424 0.010455
v -21.511078 1.871419 0.000657
v -21.520782 0.052727 0.010455
v -21.511078 0.052587 0.000657
v -21.520477 0.052722 -0.008769
v -21.530411 0.052872 0.001166
v -20.522659 1.596199 0.010455
v -20.522633 1.586814 0.000657
v -20.522659 1.595822 -0.008769
v -20.522659 1.605837 0.001166
v -21.703465 1.596199 0.010455
v -21.703609 1.586814 0.000657
v -21.703300 1.605837 0.001166
v -21.703457 1.595822 -0.008769
v -21.323158 1.871430 0.001166
v -21.313229 1.871424 -0.008769
v -21.313530 1.871424 0.010455
v -21.303829 1.871419 0.000657
v -21.313530 0.052727 0.010455
v -21.303829 0.052587 0.000657
v -21.313229 0.052722 -0.008769
v -21.323158 0.052872 0.001166
v -21.115940 1.871430 0.001166
v -21.106010 1.871424 -0.008769
v -21.106281 1.871424 0.010455
v -21.096581 1.871419 0.000657
v -21.106281 0.052727 0.010455
v -21.096581 0.052587 0.000657
v -21.106010 0.052722 -0.008769
v -21.115940 0.052872 0.001166
v -20.908691 1.871430 0.001166
v -20.898758 1.871424 -0.008769
v -20.899033 1.871424 0.010455
v -20.889332 1.871419 0.000657
v -20.899033 0.052727 0.010455
v -20.889332 0.052587 0.000657
v -20.898758 0.052722 -0.008769
v -20.908691 0.052872 0.001166
v -20.701439 1.871430 0.001166
v -20.691509 1.871424 -0.008769
v -20.691814 1.871424 0.010455
v -20.682083 1.871419 0.000657
v -20.691814 0.052727 0.010455
v -20.682083 0.052587 0.000657
v -20.691513 0.052722 -0.008769
v -20.701439 0.052872 0.001166
v -20.522659 1.177488 0.010455
v -20.522633 1.168103 0.000657
v -20.522659 1.177112 -0.008769
v -20.522659 1.187126 0.001166
v -21.703465 1.177488 0.010455
v -21.703609 1.168103 0.000657
v -21.703300 1.187126 0.001166
v -21.703457 1.177112 -0.008769
v -20.522659 0.758778 0.010455
v -20.522633 0.749393 0.000657
v -20.522659 0.758401 -0.008769
v -20.522659 0.768416 0.001166
v -21.703465 0.758778 0.010455
v -21.703609 0.749393 0.000657
v -21.703300 0.768416 0.001166
v -21.703457 0.758401 -0.008769
v -20.522659 0.340067 0.010455
v -20.522633 0.330682 0.000657
v -20.522659 0.339690 -0.008769
v -20.522659 0.349705 0.001166
v -21.703465 0.340067 0.010455
v -21.703609 0.330682 0.000657
v -21.703300 0.349705 0.001166
v -21.703457 0.339690 -0.008769
v -21.724358 0.034859 -0.038165
v -20.502953 0.034859 -0.038165
v -21.724358 0.034859 0.038165
v -20.502953 0.034859 0.038165
v -21.724358 1.889282 0.038165
v -20.502953 1.889282 0.038165
v -21.724358 1.889282 -0.038165
v -20.502953 1.889282 -0.038165
v -21.683754 0.075455 0.038165
v -20.543556 0.075455 0.038165
v -20.543556 1.848686 0.038165
v -21.683754 1.848686 0.038165
v -21.683754 1.848686 -0.038165
v -20.543552 1.848686 -0.038165
v -20.543552 0.075455 -0.038165
v -21.683754 0.075455 -0.038165
v -21.704056 1.868984 0.046235
v -20.523254 1.868984 0.046235
v -20.523254 0.055157 0.046235
v -21.704056 0.055156 0.046235
v -21.704056 1.868984 -0.046235
v -21.704056 0.055157 -0.046235
v -20.523254 0.055157 -0.046235
v -20.523254 1.868984 -0.046235
v -21.704201 0.052730 0.000843
v -20.523254 0.052730 0.000843
v -21.704201 1.871424 0.000843
v -20.523254 1.871424 0.000843
vt -0.111771 0.118713
vt 0.762064 0.118713
vt 0.762064 0.840925
vt -0.111771 0.840925
vt -1.923028 0.928290
vt -1.923044 0.957857
vt 2.919806 0.957857
vt 2.920180 0.928290
vt -1.923060 0.986284
vt 2.919421 0.986284
vt -1.923045 0.900013
vt 2.919820 0.900013
vt 2.919421 0.869777
vt -1.923060 0.869777
vt 2.385671 0.921308
vt 2.385612 0.955141
vt -1.352485 0.955141
vt -1.353001 0.921308
vt 2.385613 0.889157
vt -1.352501 0.889157
vt -1.351975 0.853614
vt 2.385554 0.853614
vt 2.385554 0.988389
vt -1.351975 0.988389
vt -4.298923 0.928290
vt -4.298940 0.957857
vt 0.543910 0.957857
vt 0.544285 0.928290
vt -4.298955 0.986284
vt 0.543525 0.986284
vt -4.298940 0.900013
vt 0.543925 0.900013
vt 0.543525 0.869777
vt -4.298955 0.869777
vt -1.923028 0.928290
vt -1.923044 0.957857
vt 2.919806 0.957857
vt 2.920180 0.928290
vt -1.923060 0.986284
vt 2.919421 0.986284
vt -1.923045 0.900013
vt 2.919820 0.900013
vt 2.919421 0.869777
vt -1.923060 0.869777
vt -4.298923 0.928290
vt -4.298940 0.957857
vt 0.543910 0.957857
vt 0.544285 0.928290
vt -4.298955 0.986284
vt 0.543525 0.986284
vt -4.298940 0.900013
vt 0.543925 0.900013
vt 0.543525 0.869777
vt -4.298955 0.869777
vt -1.923028 0.928290
vt -1.923044 0.957857
vt 2.919806 0.957857
vt 2.920180 0.928290
vt -1.923060 0.986284
vt 2.919421 0.986284
vt -1.923045 0.900013
vt 2.919820 0.900013
vt 2.919421 0.869777
vt -1.923060 0.869777
vt 6.136382 0.921308
vt 6.136323 0.955141
vt 2.398226 0.955141
vt 2.397710 0.921308
vt 6.136325 0.889157
vt 2.398210 0.889157
vt 2.398736 0.853614
vt 6.136265 0.853614
vt 6.136266 0.988389
vt 2.398736 0.988389
vt 2.399018 0.921308
vt 2.398960 0.955141
vt -1.339137 0.955141
vt -1.339653 0.921308
vt 2.398961 0.889157
vt -1.339153 0.889157
vt -1.338628 0.853614
vt 2.398901 0.853614
vt 2.398902 0.988389
vt -1.338627 0.988389
vt 4.281048 0.921308
vt 4.280990 0.955141
vt 0.542892 0.955141
vt 0.542377 0.921308
vt 4.280991 0.889157
vt 0.542876 0.889157
vt 0.543402 0.853614
vt 4.280931 0.853614
vt 4.280932 0.988389
vt 0.543402 0.988389
vt 4.019650 0.862458
vt 6.119252 0.862458
vt 6.119252 0.923846
vt 4.019650 0.923846
vt 0.525447 0.923857
vt -1.582623 0.923857
vt -1.582623 0.863283
vt 0.525447 0.863283
vt -5.076277 0.862458
vt -5.076277 0.923846
vt 6.119252 0.923846
vt 6.119252 0.954975
vt 4.019650 0.954975
vt -5.076277 0.923846
vt -1.582623 0.955393
vt -5.076277 0.954975
vt 0.525447 0.955393
vt -1.582623 0.894412
vt 0.525447 0.894412
vt -5.076277 0.862458
vt -5.076277 0.893994
vt 6.119252 0.862458
vt 4.019650 0.893994
vt 6.119252 0.893994
vt 0.525447 0.925541
vt -1.582622 0.925541
vt -1.582622 0.986929
vt 0.525447 0.986929
vt -5.076277 0.925530
vt -5.076277 0.986103
vt 6.119252 0.925530
vt 4.019650 0.925530
vt 4.019650 0.986103
vt 6.119252 0.986104
vt -5.076277 0.986103
vt 6.119252 0.986104
vt 6.119252 0.925530
vt -5.076277 0.925530
vt -0.111771 0.118713
vt 0.762064 0.118713
vt 0.762064 0.840925
vt -0.111771 0.840925
vn 0.000000 0.000000 1.000000
vn 0.000000 0.000000 1.000000
vn 0.000000 0.000000 1.000000
vn 0.000000 0.000000 1.000000
vn 0.710513 0.000000 0.703684
vn 0.710513 0.000000 0.703684
vn 0.710513 0.000000 0.703684
vn 0.710513 0.000000 0.703684
vn -0.694323 0.000000 0.719664
vn -0.694323 0.000000 0.719664
vn -0.694323 0.000000 0.719664
vn -0.694323 0.000000 0.719664
vn -0.707149 0.000000 -0.707064
vn -0.707149 0.000000 -0.707064
vn -0.707149 0.000000 -0.707064
vn -0.707149 0.000000 -0.707064
vn 0.708073 0.000000 -0.706139
vn 0.708073 0.000000 -0.706139
vn 0.708073 0.000000 -0.706139
vn 0.708073 0.000000 -0.706139
vn 0.000000 -0.722187 0.691698
vn 0.000000 -0.722187 0.691698
vn 0.000000 -0.722187 0.691698
vn 0.000000 -0.722187 0.691698
vn 0.000000 -0.722910 -0.690943
vn 0.000000 -0.722910 -0.690943
vn 0.000000 -0.722910 -0.690943
vn 0.000000 -0.722910 -0.690943
vn 0.000000 0.704270 -0.709933
vn 0.000000 0.704270 -0.709933
vn 0.000000 0.704270 -0.709933
vn 0.000000 0.704270 -0.709933
vn 0.000000 0.693967 0.720007
vn 0.000000 0.693967 0.720007
vn 0.000000 0.693967 0.720007
vn 0.000000 0.693967 0.720007
vn 0.710651 0.000000 0.703544
vn 0.710651 0.000000 0.703544
vn 0.710651 0.000000 0.703544
vn 0.710651 0.000000 0.703544
vn -0.694323 0.000000 0.719664
vn -0.694323 0.000000 0.719664
vn -0.694323 0.000000 0.719664
vn -0.694323 0.000000 0.719664
vn -0.707285 0.000000 -0.706929
vn -0.707285 0.000000 -0.706929
vn -0.707285 0.000000 -0.706929
vn -0.707285 0.000000 -0.706929
vn 0.708073 0.000000 -0.706139
vn 0.708073 0.000000 -0.706139
vn 0.708073 0.000000 -0.706139
vn 0.708073 0.000000 -0.706139
vn 0.710651 0.000000 0.703544
vn 0.710651 0.000000 0.703544
vn 0.710651 0.000000 0.703544
vn 0.710651 0.000000 0.703544
vn -0.693184 0.000000 0.720761
vn -0.693184 0.000000 0.720761
vn -0.693184 0.000000 0.720761
vn -0.693184 0.000000 0.720761
vn -0.707285 0.000000 -0.706929
vn -0.707285 0.000000 -0.706929
vn -0.707285 0.000000 -0.706929
vn -0.707285 0.000000 -0.706929
vn 0.706928 0.000000 -0.707286
vn 0.706928 0.000000 -0.707286
vn 0.706928 0.000000 -0.707286
vn 0.706928 0.000000 -0.707286
vn 0.710651 0.000000 0.703544
vn 0.710651 0.000000 0.703544
vn 0.710651 0.000000 0.703544
vn 0.710651 0.000000 0.703544
vn -0.693184 0.000000 0.720761
vn -0.693184 0.000000 0.720761
vn -0.693184 0.000000 0.720761
vn -0.693184 0.000000 0.720761
vn -0.707149 0.000000 -0.707064
vn -0.707149 0.000000 -0.707064
vn -0.707149 0.000000 -0.707064
vn -0.707149 0.000000 -0.707064
vn 0.707071 0.000000 -0.707143
vn 0.707071 0.000000 -0.707143
vn 0.707071 0.000000 -0.707143
vn 0.707071 0.000000 -0.707143
vn 0.709546 0.000000 0.704660
vn 0.709546 0.000000 0.704660
vn 0.709546 0.000000 0.704660
vn 0.709546 0.000000 0.704660
vn -0.694465 0.000000 0.719526
vn -0.694465 0.000000 0.719526
vn -0.694465 0.000000 0.719526
vn -0.694465 0.000000 0.719526
vn -0.707353 0.000001 -0.706861
vn -0.707353 0.000001 -0.706861
vn -0.707353 0.000001 -0.706861
vn -0.707353 0.000001 -0.706861
vn 0.707000 -0.000001 -0.707214
vn 0.707000 -0.000001 -0.707214
vn 0.707000 -0.000001 -0.707214
vn 0.707000 -0.000001 -0.707214
vn 0.000000 -0.722202 0.691683
vn 0.000000 -0.722202 0.691683
vn 0.000000 -0.722202 0.691683
vn 0.000000 -0.722202 0.691683
vn 0.000000 -0.722906 -0.690947
vn 0.000000 -0.722906 -0.690947
vn 0.000000 -0.722906 -0.690947
vn 0.000000 -0.722906 -0.690947
vn 0.000000 0.704270 -0.709933
vn 0.000000 0.704270 -0.709933
vn 0.000000 0.704270 -0.709933
vn 0.000000 0.704270 -0.709933
vn 0.000000 0.693948 0.720025
vn 0.000000 0.693948 0.720025
vn 0.000000 0.693948 0.720025
vn 0.000000 0.693948 0.720025
vn 0.000000 -0.722187 0.691698
vn 0.000000 -0.722187 0.691698
vn 0.000000 -0.722187 0.691698
vn 0.000000 -0.722187 0.691698
vn 0.000000 -0.722908 -0.690945
vn 0.000000 -0.722908 -0.690945
vn 0.000000 -0.722908 -0.690945
vn 0.000000 -0.722908 -0.690945
vn 0.000000 0.704271 -0.709931
vn 0.000000 0.704271 -0.709931
vn 0.000000 0.704271 -0.709931
vn 0.000000 0.704271 -0.709931
vn 0.000000 0.693967 0.720007
vn 0.000000 0.693967 0.720007
vn 0.000000 0.693967 0.720007
vn 0.000000 0.693967 0.720007
vn 0.000000 -0.722196 0.691688
vn 0.000000 -0.722196 0.691688
vn 0.000000 -0.722196 0.691688
vn 0.000000 -0.722196 0.691688
vn 0.000000 -0.722928 -0.690923
vn 0.000000 -0.722928 -0.690923
vn 0.000000 -0.722928 -0.690923
vn 0.000000 -0.722928 -0.690923
vn 0.000000 0.704261 -0.709941
vn 0.000000 0.704261 -0.709941
vn 0.000000 0.704261 -0.709941
vn 0.000000 0.704261 -0.709941
vn 0.000000 0.693967 0.720007
vn 0.000000 0.693967 0.720007
vn 0.000000 0.693967 0.720007
vn 0.000000 0.693967 0.720007
vn 0.000000 -1.000000 0.000000
vn 0.000000 -1.000000 0.000000
vn 0.000000 -1.000000 0.000000
vn 0.000000 -1.000000 0.000000
vn 0.000000 1.000000 0.000000
vn 0.000000 1.000000 0.000000
vn 0.000000 1.000000 0.000000
vn 0.000000 1.000000 0.000000
vn 1.000000 0.000000 0.000000
vn 1.000000 0.000000 0.000000
vn 1.000000 0.000000 0.000000
vn 1.000000 0.000000 0.000000
vn -1.000000 0.000000 0.000000
vn -1.000000 0.000000 0.000000
vn -1.000000 0.000000 0.000000
vn -1.000000 0.000000 0.000000
vn -0.191327 -0.191359 0.962692
vn 0.191327 -0.191359 0.962692
vn 0.000000 -0.000001 1.000000
vn -0.000000 -0.000001 1.000000
vn 0.191327 0.191358 0.962692
vn 0.000000 -0.000001 1.000000
vn -0.191327 0.191358 0.962692
vn -0.000000 -0.000001 1.000000
vn -0.191332 0.191363 -0.962690
vn 0.191332 0.191363 -0.962690
vn -0.000014 0.000002 -1.000000
vn -0.000003 0.000002 -1.000000
vn 0.191332 -0.191363 -0.962690
vn -0.000014 -0.000003 -1.000000
vn -0.191332 -0.191363 -0.962690
vn -0.000003 -0.000003 -1.000000
vn 0.000000 -1.000000 0.000000
vn 0.000000 -1.000000 0.000000
vn 0.000000 -1.000000 0.000000
vn 0.000000 -1.000000 0.000000
vn -1.000000 0.000000 -0.000050
vn -1.000000 0.000000 -0.000050
vn -1.000000 0.000000 -0.000050
vn -1.000000 0.000000 -0.000050
vn 0.000000 1.000000 0.000000
vn 0.000000 1.000000 0.000000
vn 0.000000 1.000000 0.000000
vn 0.000000 1.000000 0.000000
vn 1.000000 0.000000 0.000000
vn 1.000000 0.000000 0.000000
vn 1.000000 0.000000 0.000000
vn 1.000000 0.000000 0.000000
vn 0.191327 -0.191359 0.962692
vn -0.191327 -0.191359 0.962692
vn -0.191327 0.191357 0.962693
vn 0.191327 0.191357 0.962693
vn 0.191327 -0.191359 -0.962692
vn 0.191327 0.191358 -0.962692
vn -0.191359 0.191359 -0.962686
vn -0.191359 -0.191360 -0.962685
vn 0.000000 0.000000 -1.000000
vn 0.000000 0.000000 -1.000000
vn 0.000000 0.000000 -1.000000
vn 0.000000 0.000000 -1.000000
s off
g polySurface9140
f 1/1/1 2/2/2 4/3/3 3/4/4
f 8/5/5 7/6/6 9/7/7 10/8/8
f 7/6/9 5/9/10 12/10/11 9/7/12
f 6/11/13 11/12/14 12/13/15 5/14/16
f 8/5/17 10/8/18 11/12/19 6/11/20
f 14/15/21 13/16/22 17/17/23 18/18/24
f 15/19/25 14/15/26 18/18/27 20/20/28
f 15/19/29 20/20/30 19/21/31 16/22/32
f 16/23/33 19/24/34 17/17/35 13/16/36
f 24/25/37 23/26/38 25/27/39 26/28/40
f 23/26/41 21/29/42 28/30/43 25/27/44
f 22/31/45 27/32/46 28/33/47 21/34/48
f 24/25/49 26/28/50 27/32/51 22/31/52
f 32/35/53 31/36/54 33/37/55 34/38/56
f 31/36/57 29/39/58 36/40/59 33/37/60
f 30/41/61 35/42/62 36/43/63 29/44/64
f 32/35/65 34/38/66 35/42/67 30/41/68
f 40/45/69 39/46/70 41/47/71 42/48/72
f 39/46/73 37/49/74 44/50/75 41/47/76
f 38/51/77 43/52/78 44/53/79 37/54/80
f 40/45/81 42/48/82 43/52/83 38/51/84
f 48/55/85 47/56/86 49/57/87 50/58/88
f 47/56/89 45/59/90 52/60/91 49/57/92
f 46/61/93 51/62/94 52/63/95 45/64/96
f 48/55/97 50/58/98 51/62/99 46/61/100
f 54/65/101 53/66/102 57/67/103 58/68/104
f 55/69/105 54/65/106 58/68/107 60/70/108
f 55/69/109 60/70/110 59/71/111 56/72/112
f 56/73/113 59/74/114 57/67/115 53/66/116
f 62/75/117 61/76/118 65/77/119 66/78/120
f 63/79/121 62/75/122 66/78/123 68/80/124
f 63/79/125 68/80/126 67/81/127 64/82/128
f 64/83/129 67/84/130 65/77/131 61/76/132
f 70/85/133 69/86/134 73/87/135 74/88/136
f 71/89/137 70/85/138 74/88/139 76/90/140
f 71/89/141 76/90/142 75/91/143 72/92/144
f 72/93/145 75/94/146 73/87/147 69/86/148
f 77/95/149 78/96/150 80/97/151 79/98/152
f 81/99/153 82/100/154 84/101/155 83/102/156
f 78/103/157 84/101/158 82/100/159 80/104/160
f 83/102/161 77/95/162 79/98/163 81/99/164
s 41
f 79/98/165 80/105/166 95/106/167 96/107/168
f 80/108/166 82/100/169 94/109/170 95/110/167
f 82/100/169 81/99/171 93/111/172 94/109/170
f 81/99/171 79/98/165 96/107/168 93/111/172
s 42
f 83/102/173 84/101/174 100/112/175 97/113/176
f 84/101/174 78/114/177 99/115/178 100/112/175
f 78/116/177 77/95/179 98/117/180 99/118/178
f 77/95/179 83/102/173 97/113/176 98/117/180
s off
f 89/119/181 90/120/182 87/121/183 88/122/184
f 90/120/185 91/123/186 86/124/187 87/121/188
f 91/125/189 92/126/190 85/127/191 86/128/192
f 92/126/193 89/119/194 88/122/195 85/127/196
s 41
f 94/109/170 93/111/172 88/122/197 87/121/198
f 95/110/167 94/109/170 87/121/198 86/129/199
f 96/107/168 95/106/167 86/130/199 85/127/200
f 93/111/172 96/107/168 85/127/200 88/122/197
s 42
f 98/117/180 97/113/176 89/119/201 92/126/202
f 99/118/178 98/117/180 92/126/202 91/131/203
f 100/112/175 99/115/178 91/132/203 90/120/204
f 97/113/176 100/112/175 90/120/204 89/119/201
s off
f 101/133/205 103/136/206 104/135/207 102/134/208
