# This file uses centimeters as units for non-parametric coordinates.

g default
v -23.348885 0.052730 -0.000000
v -22.167904 0.052730 -0.000000
v -23.348885 1.871424 -0.000000
v -22.167904 1.871424 -0.000000
v -23.006451 1.883176 0.000509
v -22.996521 1.883170 -0.009425
v -22.996822 1.883171 0.009798
v -22.987091 1.883165 -0.000000
v -22.996822 1.700287 0.009798
v -22.987091 1.700146 -0.000000
v -22.996521 1.700282 -0.009425
v -23.006451 1.700432 0.000509
v -22.536701 1.883176 0.000509
v -22.526741 1.883170 -0.009425
v -22.527077 1.883171 0.009798
v -22.517311 1.883165 -0.000000
v -22.527077 1.700287 0.009798
v -22.517311 1.700146 -0.000000
v -22.526741 1.700282 -0.009425
v -22.536701 1.700432 0.000509
v -23.006451 1.488326 0.000509
v -22.996521 1.488319 -0.009425
v -22.996822 1.488320 0.009798
v -22.987091 1.488314 -0.000000
v -22.996822 1.280223 0.009798
v -22.987091 1.280082 -0.000000
v -22.996521 1.280217 -0.009425
v -23.006451 1.280367 0.000509
v -22.419136 1.688110 0.000509
v -22.409203 1.698125 -0.009425
v -22.409508 1.697748 0.009798
v -22.399773 1.707133 -0.000000
v -22.644073 1.697748 0.009798
v -22.653809 1.707133 -0.000000
v -22.644379 1.698125 -0.009425
v -22.634415 1.688110 0.000509
v -22.409508 1.488446 0.009798
v -22.399773 1.479061 -0.000000
v -22.409203 1.488069 -0.009425
v -22.419136 1.498084 0.000509
v -22.644073 1.488446 0.009798
v -22.653809 1.479061 -0.000000
v -22.634418 1.498084 0.000509
v -22.644379 1.488069 -0.009425
v -22.644325 1.593097 0.009798
v -22.644299 1.583712 -0.000000
v -22.644325 1.592721 -0.009425
v -22.644356 1.602735 0.000509
v -22.878994 1.593097 0.009798
v -22.879139 1.583712 -0.000000
v -22.878830 1.602735 0.000509
v -22.878990 1.592721 -0.009425
v -22.888863 1.688110 0.000509
v -22.878933 1.698125 -0.009425
v -22.879234 1.697748 0.009798
v -22.869503 1.707133 -0.000000
v -23.113804 1.697748 0.009798
v -23.123535 1.707133 -0.000000
v -23.114105 1.698125 -0.009425
v -23.104145 1.688110 0.000509
v -22.879234 1.488446 0.009798
v -22.869503 1.479061 -0.000000
v -22.878933 1.488069 -0.009425
v -22.888863 1.498084 0.000509
v -23.113804 1.488446 0.009798
v -23.123535 1.479061 -0.000000
v -23.104149 1.498084 0.000509
v -23.114105 1.488069 -0.009425
v -22.536701 1.488326 0.000509
v -22.526741 1.488319 -0.009425
v -22.527077 1.488320 0.009798
v -22.517311 1.488314 -0.000000
v -22.527077 1.280223 0.009798
v -22.517311 1.280082 -0.000000
v -22.526741 1.280217 -0.009425
v -22.536701 1.280367 0.000509
v -22.174545 1.593097 0.009798
v -22.174553 1.583712 -0.000000
v -22.174545 1.592721 -0.009425
v -22.174576 1.602735 0.000509
v -22.409218 1.593097 0.009798
v -22.409389 1.583712 -0.000000
v -22.409050 1.602735 0.000509
v -22.409241 1.592721 -0.009425
v -23.113792 1.593097 0.009798
v -23.113796 1.583712 -0.000000
v -23.113792 1.592721 -0.009425
v -23.113819 1.602735 0.000509
v -23.348461 1.593097 0.009798
v -23.348633 1.583712 -0.000000
v -23.348297 1.602735 0.000509
v -23.348454 1.592721 -0.009425
v -23.006451 1.070756 0.000509
v -22.996521 1.070750 -0.009425
v -22.996822 1.070750 0.009798
v -22.987091 1.070745 -0.000000
v -22.996822 0.862653 0.009798
v -22.987091 0.862512 -0.000000
v -22.996521 0.862648 -0.009425
v -23.006451 0.862798 0.000509
v -22.419136 1.270540 0.000509
v -22.409203 1.280555 -0.009425
v -22.409508 1.280178 0.009798
v -22.399773 1.289563 -0.000000
v -22.644073 1.280178 0.009798
v -22.653809 1.289563 -0.000000
v -22.644379 1.280555 -0.009425
v -22.634415 1.270540 0.000509
v -22.409508 1.070877 0.009798
v -22.399773 1.061492 -0.000000
v -22.409203 1.070500 -0.009425
v -22.419136 1.080515 0.000509
v -22.644073 1.070877 0.009798
v -22.653809 1.061492 -0.000000
v -22.634418 1.080515 0.000509
v -22.644379 1.070499 -0.009425
v -22.644325 1.175527 0.009798
v -22.644299 1.166143 -0.000000
v -22.644325 1.175151 -0.009425
v -22.644356 1.185165 0.000509
v -22.878994 1.175527 0.009798
v -22.879139 1.166143 -0.000000
v -22.878830 1.185165 0.000509
v -22.878990 1.175151 -0.009425
v -22.888863 1.270540 0.000509
v -22.878933 1.280555 -0.009425
v -22.879234 1.280178 0.009798
v -22.869503 1.289563 -0.000000
v -23.113804 1.280178 0.009798
v -23.123535 1.289563 -0.000000
v -23.114105 1.280555 -0.009425
v -23.104145 1.270540 0.000509
v -22.879234 1.070877 0.009798
v -22.869503 1.061492 -0.000000
v -22.878933 1.070500 -0.009425
v -22.888863 1.080515 0.000509
v -23.113804 1.070877 0.009798
v -23.123535 1.061492 -0.000000
v -23.104149 1.080515 0.000509
v -23.114105 1.070499 -0.009425
v -22.536701 1.070756 0.000509
v -22.526741 1.070750 -0.009425
v -22.527077 1.070750 0.009798
v -22.517311 1.070745 -0.000000
v -22.527077 0.862653 0.009798
v -22.517311 0.862512 -0.000000
v -22.526741 0.862648 -0.009425
v -22.536701 0.862798 0.000509
v -22.174545 1.175527 0.009798
v -22.174553 1.166143 -0.000000
v -22.174545 1.175151 -0.009425
v -22.174576 1.185165 0.000509
v -22.409218 1.175527 0.009798
v -22.409389 1.166143 -0.000000
v -22.409050 1.185165 0.000509
v -22.409241 1.175151 -0.009425
v -23.113792 1.175527 0.009798
v -23.113796 1.166143 -0.000000
v -23.113792 1.175151 -0.009425
v -23.113819 1.185165 0.000509
v -23.348461 1.175527 0.009798
v -23.348633 1.166143 -0.000000
v -23.348297 1.185165 0.000509
v -23.348454 1.175151 -0.009425
v -23.006451 0.653186 0.000509
v -22.996521 0.653180 -0.009425
v -22.996822 0.653180 0.009798
v -22.987091 0.653175 -0.000000
v -22.996822 0.445083 0.009798
v -22.987091 0.444943 -0.000000
v -22.996521 0.445078 -0.009425
v -23.006451 0.445228 0.000509
v -22.419136 0.852971 0.000509
v -22.409203 0.862985 -0.009425
v -22.409508 0.862609 0.009798
v -22.399773 0.871993 -0.000000
v -22.644073 0.862609 0.009798
v -22.653809 0.871993 -0.000000
v -22.644379 0.862985 -0.009425
v -22.634415 0.852971 0.000509
v -22.409508 0.653307 0.009798
v -22.399773 0.643921 -0.000000
v -22.409203 0.652930 -0.009425
v -22.419136 0.662944 0.000509
v -22.644073 0.653307 0.009798
v -22.653809 0.643921 -0.000000
v -22.634418 0.662944 0.000509
v -22.644379 0.652930 -0.009425
v -22.644325 0.757958 0.009798
v -22.644299 0.748573 -0.000000
v -22.644325 0.757581 -0.009425
v -22.644356 0.767595 0.000509
v -22.878994 0.757958 0.009798
v -22.879139 0.748573 -0.000000
v -22.878830 0.767595 0.000509
v -22.878990 0.757581 -0.009425
v -22.888863 0.852971 0.000509
v -22.878933 0.862985 -0.009425
v -22.879234 0.862609 0.009798
v -22.869503 0.871993 -0.000000
v -23.113804 0.862609 0.009798
v -23.123535 0.871993 -0.000000
v -23.114105 0.862985 -0.009425
v -23.104145 0.852971 0.000509
v -22.879234 0.653307 0.009798
v -22.869503 0.643921 -0.000000
v -22.878933 0.652930 -0.009425
v -22.888863 0.662944 0.000509
v -23.113804 0.653307 0.009798
v -23.123535 0.643921 -0.000000
v -23.104149 0.662944 0.000509
v -23.114105 0.652930 -0.009425
v -22.536701 0.653186 0.000509
v -22.526741 0.653180 -0.009425
v -22.527077 0.653180 0.009798
v -22.517311 0.653175 -0.000000
v -22.527077 0.445083 0.009798
v -22.517311 0.444943 -0.000000
v -22.526741 0.445078 -0.009425
v -22.536701 0.445228 0.000509
v -22.174545 0.757958 0.009798
v -22.174553 0.748573 -0.000000
v -22.174545 0.757581 -0.009425
v -22.174576 0.767595 0.000509
v -22.409218 0.757958 0.009798
v -22.409389 0.748573 -0.000000
v -22.409050 0.767595 0.000509
v -22.409241 0.757581 -0.009425
v -23.113792 0.757958 0.009798
v -23.113796 0.748573 -0.000000
v -23.113792 0.757581 -0.009425
v -23.113819 0.767595 0.000509
v -23.348461 0.757958 0.009798
v -23.348633 0.748573 -0.000000
v -23.348297 0.767595 0.000509
v -23.348454 0.757581 -0.009425
v -23.006451 0.235616 0.000509
v -22.996521 0.235610 -0.009425
v -22.996822 0.235611 0.009798
v -22.987091 0.235605 -0.000000
v -22.996822 0.052727 0.009798
v -22.987091 0.052587 -0.000000
v -22.996521 0.052722 -0.009425
v -23.006451 0.052872 0.000509
v -22.419136 0.435401 0.000509
v -22.409203 0.445416 -0.009425
v -22.409508 0.445039 0.009798
v -22.399773 0.454424 -0.000000
v -22.644073 0.445039 0.009798
v -22.653809 0.454424 -0.000000
v -22.644379 0.445416 -0.009425
v -22.634415 0.435401 0.000509
v -22.409508 0.235737 0.009798
v -22.399773 0.226352 -0.000000
v -22.409203 0.235360 -0.009425
v -22.419136 0.245375 0.000509
v -22.644073 0.235737 0.009798
v -22.653809 0.226352 -0.000000
v -22.634418 0.245375 0.000509
v -22.644379 0.235360 -0.009425
v -22.644325 0.340388 0.009798
v -22.644299 0.331003 -0.000000
v -22.644325 0.340011 -0.009425
v -22.644356 0.350026 0.000509
v -22.878994 0.340388 0.009798
v -22.879139 0.331003 -0.000000
v -22.878830 0.350026 0.000509
v -22.878990 0.340011 -0.009425
v -22.888863 0.435401 0.000509
v -22.878933 0.445416 -0.009425
v -22.879234 0.445039 0.009798
v -22.869503 0.454424 -0.000000
v -23.113804 0.445039 0.009798
v -23.123535 0.454424 -0.000000
v -23.114105 0.445416 -0.009425
v -23.104145 0.435401 0.000509
v -22.879234 0.235737 0.009798
v -22.869503 0.226352 -0.000000
v -22.878933 0.235360 -0.009425
v -22.888863 0.245375 0.000509
v -23.113804 0.235737 0.009798
v -23.123535 0.226352 -0.000000
v -23.104149 0.245375 0.000509
v -23.114105 0.235360 -0.009425
v -22.536701 0.235616 0.000509
v -22.526741 0.235610 -0.009425
v -22.527077 0.235611 0.009798
v -22.517311 0.235605 -0.000000
v -22.527077 0.052727 0.009798
v -22.517311 0.052587 -0.000000
v -22.526741 0.052722 -0.009425
v -22.536701 0.052872 0.000509
v -22.174545 0.340388 0.009798
v -22.174553 0.331003 -0.000000
v -22.174545 0.340011 -0.009425
v -22.174576 0.350026 0.000509
v -22.409218 0.340388 0.009798
v -22.409389 0.331003 -0.000000
v -22.409050 0.350026 0.000509
v -22.409241 0.340011 -0.009425
v -23.113792 0.340388 0.009798
v -23.113796 0.331003 -0.000000
v -23.113792 0.340011 -0.009425
v -23.113819 0.350026 0.000509
v -23.348461 0.340388 0.009798
v -23.348633 0.331003 -0.000000
v -23.348297 0.350026 0.000509
v -23.348454 0.340011 -0.009425
v -23.369007 0.034859 -0.038166
v -22.147602 0.034859 -0.038166
v -23.369007 0.034859 0.038165
v -22.147602 0.034859 0.038165
v -23.369007 1.889282 0.038165
v -22.147602 1.889282 0.038165
v -23.369007 1.889282 -0.038166
v -22.147602 1.889282 -0.038166
v -23.328407 0.075455 0.038165
v -22.188206 0.075455 0.038165
v -22.188206 1.848686 0.038165
v -23.328407 1.848686 0.038165
v -23.328407 1.848686 -0.038166
v -22.188202 1.848686 -0.038166
v -22.188202 0.075455 -0.038166
v -23.328407 0.075455 -0.038166
v -23.348705 1.868984 0.046235
v -22.167904 1.868984 0.046235
v -22.167904 0.055157 0.046235
v -23.348705 0.055156 0.046235
v -23.348705 1.868984 -0.046235
v -23.348705 0.055157 -0.046235
v -22.167904 0.055157 -0.046235
v -22.167904 1.868984 -0.046235
v -23.348885 0.052730 -0.000000
v -22.167904 0.052730 -0.000000
v -23.348885 1.871424 -0.000000
v -22.167904 1.871424 -0.000000
vt -0.111771 0.118713
vt 0.762064 0.118713
vt 0.762064 0.840925
vt -0.111771 0.840925
vt 1.000091 0.851271
vt 1.000123 0.875733
vt 0.000924 0.875733
vt 0.000155 0.851271
vt 1.000155 0.899980
vt 0.001715 0.899980
vt 1.000121 0.874984
vt 0.000894 0.874984
vt 1.000091 0.851271
vt 1.000123 0.875733
vt 0.000924 0.875733
vt 0.000155 0.851271
vt 1.000155 0.899980
vt 0.001715 0.899980
vt 1.000121 0.874984
vt 0.000894 0.874984
vt 1.058792 0.888223
vt 1.058824 0.912685
vt -0.078091 0.912692
vt -0.078861 0.888500
vt 1.058856 0.936932
vt -0.077301 0.936661
vt 1.058822 0.911937
vt -0.078122 0.911930
vt 0.750000 0.963546
vt 0.750000 0.935456
vt 0.500000 0.935456
vt 0.500000 0.963546
vt 0.750000 0.963546
vt 0.500000 0.963546
vt 0.750000 0.991365
vt 1.000000 0.963546
vt 1.000000 0.991365
vt 1.000000 0.935456
vt 1.000000 0.963546
vt 0.500000 0.991365
vt 0.250000 0.935456
vt 0.250000 0.963546
vt 0.250000 0.991365
vt 0.000000 0.991365
vt 0.000000 0.963546
vt 0.250000 0.963546
vt 0.000000 0.963546
vt 0.000000 0.991365
vt 1.000000 0.963546
vt 1.000000 0.935456
vt 1.000000 0.991365
vt 1.000000 0.963546
vt 0.000000 0.963546
vt 0.000000 0.935456
vt 0.000000 0.935456
vt 0.000000 0.963546
vt 1.000000 0.852397
vt 0.999922 0.875134
vt 0.000694 0.875134
vt 0.000000 0.852397
vt 0.999924 0.874221
vt 0.000672 0.874221
vt 0.001380 0.898483
vt 0.999844 0.898483
vt 0.750000 0.963546
vt 0.750000 0.935456
vt 0.500000 0.935456
vt 0.500000 0.963546
vt 0.750000 0.963546
vt 0.500000 0.963546
vt 0.750000 0.991365
vt 1.000000 0.963546
vt 1.000000 0.991365
vt 1.000000 0.935456
vt 1.000000 0.963546
vt 0.500000 0.991365
vt 0.250000 0.935456
vt 0.250000 0.963546
vt 0.250000 0.991365
vt 0.000000 0.991365
vt 0.000000 0.963546
vt 0.250000 0.963546
vt 0.000000 0.963546
vt 0.000000 0.991365
vt 1.000000 0.963546
vt 1.000000 0.935456
vt 1.000000 0.991365
vt 1.000000 0.963546
vt 0.000000 0.963546
vt 0.000000 0.935456
vt 0.000000 0.935456
vt 0.000000 0.963546
vt 1.058792 0.888223
vt 1.058824 0.912685
vt -0.078091 0.912692
vt -0.078861 0.888500
vt 1.058856 0.936932
vt -0.077301 0.936661
vt 1.058822 0.911937
vt -0.078122 0.911930
vt 1.000000 0.852397
vt 0.999922 0.875134
vt 0.000694 0.875134
vt 0.000000 0.852397
vt 0.999924 0.874221
vt 0.000672 0.874221
vt 0.001380 0.898483
vt 0.999844 0.898483
vt 1.000000 0.852397
vt 0.999922 0.875134
vt 0.000694 0.875134
vt 0.000000 0.852397
vt 0.999924 0.874221
vt 0.000672 0.874221
vt 0.001380 0.898483
vt 0.999844 0.898483
vt 1.058792 0.888223
vt 1.058824 0.912685
vt -0.078091 0.912692
vt -0.078860 0.888500
vt 1.058856 0.936932
vt -0.077300 0.936661
vt 1.058822 0.911937
vt -0.078121 0.911930
vt 0.750000 0.963546
vt 0.750000 0.935456
vt 0.500000 0.935456
vt 0.500000 0.963546
vt 0.750000 0.963546
vt 0.500000 0.963546
vt 0.750000 0.991365
vt 1.000000 0.963546
vt 1.000000 0.991365
vt 1.000000 0.935456
vt 1.000000 0.963546
vt 0.500000 0.991365
vt 0.250000 0.935456
vt 0.250000 0.963546
vt 0.250000 0.991365
vt 0.000000 0.991365
vt 0.000000 0.963546
vt 0.250000 0.963546
vt 0.000000 0.963546
vt 0.000000 0.991365
vt 1.000000 0.963546
vt 1.000000 0.935456
vt 1.000000 0.991365
vt 1.000000 0.963546
vt 0.000000 0.963546
vt 0.000000 0.935456
vt 0.000000 0.935456
vt 0.000000 0.963546
vt 1.000000 0.852397
vt 0.999922 0.875134
vt 0.000694 0.875134
vt 0.000000 0.852397
vt 0.999924 0.874221
vt 0.000672 0.874221
vt 0.001380 0.898483
vt 0.999844 0.898483
vt 0.750000 0.963546
vt 0.750000 0.935456
vt 0.500000 0.935456
vt 0.500000 0.963546
vt 0.750000 0.963546
vt 0.500000 0.963546
vt 0.750000 0.991365
vt 1.000000 0.963546
vt 1.000000 0.991365
vt 1.000000 0.935456
vt 1.000000 0.963546
vt 0.500000 0.991365
vt 0.250000 0.935456
vt 0.250000 0.963546
vt 0.250000 0.991365
vt 0.000000 0.991365
vt 0.000000 0.963546
vt 0.250000 0.963546
vt 0.000000 0.963546
vt 0.000000 0.991365
vt 1.000000 0.963546
vt 1.000000 0.935456
vt 1.000000 0.991365
vt 1.000000 0.963546
vt 0.000000 0.963546
vt 0.000000 0.935456
vt 0.000000 0.935456
vt 0.000000 0.963546
vt 1.058792 0.888223
vt 1.058824 0.912685
vt -0.078091 0.912692
vt -0.078860 0.888500
vt 1.058856 0.936932
vt -0.077300 0.936661
vt 1.058822 0.911937
vt -0.078121 0.911930
vt 1.000000 0.852397
vt 0.999922 0.875134
vt 0.000694 0.875134
vt 0.000000 0.852397
vt 0.999924 0.874221
vt 0.000672 0.874221
vt 0.001380 0.898483
vt 0.999844 0.898483
vt 1.000000 0.852397
vt 0.999922 0.875134
vt 0.000694 0.875134
vt 0.000000 0.852397
vt 0.999924 0.874221
vt 0.000672 0.874221
vt 0.001380 0.898483
vt 0.999844 0.898483
vt 1.058792 0.888223
vt 1.058824 0.912685
vt -0.078091 0.912692
vt -0.078860 0.888500
vt 1.058856 0.936932
vt -0.077300 0.936661
vt 1.058822 0.911937
vt -0.078121 0.911930
vt 0.750000 0.963546
vt 0.750000 0.935456
vt 0.500000 0.935456
vt 0.500000 0.963546
vt 0.750000 0.963546
vt 0.500000 0.963546
vt 0.750000 0.991365
vt 1.000000 0.963546
vt 1.000000 0.991365
vt 1.000000 0.935456
vt 1.000000 0.963546
vt 0.500000 0.991365
vt 0.250000 0.935456
vt 0.250000 0.963546
vt 0.250000 0.991365
vt 0.000000 0.991365
vt 0.000000 0.963546
vt 0.250000 0.963546
vt 0.000000 0.963546
vt 0.000000 0.991365
vt 1.000000 0.963546
vt 1.000000 0.935456
vt 1.000000 0.991365
vt 1.000000 0.963546
vt 0.000000 0.963546
vt 0.000000 0.935456
vt 0.000000 0.935456
vt 0.000000 0.963546
vt 1.000000 0.852397
vt 0.999922 0.875134
vt 0.000694 0.875134
vt 0.000000 0.852397
vt 0.999924 0.874221
vt 0.000672 0.874221
vt 0.001380 0.898483
vt 0.999844 0.898483
vt 0.750000 0.963546
vt 0.750000 0.935456
vt 0.500000 0.935456
vt 0.500000 0.963546
vt 0.750000 0.963546
vt 0.500000 0.963546
vt 0.750000 0.991365
vt 1.000000 0.963546
vt 1.000000 0.991365
vt 1.000000 0.935456
vt 1.000000 0.963546
vt 0.500000 0.991365
vt 0.250000 0.935456
vt 0.250000 0.963546
vt 0.250000 0.991365
vt 0.000000 0.991365
vt 0.000000 0.963546
vt 0.250000 0.963546
vt 0.000000 0.963546
vt 0.000000 0.991365
vt 1.000000 0.963546
vt 1.000000 0.935456
vt 1.000000 0.991365
vt 1.000000 0.963546
vt 0.000000 0.963546
vt 0.000000 0.935456
vt 0.000000 0.935456
vt 0.000000 0.963546
vt 1.058792 0.888223
vt 1.058824 0.912685
vt -0.078091 0.912692
vt -0.078860 0.888500
vt 1.058856 0.936932
vt -0.077300 0.936661
vt 1.058822 0.911937
vt -0.078121 0.911930
vt 1.000000 0.852397
vt 0.999922 0.875134
vt 0.000694 0.875134
vt 0.000000 0.852397
vt 0.999924 0.874221
vt 0.000672 0.874221
vt 0.001380 0.898483
vt 0.999844 0.898483
vt 1.000000 0.852397
vt 0.999922 0.875134
vt 0.000694 0.875134
vt 0.000000 0.852397
vt 0.999924 0.874221
vt 0.000672 0.874221
vt 0.001380 0.898483
vt 0.999844 0.898483
vt 1.000091 0.851271
vt 1.000123 0.875733
vt 0.000924 0.875733
vt 0.000155 0.851271
vt 1.000155 0.899980
vt 0.001715 0.899980
vt 1.000121 0.874984
vt 0.000894 0.874984
vt 0.750000 0.963546
vt 0.750000 0.935456
vt 0.500000 0.935456
vt 0.500000 0.963546
vt 0.750000 0.963546
vt 0.500000 0.963546
vt 0.750000 0.991365
vt 1.000000 0.963546
vt 1.000000 0.991365
vt 1.000000 0.935456
vt 1.000000 0.963546
vt 0.500000 0.991365
vt 0.250000 0.935456
vt 0.250000 0.963546
vt 0.250000 0.991365
vt 0.000000 0.991365
vt 0.000000 0.963546
vt 0.250000 0.963546
vt 0.000000 0.963546
vt 0.000000 0.991365
vt 1.000000 0.963546
vt 1.000000 0.935456
vt 1.000000 0.991365
vt 1.000000 0.963546
vt 0.000000 0.963546
vt 0.000000 0.935456
vt 0.000000 0.935456
vt 0.000000 0.963546
vt 1.000000 0.852397
vt 0.999922 0.875134
vt 0.000694 0.875134
vt 0.000000 0.852397
vt 0.999924 0.874221
vt 0.000672 0.874221
vt 0.001380 0.898483
vt 0.999844 0.898483
vt 0.750000 0.963546
vt 0.750000 0.935456
vt 0.500000 0.935456
vt 0.500000 0.963546
vt 0.750000 0.963546
vt 0.500000 0.963546
vt 0.750000 0.991365
vt 1.000000 0.963546
vt 1.000000 0.991365
vt 1.000000 0.935456
vt 1.000000 0.963546
vt 0.500000 0.991365
vt 0.250000 0.935456
vt 0.250000 0.963546
vt 0.250000 0.991365
vt 0.000000 0.991365
vt 0.000000 0.963546
vt 0.250000 0.963546
vt 0.000000 0.963546
vt 0.000000 0.991365
vt 1.000000 0.963546
vt 1.000000 0.935456
vt 1.000000 0.991365
vt 1.000000 0.963546
vt 0.000000 0.963546
vt 0.000000 0.935456
vt 0.000000 0.935456
vt 0.000000 0.963546
vt 1.000091 0.851271
vt 1.000123 0.875733
vt 0.000924 0.875733
vt 0.000155 0.851271
vt 1.000155 0.899980
vt 0.001715 0.899980
vt 1.000121 0.874984
vt 0.000894 0.874984
vt 1.000000 0.852397
vt 0.999922 0.875134
vt 0.000694 0.875134
vt 0.000000 0.852397
vt 0.999924 0.874221
vt 0.000672 0.874221
vt 0.001380 0.898483
vt 0.999844 0.898483
vt 1.000000 0.852397
vt 0.999922 0.875134
vt 0.000694 0.875134
vt 0.000000 0.852397
vt 0.999924 0.874221
vt 0.000672 0.874221
vt 0.001380 0.898483
vt 0.999844 0.898483
vt 4.019650 0.862458
vt 6.119252 0.862458
vt 6.119252 0.923846
vt 4.019650 0.923846
vt 0.525447 0.923857
vt -1.582623 0.923857
vt -1.582623 0.863283
vt 0.525447 0.863283
vt -5.076277 0.862458
vt -5.076277 0.923846
vt 6.119252 0.923846
vt 6.119252 0.954975
vt 4.019650 0.954975
vt -5.076277 0.923846
vt -1.582623 0.955393
vt -5.076277 0.954975
vt 0.525447 0.955393
vt -1.582623 0.894412
vt 0.525447 0.894412
vt -5.076277 0.862458
vt -5.076277 0.893994
vt 6.119252 0.862458
vt 4.019650 0.893994
vt 6.119252 0.893994
vt 0.525447 0.925541
vt -1.582622 0.925541
vt -1.582622 0.986929
vt 0.525447 0.986929
vt -5.076277 0.925530
vt -5.076277 0.986103
vt 6.119252 0.925530
vt 4.019650 0.925530
vt 4.019650 0.986103
vt 6.119252 0.986104
vt -5.076277 0.986103
vt 6.119252 0.986104
vt 6.119252 0.925530
vt -5.076277 0.925530
vt -0.111771 0.118713
vt 0.762064 0.118713
vt 0.762064 0.840925
vt -0.111771 0.840925
vn 0.000000 0.000000 1.000000
vn 0.000000 0.000000 1.000000
vn 0.000000 0.000000 1.000000
vn 0.000000 0.000000 1.000000
vn 0.709537 0.000000 0.704668
vn 0.709537 0.000000 0.704668
vn 0.709537 0.000000 0.704668
vn 0.709537 0.000000 0.704668
vn -0.694323 0.000000 0.719664
vn -0.694323 0.000000 0.719664
vn -0.694323 0.000000 0.719664
vn -0.694323 0.000000 0.719664
vn -0.707260 0.000000 -0.706954
vn -0.707260 0.000000 -0.706954
vn -0.707260 0.000000 -0.706954
vn -0.707260 0.000000 -0.706954
vn 0.706910 0.000000 -0.707304
vn 0.706910 0.000000 -0.707304
vn 0.706910 0.000000 -0.707304
vn 0.706910 0.000000 -0.707304
vn 0.708295 0.000000 0.705917
vn 0.708295 0.000000 0.705917
vn 0.708295 0.000000 0.705917
vn 0.708295 0.000000 0.705917
vn -0.694465 0.000000 0.719526
vn -0.694465 0.000000 0.719526
vn -0.694465 0.000000 0.719526
vn -0.694465 0.000000 0.719526
vn -0.706174 0.000000 -0.708038
vn -0.706174 0.000000 -0.708038
vn -0.706174 0.000000 -0.708038
vn -0.706174 0.000000 -0.708038
vn 0.706910 0.000000 -0.707304
vn 0.706910 0.000000 -0.707304
vn 0.706910 0.000000 -0.707304
vn 0.706910 0.000000 -0.707304
vn 0.709537 0.000000 0.704668
vn 0.709537 0.000000 0.704668
vn 0.709537 0.000000 0.704668
vn 0.709537 0.000000 0.704668
vn -0.694323 0.000000 0.719664
vn -0.694323 0.000000 0.719664
vn -0.694323 0.000000 0.719664
vn -0.694323 0.000000 0.719664
vn -0.707260 0.000000 -0.706954
vn -0.707260 0.000000 -0.706954
vn -0.707260 0.000000 -0.706954
vn -0.707260 0.000000 -0.706954
vn 0.706910 0.000000 -0.707303
vn 0.706910 0.000000 -0.707303
vn 0.706910 0.000000 -0.707303
vn 0.706910 0.000000 -0.707303
vn 0.000000 -0.704245 -0.709957
vn 0.000000 -0.704245 -0.709957
vn 0.000000 -0.704245 -0.709957
vn 0.000000 -0.704245 -0.709957
vn 0.000000 -0.693968 0.720006
vn 0.000000 -0.693968 0.720006
vn 0.000000 -0.693968 0.720006
vn 0.000000 -0.693968 0.720006
vn 0.709399 0.000000 0.704807
vn 0.709399 0.000000 0.704807
vn 0.709399 0.000000 0.704807
vn 0.709399 0.000000 0.704807
vn -0.694323 0.000000 0.719664
vn -0.694323 0.000000 0.719664
vn -0.694323 0.000000 0.719664
vn -0.694323 0.000000 0.719664
vn 0.000000 0.722177 0.691708
vn 0.000000 0.722177 0.691708
vn 0.000000 0.722177 0.691708
vn 0.000000 0.722177 0.691708
vn 0.000000 0.722890 -0.690963
vn 0.000000 0.722890 -0.690963
vn 0.000000 0.722890 -0.690963
vn 0.000000 0.722890 -0.690963
vn 0.706106 -0.000005 -0.708106
vn 0.706106 -0.000005 -0.708106
vn 0.706106 -0.000005 -0.708106
vn 0.706106 -0.000005 -0.708106
vn -0.706910 0.000000 -0.707304
vn -0.706910 0.000000 -0.707304
vn -0.706910 0.000000 -0.707304
vn -0.706910 0.000000 -0.707304
vn 0.000000 -0.722176 0.691710
vn 0.000000 -0.722176 0.691710
vn 0.000000 -0.722176 0.691710
vn 0.000000 -0.722176 0.691710
vn 0.000000 -0.722890 -0.690963
vn 0.000000 -0.722890 -0.690963
vn 0.000000 -0.722890 -0.690963
vn 0.000000 -0.722890 -0.690963
vn -0.707124 0.000000 -0.707090
vn -0.707124 0.000000 -0.707090
vn -0.707124 0.000000 -0.707090
vn -0.707124 0.000000 -0.707090
vn 0.706910 0.000000 -0.707304
vn 0.706910 0.000000 -0.707304
vn 0.706910 0.000000 -0.707304
vn 0.706910 0.000000 -0.707304
vn 0.000000 0.704246 -0.709956
vn 0.000000 0.704246 -0.709956
vn 0.000000 0.704246 -0.709956
vn 0.000000 0.704246 -0.709956
vn 0.000000 0.693970 0.720004
vn 0.000000 0.693970 0.720004
vn 0.000000 0.693970 0.720004
vn 0.000000 0.693970 0.720004
vn -0.709399 0.000000 0.704807
vn -0.709399 0.000000 0.704807
vn -0.709399 0.000000 0.704807
vn -0.709399 0.000000 0.704807
vn 0.693255 -0.000006 0.720692
vn 0.693255 -0.000006 0.720692
vn 0.693255 -0.000006 0.720692
vn 0.693255 -0.000006 0.720692
vn 0.000000 -0.722178 0.691708
vn 0.000000 -0.722178 0.691708
vn 0.000000 -0.722178 0.691708
vn 0.000000 -0.722178 0.691708
vn 0.000000 -0.722893 -0.690960
vn 0.000000 -0.722893 -0.690960
vn 0.000000 -0.722893 -0.690960
vn 0.000000 -0.722893 -0.690960
vn 0.000000 0.704250 -0.709952
vn 0.000000 0.704250 -0.709952
vn 0.000000 0.704250 -0.709952
vn 0.000000 0.704250 -0.709952
vn 0.000000 0.693968 0.720006
vn 0.000000 0.693968 0.720006
vn 0.000000 0.693968 0.720006
vn 0.000000 0.693968 0.720006
vn 0.000000 -0.704242 -0.709960
vn 0.000000 -0.704242 -0.709960
vn 0.000000 -0.704242 -0.709960
vn 0.000000 -0.704242 -0.709960
vn 0.000000 -0.693963 0.720011
vn 0.000000 -0.693963 0.720011
vn 0.000000 -0.693963 0.720011
vn 0.000000 -0.693963 0.720011
vn 0.709537 0.000000 0.704668
vn 0.709537 0.000000 0.704668
vn 0.709537 0.000000 0.704668
vn 0.709537 0.000000 0.704668
vn -0.694323 0.000000 0.719664
vn -0.694323 0.000000 0.719664
vn -0.694323 0.000000 0.719664
vn -0.694323 0.000000 0.719664
vn 0.000000 0.722175 0.691710
vn 0.000000 0.722175 0.691710
vn 0.000000 0.722175 0.691710
vn 0.000000 0.722175 0.691710
vn 0.000000 0.722893 -0.690960
vn 0.000000 0.722893 -0.690960
vn 0.000000 0.722893 -0.690960
vn 0.000000 0.722893 -0.690960
vn 0.706242 -0.000005 -0.707971
vn 0.706242 -0.000005 -0.707971
vn 0.706242 -0.000005 -0.707971
vn 0.706242 -0.000005 -0.707971
vn -0.706910 0.000000 -0.707304
vn -0.706910 0.000000 -0.707304
vn -0.706910 0.000000 -0.707304
vn -0.706910 0.000000 -0.707304
vn 0.000000 -0.722178 0.691707
vn 0.000000 -0.722178 0.691707
vn 0.000000 -0.722178 0.691707
vn 0.000000 -0.722178 0.691707
vn 0.000000 -0.722888 -0.690965
vn 0.000000 -0.722888 -0.690965
vn 0.000000 -0.722888 -0.690965
vn 0.000000 -0.722888 -0.690965
vn -0.707260 0.000000 -0.706954
vn -0.707260 0.000000 -0.706954
vn -0.707260 0.000000 -0.706954
vn -0.707260 0.000000 -0.706954
vn 0.706910 0.000000 -0.707304
vn 0.706910 0.000000 -0.707304
vn 0.706910 0.000000 -0.707304
vn 0.706910 0.000000 -0.707304
vn 0.000000 0.704244 -0.709958
vn 0.000000 0.704244 -0.709958
vn 0.000000 0.704244 -0.709958
vn 0.000000 0.704244 -0.709958
vn 0.000000 0.693965 0.720008
vn 0.000000 0.693965 0.720008
vn 0.000000 0.693965 0.720008
vn 0.000000 0.693965 0.720008
vn -0.709537 0.000000 0.704668
vn -0.709537 0.000000 0.704668
vn -0.709537 0.000000 0.704668
vn -0.709537 0.000000 0.704668
vn 0.693255 -0.000006 0.720692
vn 0.693255 -0.000006 0.720692
vn 0.693255 -0.000006 0.720692
vn 0.693255 -0.000006 0.720692
vn 0.708295 0.000000 0.705917
vn 0.708295 0.000000 0.705917
vn 0.708295 0.000000 0.705917
vn 0.708295 0.000000 0.705917
vn -0.694465 0.000000 0.719526
vn -0.694465 0.000000 0.719526
vn -0.694465 0.000000 0.719526
vn -0.694465 0.000000 0.719526
vn -0.706174 0.000000 -0.708038
vn -0.706174 0.000000 -0.708038
vn -0.706174 0.000000 -0.708038
vn -0.706174 0.000000 -0.708038
vn 0.706910 0.000000 -0.707303
vn 0.706910 0.000000 -0.707303
vn 0.706910 0.000000 -0.707303
vn 0.706910 0.000000 -0.707303
vn 0.000000 -0.722178 0.691708
vn 0.000000 -0.722178 0.691708
vn 0.000000 -0.722178 0.691708
vn 0.000000 -0.722178 0.691708
vn 0.000000 -0.722893 -0.690960
vn 0.000000 -0.722893 -0.690960
vn 0.000000 -0.722893 -0.690960
vn 0.000000 -0.722893 -0.690960
vn 0.000000 0.704248 -0.709954
vn 0.000000 0.704248 -0.709954
vn 0.000000 0.704248 -0.709954
vn 0.000000 0.704248 -0.709954
vn 0.000000 0.693971 0.720003
vn 0.000000 0.693971 0.720003
vn 0.000000 0.693971 0.720003
vn 0.000000 0.693971 0.720003
vn 0.000000 -0.722173 0.691712
vn 0.000000 -0.722173 0.691712
vn 0.000000 -0.722173 0.691712
vn 0.000000 -0.722173 0.691712
vn 0.000000 -0.722887 -0.690967
vn 0.000000 -0.722887 -0.690967
vn 0.000000 -0.722887 -0.690967
vn 0.000000 -0.722887 -0.690967
vn 0.000000 0.704246 -0.709957
vn 0.000000 0.704246 -0.709957
vn 0.000000 0.704246 -0.709957
vn 0.000000 0.704246 -0.709957
vn 0.000000 0.693968 0.720005
vn 0.000000 0.693968 0.720005
vn 0.000000 0.693968 0.720005
vn 0.000000 0.693968 0.720005
vn 0.709537 0.000000 0.704668
vn 0.709537 0.000000 0.704668
vn 0.709537 0.000000 0.704668
vn 0.709537 0.000000 0.704668
vn -0.694323 0.000000 0.719664
vn -0.694323 0.000000 0.719664
vn -0.694323 0.000000 0.719664
vn -0.694323 0.000000 0.719664
vn -0.707260 0.000000 -0.706954
vn -0.707260 0.000000 -0.706954
vn -0.707260 0.000000 -0.706954
vn -0.707260 0.000000 -0.706954
vn 0.706910 0.000000 -0.707303
vn 0.706910 0.000000 -0.707303
vn 0.706910 0.000000 -0.707303
vn 0.706910 0.000000 -0.707303
vn 0.000000 -0.704240 -0.709962
vn 0.000000 -0.704240 -0.709962
vn 0.000000 -0.704240 -0.709962
vn 0.000000 -0.704240 -0.709962
vn 0.000000 -0.693968 0.720006
vn 0.000000 -0.693968 0.720006
vn 0.000000 -0.693968 0.720006
vn 0.000000 -0.693968 0.720006
vn 0.709399 0.000000 0.704807
vn 0.709399 0.000000 0.704807
vn 0.709399 0.000000 0.704807
vn 0.709399 0.000000 0.704807
vn -0.694323 0.000000 0.719664
vn -0.694323 0.000000 0.719664
vn -0.694323 0.000000 0.719664
vn -0.694323 0.000000 0.719664
vn 0.000000 0.722197 0.691688
vn 0.000000 0.722197 0.691688
vn 0.000000 0.722197 0.691688
vn 0.000000 0.722197 0.691688
vn 0.000000 0.722910 -0.690942
vn 0.000000 0.722910 -0.690942
vn 0.000000 0.722910 -0.690942
vn 0.000000 0.722910 -0.690942
vn 0.706106 -0.000005 -0.708106
vn 0.706106 -0.000005 -0.708106
vn 0.706106 -0.000005 -0.708106
vn 0.706106 -0.000005 -0.708106
vn -0.706910 0.000000 -0.707304
vn -0.706910 0.000000 -0.707304
vn -0.706910 0.000000 -0.707304
vn -0.706910 0.000000 -0.707304
vn 0.000000 -0.722180 0.691705
vn 0.000000 -0.722180 0.691705
vn 0.000000 -0.722180 0.691705
vn 0.000000 -0.722180 0.691705
vn 0.000001 -0.722918 -0.690933
vn 0.000001 -0.722918 -0.690933
vn 0.000001 -0.722918 -0.690933
vn 0.000001 -0.722918 -0.690933
vn -0.707124 0.000000 -0.707090
vn -0.707124 0.000000 -0.707090
vn -0.707124 0.000000 -0.707090
vn -0.707124 0.000000 -0.707090
vn 0.706910 0.000000 -0.707303
vn 0.706910 0.000000 -0.707303
vn 0.706910 0.000000 -0.707303
vn 0.706910 0.000000 -0.707303
vn -0.000001 0.704219 -0.709983
vn -0.000001 0.704219 -0.709983
vn -0.000001 0.704219 -0.709983
vn -0.000001 0.704219 -0.709983
vn 0.000000 0.693967 0.720007
vn 0.000000 0.693967 0.720007
vn 0.000000 0.693967 0.720007
vn 0.000000 0.693967 0.720007
vn -0.709399 0.000000 0.704807
vn -0.709399 0.000000 0.704807
vn -0.709399 0.000000 0.704807
vn -0.709399 0.000000 0.704807
vn 0.693255 -0.000006 0.720692
vn 0.693255 -0.000006 0.720692
vn 0.693255 -0.000006 0.720692
vn 0.693255 -0.000006 0.720692
vn 0.000000 -0.722215 0.691669
vn 0.000000 -0.722215 0.691669
vn 0.000000 -0.722215 0.691669
vn 0.000000 -0.722215 0.691669
vn 0.000000 -0.722928 -0.690924
vn 0.000000 -0.722928 -0.690924
vn 0.000000 -0.722928 -0.690924
vn 0.000000 -0.722928 -0.690924
vn 0.000000 0.704262 -0.709941
vn 0.000000 0.704262 -0.709941
vn 0.000000 0.704262 -0.709941
vn 0.000000 0.704262 -0.709941
vn 0.000000 0.693980 0.719994
vn 0.000000 0.693980 0.719994
vn 0.000000 0.693980 0.719994
vn 0.000000 0.693980 0.719994
vn 0.000000 -0.704242 -0.709960
vn 0.000000 -0.704242 -0.709960
vn 0.000000 -0.704242 -0.709960
vn 0.000000 -0.704242 -0.709960
vn 0.000000 -0.693968 0.720006
vn 0.000000 -0.693968 0.720006
vn 0.000000 -0.693968 0.720006
vn 0.000000 -0.693968 0.720006
vn 0.709537 0.000000 0.704668
vn 0.709537 0.000000 0.704668
vn 0.709537 0.000000 0.704668
vn 0.709537 0.000000 0.704668
vn -0.694323 0.000000 0.719664
vn -0.694323 0.000000 0.719664
vn -0.694323 0.000000 0.719664
vn -0.694323 0.000000 0.719664
vn 0.000000 0.722192 0.691692
vn 0.000000 0.722192 0.691692
vn 0.000000 0.722192 0.691692
vn 0.000000 0.722192 0.691692
vn 0.000000 0.722908 -0.690944
vn 0.000000 0.722908 -0.690944
vn 0.000000 0.722908 -0.690944
vn 0.000000 0.722908 -0.690944
vn 0.706242 -0.000005 -0.707971
vn 0.706242 -0.000005 -0.707971
vn 0.706242 -0.000005 -0.707971
vn 0.706242 -0.000005 -0.707971
vn -0.706910 0.000000 -0.707304
vn -0.706910 0.000000 -0.707304
vn -0.706910 0.000000 -0.707304
vn -0.706910 0.000000 -0.707304
vn 0.000000 -0.722178 0.691707
vn 0.000000 -0.722178 0.691707
vn 0.000000 -0.722178 0.691707
vn 0.000000 -0.722178 0.691707
vn 0.000001 -0.722921 -0.690931
vn 0.000001 -0.722921 -0.690931
vn 0.000001 -0.722921 -0.690931
vn 0.000001 -0.722921 -0.690931
vn -0.707260 0.000000 -0.706954
vn -0.707260 0.000000 -0.706954
vn -0.707260 0.000000 -0.706954
vn -0.707260 0.000000 -0.706954
vn 0.706910 0.000000 -0.707303
vn 0.706910 0.000000 -0.707303
vn 0.706910 0.000000 -0.707303
vn 0.706910 0.000000 -0.707303
vn -0.000001 0.704218 -0.709984
vn -0.000001 0.704218 -0.709984
vn -0.000001 0.704218 -0.709984
vn -0.000001 0.704218 -0.709984
vn 0.000000 0.693967 0.720006
vn 0.000000 0.693967 0.720006
vn 0.000000 0.693967 0.720006
vn 0.000000 0.693967 0.720006
vn -0.709537 0.000000 0.704668
vn -0.709537 0.000000 0.704668
vn -0.709537 0.000000 0.704668
vn -0.709537 0.000000 0.704668
vn 0.693255 -0.000006 0.720692
vn 0.693255 -0.000006 0.720692
vn 0.693255 -0.000006 0.720692
vn 0.693255 -0.000006 0.720692
vn 0.708295 0.000000 0.705917
vn 0.708295 0.000000 0.705917
vn 0.708295 0.000000 0.705917
vn 0.708295 0.000000 0.705917
vn -0.694465 0.000000 0.719526
vn -0.694465 0.000000 0.719526
vn -0.694465 0.000000 0.719526
vn -0.694465 0.000000 0.719526
vn -0.706174 0.000000 -0.708038
vn -0.706174 0.000000 -0.708038
vn -0.706174 0.000000 -0.708038
vn -0.706174 0.000000 -0.708038
vn 0.706910 0.000000 -0.707303
vn 0.706910 0.000000 -0.707303
vn 0.706910 0.000000 -0.707303
vn 0.706910 0.000000 -0.707303
vn 0.000000 -0.722210 0.691674
vn 0.000000 -0.722210 0.691674
vn 0.000000 -0.722210 0.691674
vn 0.000000 -0.722210 0.691674
vn 0.000000 -0.722927 -0.690925
vn 0.000000 -0.722927 -0.690925
vn 0.000000 -0.722927 -0.690925
vn 0.000000 -0.722927 -0.690925
vn 0.000000 0.704260 -0.709943
vn 0.000000 0.704260 -0.709943
vn 0.000000 0.704260 -0.709943
vn 0.000000 0.704260 -0.709943
vn 0.000000 0.693983 0.719992
vn 0.000000 0.693983 0.719992
vn 0.000000 0.693983 0.719992
vn 0.000000 0.693983 0.719992
vn 0.000000 -0.722211 0.691673
vn 0.000000 -0.722211 0.691673
vn 0.000000 -0.722211 0.691673
vn 0.000000 -0.722211 0.691673
vn 0.000000 -0.722925 -0.690926
vn 0.000000 -0.722925 -0.690926
vn 0.000000 -0.722925 -0.690926
vn 0.000000 -0.722925 -0.690926
vn 0.000000 0.704264 -0.709938
vn 0.000000 0.704264 -0.709938
vn 0.000000 0.704264 -0.709938
vn 0.000000 0.704264 -0.709938
vn 0.000000 0.693983 0.719991
vn 0.000000 0.693983 0.719991
vn 0.000000 0.693983 0.719991
vn 0.000000 0.693983 0.719991
vn 0.709537 0.000000 0.704668
vn 0.709537 0.000000 0.704668
vn 0.709537 0.000000 0.704668
vn 0.709537 0.000000 0.704668
vn -0.694323 0.000000 0.719664
vn -0.694323 0.000000 0.719664
vn -0.694323 0.000000 0.719664
vn -0.694323 0.000000 0.719664
vn -0.707260 0.000000 -0.706954
vn -0.707260 0.000000 -0.706954
vn -0.707260 0.000000 -0.706954
vn -0.707260 0.000000 -0.706954
vn 0.706910 0.000000 -0.707304
vn 0.706910 0.000000 -0.707304
vn 0.706910 0.000000 -0.707304
vn 0.706910 0.000000 -0.707304
vn 0.000000 -0.704249 -0.709953
vn 0.000000 -0.704249 -0.709953
vn 0.000000 -0.704249 -0.709953
vn 0.000000 -0.704249 -0.709953
vn 0.000000 -0.693968 0.720006
vn 0.000000 -0.693968 0.720006
vn 0.000000 -0.693968 0.720006
vn 0.000000 -0.693968 0.720006
vn 0.709399 0.000000 0.704807
vn 0.709399 0.000000 0.704807
vn 0.709399 0.000000 0.704807
vn 0.709399 0.000000 0.704807
vn -0.694323 0.000000 0.719664
vn -0.694323 0.000000 0.719664
vn -0.694323 0.000000 0.719664
vn -0.694323 0.000000 0.719664
vn 0.000000 0.722196 0.691689
vn 0.000000 0.722196 0.691689
vn 0.000000 0.722196 0.691689
vn 0.000000 0.722196 0.691689
vn 0.000000 0.722909 -0.690943
vn 0.000000 0.722909 -0.690943
vn 0.000000 0.722909 -0.690943
vn 0.000000 0.722909 -0.690943
vn 0.706106 -0.000005 -0.708106
vn 0.706106 -0.000005 -0.708106
vn 0.706106 -0.000005 -0.708106
vn 0.706106 -0.000005 -0.708106
vn -0.706910 0.000000 -0.707304
vn -0.706910 0.000000 -0.707304
vn -0.706910 0.000000 -0.707304
vn -0.706910 0.000000 -0.707304
vn 0.000000 -0.722180 0.691705
vn 0.000000 -0.722180 0.691705
vn 0.000000 -0.722180 0.691705
vn 0.000000 -0.722180 0.691705
vn 0.000000 -0.722890 -0.690963
vn 0.000000 -0.722890 -0.690963
vn 0.000000 -0.722890 -0.690963
vn 0.000000 -0.722890 -0.690963
vn -0.707124 0.000000 -0.707090
vn -0.707124 0.000000 -0.707090
vn -0.707124 0.000000 -0.707090
vn -0.707124 0.000000 -0.707090
vn 0.706910 0.000000 -0.707304
vn 0.706910 0.000000 -0.707304
vn 0.706910 0.000000 -0.707304
vn 0.706910 0.000000 -0.707304
vn 0.000000 0.704245 -0.709957
vn 0.000000 0.704245 -0.709957
vn 0.000000 0.704245 -0.709957
vn 0.000000 0.704245 -0.709957
vn 0.000000 0.693968 0.720006
vn 0.000000 0.693968 0.720006
vn 0.000000 0.693968 0.720006
vn 0.000000 0.693968 0.720006
vn -0.709399 0.000000 0.704807
vn -0.709399 0.000000 0.704807
vn -0.709399 0.000000 0.704807
vn -0.709399 0.000000 0.704807
vn 0.693255 -0.000006 0.720692
vn 0.693255 -0.000006 0.720692
vn 0.693255 -0.000006 0.720692
vn 0.693255 -0.000006 0.720692
vn 0.000000 -0.722194 0.691691
vn 0.000000 -0.722194 0.691691
vn 0.000000 -0.722194 0.691691
vn 0.000000 -0.722194 0.691691
vn 0.000000 -0.722911 -0.690942
vn 0.000000 -0.722911 -0.690942
vn 0.000000 -0.722911 -0.690942
vn 0.000000 -0.722911 -0.690942
vn 0.000000 0.704246 -0.709956
vn 0.000000 0.704246 -0.709956
vn 0.000000 0.704246 -0.709956
vn 0.000000 0.704246 -0.709956
vn 0.000000 0.693967 0.720007
vn 0.000000 0.693967 0.720007
vn 0.000000 0.693967 0.720007
vn 0.000000 0.693967 0.720007
vn 0.000000 -0.704242 -0.709960
vn 0.000000 -0.704242 -0.709960
vn 0.000000 -0.704242 -0.709960
vn 0.000000 -0.704242 -0.709960
vn 0.000000 -0.693965 0.720008
vn 0.000000 -0.693965 0.720008
vn 0.000000 -0.693965 0.720008
vn 0.000000 -0.693965 0.720008
vn 0.709537 0.000000 0.704668
vn 0.709537 0.000000 0.704668
vn 0.709537 0.000000 0.704668
vn 0.709537 0.000000 0.704668
vn -0.694323 0.000000 0.719664
vn -0.694323 0.000000 0.719664
vn -0.694323 0.000000 0.719664
vn -0.694323 0.000000 0.719664
vn 0.000000 0.722196 0.691688
vn 0.000000 0.722196 0.691688
vn 0.000000 0.722196 0.691688
vn 0.000000 0.722196 0.691688
vn 0.000000 0.722912 -0.690941
vn 0.000000 0.722912 -0.690941
vn 0.000000 0.722912 -0.690941
vn 0.000000 0.722912 -0.690941
vn 0.706242 -0.000005 -0.707971
vn 0.706242 -0.000005 -0.707971
vn 0.706242 -0.000005 -0.707971
vn 0.706242 -0.000005 -0.707971
vn -0.706910 0.000000 -0.707304
vn -0.706910 0.000000 -0.707304
vn -0.706910 0.000000 -0.707304
vn -0.706910 0.000000 -0.707304
vn 0.000000 -0.722178 0.691707
vn 0.000000 -0.722178 0.691707
vn 0.000000 -0.722178 0.691707
vn 0.000000 -0.722178 0.691707
vn 0.000000 -0.722888 -0.690965
vn 0.000000 -0.722888 -0.690965
vn 0.000000 -0.722888 -0.690965
vn 0.000000 -0.722888 -0.690965
vn -0.707260 0.000000 -0.706954
vn -0.707260 0.000000 -0.706954
vn -0.707260 0.000000 -0.706954
vn -0.707260 0.000000 -0.706954
vn 0.706910 0.000000 -0.707304
vn 0.706910 0.000000 -0.707304
vn 0.706910 0.000000 -0.707304
vn 0.706910 0.000000 -0.707304
vn 0.000000 0.704244 -0.709958
vn 0.000000 0.704244 -0.709958
vn 0.000000 0.704244 -0.709958
vn 0.000000 0.704244 -0.709958
vn 0.000000 0.693966 0.720008
vn 0.000000 0.693966 0.720008
vn 0.000000 0.693966 0.720008
vn 0.000000 0.693966 0.720008
vn -0.709537 0.000000 0.704668
vn -0.709537 0.000000 0.704668
vn -0.709537 0.000000 0.704668
vn -0.709537 0.000000 0.704668
vn 0.693255 -0.000006 0.720692
vn 0.693255 -0.000006 0.720692
vn 0.693255 -0.000006 0.720692
vn 0.693255 -0.000006 0.720692
vn 0.708295 0.000000 0.705917
vn 0.708295 0.000000 0.705917
vn 0.708295 0.000000 0.705917
vn 0.708295 0.000000 0.705917
vn -0.694465 0.000000 0.719526
vn -0.694465 0.000000 0.719526
vn -0.694465 0.000000 0.719526
vn -0.694465 0.000000 0.719526
vn -0.706174 0.000000 -0.708038
vn -0.706174 0.000000 -0.708038
vn -0.706174 0.000000 -0.708038
vn -0.706174 0.000000 -0.708038
vn 0.706910 0.000000 -0.707304
vn 0.706910 0.000000 -0.707304
vn 0.706910 0.000000 -0.707304
vn 0.706910 0.000000 -0.707304
vn 0.000000 -0.722194 0.691691
vn 0.000000 -0.722194 0.691691
vn 0.000000 -0.722194 0.691691
vn 0.000000 -0.722194 0.691691
vn 0.000000 -0.722910 -0.690943
vn 0.000000 -0.722910 -0.690943
vn 0.000000 -0.722910 -0.690943
vn 0.000000 -0.722910 -0.690943
vn 0.000000 0.704244 -0.709958
vn 0.000000 0.704244 -0.709958
vn 0.000000 0.704244 -0.709958
vn 0.000000 0.704244 -0.709958
vn 0.000000 0.693967 0.720007
vn 0.000000 0.693967 0.720007
vn 0.000000 0.693967 0.720007
vn 0.000000 0.693967 0.720007
vn 0.000000 -0.722192 0.691693
vn 0.000000 -0.722192 0.691693
vn 0.000000 -0.722192 0.691693
vn 0.000000 -0.722192 0.691693
vn 0.000000 -0.722911 -0.690941
vn 0.000000 -0.722911 -0.690941
vn 0.000000 -0.722911 -0.690941
vn 0.000000 -0.722911 -0.690941
vn 0.000000 0.704245 -0.709957
vn 0.000000 0.704245 -0.709957
vn 0.000000 0.704245 -0.709957
vn 0.000000 0.704245 -0.709957
vn 0.000000 0.693967 0.720006
vn 0.000000 0.693967 0.720006
vn 0.000000 0.693967 0.720006
vn 0.000000 0.693967 0.720006
vn 0.709537 0.000000 0.704668
vn 0.709537 0.000000 0.704668
vn 0.709537 0.000000 0.704668
vn 0.709537 0.000000 0.704668
vn -0.694323 0.000000 0.719664
vn -0.694323 0.000000 0.719664
vn -0.694323 0.000000 0.719664
vn -0.694323 0.000000 0.719664
vn -0.707260 0.000000 -0.706954
vn -0.707260 0.000000 -0.706954
vn -0.707260 0.000000 -0.706954
vn -0.707260 0.000000 -0.706954
vn 0.706910 0.000000 -0.707303
vn 0.706910 0.000000 -0.707303
vn 0.706910 0.000000 -0.707303
vn 0.706910 0.000000 -0.707303
vn 0.000000 -0.704229 -0.709973
vn 0.000000 -0.704229 -0.709973
vn 0.000000 -0.704229 -0.709973
vn 0.000000 -0.704229 -0.709973
vn 0.000000 -0.693950 0.720023
vn 0.000000 -0.693950 0.720023
vn 0.000000 -0.693950 0.720023
vn 0.000000 -0.693950 0.720023
vn 0.709399 0.000000 0.704807
vn 0.709399 0.000000 0.704807
vn 0.709399 0.000000 0.704807
vn 0.709399 0.000000 0.704807
vn -0.694323 0.000000 0.719664
vn -0.694323 0.000000 0.719664
vn -0.694323 0.000000 0.719664
vn -0.694323 0.000000 0.719664
vn 0.000000 0.722198 0.691687
vn 0.000000 0.722198 0.691687
vn 0.000000 0.722198 0.691687
vn 0.000000 0.722198 0.691687
vn 0.000000 0.722911 -0.690941
vn 0.000000 0.722911 -0.690941
vn 0.000000 0.722911 -0.690941
vn 0.000000 0.722911 -0.690941
vn 0.706106 -0.000005 -0.708106
vn 0.706106 -0.000005 -0.708106
vn 0.706106 -0.000005 -0.708106
vn 0.706106 -0.000005 -0.708106
vn -0.706910 0.000000 -0.707303
vn -0.706910 0.000000 -0.707303
vn -0.706910 0.000000 -0.707303
vn -0.706910 0.000000 -0.707303
vn 0.000000 -0.722170 0.691716
vn 0.000000 -0.722170 0.691716
vn 0.000000 -0.722170 0.691716
vn 0.000000 -0.722170 0.691716
vn 0.000000 -0.722893 -0.690960
vn 0.000000 -0.722893 -0.690960
vn 0.000000 -0.722893 -0.690960
vn 0.000000 -0.722893 -0.690960
vn -0.707124 0.000000 -0.707090
vn -0.707124 0.000000 -0.707090
vn -0.707124 0.000000 -0.707090
vn -0.707124 0.000000 -0.707090
vn 0.706910 0.000000 -0.707303
vn 0.706910 0.000000 -0.707303
vn 0.706910 0.000000 -0.707303
vn 0.706910 0.000000 -0.707303
vn 0.000000 0.704246 -0.709956
vn 0.000000 0.704246 -0.709956
vn 0.000000 0.704246 -0.709956
vn 0.000000 0.704246 -0.709956
vn 0.000000 0.693976 0.719998
vn 0.000000 0.693976 0.719998
vn 0.000000 0.693976 0.719998
vn 0.000000 0.693976 0.719998
vn -0.709399 0.000000 0.704807
vn -0.709399 0.000000 0.704807
vn -0.709399 0.000000 0.704807
vn -0.709399 0.000000 0.704807
vn 0.693255 -0.000006 0.720692
vn 0.693255 -0.000006 0.720692
vn 0.693255 -0.000006 0.720692
vn 0.693255 -0.000006 0.720692
vn 0.000000 -0.722187 0.691698
vn 0.000000 -0.722187 0.691698
vn 0.000000 -0.722187 0.691698
vn 0.000000 -0.722187 0.691698
vn 0.000000 -0.722912 -0.690940
vn 0.000000 -0.722912 -0.690940
vn 0.000000 -0.722912 -0.690940
vn 0.000000 -0.722912 -0.690940
vn 0.000000 0.704230 -0.709972
vn 0.000000 0.704230 -0.709972
vn 0.000000 0.704230 -0.709972
vn 0.000000 0.704230 -0.709972
vn 0.000000 0.693958 0.720016
vn 0.000000 0.693958 0.720016
vn 0.000000 0.693958 0.720016
vn 0.000000 0.693958 0.720016
vn 0.000000 -0.704228 -0.709974
vn 0.000000 -0.704228 -0.709974
vn 0.000000 -0.704228 -0.709974
vn 0.000000 -0.704228 -0.709974
vn 0.000000 -0.693949 0.720024
vn 0.000000 -0.693949 0.720024
vn 0.000000 -0.693949 0.720024
vn 0.000000 -0.693949 0.720024
vn 0.709537 0.000000 0.704668
vn 0.709537 0.000000 0.704668
vn 0.709537 0.000000 0.704668
vn 0.709537 0.000000 0.704668
vn -0.694323 0.000000 0.719664
vn -0.694323 0.000000 0.719664
vn -0.694323 0.000000 0.719664
vn -0.694323 0.000000 0.719664
vn 0.000000 0.722194 0.691691
vn 0.000000 0.722194 0.691691
vn 0.000000 0.722194 0.691691
vn 0.000000 0.722194 0.691691
vn 0.000000 0.722909 -0.690943
vn 0.000000 0.722909 -0.690943
vn 0.000000 0.722909 -0.690943
vn 0.000000 0.722909 -0.690943
vn 0.706242 -0.000005 -0.707971
vn 0.706242 -0.000005 -0.707971
vn 0.706242 -0.000005 -0.707971
vn 0.706242 -0.000005 -0.707971
vn -0.706910 0.000000 -0.707303
vn -0.706910 0.000000 -0.707303
vn -0.706910 0.000000 -0.707303
vn -0.706910 0.000000 -0.707303
vn 0.000000 -0.722168 0.691718
vn 0.000000 -0.722168 0.691718
vn 0.000000 -0.722168 0.691718
vn 0.000000 -0.722168 0.691718
vn 0.000000 -0.722892 -0.690961
vn 0.000000 -0.722892 -0.690961
vn 0.000000 -0.722892 -0.690961
vn 0.000000 -0.722892 -0.690961
vn -0.707260 0.000000 -0.706954
vn -0.707260 0.000000 -0.706954
vn -0.707260 0.000000 -0.706954
vn -0.707260 0.000000 -0.706954
vn 0.706910 0.000000 -0.707303
vn 0.706910 0.000000 -0.707303
vn 0.706910 0.000000 -0.707303
vn 0.706910 0.000000 -0.707303
vn 0.000000 0.704243 -0.709959
vn 0.000000 0.704243 -0.709959
vn 0.000000 0.704243 -0.709959
vn 0.000000 0.704243 -0.709959
vn 0.000000 0.693975 0.719999
vn 0.000000 0.693975 0.719999
vn 0.000000 0.693975 0.719999
vn 0.000000 0.693975 0.719999
vn -0.709537 0.000000 0.704668
vn -0.709537 0.000000 0.704668
vn -0.709537 0.000000 0.704668
vn -0.709537 0.000000 0.704668
vn 0.693255 -0.000006 0.720692
vn 0.693255 -0.000006 0.720692
vn 0.693255 -0.000006 0.720692
vn 0.693255 -0.000006 0.720692
vn 0.708295 0.000000 0.705917
vn 0.708295 0.000000 0.705917
vn 0.708295 0.000000 0.705917
vn 0.708295 0.000000 0.705917
vn -0.694465 0.000000 0.719526
vn -0.694465 0.000000 0.719526
vn -0.694465 0.000000 0.719526
vn -0.694465 0.000000 0.719526
vn -0.706174 0.000000 -0.708038
vn -0.706174 0.000000 -0.708038
vn -0.706174 0.000000 -0.708038
vn -0.706174 0.000000 -0.708038
vn 0.706910 0.000000 -0.707303
vn 0.706910 0.000000 -0.707303
vn 0.706910 0.000000 -0.707303
vn 0.706910 0.000000 -0.707303
vn 0.000000 -0.722188 0.691697
vn 0.000000 -0.722188 0.691697
vn 0.000000 -0.722188 0.691697
vn 0.000000 -0.722188 0.691697
vn 0.000000 -0.722912 -0.690940
vn 0.000000 -0.722912 -0.690940
vn 0.000000 -0.722912 -0.690940
vn 0.000000 -0.722912 -0.690940
vn 0.000000 0.704227 -0.709975
vn 0.000000 0.704227 -0.709975
vn 0.000000 0.704227 -0.709975
vn 0.000000 0.704227 -0.709975
vn 0.000000 0.693956 0.720017
vn 0.000000 0.693956 0.720017
vn 0.000000 0.693956 0.720017
vn 0.000000 0.693956 0.720017
vn 0.000000 -0.722186 0.691699
vn 0.000000 -0.722186 0.691699
vn 0.000000 -0.722186 0.691699
vn 0.000000 -0.722186 0.691699
vn 0.000000 -0.722910 -0.690943
vn 0.000000 -0.722910 -0.690943
vn 0.000000 -0.722910 -0.690943
vn 0.000000 -0.722910 -0.690943
vn 0.000000 0.704227 -0.709975
vn 0.000000 0.704227 -0.709975
vn 0.000000 0.704227 -0.709975
vn 0.000000 0.704227 -0.709975
vn 0.000000 0.693957 0.720016
vn 0.000000 0.693957 0.720016
vn 0.000000 0.693957 0.720016
vn 0.000000 0.693957 0.720016
vn 0.000000 -1.000000 0.000000
vn 0.000000 -1.000000 0.000000
vn 0.000000 -1.000000 0.000000
vn 0.000000 -1.000000 0.000000
vn 0.000000 1.000000 0.000000
vn 0.000000 1.000000 0.000000
vn 0.000000 1.000000 0.000000
vn 0.000000 1.000000 0.000000
vn 1.000000 0.000000 0.000000
vn 1.000000 0.000000 0.000000
vn 1.000000 0.000000 0.000000
vn 1.000000 0.000000 0.000000
vn -1.000000 0.000000 0.000000
vn -1.000000 0.000000 0.000000
vn -1.000000 0.000000 0.000000
vn -1.000000 0.000000 0.000000
vn -0.191348 -0.191380 0.962684
vn 0.191348 -0.191380 0.962684
vn -0.000000 -0.000001 1.000000
vn 0.000016 -0.000001 1.000000
vn 0.191348 0.191379 0.962684
vn -0.000000 -0.000001 1.000000
vn -0.191348 0.191379 0.962684
vn 0.000016 -0.000001 1.000000
vn -0.191327 0.191358 -0.962692
vn 0.191327 0.191358 -0.962692
vn -0.000011 0.000005 -1.000000
vn 0.000011 0.000005 -1.000000
vn 0.191327 -0.191358 -0.962692
vn -0.000011 -0.000005 -1.000000
vn -0.191327 -0.191358 -0.962692
vn 0.000011 -0.000005 -1.000000
vn 0.000000 -1.000000 0.000003
vn 0.000000 -1.000000 0.000003
vn 0.000000 -1.000000 0.000003
vn 0.000000 -1.000000 0.000003
vn -1.000000 0.000000 -0.000050
vn -1.000000 0.000000 -0.000050
vn -1.000000 0.000000 -0.000050
vn -1.000000 0.000000 -0.000050
vn 0.000000 1.000000 -0.000000
vn 0.000000 1.000000 -0.000000
vn 0.000000 1.000000 -0.000000
vn 0.000000 1.000000 -0.000000
vn 1.000000 0.000000 0.000000
vn 1.000000 0.000000 0.000000
vn 1.000000 0.000000 0.000000
vn 1.000000 0.000000 0.000000
vn 0.191380 -0.191382 0.962677
vn -0.191348 -0.191380 0.962683
vn -0.191348 0.191378 0.962684
vn 0.191380 0.191379 0.962677
vn 0.191348 -0.191349 -0.962690
vn 0.191348 0.191349 -0.962690
vn -0.191348 0.191349 -0.962690
vn -0.191348 -0.191349 -0.962690
vn 0.000000 0.000000 -1.000000
vn 0.000000 0.000000 -1.000000
vn 0.000000 0.000000 -1.000000
vn 0.000000 0.000000 -1.000000
s off
g polySurface9135
f 1/1/1 2/2/2 4/3/3 3/4/4
f 8/5/5 7/6/6 9/7/7 10/8/8
f 7/6/9 5/9/10 12/10/11 9/7/12
f 6/11/13 11/12/14 12/10/15 5/9/16
f 8/5/17 10/8/18 11/12/19 6/11/20
f 16/13/21 15/14/22 17/15/23 18/16/24
f 15/14/25 13/17/26 20/18/27 17/15/28
f 14/19/29 19/20/30 20/18/31 13/17/32
f 16/13/33 18/16/34 19/20/35 14/19/36
f 24/21/37 23/22/38 25/23/39 26/24/40
f 23/22/41 21/25/42 28/26/43 25/23/44
f 22/27/45 27/28/46 28/26/47 21/25/48
f 24/21/49 26/24/50 27/28/51 22/27/52
f 30/29/53 29/30/54 36/31/55 35/32/56
f 29/30/57 31/33/58 33/34/59 36/31/60
f 32/35/61 31/33/62 37/36/63 38/37/64
f 31/33/65 29/30/66 40/38/67 37/39/68
f 32/35/69 34/40/70 33/34/71 31/33/72
f 30/29/73 35/32/74 34/40/75 32/35/76
f 35/32/77 36/31/78 43/41/79 44/42/80
f 34/40/81 35/32/82 44/42/83 42/43/84
f 38/44/85 37/45/86 41/46/87 42/43/88
f 39/47/89 38/48/90 42/43/91 44/42/92
f 30/29/93 39/49/94 40/50/95 29/30/96
f 32/35/97 38/51/98 39/52/99 30/29/100
f 39/53/101 44/42/102 43/41/103 40/54/104
f 40/55/105 43/41/106 41/46/107 37/56/108
f 34/40/109 42/43/110 41/46/111 33/34/112
f 33/34/113 41/46/114 43/41/115 36/31/116
f 46/57/117 45/58/118 49/59/119 50/60/120
f 47/61/121 46/57/122 50/60/123 52/62/124
f 47/61/125 52/62/126 51/63/127 48/64/128
f 48/64/129 51/63/130 49/59/131 45/58/132
f 54/65/133 53/66/134 60/67/135 59/68/136
f 53/66/137 55/69/138 57/70/139 60/67/140
f 56/71/141 55/69/142 61/72/143 62/73/144
f 55/69/145 53/66/146 64/74/147 61/75/148
f 56/71/149 58/76/150 57/70/151 55/69/152
f 54/65/153 59/68/154 58/76/155 56/71/156
f 59/68/157 60/67/158 67/77/159 68/78/160
f 58/76/161 59/68/162 68/78/163 66/79/164
f 62/80/165 61/81/166 65/82/167 66/79/168
f 63/83/169 62/84/170 66/79/171 68/78/172
f 54/65/173 63/85/174 64/86/175 53/66/176
f 56/71/177 62/87/178 63/88/179 54/65/180
f 63/89/181 68/78/182 67/77/183 64/90/184
f 64/91/185 67/77/186 65/82/187 61/92/188
f 58/76/189 66/79/190 65/82/191 57/70/192
f 57/70/193 65/82/194 67/77/195 60/67/196
f 72/93/197 71/94/198 73/95/199 74/96/200
f 71/94/201 69/97/202 76/98/203 73/95/204
f 70/99/205 75/100/206 76/98/207 69/97/208
f 72/93/209 74/96/210 75/100/211 70/99/212
f 78/101/213 77/102/214 81/103/215 82/104/216
f 79/105/217 78/101/218 82/104/219 84/106/220
f 79/105/221 84/106/222 83/107/223 80/108/224
f 80/108/225 83/107/226 81/103/227 77/102/228
f 86/109/229 85/110/230 89/111/231 90/112/232
f 87/113/233 86/109/234 90/112/235 92/114/236
f 87/113/237 92/114/238 91/115/239 88/116/240
f 88/116/241 91/115/242 89/111/243 85/110/244
f 96/117/245 95/118/246 97/119/247 98/120/248
f 95/118/249 93/121/250 100/122/251 97/119/252
f 94/123/253 99/124/254 100/122/255 93/121/256
f 96/117/257 98/120/258 99/124/259 94/123/260
f 102/125/261 101/126/262 108/127/263 107/128/264
f 101/126/265 103/129/266 105/130/267 108/127/268
f 104/131/269 103/129/270 109/132/271 110/133/272
f 103/129/273 101/126/274 112/134/275 109/135/276
f 104/131/277 106/136/278 105/130/279 103/129/280
f 102/125/281 107/128/282 106/136/283 104/131/284
f 107/128/285 108/127/286 115/137/287 116/138/288
f 106/136/289 107/128/290 116/138/291 114/139/292
f 110/140/293 109/141/294 113/142/295 114/139/296
f 111/143/297 110/144/298 114/139/299 116/138/300
f 102/125/301 111/145/302 112/146/303 101/126/304
f 104/131/305 110/147/306 111/148/307 102/125/308
f 111/149/309 116/138/310 115/137/311 112/150/312
f 112/151/313 115/137/314 113/142/315 109/152/316
f 106/136/317 114/139/318 113/142/319 105/130/320
f 105/130/321 113/142/322 115/137/323 108/127/324
f 118/153/325 117/154/326 121/155/327 122/156/328
f 119/157/329 118/153/330 122/156/331 124/158/332
f 119/157/333 124/158/334 123/159/335 120/160/336
f 120/160/337 123/159/338 121/155/339 117/154/340
f 126/161/341 125/162/342 132/163/343 131/164/344
f 125/162/345 127/165/346 129/166/347 132/163/348
f 128/167/349 127/165/350 133/168/351 134/169/352
f 127/165/353 125/162/354 136/170/355 133/171/356
f 128/167/357 130/172/358 129/166/359 127/165/360
f 126/161/361 131/164/362 130/172/363 128/167/364
f 131/164/365 132/163/366 139/173/367 140/174/368
f 130/172/369 131/164/370 140/174/371 138/175/372
f 134/176/373 133/177/374 137/178/375 138/175/376
f 135/179/377 134/180/378 138/175/379 140/174/380
f 126/161/381 135/181/382 136/182/383 125/162/384
f 128/167/385 134/183/386 135/184/387 126/161/388
f 135/185/389 140/174/390 139/173/391 136/186/392
f 136/187/393 139/173/394 137/178/395 133/188/396
f 130/172/397 138/175/398 137/178/399 129/166/400
f 129/166/401 137/178/402 139/173/403 132/163/404
f 144/189/405 143/190/406 145/191/407 146/192/408
f 143/190/409 141/193/410 148/194/411 145/191/412
f 142/195/413 147/196/414 148/194/415 141/193/416
f 144/189/417 146/192/418 147/196/419 142/195/420
f 150/197/421 149/198/422 153/199/423 154/200/424
f 151/201/425 150/197/426 154/200/427 156/202/428
f 151/201/429 156/202/430 155/203/431 152/204/432
f 152/204/433 155/203/434 153/199/435 149/198/436
f 158/205/437 157/206/438 161/207/439 162/208/440
f 159/209/441 158/205/442 162/208/443 164/210/444
f 159/209/445 164/210/446 163/211/447 160/212/448
f 160/212/449 163/211/450 161/207/451 157/206/452
f 168/213/453 167/214/454 169/215/455 170/216/456
f 167/214/457 165/217/458 172/218/459 169/215/460
f 166/219/461 171/220/462 172/218/463 165/217/464
f 168/213/465 170/216/466 171/220/467 166/219/468
f 174/221/469 173/222/470 180/223/471 179/224/472
f 173/222/473 175/225/474 177/226/475 180/223/476
f 176/227/477 175/225/478 181/228/479 182/229/480
f 175/225/481 173/222/482 184/230/483 181/231/484
f 176/227/485 178/232/486 177/226/487 175/225/488
f 174/221/489 179/224/490 178/232/491 176/227/492
f 179/224/493 180/223/494 187/233/495 188/234/496
f 178/232/497 179/224/498 188/234/499 186/235/500
f 182/236/501 181/237/502 185/238/503 186/235/504
f 183/239/505 182/240/506 186/235/507 188/234/508
f 174/221/509 183/241/510 184/242/511 173/222/512
f 176/227/513 182/243/514 183/244/515 174/221/516
f 183/245/517 188/234/518 187/233/519 184/246/520
f 184/247/521 187/233/522 185/238/523 181/248/524
f 178/232/525 186/235/526 185/238/527 177/226/528
f 177/226/529 185/238/530 187/233/531 180/223/532
f 190/249/533 189/250/534 193/251/535 194/252/536
f 191/253/537 190/249/538 194/252/539 196/254/540
f 191/253/541 196/254/542 195/255/543 192/256/544
f 192/256/545 195/255/546 193/251/547 189/250/548
f 198/257/549 197/258/550 204/259/551 203/260/552
f 197/258/553 199/261/554 201/262/555 204/259/556
f 200/263/557 199/261/558 205/264/559 206/265/560
f 199/261/561 197/258/562 208/266/563 205/267/564
f 200/263/565 202/268/566 201/262/567 199/261/568
f 198/257/569 203/260/570 202/268/571 200/263/572
f 203/260/573 204/259/574 211/269/575 212/270/576
f 202/268/577 203/260/578 212/270/579 210/271/580
f 206/272/581 205/273/582 209/274/583 210/271/584
f 207/275/585 206/276/586 210/271/587 212/270/588
f 198/257/589 207/277/590 208/278/591 197/258/592
f 200/263/593 206/279/594 207/280/595 198/257/596
f 207/281/597 212/270/598 211/269/599 208/282/600
f 208/283/601 211/269/602 209/274/603 205/284/604
f 202/268/605 210/271/606 209/274/607 201/262/608
f 201/262/609 209/274/610 211/269/611 204/259/612
f 216/285/613 215/286/614 217/287/615 218/288/616
f 215/286/617 213/289/618 220/290/619 217/287/620
f 214/291/621 219/292/622 220/290/623 213/289/624
f 216/285/625 218/288/626 219/292/627 214/291/628
f 222/293/629 221/294/630 225/295/631 226/296/632
f 223/297/633 222/293/634 226/296/635 228/298/636
f 223/297/637 228/298/638 227/299/639 224/300/640
f 224/300/641 227/299/642 225/295/643 221/294/644
f 230/301/645 229/302/646 233/303/647 234/304/648
f 231/305/649 230/301/650 234/304/651 236/306/652
f 231/305/653 236/306/654 235/307/655 232/308/656
f 232/308/657 235/307/658 233/303/659 229/302/660
f 240/309/661 239/310/662 241/311/663 242/312/664
f 239/310/665 237/313/666 244/314/667 241/311/668
f 238/315/669 243/316/670 244/314/671 237/313/672
f 240/309/673 242/312/674 243/316/675 238/315/676
f 246/317/677 245/318/678 252/319/679 251/320/680
f 245/318/681 247/321/682 249/322/683 252/319/684
f 248/323/685 247/321/686 253/324/687 254/325/688
f 247/321/689 245/318/690 256/326/691 253/327/692
f 248/323/693 250/328/694 249/322/695 247/321/696
f 246/317/697 251/320/698 250/328/699 248/323/700
f 251/320/701 252/319/702 259/329/703 260/330/704
f 250/328/705 251/320/706 260/330/707 258/331/708
f 254/332/709 253/333/710 257/334/711 258/331/712
f 255/335/713 254/336/714 258/331/715 260/330/716
f 246/317/717 255/337/718 256/338/719 245/318/720
f 248/323/721 254/339/722 255/340/723 246/317/724
f 255/341/725 260/330/726 259/329/727 256/342/728
f 256/343/729 259/329/730 257/334/731 253/344/732
f 250/328/733 258/331/734 257/334/735 249/322/736
f 249/322/737 257/334/738 259/329/739 252/319/740
f 262/345/741 261/346/742 265/347/743 266/348/744
f 263/349/745 262/345/746 266/348/747 268/350/748
f 263/349/749 268/350/750 267/351/751 264/352/752
f 264/352/753 267/351/754 265/347/755 261/346/756
f 270/353/757 269/354/758 276/355/759 275/356/760
f 269/354/761 271/357/762 273/358/763 276/355/764
f 272/359/765 271/357/766 277/360/767 278/361/768
f 271/357/769 269/354/770 280/362/771 277/363/772
f 272/359/773 274/364/774 273/358/775 271/357/776
f 270/353/777 275/356/778 274/364/779 272/359/780
f 275/356/781 276/355/782 283/365/783 284/366/784
f 274/364/785 275/356/786 284/366/787 282/367/788
f 278/368/789 277/369/790 281/370/791 282/367/792
f 279/371/793 278/372/794 282/367/795 284/366/796
f 270/353/797 279/373/798 280/374/799 269/354/800
f 272/359/801 278/375/802 279/376/803 270/353/804
f 279/377/805 284/366/806 283/365/807 280/378/808
f 280/379/809 283/365/810 281/370/811 277/380/812
f 274/364/813 282/367/814 281/370/815 273/358/816
f 273/358/817 281/370/818 283/365/819 276/355/820
f 288/381/821 287/382/822 289/383/823 290/384/824
f 287/382/825 285/385/826 292/386/827 289/383/828
f 286/387/829 291/388/830 292/386/831 285/385/832
f 288/381/833 290/384/834 291/388/835 286/387/836
f 294/389/837 293/390/838 297/391/839 298/392/840
f 295/393/841 294/389/842 298/392/843 300/394/844
f 295/393/845 300/394/846 299/395/847 296/396/848
f 296/396/849 299/395/850 297/391/851 293/390/852
f 302/397/853 301/398/854 305/399/855 306/400/856
f 303/401/857 302/397/858 306/400/859 308/402/860
f 303/401/861 308/402/862 307/403/863 304/404/864
f 304/404/865 307/403/866 305/399/867 301/398/868
f 309/405/869 310/406/870 312/407/871 311/408/872
f 313/409/873 314/410/874 316/411/875 315/412/876
f 310/413/877 316/411/878 314/410/879 312/414/880
f 315/412/881 309/405/882 311/408/883 313/409/884
s 221
f 311/408/885 312/415/886 327/416/887 328/417/888
f 312/418/886 314/410/889 326/419/890 327/420/887
f 314/410/889 313/409/891 325/421/892 326/419/890
f 313/409/891 311/408/885 328/417/888 325/421/892
s 222
f 315/412/893 316/411/894 332/422/895 329/423/896
f 316/411/894 310/424/897 331/425/898 332/422/895
f 310/426/897 309/405/899 330/427/900 331/428/898
f 309/405/899 315/412/893 329/423/896 330/427/900
s off
f 321/429/901 322/430/902 319/431/903 320/432/904
f 322/430/905 323/433/906 318/434/907 319/431/908
f 323/435/909 324/436/910 317/437/911 318/438/912
f 324/436/913 321/429/914 320/432/915 317/437/916
s 221
f 326/419/890 325/421/892 320/432/917 319/431/918
f 327/420/887 326/419/890 319/431/918 318/439/919
f 328/417/888 327/416/887 318/440/919 317/437/920
f 325/421/892 328/417/888 317/437/920 320/432/917
s 222
f 330/427/900 329/423/896 321/429/921 324/436/922
f 331/428/898 330/427/900 324/436/922 323/441/923
f 332/422/895 331/425/898 323/442/923 322/430/924
f 329/423/896 332/422/895 322/430/924 321/429/921
s off
f 333/443/925 335/446/926 336/445/927 334/444/928
