# This file uses centimeters as units for non-parametric coordinates.

g default
v -46.423805 -0.012137 -0.556837
v -46.897480 -0.012137 -0.900981
v -47.482971 -0.012137 -0.900981
v -47.956638 -0.012137 -0.556837
v -48.137566 -0.012137 -0.000000
v -47.956638 -0.012137 0.556837
v -47.482971 -0.012137 0.900981
v -46.897480 -0.012137 0.900981
v -46.423805 -0.012137 0.556837
v -46.242874 -0.012137 -0.000000
v -46.711601 0.036510 -0.347736
v -47.007408 0.036510 -0.562649
v -47.373035 0.036510 -0.562648
v -47.668839 0.036510 -0.347736
v -47.781826 0.036510 0.000000
v -47.668839 0.036510 0.347736
v -47.373035 0.036510 0.562648
v -47.007408 0.036510 0.562648
v -46.711605 0.036510 0.347736
v -46.598618 0.036510 0.000000
v -47.190224 0.061111 -0.000000
v -47.605190 -0.019715 -0.939463
v -47.904114 -0.019715 -0.738347
v -47.605190 0.032203 -0.939463
v -47.904114 0.032203 -0.738347
v -47.485981 0.020758 -0.701735
v -47.712551 0.032203 -0.554152
v -47.485981 -0.019715 -0.701735
v -47.712551 -0.019715 -0.554152
v -47.763187 -0.019715 -0.852350
v -47.763187 0.032203 -0.852350
v -47.615059 0.032203 -0.631997
v -47.615059 -0.019715 -0.631997
v -47.535465 0.020758 -0.824940
v -47.820595 0.020758 -0.634314
v -47.535465 -0.015865 -0.824940
v -47.820595 -0.015865 -0.634314
v -47.689121 0.020758 -0.742173
v -47.689121 -0.015865 -0.742173
v -47.192402 -0.023073 -1.020006
v -47.558594 -0.023073 -0.958689
v -47.192402 0.017174 -1.020006
v -47.558594 0.017174 -0.958689
v -47.206932 0.028845 -0.761328
v -47.482410 0.028845 -0.712003
v -47.206932 -0.023073 -0.761328
v -47.482410 -0.023073 -0.712003
v -47.191654 0.028845 -0.894267
v -47.527069 0.017174 -0.828404
v -47.191654 -0.023073 -0.894267
v -47.527069 -0.023073 -0.828404
v -47.367210 0.025653 -0.876580
v -47.389946 0.023890 -1.006337
v -47.389946 -0.020478 -1.006337
v -47.367210 -0.020478 -0.876580
v -47.345036 -0.020478 -0.752643
v -47.345036 0.035560 -0.752643
v -48.148037 -0.019715 -0.370669
v -48.217117 -0.019715 -0.017073
v -48.148037 0.032203 -0.370669
v -48.217117 0.032203 -0.017073
v -47.895622 0.020758 -0.286919
v -47.951420 0.032203 -0.022341
v -47.895622 -0.019715 -0.286919
v -47.951420 -0.019715 -0.022341
v -48.198124 -0.019715 -0.197337
v -48.198124 0.032203 -0.197337
v -47.937557 0.032203 -0.146323
v -47.937557 -0.019715 -0.146323
v -48.017746 0.020758 -0.339018
v -48.084503 0.020758 -0.002592
v -48.017746 -0.015865 -0.339018
v -48.084503 -0.015865 -0.002592
v -48.067837 0.020758 -0.171830
v -48.067837 -0.015865 -0.171830
v -47.913185 -0.023073 -0.719556
v -48.128700 -0.023073 -0.417213
v -47.913185 0.017174 -0.719556
v -48.128700 0.017174 -0.417213
v -47.740501 0.028845 -0.526408
v -47.900372 0.028845 -0.296697
v -47.740501 -0.023073 -0.526408
v -47.900372 -0.023073 -0.296697
v -47.823719 0.028845 -0.631194
v -48.014263 0.017174 -0.347405
v -47.823719 -0.023073 -0.631194
v -48.014263 -0.023073 -0.347405
v -47.935322 0.025653 -0.494527
v -48.043171 0.023890 -0.570178
v -48.043171 -0.020478 -0.570178
v -47.935322 -0.020478 -0.494527
v -47.831989 -0.020478 -0.422592
v -47.831989 0.035560 -0.422592
v -48.129517 -0.019715 0.415377
v -47.928272 -0.019715 0.714212
v -48.129517 0.032203 0.415377
v -47.928272 0.032203 0.714212
v -47.891842 0.020758 0.296063
v -47.744160 0.032203 0.522569
v -47.891842 -0.019715 0.296063
v -47.744160 -0.019715 0.522569
v -48.042332 -0.019715 0.573339
v -48.042332 0.032203 0.573339
v -47.822048 0.032203 0.425115
v -47.822048 -0.019715 0.425115
v -48.015026 0.020758 0.345606
v -47.824276 0.020758 0.630653
v -48.015026 -0.015865 0.345606
v -47.824276 -0.015865 0.630653
v -47.932190 0.020758 0.499226
v -47.932190 -0.015865 0.499226
v -48.210243 -0.023073 0.002628
v -48.148762 -0.023073 0.368795
v -48.210243 0.017174 0.002628
v -48.148762 0.017174 0.368795
v -47.951557 0.028845 0.017042
v -47.902111 0.028845 0.292505
v -47.951557 -0.023073 0.017042
v -47.902111 -0.023073 0.292505
v -48.084499 0.028845 0.001823
v -48.018494 0.017174 0.337211
v -48.084499 -0.023073 0.001823
v -48.018494 -0.023073 0.337211
v -48.066742 0.025653 0.177371
v -48.196484 0.023890 0.200165
v -48.196484 -0.020478 0.200165
v -48.066742 -0.020478 0.177371
v -47.942814 -0.020478 0.155143
v -47.942814 0.035560 0.155143
v -47.560486 -0.019715 0.957976
v -47.206860 -0.019715 1.026904
v -47.560486 0.032203 0.957976
v -47.206860 0.032203 1.026904
v -47.476849 0.020758 0.705528
v -47.212242 0.032203 0.761207
v -47.476849 -0.019715 0.705528
v -47.212242 -0.019715 0.761207
v -47.387135 -0.019715 1.007987
v -47.387135 0.032203 1.007987
v -47.336231 0.032203 0.747398
v -47.336231 -0.019715 0.747398
v -47.528893 0.020758 0.827676
v -47.192432 0.020758 0.894279
v -47.528893 -0.015865 0.827676
v -47.192432 -0.015865 0.894279
v -47.361687 0.020758 0.877692
v -47.361687 -0.015865 0.877692
v -47.909477 -0.023073 0.723275
v -47.607040 -0.023073 0.938657
v -47.909477 0.017174 0.723275
v -47.607040 0.017174 0.938657
v -47.716404 0.028845 0.550508
v -47.486622 0.028845 0.710276
v -47.716404 -0.023073 0.550508
v -47.486622 -0.023073 0.710276
v -47.821156 0.028845 0.633776
v -47.537277 0.017174 0.824193
v -47.821156 -0.023073 0.633776
v -47.537277 -0.023073 0.824193
v -47.684437 0.025653 0.745317
v -47.760040 0.023890 0.853196
v -47.760040 -0.020478 0.853196
v -47.684437 -0.020478 0.745317
v -47.612549 -0.020478 0.641953
v -47.612549 0.035560 0.641953
v -46.774448 -0.019715 0.939113
v -46.475704 -0.019715 0.737736
v -46.774448 0.032203 0.939113
v -46.475704 0.032203 0.737736
v -46.893864 0.020758 0.701490
v -46.667427 0.032203 0.553709
v -46.893864 -0.019715 0.701490
v -46.667427 -0.019715 0.553709
v -46.616520 -0.019715 0.851862
v -46.616520 0.032203 0.851862
v -46.764843 0.032203 0.631638
v -46.764843 -0.019715 0.631638
v -46.844269 0.020758 0.824652
v -46.559303 0.020758 0.633776
v -46.844269 -0.015865 0.824652
v -46.559303 -0.015865 0.633776
v -46.690681 0.020758 0.741750
v -46.690681 -0.015865 0.741750
v -47.187164 -0.023073 1.020018
v -46.821022 -0.023073 0.958380
v -47.187164 0.017174 1.020018
v -46.821022 0.017174 0.958380
v -47.172863 0.028845 0.761327
v -46.897419 0.028845 0.711761
v -47.172863 -0.023073 0.761327
v -46.897419 -0.023073 0.711761
v -47.188019 0.028845 0.894279
v -46.852661 0.017174 0.828123
v -47.188019 -0.023073 0.894279
v -46.852661 -0.023073 0.828123
v -47.012482 0.025653 0.876439
v -46.989635 0.023890 1.006176
v -46.989635 -0.020478 1.006176
v -47.012482 -0.020478 0.876439
v -47.034763 -0.020478 0.752522
v -47.034763 0.035560 0.752522
v -46.232101 -0.019715 0.369844
v -46.163322 -0.019715 0.016188
v -46.232101 0.032203 0.369844
v -46.163322 0.032203 0.016188
v -46.484585 0.020758 0.286315
v -46.429020 0.032203 0.021688
v -46.484585 -0.019715 0.286315
v -46.429020 -0.019715 0.021688
v -46.182163 -0.019715 0.196468
v -46.182163 0.032203 0.196468
v -46.442772 0.032203 0.145682
v -46.442772 -0.019715 0.145682
v -46.362411 0.020758 0.338307
v -46.295952 0.020758 0.001823
v -46.362411 -0.015865 0.338307
v -46.295952 -0.015865 0.001823
v -46.312469 0.020758 0.171076
v -46.312469 -0.015865 0.171076
v -46.466648 -0.023073 0.718937
v -46.251396 -0.023073 0.416405
v -46.466648 0.017174 0.718937
v -46.251396 0.017174 0.416405
v -46.639496 0.028845 0.525940
v -46.479828 0.028845 0.296090
v -46.639496 -0.023073 0.525940
v -46.479828 -0.023073 0.296090
v -46.556187 0.028845 0.630653
v -46.365891 0.017174 0.346698
v -46.556187 -0.023073 0.630653
v -46.365891 -0.023073 0.346698
v -46.444702 0.025653 0.493888
v -46.336788 0.023890 0.569445
v -46.336788 -0.020478 0.569445
v -46.444702 -0.020478 0.493888
v -46.548100 -0.020478 0.422044
v -46.548100 0.035560 0.422044
v -46.251305 -0.019715 -0.416185
v -46.452812 -0.019715 -0.714844
v -46.251305 0.032203 -0.416185
v -46.452812 0.032203 -0.714844
v -46.488876 0.020758 -0.296664
v -46.636757 0.032203 -0.523040
v -46.488876 -0.019715 -0.296664
v -46.636757 -0.019715 -0.523040
v -46.338627 -0.019715 -0.574071
v -46.338627 0.032203 -0.574071
v -46.558784 0.032203 -0.425654
v -46.558784 -0.019715 -0.425654
v -46.365738 0.020758 -0.346314
v -46.556732 0.020758 -0.631194
v -46.365738 -0.015865 -0.346314
v -46.556732 -0.015865 -0.631194
v -46.448700 0.020758 -0.499862
v -46.448700 -0.015865 -0.499862
v -46.170219 -0.023073 -0.003507
v -46.232018 -0.023073 -0.369620
v -46.170219 0.017174 -0.003507
v -46.232018 0.017174 -0.369620
v -46.428921 0.028845 -0.017695
v -46.478607 0.028845 -0.293115
v -46.428921 -0.023073 -0.017695
v -46.478607 -0.023073 -0.293115
v -46.295956 0.028845 -0.002592
v -46.362263 0.017174 -0.337922
v -46.295956 -0.023073 -0.002592
v -46.362263 -0.023073 -0.337922
v -46.313873 0.025653 -0.178125
v -46.184147 0.023890 -0.201032
v -46.184147 -0.020478 -0.201032
v -46.313873 -0.020478 -0.178125
v -46.437782 -0.020478 -0.155788
v -46.437782 0.035560 -0.155788
v -46.820812 -0.019715 -0.958285
v -47.174503 -0.019715 -1.026904
v -46.820812 0.032203 -0.958285
v -47.174503 0.032203 -1.026904
v -46.904232 0.020758 -0.705765
v -47.168884 0.032203 -0.761212
v -46.904232 -0.019715 -0.705765
v -47.168884 -0.019715 -0.761212
v -46.994209 -0.019715 -1.008145
v -46.994209 0.032203 -1.008145
v -47.044884 0.032203 -0.747511
v -47.044884 -0.019715 -0.747511
v -46.852295 0.020758 -0.827958
v -47.188805 0.020758 -0.894267
v -46.852295 -0.015865 -0.827958
v -47.188805 -0.015865 -0.894267
v -47.019543 0.020758 -0.877828
v -47.019543 -0.015865 -0.877828
v -46.471615 -0.023073 -0.723891
v -46.774242 -0.023073 -0.939008
v -46.471615 0.017174 -0.723891
v -46.774242 0.017174 -0.939008
v -46.664536 0.028845 -0.550954
v -46.894455 0.028845 -0.710521
v -46.664536 -0.023073 -0.550954
v -46.894455 -0.023073 -0.710521
v -46.559860 0.028845 -0.634314
v -46.843899 0.017174 -0.824483
v -46.559860 -0.023073 -0.634314
v -46.843899 -0.023073 -0.824483
v -46.696678 0.025653 -0.745735
v -46.621162 0.023890 -0.853680
v -46.621162 -0.020478 -0.853680
v -46.696678 -0.020478 -0.745735
v -46.768471 -0.020478 -0.642309
v -46.768471 0.035560 -0.642309
vt 0.767863 0.133401
vt 0.666910 0.270226
vt 0.784997 0.412008
vt 0.956959 0.360439
vt 0.476080 0.045538
vt 0.484696 0.215357
vt 0.193060 0.130411
vt 0.307954 0.268359
vt 0.027135 0.354848
vt 0.204422 0.408233
vt 0.193287 0.129658
vt 0.308181 0.267605
vt 0.476307 0.044784
vt 0.484923 0.214603
vt 0.768090 0.132647
vt 0.667137 0.269472
vt 0.957186 0.359685
vt 0.785224 0.411254
vt 0.971366 0.639178
vt 0.794080 0.585793
vt 0.499251 0.497013
vt 0.291414 0.938826
vt 0.129472 0.938827
vt 0.210443 0.938827
vt 0.515197 0.938827
vt 0.321288 0.970662
vt 0.321289 0.938827
vt 0.402011 0.970662
vt 0.402011 0.938827
vt 0.482734 0.938827
vt 0.883802 0.721005
vt 0.883802 0.829916
vt 0.916264 0.829916
vt 0.916264 0.721005
vt 0.916264 0.938827
vt 0.883802 0.938827
vt 0.803079 0.829916
vt 0.803079 0.721005
vt 0.722356 0.829916
vt 0.722356 0.721005
vt 0.722356 0.938827
vt 0.803079 0.938827
vt 0.692482 0.829916
vt 0.692482 0.721005
vt 0.692482 0.938827
vt 0.611511 0.829916
vt 0.611510 0.721005
vt 0.530539 0.829916
vt 0.530539 0.721005
vt 0.530540 0.938827
vt 0.611511 0.938827
vt 0.722356 0.690818
vt 0.803079 0.690818
vt 0.883802 0.690818
vt 0.883802 0.970662
vt 0.803079 0.970662
vt 0.722356 0.970662
vt 0.482734 0.721005
vt 0.482734 0.827317
vt 0.515197 0.827317
vt 0.515197 0.721005
vt 0.402011 0.721005
vt 0.402011 0.827317
vt 0.321288 0.721005
vt 0.321288 0.827317
vt 0.291414 0.721005
vt 0.291414 0.827317
vt 0.210443 0.827317
vt 0.210443 0.721005
vt 0.129471 0.721005
vt 0.129472 0.827317
vt 0.321288 0.690818
vt 0.402011 0.690818
vt 0.482734 0.690818
vt 0.482734 0.970662
vt 0.482734 0.938827
vt 0.402011 0.938827
vt 0.402011 0.970662
vt 0.321289 0.938827
vt 0.321288 0.970662
vt 0.515197 0.938827
vt 0.210443 0.938827
vt 0.129472 0.938827
vt 0.291414 0.938826
vt 0.883802 0.721005
vt 0.883802 0.829916
vt 0.916264 0.829916
vt 0.916264 0.721005
vt 0.916264 0.938827
vt 0.883802 0.938827
vt 0.803079 0.829916
vt 0.803079 0.721005
vt 0.722356 0.829916
vt 0.722356 0.721005
vt 0.722356 0.938827
vt 0.803079 0.938827
vt 0.692482 0.829916
vt 0.692482 0.721005
vt 0.692482 0.938827
vt 0.611511 0.829916
vt 0.611510 0.721005
vt 0.530539 0.829916
vt 0.530539 0.721005
vt 0.530540 0.938827
vt 0.611511 0.938827
vt 0.722356 0.690818
vt 0.803079 0.690818
vt 0.883802 0.690818
vt 0.883802 0.970662
vt 0.803079 0.970662
vt 0.722356 0.970662
vt 0.482734 0.721005
vt 0.482734 0.827317
vt 0.515197 0.827317
vt 0.515197 0.721005
vt 0.402011 0.721005
vt 0.402011 0.827317
vt 0.321288 0.721005
vt 0.321288 0.827317
vt 0.291414 0.721005
vt 0.291414 0.827317
vt 0.210443 0.827317
vt 0.210443 0.721005
vt 0.129471 0.721005
vt 0.129472 0.827317
vt 0.321288 0.690818
vt 0.402011 0.690818
vt 0.482734 0.690818
vt 0.482734 0.970662
vt 0.482734 0.938827
vt 0.402011 0.938827
vt 0.402011 0.970662
vt 0.321289 0.938827
vt 0.321288 0.970662
vt 0.515197 0.938827
vt 0.210443 0.938827
vt 0.129472 0.938827
vt 0.291414 0.938826
vt 0.883802 0.721005
vt 0.883802 0.829916
vt 0.916264 0.829916
vt 0.916264 0.721005
vt 0.916264 0.938827
vt 0.883802 0.938827
vt 0.803079 0.829916
vt 0.803079 0.721005
vt 0.722356 0.829916
vt 0.722356 0.721005
vt 0.722356 0.938827
vt 0.803079 0.938827
vt 0.692482 0.829916
vt 0.692482 0.721005
vt 0.692482 0.938827
vt 0.611511 0.829916
vt 0.611510 0.721005
vt 0.530539 0.829916
vt 0.530539 0.721005
vt 0.530540 0.938827
vt 0.611511 0.938827
vt 0.722356 0.690818
vt 0.803079 0.690818
vt 0.883802 0.690818
vt 0.883802 0.970662
vt 0.803079 0.970662
vt 0.722356 0.970662
vt 0.482734 0.721005
vt 0.482734 0.827317
vt 0.515197 0.827317
vt 0.515197 0.721005
vt 0.402011 0.721005
vt 0.402011 0.827317
vt 0.321288 0.721005
vt 0.321288 0.827317
vt 0.291414 0.721005
vt 0.291414 0.827317
vt 0.210443 0.827317
vt 0.210443 0.721005
vt 0.129471 0.721005
vt 0.129472 0.827317
vt 0.321288 0.690818
vt 0.402011 0.690818
vt 0.482734 0.690818
vt 0.482734 0.970662
vt 0.482734 0.938827
vt 0.402011 0.938827
vt 0.402011 0.970662
vt 0.321289 0.938827
vt 0.321288 0.970662
vt 0.515197 0.938827
vt 0.210443 0.938827
vt 0.129472 0.938827
vt 0.291414 0.938826
vt 0.883802 0.721005
vt 0.883802 0.829916
vt 0.916264 0.829916
vt 0.916264 0.721005
vt 0.916264 0.938827
vt 0.883802 0.938827
vt 0.803079 0.829916
vt 0.803079 0.721005
vt 0.722356 0.829916
vt 0.722356 0.721005
vt 0.722356 0.938827
vt 0.803079 0.938827
vt 0.692482 0.829916
vt 0.692482 0.721005
vt 0.692482 0.938827
vt 0.611511 0.829916
vt 0.611510 0.721005
vt 0.530539 0.829916
vt 0.530539 0.721005
vt 0.530540 0.938827
vt 0.611511 0.938827
vt 0.722356 0.690818
vt 0.803079 0.690818
vt 0.883802 0.690818
vt 0.883802 0.970662
vt 0.803079 0.970662
vt 0.722356 0.970662
vt 0.482734 0.721005
vt 0.482734 0.827317
vt 0.515197 0.827317
vt 0.515197 0.721005
vt 0.402011 0.721005
vt 0.402011 0.827317
vt 0.321288 0.721005
vt 0.321288 0.827317
vt 0.291414 0.721005
vt 0.291414 0.827317
vt 0.210443 0.827317
vt 0.210443 0.721005
vt 0.129471 0.721005
vt 0.129472 0.827317
vt 0.321288 0.690818
vt 0.402011 0.690818
vt 0.482734 0.690818
vt 0.482734 0.970662
vt 0.482734 0.938827
vt 0.402011 0.938827
vt 0.402011 0.970662
vt 0.321289 0.938827
vt 0.321288 0.970662
vt 0.515197 0.938827
vt 0.210443 0.938827
vt 0.129472 0.938827
vt 0.291414 0.938826
vt 0.883802 0.721005
vt 0.883802 0.829916
vt 0.916264 0.829916
vt 0.916264 0.721005
vt 0.916264 0.938827
vt 0.883802 0.938827
vt 0.803079 0.829916
vt 0.803079 0.721005
vt 0.722356 0.829916
vt 0.722356 0.721005
vt 0.722356 0.938827
vt 0.803079 0.938827
vt 0.692482 0.829916
vt 0.692482 0.721005
vt 0.692482 0.938827
vt 0.611511 0.829916
vt 0.611510 0.721005
vt 0.530539 0.829916
vt 0.530539 0.721005
vt 0.530540 0.938827
vt 0.611511 0.938827
vt 0.722356 0.690818
vt 0.803079 0.690818
vt 0.883802 0.690818
vt 0.883802 0.970662
vt 0.803079 0.970662
vt 0.722356 0.970662
vt 0.482734 0.721005
vt 0.482734 0.827317
vt 0.515197 0.827317
vt 0.515197 0.721005
vt 0.402011 0.721005
vt 0.402011 0.827317
vt 0.321288 0.721005
vt 0.321288 0.827317
vt 0.291414 0.721005
vt 0.291414 0.827317
vt 0.210443 0.827317
vt 0.210443 0.721005
vt 0.129471 0.721005
vt 0.129472 0.827317
vt 0.321288 0.690818
vt 0.402011 0.690818
vt 0.482734 0.690818
vt 0.482734 0.970662
vt 0.482734 0.938827
vt 0.402011 0.938827
vt 0.402011 0.970662
vt 0.321289 0.938827
vt 0.321288 0.970662
vt 0.515197 0.938827
vt 0.210443 0.938827
vt 0.129472 0.938827
vt 0.291414 0.938826
vt 0.883802 0.721005
vt 0.883802 0.829916
vt 0.916264 0.829916
vt 0.916264 0.721005
vt 0.916264 0.938827
vt 0.883802 0.938827
vt 0.803079 0.829916
vt 0.803079 0.721005
vt 0.722356 0.829916
vt 0.722356 0.721005
vt 0.722356 0.938827
vt 0.803079 0.938827
vt 0.692482 0.829916
vt 0.692482 0.721005
vt 0.692482 0.938827
vt 0.611511 0.829916
vt 0.611510 0.721005
vt 0.530539 0.829916
vt 0.530539 0.721005
vt 0.530540 0.938827
vt 0.611511 0.938827
vt 0.722356 0.690818
vt 0.803079 0.690818
vt 0.883802 0.690818
vt 0.883802 0.970662
vt 0.803079 0.970662
vt 0.722356 0.970662
vt 0.482734 0.721005
vt 0.482734 0.827317
vt 0.515197 0.827317
vt 0.515197 0.721005
vt 0.402011 0.721005
vt 0.402011 0.827317
vt 0.321288 0.721005
vt 0.321288 0.827317
vt 0.291414 0.721005
vt 0.291414 0.827317
vt 0.210443 0.827317
vt 0.210443 0.721005
vt 0.129471 0.721005
vt 0.129472 0.827317
vt 0.321288 0.690818
vt 0.402011 0.690818
vt 0.482734 0.690818
vt 0.482734 0.970662
vt 0.482734 0.938827
vt 0.402011 0.938827
vt 0.402011 0.970662
vt 0.321289 0.938827
vt 0.321288 0.970662
vt 0.515197 0.938827
vt 0.210443 0.938827
vt 0.129472 0.938827
vt 0.291414 0.938826
vt 0.883802 0.721005
vt 0.883802 0.829916
vt 0.916264 0.829916
vt 0.916264 0.721005
vt 0.916264 0.938827
vt 0.883802 0.938827
vt 0.803079 0.829916
vt 0.803079 0.721005
vt 0.722356 0.829916
vt 0.722356 0.721005
vt 0.722356 0.938827
vt 0.803079 0.938827
vt 0.692482 0.829916
vt 0.692482 0.721005
vt 0.692482 0.938827
vt 0.611511 0.829916
vt 0.611510 0.721005
vt 0.530539 0.829916
vt 0.530539 0.721005
vt 0.530540 0.938827
vt 0.611511 0.938827
vt 0.722356 0.690818
vt 0.803079 0.690818
vt 0.883802 0.690818
vt 0.883802 0.970662
vt 0.803079 0.970662
vt 0.722356 0.970662
vt 0.482734 0.721005
vt 0.482734 0.827317
vt 0.515197 0.827317
vt 0.515197 0.721005
vt 0.402011 0.721005
vt 0.402011 0.827317
vt 0.321288 0.721005
vt 0.321288 0.827317
vt 0.291414 0.721005
vt 0.291414 0.827317
vt 0.210443 0.827317
vt 0.210443 0.721005
vt 0.129471 0.721005
vt 0.129472 0.827317
vt 0.321288 0.690818
vt 0.402011 0.690818
vt 0.482734 0.690818
vt 0.482734 0.970662
vt 0.482734 0.938827
vt 0.402011 0.938827
vt 0.402011 0.970662
vt 0.321289 0.938827
vt 0.321288 0.970662
vt 0.515197 0.938827
vt 0.210443 0.938827
vt 0.129472 0.938827
vt 0.291414 0.938826
vt 0.883802 0.721005
vt 0.883802 0.829916
vt 0.916264 0.829916
vt 0.916264 0.721005
vt 0.916264 0.938827
vt 0.883802 0.938827
vt 0.803079 0.829916
vt 0.803079 0.721005
vt 0.722356 0.829916
vt 0.722356 0.721005
vt 0.722356 0.938827
vt 0.803079 0.938827
vt 0.692482 0.829916
vt 0.692482 0.721005
vt 0.692482 0.938827
vt 0.611511 0.829916
vt 0.611510 0.721005
vt 0.530539 0.829916
vt 0.530539 0.721005
vt 0.530540 0.938827
vt 0.611511 0.938827
vt 0.722356 0.690818
vt 0.803079 0.690818
vt 0.883802 0.690818
vt 0.883802 0.970662
vt 0.803079 0.970662
vt 0.722356 0.970662
vt 0.482734 0.721005
vt 0.482734 0.827317
vt 0.515197 0.827317
vt 0.515197 0.721005
vt 0.402011 0.721005
vt 0.402011 0.827317
vt 0.321288 0.721005
vt 0.321288 0.827317
vt 0.291414 0.721005
vt 0.291414 0.827317
vt 0.210443 0.827317
vt 0.210443 0.721005
vt 0.129471 0.721005
vt 0.129472 0.827317
vt 0.321288 0.690818
vt 0.402011 0.690818
vt 0.482734 0.690818
vt 0.482734 0.970662
vn 0.041867 0.990779 -0.128855
vn 0.027377 0.996068 -0.084258
vn 0.071674 0.996068 -0.052074
vn 0.109610 0.990779 -0.079636
vn -0.041867 0.990779 -0.128855
vn -0.027377 0.996068 -0.084258
vn -0.109610 0.990779 -0.079636
vn -0.071674 0.996068 -0.052074
vn -0.135486 0.990779 0.000001
vn -0.088594 0.996068 0.000000
vn -0.109612 0.990779 0.079637
vn -0.071675 0.996068 0.052075
vn -0.041868 0.990779 0.128855
vn -0.027377 0.996068 0.084259
vn 0.041867 0.990779 0.128855
vn 0.027377 0.996068 0.084258
vn 0.109610 0.990779 0.079637
vn 0.071674 0.996068 0.052075
vn 0.135486 0.990779 0.000000
vn 0.088594 0.996068 0.000000
vn -0.000000 1.000000 -0.000000
vn -0.804529 0.591771 -0.050402
vn -0.376539 0.738108 -0.559835
vn -0.388080 -0.718619 -0.577046
vn -0.809665 -0.582068 -0.075097
vn 0.221437 -0.574683 -0.787848
vn 0.241863 0.584416 -0.774571
vn 0.012895 0.999905 0.004923
vn -0.489489 0.708739 0.508024
vn 0.386405 0.730226 0.563437
vn -0.014652 0.548840 0.835799
vn 0.790376 0.558020 0.252824
vn 0.644268 0.700740 -0.306402
vn 0.383618 -0.718749 0.579859
vn 0.005204 -0.539058 0.842253
vn 0.781441 -0.562169 0.270768
vn -0.000040 -1.000000 -0.000140
vn -0.488534 -0.709874 0.507359
vn 0.631255 -0.708140 -0.316316
vn -0.722419 0.559758 -0.405935
vn -0.133366 0.698574 -0.703000
vn -0.120425 -0.708663 -0.695194
vn -0.704462 -0.573156 -0.418599
vn -0.700195 0.690280 0.182321
vn -0.026044 0.998874 -0.039646
vn -0.411992 0.568119 0.712393
vn 0.103437 0.729412 0.676209
vn -0.358586 -0.565651 0.742600
vn 0.122868 -0.710011 0.693389
vn 0.000175 -0.999999 -0.001469
vn -0.668805 -0.713456 0.208996
vn 0.543697 -0.592753 -0.594169
vn 0.541319 0.577556 -0.611067
vn 0.708609 0.705577 0.005831
vn 0.700003 -0.713063 0.039201
vn 0.587311 0.551455 0.592422
vn 0.570729 -0.548853 0.610761
vn -0.604421 0.591759 0.533383
vn -0.662145 0.738109 -0.129458
vn -0.682476 -0.718619 -0.133463
vn -0.625517 -0.582056 0.519557
vn -0.400658 -0.574686 -0.713589
vn -0.376827 0.584418 -0.718649
vn 0.012600 0.999905 -0.005639
vn 0.013257 0.708741 0.705345
vn 0.671665 0.730227 0.125039
vn 0.580786 0.548840 0.601217
vn 0.737565 0.558031 -0.380262
vn 0.238758 0.700739 -0.672279
vn 0.681310 -0.718750 0.138618
vn 0.599386 -0.539058 0.591737
vn 0.743940 -0.562181 -0.361257
vn -0.000126 -1.000000 -0.000070
vn 0.013460 -0.709875 0.704199
vn 0.222547 -0.708139 -0.670084
vn -0.797809 0.559766 0.223970
vn -0.591485 0.698574 -0.402666
vn -0.576817 -0.708662 -0.406300
vn -0.794072 -0.573164 0.202318
vn -0.366058 0.690280 0.624111
vn -0.046451 0.998874 -0.009609
vn 0.212559 0.568120 0.795021
vn 0.551379 0.729412 0.404895
vn 0.271678 -0.565652 0.778607
vn 0.577266 -0.710010 0.403300
vn -0.000916 -0.999999 -0.001162
vn -0.325002 -0.713455 0.620770
vn -0.035884 -0.592744 -0.804591
vn -0.049515 0.577547 -0.814855
vn 0.505071 0.705577 -0.497056
vn 0.522588 -0.713064 -0.467378
vn 0.834202 0.551449 0.003433
vn 0.835450 -0.548846 0.028126
vn -0.050067 0.591767 0.804553
vn -0.559670 0.738109 0.376783
vn -0.576876 -0.718619 0.388331
vn -0.074760 -0.582064 0.809699
vn -0.787939 -0.574689 -0.221098
vn -0.774670 0.584422 -0.241532
vn 0.004919 0.999905 -0.012898
vn 0.508234 0.708740 0.489271
vn 0.563266 0.730227 -0.386652
vn 0.835804 0.548842 0.014268
vn 0.252472 0.558028 -0.790482
vn -0.306685 0.700739 -0.644135
vn 0.579689 -0.718750 -0.383873
vn 0.842249 -0.539060 -0.005590
vn 0.270420 -0.562178 -0.781555
vn -0.000139 -1.000000 0.000040
vn 0.507568 -0.709875 0.488316
vn -0.316594 -0.708139 -0.631116
vn -0.405610 0.559763 0.722597
vn -0.702941 0.698573 0.133678
vn -0.695141 -0.708662 0.120735
vn -0.418282 -0.573162 0.704646
vn 0.182624 0.690279 0.700117
vn -0.039635 0.998874 0.026061
vn 0.712562 0.568126 0.411690
vn 0.676163 0.729413 -0.103730
vn 0.742747 -0.565658 0.358270
vn 0.693335 -0.710011 -0.123169
vn -0.001469 -0.999999 -0.000174
vn 0.209286 -0.713456 0.668715
vn -0.594416 -0.592754 -0.543426
vn -0.611314 0.577556 -0.541040
vn 0.005514 0.705577 -0.708612
vn 0.038888 -0.713064 -0.700020
vn 0.592166 0.551457 -0.587566
vn 0.610513 -0.548855 -0.570992
vn 0.533634 0.591756 0.604202
vn -0.129174 0.738109 0.662201
vn -0.133171 -0.718619 0.682534
vn 0.519818 -0.582053 0.625303
vn -0.713415 -0.574686 0.400968
vn -0.718486 0.584419 0.377138
vn -0.005645 0.999905 -0.012597
vn 0.705338 0.708742 -0.013562
vn 0.124735 0.730227 -0.671722
vn 0.600960 0.548836 -0.581056
vn -0.380602 0.558027 -0.737393
vn -0.672385 0.700739 -0.238462
vn 0.138311 -0.718750 -0.681373
vn 0.591471 -0.539054 -0.599653
vn -0.361599 -0.562177 -0.743776
vn -0.000070 -1.000000 0.000127
vn 0.704192 -0.709876 -0.013766
vn -0.670182 -0.708139 -0.222250
vn 0.224299 0.559756 0.797724
vn -0.402405 0.698574 0.591663
vn -0.406047 -0.708662 0.576995
vn 0.202644 -0.573155 0.793996
vn 0.624267 0.690280 0.365792
vn -0.009588 0.998874 0.046456
vn 0.794921 0.568121 -0.212932
vn 0.404650 0.729412 -0.551558
vn 0.778479 -0.565653 -0.272044
vn 0.403042 -0.710011 -0.577444
vn -0.001162 -0.999999 0.000916
vn 0.620907 -0.713456 0.324737
vn -0.804571 -0.592750 0.036228
vn -0.814829 0.577553 0.049865
vn -0.497275 0.705577 -0.504855
vn -0.467605 -0.713064 -0.522385
vn 0.003069 0.551455 -0.834199
vn 0.027760 -0.548853 -0.835458
vn 0.804586 0.591752 0.049712
vn 0.377033 0.738109 0.559500
vn 0.388589 -0.718620 0.576701
vn 0.809743 -0.582049 0.074401
vn -0.220767 -0.574686 0.788035
vn -0.241206 0.584418 0.774774
vn -0.012900 0.999905 -0.004913
vn 0.489047 0.708742 -0.508447
vn -0.386905 0.730227 -0.563092
vn 0.013883 0.548840 -0.835812
vn -0.790594 0.558025 -0.252128
vn -0.644002 0.700739 0.306962
vn -0.384133 -0.718750 -0.579517
vn -0.005978 -0.539058 -0.842248
vn -0.781675 -0.562175 -0.270080
vn 0.000040 -1.000000 0.000139
vn 0.488094 -0.709876 -0.507780
vn -0.630980 -0.708139 0.316865
vn 0.722770 0.559760 0.405304
vn 0.133977 0.698573 0.702884
vn 0.121030 -0.708662 0.695089
vn 0.704826 -0.573158 0.417983
vn 0.700037 0.690280 -0.182927
vn 0.026078 0.998874 0.039624
vn 0.411378 0.568121 -0.712745
vn -0.104026 0.729412 -0.676119
vn 0.357946 -0.565653 -0.742907
vn -0.123471 -0.710011 -0.693282
vn -0.000173 -0.999999 0.001469
vn 0.668624 -0.713456 -0.209576
vn -0.543182 -0.592759 0.594635
vn -0.540789 0.577561 0.611532
vn -0.708615 0.705576 -0.005205
vn -0.700038 -0.713063 -0.038582
vn -0.587838 0.551462 -0.591892
vn -0.571273 -0.548860 -0.610246
vn 0.603958 0.591765 -0.533900
vn 0.662256 0.738108 0.128894
vn 0.682590 -0.718619 0.132881
vn 0.625066 -0.582062 -0.520093
vn 0.401272 -0.574686 0.713244
vn 0.377445 0.584418 0.718325
vn -0.012593 0.999905 0.005650
vn -0.013872 0.708740 -0.705333
vn -0.671774 0.730228 -0.124446
vn -0.581313 0.548844 -0.600704
vn -0.737228 0.558035 0.380910
vn -0.238169 0.700739 0.672488
vn -0.681431 -0.718751 -0.138018
vn -0.599907 -0.539061 -0.591206
vn -0.743620 -0.562184 0.361909
vn 0.000127 -1.000000 0.000070
vn -0.014076 -0.709875 -0.704187
vn -0.221960 -0.708139 0.670279
vn 0.797617 0.559760 -0.224670
vn 0.591837 0.698574 0.402148
vn 0.577172 -0.708663 0.405795
vn 0.793899 -0.573158 -0.203015
vn 0.365515 0.690280 -0.624430
vn 0.046460 0.998874 0.009568
vn -0.213256 0.568119 -0.794835
vn -0.551734 0.729411 -0.404411
vn -0.272362 -0.565652 -0.778368
vn -0.577620 -0.710010 -0.402792
vn 0.000917 -0.999999 0.001162
vn 0.324461 -0.713456 -0.621052
vn 0.036570 -0.592746 0.804559
vn 0.050211 0.577548 0.814811
vn -0.504642 0.705577 0.497491
vn -0.522185 -0.713064 0.467828
vn -0.834205 0.551448 -0.002703
vn -0.835475 -0.548846 -0.027393
vn 0.049351 0.591768 -0.804596
vn 0.559338 0.738109 -0.377275
vn 0.576534 -0.718619 -0.388838
vn 0.074040 -0.582065 -0.809764
vn 0.788129 -0.574691 0.220416
vn 0.774877 0.584424 0.240860
vn -0.004909 0.999905 0.012903
vn -0.508663 0.708739 -0.488825
vn -0.562927 0.730226 0.387147
vn -0.835816 0.548843 -0.013547
vn -0.251773 0.558028 0.790706
vn 0.307247 0.700739 0.643867
vn -0.579353 -0.718750 0.384381
vn -0.842243 -0.539061 0.006317
vn -0.269730 -0.562178 0.781794
vn 0.000139 -1.000000 -0.000040
vn -0.507995 -0.709874 -0.487872
vn 0.317144 -0.708139 0.630840
vn 0.404978 0.559760 -0.722953
vn 0.702825 0.698573 -0.134287
vn 0.695036 -0.708663 -0.121336
vn 0.417666 -0.573159 -0.705013
vn -0.183235 0.690279 -0.699957
vn 0.039612 0.998874 -0.026096
vn -0.712924 0.568128 -0.411060
vn -0.676073 0.729413 0.104320
vn -0.743061 -0.565661 -0.357615
vn -0.693227 -0.710012 0.123773
vn 0.001469 -0.999999 0.000173
vn -0.209868 -0.713456 -0.668533
vn 0.594888 -0.592749 0.542915
vn 0.611784 0.577551 0.540514
vn -0.004890 0.705576 0.708617
vn -0.038272 -0.713064 0.700054
vn -0.591653 0.551462 0.588079
vn -0.610014 -0.548860 0.571521
vn -0.534180 0.591769 -0.603706
vn 0.128593 0.738108 -0.662314
vn 0.132571 -0.718619 -0.682651
vn -0.520383 -0.582067 -0.624820
vn 0.713065 -0.574691 -0.401583
vn 0.718156 0.584424 -0.377757
vn 0.005656 0.999905 0.012591
vn -0.705328 0.708739 0.014190
vn -0.124148 0.730227 0.671831
vn -0.600461 0.548842 0.581566
vn 0.381245 0.558028 0.737060
vn 0.672591 0.700738 0.237881
vn -0.137716 -0.718750 0.681493
vn -0.590956 -0.539060 0.600154
vn 0.362248 -0.562178 0.743460
vn 0.000070 -1.000000 -0.000127
vn -0.704182 -0.709874 0.014393
vn 0.670374 -0.708138 0.221672
vn -0.225019 0.559761 -0.797518
vn 0.401886 0.698574 -0.592016
vn 0.405539 -0.708663 -0.577352
vn -0.203362 -0.573160 -0.793808
vn -0.624594 0.690280 -0.365234
vn 0.009547 0.998874 -0.046465
vn -0.794736 0.568120 0.213622
vn -0.404169 0.729412 0.551910
vn -0.778243 -0.565652 0.272720
vn -0.402538 -0.710011 0.577796
vn 0.001161 -0.999999 -0.000917
vn -0.621198 -0.713456 -0.324181
vn 0.804539 -0.592751 -0.036924
vn 0.814785 0.577554 -0.050570
vn 0.497718 0.705577 0.504418
vn 0.468064 -0.713063 0.521974
vn -0.002332 0.551457 0.834200
vn -0.027022 -0.548855 0.835481
s 1
g polySurface9540
f 2/1/1 12/2/2 11/3/3 1/4/4
f 3/5/5 13/6/6 12/2/2 2/1/1
f 4/7/7 14/8/8 13/6/6 3/5/5
f 5/9/9 15/10/10 14/8/8 4/7/7
f 6/11/11 16/12/12 15/10/10 5/9/9
f 7/13/13 17/14/14 16/12/12 6/11/11
f 8/15/15 18/16/16 17/14/14 7/13/13
f 9/17/17 19/18/18 18/16/16 8/15/15
f 10/19/19 20/20/20 19/18/18 9/17/17
f 1/4/4 11/3/3 20/20/20 10/19/19
f 21/21/21 11/3/3 12/2/2
f 21/21/21 12/2/2 13/6/6
f 21/21/21 13/6/6 14/8/8
f 21/21/21 14/8/8 15/10/10
f 21/21/21 15/10/10 16/12/12
f 21/21/21 16/12/12 17/14/14
f 21/21/21 17/14/14 18/16/16
f 21/21/21 18/16/16 19/18/18
f 21/21/21 19/18/18 20/20/20
f 21/21/21 20/20/20 11/3/3
s 2
f 25/31/22 31/32/23 30/33/24 23/34/25
f 22/35/26 30/33/24 31/32/23 24/36/27
f 38/37/28 31/32/23 25/31/22 35/38/29
f 32/39/30 38/37/28 35/38/29 27/40/31
f 32/39/30 26/41/32 34/42/33 38/37/28
f 34/42/33 24/36/27 31/32/23 38/37/28
f 33/43/34 32/39/30 27/40/31 29/44/35
f 26/41/32 32/39/30 33/43/34 28/45/36
f 39/46/37 33/43/34 29/44/35 37/47/38
f 30/48/24 39/46/37 37/47/38 23/49/25
f 30/48/24 22/50/26 36/51/39 39/46/37
f 36/51/39 28/45/36 33/43/34 39/46/37
f 29/52/35 27/40/31 35/38/29 37/53/38
f 25/31/22 23/54/25 37/53/38 35/38/29
f 22/55/26 24/36/27 34/42/33 36/56/39
f 26/41/32 28/57/36 36/56/39 34/42/33
s 3
f 43/58/40 53/59/41 54/60/42 41/61/43
f 49/62/44 52/63/45 53/59/41 43/58/40
f 45/64/46 57/65/47 52/63/45 49/62/44
f 47/66/48 56/67/49 57/65/47 45/64/46
f 55/68/50 56/67/49 47/66/48 51/69/51
f 41/70/43 54/71/42 55/68/50 51/69/51
f 47/72/48 45/64/46 49/62/44 51/73/51
f 43/58/40 41/74/43 51/73/51 49/62/44
f 40/75/52 42/76/53 48/77/54 50/78/55
f 44/79/56 46/80/57 50/78/55 48/77/54
f 53/59/41 52/63/45 48/77/54 42/76/53
f 54/60/42 53/59/41 42/76/53 40/81/52
f 50/82/55 55/68/50 54/71/42 40/83/52
f 56/67/49 55/68/50 50/82/55 46/84/57
f 57/65/47 56/67/49 46/84/57 44/79/56
f 48/77/54 52/63/45 57/65/47 44/79/56
s 4
f 61/85/58 67/86/59 66/87/60 59/88/61
f 58/89/62 66/87/60 67/86/59 60/90/63
f 74/91/64 67/86/59 61/85/58 71/92/65
f 68/93/66 74/91/64 71/92/65 63/94/67
f 68/93/66 62/95/68 70/96/69 74/91/64
f 70/96/69 60/90/63 67/86/59 74/91/64
f 69/97/70 68/93/66 63/94/67 65/98/71
f 62/95/68 68/93/66 69/97/70 64/99/72
f 75/100/73 69/97/70 65/98/71 73/101/74
f 66/102/60 75/100/73 73/101/74 59/103/61
f 66/102/60 58/104/62 72/105/75 75/100/73
f 72/105/75 64/99/72 69/97/70 75/100/73
f 65/106/71 63/94/67 71/92/65 73/107/74
f 61/85/58 59/108/61 73/107/74 71/92/65
f 58/109/62 60/90/63 70/96/69 72/110/75
f 62/95/68 64/111/72 72/110/75 70/96/69
s 5
f 79/112/76 89/113/77 90/114/78 77/115/79
f 85/116/80 88/117/81 89/113/77 79/112/76
f 81/118/82 93/119/83 88/117/81 85/116/80
f 83/120/84 92/121/85 93/119/83 81/118/82
f 91/122/86 92/121/85 83/120/84 87/123/87
f 77/124/79 90/125/78 91/122/86 87/123/87
f 83/126/84 81/118/82 85/116/80 87/127/87
f 79/112/76 77/128/79 87/127/87 85/116/80
f 76/129/88 78/130/89 84/131/90 86/132/91
f 80/133/92 82/134/93 86/132/91 84/131/90
f 89/113/77 88/117/81 84/131/90 78/130/89
f 90/114/78 89/113/77 78/130/89 76/135/88
f 86/136/91 91/122/86 90/125/78 76/137/88
f 92/121/85 91/122/86 86/136/91 82/138/93
f 93/119/83 92/121/85 82/138/93 80/133/92
f 84/131/90 88/117/81 93/119/83 80/133/92
s 6
f 97/139/94 103/140/95 102/141/96 95/142/97
f 94/143/98 102/141/96 103/140/95 96/144/99
f 110/145/100 103/140/95 97/139/94 107/146/101
f 104/147/102 110/145/100 107/146/101 99/148/103
f 104/147/102 98/149/104 106/150/105 110/145/100
f 106/150/105 96/144/99 103/140/95 110/145/100
f 105/151/106 104/147/102 99/148/103 101/152/107
f 98/149/104 104/147/102 105/151/106 100/153/108
f 111/154/109 105/151/106 101/152/107 109/155/110
f 102/156/96 111/154/109 109/155/110 95/157/97
f 102/156/96 94/158/98 108/159/111 111/154/109
f 108/159/111 100/153/108 105/151/106 111/154/109
f 101/160/107 99/148/103 107/146/101 109/161/110
f 97/139/94 95/162/97 109/161/110 107/146/101
f 94/163/98 96/144/99 106/150/105 108/164/111
f 98/149/104 100/165/108 108/164/111 106/150/105
s 7
f 115/166/112 125/167/113 126/168/114 113/169/115
f 121/170/116 124/171/117 125/167/113 115/166/112
f 117/172/118 129/173/119 124/171/117 121/170/116
f 119/174/120 128/175/121 129/173/119 117/172/118
f 127/176/122 128/175/121 119/174/120 123/177/123
f 113/178/115 126/179/114 127/176/122 123/177/123
f 119/180/120 117/172/118 121/170/116 123/181/123
f 115/166/112 113/182/115 123/181/123 121/170/116
f 112/183/124 114/184/125 120/185/126 122/186/127
f 116/187/128 118/188/129 122/186/127 120/185/126
f 125/167/113 124/171/117 120/185/126 114/184/125
f 126/168/114 125/167/113 114/184/125 112/189/124
f 122/190/127 127/176/122 126/179/114 112/191/124
f 128/175/121 127/176/122 122/190/127 118/192/129
f 129/173/119 128/175/121 118/192/129 116/187/128
f 120/185/126 124/171/117 129/173/119 116/187/128
s 8
f 133/193/130 139/194/131 138/195/132 131/196/133
f 130/197/134 138/195/132 139/194/131 132/198/135
f 146/199/136 139/194/131 133/193/130 143/200/137
f 140/201/138 146/199/136 143/200/137 135/202/139
f 140/201/138 134/203/140 142/204/141 146/199/136
f 142/204/141 132/198/135 139/194/131 146/199/136
f 141/205/142 140/201/138 135/202/139 137/206/143
f 134/203/140 140/201/138 141/205/142 136/207/144
f 147/208/145 141/205/142 137/206/143 145/209/146
f 138/210/132 147/208/145 145/209/146 131/211/133
f 138/210/132 130/212/134 144/213/147 147/208/145
f 144/213/147 136/207/144 141/205/142 147/208/145
f 137/214/143 135/202/139 143/200/137 145/215/146
f 133/193/130 131/216/133 145/215/146 143/200/137
f 130/217/134 132/198/135 142/204/141 144/218/147
f 134/203/140 136/219/144 144/218/147 142/204/141
s 9
f 151/220/148 161/221/149 162/222/150 149/223/151
f 157/224/152 160/225/153 161/221/149 151/220/148
f 153/226/154 165/227/155 160/225/153 157/224/152
f 155/228/156 164/229/157 165/227/155 153/226/154
f 163/230/158 164/229/157 155/228/156 159/231/159
f 149/232/151 162/233/150 163/230/158 159/231/159
f 155/234/156 153/226/154 157/224/152 159/235/159
f 151/220/148 149/236/151 159/235/159 157/224/152
f 148/237/160 150/238/161 156/239/162 158/240/163
f 152/241/164 154/242/165 158/240/163 156/239/162
f 161/221/149 160/225/153 156/239/162 150/238/161
f 162/222/150 161/221/149 150/238/161 148/243/160
f 158/244/163 163/230/158 162/233/150 148/245/160
f 164/229/157 163/230/158 158/244/163 154/246/165
f 165/227/155 164/229/157 154/246/165 152/241/164
f 156/239/162 160/225/153 165/227/155 152/241/164
s 10
f 169/247/166 175/248/167 174/249/168 167/250/169
f 166/251/170 174/249/168 175/248/167 168/252/171
f 182/253/172 175/248/167 169/247/166 179/254/173
f 176/255/174 182/253/172 179/254/173 171/256/175
f 176/255/174 170/257/176 178/258/177 182/253/172
f 178/258/177 168/252/171 175/248/167 182/253/172
f 177/259/178 176/255/174 171/256/175 173/260/179
f 170/257/176 176/255/174 177/259/178 172/261/180
f 183/262/181 177/259/178 173/260/179 181/263/182
f 174/264/168 183/262/181 181/263/182 167/265/169
f 174/264/168 166/266/170 180/267/183 183/262/181
f 180/267/183 172/261/180 177/259/178 183/262/181
f 173/268/179 171/256/175 179/254/173 181/269/182
f 169/247/166 167/270/169 181/269/182 179/254/173
f 166/271/170 168/252/171 178/258/177 180/272/183
f 170/257/176 172/273/180 180/272/183 178/258/177
s 11
f 187/274/184 197/275/185 198/276/186 185/277/187
f 193/278/188 196/279/189 197/275/185 187/274/184
f 189/280/190 201/281/191 196/279/189 193/278/188
f 191/282/192 200/283/193 201/281/191 189/280/190
f 199/284/194 200/283/193 191/282/192 195/285/195
f 185/286/187 198/287/186 199/284/194 195/285/195
f 191/288/192 189/280/190 193/278/188 195/289/195
f 187/274/184 185/290/187 195/289/195 193/278/188
f 184/291/196 186/292/197 192/293/198 194/294/199
f 188/295/200 190/296/201 194/294/199 192/293/198
f 197/275/185 196/279/189 192/293/198 186/292/197
f 198/276/186 197/275/185 186/292/197 184/297/196
f 194/298/199 199/284/194 198/287/186 184/299/196
f 200/283/193 199/284/194 194/298/199 190/300/201
f 201/281/191 200/283/193 190/300/201 188/295/200
f 192/293/198 196/279/189 201/281/191 188/295/200
s 12
f 205/301/202 211/302/203 210/303/204 203/304/205
f 202/305/206 210/303/204 211/302/203 204/306/207
f 218/307/208 211/302/203 205/301/202 215/308/209
f 212/309/210 218/307/208 215/308/209 207/310/211
f 212/309/210 206/311/212 214/312/213 218/307/208
f 214/312/213 204/306/207 211/302/203 218/307/208
f 213/313/214 212/309/210 207/310/211 209/314/215
f 206/311/212 212/309/210 213/313/214 208/315/216
f 219/316/217 213/313/214 209/314/215 217/317/218
f 210/318/204 219/316/217 217/317/218 203/319/205
f 210/318/204 202/320/206 216/321/219 219/316/217
f 216/321/219 208/315/216 213/313/214 219/316/217
f 209/322/215 207/310/211 215/308/209 217/323/218
f 205/301/202 203/324/205 217/323/218 215/308/209
f 202/325/206 204/306/207 214/312/213 216/326/219
f 206/311/212 208/327/216 216/326/219 214/312/213
s 13
f 223/328/220 233/329/221 234/330/222 221/331/223
f 229/332/224 232/333/225 233/329/221 223/328/220
f 225/334/226 237/335/227 232/333/225 229/332/224
f 227/336/228 236/337/229 237/335/227 225/334/226
f 235/338/230 236/337/229 227/336/228 231/339/231
f 221/340/223 234/341/222 235/338/230 231/339/231
f 227/342/228 225/334/226 229/332/224 231/343/231
f 223/328/220 221/344/223 231/343/231 229/332/224
f 220/345/232 222/346/233 228/347/234 230/348/235
f 224/349/236 226/350/237 230/348/235 228/347/234
f 233/329/221 232/333/225 228/347/234 222/346/233
f 234/330/222 233/329/221 222/346/233 220/351/232
f 230/352/235 235/338/230 234/341/222 220/353/232
f 236/337/229 235/338/230 230/352/235 226/354/237
f 237/335/227 236/337/229 226/354/237 224/349/236
f 228/347/234 232/333/225 237/335/227 224/349/236
s 14
f 241/355/238 247/356/239 246/357/240 239/358/241
f 238/359/242 246/357/240 247/356/239 240/360/243
f 254/361/244 247/356/239 241/355/238 251/362/245
f 248/363/246 254/361/244 251/362/245 243/364/247
f 248/363/246 242/365/248 250/366/249 254/361/244
f 250/366/249 240/360/243 247/356/239 254/361/244
f 249/367/250 248/363/246 243/364/247 245/368/251
f 242/365/248 248/363/246 249/367/250 244/369/252
f 255/370/253 249/367/250 245/368/251 253/371/254
f 246/372/240 255/370/253 253/371/254 239/373/241
f 246/372/240 238/374/242 252/375/255 255/370/253
f 252/375/255 244/369/252 249/367/250 255/370/253
f 245/376/251 243/364/247 251/362/245 253/377/254
f 241/355/238 239/378/241 253/377/254 251/362/245
f 238/379/242 240/360/243 250/366/249 252/380/255
f 242/365/248 244/381/252 252/380/255 250/366/249
s 15
f 259/382/256 269/383/257 270/384/258 257/385/259
f 265/386/260 268/387/261 269/383/257 259/382/256
f 261/388/262 273/389/263 268/387/261 265/386/260
f 263/390/264 272/391/265 273/389/263 261/388/262
f 271/392/266 272/391/265 263/390/264 267/393/267
f 257/394/259 270/395/258 271/392/266 267/393/267
f 263/396/264 261/388/262 265/386/260 267/397/267
f 259/382/256 257/398/259 267/397/267 265/386/260
f 256/399/268 258/400/269 264/401/270 266/402/271
f 260/403/272 262/404/273 266/402/271 264/401/270
f 269/383/257 268/387/261 264/401/270 258/400/269
f 270/384/258 269/383/257 258/400/269 256/405/268
f 266/406/271 271/392/266 270/395/258 256/407/268
f 272/391/265 271/392/266 266/406/271 262/408/273
f 273/389/263 272/391/265 262/408/273 260/403/272
f 264/401/270 268/387/261 273/389/263 260/403/272
s 16
f 277/409/274 283/410/275 282/411/276 275/412/277
f 274/413/278 282/411/276 283/410/275 276/414/279
f 290/415/280 283/410/275 277/409/274 287/416/281
f 284/417/282 290/415/280 287/416/281 279/418/283
f 284/417/282 278/419/284 286/420/285 290/415/280
f 286/420/285 276/414/279 283/410/275 290/415/280
f 285/421/286 284/417/282 279/418/283 281/422/287
f 278/419/284 284/417/282 285/421/286 280/423/288
f 291/424/289 285/421/286 281/422/287 289/425/290
f 282/426/276 291/424/289 289/425/290 275/427/277
f 282/426/276 274/428/278 288/429/291 291/424/289
f 288/429/291 280/423/288 285/421/286 291/424/289
f 281/430/287 279/418/283 287/416/281 289/431/290
f 277/409/274 275/432/277 289/431/290 287/416/281
f 274/433/278 276/414/279 286/420/285 288/434/291
f 278/419/284 280/435/288 288/434/291 286/420/285
s 17
f 295/436/292 305/437/293 306/438/294 293/439/295
f 301/440/296 304/441/297 305/437/293 295/436/292
f 297/442/298 309/443/299 304/441/297 301/440/296
f 299/444/300 308/445/301 309/443/299 297/442/298
f 307/446/302 308/445/301 299/444/300 303/447/303
f 293/448/295 306/449/294 307/446/302 303/447/303
f 299/450/300 297/442/298 301/440/296 303/451/303
f 295/436/292 293/452/295 303/451/303 301/440/296
f 292/453/304 294/30/305 300/29/306 302/28/307
f 296/27/308 298/26/309 302/28/307 300/29/306
f 305/437/293 304/441/297 300/29/306 294/30/305
f 306/438/294 305/437/293 294/30/305 292/25/304
f 302/24/307 307/446/302 306/449/294 292/23/304
f 308/445/301 307/446/302 302/24/307 298/22/309
f 309/443/299 308/445/301 298/22/309 296/27/308
f 300/29/306 304/441/297 309/443/299 296/27/308
