# This file uses centimeters as units for non-parametric coordinates.

g default
v -14.925160 -0.002051 0.163342
v -14.436257 -0.002051 0.163341
v -14.925308 0.099614 0.163416
v -14.436110 0.099614 0.163416
v -14.925308 0.099614 -0.163416
v -14.436110 0.099614 -0.163416
v -14.925160 -0.002051 -0.163342
v -14.436257 -0.002051 -0.163342
v -14.458034 0.100467 0.171826
v -14.458034 0.100467 -0.171825
v -14.458114 -0.002744 -0.171736
v -14.458114 -0.002744 0.171736
v -14.901895 0.100467 0.171826
v -14.901895 0.100467 -0.171825
v -14.901814 -0.002744 -0.171736
v -14.901814 -0.002744 0.171737
v -14.383222 0.034799 0.252240
v -14.401071 0.034855 0.270238
v -14.958408 0.034855 0.270238
v -14.978226 0.034799 0.252240
v -14.978226 0.034799 -0.252241
v -14.958408 0.034855 -0.270238
v -14.401071 0.034855 -0.270238
v -14.383222 0.034799 -0.252241
v -14.381606 0.054429 0.253659
v -14.399499 0.054395 0.271700
v -14.959967 0.054395 0.271700
v -14.979842 0.054429 0.253659
v -14.979842 0.054429 -0.253659
v -14.959967 0.054395 -0.271701
v -14.399499 0.054395 -0.271701
v -14.381606 0.054429 -0.253658
v -14.952489 0.015837 0.218715
v -14.408962 0.015837 0.218714
v -14.953445 0.077620 -0.219470
v -14.408006 0.077620 -0.219471
v -14.427392 0.077745 -0.233902
v -14.428257 0.015757 0.233078
v -14.932300 0.077745 -0.233902
v -14.931441 0.015757 0.233079
v -14.379951 0.044428 0.254138
v -14.399085 0.044443 0.273311
v -14.960376 0.044443 0.273310
v -14.981485 0.044428 0.254138
v -14.952489 0.015837 -0.218714
v -14.931441 0.015757 -0.233078
v -14.428257 0.015757 -0.233078
v -14.408962 0.015837 -0.218714
v -14.408006 0.077620 0.219470
v -14.427392 0.077745 0.233902
v -14.932300 0.077745 0.233902
v -14.953444 0.077620 0.219470
v -14.981485 0.044428 -0.254138
v -14.960376 0.044443 -0.273310
v -14.399085 0.044443 -0.273310
v -14.379951 0.044428 -0.254138
v -14.574664 0.101642 0.175700
v -14.785139 0.101642 0.175699
v -14.785139 0.101642 -0.175699
v -14.574664 0.101642 -0.175698
v -14.571936 0.054497 -0.281753
v -14.787365 0.054497 -0.281752
v -14.788588 0.044336 -0.283351
v -14.570681 0.044336 -0.283351
v -14.787340 0.034543 -0.280190
v -14.571976 0.034543 -0.280192
v -14.786762 0.015057 -0.241097
v -14.572798 0.015057 -0.241099
v -14.785104 -0.003897 -0.175611
v -14.574699 -0.003897 -0.175611
v -14.785104 -0.003897 0.175611
v -14.574699 -0.003897 0.175611
v -14.786762 0.015057 0.241096
v -14.572798 0.015057 0.241098
v -14.787340 0.034543 0.280191
v -14.571976 0.034543 0.280190
v -14.787365 0.054497 0.281753
v -14.571936 0.054497 0.281754
v -14.570681 0.044336 0.283351
v -14.788588 0.044336 0.283352
v -14.786827 0.078345 0.241971
v -14.572723 0.078345 0.241972
v -14.572723 0.078345 -0.241972
v -14.786827 0.078345 -0.241971
v -14.923805 0.102787 0.078869
v -14.923805 0.102787 -0.078868
v -14.899300 0.105126 -0.078792
v -14.899300 0.105126 0.078793
v -14.923689 -0.005091 -0.078833
v -14.923689 -0.005091 0.078834
v -14.899261 -0.007016 0.078778
v -14.899261 -0.007016 -0.078777
v -14.377649 0.054683 0.081012
v -14.377649 0.054683 -0.081011
v -14.376143 0.044161 -0.081980
v -14.376143 0.044161 0.081981
v -14.379305 0.034020 -0.080982
v -14.379305 0.034020 0.080983
v -14.983970 0.054683 -0.081011
v -14.983972 0.054683 0.081012
v -14.985476 0.044161 0.081981
v -14.985476 0.044161 -0.081980
v -14.982313 0.034020 0.080983
v -14.982313 0.034020 -0.080982
v -14.954847 0.013985 -0.077390
v -14.954847 0.013985 0.077391
v -14.437790 -0.005091 -0.078834
v -14.437790 -0.005091 0.078833
v -14.406742 0.013984 0.077391
v -14.406742 0.013984 -0.077390
v -14.437672 0.102787 -0.078868
v -14.437672 0.102787 0.078869
v -14.460668 0.105126 0.078793
v -14.460668 0.105126 -0.078792
v -14.460705 -0.007016 -0.078778
v -14.460705 -0.007016 0.078777
v -14.955812 0.079253 -0.077446
v -14.955812 0.079253 0.077445
v -14.405778 0.079253 0.077445
v -14.405778 0.079253 -0.077446
v -14.783180 0.106798 -0.079030
v -14.783180 0.106798 0.079031
v -14.576658 0.106798 0.079031
v -14.576658 0.106798 -0.079030
v -14.783181 -0.008597 0.079017
v -14.783181 -0.008597 -0.079016
v -14.576657 -0.008597 -0.079017
v -14.576657 -0.008597 0.079016
vt 0.022942 0.948848
vt 0.016131 0.949443
vt 0.038697 0.970172
vt 0.039612 0.963002
vt 0.040598 0.037393
vt 0.038541 0.030277
vt 0.017895 0.049243
vt 0.024757 0.051045
vt 0.086227 0.879392
vt 0.088565 0.803836
vt 0.071456 0.803930
vt 0.069984 0.872834
vt 0.069985 0.604281
vt 0.071454 0.673184
vt 0.088566 0.673277
vt 0.086228 0.597724
vt 0.039612 0.514113
vt 0.038618 0.498473
vt 0.016327 0.521396
vt 0.022942 0.528267
vt 0.024757 0.469390
vt 0.017699 0.477467
vt 0.040598 0.483043
vt 0.085464 0.401200
vt 0.087385 0.325424
vt 0.070097 0.325539
vt 0.069223 0.394663
vt 0.069226 0.125772
vt 0.070099 0.194896
vt 0.087387 0.195010
vt 0.085465 0.119236
vt 0.493921 0.520534
vt 0.487335 0.528215
vt 0.493628 0.671121
vt 0.500896 0.670128
vt 0.500906 0.806986
vt 0.493632 0.805994
vt 0.487334 0.948900
vt 0.494137 0.949376
vt 0.492441 0.049288
vt 0.485593 0.050990
vt 0.491563 0.192804
vt 0.498796 0.191801
vt 0.498807 0.328634
vt 0.491568 0.327631
vt 0.485593 0.469446
vt 0.492657 0.478353
vt 0.009168 0.670117
vt 0.016448 0.671115
vt 0.018639 0.327635
vt 0.011402 0.328642
vt 0.011392 0.191795
vt 0.018633 0.192801
vt 0.016452 0.806000
vt 0.009178 0.806999
vt 0.062024 0.451434
vt 0.047119 0.440829
vt 0.043671 0.196019
vt 0.047117 0.079607
vt 0.043655 0.324416
vt 0.062023 0.069002
vt 0.466553 0.324415
vt 0.440197 0.325535
vt 0.441138 0.394681
vt 0.463250 0.440863
vt 0.466569 0.196022
vt 0.463248 0.079572
vt 0.441140 0.125755
vt 0.440198 0.194900
vt 0.440285 0.872863
vt 0.438674 0.803930
vt 0.422749 0.803830
vt 0.425065 0.879416
vt 0.425065 0.597698
vt 0.422750 0.673286
vt 0.438672 0.673185
vt 0.440286 0.604252
vt 0.473149 0.498475
vt 0.472031 0.514157
vt 0.471194 0.483043
vt 0.449620 0.451457
vt 0.425988 0.401219
vt 0.424041 0.325421
vt 0.425990 0.119216
vt 0.424043 0.195015
vt 0.449619 0.068978
vt 0.471194 0.037393
vt 0.472030 0.962958
vt 0.472985 0.970188
vt 0.473310 0.030258
vt 0.335809 0.803792
vt 0.337348 0.881145
vt 0.335808 0.673333
vt 0.337347 0.595963
vt 0.175605 0.673319
vt 0.174105 0.595962
vt 0.175606 0.803787
vt 0.174105 0.881160
vt 0.172511 0.505513
vt 0.171418 0.498268
vt 0.340542 0.498269
vt 0.339342 0.505510
vt 0.339386 0.491027
vt 0.172575 0.491021
vt 0.173048 0.457319
vt 0.338720 0.457324
vt 0.337300 0.403576
vt 0.174275 0.403587
vt 0.175781 0.325351
vt 0.335765 0.325355
vt 0.335761 0.195088
vt 0.337299 0.116855
vt 0.175777 0.195077
vt 0.174275 0.116853
vt 0.173048 0.063119
vt 0.338720 0.063109
vt 0.339385 0.029406
vt 0.172575 0.029418
vt 0.171343 0.978848
vt 0.172511 0.971600
vt 0.171455 0.022168
vt 0.340544 0.022162
vt 0.339342 0.971607
vt 0.340537 0.978851
vt 0.463355 0.919278
vt 0.449111 0.929919
vt 0.062388 0.929897
vt 0.172958 0.935976
vt 0.338696 0.935981
vt 0.046919 0.919216
vt 0.043173 0.802820
vt 0.043190 0.674295
vt 0.046918 0.557900
vt 0.062388 0.547218
vt 0.172958 0.541142
vt 0.338695 0.541131
vt 0.449111 0.547196
vt 0.463354 0.557837
vt 0.466976 0.674297
vt 0.466959 0.802818
vn -0.754903 0.566681 0.330142
vn -0.905232 -0.102050 0.412482
vn -0.384615 -0.097745 0.917887
vn -0.300215 0.592939 0.747191
vn -0.268202 -0.692744 0.669457
vn -0.677840 -0.673640 0.294521
vn -0.068593 0.981662 0.177860
vn -0.049105 0.998519 0.023422
vn -0.351582 0.936020 0.016002
vn -0.286770 0.950789 0.117317
vn -0.286748 0.950795 -0.117319
vn -0.351566 0.936026 -0.016000
vn -0.049104 0.998519 -0.023421
vn -0.068592 0.981662 -0.177862
vn -0.300209 0.592971 -0.747168
vn -0.384615 -0.097711 -0.917891
vn -0.905246 -0.101959 -0.412473
vn -0.754892 0.566710 -0.330118
vn -0.677855 -0.673622 -0.294527
vn -0.268196 -0.692748 -0.669455
vn -0.057947 -0.986861 -0.150825
vn -0.041603 -0.998899 -0.021682
vn -0.304399 -0.952418 -0.015501
vn -0.246191 -0.963981 -0.100649
vn -0.246202 -0.963978 0.100649
vn -0.304406 -0.952416 0.015502
vn -0.041603 -0.998899 0.021682
vn -0.057948 -0.986861 0.150826
vn 0.915649 -0.101241 -0.389022
vn 0.764890 0.562863 -0.313254
vn 0.876320 0.481614 -0.010556
vn 0.996666 -0.080779 -0.011438
vn 0.996672 -0.080715 0.011438
vn 0.876304 0.481643 0.010555
vn 0.764883 0.562867 0.313265
vn 0.915652 -0.101203 0.389024
vn 0.687459 -0.670159 0.279798
vn 0.809668 -0.586791 0.010683
vn 0.809650 -0.586816 -0.010682
vn 0.687435 -0.670185 -0.279794
vn -0.996658 -0.080810 -0.011950
vn -0.876278 0.481680 -0.011000
vn -0.809582 -0.586902 -0.011091
vn -0.996655 -0.080842 0.011948
vn -0.809566 -0.586924 0.011091
vn -0.876272 0.481692 0.010997
vn -0.108479 -0.941531 -0.318986
vn -0.382025 -0.911897 -0.150005
vn -0.554075 -0.832409 0.009856
vn -0.382040 -0.911890 0.150006
vn -0.554063 -0.832416 -0.009855
vn -0.108482 -0.941531 0.318985
vn 0.554928 -0.831843 -0.009596
vn 0.307340 -0.951476 -0.015339
vn 0.250738 -0.962991 -0.098885
vn 0.387774 -0.910217 -0.145388
vn 0.554927 -0.831844 0.009596
vn 0.387776 -0.910215 0.145389
vn 0.250737 -0.962992 0.098882
vn 0.307339 -0.951476 0.015339
vn 0.292038 0.949451 0.115141
vn 0.354923 0.934762 0.015809
vn 0.051878 0.998380 0.023378
vn 0.072340 0.981643 0.176479
vn 0.072339 0.981642 -0.176480
vn 0.051878 0.998380 -0.023379
vn 0.354923 0.934762 -0.015809
vn 0.292037 0.949450 -0.115144
vn 0.407576 -0.098896 -0.907800
vn 0.317293 0.596519 -0.737218
vn 0.282922 -0.696253 -0.659687
vn 0.114319 -0.942149 -0.315098
vn 0.061090 -0.986845 -0.149685
vn 0.043924 -0.998800 -0.021648
vn 0.061090 -0.986845 0.149683
vn 0.043924 -0.998800 0.021648
vn 0.114323 -0.942147 0.315102
vn 0.282923 -0.696262 0.659677
vn 0.317298 0.596491 0.737238
vn 0.407574 -0.098947 0.907796
vn 0.006891 0.999634 0.026163
vn 0.008761 0.980923 0.194200
vn 0.006891 0.999634 -0.026163
vn 0.008761 0.980923 -0.194198
vn -0.006883 0.999634 -0.026165
vn -0.008753 0.980919 -0.194221
vn -0.006883 0.999634 0.026165
vn -0.008753 0.980918 0.194223
vn -0.024419 0.561172 -0.827339
vn -0.029112 -0.078201 -0.996513
vn 0.029141 -0.078202 -0.996512
vn 0.024440 0.561234 -0.827296
vn 0.022729 -0.654064 -0.756098
vn -0.022710 -0.654007 -0.756147
vn -0.011947 -0.931713 -0.362998
vn 0.011955 -0.931734 -0.362944
vn 0.008077 -0.986394 -0.164199
vn -0.008070 -0.986391 -0.164217
vn -0.006548 -0.999693 -0.023900
vn 0.006554 -0.999693 -0.023899
vn 0.006554 -0.999693 0.023899
vn 0.008077 -0.986394 0.164200
vn -0.006548 -0.999693 0.023900
vn -0.008069 -0.986391 0.164219
vn -0.011946 -0.931713 0.362999
vn 0.011955 -0.931733 0.362946
vn 0.022728 -0.654083 0.756081
vn -0.022709 -0.654012 0.756143
vn -0.029114 -0.078204 0.996512
vn -0.024421 0.561175 0.827337
vn 0.029142 -0.078243 0.996508
vn 0.024442 0.561225 0.827302
vn 0.445495 0.879144 0.169233
vn 0.133700 0.919537 0.369563
vn -0.126804 0.918700 0.374046
vn -0.013207 0.905292 0.424585
vn 0.013216 0.905319 0.424527
vn -0.439014 0.881315 0.174790
vn -0.623924 0.781429 0.009345
vn -0.623921 0.781431 -0.009345
vn -0.439013 0.881314 -0.174793
vn -0.126807 0.918698 -0.374051
vn -0.013206 0.905291 -0.424586
vn 0.013216 0.905319 -0.424528
vn 0.133698 0.919538 -0.369560
vn 0.445494 0.879145 -0.169232
vn 0.624768 0.780758 -0.009051
vn 0.624768 0.780758 0.009051
s 1
g polySurface1283
f 28/1/1 44/2/2 43/3/3 27/4/4
f 19/5/5 43/6/3 44/7/2 20/8/6
f 13/9/7 88/10/8 85/11/9 3/12/10
f 5/13/11 86/14/12 87/15/13 14/16/14
f 30/17/15 54/18/16 53/19/17 29/20/18
f 21/21/19 53/22/17 54/18/16 22/23/20
f 15/24/21 92/25/22 89/26/23 7/27/24
f 1/28/25 90/29/26 91/30/27 16/31/28
f 56/32/29 32/33/30 94/34/31 95/35/32
f 96/36/33 93/37/34 25/38/35 41/39/36
f 41/40/36 17/41/37 98/42/38 96/43/33
f 95/44/32 97/45/39 24/46/40 56/47/29
f 102/48/41 99/49/42 29/20/18 53/19/17
f 53/22/17 21/21/19 104/50/43 102/51/41
f 101/52/44 103/53/45 20/8/6 44/7/2
f 44/2/2 28/1/1 100/54/46 101/55/44
f 21/21/19 22/23/20 46/56/47 45/57/48
f 15/24/21 7/27/24 45/57/48 46/56/47
f 106/58/49 90/29/26 1/28/25 33/59/50
f 33/59/50 20/8/6 103/53/45 106/58/49
f 105/60/51 104/50/43 21/21/19 45/57/48
f 45/57/48 7/27/24 89/26/23 105/60/51
f 1/28/25 16/31/28 40/61/52 33/59/50
f 19/5/5 20/8/6 33/59/50 40/61/52
f 110/62/53 107/63/54 8/64/55 48/65/56
f 48/65/56 24/46/40 97/45/39 110/62/53
f 109/66/57 98/42/38 17/41/37 34/67/58
f 34/67/58 2/68/59 108/69/60 109/66/57
f 4/70/61 112/71/62 113/72/63 9/73/64
f 10/74/65 114/75/66 111/76/67 6/77/68
f 32/33/30 56/32/29 55/78/69 31/79/70
f 23/80/71 55/78/69 56/47/29 24/46/40
f 23/80/71 24/46/40 48/65/56 47/81/72
f 11/82/73 47/81/72 48/65/56 8/64/55
f 11/82/73 8/64/55 107/63/54 115/83/74
f 12/84/75 116/85/76 108/69/60 2/68/59
f 12/84/75 2/68/59 34/67/58 38/86/77
f 18/87/78 38/86/77 34/67/58 17/41/37
f 26/88/79 42/89/80 41/39/36 25/38/35
f 18/87/78 17/41/37 41/40/36 42/90/80
f 113/72/63 123/91/81 57/92/82 9/73/64
f 124/93/83 114/75/66 10/74/65 60/94/84
f 87/15/13 121/95/85 59/96/86 14/16/14
f 122/97/87 88/10/8 13/9/7 58/98/88
f 54/18/16 30/17/15 62/99/89 63/100/90
f 64/101/91 61/102/92 31/79/70 55/78/69
f 55/78/69 23/80/71 66/103/93 64/101/91
f 63/100/90 65/104/94 22/23/20 54/18/16
f 46/56/47 22/23/20 65/104/94 67/105/95
f 68/106/96 66/103/93 23/80/71 47/81/72
f 47/81/72 11/82/73 70/107/97 68/106/96
f 67/105/95 69/108/98 15/24/21 46/56/47
f 126/109/99 92/25/22 15/24/21 69/108/98
f 115/83/74 127/110/100 70/107/97 11/82/73
f 128/111/101 116/85/76 12/84/75 72/112/102
f 91/30/27 125/113/103 71/114/104 16/31/28
f 40/61/52 16/31/28 71/114/104 73/115/105
f 74/116/106 72/112/102 12/84/75 38/86/77
f 38/86/77 18/87/78 76/117/107 74/116/106
f 73/115/105 75/118/108 19/5/5 40/61/52
f 80/119/109 77/120/110 27/4/4 43/3/3
f 43/6/3 19/5/5 75/118/108 80/121/109
f 79/122/111 76/117/107 18/87/78 42/90/80
f 42/89/80 26/88/79 78/123/112 79/124/111
f 26/88/79 25/38/35 49/125/113 50/126/114
f 4/70/61 9/73/64 50/126/114 49/125/113
f 51/127/115 27/4/4 77/120/110 81/128/116
f 82/129/117 78/123/112 26/88/79 50/126/114
f 50/126/114 9/73/64 57/92/82 82/129/117
f 81/128/116 58/98/88 13/9/7 51/127/115
f 28/1/1 27/4/4 51/127/115 52/130/118
f 13/9/7 3/12/10 52/130/118 51/127/115
f 118/131/119 100/54/46 28/1/1 52/130/118
f 52/130/118 3/12/10 85/11/9 118/131/119
f 117/132/120 86/14/12 5/13/11 35/133/121
f 35/133/121 29/20/18 99/49/42 117/132/120
f 5/13/11 14/16/14 39/134/122 35/133/121
f 30/17/15 29/20/18 35/133/121 39/134/122
f 84/135/123 62/99/89 30/17/15 39/134/122
f 39/134/122 14/16/14 59/96/86 84/135/123
f 83/136/124 60/94/84 10/74/65 37/137/125
f 37/137/125 31/79/70 61/102/92 83/136/124
f 32/33/30 31/79/70 37/137/125 36/138/126
f 10/74/65 6/77/68 36/138/126 37/137/125
f 120/139/127 94/34/31 32/33/30 36/138/126
f 36/138/126 6/77/68 111/76/67 120/139/127
f 119/140/128 112/71/62 4/70/61 49/125/113
f 49/125/113 25/38/35 93/37/34 119/140/128
f 57/92/82 58/98/88 81/128/116 82/129/117
f 58/98/88 57/92/82 123/91/81 122/97/87
f 121/95/85 124/93/83 60/94/84 59/96/86
f 59/96/86 60/94/84 83/136/124 84/135/123
f 61/102/92 62/99/89 84/135/123 83/136/124
f 62/99/89 61/102/92 64/101/91 63/100/90
f 63/100/90 64/101/91 66/103/93 65/104/94
f 65/104/94 66/103/93 68/106/96 67/105/95
f 67/105/95 68/106/96 70/107/97 69/108/98
f 69/108/98 70/107/97 127/110/100 126/109/99
f 125/113/103 128/111/101 72/112/102 71/114/104
f 71/114/104 72/112/102 74/116/106 73/115/105
f 73/115/105 74/116/106 76/117/107 75/118/108
f 75/118/108 76/117/107 79/122/111 80/121/109
f 77/120/110 78/123/112 82/129/117 81/128/116
f 78/123/112 77/120/110 80/119/109 79/124/111
f 85/11/9 86/14/12 117/132/120 118/131/119
f 86/14/12 85/11/9 88/10/8 87/15/13
f 87/15/13 88/10/8 122/97/87 121/95/85
f 89/26/23 90/29/26 106/58/49 105/60/51
f 90/29/26 89/26/23 92/25/22 91/30/27
f 91/30/27 92/25/22 126/109/99 125/113/103
f 93/37/34 94/34/31 120/139/127 119/140/128
f 94/34/31 93/37/34 96/36/33 95/35/32
f 95/44/32 96/43/33 98/42/38 97/45/39
f 97/45/39 98/42/38 109/66/57 110/62/53
f 99/49/42 100/54/46 118/131/119 117/132/120
f 100/54/46 99/49/42 102/48/41 101/55/44
f 101/52/44 102/51/41 104/50/43 103/53/45
f 103/53/45 104/50/43 105/60/51 106/58/49
f 107/63/54 108/69/60 116/85/76 115/83/74
f 108/69/60 107/63/54 110/62/53 109/66/57
f 111/76/67 112/71/62 119/140/128 120/139/127
f 112/71/62 111/76/67 114/75/66 113/72/63
f 113/72/63 114/75/66 124/93/83 123/91/81
f 115/83/74 116/85/76 128/111/101 127/110/100
f 121/95/85 122/97/87 123/91/81 124/93/83
f 125/113/103 126/109/99 127/110/100 128/111/101
