# This file uses centimeters as units for non-parametric coordinates.

g default
v -14.072599 -0.004697 0.088975
v -13.579050 -0.004697 0.088975
v -14.072748 0.102227 0.089050
v -13.578901 0.102227 0.089049
v -14.072748 0.102227 -0.089048
v -13.578901 0.102227 -0.089049
v -14.072599 -0.004697 -0.088974
v -13.579050 -0.004697 -0.088974
v -13.601033 0.103124 0.097540
v -13.601033 0.103124 -0.097540
v -13.601114 -0.005425 -0.097448
v -13.601114 -0.005425 0.097449
v -14.049112 0.103124 0.097541
v -14.049112 0.103124 -0.097539
v -14.049031 -0.005425 -0.097447
v -14.049031 -0.005425 0.097449
v -13.525510 0.034059 0.178720
v -13.543529 0.034118 0.196886
v -14.106162 0.034118 0.196887
v -14.126170 0.034059 0.178720
v -14.126170 0.034059 -0.178719
v -14.106162 0.034118 -0.196886
v -13.543529 0.034118 -0.196887
v -13.525510 0.034059 -0.178719
v -13.523879 0.054705 0.180150
v -13.541943 0.054669 0.198364
v -14.107735 0.054669 0.198364
v -14.127800 0.054705 0.180150
v -14.127800 0.054705 -0.180150
v -14.107735 0.054669 -0.198364
v -13.541943 0.054669 -0.198364
v -13.523879 0.054705 -0.180150
v -14.100187 0.014117 0.144875
v -13.551497 0.014117 0.144874
v -14.101152 0.079095 -0.145636
v -13.550529 0.079095 -0.145637
v -13.570101 0.079227 -0.160206
v -13.570973 0.014032 0.159374
v -14.079806 0.079227 -0.160205
v -14.078940 0.014032 0.159374
v -13.522208 0.044186 0.180634
v -13.541525 0.044202 0.199988
v -14.108149 0.044202 0.199988
v -14.129460 0.044186 0.180634
v -14.100187 0.014117 -0.144873
v -14.078940 0.014032 -0.159373
v -13.570973 0.014032 -0.159373
v -13.551497 0.014117 -0.144873
v -13.550529 0.079095 0.145637
v -13.570101 0.079227 0.160206
v -14.079806 0.079227 0.160207
v -14.101152 0.079095 0.145638
v -14.129460 0.044186 -0.180634
v -14.108149 0.044202 -0.199988
v -13.541525 0.044202 -0.199988
v -13.522208 0.044186 -0.180634
v -13.718772 0.104360 0.101450
v -13.931248 0.104360 0.101450
v -13.931248 0.104360 -0.101449
v -13.718772 0.104360 -0.101449
v -13.716018 0.054776 -0.208511
v -13.933494 0.054776 -0.208511
v -13.934729 0.044090 -0.210125
v -13.714751 0.044090 -0.210125
v -13.933470 0.033790 -0.206934
v -13.716058 0.033790 -0.206935
v -13.932886 0.013296 -0.167469
v -13.716888 0.013296 -0.167470
v -13.931211 -0.006639 -0.101360
v -13.718809 -0.006639 -0.101360
v -13.931211 -0.006639 0.101361
v -13.718809 -0.006639 0.101361
v -13.932886 0.013296 0.167470
v -13.716888 0.013296 0.167471
v -13.933470 0.033790 0.206935
v -13.716058 0.033790 0.206935
v -13.933494 0.054776 0.208511
v -13.716018 0.054776 0.208511
v -13.714751 0.044090 0.210125
v -13.934729 0.044090 0.210125
v -13.932950 0.079858 0.168352
v -13.716814 0.079858 0.168353
v -13.716814 0.079858 -0.168353
v -13.932950 0.079858 -0.168353
v -14.071233 0.105564 0.003699
v -14.046492 0.108024 0.003622
v -14.071114 -0.007895 0.003664
v -14.046454 -0.009919 0.003608
v -13.519885 0.054972 0.005862
v -13.518364 0.043905 0.006841
v -13.521557 0.033240 0.005833
v -14.131968 0.054971 0.005862
v -14.133490 0.043905 0.006842
v -14.130297 0.033240 0.005834
v -14.102569 0.012168 0.002207
v -13.580597 -0.007895 0.003664
v -13.549254 0.012168 0.002207
v -13.580479 0.105564 0.003699
v -13.603692 0.108024 0.003622
v -13.603729 -0.009919 0.003608
v -14.103542 0.080813 0.002263
v -13.548280 0.080813 0.002262
v -13.929271 0.109783 0.003864
v -13.720785 0.109783 0.003863
v -13.929272 -0.011581 0.003849
v -13.720785 -0.011582 0.003849
vt 0.522092 0.363929
vt 0.515626 0.347237
vt 0.536607 0.335116
vt 0.537723 0.350684
vt 0.538628 0.320292
vt 0.517262 0.316165
vt 0.523716 0.307425
vt 0.583427 0.422171
vt 0.585208 0.484756
vt 0.568735 0.484718
vt 0.567678 0.427485
vt 0.583499 0.552288
vt 0.567752 0.546963
vt 0.537699 0.623791
vt 0.536597 0.630110
vt 0.515590 0.611216
vt 0.521971 0.610370
vt 0.523709 0.061899
vt 0.517217 0.052449
vt 0.536586 0.039939
vt 0.538615 0.049002
vt 0.566960 0.124626
vt 0.583139 0.119180
vt 0.584793 0.187116
vt 0.567942 0.187137
vt 0.566894 0.244655
vt 0.583079 0.250097
vt 0.989068 0.611045
vt 0.982628 0.610522
vt 0.987251 0.483257
vt 0.994428 0.482540
vt 0.982517 0.363801
vt 0.989027 0.347310
vt 0.987308 0.316100
vt 0.980885 0.307460
vt 0.984619 0.188608
vt 0.991686 0.189330
vt 0.980892 0.061858
vt 0.987350 0.052514
vt 0.510007 0.482533
vt 0.517190 0.483262
vt 0.519793 0.188609
vt 0.512722 0.189331
vt 0.559827 0.076664
vt 0.545282 0.085796
vt 0.542731 0.186114
vt 0.545253 0.283479
vt 0.559814 0.292618
vt 0.937598 0.124596
vt 0.959293 0.085753
vt 0.961723 0.186112
vt 0.936553 0.187135
vt 0.959321 0.283524
vt 0.937664 0.244686
vt 0.936933 0.427452
vt 0.935853 0.484718
vt 0.920408 0.484756
vt 0.922254 0.422150
vt 0.936863 0.546995
vt 0.922180 0.552310
vt 0.969412 0.630069
vt 0.968344 0.623737
vt 0.967373 0.049009
vt 0.969439 0.039953
vt 0.946038 0.076675
vt 0.922537 0.119167
vt 0.920845 0.187111
vt 0.922596 0.250113
vt 0.946050 0.292610
vt 0.967361 0.320290
vt 0.968322 0.350730
vt 0.969410 0.335116
vt 0.832909 0.484579
vt 0.834394 0.420062
vt 0.834375 0.554396
vt 0.671437 0.554401
vt 0.672873 0.484597
vt 0.671419 0.420046
vt 0.669722 0.632680
vt 0.668664 0.639148
vt 0.837577 0.639160
vt 0.836495 0.632682
vt 0.836430 0.040439
vt 0.837578 0.034095
vt 0.668635 0.034096
vt 0.669745 0.040455
vt 0.670157 0.070286
vt 0.835820 0.070283
vt 0.834497 0.116885
vt 0.671284 0.116865
vt 0.672678 0.187300
vt 0.833073 0.187279
vt 0.834514 0.252406
vt 0.671268 0.252414
vt 0.670153 0.298981
vt 0.835824 0.298991
vt 0.836429 0.328827
vt 0.669743 0.328826
vt 0.668644 0.335217
vt 0.669723 0.341791
vt 0.837576 0.335271
vt 0.836497 0.341780
vt 0.959445 0.388281
vt 0.946281 0.379437
vt 0.559580 0.379439
vt 0.670238 0.373230
vt 0.835776 0.373226
vt 0.545204 0.388335
vt 0.542089 0.485716
vt 0.545232 0.586145
vt 0.559581 0.595018
vt 0.670243 0.601234
vt 0.835771 0.601243
vt 0.946282 0.595019
vt 0.959419 0.586196
vt 0.962375 0.485718
vn -0.761221 0.556288 0.333296
vn -0.905526 -0.098341 0.412736
vn -0.384774 -0.094270 0.918184
vn -0.302675 0.583208 0.753828
vn -0.271773 -0.682353 0.678626
vn -0.686943 -0.662405 0.298879
vn -0.071296 0.980203 0.184712
vn -0.045133 0.998979 0.001796
vn -0.357192 0.934030 0.001119
vn -0.296035 0.947359 0.121957
vn -0.071164 0.980544 -0.182945
vn -0.295945 0.947575 -0.120492
vn -0.302677 0.583218 -0.753820
vn -0.384781 -0.094306 -0.918177
vn -0.905919 -0.098314 -0.411881
vn -0.762069 0.555484 -0.332700
vn -0.687963 -0.661621 -0.298269
vn -0.271768 -0.682389 -0.678592
vn -0.254583 -0.961517 -0.103310
vn -0.060135 -0.986059 -0.155153
vn -0.038509 -0.999257 0.001656
vn -0.309885 -0.950774 0.001065
vn -0.254704 -0.961333 0.104712
vn -0.060274 -0.985791 0.156790
vn 0.916292 -0.097598 -0.388437
vn 0.772100 0.551539 -0.315701
vn 0.880810 0.473469 0.000625
vn 0.996905 -0.078610 0.000776
vn 0.771296 0.552336 0.316272
vn 0.915945 -0.097628 0.389248
vn 0.696669 -0.658813 0.283932
vn 0.816112 -0.577893 0.000631
vn 0.697652 -0.658021 -0.283355
vn -0.996907 -0.078585 0.000811
vn -0.880739 0.473601 0.000651
vn -0.816044 -0.577990 0.000655
vn -0.112456 -0.937060 -0.330565
vn -0.394941 -0.905501 -0.155208
vn -0.568205 -0.822887 0.000487
vn -0.394344 -0.905680 0.155680
vn -0.112457 -0.937058 0.330570
vn 0.259258 -0.960462 -0.101477
vn 0.400824 -0.903723 -0.150413
vn 0.569021 -0.822323 0.000475
vn 0.312602 -0.949884 0.001056
vn 0.400249 -0.903902 0.150872
vn 0.259398 -0.960276 0.102870
vn 0.301495 0.945926 0.119690
vn 0.360275 0.932845 0.001108
vn 0.047679 0.998861 0.001792
vn 0.075195 0.980180 0.183283
vn 0.301384 0.946144 -0.118237
vn 0.075054 0.980519 -0.181518
vn 0.407777 -0.095431 -0.908081
vn 0.319949 0.586718 -0.743905
vn 0.286783 -0.685863 -0.668841
vn 0.118522 -0.937717 -0.326555
vn 0.063397 -0.986040 -0.153967
vn 0.040644 -0.999172 0.001654
vn 0.063545 -0.985774 0.155604
vn 0.118523 -0.937716 0.326560
vn 0.286776 -0.685871 0.668835
vn 0.319952 0.586714 0.743907
vn 0.407776 -0.095455 0.908079
vn 0.006808 0.999975 0.001984
vn 0.009108 0.979413 0.201661
vn 0.009068 0.979812 -0.199716
vn -0.009060 0.979808 -0.199737
vn -0.006801 0.999975 0.001984
vn -0.009099 0.979409 0.201684
vn -0.024628 0.550985 -0.834151
vn -0.029121 -0.075424 -0.996726
vn 0.029150 -0.075426 -0.996725
vn 0.024649 0.551040 -0.834115
vn 0.023019 -0.643256 -0.765305
vn -0.022999 -0.643205 -0.765348
vn -0.012372 -0.926598 -0.375851
vn 0.012380 -0.926620 -0.375795
vn 0.008366 -0.985599 -0.168895
vn -0.008358 -0.985595 -0.168915
vn -0.006514 -0.999977 0.001807
vn 0.006520 -0.999977 0.001808
vn 0.008403 -0.985291 0.170676
vn -0.008395 -0.985288 0.170697
vn -0.012371 -0.926596 0.375854
vn 0.012381 -0.926618 0.375801
vn 0.023020 -0.643254 0.765306
vn -0.022999 -0.643183 0.765367
vn -0.029121 -0.075419 0.996727
vn -0.024627 0.550971 0.834161
vn 0.029151 -0.075447 0.996724
vn 0.024650 0.551029 0.834122
vn 0.458610 0.871168 0.175337
vn 0.138361 0.913633 0.382272
vn -0.131224 0.912742 0.386889
vn -0.013646 0.898541 0.438677
vn 0.013657 0.898569 0.438619
vn -0.451972 0.873451 0.181120
vn -0.638360 0.769738 0.000465
vn -0.452499 0.873270 -0.180677
vn -0.131227 0.912742 -0.386888
vn -0.013647 0.898541 -0.438677
vn 0.013657 0.898569 -0.438621
vn 0.138360 0.913632 -0.382273
vn 0.459104 0.870995 -0.174905
vn 0.639152 0.769080 0.000451
s 1
g polySurface1282
f 28/1/1 44/2/2 43/3/3 27/4/4
f 19/5/5 43/3/3 44/6/2 20/7/6
f 13/8/7 86/9/8 85/10/9 3/11/10
f 14/12/11 5/13/12 85/10/9 86/9/8
f 30/14/13 54/15/14 53/16/15 29/17/16
f 21/18/17 53/19/15 54/20/14 22/21/18
f 7/22/19 15/23/20 88/24/21 87/25/22
f 1/26/23 87/25/22 88/24/21 16/27/24
f 56/28/25 32/29/26 89/30/27 90/31/28
f 90/31/28 89/30/27 25/32/29 41/33/30
f 41/34/30 17/35/31 91/36/32 90/37/28
f 24/38/33 56/39/25 90/37/28 91/36/32
f 29/17/16 53/16/15 93/40/34 92/41/35
f 53/19/15 21/18/17 94/42/36 93/43/34
f 93/43/34 94/42/36 20/7/6 44/6/2
f 44/2/2 28/1/1 92/41/35 93/40/34
f 21/18/17 22/21/18 46/44/37 45/45/38
f 15/23/20 7/22/19 45/45/38 46/44/37
f 95/46/39 87/25/22 1/26/23 33/47/40
f 33/47/40 20/7/6 94/42/36 95/46/39
f 21/18/17 45/45/38 95/46/39 94/42/36
f 45/45/38 7/22/19 87/25/22 95/46/39
f 1/26/23 16/27/24 40/48/41 33/47/40
f 19/5/5 20/7/6 33/47/40 40/48/41
f 8/49/42 48/50/43 97/51/44 96/52/45
f 48/50/43 24/38/33 91/36/32 97/51/44
f 97/51/44 91/36/32 17/35/31 34/53/46
f 34/53/46 2/54/47 96/52/45 97/51/44
f 4/55/48 98/56/49 99/57/50 9/58/51
f 6/59/52 10/60/53 99/57/50 98/56/49
f 32/29/26 56/28/25 55/61/54 31/62/55
f 23/63/56 55/64/54 56/39/25 24/38/33
f 23/63/56 24/38/33 48/50/43 47/65/57
f 11/66/58 47/65/57 48/50/43 8/49/42
f 11/66/58 8/49/42 96/52/45 100/67/59
f 12/68/60 100/67/59 96/52/45 2/54/47
f 12/68/60 2/54/47 34/53/46 38/69/61
f 18/70/62 38/69/61 34/53/46 17/35/31
f 26/71/63 42/72/64 41/33/30 25/32/29
f 18/70/62 17/35/31 41/34/30 42/72/64
f 99/57/50 104/73/65 57/74/66 9/58/51
f 10/60/53 60/75/67 104/73/65 99/57/50
f 59/76/68 14/12/11 86/9/8 103/77/69
f 103/77/69 86/9/8 13/8/7 58/78/70
f 54/15/14 30/14/13 62/79/71 63/80/72
f 64/81/73 61/82/74 31/62/55 55/61/54
f 55/64/54 23/63/56 66/83/75 64/84/73
f 63/85/72 65/86/76 22/21/18 54/20/14
f 46/44/37 22/21/18 65/86/76 67/87/77
f 68/88/78 66/83/75 23/63/56 47/65/57
f 47/65/57 11/66/58 70/89/79 68/88/78
f 67/87/77 69/90/80 15/23/20 46/44/37
f 15/23/20 69/90/80 105/91/81 88/24/21
f 70/89/79 11/66/58 100/67/59 106/92/82
f 106/92/82 100/67/59 12/68/60 72/93/83
f 88/24/21 105/91/81 71/94/84 16/27/24
f 40/48/41 16/27/24 71/94/84 73/95/85
f 74/96/86 72/93/83 12/68/60 38/69/61
f 38/69/61 18/70/62 76/97/87 74/96/86
f 73/95/85 75/98/88 19/5/5 40/48/41
f 80/99/89 77/100/90 27/4/4 43/3/3
f 43/3/3 19/5/5 75/98/88 80/99/89
f 79/101/91 76/97/87 18/70/62 42/72/64
f 42/72/64 26/71/63 78/102/92 79/101/91
f 26/71/63 25/32/29 49/103/93 50/104/94
f 4/55/48 9/58/51 50/104/94 49/103/93
f 51/105/95 27/4/4 77/100/90 81/106/96
f 82/107/97 78/102/92 26/71/63 50/104/94
f 50/104/94 9/58/51 57/74/66 82/107/97
f 81/106/96 58/78/70 13/8/7 51/105/95
f 28/1/1 27/4/4 51/105/95 52/108/98
f 13/8/7 3/11/10 52/108/98 51/105/95
f 101/109/99 92/41/35 28/1/1 52/108/98
f 52/108/98 3/11/10 85/10/9 101/109/99
f 5/13/12 35/110/100 101/109/99 85/10/9
f 35/110/100 29/17/16 92/41/35 101/109/99
f 5/13/12 14/12/11 39/111/101 35/110/100
f 30/14/13 29/17/16 35/110/100 39/111/101
f 84/112/102 62/79/71 30/14/13 39/111/101
f 39/111/101 14/12/11 59/76/68 84/112/102
f 83/113/103 60/75/67 10/60/53 37/114/104
f 37/114/104 31/62/55 61/82/74 83/113/103
f 32/29/26 31/62/55 37/114/104 36/115/105
f 10/60/53 6/59/52 36/115/105 37/114/104
f 32/29/26 36/115/105 102/116/106 89/30/27
f 36/115/105 6/59/52 98/56/49 102/116/106
f 102/116/106 98/56/49 4/55/48 49/103/93
f 49/103/93 25/32/29 89/30/27 102/116/106
f 57/74/66 58/78/70 81/106/96 82/107/97
f 58/78/70 57/74/66 104/73/65 103/77/69
f 60/75/67 59/76/68 103/77/69 104/73/65
f 59/76/68 60/75/67 83/113/103 84/112/102
f 61/82/74 62/79/71 84/112/102 83/113/103
f 62/79/71 61/82/74 64/81/73 63/80/72
f 63/85/72 64/84/73 66/83/75 65/86/76
f 65/86/76 66/83/75 68/88/78 67/87/77
f 67/87/77 68/88/78 70/89/79 69/90/80
f 69/90/80 70/89/79 106/92/82 105/91/81
f 105/91/81 106/92/82 72/93/83 71/94/84
f 71/94/84 72/93/83 74/96/86 73/95/85
f 73/95/85 74/96/86 76/97/87 75/98/88
f 75/98/88 76/97/87 79/101/91 80/99/89
f 77/100/90 78/102/92 82/107/97 81/106/96
f 78/102/92 77/100/90 80/99/89 79/101/91
