# This file uses centimeters as units for non-parametric coordinates.

v -0.000001 0.885103 0.000742
v -0.048121 0.576866 0.000742
v -0.027154 0.554649 0.007703
v -0.016203 0.510544 0.007703
v -0.042041 0.499383 0.007703
v -0.045081 0.528261 0.000742
v -0.153120 0.585359 0.000742
v -0.085954 0.479827 0.000742
v -0.051839 0.478618 0.007703
v -0.016203 0.434074 0.007703
v -0.010124 0.387433 0.007703
v -0.000001 0.387377 0.006476
v -0.056910 0.515804 0.007703
v -0.132472 0.565476 0.007703
v -0.075577 0.494031 0.007703
v -0.000001 0.566821 0.002478
v -0.000001 0.516812 0.002478
v -0.000001 0.428171 0.006476
v -0.000001 0.824960 0.010493
v -0.075577 0.494031 -0.006219
v -0.056910 0.515804 -0.006219
v -0.132472 0.565476 -0.006219
v -0.000001 0.824960 -0.009009
v -0.027154 0.554649 -0.006220
v -0.000001 0.566821 -0.000981
v -0.042041 0.499383 -0.006220
v -0.051839 0.478618 -0.006219
v -0.016203 0.510544 -0.006220
v -0.016203 0.434074 -0.006220
v -0.010124 0.387433 -0.006220
v -0.000001 0.516812 -0.000981
v -0.000001 0.428171 -0.004993
v -0.000001 0.387377 -0.004993
v 0.075575 0.494031 0.007703
v 0.056908 0.515804 0.007703
v 0.132470 0.565476 0.007703
v 0.027152 0.554649 0.007703
v 0.042039 0.499383 0.007703
v 0.045079 0.528261 0.000742
v 0.153119 0.585359 0.000742
v 0.085952 0.479827 0.000742
v 0.051836 0.478618 0.007703
v 0.016201 0.510544 0.007703
v 0.016201 0.434074 0.007703
v 0.010122 0.387433 0.007703
v 0.048119 0.576866 0.000742
v 0.075575 0.494031 -0.006219
v 0.132470 0.565476 -0.006219
v 0.056908 0.515804 -0.006219
v 0.027152 0.554649 -0.006219
v 0.042039 0.499383 -0.006219
v 0.051836 0.478618 -0.006219
v 0.016201 0.510544 -0.006220
v 0.016201 0.434074 -0.006220
v 0.010122 0.387433 -0.006220
v -0.048121 0.747227 0.000742
v -0.000001 0.747535 0.002479
v -0.026954 0.747535 0.010493
v -0.026954 0.747535 -0.009009
v -0.000001 0.747535 -0.001011
v 0.026952 0.747535 0.010493
v 0.048119 0.747227 0.000742
v 0.026952 0.747535 -0.009009
v 0.016256 0.422718 -0.016256
v -0.000001 0.422718 -0.022990
v -0.016257 0.422718 -0.016256
v -0.022991 0.422718 -0.000000
v -0.016257 0.422718 0.016256
v -0.000001 0.422718 0.022989
v 0.016256 0.422718 0.016256
v 0.022989 0.422718 -0.000000
v 0.018549 0.441028 -0.018551
v -0.000001 0.441028 -0.026235
v -0.018551 0.441028 -0.018551
v -0.026234 0.441028 -0.000000
v -0.018551 0.441028 0.018550
v -0.000001 0.441028 0.026234
v 0.018549 0.441028 0.018550
v 0.026233 0.441028 -0.000000
v -0.000001 0.436998 -0.000000
v -0.000001 0.431901 0.023783
v -0.016818 0.431901 0.016817
v -0.023784 0.431901 -0.000000
v -0.016818 0.431901 -0.016818
v -0.000001 0.431901 -0.023784
v 0.016817 0.431901 -0.016818
v 0.023782 0.431901 -0.000000
v 0.016817 0.431901 0.016817
v 0.020483 0.436572 0.020483
v -0.000001 0.436572 0.028968
v -0.020484 0.436572 0.020483
v -0.028969 0.436572 -0.000000
v -0.020484 0.436572 -0.020484
v -0.000001 0.436572 -0.028969
v 0.020483 0.436572 -0.020484
v 0.028968 0.436572 -0.000000
v 0.019487 0.427038 0.019488
v -0.000001 0.427038 0.027561
v -0.019489 0.427038 0.019488
v -0.027562 0.427038 -0.000000
v -0.019489 0.427038 -0.019489
v -0.000001 0.427038 -0.027561
v 0.019487 0.427038 -0.019489
v 0.027560 0.427038 -0.000000
v 0.013491 0.368658 -0.013491
v -0.000001 0.368658 -0.019079
v -0.013492 0.368658 -0.013491
v -0.019080 0.368658 -0.000000
v -0.013492 0.368658 0.013491
v -0.000001 0.368658 0.019079
v 0.013491 0.368658 0.013491
v 0.019079 0.368658 -0.000000
v 0.013765 0.386686 -0.013766
v -0.000001 0.386686 -0.019467
v -0.013766 0.386686 -0.013766
v -0.019468 0.386686 -0.000000
v -0.013766 0.386686 0.013765
v -0.000001 0.386686 0.019467
v 0.013765 0.386686 0.013765
v 0.019466 0.386686 -0.000000
v -0.000001 0.369360 -0.000000
v -0.000001 0.377692 0.019006
v -0.013440 0.377692 0.013439
v -0.019007 0.377692 -0.000000
v -0.013440 0.377692 -0.013440
v -0.000001 0.377692 -0.019007
v 0.013439 0.377692 -0.013440
v 0.019006 0.377692 -0.000000
v 0.013439 0.377692 0.013439
v 0.015914 0.382313 0.015914
v -0.000001 0.382313 0.022506
v -0.015915 0.382313 0.015914
v -0.022507 0.382313 -0.000000
v -0.015915 0.382313 -0.015915
v -0.000001 0.382313 -0.022506
v 0.015914 0.382313 -0.015915
v 0.022506 0.382313 -0.000000
v 0.016052 0.372880 0.016052
v -0.000001 0.372880 0.022701
v -0.016052 0.372880 0.016052
v -0.022702 0.372880 -0.000000
v -0.016052 0.372880 -0.016052
v -0.000001 0.372880 -0.022702
v 0.016052 0.372880 -0.016052
v 0.022700 0.372880 -0.000000
v 0.014782 0.404627 -0.014783
v -0.000001 0.404627 -0.020906
v -0.014783 0.404627 -0.014783
v -0.020906 0.404627 -0.000000
v -0.014783 0.404627 0.014783
v -0.000001 0.404627 0.020906
v 0.014782 0.404627 0.014783
v 0.020905 0.404627 -0.000000
v -0.000001 0.413542 0.021121
v -0.014936 0.413542 0.014935
v -0.021122 0.413542 -0.000000
v -0.014936 0.413542 -0.014936
v -0.000001 0.413542 -0.021122
v 0.014935 0.413542 -0.014936
v 0.021122 0.413542 -0.000000
v 0.014935 0.413542 0.014935
v 0.018243 0.418208 0.018244
v -0.000001 0.418208 0.025801
v -0.018244 0.418208 0.018244
v -0.025801 0.418208 -0.000000
v -0.018244 0.418208 -0.018244
v -0.000001 0.418208 -0.025801
v 0.018243 0.418208 -0.018244
v 0.025800 0.418208 -0.000000
v 0.017517 0.408780 0.017518
v -0.000001 0.408780 0.024774
v -0.017519 0.408780 0.017518
v -0.024775 0.408780 -0.000000
v -0.017519 0.408780 -0.017519
v -0.000001 0.408780 -0.024775
v 0.017517 0.408780 -0.017519
v 0.024773 0.408780 -0.000000
v -0.000001 0.395716 0.019701
v -0.013932 0.395716 0.013930
v -0.019702 0.395716 -0.000000
v -0.013932 0.395716 -0.013931
v -0.000001 0.395716 -0.019701
v 0.013930 0.395716 -0.013931
v 0.019700 0.395716 -0.000000
v 0.013930 0.395716 0.013930
v 0.016800 0.400290 0.016800
v -0.000001 0.400290 0.023760
v -0.016802 0.400290 0.016800
v -0.023761 0.400290 -0.000000
v -0.016802 0.400290 -0.016801
v -0.000001 0.400290 -0.023761
v 0.016800 0.400290 -0.016801
v 0.023759 0.400290 -0.000000
v 0.016318 0.390953 0.016318
v -0.000001 0.390953 0.023077
v -0.016319 0.390953 0.016318
v -0.023078 0.390953 -0.000000
v -0.016319 0.390953 -0.016319
v -0.000001 0.390953 -0.023078
v 0.016318 0.390953 -0.016319
v 0.023077 0.390953 -0.000000
v 0.011408 -0.852116 -0.011409
v -0.000001 -0.852116 -0.016135
v -0.011409 -0.852116 -0.011409
v -0.016135 -0.852116 -0.000000
v -0.011409 -0.852116 0.011408
v -0.000001 -0.852116 0.016134
v 0.011408 -0.852116 0.011408
v 0.016134 -0.852116 -0.000000
v 0.013206 -0.807518 -0.013207
v -0.000001 -0.807518 -0.018677
v -0.013207 -0.807518 -0.013207
v -0.018678 -0.807518 -0.000000
v -0.013207 -0.807518 0.013206
v -0.000001 -0.807518 0.018677
v 0.013206 -0.807518 0.013206
v 0.018676 -0.807518 -0.000000
v -0.000001 -0.852634 -0.000000
v -0.000001 -0.820025 -0.000000
v -0.000001 -0.819779 0.019284
v -0.013637 -0.819779 0.013636
v -0.019285 -0.819779 -0.000000
v -0.013637 -0.819779 -0.013636
v -0.000001 -0.819779 -0.019285
v 0.013635 -0.819779 -0.013636
v 0.019284 -0.819779 -0.000000
v 0.013635 -0.819779 0.013636
v 0.016408 -0.813461 0.016408
v -0.000001 -0.813461 0.023205
v -0.016409 -0.813461 0.016408
v -0.023206 -0.813461 -0.000000
v -0.016409 -0.813461 -0.016409
v -0.000001 -0.813461 -0.023206
v 0.016408 -0.813461 -0.016409
v 0.023205 -0.813461 -0.000000
v 0.014175 -0.847482 0.014175
v -0.000001 -0.847482 0.020046
v -0.014176 -0.847482 0.014175
v -0.020047 -0.847482 -0.000000
v -0.014176 -0.847482 -0.014175
v -0.000001 -0.847482 -0.020047
v 0.014175 -0.847482 -0.014175
v 0.020046 -0.847482 -0.000000
v -0.000001 -0.841643 0.017383
v -0.012292 -0.841643 0.012291
v -0.017384 -0.841643 -0.000000
v -0.012292 -0.841643 -0.012292
v -0.000001 -0.841643 -0.017383
v 0.012290 -0.841643 -0.012292
v 0.017382 -0.841643 -0.000000
v 0.012290 -0.841643 0.012291
v 0.017114 -0.515719 -0.017115
v -0.000000 -0.515719 -0.024204
v -0.017115 -0.515719 -0.017115
v -0.024204 -0.515719 -0.000000
v -0.017115 -0.515719 0.017114
v -0.000000 -0.515719 0.024203
v 0.017114 -0.515719 0.017114
v 0.024203 -0.515719 -0.000000
v 0.017114 -0.319253 -0.017115
v -0.000000 -0.319253 -0.024204
v -0.017115 -0.319253 -0.017115
v -0.024204 -0.319253 -0.000000
v -0.017115 -0.319253 0.017114
v -0.000000 -0.319253 0.024203
v 0.017114 -0.319253 0.017114
v 0.024203 -0.319253 -0.000000
v -0.000000 -0.514012 -0.000000
v -0.000001 -0.320967 -0.000000
v 0.018303 -0.507946 -0.018304
v -0.000000 -0.507946 -0.025886
v -0.000000 -0.326794 -0.024992
v 0.017670 -0.326794 -0.017672
v -0.018304 -0.507946 -0.018304
v -0.017673 -0.326794 -0.017672
v -0.025886 -0.507946 -0.000000
v -0.024992 -0.326794 -0.000000
v -0.018304 -0.507946 0.018303
v -0.017673 -0.326794 0.017671
v -0.000000 -0.507946 0.025886
v -0.000000 -0.326794 0.024991
v 0.018303 -0.507946 0.018303
v 0.017670 -0.326794 0.017671
v 0.025885 -0.507946 -0.000000
v 0.024991 -0.326794 -0.000000
v 0.013729 -0.500558 -0.013730
v 0.000000 -0.500558 -0.019417
v 0.000000 -0.332859 -0.019417
v 0.013729 -0.332859 -0.013730
v -0.013730 -0.500558 -0.013730
v -0.013730 -0.332859 -0.013730
v -0.019417 -0.500558 -0.000000
v -0.019417 -0.332859 -0.000000
v -0.013730 -0.500558 0.013729
v -0.013730 -0.332859 0.013729
v -0.000000 -0.500558 0.019416
v -0.000000 -0.332859 0.019416
v 0.013729 -0.500558 0.013729
v 0.013729 -0.332859 0.013729
v 0.019416 -0.500558 -0.000000
v 0.019416 -0.332859 -0.000000
v -0.014148 -0.456337 0.014147
v -0.020007 -0.456337 -0.000000
v -0.014148 -0.456337 -0.014148
v 0.000000 -0.456337 -0.020008
v 0.014147 -0.456337 -0.014148
v 0.020006 -0.456337 -0.000000
v 0.014147 -0.456337 0.014147
v -0.000000 -0.456337 0.020007
v -0.014053 -0.380588 0.014053
v -0.019874 -0.380588 -0.000000
v -0.014053 -0.380588 -0.014053
v 0.000000 -0.380588 -0.019874
v 0.014052 -0.380588 -0.014053
v 0.019873 -0.380588 -0.000000
v 0.014052 -0.380588 0.014053
v -0.000000 -0.380588 0.019873
v 0.012728 -0.816645 -0.012730
v -0.000001 -0.816645 -0.018003
v -0.012730 -0.816645 -0.012730
v -0.018003 -0.816645 -0.000000
v -0.012730 -0.816645 0.012729
v -0.000001 -0.816645 0.018002
v 0.012728 -0.816645 0.012729
v 0.018001 -0.816645 -0.000000
v 0.012728 0.370565 -0.012730
v -0.000001 0.370565 -0.018003
v -0.012730 0.370565 -0.012730
v -0.018003 0.370565 -0.000000
v -0.012730 0.370565 0.012729
v -0.000001 0.370565 0.018002
v 0.012728 0.370565 0.012729
v 0.018001 0.370565 -0.000000
vt 0.885603 0.845986
vt 0.377753 0.672182
vt 0.427911 0.668984
vt 0.357051 0.987445
vt 0.768944 0.776159
vt 0.357051 0.853283
vt 0.426493 0.707806
vt 0.845452 0.649994
vt 0.845452 0.887719
vt 0.843423 0.647131
vt 0.264839 0.660950
vt 0.328229 0.605628
vt 0.308750 0.508111
vt 0.768944 0.513724
vt 0.328229 0.605628
vt 0.282266 0.624967
vt 0.328229 0.738135
vt 0.388726 0.720927
vt 0.328229 0.738136
vt 0.339044 0.818956
vt 0.339044 0.818956
vt 0.711251 0.513724
vt 0.357051 0.508111
vt 0.357051 0.594768
vt 0.357051 0.748364
vt 0.357051 0.819052
vt 0.765812 0.992681
vt 0.711251 0.776159
vt 0.377753 0.672182
vt 0.885603 0.845986
vt 0.427911 0.668984
vt 0.357051 0.987445
vt 0.357051 0.853283
vt 0.768944 0.776159
vt 0.357051 0.508111
vt 0.357051 0.594768
vt 0.357051 0.748364
vt 0.357051 0.819052
vt 0.427719 0.672181
vt 0.885603 0.845738
vt 0.377562 0.668984
vt 0.707570 0.776159
vt 0.845452 0.649994
vt 0.431835 0.624967
vt 0.843423 0.885684
vt 0.580708 0.824394
vt 0.416746 0.720927
vt 0.385872 0.605628
vt 0.385872 0.738135
vt 0.707570 0.513724
vt 0.375057 0.818956
vt 0.765812 0.776159
vt 0.885532 0.844085
vt 0.427719 0.672181
vt 0.377562 0.668984
vt 0.707570 0.776159
vt 0.378980 0.707806
vt 0.449262 0.660950
vt 0.385872 0.605628
vt 0.405352 0.508111
vt 0.385872 0.738136
vt 0.375057 0.818956
vt 0.765812 0.513724
vt 0.765812 0.776159
vt 0.765812 0.776159
vt 0.765812 0.776159
vt 0.404997 0.853283
vt 0.707570 0.776159
vt 0.404997 0.853283
vt 0.707570 0.776159
vt 0.309104 0.853283
vt 0.768944 0.776159
vt 0.711251 0.776159
vt 0.711251 0.776159
vt 0.711251 0.776159
vt 0.309104 0.853283
vt 0.768944 0.776159
vt 0.707570 0.513724
vt 0.580708 0.936091
vt 0.765812 0.513724
vt 0.405351 0.508111
vt 0.308750 0.508111
vt 0.768944 0.513724
vt 0.636153 0.936091
vt 0.711251 0.513724
vt 0.885603 0.652176
vt 0.885603 0.652176
vt 0.885603 0.595658
vt 0.843423 0.647131
vt 0.843423 0.647131
vt 0.843423 0.647131
vt 0.843423 0.647131
vt 0.411745 0.513075
vt 0.885603 0.845738
vt 0.843423 0.885684
vt 0.845452 0.887975
vt 0.845452 0.887975
vt 0.885532 0.603145
vt 0.885532 0.649534
vt 0.885532 0.649534
vt 0.845452 0.649994
vt 0.845452 0.649994
vt 0.845452 0.649994
vt 0.636153 0.824394
vt 0.707570 0.992681
vt 0.768944 0.992681
vt 0.711251 0.992681
vt 0.711251 0.992681
vt 0.765812 0.992681
vt 0.885603 0.595658
vt 0.885603 0.652176
vt 0.885603 0.652176
vt 0.411745 0.513075
vt 0.885532 0.844085
vt 0.885532 0.649534
vt 0.885532 0.649534
vt 0.885532 0.603145
vt 0.768944 0.992681
vt 0.707570 0.992681
vt 0.843423 0.647131
vt 0.843423 0.647131
vt 0.843423 0.647131
vt 0.580708 0.796128
vt 0.885603 0.595658
vt 0.885603 0.652176
vt 0.885603 0.652176
vt 0.393728 0.513075
vt 0.885532 0.843830
vt 0.845452 0.887719
vt 0.843423 0.885932
vt 0.843423 0.885932
vt 0.885532 0.649534
vt 0.885532 0.649534
vt 0.636153 0.796128
vt 0.845452 0.649994
vt 0.845452 0.649994
vt 0.845452 0.649994
vt 0.885532 0.603145
vt 0.885603 0.652176
vt 0.885603 0.652176
vt 0.885603 0.595658
vt 0.885532 0.843830
vt 0.393728 0.513075
vt 0.885532 0.649534
vt 0.885532 0.649534
vt 0.885532 0.603145
vt 0.580708 0.630730
vt 0.580708 0.743539
vt 0.636153 0.743539
vt 0.636153 0.630730
vt 0.636153 0.512608
vt 0.580708 0.512608
vt 0.608431 0.992357
vt 0.608431 0.869264
vt 0.608431 0.746601
vt 0.580708 0.824394
vt 0.636153 0.824394
vt 0.636153 0.936091
vt 0.580708 0.936091
vt 0.580708 0.796128
vt 0.636153 0.796128
vt 0.580708 0.630730
vt 0.636153 0.630730
vt 0.636153 0.743539
vt 0.580708 0.743539
vt 0.580708 0.512608
vt 0.636153 0.512608
vt 0.608431 0.992357
vt 0.608431 0.869264
vt 0.608431 0.746602
vt 0.385872 0.738136
vt 0.385872 0.738136
vt 0.385872 0.605628
vt 0.385872 0.605628
vt 0.328229 0.605628
vt 0.328229 0.605628
vt 0.328229 0.738136
vt 0.328229 0.738136
vt 0.328229 0.738135
vt 0.328229 0.738135
vt 0.328229 0.605628
vt 0.328229 0.605628
vt 0.385872 0.605628
vt 0.385872 0.605628
vt 0.385872 0.738135
vt 0.385872 0.738135
vt 0.404997 0.853283
vt 0.357051 0.853283
vt 0.357051 0.853283
vt 0.357051 0.853283
vt 0.357051 0.853283
vt 0.357051 0.853283
vt 0.357051 0.853283
vt 0.404997 0.853283
vt 0.309104 0.853283
vt 0.309104 0.853283
vt 0.405352 0.508111
vt 0.405351 0.508111
vt 0.357051 0.987445
vt 0.308750 0.508111
vt 0.308750 0.508111
vt 0.357051 0.987445
vt 0.357051 0.748364
vt 0.357051 0.748364
vt 0.357051 0.748364
vt 0.357051 0.594768
vt 0.357051 0.594768
vt 0.357051 0.594768
vt 0.357051 0.748364
vt 0.357051 0.748364
vt 0.357051 0.748364
vt 0.357051 0.594768
vt 0.357051 0.594768
vt 0.357051 0.594768
vt 0.357051 0.819052
vt 0.357051 0.508111
vt 0.357051 0.508111
vt 0.357051 0.508111
vt 0.357051 0.819052
vt 0.357051 0.508111
vt 0.357051 0.508111
vt 0.357051 0.508111
vt 0.388726 0.720927
vt 0.282266 0.624967
vt 0.449262 0.660950
vt 0.378980 0.707806
vt 0.416746 0.720927
vt 0.431835 0.624967
vt 0.264839 0.660950
vt 0.426493 0.707806
vt 0.642495 0.323997
vt 0.685202 0.323997
vt 0.685202 0.356806
vt 0.642495 0.356806
vt 0.727909 0.323997
vt 0.727909 0.356806
vt 0.770616 0.323997
vt 0.770616 0.356806
vt 0.813323 0.323997
vt 0.813323 0.356806
vt 0.856030 0.323997
vt 0.856030 0.356806
vt 0.898737 0.323997
vt 0.898737 0.356806
vt 0.941444 0.323997
vt 0.941444 0.356806
vt 0.984151 0.323997
vt 0.984151 0.356806
vt 0.663997 0.297111
vt 0.650349 0.264162
vt 0.698810 0.264162
vt 0.663997 0.231213
vt 0.696946 0.217565
vt 0.729895 0.231213
vt 0.743543 0.264162
vt 0.729895 0.297111
vt 0.696946 0.310759
vt 0.813323 0.389614
vt 0.856030 0.389614
vt 0.856030 0.422423
vt 0.813323 0.422423
vt 0.770616 0.389614
vt 0.770616 0.422423
vt 0.727909 0.389614
vt 0.727909 0.422423
vt 0.685202 0.389614
vt 0.685202 0.422423
vt 0.642495 0.389614
vt 0.642495 0.422423
vt 0.941444 0.389614
vt 0.984151 0.389614
vt 0.984151 0.422423
vt 0.941444 0.422423
vt 0.898737 0.389614
vt 0.898737 0.422423
vt 0.898737 0.455232
vt 0.856030 0.455232
vt 0.813323 0.455232
vt 0.770616 0.455232
vt 0.727909 0.455232
vt 0.685202 0.455232
vt 0.642495 0.455232
vt 0.984151 0.455232
vt 0.941444 0.455232
vt 0.642495 0.323997
vt 0.685202 0.323997
vt 0.685202 0.356806
vt 0.642495 0.356806
vt 0.727909 0.323997
vt 0.727909 0.356806
vt 0.770616 0.323997
vt 0.770616 0.356806
vt 0.813323 0.323997
vt 0.813323 0.356806
vt 0.856030 0.323997
vt 0.856030 0.356806
vt 0.898737 0.323997
vt 0.898737 0.356806
vt 0.941444 0.323997
vt 0.941444 0.356806
vt 0.984151 0.323997
vt 0.984151 0.356806
vt 0.948570 0.264162
vt 0.934922 0.297111
vt 0.903837 0.264162
vt 0.934922 0.231213
vt 0.901973 0.217565
vt 0.869024 0.231213
vt 0.855376 0.264162
vt 0.869024 0.297111
vt 0.901973 0.310759
vt 0.813323 0.389614
vt 0.856030 0.389614
vt 0.856030 0.422423
vt 0.813323 0.422423
vt 0.770616 0.389614
vt 0.770616 0.422423
vt 0.727909 0.389614
vt 0.727909 0.422423
vt 0.685202 0.389614
vt 0.685202 0.422423
vt 0.642495 0.389614
vt 0.642495 0.422423
vt 0.941444 0.389614
vt 0.984151 0.389614
vt 0.984151 0.422423
vt 0.941444 0.422423
vt 0.898737 0.389614
vt 0.898737 0.422423
vt 0.898737 0.455232
vt 0.856030 0.455232
vt 0.813323 0.455232
vt 0.770616 0.455232
vt 0.727909 0.455232
vt 0.685202 0.455232
vt 0.642495 0.455232
vt 0.984151 0.455232
vt 0.941444 0.455232
vt 0.642495 0.323997
vt 0.685202 0.323997
vt 0.685202 0.356806
vt 0.642495 0.356806
vt 0.727909 0.323997
vt 0.727909 0.356806
vt 0.770616 0.323997
vt 0.770616 0.356806
vt 0.813323 0.323997
vt 0.813323 0.356806
vt 0.856030 0.323997
vt 0.856030 0.356806
vt 0.898737 0.323997
vt 0.898737 0.356806
vt 0.941444 0.323997
vt 0.941444 0.356806
vt 0.984151 0.323997
vt 0.984151 0.356806
vt 0.813323 0.389614
vt 0.856030 0.389614
vt 0.856030 0.422423
vt 0.813323 0.422423
vt 0.770616 0.389614
vt 0.770616 0.422423
vt 0.727909 0.389614
vt 0.727909 0.422423
vt 0.685202 0.389614
vt 0.685202 0.422423
vt 0.642495 0.389614
vt 0.642495 0.422423
vt 0.941444 0.389614
vt 0.984151 0.389614
vt 0.984151 0.422423
vt 0.941444 0.422423
vt 0.898737 0.389614
vt 0.898737 0.422423
vt 0.898737 0.455232
vt 0.856030 0.455232
vt 0.813323 0.455232
vt 0.770616 0.455232
vt 0.727909 0.455232
vt 0.685202 0.455232
vt 0.642495 0.455232
vt 0.984151 0.455232
vt 0.941444 0.455232
vt 0.642495 0.323997
vt 0.685202 0.323997
vt 0.685202 0.356806
vt 0.642495 0.356806
vt 0.727909 0.323997
vt 0.727909 0.356806
vt 0.770616 0.323997
vt 0.770616 0.356806
vt 0.813323 0.323997
vt 0.813323 0.356806
vt 0.856030 0.323997
vt 0.856030 0.356806
vt 0.898737 0.323997
vt 0.898737 0.356806
vt 0.941444 0.323997
vt 0.941444 0.356806
vt 0.984151 0.323997
vt 0.984151 0.356806
vt 0.813323 0.389614
vt 0.856030 0.389614
vt 0.856030 0.422423
vt 0.813323 0.422423
vt 0.770616 0.389614
vt 0.770616 0.422423
vt 0.727909 0.389614
vt 0.727909 0.422423
vt 0.685202 0.389614
vt 0.685202 0.422423
vt 0.642495 0.389614
vt 0.642495 0.422423
vt 0.941444 0.389614
vt 0.984151 0.389614
vt 0.984151 0.422423
vt 0.941444 0.422423
vt 0.898737 0.389614
vt 0.898737 0.422423
vt 0.898737 0.455232
vt 0.856030 0.455232
vt 0.813323 0.455232
vt 0.770616 0.455232
vt 0.727909 0.455232
vt 0.685202 0.455232
vt 0.642495 0.455232
vt 0.984151 0.455232
vt 0.941444 0.455232
vt 0.475840 0.312388
vt 0.504165 0.312388
vt 0.504165 0.332867
vt 0.475840 0.332867
vt 0.532491 0.312388
vt 0.532491 0.332867
vt 0.560816 0.312388
vt 0.560816 0.332867
vt 0.589141 0.312388
vt 0.589141 0.332867
vt 0.617467 0.312388
vt 0.617467 0.332867
vt 0.390864 0.312388
vt 0.419189 0.312388
vt 0.419189 0.332867
vt 0.390864 0.332867
vt 0.447514 0.312388
vt 0.447514 0.332867
vt 0.504165 0.274820
vt 0.475840 0.462111
vt 0.504165 0.462111
vt 0.505158 0.493339
vt 0.532491 0.462111
vt 0.560816 0.462111
vt 0.589141 0.462111
vt 0.617467 0.462111
vt 0.390864 0.462111
vt 0.419189 0.462111
vt 0.447514 0.462111
vt 0.589141 0.423194
vt 0.617467 0.423194
vt 0.617467 0.441178
vt 0.589141 0.441178
vt 0.560816 0.423194
vt 0.560816 0.441178
vt 0.532491 0.423194
vt 0.532491 0.441178
vt 0.504165 0.423194
vt 0.504165 0.441178
vt 0.475840 0.423194
vt 0.475840 0.441178
vt 0.447514 0.423194
vt 0.447514 0.441178
vt 0.419189 0.423194
vt 0.419189 0.441178
vt 0.390864 0.423194
vt 0.390864 0.441178
vt 0.419189 0.349703
vt 0.390864 0.349703
vt 0.617467 0.349703
vt 0.589141 0.349703
vt 0.560816 0.349703
vt 0.532491 0.349703
vt 0.504165 0.349703
vt 0.475840 0.349703
vt 0.447514 0.349703
vt 0.329747 0.264687
vt 0.355015 0.264687
vt 0.355015 0.313975
vt 0.329747 0.313975
vt 0.380284 0.264687
vt 0.380284 0.313975
vt 0.178137 0.264687
vt 0.203405 0.264687
vt 0.203405 0.313975
vt 0.178137 0.313975
vt 0.228674 0.264687
vt 0.228674 0.313975
vt 0.253942 0.264687
vt 0.253942 0.313975
vt 0.279211 0.264687
vt 0.279211 0.313975
vt 0.304479 0.264687
vt 0.304479 0.313975
vt 0.553587 0.280136
vt 0.572004 0.272507
vt 0.553587 0.254090
vt 0.535169 0.272507
vt 0.527541 0.254090
vt 0.535169 0.235673
vt 0.553587 0.228044
vt 0.572004 0.235673
vt 0.579633 0.254090
vt 0.462586 0.272508
vt 0.444169 0.280136
vt 0.444169 0.254090
vt 0.425752 0.272508
vt 0.418123 0.254090
vt 0.425752 0.235673
vt 0.444169 0.228044
vt 0.462586 0.235673
vt 0.470215 0.254090
vt 0.329747 0.231439
vt 0.355015 0.231439
vt 0.355015 0.246745
vt 0.329747 0.246745
vt 0.355015 0.484426
vt 0.329747 0.484426
vt 0.329747 0.469918
vt 0.355015 0.469918
vt 0.380284 0.231439
vt 0.380284 0.246745
vt 0.380284 0.484426
vt 0.380284 0.469918
vt 0.178137 0.231439
vt 0.203405 0.231439
vt 0.203405 0.246745
vt 0.178137 0.246745
vt 0.203405 0.484426
vt 0.178137 0.484426
vt 0.178137 0.469918
vt 0.203405 0.469918
vt 0.228674 0.231439
vt 0.228674 0.246745
vt 0.228674 0.484426
vt 0.228674 0.469918
vt 0.253942 0.231439
vt 0.253942 0.246745
vt 0.253942 0.484426
vt 0.253942 0.469918
vt 0.279210 0.231439
vt 0.279210 0.246745
vt 0.279210 0.484426
vt 0.279210 0.469918
vt 0.304479 0.231439
vt 0.304479 0.246745
vt 0.304479 0.484426
vt 0.304479 0.469918
vt 0.329747 0.451599
vt 0.355015 0.451599
vt 0.380284 0.451599
vt 0.178137 0.451599
vt 0.203405 0.451599
vt 0.228674 0.451599
vt 0.253942 0.451599
vt 0.279211 0.451599
vt 0.304479 0.451599
vt 0.228674 0.398402
vt 0.203405 0.398402
vt 0.178137 0.398402
vt 0.380284 0.398402
vt 0.355015 0.398402
vt 0.329747 0.398402
vt 0.304479 0.398402
vt 0.279211 0.398402
vt 0.253942 0.398402
vt -0.749861 0.206697
vt -0.749861 0.181814
vt 1.758359 0.181814
vt 1.758359 0.206697
vt -0.749861 0.156931
vt 1.758359 0.156931
vt -0.749861 0.132048
vt 1.758359 0.132048
vt -0.749861 0.107165
vt 1.758359 0.107165
vt -0.749861 0.082282
vt 1.758359 0.082282
vt -0.749861 0.057398
vt 1.758359 0.057398
vt -0.749861 0.032515
vt 1.758359 0.032515
vt -0.749861 0.007632
vt 1.758359 0.007632
vn 0.000000 0.000000 1.000000
vn 0.000000 0.000000 1.000000
vn 0.000000 0.000000 1.000000
vn 0.283617 -0.098732 0.953841
vn 0.261778 -0.053127 0.963665
vn 0.261778 -0.053127 0.963665
vn 0.279069 0.252689 0.926428
vn 0.279069 0.252689 0.926428
vn 0.279069 0.252689 0.926428
vn 0.256046 0.440296 0.860570
vn 0.256046 0.440296 0.860570
vn 0.256046 0.440296 0.860570
vn 0.256046 0.440296 0.860570
vn -0.435807 -0.305504 0.846605
vn -0.435807 -0.305504 0.846605
vn -0.435807 -0.305504 0.846605
vn -0.435807 -0.305504 0.846605
vn -0.200643 -0.309006 0.929655
vn -0.200643 -0.309006 0.929655
vn -0.200643 -0.309006 0.929655
vn 0.000000 0.000000 1.000000
vn 0.000000 0.000000 1.000000
vn 0.000000 0.000000 1.000000
vn 0.000000 0.000000 1.000000
vn -0.970530 -0.240982 0.000000
vn -0.970530 -0.240982 0.000000
vn -0.970530 -0.240982 0.000000
vn -0.970530 -0.240982 0.000000
vn -0.396535 0.918019 0.000000
vn -0.396535 0.918019 0.000000
vn -0.396535 0.918019 0.000000
vn -0.396535 0.918019 0.000000
vn -0.780862 -0.624704 0.000000
vn -0.780862 -0.624704 0.000000
vn -0.780862 -0.624704 0.000000
vn -0.780862 -0.624704 0.000000
vn -0.991614 -0.129236 0.000000
vn -0.991614 -0.129236 0.000000
vn -0.991614 -0.129236 0.000000
vn -0.991614 -0.129236 0.000000
vn -0.727272 -0.686349 0.000000
vn -0.727272 -0.686349 0.000000
vn -0.727272 -0.686349 0.000000
vn 0.994505 0.104690 0.000000
vn 0.994505 0.104690 0.000000
vn 0.994505 0.104690 0.000000
vn -0.035424 -0.999372 0.000000
vn -0.035424 -0.999372 0.000000
vn -0.035424 -0.999372 0.000000
vn 0.000000 0.000000 1.000000
vn 0.000000 0.000000 1.000000
vn 0.000000 0.000000 1.000000
vn 0.000000 0.000000 1.000000
vn 0.223776 0.026039 0.974293
vn 0.223776 0.026039 0.974293
vn 0.223776 0.026039 0.974293
vn 0.223776 0.026039 0.974293
vn 0.144801 0.015170 0.989345
vn 0.144801 0.015170 0.989345
vn 0.094252 0.006553 0.995527
vn 0.094252 0.006553 0.995527
vn -0.416431 0.145204 0.897497
vn -0.395405 0.069366 0.915884
vn -0.395405 0.069366 0.915884
vn -0.416431 0.145204 0.897497
vn -0.000001 -0.000000 -1.000000
vn -0.000001 -0.000000 -1.000000
vn -0.000001 -0.000000 -1.000000
vn 0.283102 -0.098553 -0.954013
vn 0.261501 -0.053075 -0.963743
vn 0.261501 -0.053075 -0.963743
vn 0.279082 0.252705 -0.926420
vn 0.279082 0.252705 -0.926420
vn 0.279082 0.252705 -0.926420
vn 0.256059 0.440319 -0.860554
vn 0.256059 0.440319 -0.860554
vn 0.256059 0.440319 -0.860554
vn 0.256059 0.440319 -0.860554
vn -0.435830 -0.305520 -0.846587
vn -0.435830 -0.305520 -0.846587
vn -0.435830 -0.305520 -0.846587
vn -0.435830 -0.305520 -0.846587
vn -0.200656 -0.309024 -0.929646
vn -0.200656 -0.309024 -0.929646
vn -0.200656 -0.309024 -0.929646
vn -0.000002 0.000000 -1.000000
vn -0.000002 0.000000 -1.000000
vn -0.000002 0.000000 -1.000000
vn -0.000002 0.000000 -1.000000
vn -0.000001 -0.000000 -1.000000
vn -0.000001 -0.000000 -1.000000
vn -0.000001 -0.000000 -1.000000
vn -0.000001 -0.000000 -1.000000
vn 0.224314 0.026102 -0.974167
vn 0.224314 0.026102 -0.974167
vn 0.224314 0.026102 -0.974167
vn 0.224314 0.026102 -0.974167
vn 0.144995 0.015208 -0.989316
vn 0.094252 0.006552 -0.995527
vn 0.094252 0.006552 -0.995527
vn 0.144995 0.015208 -0.989316
vn -0.416448 0.145210 -0.897488
vn -0.416448 0.145210 -0.897488
vn -0.395423 0.069369 -0.915876
vn -0.395423 0.069369 -0.915876
vn -0.000000 -0.000000 1.000000
vn -0.000000 -0.000000 1.000000
vn -0.000000 -0.000000 1.000000
vn -0.283610 -0.098732 0.953843
vn -0.261771 -0.053127 0.963667
vn -0.261771 -0.053127 0.963667
vn -0.279066 0.252687 0.926429
vn -0.279066 0.252687 0.926429
vn -0.279066 0.252687 0.926429
vn -0.256049 0.440302 0.860565
vn -0.256049 0.440302 0.860565
vn -0.256049 0.440302 0.860565
vn -0.256049 0.440302 0.860565
vn 0.435796 -0.305498 0.846613
vn 0.435796 -0.305498 0.846613
vn 0.435796 -0.305498 0.846613
vn 0.435796 -0.305498 0.846613
vn 0.200656 -0.308999 0.929654
vn 0.200656 -0.308999 0.929654
vn 0.200656 -0.308999 0.929654
vn 0.000001 0.000012 1.000000
vn 0.000001 0.000012 1.000000
vn 0.000001 0.000012 1.000000
vn 0.000001 0.000012 1.000000
vn -0.000009 0.000004 1.000000
vn -0.000009 0.000004 1.000000
vn -0.000009 0.000004 1.000000
vn -0.000009 0.000004 1.000000
vn -0.223765 0.026035 0.974295
vn -0.223765 0.026035 0.974295
vn -0.223765 0.026035 0.974295
vn -0.223765 0.026035 0.974295
vn -0.144787 0.015170 0.989347
vn -0.094243 0.006553 0.995528
vn -0.094243 0.006553 0.995528
vn -0.144787 0.015170 0.989347
vn 0.416430 0.145206 0.897497
vn 0.416430 0.145206 0.897497
vn 0.395406 0.069367 0.915884
vn 0.395406 0.069367 0.915884
vn 0.000001 -0.000001 -1.000000
vn 0.000001 -0.000001 -1.000000
vn 0.000001 -0.000001 -1.000000
vn -0.283095 -0.098553 -0.954015
vn -0.261495 -0.053075 -0.963745
vn -0.261495 -0.053075 -0.963745
vn -0.279081 0.252704 -0.926420
vn -0.279081 0.252704 -0.926420
vn -0.279081 0.252704 -0.926420
vn -0.256062 0.440326 -0.860550
vn -0.256062 0.440326 -0.860550
vn -0.256062 0.440326 -0.860550
vn -0.256062 0.440326 -0.860550
vn 0.435819 -0.305513 -0.846595
vn 0.435819 -0.305513 -0.846595
vn 0.435819 -0.305513 -0.846595
vn 0.435819 -0.305513 -0.846595
vn 0.200658 -0.309026 -0.929645
vn 0.200658 -0.309026 -0.929645
vn 0.200658 -0.309026 -0.929645
vn 0.000002 -0.000000 -1.000000
vn 0.000002 -0.000000 -1.000000
vn 0.000002 -0.000000 -1.000000
vn 0.000002 -0.000000 -1.000000
vn 0.970534 -0.240963 0.000000
vn 0.970534 -0.240963 0.000000
vn 0.970534 -0.240963 0.000000
vn 0.970534 -0.240963 0.000000
vn 0.396546 0.918015 0.000000
vn 0.396546 0.918015 0.000000
vn 0.396546 0.918015 0.000000
vn 0.396546 0.918015 0.000000
vn 0.780869 -0.624695 0.000000
vn 0.780869 -0.624695 0.000000
vn 0.780869 -0.624695 0.000000
vn 0.780869 -0.624695 0.000000
vn 0.991611 -0.129256 0.000000
vn 0.991611 -0.129256 0.000000
vn 0.991611 -0.129256 0.000000
vn 0.991611 -0.129256 0.000000
vn 0.727274 -0.686347 0.000000
vn 0.727274 -0.686347 0.000000
vn 0.727274 -0.686347 0.000000
vn -0.994505 0.104686 0.000000
vn -0.994505 0.104686 0.000000
vn -0.994505 0.104686 0.000000
vn 0.035438 -0.999372 0.000000
vn 0.035438 -0.999372 0.000000
vn 0.035438 -0.999372 0.000000
vn 0.000001 -0.000000 -1.000000
vn 0.000001 -0.000000 -1.000000
vn 0.000001 -0.000000 -1.000000
vn 0.000001 -0.000000 -1.000000
vn -0.224304 0.026098 -0.974170
vn -0.224304 0.026098 -0.974170
vn -0.224304 0.026098 -0.974170
vn -0.224304 0.026098 -0.974170
vn -0.144981 0.015209 -0.989318
vn -0.144981 0.015209 -0.989318
vn -0.094244 0.006553 -0.995528
vn -0.094244 0.006553 -0.995528
vn 0.416447 0.145212 -0.897488
vn 0.395424 0.069370 -0.915875
vn 0.395424 0.069370 -0.915875
vn 0.416447 0.145212 -0.897488
vn 0.239244 -0.007381 0.970932
vn 0.239244 -0.007381 0.970932
vn -0.371796 -0.006926 0.928289
vn -0.371796 -0.006926 0.928289
vn 0.239213 -0.007457 -0.970938
vn 0.239213 -0.007457 -0.970938
vn -0.371814 -0.006926 -0.928281
vn -0.371814 -0.006926 -0.928281
vn -0.239238 -0.007381 0.970933
vn -0.239238 -0.007381 0.970933
vn 0.371799 -0.006925 0.928288
vn 0.371799 -0.006925 0.928288
vn -0.239207 -0.007457 -0.970940
vn -0.239207 -0.007457 -0.970940
vn 0.371817 -0.006925 -0.928280
vn 0.371817 -0.006925 -0.928280
vn -0.194945 0.023746 0.980527
vn -0.194945 0.023746 0.980527
vn 0.194964 0.023746 0.980523
vn 0.194964 0.023746 0.980523
vn 0.195349 0.023823 -0.980444
vn 0.195349 0.023823 -0.980444
vn -0.195329 0.023823 -0.980448
vn -0.195329 0.023823 -0.980448
vn 0.485708 -0.726764 -0.485697
vn -0.000000 -0.726783 -0.686867
vn -0.000001 -0.081948 -0.996637
vn 0.704736 -0.081947 -0.704721
vn -0.485684 -0.726787 -0.485686
vn -0.704728 -0.081943 -0.704730
vn -0.686856 -0.726793 -0.000001
vn -0.996637 -0.081940 -0.000000
vn -0.485679 -0.726795 0.485680
vn -0.704728 -0.081936 0.704730
vn -0.000000 -0.726794 0.686855
vn -0.000001 -0.081935 0.996638
vn 0.485702 -0.726772 0.485691
vn 0.704737 -0.081940 0.704721
vn 0.686898 -0.726754 -0.000001
vn 0.996637 -0.081943 -0.000000
vn 0.285216 0.915041 -0.285222
vn -0.000004 0.915033 -0.403379
vn 0.000001 1.000000 -0.000001
vn -0.285237 0.915032 -0.285232
vn -0.403382 0.915032 0.000001
vn -0.285235 0.915034 0.285227
vn -0.000004 0.915039 0.403366
vn 0.285214 0.915043 0.285217
vn 0.403348 0.915047 0.000001
vn -0.703922 -0.094847 0.703916
vn -0.000005 -0.094859 0.995491
vn -0.000009 -0.152080 0.988368
vn -0.698891 -0.152080 0.698872
vn -0.995492 -0.094844 0.000002
vn -0.988369 -0.152074 0.000004
vn -0.703921 -0.094858 -0.703916
vn -0.698890 -0.152085 -0.698873
vn -0.000005 -0.094876 -0.995489
vn -0.000009 -0.152087 -0.988367
vn 0.703920 -0.094893 -0.703912
vn 0.698880 -0.152070 -0.698885
vn 0.995487 -0.094900 0.000002
vn 0.988372 -0.152058 0.000004
vn 0.703921 -0.094882 0.703913
vn 0.698882 -0.152065 0.698885
vn 0.276124 -0.920606 -0.276117
vn -0.000004 -0.920612 -0.390479
vn -0.000012 -0.028781 -0.999586
vn 0.706823 -0.028766 -0.706805
vn -0.276113 -0.920611 -0.276112
vn -0.706814 -0.028781 -0.706814
vn -0.390478 -0.920612 0.000001
vn -0.999586 -0.028784 0.000002
vn -0.276110 -0.920610 0.276117
vn -0.706805 -0.028773 0.706823
vn -0.000004 -0.920608 0.390488
vn -0.000012 -0.028763 0.999586
vn 0.276121 -0.920605 0.276122
vn 0.706815 -0.028757 0.706814
vn 0.390511 -0.920598 0.000001
vn 0.999587 -0.028749 0.000002
vn 0.000001 -1.000000 -0.000000
vn -0.707098 0.003511 0.707107
vn -0.000012 0.003507 0.999994
vn -0.000011 -0.021469 0.999770
vn -0.706944 -0.021469 0.706944
vn -0.999994 0.003511 0.000003
vn -0.999770 -0.021472 0.000006
vn -0.707102 0.003510 -0.707103
vn -0.706942 -0.021473 -0.706945
vn -0.000012 0.003512 -0.999994
vn -0.000011 -0.021471 -0.999770
vn 0.707105 0.003492 -0.707100
vn 0.706938 -0.021471 -0.706950
vn 0.999994 0.003476 0.000004
vn 0.999770 -0.021468 0.000006
vn 0.707101 0.003492 0.707104
vn 0.706940 -0.021468 0.706948
vn 0.580610 0.570768 0.580617
vn -0.000009 0.570752 0.821122
vn -0.580631 0.570734 0.580630
vn -0.821144 0.570721 0.000005
vn -0.580634 0.570721 -0.580639
vn -0.000009 0.570726 -0.821141
vn 0.580613 0.570755 -0.580626
vn 0.821105 0.570777 0.000005
vn 0.517429 -0.681579 -0.517414
vn -0.000001 -0.681614 -0.731712
vn -0.000000 -0.050927 -0.998702
vn 0.706196 -0.050915 -0.706183
vn -0.517387 -0.681632 -0.517386
vn -0.706192 -0.050938 -0.706186
vn -0.731690 -0.681638 0.000003
vn -0.998702 -0.050941 0.000006
vn -0.517393 -0.681623 0.517393
vn -0.706192 -0.050929 0.706186
vn -0.000000 -0.681604 0.731721
vn -0.000000 -0.050912 0.998703
vn 0.517435 -0.681570 0.517420
vn 0.706197 -0.050907 0.706183
vn 0.731774 -0.681548 0.000004
vn 0.998703 -0.050909 0.000005
vn -0.705348 -0.070658 0.705331
vn -0.000004 -0.070677 0.997499
vn -0.000009 -0.121222 0.992625
vn -0.701900 -0.121221 0.701884
vn -0.997502 -0.070642 0.000004
vn -0.992625 -0.121226 -0.000000
vn -0.705349 -0.070648 -0.705331
vn -0.701901 -0.121217 -0.701884
vn -0.000004 -0.070662 -0.997500
vn -0.000009 -0.121214 -0.992626
vn 0.705338 -0.070683 -0.705338
vn 0.701891 -0.121217 -0.701894
vn 0.997497 -0.070702 0.000003
vn 0.992626 -0.121214 0.000001
vn 0.705337 -0.070694 0.705338
vn 0.701890 -0.121221 0.701895
vn 0.600065 0.529002 0.600066
vn -0.000008 0.529002 0.848621
vn -0.600085 0.528966 0.600077
vn -0.848663 0.528933 -0.000001
vn -0.600093 0.528950 -0.600084
vn -0.000008 0.528979 -0.848635
vn 0.600074 0.528986 -0.600071
vn 0.848625 0.528994 0.000001
vn 0.539817 -0.645905 -0.539818
vn -0.000009 -0.645899 -0.763423
vn -0.000010 -0.045222 -0.998977
vn 0.706383 -0.045209 -0.706385
vn -0.539839 -0.645877 -0.539831
vn -0.706392 -0.045234 -0.706374
vn -0.763453 -0.645864 0.000002
vn -0.998976 -0.045241 0.000002
vn -0.539827 -0.645901 0.539814
vn -0.706393 -0.045245 0.706372
vn -0.000009 -0.645938 0.763390
vn -0.000010 -0.045240 0.998976
vn 0.539805 -0.645929 0.539802
vn 0.706384 -0.045220 0.706383
vn 0.763414 -0.645909 0.000002
vn 0.998978 -0.045205 0.000003
vn -0.705928 -0.057828 0.705919
vn -0.000005 -0.057792 0.998329
vn -0.000001 -0.075957 0.997111
vn -0.705058 -0.075932 0.705072
vn -0.998325 -0.057861 0.000004
vn -0.997114 -0.075916 0.000005
vn -0.705930 -0.057846 -0.705915
vn -0.705067 -0.075929 -0.705064
vn -0.000005 -0.057820 -0.998327
vn -0.000001 -0.075952 -0.997111
vn 0.705925 -0.057803 -0.705924
vn 0.705067 -0.075977 -0.705058
vn 0.998329 -0.057791 0.000004
vn 0.997108 -0.075996 0.000005
vn 0.705923 -0.057786 0.705928
vn 0.705059 -0.075981 0.705066
vn 0.590713 0.549646 0.590718
vn -0.000002 0.549673 0.835380
vn -0.590672 0.549723 0.590687
vn -0.835321 0.549763 0.000004
vn -0.590669 0.549745 -0.590669
vn -0.000002 0.549715 -0.835353
vn 0.590710 0.549669 -0.590699
vn 0.835405 0.549635 0.000005
vn 0.301353 -0.904642 -0.301347
vn -0.000004 -0.904640 -0.426176
vn -0.000008 -0.142058 -0.989858
vn 0.699941 -0.142050 -0.699932
vn -0.301357 -0.904641 -0.301346
vn -0.699947 -0.142072 -0.699921
vn -0.426181 -0.904638 0.000004
vn -0.989856 -0.142077 0.000003
vn -0.301354 -0.904640 0.301350
vn -0.699943 -0.142072 0.699926
vn -0.000004 -0.904640 0.426176
vn -0.000008 -0.142059 0.989858
vn 0.301350 -0.904641 0.301352
vn 0.699935 -0.142050 0.699938
vn 0.426180 -0.904639 0.000006
vn 0.989861 -0.142043 0.000005
vn -0.000001 -1.000000 0.000003
vn 0.107570 0.988361 -0.107568
vn 0.000001 0.988361 -0.152125
vn 0.000001 1.000000 -0.000005
vn -0.107567 0.988362 -0.107567
vn -0.152119 0.988362 -0.000002
vn -0.107565 0.988362 0.107566
vn 0.000000 0.988361 0.152128
vn 0.107568 0.988361 0.107571
vn 0.152124 0.988361 0.000002
vn -0.670426 -0.317893 0.670427
vn -0.000003 -0.317891 0.948127
vn -0.000007 0.050203 0.998739
vn -0.706211 0.050207 0.706219
vn -0.948125 -0.317897 0.000002
vn -0.998739 0.050204 0.000003
vn -0.670432 -0.317899 -0.670419
vn -0.706218 0.050199 -0.706213
vn -0.000002 -0.317904 -0.948123
vn -0.000007 0.050192 -0.998740
vn 0.670423 -0.317904 -0.670425
vn 0.706225 0.050194 -0.706206
vn 0.948124 -0.317902 0.000002
vn 0.998739 0.050204 0.000004
vn 0.670417 -0.317898 0.670434
vn 0.706216 0.050202 0.706215
vn 0.696637 0.171374 0.696654
vn -0.000003 0.171366 0.985207
vn -0.696652 0.171354 0.696644
vn -0.985211 0.171344 0.000003
vn -0.696658 0.171357 -0.696638
vn -0.000003 0.171372 -0.985206
vn 0.696643 0.171378 -0.696648
vn 0.985206 0.171377 0.000003
vn 0.661977 0.351559 -0.661961
vn 0.000012 0.351567 -0.936163
vn 0.000015 -0.005800 -0.999983
vn 0.707104 -0.005797 -0.707086
vn -0.661970 0.351560 -0.661968
vn -0.707093 -0.005799 -0.707097
vn -0.936168 0.351552 0.000004
vn -0.999983 -0.005798 0.000000
vn -0.661970 0.351558 0.661968
vn -0.707096 -0.005801 0.707094
vn 0.000002 0.351562 0.936165
vn 0.000002 -0.005799 0.999983
vn 0.661979 0.351555 0.661961
vn 0.707101 -0.005796 0.707089
vn 0.936169 0.351551 -0.000004
vn 0.999983 -0.005794 -0.000005
vn 0.000004 -0.819098 -0.573654
vn 0.405638 -0.819095 -0.405636
vn -0.000001 -1.000000 0.000001
vn -0.405644 -0.819088 -0.405644
vn -0.573680 -0.819079 -0.000001
vn -0.405653 -0.819082 0.405648
vn 0.000004 -0.819091 0.573663
vn 0.405648 -0.819089 0.405639
vn 0.573657 -0.819096 -0.000001
vn 0.433740 0.789769 -0.433744
vn 0.000008 0.789772 -0.613401
vn 0.000000 1.000000 0.000000
vn -0.433734 0.789777 -0.433737
vn -0.613393 0.789778 -0.000003
vn -0.433736 0.789777 0.433735
vn 0.000008 0.789772 0.613401
vn 0.433742 0.789770 0.433741
vn 0.613390 0.789780 -0.000004
vn 0.000008 0.257569 -0.966260
vn 0.683254 0.257557 -0.683249
vn 0.669575 -0.321459 -0.669578
vn 0.000015 -0.321475 -0.946918
vn -0.683249 0.257573 -0.683247
vn -0.669572 -0.321471 -0.669574
vn -0.966256 0.257583 0.000000
vn -0.946919 -0.321473 -0.000003
vn -0.683249 0.257584 0.683243
vn -0.669571 -0.321481 0.669570
vn 0.000006 0.257578 0.966258
vn 0.000012 -0.321478 0.946917
vn 0.683259 0.257561 0.683242
vn 0.669578 -0.321460 0.669574
vn 0.966264 0.257553 -0.000002
vn 0.946926 -0.321452 -0.000005
vn 0.658296 -0.365097 -0.658293
vn 0.000016 -0.365106 -0.930966
vn -0.658287 -0.365114 -0.658294
vn -0.930961 -0.365119 0.000003
vn -0.658285 -0.365121 0.658292
vn 0.000007 -0.365111 0.930964
vn 0.658297 -0.365101 0.658291
vn 0.930969 -0.365099 -0.000005
vn -0.707094 0.005673 0.707097
vn -0.999984 0.005671 0.000001
vn -0.707090 0.005671 -0.707101
vn 0.000016 0.005673 -0.999984
vn 0.707100 0.005670 -0.707091
vn 0.999984 0.005667 -0.000005
vn 0.707098 0.005669 0.707092
vn 0.000003 0.005672 0.999984
vn 0.707107 0.000000 -0.707107
vn 0.000000 0.000000 -1.000000
vn 0.000000 0.000000 -1.000000
vn 0.707107 0.000000 -0.707107
vn -0.707107 0.000000 -0.707107
vn -0.707107 0.000000 -0.707107
vn -1.000000 0.000000 0.000000
vn -1.000000 0.000000 0.000000
vn -0.707107 0.000000 0.707107
vn -0.707107 0.000000 0.707107
vn 0.000000 0.000000 1.000000
vn 0.000000 0.000000 1.000000
vn 0.707107 0.000000 0.707107
vn 0.707107 0.000000 0.707107
vn 1.000000 0.000000 0.000000
vn 1.000000 0.000000 0.000000
s off
f 14/143/1 15/2/2 13/3/3
s 2
f 19/4/4 58/76/5 57/192/6
s off
f 13/145/7 5/146/8 6/135/9
f 7/129/10 14/142/11 13/144/12 6/136/13
f 8/121/14 15/140/15 14/1/16 7/130/17
f 9/141/18 15/139/19 8/122/20
f 15/2/21 9/223/22 5/7/23 13/3/24
f 4/46/25 3/79/26 24/84/27 28/104/28
f 5/123/29 4/46/30 28/104/31 26/134/32
f 10/147/33 9/148/34 27/149/35 29/150/36
f 30/151/37 11/152/38 10/147/39 29/150/40
f 3/79/41 2/153/42 24/84/43
f 6/154/44 5/123/45 26/134/46
f 9/148/47 8/155/48 27/149/49
f 9/11/50 10/180/51 4/12/52 5/224/53
f 16/220/54 3/201/55 4/181/56 17/206/57
s 17
f 18/204/58 10/179/59 11/21/60 12/26/61
s 18
f 1/107/62 56/73/63 58/5/64 19/118/65
s off
f 20/29/66 22/127/67 21/31/68
s 20
f 23/199/69 60/188/70 59/195/71
s off
f 21/132/72 6/8/73 26/138/74
f 7/9/75 6/137/76 21/133/77 22/128/78
f 8/120/79 7/131/80 22/30/81 20/125/82
f 27/124/83 8/10/84 20/126/85
f 27/18/86 20/29/87 21/31/88 26/230/89
f 27/229/90 26/16/91 28/176/92 29/19/93
f 25/217/94 31/213/95 28/175/96 24/82/97
s 28
f 32/209/98 33/215/99 30/20/100 29/177/101
s 29
f 1/108/102 23/106/103 59/72/104 56/28/105
s off
f 34/39/106 36/113/107 35/41/108
s 31
f 19/202/109 57/193/110 61/194/111
s off
f 35/115/112 39/103/113 38/117/114
f 40/96/115 39/102/116 35/116/117 36/114/118
f 41/90/119 40/95/120 36/40/121 34/111/122
f 42/110/123 41/89/124 34/112/125
f 42/47/126 34/39/127 35/41/128 38/226/129
f 42/225/130 38/44/131 43/184/132 44/49/133
f 16/23/134 17/207/135 43/183/136 37/81/137
s 39
f 18/203/138 12/219/139 45/51/140 44/185/141
s 40
f 1/27/142 19/119/143 61/70/144 62/65/145
s off
f 48/93/146 47/54/147 49/55/148
s 42
f 23/32/149 63/67/150 60/33/151
s off
f 49/100/152 51/98/153 39/43/154
f 40/97/155 48/53/156 49/99/157 39/101/158
f 41/91/159 47/87/160 48/94/161 40/45/162
f 52/88/163 47/86/164 41/92/165
f 47/54/166 52/227/167 51/57/168 49/55/169
f 43/156/170 53/157/171 50/158/172 37/159/173
f 38/160/174 51/161/175 53/157/176 43/156/177
f 44/162/178 54/163/179 52/164/180 42/165/181
f 45/166/182 55/167/183 54/163/184 44/162/185
f 37/159/186 50/158/187 46/168/188
f 39/169/189 51/161/190 38/160/191
f 42/165/192 52/164/193 41/170/194
f 51/228/195 52/58/196 54/172/197 53/59/198
f 25/218/199 50/197/200 53/173/201 31/212/202
s 57
f 32/210/203 54/171/204 55/62/205 33/38/206
s 58
f 1/109/207 62/66/208 63/56/209 23/105/210
s 2
f 57/191/6 58/196/5 3/13/211 16/221/212
s 18
f 58/77/64 56/74/63 2/22/213 3/83/214
s 20
f 59/71/71 60/189/70 25/216/215 24/200/216
s 29
f 56/75/105 59/34/104 24/14/217 2/85/218
s 31
f 61/69/111 57/6/110 16/222/219 37/198/220
s 40
f 62/64/145 61/42/144 37/50/221 46/80/222
s 42
f 60/190/151 63/187/150 50/60/223 25/35/224
s 58
f 63/68/209 62/52/208 46/63/225 50/78/226
s 39
f 18/25/138 44/186/141 43/48/227 17/208/228
s 17
f 18/205/58 17/24/229 4/182/230 10/17/59
s 28
f 32/37/98 29/178/101 28/15/231 31/214/232
s 57
f 32/211/203 31/36/233 53/174/234 54/61/204
s 59
f 64/231/235 65/232/236 102/233/237 103/234/238
f 65/232/236 66/235/239 101/236/240 102/233/237
f 66/235/239 67/237/241 100/238/242 101/236/240
f 67/237/241 68/239/243 99/240/244 100/238/242
f 68/239/243 69/241/245 98/242/246 99/240/244
f 69/241/245 70/243/247 97/244/248 98/242/246
f 70/243/247 71/245/249 104/246/250 97/244/248
f 71/245/249 64/247/235 103/248/238 104/246/250
f 72/249/251 73/250/252 80/251/253
f 73/250/252 74/252/254 80/251/253
f 74/252/254 75/253/255 80/251/253
f 75/253/255 76/254/256 80/251/253
f 76/254/256 77/255/257 80/251/253
f 77/255/257 78/256/258 80/251/253
f 78/256/258 79/257/259 80/251/253
f 79/257/259 72/249/251 80/251/253
f 82/258/260 81/259/261 90/260/262 91/261/263
f 83/262/264 82/258/260 91/261/263 92/263/265
f 84/264/266 83/262/264 92/263/265 93/265/267
f 85/266/268 84/264/266 93/265/267 94/267/269
f 86/268/270 85/266/268 94/267/269 95/269/271
f 87/270/272 86/271/270 95/272/271 96/273/273
f 88/274/274 87/270/272 96/273/273 89/275/275
f 81/259/261 88/274/274 89/275/275 90/260/262
f 90/260/262 89/275/275 78/276/258 77/277/257
f 91/261/263 90/260/262 77/277/257 76/278/256
f 92/263/265 91/261/263 76/278/256 75/279/255
f 93/265/267 92/263/265 75/279/255 74/280/254
f 94/267/269 93/265/267 74/280/254 73/281/252
f 95/269/271 94/267/269 73/281/252 72/282/251
f 96/273/273 95/272/271 72/283/251 79/284/259
f 89/275/275 96/273/273 79/284/259 78/276/258
f 81/259/261 98/242/246 97/244/248 88/274/274
f 99/240/244 98/242/246 81/259/261 82/258/260
f 100/238/242 99/240/244 82/258/260 83/262/264
f 101/236/240 100/238/242 83/262/264 84/264/266
f 102/233/237 101/236/240 84/264/266 85/266/268
f 103/234/238 102/233/237 85/266/268 86/268/270
f 104/246/250 103/248/238 86/271/270 87/270/272
f 97/244/248 104/246/250 87/270/272 88/274/274
s 60
f 105/285/276 106/286/277 143/287/278 144/288/279
f 106/286/277 107/289/280 142/290/281 143/287/278
f 107/289/280 108/291/282 141/292/283 142/290/281
f 108/291/282 109/293/284 140/294/285 141/292/283
f 109/293/284 110/295/286 139/296/287 140/294/285
f 110/295/286 111/297/288 138/298/289 139/296/287
f 111/297/288 112/299/290 145/300/291 138/298/289
f 112/299/290 105/301/276 144/302/279 145/300/291
f 106/303/277 105/304/276 121/305/292
f 107/306/280 106/303/277 121/305/292
f 108/307/282 107/306/280 121/305/292
f 109/308/284 108/307/282 121/305/292
f 110/309/286 109/308/284 121/305/292
f 111/310/288 110/309/286 121/305/292
f 112/311/290 111/310/288 121/305/292
f 105/304/276 112/311/290 121/305/292
f 123/312/293 122/313/294 131/314/295 132/315/296
f 124/316/297 123/312/293 132/315/296 133/317/298
f 125/318/299 124/316/297 133/317/298 134/319/300
f 126/320/301 125/318/299 134/319/300 135/321/302
f 127/322/303 126/320/301 135/321/302 136/323/304
f 128/324/305 127/325/303 136/326/304 137/327/306
f 129/328/307 128/324/305 137/327/306 130/329/308
f 122/313/294 129/328/307 130/329/308 131/314/295
f 131/314/295 130/329/308 119/330/309 118/331/310
f 132/315/296 131/314/295 118/331/310 117/332/311
f 133/317/298 132/315/296 117/332/311 116/333/312
f 134/319/300 133/317/298 116/333/312 115/334/313
f 135/321/302 134/319/300 115/334/313 114/335/314
f 136/323/304 135/321/302 114/335/314 113/336/315
f 137/327/306 136/326/304 113/337/315 120/338/316
f 130/329/308 137/327/306 120/338/316 119/330/309
f 122/313/294 139/296/287 138/298/289 129/328/307
f 140/294/285 139/296/287 122/313/294 123/312/293
f 141/292/283 140/294/285 123/312/293 124/316/297
f 142/290/281 141/292/283 124/316/297 125/318/299
f 143/287/278 142/290/281 125/318/299 126/320/301
f 144/288/279 143/287/278 126/320/301 127/322/303
f 145/300/291 144/302/279 127/325/303 128/324/305
f 138/298/289 145/300/291 128/324/305 129/328/307
s 61
f 146/339/317 147/340/318 175/341/319 176/342/320
f 147/340/318 148/343/321 174/344/322 175/341/319
f 148/343/321 149/345/323 173/346/324 174/344/322
f 149/345/323 150/347/325 172/348/326 173/346/324
f 150/347/325 151/349/327 171/350/328 172/348/326
f 151/349/327 152/351/329 170/352/330 171/350/328
f 152/351/329 153/353/331 177/354/332 170/352/330
f 153/353/331 146/355/317 176/356/320 177/354/332
f 155/357/333 154/358/334 163/359/335 164/360/336
f 156/361/337 155/357/333 164/360/336 165/362/338
f 157/363/339 156/361/337 165/362/338 166/364/340
f 158/365/341 157/363/339 166/364/340 167/366/342
f 159/367/343 158/365/341 167/366/342 168/368/344
f 160/369/345 159/370/343 168/371/344 169/372/346
f 161/373/347 160/369/345 169/372/346 162/374/348
f 154/358/334 161/373/347 162/374/348 163/359/335
f 163/359/335 162/374/348 70/375/349 69/376/350
f 164/360/336 163/359/335 69/376/350 68/377/351
f 165/362/338 164/360/336 68/377/351 67/378/352
f 166/364/340 165/362/338 67/378/352 66/379/353
f 167/366/342 166/364/340 66/379/353 65/380/354
f 168/368/344 167/366/342 65/380/354 64/381/355
f 169/372/346 168/371/344 64/382/355 71/383/356
f 162/374/348 169/372/346 71/383/356 70/375/349
f 154/358/334 171/350/328 170/352/330 161/373/347
f 172/348/326 171/350/328 154/358/334 155/357/333
f 173/346/324 172/348/326 155/357/333 156/361/337
f 174/344/322 173/346/324 156/361/337 157/363/339
f 175/341/319 174/344/322 157/363/339 158/365/341
f 176/342/320 175/341/319 158/365/341 159/367/343
f 177/354/332 176/356/320 159/370/343 160/369/345
f 170/352/330 177/354/332 160/369/345 161/373/347
s 62
f 113/384/357 114/385/358 199/386/359 200/387/360
f 114/385/358 115/388/361 198/389/362 199/386/359
f 115/388/361 116/390/363 197/391/364 198/389/362
f 116/390/363 117/392/365 196/393/366 197/391/364
f 117/392/365 118/394/367 195/395/368 196/393/366
f 118/394/367 119/396/369 194/397/370 195/395/368
f 119/396/369 120/398/371 201/399/372 194/397/370
f 120/398/371 113/400/357 200/401/360 201/399/372
f 179/402/373 178/403/374 187/404/375 188/405/376
f 180/406/377 179/402/373 188/405/376 189/407/378
f 181/408/379 180/406/377 189/407/378 190/409/380
f 182/410/381 181/408/379 190/409/380 191/411/382
f 183/412/383 182/410/381 191/411/382 192/413/384
f 184/414/385 183/415/383 192/416/384 193/417/386
f 185/418/387 184/414/385 193/417/386 186/419/388
f 178/403/374 185/418/387 186/419/388 187/404/375
f 187/404/375 186/419/388 152/420/389 151/421/390
f 188/405/376 187/404/375 151/421/390 150/422/391
f 189/407/378 188/405/376 150/422/391 149/423/392
f 190/409/380 189/407/378 149/423/392 148/424/393
f 191/411/382 190/409/380 148/424/393 147/425/394
f 192/413/384 191/411/382 147/425/394 146/426/395
f 193/417/386 192/416/384 146/427/395 153/428/396
f 186/419/388 193/417/386 153/428/396 152/420/389
f 178/403/374 195/395/368 194/397/370 185/418/387
f 196/393/366 195/395/368 178/403/374 179/402/373
f 197/391/364 196/393/366 179/402/373 180/406/377
f 198/389/362 197/391/364 180/406/377 181/408/379
f 199/386/359 198/389/362 181/408/379 182/410/381
f 200/387/360 199/386/359 182/410/381 183/412/383
f 201/399/372 200/401/360 183/415/383 184/414/385
f 194/397/370 201/399/372 184/414/385 185/418/387
s 63
f 202/429/397 203/430/398 241/431/399 242/432/400
f 203/430/398 204/433/401 240/434/402 241/431/399
f 204/433/401 205/435/403 239/436/404 240/434/402
f 205/435/403 206/437/405 238/438/406 239/436/404
f 206/437/405 207/439/407 237/440/408 238/438/406
f 207/441/407 208/442/409 236/443/410 237/444/408
f 208/442/409 209/445/411 243/446/412 236/443/410
f 209/445/411 202/429/397 242/432/400 243/446/412
f 203/430/398 202/429/397 218/447/413
f 204/433/401 203/430/398 218/447/413
f 205/435/403 204/433/401 218/447/413
f 206/437/405 205/435/403 218/447/413
f 207/439/407 206/437/405 218/447/413
f 208/442/409 207/441/407 218/447/413
f 209/445/411 208/442/409 218/447/413
f 202/429/397 209/445/411 218/447/413
f 210/448/414 211/449/415 219/450/416
f 211/449/415 212/451/417 219/450/416
f 212/451/417 213/452/418 219/450/416
f 213/452/418 214/453/419 219/450/416
f 214/453/419 215/454/420 219/450/416
f 215/455/420 216/456/421 219/450/416
f 216/456/421 217/457/422 219/450/416
f 217/457/422 210/448/414 219/450/416
f 221/458/423 220/459/424 229/460/425 230/461/426
f 222/462/427 221/458/423 230/461/426 231/463/428
f 223/464/429 222/462/427 231/463/428 232/465/430
f 224/466/431 223/464/429 232/465/430 233/467/432
f 225/468/433 224/466/431 233/467/432 234/469/434
f 226/470/435 225/468/433 234/469/434 235/471/436
f 227/472/437 226/470/435 235/471/436 228/473/438
f 220/474/424 227/472/437 228/473/438 229/475/425
f 229/475/425 228/473/438 216/456/421 215/455/420
f 230/461/426 229/460/425 215/454/420 214/453/419
f 231/463/428 230/461/426 214/453/419 213/452/418
f 232/465/430 231/463/428 213/452/418 212/451/417
f 233/467/432 232/465/430 212/451/417 211/449/415
f 234/469/434 233/467/432 211/449/415 210/448/414
f 235/471/436 234/469/434 210/448/414 217/457/422
f 228/473/438 235/471/436 217/457/422 216/456/421
f 237/444/408 236/443/410 251/476/439 244/477/440
f 238/438/406 237/440/408 244/478/440 245/479/441
f 239/436/404 238/438/406 245/479/441 246/480/442
f 240/434/402 239/436/404 246/480/442 247/481/443
f 241/431/399 240/434/402 247/481/443 248/482/444
f 242/432/400 241/431/399 248/482/444 249/483/445
f 243/446/412 242/432/400 249/483/445 250/484/446
f 236/443/410 243/446/412 250/484/446 251/476/439
f 245/479/441 244/478/440 220/459/424 221/458/423
f 246/480/442 245/479/441 221/458/423 222/462/427
f 247/481/443 246/480/442 222/462/427 223/464/429
f 248/482/444 247/481/443 223/464/429 224/466/431
f 249/483/445 248/482/444 224/466/431 225/468/433
f 250/484/446 249/483/445 225/468/433 226/470/435
f 251/476/439 250/484/446 226/470/435 227/472/437
f 244/477/440 251/476/439 227/472/437 220/474/424
s 64
f 286/485/447 287/486/448 305/487/449 306/488/450
f 287/486/448 290/489/451 304/490/452 305/487/449
f 290/491/451 292/492/453 303/493/454 304/494/452
f 292/492/453 294/495/455 302/496/456 303/493/454
f 294/495/455 296/497/457 309/498/458 302/496/456
f 309/498/458 296/497/457 298/499/459 308/500/460
f 298/499/459 300/501/461 307/502/462 308/500/460
f 300/501/461 286/485/447 306/488/450 307/502/462
f 253/503/463 252/504/464 268/505/465
f 254/506/466 253/503/463 268/505/465
f 255/507/467 254/506/466 268/505/465
f 256/508/468 255/507/467 268/505/465
f 257/509/469 256/508/468 268/505/465
f 258/510/470 257/509/469 268/505/465
f 259/511/471 258/510/470 268/505/465
f 252/504/464 259/511/471 268/505/465
f 260/512/472 261/513/473 269/514/474
f 261/513/473 262/515/475 269/514/474
f 262/515/475 263/516/476 269/514/474
f 263/516/476 264/517/477 269/514/474
f 264/517/477 265/518/478 269/514/474
f 265/518/478 266/519/479 269/514/474
f 266/519/479 267/520/480 269/514/474
f 267/520/480 260/512/472 269/514/474
f 252/521/464 253/522/463 271/523/481 270/524/482
f 261/525/473 260/526/472 273/527/483 272/528/484
f 253/522/463 254/529/466 274/530/485 271/523/481
f 262/531/475 261/525/473 272/528/484 275/532/486
f 254/533/466 255/534/467 276/535/487 274/536/485
f 263/537/476 262/538/475 275/539/486 277/540/488
f 255/534/467 256/541/468 278/542/489 276/535/487
f 264/543/477 263/537/476 277/540/488 279/544/490
f 256/541/468 257/545/469 280/546/491 278/542/489
f 265/547/478 264/543/477 279/544/490 281/548/492
f 257/545/469 258/549/470 282/550/493 280/546/491
f 266/551/479 265/547/478 281/548/492 283/552/494
f 258/549/470 259/553/471 284/554/495 282/550/493
f 267/555/480 266/551/479 283/552/494 285/556/496
f 259/553/471 252/521/464 270/524/482 284/554/495
f 260/526/472 267/555/480 285/556/496 273/527/483
f 270/524/482 271/523/481 287/486/448 286/485/447
f 272/528/484 273/527/483 289/557/497 288/558/498
f 271/523/481 274/530/485 290/489/451 287/486/448
f 275/532/486 272/528/484 288/558/498 291/559/499
f 274/536/485 276/535/487 292/492/453 290/491/451
f 277/540/488 275/539/486 291/560/499 293/561/500
f 276/535/487 278/542/489 294/495/455 292/492/453
f 279/544/490 277/540/488 293/561/500 295/562/501
f 278/542/489 280/546/491 296/497/457 294/495/455
f 281/548/492 279/544/490 295/562/501 297/563/502
f 280/546/491 282/550/493 298/499/459 296/497/457
f 283/552/494 281/548/492 297/563/502 299/564/503
f 282/550/493 284/554/495 300/501/461 298/499/459
f 285/556/496 283/552/494 299/564/503 301/565/504
f 284/554/495 270/524/482 286/485/447 300/501/461
f 273/527/483 285/556/496 301/565/504 289/557/497
f 303/493/454 302/496/456 310/566/505 311/567/506
f 304/494/452 303/493/454 311/567/506 312/568/507
f 305/487/449 304/490/452 312/569/507 313/570/508
f 306/488/450 305/487/449 313/570/508 314/571/509
f 307/502/462 306/488/450 314/571/509 315/572/510
f 308/500/460 307/502/462 315/572/510 316/573/511
f 309/498/458 308/500/460 316/573/511 317/574/512
f 310/566/505 302/496/456 309/498/458 317/574/512
f 293/561/500 311/567/506 310/566/505 295/562/501
f 291/560/499 312/568/507 311/567/506 293/561/500
f 288/558/498 313/570/508 312/569/507 291/559/499
f 289/557/497 314/571/509 313/570/508 288/558/498
f 301/565/504 315/572/510 314/571/509 289/557/497
f 299/564/503 316/573/511 315/572/510 301/565/504
f 297/563/502 317/574/512 316/573/511 299/564/503
f 295/562/501 310/566/505 317/574/512 297/563/502
s 65
f 318/575/513 319/576/514 327/577/515 326/578/516
f 319/576/514 320/579/517 328/580/518 327/577/515
f 320/579/517 321/581/519 329/582/520 328/580/518
f 321/581/519 322/583/521 330/584/522 329/582/520
f 322/583/521 323/585/523 331/586/524 330/584/522
f 323/585/523 324/587/525 332/588/526 331/586/524
f 324/587/525 325/589/527 333/590/528 332/588/526
f 325/589/527 318/591/513 326/592/516 333/590/528
