# This file uses centimeters as units for non-parametric coordinates.

v -0.016896 0.093227 0.002919
v 0.023598 0.093227 0.002919
v -0.016896 0.133721 0.002919
v -0.019445 -0.856997 0.019686
v 0.019445 -0.856997 0.019686
v -0.068178 0.622074 0.013178
v 0.068178 0.622074 0.013178
v -0.068178 0.622074 -0.013178
v 0.068178 0.622074 -0.013178
v -0.019445 -0.856997 -0.019686
v 0.019445 -0.856997 -0.019686
v -0.021821 0.289831 -0.013178
v -0.021821 0.289831 0.013178
v 0.021821 0.289831 0.013178
v 0.021821 0.289831 -0.013178
v 0.000000 0.730851 0.000000
v 0.048087 0.348922 0.013178
v -0.048087 0.348922 0.013178
v -0.048087 0.348922 -0.013178
v 0.048087 0.348922 -0.013178
vt 0.000000 0.000000
vt 1.000000 0.000000
vt 0.000000 1.000000
vt 0.375000 0.250000
vt 0.625000 0.250000
vt 0.494891 0.375000
vt 0.625000 0.500000
vt 0.375000 0.500000
vt 0.375000 0.750000
vt 0.625000 0.750000
vt 0.625000 1.000000
vt 0.375000 1.000000
vt 0.875000 0.250000
vt 0.125000 0.250000
vt 0.125000 0.000000
vt 0.375000 0.000000
vt 0.625000 0.000000
vt 0.875000 0.000000
vt 0.375000 0.205624
vt 0.125000 0.205624
vt 0.625000 0.205624
vt 0.875000 0.205624
vt 0.375000 0.544376
vt 0.625000 0.544376
vt 0.625000 0.213516
vt 0.375000 0.213516
vt 0.125000 0.213516
vt 0.375000 0.536484
vt 0.625000 0.536484
vt 0.875000 0.213516
vn 0.000000 0.000000 1.000000
vn 0.000000 0.000000 1.000000
vn 0.000000 0.000000 1.000000
vn 0.000000 0.120269 0.992741
vn 0.000000 0.120269 0.992741
vn 0.000000 0.120269 0.992741
vn 0.847323 0.531079 0.000000
vn 0.847323 0.531079 0.000000
vn 0.847323 0.531079 0.000000
vn 0.000000 0.120269 -0.992741
vn 0.000000 0.120269 -0.992741
vn 0.000000 0.120269 -0.992741
vn 0.000000 -1.000000 0.000000
vn 0.000000 -1.000000 0.000000
vn 0.000000 -1.000000 0.000000
vn 0.000000 -1.000000 0.000000
vn 0.969931 -0.243381 0.000001
vn 0.969931 -0.243381 0.000001
vn 0.977994 -0.208631 0.000001
vn 0.977994 -0.208631 0.000001
vn -0.969931 -0.243381 0.000000
vn -0.969931 -0.243381 0.000000
vn -0.977994 -0.208631 0.000000
vn -0.977994 -0.208631 0.000000
vn -0.999998 -0.002071 0.000000
vn -0.999998 -0.002071 0.000000
vn 0.000000 0.002837 0.999996
vn 0.000000 0.002837 0.999996
vn 0.000000 0.005674 0.999984
vn 0.000000 0.005674 0.999984
vn 0.999998 -0.002071 0.000000
vn 0.999998 -0.002071 0.000000
vn 0.000000 0.005674 -0.999984
vn 0.000000 0.002837 -0.999996
vn 0.000000 0.002837 -0.999996
vn 0.000000 0.005674 -0.999984
vn -0.847323 0.531079 0.000000
vn -0.847323 0.531079 0.000000
vn -0.847323 0.531079 0.000000
vn 0.000000 0.000000 1.000000
vn 0.000000 0.000000 1.000000
vn 0.000000 0.000000 -1.000000
vn 0.000000 0.000000 -1.000000
vn 0.000000 0.000000 1.000000
vn 0.000000 0.000000 1.000000
vn -0.997306 -0.073356 0.000000
vn -0.997306 -0.073356 0.000000
vn 0.000000 0.000000 -1.000000
vn 0.000000 0.000000 -1.000000
vn 0.997306 -0.073356 0.000000
vn 0.997306 -0.073356 0.000000
s off
f 1/1/1 2/2/2 3/3/3
f 7/5/4 16/6/5 6/4/6
f 16/6/7 7/5/8 9/7/9
f 9/7/10 8/8/11 16/6/12
f 10/9/13 11/10/14 5/11/15 4/12/16
s 5
f 20/30/17 17/25/18 14/21/19 15/22/20
s 6
f 18/26/21 19/27/22 12/20/23 13/19/24
f 13/19/24 12/20/23 10/15/25 4/16/26
s 7
f 14/21/27 13/19/28 4/16/29 5/17/30
s 5
f 11/18/31 15/22/20 14/21/19 5/17/32
s 8
f 10/9/33 12/23/34 15/24/35 11/10/36
s off
f 6/4/37 16/6/38 8/8/39
s 7
f 14/21/27 17/25/40 18/26/41 13/19/28
s 8
f 12/23/34 19/28/42 20/29/43 15/24/35
s 7
f 17/25/40 7/5/44 6/4/45 18/26/41
s 6
f 6/4/46 8/14/47 19/27/22 18/26/21
s 8
f 20/29/43 19/28/42 8/8/48 9/7/49
s 5
f 9/13/50 7/5/51 17/25/18 20/30/17
