# This file uses centimeters as units for non-parametric coordinates.

v -0.016896 0.059265 0.002919
v 0.023598 0.059265 0.002919
v -0.016896 0.099759 0.002919
v -0.019445 -0.885864 0.019686
v 0.019445 -0.885864 0.019686
v -0.117553 0.710419 0.013178
v 0.117553 0.710419 0.013178
v -0.117553 0.710419 -0.013178
v 0.117553 0.710419 -0.013178
v -0.019445 -0.885864 -0.019686
v 0.019445 -0.885864 -0.019686
v -0.019445 0.362167 -0.019686
v -0.019445 0.362167 0.019686
v 0.019445 0.362167 0.019686
v 0.019445 0.362167 -0.019686
v -0.093663 0.442421 -0.013178
v -0.093663 0.442421 0.013178
v 0.093663 0.442421 0.013178
v 0.093663 0.442421 -0.013178
v -0.003989 0.765541 0.000000
vt 0.000000 0.000000
vt 1.000000 0.000000
vt 0.000000 1.000000
vt 0.375000 0.250000
vt 0.625000 0.250000
vt 0.494891 0.375000
vt 0.625000 0.500000
vt 0.375000 0.500000
vt 0.375000 0.750000
vt 0.625000 0.750000
vt 0.625000 1.000000
vt 0.375000 1.000000
vt 0.875000 0.250000
vt 0.125000 0.250000
vt 0.125000 0.000000
vt 0.375000 0.000000
vt 0.375000 0.194610
vt 0.125000 0.194610
vt 0.625000 0.000000
vt 0.625000 0.194610
vt 0.875000 0.000000
vt 0.875000 0.194610
vt 0.375000 0.555390
vt 0.625000 0.555390
vt 0.375000 0.205624
vt 0.125000 0.205624
vt 0.625000 0.205624
vt 0.875000 0.205624
vt 0.375000 0.544376
vt 0.625000 0.544376
vn 0.000000 0.000000 1.000000
vn 0.000000 0.000000 1.000000
vn 0.000000 0.000000 1.000000
vn 0.000000 0.232522 0.972591
vn 0.000000 0.232522 0.972591
vn 0.000000 0.232522 0.972591
vn 0.413027 0.910719 0.000000
vn 0.413027 0.910719 0.000000
vn 0.413027 0.910719 0.000000
vn 0.000000 0.232522 -0.972591
vn 0.000000 0.232522 -0.972591
vn 0.000000 0.232522 -0.972591
vn 0.000000 -1.000000 0.000000
vn 0.000000 -1.000000 0.000000
vn 0.000000 -1.000000 0.000000
vn 0.000000 -1.000000 0.000000
vn 0.996050 -0.088793 0.000000
vn 0.996050 -0.088793 0.000000
vn 0.914054 -0.405592 0.000001
vn 0.914054 -0.405592 0.000001
vn -0.996050 -0.088793 0.000000
vn -0.996050 -0.088793 0.000000
vn -0.914054 -0.405592 0.000001
vn -0.914054 -0.405592 0.000001
vn -1.000000 0.000000 0.000000
vn -1.000000 0.000000 0.000000
vn -0.931176 -0.364570 0.000001
vn -0.931176 -0.364570 0.000001
vn 0.000000 0.000000 1.000000
vn 0.000000 0.000000 1.000000
vn 0.000000 0.040445 0.999182
vn 0.000000 0.040445 0.999182
vn 1.000000 0.000000 0.000000
vn 1.000000 0.000000 0.000000
vn 0.931176 -0.364570 0.000001
vn 0.931176 -0.364570 0.000001
vn 0.000000 0.040445 -0.999182
vn 0.000000 0.040445 -0.999182
vn 0.000000 0.000000 -1.000000
vn 0.000000 0.000000 -1.000000
vn 0.000000 0.040445 0.999182
vn 0.000000 0.040445 0.999182
vn 0.000000 0.040445 -0.999182
vn 0.000000 0.040445 -0.999182
vn -0.436656 0.899628 0.000000
vn -0.436656 0.899628 0.000000
vn -0.436656 0.899628 0.000000
vn 0.000000 0.000000 1.000000
vn 0.000000 0.000000 1.000000
vn 0.000000 0.000000 -1.000000
vn 0.000000 0.000000 -1.000000
s off
f 1/1/1 2/2/2 3/3/3
f 6/4/4 7/5/5 20/6/6
f 20/6/7 7/5/8 9/7/9
f 9/7/10 8/8/11 20/6/12
f 10/9/13 11/10/14 5/11/15 4/12/16
s 5
f 9/13/17 7/5/18 18/27/19 19/28/20
s 6
f 6/4/21 8/14/22 16/26/23 17/25/24
f 10/15/25 4/16/26 13/17/27 12/18/28
s 7
f 4/16/29 5/19/30 14/20/31 13/17/32
s 5
f 5/19/33 11/21/34 15/22/35 14/20/36
s 8
f 12/23/37 15/24/38 11/10/39 10/9/40
s 6
f 12/18/28 13/17/27 17/25/24 16/26/23
s 7
f 17/25/41 13/17/32 14/20/31 18/27/42
s 5
f 14/20/36 15/22/35 19/28/20 18/27/19
s 8
f 15/24/38 12/23/37 16/29/43 19/30/44
s off
f 6/4/45 20/6/46 8/8/47
s 7
f 7/5/48 6/4/49 17/25/41 18/27/42
s 8
f 16/29/43 8/8/50 9/7/51 19/30/44
