# This file uses centimeters as units for non-parametric coordinates.

v 0.011409 -0.885439 -0.011409
v 0.000000 -0.885439 -0.016135
v -0.011409 -0.885439 -0.011409
v -0.016134 -0.885439 -0.000000
v -0.011409 -0.885439 0.011409
v 0.000000 -0.885439 0.016134
v 0.011409 -0.885439 0.011409
v 0.016134 -0.885439 -0.000000
v 0.013206 -0.840842 -0.013207
v 0.000000 -0.840842 -0.018677
v -0.013206 -0.840842 -0.013207
v -0.018677 -0.840842 -0.000000
v -0.013206 -0.840842 0.013206
v 0.000000 -0.840842 0.018677
v 0.013206 -0.840842 0.013206
v 0.018677 -0.840842 -0.000000
v 0.000000 -0.885958 -0.000000
v 0.000000 -0.853349 -0.000000
v 0.000000 -0.853103 0.019284
v -0.013636 -0.853103 0.013636
v -0.019285 -0.853103 -0.000000
v -0.013636 -0.853103 -0.013636
v 0.000000 -0.853103 -0.019285
v 0.013636 -0.853103 -0.013636
v 0.019285 -0.853103 -0.000000
v 0.013636 -0.853103 0.013636
v 0.016408 -0.846785 0.016408
v 0.000000 -0.846785 0.023205
v -0.016408 -0.846785 0.016408
v -0.023206 -0.846785 -0.000000
v -0.016408 -0.846785 -0.016409
v 0.000000 -0.846785 -0.023206
v 0.016408 -0.846785 -0.016409
v 0.023206 -0.846785 -0.000000
v 0.014174 -0.880806 0.014175
v 0.000000 -0.880806 0.020046
v -0.014176 -0.880806 0.014175
v -0.020046 -0.880806 -0.000000
v -0.014176 -0.880806 -0.014175
v 0.000000 -0.880806 -0.020047
v 0.014174 -0.880806 -0.014175
v 0.020046 -0.880806 -0.000000
v 0.000000 -0.874967 0.017383
v -0.012291 -0.874967 0.012291
v -0.017383 -0.874967 -0.000000
v -0.012291 -0.874967 -0.012292
v 0.000000 -0.874967 -0.017383
v 0.012291 -0.874967 -0.012292
v 0.017382 -0.874967 -0.000000
v 0.012291 -0.874967 0.012291
v 0.012729 -0.849969 -0.012730
v 0.000000 -0.849969 -0.018002
v -0.012729 -0.849969 -0.012730
v -0.018003 -0.849969 -0.000000
v -0.012729 -0.849969 0.012729
v 0.000000 -0.849969 0.018002
v 0.012729 -0.849969 0.012729
v 0.018003 -0.849969 -0.000000
v 0.012729 0.348122 -0.012730
v 0.000000 0.348122 -0.018002
v -0.012729 0.348122 -0.012730
v -0.018003 0.348122 -0.000000
v -0.012729 0.348122 0.012729
v 0.000000 0.348122 0.018002
v 0.012729 0.348122 0.012729
v 0.018003 0.348122 -0.000000
v 0.017116 -0.510321 -0.017115
v -0.000001 -0.510321 -0.024204
v -0.017114 -0.510321 -0.017115
v -0.024204 -0.510321 -0.000000
v -0.017114 -0.510321 0.017114
v -0.000001 -0.510321 0.024203
v 0.017116 -0.510321 0.017114
v 0.024202 -0.510321 -0.000000
v 0.017116 -0.333440 -0.017115
v -0.000001 -0.333440 -0.024204
v -0.017114 -0.333440 -0.017115
v -0.024204 -0.333440 -0.000000
v -0.017114 -0.333440 0.017114
v -0.000001 -0.333440 0.024203
v 0.017116 -0.333440 0.017114
v 0.024202 -0.333440 -0.000000
v -0.000001 -0.508785 -0.000000
v 0.000000 -0.334982 -0.000000
v 0.018305 -0.503323 -0.018304
v -0.000001 -0.503323 -0.025886
v -0.000001 -0.340229 -0.024991
v 0.017671 -0.340229 -0.017672
v -0.018305 -0.503323 -0.018304
v -0.017672 -0.340229 -0.017672
v -0.025886 -0.503323 -0.000000
v -0.024992 -0.340229 -0.000000
v -0.018305 -0.503323 0.018303
v -0.017672 -0.340229 0.017671
v -0.000001 -0.503323 0.025886
v -0.000001 -0.340229 0.024991
v 0.018305 -0.503323 0.018303
v 0.017671 -0.340229 0.017671
v 0.025886 -0.503323 -0.000000
v 0.024990 -0.340229 -0.000000
v 0.013729 -0.496672 -0.013730
v -0.000001 -0.496672 -0.019417
v -0.000001 -0.345688 -0.019417
v 0.013729 -0.345688 -0.013730
v -0.013731 -0.496672 -0.013730
v -0.013731 -0.345688 -0.013730
v -0.019416 -0.496672 -0.000000
v -0.019416 -0.345688 -0.000000
v -0.013731 -0.496672 0.013729
v -0.013731 -0.345688 0.013729
v -0.000001 -0.496672 0.019416
v -0.000001 -0.345688 0.019416
v 0.013729 -0.496672 0.013729
v 0.013729 -0.345688 0.013729
v 0.019415 -0.496672 -0.000000
v 0.019415 -0.345688 -0.000000
v -0.014147 -0.456859 0.014147
v -0.020008 -0.456859 -0.000000
v -0.014147 -0.456859 -0.014147
v -0.000001 -0.456859 -0.020008
v 0.014147 -0.456859 -0.014147
v 0.020008 -0.456859 -0.000000
v 0.014147 -0.456859 0.014147
v -0.000001 -0.456859 0.020007
v -0.014052 -0.388660 0.014053
v -0.019875 -0.388660 -0.000000
v -0.014052 -0.388660 -0.014053
v -0.000001 -0.388660 -0.019874
v 0.014053 -0.388660 -0.014053
v 0.019873 -0.388660 -0.000000
v 0.014053 -0.388660 0.014053
v -0.000001 -0.388660 0.019873
v 0.013378 0.321750 -0.013379
v -0.000000 0.321750 -0.018920
v -0.013380 0.321750 -0.013379
v -0.018919 0.321750 -0.000000
v -0.013380 0.321750 0.013378
v -0.000000 0.321750 0.018920
v 0.013378 0.321750 0.013378
v 0.018918 0.321750 -0.000000
v 0.015485 0.374047 -0.015487
v -0.000000 0.374047 -0.021902
v -0.015486 0.374047 -0.015487
v -0.021901 0.374047 -0.000000
v -0.015486 0.374047 0.015486
v -0.000000 0.374047 0.021901
v 0.015485 0.374047 0.015486
v 0.021901 0.374047 -0.000000
v -0.000000 0.325175 -0.000000
v -0.000000 0.359380 -0.000000
v -0.000000 0.359669 0.022614
v -0.015990 0.359669 0.015990
v -0.022614 0.359669 -0.000000
v -0.015990 0.359669 -0.015991
v -0.000000 0.359669 -0.022614
v 0.015991 0.359669 -0.015991
v 0.022612 0.359669 -0.000000
v 0.015991 0.359669 0.015990
v 0.019241 0.367077 0.019241
v -0.000000 0.367077 0.027212
v -0.019242 0.367077 0.019241
v -0.027212 0.367077 -0.000000
v -0.019242 0.367077 -0.019242
v -0.000000 0.367077 -0.027212
v 0.019241 0.367077 -0.019242
v 0.027212 0.367077 -0.000000
v 0.016622 0.327183 0.016622
v -0.000000 0.327183 0.023507
v -0.016623 0.327183 0.016622
v -0.023508 0.327183 -0.000000
v -0.016623 0.327183 -0.016622
v -0.000000 0.327183 -0.023508
v 0.016622 0.327183 -0.016622
v 0.023507 0.327183 -0.000000
v -0.000000 0.334031 0.020383
v -0.014414 0.334031 0.014413
v -0.020384 0.334031 -0.000000
v -0.014414 0.334031 -0.014414
v -0.000000 0.334031 -0.020384
v 0.014413 0.334031 -0.014414
v 0.020385 0.334031 -0.000000
v 0.014413 0.334031 0.014413
v -0.000000 0.359737 0.007489
v 0.013051 0.359737 0.008141
v 0.032864 0.413081 0.010026
v 0.077792 0.444905 0.010026
v 0.053457 0.504809 0.010026
v 0.045968 0.587179 0.010026
v 0.060944 0.648955 0.010026
v 0.100256 0.706988 0.010026
v 0.053457 0.733196 0.010026
v -0.000000 0.744429 0.010026
v 0.024780 0.391566 -0.000282
v 0.099123 0.440200 -0.000282
v 0.067539 0.508230 -0.000282
v 0.060382 0.586115 -0.000282
v 0.074128 0.643121 -0.000282
v 0.120445 0.710755 -0.000282
v 0.058541 0.749973 -0.000282
v -0.000000 0.763054 -0.000282
v -0.000000 0.411031 0.008793
v -0.000000 0.506940 0.008793
v -0.000000 0.588469 0.008793
v -0.000000 0.685577 0.008793
v -0.000000 0.359737 -0.008052
v 0.013051 0.359737 -0.008705
v 0.032862 0.413081 -0.010589
v -0.000000 0.411031 -0.009356
v 0.077792 0.444905 -0.010589
v 0.053457 0.504809 -0.010589
v 0.045968 0.587179 -0.010590
v 0.060944 0.648955 -0.010590
v 0.100255 0.706988 -0.010590
v 0.053457 0.733196 -0.010590
v -0.000000 0.744429 -0.010590
v -0.000000 0.506940 -0.009356
v -0.000000 0.588469 -0.009356
v -0.000000 0.685577 -0.009356
v -0.013051 0.359737 0.008141
v -0.032864 0.413081 0.010026
v -0.024781 0.391566 -0.000282
v -0.077792 0.444905 0.010026
v -0.099123 0.440200 -0.000282
v -0.053457 0.504809 0.010026
v -0.067539 0.508230 -0.000282
v -0.045968 0.587178 0.010026
v -0.060382 0.586115 -0.000282
v -0.060945 0.648955 0.010026
v -0.074128 0.643121 -0.000282
v -0.100256 0.706988 0.010026
v -0.120445 0.710755 -0.000282
v -0.053457 0.733196 0.010026
v -0.058541 0.749973 -0.000282
v -0.032863 0.413080 -0.010589
v -0.013052 0.359737 -0.008704
v -0.077792 0.444905 -0.010589
v -0.053457 0.504809 -0.010589
v -0.045968 0.587179 -0.010590
v -0.060945 0.648955 -0.010590
v -0.100256 0.706988 -0.010590
v -0.053457 0.733196 -0.010590
v -0.000000 0.336363 0.007489
v 0.010804 0.336363 0.008141
v -0.000000 0.336362 -0.008052
v 0.010804 0.336363 -0.008705
v -0.010806 0.336363 0.008141
v -0.010805 0.336362 -0.008704
v -0.000000 0.451200 -0.009356
v -0.000000 0.451200 0.008793
vt 0.475840 0.312388
vt 0.504165 0.312388
vt 0.504165 0.332867
vt 0.475840 0.332867
vt 0.532491 0.312388
vt 0.532491 0.332867
vt 0.560816 0.312388
vt 0.560816 0.332867
vt 0.589141 0.312388
vt 0.589141 0.332867
vt 0.617467 0.312388
vt 0.617467 0.332867
vt 0.390864 0.312388
vt 0.419189 0.312388
vt 0.419189 0.332867
vt 0.390864 0.332867
vt 0.447514 0.312388
vt 0.447514 0.332867
vt 0.504165 0.274820
vt 0.475840 0.462111
vt 0.504165 0.462111
vt 0.505158 0.493339
vt 0.532491 0.462111
vt 0.560816 0.462111
vt 0.589141 0.462111
vt 0.617467 0.462111
vt 0.390864 0.462111
vt 0.419189 0.462111
vt 0.447514 0.462111
vt 0.589141 0.423194
vt 0.617467 0.423194
vt 0.617467 0.441178
vt 0.589141 0.441178
vt 0.560816 0.423194
vt 0.560816 0.441178
vt 0.532491 0.423194
vt 0.532491 0.441178
vt 0.504165 0.423194
vt 0.504165 0.441178
vt 0.475840 0.423194
vt 0.475840 0.441178
vt 0.447514 0.423194
vt 0.447514 0.441178
vt 0.419189 0.423194
vt 0.419189 0.441178
vt 0.390864 0.423194
vt 0.390864 0.441178
vt 0.419189 0.349703
vt 0.390864 0.349703
vt 0.617467 0.349703
vt 0.589141 0.349703
vt 0.560816 0.349703
vt 0.532491 0.349703
vt 0.504165 0.349703
vt 0.475840 0.349703
vt 0.447514 0.349703
vt -0.749861 0.206697
vt -0.749861 0.181814
vt 1.758359 0.181814
vt 1.758359 0.206697
vt -0.749861 0.156931
vt 1.758359 0.156931
vt -0.749861 0.132048
vt 1.758359 0.132048
vt -0.749861 0.107165
vt 1.758359 0.107165
vt -0.749861 0.082282
vt 1.758359 0.082282
vt -0.749861 0.057398
vt 1.758359 0.057398
vt -0.749861 0.032515
vt 1.758359 0.032515
vt -0.749861 0.007632
vt 1.758359 0.007632
vt 0.329747 0.264687
vt 0.355015 0.264687
vt 0.355015 0.313975
vt 0.329747 0.313975
vt 0.380284 0.264687
vt 0.380284 0.313975
vt 0.178137 0.264687
vt 0.203405 0.264687
vt 0.203405 0.313975
vt 0.178137 0.313975
vt 0.228674 0.264687
vt 0.228674 0.313975
vt 0.253942 0.264687
vt 0.253942 0.313975
vt 0.279211 0.264687
vt 0.279211 0.313975
vt 0.304479 0.264687
vt 0.304479 0.313975
vt 0.553587 0.280136
vt 0.572004 0.272507
vt 0.553587 0.254090
vt 0.535169 0.272507
vt 0.527541 0.254090
vt 0.535169 0.235673
vt 0.553587 0.228044
vt 0.572004 0.235673
vt 0.579633 0.254090
vt 0.462586 0.272508
vt 0.444169 0.280136
vt 0.444169 0.254090
vt 0.425752 0.272508
vt 0.418123 0.254090
vt 0.425752 0.235673
vt 0.444169 0.228044
vt 0.462586 0.235673
vt 0.470215 0.254090
vt 0.329747 0.231439
vt 0.355015 0.231439
vt 0.355015 0.246745
vt 0.329747 0.246745
vt 0.355015 0.484426
vt 0.329747 0.484426
vt 0.329747 0.469918
vt 0.355015 0.469918
vt 0.380284 0.231439
vt 0.380284 0.246745
vt 0.380284 0.484426
vt 0.380284 0.469918
vt 0.178137 0.231439
vt 0.203405 0.231439
vt 0.203405 0.246745
vt 0.178137 0.246745
vt 0.203405 0.484426
vt 0.178137 0.484426
vt 0.178137 0.469918
vt 0.203405 0.469918
vt 0.228674 0.231439
vt 0.228674 0.246745
vt 0.228674 0.484426
vt 0.228674 0.469918
vt 0.253942 0.231439
vt 0.253942 0.246745
vt 0.253942 0.484426
vt 0.253942 0.469918
vt 0.279210 0.231439
vt 0.279210 0.246745
vt 0.279210 0.484426
vt 0.279210 0.469918
vt 0.304479 0.231439
vt 0.304479 0.246745
vt 0.304479 0.484426
vt 0.304479 0.469918
vt 0.329747 0.451599
vt 0.355015 0.451599
vt 0.380284 0.451599
vt 0.178137 0.451599
vt 0.203405 0.451599
vt 0.228674 0.451599
vt 0.253942 0.451599
vt 0.279211 0.451599
vt 0.304479 0.451599
vt 0.228674 0.398402
vt 0.203405 0.398402
vt 0.178137 0.398402
vt 0.380284 0.398402
vt 0.355015 0.398402
vt 0.329747 0.398402
vt 0.304479 0.398402
vt 0.279211 0.398402
vt 0.253942 0.398402
vt 0.475840 0.312388
vt 0.504165 0.312388
vt 0.504165 0.332867
vt 0.475840 0.332867
vt 0.532491 0.312388
vt 0.532491 0.332867
vt 0.560816 0.312388
vt 0.560816 0.332867
vt 0.589141 0.312388
vt 0.589141 0.332867
vt 0.617467 0.312388
vt 0.617467 0.332867
vt 0.390864 0.312388
vt 0.419189 0.312388
vt 0.419189 0.332867
vt 0.390864 0.332867
vt 0.447514 0.312388
vt 0.447514 0.332867
vt 0.504165 0.274820
vt 0.475840 0.462111
vt 0.504165 0.462111
vt 0.505158 0.493339
vt 0.532491 0.462111
vt 0.560816 0.462111
vt 0.589141 0.462111
vt 0.617467 0.462111
vt 0.390864 0.462111
vt 0.419189 0.462111
vt 0.447514 0.462111
vt 0.589141 0.423194
vt 0.617467 0.423194
vt 0.617467 0.441178
vt 0.589141 0.441178
vt 0.560816 0.423194
vt 0.560816 0.441178
vt 0.532491 0.423194
vt 0.532491 0.441178
vt 0.504165 0.423194
vt 0.504165 0.441178
vt 0.475840 0.423194
vt 0.475840 0.441178
vt 0.447514 0.423194
vt 0.447514 0.441178
vt 0.419189 0.423194
vt 0.419189 0.441178
vt 0.390864 0.423194
vt 0.390864 0.441178
vt 0.419189 0.349703
vt 0.390864 0.349703
vt 0.617467 0.349703
vt 0.589141 0.349703
vt 0.560816 0.349703
vt 0.532491 0.349703
vt 0.504165 0.349703
vt 0.475840 0.349703
vt 0.447514 0.349703
vt 0.244034 0.965909
vt 0.267982 0.950425
vt 0.304338 0.972369
vt 0.244034 0.976080
vt 0.318035 0.782610
vt 0.323940 0.737711
vt 0.350322 0.764501
vt 0.731629 0.870054
vt 0.731629 0.978303
vt 0.702842 0.978303
vt 0.702842 0.870054
vt 0.731629 0.786212
vt 0.702842 0.786212
vt 0.731629 0.652217
vt 0.702842 0.652217
vt 0.731629 0.514039
vt 0.702842 0.514039
vt 0.731629 0.699082
vt 0.702842 0.699083
vt 0.731629 0.844312
vt 0.702842 0.844312
vt 0.731629 0.976358
vt 0.702842 0.976358
vt 0.386781 0.914744
vt 0.244034 0.903344
vt 0.244034 0.802414
vt 0.342124 0.806273
vt 0.328384 0.672609
vt 0.244034 0.670273
vt 0.355865 0.786149
vt 0.244034 0.821494
vt 0.342124 0.941267
vt 0.428002 0.893811
vt 0.244034 0.965908
vt 0.244034 0.976080
vt 0.304339 0.972369
vt 0.267982 0.950425
vt 0.382608 0.782610
vt 0.376704 0.737711
vt 0.731629 0.870054
vt 0.731629 0.978303
vt 0.731629 0.786212
vt 0.731629 0.652217
vt 0.731629 0.514039
vt 0.731629 0.699082
vt 0.731629 0.844312
vt 0.731629 0.976358
vt 0.342124 0.941267
vt 0.428002 0.893811
vt 0.244034 0.821494
vt 0.244034 0.903344
vt 0.386781 0.914744
vt 0.244034 0.802414
vt 0.244034 0.670273
vt 0.328384 0.672609
vt 0.342124 0.806273
vt 0.355865 0.786149
vt 0.183730 0.972369
vt 0.220086 0.950425
vt 0.318035 0.782610
vt 0.350322 0.764501
vt 0.323940 0.737711
vt 0.731629 0.883058
vt 0.702842 0.883058
vt 0.702842 0.991307
vt 0.731629 0.991307
vt 0.731629 0.799216
vt 0.702842 0.799216
vt 0.731629 0.665221
vt 0.702842 0.665221
vt 0.731629 0.533570
vt 0.702842 0.533570
vt 0.731629 0.717432
vt 0.702842 0.717432
vt 0.731629 0.860517
vt 0.702842 0.860517
vt 0.145944 0.941267
vt 0.244034 0.961605
vt 0.101287 0.914744
vt 0.159684 0.672610
vt 0.145944 0.806273
vt 0.132203 0.786149
vt 0.220086 0.950424
vt 0.183729 0.972369
vt 0.382608 0.782610
vt 0.376703 0.737711
vt 0.731629 0.883058
vt 0.731629 0.991307
vt 0.731629 0.799216
vt 0.731629 0.665221
vt 0.731629 0.533570
vt 0.731629 0.717432
vt 0.731629 0.860517
vt 0.101287 0.914744
vt 0.145943 0.806273
vt 0.159684 0.672609
vt 0.132203 0.786149
vt 0.060066 0.893811
vt 0.244034 0.908101
vt 0.263862 0.908101
vt 0.263862 0.908101
vt 0.244034 0.908100
vt 0.224206 0.908101
vt 0.224206 0.908100
vt 0.323940 0.718038
vt 0.376704 0.718038
vt 0.376703 0.718038
vt 0.323940 0.718038
vt 0.060066 0.893811
vt 0.145944 0.941267
vt 0.244034 0.961605
vn 0.301374 -0.904632 -0.301355
vn 0.000009 -0.904644 -0.426169
vn 0.000022 -0.142073 -0.989856
vn 0.699952 -0.142072 -0.699916
vn -0.301345 -0.904652 -0.301322
vn -0.699955 -0.142072 -0.699913
vn -0.426172 -0.904642 0.000002
vn -0.989858 -0.142061 0.000005
vn -0.301343 -0.904652 0.301325
vn -0.699950 -0.142072 0.699918
vn 0.000009 -0.904643 0.426170
vn 0.000021 -0.142073 0.989856
vn 0.301372 -0.904632 0.301358
vn 0.699947 -0.142073 0.699921
vn 0.426214 -0.904622 0.000002
vn 0.989857 -0.142070 0.000004
vn 0.000000 -1.000000 0.000000
vn 0.107573 0.988360 -0.107577
vn 0.000001 0.988360 -0.152131
vn -0.000002 1.000000 -0.000003
vn -0.107574 0.988361 -0.107570
vn -0.152129 0.988361 0.000002
vn -0.107572 0.988360 0.107573
vn 0.000001 0.988360 0.152134
vn 0.107570 0.988360 0.107579
vn 0.152124 0.988361 0.000001
vn -0.670418 -0.317891 0.670437
vn 0.000001 -0.317893 0.948127
vn 0.000002 0.050180 0.998740
vn -0.706208 0.050192 0.706223
vn -0.948127 -0.317892 0.000002
vn -0.998739 0.050204 0.000003
vn -0.670424 -0.317898 -0.670427
vn -0.706216 0.050184 -0.706216
vn 0.000001 -0.317907 -0.948122
vn 0.000002 0.050169 -0.998741
vn 0.670429 -0.317898 -0.670422
vn 0.706217 0.050185 -0.706215
vn 0.948127 -0.317893 0.000003
vn 0.998739 0.050204 0.000005
vn 0.670422 -0.317891 0.670432
vn 0.706207 0.050192 0.706224
vn 0.696657 0.171314 0.696650
vn 0.000010 0.171352 0.985210
vn -0.696647 0.171365 0.696647
vn -0.985209 0.171359 0.000003
vn -0.696652 0.171368 -0.696641
vn 0.000010 0.171357 -0.985209
vn 0.696662 0.171316 -0.696644
vn 0.985221 0.171289 0.000003
vn 0.707084 0.000000 -0.707129
vn 0.000000 0.000000 -1.000000
vn 0.000000 0.000000 -1.000000
vn 0.707084 0.000000 -0.707129
vn -0.707084 0.000000 -0.707129
vn -0.707084 0.000000 -0.707129
vn -1.000000 0.000000 0.000000
vn -1.000000 0.000000 0.000000
vn -0.707084 0.000000 0.707129
vn -0.707084 0.000000 0.707129
vn 0.000000 0.000000 1.000000
vn 0.000000 0.000000 1.000000
vn 0.707084 0.000000 0.707129
vn 0.707084 0.000000 0.707129
vn 1.000000 0.000000 0.000000
vn 1.000000 0.000000 0.000000
vn 0.655061 0.376528 -0.655074
vn -0.000016 0.376512 -0.926412
vn -0.000024 -0.006442 -0.999979
vn 0.707084 -0.006449 -0.707100
vn -0.655082 0.376518 -0.655059
vn -0.707091 -0.006438 -0.707094
vn -0.926411 0.376514 -0.000004
vn -0.999979 -0.006436 -0.000005
vn -0.655090 0.376510 0.655055
vn -0.707096 -0.006437 0.707088
vn -0.000026 0.376504 0.926415
vn -0.000036 -0.006440 0.999979
vn 0.655062 0.376526 0.655074
vn 0.707081 -0.006448 0.707103
vn 0.926401 0.376538 -0.000004
vn 0.999979 -0.006453 -0.000005
vn -0.000017 -0.822894 -0.568195
vn 0.401766 -0.822904 -0.401763
vn 0.000002 -1.000000 0.000000
vn -0.401766 -0.822905 -0.401760
vn -0.568175 -0.822908 -0.000000
vn -0.401775 -0.822899 0.401765
vn -0.000017 -0.822887 0.568205
vn 0.401775 -0.822897 0.401766
vn 0.568188 -0.822899 -0.000001
vn 0.432950 0.790648 -0.432932
vn -0.000020 0.790659 -0.612257
vn 0.000000 1.000000 0.000000
vn -0.432924 0.790664 -0.432930
vn -0.612233 0.790677 -0.000004
vn -0.432925 0.790664 0.432927
vn -0.000019 0.790659 0.612258
vn 0.432951 0.790649 0.432929
vn 0.612301 0.790625 -0.000004
vn -0.000024 0.273369 -0.961909
vn 0.680165 0.273393 -0.680170
vn 0.664374 -0.342409 -0.664352
vn -0.000024 -0.342372 -0.939564
vn -0.680186 0.273353 -0.680166
vn -0.664379 -0.342349 -0.664377
vn -0.961916 0.273346 -0.000001
vn -0.939572 -0.342350 -0.000005
vn -0.680191 0.273355 0.680160
vn -0.664384 -0.342348 0.664374
vn -0.000027 0.273376 0.961907
vn -0.000027 -0.342372 0.939565
vn 0.680169 0.273399 0.680164
vn 0.664376 -0.342412 0.664348
vn 0.961904 0.273389 -0.000002
vn 0.939549 -0.342415 -0.000005
vn 0.651055 -0.390225 -0.651039
vn -0.000016 -0.390220 -0.920722
vn -0.651053 -0.390221 -0.651044
vn -0.920720 -0.390223 -0.000005
vn -0.651059 -0.390220 0.651038
vn -0.000026 -0.390222 0.920721
vn 0.651054 -0.390230 0.651037
vn 0.920723 -0.390216 -0.000004
vn -0.707094 0.006296 0.707092
vn -0.999980 0.006295 -0.000005
vn -0.707088 0.006297 -0.707098
vn -0.000024 0.006301 -0.999980
vn 0.707091 0.006308 -0.707094
vn 0.999980 0.006313 -0.000005
vn 0.707089 0.006307 0.707096
vn -0.000036 0.006299 0.999980
vn 0.230610 -0.945325 -0.230609
vn 0.000002 -0.945318 -0.326150
vn 0.000005 -0.142055 -0.989859
vn 0.699933 -0.142091 -0.699932
vn -0.230609 -0.945324 -0.230610
vn -0.699937 -0.142052 -0.699935
vn -0.326131 -0.945325 -0.000002
vn -0.989860 -0.142047 -0.000006
vn -0.230611 -0.945324 0.230610
vn -0.699940 -0.142045 0.699934
vn 0.000002 -0.945317 0.326152
vn 0.000005 -0.142040 0.989861
vn 0.230611 -0.945324 0.230608
vn 0.699936 -0.142084 0.699930
vn 0.326129 -0.945325 -0.000002
vn 0.989849 -0.142121 -0.000006
vn -0.000002 -1.000000 0.000002
vn 0.107567 0.988360 -0.107580
vn 0.000001 0.988357 -0.152151
vn 0.000005 1.000000 0.000001
vn -0.107573 0.988360 -0.107576
vn -0.152131 0.988360 0.000000
vn -0.107574 0.988361 0.107568
vn 0.000001 0.988360 0.152132
vn 0.107569 0.988361 0.107571
vn 0.152118 0.988362 -0.000000
vn -0.670425 -0.317932 0.670410
vn -0.000007 -0.317926 0.948116
vn 0.000002 0.050159 0.998741
vn -0.706227 0.050144 0.706208
vn -0.948115 -0.317929 -0.000003
vn -0.998742 0.050144 -0.000004
vn -0.670422 -0.317921 -0.670418
vn -0.706218 0.050147 -0.706216
vn -0.000007 -0.317905 -0.948123
vn 0.000002 0.050160 -0.998741
vn 0.670424 -0.317910 -0.670422
vn 0.706202 0.050171 -0.706230
vn 0.948119 -0.317915 -0.000003
vn 0.998741 0.050168 -0.000004
vn 0.670427 -0.317921 0.670413
vn 0.706211 0.050169 0.706221
vn 0.696648 0.171358 0.696648
vn -0.000004 0.171380 0.985205
vn -0.696644 0.171401 0.696641
vn -0.985199 0.171412 -0.000004
vn -0.696643 0.171393 -0.696644
vn -0.000004 0.171367 -0.985207
vn 0.696647 0.171350 -0.696650
vn 0.985212 0.171340 -0.000004
vn -0.000003 -0.010139 0.999949
vn -0.047293 -0.010126 0.998830
vn -0.030877 -0.004650 0.999512
vn 0.000001 -0.004653 0.999989
vn 0.737143 -0.483431 0.472139
vn 0.964222 -0.265078 -0.003053
vn 0.865828 -0.500341 -0.000022
vn 0.322941 -0.478730 0.816411
vn 0.322941 -0.478730 0.816411
vn 0.542057 0.135819 0.829293
vn 0.496953 0.217217 0.840151
vn 0.496953 0.217217 0.840151
vn 0.542057 0.135819 0.829293
vn 0.579051 -0.042542 0.814181
vn 0.579051 -0.042542 0.814181
vn 0.528928 -0.234346 0.815670
vn 0.528928 -0.234346 0.815670
vn 0.481636 -0.328182 0.812603
vn 0.481636 -0.328182 0.812603
vn 0.197874 0.485734 0.851416
vn 0.287900 0.478336 0.829643
vn 0.287900 0.478336 0.829643
vn 0.197874 0.485734 0.851416
vn -0.000001 0.491717 0.870755
vn -0.000001 0.491717 0.870755
vn -0.020398 0.004785 0.999781
vn 0.000001 0.004786 0.999989
vn 0.000000 -0.002571 0.999997
vn -0.021936 -0.002571 0.999756
vn -0.023571 0.000484 0.999722
vn 0.000000 0.000484 1.000000
vn -0.018343 0.005920 0.999814
vn 0.000000 -0.006250 0.999981
vn -0.006651 -0.018419 0.999808
vn -0.011639 -0.003078 0.999928
vn -0.000009 -0.010137 -0.999949
vn -0.000003 -0.004650 -0.999989
vn -0.030886 -0.004646 -0.999512
vn -0.047311 -0.010124 -0.998829
vn 0.737132 -0.483407 -0.472180
vn 0.964224 -0.265071 0.003034
vn 0.322941 -0.478725 -0.816414
vn 0.322941 -0.478725 -0.816414
vn 0.542076 0.135822 -0.829280
vn 0.542076 0.135822 -0.829280
vn 0.496972 0.217225 -0.840138
vn 0.496972 0.217225 -0.840138
vn 0.579067 -0.042544 -0.814170
vn 0.579067 -0.042544 -0.814170
vn 0.528938 -0.234349 -0.815662
vn 0.528938 -0.234349 -0.815662
vn 0.481643 -0.328183 -0.812598
vn 0.481643 -0.328183 -0.812598
vn 0.197880 0.485746 -0.851407
vn 0.197880 0.485746 -0.851407
vn 0.287907 0.478348 -0.829634
vn 0.287907 0.478348 -0.829634
vn 0.000000 0.491729 -0.870748
vn 0.000000 0.491729 -0.870748
vn -0.006652 -0.018424 -0.999808
vn -0.011642 -0.003078 -0.999928
vn -0.000000 -0.006252 -0.999981
vn -0.000001 0.004787 -0.999989
vn -0.020401 0.004786 -0.999780
vn -0.000001 -0.002573 -0.999997
vn -0.000000 0.000484 -1.000000
vn -0.023578 0.000484 -0.999722
vn -0.021940 -0.002572 -0.999756
vn -0.018349 0.005922 -0.999814
vn 0.030879 -0.004651 0.999512
vn 0.047286 -0.010128 0.998830
vn -0.737118 -0.483418 0.472190
vn -0.865825 -0.500347 0.000010
vn -0.964223 -0.265077 -0.002996
vn -0.322944 -0.478725 0.816413
vn -0.322944 -0.478725 0.816413
vn -0.542068 0.135821 0.829286
vn -0.542068 0.135821 0.829286
vn -0.496963 0.217222 0.840145
vn -0.496963 0.217222 0.840145
vn -0.579066 -0.042547 0.814170
vn -0.579066 -0.042547 0.814170
vn -0.528942 -0.234350 0.815660
vn -0.528942 -0.234350 0.815660
vn -0.481644 -0.328180 0.812599
vn -0.481644 -0.328180 0.812599
vn -0.197875 0.485736 0.851414
vn -0.197875 0.485736 0.851414
vn -0.287901 0.478339 0.829641
vn -0.287901 0.478339 0.829641
vn 0.006651 -0.018418 0.999808
vn 0.000000 -0.020943 0.999781
vn 0.020400 0.004786 0.999780
vn 0.023572 0.000484 0.999722
vn 0.021937 -0.002570 0.999756
vn 0.018344 0.005921 0.999814
vn 0.047293 -0.010127 -0.998830
vn 0.030879 -0.004649 -0.999512
vn -0.737124 -0.483400 -0.472201
vn -0.964225 -0.265068 0.003040
vn -0.322939 -0.478717 -0.816420
vn -0.322939 -0.478717 -0.816420
vn -0.542071 0.135820 -0.829284
vn -0.496958 0.217214 -0.840149
vn -0.496958 0.217214 -0.840149
vn -0.542071 0.135820 -0.829284
vn -0.579079 -0.042547 -0.814161
vn -0.579079 -0.042547 -0.814161
vn -0.528955 -0.234357 -0.815649
vn -0.528955 -0.234357 -0.815649
vn -0.481658 -0.328188 -0.812587
vn -0.481658 -0.328188 -0.812587
vn -0.197883 0.485749 -0.851405
vn -0.287911 0.478352 -0.829630
vn -0.287911 0.478352 -0.829630
vn -0.197883 0.485749 -0.851405
vn 0.020400 0.004785 -0.999781
vn 0.021939 -0.002572 -0.999756
vn 0.023577 0.000484 -0.999722
vn 0.018349 0.005923 -0.999814
vn 0.011642 -0.003079 -0.999928
vn -0.000006 0.002626 0.999997
vn -0.054588 0.002624 0.998506
vn -0.054611 0.002624 -0.998504
vn -0.000013 0.002627 -0.999997
vn 0.054575 0.002621 0.998506
vn 0.054585 0.002623 -0.998506
vn 0.995413 -0.095675 0.000014
vn 0.995413 -0.095675 0.000014
vn -0.995417 -0.095634 0.000015
vn -0.995417 -0.095634 0.000015
vn 0.011639 -0.003078 0.999928
vn 0.006652 -0.018425 -0.999808
vn 0.000001 -0.020951 -0.999781
s 1
f 1/1/1 2/2/2 40/3/3 41/4/4
f 2/2/2 3/5/5 39/6/6 40/3/3
f 3/5/5 4/7/7 38/8/8 39/6/6
f 4/7/7 5/9/9 37/10/10 38/8/8
f 5/9/9 6/11/11 36/12/12 37/10/10
f 6/13/11 7/14/13 35/15/14 36/16/12
f 7/14/13 8/17/15 42/18/16 35/15/14
f 8/17/15 1/1/1 41/4/4 42/18/16
f 2/2/2 1/1/1 17/19/17
f 3/5/5 2/2/2 17/19/17
f 4/7/7 3/5/5 17/19/17
f 5/9/9 4/7/7 17/19/17
f 6/11/11 5/9/9 17/19/17
f 7/14/13 6/13/11 17/19/17
f 8/17/15 7/14/13 17/19/17
f 1/1/1 8/17/15 17/19/17
f 9/20/18 10/21/19 18/22/20
f 10/21/19 11/23/21 18/22/20
f 11/23/21 12/24/22 18/22/20
f 12/24/22 13/25/23 18/22/20
f 13/25/23 14/26/24 18/22/20
f 14/27/24 15/28/25 18/22/20
f 15/28/25 16/29/26 18/22/20
f 16/29/26 9/20/18 18/22/20
f 20/30/27 19/31/28 28/32/29 29/33/30
f 21/34/31 20/30/27 29/33/30 30/35/32
f 22/36/33 21/34/31 30/35/32 31/37/34
f 23/38/35 22/36/33 31/37/34 32/39/36
f 24/40/37 23/38/35 32/39/36 33/41/38
f 25/42/39 24/40/37 33/41/38 34/43/40
f 26/44/41 25/42/39 34/43/40 27/45/42
f 19/46/28 26/44/41 27/45/42 28/47/29
f 28/47/29 27/45/42 15/28/25 14/27/24
f 29/33/30 28/32/29 14/26/24 13/25/23
f 30/35/32 29/33/30 13/25/23 12/24/22
f 31/37/34 30/35/32 12/24/22 11/23/21
f 32/39/36 31/37/34 11/23/21 10/21/19
f 33/41/38 32/39/36 10/21/19 9/20/18
f 34/43/40 33/41/38 9/20/18 16/29/26
f 27/45/42 34/43/40 16/29/26 15/28/25
f 36/16/12 35/15/14 50/48/43 43/49/44
f 37/10/10 36/12/12 43/50/44 44/51/45
f 38/8/8 37/10/10 44/51/45 45/52/46
f 39/6/6 38/8/8 45/52/46 46/53/47
f 40/3/3 39/6/6 46/53/47 47/54/48
f 41/4/4 40/3/3 47/54/48 48/55/49
f 42/18/16 41/4/4 48/55/49 49/56/50
f 35/15/14 42/18/16 49/56/50 50/48/43
f 44/51/45 43/50/44 19/31/28 20/30/27
f 45/52/46 44/51/45 20/30/27 21/34/31
f 46/53/47 45/52/46 21/34/31 22/36/33
f 47/54/48 46/53/47 22/36/33 23/38/35
f 48/55/49 47/54/48 23/38/35 24/40/37
f 49/56/50 48/55/49 24/40/37 25/42/39
f 50/48/43 49/56/50 25/42/39 26/44/41
f 43/49/44 50/48/43 26/44/41 19/46/28
s 2
f 51/57/51 52/58/52 60/59/53 59/60/54
f 52/58/52 53/61/55 61/62/56 60/59/53
f 53/61/55 54/63/57 62/64/58 61/62/56
f 54/63/57 55/65/59 63/66/60 62/64/58
f 55/65/59 56/67/61 64/68/62 63/66/60
f 56/67/61 57/69/63 65/70/64 64/68/62
f 57/69/63 58/71/65 66/72/66 65/70/64
f 58/71/65 51/73/51 59/74/54 66/72/66
s 3
f 101/75/67 102/76/68 120/77/69 121/78/70
f 102/76/68 105/79/71 119/80/72 120/77/69
f 105/81/71 107/82/73 118/83/74 119/84/72
f 107/82/73 109/85/75 117/86/76 118/83/74
f 109/85/75 111/87/77 124/88/78 117/86/76
f 124/88/78 111/87/77 113/89/79 123/90/80
f 113/89/79 115/91/81 122/92/82 123/90/80
f 115/91/81 101/75/67 121/78/70 122/92/82
f 68/93/83 67/94/84 83/95/85
f 69/96/86 68/93/83 83/95/85
f 70/97/87 69/96/86 83/95/85
f 71/98/88 70/97/87 83/95/85
f 72/99/89 71/98/88 83/95/85
f 73/100/90 72/99/89 83/95/85
f 74/101/91 73/100/90 83/95/85
f 67/94/84 74/101/91 83/95/85
f 75/102/92 76/103/93 84/104/94
f 76/103/93 77/105/95 84/104/94
f 77/105/95 78/106/96 84/104/94
f 78/106/96 79/107/97 84/104/94
f 79/107/97 80/108/98 84/104/94
f 80/108/98 81/109/99 84/104/94
f 81/109/99 82/110/100 84/104/94
f 82/110/100 75/102/92 84/104/94
f 67/111/84 68/112/83 86/113/101 85/114/102
f 76/115/93 75/116/92 88/117/103 87/118/104
f 68/112/83 69/119/86 89/120/105 86/113/101
f 77/121/95 76/115/93 87/118/104 90/122/106
f 69/123/86 70/124/87 91/125/107 89/126/105
f 78/127/96 77/128/95 90/129/106 92/130/108
f 70/124/87 71/131/88 93/132/109 91/125/107
f 79/133/97 78/127/96 92/130/108 94/134/110
f 71/131/88 72/135/89 95/136/111 93/132/109
f 80/137/98 79/133/97 94/134/110 96/138/112
f 72/135/89 73/139/90 97/140/113 95/136/111
f 81/141/99 80/137/98 96/138/112 98/142/114
f 73/139/90 74/143/91 99/144/115 97/140/113
f 82/145/100 81/141/99 98/142/114 100/146/116
f 74/143/91 67/111/84 85/114/102 99/144/115
f 75/116/92 82/145/100 100/146/116 88/117/103
f 85/114/102 86/113/101 102/76/68 101/75/67
f 87/118/104 88/117/103 104/147/117 103/148/118
f 86/113/101 89/120/105 105/79/71 102/76/68
f 90/122/106 87/118/104 103/148/118 106/149/119
f 89/126/105 91/125/107 107/82/73 105/81/71
f 92/130/108 90/129/106 106/150/119 108/151/120
f 91/125/107 93/132/109 109/85/75 107/82/73
f 94/134/110 92/130/108 108/151/120 110/152/121
f 93/132/109 95/136/111 111/87/77 109/85/75
f 96/138/112 94/134/110 110/152/121 112/153/122
f 95/136/111 97/140/113 113/89/79 111/87/77
f 98/142/114 96/138/112 112/153/122 114/154/123
f 97/140/113 99/144/115 115/91/81 113/89/79
f 100/146/116 98/142/114 114/154/123 116/155/124
f 99/144/115 85/114/102 101/75/67 115/91/81
f 88/117/103 100/146/116 116/155/124 104/147/117
f 118/83/74 117/86/76 125/156/125 126/157/126
f 119/84/72 118/83/74 126/157/126 127/158/127
f 120/77/69 119/80/72 127/159/127 128/160/128
f 121/78/70 120/77/69 128/160/128 129/161/129
f 122/92/82 121/78/70 129/161/129 130/162/130
f 123/90/80 122/92/82 130/162/130 131/163/131
f 124/88/78 123/90/80 131/163/131 132/164/132
f 125/156/125 117/86/76 124/88/78 132/164/132
f 108/151/120 126/157/126 125/156/125 110/152/121
f 106/150/119 127/158/127 126/157/126 108/151/120
f 103/148/118 128/160/128 127/159/127 106/149/119
f 104/147/117 129/161/129 128/160/128 103/148/118
f 116/155/124 130/162/130 129/161/129 104/147/117
f 114/154/123 131/163/131 130/162/130 116/155/124
f 112/153/122 132/164/132 131/163/131 114/154/123
f 110/152/121 125/156/125 132/164/132 112/153/122
s 4
f 133/165/133 134/166/134 172/167/135 173/168/136
f 134/166/134 135/169/137 171/170/138 172/167/135
f 135/169/137 136/171/139 170/172/140 171/170/138
f 136/171/139 137/173/141 169/174/142 170/172/140
f 137/173/141 138/175/143 168/176/144 169/174/142
f 138/177/143 139/178/145 167/179/146 168/180/144
f 139/178/145 140/181/147 174/182/148 167/179/146
f 140/181/147 133/165/133 173/168/136 174/182/148
f 134/166/134 133/165/133 149/183/149
f 135/169/137 134/166/134 149/183/149
f 136/171/139 135/169/137 149/183/149
f 137/173/141 136/171/139 149/183/149
f 138/175/143 137/173/141 149/183/149
f 139/178/145 138/177/143 149/183/149
f 140/181/147 139/178/145 149/183/149
f 133/165/133 140/181/147 149/183/149
f 141/184/150 142/185/151 150/186/152
f 142/185/151 143/187/153 150/186/152
f 143/187/153 144/188/154 150/186/152
f 144/188/154 145/189/155 150/186/152
f 145/189/155 146/190/156 150/186/152
f 146/191/156 147/192/157 150/186/152
f 147/192/157 148/193/158 150/186/152
f 148/193/158 141/184/150 150/186/152
f 152/194/159 151/195/160 160/196/161 161/197/162
f 153/198/163 152/194/159 161/197/162 162/199/164
f 154/200/165 153/198/163 162/199/164 163/201/166
f 155/202/167 154/200/165 163/201/166 164/203/168
f 156/204/169 155/202/167 164/203/168 165/205/170
f 157/206/171 156/204/169 165/205/170 166/207/172
f 158/208/173 157/206/171 166/207/172 159/209/174
f 151/210/160 158/208/173 159/209/174 160/211/161
f 160/211/161 159/209/174 147/192/157 146/191/156
f 161/197/162 160/196/161 146/190/156 145/189/155
f 162/199/164 161/197/162 145/189/155 144/188/154
f 163/201/166 162/199/164 144/188/154 143/187/153
f 164/203/168 163/201/166 143/187/153 142/185/151
f 165/205/170 164/203/168 142/185/151 141/184/150
f 166/207/172 165/205/170 141/184/150 148/193/158
f 159/209/174 166/207/172 148/193/158 147/192/157
f 168/180/144 167/179/146 182/212/175 175/213/176
f 169/174/142 168/176/144 175/214/176 176/215/177
f 170/172/140 169/174/142 176/215/177 177/216/178
f 171/170/138 170/172/140 177/216/178 178/217/179
f 172/167/135 171/170/138 178/217/179 179/218/180
f 173/168/136 172/167/135 179/218/180 180/219/181
f 174/182/148 173/168/136 180/219/181 181/220/182
f 167/179/146 174/182/148 181/220/182 182/212/175
f 176/215/177 175/214/176 151/195/160 152/194/159
f 177/216/178 176/215/177 152/194/159 153/198/163
f 178/217/179 177/216/178 153/198/163 154/200/165
f 179/218/180 178/217/179 154/200/165 155/202/167
f 180/219/181 179/218/180 155/202/167 156/204/169
f 181/220/182 180/219/181 156/204/169 157/206/171
f 182/212/175 181/220/182 157/206/171 158/208/173
f 175/213/176 182/212/175 158/208/173 151/210/160
s 5
f 183/221/183 184/222/184 185/223/185 201/224/186
s 6
f 185/225/187 184/226/188 193/227/189
f 186/228/190 185/229/187 193/230/189 194/231/191
s 7
f 187/232/192 186/228/193 194/231/194 195/233/195
f 188/234/196 187/232/192 195/233/195 196/235/197
f 189/236/198 188/234/196 196/235/197 197/237/199
f 190/238/200 189/236/198 197/237/199 198/239/201
s 8
f 191/240/202 190/238/203 198/239/204 199/241/205
f 192/242/206 191/240/202 199/241/205 200/243/207
s 5
f 186/244/208 249/245/209 201/224/186 185/223/185
f 202/246/210 187/247/211 188/248/212 203/249/213
f 203/249/213 188/248/212 189/250/214 204/251/215
f 191/252/216 204/251/215 190/253/217
s 9
f 205/254/218 208/255/219 207/256/220 206/257/221
s 6
f 207/258/222 193/227/189 206/259/223
f 209/260/224 194/231/225 193/230/189 207/261/222
s 10
f 210/262/226 195/233/227 194/231/228 209/260/229
f 211/263/230 196/235/231 195/233/227 210/262/226
f 212/264/232 197/237/233 196/235/231 211/263/230
f 213/265/234 198/239/235 197/237/233 212/264/232
s 11
f 214/266/236 199/241/237 198/239/238 213/265/239
f 215/267/240 200/243/241 199/241/237 214/266/236
s 9
f 214/268/242 213/269/243 218/270/244
f 248/271/245 209/272/246 207/256/220 208/255/219
f 216/273/247 217/274/248 211/275/249 210/276/250
f 217/274/248 218/270/244 212/277/251 211/275/249
s 5
f 183/221/183 201/224/186 220/278/252 219/279/253
s 12
f 220/280/254 221/281/255 219/282/256
f 222/283/257 223/284/258 221/285/255 220/286/254
s 13
f 224/287/259 225/288/260 223/284/261 222/283/262
f 226/289/263 227/290/264 225/288/260 224/287/259
f 228/291/265 229/292/266 227/290/264 226/289/263
f 230/293/267 231/294/268 229/292/266 228/291/265
s 8
f 232/295/269 233/296/270 231/294/271 230/293/272
f 192/242/206 200/243/207 233/296/270 232/295/269
s 5
f 232/297/273 204/251/215 192/298/274
f 249/245/209 222/299/275 220/278/252 201/224/186
f 202/246/210 203/249/213 226/300/276 224/301/277
f 203/249/213 204/251/215 228/302/278 226/300/276
s 9
f 205/254/218 235/303/279 234/304/280 208/255/219
s 12
f 234/305/281 235/306/282 221/281/255
f 236/307/283 234/308/281 221/285/255 223/284/284
s 14
f 237/309/285 236/307/286 223/284/287 225/288/288
f 238/310/289 237/309/285 225/288/288 227/290/290
f 239/311/291 238/310/289 227/290/290 229/292/292
f 240/312/293 239/311/291 229/292/292 231/294/294
s 11
f 241/313/295 240/312/296 231/294/297 233/296/298
f 215/267/240 241/313/295 233/296/298 200/243/241
s 9
f 236/314/299 248/271/245 208/255/219 234/304/280
f 216/273/247 237/315/300 238/316/301 217/274/248
f 217/274/248 238/316/301 239/317/302 218/270/244
f 240/318/303 218/270/244 239/317/302
s 6
f 206/259/223 193/227/189 184/226/188
s 12
f 221/281/255 235/306/282 219/282/256
s 5
f 184/222/184 183/221/183 242/319/304 243/320/305
s 9
f 205/254/218 206/257/221 245/321/306 244/322/307
s 5
f 183/221/183 219/279/253 246/323/308 242/319/304
s 9
f 235/303/279 205/254/218 244/322/307 247/324/309
s 6
f 206/259/223 184/226/188 243/325/310 245/326/311
s 12
f 219/282/256 235/306/282 247/327/312 246/328/313
s 5
f 204/251/215 230/329/314 228/302/278
f 232/297/273 230/329/314 204/251/215
f 191/252/216 192/298/274 204/251/215
f 190/253/217 204/251/215 189/250/214
s 9
f 241/330/315 215/331/316 218/270/244
f 241/330/315 218/270/244 240/318/303
f 218/270/244 213/269/243 212/277/251
f 214/268/242 218/270/244 215/331/316
f 237/315/300 216/273/247 248/271/245 236/314/299
f 210/276/250 209/272/246 248/271/245 216/273/247
s 5
f 187/247/211 202/246/210 249/245/209 186/244/208
f 224/301/277 222/299/275 249/245/209 202/246/210
