# This file uses centimeters as units for non-parametric coordinates.

g default
v -0.019445 -0.858524 0.019686
v 0.019445 -0.858524 0.019686
v -0.075115 0.550621 0.013178
v 0.075115 0.550621 0.013178
v -0.075115 0.550621 -0.013178
v 0.075115 0.550621 -0.013178
v -0.019445 -0.858524 -0.019686
v 0.019445 -0.858524 -0.019686
v -0.046966 0.385834 -0.013178
v -0.046966 0.385834 0.013178
v 0.046966 0.385834 0.013178
v 0.046966 0.385834 -0.013178
v -0.000641 0.825650 0.000000
vt 0.375000 0.250000
vt 0.625000 0.250000
vt 0.494891 0.375000
vt 0.625000 0.500000
vt 0.375000 0.500000
vt 0.375000 0.750000
vt 0.625000 0.750000
vt 0.625000 1.000000
vt 0.375000 1.000000
vt 0.875000 0.250000
vt 0.125000 0.250000
vt 0.125000 0.000000
vt 0.375000 0.000000
vt 0.625000 0.000000
vt 0.875000 0.000000
vt 0.375000 0.205624
vt 0.125000 0.205624
vt 0.625000 0.205624
vt 0.875000 0.205624
vt 0.375000 0.544376
vt 0.625000 0.544376
vn 0.000000 0.047861 0.998854
vn 0.000000 0.047861 0.998854
vn 0.000000 0.047861 0.998854
vn 0.964095 0.265559 0.000000
vn 0.964095 0.265559 0.000000
vn 0.964095 0.265559 0.000000
vn 0.000000 0.047861 -0.998854
vn 0.000000 0.047861 -0.998854
vn 0.000000 0.047861 -0.998854
vn 0.000000 -1.000000 0.000000
vn 0.000000 -1.000000 0.000000
vn 0.000000 -1.000000 0.000000
vn 0.000000 -1.000000 0.000000
vn 0.985722 -0.168383 0.000000
vn 0.985722 -0.168383 0.000000
vn 0.995429 -0.095505 0.000000
vn 0.995429 -0.095505 0.000000
vn -0.985722 -0.168383 0.000000
vn -0.985722 -0.168383 0.000000
vn -0.995429 -0.095505 0.000000
vn -0.995429 -0.095505 0.000000
vn -0.999756 -0.022111 0.000000
vn -0.999756 -0.022111 0.000000
vn 0.000000 0.002615 0.999997
vn 0.000000 0.002615 0.999997
vn 0.000000 0.005230 0.999986
vn 0.000000 0.005230 0.999986
vn 0.999756 -0.022111 0.000000
vn 0.999756 -0.022111 0.000000
vn 0.000000 0.005230 -0.999986
vn 0.000000 0.002615 -0.999997
vn 0.000000 0.002615 -0.999997
vn 0.000000 0.005230 -0.999986
vn -0.965237 0.261375 0.000000
vn -0.965237 0.261375 0.000000
vn -0.965237 0.261375 0.000000
vn 0.000000 0.000000 1.000000
vn 0.000000 0.000000 1.000000
vn 0.000000 0.000000 -1.000000
vn 0.000000 0.000000 -1.000000
s off
g temp_polySurface8207
f 3/1/1 4/2/2 13/3/3
f 13/3/4 4/2/5 6/4/6
f 6/4/7 5/5/8 13/3/9
f 7/6/10 8/7/11 2/8/12 1/9/13
s 5
f 6/10/14 4/2/15 11/18/16 12/19/17
s 6
f 3/1/18 5/11/19 9/17/20 10/16/21
f 10/16/21 9/17/20 7/12/22 1/13/23
s 7
f 11/18/24 10/16/25 1/13/26 2/14/27
s 5
f 8/15/28 12/19/17 11/18/16 2/14/29
s 8
f 7/6/30 9/20/31 12/21/32 8/7/33
s off
f 3/1/34 13/3/35 5/5/36
s 7
f 4/2/37 3/1/38 10/16/25 11/18/24
s 8
f 9/20/31 5/5/39 6/4/40 12/21/32
