# This file uses centimeters as units for non-parametric coordinates.

g default
v 0.016509 -0.899786 -0.019686
v -0.022381 -0.899786 -0.019686
v 0.016509 -0.899786 0.019686
v -0.022381 -0.899786 0.019686
v 0.016509 0.223814 0.019686
v 0.016509 0.223814 -0.019686
v -0.022381 0.223814 -0.019686
v -0.022381 0.223814 0.019686
v 0.007293 0.848302 -0.000000
v 0.080066 0.601197 -0.013178
v 0.080066 0.601197 0.013178
v -0.090008 0.576357 0.013178
v -0.090008 0.576357 -0.013178
vt 0.494891 0.375000
vt 0.375000 0.750000
vt 0.625000 0.750000
vt 0.625000 1.000000
vt 0.375000 1.000000
vt 0.125000 0.000000
vt 0.375000 0.000000
vt 0.375000 0.194610
vt 0.125000 0.194610
vt 0.625000 0.000000
vt 0.625000 0.194610
vt 0.875000 0.000000
vt 0.875000 0.194610
vt 0.375000 0.555390
vt 0.625000 0.555390
vt 0.375000 0.234188
vt 0.125000 0.234188
vt 0.375000 0.515812
vt 0.625000 0.515812
vt 0.875000 0.234188
vt 0.625000 0.234188
vn -0.007458 0.051063 -0.998668
vn -0.004789 0.034445 -0.999395
vn -0.004789 0.034445 -0.999395
vn -0.941547 0.336882 0.000000
vn -0.997034 0.076964 -0.000000
vn -0.997034 0.076964 -0.000000
vn -0.004789 0.034445 0.999395
vn -0.007458 0.051063 0.998668
vn -0.004789 0.034445 0.999395
vn 0.000000 -1.000000 0.000000
vn 0.000000 -1.000000 0.000000
vn 0.000000 -1.000000 0.000000
vn 0.000000 -1.000000 0.000000
vn -0.995513 -0.094620 -0.000000
vn -0.995513 -0.094620 -0.000000
vn 0.998214 0.059742 -0.000000
vn 0.998214 0.059742 -0.000000
vn 0.996522 -0.083328 -0.000000
vn 0.996522 -0.083328 -0.000000
vn 1.000000 0.000000 0.000000
vn 1.000000 0.000000 0.000000
vn 0.000000 0.000000 -1.000000
vn 0.000000 0.000000 -1.000000
vn -0.001059 0.008909 -0.999960
vn -0.001059 0.008909 -0.999960
vn -1.000000 0.000000 0.000000
vn -1.000000 0.000000 0.000000
vn -0.001059 0.008909 0.999960
vn -0.001059 0.008909 0.999960
vn 0.000000 0.000000 1.000000
vn 0.000000 0.000000 1.000000
vn 0.959266 0.282504 0.000000
s 1
g temp_polySurface8208
f 9/1/1 10/16/2 13/21/3
s 2
f 9/1/4 13/21/5 12/20/6
s 3
f 11/18/7 9/1/8 12/19/9
s off
f 3/2/10 4/3/11 2/4/12 1/5/13
s 2
f 8/13/14 12/20/6 13/21/5 7/11/15
s 5
f 10/16/16 11/17/17 5/9/18 6/8/19
f 3/6/20 1/7/21 6/8/19 5/9/18
s 1
f 1/7/22 2/10/23 7/11/24 6/8/25
s 2
f 2/10/26 4/12/27 8/13/14 7/11/15
s 3
f 5/14/28 8/15/29 4/3/30 3/2/31
s 1
f 13/21/3 10/16/2 6/8/25 7/11/24
s 3
f 5/14/28 11/18/7 12/19/9 8/15/29
s 5
f 11/17/17 10/16/16 9/1/32
