# This file uses centimeters as units for non-parametric coordinates.

v 0.013960 0.140435 -0.002919
v -0.026534 0.140435 -0.002919
v 0.013960 0.180929 -0.002919
v 0.016509 -0.895054 -0.019686
v -0.022381 -0.895054 -0.019686
v 0.016509 -0.895054 0.019686
v -0.022381 -0.895054 0.019686
v 0.016509 0.228546 0.019686
v 0.016509 0.228546 -0.019686
v -0.022381 0.228546 -0.019686
v -0.022381 0.228546 0.019686
v 0.029129 0.459670 0.013178
v 0.029129 0.459671 -0.013178
v -0.076852 0.459671 -0.013178
v -0.076852 0.459670 0.013178
v 0.007293 0.853034 -0.000000
v 0.080066 0.605929 -0.013178
v 0.080066 0.605929 0.013178
v -0.080066 0.605929 0.013178
v -0.080066 0.605929 -0.013178
vt 0.000000 0.000000
vt 1.000000 0.000000
vt 0.000000 1.000000
vt 0.494891 0.375000
vt 0.375000 0.750000
vt 0.625000 0.750000
vt 0.625000 1.000000
vt 0.375000 1.000000
vt 0.125000 0.000000
vt 0.375000 0.000000
vt 0.375000 0.194610
vt 0.125000 0.194610
vt 0.625000 0.000000
vt 0.625000 0.194610
vt 0.875000 0.000000
vt 0.875000 0.194610
vt 0.375000 0.555390
vt 0.625000 0.555390
vt 0.375000 0.205624
vt 0.125000 0.205624
vt 0.625000 0.205624
vt 0.875000 0.205624
vt 0.375000 0.544376
vt 0.625000 0.544376
vt 0.375000 0.234188
vt 0.125000 0.234188
vt 0.375000 0.515812
vt 0.625000 0.515812
vt 0.875000 0.234188
vt 0.625000 0.234188
vn 0.000000 0.000000 -1.000000
vn 0.000000 0.000000 -1.000000
vn 0.000000 0.000000 -1.000000
vn 0.000000 0.053255 -0.998581
vn 0.000000 0.026637 -0.999645
vn 0.000000 0.026637 -0.999645
vn -0.942816 0.333313 0.000000
vn -0.987398 0.158255 -0.000000
vn -0.987398 0.158255 -0.000000
vn 0.000000 0.026637 0.999645
vn 0.000000 0.053255 0.998581
vn 0.000000 0.026637 0.999645
vn 0.000000 -1.000000 0.000000
vn 0.000000 -1.000000 0.000000
vn 0.000000 -1.000000 0.000000
vn 0.000000 -1.000000 0.000000
vn -0.991983 -0.126373 -0.000000
vn -0.991983 -0.126373 -0.000000
vn 0.999703 -0.024361 -0.000000
vn 0.999703 -0.024361 -0.000000
vn 0.981079 -0.193608 -0.000000
vn 0.981079 -0.193608 -0.000000
vn 1.000000 0.000000 0.000000
vn 1.000000 0.000000 0.000000
vn 0.999628 -0.027270 -0.000000
vn 0.999628 -0.027270 -0.000000
vn 0.000000 0.000000 -1.000000
vn 0.000000 0.000000 -1.000000
vn 0.000000 0.014074 -0.999901
vn 0.000000 0.014074 -0.999901
vn -1.000000 0.000000 0.000000
vn -1.000000 0.000000 0.000000
vn -0.993311 -0.115469 -0.000000
vn -0.993311 -0.115469 -0.000000
vn 0.000000 0.014074 0.999901
vn 0.000000 0.014074 0.999901
vn 0.000000 0.000000 1.000000
vn 0.000000 0.000000 1.000000
vn 0.000000 0.014074 -0.999901
vn 0.000000 0.014074 -0.999901
vn 0.000000 0.014074 0.999901
vn 0.000000 0.014074 0.999901
vn 0.959266 0.282504 0.000000
s off
f 1/1/1 2/2/2 3/3/3
s 1
f 16/4/4 17/25/5 20/30/6
s 2
f 16/4/7 20/30/8 19/29/9
s 3
f 18/27/10 16/4/11 19/28/12
s off
f 6/5/13 7/6/14 5/7/15 4/8/16
s 2
f 19/29/9 20/30/8 14/21/17 15/22/18
s 5
f 17/25/19 18/26/20 12/20/21 13/19/22
f 6/9/23 4/10/24 9/11/25 8/12/26
s 1
f 4/10/27 5/13/28 10/14/29 9/11/30
s 2
f 5/13/31 7/15/32 11/16/33 10/14/34
s 3
f 8/17/35 11/18/36 7/6/37 6/5/38
s 5
f 8/12/26 9/11/25 13/19/22 12/20/21
s 1
f 9/11/30 10/14/29 14/21/39 13/19/40
s 2
f 10/14/34 11/16/33 15/22/18 14/21/17
s 3
f 12/23/41 15/24/42 11/18/36 8/17/35
s 1
f 20/30/6 17/25/5 13/19/40 14/21/39
s 3
f 12/23/41 18/27/10 19/28/12 15/24/42
s 5
f 18/26/20 17/25/19 16/4/43
