# This file uses centimeters as units for non-parametric coordinates.

v 0.013491 -0.788044 -0.013491
v -0.000000 -0.788044 -0.019079
v -0.013491 -0.788044 -0.013491
v -0.019079 -0.788044 -0.000000
v -0.013491 -0.788044 0.013491
v -0.000000 -0.788044 0.019079
v 0.013491 -0.788044 0.013491
v 0.019079 -0.788044 -0.000000
v 0.014039 -0.769979 -0.014040
v -0.000000 -0.769979 -0.019855
v -0.014040 -0.769979 -0.014040
v -0.019855 -0.769979 -0.000000
v -0.014040 -0.769979 0.014039
v -0.000000 -0.769979 0.019855
v 0.014039 -0.769979 0.014039
v 0.019855 -0.769979 -0.000000
v -0.000000 -0.787342 -0.000000
v -0.000000 -0.773967 -0.000000
v -0.000000 -0.779010 0.019006
v -0.013440 -0.779010 0.013439
v -0.019007 -0.779010 -0.000000
v -0.013440 -0.779010 -0.013440
v -0.000000 -0.779010 -0.019007
v 0.013440 -0.779010 -0.013440
v 0.019006 -0.779010 -0.000000
v 0.013440 -0.779010 0.013439
v 0.015914 -0.774389 0.015914
v -0.000000 -0.774389 0.022506
v -0.015914 -0.774389 0.015914
v -0.022506 -0.774389 -0.000000
v -0.015914 -0.774389 -0.015915
v -0.000000 -0.774389 -0.022506
v 0.015914 -0.774389 -0.015915
v 0.022506 -0.774389 -0.000000
v 0.016052 -0.783822 0.016052
v -0.000000 -0.783822 0.022701
v -0.016052 -0.783822 0.016052
v -0.022702 -0.783822 -0.000000
v -0.016052 -0.783822 -0.016052
v -0.000000 -0.783822 -0.022702
v 0.016052 -0.783822 -0.016052
v 0.022701 -0.783822 -0.000000
v 0.016256 0.355320 -0.016256
v -0.000000 0.355320 -0.022990
v -0.016256 0.355320 -0.016256
v -0.022990 0.355320 -0.000000
v -0.016256 0.355320 0.016256
v -0.000000 0.355320 0.022989
v 0.016256 0.355320 0.016256
v 0.022989 0.355320 -0.000000
v 0.018550 0.373630 -0.018551
v -0.000000 0.373630 -0.026235
v -0.018551 0.373630 -0.018551
v -0.026234 0.373630 -0.000000
v -0.018551 0.373630 0.018550
v -0.000000 0.373630 0.026234
v 0.018550 0.373630 0.018550
v 0.026234 0.373630 -0.000000
v -0.000000 0.369600 -0.000000
v -0.000000 0.364503 0.023783
v -0.016818 0.364503 0.016817
v -0.023784 0.364503 -0.000000
v -0.016818 0.364503 -0.016818
v -0.000000 0.364503 -0.023784
v 0.016818 0.364503 -0.016818
v 0.023783 0.364503 -0.000000
v 0.016818 0.364503 0.016817
v 0.020484 0.369174 0.020483
v -0.000000 0.369174 0.028968
v -0.020484 0.369174 0.020483
v -0.028968 0.369174 -0.000000
v -0.020484 0.369174 -0.020484
v -0.000000 0.369174 -0.028969
v 0.020484 0.369174 -0.020484
v 0.028968 0.369174 -0.000000
v 0.019489 0.359641 0.019488
v -0.000000 0.359641 0.027561
v -0.019489 0.359641 0.019488
v -0.027561 0.359641 -0.000000
v -0.019489 0.359641 -0.019489
v -0.000000 0.359641 -0.027561
v 0.019489 0.359641 -0.019489
v 0.027560 0.359641 -0.000000
v 0.013491 0.301260 -0.013491
v -0.000000 0.301260 -0.019079
v -0.013491 0.301260 -0.013491
v -0.019079 0.301260 -0.000000
v -0.013491 0.301260 0.013491
v -0.000000 0.301260 0.019079
v 0.013491 0.301260 0.013491
v 0.019079 0.301260 -0.000000
v 0.013765 0.319288 -0.013766
v -0.000000 0.319288 -0.019467
v -0.013765 0.319288 -0.013766
v -0.019468 0.319288 -0.000000
v -0.013765 0.319288 0.013765
v -0.000000 0.319288 0.019467
v 0.013765 0.319288 0.013765
v 0.019467 0.319288 -0.000000
v -0.000000 0.301962 -0.000000
v -0.000000 0.310294 0.019006
v -0.013440 0.310294 0.013439
v -0.019007 0.310294 -0.000000
v -0.013440 0.310294 -0.013440
v -0.000000 0.310294 -0.019007
v 0.013440 0.310294 -0.013440
v 0.019006 0.310294 -0.000000
v 0.013440 0.310294 0.013439
v 0.015914 0.314916 0.015914
v -0.000000 0.314916 0.022506
v -0.015914 0.314916 0.015914
v -0.022506 0.314916 -0.000000
v -0.015914 0.314916 -0.015915
v -0.000000 0.314916 -0.022506
v 0.015914 0.314916 -0.015915
v 0.022506 0.314916 -0.000000
v 0.016052 0.305482 0.016052
v -0.000000 0.305482 0.022701
v -0.016052 0.305482 0.016052
v -0.022702 0.305482 -0.000000
v -0.016052 0.305482 -0.016052
v -0.000000 0.305482 -0.022702
v 0.016052 0.305482 -0.016052
v 0.022701 0.305482 -0.000000
v 0.014783 0.337229 -0.014783
v -0.000000 0.337229 -0.020906
v -0.014783 0.337229 -0.014783
v -0.020906 0.337229 -0.000000
v -0.014783 0.337229 0.014783
v -0.000000 0.337229 0.020906
v 0.014783 0.337229 0.014783
v 0.020906 0.337229 -0.000000
v -0.000000 0.346144 0.021121
v -0.014936 0.346144 0.014935
v -0.021122 0.346144 -0.000000
v -0.014936 0.346144 -0.014936
v -0.000000 0.346144 -0.021122
v 0.014935 0.346144 -0.014936
v 0.021122 0.346144 -0.000000
v 0.014935 0.346144 0.014935
v 0.018244 0.350810 0.018244
v -0.000000 0.350810 0.025801
v -0.018244 0.350810 0.018244
v -0.025801 0.350810 -0.000000
v -0.018244 0.350810 -0.018244
v -0.000000 0.350810 -0.025801
v 0.018244 0.350810 -0.018244
v 0.025801 0.350810 -0.000000
v 0.017518 0.341382 0.017518
v -0.000000 0.341382 0.024774
v -0.017519 0.341382 0.017518
v -0.024775 0.341382 -0.000000
v -0.017519 0.341382 -0.017519
v -0.000000 0.341382 -0.024775
v 0.017518 0.341382 -0.017519
v 0.024774 0.341382 -0.000000
v -0.000000 0.328318 0.019701
v -0.013931 0.328318 0.013930
v -0.019701 0.328318 -0.000000
v -0.013931 0.328318 -0.013931
v -0.000000 0.328318 -0.019701
v 0.013930 0.328318 -0.013931
v 0.019701 0.328318 -0.000000
v 0.013930 0.328318 0.013930
v 0.016801 0.332891 0.016800
v -0.000000 0.332891 0.023760
v -0.016801 0.332891 0.016800
v -0.023761 0.332891 -0.000000
v -0.016801 0.332891 -0.016801
v -0.000000 0.332891 -0.023761
v 0.016801 0.332891 -0.016801
v 0.023760 0.332891 -0.000000
v 0.016318 0.323555 0.016318
v -0.000000 0.323555 0.023077
v -0.016318 0.323555 0.016318
v -0.023077 0.323555 -0.000000
v -0.016318 0.323555 -0.016319
v -0.000000 0.323555 -0.023078
v 0.016318 0.323555 -0.016319
v 0.023077 0.323555 -0.000000
v 0.012729 -0.850213 -0.012730
v -0.000000 -0.850213 -0.018003
v -0.012730 -0.850213 -0.012730
v -0.018003 -0.850213 -0.000000
v -0.012730 -0.850213 0.012729
v -0.000000 -0.850213 0.018002
v 0.012729 -0.850213 0.012729
v 0.018002 -0.850213 -0.000000
v 0.012729 0.343506 -0.012730
v -0.000000 0.343506 -0.018003
v -0.012730 0.343506 -0.012730
v -0.018003 0.343506 -0.000000
v -0.012730 0.343506 0.012729
v -0.000000 0.343506 0.018002
v 0.012729 0.343506 0.012729
v 0.018002 0.343506 -0.000000
v -0.000000 -0.857218 -0.000000
v 0.017114 -0.512405 -0.017115
v 0.000000 -0.512405 -0.024204
v -0.017114 -0.512405 -0.017115
v -0.024204 -0.512405 -0.000000
v -0.017114 -0.512405 0.017114
v 0.000000 -0.512405 0.024203
v 0.017114 -0.512405 0.017114
v 0.024203 -0.512405 -0.000000
v 0.017114 -0.315939 -0.017115
v 0.000000 -0.315939 -0.024204
v -0.017114 -0.315939 -0.017115
v -0.024204 -0.315939 -0.000000
v -0.017114 -0.315939 0.017114
v 0.000000 -0.315939 0.024203
v 0.017114 -0.315939 0.017114
v 0.024203 -0.315939 -0.000000
v 0.000000 -0.510698 -0.000000
v -0.000000 -0.317653 -0.000000
v 0.018303 -0.504632 -0.018304
v 0.000000 -0.504632 -0.025886
v 0.000000 -0.323480 -0.024992
v 0.017671 -0.323480 -0.017672
v -0.018304 -0.504632 -0.018304
v -0.017672 -0.323480 -0.017672
v -0.025885 -0.504632 -0.000000
v -0.024991 -0.323480 -0.000000
v -0.018304 -0.504632 0.018303
v -0.017672 -0.323480 0.017671
v 0.000000 -0.504632 0.025886
v 0.000000 -0.323480 0.024991
v 0.018303 -0.504632 0.018303
v 0.017671 -0.323480 0.017671
v 0.025886 -0.504632 -0.000000
v 0.024992 -0.323480 -0.000000
v 0.013730 -0.497244 -0.013730
v 0.000000 -0.497244 -0.019417
v 0.000000 -0.329545 -0.019417
v 0.013730 -0.329545 -0.013730
v -0.013730 -0.497244 -0.013730
v -0.013730 -0.329545 -0.013730
v -0.019417 -0.497244 -0.000000
v -0.019417 -0.329545 -0.000000
v -0.013729 -0.497244 0.013729
v -0.013729 -0.329545 0.013729
v 0.000000 -0.497244 0.019416
v 0.000000 -0.329545 0.019416
v 0.013730 -0.497244 0.013729
v 0.013730 -0.329545 0.013729
v 0.019416 -0.497244 -0.000000
v 0.019416 -0.329545 -0.000000
v -0.014147 -0.453023 0.014147
v -0.020007 -0.453023 -0.000000
v -0.014147 -0.453023 -0.014148
v 0.000000 -0.453023 -0.020008
v 0.014147 -0.453023 -0.014148
v 0.020007 -0.453023 -0.000000
v 0.014147 -0.453023 0.014147
v 0.000000 -0.453023 0.020007
v -0.014053 -0.377274 0.014053
v -0.019874 -0.377274 -0.000000
v -0.014053 -0.377274 -0.014053
v 0.000000 -0.377274 -0.019874
v 0.014052 -0.377274 -0.014053
v 0.019874 -0.377274 -0.000000
v 0.014052 -0.377274 0.014053
v 0.000000 -0.377274 0.019873
v -0.000000 0.297843 0.004307
v 0.009830 0.297843 0.007095
v 0.017015 0.361173 0.007095
v 0.029105 0.400153 0.007095
v 0.073312 0.446329 -0.000282
v 0.060165 0.644700 -0.000282
v 0.033079 0.760456 -0.000282
v -0.000000 0.840697 -0.000282
v 0.051797 0.435185 0.007095
v -0.000000 0.774242 0.007095
v 0.021144 0.724567 0.007748
v 0.043101 0.630577 0.007748
v -0.000000 0.691353 0.004307
v -0.000000 0.624441 0.004307
v -0.000000 0.441271 0.004307
v -0.000000 0.406197 0.004307
v -0.000000 0.366213 0.004307
v -0.000000 0.297844 -0.004871
v 0.009830 0.297844 -0.007659
v 0.017015 0.361173 -0.007659
v -0.000000 0.366213 -0.004871
v -0.000000 0.774242 -0.007659
v 0.021144 0.724567 -0.008311
v 0.043101 0.630577 -0.008311
v 0.051797 0.435185 -0.007659
v -0.000000 0.691353 -0.004871
v -0.000000 0.624441 -0.004871
v -0.000000 0.441271 -0.004871
v -0.000000 0.406197 -0.004871
v 0.029105 0.400153 -0.007659
v -0.009830 0.297843 0.007095
v -0.017015 0.361173 0.007095
v -0.021145 0.724567 0.007748
v -0.033079 0.760456 -0.000282
v -0.043101 0.630577 0.007748
v -0.060165 0.644700 -0.000282
v -0.051798 0.435185 0.007095
v -0.073313 0.446329 -0.000282
v -0.029106 0.400153 0.007095
v -0.017015 0.361173 -0.007659
v -0.009830 0.297844 -0.007659
v -0.021145 0.724567 -0.008311
v -0.043101 0.630577 -0.008311
v -0.051798 0.435185 -0.007659
v -0.029106 0.400153 -0.007659
v 0.027397 0.677572 0.007748
v -0.000000 0.657897 0.004307
v -0.027397 0.677572 0.007748
v -0.039403 0.702578 -0.000282
v -0.027397 0.677572 -0.008311
v -0.000000 0.657897 -0.004871
v 0.027397 0.677572 -0.008311
v 0.039403 0.702578 -0.000282
v 0.047449 0.535369 0.007421
v -0.000000 0.535344 0.004307
v -0.047449 0.535369 0.007421
v -0.069105 0.544846 -0.000282
v -0.047449 0.535369 -0.007985
v -0.000000 0.535344 -0.004871
v 0.047449 0.535369 -0.007985
v 0.069105 0.544846 -0.000282
v 0.038614 0.582973 0.007584
v -0.000000 0.579893 0.004307
v -0.038615 0.582973 0.007584
v -0.054241 0.596735 -0.000282
v -0.038615 0.582973 -0.008148
v -0.000000 0.579893 -0.004871
v 0.038614 0.582973 -0.008148
v 0.054241 0.596735 -0.000282
v 0.042322 0.487765 0.007258
v -0.000000 0.490796 0.004307
v -0.042323 0.487765 0.007258
v -0.062181 0.496881 -0.000282
v -0.042323 0.487765 -0.007822
v -0.000000 0.490796 -0.004871
v 0.042322 0.487765 -0.007822
v 0.062181 0.496881 -0.000282
vt 0.642495 0.323997
vt 0.685202 0.323997
vt 0.685202 0.356806
vt 0.642495 0.356806
vt 0.727909 0.323997
vt 0.727909 0.356806
vt 0.770616 0.323997
vt 0.770616 0.356806
vt 0.813323 0.323997
vt 0.813323 0.356806
vt 0.856030 0.323997
vt 0.856030 0.356806
vt 0.898737 0.323997
vt 0.898737 0.356806
vt 0.941444 0.323997
vt 0.941444 0.356806
vt 0.984151 0.323997
vt 0.984151 0.356806
vt 0.948570 0.264162
vt 0.934922 0.297111
vt 0.903837 0.264162
vt 0.934922 0.231213
vt 0.901973 0.217565
vt 0.869024 0.231213
vt 0.855376 0.264162
vt 0.869024 0.297111
vt 0.901973 0.310759
vt 0.663997 0.297111
vt 0.650349 0.264162
vt 0.698810 0.264162
vt 0.663997 0.231213
vt 0.696946 0.217565
vt 0.729895 0.231213
vt 0.743543 0.264162
vt 0.729895 0.297111
vt 0.696946 0.310759
vt 0.813323 0.389614
vt 0.856030 0.389614
vt 0.856030 0.422423
vt 0.813323 0.422423
vt 0.770616 0.389614
vt 0.770616 0.422423
vt 0.727909 0.389614
vt 0.727909 0.422423
vt 0.685202 0.389614
vt 0.685202 0.422423
vt 0.642495 0.389614
vt 0.642495 0.422423
vt 0.941444 0.389614
vt 0.984151 0.389614
vt 0.984151 0.422423
vt 0.941444 0.422423
vt 0.898737 0.389614
vt 0.898737 0.422423
vt 0.898737 0.455232
vt 0.856030 0.455232
vt 0.813323 0.455232
vt 0.770616 0.455232
vt 0.727909 0.455232
vt 0.685202 0.455232
vt 0.642495 0.455232
vt 0.984151 0.455232
vt 0.941444 0.455232
vt 0.642495 0.323997
vt 0.685202 0.323997
vt 0.685202 0.356806
vt 0.642495 0.356806
vt 0.727909 0.323997
vt 0.727909 0.356806
vt 0.770616 0.323997
vt 0.770616 0.356806
vt 0.813323 0.323997
vt 0.813323 0.356806
vt 0.856030 0.323997
vt 0.856030 0.356806
vt 0.898737 0.323997
vt 0.898737 0.356806
vt 0.941444 0.323997
vt 0.941444 0.356806
vt 0.984151 0.323997
vt 0.984151 0.356806
vt 0.663997 0.297111
vt 0.650349 0.264162
vt 0.698810 0.264162
vt 0.663997 0.231213
vt 0.696946 0.217565
vt 0.729895 0.231213
vt 0.743543 0.264162
vt 0.729895 0.297111
vt 0.696946 0.310759
vt 0.813323 0.389614
vt 0.856030 0.389614
vt 0.856030 0.422423
vt 0.813323 0.422423
vt 0.770616 0.389614
vt 0.770616 0.422423
vt 0.727909 0.389614
vt 0.727909 0.422423
vt 0.685202 0.389614
vt 0.685202 0.422423
vt 0.642495 0.389614
vt 0.642495 0.422423
vt 0.941444 0.389614
vt 0.984151 0.389614
vt 0.984151 0.422423
vt 0.941444 0.422423
vt 0.898737 0.389614
vt 0.898737 0.422423
vt 0.898737 0.455232
vt 0.856030 0.455232
vt 0.813323 0.455232
vt 0.770616 0.455232
vt 0.727909 0.455232
vt 0.685202 0.455232
vt 0.642495 0.455232
vt 0.984151 0.455232
vt 0.941444 0.455232
vt 0.642495 0.323997
vt 0.685202 0.323997
vt 0.685202 0.356806
vt 0.642495 0.356806
vt 0.727909 0.323997
vt 0.727909 0.356806
vt 0.770616 0.323997
vt 0.770616 0.356806
vt 0.813323 0.323997
vt 0.813323 0.356806
vt 0.856030 0.323997
vt 0.856030 0.356806
vt 0.898737 0.323997
vt 0.898737 0.356806
vt 0.941444 0.323997
vt 0.941444 0.356806
vt 0.984151 0.323997
vt 0.984151 0.356806
vt 0.948570 0.264162
vt 0.934922 0.297111
vt 0.903837 0.264162
vt 0.934922 0.231213
vt 0.901973 0.217565
vt 0.869024 0.231213
vt 0.855376 0.264162
vt 0.869024 0.297111
vt 0.901973 0.310759
vt 0.813323 0.389614
vt 0.856030 0.389614
vt 0.856030 0.422423
vt 0.813323 0.422423
vt 0.770616 0.389614
vt 0.770616 0.422423
vt 0.727909 0.389614
vt 0.727909 0.422423
vt 0.685202 0.389614
vt 0.685202 0.422423
vt 0.642495 0.389614
vt 0.642495 0.422423
vt 0.941444 0.389614
vt 0.984151 0.389614
vt 0.984151 0.422423
vt 0.941444 0.422423
vt 0.898737 0.389614
vt 0.898737 0.422423
vt 0.898737 0.455232
vt 0.856030 0.455232
vt 0.813323 0.455232
vt 0.770616 0.455232
vt 0.727909 0.455232
vt 0.685202 0.455232
vt 0.642495 0.455232
vt 0.984151 0.455232
vt 0.941444 0.455232
vt 0.642495 0.323997
vt 0.685202 0.323997
vt 0.685202 0.356806
vt 0.642495 0.356806
vt 0.727909 0.323997
vt 0.727909 0.356806
vt 0.770616 0.323997
vt 0.770616 0.356806
vt 0.813323 0.323997
vt 0.813323 0.356806
vt 0.856030 0.323997
vt 0.856030 0.356806
vt 0.898737 0.323997
vt 0.898737 0.356806
vt 0.941444 0.323997
vt 0.941444 0.356806
vt 0.984151 0.323997
vt 0.984151 0.356806
vt 0.813323 0.389614
vt 0.856030 0.389614
vt 0.856030 0.422423
vt 0.813323 0.422423
vt 0.770616 0.389614
vt 0.770616 0.422423
vt 0.727909 0.389614
vt 0.727909 0.422423
vt 0.685202 0.389614
vt 0.685202 0.422423
vt 0.642495 0.389614
vt 0.642495 0.422423
vt 0.941444 0.389614
vt 0.984151 0.389614
vt 0.984151 0.422423
vt 0.941444 0.422423
vt 0.898737 0.389614
vt 0.898737 0.422423
vt 0.898737 0.455232
vt 0.856030 0.455232
vt 0.813323 0.455232
vt 0.770616 0.455232
vt 0.727909 0.455232
vt 0.685202 0.455232
vt 0.642495 0.455232
vt 0.984151 0.455232
vt 0.941444 0.455232
vt 0.642495 0.323997
vt 0.685202 0.323997
vt 0.685202 0.356806
vt 0.642495 0.356806
vt 0.727909 0.323997
vt 0.727909 0.356806
vt 0.770616 0.323997
vt 0.770616 0.356806
vt 0.813323 0.323997
vt 0.813323 0.356806
vt 0.856030 0.323997
vt 0.856030 0.356806
vt 0.898737 0.323997
vt 0.898737 0.356806
vt 0.941444 0.323997
vt 0.941444 0.356806
vt 0.984151 0.323997
vt 0.984151 0.356806
vt 0.813323 0.389614
vt 0.856030 0.389614
vt 0.856030 0.422423
vt 0.813323 0.422423
vt 0.770616 0.389614
vt 0.770616 0.422423
vt 0.727909 0.389614
vt 0.727909 0.422423
vt 0.685202 0.389614
vt 0.685202 0.422423
vt 0.642495 0.389614
vt 0.642495 0.422423
vt 0.941444 0.389614
vt 0.984151 0.389614
vt 0.984151 0.422423
vt 0.941444 0.422423
vt 0.898737 0.389614
vt 0.898737 0.422423
vt 0.898737 0.455232
vt 0.856030 0.455232
vt 0.813323 0.455232
vt 0.770616 0.455232
vt 0.727909 0.455232
vt 0.685202 0.455232
vt 0.642495 0.455232
vt 0.984151 0.455232
vt 0.941444 0.455232
vt -0.749861 0.206697
vt -0.749861 0.181814
vt 1.758359 0.181814
vt 1.758359 0.206697
vt -0.749861 0.156931
vt 1.758359 0.156931
vt -0.749861 0.132048
vt 1.758359 0.132048
vt -0.749861 0.107165
vt 1.758359 0.107165
vt -0.749861 0.082282
vt 1.758359 0.082282
vt -0.749861 0.057398
vt 1.758359 0.057398
vt -0.749861 0.032515
vt 1.758359 0.032515
vt -0.749861 0.007632
vt 1.758359 0.007632
vt 0.086692 0.259341
vt 0.118174 0.272382
vt 0.086692 0.302083
vt 0.055209 0.272382
vt 0.042169 0.303864
vt 0.055209 0.335347
vt 0.086692 0.348387
vt 0.118174 0.335347
vt 0.131215 0.303864
vt 0.329747 0.264687
vt 0.355015 0.264687
vt 0.355015 0.313975
vt 0.329747 0.313975
vt 0.380284 0.264687
vt 0.380284 0.313975
vt 0.178137 0.264687
vt 0.203405 0.264687
vt 0.203405 0.313975
vt 0.178137 0.313975
vt 0.228674 0.264687
vt 0.228674 0.313975
vt 0.253942 0.264687
vt 0.253942 0.313975
vt 0.279211 0.264687
vt 0.279211 0.313975
vt 0.304479 0.264687
vt 0.304479 0.313975
vt 0.553587 0.280136
vt 0.572004 0.272507
vt 0.553587 0.254090
vt 0.535169 0.272507
vt 0.527541 0.254090
vt 0.535169 0.235673
vt 0.553587 0.228044
vt 0.572004 0.235673
vt 0.579633 0.254090
vt 0.462586 0.272508
vt 0.444169 0.280136
vt 0.444169 0.254090
vt 0.425752 0.272508
vt 0.418123 0.254090
vt 0.425752 0.235673
vt 0.444169 0.228044
vt 0.462586 0.235673
vt 0.470215 0.254090
vt 0.329747 0.231439
vt 0.355015 0.231439
vt 0.355015 0.246745
vt 0.329747 0.246745
vt 0.355015 0.484426
vt 0.329747 0.484426
vt 0.329747 0.469918
vt 0.355015 0.469918
vt 0.380284 0.231439
vt 0.380284 0.246745
vt 0.380284 0.484426
vt 0.380284 0.469918
vt 0.178137 0.231439
vt 0.203405 0.231439
vt 0.203405 0.246745
vt 0.178137 0.246745
vt 0.203405 0.484426
vt 0.178137 0.484426
vt 0.178137 0.469918
vt 0.203405 0.469918
vt 0.228674 0.231439
vt 0.228674 0.246745
vt 0.228674 0.484426
vt 0.228674 0.469918
vt 0.253942 0.231439
vt 0.253942 0.246745
vt 0.253942 0.484426
vt 0.253942 0.469918
vt 0.279210 0.231439
vt 0.279210 0.246745
vt 0.279210 0.484426
vt 0.279210 0.469918
vt 0.304479 0.231439
vt 0.304479 0.246745
vt 0.304479 0.484426
vt 0.304479 0.469918
vt 0.329747 0.451599
vt 0.355015 0.451599
vt 0.380284 0.451599
vt 0.178137 0.451599
vt 0.203405 0.451599
vt 0.228674 0.451599
vt 0.253942 0.451599
vt 0.279211 0.451599
vt 0.304479 0.451599
vt 0.228674 0.398402
vt 0.203405 0.398402
vt 0.178137 0.398402
vt 0.380284 0.398402
vt 0.355015 0.398402
vt 0.329747 0.398402
vt 0.304479 0.398402
vt 0.279211 0.398402
vt 0.253942 0.398402
vt 0.238135 0.996631
vt 0.259518 0.996631
vt 0.275148 0.898213
vt 0.238135 0.889747
vt 0.726417 0.949685
vt 0.726417 0.765050
vt 0.766021 0.765050
vt 0.766021 0.949685
vt 0.766021 0.636871
vt 0.726417 0.636871
vt 0.726417 0.515733
vt 0.766021 0.515733
vt 0.766021 0.853207
vt 0.726417 0.853207
vt 0.726417 0.972882
vt 0.766021 0.972882
vt 0.238135 0.847081
vt 0.284130 0.902870
vt 0.238135 0.996631
vt 0.238135 0.734691
vt 0.331893 0.744997
vt 0.297731 0.823934
vt 0.238135 0.790886
vt 0.238135 0.763676
vt 0.350810 0.773898
vt 0.330199 0.685580
vt 0.238135 0.680490
vt 0.238135 0.822588
vt 0.301449 0.832740
vt 0.238135 0.996631
vt 0.238135 0.889747
vt 0.275148 0.898213
vt 0.259518 0.996631
vt 0.726417 0.949685
vt 0.726417 0.765050
vt 0.726417 0.636871
vt 0.726417 0.515733
vt 0.726417 0.853207
vt 0.726417 0.972882
vt 0.238135 0.847081
vt 0.238135 0.996631
vt 0.284130 0.902870
vt 0.238135 0.734691
vt 0.238135 0.790886
vt 0.297731 0.823934
vt 0.331893 0.744997
vt 0.238135 0.763676
vt 0.238135 0.680490
vt 0.330199 0.685580
vt 0.350810 0.773898
vt 0.238135 0.822588
vt 0.301449 0.832740
vt 0.365806 0.954341
vt 0.346080 0.901600
vt 0.385531 0.901600
vt 0.346080 0.825041
vt 0.385531 0.825041
vt 0.385531 0.768244
vt 0.346080 0.768244
vt 0.201123 0.898213
vt 0.216752 0.996631
vt 0.764700 0.949685
vt 0.725775 0.949685
vt 0.725775 0.765049
vt 0.764700 0.765049
vt 0.764700 0.636871
vt 0.725775 0.636871
vt 0.725775 0.515733
vt 0.764700 0.515733
vt 0.764700 0.832460
vt 0.725775 0.832460
vt 0.725775 0.972882
vt 0.764700 0.972882
vt 0.192140 0.902870
vt 0.178540 0.823934
vt 0.144378 0.744997
vt 0.146071 0.685580
vt 0.125461 0.773898
vt 0.174822 0.832740
vt 0.216752 0.996631
vt 0.201123 0.898213
vt 0.764700 0.949685
vt 0.764700 0.765049
vt 0.764700 0.636871
vt 0.764700 0.515733
vt 0.764700 0.832460
vt 0.764700 0.972882
vt 0.192140 0.902870
vt 0.144378 0.744997
vt 0.178540 0.823934
vt 0.125461 0.773898
vt 0.146071 0.685580
vt 0.174822 0.832740
vt 0.365806 0.954341
vt 0.385531 0.901600
vt 0.346080 0.901600
vt 0.385531 0.825041
vt 0.346080 0.825041
vt 0.385531 0.768244
vt 0.346080 0.768244
vt 0.238135 0.600998
vt 0.341351 0.600998
vt 0.322132 0.665039
vt 0.238135 0.659865
vt 0.134919 0.600998
vt 0.154138 0.665039
vt 0.764700 0.627727
vt 0.725775 0.627727
vt 0.725775 0.735056
vt 0.764700 0.735056
vt 0.764700 0.627727
vt 0.764700 0.735056
vt 0.238135 0.600998
vt 0.134919 0.600998
vt 0.154138 0.665039
vt 0.238135 0.659865
vt 0.341351 0.600998
vt 0.322132 0.665039
vt 0.726417 0.627727
vt 0.766021 0.627727
vt 0.766021 0.735056
vt 0.726417 0.735056
vt 0.726417 0.627727
vt 0.726417 0.735056
vn 0.276116 -0.920611 -0.276107
vn -0.000005 -0.920617 -0.390467
vn -0.000012 -0.028808 -0.999585
vn 0.706824 -0.028791 -0.706803
vn -0.276104 -0.920616 -0.276103
vn -0.706813 -0.028811 -0.706813
vn -0.390466 -0.920617 0.000001
vn -0.999585 -0.028812 0.000002
vn -0.276101 -0.920615 0.276108
vn -0.706804 -0.028802 0.706823
vn -0.000005 -0.920613 0.390477
vn -0.000012 -0.028789 0.999586
vn 0.276113 -0.920610 0.276114
vn 0.706815 -0.028782 0.706812
vn 0.390499 -0.920603 0.000003
vn 0.999586 -0.028777 0.000002
vn 0.000001 -1.000000 0.000001
vn 0.272684 0.922654 -0.272676
vn -0.000004 0.922654 -0.385628
vn 0.000002 1.000000 -0.000001
vn -0.272688 0.922651 -0.272683
vn -0.385643 0.922648 0.000003
vn -0.272691 0.922649 0.272687
vn -0.000005 0.922653 0.385630
vn 0.272687 0.922652 0.272680
vn 0.385648 0.922646 0.000002
vn -0.707097 0.003510 0.707108
vn -0.000011 0.003508 0.999994
vn -0.000010 -0.055941 0.998434
vn -0.706001 -0.055945 0.705998
vn -0.999994 0.003511 0.000004
vn -0.998434 -0.055937 0.000006
vn -0.707102 0.003509 -0.707103
vn -0.706004 -0.055934 -0.705996
vn -0.000011 0.003513 -0.999994
vn -0.000011 -0.055924 -0.998435
vn 0.707113 0.003512 -0.707091
vn 0.706008 -0.055924 -0.705992
vn 0.999994 0.003511 0.000004
vn 0.998434 -0.055936 0.000006
vn 0.707109 0.003512 0.707096
vn 0.706006 -0.055937 0.705993
vn 0.485722 -0.726748 -0.485707
vn -0.000006 -0.726750 -0.686902
vn -0.000009 -0.081894 -0.996641
vn 0.704742 -0.081892 -0.704721
vn -0.485719 -0.726742 -0.485719
vn -0.704732 -0.081891 -0.704732
vn -0.686908 -0.726744 -0.000000
vn -0.996642 -0.081888 0.000001
vn -0.485713 -0.726750 0.485714
vn -0.704732 -0.081883 0.704732
vn -0.000007 -0.726760 0.686892
vn -0.000009 -0.081880 0.996642
vn 0.485717 -0.726755 0.485703
vn 0.704742 -0.081884 0.704722
vn 0.686915 -0.726738 -0.000000
vn 0.996642 -0.081887 -0.000000
vn 0.285200 0.915052 -0.285203
vn -0.000004 0.915043 -0.403356
vn 0.000001 1.000000 -0.000001
vn -0.285220 0.915042 -0.285215
vn -0.403358 0.915042 0.000001
vn -0.285218 0.915044 0.285209
vn -0.000004 0.915049 0.403343
vn 0.285197 0.915054 0.285200
vn 0.403325 0.915057 0.000003
vn -0.703926 -0.094800 0.703919
vn -0.000009 -0.094802 0.995496
vn -0.000008 -0.152023 0.988377
vn -0.698898 -0.152022 0.698879
vn -0.995496 -0.094800 0.000002
vn -0.988378 -0.152014 0.000004
vn -0.703925 -0.094811 -0.703918
vn -0.698896 -0.152028 -0.698879
vn -0.000009 -0.094819 -0.995495
vn -0.000008 -0.152031 -0.988376
vn 0.703927 -0.094824 -0.703915
vn 0.698888 -0.152012 -0.698891
vn 0.995494 -0.094824 0.000002
vn 0.988381 -0.151998 0.000005
vn 0.703927 -0.094813 0.703916
vn 0.698889 -0.152006 0.698891
vn 0.276124 -0.920606 -0.276117
vn -0.000004 -0.920612 -0.390479
vn -0.000011 -0.028780 -0.999586
vn 0.706824 -0.028765 -0.706805
vn -0.276113 -0.920610 -0.276113
vn -0.706813 -0.028782 -0.706815
vn -0.390478 -0.920612 0.000000
vn -0.999586 -0.028784 0.000002
vn -0.276110 -0.920610 0.276117
vn -0.706805 -0.028774 0.706823
vn -0.000005 -0.920608 0.390487
vn -0.000012 -0.028763 0.999586
vn 0.276122 -0.920605 0.276121
vn 0.706815 -0.028757 0.706813
vn 0.390511 -0.920598 0.000000
vn 0.999587 -0.028749 0.000002
vn 0.000001 -1.000000 -0.000000
vn -0.707097 0.003536 0.707108
vn -0.000012 0.003534 0.999994
vn -0.000011 -0.021441 0.999770
vn -0.706943 -0.021440 0.706945
vn -0.999994 0.003536 0.000004
vn -0.999770 -0.021442 0.000006
vn -0.707101 0.003536 -0.707103
vn -0.706941 -0.021443 -0.706947
vn -0.000011 0.003539 -0.999994
vn -0.000011 -0.021442 -0.999770
vn 0.707113 0.003536 -0.707092
vn 0.706953 -0.021444 -0.706935
vn 0.999994 0.003536 0.000004
vn 0.999770 -0.021441 0.000006
vn 0.707108 0.003536 0.707097
vn 0.706955 -0.021440 0.706934
vn 0.580634 0.570744 0.580616
vn -0.000009 0.570754 0.821121
vn -0.580627 0.570738 0.580630
vn -0.821139 0.570729 0.000005
vn -0.580630 0.570725 -0.580638
vn -0.000009 0.570728 -0.821139
vn 0.580637 0.570732 -0.580626
vn 0.821145 0.570720 0.000005
vn 0.517405 -0.681616 -0.517390
vn -0.000000 -0.681654 -0.731675
vn -0.000000 -0.050958 -0.998701
vn 0.706196 -0.050943 -0.706182
vn -0.517363 -0.681669 -0.517361
vn -0.706192 -0.050966 -0.706183
vn -0.731658 -0.681671 0.000005
vn -0.998700 -0.050966 0.000006
vn -0.517369 -0.681660 0.517368
vn -0.706192 -0.050957 0.706185
vn -0.000000 -0.681645 0.731683
vn -0.000000 -0.050943 0.998702
vn 0.517410 -0.681607 0.517397
vn 0.706196 -0.050934 0.706182
vn 0.731742 -0.681581 0.000004
vn 0.998702 -0.050933 0.000006
vn -0.705349 -0.070660 0.705330
vn -0.000004 -0.070679 0.997499
vn -0.000010 -0.121222 0.992625
vn -0.701901 -0.121223 0.701883
vn -0.997502 -0.070643 0.000004
vn -0.992625 -0.121230 0.000001
vn -0.705350 -0.070649 -0.705330
vn -0.701902 -0.121219 -0.701883
vn -0.000004 -0.070664 -0.997500
vn -0.000009 -0.121214 -0.992626
vn 0.705339 -0.070685 -0.705337
vn 0.701892 -0.121220 -0.701893
vn 0.997497 -0.070704 0.000003
vn 0.992626 -0.121218 -0.000000
vn 0.705338 -0.070696 0.705337
vn 0.701891 -0.121224 0.701893
vn 0.600066 0.529000 0.600066
vn -0.000009 0.529002 0.848620
vn -0.600087 0.528965 0.600077
vn -0.848666 0.528929 0.000001
vn -0.600095 0.528949 -0.600082
vn -0.000009 0.528980 -0.848635
vn 0.600074 0.528984 -0.600072
vn 0.848628 0.528990 -0.000000
vn 0.539789 -0.645951 -0.539791
vn -0.000008 -0.645945 -0.763384
vn -0.000010 -0.045257 -0.998975
vn 0.706379 -0.045261 -0.706385
vn -0.539810 -0.645923 -0.539804
vn -0.706390 -0.045268 -0.706374
vn -0.763411 -0.645913 0.000001
vn -0.998975 -0.045275 0.000002
vn -0.539799 -0.645947 0.539787
vn -0.706392 -0.045279 0.706371
vn -0.000009 -0.645984 0.763351
vn -0.000010 -0.045274 0.998975
vn 0.539777 -0.645975 0.539775
vn 0.706381 -0.045271 0.706383
vn 0.763373 -0.645959 0.000001
vn 0.998975 -0.045274 0.000002
vn -0.705930 -0.057830 0.705917
vn -0.000005 -0.057795 0.998329
vn -0.000001 -0.075983 0.997109
vn -0.705060 -0.075963 0.705067
vn -0.998325 -0.057861 0.000004
vn -0.997112 -0.075950 0.000005
vn -0.705932 -0.057848 -0.705913
vn -0.705068 -0.075960 -0.705060
vn -0.000005 -0.057824 -0.998327
vn -0.000001 -0.075979 -0.997109
vn 0.705925 -0.057807 -0.705924
vn 0.705069 -0.075992 -0.705056
vn 0.998329 -0.057795 0.000004
vn 0.997108 -0.075999 0.000005
vn 0.705922 -0.057790 0.705928
vn 0.705060 -0.075996 0.705064
vn 0.590737 0.549598 0.590739
vn -0.000002 0.549630 0.835408
vn -0.590696 0.549675 0.590707
vn -0.835357 0.549708 0.000004
vn -0.590693 0.549698 -0.590690
vn -0.000001 0.549671 -0.835381
vn 0.590734 0.549621 -0.590720
vn 0.835441 0.549580 0.000004
vn 0.707107 0.000000 -0.707107
vn 0.000000 0.000000 -1.000000
vn 0.000000 0.000000 -1.000000
vn 0.707107 0.000000 -0.707107
vn -0.707107 0.000000 -0.707107
vn -0.707107 0.000000 -0.707107
vn -1.000000 0.000000 0.000000
vn -1.000000 0.000000 0.000000
vn -0.707107 0.000000 0.707107
vn -0.707107 0.000000 0.707107
vn 0.000000 0.000000 1.000000
vn 0.000000 0.000000 1.000000
vn 0.707107 0.000000 0.707107
vn 0.707107 0.000000 0.707107
vn 1.000000 0.000000 0.000000
vn 1.000000 0.000000 0.000000
vn 0.000000 -0.931924 -0.362654
vn 0.256435 -0.931923 -0.256439
vn 0.000000 -1.000000 0.000000
vn -0.256435 -0.931923 -0.256439
vn -0.362652 -0.931925 0.000000
vn -0.256435 -0.931923 0.256439
vn 0.000000 -0.931924 0.362654
vn 0.256435 -0.931923 0.256439
vn 0.362652 -0.931925 0.000000
vn 0.661977 0.351559 -0.661961
vn 0.000012 0.351566 -0.936163
vn 0.000015 -0.005800 -0.999983
vn 0.707104 -0.005797 -0.707086
vn -0.661970 0.351560 -0.661968
vn -0.707093 -0.005799 -0.707097
vn -0.936168 0.351552 0.000004
vn -0.999983 -0.005798 0.000000
vn -0.661971 0.351559 0.661968
vn -0.707096 -0.005801 0.707094
vn 0.000002 0.351562 0.936164
vn 0.000002 -0.005799 0.999983
vn 0.661979 0.351555 0.661961
vn 0.707101 -0.005796 0.707089
vn 0.936169 0.351551 -0.000004
vn 0.999983 -0.005794 -0.000005
vn 0.000004 -0.819098 -0.573654
vn 0.405638 -0.819095 -0.405637
vn -0.000001 -1.000000 -0.000000
vn -0.405644 -0.819088 -0.405646
vn -0.573680 -0.819079 -0.000001
vn -0.405653 -0.819081 0.405649
vn 0.000004 -0.819091 0.573663
vn 0.405648 -0.819089 0.405639
vn 0.573657 -0.819096 -0.000002
vn 0.433740 0.789770 -0.433743
vn 0.000008 0.789772 -0.613401
vn 0.000000 1.000000 0.000000
vn -0.433734 0.789777 -0.433736
vn -0.613393 0.789778 -0.000003
vn -0.433736 0.789777 0.433734
vn 0.000008 0.789772 0.613401
vn 0.433742 0.789770 0.433741
vn 0.613390 0.789780 -0.000003
vn 0.000008 0.257569 -0.966260
vn 0.683254 0.257557 -0.683248
vn 0.669575 -0.321459 -0.669577
vn 0.000015 -0.321475 -0.946918
vn -0.683249 0.257573 -0.683248
vn -0.669573 -0.321472 -0.669573
vn -0.966256 0.257583 -0.000000
vn -0.946919 -0.321473 -0.000002
vn -0.683250 0.257585 0.683242
vn -0.669571 -0.321481 0.669570
vn 0.000006 0.257578 0.966257
vn 0.000012 -0.321478 0.946917
vn 0.683259 0.257561 0.683242
vn 0.669578 -0.321460 0.669574
vn 0.966264 0.257553 -0.000002
vn 0.946926 -0.321452 -0.000005
vn 0.658296 -0.365097 -0.658293
vn 0.000016 -0.365106 -0.930966
vn -0.658287 -0.365114 -0.658293
vn -0.930961 -0.365119 0.000003
vn -0.658285 -0.365121 0.658292
vn 0.000006 -0.365111 0.930964
vn 0.658297 -0.365101 0.658291
vn 0.930969 -0.365099 -0.000005
vn -0.707094 0.005673 0.707097
vn -0.999984 0.005671 0.000001
vn -0.707090 0.005671 -0.707101
vn 0.000016 0.005673 -0.999984
vn 0.707100 0.005670 -0.707091
vn 0.999984 0.005667 -0.000005
vn 0.707098 0.005669 0.707093
vn 0.000003 0.005672 0.999984
vn 0.000002 0.011217 0.999937
vn -0.201381 0.010987 0.979451
vn -0.158744 0.014373 0.987215
vn 0.000001 0.014558 0.999894
vn -0.000001 0.117930 0.993022
vn 0.261200 0.113836 0.958549
vn 0.261200 0.113836 0.958549
vn -0.000001 0.117930 0.993022
vn 0.403900 0.088342 0.910528
vn 0.403900 0.088342 0.910528
vn 0.349575 0.121553 0.928990
vn 0.349575 0.121553 0.928990
vn 0.338084 0.006759 0.941092
vn 0.338084 0.006759 0.941092
vn 0.312033 0.060845 0.948121
vn 0.312033 0.060845 0.948121
vn 0.000002 -0.021903 0.999760
vn -0.119402 -0.021747 0.992608
vn 0.000001 -0.033617 0.999435
vn 0.000001 -0.007767 0.999970
vn -0.086458 -0.007738 0.996226
vn -0.110178 -0.013893 0.993815
vn 0.000002 -0.013978 0.999902
vn 0.000000 0.006975 0.999976
vn -0.063577 0.006960 0.997953
vn -0.064456 -0.002665 0.997917
vn 0.000000 -0.002670 0.999996
vn 0.000000 0.019566 0.999809
vn -0.090720 0.019485 0.995686
vn 0.000002 0.011215 -0.999937
vn 0.000001 0.014555 -0.999894
vn -0.158717 0.014370 -0.987220
vn -0.201348 0.010985 -0.979458
vn -0.000003 0.117930 -0.993022
vn -0.000003 0.117930 -0.993022
vn 0.261204 0.113835 -0.958548
vn 0.261204 0.113835 -0.958548
vn 0.403901 0.088342 -0.910527
vn 0.403901 0.088342 -0.910527
vn 0.349576 0.121554 -0.928989
vn 0.349576 0.121554 -0.928989
vn 0.338079 0.006760 -0.941094
vn 0.338079 0.006760 -0.941094
vn 0.312028 0.060845 -0.948123
vn 0.312028 0.060845 -0.948123
vn 0.000000 -0.021899 -0.999760
vn -0.000000 -0.033611 -0.999435
vn -0.119385 -0.021743 -0.992610
vn 0.000000 -0.007763 -0.999970
vn 0.000001 -0.013976 -0.999902
vn -0.110162 -0.013891 -0.993817
vn -0.086449 -0.007734 -0.996226
vn 0.000001 0.006972 -0.999976
vn 0.000003 -0.002670 -0.999996
vn -0.064447 -0.002664 -0.997918
vn -0.063568 0.006959 -0.997953
vn 0.000000 0.019562 -0.999809
vn -0.090705 0.019481 -0.995687
vn 0.459925 -0.887958 0.000000
vn 0.672038 -0.740517 0.000000
vn 0.672038 -0.740517 0.000000
vn 0.905694 -0.423931 0.000000
vn 0.905694 -0.423931 0.000000
vn 0.978679 -0.205398 -0.000001
vn 0.978679 -0.205398 -0.000001
vn 0.993626 -0.112731 -0.000002
vn 0.993626 -0.112731 -0.000002
vn 0.158746 0.014373 0.987215
vn 0.201384 0.010987 0.979451
vn -0.261202 0.113837 0.958548
vn -0.261202 0.113837 0.958548
vn -0.403907 0.088339 0.910525
vn -0.403907 0.088339 0.910525
vn -0.349574 0.121552 0.928991
vn -0.349574 0.121552 0.928991
vn -0.338084 0.006761 0.941092
vn -0.338084 0.006761 0.941092
vn -0.312032 0.060847 0.948121
vn -0.312032 0.060847 0.948121
vn 0.119406 -0.021746 0.992607
vn 0.110182 -0.013893 0.993814
vn 0.086460 -0.007738 0.996225
vn 0.064457 -0.002665 0.997917
vn 0.063577 0.006961 0.997953
vn 0.090721 0.019485 0.995686
vn 0.201351 0.010986 -0.979457
vn 0.158720 0.014371 -0.987219
vn -0.261210 0.113836 -0.958546
vn -0.261210 0.113836 -0.958546
vn -0.403910 0.088340 -0.910523
vn -0.349576 0.121554 -0.928989
vn -0.349576 0.121554 -0.928989
vn -0.403910 0.088340 -0.910523
vn -0.338089 0.006763 -0.941090
vn -0.312038 0.060845 -0.948119
vn -0.312038 0.060845 -0.948119
vn -0.338089 0.006763 -0.941090
vn 0.119386 -0.021743 -0.992610
vn 0.086449 -0.007734 -0.996226
vn 0.110163 -0.013890 -0.993816
vn 0.063570 0.006956 -0.997953
vn 0.064453 -0.002664 -0.997917
vn 0.090706 0.019481 -0.995687
vn -0.459921 -0.887960 0.000000
vn -0.672036 -0.740519 0.000000
vn -0.672036 -0.740519 0.000000
vn -0.905697 -0.423926 0.000000
vn -0.905697 -0.423926 0.000000
vn -0.978679 -0.205396 -0.000001
vn -0.978679 -0.205396 -0.000001
vn -0.993625 -0.112738 -0.000002
vn -0.993625 -0.112738 -0.000002
vn -0.456464 0.054737 0.888056
vn -0.456464 0.054737 0.888056
vn -0.456468 0.054738 -0.888054
vn -0.456468 0.054738 -0.888054
vn 0.456451 0.054743 -0.888063
vn 0.456451 0.054743 -0.888063
vn 0.456450 0.054742 0.888064
vn 0.456450 0.054742 0.888064
vn 0.000000 -0.003437 0.999994
vn -0.070547 -0.003429 0.997503
vn -0.077970 -0.003300 0.996950
vn 0.000001 -0.003310 0.999995
vn 0.070548 -0.003429 0.997503
vn 0.077971 -0.003300 0.996950
vn -0.409091 0.013445 0.912395
vn -0.409091 0.013445 0.912395
vn -0.341377 0.079780 0.936535
vn -0.341377 0.079780 0.936535
vn -0.409101 0.013447 -0.912390
vn -0.341388 0.079780 -0.936531
vn -0.341388 0.079780 -0.936531
vn -0.409101 0.013447 -0.912390
vn 0.000001 -0.003438 -0.999994
vn 0.070542 -0.003428 -0.997503
vn 0.077964 -0.003300 -0.996951
vn -0.000000 -0.003310 -0.999995
vn -0.070540 -0.003431 -0.997503
vn -0.077965 -0.003300 -0.996951
vn 0.409097 0.013446 -0.912392
vn 0.409097 0.013446 -0.912392
vn 0.341384 0.079780 -0.936532
vn 0.341384 0.079780 -0.936532
vn 0.409090 0.013445 0.912395
vn 0.409090 0.013445 0.912395
vn 0.341375 0.079782 0.936535
vn 0.341375 0.079782 0.936535
vn -0.472891 -0.053019 0.879524
vn -0.472891 -0.053019 0.879524
vn -0.472901 -0.053015 -0.879519
vn -0.472901 -0.053015 -0.879519
vn 0.472897 -0.053017 -0.879522
vn 0.472897 -0.053017 -0.879522
vn 0.472890 -0.053021 0.879525
vn 0.472890 -0.053021 0.879525
vn -0.362900 -0.047350 0.930624
vn -0.362900 -0.047350 0.930624
vn -0.362905 -0.047345 -0.930623
vn -0.362905 -0.047345 -0.930623
vn 0.362895 -0.047350 -0.930626
vn 0.362895 -0.047350 -0.930626
vn 0.362899 -0.047351 0.930625
vn 0.362899 -0.047351 0.930625
s 1
f 1/1/1 2/2/2 40/3/3 41/4/4
f 2/2/2 3/5/5 39/6/6 40/3/3
f 3/5/5 4/7/7 38/8/8 39/6/6
f 4/7/7 5/9/9 37/10/10 38/8/8
f 5/9/9 6/11/11 36/12/12 37/10/10
f 6/11/11 7/13/13 35/14/14 36/12/12
f 7/13/13 8/15/15 42/16/16 35/14/14
f 8/15/15 1/17/1 41/18/4 42/16/16
f 2/19/2 1/20/1 17/21/17
f 3/22/5 2/19/2 17/21/17
f 4/23/7 3/22/5 17/21/17
f 5/24/9 4/23/7 17/21/17
f 6/25/11 5/24/9 17/21/17
f 7/26/13 6/25/11 17/21/17
f 8/27/15 7/26/13 17/21/17
f 1/20/1 8/27/15 17/21/17
f 9/28/18 10/29/19 18/30/20
f 10/29/19 11/31/21 18/30/20
f 11/31/21 12/32/22 18/30/20
f 12/32/22 13/33/23 18/30/20
f 13/33/23 14/34/24 18/30/20
f 14/34/24 15/35/25 18/30/20
f 15/35/25 16/36/26 18/30/20
f 16/36/26 9/28/18 18/30/20
f 20/37/27 19/38/28 28/39/29 29/40/30
f 21/41/31 20/37/27 29/40/30 30/42/32
f 22/43/33 21/41/31 30/42/32 31/44/34
f 23/45/35 22/43/33 31/44/34 32/46/36
f 24/47/37 23/45/35 32/46/36 33/48/38
f 25/49/39 24/50/37 33/51/38 34/52/40
f 26/53/41 25/49/39 34/52/40 27/54/42
f 19/38/28 26/53/41 27/54/42 28/39/29
f 28/39/29 27/54/42 15/55/25 14/56/24
f 29/40/30 28/39/29 14/56/24 13/57/23
f 30/42/32 29/40/30 13/57/23 12/58/22
f 31/44/34 30/42/32 12/58/22 11/59/21
f 32/46/36 31/44/34 11/59/21 10/60/19
f 33/48/38 32/46/36 10/60/19 9/61/18
f 34/52/40 33/51/38 9/62/18 16/63/26
f 27/54/42 34/52/40 16/63/26 15/55/25
f 19/38/28 36/12/12 35/14/14 26/53/41
f 37/10/10 36/12/12 19/38/28 20/37/27
f 38/8/8 37/10/10 20/37/27 21/41/31
f 39/6/6 38/8/8 21/41/31 22/43/33
f 40/3/3 39/6/6 22/43/33 23/45/35
f 41/4/4 40/3/3 23/45/35 24/47/37
f 42/16/16 41/18/4 24/50/37 25/49/39
f 35/14/14 42/16/16 25/49/39 26/53/41
s 2
f 43/64/43 44/65/44 81/66/45 82/67/46
f 44/65/44 45/68/47 80/69/48 81/66/45
f 45/68/47 46/70/49 79/71/50 80/69/48
f 46/70/49 47/72/51 78/73/52 79/71/50
f 47/72/51 48/74/53 77/75/54 78/73/52
f 48/74/53 49/76/55 76/77/56 77/75/54
f 49/76/55 50/78/57 83/79/58 76/77/56
f 50/78/57 43/80/43 82/81/46 83/79/58
f 51/82/59 52/83/60 59/84/61
f 52/83/60 53/85/62 59/84/61
f 53/85/62 54/86/63 59/84/61
f 54/86/63 55/87/64 59/84/61
f 55/87/64 56/88/65 59/84/61
f 56/88/65 57/89/66 59/84/61
f 57/89/66 58/90/67 59/84/61
f 58/90/67 51/82/59 59/84/61
f 61/91/68 60/92/69 69/93/70 70/94/71
f 62/95/72 61/91/68 70/94/71 71/96/73
f 63/97/74 62/95/72 71/96/73 72/98/75
f 64/99/76 63/97/74 72/98/75 73/100/77
f 65/101/78 64/99/76 73/100/77 74/102/79
f 66/103/80 65/104/78 74/105/79 75/106/81
f 67/107/82 66/103/80 75/106/81 68/108/83
f 60/92/69 67/107/82 68/108/83 69/93/70
f 69/93/70 68/108/83 57/109/66 56/110/65
f 70/94/71 69/93/70 56/110/65 55/111/64
f 71/96/73 70/94/71 55/111/64 54/112/63
f 72/98/75 71/96/73 54/112/63 53/113/62
f 73/100/77 72/98/75 53/113/62 52/114/60
f 74/102/79 73/100/77 52/114/60 51/115/59
f 75/106/81 74/105/79 51/116/59 58/117/67
f 68/108/83 75/106/81 58/117/67 57/109/66
f 60/92/69 77/75/54 76/77/56 67/107/82
f 78/73/52 77/75/54 60/92/69 61/91/68
f 79/71/50 78/73/52 61/91/68 62/95/72
f 80/69/48 79/71/50 62/95/72 63/97/74
f 81/66/45 80/69/48 63/97/74 64/99/76
f 82/67/46 81/66/45 64/99/76 65/101/78
f 83/79/58 82/81/46 65/104/78 66/103/80
f 76/77/56 83/79/58 66/103/80 67/107/82
s 3
f 84/118/84 85/119/85 122/120/86 123/121/87
f 85/119/85 86/122/88 121/123/89 122/120/86
f 86/122/88 87/124/90 120/125/91 121/123/89
f 87/124/90 88/126/92 119/127/93 120/125/91
f 88/126/92 89/128/94 118/129/95 119/127/93
f 89/128/94 90/130/96 117/131/97 118/129/95
f 90/130/96 91/132/98 124/133/99 117/131/97
f 91/132/98 84/134/84 123/135/87 124/133/99
f 85/136/85 84/137/84 100/138/100
f 86/139/88 85/136/85 100/138/100
f 87/140/90 86/139/88 100/138/100
f 88/141/92 87/140/90 100/138/100
f 89/142/94 88/141/92 100/138/100
f 90/143/96 89/142/94 100/138/100
f 91/144/98 90/143/96 100/138/100
f 84/137/84 91/144/98 100/138/100
f 102/145/101 101/146/102 110/147/103 111/148/104
f 103/149/105 102/145/101 111/148/104 112/150/106
f 104/151/107 103/149/105 112/150/106 113/152/108
f 105/153/109 104/151/107 113/152/108 114/154/110
f 106/155/111 105/153/109 114/154/110 115/156/112
f 107/157/113 106/158/111 115/159/112 116/160/114
f 108/161/115 107/157/113 116/160/114 109/162/116
f 101/146/102 108/161/115 109/162/116 110/147/103
f 110/147/103 109/162/116 98/163/117 97/164/118
f 111/148/104 110/147/103 97/164/118 96/165/119
f 112/150/106 111/148/104 96/165/119 95/166/120
f 113/152/108 112/150/106 95/166/120 94/167/121
f 114/154/110 113/152/108 94/167/121 93/168/122
f 115/156/112 114/154/110 93/168/122 92/169/123
f 116/160/114 115/159/112 92/170/123 99/171/124
f 109/162/116 116/160/114 99/171/124 98/163/117
f 101/146/102 118/129/95 117/131/97 108/161/115
f 119/127/93 118/129/95 101/146/102 102/145/101
f 120/125/91 119/127/93 102/145/101 103/149/105
f 121/123/89 120/125/91 103/149/105 104/151/107
f 122/120/86 121/123/89 104/151/107 105/153/109
f 123/121/87 122/120/86 105/153/109 106/155/111
f 124/133/99 123/135/87 106/158/111 107/157/113
f 117/131/97 124/133/99 107/157/113 108/161/115
s 4
f 125/172/125 126/173/126 154/174/127 155/175/128
f 126/173/126 127/176/129 153/177/130 154/174/127
f 127/176/129 128/178/131 152/179/132 153/177/130
f 128/178/131 129/180/133 151/181/134 152/179/132
f 129/180/133 130/182/135 150/183/136 151/181/134
f 130/182/135 131/184/137 149/185/138 150/183/136
f 131/184/137 132/186/139 156/187/140 149/185/138
f 132/186/139 125/188/125 155/189/128 156/187/140
f 134/190/141 133/191/142 142/192/143 143/193/144
f 135/194/145 134/190/141 143/193/144 144/195/146
f 136/196/147 135/194/145 144/195/146 145/197/148
f 137/198/149 136/196/147 145/197/148 146/199/150
f 138/200/151 137/198/149 146/199/150 147/201/152
f 139/202/153 138/203/151 147/204/152 148/205/154
f 140/206/155 139/202/153 148/205/154 141/207/156
f 133/191/142 140/206/155 141/207/156 142/192/143
f 142/192/143 141/207/156 49/208/157 48/209/158
f 143/193/144 142/192/143 48/209/158 47/210/159
f 144/195/146 143/193/144 47/210/159 46/211/160
f 145/197/148 144/195/146 46/211/160 45/212/161
f 146/199/150 145/197/148 45/212/161 44/213/162
f 147/201/152 146/199/150 44/213/162 43/214/163
f 148/205/154 147/204/152 43/215/163 50/216/164
f 141/207/156 148/205/154 50/216/164 49/208/157
f 133/191/142 150/183/136 149/185/138 140/206/155
f 151/181/134 150/183/136 133/191/142 134/190/141
f 152/179/132 151/181/134 134/190/141 135/194/145
f 153/177/130 152/179/132 135/194/145 136/196/147
f 154/174/127 153/177/130 136/196/147 137/198/149
f 155/175/128 154/174/127 137/198/149 138/200/151
f 156/187/140 155/189/128 138/203/151 139/202/153
f 149/185/138 156/187/140 139/202/153 140/206/155
s 5
f 92/217/165 93/218/166 178/219/167 179/220/168
f 93/218/166 94/221/169 177/222/170 178/219/167
f 94/221/169 95/223/171 176/224/172 177/222/170
f 95/223/171 96/225/173 175/226/174 176/224/172
f 96/225/173 97/227/175 174/228/176 175/226/174
f 97/227/175 98/229/177 173/230/178 174/228/176
f 98/229/177 99/231/179 180/232/180 173/230/178
f 99/231/179 92/233/165 179/234/168 180/232/180
f 158/235/181 157/236/182 166/237/183 167/238/184
f 159/239/185 158/235/181 167/238/184 168/240/186
f 160/241/187 159/239/185 168/240/186 169/242/188
f 161/243/189 160/241/187 169/242/188 170/244/190
f 162/245/191 161/243/189 170/244/190 171/246/192
f 163/247/193 162/248/191 171/249/192 172/250/194
f 164/251/195 163/247/193 172/250/194 165/252/196
f 157/236/182 164/251/195 165/252/196 166/237/183
f 166/237/183 165/252/196 131/253/197 130/254/198
f 167/238/184 166/237/183 130/254/198 129/255/199
f 168/240/186 167/238/184 129/255/199 128/256/200
f 169/242/188 168/240/186 128/256/200 127/257/201
f 170/244/190 169/242/188 127/257/201 126/258/202
f 171/246/192 170/244/190 126/258/202 125/259/203
f 172/250/194 171/249/192 125/260/203 132/261/204
f 165/252/196 172/250/194 132/261/204 131/253/197
f 157/236/182 174/228/176 173/230/178 164/251/195
f 175/226/174 174/228/176 157/236/182 158/235/181
f 176/224/172 175/226/174 158/235/181 159/239/185
f 177/222/170 176/224/172 159/239/185 160/241/187
f 178/219/167 177/222/170 160/241/187 161/243/189
f 179/220/168 178/219/167 161/243/189 162/245/191
f 180/232/180 179/234/168 162/248/191 163/247/193
f 173/230/178 180/232/180 163/247/193 164/251/195
s 6
f 181/262/205 182/263/206 190/264/207 189/265/208
f 182/263/206 183/266/209 191/267/210 190/264/207
f 183/266/209 184/268/211 192/269/212 191/267/210
f 184/268/211 185/270/213 193/271/214 192/269/212
f 185/270/213 186/272/215 194/273/216 193/271/214
f 186/272/215 187/274/217 195/275/218 194/273/216
f 187/274/217 188/276/219 196/277/220 195/275/218
f 188/276/219 181/278/205 189/279/208 196/277/220
s 7
f 182/280/221 181/281/222 197/282/223
f 183/283/224 182/280/221 197/282/223
f 184/284/225 183/283/224 197/282/223
f 185/285/226 184/284/225 197/282/223
f 186/286/227 185/285/226 197/282/223
f 187/287/228 186/286/227 197/282/223
f 188/288/229 187/287/228 197/282/223
f 181/281/222 188/288/229 197/282/223
s 8
f 232/289/230 233/290/231 251/291/232 252/292/233
f 233/290/231 236/293/234 250/294/235 251/291/232
f 236/295/234 238/296/236 249/297/237 250/298/235
f 238/296/236 240/299/238 248/300/239 249/297/237
f 240/299/238 242/301/240 255/302/241 248/300/239
f 255/302/241 242/301/240 244/303/242 254/304/243
f 244/303/242 246/305/244 253/306/245 254/304/243
f 246/305/244 232/289/230 252/292/233 253/306/245
f 199/307/246 198/308/247 214/309/248
f 200/310/249 199/307/246 214/309/248
f 201/311/250 200/310/249 214/309/248
f 202/312/251 201/311/250 214/309/248
f 203/313/252 202/312/251 214/309/248
f 204/314/253 203/313/252 214/309/248
f 205/315/254 204/314/253 214/309/248
f 198/308/247 205/315/254 214/309/248
f 206/316/255 207/317/256 215/318/257
f 207/317/256 208/319/258 215/318/257
f 208/319/258 209/320/259 215/318/257
f 209/320/259 210/321/260 215/318/257
f 210/321/260 211/322/261 215/318/257
f 211/322/261 212/323/262 215/318/257
f 212/323/262 213/324/263 215/318/257
f 213/324/263 206/316/255 215/318/257
f 198/325/247 199/326/246 217/327/264 216/328/265
f 207/329/256 206/330/255 219/331/266 218/332/267
f 199/326/246 200/333/249 220/334/268 217/327/264
f 208/335/258 207/329/256 218/332/267 221/336/269
f 200/337/249 201/338/250 222/339/270 220/340/268
f 209/341/259 208/342/258 221/343/269 223/344/271
f 201/338/250 202/345/251 224/346/272 222/339/270
f 210/347/260 209/341/259 223/344/271 225/348/273
f 202/345/251 203/349/252 226/350/274 224/346/272
f 211/351/261 210/347/260 225/348/273 227/352/275
f 203/349/252 204/353/253 228/354/276 226/350/274
f 212/355/262 211/351/261 227/352/275 229/356/277
f 204/353/253 205/357/254 230/358/278 228/354/276
f 213/359/263 212/355/262 229/356/277 231/360/279
f 205/357/254 198/325/247 216/328/265 230/358/278
f 206/330/255 213/359/263 231/360/279 219/331/266
f 216/328/265 217/327/264 233/290/231 232/289/230
f 218/332/267 219/331/266 235/361/280 234/362/281
f 217/327/264 220/334/268 236/293/234 233/290/231
f 221/336/269 218/332/267 234/362/281 237/363/282
f 220/340/268 222/339/270 238/296/236 236/295/234
f 223/344/271 221/343/269 237/364/282 239/365/283
f 222/339/270 224/346/272 240/299/238 238/296/236
f 225/348/273 223/344/271 239/365/283 241/366/284
f 224/346/272 226/350/274 242/301/240 240/299/238
f 227/352/275 225/348/273 241/366/284 243/367/285
f 226/350/274 228/354/276 244/303/242 242/301/240
f 229/356/277 227/352/275 243/367/285 245/368/286
f 228/354/276 230/358/278 246/305/244 244/303/242
f 231/360/279 229/356/277 245/368/286 247/369/287
f 230/358/278 216/328/265 232/289/230 246/305/244
f 219/331/266 231/360/279 247/369/287 235/361/280
f 249/297/237 248/300/239 256/370/288 257/371/289
f 250/298/235 249/297/237 257/371/289 258/372/290
f 251/291/232 250/294/235 258/373/290 259/374/291
f 252/292/233 251/291/232 259/374/291 260/375/292
f 253/306/245 252/292/233 260/375/292 261/376/293
f 254/304/243 253/306/245 261/376/293 262/377/294
f 255/302/241 254/304/243 262/377/294 263/378/295
f 256/370/288 248/300/239 255/302/241 263/378/295
f 239/365/283 257/371/289 256/370/288 241/366/284
f 237/364/282 258/372/290 257/371/289 239/365/283
f 234/362/281 259/374/291 258/373/290 237/363/282
f 235/361/280 260/375/292 259/374/291 234/362/281
f 247/369/287 261/376/293 260/375/292 235/361/280
f 245/368/286 262/377/294 261/376/293 247/369/287
f 243/367/285 263/378/295 262/377/294 245/368/286
f 241/366/284 256/370/288 263/378/295 243/367/285
s 9
f 264/379/296 265/380/297 266/381/298 280/382/299
s 10
f 273/383/300 274/384/301 270/385/302 271/386/303
s 11
f 316/387/304 309/388/305 275/389/306 269/390/307
s 12
f 340/391/308 333/392/309 272/393/310 268/394/311
s 9
f 276/395/312 274/396/313 273/397/314
f 277/398/315 275/399/316 309/400/317 310/401/318
f 278/402/319 272/403/320 333/404/321 334/405/322
f 279/406/323 267/407/324 272/403/320 278/402/319
f 280/382/299 266/381/298 267/407/324 279/406/323
s 13
f 281/408/325 284/409/326 283/410/327 282/411/328
s 14
f 285/412/329 271/386/330 270/385/331 286/413/332
s 15
f 315/414/333 316/387/334 269/390/335 287/415/336
s 16
f 339/416/337 340/391/338 268/394/339 288/417/340
s 13
f 289/418/341 285/419/342 286/420/343
f 290/421/344 314/422/345 315/423/346 287/424/347
f 291/425/348 338/426/349 339/427/350 288/428/351
f 292/429/352 291/425/348 288/428/351 293/430/353
f 284/409/326 292/429/352 293/430/353 283/410/327
s 17
f 268/431/354 272/432/355 288/433/356
f 272/432/355 267/434/357 293/435/358 288/433/356
f 283/436/359 293/435/358 267/434/357 266/437/360
f 282/411/361 283/410/359 266/381/360 265/380/362
s 9
f 264/379/296 280/382/299 295/438/363 294/439/364
s 10
f 273/440/300 271/441/303 297/442/365 296/443/366
s 18
f 311/444/367 312/445/368 299/446/369 298/447/370
s 19
f 335/448/371 336/449/372 301/450/373 300/451/374
s 9
f 276/395/312 273/397/314 296/452/375
f 277/398/315 310/401/318 311/453/376 298/454/377
f 278/402/319 334/405/322 335/455/378 300/456/379
f 279/406/323 278/402/319 300/456/379 302/457/380
f 280/382/299 279/406/323 302/457/380 295/438/363
s 13
f 281/408/325 304/458/381 303/459/382 284/409/326
s 14
f 285/460/329 305/461/383 297/442/384 271/441/330
s 20
f 313/462/385 306/463/386 299/446/387 312/445/388
s 21
f 337/464/389 307/465/390 301/450/391 336/449/392
s 13
f 289/418/341 305/466/393 285/419/342
f 290/421/344 306/467/394 313/468/395 314/422/345
f 291/425/348 307/469/396 337/470/397 338/426/349
f 292/429/352 308/471/398 307/469/396 291/425/348
f 284/409/326 303/459/382 308/471/398 292/429/352
s 22
f 301/472/399 307/473/400 300/474/401
f 300/474/401 307/473/400 308/475/402 302/476/403
f 303/477/404 295/478/405 302/476/403 308/475/402
f 304/458/406 294/439/407 295/438/405 303/459/404
s 9
f 310/401/318 309/400/317 274/396/313 276/395/312
f 311/453/376 310/401/318 276/395/312 296/452/375
s 18
f 296/443/408 297/442/409 312/445/368 311/444/367
s 20
f 305/461/410 313/462/385 312/445/388 297/442/411
s 13
f 314/422/345 313/468/395 305/466/393 289/418/341
f 315/423/346 314/422/345 289/418/341 286/420/343
s 15
f 286/413/412 270/385/413 316/387/334 315/414/333
s 11
f 274/384/414 309/388/305 316/387/304 270/385/415
s 9
f 318/479/416 317/480/417 325/481/418 326/482/419
f 319/483/420 318/479/416 326/482/419 327/484/421
s 23
f 327/485/422 328/486/423 320/487/424 319/488/425
s 24
f 329/489/426 321/490/427 320/487/428 328/486/429
s 13
f 322/491/430 321/492/431 329/493/432 330/494/433
f 323/495/434 322/491/430 330/494/433 331/496/435
s 25
f 331/497/436 332/498/437 324/499/438 323/500/439
s 26
f 332/498/440 325/501/441 317/502/442 324/499/443
s 9
f 326/482/419 325/481/418 275/399/316 277/398/315
f 327/484/421 326/482/419 277/398/315 298/454/377
s 23
f 298/447/444 299/446/445 328/486/423 327/485/422
s 24
f 306/463/446 329/489/426 328/486/429 299/446/447
s 13
f 330/494/433 329/493/432 306/467/394 290/421/344
f 331/496/435 330/494/433 290/421/344 287/424/347
s 25
f 287/415/448 269/390/449 332/498/437 331/497/436
s 26
f 275/389/450 325/501/441 332/498/440 269/390/451
s 9
f 334/405/322 333/404/321 317/480/417 318/479/416
f 335/455/378 334/405/322 318/479/416 319/483/420
s 19
f 319/488/452 320/487/453 336/449/372 335/448/371
s 21
f 321/490/454 337/464/389 336/449/392 320/487/455
s 13
f 338/426/349 337/470/397 321/492/431 322/491/430
f 339/427/350 338/426/349 322/491/430 323/495/434
s 16
f 323/500/456 324/499/457 340/391/338 339/416/337
s 12
f 324/499/458 317/502/459 333/392/309 340/391/308
