# Blender v2.79 (sub 0) OBJ File: 'rabbitcatcher.obj'
# www.blender.org
o Mesh.013_Box58.001
v 0.000172 -0.724840 0.018717
v 0.000172 -0.279427 0.018717
v -0.012771 -0.279427 0.014378
v -0.012771 -0.724840 0.014378
v -0.013592 -0.279427 -0.014629
v 0.000172 -0.279427 -0.018139
v 0.000172 -0.724840 -0.018139
v -0.013592 -0.724840 -0.014629
v 0.000172 -0.724840 -0.000037
v -0.016277 -0.724840 -0.000037
v 0.016339 -0.724840 -0.000037
v 0.016339 -0.279427 -0.000037
v 0.013662 -0.279427 0.014378
v 0.013662 -0.724840 0.014378
v 0.014483 -0.724840 -0.014218
v 0.014483 -0.279427 -0.014218
v -0.016277 0.623332 -0.000037
v -0.012771 0.623332 0.014378
v -0.012770 1.016491 0.014378
v -0.016277 1.016491 -0.000037
v 0.014484 0.623332 -0.014218
v 0.000173 0.623332 -0.018139
v 0.000173 1.016491 -0.018139
v 0.014484 1.016491 -0.014218
v -0.013592 0.623332 -0.014629
v -0.013592 1.016491 -0.014629
v -0.115020 0.625401 0.005189
v -0.016796 0.625075 0.005639
v -0.017694 0.639404 0.009514
v -0.120506 0.635345 0.005582
v -0.115020 0.625401 -0.005158
v -0.120506 0.635345 -0.005551
v -0.017694 0.639403 -0.009483
v -0.016796 0.625075 -0.005608
v 0.114547 0.625039 -0.006282
v 0.121711 0.635850 -0.007823
v 0.121711 0.635850 0.007854
v 0.114547 0.625039 0.006313
v 0.017109 0.652563 -0.008506
v 0.012990 0.652563 -0.015317
v 0.012990 0.652563 0.015348
v 0.017109 0.652563 0.008537
v -0.118420 0.643694 -0.005158
v -0.118420 0.643694 0.005189
v -0.012153 0.625075 0.015348
v -0.012153 0.639404 0.015348
v -0.016582 0.652563 -0.005608
v -0.012153 0.652563 -0.015317
v -0.012153 0.639404 -0.015317
v -0.012153 0.625075 -0.015317
v -0.016582 0.652563 0.005639
v -0.012153 0.652563 0.015348
v 0.000179 0.625075 0.019336
v 0.000179 0.639404 0.019336
v 0.000179 0.652563 -0.019305
v 0.000179 0.639404 -0.019305
v 0.000179 0.625075 -0.019305
v 0.000179 0.652563 0.019336
v 0.017327 0.625075 0.008537
v 0.018013 0.639405 0.010189
v 0.012990 0.639404 0.015348
v 0.012990 0.625075 0.015348
v 0.018013 0.639405 -0.010158
v 0.012990 0.639404 -0.015317
v 0.017327 0.625075 -0.008506
v 0.012990 0.625075 -0.015317
v 0.118999 0.643975 -0.006282
v 0.118999 0.643975 0.006313
v -0.017948 1.009390 0.014838
v -0.017948 1.093441 0.014838
v -0.071037 1.166295 0.014838
v -0.112018 1.135981 0.014838
v -0.071037 1.166295 -0.014072
v -0.017948 1.093441 -0.014072
v -0.017948 1.009390 -0.014072
v -0.112018 1.135981 -0.014072
v 0.114043 1.134794 0.014838
v 0.114043 1.134794 -0.014072
v 0.075912 1.167096 -0.014072
v 0.075912 1.167096 0.014838
v 0.018092 1.093441 -0.014072
v 0.018092 1.093441 0.014838
v 0.007922 1.009390 0.022681
v 0.007922 1.093441 0.022681
v -0.007778 1.093441 0.022681
v -0.007778 1.009390 0.022681
v 0.007922 1.093441 -0.021915
v 0.007922 1.009390 -0.021915
v -0.007778 1.009390 -0.021915
v -0.007778 1.093441 -0.021915
v 0.018092 1.009390 -0.014072
v 0.018092 1.009390 0.014838
v -0.010475 1.034078 0.024627
v 0.010445 1.034078 0.024627
v 0.010445 1.042226 0.024627
v -0.010475 1.042226 0.024627
v -0.010475 1.034078 -0.023630
v -0.010475 1.042226 -0.023630
v 0.010445 1.042226 -0.023630
v 0.010445 1.034078 -0.023630
v -0.010475 1.059348 0.024627
v 0.010445 1.059348 0.024627
v 0.010445 1.067496 0.024627
v -0.010475 1.067496 0.024627
v -0.010475 1.059348 -0.023630
v -0.010475 1.067496 -0.023630
v 0.010445 1.067496 -0.023630
v 0.010445 1.059348 -0.023630
v 0.011092 1.065147 0.007581
v 0.039602 1.047672 0.007581
v 0.057496 1.076483 0.007581
v 0.020334 1.102240 0.007581
v 0.011223 1.064618 -0.006245
v 0.020467 1.102139 -0.006245
v 0.057496 1.076483 -0.006245
v 0.039602 1.047672 -0.006245
v 0.004083 1.058268 0.000442
v 0.036799 1.038375 0.000442
v 0.059489 1.074971 0.000442
v 0.283997 1.399647 0.000442
v 0.254537 1.469650 0.000442
v 0.251348 1.445320 0.007581
v 0.273774 1.386142 0.007581
v 0.206048 1.388218 0.000442
v 0.214795 1.382021 0.007581
v 0.125559 1.170278 0.007581
v 0.077769 1.193841 0.007581
v 0.038673 1.138257 0.007581
v 0.070723 1.097780 0.007581
v 0.038673 1.138257 -0.006245
v 0.077769 1.193841 -0.006245
v 0.125559 1.170278 -0.006245
v 0.070723 1.097780 -0.006245
v 0.127839 1.169136 0.000442
v 0.070620 1.092923 0.000442
v 0.011962 1.103834 0.000442
v 0.026921 1.142424 0.000442
v 0.273774 1.386142 -0.006245
v 0.251348 1.445320 -0.006245
v 0.214795 1.382021 -0.006245
v 0.244225 1.335580 0.007581
v 0.246076 1.333428 0.000442
v 0.068276 1.200341 0.000442
v 0.244225 1.335580 -0.006245
v -0.007999 1.065147 0.007581
v -0.017240 1.102240 0.007581
v -0.054402 1.076483 0.007581
v -0.036508 1.047672 0.007581
v -0.008130 1.064618 -0.006245
v -0.036508 1.047672 -0.006245
v -0.054402 1.076483 -0.006245
v -0.017374 1.102139 -0.006245
v -0.000990 1.058268 0.000442
v -0.033705 1.038375 0.000442
v -0.056396 1.074971 0.000442
v -0.280904 1.399647 0.000442
v -0.270680 1.386142 0.007581
v -0.248254 1.445320 0.007581
v -0.251444 1.469650 0.000442
v -0.211702 1.382021 0.007581
v -0.202954 1.388218 0.000442
v -0.122465 1.170278 0.007581
v -0.067629 1.097780 0.007581
v -0.035579 1.138257 0.007581
v -0.074675 1.193841 0.007581
v -0.035579 1.138257 -0.006245
v -0.067629 1.097780 -0.006245
v -0.122465 1.170278 -0.006245
v -0.074675 1.193841 -0.006245
v -0.067526 1.092923 0.000442
v -0.124746 1.169136 0.000442
v -0.023828 1.142424 0.000442
v -0.008869 1.103834 0.000442
v -0.270680 1.386142 -0.006245
v -0.248254 1.445320 -0.006245
v -0.211702 1.382021 -0.006245
v -0.242983 1.333428 0.000442
v -0.241132 1.335580 0.007581
v -0.065183 1.200341 0.000442
v -0.241132 1.335580 -0.006245
v 0.000173 0.623332 0.018717
v -0.012771 0.152645 0.014378
v 0.000173 0.152645 0.018717
v 0.000173 0.152645 -0.018139
v -0.013592 0.152645 -0.014629
v 0.016339 0.623332 -0.000037
v 0.013662 0.623332 0.014378
v 0.013662 0.152645 0.014378
v 0.016339 0.152645 -0.000037
v 0.014483 0.152645 -0.014218
v -0.016277 -0.279427 -0.000037
v -0.016277 0.152645 -0.000037
v 0.000173 1.016491 0.018717
v 0.016339 1.016491 -0.000037
v 0.013662 1.016491 0.014378
vt 0.210249 0.980847
vt 0.210249 0.328302
vt 0.224576 0.328301
vt 0.224577 0.980847
vt 0.255713 0.328298
vt 0.270623 0.328297
vt 0.270623 0.980846
vt 0.255714 0.980847
vt 0.624220 0.108455
vt 0.624386 0.132252
vt 0.603345 0.108587
vt 0.607918 0.126848
vt 0.179979 0.980847
vt 0.179978 0.328303
vt 0.195374 0.328303
vt 0.195374 0.980847
vt 0.642244 0.090315
vt 0.644735 0.108292
vt 0.624053 0.085482
vt 0.606624 0.090050
vt 0.286200 0.980846
vt 0.286200 0.328296
vt 0.301219 0.328296
vt 0.301219 0.980846
vt 0.641472 0.126610
vt 0.521961 0.978674
vt 0.506392 0.978674
vt 0.506390 0.328532
vt 0.521957 0.328531
vt 0.568019 0.978674
vt 0.552441 0.978674
vt 0.552441 0.328529
vt 0.568019 0.328528
vt 0.537531 0.978674
vt 0.537530 0.328530
vt 0.749817 0.204496
vt 0.645453 0.204560
vt 0.645980 0.182083
vt 0.755040 0.189315
vt 0.749217 0.215745
vt 0.754883 0.230696
vt 0.645210 0.240285
vt 0.645150 0.217671
vt 0.496110 0.211947
vt 0.489493 0.228072
vt 0.474508 0.224331
vt 0.482709 0.207003
vt 0.679851 0.297493
vt 0.684894 0.290707
vt 0.681804 0.323114
vt 0.678139 0.315503
vt 0.766237 0.177485
vt 0.766008 0.191126
vt 0.754559 0.176782
vt 0.634928 0.203112
vt 0.637058 0.181610
vt 0.645869 0.260810
vt 0.635091 0.260540
vt 0.635901 0.240710
vt 0.866147 0.300358
vt 0.867341 0.332888
vt 0.862035 0.322767
vt 0.861600 0.310836
vt 0.756172 0.165890
vt 0.646678 0.161659
vt 0.648426 0.149815
vt 0.715177 0.303978
vt 0.714021 0.315861
vt 0.708348 0.325663
vt 0.711488 0.293264
vt 0.621709 0.202328
vt 0.622798 0.180877
vt 0.621242 0.260882
vt 0.621280 0.241135
vt 0.879061 0.295645
vt 0.880589 0.336636
vt 0.698851 0.287789
vt 0.694926 0.328620
vt 0.599864 0.201506
vt 0.600290 0.179733
vt 0.608180 0.180124
vt 0.607881 0.201732
vt 0.606555 0.261142
vt 0.597620 0.261219
vt 0.598241 0.241084
vt 0.606369 0.241284
vt 0.897672 0.306411
vt 0.898360 0.324490
vt 0.894031 0.331891
vt 0.892800 0.299363
vt 0.752978 0.243344
vt 0.489162 0.239958
vt 0.474561 0.238155
vt 0.761047 0.207330
vt 0.636526 0.161781
vt 0.634381 0.219157
vt 0.609507 0.160340
vt 0.623367 0.161179
vt 0.607231 0.219669
vt 0.621039 0.219621
vt 0.601438 0.159659
vt 0.599353 0.219301
vt 0.496845 0.198372
vt 0.489818 0.181510
vt 0.599517 0.141653
vt 0.492981 0.169113
vt 0.491470 0.155780
vt 0.489753 0.049626
vt 0.377169 0.111277
vt 0.253097 0.109330
vt 0.274218 0.049719
vt 0.191287 0.030772
vt 0.154052 0.149546
vt 0.058074 0.234851
vt 0.128239 0.031095
vt 0.028945 0.225138
vt 0.099434 0.020814
vt 0.406741 0.267879
vt 0.404210 0.298515
vt 0.340913 0.293565
vt 0.343429 0.263117
vt 0.318247 0.206337
vt 0.190432 0.200105
vt 0.192189 0.169456
vt 0.319348 0.175564
vt 0.224251 0.099144
vt 0.245343 0.039523
vt 0.501106 0.068168
vt 0.393895 0.134405
vt 0.386053 0.120444
vt 0.495165 0.057435
vt 0.180626 0.182674
vt 0.076316 0.253530
vt 0.067508 0.241276
vt 0.167221 0.164098
vt 0.079228 0.264413
vt 0.054734 0.283029
vt 0.032527 0.251875
vt 0.220583 0.040346
vt 0.183416 0.158520
vt 0.351038 0.126683
vt 0.397059 0.146928
vt 0.369090 0.160415
vt 0.504460 0.076428
vt 0.294016 0.264760
vt 0.294320 0.295370
vt 0.078836 0.295108
vt 0.041671 0.279068
vt 0.032002 0.265493
vt 0.356581 0.154746
vt 0.348781 0.140018
vt 0.865346 0.260234
vt 0.865295 0.237892
vt 0.877776 0.237872
vt 0.877847 0.260214
vt 0.813748 0.260273
vt 0.801315 0.260274
vt 0.801311 0.237934
vt 0.813736 0.237934
vt 0.813725 0.225525
vt 0.865257 0.225476
vt 0.929339 0.237753
vt 0.929401 0.260094
vt 0.929440 0.272506
vt 0.877909 0.272631
vt 0.866804 0.167456
vt 0.866750 0.145114
vt 0.879231 0.145091
vt 0.879304 0.167434
vt 0.815206 0.167502
vt 0.802772 0.167504
vt 0.802765 0.145164
vt 0.815191 0.145163
vt 0.815178 0.132754
vt 0.866710 0.132698
vt 0.930793 0.144966
vt 0.930858 0.167306
vt 0.930899 0.179718
vt 0.879368 0.179851
vt 0.923192 0.961195
vt 0.884336 0.971257
vt 0.886221 0.923203
vt 0.939435 0.906096
vt 0.833456 0.961198
vt 0.817260 0.905480
vt 0.870190 0.922920
vt 0.871738 0.970921
vt 0.925777 0.976048
vt 0.880752 0.987327
vt 0.877692 0.985139
vt 0.877974 0.924159
vt 0.896310 0.371445
vt 0.974964 0.291674
vt 0.960300 0.326813
vt 0.897356 0.395994
vt 0.964576 0.426491
vt 0.949880 0.430557
vt 0.887423 0.762060
vt 0.949365 0.753631
vt 0.946841 0.848316
vt 0.887401 0.887558
vt 0.810540 0.847440
vt 0.810149 0.752768
vt 0.871958 0.762093
vt 0.869399 0.887469
vt 0.879470 0.762518
vt 0.878146 0.894218
vt 0.805765 0.907586
vt 0.794829 0.847432
vt 0.875115 0.986823
vt 0.830211 0.975073
vt 0.866371 0.396210
vt 0.804915 0.325851
vt 0.791106 0.290490
vt 0.867817 0.372039
vt 0.813160 0.429814
vt 0.798762 0.425509
vt 0.889335 0.479182
vt 0.880929 0.481049
vt 0.891580 0.372207
vt 0.950936 0.908535
vt 0.928846 0.975130
vt 0.964994 0.749508
vt 0.962954 0.848582
vt 0.872985 0.479298
vt 0.794825 0.748430
vt 0.872002 0.372342
vt 0.827658 0.974267
vt 0.652670 0.960783
vt 0.636796 0.905683
vt 0.689969 0.923193
vt 0.691447 0.971181
vt 0.742563 0.962140
vt 0.704152 0.971478
vt 0.706159 0.923443
vt 0.759260 0.906455
vt 0.649823 0.975473
vt 0.694700 0.987330
vt 0.698285 0.924424
vt 0.697865 0.985392
vt 0.687461 0.372239
vt 0.685959 0.396564
vt 0.624411 0.326278
vt 0.610492 0.290875
vt 0.632758 0.430186
vt 0.618111 0.425893
vt 0.691707 0.762443
vt 0.689202 0.887776
vt 0.630269 0.847773
vt 0.629832 0.753114
vt 0.766920 0.848528
vt 0.707410 0.887816
vt 0.707380 0.762356
vt 0.769364 0.753705
vt 0.698498 0.894512
vt 0.699789 0.762861
vt 0.782830 0.848749
vt 0.770844 0.908839
vt 0.745516 0.976202
vt 0.700442 0.987287
vt 0.714976 0.396365
vt 0.713619 0.372040
vt 0.790935 0.291116
vt 0.776952 0.326409
vt 0.782749 0.426237
vt 0.768326 0.430446
vt 0.692100 0.372702
vt 0.700620 0.481472
vt 0.692452 0.479680
vt 0.647124 0.974622
vt 0.625001 0.907952
vt 0.614277 0.748777
vt 0.614324 0.847715
vt 0.708341 0.479575
vt 0.784775 0.749500
vt 0.709262 0.372600
vt 0.747959 0.975244
vt 0.357692 0.327215
vt 0.372020 0.327214
vt 0.372021 0.981682
vt 0.357692 0.981682
vt 0.403160 0.327211
vt 0.418070 0.327210
vt 0.418070 0.981681
vt 0.403160 0.981682
vt 0.327421 0.327216
vt 0.342816 0.327216
vt 0.342816 0.981682
vt 0.327421 0.981682
vt 0.433648 0.327210
vt 0.448666 0.327210
vt 0.448667 0.981681
vt 0.433648 0.981681
vt 0.102105 0.980472
vt 0.086537 0.980472
vt 0.086535 0.329171
vt 0.102101 0.329170
vt 0.148161 0.980472
vt 0.132584 0.980472
vt 0.132584 0.329168
vt 0.148161 0.329167
vt 0.117674 0.980472
vt 0.117673 0.329169
vt 0.072209 0.329172
vt 0.072210 0.980472
vt 0.041939 0.329173
vt 0.057334 0.329173
vt 0.057335 0.980473
vt 0.041939 0.980473
vt 0.163180 0.329167
vt 0.163179 0.980471
vt 0.240146 0.980847
vt 0.240144 0.328300
vt 0.387590 0.981682
vt 0.387589 0.327213
vt 0.492064 0.328533
vt 0.492064 0.978675
vt 0.461792 0.328534
vt 0.477188 0.328534
vt 0.477188 0.978675
vt 0.461792 0.978675
vt 0.583038 0.328528
vt 0.583038 0.978674
vn -0.0047 -0.6432 0.7657
vn -0.0061 0.0000 1.0000
vn -0.7365 0.0000 0.6765
vn -0.5820 -0.6128 0.5346
vn -0.7306 0.0000 -0.6828
vn 0.0089 0.0000 -1.0000
vn 0.0067 -0.6538 -0.7566
vn -0.5826 -0.6035 -0.5444
vn 0.0000 -1.0000 -0.0000
vn -0.7483 -0.6630 0.0212
vn 0.7389 -0.6736 0.0198
vn 0.9996 -0.0000 0.0267
vn 0.7507 -0.0000 0.6606
vn 0.5961 -0.6079 0.5245
vn 0.6025 -0.6012 -0.5250
vn 0.7539 -0.0000 -0.6569
vn -0.9996 0.0000 0.0283
vn -0.7364 0.0000 0.6765
vn 0.7540 -0.0000 -0.6569
vn -0.4146 -0.7013 0.5799
vn -0.2249 -0.8996 0.3744
vn -0.4455 0.0649 0.8929
vn -0.7697 -0.0962 0.6311
vn -0.4146 -0.7013 -0.5799
vn -0.7697 -0.0962 -0.6311
vn -0.4455 0.0649 -0.8929
vn -0.2249 -0.8996 -0.3743
vn 0.3768 -0.7427 -0.5536
vn 0.7567 -0.0815 -0.6487
vn 0.7567 -0.0815 0.6487
vn 0.3768 -0.7427 0.5536
vn 0.2782 0.8646 -0.4183
vn 0.4459 0.6510 -0.6143
vn 0.4459 0.6510 0.6143
vn 0.2782 0.8646 0.4184
vn -0.5326 0.6283 -0.5671
vn -0.5326 0.6283 0.5671
vn -0.4704 -0.6501 0.5967
vn -0.5615 0.0396 0.8265
vn -0.2468 0.8916 -0.3796
vn -0.5184 0.6266 -0.5819
vn -0.5615 0.0396 -0.8265
vn -0.4704 -0.6501 -0.5968
vn -0.2468 0.8916 0.3796
vn -0.5184 0.6266 0.5819
vn -0.0042 -0.6449 0.7642
vn -0.0055 -0.0000 1.0000
vn -0.0042 0.6449 -0.7642
vn -0.0055 0.0000 -1.0000
vn -0.0042 -0.6449 -0.7642
vn -0.0042 0.6449 0.7642
vn 0.2437 -0.8494 0.4681
vn 0.4189 -0.0145 0.9079
vn 0.5368 -0.0201 0.8435
vn 0.4681 -0.6373 0.6122
vn 0.4189 -0.0145 -0.9079
vn 0.5368 -0.0201 -0.8435
vn 0.2437 -0.8494 -0.4681
vn 0.4681 -0.6373 -0.6122
vn 0.5039 0.6855 -0.5255
vn 0.5039 0.6855 0.5255
vn -0.5163 -0.7360 0.4379
vn 0.0631 0.6417 0.7644
vn 0.1237 0.8073 0.5770
vn -0.8077 0.1199 0.5772
vn 0.1237 0.8073 -0.5770
vn 0.0631 0.6417 -0.7644
vn -0.5163 -0.7360 -0.4379
vn -0.8077 0.1199 -0.5772
vn 0.8099 0.0873 0.5800
vn 0.8099 0.0873 -0.5800
vn -0.0826 0.8137 -0.5754
vn -0.0826 0.8137 0.5754
vn -0.0562 0.6508 -0.7571
vn -0.0562 0.6508 0.7571
vn 0.2475 -0.6412 0.7263
vn 0.2475 0.6412 0.7263
vn -0.2475 0.6412 0.7264
vn -0.2475 -0.6412 0.7264
vn 0.2475 0.6412 -0.7264
vn 0.2475 -0.6412 -0.7264
vn -0.2475 -0.6412 -0.7264
vn -0.2476 0.6412 -0.7263
vn 0.5118 -0.7380 -0.4399
vn 0.5118 -0.7380 0.4399
vn -0.5774 -0.5774 0.5774
vn 0.5774 -0.5774 0.5774
vn 0.5774 0.5774 0.5774
vn -0.5774 0.5774 0.5774
vn -0.5774 -0.5774 -0.5774
vn -0.5774 0.5774 -0.5774
vn 0.5774 0.5774 -0.5774
vn 0.5774 -0.5774 -0.5774
vn -0.4312 -0.1096 0.8956
vn 0.3081 -0.4659 0.8295
vn 0.4921 -0.3054 0.8152
vn -0.3424 0.1319 0.9302
vn -0.4092 -0.1134 -0.9054
vn -0.3237 0.1233 -0.9381
vn 0.4848 -0.3009 -0.8212
vn 0.3112 -0.4512 -0.8364
vn -0.8810 -0.4730 -0.0095
vn 0.1093 -0.9939 -0.0113
vn 0.8497 -0.5272 -0.0104
vn 0.9928 0.1185 -0.0179
vn 0.0916 0.9958 -0.0077
vn -0.0321 0.2377 0.9708
vn 0.5455 -0.2279 0.8065
vn -0.8385 0.5447 -0.0153
vn -0.2352 0.1533 0.9598
vn 0.4672 -0.3451 0.8140
vn -0.2240 0.1609 0.9612
vn -0.2427 0.1377 0.9603
vn 0.4553 -0.3206 0.8306
vn -0.2303 0.1306 -0.9643
vn -0.2126 0.1527 -0.9651
vn 0.4606 -0.3398 -0.8200
vn 0.4475 -0.3156 -0.8368
vn 0.8051 -0.5930 -0.0107
vn 0.8334 -0.5526 -0.0107
vn -0.9451 0.3263 -0.0195
vn -0.8845 0.4664 -0.0131
vn 0.5375 -0.2258 -0.8125
vn -0.0163 0.2245 -0.9743
vn -0.2235 0.1457 -0.9637
vn 0.4863 -0.3135 0.8156
vn 0.8370 -0.5470 -0.0113
vn -0.8119 0.5836 -0.0144
vn 0.4786 -0.3087 -0.8220
vn 0.4312 -0.1096 0.8956
vn 0.3425 0.1319 0.9302
vn -0.4920 -0.3054 0.8153
vn -0.3081 -0.4659 0.8295
vn 0.4092 -0.1134 -0.9054
vn -0.3112 -0.4512 -0.8364
vn -0.4848 -0.3009 -0.8213
vn 0.3237 0.1233 -0.9381
vn 0.8810 -0.4730 -0.0095
vn -0.1093 -0.9939 -0.0113
vn -0.8497 -0.5272 -0.0104
vn -0.9928 0.1185 -0.0179
vn -0.5455 -0.2279 0.8065
vn 0.0321 0.2377 0.9708
vn -0.0916 0.9958 -0.0077
vn 0.2352 0.1533 0.9598
vn 0.8385 0.5447 -0.0153
vn -0.4672 -0.3450 0.8141
vn -0.4553 -0.3206 0.8306
vn 0.2427 0.1377 0.9603
vn 0.2240 0.1609 0.9612
vn 0.2303 0.1306 -0.9643
vn -0.4475 -0.3156 -0.8368
vn -0.4606 -0.3398 -0.8200
vn 0.2126 0.1527 -0.9651
vn -0.8334 -0.5526 -0.0107
vn -0.8051 -0.5930 -0.0107
vn 0.8845 0.4664 -0.0131
vn 0.9451 0.3263 -0.0195
vn -0.5375 -0.2258 -0.8125
vn 0.0163 0.2246 -0.9743
vn 0.2235 0.1457 -0.9638
vn -0.8370 -0.5470 -0.0113
vn -0.4863 -0.3135 0.8156
vn 0.8119 0.5836 -0.0144
vn -0.4786 -0.3087 -0.8220
vn 0.9996 -0.0000 0.0268
vn 0.7508 -0.0000 0.6606
s 1
f 1/1/1 2/2/2 3/3/3
f 4/4/4 1/1/1 3/3/3
f 5/5/5 6/6/6 7/7/7
f 7/7/7 8/8/8 5/5/5
f 9/9/9 1/10/1 10/11/10
f 1/10/1 4/12/4 10/11/10
f 11/13/11 12/14/12 13/15/13
f 13/15/13 14/16/14 11/13/11
f 14/16/14 13/15/13 2/2/2
f 2/2/2 1/1/1 14/16/14
f 15/17/15 11/18/11 9/9/9
f 9/9/9 7/19/7 15/17/15
f 8/20/8 7/19/7 9/9/9
f 9/9/9 10/11/10 8/20/8
f 15/21/15 16/22/16 12/23/12
f 12/23/12 11/24/11 15/21/15
f 14/25/14 1/10/1 9/9/9
f 9/9/9 11/18/11 14/25/14
f 17/26/17 18/27/3 19/28/18
f 19/28/18 20/29/17 17/26/17
f 21/30/19 22/31/6 23/32/6
f 23/32/6 24/33/19 21/30/19
f 25/34/5 17/26/17 20/29/17
f 20/29/17 26/35/5 25/34/5
f 27/36/20 28/37/21 29/38/22
f 29/38/22 30/39/23 27/36/20
f 31/40/24 32/41/25 33/42/26
f 33/42/26 34/43/27 31/40/24
f 27/36/20 31/40/24 34/43/27
f 34/43/27 28/37/21 27/36/20
f 35/44/28 36/45/29 37/46/30
f 37/46/30 38/47/31 35/44/28
f 39/48/32 40/49/33 41/50/34
f 41/50/34 42/51/35 39/48/32
f 43/52/36 32/53/25 30/39/23
f 30/39/23 44/54/37 43/52/36
f 45/55/38 46/56/39 29/38/22
f 29/38/22 28/37/21 45/55/38
f 47/57/40 48/58/41 49/59/42
f 49/59/42 33/42/26 47/57/40
f 50/60/43 45/61/38 28/62/21
f 28/62/21 34/63/27 50/60/43
f 43/64/36 44/54/37 51/65/44
f 51/65/44 47/66/40 43/64/36
f 47/67/40 51/68/44 52/69/45
f 52/69/45 48/70/41 47/67/40
f 53/71/46 54/72/47 46/56/39
f 46/56/39 45/55/38 53/71/46
f 55/73/48 56/74/49 49/59/42
f 49/59/42 48/58/41 55/73/48
f 57/75/50 53/76/46 45/61/38
f 45/61/38 50/60/43 57/75/50
f 55/77/48 58/78/51 41/50/34
f 41/50/34 40/49/33 55/77/48
f 59/79/52 60/80/53 61/81/54
f 61/81/54 62/82/55 59/79/52
f 40/83/33 39/84/32 63/85/56
f 63/85/56 64/86/57 40/83/33
f 65/87/58 59/88/52 62/89/55
f 62/89/55 66/90/59 65/87/58
f 29/38/22 51/65/44 44/54/37
f 44/54/37 30/39/23 29/38/22
f 43/91/36 47/57/40 33/42/26
f 33/42/26 32/41/25 43/91/36
f 67/92/60 68/93/61 37/46/30
f 37/46/30 36/45/29 67/92/60
f 31/94/24 27/36/20 30/39/23
f 30/39/23 32/53/25 31/94/24
f 46/56/39 52/95/45 51/65/44
f 51/65/44 29/38/22 46/56/39
f 50/96/43 34/43/27 33/42/26
f 33/42/26 49/59/42 50/96/43
f 41/97/34 58/98/51 54/72/47
f 54/72/47 61/81/54 41/97/34
f 66/99/59 57/100/50 56/74/49
f 56/74/49 64/86/57 66/99/59
f 60/80/53 42/101/35 41/97/34
f 41/97/34 61/81/54 60/80/53
f 65/102/58 66/99/59 64/86/57
f 64/86/57 63/85/56 65/102/58
f 60/80/53 59/79/52 38/103/31
f 38/103/31 37/104/30 60/80/53
f 59/79/52 65/102/58 35/44/28
f 35/44/28 38/103/31 59/79/52
f 63/85/56 36/45/29 35/44/28
f 35/44/28 65/102/58 63/85/56
f 63/85/56 39/84/32 67/92/60
f 67/92/60 36/45/29 63/85/56
f 39/105/32 42/101/35 68/106/61
f 68/106/61 67/107/60 39/105/32
f 60/80/53 37/104/30 68/106/61
f 68/106/61 42/101/35 60/80/53
f 62/82/55 61/81/54 54/72/47
f 54/72/47 53/71/46 62/82/55
f 40/83/33 64/86/57 56/74/49
f 56/74/49 55/73/48 40/83/33
f 66/90/59 62/89/55 53/76/46
f 53/76/46 57/75/50 66/90/59
f 48/70/41 52/69/45 58/78/51
f 58/78/51 55/77/48 48/70/41
f 52/95/45 46/56/39 54/72/47
f 54/72/47 58/98/51 52/95/45
f 50/96/43 49/59/42 56/74/49
f 56/74/49 57/100/50 50/96/43
f 69/108/62 70/109/63 71/110/64
f 71/110/64 72/111/65 69/108/62
f 73/112/66 74/113/67 75/114/68
f 75/114/68 76/115/69 73/112/66
f 76/115/69 75/114/68 69/116/62
f 69/116/62 72/117/65 76/115/69
f 77/118/70 78/119/71 79/120/72
f 79/120/72 80/121/73 77/118/70
f 79/122/72 81/123/74 82/124/75
f 82/124/75 80/125/73 79/122/72
f 71/110/64 73/126/66 76/127/69
f 76/127/69 72/111/65 71/110/64
f 83/128/76 84/129/77 85/130/78
f 85/130/78 86/131/79 83/128/76
f 87/132/80 88/133/81 89/134/82
f 89/134/82 90/135/83 87/132/80
f 91/136/84 92/137/85 69/138/62
f 69/138/62 75/114/68 91/136/84
f 73/112/66 71/139/64 70/140/63
f 70/140/63 74/113/67 73/112/66
f 74/141/67 70/109/63 82/142/75
f 82/142/75 81/143/74 74/141/67
f 92/144/85 77/118/70 80/121/73
f 80/121/73 82/142/75 92/144/85
f 79/122/72 78/145/71 91/136/84
f 91/136/84 81/123/74 79/122/72
f 78/145/71 77/146/70 92/147/85
f 92/147/85 91/136/84 78/145/71
f 69/138/62 92/137/85 83/148/76
f 83/148/76 86/149/79 69/138/62
f 92/144/85 82/142/75 84/129/77
f 84/129/77 83/128/76 92/144/85
f 82/142/75 70/109/63 85/130/78
f 85/130/78 84/129/77 82/142/75
f 70/109/63 69/108/62 86/131/79
f 86/131/79 85/130/78 70/109/63
f 74/141/67 81/143/74 87/150/80
f 87/150/80 90/151/83 74/141/67
f 81/123/74 91/136/84 88/133/81
f 88/133/81 87/132/80 81/123/74
f 91/136/84 75/114/68 89/134/82
f 89/134/82 88/133/81 91/136/84
f 75/114/68 74/113/67 90/135/83
f 90/135/83 89/134/82 75/114/68
f 93/152/86 94/153/87 95/154/88
f 95/154/88 96/155/89 93/152/86
f 97/156/90 98/157/91 99/158/92
f 99/158/92 100/159/93 97/156/90
f 93/152/86 97/156/90 100/159/93
f 100/159/93 94/153/87 93/152/86
f 94/153/87 100/159/93 99/160/92
f 99/160/92 95/161/88 94/153/87
f 95/154/88 99/162/92 98/163/91
f 98/163/91 96/155/89 95/154/88
f 96/155/89 98/163/91 97/164/90
f 97/164/90 93/165/86 96/155/89
f 101/166/86 102/167/87 103/168/88
f 103/168/88 104/169/89 101/166/86
f 105/170/90 106/171/91 107/172/92
f 107/172/92 108/173/93 105/170/90
f 101/166/86 105/170/90 108/173/93
f 108/173/93 102/167/87 101/166/86
f 102/167/87 108/173/93 107/174/92
f 107/174/92 103/175/88 102/167/87
f 103/168/88 107/176/92 106/177/91
f 106/177/91 104/169/89 103/168/88
f 104/169/89 106/177/91 105/178/90
f 105/178/90 101/179/86 104/169/89
f 109/180/94 110/181/95 111/182/96
f 111/182/96 112/183/97 109/180/94
f 113/184/98 114/185/99 115/186/100
f 115/186/100 116/187/101 113/184/98
f 117/188/102 118/189/103 110/181/95
f 110/181/95 109/180/94 117/188/102
f 110/181/95 118/190/103 119/191/104
f 119/191/104 111/182/96 110/181/95
f 120/192/105 121/193/106 122/194/107
f 122/194/107 123/195/108 120/192/105
f 122/194/107 121/193/106 124/196/109
f 124/196/109 125/197/110 122/194/107
f 126/198/111 127/199/112 128/200/113
f 128/200/113 129/201/114 126/198/111
f 130/202/115 131/203/116 132/204/117
f 132/204/117 133/205/118 130/202/115
f 133/205/118 132/204/117 134/206/119
f 134/206/119 135/207/120 133/205/118
f 130/202/115 114/185/99 136/208/121
f 136/208/121 137/209/122 130/202/115
f 113/184/98 116/187/101 118/210/103
f 118/210/103 117/211/102 113/184/98
f 116/187/101 115/186/100 119/191/104
f 119/191/104 118/190/103 116/187/101
f 138/212/123 139/213/124 121/214/106
f 121/214/106 120/215/105 138/212/123
f 139/213/124 140/216/125 124/217/109
f 124/217/109 121/214/106 139/213/124
f 123/195/108 141/218/126 142/219/127
f 142/219/127 120/220/105 123/195/108
f 109/180/94 112/183/97 136/221/121
f 136/221/121 117/222/102 109/180/94
f 143/223/128 137/224/122 128/200/113
f 128/200/113 127/199/112 143/223/128
f 141/218/126 125/197/110 127/199/112
f 127/199/112 126/198/111 141/218/126
f 140/216/125 144/225/129 132/204/117
f 132/204/117 131/203/116 140/216/125
f 144/225/129 142/219/127 134/206/119
f 134/206/119 132/204/117 144/225/129
f 130/202/115 137/209/122 143/226/128
f 143/226/128 131/203/116 130/202/115
f 129/201/114 135/207/120 134/206/119
f 134/206/119 126/198/111 129/201/114
f 124/196/109 143/223/128 127/199/112
f 127/199/112 125/197/110 124/196/109
f 131/203/116 143/226/128 124/217/109
f 124/217/109 140/216/125 131/203/116
f 126/198/111 134/206/119 142/219/127
f 142/219/127 141/218/126 126/198/111
f 141/218/126 123/195/108 122/194/107
f 122/194/107 125/197/110 141/218/126
f 139/213/124 138/212/123 144/225/129
f 144/225/129 140/216/125 139/213/124
f 138/212/123 120/227/105 142/219/127
f 142/219/127 144/225/129 138/212/123
f 129/201/114 128/200/113 112/183/97
f 112/183/97 111/182/96 129/201/114
f 114/185/99 130/202/115 133/205/118
f 133/205/118 115/186/100 114/185/99
f 135/207/120 129/201/114 111/182/96
f 111/182/96 119/191/104 135/207/120
f 113/184/98 117/228/102 136/208/121
f 136/208/121 114/185/99 113/184/98
f 115/186/100 133/205/118 135/207/120
f 135/207/120 119/191/104 115/186/100
f 128/200/113 137/224/122 136/221/121
f 136/221/121 112/183/97 128/200/113
f 145/229/130 146/230/131 147/231/132
f 147/231/132 148/232/133 145/229/130
f 149/233/134 150/234/135 151/235/136
f 151/235/136 152/236/137 149/233/134
f 153/237/138 145/229/130 148/232/133
f 148/232/133 154/238/139 153/237/138
f 148/232/133 147/231/132 155/239/140
f 155/239/140 154/240/139 148/232/133
f 156/241/141 157/242/142 158/243/143
f 158/243/143 159/244/144 156/241/141
f 158/243/143 160/245/145 161/246/146
f 161/246/146 159/244/144 158/243/143
f 162/247/147 163/248/148 164/249/149
f 164/249/149 165/250/150 162/247/147
f 166/251/151 167/252/152 168/253/153
f 168/253/153 169/254/154 166/251/151
f 167/252/152 170/255/155 171/256/156
f 171/256/156 168/253/153 167/252/152
f 166/251/151 172/257/157 173/258/158
f 173/258/158 152/236/137 166/251/151
f 149/233/134 153/259/138 154/260/139
f 154/260/139 150/234/135 149/233/134
f 150/234/135 154/240/139 155/239/140
f 155/239/140 151/235/136 150/234/135
f 174/261/159 156/262/141 159/263/144
f 159/263/144 175/264/160 174/261/159
f 175/264/160 159/263/144 161/265/146
f 161/265/146 176/266/161 175/264/160
f 157/242/142 156/267/141 177/268/162
f 177/268/162 178/269/163 157/242/142
f 145/229/130 153/270/138 173/271/158
f 173/271/158 146/230/131 145/229/130
f 179/272/164 165/250/150 164/249/149
f 164/249/149 172/273/157 179/272/164
f 178/269/163 162/247/147 165/250/150
f 165/250/150 160/245/145 178/269/163
f 176/266/161 169/254/154 168/253/153
f 168/253/153 180/274/165 176/266/161
f 180/274/165 168/253/153 171/256/156
f 171/256/156 177/268/162 180/274/165
f 166/251/151 169/254/154 179/275/164
f 179/275/164 172/257/157 166/251/151
f 163/248/148 162/247/147 171/256/156
f 171/256/156 170/255/155 163/248/148
f 161/246/146 160/245/145 165/250/150
f 165/250/150 179/272/164 161/246/146
f 169/254/154 176/266/161 161/265/146
f 161/265/146 179/275/164 169/254/154
f 162/247/147 178/269/163 177/268/162
f 177/268/162 171/256/156 162/247/147
f 178/269/163 160/245/145 158/243/143
f 158/243/143 157/242/142 178/269/163
f 175/264/160 176/266/161 180/274/165
f 180/274/165 174/261/159 175/264/160
f 174/261/159 180/274/165 177/268/162
f 177/268/162 156/276/141 174/261/159
f 163/248/148 147/231/132 146/230/131
f 146/230/131 164/249/149 163/248/148
f 152/236/137 151/235/136 167/252/152
f 167/252/152 166/251/151 152/236/137
f 170/255/155 155/239/140 147/231/132
f 147/231/132 163/248/148 170/255/155
f 149/233/134 152/236/137 173/258/158
f 173/258/158 153/277/138 149/233/134
f 151/235/136 155/239/140 170/255/155
f 170/255/155 167/252/152 151/235/136
f 164/249/149 146/230/131 173/271/158
f 173/271/158 172/273/157 164/249/149
f 181/278/2 18/279/3 182/280/3
f 182/280/3 183/281/2 181/278/2
f 25/282/5 22/283/6 184/284/6
f 184/284/6 185/285/5 25/282/5
f 186/286/166 187/287/167 188/288/167
f 188/288/167 189/289/12 186/286/166
f 187/287/167 181/278/2 183/281/2
f 183/281/2 188/288/167 187/287/167
f 21/290/19 186/291/166 189/292/12
f 189/292/12 190/293/16 21/290/19
f 191/294/17 3/295/3 182/296/3
f 182/296/3 192/297/17 191/294/17
f 16/298/16 6/299/6 184/300/6
f 184/300/6 190/301/16 16/298/16
f 5/302/5 191/294/17 192/297/17
f 192/297/17 185/303/5 5/302/5
f 183/304/2 182/296/3 3/295/3
f 3/295/3 2/305/2 183/304/2
f 185/303/5 184/300/6 6/299/6
f 6/299/6 5/302/5 185/303/5
f 189/306/12 188/307/167 13/308/13
f 13/308/13 12/309/12 189/306/12
f 188/307/167 183/304/2 2/305/2
f 2/305/2 13/308/13 188/307/167
f 190/301/16 189/310/12 12/311/12
f 12/311/12 16/298/16 190/301/16
f 10/312/10 4/4/4 3/3/3
f 3/3/3 191/313/17 10/312/10
f 15/21/15 7/7/7 6/6/6
f 6/6/6 16/22/16 15/21/15
f 8/8/8 10/312/10 191/313/17
f 191/313/17 5/5/5 8/8/8
f 192/314/17 182/280/3 18/279/3
f 18/279/3 17/315/17 192/314/17
f 190/293/16 184/284/6 22/283/6
f 22/283/6 21/290/19 190/293/16
f 185/285/5 192/314/17 17/315/17
f 17/315/17 25/282/5 185/285/5
f 193/316/2 19/28/18 18/27/3
f 18/27/3 181/317/2 193/316/2
f 26/35/5 23/32/6 22/31/6
f 22/31/6 25/34/5 26/35/5
f 194/318/166 195/319/167 187/320/167
f 187/320/167 186/321/166 194/318/166
f 195/319/167 193/316/2 181/317/2
f 181/317/2 187/320/167 195/319/167
f 24/33/19 194/322/166 186/323/166
f 186/323/166 21/30/19 24/33/19
