# Blender v2.79 (sub 0) OBJ File: 'rabbitcatcher.obj'
# www.blender.org
o Mesh.014_Mesh.001_Box58.002
v -0.012771 -0.744163 0.014378
v 0.013662 -0.744163 0.014378
v 0.283381 1.377226 0.025241
v -0.280595 1.380376 0.023278
v 0.014483 -0.744163 -0.014218
v 0.283381 1.377226 -0.023525
v -0.013592 -0.744163 -0.014629
v -0.280595 1.380376 -0.020439
v -0.252377 1.449152 -0.000673
v 0.256828 1.449152 -0.000673
v 0.000780 0.719439 -0.000850
v -0.019139 0.691219 -0.000850
v 0.017380 0.684580 -0.000850
vt 0.000000 0.000000
vt 1.000000 0.000000
vt 1.000000 1.000000
vt 0.000000 1.000000
vt 0.000000 0.000000
vt 0.000000 1.000000
vt 1.000000 1.000000
vt 1.000000 0.000000
vt 0.000000 0.000000
vt 0.000000 1.000000
vt 1.000000 0.000000
vt 1.000000 1.000000
vt 1.000000 0.000000
vt 0.000000 1.000000
vt 1.000000 1.000000
vt 0.000000 0.000000
vt 1.000000 1.000000
vt 1.000000 0.000000
vt 0.000000 0.000000
vt 0.000000 1.000000
vt 1.000000 1.000000
vt 0.000000 0.000000
vt 0.000000 1.000000
vt 0.000000 0.000000
vt 0.000000 0.000000
vt 1.000000 0.000000
vt 1.000000 1.000000
vn -0.5324 -0.6136 0.5831
vn 0.5295 -0.6152 0.5840
vn 0.7088 0.1666 0.6855
vn -0.7126 0.1776 0.6788
vn 0.5392 -0.6095 -0.5813
vn 0.7165 0.1556 -0.6800
vn -0.5463 -0.6014 -0.5831
vn -0.7231 0.1680 -0.6700
vn -0.3498 0.9366 -0.0222
vn 0.3777 0.9257 -0.0208
vn 0.0000 -0.0000 1.0000
s 1
f 1/1/1 2/2/2 3/3/3 4/4/4
f 2/5/2 5/6/5 6/7/6 3/8/3
f 7/9/7 8/10/8 6/7/6 5/11/5
f 1/1/1 4/4/4 8/12/8 7/13/7
f 1/1/1 7/14/7 5/15/5 2/2/2
f 6/16/6 8/10/8 9/17/9 10/18/10
f 3/19/3 6/20/6 10/21/10
f 4/22/4 3/8/3 10/21/10 9/23/9
f 8/24/8 4/4/4 9/17/9
f 11/25/11 12/26/11 13/27/11
