# This file uses centimeters as units for non-parametric coordinates.

g default
v -18.780390 0.776092 0.009448
v -18.440908 0.776092 0.009448
v -18.610649 2.031722 0.009448
v -18.610649 2.031722 -0.009448
v -18.780390 0.776092 -0.009448
v -18.440908 0.776092 -0.009448
v -18.780390 1.937500 0.009448
v -18.780390 1.937500 -0.009448
v -18.440908 1.937500 -0.009448
v -18.440908 1.937500 0.009448
vt 0.375000 0.000000
vt 0.625000 0.000000
vt 0.500000 0.250000
vt 0.500000 0.500000
vt 0.375000 0.750000
vt 0.625000 0.750000
vt 0.375000 1.000000
vt 0.625000 1.000000
vt 0.875000 0.000000
vt 0.875000 0.250000
vt 0.125000 0.000000
vt 0.125000 0.250000
vt 0.375000 0.223069
vt 0.125000 0.223069
vt 0.375000 0.526931
vt 0.625000 0.526931
vt 0.875000 0.223069
vt 0.625000 0.223069
vn 0.000000 0.000000 1.000000
vn 0.000000 0.000000 1.000000
vn 0.000000 0.000000 1.000000
vn 0.000000 0.000000 1.000000
vn 0.000000 0.000000 -1.000000
vn 0.000000 0.000000 -1.000000
vn 0.000000 0.000000 -1.000000
vn 0.000000 0.000000 -1.000000
vn 0.000000 -1.000000 0.000000
vn 0.000000 -1.000000 0.000000
vn 0.000000 -1.000000 0.000000
vn 0.000000 -1.000000 0.000000
vn 1.000000 0.000000 0.000000
vn 1.000000 0.000000 0.000000
vn 0.861781 0.507280 0.000000
vn 0.861781 0.507280 0.000000
vn -1.000000 0.000000 0.000000
vn -1.000000 0.000000 0.000000
vn -0.861781 0.507280 0.000000
vn -0.861781 0.507280 0.000000
vn -0.485334 0.874329 0.000000
vn -0.485334 0.874329 0.000000
vn 0.000000 0.000000 -1.000000
vn 0.485334 0.874329 0.000000
vn 0.485334 0.874329 0.000000
vn 0.000000 0.000000 1.000000
s 1
g pCube17
f 1/1/1 2/2/2 10/18/3 7/13/4
s 2
f 8/15/5 9/16/6 6/6/7 5/5/8
s off
f 5/5/9 6/6/10 2/8/11 1/7/12
s 4
f 2/2/13 6/9/14 9/17/15 10/18/16
s 5
f 5/11/17 1/1/18 7/13/19 8/14/20
f 8/14/20 7/13/19 3/3/21 4/12/22
s 2
f 4/4/23 9/16/6 8/15/5
s 4
f 10/18/16 9/17/15 4/10/24 3/3/25
s 1
f 7/13/4 10/18/3 3/3/26
