# This file uses centimeters as units for non-parametric coordinates.

g default
v -18.326021 1.938723 -0.005906
v -18.326021 1.945265 -0.008616
v -18.326021 1.951807 -0.005907
v -18.326021 1.954517 0.000636
v -18.326021 1.951807 0.007178
v -18.326021 1.945265 0.009887
v -18.326021 1.938723 0.007178
v -18.326021 1.936013 0.000636
v -17.969290 1.938723 -0.005906
v -17.969290 1.945265 -0.008616
v -17.969290 1.951807 -0.005906
v -17.969290 1.954517 0.000636
v -17.969290 1.951807 0.007178
v -17.969290 1.945265 0.009888
v -17.969290 1.938723 0.007178
v -17.969290 1.936013 0.000636
v -18.326021 1.945265 0.000636
v -17.969290 1.945265 0.000636
v -18.326021 0.775352 -0.005906
v -18.326021 0.781894 -0.008616
v -18.326021 0.788436 -0.005907
v -18.326021 0.791146 0.000636
v -18.326021 0.788436 0.007178
v -18.326021 0.781894 0.009887
v -18.326021 0.775352 0.007178
v -18.326021 0.772642 0.000636
v -17.969290 0.775352 -0.005906
v -17.969290 0.781894 -0.008616
v -17.969290 0.788436 -0.005906
v -17.969290 0.791146 0.000636
v -17.969290 0.788436 0.007178
v -17.969290 0.781894 0.009888
v -17.969290 0.775352 0.007178
v -17.969290 0.772642 0.000636
v -18.326021 0.781894 0.000636
v -17.969290 0.781894 0.000636
v -18.315453 0.783570 0.000636
v -17.979858 0.783570 0.000636
v -18.315453 1.941193 0.000636
v -17.979858 1.941193 0.000636
v -18.150074 2.028937 0.000685
v -18.147654 2.029897 0.000685
v -18.145231 2.028962 0.000685
v -18.051153 1.948241 0.000685
v -18.054653 1.943098 0.000685
v -18.145460 2.021136 0.000685
v -18.147654 2.022000 0.000685
v -18.149847 2.021139 0.000685
v -18.240658 1.943099 0.000685
v -18.244160 1.946947 0.000685
v -18.149961 2.025106 0.004092
v -18.242592 1.945423 0.004035
v -18.242592 1.945423 -0.002663
v -18.149961 2.025106 -0.002721
v -18.147654 2.026032 -0.002724
v -18.145346 2.025107 -0.002721
v -18.052752 1.945962 -0.002699
v -18.052752 1.945962 0.004071
v -18.145346 2.025107 0.004093
v -18.147654 2.026032 0.004095
v -18.142870 2.016964 -0.032486
v -18.147713 2.019760 -0.032486
v -18.152557 2.016964 -0.032486
v -18.152557 2.011372 -0.032486
v -18.147713 2.008574 -0.032486
v -18.142870 2.011372 -0.032486
v -18.139004 2.019196 0.032486
v -18.147713 2.024224 0.032486
v -18.156422 2.019196 0.032486
v -18.156422 2.009139 0.032486
v -18.147713 2.004111 0.032486
v -18.139004 2.009139 0.032486
v -18.147713 2.014168 -0.032486
v -18.147713 2.014168 0.032486
v -18.315453 0.783570 0.000636
v -17.979858 0.783570 0.000636
v -18.315453 1.941193 0.000636
v -17.979858 1.941193 0.000636
vt 0.005652 0.992959
vt 0.005652 0.978746
vt 0.428186 0.978746
vt 0.428186 0.992959
vt 0.005652 0.964533
vt 0.428186 0.964533
vt 0.005652 0.950320
vt 0.428186 0.950320
vt 0.005652 0.936106
vt 0.428186 0.936106
vt 0.005652 0.921893
vt 0.428186 0.921893
vt 0.005652 0.907679
vt 0.428186 0.907679
vt 0.005652 0.893466
vt 0.428186 0.893466
vt 0.005652 0.879253
vt 0.428186 0.879253
vt 0.007954 0.827110
vt 0.018995 0.800455
vt 0.044142 0.827110
vt 0.018995 0.853765
vt 0.045650 0.864806
vt 0.072305 0.853765
vt 0.083346 0.827110
vt 0.072305 0.800455
vt 0.045650 0.789414
vt 0.167095 0.800455
vt 0.178136 0.827110
vt 0.138932 0.827110
vt 0.167095 0.853765
vt 0.140440 0.864806
vt 0.113785 0.853765
vt 0.102744 0.827110
vt 0.113785 0.800455
vt 0.140440 0.789414
vt 0.005652 0.992959
vt 0.005652 0.978746
vt 0.428186 0.978746
vt 0.428186 0.992959
vt 0.005652 0.964533
vt 0.428186 0.964533
vt 0.005652 0.950320
vt 0.428186 0.950320
vt 0.005652 0.936106
vt 0.428186 0.936106
vt 0.005652 0.921893
vt 0.428186 0.921893
vt 0.005652 0.907679
vt 0.428186 0.907679
vt 0.005652 0.893466
vt 0.428186 0.893466
vt 0.005652 0.879253
vt 0.428186 0.879253
vt 0.007954 0.827110
vt 0.018995 0.800455
vt 0.044142 0.827110
vt 0.018995 0.853765
vt 0.045650 0.864806
vt 0.072305 0.853765
vt 0.083346 0.827110
vt 0.072305 0.800455
vt 0.045650 0.789414
vt 0.167095 0.800455
vt 0.178136 0.827110
vt 0.138932 0.827110
vt 0.167095 0.853765
vt 0.140440 0.864806
vt 0.113785 0.853765
vt 0.102744 0.827110
vt 0.113785 0.800455
vt 0.140440 0.789414
vt 0.257766 0.000000
vt 0.501598 0.000000
vt 0.501598 0.763884
vt 0.257766 0.763884
vt 0.489680 0.808534
vt 0.375259 0.808534
vt 0.375259 0.800551
vt 0.489680 0.800551
vt 0.650404 0.800551
vt 0.650404 0.808534
vt 0.522433 0.808534
vt 0.522433 0.800551
vt 0.506185 0.808534
vt 0.506185 0.800551
vt 0.375259 0.823526
vt 0.375259 0.816381
vt 0.489680 0.816381
vt 0.489680 0.823526
vt 0.489680 0.831561
vt 0.375260 0.831561
vt 0.522433 0.823526
vt 0.522433 0.816381
vt 0.650404 0.816381
vt 0.650404 0.823526
vt 0.650404 0.831561
vt 0.522433 0.831561
vt 0.506184 0.823526
vt 0.506184 0.816381
vt 0.506185 0.831561
vt 0.636914 0.888768
vt 0.636914 0.904400
vt 0.495867 0.904400
vt 0.495867 0.888768
vt 0.636914 0.920033
vt 0.495867 0.920033
vt 0.636914 0.935666
vt 0.495867 0.935666
vt 0.636914 0.951299
vt 0.495867 0.951299
vt 0.636914 0.966931
vt 0.495867 0.966931
vt 0.636914 0.982564
vt 0.495867 0.982564
vt 0.345466 0.809158
vt 0.345466 0.843690
vt 0.316942 0.826424
vt 0.315560 0.791893
vt 0.285655 0.809158
vt 0.285655 0.843690
vt 0.315560 0.860956
vt 0.204262 0.843690
vt 0.204262 0.809158
vt 0.235549 0.826424
vt 0.234168 0.791893
vt 0.264073 0.809158
vt 0.264073 0.843690
vt 0.234168 0.860956
vt 0.257766 0.000000
vt 0.257766 0.763884
vt 0.501598 0.763884
vt 0.501598 0.000000
vn 0.000000 -0.707123 -0.707091
vn 0.000001 -0.000044 -1.000000
vn 0.000001 -0.000044 -1.000000
vn 0.000000 -0.707123 -0.707091
vn 0.000001 0.707101 -0.707113
vn 0.000001 0.707101 -0.707113
vn 0.000000 1.000000 -0.000013
vn 0.000000 1.000000 -0.000013
vn -0.000001 0.707119 0.707094
vn -0.000001 0.707119 0.707094
vn -0.000001 0.000014 1.000000
vn -0.000001 0.000014 1.000000
vn -0.000001 -0.707110 0.707104
vn -0.000001 -0.707110 0.707104
vn 0.000000 -1.000000 -0.000026
vn 0.000000 -1.000000 -0.000026
vn -1.000000 0.000000 0.000000
vn -1.000000 0.000000 0.000000
vn -1.000000 0.000000 0.000000
vn -1.000000 0.000000 0.000000
vn -1.000000 0.000000 0.000000
vn -1.000000 0.000000 0.000000
vn -1.000000 0.000000 0.000000
vn -1.000000 0.000000 0.000000
vn -1.000000 0.000000 0.000000
vn 1.000000 0.000000 0.000000
vn 1.000000 0.000000 0.000000
vn 1.000000 0.000000 0.000000
vn 1.000000 0.000000 0.000000
vn 1.000000 0.000000 0.000000
vn 1.000000 0.000000 0.000000
vn 1.000000 0.000000 0.000000
vn 1.000000 0.000000 0.000000
vn 1.000000 0.000000 0.000000
vn 0.000000 -0.707124 -0.707090
vn 0.000001 -0.000033 -1.000000
vn 0.000001 -0.000033 -1.000000
vn 0.000000 -0.707124 -0.707090
vn 0.000001 0.707106 -0.707108
vn 0.000001 0.707106 -0.707108
vn 0.000000 1.000000 -0.000018
vn 0.000000 1.000000 -0.000018
vn -0.000001 0.707119 0.707095
vn -0.000001 0.707119 0.707095
vn -0.000001 -0.000004 1.000000
vn -0.000001 -0.000004 1.000000
vn -0.000000 -0.707114 0.707099
vn -0.000000 -0.707114 0.707099
vn 0.000000 -1.000000 -0.000015
vn 0.000000 -1.000000 -0.000015
vn -1.000000 0.000000 0.000000
vn -1.000000 0.000000 0.000000
vn -1.000000 0.000000 0.000000
vn -1.000000 0.000000 0.000000
vn -1.000000 0.000000 0.000000
vn -1.000000 0.000000 0.000000
vn -1.000000 0.000000 0.000000
vn -1.000000 0.000000 0.000000
vn -1.000000 0.000000 0.000000
vn 1.000000 0.000000 0.000000
vn 1.000000 0.000000 0.000000
vn 1.000000 0.000000 0.000000
vn 1.000000 0.000000 0.000000
vn 1.000000 0.000000 0.000000
vn 1.000000 0.000000 0.000000
vn 1.000000 0.000000 0.000000
vn 1.000000 0.000000 0.000000
vn 1.000000 0.000000 0.000000
vn 0.000000 0.000000 1.000000
vn 0.000000 0.000000 1.000000
vn 0.000000 0.000000 1.000000
vn 0.000000 0.000000 1.000000
vn -0.016172 0.018684 0.999695
vn -0.029148 0.030218 0.999118
vn 0.651790 -0.758400 -0.000040
vn 0.524229 -0.851578 -0.000021
vn -0.650690 -0.759343 -0.000050
vn 0.019176 0.022575 0.999561
vn 0.010185 0.015221 0.999832
vn -0.521777 -0.853082 -0.000087
vn -0.001439 0.008561 0.999962
vn -0.000153 -1.000000 -0.000067
vn -0.029154 0.030222 -0.999118
vn -0.654722 0.755870 -0.000034
vn -0.530565 0.847644 -0.000017
vn -0.016175 0.018687 -0.999695
vn 0.010248 0.015279 -0.999831
vn 0.523047 0.852304 -0.000021
vn 0.650523 0.759487 -0.000096
vn 0.019150 0.022537 -0.999563
vn -0.001368 0.008635 -0.999962
vn -0.003072 0.999995 0.000036
vn 0.864030 0.498751 -0.068551
vn 0.000117 0.997648 -0.068547
vn 0.000117 0.997648 -0.068547
vn 0.864030 0.498751 -0.068551
vn -0.863974 0.498853 -0.068523
vn -0.863974 0.498853 -0.068523
vn -0.863974 -0.498853 -0.068522
vn -0.863974 -0.498853 -0.068522
vn 0.000117 -0.997648 -0.068544
vn 0.000117 -0.997648 -0.068544
vn 0.864031 -0.498751 -0.068549
vn 0.864031 -0.498751 -0.068549
vn 0.000000 0.000000 -1.000000
vn 0.000000 0.000000 -1.000000
vn 0.000000 0.000000 -1.000000
vn 0.000000 0.000000 -1.000000
vn 0.000000 0.000000 -1.000000
vn 0.000000 0.000000 -1.000000
vn 0.000000 0.000000 -1.000000
vn 0.000000 0.000000 1.000000
vn 0.000000 0.000000 1.000000
vn 0.000000 0.000000 1.000000
vn 0.000000 0.000000 1.000000
vn 0.000000 0.000000 1.000000
vn -0.000000 0.000000 1.000000
vn -0.000000 0.000000 1.000000
vn 0.000000 0.000000 -1.000000
vn 0.000000 0.000000 -1.000000
vn 0.000000 0.000000 -1.000000
vn 0.000000 0.000000 -1.000000
s 1
g polySurface8189
f 1/1/1 2/2/2 10/3/3 9/4/4
f 2/2/2 3/5/5 11/6/6 10/3/3
f 3/5/5 4/7/7 12/8/8 11/6/6
f 4/7/7 5/9/9 13/10/10 12/8/8
f 5/9/9 6/11/11 14/12/12 13/10/10
f 6/11/11 7/13/13 15/14/14 14/12/12
f 7/13/13 8/15/15 16/16/16 15/14/14
f 8/15/15 1/17/1 9/18/4 16/16/16
s 2
f 2/19/17 1/20/18 17/21/19
f 3/22/20 2/19/17 17/21/19
f 4/23/21 3/22/20 17/21/19
f 5/24/22 4/23/21 17/21/19
f 6/25/23 5/24/22 17/21/19
f 7/26/24 6/25/23 17/21/19
f 8/27/25 7/26/24 17/21/19
f 1/20/18 8/27/25 17/21/19
s 3
f 9/28/26 10/29/27 18/30/28
f 10/29/27 11/31/29 18/30/28
f 11/31/29 12/32/30 18/30/28
f 12/32/30 13/33/31 18/30/28
f 13/33/31 14/34/32 18/30/28
f 14/34/32 15/35/33 18/30/28
f 15/35/33 16/36/34 18/30/28
f 16/36/34 9/28/26 18/30/28
s 4
f 19/37/35 20/38/36 28/39/37 27/40/38
f 20/38/36 21/41/39 29/42/40 28/39/37
f 21/41/39 22/43/41 30/44/42 29/42/40
f 22/43/41 23/45/43 31/46/44 30/44/42
f 23/45/43 24/47/45 32/48/46 31/46/44
f 24/47/45 25/49/47 33/50/48 32/48/46
f 25/49/47 26/51/49 34/52/50 33/50/48
f 26/51/49 19/53/35 27/54/38 34/52/50
s 5
f 20/55/51 19/56/52 35/57/53
f 21/58/54 20/55/51 35/57/53
f 22/59/55 21/58/54 35/57/53
f 23/60/56 22/59/55 35/57/53
f 24/61/57 23/60/56 35/57/53
f 25/62/58 24/61/57 35/57/53
f 26/63/59 25/62/58 35/57/53
f 19/56/52 26/63/59 35/57/53
s 6
f 27/64/60 28/65/61 36/66/62
f 28/65/61 29/67/63 36/66/62
f 29/67/63 30/68/64 36/66/62
f 30/68/64 31/69/65 36/66/62
f 31/69/65 32/70/66 36/66/62
f 32/70/66 33/71/67 36/66/62
f 33/71/67 34/72/68 36/66/62
f 34/72/68 27/64/60 36/66/62
s off
f 37/73/69 38/74/70 40/75/71 39/76/72
s 7
f 51/77/73 52/78/74 49/79/75 48/80/76
f 45/81/77 58/82/78 59/83/79 46/84/80
f 46/84/80 59/83/79 60/85/81 47/86/82
f 47/86/82 60/85/81 51/77/73 48/80/76
f 53/87/83 50/88/84 41/89/85 54/90/86
f 54/90/86 48/91/76 49/92/75 53/87/83
f 56/93/87 43/94/88 44/95/89 57/96/90
f 57/96/90 45/97/77 46/98/80 56/93/87
f 55/99/91 42/100/92 43/94/88 56/93/87
f 46/98/80 47/101/82 55/99/91 56/93/87
f 41/89/85 42/100/92 55/99/91 54/90/86
f 47/101/82 48/91/76 54/90/86 55/99/91
f 50/88/84 52/78/74 51/77/73 41/89/85
f 59/83/79 58/82/78 44/95/89 43/94/88
f 60/85/81 59/83/79 43/94/88 42/100/92
f 41/89/85 51/77/73 60/85/81 42/100/92
s 8
f 61/102/93 62/103/94 68/104/95 67/105/96
f 62/103/94 63/106/97 69/107/98 68/104/95
f 63/106/97 64/108/99 70/109/100 69/107/98
f 64/108/99 65/110/101 71/111/102 70/109/100
f 65/110/101 66/112/103 72/113/104 71/111/102
f 66/112/103 61/114/93 67/115/96 72/113/104
s 9
f 62/116/105 61/117/106 73/118/107
f 63/119/108 62/116/105 73/118/107
f 64/120/109 63/119/108 73/118/107
f 65/121/110 64/120/109 73/118/107
f 66/122/111 65/121/110 73/118/107
f 61/117/106 66/122/111 73/118/107
s 10
f 67/123/112 68/124/113 74/125/114
f 68/124/113 69/126/115 74/125/114
f 69/126/115 70/127/116 74/125/114
f 70/127/116 71/128/117 74/125/114
f 71/128/117 72/129/118 74/125/114
f 72/129/118 67/123/112 74/125/114
s off
f 75/130/119 77/131/120 78/132/121 76/133/122
