# This file uses centimeters as units for non-parametric coordinates.

g default
v -16.844551 0.780519 0.038210
v -16.844551 0.759615 0.023843
v -16.493561 0.759615 0.023843
v -16.493561 0.780519 0.038210
v -16.844553 0.754992 -0.001098
v -16.493561 0.754992 -0.001098
v -16.844553 0.769360 -0.022003
v -16.493561 0.769360 -0.022003
v -16.844553 0.794301 -0.026626
v -16.493561 0.794301 -0.026626
v -16.844553 0.815206 -0.012259
v -16.493561 0.815206 -0.012259
v -16.844553 0.819828 0.012683
v -16.493561 0.819828 0.012683
v -16.844553 0.805461 0.033587
v -16.493561 0.805461 0.033587
v -16.844553 0.761829 -0.027179
v -16.493561 0.761829 -0.027179
v -16.672295 0.821093 0.005901
v -16.669058 0.820974 0.007030
v -16.665823 0.821091 0.005930
v -16.566698 0.771067 -0.029386
v -16.572193 0.764668 -0.026200
v -16.667526 0.820745 -0.004121
v -16.669058 0.820842 -0.003489
v -16.670582 0.820745 -0.004117
v -16.765919 0.764670 -0.026201
v -16.771423 0.769866 -0.028894
v -16.671595 0.816518 0.001172
v -16.768911 0.769725 -0.023675
v -16.768911 0.765517 -0.032024
v -16.671595 0.825965 0.000877
v -16.669058 0.825973 0.002086
v -16.666531 0.825967 0.000865
v -16.569298 0.765978 -0.032295
v -16.569298 0.770119 -0.023829
v -16.666531 0.816515 0.001163
v -16.669058 0.816548 0.002123
v -16.583813 0.784692 -0.032093
v -16.598026 0.784692 -0.032093
v -16.740086 0.784692 -0.032093
v -16.753006 0.784692 -0.032093
v -16.747261 0.784788 -0.027409
v -16.747261 0.784596 -0.036778
v -16.590475 0.784596 -0.036809
v -16.590475 0.784789 -0.027378
v -16.606537 0.801746 -0.029432
v -16.717413 0.801746 -0.029432
v -16.724636 0.799719 -0.025193
v -16.613222 0.803781 -0.033689
v -16.620701 0.801746 -0.029432
v -16.730631 0.801746 -0.029432
v -16.724636 0.803772 -0.033670
v -16.613222 0.799710 -0.025174
v -16.636389 0.817328 -0.015635
v -16.687622 0.817328 -0.015635
v -16.694910 0.813219 -0.013327
v -16.643105 0.821447 -0.017949
v -16.650490 0.817328 -0.015635
v -16.701241 0.817328 -0.015635
v -16.694908 0.821437 -0.017943
v -16.643105 0.813209 -0.013321
v -16.493578 0.779515 0.010707
v -16.493578 0.785350 0.014718
v -16.493580 0.778224 0.003744
v -16.493580 0.782235 -0.002091
v -16.493580 0.789197 -0.003382
v -16.493580 0.795033 0.000629
v -16.493578 0.796323 0.007591
v -16.493578 0.792313 0.013427
v -16.483086 0.785347 0.014713
v -16.483086 0.779512 0.010702
v -16.483086 0.778221 0.003740
v -16.483088 0.782232 -0.002096
v -16.483088 0.789195 -0.003386
v -16.483086 0.795030 0.000625
v -16.483086 0.796321 0.007586
v -16.483086 0.792310 0.013423
v -16.483086 0.787271 0.005664
v -16.664633 0.759592 0.003525
v -16.669476 0.758727 0.000866
v -16.674320 0.759592 0.003525
v -16.674320 0.761320 0.008844
v -16.669476 0.762184 0.011503
v -16.664633 0.761320 0.008844
v -16.660767 0.820695 -0.018675
v -16.669476 0.819141 -0.023458
v -16.678185 0.820695 -0.018675
v -16.678185 0.823803 -0.009111
v -16.669476 0.825357 -0.004329
v -16.660767 0.823803 -0.009111
v -16.669476 0.760456 0.006185
v -16.669476 0.822249 -0.013893
v -16.854692 0.762766 -0.019416
v -16.854692 0.756707 -0.023581
v -16.854692 0.755367 -0.030809
v -16.854692 0.759532 -0.036869
v -16.854692 0.766761 -0.038210
v -16.854692 0.772820 -0.034044
v -16.854692 0.774160 -0.026815
v -16.854692 0.769996 -0.020756
v -16.484285 0.762766 -0.019416
v -16.484285 0.756707 -0.023581
v -16.484285 0.755367 -0.030809
v -16.484285 0.759532 -0.036869
v -16.484285 0.766761 -0.038209
v -16.484285 0.772820 -0.034044
v -16.484285 0.774160 -0.026815
v -16.484285 0.769996 -0.020756
v -16.854692 0.764764 -0.028812
v -16.484285 0.764764 -0.028812
v -16.844536 0.779515 0.010707
v -16.844536 0.785350 0.014718
v -16.844536 0.778224 0.003744
v -16.844536 0.782235 -0.002091
v -16.844536 0.789197 -0.003382
v -16.844536 0.795033 0.000629
v -16.844536 0.796323 0.007591
v -16.844536 0.792313 0.013427
v -16.855026 0.785347 0.014713
v -16.855026 0.779512 0.010702
v -16.855026 0.778221 0.003740
v -16.855026 0.782232 -0.002096
v -16.855026 0.789195 -0.003386
v -16.855026 0.795030 0.000625
v -16.855026 0.796321 0.007586
v -16.855026 0.792310 0.013423
v -16.855026 0.787271 0.005664
vt 0.270027 0.752544
vt 0.270026 0.735524
vt 0.006255 0.735525
vt 0.006255 0.752544
vt 0.270027 0.718505
vt 0.006255 0.718505
vt 0.270027 0.701486
vt 0.006255 0.701486
vt 0.270027 0.684466
vt 0.006255 0.684466
vt 0.270027 0.667447
vt 0.006255 0.667447
vt 0.270027 0.650427
vt 0.006255 0.650427
vt 0.270027 0.633408
vt 0.006255 0.633408
vt 0.270027 0.616388
vt 0.006255 0.616388
vt 0.270027 0.701486
vt 0.006255 0.701486
vt 0.649257 0.816184
vt 0.585458 0.816601
vt 0.598462 0.800296
vt 0.644323 0.799581
vt 0.373063 0.839290
vt 0.372327 0.820972
vt 0.433267 0.820646
vt 0.447374 0.838480
vt 0.644137 0.836300
vt 0.648965 0.819477
vt 0.652441 0.819438
vt 0.651090 0.836222
vt 0.651296 0.799480
vt 0.652617 0.808532
vt 0.372942 0.817924
vt 0.372633 0.832270
vt 0.425531 0.832366
vt 0.435112 0.817537
vt 0.649257 0.816184
vt 0.585458 0.816601
vt 0.648965 0.819477
vt 0.653793 0.802654
vt 0.572215 0.802654
vt 0.584714 0.819837
vt 0.372327 0.820972
vt 0.433267 0.820646
vt 0.652441 0.819438
vt 0.653793 0.802654
vt 0.654191 0.832787
vt 0.653937 0.801162
vt 0.652617 0.808532
vt 0.372942 0.817924
vt 0.435112 0.817537
vt 0.584714 0.819837
vt 0.447553 0.802495
vt 0.373251 0.803577
vt 0.498723 0.820297
vt 0.512599 0.837768
vt 0.489792 0.832483
vt 0.500092 0.817132
vt 0.420858 0.802654
vt 0.371590 0.802654
vt 0.498723 0.820297
vt 0.500092 0.817132
vt 0.512776 0.801544
vt 0.486275 0.802654
vt 0.598287 0.836834
vt 0.574212 0.832637
vt 0.920645 0.862826
vt 0.910165 0.840118
vt 0.956837 0.797789
vt 0.986121 0.863206
vt 0.910679 0.885843
vt 0.956411 0.928411
vt 0.885976 0.895459
vt 0.886017 0.954825
vt 0.861261 0.886112
vt 0.814611 0.928445
vt 0.850790 0.863395
vt 0.785302 0.863035
vt 0.860746 0.840381
vt 0.814750 0.797762
vt 0.885439 0.830729
vt 0.885771 0.770651
vt 0.896385 0.977576
vt 0.167095 0.800455
vt 0.178136 0.827110
vt 0.138932 0.827110
vt 0.167095 0.853765
vt 0.140440 0.864806
vt 0.113785 0.853765
vt 0.102744 0.827110
vt 0.113785 0.800455
vt 0.140440 0.789414
vt 0.415747 0.950320
vt 0.415747 0.936106
vt 0.428186 0.936106
vt 0.428186 0.950320
vt 0.415747 0.964533
vt 0.428186 0.964533
vt 0.415747 0.978746
vt 0.428186 0.978746
vt 0.415747 0.992959
vt 0.428186 0.992959
vt 0.415747 0.893466
vt 0.415747 0.879253
vt 0.428186 0.879253
vt 0.428186 0.893466
vt 0.415747 0.907679
vt 0.428186 0.907679
vt 0.415747 0.921893
vt 0.428186 0.921893
vt 0.636914 0.888768
vt 0.636914 0.904400
vt 0.495867 0.904400
vt 0.495867 0.888768
vt 0.636914 0.920033
vt 0.495867 0.920033
vt 0.636914 0.935666
vt 0.495867 0.935666
vt 0.636914 0.951299
vt 0.495867 0.951299
vt 0.636914 0.966931
vt 0.495867 0.966931
vt 0.636914 0.982564
vt 0.495867 0.982564
vt 0.345466 0.809158
vt 0.345466 0.843690
vt 0.316942 0.826424
vt 0.315560 0.791893
vt 0.285655 0.809158
vt 0.285655 0.843690
vt 0.315560 0.860956
vt 0.204262 0.843690
vt 0.204262 0.809158
vt 0.235549 0.826424
vt 0.234168 0.791893
vt 0.264073 0.809158
vt 0.264073 0.843690
vt 0.234168 0.860956
vt 0.005652 0.992959
vt 0.005652 0.978746
vt 0.428186 0.978746
vt 0.428186 0.992959
vt 0.005652 0.964533
vt 0.428186 0.964533
vt 0.005652 0.950320
vt 0.428186 0.950320
vt 0.005652 0.936106
vt 0.428186 0.936106
vt 0.005652 0.921893
vt 0.428186 0.921893
vt 0.005652 0.907679
vt 0.428186 0.907679
vt 0.005652 0.893466
vt 0.428186 0.893466
vt 0.005652 0.879253
vt 0.428186 0.879253
vt 0.007954 0.827110
vt 0.018995 0.800455
vt 0.044142 0.827110
vt 0.018995 0.853765
vt 0.045650 0.864806
vt 0.072305 0.853765
vt 0.083346 0.827110
vt 0.072305 0.800455
vt 0.045650 0.789414
vt 0.167095 0.800455
vt 0.178136 0.827110
vt 0.138932 0.827110
vt 0.167095 0.853765
vt 0.140440 0.864806
vt 0.113785 0.853765
vt 0.102744 0.827110
vt 0.113785 0.800455
vt 0.140440 0.789414
vt 0.920645 0.862826
vt 0.910165 0.840118
vt 0.956837 0.797789
vt 0.986121 0.863206
vt 0.910679 0.885843
vt 0.956411 0.928411
vt 0.885976 0.895459
vt 0.886017 0.954825
vt 0.861261 0.886112
vt 0.814611 0.928445
vt 0.850790 0.863395
vt 0.785302 0.863035
vt 0.860746 0.840381
vt 0.814750 0.797762
vt 0.885439 0.830729
vt 0.885771 0.770651
vt 0.896385 0.977576
vt 0.167095 0.800455
vt 0.178136 0.827110
vt 0.138932 0.827110
vt 0.167095 0.853765
vt 0.140440 0.864806
vt 0.113785 0.853765
vt 0.102744 0.827110
vt 0.113785 0.800455
vt 0.140440 0.789414
vt 0.415747 0.950320
vt 0.415747 0.936106
vt 0.428186 0.936106
vt 0.428186 0.950320
vt 0.415747 0.964533
vt 0.428186 0.964533
vt 0.415747 0.978746
vt 0.428186 0.978746
vt 0.415747 0.992959
vt 0.428186 0.992959
vt 0.415747 0.893466
vt 0.415747 0.879253
vt 0.428186 0.879253
vt 0.428186 0.893466
vt 0.415747 0.907679
vt 0.428186 0.907679
vt 0.415747 0.921893
vt 0.428186 0.921893
vn -0.000000 -0.207918 0.978146
vn -0.000000 -0.838665 0.544648
vn -0.000000 -0.838665 0.544648
vn -0.000000 -0.207918 0.978146
vn -0.000000 -0.999332 -0.036538
vn -0.000000 -0.999332 -0.036538
vn 0.000000 -0.182233 -0.983255
vn 0.000000 0.207906 -0.978149
vn 0.000000 0.207906 -0.978149
vn 0.000000 -0.182233 -0.983255
vn 0.000000 0.838670 -0.544639
vn 0.000000 0.838670 -0.544639
vn 0.000000 0.978147 0.207915
vn 0.000000 0.978147 0.207915
vn 0.000000 0.544638 0.838671
vn 0.000000 0.544638 0.838671
vn 0.000000 0.566392 -0.824136
vn 0.000000 0.566392 -0.824136
vn 0.000000 0.566392 -0.824136
vn 0.000000 0.566392 -0.824136
vn 0.000000 -0.967315 -0.253580
vn 0.000000 -0.967315 -0.253580
vn -0.003048 -0.991979 0.126363
vn -0.012559 -0.865115 0.501416
vn 0.594527 -0.390374 -0.702955
vn 0.493302 -0.110318 -0.862834
vn -0.629133 -0.741379 0.233556
vn 0.042113 0.298453 0.953495
vn 0.022516 0.082331 0.996351
vn -0.629542 -0.776288 0.032456
vn -0.494207 -0.110466 -0.862297
vn -0.001450 -0.992251 0.124240
vn -0.001721 -0.998906 0.046737
vn -0.002269 -0.060249 -0.998181
vn -0.018675 -0.232536 -0.972409
vn -0.631331 0.744005 -0.218810
vn -0.629102 0.776058 -0.044314
vn -0.034157 -0.008458 -0.999381
vn -0.013532 0.996327 -0.084553
vn -0.039663 0.880843 -0.471744
vn 0.008966 0.996175 -0.086917
vn 0.483585 0.062611 0.873055
vn 0.605794 0.397059 0.689462
vn 0.031266 0.876673 -0.480070
vn -0.003571 -0.248273 -0.968683
vn 0.014797 -0.025434 -0.999567
vn -0.001763 0.999960 0.008830
vn 0.353815 -0.015547 0.935186
vn -0.487651 0.063167 0.870751
vn -0.356081 -0.015501 0.934327
vn -0.055408 0.316726 0.946898
vn -0.035418 0.096776 0.994676
vn 0.005058 -0.867019 0.498250
vn 0.630183 -0.775813 0.031372
vn 0.629729 -0.741830 0.230498
vn 0.003426 -0.414372 0.910101
vn -0.602951 -0.701602 -0.379743
vn -0.605424 0.718590 0.342185
vn -0.041505 0.470084 -0.881645
vn 0.624635 0.779635 -0.044724
vn 0.627247 0.747177 -0.219743
vn 0.028332 0.457194 -0.888916
vn -0.014265 -0.406429 0.913571
vn 0.603857 -0.701229 -0.378991
vn 0.601196 0.721634 0.343232
vn -0.593587 -0.389997 -0.703958
vn -0.609656 0.397354 0.685879
vn 1.000000 0.000605 -0.000424
vn 1.000000 0.000125 -0.000700
vn 1.000000 0.000125 -0.000700
vn 1.000000 0.000605 -0.000424
vn 1.000000 0.000733 0.000143
vn 1.000000 0.000467 0.000095
vn 1.000000 0.000419 0.000674
vn 1.000000 0.000258 0.000450
vn 1.000000 -0.000145 0.000784
vn 1.000000 -0.000145 0.000784
vn 1.000000 -0.000654 0.000402
vn 1.000000 -0.000654 0.000402
vn 1.000000 -0.000713 -0.000173
vn 1.000000 -0.000713 -0.000173
vn 1.000000 -0.000372 -0.000598
vn 1.000000 -0.000372 -0.000598
vn 1.000000 -0.000064 0.000000
vn 1.000000 0.000000 0.000000
vn 1.000000 0.000000 0.000000
vn 1.000000 0.000015 -0.000094
vn 1.000000 0.000123 -0.000143
vn 1.000000 0.000123 -0.000252
vn 1.000000 0.000000 -0.000232
vn 1.000000 0.000000 -0.000122
vn 1.000000 -0.000062 0.000000
vn 1.000000 -0.000062 0.000000
vn -0.000514 -0.544675 -0.838647
vn -0.000388 0.207963 -0.978137
vn -0.000388 0.207963 -0.978137
vn -0.000514 -0.544675 -0.838647
vn -0.000349 -0.978162 -0.207843
vn -0.000349 -0.978162 -0.207843
vn 0.000016 -0.838695 0.544602
vn 0.000016 -0.838695 0.544602
vn 0.000364 -0.207953 0.978139
vn 0.000364 -0.207953 0.978139
vn 0.000492 0.544663 0.838655
vn 0.000492 0.544663 0.838655
vn 0.000347 0.978154 0.207884
vn 0.000347 0.978154 0.207884
vn -0.000020 0.838683 -0.544619
vn -0.000020 0.838683 -0.544619
vn 0.863995 -0.219316 -0.453224
vn 0.000038 -0.373447 -0.927652
vn 0.000038 -0.373447 -0.927652
vn 0.863995 -0.219316 -0.453224
vn -0.863987 -0.219299 -0.453249
vn -0.863987 -0.219299 -0.453249
vn -0.863980 0.088998 0.495599
vn -0.863980 0.088998 0.495599
vn 0.000028 0.243108 0.969999
vn 0.000028 0.243108 0.969999
vn 0.863996 0.088942 0.495580
vn 0.863996 0.088942 0.495580
vn 0.000000 -0.951030 0.309100
vn 0.000042 -0.951041 0.309064
vn 0.000000 -0.951056 0.309020
vn -0.000042 -0.951058 0.309012
vn 0.000021 -0.951076 0.308957
vn 0.000000 -0.951067 0.308983
vn -0.000021 -0.951061 0.309002
vn 0.000059 0.951038 -0.309074
vn 0.000000 0.951056 -0.309019
vn 0.000000 0.951044 -0.309055
vn -0.000059 0.951038 -0.309074
vn -0.000042 0.951038 -0.309074
vn 0.000000 0.951056 -0.309019
vn 0.000042 0.951038 -0.309074
vn 0.000000 -0.207933 0.978143
vn 0.000000 -0.838663 0.544651
vn 0.000000 -0.838663 0.544651
vn 0.000000 -0.207933 0.978143
vn 0.000000 -0.978155 -0.207879
vn 0.000000 -0.978155 -0.207879
vn 0.000001 -0.544663 -0.838655
vn 0.000001 -0.544663 -0.838655
vn 0.000001 0.207925 -0.978145
vn 0.000001 0.207925 -0.978145
vn 0.000000 0.838678 -0.544627
vn 0.000000 0.838678 -0.544627
vn -0.000000 0.978153 0.207884
vn -0.000000 0.978153 0.207884
vn 0.000000 0.544636 0.838672
vn 0.000000 0.544636 0.838672
vn -1.000000 0.000114 0.000000
vn -1.000000 0.000114 0.000000
vn -1.000000 0.000029 0.000000
vn -1.000000 0.000000 0.000000
vn -1.000000 0.000000 0.000000
vn -1.000000 0.000000 0.000000
vn -1.000000 0.000000 0.000000
vn -1.000000 0.000000 0.000000
vn -1.000000 0.000000 0.000000
vn 1.000000 0.000228 0.000000
vn 1.000000 0.000000 0.000000
vn 1.000000 0.000000 0.000000
vn 1.000000 0.000114 0.000000
vn 1.000000 -0.000114 0.000000
vn 1.000000 -0.000228 0.000000
vn 1.000000 0.000000 0.000000
vn 1.000000 -0.000114 0.000000
vn 1.000000 0.000114 0.000000
vn -1.000000 0.000511 -0.000323
vn -1.000000 0.000511 -0.000323
vn -1.000000 0.000097 -0.000638
vn -1.000000 0.000097 -0.000638
vn -1.000000 0.000681 0.000184
vn -1.000000 0.000454 0.000122
vn -1.000000 0.000430 0.000607
vn -1.000000 0.000287 0.000405
vn -1.000000 -0.000135 0.000706
vn -1.000000 -0.000135 0.000706
vn -1.000000 -0.000612 0.000391
vn -1.000000 -0.000612 0.000391
vn -1.000000 -0.000713 -0.000148
vn -1.000000 -0.000713 -0.000148
vn -1.000000 -0.000400 -0.000572
vn -1.000000 -0.000400 -0.000572
vn -1.000000 0.000000 0.000000
vn -1.000000 -0.000092 0.000000
vn -1.000000 0.000031 0.000000
vn -1.000000 0.000123 0.000000
vn -1.000000 0.000246 0.000000
vn -1.000000 -0.000031 0.000000
vn -1.000000 -0.000154 0.000000
vn -1.000000 0.000000 0.000000
vn -1.000000 0.000123 0.000000
vn -1.000000 0.000031 0.000000
vn 0.000514 -0.544631 -0.838676
vn 0.000514 -0.544631 -0.838676
vn 0.000388 0.207970 -0.978135
vn 0.000388 0.207970 -0.978135
vn 0.000349 -0.978152 -0.207890
vn 0.000349 -0.978152 -0.207890
vn -0.000016 -0.838686 0.544615
vn -0.000016 -0.838686 0.544615
vn -0.000364 -0.207945 0.978140
vn -0.000364 -0.207945 0.978140
vn -0.000492 0.544653 0.838661
vn -0.000492 0.544653 0.838661
vn -0.000347 0.978153 0.207887
vn -0.000347 0.978153 0.207887
vn 0.000020 0.838684 -0.544617
vn 0.000020 0.838684 -0.544617
s 1
g polySurface8073
f 1/1/1 2/2/2 3/3/3 4/4/4
f 2/2/2 5/5/5 6/6/6 3/3/3
f 7/7/7 9/9/8 10/10/9 8/8/10
f 9/9/8 11/11/11 12/12/12 10/10/9
f 11/11/11 13/13/13 14/14/14 12/12/12
f 13/13/13 15/15/15 16/16/16 14/14/14
f 15/15/15 1/17/1 4/18/4 16/16/16
s off
f 7/7/17 8/8/18 18/20/19 17/19/20
s 1
f 18/20/21 6/6/6 5/5/5 17/19/22
s 3
f 29/21/23 57/22/24 56/23/25 26/24/26
f 23/25/27 36/26/28 46/27/29 40/28/30
f 24/29/31 37/30/32 38/31/33 25/32/34
f 25/33/34 38/34/33 29/21/23 26/24/26
f 31/35/35 28/36/36 42/37/37 44/38/38
f 32/39/39 26/24/26 56/23/25 61/40/40
f 34/41/41 21/42/42 55/43/43 58/44/44
f 35/45/45 23/25/27 40/28/30 45/46/46
f 33/47/47 20/48/48 21/42/42 34/41/41
f 24/29/31 25/32/34 33/47/47 34/41/41
f 19/49/49 20/50/50 33/51/47 32/39/39
f 25/33/34 26/24/26 32/39/39 33/51/47
f 28/36/36 30/52/51 43/53/52 42/37/37
f 37/30/32 62/54/53 55/43/43 21/42/42
f 38/31/33 37/30/32 21/42/42 20/48/48
f 19/49/49 29/21/23 38/34/33 20/50/50
f 41/55/54 43/53/52 30/52/51 27/56/55
f 40/28/30 46/27/29 54/57/56 51/58/57
f 44/38/38 42/37/37 52/59/58 53/60/59
f 44/38/38 41/55/54 27/56/55 31/35/35
f 45/46/46 39/61/60 22/62/61 35/45/45
f 45/46/46 40/28/30 51/58/57 50/63/62
f 42/37/37 43/53/52 49/64/63 52/59/58
f 39/61/60 46/27/29 36/26/28 22/62/61
f 48/65/64 49/64/63 43/53/52 41/55/54
f 53/60/59 48/65/64 41/55/54 44/38/38
f 50/63/62 47/66/65 39/61/60 45/46/46
f 47/66/65 54/57/56 46/27/29 39/61/60
f 51/58/57 54/57/56 62/54/53 59/67/66
f 53/60/59 52/59/58 60/68/67 61/40/40
f 50/63/62 51/58/57 59/67/66 58/44/44
f 52/59/58 49/64/63 57/22/24 60/68/67
f 56/23/25 57/22/24 49/64/63 48/65/64
f 61/40/40 56/23/25 48/65/64 53/60/59
f 58/44/44 55/43/43 47/66/65 50/63/62
f 55/43/43 62/54/53 54/57/56 47/66/65
f 59/67/66 62/54/53 37/30/32 24/29/31
f 61/40/40 60/68/67 19/49/49 32/39/39
f 58/44/44 59/67/66 24/29/31 34/41/41
f 60/68/67 57/22/24 29/21/23 19/49/49
s 4
f 63/69/68 64/70/69 4/71/70 3/72/71
f 65/73/72 63/69/68 3/72/71 6/74/73
f 66/75/74 65/73/72 6/74/73 8/76/75
f 67/77/76 66/75/74 8/76/75 10/78/77
f 68/79/78 67/77/76 10/78/77 12/80/79
f 69/81/80 68/79/78 12/80/79 14/82/81
f 70/83/82 69/81/80 14/82/81 16/84/83
f 64/70/69 70/83/82 16/84/83 4/71/70
f 8/76/75 6/74/73 18/85/84
s 5
f 71/86/85 72/87/86 79/88/87
f 72/87/86 73/89/88 79/88/87
f 73/89/88 74/90/89 79/88/87
f 74/90/89 75/91/90 79/88/87
f 75/91/90 76/92/91 79/88/87
f 76/92/91 77/93/92 79/88/87
f 77/93/92 78/94/93 79/88/87
f 78/94/93 71/86/85 79/88/87
s 6
f 66/95/94 67/96/95 75/97/96 74/98/97
f 65/99/98 66/95/94 74/98/97 73/100/99
f 63/101/100 65/99/98 73/100/99 72/102/101
f 64/103/102 63/101/100 72/102/101 71/104/103
f 70/105/104 64/106/102 71/107/103 78/108/105
f 69/109/106 70/105/104 78/108/105 77/110/107
f 68/111/108 69/109/106 77/110/107 76/112/109
f 67/96/95 68/111/108 76/112/109 75/97/96
s 7
f 80/113/110 81/114/111 87/115/112 86/116/113
f 81/114/111 82/117/114 88/118/115 87/115/112
f 82/117/114 83/119/116 89/120/117 88/118/115
f 83/119/116 84/121/118 90/122/119 89/120/117
f 84/121/118 85/123/120 91/124/121 90/122/119
f 85/123/120 80/125/110 86/126/113 91/124/121
s 8
f 81/127/122 80/128/123 92/129/124
f 82/130/125 81/127/122 92/129/124
f 83/131/126 82/130/125 92/129/124
f 84/132/127 83/131/126 92/129/124
f 85/133/128 84/132/127 92/129/124
f 80/128/123 85/133/128 92/129/124
s 9
f 86/134/129 87/135/130 93/136/131
f 87/135/130 88/137/132 93/136/131
f 88/137/132 89/138/133 93/136/131
f 89/138/133 90/139/134 93/136/131
f 90/139/134 91/140/135 93/136/131
f 91/140/135 86/134/129 93/136/131
s 10
f 94/141/136 95/142/137 103/143/138 102/144/139
f 95/142/137 96/145/140 104/146/141 103/143/138
f 96/145/140 97/147/142 105/148/143 104/146/141
f 97/147/142 98/149/144 106/150/145 105/148/143
f 98/149/144 99/151/146 107/152/147 106/150/145
f 99/151/146 100/153/148 108/154/149 107/152/147
f 100/153/148 101/155/150 109/156/151 108/154/149
f 101/155/150 94/157/136 102/158/139 109/156/151
s 11
f 95/159/152 94/160/153 110/161/154
f 96/162/155 95/159/152 110/161/154
f 97/163/156 96/162/155 110/161/154
f 98/164/157 97/163/156 110/161/154
f 99/165/158 98/164/157 110/161/154
f 100/166/159 99/165/158 110/161/154
f 101/167/160 100/166/159 110/161/154
f 94/160/153 101/167/160 110/161/154
s 12
f 102/168/161 103/169/162 111/170/163
f 103/169/162 104/171/164 111/170/163
f 104/171/164 105/172/165 111/170/163
f 105/172/165 106/173/166 111/170/163
f 106/173/166 107/174/167 111/170/163
f 107/174/167 108/175/168 111/170/163
f 108/175/168 109/176/169 111/170/163
f 109/176/169 102/168/161 111/170/163
s 13
f 112/177/170 2/180/171 1/179/172 113/178/173
f 114/181/174 5/182/175 2/180/171 112/177/170
f 115/183/176 7/184/177 5/182/175 114/181/174
f 116/185/178 9/186/179 7/184/177 115/183/176
f 117/187/180 11/188/181 9/186/179 116/185/178
f 118/189/182 13/190/183 11/188/181 117/187/180
f 119/191/184 15/192/185 13/190/183 118/189/182
f 113/178/173 1/179/172 15/192/185 119/191/184
f 7/184/177 17/193/186 5/182/175
s 14
f 120/194/187 128/196/188 121/195/189
f 121/195/189 128/196/188 122/197/190
f 122/197/190 128/196/188 123/198/191
f 123/198/191 128/196/188 124/199/192
f 124/199/192 128/196/188 125/200/193
f 125/200/193 128/196/188 126/201/194
f 126/201/194 128/196/188 127/202/195
f 127/202/195 128/196/188 120/194/187
s 15
f 115/203/196 123/206/197 124/205/198 116/204/199
f 114/207/200 122/208/201 123/206/197 115/203/196
f 112/209/202 121/210/203 122/208/201 114/207/200
f 113/211/204 120/212/205 121/210/203 112/209/202
f 119/213/206 127/216/207 120/215/205 113/214/204
f 118/217/208 126/218/209 127/216/207 119/213/206
f 117/219/210 125/220/211 126/218/209 118/217/208
f 116/204/199 124/205/198 125/220/211 117/219/210
