# This file uses centimeters as units for non-parametric coordinates.

g default
v -17.380777 0.775352 -0.005906
v -17.380777 0.781894 -0.008616
v -17.380777 0.788436 -0.005906
v -17.380777 0.791146 0.000636
v -17.380777 0.788436 0.007178
v -17.380777 0.781894 0.009888
v -17.380777 0.775352 0.007178
v -17.380777 0.772642 0.000636
v -17.024046 0.775352 -0.005906
v -17.024046 0.781894 -0.008616
v -17.024046 0.788436 -0.005906
v -17.024046 0.791146 0.000636
v -17.024046 0.788436 0.007178
v -17.024046 0.781894 0.009888
v -17.024046 0.775352 0.007178
v -17.024046 0.772642 0.000636
v -17.380777 0.781894 0.000636
v -17.024046 0.781894 0.000636
v -17.197626 2.016964 -0.032486
v -17.202469 2.019760 -0.032486
v -17.207312 2.016964 -0.032486
v -17.207312 2.011372 -0.032486
v -17.202469 2.008574 -0.032486
v -17.197626 2.011372 -0.032486
v -17.193760 2.019196 0.032486
v -17.202469 2.024224 0.032486
v -17.211178 2.019196 0.032486
v -17.211178 2.009139 0.032486
v -17.202469 2.004111 0.032486
v -17.193760 2.009139 0.032486
v -17.202469 2.014168 -0.032486
v -17.202469 2.014168 0.032486
v -17.380777 1.938723 -0.005906
v -17.380777 1.945265 -0.008616
v -17.380777 1.951807 -0.005906
v -17.380777 1.954517 0.000636
v -17.380777 1.951807 0.007178
v -17.380777 1.945265 0.009888
v -17.380777 1.938723 0.007178
v -17.380777 1.936013 0.000636
v -17.024046 1.938723 -0.005906
v -17.024046 1.945265 -0.008616
v -17.024046 1.951807 -0.005906
v -17.024046 1.954517 0.000636
v -17.024046 1.951807 0.007178
v -17.024046 1.945265 0.009888
v -17.024046 1.938724 0.007178
v -17.024046 1.936013 0.000636
v -17.380777 1.945265 0.000636
v -17.024046 1.945265 0.000636
v -17.370209 0.783570 0.000636
v -17.034615 0.783570 0.000636
v -17.370209 1.941193 0.000636
v -17.034615 1.941193 0.000636
v -17.204830 2.028937 0.000686
v -17.202410 2.029897 0.000686
v -17.199987 2.028962 0.000686
v -17.105909 1.948241 0.000686
v -17.109409 1.943098 0.000686
v -17.200216 2.021136 0.000686
v -17.202410 2.022000 0.000686
v -17.204603 2.021139 0.000686
v -17.295414 1.943099 0.000686
v -17.298916 1.946947 0.000685
v -17.204718 2.025106 0.004093
v -17.297348 1.945423 0.004035
v -17.297348 1.945423 -0.002663
v -17.204718 2.025106 -0.002720
v -17.202410 2.026032 -0.002723
v -17.200100 2.025107 -0.002721
v -17.107508 1.945963 -0.002699
v -17.107508 1.945963 0.004071
v -17.200100 2.025107 0.004093
v -17.202410 2.026032 0.004096
v -17.370209 0.783570 0.000636
v -17.034615 0.783570 0.000636
v -17.370209 1.941193 0.000636
v -17.034615 1.941193 0.000636
vt 0.005652 0.992959
vt 0.005652 0.978746
vt 0.428186 0.978746
vt 0.428186 0.992959
vt 0.005652 0.964533
vt 0.428186 0.964533
vt 0.005652 0.950320
vt 0.428186 0.950320
vt 0.005652 0.936106
vt 0.428186 0.936106
vt 0.005652 0.921893
vt 0.428186 0.921893
vt 0.005652 0.907679
vt 0.428186 0.907679
vt 0.005652 0.893466
vt 0.428186 0.893466
vt 0.005652 0.879253
vt 0.428186 0.879253
vt 0.007954 0.827110
vt 0.018995 0.800455
vt 0.044142 0.827110
vt 0.018995 0.853765
vt 0.045650 0.864806
vt 0.072305 0.853765
vt 0.083346 0.827110
vt 0.072305 0.800455
vt 0.045650 0.789414
vt 0.167095 0.800455
vt 0.178136 0.827110
vt 0.138932 0.827110
vt 0.167095 0.853765
vt 0.140440 0.864806
vt 0.113785 0.853765
vt 0.102744 0.827110
vt 0.113785 0.800455
vt 0.140440 0.789414
vt 0.636914 0.888768
vt 0.636914 0.904400
vt 0.495867 0.904400
vt 0.495867 0.888768
vt 0.636914 0.920033
vt 0.495867 0.920033
vt 0.636914 0.935666
vt 0.495867 0.935666
vt 0.636914 0.951299
vt 0.495867 0.951299
vt 0.636914 0.966931
vt 0.495867 0.966931
vt 0.636914 0.982564
vt 0.495867 0.982564
vt 0.345466 0.809158
vt 0.345466 0.843690
vt 0.316942 0.826424
vt 0.315560 0.791893
vt 0.285655 0.809158
vt 0.285655 0.843690
vt 0.315560 0.860956
vt 0.204262 0.843690
vt 0.204262 0.809158
vt 0.235549 0.826424
vt 0.234168 0.791893
vt 0.264073 0.809158
vt 0.264073 0.843690
vt 0.234168 0.860956
vt 0.005652 0.992959
vt 0.005652 0.978746
vt 0.428186 0.978746
vt 0.428186 0.992959
vt 0.005652 0.964533
vt 0.428186 0.964533
vt 0.005652 0.950320
vt 0.428186 0.950320
vt 0.005652 0.936106
vt 0.428186 0.936106
vt 0.005652 0.921893
vt 0.428186 0.921893
vt 0.005652 0.907679
vt 0.428186 0.907679
vt 0.005652 0.893466
vt 0.428186 0.893466
vt 0.005652 0.879253
vt 0.428186 0.879253
vt 0.007954 0.827110
vt 0.018995 0.800455
vt 0.044142 0.827110
vt 0.018995 0.853765
vt 0.045650 0.864806
vt 0.072305 0.853765
vt 0.083346 0.827110
vt 0.072305 0.800455
vt 0.045650 0.789414
vt 0.167095 0.800455
vt 0.178136 0.827110
vt 0.138932 0.827110
vt 0.167095 0.853765
vt 0.140440 0.864806
vt 0.113785 0.853765
vt 0.102744 0.827110
vt 0.113785 0.800455
vt 0.140440 0.789414
vt 0.762305 0.000000
vt 0.999519 0.000000
vt 0.999519 0.763884
vt 0.762305 0.763884
vt 0.489680 0.808534
vt 0.375259 0.808534
vt 0.375259 0.800551
vt 0.489680 0.800551
vt 0.650404 0.800551
vt 0.650404 0.808534
vt 0.522433 0.808534
vt 0.522433 0.800551
vt 0.506185 0.808534
vt 0.506185 0.800551
vt 0.375259 0.823526
vt 0.375259 0.816381
vt 0.489680 0.816381
vt 0.489680 0.823526
vt 0.489680 0.831561
vt 0.375260 0.831561
vt 0.522433 0.823526
vt 0.522433 0.816381
vt 0.650404 0.816381
vt 0.650404 0.823526
vt 0.650404 0.831561
vt 0.522433 0.831561
vt 0.506184 0.823526
vt 0.506184 0.816381
vt 0.506185 0.831561
vt 0.762305 0.000000
vt 0.762305 0.763884
vt 0.999519 0.763884
vt 0.999519 0.000000
vn 0.000000 -0.707124 -0.707090
vn 0.000000 -0.000005 -1.000000
vn 0.000000 -0.000005 -1.000000
vn 0.000000 -0.707124 -0.707090
vn 0.000000 0.707117 -0.707097
vn 0.000000 0.707117 -0.707097
vn 0.000000 1.000000 -0.000026
vn 0.000000 1.000000 -0.000026
vn 0.000000 0.707138 0.707075
vn 0.000000 0.707138 0.707075
vn 0.000000 0.000000 1.000000
vn 0.000000 0.000000 1.000000
vn 0.000000 -0.707135 0.707079
vn 0.000000 -0.707135 0.707079
vn 0.000000 -1.000000 -0.000015
vn 0.000000 -1.000000 -0.000015
vn -1.000000 0.000000 0.000000
vn -1.000000 0.000000 0.000000
vn -1.000000 0.000031 0.000000
vn -1.000000 0.000000 0.000000
vn -1.000000 0.000000 0.000000
vn -1.000000 0.000000 0.000000
vn -1.000000 0.000123 0.000000
vn -1.000000 0.000123 0.000000
vn -1.000000 0.000000 0.000000
vn 1.000000 -0.000123 0.000000
vn 1.000000 -0.000123 0.000000
vn 1.000000 -0.000031 0.000000
vn 1.000000 0.000000 0.000000
vn 1.000000 0.000000 0.000000
vn 1.000000 0.000000 0.000000
vn 1.000000 0.000000 0.000000
vn 1.000000 0.000000 0.000000
vn 1.000000 0.000000 0.000000
vn 0.864001 0.498802 -0.068546
vn 0.000000 0.997648 -0.068549
vn 0.000000 0.997648 -0.068549
vn 0.864001 0.498802 -0.068546
vn -0.864001 0.498802 -0.068547
vn -0.864001 0.498802 -0.068547
vn -0.864001 -0.498802 -0.068545
vn -0.864001 -0.498802 -0.068545
vn 0.000000 -0.997648 -0.068545
vn 0.000000 -0.997648 -0.068545
vn 0.864001 -0.498802 -0.068545
vn 0.864001 -0.498802 -0.068545
vn 0.000000 0.000000 -1.000000
vn 0.000000 0.000000 -1.000000
vn 0.000000 0.000000 -1.000000
vn 0.000000 0.000000 -1.000000
vn 0.000000 0.000000 -1.000000
vn 0.000000 0.000000 -1.000000
vn 0.000000 0.000000 -1.000000
vn 0.000000 0.000000 1.000000
vn 0.000000 0.000000 1.000000
vn 0.000000 0.000000 1.000000
vn 0.000000 0.000000 1.000000
vn 0.000000 0.000000 1.000000
vn -0.000000 0.000000 1.000000
vn -0.000000 0.000000 1.000000
vn 0.000000 -0.707136 -0.707077
vn 0.000000 0.000000 -1.000000
vn 0.000000 0.000000 -1.000000
vn 0.000000 -0.707136 -0.707077
vn 0.000000 0.707090 -0.707124
vn 0.000000 0.707090 -0.707124
vn 0.000000 1.000000 -0.000026
vn 0.000000 1.000000 -0.000026
vn 0.000000 0.707108 0.707105
vn 0.000000 0.707108 0.707105
vn 0.000000 -0.000014 1.000000
vn 0.000000 -0.000014 1.000000
vn 0.000001 -0.707141 0.707072
vn 0.000001 -0.707141 0.707072
vn 0.000001 -1.000000 0.000007
vn 0.000001 -1.000000 0.000007
vn -1.000000 0.000000 0.000000
vn -1.000000 0.000000 0.000000
vn -1.000000 0.000031 0.000000
vn -1.000000 0.000000 0.000000
vn -1.000000 0.000000 0.000000
vn -1.000000 0.000000 0.000000
vn -1.000000 0.000123 0.000000
vn -1.000000 0.000123 0.000000
vn -1.000000 0.000000 0.000000
vn 1.000000 -0.000123 0.000000
vn 1.000000 -0.000123 0.000000
vn 1.000000 -0.000031 0.000000
vn 1.000000 0.000000 0.000000
vn 1.000000 0.000000 0.000000
vn 1.000000 0.000000 0.000000
vn 1.000000 0.000000 0.000000
vn 1.000000 0.000000 0.000000
vn 1.000000 0.000000 0.000000
vn 0.000000 0.000000 1.000000
vn 0.000000 0.000000 1.000000
vn 0.000000 0.000000 1.000000
vn 0.000000 0.000000 1.000000
vn -0.016182 0.018690 0.999694
vn -0.029167 0.030234 0.999117
vn 0.651790 -0.758399 0.000032
vn 0.524145 -0.851629 0.000017
vn -0.650695 -0.759339 0.000070
vn 0.019248 0.022649 0.999558
vn 0.010309 0.015315 0.999830
vn -0.521706 -0.853125 0.000101
vn -0.001353 0.008614 0.999962
vn -0.000102 -1.000000 0.000071
vn -0.029119 0.030188 -0.999120
vn -0.654722 0.755870 -0.000035
vn -0.530486 0.847694 -0.000018
vn -0.016160 0.018670 -0.999695
vn 0.010225 0.015264 -0.999831
vn 0.523017 0.852322 0.000029
vn 0.650531 0.759480 0.000072
vn 0.019247 0.022652 -0.999558
vn -0.001434 0.008566 -0.999962
vn -0.003098 0.999995 -0.000009
vn 0.000000 0.000000 -1.000000
vn 0.000000 0.000000 -1.000000
vn 0.000000 0.000000 -1.000000
vn 0.000000 0.000000 -1.000000
s 1
g polySurface8191
f 1/1/1 2/2/2 10/3/3 9/4/4
f 2/2/2 3/5/5 11/6/6 10/3/3
f 3/5/5 4/7/7 12/8/8 11/6/6
f 4/7/7 5/9/9 13/10/10 12/8/8
f 5/9/9 6/11/11 14/12/12 13/10/10
f 6/11/11 7/13/13 15/14/14 14/12/12
f 7/13/13 8/15/15 16/16/16 15/14/14
f 8/15/15 1/17/1 9/18/4 16/16/16
s 2
f 2/19/17 1/20/18 17/21/19
f 3/22/20 2/19/17 17/21/19
f 4/23/21 3/22/20 17/21/19
f 5/24/22 4/23/21 17/21/19
f 6/25/23 5/24/22 17/21/19
f 7/26/24 6/25/23 17/21/19
f 8/27/25 7/26/24 17/21/19
f 1/20/18 8/27/25 17/21/19
s 3
f 9/28/26 10/29/27 18/30/28
f 10/29/27 11/31/29 18/30/28
f 11/31/29 12/32/30 18/30/28
f 12/32/30 13/33/31 18/30/28
f 13/33/31 14/34/32 18/30/28
f 14/34/32 15/35/33 18/30/28
f 15/35/33 16/36/34 18/30/28
f 16/36/34 9/28/26 18/30/28
s 4
f 19/37/35 20/38/36 26/39/37 25/40/38
f 20/38/36 21/41/39 27/42/40 26/39/37
f 21/41/39 22/43/41 28/44/42 27/42/40
f 22/43/41 23/45/43 29/46/44 28/44/42
f 23/45/43 24/47/45 30/48/46 29/46/44
f 24/47/45 19/49/35 25/50/38 30/48/46
s 5
f 20/51/47 19/52/48 31/53/49
f 21/54/50 20/51/47 31/53/49
f 22/55/51 21/54/50 31/53/49
f 23/56/52 22/55/51 31/53/49
f 24/57/53 23/56/52 31/53/49
f 19/52/48 24/57/53 31/53/49
s 6
f 25/58/54 26/59/55 32/60/56
f 26/59/55 27/61/57 32/60/56
f 27/61/57 28/62/58 32/60/56
f 28/62/58 29/63/59 32/60/56
f 29/63/59 30/64/60 32/60/56
f 30/64/60 25/58/54 32/60/56
s 7
f 33/65/61 34/66/62 42/67/63 41/68/64
f 34/66/62 35/69/65 43/70/66 42/67/63
f 35/69/65 36/71/67 44/72/68 43/70/66
f 36/71/67 37/73/69 45/74/70 44/72/68
f 37/73/69 38/75/71 46/76/72 45/74/70
f 38/75/71 39/77/73 47/78/74 46/76/72
f 39/77/73 40/79/75 48/80/76 47/78/74
f 40/79/75 33/81/61 41/82/64 48/80/76
s 8
f 34/83/77 33/84/78 49/85/79
f 35/86/80 34/83/77 49/85/79
f 36/87/81 35/86/80 49/85/79
f 37/88/82 36/87/81 49/85/79
f 38/89/83 37/88/82 49/85/79
f 39/90/84 38/89/83 49/85/79
f 40/91/85 39/90/84 49/85/79
f 33/84/78 40/91/85 49/85/79
s 9
f 41/92/86 42/93/87 50/94/88
f 42/93/87 43/95/89 50/94/88
f 43/95/89 44/96/90 50/94/88
f 44/96/90 45/97/91 50/94/88
f 45/97/91 46/98/92 50/94/88
f 46/98/92 47/99/93 50/94/88
f 47/99/93 48/100/94 50/94/88
f 48/100/94 41/92/86 50/94/88
s off
f 51/101/95 52/102/96 54/103/97 53/104/98
s 10
f 65/105/99 66/106/100 63/107/101 62/108/102
f 59/109/103 72/110/104 73/111/105 60/112/106
f 60/112/106 73/111/105 74/113/107 61/114/108
f 61/114/108 74/113/107 65/105/99 62/108/102
f 67/115/109 64/116/110 55/117/111 68/118/112
f 68/118/112 62/119/102 63/120/101 67/115/109
f 70/121/113 57/122/114 58/123/115 71/124/116
f 71/124/116 59/125/103 60/126/106 70/121/113
f 69/127/117 56/128/118 57/122/114 70/121/113
f 60/126/106 61/129/108 69/127/117 70/121/113
f 55/117/111 56/128/118 69/127/117 68/118/112
f 61/129/108 62/119/102 68/118/112 69/127/117
f 64/116/110 66/106/100 65/105/99 55/117/111
f 73/111/105 72/110/104 58/123/115 57/122/114
f 74/113/107 73/111/105 57/122/114 56/128/118
f 55/117/111 65/105/99 74/113/107 56/128/118
s off
f 75/130/119 77/131/120 78/132/121 76/133/122
