# This file uses centimeters as units for non-parametric coordinates.

g default
v -16.598368 0.292129 0.252076
v -16.110750 0.292129 0.252076
v -16.598368 0.412839 0.252076
v -16.110750 0.412839 0.252076
v -16.598368 0.412839 -0.252076
v -16.110750 0.412839 -0.252075
v -16.598368 0.292129 -0.252076
v -16.110750 0.292129 -0.252075
v -16.615139 0.404706 0.252076
v -16.598368 0.404706 -0.267646
v -16.110750 0.404706 -0.267645
v -16.110750 0.404706 0.267646
v -16.615139 0.299979 0.252076
v -16.598368 0.299979 -0.267646
v -16.110750 0.299979 -0.267645
v -16.110750 0.299979 0.267646
v -16.598661 0.404706 0.267646
v -16.598074 0.299979 0.267646
v -16.615139 0.404706 -0.252219
v -16.615139 0.299979 -0.251933
v -16.093979 0.404706 -0.251974
v -16.093979 0.299979 -0.252177
v -16.093979 0.299979 0.252203
v -16.093979 0.404706 0.251949
v -16.583035 0.005579 -0.089011
v -16.434158 0.005579 -0.089011
v -16.583035 0.005579 -0.246128
v -16.434158 0.005579 -0.246128
v -16.592615 0.005579 -0.235051
v -16.424580 0.005579 -0.235051
v -16.592615 0.005579 -0.097763
v -16.424580 0.005579 -0.097763
v -16.583035 -0.004110 -0.097764
v -16.583035 -0.004110 -0.235051
v -16.434158 -0.004110 -0.097763
v -16.434158 -0.004110 -0.235051
v -16.276497 0.007020 0.245651
v -16.127619 0.007020 0.245651
v -16.276497 0.007020 0.088535
v -16.127619 0.007020 0.088535
v -16.286074 0.007020 0.099611
v -16.118040 0.007020 0.099611
v -16.286074 0.007020 0.236899
v -16.118040 0.007020 0.236899
v -16.276497 -0.002669 0.236899
v -16.276497 -0.002669 0.099611
v -16.127619 -0.002669 0.236899
v -16.127619 -0.002669 0.099611
v -16.276497 0.007020 -0.089934
v -16.127619 0.007020 -0.089934
v -16.276497 0.007020 -0.247050
v -16.127619 0.007020 -0.247050
v -16.286074 0.007020 -0.235974
v -16.118040 0.007020 -0.235974
v -16.286074 0.007020 -0.098686
v -16.118040 0.007020 -0.098686
v -16.276497 -0.002669 -0.098686
v -16.276497 -0.002669 -0.235974
v -16.127619 -0.002669 -0.098686
v -16.127619 -0.002669 -0.235974
v -16.582745 0.005579 0.244473
v -16.433865 0.005579 0.244473
v -16.582745 0.005579 0.087356
v -16.433865 0.005579 0.087356
v -16.592321 0.005579 0.098432
v -16.424288 0.005579 0.098432
v -16.592321 0.005579 0.235720
v -16.424288 0.005579 0.235720
v -16.582745 -0.004110 0.235720
v -16.582745 -0.004110 0.098432
v -16.433865 -0.004110 0.235720
v -16.433865 -0.004110 0.098432
v -16.583035 0.383458 -0.089011
v -16.434158 0.383458 -0.089011
v -16.583035 0.383458 -0.246128
v -16.434158 0.383458 -0.246128
v -16.592615 0.383458 -0.235051
v -16.424580 0.383458 -0.235051
v -16.592615 0.383458 -0.097763
v -16.424580 0.383458 -0.097763
v -16.276497 0.383458 0.245651
v -16.127619 0.383458 0.245651
v -16.276497 0.383458 0.088535
v -16.127619 0.383458 0.088535
v -16.286074 0.383458 0.099611
v -16.118040 0.383458 0.099611
v -16.286074 0.383458 0.236899
v -16.118040 0.383458 0.236899
v -16.276497 0.383458 -0.089934
v -16.127619 0.383458 -0.089934
v -16.276497 0.383458 -0.247050
v -16.127619 0.383458 -0.247050
v -16.286074 0.383458 -0.235974
v -16.118040 0.383458 -0.235974
v -16.286074 0.383458 -0.098686
v -16.118040 0.383458 -0.098686
v -16.582745 0.383458 0.244473
v -16.433865 0.383458 0.244473
v -16.582743 0.383458 0.087356
v -16.433867 0.383458 0.087356
v -16.592321 0.383458 0.098432
v -16.424288 0.383458 0.098432
v -16.592321 0.383458 0.235720
v -16.424288 0.383458 0.235720
vt 0.206908 0.375028
vt 0.206908 0.187687
vt 0.209882 0.187687
vt 0.209882 0.374483
vt 0.248170 0.372842
vt 0.248170 0.189873
vt 0.419295 0.189873
vt 0.419295 0.372842
vt 0.457582 0.375028
vt 0.457582 0.187687
vt 0.460557 0.187687
vt 0.460557 0.375029
vt 0.421340 0.421030
vt 0.421340 0.597492
vt 0.246126 0.597492
vt 0.246126 0.421030
vt 0.421424 0.145166
vt 0.421340 0.141676
vt 0.427827 0.145166
vt 0.246126 0.417541
vt 0.420300 0.417541
vt 0.420389 0.378623
vt 0.246126 0.378623
vt 0.424403 0.187687
vt 0.424403 0.375029
vt 0.421362 0.184092
vt 0.427827 0.184092
vt 0.243061 0.374683
vt 0.243061 0.187687
vt 0.243061 0.383814
vt 0.209882 0.383814
vt 0.426665 0.378623
vt 0.426665 0.417541
vt 0.239804 0.184092
vt 0.246112 0.184092
vt 0.239804 0.145166
vt 0.246034 0.145166
vt 0.246125 0.141676
vt 0.050847 0.158021
vt 0.095754 0.158021
vt 0.095754 0.288356
vt 0.050847 0.288356
vt 0.228050 0.781876
vt 0.228050 0.776947
vt 0.223401 0.776947
vt 0.098049 0.158021
vt 0.098049 0.288356
vt 0.048551 0.158021
vt 0.048551 0.288356
vt 0.009622 0.158021
vt 0.012528 0.158021
vt 0.012528 0.288356
vt 0.009622 0.288356
vt 0.300975 0.781876
vt 0.306858 0.776947
vt 0.300975 0.776947
vt 0.228050 0.863414
vt 0.228050 0.858485
vt 0.223401 0.863414
vt 0.300975 0.863414
vt 0.300975 0.858485
vt 0.306858 0.863414
vt 0.050847 0.515695
vt 0.095754 0.515695
vt 0.095754 0.645533
vt 0.050847 0.645533
vt 0.228050 0.661319
vt 0.228050 0.656390
vt 0.223401 0.656390
vt 0.098049 0.515695
vt 0.098049 0.645533
vt 0.048551 0.515695
vt 0.048551 0.645533
vt 0.009622 0.515695
vt 0.012528 0.515695
vt 0.012528 0.645533
vt 0.009622 0.645533
vt 0.300975 0.661319
vt 0.306858 0.656390
vt 0.300975 0.656390
vt 0.228050 0.742857
vt 0.228050 0.737928
vt 0.223402 0.742857
vt 0.300975 0.742857
vt 0.300975 0.737928
vt 0.306858 0.742857
vt 0.050847 0.336858
vt 0.095754 0.336858
vt 0.095754 0.466696
vt 0.050847 0.466696
vt 0.338435 0.781876
vt 0.338435 0.776947
vt 0.333787 0.776947
vt 0.098049 0.336858
vt 0.098049 0.466696
vt 0.048551 0.336858
vt 0.048551 0.466696
vt 0.009622 0.336858
vt 0.012528 0.336858
vt 0.012528 0.466696
vt 0.009622 0.466696
vt 0.411360 0.781876
vt 0.417243 0.776947
vt 0.411360 0.776947
vt 0.338435 0.863414
vt 0.338435 0.858485
vt 0.333787 0.863414
vt 0.411360 0.863414
vt 0.411360 0.858485
vt 0.417244 0.863414
vt 0.050847 0.694532
vt 0.095754 0.694532
vt 0.095754 0.824866
vt 0.050847 0.824866
vt 0.338435 0.661319
vt 0.338435 0.656390
vt 0.333787 0.656390
vt 0.098049 0.694532
vt 0.098049 0.824866
vt 0.048551 0.694532
vt 0.048551 0.824866
vt 0.009622 0.694532
vt 0.012528 0.694532
vt 0.012528 0.824866
vt 0.009622 0.824866
vt 0.411360 0.661319
vt 0.417244 0.656390
vt 0.411360 0.656390
vt 0.338435 0.742857
vt 0.338435 0.737928
vt 0.333787 0.742857
vt 0.411360 0.742857
vt 0.411360 0.737928
vt 0.417243 0.742857
vt 0.181885 0.288356
vt 0.136979 0.288356
vt 0.136979 0.158021
vt 0.181885 0.158021
vt 0.134073 0.288356
vt 0.134073 0.158021
vt 0.181885 0.645533
vt 0.136979 0.645533
vt 0.136979 0.515695
vt 0.181885 0.515695
vt 0.134073 0.645533
vt 0.134073 0.515695
vt 0.181885 0.466696
vt 0.136979 0.466696
vt 0.136979 0.336858
vt 0.181885 0.336858
vt 0.134073 0.466696
vt 0.134073 0.336858
vt 0.181885 0.824866
vt 0.136979 0.824866
vt 0.136979 0.694532
vt 0.181885 0.694532
vt 0.134073 0.824866
vt 0.134073 0.694532
vn -0.212171 -0.950085 0.228740
vn 0.211657 -0.950575 0.227175
vn 0.323061 -0.521672 0.789614
vn -0.323095 -0.520730 0.790221
vn -0.218965 0.947741 0.232039
vn 0.219444 0.947246 0.233601
vn 0.219307 0.947269 -0.233638
vn -0.217870 0.947547 -0.233854
vn -0.324702 -0.521463 -0.789079
vn 0.323216 -0.521642 -0.789571
vn 0.211809 -0.950544 -0.227165
vn -0.213212 -0.950279 -0.226957
vn 0.767739 -0.533789 -0.354467
vn -0.767488 -0.533173 0.355934
vn -0.768500 -0.533155 -0.353771
vn -0.771423 0.527180 -0.356355
vn -0.772465 0.527139 0.354151
vn 0.326025 0.514609 -0.793023
vn -0.324520 0.514803 -0.793514
vn 0.772195 0.526526 -0.355648
vn -0.326190 0.515528 0.792358
vn 0.326175 0.514608 0.792962
vn 0.772271 0.526475 0.355558
vn 0.767660 -0.533864 0.354525
vn -0.347999 -0.345166 0.871640
vn 0.348065 -0.345102 0.871640
vn 0.361766 0.000000 0.932269
vn -0.361719 0.000000 0.932287
vn 0.366775 -0.844163 0.390980
vn 0.847318 -0.361698 0.388879
vn 0.915021 0.000000 0.403407
vn -0.847266 -0.361799 0.388898
vn -0.915001 0.000000 0.403452
vn -0.397719 -0.394736 -0.828253
vn -0.868252 -0.367923 -0.332824
vn -0.937110 0.000000 -0.349034
vn -0.415833 0.000000 -0.909441
vn 0.373028 -0.865281 -0.334872
vn 0.397786 -0.394685 -0.828245
vn 0.868298 -0.367838 -0.332798
vn -0.366695 -0.844213 0.390946
vn -0.372953 -0.865321 -0.334852
vn -0.348115 -0.345071 0.871632
vn 0.348065 -0.345094 0.871642
vn 0.361765 0.000000 0.932269
vn -0.361805 -0.000000 0.932254
vn 0.366798 -0.844148 0.390990
vn 0.847328 -0.361677 0.388876
vn 0.915021 0.000000 0.403407
vn -0.847368 -0.361619 0.388844
vn -0.915038 -0.000000 0.403368
vn -0.397810 -0.394659 -0.828246
vn -0.868331 -0.367777 -0.332778
vn -0.937135 0.000000 -0.348966
vn -0.415898 0.000000 -0.909411
vn 0.373039 -0.865268 -0.334893
vn 0.397758 -0.394675 -0.828263
vn 0.868295 -0.367827 -0.332816
vn -0.366855 -0.844121 0.390996
vn -0.373091 -0.865246 -0.334893
vn -0.348118 -0.345071 0.871630
vn 0.348065 -0.345095 0.871643
vn 0.361766 0.000000 0.932269
vn -0.361812 0.000000 0.932251
vn 0.366798 -0.844148 0.390990
vn 0.847328 -0.361677 0.388876
vn 0.915021 0.000000 0.403407
vn -0.847369 -0.361619 0.388841
vn -0.915041 0.000000 0.403362
vn -0.397819 -0.394624 -0.828258
vn -0.868338 -0.367745 -0.332794
vn -0.937133 0.000000 -0.348971
vn -0.415893 0.000000 -0.909413
vn 0.373059 -0.865251 -0.334915
vn 0.397767 -0.394641 -0.828275
vn 0.868302 -0.367796 -0.332832
vn -0.366854 -0.844121 0.390996
vn -0.373111 -0.865228 -0.334915
vn -0.348146 -0.345082 0.871615
vn 0.348132 -0.345124 0.871604
vn 0.361837 0.000000 0.932241
vn -0.361837 0.000000 0.932241
vn 0.366840 -0.844148 0.390951
vn 0.847372 -0.361652 0.388804
vn 0.915052 0.000000 0.403337
vn -0.847383 -0.361609 0.388820
vn -0.915052 0.000000 0.403337
vn -0.397813 -0.394623 -0.828262
vn -0.868336 -0.367745 -0.332802
vn -0.937127 0.000000 -0.348989
vn -0.415876 0.000000 -0.909421
vn 0.373090 -0.865246 -0.334893
vn 0.397798 -0.394657 -0.828253
vn 0.868326 -0.367778 -0.332790
vn -0.366865 -0.844125 0.390978
vn -0.373113 -0.865228 -0.334913
vn 0.415878 0.000000 -0.909421
vn 0.937127 0.000000 -0.348988
vn 0.415853 0.000000 -0.909432
vn 0.937118 0.000000 -0.349013
vn 0.415849 0.000000 -0.909434
vn 0.937116 0.000000 -0.349017
vn 0.415876 0.000000 -0.909421
vn 0.937127 0.000000 -0.348989
s 1
g polySurface3251
f 1/1/1 2/2/2 16/3/3 18/4/4
f 3/5/5 4/6/6 6/7/7 5/8/8
f 14/9/9 15/10/10 8/11/11 7/12/12
f 7/13/12 8/14/11 2/15/2 1/16/1
f 22/17/13 8/18/11 15/19/10
f 7/13/12 1/16/1 13/20/14 20/21/15
f 19/22/16 9/23/17 3/5/5 5/8/8
f 5/8/8 6/7/7 11/24/18 10/25/19
f 21/26/20 11/27/18 6/7/7
f 17/28/21 12/29/22 4/6/6 3/5/5
f 20/21/15 13/20/14 9/23/17 19/22/16
f 10/25/19 11/24/18 15/10/10 14/9/9
f 22/17/13 15/19/10 11/27/18 21/26/20
f 18/4/4 16/3/3 12/29/22 17/28/21
f 9/30/17 17/28/21 3/5/5
f 13/31/14 18/4/4 17/28/21 9/30/17
f 1/1/1 18/4/4 13/31/14
f 10/32/19 19/22/16 5/8/8
f 14/33/9 20/21/15 19/22/16 10/32/19
f 7/13/12 20/21/15 14/33/9
f 12/34/22 24/35/23 4/6/6
f 16/36/3 23/37/24 24/35/23 12/34/22
f 2/38/2 23/37/24 16/36/3
f 2/38/2 8/18/11 22/17/13 23/37/24
f 24/35/23 23/37/24 22/17/13 21/26/20
f 4/6/6 24/35/23 21/26/20 6/7/7
s 2
f 25/39/25 26/40/26 74/41/27 73/42/28
f 35/43/29 32/44/30 26/45/26
f 26/40/26 32/46/30 80/47/31 74/41/27
f 31/48/32 25/39/25 73/42/28 79/49/33
f 27/50/34 29/51/35 77/52/36 75/53/37
f 36/54/38 28/55/39 30/56/40
f 29/51/35 31/48/32 79/49/33 77/52/36
f 36/54/38 30/56/40 32/44/30 35/43/29
f 31/57/32 33/58/41 25/59/25
f 29/60/35 34/61/42 33/58/41 31/57/32
f 27/62/34 34/61/42 29/60/35
f 33/58/41 35/43/29 26/45/26 25/59/25
f 34/61/42 36/54/38 35/43/29 33/58/41
f 27/62/34 28/55/39 36/54/38 34/61/42
s 3
f 37/63/43 38/64/44 82/65/45 81/66/46
f 47/67/47 44/68/48 38/69/44
f 38/64/44 44/70/48 88/71/49 82/65/45
f 43/72/50 37/63/43 81/66/46 87/73/51
f 39/74/52 41/75/53 85/76/54 83/77/55
f 48/78/56 40/79/57 42/80/58
f 41/75/53 43/72/50 87/73/51 85/76/54
f 48/78/56 42/80/58 44/68/48 47/67/47
f 43/81/50 45/82/59 37/83/43
f 41/84/53 46/85/60 45/82/59 43/81/50
f 39/86/52 46/85/60 41/84/53
f 45/82/59 47/67/47 38/69/44 37/83/43
f 46/85/60 48/78/56 47/67/47 45/82/59
f 39/86/52 40/79/57 48/78/56 46/85/60
s 4
f 49/87/61 50/88/62 90/89/63 89/90/64
f 59/91/65 56/92/66 50/93/62
f 50/88/62 56/94/66 96/95/67 90/89/63
f 55/96/68 49/87/61 89/90/64 95/97/69
f 51/98/70 53/99/71 93/100/72 91/101/73
f 60/102/74 52/103/75 54/104/76
f 53/99/71 55/96/68 95/97/69 93/100/72
f 60/102/74 54/104/76 56/92/66 59/91/65
f 55/105/68 57/106/77 49/107/61
f 53/108/71 58/109/78 57/106/77 55/105/68
f 51/110/70 58/109/78 53/108/71
f 57/106/77 59/91/65 50/93/62 49/107/61
f 58/109/78 60/102/74 59/91/65 57/106/77
f 51/110/70 52/103/75 60/102/74 58/109/78
s 5
f 61/111/79 62/112/80 98/113/81 97/114/82
f 71/115/83 68/116/84 62/117/80
f 62/112/80 68/118/84 104/119/85 98/113/81
f 67/120/86 61/111/79 97/114/82 103/121/87
f 63/122/88 65/123/89 101/124/90 99/125/91
f 72/126/92 64/127/93 66/128/94
f 65/123/89 67/120/86 103/121/87 101/124/90
f 72/126/92 66/128/94 68/116/84 71/115/83
f 67/129/86 69/130/95 61/131/79
f 65/132/89 70/133/96 69/130/95 67/129/86
f 63/134/88 70/133/96 65/132/89
f 69/130/95 71/115/83 62/117/80 61/131/79
f 70/133/96 72/126/92 71/115/83 69/130/95
f 63/134/88 64/127/93 72/126/92 70/133/96
s 2
f 75/135/37 76/136/97 28/137/39 27/138/34
f 76/136/97 78/139/98 30/140/40 28/137/39
f 78/139/98 80/47/31 32/46/30 30/140/40
s 3
f 83/141/55 84/142/99 40/143/57 39/144/52
f 84/142/99 86/145/100 42/146/58 40/143/57
f 86/145/100 88/71/49 44/70/48 42/146/58
s 4
f 91/147/73 92/148/101 52/149/75 51/150/70
f 92/148/101 94/151/102 54/152/76 52/149/75
f 94/151/102 96/95/67 56/94/66 54/152/76
s 5
f 99/153/91 100/154/103 64/155/93 63/156/88
f 100/154/103 102/157/104 66/158/94 64/155/93
f 102/157/104 104/119/85 68/118/84 66/158/94
