# This file uses centimeters as units for non-parametric coordinates.

g default
v -16.975798 0.005579 0.087194
v -17.124676 0.005579 0.087194
v -16.975798 0.005579 0.244310
v -17.124676 0.005579 0.244310
v -16.966221 0.005579 0.233234
v -17.134254 0.005579 0.233234
v -16.966221 0.005579 0.095946
v -17.134254 0.005579 0.095946
v -16.975798 -0.004110 0.095947
v -16.975798 -0.004110 0.233234
v -17.124676 -0.004110 0.095946
v -17.124676 -0.004110 0.233234
v -17.988718 0.007020 -0.247467
v -18.137596 0.007020 -0.247467
v -17.988718 0.007020 -0.090350
v -18.137596 0.007020 -0.090350
v -17.979139 0.007020 -0.101427
v -18.147173 0.007020 -0.101427
v -17.979139 0.007020 -0.238715
v -18.147173 0.007020 -0.238715
v -17.988718 -0.002669 -0.238714
v -17.988718 -0.002669 -0.101427
v -18.137596 -0.002669 -0.238715
v -18.137596 -0.002669 -0.101427
v -17.988718 0.007020 0.088117
v -18.137596 0.007020 0.088117
v -17.988718 0.007020 0.245233
v -18.137596 0.007020 0.245233
v -17.979139 0.007020 0.234157
v -18.147173 0.007020 0.234157
v -17.979139 0.007020 0.096869
v -18.147173 0.007020 0.096869
v -17.988718 -0.002669 0.096869
v -17.988718 -0.002669 0.234157
v -18.137596 -0.002669 0.096869
v -18.137596 -0.002669 0.234157
v -16.976091 0.005579 -0.246288
v -17.124969 0.005579 -0.246288
v -16.976091 0.005579 -0.089172
v -17.124969 0.005579 -0.089172
v -16.966513 0.005579 -0.100248
v -17.134546 0.005579 -0.100248
v -16.966513 0.005579 -0.237536
v -17.134546 0.005579 -0.237536
v -16.976091 -0.004110 -0.237535
v -16.976091 -0.004110 -0.100248
v -17.124969 -0.004110 -0.237536
v -17.124969 -0.004110 -0.100248
v -16.975798 0.383458 0.087194
v -17.124676 0.383458 0.087194
v -16.975798 0.383458 0.244310
v -17.124676 0.383458 0.244310
v -16.966221 0.383458 0.233234
v -17.134254 0.383458 0.233234
v -16.966221 0.383458 0.095946
v -17.134254 0.383458 0.095946
v -17.988718 0.383458 -0.247467
v -18.137596 0.383458 -0.247467
v -17.988718 0.383458 -0.090350
v -18.137596 0.383458 -0.090350
v -17.979139 0.383458 -0.101427
v -18.147173 0.383458 -0.101427
v -17.979139 0.383458 -0.238715
v -18.147173 0.383458 -0.238715
v -17.988718 0.383458 0.088117
v -18.137596 0.383458 0.088117
v -17.988718 0.383458 0.245233
v -18.137596 0.383458 0.245233
v -17.979139 0.383458 0.234157
v -18.147173 0.383458 0.234157
v -17.979139 0.383458 0.096869
v -18.147173 0.383458 0.096869
v -16.976091 0.383458 -0.246288
v -17.124969 0.383458 -0.246288
v -16.976091 0.383458 -0.089172
v -17.124969 0.383458 -0.089172
v -16.966513 0.383458 -0.100248
v -17.134546 0.383458 -0.100248
v -16.966513 0.383458 -0.237536
v -17.134546 0.383458 -0.237536
v -16.960648 0.292129 -0.254834
v -18.155411 0.292129 -0.254834
v -16.960648 0.412839 -0.254834
v -18.155411 0.412839 -0.254834
v -16.960648 0.412839 0.254835
v -18.155411 0.412839 0.254834
v -16.960648 0.292129 0.254835
v -18.155411 0.292129 0.254834
v -16.943876 0.404706 -0.254834
v -16.960648 0.404706 0.270576
v -18.155411 0.404706 0.270576
v -18.155411 0.404706 -0.270576
v -16.943876 0.299979 -0.254834
v -16.960648 0.299979 0.270576
v -18.155411 0.299979 0.270576
v -18.155411 0.299979 -0.270576
v -16.960354 0.404706 -0.270576
v -16.960943 0.299979 -0.270576
v -16.943878 0.404706 0.254980
v -16.943878 0.299979 0.254690
v -18.172182 0.404706 0.254732
v -18.172182 0.299979 0.254937
v -18.172182 0.299979 -0.254963
v -18.172182 0.404706 -0.254706
vt 0.050847 0.158021
vt 0.095754 0.158021
vt 0.136979 0.158021
vt 0.181885 0.158021
vt 0.228050 0.781876
vt 0.228050 0.776947
vt 0.223401 0.776947
vt 0.098049 0.158021
vt 0.048551 0.158021
vt 0.009622 0.158021
vt 0.012528 0.158021
vt 0.300975 0.781876
vt 0.306858 0.776947
vt 0.300975 0.776947
vt 0.134073 0.158021
vt 0.228050 0.863414
vt 0.228050 0.858485
vt 0.223401 0.863414
vt 0.300975 0.863414
vt 0.300975 0.858485
vt 0.306858 0.863414
vt 0.050847 0.515695
vt 0.095754 0.515695
vt 0.136979 0.515695
vt 0.181885 0.515695
vt 0.228050 0.661319
vt 0.228050 0.656390
vt 0.223401 0.656390
vt 0.098049 0.515695
vt 0.048551 0.515695
vt 0.009622 0.515695
vt 0.012528 0.515695
vt 0.300975 0.661319
vt 0.306858 0.656390
vt 0.300975 0.656390
vt 0.134073 0.515695
vt 0.228050 0.742857
vt 0.228050 0.737928
vt 0.223402 0.742857
vt 0.300975 0.742857
vt 0.300975 0.737928
vt 0.306858 0.742857
vt 0.050847 0.336858
vt 0.095754 0.336858
vt 0.136979 0.336858
vt 0.181885 0.336858
vt 0.338435 0.781876
vt 0.338435 0.776947
vt 0.333787 0.776947
vt 0.098049 0.336858
vt 0.048551 0.336858
vt 0.009622 0.336858
vt 0.012528 0.336858
vt 0.411360 0.781876
vt 0.417243 0.776947
vt 0.411360 0.776947
vt 0.134073 0.336858
vt 0.338435 0.863414
vt 0.338435 0.858485
vt 0.333787 0.863414
vt 0.411360 0.863414
vt 0.411360 0.858485
vt 0.417244 0.863414
vt 0.050847 0.694532
vt 0.095754 0.694532
vt 0.136979 0.694532
vt 0.181885 0.694532
vt 0.338435 0.661319
vt 0.338435 0.656390
vt 0.333787 0.656390
vt 0.098049 0.694532
vt 0.048551 0.694532
vt 0.009622 0.694532
vt 0.012528 0.694532
vt 0.411360 0.661319
vt 0.417244 0.656390
vt 0.411360 0.656390
vt 0.134073 0.694532
vt 0.338435 0.742857
vt 0.338435 0.737928
vt 0.333787 0.742857
vt 0.411360 0.742857
vt 0.411360 0.737928
vt 0.417243 0.742857
vt 0.050847 0.288356
vt 0.095754 0.288356
vt 0.009622 0.288356
vt 0.181885 0.288356
vt 0.136979 0.288356
vt 0.012528 0.288356
vt 0.134073 0.288356
vt 0.048551 0.288356
vt 0.098049 0.288356
vt 0.050847 0.645533
vt 0.095754 0.645533
vt 0.009622 0.645533
vt 0.181885 0.645533
vt 0.136979 0.645533
vt 0.012528 0.645533
vt 0.134073 0.645533
vt 0.048551 0.645533
vt 0.098049 0.645533
vt 0.050847 0.466696
vt 0.095754 0.466696
vt 0.009622 0.466696
vt 0.181885 0.466696
vt 0.136979 0.466696
vt 0.012528 0.466696
vt 0.134073 0.466696
vt 0.048551 0.466696
vt 0.098049 0.466696
vt 0.050847 0.824866
vt 0.095754 0.824866
vt 0.009622 0.824866
vt 0.181885 0.824866
vt 0.136979 0.824866
vt 0.012528 0.824866
vt 0.134073 0.824866
vt 0.048551 0.824866
vt 0.098049 0.824866
vt 0.730767 0.461787
vt 0.730767 0.109787
vt 0.733796 0.109787
vt 0.733796 0.461373
vt 0.771753 0.459733
vt 0.771753 0.111840
vt 0.948130 0.111840
vt 0.948130 0.459733
vt 0.986086 0.461787
vt 0.986085 0.109787
vt 0.989116 0.109787
vt 0.989116 0.461787
vt 0.949172 0.496678
vt 0.949172 0.865224
vt 0.770711 0.865224
vt 0.770711 0.496678
vt 0.949257 0.077535
vt 0.949172 0.074888
vt 0.955779 0.077535
vt 0.770711 0.494031
vt 0.948112 0.494031
vt 0.948203 0.464513
vt 0.770711 0.464513
vt 0.952293 0.109787
vt 0.952293 0.461787
vt 0.949194 0.107060
vt 0.955779 0.107060
vt 0.767590 0.461524
vt 0.767590 0.109787
vt 0.767590 0.468450
vt 0.733796 0.468450
vt 0.954596 0.464513
vt 0.954596 0.494031
vt 0.764272 0.107060
vt 0.770697 0.107060
vt 0.764272 0.077535
vt 0.770618 0.077535
vt 0.770711 0.074888
vn 0.348092 -0.345161 -0.871605
vn -0.348079 -0.345060 -0.871650
vn -0.361766 0.000000 -0.932269
vn 0.361812 0.000000 -0.932251
vn -0.366821 -0.844129 -0.391010
vn -0.847339 -0.361634 -0.388892
vn -0.915021 0.000000 -0.403407
vn 0.847337 -0.361725 -0.388812
vn 0.915041 0.000000 -0.403362
vn 0.397810 -0.394660 0.828246
vn 0.868321 -0.367799 0.332781
vn 0.937135 0.000000 0.348966
vn 0.415898 0.000000 0.909411
vn -0.373038 -0.865269 0.334892
vn -0.397758 -0.394676 0.828263
vn -0.868295 -0.367828 0.332816
vn 0.366782 -0.844182 -0.390932
vn 0.373068 -0.865257 0.334889
vn 0.348066 -0.345101 -0.871639
vn -0.348119 -0.345078 -0.871627
vn -0.361812 0.000000 -0.932251
vn 0.361765 0.000000 -0.932269
vn -0.366853 -0.844125 -0.390989
vn -0.847369 -0.361619 -0.388841
vn -0.915041 0.000000 -0.403362
vn 0.847317 -0.361699 -0.388879
vn 0.915021 0.000000 -0.403407
vn 0.397781 -0.394683 0.828249
vn 0.868295 -0.367841 0.332802
vn 0.937126 0.000000 0.348992
vn 0.415873 0.000000 0.909423
vn -0.373100 -0.865247 0.334879
vn -0.397832 -0.394666 0.828232
vn -0.868341 -0.367768 0.332761
vn 0.366776 -0.844163 -0.390979
vn 0.373026 -0.865281 0.334875
vn 0.348066 -0.345101 -0.871639
vn -0.348119 -0.345078 -0.871628
vn -0.361812 0.000000 -0.932251
vn 0.361765 0.000000 -0.932269
vn -0.366853 -0.844125 -0.390989
vn -0.847369 -0.361619 -0.388841
vn -0.915041 0.000000 -0.403362
vn 0.847317 -0.361699 -0.388879
vn 0.915021 0.000000 -0.403407
vn 0.397769 -0.394679 0.828256
vn 0.868290 -0.367845 0.332810
vn 0.937122 0.000000 0.349003
vn 0.415863 0.000000 0.909427
vn -0.373095 -0.865247 0.334886
vn -0.397821 -0.394663 0.828239
vn -0.868336 -0.367773 0.332770
vn 0.366776 -0.844163 -0.390979
vn 0.373021 -0.865280 0.334883
vn 0.348067 -0.345101 -0.871639
vn -0.348119 -0.345078 -0.871627
vn -0.361812 0.000000 -0.932251
vn 0.361766 0.000000 -0.932269
vn -0.366831 -0.844136 -0.390986
vn -0.847358 -0.361641 -0.388844
vn -0.915041 0.000000 -0.403361
vn 0.847318 -0.361699 -0.388879
vn 0.915021 0.000000 -0.403407
vn 0.397758 -0.394675 0.828263
vn 0.868285 -0.367849 0.332819
vn 0.937118 0.000000 0.349013
vn 0.415853 0.000000 0.909432
vn -0.373069 -0.865256 0.334890
vn -0.397810 -0.394659 0.828246
vn -0.868321 -0.367798 0.332781
vn 0.366776 -0.844163 -0.390979
vn 0.373017 -0.865279 0.334890
vn -0.415854 0.000000 0.909432
vn -0.937118 0.000000 0.349012
vn -0.415918 0.000000 0.909402
vn -0.937143 0.000000 0.348946
vn -0.415908 0.000000 0.909407
vn -0.937139 0.000000 0.348956
vn -0.415898 0.000000 0.909411
vn -0.937135 0.000000 0.348966
vn 0.212257 -0.950575 -0.226613
vn -0.211771 -0.951046 -0.225086
vn -0.325047 -0.523604 -0.787517
vn 0.325053 -0.522713 -0.788106
vn 0.219045 0.948248 -0.229882
vn -0.219548 0.947745 -0.231471
vn -0.219413 0.947766 0.231511
vn 0.217966 0.948054 0.231698
vn 0.326705 -0.523399 0.786967
vn -0.325217 -0.523557 0.787478
vn -0.211936 -0.951010 0.225087
vn 0.213329 -0.950751 0.224862
vn -0.768782 -0.533924 0.351994
vn 0.768499 -0.533383 -0.353428
vn 0.769536 -0.533309 0.351277
vn 0.772451 0.527373 0.353834
vn 0.773475 0.527333 -0.351649
vn -0.328036 0.516564 0.790920
vn 0.326519 0.516799 0.791394
vn -0.773218 0.526697 0.353164
vn 0.328163 0.517522 -0.790241
vn -0.328182 0.516566 -0.790858
vn -0.773290 0.526648 -0.353078
vn -0.768693 -0.534016 -0.352049
s 1
g polySurface3250
f 1/1/1 2/2/2 50/86/3 49/85/4
f 11/5/5 8/6/6 2/7/2
f 2/2/2 8/8/6 56/93/7 50/86/3
f 7/9/8 1/1/1 49/85/4 55/92/9
f 3/10/10 5/11/11 53/90/12 51/87/13
f 12/12/14 4/13/15 6/14/16
f 5/11/11 7/9/8 55/92/9 53/90/12
f 12/12/14 6/14/16 8/6/6 11/5/5
f 7/16/8 9/17/17 1/18/1
f 5/19/11 10/20/18 9/17/17 7/16/8
f 3/21/10 10/20/18 5/19/11
f 9/17/17 11/5/5 2/7/2 1/18/1
f 10/20/18 12/12/14 11/5/5 9/17/17
f 3/21/10 4/13/15 12/12/14 10/20/18
s 2
f 13/22/19 14/23/20 58/95/21 57/94/22
f 23/26/23 20/27/24 14/28/20
f 14/23/20 20/29/24 64/102/25 58/95/21
f 19/30/26 13/22/19 57/94/22 63/101/27
f 15/31/28 17/32/29 61/99/30 59/96/31
f 24/33/32 16/34/33 18/35/34
f 17/32/29 19/30/26 63/101/27 61/99/30
f 24/33/32 18/35/34 20/27/24 23/26/23
f 19/37/26 21/38/35 13/39/19
f 17/40/29 22/41/36 21/38/35 19/37/26
f 15/42/28 22/41/36 17/40/29
f 21/38/35 23/26/23 14/28/20 13/39/19
f 22/41/36 24/33/32 23/26/23 21/38/35
f 15/42/28 16/34/33 24/33/32 22/41/36
s 3
f 25/43/37 26/44/38 66/104/39 65/103/40
f 35/47/41 32/48/42 26/49/38
f 26/44/38 32/50/42 72/111/43 66/104/39
f 31/51/44 25/43/37 65/103/40 71/110/45
f 27/52/46 29/53/47 69/108/48 67/105/49
f 36/54/50 28/55/51 30/56/52
f 29/53/47 31/51/44 71/110/45 69/108/48
f 36/54/50 30/56/52 32/48/42 35/47/41
f 31/58/44 33/59/53 25/60/37
f 29/61/47 34/62/54 33/59/53 31/58/44
f 27/63/46 34/62/54 29/61/47
f 33/59/53 35/47/41 26/49/38 25/60/37
f 34/62/54 36/54/50 35/47/41 33/59/53
f 27/63/46 28/55/51 36/54/50 34/62/54
s 4
f 37/64/55 38/65/56 74/113/57 73/112/58
f 47/68/59 44/69/60 38/70/56
f 38/65/56 44/71/60 80/120/61 74/113/57
f 43/72/62 37/64/55 73/112/58 79/119/63
f 39/73/64 41/74/65 77/117/66 75/114/67
f 48/75/68 40/76/69 42/77/70
f 41/74/65 43/72/62 79/119/63 77/117/66
f 48/75/68 42/77/70 44/69/60 47/68/59
f 43/79/62 45/80/71 37/81/55
f 41/82/65 46/83/72 45/80/71 43/79/62
f 39/84/64 46/83/72 41/82/65
f 45/80/71 47/68/59 38/70/56 37/81/55
f 46/83/72 48/75/68 47/68/59 45/80/71
f 39/84/64 40/76/69 48/75/68 46/83/72
s 1
f 51/88/13 52/89/73 4/3/15 3/4/10
f 52/89/73 54/91/74 6/15/16 4/3/15
f 54/91/74 56/93/7 8/8/6 6/15/16
s 2
f 59/97/31 60/98/75 16/24/33 15/25/28
f 60/98/75 62/100/76 18/36/34 16/24/33
f 62/100/76 64/102/25 20/29/24 18/36/34
s 3
f 67/106/49 68/107/77 28/45/51 27/46/46
f 68/107/77 70/109/78 30/57/52 28/45/51
f 70/109/78 72/111/43 32/50/42 30/57/52
s 4
f 75/115/67 76/116/79 40/66/69 39/67/64
f 76/116/79 78/118/80 42/78/70 40/66/69
f 78/118/80 80/120/61 44/71/60 42/78/70
s 5
f 81/121/81 82/122/82 96/123/83 98/124/84
f 83/125/85 84/126/86 86/127/87 85/128/88
f 94/129/89 95/130/90 88/131/91 87/132/92
f 87/133/92 88/134/91 82/135/82 81/136/81
f 102/137/93 88/138/91 95/139/90
f 87/133/92 81/136/81 93/140/94 100/141/95
f 99/142/96 89/143/97 83/125/85 85/128/88
f 85/128/88 86/127/87 91/144/98 90/145/99
f 101/146/100 91/147/98 86/127/87
f 97/148/101 92/149/102 84/126/86 83/125/85
f 100/141/95 93/140/94 89/143/97 99/142/96
f 90/145/99 91/144/98 95/130/90 94/129/89
f 102/137/93 95/139/90 91/147/98 101/146/100
f 98/124/84 96/123/83 92/149/102 97/148/101
f 89/150/97 97/148/101 83/125/85
f 93/151/94 98/124/84 97/148/101 89/150/97
f 81/121/81 98/124/84 93/151/94
f 90/152/99 99/142/96 85/128/88
f 94/153/89 100/141/95 99/142/96 90/152/99
f 87/133/92 100/141/95 94/153/89
f 92/154/102 104/155/103 84/126/86
f 96/156/83 103/157/104 104/155/103 92/154/102
f 82/158/82 103/157/104 96/156/83
f 82/158/82 88/138/91 102/137/93 103/157/104
f 104/155/103 103/157/104 102/137/93 101/146/100
f 84/126/86 104/155/103 101/146/100 86/127/87
