# This file uses centimeters as units for non-parametric coordinates.

g default
v -19.591543 0.412436 0.389876
v -18.559589 0.412436 0.389876
v -19.591543 0.533145 0.389876
v -18.559589 0.533145 0.389876
v -19.591543 0.533145 -0.389877
v -18.559589 0.533145 -0.389876
v -19.591543 0.412436 -0.389877
v -18.559589 0.412436 -0.389876
v -19.608315 0.525013 0.389876
v -19.591543 0.525013 -0.405447
v -18.559589 0.525013 -0.405446
v -18.559589 0.525013 0.405447
v -19.608315 0.420285 0.389876
v -19.591543 0.420285 -0.405447
v -18.559589 0.420285 -0.405446
v -18.559589 0.420285 0.405447
v -19.591833 0.525013 0.405447
v -19.591244 0.420285 0.405447
v -19.608311 0.525013 -0.390020
v -19.608311 0.420285 -0.389734
v -18.542818 0.525013 -0.389775
v -18.542818 0.420285 -0.389978
v -18.542818 0.420285 0.390003
v -18.542818 0.525013 0.389750
v -18.745499 0.007020 0.365913
v -18.596621 0.007020 0.365913
v -18.745499 0.504807 0.365913
v -18.596621 0.504807 0.365913
v -18.745499 0.504807 0.208797
v -18.596621 0.504807 0.208797
v -18.745499 0.007020 0.208797
v -18.596621 0.007020 0.208797
v -18.755075 0.504807 0.219873
v -18.755075 0.007020 0.219873
v -18.587042 0.007020 0.219873
v -18.587042 0.504807 0.219873
v -18.755075 0.504807 0.357162
v -18.755075 0.007020 0.357162
v -18.587042 0.007020 0.357162
v -18.587042 0.504807 0.357162
v -18.745499 -0.002669 0.357161
v -18.745499 -0.002669 0.219873
v -18.596621 -0.002669 0.357162
v -18.596621 -0.002669 0.219873
v -18.745499 0.007020 -0.209539
v -18.596621 0.007020 -0.209539
v -18.745499 0.504807 -0.209539
v -18.596621 0.504807 -0.209539
v -18.745499 0.504807 -0.366655
v -18.596621 0.504807 -0.366655
v -18.745499 0.007020 -0.366655
v -18.596621 0.007020 -0.366655
v -18.755075 0.504807 -0.355579
v -18.755075 0.007020 -0.355579
v -18.587042 0.007020 -0.355579
v -18.587042 0.504807 -0.355579
v -18.755075 0.504807 -0.218291
v -18.755075 0.007020 -0.218291
v -18.587042 0.007020 -0.218291
v -18.587042 0.504807 -0.218291
v -18.745499 -0.002669 -0.218291
v -18.745499 -0.002669 -0.355579
v -18.596621 -0.002669 -0.218291
v -18.596621 -0.002669 -0.355579
v -19.560453 0.005579 0.364735
v -19.411575 0.005579 0.364735
v -19.560453 0.503366 0.364735
v -19.411575 0.503366 0.364735
v -19.560453 0.503366 0.207619
v -19.411575 0.503366 0.207619
v -19.560453 0.005579 0.207619
v -19.411575 0.005579 0.207619
v -19.570032 0.503366 0.218695
v -19.570032 0.005579 0.218695
v -19.401997 0.005579 0.218695
v -19.401997 0.503366 0.218695
v -19.570032 0.503366 0.355983
v -19.570032 0.005579 0.355983
v -19.401997 0.005579 0.355983
v -19.401997 0.503366 0.355983
v -19.560453 -0.004110 0.355983
v -19.560453 -0.004110 0.218695
v -19.411575 -0.004110 0.355983
v -19.411575 -0.004110 0.218695
v -19.560453 0.005579 -0.208616
v -19.411575 0.005579 -0.208616
v -19.560453 0.503366 -0.208616
v -19.411575 0.503366 -0.208616
v -19.560453 0.503366 -0.365732
v -19.411575 0.503366 -0.365732
v -19.560453 0.005579 -0.365732
v -19.411575 0.005579 -0.365732
v -19.570032 0.503366 -0.354656
v -19.570032 0.005579 -0.354656
v -19.401997 0.005579 -0.354656
v -19.401997 0.503366 -0.354656
v -19.570032 0.503366 -0.217367
v -19.570032 0.005579 -0.217367
v -19.401997 0.005579 -0.217367
v -19.401997 0.503366 -0.217367
v -19.560453 -0.004110 -0.217368
v -19.560453 -0.004110 -0.354656
v -19.411575 -0.004110 -0.217367
v -19.411575 -0.004110 -0.354656
vt 0.747455 0.515186
vt 0.747455 0.824255
vt 0.744765 0.824255
vt 0.744765 0.515653
vt 0.710676 0.516989
vt 0.710676 0.822452
vt 0.488583 0.822452
vt 0.488583 0.516989
vt 0.454495 0.515186
vt 0.454495 0.824255
vt 0.451805 0.824255
vt 0.451804 0.515186
vt 0.487272 0.475832
vt 0.487272 0.166771
vt 0.711988 0.166771
vt 0.711988 0.475832
vt 0.487195 0.860631
vt 0.487272 0.863617
vt 0.481405 0.860631
vt 0.711988 0.478817
vt 0.488211 0.478817
vt 0.488131 0.512111
vt 0.711988 0.512111
vt 0.484501 0.824255
vt 0.484500 0.515186
vt 0.487252 0.827331
vt 0.481405 0.827331
vt 0.714759 0.515482
vt 0.714759 0.824255
vt 0.714759 0.507670
vt 0.744765 0.507670
vt 0.482455 0.512111
vt 0.482455 0.478817
vt 0.717705 0.827331
vt 0.712000 0.827331
vt 0.717705 0.860631
vt 0.712071 0.860631
vt 0.711988 0.863617
vt 0.050847 0.515695
vt 0.095754 0.515695
vt 0.095754 0.687387
vt 0.050847 0.687387
vt 0.181885 0.687387
vt 0.136979 0.687387
vt 0.136979 0.515695
vt 0.181885 0.515695
vt 0.228050 0.661319
vt 0.228050 0.656390
vt 0.223401 0.656390
vt 0.098049 0.515695
vt 0.098049 0.687387
vt 0.048551 0.515695
vt 0.048551 0.687387
vt 0.009622 0.515695
vt 0.012528 0.515695
vt 0.012528 0.687387
vt 0.009622 0.687387
vt 0.300975 0.661319
vt 0.306858 0.656390
vt 0.300975 0.656390
vt 0.134073 0.687387
vt 0.134073 0.515695
vt 0.228050 0.742857
vt 0.228050 0.737928
vt 0.223402 0.742857
vt 0.300975 0.742857
vt 0.300975 0.737928
vt 0.306858 0.742857
vt 0.050847 0.336858
vt 0.095754 0.336858
vt 0.095754 0.508550
vt 0.050847 0.508550
vt 0.181885 0.508550
vt 0.136979 0.508550
vt 0.136979 0.336858
vt 0.181885 0.336858
vt 0.338435 0.781876
vt 0.338435 0.776947
vt 0.333787 0.776947
vt 0.098049 0.336858
vt 0.098049 0.508550
vt 0.048551 0.336858
vt 0.048551 0.508550
vt 0.009622 0.336858
vt 0.012528 0.336858
vt 0.012528 0.508550
vt 0.009622 0.508550
vt 0.411360 0.781876
vt 0.417243 0.776947
vt 0.411360 0.776947
vt 0.134073 0.508550
vt 0.134073 0.336858
vt 0.338435 0.863414
vt 0.338435 0.858485
vt 0.333787 0.863414
vt 0.411360 0.863414
vt 0.411360 0.858485
vt 0.417244 0.863414
vt 0.050847 0.694532
vt 0.095754 0.694532
vt 0.095754 0.866224
vt 0.050847 0.866224
vt 0.181885 0.866224
vt 0.136979 0.866224
vt 0.136979 0.694532
vt 0.181885 0.694532
vt 0.338435 0.661319
vt 0.338435 0.656390
vt 0.333787 0.656390
vt 0.098049 0.694532
vt 0.098049 0.866224
vt 0.048551 0.694532
vt 0.048551 0.866224
vt 0.009622 0.694532
vt 0.012528 0.694532
vt 0.012528 0.866224
vt 0.009622 0.866224
vt 0.411360 0.661319
vt 0.417244 0.656390
vt 0.411360 0.656390
vt 0.134073 0.866224
vt 0.134073 0.694532
vt 0.338435 0.742857
vt 0.338435 0.737928
vt 0.333787 0.742857
vt 0.411360 0.742857
vt 0.411360 0.737928
vt 0.417243 0.742857
vt 0.050847 0.158021
vt 0.095754 0.158021
vt 0.095754 0.329713
vt 0.050847 0.329713
vt 0.181885 0.329713
vt 0.136979 0.329713
vt 0.136979 0.158021
vt 0.181885 0.158021
vt 0.228050 0.781876
vt 0.228050 0.776947
vt 0.223401 0.776947
vt 0.098049 0.158021
vt 0.098049 0.329713
vt 0.048551 0.158021
vt 0.048551 0.329713
vt 0.009622 0.158021
vt 0.012528 0.158021
vt 0.012528 0.329713
vt 0.009622 0.329713
vt 0.300975 0.781876
vt 0.306858 0.776947
vt 0.300975 0.776947
vt 0.134073 0.329713
vt 0.134073 0.158021
vt 0.228050 0.863414
vt 0.228050 0.858485
vt 0.223401 0.863414
vt 0.300975 0.863414
vt 0.300975 0.858485
vt 0.306858 0.863414
vn -0.212147 -0.950089 0.228746
vn 0.211685 -0.950561 0.227207
vn 0.323088 -0.521630 0.789631
vn -0.323032 -0.520733 0.790246
vn -0.218963 0.947737 0.232058
vn 0.219464 0.947233 0.233635
vn 0.219301 0.947268 -0.233645
vn -0.217892 0.947543 -0.233849
vn -0.324781 -0.521419 -0.789075
vn 0.323222 -0.521636 -0.789572
vn 0.211811 -0.950542 -0.227168
vn -0.213265 -0.950261 -0.226986
vn 0.767739 -0.533784 -0.354473
vn -0.767449 -0.533196 0.355983
vn -0.768548 -0.533090 -0.353765
vn -0.771455 0.527156 -0.356319
vn -0.772442 0.527134 0.354208
vn 0.326032 0.514597 -0.793028
vn -0.324572 0.514800 -0.793495
vn 0.772191 0.526525 -0.355659
vn -0.326146 0.515506 0.792391
vn 0.326204 0.514561 0.792981
vn 0.772280 0.526439 0.355592
vn 0.767675 -0.533822 0.354555
vn -0.348120 -0.345078 0.871627
vn 0.348065 -0.345101 0.871640
vn 0.361765 0.000000 0.932269
vn -0.361811 0.000000 0.932251
vn -0.415899 0.000000 -0.909411
vn 0.415854 0.000000 -0.909432
vn 0.397758 -0.394675 -0.828263
vn -0.397810 -0.394659 -0.828246
vn 0.366775 -0.844163 0.390980
vn 0.847318 -0.361698 0.388879
vn 0.915021 0.000000 0.403407
vn -0.847358 -0.361641 0.388844
vn -0.915041 0.000000 0.403362
vn -0.868321 -0.367799 -0.332781
vn -0.937135 0.000000 -0.348966
vn 0.373017 -0.865279 -0.334890
vn 0.868285 -0.367849 -0.332818
vn 0.937118 0.000000 -0.349012
vn -0.366832 -0.844136 0.390986
vn -0.373069 -0.865256 -0.334890
vn -0.348119 -0.345071 0.871630
vn 0.348065 -0.345094 0.871642
vn 0.361766 0.000000 0.932269
vn -0.361812 0.000000 0.932251
vn -0.415898 0.000000 -0.909411
vn 0.415853 0.000000 -0.909432
vn 0.397758 -0.394675 -0.828263
vn -0.397810 -0.394659 -0.828246
vn 0.366777 -0.844159 0.390986
vn 0.847318 -0.361698 0.388879
vn 0.915021 0.000000 0.403407
vn -0.847358 -0.361641 0.388844
vn -0.915041 0.000000 0.403361
vn -0.868321 -0.367798 -0.332781
vn -0.937135 0.000000 -0.348966
vn 0.373017 -0.865279 -0.334890
vn 0.868285 -0.367849 -0.332819
vn 0.937118 0.000000 -0.349012
vn -0.366833 -0.844132 0.390992
vn -0.373069 -0.865256 -0.334890
vn -0.348065 -0.345094 0.871642
vn 0.348065 -0.345094 0.871642
vn 0.361766 0.000000 0.932269
vn -0.361766 0.000000 0.932269
vn -0.415853 0.000000 -0.909432
vn 0.415853 0.000000 -0.909432
vn 0.397758 -0.394676 -0.828263
vn -0.397758 -0.394676 -0.828263
vn 0.366777 -0.844159 0.390986
vn 0.847318 -0.361698 0.388879
vn 0.915021 0.000000 0.403406
vn -0.847329 -0.361677 0.388876
vn -0.915021 0.000000 0.403406
vn -0.868295 -0.367828 -0.332816
vn -0.937118 0.000000 -0.349013
vn 0.373017 -0.865279 -0.334889
vn 0.868285 -0.367849 -0.332819
vn 0.937118 0.000000 -0.349013
vn -0.366798 -0.844148 0.390990
vn -0.373038 -0.865269 -0.334892
vn -0.348067 -0.345101 0.871639
vn 0.348065 -0.345101 0.871640
vn 0.361766 0.000000 0.932269
vn -0.361766 0.000000 0.932269
vn -0.415873 0.000000 -0.909423
vn 0.415873 0.000000 -0.909423
vn 0.397766 -0.394717 -0.828240
vn -0.397780 -0.394683 -0.828249
vn 0.366775 -0.844163 0.390980
vn 0.847318 -0.361698 0.388879
vn 0.915021 0.000000 0.403407
vn -0.847328 -0.361677 0.388876
vn -0.915021 0.000000 0.403407
vn -0.868305 -0.367819 -0.332799
vn -0.937126 0.000000 -0.348992
vn 0.373003 -0.865298 -0.334855
vn 0.868285 -0.367874 -0.332790
vn 0.937126 0.000000 -0.348992
vn -0.366797 -0.844152 0.390983
vn -0.373047 -0.865270 -0.334878
s 1
g polySurface3252
f 1/1/1 2/2/2 16/3/3 18/4/4
f 3/5/5 4/6/6 6/7/7 5/8/8
f 14/9/9 15/10/10 8/11/11 7/12/12
f 7/13/12 8/14/11 2/15/2 1/16/1
f 22/17/13 8/18/11 15/19/10
f 7/13/12 1/16/1 13/20/14 20/21/15
f 19/22/16 9/23/17 3/5/5 5/8/8
f 5/8/8 6/7/7 11/24/18 10/25/19
f 21/26/20 11/27/18 6/7/7
f 17/28/21 12/29/22 4/6/6 3/5/5
f 20/21/15 13/20/14 9/23/17 19/22/16
f 10/25/19 11/24/18 15/10/10 14/9/9
f 22/17/13 15/19/10 11/27/18 21/26/20
f 18/4/4 16/3/3 12/29/22 17/28/21
f 9/30/17 17/28/21 3/5/5
f 13/31/14 18/4/4 17/28/21 9/30/17
f 1/1/1 18/4/4 13/31/14
f 10/32/19 19/22/16 5/8/8
f 14/33/9 20/21/15 19/22/16 10/32/19
f 7/13/12 20/21/15 14/33/9
f 12/34/22 24/35/23 4/6/6
f 16/36/3 23/37/24 24/35/23 12/34/22
f 2/38/2 23/37/24 16/36/3
f 2/38/2 8/18/11 22/17/13 23/37/24
f 24/35/23 23/37/24 22/17/13 21/26/20
f 4/6/6 24/35/23 21/26/20 6/7/7
s 2
f 25/39/25 26/40/26 28/41/27 27/42/28
f 29/43/29 30/44/30 32/45/31 31/46/32
f 43/47/33 39/48/34 26/49/26
f 26/40/26 39/50/34 40/51/35 28/41/27
f 38/52/36 25/39/25 27/42/28 37/53/37
f 31/54/32 34/55/38 33/56/39 29/57/29
f 44/58/40 32/59/31 35/60/41
f 36/61/42 35/62/41 32/45/31 30/44/30
f 34/55/38 38/52/36 37/53/37 33/56/39
f 44/58/40 35/60/41 39/48/34 43/47/33
f 40/51/35 39/50/34 35/62/41 36/61/42
f 38/63/36 41/64/43 25/65/25
f 34/66/38 42/67/44 41/64/43 38/63/36
f 31/68/32 42/67/44 34/66/38
f 41/64/43 43/47/33 26/49/26 25/65/25
f 42/67/44 44/58/40 43/47/33 41/64/43
f 31/68/32 32/59/31 44/58/40 42/67/44
s 3
f 45/69/45 46/70/46 48/71/47 47/72/48
f 49/73/49 50/74/50 52/75/51 51/76/52
f 63/77/53 59/78/54 46/79/46
f 46/70/46 59/80/54 60/81/55 48/71/47
f 58/82/56 45/69/45 47/72/48 57/83/57
f 51/84/52 54/85/58 53/86/59 49/87/49
f 64/88/60 52/89/51 55/90/61
f 56/91/62 55/92/61 52/75/51 50/74/50
f 54/85/58 58/82/56 57/83/57 53/86/59
f 64/88/60 55/90/61 59/78/54 63/77/53
f 60/81/55 59/80/54 55/92/61 56/91/62
f 58/93/56 61/94/63 45/95/45
f 54/96/58 62/97/64 61/94/63 58/93/56
f 51/98/52 62/97/64 54/96/58
f 61/94/63 63/77/53 46/79/46 45/95/45
f 62/97/64 64/88/60 63/77/53 61/94/63
f 51/98/52 52/89/51 64/88/60 62/97/64
s 4
f 65/99/65 66/100/66 68/101/67 67/102/68
f 69/103/69 70/104/70 72/105/71 71/106/72
f 83/107/73 79/108/74 66/109/66
f 66/100/66 79/110/74 80/111/75 68/101/67
f 78/112/76 65/99/65 67/102/68 77/113/77
f 71/114/72 74/115/78 73/116/79 69/117/69
f 84/118/80 72/119/71 75/120/81
f 76/121/82 75/122/81 72/105/71 70/104/70
f 74/115/78 78/112/76 77/113/77 73/116/79
f 84/118/80 75/120/81 79/108/74 83/107/73
f 80/111/75 79/110/74 75/122/81 76/121/82
f 78/123/76 81/124/83 65/125/65
f 74/126/78 82/127/84 81/124/83 78/123/76
f 71/128/72 82/127/84 74/126/78
f 81/124/83 83/107/73 66/109/66 65/125/65
f 82/127/84 84/118/80 83/107/73 81/124/83
f 71/128/72 72/119/71 84/118/80 82/127/84
s 5
f 85/129/85 86/130/86 88/131/87 87/132/88
f 89/133/89 90/134/90 92/135/91 91/136/92
f 103/137/93 99/138/94 86/139/86
f 86/130/86 99/140/94 100/141/95 88/131/87
f 98/142/96 85/129/85 87/132/88 97/143/97
f 91/144/92 94/145/98 93/146/99 89/147/89
f 104/148/100 92/149/91 95/150/101
f 96/151/102 95/152/101 92/135/91 90/134/90
f 94/145/98 98/142/96 97/143/97 93/146/99
f 104/148/100 95/150/101 99/138/94 103/137/93
f 100/141/95 99/140/94 95/152/101 96/151/102
f 98/153/96 101/154/103 85/155/85
f 94/156/98 102/157/104 101/154/103 98/153/96
f 91/158/92 102/157/104 94/156/98
f 101/154/103 103/137/93 86/139/86 85/155/85
f 102/157/104 104/148/100 103/137/93 101/154/103
f 91/158/92 92/149/91 104/148/100 102/157/104
