# This file uses centimeters as units for non-parametric coordinates.

g default
v -0.015199 -0.081592 -0.010671
v 0.025208 -0.081592 -0.010671
v 0.007007 0.725203 -0.008281
v 0.053257 0.727766 -0.009821
v 0.007007 0.725203 0.008281
v 0.053257 0.727766 0.009821
v -0.015199 -0.081592 0.010671
v 0.025208 -0.081592 0.010671
v 0.057011 0.822175 -0.000522
v 0.045889 0.128158 -0.024316
v -0.034690 0.128158 -0.024316
v -0.034690 0.128158 0.024316
v 0.045889 0.128158 0.024316
vt 0.375000 0.250000
vt 0.625000 0.250000
vt 0.494891 0.375000
vt 0.625000 0.500000
vt 0.375000 0.500000
vt 0.375000 0.750000
vt 0.625000 0.750000
vt 0.625000 1.000000
vt 0.375000 1.000000
vt 0.875000 0.250000
vt 0.125000 0.250000
vt 0.125000 0.000000
vt 0.375000 0.000000
vt 0.625000 0.000000
vt 0.875000 0.000000
vt 0.625000 0.213516
vt 0.375000 0.213516
vt 0.125000 0.213516
vt 0.375000 0.536484
vt 0.625000 0.536484
vt 0.875000 0.213516
vn 0.038623 -0.099471 0.994291
vn 0.038623 -0.099471 0.994291
vn 0.038623 -0.099471 0.994291
vn -0.999211 0.039729 0.000000
vn -0.999211 0.039729 0.000000
vn -0.999211 0.039729 0.000000
vn 0.039187 -0.110364 -0.993118
vn 0.039187 -0.110364 -0.993118
vn 0.039187 -0.110364 -0.993118
vn 0.000000 1.000000 0.000000
vn 0.000000 1.000000 0.000000
vn 0.000000 1.000000 0.000000
vn 0.000000 1.000000 0.000000
vn -0.995174 0.098127 0.000000
vn -0.998472 0.055258 0.000000
vn -0.998472 0.055258 0.000000
vn -0.995174 0.098127 0.000000
vn 0.999934 0.011468 0.000000
vn 0.999934 0.011468 0.000000
vn 0.995710 0.092528 0.000000
vn 0.995710 0.092528 0.000000
vn 0.888801 -0.458294 0.000000
vn 0.888801 -0.458294 0.000000
vn 0.888801 -0.458294 0.000000
vn 0.006339 0.019468 0.999790
vn 0.006339 0.019468 0.999790
vn 0.000000 0.064917 0.997891
vn 0.000000 0.064917 0.997891
vn 0.000000 0.064917 -0.997891
vn 0.006339 0.019468 -0.999790
vn 0.006339 0.019468 -0.999790
vn 0.000000 0.064917 -0.997891
vn 0.012665 -0.026022 0.999581
vn 0.012665 -0.026022 0.999581
vn 0.997570 -0.069669 0.000000
vn 0.997570 -0.069669 0.000000
vn 0.012665 -0.026022 -0.999581
vn 0.012665 -0.026022 -0.999581
vn -0.999925 0.012287 0.000000
vn -0.999925 0.012287 0.000000
s off
g polySurface8219
f 4/2/1 9/3/2 3/1/3
f 9/3/4 4/2/5 6/4/6
f 6/4/7 5/5/8 9/3/9
f 7/6/10 8/7/11 2/8/12 1/9/13
s 5
f 8/15/14 13/21/15 10/16/16 2/14/17
s 6
f 11/17/18 12/18/19 7/12/20 1/13/21
s off
f 3/1/22 9/3/23 5/5/24
s 8
f 10/16/25 11/17/26 1/13/27 2/14/28
s 9
f 7/6/29 12/19/30 13/20/31 8/7/32
s 8
f 10/16/25 4/2/33 3/1/34 11/17/26
s 6
f 3/1/35 5/11/36 12/18/19 11/17/18
s 9
f 13/20/31 12/19/30 5/5/37 6/4/38
s 5
f 6/10/39 4/2/40 10/16/16 13/21/15
