# This file uses centimeters as units for non-parametric coordinates.

g default
v -0.026360 -0.117581 -0.010671
v 0.014048 -0.117581 -0.010671
v -0.004153 0.898506 -0.008281
v 0.042097 0.901734 -0.009821
v -0.004153 0.898506 0.008281
v 0.042097 0.901734 0.009821
v -0.026360 -0.117581 0.010671
v 0.014048 -0.117581 0.010671
v 0.045851 1.020634 -0.000522
v 0.034729 0.146580 -0.024316
v -0.045851 0.146580 -0.024316
v -0.045851 0.146580 0.024316
v 0.034729 0.146580 0.024316
vt 0.375000 0.250000
vt 0.625000 0.250000
vt 0.494891 0.375000
vt 0.625000 0.500000
vt 0.375000 0.500000
vt 0.375000 0.750000
vt 0.625000 0.750000
vt 0.625000 1.000000
vt 0.375000 1.000000
vt 0.875000 0.250000
vt 0.125000 0.250000
vt 0.125000 0.000000
vt 0.375000 0.000000
vt 0.625000 0.000000
vt 0.875000 0.000000
vt 0.625000 0.213516
vt 0.375000 0.213516
vt 0.125000 0.213516
vt 0.375000 0.536484
vt 0.625000 0.536484
vt 0.875000 0.213516
vn 0.038694 -0.079126 0.996113
vn 0.038694 -0.079126 0.996113
vn 0.038694 -0.079126 0.996113
vn -0.999502 0.031551 0.000000
vn -0.999502 0.031551 0.000000
vn -0.999502 0.031551 0.000000
vn 0.039276 -0.087826 -0.995361
vn 0.039276 -0.087826 -0.995361
vn 0.039276 -0.087826 -0.995361
vn 0.000000 1.000000 0.000000
vn 0.000000 1.000000 0.000000
vn 0.000000 1.000000 0.000000
vn 0.000000 1.000000 0.000000
vn -0.996949 0.078052 0.000000
vn -0.999035 0.043930 0.000000
vn -0.999035 0.043930 0.000000
vn -0.996949 0.078052 0.000000
vn 0.999958 0.009127 -0.000000
vn 0.999958 0.009127 -0.000000
vn 0.997289 0.073585 0.000000
vn 0.997289 0.073585 0.000000
vn 0.925435 -0.378907 0.000000
vn 0.925435 -0.378907 0.000000
vn 0.925435 -0.378907 0.000000
vn 0.006337 0.015471 0.999860
vn 0.006337 0.015471 0.999860
vn 0.000000 0.051586 0.998669
vn 0.000000 0.051586 0.998669
vn 0.000000 0.051586 -0.998669
vn 0.006337 0.015471 -0.999860
vn 0.006337 0.015471 -0.999860
vn 0.000000 0.051586 -0.998669
vn 0.012666 -0.020664 0.999706
vn 0.012666 -0.020664 0.999706
vn 0.998466 -0.055369 -0.000000
vn 0.998466 -0.055369 -0.000000
vn 0.012666 -0.020664 -0.999706
vn 0.012666 -0.020664 -0.999706
vn -0.999952 0.009757 0.000000
vn -0.999952 0.009757 0.000000
s off
g polySurface8220
f 4/2/1 9/3/2 3/1/3
f 9/3/4 4/2/5 6/4/6
f 6/4/7 5/5/8 9/3/9
f 7/6/10 8/7/11 2/8/12 1/9/13
s 5
f 8/15/14 13/21/15 10/16/16 2/14/17
s 6
f 11/17/18 12/18/19 7/12/20 1/13/21
s off
f 3/1/22 9/3/23 5/5/24
s 8
f 10/16/25 11/17/26 1/13/27 2/14/28
s 9
f 7/6/29 12/19/30 13/20/31 8/7/32
s 8
f 10/16/25 4/2/33 3/1/34 11/17/26
s 6
f 3/1/35 5/11/36 12/18/19 11/17/18
s 9
f 13/20/31 12/19/30 5/5/37 6/4/38
s 5
f 6/10/39 4/2/40 10/16/16 13/21/15
