# This file uses centimeters as units for non-parametric coordinates.

g default
v -0.002844 0.128804 0.006448
v 0.002623 0.440591 0.006448
v 0.025944 0.749494 0.006448
v 0.053253 0.782738 0.006448
v 0.030937 0.442618 0.006448
v 0.025469 0.128808 0.006448
v -0.016153 0.128804 0.000476
v -0.010658 0.441468 0.000476
v 0.015273 0.761988 0.000476
v 0.057474 0.817416 0.000476
v 0.047956 0.725899 0.006448
v 0.030937 0.442618 -0.005497
v 0.002623 0.440591 -0.005497
v 0.025944 0.749494 -0.005497
v 0.047956 0.725899 -0.005497
v -0.002844 0.128804 -0.005497
v 0.053253 0.782738 -0.005497
v 0.025469 0.128808 -0.005497
v 0.018559 0.731881 -0.005497
v 0.007172 0.733815 0.000476
v 0.018866 0.731944 0.006448
v -0.001892 0.284992 -0.005497
v 0.026421 0.285345 -0.005497
v 0.026421 0.285345 0.006448
v -0.001892 0.284992 0.006448
v -0.015188 0.285504 0.000476
v 0.008808 0.586236 -0.005497
v 0.037664 0.584259 -0.005497
v 0.037664 0.584259 0.006448
v 0.008963 0.586267 0.006448
v -0.003527 0.587641 0.000476
v 0.038145 0.773398 -0.005497
v 0.034311 0.796096 0.000476
v 0.038145 0.773398 0.006448
v 0.027073 0.152140 -0.006748
v 0.006084 0.152140 -0.010819
v -0.017311 0.152140 -0.002549
v 0.027073 0.152140 0.007699
v 0.006084 0.152140 0.011771
v -0.017311 0.152140 0.003500
v 0.006121 0.130023 0.011666
v 0.026915 0.130023 0.007632
v -0.017153 0.130023 0.003472
v -0.017153 0.130023 -0.002522
v 0.006121 0.130023 -0.010714
v 0.026915 0.130023 -0.006680
v 0.026656 -0.077021 -0.004488
v 0.018318 -0.077021 -0.009452
v 0.026656 -0.071504 -0.004488
v 0.018318 -0.071504 -0.009452
v -0.016113 -0.077021 -0.004488
v -0.003584 -0.077021 -0.009452
v -0.016113 -0.071504 -0.004488
v -0.003584 -0.071504 -0.009452
v 0.026656 -0.071504 0.005440
v 0.018318 -0.071504 0.010404
v 0.026656 -0.077021 0.005440
v 0.018318 -0.077021 0.010404
v -0.003584 -0.071504 0.010404
v -0.016113 -0.071504 0.005440
v -0.016113 -0.077021 0.005440
v -0.003584 -0.077021 0.010404
v 0.018318 -0.078494 -0.004489
v -0.003584 -0.078494 -0.004489
v -0.003584 -0.078494 0.005440
v 0.018318 -0.078494 0.005440
v -0.004245 -0.074497 -0.010195
v 0.019295 -0.074497 -0.010195
v 0.028257 -0.074498 -0.004860
v 0.028257 -0.074498 0.005812
v 0.019295 -0.074497 0.011147
v -0.004245 -0.074497 0.011147
v -0.017713 -0.074498 0.005812
v -0.017713 -0.074498 -0.004860
v 0.017170 -0.071753 -0.007791
v -0.002500 -0.071753 -0.007791
v 0.024660 -0.071753 -0.003658
v 0.024661 -0.071753 0.004610
v 0.017170 -0.071753 0.008743
v -0.002501 -0.071753 0.008743
v -0.013754 -0.071753 0.004610
v -0.013754 -0.071753 -0.003658
v 0.018467 0.130003 -0.008706
v -0.003380 0.130003 -0.008707
v 0.026785 0.130003 -0.004116
v 0.026785 0.130003 0.005067
v 0.018467 0.130003 0.009658
v -0.003380 0.130003 0.009658
v -0.015879 0.130003 0.005067
v -0.015880 0.130003 -0.004116
v 0.005482 0.130157 0.000167
v 0.039157 0.130157 0.026563
v 0.056175 0.130157 0.003215
v 0.050690 0.130157 0.015542
v 0.000624 0.130157 -0.037712
v -0.007935 0.130157 0.036748
v -0.023226 0.130157 0.032269
v -0.042619 0.130157 -0.014768
v -0.046360 0.130157 -0.002798
v -0.032024 0.130157 -0.025564
v 0.008121 0.130157 0.038123
v 0.034344 0.130157 -0.031562
v 0.018193 0.130157 -0.037576
v -0.016630 0.130157 -0.033290
v 0.047768 0.130157 -0.021654
v 0.024975 0.130157 0.034542
v -0.036306 0.130157 0.022747
v -0.043062 0.130157 0.011397
v 0.054602 0.130157 -0.010714
v 0.005482 0.129937 0.000167
v 0.039157 0.129937 0.026563
v 0.056175 0.129937 0.003215
v 0.050690 0.129937 0.015542
v 0.000624 0.129937 -0.037712
v -0.007935 0.129937 0.036748
v -0.023226 0.129937 0.032269
v -0.042619 0.129937 -0.014768
v -0.046360 0.129937 -0.002798
v -0.032024 0.129937 -0.025564
v 0.008121 0.129937 0.038123
v 0.034344 0.129937 -0.031562
v 0.018193 0.129937 -0.037576
v -0.016630 0.129937 -0.033290
v 0.047768 0.129937 -0.021654
v 0.024975 0.129937 0.034542
v -0.036306 0.129937 0.022747
v -0.043062 0.129937 0.011397
v 0.054602 0.129937 -0.010714
v -0.029344 0.127998 0.027490
v 0.004087 0.127998 0.035683
v 0.034698 0.127998 0.027429
v 0.054510 0.127998 0.000164
v 0.040773 0.127998 -0.025974
v 0.004326 0.127998 -0.035973
v -0.031170 0.127998 -0.024972
v -0.043808 0.127998 0.000350
v -0.015093 0.127998 0.035072
v 0.019625 0.127998 0.034150
v 0.049629 0.127998 0.015182
v 0.050644 0.127998 -0.013369
v 0.025935 0.127998 -0.034173
v -0.011642 0.127998 -0.033009
v -0.041519 0.127998 -0.014427
v -0.039217 0.127998 0.013605
v -0.022574 0.127998 0.031522
v -0.003529 0.127998 0.035369
v 0.011427 0.127998 0.035082
v 0.027378 0.127998 0.031378
v 0.044119 0.127998 0.021708
v 0.053020 0.127998 0.006437
v 0.053020 0.127998 -0.006626
v 0.046777 0.127998 -0.021153
v 0.033661 0.127998 -0.030832
v 0.017885 0.127998 -0.036706
v -0.003428 0.127998 -0.035042
v -0.019346 0.127998 -0.029629
v -0.036589 0.127998 -0.019977
v -0.043762 0.127998 -0.005508
v -0.042081 0.127998 0.007091
v -0.036455 0.127998 0.018875
v -0.025557 0.127998 0.028165
v -0.018058 0.127998 0.032155
v -0.010405 0.127998 0.034246
v -0.000380 0.127998 0.037129
v 0.008047 0.127998 0.037241
v 0.016083 0.127998 0.035906
v 0.024509 0.127998 0.033742
v 0.032269 0.127998 0.030272
v 0.039885 0.127998 0.023451
v 0.045641 0.127998 0.018016
v 0.049494 0.127998 0.011978
v 0.054989 0.127998 0.003140
v 0.054989 0.127998 -0.003300
v 0.053452 0.127998 -0.010466
v 0.047679 0.127998 -0.018166
v 0.043240 0.127998 -0.022903
v 0.036625 0.127998 -0.027801
v 0.028751 0.127998 -0.031456
v 0.021009 0.127998 -0.034162
v 0.013296 0.127998 -0.035922
v 0.000722 0.127998 -0.036839
v -0.007864 0.127998 -0.035679
v -0.016131 0.127998 -0.032520
v -0.026485 0.127998 -0.026203
v -0.033379 0.127998 -0.021799
v -0.038330 0.127998 -0.016761
v -0.041976 0.127998 -0.010973
v -0.045172 0.127998 -0.002733
v -0.044325 0.127998 0.004187
v -0.041954 0.127998 0.011133
v -0.039030 0.127998 0.017135
v -0.031703 0.127998 0.024090
v 0.050072 0.127998 -0.016224
v 0.009268 0.127998 -0.037241
v -0.023491 0.127998 -0.029014
v -0.043833 0.127998 -0.008294
v -0.035353 0.127998 0.022221
v -0.007639 0.127998 0.035898
v 0.038366 0.127998 0.025948
v 0.052421 0.127998 0.009320
v 0.054920 0.131445 -0.003295
v 0.052954 0.131445 -0.006617
v 0.054441 0.131445 0.000163
v 0.039837 0.131445 0.023418
v 0.044064 0.131445 0.021679
v 0.034657 0.131445 0.027391
v 0.038319 0.131445 0.025913
v 0.052954 0.131445 0.006428
v 0.054920 0.131445 0.003136
v 0.049568 0.131445 0.015161
v 0.049433 0.131445 0.011961
v 0.052355 0.131445 0.009307
v 0.000729 0.131445 -0.036788
v -0.003418 0.131445 -0.034994
v 0.004328 0.131445 -0.035923
v -0.007621 0.131445 0.035849
v -0.003516 0.131445 0.035320
v -0.015064 0.131445 0.035024
v -0.010384 0.131445 0.034199
v -0.000372 0.131445 0.037078
v 0.004089 0.131445 0.035634
v -0.025515 0.131445 0.028126
v -0.022537 0.131445 0.031479
v -0.029297 0.131445 0.027452
v -0.041911 0.131445 -0.010958
v -0.043766 0.131445 -0.008283
v -0.041454 0.131445 -0.014407
v -0.043694 0.131445 -0.005500
v -0.045104 0.131445 -0.002729
v -0.043742 0.131445 0.000350
v -0.033326 0.131445 -0.021769
v -0.036531 0.131445 -0.019949
v -0.031120 0.131445 -0.024938
v 0.008043 0.131445 0.037189
v 0.011418 0.131445 0.035034
v 0.036581 0.131445 -0.027763
v 0.033623 0.131445 -0.030790
v 0.040724 0.131445 -0.025939
v 0.028718 0.131445 -0.031412
v 0.025908 0.131445 -0.034125
v 0.020988 0.131445 -0.034115
v 0.017868 0.131445 -0.036656
v -0.044256 0.131445 0.004181
v -0.042017 0.131445 0.007081
v -0.011620 0.131445 -0.032963
v -0.016104 0.131445 -0.032475
v -0.019312 0.131445 -0.029588
v -0.023451 0.131445 -0.028974
v -0.026442 0.131445 -0.026167
v 0.050581 0.131445 -0.013351
v 0.050009 0.131445 -0.016202
v 0.047620 0.131445 -0.018141
v 0.046719 0.131445 -0.021124
v 0.043187 0.131445 -0.022872
v 0.027348 0.131445 0.031334
v 0.032229 0.131445 0.030231
v 0.019604 0.131445 0.034103
v 0.024483 0.131445 0.033696
v -0.036398 0.131445 0.018849
v -0.035297 0.131445 0.022191
v -0.031652 0.131445 0.024057
v -0.039157 0.131445 0.013586
v -0.038969 0.131445 0.017111
v -0.007846 0.131445 -0.035630
v -0.038270 0.131445 -0.016738
v -0.041889 0.131445 0.011118
v 0.013285 0.131445 -0.035872
v 0.009262 0.131445 -0.037189
v 0.053385 0.131445 -0.010452
v 0.045586 0.131445 0.017991
v 0.016068 0.131445 0.035856
v -0.018028 0.131445 0.032111
v -0.047369 0.130182 0.004446
v -0.046821 0.130182 0.000372
v -0.048269 0.130182 -0.002903
v -0.046773 0.130182 -0.005849
v -0.046848 0.130182 -0.008807
v -0.044875 0.130182 -0.011652
v -0.044390 0.130182 -0.015319
v -0.041004 0.130182 -0.017798
v -0.039154 0.130182 -0.021212
v -0.035747 0.130182 -0.023147
v -0.033401 0.130182 -0.026517
v -0.028425 0.130182 -0.027824
v -0.025248 0.130182 -0.030808
v -0.020847 0.130182 -0.031461
v -0.017433 0.130182 -0.034531
v -0.012667 0.130182 -0.035051
v -0.008655 0.130182 -0.037885
v -0.003943 0.130182 -0.037209
v 0.000463 0.130182 -0.039118
v 0.004292 0.130182 -0.038197
v 0.009539 0.130182 -0.039544
v 0.013815 0.130182 -0.038143
v 0.018688 0.130182 -0.038977
v 0.022006 0.130182 -0.036275
v 0.027235 0.130182 -0.036286
v 0.030225 0.130182 -0.033401
v 0.035440 0.130182 -0.032739
v 0.038588 0.130182 -0.029521
v 0.042992 0.130182 -0.027581
v 0.045611 0.130182 -0.024320
v 0.049366 0.130182 -0.022461
v 0.050325 0.130182 -0.019289
v 0.052865 0.130182 -0.017228
v 0.053473 0.130182 -0.014196
v 0.056454 0.130182 -0.011114
v 0.055996 0.130182 -0.007036
v 0.058086 0.130182 -0.003504
v 0.057577 0.130182 0.000174
v 0.058086 0.130182 0.003335
v 0.055996 0.130182 0.006835
v 0.055359 0.130182 0.009896
v 0.052252 0.130182 0.012719
v 0.052397 0.130182 0.016121
v 0.048161 0.130182 0.019130
v 0.046544 0.130182 0.023051
v 0.042049 0.130182 0.024901
v 0.040434 0.130182 0.027553
v 0.036541 0.130182 0.029125
v 0.033958 0.130182 0.032145
v 0.028769 0.130182 0.033319
v 0.025723 0.130182 0.035830
v 0.020535 0.130182 0.036262
v 0.016775 0.130182 0.038126
v 0.011831 0.130182 0.037252
v 0.008242 0.130182 0.039544
v 0.004036 0.130182 0.037890
v -0.000706 0.130182 0.039426
v -0.004051 0.130182 0.037557
v -0.008413 0.130182 0.038118
v -0.011351 0.130182 0.036365
v -0.016329 0.130182 0.037241
v -0.019480 0.130182 0.034144
v -0.024276 0.130182 0.033472
v -0.027440 0.130182 0.029907
v -0.031464 0.130182 0.029191
v -0.033966 0.130182 0.025580
v -0.037843 0.130182 0.023596
v -0.039014 0.130182 0.020043
v -0.041748 0.130182 0.018195
v -0.041946 0.130182 0.014446
v -0.044852 0.130182 0.011822
v -0.044989 0.130182 0.007529
vt 0.140752 0.513301
vt 0.221668 0.521988
vt 0.201344 0.547566
vt 0.783068 0.517985
vt 0.264589 0.728675
vt 0.267206 0.501860
vt 0.303837 0.501859
vt 0.753987 0.518728
vt 0.751497 0.745544
vt 0.445972 0.757692
vt 0.126177 0.595843
vt 0.167762 0.582280
vt 0.780606 0.745544
vt 0.186659 0.729187
vt 0.189276 0.501865
vt 0.220826 0.522079
vt 0.140752 0.513301
vt 0.201344 0.547566
vt 0.264589 0.728675
vt 0.267206 0.501860
vt 0.126177 0.595843
vt 0.167763 0.582280
vt 0.189276 0.501865
vt 0.186659 0.729187
vt 0.169084 0.758275
vt 0.187602 0.963965
vt 0.187602 0.963965
vt 0.169084 0.758275
vt 0.265532 0.966909
vt 0.248507 0.755404
vt 0.742211 0.713024
vt 0.751423 0.775435
vt 0.248086 0.755359
vt 0.265532 0.966909
vt 0.776334 0.775435
vt 0.786396 0.713024
vt 0.796940 0.565000
vt 0.732872 0.565000
vt 0.737941 0.641783
vt 0.793753 0.641783
vt 0.753987 0.518728
vt 0.751497 0.745544
vt 0.742211 0.713024
vt 0.750754 0.775435
vt 0.732872 0.565000
vt 0.737941 0.641783
vt 0.775011 0.986940
vt 0.748030 0.986940
vt 0.750964 0.729034
vt 0.780014 0.729034
vt 0.747695 0.986940
vt 0.750964 0.729034
vt 0.445972 0.963382
vt 0.411375 0.963382
vt 0.411375 0.757692
vt 0.428673 0.683824
vt 0.445972 0.633465
vt 0.411375 0.633465
vt 0.445972 0.739968
vt 0.445972 0.512644
vt 0.411375 0.512644
vt 0.411375 0.739968
vt 0.445972 0.550922
vt 0.411375 0.550922
vt 0.767896 0.331181
vt 0.716874 0.331181
vt 0.717112 0.253068
vt 0.767658 0.253068
vt 0.571200 0.251898
vt 0.556819 0.177770
vt 0.586027 0.095144
vt 0.607395 0.095144
vt 0.636603 0.177770
vt 0.622222 0.251898
vt 0.783942 0.408704
vt 0.769694 0.335267
vt 0.798630 0.253068
vt 0.819799 0.253068
vt 0.848735 0.335267
vt 0.834488 0.408704
vt 0.638558 0.251898
vt 0.638558 0.177770
vt 0.716671 0.177902
vt 0.716671 0.251339
vt 0.638558 0.095144
vt 0.716671 0.095703
vt 0.693708 0.331181
vt 0.693808 0.253068
vt 0.714977 0.253068
vt 0.715076 0.331181
vt 0.796640 0.177770
vt 0.718527 0.177902
vt 0.718527 0.095703
vt 0.796640 0.095144
vt 0.796640 0.251898
vt 0.718527 0.251339
vt 0.586148 0.302830
vt 0.570568 0.302830
vt 0.570568 0.164861
vt 0.586148 0.164861
vt 0.641056 0.302830
vt 0.625476 0.302830
vt 0.625476 0.164861
vt 0.641056 0.164861
vt 0.855095 0.286453
vt 0.839514 0.286453
vt 0.839514 0.225155
vt 0.855095 0.225155
vt 0.806700 0.417926
vt 0.791119 0.417926
vt 0.791119 0.356628
vt 0.806700 0.356628
vt 0.778334 0.302830
vt 0.655750 0.302830
vt 0.655750 0.164861
vt 0.778334 0.164861
vt 0.558178 0.164861
vt 0.570566 0.085921
vt 0.570566 0.355364
vt 0.586146 0.355364
vt 0.586146 0.085921
vt 0.625478 0.355364
vt 0.641058 0.355364
vt 0.625478 0.085921
vt 0.641058 0.085921
vt 0.558178 0.302830
vt 0.653447 0.302830
vt 0.653447 0.164861
vt 0.827126 0.286453
vt 0.827126 0.225154
vt 0.841714 0.085921
vt 0.841714 0.223890
vt 0.780416 0.223890
vt 0.780416 0.085921
vt 0.778731 0.417927
vt 0.778731 0.356629
vt 0.686393 0.085921
vt 0.747691 0.085921
vt 0.686393 0.355364
vt 0.747691 0.355364
vt 0.604629 0.302830
vt 0.604629 0.164861
vt 0.604629 0.355364
vt 0.825183 0.417926
vt 0.825183 0.356628
vt 0.606995 0.355364
vt 0.606995 0.302830
vt 0.606995 0.164861
vt 0.606995 0.085921
vt 0.873577 0.286453
vt 0.873577 0.225155
vt 0.604629 0.085921
vt 0.073353 0.007420
vt 0.121456 0.007420
vt 0.121456 0.436064
vt 0.073353 0.436064
vt 0.056659 0.436064
vt 0.056659 0.007420
vt 0.038972 0.436064
vt 0.038972 0.007420
vt 0.022278 0.436064
vt 0.022278 0.007421
vt 0.240424 0.436064
vt 0.202471 0.436064
vt 0.202471 0.007420
vt 0.240424 0.007421
vt 0.170807 0.436064
vt 0.170807 0.007420
vt 0.149410 0.436064
vt 0.149410 0.007421
vt 0.121456 0.436064
vt 0.121456 0.007420
vt 0.398354 0.385338
vt 0.354875 0.377525
vt 0.391637 0.210803
vt 0.501309 0.285518
vt 0.475770 0.339467
vt 0.440423 0.372213
vt 0.469725 0.064851
vt 0.496473 0.109735
vt 0.347250 0.043055
vt 0.387914 0.029893
vt 0.513813 0.167811
vt 0.514551 0.227806
vt 0.287871 0.304053
vt 0.273236 0.245353
vt 0.431874 0.039148
vt 0.284958 0.124424
vt 0.308121 0.078434
vt 0.317829 0.349438
vt 0.271236 0.188867
vt 0.398354 0.385338
vt 0.391637 0.210803
vt 0.354875 0.377525
vt 0.501309 0.285518
vt 0.475770 0.339467
vt 0.440423 0.372213
vt 0.469725 0.064851
vt 0.496473 0.109735
vt 0.347250 0.043055
vt 0.387914 0.029893
vt 0.513813 0.167811
vt 0.514551 0.227806
vt 0.287871 0.304053
vt 0.273236 0.245353
vt 0.431874 0.039148
vt 0.284958 0.124424
vt 0.308121 0.078434
vt 0.317829 0.349438
vt 0.271236 0.188867
vt 0.399384 0.032237
vt 0.411336 0.031336
vt 0.413716 0.008290
vt 0.400202 0.009309
vt 0.387914 0.029893
vt 0.387231 0.006659
vt 0.377885 0.035723
vt 0.375892 0.013250
vt 0.367317 0.032479
vt 0.364071 0.010356
vt 0.358721 0.041072
vt 0.354222 0.019299
vt 0.347250 0.043055
vt 0.341252 0.021541
vt 0.339512 0.053462
vt 0.332501 0.033309
vt 0.327926 0.056658
vt 0.319401 0.036922
vt 0.320668 0.068027
vt 0.311194 0.049777
vt 0.308121 0.078434
vt 0.297007 0.061546
vt 0.305208 0.090719
vt 0.293713 0.075436
vt 0.295208 0.101466
vt 0.282857 0.087911
vt 0.293641 0.114062
vt 0.280634 0.101831
vt 0.284958 0.124424
vt 0.270816 0.113547
vt 0.283007 0.141997
vt 0.268610 0.133418
vt 0.276198 0.154735
vt 0.260911 0.147822
vt 0.276602 0.170840
vt 0.261367 0.166032
vt 0.271236 0.188867
vt 0.255299 0.186416
vt 0.274524 0.200644
vt 0.259018 0.199732
vt 0.274568 0.217539
vt 0.259067 0.218836
vt 0.274602 0.230691
vt 0.259105 0.233708
vt 0.273236 0.245353
vt 0.257561 0.250287
vt 0.278122 0.259534
vt 0.263086 0.266321
vt 0.279641 0.279004
vt 0.264804 0.288336
vt 0.285920 0.287922
vt 0.271903 0.298421
vt 0.287871 0.304053
vt 0.274109 0.316661
vt 0.297515 0.313453
vt 0.285015 0.327290
vt 0.301390 0.330065
vt 0.289396 0.346074
vt 0.311052 0.335664
vt 0.300321 0.352405
vt 0.317829 0.349438
vt 0.307984 0.367979
vt 0.327491 0.354556
vt 0.318909 0.373767
vt 0.334560 0.366464
vt 0.327096 0.386522
vt 0.346289 0.368810
vt 0.340164 0.389884
vt 0.354875 0.377525
vt 0.349873 0.399738
vt 0.367307 0.378065
vt 0.363931 0.400349
vt 0.378778 0.383895
vt 0.376901 0.406941
vt 0.389287 0.381070
vt 0.388784 0.403747
vt 0.398354 0.385338
vt 0.399037 0.408572
vt 0.408382 0.380470
vt 0.410376 0.403068
vt 0.419204 0.382258
vt 0.422418 0.404381
vt 0.427066 0.373197
vt 0.431502 0.394845
vt 0.440423 0.372213
vt 0.446798 0.393538
vt 0.448199 0.361768
vt 0.455398 0.381922
vt 0.460746 0.357131
vt 0.469585 0.376678
vt 0.467523 0.345762
vt 0.477248 0.363822
vt 0.475770 0.339467
vt 0.486316 0.356253
vt 0.481031 0.324776
vt 0.492523 0.340093
vt 0.489714 0.315857
vt 0.502341 0.330008
vt 0.493589 0.299726
vt 0.506722 0.311768
vt 0.501309 0.285518
vt 0.515452 0.295703
vt 0.502299 0.271310
vt 0.516571 0.279638
vt 0.509588 0.255206
vt 0.524813 0.261428
vt 0.510627 0.240064
vt 0.525988 0.244306
vt 0.514551 0.227806
vt 0.530425 0.230446
vt 0.510782 0.212183
vt 0.526162 0.212780
vt 0.515032 0.196560
vt 0.530968 0.195115
vt 0.511589 0.182860
vt 0.527075 0.179624
vt 0.513813 0.167811
vt 0.529074 0.162736
vt 0.508146 0.154735
vt 0.523182 0.147822
vt 0.507107 0.137670
vt 0.522008 0.128525
vt 0.499867 0.127789
vt 0.513821 0.117353
vt 0.496473 0.109735
vt 0.509984 0.096938
vt 0.488752 0.101297
vt 0.501253 0.087397
vt 0.485840 0.089493
vt 0.497960 0.074050
vt 0.474735 0.079566
vt 0.485403 0.062826
vt 0.469725 0.064851
vt 0.479416 0.046895
vt 0.459784 0.060985
vt 0.468498 0.041815
vt 0.451083 0.050097
vt 0.458660 0.029503
vt 0.441421 0.047382
vt 0.447734 0.026434
vt 0.431874 0.039148
vt 0.436939 0.017124
vt 0.419922 0.038608
vt 0.423424 0.016512
vt 0.376901 0.406941
vt 0.363931 0.400349
vt 0.365635 0.389099
vt 0.377849 0.395306
vt 0.388784 0.403747
vt 0.389038 0.392298
vt 0.477248 0.363822
vt 0.469585 0.376678
vt 0.465122 0.366809
vt 0.472338 0.354704
vt 0.492523 0.340093
vt 0.486316 0.356253
vt 0.480991 0.347778
vt 0.486721 0.332360
vt 0.410376 0.403068
vt 0.399037 0.408572
vt 0.398692 0.396842
vt 0.409370 0.391659
vt 0.446798 0.393538
vt 0.431502 0.394845
vt 0.429262 0.383916
vt 0.443580 0.382772
vt 0.422418 0.404381
vt 0.420795 0.393212
vt 0.255299 0.186416
vt 0.261367 0.166032
vt 0.269059 0.168459
vt 0.263345 0.187653
vt 0.259018 0.199732
vt 0.266847 0.200192
vt 0.529074 0.162736
vt 0.527075 0.179624
vt 0.519257 0.181258
vt 0.521369 0.165299
vt 0.522008 0.128525
vt 0.523182 0.147822
vt 0.515591 0.151312
vt 0.514485 0.133142
vt 0.530968 0.195115
vt 0.522922 0.195844
vt 0.526162 0.212780
vt 0.518397 0.212479
vt 0.501253 0.087397
vt 0.509984 0.096938
vt 0.503163 0.103399
vt 0.494942 0.094415
vt 0.497960 0.074050
vt 0.491841 0.081847
vt 0.354222 0.019299
vt 0.364071 0.010356
vt 0.365710 0.021525
vt 0.356494 0.030291
vt 0.341252 0.021541
vt 0.344280 0.032403
vt 0.375892 0.013250
vt 0.387231 0.006659
vt 0.387576 0.018389
vt 0.376898 0.024596
vt 0.400202 0.009309
vt 0.399789 0.020885
vt 0.311194 0.049777
vt 0.319401 0.036922
vt 0.323705 0.046886
vt 0.315977 0.058991
vt 0.297007 0.061546
vt 0.302618 0.070072
vt 0.530425 0.230446
vt 0.522410 0.229113
vt 0.525988 0.244306
vt 0.518233 0.242164
vt 0.285015 0.327290
vt 0.274109 0.316661
vt 0.281057 0.310296
vt 0.291326 0.320304
vt 0.289396 0.346074
vt 0.295451 0.337991
vt 0.271903 0.298421
vt 0.278980 0.293121
vt 0.264804 0.288336
vt 0.272295 0.283625
vt 0.263086 0.266321
vt 0.270677 0.262894
vt 0.257561 0.250287
vt 0.265475 0.247796
vt 0.413716 0.008290
vt 0.412514 0.019925
vt 0.423424 0.016512
vt 0.421656 0.027668
vt 0.268610 0.133418
vt 0.270816 0.113547
vt 0.277956 0.119038
vt 0.275878 0.137750
vt 0.280634 0.101831
vt 0.287201 0.108006
vt 0.282857 0.087911
vt 0.289093 0.094755
vt 0.293713 0.075436
vt 0.299517 0.083152
vt 0.340164 0.389884
vt 0.327096 0.386522
vt 0.330864 0.376395
vt 0.343256 0.379245
vt 0.318909 0.373767
vt 0.307984 0.367979
vt 0.312954 0.358618
vt 0.323242 0.364068
vt 0.300321 0.352405
vt 0.305739 0.343953
vt 0.506722 0.311768
vt 0.502341 0.330008
vt 0.495966 0.322864
vt 0.500091 0.305689
vt 0.516571 0.279638
vt 0.515452 0.295703
vt 0.508312 0.290561
vt 0.509365 0.275433
vt 0.468498 0.041815
vt 0.479416 0.046895
vt 0.474524 0.055960
vt 0.464098 0.051493
vt 0.485403 0.062826
vt 0.480017 0.071278
vt 0.447734 0.026434
vt 0.458660 0.029503
vt 0.454835 0.039900
vt 0.444547 0.037010
vt 0.260911 0.147822
vt 0.268629 0.151312
vt 0.332501 0.033309
vt 0.336040 0.043484
vt 0.436939 0.017124
vt 0.434382 0.028243
vt 0.259105 0.233708
vt 0.266929 0.232185
vt 0.259067 0.218836
vt 0.266893 0.218181
vt 0.349873 0.399738
vt 0.352398 0.388523
vt 0.455398 0.381922
vt 0.451763 0.371747
vt 0.524813 0.261428
vt 0.517127 0.258287
vt 0.513821 0.117353
vt 0.506776 0.122622
vt 0.411336 0.031336
vt 0.399384 0.032237
vt 0.387914 0.029893
vt 0.377885 0.035723
vt 0.367317 0.032479
vt 0.358721 0.041072
vt 0.347250 0.043055
vt 0.339512 0.053462
vt 0.327926 0.056658
vt 0.320668 0.068027
vt 0.308121 0.078434
vt 0.305208 0.090719
vt 0.295208 0.101466
vt 0.293641 0.114062
vt 0.284958 0.124424
vt 0.283007 0.141997
vt 0.276198 0.154735
vt 0.276602 0.170840
vt 0.271236 0.188867
vt 0.274524 0.200644
vt 0.274568 0.217539
vt 0.274602 0.230691
vt 0.273236 0.245353
vt 0.278122 0.259534
vt 0.279641 0.279004
vt 0.285920 0.287922
vt 0.287871 0.304053
vt 0.297515 0.313453
vt 0.301390 0.330065
vt 0.311052 0.335664
vt 0.317829 0.349438
vt 0.327491 0.354556
vt 0.334560 0.366464
vt 0.346289 0.368810
vt 0.354875 0.377525
vt 0.367307 0.378065
vt 0.378778 0.383895
vt 0.389287 0.381070
vt 0.398354 0.385338
vt 0.408382 0.380470
vt 0.419204 0.382258
vt 0.427066 0.373197
vt 0.440423 0.372213
vt 0.448199 0.361768
vt 0.460746 0.357131
vt 0.467523 0.345762
vt 0.475770 0.339467
vt 0.481031 0.324776
vt 0.489714 0.315857
vt 0.493589 0.299726
vt 0.501309 0.285518
vt 0.502299 0.271310
vt 0.509588 0.255206
vt 0.510627 0.240064
vt 0.514551 0.227806
vt 0.510782 0.212183
vt 0.515032 0.196560
vt 0.511589 0.182860
vt 0.513813 0.167811
vt 0.508146 0.154735
vt 0.507107 0.137670
vt 0.499867 0.127789
vt 0.496473 0.109735
vt 0.488752 0.101297
vt 0.485840 0.089493
vt 0.474735 0.079566
vt 0.469725 0.064851
vt 0.459784 0.060985
vt 0.451083 0.050097
vt 0.441421 0.047382
vt 0.431874 0.039148
vt 0.419922 0.038608
vn 0.000000 0.000000 -1.000000
vn 0.000000 0.000000 -1.000000
vn 0.000000 0.000000 -1.000000
vn -0.409495 0.007197 -0.912284
vn -0.409495 0.007197 -0.912284
vn -0.409559 0.002509 -0.912280
vn -0.409559 0.002509 -0.912280
vn -0.366589 0.157156 -0.917014
vn -0.424524 0.083686 -0.901541
vn -0.424524 0.083686 -0.901541
vn -0.366589 0.157156 -0.917014
vn -0.161976 0.202186 -0.965860
vn -0.161976 0.202186 -0.965860
vn -0.247381 0.190917 -0.949923
vn -0.247381 0.190917 -0.949923
vn -0.000000 0.000000 -1.000000
vn -0.000000 0.000000 -1.000000
vn -0.000000 0.000000 -1.000000
vn -0.000000 0.000000 -1.000000
vn 0.000000 0.000000 -1.000000
vn 0.000000 0.000000 -1.000000
vn 0.000000 0.000000 1.000000
vn 0.000000 0.000000 1.000000
vn 0.000000 0.000000 1.000000
vn -0.409467 0.007197 0.912296
vn -0.409467 0.007197 0.912296
vn -0.409532 0.002509 0.912292
vn -0.409532 0.002509 0.912292
vn -0.365435 0.155514 0.917754
vn -0.365435 0.155514 0.917754
vn -0.419951 0.081917 0.903842
vn -0.419951 0.081917 0.903842
vn -0.161964 0.202171 0.965865
vn -0.161964 0.202171 0.965865
vn -0.247364 0.190904 0.949930
vn -0.247364 0.190904 0.949930
vn 0.000000 0.000000 1.000000
vn 0.000000 0.000000 1.000000
vn -0.000000 0.000000 1.000000
vn -0.000000 0.000000 1.000000
vn 0.000000 0.000000 1.000000
vn 0.000000 0.000000 1.000000
vn 0.998201 -0.059962 0.000000
vn 0.999275 -0.038076 0.000000
vn 0.999275 -0.038076 0.000000
vn 0.998201 -0.059962 0.000000
vn 0.000036 -1.000000 0.000000
vn 0.000036 -1.000000 0.000000
vn 0.000036 -1.000000 0.000000
vn 0.992673 -0.120829 0.000000
vn 0.994279 -0.106818 0.000000
vn 0.994279 -0.106818 0.000000
vn 0.999849 -0.017394 0.000000
vn 0.999982 -0.006080 0.000000
vn 0.999982 -0.006080 0.000000
vn 0.999849 -0.017394 0.000000
vn 0.000135 -1.000000 0.000000
vn 0.000135 -1.000000 0.000000
vn 0.000135 -1.000000 0.000000
vn 0.000135 -1.000000 0.000000
vn 0.996580 -0.082633 0.000000
vn 0.996580 -0.082633 0.000000
vn -0.000000 0.000000 -1.000000
vn -0.000000 0.000000 -1.000000
vn -0.000000 0.000000 -1.000000
vn -0.000000 0.000000 -1.000000
vn -0.433647 0.025240 -0.900729
vn -0.433647 0.025240 -0.900729
vn -0.415302 0.015553 -0.909551
vn -0.415302 0.015553 -0.909551
vn -0.429211 0.025178 0.902853
vn -0.429211 0.025178 0.902853
vn -0.414237 0.015615 0.910035
vn -0.414237 0.015615 0.910035
vn -0.000000 0.000000 1.000000
vn -0.000000 0.000000 1.000000
vn -0.000000 0.000000 1.000000
vn -0.000000 0.000000 1.000000
vn 0.999974 -0.007158 0.000000
vn 0.999974 -0.007158 0.000000
vn 0.999974 -0.007158 0.000000
vn 0.999974 -0.007158 0.000000
vn 0.000000 1.000000 0.000000
vn 0.000000 1.000000 0.000000
vn 0.000000 1.000000 0.000000
vn 0.000000 1.000000 0.000000
vn 0.000000 -1.000000 0.000000
vn 0.000000 -1.000000 0.000000
vn 0.000000 -1.000000 0.000000
vn 0.000000 -1.000000 0.000000
vn 0.190458 -0.004356 0.981686
vn 0.190458 -0.004356 0.981686
vn 0.190458 -0.004356 0.981686
vn 0.190458 -0.004356 0.981686
vn -0.332688 -0.004310 0.943027
vn -0.332688 -0.004310 0.943027
vn -0.332688 -0.004310 0.943027
vn -0.332688 -0.004310 0.943027
vn -0.999974 -0.007158 0.000000
vn -0.999974 -0.007158 0.000000
vn -0.999974 -0.007158 0.000000
vn -0.999974 -0.007158 0.000000
vn -0.332662 -0.004299 -0.943036
vn -0.332662 -0.004299 -0.943036
vn -0.332662 -0.004299 -0.943036
vn -0.332662 -0.004299 -0.943036
vn 0.190436 -0.004356 -0.981690
vn 0.190436 -0.004356 -0.981690
vn 0.190436 -0.004356 -0.981690
vn 0.190436 -0.004356 -0.981690
vn 0.259288 -0.026710 -0.965431
vn 0.241262 -0.358861 -0.901671
vn -0.175592 -0.320108 -0.930967
vn -0.185580 -0.024179 -0.982332
vn 0.241260 -0.358944 0.901639
vn 0.259294 -0.026716 0.965429
vn -0.185584 -0.024186 0.982331
vn -0.175591 -0.320191 0.930938
vn -0.808684 -0.037829 -0.587025
vn -0.692262 -0.513374 -0.507169
vn -0.692262 -0.513374 0.507169
vn -0.808685 -0.037829 0.587025
vn 0.859099 -0.038561 0.510354
vn 0.729495 -0.527032 0.435975
vn 0.729495 -0.527032 -0.435975
vn 0.859099 -0.038561 -0.510354
vn 0.000000 1.000000 0.000000
vn 0.000000 1.000000 0.000000
vn 0.000000 1.000000 0.000000
vn 0.000000 1.000000 0.000000
vn -0.056064 -0.957193 -0.283967
vn -0.057856 -0.987961 -0.143478
vn -0.115510 -0.982992 -0.142776
vn 0.172135 -0.974837 -0.141640
vn 0.086403 -0.985914 -0.143204
vn 0.083754 -0.955333 -0.283415
vn 0.172127 -0.974839 0.141640
vn 0.083746 -0.955334 0.283415
vn 0.086399 -0.985915 0.143205
vn -0.057853 -0.987961 0.143478
vn -0.056059 -0.957194 0.283967
vn -0.115504 -0.982992 0.142776
vn 0.000000 1.000000 0.000000
vn 0.000000 1.000000 0.000000
vn 0.000000 1.000000 0.000000
vn 0.000000 1.000000 0.000000
vn 0.000000 1.000000 0.000000
vn 0.000000 1.000000 0.000000
vn 0.000000 1.000000 0.000000
vn 0.000000 1.000000 0.000000
vn 0.247553 0.308721 -0.918373
vn -0.178803 0.274034 -0.944952
vn 0.762793 0.463884 -0.450509
vn 0.762793 0.463884 0.450509
vn 0.247551 0.308794 0.918349
vn -0.178802 0.274108 0.944931
vn -0.724276 0.451583 0.521054
vn -0.724276 0.451583 -0.521054
vn 0.249457 -0.005995 -0.968367
vn -0.175065 -0.005230 -0.984543
vn -0.175065 -0.005230 -0.984543
vn 0.249457 -0.005995 -0.968367
vn 0.861082 -0.010220 -0.508363
vn 0.861082 -0.010220 -0.508363
vn 0.861115 -0.010220 0.508308
vn 0.861115 -0.010220 0.508308
vn 0.249462 -0.005994 0.968366
vn 0.249462 -0.005994 0.968366
vn -0.175092 -0.005228 0.984538
vn -0.175092 -0.005228 0.984538
vn -0.819930 -0.009934 0.572378
vn -0.819930 -0.009934 0.572378
vn -0.819949 -0.009936 -0.572351
vn -0.819949 -0.009936 -0.572351
vn 0.000000 1.000000 0.000001
vn 0.000000 1.000000 0.000001
vn 0.000000 1.000000 0.000000
vn 0.000000 1.000000 -0.000000
vn 0.000000 1.000000 -0.000001
vn 0.000000 1.000000 -0.000000
vn 0.000000 1.000000 0.000000
vn 0.000000 1.000000 0.000000
vn 0.000000 1.000000 -0.000000
vn 0.000000 1.000000 -0.000000
vn 0.000000 1.000000 0.000000
vn 0.000000 1.000000 0.000000
vn 0.000000 1.000000 -0.000000
vn 0.000000 1.000000 -0.000000
vn 0.000000 1.000000 0.000000
vn 0.000000 1.000000 0.000000
vn 0.000000 1.000000 0.000000
vn 0.000000 1.000000 0.000000
vn 0.000000 1.000000 0.000000
vn 0.000000 1.000000 0.000000
vn 0.000000 1.000000 0.000000
vn 0.000000 1.000000 0.000000
vn 0.000000 1.000000 0.000000
vn 0.000000 1.000000 -0.000001
vn 0.000000 -1.000000 -0.000000
vn 0.000000 -1.000000 -0.000000
vn 0.000000 -1.000000 0.000000
vn 0.000000 -1.000000 -0.000000
vn 0.000000 -1.000000 -0.000000
vn 0.000000 -1.000000 -0.000001
vn 0.000000 -1.000000 0.000000
vn 0.000000 -1.000000 0.000001
vn 0.000000 -1.000000 0.000000
vn 0.000000 -1.000000 0.000000
vn 0.000000 -1.000000 0.000000
vn 0.000000 -1.000000 0.000000
vn 0.000000 -1.000000 0.000000
vn 0.000000 -1.000000 0.000000
vn 0.000000 -1.000000 -0.000000
vn 0.000000 -1.000000 -0.000000
vn 0.000000 -1.000000 -0.000000
vn 0.000000 -1.000000 0.000000
vn 0.000000 -1.000000 0.000000
vn 0.000000 -1.000000 0.000000
vn 0.000000 -1.000000 -0.000000
vn 0.000000 -1.000000 0.000000
vn 0.000000 -1.000000 0.000001
vn 0.000000 -1.000000 0.000000
vn 0.537816 0.839872 -0.073282
vn 0.505523 0.853566 -0.125982
vn 0.390499 -0.916009 -0.091856
vn 0.419042 -0.906284 -0.055254
vn 0.514489 0.857352 0.015759
vn 0.395652 -0.918304 0.013329
vn 0.535238 0.836295 0.118876
vn 0.418368 -0.903638 0.091691
vn 0.517401 0.842415 0.150443
vn 0.403086 -0.907947 0.114690
vn 0.510512 0.837549 0.194651
vn 0.398089 -0.904961 0.150234
vn 0.449126 0.857532 0.250847
vn 0.347190 -0.919275 0.185453
vn 0.405741 0.845873 0.346228
vn 0.313034 -0.912676 0.262740
vn 0.381282 0.851050 0.361024
vn 0.294388 -0.916196 0.271884
vn 0.358877 0.850225 0.385130
vn 0.274959 -0.916461 0.290684
vn 0.300903 0.865407 0.400660
vn 0.232461 -0.926712 0.295239
vn 0.252690 0.862521 0.438413
vn 0.191662 -0.926455 0.323956
vn 0.227735 0.866574 0.444056
vn 0.173910 -0.928941 0.326838
vn 0.218090 0.869165 0.443834
vn 0.164154 -0.931374 0.324955
vn 0.208069 0.867804 0.451247
vn 0.156347 -0.930103 0.332361
vn 0.178981 0.866625 0.465755
vn 0.132847 -0.930084 0.342486
vn 0.118440 0.876915 0.465824
vn 0.089264 -0.936331 0.339581
vn 0.068019 0.871252 0.486100
vn 0.050984 -0.933466 0.355025
vn 0.043235 0.872186 0.487261
vn 0.032135 -0.933575 0.356937
vn 0.003937 0.868082 0.496404
vn 0.002989 -0.931382 0.364032
vn -0.018814 0.867513 0.497059
vn -0.015106 -0.930381 0.366283
vn -0.040158 0.866683 0.497240
vn -0.031204 -0.930189 0.365753
vn -0.126474 0.880091 0.457651
vn -0.095137 -0.937873 0.333680
vn -0.167237 0.873009 0.458135
vn -0.124753 -0.933786 0.335380
vn -0.191189 0.872800 0.449073
vn -0.145535 -0.932778 0.329764
vn -0.221969 0.867725 0.444728
vn -0.167840 -0.929793 0.327589
vn -0.234556 0.864934 0.443702
vn -0.180875 -0.926940 0.328735
vn -0.302217 0.850336 0.430807
vn -0.230441 -0.917037 0.325485
vn -0.325135 0.850187 0.414089
vn -0.249987 -0.916175 0.313257
vn -0.334709 0.849918 0.406952
vn -0.257031 -0.916228 0.307347
vn -0.396183 0.861819 0.316713
vn -0.305589 -0.922847 0.234455
vn -0.443296 0.847924 0.290712
vn -0.342280 -0.913325 0.220640
vn -0.454531 0.850304 0.265300
vn -0.351910 -0.914369 0.200220
vn -0.476951 0.844300 0.244284
vn -0.369976 -0.910214 0.186084
vn -0.487780 0.858537 0.158063
vn -0.375578 -0.919365 0.117088
vn -0.524012 0.844598 0.109843
vn -0.406585 -0.909767 0.083737
vn -0.527527 0.843473 0.101331
vn -0.411137 -0.908392 0.076097
vn -0.561831 0.827229 0.006115
vn -0.443199 -0.896411 0.004764
vn -0.526086 0.845006 -0.095907
vn -0.409491 -0.909493 -0.071688
vn -0.515393 0.833608 -0.198666
vn -0.402885 -0.902204 -0.153987
vn -0.463373 0.849601 -0.251919
vn -0.359192 -0.914100 -0.188155
vn -0.465765 0.865437 -0.184615
vn -0.353958 -0.925470 -0.134979
vn -0.443769 0.872544 -0.204294
vn -0.336754 -0.929866 -0.148139
vn -0.413685 0.852323 -0.320018
vn -0.317117 -0.917383 -0.240510
vn -0.365181 0.865746 -0.342239
vn -0.280516 -0.926343 -0.251393
vn -0.336736 0.862439 -0.377900
vn -0.256041 -0.925380 -0.279490
vn -0.335758 0.860443 -0.383282
vn -0.255385 -0.923759 -0.285392
vn -0.304102 0.857342 -0.415316
vn -0.229809 -0.922474 -0.310210
vn -0.266490 0.863971 -0.427244
vn -0.201895 -0.926775 -0.316744
vn -0.226782 0.861168 -0.454928
vn -0.170093 -0.925845 -0.337460
vn -0.193019 0.865824 -0.461619
vn -0.145281 -0.928678 -0.341248
vn -0.138031 0.861499 -0.488637
vn -0.103061 -0.926655 -0.361510
vn -0.075859 0.871581 -0.484348
vn -0.058591 -0.933067 -0.354900
vn -0.091529 0.881635 -0.462970
vn -0.065816 -0.940148 -0.334351
vn -0.042852 0.890037 -0.453869
vn -0.030307 -0.944772 -0.326324
vn 0.014419 0.878466 -0.477588
vn 0.010299 -0.938162 -0.346043
vn 0.049302 0.881552 -0.469506
vn 0.037176 -0.939408 -0.340780
vn 0.093947 0.873940 -0.476867
vn 0.069378 -0.935020 -0.347743
vn 0.105373 0.871609 -0.478742
vn 0.080011 -0.932876 -0.351198
vn 0.098748 0.877863 -0.468621
vn 0.077317 -0.937168 -0.340202
vn 0.157042 0.885710 -0.436869
vn 0.123293 -0.940787 -0.315783
vn 0.226319 0.866574 -0.444781
vn 0.170555 -0.928953 -0.328569
vn 0.245485 0.865871 -0.435895
vn 0.187919 -0.927600 -0.322869
vn 0.255024 0.867315 -0.427467
vn 0.195432 -0.928894 -0.314583
vn 0.283192 0.869251 -0.405223
vn 0.219829 -0.929029 -0.297625
vn 0.349899 0.851177 -0.391240
vn 0.268242 -0.916975 -0.295301
vn 0.394302 0.860394 -0.322874
vn 0.303050 -0.922165 -0.240361
vn 0.419546 0.854344 -0.306721
vn 0.322318 -0.918275 -0.229961
vn 0.438845 0.867126 -0.235599
vn 0.334800 -0.926262 -0.173052
vn 0.465378 0.859081 -0.213082
vn 0.355726 -0.921105 -0.158190
vn 0.471473 0.857493 -0.205958
vn 0.363212 -0.919265 -0.151756
vn 0.501744 0.847470 -0.173344
vn 0.387848 -0.912493 -0.130116
vn 0.968350 0.128841 -0.213772
vn 0.969932 0.128082 -0.206949
vn 0.992758 0.119607 -0.011214
vn 0.676633 0.140599 0.722772
vn 0.628827 0.138122 0.765179
vn 0.629613 0.137311 0.764678
vn 0.572236 0.135167 0.808873
vn 0.971589 0.128915 0.198486
vn 0.922796 0.123260 0.365040
vn 0.905882 0.140991 0.399373
vn 0.877167 0.145590 0.457583
vn 0.848249 0.131824 0.512929
vn -0.126613 0.140861 -0.981900
vn -0.083570 0.142196 -0.986304
vn -0.007225 0.139279 -0.990227
vn -0.184958 0.142697 0.972331
vn -0.192308 0.142179 0.970980
vn -0.159708 0.144680 0.976505
vn -0.260002 0.151257 0.953688
vn -0.092156 0.147874 0.984703
vn -0.031033 0.144789 0.988976
vn -0.450294 0.140109 0.881819
vn -0.462411 0.140268 0.875500
vn -0.503202 0.142056 0.852413
vn -0.947574 0.127631 -0.292941
vn -0.923252 0.125250 -0.363206
vn -0.836626 0.136404 -0.530519
vn -0.990468 0.135954 -0.022128
vn -0.966690 0.124409 -0.223682
vn -0.980995 0.126289 0.147306
vn -0.694606 0.132518 -0.707079
vn -0.659888 0.131884 -0.739699
vn -0.540620 0.139703 -0.829586
vn 0.097307 0.153114 0.983406
vn 0.194337 0.146583 0.969921
vn 0.420322 0.139308 -0.896618
vn 0.559349 0.131755 -0.818395
vn 0.594003 0.131907 -0.793575
vn 0.415386 0.140355 -0.898752
vn 0.353679 0.143695 -0.924263
vn 0.323470 0.142843 -0.935395
vn 0.241420 0.147724 -0.959111
vn -0.951330 0.133958 0.277535
vn -0.928195 0.130615 0.348416
vn -0.395172 0.140282 -0.907833
vn -0.346623 0.138932 -0.927659
vn -0.409156 0.140358 -0.901605
vn -0.412910 0.139546 -0.900018
vn -0.465994 0.137214 -0.874084
vn 0.839000 0.132218 -0.527824
vn 0.872401 0.128917 -0.471484
vn 0.736206 0.138796 -0.662372
vn 0.816134 0.130941 -0.562832
vn 0.611520 0.131716 -0.780188
vn 0.500026 0.138914 0.854797
vn 0.430831 0.136685 0.892021
vn 0.365174 0.139433 0.920438
vn 0.263029 0.136315 0.955109
vn -0.737079 0.137874 0.661593
vn -0.779817 0.134388 0.611412
vn -0.643982 0.132425 0.753493
vn -0.849663 0.142146 0.507807
vn -0.886876 0.137190 0.441169
vn -0.221619 0.145223 -0.964259
vn -0.738792 0.129838 -0.661308
vn -0.887968 0.136272 0.439252
vn 0.066965 0.138744 -0.988062
vn 0.027953 0.139758 -0.989791
vn 0.931698 0.136824 -0.336480
vn 0.766448 0.133150 0.628354
vn 0.130453 0.141807 0.981261
vn -0.427958 0.139930 0.892900
vn 0.000000 1.000000 0.000000
vn 0.000000 1.000000 0.000000
vn 0.000000 1.000000 0.000000
vn 0.000000 1.000000 0.000000
vn 0.000000 -1.000000 0.000000
vn 0.000000 -1.000000 0.000000
vn 0.000000 -1.000000 0.000000
vn 0.000000 -1.000000 0.000000
s 1
g propsb_polySurface8216
f 15/1/1 19/2/2 14/3/3
s 2
f 26/4/4 22/8/5 16/9/6 7/13/7
f 14/31/8 19/32/9 20/35/10 9/36/11
f 10/37/12 17/38/13 32/39/14 33/40/15
s 1
f 16/6/16 22/5/17 23/14/18 18/15/19
f 15/1/1 32/12/20 17/11/21
s 3
f 21/16/22 11/17/23 3/18/24
s 4
f 25/41/25 26/4/26 7/13/27 1/42/28
f 3/43/29 9/36/30 20/35/31 21/44/32
f 4/45/33 10/37/34 33/40/35 34/46/36
s 3
f 1/20/37 6/23/38 24/24/39 25/19/40
f 11/17/23 4/21/41 34/22/42
s 5
f 29/10/43 5/53/44 12/54/45 28/55/46
s off
f 1/20/47 7/7/48 16/6/49
s 5
f 10/56/50 4/57/51 17/58/52
f 24/59/53 6/60/54 18/61/55 23/62/56
s off
f 6/23/57 1/20/58 16/6/59 18/15/60
s 5
f 4/57/51 11/63/61 15/64/62 17/58/52
s 1
f 12/27/63 13/29/64 27/30/65 28/28/66
s 2
f 31/47/67 27/48/68 13/49/69 8/50/70
s 4
f 30/51/71 31/47/72 8/50/73 2/52/74
s 3
f 5/26/75 29/25/76 30/33/77 2/34/78
s 1
f 22/5/17 13/29/64 12/27/63 23/14/18
s 5
f 5/53/44 24/59/53 23/62/56 12/54/45
s 3
f 25/19/40 24/24/39 5/26/75 2/34/78
s 4
f 2/52/74 8/50/73 26/4/26 25/41/25
s 2
f 13/49/69 22/8/5 26/4/4 8/50/70
s 1
f 28/28/66 27/30/65 19/2/2 15/1/1
s 5
f 11/63/61 29/10/43 28/55/46 15/64/62
s 3
f 30/33/77 29/25/76 11/17/23 21/16/22
s 4
f 21/44/32 20/35/31 31/47/72 30/51/71
s 2
f 20/35/10 19/32/9 27/48/68 31/47/67
s 1
f 15/1/1 14/3/3 32/12/20
s 2
f 33/40/15 32/39/14 14/31/8 9/36/11
s 4
f 34/46/36 33/40/35 9/36/30 3/43/29
s 3
f 11/17/23 34/22/42 3/18/24
s off
f 35/65/79 38/66/80 42/67/81 46/68/82
f 39/73/83 36/70/84 37/71/85 40/72/86
f 45/79/87 41/76/88 43/77/89 44/78/90
f 38/81/91 39/82/92 41/83/93 42/84/94
f 40/85/95 43/86/96 41/83/97 39/82/98
f 37/87/99 44/88/100 43/89/101 40/90/102
f 36/91/103 45/92/104 44/93/105 37/94/106
f 35/95/107 46/96/108 45/92/109 36/91/110
s 16
f 68/97/111 48/98/112 52/99/113 67/100/114
f 58/101/115 71/102/116 72/103/117 62/104/118
f 74/105/119 51/106/120 61/107/121 73/108/122
f 70/109/123 57/110/124 47/111/125 69/112/126
s off
f 56/113/127 50/114/128 54/115/129 59/116/130
s 18
f 52/99/131 64/117/132 51/118/133
s 16
f 47/119/125 48/98/112 68/97/111 69/120/126
f 52/99/113 51/118/120 74/121/119 67/100/114
f 70/122/123 71/102/116 58/101/115 57/123/124
f 72/103/117 73/124/122 61/125/121 62/104/118
s 18
f 47/119/134 63/126/135 48/98/136
f 48/98/136 63/126/135 64/117/132 52/99/131
f 57/123/137 58/101/138 66/127/139
f 65/128/140 66/127/139 58/101/138 62/104/141
f 61/125/142 65/128/140 62/104/141
f 51/106/133 64/129/132 65/130/140 61/107/142
f 64/131/132 63/132/135 66/133/139 65/134/140
f 57/110/137 66/135/139 63/136/135 47/111/134
s off
f 59/116/143 54/115/144 53/137/145 60/138/146
f 49/139/147 50/114/148 56/113/149 55/140/150
s 16
f 50/141/151 68/97/111 67/100/114 54/142/152
f 69/120/126 68/97/111 50/141/151 49/143/153
f 55/144/154 70/109/123 69/112/126 49/145/153
f 55/146/154 56/147/155 71/102/116 70/122/123
f 72/103/117 71/102/116 56/147/155 59/148/156
f 59/148/156 60/149/157 73/124/122 72/103/117
f 53/150/158 74/105/119 73/108/122 60/151/157
f 67/100/114 74/121/119 53/152/158 54/142/152
s 21
f 75/153/159 76/154/160 84/155/161 83/156/162
f 83/156/162 85/157/163 77/158/164 75/153/159
f 85/157/163 86/159/165 78/160/166 77/158/164
f 86/159/165 87/161/167 79/162/168 78/160/166
f 87/163/167 88/164/169 80/165/170 79/166/168
f 88/164/169 89/167/171 81/168/172 80/165/170
f 89/167/171 90/169/173 82/170/174 81/168/172
f 90/169/173 84/171/161 76/172/160 82/170/174
s 22
f 93/173/175 109/174/176 91/175/177
s 23
f 106/176/178 92/177/179 91/175/180
s 22
f 94/178/181 93/173/175 91/175/177
s 24
f 107/179/182 97/180/183 91/175/184
s 22
f 98/181/185 99/182/186 91/175/177
s 23
f 96/183/187 101/184/188 91/175/180
s 22
f 102/185/189 103/186/190 91/175/177
f 91/175/177 99/182/186 108/187/191
f 104/188/192 100/189/193 91/175/177
f 109/174/176 105/190/194 91/175/177
f 105/190/194 102/185/189 91/175/177
f 108/187/191 107/179/195 91/175/177
f 95/191/196 104/188/192 91/175/177
f 100/189/193 98/181/185 91/175/177
f 91/175/177 103/186/190 95/191/196
f 92/177/197 94/178/181 91/175/177
s 23
f 101/184/188 106/176/178 91/175/180
s 24
f 97/180/183 96/183/198 91/175/184
s 25
f 112/192/199 110/193/200 128/194/201
s 26
f 125/195/202 110/193/203 111/196/204
s 25
f 113/197/205 110/193/200 112/192/199
s 27
f 126/198/206 110/193/207 116/199/208
s 25
f 117/200/209 110/193/200 118/201/210
s 26
f 115/202/211 110/193/203 120/203/212
s 25
f 121/204/213 110/193/200 122/205/214
f 110/193/200 127/206/215 118/201/210
f 123/207/216 110/193/200 119/208/217
f 128/194/201 110/193/200 124/209/218
f 124/209/218 110/193/200 121/204/213
f 127/206/215 110/193/200 126/198/219
f 114/210/220 110/193/200 123/207/216
f 119/208/217 110/193/200 117/200/209
f 110/193/200 114/210/220 122/205/214
f 111/196/221 110/193/200 113/197/205
s 26
f 120/203/212 110/193/203 125/195/202
s 27
f 116/199/208 110/193/207 115/202/222
s 28
f 230/211/223 243/212/224 189/213/225 136/214/226
f 229/215/227 230/211/223 136/214/226 188/216/228
f 228/217/229 229/215/227 188/216/228 158/218/230
f 226/219/231 228/217/229 158/218/230 196/220/232
f 225/221/233 226/219/231 196/220/232 187/222/234
f 227/223/235 225/221/233 187/222/234 143/224/236
f 265/225/237 227/223/235 143/224/236 186/226/238
f 232/227/239 265/225/237 186/226/238 157/228/240
f 231/229/241 232/227/239 157/228/240 185/230/242
f 233/231/243 231/229/241 185/230/242 135/232/244
f 249/233/245 233/231/243 135/232/244 184/234/246
f 248/235/247 249/233/245 184/234/246 195/236/248
f 247/237/249 248/235/247 195/236/248 156/238/250
f 246/239/251 247/237/249 156/238/250 183/240/252
f 245/241/253 246/239/251 183/240/252 142/242/254
f 264/243/255 245/241/253 142/242/254 182/244/256
f 214/245/257 264/243/255 182/244/256 155/246/258
f 213/247/259 214/245/257 155/246/258 181/248/260
f 215/249/261 213/247/259 181/248/260 134/250/262
f 268/251/263 215/249/261 134/250/262 194/252/264
f 267/253/265 268/251/263 194/252/264 180/254/266
f 242/255/267 267/253/265 180/254/266 154/256/268
f 241/257/269 242/255/267 154/256/268 179/258/270
f 240/259/271 241/257/269 179/258/270 141/260/272
f 239/261/273 240/259/271 141/260/272 178/262/274
f 237/263/275 239/261/273 178/262/274 153/264/276
f 236/265/277 237/263/275 153/264/276 177/266/278
f 238/267/279 236/265/277 177/266/278 133/268/280
f 254/269/281 238/267/279 133/268/280 176/270/282
f 253/271/283 254/269/281 176/270/282 152/272/284
f 252/273/285 253/271/283 152/272/284 175/274/286
f 251/275/287 252/273/285 175/274/286 193/276/288
f 250/277/289 251/275/287 193/276/288 140/278/290
f 269/279/291 250/277/289 140/278/290 174/280/292
f 202/281/293 269/279/291 174/280/292 151/282/294
f 201/283/295 202/281/293 151/282/294 173/284/296
f 203/285/297 201/283/295 173/284/296 132/286/298
f 209/287/299 203/285/297 132/286/298 172/288/300
f 208/289/301 209/287/299 172/288/300 150/290/302
f 212/291/303 208/289/301 150/290/302 200/292/304
f 211/293/305 212/291/303 200/292/304 171/294/306
f 210/295/307 211/293/305 171/294/306 139/296/308
f 270/297/309 210/295/307 139/296/308 170/298/310
f 205/299/311 270/297/309 170/298/310 149/300/312
f 204/301/313 205/299/311 149/300/312 169/302/314
f 207/303/315 204/301/313 169/302/314 199/304/316
f 206/305/317 207/303/315 199/304/316 131/306/318
f 256/307/319 206/305/317 131/306/318 168/308/320
f 255/309/321 256/307/319 168/308/320 148/310/322
f 258/311/323 255/309/321 148/310/322 167/312/324
f 257/313/325 258/311/323 167/312/324 138/314/326
f 271/315/327 257/313/325 138/314/326 166/316/328
f 235/317/329 271/315/327 166/316/328 147/318/330
f 234/319/331 235/317/329 147/318/330 165/320/332
f 221/321/333 234/319/331 165/320/332 130/322/334
f 220/323/335 221/321/333 130/322/334 164/324/336
f 217/325/337 220/323/335 164/324/336 146/326/338
f 216/327/339 217/325/337 146/326/338 198/328/340
f 219/329/341 216/327/339 198/328/340 163/330/342
f 218/331/343 219/329/341 163/330/342 137/332/344
f 272/333/345 218/331/343 137/332/344 162/334/346
f 223/335/347 272/333/345 162/334/346 145/336/348
f 222/337/349 223/335/347 145/336/348 161/338/350
f 224/339/351 222/337/349 161/338/350 129/340/352
f 261/341/353 224/339/351 129/340/352 192/342/354
f 260/343/355 261/341/353 192/342/354 197/344/356
f 259/345/357 260/343/355 197/344/356 160/346/358
f 263/347/359 259/345/357 160/346/358 191/348/360
f 262/349/361 263/347/359 191/348/360 144/350/362
f 266/351/363 262/349/361 144/350/362 190/352/364
f 244/353/365 266/351/363 190/352/364 159/354/366
f 189/213/225 243/212/224 244/353/365 159/354/366
f 173/355/296 151/356/294 308/357/367 309/358/368
f 132/359/298 173/355/296 309/358/368 310/360/369
f 169/361/314 149/362/312 317/363/370 318/364/371
f 131/365/318 199/366/316 319/367/372 320/368/373
f 150/369/302 172/370/300 311/371/374 312/372/375
f 172/370/300 132/359/298 310/360/369 311/371/374
f 139/373/308 171/374/306 314/375/376 315/376/377
f 200/377/304 150/369/302 312/372/375 313/378/378
f 181/379/260 155/380/258 290/381/379 291/382/380
f 134/383/262 181/379/260 291/382/380 292/384/381
f 198/385/340 146/386/338 330/387/382 331/388/383
f 137/389/344 163/390/342 332/391/384 333/392/385
f 146/386/338 164/393/336 329/394/386 330/387/382
f 164/393/336 130/395/334 328/396/387 329/394/386
f 161/397/350 145/398/348 335/399/388 336/400/389
f 129/401/352 161/397/350 336/400/389 337/402/390
f 187/403/234 196/404/232 277/405/391 278/406/392
f 143/407/236 187/403/234 278/406/392 279/408/393
f 158/409/230 188/410/228 275/411/394 276/412/395
f 188/410/228 136/413/226 274/414/396 275/411/394
f 185/415/242 157/416/240 281/417/397 282/418/398
f 135/419/244 185/415/242 282/418/398 283/420/399
f 130/395/334 165/421/332 327/422/400 328/396/387
f 165/421/332 147/423/330 326/424/401 327/422/400
f 177/425/278 153/426/276 299/427/402 300/428/403
f 133/429/280 177/425/278 300/428/403 301/430/404
f 153/426/276 178/431/274 298/432/405 299/427/402
f 178/431/274 141/433/272 297/434/406 298/432/405
f 141/433/272 179/435/270 296/436/407 297/434/406
f 179/435/270 154/437/268 295/438/408 296/436/407
f 136/413/226 189/439/225 273/440/409 274/414/396
f 189/439/225 159/441/366 344/442/410 273/440/409
f 142/443/254 183/444/252 287/445/411 288/446/412
f 183/444/252 156/447/250 286/448/413 287/445/411
f 156/447/250 195/449/248 285/450/414 286/448/413
f 184/451/246 135/419/244 283/420/399 284/452/415
f 140/453/290 193/454/288 305/455/416 306/456/417
f 175/457/286 152/458/284 303/459/418 304/460/419
f 152/458/284 176/461/282 302/462/420 303/459/418
f 176/461/282 133/429/280 301/430/404 302/462/420
f 148/463/322 168/464/320 321/465/421 322/466/422
f 168/464/320 131/365/318 320/368/373 321/465/421
f 138/467/326 167/468/324 323/469/423 324/470/424
f 167/468/324 148/463/322 322/466/422 323/469/423
f 160/471/358 197/472/356 339/473/425 340/474/426
f 192/475/354 129/401/352 337/402/390 338/476/427
f 144/477/362 191/478/360 341/479/428 342/480/429
f 191/478/360 160/471/358 340/474/426 341/479/428
f 155/380/258 182/481/256 289/482/430 290/381/379
f 182/481/256 142/443/254 288/446/412 289/482/430
f 157/416/240 186/483/238 280/484/431 281/417/397
f 186/483/238 143/407/236 279/408/393 280/484/431
f 159/441/366 190/485/364 343/486/432 344/442/410
f 190/485/364 144/477/362 342/480/429 343/486/432
f 154/437/268 180/487/266 294/488/433 295/438/408
f 180/487/266 194/489/264 293/490/434 294/488/433
f 151/356/294 174/491/292 307/492/435 308/357/367
f 174/491/292 140/453/290 306/456/417 307/492/435
f 149/362/312 170/493/310 316/494/436 317/363/370
f 170/493/310 139/373/308 315/376/377 316/494/436
f 147/423/330 166/495/328 325/496/437 326/424/401
f 166/495/328 138/467/326 324/470/424 325/496/437
f 145/398/348 162/497/346 334/498/438 335/399/388
f 162/497/346 137/389/344 333/392/385 334/498/438
f 193/454/288 175/457/286 304/460/419 305/455/416
f 194/489/264 134/383/262 292/384/381 293/490/434
f 195/449/248 184/451/246 284/452/415 285/450/414
f 196/404/232 158/409/230 276/412/395 277/405/391
f 197/472/356 192/475/354 338/476/427 339/473/425
f 163/390/342 198/385/340 331/388/383 332/391/384
f 199/366/316 169/361/314 318/364/371 319/367/372
f 171/374/306 200/377/304 313/378/378 314/375/376
f 274/414/396 273/440/409 243/499/224 230/500/223
f 275/411/394 274/414/396 230/500/223 229/501/227
f 276/412/395 275/411/394 229/501/227 228/502/229
f 277/405/391 276/412/395 228/502/229 226/503/231
f 278/406/392 277/405/391 226/503/231 225/504/233
f 279/408/393 278/406/392 225/504/233 227/505/235
f 280/484/431 279/408/393 227/505/235 265/506/237
f 281/417/397 280/484/431 265/506/237 232/507/239
f 282/418/398 281/417/397 232/507/239 231/508/241
f 283/420/399 282/418/398 231/508/241 233/509/243
f 284/452/415 283/420/399 233/509/243 249/510/245
f 285/450/414 284/452/415 249/510/245 248/511/247
f 286/448/413 285/450/414 248/511/247 247/512/249
f 287/445/411 286/448/413 247/512/249 246/513/251
f 288/446/412 287/445/411 246/513/251 245/514/253
f 289/482/430 288/446/412 245/514/253 264/515/255
f 290/381/379 289/482/430 264/515/255 214/516/257
f 291/382/380 290/381/379 214/516/257 213/517/259
f 292/384/381 291/382/380 213/517/259 215/518/261
f 293/490/434 292/384/381 215/518/261 268/519/263
f 294/488/433 293/490/434 268/519/263 267/520/265
f 295/438/408 294/488/433 267/520/265 242/521/267
f 296/436/407 295/438/408 242/521/267 241/522/269
f 297/434/406 296/436/407 241/522/269 240/523/271
f 298/432/405 297/434/406 240/523/271 239/524/273
f 299/427/402 298/432/405 239/524/273 237/525/275
f 300/428/403 299/427/402 237/525/275 236/526/277
f 301/430/404 300/428/403 236/526/277 238/527/279
f 302/462/420 301/430/404 238/527/279 254/528/281
f 303/459/418 302/462/420 254/528/281 253/529/283
f 304/460/419 303/459/418 253/529/283 252/530/285
f 305/455/416 304/460/419 252/530/285 251/531/287
f 306/456/417 305/455/416 251/531/287 250/532/289
f 307/492/435 306/456/417 250/532/289 269/533/291
f 308/357/367 307/492/435 269/533/291 202/534/293
f 309/358/368 308/357/367 202/534/293 201/535/295
f 310/360/369 309/358/368 201/535/295 203/536/297
f 311/371/374 310/360/369 203/536/297 209/537/299
f 312/372/375 311/371/374 209/537/299 208/538/301
f 313/378/378 312/372/375 208/538/301 212/539/303
f 314/375/376 313/378/378 212/539/303 211/540/305
f 315/376/377 314/375/376 211/540/305 210/541/307
f 316/494/436 315/376/377 210/541/307 270/542/309
f 317/363/370 316/494/436 270/542/309 205/543/311
f 318/364/371 317/363/370 205/543/311 204/544/313
f 319/367/372 318/364/371 204/544/313 207/545/315
f 320/368/373 319/367/372 207/545/315 206/546/317
f 321/465/421 320/368/373 206/546/317 256/547/319
f 322/466/422 321/465/421 256/547/319 255/548/321
f 323/469/423 322/466/422 255/548/321 258/549/323
f 324/470/424 323/469/423 258/549/323 257/550/325
f 325/496/437 324/470/424 257/550/325 271/551/327
f 326/424/401 325/496/437 271/551/327 235/552/329
f 327/422/400 326/424/401 235/552/329 234/553/331
f 328/396/387 327/422/400 234/553/331 221/554/333
f 329/394/386 328/396/387 221/554/333 220/555/335
f 330/387/382 329/394/386 220/555/335 217/556/337
f 331/388/383 330/387/382 217/556/337 216/557/339
f 332/391/384 331/388/383 216/557/339 219/558/341
f 333/392/385 332/391/384 219/558/341 218/559/343
f 334/498/438 333/392/385 218/559/343 272/560/345
f 335/399/388 334/498/438 272/560/345 223/561/347
f 336/400/389 335/399/388 223/561/347 222/562/349
f 337/402/390 336/400/389 222/562/349 224/563/351
f 338/476/427 337/402/390 224/563/351 261/564/353
f 339/473/425 338/476/427 261/564/353 260/565/355
f 340/474/426 339/473/425 260/565/355 259/566/357
f 341/479/428 340/474/426 259/566/357 263/567/359
f 342/480/429 341/479/428 263/567/359 262/568/361
f 343/486/432 342/480/429 262/568/361 266/569/363
f 344/442/410 343/486/432 266/569/363 244/570/365
f 273/440/409 344/442/410 244/570/365 243/499/224
s off
f 35/69/439 36/70/440 39/73/441 38/74/442
f 42/75/443 41/76/444 45/79/445 46/80/446
