# This file uses centimeters as units for non-parametric coordinates.

g default
v 0.012300 -0.052121 -0.007989
v -0.007841 -0.052121 -0.007989
v 0.019969 -0.052121 -0.003757
v 0.019970 -0.052121 0.004709
v 0.012300 -0.052121 0.008941
v -0.007841 -0.052121 0.008941
v -0.019363 -0.052121 0.004708
v -0.019363 -0.052121 -0.003757
v 0.013317 0.148835 -0.008706
v -0.008530 0.148835 -0.008707
v 0.021634 0.148835 -0.004116
v 0.021635 0.148835 0.005067
v 0.013317 0.148835 0.009658
v -0.008531 0.148835 0.009658
v -0.021029 0.148835 0.005067
v -0.021030 0.148835 -0.004116
v -0.007841 -0.116358 -0.007989
v -0.019363 -0.116358 -0.003757
v -0.019363 -0.116358 0.004708
v -0.007841 -0.116358 0.008941
v 0.012300 -0.116358 0.008941
v 0.019970 -0.116358 0.004709
v 0.019969 -0.116358 -0.003757
v 0.012300 -0.116358 -0.007989
v 0.022694 -0.118654 -0.004554
v 0.013956 -0.118654 -0.009584
v 0.022694 -0.112925 -0.004554
v 0.013956 -0.112925 -0.009584
v -0.022121 -0.118654 -0.004554
v -0.008991 -0.118654 -0.009584
v -0.022121 -0.112925 -0.004554
v -0.008991 -0.112925 -0.009584
v 0.022694 -0.112925 0.005506
v 0.013956 -0.112925 0.010535
v 0.022694 -0.118654 0.005506
v 0.013956 -0.118654 0.010535
v -0.008991 -0.112925 0.010535
v -0.022121 -0.112925 0.005506
v -0.022121 -0.118654 0.005506
v -0.008991 -0.118654 0.010535
v 0.013956 -0.120737 -0.004554
v -0.008991 -0.120737 -0.004554
v -0.008991 -0.120737 0.005506
v 0.013956 -0.120737 0.005506
v -0.007274 0.147904 0.006448
v -0.001806 0.627675 0.006448
v 0.021514 0.946349 0.006448
v 0.048823 0.979594 0.006448
v 0.026506 0.629702 0.006448
v 0.021039 0.147908 0.006448
v -0.020582 0.147904 0.000476
v -0.015087 0.628551 0.000476
v 0.010844 0.958844 0.000476
v 0.053043 1.014271 0.000476
v 0.043529 0.922754 0.006448
v 0.026506 0.629702 -0.005497
v -0.001806 0.627675 -0.005497
v 0.021514 0.946349 -0.005497
v 0.043529 0.922754 -0.005497
v -0.007274 0.147904 -0.005497
v 0.048823 0.979594 -0.005497
v 0.021039 0.147908 -0.005497
v 0.014130 0.928736 -0.005497
v 0.002740 0.930670 0.000476
v 0.014437 0.928798 0.006448
v -0.006322 0.453820 -0.005497
v 0.021991 0.454172 -0.005497
v 0.021991 0.454172 0.006448
v -0.006322 0.453820 0.006448
v -0.019618 0.454332 0.000476
v 0.004379 0.783091 -0.005497
v 0.033234 0.781114 -0.005497
v 0.033234 0.781114 0.006448
v 0.004531 0.783123 0.006448
v -0.007957 0.784497 0.000476
v 0.033715 0.970253 -0.005497
v 0.029881 0.992952 0.000476
v 0.033715 0.970253 0.006448
v -0.007186 0.294244 -0.005497
v 0.021126 0.294280 -0.005497
v 0.021126 0.294280 0.006448
v -0.007186 0.294244 0.006448
v -0.020494 0.294291 0.000476
v 0.022163 0.171772 -0.006748
v 0.001175 0.171772 -0.010819
v -0.022221 0.171772 -0.002549
v 0.022163 0.171772 0.007699
v 0.001175 0.171772 0.011771
v -0.022221 0.171772 0.003500
v 0.001212 0.149654 0.011666
v 0.022005 0.149654 0.007632
v -0.022062 0.149654 0.003472
v -0.022062 0.149654 -0.002522
v 0.001212 0.149654 -0.010714
v 0.022005 0.149654 -0.006680
v 0.000574 0.149788 0.000167
v 0.034247 0.149788 0.026563
v 0.051267 0.149788 0.003215
v 0.045780 0.149788 0.015542
v -0.004286 0.149788 -0.037712
v -0.012844 0.149788 0.036748
v -0.028135 0.149788 0.032269
v -0.047528 0.149788 -0.014768
v -0.051268 0.149788 -0.002798
v -0.036934 0.149788 -0.025564
v 0.003212 0.149788 0.038123
v 0.029434 0.149788 -0.031562
v 0.013286 0.149788 -0.037576
v -0.021540 0.149788 -0.033290
v 0.042860 0.149788 -0.021654
v 0.020065 0.149788 0.034542
v -0.041216 0.149788 0.022747
v -0.047972 0.149788 0.011397
v 0.049692 0.149788 -0.010714
v 0.000574 0.149569 0.000167
v 0.034247 0.149569 0.026563
v 0.051267 0.149569 0.003215
v 0.045780 0.149569 0.015542
v -0.004286 0.149569 -0.037712
v -0.012844 0.149569 0.036748
v -0.028135 0.149569 0.032269
v -0.047528 0.149569 -0.014768
v -0.051268 0.149569 -0.002798
v -0.036934 0.149569 -0.025564
v 0.003212 0.149569 0.038123
v 0.029434 0.149569 -0.031562
v 0.013286 0.149569 -0.037576
v -0.021540 0.149569 -0.033290
v 0.042860 0.149569 -0.021654
v 0.020065 0.149569 0.034542
v -0.041216 0.149569 0.022747
v -0.047972 0.149569 0.011397
v 0.049692 0.149569 -0.010714
v -0.034253 0.147631 0.027490
v -0.000822 0.147631 0.035683
v 0.029790 0.147631 0.027429
v 0.049601 0.147631 0.000164
v 0.035864 0.147631 -0.025974
v -0.000584 0.147631 -0.035973
v -0.036079 0.147631 -0.024972
v -0.048717 0.147631 0.000350
v -0.020002 0.147631 0.035072
v 0.014715 0.147631 0.034150
v 0.044722 0.147631 0.015182
v 0.045734 0.147631 -0.013369
v 0.021026 0.147631 -0.034173
v -0.016552 0.147631 -0.033009
v -0.046429 0.147631 -0.014427
v -0.044125 0.147631 0.013605
v -0.027484 0.147631 0.031522
v -0.008438 0.147631 0.035369
v 0.006517 0.147631 0.035082
v 0.022469 0.147631 0.031378
v 0.039209 0.147631 0.021708
v 0.048111 0.147631 0.006437
v 0.048111 0.147631 -0.006626
v 0.041867 0.147631 -0.021153
v 0.028753 0.147631 -0.030832
v 0.012978 0.147631 -0.036706
v -0.008338 0.147631 -0.035042
v -0.024256 0.147631 -0.029629
v -0.041498 0.147631 -0.019977
v -0.048672 0.147631 -0.005508
v -0.046990 0.147631 0.007091
v -0.041365 0.147631 0.018875
v -0.030466 0.147631 0.028165
v -0.022967 0.147631 0.032155
v -0.015312 0.147631 0.034246
v -0.005287 0.147631 0.037129
v 0.003138 0.147631 0.037241
v 0.011175 0.147631 0.035906
v 0.019602 0.147631 0.033742
v 0.027359 0.147631 0.030272
v 0.034975 0.147631 0.023451
v 0.040731 0.147631 0.018016
v 0.044584 0.147631 0.011978
v 0.050079 0.147631 0.003140
v 0.050079 0.147631 -0.003300
v 0.048542 0.147631 -0.010466
v 0.042769 0.147631 -0.018166
v 0.038332 0.147631 -0.022903
v 0.031715 0.147631 -0.027801
v 0.023842 0.147631 -0.031456
v 0.016102 0.147631 -0.034162
v 0.008387 0.147631 -0.035922
v -0.004186 0.147631 -0.036839
v -0.012772 0.147631 -0.035679
v -0.021041 0.147631 -0.032520
v -0.031393 0.147631 -0.026203
v -0.038288 0.147631 -0.021799
v -0.043240 0.147631 -0.016761
v -0.046885 0.147631 -0.010973
v -0.050081 0.147631 -0.002733
v -0.049232 0.147631 0.004187
v -0.046864 0.147631 0.011133
v -0.043940 0.147631 0.017135
v -0.036613 0.147631 0.024090
v 0.045162 0.147631 -0.016224
v 0.004358 0.147631 -0.037241
v -0.028399 0.147631 -0.029014
v -0.048742 0.147631 -0.008294
v -0.040262 0.147631 0.022221
v -0.012547 0.147631 0.035898
v 0.033457 0.147631 0.025948
v 0.047511 0.147631 0.009320
v 0.050011 0.151077 -0.003295
v 0.048044 0.151077 -0.006617
v 0.049532 0.151077 0.000163
v 0.034927 0.151077 0.023418
v 0.039156 0.151077 0.021679
v 0.029748 0.151077 0.027391
v 0.033411 0.151077 0.025913
v 0.048044 0.151077 0.006428
v 0.050011 0.151077 0.003136
v 0.044660 0.151077 0.015161
v 0.044523 0.151077 0.011961
v 0.047446 0.151077 0.009307
v -0.004181 0.151077 -0.036788
v -0.008326 0.151077 -0.034994
v -0.000582 0.151077 -0.035923
v -0.012530 0.151077 0.035849
v -0.008426 0.151077 0.035320
v -0.019974 0.151077 0.035024
v -0.015293 0.151077 0.034199
v -0.005281 0.151077 0.037078
v -0.000820 0.151077 0.035634
v -0.030422 0.151077 0.028126
v -0.027447 0.151077 0.031479
v -0.034206 0.151077 0.027452
v -0.046821 0.151077 -0.010958
v -0.048676 0.151077 -0.008283
v -0.046364 0.151077 -0.014407
v -0.048603 0.151077 -0.005500
v -0.050014 0.151077 -0.002729
v -0.048650 0.151077 0.000350
v -0.038236 0.151077 -0.021769
v -0.041439 0.151077 -0.019949
v -0.036030 0.151077 -0.024938
v 0.003134 0.151077 0.037189
v 0.006509 0.151077 0.035034
v 0.031673 0.151077 -0.027763
v 0.028713 0.151077 -0.030790
v 0.035814 0.151077 -0.025939
v 0.023808 0.151077 -0.031412
v 0.020998 0.151077 -0.034125
v 0.016079 0.151077 -0.034115
v 0.012960 0.151077 -0.036656
v -0.049166 0.151077 0.004181
v -0.046926 0.151077 0.007081
v -0.016529 0.151077 -0.032963
v -0.021011 0.151077 -0.032475
v -0.024221 0.151077 -0.029588
v -0.028360 0.151077 -0.028974
v -0.031351 0.151077 -0.026167
v 0.045672 0.151077 -0.013351
v 0.045099 0.151077 -0.016202
v 0.042711 0.151077 -0.018141
v 0.041809 0.151077 -0.021124
v 0.038280 0.151077 -0.022872
v 0.022438 0.151077 0.031334
v 0.027320 0.151077 0.030231
v 0.014694 0.151077 0.034103
v 0.019573 0.151077 0.033696
v -0.041307 0.151077 0.018849
v -0.040207 0.151077 0.022191
v -0.036562 0.151077 0.024057
v -0.044065 0.151077 0.013586
v -0.043879 0.151077 0.017111
v -0.012755 0.151077 -0.035630
v -0.043180 0.151077 -0.016738
v -0.046799 0.151077 0.011118
v 0.008375 0.151077 -0.035872
v 0.004353 0.151077 -0.037189
v 0.048475 0.151077 -0.010452
v 0.040676 0.151077 0.017991
v 0.011159 0.151077 0.035856
v -0.022936 0.151077 0.032111
v -0.052279 0.149814 0.004446
v -0.051730 0.149814 0.000372
v -0.053179 0.149814 -0.002903
v -0.051681 0.149814 -0.005849
v -0.051756 0.149814 -0.008807
v -0.049785 0.149814 -0.011652
v -0.049299 0.149814 -0.015319
v -0.045914 0.149814 -0.017798
v -0.044064 0.149814 -0.021212
v -0.040656 0.149814 -0.023147
v -0.038311 0.149814 -0.026517
v -0.033335 0.149814 -0.027824
v -0.030157 0.149814 -0.030808
v -0.025757 0.149814 -0.031461
v -0.022343 0.149814 -0.034531
v -0.017576 0.149814 -0.035051
v -0.013562 0.149814 -0.037885
v -0.008853 0.149814 -0.037209
v -0.004446 0.149814 -0.039118
v -0.000618 0.149814 -0.038197
v 0.004629 0.149814 -0.039544
v 0.008905 0.149814 -0.038143
v 0.013781 0.149814 -0.038977
v 0.017097 0.149814 -0.036275
v 0.022327 0.149814 -0.036286
v 0.025317 0.149814 -0.033401
v 0.030531 0.149814 -0.032739
v 0.033678 0.149814 -0.029521
v 0.038082 0.149814 -0.027581
v 0.040703 0.149814 -0.024320
v 0.044456 0.149814 -0.022461
v 0.045416 0.149814 -0.019289
v 0.047956 0.149814 -0.017228
v 0.048563 0.149814 -0.014196
v 0.051545 0.149814 -0.011114
v 0.051087 0.149814 -0.007036
v 0.053178 0.149814 -0.003504
v 0.052670 0.149814 0.000174
v 0.053178 0.149814 0.003335
v 0.051087 0.149814 0.006835
v 0.050450 0.149814 0.009896
v 0.047342 0.149814 0.012719
v 0.047487 0.149814 0.016121
v 0.043252 0.149814 0.019130
v 0.041635 0.149814 0.023051
v 0.037140 0.149814 0.024901
v 0.035524 0.149814 0.027553
v 0.031631 0.149814 0.029125
v 0.029051 0.149814 0.032145
v 0.023859 0.149814 0.033319
v 0.020813 0.149814 0.035830
v 0.015625 0.149814 0.036262
v 0.011866 0.149814 0.038126
v 0.006922 0.149814 0.037252
v 0.003332 0.149814 0.039544
v -0.000874 0.149814 0.037890
v -0.005615 0.149814 0.039426
v -0.008959 0.149814 0.037557
v -0.013323 0.149814 0.038118
v -0.016260 0.149814 0.036365
v -0.021238 0.149814 0.037241
v -0.024387 0.149814 0.034144
v -0.029183 0.149814 0.033472
v -0.032350 0.149814 0.029907
v -0.036371 0.149814 0.029191
v -0.038876 0.149814 0.025580
v -0.042752 0.149814 0.023596
v -0.043923 0.149814 0.020043
v -0.046656 0.149814 0.018195
v -0.046856 0.149814 0.014446
v -0.049760 0.149814 0.011822
v -0.049896 0.149814 0.007529
vt 0.073353 0.297025
vt 0.121456 0.297025
vt 0.121456 0.433093
vt 0.073353 0.433093
vt 0.056659 0.433093
vt 0.056659 0.297025
vt 0.038972 0.433093
vt 0.038972 0.297025
vt 0.022278 0.433094
vt 0.022278 0.297026
vt 0.240424 0.433094
vt 0.202471 0.433093
vt 0.202471 0.297025
vt 0.240424 0.297026
vt 0.170807 0.433093
vt 0.170807 0.297025
vt 0.149410 0.433094
vt 0.149410 0.297026
vt 0.121456 0.433093
vt 0.121456 0.297025
vt 0.073353 0.007420
vt 0.121456 0.007420
vt 0.121456 0.436064
vt 0.073353 0.436064
vt 0.056659 0.436064
vt 0.056659 0.007420
vt 0.038972 0.436064
vt 0.038972 0.007420
vt 0.022278 0.436064
vt 0.022278 0.007421
vt 0.240424 0.436064
vt 0.202471 0.436064
vt 0.202471 0.007420
vt 0.240424 0.007421
vt 0.170807 0.436064
vt 0.170807 0.007420
vt 0.149410 0.436064
vt 0.149410 0.007421
vt 0.121456 0.436064
vt 0.121456 0.007420
vt 0.414304 0.250000
vt 0.414304 -0.000000
vt 0.585696 0.000000
vt 0.585696 0.250000
vt 0.414304 0.750000
vt 0.414304 0.500000
vt 0.585696 0.500000
vt 0.585696 0.750000
vt 0.687494 0.250000
vt 0.687494 0.000000
vt 0.812506 0.000000
vt 0.812506 0.250000
vt 0.187494 0.250000
vt 0.187494 0.000000
vt 0.312506 0.000000
vt 0.312506 0.250000
vt 0.585696 1.000000
vt 0.585696 0.937505
vt 0.625000 0.937506
vt 0.375000 0.000000
vt 0.375000 0.250000
vt 0.625000 0.000000
vt 0.625000 0.250000
vt 0.375000 0.500000
vt 0.375000 0.750000
vt 0.625000 0.500000
vt 0.625000 0.750000
vt 0.375000 0.937506
vt 0.414304 0.937505
vt 0.414304 1.000000
vt 0.375000 0.812494
vt 0.414304 0.812492
vt 0.585696 0.812492
vt 0.625000 0.812494
vt 0.625000 0.312494
vt 0.625000 0.437506
vt 0.375000 0.312494
vt 0.375000 0.437506
vt 0.140752 0.513301
vt 0.221668 0.521988
vt 0.201344 0.547566
vt 0.780832 0.724728
vt 0.751725 0.724795
vt 0.751497 0.909759
vt 0.780606 0.909760
vt 0.742211 0.713024
vt 0.751423 0.775435
vt 0.776334 0.775435
vt 0.786396 0.713024
vt 0.796940 0.565000
vt 0.732872 0.565000
vt 0.737941 0.641783
vt 0.793753 0.641783
vt 0.267206 0.753144
vt 0.266967 0.522608
vt 0.189037 0.522660
vt 0.189276 0.753150
vt 0.167762 0.582280
vt 0.126177 0.595843
vt 0.220826 0.522079
vt 0.140752 0.513301
vt 0.201344 0.547566
vt 0.751725 0.724795
vt 0.751497 0.909759
vt 0.742211 0.713024
vt 0.750754 0.775435
vt 0.732872 0.565000
vt 0.737941 0.641783
vt 0.267206 0.753144
vt 0.189276 0.753150
vt 0.189037 0.522660
vt 0.266967 0.522608
vt 0.126177 0.595843
vt 0.167763 0.582280
vt 0.445972 0.757692
vt 0.445972 0.963382
vt 0.411375 0.963382
vt 0.411375 0.757692
vt 0.303837 0.753144
vt 0.428673 0.683824
vt 0.445972 0.633465
vt 0.411375 0.633465
vt 0.445972 0.533439
vt 0.445972 0.512644
vt 0.411375 0.512644
vt 0.411375 0.533439
vt 0.445972 0.550922
vt 0.411375 0.550922
vt 0.187602 0.963965
vt 0.265532 0.966909
vt 0.248507 0.755404
vt 0.169084 0.758275
vt 0.775011 0.986940
vt 0.748030 0.986940
vt 0.750964 0.729034
vt 0.780014 0.729034
vt 0.747695 0.986940
vt 0.750964 0.729034
vt 0.187602 0.963965
vt 0.169084 0.758275
vt 0.248086 0.755359
vt 0.265532 0.966909
vt 0.264589 0.728675
vt 0.186659 0.729187
vt 0.445972 0.739968
vt 0.411375 0.739968
vt 0.264589 0.728675
vt 0.186659 0.729187
vt 0.783068 0.517985
vt 0.753987 0.518728
vt 0.753987 0.518728
vt 0.767896 0.331181
vt 0.716874 0.331181
vt 0.717112 0.253068
vt 0.767658 0.253068
vt 0.571200 0.251898
vt 0.556819 0.177770
vt 0.586027 0.095144
vt 0.607395 0.095144
vt 0.636603 0.177770
vt 0.622222 0.251898
vt 0.783942 0.408704
vt 0.769694 0.335267
vt 0.798630 0.253068
vt 0.819799 0.253068
vt 0.848735 0.335267
vt 0.834488 0.408704
vt 0.638558 0.251898
vt 0.638558 0.177770
vt 0.716671 0.177902
vt 0.716671 0.251339
vt 0.638558 0.095144
vt 0.716671 0.095703
vt 0.693708 0.331181
vt 0.693808 0.253068
vt 0.714977 0.253068
vt 0.715076 0.331181
vt 0.796640 0.177770
vt 0.718527 0.177902
vt 0.718527 0.095703
vt 0.796640 0.095144
vt 0.796640 0.251898
vt 0.718527 0.251339
vt 0.398354 0.385338
vt 0.354875 0.377525
vt 0.391637 0.210803
vt 0.501309 0.285518
vt 0.475770 0.339467
vt 0.440423 0.372213
vt 0.469725 0.064851
vt 0.496473 0.109735
vt 0.347250 0.043055
vt 0.387914 0.029893
vt 0.513813 0.167811
vt 0.514551 0.227806
vt 0.287871 0.304053
vt 0.273236 0.245353
vt 0.431874 0.039148
vt 0.284958 0.124424
vt 0.308121 0.078434
vt 0.317829 0.349438
vt 0.271236 0.188867
vt 0.398354 0.385338
vt 0.391637 0.210803
vt 0.354875 0.377525
vt 0.501309 0.285518
vt 0.475770 0.339467
vt 0.440423 0.372213
vt 0.469725 0.064851
vt 0.496473 0.109735
vt 0.347250 0.043055
vt 0.387914 0.029893
vt 0.513813 0.167811
vt 0.514551 0.227806
vt 0.287871 0.304053
vt 0.273236 0.245353
vt 0.431874 0.039148
vt 0.284958 0.124424
vt 0.308121 0.078434
vt 0.317829 0.349438
vt 0.271236 0.188867
vt 0.399384 0.032237
vt 0.411336 0.031336
vt 0.413716 0.008290
vt 0.400202 0.009309
vt 0.387914 0.029893
vt 0.387231 0.006659
vt 0.377885 0.035723
vt 0.375892 0.013250
vt 0.367317 0.032479
vt 0.364071 0.010356
vt 0.358721 0.041072
vt 0.354222 0.019299
vt 0.347250 0.043055
vt 0.341252 0.021541
vt 0.339512 0.053462
vt 0.332501 0.033309
vt 0.327926 0.056658
vt 0.319401 0.036922
vt 0.320668 0.068027
vt 0.311194 0.049777
vt 0.308121 0.078434
vt 0.297007 0.061546
vt 0.305208 0.090719
vt 0.293713 0.075436
vt 0.295208 0.101466
vt 0.282857 0.087911
vt 0.293641 0.114062
vt 0.280634 0.101831
vt 0.284958 0.124424
vt 0.270816 0.113547
vt 0.283007 0.141997
vt 0.268610 0.133418
vt 0.276198 0.154735
vt 0.260911 0.147822
vt 0.276602 0.170840
vt 0.261367 0.166032
vt 0.271236 0.188867
vt 0.255299 0.186416
vt 0.274524 0.200644
vt 0.259018 0.199732
vt 0.274568 0.217539
vt 0.259067 0.218836
vt 0.274602 0.230691
vt 0.259105 0.233708
vt 0.273236 0.245353
vt 0.257561 0.250287
vt 0.278122 0.259534
vt 0.263086 0.266321
vt 0.279641 0.279004
vt 0.264804 0.288336
vt 0.285920 0.287922
vt 0.271903 0.298421
vt 0.287871 0.304053
vt 0.274109 0.316661
vt 0.297515 0.313453
vt 0.285015 0.327290
vt 0.301390 0.330065
vt 0.289396 0.346074
vt 0.311052 0.335664
vt 0.300321 0.352405
vt 0.317829 0.349438
vt 0.307984 0.367979
vt 0.327491 0.354556
vt 0.318909 0.373767
vt 0.334560 0.366464
vt 0.327096 0.386522
vt 0.346289 0.368810
vt 0.340164 0.389884
vt 0.354875 0.377525
vt 0.349873 0.399738
vt 0.367307 0.378065
vt 0.363931 0.400349
vt 0.378778 0.383895
vt 0.376901 0.406941
vt 0.389287 0.381070
vt 0.388784 0.403747
vt 0.398354 0.385338
vt 0.399037 0.408572
vt 0.408382 0.380470
vt 0.410376 0.403068
vt 0.419204 0.382258
vt 0.422418 0.404381
vt 0.427066 0.373197
vt 0.431502 0.394845
vt 0.440423 0.372213
vt 0.446798 0.393538
vt 0.448199 0.361768
vt 0.455398 0.381922
vt 0.460746 0.357131
vt 0.469585 0.376678
vt 0.467523 0.345762
vt 0.477248 0.363822
vt 0.475770 0.339467
vt 0.486316 0.356253
vt 0.481031 0.324776
vt 0.492523 0.340093
vt 0.489714 0.315857
vt 0.502341 0.330008
vt 0.493589 0.299726
vt 0.506722 0.311768
vt 0.501309 0.285518
vt 0.515452 0.295703
vt 0.502299 0.271310
vt 0.516571 0.279638
vt 0.509588 0.255206
vt 0.524813 0.261428
vt 0.510627 0.240064
vt 0.525988 0.244306
vt 0.514551 0.227806
vt 0.530425 0.230446
vt 0.510782 0.212183
vt 0.526162 0.212780
vt 0.515032 0.196560
vt 0.530968 0.195115
vt 0.511589 0.182860
vt 0.527075 0.179624
vt 0.513813 0.167811
vt 0.529074 0.162736
vt 0.508146 0.154735
vt 0.523182 0.147822
vt 0.507107 0.137670
vt 0.522008 0.128525
vt 0.499867 0.127789
vt 0.513821 0.117353
vt 0.496473 0.109735
vt 0.509984 0.096938
vt 0.488752 0.101297
vt 0.501253 0.087397
vt 0.485840 0.089493
vt 0.497960 0.074050
vt 0.474735 0.079566
vt 0.485403 0.062826
vt 0.469725 0.064851
vt 0.479416 0.046895
vt 0.459784 0.060985
vt 0.468498 0.041815
vt 0.451083 0.050097
vt 0.458660 0.029503
vt 0.441421 0.047382
vt 0.447734 0.026434
vt 0.431874 0.039148
vt 0.436939 0.017124
vt 0.419922 0.038608
vt 0.423424 0.016512
vt 0.376901 0.406941
vt 0.363931 0.400349
vt 0.365635 0.389099
vt 0.377849 0.395306
vt 0.388784 0.403747
vt 0.389038 0.392298
vt 0.477248 0.363822
vt 0.469585 0.376678
vt 0.465122 0.366809
vt 0.472338 0.354704
vt 0.492523 0.340093
vt 0.486316 0.356253
vt 0.480991 0.347778
vt 0.486721 0.332360
vt 0.410376 0.403068
vt 0.399037 0.408572
vt 0.398692 0.396842
vt 0.409370 0.391659
vt 0.446798 0.393538
vt 0.431502 0.394845
vt 0.429262 0.383916
vt 0.443580 0.382772
vt 0.422418 0.404381
vt 0.420795 0.393212
vt 0.255299 0.186416
vt 0.261367 0.166032
vt 0.269059 0.168459
vt 0.263345 0.187653
vt 0.259018 0.199732
vt 0.266847 0.200192
vt 0.529074 0.162736
vt 0.527075 0.179624
vt 0.519257 0.181258
vt 0.521369 0.165299
vt 0.522008 0.128525
vt 0.523182 0.147822
vt 0.515591 0.151312
vt 0.514485 0.133142
vt 0.530968 0.195115
vt 0.522922 0.195844
vt 0.526162 0.212780
vt 0.518397 0.212479
vt 0.501253 0.087397
vt 0.509984 0.096938
vt 0.503163 0.103399
vt 0.494942 0.094415
vt 0.497960 0.074050
vt 0.491841 0.081847
vt 0.354222 0.019299
vt 0.364071 0.010356
vt 0.365710 0.021525
vt 0.356494 0.030291
vt 0.341252 0.021541
vt 0.344280 0.032403
vt 0.375892 0.013250
vt 0.387231 0.006659
vt 0.387576 0.018389
vt 0.376898 0.024596
vt 0.400202 0.009309
vt 0.399789 0.020885
vt 0.311194 0.049777
vt 0.319401 0.036922
vt 0.323705 0.046886
vt 0.315977 0.058991
vt 0.297007 0.061546
vt 0.302618 0.070072
vt 0.530425 0.230446
vt 0.522410 0.229113
vt 0.525988 0.244306
vt 0.518233 0.242164
vt 0.285015 0.327290
vt 0.274109 0.316661
vt 0.281057 0.310296
vt 0.291326 0.320304
vt 0.289396 0.346074
vt 0.295451 0.337991
vt 0.271903 0.298421
vt 0.278980 0.293121
vt 0.264804 0.288336
vt 0.272295 0.283625
vt 0.263086 0.266321
vt 0.270677 0.262894
vt 0.257561 0.250287
vt 0.265475 0.247796
vt 0.413716 0.008290
vt 0.412514 0.019925
vt 0.423424 0.016512
vt 0.421656 0.027668
vt 0.268610 0.133418
vt 0.270816 0.113547
vt 0.277956 0.119038
vt 0.275878 0.137750
vt 0.280634 0.101831
vt 0.287201 0.108006
vt 0.282857 0.087911
vt 0.289093 0.094755
vt 0.293713 0.075436
vt 0.299517 0.083152
vt 0.340164 0.389884
vt 0.327096 0.386522
vt 0.330864 0.376395
vt 0.343256 0.379245
vt 0.318909 0.373767
vt 0.307984 0.367979
vt 0.312954 0.358618
vt 0.323242 0.364068
vt 0.300321 0.352405
vt 0.305739 0.343953
vt 0.506722 0.311768
vt 0.502341 0.330008
vt 0.495966 0.322864
vt 0.500091 0.305689
vt 0.516571 0.279638
vt 0.515452 0.295703
vt 0.508312 0.290561
vt 0.509365 0.275433
vt 0.468498 0.041815
vt 0.479416 0.046895
vt 0.474524 0.055960
vt 0.464098 0.051493
vt 0.485403 0.062826
vt 0.480017 0.071278
vt 0.447734 0.026434
vt 0.458660 0.029503
vt 0.454835 0.039900
vt 0.444547 0.037010
vt 0.260911 0.147822
vt 0.268629 0.151312
vt 0.332501 0.033309
vt 0.336040 0.043484
vt 0.436939 0.017124
vt 0.434382 0.028243
vt 0.259105 0.233708
vt 0.266929 0.232185
vt 0.259067 0.218836
vt 0.266893 0.218181
vt 0.349873 0.399738
vt 0.352398 0.388523
vt 0.455398 0.381922
vt 0.451763 0.371747
vt 0.524813 0.261428
vt 0.517127 0.258287
vt 0.513821 0.117353
vt 0.506776 0.122622
vt 0.411336 0.031336
vt 0.399384 0.032237
vt 0.387914 0.029893
vt 0.377885 0.035723
vt 0.367317 0.032479
vt 0.358721 0.041072
vt 0.347250 0.043055
vt 0.339512 0.053462
vt 0.327926 0.056658
vt 0.320668 0.068027
vt 0.308121 0.078434
vt 0.305208 0.090719
vt 0.295208 0.101466
vt 0.293641 0.114062
vt 0.284958 0.124424
vt 0.283007 0.141997
vt 0.276198 0.154735
vt 0.276602 0.170840
vt 0.271236 0.188867
vt 0.274524 0.200644
vt 0.274568 0.217539
vt 0.274602 0.230691
vt 0.273236 0.245353
vt 0.278122 0.259534
vt 0.279641 0.279004
vt 0.285920 0.287922
vt 0.287871 0.304053
vt 0.297515 0.313453
vt 0.301390 0.330065
vt 0.311052 0.335664
vt 0.317829 0.349438
vt 0.327491 0.354556
vt 0.334560 0.366464
vt 0.346289 0.368810
vt 0.354875 0.377525
vt 0.367307 0.378065
vt 0.378778 0.383895
vt 0.389287 0.381070
vt 0.398354 0.385338
vt 0.408382 0.380470
vt 0.419204 0.382258
vt 0.427066 0.373197
vt 0.440423 0.372213
vt 0.448199 0.361768
vt 0.460746 0.357131
vt 0.467523 0.345762
vt 0.475770 0.339467
vt 0.481031 0.324776
vt 0.489714 0.315857
vt 0.493589 0.299726
vt 0.501309 0.285518
vt 0.502299 0.271310
vt 0.509588 0.255206
vt 0.510627 0.240064
vt 0.514551 0.227806
vt 0.510782 0.212183
vt 0.515032 0.196560
vt 0.511589 0.182860
vt 0.513813 0.167811
vt 0.508146 0.154735
vt 0.507107 0.137670
vt 0.499867 0.127789
vt 0.496473 0.109735
vt 0.488752 0.101297
vt 0.485840 0.089493
vt 0.474735 0.079566
vt 0.469725 0.064851
vt 0.459784 0.060985
vt 0.451083 0.050097
vt 0.441421 0.047382
vt 0.431874 0.039148
vt 0.419922 0.038608
vn 0.249469 0.000000 -0.968383
vn -0.175104 0.000000 -0.984550
vn -0.175104 0.000000 -0.984550
vn 0.249469 0.000000 -0.968383
vn 0.861123 0.000000 -0.508397
vn 0.861123 0.000000 -0.508397
vn 0.861155 0.000000 0.508343
vn 0.861155 0.000000 0.508343
vn 0.249421 0.000000 0.968395
vn 0.249421 0.000000 0.968395
vn -0.175104 0.000000 0.984550
vn -0.175104 0.000000 0.984550
vn -0.819999 0.000000 0.572364
vn -0.819999 0.000000 0.572364
vn -0.819999 0.000000 -0.572364
vn -0.819999 0.000000 -0.572364
vn 0.249489 -0.004717 -0.968366
vn -0.175082 -0.004114 -0.984545
vn -0.175082 -0.004114 -0.984545
vn 0.249489 -0.004717 -0.968366
vn 0.861103 -0.008043 -0.508368
vn 0.861103 -0.008043 -0.508368
vn 0.861145 -0.008043 0.508296
vn 0.861145 -0.008043 0.508296
vn 0.249459 -0.004717 0.968374
vn 0.249459 -0.004717 0.968374
vn -0.175106 -0.004114 0.984541
vn -0.175106 -0.004114 0.984541
vn -0.819941 -0.007818 0.572395
vn -0.819941 -0.007818 0.572395
vn -0.819992 -0.007820 -0.572322
vn -0.819992 -0.007820 -0.572322
vn 0.258199 0.000000 -0.966092
vn 0.258199 0.000000 -0.966092
vn -0.181892 0.000000 -0.983319
vn -0.181892 0.000000 -0.983319
vn 0.258179 0.000000 0.966097
vn 0.258179 0.000000 0.966097
vn -0.181876 0.000000 0.983321
vn -0.181876 0.000000 0.983321
vn -0.823928 0.000000 -0.566694
vn -0.823928 0.000000 -0.566694
vn -0.823919 0.000000 0.566707
vn -0.823919 0.000000 0.566707
vn 0.865694 0.000000 0.500574
vn 0.865694 0.000000 0.500574
vn 0.865704 0.000000 -0.500556
vn 0.865704 0.000000 -0.500556
vn 0.000000 1.000000 0.000000
vn 0.000000 1.000000 0.000000
vn 0.000000 1.000000 0.000000
vn 0.000000 1.000000 0.000000
vn -0.072717 -0.921407 -0.381736
vn -0.077135 -0.977839 -0.194631
vn -0.153776 -0.969078 -0.192978
vn 0.227712 -0.954937 -0.190377
vn 0.114666 -0.974271 -0.194028
vn 0.108206 -0.918427 -0.380503
vn 0.227711 -0.954934 0.190393
vn 0.108204 -0.918415 0.380534
vn 0.114665 -0.974268 0.194045
vn -0.077134 -0.977836 0.194647
vn -0.072716 -0.921394 0.381767
vn -0.153776 -0.969075 0.192994
vn 0.000000 1.000000 0.000000
vn 0.000000 1.000000 0.000000
vn 0.000000 1.000000 0.000000
vn 0.000000 1.000000 0.000000
vn 0.000000 1.000000 0.000000
vn 0.000000 1.000000 0.000000
vn 0.000000 1.000000 0.000000
vn 0.000000 1.000000 0.000000
vn 0.000000 0.000000 -1.000000
vn 0.000000 0.000000 -1.000000
vn 0.000000 0.000000 -1.000000
vn -0.409525 0.001238 -0.912298
vn -0.409525 0.001238 -0.912298
vn -0.409466 0.000247 -0.912326
vn -0.409466 0.000247 -0.912326
vn -0.366574 0.157155 -0.917020
vn -0.424476 0.083686 -0.901563
vn -0.424476 0.083686 -0.901563
vn -0.366574 0.157155 -0.917020
vn -0.161972 0.202182 -0.965861
vn -0.161972 0.202182 -0.965861
vn -0.247383 0.190910 -0.949924
vn -0.247383 0.190910 -0.949924
vn -0.000000 0.000000 -1.000000
vn -0.000000 0.000000 -1.000000
vn -0.000000 0.000000 -1.000000
vn -0.000000 0.000000 -1.000000
vn 0.000000 0.000000 -1.000000
vn 0.000000 0.000000 -1.000000
vn 0.000000 0.000000 1.000000
vn 0.000000 0.000000 1.000000
vn 0.000000 0.000000 1.000000
vn -0.409498 0.001238 0.912310
vn -0.409498 0.001238 0.912310
vn -0.409438 0.000247 0.912338
vn -0.409438 0.000247 0.912338
vn -0.365419 0.155511 0.917761
vn -0.365419 0.155511 0.917761
vn -0.419924 0.081919 0.903855
vn -0.419924 0.081919 0.903855
vn -0.161960 0.202166 0.965866
vn -0.161960 0.202166 0.965866
vn -0.247366 0.190896 0.949931
vn -0.247366 0.190896 0.949931
vn -0.000000 0.000000 1.000000
vn -0.000000 0.000000 1.000000
vn -0.000000 0.000000 1.000000
vn -0.000000 0.000000 1.000000
vn 0.000000 0.000000 1.000000
vn 0.000000 0.000000 1.000000
vn 0.998291 -0.058445 0.000000
vn 0.999386 -0.035053 0.000000
vn 0.999386 -0.035053 0.000000
vn 0.998291 -0.058445 0.000000
vn 0.000085 -1.000000 0.000000
vn 0.000036 -1.000000 0.000000
vn 0.000085 -1.000000 0.000000
vn 0.992677 -0.120802 0.000000
vn 0.994282 -0.106787 0.000000
vn 0.994282 -0.106787 0.000000
vn 0.999995 -0.003001 0.000000
vn 1.000000 -0.000593 0.000000
vn 1.000000 -0.000593 0.000000
vn 0.999995 -0.003001 0.000000
vn 0.000135 -1.000000 0.000000
vn 0.000135 -1.000000 0.000000
vn 0.996581 -0.082626 0.000000
vn 0.996581 -0.082626 0.000000
vn -0.000000 0.000000 -1.000000
vn -0.000000 0.000000 -1.000000
vn 0.000000 0.000000 -1.000000
vn 0.000000 0.000000 -1.000000
vn -0.433662 0.024635 -0.900739
vn -0.433662 0.024635 -0.900739
vn -0.415375 0.014329 -0.909538
vn -0.415375 0.014329 -0.909538
vn -0.429267 0.024572 0.902844
vn -0.429267 0.024572 0.902844
vn -0.414329 0.014386 0.910014
vn -0.414329 0.014386 0.910014
vn -0.000000 0.000000 1.000000
vn 0.000000 0.000000 1.000000
vn 0.000000 0.000000 1.000000
vn -0.000000 0.000000 1.000000
vn -0.000000 0.000000 -1.000000
vn -0.000000 0.000000 -1.000000
vn 0.999879 -0.015564 0.000000
vn 0.999879 -0.015564 0.000000
vn -0.000000 0.000000 1.000000
vn -0.000000 0.000000 1.000000
vn -0.409509 0.006435 0.912283
vn -0.409509 0.006435 0.912283
vn -0.409537 0.006436 -0.912271
vn -0.409537 0.006436 -0.912271
vn 0.999974 -0.007157 0.000000
vn 0.999974 -0.007157 0.000000
vn 0.999974 -0.007157 0.000000
vn 0.999974 -0.007157 0.000000
vn 0.000000 1.000000 0.000000
vn 0.000000 1.000000 0.000000
vn 0.000000 1.000000 0.000000
vn 0.000000 1.000000 0.000000
vn 0.000000 -1.000000 0.000000
vn 0.000000 -1.000000 0.000000
vn 0.000000 -1.000000 0.000000
vn 0.000000 -1.000000 0.000000
vn 0.190462 -0.004352 0.981685
vn 0.190462 -0.004352 0.981685
vn 0.190462 -0.004352 0.981685
vn 0.190462 -0.004352 0.981685
vn -0.332682 -0.004317 0.943029
vn -0.332682 -0.004317 0.943029
vn -0.332682 -0.004317 0.943029
vn -0.332682 -0.004317 0.943029
vn -0.999974 -0.007158 0.000000
vn -0.999974 -0.007158 0.000000
vn -0.999974 -0.007158 0.000000
vn -0.999974 -0.007158 0.000000
vn -0.332656 -0.004306 -0.943038
vn -0.332656 -0.004306 -0.943038
vn -0.332656 -0.004306 -0.943038
vn -0.332656 -0.004306 -0.943038
vn 0.190440 -0.004352 -0.981689
vn 0.190440 -0.004352 -0.981689
vn 0.190440 -0.004352 -0.981689
vn 0.190440 -0.004352 -0.981689
vn 0.000000 1.000000 0.000001
vn 0.000000 1.000000 0.000000
vn 0.000000 1.000000 0.000000
vn 0.000000 1.000000 0.000000
vn 0.000000 1.000000 0.000000
vn 0.000000 1.000000 0.000000
vn 0.000000 1.000000 0.000001
vn 0.000000 1.000000 0.000000
vn 0.000000 1.000000 0.000000
vn 0.000000 1.000000 0.000000
vn 0.000000 1.000000 0.000000
vn 0.000000 1.000000 0.000001
vn 0.000000 1.000000 0.000000
vn 0.000000 1.000000 0.000000
vn 0.000000 1.000000 0.000000
vn 0.000000 1.000000 -0.000000
vn 0.000000 1.000000 0.000001
vn 0.000000 1.000000 0.000000
vn 0.000000 1.000000 -0.000000
vn 0.000000 1.000000 0.000000
vn 0.000000 1.000000 0.000001
vn 0.000000 1.000000 -0.000000
vn 0.000000 1.000000 0.000000
vn 0.000000 1.000000 0.000000
vn 0.000000 -1.000000 -0.000000
vn 0.000000 -1.000000 0.000000
vn 0.000000 -1.000000 0.000001
vn 0.000000 -1.000000 0.000000
vn 0.000000 -1.000000 0.000000
vn 0.000000 -1.000000 0.000000
vn 0.000000 -1.000000 -0.000000
vn 0.000000 -1.000000 0.000000
vn 0.000000 -1.000000 0.000000
vn 0.000000 -1.000000 0.000000
vn 0.000000 -1.000000 0.000000
vn 0.000000 -1.000000 0.000000
vn 0.000000 -1.000000 0.000000
vn 0.000000 -1.000000 0.000000
vn 0.000000 -1.000000 -0.000000
vn 0.000000 -1.000000 0.000000
vn 0.000000 -1.000000 0.000000
vn 0.000000 -1.000000 -0.000000
vn 0.000000 -1.000000 -0.000000
vn 0.000000 -1.000000 -0.000000
vn 0.000000 -1.000000 0.000001
vn 0.000000 -1.000000 0.000000
vn 0.000000 -1.000000 0.000000
vn 0.000000 -1.000000 0.000001
vn 0.537881 0.839820 -0.073398
vn 0.505552 0.853567 -0.125857
vn 0.390691 -0.915944 -0.091690
vn 0.419017 -0.906293 -0.055295
vn 0.514522 0.857335 0.015607
vn 0.395588 -0.918335 0.013072
vn 0.535183 0.836338 0.118821
vn 0.418338 -0.903660 0.091605
vn 0.517318 0.842459 0.150484
vn 0.402995 -0.907977 0.114774
vn 0.510481 0.837562 0.194678
vn 0.398075 -0.904956 0.150302
vn 0.449127 0.857532 0.250846
vn 0.347227 -0.919256 0.185477
vn 0.405767 0.845820 0.346326
vn 0.312959 -0.912670 0.262851
vn 0.381362 0.850960 0.361151
vn 0.294353 -0.916193 0.271934
vn 0.358932 0.850189 0.385158
vn 0.275035 -0.916448 0.290654
vn 0.300872 0.865419 0.400657
vn 0.232487 -0.926686 0.295302
vn 0.252620 0.862579 0.438338
vn 0.191784 -0.926364 0.324142
vn 0.227712 0.866623 0.443974
vn 0.174038 -0.928854 0.327018
vn 0.218112 0.869126 0.443900
vn 0.164091 -0.931356 0.325040
vn 0.208085 0.867754 0.451336
vn 0.156288 -0.930092 0.332419
vn 0.178935 0.866644 0.465737
vn 0.132917 -0.930051 0.342546
vn 0.118386 0.876939 0.465792
vn 0.089342 -0.936299 0.339651
vn 0.068010 0.871241 0.486121
vn 0.051069 -0.933439 0.355081
vn 0.043199 0.872171 0.487290
vn 0.032184 -0.933564 0.356962
vn 0.003907 0.868078 0.496413
vn 0.002985 -0.931375 0.364048
vn -0.018814 0.867513 0.497059
vn -0.015108 -0.930362 0.366330
vn -0.040175 0.866679 0.497246
vn -0.031219 -0.930167 0.365807
vn -0.126495 0.880070 0.457685
vn -0.095138 -0.937885 0.333648
vn -0.167246 0.872993 0.458162
vn -0.124746 -0.933800 0.335344
vn -0.191239 0.872773 0.449105
vn -0.145619 -0.932735 0.329850
vn -0.222001 0.867691 0.444778
vn -0.167905 -0.929753 0.327669
vn -0.234543 0.864946 0.443686
vn -0.180801 -0.926933 0.328795
vn -0.302225 0.850370 0.430734
vn -0.230458 -0.917011 0.325545
vn -0.325042 0.850200 0.414135
vn -0.249980 -0.916137 0.313373
vn -0.334673 0.849906 0.407006
vn -0.257020 -0.916200 0.307437
vn -0.396190 0.861820 0.316701
vn -0.305671 -0.922794 0.234554
vn -0.443248 0.847953 0.290701
vn -0.342372 -0.913268 0.220734
vn -0.454484 0.850330 0.265298
vn -0.352009 -0.914310 0.200317
vn -0.476909 0.844325 0.244278
vn -0.370096 -0.910149 0.186166
vn -0.487843 0.858499 0.158079
vn -0.375693 -0.919320 0.117070
vn -0.524132 0.844519 0.109877
vn -0.406627 -0.909748 0.083748
vn -0.527628 0.843417 0.101276
vn -0.411238 -0.908351 0.076036
vn -0.561897 0.827185 0.006119
vn -0.443338 -0.896342 0.004773
vn -0.526188 0.844949 -0.095845
vn -0.409591 -0.909454 -0.071617
vn -0.515464 0.833563 -0.198673
vn -0.402961 -0.902178 -0.153939
vn -0.463356 0.849608 -0.251929
vn -0.359275 -0.914067 -0.188157
vn -0.465753 0.865481 -0.184437
vn -0.353924 -0.925497 -0.134882
vn -0.443739 0.872584 -0.204189
vn -0.336621 -0.929931 -0.148038
vn -0.413618 0.852374 -0.319967
vn -0.317210 -0.917368 -0.240444
vn -0.365130 0.865824 -0.342094
vn -0.280663 -0.926312 -0.251346
vn -0.336683 0.862521 -0.377759
vn -0.256175 -0.925352 -0.279462
vn -0.335756 0.860506 -0.383142
vn -0.255511 -0.923743 -0.285329
vn -0.304073 0.857294 -0.415435
vn -0.229694 -0.922472 -0.310299
vn -0.266451 0.863908 -0.427395
vn -0.201828 -0.926758 -0.316837
vn -0.226873 0.861149 -0.454918
vn -0.170113 -0.925853 -0.337429
vn -0.193093 0.865810 -0.461614
vn -0.145279 -0.928695 -0.341202
vn -0.138080 0.861485 -0.488649
vn -0.103069 -0.926662 -0.361489
vn -0.075928 0.871576 -0.484346
vn -0.058601 -0.933062 -0.354911
vn -0.091546 0.881638 -0.462962
vn -0.065829 -0.940122 -0.334422
vn -0.042852 0.890037 -0.453869
vn -0.030312 -0.944756 -0.326371
vn 0.014390 0.878460 -0.477599
vn 0.010301 -0.938159 -0.346051
vn 0.049162 0.881558 -0.469510
vn 0.037111 -0.939384 -0.340853
vn 0.093812 0.873950 -0.476875
vn 0.069298 -0.934987 -0.347847
vn 0.105339 0.871638 -0.478697
vn 0.080057 -0.932819 -0.351339
vn 0.098756 0.877887 -0.468573
vn 0.077392 -0.937112 -0.340340
vn 0.157077 0.885685 -0.436908
vn 0.123283 -0.940809 -0.315721
vn 0.226337 0.866554 -0.444809
vn 0.170527 -0.928980 -0.328506
vn 0.245561 0.865857 -0.435880
vn 0.187975 -0.927641 -0.322719
vn 0.255087 0.867298 -0.427464
vn 0.195459 -0.928935 -0.314444
vn 0.283174 0.869268 -0.405198
vn 0.219809 -0.929046 -0.297586
vn 0.349899 0.851195 -0.391201
vn 0.268281 -0.916975 -0.295267
vn 0.394303 0.860394 -0.322875
vn 0.303084 -0.922145 -0.240391
vn 0.419515 0.854354 -0.306735
vn 0.322298 -0.918268 -0.230016
vn 0.438854 0.867187 -0.235358
vn 0.334817 -0.926305 -0.172789
vn 0.465306 0.859153 -0.212949
vn 0.355661 -0.921156 -0.158043
vn 0.471305 0.857554 -0.206091
vn 0.363026 -0.919308 -0.151936
vn 0.501695 0.847528 -0.173201
vn 0.387919 -0.912470 -0.130068
vn 0.968355 0.128792 -0.213780
vn 0.969929 0.128011 -0.207007
vn 0.992769 0.119520 -0.011203
vn 0.676610 0.140480 0.722817
vn 0.628867 0.138012 0.765166
vn 0.629667 0.137218 0.764650
vn 0.572256 0.135132 0.808865
vn 0.971583 0.128842 0.198560
vn 0.922809 0.123206 0.365026
vn 0.905928 0.140956 0.399282
vn 0.877230 0.145597 0.457459
vn 0.848207 0.131744 0.513020
vn -0.126575 0.140800 -0.981913
vn -0.083525 0.142147 -0.986315
vn -0.007203 0.139240 -0.990232
vn -0.185007 0.142622 0.972333
vn -0.192296 0.142076 0.970998
vn -0.159691 0.144576 0.976523
vn -0.260130 0.151244 0.953655
vn -0.092170 0.147814 0.984711
vn -0.031008 0.144754 0.988982
vn -0.450255 0.140091 0.881842
vn -0.462396 0.140248 0.875512
vn -0.503177 0.142009 0.852436
vn -0.947629 0.127599 -0.292776
vn -0.923296 0.125199 -0.363112
vn -0.836631 0.136346 -0.530527
vn -0.990466 0.135941 -0.022291
vn -0.966666 0.124394 -0.223795
vn -0.980987 0.126236 0.147408
vn -0.694595 0.132516 -0.707090
vn -0.659916 0.131859 -0.739679
vn -0.540613 0.139635 -0.829602
vn 0.097308 0.153053 0.983415
vn 0.194354 0.146512 0.969928
vn 0.420370 0.139268 -0.896601
vn 0.559388 0.131695 -0.818377
vn 0.593923 0.131838 -0.793646
vn 0.415344 0.140294 -0.898781
vn 0.353615 0.143623 -0.924299
vn 0.323584 0.142821 -0.935359
vn 0.241579 0.147703 -0.959074
vn -0.951306 0.133840 0.277675
vn -0.928209 0.130540 0.348407
vn -0.395140 0.140259 -0.907850
vn -0.346556 0.138851 -0.927696
vn -0.409132 0.140315 -0.901622
vn -0.412903 0.139414 -0.900041
vn -0.465971 0.137086 -0.874116
vn 0.839005 0.132140 -0.527835
vn 0.872388 0.128839 -0.471529
vn 0.736259 0.138718 -0.662330
vn 0.816139 0.130865 -0.562843
vn 0.611498 0.131658 -0.780216
vn 0.500033 0.138885 0.854797
vn 0.430867 0.136663 0.892007
vn 0.365222 0.139420 0.920421
vn 0.263058 0.136293 0.955104
vn -0.737083 0.137816 0.661600
vn -0.779870 0.134331 0.611357
vn -0.643937 0.132375 0.753540
vn -0.849704 0.142083 0.507755
vn -0.886881 0.137133 0.441177
vn -0.221526 0.145135 -0.964294
vn -0.738761 0.129806 -0.661349
vn -0.888015 0.136235 0.439170
vn 0.067001 0.138687 -0.988067
vn 0.027953 0.139702 -0.989799
vn 0.931672 0.136759 -0.336576
vn 0.766431 0.133080 0.628390
vn 0.130506 0.141763 0.981260
vn -0.428056 0.139919 0.892855
vn 0.000000 1.000000 0.000000
vn 0.000000 1.000000 0.000000
vn 0.000000 1.000000 0.000000
vn 0.000000 1.000000 0.000000
vn 0.000000 -1.000000 0.000000
vn 0.000000 -1.000000 0.000000
vn 0.000000 -1.000000 0.000000
vn 0.000000 -1.000000 0.000000
s 1
g propsb_polySurface8215
f 24/1/1 17/2/2 2/3/3 1/4/4
f 1/4/4 3/5/5 23/6/6 24/1/1
f 3/5/5 4/7/7 22/8/8 23/6/6
f 4/7/7 5/9/9 21/10/10 22/8/8
f 5/11/9 6/12/11 20/13/12 21/14/10
f 6/12/11 7/15/13 19/16/14 20/13/12
f 7/15/13 8/17/15 18/18/16 19/16/14
f 8/17/15 2/19/3 17/20/2 18/18/16
s 2
f 1/21/17 2/22/18 10/23/19 9/24/20
f 9/24/20 11/25/21 3/26/22 1/21/17
f 11/25/21 12/27/23 4/28/24 3/26/22
f 12/27/23 13/29/25 5/30/26 4/28/24
f 13/31/25 14/32/27 6/33/28 5/34/26
f 14/32/27 15/35/29 7/36/30 6/33/28
f 15/35/29 16/37/31 8/38/32 7/36/30
f 16/37/31 10/39/19 2/40/18 8/38/32
s 3
f 28/41/33 26/42/34 30/43/35 32/44/36
f 36/45/37 34/46/38 37/47/39 40/48/40
f 31/49/41 29/50/42 39/51/43 38/52/44
f 33/53/45 35/54/46 25/55/47 27/56/48
s off
f 34/46/49 28/41/50 32/44/51 37/47/52
s 5
f 30/57/53 42/58/54 29/59/55
s 3
f 25/60/47 26/42/34 28/41/33 27/61/48
f 30/43/35 29/62/42 31/63/41 32/44/36
f 33/64/45 34/46/38 36/45/37 35/65/46
f 37/47/39 38/66/44 39/67/43 40/48/40
s 5
f 25/68/56 41/69/57 26/70/58
f 26/70/58 41/69/57 42/58/54 30/57/53
f 35/71/59 36/45/60 44/72/61
f 43/73/62 44/72/61 36/45/60 40/48/63
f 39/74/64 43/73/62 40/48/63
f 29/59/55 42/58/54 43/73/62 39/74/64
f 42/58/54 41/69/57 44/72/61 43/73/62
f 35/71/59 44/72/61 41/69/57 25/68/56
s off
f 37/47/65 32/44/66 31/75/67 38/76/68
f 27/77/69 28/41/70 34/46/71 33/78/72
s 8
f 59/79/73 63/80/74 58/81/75
s 9
f 83/82/76 79/83/77 60/84/78 51/85/79
f 58/86/80 63/87/81 64/88/82 53/89/83
f 54/90/84 61/91/85 76/92/86 77/93/87
s 8
f 60/94/88 79/95/89 80/96/90 62/97/91
f 59/79/73 76/98/92 61/99/93
s 10
f 65/100/94 55/101/95 47/102/96
s 11
f 82/103/97 83/82/98 51/85/99 45/104/100
f 47/105/101 53/89/102 64/88/103 65/106/104
f 48/107/105 54/90/106 77/93/107 78/108/108
s 10
f 45/109/109 50/110/110 81/111/111 82/112/112
f 55/101/95 48/113/113 78/114/114
s 12
f 73/115/115 49/116/116 56/117/117 72/118/118
s 13
f 45/109/119 51/119/120 60/94/121
s 12
f 54/120/122 48/121/123 61/122/124
f 81/123/125 50/124/126 62/125/127 80/126/128
s 13
f 50/110/129 45/109/119 60/94/121 62/97/130
s 12
f 48/121/123 55/127/131 59/128/132 61/122/124
s 8
f 56/129/133 57/130/134 71/131/135 72/132/136
s 9
f 75/133/137 71/134/138 57/135/139 52/136/140
s 11
f 74/137/141 75/133/142 52/136/143 46/138/144
s 10
f 49/139/145 73/140/146 74/141/147 46/142/148
s 8
f 66/143/149 57/130/134 56/129/133 67/144/150
s 12
f 49/116/116 68/145/151 67/146/152 56/117/117
s 10
f 69/147/153 68/148/154 49/139/145 46/142/148
s 11
f 46/138/144 52/136/143 70/149/155 69/150/156
s 9
f 57/135/139 66/151/157 70/149/158 52/136/140
s 8
f 72/132/136 71/131/135 63/80/74 59/79/73
s 12
f 55/127/131 73/115/115 72/118/118 59/128/132
s 10
f 74/141/147 73/140/146 55/101/95 65/100/94
s 11
f 65/106/104 64/88/103 75/133/142 74/137/141
s 9
f 64/88/82 63/87/81 71/134/138 75/133/137
s 8
f 59/79/73 58/81/75 76/98/92
s 9
f 77/93/87 76/92/86 58/86/80 53/89/83
s 11
f 78/108/108 77/93/107 53/89/102 47/105/101
s 10
f 55/101/95 78/114/114 47/102/96
s 8
f 79/95/89 66/143/149 67/144/150 80/96/90
s 12
f 68/145/151 81/123/125 80/126/128 67/146/152
s 10
f 82/112/112 81/111/111 68/148/154 69/147/153
s 11
f 69/150/156 70/149/155 83/82/98 82/103/97
s 9
f 70/149/158 66/151/157 79/83/77 83/82/76
s off
f 84/152/159 87/153/160 91/154/161 95/155/162
f 88/160/163 85/157/164 86/158/165 89/159/166
f 94/166/167 90/163/168 92/164/169 93/165/170
f 87/168/171 88/169/172 90/170/173 91/171/174
f 89/172/175 92/173/176 90/170/177 88/169/178
f 86/174/179 93/175/180 92/176/181 89/177/182
f 85/178/183 94/179/184 93/180/185 86/181/186
f 84/182/187 95/183/188 94/179/189 85/178/190
s 22
f 98/184/191 114/185/192 96/186/193
s 23
f 111/187/194 97/188/195 96/186/196
s 22
f 99/189/197 98/184/191 96/186/193
s 24
f 112/190/198 102/191/199 96/186/200
s 22
f 103/192/201 104/193/202 96/186/193
s 23
f 101/194/203 106/195/204 96/186/196
s 22
f 107/196/205 108/197/206 96/186/193
f 96/186/193 104/193/202 113/198/207
f 109/199/208 105/200/209 96/186/193
f 114/185/192 110/201/210 96/186/193
f 110/201/210 107/196/205 96/186/193
f 113/198/207 112/190/211 96/186/193
f 100/202/212 109/199/208 96/186/193
f 105/200/209 103/192/201 96/186/193
f 96/186/193 108/197/206 100/202/212
f 97/188/213 99/189/197 96/186/193
s 23
f 106/195/204 111/187/194 96/186/196
s 24
f 102/191/199 101/194/214 96/186/200
s 25
f 117/203/215 115/204/216 133/205/217
s 26
f 130/206/218 115/204/219 116/207/220
s 25
f 118/208/221 115/204/216 117/203/215
s 27
f 131/209/222 115/204/223 121/210/224
s 25
f 122/211/225 115/204/216 123/212/226
s 26
f 120/213/227 115/204/219 125/214/228
s 25
f 126/215/229 115/204/216 127/216/230
f 115/204/216 132/217/231 123/212/226
f 128/218/232 115/204/216 124/219/233
f 133/205/217 115/204/216 129/220/234
f 129/220/234 115/204/216 126/215/229
f 132/217/231 115/204/216 131/209/235
f 119/221/236 115/204/216 128/218/232
f 124/219/233 115/204/216 122/211/225
f 115/204/216 119/221/236 127/216/230
f 116/207/237 115/204/216 118/208/221
s 26
f 125/214/228 115/204/219 130/206/218
s 27
f 121/210/224 115/204/223 120/213/238
s 28
f 235/222/239 248/223/240 194/224/241 141/225/242
f 234/226/243 235/222/239 141/225/242 193/227/244
f 233/228/245 234/226/243 193/227/244 163/229/246
f 231/230/247 233/228/245 163/229/246 201/231/248
f 230/232/249 231/230/247 201/231/248 192/233/250
f 232/234/251 230/232/249 192/233/250 148/235/252
f 270/236/253 232/234/251 148/235/252 191/237/254
f 237/238/255 270/236/253 191/237/254 162/239/256
f 236/240/257 237/238/255 162/239/256 190/241/258
f 238/242/259 236/240/257 190/241/258 140/243/260
f 254/244/261 238/242/259 140/243/260 189/245/262
f 253/246/263 254/244/261 189/245/262 200/247/264
f 252/248/265 253/246/263 200/247/264 161/249/266
f 251/250/267 252/248/265 161/249/266 188/251/268
f 250/252/269 251/250/267 188/251/268 147/253/270
f 269/254/271 250/252/269 147/253/270 187/255/272
f 219/256/273 269/254/271 187/255/272 160/257/274
f 218/258/275 219/256/273 160/257/274 186/259/276
f 220/260/277 218/258/275 186/259/276 139/261/278
f 273/262/279 220/260/277 139/261/278 199/263/280
f 272/264/281 273/262/279 199/263/280 185/265/282
f 247/266/283 272/264/281 185/265/282 159/267/284
f 246/268/285 247/266/283 159/267/284 184/269/286
f 245/270/287 246/268/285 184/269/286 146/271/288
f 244/272/289 245/270/287 146/271/288 183/273/290
f 242/274/291 244/272/289 183/273/290 158/275/292
f 241/276/293 242/274/291 158/275/292 182/277/294
f 243/278/295 241/276/293 182/277/294 138/279/296
f 259/280/297 243/278/295 138/279/296 181/281/298
f 258/282/299 259/280/297 181/281/298 157/283/300
f 257/284/301 258/282/299 157/283/300 180/285/302
f 256/286/303 257/284/301 180/285/302 198/287/304
f 255/288/305 256/286/303 198/287/304 145/289/306
f 274/290/307 255/288/305 145/289/306 179/291/308
f 207/292/309 274/290/307 179/291/308 156/293/310
f 206/294/311 207/292/309 156/293/310 178/295/312
f 208/296/313 206/294/311 178/295/312 137/297/314
f 214/298/315 208/296/313 137/297/314 177/299/316
f 213/300/317 214/298/315 177/299/316 155/301/318
f 217/302/319 213/300/317 155/301/318 205/303/320
f 216/304/321 217/302/319 205/303/320 176/305/322
f 215/306/323 216/304/321 176/305/322 144/307/324
f 275/308/325 215/306/323 144/307/324 175/309/326
f 210/310/327 275/308/325 175/309/326 154/311/328
f 209/312/329 210/310/327 154/311/328 174/313/330
f 212/314/331 209/312/329 174/313/330 204/315/332
f 211/316/333 212/314/331 204/315/332 136/317/334
f 261/318/335 211/316/333 136/317/334 173/319/336
f 260/320/337 261/318/335 173/319/336 153/321/338
f 263/322/339 260/320/337 153/321/338 172/323/340
f 262/324/341 263/322/339 172/323/340 143/325/342
f 276/326/343 262/324/341 143/325/342 171/327/344
f 240/328/345 276/326/343 171/327/344 152/329/346
f 239/330/347 240/328/345 152/329/346 170/331/348
f 226/332/349 239/330/347 170/331/348 135/333/350
f 225/334/351 226/332/349 135/333/350 169/335/352
f 222/336/353 225/334/351 169/335/352 151/337/354
f 221/338/355 222/336/353 151/337/354 203/339/356
f 224/340/357 221/338/355 203/339/356 168/341/358
f 223/342/359 224/340/357 168/341/358 142/343/360
f 277/344/361 223/342/359 142/343/360 167/345/362
f 228/346/363 277/344/361 167/345/362 150/347/364
f 227/348/365 228/346/363 150/347/364 166/349/366
f 229/350/367 227/348/365 166/349/366 134/351/368
f 266/352/369 229/350/367 134/351/368 197/353/370
f 265/354/371 266/352/369 197/353/370 202/355/372
f 264/356/373 265/354/371 202/355/372 165/357/374
f 268/358/375 264/356/373 165/357/374 196/359/376
f 267/360/377 268/358/375 196/359/376 149/361/378
f 271/362/379 267/360/377 149/361/378 195/363/380
f 249/364/381 271/362/379 195/363/380 164/365/382
f 194/224/241 248/223/240 249/364/381 164/365/382
f 178/366/312 156/367/310 313/368/383 314/369/384
f 137/370/314 178/366/312 314/369/384 315/371/385
f 174/372/330 154/373/328 322/374/386 323/375/387
f 136/376/334 204/377/332 324/378/388 325/379/389
f 155/380/318 177/381/316 316/382/390 317/383/391
f 177/381/316 137/370/314 315/371/385 316/382/390
f 144/384/324 176/385/322 319/386/392 320/387/393
f 205/388/320 155/380/318 317/383/391 318/389/394
f 186/390/276 160/391/274 295/392/395 296/393/396
f 139/394/278 186/390/276 296/393/396 297/395/397
f 203/396/356 151/397/354 335/398/398 336/399/399
f 142/400/360 168/401/358 337/402/400 338/403/401
f 151/397/354 169/404/352 334/405/402 335/398/398
f 169/404/352 135/406/350 333/407/403 334/405/402
f 166/408/366 150/409/364 340/410/404 341/411/405
f 134/412/368 166/408/366 341/411/405 342/413/406
f 192/414/250 201/415/248 282/416/407 283/417/408
f 148/418/252 192/414/250 283/417/408 284/419/409
f 163/420/246 193/421/244 280/422/410 281/423/411
f 193/421/244 141/424/242 279/425/412 280/422/410
f 190/426/258 162/427/256 286/428/413 287/429/414
f 140/430/260 190/426/258 287/429/414 288/431/415
f 135/406/350 170/432/348 332/433/416 333/407/403
f 170/432/348 152/434/346 331/435/417 332/433/416
f 182/436/294 158/437/292 304/438/418 305/439/419
f 138/440/296 182/436/294 305/439/419 306/441/420
f 158/437/292 183/442/290 303/443/421 304/438/418
f 183/442/290 146/444/288 302/445/422 303/443/421
f 146/444/288 184/446/286 301/447/423 302/445/422
f 184/446/286 159/448/284 300/449/424 301/447/423
f 141/424/242 194/450/241 278/451/425 279/425/412
f 194/450/241 164/452/382 349/453/426 278/451/425
f 147/454/270 188/455/268 292/456/427 293/457/428
f 188/455/268 161/458/266 291/459/429 292/456/427
f 161/458/266 200/460/264 290/461/430 291/459/429
f 189/462/262 140/430/260 288/431/415 289/463/431
f 145/464/306 198/465/304 310/466/432 311/467/433
f 180/468/302 157/469/300 308/470/434 309/471/435
f 157/469/300 181/472/298 307/473/436 308/470/434
f 181/472/298 138/440/296 306/441/420 307/473/436
f 153/474/338 173/475/336 326/476/437 327/477/438
f 173/475/336 136/376/334 325/379/389 326/476/437
f 143/478/342 172/479/340 328/480/439 329/481/440
f 172/479/340 153/474/338 327/477/438 328/480/439
f 165/482/374 202/483/372 344/484/441 345/485/442
f 197/486/370 134/412/368 342/413/406 343/487/443
f 149/488/378 196/489/376 346/490/444 347/491/445
f 196/489/376 165/482/374 345/485/442 346/490/444
f 160/391/274 187/492/272 294/493/446 295/392/395
f 187/492/272 147/454/270 293/457/428 294/493/446
f 162/427/256 191/494/254 285/495/447 286/428/413
f 191/494/254 148/418/252 284/419/409 285/495/447
f 164/452/382 195/496/380 348/497/448 349/453/426
f 195/496/380 149/488/378 347/491/445 348/497/448
f 159/448/284 185/498/282 299/499/449 300/449/424
f 185/498/282 199/500/280 298/501/450 299/499/449
f 156/367/310 179/502/308 312/503/451 313/368/383
f 179/502/308 145/464/306 311/467/433 312/503/451
f 154/373/328 175/504/326 321/505/452 322/374/386
f 175/504/326 144/384/324 320/387/393 321/505/452
f 152/434/346 171/506/344 330/507/453 331/435/417
f 171/506/344 143/478/342 329/481/440 330/507/453
f 150/409/364 167/508/362 339/509/454 340/410/404
f 167/508/362 142/400/360 338/403/401 339/509/454
f 198/465/304 180/468/302 309/471/435 310/466/432
f 199/500/280 139/394/278 297/395/397 298/501/450
f 200/460/264 189/462/262 289/463/431 290/461/430
f 201/415/248 163/420/246 281/423/411 282/416/407
f 202/483/372 197/486/370 343/487/443 344/484/441
f 168/401/358 203/396/356 336/399/399 337/402/400
f 204/377/332 174/372/330 323/375/387 324/378/388
f 176/385/322 205/388/320 318/389/394 319/386/392
f 279/425/412 278/451/425 248/510/240 235/511/239
f 280/422/410 279/425/412 235/511/239 234/512/243
f 281/423/411 280/422/410 234/512/243 233/513/245
f 282/416/407 281/423/411 233/513/245 231/514/247
f 283/417/408 282/416/407 231/514/247 230/515/249
f 284/419/409 283/417/408 230/515/249 232/516/251
f 285/495/447 284/419/409 232/516/251 270/517/253
f 286/428/413 285/495/447 270/517/253 237/518/255
f 287/429/414 286/428/413 237/518/255 236/519/257
f 288/431/415 287/429/414 236/519/257 238/520/259
f 289/463/431 288/431/415 238/520/259 254/521/261
f 290/461/430 289/463/431 254/521/261 253/522/263
f 291/459/429 290/461/430 253/522/263 252/523/265
f 292/456/427 291/459/429 252/523/265 251/524/267
f 293/457/428 292/456/427 251/524/267 250/525/269
f 294/493/446 293/457/428 250/525/269 269/526/271
f 295/392/395 294/493/446 269/526/271 219/527/273
f 296/393/396 295/392/395 219/527/273 218/528/275
f 297/395/397 296/393/396 218/528/275 220/529/277
f 298/501/450 297/395/397 220/529/277 273/530/279
f 299/499/449 298/501/450 273/530/279 272/531/281
f 300/449/424 299/499/449 272/531/281 247/532/283
f 301/447/423 300/449/424 247/532/283 246/533/285
f 302/445/422 301/447/423 246/533/285 245/534/287
f 303/443/421 302/445/422 245/534/287 244/535/289
f 304/438/418 303/443/421 244/535/289 242/536/291
f 305/439/419 304/438/418 242/536/291 241/537/293
f 306/441/420 305/439/419 241/537/293 243/538/295
f 307/473/436 306/441/420 243/538/295 259/539/297
f 308/470/434 307/473/436 259/539/297 258/540/299
f 309/471/435 308/470/434 258/540/299 257/541/301
f 310/466/432 309/471/435 257/541/301 256/542/303
f 311/467/433 310/466/432 256/542/303 255/543/305
f 312/503/451 311/467/433 255/543/305 274/544/307
f 313/368/383 312/503/451 274/544/307 207/545/309
f 314/369/384 313/368/383 207/545/309 206/546/311
f 315/371/385 314/369/384 206/546/311 208/547/313
f 316/382/390 315/371/385 208/547/313 214/548/315
f 317/383/391 316/382/390 214/548/315 213/549/317
f 318/389/394 317/383/391 213/549/317 217/550/319
f 319/386/392 318/389/394 217/550/319 216/551/321
f 320/387/393 319/386/392 216/551/321 215/552/323
f 321/505/452 320/387/393 215/552/323 275/553/325
f 322/374/386 321/505/452 275/553/325 210/554/327
f 323/375/387 322/374/386 210/554/327 209/555/329
f 324/378/388 323/375/387 209/555/329 212/556/331
f 325/379/389 324/378/388 212/556/331 211/557/333
f 326/476/437 325/379/389 211/557/333 261/558/335
f 327/477/438 326/476/437 261/558/335 260/559/337
f 328/480/439 327/477/438 260/559/337 263/560/339
f 329/481/440 328/480/439 263/560/339 262/561/341
f 330/507/453 329/481/440 262/561/341 276/562/343
f 331/435/417 330/507/453 276/562/343 240/563/345
f 332/433/416 331/435/417 240/563/345 239/564/347
f 333/407/403 332/433/416 239/564/347 226/565/349
f 334/405/402 333/407/403 226/565/349 225/566/351
f 335/398/398 334/405/402 225/566/351 222/567/353
f 336/399/399 335/398/398 222/567/353 221/568/355
f 337/402/400 336/399/399 221/568/355 224/569/357
f 338/403/401 337/402/400 224/569/357 223/570/359
f 339/509/454 338/403/401 223/570/359 277/571/361
f 340/410/404 339/509/454 277/571/361 228/572/363
f 341/411/405 340/410/404 228/572/363 227/573/365
f 342/413/406 341/411/405 227/573/365 229/574/367
f 343/487/443 342/413/406 229/574/367 266/575/369
f 344/484/441 343/487/443 266/575/369 265/576/371
f 345/485/442 344/484/441 265/576/371 264/577/373
f 346/490/444 345/485/442 264/577/373 268/578/375
f 347/491/445 346/490/444 268/578/375 267/579/377
f 348/497/448 347/491/445 267/579/377 271/580/379
f 349/453/426 348/497/448 271/580/379 249/581/381
f 278/451/425 349/453/426 249/581/381 248/510/240
s off
f 84/156/455 85/157/456 88/160/457 87/161/458
f 91/162/459 90/163/460 94/166/461 95/167/462
