# This file uses centimeters as units for non-parametric coordinates.

g default
v -24.902445 1.037580 -0.009943
v -23.619896 1.037580 -0.009943
v -23.619896 1.852334 -0.009943
v -24.902445 1.852334 -0.009943
v -24.259512 1.037580 -0.009943
v -24.259512 1.852334 -0.009943
v -24.902445 1.455940 -0.009943
v -24.259512 1.455940 -0.009943
v -23.619896 1.455940 -0.009943
v -24.945759 0.998200 -0.039197
v -23.576582 0.998200 -0.039197
v -24.945759 0.998200 0.024550
v -23.576582 0.998200 0.024549
v -24.945759 1.891713 0.024550
v -23.576582 1.891713 0.024549
v -24.945759 1.891713 -0.039197
v -23.576582 1.891713 -0.039197
v -24.900002 1.039131 0.024550
v -23.622337 1.039131 0.024549
v -23.622337 1.850782 0.024549
v -24.900002 1.850782 0.024550
v -24.900002 1.039131 -0.039196
v -23.622337 1.039131 -0.039197
v -23.622337 1.850782 -0.039197
v -24.900002 1.850782 -0.039196
v -24.692066 1.605802 0.000869
v -24.602524 1.606771 0.000869
v -24.692070 1.606042 0.021428
v -24.602528 1.607011 0.021428
v -24.694025 1.786879 0.019314
v -24.604485 1.787848 0.019314
v -24.694023 1.786639 -0.001245
v -24.604483 1.787608 -0.001245
v -23.760540 1.598085 -0.000515
v -23.662632 1.596223 -0.000515
v -23.760536 1.598270 0.021968
v -23.662626 1.596407 0.021968
v -23.756775 1.796012 0.020345
v -23.658865 1.794149 0.020345
v -23.756777 1.795827 -0.002138
v -23.658869 1.793965 -0.002138
v -24.081831 1.331533 -0.003018
v -23.983912 1.330286 -0.003018
v -24.081835 1.331341 0.019465
v -23.983915 1.330094 0.019465
v -24.079313 1.529103 0.021157
v -23.981394 1.527855 0.021157
v -24.079311 1.529295 -0.001327
v -23.981392 1.528047 -0.001327
v -23.912394 1.345788 0.000107
v -23.822847 1.346459 0.000107
v -23.912394 1.345917 0.020666
v -23.822849 1.346589 0.020666
v -23.913752 1.526768 0.019530
v -23.824205 1.527440 0.019530
v -23.913750 1.526639 -0.001030
v -23.824203 1.527311 -0.001030
v -24.229313 1.609786 -0.003803
v -24.141197 1.608140 -0.003803
v -24.229322 1.609323 0.016427
v -24.141205 1.607677 0.016427
v -24.225998 1.787247 0.020496
v -24.137882 1.785601 0.020496
v -24.225990 1.787709 0.000267
v -24.137875 1.786064 0.000267
v -23.761444 1.082653 0.000845
v -23.671906 1.081434 0.000845
v -23.761440 1.082889 0.021404
v -23.671904 1.081670 0.021404
v -23.758980 1.263721 0.019320
v -23.669441 1.262502 0.019320
v -23.758984 1.263484 -0.001238
v -23.669443 1.262265 -0.001238
v -24.804905 1.763804 -0.016684
v -24.804905 1.764019 0.038921
v -24.804905 1.799127 0.039197
v -24.797892 1.774469 0.030269
v -24.798384 1.799172 0.029624
v -24.798418 1.775041 -0.016697
v -24.811920 1.774469 0.030269
v -24.811428 1.799172 0.029624
v -24.811392 1.775041 -0.016697
v -24.648895 1.763804 -0.016684
v -24.648895 1.764019 0.038921
v -24.648895 1.799127 0.039197
v -24.641882 1.774469 0.030269
v -24.642372 1.799172 0.029624
v -24.642410 1.775041 -0.016697
v -24.655910 1.774469 0.030269
v -24.655418 1.799172 0.029624
v -24.655384 1.775041 -0.016697
v -24.492887 1.763804 -0.016684
v -24.492887 1.764019 0.038921
v -24.492887 1.799127 0.039197
v -24.485872 1.774469 0.030269
v -24.486364 1.799172 0.029624
v -24.486399 1.775041 -0.016697
v -24.499901 1.774469 0.030269
v -24.499409 1.799172 0.029624
v -24.499374 1.775041 -0.016697
v -24.336878 1.763804 -0.016684
v -24.336878 1.764019 0.038921
v -24.336878 1.799127 0.039197
v -24.329863 1.774469 0.030269
v -24.330355 1.799172 0.029624
v -24.330391 1.775041 -0.016697
v -24.343891 1.774469 0.030269
v -24.343399 1.799172 0.029624
v -24.343365 1.775041 -0.016697
v -24.180868 1.763804 -0.016684
v -24.180868 1.764019 0.038921
v -24.180868 1.799127 0.039197
v -24.173855 1.774469 0.030269
v -24.174345 1.799172 0.029624
v -24.174379 1.775041 -0.016697
v -24.187881 1.774469 0.030269
v -24.187389 1.799172 0.029624
v -24.187355 1.775041 -0.016697
v -24.024858 1.763804 -0.016684
v -24.024858 1.764019 0.038921
v -24.024858 1.799127 0.039197
v -24.017845 1.774469 0.030269
v -24.018335 1.799172 0.029624
v -24.018372 1.775041 -0.016697
v -24.031872 1.774469 0.030269
v -24.031382 1.799172 0.029624
v -24.031347 1.775041 -0.016697
v -23.868849 1.763804 -0.016684
v -23.868849 1.764019 0.038921
v -23.868849 1.799127 0.039197
v -23.861835 1.774469 0.030269
v -23.862328 1.799172 0.029624
v -23.862362 1.775041 -0.016697
v -23.875862 1.774469 0.030269
v -23.875372 1.799172 0.029624
v -23.875338 1.775041 -0.016697
v -23.712839 1.763804 -0.016684
v -23.712839 1.764019 0.038921
v -23.712839 1.799127 0.039197
v -23.705824 1.774469 0.030269
v -23.706318 1.799172 0.029624
v -23.706354 1.775041 -0.016697
v -23.719854 1.774469 0.030269
v -23.719362 1.799172 0.029624
v -23.719326 1.775041 -0.016697
v -23.712839 1.498314 -0.016684
v -23.712839 1.498530 0.038921
v -23.712839 1.533638 0.039197
v -23.705824 1.508979 0.030269
v -23.706318 1.533682 0.029624
v -23.706354 1.509552 -0.016697
v -23.719854 1.508979 0.030269
v -23.719362 1.533682 0.029624
v -23.719326 1.509552 -0.016697
v -23.868849 1.498314 -0.016684
v -23.868849 1.498530 0.038921
v -23.868849 1.533638 0.039197
v -23.861835 1.508979 0.030269
v -23.862328 1.533682 0.029624
v -23.862362 1.509552 -0.016697
v -23.875862 1.508979 0.030269
v -23.875372 1.533682 0.029624
v -23.875338 1.509552 -0.016697
v -24.024858 1.498314 -0.016684
v -24.024858 1.498530 0.038921
v -24.024858 1.533638 0.039197
v -24.017845 1.508979 0.030269
v -24.018335 1.533682 0.029624
v -24.018372 1.509552 -0.016697
v -24.031872 1.508979 0.030269
v -24.031382 1.533682 0.029624
v -24.031347 1.509552 -0.016697
v -24.180868 1.498314 -0.016684
v -24.180868 1.498530 0.038921
v -24.180868 1.533638 0.039197
v -24.173855 1.508979 0.030269
v -24.174345 1.533682 0.029624
v -24.174379 1.509552 -0.016697
v -24.187881 1.508979 0.030269
v -24.187389 1.533682 0.029624
v -24.187355 1.509552 -0.016697
v -24.336878 1.498314 -0.016684
v -24.336878 1.498530 0.038921
v -24.336878 1.533638 0.039197
v -24.329863 1.508979 0.030269
v -24.330355 1.533682 0.029624
v -24.330391 1.509552 -0.016697
v -24.343891 1.508979 0.030269
v -24.343399 1.533682 0.029624
v -24.343365 1.509552 -0.016697
v -24.492887 1.498314 -0.016684
v -24.492887 1.498530 0.038921
v -24.492887 1.533638 0.039197
v -24.485872 1.508979 0.030269
v -24.486364 1.533682 0.029624
v -24.486399 1.509552 -0.016697
v -24.499901 1.508979 0.030269
v -24.499409 1.533682 0.029624
v -24.499374 1.509552 -0.016697
v -24.648895 1.498314 -0.016684
v -24.648895 1.498530 0.038921
v -24.648895 1.533638 0.039197
v -24.641882 1.508979 0.030269
v -24.642372 1.533682 0.029624
v -24.642410 1.509552 -0.016697
v -24.655910 1.508979 0.030269
v -24.655418 1.533682 0.029624
v -24.655384 1.509552 -0.016697
v -24.804905 1.498314 -0.016684
v -24.804905 1.498530 0.038921
v -24.804905 1.533638 0.039197
v -24.797892 1.508979 0.030269
v -24.798384 1.533682 0.029624
v -24.798418 1.509552 -0.016697
v -24.811920 1.508979 0.030269
v -24.811428 1.533682 0.029624
v -24.811392 1.509552 -0.016697
v -23.712839 1.232824 -0.016684
v -23.712839 1.233040 0.038921
v -23.712839 1.268148 0.039197
v -23.705824 1.243490 0.030269
v -23.706318 1.268193 0.029624
v -23.706354 1.244062 -0.016697
v -23.719854 1.243490 0.030269
v -23.719362 1.268193 0.029624
v -23.719326 1.244062 -0.016697
v -23.868849 1.232824 -0.016684
v -23.868849 1.233040 0.038921
v -23.868849 1.268148 0.039197
v -23.861835 1.243490 0.030269
v -23.862328 1.268193 0.029624
v -23.862362 1.244062 -0.016697
v -23.875862 1.243490 0.030269
v -23.875372 1.268193 0.029624
v -23.875338 1.244062 -0.016697
v -24.024858 1.232824 -0.016684
v -24.024858 1.233040 0.038921
v -24.024858 1.268148 0.039197
v -24.017845 1.243490 0.030269
v -24.018335 1.268193 0.029624
v -24.018372 1.244062 -0.016697
v -24.031872 1.243490 0.030269
v -24.031382 1.268193 0.029624
v -24.031347 1.244062 -0.016697
v -24.180868 1.232824 -0.016684
v -24.180868 1.233040 0.038921
v -24.180868 1.268148 0.039197
v -24.173855 1.243490 0.030269
v -24.174345 1.268193 0.029624
v -24.174379 1.244062 -0.016697
v -24.187881 1.243490 0.030269
v -24.187389 1.268193 0.029624
v -24.187355 1.244062 -0.016697
v -24.336878 1.232824 -0.016684
v -24.336878 1.233040 0.038921
v -24.336878 1.268148 0.039197
v -24.329863 1.243490 0.030269
v -24.330355 1.268193 0.029624
v -24.330391 1.244062 -0.016697
v -24.343891 1.243490 0.030269
v -24.343399 1.268193 0.029624
v -24.343365 1.244062 -0.016697
v -24.492887 1.232824 -0.016684
v -24.492887 1.233040 0.038921
v -24.492887 1.268148 0.039197
v -24.485872 1.243490 0.030269
v -24.486364 1.268193 0.029624
v -24.486399 1.244062 -0.016697
v -24.499901 1.243490 0.030269
v -24.499409 1.268193 0.029624
v -24.499374 1.244062 -0.016697
v -24.648895 1.232824 -0.016684
v -24.648895 1.233040 0.038921
v -24.648895 1.268148 0.039197
v -24.641882 1.243490 0.030269
v -24.642372 1.268193 0.029624
v -24.642410 1.244062 -0.016697
v -24.655910 1.243490 0.030269
v -24.655418 1.268193 0.029624
v -24.655384 1.244062 -0.016697
v -24.804905 1.232824 -0.016684
v -24.804905 1.233040 0.038921
v -24.804905 1.268148 0.039197
v -24.797892 1.243490 0.030269
v -24.798384 1.268193 0.029624
v -24.798418 1.244062 -0.016697
v -24.811920 1.243490 0.030269
v -24.811428 1.268193 0.029624
v -24.811392 1.244062 -0.016697
v -24.068420 1.609786 0.000455
v -23.980309 1.607925 0.000455
v -24.068417 1.609941 0.020689
v -23.980303 1.608080 0.020689
v -24.064655 1.787898 0.019323
v -23.976545 1.786036 0.019323
v -24.064659 1.787742 -0.000912
v -23.976547 1.785881 -0.000912
v -24.902445 1.037580 -0.034122
v -23.619896 1.037580 -0.034122
v -23.619896 1.852334 -0.034122
v -24.902445 1.852334 -0.034122
v -24.259512 1.037580 -0.034122
v -24.259512 1.852334 -0.034122
v -24.902445 1.455940 -0.034122
v -24.259512 1.455940 -0.034122
v -23.619896 1.455940 -0.034122
v -24.383936 1.349885 0.001112
v -24.295815 1.351192 0.001112
v -24.383942 1.350136 0.021346
v -24.295818 1.351443 0.021346
v -24.386581 1.528104 0.019141
v -24.298458 1.529411 0.019141
v -24.386578 1.527853 -0.001093
v -24.298454 1.529160 -0.001093
v -24.231989 1.080742 0.001022
v -24.144865 1.079708 0.001022
v -24.231985 1.080962 0.021025
v -24.144863 1.079928 0.021025
v -24.229897 1.256912 0.019091
v -24.142775 1.255878 0.019091
v -24.229898 1.256692 -0.000913
v -24.142778 1.255658 -0.000913
v -24.535229 1.078447 -0.002033
v -24.445684 1.077509 -0.002033
v -24.535231 1.078264 0.018527
v -24.445686 1.077326 0.018527
v -24.533335 1.259107 0.020136
v -24.443794 1.258169 0.020136
v -24.533335 1.259290 -0.000423
v -24.443792 1.258352 -0.000423
v -24.536314 1.332322 -0.006558
v -24.438389 1.332749 -0.006558
v -24.536312 1.331596 0.015914
v -24.438385 1.332023 0.015914
v -24.537174 1.529275 0.022300
v -24.439247 1.529702 0.022300
v -24.537178 1.530001 -0.000173
v -24.439251 1.530428 -0.000173
v -24.692822 1.081500 0.000200
v -24.605728 1.083978 0.000200
v -24.692823 1.081601 0.020204
v -24.605730 1.084079 0.020204
v -24.697828 1.257501 0.019313
v -24.610737 1.259979 0.019313
v -24.697826 1.257400 -0.000691
v -24.610733 1.259878 -0.000691
v -24.844067 1.080089 -0.003016
v -24.754572 1.083167 -0.003016
v -24.844055 1.079763 0.017542
v -24.754559 1.082841 0.017542
v -24.850271 1.260493 0.020414
v -24.760777 1.263572 0.020414
v -24.850283 1.260820 -0.000144
v -24.760788 1.263898 -0.000144
v -24.854357 1.341786 0.000230
v -24.764814 1.340755 0.000230
v -24.854355 1.341933 0.020789
v -24.764814 1.340902 0.020789
v -24.852272 1.522777 0.019495
v -24.762730 1.521745 0.019495
v -24.852274 1.522630 -0.001065
v -24.762732 1.521598 -0.001065
v -24.384737 1.596361 0.003062
v -24.286829 1.598258 0.003062
v -24.384752 1.597083 0.025534
v -24.286842 1.598979 0.025534
v -24.388580 1.794728 0.019183
v -24.290670 1.796625 0.019183
v -24.388567 1.794006 -0.003289
v -24.290657 1.795903 -0.003289
v -23.767189 1.329856 0.000894
v -23.669279 1.328147 0.000894
v -23.767183 1.330252 0.023375
v -23.669271 1.328543 0.023375
v -23.763731 1.527976 0.019888
v -23.665819 1.526267 0.019888
v -23.763737 1.527580 -0.002592
v -23.665825 1.525871 -0.002592
v -24.532583 1.614683 -0.002192
v -24.445477 1.616614 -0.002192
v -24.532578 1.614439 0.017811
v -24.445473 1.616370 0.017811
v -24.536478 1.790356 0.019961
v -24.449373 1.792287 0.019961
v -24.536484 1.790601 -0.000043
v -24.449377 1.792531 -0.000043
v -24.079042 1.061269 -0.005179
v -23.981140 1.059218 -0.005179
v -24.079054 1.060751 0.017299
v -23.981150 1.058700 0.017299
v -24.074913 1.258440 0.021855
v -23.977009 1.256389 0.021855
v -24.074903 1.258957 -0.000623
v -23.976995 1.256907 -0.000623
v -24.849779 1.608809 0.000455
v -24.761667 1.606948 0.000455
v -24.849775 1.608964 0.020689
v -24.761662 1.607103 0.020689
v -24.846016 1.786921 0.019323
v -24.757904 1.785060 0.019323
v -24.846020 1.786766 -0.000912
v -24.757908 1.784904 -0.000912
vt 0.005377 0.005819
vt 0.996790 0.005819
vt 0.995958 0.300289
vt 0.006353 0.300289
vt 0.501436 0.005819
vt 0.006353 0.080627
vt 0.996790 0.224611
vt 0.501436 0.224611
vt 0.499419 0.080627
vt 0.995958 0.080627
vt 0.005377 0.224611
vt 0.499419 0.300289
vt -0.815861 0.426938
vt 1.815861 0.426938
vt 1.815861 0.390425
vt -0.815861 0.390425
vt -0.815861 0.357116
vt 1.815861 0.357116
vt 1.815861 0.393628
vt -0.815861 0.393628
vt 1.283229 0.447081
vt -0.296671 0.447081
vt -0.296670 0.395069
vt 1.283229 0.395068
vt -0.296670 0.408414
vt 1.283229 0.408414
vt 1.283229 0.356401
vt -0.296670 0.356401
vt 1.727910 0.357133
vt -0.727910 0.357133
vt -0.230063 0.357734
vt 1.216622 0.357734
vt -0.727910 0.390408
vt 1.727910 0.390408
vt 1.216622 0.393736
vt -0.230064 0.393736
vt 1.727910 0.393645
vt -0.727910 0.393645
vt -0.230063 0.409746
vt 1.216622 0.409746
vt -0.727910 0.426921
vt 1.727910 0.426921
vt 1.216622 0.445749
vt -0.230063 0.445749
vt 0.489212 0.835388
vt 0.619213 0.835388
vt 0.619270 0.858487
vt 0.489186 0.858487
vt 0.619390 0.976492
vt 0.489174 0.976492
vt 0.619349 0.999592
vt 0.489216 0.999591
vt 0.489174 0.976492
vt 0.619390 0.976492
vt 0.619270 0.858487
vt 0.489186 0.858487
vt 0.663673 0.858487
vt 0.663876 0.976492
vt 0.444689 0.976492
vt 0.444708 0.858487
vt 0.046248 0.501593
vt 0.176248 0.501593
vt 0.176305 0.524692
vt 0.046221 0.524692
vt 0.176426 0.642697
vt 0.046210 0.642697
vt 0.176384 0.665796
vt 0.046251 0.665796
vt 0.046210 0.642697
vt 0.176426 0.642697
vt 0.176305 0.524692
vt 0.046221 0.524692
vt 0.220708 0.524692
vt 0.220912 0.642697
vt 0.001724 0.642697
vt 0.001744 0.524692
vt 0.711915 0.667248
vt 0.841916 0.667247
vt 0.841973 0.690346
vt 0.711889 0.690347
vt 0.842093 0.808352
vt 0.711877 0.808351
vt 0.842052 0.831451
vt 0.711919 0.831450
vt 0.711877 0.808351
vt 0.842094 0.808352
vt 0.841973 0.690346
vt 0.711889 0.690347
vt 0.886376 0.690346
vt 0.886579 0.808352
vt 0.667392 0.808351
vt 0.667411 0.690347
vt 0.492066 0.500519
vt 0.622067 0.500518
vt 0.622124 0.523618
vt 0.492040 0.523618
vt 0.622244 0.641623
vt 0.492028 0.641622
vt 0.622203 0.664722
vt 0.492070 0.664721
vt 0.492028 0.641622
vt 0.622245 0.641623
vt 0.622124 0.523618
vt 0.492040 0.523618
vt 0.666527 0.523618
vt 0.666730 0.641623
vt 0.447543 0.641622
vt 0.447563 0.523618
vt 0.268969 0.859149
vt 0.396666 0.858487
vt 0.396654 0.858487
vt 0.268969 0.858844
vt 0.399173 0.975758
vt 0.271412 0.976492
vt 0.399173 0.976063
vt 0.271425 0.976492
vt 0.443456 0.858487
vt 0.443659 0.976063
vt 0.443658 0.975758
vt 0.443456 0.858487
vt 0.224472 0.976492
vt 0.224492 0.859149
vt 0.224492 0.858844
vt 0.224472 0.976492
vt 0.268951 0.501348
vt 0.398951 0.501347
vt 0.399008 0.524446
vt 0.268924 0.524447
vt 0.399129 0.642452
vt 0.268913 0.642451
vt 0.399087 0.665551
vt 0.268954 0.665550
vt 0.268913 0.642451
vt 0.399129 0.642452
vt 0.399008 0.524446
vt 0.268924 0.524447
vt 0.443411 0.524446
vt 0.443615 0.642452
vt 0.224427 0.642451
vt 0.224447 0.524447
vt 0.986989 0.600789
vt 0.986989 0.649753
vt 0.951056 0.625271
vt 0.942377 0.683546
vt 0.916050 0.716025
vt 0.916050 0.507310
vt 0.940400 0.507263
vt 0.930766 0.639206
vt 0.894833 0.639039
vt 0.895867 0.507263
vt 0.928346 0.546483
vt 0.933940 0.507263
vt 0.982905 0.507263
vt 0.984750 0.599986
vt 0.932095 0.599986
vt 0.943891 0.507263
vt 0.996545 0.507263
vt 0.994568 0.683546
vt 0.945868 0.683546
vt 0.930766 0.639206
vt 0.928346 0.546483
vt 0.889723 0.683546
vt 0.891700 0.507263
vt 0.986989 0.600789
vt 0.986989 0.649753
vt 0.951056 0.625271
vt 0.942377 0.683546
vt 0.916050 0.716025
vt 0.916050 0.507310
vt 0.940400 0.507263
vt 0.930766 0.639206
vt 0.894833 0.639039
vt 0.895867 0.507263
vt 0.928346 0.546483
vt 0.933940 0.507263
vt 0.982905 0.507263
vt 0.984750 0.599986
vt 0.932095 0.599986
vt 0.943891 0.507263
vt 0.996545 0.507263
vt 0.994568 0.683546
vt 0.945868 0.683546
vt 0.930766 0.639206
vt 0.928346 0.546483
vt 0.889723 0.683546
vt 0.891700 0.507263
vt 0.986989 0.600789
vt 0.986989 0.649753
vt 0.951056 0.625271
vt 0.942377 0.683546
vt 0.916050 0.716025
vt 0.916050 0.507310
vt 0.940400 0.507263
vt 0.930766 0.639206
vt 0.894833 0.639039
vt 0.895867 0.507263
vt 0.928346 0.546483
vt 0.933940 0.507263
vt 0.982905 0.507263
vt 0.984750 0.599986
vt 0.932095 0.599986
vt 0.943891 0.507263
vt 0.996545 0.507263
vt 0.994568 0.683546
vt 0.945868 0.683546
vt 0.930766 0.639206
vt 0.928346 0.546483
vt 0.889723 0.683546
vt 0.891700 0.507263
vt 0.986989 0.600789
vt 0.986989 0.649753
vt 0.951056 0.625271
vt 0.942377 0.683546
vt 0.916050 0.716025
vt 0.916050 0.507310
vt 0.940400 0.507263
vt 0.930766 0.639206
vt 0.894833 0.639039
vt 0.895867 0.507263
vt 0.928346 0.546483
vt 0.933940 0.507263
vt 0.982905 0.507263
vt 0.984750 0.599986
vt 0.932095 0.599986
vt 0.943891 0.507263
vt 0.996545 0.507263
vt 0.994568 0.683546
vt 0.945868 0.683546
vt 0.930766 0.639206
vt 0.928346 0.546483
vt 0.889723 0.683546
vt 0.891700 0.507263
vt 0.986989 0.600789
vt 0.986989 0.649753
vt 0.951056 0.625271
vt 0.942377 0.683546
vt 0.916050 0.716025
vt 0.916050 0.507310
vt 0.940400 0.507263
vt 0.930766 0.639206
vt 0.894833 0.639039
vt 0.895867 0.507263
vt 0.928346 0.546483
vt 0.933940 0.507263
vt 0.982905 0.507263
vt 0.984750 0.599986
vt 0.932095 0.599986
vt 0.943891 0.507263
vt 0.996545 0.507263
vt 0.994568 0.683546
vt 0.945868 0.683546
vt 0.930766 0.639206
vt 0.928346 0.546483
vt 0.889723 0.683546
vt 0.891700 0.507263
vt 0.986989 0.600789
vt 0.986989 0.649753
vt 0.951056 0.625271
vt 0.942377 0.683546
vt 0.916050 0.716025
vt 0.916050 0.507310
vt 0.940400 0.507263
vt 0.930766 0.639206
vt 0.894833 0.639039
vt 0.895867 0.507263
vt 0.928346 0.546483
vt 0.933940 0.507263
vt 0.982905 0.507263
vt 0.984750 0.599986
vt 0.932095 0.599986
vt 0.943891 0.507263
vt 0.996545 0.507263
vt 0.994568 0.683546
vt 0.945868 0.683546
vt 0.930766 0.639206
vt 0.928346 0.546483
vt 0.889723 0.683546
vt 0.891700 0.507263
vt 0.986989 0.600789
vt 0.986989 0.649753
vt 0.951056 0.625271
vt 0.942377 0.683546
vt 0.916050 0.716025
vt 0.916050 0.507310
vt 0.940400 0.507263
vt 0.930766 0.639206
vt 0.894833 0.639039
vt 0.895867 0.507263
vt 0.928346 0.546483
vt 0.933940 0.507263
vt 0.982905 0.507263
vt 0.984750 0.599986
vt 0.932095 0.599986
vt 0.943891 0.507263
vt 0.996545 0.507263
vt 0.994568 0.683546
vt 0.945868 0.683546
vt 0.930766 0.639206
vt 0.928346 0.546483
vt 0.889723 0.683546
vt 0.891700 0.507263
vt 0.986989 0.600789
vt 0.986989 0.649753
vt 0.951056 0.625271
vt 0.942377 0.683546
vt 0.916050 0.716025
vt 0.916050 0.507310
vt 0.940400 0.507263
vt 0.930766 0.639206
vt 0.894833 0.639039
vt 0.895867 0.507263
vt 0.928346 0.546483
vt 0.933940 0.507263
vt 0.982905 0.507263
vt 0.984750 0.599986
vt 0.932095 0.599986
vt 0.943891 0.507263
vt 0.996545 0.507263
vt 0.994568 0.683546
vt 0.945868 0.683546
vt 0.930766 0.639206
vt 0.928346 0.546483
vt 0.889723 0.683546
vt 0.891700 0.507263
vt 0.986989 0.600789
vt 0.986989 0.649753
vt 0.951056 0.625271
vt 0.942377 0.683546
vt 0.916050 0.716025
vt 0.916050 0.507310
vt 0.940400 0.507263
vt 0.930766 0.639206
vt 0.894833 0.639039
vt 0.895867 0.507263
vt 0.928346 0.546483
vt 0.933940 0.507263
vt 0.982905 0.507263
vt 0.984750 0.599986
vt 0.932095 0.599986
vt 0.943891 0.507263
vt 0.996545 0.507263
vt 0.994568 0.683546
vt 0.945868 0.683546
vt 0.930766 0.639206
vt 0.928346 0.546483
vt 0.889723 0.683546
vt 0.891700 0.507263
vt 0.986989 0.600789
vt 0.986989 0.649753
vt 0.951056 0.625271
vt 0.942377 0.683546
vt 0.916050 0.716025
vt 0.916050 0.507310
vt 0.940400 0.507263
vt 0.930766 0.639206
vt 0.894833 0.639039
vt 0.895867 0.507263
vt 0.928346 0.546483
vt 0.933940 0.507263
vt 0.982905 0.507263
vt 0.984750 0.599986
vt 0.932095 0.599986
vt 0.943891 0.507263
vt 0.996545 0.507263
vt 0.994568 0.683546
vt 0.945868 0.683546
vt 0.930766 0.639206
vt 0.928346 0.546483
vt 0.889723 0.683546
vt 0.891700 0.507263
vt 0.986989 0.600789
vt 0.986989 0.649753
vt 0.951056 0.625271
vt 0.942377 0.683546
vt 0.916050 0.716025
vt 0.916050 0.507310
vt 0.940400 0.507263
vt 0.930766 0.639206
vt 0.894833 0.639039
vt 0.895867 0.507263
vt 0.928346 0.546483
vt 0.933940 0.507263
vt 0.982905 0.507263
vt 0.984750 0.599986
vt 0.932095 0.599986
vt 0.943891 0.507263
vt 0.996545 0.507263
vt 0.994568 0.683546
vt 0.945868 0.683546
vt 0.930766 0.639206
vt 0.928346 0.546483
vt 0.889723 0.683546
vt 0.891700 0.507263
vt 0.986989 0.600789
vt 0.986989 0.649753
vt 0.951056 0.625271
vt 0.942377 0.683546
vt 0.916050 0.716025
vt 0.916050 0.507310
vt 0.940400 0.507263
vt 0.930766 0.639206
vt 0.894833 0.639039
vt 0.895867 0.507263
vt 0.928346 0.546483
vt 0.933940 0.507263
vt 0.982905 0.507263
vt 0.984750 0.599986
vt 0.932095 0.599986
vt 0.943891 0.507263
vt 0.996545 0.507263
vt 0.994568 0.683546
vt 0.945868 0.683546
vt 0.930766 0.639206
vt 0.928346 0.546483
vt 0.889723 0.683546
vt 0.891700 0.507263
vt 0.986989 0.600789
vt 0.986989 0.649753
vt 0.951056 0.625271
vt 0.942377 0.683546
vt 0.916050 0.716025
vt 0.916050 0.507310
vt 0.940400 0.507263
vt 0.930766 0.639206
vt 0.894833 0.639039
vt 0.895867 0.507263
vt 0.928346 0.546483
vt 0.933940 0.507263
vt 0.982905 0.507263
vt 0.984750 0.599986
vt 0.932095 0.599986
vt 0.943891 0.507263
vt 0.996545 0.507263
vt 0.994568 0.683546
vt 0.945868 0.683546
vt 0.930766 0.639206
vt 0.928346 0.546483
vt 0.889723 0.683546
vt 0.891700 0.507263
vt 0.986989 0.600789
vt 0.986989 0.649753
vt 0.951056 0.625271
vt 0.942377 0.683546
vt 0.916050 0.716025
vt 0.916050 0.507310
vt 0.940400 0.507263
vt 0.930766 0.639206
vt 0.894833 0.639039
vt 0.895867 0.507263
vt 0.928346 0.546483
vt 0.933940 0.507263
vt 0.982905 0.507263
vt 0.984750 0.599986
vt 0.932095 0.599986
vt 0.943891 0.507263
vt 0.996545 0.507263
vt 0.994568 0.683546
vt 0.945868 0.683546
vt 0.930766 0.639206
vt 0.928346 0.546483
vt 0.889723 0.683546
vt 0.891700 0.507263
vt 0.986989 0.600789
vt 0.986989 0.649753
vt 0.951056 0.625271
vt 0.942377 0.683546
vt 0.916050 0.716025
vt 0.916050 0.507310
vt 0.940400 0.507263
vt 0.930766 0.639206
vt 0.894833 0.639039
vt 0.895867 0.507263
vt 0.928346 0.546483
vt 0.933940 0.507263
vt 0.982905 0.507263
vt 0.984750 0.599986
vt 0.932095 0.599986
vt 0.943891 0.507263
vt 0.996545 0.507263
vt 0.994568 0.683546
vt 0.945868 0.683546
vt 0.930766 0.639206
vt 0.928346 0.546483
vt 0.889723 0.683546
vt 0.891700 0.507263
vt 0.986989 0.600789
vt 0.986989 0.649753
vt 0.951056 0.625271
vt 0.942377 0.683546
vt 0.916050 0.716025
vt 0.916050 0.507310
vt 0.940400 0.507263
vt 0.930766 0.639206
vt 0.894833 0.639039
vt 0.895867 0.507263
vt 0.928346 0.546483
vt 0.933940 0.507263
vt 0.982905 0.507263
vt 0.984750 0.599986
vt 0.932095 0.599986
vt 0.943891 0.507263
vt 0.996545 0.507263
vt 0.994568 0.683546
vt 0.945868 0.683546
vt 0.930766 0.639206
vt 0.928346 0.546483
vt 0.889723 0.683546
vt 0.891700 0.507263
vt 0.986989 0.600789
vt 0.986989 0.649753
vt 0.951056 0.625271
vt 0.942377 0.683546
vt 0.916050 0.716025
vt 0.916050 0.507310
vt 0.940400 0.507263
vt 0.930766 0.639206
vt 0.894833 0.639039
vt 0.895867 0.507263
vt 0.928346 0.546483
vt 0.933940 0.507263
vt 0.982905 0.507263
vt 0.984750 0.599986
vt 0.932095 0.599986
vt 0.943891 0.507263
vt 0.996545 0.507263
vt 0.994568 0.683546
vt 0.945868 0.683546
vt 0.930766 0.639206
vt 0.928346 0.546483
vt 0.889723 0.683546
vt 0.891700 0.507263
vt 0.986989 0.600789
vt 0.986989 0.649753
vt 0.951056 0.625271
vt 0.942377 0.683546
vt 0.916050 0.716025
vt 0.916050 0.507310
vt 0.940400 0.507263
vt 0.930766 0.639206
vt 0.894833 0.639039
vt 0.895867 0.507263
vt 0.928346 0.546483
vt 0.933940 0.507263
vt 0.982905 0.507263
vt 0.984750 0.599986
vt 0.932095 0.599986
vt 0.943891 0.507263
vt 0.996545 0.507263
vt 0.994568 0.683546
vt 0.945868 0.683546
vt 0.930766 0.639206
vt 0.928346 0.546483
vt 0.889723 0.683546
vt 0.891700 0.507263
vt 0.986989 0.600789
vt 0.986989 0.649753
vt 0.951056 0.625271
vt 0.942377 0.683546
vt 0.916050 0.716025
vt 0.916050 0.507310
vt 0.940400 0.507263
vt 0.930766 0.639206
vt 0.894833 0.639039
vt 0.895867 0.507263
vt 0.928346 0.546483
vt 0.933940 0.507263
vt 0.982905 0.507263
vt 0.984750 0.599986
vt 0.932095 0.599986
vt 0.943891 0.507263
vt 0.996545 0.507263
vt 0.994568 0.683546
vt 0.945868 0.683546
vt 0.930766 0.639206
vt 0.928346 0.546483
vt 0.889723 0.683546
vt 0.891700 0.507263
vt 0.986989 0.600789
vt 0.986989 0.649753
vt 0.951056 0.625271
vt 0.942377 0.683546
vt 0.916050 0.716025
vt 0.916050 0.507310
vt 0.940400 0.507263
vt 0.930766 0.639206
vt 0.894833 0.639039
vt 0.895867 0.507263
vt 0.928346 0.546483
vt 0.933940 0.507263
vt 0.982905 0.507263
vt 0.984750 0.599986
vt 0.932095 0.599986
vt 0.943891 0.507263
vt 0.996545 0.507263
vt 0.994568 0.683546
vt 0.945868 0.683546
vt 0.930766 0.639206
vt 0.928346 0.546483
vt 0.889723 0.683546
vt 0.891700 0.507263
vt 0.986989 0.600789
vt 0.986989 0.649753
vt 0.951056 0.625271
vt 0.942377 0.683546
vt 0.916050 0.716025
vt 0.916050 0.507310
vt 0.940400 0.507263
vt 0.930766 0.639206
vt 0.894833 0.639039
vt 0.895867 0.507263
vt 0.928346 0.546483
vt 0.933940 0.507263
vt 0.982905 0.507263
vt 0.984750 0.599986
vt 0.932095 0.599986
vt 0.943891 0.507263
vt 0.996545 0.507263
vt 0.994568 0.683546
vt 0.945868 0.683546
vt 0.930766 0.639206
vt 0.928346 0.546483
vt 0.889723 0.683546
vt 0.891700 0.507263
vt 0.986989 0.600789
vt 0.986989 0.649753
vt 0.951056 0.625271
vt 0.942377 0.683546
vt 0.916050 0.716025
vt 0.916050 0.507310
vt 0.940400 0.507263
vt 0.930766 0.639206
vt 0.894833 0.639039
vt 0.895867 0.507263
vt 0.928346 0.546483
vt 0.933940 0.507263
vt 0.982905 0.507263
vt 0.984750 0.599986
vt 0.932095 0.599986
vt 0.943891 0.507263
vt 0.996545 0.507263
vt 0.994568 0.683546
vt 0.945868 0.683546
vt 0.930766 0.639206
vt 0.928346 0.546483
vt 0.889723 0.683546
vt 0.891700 0.507263
vt 0.986989 0.600789
vt 0.986989 0.649753
vt 0.951056 0.625271
vt 0.942377 0.683546
vt 0.916050 0.716025
vt 0.916050 0.507310
vt 0.940400 0.507263
vt 0.930766 0.639206
vt 0.894833 0.639039
vt 0.895867 0.507263
vt 0.928346 0.546483
vt 0.933940 0.507263
vt 0.982905 0.507263
vt 0.984750 0.599986
vt 0.932095 0.599986
vt 0.943891 0.507263
vt 0.996545 0.507263
vt 0.994568 0.683546
vt 0.945868 0.683546
vt 0.930766 0.639206
vt 0.928346 0.546483
vt 0.889723 0.683546
vt 0.891700 0.507263
vt 0.986989 0.600789
vt 0.986989 0.649753
vt 0.951056 0.625271
vt 0.942377 0.683546
vt 0.916050 0.716025
vt 0.916050 0.507310
vt 0.940400 0.507263
vt 0.930766 0.639206
vt 0.894833 0.639039
vt 0.895867 0.507263
vt 0.928346 0.546483
vt 0.933940 0.507263
vt 0.982905 0.507263
vt 0.984750 0.599986
vt 0.932095 0.599986
vt 0.943891 0.507263
vt 0.996545 0.507263
vt 0.994568 0.683546
vt 0.945868 0.683546
vt 0.930766 0.639206
vt 0.928346 0.546483
vt 0.889723 0.683546
vt 0.891700 0.507263
vt 0.046248 0.835388
vt 0.176248 0.835388
vt 0.176305 0.858487
vt 0.046221 0.858487
vt 0.176426 0.976492
vt 0.046210 0.976492
vt 0.176384 0.999592
vt 0.046251 0.999591
vt 0.046210 0.976492
vt 0.176426 0.976492
vt 0.176305 0.858487
vt 0.046221 0.858487
vt 0.220708 0.858487
vt 0.220912 0.976492
vt 0.001724 0.976492
vt 0.001744 0.858487
vt 0.092814 0.002401
vt 0.092814 0.222063
vt 0.546767 0.222063
vt 0.546767 0.002401
vt 1.000075 0.222063
vt 1.000075 0.002401
vt 0.004223 0.084045
vt 0.004223 0.302838
vt 0.458175 0.302838
vt 0.458175 0.084045
vt 0.911484 0.302838
vt 0.911484 0.084045
vt 0.711648 0.501700
vt 0.841648 0.501699
vt 0.841705 0.524799
vt 0.711621 0.524799
vt 0.841826 0.642804
vt 0.711610 0.642804
vt 0.841784 0.665903
vt 0.711652 0.665903
vt 0.711610 0.642804
vt 0.841826 0.642804
vt 0.841705 0.524799
vt 0.711621 0.524799
vt 0.886108 0.524799
vt 0.886312 0.642804
vt 0.667124 0.642804
vt 0.667144 0.524799
vt 0.712098 0.835388
vt 0.842099 0.835388
vt 0.842156 0.858487
vt 0.712072 0.858487
vt 0.842276 0.976492
vt 0.712060 0.976492
vt 0.842235 0.999592
vt 0.712102 0.999591
vt 0.712060 0.976492
vt 0.842276 0.976492
vt 0.842156 0.858487
vt 0.712072 0.858487
vt 0.886559 0.858487
vt 0.886762 0.976492
vt 0.667575 0.976492
vt 0.667594 0.858487
vt 0.046248 0.667080
vt 0.176248 0.667079
vt 0.176305 0.690178
vt 0.046221 0.690179
vt 0.176426 0.808184
vt 0.046210 0.808183
vt 0.176384 0.831283
vt 0.046251 0.831282
vt 0.046210 0.808183
vt 0.176426 0.808183
vt 0.176305 0.690178
vt 0.046221 0.690179
vt 0.220708 0.690178
vt 0.220912 0.808183
vt 0.001724 0.808183
vt 0.001744 0.690179
vt 0.046248 0.501593
vt 0.176248 0.501593
vt 0.176305 0.524692
vt 0.046221 0.524692
vt 0.176426 0.642697
vt 0.046210 0.642697
vt 0.176384 0.665796
vt 0.046251 0.665796
vt 0.046210 0.642697
vt 0.176426 0.642697
vt 0.176305 0.524692
vt 0.046221 0.524692
vt 0.220708 0.524692
vt 0.220912 0.642697
vt 0.001724 0.642697
vt 0.001744 0.524692
vt 0.711915 0.667248
vt 0.841916 0.667247
vt 0.841973 0.690346
vt 0.711889 0.690347
vt 0.842093 0.808352
vt 0.711877 0.808351
vt 0.842052 0.831451
vt 0.711919 0.831450
vt 0.711877 0.808351
vt 0.842094 0.808352
vt 0.841973 0.690346
vt 0.711889 0.690347
vt 0.886376 0.690346
vt 0.886579 0.808352
vt 0.667392 0.808351
vt 0.667411 0.690347
vt 0.492066 0.500519
vt 0.622067 0.500518
vt 0.622124 0.523618
vt 0.492040 0.523618
vt 0.622244 0.641623
vt 0.492028 0.641622
vt 0.622203 0.664722
vt 0.492070 0.664721
vt 0.492028 0.641622
vt 0.622245 0.641623
vt 0.622124 0.523618
vt 0.492040 0.523618
vt 0.666527 0.523618
vt 0.666730 0.641623
vt 0.447543 0.641622
vt 0.447563 0.523618
vt 0.268996 0.835388
vt 0.398996 0.835388
vt 0.399053 0.858487
vt 0.268969 0.858487
vt 0.399174 0.976492
vt 0.268958 0.976492
vt 0.399132 0.999592
vt 0.268999 0.999591
vt 0.268957 0.976492
vt 0.399174 0.976492
vt 0.399053 0.858487
vt 0.268969 0.858487
vt 0.443456 0.858487
vt 0.443659 0.976492
vt 0.224472 0.976492
vt 0.224492 0.858487
vt 0.268951 0.501348
vt 0.398951 0.501347
vt 0.399008 0.524446
vt 0.268924 0.524447
vt 0.399129 0.642452
vt 0.268913 0.642451
vt 0.399087 0.665551
vt 0.268954 0.665550
vt 0.268913 0.642451
vt 0.399129 0.642452
vt 0.399008 0.524446
vt 0.268924 0.524447
vt 0.443411 0.524446
vt 0.443615 0.642452
vt 0.224427 0.642451
vt 0.224447 0.524447
vt 0.268951 0.668361
vt 0.398951 0.668361
vt 0.399008 0.691460
vt 0.268924 0.691460
vt 0.399129 0.809465
vt 0.268913 0.809465
vt 0.399087 0.832564
vt 0.268954 0.832564
vt 0.268913 0.809465
vt 0.399129 0.809465
vt 0.399008 0.691460
vt 0.268924 0.691460
vt 0.443411 0.691460
vt 0.443615 0.809465
vt 0.224427 0.809465
vt 0.224447 0.691460
vt 0.491699 0.668361
vt 0.621699 0.668361
vt 0.621756 0.691460
vt 0.491672 0.691460
vt 0.621877 0.809465
vt 0.491661 0.809465
vt 0.621835 0.832564
vt 0.491702 0.832564
vt 0.491660 0.809465
vt 0.621877 0.809465
vt 0.621756 0.691460
vt 0.491672 0.691460
vt 0.666159 0.691460
vt 0.666362 0.809465
vt 0.447175 0.809465
vt 0.447195 0.691460
vt 0.489212 0.835388
vt 0.619213 0.835388
vt 0.619270 0.858487
vt 0.489186 0.858487
vt 0.619390 0.976492
vt 0.489174 0.976492
vt 0.619349 0.999592
vt 0.489216 0.999591
vt 0.489174 0.976492
vt 0.619390 0.976492
vt 0.619270 0.858487
vt 0.489186 0.858487
vt 0.663673 0.858487
vt 0.663876 0.976492
vt 0.444689 0.976492
vt 0.444708 0.858487
vt 0.046248 0.835388
vt 0.176248 0.835388
vt 0.176305 0.858487
vt 0.046221 0.858487
vt 0.176426 0.976492
vt 0.046210 0.976492
vt 0.176384 0.999592
vt 0.046251 0.999591
vt 0.046210 0.976492
vt 0.176426 0.976492
vt 0.176305 0.858487
vt 0.046221 0.858487
vt 0.220708 0.858487
vt 0.220912 0.976492
vt 0.001724 0.976492
vt 0.001744 0.858487
vn -0.000000 0.000000 1.000000
vn 0.000000 0.000000 1.000000
vn 0.000000 0.000000 1.000000
vn -0.000000 0.000000 1.000000
vn 0.000000 0.000000 1.000000
vn 0.000000 0.000000 1.000000
vn -0.000000 0.000000 1.000000
vn 0.000000 0.000000 1.000000
vn 0.000000 0.000000 1.000000
vn 0.000000 -1.000000 0.000000
vn 0.000000 -1.000000 0.000000
vn 0.000000 -1.000000 0.000000
vn 0.000000 -1.000000 0.000000
vn 0.000000 1.000000 0.000000
vn 0.000000 1.000000 0.000000
vn 0.000000 1.000000 0.000000
vn 0.000000 1.000000 0.000000
vn 1.000000 0.000000 0.000000
vn 1.000000 0.000000 0.000000
vn 1.000000 0.000000 0.000000
vn 1.000000 0.000000 0.000000
vn -1.000000 0.000000 0.000000
vn -1.000000 0.000000 0.000000
vn -1.000000 0.000000 0.000000
vn -1.000000 0.000000 0.000000
vn 0.000000 -0.000001 1.000000
vn 0.000003 -0.000001 1.000000
vn 0.000003 -0.000001 1.000000
vn 0.000000 -0.000001 1.000000
vn 0.000003 0.000001 1.000000
vn 0.000003 0.000001 1.000000
vn 0.000000 0.000001 1.000000
vn 0.000000 0.000001 1.000000
vn 0.000000 1.000000 0.000000
vn 0.000000 1.000000 0.000000
vn 0.000000 1.000000 0.000000
vn 0.000000 1.000000 0.000000
vn -1.000000 0.000000 0.000000
vn -1.000000 0.000000 0.000000
vn -1.000000 0.000000 0.000000
vn -1.000000 0.000000 0.000000
vn 0.000000 -1.000000 0.000000
vn 0.000000 -1.000000 0.000000
vn 0.000000 -1.000000 0.000000
vn 0.000000 -1.000000 0.000000
vn 1.000000 0.000000 0.000000
vn 1.000000 0.000000 0.000000
vn 1.000000 0.000000 0.000000
vn 1.000000 0.000000 0.000000
vn -0.000000 -0.000003 -1.000000
vn -0.000000 -0.000003 -1.000000
vn -0.000000 -0.000003 -1.000000
vn -0.000000 -0.000003 -1.000000
vn -0.000000 0.000003 -1.000000
vn -0.000000 0.000003 -1.000000
vn -0.000000 0.000003 -1.000000
vn -0.000000 0.000003 -1.000000
vn 0.000005 0.000000 -1.000000
vn 0.000005 0.000000 -1.000000
vn 0.000005 0.000000 -1.000000
vn 0.000005 0.000000 -1.000000
vn 0.000000 0.000000 -1.000000
vn 0.000000 0.000000 -1.000000
vn 0.000000 0.000000 -1.000000
vn 0.000000 0.000000 -1.000000
vn 0.010821 -0.999873 0.011678
vn 0.010821 -0.999873 0.011678
vn 0.010821 -0.999873 0.011678
vn 0.010821 -0.999873 0.011678
vn -0.000127 0.011692 0.999932
vn -0.000127 0.011692 0.999932
vn -0.000127 0.011692 0.999932
vn -0.000127 0.011692 0.999932
vn -0.010820 0.999873 -0.011690
vn -0.010820 0.999873 -0.011690
vn -0.010820 0.999873 -0.011690
vn -0.010820 0.999873 -0.011690
vn 0.000127 -0.011692 -0.999932
vn 0.000127 -0.011692 -0.999932
vn 0.000127 -0.011692 -0.999932
vn 0.000127 -0.011692 -0.999932
vn 0.999942 0.010820 0.000013
vn 0.999942 0.010820 0.000013
vn 0.999942 0.010820 0.000013
vn 0.999942 0.010820 0.000013
vn -0.999942 -0.010803 -0.000013
vn -0.999942 -0.010803 -0.000013
vn -0.999942 -0.010803 -0.000013
vn -0.999942 -0.010803 -0.000013
vn -0.019021 -0.999786 0.008197
vn -0.019021 -0.999786 0.008197
vn -0.019021 -0.999786 0.008197
vn -0.019021 -0.999786 0.008197
vn 0.000156 0.008203 0.999966
vn 0.000156 0.008203 0.999966
vn 0.000156 0.008203 0.999966
vn 0.000156 0.008203 0.999966
vn 0.019020 0.999785 -0.008215
vn 0.019020 0.999785 -0.008215
vn 0.019020 0.999785 -0.008215
vn 0.019020 0.999785 -0.008215
vn -0.000156 -0.008203 -0.999966
vn -0.000156 -0.008203 -0.999966
vn -0.000156 -0.008203 -0.999966
vn -0.000156 -0.008203 -0.999966
vn 0.999819 -0.019019 -0.000056
vn 0.999819 -0.019019 -0.000056
vn 0.999819 -0.019019 -0.000056
vn 0.999819 -0.019019 -0.000056
vn -0.999819 0.019019 -0.000029
vn -0.999819 0.019019 -0.000029
vn -0.999819 0.019019 -0.000029
vn -0.999819 0.019019 -0.000029
vn -0.012739 -0.999882 -0.008547
vn -0.012739 -0.999882 -0.008547
vn -0.012739 -0.999882 -0.008547
vn -0.012739 -0.999882 -0.008547
vn -0.000109 -0.008551 0.999963
vn -0.000109 -0.008551 0.999963
vn -0.000109 -0.008551 0.999963
vn -0.000109 -0.008551 0.999963
vn 0.012740 0.999882 0.008546
vn 0.012740 0.999882 0.008546
vn 0.012740 0.999882 0.008546
vn 0.012740 0.999882 0.008546
vn 0.000109 0.008551 -0.999963
vn 0.000109 0.008551 -0.999963
vn 0.000109 0.008551 -0.999963
vn 0.000109 0.008551 -0.999963
vn 0.999919 -0.012747 0.000018
vn 0.999919 -0.012747 0.000018
vn 0.999919 -0.012747 0.000018
vn 0.999919 -0.012747 0.000018
vn -0.999919 0.012747 -0.000018
vn -0.999919 0.012747 -0.000018
vn -0.999919 0.012747 -0.000018
vn -0.999919 0.012747 -0.000018
vn 0.007504 -0.999952 0.006281
vn 0.007504 -0.999952 0.006281
vn 0.007504 -0.999952 0.006281
vn 0.007504 -0.999952 0.006281
vn -0.000047 0.006282 0.999980
vn -0.000047 0.006282 0.999980
vn -0.000047 0.006282 0.999980
vn -0.000047 0.006282 0.999980
vn -0.007505 0.999952 -0.006285
vn -0.007505 0.999952 -0.006285
vn -0.007505 0.999952 -0.006285
vn -0.007505 0.999952 -0.006285
vn 0.000047 -0.006283 -0.999980
vn 0.000047 -0.006283 -0.999980
vn 0.000047 -0.006283 -0.999980
vn 0.000047 -0.006283 -0.999980
vn 0.999972 0.007494 0.000046
vn 0.999972 0.007494 0.000046
vn 0.999972 0.007494 0.000046
vn 0.999972 0.007494 0.000046
vn -0.999972 -0.007502 0.000001
vn -0.999972 -0.007502 0.000001
vn -0.999972 -0.007502 0.000001
vn -0.999972 -0.007502 0.000001
vn -0.018671 -0.999564 -0.022871
vn -0.018671 -0.999564 -0.022871
vn -0.018671 -0.999564 -0.022871
vn -0.018671 -0.999564 -0.022871
vn -0.000427 -0.022858 0.999739
vn -0.000427 -0.022858 0.999739
vn -0.000427 -0.022858 0.999739
vn -0.000427 -0.022858 0.999739
vn 0.018670 0.999564 0.022863
vn 0.018670 0.999564 0.022863
vn 0.018670 0.999564 0.022863
vn 0.018670 0.999564 0.022863
vn 0.000427 0.022858 -0.999739
vn 0.000427 0.022858 -0.999739
vn 0.000427 0.022858 -0.999739
vn 0.000427 0.022858 -0.999739
vn 0.999826 -0.018675 -0.000050
vn 0.999826 -0.018675 -0.000050
vn 0.999826 -0.018675 -0.000050
vn 0.999826 -0.018675 -0.000050
vn -0.999826 0.018675 0.000003
vn -0.999826 0.018675 0.000003
vn -0.999826 0.018675 0.000003
vn -0.999826 0.018675 0.000003
vn -0.013613 -0.999841 0.011515
vn -0.013613 -0.999841 0.011515
vn -0.013613 -0.999841 0.011515
vn -0.013613 -0.999841 0.011515
vn 0.000157 0.011518 0.999934
vn 0.000157 0.011518 0.999934
vn 0.000157 0.011518 0.999934
vn 0.000157 0.011518 0.999934
vn 0.013612 0.999841 -0.011513
vn 0.013612 0.999841 -0.011513
vn 0.013612 0.999841 -0.011513
vn 0.013612 0.999841 -0.011513
vn -0.000157 -0.011518 -0.999934
vn -0.000157 -0.011518 -0.999934
vn -0.000157 -0.011518 -0.999934
vn -0.000157 -0.011518 -0.999934
vn 0.999907 -0.013625 0.000064
vn 0.999907 -0.013625 0.000064
vn 0.999907 -0.013625 0.000064
vn 0.999907 -0.013625 0.000064
vn -0.999908 0.013593 0.000029
vn -0.999908 0.013593 0.000029
vn -0.999908 0.013593 0.000029
vn -0.999908 0.013593 0.000029
vn 0.000000 0.999989 0.004653
vn 0.000000 0.999989 0.004653
vn 0.000000 0.999989 0.004653
vn 0.874742 0.484549 0.006181
vn 0.000000 -0.999932 -0.011696
vn 0.000000 -0.999932 -0.011696
vn 0.874742 0.484549 0.006181
vn 0.894417 -0.017763 -0.446881
vn 0.000066 0.017093 0.999854
vn 0.000066 0.017093 0.999854
vn 0.894417 -0.017763 -0.446881
vn -0.894448 -0.017638 -0.446824
vn -0.894448 -0.017638 -0.446824
vn -0.874742 0.484549 0.006166
vn -0.874742 0.484549 0.006166
vn 0.000000 0.999989 0.004654
vn 0.000000 0.999989 0.004654
vn 0.000000 0.999989 0.004654
vn 0.874668 0.484684 0.006167
vn 0.000231 -0.999932 -0.011699
vn 0.000231 -0.999932 -0.011699
vn 0.874668 0.484684 0.006167
vn 0.894430 -0.017732 -0.446858
vn 0.000039 0.017114 0.999854
vn 0.000039 0.017114 0.999854
vn 0.894430 -0.017732 -0.446858
vn -0.894448 -0.017636 -0.446824
vn -0.894448 -0.017636 -0.446824
vn -0.874780 0.484482 0.006186
vn -0.874780 0.484482 0.006186
vn 0.000000 0.999989 0.004654
vn 0.000000 0.999989 0.004654
vn 0.000000 0.999989 0.004654
vn 0.874742 0.484549 0.006183
vn -0.000077 -0.999932 -0.011685
vn -0.000077 -0.999932 -0.011685
vn 0.874742 0.484549 0.006183
vn 0.894448 -0.017663 -0.446824
vn -0.000066 0.017175 0.999853
vn -0.000066 0.017175 0.999853
vn 0.894448 -0.017663 -0.446824
vn -0.894418 -0.017641 -0.446883
vn -0.894418 -0.017641 -0.446883
vn -0.874705 0.484617 0.006181
vn -0.874705 0.484617 0.006181
vn 0.000000 0.999989 0.004655
vn 0.000000 0.999989 0.004655
vn 0.000000 0.999989 0.004655
vn 0.874742 0.484549 0.006167
vn -0.000000 -0.999932 -0.011697
vn -0.000000 -0.999932 -0.011697
vn 0.874742 0.484549 0.006167
vn 0.894447 -0.017681 -0.446823
vn -0.000065 0.017193 0.999852
vn -0.000065 0.017193 0.999852
vn 0.894447 -0.017681 -0.446823
vn -0.894419 -0.017586 -0.446884
vn -0.894419 -0.017586 -0.446884
vn -0.874742 0.484549 0.006182
vn -0.874742 0.484549 0.006182
vn 0.000000 0.999989 0.004654
vn 0.000000 0.999989 0.004654
vn 0.000000 0.999989 0.004654
vn 0.874705 0.484616 0.006197
vn 0.000077 -0.999932 -0.011670
vn 0.000077 -0.999932 -0.011670
vn 0.874705 0.484616 0.006197
vn 0.894430 -0.017650 -0.446859
vn -0.000027 0.017183 0.999852
vn -0.000027 0.017183 0.999852
vn 0.894430 -0.017650 -0.446859
vn -0.894418 -0.017640 -0.446883
vn -0.894418 -0.017640 -0.446883
vn -0.874742 0.484549 0.006182
vn -0.874742 0.484549 0.006182
vn 0.000000 0.999989 0.004654
vn 0.000000 0.999989 0.004654
vn 0.000000 0.999989 0.004654
vn 0.874705 0.484617 0.006181
vn 0.000077 -0.999932 -0.011670
vn 0.000077 -0.999932 -0.011670
vn 0.874705 0.484617 0.006181
vn 0.894430 -0.017670 -0.446858
vn 0.000000 0.017130 0.999853
vn 0.000000 0.017130 0.999853
vn 0.894430 -0.017670 -0.446858
vn -0.894430 -0.017688 -0.446858
vn -0.894430 -0.017688 -0.446858
vn -0.874742 0.484549 0.006198
vn -0.874742 0.484549 0.006198
vn 0.000000 0.999989 0.004654
vn 0.000000 0.999989 0.004654
vn 0.000000 0.999989 0.004654
vn 0.874705 0.484617 0.006181
vn 0.000077 -0.999932 -0.011670
vn 0.000077 -0.999932 -0.011670
vn 0.874705 0.484617 0.006181
vn 0.894419 -0.017594 -0.446884
vn 0.000027 0.017185 0.999852
vn 0.000027 0.017185 0.999852
vn 0.894419 -0.017594 -0.446884
vn -0.894430 -0.017687 -0.446858
vn -0.894430 -0.017687 -0.446858
vn -0.874742 0.484549 0.006198
vn -0.874742 0.484549 0.006198
vn 0.000000 0.999989 0.004655
vn 0.000000 0.999989 0.004655
vn 0.000000 0.999989 0.004655
vn 0.874742 0.484549 0.006153
vn -0.000000 -0.999931 -0.011725
vn -0.000000 -0.999931 -0.011725
vn 0.874742 0.484549 0.006153
vn 0.894436 -0.017610 -0.446849
vn 0.000026 0.017171 0.999853
vn 0.000026 0.017171 0.999853
vn 0.894436 -0.017610 -0.446849
vn -0.894447 -0.017688 -0.446824
vn -0.894447 -0.017688 -0.446824
vn -0.874742 0.484549 0.006169
vn -0.874742 0.484549 0.006169
vn 0.000000 0.999989 0.004640
vn 0.000000 0.999989 0.004640
vn 0.000000 0.999989 0.004640
vn 0.874742 0.484549 0.006160
vn -0.000000 -0.999931 -0.011730
vn -0.000000 -0.999931 -0.011730
vn 0.874742 0.484549 0.006160
vn 0.894436 -0.017610 -0.446849
vn 0.000028 0.017171 0.999853
vn 0.000028 0.017171 0.999853
vn 0.894436 -0.017610 -0.446849
vn -0.894448 -0.017688 -0.446822
vn -0.894448 -0.017688 -0.446822
vn -0.874742 0.484549 0.006176
vn -0.874742 0.484549 0.006176
vn 0.000000 0.999989 0.004639
vn 0.000000 0.999989 0.004639
vn 0.000000 0.999989 0.004639
vn 0.874705 0.484616 0.006191
vn 0.000077 -0.999932 -0.011673
vn 0.000077 -0.999932 -0.011673
vn 0.874705 0.484616 0.006191
vn 0.894419 -0.017594 -0.446884
vn 0.000027 0.017185 0.999852
vn 0.000027 0.017185 0.999852
vn 0.894419 -0.017594 -0.446884
vn -0.894430 -0.017687 -0.446858
vn -0.894430 -0.017687 -0.446858
vn -0.874742 0.484549 0.006209
vn -0.874742 0.484549 0.006209
vn 0.000000 0.999989 0.004654
vn 0.000000 0.999989 0.004654
vn 0.000000 0.999989 0.004654
vn 0.874705 0.484616 0.006191
vn 0.000077 -0.999932 -0.011673
vn 0.000077 -0.999932 -0.011673
vn 0.874705 0.484616 0.006191
vn 0.894430 -0.017670 -0.446858
vn -0.000000 0.017129 0.999853
vn -0.000000 0.017129 0.999853
vn 0.894430 -0.017670 -0.446858
vn -0.894430 -0.017688 -0.446858
vn -0.894430 -0.017688 -0.446858
vn -0.874742 0.484549 0.006209
vn -0.874742 0.484549 0.006209
vn 0.000000 0.999989 0.004639
vn 0.000000 0.999989 0.004639
vn 0.000000 0.999989 0.004639
vn 0.874705 0.484616 0.006205
vn 0.000077 -0.999932 -0.011673
vn 0.000077 -0.999932 -0.011673
vn 0.874705 0.484616 0.006205
vn 0.894431 -0.017650 -0.446858
vn -0.000027 0.017183 0.999852
vn -0.000027 0.017183 0.999852
vn 0.894431 -0.017650 -0.446858
vn -0.894419 -0.017640 -0.446883
vn -0.894419 -0.017640 -0.446883
vn -0.874742 0.484549 0.006191
vn -0.874742 0.484549 0.006191
vn 0.000000 0.999989 0.004640
vn 0.000000 0.999989 0.004640
vn 0.000000 0.999989 0.004640
vn 0.874743 0.484549 0.006175
vn -0.000000 -0.999932 -0.011701
vn -0.000000 -0.999932 -0.011701
vn 0.874743 0.484549 0.006175
vn 0.894448 -0.017681 -0.446823
vn -0.000066 0.017193 0.999852
vn -0.000066 0.017193 0.999852
vn 0.894448 -0.017681 -0.446823
vn -0.894419 -0.017585 -0.446884
vn -0.894419 -0.017585 -0.446884
vn -0.874742 0.484549 0.006191
vn -0.874742 0.484549 0.006191
vn 0.000000 0.999989 0.004639
vn 0.000000 0.999989 0.004639
vn 0.000000 0.999989 0.004639
vn 0.874742 0.484549 0.006194
vn -0.000077 -0.999932 -0.011688
vn -0.000077 -0.999932 -0.011688
vn 0.874742 0.484549 0.006194
vn 0.894448 -0.017663 -0.446823
vn -0.000066 0.017175 0.999853
vn -0.000066 0.017175 0.999853
vn 0.894448 -0.017663 -0.446823
vn -0.894418 -0.017641 -0.446883
vn -0.894418 -0.017641 -0.446883
vn -0.874705 0.484616 0.006193
vn -0.874705 0.484616 0.006193
vn 0.000000 0.999989 0.004654
vn 0.000000 0.999989 0.004654
vn 0.000000 0.999989 0.004654
vn 0.874668 0.484684 0.006174
vn 0.000231 -0.999932 -0.011703
vn 0.000231 -0.999932 -0.011703
vn 0.874668 0.484684 0.006174
vn 0.894430 -0.017732 -0.446857
vn 0.000040 0.017114 0.999854
vn 0.000040 0.017114 0.999854
vn 0.894430 -0.017732 -0.446857
vn -0.894448 -0.017636 -0.446823
vn -0.894448 -0.017636 -0.446823
vn -0.874780 0.484481 0.006195
vn -0.874780 0.484481 0.006195
vn 0.000000 0.999989 0.004638
vn 0.000000 0.999989 0.004638
vn 0.000000 0.999989 0.004638
vn 0.874742 0.484549 0.006192
vn 0.000000 -0.999932 -0.011701
vn 0.000000 -0.999932 -0.011701
vn 0.874742 0.484549 0.006192
vn 0.894417 -0.017763 -0.446881
vn 0.000068 0.017092 0.999854
vn 0.000068 0.017092 0.999854
vn 0.894417 -0.017763 -0.446881
vn -0.894448 -0.017638 -0.446823
vn -0.894448 -0.017638 -0.446823
vn -0.874742 0.484549 0.006176
vn -0.874742 0.484549 0.006176
vn 0.000000 0.999989 0.004670
vn 0.000000 0.999989 0.004670
vn 0.000000 0.999989 0.004670
vn 0.874741 0.484552 0.006153
vn 0.000000 -0.999931 -0.011724
vn 0.000000 -0.999931 -0.011724
vn 0.874741 0.484552 0.006153
vn 0.894436 -0.017610 -0.446849
vn 0.000027 0.017171 0.999853
vn 0.000027 0.017171 0.999853
vn 0.894436 -0.017610 -0.446849
vn -0.894447 -0.017688 -0.446824
vn -0.894447 -0.017688 -0.446824
vn -0.874741 0.484552 0.006168
vn -0.874741 0.484552 0.006168
vn 0.000000 0.999989 0.004669
vn 0.000000 0.999989 0.004669
vn 0.000000 0.999989 0.004669
vn 0.874704 0.484619 0.006183
vn 0.000077 -0.999932 -0.011667
vn 0.000077 -0.999932 -0.011667
vn 0.874704 0.484619 0.006183
vn 0.894419 -0.017594 -0.446885
vn 0.000026 0.017185 0.999852
vn 0.000026 0.017185 0.999852
vn 0.894419 -0.017594 -0.446885
vn -0.894430 -0.017687 -0.446859
vn -0.894430 -0.017687 -0.446859
vn -0.874741 0.484551 0.006200
vn -0.874741 0.484551 0.006200
vn 0.000000 0.999989 0.004654
vn 0.000000 0.999989 0.004654
vn 0.000000 0.999989 0.004654
vn 0.874704 0.484619 0.006183
vn 0.000077 -0.999932 -0.011667
vn 0.000077 -0.999932 -0.011667
vn 0.874704 0.484619 0.006183
vn 0.894430 -0.017670 -0.446859
vn -0.000000 0.017130 0.999853
vn -0.000000 0.017130 0.999853
vn 0.894430 -0.017670 -0.446859
vn -0.894430 -0.017688 -0.446859
vn -0.894430 -0.017688 -0.446859
vn -0.874741 0.484551 0.006200
vn -0.874741 0.484551 0.006200
vn 0.000000 0.999989 0.004669
vn 0.000000 0.999989 0.004669
vn 0.000000 0.999989 0.004669
vn 0.874704 0.484619 0.006198
vn 0.000077 -0.999932 -0.011667
vn 0.000077 -0.999932 -0.011667
vn 0.874704 0.484619 0.006198
vn 0.894430 -0.017650 -0.446859
vn -0.000028 0.017183 0.999852
vn -0.000028 0.017183 0.999852
vn 0.894430 -0.017650 -0.446859
vn -0.894418 -0.017640 -0.446884
vn -0.894418 -0.017640 -0.446884
vn -0.874741 0.484551 0.006183
vn -0.874741 0.484551 0.006183
vn 0.000000 0.999989 0.004670
vn 0.000000 0.999989 0.004670
vn 0.000000 0.999989 0.004670
vn 0.874741 0.484552 0.006167
vn -0.000000 -0.999932 -0.011695
vn -0.000000 -0.999932 -0.011695
vn 0.874741 0.484552 0.006167
vn 0.894448 -0.017681 -0.446823
vn -0.000067 0.017193 0.999852
vn -0.000067 0.017193 0.999852
vn 0.894448 -0.017681 -0.446823
vn -0.894419 -0.017586 -0.446885
vn -0.894419 -0.017586 -0.446885
vn -0.874741 0.484551 0.006183
vn -0.874741 0.484551 0.006183
vn 0.000000 0.999989 0.004669
vn 0.000000 0.999989 0.004669
vn 0.000000 0.999989 0.004669
vn 0.874741 0.484551 0.006186
vn -0.000077 -0.999932 -0.011682
vn -0.000077 -0.999932 -0.011682
vn 0.874741 0.484551 0.006186
vn 0.894448 -0.017663 -0.446824
vn -0.000067 0.017175 0.999853
vn -0.000067 0.017175 0.999853
vn 0.894448 -0.017663 -0.446824
vn -0.894418 -0.017641 -0.446884
vn -0.894418 -0.017641 -0.446884
vn -0.874704 0.484619 0.006184
vn -0.874704 0.484619 0.006184
vn 0.000000 0.999989 0.004654
vn 0.000000 0.999989 0.004654
vn 0.000000 0.999989 0.004654
vn 0.874666 0.484687 0.006167
vn 0.000231 -0.999932 -0.011696
vn 0.000231 -0.999932 -0.011696
vn 0.874666 0.484687 0.006167
vn 0.894429 -0.017732 -0.446858
vn 0.000040 0.017114 0.999854
vn 0.000040 0.017114 0.999854
vn 0.894429 -0.017732 -0.446858
vn -0.894448 -0.017636 -0.446824
vn -0.894448 -0.017636 -0.446824
vn -0.874778 0.484484 0.006187
vn -0.874778 0.484484 0.006187
vn 0.000000 0.999989 0.004668
vn 0.000000 0.999989 0.004668
vn 0.000000 0.999989 0.004668
vn 0.874741 0.484551 0.006185
vn 0.000000 -0.999932 -0.011695
vn 0.000000 -0.999932 -0.011695
vn 0.874741 0.484551 0.006185
vn 0.894417 -0.017763 -0.446882
vn 0.000067 0.017093 0.999854
vn 0.000067 0.017093 0.999854
vn 0.894417 -0.017763 -0.446882
vn -0.894448 -0.017638 -0.446824
vn -0.894448 -0.017638 -0.446824
vn -0.874741 0.484552 0.006168
vn -0.874741 0.484552 0.006168
vn -0.021115 -0.999748 0.007680
vn -0.021115 -0.999748 0.007680
vn -0.021115 -0.999748 0.007680
vn -0.021115 -0.999748 0.007680
vn 0.000162 0.007676 0.999971
vn 0.000162 0.007676 0.999971
vn 0.000162 0.007676 0.999971
vn 0.000162 0.007676 0.999971
vn 0.021118 0.999748 -0.007676
vn 0.021118 0.999748 -0.007676
vn 0.021118 0.999748 -0.007676
vn 0.021118 0.999748 -0.007676
vn -0.000162 -0.007676 -0.999971
vn -0.000162 -0.007676 -0.999971
vn -0.000162 -0.007676 -0.999971
vn -0.000162 -0.007676 -0.999971
vn 0.999777 -0.021115 -0.000026
vn 0.999777 -0.021115 -0.000026
vn 0.999777 -0.021115 -0.000026
vn 0.999777 -0.021115 -0.000026
vn -0.999777 0.021140 0.000026
vn -0.999777 0.021140 0.000026
vn -0.999777 0.021140 0.000026
vn -0.999777 0.021140 0.000026
vn -0.000000 0.000000 -1.000000
vn -0.000000 0.000000 -1.000000
vn 0.000000 0.000000 -1.000000
vn 0.000000 0.000000 -1.000000
vn 0.000000 0.000000 -1.000000
vn 0.000000 0.000000 -1.000000
vn -0.000000 0.000000 -1.000000
vn 0.000000 0.000000 -1.000000
vn 0.000000 0.000000 -1.000000
vn 0.014833 -0.999813 0.012392
vn 0.014833 -0.999813 0.012392
vn 0.014833 -0.999813 0.012392
vn 0.014833 -0.999813 0.012392
vn -0.000184 0.012389 0.999923
vn -0.000184 0.012389 0.999923
vn -0.000184 0.012389 0.999923
vn -0.000184 0.012389 0.999923
vn -0.014832 0.999813 -0.012381
vn -0.014832 0.999813 -0.012381
vn -0.014832 0.999813 -0.012381
vn -0.014832 0.999813 -0.012381
vn 0.000184 -0.012390 -0.999923
vn 0.000184 -0.012390 -0.999923
vn 0.000184 -0.012390 -0.999923
vn 0.000184 -0.012390 -0.999923
vn 0.999890 0.014844 0.000005
vn 0.999890 0.014844 0.000005
vn 0.999890 0.014844 0.000005
vn 0.999890 0.014844 0.000005
vn -0.999890 -0.014835 -0.000052
vn -0.999890 -0.014835 -0.000052
vn -0.999890 -0.014835 -0.000052
vn -0.999890 -0.014835 -0.000052
vn -0.011868 -0.999869 0.011000
vn -0.011868 -0.999869 0.011000
vn -0.011868 -0.999869 0.011000
vn -0.011868 -0.999869 0.011000
vn 0.000131 0.010994 0.999940
vn 0.000131 0.010994 0.999940
vn 0.000131 0.010994 0.999940
vn 0.000131 0.010994 0.999940
vn 0.011867 0.999869 -0.011002
vn 0.011867 0.999869 -0.011002
vn 0.011867 0.999869 -0.011002
vn 0.011867 0.999869 -0.011002
vn -0.000130 -0.010994 -0.999940
vn -0.000130 -0.010994 -0.999940
vn -0.000130 -0.010994 -0.999940
vn -0.000130 -0.010994 -0.999940
vn 0.999930 -0.011852 -0.000013
vn 0.999930 -0.011852 -0.000013
vn 0.999930 -0.011852 -0.000013
vn 0.999930 -0.011852 -0.000013
vn -0.999929 0.011877 0.000012
vn -0.999929 0.011877 0.000012
vn -0.999929 0.011877 0.000012
vn -0.999929 0.011877 0.000012
vn -0.010472 -0.999906 -0.008907
vn -0.010472 -0.999906 -0.008907
vn -0.010472 -0.999906 -0.008907
vn -0.010472 -0.999906 -0.008907
vn -0.000093 -0.008899 0.999960
vn -0.000093 -0.008899 0.999960
vn -0.000093 -0.008899 0.999960
vn -0.000093 -0.008899 0.999960
vn 0.010471 0.999906 0.008895
vn 0.010471 0.999906 0.008895
vn 0.010471 0.999906 0.008895
vn 0.010471 0.999906 0.008895
vn 0.000093 0.008902 -0.999960
vn 0.000093 0.008902 -0.999960
vn 0.000093 0.008902 -0.999960
vn 0.000093 0.008902 -0.999960
vn 0.999945 -0.010467 -0.000000
vn 0.999945 -0.010467 -0.000000
vn 0.999945 -0.010467 -0.000000
vn 0.999945 -0.010467 -0.000000
vn -0.999945 0.010483 0.000047
vn -0.999945 0.010483 0.000047
vn -0.999945 0.010483 0.000047
vn -0.999945 0.010483 0.000047
vn 0.004360 -0.999469 -0.032287
vn 0.004360 -0.999469 -0.032287
vn 0.004360 -0.999469 -0.032287
vn 0.004360 -0.999469 -0.032287
vn 0.000141 -0.032282 0.999479
vn 0.000141 -0.032282 0.999479
vn 0.000141 -0.032282 0.999479
vn 0.000141 -0.032282 0.999479
vn -0.004361 0.999469 0.032292
vn -0.004361 0.999469 0.032292
vn -0.004361 0.999469 0.032292
vn -0.004361 0.999469 0.032292
vn -0.000141 0.032283 -0.999479
vn -0.000141 0.032283 -0.999479
vn -0.000141 0.032283 -0.999479
vn -0.000141 0.032283 -0.999479
vn 0.999991 0.004356 -0.000029
vn 0.999991 0.004356 -0.000029
vn 0.999991 0.004356 -0.000029
vn 0.999991 0.004356 -0.000029
vn -0.999991 -0.004370 -0.000014
vn -0.999991 -0.004370 -0.000014
vn -0.999991 -0.004370 -0.000014
vn -0.999991 -0.004370 -0.000014
vn 0.028444 -0.999583 0.005053
vn 0.028444 -0.999583 0.005053
vn 0.028444 -0.999583 0.005053
vn 0.028444 -0.999583 0.005053
vn -0.000144 0.005061 0.999987
vn -0.000144 0.005061 0.999987
vn -0.000144 0.005061 0.999987
vn -0.000144 0.005061 0.999987
vn -0.028445 0.999583 -0.005053
vn -0.028445 0.999583 -0.005053
vn -0.028445 0.999583 -0.005053
vn -0.028445 0.999583 -0.005053
vn 0.000144 -0.005061 -0.999987
vn 0.000144 -0.005061 -0.999987
vn 0.000144 -0.005061 -0.999987
vn 0.000144 -0.005061 -0.999987
vn 0.999595 0.028454 -0.000001
vn 0.999595 0.028454 -0.000001
vn 0.999595 0.028454 -0.000001
vn 0.999595 0.028454 -0.000001
vn -0.999596 -0.028428 0.000048
vn -0.999596 -0.028428 0.000048
vn -0.999596 -0.028428 0.000048
vn -0.999596 -0.028428 0.000048
vn 0.034372 -0.999283 -0.015884
vn 0.034372 -0.999283 -0.015884
vn 0.034372 -0.999283 -0.015884
vn 0.034372 -0.999283 -0.015884
vn 0.000546 -0.015872 0.999874
vn 0.000546 -0.015872 0.999874
vn 0.000546 -0.015872 0.999874
vn 0.000546 -0.015872 0.999874
vn -0.034371 0.999283 0.015886
vn -0.034371 0.999283 0.015886
vn -0.034371 0.999283 0.015886
vn -0.034371 0.999283 0.015886
vn -0.000546 0.015872 -0.999874
vn -0.000546 0.015872 -0.999874
vn -0.000546 0.015872 -0.999874
vn -0.000546 0.015872 -0.999874
vn 0.999409 0.034366 -0.000057
vn 0.999409 0.034366 -0.000057
vn 0.999409 0.034366 -0.000057
vn 0.999409 0.034366 -0.000057
vn -0.999409 -0.034382 0.000011
vn -0.999409 -0.034382 0.000011
vn -0.999409 -0.034382 0.000011
vn -0.999409 -0.034382 0.000011
vn -0.011519 -0.999908 0.007161
vn -0.011519 -0.999908 0.007161
vn -0.011519 -0.999908 0.007161
vn -0.011519 -0.999908 0.007161
vn 0.000082 0.007155 0.999974
vn 0.000082 0.007155 0.999974
vn 0.000082 0.007155 0.999974
vn 0.000082 0.007155 0.999974
vn 0.011519 0.999908 -0.007146
vn 0.011519 0.999908 -0.007146
vn 0.011519 0.999908 -0.007146
vn 0.011519 0.999908 -0.007146
vn -0.000082 -0.007155 -0.999974
vn -0.000082 -0.007155 -0.999974
vn -0.000082 -0.007155 -0.999974
vn -0.000082 -0.007155 -0.999974
vn 0.999934 -0.011525 0.000036
vn 0.999934 -0.011525 0.000036
vn 0.999934 -0.011525 0.000036
vn 0.999934 -0.011525 0.000036
vn -0.999934 0.011525 0.000010
vn -0.999934 0.011525 0.000010
vn -0.999934 0.011525 0.000010
vn -0.999934 0.011525 0.000010
vn 0.019361 -0.999297 0.032106
vn 0.019361 -0.999297 0.032106
vn 0.019361 -0.999297 0.032106
vn 0.019361 -0.999297 0.032106
vn -0.000622 0.032100 0.999484
vn -0.000622 0.032100 0.999484
vn -0.000622 0.032100 0.999484
vn -0.000622 0.032100 0.999484
vn -0.019362 0.999297 -0.032108
vn -0.019362 0.999297 -0.032108
vn -0.019362 0.999297 -0.032108
vn -0.019362 0.999297 -0.032108
vn 0.000622 -0.032103 -0.999484
vn 0.000622 -0.032103 -0.999484
vn 0.000622 -0.032103 -0.999484
vn 0.000622 -0.032103 -0.999484
vn 0.999812 0.019381 -0.000028
vn 0.999812 0.019381 -0.000028
vn 0.999812 0.019381 -0.000028
vn 0.999812 0.019381 -0.000028
vn -0.999812 -0.019368 -0.000014
vn -0.999812 -0.019368 -0.000014
vn -0.999812 -0.019368 -0.000014
vn -0.999812 -0.019368 -0.000014
vn -0.017449 -0.999692 0.017622
vn -0.017449 -0.999692 0.017622
vn -0.017449 -0.999692 0.017622
vn -0.017449 -0.999692 0.017622
vn 0.000308 0.017625 0.999845
vn 0.000308 0.017625 0.999845
vn 0.000308 0.017625 0.999845
vn 0.000308 0.017625 0.999845
vn 0.017449 0.999692 -0.017621
vn 0.017449 0.999692 -0.017621
vn 0.017449 0.999692 -0.017621
vn 0.017449 0.999692 -0.017621
vn -0.000308 -0.017623 -0.999845
vn -0.000308 -0.017623 -0.999845
vn -0.000308 -0.017623 -0.999845
vn -0.000308 -0.017623 -0.999845
vn 0.999847 -0.017478 0.000011
vn 0.999847 -0.017478 0.000011
vn 0.999847 -0.017478 0.000011
vn 0.999847 -0.017478 0.000011
vn -0.999848 0.017451 -0.000053
vn -0.999848 0.017451 -0.000053
vn -0.999848 0.017451 -0.000053
vn -0.999848 0.017451 -0.000053
vn 0.022163 -0.999680 -0.012217
vn 0.022163 -0.999680 -0.012217
vn 0.022163 -0.999680 -0.012217
vn 0.022163 -0.999680 -0.012217
vn 0.000271 -0.012216 0.999925
vn 0.000271 -0.012216 0.999925
vn 0.000271 -0.012216 0.999925
vn 0.000271 -0.012216 0.999925
vn -0.022162 0.999680 0.012221
vn -0.022162 0.999680 0.012221
vn -0.022162 0.999680 0.012221
vn -0.022162 0.999680 0.012221
vn -0.000271 0.012214 -0.999925
vn -0.000271 0.012214 -0.999925
vn -0.000271 0.012214 -0.999925
vn -0.000271 0.012214 -0.999925
vn 0.999754 0.022172 0.000080
vn 0.999754 0.022172 0.000080
vn 0.999754 0.022172 0.000080
vn 0.999754 0.022172 0.000080
vn -0.999754 -0.022163 0.000015
vn -0.999754 -0.022163 0.000015
vn -0.999754 -0.022163 0.000015
vn -0.999754 -0.022163 0.000015
vn -0.020937 -0.999516 -0.023030
vn -0.020937 -0.999516 -0.023030
vn -0.020937 -0.999516 -0.023030
vn -0.020937 -0.999516 -0.023030
vn -0.000482 -0.023030 0.999735
vn -0.000482 -0.023030 0.999735
vn -0.000482 -0.023030 0.999735
vn -0.000482 -0.023030 0.999735
vn 0.020937 0.999516 0.023027
vn 0.020937 0.999516 0.023027
vn 0.020937 0.999516 0.023027
vn 0.020937 0.999516 0.023027
vn 0.000482 0.023031 -0.999735
vn 0.000482 0.023031 -0.999735
vn 0.000482 0.023031 -0.999735
vn 0.000482 0.023031 -0.999735
vn 0.999781 -0.020949 0.000027
vn 0.999781 -0.020949 0.000027
vn 0.999781 -0.020949 0.000027
vn 0.999781 -0.020949 0.000027
vn -0.999781 0.020923 0.000015
vn -0.999781 0.020923 0.000015
vn -0.999781 0.020923 0.000015
vn -0.999781 0.020923 0.000015
vn -0.021115 -0.999748 0.007678
vn -0.021115 -0.999748 0.007678
vn -0.021115 -0.999748 0.007678
vn -0.021115 -0.999748 0.007678
vn 0.000162 0.007676 0.999971
vn 0.000162 0.007676 0.999971
vn 0.000162 0.007676 0.999971
vn 0.000162 0.007676 0.999971
vn 0.021118 0.999748 -0.007674
vn 0.021118 0.999748 -0.007674
vn 0.021118 0.999748 -0.007674
vn 0.021118 0.999748 -0.007674
vn -0.000162 -0.007676 -0.999971
vn -0.000162 -0.007676 -0.999971
vn -0.000162 -0.007676 -0.999971
vn -0.000162 -0.007676 -0.999971
vn 0.999777 -0.021115 -0.000074
vn 0.999777 -0.021115 -0.000074
vn 0.999777 -0.021115 -0.000074
vn 0.999777 -0.021115 -0.000074
vn -0.999777 0.021115 0.000026
vn -0.999777 0.021115 0.000026
vn -0.999777 0.021115 0.000026
vn -0.999777 0.021115 0.000026
s 1
g polySurface4133
f 7/6/1 8/9/2 6/12/3 4/4/4
f 8/9/2 9/10/5 3/3/6 6/12/3
f 1/1/7 5/5/8 8/8/2 7/11/1
f 5/5/8 2/2/9 9/7/5 8/8/2
s off
f 10/13/10 11/14/11 13/15/12 12/16/13
f 14/17/14 15/18/15 17/19/16 16/20/17
f 11/21/18 17/22/19 15/23/20 13/24/21
f 16/25/22 10/26/23 12/27/24 14/28/25
s 6
f 12/16/26 13/15/27 19/29/28 18/30/29
f 13/24/27 15/23/30 20/31/31 19/32/28
f 15/18/30 14/17/32 21/33/33 20/34/31
f 14/28/32 12/27/26 18/35/29 21/36/33
s off
f 18/30/34 19/29/35 23/37/36 22/38/37
f 19/32/38 20/31/39 24/39/40 23/40/41
f 20/34/42 21/33/43 25/41/44 24/42/45
f 21/36/46 18/35/47 22/43/48 25/44/49
f 24/42/50 25/41/51 16/20/52 17/19/53
f 22/38/54 23/37/55 11/14/56 10/13/57
f 25/44/58 22/43/59 10/26/60 16/25/61
f 23/40/62 24/39/63 17/22/64 11/21/65
f 26/45/66 27/46/67 29/47/68 28/48/69
f 28/48/70 29/47/71 31/49/72 30/50/73
f 30/50/74 31/49/75 33/51/76 32/52/77
f 32/53/78 33/54/79 27/55/80 26/56/81
f 27/57/82 33/58/83 31/49/84 29/47/85
f 32/59/86 26/60/87 28/48/88 30/50/89
f 34/61/90 35/62/91 37/63/92 36/64/93
f 36/64/94 37/63/95 39/65/96 38/66/97
f 38/66/98 39/65/99 41/67/100 40/68/101
f 40/69/102 41/70/103 35/71/104 34/72/105
f 35/73/106 41/74/107 39/65/108 37/63/109
f 40/75/110 34/76/111 36/64/112 38/66/113
f 42/77/114 43/78/115 45/79/116 44/80/117
f 44/80/118 45/79/119 47/81/120 46/82/121
f 46/82/122 47/81/123 49/83/124 48/84/125
f 48/85/126 49/86/127 43/87/128 42/88/129
f 43/89/130 49/90/131 47/81/132 45/79/133
f 48/91/134 42/92/135 44/80/136 46/82/137
f 50/93/138 51/94/139 53/95/140 52/96/141
f 52/96/142 53/95/143 55/97/144 54/98/145
f 54/98/146 55/97/147 57/99/148 56/100/149
f 56/101/150 57/102/151 51/103/152 50/104/153
f 51/105/154 57/106/155 55/97/156 53/95/157
f 56/107/158 50/108/159 52/96/160 54/98/161
f 58/109/162 59/110/163 61/111/164 60/112/165
f 60/112/166 61/111/167 63/113/168 62/114/169
f 62/114/170 63/113/171 65/115/172 64/116/173
f 64/116/174 65/115/175 59/110/176 58/109/177
f 59/117/178 65/118/179 63/119/180 61/120/181
f 64/121/182 58/122/183 60/123/184 62/124/185
f 66/125/186 67/126/187 69/127/188 68/128/189
f 68/128/190 69/127/191 71/129/192 70/130/193
f 70/130/194 71/129/195 73/131/196 72/132/197
f 72/133/198 73/134/199 67/135/200 66/136/201
f 67/137/202 73/138/203 71/129/204 69/127/205
f 72/139/206 66/140/207 68/128/208 70/130/209
f 78/141/210 81/142/211 76/143/212
s 52
f 77/144/213 75/145/214 74/146/215 79/147/216
s 53
f 78/148/217 76/149/218 75/150/219 77/151/220
f 81/152/221 78/153/217 77/154/220 80/155/222
s 52
f 80/156/223 77/157/213 79/158/216 82/159/224
s 53
f 75/150/219 76/149/218 81/160/221 80/161/222
s 52
f 75/145/214 80/162/223 82/163/224 74/146/215
s off
f 87/164/225 90/165/226 85/166/227
s 55
f 86/167/228 84/168/229 83/169/230 88/170/231
s 56
f 87/171/232 85/172/233 84/173/234 86/174/235
f 90/175/236 87/176/232 86/177/235 89/178/237
s 55
f 89/179/238 86/180/228 88/181/231 91/182/239
s 56
f 84/173/234 85/172/233 90/183/236 89/184/237
s 55
f 84/168/229 89/185/238 91/186/239 83/169/230
s off
f 96/187/240 99/188/241 94/189/242
s 58
f 95/190/243 93/191/244 92/192/245 97/193/246
s 59
f 96/194/247 94/195/248 93/196/249 95/197/250
f 99/198/251 96/199/247 95/200/250 98/201/252
s 58
f 98/202/253 95/203/243 97/204/246 100/205/254
s 59
f 93/196/249 94/195/248 99/206/251 98/207/252
s 58
f 93/191/244 98/208/253 100/209/254 92/192/245
s off
f 105/210/255 108/211/256 103/212/257
s 61
f 104/213/258 102/214/259 101/215/260 106/216/261
s 62
f 105/217/262 103/218/263 102/219/264 104/220/265
f 108/221/266 105/222/262 104/223/265 107/224/267
s 61
f 107/225/268 104/226/258 106/227/261 109/228/269
s 62
f 102/219/264 103/218/263 108/229/266 107/230/267
s 61
f 102/214/259 107/231/268 109/232/269 101/215/260
s off
f 114/233/270 117/234/271 112/235/272
s 64
f 113/236/273 111/237/274 110/238/275 115/239/276
s 65
f 114/240/277 112/241/278 111/242/279 113/243/280
f 117/244/281 114/245/277 113/246/280 116/247/282
s 64
f 116/248/283 113/249/273 115/250/276 118/251/284
s 65
f 111/242/279 112/241/278 117/252/281 116/253/282
s 64
f 111/237/274 116/254/283 118/255/284 110/238/275
s off
f 123/256/285 126/257/286 121/258/287
s 67
f 122/259/288 120/260/289 119/261/290 124/262/291
s 68
f 123/263/292 121/264/293 120/265/294 122/266/295
f 126/267/296 123/268/292 122/269/295 125/270/297
s 67
f 125/271/298 122/272/288 124/273/291 127/274/299
s 68
f 120/265/294 121/264/293 126/275/296 125/276/297
s 67
f 120/260/289 125/277/298 127/278/299 119/261/290
s off
f 132/279/300 135/280/301 130/281/302
s 70
f 131/282/303 129/283/304 128/284/305 133/285/306
s 71
f 132/286/307 130/287/308 129/288/309 131/289/310
f 135/290/311 132/291/307 131/292/310 134/293/312
s 70
f 134/294/313 131/295/303 133/296/306 136/297/314
s 71
f 129/288/309 130/287/308 135/298/311 134/299/312
s 70
f 129/283/304 134/300/313 136/301/314 128/284/305
s off
f 141/302/315 144/303/316 139/304/317
s 73
f 140/305/318 138/306/319 137/307/320 142/308/321
s 74
f 141/309/322 139/310/323 138/311/324 140/312/325
f 144/313/326 141/314/322 140/315/325 143/316/327
s 73
f 143/317/328 140/318/318 142/319/321 145/320/329
s 74
f 138/311/324 139/310/323 144/321/326 143/322/327
s 73
f 138/306/319 143/323/328 145/324/329 137/307/320
s off
f 150/325/330 153/326/331 148/327/332
s 76
f 149/328/333 147/329/334 146/330/335 151/331/336
s 77
f 150/332/337 148/333/338 147/334/339 149/335/340
f 153/336/341 150/337/337 149/338/340 152/339/342
s 76
f 152/340/343 149/341/333 151/342/336 154/343/344
s 77
f 147/334/339 148/333/338 153/344/341 152/345/342
s 76
f 147/329/334 152/346/343 154/347/344 146/330/335
s off
f 159/348/345 162/349/346 157/350/347
s 79
f 158/351/348 156/352/349 155/353/350 160/354/351
s 80
f 159/355/352 157/356/353 156/357/354 158/358/355
f 162/359/356 159/360/352 158/361/355 161/362/357
s 79
f 161/363/358 158/364/348 160/365/351 163/366/359
s 80
f 156/357/354 157/356/353 162/367/356 161/368/357
s 79
f 156/352/349 161/369/358 163/370/359 155/353/350
s off
f 168/371/360 171/372/361 166/373/362
s 82
f 167/374/363 165/375/364 164/376/365 169/377/366
s 83
f 168/378/367 166/379/368 165/380/369 167/381/370
f 171/382/371 168/383/367 167/384/370 170/385/372
s 82
f 170/386/373 167/387/363 169/388/366 172/389/374
s 83
f 165/380/369 166/379/368 171/390/371 170/391/372
s 82
f 165/375/364 170/392/373 172/393/374 164/376/365
s off
f 177/394/375 180/395/376 175/396/377
s 85
f 176/397/378 174/398/379 173/399/380 178/400/381
s 86
f 177/401/382 175/402/383 174/403/384 176/404/385
f 180/405/386 177/406/382 176/407/385 179/408/387
s 85
f 179/409/388 176/410/378 178/411/381 181/412/389
s 86
f 174/403/384 175/402/383 180/413/386 179/414/387
s 85
f 174/398/379 179/415/388 181/416/389 173/399/380
s off
f 186/417/390 189/418/391 184/419/392
s 88
f 185/420/393 183/421/394 182/422/395 187/423/396
s 89
f 186/424/397 184/425/398 183/426/399 185/427/400
f 189/428/401 186/429/397 185/430/400 188/431/402
s 88
f 188/432/403 185/433/393 187/434/396 190/435/404
s 89
f 183/426/399 184/425/398 189/436/401 188/437/402
s 88
f 183/421/394 188/438/403 190/439/404 182/422/395
s off
f 195/440/405 198/441/406 193/442/407
s 91
f 194/443/408 192/444/409 191/445/410 196/446/411
s 92
f 195/447/412 193/448/413 192/449/414 194/450/415
f 198/451/416 195/452/412 194/453/415 197/454/417
s 91
f 197/455/418 194/456/408 196/457/411 199/458/419
s 92
f 192/449/414 193/448/413 198/459/416 197/460/417
s 91
f 192/444/409 197/461/418 199/462/419 191/445/410
s off
f 204/463/420 207/464/421 202/465/422
s 94
f 203/466/423 201/467/424 200/468/425 205/469/426
s 95
f 204/470/427 202/471/428 201/472/429 203/473/430
f 207/474/431 204/475/427 203/476/430 206/477/432
s 94
f 206/478/433 203/479/423 205/480/426 208/481/434
s 95
f 201/472/429 202/471/428 207/482/431 206/483/432
s 94
f 201/467/424 206/484/433 208/485/434 200/468/425
s off
f 213/486/435 216/487/436 211/488/437
s 97
f 212/489/438 210/490/439 209/491/440 214/492/441
s 98
f 213/493/442 211/494/443 210/495/444 212/496/445
f 216/497/446 213/498/442 212/499/445 215/500/447
s 97
f 215/501/448 212/502/438 214/503/441 217/504/449
s 98
f 210/495/444 211/494/443 216/505/446 215/506/447
s 97
f 210/490/439 215/507/448 217/508/449 209/491/440
s off
f 222/509/450 225/510/451 220/511/452
s 100
f 221/512/453 219/513/454 218/514/455 223/515/456
s 101
f 222/516/457 220/517/458 219/518/459 221/519/460
f 225/520/461 222/521/457 221/522/460 224/523/462
s 100
f 224/524/463 221/525/453 223/526/456 226/527/464
s 101
f 219/518/459 220/517/458 225/528/461 224/529/462
s 100
f 219/513/454 224/530/463 226/531/464 218/514/455
s off
f 231/532/465 234/533/466 229/534/467
s 103
f 230/535/468 228/536/469 227/537/470 232/538/471
s 104
f 231/539/472 229/540/473 228/541/474 230/542/475
f 234/543/476 231/544/472 230/545/475 233/546/477
s 103
f 233/547/478 230/548/468 232/549/471 235/550/479
s 104
f 228/541/474 229/540/473 234/551/476 233/552/477
s 103
f 228/536/469 233/553/478 235/554/479 227/537/470
s off
f 240/555/480 243/556/481 238/557/482
s 106
f 239/558/483 237/559/484 236/560/485 241/561/486
s 107
f 240/562/487 238/563/488 237/564/489 239/565/490
f 243/566/491 240/567/487 239/568/490 242/569/492
s 106
f 242/570/493 239/571/483 241/572/486 244/573/494
s 107
f 237/564/489 238/563/488 243/574/491 242/575/492
s 106
f 237/559/484 242/576/493 244/577/494 236/560/485
s off
f 249/578/495 252/579/496 247/580/497
s 109
f 248/581/498 246/582/499 245/583/500 250/584/501
s 110
f 249/585/502 247/586/503 246/587/504 248/588/505
f 252/589/506 249/590/502 248/591/505 251/592/507
s 109
f 251/593/508 248/594/498 250/595/501 253/596/509
s 110
f 246/587/504 247/586/503 252/597/506 251/598/507
s 109
f 246/582/499 251/599/508 253/600/509 245/583/500
s off
f 258/601/510 261/602/511 256/603/512
s 112
f 257/604/513 255/605/514 254/606/515 259/607/516
s 113
f 258/608/517 256/609/518 255/610/519 257/611/520
f 261/612/521 258/613/517 257/614/520 260/615/522
s 112
f 260/616/523 257/617/513 259/618/516 262/619/524
s 113
f 255/610/519 256/609/518 261/620/521 260/621/522
s 112
f 255/605/514 260/622/523 262/623/524 254/606/515
s off
f 267/624/525 270/625/526 265/626/527
s 115
f 266/627/528 264/628/529 263/629/530 268/630/531
s 116
f 267/631/532 265/632/533 264/633/534 266/634/535
f 270/635/536 267/636/532 266/637/535 269/638/537
s 115
f 269/639/538 266/640/528 268/641/531 271/642/539
s 116
f 264/633/534 265/632/533 270/643/536 269/644/537
s 115
f 264/628/529 269/645/538 271/646/539 263/629/530
s off
f 276/647/540 279/648/541 274/649/542
s 118
f 275/650/543 273/651/544 272/652/545 277/653/546
s 119
f 276/654/547 274/655/548 273/656/549 275/657/550
f 279/658/551 276/659/547 275/660/550 278/661/552
s 118
f 278/662/553 275/663/543 277/664/546 280/665/554
s 119
f 273/656/549 274/655/548 279/666/551 278/667/552
s 118
f 273/651/544 278/668/553 280/669/554 272/652/545
s off
f 285/670/555 288/671/556 283/672/557
s 121
f 284/673/558 282/674/559 281/675/560 286/676/561
s 122
f 285/677/562 283/678/563 282/679/564 284/680/565
f 288/681/566 285/682/562 284/683/565 287/684/567
s 121
f 287/685/568 284/686/558 286/687/561 289/688/569
s 122
f 282/679/564 283/678/563 288/689/566 287/690/567
s 121
f 282/674/559 287/691/568 289/692/569 281/675/560
s off
f 290/693/570 291/694/571 293/695/572 292/696/573
f 292/696/574 293/695/575 295/697/576 294/698/577
f 294/698/578 295/697/579 297/699/580 296/700/581
f 296/701/582 297/702/583 291/703/584 290/704/585
f 291/705/586 297/706/587 295/697/588 293/695/589
f 296/707/590 290/708/591 292/696/592 294/698/593
s 129
f 304/709/594 301/710/595 303/711/596 305/712/597
f 305/712/597 303/711/596 300/713/598 306/714/599
f 298/715/600 304/716/594 305/717/597 302/718/601
f 302/718/601 305/717/597 306/719/599 299/720/602
s off
f 307/721/603 308/722/604 310/723/605 309/724/606
f 309/724/607 310/723/608 312/725/609 311/726/610
f 311/726/611 312/725/612 314/727/613 313/728/614
f 313/729/615 314/730/616 308/731/617 307/732/618
f 308/733/619 314/734/620 312/725/621 310/723/622
f 313/735/623 307/736/624 309/724/625 311/726/626
f 315/737/627 316/738/628 318/739/629 317/740/630
f 317/740/631 318/739/632 320/741/633 319/742/634
f 319/742/635 320/741/636 322/743/637 321/744/638
f 321/745/639 322/746/640 316/747/641 315/748/642
f 316/749/643 322/750/644 320/741/645 318/739/646
f 321/751/647 315/752/648 317/740/649 319/742/650
f 323/753/651 324/754/652 326/755/653 325/756/654
f 325/756/655 326/755/656 328/757/657 327/758/658
f 327/758/659 328/757/660 330/759/661 329/760/662
f 329/761/663 330/762/664 324/763/665 323/764/666
f 324/765/667 330/766/668 328/757/669 326/755/670
f 329/767/671 323/768/672 325/756/673 327/758/674
f 331/769/675 332/770/676 334/771/677 333/772/678
f 333/772/679 334/771/680 336/773/681 335/774/682
f 335/774/683 336/773/684 338/775/685 337/776/686
f 337/777/687 338/778/688 332/779/689 331/780/690
f 332/781/691 338/782/692 336/773/693 334/771/694
f 337/783/695 331/784/696 333/772/697 335/774/698
f 339/785/699 340/786/700 342/787/701 341/788/702
f 341/788/703 342/787/704 344/789/705 343/790/706
f 343/790/707 344/789/708 346/791/709 345/792/710
f 345/793/711 346/794/712 340/795/713 339/796/714
f 340/797/715 346/798/716 344/789/717 342/787/718
f 345/799/719 339/800/720 341/788/721 343/790/722
f 347/801/723 348/802/724 350/803/725 349/804/726
f 349/804/727 350/803/728 352/805/729 351/806/730
f 351/806/731 352/805/732 354/807/733 353/808/734
f 353/809/735 354/810/736 348/811/737 347/812/738
f 348/813/739 354/814/740 352/805/741 350/803/742
f 353/815/743 347/816/744 349/804/745 351/806/746
f 355/817/747 356/818/748 358/819/749 357/820/750
f 357/820/751 358/819/752 360/821/753 359/822/754
f 359/822/755 360/821/756 362/823/757 361/824/758
f 361/825/759 362/826/760 356/827/761 355/828/762
f 356/829/763 362/830/764 360/821/765 358/819/766
f 361/831/767 355/832/768 357/820/769 359/822/770
f 363/833/771 364/834/772 366/835/773 365/836/774
f 365/836/775 366/835/776 368/837/777 367/838/778
f 367/838/779 368/837/780 370/839/781 369/840/782
f 369/841/783 370/842/784 364/843/785 363/844/786
f 364/845/787 370/846/788 368/837/789 366/835/790
f 369/847/791 363/848/792 365/836/793 367/838/794
f 371/849/795 372/850/796 374/851/797 373/852/798
f 373/852/799 374/851/800 376/853/801 375/854/802
f 375/854/803 376/853/804 378/855/805 377/856/806
f 377/857/807 378/858/808 372/859/809 371/860/810
f 372/861/811 378/862/812 376/853/813 374/851/814
f 377/863/815 371/864/816 373/852/817 375/854/818
f 379/865/819 380/866/820 382/867/821 381/868/822
f 381/868/823 382/867/824 384/869/825 383/870/826
f 383/870/827 384/869/828 386/871/829 385/872/830
f 385/873/831 386/874/832 380/875/833 379/876/834
f 380/877/835 386/878/836 384/869/837 382/867/838
f 385/879/839 379/880/840 381/868/841 383/870/842
f 387/881/843 388/882/844 390/883/845 389/884/846
f 389/884/847 390/883/848 392/885/849 391/886/850
f 391/886/851 392/885/852 394/887/853 393/888/854
f 393/889/855 394/890/856 388/891/857 387/892/858
f 388/893/859 394/894/860 392/885/861 390/883/862
f 393/895/863 387/896/864 389/884/865 391/886/866
f 395/897/867 396/898/868 398/899/869 397/900/870
f 397/900/871 398/899/872 400/901/873 399/902/874
f 399/902/875 400/901/876 402/903/877 401/904/878
f 401/905/879 402/906/880 396/907/881 395/908/882
f 396/909/883 402/910/884 400/901/885 398/899/886
f 401/911/887 395/912/888 397/900/889 399/902/890
