# This file uses centimeters as units for non-parametric coordinates.

g default
v -23.046883 0.747848 -0.046265
v -23.034485 0.747848 0.000000
v -23.046883 0.747848 0.046265
v -23.080750 0.747848 0.080132
v -23.127014 0.747848 0.092529
v -23.173279 0.747848 0.080132
v -23.207148 0.747848 0.046265
v -23.219543 0.747848 0.000000
v -23.207148 0.747848 -0.046265
v -23.173279 0.747848 -0.080132
v -23.127014 0.747848 -0.092529
v -23.080750 0.747848 -0.080132
v -23.038448 0.755822 -0.051134
v -23.024748 0.755822 0.000000
v -23.038448 0.755822 0.051134
v -23.075882 0.755822 0.088566
v -23.127014 0.755822 0.102267
v -23.178148 0.755822 0.088566
v -23.215580 0.755822 0.051134
v -23.229282 0.755822 0.000000
v -23.215580 0.755822 -0.051134
v -23.178148 0.755822 -0.088566
v -23.127014 0.755822 -0.102267
v -23.075882 0.755822 -0.088566
v -23.014355 0.765125 -0.065044
v -22.996925 0.765125 0.000000
v -23.014355 0.765125 0.065045
v -23.061972 0.765125 0.112660
v -23.127014 0.765125 0.130089
v -23.192060 0.765125 0.112660
v -23.239676 0.765125 0.065045
v -23.257103 0.765125 0.000000
v -23.239676 0.765125 -0.065044
v -23.192060 0.765125 -0.112660
v -23.127014 0.765125 -0.130089
v -23.061972 0.765125 -0.112660
v -22.993876 0.789047 -0.076869
v -22.973278 0.789047 0.000000
v -22.993876 0.789047 0.076869
v -23.050146 0.789047 0.133141
v -23.127014 0.789047 0.153738
v -23.203884 0.789047 0.133141
v -23.260157 0.789047 0.076869
v -23.280754 0.789047 0.000000
v -23.260157 0.789047 -0.076869
v -23.203884 0.789047 -0.133141
v -23.127014 0.789047 -0.153738
v -23.050146 0.789047 -0.133141
v -22.986645 0.820943 -0.081042
v -22.964931 0.820943 0.000000
v -22.986645 0.820943 0.081043
v -23.045973 0.820943 0.140369
v -23.127014 0.820943 0.162085
v -23.208057 0.820943 0.140369
v -23.267384 0.820943 0.081043
v -23.289101 0.820943 0.000000
v -23.267384 0.820943 -0.081042
v -23.208057 0.820943 -0.140369
v -23.127014 0.820943 -0.162085
v -23.045973 0.820943 -0.140369
v -23.048088 0.915301 -0.045568
v -23.035877 0.915301 0.000000
v -23.048088 0.915301 0.045568
v -23.081448 0.915301 0.078928
v -23.127014 0.915301 0.091138
v -23.172585 0.915301 0.078928
v -23.205944 0.915301 0.045568
v -23.218153 0.915301 0.000000
v -23.205944 0.915301 -0.045568
v -23.172585 0.915301 -0.078928
v -23.127014 0.915301 -0.091138
v -23.081448 0.915301 -0.078928
v -23.045307 0.918339 -0.047174
v -23.032667 0.918339 0.000000
v -23.045307 0.918339 0.047174
v -23.079842 0.918339 0.081709
v -23.127014 0.918339 0.094349
v -23.174191 0.918339 0.081709
v -23.208725 0.918339 0.047174
v -23.221365 0.918339 0.000000
v -23.208725 0.918339 -0.047174
v -23.174191 0.918339 -0.081708
v -23.127014 0.918339 -0.094349
v -23.079842 0.918339 -0.081708
v -23.050417 0.922830 -0.044224
v -23.038568 0.922830 0.000000
v -23.050417 0.922830 0.044224
v -23.082790 0.922830 0.076598
v -23.127014 0.922830 0.088448
v -23.171240 0.922830 0.076598
v -23.203613 0.922830 0.044224
v -23.215464 0.922830 0.000000
v -23.203613 0.922830 -0.044224
v -23.171240 0.922830 -0.076598
v -23.127014 0.922830 -0.088448
v -23.082790 0.922830 -0.076598
v -23.127014 0.754493 0.000000
v -23.235548 0.889399 -0.062661
v -23.252338 0.889399 0.000000
v -23.235548 0.889399 0.062661
v -23.189678 0.889399 0.108533
v -23.127014 0.889399 0.125324
v -23.064354 0.889399 0.108533
v -23.018484 0.889399 0.062661
v -23.001694 0.889399 0.000000
v -23.018484 0.889399 -0.062661
v -23.064354 0.889399 -0.108533
v -23.127014 0.889399 -0.125323
v -23.189678 0.889399 -0.108533
v -22.994539 0.852591 0.076485
v -22.974045 0.852591 0.000000
v -22.994539 0.852591 -0.076485
v -23.050531 0.852591 -0.132476
v -23.127014 0.852591 -0.152970
v -23.203501 0.852591 -0.132476
v -23.259491 0.852591 -0.076485
v -23.279985 0.852591 0.000000
v -23.259491 0.852591 0.076485
v -23.203501 0.852591 0.132476
v -23.127014 0.852591 0.152970
v -23.050531 0.852591 0.132476
v -23.048088 0.930357 -0.045568
v -23.035877 0.930357 0.000000
v -23.048088 0.930357 0.045568
v -23.081448 0.930357 0.078928
v -23.127014 0.930357 0.091138
v -23.172585 0.930357 0.078928
v -23.205944 0.930357 0.045568
v -23.218153 0.930357 0.000000
v -23.205944 0.930357 -0.045568
v -23.172585 0.930357 -0.078928
v -23.127014 0.930357 -0.091138
v -23.081448 0.930357 -0.078928
v -23.045307 0.927321 -0.047174
v -23.032667 0.927321 0.000000
v -23.045307 0.927321 0.047174
v -23.079842 0.927321 0.081709
v -23.127014 0.927321 0.094349
v -23.174191 0.927321 0.081709
v -23.208725 0.927321 0.047174
v -23.221365 0.927321 0.000000
v -23.208725 0.927321 -0.047174
v -23.174191 0.927321 -0.081708
v -23.127014 0.927321 -0.094349
v -23.079842 0.927321 -0.081708
v -23.079485 0.956496 0.000000
v -23.085855 0.956496 -0.023765
v -23.103251 0.956496 -0.041162
v -23.127014 0.956496 -0.047529
v -23.150780 0.956496 -0.041162
v -23.168177 0.956496 -0.023765
v -23.174543 0.956496 0.000000
v -23.168177 0.956496 0.023765
v -23.150780 0.956496 0.041162
v -23.127014 0.956496 0.047529
v -23.103251 0.956496 0.041162
v -23.085855 0.956496 0.023765
v -23.062216 0.936519 0.037411
v -23.052195 0.936519 0.000000
v -23.062216 0.936519 -0.037411
v -23.089603 0.936519 -0.064798
v -23.127014 0.936519 -0.074822
v -23.164427 0.936519 -0.064798
v -23.191813 0.936519 -0.037411
v -23.201838 0.936519 0.000000
v -23.191813 0.936519 0.037411
v -23.164427 0.936519 0.064798
v -23.127014 0.936519 0.074822
v -23.089603 0.936519 0.064798
v -23.117615 0.962539 0.000000
v -23.118876 0.962539 -0.004700
v -23.122314 0.962539 -0.008141
v -23.127014 0.962539 -0.009400
v -23.131714 0.962539 -0.008141
v -23.135157 0.962539 -0.004700
v -23.136415 0.962539 0.000000
v -23.135157 0.962539 0.004700
v -23.131714 0.962539 0.008141
v -23.127014 0.962539 0.009400
v -23.122314 0.962539 0.008141
v -23.118876 0.962539 0.004700
v -23.117615 0.975535 0.000000
v -23.118876 0.975535 -0.004700
v -23.127014 0.977974 0.000000
v -23.122314 0.975535 -0.008141
v -23.127014 0.975535 -0.009400
v -23.131714 0.975535 -0.008141
v -23.135157 0.975535 -0.004700
v -23.136415 0.975535 0.000000
v -23.135157 0.975535 0.004700
v -23.131714 0.975535 0.008141
v -23.127014 0.975535 0.009400
v -23.122314 0.975535 0.008141
v -23.118876 0.975535 0.004700
v -23.127014 0.968884 0.012874
v -23.120577 0.968884 0.011149
v -23.115866 0.968884 0.006437
v -23.114141 0.968884 0.000000
v -23.115866 0.968884 -0.006437
v -23.120577 0.968884 -0.011149
v -23.127014 0.968884 -0.012874
v -23.133451 0.968884 -0.011149
v -23.138165 0.968884 -0.006437
v -23.139889 0.968884 0.000000
v -23.138165 0.968884 0.006437
v -23.133451 0.968884 0.011149
v -23.276499 0.796638 0.000000
v -23.313158 0.818962 0.000000
v -23.333658 0.852067 0.000000
v -23.342882 0.897168 0.000000
v -23.302746 0.905933 0.000000
v -23.290607 0.894093 0.000000
v -23.273832 0.883263 0.000000
v -23.256435 0.878025 0.000000
v -23.273468 0.845108 -0.021713
v -23.294346 0.851833 -0.021713
v -23.311852 0.873355 -0.021713
v -23.323843 0.901248 -0.021713
v -23.336298 0.898579 -0.013661
v -23.326860 0.858703 -0.014496
v -23.308653 0.827515 -0.013700
v -23.278217 0.812051 -0.013478
v -23.307791 0.904688 -0.013448
v -23.296991 0.887861 -0.012746
v -23.277435 0.874916 -0.013132
v -23.262968 0.869816 -0.012240
v -23.307791 0.904688 0.013448
v -23.323843 0.901248 0.021713
v -23.296991 0.887861 0.012747
v -23.277435 0.874916 0.013132
v -23.294346 0.851833 0.021713
v -23.311852 0.873355 0.021713
v -23.262968 0.869816 0.012240
v -23.273468 0.845108 0.021713
v -23.278217 0.812051 0.013478
v -23.308653 0.827515 0.013700
v -23.326860 0.858703 0.014496
v -23.336298 0.898579 0.013661
v -23.282255 0.848230 0.000000
v -23.353931 0.917103 0.000000
v -23.348486 0.917231 -0.010998
v -23.331272 0.917473 -0.021713
v -23.312485 0.917886 -0.011582
v -23.308514 0.918061 0.000000
v -23.331272 0.917473 0.021713
v -23.312485 0.917886 0.011582
v -23.348486 0.917231 0.010999
v -23.348799 0.917074 0.000000
v -23.344660 0.917220 -0.008406
v -23.331293 0.917474 -0.016740
v -23.316757 0.917877 -0.008856
v -23.313850 0.917977 0.000000
v -23.331293 0.917474 0.016740
v -23.316757 0.917877 0.008856
v -23.344660 0.917220 0.008406
v -22.997248 0.897254 0.001083
v -22.974955 0.906335 0.001083
v -22.952635 0.899957 0.001083
v -22.934669 0.879714 0.001084
v -22.929758 0.848162 0.001083
v -22.937454 0.820470 0.001083
v -22.953445 0.814152 0.001083
v -22.956108 0.790374 0.001084
v -22.919147 0.803679 0.001084
v -22.904673 0.845233 0.001084
v -22.911455 0.887421 0.001083
v -22.937763 0.919313 0.001084
v -22.976683 0.932922 0.001084
v -23.014210 0.918023 0.001084
v -22.954983 0.801420 0.014166
v -22.927704 0.811719 0.014188
v -22.917099 0.846951 0.014246
v -22.922924 0.883662 0.014244
v -22.944799 0.910019 0.014207
v -22.975927 0.920220 0.015255
v -23.005869 0.907659 0.015292
v -23.005869 0.907659 -0.013125
v -22.975927 0.920220 -0.013088
v -22.944799 0.910019 -0.012041
v -22.922924 0.883662 -0.012076
v -22.917097 0.846951 -0.012079
v -22.927704 0.811719 -0.012022
v -22.954983 0.801420 -0.011999
v -22.999771 0.900215 0.010769
v -22.975256 0.910419 0.011003
v -22.950382 0.902836 0.010181
v -22.931383 0.880788 0.009971
v -22.926180 0.847815 0.009995
v -22.921768 0.806128 0.009702
v -22.955801 0.793668 0.009566
v -22.953894 0.810429 0.010337
v -22.934504 0.817932 0.010344
v -22.908394 0.845838 0.009813
v -22.914854 0.886341 0.009758
v -22.939852 0.916531 0.009665
v -22.976463 0.929047 0.010420
v -23.011677 0.914862 0.010573
v -22.999771 0.900215 -0.008602
v -22.975256 0.910419 -0.008836
v -22.950382 0.902836 -0.008015
v -22.931383 0.880788 -0.007804
v -22.926180 0.847815 -0.007829
v -22.934504 0.817932 -0.008177
v -22.953894 0.810429 -0.008171
v -22.955801 0.793668 -0.007399
v -22.921768 0.806128 -0.007536
v -22.908394 0.845838 -0.007647
v -22.914854 0.886341 -0.007592
v -22.939852 0.916532 -0.007498
v -22.976463 0.929047 -0.008253
v -23.011677 0.914862 -0.008407
v -23.018970 0.886867 0.016947
v -23.011276 0.879541 0.011705
v -23.008116 0.876607 0.001084
v -23.011276 0.879541 -0.009538
v -23.018970 0.886867 -0.014780
v -23.026815 0.894517 -0.009719
v -23.030277 0.898010 0.001084
v -23.026815 0.894517 0.011886
v -22.971668 0.822087 0.001084
v -22.978880 0.800450 0.001083
v -22.975531 0.810503 0.014192
v -22.975531 0.810503 -0.012025
v -22.972799 0.818693 0.010245
v -22.977884 0.803436 0.009656
v -22.972799 0.818693 -0.008078
v -22.977886 0.803436 -0.007489
vt 0.685945 0.860085
vt 0.714114 0.754959
vt 0.503863 0.754959
vt 0.714114 0.754959
vt 0.685945 0.649834
vt 0.503863 0.754959
vt 0.608988 0.572877
vt 0.503863 0.544709
vt 0.398738 0.572877
vt 0.321780 0.649834
vt 0.293612 0.754959
vt 0.293612 0.754959
vt 0.321780 0.860085
vt 0.398738 0.937042
vt 0.503863 0.965210
vt 0.608988 0.937042
vt 0.705108 0.871148
vt 0.736241 0.754959
vt 0.736241 0.754959
vt 0.705108 0.638771
vt 0.620052 0.553714
vt 0.503863 0.522582
vt 0.387674 0.553714
vt 0.302618 0.638771
vt 0.271485 0.754959
vt 0.271485 0.754959
vt 0.302618 0.871148
vt 0.387674 0.956204
vt 0.503863 0.987337
vt 0.620052 0.956204
vt 0.103222 0.004769
vt 0.104084 0.063984
vt -0.088189 0.063984
vt -0.088189 0.004769
vt 1.086682 0.004769
vt 1.086682 0.063984
vt 0.894408 0.063984
vt 0.895271 0.004769
vt 0.701305 0.063984
vt 0.702820 0.004769
vt 0.506728 0.063984
vt 0.508513 0.004769
vt 0.310395 0.063984
vt 0.311972 0.004769
vt 0.112490 0.063984
vt 0.113414 0.004769
vt -0.086346 0.063984
vt -0.086346 0.004769
vt 1.084841 0.004769
vt 1.084841 0.063984
vt 0.886005 0.063984
vt 0.885081 0.004769
vt 0.688100 0.063984
vt 0.686523 0.004769
vt 0.686521 0.004769
vt 0.688098 0.063984
vt 0.491764 0.063984
vt 0.489980 0.004769
vt 0.297188 0.063984
vt 0.295673 0.004769
vt 0.104575 0.131041
vt -0.088189 0.131041
vt 1.086682 0.131041
vt 0.893918 0.131041
vt 0.700445 0.131041
vt 0.505719 0.131041
vt 0.309507 0.131041
vt 0.111971 0.131041
vt -0.086346 0.131041
vt 1.084841 0.131041
vt 0.886525 0.131041
vt 0.688988 0.131041
vt 0.688986 0.131041
vt 0.492774 0.131041
vt 0.298048 0.131041
vt 0.104715 0.210525
vt -0.088189 0.210525
vt 1.086682 0.210525
vt 0.893778 0.210525
vt 0.700201 0.210525
vt 0.505434 0.210525
vt 0.309256 0.210525
vt 0.111824 0.210525
vt -0.086346 0.210525
vt 1.084841 0.210525
vt 0.886671 0.210525
vt 0.689239 0.210525
vt 0.689237 0.210525
vt 0.493059 0.210525
vt 0.298292 0.210525
vt 0.103963 0.370758
vt -0.088189 0.370758
vt -0.088189 0.288080
vt 0.104562 0.288080
vt 1.086682 0.370758
vt 0.894530 0.370758
vt 0.893931 0.288080
vt 1.086682 0.288080
vt 0.701517 0.370758
vt 0.700469 0.288080
vt 0.506978 0.370758
vt 0.505747 0.288080
vt 0.310615 0.370758
vt 0.309532 0.288080
vt 0.112618 0.370758
vt 0.111985 0.288080
vt -0.086346 0.370758
vt -0.086346 0.288080
vt 1.084841 0.288080
vt 1.084841 0.370758
vt 0.885877 0.370758
vt 0.886510 0.288080
vt 0.687880 0.370758
vt 0.688964 0.288080
vt 0.687877 0.370758
vt 0.491515 0.370758
vt 0.492746 0.288080
vt 0.688961 0.288080
vt 0.296976 0.370758
vt 0.298024 0.288080
vt 0.102733 0.460656
vt -0.088189 0.460656
vt 1.086682 0.460656
vt 0.895760 0.460656
vt 0.703682 0.460656
vt 0.509531 0.460656
vt 0.312876 0.460656
vt 0.113945 0.460656
vt -0.086346 0.460656
vt 1.084841 0.460656
vt 0.884550 0.460656
vt 0.685619 0.460656
vt 0.685617 0.460656
vt 0.488961 0.460656
vt 0.294811 0.460656
vt 0.102885 0.468973
vt -0.088189 0.468973
vt 1.086682 0.468973
vt 0.895607 0.468973
vt 0.703412 0.468973
vt 0.509213 0.468973
vt 0.312593 0.468973
vt 0.113779 0.468973
vt -0.086346 0.468973
vt 1.084841 0.468973
vt 0.884716 0.468973
vt 0.685902 0.468973
vt 0.685900 0.468973
vt 0.489280 0.468973
vt 0.295081 0.468973
vt 0.102596 0.478300
vt -0.088189 0.478300
vt 1.086682 0.478300
vt 0.895896 0.478300
vt 0.703922 0.478300
vt 0.509816 0.478300
vt 0.313129 0.478300
vt 0.114094 0.478300
vt -0.086346 0.478300
vt 1.084841 0.478300
vt 0.884401 0.478300
vt 0.685366 0.478300
vt 0.685364 0.478300
vt 0.488677 0.478300
vt 0.294571 0.478300
vt 0.175514 0.255713
vt 0.244230 0.255713
vt 0.218993 0.349903
vt 0.159482 0.315545
vt 0.159482 0.195881
vt 0.218993 0.161523
vt 0.244230 0.255713
vt 0.175514 0.255713
vt 0.115682 0.152081
vt 0.150040 0.092571
vt 0.055851 0.136049
vt 0.055851 0.067333
vt -0.003981 0.152081
vt -0.038339 0.092571
vt -0.047781 0.195881
vt -0.107292 0.161523
vt -0.063813 0.255713
vt -0.132529 0.255713
vt -0.047781 0.315545
vt -0.107292 0.349903
vt -0.132529 0.255713
vt -0.063813 0.255713
vt -0.003981 0.359345
vt -0.038339 0.418855
vt 0.055851 0.375377
vt 0.055851 0.444093
vt 0.115682 0.359345
vt 0.150040 0.418855
vt 0.254566 0.370442
vt 0.285308 0.255713
vt 0.285308 0.255713
vt 0.254566 0.140984
vt 0.170579 0.056997
vt 0.055851 0.026256
vt -0.058878 0.056997
vt -0.142865 0.140984
vt -0.173607 0.255713
vt -0.142865 0.370442
vt -0.173607 0.255713
vt -0.058878 0.454429
vt 0.055851 0.485170
vt 0.170579 0.454429
vt 0.293393 0.255713
vt 0.261568 0.374484
vt 0.261568 0.136942
vt 0.293393 0.255713
vt 0.174622 0.049995
vt 0.055851 0.018170
vt -0.062921 0.049995
vt -0.149867 0.136942
vt -0.181692 0.255713
vt -0.149867 0.374484
vt -0.181692 0.255713
vt -0.062921 0.461431
vt 0.055851 0.493256
vt 0.174622 0.461431
vt 0.102885 0.487628
vt -0.088189 0.487628
vt 1.086682 0.487628
vt 0.895607 0.487628
vt 0.703412 0.487628
vt 0.509213 0.487628
vt 0.312593 0.487628
vt 0.113779 0.487628
vt -0.086346 0.487628
vt 1.084841 0.487628
vt 0.884716 0.487628
vt 0.685902 0.487628
vt 0.685900 0.487628
vt 0.489280 0.487628
vt 0.295081 0.487628
vt 0.076346 0.267546
vt 0.055851 0.255713
vt 0.079517 0.255713
vt 0.067684 0.276209
vt 0.055851 0.279379
vt 0.044017 0.276209
vt 0.035355 0.267546
vt 0.032184 0.255713
vt 0.055851 0.255713
vt 0.032184 0.255713
vt 0.035355 0.243880
vt 0.044017 0.235217
vt 0.055851 0.232047
vt 0.067684 0.235217
vt 0.076346 0.243880
vt 0.079517 0.255713
vt 0.076346 0.267546
vt 0.079517 0.255713
vt 0.067684 0.276209
vt 0.055851 0.279379
vt 0.044017 0.276209
vt 0.035355 0.267546
vt 0.032184 0.255713
vt 0.035355 0.243880
vt 0.032184 0.255713
vt 0.044017 0.235217
vt 0.055851 0.232047
vt 0.067684 0.235217
vt 0.076346 0.243880
vt 0.079517 0.255713
vt 0.083922 0.271920
vt 0.088264 0.255713
vt 0.072057 0.283784
vt 0.055851 0.288127
vt 0.039644 0.283784
vt 0.027779 0.271920
vt 0.023437 0.255713
vt 0.027779 0.239506
vt 0.023437 0.255713
vt 0.039644 0.227642
vt 0.055851 0.223299
vt 0.072057 0.227642
vt 0.083922 0.239506
vt 0.088264 0.255713
vt 0.859065 0.402898
vt 0.805115 0.387971
vt 0.803258 0.348359
vt 0.853749 0.354472
vt 0.789153 0.292151
vt 0.760836 0.229635
vt 0.834260 0.197472
vt 0.846827 0.273278
vt 0.734981 0.194898
vt 0.800576 0.146085
vt 0.882173 0.081126
vt 0.900481 0.168283
vt 0.897915 0.255069
vt 0.895221 0.359079
vt 0.908714 0.419612
vt 0.937543 0.052443
vt 0.937543 0.159332
vt 0.937543 0.246754
vt 0.937543 0.361164
vt 0.937542 0.420991
vt 0.763686 0.352530
vt 0.772367 0.391131
vt 0.748039 0.305713
vt 0.723237 0.253371
vt 0.693879 0.211070
vt 1.069971 0.387971
vt 1.016021 0.402898
vt 1.021337 0.354472
vt 1.071827 0.348359
vt 1.085933 0.292151
vt 1.028259 0.273278
vt 1.040826 0.197472
vt 1.114249 0.229635
vt 1.074510 0.146085
vt 1.140105 0.194898
vt 0.974604 0.168283
vt 0.992913 0.081126
vt 0.977171 0.255069
vt 0.979865 0.359079
vt 0.966371 0.419611
vt 1.111400 0.352530
vt 1.102718 0.391131
vt 1.127047 0.305713
vt 1.151849 0.253371
vt 1.181207 0.211070
vt 0.937544 0.434203
vt 0.905303 0.430485
vt 0.856479 0.415166
vt 0.806518 0.401838
vt 0.779418 0.404380
vt 1.068568 0.401839
vt 1.018607 0.415166
vt 0.969783 0.430486
vt 1.095668 0.404380
vt 0.111261 0.241977
vt 0.037675 0.334613
vt 0.014736 0.241977
vt 0.192389 0.339575
vt 0.111796 0.426456
vt 0.208506 0.241977
vt 0.111796 0.057499
vt 0.192389 0.144380
vt 0.037675 0.149342
vt 1.260947 0.399330
vt 1.116292 0.399330
vt 1.116292 0.365448
vt 1.260850 0.365448
vt 1.116292 0.332194
vt 1.260821 0.332194
vt 0.973488 0.399329
vt 0.973488 0.365448
vt 0.973487 0.332194
vt 0.831849 0.399329
vt 0.831849 0.365448
vt 0.831849 0.332194
vt 0.705970 0.399329
vt 0.705970 0.365448
vt 0.705970 0.332194
vt 0.829514 0.399329
vt 0.829514 0.365448
vt 0.829514 0.332194
vt 0.949779 0.399329
vt 0.949779 0.365448
vt 0.949779 0.332194
vt 1.070608 0.399329
vt 1.070608 0.365448
vt 1.070608 0.332194
vt 1.189428 0.365448
vt 1.189428 0.332194
vt 1.189428 0.298801
vt 1.070608 0.298801
vt 1.070608 0.266630
vt 1.189428 0.266889
vt 0.949779 0.298801
vt 0.949779 0.266630
vt 0.829514 0.298801
vt 0.829514 0.266630
vt 0.705970 0.298801
vt 0.705970 0.266630
vt 0.831849 0.298801
vt 0.831849 0.266630
vt 0.973487 0.298801
vt 0.973488 0.266630
vt 1.116292 0.298801
vt 1.116292 0.266630
vt 1.261004 0.298801
vt 1.261337 0.266630
vt 1.262316 0.200003
vt 1.116292 0.200003
vt 1.116292 0.165764
vt 1.262913 0.165764
vt 1.116292 0.132235
vt 1.263234 0.132235
vt 0.973487 0.200003
vt 0.973488 0.165764
vt 0.973487 0.132235
vt 0.831849 0.200003
vt 0.831849 0.165764
vt 0.831849 0.132235
vt 0.705970 0.200003
vt 0.705970 0.165764
vt 0.705970 0.132235
vt 0.829514 0.200003
vt 0.829514 0.165764
vt 0.829514 0.132235
vt 0.949779 0.200003
vt 0.949779 0.165764
vt 0.949779 0.132235
vt 1.070608 0.200003
vt 1.070608 0.165764
vt 1.070608 0.132235
vt 1.189428 0.233098
vt 1.070608 0.233098
vt 0.949779 0.233098
vt 0.829514 0.233098
vt 0.705970 0.233098
vt 0.831849 0.233098
vt 0.973487 0.233098
vt 1.116292 0.233098
vt 1.261778 0.233098
vt 1.189428 0.399329
vt 1.189428 0.200003
vt 1.189428 0.165764
vt 1.189428 0.132235
vn 0.259557 -0.954029 -0.149860
vn 0.299699 -0.954034 0.000000
vn -0.000000 -1.000000 -0.000000
vn 0.259556 -0.954030 0.149860
vn 0.149868 -0.954021 0.259584
vn 0.000001 -0.954017 0.299753
vn -0.149858 -0.954025 0.259574
vn -0.259546 -0.954034 0.149850
vn -0.299699 -0.954034 -0.000000
vn -0.259546 -0.954034 -0.149851
vn -0.149857 -0.954025 -0.259576
vn -0.000000 -0.954017 -0.299753
vn 0.149867 -0.954021 -0.259583
vn 0.417770 -0.875950 -0.241205
vn 0.482393 -0.875955 0.000000
vn 0.417772 -0.875949 0.241207
vn 0.241212 -0.875934 0.417799
vn 0.000003 -0.875929 0.482441
vn -0.241201 -0.875944 0.417785
vn -0.417757 -0.875959 0.241194
vn -0.482383 -0.875960 -0.000000
vn -0.417762 -0.875955 -0.241199
vn -0.241205 -0.875941 -0.417789
vn 0.000003 -0.875930 -0.482438
vn 0.241209 -0.875936 -0.417796
vn 0.456521 -0.849776 -0.263569
vn 0.527162 -0.849765 0.000000
vn 0.456523 -0.849775 0.263572
vn 0.263563 -0.849787 0.456505
vn 0.000003 -0.849789 0.527123
vn -0.263556 -0.849793 0.456497
vn -0.456506 -0.849788 0.263559
vn -0.527138 -0.849780 -0.000000
vn -0.456505 -0.849788 -0.263558
vn -0.263557 -0.849794 -0.456495
vn 0.000004 -0.849790 -0.527122
vn 0.263563 -0.849788 -0.456503
vn 0.751653 -0.496684 -0.433962
vn 0.867935 -0.496677 -0.000000
vn 0.751653 -0.496684 0.433962
vn 0.433966 -0.496687 0.751648
vn 0.000003 -0.496683 0.867932
vn -0.433963 -0.496686 0.751652
vn -0.751653 -0.496680 0.433966
vn -0.867937 -0.496675 -0.000001
vn -0.751650 -0.496688 -0.433963
vn -0.433961 -0.496690 -0.751649
vn 0.000003 -0.496679 -0.867934
vn 0.433968 -0.496685 -0.751649
vn 0.865961 0.012259 -0.499961
vn 0.999925 0.012226 0.000000
vn 0.865962 0.012255 0.499960
vn 0.499961 0.012289 0.865961
vn 0.000004 0.012289 0.999925
vn -0.499962 0.012300 0.865960
vn -0.865957 0.012300 0.499967
vn -0.999924 0.012289 -0.000000
vn -0.865957 0.012300 -0.499968
vn -0.499962 0.012303 -0.865960
vn 0.000004 0.012292 -0.999924
vn 0.499961 0.012289 -0.865961
vn 0.613241 0.706102 -0.354056
vn 0.708104 0.706108 0.000000
vn 0.894620 0.446827 0.000000
vn 0.774760 0.446834 -0.447310
vn 0.613238 0.706106 0.354052
vn 0.774760 0.446836 0.447308
vn 0.354061 0.706100 0.613241
vn 0.447309 0.446829 0.774764
vn 0.000006 0.706094 0.708118
vn 0.000005 0.446811 0.894629
vn -0.354066 0.706089 0.613250
vn -0.447315 0.446815 0.774768
vn -0.613256 0.706087 0.354060
vn -0.774769 0.446816 0.447313
vn -0.708121 0.706091 -0.000001
vn -0.894628 0.446812 -0.000001
vn -0.613259 0.706083 -0.354063
vn -0.774770 0.446813 -0.447314
vn -0.354064 0.706089 -0.613251
vn -0.447313 0.446819 -0.774767
vn 0.000006 0.706097 -0.708115
vn 0.000006 0.446815 -0.894627
vn 0.354061 0.706097 -0.613244
vn 0.447311 0.446822 -0.774767
vn 0.523027 0.797032 -0.301966
vn 0.603946 0.797025 -0.000000
vn 0.523028 0.797031 0.301965
vn 0.301968 0.797043 0.523009
vn 0.000007 0.797051 0.603912
vn -0.301961 0.797049 0.523004
vn -0.523004 0.797051 0.301954
vn -0.603897 0.797063 -0.000000
vn -0.523007 0.797047 -0.301959
vn -0.301964 0.797042 -0.523011
vn 0.000005 0.797051 -0.603912
vn 0.301965 0.797046 -0.523006
vn 0.595271 -0.726312 -0.343690
vn 0.864664 0.055837 -0.499238
vn 0.998437 0.055889 -0.000001
vn 0.687360 -0.726317 0.000000
vn 0.864681 0.055814 0.499211
vn 0.595220 -0.726381 0.343633
vn 0.499221 0.055743 0.864680
vn 0.343621 -0.726421 0.595179
vn 0.000004 0.055751 0.998445
vn 0.000003 -0.726383 0.687290
vn -0.499227 0.055771 0.864674
vn -0.343670 -0.726338 0.595251
vn -0.864637 0.055686 0.499301
vn -0.594986 -0.726588 0.343601
vn -0.998454 0.055584 0.000000
vn -0.686780 -0.726866 0.000000
vn -0.864651 0.055661 -0.499280
vn -0.594932 -0.726658 -0.343546
vn -0.499200 0.055772 -0.864690
vn -0.343627 -0.726375 -0.595231
vn 0.000004 0.055803 -0.998442
vn 0.000003 -0.726315 -0.687362
vn 0.499227 0.055792 -0.864673
vn 0.343681 -0.726316 -0.595272
vn 0.524416 0.795804 -0.302793
vn 0.605472 0.795867 -0.000001
vn 0.524387 0.795837 0.302756
vn 0.302789 0.795790 0.524440
vn 0.000002 0.795767 0.605603
vn -0.302818 0.795751 0.524482
vn -0.524333 0.795868 0.302770
vn -0.605302 0.795996 0.000000
vn -0.524301 0.795901 -0.302739
vn -0.302785 0.795784 -0.524451
vn 0.000002 0.795767 -0.605603
vn 0.302815 0.795756 -0.524476
vn 0.383064 0.923722 0.000002
vn 0.475866 0.879518 0.000000
vn 0.412110 0.879521 -0.237925
vn 0.331746 0.923721 -0.191532
vn 0.331750 0.923719 0.191535
vn 0.412110 0.879521 0.237925
vn 0.191539 0.923718 0.331749
vn 0.237930 0.879520 0.412108
vn 0.000007 0.923723 0.383062
vn 0.000007 0.879524 0.475855
vn -0.191538 0.923719 0.331747
vn -0.237933 0.879521 0.412105
vn -0.331765 0.923712 0.191543
vn -0.412128 0.879509 0.237937
vn -0.383083 0.923714 0.000000
vn -0.475881 0.879510 -0.000000
vn -0.331765 0.923712 -0.191542
vn -0.412128 0.879509 -0.237937
vn -0.191537 0.923720 -0.331746
vn -0.237934 0.879520 -0.412107
vn 0.000007 0.923723 -0.383062
vn 0.000007 0.879520 -0.475861
vn 0.191539 0.923719 -0.331748
vn 0.237931 0.879519 -0.412111
vn 0.458584 0.848293 -0.264763
vn 0.529526 0.848294 0.000002
vn 0.458567 0.848309 0.264741
vn 0.264738 0.848328 0.458534
vn 0.000004 0.848322 0.529481
vn -0.264746 0.848316 0.458551
vn -0.458433 0.848393 0.264705
vn -0.529220 0.848485 0.000005
vn -0.458381 0.848433 -0.264668
vn -0.264720 0.848332 -0.458537
vn 0.000005 0.848295 -0.529523
vn 0.264770 0.848291 -0.458584
vn 0.998451 -0.055631 -0.000003
vn 0.864681 -0.055592 -0.499236
vn 0.864689 -0.055584 0.499223
vn 0.499234 -0.055513 0.864687
vn 0.000004 -0.055519 0.998458
vn -0.499229 -0.055525 0.864689
vn -0.864657 -0.055460 0.499292
vn -0.998466 -0.055372 0.000009
vn -0.864666 -0.055414 -0.499282
vn -0.499200 -0.055509 -0.864707
vn 0.000004 -0.055559 -0.998455
vn 0.499238 -0.055577 -0.864680
vn 0.605498 -0.795847 -0.000008
vn 0.524431 -0.795796 -0.302789
vn 0.524398 -0.795823 0.302774
vn 0.302798 -0.795775 0.524457
vn 0.000002 -0.795766 0.605605
vn -0.302805 -0.795758 0.524479
vn -0.524331 -0.795870 0.302767
vn -0.605313 -0.795988 0.000002
vn -0.524292 -0.795907 -0.302738
vn -0.302778 -0.795780 -0.524462
vn -0.000000 -0.795760 -0.605613
vn 0.302804 -0.795770 -0.524462
vn 0.535167 0.786219 -0.308959
vn 0.000006 1.000000 0.000008
vn 0.617927 0.786236 0.000014
vn 0.308993 0.786256 -0.535094
vn 0.000003 0.786288 -0.617860
vn -0.308906 0.786244 -0.535161
vn -0.535088 0.786252 -0.309013
vn -0.617943 0.786223 0.000013
vn -0.535145 0.786212 0.309017
vn -0.308908 0.786276 0.535114
vn 0.000008 0.786311 0.617831
vn 0.308972 0.786300 0.535040
vn 0.535147 0.786249 0.308917
vn 0.135564 0.987672 -0.078273
vn 0.156530 0.987673 0.000002
vn 0.078274 0.987672 -0.135560
vn 0.000003 0.987674 -0.156522
vn -0.078261 0.987674 -0.135558
vn -0.135563 0.987673 -0.078266
vn -0.156538 0.987672 0.000002
vn -0.135563 0.987672 0.078269
vn -0.078263 0.987673 0.135559
vn 0.000003 0.987674 0.156522
vn 0.078275 0.987672 0.135561
vn 0.135572 0.987670 0.078277
vn 0.759709 -0.480087 -0.438587
vn 0.865994 -0.009963 -0.499956
vn 0.999951 -0.009924 0.000001
vn 0.877193 -0.480138 -0.000005
vn 0.438630 -0.480271 -0.759568
vn 0.500057 -0.010018 -0.865935
vn 0.000002 -0.480410 -0.877044
vn 0.000004 -0.009982 -0.999950
vn -0.438524 -0.480207 -0.759670
vn -0.499910 -0.009926 -0.866021
vn -0.759601 -0.480198 -0.438653
vn -0.865940 -0.009965 -0.500048
vn -0.877154 -0.480209 0.000027
vn -0.999950 -0.010046 0.000029
vn -0.759637 -0.480192 0.438597
vn -0.865975 -0.010005 0.499988
vn -0.438486 -0.480378 0.759583
vn -0.499926 -0.009949 0.866011
vn 0.000007 -0.480445 0.877025
vn 0.000012 -0.009963 0.999950
vn 0.438598 -0.480407 0.759501
vn 0.500062 -0.010021 0.865932
vn 0.759630 -0.480295 0.438496
vn 0.866017 -0.010007 0.499914
vn -0.039050 0.762112 -0.646266
vn 0.401458 0.829744 -0.387758
vn 0.636128 0.359218 -0.682865
vn -0.028754 0.021996 -0.999345
vn 0.468860 0.446284 -0.762234
vn 0.277885 0.524635 -0.804698
vn -0.001394 0.030531 -0.999533
vn -0.014879 0.035523 -0.999258
vn 0.200824 0.548567 -0.811631
vn 0.010988 0.025639 -0.999611
vn -0.250953 -0.480725 -0.840194
vn -0.388524 -0.412487 -0.823956
vn -0.603104 -0.249085 -0.757774
vn -0.680039 -0.256981 -0.686665
vn -0.586111 0.595694 -0.549202
vn -0.488688 -0.872459 -0.000000
vn -0.702260 -0.711920 0.000001
vn -0.930058 -0.367414 0.000001
vn -0.934049 -0.357145 0.000001
vn -0.820511 0.571631 -0.000004
vn 0.859515 0.511111 -0.000001
vn 0.524448 0.851443 0.000003
vn 0.678503 0.734598 -0.000002
vn 0.439754 0.898118 0.000007
vn 0.327405 0.944884 0.000016
vn 0.401459 0.829742 0.387761
vn -0.039042 0.762102 0.646279
vn -0.028752 0.021969 0.999345
vn 0.636128 0.359207 0.682870
vn 0.468863 0.446274 0.762238
vn -0.014882 0.035515 0.999258
vn -0.001394 0.030530 0.999533
vn 0.277890 0.524625 0.804702
vn 0.010988 0.025638 0.999611
vn 0.200828 0.548551 0.811640
vn -0.388526 -0.412483 0.823957
vn -0.250954 -0.480725 0.840194
vn -0.603105 -0.249083 0.757775
vn -0.680038 -0.256988 0.686663
vn -0.586114 0.595689 0.549204
vn 0.378374 0.925653 -0.000007
vn 0.316832 0.895047 0.313861
vn -0.017342 0.827605 0.561042
vn -0.591270 0.638267 0.492965
vn -0.825172 0.564881 0.000004
vn -0.591267 0.638274 -0.492961
vn -0.017333 0.827609 -0.561037
vn 0.316837 0.895044 -0.313864
vn -0.321275 0.946986 -0.000008
vn 0.882958 -0.469453 0.000002
vn 0.671182 -0.741292 -0.000001
vn 0.488800 -0.525091 0.696674
vn 0.665460 -0.338076 0.665482
vn 0.020257 0.041879 0.998917
vn 0.051279 0.053750 0.997237
vn 0.053453 -0.998571 -0.000003
vn 0.043238 -0.712470 0.700369
vn 0.017402 0.032465 0.999321
vn -0.536577 -0.843852 0.000004
vn -0.384547 -0.609347 0.693412
vn 0.036838 0.027235 0.998950
vn -0.905595 -0.424143 0.000014
vn -0.655322 -0.305232 0.690932
vn 0.023083 0.011532 0.999667
vn -0.998255 0.059047 0.000012
vn -0.723385 0.044193 0.689029
vn 0.025040 -0.005968 0.999669
vn -0.739806 0.672820 0.000010
vn -0.513476 0.470423 0.717666
vn 0.025077 -0.037667 0.998976
vn 0.017401 0.999849 0.000011
vn 0.011603 0.704756 0.709355
vn -0.003991 -0.059500 0.998220
vn 0.289482 0.664929 0.688527
vn -0.026166 -0.058948 0.997918
vn -0.311741 -0.708354 0.633287
vn -0.023240 -0.753025 0.657581
vn -0.033811 -0.999428 0.000020
vn -0.403978 -0.914769 0.000022
vn 0.517871 -0.516099 0.682240
vn 0.710704 -0.703491 0.000023
vn 0.733353 -0.062186 0.676998
vn 0.996301 -0.085932 0.000021
vn 0.670646 0.306709 0.675399
vn 0.910599 0.413291 0.000014
vn 0.429570 0.612919 0.663175
vn 0.571266 0.820765 0.000014
vn -0.009786 0.733843 0.679248
vn -0.020437 0.999791 0.000020
vn -0.425579 0.587164 0.688565
vn -0.596318 0.802748 0.000025
vn -0.558257 0.457900 0.691865
vn -0.784229 0.620471 0.000024
vn 0.051302 0.053741 -0.997236
vn 0.020272 0.041867 -0.998918
vn 0.488806 -0.525086 -0.696673
vn 0.665474 -0.338068 -0.665473
vn 0.017397 0.032467 -0.999321
vn 0.043231 -0.712463 -0.700376
vn 0.036831 0.027235 -0.998950
vn -0.384553 -0.609341 -0.693413
vn 0.023112 0.011522 -0.999667
vn -0.655311 -0.305227 -0.690944
vn 0.025090 -0.005976 -0.999667
vn -0.723366 0.044198 -0.689049
vn 0.025093 -0.037664 -0.998975
vn -0.513466 0.470432 -0.717667
vn -0.003994 -0.059487 -0.998221
vn 0.011606 0.704756 -0.709355
vn -0.311729 -0.708346 -0.633301
vn -0.023233 -0.753020 -0.657587
vn 0.517884 -0.516112 -0.682220
vn 0.733373 -0.062200 -0.676975
vn 0.670655 0.306702 -0.675393
vn 0.429577 0.612920 -0.663169
vn -0.009781 0.733852 -0.679239
vn -0.425576 0.587172 -0.688559
vn -0.558255 0.457913 -0.691858
vn 0.399108 0.916904 0.000007
vn -0.026157 -0.058942 -0.997919
vn 0.289480 0.664912 -0.688544
s 1
g polySurface7769
f 1/1/1 2/2/2 97/3/3
f 2/4/2 3/5/4 97/6/3
f 3/5/4 4/7/5 97/6/3
f 4/7/5 5/8/6 97/6/3
f 5/8/6 6/9/7 97/6/3
f 6/9/7 7/10/8 97/6/3
f 7/10/8 8/11/9 97/6/3
f 8/12/9 9/13/10 97/3/3
f 9/13/10 10/14/11 97/3/3
f 10/14/11 11/15/12 97/3/3
f 11/15/12 12/16/13 97/3/3
f 12/16/13 1/1/1 97/3/3
f 1/1/1 13/17/14 14/18/15 2/2/2
f 2/4/2 14/19/15 15/20/16 3/5/4
f 3/5/4 15/20/16 16/21/17 4/7/5
f 4/7/5 16/21/17 17/22/18 5/8/6
f 5/8/6 17/22/18 18/23/19 6/9/7
f 6/9/7 18/23/19 19/24/20 7/10/8
f 7/10/8 19/24/20 20/25/21 8/11/9
f 8/12/9 20/26/21 21/27/22 9/13/10
f 9/13/10 21/27/22 22/28/23 10/14/11
f 10/14/11 22/28/23 23/29/24 11/15/12
f 11/15/12 23/29/24 24/30/25 12/16/13
f 12/16/13 24/30/25 13/17/14 1/1/1
f 13/31/14 25/32/26 26/33/27 14/34/15
f 14/35/15 26/36/27 27/37/28 15/38/16
f 15/38/16 27/37/28 28/39/29 16/40/17
f 16/40/17 28/39/29 29/41/30 17/42/18
f 17/42/18 29/41/30 30/43/31 18/44/19
f 18/44/19 30/43/31 31/45/32 19/46/20
f 19/46/20 31/45/32 32/47/33 20/48/21
f 20/49/21 32/50/33 33/51/34 21/52/22
f 21/52/22 33/51/34 34/53/35 22/54/23
f 22/55/23 34/56/35 35/57/36 23/58/24
f 23/58/24 35/57/36 36/59/37 24/60/25
f 24/60/25 36/59/37 25/32/26 13/31/14
f 25/32/26 37/61/38 38/62/39 26/33/27
f 26/36/27 38/63/39 39/64/40 27/37/28
f 27/37/28 39/64/40 40/65/41 28/39/29
f 28/39/29 40/65/41 41/66/42 29/41/30
f 29/41/30 41/66/42 42/67/43 30/43/31
f 30/43/31 42/67/43 43/68/44 31/45/32
f 31/45/32 43/68/44 44/69/45 32/47/33
f 32/50/33 44/70/45 45/71/46 33/51/34
f 33/51/34 45/71/46 46/72/47 34/53/35
f 34/56/35 46/73/47 47/74/48 35/57/36
f 35/57/36 47/74/48 48/75/49 36/59/37
f 36/59/37 48/75/49 37/61/38 25/32/26
f 37/61/38 49/76/50 50/77/51 38/62/39
f 38/63/39 50/78/51 51/79/52 39/64/40
f 39/64/40 51/79/52 52/80/53 40/65/41
f 40/65/41 52/80/53 53/81/54 41/66/42
f 41/66/42 53/81/54 54/82/55 42/67/43
f 42/67/43 54/82/55 55/83/56 43/68/44
f 43/68/44 55/83/56 56/84/57 44/69/45
f 44/70/45 56/85/57 57/86/58 45/71/46
f 45/71/46 57/86/58 58/87/59 46/72/47
f 46/73/47 58/88/59 59/89/60 47/74/48
f 47/74/48 59/89/60 60/90/61 48/75/49
f 48/75/49 60/90/61 49/76/50 37/61/38
f 106/91/62 105/92/63 111/93/64 112/94/65
f 105/95/63 104/96/66 110/97/67 111/98/64
f 104/96/66 103/99/68 121/100/69 110/97/67
f 103/99/68 102/101/70 120/102/71 121/100/69
f 102/101/70 101/103/72 119/104/73 120/102/71
f 101/103/72 100/105/74 118/106/75 119/104/73
f 100/105/74 99/107/76 117/108/77 118/106/75
f 117/109/77 99/110/76 98/111/78 116/112/79
f 98/111/78 109/113/80 115/114/81 116/112/79
f 109/115/80 108/116/82 114/117/83 115/118/81
f 108/116/82 107/119/84 113/120/85 114/117/83
f 107/119/84 106/91/62 112/94/65 113/120/85
f 106/91/62 61/121/86 62/122/87 105/92/63
f 105/95/63 62/123/87 63/124/88 104/96/66
f 104/96/66 63/124/88 64/125/89 103/99/68
f 103/99/68 64/125/89 65/126/90 102/101/70
f 102/101/70 65/126/90 66/127/91 101/103/72
f 101/103/72 66/127/91 67/128/92 100/105/74
f 100/105/74 67/128/92 68/129/93 99/107/76
f 99/110/76 68/130/93 69/131/94 98/111/78
f 109/113/80 98/111/78 69/131/94 70/132/95
f 109/115/80 70/133/95 71/134/96 108/116/82
f 108/116/82 71/134/96 72/135/97 107/119/84
f 107/119/84 72/135/97 61/121/86 106/91/62
s 2
f 61/121/98 73/136/99 74/137/100 62/122/101
f 62/123/101 74/138/100 75/139/102 63/124/103
f 63/124/103 75/139/102 76/140/104 64/125/105
f 64/125/105 76/140/104 77/141/106 65/126/107
f 65/126/107 77/141/106 78/142/108 66/127/109
f 66/127/109 78/142/108 79/143/110 67/128/111
f 67/128/111 79/143/110 80/144/112 68/129/113
f 68/130/113 80/145/112 81/146/114 69/131/115
f 69/131/115 81/146/114 82/147/116 70/132/117
f 70/133/117 82/148/116 83/149/118 71/134/119
f 71/134/119 83/149/118 84/150/120 72/135/121
f 72/135/121 84/150/120 73/136/99 61/121/98
f 73/136/99 85/151/122 86/152/123 74/137/100
f 74/138/100 86/153/123 87/154/124 75/139/102
f 75/139/102 87/154/124 88/155/125 76/140/104
f 76/140/104 88/155/125 89/156/126 77/141/106
f 77/141/106 89/156/126 90/157/127 78/142/108
f 78/142/108 90/157/127 91/158/128 79/143/110
f 79/143/110 91/158/128 92/159/129 80/144/112
f 80/145/112 92/160/129 93/161/130 81/146/114
f 81/146/114 93/161/130 94/162/131 82/147/116
f 82/148/116 94/163/131 95/164/132 83/149/118
f 83/149/118 95/164/132 96/165/133 84/150/120
f 84/150/120 96/165/133 85/151/122 73/136/99
s 1
f 50/78/51 111/98/64 110/97/67 51/79/52
f 112/94/65 111/93/64 50/77/51 49/76/50
f 60/90/61 113/120/85 112/94/65 49/76/50
f 59/89/60 114/117/83 113/120/85 60/90/61
f 58/88/59 115/118/81 114/117/83 59/89/60
f 57/86/58 116/112/79 115/114/81 58/87/59
f 56/85/57 117/109/77 116/112/79 57/86/58
f 55/83/56 118/106/75 117/108/77 56/84/57
f 54/82/55 119/104/73 118/106/75 55/83/56
f 53/81/54 120/102/71 119/104/73 54/82/55
f 52/80/53 121/100/69 120/102/71 53/81/54
f 51/79/52 110/97/67 121/100/69 52/80/53
s 3
f 146/166/134 159/167/135 160/168/136 147/169/137
f 157/170/138 158/171/139 159/172/135 146/173/134
f 156/174/140 169/175/141 158/171/139 157/170/138
f 155/176/142 168/177/143 169/175/141 156/174/140
f 154/178/144 167/179/145 168/177/143 155/176/142
f 153/180/146 166/181/147 167/179/145 154/178/144
f 152/182/148 165/183/149 166/181/147 153/180/146
f 151/184/150 164/185/151 165/186/149 152/187/148
f 150/188/152 163/189/153 164/185/151 151/184/150
f 149/190/154 162/191/155 163/189/153 150/188/152
f 148/192/156 161/193/157 162/191/155 149/190/154
f 160/168/136 161/193/157 148/192/156 147/169/137
f 122/194/158 160/168/136 159/167/135 123/195/159
f 123/196/159 159/172/135 158/171/139 124/197/160
f 124/197/160 158/171/139 169/175/141 125/198/161
f 125/198/161 169/175/141 168/177/143 126/199/162
f 126/199/162 168/177/143 167/179/145 127/200/163
f 127/200/163 167/179/145 166/181/147 128/201/164
f 128/201/164 166/181/147 165/183/149 129/202/165
f 165/186/149 164/185/151 130/203/166 129/204/165
f 130/203/166 164/185/151 163/189/153 131/205/167
f 131/205/167 163/189/153 162/191/155 132/206/168
f 132/206/168 162/191/155 161/193/157 133/207/169
f 133/207/169 161/193/157 160/168/136 122/194/158
f 122/194/158 123/195/159 135/208/170 134/209/171
f 123/196/159 124/197/160 136/210/172 135/211/170
f 124/197/160 125/198/161 137/212/173 136/210/172
f 125/198/161 126/199/162 138/213/174 137/212/173
f 126/199/162 127/200/163 139/214/175 138/213/174
f 127/200/163 128/201/164 140/215/176 139/214/175
f 128/201/164 129/202/165 141/216/177 140/215/176
f 129/204/165 130/203/166 142/217/178 141/218/177
f 130/203/166 131/205/167 143/219/179 142/217/178
f 131/205/167 132/206/168 144/220/180 143/219/179
f 132/206/168 133/207/169 145/221/181 144/220/180
f 133/207/169 122/194/158 134/209/171 145/221/181
f 134/222/171 135/223/170 86/152/182 85/151/183
f 135/224/170 136/225/172 87/154/184 86/153/182
f 136/225/172 137/226/173 88/155/185 87/154/184
f 137/226/173 138/227/174 89/156/186 88/155/185
f 138/227/174 139/228/175 90/157/187 89/156/186
f 139/228/175 140/229/176 91/158/188 90/157/187
f 140/229/176 141/230/177 92/159/189 91/158/188
f 141/231/177 142/232/178 93/161/190 92/160/189
f 142/232/178 143/233/179 94/162/191 93/161/190
f 143/234/179 144/235/180 95/164/192 94/163/191
f 144/235/180 145/236/181 96/165/193 95/164/192
f 145/236/181 134/222/171 85/151/183 96/165/193
s 4
f 183/237/194 184/238/195 182/239/196
f 184/238/195 183/237/194 185/240/197
f 184/238/195 185/240/197 186/241/198
f 184/238/195 186/241/198 187/242/199
f 184/238/195 187/242/199 188/243/200
f 184/238/195 188/243/200 189/244/201
f 184/245/195 189/246/201 190/247/202
f 184/245/195 190/247/202 191/248/203
f 184/245/195 191/248/203 192/249/204
f 184/245/195 192/249/204 193/250/205
f 184/245/195 193/250/205 194/251/206
f 184/245/195 194/251/206 182/252/196
s 3
f 147/169/137 171/253/207 170/254/208 146/166/134
f 148/192/156 172/255/209 171/253/207 147/169/137
f 149/190/154 173/256/210 172/255/209 148/192/156
f 150/188/152 174/257/211 173/256/210 149/190/154
f 151/184/150 175/258/212 174/257/211 150/188/152
f 152/187/148 176/259/213 175/258/212 151/184/150
f 153/180/146 177/260/214 176/261/213 152/182/148
f 154/178/144 178/262/215 177/260/214 153/180/146
f 155/176/142 179/263/216 178/262/215 154/178/144
f 156/174/140 180/264/217 179/263/216 155/176/142
f 157/170/138 181/265/218 180/264/217 156/174/140
f 146/173/134 170/266/208 181/265/218 157/170/138
s 4
f 171/253/219 199/267/220 198/268/221 170/254/222
f 172/255/223 200/269/224 199/267/220 171/253/219
f 173/256/225 201/270/226 200/269/224 172/255/223
f 174/257/227 202/271/228 201/270/226 173/256/225
f 175/258/229 203/272/230 202/271/228 174/257/227
f 176/259/231 204/273/232 203/272/230 175/258/229
f 177/260/233 205/274/234 204/275/232 176/261/231
f 178/262/235 206/276/236 205/274/234 177/260/233
f 179/263/237 195/277/238 206/276/236 178/262/235
f 180/264/239 196/278/240 195/277/238 179/263/237
f 181/265/241 197/279/242 196/278/240 180/264/239
f 170/266/222 198/280/221 197/279/242 181/265/241
f 196/278/240 193/250/205 192/249/204 195/277/238
f 197/279/242 194/251/206 193/250/205 196/278/240
f 198/280/221 182/252/196 194/251/206 197/279/242
f 199/267/220 183/237/194 182/239/196 198/268/221
f 200/269/224 185/240/197 183/237/194 199/267/220
f 201/270/226 186/241/198 185/240/197 200/269/224
f 202/271/228 187/242/199 186/241/198 201/270/226
f 203/272/230 188/243/200 187/242/199 202/271/228
f 204/273/232 189/244/201 188/243/200 203/272/230
f 205/274/234 190/247/202 189/246/201 204/275/232
f 206/276/236 191/248/203 190/247/202 205/274/234
f 195/277/238 192/249/204 191/248/203 206/276/236
s 5
f 242/281/243 243/282/244 223/283/245 218/284/246
f 224/285/247 225/286/248 216/287/249 217/288/250
f 218/284/246 223/283/245 224/285/247 217/288/250
f 216/287/249 225/286/248 226/289/251 215/290/252
f 216/287/249 215/290/252 222/291/253 221/292/254
f 217/288/250 216/287/249 221/292/254 220/293/255
f 218/284/246 217/288/250 220/293/255 219/294/256
f 241/295/257 242/281/243 218/284/246 219/294/256
f 207/296/258 208/297/259 221/292/254 222/291/253
f 220/293/255 221/292/254 208/297/259 209/298/260
f 219/294/256 220/293/255 209/298/260 210/299/261
f 240/300/262 241/295/257 219/294/256 210/299/261
f 211/301/263 223/283/245 243/282/244 244/302/264
f 212/303/265 224/285/247 223/283/245 211/301/263
f 213/304/266 225/286/248 224/285/247 212/303/265
f 226/289/251 225/286/248 213/304/266 214/305/267
f 246/306/268 245/307/269 228/308/270 227/309/271
f 229/310/272 232/311/273 231/312/274 230/313/275
f 228/308/270 232/311/273 229/310/272 227/309/271
f 231/312/274 234/314/276 233/315/277 230/313/275
f 231/312/274 236/316/278 235/317/279 234/314/276
f 232/311/273 237/318/280 236/316/278 231/312/274
f 228/308/270 238/319/281 237/318/280 232/311/273
f 245/307/269 247/320/282 238/319/281 228/308/270
f 207/296/258 235/317/279 236/316/278 208/297/259
f 237/318/280 209/298/260 208/297/259 236/316/278
f 238/319/281 210/299/261 209/298/260 237/318/280
f 247/320/282 240/300/262 210/299/261 238/319/281
f 211/321/263 244/322/264 246/306/268 227/309/271
f 212/323/265 211/321/263 227/309/271 229/310/272
f 213/324/266 212/323/265 229/310/272 230/313/275
f 233/315/277 214/325/267 213/324/266 230/313/275
f 241/295/257 240/300/262 248/326/283 249/327/284
f 243/282/244 242/281/243 250/328/285 251/329/286
f 242/281/243 241/295/257 249/327/284 250/328/285
f 244/302/264 243/282/244 251/329/286 252/330/287
f 245/307/269 246/306/268 254/331/288 253/332/289
f 255/333/290 247/320/282 245/307/269 253/332/289
f 240/300/262 247/320/282 255/333/290 248/326/283
f 246/306/268 244/322/264 252/334/287 254/331/288
f 239/335/291 249/336/284 248/337/283
f 239/335/291 251/338/286 250/339/285
f 239/335/291 250/339/285 249/336/284
f 239/335/291 252/340/287 251/338/286
f 239/335/291 253/341/289 254/342/288
f 239/335/291 255/343/290 253/341/289
f 239/335/291 248/337/283 255/343/290
f 239/335/291 254/342/288 252/340/287
s 6
f 314/344/292 256/345/293 284/346/294 313/347/295
f 284/346/294 276/348/296 312/349/297 313/347/295
f 257/350/298 285/351/299 284/346/294 256/345/293
f 276/348/296 284/346/294 285/351/299 275/352/300
f 258/353/301 286/354/302 285/351/299 257/350/298
f 275/352/300 285/351/299 286/354/302 274/355/303
f 259/356/304 287/357/305 286/354/302 258/353/301
f 274/355/303 286/354/302 287/357/305 273/358/306
f 260/359/307 288/360/308 287/357/305 259/356/304
f 273/358/306 287/357/305 288/360/308 272/361/309
f 261/362/310 292/363/311 288/360/308 260/359/307
f 272/361/309 288/360/308 292/363/311 271/364/312
f 262/365/313 291/366/314 292/363/311 261/362/310
f 271/364/312 292/363/311 291/366/314 270/367/315
f 270/367/315 291/366/314 324/368/316 322/369/317
f 270/367/315 322/369/317 325/370/318 290/371/319
f 263/372/320 290/371/319 325/370/318 321/373/321
f 271/364/312 270/367/315 290/371/319 289/374/322
f 264/375/323 289/374/322 290/371/319 263/372/320
f 272/361/309 271/364/312 289/374/322 293/376/324
f 265/377/325 293/376/324 289/374/322 264/375/323
f 273/358/306 272/361/309 293/376/324 294/378/326
f 266/379/327 294/378/326 293/376/324 265/377/325
f 274/355/303 273/358/306 294/378/326 295/380/328
f 267/381/329 295/380/328 294/378/326 266/379/327
f 275/352/300 274/355/303 295/380/328 296/382/330
f 268/383/331 296/382/330 295/380/328 267/381/329
f 276/348/296 275/352/300 296/382/330 297/384/332
f 269/385/333 297/384/332 296/382/330 268/383/331
f 319/386/334 312/349/297 276/348/296 297/384/332
f 297/384/332 269/385/333 318/387/335 319/386/334
f 316/388/336 277/389/337 298/390/338 315/391/339
f 298/390/338 256/392/293 314/393/292 315/391/339
f 278/394/340 299/395/341 298/390/338 277/389/337
f 257/396/298 256/392/293 298/390/338 299/395/341
f 279/397/342 300/398/343 299/395/341 278/394/340
f 258/399/301 257/396/298 299/395/341 300/398/343
f 280/400/344 301/401/345 300/398/343 279/397/342
f 259/402/304 258/399/301 300/398/343 301/401/345
f 281/403/346 302/404/347 301/401/345 280/400/344
f 260/405/307 259/402/304 301/401/345 302/404/347
f 282/406/348 303/407/349 302/404/347 281/403/346
f 261/408/310 260/405/307 302/404/347 303/407/349
f 283/409/350 304/410/351 303/407/349 282/406/348
f 262/411/313 261/408/310 303/407/349 304/410/351
f 263/372/320 321/373/321 327/412/352 305/413/353
f 264/375/323 263/372/320 305/413/353 306/414/354
f 283/409/350 282/406/348 306/414/354 305/413/353
f 265/377/325 264/375/323 306/414/354 307/415/355
f 282/406/348 281/403/346 307/415/355 306/414/354
f 266/379/327 265/377/325 307/415/355 308/416/356
f 281/403/346 280/400/344 308/416/356 307/415/355
f 267/381/329 266/379/327 308/416/356 309/417/357
f 280/400/344 279/397/342 309/417/357 308/416/356
f 268/383/331 267/381/329 309/417/357 310/418/358
f 279/397/342 278/394/340 310/418/358 309/417/357
f 269/385/333 268/383/331 310/418/358 311/419/359
f 278/394/340 277/389/337 311/419/359 310/418/358
f 318/387/335 269/385/333 311/419/359 317/420/360
f 311/419/359 277/389/337 316/388/336 317/420/360
f 320/421/361 324/368/316 291/366/314 262/365/313
f 323/422/362 326/423/363 304/410/351 283/409/350
f 326/423/363 320/424/361 262/411/313 304/410/351
f 327/412/352 323/422/362 283/409/350 305/413/353
