# This file uses centimeters as units for non-parametric coordinates.

g default
v -23.036360 0.747848 0.000000
v -23.082624 0.747848 0.080132
v -23.175154 0.747848 0.080132
v -23.221418 0.747848 0.000000
v -23.175154 0.747848 -0.080132
v -23.082624 0.747848 -0.080132
v -22.966591 0.789047 0.000000
v -23.047741 0.789047 0.140555
v -23.210039 0.789047 0.140555
v -23.291189 0.789047 0.000000
v -23.210039 0.789047 -0.140555
v -23.047741 0.789047 -0.140555
v -23.128889 0.754493 0.000000
v -22.967400 0.852591 0.000000
v -23.048147 0.852591 -0.139853
v -23.209635 0.852591 -0.139853
v -23.290379 0.852591 0.000000
v -23.209635 0.852591 0.139853
v -23.048147 0.852591 0.139853
v -23.037752 0.930357 0.000000
v -23.083323 0.930357 0.078928
v -23.174459 0.930357 0.078928
v -23.220028 0.930357 0.000000
v -23.174459 0.930357 -0.078928
v -23.083323 0.930357 -0.078928
v -23.128889 0.977974 0.000000
v -23.282764 0.785355 0.000000
v -23.258709 0.875234 0.000000
v -23.277519 0.838882 -0.023978
v -23.277519 0.838882 0.023978
v -23.362789 0.918390 0.000000
v -23.335869 0.918798 -0.023978
v -23.310736 0.919448 0.000000
v -23.335869 0.918798 0.023978
v -22.916246 0.797861 0.001084
v -22.907845 0.889335 0.001083
v -22.979094 0.939038 0.001084
v -22.937550 0.821476 0.015399
v -22.933651 0.880169 0.015459
v -22.976892 0.909994 0.016563
v -22.976892 0.909994 -0.014396
v -22.933651 0.880169 -0.013291
v -22.937550 0.821476 -0.013232
v -23.012009 0.882784 0.018412
v -23.012009 0.882784 -0.016245
v -23.037638 0.900902 0.001084
v -22.981495 0.794335 0.001083
v -22.976570 0.820484 0.015402
v -22.976570 0.820484 -0.013235
vt 0.714114 0.754959
vt 0.503863 0.754959
vt 0.714114 0.754959
vt 0.503863 0.754959
vt 0.608988 0.572877
vt 0.398738 0.572877
vt 0.293612 0.754959
vt 0.293612 0.754959
vt 0.398738 0.937042
vt 0.608988 0.937042
vt -0.088189 0.131041
vt 1.086682 0.131041
vt 0.700445 0.131041
vt 0.309507 0.131041
vt -0.086346 0.131041
vt 1.084841 0.131041
vt 0.688988 0.131041
vt 0.688986 0.131041
vt 0.298048 0.131041
vt -0.088189 0.288080
vt 1.086682 0.288080
vt 0.700469 0.288080
vt 0.309532 0.288080
vt -0.086346 0.288080
vt 1.084841 0.288080
vt 0.688964 0.288080
vt 0.688961 0.288080
vt 0.298024 0.288080
vt 0.285308 0.255713
vt 0.285308 0.255713
vt 0.170579 0.056997
vt -0.058878 0.056997
vt -0.173607 0.255713
vt -0.173607 0.255713
vt -0.058878 0.454429
vt 0.170579 0.454429
vt 0.055851 0.255713
vt 0.055851 0.255713
vt 0.859065 0.402898
vt 0.800576 0.146085
vt 0.937543 0.052443
vt 0.937542 0.420991
vt 0.772367 0.391131
vt 0.693879 0.211070
vt 1.016021 0.402898
vt 1.074510 0.146085
vt 1.102718 0.391131
vt 1.181207 0.211070
vt 1.260821 0.332194
vt 0.973487 0.332194
vt 0.705970 0.332194
vt 0.949779 0.332194
vt 1.189428 0.332194
vt 1.189428 0.266889
vt 0.949779 0.266630
vt 0.705970 0.266630
vt 0.973488 0.266630
vt 1.261337 0.266630
vt 1.262316 0.200003
vt 0.973487 0.200003
vt 0.705970 0.200003
vt 0.949779 0.200003
vt 1.189428 0.200003
vt 0.000000 0.000000
vt 0.610803 0.000000
vt 1.000000 0.450029
vt 0.298664 0.498585
vn 0.000000 -1.000000 0.000000
vn 0.222664 -0.974895 -0.000001
vn 0.111331 -0.974897 0.192826
vn -0.111327 -0.974898 0.192823
vn -0.222654 -0.974898 0.000000
vn -0.111327 -0.974898 -0.192823
vn 0.111333 -0.974896 -0.192827
vn 0.428348 -0.515825 -0.741918
vn 0.856694 -0.515825 -0.000001
vn 0.428347 -0.515825 0.741919
vn -0.428345 -0.515832 0.741915
vn -0.856686 -0.515838 0.000000
vn -0.428345 -0.515833 -0.741915
vn 0.463331 0.375866 -0.802527
vn 0.926673 0.375869 0.000000
vn 0.463331 0.375868 0.802526
vn -0.463337 0.375867 0.802523
vn -0.926674 0.375865 0.000001
vn -0.463336 0.375868 -0.802523
vn 0.304183 0.793652 -0.526867
vn 0.608369 0.793655 -0.000000
vn 0.304183 0.793652 0.526867
vn -0.304184 0.793656 0.526860
vn -0.608365 0.793658 0.000001
vn -0.304183 0.793658 -0.526859
vn 0.000004 1.000000 0.000000
vn 0.747287 0.664501 0.000000
vn -0.042030 0.047538 -0.997985
vn -0.045315 0.573672 -0.817831
vn 0.451772 0.892133 0.000000
vn -0.838524 -0.544865 -0.000000
vn -0.966590 0.256328 -0.000000
vn -0.042031 0.047538 0.997985
vn -0.045315 0.573672 0.817831
vn 0.045332 -0.397298 -0.916569
vn 0.045338 -0.397305 0.916566
vn 0.333995 -0.365551 0.868804
vn 0.333995 -0.365546 -0.868806
vn -0.391079 -0.185253 0.901520
vn -0.391079 -0.185251 -0.901520
vn -0.262354 0.283115 0.922505
vn -0.262347 0.283114 -0.922508
vn -0.003990 0.503210 -0.864155
vn -0.003994 0.503210 0.864155
vn 0.043348 -0.999060 0.000001
vn 0.704582 -0.709623 0.000006
vn 0.897238 0.441547 0.000006
vn 0.044034 0.999030 0.000006
vn -0.549860 0.835257 0.000007
vn 0.965995 -0.258561 0.000000
vn 0.965995 -0.258561 0.000000
vn 0.965995 -0.258561 0.000000
vn 0.965995 -0.258561 0.000000
s 1
g polySurface8375
f 13/4/1 1/3/2 2/5/3
f 13/4/1 2/5/3 3/6/4
f 13/4/1 3/6/4 4/7/5
f 13/2/1 4/8/5 5/9/6
f 13/2/1 5/9/6 6/10/7
f 13/2/1 6/10/7 1/1/2
f 1/1/2 6/10/7 12/19/8 7/11/9
f 2/5/3 1/3/2 7/12/9 8/13/10
f 3/6/4 2/5/3 8/13/10 9/14/11
f 4/7/5 3/6/4 9/14/11 10/15/12
f 5/9/6 4/8/5 10/16/12 11/17/13
f 6/10/7 5/9/6 11/18/13 12/19/8
f 7/11/9 12/19/8 15/28/14 14/20/15
f 8/13/10 7/12/9 14/21/15 19/22/16
f 9/14/11 8/13/10 19/22/16 18/23/17
f 10/15/12 9/14/11 18/23/17 17/24/18
f 11/17/13 10/16/12 17/25/18 16/26/19
f 12/19/8 11/18/13 16/27/19 15/28/14
f 25/36/20 20/29/21 14/20/15 15/28/14
f 20/30/21 21/31/22 19/22/16 14/21/15
f 21/31/22 22/32/23 18/23/17 19/22/16
f 22/32/23 23/33/24 17/24/18 18/23/17
f 17/25/18 23/34/24 24/35/25 16/26/19
f 24/35/25 25/36/20 15/28/14 16/27/19
f 26/37/26 20/29/21 25/36/20
f 26/37/26 25/36/20 24/35/25
f 26/37/26 24/35/25 23/34/24
f 26/38/26 23/33/24 22/32/23
f 21/31/22 26/38/26 22/32/23
f 26/38/26 21/31/22 20/30/21
s 2
f 28/44/27 29/40/28 32/39/29 33/43/30
f 29/40/28 27/41/31 31/42/32 32/39/29
f 27/41/31 30/46/33 34/45/34 31/42/32
f 34/45/34 30/46/33 28/48/27 33/47/30
f 34/45/34 33/43/30 32/39/29 31/42/32
s 3
f 41/60/35 40/50/36 44/49/37 45/59/38
f 39/51/39 40/50/36 41/60/35 42/61/40
f 38/52/41 39/51/39 42/61/40 43/62/42
f 49/63/43 48/53/44 38/52/41 43/62/42
f 38/52/41 48/53/44 47/54/45 35/55/46
f 36/56/47 39/51/39 38/52/41 35/55/46
f 37/57/48 40/50/36 39/51/39 36/56/47
f 46/58/49 44/49/37 40/50/36 37/57/48
f 43/62/42 35/55/46 47/54/45 49/63/43
f 36/56/47 35/55/46 43/62/42 42/61/40
f 37/57/48 36/56/47 42/61/40 41/60/35
f 46/58/49 37/57/48 41/60/35 45/59/38
s off
f 28/64/50 30/65/51 27/66/52 29/67/53
