# This file uses centimeters as units for non-parametric coordinates.

g default
v -22.758884 0.769507 -0.019183
v -22.753744 0.769507 0.000000
v -22.758884 0.769507 0.019183
v -22.772926 0.769507 0.033225
v -22.792110 0.769507 0.038365
v -22.811291 0.769507 0.033225
v -22.825333 0.769507 0.019183
v -22.830475 0.769507 0.000000
v -22.825333 0.769507 -0.019183
v -22.811291 0.769507 -0.033225
v -22.792110 0.769507 -0.038365
v -22.772926 0.769507 -0.033225
v -22.740557 0.799990 -0.029764
v -22.732582 0.799990 0.000000
v -22.740557 0.799990 0.029764
v -22.762344 0.799990 0.051553
v -22.792110 0.799990 0.059528
v -22.821873 0.799990 0.051553
v -22.843662 0.799990 0.029764
v -22.851637 0.799990 0.000000
v -22.843662 0.799990 -0.029764
v -22.821873 0.799990 -0.051553
v -22.792110 0.799990 -0.059528
v -22.762344 0.799990 -0.051553
v -22.792110 0.768095 -0.000000
v -22.736004 0.870126 0.032392
v -22.727325 0.870126 0.000000
v -22.736004 0.870126 -0.032392
v -22.759718 0.870126 -0.056105
v -22.792110 0.870126 -0.064784
v -22.824501 0.870126 -0.056105
v -22.848213 0.870126 -0.032392
v -22.856894 0.870126 0.000000
v -22.848213 0.870126 0.032392
v -22.824501 0.870126 0.056105
v -22.792110 0.870126 0.064784
v -22.759718 0.870126 0.056105
v -22.731224 0.870156 0.035153
v -22.721806 0.870156 0.000000
v -22.731224 0.870156 -0.035153
v -22.756958 0.870156 -0.060886
v -22.792110 0.870156 -0.070305
v -22.827263 0.870156 -0.060886
v -22.852997 0.870156 -0.035153
v -22.862413 0.870156 0.000000
v -22.852997 0.870156 0.035153
v -22.827263 0.870156 0.060886
v -22.792110 0.870156 0.070305
v -22.756958 0.870156 0.060886
v -22.759430 0.751592 -0.018867
v -22.754375 0.751592 0.000000
v -22.759430 0.751592 0.018867
v -22.773243 0.751592 0.032680
v -22.792110 0.751592 0.037735
v -22.810978 0.751592 0.032680
v -22.824787 0.751592 0.018867
v -22.829845 0.751592 0.000000
v -22.824787 0.751592 -0.018867
v -22.810978 0.751592 -0.032680
v -22.792110 0.751592 -0.037735
v -22.773243 0.751592 -0.032680
v -22.755991 0.760805 -0.020853
v -22.750404 0.760805 0.000000
v -22.755991 0.760805 0.020853
v -22.771257 0.760805 0.036119
v -22.792110 0.760805 0.041706
v -22.812963 0.760805 0.036119
v -22.828230 0.760805 0.020853
v -22.833817 0.760805 0.000000
v -22.828230 0.760805 -0.020853
v -22.812963 0.760805 -0.036119
v -22.792110 0.760805 -0.041706
v -22.771257 0.760805 -0.036119
v -22.746164 0.767483 -0.026527
v -22.739056 0.767483 0.000000
v -22.746164 0.767483 0.026527
v -22.765583 0.767483 0.045945
v -22.792110 0.767483 0.053053
v -22.818636 0.767483 0.045945
v -22.838055 0.767483 0.026527
v -22.845161 0.767483 0.000000
v -22.838055 0.767483 -0.026527
v -22.818636 0.767483 -0.045945
v -22.792110 0.767483 -0.053052
v -22.765583 0.767483 -0.045945
v -22.736069 0.793943 -0.032356
v -22.727396 0.793943 0.000000
v -22.736069 0.793943 0.032356
v -22.759754 0.793943 0.056042
v -22.792110 0.793943 0.064712
v -22.824465 0.793943 0.056042
v -22.848152 0.793943 0.032356
v -22.856823 0.793943 0.000000
v -22.848152 0.793943 -0.032356
v -22.824465 0.793943 -0.056042
v -22.792110 0.793943 -0.064712
v -22.759754 0.793943 -0.056042
v -22.731569 0.831514 -0.034953
v -22.722202 0.831514 0.000000
v -22.731569 0.831514 0.034953
v -22.757156 0.831514 0.060541
v -22.792110 0.831514 0.069907
v -22.827063 0.831514 0.060541
v -22.852650 0.831514 0.034953
v -22.862017 0.831514 0.000000
v -22.852650 0.831514 -0.034953
v -22.827063 0.831514 -0.060541
v -22.792110 0.831514 -0.069907
v -22.757156 0.831514 -0.060541
v -22.792110 0.759269 -0.000000
v -22.792110 0.871259 -0.067133
v -22.825676 0.871259 -0.058139
v -22.850248 0.871259 -0.033567
v -22.859243 0.871259 0.000000
v -22.850248 0.871259 0.033567
v -22.825676 0.871259 0.058139
v -22.792110 0.871259 0.067133
v -22.758543 0.871259 0.058139
v -22.733971 0.871259 0.033567
v -22.724976 0.871259 0.000000
v -22.733971 0.871259 -0.033567
v -22.758543 0.871259 -0.058139
vt 0.924866 0.801757
vt 1.066480 0.801757
vt 0.783253 0.801757
vt 0.641640 0.801757
vt 0.500027 0.801757
vt 0.358414 0.801757
vt 0.216801 0.801757
vt 0.075188 0.801757
vt -0.066426 0.801757
vt -0.208039 0.801757
vt -0.349652 0.801757
vt 1.208093 0.801757
vt 0.924866 0.682119
vt 1.066480 0.682119
vt 0.783253 0.682119
vt 0.641640 0.682119
vt 0.500027 0.682119
vt 0.358414 0.682119
vt 0.216801 0.682119
vt 0.075188 0.682119
vt -0.066426 0.682119
vt -0.208039 0.682119
vt -0.349652 0.682119
vt 0.783253 0.495332
vt 0.924866 0.495332
vt 1.066480 0.495332
vt -0.349652 0.495332
vt -0.208039 0.495332
vt -0.066426 0.495332
vt 0.075188 0.495332
vt 0.216801 0.495332
vt 0.358414 0.495332
vt 0.500027 0.495332
vt 0.641640 0.495332
vt 0.783253 0.484429
vt 0.924866 0.484429
vt 1.066480 0.484429
vt -0.349652 0.484429
vt -0.208039 0.484429
vt -0.066426 0.484429
vt 0.075188 0.484429
vt 0.216801 0.484429
vt 0.358414 0.484429
vt 0.500027 0.484429
vt 0.641640 0.484429
vt 0.424402 0.857840
vt 0.446147 0.776686
vt 0.283839 0.776686
vt 0.424402 0.695532
vt 0.364993 0.636123
vt 0.283839 0.614378
vt 0.202685 0.636123
vt 0.143277 0.695532
vt 0.121531 0.776686
vt 0.143277 0.857840
vt 0.202685 0.917249
vt 0.283839 0.938994
vt 1.066480 0.005894
vt 0.924866 0.005894
vt 0.783253 0.005894
vt 0.641640 0.005894
vt 0.500027 0.005894
vt 0.358414 0.005894
vt 0.216801 0.005894
vt 0.075188 0.005894
vt -0.066426 0.005894
vt -0.208039 0.005894
vt -0.349652 0.005894
vt 1.208093 0.005894
vt 1.066480 0.055793
vt 0.924866 0.055793
vt 0.783253 0.055793
vt 0.641640 0.055793
vt 0.500027 0.055793
vt 0.358414 0.055793
vt 0.216801 0.055793
vt 0.075188 0.055793
vt -0.066426 0.055793
vt -0.208039 0.055793
vt -0.349652 0.055793
vt 1.208093 0.055793
vt 1.066480 0.173670
vt 0.924866 0.173670
vt 0.783253 0.173670
vt 0.641640 0.173670
vt 0.500027 0.173670
vt 0.358414 0.173670
vt 0.216801 0.173670
vt 0.075188 0.173670
vt -0.066426 0.173670
vt -0.208039 0.173670
vt -0.349652 0.173670
vt 1.208093 0.173670
vt 1.066480 0.324683
vt 0.924866 0.324683
vt 0.783253 0.324683
vt 0.641640 0.324683
vt 0.500027 0.324683
vt 0.358414 0.324683
vt 0.216801 0.324683
vt 0.075188 0.324683
vt -0.066426 0.324683
vt -0.208039 0.324683
vt -0.349652 0.324683
vt 1.208093 0.324683
vt 0.924866 0.474232
vt 0.783253 0.474232
vt 1.066480 0.474232
vt 1.208093 0.474232
vt -0.349652 0.474232
vt -0.208039 0.474232
vt -0.066425 0.474232
vt 0.075188 0.474232
vt 0.216801 0.474232
vt 0.358414 0.474232
vt 0.500027 0.474232
vt 0.641640 0.474232
vt 1.349706 0.801757
vt 0.898647 0.773804
vt 1.349706 0.682119
vt 1.349706 0.495332
vt 1.208093 0.682119
vt 1.208093 0.495332
vt 1.208093 0.484429
vt 0.364993 0.917249
vt 0.457046 0.876687
vt 1.349706 0.005894
vt 1.349706 0.055793
vt 1.349706 0.173670
vt 1.349706 0.324683
vt 1.349706 0.484429
vt 1.349706 0.474232
vt 0.483842 0.776686
vt 0.457046 0.676685
vt 0.383840 0.603479
vt 0.283839 0.576684
vt 0.183838 0.603479
vt 0.110632 0.676685
vt 0.083837 0.776686
vt 0.110632 0.876687
vt 0.183838 0.949893
vt 0.283839 0.976688
vt 0.383840 0.949893
vt 0.878060 0.850636
vt 0.744982 0.773804
vt 0.878060 0.696972
vt 0.821815 0.640726
vt 0.744982 0.620139
vt 0.668150 0.640726
vt 0.611905 0.696972
vt 0.591318 0.773804
vt 0.611905 0.850636
vt 0.668150 0.906881
vt 0.744982 0.927468
vt 0.821815 0.906881
vn -0.474560 0.880223 0.000000
vn -0.410982 0.880224 0.237275
vn 0.000001 1.000000 0.000000
vn -0.410978 0.880227 -0.237272
vn -0.237275 0.880226 -0.410979
vn 0.000008 0.880222 -0.474562
vn 0.237279 0.880226 -0.410975
vn 0.410975 0.880224 -0.237289
vn 0.474566 0.880220 0.000001
vn 0.410982 0.880220 0.237290
vn 0.237283 0.880222 0.410982
vn 0.000011 0.880223 0.474560
vn -0.237276 0.880227 0.410974
vn -0.941980 0.335668 0.000001
vn -0.815786 0.335667 0.470980
vn -0.815783 0.335673 -0.470980
vn -0.470983 0.335669 -0.815783
vn 0.000013 0.335667 -0.941981
vn 0.470991 0.335675 -0.815776
vn 0.815771 0.335678 -0.470997
vn 0.941978 0.335675 0.000002
vn 0.815774 0.335674 0.470995
vn 0.470996 0.335668 0.815776
vn 0.000016 0.335662 0.941982
vn -0.470991 0.335666 0.815779
vn -0.863609 0.074731 -0.498594
vn -0.997203 0.074745 0.000002
vn -0.863610 0.074731 0.498591
vn -0.498602 0.074719 0.863605
vn 0.000011 0.074728 0.997204
vn 0.498611 0.074739 0.863598
vn 0.863601 0.074758 0.498602
vn 0.997201 0.074772 0.000002
vn 0.863600 0.074751 -0.498605
vn 0.498603 0.074740 -0.863602
vn 0.000011 0.074745 -0.997203
vn -0.498594 0.074730 -0.863609
vn -0.434644 0.900602 -0.000008
vn -0.376374 0.900629 -0.217282
vn -0.049225 0.998383 -0.028420
vn -0.056844 0.998383 -0.000002
vn -0.376336 0.900648 0.217265
vn -0.049207 0.998385 0.028404
vn -0.217234 0.900683 0.376270
vn -0.028391 0.998387 0.049166
vn 0.000007 0.900678 0.434488
vn 0.000005 0.998387 0.056768
vn 0.217199 0.900705 0.376237
vn 0.028357 0.998389 0.049138
vn 0.376186 0.900728 0.217194
vn 0.049102 0.998391 0.028352
vn 0.434458 0.900692 -0.000012
vn 0.056728 0.998390 -0.000005
vn 0.376284 0.900674 -0.217247
vn 0.049158 0.998388 -0.028389
vn 0.217248 0.900666 -0.376302
vn 0.028393 0.998386 -0.049189
vn 0.000005 0.900649 -0.434547
vn 0.000007 0.998386 -0.056799
vn -0.217251 0.900661 -0.376313
vn -0.028404 0.998385 -0.049191
vn 0.392355 -0.891483 -0.226530
vn 0.453031 -0.891495 0.000000
vn 0.000003 -1.000000 -0.000003
vn 0.392353 -0.891485 0.226527
vn 0.226530 -0.891476 0.392370
vn -0.000003 -0.891484 0.453053
vn -0.226520 -0.891490 0.392345
vn -0.392302 -0.891514 0.226502
vn -0.452965 -0.891528 0.000000
vn -0.392299 -0.891515 -0.226500
vn -0.226523 -0.891481 -0.392365
vn -0.000002 -0.891465 -0.453090
vn 0.226536 -0.891467 -0.392387
vn 0.795287 -0.395839 -0.459162
vn 0.918294 -0.395900 0.000000
vn 0.795287 -0.395839 0.459162
vn 0.459157 -0.395801 0.795309
vn 0.000000 -0.395840 0.918320
vn -0.459160 -0.395878 0.795269
vn -0.795235 -0.395966 0.459143
vn -0.918239 -0.396026 0.000000
vn -0.795235 -0.395965 -0.459145
vn -0.459164 -0.395830 -0.795290
vn -0.000003 -0.395777 -0.918347
vn 0.459159 -0.395785 -0.795316
vn 0.439282 -0.861807 -0.253613
vn 0.645236 -0.666996 -0.372542
vn 0.745060 -0.666998 0.000000
vn 0.507280 -0.861782 0.000001
vn 0.645237 -0.666995 0.372541
vn 0.439282 -0.861807 0.253613
vn 0.372525 -0.666999 0.645243
vn 0.253596 -0.861823 0.439261
vn -0.000004 -0.667001 0.745057
vn -0.000001 -0.861820 0.507213
vn -0.372536 -0.666985 0.645250
vn -0.253611 -0.861815 0.439267
vn -0.645252 -0.666981 0.372540
vn -0.439278 -0.861809 0.253613
vn -0.745065 -0.666992 0.000000
vn -0.507238 -0.861806 0.000001
vn -0.645265 -0.666961 -0.372554
vn -0.439293 -0.861797 -0.253628
vn -0.372543 -0.666966 -0.645266
vn -0.253622 -0.861804 -0.439283
vn -0.000003 -0.666996 -0.745061
vn 0.000002 -0.861814 -0.507224
vn 0.372520 -0.666995 -0.645249
vn 0.253593 -0.861817 -0.439274
vn 0.833104 -0.273048 -0.481022
vn 0.961999 -0.273051 0.000000
vn 0.833105 -0.273047 0.481021
vn 0.481002 -0.273046 0.833116
vn -0.000007 -0.273039 0.962003
vn -0.481005 -0.273024 0.833122
vn -0.833113 -0.273036 0.481014
vn -0.961996 -0.273065 0.000000
vn -0.833115 -0.273021 -0.481019
vn -0.481003 -0.273015 -0.833126
vn -0.000007 -0.273051 -0.962000
vn 0.480998 -0.273053 -0.833117
vn 0.863658 -0.073801 -0.498647
vn 0.997274 -0.073789 -0.000000
vn 0.863657 -0.073804 0.498647
vn 0.498638 -0.073808 0.863662
vn -0.000005 -0.073800 0.997273
vn -0.498638 -0.073819 0.863661
vn -0.863660 -0.073816 0.498641
vn -0.997274 -0.073794 0.000000
vn -0.863661 -0.073805 -0.498640
vn -0.498637 -0.073814 -0.863662
vn -0.000005 -0.073809 -0.997272
vn 0.498636 -0.073811 -0.863663
vn 0.811577 0.584246 0.000002
vn 0.702832 0.584273 0.405773
vn 0.702828 0.584274 -0.405779
vn 0.405769 0.584279 -0.702830
vn -0.000000 0.584264 -0.811564
vn -0.405788 0.584252 -0.702841
vn -0.702842 0.584258 -0.405778
vn -0.811563 0.584265 0.000002
vn -0.702847 0.584255 0.405775
vn -0.405786 0.584258 0.702837
vn 0.000003 0.584260 0.811566
vn 0.405767 0.584279 0.702831
s 1
g polySurface6606
f 2/119/1 1/144/2 25/145/3
f 3/146/4 2/119/1 25/145/3
f 4/147/5 3/146/4 25/145/3
f 5/148/6 4/147/5 25/145/3
f 6/149/7 5/148/6 25/145/3
f 7/150/8 6/149/7 25/145/3
f 8/151/9 7/150/8 25/145/3
f 9/152/10 8/151/9 25/145/3
f 10/153/11 9/152/10 25/145/3
f 11/154/12 10/153/11 25/145/3
f 12/155/13 11/154/12 25/145/3
f 1/144/2 12/155/13 25/145/3
f 2/1/1 14/13/14 13/14/15 1/2/2
f 3/3/4 15/15/16 14/13/14 2/1/1
f 4/4/5 16/16/17 15/15/16 3/3/4
f 5/5/6 17/17/18 16/16/17 4/4/5
f 6/6/7 18/18/19 17/17/18 5/5/6
f 7/7/8 19/19/20 18/18/19 6/6/7
f 8/8/9 20/20/21 19/19/20 7/7/8
f 9/9/10 21/21/22 20/20/21 8/8/9
f 10/10/11 22/22/23 21/21/22 9/9/10
f 11/11/12 23/23/24 22/22/23 10/10/11
f 12/12/13 24/122/25 23/120/24 11/118/12
f 1/2/2 13/14/15 24/122/25 12/12/13
f 15/15/16 26/24/26 27/25/27 14/13/14
f 14/13/14 27/25/27 28/26/28 13/14/15
f 13/14/15 28/26/28 29/123/29 24/122/25
f 24/122/25 29/123/29 30/121/30 23/120/24
f 23/23/24 30/27/30 31/28/31 22/22/23
f 22/22/23 31/28/31 32/29/32 21/21/22
f 21/21/22 32/29/32 33/30/33 20/20/21
f 20/20/21 33/30/33 34/31/34 19/19/20
f 19/19/20 34/31/34 35/32/35 18/18/19
f 18/18/19 35/32/35 36/33/36 17/17/18
f 17/17/18 36/33/36 37/34/37 16/16/17
f 16/16/17 37/34/37 26/24/26 15/15/16
s 2
f 27/25/38 26/24/39 119/35/40 120/36/41
f 28/26/42 27/25/38 120/36/41 121/37/43
f 29/123/44 28/26/42 121/37/43 122/124/45
f 30/121/46 29/123/44 122/124/45 111/131/47
f 31/28/48 30/27/46 111/38/47 112/39/49
f 32/29/50 31/28/48 112/39/49 113/40/51
f 33/30/52 32/29/50 113/40/51 114/41/53
f 34/31/54 33/30/52 114/41/53 115/42/55
f 35/32/56 34/31/54 115/42/55 116/43/57
f 36/33/58 35/32/56 116/43/57 117/44/59
f 37/34/60 36/33/58 117/44/59 118/45/61
f 26/24/39 37/34/60 118/45/61 119/35/40
s 3
f 50/46/62 51/47/63 110/48/64
f 51/47/63 52/49/65 110/48/64
f 52/49/65 53/50/66 110/48/64
f 53/50/66 54/51/67 110/48/64
f 54/51/67 55/52/68 110/48/64
f 55/52/68 56/53/69 110/48/64
f 56/53/69 57/54/70 110/48/64
f 57/54/70 58/55/71 110/48/64
f 58/55/71 59/56/72 110/48/64
f 59/56/72 60/57/73 110/48/64
f 60/57/73 61/125/74 110/48/64
f 61/125/74 50/46/62 110/48/64
f 50/46/62 62/126/75 63/133/76 51/47/63
f 51/47/63 63/133/76 64/134/77 52/49/65
f 52/49/65 64/134/77 65/135/78 53/50/66
f 53/50/66 65/135/78 66/136/79 54/51/67
f 54/51/67 66/136/79 67/137/80 55/52/68
f 55/52/68 67/137/80 68/138/81 56/53/69
f 56/53/69 68/138/81 69/139/82 57/54/70
f 57/54/70 69/139/82 70/140/83 58/55/71
f 58/55/71 70/140/83 71/141/84 59/56/72
f 59/56/72 71/141/84 72/142/85 60/57/73
f 60/57/73 72/142/85 73/143/86 61/125/74
f 61/125/74 73/143/86 62/126/75 50/46/62
s 2
f 62/58/87 74/70/88 75/71/89 63/59/90
f 63/59/90 75/71/89 76/72/91 64/60/92
f 64/60/92 76/72/91 77/73/93 65/61/94
f 65/61/94 77/73/93 78/74/95 66/62/96
f 66/62/96 78/74/95 79/75/97 67/63/98
f 67/63/98 79/75/97 80/76/99 68/64/100
f 68/64/100 80/76/99 81/77/101 69/65/102
f 69/65/102 81/77/101 82/78/103 70/66/104
f 70/66/104 82/78/103 83/79/105 71/67/106
f 71/67/106 83/79/105 84/80/107 72/68/108
f 72/127/108 84/128/107 85/81/109 73/69/110
f 73/69/110 85/81/109 74/70/88 62/58/87
f 74/70/88 86/82/111 87/83/112 75/71/89
f 75/71/89 87/83/112 88/84/113 76/72/91
f 76/72/91 88/84/113 89/85/114 77/73/93
f 77/73/93 89/85/114 90/86/115 78/74/95
f 78/74/95 90/86/115 91/87/116 79/75/97
f 79/75/97 91/87/116 92/88/117 80/76/99
f 80/76/99 92/88/117 93/89/118 81/77/101
f 81/77/101 93/89/118 94/90/119 82/78/103
f 82/78/103 94/90/119 95/91/120 83/79/105
f 83/79/105 95/91/120 96/92/121 84/80/107
f 84/128/107 96/129/121 97/93/122 85/81/109
f 85/81/109 97/93/122 86/82/111 74/70/88
f 86/82/111 98/94/123 99/95/124 87/83/112
f 87/83/112 99/95/124 100/96/125 88/84/113
f 88/84/113 100/96/125 101/97/126 89/85/114
f 89/85/114 101/97/126 102/98/127 90/86/115
f 90/86/115 102/98/127 103/99/128 91/87/116
f 91/87/116 103/99/128 104/100/129 92/88/117
f 92/88/117 104/100/129 105/101/130 93/89/118
f 93/89/118 105/101/130 106/102/131 94/90/119
f 94/90/119 106/102/131 107/103/132 95/91/120
f 95/91/120 107/103/132 108/104/133 96/92/121
f 96/129/121 108/130/133 109/105/134 97/93/122
f 97/93/122 109/105/134 98/94/123 86/82/111
f 99/95/124 39/106/135 38/107/136 100/96/125
f 40/108/137 39/106/135 99/95/124 98/94/123
f 109/105/134 41/109/138 40/108/137 98/94/123
f 108/130/133 42/132/139 41/109/138 109/105/134
f 107/103/132 43/111/140 42/110/139 108/104/133
f 106/102/131 44/112/141 43/111/140 107/103/132
f 105/101/130 45/113/142 44/112/141 106/102/131
f 104/100/129 46/114/143 45/113/142 105/101/130
f 103/99/128 47/115/144 46/114/143 104/100/129
f 102/98/127 48/116/145 47/115/144 103/99/128
f 101/97/126 49/117/146 48/116/145 102/98/127
f 100/96/125 38/107/136 49/117/146 101/97/126
f 112/39/49 111/38/47 42/110/139 43/111/140
f 113/40/51 112/39/49 43/111/140 44/112/141
f 114/41/53 113/40/51 44/112/141 45/113/142
f 115/42/55 114/41/53 45/113/142 46/114/143
f 116/43/57 115/42/55 46/114/143 47/115/144
f 117/44/59 116/43/57 47/115/144 48/116/145
f 118/45/61 117/44/59 48/116/145 49/117/146
f 119/35/40 118/45/61 49/117/146 38/107/136
f 120/36/41 119/35/40 38/107/136 39/106/135
f 121/37/43 120/36/41 39/106/135 40/108/137
f 122/124/45 121/37/43 40/108/137 41/109/138
f 111/131/47 122/124/45 41/109/138 42/132/139
