# This file uses centimeters as units for non-parametric coordinates.

g default
v -26.011955 0.973867 -0.114913
v -26.126865 0.973867 -0.162510
v -26.241779 0.973867 -0.114913
v -26.289375 0.973867 0.000000
v -26.241779 0.973867 0.114913
v -26.126865 0.973867 0.162510
v -26.011955 0.973867 0.114913
v -25.964355 0.973867 0.000000
v -26.126865 1.640221 0.000000
v -26.144131 0.595431 0.016824
v -26.109600 0.595431 0.016824
v -26.144131 1.661610 0.016824
v -26.109600 1.661610 0.016824
v -26.144131 1.661610 -0.020585
v -26.109600 1.661610 -0.020585
v -26.144131 0.595431 -0.020585
v -26.109600 0.595431 -0.020585
vt 0.676777 0.073223
vt 0.500000 0.000000
vt 0.323223 0.073223
vt 0.250000 0.250000
vt 0.323223 0.426777
vt 0.500000 0.500000
vt 0.676777 0.426777
vt 0.750000 0.250000
vt 0.250000 0.500000
vt 0.312500 0.500000
vt 0.375000 0.500000
vt 0.437500 0.500000
vt 0.500000 0.500000
vt 0.562500 0.500000
vt 0.625000 0.500000
vt 0.687500 0.500000
vt 0.750000 0.500000
vt 0.500000 1.000000
vt 0.375000 0.000000
vt 0.625000 0.000000
vt 0.625000 0.250000
vt 0.375000 0.250000
vt 0.625000 0.500000
vt 0.375000 0.500000
vt 0.625000 0.750000
vt 0.375000 0.750000
vt 0.625000 1.000000
vt 0.375000 1.000000
vt 0.875000 0.000000
vt 0.875000 0.250000
vt 0.125000 0.000000
vt 0.125000 0.250000
vn 0.000000 -1.000000 0.000000
vn 0.000000 -1.000000 0.000000
vn 0.000000 -1.000000 0.000000
vn 0.000000 -1.000000 0.000000
vn 0.000000 -1.000000 0.000000
vn 0.000000 -1.000000 0.000000
vn 0.000000 -1.000000 0.000000
vn 0.000000 -1.000000 0.000000
vn 0.373328 0.219808 -0.901283
vn 0.373328 0.219808 -0.901283
vn 0.373328 0.219808 -0.901283
vn -0.373318 0.219797 -0.901290
vn -0.373318 0.219797 -0.901290
vn -0.373318 0.219797 -0.901290
vn -0.901291 0.219806 -0.373309
vn -0.901291 0.219806 -0.373309
vn -0.901291 0.219806 -0.373309
vn -0.901291 0.219806 0.373309
vn -0.901291 0.219806 0.373309
vn -0.901291 0.219806 0.373309
vn -0.373318 0.219802 0.901288
vn -0.373318 0.219802 0.901288
vn -0.373318 0.219802 0.901288
vn 0.373328 0.219803 0.901284
vn 0.373328 0.219803 0.901284
vn 0.373328 0.219803 0.901284
vn 0.901281 0.219803 0.373334
vn 0.901281 0.219803 0.373334
vn 0.901281 0.219803 0.373334
vn 0.901281 0.219803 -0.373334
vn 0.901281 0.219803 -0.373334
vn 0.901281 0.219803 -0.373334
vn 0.000000 0.000000 1.000000
vn 0.000000 0.000000 1.000000
vn 0.000000 0.000000 1.000000
vn 0.000000 0.000000 1.000000
vn 0.000000 1.000000 0.000000
vn 0.000000 1.000000 0.000000
vn 0.000000 1.000000 0.000000
vn 0.000000 1.000000 0.000000
vn 0.000000 0.000000 -1.000000
vn 0.000000 0.000000 -1.000000
vn 0.000000 0.000000 -1.000000
vn 0.000000 0.000000 -1.000000
vn 0.000000 -1.000000 0.000000
vn 0.000000 -1.000000 0.000000
vn 0.000000 -1.000000 0.000000
vn 0.000000 -1.000000 0.000000
vn 1.000000 0.000000 0.000000
vn 1.000000 0.000000 0.000000
vn 1.000000 0.000000 0.000000
vn 1.000000 0.000000 0.000000
vn -1.000000 0.000000 0.000000
vn -1.000000 0.000000 0.000000
vn -1.000000 0.000000 0.000000
vn -1.000000 0.000000 0.000000
s off
g polySurface8370
f 1/1/1 8/8/2 7/7/3 6/6/4 5/5/5 4/4/6 3/3/7 2/2/8
f 1/9/9 2/10/10 9/18/11
f 2/10/12 3/11/13 9/18/14
f 3/11/15 4/12/16 9/18/17
f 4/12/18 5/13/19 9/18/20
f 5/13/21 6/14/22 9/18/23
f 6/14/24 7/15/25 9/18/26
f 7/15/27 8/16/28 9/18/29
f 8/16/30 1/17/31 9/18/32
f 10/19/33 11/20/34 13/21/35 12/22/36
f 12/22/37 13/21/38 15/23/39 14/24/40
f 14/24/41 15/23/42 17/25/43 16/26/44
f 16/26/45 17/25/46 11/27/47 10/28/48
f 11/20/49 17/29/50 15/30/51 13/21/52
f 16/31/53 10/19/54 12/22/55 14/32/56
