# This file uses centimeters as units for non-parametric coordinates.

g default
v -26.117796 0.608427 -0.007294
v -26.125051 0.608427 -0.010300
v -26.132309 0.608427 -0.007294
v -26.135315 0.608427 -0.000037
v -26.132309 0.608427 0.007220
v -26.125051 0.608427 0.010226
v -26.117796 0.608427 0.007220
v -26.114788 0.608427 -0.000037
v -26.119320 1.657691 -0.005769
v -26.125051 1.657691 -0.008142
v -26.130783 1.657691 -0.005769
v -26.133158 1.657691 -0.000037
v -26.130783 1.657691 0.005695
v -26.125051 1.657691 0.008068
v -26.119320 1.657691 0.005695
v -26.116947 1.657691 -0.000037
v -26.134445 1.548817 0.009355
v -26.138334 1.548817 -0.000037
v -26.134445 1.548817 -0.009429
v -26.125051 1.548817 -0.013320
v -26.115660 1.548817 -0.009429
v -26.111771 1.548817 -0.000037
v -26.115660 1.548817 0.009355
v -26.125051 1.548817 0.013247
v -26.125051 1.509829 0.010226
v -26.132309 1.509829 0.007220
v -26.135315 1.509829 -0.000037
v -26.132309 1.509829 -0.007294
v -26.125051 1.509829 -0.010300
v -26.117796 1.509829 -0.007294
v -26.114788 1.509829 -0.000037
v -26.117796 1.509829 0.007220
v -26.148277 1.529766 0.023188
v -26.157896 1.529766 -0.000037
v -26.148277 1.529766 -0.023262
v -26.125051 1.529766 -0.032881
v -26.101828 1.529766 -0.023262
v -26.092209 1.529766 -0.000037
v -26.101828 1.529766 0.023188
v -26.125051 1.529766 0.032807
v -26.125051 0.619183 0.018911
v -26.138451 0.619183 0.013362
v -26.144001 0.619183 -0.000037
v -26.138451 0.619183 -0.013435
v -26.125051 0.619183 -0.018985
v -26.111654 0.619183 -0.013435
v -26.106106 0.619183 -0.000037
v -26.111654 0.619183 0.013362
v -26.125051 0.736968 0.010216
v -26.132301 0.736968 0.007213
v -26.135305 0.736968 -0.000037
v -26.132301 0.736968 -0.007287
v -26.125051 0.736968 -0.010290
v -26.117804 0.736968 -0.007287
v -26.114799 0.736968 -0.000037
v -26.117804 0.736968 0.007213
v -26.125051 0.728798 0.018913
v -26.138453 0.728798 0.013364
v -26.144003 0.728798 -0.000037
v -26.138453 0.728798 -0.013437
v -26.125051 0.728798 -0.018987
v -26.111652 0.728798 -0.013437
v -26.106102 0.728798 -0.000037
v -26.111652 0.728798 0.013364
v -26.125051 0.723571 0.018913
v -26.138453 0.723571 0.013362
v -26.144003 0.723571 -0.000037
v -26.138453 0.723571 -0.013436
v -26.125051 0.723571 -0.018987
v -26.111652 0.723571 -0.013436
v -26.106102 0.723571 -0.000037
v -26.111652 0.723571 0.013362
v -26.125051 0.626096 0.018911
v -26.138451 0.626096 0.013362
v -26.144001 0.626096 -0.000037
v -26.138451 0.626096 -0.013435
v -26.125051 0.626096 -0.018985
v -26.111652 0.626096 -0.013435
v -26.106104 0.626096 -0.000037
v -26.111652 0.626096 0.013362
v -26.125051 0.634796 0.013484
v -26.134611 0.634796 0.009523
v -26.138571 0.634796 -0.000037
v -26.134611 0.634796 -0.009597
v -26.125051 0.634796 -0.013556
v -26.115492 0.634796 -0.009597
v -26.111532 0.634796 -0.000037
v -26.115492 0.634796 0.009523
v -26.125051 0.713934 0.013484
v -26.134613 0.713934 0.009524
v -26.138573 0.713934 -0.000037
v -26.134613 0.713934 -0.009598
v -26.125051 0.713934 -0.013557
v -26.115492 0.713934 -0.009598
v -26.111530 0.713934 -0.000037
v -26.115492 0.713934 0.009524
v -26.125051 1.536358 0.032609
v -26.148138 1.536358 0.023048
v -26.157700 1.536358 -0.000037
v -26.148138 1.536358 -0.023122
v -26.125051 1.536358 -0.032683
v -26.101967 1.536358 -0.023122
v -26.092405 1.536358 -0.000037
v -26.101967 1.536358 0.023048
v -26.125051 1.657691 -0.000037
v -26.125051 0.608427 -0.000037
v -26.125051 0.970198 -0.000037
v -26.125051 0.841562 -0.000037
v -26.125051 0.950219 0.027974
v -26.144859 0.950219 0.019770
v -26.153063 0.950219 -0.000037
v -26.144859 0.950219 -0.019844
v -26.125051 0.950219 -0.028048
v -26.105246 0.950219 -0.019844
v -26.097040 0.950219 -0.000037
v -26.105246 0.950219 0.019770
v -26.125051 0.935392 0.017048
v -26.137133 0.935392 0.012044
v -26.142138 0.935392 -0.000037
v -26.137133 0.935392 -0.012118
v -26.125051 0.935392 -0.017122
v -26.112970 0.935392 -0.012118
v -26.107965 0.935392 -0.000037
v -26.112970 0.935392 0.012044
v -26.125051 0.944154 0.027357
v -26.144423 0.944154 0.019333
v -26.152447 0.944154 -0.000037
v -26.144423 0.944154 -0.019408
v -26.125051 0.944154 -0.027431
v -26.105680 0.944154 -0.019408
v -26.097656 0.944154 -0.000037
v -26.105680 0.944154 0.019333
v -26.125051 0.866507 0.016087
v -26.136454 0.866507 0.011364
v -26.141176 0.866507 -0.000037
v -26.136454 0.866507 -0.011438
v -26.125051 0.866507 -0.016160
v -26.113649 0.866507 -0.011438
v -26.108929 0.866507 -0.000037
v -26.113649 0.866507 0.011364
v -26.125051 0.862061 0.021912
v -26.140574 0.862061 0.015483
v -26.146999 0.862061 -0.000037
v -26.140574 0.862061 -0.015557
v -26.125051 0.862061 -0.021986
v -26.109533 0.862061 -0.015557
v -26.103104 0.862061 -0.000037
v -26.109533 0.862061 0.015483
v -26.140087 0.855384 0.014998
v -26.146315 0.855384 -0.000037
v -26.140087 0.855384 -0.015073
v -26.125051 0.855384 -0.021300
v -26.110018 0.855384 -0.015073
v -26.103788 0.855384 -0.000037
v -26.110018 0.855384 0.014998
v -26.125051 0.855384 0.021226
v -26.125051 0.859626 -0.000037
v -26.182238 1.202749 0.032979
v -26.158068 1.202749 0.057148
v -26.125051 1.202749 0.065994
v -26.092037 1.202749 0.057148
v -26.067867 1.202749 0.032979
v -26.059021 1.202749 -0.000037
v -26.067867 1.202749 -0.033053
v -26.092037 1.202749 -0.057221
v -26.125051 1.202749 -0.066068
v -26.158068 1.202749 -0.057221
v -26.182238 1.202749 -0.033053
v -26.191082 1.202749 -0.000037
v -26.241024 0.996889 0.077952
v -26.234955 0.996886 0.086299
v -26.173128 0.996889 0.131241
v -26.163248 0.996887 0.134442
v -26.135378 1.521539 0.014701
v -26.125042 1.521539 0.018053
v -26.141745 1.521539 0.005985
v -26.086578 0.996888 0.134374
v -26.076769 0.996887 0.131159
v -26.015003 0.996887 0.086137
v -26.008915 0.996889 0.077721
v -26.114714 1.521539 0.014684
v -26.108349 1.521539 0.005879
v -25.985422 0.996886 0.004741
v -25.985458 0.996889 -0.005580
v -26.009325 0.996886 -0.078193
v -26.015453 0.996890 -0.086578
v -26.108379 1.521539 -0.004984
v -26.114801 1.521539 -0.013748
v -26.077686 0.996887 -0.131358
v -26.087515 0.996890 -0.134504
v -26.163950 0.996888 -0.134105
v -26.173815 0.996889 -0.130854
v -26.125151 1.521539 -0.017058
v -26.135464 1.521539 -0.013639
v -26.235556 0.996889 -0.085396
v -26.241566 0.996888 -0.077007
v -26.264687 0.996889 -0.004151
v -26.264610 0.996886 0.006234
v -26.141794 1.521539 -0.004811
v -26.137215 0.987980 0.092312
v -26.112757 0.987971 0.092285
v -26.189167 0.987996 0.067513
v -26.169413 0.988005 0.081872
v -26.216557 0.988103 0.017323
v -26.208946 0.988094 0.040460
v -26.041021 0.987980 0.039988
v -26.033520 0.987971 0.016680
v -26.080601 0.987996 0.081806
v -26.060827 0.988005 0.067393
v -26.061253 0.987980 -0.067653
v -26.081104 0.987971 -0.081938
v -26.033613 0.987996 -0.017128
v -26.041248 0.988005 -0.040372
v -26.169909 0.987980 -0.081462
v -26.189566 0.987971 -0.066989
v -26.113338 0.987996 -0.092247
v -26.137758 0.988005 -0.092125
v -26.209307 0.987996 -0.039457
v -26.216688 0.988005 -0.016207
v -26.139933 1.536098 0.021004
v -26.125015 1.536098 0.025842
v -26.166435 0.998575 0.141895
v -26.174919 0.998577 0.139146
v -26.149118 1.536098 0.008419
v -26.241915 0.998575 0.090455
v -26.247122 0.998578 0.083297
v -26.164608 0.982081 0.137436
v -26.173784 0.982081 0.134456
v -26.175898 0.984147 0.142378
v -26.167553 0.984147 0.145088
v -26.237848 0.982080 0.087876
v -26.243418 0.982081 0.080214
v -26.249887 0.984147 0.085234
v -26.244619 0.984146 0.092483
v -26.110106 1.536098 0.020978
v -26.100916 1.536098 0.008270
v -26.002808 0.998577 0.083048
v -26.008034 0.998576 0.090277
v -26.074957 0.998576 0.139061
v -26.083368 0.998576 0.141817
v -26.006550 0.982081 0.080026
v -26.012077 0.982081 0.087661
v -26.005253 0.984147 0.092192
v -26.000116 0.984147 0.085098
v -26.076508 0.982081 0.134513
v -26.084810 0.982081 0.137225
v -26.082167 0.984147 0.144975
v -26.074068 0.984146 0.142327
v -26.100962 1.536098 -0.007414
v -26.110229 1.536098 -0.020065
v -26.008507 0.998579 -0.090746
v -26.003242 0.998577 -0.083546
v -25.977386 0.998578 -0.004870
v -25.977354 0.998576 0.003982
v -26.012644 0.982081 -0.088262
v -26.006866 0.982080 -0.080366
v -26.000378 0.984147 -0.085354
v -26.005922 0.984148 -0.092935
v -25.982191 0.982081 -0.004805
v -25.982162 0.982080 0.003942
v -25.973974 0.984147 0.003988
v -25.974007 0.984147 -0.004902
v -26.125170 1.536098 -0.024842
v -26.140057 1.536098 -0.019909
v -26.175648 0.998579 -0.138741
v -26.167177 0.998578 -0.141536
v -26.084360 0.998579 -0.141963
v -26.075928 0.998577 -0.139266
v -26.174290 0.982081 -0.134129
v -26.165524 0.982080 -0.137028
v -26.168364 0.984148 -0.144707
v -26.176588 0.984148 -0.141988
v -26.085951 0.982080 -0.137427
v -26.077269 0.982080 -0.134655
v -26.075197 0.984147 -0.142584
v -26.083042 0.984147 -0.145088
v -26.149193 1.536098 -0.007162
v -26.272690 0.998577 0.005560
v -26.272749 0.998578 -0.003360
v -26.247700 0.998577 -0.082301
v -26.242542 0.998578 -0.089495
v -26.267878 0.982080 0.006099
v -26.267948 0.982081 -0.003971
v -26.276129 0.984147 -0.003207
v -26.276068 0.984147 0.005455
v -26.244099 0.982080 -0.079072
v -26.238331 0.982080 -0.087131
v -26.245356 0.984147 -0.091377
v -26.250385 0.984147 -0.084351
v -26.125044 1.528349 0.025835
v -26.139967 1.528348 0.020998
v -26.149162 1.528346 0.008420
v -26.100950 1.528349 0.008263
v -26.110138 1.528348 0.020975
v -26.110268 1.528349 -0.020068
v -26.100994 1.528348 -0.007417
v -26.140089 1.528349 -0.019909
v -26.125200 1.528348 -0.024846
v -26.149225 1.528348 -0.007167
vt 0.204676 0.014288
vt 0.204676 0.045281
vt 0.893605 0.045281
vt 0.303091 0.014288
vt 0.303096 0.045281
vt 0.401514 0.014288
vt 0.401514 0.045281
vt 0.499934 0.014288
vt 0.499934 0.045281
vt 0.598351 0.014288
vt 0.598351 0.045281
vt 0.696768 0.014288
vt 0.696768 0.045281
vt 0.795188 0.014288
vt 0.433667 0.134975
vt 0.517409 0.134975
vt 0.517413 0.033929
vt 0.433667 0.033929
vt 0.349922 0.134975
vt 0.349917 0.033929
vt 0.266174 0.134975
vt 0.266174 0.033929
vt 0.852403 0.033929
vt 0.768652 0.134975
vt 0.768652 0.033929
vt 0.684910 0.134975
vt 0.684906 0.033929
vt 0.601160 0.134975
vt 0.859513 0.316218
vt 0.859513 0.293049
vt 0.601159 0.033929
vt 0.517414 0.171160
vt 0.859513 0.339388
vt 0.601160 0.171160
vt 0.859513 0.362558
vt 0.601160 0.152656
vt 0.859513 0.385728
vt 0.517413 0.152656
vt 0.433667 0.171160
vt 0.859513 0.246709
vt 0.433666 0.152656
vt 0.859513 0.269879
vt 0.349917 0.171160
vt 0.349920 0.152656
vt 0.266174 0.171160
vt 0.266173 0.152656
vt 0.852400 0.152656
vt 0.768652 0.171160
vt 0.768652 0.152656
vt 0.684905 0.171160
vt 0.795188 0.045281
vt 0.598351 0.065198
vt 0.499933 0.065198
vt 0.401514 0.065198
vt 0.303097 0.065198
vt 0.204676 0.065198
vt 0.893605 0.065198
vt 0.795188 0.065198
vt 0.122938 0.316218
vt 0.122938 0.293049
vt 0.122938 0.339388
vt 0.122938 0.362559
vt 0.122939 0.385728
vt 0.122939 0.246709
vt 0.122938 0.269879
vt 0.696769 0.065198
vt 0.499935 0.063280
vt 0.598351 0.063280
vt 0.598351 0.086820
vt 0.499932 0.086820
vt 0.401514 0.063280
vt 0.401514 0.086820
vt 0.303096 0.063280
vt 0.303092 0.086820
vt 0.204676 0.063280
vt 0.204676 0.086820
vt 0.795188 0.063280
vt 0.466716 0.096700
vt 0.466716 0.120618
vt 0.466716 0.144535
vt 0.466716 0.168453
vt 0.466716 0.192370
vt 0.466716 0.024948
vt 0.466716 0.048866
vt 0.466716 0.072783
vt 0.589717 0.096700
vt 0.589717 0.120619
vt 0.589717 0.144535
vt 0.589717 0.168453
vt 0.589717 0.192370
vt 0.589717 0.024948
vt 0.589717 0.048866
vt 0.589717 0.072782
vt 0.108138 0.103304
vt 0.795188 0.086820
vt 0.696768 0.063280
vt 0.684906 0.152656
vt 0.859513 0.200370
vt 0.517414 0.146539
vt 0.433667 0.146539
vt 0.696770 0.086820
vt 0.122939 0.200370
vt 0.859513 0.223539
vt 0.499928 0.048219
vt 0.122939 0.223539
vt 0.598351 0.048219
vt 0.401514 0.048219
vt 0.466716 0.001031
vt 0.589717 0.001031
vt 0.303097 0.048219
vt 0.349919 0.146539
vt 0.266174 0.146539
vt 0.092112 0.109941
vt 0.092113 0.087277
vt 0.204676 0.048219
vt 0.076086 0.103304
vt 0.069449 0.087277
vt 0.076086 0.071251
vt 0.092112 0.064613
vt 0.108138 0.071251
vt 0.114776 0.087277
vt 0.090341 0.150947
vt 0.096658 0.135694
vt 0.075090 0.135694
vt 0.090341 0.120443
vt 0.075090 0.114127
vt 0.059838 0.120443
vt 0.053521 0.135694
vt 0.059838 0.150947
vt 0.075090 0.157263
vt 0.795188 0.048219
vt 0.696773 0.048219
vt 0.598351 0.090263
vt 0.499933 0.090263
vt 0.401514 0.090263
vt 0.303092 0.090263
vt 0.204676 0.090263
vt 0.893610 0.090263
vt 0.795188 0.090263
vt 0.696769 0.090263
vt 0.499929 0.020453
vt 0.598351 0.020453
vt 0.401514 0.020453
vt 0.303096 0.020453
vt 0.204676 0.020453
vt 0.795188 0.020453
vt 0.696773 0.020453
vt 0.893611 0.014288
vt 0.992026 0.014288
vt 0.992026 0.045281
vt 0.992026 0.065198
vt 0.992026 0.063280
vt 0.992026 0.086820
vt 0.893610 0.086820
vt 0.992026 0.048219
vt 0.893605 0.063280
vt 0.992026 0.090263
vt 0.893606 0.020453
vt 0.992026 0.020453
vt 0.893605 0.048219
vt 0.852401 0.146539
vt 0.768653 0.146539
vt 0.684905 0.146539
vt 0.601160 0.146539
vt 0.936146 0.134975
vt 0.936145 0.033929
vt 0.852403 0.171160
vt 0.936145 0.171160
vt 0.936146 0.152656
vt 0.936145 0.146539
vt 0.852398 0.134975
vt 0.484730 0.005143
vt 0.647556 0.025374
vt 0.593789 0.025374
vt 0.540021 0.025374
vt 0.486252 0.025374
vt 0.432485 0.025374
vt 0.378717 0.025374
vt 0.324949 0.025374
vt 0.271180 0.025374
vt 0.701324 0.025374
vt 0.593788 0.164181
vt 0.647556 0.164181
vt 0.484729 0.193424
vt 0.540021 0.164181
vt 0.486252 0.164181
vt 0.432485 0.164181
vt 0.378717 0.164181
vt 0.324949 0.164181
vt 0.271181 0.164181
vt 0.701324 0.164181
vt 0.593788 0.142478
vt 0.647556 0.142478
vt 0.647556 0.155304
vt 0.593788 0.155304
vt 0.540021 0.142478
vt 0.540020 0.155304
vt 0.486253 0.142478
vt 0.486252 0.155304
vt 0.432485 0.142478
vt 0.432485 0.155304
vt 0.378716 0.142478
vt 0.378717 0.155304
vt 0.324949 0.142478
vt 0.324949 0.155304
vt 0.271181 0.142478
vt 0.271181 0.155304
vt 0.701325 0.142478
vt 0.701324 0.155304
vt 0.422455 0.050054
vt 0.422455 0.026408
vt 0.523279 0.026408
vt 0.523279 0.050055
vt 0.422455 0.073701
vt 0.422455 0.050054
vt 0.523279 0.050055
vt 0.523279 0.073701
vt 0.422455 0.097347
vt 0.422455 0.073701
vt 0.523279 0.073701
vt 0.523279 0.097347
vt 0.422455 0.120993
vt 0.422455 0.097347
vt 0.523279 0.097347
vt 0.523279 0.120993
vt 0.422455 0.144640
vt 0.422455 0.120993
vt 0.523279 0.120993
vt 0.523279 0.144640
vt 0.422455 0.168286
vt 0.422455 0.144640
vt 0.523279 0.144640
vt 0.523279 0.168286
vt 0.422455 0.191932
vt 0.422455 0.168286
vt 0.523279 0.168286
vt 0.523279 0.191932
vt 0.422455 0.026408
vt 0.422455 0.002762
vt 0.523279 0.002761
vt 0.523279 0.026408
vt 0.593788 0.035147
vt 0.647556 0.035147
vt 0.647556 0.041654
vt 0.593788 0.041654
vt 0.540021 0.035147
vt 0.540021 0.041654
vt 0.486253 0.035147
vt 0.486252 0.041654
vt 0.432485 0.035147
vt 0.432485 0.041654
vt 0.378717 0.035147
vt 0.378717 0.041654
vt 0.324949 0.035147
vt 0.324949 0.041654
vt 0.271181 0.035147
vt 0.271181 0.041654
vt 0.701324 0.035147
vt 0.701324 0.041654
vt 0.279663 0.399920
vt 0.313842 0.399920
vt 0.296621 0.507348
vt 0.315863 0.400107
vt 0.349376 0.400107
vt 0.333105 0.507161
vt 0.351578 0.400114
vt 0.386581 0.400114
vt 0.366913 0.507154
vt 0.388042 0.400233
vt 0.422560 0.400233
vt 0.405771 0.507035
vt 0.423853 0.400163
vt 0.457330 0.400163
vt 0.441209 0.507105
vt 0.458222 0.400163
vt 0.491565 0.400163
vt 0.473901 0.507105
vt 0.492490 0.400036
vt 0.527137 0.400036
vt 0.510034 0.507232
vt 0.528299 0.399920
vt 0.563022 0.399920
vt 0.547303 0.507348
vt 0.565064 0.399920
vt 0.598553 0.399920
vt 0.581290 0.507348
vt 0.600176 0.399920
vt 0.635306 0.399909
vt 0.617489 0.507348
vt 0.638558 0.399947
vt 0.671900 0.399936
vt 0.655775 0.507331
vt 0.673804 0.399936
vt 0.708517 0.399936
vt 0.690990 0.507331
vt 0.117232 0.667879
vt 0.488268 0.747980
vt 0.138704 0.618846
vt 0.493471 0.744283
vt 0.232599 0.586863
vt 0.148404 0.612183
vt 0.283530 0.567514
vt 0.357086 0.533394
vt 0.501961 0.742853
vt 0.470785 0.536360
vt 0.372865 0.530839
vt 0.533921 0.536397
vt 0.631899 0.530949
vt 0.510495 0.744298
vt 0.721053 0.567715
vt 0.647479 0.533523
vt 0.771929 0.587110
vt 0.856019 0.612469
vt 0.515671 0.748003
vt 0.887324 0.669073
vt 0.865767 0.619253
vt 0.906586 0.700373
vt 0.942109 0.746941
vt 0.515646 0.752611
vt 0.906029 0.801523
vt 0.942008 0.755224
vt 0.886417 0.832723
vt 0.864452 0.882328
vt 0.510433 0.756298
vt 0.769963 0.914276
vt 0.854592 0.889055
vt 0.718791 0.933529
vt 0.644612 0.967582
vt 0.501876 0.757720
vt 0.531333 0.964320
vt 0.628990 0.970065
vt 0.468271 0.964149
vt 0.370651 0.969397
vt 0.493412 0.756264
vt 0.281412 0.932347
vt 0.354902 0.966768
vt 0.230647 0.912805
vt 0.146508 0.887115
vt 0.488226 0.752519
vt 0.115881 0.830635
vt 0.136943 0.880381
vt 0.096889 0.799338
vt 0.059021 0.752896
vt 0.097706 0.698915
vt 0.059179 0.744527
vt 0.117232 0.667879
vt 0.136742 0.620279
vt 0.486176 0.747583
vt 0.492219 0.743363
vt 0.150546 0.610804
vt 0.232599 0.586863
vt 0.283530 0.567514
vt 0.353869 0.533991
vt 0.502071 0.741745
vt 0.376201 0.530380
vt 0.470785 0.536360
vt 0.494723 0.745203
vt 0.360303 0.532798
vt 0.369529 0.531298
vt 0.501851 0.743960
vt 0.490361 0.748378
vt 0.140667 0.617412
vt 0.146262 0.613562
vt 0.745387 0.568244
vt 0.756724 0.559954
vt 0.744535 0.556129
vt 0.733483 0.564509
vt 0.484964 0.529031
vt 0.484490 0.519850
vt 0.470981 0.520320
vt 0.471770 0.529490
vt 0.089056 0.807788
vt 0.072137 0.810259
vt 0.076470 0.816300
vt 0.093389 0.813829
vt 0.349628 0.526194
vt 0.356537 0.525246
vt 0.355591 0.525123
vt 0.364934 0.523670
vt 0.364149 0.523896
vt 0.371093 0.522702
vt 0.227417 0.922348
vt 0.217092 0.929138
vt 0.227861 0.932887
vt 0.238186 0.926097
vt 0.124313 0.615144
vt 0.128841 0.612370
vt 0.127926 0.612545
vt 0.133682 0.608709
vt 0.133284 0.609079
vt 0.137488 0.606077
vt 0.533921 0.536397
vt 0.628587 0.530482
vt 0.511697 0.743383
vt 0.650755 0.534138
vt 0.721053 0.567715
vt 0.771929 0.587110
vt 0.853919 0.611096
vt 0.517785 0.747683
vt 0.867745 0.620717
vt 0.887324 0.669073
vt 0.509292 0.745214
vt 0.858119 0.613842
vt 0.863790 0.617790
vt 0.513557 0.748324
vt 0.635211 0.531416
vt 0.644204 0.532908
vt 0.917473 0.805996
vt 0.933480 0.808054
vt 0.936910 0.802189
vt 0.920823 0.800268
vt 0.908805 0.671487
vt 0.926228 0.668163
vt 0.921707 0.662087
vt 0.904390 0.665553
vt 0.272633 0.561211
vt 0.262521 0.554664
vt 0.252449 0.558068
vt 0.262560 0.564466
vt 0.866873 0.606423
vt 0.871018 0.609315
vt 0.870739 0.609044
vt 0.876608 0.612924
vt 0.875605 0.612715
vt 0.880279 0.615527
vt 0.102733 0.665913
vt 0.087315 0.663411
vt 0.083831 0.668691
vt 0.099249 0.671193
vt 0.633786 0.522875
vt 0.640536 0.524039
vt 0.639939 0.523810
vt 0.649073 0.525256
vt 0.648027 0.525322
vt 0.655095 0.526297
vt 0.906586 0.700373
vt 0.942054 0.745197
vt 0.517759 0.752921
vt 0.941909 0.756991
vt 0.906029 0.801523
vt 0.886417 0.832723
vt 0.866425 0.880898
vt 0.511598 0.757213
vt 0.852434 0.890428
vt 0.769963 0.914276
vt 0.513533 0.752301
vt 0.862480 0.883758
vt 0.856749 0.887681
vt 0.509268 0.755382
vt 0.942164 0.748686
vt 0.942108 0.753457
vt 0.524530 0.970447
vt 0.524895 0.978972
vt 0.537693 0.978549
vt 0.537029 0.970033
vt 0.774706 0.925146
vt 0.785466 0.931901
vt 0.795628 0.927855
vt 0.784631 0.921196
vt 0.781673 0.579973
vt 0.793837 0.572035
vt 0.780998 0.567534
vt 0.768834 0.575471
vt 0.878802 0.886069
vt 0.874252 0.888833
vt 0.875174 0.888665
vt 0.869279 0.892561
vt 0.869673 0.892199
vt 0.865440 0.895190
vt 0.534497 0.528159
vt 0.534272 0.519933
vt 0.521546 0.519804
vt 0.521771 0.528030
vt 0.958058 0.745517
vt 0.957808 0.749080
vt 0.958080 0.748733
vt 0.958093 0.753512
vt 0.957758 0.753085
vt 0.958078 0.756735
vt 0.718791 0.933529
vt 0.647852 0.966988
vt 0.502003 0.758823
vt 0.625638 0.970520
vt 0.531333 0.964320
vt 0.468271 0.964149
vt 0.373940 0.969869
vt 0.492126 0.757164
vt 0.351647 0.966147
vt 0.281412 0.932347
vt 0.501748 0.756617
vt 0.367363 0.968925
vt 0.358157 0.967388
vt 0.494697 0.755363
vt 0.641372 0.968175
vt 0.632342 0.969611
vt 0.101761 0.826065
vt 0.086063 0.829022
vt 0.090168 0.834601
vt 0.100258 0.830604
vt 0.263510 0.934189
vt 0.253244 0.941604
vt 0.263939 0.945000
vt 0.273956 0.937506
vt 0.904917 0.825522
vt 0.920820 0.828132
vt 0.924529 0.822580
vt 0.908627 0.819970
vt 0.368732 0.977469
vt 0.361989 0.976298
vt 0.362570 0.976526
vt 0.353275 0.975038
vt 0.354323 0.974967
vt 0.347261 0.973983
vt 0.920642 0.695269
vt 0.938059 0.692774
vt 0.933759 0.686676
vt 0.916342 0.689171
vt 0.651980 0.974805
vt 0.645058 0.975731
vt 0.646009 0.975855
vt 0.636821 0.977255
vt 0.637619 0.977035
vt 0.630661 0.978210
vt 0.230647 0.912805
vt 0.148599 0.888495
vt 0.486144 0.752895
vt 0.134975 0.878914
vt 0.115881 0.830635
vt 0.096889 0.799338
vt 0.059061 0.754642
vt 0.059295 0.742758
vt 0.097706 0.698915
vt 0.490308 0.752143
vt 0.058981 0.751149
vt 0.059064 0.746297
vt 0.144417 0.885735
vt 0.138911 0.881849
vt 0.233778 0.575585
vt 0.223519 0.569098
vt 0.213574 0.573029
vt 0.224065 0.579425
vt 0.090194 0.684425
vt 0.074269 0.682332
vt 0.070859 0.688051
vt 0.086863 0.690012
vt 0.461467 0.971213
vt 0.461630 0.979373
vt 0.474504 0.979525
vt 0.474341 0.971365
vt 0.043057 0.754279
vt 0.043344 0.750718
vt 0.043052 0.751060
vt 0.043089 0.746191
vt 0.043409 0.746615
vt 0.043133 0.742963
vt 0.733544 0.938828
vt 0.743985 0.945660
vt 0.754297 0.942214
vt 0.743856 0.935382
vt 0.135573 0.893124
vt 0.131464 0.890218
vt 0.131750 0.890497
vt 0.126028 0.886673
vt 0.127023 0.886888
vt 0.122381 0.884063
vn 0.550219 -0.628130 -0.550192
vn 0.000035 -0.628195 -0.778056
vn 0.000035 -0.628195 -0.778056
vn 0.550219 -0.628130 -0.550192
vn -0.550111 -0.628264 -0.550147
vn -0.550111 -0.628264 -0.550147
vn -0.777941 -0.628337 -0.000010
vn -0.777941 -0.628337 -0.000010
vn -0.550062 -0.628333 0.550118
vn -0.550062 -0.628333 0.550118
vn 0.000045 -0.628227 0.778030
vn 0.000045 -0.628227 0.778030
vn 0.550155 -0.628200 0.550176
vn 0.550155 -0.628200 0.550176
vn 0.778069 -0.628179 -0.000019
vn 0.778069 -0.628179 -0.000019
vn -0.998871 0.047507 0.000012
vn -0.706312 0.047507 0.706305
vn -0.706312 0.047507 0.706305
vn -0.998871 0.047507 0.000012
vn -0.706319 0.047515 -0.706297
vn -0.706319 0.047515 -0.706297
vn 0.000022 0.047510 -0.998871
vn 0.000022 0.047510 -0.998871
vn 0.706374 0.047496 -0.706244
vn 0.706374 0.047496 -0.706244
vn 0.998872 0.047476 0.000011
vn 0.998872 0.047476 0.000011
vn 0.706366 0.047498 0.706252
vn 0.706366 0.047498 0.706252
vn 0.000022 0.047515 0.998871
vn 0.000022 0.047515 0.998871
vn -0.468004 -0.749618 0.468024
vn 0.000001 -0.749619 0.661870
vn 0.000001 -0.749619 0.661870
vn -0.468004 -0.749618 0.468024
vn -0.661859 -0.749628 0.000002
vn -0.661859 -0.749628 0.000002
vn -0.468003 -0.749627 -0.468008
vn -0.468003 -0.749627 -0.468008
vn 0.000001 -0.749645 -0.661840
vn 0.000001 -0.749645 -0.661840
vn 0.467995 -0.749649 -0.467981
vn 0.467995 -0.749649 -0.467981
vn 0.661875 -0.749614 0.000008
vn 0.661875 -0.749614 0.000008
vn 0.468011 -0.749625 0.468003
vn 0.468011 -0.749625 0.468003
vn -0.999555 0.029821 0.000001
vn -0.706782 0.030003 0.706795
vn -0.706782 0.030003 0.706795
vn -0.999555 0.029821 0.000001
vn -0.706791 0.029739 -0.706797
vn -0.706791 0.029739 -0.706797
vn 0.000013 0.030017 -0.999549
vn 0.000013 0.030017 -0.999549
vn 0.706792 0.030101 -0.706781
vn 0.706792 0.030101 -0.706781
vn 0.999554 0.029870 0.000005
vn 0.999554 0.029870 0.000005
vn 0.706794 0.029904 0.706787
vn 0.706794 0.029904 0.706787
vn 0.000011 0.030036 0.999549
vn 0.000011 0.030036 0.999549
vn -0.707081 0.000000 0.707133
vn 0.000012 -0.000080 1.000000
vn 0.000012 -0.000080 1.000000
vn -0.707081 0.000000 0.707133
vn -1.000000 0.000000 -0.000006
vn -1.000000 0.000000 -0.000006
vn -0.707098 0.000000 -0.707116
vn -0.707098 0.000000 -0.707116
vn 0.000013 -0.000080 -1.000000
vn 0.000013 -0.000080 -1.000000
vn 0.707150 -0.000080 -0.707064
vn 0.707150 -0.000080 -0.707064
vn 1.000000 0.000000 -0.000007
vn 1.000000 0.000000 -0.000007
vn 0.707133 -0.000080 0.707081
vn 0.707133 -0.000080 0.707081
vn -0.707079 -0.000012 0.707135
vn 0.000047 -0.000014 1.000000
vn 0.000047 -0.000014 1.000000
vn -0.707079 -0.000012 0.707135
vn -1.000000 -0.000011 0.000012
vn -1.000000 -0.000011 0.000012
vn -0.707077 -0.000012 -0.707137
vn -0.707077 -0.000012 -0.707137
vn 0.000046 -0.000013 -1.000000
vn 0.000046 -0.000013 -1.000000
vn 0.707070 -0.000015 -0.707143
vn 0.707070 -0.000015 -0.707143
vn 1.000000 -0.000016 0.000012
vn 1.000000 -0.000016 0.000012
vn 0.707072 -0.000015 0.707142
vn 0.707072 -0.000015 0.707142
vn -0.484061 0.728912 0.484119
vn 0.000023 0.728882 0.684640
vn 0.000023 0.728882 0.684640
vn -0.484061 0.728912 0.484119
vn -0.684596 0.728922 -0.000010
vn -0.684596 0.728922 -0.000010
vn -0.484098 0.728882 -0.484129
vn -0.484098 0.728882 -0.484129
vn 0.000012 0.728910 -0.684610
vn 0.000012 0.728910 -0.684610
vn 0.484134 0.728876 -0.484101
vn 0.484134 0.728876 -0.484101
vn 0.684627 0.728894 -0.000025
vn 0.684627 0.728894 -0.000025
vn 0.484082 0.728908 0.484105
vn 0.484082 0.728908 0.484105
vn -0.707090 -0.000137 0.707124
vn 0.000024 -0.000137 1.000000
vn 0.000024 -0.000137 1.000000
vn -0.707090 -0.000137 0.707124
vn -1.000000 -0.000167 0.000000
vn -1.000000 -0.000167 0.000000
vn -0.707100 -0.000167 -0.707113
vn -0.707100 -0.000167 -0.707113
vn 0.000023 -0.000045 -1.000000
vn 0.000023 -0.000045 -1.000000
vn 0.707117 -0.000045 -0.707097
vn 0.707117 -0.000045 -0.707097
vn 1.000000 -0.000076 -0.000000
vn 1.000000 -0.000076 -0.000000
vn 0.707106 -0.000076 0.707107
vn 0.707106 -0.000076 0.707107
vn -0.599820 0.529524 0.599850
vn -0.000005 0.529478 0.848324
vn -0.000005 0.529478 0.848324
vn -0.599820 0.529524 0.599850
vn -0.848282 0.529546 -0.000011
vn -0.848282 0.529546 -0.000011
vn -0.599841 0.529501 -0.599850
vn -0.599841 0.529501 -0.599850
vn 0.000000 0.529501 -0.848309
vn 0.000000 0.529501 -0.848309
vn 0.599967 0.529330 -0.599875
vn 0.599967 0.529330 -0.599875
vn 0.848452 0.529272 -0.000031
vn 0.848452 0.529272 -0.000031
vn 0.599884 0.529466 0.599837
vn 0.599884 0.529466 0.599837
vn -0.707119 -0.000028 0.707095
vn 0.000018 -0.000013 1.000000
vn 0.000012 -0.255979 0.966682
vn -0.683537 -0.256009 0.683547
vn -1.000000 -0.000027 0.000009
vn -0.966660 -0.256064 0.000005
vn -0.707102 -0.000022 -0.707111
vn -0.683533 -0.256005 -0.683553
vn 0.000018 -0.000018 -1.000000
vn 0.000015 -0.255991 -0.966679
vn 0.707085 -0.000013 -0.707129
vn 0.683535 -0.255994 -0.683555
vn 1.000000 -0.000027 0.000009
vn 0.966683 -0.255976 0.000008
vn 0.707101 -0.000022 0.707113
vn 0.683542 -0.255999 0.683546
vn 0.000006 -0.490791 0.871278
vn -0.616049 -0.490831 0.616092
vn -0.871198 -0.490932 0.000001
vn -0.616057 -0.490828 -0.616086
vn 0.000011 -0.490812 -0.871266
vn 0.616078 -0.490817 -0.616073
vn 0.871286 -0.490776 0.000006
vn 0.616077 -0.490820 0.616073
vn -0.382615 0.840962 0.382609
vn 0.000018 0.840948 0.541116
vn 0.000018 0.840948 0.541116
vn -0.382615 0.840962 0.382609
vn -0.541096 0.840961 0.000012
vn -0.541096 0.840961 0.000012
vn -0.382594 0.840976 -0.382598
vn -0.382594 0.840976 -0.382598
vn 0.000011 0.840960 -0.541098
vn 0.000011 0.840960 -0.541098
vn 0.382622 0.840964 -0.382596
vn 0.382622 0.840964 -0.382596
vn 0.541105 0.840955 0.000001
vn 0.541105 0.840955 0.000001
vn 0.382624 0.840955 0.382615
vn 0.382624 0.840955 0.382615
vn 0.000000 1.000000 0.000000
vn 0.000000 1.000000 0.000000
vn 0.000000 1.000000 0.000000
vn 0.000000 1.000000 0.000000
vn 0.000000 1.000000 0.000000
vn 0.000000 1.000000 0.000000
vn 0.000000 1.000000 0.000000
vn 0.000000 1.000000 0.000000
vn 0.000000 1.000000 0.000000
vn 0.000000 -1.000000 0.000000
vn 0.000000 -1.000000 0.000000
vn 0.000000 -1.000000 0.000000
vn 0.000000 -1.000000 0.000000
vn 0.000000 -1.000000 0.000000
vn 0.000000 -1.000000 0.000000
vn 0.000000 -1.000000 0.000000
vn 0.000000 -1.000000 0.000000
vn 0.000000 -1.000000 0.000000
vn 0.000000 -1.000000 0.000000
vn 0.000000 -1.000000 0.000000
vn 0.000000 -1.000000 0.000000
vn 0.000000 -1.000000 0.000000
vn 0.000000 -1.000000 0.000000
vn 0.000000 -1.000000 0.000000
vn 0.000000 -1.000000 0.000000
vn 0.000000 -1.000000 0.000000
vn 0.000000 -1.000000 0.000000
vn 0.000000 -1.000000 0.000000
vn 0.000000 -1.000000 0.000000
vn 0.000000 -1.000000 0.000000
vn 0.000000 -1.000000 0.000000
vn 0.000000 -1.000000 0.000000
vn 0.000000 -1.000000 0.000000
vn 0.000017 -1.000000 0.000000
vn 0.000032 -0.838413 0.545035
vn -0.385357 -0.838449 0.385361
vn -0.544986 -0.838445 0.000002
vn -0.385357 -0.838450 -0.385359
vn 0.000032 -0.838413 -0.545035
vn 0.385383 -0.838403 -0.385436
vn 0.544986 -0.838445 -0.000002
vn 0.385384 -0.838403 0.385434
vn -0.410637 0.814119 0.410594
vn 0.000020 0.814148 0.580657
vn -0.000007 1.000000 -0.000008
vn -0.580736 0.814092 0.000015
vn -0.410609 0.814122 -0.410617
vn 0.000004 0.814119 -0.580698
vn 0.410605 0.814122 -0.410621
vn 0.580694 0.814122 -0.000001
vn 0.410610 0.814119 0.410620
vn -0.457940 -0.761943 0.457968
vn -0.000007 -0.761946 0.647641
vn -0.000007 -0.761946 0.647641
vn -0.457940 -0.761943 0.457968
vn -0.647620 -0.761963 0.000000
vn -0.647620 -0.761963 0.000000
vn -0.457928 -0.761960 -0.457951
vn -0.457928 -0.761960 -0.457951
vn 0.000006 -0.761946 -0.647641
vn 0.000006 -0.761946 -0.647641
vn 0.458003 -0.761886 -0.457999
vn 0.458003 -0.761886 -0.457999
vn 0.647724 -0.761875 -0.000013
vn 0.647724 -0.761875 -0.000013
vn 0.457966 -0.761929 0.457965
vn 0.457966 -0.761929 0.457965
vn -0.703486 -0.101082 0.703484
vn 0.000014 -0.101213 0.994865
vn 0.000014 -0.101213 0.994865
vn -0.703486 -0.101082 0.703484
vn -0.994894 -0.100922 0.000001
vn -0.994894 -0.100922 0.000001
vn -0.703471 -0.101160 -0.703488
vn -0.703471 -0.101160 -0.703488
vn 0.000013 -0.101217 -0.994865
vn 0.000013 -0.101217 -0.994865
vn 0.703453 -0.101226 -0.703496
vn 0.703453 -0.101226 -0.703496
vn 0.994854 -0.101319 -0.000001
vn 0.994854 -0.101319 -0.000001
vn 0.703460 -0.101202 0.703493
vn 0.703460 -0.101202 0.703493
vn -0.707020 -0.013965 0.707055
vn 0.000000 -0.013959 0.999903
vn 0.000000 -0.013959 0.999903
vn -0.707020 -0.013965 0.707055
vn -0.999903 -0.013960 -0.000004
vn -0.999903 -0.013960 -0.000004
vn -0.707018 -0.013960 -0.707058
vn -0.707018 -0.013960 -0.707058
vn 0.000000 -0.013963 -0.999903
vn 0.000000 -0.013963 -0.999903
vn 0.707042 -0.013963 -0.707033
vn 0.707042 -0.013963 -0.707033
vn 0.999902 -0.013969 -0.000003
vn 0.999902 -0.013969 -0.000003
vn 0.707045 -0.013963 0.707031
vn 0.707045 -0.013963 0.707031
vn -0.429013 0.794929 0.428994
vn 0.000013 0.794921 0.606713
vn 0.000013 0.794921 0.606713
vn -0.429013 0.794929 0.428994
vn -0.606695 0.794935 0.000006
vn -0.606695 0.794935 0.000006
vn -0.428985 0.794958 -0.428968
vn -0.428985 0.794958 -0.428968
vn 0.000035 0.794908 -0.606730
vn 0.000035 0.794908 -0.606730
vn 0.429105 0.794842 -0.429064
vn 0.429105 0.794842 -0.429064
vn 0.606877 0.794796 0.000007
vn 0.606877 0.794796 0.000007
vn 0.429110 0.794853 0.429038
vn 0.429110 0.794853 0.429038
vn -0.994724 -0.102592 -0.000004
vn -0.703406 -0.102404 0.703373
vn -0.703406 -0.102404 0.703373
vn -0.994724 -0.102592 -0.000004
vn -0.703407 -0.102422 -0.703369
vn -0.703407 -0.102422 -0.703369
vn 0.000038 -0.102095 -0.994775
vn 0.000038 -0.102095 -0.994775
vn 0.703411 -0.101977 -0.703430
vn 0.703411 -0.101977 -0.703430
vn 0.994791 -0.101940 0.000000
vn 0.994791 -0.101940 0.000000
vn 0.703411 -0.101968 0.703431
vn 0.703411 -0.101968 0.703431
vn 0.000034 -0.102145 0.994770
vn 0.000034 -0.102145 0.994770
vn -0.850428 -0.188980 0.490977
vn 0.000002 -1.000000 0.000003
vn -0.490979 -0.188978 0.850427
vn 0.000007 -0.188981 0.981981
vn 0.490986 -0.188977 0.850424
vn 0.850416 -0.188973 0.491000
vn 0.981984 -0.188965 0.000002
vn 0.850418 -0.188967 -0.490999
vn 0.490986 -0.188982 -0.850423
vn 0.000006 -0.188981 -0.981981
vn -0.490979 -0.188973 -0.850428
vn -0.850429 -0.188984 -0.490975
vn -0.981982 -0.188975 0.000002
vn 0.973748 -0.109783 0.199405
vn 0.943072 -0.119494 -0.310380
vn 0.752691 -0.052414 0.656284
vn 0.583704 -0.119165 -0.803174
vn 0.111708 -0.109038 -0.987741
vn -0.387691 -0.052010 -0.920321
vn 0.904953 -0.109504 -0.411181
vn 0.995030 -0.052851 0.084397
vn -0.001293 -0.118986 -0.992895
vn -0.490680 -0.109119 -0.864480
vn -0.854442 -0.052451 -0.516893
vn 0.300222 -0.227354 -0.926378
vn 0.300222 -0.227354 -0.926378
vn 0.900882 -0.158198 -0.404210
vn -0.493506 -0.157559 -0.855352
vn 0.786915 -0.227582 -0.573560
vn 0.786915 -0.227582 -0.573560
vn 0.966966 -0.158124 0.199933
vn 0.106441 -0.157130 -0.981825
vn 0.488432 -0.109191 -0.865743
vn 0.852936 -0.052609 -0.519359
vn -0.584891 -0.119085 -0.802322
vn -0.905691 -0.109430 -0.409571
vn -0.994837 -0.052689 0.086735
vn -0.112847 -0.108967 -0.987619
vn 0.386679 -0.051908 -0.920752
vn -0.945130 -0.119497 -0.304057
vn -0.973334 -0.109951 0.201325
vn -0.754268 -0.053352 0.654395
vn -0.789047 -0.227660 -0.570592
vn -0.789047 -0.227660 -0.570592
vn -0.108425 -0.159611 -0.981208
vn -0.965690 -0.159870 0.204655
vn -0.302608 -0.227457 -0.925576
vn -0.302608 -0.227457 -0.925576
vn 0.486013 -0.164947 -0.858245
vn -0.899861 -0.164801 -0.403846
vn -0.673446 -0.109242 -0.731120
vn -0.231484 -0.052129 -0.971441
vn -0.943220 -0.119987 0.309742
vn -0.668159 -0.110382 0.735785
vn -0.223516 -0.053473 0.973232
vn -0.974381 -0.109582 -0.196403
vn -0.757076 -0.052068 -0.651249
vn -0.579899 -0.120431 0.805738
vn -0.107857 -0.110642 0.987990
vn 0.390261 -0.053690 0.919137
vn -0.785647 -0.228558 0.574909
vn -0.785647 -0.228558 0.574909
vn -0.968204 -0.154068 -0.197091
vn -0.106496 -0.154933 0.982168
vn -0.973627 -0.228124 0.003039
vn -0.973627 -0.228124 0.003039
vn -0.668972 -0.162936 -0.725209
vn -0.664157 -0.163638 0.729464
vn -0.902644 -0.110182 0.416045
vn -0.995521 -0.052860 -0.078387
vn 0.004750 -0.120592 0.992691
vn 0.494479 -0.110545 0.862131
vn 0.857023 -0.053233 0.512522
vn -0.486202 -0.110483 0.866834
vn -0.852220 -0.053095 0.520482
vn 0.588521 -0.120475 0.799455
vn 0.906936 -0.110212 0.406596
vn 0.994690 -0.052995 -0.088226
vn 0.305524 -0.228811 0.924284
vn 0.305524 -0.228811 0.924284
vn -0.487034 -0.161891 0.858248
vn 0.901833 -0.161944 0.400590
vn -0.296692 -0.228814 0.927156
vn -0.296692 -0.228814 0.927156
vn -0.899334 -0.163740 0.405447
vn 0.495902 -0.164354 0.852683
vn 0.118778 -0.110686 0.986732
vn -0.380024 -0.053796 0.923411
vn 0.946195 -0.120081 0.300493
vn 0.972497 -0.109716 -0.205454
vn 0.751327 -0.052349 -0.657850
vn 0.675683 -0.110421 0.728875
vn 0.233917 -0.053573 0.970780
vn 0.665082 -0.108975 -0.738776
vn 0.215721 -0.050981 -0.975123
vn 0.973635 -0.228036 -0.005823
vn 0.973635 -0.228036 -0.005823
vn 0.664366 -0.155915 0.730964
vn 0.654371 -0.155472 -0.740019
vn 0.791288 -0.228540 0.567127
vn 0.791288 -0.228540 0.567127
vn 0.108319 -0.156410 0.981735
vn 0.964570 -0.156255 -0.212578
vn -0.975367 0.096157 -0.198526
vn -0.753901 0.044553 -0.655476
vn -0.944742 0.103877 0.310922
vn -0.584730 0.103583 0.804587
vn 0.386526 0.044121 0.921223
vn -0.113047 0.095435 0.988996
vn -0.905739 0.095869 0.412851
vn -0.995537 0.044904 -0.083004
vn 0.001293 0.103423 0.994637
vn 0.854032 0.044519 0.518313
vn 0.490334 0.095531 0.866283
vn -0.577221 0.176654 0.797251
vn -0.867579 0.158683 0.471303
vn 0.427125 0.158090 0.890265
vn 0.426188 0.159578 0.890449
vn -0.978852 0.160998 -0.126204
vn -0.978439 0.159301 -0.131456
vn -0.175024 0.158351 0.971747
vn -0.075601 -0.969605 0.232702
vn -0.075601 -0.969605 0.232702
vn -0.075601 -0.969605 0.232702
vn -0.075601 -0.969605 0.232702
vn -0.585168 0.030154 0.810351
vn -0.198003 -0.969588 0.143854
vn -0.198003 -0.969588 0.143854
vn -0.198003 -0.969588 0.143854
vn -0.198003 -0.969588 0.143854
vn -0.650284 0.012886 -0.759582
vn 0.900480 -0.157075 -0.405540
vn -0.490938 -0.156788 -0.856970
vn -0.869062 0.156851 0.469179
vn 0.428063 0.156598 0.890078
vn 0.968083 -0.156402 0.195840
vn 0.112149 -0.156075 -0.981358
vn -0.977991 0.157584 -0.136753
vn -0.171345 0.157265 0.972578
vn -0.488085 0.095583 0.867547
vn -0.852519 0.044638 0.520786
vn 0.585922 0.103528 0.803727
vn 0.995343 0.044795 -0.085351
vn 0.906479 0.095844 0.411229
vn 0.114191 0.095372 0.988870
vn -0.385513 0.043994 0.921653
vn 0.946795 0.103946 0.304590
vn 0.755501 0.045414 -0.653572
vn 0.974955 0.096359 -0.200443
vn 0.183318 0.159933 0.969957
vn 0.179934 0.156790 0.971103
vn 0.978512 0.157015 -0.133642
vn 0.978271 0.160442 -0.131315
vn -0.421481 0.160038 0.892604
vn -0.427538 0.151920 0.891141
vn 0.872207 0.151752 0.465000
vn 0.868820 0.159943 0.468584
vn 0.198286 -0.969581 0.143513
vn 0.198286 -0.969581 0.143513
vn 0.198286 -0.969581 0.143513
vn 0.198286 -0.969581 0.143513
vn -0.520525 0.011325 0.853771
vn 0.075982 -0.969616 0.232535
vn 0.075982 -0.969616 0.232535
vn 0.075982 -0.969616 0.232535
vn 0.075982 -0.969616 0.232535
vn -0.922460 0.011953 0.385908
vn -0.111146 -0.160388 -0.980776
vn -0.966445 -0.160335 0.200689
vn 0.176521 0.153621 0.972235
vn 0.978737 0.153567 -0.135980
vn 0.480947 -0.170779 -0.859956
vn -0.896202 -0.170557 -0.409552
vn -0.433637 0.143666 0.889561
vn 0.875552 0.143456 0.461334
vn 0.675269 0.095655 0.731342
vn 0.232962 0.044200 0.971481
vn 0.944887 0.104426 -0.310296
vn 0.224995 0.045548 -0.973295
vn 0.669991 0.096783 -0.736033
vn 0.975992 0.095998 0.195508
vn 0.758289 0.044171 0.650420
vn 0.580932 0.104857 -0.807170
vn -0.389094 0.045727 -0.920062
vn 0.109205 0.097017 -0.989274
vn 0.935013 0.177466 -0.307013
vn 0.978001 0.161946 0.131483
vn 0.171885 0.162744 -0.971581
vn 0.177928 0.161432 -0.970712
vn 0.718480 0.159870 0.676926
vn 0.713514 0.153470 0.683627
vn 0.708875 0.154112 -0.688292
vn 0.197662 -0.969538 -0.144658
vn 0.197662 -0.969538 -0.144658
vn 0.197662 -0.969538 -0.144658
vn 0.197662 -0.969538 -0.144658
vn 0.949862 0.029971 -0.311228
vn 0.244737 -0.969589 -0.000869
vn 0.244737 -0.969589 -0.000869
vn 0.244737 -0.969589 -0.000869
vn 0.244737 -0.969589 -0.000869
vn 0.080068 0.010627 0.996733
vn -0.970274 -0.149103 -0.190620
vn -0.112632 -0.149569 0.982315
vn 0.976972 0.163636 0.136925
vn 0.165765 0.164064 -0.972422
vn -0.675023 -0.166914 -0.718668
vn -0.670332 -0.167081 0.723007
vn 0.708375 0.146936 0.690373
vn 0.703693 0.147068 -0.695116
vn 0.903428 0.096578 -0.417720
vn 0.996018 0.044937 0.076993
vn -0.004760 0.105009 -0.994460
vn -0.856623 0.045304 -0.513950
vn -0.494148 0.096915 -0.863959
vn 0.485850 0.096869 -0.868658
vn 0.851809 0.045196 -0.521898
vn -0.589564 0.104903 -0.800881
vn -0.995205 0.045028 0.086829
vn -0.907735 0.096602 -0.408270
vn 0.421269 0.160968 -0.892537
vn 0.424045 0.155570 -0.892179
vn -0.871434 0.155620 -0.465172
vn -0.868757 0.161095 -0.468305
vn 0.865839 0.160481 -0.473887
vn 0.866684 0.153341 -0.474706
vn -0.429228 0.153919 -0.889985
vn -0.427455 0.161448 -0.889504
vn -0.076906 -0.969541 -0.232543
vn -0.076906 -0.969541 -0.232543
vn -0.076906 -0.969541 -0.232543
vn -0.076906 -0.969541 -0.232543
vn 0.923581 0.011193 -0.383239
vn 0.074450 -0.969555 -0.233280
vn 0.074450 -0.969555 -0.233280
vn 0.074450 -0.969555 -0.233280
vn 0.074450 -0.969555 -0.233280
vn 0.972297 0.010472 0.233513
vn -0.482772 -0.163932 0.860266
vn 0.900199 -0.163910 0.403454
vn 0.426823 0.150132 -0.891786
vn -0.874096 0.150084 -0.461985
vn -0.897825 -0.168019 0.407038
vn 0.495253 -0.168225 0.852306
vn 0.867485 0.146180 -0.475502
vn -0.430983 0.146343 -0.890414
vn -0.120132 0.097079 -0.988000
vn 0.378847 0.045838 -0.924324
vn -0.947874 0.104486 -0.301028
vn -0.752558 0.044412 0.657027
vn -0.974123 0.096090 0.204576
vn -0.677526 0.096793 -0.729102
vn -0.235399 0.045632 -0.970827
vn -0.217162 0.043163 0.975181
vn -0.666902 0.095372 0.739017
vn -0.720551 0.160958 -0.674462
vn -0.722155 0.161121 -0.672705
vn -0.713236 0.160773 0.682237
vn -0.712321 0.160243 0.683316
vn -0.185771 0.161022 -0.969310
vn -0.187460 0.160728 -0.969033
vn -0.977959 0.160610 0.133416
vn -0.977901 0.160644 0.133801
vn -0.244813 -0.969569 0.001647
vn -0.244813 -0.969569 0.001647
vn -0.244813 -0.969569 0.001647
vn -0.244813 -0.969569 0.001647
vn -0.084207 0.012470 -0.996370
vn -0.199027 -0.969582 -0.142477
vn -0.199027 -0.969582 -0.142477
vn -0.199027 -0.969582 -0.142477
vn -0.199027 -0.969582 -0.142477
vn 0.519458 0.011738 -0.854416
vn 0.664106 -0.152133 0.731996
vn 0.653378 -0.152096 -0.741595
vn -0.723750 0.161282 -0.670950
vn -0.714145 0.161301 0.681160
vn 0.108645 -0.152877 0.982255
vn 0.964822 -0.152998 -0.213801
vn -0.189143 0.160434 -0.968755
vn -0.978017 0.160577 0.133031
vn 0.925560 0.010667 0.378450
vn -0.070752 0.011113 0.997432
vn 0.645387 0.011762 -0.763765
vn 0.970789 0.011087 -0.239677
vn -0.524788 0.012757 -0.851137
vn -0.971584 0.012150 0.236385
vn -0.925142 0.012568 -0.379413
vn -0.644750 0.011515 0.764307
s 1
g polySurface4082
f 1/148/1 2/149/2 45/150/3 46/3/4
f 2/1/2 3/4/5 44/5/6 45/2/3
f 3/4/5 4/6/7 43/7/8 44/5/6
f 4/6/7 5/8/9 42/9/10 43/7/8
f 5/8/9 6/10/11 41/11/12 42/9/10
f 6/10/11 7/12/13 48/13/14 41/11/12
f 7/12/13 8/14/15 47/51/16 48/13/14
f 8/14/15 1/148/1 46/3/4 47/51/16
s 2
f 18/15/17 17/16/18 13/17/19 12/18/20
f 19/19/21 18/15/17 12/18/20 11/20/22
f 20/21/23 19/19/21 11/20/22 10/22/24
f 21/171/25 20/165/23 10/166/24 9/23/26
f 22/24/27 21/171/25 9/23/26 16/25/28
f 23/26/29 22/24/27 16/25/28 15/27/30
f 24/28/31 23/26/29 15/27/30 14/31/32
f 17/16/18 24/28/31 14/31/32 13/17/19
s 3
f 26/32/33 25/34/34 40/36/35 33/38/36
f 27/39/37 26/32/33 33/38/36 34/41/38
f 28/43/39 27/39/37 34/41/38 35/44/40
f 29/45/41 28/43/39 35/44/40 36/46/42
f 30/167/43 29/168/41 36/169/42 37/47/44
f 31/48/45 30/167/43 37/47/44 38/49/46
f 32/50/47 31/48/45 38/49/46 39/97/48
f 25/34/34 32/50/47 39/97/48 40/36/35
s 4
f 34/41/49 33/38/50 98/99/51 99/100/52
f 35/44/53 34/41/49 99/100/52 100/111/54
f 36/46/55 35/44/53 100/111/54 101/112/56
f 37/47/57 36/169/55 101/170/56 102/161/58
f 38/49/59 37/47/57 102/161/58 103/162/60
f 39/97/61 38/49/59 103/162/60 104/163/62
f 40/36/63 39/97/61 104/163/62 97/164/64
f 33/38/50 40/36/63 97/164/64 98/99/51
s 5
f 42/9/65 41/11/66 73/52/67 74/53/68
f 43/7/69 42/9/65 74/53/68 75/54/70
f 44/5/71 43/7/69 75/54/70 76/55/72
f 45/2/73 44/5/71 76/55/72 77/56/74
f 46/3/75 45/150/73 77/151/74 78/57/76
f 47/51/77 46/3/75 78/57/76 79/58/78
f 48/13/79 47/51/77 79/58/78 80/66/80
f 41/11/66 48/13/79 80/66/80 73/52/67
s 6
f 50/59/81 49/60/82 25/30/83 26/29/84
f 51/61/85 50/59/81 26/29/84 27/33/86
f 52/62/87 51/61/85 27/33/86 28/35/88
f 53/63/89 52/62/87 28/35/88 29/37/90
f 54/105/91 53/102/89 29/98/90 30/103/92
f 55/64/93 54/105/91 30/103/92 31/40/94
f 56/65/95 55/64/93 31/40/94 32/42/96
f 49/60/82 56/65/95 32/42/96 25/30/83
s 7
f 58/67/97 57/68/98 49/69/99 50/70/100
f 59/71/101 58/67/97 50/70/100 51/72/102
f 60/73/103 59/71/101 51/72/102 52/74/104
f 61/75/105 60/73/103 52/74/104 53/76/106
f 62/156/107 61/152/105 53/153/106 54/154/108
f 63/77/109 62/156/107 54/154/108 55/95/110
f 64/96/111 63/77/109 55/95/110 56/101/112
f 57/68/98 64/96/111 56/101/112 49/69/99
s 8
f 66/104/113 65/106/114 57/68/115 58/67/116
f 67/107/117 66/104/113 58/67/116 59/71/118
f 68/110/119 67/107/117 59/71/118 60/73/120
f 69/115/121 68/110/119 60/73/120 61/75/122
f 70/160/123 69/155/121 61/152/122 62/156/124
f 71/131/125 70/160/123 62/156/124 63/77/126
f 72/132/127 71/131/125 63/77/126 64/96/128
f 65/106/114 72/132/127 64/96/128 57/68/115
s 9
f 74/53/129 73/52/130 81/133/131 82/134/132
f 75/54/133 74/53/129 82/134/132 83/135/134
f 76/55/135 75/54/133 83/135/134 84/136/136
f 77/56/137 76/55/135 84/136/136 85/137/138
f 78/57/139 77/151/137 85/157/138 86/138/140
f 79/58/141 78/57/139 86/138/140 87/139/142
f 80/66/143 79/58/141 87/139/142 88/140/144
f 73/52/130 80/66/143 88/140/144 81/133/131
s 10
f 82/79/145 81/78/146 89/86/147 90/87/148
f 83/80/149 82/79/145 90/87/148 91/88/150
f 84/81/151 83/80/149 91/88/150 92/89/152
f 85/82/153 84/81/151 92/89/152 93/90/154
f 86/83/155 85/108/153 93/109/154 94/91/156
f 87/84/157 86/83/155 94/91/156 95/92/158
f 88/85/159 87/84/157 95/92/158 96/93/160
f 81/78/146 88/85/159 96/93/160 89/86/147
f 90/141/148 89/142/147 65/106/161 66/104/162
f 91/143/150 90/141/148 66/104/162 67/107/163
f 92/144/152 91/143/150 67/107/163 68/110/164
f 93/145/154 92/144/152 68/110/164 69/115/165
f 94/158/156 93/159/154 69/155/165 70/160/166
f 95/146/158 94/158/156 70/160/166 71/131/167
f 96/147/160 95/146/158 71/131/167 72/132/168
f 89/142/147 96/147/160 72/132/168 65/106/161
s 11
f 98/99/169 97/164/170 24/28/171 17/16/172
f 99/100/173 98/99/169 17/16/172 18/15/174
f 100/111/175 99/100/173 18/15/174 19/19/176
f 101/112/177 100/111/175 19/19/176 20/21/178
f 102/161/179 101/170/177 20/165/178 21/171/180
f 103/162/181 102/161/179 21/171/180 22/24/182
f 104/163/183 103/162/181 22/24/182 23/26/184
f 97/164/170 104/163/183 23/26/184 24/28/171
s 12
f 9/94/185 10/113/186 105/114/187
f 10/113/186 11/116/188 105/114/187
f 11/116/188 12/117/189 105/114/187
f 12/117/189 13/118/190 105/114/187
f 13/118/190 14/119/191 105/114/187
f 14/119/191 15/120/192 105/114/187
f 15/120/192 16/121/193 105/114/187
f 16/121/193 9/94/185 105/114/187
s off
f 1/122/194 8/123/195 106/124/196
f 8/123/197 7/125/198 106/124/199
f 7/125/200 6/126/201 106/124/202
f 6/126/203 5/127/204 106/124/205
f 5/127/206 4/128/207 106/124/208
f 4/128/209 3/129/210 106/124/211
f 3/129/212 2/130/213 106/124/214
f 2/130/215 1/122/216 106/124/217
s 21
f 108/172/218 156/173/219 149/174/220
f 108/172/218 149/174/220 150/175/221
f 108/172/218 150/175/221 151/176/222
f 108/172/218 151/176/222 152/177/223
f 108/172/218 152/177/223 153/178/224
f 108/172/218 153/178/224 154/179/225
f 108/172/218 154/179/225 155/180/226
f 108/172/218 155/181/226 156/173/219
s 22
f 110/182/227 109/183/228 107/184/229
f 111/185/230 110/182/227 107/184/229
f 112/186/231 111/185/230 107/184/229
f 113/187/232 112/186/231 107/184/229
f 114/188/233 113/187/232 107/184/229
f 115/189/234 114/188/233 107/184/229
f 116/190/235 115/189/234 107/184/229
f 109/183/228 116/191/235 107/184/229
s 23
f 118/192/236 117/193/237 125/194/238 126/195/239
f 119/196/240 118/192/236 126/195/239 127/197/241
f 120/198/242 119/196/240 127/197/241 128/199/243
f 121/200/244 120/198/242 128/199/243 129/201/245
f 122/202/246 121/200/244 129/201/245 130/203/247
f 123/204/248 122/202/246 130/203/247 131/205/249
f 124/206/250 123/204/248 131/205/249 132/207/251
f 117/193/237 124/208/250 132/209/251 125/194/238
s 24
f 126/195/252 125/194/253 109/183/254 110/182/255
f 127/197/256 126/195/252 110/182/255 111/185/257
f 128/199/258 127/197/256 111/185/257 112/186/259
f 129/201/260 128/199/258 112/186/259 113/187/261
f 130/203/262 129/201/260 113/187/261 114/188/263
f 131/205/264 130/203/262 114/188/263 115/189/265
f 132/207/266 131/205/264 115/189/265 116/190/267
f 125/194/253 132/209/266 116/191/267 109/183/254
s 25
f 134/210/268 133/211/269 117/212/270 118/213/271
f 135/214/272 134/215/268 118/216/271 119/217/273
f 136/218/274 135/219/272 119/220/273 120/221/275
f 137/222/276 136/223/274 120/224/275 121/225/277
f 138/226/278 137/227/276 121/228/277 122/229/279
f 139/230/280 138/231/278 122/232/279 123/233/281
f 140/234/282 139/235/280 123/236/281 124/237/283
f 133/238/269 140/239/282 124/240/283 117/241/270
s 26
f 142/242/284 141/243/285 133/244/286 134/245/287
f 143/246/288 142/242/284 134/245/287 135/247/289
f 144/248/290 143/246/288 135/247/289 136/249/291
f 145/250/292 144/248/290 136/249/291 137/251/293
f 146/252/294 145/250/292 137/251/293 138/253/295
f 147/254/296 146/252/294 138/253/295 139/255/297
f 148/256/298 147/254/296 139/255/297 140/257/299
f 141/243/285 148/258/298 140/259/299 133/244/286
s 27
f 150/175/300 149/174/301 142/242/302 143/246/303
f 151/176/304 150/175/300 143/246/303 144/248/305
f 152/177/306 151/176/304 144/248/305 145/250/307
f 153/178/308 152/177/306 145/250/307 146/252/309
f 154/179/310 153/178/308 146/252/309 147/254/311
f 155/180/312 154/179/310 147/254/311 148/256/313
f 156/173/314 155/181/312 148/258/313 141/243/315
f 149/174/301 156/173/314 141/243/315 142/242/302
s 28
f 158/260/316 157/262/317 159/261/318
f 159/263/318 157/265/317 160/264/319
f 160/266/319 157/268/317 161/267/320
f 161/269/320 157/271/317 162/270/321
f 162/272/321 157/274/317 163/273/322
f 163/275/322 157/277/317 164/276/323
f 164/278/323 157/280/317 165/279/324
f 165/281/324 157/283/317 166/282/325
f 166/284/325 157/286/317 167/285/326
f 167/287/326 157/289/317 168/288/327
f 168/290/327 157/292/317 169/291/328
f 169/293/328 157/295/317 158/294/316
s 29
f 205/296/329 176/297/330 170/298/331
s 30
f 174/299/332 202/300/333 171/301/334
f 203/302/335 174/299/332 172/303/336
s 31
f 175/304/337 200/305/338 173/306/339
s 32
f 174/299/340 175/304/341 173/306/342 172/303/343
f 176/297/344 174/299/345 171/301/346 170/298/347
s 31
f 201/307/348 175/304/337 177/308/349
s 33
f 181/309/350 208/310/351 178/311/352
f 209/312/353 181/309/350 179/313/354
s 34
f 182/314/355 206/315/356 180/316/357
s 35
f 181/309/358 182/314/359 180/316/360 179/313/361
s 36
f 175/304/362 181/309/363 178/311/364 177/308/365
s 34
f 207/317/366 182/314/355 183/318/367
s 37
f 187/319/368 212/320/369 184/321/370
f 213/322/371 187/319/368 185/323/372
s 38
f 188/324/373 210/325/374 186/326/375
s 39
f 187/319/376 188/324/377 186/326/378 185/323/379
f 182/314/380 187/319/381 184/321/382 183/318/383
s 38
f 211/327/384 188/324/373 189/328/385
s 40
f 193/329/386 216/330/387 190/331/388
f 217/332/389 193/329/386 191/333/390
s 41
f 194/334/391 214/335/392 192/336/393
s 42
f 193/329/394 194/334/395 192/336/396 191/333/397
s 43
f 188/324/398 193/329/399 190/331/400 189/328/401
s 41
f 215/337/402 194/334/391 195/338/403
s 44
f 199/339/404 218/340/405 196/341/406
f 219/342/407 199/339/404 197/343/408
s 29
f 176/297/330 204/344/409 198/345/410
s 45
f 199/339/411 176/297/412 198/345/413 197/343/414
s 46
f 194/334/415 199/339/416 196/341/417 195/338/418
s 31
f 201/307/348 200/305/338 175/304/337
s 30
f 203/302/335 202/300/333 174/299/332
s 29
f 205/296/329 204/344/409 176/297/330
s 34
f 207/317/366 206/315/356 182/314/355
s 33
f 209/312/353 208/310/351 181/309/350
s 38
f 211/327/384 210/325/374 188/324/373
s 37
f 213/322/371 212/320/369 187/319/368
s 41
f 215/337/402 214/335/392 194/334/391
s 40
f 217/332/389 216/330/387 193/329/386
s 44
f 219/342/407 218/340/405 199/339/404
s 47
f 205/346/419 170/347/420 292/348/421
s 48
f 291/349/422 171/350/423 202/351/424
f 203/352/425 172/353/426 291/349/422
s 49
f 290/354/427 173/355/428 200/356/429
s 32
f 220/357/430 223/358/431 222/359/432 221/360/433
f 224/361/434 226/362/435 225/363/436 220/357/430
s off
f 227/364/437 230/365/438 229/366/439 228/367/440
s 32
f 172/353/343 223/358/431 220/357/430 291/349/441
s off
f 231/368/442 234/369/443 233/370/444 232/371/445
s 32
f 170/347/347 226/362/435 224/361/434 292/348/446
f 173/372/342 227/373/447 228/374/448 172/375/343
f 172/353/343 228/376/448 229/377/449 223/358/431
f 223/358/431 229/378/449 230/379/450 222/359/432
f 222/359/432 230/380/450 227/381/447 173/355/342
f 171/382/346 231/383/451 232/384/452 170/385/347
f 170/347/347 232/386/452 233/387/453 226/362/435
f 226/362/435 233/388/453 234/389/454 225/363/436
f 225/363/436 234/390/454 231/391/451 171/350/346
s 49
f 201/392/455 177/393/456 290/354/427
s 52
f 294/394/457 178/395/458 208/396/459
f 209/397/460 179/398/461 294/394/457
s 53
f 293/399/462 180/400/463 206/401/464
s 35
f 235/402/465 238/403/466 237/404/467 236/405/468
s 36
f 221/360/469 240/406/470 239/407/471 235/402/472
s off
f 241/408/473 244/409/474 243/410/475 242/411/476
s 35
f 179/398/361 238/403/466 235/402/465 294/394/477
s off
f 245/412/478 248/413/479 247/414/480 246/415/481
s 36
f 177/393/365 240/406/470 221/360/469 290/354/482
s 35
f 180/416/360 241/417/483 242/418/484 179/419/361
f 179/398/361 242/420/484 243/421/485 238/403/466
f 238/403/466 243/422/485 244/423/486 237/404/467
f 237/404/467 244/424/486 241/425/483 180/400/360
s 36
f 178/426/364 245/427/487 246/428/488 177/429/365
f 177/393/365 246/430/488 247/431/489 240/406/470
f 240/406/470 247/432/489 248/433/490 239/407/471
f 239/407/471 248/434/490 245/435/487 178/395/364
s 53
f 207/436/491 183/437/492 293/399/462
s 56
f 296/438/493 184/439/494 212/440/495
f 213/441/496 185/442/497 296/438/493
s 57
f 295/443/498 186/444/499 210/445/500
s 39
f 249/446/501 252/447/502 251/448/503 250/449/504
f 236/405/505 254/450/506 253/451/507 249/446/501
s off
f 255/452/508 258/453/509 257/454/510 256/455/511
s 39
f 185/442/379 252/447/502 249/446/501 296/438/512
s off
f 259/456/513 262/457/514 261/458/515 260/459/516
s 39
f 183/437/383 254/450/506 236/405/505 293/399/517
f 186/460/378 255/461/518 256/462/519 185/463/379
f 185/442/379 256/464/519 257/465/520 252/447/502
f 252/447/502 257/466/520 258/467/521 251/448/503
f 251/448/503 258/468/521 255/469/518 186/444/378
f 184/470/382 259/471/522 260/472/523 183/473/383
f 183/437/383 260/474/523 261/475/524 254/450/506
f 254/450/506 261/476/524 262/477/525 253/451/507
f 253/451/507 262/478/525 259/479/522 184/439/382
s 57
f 211/480/526 189/481/527 295/443/498
s 60
f 298/482/528 190/483/529 216/484/530
f 217/485/531 191/486/532 298/482/528
s 61
f 297/487/533 192/488/534 214/489/535
s 42
f 263/490/536 266/491/537 265/492/538 264/493/539
s 43
f 250/449/540 268/494/541 267/495/542 263/490/543
s off
f 269/496/544 272/497/545 271/498/546 270/499/547
s 42
f 191/486/397 266/491/537 263/490/536 298/482/548
s off
f 273/500/549 276/501/550 275/502/551 274/503/552
s 43
f 189/481/401 268/494/541 250/449/540 295/443/553
s 42
f 192/504/396 269/505/554 270/506/555 191/507/397
f 191/486/397 270/508/555 271/509/556 266/491/537
f 266/491/537 271/510/556 272/511/557 265/492/538
f 265/492/538 272/512/557 269/513/554 192/488/396
s 43
f 190/514/400 273/515/558 274/516/559 189/517/401
f 189/481/401 274/518/559 275/519/560 268/494/541
f 268/494/541 275/520/560 276/521/561 267/495/542
f 267/495/542 276/522/561 273/523/558 190/483/400
s 61
f 215/524/562 195/525/563 297/487/533
s 64
f 299/526/564 196/527/565 218/528/566
f 219/529/567 197/530/568 299/526/564
s 47
f 292/348/421 198/531/569 204/532/570
s 45
f 277/533/571 279/534/572 278/535/573 224/361/574
s 46
f 264/493/575 281/536/576 280/537/577 277/533/578
s off
f 282/538/579 285/539/580 284/540/581 283/541/582
s 45
f 197/530/414 279/534/572 277/533/571 299/526/583
s off
f 286/542/584 289/543/585 288/544/586 287/545/587
s 46
f 195/525/418 281/536/576 264/493/575 297/487/588
s 45
f 198/546/413 282/547/589 283/548/590 197/549/414
f 197/530/414 283/550/590 284/551/591 279/534/572
f 279/534/572 284/552/591 285/553/592 278/535/573
f 278/535/573 285/554/592 282/555/589 198/531/413
s 46
f 196/556/417 286/557/593 287/558/594 195/559/418
f 195/525/418 287/560/594 288/561/595 281/536/576
f 281/536/576 288/562/595 289/563/596 280/537/577
f 280/537/577 289/564/596 286/565/593 196/527/417
s 32
f 290/354/597 221/360/433 222/359/432 173/355/342
f 291/349/441 220/357/430 225/363/436 171/350/346
s 45
f 292/348/598 224/361/574 278/535/573 198/531/413
s 35
f 293/399/599 236/405/468 237/404/467 180/400/360
s 36
f 294/394/600 235/402/472 239/407/471 178/395/364
s 39
f 295/443/601 250/449/504 251/448/503 186/444/378
f 296/438/512 249/446/501 253/451/507 184/439/382
s 42
f 297/487/602 264/493/539 265/492/538 192/488/396
s 43
f 298/482/603 263/490/543 267/495/542 190/483/400
s 46
f 299/526/604 277/533/578 280/537/577 196/527/417
s 49
f 201/392/455 290/354/427 200/356/429
s 48
f 203/352/425 291/349/422 202/351/424
s 47
f 205/346/419 292/348/421 204/532/570
s 53
f 207/436/491 293/399/462 206/401/464
s 52
f 209/397/460 294/394/457 208/396/459
s 57
f 211/480/526 295/443/498 210/445/500
s 56
f 213/441/496 296/438/493 212/440/495
s 61
f 215/524/562 297/487/533 214/489/535
s 60
f 217/485/531 298/482/528 216/484/530
s 64
f 219/529/567 299/526/564 218/528/566
