# This file uses centimeters as units for non-parametric coordinates.

g default
v -27.128059 0.595431 0.016823
v -27.093529 0.595431 0.016823
v -27.128059 1.661610 0.016823
v -27.093529 1.661610 0.016823
v -27.128059 1.661610 -0.020586
v -27.093529 1.661610 -0.020586
v -27.128059 0.595431 -0.020586
v -27.093529 0.595431 -0.020586
v -26.675995 1.364365 -0.434798
v -27.110794 1.364365 -0.614897
v -27.545589 1.364365 -0.434798
v -27.725689 1.364365 0.000000
v -27.545589 1.364365 0.434798
v -27.110794 1.364365 0.614897
v -26.675995 1.364365 0.434798
v -26.495895 1.364365 0.000000
v -27.110794 1.537935 0.000000
vt 0.375000 0.000000
vt 0.625000 0.000000
vt 0.375000 0.250000
vt 0.625000 0.250000
vt 0.375000 0.500000
vt 0.625000 0.500000
vt 0.375000 0.750000
vt 0.625000 0.750000
vt 0.375000 1.000000
vt 0.625000 1.000000
vt 0.875000 0.000000
vt 0.875000 0.250000
vt 0.125000 0.000000
vt 0.125000 0.250000
vt 0.676777 0.073223
vt 0.750000 0.250000
vt 0.676777 0.426777
vt 0.500000 0.500000
vt 0.323223 0.426777
vt 0.250000 0.250000
vt 0.323223 0.073223
vt 0.500000 0.000000
vt 0.250000 0.500000
vt 0.312500 0.500000
vt 0.500000 1.000000
vt 0.375000 0.500000
vt 0.437500 0.500000
vt 0.500000 0.500000
vt 0.562500 0.500000
vt 0.625000 0.500000
vt 0.687500 0.500000
vt 0.750000 0.500000
vn 0.000000 0.000000 1.000000
vn 0.000000 0.000000 1.000000
vn 0.000000 0.000000 1.000000
vn 0.000000 0.000000 1.000000
vn 0.000000 1.000000 0.000000
vn 0.000000 1.000000 0.000000
vn 0.000000 1.000000 0.000000
vn 0.000000 1.000000 0.000000
vn 0.000000 0.000000 -1.000000
vn 0.000000 0.000000 -1.000000
vn 0.000000 0.000000 -1.000000
vn 0.000000 0.000000 -1.000000
vn 0.000000 -1.000000 0.000000
vn 0.000000 -1.000000 0.000000
vn 0.000000 -1.000000 0.000000
vn 0.000000 -1.000000 0.000000
vn 1.000000 0.000000 0.000000
vn 1.000000 0.000000 0.000000
vn 1.000000 0.000000 0.000000
vn 1.000000 0.000000 0.000000
vn -1.000000 0.000000 0.000000
vn -1.000000 0.000000 0.000000
vn -1.000000 0.000000 0.000000
vn -1.000000 0.000000 0.000000
vn 0.000000 -1.000000 -0.000000
vn 0.000000 -1.000000 -0.000000
vn 0.000000 -1.000000 -0.000000
vn 0.000000 -1.000000 -0.000000
vn 0.000000 -1.000000 -0.000000
vn 0.000000 -1.000000 -0.000000
vn 0.000000 -1.000000 -0.000000
vn 0.000000 -1.000000 -0.000000
vn 0.111819 0.956358 -0.269956
vn 0.111819 0.956358 -0.269956
vn 0.111819 0.956358 -0.269956
vn -0.111820 0.956357 -0.269957
vn -0.111820 0.956357 -0.269957
vn -0.111820 0.956357 -0.269957
vn -0.269957 0.956357 -0.111820
vn -0.269957 0.956357 -0.111820
vn -0.269957 0.956357 -0.111820
vn -0.269957 0.956358 0.111820
vn -0.269957 0.956358 0.111820
vn -0.269957 0.956358 0.111820
vn -0.111820 0.956357 0.269957
vn -0.111820 0.956357 0.269957
vn -0.111820 0.956357 0.269957
vn 0.111819 0.956358 0.269956
vn 0.111819 0.956358 0.269956
vn 0.111819 0.956358 0.269956
vn 0.269955 0.956358 0.111819
vn 0.269955 0.956358 0.111819
vn 0.269955 0.956358 0.111819
vn 0.269955 0.956358 -0.111819
vn 0.269955 0.956358 -0.111819
vn 0.269955 0.956358 -0.111819
s off
g polySurface8371
f 1/1/1 2/2/2 4/4/3 3/3/4
f 3/3/5 4/4/6 6/6/7 5/5/8
f 5/5/9 6/6/10 8/8/11 7/7/12
f 7/7/13 8/8/14 2/10/15 1/9/16
f 2/2/17 8/11/18 6/12/19 4/4/20
f 7/13/21 1/1/22 3/3/23 5/14/24
f 9/15/25 16/16/26 15/17/27 14/18/28 13/19/29 12/20/30 11/21/31 10/22/32
f 9/23/33 10/24/34 17/25/35
f 10/24/36 11/26/37 17/25/38
f 11/26/39 12/27/40 17/25/41
f 12/27/42 13/28/43 17/25/44
f 13/28/45 14/29/46 17/25/47
f 14/29/48 15/30/49 17/25/50
f 15/30/51 16/31/52 17/25/53
f 16/31/54 9/32/55 17/25/56
