# This file uses centimeters as units for non-parametric coordinates.

g default
v -42.178936 0.387681 -0.046865
v -42.178936 0.426058 -0.018436
v -42.178936 0.457328 0.027048
v -42.178936 0.576143 0.076005
v -42.178936 0.541190 -0.004223
v -42.178936 0.549718 -0.035493
v -42.178936 0.578146 -0.046865
v -42.178936 0.619366 -0.046817
v -42.178936 0.650077 -0.076005
v -42.178936 0.539416 0.072409
v -42.178936 0.570375 0.053188
v -42.178936 0.499072 0.056574
v -42.178936 0.549128 0.022412
v -42.212955 0.387681 -0.046865
v -42.212955 0.578146 -0.046865
v -42.212955 0.619366 -0.046817
v -42.212955 0.650077 -0.076005
v -42.212955 0.457328 0.027048
v -42.212955 0.541190 -0.004223
v -42.212955 0.499072 0.056574
v -42.212955 0.549128 0.022412
v -42.212955 0.426058 -0.018436
v -42.212955 0.549718 -0.035493
v -42.212955 0.539416 0.072409
v -42.212955 0.570375 0.053188
v -42.212955 0.576143 0.076005
v -42.178936 0.058246 -0.046911
v -42.178936 0.107994 -0.046865
v -42.178936 0.146372 -0.018436
v -42.178936 0.177642 0.027048
v -42.178936 0.296456 0.076005
v -42.178936 0.261504 -0.004223
v -42.178936 0.270032 -0.035493
v -42.178936 0.298460 -0.046865
v -42.178936 0.027535 -0.076000
v -42.178936 0.259730 0.072409
v -42.178936 0.290688 0.053188
v -42.178936 0.219385 0.056574
v -42.178936 0.269441 0.022412
v -42.212955 0.058246 -0.046911
v -42.212955 0.107994 -0.046865
v -42.212955 0.298460 -0.046865
v -42.212955 0.027535 -0.076000
v -42.212955 0.177642 0.027048
v -42.212955 0.261503 -0.004223
v -42.212955 0.219385 0.056574
v -42.212955 0.269441 0.022412
v -42.212955 0.146371 -0.018436
v -42.212955 0.270032 -0.035493
v -42.212955 0.259730 0.072409
v -42.212955 0.290688 0.053188
v -42.212955 0.296456 0.076005
v -42.178936 0.338806 -0.076003
v -42.212955 0.338806 -0.076003
v -42.196564 0.058841 -0.055443
v -41.611805 0.058841 -0.055443
v -42.196564 0.121491 -0.055443
v -41.611805 0.121491 -0.055443
v -42.196564 0.121491 -0.069271
v -41.611805 0.121491 -0.069271
v -42.196564 0.058841 -0.069271
v -41.611805 0.058841 -0.069271
v -42.196564 0.251280 -0.055443
v -41.611805 0.251280 -0.055443
v -42.196564 0.313929 -0.055443
v -41.611805 0.313929 -0.055443
v -42.196564 0.313929 -0.069271
v -41.611805 0.313929 -0.069271
v -42.196564 0.251280 -0.069271
v -41.611805 0.251280 -0.069271
v -42.196564 0.353803 -0.055443
v -41.611805 0.353803 -0.055443
v -42.196564 0.416452 -0.055443
v -41.611805 0.416452 -0.055443
v -42.196564 0.416452 -0.069271
v -41.611805 0.416452 -0.069271
v -42.196564 0.353803 -0.069271
v -41.611805 0.353803 -0.069271
v -42.196564 0.552544 -0.055443
v -41.611805 0.552544 -0.055443
v -42.196564 0.615194 -0.055443
v -41.611805 0.615194 -0.055443
v -42.196564 0.615194 -0.069271
v -41.611805 0.615194 -0.069271
v -42.196564 0.552544 -0.069271
v -41.611805 0.552544 -0.069271
v -41.589317 0.387681 -0.046865
v -41.589317 0.426058 -0.018436
v -41.589317 0.457328 0.027048
v -41.589317 0.576143 0.076005
v -41.589317 0.541190 -0.004223
v -41.589317 0.549718 -0.035493
v -41.589317 0.578146 -0.046865
v -41.589317 0.619366 -0.046817
v -41.589317 0.650077 -0.076005
v -41.589317 0.539416 0.072409
v -41.589317 0.570375 0.053188
v -41.589317 0.499072 0.056574
v -41.589317 0.549128 0.022412
v -41.623348 0.387681 -0.046865
v -41.623348 0.578146 -0.046865
v -41.623348 0.619366 -0.046817
v -41.623348 0.650077 -0.076005
v -41.623348 0.457328 0.027048
v -41.623348 0.541190 -0.004223
v -41.623348 0.499072 0.056574
v -41.623348 0.549128 0.022412
v -41.623348 0.426058 -0.018436
v -41.623348 0.549718 -0.035493
v -41.623348 0.539416 0.072409
v -41.623348 0.570375 0.053188
v -41.623348 0.576143 0.076005
v -41.589317 0.058246 -0.046911
v -41.589317 0.107994 -0.046865
v -41.589317 0.146372 -0.018436
v -41.589317 0.177642 0.027048
v -41.589317 0.296456 0.076005
v -41.589317 0.261504 -0.004223
v -41.589317 0.270032 -0.035493
v -41.589317 0.298460 -0.046865
v -41.589317 0.027535 -0.076000
v -41.589317 0.259730 0.072409
v -41.589317 0.290688 0.053188
v -41.589317 0.219385 0.056574
v -41.589317 0.269441 0.022412
v -41.623348 0.058246 -0.046911
v -41.623348 0.107994 -0.046865
v -41.623348 0.298460 -0.046865
v -41.623348 0.027535 -0.076000
v -41.623348 0.177642 0.027048
v -41.623348 0.261503 -0.004223
v -41.623348 0.219385 0.056574
v -41.623348 0.269441 0.022412
v -41.623348 0.146371 -0.018436
v -41.623348 0.270032 -0.035493
v -41.623348 0.259730 0.072409
v -41.623348 0.290688 0.053188
v -41.623348 0.296456 0.076005
v -41.589317 0.338806 -0.076003
v -41.623348 0.338806 -0.076003
vt 0.443721 0.842494
vt 0.460673 0.842494
vt -0.260910 0.842494
vt 0.155630 0.842494
vt 0.875363 0.842494
vt 0.795816 0.842494
vt 0.903616 0.842494
vt 0.927656 0.842494
vt 0.840965 0.842494
vt 0.679720 0.842494
vt 0.866764 0.842494
vt 0.578673 0.842494
vt 1.006344 0.842494
vt 0.988590 0.842494
vt 1.049581 0.842494
vt 0.875364 0.740910
vt 0.927656 0.740910
vt 0.903616 0.740910
vt 0.795816 0.740910
vt 0.840965 0.740910
vt 0.679720 0.740910
vt 0.866764 0.740910
vt 0.578674 0.740910
vt 1.006345 0.740910
vt 1.049581 0.740910
vt 0.988591 0.740910
vt 0.929183 0.740910
vt 0.929183 0.842494
vt 0.980350 0.740910
vt 0.980350 0.842494
vt 0.460674 0.740910
vt -0.260910 0.740910
vt 0.452320 0.842494
vt 0.372773 0.842494
vt 0.480573 0.842494
vt 0.504613 0.842494
vt 0.417921 0.842494
vt 0.256677 0.842494
vt 0.583301 0.842494
vt 0.565547 0.842494
vt 0.626538 0.842494
vt 0.155630 0.740910
vt 0.080312 0.740910
vt 0.452321 0.740910
vt 0.504613 0.740910
vt 0.480573 0.740910
vt 0.372773 0.740910
vt 0.417921 0.740910
vt 0.256677 0.740910
vt 0.443721 0.740910
vt 0.583301 0.740910
vt 0.626538 0.740910
vt 0.565547 0.740910
vt 0.080312 0.842494
vt 0.413478 0.264182
vt 0.494388 0.192237
vt -0.129829 0.192243
vt 0.031522 0.264182
vt 0.732537 0.445203
vt 0.732433 0.445221
vt 0.818335 0.296248
vt 0.717954 0.380598
vt 0.917349 0.292258
vt 0.669362 0.334372
vt 0.974357 0.264182
vt 0.592401 0.264182
vt 0.675345 0.304609
vt 0.737430 0.257150
vt 0.663779 0.248272
vt 0.900622 0.367953
vt 0.717954 0.380598
vt 0.818335 0.296248
vt 0.900656 0.367946
vt 0.917349 0.292258
vt 0.669363 0.334372
vt 0.974358 0.264182
vt 0.592401 0.264182
vt 0.675345 0.304609
vt 0.663778 0.248272
vt 0.737429 0.257150
vt 0.171603 0.444188
vt 0.171568 0.444230
vt 0.257456 0.294349
vt 0.157075 0.378699
vt 0.356470 0.292258
vt 0.108484 0.334372
vt 0.114466 0.302710
vt 0.176551 0.255251
vt 0.102899 0.246373
vt -0.129829 0.192243
vt 0.031522 0.264182
vt -0.068242 0.264066
vt 0.339740 0.367040
vt 0.157075 0.378699
vt 0.257456 0.294349
vt 0.339788 0.366981
vt 0.356470 0.292258
vt 0.108484 0.334372
vt 0.413478 0.264182
vt 0.114466 0.302710
vt 0.102899 0.246373
vt 0.176550 0.255251
vt 0.494389 0.192237
vt 1.118607 0.192230
vt 1.057020 0.264298
vt -0.068242 0.264066
vt 1.118606 0.192230
vt 1.057019 0.264298
vt 0.257456 0.294349
vt 0.176551 0.255251
vt 0.114466 0.302710
vt 0.157075 0.378699
vt 0.339740 0.367040
vt 0.339788 0.366981
vt 0.257456 0.294349
vt 0.157075 0.378699
vt 0.171603 0.444188
vt 0.176550 0.255251
vt 0.114466 0.302710
vt 0.171568 0.444230
vt 0.818335 0.296248
vt 0.737430 0.257150
vt 0.675345 0.304609
vt 0.717954 0.380598
vt 0.900622 0.367952
vt 0.900656 0.367946
vt 0.818335 0.296248
vt 0.717954 0.380598
vt 0.732537 0.445203
vt 0.737429 0.257150
vt 0.675345 0.304609
vt 0.732433 0.445221
vt 1.000000 0.707133
vt -0.000000 0.707133
vt -0.000000 0.497951
vt 1.000000 0.497951
vt -0.000000 0.718042
vt -0.000000 0.681678
vt 1.000000 0.681678
vt 1.000000 0.718042
vt -0.000000 0.497951
vt -0.000000 0.707133
vt 1.000000 0.707133
vt 1.000000 0.497951
vt -0.000000 0.512496
vt -0.000000 0.476132
vt 1.000000 0.476132
vt 1.000000 0.512496
vt 1.000000 0.707133
vt -0.000000 0.707133
vt -0.000000 0.497951
vt 1.000000 0.497951
vt -0.000000 0.718042
vt -0.000000 0.681678
vt 1.000000 0.681678
vt 1.000000 0.718042
vt -0.000000 0.497951
vt -0.000000 0.707133
vt 1.000000 0.707133
vt 1.000000 0.497951
vt -0.000000 0.512496
vt -0.000000 0.476132
vt 1.000000 0.476132
vt 1.000000 0.512496
vt 1.000000 0.707133
vt -0.000000 0.707133
vt -0.000000 0.497951
vt 1.000000 0.497951
vt -0.000000 0.718042
vt -0.000000 0.681678
vt 1.000000 0.681678
vt 1.000000 0.718042
vt -0.000000 0.497951
vt -0.000000 0.707133
vt 1.000000 0.707133
vt 1.000000 0.497951
vt -0.000000 0.512496
vt -0.000000 0.476132
vt 1.000000 0.476132
vt 1.000000 0.512496
vt 1.000000 0.707133
vt -0.000000 0.707133
vt -0.000000 0.497951
vt 1.000000 0.497951
vt -0.000000 0.718042
vt -0.000000 0.681678
vt 1.000000 0.681678
vt 1.000000 0.718042
vt -0.000000 0.497951
vt -0.000000 0.707133
vt 1.000000 0.707133
vt 1.000000 0.497951
vt -0.000000 0.512496
vt -0.000000 0.476132
vt 1.000000 0.476132
vt 1.000000 0.512496
vt 0.413478 0.264182
vt 0.494388 0.192237
vt -0.129829 0.192243
vt 0.031522 0.264182
vt 0.732373 0.445043
vt 0.900603 0.367894
vt 0.815500 0.293477
vt 0.715119 0.377826
vt 0.917349 0.292258
vt 0.669362 0.334372
vt 0.732433 0.445221
vt 0.900622 0.367952
vt 0.974357 0.264182
vt 0.592401 0.264182
vt 0.672510 0.301837
vt 0.734595 0.254378
vt 0.660944 0.245500
vt 0.672510 0.301837
vt 0.715119 0.377826
vt 0.815500 0.293477
vt 0.734595 0.254378
vt 0.732373 0.445042
vt 0.715119 0.377826
vt 0.815500 0.293477
vt 0.900603 0.367894
vt 0.917349 0.292258
vt 0.900622 0.367953
vt 0.732433 0.445221
vt 0.669363 0.334372
vt 0.974358 0.264182
vt 0.592401 0.264182
vt 0.672510 0.301837
vt 0.660943 0.245501
vt 0.734594 0.254378
vt 0.672510 0.301837
vt 0.734594 0.254378
vt 0.815500 0.293477
vt 0.715119 0.377826
vt 0.998374 0.735190
vt 1.088012 0.735190
vt 1.088011 0.848214
vt 0.998374 0.848214
vt 1.161491 0.735190
vt 1.161490 0.848214
vt 0.415204 0.848214
vt 0.415205 0.735190
vt -0.260910 0.735190
vt -0.260910 0.848214
vt 0.896489 0.735190
vt 1.051296 0.735190
vt 1.051296 0.848214
vt 0.896489 0.848214
vt 1.085819 0.735190
vt 1.010724 0.735190
vt 1.010723 0.848214
vt 1.085819 0.848214
vt 0.729768 0.735190
vt 0.729768 0.848214
vt 0.961325 0.735190
vt 0.961325 0.848214
vt 0.584659 0.735190
vt 0.584659 0.848214
vt 1.173325 0.735190
vt 1.260910 0.735190
vt 1.260909 0.848214
vt 1.173324 0.848214
vt 1.198820 0.735190
vt 1.198820 0.848214
vt 0.171549 0.444135
vt 0.339712 0.366907
vt 0.254621 0.291577
vt 0.154240 0.375927
vt 0.356470 0.292258
vt 0.108484 0.334372
vt 0.171568 0.444230
vt 0.339740 0.367040
vt 0.111631 0.299938
vt 0.173716 0.252479
vt 0.100064 0.243602
vt 0.111631 0.299938
vt 0.154240 0.375927
vt 0.254621 0.291577
vt 0.173716 0.252479
vt -0.129829 0.192243
vt 0.031522 0.264182
vt -0.068242 0.264066
vt 0.171549 0.444135
vt 0.154240 0.375927
vt 0.254621 0.291577
vt 0.339712 0.366907
vt 0.356470 0.292258
vt 0.339740 0.367040
vt 0.171568 0.444230
vt 0.108484 0.334372
vt 0.413478 0.264182
vt 0.111631 0.299938
vt 0.100064 0.243602
vt 0.173715 0.252479
vt 0.111631 0.299938
vt 0.173715 0.252479
vt 0.254621 0.291577
vt 0.154240 0.375927
vt -0.131017 0.735190
vt -0.022855 0.735190
vt -0.022855 0.848214
vt -0.131017 0.848214
vt 0.390860 0.848214
vt 0.390860 0.735190
vt 0.288974 0.735190
vt 0.443781 0.735190
vt 0.443781 0.848214
vt 0.288974 0.848214
vt 0.478304 0.735190
vt 0.403210 0.735190
vt 0.403209 0.848214
vt 0.478304 0.848214
vt 0.122254 0.735190
vt 0.122253 0.848214
vt 0.353810 0.735190
vt 0.353810 0.848214
vt 0.565809 0.735190
vt 0.653395 0.735190
vt 0.653395 0.848214
vt 0.565809 0.848214
vt 0.591305 0.735190
vt 0.591305 0.848214
vt 0.494389 0.192237
vt 1.118607 0.192230
vt 1.057020 0.264298
vt -0.068242 0.264066
vt 1.118606 0.192230
vt 1.057019 0.264298
vn -1.000000 0.000000 0.000000
vn -1.000000 0.000000 0.000000
vn -1.000000 0.000000 0.000000
vn -1.000000 0.000000 0.000000
vn -1.000000 0.000044 0.000000
vn -1.000000 0.000044 0.000000
vn -1.000000 0.000039 0.000000
vn -1.000000 0.000039 0.000000
vn -1.000000 0.000028 0.000000
vn -1.000000 0.000028 0.000000
vn -1.000000 0.000028 0.000000
vn -1.000000 0.000028 0.000000
vn -1.000000 0.000009 0.000000
vn -1.000000 0.000009 0.000000
vn -1.000000 0.000009 0.000000
vn -1.000000 0.000009 0.000000
vn -1.000000 0.000017 0.000000
vn -1.000000 0.000017 0.000000
vn -1.000000 0.000000 0.000000
vn 1.000000 -0.000044 0.000000
vn 1.000000 -0.000022 0.000000
vn 1.000000 -0.000022 0.000000
vn 1.000000 -0.000044 0.000000
vn 1.000000 0.000028 0.000000
vn 1.000000 0.000028 0.000000
vn 1.000000 0.000028 0.000000
vn 1.000000 0.000028 0.000000
vn 1.000000 0.000000 0.000000
vn 1.000000 0.000000 0.000000
vn 1.000000 0.000000 0.000000
vn 1.000000 0.000000 0.000000
vn 1.000000 0.000073 0.000000
vn 1.000000 0.000146 0.000000
vn 1.000000 0.000073 0.000000
vn 0.000000 0.188552 0.982063
vn 0.000000 -0.001157 0.999999
vn 0.000000 -0.001157 0.999999
vn 0.000000 0.188552 0.982063
vn 0.000000 0.688928 0.724830
vn 0.000000 0.688928 0.724830
vn 0.000000 0.688928 0.724830
vn 0.000000 0.688928 0.724830
vn 0.000000 -0.000008 -1.000000
vn 0.000000 -0.000008 -1.000000
vn 0.000000 -0.000009 -1.000000
vn 0.000000 -0.000009 -1.000000
vn 0.000000 -0.711815 0.702367
vn 0.000000 -0.474876 0.880053
vn 0.000000 -0.474876 0.880053
vn 0.000000 -0.711815 0.702367
vn -0.000003 0.901764 -0.432228
vn 0.000000 0.999932 -0.011699
vn 0.000000 0.999932 -0.011699
vn -0.000003 0.901764 -0.432228
vn 0.000000 -0.719483 0.694510
vn 0.000000 -0.719483 0.694510
vn 0.000000 0.746336 0.665569
vn 0.000000 0.746336 0.665569
vn 0.000000 -0.313415 0.949616
vn 0.000000 -0.313415 0.949616
vn 0.000000 -0.233642 0.972323
vn 0.000000 -0.097462 0.995239
vn 0.000000 -0.097462 0.995239
vn 0.000000 -0.233642 0.972323
vn -0.000007 0.969502 -0.245084
vn -0.000006 0.910650 -0.413179
vn -0.000006 0.910650 -0.413179
vn -0.000007 0.969502 -0.245084
vn -1.000000 0.000044 0.000000
vn -1.000000 0.000044 0.000000
vn -1.000000 0.000039 0.000000
vn -1.000000 0.000039 0.000000
vn -1.000000 0.000028 0.000000
vn -1.000000 0.000028 0.000000
vn -1.000000 0.000028 0.000000
vn -1.000000 0.000028 0.000000
vn -1.000000 0.000009 0.000000
vn -1.000000 0.000009 0.000000
vn -1.000000 0.000009 0.000000
vn -1.000000 0.000009 0.000000
vn -1.000000 0.000017 0.000000
vn -1.000000 0.000017 0.000000
vn -1.000000 0.000000 0.000000
vn 1.000000 0.000000 0.000000
vn 1.000000 0.000000 0.000000
vn 1.000000 0.000000 0.000000
vn 1.000000 -0.000044 0.000000
vn 1.000000 -0.000022 0.000000
vn 1.000000 -0.000022 0.000000
vn 1.000000 -0.000044 0.000000
vn 1.000000 0.000028 0.000000
vn 1.000000 0.000028 0.000000
vn 1.000000 0.000028 0.000000
vn 1.000000 0.000028 0.000000
vn 1.000000 0.000000 0.000000
vn 1.000000 0.000000 0.000000
vn 1.000000 0.000000 0.000000
vn 1.000000 0.000000 0.000000
vn 1.000000 0.000073 0.000000
vn 1.000000 0.000146 0.000000
vn 1.000000 0.000073 0.000000
vn 0.000000 -0.000939 1.000000
vn 0.000001 -0.313861 0.949469
vn 0.000001 -0.313861 0.949469
vn 0.000000 -0.000939 1.000000
vn 0.000000 0.189119 0.981954
vn 0.000000 0.189119 0.981954
vn 0.000000 -0.687708 0.725987
vn 0.000000 -0.687708 0.725987
vn 0.000000 -0.687708 0.725987
vn 0.000000 -0.687708 0.725987
vn 0.000001 -0.711817 0.702366
vn 0.000001 -0.474876 0.880053
vn 0.000001 -0.474876 0.880053
vn 0.000001 -0.711817 0.702366
vn -0.000005 0.901768 -0.432221
vn -0.000011 0.999932 -0.011687
vn -0.000011 0.999932 -0.011687
vn -0.000005 0.901768 -0.432221
vn 0.000003 -0.719483 0.694510
vn 0.000003 -0.719483 0.694510
vn -0.000006 0.746335 0.665570
vn -0.000006 0.746335 0.665570
vn 0.000001 -0.233642 0.972323
vn 0.000000 -0.097462 0.995239
vn 0.000000 -0.097462 0.995239
vn 0.000001 -0.233642 0.972323
vn 0.000000 0.969498 -0.245101
vn 0.000000 0.910645 -0.413190
vn 0.000000 0.910645 -0.413190
vn 0.000000 0.969498 -0.245101
vn 1.000000 0.000000 0.000000
vn 1.000000 0.000000 0.000000
vn 1.000000 0.000000 0.000000
vn 1.000000 0.000012 0.000000
vn 1.000000 0.000012 0.000000
vn 1.000000 0.000012 0.000000
vn 1.000000 0.000012 0.000000
vn 1.000000 -0.000114 0.000000
vn 1.000000 -0.000114 0.000000
vn 1.000000 -0.000114 0.000000
vn 1.000000 0.000000 0.000000
vn 1.000000 0.000000 0.000000
vn 1.000000 0.000000 0.000000
vn 1.000000 0.000000 0.000000
vn -1.000000 0.000079 0.000000
vn -1.000000 0.000079 0.000000
vn -1.000000 0.000079 0.000000
vn -1.000000 -0.000016 0.000000
vn -1.000000 -0.000016 0.000000
vn -1.000000 -0.000016 0.000000
vn -1.000000 -0.000016 0.000000
vn -1.000000 0.000000 0.000000
vn -1.000000 0.000000 0.000000
vn -1.000000 0.000000 0.000000
vn 0.000000 -0.000006 -1.000000
vn 0.000000 -0.000006 -1.000000
vn -1.000000 0.000000 0.000000
vn -1.000000 0.000000 0.000000
vn -1.000000 0.000000 0.000000
vn 0.000000 0.000000 1.000000
vn 0.000000 0.000000 1.000000
vn 0.000000 0.000000 1.000000
vn 0.000000 0.000000 1.000000
vn 0.000000 1.000000 0.000000
vn 0.000000 1.000000 0.000000
vn 0.000000 1.000000 0.000000
vn 0.000000 1.000000 0.000000
vn 0.000000 0.000000 -1.000000
vn 0.000000 0.000000 -1.000000
vn 0.000000 0.000000 -1.000000
vn 0.000000 0.000000 -1.000000
vn 0.000000 -1.000000 0.000000
vn 0.000000 -1.000000 0.000000
vn 0.000000 -1.000000 0.000000
vn 0.000000 -1.000000 0.000000
vn 0.000000 0.000000 1.000000
vn 0.000000 0.000000 1.000000
vn 0.000000 0.000000 1.000000
vn 0.000000 0.000000 1.000000
vn 0.000000 1.000000 0.000000
vn 0.000000 1.000000 0.000000
vn 0.000000 1.000000 0.000000
vn 0.000000 1.000000 0.000000
vn 0.000000 0.000000 -1.000000
vn 0.000000 0.000000 -1.000000
vn 0.000000 0.000000 -1.000000
vn 0.000000 0.000000 -1.000000
vn 0.000000 -1.000000 0.000000
vn 0.000000 -1.000000 0.000000
vn 0.000000 -1.000000 0.000000
vn 0.000000 -1.000000 0.000000
vn 0.000000 0.000000 1.000000
vn 0.000000 0.000000 1.000000
vn 0.000000 0.000000 1.000000
vn 0.000000 0.000000 1.000000
vn 0.000000 1.000000 0.000000
vn 0.000000 1.000000 0.000000
vn 0.000000 1.000000 0.000000
vn 0.000000 1.000000 0.000000
vn 0.000000 0.000000 -1.000000
vn 0.000000 0.000000 -1.000000
vn 0.000000 0.000000 -1.000000
vn 0.000000 0.000000 -1.000000
vn 0.000000 -1.000000 0.000000
vn 0.000000 -1.000000 0.000000
vn 0.000000 -1.000000 0.000000
vn 0.000000 -1.000000 0.000000
vn 0.000000 0.000000 1.000000
vn 0.000000 0.000000 1.000000
vn 0.000000 0.000000 1.000000
vn 0.000000 0.000000 1.000000
vn 0.000000 1.000000 0.000000
vn 0.000000 1.000000 0.000000
vn 0.000000 1.000000 0.000000
vn 0.000000 1.000000 0.000000
vn 0.000000 0.000000 -1.000000
vn 0.000000 0.000000 -1.000000
vn 0.000000 0.000000 -1.000000
vn 0.000000 0.000000 -1.000000
vn 0.000000 -1.000000 0.000000
vn 0.000000 -1.000000 0.000000
vn 0.000000 -1.000000 0.000000
vn 0.000000 -1.000000 0.000000
vn -1.000000 0.000000 0.000000
vn -1.000000 0.000000 0.000000
vn -1.000000 0.000000 0.000000
vn -1.000000 0.000000 0.000000
vn -1.000000 0.000000 0.000000
vn -1.000000 0.000000 0.000000
vn -1.000000 0.000000 0.000000
vn -1.000000 0.000000 0.000000
vn -1.000000 -0.000028 0.000000
vn -1.000000 -0.000028 0.000000
vn -1.000000 -0.000028 0.000000
vn -1.000000 -0.000028 0.000000
vn -1.000000 0.000000 0.000000
vn -1.000000 0.000000 0.000000
vn -1.000000 0.000000 0.000000
vn -1.000000 0.000000 0.000000
vn -1.000000 -0.000073 0.000000
vn -1.000000 -0.000073 0.000000
vn -1.000000 -0.000146 0.000000
vn 1.000000 0.000000 0.000000
vn 1.000000 0.000034 0.000000
vn 1.000000 0.000034 0.000000
vn 1.000000 0.000000 0.000000
vn 1.000000 0.000042 0.000000
vn 1.000000 0.000042 0.000000
vn 1.000000 0.000042 0.000000
vn 1.000000 0.000042 0.000000
vn 1.000000 0.000000 0.000000
vn 1.000000 0.000000 0.000000
vn 1.000000 0.000000 0.000000
vn 1.000000 0.000000 0.000000
vn 1.000000 0.000034 0.000000
vn 1.000000 0.000000 0.000000
vn 1.000000 0.000034 0.000000
vn 0.000000 0.188547 0.982064
vn 0.000000 -0.001157 0.999999
vn 0.000000 -0.001157 0.999999
vn 0.000000 0.188547 0.982064
vn 0.000000 0.688937 0.724822
vn 0.000000 0.688937 0.724822
vn 0.000000 0.688937 0.724822
vn 0.000000 0.688937 0.724822
vn 0.000000 -0.000008 -1.000000
vn 0.000000 -0.000008 -1.000000
vn 0.000000 -0.000009 -1.000000
vn 0.000000 -0.000009 -1.000000
vn 0.000000 -0.711814 0.702368
vn 0.000000 -0.474879 0.880051
vn 0.000000 -0.474879 0.880051
vn 0.000000 -0.711814 0.702368
vn -0.000003 0.901780 -0.432195
vn 0.000000 0.999932 -0.011691
vn 0.000000 0.999932 -0.011691
vn -0.000003 0.901780 -0.432195
vn 0.000000 -0.719463 0.694530
vn 0.000000 -0.719463 0.694530
vn 0.000000 0.746334 0.665572
vn 0.000000 0.746334 0.665572
vn 0.000000 -0.313395 0.949623
vn 0.000000 -0.313395 0.949623
vn 0.000000 -0.233637 0.972324
vn 0.000000 -0.097453 0.995240
vn 0.000000 -0.097453 0.995240
vn 0.000000 -0.233637 0.972324
vn -0.000007 0.969505 -0.245072
vn -0.000006 0.910664 -0.413149
vn -0.000006 0.910664 -0.413149
vn -0.000007 0.969505 -0.245072
vn -1.000000 0.000000 0.000000
vn -1.000000 0.000000 0.000000
vn -1.000000 0.000000 0.000000
vn -1.000000 0.000000 0.000000
vn -1.000000 -0.000028 0.000000
vn -1.000000 -0.000028 0.000000
vn -1.000000 -0.000028 0.000000
vn -1.000000 -0.000028 0.000000
vn -1.000000 0.000000 0.000000
vn -1.000000 0.000000 0.000000
vn -1.000000 0.000000 0.000000
vn -1.000000 0.000000 0.000000
vn -1.000000 -0.000073 0.000000
vn -1.000000 -0.000073 0.000000
vn -1.000000 -0.000146 0.000000
vn 1.000000 0.000000 0.000000
vn 1.000000 0.000000 0.000000
vn 1.000000 0.000000 0.000000
vn 1.000000 0.000000 0.000000
vn 1.000000 0.000034 0.000000
vn 1.000000 0.000034 0.000000
vn 1.000000 0.000000 0.000000
vn 1.000000 0.000042 0.000000
vn 1.000000 0.000042 0.000000
vn 1.000000 0.000042 0.000000
vn 1.000000 0.000042 0.000000
vn 1.000000 0.000000 0.000000
vn 1.000000 0.000000 0.000000
vn 1.000000 0.000000 0.000000
vn 1.000000 0.000000 0.000000
vn 1.000000 0.000034 0.000000
vn 1.000000 0.000000 0.000000
vn 1.000000 0.000034 0.000000
vn 0.000000 -0.000939 1.000000
vn 0.000001 -0.313840 0.949476
vn 0.000001 -0.313840 0.949476
vn 0.000000 -0.000939 1.000000
vn 0.000000 0.189115 0.981955
vn 0.000000 0.189115 0.981955
vn 0.000000 -0.687674 0.726020
vn 0.000000 -0.687674 0.726020
vn 0.000000 -0.687674 0.726020
vn 0.000000 -0.687674 0.726020
vn 0.000001 -0.711815 0.702367
vn 0.000001 -0.474880 0.880051
vn 0.000001 -0.474880 0.880051
vn 0.000001 -0.711815 0.702367
vn -0.000005 0.901783 -0.432189
vn -0.000011 0.999932 -0.011679
vn -0.000011 0.999932 -0.011679
vn -0.000005 0.901783 -0.432189
vn 0.000003 -0.719463 0.694530
vn 0.000003 -0.719463 0.694530
vn -0.000006 0.746332 0.665574
vn -0.000006 0.746332 0.665574
vn 0.000001 -0.233637 0.972324
vn 0.000000 -0.097453 0.995240
vn 0.000000 -0.097453 0.995240
vn 0.000001 -0.233637 0.972324
vn 0.000000 0.969500 -0.245090
vn 0.000000 0.910658 -0.413160
vn 0.000000 0.910658 -0.413160
vn 0.000000 0.969500 -0.245090
vn 1.000000 0.000000 0.000000
vn 1.000000 0.000000 0.000000
vn 1.000000 0.000000 0.000000
vn 1.000000 -0.000002 0.000000
vn 1.000000 -0.000002 0.000000
vn 1.000000 -0.000002 0.000000
vn 1.000000 -0.000002 0.000000
vn 1.000000 0.000054 0.000000
vn 1.000000 0.000054 0.000000
vn 1.000000 0.000054 0.000000
vn 1.000000 0.000000 0.000000
vn 1.000000 0.000000 0.000000
vn 1.000000 0.000000 0.000000
vn 1.000000 0.000000 0.000000
vn -1.000000 0.000058 0.000000
vn -1.000000 0.000058 0.000000
vn -1.000000 0.000058 0.000000
vn -1.000000 0.000000 0.000000
vn -1.000000 0.000000 0.000000
vn -1.000000 0.000000 0.000000
vn -1.000000 0.000000 0.000000
vn -1.000000 0.000000 0.000000
vn -1.000000 0.000000 0.000000
vn -1.000000 0.000000 0.000000
vn 0.000000 -0.000006 -1.000000
vn 0.000000 -0.000006 -1.000000
vn -1.000000 -0.000198 0.000000
vn -1.000000 -0.000198 0.000000
vn -1.000000 -0.000198 0.000000
s off
g polySurface6727
f 42/55/1 54/56/2 43/57/3 41/58/4
s 2
f 19/59/5 18/126/6 20/61/7 21/124/8
s off
f 23/63/9 22/64/10 18/60/11 19/125/12
f 15/65/13 14/66/14 22/64/15 23/63/16
s 2
f 25/67/17 24/122/18 26/69/19
f 25/123/17 21/62/8 20/121/7 24/68/18
s 5
f 5/129/20 13/71/21 12/127/22 3/73/23
s off
f 6/74/24 5/70/25 3/132/26 2/75/27
f 7/76/28 6/74/29 2/75/30 1/77/31
s 5
f 11/131/32 4/79/33 10/80/34
f 11/78/32 10/130/34 12/72/22 13/128/21
s 8
f 7/22/35 8/27/36 16/28/37 15/11/38
s off
f 8/27/39 9/29/40 17/30/41 16/28/42
s 10
f 54/2/43 53/31/44 35/32/45 43/3/46
s 11
f 3/19/47 12/18/48 20/7/49 18/6/50
s 8
f 13/17/51 5/16/52 19/5/53 21/8/54
s 11
f 2/21/55 3/19/47 18/6/50 22/10/56
s 8
f 5/16/52 6/20/57 23/9/58 19/5/53
s 11
f 1/23/59 2/21/55 22/10/56 14/12/60
s 8
f 6/20/57 7/22/35 15/11/38 23/9/58
s 11
f 10/26/61 4/25/62 26/15/63 24/14/64
s 8
f 4/25/65 11/24/66 25/13/67 26/15/68
f 11/24/66 13/17/51 21/8/54 25/13/67
s 11
f 12/18/48 10/26/61 24/14/64 20/7/49
s 12
f 45/81/69 44/114/70 46/83/71 47/112/72
s off
f 49/85/73 48/86/74 44/82/75 45/113/76
f 42/55/77 41/58/78 48/86/79 49/85/80
s 12
f 51/87/81 50/110/82 52/89/83
f 51/111/81 47/84/72 46/109/71 50/88/82
s off
f 35/90/84 28/91/85 27/92/86
s 16
f 32/117/87 39/94/88 38/115/89 30/96/90
s off
f 33/97/91 32/93/92 30/120/93 29/98/94
f 34/99/95 33/97/96 29/98/97 28/91/98
s 16
f 37/119/99 31/101/100 36/102/101
f 37/100/99 36/118/101 38/95/89 39/116/88
s 19
f 27/43/102 28/42/103 41/4/104 40/54/105
s 11
f 14/12/60 42/1/106 34/50/107 1/23/59
s off
f 35/32/108 27/43/109 40/54/110 43/3/111
s 19
f 30/47/112 38/46/113 46/35/114 44/34/115
s 11
f 39/45/116 32/44/117 45/33/118 47/36/119
s 19
f 29/49/120 30/47/112 44/34/115 48/38/121
s 11
f 32/44/117 33/48/122 49/37/123 45/33/118
s 19
f 28/42/103 29/49/120 48/38/121 41/4/104
s 11
f 33/48/122 34/50/107 42/1/106 49/37/123
s 19
f 36/53/124 31/52/125 52/41/126 50/40/127
s 11
f 31/52/128 37/51/129 51/39/130 52/41/131
f 37/51/129 39/45/116 47/36/119 51/39/130
s 19
f 38/46/113 36/53/124 50/40/127 46/35/114
s off
f 1/77/132 34/99/133 53/103/134
f 53/103/135 34/99/136 28/91/137 35/90/138
f 7/76/139 9/104/140 8/105/141
f 1/77/142 53/103/143 9/104/144 7/76/145
f 41/58/146 43/57/147 40/106/148
f 14/66/149 15/65/150 17/107/151 54/56/152
f 14/66/153 54/56/154 42/55/155
s 10
f 17/30/156 9/29/157 53/31/44 54/2/43
s off
f 17/107/158 15/65/159 16/108/160
f 58/133/161 57/134/162 55/135/163 56/136/164
f 59/137/165 57/138/166 58/139/167 60/140/168
f 61/141/169 59/142/170 60/143/171 62/144/172
f 55/145/173 61/146/174 62/147/175 56/148/176
f 66/149/177 65/150/178 63/151/179 64/152/180
f 67/153/181 65/154/182 66/155/183 68/156/184
f 69/157/185 67/158/186 68/159/187 70/160/188
f 63/161/189 69/162/190 70/163/191 64/164/192
f 74/165/193 73/166/194 71/167/195 72/168/196
f 75/169/197 73/170/198 74/171/199 76/172/200
f 77/173/201 75/174/202 76/175/203 78/176/204
f 71/177/205 77/178/206 78/179/207 72/180/208
f 82/181/209 81/182/210 79/183/211 80/184/212
f 83/185/213 81/186/214 82/187/215 84/188/216
f 85/189/217 83/190/218 84/191/219 86/192/220
f 79/193/221 85/194/222 86/195/223 80/196/224
f 128/197/225 140/198/226 129/199/227 127/200/228
s 46
f 105/201/229 104/202/230 106/203/231 107/204/232
s off
f 109/205/233 108/206/234 104/207/235 105/208/236
f 101/209/237 100/210/238 108/206/239 109/205/240
s 46
f 111/211/241 110/212/242 112/213/243
f 111/214/241 107/215/232 106/216/231 110/217/242
s 49
f 91/218/244 99/219/245 98/220/246 89/221/247
s off
f 92/222/248 91/223/249 89/224/250 88/225/251
f 93/226/252 92/222/253 88/225/254 87/227/255
s 49
f 97/228/256 90/229/257 96/230/258
f 97/231/256 96/232/258 98/233/246 99/234/245
s 52
f 93/235/259 94/236/260 102/237/261 101/238/262
s off
f 94/236/263 95/239/264 103/240/265 102/237/266
s 54
f 140/241/267 139/242/268 121/243/269 129/244/270
s 55
f 89/245/271 98/246/272 106/247/273 104/248/274
s 52
f 99/249/275 91/250/276 105/251/277 107/252/278
s 55
f 88/253/279 89/245/271 104/248/274 108/254/280
s 52
f 91/250/276 92/255/281 109/256/282 105/251/277
s 55
f 87/257/283 88/253/279 108/254/280 100/258/284
s 52
f 92/255/281 93/235/259 101/238/262 109/256/282
s 55
f 96/259/285 90/260/286 112/261/287 110/262/288
s 52
f 90/260/289 97/263/290 111/264/291 112/261/292
f 97/263/290 99/249/275 107/252/278 111/264/291
s 55
f 98/246/272 96/259/285 110/262/288 106/247/273
s 56
f 131/265/293 130/266/294 132/267/295 133/268/296
s off
f 135/269/297 134/270/298 130/271/299 131/272/300
f 128/197/301 127/200/302 134/270/303 135/269/304
s 56
f 137/273/305 136/274/306 138/275/307
f 137/276/305 133/277/296 132/278/295 136/279/306
s off
f 121/280/308 114/281/309 113/282/310
s 60
f 118/283/311 125/284/312 124/285/313 116/286/314
s off
f 119/287/315 118/288/316 116/289/317 115/290/318
f 120/291/319 119/287/320 115/290/321 114/281/322
s 60
f 123/292/323 117/293/324 122/294/325
f 123/295/323 122/296/325 124/297/313 125/298/312
s 63
f 113/299/326 114/300/327 127/301/328 126/302/329
s 55
f 100/258/284 128/303/330 120/304/331 87/257/283
s off
f 121/243/332 113/299/333 126/302/334 129/244/335
s 63
f 116/305/336 124/306/337 132/307/338 130/308/339
s 55
f 125/309/340 118/310/341 131/311/342 133/312/343
s 63
f 115/313/344 116/305/336 130/308/339 134/314/345
s 55
f 118/310/341 119/315/346 135/316/347 131/311/342
s 63
f 114/300/327 115/313/344 134/314/345 127/301/328
s 55
f 119/315/346 120/304/331 128/303/330 135/316/347
s 63
f 122/317/348 117/318/349 138/319/350 136/320/351
s 55
f 117/318/352 123/321/353 137/322/354 138/319/355
f 123/321/353 125/309/340 133/312/343 137/322/354
s 63
f 124/306/337 122/317/348 136/320/351 132/307/338
s off
f 87/227/356 120/291/357 139/323/358
f 139/323/359 120/291/360 114/281/361 121/280/362
f 93/226/363 95/324/364 94/325/365
f 87/227/366 139/323/367 95/324/368 93/226/369
f 127/200/370 129/199/371 126/326/372
f 100/210/373 101/209/374 103/327/375 140/198/376
f 100/210/377 140/198/378 128/197/379
s 54
f 103/240/380 95/239/381 139/242/268 140/241/267
s off
f 103/327/382 101/209/383 102/328/384
