# This file uses centimeters as units for non-parametric coordinates.

g default
v -33.103485 1.439075 -0.019841
v -32.303276 1.224659 -0.019841
v -33.103485 1.439075 0.019841
v -32.303276 1.224659 0.019841
v -33.067665 1.429476 0.019841
v -32.339100 1.234259 0.019841
v -33.067665 1.429476 -0.019841
v -32.339100 1.234259 -0.019841
v -32.386795 1.126056 0.019841
v -32.386795 1.126056 -0.019841
v -32.355629 1.105929 -0.019841
v -32.355629 1.105929 0.019841
v -32.465698 1.037904 0.019841
v -32.465698 1.037904 -0.019841
v -32.442291 1.009109 -0.019841
v -32.442291 1.009109 0.019841
v -32.568031 0.978536 0.019841
v -32.568031 0.978536 -0.019841
v -32.554688 0.943902 -0.019841
v -32.554688 0.943902 0.019841
v -32.683720 0.953793 0.019841
v -32.683720 0.953793 -0.019841
v -32.681755 0.916725 -0.019841
v -32.681755 0.916725 0.019841
v -32.801384 0.966110 0.019841
v -32.801384 0.966110 -0.019841
v -32.810989 0.930254 -0.019841
v -32.810989 0.930254 0.019841
v -32.909439 1.014275 0.019841
v -32.909439 1.014275 -0.019841
v -32.929676 0.983155 -0.019841
v -32.929676 0.983155 0.019841
v -32.997257 1.093548 0.019841
v -32.997257 1.093548 -0.019841
v -33.026134 1.070224 -0.019841
v -33.026134 1.070224 0.019841
v -33.056198 1.196129 0.019841
v -33.056198 1.196129 -0.019841
v -33.090866 1.182893 -0.019841
v -33.090866 1.182893 0.019841
v -33.080460 1.311922 0.019841
v -33.080460 1.311922 -0.019841
v -33.117512 1.310074 -0.019841
v -33.117512 1.310074 0.019841
v -33.019966 1.537679 0.019841
v -33.019966 1.537679 -0.019841
v -33.051128 1.557805 -0.019841
v -33.051128 1.557805 0.019841
v -32.941059 1.625830 0.019841
v -32.941059 1.625830 -0.019841
v -32.964470 1.654626 -0.019841
v -32.964470 1.654626 0.019841
v -32.838726 1.685198 0.019841
v -32.838726 1.685198 -0.019841
v -32.852070 1.719833 -0.019841
v -32.852070 1.719833 0.019841
v -32.723038 1.709942 0.019841
v -32.723038 1.709942 -0.019841
v -32.725002 1.747009 -0.019841
v -32.725002 1.747009 0.019841
v -32.605377 1.697625 0.019841
v -32.605377 1.697625 -0.019841
v -32.595764 1.733482 -0.019841
v -32.595764 1.733482 0.019841
v -32.497318 1.649460 0.019841
v -32.497318 1.649460 -0.019841
v -32.477081 1.680580 -0.019841
v -32.477081 1.680580 0.019841
v -32.409500 1.570187 0.019841
v -32.409500 1.570187 -0.019841
v -32.380627 1.593510 -0.019841
v -32.380627 1.593510 0.019841
v -32.350563 1.467605 0.019841
v -32.350563 1.467605 -0.019841
v -32.315895 1.480841 -0.019841
v -32.315895 1.480841 0.019841
v -32.326302 1.351812 0.019841
v -32.326302 1.351812 -0.019841
v -32.289249 1.353661 -0.019841
v -32.289249 1.353661 0.019841
v -32.839447 1.155982 -0.016111
v -32.673485 1.111513 -0.016111
v -32.839447 1.155982 0.016111
v -32.673485 1.111513 0.016111
v -32.813179 1.148943 0.016111
v -32.699753 1.118551 0.016111
v -32.813179 1.148943 -0.016111
v -32.699753 1.118551 -0.016111
v -32.719463 1.087983 0.016111
v -32.719463 1.087983 -0.016111
v -32.702316 1.066808 -0.016111
v -32.702316 1.066808 0.016111
v -32.753403 1.074889 0.016111
v -32.753403 1.074889 -0.016111
v -32.751976 1.047647 -0.016111
v -32.751976 1.047647 0.016111
v -32.788548 1.084304 0.016111
v -32.788548 1.084304 -0.016111
v -32.803402 1.061425 -0.016111
v -32.803402 1.061425 0.016111
v -32.811390 1.112616 0.016111
v -32.811390 1.112616 -0.016111
v -32.836830 1.102850 -0.016111
v -32.836830 1.102850 0.016111
v -32.793468 1.179512 0.016111
v -32.793468 1.179512 -0.016111
v -32.810612 1.200687 -0.016111
v -32.810612 1.200687 0.016111
v -32.759525 1.192607 0.016111
v -32.759525 1.192607 -0.016111
v -32.760952 1.219848 -0.016111
v -32.760952 1.219848 0.016111
v -32.724380 1.183191 0.016111
v -32.724380 1.183191 -0.016111
v -32.709534 1.206070 -0.016111
v -32.709534 1.206070 0.016111
v -32.701538 1.154880 0.016111
v -32.701538 1.154880 -0.016111
v -32.676102 1.164645 -0.016111
v -32.676102 1.164645 0.016111
v -32.732872 1.553709 -0.016111
v -32.566910 1.509239 -0.016111
v -32.732872 1.553709 0.016111
v -32.566910 1.509239 0.016111
v -32.706608 1.546670 0.016111
v -32.593182 1.516278 0.016111
v -32.706608 1.546670 -0.016111
v -32.593182 1.516278 -0.016111
v -32.612892 1.485710 0.016111
v -32.612892 1.485710 -0.016111
v -32.595749 1.464534 -0.016111
v -32.595749 1.464534 0.016111
v -32.646835 1.472615 0.016111
v -32.646835 1.472615 -0.016111
v -32.645409 1.445374 -0.016111
v -32.645409 1.445374 0.016111
v -32.681976 1.482031 0.016111
v -32.681976 1.482031 -0.016111
v -32.696827 1.459152 -0.016111
v -32.696827 1.459152 0.016111
v -32.704823 1.510342 0.016111
v -32.704823 1.510342 -0.016111
v -32.730259 1.500577 -0.016111
v -32.730259 1.500577 0.016111
v -32.686901 1.577239 0.016111
v -32.686901 1.577239 -0.016111
v -32.704044 1.598414 -0.016111
v -32.704044 1.598414 0.016111
v -32.652954 1.590333 0.016111
v -32.652954 1.590333 -0.016111
v -32.654381 1.617574 -0.016111
v -32.654381 1.617574 0.016111
v -32.617813 1.580917 0.016111
v -32.617813 1.580917 -0.016111
v -32.602959 1.603797 -0.016111
v -32.602959 1.603797 0.016111
v -32.594971 1.552606 0.016111
v -32.594971 1.552606 -0.016111
v -32.569530 1.562371 -0.016111
v -32.569530 1.562371 0.016111
v -32.640865 0.999334 0.016583
v -32.640865 0.999334 -0.016583
v -32.619579 0.973082 -0.016583
v -32.619579 0.973082 0.016583
v -32.689896 0.970890 0.016583
v -32.689896 0.970890 -0.016583
v -32.677765 0.939324 -0.016583
v -32.677765 0.939324 0.016583
v -32.745323 0.953884 0.016583
v -32.745323 0.953884 -0.016583
v -32.743549 0.920103 -0.016583
v -32.743549 0.920103 0.016583
v -32.656013 1.292336 0.016583
v -32.656013 1.292336 -0.016583
v -32.637589 1.320703 -0.016583
v -32.637589 1.320703 0.016583
v -32.574081 1.149730 0.016583
v -32.574081 1.149730 -0.016583
v -32.540348 1.151456 -0.016583
v -32.540348 1.151456 0.016583
v -32.732162 1.326075 0.016583
v -32.732162 1.326075 -0.016583
v -32.715012 1.354687 -0.016583
v -32.715012 1.354687 0.016583
v -32.859283 1.578560 -0.016583
v -32.859283 1.578560 0.016583
v -32.826683 1.569824 0.016583
v -32.826683 1.569824 -0.016583
v -32.792953 1.408878 0.016583
v -32.792953 1.408878 -0.016583
v -32.819241 1.387606 -0.016583
v -32.819241 1.387606 0.016583
v -32.716995 1.692342 0.016583
v -32.716995 1.692342 -0.016583
v -32.729130 1.723909 -0.016583
v -32.729130 1.723909 0.016583
v -32.661572 1.707740 0.016583
v -32.661572 1.707740 -0.016583
v -32.663345 1.741521 -0.016583
v -32.663345 1.741521 0.016583
v -32.784927 1.642781 0.016583
v -32.784927 1.642781 -0.016583
v -32.809746 1.665088 -0.016583
v -32.809746 1.665088 0.016583
v -32.826996 1.485764 0.016583
v -32.826996 1.485764 -0.016583
v -32.859650 1.478855 -0.016583
v -32.859650 1.478855 0.016583
v -32.570900 1.246462 0.016583
v -32.599823 1.229781 0.016583
v -32.599823 1.229781 -0.016583
v -32.570900 1.246462 -0.016583
v -32.561161 1.053939 0.016583
v -32.591644 1.067488 0.016583
v -32.591644 1.067488 -0.016583
v -32.561161 1.053939 -0.016583
vt 2.078269 0.499725
vt 1.770175 0.499953
vt 1.770175 0.272918
vt 2.078269 0.273156
vt 1.770182 0.046307
vt 2.070238 0.046509
vt 2.075976 0.953682
vt 1.770182 0.953794
vt 1.770183 0.727084
vt 2.073004 0.726991
vt -0.677454 0.953857
vt -0.983248 0.953767
vt -0.980277 0.727193
vt -0.677456 0.727251
vt -0.677464 0.500026
vt -0.985558 0.499811
vt -0.677464 0.272751
vt -0.985558 0.272954
vt -0.677454 0.046097
vt -0.977510 0.046251
vt -0.371500 0.953849
vt -0.371501 0.727230
vt -0.371509 0.500017
vt -0.371509 0.272771
vt -0.371500 0.046124
vt -0.065545 0.953842
vt -0.065546 0.727209
vt -0.065554 0.500008
vt -0.065554 0.272792
vt -0.065545 0.046150
vt 0.240409 0.953834
vt 0.240409 0.727189
vt 0.240401 0.499999
vt 0.240401 0.272813
vt 0.240409 0.046176
vt 0.546364 0.953826
vt 0.546364 0.727168
vt 0.546356 0.499989
vt 0.546355 0.272834
vt 0.546364 0.046202
vt 0.852318 0.953818
vt 0.852318 0.727147
vt 0.852310 0.499980
vt 0.852310 0.272855
vt 0.852318 0.046228
vt 1.158273 0.953810
vt 1.158273 0.727126
vt 1.158265 0.499971
vt 1.158265 0.272876
vt 1.158273 0.046254
vt 1.464228 0.953802
vt 1.464228 0.727105
vt 1.464220 0.499962
vt 1.464220 0.272897
vt 1.464227 0.046281
vt 2.078269 0.499725
vt 1.770175 0.499953
vt 1.770175 0.272918
vt 2.078269 0.273156
vt 1.770182 0.046307
vt 2.070238 0.046509
vt 2.075976 0.953682
vt 1.770182 0.953794
vt 1.770183 0.727084
vt 2.073004 0.726991
vt -0.677454 0.953857
vt -0.983248 0.953767
vt -0.980277 0.727194
vt -0.677456 0.727251
vt -0.677464 0.500026
vt -0.985558 0.499811
vt -0.677464 0.272751
vt -0.985557 0.272954
vt -0.677454 0.046097
vt -0.977510 0.046250
vt -0.371500 0.953849
vt -0.371501 0.727230
vt -0.371509 0.500017
vt -0.371509 0.272771
vt -0.371500 0.046124
vt -0.065545 0.953842
vt -0.065546 0.727209
vt -0.065554 0.500008
vt -0.065554 0.272792
vt -0.065545 0.046150
vt 0.240409 0.953834
vt 0.240409 0.727189
vt 0.240401 0.499999
vt 0.240401 0.272813
vt 0.240409 0.046176
vt 0.546364 0.953826
vt 0.546364 0.727168
vt 0.546356 0.499989
vt 0.546355 0.272834
vt 0.546364 0.046202
vt 0.852318 0.953818
vt 0.852318 0.727147
vt 0.852310 0.499980
vt 0.852310 0.272855
vt 0.852318 0.046228
vt 1.158273 0.953810
vt 1.158273 0.727126
vt 1.158265 0.499971
vt 1.158265 0.272876
vt 1.158273 0.046254
vt 1.464228 0.953802
vt 1.464228 0.727105
vt 1.464220 0.499962
vt 1.464220 0.272897
vt 1.464227 0.046281
vt 1.011731 0.273156
vt 1.011731 0.499725
vt 0.825191 0.499962
vt 0.825191 0.272897
vt 0.825193 0.046281
vt 1.009292 0.046509
vt 1.010132 0.726991
vt 1.011035 0.953682
vt 0.825193 0.953802
vt 0.825193 0.727105
vt 0.082584 0.727193
vt 0.267522 0.727230
vt 0.267523 0.953849
vt 0.081681 0.953767
vt 0.080980 0.499811
vt 0.267520 0.500017
vt 0.080980 0.272954
vt 0.267520 0.272771
vt 0.083424 0.046251
vt 0.267523 0.046124
vt 0.453413 0.727189
vt 0.453413 0.953834
vt 0.453410 0.499999
vt 0.453410 0.272813
vt 0.453413 0.046176
vt 0.639303 0.727147
vt 0.639303 0.953818
vt 0.639301 0.499980
vt 0.639301 0.272855
vt 0.639303 0.046228
vt 1.011731 0.273156
vt 1.011731 0.499725
vt 0.825191 0.499962
vt 0.825191 0.272897
vt 0.825193 0.046281
vt 1.009292 0.046509
vt 1.010132 0.726991
vt 1.011035 0.953682
vt 0.825193 0.953802
vt 0.825193 0.727105
vt 0.082584 0.727194
vt 0.267522 0.727230
vt 0.267523 0.953849
vt 0.081681 0.953767
vt 0.080980 0.499811
vt 0.267520 0.500017
vt 0.080980 0.272954
vt 0.267520 0.272771
vt 0.083424 0.046250
vt 0.267523 0.046124
vt 0.453413 0.727189
vt 0.453413 0.953834
vt 0.453410 0.499999
vt 0.453410 0.272813
vt 0.453413 0.046176
vt 0.639303 0.727147
vt 0.639303 0.953818
vt 0.639301 0.499980
vt 0.639301 0.272855
vt 0.639303 0.046228
vt 1.011731 0.273156
vt 1.011731 0.499725
vt 0.825191 0.499962
vt 0.825191 0.272897
vt 0.825193 0.046281
vt 1.009292 0.046509
vt 1.010132 0.726991
vt 1.011035 0.953682
vt 0.825193 0.953802
vt 0.825193 0.727105
vt 0.082584 0.727193
vt 0.267522 0.727230
vt 0.267523 0.953849
vt 0.081681 0.953767
vt 0.080980 0.499811
vt 0.267520 0.500017
vt 0.080980 0.272954
vt 0.267520 0.272771
vt 0.083424 0.046251
vt 0.267523 0.046124
vt 0.453413 0.727189
vt 0.453413 0.953834
vt 0.453410 0.499999
vt 0.453410 0.272813
vt 0.453413 0.046176
vt 0.639303 0.727147
vt 0.639303 0.953818
vt 0.639301 0.499980
vt 0.639301 0.272855
vt 0.639303 0.046228
vt 1.011731 0.273156
vt 1.011731 0.499725
vt 0.825191 0.499962
vt 0.825191 0.272897
vt 0.825193 0.046281
vt 1.009292 0.046509
vt 1.010132 0.726991
vt 1.011035 0.953682
vt 0.825193 0.953802
vt 0.825193 0.727105
vt 0.082584 0.727194
vt 0.267522 0.727230
vt 0.267523 0.953849
vt 0.081681 0.953767
vt 0.080980 0.499811
vt 0.267520 0.500017
vt 0.080980 0.272954
vt 0.267520 0.272771
vt 0.083424 0.046250
vt 0.267523 0.046124
vt 0.453413 0.727189
vt 0.453413 0.953834
vt 0.453410 0.499999
vt 0.453410 0.272813
vt 0.453413 0.046176
vt 0.639303 0.727147
vt 0.639303 0.953818
vt 0.639301 0.499980
vt 0.639301 0.272855
vt 0.639303 0.046228
vt -0.075656 0.953849
vt -0.075657 0.727230
vt -0.075662 0.500017
vt -0.075662 0.272771
vt -0.075656 0.046124
vt 0.131683 0.953842
vt 0.131682 0.727209
vt 0.131677 0.500008
vt 0.131677 0.272792
vt 0.131683 0.046150
vt 0.342830 0.953420
vt 0.337474 0.692991
vt 0.346092 0.465795
vt 0.346092 0.306933
vt 0.332938 0.080637
vt 1.375713 0.499953
vt 1.375713 0.272918
vt 1.375717 0.046307
vt 1.375718 0.953794
vt 1.375718 0.727084
vt 0.753700 0.953818
vt 0.518768 0.953420
vt 0.522431 0.727110
vt 0.753700 0.727147
vt 0.753695 0.499980
vt 0.535838 0.502025
vt 0.753695 0.272855
vt 0.536313 0.270858
vt 0.753700 0.046228
vt 0.525807 0.046641
vt 1.584502 0.499725
vt 1.584501 0.273156
vt 1.579059 0.046509
vt 1.582948 0.953682
vt 1.580933 0.726991
vt 0.609493 0.953418
vt 0.615990 0.721151
vt 0.622835 0.487660
vt 0.622835 0.285140
vt 0.622320 0.052591
vt 0.961039 0.953810
vt 0.961039 0.727126
vt 0.961034 0.499971
vt 0.961034 0.272876
vt 0.961039 0.046254
vt -0.490225 0.953767
vt -0.488212 0.727194
vt -0.491791 0.499811
vt -0.491790 0.272954
vt -0.486337 0.046250
vt 0.131683 0.953842
vt 0.131682 0.727209
vt 0.131677 0.500008
vt 0.131677 0.272792
vt 0.131683 0.046150
vt 0.341601 0.953420
vt 0.336312 0.703670
vt 0.345024 0.476475
vt 0.345024 0.296280
vt 0.331827 0.070003
vt -0.179326 0.953853
vt -0.179326 0.046110
vt -0.179326 0.727241
vt -0.179332 0.500021
vt -0.179332 0.272761
vt 1.272048 0.953798
vt 1.272048 0.046294
vt 1.272048 0.727095
vt 1.272043 0.499957
vt 1.272043 0.272907
vt 1.064704 0.272886
vt 1.064709 0.953806
vt 1.064709 0.046267
vt 1.064709 0.727115
vt 1.064704 0.499966
vt -0.387396 0.272852
vt -0.386610 0.953812
vt -0.384666 0.046174
vt -0.385604 0.727222
vt -0.387396 0.499919
vn -0.994141 0.108092 0.000000
vn -0.998794 -0.049092 0.000000
vn -0.998794 -0.049092 0.000000
vn -0.994141 0.108092 0.000000
vn 0.000000 0.000000 1.000000
vn -0.000000 0.000000 1.000000
vn -0.000000 0.000000 1.000000
vn 0.000000 0.000000 1.000000
vn 0.994129 -0.108200 0.000000
vn 0.998797 0.049041 0.000000
vn 0.998797 0.049041 0.000000
vn 0.994129 -0.108200 0.000000
vn -0.000000 0.000000 -1.000000
vn 0.000000 0.000000 -1.000000
vn 0.000000 0.000000 -1.000000
vn -0.000000 0.000000 -1.000000
vn -0.840472 0.541854 0.000000
vn -0.915044 0.403354 0.000000
vn -0.915044 0.403354 0.000000
vn -0.840472 0.541854 0.000000
vn 0.000000 0.000000 -1.000000
vn 0.000000 0.000000 -1.000000
vn 0.000000 0.000000 -1.000000
vn 0.000000 0.000000 -1.000000
vn 0.840441 -0.541903 0.000000
vn 0.840441 -0.541903 0.000000
vn 0.914991 -0.403475 0.000000
vn 0.914991 -0.403475 0.000000
vn -0.000000 0.000000 1.000000
vn -0.000000 0.000000 1.000000
vn -0.000000 0.000000 1.000000
vn -0.000000 0.000000 1.000000
vn -0.631276 0.775558 0.000000
vn -0.631276 0.775558 0.000000
vn 0.000000 0.000000 -1.000000
vn 0.000000 0.000000 -1.000000
vn 0.631283 -0.775552 0.000000
vn 0.631283 -0.775552 0.000000
vn 0.000000 0.000000 1.000000
vn 0.000000 0.000000 1.000000
vn -0.359938 0.932976 0.000000
vn -0.359938 0.932976 0.000000
vn 0.000000 0.000000 -1.000000
vn 0.000000 0.000000 -1.000000
vn 0.359938 -0.932976 0.000000
vn 0.359938 -0.932976 0.000000
vn -0.000000 0.000000 1.000000
vn -0.000000 0.000000 1.000000
vn -0.053176 0.998585 0.000000
vn -0.053176 0.998585 0.000000
vn -0.000000 0.000000 -1.000000
vn -0.000000 0.000000 -1.000000
vn 0.053172 -0.998585 0.000000
vn 0.053172 -0.998585 0.000000
vn 0.000000 0.000000 1.000000
vn 0.000000 0.000000 1.000000
vn 0.258826 0.965924 0.000000
vn 0.258826 0.965924 0.000000
vn 0.000000 -0.000000 -1.000000
vn 0.000000 -0.000000 -1.000000
vn -0.258815 -0.965927 0.000000
vn -0.258815 -0.965927 0.000000
vn -0.000000 0.000000 1.000000
vn -0.000000 0.000000 1.000000
vn 0.545352 0.838207 0.000000
vn 0.545352 0.838207 0.000000
vn 0.000000 -0.000000 -1.000000
vn 0.000000 -0.000000 -1.000000
vn -0.545333 -0.838220 0.000000
vn -0.545333 -0.838220 0.000000
vn -0.000000 0.000000 1.000000
vn -0.000000 0.000000 1.000000
vn 0.778199 0.628017 0.000000
vn 0.778199 0.628017 0.000000
vn -0.000000 0.000000 -1.000000
vn -0.000000 0.000000 -1.000000
vn -0.778209 -0.628006 0.000000
vn -0.778209 -0.628006 0.000000
vn 0.000000 0.000000 1.000000
vn 0.000000 0.000000 1.000000
vn 0.934472 0.356037 0.000000
vn 0.934472 0.356037 0.000000
vn 0.000000 0.000000 -1.000000
vn 0.000000 0.000000 -1.000000
vn -0.934482 -0.356010 0.000000
vn -0.934482 -0.356010 0.000000
vn -0.000000 0.000000 1.000000
vn -0.000000 0.000000 1.000000
vn 0.994141 -0.108091 0.000000
vn 0.998794 0.049092 0.000000
vn 0.998794 0.049092 0.000000
vn 0.994141 -0.108091 0.000000
vn -0.000000 -0.000000 1.000000
vn -0.000000 -0.000000 1.000000
vn -0.000000 -0.000000 1.000000
vn -0.000000 -0.000000 1.000000
vn -0.994126 0.108225 0.000000
vn -0.998797 -0.049028 0.000000
vn -0.998797 -0.049028 0.000000
vn -0.994126 0.108225 0.000000
vn -0.000000 0.000000 -1.000000
vn 0.000000 0.000000 -1.000000
vn 0.000000 0.000000 -1.000000
vn -0.000000 0.000000 -1.000000
vn 0.840466 -0.541864 0.000000
vn 0.915035 -0.403373 0.000000
vn 0.915035 -0.403373 0.000000
vn 0.840466 -0.541864 0.000000
vn 0.000000 0.000000 -1.000000
vn 0.000000 0.000000 -1.000000
vn 0.000000 0.000000 -1.000000
vn 0.000000 0.000000 -1.000000
vn -0.840445 0.541897 0.000000
vn -0.840445 0.541897 0.000000
vn -0.914982 0.403494 0.000000
vn -0.914982 0.403494 0.000000
vn -0.000000 -0.000000 1.000000
vn -0.000000 -0.000000 1.000000
vn 0.000000 0.000000 1.000000
vn 0.000000 0.000000 1.000000
vn 0.631269 -0.775564 0.000000
vn 0.631269 -0.775564 0.000000
vn 0.000000 0.000000 -1.000000
vn 0.000000 0.000000 -1.000000
vn -0.631286 0.775550 0.000000
vn -0.631286 0.775550 0.000000
vn -0.000000 -0.000000 1.000000
vn -0.000000 -0.000000 1.000000
vn 0.359935 -0.932977 0.000000
vn 0.359935 -0.932977 0.000000
vn 0.000000 0.000000 -1.000000
vn 0.000000 0.000000 -1.000000
vn -0.359927 0.932981 0.000000
vn -0.359927 0.932981 0.000000
vn 0.000000 0.000000 1.000000
vn 0.000000 0.000000 1.000000
vn 0.053179 -0.998585 0.000000
vn 0.053179 -0.998585 0.000000
vn -0.000000 0.000000 -1.000000
vn -0.000000 0.000000 -1.000000
vn -0.053180 0.998585 0.000000
vn -0.053180 0.998585 0.000000
vn 0.000000 0.000000 1.000000
vn 0.000000 0.000000 1.000000
vn -0.258817 -0.965926 0.000000
vn -0.258817 -0.965926 0.000000
vn -0.000000 0.000000 -1.000000
vn -0.000000 0.000000 -1.000000
vn 0.258820 0.965926 0.000000
vn 0.258820 0.965926 0.000000
vn -0.000000 0.000000 1.000000
vn -0.000000 0.000000 1.000000
vn -0.545343 -0.838213 0.000000
vn -0.545343 -0.838213 0.000000
vn -0.000000 0.000000 -1.000000
vn -0.000000 0.000000 -1.000000
vn 0.545350 0.838209 0.000000
vn 0.545350 0.838209 0.000000
vn 0.000000 0.000000 1.000000
vn 0.000000 0.000000 1.000000
vn -0.778207 -0.628008 0.000000
vn -0.778207 -0.628008 0.000000
vn 0.000000 -0.000000 -1.000000
vn 0.000000 -0.000000 -1.000000
vn 0.778208 0.628007 0.000000
vn 0.778208 0.628007 0.000000
vn 0.000000 0.000000 1.000000
vn 0.000000 0.000000 1.000000
vn -0.934476 -0.356025 0.000000
vn -0.934476 -0.356025 0.000000
vn 0.000000 -0.000000 -1.000000
vn 0.000000 -0.000000 -1.000000
vn 0.934478 0.356020 0.000000
vn 0.934478 0.356020 0.000000
vn 0.000000 0.000000 1.000000
vn 0.000000 0.000000 1.000000
vn -0.998787 -0.049242 0.000000
vn -0.998787 -0.049242 0.000000
vn -0.934447 -0.356102 0.000000
vn -0.934447 -0.356102 0.000000
vn -0.000000 0.000000 1.000000
vn -0.000000 0.000000 1.000000
vn -0.000000 0.000000 1.000000
vn -0.000000 0.000000 1.000000
vn 0.998792 0.049129 0.000000
vn 0.998792 0.049129 0.000000
vn 0.934464 0.356057 0.000000
vn 0.934464 0.356057 0.000000
vn 0.000000 0.000000 -1.000000
vn 0.000000 0.000000 -1.000000
vn -0.000000 0.000000 -1.000000
vn -0.000000 0.000000 -1.000000
vn -0.840426 0.541926 0.000000
vn -0.631249 0.775580 0.000000
vn -0.631249 0.775580 0.000000
vn -0.840426 0.541926 0.000000
vn -0.000000 0.000000 -1.000000
vn -0.000000 0.000000 -1.000000
vn -0.000000 0.000000 -1.000000
vn -0.000000 0.000000 -1.000000
vn 0.840363 -0.542024 0.000000
vn 0.631197 -0.775623 0.000000
vn 0.631197 -0.775623 0.000000
vn 0.840363 -0.542024 0.000000
vn 0.000000 0.000000 1.000000
vn 0.000000 0.000000 1.000000
vn 0.000000 0.000000 1.000000
vn 0.000000 0.000000 1.000000
vn -0.053224 0.998583 0.000000
vn -0.053224 0.998583 0.000000
vn 0.000000 -0.000000 -1.000000
vn 0.000000 -0.000000 -1.000000
vn 0.053214 -0.998583 0.000000
vn 0.053214 -0.998583 0.000000
vn 0.000000 0.000000 1.000000
vn 0.000000 0.000000 1.000000
vn 0.545349 0.838209 0.000000
vn 0.545349 0.838209 0.000000
vn 0.000000 0.000000 -1.000000
vn 0.000000 0.000000 -1.000000
vn -0.545358 -0.838203 0.000000
vn -0.545358 -0.838203 0.000000
vn -0.000000 0.000000 1.000000
vn -0.000000 0.000000 1.000000
vn 0.998787 0.049235 0.000000
vn 0.998787 0.049235 0.000000
vn 0.934429 0.356149 0.000000
vn 0.934429 0.356149 0.000000
vn 0.000000 -0.000000 1.000000
vn 0.000000 -0.000000 1.000000
vn 0.000000 -0.000000 1.000000
vn 0.000000 -0.000000 1.000000
vn -0.998797 -0.049026 0.000000
vn -0.998797 -0.049026 0.000000
vn -0.934483 -0.356009 0.000000
vn -0.934483 -0.356009 0.000000
vn -0.000000 0.000000 -1.000000
vn -0.000000 0.000000 -1.000000
vn 0.000000 -0.000000 -1.000000
vn 0.000000 -0.000000 -1.000000
vn 0.840430 -0.541920 0.000000
vn 0.631228 -0.775597 0.000000
vn 0.631228 -0.775597 0.000000
vn 0.840430 -0.541920 0.000000
vn 0.000000 0.000000 -1.000000
vn 0.000000 0.000000 -1.000000
vn 0.000000 0.000000 -1.000000
vn 0.000000 0.000000 -1.000000
vn -0.840332 0.542073 0.000000
vn -0.631174 0.775641 0.000000
vn -0.631174 0.775641 0.000000
vn -0.840332 0.542073 0.000000
vn -0.000000 -0.000000 1.000000
vn -0.000000 -0.000000 1.000000
vn -0.000000 -0.000000 1.000000
vn -0.000000 -0.000000 1.000000
vn 0.053174 -0.998585 0.000000
vn 0.053174 -0.998585 0.000000
vn -0.000000 0.000000 -1.000000
vn -0.000000 0.000000 -1.000000
vn -0.053187 0.998585 0.000000
vn -0.053187 0.998585 0.000000
vn 0.000000 0.000000 1.000000
vn 0.000000 0.000000 1.000000
vn -0.545366 -0.838198 0.000000
vn -0.545366 -0.838198 0.000000
vn -0.000000 -0.000000 -1.000000
vn -0.000000 -0.000000 -1.000000
vn 0.545335 0.838218 0.000000
vn 0.545335 0.838218 0.000000
vn 0.000000 0.000000 1.000000
vn 0.000000 0.000000 1.000000
vn -0.998794 -0.049102 0.000000
vn -0.998794 -0.049102 0.000000
vn -0.934454 -0.356085 0.000000
vn -0.934454 -0.356085 0.000000
vn -0.000000 0.000000 1.000000
vn -0.000000 0.000000 1.000000
vn -0.000000 0.000000 1.000000
vn -0.000000 0.000000 1.000000
vn 0.998792 0.049129 0.000000
vn 0.998792 0.049129 0.000000
vn 0.934464 0.356057 0.000000
vn 0.934464 0.356057 0.000000
vn 0.000000 0.000000 -1.000000
vn 0.000000 0.000000 -1.000000
vn -0.000000 0.000000 -1.000000
vn -0.000000 0.000000 -1.000000
vn -0.840426 0.541926 0.000000
vn -0.631221 0.775604 0.000000
vn -0.631221 0.775604 0.000000
vn -0.840426 0.541926 0.000000
vn -0.000000 0.000000 -1.000000
vn -0.000000 0.000000 -1.000000
vn -0.000000 0.000000 -1.000000
vn -0.000000 0.000000 -1.000000
vn 0.840332 -0.542073 0.000000
vn 0.631171 -0.775644 0.000000
vn 0.631171 -0.775644 0.000000
vn 0.840332 -0.542073 0.000000
vn 0.000000 0.000000 1.000000
vn 0.000000 0.000000 1.000000
vn 0.000000 0.000000 1.000000
vn 0.000000 0.000000 1.000000
vn -0.053175 0.998585 0.000000
vn -0.053175 0.998585 0.000000
vn 0.000000 -0.000000 -1.000000
vn 0.000000 -0.000000 -1.000000
vn 0.053196 -0.998584 0.000000
vn 0.053196 -0.998584 0.000000
vn 0.000000 0.000000 1.000000
vn 0.000000 0.000000 1.000000
vn 0.545360 0.838202 0.000000
vn 0.545360 0.838202 0.000000
vn 0.000000 0.000000 -1.000000
vn 0.000000 0.000000 -1.000000
vn -0.545326 -0.838224 0.000000
vn -0.545326 -0.838224 0.000000
vn -0.000000 0.000000 1.000000
vn -0.000000 0.000000 1.000000
vn 0.998787 0.049235 0.000000
vn 0.998787 0.049235 0.000000
vn 0.934440 0.356122 0.000000
vn 0.934440 0.356122 0.000000
vn 0.000000 -0.000000 1.000000
vn 0.000000 -0.000000 1.000000
vn 0.000000 -0.000000 1.000000
vn 0.000000 -0.000000 1.000000
vn -0.998787 -0.049229 0.000000
vn -0.998787 -0.049229 0.000000
vn -0.934460 -0.356067 0.000000
vn -0.934460 -0.356067 0.000000
vn -0.000000 0.000000 -1.000000
vn -0.000000 0.000000 -1.000000
vn 0.000000 -0.000000 -1.000000
vn 0.000000 -0.000000 -1.000000
vn 0.840476 -0.541848 0.000000
vn 0.631247 -0.775582 0.000000
vn 0.631247 -0.775582 0.000000
vn 0.840476 -0.541848 0.000000
vn 0.000000 0.000000 -1.000000
vn 0.000000 0.000000 -1.000000
vn 0.000000 0.000000 -1.000000
vn 0.000000 0.000000 -1.000000
vn -0.840424 0.541929 0.000000
vn -0.631231 0.775595 0.000000
vn -0.631231 0.775595 0.000000
vn -0.840424 0.541929 0.000000
vn -0.000000 -0.000000 1.000000
vn -0.000000 -0.000000 1.000000
vn -0.000000 -0.000000 1.000000
vn -0.000000 -0.000000 1.000000
vn 0.053156 -0.998586 0.000000
vn 0.053156 -0.998586 0.000000
vn -0.000000 0.000000 -1.000000
vn -0.000000 0.000000 -1.000000
vn -0.053197 0.998584 0.000000
vn -0.053197 0.998584 0.000000
vn 0.000000 0.000000 1.000000
vn 0.000000 0.000000 1.000000
vn -0.545399 -0.838177 0.000000
vn -0.545399 -0.838177 0.000000
vn -0.000000 -0.000000 -1.000000
vn -0.000000 -0.000000 -1.000000
vn 0.545341 0.838214 0.000000
vn 0.545341 0.838214 0.000000
vn 0.000000 0.000000 1.000000
vn 0.000000 0.000000 1.000000
vn -0.913930 0.405871 0.000000
vn -0.670966 0.741488 0.000000
vn -0.670966 0.741488 0.000000
vn -0.913930 0.405871 0.000000
vn -0.000000 0.000000 -1.000000
vn -0.000000 0.000000 -1.000000
vn -0.000000 0.000000 -1.000000
vn -0.000000 0.000000 -1.000000
vn 0.913917 -0.405902 0.000000
vn 0.670909 -0.741540 0.000000
vn 0.670909 -0.741540 0.000000
vn 0.913917 -0.405902 0.000000
vn 0.000000 -0.000000 1.000000
vn 0.000000 0.000000 1.000000
vn 0.000000 0.000000 1.000000
vn 0.000000 -0.000000 1.000000
vn -0.400167 0.916442 0.000000
vn -0.400167 0.916442 0.000000
vn -0.000000 0.000000 -1.000000
vn -0.000000 0.000000 -1.000000
vn 0.394023 -0.919101 0.000000
vn 0.394023 -0.919101 0.000000
vn -0.000000 0.000000 1.000000
vn -0.000000 0.000000 1.000000
vn -0.293317 0.956015 0.000000
vn -0.293317 0.956015 0.000000
vn 0.000000 0.000000 -1.000000
vn 0.000000 0.000000 -1.000000
vn 0.280455 -0.959867 0.000000
vn 0.280455 -0.959867 0.000000
vn -0.000000 0.000000 1.000000
vn -0.000000 0.000000 1.000000
vn -0.587535 -0.809199 0.000000
vn -0.405099 -0.914273 0.000000
vn -0.405099 -0.914273 0.000000
vn -0.587535 -0.809199 0.000000
vn -0.000000 -0.000000 -1.000000
vn -0.000000 -0.000000 -1.000000
vn -0.000000 0.000000 -1.000000
vn -0.000000 0.000000 -1.000000
vn 0.586125 0.810221 0.000000
vn 0.586125 0.810221 0.000000
vn 0.401923 0.915674 0.000000
vn 0.401923 0.915674 0.000000
vn 0.000000 0.000000 1.000000
vn 0.000000 0.000000 1.000000
vn 0.000000 0.000000 1.000000
vn 0.000000 0.000000 1.000000
vn -0.867083 -0.498164 0.000000
vn -0.998733 -0.050334 0.000000
vn -0.998733 -0.050334 0.000000
vn -0.867083 -0.498164 0.000000
vn 0.000000 -0.000000 -1.000000
vn -0.000000 0.000000 -1.000000
vn -0.000000 0.000000 -1.000000
vn 0.000000 -0.000000 -1.000000
vn 0.867078 0.498173 0.000000
vn 0.998729 0.050400 0.000000
vn 0.998729 0.050400 0.000000
vn 0.867078 0.498173 0.000000
vn 0.000000 0.000000 1.000000
vn -0.000000 -0.000000 1.000000
vn -0.000000 -0.000000 1.000000
vn 0.000000 0.000000 1.000000
vn -0.999993 0.003673 0.000000
vn -0.999993 0.003673 0.000000
vn -0.978734 -0.205136 0.000000
vn -0.978734 -0.205136 0.000000
vn -0.000000 0.000000 1.000000
vn 0.000000 0.000000 1.000000
vn 0.000000 0.000000 1.000000
vn -0.000000 0.000000 1.000000
vn 0.999993 -0.003720 0.000000
vn 0.999993 -0.003720 0.000000
vn 0.978744 0.205085 0.000000
vn 0.978744 0.205085 0.000000
vn 0.000000 0.000000 -1.000000
vn 0.000000 0.000000 -1.000000
vn -0.000000 0.000000 -1.000000
vn -0.000000 0.000000 -1.000000
vn 0.570859 0.821048 0.000000
vn 0.771225 0.636563 0.000000
vn 0.771225 0.636563 0.000000
vn 0.570859 0.821048 0.000000
vn 0.000000 -0.000000 -1.000000
vn 0.000000 0.000000 -1.000000
vn 0.000000 0.000000 -1.000000
vn 0.000000 -0.000000 -1.000000
vn -0.577068 -0.816696 0.000000
vn -0.773615 -0.633656 0.000000
vn -0.773615 -0.633656 0.000000
vn -0.577068 -0.816696 0.000000
vn -0.000000 0.000000 1.000000
vn -0.000000 0.000000 1.000000
vn -0.000000 0.000000 1.000000
vn -0.000000 0.000000 1.000000
vn 0.745068 -0.666989 0.000000
vn 0.435541 -0.900169 0.000000
vn 0.435541 -0.900169 0.000000
vn 0.745068 -0.666989 0.000000
vn -0.000000 0.000000 -1.000000
vn 0.000000 0.000000 -1.000000
vn 0.000000 0.000000 -1.000000
vn -0.000000 0.000000 -1.000000
vn -0.745039 0.667021 0.000000
vn -0.431333 0.902193 0.000000
vn -0.431333 0.902193 0.000000
vn -0.745039 0.667021 0.000000
vn -0.000000 -0.000000 1.000000
vn -0.000000 -0.000000 1.000000
vn -0.000000 -0.000000 1.000000
vn -0.000000 -0.000000 1.000000
vn 0.267669 -0.963511 0.000000
vn 0.267669 -0.963511 0.000000
vn 0.000000 0.000000 -1.000000
vn 0.000000 0.000000 -1.000000
vn -0.258617 0.965980 0.000000
vn -0.258617 0.965980 0.000000
vn 0.000000 0.000000 1.000000
vn 0.000000 0.000000 1.000000
vn 0.867904 -0.496732 0.000000
vn 0.867904 -0.496732 0.000000
vn -0.000000 0.000000 -1.000000
vn -0.000000 0.000000 -1.000000
vn -0.867840 0.496843 0.000000
vn -0.867840 0.496843 0.000000
vn -0.000000 -0.000000 1.000000
vn -0.000000 -0.000000 1.000000
s 1
g polySurface6876
f 1/1/1 43/2/2 44/3/3 3/4/4
s 2
f 3/4/5 44/3/6 41/5/7 5/6/8
s 3
f 5/7/9 41/8/10 42/9/11 7/10/12
s 4
f 7/10/13 42/9/14 43/2/15 1/1/16
s 3
f 9/11/17 6/12/18 8/13/19 10/14/20
s 4
f 11/15/21 10/14/22 8/13/23 2/16/24
s 1
f 12/17/25 11/15/26 2/16/27 4/18/28
s 2
f 9/19/29 12/17/30 4/18/31 6/20/32
s 3
f 13/21/33 9/11/17 10/14/20 14/22/34
s 4
f 15/23/35 14/22/36 10/14/22 11/15/21
s 1
f 16/24/37 15/23/38 11/15/26 12/17/25
s 2
f 13/25/39 16/24/40 12/17/30 9/19/29
s 3
f 17/26/41 13/21/33 14/22/34 18/27/42
s 4
f 19/28/43 18/27/44 14/22/36 15/23/35
s 1
f 20/29/45 19/28/46 15/23/38 16/24/37
s 2
f 17/30/47 20/29/48 16/24/40 13/25/39
s 3
f 21/31/49 17/26/41 18/27/42 22/32/50
s 4
f 23/33/51 22/32/52 18/27/44 19/28/43
s 1
f 24/34/53 23/33/54 19/28/46 20/29/45
s 2
f 21/35/55 24/34/56 20/29/48 17/30/47
s 3
f 25/36/57 21/31/49 22/32/50 26/37/58
s 4
f 27/38/59 26/37/60 22/32/52 23/33/51
s 1
f 28/39/61 27/38/62 23/33/54 24/34/53
s 2
f 25/40/63 28/39/64 24/34/56 21/35/55
s 3
f 29/41/65 25/36/57 26/37/58 30/42/66
s 4
f 31/43/67 30/42/68 26/37/60 27/38/59
s 1
f 32/44/69 31/43/70 27/38/62 28/39/61
s 2
f 29/45/71 32/44/72 28/39/64 25/40/63
s 3
f 33/46/73 29/41/65 30/42/66 34/47/74
s 4
f 35/48/75 34/47/76 30/42/68 31/43/67
s 1
f 36/49/77 35/48/78 31/43/70 32/44/69
s 2
f 33/50/79 36/49/80 32/44/72 29/45/71
s 3
f 37/51/81 33/46/73 34/47/74 38/52/82
s 4
f 39/53/83 38/52/84 34/47/76 35/48/75
s 1
f 40/54/85 39/53/86 35/48/78 36/49/77
s 2
f 37/55/87 40/54/88 36/49/80 33/50/79
s 3
f 41/8/10 37/51/81 38/52/82 42/9/11
s 4
f 43/2/15 42/9/14 38/52/84 39/53/83
s 1
f 44/3/3 43/2/2 39/53/86 40/54/85
s 2
f 41/5/7 44/3/6 40/54/88 37/55/87
s 5
f 2/56/89 79/57/90 80/58/91 4/59/92
s 6
f 4/59/93 80/58/94 77/60/95 6/61/96
s 7
f 6/62/97 77/63/98 78/64/99 8/65/100
s 8
f 8/65/101 78/64/102 79/57/103 2/56/104
s 7
f 45/66/105 5/67/106 7/68/107 46/69/108
s 8
f 47/70/109 46/69/110 7/68/111 1/71/112
s 5
f 48/72/113 47/70/114 1/71/115 3/73/116
s 6
f 45/74/117 48/72/118 3/73/119 5/75/120
s 7
f 49/76/121 45/66/105 46/69/108 50/77/122
s 8
f 51/78/123 50/77/124 46/69/110 47/70/109
s 5
f 52/79/125 51/78/126 47/70/114 48/72/113
s 6
f 49/80/127 52/79/128 48/72/118 45/74/117
s 7
f 53/81/129 49/76/121 50/77/122 54/82/130
s 8
f 55/83/131 54/82/132 50/77/124 51/78/123
s 5
f 56/84/133 55/83/134 51/78/126 52/79/125
s 6
f 53/85/135 56/84/136 52/79/128 49/80/127
s 7
f 57/86/137 53/81/129 54/82/130 58/87/138
s 8
f 59/88/139 58/87/140 54/82/132 55/83/131
s 5
f 60/89/141 59/88/142 55/83/134 56/84/133
s 6
f 57/90/143 60/89/144 56/84/136 53/85/135
s 7
f 61/91/145 57/86/137 58/87/138 62/92/146
s 8
f 63/93/147 62/92/148 58/87/140 59/88/139
s 5
f 64/94/149 63/93/150 59/88/142 60/89/141
s 6
f 61/95/151 64/94/152 60/89/144 57/90/143
s 7
f 65/96/153 61/91/145 62/92/146 66/97/154
s 8
f 67/98/155 66/97/156 62/92/148 63/93/147
s 5
f 68/99/157 67/98/158 63/93/150 64/94/149
s 6
f 65/100/159 68/99/160 64/94/152 61/95/151
s 7
f 69/101/161 65/96/153 66/97/154 70/102/162
s 8
f 71/103/163 70/102/164 66/97/156 67/98/155
s 5
f 72/104/165 71/103/166 67/98/158 68/99/157
s 6
f 69/105/167 72/104/168 68/99/160 65/100/159
s 7
f 73/106/169 69/101/161 70/102/162 74/107/170
s 8
f 75/108/171 74/107/172 70/102/164 71/103/163
s 5
f 76/109/173 75/108/174 71/103/166 72/104/165
s 6
f 73/110/175 76/109/176 72/104/168 69/105/167
s 7
f 77/63/98 73/106/169 74/107/170 78/64/99
s 8
f 79/57/103 78/64/102 74/107/172 75/108/171
s 5
f 80/58/91 79/57/90 75/108/174 76/109/173
s 6
f 77/60/95 80/58/94 76/109/176 73/110/175
s 9
f 83/111/177 81/112/178 103/113/179 104/114/180
s 10
f 101/115/181 85/116/182 83/111/183 104/114/184
s 11
f 87/117/185 85/118/186 101/119/187 102/120/188
s 12
f 81/112/189 87/117/190 102/120/191 103/113/192
s 11
f 88/121/193 90/122/194 89/123/195 86/124/196
s 12
f 82/125/197 91/126/198 90/122/199 88/121/200
s 9
f 84/127/201 92/128/202 91/126/203 82/125/204
s 10
f 86/129/205 89/130/206 92/128/207 84/127/208
s 11
f 90/122/194 94/131/209 93/132/210 89/123/195
s 12
f 91/126/198 95/133/211 94/131/212 90/122/199
s 9
f 92/128/202 96/134/213 95/133/214 91/126/203
s 10
f 89/130/206 93/135/215 96/134/216 92/128/207
s 11
f 94/131/209 98/136/217 97/137/218 93/132/210
s 12
f 95/133/211 99/138/219 98/136/220 94/131/212
s 9
f 96/134/213 100/139/221 99/138/222 95/133/214
s 10
f 93/135/215 97/140/223 100/139/224 96/134/216
s 11
f 98/136/217 102/120/188 101/119/187 97/137/218
s 12
f 99/138/219 103/113/192 102/120/191 98/136/220
s 9
f 100/139/221 104/114/180 103/113/179 99/138/222
s 10
f 97/140/223 101/115/181 104/114/184 100/139/224
s 13
f 84/141/225 82/142/226 119/143/227 120/144/228
s 14
f 117/145/229 86/146/230 84/141/231 120/144/232
s 15
f 88/147/233 86/148/234 117/149/235 118/150/236
s 16
f 82/142/237 88/147/238 118/150/239 119/143/240
s 15
f 87/151/241 106/152/242 105/153/243 85/154/244
s 16
f 81/155/245 107/156/246 106/152/247 87/151/248
s 13
f 83/157/249 108/158/250 107/156/251 81/155/252
s 14
f 85/159/253 105/160/254 108/158/255 83/157/256
s 15
f 106/152/242 110/161/257 109/162/258 105/153/243
s 16
f 107/156/246 111/163/259 110/161/260 106/152/247
s 13
f 108/158/250 112/164/261 111/163/262 107/156/251
s 14
f 105/160/254 109/165/263 112/164/264 108/158/255
s 15
f 110/161/257 114/166/265 113/167/266 109/162/258
s 16
f 111/163/259 115/168/267 114/166/268 110/161/260
s 13
f 112/164/261 116/169/269 115/168/270 111/163/262
s 14
f 109/165/263 113/170/271 116/169/272 112/164/264
s 15
f 114/166/265 118/150/236 117/149/235 113/167/266
s 16
f 115/168/267 119/143/240 118/150/239 114/166/268
s 13
f 116/169/269 120/144/228 119/143/227 115/168/270
s 14
f 113/170/271 117/145/229 120/144/232 116/169/272
s 17
f 123/171/273 121/172/274 143/173/275 144/174/276
s 18
f 141/175/277 125/176/278 123/171/279 144/174/280
s 19
f 127/177/281 125/178/282 141/179/283 142/180/284
s 20
f 121/172/285 127/177/286 142/180/287 143/173/288
s 19
f 128/181/289 130/182/290 129/183/291 126/184/292
s 20
f 122/185/293 131/186/294 130/182/295 128/181/296
s 17
f 124/187/297 132/188/298 131/186/299 122/185/300
s 18
f 126/189/301 129/190/302 132/188/303 124/187/304
s 19
f 130/182/290 134/191/305 133/192/306 129/183/291
s 20
f 131/186/294 135/193/307 134/191/308 130/182/295
s 17
f 132/188/298 136/194/309 135/193/310 131/186/299
s 18
f 129/190/302 133/195/311 136/194/312 132/188/303
s 19
f 134/191/305 138/196/313 137/197/314 133/192/306
s 20
f 135/193/307 139/198/315 138/196/316 134/191/308
s 17
f 136/194/309 140/199/317 139/198/318 135/193/310
s 18
f 133/195/311 137/200/319 140/199/320 136/194/312
s 19
f 138/196/313 142/180/284 141/179/283 137/197/314
s 20
f 139/198/315 143/173/288 142/180/287 138/196/316
s 17
f 140/199/317 144/174/276 143/173/275 139/198/318
s 18
f 137/200/319 141/175/277 144/174/280 140/199/320
s 21
f 124/201/321 122/202/322 159/203/323 160/204/324
s 22
f 157/205/325 126/206/326 124/201/327 160/204/328
s 23
f 128/207/329 126/208/330 157/209/331 158/210/332
s 24
f 122/202/333 128/207/334 158/210/335 159/203/336
s 23
f 127/211/337 146/212/338 145/213/339 125/214/340
s 24
f 121/215/341 147/216/342 146/212/343 127/211/344
s 21
f 123/217/345 148/218/346 147/216/347 121/215/348
s 22
f 125/219/349 145/220/350 148/218/351 123/217/352
s 23
f 146/212/338 150/221/353 149/222/354 145/213/339
s 24
f 147/216/342 151/223/355 150/221/356 146/212/343
s 21
f 148/218/346 152/224/357 151/223/358 147/216/347
s 22
f 145/220/350 149/225/359 152/224/360 148/218/351
s 23
f 150/221/353 154/226/361 153/227/362 149/222/354
s 24
f 151/223/355 155/228/363 154/226/364 150/221/356
s 21
f 152/224/357 156/229/365 155/228/366 151/223/358
s 22
f 149/225/359 153/230/367 156/229/368 152/224/360
s 23
f 154/226/361 158/210/332 157/209/331 153/227/362
s 24
f 155/228/363 159/203/336 158/210/335 154/226/364
s 21
f 156/229/365 160/204/324 159/203/323 155/228/366
s 22
f 153/230/367 157/205/325 160/204/328 156/229/368
s 25
f 215/309/369 162/232/370 161/231/371 214/307/372
s 26
f 216/310/373 163/233/374 162/232/375 215/309/376
s 27
f 213/306/377 164/234/378 163/233/379 216/310/380
s 28
f 214/308/381 161/235/382 164/234/383 213/306/384
s 25
f 165/236/385 161/231/371 162/232/370 166/237/386
s 26
f 167/238/387 166/237/388 162/232/375 163/233/374
s 27
f 168/239/389 167/238/390 163/233/379 164/234/378
s 28
f 165/240/391 168/239/392 164/234/383 161/235/382
s 25
f 169/241/393 165/236/385 166/237/386 170/242/394
s 26
f 171/243/395 170/242/396 166/237/388 167/238/387
s 27
f 172/244/397 171/243/398 167/238/390 168/239/389
s 28
f 169/245/399 172/244/400 168/239/392 165/240/391
s 25
f 173/251/401 181/252/402 182/253/403 174/254/404
s 26
f 175/255/405 174/254/406 182/253/407 183/256/408
s 27
f 176/257/409 175/255/410 183/256/411 184/258/412
s 28
f 173/259/413 176/257/414 184/258/415 181/260/416
s 25
f 211/304/417 178/250/418 177/249/419 210/302/420
s 26
f 212/305/421 179/246/422 178/250/423 211/304/424
s 27
f 209/301/425 180/247/426 179/246/427 212/305/428
s 28
f 210/303/429 177/248/430 180/247/431 209/301/432
s 29
f 186/262/433 185/261/434 207/299/435 208/300/436
s 30
f 205/297/437 187/263/438 186/262/439 208/300/440
s 31
f 188/265/441 187/264/442 205/296/443 206/298/444
s 32
f 185/261/445 188/265/446 206/298/447 207/299/448
s 31
f 183/267/449 190/272/450 189/271/451 184/266/452
s 32
f 182/268/453 191/273/454 190/272/455 183/267/456
s 29
f 181/269/457 192/274/458 191/273/459 182/268/460
s 30
f 184/270/461 189/275/462 192/274/463 181/269/464
s 33
f 202/293/465 194/282/466 193/281/467 201/291/468
s 34
f 203/294/469 195/283/470 194/282/471 202/293/472
s 35
f 204/295/473 196/284/474 195/283/475 203/294/476
s 36
f 201/292/477 193/285/478 196/284/479 204/295/480
s 33
f 197/286/481 193/281/467 194/282/466 198/287/482
s 34
f 199/288/483 198/287/484 194/282/471 195/283/470
s 35
f 200/289/485 199/288/486 195/283/475 196/284/474
s 36
f 197/290/487 200/289/488 196/284/479 193/285/478
s 33
f 188/277/489 202/293/465 201/291/468 187/276/490
s 34
f 185/278/491 203/294/469 202/293/472 188/277/492
s 35
f 186/279/493 204/295/473 203/294/476 185/278/494
s 36
f 187/280/495 201/292/477 204/295/480 186/279/496
s 31
f 190/272/450 206/298/444 205/296/443 189/271/451
s 32
f 191/273/454 207/299/448 206/298/447 190/272/455
s 29
f 192/274/458 208/300/436 207/299/435 191/273/459
s 30
f 189/275/462 205/297/437 208/300/440 192/274/463
s 28
f 173/259/413 210/303/429 209/301/432 176/257/414
s 25
f 174/254/404 211/304/417 210/302/420 173/251/401
s 26
f 175/255/405 212/305/421 211/304/424 174/254/406
s 27
f 176/257/409 209/301/425 212/305/428 175/255/410
s 28
f 177/248/430 214/308/381 213/306/384 180/247/431
s 25
f 178/250/418 215/309/369 214/307/372 177/249/419
s 26
f 179/246/422 216/310/373 215/309/376 178/250/423
s 27
f 180/247/426 213/306/377 216/310/380 179/246/427
