# This file uses centimeters as units for non-parametric coordinates.

g default
v -34.047321 0.013565 -0.021162
v -34.047318 1.173466 -0.021162
v -34.047321 0.013565 0.018937
v -34.047318 1.173466 0.018937
v -34.087414 0.013565 0.018937
v -34.087414 1.173466 0.018937
v -34.087414 0.013565 -0.021162
v -34.087414 1.173466 -0.021162
v -34.327415 0.813465 -0.018080
v -33.807316 0.813465 -0.018080
v -34.327415 0.813466 0.022019
v -33.807316 0.813466 0.022019
v -34.327415 0.853565 0.022019
v -33.807316 0.853565 0.022019
v -34.327415 0.853565 -0.018080
v -33.807316 0.853565 -0.018080
v -34.327419 0.333466 -0.018080
v -33.807316 0.333466 -0.018080
v -34.327419 0.333466 0.022019
v -33.807316 0.333466 0.022019
v -34.327419 0.373565 0.022019
v -33.807316 0.373565 0.022019
v -34.327419 0.373565 -0.018080
v -33.807316 0.373565 -0.018080
v -34.287319 0.373565 -0.018080
v -34.287319 0.813465 -0.018080
v -34.287319 0.373565 0.022019
v -34.287319 0.813466 0.022019
v -34.327419 0.373565 0.022019
v -34.327415 0.813466 0.022019
v -34.327419 0.373565 -0.018080
v -34.327415 0.813465 -0.018080
v -33.807316 0.373565 -0.018080
v -33.807316 0.813465 -0.018080
v -33.807316 0.373565 0.022019
v -33.807316 0.813466 0.022019
v -33.847416 0.373565 0.022019
v -33.847416 0.813466 0.022019
v -33.847416 0.373565 -0.018080
v -33.847416 0.813465 -0.018080
v -34.527317 0.253565 -0.019819
v -34.527317 0.933465 -0.019819
v -34.527317 0.253565 0.020280
v -34.527317 0.933466 0.020280
v -34.567417 0.253565 0.020280
v -34.567417 0.933466 0.020280
v -34.567417 0.253565 -0.019819
v -34.567417 0.933465 -0.019819
v -33.567318 0.253565 -0.019819
v -33.567314 0.933465 -0.019819
v -33.567318 0.253565 0.020280
v -33.567314 0.933466 0.020280
v -33.607418 0.253565 0.020280
v -33.607414 0.933466 0.020280
v -33.607418 0.253565 -0.019819
v -33.607414 0.933465 -0.019819
v -34.447414 0.093466 -0.019819
v -33.687321 0.093466 -0.019819
v -34.447414 0.093466 0.020280
v -33.687321 0.093466 0.020280
v -34.447414 0.133565 0.020280
v -33.687321 0.133565 0.020280
v -34.447414 0.133565 -0.019819
v -33.687321 0.133565 -0.019819
v -34.407314 0.133565 -0.021293
v -34.407314 0.453466 -0.021293
v -34.407314 0.133565 0.018806
v -34.407314 0.453466 0.018806
v -34.447414 0.133565 0.018806
v -34.447414 0.453466 0.018806
v -34.447414 0.133565 -0.021293
v -34.447414 0.453466 -0.021293
v -34.447414 0.453466 -0.019819
v -34.167316 0.453466 -0.019819
v -34.447414 0.453466 0.020280
v -34.167316 0.453466 0.020280
v -34.447414 0.493565 0.020280
v -34.167316 0.493565 0.020280
v -34.447414 0.493565 -0.019819
v -34.167316 0.493565 -0.019819
v -34.167316 0.253565 -0.019819
v -34.167316 0.453466 -0.019819
v -34.167316 0.253565 0.020280
v -34.167316 0.453466 0.020280
v -34.207417 0.253565 0.020280
v -34.207417 0.453466 0.020280
v -34.207417 0.253565 -0.019819
v -34.207417 0.453466 -0.019819
v -34.567417 0.213466 -0.019819
v -34.167316 0.213466 -0.019819
v -34.567417 0.213466 0.020280
v -34.167316 0.213466 0.020280
v -34.567417 0.253565 0.020280
v -34.167316 0.253565 0.020280
v -34.567417 0.253565 -0.019819
v -34.167316 0.253565 -0.019819
v -33.687321 0.133565 -0.021294
v -33.687321 0.453466 -0.021294
v -33.687321 0.133565 0.018806
v -33.687321 0.453466 0.018806
v -33.727413 0.133565 0.018806
v -33.727421 0.453466 0.018806
v -33.727413 0.133565 -0.021294
v -33.727421 0.453466 -0.021294
v -33.967419 0.453466 -0.019819
v -33.687321 0.453466 -0.019819
v -33.967419 0.453466 0.020280
v -33.687321 0.453466 0.020280
v -33.967419 0.493565 0.020280
v -33.687313 0.493565 0.020280
v -33.967419 0.493565 -0.019819
v -33.687313 0.493565 -0.019819
v -33.927319 0.253565 -0.019819
v -33.927319 0.453466 -0.019819
v -33.927319 0.253565 0.020280
v -33.927319 0.453466 0.020280
v -33.967419 0.253565 0.020280
v -33.967419 0.453466 0.020280
v -33.967419 0.253565 -0.019819
v -33.967419 0.453466 -0.019819
v -33.967419 0.213466 -0.019820
v -33.567318 0.213466 -0.019819
v -33.967419 0.213466 0.020279
v -33.567318 0.213466 0.020280
v -33.967419 0.253565 0.020279
v -33.567318 0.253565 0.020280
v -33.967419 0.253565 -0.019820
v -33.567318 0.253565 -0.019819
v -33.967419 0.693466 -0.019819
v -33.687317 0.693466 -0.019819
v -33.967419 0.693466 0.020280
v -33.687317 0.693466 0.020280
v -33.967415 0.733565 0.020280
v -33.687313 0.733565 0.020280
v -33.967415 0.733565 -0.019819
v -33.687313 0.733565 -0.019819
v -34.447414 0.693466 -0.019819
v -34.167316 0.693466 -0.019819
v -34.447414 0.693466 0.020280
v -34.167316 0.693466 0.020280
v -34.447414 0.733565 0.020280
v -34.167316 0.733565 0.020280
v -34.447414 0.733565 -0.019819
v -34.167316 0.733565 -0.019819
v -34.167316 0.733565 -0.019819
v -34.167316 0.933465 -0.019819
v -34.167316 0.733565 0.020280
v -34.167316 0.933466 0.020280
v -34.207417 0.733565 0.020280
v -34.207417 0.933466 0.020280
v -34.207417 0.733565 -0.019819
v -34.207417 0.933465 -0.019819
v -33.927319 0.733565 -0.019819
v -33.927319 0.933465 -0.019819
v -33.927319 0.733565 0.020280
v -33.927319 0.933466 0.020280
v -33.967415 0.733565 0.020280
v -33.967415 0.933466 0.020280
v -33.967415 0.733565 -0.019819
v -33.967415 0.933465 -0.019819
v -33.967415 0.933465 -0.019820
v -33.567318 0.933465 -0.019819
v -33.967415 0.933466 0.020279
v -33.567318 0.933466 0.020280
v -33.967415 0.973565 0.020279
v -33.567318 0.973565 0.020280
v -33.967415 0.973565 -0.019820
v -33.567318 0.973565 -0.019819
v -34.567417 0.933465 -0.019819
v -34.167316 0.933465 -0.019819
v -34.567417 0.933466 0.020280
v -34.167316 0.933466 0.020280
v -34.567417 0.973565 0.020280
v -34.167316 0.973565 0.020280
v -34.567417 0.973565 -0.019819
v -34.167316 0.973565 -0.019819
v -34.407314 0.733565 -0.021293
v -34.407318 1.053466 -0.021293
v -34.407314 0.733565 0.018806
v -34.407318 1.053466 0.018806
v -34.447414 0.733565 0.018806
v -34.447418 1.053466 0.018806
v -34.447414 0.733565 -0.021293
v -34.447418 1.053466 -0.021293
v -33.687313 0.733565 -0.021294
v -33.687317 1.053466 -0.021294
v -33.687313 0.733565 0.018806
v -33.687317 1.053466 0.018806
v -33.727413 0.733565 0.018806
v -33.727417 1.053466 0.018806
v -33.727413 0.733565 -0.021294
v -33.727417 1.053466 -0.021294
v -34.447418 1.053466 -0.019819
v -33.687317 1.053466 -0.019819
v -34.447418 1.053466 0.020280
v -33.687317 1.053466 0.020280
v -34.447418 1.093565 0.020280
v -33.687317 1.093565 0.020280
v -34.447418 1.093565 -0.019819
v -33.687317 1.093565 -0.019819
v -34.287319 0.013565 -0.021162
v -34.287319 0.213466 -0.021162
v -34.287319 0.013565 0.018937
v -34.287319 0.213466 0.018937
v -34.327419 0.013565 0.018937
v -34.327419 0.213466 0.018937
v -34.327419 0.013565 -0.021162
v -34.327419 0.213466 -0.021162
v -33.807316 0.013565 -0.021162
v -33.807316 0.213466 -0.021162
v -33.807316 0.013565 0.018937
v -33.807316 0.213466 0.018937
v -33.847416 0.013565 0.018937
v -33.847416 0.213466 0.018937
v -33.847416 0.013565 -0.021162
v -33.847416 0.213466 -0.021162
v -33.807316 0.973565 -0.021162
v -33.807316 1.173466 -0.021162
v -33.807316 0.973565 0.018937
v -33.807316 1.173466 0.018937
v -33.847416 0.973565 0.018937
v -33.847416 1.173466 0.018937
v -33.847416 0.973565 -0.021162
v -33.847416 1.173466 -0.021162
v -34.287315 0.973565 -0.021162
v -34.287315 1.173466 -0.021162
v -34.287315 0.973565 0.018937
v -34.287315 1.173466 0.018937
v -34.327415 0.973565 0.018937
v -34.327415 1.173466 0.018937
v -34.327415 0.973565 -0.021162
v -34.327415 1.173466 -0.021162
v -34.688244 -0.026534 -0.021162
v -33.446491 -0.026534 -0.021162
v -34.688244 -0.026534 0.018938
v -33.446491 -0.026534 0.018937
v -34.688244 0.013565 0.018938
v -33.446491 0.013565 0.018937
v -34.688244 0.013565 -0.021162
v -33.446491 0.013565 -0.021162
v -34.688244 1.173466 -0.021162
v -33.446491 1.173466 -0.021162
v -34.688244 1.173466 0.018938
v -33.446491 1.173466 0.018937
v -34.688244 1.213565 0.018938
v -33.446491 1.213565 0.018937
v -34.688244 1.213565 -0.021162
v -33.446491 1.213565 -0.021162
v -33.487415 0.373565 -0.021162
v -33.687321 0.373565 -0.021162
v -33.487415 0.373565 0.018938
v -33.687321 0.373565 0.018938
v -33.487415 0.333466 0.018938
v -33.687321 0.333466 0.018938
v -33.487415 0.333466 -0.021162
v -33.687321 0.333466 -0.021162
v -34.447414 0.373565 -0.021162
v -34.647320 0.373565 -0.021162
v -34.447414 0.373565 0.018937
v -34.647320 0.373565 0.018937
v -34.447414 0.333466 0.018937
v -34.647320 0.333466 0.018937
v -34.447414 0.333466 -0.021162
v -34.647320 0.333466 -0.021162
v -34.447414 0.853565 -0.021162
v -34.647316 0.853565 -0.021162
v -34.447414 0.853565 0.018937
v -34.647316 0.853565 0.018937
v -34.447414 0.813466 0.018937
v -34.647316 0.813466 0.018937
v -34.447414 0.813466 -0.021162
v -34.647316 0.813466 -0.021162
v -33.487415 0.853565 -0.021162
v -33.687317 0.853565 -0.021162
v -33.487415 0.853565 0.018938
v -33.687317 0.853565 0.018938
v -33.487415 0.813466 0.018938
v -33.687317 0.813466 0.018938
v -33.487415 0.813466 -0.021162
v -33.687317 0.813466 -0.021162
v -33.487415 0.613565 -0.022018
v -34.647316 0.613565 -0.022019
v -33.487415 0.613565 0.018081
v -34.647316 0.613565 0.018080
v -33.487415 0.573466 0.018081
v -34.647320 0.573466 0.018080
v -33.487415 0.573466 -0.022018
v -34.647320 0.573466 -0.022019
v -33.447315 0.013565 -0.021162
v -33.447315 1.173466 -0.021162
v -33.447315 0.013565 0.018938
v -33.447315 1.173466 0.018938
v -33.487415 0.013565 0.018938
v -33.487415 1.173466 0.018938
v -33.487415 0.013565 -0.021162
v -33.487415 1.173466 -0.021162
v -34.647320 0.013565 -0.021162
v -34.647316 1.173466 -0.021162
v -34.647320 0.013565 0.018937
v -34.647316 1.173466 0.018937
v -34.687420 0.013565 0.018938
v -34.687416 1.173466 0.018938
v -34.687420 0.013565 -0.021162
v -34.687416 1.173466 -0.021162
vt 1.472840 0.499897
vt -0.380127 0.500138
vt -0.380121 0.272692
vt 1.472840 0.272946
vt -0.380085 0.045513
vt 1.472800 0.045904
vt 1.472800 0.954309
vt -0.380085 0.954218
vt -0.380115 0.727310
vt 1.472847 0.727056
vt 0.000007 0.500128
vt 0.135427 0.500362
vt 0.135427 0.727285
vt 0.000007 0.727051
vt 1.000007 0.273300
vt 1.144164 0.277201
vt 1.144164 0.503889
vt 1.000007 0.499989
vt 0.578384 0.500019
vt -0.252485 0.500130
vt -0.252481 0.272703
vt 0.578385 0.272821
vt -0.252447 0.045535
vt 0.578382 0.045722
vt 0.578382 0.954247
vt -0.252448 0.954211
vt -0.252475 0.727298
vt 0.578392 0.727181
vt 0.000007 0.500128
vt 0.135427 0.500362
vt 0.135427 0.727285
vt 0.000007 0.727051
vt 1.000014 0.273312
vt 1.144157 0.277212
vt 1.144157 0.503878
vt 1.000014 0.499978
vt 0.578384 0.500019
vt -0.252485 0.500130
vt -0.252481 0.272703
vt 0.578385 0.272821
vt -0.252447 0.045535
vt 0.578382 0.045722
vt 0.578382 0.954247
vt -0.252448 0.954211
vt -0.252475 0.727298
vt 0.578392 0.727181
vt 0.000007 0.500128
vt 0.135427 0.500362
vt 0.135427 0.727285
vt 0.000007 0.727051
vt 1.000014 0.273312
vt 1.144157 0.277212
vt 1.144157 0.503878
vt 1.000014 0.499978
vt 0.514307 0.500009
vt -0.188424 0.500085
vt -0.188424 0.272759
vt 0.514303 0.272843
vt -0.188381 0.045529
vt 0.514306 0.045687
vt 0.514306 0.954302
vt -0.188381 0.954309
vt -0.188418 0.727243
vt 0.514309 0.727159
vt 0.000007 0.500128
vt 0.135427 0.500362
vt 0.135427 0.727285
vt 0.000007 0.727051
vt 1.000022 0.273323
vt 1.144150 0.277223
vt 1.144150 0.503866
vt 1.000022 0.499967
vt 0.514307 0.500009
vt -0.188424 0.500085
vt -0.188424 0.272759
vt 0.514303 0.272843
vt -0.188381 0.045529
vt 0.514306 0.045687
vt 0.514306 0.954302
vt -0.188381 0.954309
vt -0.188418 0.727243
vt 0.514309 0.727159
vt 0.000007 0.500128
vt 0.135427 0.500362
vt 0.135427 0.727285
vt 0.000007 0.727051
vt 1.000022 0.273323
vt 1.144150 0.277223
vt 1.144150 0.503866
vt 1.000022 0.499967
vt 0.514307 0.500009
vt -0.571344 0.500034
vt -0.571282 0.272791
vt 0.514303 0.272843
vt -0.571163 0.045760
vt 0.514306 0.045687
vt 0.514306 0.954302
vt -0.571163 0.954178
vt -0.571276 0.727211
vt 0.514309 0.727159
vt 0.000148 0.500365
vt 0.135286 0.500599
vt 0.135286 0.727048
vt 0.000148 0.726814
vt 1.000022 0.273323
vt 1.144150 0.277223
vt 1.144150 0.503866
vt 1.000022 0.499967
vt 0.514307 0.500009
vt -0.571344 0.500034
vt -0.571282 0.272791
vt 0.514303 0.272843
vt -0.571163 0.045760
vt 0.514306 0.045687
vt 0.514306 0.954302
vt -0.571163 0.954178
vt -0.571276 0.727211
vt 0.514309 0.727159
vt 0.000148 0.500365
vt 0.135286 0.500599
vt 0.135286 0.727048
vt 0.000148 0.726814
vt 1.000022 0.273323
vt 1.144150 0.277223
vt 1.144150 0.503866
vt 1.000022 0.499967
vt 0.578384 0.500019
vt -0.635080 0.500038
vt -0.635003 0.272762
vt 0.578385 0.272821
vt -0.634761 0.045648
vt 0.578382 0.045722
vt 0.578382 0.954247
vt -0.634761 0.954282
vt -0.634997 0.727240
vt 0.578392 0.727181
vt 0.000054 0.500208
vt 0.135380 0.500441
vt 0.135380 0.727206
vt 0.000054 0.726972
vt 1.000014 0.273312
vt 1.144157 0.277212
vt 1.144157 0.503878
vt 1.000014 0.499978
vt 0.514307 0.500009
vt 0.003337 0.500055
vt 0.003338 0.272787
vt 0.514303 0.272843
vt 0.003427 0.045592
vt 0.514306 0.045687
vt 0.514306 0.954302
vt 0.003427 0.954304
vt 0.003344 0.727215
vt 0.514309 0.727159
vt 0.000014 0.500140
vt 0.135420 0.500374
vt 0.135420 0.727274
vt 0.000013 0.727040
vt 1.000022 0.273323
vt 1.144150 0.277223
vt 1.144150 0.503866
vt 1.000022 0.499967
vt 0.578384 0.500019
vt 0.130929 0.500076
vt 0.130932 0.272759
vt 0.578385 0.272821
vt 0.130957 0.045634
vt 0.578382 0.045722
vt 0.578382 0.954247
vt 0.130957 0.954219
vt 0.130938 0.727243
vt 0.578392 0.727181
vt 0.000014 0.500140
vt 0.135420 0.500374
vt 0.135420 0.727274
vt 0.000013 0.727040
vt 1.000014 0.273312
vt 1.144157 0.277212
vt 1.144157 0.503878
vt 1.000014 0.499978
vt 0.322381 0.500036
vt 0.003337 0.500055
vt 0.003338 0.272787
vt 0.322365 0.272816
vt 0.003427 0.045592
vt 0.322199 0.045661
vt 0.322199 0.954273
vt 0.003427 0.954304
vt 0.003344 0.727215
vt 0.322372 0.727185
vt 0.000014 0.500140
vt 0.135420 0.500374
vt 0.135420 0.727274
vt 0.000013 0.727040
vt 1.000036 0.273346
vt 1.144135 0.277245
vt 1.144135 0.503843
vt 1.000036 0.499944
vt 0.386566 0.500056
vt -0.252203 0.500086
vt -0.252174 0.272733
vt 0.386551 0.272784
vt -0.251963 0.045594
vt 0.386521 0.045695
vt 0.386521 0.954200
vt -0.251963 0.954240
vt -0.252168 0.727269
vt 0.386557 0.727217
vt 0.000020 0.500151
vt 0.135414 0.500385
vt 0.135413 0.727262
vt 0.000020 0.727028
vt 1.000029 0.273335
vt 1.144143 0.277234
vt 1.144143 0.503855
vt 1.000029 0.499956
vt 0.514307 0.500009
vt 0.003337 0.500055
vt 0.003338 0.272787
vt 0.514303 0.272843
vt 0.003427 0.045592
vt 0.514306 0.045687
vt 0.514306 0.954302
vt 0.003427 0.954304
vt 0.003344 0.727215
vt 0.514309 0.727159
vt 0.000014 0.500140
vt 0.135420 0.500374
vt 0.135420 0.727274
vt 0.000013 0.727040
vt 1.000022 0.273323
vt 1.144150 0.277223
vt 1.144150 0.503866
vt 1.000022 0.499967
vt 0.578384 0.500019
vt 0.130929 0.500076
vt 0.130932 0.272759
vt 0.578385 0.272821
vt 0.130957 0.045634
vt 0.578382 0.045722
vt 0.578382 0.954247
vt 0.130957 0.954219
vt 0.130938 0.727243
vt 0.578392 0.727181
vt 0.000014 0.500140
vt 0.135420 0.500374
vt 0.135420 0.727274
vt 0.000013 0.727040
vt 1.000014 0.273312
vt 1.144157 0.277212
vt 1.144157 0.503878
vt 1.000014 0.499978
vt 0.322381 0.500036
vt 0.003337 0.500055
vt 0.003338 0.272787
vt 0.322365 0.272816
vt 0.003427 0.045592
vt 0.322199 0.045661
vt 0.322199 0.954273
vt 0.003427 0.954304
vt 0.003344 0.727215
vt 0.322372 0.727185
vt 0.000014 0.500140
vt 0.135420 0.500374
vt 0.135420 0.727274
vt 0.000013 0.727040
vt 1.000036 0.273346
vt 1.144135 0.277245
vt 1.144135 0.503843
vt 1.000036 0.499944
vt 0.544826 0.500060
vt -0.093492 0.500070
vt -0.093457 0.272753
vt 0.544779 0.272790
vt -0.093309 0.045669
vt 0.544658 0.045711
vt 0.544658 0.954175
vt -0.093309 0.954198
vt -0.093451 0.727248
vt 0.544786 0.727212
vt 0.000041 0.500185
vt 0.135393 0.500419
vt 0.135393 0.727228
vt 0.000041 0.726994
vt 1.000036 0.273346
vt 1.144135 0.277245
vt 1.144135 0.503843
vt 1.000036 0.499944
vt 0.578384 0.500019
vt 0.130929 0.500076
vt 0.130932 0.272759
vt 0.578385 0.272821
vt 0.130957 0.045634
vt 0.578382 0.045722
vt 0.578382 0.954247
vt 0.130957 0.954219
vt 0.130938 0.727243
vt 0.578392 0.727181
vt 0.000014 0.500140
vt 0.135420 0.500374
vt 0.135420 0.727274
vt 0.000013 0.727040
vt 1.000014 0.273312
vt 1.144157 0.277212
vt 1.144157 0.503878
vt 1.000014 0.499978
vt 0.578384 0.500019
vt 0.130929 0.500076
vt 0.130932 0.272759
vt 0.578385 0.272821
vt 0.130957 0.045634
vt 0.578382 0.045722
vt 0.578382 0.954247
vt 0.130957 0.954219
vt 0.130938 0.727243
vt 0.578392 0.727181
vt 0.000014 0.500140
vt 0.135420 0.500374
vt 0.135420 0.727274
vt 0.000013 0.727040
vt 1.000014 0.273312
vt 1.144157 0.277212
vt 1.144157 0.503878
vt 1.000014 0.499978
vt 0.322381 0.500036
vt 0.003337 0.500055
vt 0.003338 0.272787
vt 0.322365 0.272816
vt 0.003427 0.045592
vt 0.322199 0.045661
vt 0.322199 0.954273
vt 0.003427 0.954304
vt 0.003344 0.727215
vt 0.322372 0.727185
vt 0.000014 0.500140
vt 0.135420 0.500374
vt 0.135420 0.727274
vt 0.000013 0.727040
vt 1.000036 0.273346
vt 1.144135 0.277245
vt 1.144135 0.503843
vt 1.000036 0.499944
vt 0.322381 0.500036
vt 0.003337 0.500055
vt 0.003338 0.272787
vt 0.322365 0.272816
vt 0.003427 0.045592
vt 0.322199 0.045661
vt 0.322199 0.954273
vt 0.003427 0.954304
vt 0.003344 0.727215
vt 0.322372 0.727185
vt 0.000014 0.500140
vt 0.135420 0.500374
vt 0.135420 0.727274
vt 0.000013 0.727040
vt 1.000036 0.273346
vt 1.144135 0.277245
vt 1.144135 0.503843
vt 1.000036 0.499944
vt 0.544826 0.500060
vt -0.093492 0.500070
vt -0.093457 0.272753
vt 0.544779 0.272790
vt -0.093309 0.045669
vt 0.544658 0.045711
vt 0.544658 0.954175
vt -0.093309 0.954198
vt -0.093451 0.727248
vt 0.544786 0.727212
vt 0.000041 0.500185
vt 0.135393 0.500419
vt 0.135393 0.727228
vt 0.000041 0.726994
vt 1.000036 0.273346
vt 1.144135 0.277245
vt 1.144135 0.503843
vt 1.000036 0.499944
vt 0.386566 0.500056
vt -0.252203 0.500086
vt -0.252174 0.272733
vt 0.386551 0.272784
vt -0.251963 0.045594
vt 0.386521 0.045695
vt 0.386521 0.954200
vt -0.251963 0.954240
vt -0.252168 0.727269
vt 0.386557 0.727217
vt 0.000020 0.500151
vt 0.135414 0.500385
vt 0.135413 0.727262
vt 0.000020 0.727028
vt 1.000029 0.273335
vt 1.144143 0.277234
vt 1.144143 0.503855
vt 1.000029 0.499956
vt 0.514307 0.500009
vt 0.003337 0.500055
vt 0.003338 0.272787
vt 0.514303 0.272843
vt 0.003427 0.045592
vt 0.514306 0.045687
vt 0.514306 0.954302
vt 0.003427 0.954304
vt 0.003344 0.727215
vt 0.514309 0.727159
vt 0.000014 0.500140
vt 0.135420 0.500374
vt 0.135420 0.727274
vt 0.000013 0.727040
vt 1.000022 0.273323
vt 1.144150 0.277223
vt 1.144150 0.503866
vt 1.000022 0.499967
vt 0.514307 0.500009
vt 0.003337 0.500055
vt 0.003338 0.272787
vt 0.514303 0.272843
vt 0.003427 0.045592
vt 0.514306 0.045687
vt 0.514306 0.954302
vt 0.003427 0.954304
vt 0.003344 0.727215
vt 0.514309 0.727159
vt 0.000014 0.500140
vt 0.135420 0.500374
vt 0.135420 0.727274
vt 0.000013 0.727040
vt 1.000022 0.273323
vt 1.144150 0.277223
vt 1.144150 0.503866
vt 1.000022 0.499967
vt 0.578384 0.500019
vt -0.635080 0.500038
vt -0.635003 0.272762
vt 0.578385 0.272821
vt -0.634761 0.045648
vt 0.578382 0.045722
vt 0.578382 0.954247
vt -0.634761 0.954282
vt -0.634997 0.727240
vt 0.578392 0.727181
vt 0.000054 0.500208
vt 0.135380 0.500441
vt 0.135380 0.727206
vt 0.000054 0.726972
vt 1.000014 0.273312
vt 1.144157 0.277212
vt 1.144157 0.503878
vt 1.000014 0.499978
vt 0.322381 0.500036
vt 0.003337 0.500055
vt 0.003338 0.272787
vt 0.322365 0.272816
vt 0.003427 0.045592
vt 0.322199 0.045661
vt 0.322199 0.954273
vt 0.003427 0.954304
vt 0.003344 0.727215
vt 0.322372 0.727185
vt 0.000014 0.500140
vt 0.135420 0.500374
vt 0.135420 0.727274
vt 0.000013 0.727040
vt 1.000036 0.273346
vt 1.144135 0.277245
vt 1.144135 0.503843
vt 1.000036 0.499944
vt 0.322381 0.500036
vt 0.003337 0.500055
vt 0.003338 0.272787
vt 0.322365 0.272816
vt 0.003427 0.045592
vt 0.322199 0.045661
vt 0.322199 0.954273
vt 0.003427 0.954304
vt 0.003344 0.727215
vt 0.322372 0.727185
vt 0.000014 0.500140
vt 0.135420 0.500374
vt 0.135420 0.727274
vt 0.000013 0.727040
vt 1.000036 0.273346
vt 1.144135 0.277245
vt 1.144135 0.503843
vt 1.000036 0.499944
vt 0.322381 0.500036
vt 0.003337 0.500055
vt 0.003338 0.272787
vt 0.322365 0.272816
vt 0.003427 0.045592
vt 0.322199 0.045661
vt 0.322199 0.954273
vt 0.003427 0.954304
vt 0.003344 0.727215
vt 0.322372 0.727185
vt 0.000014 0.500140
vt 0.135420 0.500374
vt 0.135420 0.727274
vt 0.000013 0.727040
vt 1.000036 0.273346
vt 1.144135 0.277245
vt 1.144135 0.503843
vt 1.000036 0.499944
vt 0.322381 0.500036
vt 0.003337 0.500055
vt 0.003338 0.272787
vt 0.322365 0.272816
vt 0.003427 0.045592
vt 0.322199 0.045661
vt 0.322199 0.954273
vt 0.003427 0.954304
vt 0.003344 0.727215
vt 0.322372 0.727185
vt 0.000014 0.500140
vt 0.135420 0.500374
vt 0.135420 0.727274
vt 0.000013 0.727040
vt 1.000036 0.273346
vt 1.144135 0.277245
vt 1.144135 0.503843
vt 1.000036 0.499944
vt 1.538270 0.499778
vt -0.445556 0.500226
vt -0.445556 0.272618
vt 1.538270 0.273066
vt -0.445549 0.045459
vt 1.538276 0.045907
vt 1.538276 0.954544
vt -0.445550 0.954096
vt -0.445550 0.727384
vt 1.538276 0.726936
vt 0.000000 0.500000
vt 0.135434 0.500468
vt 0.135434 0.727179
vt -0.000000 0.727179
vt 1.000000 0.273289
vt 1.144171 0.277189
vt 1.144171 0.503901
vt 1.000000 0.500000
vt 1.538270 0.499778
vt -0.445556 0.500226
vt -0.445556 0.272618
vt 1.538270 0.273066
vt -0.445549 0.045459
vt 1.538276 0.045907
vt 1.538276 0.954544
vt -0.445550 0.954096
vt -0.445550 0.727384
vt 1.538276 0.726936
vt 0.000000 0.500000
vt 0.135434 0.500468
vt 0.135434 0.727179
vt -0.000000 0.727179
vt 1.000000 0.273289
vt 1.144171 0.277189
vt 1.144171 0.503901
vt 1.000000 0.500000
vt 0.322381 0.500036
vt 0.003337 0.500055
vt 0.003338 0.272787
vt 0.322365 0.272816
vt 0.003427 0.045592
vt 0.322199 0.045661
vt 0.322199 0.954273
vt 0.003427 0.954304
vt 0.003344 0.727215
vt 0.322372 0.727185
vt 0.000014 0.500140
vt 0.135420 0.500374
vt 0.135420 0.727274
vt 0.000013 0.727040
vt 1.000036 0.273346
vt 1.144135 0.277245
vt 1.144135 0.503843
vt 1.000036 0.499944
vt 0.322381 0.500036
vt 0.003337 0.500055
vt 0.003338 0.272787
vt 0.322365 0.272816
vt 0.003427 0.045592
vt 0.322199 0.045661
vt 0.322199 0.954273
vt 0.003427 0.954304
vt 0.003344 0.727215
vt 0.322372 0.727185
vt 0.000014 0.500140
vt 0.135420 0.500374
vt 0.135420 0.727274
vt 0.000013 0.727040
vt 1.000036 0.273346
vt 1.144135 0.277245
vt 1.144135 0.503843
vt 1.000036 0.499944
vt 0.322381 0.500036
vt 0.003337 0.500055
vt 0.003338 0.272787
vt 0.322365 0.272816
vt 0.003427 0.045592
vt 0.322199 0.045661
vt 0.322199 0.954273
vt 0.003427 0.954304
vt 0.003344 0.727215
vt 0.322372 0.727185
vt 0.000014 0.500140
vt 0.135420 0.500374
vt 0.135420 0.727274
vt 0.000013 0.727040
vt 1.000036 0.273346
vt 1.144135 0.277245
vt 1.144135 0.503843
vt 1.000036 0.499944
vt 0.322381 0.500036
vt 0.003337 0.500055
vt 0.003338 0.272787
vt 0.322365 0.272816
vt 0.003427 0.045592
vt 0.322199 0.045661
vt 0.322199 0.954273
vt 0.003427 0.954304
vt 0.003344 0.727215
vt 0.322372 0.727185
vt 0.000014 0.500140
vt 0.135420 0.500374
vt 0.135420 0.727274
vt 0.000013 0.727040
vt 1.000036 0.273346
vt 1.144135 0.277245
vt 1.144135 0.503843
vt 1.000036 0.499944
vt 1.472840 0.499897
vt -0.380127 0.500138
vt -0.380121 0.272692
vt 1.472840 0.272946
vt -0.380085 0.045513
vt 1.472800 0.045904
vt 1.472800 0.954309
vt -0.380085 0.954218
vt -0.380115 0.727310
vt 1.472847 0.727056
vt 0.000007 0.500128
vt 0.135427 0.500362
vt 0.135427 0.727285
vt 0.000007 0.727051
vt 1.000007 0.273300
vt 1.144164 0.277201
vt 1.144164 0.503889
vt 1.000007 0.499989
vt 1.472840 0.499897
vt -0.380127 0.500138
vt -0.380121 0.272692
vt 1.472840 0.272946
vt -0.380085 0.045513
vt 1.472800 0.045904
vt 1.472800 0.954309
vt -0.380085 0.954218
vt -0.380115 0.727310
vt 1.472847 0.727056
vt 0.000007 0.500128
vt 0.135427 0.500362
vt 0.135427 0.727285
vt 0.000007 0.727051
vt 1.000007 0.273300
vt 1.144164 0.277201
vt 1.144164 0.503889
vt 1.000007 0.499989
vt 1.472840 0.499897
vt -0.380127 0.500138
vt -0.380121 0.272692
vt 1.472840 0.272946
vt -0.380085 0.045513
vt 1.472800 0.045904
vt 1.472800 0.954309
vt -0.380085 0.954218
vt -0.380115 0.727310
vt 1.472847 0.727056
vt 0.000007 0.500128
vt 0.135427 0.500362
vt 0.135427 0.727285
vt 0.000007 0.727051
vt 1.000007 0.273300
vt 1.144164 0.277201
vt 1.144164 0.503889
vt 1.000007 0.499989
vn 1.000000 -0.000003 0.000000
vn 1.000000 -0.000003 0.000000
vn 1.000000 -0.000003 0.000000
vn 1.000000 -0.000003 0.000000
vn 0.000001 0.000000 1.000000
vn 0.000001 0.000000 1.000000
vn 0.000001 0.000000 1.000000
vn 0.000001 0.000000 1.000000
vn -1.000000 0.000000 0.000000
vn -1.000000 0.000000 0.000000
vn -1.000000 0.000000 0.000000
vn -1.000000 0.000000 0.000000
vn -0.000001 0.000000 -1.000000
vn -0.000001 0.000000 -1.000000
vn -0.000001 0.000000 -1.000000
vn -0.000001 0.000000 -1.000000
vn 0.000000 1.000000 0.000000
vn 0.000000 1.000000 0.000000
vn 0.000000 1.000000 0.000000
vn 0.000000 1.000000 0.000000
vn 0.000000 -1.000000 0.000000
vn 0.000000 -1.000000 0.000000
vn 0.000000 -1.000000 0.000000
vn 0.000000 -1.000000 0.000000
vn -0.000000 -1.000000 0.000006
vn -0.000000 -1.000000 0.000006
vn -0.000000 -1.000000 0.000006
vn -0.000000 -1.000000 0.000006
vn 0.000000 0.000000 1.000000
vn 0.000000 0.000000 1.000000
vn 0.000000 0.000000 1.000000
vn 0.000000 0.000000 1.000000
vn 0.000000 1.000000 -0.000013
vn 0.000000 1.000000 -0.000013
vn 0.000000 1.000000 -0.000013
vn 0.000000 1.000000 -0.000013
vn 0.000001 0.000000 -1.000000
vn 0.000001 0.000000 -1.000000
vn 0.000001 0.000000 -1.000000
vn 0.000001 0.000000 -1.000000
vn 1.000000 0.000000 0.000000
vn 1.000000 0.000000 0.000000
vn 1.000000 0.000000 0.000000
vn 1.000000 0.000000 0.000000
vn -1.000000 0.000000 0.000000
vn -1.000000 0.000000 0.000000
vn -1.000000 0.000000 0.000000
vn -1.000000 0.000000 0.000000
vn 0.000000 -1.000000 -0.000001
vn 0.000000 -1.000000 -0.000001
vn 0.000000 -1.000000 -0.000001
vn 0.000000 -1.000000 -0.000001
vn 0.000000 0.000000 1.000000
vn 0.000000 0.000000 1.000000
vn 0.000000 0.000000 1.000000
vn 0.000000 0.000000 1.000000
vn 0.000000 1.000000 -0.000002
vn 0.000000 1.000000 -0.000002
vn 0.000000 1.000000 -0.000002
vn 0.000000 1.000000 -0.000002
vn 0.000001 0.000000 -1.000000
vn 0.000001 0.000000 -1.000000
vn 0.000001 0.000000 -1.000000
vn 0.000001 0.000000 -1.000000
vn 1.000000 0.000000 0.000000
vn 1.000000 0.000000 0.000000
vn 1.000000 0.000000 0.000000
vn 1.000000 0.000000 0.000000
vn -1.000000 0.000000 0.000000
vn -1.000000 0.000000 0.000000
vn -1.000000 0.000000 0.000000
vn -1.000000 0.000000 0.000000
vn 1.000000 0.000000 0.000000
vn 1.000000 0.000000 0.000000
vn 1.000000 0.000000 0.000000
vn 1.000000 0.000000 0.000000
vn 0.000000 0.000000 1.000000
vn 0.000000 0.000000 1.000000
vn 0.000000 0.000000 1.000000
vn 0.000000 0.000000 1.000000
vn -1.000000 0.000007 -0.000000
vn -1.000000 0.000007 -0.000000
vn -1.000000 0.000007 -0.000000
vn -1.000000 0.000007 -0.000000
vn 0.000000 0.000000 -1.000000
vn 0.000000 0.000000 -1.000000
vn 0.000000 0.000000 -1.000000
vn 0.000000 0.000000 -1.000000
vn 0.000000 1.000000 -0.000007
vn 0.000000 1.000000 -0.000007
vn 0.000000 1.000000 -0.000007
vn 0.000000 1.000000 -0.000007
vn 0.000000 -1.000000 0.000002
vn 0.000000 -1.000000 0.000002
vn 0.000000 -1.000000 0.000002
vn 0.000000 -1.000000 0.000002
vn 1.000000 0.000000 0.000000
vn 1.000000 0.000000 0.000000
vn 1.000000 0.000000 0.000000
vn 1.000000 0.000000 0.000000
vn 0.000000 0.000000 1.000000
vn 0.000000 0.000000 1.000000
vn 0.000000 0.000000 1.000000
vn 0.000000 0.000000 1.000000
vn -1.000000 0.000000 0.000000
vn -1.000000 0.000000 0.000000
vn -1.000000 0.000000 0.000000
vn -1.000000 0.000000 0.000000
vn 0.000000 0.000000 -1.000000
vn 0.000000 0.000000 -1.000000
vn 0.000000 0.000000 -1.000000
vn 0.000000 0.000000 -1.000000
vn 0.000000 1.000000 -0.000007
vn 0.000000 1.000000 -0.000007
vn 0.000000 1.000000 -0.000007
vn 0.000000 1.000000 -0.000007
vn 0.000000 -1.000000 0.000002
vn 0.000000 -1.000000 0.000002
vn 0.000000 -1.000000 0.000002
vn 0.000000 -1.000000 0.000002
vn 1.000000 0.000000 0.000000
vn 1.000000 0.000000 0.000000
vn 1.000000 0.000000 0.000000
vn 1.000000 0.000000 0.000000
vn -0.000006 0.000000 1.000000
vn -0.000006 0.000000 1.000000
vn -0.000006 0.000000 1.000000
vn -0.000006 0.000000 1.000000
vn -1.000000 0.000000 0.000000
vn -1.000000 0.000000 0.000000
vn -1.000000 0.000000 0.000000
vn -1.000000 0.000000 0.000000
vn 0.000006 0.000000 -1.000000
vn 0.000006 0.000000 -1.000000
vn 0.000006 0.000000 -1.000000
vn 0.000006 0.000000 -1.000000
vn 0.000000 1.000000 -0.000007
vn 0.000000 1.000000 -0.000007
vn 0.000000 1.000000 -0.000007
vn 0.000000 1.000000 -0.000007
vn -0.000000 -1.000000 0.000003
vn -0.000000 -1.000000 0.000003
vn -0.000000 -1.000000 0.000003
vn -0.000000 -1.000000 0.000003
vn 1.000000 -0.000004 0.000000
vn 1.000000 -0.000004 0.000000
vn 1.000000 -0.000004 0.000000
vn 1.000000 -0.000004 0.000000
vn 0.000006 -0.000000 1.000000
vn 0.000006 -0.000000 1.000000
vn 0.000006 -0.000000 1.000000
vn 0.000006 -0.000000 1.000000
vn -1.000000 0.000004 -0.000000
vn -1.000000 0.000004 -0.000000
vn -1.000000 0.000004 -0.000000
vn -1.000000 0.000004 -0.000000
vn -0.000006 0.000000 -1.000000
vn -0.000006 0.000000 -1.000000
vn -0.000006 0.000000 -1.000000
vn -0.000006 0.000000 -1.000000
vn -0.000000 1.000000 -0.000007
vn -0.000000 1.000000 -0.000007
vn -0.000000 1.000000 -0.000007
vn -0.000000 1.000000 -0.000007
vn 0.000000 -1.000000 0.000003
vn 0.000000 -1.000000 0.000003
vn 0.000000 -1.000000 0.000003
vn 0.000000 -1.000000 0.000003
vn 0.000000 -1.000000 -0.000001
vn 0.000000 -1.000000 -0.000001
vn 0.000000 -1.000000 -0.000001
vn 0.000000 -1.000000 -0.000001
vn 0.000000 0.000000 1.000000
vn 0.000000 0.000000 1.000000
vn 0.000000 0.000000 1.000000
vn 0.000000 0.000000 1.000000
vn 0.000000 1.000000 0.000000
vn 0.000000 1.000000 0.000000
vn 0.000000 1.000000 0.000000
vn 0.000000 1.000000 0.000000
vn 0.000000 0.000000 -1.000000
vn 0.000000 0.000000 -1.000000
vn 0.000000 0.000000 -1.000000
vn 0.000000 0.000000 -1.000000
vn 1.000000 0.000000 0.000000
vn 1.000000 0.000000 0.000000
vn 1.000000 0.000000 0.000000
vn 1.000000 0.000000 0.000000
vn -1.000000 0.000000 0.000000
vn -1.000000 0.000000 0.000000
vn -1.000000 0.000000 0.000000
vn -1.000000 0.000000 0.000000
vn 1.000000 0.000000 0.000000
vn 1.000000 0.000000 0.000000
vn 1.000000 0.000000 0.000000
vn 1.000000 0.000000 0.000000
vn 0.000000 0.000000 1.000000
vn 0.000000 0.000000 1.000000
vn 0.000000 0.000000 1.000000
vn 0.000000 0.000000 1.000000
vn -1.000000 0.000000 0.000000
vn -1.000000 0.000000 0.000000
vn -1.000000 0.000000 0.000000
vn -1.000000 0.000000 0.000000
vn 0.000000 0.000000 -1.000000
vn 0.000000 0.000000 -1.000000
vn 0.000000 0.000000 -1.000000
vn 0.000000 0.000000 -1.000000
vn 0.000000 1.000000 0.000000
vn 0.000000 1.000000 0.000000
vn 0.000000 1.000000 0.000000
vn 0.000000 1.000000 0.000000
vn 0.000000 -1.000000 -0.000001
vn 0.000000 -1.000000 -0.000001
vn 0.000000 -1.000000 -0.000001
vn 0.000000 -1.000000 -0.000001
vn 0.000000 -1.000000 0.000000
vn 0.000000 -1.000000 0.000000
vn 0.000000 -1.000000 0.000000
vn 0.000000 -1.000000 0.000000
vn -0.000000 0.000000 1.000000
vn -0.000000 0.000000 1.000000
vn -0.000000 0.000000 1.000000
vn -0.000000 0.000000 1.000000
vn 0.000000 1.000000 -0.000003
vn 0.000000 1.000000 -0.000003
vn 0.000000 1.000000 -0.000003
vn 0.000000 1.000000 -0.000003
vn 0.000000 0.000000 -1.000000
vn 0.000000 0.000000 -1.000000
vn 0.000000 0.000000 -1.000000
vn 0.000000 0.000000 -1.000000
vn 1.000000 0.000000 0.000000
vn 1.000000 0.000000 0.000000
vn 1.000000 0.000000 0.000000
vn 1.000000 0.000000 0.000000
vn -1.000000 0.000000 0.000000
vn -1.000000 0.000000 0.000000
vn -1.000000 0.000000 0.000000
vn -1.000000 0.000000 0.000000
vn 1.000000 0.000000 0.000000
vn 1.000000 0.000000 0.000000
vn 1.000000 0.000000 0.000000
vn 1.000000 0.000000 0.000000
vn -0.000002 0.000000 1.000000
vn -0.000002 0.000000 1.000000
vn -0.000002 0.000000 1.000000
vn -0.000002 0.000000 1.000000
vn -1.000000 0.000000 0.000000
vn -1.000000 0.000000 0.000000
vn -1.000000 0.000000 0.000000
vn -1.000000 0.000000 0.000000
vn 0.000001 0.000000 -1.000000
vn 0.000001 0.000000 -1.000000
vn 0.000001 0.000000 -1.000000
vn 0.000001 0.000000 -1.000000
vn 0.000000 1.000000 0.000000
vn 0.000000 1.000000 0.000000
vn 0.000000 1.000000 0.000000
vn 0.000000 1.000000 0.000000
vn -0.000000 -1.000000 0.000003
vn -0.000000 -1.000000 0.000003
vn -0.000000 -1.000000 0.000003
vn -0.000000 -1.000000 0.000003
vn -0.000000 -1.000000 0.000000
vn -0.000000 -1.000000 0.000000
vn -0.000000 -1.000000 0.000000
vn -0.000000 -1.000000 0.000000
vn -0.000001 0.000000 1.000000
vn -0.000001 0.000000 1.000000
vn -0.000001 0.000000 1.000000
vn -0.000001 0.000000 1.000000
vn 0.000000 1.000000 -0.000003
vn 0.000000 1.000000 -0.000003
vn 0.000000 1.000000 -0.000003
vn 0.000000 1.000000 -0.000003
vn 0.000001 0.000000 -1.000000
vn 0.000001 0.000000 -1.000000
vn 0.000001 0.000000 -1.000000
vn 0.000001 0.000000 -1.000000
vn 1.000000 0.000000 0.000000
vn 1.000000 0.000000 0.000000
vn 1.000000 0.000000 0.000000
vn 1.000000 0.000000 0.000000
vn -1.000000 0.000000 0.000000
vn -1.000000 0.000000 0.000000
vn -1.000000 0.000000 0.000000
vn -1.000000 0.000000 0.000000
vn 1.000000 0.000000 0.000000
vn 1.000000 0.000000 0.000000
vn 1.000000 0.000000 0.000000
vn 1.000000 0.000000 0.000000
vn -0.000006 -0.000000 1.000000
vn -0.000006 -0.000000 1.000000
vn -0.000006 -0.000000 1.000000
vn -0.000006 -0.000000 1.000000
vn -1.000000 -0.000028 -0.000000
vn -1.000000 -0.000028 -0.000000
vn -1.000000 -0.000028 -0.000000
vn -1.000000 -0.000028 -0.000000
vn 0.000006 0.000000 -1.000000
vn 0.000006 0.000000 -1.000000
vn 0.000006 0.000000 -1.000000
vn 0.000006 0.000000 -1.000000
vn -0.000000 1.000000 0.000000
vn -0.000000 1.000000 0.000000
vn -0.000000 1.000000 0.000000
vn -0.000000 1.000000 0.000000
vn 0.000000 -1.000000 -0.000001
vn 0.000000 -1.000000 -0.000001
vn 0.000000 -1.000000 -0.000001
vn 0.000000 -1.000000 -0.000001
vn 0.000000 -1.000000 0.000000
vn 0.000000 -1.000000 0.000000
vn 0.000000 -1.000000 0.000000
vn 0.000000 -1.000000 0.000000
vn -0.000001 0.000000 1.000000
vn -0.000001 0.000000 1.000000
vn -0.000001 0.000000 1.000000
vn -0.000001 0.000000 1.000000
vn 0.000000 1.000000 -0.000003
vn 0.000000 1.000000 -0.000003
vn 0.000000 1.000000 -0.000003
vn 0.000000 1.000000 -0.000003
vn 0.000001 -0.000000 -1.000000
vn 0.000001 -0.000000 -1.000000
vn 0.000001 -0.000000 -1.000000
vn 0.000001 -0.000000 -1.000000
vn 1.000000 -0.000148 0.000000
vn 1.000000 -0.000148 0.000000
vn 1.000000 -0.000148 0.000000
vn 1.000000 -0.000148 0.000000
vn -1.000000 0.000000 0.000000
vn -1.000000 0.000000 0.000000
vn -1.000000 0.000000 0.000000
vn -1.000000 0.000000 0.000000
vn 1.000000 0.000000 0.000000
vn 1.000000 0.000000 0.000000
vn 1.000000 0.000000 0.000000
vn 1.000000 0.000000 0.000000
vn -0.000002 0.000000 1.000000
vn -0.000002 0.000000 1.000000
vn -0.000002 0.000000 1.000000
vn -0.000002 0.000000 1.000000
vn -1.000000 0.000000 0.000000
vn -1.000000 0.000000 0.000000
vn -1.000000 0.000000 0.000000
vn -1.000000 0.000000 0.000000
vn 0.000002 0.000000 -1.000000
vn 0.000002 0.000000 -1.000000
vn 0.000002 0.000000 -1.000000
vn 0.000002 0.000000 -1.000000
vn 0.000000 1.000000 0.000000
vn 0.000000 1.000000 0.000000
vn 0.000000 1.000000 0.000000
vn 0.000000 1.000000 0.000000
vn -0.000000 -1.000000 0.000003
vn -0.000000 -1.000000 0.000003
vn -0.000000 -1.000000 0.000003
vn -0.000000 -1.000000 0.000003
vn -0.000000 -1.000000 0.000000
vn -0.000000 -1.000000 0.000000
vn -0.000000 -1.000000 0.000000
vn -0.000000 -1.000000 0.000000
vn -0.000001 0.000000 1.000000
vn -0.000001 0.000000 1.000000
vn -0.000001 0.000000 1.000000
vn -0.000001 0.000000 1.000000
vn 0.000000 1.000000 -0.000003
vn 0.000000 1.000000 -0.000003
vn 0.000000 1.000000 -0.000003
vn 0.000000 1.000000 -0.000003
vn 0.000002 0.000000 -1.000000
vn 0.000002 0.000000 -1.000000
vn 0.000002 0.000000 -1.000000
vn 0.000002 0.000000 -1.000000
vn 1.000000 0.000000 0.000000
vn 1.000000 0.000000 0.000000
vn 1.000000 0.000000 0.000000
vn 1.000000 0.000000 0.000000
vn -1.000000 0.000000 0.000000
vn -1.000000 0.000000 0.000000
vn -1.000000 0.000000 0.000000
vn -1.000000 0.000000 0.000000
vn 0.000000 -1.000000 0.000000
vn 0.000000 -1.000000 0.000000
vn 0.000000 -1.000000 0.000000
vn 0.000000 -1.000000 0.000000
vn -0.000001 0.000000 1.000000
vn -0.000001 0.000000 1.000000
vn -0.000001 0.000000 1.000000
vn -0.000001 0.000000 1.000000
vn 0.000000 1.000000 0.000000
vn 0.000000 1.000000 0.000000
vn 0.000000 1.000000 0.000000
vn 0.000000 1.000000 0.000000
vn 0.000001 -0.000000 -1.000000
vn 0.000001 -0.000000 -1.000000
vn 0.000001 -0.000000 -1.000000
vn 0.000001 -0.000000 -1.000000
vn 1.000000 -0.000074 0.000000
vn 1.000000 -0.000074 0.000000
vn 1.000000 -0.000074 0.000000
vn 1.000000 -0.000074 0.000000
vn -1.000000 0.000148 0.000000
vn -1.000000 0.000148 0.000000
vn -1.000000 0.000148 0.000000
vn -1.000000 0.000148 0.000000
vn 0.000000 -1.000000 0.000000
vn 0.000000 -1.000000 0.000000
vn 0.000000 -1.000000 0.000000
vn 0.000000 -1.000000 0.000000
vn -0.000000 0.000000 1.000000
vn -0.000000 0.000000 1.000000
vn -0.000000 0.000000 1.000000
vn -0.000000 0.000000 1.000000
vn 0.000000 1.000000 0.000000
vn 0.000000 1.000000 0.000000
vn 0.000000 1.000000 0.000000
vn 0.000000 1.000000 0.000000
vn 0.000000 0.000000 -1.000000
vn 0.000000 0.000000 -1.000000
vn 0.000000 0.000000 -1.000000
vn 0.000000 0.000000 -1.000000
vn 1.000000 0.000000 0.000000
vn 1.000000 0.000000 0.000000
vn 1.000000 0.000000 0.000000
vn 1.000000 0.000000 0.000000
vn -1.000000 0.000000 0.000000
vn -1.000000 0.000000 0.000000
vn -1.000000 0.000000 0.000000
vn -1.000000 0.000000 0.000000
vn 1.000000 0.000000 0.000000
vn 1.000000 0.000000 0.000000
vn 1.000000 0.000000 0.000000
vn 1.000000 0.000000 0.000000
vn -0.000001 0.000000 1.000000
vn -0.000001 0.000000 1.000000
vn -0.000001 0.000000 1.000000
vn -0.000001 0.000000 1.000000
vn -1.000000 0.000000 0.000000
vn -1.000000 0.000000 0.000000
vn -1.000000 0.000000 0.000000
vn -1.000000 0.000000 0.000000
vn 0.000001 0.000000 -1.000000
vn 0.000001 0.000000 -1.000000
vn 0.000001 0.000000 -1.000000
vn 0.000001 0.000000 -1.000000
vn 0.000000 1.000000 -0.000007
vn 0.000000 1.000000 -0.000007
vn 0.000000 1.000000 -0.000007
vn 0.000000 1.000000 -0.000007
vn 0.000000 -1.000000 0.000000
vn 0.000000 -1.000000 0.000000
vn 0.000000 -1.000000 0.000000
vn 0.000000 -1.000000 0.000000
vn 1.000000 0.000000 0.000000
vn 1.000000 0.000000 0.000000
vn 1.000000 0.000000 0.000000
vn 1.000000 0.000000 0.000000
vn -0.000002 0.000000 1.000000
vn -0.000002 0.000000 1.000000
vn -0.000002 0.000000 1.000000
vn -0.000002 0.000000 1.000000
vn -1.000000 0.000000 0.000000
vn -1.000000 0.000000 0.000000
vn -1.000000 0.000000 0.000000
vn -1.000000 0.000000 0.000000
vn 0.000002 0.000000 -1.000000
vn 0.000002 0.000000 -1.000000
vn 0.000002 0.000000 -1.000000
vn 0.000002 0.000000 -1.000000
vn 0.000000 1.000000 -0.000007
vn 0.000000 1.000000 -0.000007
vn 0.000000 1.000000 -0.000007
vn 0.000000 1.000000 -0.000007
vn 0.000000 -1.000000 0.000000
vn 0.000000 -1.000000 0.000000
vn 0.000000 -1.000000 0.000000
vn 0.000000 -1.000000 0.000000
vn -0.000000 -1.000000 0.000007
vn -0.000000 -1.000000 0.000007
vn -0.000000 -1.000000 0.000007
vn -0.000000 -1.000000 0.000007
vn -0.000001 0.000000 1.000000
vn -0.000001 0.000000 1.000000
vn -0.000001 0.000000 1.000000
vn -0.000001 0.000000 1.000000
vn 0.000000 1.000000 -0.000011
vn 0.000000 1.000000 -0.000011
vn 0.000000 1.000000 -0.000011
vn 0.000000 1.000000 -0.000011
vn 0.000002 0.000000 -1.000000
vn 0.000002 0.000000 -1.000000
vn 0.000002 0.000000 -1.000000
vn 0.000002 0.000000 -1.000000
vn 1.000000 0.000000 0.000000
vn 1.000000 0.000000 0.000000
vn 1.000000 0.000000 0.000000
vn 1.000000 0.000000 0.000000
vn -1.000000 0.000000 0.000000
vn -1.000000 0.000000 0.000000
vn -1.000000 0.000000 0.000000
vn -1.000000 0.000000 0.000000
vn -0.000000 -1.000000 0.000006
vn -0.000000 -1.000000 0.000006
vn -0.000000 -1.000000 0.000006
vn -0.000000 -1.000000 0.000006
vn -0.000001 0.000000 1.000000
vn -0.000001 0.000000 1.000000
vn -0.000001 0.000000 1.000000
vn -0.000001 0.000000 1.000000
vn 0.000000 1.000000 -0.000013
vn 0.000000 1.000000 -0.000013
vn 0.000000 1.000000 -0.000013
vn 0.000000 1.000000 -0.000013
vn 0.000001 0.000000 -1.000000
vn 0.000001 0.000000 -1.000000
vn 0.000001 0.000000 -1.000000
vn 0.000001 0.000000 -1.000000
vn 1.000000 0.000000 0.000000
vn 1.000000 0.000000 0.000000
vn 1.000000 0.000000 0.000000
vn 1.000000 0.000000 0.000000
vn -1.000000 0.000000 0.000000
vn -1.000000 0.000000 0.000000
vn -1.000000 0.000000 0.000000
vn -1.000000 0.000000 0.000000
vn 1.000000 0.000009 0.000000
vn 1.000000 0.000009 0.000000
vn 1.000000 0.000009 0.000000
vn 1.000000 0.000009 0.000000
vn 0.000000 0.000000 1.000000
vn 0.000000 0.000000 1.000000
vn 0.000000 0.000000 1.000000
vn 0.000000 0.000000 1.000000
vn -1.000000 -0.000019 0.000000
vn -1.000000 -0.000019 0.000000
vn -1.000000 -0.000019 0.000000
vn -1.000000 -0.000019 0.000000
vn 0.000000 0.000000 -1.000000
vn 0.000000 0.000000 -1.000000
vn 0.000000 0.000000 -1.000000
vn 0.000000 0.000000 -1.000000
vn 0.000000 1.000000 0.000000
vn 0.000000 1.000000 0.000000
vn 0.000000 1.000000 0.000000
vn 0.000000 1.000000 0.000000
vn 0.000000 -1.000000 0.000000
vn 0.000000 -1.000000 0.000000
vn 0.000000 -1.000000 0.000000
vn 0.000000 -1.000000 0.000000
vn 1.000000 0.000019 0.000000
vn 1.000000 0.000019 0.000000
vn 1.000000 0.000019 0.000000
vn 1.000000 0.000019 0.000000
vn -0.000006 -0.000000 1.000000
vn -0.000006 -0.000000 1.000000
vn -0.000006 -0.000000 1.000000
vn -0.000006 -0.000000 1.000000
vn -1.000000 -0.000019 0.000000
vn -1.000000 -0.000019 0.000000
vn -1.000000 -0.000019 0.000000
vn -1.000000 -0.000019 0.000000
vn 0.000006 0.000000 -1.000000
vn 0.000006 0.000000 -1.000000
vn 0.000006 0.000000 -1.000000
vn 0.000006 0.000000 -1.000000
vn 0.000000 1.000000 0.000000
vn 0.000000 1.000000 0.000000
vn 0.000000 1.000000 0.000000
vn 0.000000 1.000000 0.000000
vn 0.000000 -1.000000 0.000000
vn 0.000000 -1.000000 0.000000
vn 0.000000 -1.000000 0.000000
vn 0.000000 -1.000000 0.000000
vn 0.000000 -1.000000 0.000000
vn 0.000000 -1.000000 0.000000
vn 0.000000 -1.000000 0.000000
vn 0.000000 -1.000000 0.000000
vn 0.000000 0.000000 1.000000
vn 0.000000 0.000000 1.000000
vn 0.000000 0.000000 1.000000
vn 0.000000 0.000000 1.000000
vn 0.000000 1.000000 -0.000012
vn 0.000000 1.000000 -0.000012
vn 0.000000 1.000000 -0.000012
vn 0.000000 1.000000 -0.000012
vn 0.000000 0.000000 -1.000000
vn 0.000000 0.000000 -1.000000
vn 0.000000 0.000000 -1.000000
vn 0.000000 0.000000 -1.000000
vn 1.000000 0.000000 0.000000
vn 1.000000 0.000000 0.000000
vn 1.000000 0.000000 0.000000
vn 1.000000 0.000000 0.000000
vn -1.000000 0.000000 0.000000
vn -1.000000 0.000000 0.000000
vn -1.000000 0.000000 0.000000
vn -1.000000 0.000000 0.000000
vn 1.000000 0.000000 0.000000
vn 1.000000 0.000000 0.000000
vn 1.000000 0.000000 0.000000
vn 1.000000 0.000000 0.000000
vn 0.000000 0.000000 1.000000
vn 0.000000 0.000000 1.000000
vn 0.000000 0.000000 1.000000
vn 0.000000 0.000000 1.000000
vn -1.000000 0.000000 0.000000
vn -1.000000 0.000000 0.000000
vn -1.000000 0.000000 0.000000
vn -1.000000 0.000000 0.000000
vn 0.000000 0.000000 -1.000000
vn 0.000000 0.000000 -1.000000
vn 0.000000 0.000000 -1.000000
vn 0.000000 0.000000 -1.000000
vn 0.000000 1.000000 -0.000001
vn 0.000000 1.000000 -0.000001
vn 0.000000 1.000000 -0.000001
vn 0.000000 1.000000 -0.000001
vn 0.000000 -1.000000 0.000000
vn 0.000000 -1.000000 0.000000
vn 0.000000 -1.000000 0.000000
vn 0.000000 -1.000000 0.000000
vn 1.000000 0.000000 0.000000
vn 1.000000 0.000000 0.000000
vn 1.000000 0.000000 0.000000
vn 1.000000 0.000000 0.000000
vn 0.000000 0.000000 1.000000
vn 0.000000 0.000000 1.000000
vn 0.000000 0.000000 1.000000
vn 0.000000 0.000000 1.000000
vn -1.000000 0.000000 0.000000
vn -1.000000 0.000000 0.000000
vn -1.000000 0.000000 0.000000
vn -1.000000 0.000000 0.000000
vn 0.000000 0.000000 -1.000000
vn 0.000000 0.000000 -1.000000
vn 0.000000 0.000000 -1.000000
vn 0.000000 0.000000 -1.000000
vn 0.000000 1.000000 -0.000001
vn 0.000000 1.000000 -0.000001
vn 0.000000 1.000000 -0.000001
vn 0.000000 1.000000 -0.000001
vn 0.000000 -1.000000 0.000000
vn 0.000000 -1.000000 0.000000
vn 0.000000 -1.000000 0.000000
vn 0.000000 -1.000000 0.000000
vn 1.000000 0.000000 0.000000
vn 1.000000 0.000000 0.000000
vn 1.000000 0.000000 0.000000
vn 1.000000 0.000000 0.000000
vn 0.000000 0.000000 1.000000
vn 0.000000 0.000000 1.000000
vn 0.000000 0.000000 1.000000
vn 0.000000 0.000000 1.000000
vn -1.000000 0.000000 0.000000
vn -1.000000 0.000000 0.000000
vn -1.000000 0.000000 0.000000
vn -1.000000 0.000000 0.000000
vn 0.000000 0.000000 -1.000000
vn 0.000000 0.000000 -1.000000
vn 0.000000 0.000000 -1.000000
vn 0.000000 0.000000 -1.000000
vn 0.000000 1.000000 0.000000
vn 0.000000 1.000000 0.000000
vn 0.000000 1.000000 0.000000
vn 0.000000 1.000000 0.000000
vn 0.000000 -1.000000 0.000000
vn 0.000000 -1.000000 0.000000
vn 0.000000 -1.000000 0.000000
vn 0.000000 -1.000000 0.000000
vn 1.000000 0.000000 0.000000
vn 1.000000 0.000000 0.000000
vn 1.000000 0.000000 0.000000
vn 1.000000 0.000000 0.000000
vn 0.000000 0.000000 1.000000
vn 0.000000 0.000000 1.000000
vn 0.000000 0.000000 1.000000
vn 0.000000 0.000000 1.000000
vn -1.000000 0.000000 0.000000
vn -1.000000 0.000000 0.000000
vn -1.000000 0.000000 0.000000
vn -1.000000 0.000000 0.000000
vn 0.000000 0.000000 -1.000000
vn 0.000000 0.000000 -1.000000
vn 0.000000 0.000000 -1.000000
vn 0.000000 0.000000 -1.000000
vn 0.000000 1.000000 0.000000
vn 0.000000 1.000000 0.000000
vn 0.000000 1.000000 0.000000
vn 0.000000 1.000000 0.000000
vn 0.000000 -1.000000 0.000000
vn 0.000000 -1.000000 0.000000
vn 0.000000 -1.000000 0.000000
vn 0.000000 -1.000000 0.000000
vn 0.000000 -1.000000 0.000000
vn 0.000000 -1.000000 0.000000
vn 0.000000 -1.000000 0.000000
vn 0.000000 -1.000000 0.000000
vn 0.000000 0.000000 1.000000
vn 0.000000 0.000000 1.000000
vn 0.000000 0.000000 1.000000
vn 0.000000 0.000000 1.000000
vn 0.000000 1.000000 0.000000
vn 0.000000 1.000000 0.000000
vn 0.000000 1.000000 0.000000
vn 0.000000 1.000000 0.000000
vn -0.000000 0.000000 -1.000000
vn -0.000000 0.000000 -1.000000
vn -0.000000 0.000000 -1.000000
vn -0.000000 0.000000 -1.000000
vn 1.000000 0.000000 0.000000
vn 1.000000 0.000000 0.000000
vn 1.000000 0.000000 0.000000
vn 1.000000 0.000000 0.000000
vn -1.000000 0.000000 0.000000
vn -1.000000 0.000000 0.000000
vn -1.000000 0.000000 0.000000
vn -1.000000 0.000000 0.000000
vn 0.000000 -1.000000 0.000000
vn 0.000000 -1.000000 0.000000
vn 0.000000 -1.000000 0.000000
vn 0.000000 -1.000000 0.000000
vn 0.000000 0.000000 1.000000
vn 0.000000 0.000000 1.000000
vn 0.000000 0.000000 1.000000
vn 0.000000 0.000000 1.000000
vn 0.000000 1.000000 0.000000
vn 0.000000 1.000000 0.000000
vn 0.000000 1.000000 0.000000
vn 0.000000 1.000000 0.000000
vn -0.000000 0.000000 -1.000000
vn -0.000000 0.000000 -1.000000
vn -0.000000 0.000000 -1.000000
vn -0.000000 0.000000 -1.000000
vn 1.000000 0.000000 0.000000
vn 1.000000 0.000000 0.000000
vn 1.000000 0.000000 0.000000
vn 1.000000 0.000000 0.000000
vn -1.000000 0.000000 0.000000
vn -1.000000 0.000000 0.000000
vn -1.000000 0.000000 0.000000
vn -1.000000 0.000000 0.000000
vn 0.000000 1.000000 0.000000
vn 0.000000 1.000000 0.000000
vn 0.000000 1.000000 0.000000
vn 0.000000 1.000000 0.000000
vn 0.000000 0.000000 1.000000
vn 0.000000 0.000000 1.000000
vn 0.000000 0.000000 1.000000
vn 0.000000 0.000000 1.000000
vn 0.000000 -1.000000 0.000000
vn 0.000000 -1.000000 0.000000
vn 0.000000 -1.000000 0.000000
vn 0.000000 -1.000000 0.000000
vn 0.000000 0.000000 -1.000000
vn 0.000000 0.000000 -1.000000
vn 0.000000 0.000000 -1.000000
vn 0.000000 0.000000 -1.000000
vn -1.000000 0.000000 0.000000
vn -1.000000 0.000000 0.000000
vn -1.000000 0.000000 0.000000
vn -1.000000 0.000000 0.000000
vn 1.000000 0.000000 0.000000
vn 1.000000 0.000000 0.000000
vn 1.000000 0.000000 0.000000
vn 1.000000 0.000000 0.000000
vn 0.000000 1.000000 0.000000
vn 0.000000 1.000000 0.000000
vn 0.000000 1.000000 0.000000
vn 0.000000 1.000000 0.000000
vn -0.000001 0.000000 1.000000
vn -0.000001 0.000000 1.000000
vn -0.000001 0.000000 1.000000
vn -0.000001 0.000000 1.000000
vn 0.000000 -1.000000 0.000000
vn 0.000000 -1.000000 0.000000
vn 0.000000 -1.000000 0.000000
vn 0.000000 -1.000000 0.000000
vn 0.000001 0.000000 -1.000000
vn 0.000001 0.000000 -1.000000
vn 0.000001 0.000000 -1.000000
vn 0.000001 0.000000 -1.000000
vn -1.000000 0.000000 0.000000
vn -1.000000 0.000000 0.000000
vn -1.000000 0.000000 0.000000
vn -1.000000 0.000000 0.000000
vn 1.000000 0.000000 0.000000
vn 1.000000 0.000000 0.000000
vn 1.000000 0.000000 0.000000
vn 1.000000 0.000000 0.000000
vn 0.000000 1.000000 0.000000
vn 0.000000 1.000000 0.000000
vn 0.000000 1.000000 0.000000
vn 0.000000 1.000000 0.000000
vn -0.000001 0.000000 1.000000
vn -0.000001 0.000000 1.000000
vn -0.000001 0.000000 1.000000
vn -0.000001 0.000000 1.000000
vn 0.000000 -1.000000 0.000000
vn 0.000000 -1.000000 0.000000
vn 0.000000 -1.000000 0.000000
vn 0.000000 -1.000000 0.000000
vn 0.000001 0.000000 -1.000000
vn 0.000001 0.000000 -1.000000
vn 0.000001 0.000000 -1.000000
vn 0.000001 0.000000 -1.000000
vn -1.000000 0.000000 0.000000
vn -1.000000 0.000000 0.000000
vn -1.000000 0.000000 0.000000
vn -1.000000 0.000000 0.000000
vn 1.000000 0.000000 0.000000
vn 1.000000 0.000000 0.000000
vn 1.000000 0.000000 0.000000
vn 1.000000 0.000000 0.000000
vn 0.000000 1.000000 0.000000
vn 0.000000 1.000000 0.000000
vn 0.000000 1.000000 0.000000
vn 0.000000 1.000000 0.000000
vn 0.000000 0.000000 1.000000
vn 0.000000 0.000000 1.000000
vn 0.000000 0.000000 1.000000
vn 0.000000 0.000000 1.000000
vn 0.000000 -1.000000 0.000000
vn 0.000000 -1.000000 0.000000
vn 0.000000 -1.000000 0.000000
vn 0.000000 -1.000000 0.000000
vn 0.000000 0.000000 -1.000000
vn 0.000000 0.000000 -1.000000
vn 0.000000 0.000000 -1.000000
vn 0.000000 0.000000 -1.000000
vn -1.000000 0.000000 0.000000
vn -1.000000 0.000000 0.000000
vn -1.000000 0.000000 0.000000
vn -1.000000 0.000000 0.000000
vn 1.000000 0.000000 0.000000
vn 1.000000 0.000000 0.000000
vn 1.000000 0.000000 0.000000
vn 1.000000 0.000000 0.000000
vn -0.000000 1.000000 0.000003
vn -0.000000 1.000000 0.000003
vn -0.000000 1.000000 0.000003
vn -0.000000 1.000000 0.000003
vn -0.000001 0.000000 1.000000
vn -0.000001 0.000000 1.000000
vn -0.000001 0.000000 1.000000
vn -0.000001 0.000000 1.000000
vn 0.000000 -1.000000 -0.000001
vn 0.000000 -1.000000 -0.000001
vn 0.000000 -1.000000 -0.000001
vn 0.000000 -1.000000 -0.000001
vn 0.000000 0.000000 -1.000000
vn 0.000000 0.000000 -1.000000
vn 0.000000 0.000000 -1.000000
vn 0.000000 0.000000 -1.000000
vn -1.000000 0.000074 0.000000
vn -1.000000 0.000074 0.000000
vn -1.000000 0.000074 0.000000
vn -1.000000 0.000074 0.000000
vn 1.000000 0.000000 0.000000
vn 1.000000 0.000000 0.000000
vn 1.000000 0.000000 0.000000
vn 1.000000 0.000000 0.000000
vn 1.000000 0.000000 0.000000
vn 1.000000 0.000000 0.000000
vn 1.000000 0.000000 0.000000
vn 1.000000 0.000000 0.000000
vn 0.000000 0.000000 1.000000
vn 0.000000 0.000000 1.000000
vn 0.000000 0.000000 1.000000
vn 0.000000 0.000000 1.000000
vn -1.000000 0.000000 0.000000
vn -1.000000 0.000000 0.000000
vn -1.000000 0.000000 0.000000
vn -1.000000 0.000000 0.000000
vn 0.000000 0.000000 -1.000000
vn 0.000000 0.000000 -1.000000
vn 0.000000 0.000000 -1.000000
vn 0.000000 0.000000 -1.000000
vn 0.000000 1.000000 0.000000
vn 0.000000 1.000000 0.000000
vn 0.000000 1.000000 0.000000
vn 0.000000 1.000000 0.000000
vn 0.000000 -1.000000 0.000000
vn 0.000000 -1.000000 0.000000
vn 0.000000 -1.000000 0.000000
vn 0.000000 -1.000000 0.000000
vn 1.000000 -0.000003 0.000000
vn 1.000000 -0.000003 0.000000
vn 1.000000 -0.000003 0.000000
vn 1.000000 -0.000003 0.000000
vn 0.000012 -0.000000 1.000000
vn 0.000012 -0.000000 1.000000
vn 0.000012 -0.000000 1.000000
vn 0.000012 -0.000000 1.000000
vn -1.000000 0.000005 0.000000
vn -1.000000 0.000005 0.000000
vn -1.000000 0.000005 0.000000
vn -1.000000 0.000005 0.000000
vn -0.000012 0.000000 -1.000000
vn -0.000012 0.000000 -1.000000
vn -0.000012 0.000000 -1.000000
vn -0.000012 0.000000 -1.000000
vn 0.000000 1.000000 0.000000
vn 0.000000 1.000000 0.000000
vn 0.000000 1.000000 0.000000
vn 0.000000 1.000000 0.000000
vn 0.000000 -1.000000 0.000000
vn 0.000000 -1.000000 0.000000
vn 0.000000 -1.000000 0.000000
vn 0.000000 -1.000000 0.000000
s off
g polySurface6780
f 1/1/1 2/2/2 4/3/3 3/4/4
f 3/4/5 4/3/6 6/5/7 5/6/8
f 5/7/9 6/8/10 8/9/11 7/10/12
f 7/10/13 8/9/14 2/2/15 1/1/16
f 2/11/17 8/12/18 6/13/19 4/14/20
f 7/15/21 1/16/22 3/17/23 5/18/24
f 9/19/25 10/20/26 12/21/27 11/22/28
f 11/22/29 12/21/30 14/23/31 13/24/32
f 13/25/33 14/26/34 16/27/35 15/28/36
f 15/28/37 16/27/38 10/20/39 9/19/40
f 10/29/41 16/30/42 14/31/43 12/32/44
f 15/33/45 9/34/46 11/35/47 13/36/48
f 17/37/49 18/38/50 20/39/51 19/40/52
f 19/40/53 20/39/54 22/41/55 21/42/56
f 21/43/57 22/44/58 24/45/59 23/46/60
f 23/46/61 24/45/62 18/38/63 17/37/64
f 18/47/65 24/48/66 22/49/67 20/50/68
f 23/51/69 17/52/70 19/53/71 21/54/72
f 25/55/73 26/56/74 28/57/75 27/58/76
f 27/58/77 28/57/78 30/59/79 29/60/80
f 29/61/81 30/62/82 32/63/83 31/64/84
f 31/64/85 32/63/86 26/56/87 25/55/88
f 26/65/89 32/66/90 30/67/91 28/68/92
f 31/69/93 25/70/94 27/71/95 29/72/96
f 33/73/97 34/74/98 36/75/99 35/76/100
f 35/76/101 36/75/102 38/77/103 37/78/104
f 37/79/105 38/80/106 40/81/107 39/82/108
f 39/82/109 40/81/110 34/74/111 33/73/112
f 34/83/113 40/84/114 38/85/115 36/86/116
f 39/87/117 33/88/118 35/89/119 37/90/120
f 41/91/121 42/92/122 44/93/123 43/94/124
f 43/94/125 44/93/126 46/95/127 45/96/128
f 45/97/129 46/98/130 48/99/131 47/100/132
f 47/100/133 48/99/134 42/92/135 41/91/136
f 42/101/137 48/102/138 46/103/139 44/104/140
f 47/105/141 41/106/142 43/107/143 45/108/144
f 49/109/145 50/110/146 52/111/147 51/112/148
f 51/112/149 52/111/150 54/113/151 53/114/152
f 53/115/153 54/116/154 56/117/155 55/118/156
f 55/118/157 56/117/158 50/110/159 49/109/160
f 50/119/161 56/120/162 54/121/163 52/122/164
f 55/123/165 49/124/166 51/125/167 53/126/168
f 57/127/169 58/128/170 60/129/171 59/130/172
f 59/130/173 60/129/174 62/131/175 61/132/176
f 61/133/177 62/134/178 64/135/179 63/136/180
f 63/136/181 64/135/182 58/128/183 57/127/184
f 58/137/185 64/138/186 62/139/187 60/140/188
f 63/141/189 57/142/190 59/143/191 61/144/192
f 65/145/193 66/146/194 68/147/195 67/148/196
f 67/148/197 68/147/198 70/149/199 69/150/200
f 69/151/201 70/152/202 72/153/203 71/154/204
f 71/154/205 72/153/206 66/146/207 65/145/208
f 66/155/209 72/156/210 70/157/211 68/158/212
f 71/159/213 65/160/214 67/161/215 69/162/216
f 73/163/217 74/164/218 76/165/219 75/166/220
f 75/166/221 76/165/222 78/167/223 77/168/224
f 77/169/225 78/170/226 80/171/227 79/172/228
f 79/172/229 80/171/230 74/164/231 73/163/232
f 74/173/233 80/174/234 78/175/235 76/176/236
f 79/177/237 73/178/238 75/179/239 77/180/240
f 81/181/241 82/182/242 84/183/243 83/184/244
f 83/184/245 84/183/246 86/185/247 85/186/248
f 85/187/249 86/188/250 88/189/251 87/190/252
f 87/190/253 88/189/254 82/182/255 81/181/256
f 82/191/257 88/192/258 86/193/259 84/194/260
f 87/195/261 81/196/262 83/197/263 85/198/264
f 89/199/265 90/200/266 92/201/267 91/202/268
f 91/202/269 92/201/270 94/203/271 93/204/272
f 93/205/273 94/206/274 96/207/275 95/208/276
f 95/208/277 96/207/278 90/200/279 89/199/280
f 90/209/281 96/210/282 94/211/283 92/212/284
f 95/213/285 89/214/286 91/215/287 93/216/288
f 97/217/289 98/218/290 100/219/291 99/220/292
f 99/220/293 100/219/294 102/221/295 101/222/296
f 101/223/297 102/224/298 104/225/299 103/226/300
f 103/226/301 104/225/302 98/218/303 97/217/304
f 98/227/305 104/228/306 102/229/307 100/230/308
f 103/231/309 97/232/310 99/233/311 101/234/312
f 105/235/313 106/236/314 108/237/315 107/238/316
f 107/238/317 108/237/318 110/239/319 109/240/320
f 109/241/321 110/242/322 112/243/323 111/244/324
f 111/244/325 112/243/326 106/236/327 105/235/328
f 106/245/329 112/246/330 110/247/331 108/248/332
f 111/249/333 105/250/334 107/251/335 109/252/336
f 113/253/337 114/254/338 116/255/339 115/256/340
f 115/256/341 116/255/342 118/257/343 117/258/344
f 117/259/345 118/260/346 120/261/347 119/262/348
f 119/262/349 120/261/350 114/254/351 113/253/352
f 114/263/353 120/264/354 118/265/355 116/266/356
f 119/267/357 113/268/358 115/269/359 117/270/360
f 121/271/361 122/272/362 124/273/363 123/274/364
f 123/274/365 124/273/366 126/275/367 125/276/368
f 125/277/369 126/278/370 128/279/371 127/280/372
f 127/280/373 128/279/374 122/272/375 121/271/376
f 122/281/377 128/282/378 126/283/379 124/284/380
f 127/285/381 121/286/382 123/287/383 125/288/384
f 129/289/385 130/290/386 132/291/387 131/292/388
f 131/292/389 132/291/390 134/293/391 133/294/392
f 133/295/393 134/296/394 136/297/395 135/298/396
f 135/298/397 136/297/398 130/290/399 129/289/400
f 130/299/401 136/300/402 134/301/403 132/302/404
f 135/303/405 129/304/406 131/305/407 133/306/408
f 137/307/409 138/308/410 140/309/411 139/310/412
f 139/310/413 140/309/414 142/311/415 141/312/416
f 141/313/417 142/314/418 144/315/419 143/316/420
f 143/316/421 144/315/422 138/308/423 137/307/424
f 138/317/425 144/318/426 142/319/427 140/320/428
f 143/321/429 137/322/430 139/323/431 141/324/432
f 145/325/433 146/326/434 148/327/435 147/328/436
f 147/328/437 148/327/438 150/329/439 149/330/440
f 149/331/441 150/332/442 152/333/443 151/334/444
f 151/334/445 152/333/446 146/326/447 145/325/448
f 146/335/449 152/336/450 150/337/451 148/338/452
f 151/339/453 145/340/454 147/341/455 149/342/456
f 153/343/457 154/344/458 156/345/459 155/346/460
f 155/346/461 156/345/462 158/347/463 157/348/464
f 157/349/465 158/350/466 160/351/467 159/352/468
f 159/352/469 160/351/470 154/344/471 153/343/472
f 154/353/473 160/354/474 158/355/475 156/356/476
f 159/357/477 153/358/478 155/359/479 157/360/480
f 161/361/481 162/362/482 164/363/483 163/364/484
f 163/364/485 164/363/486 166/365/487 165/366/488
f 165/367/489 166/368/490 168/369/491 167/370/492
f 167/370/493 168/369/494 162/362/495 161/361/496
f 162/371/497 168/372/498 166/373/499 164/374/500
f 167/375/501 161/376/502 163/377/503 165/378/504
f 169/379/505 170/380/506 172/381/507 171/382/508
f 171/382/509 172/381/510 174/383/511 173/384/512
f 173/385/513 174/386/514 176/387/515 175/388/516
f 175/388/517 176/387/518 170/380/519 169/379/520
f 170/389/521 176/390/522 174/391/523 172/392/524
f 175/393/525 169/394/526 171/395/527 173/396/528
f 177/397/529 178/398/530 180/399/531 179/400/532
f 179/400/533 180/399/534 182/401/535 181/402/536
f 181/403/537 182/404/538 184/405/539 183/406/540
f 183/406/541 184/405/542 178/398/543 177/397/544
f 178/407/545 184/408/546 182/409/547 180/410/548
f 183/411/549 177/412/550 179/413/551 181/414/552
f 185/415/553 186/416/554 188/417/555 187/418/556
f 187/418/557 188/417/558 190/419/559 189/420/560
f 189/421/561 190/422/562 192/423/563 191/424/564
f 191/424/565 192/423/566 186/416/567 185/415/568
f 186/425/569 192/426/570 190/427/571 188/428/572
f 191/429/573 185/430/574 187/431/575 189/432/576
f 193/433/577 194/434/578 196/435/579 195/436/580
f 195/436/581 196/435/582 198/437/583 197/438/584
f 197/439/585 198/440/586 200/441/587 199/442/588
f 199/442/589 200/441/590 194/434/591 193/433/592
f 194/443/593 200/444/594 198/445/595 196/446/596
f 199/447/597 193/448/598 195/449/599 197/450/600
f 201/451/601 202/452/602 204/453/603 203/454/604
f 203/454/605 204/453/606 206/455/607 205/456/608
f 205/457/609 206/458/610 208/459/611 207/460/612
f 207/460/613 208/459/614 202/452/615 201/451/616
f 202/461/617 208/462/618 206/463/619 204/464/620
f 207/465/621 201/466/622 203/467/623 205/468/624
f 209/469/625 210/470/626 212/471/627 211/472/628
f 211/472/629 212/471/630 214/473/631 213/474/632
f 213/475/633 214/476/634 216/477/635 215/478/636
f 215/478/637 216/477/638 210/470/639 209/469/640
f 210/479/641 216/480/642 214/481/643 212/482/644
f 215/483/645 209/484/646 211/485/647 213/486/648
f 217/487/649 218/488/650 220/489/651 219/490/652
f 219/490/653 220/489/654 222/491/655 221/492/656
f 221/493/657 222/494/658 224/495/659 223/496/660
f 223/496/661 224/495/662 218/488/663 217/487/664
f 218/497/665 224/498/666 222/499/667 220/500/668
f 223/501/669 217/502/670 219/503/671 221/504/672
f 225/505/673 226/506/674 228/507/675 227/508/676
f 227/508/677 228/507/678 230/509/679 229/510/680
f 229/511/681 230/512/682 232/513/683 231/514/684
f 231/514/685 232/513/686 226/506/687 225/505/688
f 226/515/689 232/516/690 230/517/691 228/518/692
f 231/519/693 225/520/694 227/521/695 229/522/696
f 233/523/697 234/524/698 236/525/699 235/526/700
f 235/526/701 236/525/702 238/527/703 237/528/704
f 237/529/705 238/530/706 240/531/707 239/532/708
f 239/532/709 240/531/710 234/524/711 233/523/712
f 234/533/713 240/534/714 238/535/715 236/536/716
f 239/537/717 233/538/718 235/539/719 237/540/720
f 241/541/721 242/542/722 244/543/723 243/544/724
f 243/544/725 244/543/726 246/545/727 245/546/728
f 245/547/729 246/548/730 248/549/731 247/550/732
f 247/550/733 248/549/734 242/542/735 241/541/736
f 242/551/737 248/552/738 246/553/739 244/554/740
f 247/555/741 241/556/742 243/557/743 245/558/744
f 249/559/745 250/560/746 252/561/747 251/562/748
f 251/562/749 252/561/750 254/563/751 253/564/752
f 253/565/753 254/566/754 256/567/755 255/568/756
f 255/568/757 256/567/758 250/560/759 249/559/760
f 250/569/761 256/570/762 254/571/763 252/572/764
f 255/573/765 249/574/766 251/575/767 253/576/768
f 257/577/769 258/578/770 260/579/771 259/580/772
f 259/580/773 260/579/774 262/581/775 261/582/776
f 261/583/777 262/584/778 264/585/779 263/586/780
f 263/586/781 264/585/782 258/578/783 257/577/784
f 258/587/785 264/588/786 262/589/787 260/590/788
f 263/591/789 257/592/790 259/593/791 261/594/792
f 265/595/793 266/596/794 268/597/795 267/598/796
f 267/598/797 268/597/798 270/599/799 269/600/800
f 269/601/801 270/602/802 272/603/803 271/604/804
f 271/604/805 272/603/806 266/596/807 265/595/808
f 266/605/809 272/606/810 270/607/811 268/608/812
f 271/609/813 265/610/814 267/611/815 269/612/816
f 273/613/817 274/614/818 276/615/819 275/616/820
f 275/616/821 276/615/822 278/617/823 277/618/824
f 277/619/825 278/620/826 280/621/827 279/622/828
f 279/622/829 280/621/830 274/614/831 273/613/832
f 274/623/833 280/624/834 278/625/835 276/626/836
f 279/627/837 273/628/838 275/629/839 277/630/840
f 281/631/841 282/632/842 284/633/843 283/634/844
f 283/634/845 284/633/846 286/635/847 285/636/848
f 285/637/849 286/638/850 288/639/851 287/640/852
f 287/640/853 288/639/854 282/632/855 281/631/856
f 282/641/857 288/642/858 286/643/859 284/644/860
f 287/645/861 281/646/862 283/647/863 285/648/864
f 289/649/865 290/650/866 292/651/867 291/652/868
f 291/652/869 292/651/870 294/653/871 293/654/872
f 293/655/873 294/656/874 296/657/875 295/658/876
f 295/658/877 296/657/878 290/650/879 289/649/880
f 290/659/881 296/660/882 294/661/883 292/662/884
f 295/663/885 289/664/886 291/665/887 293/666/888
f 297/667/889 298/668/890 300/669/891 299/670/892
f 299/670/893 300/669/894 302/671/895 301/672/896
f 301/673/897 302/674/898 304/675/899 303/676/900
f 303/676/901 304/675/902 298/668/903 297/667/904
f 298/677/905 304/678/906 302/679/907 300/680/908
f 303/681/909 297/682/910 299/683/911 301/684/912
