# This file uses centimeters as units for non-parametric coordinates.

g default
v -35.429359 0.262305 -0.020807
v -35.429359 0.371168 -0.020807
v -35.429359 0.262305 0.020807
v -35.429359 0.371168 0.020807
v -35.467850 0.262305 0.020807
v -35.467850 0.371168 0.020807
v -35.467850 0.262305 -0.020807
v -35.467850 0.371168 -0.020807
v -35.915855 0.639929 -0.020807
v -34.986954 0.639929 -0.020807
v -35.915855 0.639929 0.020807
v -34.986954 0.639929 0.020807
v -35.915855 0.678418 0.020807
v -34.986954 0.678418 0.020807
v -35.915855 0.678418 -0.020807
v -34.986954 0.678418 -0.020807
v -35.915855 0.371168 -0.020807
v -34.986954 0.371168 -0.020807
v -35.915855 0.371168 0.020807
v -34.986954 0.371168 0.020807
v -35.915855 0.409658 0.020807
v -34.986954 0.409658 0.020807
v -35.915855 0.409658 -0.020807
v -34.986954 0.409658 -0.020807
v -35.526913 0.409658 -0.020807
v -35.526913 0.639929 -0.020807
v -35.526913 0.409658 0.020807
v -35.526913 0.639929 0.020807
v -35.565403 0.409658 0.020807
v -35.565403 0.639929 0.020807
v -35.565403 0.409658 -0.020807
v -35.565403 0.639929 -0.020807
v -35.338791 0.409658 -0.020807
v -35.338791 0.639929 -0.020807
v -35.338791 0.409658 0.020807
v -35.338791 0.639929 0.020807
v -35.377277 0.409658 0.020807
v -35.377277 0.639929 0.020807
v -35.377277 0.409658 -0.020807
v -35.377277 0.639929 -0.020807
v -35.915855 0.262305 -0.020808
v -35.915855 0.799730 -0.020808
v -35.915855 0.262305 0.020807
v -35.915855 0.799730 0.020807
v -35.954346 0.262305 0.020807
v -35.954346 0.799730 0.020807
v -35.954346 0.262305 -0.020808
v -35.954346 0.799730 -0.020808
v -35.429359 0.678418 -0.020807
v -35.429359 0.799730 -0.020807
v -35.429359 0.678418 0.020807
v -35.429359 0.799730 0.020807
v -35.467850 0.678418 0.020807
v -35.467850 0.799730 0.020807
v -35.467850 0.678418 -0.020807
v -35.467850 0.799730 -0.020807
v -36.060585 0.223815 -0.020807
v -34.847290 0.223815 -0.020807
v -36.060585 0.223815 0.020807
v -34.847290 0.223815 0.020807
v -36.060585 0.262304 0.020807
v -34.847290 0.262304 0.020807
v -36.060585 0.262304 -0.020807
v -34.847290 0.262304 -0.020807
v -36.060585 0.799730 -0.020807
v -34.847290 0.799730 -0.020807
v -36.060585 0.799730 0.020807
v -34.847290 0.799730 0.020807
v -36.060585 0.838220 0.020807
v -34.847290 0.838220 0.020807
v -36.060585 0.838220 -0.020807
v -34.847290 0.838220 -0.020807
v -34.808800 0.073423 -0.020808
v -34.808800 0.988944 -0.020808
v -34.808800 0.073423 0.020807
v -34.808800 0.988944 0.020807
v -34.847290 0.073423 0.020807
v -34.847290 0.988944 0.020807
v -34.847290 0.073423 -0.020808
v -34.847290 0.988944 -0.020808
v -34.948467 0.262305 -0.020808
v -34.948467 0.799730 -0.020808
v -34.948467 0.262305 0.020807
v -34.948467 0.799730 0.020807
v -34.986954 0.262305 0.020807
v -34.986954 0.799730 0.020807
v -34.986954 0.262305 -0.020808
v -34.986954 0.799730 -0.020808
v -35.714821 0.111913 -0.020807
v -35.714821 0.223815 -0.020807
v -35.714821 0.111913 0.020807
v -35.714821 0.223815 0.020807
v -35.753311 0.111913 0.020807
v -35.753311 0.223815 0.020807
v -35.753311 0.111913 -0.020807
v -35.753311 0.223815 -0.020807
v -35.145767 0.111913 -0.020807
v -35.145767 0.223815 -0.020807
v -35.145767 0.111913 0.020807
v -35.145767 0.223815 0.020807
v -35.184258 0.111913 0.020807
v -35.184258 0.223815 0.020807
v -35.184258 0.111913 -0.020807
v -35.184258 0.223815 -0.020807
v -36.060585 0.073422 -0.020807
v -34.847290 0.073422 -0.020807
v -36.060585 0.073422 0.020807
v -34.847290 0.073422 0.020807
v -36.060585 0.111913 0.020807
v -34.847290 0.111913 0.020807
v -36.060585 0.111913 -0.020807
v -34.847290 0.111913 -0.020807
v -35.145767 0.838553 -0.020807
v -35.145767 0.950455 -0.020807
v -35.145767 0.838553 0.020807
v -35.145767 0.950455 0.020807
v -35.184258 0.838553 0.020807
v -35.184258 0.950455 0.020807
v -35.184258 0.838553 -0.020807
v -35.184258 0.950455 -0.020807
v -35.714821 0.838553 -0.020807
v -35.714821 0.950455 -0.020807
v -35.714821 0.838553 0.020807
v -35.714821 0.950455 0.020807
v -35.753311 0.838553 0.020807
v -35.753311 0.950455 0.020807
v -35.753311 0.838553 -0.020807
v -35.753311 0.950455 -0.020807
v -36.060585 0.950455 -0.020807
v -34.847290 0.950455 -0.020807
v -36.060585 0.950455 0.020807
v -34.847290 0.950455 0.020807
v -36.060585 0.988944 0.020807
v -34.847290 0.988944 0.020807
v -36.060585 0.988944 -0.020807
v -34.847290 0.988944 -0.020807
v -36.060585 0.073423 -0.020808
v -36.060585 0.988944 -0.020808
v -36.060585 0.073423 0.020807
v -36.060585 0.988944 0.020807
v -36.099075 0.073423 0.020807
v -36.099075 0.988944 0.020807
v -36.099075 0.073423 -0.020808
v -36.099075 0.988944 -0.020808
v -34.847290 0.540422 -0.020807
v -34.948467 0.540422 -0.020807
v -34.847290 0.540422 0.020807
v -34.948467 0.540422 0.020807
v -34.847290 0.501932 0.020807
v -34.948467 0.501932 0.020807
v -34.847290 0.501932 -0.020807
v -34.948467 0.501932 -0.020807
v -35.955872 0.540422 -0.020807
v -36.060585 0.540422 -0.020807
v -35.955872 0.540422 0.020807
v -36.060585 0.540422 0.020807
v -35.955872 0.501932 0.020807
v -36.060585 0.501932 0.020807
v -35.955872 0.501932 -0.020807
v -36.060585 0.501932 -0.020807
vt 1.472840 0.499897
vt -0.380127 0.500138
vt -0.380121 0.272692
vt 1.472840 0.272946
vt -0.380085 0.045513
vt 1.472800 0.045904
vt 1.472800 0.954309
vt -0.380085 0.954218
vt -0.380115 0.727310
vt 1.472847 0.727056
vt 0.000007 0.500128
vt 0.135427 0.500362
vt 0.135427 0.727285
vt 0.000007 0.727051
vt 1.000007 0.273300
vt 1.144164 0.277201
vt 1.144164 0.503889
vt 1.000007 0.499989
vt 0.578384 0.500019
vt -0.252485 0.500130
vt -0.252481 0.272703
vt 0.578385 0.272821
vt -0.252447 0.045535
vt 0.578382 0.045722
vt 0.578382 0.954247
vt -0.252448 0.954211
vt -0.252475 0.727298
vt 0.578392 0.727181
vt 0.000007 0.500128
vt 0.135427 0.500362
vt 0.135427 0.727285
vt 0.000007 0.727051
vt 1.000014 0.273312
vt 1.144157 0.277212
vt 1.144157 0.503878
vt 1.000014 0.499978
vt 0.578384 0.500019
vt -0.252485 0.500130
vt -0.252481 0.272703
vt 0.578385 0.272821
vt -0.252447 0.045535
vt 0.578382 0.045722
vt 0.578382 0.954247
vt -0.252448 0.954211
vt -0.252475 0.727298
vt 0.578392 0.727181
vt 0.000007 0.500128
vt 0.135427 0.500362
vt 0.135427 0.727285
vt 0.000007 0.727051
vt 1.000014 0.273312
vt 1.144157 0.277212
vt 1.144157 0.503878
vt 1.000014 0.499978
vt 0.514307 0.500009
vt -0.188424 0.500085
vt -0.188424 0.272759
vt 0.514303 0.272843
vt -0.188381 0.045529
vt 0.514306 0.045687
vt 0.514306 0.954302
vt -0.188381 0.954309
vt -0.188418 0.727243
vt 0.514309 0.727159
vt 0.000007 0.500128
vt 0.135427 0.500362
vt 0.135427 0.727285
vt 0.000007 0.727051
vt 1.000022 0.273323
vt 1.144150 0.277223
vt 1.144150 0.503866
vt 1.000022 0.499967
vt 0.514307 0.500009
vt -0.188424 0.500085
vt -0.188424 0.272759
vt 0.514303 0.272843
vt -0.188381 0.045529
vt 0.514306 0.045687
vt 0.514306 0.954302
vt -0.188381 0.954309
vt -0.188418 0.727243
vt 0.514309 0.727159
vt 0.000007 0.500128
vt 0.135427 0.500362
vt 0.135427 0.727285
vt 0.000007 0.727051
vt 1.000022 0.273323
vt 1.144150 0.277223
vt 1.144150 0.503866
vt 1.000022 0.499967
vt 0.514307 0.500009
vt -0.571344 0.500034
vt -0.571282 0.272791
vt 0.514303 0.272843
vt -0.571163 0.045760
vt 0.514306 0.045687
vt 0.514306 0.954302
vt -0.571163 0.954178
vt -0.571276 0.727211
vt 0.514309 0.727159
vt 0.000148 0.500365
vt 0.135286 0.500599
vt 0.135286 0.727048
vt 0.000148 0.726814
vt 1.000022 0.273323
vt 1.144150 0.277223
vt 1.144150 0.503866
vt 1.000022 0.499967
vt 1.472840 0.499897
vt -0.380127 0.500138
vt -0.380121 0.272692
vt 1.472840 0.272946
vt -0.380085 0.045513
vt 1.472800 0.045904
vt 1.472800 0.954309
vt -0.380085 0.954218
vt -0.380115 0.727310
vt 1.472847 0.727056
vt 0.000007 0.500128
vt 0.135427 0.500362
vt 0.135427 0.727285
vt 0.000007 0.727051
vt 1.000007 0.273300
vt 1.144164 0.277201
vt 1.144164 0.503889
vt 1.000007 0.499989
vt 0.578384 0.500019
vt -0.252485 0.500130
vt -0.252481 0.272703
vt 0.578385 0.272821
vt -0.252447 0.045535
vt 0.578382 0.045722
vt 0.578382 0.954247
vt -0.252448 0.954211
vt -0.252475 0.727298
vt 0.578392 0.727181
vt 0.000007 0.500128
vt 0.135427 0.500362
vt 0.135427 0.727285
vt 0.000007 0.727051
vt 1.000014 0.273312
vt 1.144157 0.277212
vt 1.144157 0.503878
vt 1.000014 0.499978
vt 0.578384 0.500019
vt -0.252485 0.500130
vt -0.252481 0.272703
vt 0.578385 0.272821
vt -0.252447 0.045535
vt 0.578382 0.045722
vt 0.578382 0.954247
vt -0.252448 0.954211
vt -0.252475 0.727298
vt 0.578392 0.727181
vt 0.000007 0.500128
vt 0.135427 0.500362
vt 0.135427 0.727285
vt 0.000007 0.727051
vt 1.000014 0.273312
vt 1.144157 0.277212
vt 1.144157 0.503878
vt 1.000014 0.499978
vt 0.514307 0.500009
vt -0.571344 0.500034
vt -0.571282 0.272791
vt 0.514303 0.272843
vt -0.571163 0.045760
vt 0.514306 0.045687
vt 0.514306 0.954302
vt -0.571163 0.954178
vt -0.571276 0.727211
vt 0.514309 0.727159
vt 0.000148 0.500365
vt 0.135286 0.500599
vt 0.135286 0.727048
vt 0.000148 0.726814
vt 1.000022 0.273323
vt 1.144150 0.277223
vt 1.144150 0.503866
vt 1.000022 0.499967
vt 0.514307 0.500009
vt -0.571344 0.500034
vt -0.571282 0.272791
vt 0.514303 0.272843
vt -0.571163 0.045760
vt 0.514306 0.045687
vt 0.514306 0.954302
vt -0.571163 0.954178
vt -0.571276 0.727211
vt 0.514309 0.727159
vt 0.000148 0.500365
vt 0.135286 0.500599
vt 0.135286 0.727048
vt 0.000148 0.726814
vt 1.000022 0.273323
vt 1.144150 0.277223
vt 1.144150 0.503866
vt 1.000022 0.499967
vt 1.472840 0.499897
vt -0.380127 0.500138
vt -0.380121 0.272692
vt 1.472840 0.272946
vt -0.380085 0.045513
vt 1.472800 0.045904
vt 1.472800 0.954309
vt -0.380085 0.954218
vt -0.380115 0.727310
vt 1.472847 0.727056
vt 0.000007 0.500128
vt 0.135427 0.500362
vt 0.135427 0.727285
vt 0.000007 0.727051
vt 1.000007 0.273300
vt 1.144164 0.277201
vt 1.144164 0.503889
vt 1.000007 0.499989
vt 1.472840 0.499897
vt -0.380127 0.500138
vt -0.380121 0.272692
vt 1.472840 0.272946
vt -0.380085 0.045513
vt 1.472800 0.045904
vt 1.472800 0.954309
vt -0.380085 0.954218
vt -0.380115 0.727310
vt 1.472847 0.727056
vt 0.000007 0.500128
vt 0.135427 0.500362
vt 0.135427 0.727285
vt 0.000007 0.727051
vt 1.000007 0.273300
vt 1.144164 0.277201
vt 1.144164 0.503889
vt 1.000007 0.499989
vt 0.578384 0.500019
vt -0.252485 0.500130
vt -0.252481 0.272703
vt 0.578385 0.272821
vt -0.252447 0.045535
vt 0.578382 0.045722
vt 0.578382 0.954247
vt -0.252448 0.954211
vt -0.252475 0.727298
vt 0.578392 0.727181
vt 0.000007 0.500128
vt 0.135427 0.500362
vt 0.135427 0.727285
vt 0.000007 0.727051
vt 1.000014 0.273312
vt 1.144157 0.277212
vt 1.144157 0.503878
vt 1.000014 0.499978
vt 1.472840 0.499897
vt -0.380127 0.500138
vt -0.380121 0.272692
vt 1.472840 0.272946
vt -0.380085 0.045513
vt 1.472800 0.045904
vt 1.472800 0.954309
vt -0.380085 0.954218
vt -0.380115 0.727310
vt 1.472847 0.727056
vt 0.000007 0.500128
vt 0.135427 0.500362
vt 0.135427 0.727285
vt 0.000007 0.727051
vt 1.000007 0.273300
vt 1.144164 0.277201
vt 1.144164 0.503889
vt 1.000007 0.499989
vt 1.472840 0.499897
vt -0.380127 0.500138
vt -0.380121 0.272692
vt 1.472840 0.272946
vt -0.380085 0.045513
vt 1.472800 0.045904
vt 1.472800 0.954309
vt -0.380085 0.954218
vt -0.380115 0.727310
vt 1.472847 0.727056
vt 0.000007 0.500128
vt 0.135427 0.500362
vt 0.135427 0.727285
vt 0.000007 0.727051
vt 1.000007 0.273300
vt 1.144164 0.277201
vt 1.144164 0.503889
vt 1.000007 0.499989
vt 0.578384 0.500019
vt -0.252485 0.500130
vt -0.252481 0.272703
vt 0.578385 0.272821
vt -0.252447 0.045535
vt 0.578382 0.045722
vt 0.578382 0.954247
vt -0.252448 0.954211
vt -0.252475 0.727298
vt 0.578392 0.727181
vt 0.000007 0.500128
vt 0.135427 0.500362
vt 0.135427 0.727285
vt 0.000007 0.727051
vt 1.000014 0.273312
vt 1.144157 0.277212
vt 1.144157 0.503878
vt 1.000014 0.499978
vt 0.514307 0.500009
vt -0.571344 0.500034
vt -0.571282 0.272791
vt 0.514303 0.272843
vt -0.571163 0.045760
vt 0.514306 0.045687
vt 0.514306 0.954302
vt -0.571163 0.954178
vt -0.571276 0.727211
vt 0.514309 0.727159
vt 0.000148 0.500365
vt 0.135286 0.500599
vt 0.135286 0.727048
vt 0.000148 0.726814
vt 1.000022 0.273323
vt 1.144150 0.277223
vt 1.144150 0.503866
vt 1.000022 0.499967
vt 1.472840 0.499897
vt -0.380127 0.500138
vt -0.380121 0.272692
vt 1.472840 0.272946
vt -0.380085 0.045513
vt 1.472800 0.045904
vt 1.472800 0.954309
vt -0.380085 0.954218
vt -0.380115 0.727310
vt 1.472847 0.727056
vt 0.000007 0.500128
vt 0.135427 0.500362
vt 0.135427 0.727285
vt 0.000007 0.727051
vt 1.000007 0.273300
vt 1.144164 0.277201
vt 1.144164 0.503889
vt 1.000007 0.499989
vt 1.472840 0.499897
vt -0.380127 0.500138
vt -0.380121 0.272692
vt 1.472840 0.272946
vt -0.380085 0.045513
vt 1.472800 0.045904
vt 1.472800 0.954309
vt -0.380085 0.954218
vt -0.380115 0.727310
vt 1.472847 0.727056
vt 0.000007 0.500128
vt 0.135427 0.500362
vt 0.135427 0.727285
vt 0.000007 0.727051
vt 1.000007 0.273300
vt 1.144164 0.277201
vt 1.144164 0.503889
vt 1.000007 0.499989
vn 1.000000 0.000000 0.000000
vn 1.000000 0.000000 0.000000
vn 1.000000 0.000000 0.000000
vn 1.000000 0.000000 0.000000
vn 0.000000 0.000000 1.000000
vn 0.000000 0.000000 1.000000
vn 0.000000 0.000000 1.000000
vn 0.000000 0.000000 1.000000
vn -1.000000 0.000000 0.000000
vn -1.000000 0.000000 0.000000
vn -1.000000 0.000000 0.000000
vn -1.000000 0.000000 0.000000
vn 0.000000 0.000000 -1.000000
vn 0.000000 0.000000 -1.000000
vn 0.000000 0.000000 -1.000000
vn 0.000000 0.000000 -1.000000
vn 0.000000 1.000000 0.000000
vn 0.000000 1.000000 0.000000
vn 0.000000 1.000000 0.000000
vn 0.000000 1.000000 0.000000
vn 0.000000 -1.000000 0.000000
vn 0.000000 -1.000000 0.000000
vn 0.000000 -1.000000 0.000000
vn 0.000000 -1.000000 0.000000
vn 0.000000 -1.000000 0.000000
vn 0.000000 -1.000000 0.000000
vn 0.000000 -1.000000 0.000000
vn 0.000000 -1.000000 0.000000
vn 0.000000 0.000000 1.000000
vn 0.000000 0.000000 1.000000
vn 0.000000 0.000000 1.000000
vn 0.000000 0.000000 1.000000
vn 0.000000 1.000000 0.000000
vn 0.000000 1.000000 0.000000
vn 0.000000 1.000000 0.000000
vn 0.000000 1.000000 0.000000
vn 0.000000 0.000000 -1.000000
vn 0.000000 0.000000 -1.000000
vn 0.000000 0.000000 -1.000000
vn 0.000000 0.000000 -1.000000
vn 1.000000 0.000000 0.000000
vn 1.000000 0.000000 0.000000
vn 1.000000 0.000000 0.000000
vn 1.000000 0.000000 0.000000
vn -1.000000 0.000000 0.000000
vn -1.000000 0.000000 0.000000
vn -1.000000 0.000000 0.000000
vn -1.000000 0.000000 0.000000
vn 0.000000 -1.000000 0.000000
vn 0.000000 -1.000000 0.000000
vn 0.000000 -1.000000 0.000000
vn 0.000000 -1.000000 0.000000
vn 0.000000 0.000000 1.000000
vn 0.000000 0.000000 1.000000
vn 0.000000 0.000000 1.000000
vn 0.000000 0.000000 1.000000
vn 0.000000 1.000000 0.000000
vn 0.000000 1.000000 0.000000
vn 0.000000 1.000000 0.000000
vn 0.000000 1.000000 0.000000
vn 0.000000 0.000000 -1.000000
vn 0.000000 0.000000 -1.000000
vn 0.000000 0.000000 -1.000000
vn 0.000000 0.000000 -1.000000
vn 1.000000 0.000000 0.000000
vn 1.000000 0.000000 0.000000
vn 1.000000 0.000000 0.000000
vn 1.000000 0.000000 0.000000
vn -1.000000 0.000000 0.000000
vn -1.000000 0.000000 0.000000
vn -1.000000 0.000000 0.000000
vn -1.000000 0.000000 0.000000
vn 1.000000 0.000000 0.000000
vn 1.000000 0.000000 0.000000
vn 1.000000 0.000000 0.000000
vn 1.000000 0.000000 0.000000
vn 0.000000 0.000000 1.000000
vn 0.000000 0.000000 1.000000
vn 0.000000 0.000000 1.000000
vn 0.000000 0.000000 1.000000
vn -1.000000 0.000000 0.000000
vn -1.000000 0.000000 0.000000
vn -1.000000 0.000000 0.000000
vn -1.000000 0.000000 0.000000
vn 0.000000 0.000000 -1.000000
vn 0.000000 0.000000 -1.000000
vn 0.000000 0.000000 -1.000000
vn 0.000000 0.000000 -1.000000
vn 0.000000 1.000000 0.000000
vn 0.000000 1.000000 0.000000
vn 0.000000 1.000000 0.000000
vn 0.000000 1.000000 0.000000
vn 0.000000 -1.000000 0.000000
vn 0.000000 -1.000000 0.000000
vn 0.000000 -1.000000 0.000000
vn 0.000000 -1.000000 0.000000
vn 1.000000 0.000000 0.000000
vn 1.000000 0.000000 0.000000
vn 1.000000 0.000000 0.000000
vn 1.000000 0.000000 0.000000
vn 0.000000 0.000000 1.000000
vn 0.000000 0.000000 1.000000
vn 0.000000 0.000000 1.000000
vn 0.000000 0.000000 1.000000
vn -1.000000 0.000000 0.000000
vn -1.000000 0.000000 0.000000
vn -1.000000 0.000000 0.000000
vn -1.000000 0.000000 0.000000
vn 0.000000 0.000000 -1.000000
vn 0.000000 0.000000 -1.000000
vn 0.000000 0.000000 -1.000000
vn 0.000000 0.000000 -1.000000
vn 0.000000 1.000000 0.000000
vn 0.000000 1.000000 0.000000
vn 0.000000 1.000000 0.000000
vn 0.000000 1.000000 0.000000
vn 0.000000 -1.000000 0.000000
vn 0.000000 -1.000000 0.000000
vn 0.000000 -1.000000 0.000000
vn 0.000000 -1.000000 0.000000
vn 1.000000 0.000000 0.000000
vn 1.000000 0.000000 0.000000
vn 1.000000 0.000000 0.000000
vn 1.000000 0.000000 0.000000
vn 0.000000 0.000000 1.000000
vn 0.000000 0.000000 1.000000
vn 0.000000 0.000000 1.000000
vn 0.000000 0.000000 1.000000
vn -1.000000 0.000000 0.000000
vn -1.000000 0.000000 0.000000
vn -1.000000 0.000000 0.000000
vn -1.000000 0.000000 0.000000
vn 0.000000 0.000000 -1.000000
vn 0.000000 0.000000 -1.000000
vn 0.000000 0.000000 -1.000000
vn 0.000000 0.000000 -1.000000
vn 0.000000 1.000000 0.000000
vn 0.000000 1.000000 0.000000
vn 0.000000 1.000000 0.000000
vn 0.000000 1.000000 0.000000
vn 0.000000 -1.000000 0.000000
vn 0.000000 -1.000000 0.000000
vn 0.000000 -1.000000 0.000000
vn 0.000000 -1.000000 0.000000
vn 1.000000 0.000000 0.000000
vn 1.000000 0.000000 0.000000
vn 1.000000 0.000000 0.000000
vn 1.000000 0.000000 0.000000
vn 0.000000 0.000000 1.000000
vn 0.000000 0.000000 1.000000
vn 0.000000 0.000000 1.000000
vn 0.000000 0.000000 1.000000
vn -1.000000 0.000000 0.000000
vn -1.000000 0.000000 0.000000
vn -1.000000 0.000000 0.000000
vn -1.000000 0.000000 0.000000
vn 0.000000 0.000000 -1.000000
vn 0.000000 0.000000 -1.000000
vn 0.000000 0.000000 -1.000000
vn 0.000000 0.000000 -1.000000
vn 0.000000 1.000000 0.000000
vn 0.000000 1.000000 0.000000
vn 0.000000 1.000000 0.000000
vn 0.000000 1.000000 0.000000
vn 0.000000 -1.000000 0.000000
vn 0.000000 -1.000000 0.000000
vn 0.000000 -1.000000 0.000000
vn 0.000000 -1.000000 0.000000
vn 0.000000 -1.000000 0.000000
vn 0.000000 -1.000000 0.000000
vn 0.000000 -1.000000 0.000000
vn 0.000000 -1.000000 0.000000
vn 0.000000 0.000000 1.000000
vn 0.000000 0.000000 1.000000
vn 0.000000 0.000000 1.000000
vn 0.000000 0.000000 1.000000
vn 0.000000 1.000000 0.000000
vn 0.000000 1.000000 0.000000
vn 0.000000 1.000000 0.000000
vn 0.000000 1.000000 0.000000
vn 0.000000 0.000000 -1.000000
vn 0.000000 0.000000 -1.000000
vn 0.000000 0.000000 -1.000000
vn 0.000000 0.000000 -1.000000
vn 1.000000 0.000000 0.000000
vn 1.000000 0.000000 0.000000
vn 1.000000 0.000000 0.000000
vn 1.000000 0.000000 0.000000
vn -1.000000 0.000000 0.000000
vn -1.000000 0.000000 0.000000
vn -1.000000 0.000000 0.000000
vn -1.000000 0.000000 0.000000
vn 0.000000 -1.000000 0.000000
vn 0.000000 -1.000000 0.000000
vn 0.000000 -1.000000 0.000000
vn 0.000000 -1.000000 0.000000
vn 0.000000 0.000000 1.000000
vn 0.000000 0.000000 1.000000
vn 0.000000 0.000000 1.000000
vn 0.000000 0.000000 1.000000
vn 0.000000 1.000000 0.000000
vn 0.000000 1.000000 0.000000
vn 0.000000 1.000000 0.000000
vn 0.000000 1.000000 0.000000
vn 0.000000 0.000000 -1.000000
vn 0.000000 0.000000 -1.000000
vn 0.000000 0.000000 -1.000000
vn 0.000000 0.000000 -1.000000
vn 1.000000 0.000000 0.000000
vn 1.000000 0.000000 0.000000
vn 1.000000 0.000000 0.000000
vn 1.000000 0.000000 0.000000
vn -1.000000 0.000000 0.000000
vn -1.000000 0.000000 0.000000
vn -1.000000 0.000000 0.000000
vn -1.000000 0.000000 0.000000
vn 1.000000 0.000000 0.000000
vn 1.000000 0.000000 0.000000
vn 1.000000 0.000000 0.000000
vn 1.000000 0.000000 0.000000
vn 0.000000 0.000000 1.000000
vn 0.000000 0.000000 1.000000
vn 0.000000 0.000000 1.000000
vn 0.000000 0.000000 1.000000
vn -1.000000 0.000000 0.000000
vn -1.000000 0.000000 0.000000
vn -1.000000 0.000000 0.000000
vn -1.000000 0.000000 0.000000
vn 0.000000 0.000000 -1.000000
vn 0.000000 0.000000 -1.000000
vn 0.000000 0.000000 -1.000000
vn 0.000000 0.000000 -1.000000
vn 0.000000 1.000000 0.000000
vn 0.000000 1.000000 0.000000
vn 0.000000 1.000000 0.000000
vn 0.000000 1.000000 0.000000
vn 0.000000 -1.000000 0.000000
vn 0.000000 -1.000000 0.000000
vn 0.000000 -1.000000 0.000000
vn 0.000000 -1.000000 0.000000
vn 1.000000 0.000000 0.000000
vn 1.000000 0.000000 0.000000
vn 1.000000 0.000000 0.000000
vn 1.000000 0.000000 0.000000
vn 0.000000 0.000000 1.000000
vn 0.000000 0.000000 1.000000
vn 0.000000 0.000000 1.000000
vn 0.000000 0.000000 1.000000
vn -1.000000 0.000000 0.000000
vn -1.000000 0.000000 0.000000
vn -1.000000 0.000000 0.000000
vn -1.000000 0.000000 0.000000
vn 0.000000 0.000000 -1.000000
vn 0.000000 0.000000 -1.000000
vn 0.000000 0.000000 -1.000000
vn 0.000000 0.000000 -1.000000
vn 0.000000 1.000000 0.000000
vn 0.000000 1.000000 0.000000
vn 0.000000 1.000000 0.000000
vn 0.000000 1.000000 0.000000
vn 0.000000 -1.000000 0.000000
vn 0.000000 -1.000000 0.000000
vn 0.000000 -1.000000 0.000000
vn 0.000000 -1.000000 0.000000
vn 1.000000 0.000000 0.000000
vn 1.000000 0.000000 0.000000
vn 1.000000 0.000000 0.000000
vn 1.000000 0.000000 0.000000
vn 0.000000 0.000000 1.000000
vn 0.000000 0.000000 1.000000
vn 0.000000 0.000000 1.000000
vn 0.000000 0.000000 1.000000
vn -1.000000 0.000000 0.000000
vn -1.000000 0.000000 0.000000
vn -1.000000 0.000000 0.000000
vn -1.000000 0.000000 0.000000
vn 0.000000 0.000000 -1.000000
vn 0.000000 0.000000 -1.000000
vn 0.000000 0.000000 -1.000000
vn 0.000000 0.000000 -1.000000
vn 0.000000 1.000000 0.000000
vn 0.000000 1.000000 0.000000
vn 0.000000 1.000000 0.000000
vn 0.000000 1.000000 0.000000
vn 0.000000 -1.000000 0.000000
vn 0.000000 -1.000000 0.000000
vn 0.000000 -1.000000 0.000000
vn 0.000000 -1.000000 0.000000
vn 1.000000 0.000000 0.000000
vn 1.000000 0.000000 0.000000
vn 1.000000 0.000000 0.000000
vn 1.000000 0.000000 0.000000
vn 0.000000 0.000000 1.000000
vn 0.000000 0.000000 1.000000
vn 0.000000 0.000000 1.000000
vn 0.000000 0.000000 1.000000
vn -1.000000 0.000000 0.000000
vn -1.000000 0.000000 0.000000
vn -1.000000 0.000000 0.000000
vn -1.000000 0.000000 0.000000
vn 0.000000 0.000000 -1.000000
vn 0.000000 0.000000 -1.000000
vn 0.000000 0.000000 -1.000000
vn 0.000000 0.000000 -1.000000
vn 0.000000 1.000000 0.000000
vn 0.000000 1.000000 0.000000
vn 0.000000 1.000000 0.000000
vn 0.000000 1.000000 0.000000
vn 0.000000 -1.000000 0.000000
vn 0.000000 -1.000000 0.000000
vn 0.000000 -1.000000 0.000000
vn 0.000000 -1.000000 0.000000
vn 0.000000 -1.000000 0.000000
vn 0.000000 -1.000000 0.000000
vn 0.000000 -1.000000 0.000000
vn 0.000000 -1.000000 0.000000
vn 0.000000 0.000000 1.000000
vn 0.000000 0.000000 1.000000
vn 0.000000 0.000000 1.000000
vn 0.000000 0.000000 1.000000
vn 0.000000 1.000000 0.000000
vn 0.000000 1.000000 0.000000
vn 0.000000 1.000000 0.000000
vn 0.000000 1.000000 0.000000
vn 0.000000 0.000000 -1.000000
vn 0.000000 0.000000 -1.000000
vn 0.000000 0.000000 -1.000000
vn 0.000000 0.000000 -1.000000
vn 1.000000 0.000000 0.000000
vn 1.000000 0.000000 0.000000
vn 1.000000 0.000000 0.000000
vn 1.000000 0.000000 0.000000
vn -1.000000 0.000000 0.000000
vn -1.000000 0.000000 0.000000
vn -1.000000 0.000000 0.000000
vn -1.000000 0.000000 0.000000
vn 1.000000 0.000000 0.000000
vn 1.000000 0.000000 0.000000
vn 1.000000 0.000000 0.000000
vn 1.000000 0.000000 0.000000
vn 0.000000 0.000000 1.000000
vn 0.000000 0.000000 1.000000
vn 0.000000 0.000000 1.000000
vn 0.000000 0.000000 1.000000
vn -1.000000 0.000000 0.000000
vn -1.000000 0.000000 0.000000
vn -1.000000 0.000000 0.000000
vn -1.000000 0.000000 0.000000
vn 0.000000 0.000000 -1.000000
vn 0.000000 0.000000 -1.000000
vn 0.000000 0.000000 -1.000000
vn 0.000000 0.000000 -1.000000
vn 0.000000 1.000000 0.000000
vn 0.000000 1.000000 0.000000
vn 0.000000 1.000000 0.000000
vn 0.000000 1.000000 0.000000
vn 0.000000 -1.000000 0.000000
vn 0.000000 -1.000000 0.000000
vn 0.000000 -1.000000 0.000000
vn 0.000000 -1.000000 0.000000
vn 1.000000 0.000000 0.000000
vn 1.000000 0.000000 0.000000
vn 1.000000 0.000000 0.000000
vn 1.000000 0.000000 0.000000
vn 0.000000 0.000000 1.000000
vn 0.000000 0.000000 1.000000
vn 0.000000 0.000000 1.000000
vn 0.000000 0.000000 1.000000
vn -1.000000 0.000000 0.000000
vn -1.000000 0.000000 0.000000
vn -1.000000 0.000000 0.000000
vn -1.000000 0.000000 0.000000
vn 0.000000 0.000000 -1.000000
vn 0.000000 0.000000 -1.000000
vn 0.000000 0.000000 -1.000000
vn 0.000000 0.000000 -1.000000
vn 0.000000 1.000000 0.000000
vn 0.000000 1.000000 0.000000
vn 0.000000 1.000000 0.000000
vn 0.000000 1.000000 0.000000
vn 0.000000 -1.000000 0.000000
vn 0.000000 -1.000000 0.000000
vn 0.000000 -1.000000 0.000000
vn 0.000000 -1.000000 0.000000
vn 0.000000 -1.000000 0.000000
vn 0.000000 -1.000000 0.000000
vn 0.000000 -1.000000 0.000000
vn 0.000000 -1.000000 0.000000
vn 0.000000 0.000000 1.000000
vn 0.000000 0.000000 1.000000
vn 0.000000 0.000000 1.000000
vn 0.000000 0.000000 1.000000
vn 0.000000 1.000000 0.000000
vn 0.000000 1.000000 0.000000
vn 0.000000 1.000000 0.000000
vn 0.000000 1.000000 0.000000
vn 0.000000 0.000000 -1.000000
vn 0.000000 0.000000 -1.000000
vn 0.000000 0.000000 -1.000000
vn 0.000000 0.000000 -1.000000
vn 1.000000 0.000000 0.000000
vn 1.000000 0.000000 0.000000
vn 1.000000 0.000000 0.000000
vn 1.000000 0.000000 0.000000
vn -1.000000 0.000000 0.000000
vn -1.000000 0.000000 0.000000
vn -1.000000 0.000000 0.000000
vn -1.000000 0.000000 0.000000
vn 1.000000 0.000000 0.000000
vn 1.000000 0.000000 0.000000
vn 1.000000 0.000000 0.000000
vn 1.000000 0.000000 0.000000
vn 0.000000 0.000000 1.000000
vn 0.000000 0.000000 1.000000
vn 0.000000 0.000000 1.000000
vn 0.000000 0.000000 1.000000
vn -1.000000 0.000000 0.000000
vn -1.000000 0.000000 0.000000
vn -1.000000 0.000000 0.000000
vn -1.000000 0.000000 0.000000
vn 0.000000 0.000000 -1.000000
vn 0.000000 0.000000 -1.000000
vn 0.000000 0.000000 -1.000000
vn 0.000000 0.000000 -1.000000
vn 0.000000 1.000000 0.000000
vn 0.000000 1.000000 0.000000
vn 0.000000 1.000000 0.000000
vn 0.000000 1.000000 0.000000
vn 0.000000 -1.000000 0.000000
vn 0.000000 -1.000000 0.000000
vn 0.000000 -1.000000 0.000000
vn 0.000000 -1.000000 0.000000
vn 0.000000 1.000000 0.000000
vn 0.000000 1.000000 0.000000
vn 0.000000 1.000000 0.000000
vn 0.000000 1.000000 0.000000
vn 0.000000 0.000000 1.000000
vn 0.000000 0.000000 1.000000
vn 0.000000 0.000000 1.000000
vn 0.000000 0.000000 1.000000
vn 0.000000 -1.000000 0.000000
vn 0.000000 -1.000000 0.000000
vn 0.000000 -1.000000 0.000000
vn 0.000000 -1.000000 0.000000
vn 0.000000 0.000000 -1.000000
vn 0.000000 0.000000 -1.000000
vn 0.000000 0.000000 -1.000000
vn 0.000000 0.000000 -1.000000
vn -1.000000 0.000000 0.000000
vn -1.000000 0.000000 0.000000
vn -1.000000 0.000000 0.000000
vn -1.000000 0.000000 0.000000
vn 1.000000 0.000000 0.000000
vn 1.000000 0.000000 0.000000
vn 1.000000 0.000000 0.000000
vn 1.000000 0.000000 0.000000
vn 0.000000 1.000000 0.000000
vn 0.000000 1.000000 0.000000
vn 0.000000 1.000000 0.000000
vn 0.000000 1.000000 0.000000
vn 0.000000 0.000000 1.000000
vn 0.000000 0.000000 1.000000
vn 0.000000 0.000000 1.000000
vn 0.000000 0.000000 1.000000
vn 0.000000 -1.000000 0.000000
vn 0.000000 -1.000000 0.000000
vn 0.000000 -1.000000 0.000000
vn 0.000000 -1.000000 0.000000
vn 0.000000 0.000000 -1.000000
vn 0.000000 0.000000 -1.000000
vn 0.000000 0.000000 -1.000000
vn 0.000000 0.000000 -1.000000
vn -1.000000 0.000000 0.000000
vn -1.000000 0.000000 0.000000
vn -1.000000 0.000000 0.000000
vn -1.000000 0.000000 0.000000
vn 1.000000 0.000000 0.000000
vn 1.000000 0.000000 0.000000
vn 1.000000 0.000000 0.000000
vn 1.000000 0.000000 0.000000
s off
g polySurface7052
f 1/1/1 2/2/2 4/3/3 3/4/4
f 3/4/5 4/3/6 6/5/7 5/6/8
f 5/7/9 6/8/10 8/9/11 7/10/12
f 7/10/13 8/9/14 2/2/15 1/1/16
f 2/11/17 8/12/18 6/13/19 4/14/20
f 7/15/21 1/16/22 3/17/23 5/18/24
f 9/19/25 10/20/26 12/21/27 11/22/28
f 11/22/29 12/21/30 14/23/31 13/24/32
f 13/25/33 14/26/34 16/27/35 15/28/36
f 15/28/37 16/27/38 10/20/39 9/19/40
f 10/29/41 16/30/42 14/31/43 12/32/44
f 15/33/45 9/34/46 11/35/47 13/36/48
f 17/37/49 18/38/50 20/39/51 19/40/52
f 19/40/53 20/39/54 22/41/55 21/42/56
f 21/43/57 22/44/58 24/45/59 23/46/60
f 23/46/61 24/45/62 18/38/63 17/37/64
f 18/47/65 24/48/66 22/49/67 20/50/68
f 23/51/69 17/52/70 19/53/71 21/54/72
f 25/55/73 26/56/74 28/57/75 27/58/76
f 27/58/77 28/57/78 30/59/79 29/60/80
f 29/61/81 30/62/82 32/63/83 31/64/84
f 31/64/85 32/63/86 26/56/87 25/55/88
f 26/65/89 32/66/90 30/67/91 28/68/92
f 31/69/93 25/70/94 27/71/95 29/72/96
f 33/73/97 34/74/98 36/75/99 35/76/100
f 35/76/101 36/75/102 38/77/103 37/78/104
f 37/79/105 38/80/106 40/81/107 39/82/108
f 39/82/109 40/81/110 34/74/111 33/73/112
f 34/83/113 40/84/114 38/85/115 36/86/116
f 39/87/117 33/88/118 35/89/119 37/90/120
f 41/91/121 42/92/122 44/93/123 43/94/124
f 43/94/125 44/93/126 46/95/127 45/96/128
f 45/97/129 46/98/130 48/99/131 47/100/132
f 47/100/133 48/99/134 42/92/135 41/91/136
f 42/101/137 48/102/138 46/103/139 44/104/140
f 47/105/141 41/106/142 43/107/143 45/108/144
f 49/109/145 50/110/146 52/111/147 51/112/148
f 51/112/149 52/111/150 54/113/151 53/114/152
f 53/115/153 54/116/154 56/117/155 55/118/156
f 55/118/157 56/117/158 50/110/159 49/109/160
f 50/119/161 56/120/162 54/121/163 52/122/164
f 55/123/165 49/124/166 51/125/167 53/126/168
f 57/127/169 58/128/170 60/129/171 59/130/172
f 59/130/173 60/129/174 62/131/175 61/132/176
f 61/133/177 62/134/178 64/135/179 63/136/180
f 63/136/181 64/135/182 58/128/183 57/127/184
f 58/137/185 64/138/186 62/139/187 60/140/188
f 63/141/189 57/142/190 59/143/191 61/144/192
f 65/145/193 66/146/194 68/147/195 67/148/196
f 67/148/197 68/147/198 70/149/199 69/150/200
f 69/151/201 70/152/202 72/153/203 71/154/204
f 71/154/205 72/153/206 66/146/207 65/145/208
f 66/155/209 72/156/210 70/157/211 68/158/212
f 71/159/213 65/160/214 67/161/215 69/162/216
f 73/163/217 74/164/218 76/165/219 75/166/220
f 75/166/221 76/165/222 78/167/223 77/168/224
f 77/169/225 78/170/226 80/171/227 79/172/228
f 79/172/229 80/171/230 74/164/231 73/163/232
f 74/173/233 80/174/234 78/175/235 76/176/236
f 79/177/237 73/178/238 75/179/239 77/180/240
f 81/181/241 82/182/242 84/183/243 83/184/244
f 83/184/245 84/183/246 86/185/247 85/186/248
f 85/187/249 86/188/250 88/189/251 87/190/252
f 87/190/253 88/189/254 82/182/255 81/181/256
f 82/191/257 88/192/258 86/193/259 84/194/260
f 87/195/261 81/196/262 83/197/263 85/198/264
f 89/199/265 90/200/266 92/201/267 91/202/268
f 91/202/269 92/201/270 94/203/271 93/204/272
f 93/205/273 94/206/274 96/207/275 95/208/276
f 95/208/277 96/207/278 90/200/279 89/199/280
f 90/209/281 96/210/282 94/211/283 92/212/284
f 95/213/285 89/214/286 91/215/287 93/216/288
f 97/217/289 98/218/290 100/219/291 99/220/292
f 99/220/293 100/219/294 102/221/295 101/222/296
f 101/223/297 102/224/298 104/225/299 103/226/300
f 103/226/301 104/225/302 98/218/303 97/217/304
f 98/227/305 104/228/306 102/229/307 100/230/308
f 103/231/309 97/232/310 99/233/311 101/234/312
f 105/235/313 106/236/314 108/237/315 107/238/316
f 107/238/317 108/237/318 110/239/319 109/240/320
f 109/241/321 110/242/322 112/243/323 111/244/324
f 111/244/325 112/243/326 106/236/327 105/235/328
f 106/245/329 112/246/330 110/247/331 108/248/332
f 111/249/333 105/250/334 107/251/335 109/252/336
f 113/253/337 114/254/338 116/255/339 115/256/340
f 115/256/341 116/255/342 118/257/343 117/258/344
f 117/259/345 118/260/346 120/261/347 119/262/348
f 119/262/349 120/261/350 114/254/351 113/253/352
f 114/263/353 120/264/354 118/265/355 116/266/356
f 119/267/357 113/268/358 115/269/359 117/270/360
f 121/271/361 122/272/362 124/273/363 123/274/364
f 123/274/365 124/273/366 126/275/367 125/276/368
f 125/277/369 126/278/370 128/279/371 127/280/372
f 127/280/373 128/279/374 122/272/375 121/271/376
f 122/281/377 128/282/378 126/283/379 124/284/380
f 127/285/381 121/286/382 123/287/383 125/288/384
f 129/289/385 130/290/386 132/291/387 131/292/388
f 131/292/389 132/291/390 134/293/391 133/294/392
f 133/295/393 134/296/394 136/297/395 135/298/396
f 135/298/397 136/297/398 130/290/399 129/289/400
f 130/299/401 136/300/402 134/301/403 132/302/404
f 135/303/405 129/304/406 131/305/407 133/306/408
f 137/307/409 138/308/410 140/309/411 139/310/412
f 139/310/413 140/309/414 142/311/415 141/312/416
f 141/313/417 142/314/418 144/315/419 143/316/420
f 143/316/421 144/315/422 138/308/423 137/307/424
f 138/317/425 144/318/426 142/319/427 140/320/428
f 143/321/429 137/322/430 139/323/431 141/324/432
f 145/325/433 146/326/434 148/327/435 147/328/436
f 147/328/437 148/327/438 150/329/439 149/330/440
f 149/331/441 150/332/442 152/333/443 151/334/444
f 151/334/445 152/333/446 146/326/447 145/325/448
f 146/335/449 152/336/450 150/337/451 148/338/452
f 151/339/453 145/340/454 147/341/455 149/342/456
f 153/343/457 154/344/458 156/345/459 155/346/460
f 155/346/461 156/345/462 158/347/463 157/348/464
f 157/349/465 158/350/466 160/351/467 159/352/468
f 159/352/469 160/351/470 154/344/471 153/343/472
f 154/353/473 160/354/474 158/355/475 156/356/476
f 159/357/477 153/358/478 155/359/479 157/360/480
