# This file uses centimeters as units for non-parametric coordinates.

g default
v -34.047321 0.013565 3.978837
v -34.047318 1.173466 3.978837
v -34.047321 0.013565 4.018937
v -34.047318 1.173466 4.018937
v -34.087414 0.013565 4.018937
v -34.087414 1.173466 4.018937
v -34.087414 0.013565 3.978837
v -34.087414 1.173466 3.978837
v -34.327415 0.813465 3.981917
v -33.807316 0.813465 3.981917
v -34.327415 0.813466 4.022017
v -33.807316 0.813466 4.022017
v -34.327415 0.853565 4.022017
v -33.807316 0.853565 4.022017
v -34.327415 0.853565 3.981917
v -33.807316 0.853565 3.981917
v -34.327419 0.333466 3.981917
v -33.807316 0.333466 3.981917
v -34.327419 0.333466 4.022017
v -33.807316 0.333466 4.022017
v -34.327419 0.373565 4.022017
v -33.807316 0.373565 4.022017
v -34.327419 0.373565 3.981917
v -33.807316 0.373565 3.981917
v -34.287319 0.373565 3.981917
v -34.287319 0.813465 3.981917
v -34.287319 0.373565 4.022017
v -34.287319 0.813466 4.022017
v -34.327419 0.373565 4.022017
v -34.327415 0.813466 4.022017
v -34.327419 0.373565 3.981917
v -34.327415 0.813465 3.981917
v -33.807316 0.373565 3.981917
v -33.807316 0.813465 3.981917
v -33.807316 0.373565 4.022017
v -33.807316 0.813466 4.022017
v -33.847416 0.373565 4.022017
v -33.847416 0.813466 4.022017
v -33.847416 0.373565 3.981917
v -33.847416 0.813465 3.981917
v -34.527317 0.253565 3.980180
v -34.527317 0.933465 3.980180
v -34.527317 0.253565 4.020278
v -34.527317 0.933466 4.020278
v -34.567417 0.253565 4.020278
v -34.567417 0.933466 4.020278
v -34.567417 0.253565 3.980180
v -34.567417 0.933465 3.980180
v -33.567318 0.253565 3.980180
v -33.567318 0.933465 3.980180
v -33.567318 0.253565 4.020278
v -33.567318 0.933466 4.020278
v -33.607418 0.253565 4.020278
v -33.607418 0.933466 4.020278
v -33.607418 0.253565 3.980180
v -33.607418 0.933465 3.980180
v -34.447414 0.093466 3.980180
v -33.687321 0.093466 3.980180
v -34.447414 0.093466 4.020278
v -33.687321 0.093466 4.020278
v -34.447414 0.133565 4.020278
v -33.687321 0.133565 4.020278
v -34.447414 0.133565 3.980180
v -33.687321 0.133565 3.980180
v -34.407314 0.133565 3.978705
v -34.407314 0.453466 3.978705
v -34.407314 0.133565 4.018804
v -34.407314 0.453466 4.018804
v -34.447414 0.133565 4.018804
v -34.447414 0.453466 4.018804
v -34.447414 0.133565 3.978705
v -34.447414 0.453466 3.978705
v -34.447414 0.453466 3.980180
v -34.167316 0.453466 3.980180
v -34.447414 0.453466 4.020278
v -34.167316 0.453466 4.020278
v -34.447414 0.493565 4.020278
v -34.167316 0.493565 4.020278
v -34.447414 0.493565 3.980180
v -34.167316 0.493565 3.980180
v -34.167316 0.253565 3.980180
v -34.167316 0.453466 3.980180
v -34.167316 0.253565 4.020278
v -34.167316 0.453466 4.020278
v -34.207417 0.253565 4.020278
v -34.207417 0.453466 4.020278
v -34.207417 0.253565 3.980180
v -34.207417 0.453466 3.980180
v -34.567417 0.213466 3.980180
v -34.167316 0.213466 3.980180
v -34.567417 0.213466 4.020278
v -34.167316 0.213466 4.020278
v -34.567417 0.253565 4.020278
v -34.167316 0.253565 4.020278
v -34.567417 0.253565 3.980180
v -34.167316 0.253565 3.980180
v -33.687321 0.133565 3.978705
v -33.687321 0.453466 3.978705
v -33.687321 0.133565 4.018804
v -33.687321 0.453466 4.018804
v -33.727413 0.133565 4.018804
v -33.727421 0.453466 4.018804
v -33.727413 0.133565 3.978705
v -33.727421 0.453466 3.978705
v -33.967419 0.453466 3.980180
v -33.687321 0.453466 3.980180
v -33.967419 0.453466 4.020278
v -33.687321 0.453466 4.020278
v -33.967419 0.493565 4.020278
v -33.687313 0.493565 4.020278
v -33.967419 0.493565 3.980180
v -33.687313 0.493565 3.980180
v -33.927319 0.253565 3.980180
v -33.927319 0.453466 3.980180
v -33.927319 0.253565 4.020278
v -33.927319 0.453466 4.020278
v -33.967419 0.253565 4.020278
v -33.967419 0.453466 4.020278
v -33.967419 0.253565 3.980180
v -33.967419 0.453466 3.980180
v -33.967419 0.213466 3.980180
v -33.567318 0.213466 3.980180
v -33.967419 0.213466 4.020278
v -33.567318 0.213466 4.020278
v -33.967419 0.253565 4.020278
v -33.567318 0.253565 4.020278
v -33.967419 0.253565 3.980180
v -33.567318 0.253565 3.980180
v -33.967419 0.693466 3.980180
v -33.687317 0.693466 3.980180
v -33.967419 0.693466 4.020278
v -33.687317 0.693466 4.020278
v -33.967415 0.733565 4.020278
v -33.687313 0.733565 4.020278
v -33.967415 0.733565 3.980180
v -33.687313 0.733565 3.980180
v -34.447414 0.693466 3.980180
v -34.167316 0.693466 3.980180
v -34.447414 0.693466 4.020278
v -34.167316 0.693466 4.020278
v -34.447414 0.733565 4.020278
v -34.167316 0.733565 4.020278
v -34.447414 0.733565 3.980180
v -34.167316 0.733565 3.980180
v -34.167316 0.733565 3.980180
v -34.167316 0.933465 3.980180
v -34.167316 0.733565 4.020278
v -34.167316 0.933466 4.020278
v -34.207417 0.733565 4.020278
v -34.207417 0.933466 4.020278
v -34.207417 0.733565 3.980180
v -34.207417 0.933465 3.980180
v -33.927319 0.733565 3.980180
v -33.927319 0.933465 3.980180
v -33.927319 0.733565 4.020278
v -33.927319 0.933466 4.020278
v -33.967415 0.733565 4.020278
v -33.967415 0.933466 4.020278
v -33.967415 0.733565 3.980180
v -33.967415 0.933465 3.980180
v -33.967415 0.933465 3.980180
v -33.567318 0.933465 3.980180
v -33.967415 0.933466 4.020278
v -33.567318 0.933466 4.020278
v -33.967415 0.973565 4.020278
v -33.567318 0.973565 4.020278
v -33.967415 0.973565 3.980180
v -33.567318 0.973565 3.980180
v -34.567417 0.933465 3.980180
v -34.167316 0.933465 3.980180
v -34.567417 0.933466 4.020278
v -34.167316 0.933466 4.020278
v -34.567417 0.973565 4.020278
v -34.167316 0.973565 4.020278
v -34.567417 0.973565 3.980180
v -34.167316 0.973565 3.980180
v -34.407314 0.733565 3.978705
v -34.407318 1.053466 3.978705
v -34.407314 0.733565 4.018804
v -34.407318 1.053466 4.018804
v -34.447414 0.733565 4.018804
v -34.447418 1.053466 4.018804
v -34.447414 0.733565 3.978705
v -34.447418 1.053466 3.978705
v -33.687313 0.733565 3.978705
v -33.687317 1.053466 3.978705
v -33.687313 0.733565 4.018804
v -33.687317 1.053466 4.018804
v -33.727413 0.733565 4.018804
v -33.727417 1.053466 4.018804
v -33.727413 0.733565 3.978705
v -33.727417 1.053466 3.978705
v -34.447418 1.053466 3.980180
v -33.687317 1.053466 3.980180
v -34.447418 1.053466 4.020278
v -33.687317 1.053466 4.020278
v -34.447418 1.093565 4.020278
v -33.687317 1.093565 4.020278
v -34.447418 1.093565 3.980180
v -33.687317 1.093565 3.980180
v -34.287319 0.013565 3.978837
v -34.287319 0.213466 3.978837
v -34.287319 0.013565 4.018935
v -34.287319 0.213466 4.018935
v -34.327419 0.013565 4.018935
v -34.327419 0.213466 4.018935
v -34.327419 0.013565 3.978837
v -34.327419 0.213466 3.978837
v -33.807316 0.013565 3.978837
v -33.807316 0.213466 3.978837
v -33.807316 0.013565 4.018937
v -33.807316 0.213466 4.018937
v -33.847416 0.013565 4.018937
v -33.847416 0.213466 4.018937
v -33.847416 0.013565 3.978837
v -33.847416 0.213466 3.978837
v -33.807316 0.973565 3.978837
v -33.807316 1.173466 3.978837
v -33.807316 0.973565 4.018937
v -33.807316 1.173466 4.018937
v -33.847416 0.973565 4.018937
v -33.847416 1.173466 4.018937
v -33.847416 0.973565 3.978837
v -33.847416 1.173466 3.978837
v -34.287315 0.973565 3.978837
v -34.287315 1.173466 3.978837
v -34.287315 0.973565 4.018935
v -34.287315 1.173466 4.018935
v -34.327415 0.973565 4.018935
v -34.327415 1.173466 4.018935
v -34.327415 0.973565 3.978837
v -34.327415 1.173466 3.978837
v -34.688244 -0.026534 3.978836
v -33.446491 -0.026534 3.978837
v -34.688244 -0.026534 4.018936
v -33.446491 -0.026534 4.018937
v -34.688244 0.013565 4.018936
v -33.446491 0.013565 4.018937
v -34.688244 0.013565 3.978836
v -33.446491 0.013565 3.978837
v -34.688244 1.173466 3.978836
v -33.446491 1.173466 3.978837
v -34.688244 1.173466 4.018936
v -33.446491 1.173466 4.018937
v -34.688244 1.213565 4.018936
v -33.446491 1.213565 4.018937
v -34.688244 1.213565 3.978836
v -33.446491 1.213565 3.978837
v -33.487415 0.373565 3.978837
v -33.687321 0.373565 3.978837
v -33.487415 0.373565 4.018937
v -33.687321 0.373565 4.018937
v -33.487415 0.333466 4.018937
v -33.687321 0.333466 4.018937
v -33.487415 0.333466 3.978837
v -33.687321 0.333466 3.978837
v -34.447414 0.373565 3.978837
v -34.647320 0.373565 3.978837
v -34.447414 0.373565 4.018935
v -34.647320 0.373565 4.018935
v -34.447414 0.333466 4.018935
v -34.647320 0.333466 4.018935
v -34.447414 0.333466 3.978837
v -34.647320 0.333466 3.978837
v -34.447414 0.853565 3.978837
v -34.647316 0.853565 3.978837
v -34.447414 0.853565 4.018935
v -34.647316 0.853565 4.018935
v -34.447414 0.813466 4.018935
v -34.647316 0.813466 4.018935
v -34.447414 0.813466 3.978837
v -34.647316 0.813466 3.978837
v -33.487415 0.853565 3.978837
v -33.687317 0.853565 3.978837
v -33.487415 0.853565 4.018937
v -33.687317 0.853565 4.018937
v -33.487415 0.813466 4.018937
v -33.687317 0.813466 4.018937
v -33.487415 0.813466 3.978837
v -33.687317 0.813466 3.978837
v -33.487415 0.613565 3.977980
v -34.647316 0.613565 3.977979
v -33.487415 0.613565 4.018080
v -34.647316 0.613565 4.018079
v -33.487415 0.573466 4.018080
v -34.647320 0.573466 4.018079
v -33.487415 0.573466 3.977980
v -34.647320 0.573466 3.977979
v -33.447315 0.013565 3.978837
v -33.447315 1.173466 3.978837
v -33.447315 0.013565 4.018937
v -33.447315 1.173466 4.018937
v -33.487415 0.013565 4.018937
v -33.487415 1.173466 4.018937
v -33.487415 0.013565 3.978837
v -33.487415 1.173466 3.978837
v -34.647320 0.013565 3.978837
v -34.647316 1.173466 3.978837
v -34.647320 0.013565 4.018935
v -34.647316 1.173466 4.018935
v -34.687420 0.013565 4.018935
v -34.687416 1.173466 4.018935
v -34.687420 0.013565 3.978837
v -34.687416 1.173466 3.978837
vt 0.302561 0.004670
vt 0.302561 0.561901
vt 0.283296 0.561901
vt 0.283296 0.004670
vt 0.326003 0.004670
vt 0.326003 0.561901
vt 0.306738 0.561901
vt 0.306738 0.004670
vt 0.351398 0.004670
vt 0.351398 0.561901
vt 0.332134 0.561901
vt 0.332134 0.004670
vt 0.509901 0.561425
vt 0.509901 0.004194
vt 0.529165 0.004194
vt 0.529165 0.561425
vt 0.550653 0.888337
vt 0.531389 0.888337
vt 0.531389 0.869072
vt 0.550653 0.869072
vt 0.556784 0.871845
vt 0.576049 0.871845
vt 0.576049 0.891109
vt 0.556784 0.891109
vt 0.789252 0.587876
vt 0.789252 0.338014
vt 0.808517 0.338014
vt 0.808517 0.587876
vt 0.814648 0.587982
vt 0.814648 0.338120
vt 0.833912 0.338120
vt 0.833912 0.587982
vt 0.840044 0.586052
vt 0.840044 0.336190
vt 0.859308 0.336190
vt 0.859308 0.586052
vt 0.863486 0.587416
vt 0.863486 0.337554
vt 0.882750 0.337554
vt 0.882750 0.587416
vt 0.806563 0.945701
vt 0.806563 0.964965
vt 0.787299 0.964965
vt 0.787299 0.945701
vt 0.861533 0.964967
vt 0.861533 0.945702
vt 0.880797 0.945702
vt 0.880797 0.964967
vt 0.886928 0.587876
vt 0.886928 0.338014
vt 0.906193 0.338014
vt 0.906193 0.587876
vt 0.910371 0.587897
vt 0.910371 0.338035
vt 0.929635 0.338035
vt 0.929635 0.587897
vt 0.978744 0.586054
vt 0.978744 0.336192
vt 0.998008 0.336192
vt 0.998008 0.586054
vt 0.933813 0.587506
vt 0.933813 0.337644
vt 0.953077 0.337644
vt 0.953077 0.587506
vt 0.831959 0.945618
vt 0.831959 0.964882
vt 0.812695 0.964882
vt 0.812695 0.945618
vt 0.607575 0.964882
vt 0.607575 0.945618
vt 0.626839 0.945618
vt 0.626839 0.964882
vt 0.730376 0.376877
vt 0.730376 0.588211
vt 0.711112 0.588211
vt 0.711112 0.376877
vt 0.630746 0.376877
vt 0.630746 0.588211
vt 0.611482 0.588211
vt 0.611482 0.376877
vt 0.656142 0.376881
vt 0.656142 0.588214
vt 0.636878 0.588214
vt 0.636878 0.376881
vt 0.586087 0.587730
vt 0.586087 0.376397
vt 0.605351 0.376397
vt 0.605351 0.587730
vt 0.904239 0.963035
vt 0.884975 0.963035
vt 0.884975 0.943771
vt 0.904239 0.943771
vt 0.953348 0.945599
vt 0.972612 0.945599
vt 0.972612 0.964863
vt 0.953348 0.964863
vt 0.755771 0.376881
vt 0.755771 0.588214
vt 0.736507 0.588214
vt 0.736507 0.376881
vt 0.781167 0.376881
vt 0.781167 0.588214
vt 0.761903 0.588214
vt 0.761903 0.376881
vt 0.208793 0.570263
vt 0.208793 0.781597
vt 0.189528 0.781597
vt 0.189528 0.570263
vt 0.685716 0.587730
vt 0.685716 0.376397
vt 0.704980 0.376397
vt 0.704980 0.587730
vt 0.550653 0.964997
vt 0.531389 0.964997
vt 0.531389 0.945733
vt 0.550653 0.945733
vt 0.556784 0.947559
vt 0.576049 0.947559
vt 0.576049 0.966823
vt 0.556784 0.966823
vt 0.808517 0.004713
vt 0.808517 0.331346
vt 0.789252 0.331346
vt 0.789252 0.004713
vt 0.833912 0.004713
vt 0.833912 0.331346
vt 0.814648 0.331346
vt 0.814648 0.004713
vt 0.859308 0.004713
vt 0.859308 0.331346
vt 0.840044 0.331346
vt 0.840044 0.004713
vt 0.933813 0.330867
vt 0.933813 0.004235
vt 0.953077 0.004235
vt 0.953077 0.330867
vt 0.996055 0.967300
vt 0.976790 0.967300
vt 0.976790 0.948035
vt 0.996055 0.948035
vt 0.761903 0.958437
vt 0.781167 0.958437
vt 0.781167 0.977701
vt 0.761903 0.977701
vt 0.882750 0.004713
vt 0.882750 0.331346
vt 0.863486 0.331346
vt 0.863486 0.004713
vt 0.906193 0.004713
vt 0.906193 0.331346
vt 0.886928 0.331346
vt 0.886928 0.004713
vt 0.929635 0.004713
vt 0.929635 0.331346
vt 0.910371 0.331346
vt 0.910371 0.004713
vt 0.957255 0.330867
vt 0.957255 0.004235
vt 0.976519 0.004235
vt 0.976519 0.330867
vt 0.728422 0.977543
vt 0.709158 0.977543
vt 0.709158 0.958278
vt 0.728422 0.958278
vt 0.582180 0.960388
vt 0.601444 0.960388
vt 0.601444 0.979652
vt 0.582180 0.979652
vt 0.586087 0.369248
vt 0.586087 0.004086
vt 0.605351 0.004086
vt 0.605351 0.369248
vt 0.611482 0.368109
vt 0.611482 0.002947
vt 0.630746 0.002947
vt 0.630746 0.368109
vt 0.636878 0.367142
vt 0.636878 0.001981
vt 0.656142 0.001981
vt 0.656142 0.367142
vt 0.662274 0.369752
vt 0.662274 0.004590
vt 0.681538 0.004590
vt 0.681538 0.369752
vt 0.925728 0.949187
vt 0.925728 0.968451
vt 0.906464 0.968451
vt 0.906464 0.949187
vt 0.632971 0.980470
vt 0.632971 0.961205
vt 0.652235 0.961205
vt 0.652235 0.980470
vt 0.806563 0.593673
vt 0.806563 0.747357
vt 0.787299 0.747357
vt 0.787299 0.593673
vt 0.906193 0.593673
vt 0.906193 0.747357
vt 0.886928 0.747357
vt 0.886928 0.593673
vt 0.831959 0.593673
vt 0.831959 0.747357
vt 0.812695 0.747357
vt 0.812695 0.593673
vt 0.910371 0.747958
vt 0.910371 0.594274
vt 0.929635 0.594274
vt 0.929635 0.747958
vt 0.091582 0.905975
vt 0.072318 0.905975
vt 0.072318 0.886711
vt 0.091582 0.886711
vt 0.025434 0.889362
vt 0.044698 0.889362
vt 0.044698 0.908626
vt 0.025434 0.908626
vt 0.072318 0.742325
vt 0.072318 0.607762
vt 0.091582 0.607762
vt 0.091582 0.742325
vt 0.025434 0.742231
vt 0.025434 0.607667
vt 0.044698 0.607667
vt 0.044698 0.742231
vt 0.095760 0.740222
vt 0.095760 0.605659
vt 0.115024 0.605659
vt 0.115024 0.740222
vt 0.119202 0.741796
vt 0.119202 0.607232
vt 0.138466 0.607232
vt 0.138466 0.741796
vt 0.042745 0.954223
vt 0.042745 0.973487
vt 0.023481 0.973487
vt 0.023481 0.954223
vt 0.838090 0.979558
vt 0.838090 0.960293
vt 0.857355 0.960293
vt 0.857355 0.979558
vt 0.230281 0.689900
vt 0.230281 0.785934
vt 0.211017 0.785934
vt 0.211017 0.689900
vt 0.732329 0.754858
vt 0.732329 0.850893
vt 0.713065 0.850893
vt 0.713065 0.754858
vt 0.857355 0.754860
vt 0.857355 0.850895
vt 0.838090 0.850895
vt 0.838090 0.754860
vt 0.478645 0.864170
vt 0.478645 0.768136
vt 0.497909 0.768136
vt 0.497909 0.864170
vt 0.949170 0.977548
vt 0.929906 0.977548
vt 0.929906 0.958283
vt 0.949170 0.958283
vt 0.046923 0.962350
vt 0.066187 0.962350
vt 0.066187 0.981615
vt 0.046923 0.981615
vt 0.234459 0.761379
vt 0.234459 0.569166
vt 0.253723 0.569166
vt 0.253723 0.761379
vt 0.283296 0.761238
vt 0.283296 0.569025
vt 0.302561 0.569025
vt 0.302561 0.761238
vt 0.306738 0.759272
vt 0.306738 0.567059
vt 0.326003 0.567059
vt 0.326003 0.759272
vt 0.332134 0.760884
vt 0.332134 0.568671
vt 0.351398 0.568671
vt 0.351398 0.760884
vt 0.755771 0.940541
vt 0.755771 0.959806
vt 0.736507 0.959806
vt 0.736507 0.940541
vt 0.189528 0.959965
vt 0.189528 0.940701
vt 0.208793 0.940701
vt 0.208793 0.959965
vt 0.730376 0.593673
vt 0.730376 0.747358
vt 0.711111 0.747358
vt 0.711111 0.593673
vt 0.630746 0.593674
vt 0.630746 0.747358
vt 0.611482 0.747358
vt 0.611482 0.593674
vt 0.857355 0.593675
vt 0.857355 0.747360
vt 0.838090 0.747360
vt 0.838090 0.593675
vt 0.861533 0.747961
vt 0.861533 0.594276
vt 0.880797 0.594276
vt 0.880797 0.747961
vt 0.115024 0.905980
vt 0.095760 0.905980
vt 0.095760 0.886716
vt 0.115024 0.886716
vt 0.048876 0.889368
vt 0.068140 0.889368
vt 0.068140 0.908632
vt 0.048876 0.908632
vt 0.609529 0.888837
vt 0.609529 0.754274
vt 0.628793 0.754274
vt 0.628793 0.888837
vt 0.048876 0.742237
vt 0.048876 0.607673
vt 0.068140 0.607673
vt 0.068140 0.742237
vt 0.072318 0.880869
vt 0.072318 0.746306
vt 0.091582 0.746306
vt 0.091582 0.880869
vt 0.025434 0.882444
vt 0.025434 0.747880
vt 0.044698 0.747880
vt 0.044698 0.882444
vt 0.089629 0.964199
vt 0.089629 0.983464
vt 0.070365 0.983464
vt 0.070365 0.964199
vt 0.093807 0.983469
vt 0.093807 0.964204
vt 0.113071 0.964204
vt 0.113071 0.983469
vt 0.998008 0.693821
vt 0.998008 0.789856
vt 0.978744 0.789856
vt 0.978744 0.693821
vt 0.654189 0.754861
vt 0.654189 0.850895
vt 0.634924 0.850895
vt 0.634924 0.754861
vt 0.757725 0.754861
vt 0.757725 0.850895
vt 0.738461 0.850895
vt 0.738461 0.754861
vt 0.328227 0.864171
vt 0.328227 0.768136
vt 0.347491 0.768136
vt 0.347491 0.864171
vt 0.136513 0.981464
vt 0.117249 0.981464
vt 0.117249 0.962200
vt 0.136513 0.962200
vt 0.734554 0.966079
vt 0.753818 0.966079
vt 0.753818 0.985343
vt 0.734554 0.985343
vt 0.662274 0.782872
vt 0.662274 0.590659
vt 0.681538 0.590659
vt 0.681538 0.782872
vt 0.357529 0.761238
vt 0.357529 0.569025
vt 0.376793 0.569025
vt 0.376793 0.761238
vt 0.382924 0.759272
vt 0.382924 0.567059
vt 0.402188 0.567059
vt 0.402188 0.759272
vt 0.408320 0.760884
vt 0.408320 0.568671
vt 0.427584 0.568671
vt 0.427584 0.760884
vt 0.677631 0.942665
vt 0.677631 0.961929
vt 0.658366 0.961929
vt 0.658366 0.942665
vt 0.683762 0.961929
vt 0.683762 0.942665
vt 0.703027 0.942665
vt 0.703027 0.961929
vt 0.906464 0.888838
vt 0.906464 0.754275
vt 0.925728 0.754275
vt 0.925728 0.888838
vt 0.095760 0.882927
vt 0.095760 0.748363
vt 0.115024 0.748363
vt 0.115024 0.882927
vt 0.048876 0.880880
vt 0.048876 0.746317
vt 0.068140 0.746317
vt 0.068140 0.880880
vt 0.119202 0.882407
vt 0.119202 0.747843
vt 0.138466 0.747843
vt 0.138466 0.882407
vt 0.206839 0.966181
vt 0.206839 0.985445
vt 0.187575 0.985445
vt 0.187575 0.966181
vt 0.658367 0.987410
vt 0.658367 0.968146
vt 0.677631 0.968146
vt 0.677631 0.987410
vt 0.687669 0.886882
vt 0.687669 0.752319
vt 0.706934 0.752319
vt 0.706934 0.886882
vt 0.787299 0.888779
vt 0.787299 0.754215
vt 0.806563 0.754215
vt 0.806563 0.888779
vt 0.812695 0.886727
vt 0.812695 0.752164
vt 0.831959 0.752164
vt 0.831959 0.886727
vt 0.883021 0.888254
vt 0.883021 0.753691
vt 0.902286 0.753691
vt 0.902286 0.888254
vt 0.703027 0.968146
vt 0.703027 0.987410
vt 0.683762 0.987410
vt 0.683762 0.968146
vt 0.787299 0.989363
vt 0.787299 0.970099
vt 0.806563 0.970099
vt 0.806563 0.989363
vt 0.603397 0.754944
vt 0.603397 0.850978
vt 0.584133 0.850978
vt 0.584133 0.754944
vt 0.949170 0.754947
vt 0.949170 0.850982
vt 0.929906 0.850982
vt 0.929906 0.754947
vt 0.161908 0.768605
vt 0.161908 0.864639
vt 0.142644 0.864639
vt 0.142644 0.768605
vt 0.504040 0.866039
vt 0.504040 0.770005
vt 0.523305 0.770005
vt 0.523305 0.866039
vt 0.880797 0.987312
vt 0.861533 0.987312
vt 0.861533 0.968047
vt 0.880797 0.968047
vt 0.812695 0.970157
vt 0.831959 0.970157
vt 0.831959 0.989421
vt 0.812695 0.989421
vt 0.878843 0.760239
vt 0.878843 0.856274
vt 0.859579 0.856274
vt 0.859579 0.760239
vt 0.185350 0.768605
vt 0.185350 0.864639
vt 0.166086 0.864639
vt 0.166086 0.768605
vt 0.447119 0.768614
vt 0.447119 0.864648
vt 0.427854 0.864648
vt 0.427854 0.768614
vt 0.001992 0.866041
vt 0.001992 0.770007
vt 0.021256 0.770007
vt 0.021256 0.866041
vt 0.626839 0.987312
vt 0.607575 0.987312
vt 0.607575 0.968048
vt 0.626839 0.968048
vt 0.884975 0.970158
vt 0.904239 0.970158
vt 0.904239 0.989422
vt 0.884975 0.989422
vt 0.957255 0.784826
vt 0.957255 0.592614
vt 0.976519 0.592614
vt 0.976519 0.784826
vt 0.433715 0.761363
vt 0.433715 0.569150
vt 0.452979 0.569150
vt 0.452979 0.761363
vt 0.459110 0.759272
vt 0.459110 0.567059
vt 0.478374 0.567059
vt 0.478374 0.759272
vt 0.484505 0.760756
vt 0.484505 0.568543
vt 0.503770 0.568543
vt 0.503770 0.760756
vt 0.925728 0.922963
vt 0.925728 0.942228
vt 0.906464 0.942228
vt 0.906464 0.922963
vt 0.070365 0.958153
vt 0.070365 0.938889
vt 0.089629 0.938889
vt 0.089629 0.958153
vt 0.257901 0.761386
vt 0.257901 0.569173
vt 0.277165 0.569173
vt 0.277165 0.761386
vt 0.509901 0.761371
vt 0.509901 0.569158
vt 0.529165 0.569158
vt 0.529165 0.761371
vt 0.535296 0.759280
vt 0.535296 0.567067
vt 0.554560 0.567067
vt 0.554560 0.759280
vt 0.560691 0.760764
vt 0.560691 0.568551
vt 0.579956 0.568551
vt 0.579956 0.760764
vt 0.113071 0.938894
vt 0.113071 0.958158
vt 0.093807 0.958158
vt 0.093807 0.938894
vt 0.117249 0.958163
vt 0.117249 0.938899
vt 0.136513 0.938899
vt 0.136513 0.958163
vt 0.605351 0.594757
vt 0.605351 0.748442
vt 0.586087 0.748442
vt 0.586087 0.594757
vt 0.656142 0.594758
vt 0.656142 0.748442
vt 0.636878 0.748442
vt 0.636878 0.594758
vt 0.755772 0.594758
vt 0.755772 0.748442
vt 0.736507 0.748442
vt 0.736507 0.594758
vt 0.761903 0.748833
vt 0.761903 0.595149
vt 0.781167 0.595149
vt 0.781167 0.748833
vt 0.138466 0.905986
vt 0.119202 0.905986
vt 0.119202 0.886721
vt 0.138466 0.886721
vt 0.189528 0.891296
vt 0.208793 0.891296
vt 0.208793 0.910560
vt 0.189528 0.910560
vt 0.953077 0.594761
vt 0.953077 0.748445
vt 0.933813 0.748445
vt 0.933813 0.594761
vt 0.161908 0.608419
vt 0.161908 0.762103
vt 0.142644 0.762103
vt 0.142644 0.608419
vt 0.185351 0.608419
vt 0.185351 0.762103
vt 0.166086 0.762103
vt 0.166086 0.608419
vt 0.001992 0.762505
vt 0.001992 0.608821
vt 0.021256 0.608821
vt 0.021256 0.762505
vt 0.704980 0.909879
vt 0.685716 0.909879
vt 0.685716 0.890615
vt 0.704980 0.890615
vt 0.660320 0.893263
vt 0.679584 0.893263
vt 0.679584 0.912527
vt 0.660320 0.912527
vt 0.687669 0.369248
vt 0.687669 0.004086
vt 0.706934 0.004086
vt 0.706934 0.369248
vt 0.713065 0.368278
vt 0.713065 0.003117
vt 0.732329 0.003117
vt 0.732329 0.368278
vt 0.738461 0.367142
vt 0.738461 0.001981
vt 0.757725 0.001981
vt 0.757725 0.367142
vt 0.763857 0.369582
vt 0.763857 0.004421
vt 0.783121 0.004421
vt 0.783121 0.369582
vt 0.970659 0.971143
vt 0.970659 0.990407
vt 0.951394 0.990407
vt 0.951394 0.971143
vt 0.398552 0.992353
vt 0.398552 0.973089
vt 0.417816 0.973089
vt 0.417816 0.992353
vt 0.253723 0.768488
vt 0.253723 0.864523
vt 0.234459 0.864523
vt 0.234459 0.768488
vt 0.298654 0.768489
vt 0.298654 0.864524
vt 0.279389 0.864524
vt 0.279389 0.768489
vt 0.472514 0.768487
vt 0.472514 0.864522
vt 0.453250 0.864522
vt 0.453250 0.768487
vt 0.556784 0.864221
vt 0.556784 0.768186
vt 0.576049 0.768186
vt 0.576049 0.864221
vt 0.806563 0.911769
vt 0.787299 0.911769
vt 0.787299 0.892504
vt 0.806563 0.892504
vt 0.861533 0.895278
vt 0.880797 0.895278
vt 0.880797 0.914543
vt 0.861533 0.914543
vt 0.372886 0.768489
vt 0.372886 0.864524
vt 0.353622 0.864524
vt 0.353622 0.768489
vt 0.322096 0.768491
vt 0.322096 0.864526
vt 0.302831 0.864526
vt 0.302831 0.768491
vt 0.398282 0.768491
vt 0.398282 0.864526
vt 0.379017 0.864526
vt 0.379017 0.768491
vt 0.529436 0.864221
vt 0.529436 0.768186
vt 0.548700 0.768186
vt 0.548700 0.864221
vt 0.831959 0.911770
vt 0.812695 0.911770
vt 0.812695 0.892506
vt 0.831959 0.892506
vt 0.607575 0.895279
vt 0.626839 0.895279
vt 0.626839 0.914543
vt 0.607575 0.914543
vt 0.208793 0.788184
vt 0.208793 0.884218
vt 0.189528 0.884218
vt 0.189528 0.788184
vt 0.679584 0.790150
vt 0.679584 0.886185
vt 0.660320 0.886185
vt 0.660320 0.790150
vt 0.972613 0.792105
vt 0.972613 0.888140
vt 0.953348 0.888140
vt 0.953348 0.792105
vt 0.976790 0.894820
vt 0.976790 0.798786
vt 0.996055 0.798786
vt 0.996055 0.894820
vt 0.904239 0.911771
vt 0.884975 0.911771
vt 0.884975 0.892507
vt 0.904239 0.892507
vt 0.953348 0.895281
vt 0.972612 0.895281
vt 0.972612 0.914545
vt 0.953348 0.914545
vt 0.781168 0.856570
vt 0.781168 0.952605
vt 0.761903 0.952605
vt 0.761903 0.856570
vt 0.732329 0.858520
vt 0.732329 0.954555
vt 0.713065 0.954555
vt 0.713065 0.858520
vt 0.601444 0.858521
vt 0.601444 0.954555
vt 0.582180 0.954555
vt 0.582180 0.858521
vt 0.838090 0.955860
vt 0.838090 0.859825
vt 0.857355 0.859825
vt 0.857355 0.955860
vt 0.572142 0.913732
vt 0.552877 0.913732
vt 0.552877 0.894468
vt 0.572142 0.894468
vt 0.976790 0.900661
vt 0.996055 0.900661
vt 0.996055 0.919926
vt 0.976790 0.919926
vt 0.142644 0.601498
vt 0.142644 0.004944
vt 0.161909 0.004944
vt 0.161909 0.601498
vt 0.001992 0.601970
vt 0.001992 0.005417
vt 0.021256 0.005417
vt 0.021256 0.601970
vt 0.025434 0.598742
vt 0.025434 0.002188
vt 0.044698 0.002188
vt 0.044698 0.598742
vt 0.048876 0.601704
vt 0.048876 0.005151
vt 0.068140 0.005151
vt 0.068140 0.601704
vt 0.070365 0.913324
vt 0.089629 0.913324
vt 0.089629 0.932588
vt 0.070365 0.932588
vt 0.044698 0.932593
vt 0.025434 0.932593
vt 0.025434 0.913328
vt 0.044698 0.913328
vt 0.166086 0.601498
vt 0.166086 0.004944
vt 0.185351 0.004944
vt 0.185351 0.601498
vt 0.072318 0.602182
vt 0.072318 0.005629
vt 0.091582 0.005629
vt 0.091582 0.602182
vt 0.095760 0.598742
vt 0.095760 0.002188
vt 0.115025 0.002188
vt 0.115025 0.598742
vt 0.119202 0.601493
vt 0.119202 0.004939
vt 0.138466 0.004939
vt 0.138466 0.601493
vt 0.093807 0.913540
vt 0.113071 0.913540
vt 0.113071 0.932805
vt 0.093807 0.932805
vt 0.136513 0.932810
vt 0.117249 0.932810
vt 0.117249 0.913546
vt 0.136513 0.913546
vt 0.654189 0.856076
vt 0.654189 0.952111
vt 0.634924 0.952111
vt 0.634924 0.856076
vt 0.949170 0.858398
vt 0.949170 0.954433
vt 0.929906 0.954433
vt 0.929906 0.858398
vt 0.423677 0.870563
vt 0.423677 0.966598
vt 0.404412 0.966598
vt 0.404412 0.870563
vt 0.161908 0.871658
vt 0.161908 0.967693
vt 0.142644 0.967693
vt 0.142644 0.871658
vt 0.208793 0.935567
vt 0.189528 0.935567
vt 0.189528 0.916303
vt 0.208793 0.916303
vt 0.681809 0.918268
vt 0.701073 0.918268
vt 0.701073 0.937532
vt 0.681809 0.937532
vt 0.185351 0.869736
vt 0.185351 0.965770
vt 0.166086 0.965770
vt 0.166086 0.869736
vt 0.232235 0.870113
vt 0.232235 0.966148
vt 0.212970 0.966148
vt 0.212970 0.870113
vt 0.275212 0.870565
vt 0.275212 0.966599
vt 0.255947 0.966599
vt 0.255947 0.870565
vt 0.449072 0.871667
vt 0.449072 0.967702
vt 0.429808 0.967702
vt 0.429808 0.871667
vt 0.806563 0.939485
vt 0.787299 0.939485
vt 0.787299 0.920221
vt 0.806563 0.920221
vt 0.861532 0.920222
vt 0.880797 0.920222
vt 0.880797 0.939486
vt 0.861532 0.939486
vt 0.474468 0.869746
vt 0.474468 0.965780
vt 0.455203 0.965780
vt 0.455203 0.869746
vt 0.298654 0.872151
vt 0.298654 0.968186
vt 0.279389 0.968186
vt 0.279389 0.872151
vt 0.367026 0.872520
vt 0.367026 0.968555
vt 0.347762 0.968555
vt 0.347762 0.872520
vt 0.322096 0.873540
vt 0.322096 0.969575
vt 0.302831 0.969575
vt 0.302831 0.873540
vt 0.831959 0.939571
vt 0.812695 0.939571
vt 0.812695 0.920307
vt 0.831959 0.920307
vt 0.607575 0.920307
vt 0.626839 0.920307
vt 0.626839 0.939572
vt 0.607575 0.939572
vt 0.392421 0.869749
vt 0.392421 0.965784
vt 0.373157 0.965784
vt 0.373157 0.869749
vt 0.499863 0.872154
vt 0.499863 0.968188
vt 0.480598 0.968188
vt 0.480598 0.872154
vt 0.525258 0.872523
vt 0.525258 0.968558
vt 0.505994 0.968558
vt 0.505994 0.872523
vt 0.021256 0.873543
vt 0.021256 0.969578
vt 0.001992 0.969578
vt 0.001992 0.873543
vt 0.904239 0.939572
vt 0.884975 0.939572
vt 0.884975 0.920308
vt 0.904239 0.920308
vt 0.953348 0.920309
vt 0.972612 0.920309
vt 0.972612 0.939573
vt 0.953348 0.939573
vt 0.232234 0.002726
vt 0.232234 0.559957
vt 0.212970 0.559957
vt 0.212970 0.002726
vt 0.255677 0.004670
vt 0.255677 0.561901
vt 0.236412 0.561901
vt 0.236412 0.004670
vt 0.208793 0.004660
vt 0.208793 0.561891
vt 0.189528 0.561891
vt 0.189528 0.004660
vt 0.279118 0.004194
vt 0.279118 0.561425
vt 0.259854 0.561425
vt 0.259854 0.004194
vt 0.211017 0.992270
vt 0.211017 0.973006
vt 0.230281 0.973006
vt 0.230281 0.992270
vt 0.253723 0.973006
vt 0.253723 0.992270
vt 0.234459 0.992270
vt 0.234459 0.973006
vt 0.376793 0.004670
vt 0.376793 0.561901
vt 0.357529 0.561901
vt 0.357529 0.004670
vt 0.402189 0.004670
vt 0.402189 0.561901
vt 0.382924 0.561901
vt 0.382924 0.004670
vt 0.427584 0.004670
vt 0.427584 0.561901
vt 0.408320 0.561901
vt 0.408320 0.004670
vt 0.535296 0.561425
vt 0.535296 0.004194
vt 0.554560 0.004194
vt 0.554560 0.561425
vt 0.550653 0.939128
vt 0.531389 0.939128
vt 0.531389 0.919864
vt 0.550653 0.919864
vt 0.556784 0.922636
vt 0.576049 0.922636
vt 0.576049 0.941901
vt 0.556784 0.941901
vt 0.452979 0.004670
vt 0.452979 0.561901
vt 0.433715 0.561901
vt 0.433715 0.004670
vt 0.478375 0.004670
vt 0.478375 0.561901
vt 0.459110 0.561901
vt 0.459110 0.004670
vt 0.503770 0.004670
vt 0.503770 0.561901
vt 0.484505 0.561901
vt 0.484505 0.004670
vt 0.560691 0.561425
vt 0.560691 0.004194
vt 0.579956 0.004194
vt 0.579956 0.561425
vt 0.996055 0.942549
vt 0.976790 0.942549
vt 0.976790 0.923284
vt 0.996055 0.923284
vt 0.046923 0.938263
vt 0.066187 0.938263
vt 0.066187 0.957527
vt 0.046923 0.957527
vn 1.000000 -0.000003 0.000000
vn 1.000000 -0.000003 0.000000
vn 1.000000 -0.000003 0.000000
vn 1.000000 -0.000003 0.000000
vn 0.000000 0.000000 1.000000
vn 0.000000 0.000000 1.000000
vn 0.000000 0.000000 1.000000
vn 0.000000 0.000000 1.000000
vn -1.000000 0.000000 0.000000
vn -1.000000 0.000000 0.000000
vn -1.000000 0.000000 0.000000
vn -1.000000 0.000000 0.000000
vn 0.000000 0.000000 -1.000000
vn 0.000000 0.000000 -1.000000
vn 0.000000 0.000000 -1.000000
vn 0.000000 0.000000 -1.000000
vn 0.000000 1.000000 0.000000
vn 0.000000 1.000000 0.000000
vn 0.000000 1.000000 0.000000
vn 0.000000 1.000000 0.000000
vn 0.000000 -1.000000 0.000000
vn 0.000000 -1.000000 0.000000
vn 0.000000 -1.000000 0.000000
vn 0.000000 -1.000000 0.000000
vn 0.000000 -1.000000 0.000006
vn 0.000000 -1.000000 0.000006
vn 0.000000 -1.000000 0.000006
vn 0.000000 -1.000000 0.000006
vn 0.000000 0.000000 1.000000
vn 0.000000 0.000000 1.000000
vn 0.000000 0.000000 1.000000
vn 0.000000 0.000000 1.000000
vn 0.000000 1.000000 -0.000013
vn 0.000000 1.000000 -0.000013
vn 0.000000 1.000000 -0.000013
vn 0.000000 1.000000 -0.000013
vn 0.000000 0.000000 -1.000000
vn 0.000000 0.000000 -1.000000
vn 0.000000 0.000000 -1.000000
vn 0.000000 0.000000 -1.000000
vn 1.000000 0.000000 0.000000
vn 1.000000 0.000000 0.000000
vn 1.000000 0.000000 0.000000
vn 1.000000 0.000000 0.000000
vn -1.000000 0.000000 0.000000
vn -1.000000 0.000000 0.000000
vn -1.000000 0.000000 0.000000
vn -1.000000 0.000000 0.000000
vn 0.000000 -1.000000 -0.000001
vn 0.000000 -1.000000 -0.000001
vn 0.000000 -1.000000 -0.000001
vn 0.000000 -1.000000 -0.000001
vn 0.000000 0.000000 1.000000
vn 0.000000 0.000000 1.000000
vn 0.000000 0.000000 1.000000
vn 0.000000 0.000000 1.000000
vn 0.000000 1.000000 -0.000002
vn 0.000000 1.000000 -0.000002
vn 0.000000 1.000000 -0.000002
vn 0.000000 1.000000 -0.000002
vn 0.000000 0.000000 -1.000000
vn 0.000000 0.000000 -1.000000
vn 0.000000 0.000000 -1.000000
vn 0.000000 0.000000 -1.000000
vn 1.000000 0.000000 0.000000
vn 1.000000 0.000000 0.000000
vn 1.000000 0.000000 0.000000
vn 1.000000 0.000000 0.000000
vn -1.000000 0.000000 0.000000
vn -1.000000 0.000000 0.000000
vn -1.000000 0.000000 0.000000
vn -1.000000 0.000000 0.000000
vn 1.000000 0.000000 0.000000
vn 1.000000 0.000000 0.000000
vn 1.000000 0.000000 0.000000
vn 1.000000 0.000000 0.000000
vn 0.000000 0.000000 1.000000
vn 0.000000 0.000000 1.000000
vn 0.000000 0.000000 1.000000
vn 0.000000 0.000000 1.000000
vn -1.000000 0.000014 -0.000000
vn -1.000000 0.000014 -0.000000
vn -1.000000 0.000014 -0.000000
vn -1.000000 0.000014 -0.000000
vn 0.000000 0.000000 -1.000000
vn 0.000000 0.000000 -1.000000
vn 0.000000 0.000000 -1.000000
vn 0.000000 0.000000 -1.000000
vn 0.000000 1.000000 -0.000007
vn 0.000000 1.000000 -0.000007
vn 0.000000 1.000000 -0.000007
vn 0.000000 1.000000 -0.000007
vn 0.000000 -1.000000 0.000002
vn 0.000000 -1.000000 0.000002
vn 0.000000 -1.000000 0.000002
vn 0.000000 -1.000000 0.000002
vn 1.000000 0.000000 0.000000
vn 1.000000 0.000000 0.000000
vn 1.000000 0.000000 0.000000
vn 1.000000 0.000000 0.000000
vn 0.000000 0.000000 1.000000
vn 0.000000 0.000000 1.000000
vn 0.000000 0.000000 1.000000
vn 0.000000 0.000000 1.000000
vn -1.000000 0.000000 0.000000
vn -1.000000 0.000000 0.000000
vn -1.000000 0.000000 0.000000
vn -1.000000 0.000000 0.000000
vn 0.000000 0.000000 -1.000000
vn 0.000000 0.000000 -1.000000
vn 0.000000 0.000000 -1.000000
vn 0.000000 0.000000 -1.000000
vn 0.000000 1.000000 -0.000007
vn 0.000000 1.000000 -0.000007
vn 0.000000 1.000000 -0.000007
vn 0.000000 1.000000 -0.000007
vn 0.000000 -1.000000 0.000002
vn 0.000000 -1.000000 0.000002
vn 0.000000 -1.000000 0.000002
vn 0.000000 -1.000000 0.000002
vn 1.000000 0.000000 0.000000
vn 1.000000 0.000000 0.000000
vn 1.000000 0.000000 0.000000
vn 1.000000 0.000000 0.000000
vn 0.000000 0.000000 1.000000
vn 0.000000 0.000000 1.000000
vn 0.000000 0.000000 1.000000
vn 0.000000 0.000000 1.000000
vn -1.000000 0.000000 0.000000
vn -1.000000 0.000000 0.000000
vn -1.000000 0.000000 0.000000
vn -1.000000 0.000000 0.000000
vn 0.000000 0.000000 -1.000000
vn 0.000000 0.000000 -1.000000
vn 0.000000 0.000000 -1.000000
vn 0.000000 0.000000 -1.000000
vn 0.000000 1.000000 -0.000007
vn 0.000000 1.000000 -0.000007
vn 0.000000 1.000000 -0.000007
vn 0.000000 1.000000 -0.000007
vn 0.000000 -1.000000 0.000003
vn 0.000000 -1.000000 0.000003
vn 0.000000 -1.000000 0.000003
vn 0.000000 -1.000000 0.000003
vn 1.000000 0.000000 0.000000
vn 1.000000 0.000000 0.000000
vn 1.000000 0.000000 0.000000
vn 1.000000 0.000000 0.000000
vn 0.000000 0.000000 1.000000
vn 0.000000 0.000000 1.000000
vn 0.000000 0.000000 1.000000
vn 0.000000 0.000000 1.000000
vn -1.000000 0.000000 0.000000
vn -1.000000 0.000000 0.000000
vn -1.000000 0.000000 0.000000
vn -1.000000 0.000000 0.000000
vn 0.000000 0.000000 -1.000000
vn 0.000000 0.000000 -1.000000
vn 0.000000 0.000000 -1.000000
vn 0.000000 0.000000 -1.000000
vn 0.000000 1.000000 -0.000007
vn 0.000000 1.000000 -0.000007
vn 0.000000 1.000000 -0.000007
vn 0.000000 1.000000 -0.000007
vn 0.000000 -1.000000 0.000003
vn 0.000000 -1.000000 0.000003
vn 0.000000 -1.000000 0.000003
vn 0.000000 -1.000000 0.000003
vn 0.000000 -1.000000 -0.000001
vn 0.000000 -1.000000 -0.000001
vn 0.000000 -1.000000 -0.000001
vn 0.000000 -1.000000 -0.000001
vn 0.000000 0.000000 1.000000
vn 0.000000 0.000000 1.000000
vn 0.000000 0.000000 1.000000
vn 0.000000 0.000000 1.000000
vn 0.000000 1.000000 0.000000
vn 0.000000 1.000000 0.000000
vn 0.000000 1.000000 0.000000
vn 0.000000 1.000000 0.000000
vn 0.000000 0.000000 -1.000000
vn 0.000000 0.000000 -1.000000
vn 0.000000 0.000000 -1.000000
vn 0.000000 0.000000 -1.000000
vn 1.000000 0.000000 0.000000
vn 1.000000 0.000000 0.000000
vn 1.000000 0.000000 0.000000
vn 1.000000 0.000000 0.000000
vn -1.000000 0.000000 0.000000
vn -1.000000 0.000000 0.000000
vn -1.000000 0.000000 0.000000
vn -1.000000 0.000000 0.000000
vn 1.000000 0.000000 0.000000
vn 1.000000 0.000000 0.000000
vn 1.000000 0.000000 0.000000
vn 1.000000 0.000000 0.000000
vn 0.000000 0.000000 1.000000
vn 0.000000 0.000000 1.000000
vn 0.000000 0.000000 1.000000
vn 0.000000 0.000000 1.000000
vn -1.000000 0.000000 0.000000
vn -1.000000 0.000000 0.000000
vn -1.000000 0.000000 0.000000
vn -1.000000 0.000000 0.000000
vn 0.000000 0.000000 -1.000000
vn 0.000000 0.000000 -1.000000
vn 0.000000 0.000000 -1.000000
vn 0.000000 0.000000 -1.000000
vn 0.000000 1.000000 0.000000
vn 0.000000 1.000000 0.000000
vn 0.000000 1.000000 0.000000
vn 0.000000 1.000000 0.000000
vn 0.000000 -1.000000 -0.000001
vn 0.000000 -1.000000 -0.000001
vn 0.000000 -1.000000 -0.000001
vn 0.000000 -1.000000 -0.000001
vn 0.000000 -1.000000 0.000000
vn 0.000000 -1.000000 0.000000
vn 0.000000 -1.000000 0.000000
vn 0.000000 -1.000000 0.000000
vn 0.000000 0.000000 1.000000
vn 0.000000 0.000000 1.000000
vn 0.000000 0.000000 1.000000
vn 0.000000 0.000000 1.000000
vn 0.000000 1.000000 -0.000003
vn 0.000000 1.000000 -0.000003
vn 0.000000 1.000000 -0.000003
vn 0.000000 1.000000 -0.000003
vn 0.000000 0.000000 -1.000000
vn 0.000000 0.000000 -1.000000
vn 0.000000 0.000000 -1.000000
vn 0.000000 0.000000 -1.000000
vn 1.000000 0.000000 0.000000
vn 1.000000 0.000000 0.000000
vn 1.000000 0.000000 0.000000
vn 1.000000 0.000000 0.000000
vn -1.000000 0.000000 0.000000
vn -1.000000 0.000000 0.000000
vn -1.000000 0.000000 0.000000
vn -1.000000 0.000000 0.000000
vn 1.000000 0.000000 0.000000
vn 1.000000 0.000000 0.000000
vn 1.000000 0.000000 0.000000
vn 1.000000 0.000000 0.000000
vn 0.000000 0.000000 1.000000
vn 0.000000 0.000000 1.000000
vn 0.000000 0.000000 1.000000
vn 0.000000 0.000000 1.000000
vn -1.000000 0.000000 0.000000
vn -1.000000 0.000000 0.000000
vn -1.000000 0.000000 0.000000
vn -1.000000 0.000000 0.000000
vn 0.000000 0.000000 -1.000000
vn 0.000000 0.000000 -1.000000
vn 0.000000 0.000000 -1.000000
vn 0.000000 0.000000 -1.000000
vn 0.000000 1.000000 0.000000
vn 0.000000 1.000000 0.000000
vn 0.000000 1.000000 0.000000
vn 0.000000 1.000000 0.000000
vn 0.000000 -1.000000 0.000003
vn 0.000000 -1.000000 0.000003
vn 0.000000 -1.000000 0.000003
vn 0.000000 -1.000000 0.000003
vn 0.000000 -1.000000 0.000000
vn 0.000000 -1.000000 0.000000
vn 0.000000 -1.000000 0.000000
vn 0.000000 -1.000000 0.000000
vn 0.000000 0.000000 1.000000
vn 0.000000 0.000000 1.000000
vn 0.000000 0.000000 1.000000
vn 0.000000 0.000000 1.000000
vn 0.000000 1.000000 -0.000003
vn 0.000000 1.000000 -0.000003
vn 0.000000 1.000000 -0.000003
vn 0.000000 1.000000 -0.000003
vn 0.000000 0.000000 -1.000000
vn 0.000000 0.000000 -1.000000
vn 0.000000 0.000000 -1.000000
vn 0.000000 0.000000 -1.000000
vn 1.000000 0.000000 0.000000
vn 1.000000 0.000000 0.000000
vn 1.000000 0.000000 0.000000
vn 1.000000 0.000000 0.000000
vn -1.000000 0.000000 0.000000
vn -1.000000 0.000000 0.000000
vn -1.000000 0.000000 0.000000
vn -1.000000 0.000000 0.000000
vn 1.000000 0.000000 0.000000
vn 1.000000 0.000000 0.000000
vn 1.000000 0.000000 0.000000
vn 1.000000 0.000000 0.000000
vn 0.000000 0.000000 1.000000
vn 0.000000 0.000000 1.000000
vn 0.000000 0.000000 1.000000
vn 0.000000 0.000000 1.000000
vn -1.000000 -0.000019 -0.000000
vn -1.000000 -0.000019 -0.000000
vn -1.000000 -0.000019 -0.000000
vn -1.000000 -0.000019 -0.000000
vn 0.000000 0.000000 -1.000000
vn 0.000000 0.000000 -1.000000
vn 0.000000 0.000000 -1.000000
vn 0.000000 0.000000 -1.000000
vn 0.000000 1.000000 0.000000
vn 0.000000 1.000000 0.000000
vn 0.000000 1.000000 0.000000
vn 0.000000 1.000000 0.000000
vn 0.000000 -1.000000 -0.000001
vn 0.000000 -1.000000 -0.000001
vn 0.000000 -1.000000 -0.000001
vn 0.000000 -1.000000 -0.000001
vn 0.000000 -1.000000 0.000000
vn 0.000000 -1.000000 0.000000
vn 0.000000 -1.000000 0.000000
vn 0.000000 -1.000000 0.000000
vn 0.000000 0.000000 1.000000
vn 0.000000 0.000000 1.000000
vn 0.000000 0.000000 1.000000
vn 0.000000 0.000000 1.000000
vn 0.000000 1.000000 -0.000003
vn 0.000000 1.000000 -0.000003
vn 0.000000 1.000000 -0.000003
vn 0.000000 1.000000 -0.000003
vn 0.000000 0.000000 -1.000000
vn 0.000000 0.000000 -1.000000
vn 0.000000 0.000000 -1.000000
vn 0.000000 0.000000 -1.000000
vn 1.000000 -0.000222 0.000000
vn 1.000000 -0.000222 0.000000
vn 1.000000 -0.000222 0.000000
vn 1.000000 -0.000222 0.000000
vn -1.000000 0.000000 0.000000
vn -1.000000 0.000000 0.000000
vn -1.000000 0.000000 0.000000
vn -1.000000 0.000000 0.000000
vn 1.000000 0.000000 0.000000
vn 1.000000 0.000000 0.000000
vn 1.000000 0.000000 0.000000
vn 1.000000 0.000000 0.000000
vn 0.000000 0.000000 1.000000
vn 0.000000 0.000000 1.000000
vn 0.000000 0.000000 1.000000
vn 0.000000 0.000000 1.000000
vn -1.000000 0.000000 0.000000
vn -1.000000 0.000000 0.000000
vn -1.000000 0.000000 0.000000
vn -1.000000 0.000000 0.000000
vn 0.000000 0.000000 -1.000000
vn 0.000000 0.000000 -1.000000
vn 0.000000 0.000000 -1.000000
vn 0.000000 0.000000 -1.000000
vn 0.000000 1.000000 0.000000
vn 0.000000 1.000000 0.000000
vn 0.000000 1.000000 0.000000
vn 0.000000 1.000000 0.000000
vn 0.000000 -1.000000 0.000003
vn 0.000000 -1.000000 0.000003
vn 0.000000 -1.000000 0.000003
vn 0.000000 -1.000000 0.000003
vn 0.000000 -1.000000 0.000000
vn 0.000000 -1.000000 0.000000
vn 0.000000 -1.000000 0.000000
vn 0.000000 -1.000000 0.000000
vn 0.000000 0.000000 1.000000
vn 0.000000 0.000000 1.000000
vn 0.000000 0.000000 1.000000
vn 0.000000 0.000000 1.000000
vn 0.000000 1.000000 -0.000003
vn 0.000000 1.000000 -0.000003
vn 0.000000 1.000000 -0.000003
vn 0.000000 1.000000 -0.000003
vn 0.000000 0.000000 -1.000000
vn 0.000000 0.000000 -1.000000
vn 0.000000 0.000000 -1.000000
vn 0.000000 0.000000 -1.000000
vn 1.000000 0.000000 0.000000
vn 1.000000 0.000000 0.000000
vn 1.000000 0.000000 0.000000
vn 1.000000 0.000000 0.000000
vn -1.000000 0.000000 0.000000
vn -1.000000 0.000000 0.000000
vn -1.000000 0.000000 0.000000
vn -1.000000 0.000000 0.000000
vn 0.000000 -1.000000 0.000000
vn 0.000000 -1.000000 0.000000
vn 0.000000 -1.000000 0.000000
vn 0.000000 -1.000000 0.000000
vn 0.000000 0.000000 1.000000
vn 0.000000 0.000000 1.000000
vn 0.000000 0.000000 1.000000
vn 0.000000 0.000000 1.000000
vn 0.000000 1.000000 0.000000
vn 0.000000 1.000000 0.000000
vn 0.000000 1.000000 0.000000
vn 0.000000 1.000000 0.000000
vn 0.000000 0.000000 -1.000000
vn 0.000000 0.000000 -1.000000
vn 0.000000 0.000000 -1.000000
vn 0.000000 0.000000 -1.000000
vn 1.000000 -0.000074 0.000000
vn 1.000000 -0.000074 0.000000
vn 1.000000 -0.000074 0.000000
vn 1.000000 -0.000074 0.000000
vn -1.000000 0.000148 0.000000
vn -1.000000 0.000148 0.000000
vn -1.000000 0.000148 0.000000
vn -1.000000 0.000148 0.000000
vn 0.000000 -1.000000 0.000000
vn 0.000000 -1.000000 0.000000
vn 0.000000 -1.000000 0.000000
vn 0.000000 -1.000000 0.000000
vn 0.000000 0.000000 1.000000
vn 0.000000 0.000000 1.000000
vn 0.000000 0.000000 1.000000
vn 0.000000 0.000000 1.000000
vn 0.000000 1.000000 0.000000
vn 0.000000 1.000000 0.000000
vn 0.000000 1.000000 0.000000
vn 0.000000 1.000000 0.000000
vn 0.000000 0.000000 -1.000000
vn 0.000000 0.000000 -1.000000
vn 0.000000 0.000000 -1.000000
vn 0.000000 0.000000 -1.000000
vn 1.000000 0.000000 0.000000
vn 1.000000 0.000000 0.000000
vn 1.000000 0.000000 0.000000
vn 1.000000 0.000000 0.000000
vn -1.000000 0.000000 0.000000
vn -1.000000 0.000000 0.000000
vn -1.000000 0.000000 0.000000
vn -1.000000 0.000000 0.000000
vn 1.000000 0.000000 0.000000
vn 1.000000 0.000000 0.000000
vn 1.000000 0.000000 0.000000
vn 1.000000 0.000000 0.000000
vn 0.000000 0.000000 1.000000
vn 0.000000 0.000000 1.000000
vn 0.000000 0.000000 1.000000
vn 0.000000 0.000000 1.000000
vn -1.000000 0.000000 0.000000
vn -1.000000 0.000000 0.000000
vn -1.000000 0.000000 0.000000
vn -1.000000 0.000000 0.000000
vn 0.000000 0.000000 -1.000000
vn 0.000000 0.000000 -1.000000
vn 0.000000 0.000000 -1.000000
vn 0.000000 0.000000 -1.000000
vn 0.000000 1.000000 -0.000007
vn 0.000000 1.000000 -0.000007
vn 0.000000 1.000000 -0.000007
vn 0.000000 1.000000 -0.000007
vn 0.000000 -1.000000 0.000000
vn 0.000000 -1.000000 0.000000
vn 0.000000 -1.000000 0.000000
vn 0.000000 -1.000000 0.000000
vn 1.000000 0.000000 0.000000
vn 1.000000 0.000000 0.000000
vn 1.000000 0.000000 0.000000
vn 1.000000 0.000000 0.000000
vn 0.000000 0.000000 1.000000
vn 0.000000 0.000000 1.000000
vn 0.000000 0.000000 1.000000
vn 0.000000 0.000000 1.000000
vn -1.000000 0.000000 0.000000
vn -1.000000 0.000000 0.000000
vn -1.000000 0.000000 0.000000
vn -1.000000 0.000000 0.000000
vn 0.000000 0.000000 -1.000000
vn 0.000000 0.000000 -1.000000
vn 0.000000 0.000000 -1.000000
vn 0.000000 0.000000 -1.000000
vn 0.000000 1.000000 -0.000007
vn 0.000000 1.000000 -0.000007
vn 0.000000 1.000000 -0.000007
vn 0.000000 1.000000 -0.000007
vn 0.000000 -1.000000 0.000000
vn 0.000000 -1.000000 0.000000
vn 0.000000 -1.000000 0.000000
vn 0.000000 -1.000000 0.000000
vn 0.000000 -1.000000 0.000007
vn 0.000000 -1.000000 0.000007
vn 0.000000 -1.000000 0.000007
vn 0.000000 -1.000000 0.000007
vn 0.000000 0.000000 1.000000
vn 0.000000 0.000000 1.000000
vn 0.000000 0.000000 1.000000
vn 0.000000 0.000000 1.000000
vn 0.000000 1.000000 -0.000011
vn 0.000000 1.000000 -0.000011
vn 0.000000 1.000000 -0.000011
vn 0.000000 1.000000 -0.000011
vn 0.000000 0.000000 -1.000000
vn 0.000000 0.000000 -1.000000
vn 0.000000 0.000000 -1.000000
vn 0.000000 0.000000 -1.000000
vn 1.000000 0.000000 0.000000
vn 1.000000 0.000000 0.000000
vn 1.000000 0.000000 0.000000
vn 1.000000 0.000000 0.000000
vn -1.000000 0.000000 0.000000
vn -1.000000 0.000000 0.000000
vn -1.000000 0.000000 0.000000
vn -1.000000 0.000000 0.000000
vn 0.000000 -1.000000 0.000006
vn 0.000000 -1.000000 0.000006
vn 0.000000 -1.000000 0.000006
vn 0.000000 -1.000000 0.000006
vn 0.000000 0.000000 1.000000
vn 0.000000 0.000000 1.000000
vn 0.000000 0.000000 1.000000
vn 0.000000 0.000000 1.000000
vn 0.000000 1.000000 -0.000013
vn 0.000000 1.000000 -0.000013
vn 0.000000 1.000000 -0.000013
vn 0.000000 1.000000 -0.000013
vn 0.000000 0.000000 -1.000000
vn 0.000000 0.000000 -1.000000
vn 0.000000 0.000000 -1.000000
vn 0.000000 0.000000 -1.000000
vn 1.000000 0.000000 0.000000
vn 1.000000 0.000000 0.000000
vn 1.000000 0.000000 0.000000
vn 1.000000 0.000000 0.000000
vn -1.000000 0.000000 0.000000
vn -1.000000 0.000000 0.000000
vn -1.000000 0.000000 0.000000
vn -1.000000 0.000000 0.000000
vn 1.000000 0.000019 0.000000
vn 1.000000 0.000019 0.000000
vn 1.000000 0.000019 0.000000
vn 1.000000 0.000019 0.000000
vn 0.000000 0.000000 1.000000
vn 0.000000 0.000000 1.000000
vn 0.000000 0.000000 1.000000
vn 0.000000 0.000000 1.000000
vn -1.000000 -0.000009 0.000000
vn -1.000000 -0.000009 0.000000
vn -1.000000 -0.000009 0.000000
vn -1.000000 -0.000009 0.000000
vn 0.000000 0.000000 -1.000000
vn 0.000000 0.000000 -1.000000
vn 0.000000 0.000000 -1.000000
vn 0.000000 0.000000 -1.000000
vn 0.000000 1.000000 0.000000
vn 0.000000 1.000000 0.000000
vn 0.000000 1.000000 0.000000
vn 0.000000 1.000000 0.000000
vn 0.000000 -1.000000 0.000000
vn 0.000000 -1.000000 0.000000
vn 0.000000 -1.000000 0.000000
vn 0.000000 -1.000000 0.000000
vn 1.000000 0.000009 0.000000
vn 1.000000 0.000009 0.000000
vn 1.000000 0.000009 0.000000
vn 1.000000 0.000009 0.000000
vn 0.000000 0.000000 1.000000
vn 0.000000 0.000000 1.000000
vn 0.000000 0.000000 1.000000
vn 0.000000 0.000000 1.000000
vn -1.000000 -0.000009 0.000000
vn -1.000000 -0.000009 0.000000
vn -1.000000 -0.000009 0.000000
vn -1.000000 -0.000009 0.000000
vn 0.000000 0.000000 -1.000000
vn 0.000000 0.000000 -1.000000
vn 0.000000 0.000000 -1.000000
vn 0.000000 0.000000 -1.000000
vn 0.000000 1.000000 0.000000
vn 0.000000 1.000000 0.000000
vn 0.000000 1.000000 0.000000
vn 0.000000 1.000000 0.000000
vn 0.000000 -1.000000 0.000000
vn 0.000000 -1.000000 0.000000
vn 0.000000 -1.000000 0.000000
vn 0.000000 -1.000000 0.000000
vn 0.000000 -1.000000 0.000000
vn 0.000000 -1.000000 0.000000
vn 0.000000 -1.000000 0.000000
vn 0.000000 -1.000000 0.000000
vn 0.000000 0.000000 1.000000
vn 0.000000 0.000000 1.000000
vn 0.000000 0.000000 1.000000
vn 0.000000 0.000000 1.000000
vn 0.000000 1.000000 -0.000012
vn 0.000000 1.000000 -0.000012
vn 0.000000 1.000000 -0.000012
vn 0.000000 1.000000 -0.000012
vn 0.000000 0.000000 -1.000000
vn 0.000000 0.000000 -1.000000
vn 0.000000 0.000000 -1.000000
vn 0.000000 0.000000 -1.000000
vn 1.000000 0.000000 0.000000
vn 1.000000 0.000000 0.000000
vn 1.000000 0.000000 0.000000
vn 1.000000 0.000000 0.000000
vn -1.000000 0.000000 0.000000
vn -1.000000 0.000000 0.000000
vn -1.000000 0.000000 0.000000
vn -1.000000 0.000000 0.000000
vn 1.000000 0.000000 0.000000
vn 1.000000 0.000000 0.000000
vn 1.000000 0.000000 0.000000
vn 1.000000 0.000000 0.000000
vn 0.000000 0.000000 1.000000
vn 0.000000 0.000000 1.000000
vn 0.000000 0.000000 1.000000
vn 0.000000 0.000000 1.000000
vn -1.000000 0.000000 0.000000
vn -1.000000 0.000000 0.000000
vn -1.000000 0.000000 0.000000
vn -1.000000 0.000000 0.000000
vn 0.000000 0.000000 -1.000000
vn 0.000000 0.000000 -1.000000
vn 0.000000 0.000000 -1.000000
vn 0.000000 0.000000 -1.000000
vn 0.000000 1.000000 -0.000001
vn 0.000000 1.000000 -0.000001
vn 0.000000 1.000000 -0.000001
vn 0.000000 1.000000 -0.000001
vn 0.000000 -1.000000 0.000000
vn 0.000000 -1.000000 0.000000
vn 0.000000 -1.000000 0.000000
vn 0.000000 -1.000000 0.000000
vn 1.000000 0.000000 0.000000
vn 1.000000 0.000000 0.000000
vn 1.000000 0.000000 0.000000
vn 1.000000 0.000000 0.000000
vn 0.000000 0.000000 1.000000
vn 0.000000 0.000000 1.000000
vn 0.000000 0.000000 1.000000
vn 0.000000 0.000000 1.000000
vn -1.000000 0.000000 0.000000
vn -1.000000 0.000000 0.000000
vn -1.000000 0.000000 0.000000
vn -1.000000 0.000000 0.000000
vn 0.000000 0.000000 -1.000000
vn 0.000000 0.000000 -1.000000
vn 0.000000 0.000000 -1.000000
vn 0.000000 0.000000 -1.000000
vn 0.000000 1.000000 -0.000001
vn 0.000000 1.000000 -0.000001
vn 0.000000 1.000000 -0.000001
vn 0.000000 1.000000 -0.000001
vn 0.000000 -1.000000 0.000000
vn 0.000000 -1.000000 0.000000
vn 0.000000 -1.000000 0.000000
vn 0.000000 -1.000000 0.000000
vn 1.000000 0.000000 0.000000
vn 1.000000 0.000000 0.000000
vn 1.000000 0.000000 0.000000
vn 1.000000 0.000000 0.000000
vn 0.000000 0.000000 1.000000
vn 0.000000 0.000000 1.000000
vn 0.000000 0.000000 1.000000
vn 0.000000 0.000000 1.000000
vn -1.000000 0.000000 0.000000
vn -1.000000 0.000000 0.000000
vn -1.000000 0.000000 0.000000
vn -1.000000 0.000000 0.000000
vn 0.000000 0.000000 -1.000000
vn 0.000000 0.000000 -1.000000
vn 0.000000 0.000000 -1.000000
vn 0.000000 0.000000 -1.000000
vn 0.000000 1.000000 0.000000
vn 0.000000 1.000000 0.000000
vn 0.000000 1.000000 0.000000
vn 0.000000 1.000000 0.000000
vn 0.000000 -1.000000 0.000000
vn 0.000000 -1.000000 0.000000
vn 0.000000 -1.000000 0.000000
vn 0.000000 -1.000000 0.000000
vn 1.000000 0.000000 0.000000
vn 1.000000 0.000000 0.000000
vn 1.000000 0.000000 0.000000
vn 1.000000 0.000000 0.000000
vn 0.000000 0.000000 1.000000
vn 0.000000 0.000000 1.000000
vn 0.000000 0.000000 1.000000
vn 0.000000 0.000000 1.000000
vn -1.000000 0.000000 0.000000
vn -1.000000 0.000000 0.000000
vn -1.000000 0.000000 0.000000
vn -1.000000 0.000000 0.000000
vn 0.000000 0.000000 -1.000000
vn 0.000000 0.000000 -1.000000
vn 0.000000 0.000000 -1.000000
vn 0.000000 0.000000 -1.000000
vn 0.000000 1.000000 0.000000
vn 0.000000 1.000000 0.000000
vn 0.000000 1.000000 0.000000
vn 0.000000 1.000000 0.000000
vn 0.000000 -1.000000 0.000000
vn 0.000000 -1.000000 0.000000
vn 0.000000 -1.000000 0.000000
vn 0.000000 -1.000000 0.000000
vn 0.000000 -1.000000 0.000000
vn 0.000000 -1.000000 0.000000
vn 0.000000 -1.000000 0.000000
vn 0.000000 -1.000000 0.000000
vn -0.000000 0.000000 1.000000
vn -0.000000 0.000000 1.000000
vn -0.000000 0.000000 1.000000
vn -0.000000 0.000000 1.000000
vn 0.000000 1.000000 0.000000
vn 0.000000 1.000000 0.000000
vn 0.000000 1.000000 0.000000
vn 0.000000 1.000000 0.000000
vn 0.000001 0.000000 -1.000000
vn 0.000001 0.000000 -1.000000
vn 0.000001 0.000000 -1.000000
vn 0.000001 0.000000 -1.000000
vn 1.000000 0.000000 0.000000
vn 1.000000 0.000000 0.000000
vn 1.000000 0.000000 0.000000
vn 1.000000 0.000000 0.000000
vn -1.000000 0.000000 0.000000
vn -1.000000 0.000000 0.000000
vn -1.000000 0.000000 0.000000
vn -1.000000 0.000000 0.000000
vn 0.000000 -1.000000 0.000000
vn 0.000000 -1.000000 0.000000
vn 0.000000 -1.000000 0.000000
vn 0.000000 -1.000000 0.000000
vn -0.000001 0.000000 1.000000
vn -0.000001 0.000000 1.000000
vn -0.000001 0.000000 1.000000
vn -0.000001 0.000000 1.000000
vn 0.000000 1.000000 0.000000
vn 0.000000 1.000000 0.000000
vn 0.000000 1.000000 0.000000
vn 0.000000 1.000000 0.000000
vn 0.000000 0.000000 -1.000000
vn 0.000000 0.000000 -1.000000
vn 0.000000 0.000000 -1.000000
vn 0.000000 0.000000 -1.000000
vn 1.000000 0.000000 0.000000
vn 1.000000 0.000000 0.000000
vn 1.000000 0.000000 0.000000
vn 1.000000 0.000000 0.000000
vn -1.000000 0.000000 0.000000
vn -1.000000 0.000000 0.000000
vn -1.000000 0.000000 0.000000
vn -1.000000 0.000000 0.000000
vn 0.000000 1.000000 0.000000
vn 0.000000 1.000000 0.000000
vn 0.000000 1.000000 0.000000
vn 0.000000 1.000000 0.000000
vn 0.000000 0.000000 1.000000
vn 0.000000 0.000000 1.000000
vn 0.000000 0.000000 1.000000
vn 0.000000 0.000000 1.000000
vn 0.000000 -1.000000 0.000000
vn 0.000000 -1.000000 0.000000
vn 0.000000 -1.000000 0.000000
vn 0.000000 -1.000000 0.000000
vn 0.000000 0.000000 -1.000000
vn 0.000000 0.000000 -1.000000
vn 0.000000 0.000000 -1.000000
vn 0.000000 0.000000 -1.000000
vn -1.000000 0.000000 0.000000
vn -1.000000 0.000000 0.000000
vn -1.000000 0.000000 0.000000
vn -1.000000 0.000000 0.000000
vn 1.000000 0.000000 0.000000
vn 1.000000 0.000000 0.000000
vn 1.000000 0.000000 0.000000
vn 1.000000 0.000000 0.000000
vn 0.000000 1.000000 0.000000
vn 0.000000 1.000000 0.000000
vn 0.000000 1.000000 0.000000
vn 0.000000 1.000000 0.000000
vn 0.000000 0.000000 1.000000
vn 0.000000 0.000000 1.000000
vn 0.000000 0.000000 1.000000
vn 0.000000 0.000000 1.000000
vn 0.000000 -1.000000 0.000000
vn 0.000000 -1.000000 0.000000
vn 0.000000 -1.000000 0.000000
vn 0.000000 -1.000000 0.000000
vn 0.000000 0.000000 -1.000000
vn 0.000000 0.000000 -1.000000
vn 0.000000 0.000000 -1.000000
vn 0.000000 0.000000 -1.000000
vn -1.000000 0.000000 0.000000
vn -1.000000 0.000000 0.000000
vn -1.000000 0.000000 0.000000
vn -1.000000 0.000000 0.000000
vn 1.000000 0.000000 0.000000
vn 1.000000 0.000000 0.000000
vn 1.000000 0.000000 0.000000
vn 1.000000 0.000000 0.000000
vn 0.000000 1.000000 0.000000
vn 0.000000 1.000000 0.000000
vn 0.000000 1.000000 0.000000
vn 0.000000 1.000000 0.000000
vn 0.000000 0.000000 1.000000
vn 0.000000 0.000000 1.000000
vn 0.000000 0.000000 1.000000
vn 0.000000 0.000000 1.000000
vn 0.000000 -1.000000 0.000000
vn 0.000000 -1.000000 0.000000
vn 0.000000 -1.000000 0.000000
vn 0.000000 -1.000000 0.000000
vn 0.000000 0.000000 -1.000000
vn 0.000000 0.000000 -1.000000
vn 0.000000 0.000000 -1.000000
vn 0.000000 0.000000 -1.000000
vn -1.000000 0.000000 0.000000
vn -1.000000 0.000000 0.000000
vn -1.000000 0.000000 0.000000
vn -1.000000 0.000000 0.000000
vn 1.000000 0.000000 0.000000
vn 1.000000 0.000000 0.000000
vn 1.000000 0.000000 0.000000
vn 1.000000 0.000000 0.000000
vn 0.000000 1.000000 0.000000
vn 0.000000 1.000000 0.000000
vn 0.000000 1.000000 0.000000
vn 0.000000 1.000000 0.000000
vn 0.000000 0.000000 1.000000
vn 0.000000 0.000000 1.000000
vn 0.000000 0.000000 1.000000
vn 0.000000 0.000000 1.000000
vn 0.000000 -1.000000 0.000000
vn 0.000000 -1.000000 0.000000
vn 0.000000 -1.000000 0.000000
vn 0.000000 -1.000000 0.000000
vn 0.000000 0.000000 -1.000000
vn 0.000000 0.000000 -1.000000
vn 0.000000 0.000000 -1.000000
vn 0.000000 0.000000 -1.000000
vn -1.000000 0.000000 0.000000
vn -1.000000 0.000000 0.000000
vn -1.000000 0.000000 0.000000
vn -1.000000 0.000000 0.000000
vn 1.000000 0.000000 0.000000
vn 1.000000 0.000000 0.000000
vn 1.000000 0.000000 0.000000
vn 1.000000 0.000000 0.000000
vn -0.000000 1.000000 0.000003
vn -0.000000 1.000000 0.000003
vn -0.000000 1.000000 0.000003
vn -0.000000 1.000000 0.000003
vn -0.000001 0.000000 1.000000
vn -0.000001 0.000000 1.000000
vn -0.000001 0.000000 1.000000
vn -0.000001 0.000000 1.000000
vn 0.000000 -1.000000 -0.000001
vn 0.000000 -1.000000 -0.000001
vn 0.000000 -1.000000 -0.000001
vn 0.000000 -1.000000 -0.000001
vn 0.000001 0.000000 -1.000000
vn 0.000001 0.000000 -1.000000
vn 0.000001 0.000000 -1.000000
vn 0.000001 0.000000 -1.000000
vn -1.000000 0.000074 0.000000
vn -1.000000 0.000074 0.000000
vn -1.000000 0.000074 0.000000
vn -1.000000 0.000074 0.000000
vn 1.000000 0.000000 0.000000
vn 1.000000 0.000000 0.000000
vn 1.000000 0.000000 0.000000
vn 1.000000 0.000000 0.000000
vn 1.000000 0.000000 0.000000
vn 1.000000 0.000000 0.000000
vn 1.000000 0.000000 0.000000
vn 1.000000 0.000000 0.000000
vn 0.000000 0.000000 1.000000
vn 0.000000 0.000000 1.000000
vn 0.000000 0.000000 1.000000
vn 0.000000 0.000000 1.000000
vn -1.000000 0.000000 0.000000
vn -1.000000 0.000000 0.000000
vn -1.000000 0.000000 0.000000
vn -1.000000 0.000000 0.000000
vn 0.000000 0.000000 -1.000000
vn 0.000000 0.000000 -1.000000
vn 0.000000 0.000000 -1.000000
vn 0.000000 0.000000 -1.000000
vn 0.000000 1.000000 0.000000
vn 0.000000 1.000000 0.000000
vn 0.000000 1.000000 0.000000
vn 0.000000 1.000000 0.000000
vn 0.000000 -1.000000 0.000000
vn 0.000000 -1.000000 0.000000
vn 0.000000 -1.000000 0.000000
vn 0.000000 -1.000000 0.000000
vn 1.000000 -0.000005 0.000000
vn 1.000000 -0.000005 0.000000
vn 1.000000 -0.000005 0.000000
vn 1.000000 -0.000005 0.000000
vn 0.000000 0.000000 1.000000
vn 0.000000 0.000000 1.000000
vn 0.000000 0.000000 1.000000
vn 0.000000 0.000000 1.000000
vn -1.000000 0.000003 0.000000
vn -1.000000 0.000003 0.000000
vn -1.000000 0.000003 0.000000
vn -1.000000 0.000003 0.000000
vn 0.000000 0.000000 -1.000000
vn 0.000000 0.000000 -1.000000
vn 0.000000 0.000000 -1.000000
vn 0.000000 0.000000 -1.000000
vn 0.000000 1.000000 0.000000
vn 0.000000 1.000000 0.000000
vn 0.000000 1.000000 0.000000
vn 0.000000 1.000000 0.000000
vn 0.000000 -1.000000 0.000000
vn 0.000000 -1.000000 0.000000
vn 0.000000 -1.000000 0.000000
vn 0.000000 -1.000000 0.000000
s off
g polySurface9069
f 1/1/1 2/2/2 4/3/3 3/4/4
f 3/5/5 4/6/6 6/7/7 5/8/8
f 5/9/9 6/10/10 8/11/11 7/12/12
f 7/13/13 8/14/14 2/15/15 1/16/16
f 2/17/17 8/18/18 6/19/19 4/20/20
f 7/21/21 1/22/22 3/23/23 5/24/24
f 9/25/25 10/26/26 12/27/27 11/28/28
f 11/29/29 12/30/30 14/31/31 13/32/32
f 13/33/33 14/34/34 16/35/35 15/36/36
f 15/37/37 16/38/38 10/39/39 9/40/40
f 10/41/41 16/42/42 14/43/43 12/44/44
f 15/45/45 9/46/46 11/47/47 13/48/48
f 17/49/49 18/50/50 20/51/51 19/52/52
f 19/53/53 20/54/54 22/55/55 21/56/56
f 21/57/57 22/58/58 24/59/59 23/60/60
f 23/61/61 24/62/62 18/63/63 17/64/64
f 18/65/65 24/66/66 22/67/67 20/68/68
f 23/69/69 17/70/70 19/71/71 21/72/72
f 25/73/73 26/74/74 28/75/75 27/76/76
f 27/77/77 28/78/78 30/79/79 29/80/80
f 29/81/81 30/82/82 32/83/83 31/84/84
f 31/85/85 32/86/86 26/87/87 25/88/88
f 26/89/89 32/90/90 30/91/91 28/92/92
f 31/93/93 25/94/94 27/95/95 29/96/96
f 33/97/97 34/98/98 36/99/99 35/100/100
f 35/101/101 36/102/102 38/103/103 37/104/104
f 37/105/105 38/106/106 40/107/107 39/108/108
f 39/109/109 40/110/110 34/111/111 33/112/112
f 34/113/113 40/114/114 38/115/115 36/116/116
f 39/117/117 33/118/118 35/119/119 37/120/120
f 41/121/121 42/122/122 44/123/123 43/124/124
f 43/125/125 44/126/126 46/127/127 45/128/128
f 45/129/129 46/130/130 48/131/131 47/132/132
f 47/133/133 48/134/134 42/135/135 41/136/136
f 42/137/137 48/138/138 46/139/139 44/140/140
f 47/141/141 41/142/142 43/143/143 45/144/144
f 49/145/145 50/146/146 52/147/147 51/148/148
f 51/149/149 52/150/150 54/151/151 53/152/152
f 53/153/153 54/154/154 56/155/155 55/156/156
f 55/157/157 56/158/158 50/159/159 49/160/160
f 50/161/161 56/162/162 54/163/163 52/164/164
f 55/165/165 49/166/166 51/167/167 53/168/168
f 57/169/169 58/170/170 60/171/171 59/172/172
f 59/173/173 60/174/174 62/175/175 61/176/176
f 61/177/177 62/178/178 64/179/179 63/180/180
f 63/181/181 64/182/182 58/183/183 57/184/184
f 58/185/185 64/186/186 62/187/187 60/188/188
f 63/189/189 57/190/190 59/191/191 61/192/192
f 65/193/193 66/194/194 68/195/195 67/196/196
f 67/197/197 68/198/198 70/199/199 69/200/200
f 69/201/201 70/202/202 72/203/203 71/204/204
f 71/205/205 72/206/206 66/207/207 65/208/208
f 66/209/209 72/210/210 70/211/211 68/212/212
f 71/213/213 65/214/214 67/215/215 69/216/216
f 73/217/217 74/218/218 76/219/219 75/220/220
f 75/221/221 76/222/222 78/223/223 77/224/224
f 77/225/225 78/226/226 80/227/227 79/228/228
f 79/229/229 80/230/230 74/231/231 73/232/232
f 74/233/233 80/234/234 78/235/235 76/236/236
f 79/237/237 73/238/238 75/239/239 77/240/240
f 81/241/241 82/242/242 84/243/243 83/244/244
f 83/245/245 84/246/246 86/247/247 85/248/248
f 85/249/249 86/250/250 88/251/251 87/252/252
f 87/253/253 88/254/254 82/255/255 81/256/256
f 82/257/257 88/258/258 86/259/259 84/260/260
f 87/261/261 81/262/262 83/263/263 85/264/264
f 89/265/265 90/266/266 92/267/267 91/268/268
f 91/269/269 92/270/270 94/271/271 93/272/272
f 93/273/273 94/274/274 96/275/275 95/276/276
f 95/277/277 96/278/278 90/279/279 89/280/280
f 90/281/281 96/282/282 94/283/283 92/284/284
f 95/285/285 89/286/286 91/287/287 93/288/288
f 97/289/289 98/290/290 100/291/291 99/292/292
f 99/293/293 100/294/294 102/295/295 101/296/296
f 101/297/297 102/298/298 104/299/299 103/300/300
f 103/301/301 104/302/302 98/303/303 97/304/304
f 98/305/305 104/306/306 102/307/307 100/308/308
f 103/309/309 97/310/310 99/311/311 101/312/312
f 105/313/313 106/314/314 108/315/315 107/316/316
f 107/317/317 108/318/318 110/319/319 109/320/320
f 109/321/321 110/322/322 112/323/323 111/324/324
f 111/325/325 112/326/326 106/327/327 105/328/328
f 106/329/329 112/330/330 110/331/331 108/332/332
f 111/333/333 105/334/334 107/335/335 109/336/336
f 113/337/337 114/338/338 116/339/339 115/340/340
f 115/341/341 116/342/342 118/343/343 117/344/344
f 117/345/345 118/346/346 120/347/347 119/348/348
f 119/349/349 120/350/350 114/351/351 113/352/352
f 114/353/353 120/354/354 118/355/355 116/356/356
f 119/357/357 113/358/358 115/359/359 117/360/360
f 121/361/361 122/362/362 124/363/363 123/364/364
f 123/365/365 124/366/366 126/367/367 125/368/368
f 125/369/369 126/370/370 128/371/371 127/372/372
f 127/373/373 128/374/374 122/375/375 121/376/376
f 122/377/377 128/378/378 126/379/379 124/380/380
f 127/381/381 121/382/382 123/383/383 125/384/384
f 129/385/385 130/386/386 132/387/387 131/388/388
f 131/389/389 132/390/390 134/391/391 133/392/392
f 133/393/393 134/394/394 136/395/395 135/396/396
f 135/397/397 136/398/398 130/399/399 129/400/400
f 130/401/401 136/402/402 134/403/403 132/404/404
f 135/405/405 129/406/406 131/407/407 133/408/408
f 137/409/409 138/410/410 140/411/411 139/412/412
f 139/413/413 140/414/414 142/415/415 141/416/416
f 141/417/417 142/418/418 144/419/419 143/420/420
f 143/421/421 144/422/422 138/423/423 137/424/424
f 138/425/425 144/426/426 142/427/427 140/428/428
f 143/429/429 137/430/430 139/431/431 141/432/432
f 145/433/433 146/434/434 148/435/435 147/436/436
f 147/437/437 148/438/438 150/439/439 149/440/440
f 149/441/441 150/442/442 152/443/443 151/444/444
f 151/445/445 152/446/446 146/447/447 145/448/448
f 146/449/449 152/450/450 150/451/451 148/452/452
f 151/453/453 145/454/454 147/455/455 149/456/456
f 153/457/457 154/458/458 156/459/459 155/460/460
f 155/461/461 156/462/462 158/463/463 157/464/464
f 157/465/465 158/466/466 160/467/467 159/468/468
f 159/469/469 160/470/470 154/471/471 153/472/472
f 154/473/473 160/474/474 158/475/475 156/476/476
f 159/477/477 153/478/478 155/479/479 157/480/480
f 161/481/481 162/482/482 164/483/483 163/484/484
f 163/485/485 164/486/486 166/487/487 165/488/488
f 165/489/489 166/490/490 168/491/491 167/492/492
f 167/493/493 168/494/494 162/495/495 161/496/496
f 162/497/497 168/498/498 166/499/499 164/500/500
f 167/501/501 161/502/502 163/503/503 165/504/504
f 169/505/505 170/506/506 172/507/507 171/508/508
f 171/509/509 172/510/510 174/511/511 173/512/512
f 173/513/513 174/514/514 176/515/515 175/516/516
f 175/517/517 176/518/518 170/519/519 169/520/520
f 170/521/521 176/522/522 174/523/523 172/524/524
f 175/525/525 169/526/526 171/527/527 173/528/528
f 177/529/529 178/530/530 180/531/531 179/532/532
f 179/533/533 180/534/534 182/535/535 181/536/536
f 181/537/537 182/538/538 184/539/539 183/540/540
f 183/541/541 184/542/542 178/543/543 177/544/544
f 178/545/545 184/546/546 182/547/547 180/548/548
f 183/549/549 177/550/550 179/551/551 181/552/552
f 185/553/553 186/554/554 188/555/555 187/556/556
f 187/557/557 188/558/558 190/559/559 189/560/560
f 189/561/561 190/562/562 192/563/563 191/564/564
f 191/565/565 192/566/566 186/567/567 185/568/568
f 186/569/569 192/570/570 190/571/571 188/572/572
f 191/573/573 185/574/574 187/575/575 189/576/576
f 193/577/577 194/578/578 196/579/579 195/580/580
f 195/581/581 196/582/582 198/583/583 197/584/584
f 197/585/585 198/586/586 200/587/587 199/588/588
f 199/589/589 200/590/590 194/591/591 193/592/592
f 194/593/593 200/594/594 198/595/595 196/596/596
f 199/597/597 193/598/598 195/599/599 197/600/600
f 201/601/601 202/602/602 204/603/603 203/604/604
f 203/605/605 204/606/606 206/607/607 205/608/608
f 205/609/609 206/610/610 208/611/611 207/612/612
f 207/613/613 208/614/614 202/615/615 201/616/616
f 202/617/617 208/618/618 206/619/619 204/620/620
f 207/621/621 201/622/622 203/623/623 205/624/624
f 209/625/625 210/626/626 212/627/627 211/628/628
f 211/629/629 212/630/630 214/631/631 213/632/632
f 213/633/633 214/634/634 216/635/635 215/636/636
f 215/637/637 216/638/638 210/639/639 209/640/640
f 210/641/641 216/642/642 214/643/643 212/644/644
f 215/645/645 209/646/646 211/647/647 213/648/648
f 217/649/649 218/650/650 220/651/651 219/652/652
f 219/653/653 220/654/654 222/655/655 221/656/656
f 221/657/657 222/658/658 224/659/659 223/660/660
f 223/661/661 224/662/662 218/663/663 217/664/664
f 218/665/665 224/666/666 222/667/667 220/668/668
f 223/669/669 217/670/670 219/671/671 221/672/672
f 225/673/673 226/674/674 228/675/675 227/676/676
f 227/677/677 228/678/678 230/679/679 229/680/680
f 229/681/681 230/682/682 232/683/683 231/684/684
f 231/685/685 232/686/686 226/687/687 225/688/688
f 226/689/689 232/690/690 230/691/691 228/692/692
f 231/693/693 225/694/694 227/695/695 229/696/696
f 233/697/697 234/698/698 236/699/699 235/700/700
f 235/701/701 236/702/702 238/703/703 237/704/704
f 237/705/705 238/706/706 240/707/707 239/708/708
f 239/709/709 240/710/710 234/711/711 233/712/712
f 234/713/713 240/714/714 238/715/715 236/716/716
f 239/717/717 233/718/718 235/719/719 237/720/720
f 241/721/721 242/722/722 244/723/723 243/724/724
f 243/725/725 244/726/726 246/727/727 245/728/728
f 245/729/729 246/730/730 248/731/731 247/732/732
f 247/733/733 248/734/734 242/735/735 241/736/736
f 242/737/737 248/738/738 246/739/739 244/740/740
f 247/741/741 241/742/742 243/743/743 245/744/744
f 249/745/745 250/746/746 252/747/747 251/748/748
f 251/749/749 252/750/750 254/751/751 253/752/752
f 253/753/753 254/754/754 256/755/755 255/756/756
f 255/757/757 256/758/758 250/759/759 249/760/760
f 250/761/761 256/762/762 254/763/763 252/764/764
f 255/765/765 249/766/766 251/767/767 253/768/768
f 257/769/769 258/770/770 260/771/771 259/772/772
f 259/773/773 260/774/774 262/775/775 261/776/776
f 261/777/777 262/778/778 264/779/779 263/780/780
f 263/781/781 264/782/782 258/783/783 257/784/784
f 258/785/785 264/786/786 262/787/787 260/788/788
f 263/789/789 257/790/790 259/791/791 261/792/792
f 265/793/793 266/794/794 268/795/795 267/796/796
f 267/797/797 268/798/798 270/799/799 269/800/800
f 269/801/801 270/802/802 272/803/803 271/804/804
f 271/805/805 272/806/806 266/807/807 265/808/808
f 266/809/809 272/810/810 270/811/811 268/812/812
f 271/813/813 265/814/814 267/815/815 269/816/816
f 273/817/817 274/818/818 276/819/819 275/820/820
f 275/821/821 276/822/822 278/823/823 277/824/824
f 277/825/825 278/826/826 280/827/827 279/828/828
f 279/829/829 280/830/830 274/831/831 273/832/832
f 274/833/833 280/834/834 278/835/835 276/836/836
f 279/837/837 273/838/838 275/839/839 277/840/840
f 281/841/841 282/842/842 284/843/843 283/844/844
f 283/845/845 284/846/846 286/847/847 285/848/848
f 285/849/849 286/850/850 288/851/851 287/852/852
f 287/853/853 288/854/854 282/855/855 281/856/856
f 282/857/857 288/858/858 286/859/859 284/860/860
f 287/861/861 281/862/862 283/863/863 285/864/864
f 289/865/865 290/866/866 292/867/867 291/868/868
f 291/869/869 292/870/870 294/871/871 293/872/872
f 293/873/873 294/874/874 296/875/875 295/876/876
f 295/877/877 296/878/878 290/879/879 289/880/880
f 290/881/881 296/882/882 294/883/883 292/884/884
f 295/885/885 289/886/886 291/887/887 293/888/888
f 297/889/889 298/890/890 300/891/891 299/892/892
f 299/893/893 300/894/894 302/895/895 301/896/896
f 301/897/897 302/898/898 304/899/899 303/900/900
f 303/901/901 304/902/902 298/903/903 297/904/904
f 298/905/905 304/906/906 302/907/907 300/908/908
f 303/909/909 297/910/910 299/911/911 301/912/912
