# This file uses centimeters as units for non-parametric coordinates.

g default
v -32.700531 0.513165 -0.012009
v -32.700531 0.638895 -0.012009
v -32.700531 0.513165 0.017196
v -32.700531 0.638895 0.017196
v -32.729740 0.513165 0.017196
v -32.729740 0.638895 0.017196
v -32.729740 0.513165 -0.012009
v -32.729740 0.638895 -0.012009
v -32.622208 0.405636 -0.012009
v -32.496483 0.405636 -0.012009
v -32.622208 0.405636 0.017196
v -32.496483 0.405636 0.017196
v -32.622208 0.434841 0.017196
v -32.496483 0.434841 0.017196
v -32.622208 0.434841 -0.012009
v -32.496483 0.434841 -0.012009
v -32.729740 0.327312 -0.012009
v -32.729740 0.201581 -0.012009
v -32.729740 0.327312 0.017196
v -32.729740 0.201581 0.017196
v -32.700531 0.327312 0.017196
v -32.700531 0.201581 0.017196
v -32.700531 0.327312 -0.012009
v -32.700531 0.201581 -0.012009
v -32.808060 0.434841 -0.012009
v -32.933792 0.434841 -0.012009
v -32.808060 0.434841 0.017196
v -32.933792 0.434841 0.017196
v -32.808060 0.405636 0.017196
v -32.933792 0.405636 0.017196
v -32.808060 0.405636 -0.012009
v -32.933792 0.405636 -0.012009
v -32.547192 0.231642 -0.012009
v -32.449497 0.133947 -0.012009
v -32.547192 0.231642 0.017196
v -32.449497 0.133947 0.017196
v -32.526539 0.252293 0.017196
v -32.428848 0.154597 0.017196
v -32.526539 0.252293 -0.012009
v -32.428848 0.154597 -0.012009
v -32.526539 0.588184 -0.012009
v -32.428848 0.685880 -0.012009
v -32.526539 0.588184 0.017196
v -32.428848 0.685880 0.017196
v -32.547192 0.608835 0.017196
v -32.449497 0.706530 0.017196
v -32.547192 0.608835 -0.012009
v -32.449497 0.706530 -0.012009
v -32.883087 0.608835 -0.012009
v -32.980778 0.706530 -0.012009
v -32.883087 0.608835 0.017196
v -32.980778 0.706530 0.017196
v -32.903736 0.588184 0.017196
v -33.001431 0.685879 0.017196
v -32.903736 0.588184 -0.012009
v -33.001431 0.685879 -0.012009
v -32.903736 0.252293 -0.012009
v -33.001427 0.154597 -0.012009
v -32.903736 0.252293 0.017196
v -33.001427 0.154597 0.017196
v -32.883087 0.231642 0.017196
v -32.980778 0.133947 0.017196
v -32.883087 0.231642 -0.012009
v -32.980778 0.133947 -0.012009
v -33.129353 0.420238 -0.019841
v -32.300915 0.420238 -0.019841
v -33.129353 0.420238 0.019841
v -32.300915 0.420238 0.019841
v -33.092266 0.420238 0.019841
v -32.338009 0.420238 0.019841
v -33.092266 0.420238 -0.019841
v -32.338009 0.420238 -0.019841
v -32.356068 0.303378 0.019841
v -32.356068 0.303378 -0.019841
v -32.320763 0.292003 -0.019841
v -32.320763 0.292003 0.019841
v -32.409466 0.197809 0.019841
v -32.409466 0.197809 -0.019841
v -32.379414 0.176052 -0.019841
v -32.379414 0.176052 0.019841
v -32.492950 0.113977 0.019841
v -32.492950 0.113977 -0.019841
v -32.471100 0.083976 -0.019841
v -32.471100 0.083976 0.019841
v -32.598289 0.060134 0.019841
v -32.598289 0.060134 -0.019841
v -32.586807 0.024838 -0.019841
v -32.586807 0.024838 0.019841
v -32.715134 0.041578 0.019841
v -32.715134 0.041578 -0.019841
v -32.715134 0.004457 -0.019841
v -32.715134 0.004457 0.019841
v -32.831978 0.060134 0.019841
v -32.831978 0.060134 -0.019841
v -32.843472 0.024838 -0.019841
v -32.843472 0.024838 0.019841
v -32.937321 0.113977 0.019841
v -32.937321 0.113977 -0.019841
v -32.959175 0.083976 -0.019841
v -32.959175 0.083976 0.019841
v -33.020802 0.197809 0.019841
v -33.020802 0.197809 -0.019841
v -33.050861 0.176052 -0.019841
v -33.050861 0.176052 0.019841
v -33.074200 0.303378 0.019841
v -33.074200 0.303378 -0.019841
v -33.109512 0.292003 -0.019841
v -33.109512 0.292003 0.019841
v -33.074200 0.537099 0.019841
v -33.074200 0.537099 -0.019841
v -33.109512 0.548474 -0.019841
v -33.109512 0.548474 0.019841
v -33.020802 0.642668 0.019841
v -33.020802 0.642668 -0.019841
v -33.050861 0.664425 -0.019841
v -33.050861 0.664425 0.019841
v -32.937328 0.726499 0.019841
v -32.937328 0.726499 -0.019841
v -32.959175 0.756500 -0.019841
v -32.959175 0.756500 0.019841
v -32.831978 0.780343 0.019841
v -32.831978 0.780343 -0.019841
v -32.843472 0.815639 -0.019841
v -32.843472 0.815639 0.019841
v -32.715134 0.798899 0.019841
v -32.715134 0.798899 -0.019841
v -32.715134 0.836020 -0.019841
v -32.715134 0.836020 0.019841
v -32.598289 0.780343 0.019841
v -32.598289 0.780343 -0.019841
v -32.586807 0.815639 -0.019841
v -32.586807 0.815639 0.019841
v -32.492947 0.726499 0.019841
v -32.492947 0.726499 -0.019841
v -32.471100 0.756500 -0.019841
v -32.471100 0.756500 0.019841
v -32.409466 0.642668 0.019841
v -32.409466 0.642668 -0.019841
v -32.379414 0.664425 -0.019841
v -32.379414 0.664425 0.019841
v -32.356068 0.537099 0.019841
v -32.356068 0.537099 -0.019841
v -32.320763 0.548474 -0.019841
v -32.320763 0.548474 0.019841
v -32.971722 0.420238 -0.019841
v -32.458553 0.420238 -0.019841
v -32.971722 0.420238 0.019841
v -32.458553 0.420238 0.019841
v -32.931328 0.420238 0.019841
v -32.498940 0.420238 0.019841
v -32.931328 0.420238 -0.019841
v -32.498940 0.420238 -0.019841
v -32.509300 0.353247 0.019841
v -32.509300 0.353247 -0.019841
v -32.470844 0.340804 -0.019841
v -32.470844 0.340804 0.019841
v -32.539909 0.292727 0.019841
v -32.539909 0.292727 -0.019841
v -32.507172 0.268979 -0.019841
v -32.507172 0.268979 0.019841
v -32.587769 0.244670 0.019841
v -32.587769 0.244670 -0.019841
v -32.563969 0.211943 -0.019841
v -32.563969 0.211943 0.019841
v -32.648155 0.213804 0.019841
v -32.648155 0.213804 -0.019841
v -32.635643 0.175311 -0.019841
v -32.635643 0.175311 0.019841
v -32.715134 0.203166 0.019841
v -32.715134 0.203166 -0.019841
v -32.715134 0.162686 -0.019841
v -32.715134 0.162686 0.019841
v -32.782120 0.213804 0.019841
v -32.782120 0.213804 -0.019841
v -32.794632 0.175311 -0.019841
v -32.794632 0.175311 0.019841
v -32.842510 0.244670 0.019841
v -32.842510 0.244670 -0.019841
v -32.866302 0.211943 -0.019841
v -32.866302 0.211943 0.019841
v -32.890366 0.292727 0.019841
v -32.890366 0.292727 -0.019841
v -32.923103 0.268979 -0.019841
v -32.923103 0.268979 0.019841
v -32.920975 0.353247 0.019841
v -32.920975 0.353247 -0.019841
v -32.959435 0.340804 -0.019841
v -32.959435 0.340804 0.019841
v -32.920975 0.487230 0.019841
v -32.920975 0.487230 -0.019841
v -32.959435 0.499673 -0.019841
v -32.959435 0.499673 0.019841
v -32.890366 0.547750 0.019841
v -32.890366 0.547750 -0.019841
v -32.923103 0.571498 -0.019841
v -32.923103 0.571498 0.019841
v -32.842510 0.595807 0.019841
v -32.842510 0.595807 -0.019841
v -32.866302 0.628534 -0.019841
v -32.866302 0.628534 0.019841
v -32.782120 0.626673 0.019841
v -32.782120 0.626673 -0.019841
v -32.794632 0.665166 -0.019841
v -32.794632 0.665166 0.019841
v -32.715134 0.637311 0.019841
v -32.715134 0.637311 -0.019841
v -32.715134 0.677791 -0.019841
v -32.715134 0.677791 0.019841
v -32.648155 0.626673 0.019841
v -32.648155 0.626673 -0.019841
v -32.635643 0.665166 -0.019841
v -32.635643 0.665166 0.019841
v -32.587765 0.595807 0.019841
v -32.587765 0.595807 -0.019841
v -32.563969 0.628534 -0.019841
v -32.563969 0.628534 0.019841
v -32.539909 0.547750 0.019841
v -32.539909 0.547750 -0.019841
v -32.507172 0.571498 -0.019841
v -32.507172 0.571498 0.019841
v -32.509300 0.487230 0.019841
v -32.509300 0.487230 -0.019841
v -32.470844 0.499673 -0.019841
v -32.470844 0.499673 0.019841
v -32.820930 0.420238 -0.019841
v -32.609344 0.420238 -0.019841
v -32.820930 0.420238 0.019841
v -32.609344 0.420238 0.019841
v -32.787445 0.420238 0.019841
v -32.642834 0.420238 0.019841
v -32.787445 0.420238 -0.019841
v -32.642834 0.420238 -0.019841
v -32.656536 0.377594 0.019841
v -32.656536 0.377594 -0.019841
v -32.629391 0.357871 -0.019841
v -32.629391 0.357871 0.019841
v -32.692738 0.351200 0.019841
v -32.692738 0.351200 -0.019841
v -32.682358 0.319250 -0.019841
v -32.682358 0.319250 0.019841
v -32.737541 0.351200 0.019841
v -32.737541 0.351200 -0.019841
v -32.747917 0.319250 -0.019841
v -32.747917 0.319250 0.019841
v -32.773739 0.377594 0.019841
v -32.773739 0.377594 -0.019841
v -32.800884 0.357871 -0.019841
v -32.800884 0.357871 0.019841
v -32.773739 0.462883 0.019841
v -32.773739 0.462883 -0.019841
v -32.800884 0.482606 -0.019841
v -32.800884 0.482606 0.019841
v -32.737541 0.489277 0.019841
v -32.737541 0.489277 -0.019841
v -32.747917 0.521227 -0.019841
v -32.747917 0.521227 0.019841
v -32.692738 0.489277 0.019841
v -32.692738 0.489277 -0.019841
v -32.682358 0.521227 -0.019841
v -32.682358 0.521227 0.019841
v -32.656536 0.462883 0.019841
v -32.656536 0.462883 -0.019841
v -32.629391 0.482606 -0.019841
v -32.629391 0.482606 0.019841
vt 0.845314 0.499944
vt 0.247404 0.500035
vt 0.247404 0.272730
vt 0.845314 0.272939
vt 0.247406 0.046071
vt 0.845315 0.046333
vt 0.845315 0.953787
vt 0.247406 0.953865
vt 0.247406 0.727272
vt 0.845315 0.727063
vt 0.000289 0.500601
vt 0.135145 0.500834
vt 0.135145 0.726812
vt 0.000289 0.726579
vt 1.000307 0.273781
vt 1.143864 0.277665
vt 1.143864 0.503409
vt 1.000307 0.499525
vt 0.845314 0.499944
vt 0.247404 0.500035
vt 0.247404 0.272730
vt 0.845314 0.272939
vt 0.247406 0.046071
vt 0.845315 0.046333
vt 0.845315 0.953787
vt 0.247406 0.953865
vt 0.247406 0.727272
vt 0.845315 0.727063
vt 0.000289 0.500601
vt 0.135145 0.500834
vt 0.135145 0.726812
vt 0.000289 0.726579
vt 1.000307 0.273781
vt 1.143864 0.277665
vt 1.143864 0.503409
vt 1.000307 0.499525
vt 0.845314 0.499944
vt 0.247404 0.500035
vt 0.247404 0.272730
vt 0.845314 0.272939
vt 0.247406 0.046071
vt 0.845315 0.046333
vt 0.845315 0.953787
vt 0.247406 0.953865
vt 0.247406 0.727272
vt 0.845315 0.727063
vt 0.000289 0.500601
vt 0.135145 0.500834
vt 0.135145 0.726812
vt 0.000289 0.726579
vt 1.000307 0.273781
vt 1.143864 0.277665
vt 1.143864 0.503409
vt 1.000307 0.499525
vt 0.845314 0.499944
vt 0.247404 0.500035
vt 0.247404 0.272730
vt 0.845314 0.272939
vt 0.247406 0.046071
vt 0.845315 0.046333
vt 0.845315 0.953787
vt 0.247406 0.953865
vt 0.247406 0.727272
vt 0.845315 0.727063
vt 0.000289 0.500601
vt 0.135145 0.500834
vt 0.135145 0.726812
vt 0.000289 0.726579
vt 1.000307 0.273781
vt 1.143864 0.277665
vt 1.143864 0.503409
vt 1.000307 0.499525
vt 0.845314 0.499944
vt 0.247404 0.500035
vt 0.247404 0.272730
vt 0.845314 0.272939
vt 0.247406 0.046071
vt 0.845315 0.046333
vt 0.845315 0.953787
vt 0.247406 0.953865
vt 0.247406 0.727272
vt 0.845315 0.727063
vt 0.000289 0.500601
vt 0.135145 0.500834
vt 0.135145 0.726812
vt 0.000289 0.726579
vt 1.000307 0.273781
vt 1.143864 0.277665
vt 1.143864 0.503409
vt 1.000307 0.499525
vt 0.845314 0.499944
vt 0.247404 0.500035
vt 0.247404 0.272730
vt 0.845314 0.272939
vt 0.247406 0.046071
vt 0.845315 0.046333
vt 0.845315 0.953787
vt 0.247406 0.953865
vt 0.247406 0.727272
vt 0.845315 0.727063
vt 0.000289 0.500601
vt 0.135145 0.500834
vt 0.135145 0.726812
vt 0.000289 0.726579
vt 1.000307 0.273781
vt 1.143864 0.277665
vt 1.143864 0.503409
vt 1.000307 0.499525
vt 0.845314 0.499944
vt 0.247404 0.500035
vt 0.247404 0.272730
vt 0.845314 0.272939
vt 0.247406 0.046071
vt 0.845315 0.046333
vt 0.845315 0.953787
vt 0.247406 0.953865
vt 0.247406 0.727272
vt 0.845315 0.727063
vt 0.000289 0.500601
vt 0.135145 0.500834
vt 0.135145 0.726812
vt 0.000289 0.726579
vt 1.000307 0.273781
vt 1.143864 0.277665
vt 1.143864 0.503409
vt 1.000307 0.499525
vt 0.845314 0.499944
vt 0.247404 0.500035
vt 0.247404 0.272730
vt 0.845314 0.272939
vt 0.247406 0.046071
vt 0.845315 0.046333
vt 0.845315 0.953787
vt 0.247406 0.953865
vt 0.247406 0.727272
vt 0.845315 0.727063
vt 0.000289 0.500601
vt 0.135145 0.500834
vt 0.135145 0.726812
vt 0.000289 0.726579
vt 1.000307 0.273781
vt 1.143864 0.277665
vt 1.143864 0.503409
vt 1.000307 0.499525
vt 2.078269 0.499725
vt 1.770175 0.499953
vt 1.770175 0.272918
vt 2.078269 0.273156
vt 1.770182 0.046307
vt 2.070238 0.046509
vt 2.075976 0.953682
vt 1.770182 0.953794
vt 1.770183 0.727084
vt 2.073004 0.726991
vt -0.677454 0.953857
vt -0.983248 0.953767
vt -0.980277 0.727193
vt -0.677456 0.727251
vt -0.677464 0.500026
vt -0.985558 0.499811
vt -0.677464 0.272751
vt -0.985558 0.272954
vt -0.677454 0.046097
vt -0.977510 0.046251
vt -0.371500 0.953849
vt -0.371501 0.727230
vt -0.371509 0.500017
vt -0.371509 0.272771
vt -0.371500 0.046124
vt -0.065545 0.953842
vt -0.065546 0.727209
vt -0.065554 0.500008
vt -0.065554 0.272792
vt -0.065545 0.046150
vt 0.240409 0.953834
vt 0.240409 0.727189
vt 0.240401 0.499999
vt 0.240401 0.272813
vt 0.240409 0.046176
vt 0.546364 0.953826
vt 0.546364 0.727168
vt 0.546356 0.499989
vt 0.546355 0.272834
vt 0.546364 0.046202
vt 0.852318 0.953818
vt 0.852318 0.727147
vt 0.852310 0.499980
vt 0.852310 0.272855
vt 0.852318 0.046228
vt 1.158273 0.953810
vt 1.158273 0.727126
vt 1.158265 0.499971
vt 1.158265 0.272876
vt 1.158273 0.046254
vt 1.464228 0.953802
vt 1.464228 0.727105
vt 1.464220 0.499962
vt 1.464220 0.272897
vt 1.464227 0.046281
vt 2.078269 0.499725
vt 1.770175 0.499953
vt 1.770175 0.272918
vt 2.078269 0.273156
vt 1.770182 0.046307
vt 2.070238 0.046509
vt 2.075976 0.953682
vt 1.770182 0.953794
vt 1.770183 0.727084
vt 2.073004 0.726991
vt -0.677454 0.953857
vt -0.983248 0.953767
vt -0.980277 0.727194
vt -0.677456 0.727251
vt -0.677464 0.500026
vt -0.985558 0.499811
vt -0.677464 0.272751
vt -0.985557 0.272954
vt -0.677454 0.046097
vt -0.977510 0.046250
vt -0.371500 0.953849
vt -0.371501 0.727230
vt -0.371509 0.500017
vt -0.371509 0.272771
vt -0.371500 0.046124
vt -0.065545 0.953842
vt -0.065546 0.727209
vt -0.065554 0.500008
vt -0.065554 0.272792
vt -0.065545 0.046150
vt 0.240409 0.953834
vt 0.240409 0.727189
vt 0.240401 0.499999
vt 0.240401 0.272813
vt 0.240409 0.046176
vt 0.546364 0.953826
vt 0.546364 0.727168
vt 0.546356 0.499989
vt 0.546355 0.272834
vt 0.546364 0.046202
vt 0.852318 0.953818
vt 0.852318 0.727147
vt 0.852310 0.499980
vt 0.852310 0.272855
vt 0.852318 0.046228
vt 1.158273 0.953810
vt 1.158273 0.727126
vt 1.158265 0.499971
vt 1.158265 0.272876
vt 1.158273 0.046254
vt 1.464228 0.953802
vt 1.464228 0.727105
vt 1.464220 0.499962
vt 1.464220 0.272897
vt 1.464227 0.046281
vt 1.584502 0.499725
vt 1.375713 0.499953
vt 1.375713 0.272918
vt 1.584501 0.273156
vt 1.375717 0.046307
vt 1.579059 0.046509
vt 1.582948 0.953682
vt 1.375718 0.953794
vt 1.375718 0.727084
vt 1.580933 0.726991
vt -0.282995 0.953857
vt -0.490225 0.953767
vt -0.488212 0.727193
vt -0.282996 0.727251
vt -0.283002 0.500026
vt -0.491791 0.499811
vt -0.283002 0.272751
vt -0.491790 0.272954
vt -0.282995 0.046097
vt -0.486337 0.046251
vt -0.075656 0.953849
vt -0.075657 0.727230
vt -0.075662 0.500017
vt -0.075662 0.272771
vt -0.075656 0.046124
vt 0.131683 0.953842
vt 0.131682 0.727209
vt 0.131677 0.500008
vt 0.131677 0.272792
vt 0.131683 0.046150
vt 0.339022 0.953834
vt 0.339022 0.727189
vt 0.339016 0.499999
vt 0.339016 0.272813
vt 0.339022 0.046176
vt 0.546361 0.953826
vt 0.546361 0.727168
vt 0.546356 0.499989
vt 0.546355 0.272834
vt 0.546361 0.046202
vt 0.753700 0.953818
vt 0.753700 0.727147
vt 0.753695 0.499980
vt 0.753695 0.272855
vt 0.753700 0.046228
vt 0.961039 0.953810
vt 0.961039 0.727126
vt 0.961034 0.499971
vt 0.961034 0.272876
vt 0.961039 0.046254
vt 1.168379 0.953802
vt 1.168379 0.727105
vt 1.168373 0.499962
vt 1.168373 0.272897
vt 1.168378 0.046281
vt 1.584502 0.499725
vt 1.375713 0.499953
vt 1.375713 0.272918
vt 1.584501 0.273156
vt 1.375717 0.046307
vt 1.579059 0.046509
vt 1.582948 0.953682
vt 1.375718 0.953794
vt 1.375718 0.727084
vt 1.580933 0.726991
vt -0.282995 0.953857
vt -0.490225 0.953767
vt -0.488212 0.727194
vt -0.282996 0.727251
vt -0.283002 0.500026
vt -0.491791 0.499811
vt -0.283002 0.272751
vt -0.491790 0.272954
vt -0.282995 0.046097
vt -0.486337 0.046250
vt -0.075656 0.953849
vt -0.075657 0.727230
vt -0.075662 0.500017
vt -0.075662 0.272771
vt -0.075656 0.046124
vt 0.131683 0.953842
vt 0.131682 0.727209
vt 0.131677 0.500008
vt 0.131677 0.272792
vt 0.131683 0.046150
vt 0.339022 0.953834
vt 0.339022 0.727189
vt 0.339016 0.499999
vt 0.339016 0.272813
vt 0.339022 0.046176
vt 0.546361 0.953826
vt 0.546361 0.727168
vt 0.546356 0.499989
vt 0.546355 0.272834
vt 0.546361 0.046202
vt 0.753700 0.953818
vt 0.753700 0.727147
vt 0.753695 0.499980
vt 0.753695 0.272855
vt 0.753700 0.046228
vt 0.961039 0.953810
vt 0.961039 0.727126
vt 0.961034 0.499971
vt 0.961034 0.272876
vt 0.961039 0.046254
vt 1.168379 0.953802
vt 1.168379 0.727105
vt 1.168373 0.499962
vt 1.168373 0.272897
vt 1.168378 0.046281
vt 1.011731 0.273156
vt 1.011731 0.499725
vt 0.825191 0.499962
vt 0.825191 0.272897
vt 0.825193 0.046281
vt 1.009292 0.046509
vt 1.010132 0.726991
vt 1.011035 0.953682
vt 0.825193 0.953802
vt 0.825193 0.727105
vt 0.082584 0.727193
vt 0.267522 0.727230
vt 0.267523 0.953849
vt 0.081681 0.953767
vt 0.080980 0.499811
vt 0.267520 0.500017
vt 0.080980 0.272954
vt 0.267520 0.272771
vt 0.083424 0.046251
vt 0.267523 0.046124
vt 0.453413 0.727189
vt 0.453413 0.953834
vt 0.453410 0.499999
vt 0.453410 0.272813
vt 0.453413 0.046176
vt 0.639303 0.727147
vt 0.639303 0.953818
vt 0.639301 0.499980
vt 0.639301 0.272855
vt 0.639303 0.046228
vt 1.011731 0.273156
vt 1.011731 0.499725
vt 0.825191 0.499962
vt 0.825191 0.272897
vt 0.825193 0.046281
vt 1.009292 0.046509
vt 1.010132 0.726991
vt 1.011035 0.953682
vt 0.825193 0.953802
vt 0.825193 0.727105
vt 0.082584 0.727194
vt 0.267522 0.727230
vt 0.267523 0.953849
vt 0.081681 0.953767
vt 0.080980 0.499811
vt 0.267520 0.500017
vt 0.080980 0.272954
vt 0.267520 0.272771
vt 0.083424 0.046250
vt 0.267523 0.046124
vt 0.453413 0.727189
vt 0.453413 0.953834
vt 0.453410 0.499999
vt 0.453410 0.272813
vt 0.453413 0.046176
vt 0.639303 0.727147
vt 0.639303 0.953818
vt 0.639301 0.499980
vt 0.639301 0.272855
vt 0.639303 0.046228
vn 1.000000 0.000000 0.000000
vn 1.000000 0.000000 0.000000
vn 1.000000 0.000000 0.000000
vn 1.000000 0.000000 0.000000
vn 0.000000 0.000000 1.000000
vn 0.000000 0.000000 1.000000
vn 0.000000 0.000000 1.000000
vn 0.000000 0.000000 1.000000
vn -1.000000 0.000000 0.000000
vn -1.000000 0.000000 0.000000
vn -1.000000 0.000000 0.000000
vn -1.000000 0.000000 0.000000
vn 0.000000 0.000000 -1.000000
vn 0.000000 0.000000 -1.000000
vn 0.000000 0.000000 -1.000000
vn 0.000000 0.000000 -1.000000
vn 0.000000 1.000000 0.000000
vn 0.000000 1.000000 0.000000
vn 0.000000 1.000000 0.000000
vn 0.000000 1.000000 0.000000
vn 0.000000 -1.000000 0.000000
vn 0.000000 -1.000000 0.000000
vn 0.000000 -1.000000 0.000000
vn 0.000000 -1.000000 0.000000
vn -0.000001 -1.000000 0.000000
vn -0.000001 -1.000000 0.000000
vn -0.000001 -1.000000 0.000000
vn -0.000001 -1.000000 0.000000
vn 0.000000 0.000000 1.000000
vn 0.000000 0.000000 1.000000
vn 0.000000 0.000000 1.000000
vn 0.000000 0.000000 1.000000
vn 0.000001 1.000000 0.000000
vn 0.000001 1.000000 0.000000
vn 0.000001 1.000000 0.000000
vn 0.000001 1.000000 0.000000
vn 0.000000 0.000000 -1.000000
vn 0.000000 0.000000 -1.000000
vn 0.000000 0.000000 -1.000000
vn 0.000000 0.000000 -1.000000
vn 1.000000 0.000000 0.000000
vn 1.000000 0.000000 0.000000
vn 1.000000 0.000000 0.000000
vn 1.000000 0.000000 0.000000
vn -1.000000 0.000000 0.000000
vn -1.000000 0.000000 0.000000
vn -1.000000 0.000000 0.000000
vn -1.000000 0.000000 0.000000
vn -1.000000 0.000000 0.000000
vn -1.000000 0.000000 0.000000
vn -1.000000 0.000000 0.000000
vn -1.000000 0.000000 0.000000
vn 0.000000 0.000000 1.000000
vn 0.000000 0.000000 1.000000
vn 0.000000 0.000000 1.000000
vn 0.000000 0.000000 1.000000
vn 1.000000 0.000000 0.000000
vn 1.000000 0.000000 0.000000
vn 1.000000 0.000000 0.000000
vn 1.000000 0.000000 0.000000
vn 0.000000 0.000000 -1.000000
vn 0.000000 0.000000 -1.000000
vn 0.000000 0.000000 -1.000000
vn 0.000000 0.000000 -1.000000
vn 0.000000 -1.000000 0.000000
vn 0.000000 -1.000000 0.000000
vn 0.000000 -1.000000 0.000000
vn 0.000000 -1.000000 0.000000
vn 0.000000 1.000000 0.000000
vn 0.000000 1.000000 0.000000
vn 0.000000 1.000000 0.000000
vn 0.000000 1.000000 0.000000
vn 0.000000 1.000000 0.000000
vn 0.000000 1.000000 0.000000
vn 0.000000 1.000000 0.000000
vn 0.000000 1.000000 0.000000
vn 0.000000 0.000000 1.000000
vn 0.000000 0.000000 1.000000
vn 0.000000 0.000000 1.000000
vn 0.000000 0.000000 1.000000
vn 0.000000 -1.000000 0.000000
vn 0.000000 -1.000000 0.000000
vn 0.000000 -1.000000 0.000000
vn 0.000000 -1.000000 0.000000
vn 0.000000 0.000000 -1.000000
vn 0.000000 0.000000 -1.000000
vn 0.000000 0.000000 -1.000000
vn 0.000000 0.000000 -1.000000
vn -1.000000 0.000000 0.000000
vn -1.000000 0.000000 0.000000
vn -1.000000 0.000000 0.000000
vn -1.000000 0.000000 0.000000
vn 1.000000 0.000000 0.000000
vn 1.000000 0.000000 0.000000
vn 1.000000 0.000000 0.000000
vn 1.000000 0.000000 0.000000
vn -0.707109 -0.707105 0.000000
vn -0.707109 -0.707105 0.000000
vn -0.707109 -0.707105 0.000000
vn -0.707109 -0.707105 0.000000
vn -0.000000 0.000000 1.000000
vn -0.000000 0.000000 1.000000
vn -0.000000 0.000000 1.000000
vn -0.000000 0.000000 1.000000
vn 0.707124 0.707090 0.000000
vn 0.707124 0.707090 0.000000
vn 0.707124 0.707090 0.000000
vn 0.707124 0.707090 0.000000
vn -0.000000 0.000000 -1.000000
vn -0.000000 0.000000 -1.000000
vn -0.000000 0.000000 -1.000000
vn -0.000000 0.000000 -1.000000
vn 0.707127 -0.707087 0.000000
vn 0.707127 -0.707087 0.000000
vn 0.707127 -0.707087 0.000000
vn 0.707127 -0.707087 0.000000
vn -0.707057 0.707156 0.000000
vn -0.707057 0.707156 0.000000
vn -0.707057 0.707156 0.000000
vn -0.707057 0.707156 0.000000
vn 0.707123 -0.707090 0.000000
vn 0.707123 -0.707090 0.000000
vn 0.707123 -0.707090 0.000000
vn 0.707123 -0.707090 0.000000
vn -0.000000 0.000000 1.000000
vn -0.000000 0.000000 1.000000
vn -0.000000 0.000000 1.000000
vn -0.000000 0.000000 1.000000
vn -0.707108 0.707105 0.000000
vn -0.707108 0.707105 0.000000
vn -0.707108 0.707105 0.000000
vn -0.707108 0.707105 0.000000
vn 0.000000 0.000000 -1.000000
vn 0.000000 0.000000 -1.000000
vn 0.000000 0.000000 -1.000000
vn 0.000000 0.000000 -1.000000
vn 0.707125 0.707089 0.000000
vn 0.707125 0.707089 0.000000
vn 0.707125 0.707089 0.000000
vn 0.707125 0.707089 0.000000
vn -0.707055 -0.707159 0.000000
vn -0.707055 -0.707159 0.000000
vn -0.707055 -0.707159 0.000000
vn -0.707055 -0.707159 0.000000
vn 0.707123 0.707090 0.000000
vn 0.707123 0.707090 0.000000
vn 0.707123 0.707090 0.000000
vn 0.707123 0.707090 0.000000
vn -0.000000 0.000000 1.000000
vn -0.000000 0.000000 1.000000
vn -0.000000 0.000000 1.000000
vn -0.000000 0.000000 1.000000
vn -0.707117 -0.707097 0.000000
vn -0.707117 -0.707097 0.000000
vn -0.707117 -0.707097 0.000000
vn -0.707117 -0.707097 0.000000
vn -0.000000 0.000000 -1.000000
vn -0.000000 0.000000 -1.000000
vn -0.000000 0.000000 -1.000000
vn -0.000000 0.000000 -1.000000
vn -0.707092 0.707122 0.000000
vn -0.707092 0.707122 0.000000
vn -0.707092 0.707122 0.000000
vn -0.707092 0.707122 0.000000
vn 0.707131 -0.707083 0.000000
vn 0.707131 -0.707083 0.000000
vn 0.707131 -0.707083 0.000000
vn 0.707131 -0.707083 0.000000
vn -0.707131 0.707083 0.000000
vn -0.707131 0.707083 0.000000
vn -0.707131 0.707083 0.000000
vn -0.707131 0.707083 0.000000
vn -0.000000 0.000000 1.000000
vn -0.000000 0.000000 1.000000
vn -0.000000 0.000000 1.000000
vn -0.000000 0.000000 1.000000
vn 0.707123 -0.707090 0.000000
vn 0.707123 -0.707090 0.000000
vn 0.707123 -0.707090 0.000000
vn 0.707123 -0.707090 0.000000
vn 0.000000 0.000000 -1.000000
vn 0.000000 0.000000 -1.000000
vn 0.000000 0.000000 -1.000000
vn 0.000000 0.000000 -1.000000
vn -0.707162 -0.707052 0.000000
vn -0.707162 -0.707052 0.000000
vn -0.707162 -0.707052 0.000000
vn -0.707162 -0.707052 0.000000
vn 0.707127 0.707087 0.000000
vn 0.707127 0.707087 0.000000
vn 0.707127 0.707087 0.000000
vn 0.707127 0.707087 0.000000
vn -0.988240 -0.152912 0.000000
vn -0.952060 -0.305913 0.000000
vn -0.952060 -0.305913 0.000000
vn -0.988240 -0.152912 0.000000
vn -0.000000 0.000000 1.000000
vn -0.000000 0.000000 1.000000
vn -0.000000 0.000000 1.000000
vn -0.000000 0.000000 1.000000
vn 0.988259 0.152785 0.000000
vn 0.952079 0.305852 0.000000
vn 0.952079 0.305852 0.000000
vn 0.988259 0.152785 0.000000
vn 0.000000 0.000000 -1.000000
vn 0.000000 0.000000 -1.000000
vn 0.000000 0.000000 -1.000000
vn 0.000000 0.000000 -1.000000
vn -0.952087 0.305828 0.000000
vn -0.988267 0.152735 0.000000
vn -0.988267 0.152735 0.000000
vn -0.952087 0.305828 0.000000
vn 0.000000 0.000000 -1.000000
vn 0.000000 0.000000 -1.000000
vn 0.000000 0.000000 -1.000000
vn 0.000000 0.000000 -1.000000
vn 0.952050 -0.305944 0.000000
vn 0.952050 -0.305944 0.000000
vn 0.988233 -0.152957 0.000000
vn 0.988233 -0.152957 0.000000
vn 0.000000 0.000000 1.000000
vn 0.000000 0.000000 1.000000
vn 0.000000 0.000000 1.000000
vn 0.000000 0.000000 1.000000
vn -0.810495 0.585746 0.000000
vn -0.810495 0.585746 0.000000
vn -0.000000 0.000000 -1.000000
vn -0.000000 0.000000 -1.000000
vn 0.810498 -0.585741 0.000000
vn 0.810498 -0.585741 0.000000
vn 0.000000 0.000000 1.000000
vn 0.000000 0.000000 1.000000
vn -0.589140 0.808031 0.000000
vn -0.589140 0.808031 0.000000
vn -0.000000 0.000000 -1.000000
vn -0.000000 0.000000 -1.000000
vn 0.589146 -0.808027 0.000000
vn 0.589146 -0.808027 0.000000
vn 0.000000 0.000000 1.000000
vn 0.000000 0.000000 1.000000
vn -0.309821 0.950795 0.000000
vn -0.309821 0.950795 0.000000
vn 0.000000 0.000000 -1.000000
vn 0.000000 0.000000 -1.000000
vn 0.309817 -0.950796 0.000000
vn 0.309817 -0.950796 0.000000
vn 0.000000 0.000000 1.000000
vn 0.000000 0.000000 1.000000
vn 0.000000 1.000000 0.000000
vn 0.000000 1.000000 0.000000
vn 0.000000 -0.000000 -1.000000
vn 0.000000 -0.000000 -1.000000
vn 0.000005 -1.000000 0.000000
vn 0.000005 -1.000000 0.000000
vn -0.000000 0.000000 1.000000
vn -0.000000 0.000000 1.000000
vn 0.309821 0.950795 0.000000
vn 0.309821 0.950795 0.000000
vn 0.000000 -0.000000 -1.000000
vn 0.000000 -0.000000 -1.000000
vn -0.309816 -0.950796 0.000000
vn -0.309816 -0.950796 0.000000
vn -0.000000 0.000000 1.000000
vn -0.000000 0.000000 1.000000
vn 0.589147 0.808026 0.000000
vn 0.589147 0.808026 0.000000
vn -0.000000 0.000000 -1.000000
vn -0.000000 0.000000 -1.000000
vn -0.589150 -0.808023 0.000000
vn -0.589150 -0.808023 0.000000
vn -0.000000 0.000000 1.000000
vn -0.000000 0.000000 1.000000
vn 0.810500 0.585739 0.000000
vn 0.810500 0.585739 0.000000
vn -0.000000 0.000000 -1.000000
vn -0.000000 0.000000 -1.000000
vn -0.810504 -0.585733 0.000000
vn -0.810504 -0.585733 0.000000
vn -0.000000 0.000000 1.000000
vn -0.000000 0.000000 1.000000
vn 0.988233 0.152957 0.000000
vn 0.952049 0.305944 0.000000
vn 0.952049 0.305944 0.000000
vn 0.988233 0.152957 0.000000
vn 0.000000 -0.000000 1.000000
vn 0.000000 -0.000000 1.000000
vn 0.000000 -0.000000 1.000000
vn 0.000000 -0.000000 1.000000
vn -0.988267 -0.152735 0.000000
vn -0.952087 -0.305828 0.000000
vn -0.952087 -0.305828 0.000000
vn -0.988267 -0.152735 0.000000
vn 0.000000 0.000000 -1.000000
vn 0.000000 0.000000 -1.000000
vn 0.000000 0.000000 -1.000000
vn 0.000000 0.000000 -1.000000
vn 0.952079 -0.305852 0.000000
vn 0.988259 -0.152785 0.000000
vn 0.988259 -0.152785 0.000000
vn 0.952079 -0.305852 0.000000
vn 0.000000 0.000000 -1.000000
vn 0.000000 0.000000 -1.000000
vn 0.000000 0.000000 -1.000000
vn 0.000000 0.000000 -1.000000
vn -0.952059 0.305914 0.000000
vn -0.952059 0.305914 0.000000
vn -0.988240 0.152912 0.000000
vn -0.988240 0.152912 0.000000
vn -0.000000 -0.000000 1.000000
vn -0.000000 -0.000000 1.000000
vn 0.000000 0.000000 1.000000
vn 0.000000 0.000000 1.000000
vn 0.810515 -0.585718 0.000000
vn 0.810515 -0.585718 0.000000
vn -0.000000 0.000000 -1.000000
vn -0.000000 0.000000 -1.000000
vn -0.810503 0.585735 0.000000
vn -0.810503 0.585735 0.000000
vn -0.000000 -0.000000 1.000000
vn -0.000000 -0.000000 1.000000
vn 0.589155 -0.808020 0.000000
vn 0.589155 -0.808020 0.000000
vn -0.000000 0.000000 -1.000000
vn -0.000000 0.000000 -1.000000
vn -0.589151 0.808023 0.000000
vn -0.589151 0.808023 0.000000
vn 0.000000 0.000000 1.000000
vn 0.000000 0.000000 1.000000
vn 0.309805 -0.950800 0.000000
vn 0.309805 -0.950800 0.000000
vn 0.000000 0.000000 -1.000000
vn 0.000000 0.000000 -1.000000
vn -0.309816 0.950796 0.000000
vn -0.309816 0.950796 0.000000
vn -0.000000 0.000000 1.000000
vn -0.000000 0.000000 1.000000
vn -0.000000 -1.000000 0.000000
vn -0.000000 -1.000000 0.000000
vn -0.000000 0.000000 -1.000000
vn -0.000000 0.000000 -1.000000
vn 0.000005 1.000000 0.000000
vn 0.000005 1.000000 0.000000
vn 0.000000 0.000000 1.000000
vn 0.000000 0.000000 1.000000
vn -0.309816 -0.950796 0.000000
vn -0.309816 -0.950796 0.000000
vn -0.000000 0.000000 -1.000000
vn -0.000000 0.000000 -1.000000
vn 0.309817 0.950796 0.000000
vn 0.309817 0.950796 0.000000
vn 0.000000 0.000000 1.000000
vn 0.000000 0.000000 1.000000
vn -0.589143 -0.808029 0.000000
vn -0.589143 -0.808029 0.000000
vn 0.000000 -0.000000 -1.000000
vn 0.000000 -0.000000 -1.000000
vn 0.589147 0.808026 0.000000
vn 0.589147 0.808026 0.000000
vn 0.000000 0.000000 1.000000
vn 0.000000 0.000000 1.000000
vn -0.810499 -0.585739 0.000000
vn -0.810499 -0.585739 0.000000
vn 0.000000 -0.000000 -1.000000
vn 0.000000 -0.000000 -1.000000
vn 0.810498 0.585742 0.000000
vn 0.810498 0.585742 0.000000
vn 0.000000 0.000000 1.000000
vn 0.000000 0.000000 1.000000
vn -0.988248 -0.152860 0.000000
vn -0.952070 -0.305882 0.000000
vn -0.952070 -0.305882 0.000000
vn -0.988248 -0.152860 0.000000
vn -0.000000 0.000000 1.000000
vn -0.000000 0.000000 1.000000
vn -0.000000 0.000000 1.000000
vn -0.000000 0.000000 1.000000
vn 0.988270 0.152715 0.000000
vn 0.952094 0.305804 0.000000
vn 0.952094 0.305804 0.000000
vn 0.988270 0.152715 0.000000
vn 0.000000 0.000000 -1.000000
vn 0.000000 0.000000 -1.000000
vn 0.000000 0.000000 -1.000000
vn 0.000000 0.000000 -1.000000
vn -0.952074 0.305867 0.000000
vn -0.988250 0.152845 0.000000
vn -0.988250 0.152845 0.000000
vn -0.952074 0.305867 0.000000
vn 0.000000 0.000000 -1.000000
vn 0.000000 0.000000 -1.000000
vn 0.000000 0.000000 -1.000000
vn 0.000000 0.000000 -1.000000
vn 0.952064 -0.305900 0.000000
vn 0.952064 -0.305900 0.000000
vn 0.988237 -0.152933 0.000000
vn 0.988237 -0.152933 0.000000
vn 0.000000 0.000000 1.000000
vn 0.000000 0.000000 1.000000
vn 0.000000 0.000000 1.000000
vn 0.000000 0.000000 1.000000
vn -0.810504 0.585734 0.000000
vn -0.810504 0.585734 0.000000
vn 0.000000 0.000000 -1.000000
vn 0.000000 0.000000 -1.000000
vn 0.810511 -0.585724 0.000000
vn 0.810511 -0.585724 0.000000
vn 0.000000 0.000000 1.000000
vn 0.000000 0.000000 1.000000
vn -0.589140 0.808031 0.000000
vn -0.589140 0.808031 0.000000
vn -0.000000 0.000000 -1.000000
vn -0.000000 0.000000 -1.000000
vn 0.589132 -0.808037 0.000000
vn 0.589132 -0.808037 0.000000
vn 0.000000 0.000000 1.000000
vn 0.000000 0.000000 1.000000
vn -0.309826 0.950793 0.000000
vn -0.309826 0.950793 0.000000
vn 0.000000 0.000000 -1.000000
vn 0.000000 0.000000 -1.000000
vn 0.309813 -0.950798 0.000000
vn 0.309813 -0.950798 0.000000
vn 0.000000 0.000000 1.000000
vn 0.000000 0.000000 1.000000
vn -0.000007 1.000000 0.000000
vn -0.000007 1.000000 0.000000
vn 0.000000 -0.000000 -1.000000
vn 0.000000 -0.000000 -1.000000
vn 0.000006 -1.000000 0.000000
vn 0.000006 -1.000000 0.000000
vn 0.000000 0.000000 1.000000
vn 0.000000 0.000000 1.000000
vn 0.309810 0.950799 0.000000
vn 0.309810 0.950799 0.000000
vn 0.000000 -0.000000 -1.000000
vn 0.000000 -0.000000 -1.000000
vn -0.309815 -0.950797 0.000000
vn -0.309815 -0.950797 0.000000
vn 0.000000 0.000000 1.000000
vn 0.000000 0.000000 1.000000
vn 0.589145 0.808027 0.000000
vn 0.589145 0.808027 0.000000
vn -0.000000 0.000000 -1.000000
vn -0.000000 0.000000 -1.000000
vn -0.589128 -0.808040 0.000000
vn -0.589128 -0.808040 0.000000
vn 0.000000 0.000000 1.000000
vn 0.000000 0.000000 1.000000
vn 0.810513 0.585721 0.000000
vn 0.810513 0.585721 0.000000
vn -0.000000 0.000000 -1.000000
vn -0.000000 0.000000 -1.000000
vn -0.810493 -0.585749 0.000000
vn -0.810493 -0.585749 0.000000
vn 0.000000 0.000000 1.000000
vn 0.000000 0.000000 1.000000
vn 0.988237 0.152933 0.000000
vn 0.952063 0.305901 0.000000
vn 0.952063 0.305901 0.000000
vn 0.988237 0.152933 0.000000
vn 0.000000 -0.000000 1.000000
vn 0.000000 -0.000000 1.000000
vn 0.000000 -0.000000 1.000000
vn 0.000000 -0.000000 1.000000
vn -0.988250 -0.152845 0.000000
vn -0.952075 -0.305866 0.000000
vn -0.952075 -0.305866 0.000000
vn -0.988250 -0.152845 0.000000
vn 0.000000 0.000000 -1.000000
vn 0.000000 0.000000 -1.000000
vn 0.000000 0.000000 -1.000000
vn 0.000000 0.000000 -1.000000
vn 0.952095 -0.305803 0.000000
vn 0.988270 -0.152715 0.000000
vn 0.988270 -0.152715 0.000000
vn 0.952095 -0.305803 0.000000
vn -0.000000 0.000000 -1.000000
vn -0.000000 0.000000 -1.000000
vn 0.000000 0.000000 -1.000000
vn 0.000000 0.000000 -1.000000
vn -0.952069 0.305884 0.000000
vn -0.952069 0.305884 0.000000
vn -0.988248 0.152860 0.000000
vn -0.988248 0.152860 0.000000
vn -0.000000 -0.000000 1.000000
vn -0.000000 -0.000000 1.000000
vn 0.000000 0.000000 1.000000
vn 0.000000 0.000000 1.000000
vn 0.810513 -0.585721 0.000000
vn 0.810513 -0.585721 0.000000
vn -0.000000 0.000000 -1.000000
vn -0.000000 0.000000 -1.000000
vn -0.810491 0.585751 0.000000
vn -0.810491 0.585751 0.000000
vn -0.000000 -0.000000 1.000000
vn -0.000000 -0.000000 1.000000
vn 0.589145 -0.808027 0.000000
vn 0.589145 -0.808027 0.000000
vn -0.000000 0.000000 -1.000000
vn -0.000000 0.000000 -1.000000
vn -0.589128 0.808039 0.000000
vn -0.589128 0.808039 0.000000
vn 0.000000 0.000000 1.000000
vn 0.000000 0.000000 1.000000
vn 0.309810 -0.950798 0.000000
vn 0.309810 -0.950798 0.000000
vn 0.000000 0.000000 -1.000000
vn 0.000000 0.000000 -1.000000
vn -0.309816 0.950796 0.000000
vn -0.309816 0.950796 0.000000
vn -0.000000 0.000000 1.000000
vn -0.000000 0.000000 1.000000
vn -0.000007 -1.000000 0.000000
vn -0.000007 -1.000000 0.000000
vn -0.000000 0.000000 -1.000000
vn -0.000000 0.000000 -1.000000
vn 0.000006 1.000000 0.000000
vn 0.000006 1.000000 0.000000
vn 0.000000 0.000000 1.000000
vn 0.000000 0.000000 1.000000
vn -0.309817 -0.950796 0.000000
vn -0.309817 -0.950796 0.000000
vn -0.000000 0.000000 -1.000000
vn -0.000000 0.000000 -1.000000
vn 0.309814 0.950797 0.000000
vn 0.309814 0.950797 0.000000
vn 0.000000 0.000000 1.000000
vn 0.000000 0.000000 1.000000
vn -0.589145 -0.808027 0.000000
vn -0.589145 -0.808027 0.000000
vn 0.000000 -0.000000 -1.000000
vn 0.000000 -0.000000 -1.000000
vn 0.589132 0.808037 0.000000
vn 0.589132 0.808037 0.000000
vn -0.000000 0.000000 1.000000
vn -0.000000 0.000000 1.000000
vn -0.810513 -0.585721 0.000000
vn -0.810513 -0.585721 0.000000
vn 0.000000 -0.000000 -1.000000
vn 0.000000 -0.000000 -1.000000
vn 0.810510 0.585725 0.000000
vn 0.810510 0.585725 0.000000
vn -0.000000 0.000000 1.000000
vn -0.000000 0.000000 1.000000
vn -0.952029 -0.306008 0.000000
vn -0.952029 -0.306008 0.000000
vn -0.810452 -0.585806 0.000000
vn -0.810452 -0.585806 0.000000
vn -0.000000 0.000000 1.000000
vn -0.000000 0.000000 1.000000
vn -0.000000 0.000000 1.000000
vn -0.000000 0.000000 1.000000
vn 0.952025 0.306021 0.000000
vn 0.952025 0.306021 0.000000
vn 0.810453 0.585804 0.000000
vn 0.810453 0.585804 0.000000
vn 0.000000 0.000000 -1.000000
vn 0.000000 0.000000 -1.000000
vn -0.000000 0.000000 -1.000000
vn -0.000000 0.000000 -1.000000
vn -0.952044 0.305961 0.000000
vn -0.810460 0.585794 0.000000
vn -0.810460 0.585794 0.000000
vn -0.952044 0.305961 0.000000
vn 0.000000 0.000000 -1.000000
vn -0.000000 0.000000 -1.000000
vn -0.000000 0.000000 -1.000000
vn 0.000000 0.000000 -1.000000
vn 0.952017 -0.306045 0.000000
vn 0.810440 -0.585822 0.000000
vn 0.810440 -0.585822 0.000000
vn 0.952017 -0.306045 0.000000
vn 0.000000 0.000000 1.000000
vn 0.000000 0.000000 1.000000
vn 0.000000 0.000000 1.000000
vn 0.000000 0.000000 1.000000
vn -0.309828 0.950793 0.000000
vn -0.309828 0.950793 0.000000
vn 0.000000 0.000000 -1.000000
vn 0.000000 0.000000 -1.000000
vn 0.309838 -0.950789 0.000000
vn 0.309838 -0.950789 0.000000
vn 0.000000 0.000000 1.000000
vn 0.000000 0.000000 1.000000
vn 0.309847 0.950787 0.000000
vn 0.309847 0.950787 0.000000
vn 0.000000 0.000000 -1.000000
vn 0.000000 0.000000 -1.000000
vn -0.309838 -0.950789 0.000000
vn -0.309838 -0.950789 0.000000
vn 0.000000 0.000000 1.000000
vn 0.000000 0.000000 1.000000
vn 0.952018 0.306042 0.000000
vn 0.952018 0.306042 0.000000
vn 0.810441 0.585821 0.000000
vn 0.810441 0.585821 0.000000
vn 0.000000 -0.000000 1.000000
vn 0.000000 -0.000000 1.000000
vn 0.000000 -0.000000 1.000000
vn 0.000000 -0.000000 1.000000
vn -0.952044 -0.305961 0.000000
vn -0.952044 -0.305961 0.000000
vn -0.810460 -0.585794 0.000000
vn -0.810460 -0.585794 0.000000
vn 0.000000 0.000000 -1.000000
vn 0.000000 0.000000 -1.000000
vn 0.000000 -0.000000 -1.000000
vn 0.000000 -0.000000 -1.000000
vn 0.952024 -0.306022 0.000000
vn 0.810453 -0.585804 0.000000
vn 0.810453 -0.585804 0.000000
vn 0.952024 -0.306022 0.000000
vn 0.000000 0.000000 -1.000000
vn 0.000000 0.000000 -1.000000
vn 0.000000 0.000000 -1.000000
vn 0.000000 0.000000 -1.000000
vn -0.952030 0.306004 0.000000
vn -0.810452 0.585804 0.000000
vn -0.810452 0.585804 0.000000
vn -0.952030 0.306004 0.000000
vn -0.000000 -0.000000 1.000000
vn -0.000000 -0.000000 1.000000
vn -0.000000 -0.000000 1.000000
vn -0.000000 -0.000000 1.000000
vn 0.309848 -0.950786 0.000000
vn 0.309848 -0.950786 0.000000
vn -0.000000 0.000000 -1.000000
vn -0.000000 0.000000 -1.000000
vn -0.309837 0.950790 0.000000
vn -0.309837 0.950790 0.000000
vn -0.000000 0.000000 1.000000
vn -0.000000 0.000000 1.000000
vn -0.309829 -0.950792 0.000000
vn -0.309829 -0.950792 0.000000
vn -0.000000 -0.000000 -1.000000
vn -0.000000 -0.000000 -1.000000
vn 0.309838 0.950790 0.000000
vn 0.309838 0.950790 0.000000
vn 0.000000 0.000000 1.000000
vn 0.000000 0.000000 1.000000
s off
g polySurface6892
f 1/1/1 2/2/2 4/3/3 3/4/4
f 3/4/5 4/3/6 6/5/7 5/6/8
f 5/7/9 6/8/10 8/9/11 7/10/12
f 7/10/13 8/9/14 2/2/15 1/1/16
f 2/11/17 8/12/18 6/13/19 4/14/20
f 7/15/21 1/16/22 3/17/23 5/18/24
f 9/19/25 10/20/26 12/21/27 11/22/28
f 11/22/29 12/21/30 14/23/31 13/24/32
f 13/25/33 14/26/34 16/27/35 15/28/36
f 15/28/37 16/27/38 10/20/39 9/19/40
f 10/29/41 16/30/42 14/31/43 12/32/44
f 15/33/45 9/34/46 11/35/47 13/36/48
f 17/37/49 18/38/50 20/39/51 19/40/52
f 19/40/53 20/39/54 22/41/55 21/42/56
f 21/43/57 22/44/58 24/45/59 23/46/60
f 23/46/61 24/45/62 18/38/63 17/37/64
f 18/47/65 24/48/66 22/49/67 20/50/68
f 23/51/69 17/52/70 19/53/71 21/54/72
f 25/55/73 26/56/74 28/57/75 27/58/76
f 27/58/77 28/57/78 30/59/79 29/60/80
f 29/61/81 30/62/82 32/63/83 31/64/84
f 31/64/85 32/63/86 26/56/87 25/55/88
f 26/65/89 32/66/90 30/67/91 28/68/92
f 31/69/93 25/70/94 27/71/95 29/72/96
f 33/73/97 34/74/98 36/75/99 35/76/100
f 35/76/101 36/75/102 38/77/103 37/78/104
f 37/79/105 38/80/106 40/81/107 39/82/108
f 39/82/109 40/81/110 34/74/111 33/73/112
f 34/83/113 40/84/114 38/85/115 36/86/116
f 39/87/117 33/88/118 35/89/119 37/90/120
f 41/91/121 42/92/122 44/93/123 43/94/124
f 43/94/125 44/93/126 46/95/127 45/96/128
f 45/97/129 46/98/130 48/99/131 47/100/132
f 47/100/133 48/99/134 42/92/135 41/91/136
f 42/101/137 48/102/138 46/103/139 44/104/140
f 47/105/141 41/106/142 43/107/143 45/108/144
f 49/109/145 50/110/146 52/111/147 51/112/148
f 51/112/149 52/111/150 54/113/151 53/114/152
f 53/115/153 54/116/154 56/117/155 55/118/156
f 55/118/157 56/117/158 50/110/159 49/109/160
f 50/119/161 56/120/162 54/121/163 52/122/164
f 55/123/165 49/124/166 51/125/167 53/126/168
f 57/127/169 58/128/170 60/129/171 59/130/172
f 59/130/173 60/129/174 62/131/175 61/132/176
f 61/133/177 62/134/178 64/135/179 63/136/180
f 63/136/181 64/135/182 58/128/183 57/127/184
f 58/137/185 64/138/186 62/139/187 60/140/188
f 63/141/189 57/142/190 59/143/191 61/144/192
s 49
f 65/145/193 107/146/194 108/147/195 67/148/196
s 50
f 67/148/197 108/147/198 105/149/199 69/150/200
s 51
f 69/151/201 105/152/202 106/153/203 71/154/204
s 52
f 71/154/205 106/153/206 107/146/207 65/145/208
s 51
f 73/155/209 70/156/210 72/157/211 74/158/212
s 52
f 75/159/213 74/158/214 72/157/215 66/160/216
s 49
f 76/161/217 75/159/218 66/160/219 68/162/220
s 50
f 73/163/221 76/161/222 68/162/223 70/164/224
s 51
f 77/165/225 73/155/209 74/158/212 78/166/226
s 52
f 79/167/227 78/166/228 74/158/214 75/159/213
s 49
f 80/168/229 79/167/230 75/159/218 76/161/217
s 50
f 77/169/231 80/168/232 76/161/222 73/163/221
s 51
f 81/170/233 77/165/225 78/166/226 82/171/234
s 52
f 83/172/235 82/171/236 78/166/228 79/167/227
s 49
f 84/173/237 83/172/238 79/167/230 80/168/229
s 50
f 81/174/239 84/173/240 80/168/232 77/169/231
s 51
f 85/175/241 81/170/233 82/171/234 86/176/242
s 52
f 87/177/243 86/176/244 82/171/236 83/172/235
s 49
f 88/178/245 87/177/246 83/172/238 84/173/237
s 50
f 85/179/247 88/178/248 84/173/240 81/174/239
s 51
f 89/180/249 85/175/241 86/176/242 90/181/250
s 52
f 91/182/251 90/181/252 86/176/244 87/177/243
s 49
f 92/183/253 91/182/254 87/177/246 88/178/245
s 50
f 89/184/255 92/183/256 88/178/248 85/179/247
s 51
f 93/185/257 89/180/249 90/181/250 94/186/258
s 52
f 95/187/259 94/186/260 90/181/252 91/182/251
s 49
f 96/188/261 95/187/262 91/182/254 92/183/253
s 50
f 93/189/263 96/188/264 92/183/256 89/184/255
s 51
f 97/190/265 93/185/257 94/186/258 98/191/266
s 52
f 99/192/267 98/191/268 94/186/260 95/187/259
s 49
f 100/193/269 99/192/270 95/187/262 96/188/261
s 50
f 97/194/271 100/193/272 96/188/264 93/189/263
s 51
f 101/195/273 97/190/265 98/191/266 102/196/274
s 52
f 103/197/275 102/196/276 98/191/268 99/192/267
s 49
f 104/198/277 103/197/278 99/192/270 100/193/269
s 50
f 101/199/279 104/198/280 100/193/272 97/194/271
s 51
f 105/152/202 101/195/273 102/196/274 106/153/203
s 52
f 107/146/207 106/153/206 102/196/276 103/197/275
s 49
f 108/147/195 107/146/194 103/197/278 104/198/277
s 50
f 105/149/199 108/147/198 104/198/280 101/199/279
s 53
f 66/200/281 143/201/282 144/202/283 68/203/284
s 54
f 68/203/285 144/202/286 141/204/287 70/205/288
s 55
f 70/206/289 141/207/290 142/208/291 72/209/292
s 56
f 72/209/293 142/208/294 143/201/295 66/200/296
s 55
f 109/210/297 69/211/298 71/212/299 110/213/300
s 56
f 111/214/301 110/213/302 71/212/303 65/215/304
s 53
f 112/216/305 111/214/306 65/215/307 67/217/308
s 54
f 109/218/309 112/216/310 67/217/311 69/219/312
s 55
f 113/220/313 109/210/297 110/213/300 114/221/314
s 56
f 115/222/315 114/221/316 110/213/302 111/214/301
s 53
f 116/223/317 115/222/318 111/214/306 112/216/305
s 54
f 113/224/319 116/223/320 112/216/310 109/218/309
s 55
f 117/225/321 113/220/313 114/221/314 118/226/322
s 56
f 119/227/323 118/226/324 114/221/316 115/222/315
s 53
f 120/228/325 119/227/326 115/222/318 116/223/317
s 54
f 117/229/327 120/228/328 116/223/320 113/224/319
s 55
f 121/230/329 117/225/321 118/226/322 122/231/330
s 56
f 123/232/331 122/231/332 118/226/324 119/227/323
s 53
f 124/233/333 123/232/334 119/227/326 120/228/325
s 54
f 121/234/335 124/233/336 120/228/328 117/229/327
s 55
f 125/235/337 121/230/329 122/231/330 126/236/338
s 56
f 127/237/339 126/236/340 122/231/332 123/232/331
s 53
f 128/238/341 127/237/342 123/232/334 124/233/333
s 54
f 125/239/343 128/238/344 124/233/336 121/234/335
s 55
f 129/240/345 125/235/337 126/236/338 130/241/346
s 56
f 131/242/347 130/241/348 126/236/340 127/237/339
s 53
f 132/243/349 131/242/350 127/237/342 128/238/341
s 54
f 129/244/351 132/243/352 128/238/344 125/239/343
s 55
f 133/245/353 129/240/345 130/241/346 134/246/354
s 56
f 135/247/355 134/246/356 130/241/348 131/242/347
s 53
f 136/248/357 135/247/358 131/242/350 132/243/349
s 54
f 133/249/359 136/248/360 132/243/352 129/244/351
s 55
f 137/250/361 133/245/353 134/246/354 138/251/362
s 56
f 139/252/363 138/251/364 134/246/356 135/247/355
s 53
f 140/253/365 139/252/366 135/247/358 136/248/357
s 54
f 137/254/367 140/253/368 136/248/360 133/249/359
s 55
f 141/207/290 137/250/361 138/251/362 142/208/291
s 56
f 143/201/295 142/208/294 138/251/364 139/252/363
s 53
f 144/202/283 143/201/282 139/252/366 140/253/365
s 54
f 141/204/287 144/202/286 140/253/368 137/254/367
s 57
f 145/255/369 187/256/370 188/257/371 147/258/372
s 58
f 147/258/373 188/257/374 185/259/375 149/260/376
s 59
f 149/261/377 185/262/378 186/263/379 151/264/380
s 60
f 151/264/381 186/263/382 187/256/383 145/255/384
s 59
f 153/265/385 150/266/386 152/267/387 154/268/388
s 60
f 155/269/389 154/268/390 152/267/391 146/270/392
s 57
f 156/271/393 155/269/394 146/270/395 148/272/396
s 58
f 153/273/397 156/271/398 148/272/399 150/274/400
s 59
f 157/275/401 153/265/385 154/268/388 158/276/402
s 60
f 159/277/403 158/276/404 154/268/390 155/269/389
s 57
f 160/278/405 159/277/406 155/269/394 156/271/393
s 58
f 157/279/407 160/278/408 156/271/398 153/273/397
s 59
f 161/280/409 157/275/401 158/276/402 162/281/410
s 60
f 163/282/411 162/281/412 158/276/404 159/277/403
s 57
f 164/283/413 163/282/414 159/277/406 160/278/405
s 58
f 161/284/415 164/283/416 160/278/408 157/279/407
s 59
f 165/285/417 161/280/409 162/281/410 166/286/418
s 60
f 167/287/419 166/286/420 162/281/412 163/282/411
s 57
f 168/288/421 167/287/422 163/282/414 164/283/413
s 58
f 165/289/423 168/288/424 164/283/416 161/284/415
s 59
f 169/290/425 165/285/417 166/286/418 170/291/426
s 60
f 171/292/427 170/291/428 166/286/420 167/287/419
s 57
f 172/293/429 171/292/430 167/287/422 168/288/421
s 58
f 169/294/431 172/293/432 168/288/424 165/289/423
s 59
f 173/295/433 169/290/425 170/291/426 174/296/434
s 60
f 175/297/435 174/296/436 170/291/428 171/292/427
s 57
f 176/298/437 175/297/438 171/292/430 172/293/429
s 58
f 173/299/439 176/298/440 172/293/432 169/294/431
s 59
f 177/300/441 173/295/433 174/296/434 178/301/442
s 60
f 179/302/443 178/301/444 174/296/436 175/297/435
s 57
f 180/303/445 179/302/446 175/297/438 176/298/437
s 58
f 177/304/447 180/303/448 176/298/440 173/299/439
s 59
f 181/305/449 177/300/441 178/301/442 182/306/450
s 60
f 183/307/451 182/306/452 178/301/444 179/302/443
s 57
f 184/308/453 183/307/454 179/302/446 180/303/445
s 58
f 181/309/455 184/308/456 180/303/448 177/304/447
s 59
f 185/262/378 181/305/449 182/306/450 186/263/379
s 60
f 187/256/383 186/263/382 182/306/452 183/307/451
s 57
f 188/257/371 187/256/370 183/307/454 184/308/453
s 58
f 185/259/375 188/257/374 184/308/456 181/309/455
s 61
f 146/310/457 223/311/458 224/312/459 148/313/460
s 62
f 148/313/461 224/312/462 221/314/463 150/315/464
s 63
f 150/316/465 221/317/466 222/318/467 152/319/468
s 64
f 152/319/469 222/318/470 223/311/471 146/310/472
s 63
f 189/320/473 149/321/474 151/322/475 190/323/476
s 64
f 191/324/477 190/323/478 151/322/479 145/325/480
s 61
f 192/326/481 191/324/482 145/325/483 147/327/484
s 62
f 189/328/485 192/326/486 147/327/487 149/329/488
s 63
f 193/330/489 189/320/473 190/323/476 194/331/490
s 64
f 195/332/491 194/331/492 190/323/478 191/324/477
s 61
f 196/333/493 195/332/494 191/324/482 192/326/481
s 62
f 193/334/495 196/333/496 192/326/486 189/328/485
s 63
f 197/335/497 193/330/489 194/331/490 198/336/498
s 64
f 199/337/499 198/336/500 194/331/492 195/332/491
s 61
f 200/338/501 199/337/502 195/332/494 196/333/493
s 62
f 197/339/503 200/338/504 196/333/496 193/334/495
s 63
f 201/340/505 197/335/497 198/336/498 202/341/506
s 64
f 203/342/507 202/341/508 198/336/500 199/337/499
s 61
f 204/343/509 203/342/510 199/337/502 200/338/501
s 62
f 201/344/511 204/343/512 200/338/504 197/339/503
s 63
f 205/345/513 201/340/505 202/341/506 206/346/514
s 64
f 207/347/515 206/346/516 202/341/508 203/342/507
s 61
f 208/348/517 207/347/518 203/342/510 204/343/509
s 62
f 205/349/519 208/348/520 204/343/512 201/344/511
s 63
f 209/350/521 205/345/513 206/346/514 210/351/522
s 64
f 211/352/523 210/351/524 206/346/516 207/347/515
s 61
f 212/353/525 211/352/526 207/347/518 208/348/517
s 62
f 209/354/527 212/353/528 208/348/520 205/349/519
s 63
f 213/355/529 209/350/521 210/351/522 214/356/530
s 64
f 215/357/531 214/356/532 210/351/524 211/352/523
s 61
f 216/358/533 215/357/534 211/352/526 212/353/525
s 62
f 213/359/535 216/358/536 212/353/528 209/354/527
s 63
f 217/360/537 213/355/529 214/356/530 218/361/538
s 64
f 219/362/539 218/361/540 214/356/532 215/357/531
s 61
f 220/363/541 219/362/542 215/357/534 216/358/533
s 62
f 217/364/543 220/363/544 216/358/536 213/359/535
s 63
f 221/317/466 217/360/537 218/361/538 222/318/467
s 64
f 223/311/471 222/318/470 218/361/540 219/362/539
s 61
f 224/312/459 223/311/458 219/362/542 220/363/541
s 62
f 221/314/463 224/312/462 220/363/544 217/364/543
s 65
f 227/365/545 225/366/546 247/367/547 248/368/548
s 66
f 245/369/549 229/370/550 227/365/551 248/368/552
s 67
f 231/371/553 229/372/554 245/373/555 246/374/556
s 68
f 225/366/557 231/371/558 246/374/559 247/367/560
s 67
f 232/375/561 234/376/562 233/377/563 230/378/564
s 68
f 226/379/565 235/380/566 234/376/567 232/375/568
s 65
f 228/381/569 236/382/570 235/380/571 226/379/572
s 66
f 230/383/573 233/384/574 236/382/575 228/381/576
s 67
f 234/376/562 238/385/577 237/386/578 233/377/563
s 68
f 235/380/566 239/387/579 238/385/580 234/376/567
s 65
f 236/382/570 240/388/581 239/387/582 235/380/571
s 66
f 233/384/574 237/389/583 240/388/584 236/382/575
s 67
f 238/385/577 242/390/585 241/391/586 237/386/578
s 68
f 239/387/579 243/392/587 242/390/588 238/385/580
s 65
f 240/388/581 244/393/589 243/392/590 239/387/582
s 66
f 237/389/583 241/394/591 244/393/592 240/388/584
s 67
f 242/390/585 246/374/556 245/373/555 241/391/586
s 68
f 243/392/587 247/367/560 246/374/559 242/390/588
s 65
f 244/393/589 248/368/548 247/367/547 243/392/590
s 66
f 241/394/591 245/369/549 248/368/552 244/393/592
s 69
f 228/395/593 226/396/594 263/397/595 264/398/596
s 70
f 261/399/597 230/400/598 228/395/599 264/398/600
s 71
f 232/401/601 230/402/602 261/403/603 262/404/604
s 72
f 226/396/605 232/401/606 262/404/607 263/397/608
s 71
f 231/405/609 250/406/610 249/407/611 229/408/612
s 72
f 225/409/613 251/410/614 250/406/615 231/405/616
s 69
f 227/411/617 252/412/618 251/410/619 225/409/620
s 70
f 229/413/621 249/414/622 252/412/623 227/411/624
s 71
f 250/406/610 254/415/625 253/416/626 249/407/611
s 72
f 251/410/614 255/417/627 254/415/628 250/406/615
s 69
f 252/412/618 256/418/629 255/417/630 251/410/619
s 70
f 249/414/622 253/419/631 256/418/632 252/412/623
s 71
f 254/415/625 258/420/633 257/421/634 253/416/626
s 72
f 255/417/627 259/422/635 258/420/636 254/415/628
s 69
f 256/418/629 260/423/637 259/422/638 255/417/630
s 70
f 253/419/631 257/424/639 260/423/640 256/418/632
s 71
f 258/420/633 262/404/604 261/403/603 257/421/634
s 72
f 259/422/635 263/397/608 262/404/607 258/420/636
s 69
f 260/423/637 264/398/596 263/397/595 259/422/638
s 70
f 257/424/639 261/399/597 264/398/600 260/423/640
