# Blender v2.92.0 OBJ File: 'OGConvert.blend'
# www.blender.org
o roadTile_052
v 0.000000 4.800001 -24.000000
v 0.000000 2.400001 -24.000000
v 0.000000 2.400001 -13.631440
v 0.000000 4.800001 -13.631440
v 10.368560 4.800001 -24.000000
v 10.368560 2.400001 -24.000000
v 13.968880 0.000001 -24.000000
v 0.000000 0.000001 -24.000000
v 10.368560 5.040001 -24.000000
v 13.968880 5.040001 -24.000000
v 13.968880 4.400001 -24.000000
v 24.000000 0.000000 -0.000000
v 0.000000 0.000000 0.000000
v 0.000000 0.000000 -10.031120
v 24.000000 0.000001 -24.000000
v 24.000000 4.400000 0.000000
v 0.000000 4.400000 0.000000
v 24.000000 4.400001 -24.000000
v 11.700880 4.400001 -20.605761
v 7.819808 4.400001 -16.180161
v 3.394264 4.400001 -12.299120
v 0.000000 4.400001 -10.031120
v 11.700880 5.040001 -20.605761
v 0.000000 5.040000 -13.631440
v 0.000000 5.040000 -10.031120
v 3.394264 5.040000 -12.299120
v 7.819808 5.040000 -16.180161
v 9.320880 5.040001 -22.431999
v 5.698488 5.040001 -18.301519
v 1.567984 5.040000 -14.679120
v 1.567984 4.800001 -14.679120
v 5.698488 4.800001 -18.301519
v 9.320880 4.800001 -22.431999
vt 0.660712 0.497600
vt 0.710232 0.283662
vt 0.710232 0.497600
vt 0.551920 0.216338
vt 0.601440 0.002400
vt 0.601440 0.216338
vt 0.598759 0.598759
vt 0.683985 0.524017
vt 0.716338 0.716338
vt 0.660712 0.283662
vt 0.551920 0.002400
vt 0.716338 0.502400
vt 0.502400 0.716338
vt 0.524017 0.683985
vt 0.593187 0.290625
vt 0.502400 0.290625
vt 0.816048 0.502400
vt 0.802843 0.572434
vt 0.802843 0.502400
vt 0.783038 0.706205
vt 0.790452 0.819320
vt 0.729082 0.827399
vt 0.611192 0.209375
vt 0.701978 0.209375
vt 0.816048 0.759863
vt 0.802843 0.829898
vt 0.802843 0.759863
vt 0.816048 0.668549
vt 0.802843 0.668549
vt 0.816048 0.572434
vt 0.802843 0.663749
vt 0.820848 0.624778
vt 0.825800 0.657131
vt 0.820848 0.657131
vt 0.825800 0.742357
vt 0.820848 0.742357
vt 0.825800 0.619979
vt 0.820848 0.534753
vt 0.825800 0.534753
vt 0.820848 0.502400
vt 0.825800 0.502400
vt 0.502400 0.002400
vt 0.606392 0.216338
vt 0.606392 0.290625
vt 0.798043 0.857482
vt 0.745514 0.910011
vt 0.721138 0.706206
vt 0.729082 0.585012
vt 0.745514 0.502400
vt 0.798043 0.554929
vt 0.790451 0.593091
vt 0.611192 0.497600
vt 0.715184 0.209375
vt 0.715184 0.283662
vt 0.816048 0.829898
vt 0.816048 0.663749
vt 0.825800 0.624778
vt 0.820848 0.619979
vt 0.497600 0.209375
vt 0.497600 0.497600
vt 0.209375 0.497600
vt 0.906357 0.002400
vt 0.815570 0.497600
vt 0.815570 0.002400
vt 0.719984 0.002400
vt 0.810770 0.497600
vt 0.719984 0.497600
vt 0.502400 0.497600
vt 0.336251 0.663749
vt 0.427565 0.743828
vt 0.002400 0.997600
vt 0.701978 0.002400
vt 0.611192 0.002400
vt 0.002400 0.497600
vt 0.002400 0.002400
vt 0.497600 0.002400
vt 0.906357 0.497600
vt 0.810770 0.002400
vt 0.593187 0.497600
vt 0.002400 0.502400
vt 0.256172 0.572434
vt 0.209375 0.502400
vt 0.497600 0.790625
vt 0.497600 0.997600
vn -1.0000 0.0000 -0.0000
vn -0.0000 0.0000 -1.0000
vn -0.0000 1.0000 0.0000
vn 0.8315 0.0000 0.5556
vn 0.7934 0.0000 0.6088
vn 0.6088 0.0000 0.7934
vn 0.5556 0.0000 0.8315
vn 0.7071 0.0000 0.7071
vn -0.5556 0.0000 -0.8315
vn -0.6088 0.0000 -0.7934
vn -0.7071 0.0000 -0.7071
vn -0.7934 0.0000 -0.6088
vn -0.8315 0.0000 -0.5556
vn 0.0000 -1.0000 -0.0000
vn 0.0000 -0.0000 1.0000
vn 1.0000 0.0000 0.0000
s 1
f 2/1/1 4/2/1 1/3/1
f 6/4/2 1/5/2 5/6/2
f 32/7/3 33/8/3 1/9/3
f 2/1/1 3/10/1 4/2/1
f 6/4/2 2/11/2 1/5/2
f 5/12/3 1/9/3 33/8/3
f 1/9/3 4/13/3 31/14/3
f 32/7/3 1/9/3 31/14/3
f 11/15/2 7/16/2 6/4/2
f 10/17/4 19/18/5 11/19/4
f 29/20/3 30/21/3 26/22/3
f 3/10/1 14/23/1 22/24/1
f 26/25/6 22/26/7 21/27/6
f 27/28/8 21/27/6 20/29/8
f 23/30/5 20/31/8 19/18/5
f 4/32/9 30/33/10 31/34/10
f 31/34/10 29/35/11 32/36/11
f 32/37/11 28/38/12 33/39/12
f 33/39/12 9/40/13 5/41/13
f 7/16/2 8/42/2 6/4/2
f 8/42/2 2/11/2 6/4/2
f 6/4/2 5/6/2 11/15/2
f 5/6/2 9/43/2 10/44/2
f 11/15/2 5/6/2 10/44/2
f 10/17/4 23/30/5 19/18/5
f 30/21/3 24/45/3 26/22/3
f 24/45/3 25/46/3 26/22/3
f 26/22/3 27/47/3 29/20/3
f 27/47/3 23/48/3 29/20/3
f 23/48/3 10/49/3 9/50/3
f 29/20/3 23/48/3 28/51/3
f 9/50/3 28/51/3 23/48/3
f 2/1/1 8/52/1 3/10/1
f 8/52/1 14/23/1 3/10/1
f 22/24/1 25/53/1 4/2/1
f 25/53/1 24/54/1 4/2/1
f 4/2/1 3/10/1 22/24/1
f 26/25/6 25/55/7 22/26/7
f 27/28/8 26/25/6 21/27/6
f 23/30/5 27/56/8 20/31/8
f 4/32/9 24/57/9 30/33/10
f 31/34/10 30/33/10 29/35/11
f 32/37/11 29/58/11 28/38/12
f 33/39/12 28/38/12 9/40/13
f 14/59/14 8/60/14 7/61/14
f 16/62/15 13/63/15 12/64/15
f 15/65/16 16/66/16 12/67/16
f 11/15/2 15/68/2 7/16/2
f 20/69/3 21/70/3 16/71/3
f 17/72/1 14/23/1 13/73/1
f 15/74/14 12/75/14 7/61/14
f 12/75/14 13/76/14 14/59/14
f 7/61/14 12/75/14 14/59/14
f 16/62/15 17/77/15 13/63/15
f 15/65/16 18/78/16 16/66/16
f 11/15/2 18/79/2 15/68/2
f 16/71/3 18/80/3 19/81/3
f 18/80/3 11/82/3 19/81/3
f 22/83/3 17/84/3 21/70/3
f 17/84/3 16/71/3 21/70/3
f 16/71/3 19/81/3 20/69/3
f 17/72/1 22/24/1 14/23/1
