# Blender v2.92.0 OBJ File: 'OGConvert.blend'
# www.blender.org
o roadTile_103
v 24.000000 4.560000 -15.000000
v 0.000000 13.360001 -14.999999
v 0.000000 13.840001 -14.999999
v 24.000000 5.040000 -15.000000
v 24.000000 4.560001 -16.500000
v 0.000000 13.360001 -16.500000
v 24.000000 5.040001 -24.000000
v 24.000000 5.040001 -16.500000
v 24.000000 5.040000 -9.000000
v 24.000000 4.560000 -9.000000
v 24.000000 4.560000 -7.500000
v 24.000000 5.040000 -7.500000
v 24.000000 5.040000 0.000000
v 24.000000 0.000000 -0.000000
v 24.000000 0.000001 -24.000000
v 0.000000 13.840001 -24.000000
v 0.000000 13.840001 -16.500000
v 0.000000 13.840000 0.000001
v 0.000000 13.840000 -7.500000
v 0.000000 13.360000 -7.500000
v 0.000000 13.360000 -8.999999
v 0.000000 13.840000 -8.999999
v 0.000000 0.000001 -24.000000
v 0.000000 0.000000 0.000000
vt 0.698672 0.474494
vt 0.707353 0.963719
vt 0.698672 0.966902
vt 0.894383 0.003000
vt 0.923277 0.495408
vt 0.894383 0.495408
vt 0.713353 0.474494
vt 0.722034 0.963719
vt 0.713353 0.966902
vt 0.929278 0.003000
vt 0.958172 0.495408
vt 0.929278 0.495408
vt 0.736716 0.474494
vt 0.728035 0.963719
vt 0.728035 0.471311
vt 0.977255 0.504592
vt 0.968575 0.993817
vt 0.968574 0.501409
vt 0.707353 0.471311
vt 0.923277 0.003000
vt 0.722034 0.471311
vt 0.958172 0.003000
vt 0.736716 0.966902
vt 0.977255 0.997000
vt 0.953328 0.674775
vt 0.953328 0.790353
vt 0.865489 0.501409
vt 0.743910 0.495408
vt 0.888382 0.003000
vt 0.888382 0.495408
vt 0.480557 0.291944
vt 0.480557 0.176367
vt 0.737910 0.465310
vt 0.692671 0.471311
vt 0.548199 0.963719
vt 0.548199 0.471311
vt 0.859488 0.501409
vt 0.743910 0.993817
vt 0.743910 0.501409
vt 0.003000 0.933621
vt 0.100085 0.471311
vt 0.269599 0.933621
vt 0.465310 0.465310
vt 0.003000 0.003000
vt 0.465310 0.003000
vt 0.372685 0.933621
vt 0.275600 0.471311
vt 0.542199 0.471311
vt 0.962574 0.501409
vt 0.953328 0.645881
vt 0.962574 0.645881
vt 0.962574 0.963719
vt 0.865489 0.963719
vt 0.953328 0.819247
vt 0.962574 0.819247
vt 0.962574 0.674775
vt 0.962574 0.790353
vt 0.743910 0.003000
vt 0.471311 0.465310
vt 0.480557 0.320838
vt 0.471311 0.320838
vt 0.471311 0.003000
vt 0.737910 0.003000
vt 0.480557 0.147472
vt 0.471311 0.147472
vt 0.471311 0.291944
vt 0.471311 0.176367
vt 0.692671 0.963719
vt 0.859488 0.993817
vt 0.003000 0.471311
vt 0.003000 0.465310
vt 0.275600 0.933621
vn -0.0000 0.0000 -1.0000
vn 0.3443 0.9389 -0.0000
vn -0.0000 0.0000 1.0000
vn 1.0000 0.0000 0.0000
vn -1.0000 0.0000 0.0000
vn 0.0000 -1.0000 -0.0000
s 1
f 2/1/1 4/2/1 1/3/1
f 1/4/2 6/5/2 2/6/2
f 20/7/1 12/8/1 11/9/1
f 11/10/2 21/11/2 20/12/2
f 21/13/3 9/14/3 22/15/3
f 6/16/3 8/17/3 17/18/3
f 2/1/1 3/19/1 4/2/1
f 1/4/2 5/20/2 6/5/2
f 20/7/1 19/21/1 12/8/1
f 11/10/2 10/22/2 21/11/2
f 21/13/3 10/23/3 9/14/3
f 6/16/3 5/24/3 8/17/3
f 1/25/4 10/26/4 15/27/4
f 17/28/2 7/29/2 16/30/2
f 21/31/5 2/32/5 24/33/5
f 12/34/2 18/35/2 13/36/2
f 4/37/2 22/38/2 9/39/2
f 24/40/3 13/41/3 18/42/3
f 24/43/6 15/44/6 14/45/6
f 7/46/1 23/47/1 16/48/1
f 15/27/4 7/49/4 5/50/4
f 7/49/4 8/51/4 5/50/4
f 13/52/4 14/53/4 11/54/4
f 14/53/4 15/27/4 10/26/4
f 11/54/4 14/53/4 10/26/4
f 11/54/4 12/55/4 13/52/4
f 4/56/4 9/57/4 10/26/4
f 1/25/4 4/56/4 10/26/4
f 15/27/4 5/50/4 1/25/4
f 17/28/2 8/58/2 7/29/2
f 24/33/5 18/59/5 20/60/5
f 18/59/5 19/61/5 20/60/5
f 16/62/5 23/63/5 6/64/5
f 23/63/5 24/33/5 2/32/5
f 6/64/5 23/63/5 2/32/5
f 6/64/5 17/65/5 16/62/5
f 22/66/5 3/67/5 2/32/5
f 21/31/5 22/66/5 2/32/5
f 24/33/5 20/60/5 21/31/5
f 12/34/2 19/68/2 18/35/2
f 4/37/2 3/69/2 22/38/2
f 24/40/3 14/70/3 13/41/3
f 24/43/6 23/71/6 15/44/6
f 7/46/1 15/72/1 23/47/1
