# Blender v2.92.0 OBJ File: 'OGConvert.blend'
# www.blender.org
o roadTile_046
v 0.000000 4.800000 0.000000
v 0.000000 2.400000 0.000000
v 24.000000 2.400000 0.000000
v 24.000000 4.800000 0.000000
v 0.000000 4.800001 -18.000000
v 0.000000 2.400001 -18.000000
v 24.000000 4.800001 -24.000000
v 6.000000 4.800001 -24.000000
v 6.000000 4.800001 -18.000000
v 24.000000 2.400001 -24.000000
v 6.000000 2.400001 -24.000000
v 24.000000 0.000001 -24.000000
v 3.000000 0.000001 -24.000000
v 3.000000 13.200001 -24.000000
v 3.000000 13.840001 -24.000000
v 6.000000 13.840001 -24.000000
v 24.000000 0.000000 0.000000
v 0.000000 0.000000 -0.000000
v 0.000000 0.000001 -21.000000
v 0.000000 0.000001 -24.000000
v 0.000000 13.840001 -21.000000
v 0.000000 13.200001 -21.000000
v 0.000000 13.840001 -18.000000
v 3.000000 13.840001 -21.000000
v 3.000000 13.200001 -21.000000
v 6.000000 13.840001 -18.000000
v 0.000000 13.200001 -24.000000
vt 0.832370 0.002695
vt 0.783529 0.491102
vt 0.783529 0.002695
vt 0.680458 0.124797
vt 0.729299 0.491102
vt 0.680458 0.491102
vt 0.124796 0.124797
vt 0.491102 0.002695
vt 0.491102 0.491102
vt 0.545332 0.618593
vt 0.594173 0.984898
vt 0.545332 0.984898
vt 0.935440 0.491102
vt 0.984281 0.002695
vt 0.984281 0.491102
vt 0.832370 0.491102
vt 0.729299 0.124797
vt 0.002695 0.491102
vt 0.002695 0.124797
vt 0.124796 0.002695
vt 0.594173 0.618593
vt 0.935441 0.002695
vt 0.496491 0.557542
vt 0.765115 0.557542
vt 0.886600 0.491102
vt 0.886600 0.002695
vt 0.881210 0.491102
vt 0.778139 0.063746
vt 0.509516 0.063745
vt 0.924044 0.623983
vt 0.911020 0.562932
vt 0.924044 0.562932
vt 0.905630 0.875203
vt 0.905630 0.936254
vt 0.844580 0.936254
vt 0.783529 0.680458
vt 0.905631 0.496491
vt 0.905631 0.680458
vt 0.905630 0.685847
vt 0.783529 0.869814
vt 0.783529 0.685847
vt 0.911020 0.629372
vt 0.924044 0.690423
vt 0.911020 0.690423
vt 0.496491 0.984898
vt 0.778139 0.557542
vt 0.778139 0.618593
vt 0.881210 0.002695
vt 0.496491 0.124796
vt 0.496491 0.063745
vt 0.778139 0.491102
vt 0.911020 0.623983
vt 0.844580 0.997305
vt 0.783529 0.997305
vt 0.783529 0.875203
vt 0.783529 0.496491
vt 0.905630 0.869814
vt 0.924044 0.629372
vt 0.491102 0.984898
vt 0.002695 0.557542
vt 0.063746 0.496491
vt 0.911020 0.557542
vt 0.972071 0.496491
vt 0.972071 0.557542
vt 0.509516 0.002695
vt 0.778139 0.002695
vt 0.496491 0.496491
vt 0.765115 0.496491
vt 0.491102 0.496491
vt 0.002695 0.984898
vt 0.002695 0.496491
vt 0.911020 0.496491
vn -0.0000 -0.0000 1.0000
vn -1.0000 0.0000 -0.0000
vn 0.0000 1.0000 0.0000
vn 0.0000 0.0000 -1.0000
vn 1.0000 0.0000 0.0000
vn -0.0000 -1.0000 -0.0000
s 1
f 2/1/1 4/2/1 1/3/1
f 5/4/2 2/5/2 1/6/2
f 9/7/3 1/8/3 4/9/3
f 11/10/4 7/11/4 10/12/4
f 3/13/5 7/14/5 4/15/5
f 2/1/1 3/16/1 4/2/1
f 5/4/2 6/17/2 2/5/2
f 4/9/3 7/18/3 9/7/3
f 7/18/3 8/19/3 9/7/3
f 9/7/3 5/20/3 1/8/3
f 11/10/4 8/21/4 7/11/4
f 3/13/5 10/22/5 7/14/5
f 13/23/4 14/24/4 8/21/4
f 10/22/5 17/25/5 12/26/5
f 2/1/1 17/27/1 3/16/1
f 19/28/2 5/4/2 22/29/2
f 24/30/4 22/31/4 21/32/4
f 16/33/3 15/34/3 24/35/3
f 9/36/1 23/37/1 5/38/1
f 8/39/5 26/40/5 9/41/5
f 15/42/2 25/43/2 24/44/2
f 10/12/4 12/45/4 11/10/4
f 12/45/4 13/23/4 11/10/4
f 14/24/4 15/46/4 16/47/4
f 14/24/4 16/47/4 8/21/4
f 8/21/4 11/10/4 13/23/4
f 10/22/5 3/13/5 17/25/5
f 2/1/1 18/48/1 17/27/1
f 23/49/2 21/50/2 22/29/2
f 19/28/2 18/51/2 6/17/2
f 18/51/2 2/5/2 6/17/2
f 6/17/2 5/4/2 19/28/2
f 5/4/2 23/49/2 22/29/2
f 24/30/4 25/52/4 22/31/4
f 21/53/3 23/54/3 24/35/3
f 23/54/3 26/55/3 24/35/3
f 26/55/3 16/33/3 24/35/3
f 9/36/1 26/56/1 23/37/1
f 8/39/5 16/57/5 26/40/5
f 15/42/2 14/58/2 25/43/2
f 17/59/6 19/60/6 13/61/6
f 22/62/3 14/63/3 27/64/3
f 19/28/2 27/65/2 20/66/2
f 14/24/4 20/67/4 27/68/4
f 13/61/6 12/69/6 17/59/6
f 17/59/6 18/70/6 19/60/6
f 19/60/6 20/71/6 13/61/6
f 22/62/3 25/72/3 14/63/3
f 19/28/2 22/29/2 27/65/2
f 14/24/4 13/23/4 20/67/4
