# Blender v2.92.0 OBJ File: 'OGConvert.blend'
# www.blender.org
o roadTile_064
v 0.000000 0.000000 -0.000000
v 0.000000 5.040000 0.000000
v 0.000000 5.040001 -24.000000
v 0.000000 0.000001 -24.000000
v 24.000000 0.000000 0.000000
v 24.000000 5.040000 0.000000
v 24.000000 0.000001 -24.000000
v 24.000000 5.040001 -24.000000
v 24.000000 5.040000 -15.000000
v 24.000000 4.800001 -15.000000
v 24.000000 2.400001 -15.000000
v 24.000000 2.400001 -9.000000
v 24.000000 4.800001 -9.000000
v 24.000000 5.040000 -9.000000
v 9.000000 5.040000 -9.000000
v 9.000000 5.040000 -15.000000
v 9.000000 4.800001 -9.000000
v 9.000000 4.800001 -15.000000
vt 0.502199 0.497801
vt 0.606275 0.002199
vt 0.606275 0.497801
vt 0.719147 0.497801
vt 0.823223 0.002199
vt 0.823223 0.497801
vt 0.497801 0.002199
vt 0.002199 0.497801
vt 0.002199 0.002199
vt 0.827621 0.497801
vt 0.931697 0.002199
vt 0.931697 0.497801
vt 0.610673 0.497801
vt 0.610673 0.002199
vt 0.660233 0.311950
vt 0.311950 0.688050
vt 0.188050 0.688050
vt 0.002199 0.502199
vt 0.630497 0.502199
vt 0.635453 0.811950
vt 0.630497 0.811950
vt 0.644806 0.811950
vt 0.639850 0.502199
vt 0.644806 0.502199
vt 0.502199 0.002199
vt 0.719147 0.002199
vt 0.497801 0.497801
vt 0.827621 0.002199
vt 0.714749 0.002199
vt 0.660233 0.188050
vt 0.714749 0.188050
vt 0.709793 0.188050
vt 0.714749 0.311950
vt 0.714749 0.497801
vt 0.709793 0.311950
vt 0.497801 0.502199
vt 0.497801 0.997801
vt 0.311950 0.997801
vt 0.188050 0.997801
vt 0.002199 0.997801
vt 0.635453 0.502199
vt 0.639850 0.811950
vt 0.626099 0.811950
vt 0.502199 0.502199
vt 0.626099 0.502199
vt 0.502199 0.811950
vt 0.654160 0.502199
vt 0.649204 0.626099
vt 0.649204 0.502199
vt 0.654160 0.626099
vn -1.0000 0.0000 -0.0000
vn -0.0000 -0.0000 1.0000
vn 0.0000 -1.0000 -0.0000
vn 0.0000 0.0000 -1.0000
vn 1.0000 0.0000 0.0000
vn 0.0000 1.0000 0.0000
s 1
f 2/1/1 4/2/1 1/3/1
f 1/4/2 6/5/2 2/6/2
f 7/7/3 1/8/3 4/9/3
f 7/10/4 3/11/4 8/12/4
f 5/13/5 7/14/5 12/15/5
f 15/16/6 16/17/6 3/18/6
f 17/19/4 14/20/4 13/21/4
f 16/22/2 10/23/2 9/24/2
f 2/1/1 3/25/1 4/2/1
f 1/4/2 5/26/2 6/5/2
f 7/7/3 5/27/3 1/8/3
f 7/10/4 4/28/4 3/11/4
f 7/14/5 8/29/5 11/30/5
f 8/29/5 9/31/5 10/32/5
f 10/32/5 11/30/5 8/29/5
f 14/33/5 6/34/5 13/35/5
f 6/34/5 5/13/5 12/15/5
f 13/35/5 6/34/5 12/15/5
f 7/14/5 11/30/5 12/15/5
f 2/36/6 6/37/6 15/16/6
f 6/37/6 14/38/6 15/16/6
f 9/39/6 8/40/6 16/17/6
f 8/40/6 3/18/6 16/17/6
f 2/36/6 15/16/6 3/18/6
f 17/19/4 15/41/4 14/20/4
f 16/22/2 18/42/2 10/23/2
f 18/43/6 13/44/6 10/45/6
f 12/15/5 10/32/5 13/35/5
f 18/43/6 17/46/6 13/44/6
f 12/15/5 11/30/5 10/32/5
f 18/47/1 15/48/1 16/49/1
f 18/47/1 17/50/1 15/48/1
