# Blender v2.92.0 OBJ File: 'kenney_OGConvert.blend'
# www.blender.org
o roadTile_274
v 1.125000 1.650000 -1.406250
v 1.125000 0.000000 -1.406250
v 1.125000 0.000000 -0.843750
v 1.125000 1.650000 -0.843750
v 1.875000 0.000000 -1.406250
v 1.875000 1.650000 -1.406250
v 1.875000 0.000000 -0.843750
v 1.875000 1.650000 -0.843750
v 3.000000 1.650000 -2.250000
v -0.000000 1.650000 -2.250000
v 0.000000 1.650000 0.000000
v 3.000000 1.650000 -0.000000
v 3.000000 2.280000 -2.250000
v 3.000000 2.280000 -1.875000
v 3.000000 2.250000 -1.875000
v 3.000000 1.950000 -1.875000
v 3.000000 1.950000 -0.375000
v 3.000000 2.250000 -0.375000
v 3.000000 2.280000 -0.375000
v 3.000000 2.280000 -0.000000
v -0.000000 2.280000 -2.250000
v 0.000000 2.280000 0.000000
v -0.000000 2.280000 -0.375000
v -0.000000 2.250000 -0.375000
v -0.000000 1.950000 -0.375000
v -0.000000 1.950000 -1.875000
v -0.000000 2.250000 -1.875000
v -0.000000 2.280000 -1.875000
vt 0.573171 0.774714
vt 0.480494 0.502862
vt 0.573171 0.502862
vt 0.221907 0.774714
vt 0.345476 0.502862
vt 0.345476 0.774714
vt 0.769973 0.502862
vt 0.677296 0.626431
vt 0.677296 0.502862
vt 0.578895 0.502862
vt 0.671572 0.774714
vt 0.578895 0.774714
vt 0.351201 0.774714
vt 0.474769 0.502862
vt 0.474769 0.774714
vt 0.141877 0.188215
vt 0.234554 0.311785
vt 0.141877 0.311785
vt 0.002862 0.002862
vt 0.002862 0.497138
vt 0.373569 0.497138
vt 0.373569 0.002862
vt 0.234554 0.188215
vt 0.052290 0.564647
vt 0.052290 0.811784
vt 0.002862 0.873569
vt 0.632156 0.497138
vt 0.735954 0.002862
vt 0.735954 0.497138
vt 0.166755 0.811784
vt 0.166755 0.564647
vt 0.216182 0.502862
vt 0.845476 0.497138
vt 0.741678 0.002862
vt 0.845476 0.002862
vt 0.851201 0.497138
vt 0.912985 0.002862
vt 0.912985 0.497138
vt 0.986218 0.002862
vt 0.991161 0.497138
vt 0.986218 0.497138
vt 0.775698 0.502862
vt 0.780641 0.997138
vt 0.775698 0.997138
vt 0.980494 0.002862
vt 0.918710 0.497138
vt 0.918710 0.002862
vt 0.480494 0.774714
vt 0.221907 0.502862
vt 0.769973 0.626431
vt 0.671572 0.502862
vt 0.351201 0.502862
vt 0.002862 0.502862
vt 0.106660 0.502862
vt 0.106660 0.564647
vt 0.101717 0.564647
vt 0.106660 0.811784
vt 0.106660 0.873569
vt 0.101717 0.811784
vt 0.632156 0.002862
vt 0.216182 0.873569
vt 0.112385 0.873569
vt 0.112385 0.811784
vt 0.117327 0.811784
vt 0.112385 0.564647
vt 0.112385 0.502862
vt 0.117327 0.564647
vt 0.741678 0.497138
vt 0.851201 0.002862
vt 0.991161 0.002862
vt 0.780641 0.502862
vt 0.980494 0.497138
vt 0.379293 0.002862
vt 0.626431 0.497138
vt 0.379293 0.497138
vt 0.626431 0.002862
vn -1.0000 -0.0000 0.0000
vn 0.0000 0.0000 -1.0000
vn -0.0000 -1.0000 -0.0000
vn 1.0000 0.0000 -0.0000
vn 0.0000 -0.0000 1.0000
vn 0.0000 1.0000 0.0000
s 1
f 2/1/1 4/2/1 1/3/1
f 2/4/2 6/5/2 5/6/2
f 2/7/3 7/8/3 3/9/3
f 7/10/4 6/11/4 8/12/4
f 7/13/5 4/14/5 3/15/5
f 6/16/3 4/17/3 1/18/3
f 1/18/3 9/19/3 6/16/3
f 1/18/3 10/20/3 9/19/3
f 10/20/3 1/18/3 11/21/3
f 11/21/3 1/18/3 4/17/3
f 4/17/3 12/22/3 11/21/3
f 12/22/3 4/17/3 8/23/3
f 12/22/3 8/23/3 6/16/3
f 12/22/3 6/16/3 9/19/3
f 16/24/4 17/25/4 12/26/4
f 9/27/2 21/28/2 13/29/2
f 25/30/1 26/31/1 10/32/1
f 22/33/5 12/34/5 20/35/5
f 22/36/6 19/37/6 23/38/6
f 24/39/2 19/40/2 18/41/2
f 15/42/5 28/43/5 27/44/5
f 13/45/6 28/46/6 14/47/6
f 2/1/1 3/48/1 4/2/1
f 2/4/2 1/49/2 6/5/2
f 2/7/3 5/50/3 7/8/3
f 7/10/4 5/51/4 6/11/4
f 7/13/5 8/52/5 4/14/5
f 6/16/3 8/23/3 4/17/3
f 9/53/4 13/54/4 16/24/4
f 13/54/4 14/55/4 15/56/4
f 15/56/4 16/24/4 13/54/4
f 19/57/4 20/58/4 18/59/4
f 20/58/4 12/26/4 17/25/4
f 18/59/4 20/58/4 17/25/4
f 9/53/4 16/24/4 12/26/4
f 9/27/2 10/60/2 21/28/2
f 11/61/1 22/62/1 25/30/1
f 22/62/1 23/63/1 24/64/1
f 24/64/1 25/30/1 22/62/1
f 28/65/1 21/66/1 27/67/1
f 21/66/1 10/32/1 26/31/1
f 27/67/1 21/66/1 26/31/1
f 11/61/1 25/30/1 10/32/1
f 22/33/5 11/68/5 12/34/5
f 22/36/6 20/69/6 19/37/6
f 24/39/2 23/70/2 19/40/2
f 15/42/5 14/71/5 28/43/5
f 13/45/6 21/72/6 28/46/6
f 18/73/6 27/74/6 24/75/6
f 17/25/4 15/56/4 18/59/4
f 25/30/1 27/67/1 26/31/1
f 18/73/6 15/76/6 27/74/6
f 17/25/4 16/24/4 15/56/4
f 25/30/1 24/64/1 27/67/1
