# Blender v2.92.0 OBJ File: 'OGConvert.blend'
# www.blender.org
o roadTile_244
v 24.000000 0.000000 -6.000000
v 24.000000 0.000001 -18.000000
v 24.000000 3.640001 -18.000000
v 24.000000 3.640000 -6.000000
v 3.000000 0.000000 -0.000000
v 0.000000 0.000000 0.000000
v 0.000000 0.000001 -24.000000
v 3.000000 0.000001 -24.000000
v 6.000000 0.000001 -24.000000
v 18.000000 0.000001 -24.000000
v 21.000000 0.000001 -24.000000
v 24.000000 0.000001 -24.000000
v 24.000000 0.000001 -21.000000
v 24.000000 0.000000 -3.000000
v 24.000000 0.000000 -0.000000
v 21.000000 0.000000 -0.000000
v 18.000000 0.000000 -0.000000
v 6.000000 0.000000 -0.000000
v 3.000000 4.400000 0.000000
v 0.000000 4.400000 0.000000
v 3.000000 5.040000 0.000000
v 6.000000 3.640000 0.000000
v 6.000000 5.040000 0.000000
v 3.000000 4.400001 -24.000000
v 3.000000 5.040001 -24.000000
v 0.000000 4.400001 -24.000000
v 6.000000 5.040001 -24.000000
v 6.000000 3.640001 -24.000000
v 23.216881 3.640000 -5.948672
v 23.216881 3.640001 -18.051359
v 22.447121 3.640001 -18.204479
v 21.703920 3.640001 -18.456720
v 21.000000 3.640001 -18.803841
v 20.347441 3.640001 -19.239840
v 19.757360 3.640001 -19.757360
v 19.239840 3.640001 -20.347441
v 18.803841 3.640001 -21.000000
v 18.456720 3.640001 -21.703920
v 18.204479 3.640001 -22.447121
v 18.051359 3.640001 -23.216881
v 18.000000 3.640001 -24.000000
v 18.000000 3.640000 0.000000
v 18.051359 3.640000 -0.783157
v 18.204479 3.640000 -1.552912
v 18.456720 3.640000 -2.296104
v 18.803841 3.640000 -3.000000
v 19.239840 3.640000 -3.652568
v 19.757360 3.640000 -4.242640
v 20.347441 3.640000 -4.760120
v 21.000000 3.640000 -5.196152
v 21.703920 3.640000 -5.543280
v 22.447121 3.640000 -5.795552
v 23.216881 5.040000 -5.948672
v 24.000000 5.040000 -6.000000
v 22.447121 5.040000 -5.795552
v 21.703920 5.040000 -5.543280
v 21.000000 5.040000 -5.196152
v 20.347441 5.040000 -4.760120
v 19.757360 5.040000 -4.242640
v 19.239840 5.040000 -3.652568
v 18.803841 5.040000 -3.000000
v 18.456720 5.040000 -2.296104
v 18.204479 5.040000 -1.552912
v 18.051359 5.040000 -0.783157
v 18.000000 5.040000 0.000000
v 21.000000 4.400000 0.000000
v 21.000000 5.040000 0.000000
v 24.000000 4.400000 0.000000
v 24.000000 4.400000 -3.000000
v 23.608400 4.400000 -2.974336
v 23.223520 4.400000 -2.897776
v 22.851919 4.400000 -2.771640
v 22.500000 4.400000 -2.598080
v 22.173679 4.400000 -2.380064
v 21.878639 4.400000 -2.121320
v 21.619921 4.400000 -1.826288
v 21.401920 4.400000 -1.500000
v 21.228399 4.400000 -1.148048
v 21.102240 4.400000 -0.776457
v 21.025681 4.400000 -0.391578
v 24.000000 5.040000 -3.000000
v 23.608400 5.040000 -2.974336
v 21.025681 5.040000 -0.391578
v 21.102240 5.040000 -0.776457
v 21.228399 5.040000 -1.148048
v 21.401920 5.040000 -1.500000
v 21.619921 5.040000 -1.826288
v 21.878639 5.040000 -2.121320
v 22.173679 5.040000 -2.380064
v 22.500000 5.040000 -2.598080
v 22.851919 5.040000 -2.771640
v 23.223520 5.040000 -2.897776
v 24.000000 5.040001 -18.000000
v 23.216881 5.040001 -18.051359
v 24.000000 4.400001 -21.000000
v 24.000000 5.040001 -21.000000
v 24.000000 4.400001 -24.000000
v 21.000000 4.400001 -24.000000
v 21.025681 4.400001 -23.608400
v 21.102240 4.400001 -23.223520
v 21.228399 4.400001 -22.851919
v 21.401920 4.400001 -22.500000
v 21.619921 4.400001 -22.173679
v 21.878639 4.400001 -21.878639
v 22.173679 4.400001 -21.619921
v 22.500000 4.400001 -21.401920
v 22.851919 4.400001 -21.228399
v 23.223520 4.400001 -21.102240
v 23.608400 4.400001 -21.025681
v 21.000000 5.040001 -24.000000
v 18.000000 5.040001 -24.000000
v 21.025681 5.040001 -23.608400
v 23.608400 5.040001 -21.025681
v 23.223520 5.040001 -21.102240
v 22.851919 5.040001 -21.228399
v 22.500000 5.040001 -21.401920
v 22.173679 5.040001 -21.619921
v 21.878639 5.040001 -21.878639
v 21.619921 5.040001 -22.173679
v 21.401920 5.040001 -22.500000
v 21.228399 5.040001 -22.851919
v 21.102240 5.040001 -23.223520
v 18.051359 5.040001 -23.216881
v 18.204479 5.040001 -22.447121
v 18.456720 5.040001 -21.703920
v 18.803841 5.040001 -21.000000
v 19.239840 5.040001 -20.347441
v 19.757360 5.040001 -19.757360
v 20.347441 5.040001 -19.239840
v 21.000000 5.040001 -18.803841
v 21.703920 5.040001 -18.456720
v 22.447121 5.040001 -18.204479
vt 0.983253 0.371042
vt 0.908333 0.125689
vt 0.983253 0.125689
vt 0.622297 0.034974
vt 0.625449 0.019130
vt 0.873494 0.003012
vt 0.003012 0.625563
vt 0.077932 0.870664
vt 0.003012 0.870664
vt 0.983253 0.867395
vt 0.908333 0.622293
vt 0.983253 0.622293
vt 0.908333 0.371042
vt 0.519130 0.374551
vt 0.503012 0.373494
vt 0.503012 0.126506
vt 0.519130 0.125449
vt 0.534974 0.377702
vt 0.534974 0.122297
vt 0.550271 0.382895
vt 0.550271 0.117106
vt 0.564759 0.390039
vt 0.564759 0.109961
vt 0.578190 0.399014
vt 0.578190 0.100987
vt 0.590335 0.409665
vt 0.590335 0.090335
vt 0.600987 0.421810
vt 0.600987 0.078190
vt 0.609961 0.435241
vt 0.873494 0.496988
vt 0.609961 0.064759
vt 0.617105 0.449729
vt 0.617105 0.050271
vt 0.622297 0.465026
vt 0.626506 0.496988
vt 0.625449 0.480869
vt 0.626506 0.003012
vt 0.077932 0.625563
vt 0.908333 0.867395
vt 0.373494 0.003012
vt 0.435241 0.003012
vt 0.496988 0.064759
vt 0.003012 0.931940
vt 0.093574 0.993215
vt 0.003012 0.993215
vt 0.277128 0.996988
vt 0.338874 0.503012
vt 0.338875 0.996988
vt 0.892691 0.928671
vt 0.983253 0.989946
vt 0.892691 0.989946
vt 0.093574 0.564287
vt 0.003012 0.503012
vt 0.093574 0.503012
vt 0.425503 0.866457
vt 0.433425 0.864882
vt 0.441484 0.926100
vt 0.983253 0.064350
vt 0.892691 0.003012
vt 0.983253 0.003012
vt 0.892691 0.432381
vt 0.983253 0.493719
vt 0.892691 0.493719
vt 0.857512 0.505116
vt 0.865434 0.503540
vt 0.873494 0.564759
vt 0.983253 0.561018
vt 0.892691 0.499743
vt 0.983253 0.499743
vt 0.203333 0.990753
vt 0.112771 0.503012
vt 0.203333 0.503012
vt 0.496988 0.373494
vt 0.496988 0.435241
vt 0.003012 0.373494
vt 0.496988 0.496988
vt 0.003012 0.435241
vt 0.003012 0.496988
vt 0.003012 0.126506
vt 0.003012 0.064759
vt 0.126506 0.003012
vt 0.496988 0.126506
vt 0.003012 0.003012
vt 0.064759 0.003012
vt 0.496988 0.003012
vt 0.093574 0.931940
vt 0.277127 0.503012
vt 0.983253 0.928671
vt 0.003012 0.564287
vt 0.441484 0.864353
vt 0.379737 0.926100
vt 0.380265 0.918040
vt 0.381841 0.910118
vt 0.384437 0.902470
vt 0.388010 0.895226
vt 0.392497 0.888510
vt 0.397822 0.882437
vt 0.403895 0.877112
vt 0.410611 0.872626
vt 0.417855 0.869054
vt 0.892691 0.064350
vt 0.983253 0.432381
vt 0.873494 0.503012
vt 0.811747 0.564759
vt 0.812276 0.556699
vt 0.813852 0.548777
vt 0.816448 0.541129
vt 0.820020 0.533885
vt 0.824507 0.527169
vt 0.829832 0.521096
vt 0.835904 0.515771
vt 0.842621 0.511284
vt 0.849864 0.507713
vt 0.892691 0.561018
vt 0.112771 0.990753
vt 0.106747 0.870664
vt 0.478766 0.990753
vt 0.465593 0.503012
vt 0.478766 0.503012
vt 0.879518 0.867395
vt 0.271104 0.503012
vt 0.209357 0.996988
vt 0.209357 0.503012
vt 0.373714 0.503012
vt 0.344898 0.993719
vt 0.344898 0.503012
vt 0.742069 0.519137
vt 0.770885 0.503012
vt 0.770885 0.519137
vt 0.742069 0.535249
vt 0.770885 0.535249
vt 0.742069 0.551069
vt 0.770885 0.551069
vt 0.742069 0.566328
vt 0.770885 0.566328
vt 0.742069 0.580764
vt 0.770885 0.580764
vt 0.742069 0.594130
vt 0.770885 0.594130
vt 0.742069 0.606199
vt 0.770885 0.606199
vt 0.672391 0.514852
vt 0.701207 0.503012
vt 0.701207 0.514852
vt 0.672391 0.528026
vt 0.701207 0.528026
vt 0.672391 0.542307
vt 0.701207 0.542307
vt 0.672391 0.557451
vt 0.701207 0.557451
vt 0.672391 0.573200
vt 0.701207 0.573200
vt 0.106747 0.625563
vt 0.879518 0.125689
vt 0.653195 0.503012
vt 0.666368 0.511075
vt 0.653195 0.511075
vt 0.443588 0.574354
vt 0.442012 0.582276
vt 0.383945 0.558373
vt 0.614802 0.530941
vt 0.627975 0.538887
vt 0.614802 0.538887
vt 0.614802 0.523253
vt 0.627975 0.530941
vt 0.614802 0.515954
vt 0.627975 0.523253
vt 0.614802 0.509168
vt 0.627975 0.515954
vt 0.614802 0.503012
vt 0.627975 0.509168
vt 0.653195 0.548572
vt 0.666368 0.554605
vt 0.653195 0.554605
vt 0.653195 0.541889
vt 0.666368 0.548572
vt 0.653195 0.534670
vt 0.666368 0.541889
vt 0.653195 0.527041
vt 0.666368 0.534670
vt 0.653195 0.519131
vt 0.666368 0.527041
vt 0.666368 0.519131
vt 0.736046 0.503012
vt 0.707230 0.518877
vt 0.707230 0.503012
vt 0.879518 0.371042
vt 0.879518 0.622293
vt 0.633999 0.503012
vt 0.647171 0.511079
vt 0.633999 0.511079
vt 0.443588 0.755025
vt 0.442012 0.762947
vt 0.383945 0.739043
vt 0.608779 0.510945
vt 0.595606 0.503012
vt 0.608779 0.503012
vt 0.608779 0.518612
vt 0.595606 0.510945
vt 0.608779 0.525882
vt 0.595606 0.518612
vt 0.608779 0.532629
vt 0.595606 0.525882
vt 0.608779 0.538741
vt 0.595606 0.532629
vt 0.633999 0.548463
vt 0.647171 0.554450
vt 0.633999 0.554450
vt 0.633999 0.541818
vt 0.647171 0.548463
vt 0.633999 0.534631
vt 0.647171 0.541818
vt 0.633999 0.527025
vt 0.647171 0.534631
vt 0.633999 0.519130
vt 0.647171 0.527025
vt 0.647171 0.519130
vt 0.776908 0.519094
vt 0.805724 0.503012
vt 0.805724 0.519094
vt 0.776908 0.535237
vt 0.805724 0.535237
vt 0.776908 0.551163
vt 0.805724 0.551163
vt 0.776908 0.566600
vt 0.805724 0.566600
vt 0.776908 0.581283
vt 0.805723 0.581283
vt 0.776908 0.594962
vt 0.805723 0.594962
vt 0.776908 0.607403
vt 0.805723 0.607403
vt 0.736046 0.562246
vt 0.707230 0.574468
vt 0.707230 0.562246
vt 0.736046 0.548750
vt 0.707230 0.548750
vt 0.736046 0.534210
vt 0.707230 0.534210
vt 0.736046 0.518877
vt 0.106747 0.931940
vt 0.465593 0.990753
vt 0.879518 0.928671
vt 0.271104 0.996988
vt 0.373713 0.993719
vt 0.742069 0.503012
vt 0.672391 0.503012
vt 0.106747 0.564287
vt 0.879518 0.064350
vt 0.666368 0.503012
vt 0.405257 0.515157
vt 0.415908 0.503012
vt 0.459569 0.546674
vt 0.454244 0.552746
vt 0.389138 0.543076
vt 0.396283 0.528589
vt 0.449757 0.559462
vt 0.380793 0.574216
vt 0.441484 0.590335
vt 0.380794 0.606455
vt 0.379737 0.590335
vt 0.442012 0.598395
vt 0.443588 0.606317
vt 0.389138 0.637595
vt 0.383945 0.622298
vt 0.446184 0.613965
vt 0.405257 0.665514
vt 0.396283 0.652083
vt 0.449756 0.621209
vt 0.459569 0.633997
vt 0.415908 0.677659
vt 0.454244 0.627924
vt 0.446185 0.566706
vt 0.627975 0.503012
vt 0.879518 0.432381
vt 0.879518 0.561018
vt 0.647171 0.503012
vt 0.405258 0.695827
vt 0.415908 0.683683
vt 0.459570 0.727344
vt 0.454244 0.733417
vt 0.389138 0.723747
vt 0.396283 0.709259
vt 0.449757 0.740133
vt 0.380793 0.754886
vt 0.441483 0.771006
vt 0.380793 0.787126
vt 0.379737 0.771006
vt 0.442012 0.779065
vt 0.443588 0.786987
vt 0.389138 0.818266
vt 0.383945 0.802969
vt 0.446185 0.794635
vt 0.405258 0.846185
vt 0.396283 0.832753
vt 0.449757 0.801879
vt 0.459570 0.814668
vt 0.415908 0.858330
vt 0.454244 0.808595
vt 0.446185 0.747378
vt 0.595606 0.538741
vt 0.776908 0.503012
vt 0.736046 0.574468
vn 1.0000 0.0000 0.0000
vn 0.0000 1.0000 0.0000
vn -0.0000 -0.0000 1.0000
vn 0.0000 0.0000 -1.0000
vn -0.0000 -1.0000 -0.0000
vn -1.0000 0.0000 -0.0000
vn -0.1305 0.0000 -0.9914
vn -0.0654 0.0000 -0.9979
vn -0.2588 0.0000 -0.9659
vn -0.3827 0.0000 -0.9239
vn -0.5000 0.0000 -0.8660
vn -0.6088 0.0000 -0.7934
vn -0.7071 0.0000 -0.7071
vn -0.7934 0.0000 -0.6088
vn -0.8660 0.0000 -0.5000
vn -0.9239 0.0000 -0.3827
vn -0.9659 -0.0000 -0.2588
vn -0.9914 -0.0000 -0.1305
vn -0.9979 0.0000 -0.0654
vn 0.0654 0.0000 0.9979
vn 0.1305 0.0000 0.9914
vn 0.9914 0.0000 0.1305
vn 0.9979 -0.0000 0.0654
vn 0.9659 0.0000 0.2588
vn 0.9239 -0.0000 0.3827
vn 0.8661 0.0000 0.4999
vn 0.7934 0.0000 0.6087
vn 0.7071 0.0000 0.7071
vn 0.6087 0.0000 0.7934
vn 0.5000 0.0000 0.8660
vn 0.3827 0.0000 0.9239
vn 0.2588 0.0000 0.9659
vn -0.0654 0.0000 0.9979
vn -0.1305 0.0000 0.9914
vn 0.9979 0.0000 -0.0654
vn 0.9914 0.0000 -0.1305
vn 0.1305 0.0000 -0.9914
vn 0.0654 0.0000 -0.9979
vn 0.2588 0.0000 -0.9659
vn 0.3827 0.0000 -0.9239
vn 0.4999 0.0000 -0.8661
vn 0.6087 0.0000 -0.7934
vn 0.7071 0.0000 -0.7071
vn 0.7934 0.0000 -0.6087
vn 0.8661 0.0000 -0.4999
vn 0.9239 0.0000 -0.3827
vn 0.9659 0.0000 -0.2588
vn -0.9914 0.0000 0.1305
vn -0.9979 0.0000 0.0654
vn -0.9659 0.0000 0.2588
vn -0.9239 0.0000 0.3827
vn -0.8660 0.0000 0.5000
vn -0.7934 0.0000 0.6088
vn -0.7071 0.0000 0.7071
vn -0.6088 0.0000 0.7934
vn -0.5000 0.0000 0.8660
vn -0.3827 0.0000 0.9239
vn -0.2588 0.0000 0.9659
s 1
f 2/1/1 4/2/1 1/3/1
f 39/4/2 40/5/2 28/6/2
f 17/7/3 22/8/3 18/9/3
f 9/10/4 41/11/4 10/12/4
f 2/1/1 3/13/1 4/2/1
f 29/14/2 4/15/2 3/16/2
f 29/14/2 3/16/2 30/17/2
f 52/18/2 29/14/2 30/17/2
f 52/18/2 30/17/2 31/19/2
f 51/20/2 52/18/2 32/21/2
f 52/18/2 31/19/2 32/21/2
f 50/22/2 51/20/2 33/23/2
f 51/20/2 32/21/2 33/23/2
f 49/24/2 50/22/2 34/25/2
f 50/22/2 33/23/2 34/25/2
f 48/26/2 49/24/2 34/25/2
f 48/26/2 34/25/2 35/27/2
f 47/28/2 48/26/2 35/27/2
f 47/28/2 35/27/2 36/29/2
f 46/30/2 47/28/2 22/31/2
f 47/28/2 36/29/2 28/6/2
f 47/28/2 28/6/2 22/31/2
f 36/29/2 37/32/2 28/6/2
f 45/33/2 46/30/2 22/31/2
f 37/32/2 38/34/2 28/6/2
f 44/35/2 45/33/2 22/31/2
f 38/34/2 39/4/2 28/6/2
f 22/31/2 42/36/2 43/37/2
f 43/37/2 44/35/2 22/31/2
f 40/5/2 41/38/2 28/6/2
f 17/7/3 42/39/3 22/8/3
f 9/10/4 28/40/4 41/11/4
f 1/41/5 14/42/5 16/43/5
f 5/44/3 20/45/3 6/46/3
f 19/47/2 26/48/2 20/49/2
f 24/50/4 7/51/4 26/52/4
f 66/53/3 15/54/3 68/55/3
f 79/56/2 80/57/2 68/58/2
f 14/59/1 68/60/1 15/61/1
f 95/62/1 12/63/1 97/64/1
f 108/65/2 109/66/2 97/67/2
f 11/68/4 97/69/4 12/70/4
f 6/71/6 26/72/6 7/73/6
f 18/74/5 5/75/5 9/76/5
f 5/75/5 6/77/5 8/78/5
f 9/76/5 5/75/5 8/78/5
f 6/77/5 7/79/5 8/78/5
f 9/76/5 10/80/5 18/74/5
f 10/80/5 11/81/5 2/82/5
f 18/74/5 10/80/5 17/83/5
f 11/81/5 12/84/5 13/85/5
f 17/83/5 10/80/5 1/41/5
f 15/86/5 16/43/5 14/42/5
f 16/43/5 17/83/5 1/41/5
f 1/41/5 10/80/5 2/82/5
f 11/81/5 13/85/5 2/82/5
f 5/44/3 19/87/3 20/45/3
f 19/47/2 24/88/2 26/48/2
f 24/50/4 8/89/4 7/51/4
f 66/53/3 16/90/3 15/54/3
f 66/91/2 68/58/2 80/57/2
f 68/58/2 69/92/2 70/93/2
f 71/94/2 68/58/2 70/93/2
f 71/94/2 72/95/2 68/58/2
f 72/95/2 73/96/2 68/58/2
f 73/96/2 74/97/2 68/58/2
f 74/97/2 75/98/2 68/58/2
f 75/98/2 76/99/2 68/58/2
f 76/99/2 77/100/2 68/58/2
f 77/100/2 78/101/2 68/58/2
f 78/101/2 79/56/2 68/58/2
f 14/59/1 69/102/1 68/60/1
f 95/62/1 13/103/1 12/63/1
f 95/104/2 97/67/2 109/66/2
f 97/67/2 98/105/2 99/106/2
f 100/107/2 97/67/2 99/106/2
f 100/107/2 101/108/2 97/67/2
f 101/108/2 102/109/2 97/67/2
f 102/109/2 103/110/2 97/67/2
f 103/110/2 104/111/2 97/67/2
f 104/111/2 105/112/2 97/67/2
f 105/112/2 106/113/2 97/67/2
f 106/113/2 107/114/2 97/67/2
f 107/114/2 108/65/2 97/67/2
f 11/68/4 98/115/4 97/69/4
f 6/71/6 20/116/6 26/72/6
f 22/8/3 23/117/3 19/87/3
f 19/118/6 25/119/6 24/120/6
f 24/50/4 27/121/4 28/40/4
f 25/122/2 23/123/2 27/124/2
f 27/125/1 22/126/1 28/127/1
f 53/128/7 4/129/8 29/130/7
f 55/131/9 29/130/7 52/132/9
f 56/133/10 52/132/9 51/134/10
f 57/135/11 51/134/10 50/136/11
f 58/137/12 50/136/11 49/138/12
f 59/139/13 49/138/12 48/140/13
f 60/141/14 48/140/13 47/142/14
f 61/143/15 47/144/14 46/145/15
f 62/146/16 46/145/15 45/147/16
f 63/148/17 45/147/16 44/149/17
f 64/150/18 44/149/17 43/151/18
f 65/152/19 43/151/18 42/153/19
f 66/53/3 65/154/3 42/39/3
f 4/2/1 54/155/1 69/102/1
f 69/156/20 82/157/21 70/158/21
f 86/159/2 87/160/2 61/161/2
f 80/162/22 67/163/23 66/164/23
f 79/165/24 83/166/22 80/162/22
f 78/167/25 84/168/24 79/165/24
f 77/169/26 85/170/25 78/167/25
f 76/171/27 86/172/26 77/169/26
f 75/173/28 87/174/27 76/175/27
f 74/176/29 88/177/28 75/173/28
f 73/178/30 89/179/29 74/176/29
f 72/180/31 90/181/30 73/178/30
f 71/182/32 91/183/31 72/180/31
f 70/158/21 92/184/32 71/182/32
f 93/185/33 30/186/34 3/187/33
f 95/62/1 93/188/1 3/13/1
f 41/11/4 111/189/4 98/115/4
f 98/190/35 112/191/36 99/192/36
f 116/193/2 117/194/2 130/195/2
f 109/196/37 96/197/38 95/198/38
f 108/199/39 113/200/37 109/196/37
f 107/201/40 114/202/39 108/199/39
f 106/203/41 115/204/40 107/201/40
f 105/205/42 116/206/41 106/203/41
f 104/207/43 117/208/42 105/209/42
f 103/210/44 118/211/43 104/207/43
f 102/212/45 119/213/44 103/210/44
f 101/214/46 120/215/45 102/212/45
f 100/216/47 121/217/46 101/214/46
f 99/192/36 122/218/47 100/216/47
f 123/219/48 41/220/49 40/221/48
f 124/222/50 40/221/48 39/223/50
f 125/224/51 39/223/50 38/225/51
f 126/226/52 38/225/51 37/227/52
f 127/228/53 37/227/52 36/229/53
f 128/230/54 36/229/53 35/231/54
f 129/232/55 35/231/54 34/233/55
f 130/234/56 34/235/55 33/236/56
f 131/237/57 33/236/56 32/238/57
f 132/239/58 32/238/57 31/240/58
f 94/241/34 31/240/58 30/186/34
f 23/117/3 21/242/3 19/87/3
f 19/87/3 5/44/3 22/8/3
f 5/44/3 18/9/3 22/8/3
f 19/118/6 21/243/6 25/119/6
f 28/40/4 9/10/4 8/89/4
f 24/50/4 25/244/4 27/121/4
f 28/40/4 8/89/4 24/50/4
f 25/122/2 21/245/2 23/123/2
f 27/125/1 23/246/1 22/126/1
f 53/128/7 54/247/8 4/129/8
f 55/131/9 53/128/7 29/130/7
f 56/133/10 55/131/9 52/132/9
f 57/135/11 56/133/10 51/134/10
f 58/137/12 57/135/11 50/136/11
f 59/139/13 58/137/12 49/138/12
f 60/141/14 59/139/13 48/140/13
f 61/143/15 60/248/14 47/144/14
f 62/146/16 61/143/15 46/145/15
f 63/148/17 62/146/16 45/147/16
f 64/150/18 63/148/17 44/149/17
f 65/152/19 64/150/18 43/151/18
f 42/39/3 17/7/3 16/90/3
f 66/53/3 67/249/3 65/154/3
f 42/39/3 16/90/3 66/53/3
f 54/155/1 81/250/1 69/102/1
f 69/102/1 14/59/1 4/2/1
f 14/59/1 1/3/1 4/2/1
f 69/156/20 81/251/20 82/157/21
f 64/252/2 65/253/2 67/254/2
f 64/252/2 67/254/2 83/255/2
f 62/256/2 63/257/2 84/258/2
f 63/257/2 64/252/2 83/255/2
f 60/259/2 61/161/2 87/160/2
f 61/161/2 62/256/2 86/159/2
f 60/259/2 87/160/2 88/260/2
f 58/261/2 59/262/2 89/263/2
f 59/262/2 60/259/2 88/260/2
f 58/261/2 89/263/2 90/264/2
f 56/265/2 57/266/2 91/267/2
f 57/266/2 58/261/2 90/264/2
f 91/267/2 57/266/2 90/264/2
f 53/268/2 55/269/2 92/270/2
f 55/269/2 56/265/2 91/267/2
f 81/271/2 54/272/2 53/268/2
f 82/273/2 81/271/2 53/268/2
f 55/269/2 91/267/2 92/270/2
f 63/257/2 83/255/2 84/258/2
f 92/270/2 82/273/2 53/268/2
f 62/256/2 84/258/2 85/274/2
f 62/256/2 85/274/2 86/159/2
f 89/263/2 59/262/2 88/260/2
f 80/162/22 83/166/22 67/163/23
f 79/165/24 84/168/24 83/166/22
f 78/167/25 85/170/25 84/168/24
f 77/169/26 86/172/26 85/170/25
f 76/171/27 87/275/27 86/172/26
f 75/173/28 88/177/28 87/174/27
f 74/176/29 89/179/29 88/177/28
f 73/178/30 90/181/30 89/179/29
f 72/180/31 91/183/31 90/181/30
f 71/182/32 92/184/32 91/183/31
f 70/158/21 82/157/21 92/184/32
f 93/185/33 94/241/34 30/186/34
f 3/13/1 2/1/1 13/103/1
f 95/62/1 96/276/1 93/188/1
f 3/13/1 13/103/1 95/62/1
f 111/189/4 110/277/4 98/115/4
f 98/115/4 11/68/4 41/11/4
f 11/68/4 10/12/4 41/11/4
f 98/190/35 110/278/35 112/191/36
f 94/279/2 93/280/2 96/281/2
f 94/279/2 96/281/2 113/282/2
f 131/283/2 132/284/2 114/285/2
f 132/284/2 94/279/2 113/282/2
f 129/286/2 130/195/2 117/194/2
f 130/195/2 131/283/2 116/193/2
f 129/286/2 117/194/2 118/287/2
f 127/288/2 128/289/2 119/290/2
f 128/289/2 129/286/2 118/287/2
f 127/288/2 119/290/2 120/291/2
f 125/292/2 126/293/2 121/294/2
f 126/293/2 127/288/2 120/291/2
f 121/294/2 126/293/2 120/291/2
f 123/295/2 124/296/2 122/297/2
f 124/296/2 125/292/2 121/294/2
f 110/298/2 111/299/2 123/295/2
f 112/300/2 110/298/2 123/295/2
f 124/296/2 121/294/2 122/297/2
f 132/284/2 113/282/2 114/285/2
f 122/297/2 112/300/2 123/295/2
f 131/283/2 114/285/2 115/301/2
f 131/283/2 115/301/2 116/193/2
f 119/290/2 128/289/2 118/287/2
f 109/196/37 113/200/37 96/197/38
f 108/199/39 114/202/39 113/200/37
f 107/201/40 115/204/40 114/202/39
f 106/203/41 116/206/41 115/204/40
f 105/205/42 117/302/42 116/206/41
f 104/207/43 118/211/43 117/208/42
f 103/210/44 119/213/44 118/211/43
f 102/212/45 120/215/45 119/213/44
f 101/214/46 121/217/46 120/215/45
f 100/216/47 122/218/47 121/217/46
f 99/192/36 112/191/36 122/218/47
f 123/219/48 111/303/49 41/220/49
f 124/222/50 123/219/48 40/221/48
f 125/224/51 124/222/50 39/223/50
f 126/226/52 125/224/51 38/225/51
f 127/228/53 126/226/52 37/227/52
f 128/230/54 127/228/53 36/229/53
f 129/232/55 128/230/54 35/231/54
f 130/234/56 129/304/55 34/235/55
f 131/237/57 130/234/56 33/236/56
f 132/239/58 131/237/57 32/238/57
f 94/241/34 132/239/58 31/240/58
