# Blender v2.92.0 OBJ File: 'kenney_OGConvert.blend'
# www.blender.org
o roadTile_023
v 3.000000 0.455000 -2.250000
v 2.250000 0.455000 -2.437500
v 0.750000 0.455000 -2.062500
v -0.000000 0.455000 -2.250000
v -0.000000 0.455000 -0.750000
v 0.750000 0.455000 -0.562500
v 2.250000 0.455000 -0.937500
v 3.000000 0.455000 -0.750000
v 3.000000 0.550000 -2.250000
v 2.250000 0.550000 -2.437500
v -0.000001 0.550000 -3.000000
v -0.000000 0.550000 -2.250000
v 0.750000 0.550000 -2.062500
v 3.000000 0.550000 -3.000000
v 0.000000 0.550000 0.000000
v -0.000000 0.550000 -0.750000
v -0.000000 0.275000 -0.750000
v -0.000000 0.275000 -2.250000
v -0.000001 0.000000 -3.000000
v 0.000000 0.000000 -0.000000
v 3.000000 0.550000 -0.750000
v 2.250000 0.550000 -0.937500
v 0.750000 0.550000 -0.562500
v 3.000000 0.550000 -0.000001
v 3.000000 0.275000 -2.250000
v 3.000000 0.275000 -0.750001
v 3.000000 0.000000 -0.000001
v 3.000000 0.000000 -3.000000
vt 0.790260 0.123231
vt 0.749145 0.375059
vt 0.543571 0.143789
vt 0.975393 0.371144
vt 0.991070 0.496594
vt 0.975393 0.496594
vt 0.970479 0.496594
vt 0.954801 0.371144
vt 0.970479 0.371144
vt 0.332852 0.626228
vt 0.303147 0.873772
vt 0.303147 0.626228
vt 0.954801 0.127906
vt 0.970479 0.127906
vt 0.954801 0.002457
vt 0.970479 0.002457
vt 0.177763 0.873772
vt 0.207468 0.626228
vt 0.207468 0.873772
vt 0.975393 0.002457
vt 0.991070 0.127906
vt 0.975393 0.127906
vt 0.991070 0.371144
vt 0.790260 0.495833
vt 0.543571 0.516390
vt 0.502457 0.395616
vt 0.502457 0.023014
vt 0.749145 0.002457
vt 0.954801 0.496594
vt 0.332852 0.873772
vt 0.177763 0.626228
vt 0.991070 0.002457
vt 0.888002 0.373772
vt 0.918945 0.497543
vt 0.795173 0.497543
vt 0.252851 0.502457
vt 0.252851 0.997543
vt 0.095285 0.873772
vt 0.002457 0.997543
vt 0.002457 0.502457
vt 0.257764 0.997543
vt 0.257764 0.502457
vt 0.444210 0.502457
vt 0.353444 0.996594
vt 0.353444 0.502457
vt 0.497543 0.497543
vt 0.002457 0.002457
vt 0.497543 0.002457
vt 0.795173 0.996594
vt 0.885939 0.502457
vt 0.885939 0.996594
vt 0.795173 0.002457
vt 0.918945 0.002457
vt 0.949888 0.126228
vt 0.162085 0.997543
vt 0.162085 0.873772
vt 0.162085 0.626228
vt 0.162085 0.502457
vt 0.126228 0.502457
vt 0.157171 0.626228
vt 0.126228 0.997543
vt 0.348530 0.502457
vt 0.348530 0.626228
vt 0.348530 0.873772
vt 0.348530 0.997543
vt 0.444210 0.996594
vt 0.002457 0.497543
vt 0.795173 0.502457
vn 0.0000 1.0000 0.0000
vn -0.2425 0.0000 0.9701
vn 0.2425 0.0000 -0.9701
vn 1.0000 0.0000 -0.0000
vn -0.2425 0.0000 -0.9701
vn -1.0000 0.0000 0.0000
vn 0.2425 0.0000 0.9701
vn 0.0000 -0.0000 1.0000
vn -0.0000 -1.0000 -0.0000
vn -0.0000 0.0000 -1.0000
s 1
f 6/1/1 7/2/1 3/3/1
f 10/4/2 1/5/2 9/6/2
f 21/7/3 7/8/3 22/9/3
f 1/10/4 26/11/4 25/12/4
f 22/9/5 6/13/5 23/14/5
f 23/14/3 5/15/3 16/16/3
f 5/17/6 18/18/6 17/19/6
f 12/20/2 3/21/2 13/22/2
f 13/22/7 2/23/7 10/4/7
f 8/24/1 1/25/1 7/2/1
f 1/25/1 2/26/1 7/2/1
f 3/3/1 4/27/1 5/28/1
f 2/26/1 3/3/1 7/2/1
f 5/28/1 6/1/1 3/3/1
f 10/4/2 2/23/2 1/5/2
f 21/7/3 8/29/3 7/8/3
f 1/10/4 8/30/4 26/11/4
f 22/9/5 7/8/5 6/13/5
f 23/14/3 6/13/3 5/15/3
f 5/17/6 4/31/6 18/18/6
f 12/20/2 4/32/2 3/21/2
f 13/22/7 3/21/7 2/23/7
f 10/33/1 9/34/1 14/35/1
f 18/18/6 19/36/6 20/37/6
f 23/38/1 15/39/1 24/40/1
f 26/11/4 27/41/4 28/42/4
f 20/43/8 24/44/8 15/45/8
f 20/46/9 28/47/9 27/48/9
f 28/49/10 11/50/10 14/51/10
f 14/35/1 11/52/1 10/33/1
f 11/52/1 12/53/1 13/54/1
f 10/33/1 11/52/1 13/54/1
f 20/37/6 15/55/6 17/19/6
f 15/55/6 16/56/6 5/17/6
f 5/17/6 17/19/6 15/55/6
f 12/57/6 11/58/6 4/31/6
f 11/58/6 19/36/6 18/18/6
f 4/31/6 11/58/6 18/18/6
f 20/37/6 17/19/6 18/18/6
f 24/40/1 21/59/1 22/60/1
f 23/38/1 16/61/1 15/39/1
f 24/40/1 22/60/1 23/38/1
f 28/42/4 14/62/4 25/12/4
f 14/62/4 9/63/4 1/10/4
f 1/10/4 25/12/4 14/62/4
f 21/64/4 24/65/4 8/30/4
f 24/65/4 27/41/4 26/11/4
f 8/30/4 24/65/4 26/11/4
f 28/42/4 25/12/4 26/11/4
f 20/43/8 27/66/8 24/44/8
f 20/46/9 19/67/9 28/47/9
f 28/49/10 19/68/10 11/50/10
