# Blender v2.92.0 OBJ File: 'kenney_OGConvert.blend'
# www.blender.org
o roadTile_279
v 0.000000 0.630000 0.000000
v 0.000000 0.000000 -0.000000
v 3.000000 0.000000 -0.000001
v 3.000000 0.630000 -0.000000
v 2.250000 0.630000 -0.000000
v 0.750000 0.630000 -0.000000
v -0.000001 0.000000 -3.000000
v -0.000000 0.630000 -0.750000
v -0.000000 0.600000 -0.750000
v -0.000000 0.300000 -0.750000
v -0.000000 0.300000 -2.250000
v -0.000000 0.600000 -2.250000
v -0.000000 0.630000 -2.250000
v -0.000001 0.630000 -3.000000
v 3.000000 0.000000 -3.000000
v 3.000000 0.630000 -3.000000
v 0.749999 0.630000 -3.000000
v 2.250000 0.630000 -3.000000
v 3.000000 0.600000 -2.250000
v 3.000000 0.300000 -2.250000
v 3.000000 0.300000 -0.750001
v 3.000000 0.600000 -0.750000
v 3.000000 0.630000 -0.750000
v 3.000000 0.630000 -2.250000
v 2.250000 0.600000 -2.250000
v 0.750000 0.600000 -2.250000
v 0.750000 0.600000 -0.750000
v 2.250000 0.600000 -0.750000
v 2.250000 0.630000 -2.250000
v 0.750000 0.630000 -2.250000
v 0.750000 0.630000 -0.750000
v 2.250000 0.630000 -0.750000
vt 0.824685 0.126295
vt 0.824685 0.373705
vt 0.720772 0.497411
vt 0.606502 0.002589
vt 0.606502 0.497411
vt 0.557020 0.126295
vt 0.497411 0.497411
vt 0.002589 0.002589
vt 0.497411 0.002589
vt 0.933776 0.126295
vt 0.933776 0.373705
vt 0.829863 0.497411
vt 0.661163 0.373705
vt 0.611681 0.497411
vt 0.611681 0.002589
vt 0.002589 0.873705
vt 0.126295 0.626295
vt 0.126295 0.873705
vt 0.780612 0.502589
vt 0.785560 0.626295
vt 0.780612 0.626295
vt 0.765306 0.502589
vt 0.760358 0.626295
vt 0.760358 0.502589
vt 0.626295 0.502589
vt 0.502589 0.626295
vt 0.502589 0.502589
vt 0.760358 0.755179
vt 0.765306 0.631474
vt 0.765306 0.755179
vt 0.502589 0.631474
vt 0.626295 0.755179
vt 0.502589 0.755179
vt 0.780612 0.631474
vt 0.785560 0.755179
vt 0.780612 0.755179
vt 0.795687 0.626295
vt 0.790739 0.502589
vt 0.795687 0.502589
vt 0.631474 0.755179
vt 0.755179 0.631474
vt 0.755179 0.755179
vt 0.770485 0.631474
vt 0.775433 0.755179
vt 0.770485 0.755179
vt 0.373705 0.873705
vt 0.497411 0.626295
vt 0.497411 0.873705
vt 0.790739 0.755179
vt 0.795687 0.631474
vt 0.795687 0.755179
vt 0.755179 0.502589
vt 0.631474 0.626295
vt 0.631474 0.502589
vt 0.770485 0.502589
vt 0.775433 0.626295
vt 0.770485 0.626295
vt 0.824685 0.497411
vt 0.720772 0.002589
vt 0.824685 0.002589
vt 0.502590 0.497411
vt 0.557020 0.373705
vt 0.502590 0.373705
vt 0.507538 0.373705
vt 0.502589 0.126295
vt 0.502589 0.002589
vt 0.507538 0.126295
vt 0.002589 0.497411
vt 0.933776 0.497411
vt 0.829863 0.002589
vt 0.933776 0.002589
vt 0.715593 0.126295
vt 0.710645 0.126295
vt 0.715593 0.002589
vt 0.661163 0.126295
vt 0.710645 0.373705
vt 0.715593 0.497411
vt 0.715593 0.373705
vt 0.002589 0.626295
vt 0.765306 0.626295
vt 0.626295 0.626295
vt 0.626295 0.631474
vt 0.785560 0.631474
vt 0.790739 0.626295
vt 0.631474 0.631474
vt 0.373705 0.626295
vt 0.755179 0.626295
vt 0.775433 0.502589
vt 0.373705 0.502590
vt 0.126295 0.997411
vt 0.373705 0.997411
vt 0.126295 0.502589
vn 0.0000 -0.0000 1.0000
vn -1.0000 -0.0000 0.0000
vn -0.0000 -1.0000 -0.0000
vn -0.0000 0.0000 -1.0000
vn 1.0000 -0.0000 -0.0000
vn 0.0000 0.9992 0.0400
vn -0.0000 0.9998 0.0200
vn 0.0000 1.0000 0.0000
vn 0.0000 0.9998 -0.0200
vn -0.0000 0.9992 -0.0400
s 1
f 5/1/1 6/2/1 2/3/1
f 7/4/2 2/5/2 11/6/2
f 2/7/3 15/8/3 3/9/3
f 17/10/4 18/11/4 15/12/4
f 21/13/5 3/14/5 15/15/5
f 18/16/6 26/17/7 25/18/7
f 18/19/2 25/20/2 29/21/2
f 24/22/1 25/23/1 19/24/1
f 18/25/8 24/26/8 16/27/8
f 26/28/5 17/29/5 30/30/5
f 30/31/8 14/32/8 13/33/8
f 26/34/1 13/35/1 12/36/1
f 31/37/4 9/38/4 8/39/4
f 6/40/8 8/41/8 1/42/8
f 6/43/5 27/44/5 31/45/5
f 28/46/9 6/47/10 5/48/10
f 28/49/2 5/50/2 32/51/2
f 32/52/8 4/53/8 23/54/8
f 28/55/4 23/56/4 22/57/4
f 6/2/1 1/58/1 2/3/1
f 2/3/1 3/59/1 5/1/1
f 3/59/1 4/60/1 5/1/1
f 2/5/2 1/61/2 10/62/2
f 1/61/2 8/63/2 9/64/2
f 9/64/2 10/62/2 1/61/2
f 13/65/2 14/66/2 12/67/2
f 14/66/2 7/4/2 11/6/2
f 12/67/2 14/66/2 11/6/2
f 2/5/2 10/62/2 11/6/2
f 2/7/3 7/68/3 15/8/3
f 18/11/4 16/69/4 15/12/4
f 15/12/4 7/70/4 17/10/4
f 7/70/4 14/71/4 17/10/4
f 24/72/5 19/73/5 16/74/5
f 19/73/5 20/75/5 16/74/5
f 21/13/5 22/76/5 4/77/5
f 22/76/5 23/78/5 4/77/5
f 15/15/5 16/74/5 20/75/5
f 21/13/5 4/77/5 3/14/5
f 15/15/5 20/75/5 21/13/5
f 18/16/6 17/79/6 26/17/7
f 24/22/1 29/80/1 25/23/1
f 18/25/8 29/81/8 24/26/8
f 30/31/8 17/82/8 14/32/8
f 26/34/1 30/83/1 13/35/1
f 31/37/4 27/84/4 9/38/4
f 6/40/8 31/85/8 8/41/8
f 28/46/9 27/86/9 6/47/10
f 32/52/8 5/87/8 4/53/8
f 28/55/4 32/88/4 23/56/4
f 21/13/5 19/73/5 22/76/5
f 26/17/7 9/89/8 27/86/9
f 11/6/2 9/64/2 12/67/2
f 21/13/5 20/75/5 19/73/5
f 19/90/8 25/18/7 22/91/8
f 25/18/7 26/17/7 28/46/9
f 22/91/8 25/18/7 28/46/9
f 26/17/7 12/92/8 9/89/8
f 27/86/9 28/46/9 26/17/7
f 11/6/2 10/62/2 9/64/2
