# Blender v2.92.0 OBJ File: 'kenney_OGConvert.blend'
# www.blender.org
o roadTile_200
v 3.000000 1.700000 -2.250000
v -0.000000 1.700000 -2.250000
v -0.000000 1.700000 -0.750000
v 3.000000 1.700000 -0.750000
v 3.000000 1.730000 -2.250000
v -0.000000 1.730000 -2.250000
v 3.000000 1.730000 -0.000000
v 3.000000 0.000000 -0.000001
v 3.000000 0.000000 -3.000000
v 3.000000 1.730000 -3.000000
v 3.000000 1.400000 -2.250000
v 3.000000 1.400000 -0.750000
v 3.000000 1.730000 -0.750000
v 0.000000 1.730000 0.000000
v 0.000000 1.100000 0.000000
v 2.370000 1.100000 -0.000000
v 2.370000 0.000000 -0.000000
v -0.000001 1.730000 -3.000000
v -0.000001 1.100000 -3.000000
v -0.000000 1.730000 -0.750000
v -0.000000 1.400000 -0.750000
v -0.000000 1.400000 -2.250000
v 2.369999 0.000000 -3.000000
v 2.369999 1.100000 -3.000000
vt 0.486775 0.896693
vt 0.264798 0.452739
vt 0.486775 0.452739
vt 0.943797 0.563727
vt 0.899402 0.785704
vt 0.899402 0.563727
vt 0.566687 0.335894
vt 0.611082 0.113917
vt 0.611082 0.335894
vt 0.264798 0.896693
vt 0.943797 0.785704
vt 0.566687 0.113917
vt 0.982336 0.002928
vt 0.986775 0.446882
vt 0.982336 0.446882
vt 0.359509 0.446882
vt 0.714609 0.353652
vt 0.877392 0.446882
vt 0.621379 0.446882
vt 0.988193 0.452739
vt 0.988193 0.896693
vt 0.165711 0.803462
vt 0.258942 0.452739
vt 0.258942 0.896693
vt 0.655415 0.452739
vt 0.492632 0.896693
vt 0.492632 0.452739
vt 0.883249 0.446882
vt 0.976479 0.002928
vt 0.976479 0.446882
vt 0.353652 0.002928
vt 0.002928 0.446882
vt 0.002928 0.002928
vt 0.772260 0.452739
vt 0.661272 0.896693
vt 0.661272 0.452739
vt 0.778117 0.896693
vt 0.889105 0.452739
vt 0.889105 0.896693
vt 0.992632 0.002928
vt 0.997072 0.446882
vt 0.992632 0.446882
vt 0.986775 0.002928
vt 0.615522 0.335894
vt 0.615522 0.446882
vt 0.359509 0.002928
vt 0.615522 0.002928
vt 0.615522 0.113917
vt 0.621379 0.002928
vt 0.714609 0.002928
vt 0.877392 0.353652
vt 0.894962 0.563727
vt 0.894962 0.452739
vt 0.894962 0.896693
vt 0.894962 0.785704
vt 0.002928 0.896693
vt 0.002928 0.803462
vt 0.165711 0.452739
vt 0.655415 0.896693
vt 0.883249 0.002928
vt 0.353652 0.446882
vt 0.772260 0.896693
vt 0.778117 0.452739
vt 0.997072 0.002928
vn 0.0000 1.0000 -0.0000
vn -1.0000 -0.0000 0.0000
vn 1.0000 0.0000 -0.0000
vn 0.0000 0.0000 1.0000
vn -0.0000 0.0000 -1.0000
vn 0.0000 -1.0000 -0.0000
s 1
f 2/1/1 4/2/1 1/3/1
f 22/4/2 3/5/2 2/6/2
f 12/7/3 1/8/3 4/9/3
f 2/1/1 3/10/1 4/2/1
f 22/4/2 21/11/2 3/5/2
f 12/7/3 11/12/3 1/8/3
f 1/13/4 6/14/4 2/15/4
f 8/16/3 11/12/3 12/7/3
f 16/17/4 8/18/4 7/19/4
f 19/20/2 15/21/2 21/11/2
f 24/22/5 18/23/5 10/24/5
f 23/25/2 16/26/2 24/27/2
f 17/28/6 9/29/6 8/30/6
f 24/31/6 15/32/6 19/33/6
f 10/34/1 6/35/1 5/36/1
f 14/37/1 13/38/1 20/39/1
f 3/40/5 13/41/5 4/42/5
f 1/13/4 5/43/4 6/14/4
f 13/44/3 7/45/3 4/9/3
f 7/45/3 8/16/3 12/7/3
f 4/9/3 7/45/3 12/7/3
f 8/16/3 9/46/3 11/12/3
f 9/46/3 10/47/3 11/12/3
f 10/47/3 5/48/3 1/8/3
f 10/47/3 1/8/3 11/12/3
f 7/19/4 14/49/4 16/17/4
f 14/49/4 15/50/4 16/17/4
f 16/17/4 17/51/4 8/18/4
f 6/52/2 18/53/2 2/6/2
f 18/53/2 19/20/2 22/4/2
f 2/6/2 18/53/2 22/4/2
f 15/21/2 14/54/2 21/11/2
f 14/54/2 20/55/2 3/5/2
f 3/5/2 21/11/2 14/54/2
f 21/11/2 22/4/2 19/20/2
f 9/56/5 23/57/5 24/22/5
f 24/22/5 19/58/5 18/23/5
f 10/24/5 9/56/5 24/22/5
f 23/25/2 17/59/2 16/26/2
f 17/28/6 23/60/6 9/29/6
f 24/31/6 16/61/6 15/32/6
f 10/34/1 18/62/1 6/35/1
f 14/37/1 7/63/1 13/38/1
f 3/40/5 20/64/5 13/41/5
