# Blender v2.92.0 OBJ File: 'OGConvert.blend'
# www.blender.org
o roadTile_130
v 21.000000 4.800000 -3.000000
v 3.000000 4.800000 -3.000000
v 3.000000 5.040000 -3.000000
v 21.000000 5.040000 -3.000000
v 21.000000 4.800001 -21.000000
v 3.000000 4.800001 -21.000000
v 21.000000 2.400001 -21.000000
v 3.000000 2.400001 -21.000000
v 21.000000 2.400000 -3.000000
v 21.000000 5.040000 0.000000
v 21.000000 0.000000 0.000000
v 21.000000 0.000001 -21.000000
v 0.000000 5.040000 0.000000
v 0.000000 0.000000 -0.000000
v 3.000000 5.040001 -21.000000
v 0.000000 5.040001 -21.000000
v 0.000000 0.000001 -21.000000
vt 0.937479 0.502483
vt 0.943137 0.926798
vt 0.937479 0.926798
vt 0.555537 0.502482
vt 0.612112 0.502482
vt 0.612112 0.926798
vt 0.798118 0.997518
vt 0.679310 0.502482
vt 0.798118 0.502482
vt 0.926798 0.426798
vt 0.997518 0.002482
vt 0.997518 0.497518
vt 0.808741 0.926798
vt 0.865316 0.926798
vt 0.803083 0.997518
vt 0.497518 0.497518
vt 0.002482 0.002482
vt 0.497518 0.002482
vt 0.431763 0.502482
vt 0.550572 0.997518
vt 0.431763 0.997518
vt 0.926857 0.926798
vt 0.932514 0.502482
vt 0.932514 0.926798
vt 0.943137 0.502483
vt 0.674345 0.926798
vt 0.674345 0.997518
vt 0.668688 0.926798
vt 0.555537 0.997518
vt 0.679310 0.997518
vt 0.926798 0.002482
vt 0.502482 0.497518
vt 0.502482 0.426798
vt 0.865316 0.502482
vt 0.921892 0.502482
vt 0.921892 0.997518
vt 0.803083 0.926798
vt 0.002482 0.497518
vt 0.550572 0.502482
vt 0.926857 0.502482
vt 0.426798 0.502482
vt 0.002482 0.926798
vt 0.002482 0.502482
vt 0.808741 0.502482
vt 0.668688 0.502482
vt 0.426798 0.926798
vn 0.0000 0.0000 -1.0000
vn 1.0000 0.0000 0.0000
vn -0.0000 -0.0000 1.0000
vn 0.0000 1.0000 0.0000
vn 0.0000 -1.0000 -0.0000
vn -1.0000 0.0000 -0.0000
s 1
f 2/1/1 4/2/1 1/3/1
f 12/4/2 7/5/2 9/6/2
f 13/7/3 11/8/3 10/9/3
f 3/10/4 16/11/4 13/12/4
f 6/13/1 8/14/1 16/15/1
f 11/16/5 17/17/5 12/18/5
f 16/19/6 14/20/6 13/21/6
f 2/22/2 15/23/2 3/24/2
f 2/1/1 3/25/1 4/2/1
f 4/26/2 10/27/2 1/28/2
f 10/27/2 11/29/2 9/6/2
f 1/28/2 10/27/2 9/6/2
f 11/29/2 12/4/2 9/6/2
f 13/7/3 14/30/3 11/8/3
f 3/10/4 15/31/4 16/11/4
f 13/12/4 10/32/4 3/10/4
f 10/32/4 4/33/4 3/10/4
f 7/34/1 12/35/1 8/14/1
f 12/35/1 17/36/1 8/14/1
f 17/36/1 16/15/1 8/14/1
f 16/15/1 15/37/1 6/13/1
f 11/16/5 14/38/5 17/17/5
f 16/19/6 17/39/6 14/20/6
f 2/22/2 6/40/2 15/23/2
f 6/41/4 1/42/4 5/43/4
f 7/34/1 6/13/1 5/44/1
f 9/6/2 5/45/2 1/28/2
f 6/41/4 2/46/4 1/42/4
f 7/34/1 8/14/1 6/13/1
f 9/6/2 7/5/2 5/45/2
