# Blender v2.92.0 OBJ File: 'OGConvert.blend'
# www.blender.org
o roadTile_068
v 15.223440 4.800000 0.000000
v 1.286480 4.800000 0.000000
v 1.286480 2.520000 0.000000
v 15.223440 2.520000 0.000000
v 0.727922 4.800000 -0.727922
v 13.980800 4.800000 -3.000000
v 9.213200 4.800001 -9.213200
v 3.000000 4.800001 -13.980800
v 0.000000 4.800001 -15.223440
v 0.000000 4.800000 -1.286480
v 0.727922 5.040000 -0.727922
v 1.286480 5.040000 0.000000
v 0.000000 5.040000 -1.286480
v 0.000000 5.040000 0.000000
v 0.000000 2.520000 -1.286480
v 0.000000 2.520001 -15.223440
v 0.000000 5.040000 -15.223440
v 0.000000 5.040001 -24.000000
v 0.000000 0.000001 -24.000000
v 0.000000 0.000000 -0.000000
v 3.000000 5.040000 -13.980800
v 13.980800 5.040000 -3.000000
v 15.223440 5.040000 0.000000
v 24.000000 5.040000 0.000000
v 24.000000 5.040001 -24.000000
v 9.213200 5.040000 -9.213200
v 24.000000 0.000000 0.000000
v 24.000000 0.000001 -24.000000
vt 0.543449 0.528647
vt 0.590509 0.813875
vt 0.543449 0.813875
vt 0.126371 0.626371
vt 0.316532 0.789979
vt 0.301508 0.801508
vt 0.652113 0.681936
vt 0.699172 0.967164
vt 0.652113 0.967164
vt 0.590509 0.528647
vt 0.289979 0.816532
vt 0.002319 0.816532
vt 0.027967 0.754612
vt 0.254612 0.527967
vt 0.316532 0.502318
vt 0.699172 0.681936
vt 0.760776 0.757823
vt 0.755822 0.742798
vt 0.760776 0.742798
vt 0.782376 0.711608
vt 0.767351 0.726632
vt 0.755822 0.711608
vt 0.751185 0.502319
vt 0.751185 0.993492
vt 0.770367 0.757823
vt 0.765413 0.742798
vt 0.770367 0.742798
vt 0.755822 0.502319
vt 0.760776 0.567044
vt 0.755822 0.567044
vt 0.307520 0.307520
vt 0.209116 0.435761
vt 0.002319 0.002319
vt 0.765413 0.642246
vt 0.770367 0.706971
vt 0.765413 0.706971
vt 0.765413 0.502319
vt 0.770367 0.642246
vt 0.760776 0.706971
vt 0.755822 0.706971
vt 0.642522 0.502319
vt 0.502319 0.002319
vt 0.997681 0.497682
vt 0.502319 0.497681
vt 0.425195 0.997681
vt 0.321169 0.502319
vt 0.425195 0.502319
vt 0.429833 0.997681
vt 0.533859 0.502319
vt 0.533859 0.997681
vt 0.755822 0.757823
vt 0.782376 0.738161
vt 0.647159 0.993492
vt 0.647159 0.967164
vt 0.647159 0.681936
vt 0.647159 0.502319
vt 0.765413 0.757823
vt 0.760776 0.502319
vt 0.183468 0.497682
vt 0.002319 0.497682
vt 0.497681 0.002319
vt 0.435761 0.209116
vt 0.497682 0.183468
vt 0.770367 0.502319
vt 0.538496 0.993492
vt 0.538496 0.813875
vt 0.538496 0.528647
vt 0.538496 0.502319
vt 0.642522 0.993492
vt 0.997681 0.002319
vt 0.321169 0.997681
vt 0.429833 0.502319
vn -0.0000 -0.0000 1.0000
vn -0.0000 1.0000 0.0000
vn -1.0000 0.0000 0.0000
vn 0.7934 0.0000 -0.6088
vn 0.7071 0.0000 -0.7071
vn 0.6088 0.0000 -0.7934
vn -0.3827 0.0000 0.9239
vn -0.5000 0.0000 0.8660
vn -0.8660 -0.0000 0.5000
vn -0.9239 -0.0000 0.3827
vn -0.7071 0.0000 0.7071
vn 0.0000 -1.0000 -0.0000
vn 0.0000 0.0000 -1.0000
vn 1.0000 0.0000 0.0000
s 1
f 2/1/1 4/2/1 1/3/1
f 7/4/2 10/5/2 5/6/2
f 9/7/3 15/8/3 10/9/3
f 2/1/1 3/10/1 4/2/1
f 5/6/2 2/11/2 7/4/2
f 2/11/2 1/12/2 6/13/2
f 6/13/2 7/4/2 2/11/2
f 7/4/2 8/14/2 10/5/2
f 8/14/2 9/15/2 10/5/2
f 9/7/3 16/16/3 15/8/3
f 12/17/4 5/18/5 11/19/5
f 14/20/2 11/21/2 13/22/2
f 16/16/3 19/23/3 20/24/3
f 11/25/5 10/26/6 13/27/6
f 17/28/7 8/29/8 21/30/8
f 26/31/2 22/32/2 25/33/2
f 22/34/9 1/35/10 23/36/10
f 26/37/11 6/38/9 22/34/9
f 21/30/8 7/39/11 26/40/11
f 4/2/1 3/10/1 20/41/1
f 19/42/12 27/43/12 20/44/12
f 19/45/13 25/46/13 28/47/13
f 27/48/14 25/49/14 24/50/14
f 12/17/4 2/51/4 5/18/5
f 14/20/2 12/52/2 11/21/2
f 14/53/3 13/54/3 10/9/3
f 14/53/3 10/9/3 15/8/3
f 17/55/3 18/56/3 9/7/3
f 18/56/3 19/23/3 16/16/3
f 9/7/3 18/56/3 16/16/3
f 20/24/3 14/53/3 15/8/3
f 20/24/3 15/8/3 16/16/3
f 11/25/5 5/57/5 10/26/6
f 17/28/7 9/58/7 8/29/8
f 22/32/2 23/59/2 24/60/2
f 24/60/2 25/33/2 22/32/2
f 25/33/2 18/61/2 21/62/2
f 26/31/2 25/33/2 21/62/2
f 18/61/2 17/63/2 21/62/2
f 22/34/9 6/38/9 1/35/10
f 26/37/11 7/64/11 6/38/9
f 21/30/8 8/29/8 7/39/11
f 24/65/1 23/66/1 1/3/1
f 24/65/1 1/3/1 4/2/1
f 12/67/1 14/68/1 2/1/1
f 14/68/1 20/41/1 3/10/1
f 2/1/1 14/68/1 3/10/1
f 27/69/1 24/65/1 4/2/1
f 27/69/1 4/2/1 20/41/1
f 19/42/12 28/70/12 27/43/12
f 19/45/13 18/71/13 25/46/13
f 27/48/14 28/72/14 25/49/14
