# Blender v2.92.0 OBJ File: 'OGConvert.blend'
# www.blender.org
o roadTile_169
v 24.000000 0.000000 -0.000000
v 24.000000 0.000000 -6.000000
v 24.000000 13.200000 -6.000000
v 24.000000 13.200000 0.000001
v 0.000000 0.000000 0.000000
v 0.000000 0.000001 -24.000000
v 24.000000 0.000001 -24.000000
v 24.000000 0.000001 -18.000000
v 0.000000 13.200000 0.000001
v 0.000000 13.200001 -24.000000
v 24.000000 13.200001 -18.000000
v 24.000000 13.200001 -24.000000
vt 0.476524 0.354478
vt 0.734764 0.471860
vt 0.476524 0.471860
vt 0.119714 0.002332
vt 0.354478 0.002332
vt 0.471860 0.471860
vt 0.739428 0.471860
vt 0.997668 0.002332
vt 0.997668 0.471860
vt 0.734764 0.946051
vt 0.476524 0.476524
vt 0.734764 0.476524
vt 0.471860 0.946051
vt 0.002332 0.828670
vt 0.002332 0.593905
vt 0.734764 0.119714
vt 0.476524 0.002332
vt 0.734764 0.002332
vt 0.739428 0.946051
vt 0.997668 0.476524
vt 0.997668 0.946051
vt 0.734764 0.354478
vt 0.471860 0.002332
vt 0.002332 0.471860
vt 0.002332 0.002332
vt 0.739428 0.002332
vt 0.476524 0.946051
vt 0.002332 0.476524
vt 0.471860 0.476524
vt 0.002332 0.946051
vt 0.476524 0.119714
vt 0.739428 0.476524
vn 1.0000 0.0000 0.0000
vn 0.0000 -1.0000 -0.0000
vn 0.0000 -0.0000 1.0000
vn -1.0000 -0.0000 0.0000
vn -0.0000 1.0000 0.0000
vn 0.0000 0.0000 -1.0000
s 1
f 2/1/1 4/2/1 1/3/1
f 8/4/2 2/5/2 5/6/2
f 5/7/3 4/8/3 9/9/3
f 5/10/4 10/11/4 6/12/4
f 9/13/5 3/14/5 11/15/5
f 11/16/1 7/17/1 12/18/1
f 7/19/6 10/20/6 12/21/6
f 2/1/1 3/22/1 4/2/1
f 2/5/2 1/23/2 5/6/2
f 5/6/2 6/24/2 8/4/2
f 6/24/2 7/25/2 8/4/2
f 5/7/3 1/26/3 4/8/3
f 5/10/4 9/27/4 10/11/4
f 12/28/5 10/29/5 11/15/5
f 10/29/5 9/13/5 11/15/5
f 9/13/5 4/30/5 3/14/5
f 11/16/1 8/31/1 7/17/1
f 7/19/6 6/32/6 10/20/6
f 8/31/1 3/22/1 2/1/1
f 8/31/1 11/16/1 3/22/1
