# Blender v2.92.0 OBJ File: 'OGConvert.blend'
# www.blender.org
o roadTile_229
v 0.000000 9.200001 -15.000000
v 0.000000 6.800001 -15.000000
v 0.000000 6.800000 -3.000000
v 0.000000 9.200000 -3.000000
v 0.000000 4.400001 -18.000000
v 0.000000 4.400000 0.000000
v 0.000000 9.440000 0.000000
v 0.000000 9.440000 -3.000000
v 0.000000 9.440001 -15.000000
v 0.000000 9.440001 -18.000000
v 24.000000 0.000000 -0.000000
v 24.000000 0.000001 -18.000000
v 24.000000 5.040000 0.000000
v 24.000000 5.040001 -18.000000
v 24.000000 5.040000 -15.000000
v 24.000000 4.800001 -15.000000
v 24.000000 2.400001 -15.000000
v 24.000000 2.400000 -3.000000
v 24.000000 4.800000 -3.000000
v 24.000000 5.040000 -3.000000
vt 0.166306 0.577055
vt 0.116316 0.827003
vt 0.116316 0.577055
vt 0.631210 0.510342
vt 0.381261 0.002113
vt 0.631210 0.002113
vt 0.102092 0.827003
vt 0.052103 0.577055
vt 0.102092 0.577055
vt 0.166306 0.827003
vt 0.381261 0.510342
vt 0.052103 0.827003
vt 0.216295 0.514567
vt 0.216295 0.889490
vt 0.377036 0.510342
vt 0.002113 0.002113
vt 0.377036 0.002113
vt 0.738693 0.021043
vt 0.635436 0.510342
vt 0.635436 0.002113
vt 0.002113 0.889490
vt 0.002113 0.514567
vt 0.742919 0.021043
vt 0.846176 0.510342
vt 0.742919 0.529272
vt 0.850402 0.510342
vt 0.912889 0.002113
vt 0.912889 0.510342
vt 0.983827 0.510342
vt 0.988744 0.003014
vt 0.988744 0.511243
vt 0.997887 0.510342
vt 0.992970 0.003014
vt 0.997887 0.002113
vt 0.979602 0.002113
vt 0.917115 0.510342
vt 0.917115 0.002113
vt 0.111317 0.889490
vt 0.111317 0.827003
vt 0.111317 0.577055
vt 0.111317 0.514567
vt 0.002113 0.510342
vt 0.738693 0.529272
vt 0.107091 0.514567
vt 0.107091 0.577055
vt 0.107091 0.827003
vt 0.107091 0.889490
vt 0.846176 0.002113
vt 0.850402 0.002113
vt 0.983827 0.002113
vt 0.992970 0.511243
vt 0.979602 0.510342
vn -1.0000 -0.0000 -0.0000
vn 0.1803 0.9836 0.0000
vn 1.0000 0.0000 0.0000
vn -0.1803 -0.9836 -0.0000
vn 0.0000 -0.0000 1.0000
vn 0.0000 0.0000 -1.0000
s 1
f 2/1/1 4/2/1 1/3/1
f 1/4/2 19/5/2 16/6/2
f 19/7/3 17/8/3 16/9/3
f 2/1/1 3/10/1 4/2/1
f 1/4/2 4/11/2 19/5/2
f 19/7/3 18/12/3 17/8/3
f 5/13/1 6/14/1 2/1/1
f 6/15/4 12/16/4 11/17/4
f 6/18/5 13/19/5 7/20/5
f 11/21/3 12/22/3 18/12/3
f 14/23/6 5/24/6 10/25/6
f 14/26/2 9/27/2 15/28/2
f 1/29/5 15/30/5 9/31/5
f 4/32/6 20/33/6 19/34/6
f 7/35/2 20/36/2 8/37/2
f 6/14/1 7/38/1 3/10/1
f 7/38/1 8/39/1 4/2/1
f 4/2/1 3/10/1 7/38/1
f 9/40/1 10/41/1 1/3/1
f 10/41/1 5/13/1 2/1/1
f 1/3/1 10/41/1 2/1/1
f 6/14/1 3/10/1 2/1/1
f 6/15/4 5/42/4 12/16/4
f 6/18/5 11/43/5 13/19/5
f 12/22/3 14/44/3 17/8/3
f 14/44/3 15/45/3 16/9/3
f 16/9/3 17/8/3 14/44/3
f 20/46/3 13/47/3 19/7/3
f 13/47/3 11/21/3 18/12/3
f 19/7/3 13/47/3 18/12/3
f 12/22/3 17/8/3 18/12/3
f 14/23/6 12/48/6 5/24/6
f 14/26/2 10/49/2 9/27/2
f 1/29/5 16/50/5 15/30/5
f 4/32/6 8/51/6 20/33/6
f 7/35/2 13/52/2 20/36/2
