# Blender v2.92.0 OBJ File: 'kenney_OGConvert.blend'
# www.blender.org
o roadTile_232
v -0.000000 1.150000 -1.875000
v 3.000000 0.600000 -1.875000
v 3.000000 0.630000 -1.875000
v -0.000000 1.180000 -1.875000
v -0.000000 1.150000 -0.375000
v 3.000000 0.600000 -0.375001
v -0.000000 0.850000 -1.875000
v -0.000000 0.850000 -0.375000
v -0.000000 0.000000 -2.250000
v 0.000000 0.000000 0.000000
v 0.000000 1.180000 0.000000
v -0.000000 1.180000 -0.375000
v -0.000000 1.180000 -2.250000
v 3.000000 0.000000 -0.000001
v 3.000000 0.000000 -2.250000
v 3.000000 0.630000 -0.000000
v 3.000000 0.630000 -0.375001
v 3.000000 0.630000 -2.250000
v 3.000000 0.300000 -1.875000
v 3.000000 0.300000 -0.375001
vt 0.963412 0.505934
vt 0.968285 0.003215
vt 0.968285 0.506828
vt 0.825644 0.502321
vt 0.825644 0.873839
vt 0.685293 0.564241
vt 0.373839 0.497679
vt 0.002321 0.002321
vt 0.373839 0.002321
vt 0.630804 0.497679
vt 0.734829 0.002321
vt 0.825644 0.497679
vt 0.201805 0.873839
vt 0.201805 0.502321
vt 0.251341 0.564241
vt 0.958769 0.002321
vt 0.896850 0.505934
vt 0.896850 0.002321
vt 0.977800 0.505934
vt 0.972928 0.003215
vt 0.977800 0.002321
vt 0.093137 0.502321
vt 0.197162 0.997679
vt 0.002321 0.997679
vt 0.830287 0.505934
vt 0.892207 0.002321
vt 0.892207 0.505934
vt 0.963412 0.002321
vt 0.630804 0.873839
vt 0.685293 0.811920
vt 0.630804 0.811920
vt 0.635757 0.811920
vt 0.630804 0.564241
vt 0.630804 0.502321
vt 0.635757 0.564241
vt 0.002321 0.497679
vt 0.630804 0.002321
vt 0.300876 0.811920
vt 0.305830 0.811920
vt 0.305830 0.873839
vt 0.305830 0.502321
vt 0.305830 0.564241
vt 0.300876 0.564241
vt 0.251341 0.811920
vt 0.958769 0.505934
vt 0.972928 0.506828
vt 0.197162 0.502321
vt 0.830287 0.002321
vt 0.626161 0.505934
vt 0.378482 0.002321
vt 0.626161 0.002321
vt 0.378482 0.505934
vn 0.0000 0.0000 1.0000
vn -1.0000 0.0000 0.0000
vn -0.0000 -1.0000 -0.0000
vn 1.0000 0.0000 -0.0000
vn 0.1803 0.9836 0.0000
vn -0.0000 0.0000 -1.0000
s 1
f 1/1/1 3/2/1 4/3/1
f 9/4/2 10/5/2 7/6/2
f 10/7/3 15/8/3 14/9/3
f 10/10/1 16/11/1 11/12/1
f 14/13/4 15/14/4 19/15/4
f 11/16/5 17/17/5 12/18/5
f 5/19/6 17/20/6 6/21/6
f 18/22/6 9/23/6 13/24/6
f 18/25/5 4/26/5 3/27/5
f 1/1/1 2/28/1 3/2/1
f 10/5/2 11/29/2 8/30/2
f 11/29/2 12/31/2 5/32/2
f 5/32/2 8/30/2 11/29/2
f 4/33/2 13/34/2 1/35/2
f 13/34/2 9/4/2 7/6/2
f 1/35/2 13/34/2 7/6/2
f 10/5/2 8/30/2 7/6/2
f 10/7/3 9/36/3 15/8/3
f 10/10/1 14/37/1 16/11/1
f 6/38/4 17/39/4 16/40/4
f 15/14/4 18/41/4 19/15/4
f 18/41/4 3/42/4 2/43/4
f 2/43/4 19/15/4 18/41/4
f 6/38/4 16/40/4 20/44/4
f 16/40/4 14/13/4 20/44/4
f 19/15/4 20/44/4 14/13/4
f 11/16/5 16/45/5 17/17/5
f 5/19/6 12/46/6 17/20/6
f 18/22/6 15/47/6 9/23/6
f 18/25/5 13/48/5 4/26/5
f 1/49/5 6/50/5 2/51/5
f 7/6/2 5/32/2 1/35/2
f 6/38/4 19/15/4 2/43/4
f 1/49/5 5/52/5 6/50/5
f 7/6/2 8/30/2 5/32/2
f 6/38/4 20/44/4 19/15/4
