# Blender v2.92.0 OBJ File: 'kenney_OGConvert.blend'
# www.blender.org
o roadTile_141
v 0.750000 0.630000 -0.000000
v 0.750000 0.630000 -0.750000
v -0.000000 0.630000 -0.750000
v -0.000000 0.630000 -0.375000
v 0.375000 0.630000 -0.375000
v 0.375000 0.630000 -0.000000
v 0.750000 0.600000 -0.000000
v 0.750000 0.600000 -0.750000
v 2.250000 0.600000 -0.000000
v 2.250000 0.600000 -0.750000
v 3.000000 0.600000 -0.750000
v 3.000000 0.600000 -2.250000
v 2.250000 0.600000 -2.250000
v 2.250000 0.600000 -3.000000
v 0.749999 0.600000 -3.000000
v 0.750000 0.600000 -2.250000
v -0.000000 0.600000 -2.250000
v -0.000000 0.600000 -0.750000
v 2.250000 0.630000 -0.000000
v 2.250000 0.630000 -0.750000
v 0.375000 0.000000 -0.000000
v 2.625000 0.000000 -0.000000
v 2.625000 0.550000 -0.000000
v 2.625000 0.630000 -0.000000
v 2.250000 0.300000 -0.000000
v 0.750000 0.300000 -0.000000
v 0.375000 0.550000 -0.000000
v -0.000000 0.000000 -0.000000
v -0.000000 0.000000 -0.375000
v -0.000000 0.000000 -2.625000
v -0.000001 0.000000 -3.000000
v 0.374999 0.000000 -3.000000
v 2.625000 0.000000 -3.000000
v 3.000000 0.000000 -3.000000
v 3.000000 0.000000 -2.625000
v 3.000000 0.000000 -0.375001
v 3.000000 0.000000 -0.000001
v 0.000000 0.550000 0.000000
v 0.375000 0.550000 -0.375000
v -0.000000 0.550000 -0.375000
v -0.000000 0.300000 -0.750000
v -0.000000 0.300000 -2.250000
v -0.000000 0.630000 -2.250000
v -0.000000 0.630000 -2.625000
v -0.000000 0.550000 -2.625000
v 0.750000 0.630000 -2.250000
v 0.749999 0.630000 -3.000000
v 2.625000 0.630000 -3.000000
v 2.625000 0.550000 -3.000000
v 0.374999 0.550000 -3.000000
v 0.374999 0.630000 -3.000000
v 0.749999 0.300000 -3.000000
v 2.250000 0.300000 -3.000000
v 2.250000 0.630000 -3.000000
v 2.625000 0.630000 -2.625000
v 2.625000 0.550000 -2.625000
v 2.250000 0.630000 -2.250000
v 3.000000 0.630000 -2.250000
v 3.000000 0.630000 -2.625000
v 3.000000 0.550000 -2.625000
v 3.000000 0.300000 -2.250000
v 3.000000 0.300000 -0.750001
v 3.000000 0.630000 -0.750000
v 3.000000 0.630000 -0.375001
v 3.000000 0.550000 -0.375001
v 3.000000 0.550000 -3.000000
v 2.625000 0.630000 -0.375000
v 2.625000 0.550000 -0.375000
v 3.000000 0.550000 -0.000001
v -0.000001 0.550000 -3.000000
v 0.375000 0.550000 -2.625000
v 0.375000 0.630000 -2.625000
vt 0.503060 0.503060
vt 0.564795 0.503060
vt 0.564795 0.564795
vt 0.762238 0.638768
vt 0.767177 0.762238
vt 0.762238 0.762238
vt 0.778235 0.762238
vt 0.773296 0.638768
vt 0.778235 0.638768
vt 0.832562 0.435205
vt 0.832562 0.064795
vt 0.881950 0.373470
vt 0.638768 0.762238
vt 0.651938 0.823973
vt 0.638768 0.823973
vt 0.690517 0.823973
vt 0.677347 0.762238
vt 0.690517 0.762238
vt 0.716609 0.064795
vt 0.716609 0.435205
vt 0.667221 0.126530
vt 0.828586 0.638768
vt 0.833525 0.762238
vt 0.828586 0.762238
vt 0.830092 0.503060
vt 0.835031 0.626530
vt 0.830092 0.626530
vt 0.784354 0.638768
vt 0.789293 0.762238
vt 0.784354 0.762238
vt 0.826443 0.064795
vt 0.826443 0.435205
vt 0.777055 0.126530
vt 0.709806 0.823973
vt 0.696636 0.762238
vt 0.709806 0.762238
vt 0.626530 0.756119
vt 0.564795 0.694384
vt 0.626530 0.632649
vt 0.795412 0.638768
vt 0.800351 0.762238
vt 0.795412 0.762238
vt 0.503060 0.435205
vt 0.503060 0.064795
vt 0.552448 0.373470
vt 0.729095 0.823973
vt 0.715925 0.762238
vt 0.729095 0.762238
vt 0.806470 0.638768
vt 0.811409 0.762238
vt 0.806470 0.762238
vt 0.694384 0.564795
vt 0.632649 0.503060
vt 0.756119 0.503060
vt 0.671227 0.823973
vt 0.658057 0.762238
vt 0.671227 0.762238
vt 0.748384 0.823973
vt 0.735214 0.762238
vt 0.748384 0.762238
vt 0.822467 0.762238
vt 0.817528 0.638768
vt 0.822467 0.638768
vt 0.775408 0.830092
vt 0.762238 0.768357
vt 0.775408 0.768357
vt 0.756119 0.632649
vt 0.756119 0.694384
vt 0.694384 0.694384
vt 0.784354 0.768358
vt 0.797524 0.830092
vt 0.784354 0.830092
vt 0.626530 0.564795
vt 0.626530 0.626530
vt 0.503060 0.626530
vt 0.767177 0.638768
vt 0.773296 0.762238
vt 0.923107 0.064795
vt 0.881950 0.126530
vt 0.936277 0.064795
vt 0.931338 0.126530
vt 0.936277 0.126530
vt 0.936277 0.435205
vt 0.923107 0.435205
vt 0.931338 0.373470
vt 0.936277 0.373470
vt 0.651938 0.762238
vt 0.677347 0.823973
vt 0.626064 0.435205
vt 0.667221 0.373470
vt 0.612894 0.435205
vt 0.617832 0.373470
vt 0.612894 0.373470
vt 0.612894 0.064795
vt 0.626064 0.064795
vt 0.617832 0.126530
vt 0.612894 0.126530
vt 0.833525 0.638768
vt 0.835031 0.503060
vt 0.789293 0.638768
vt 0.722728 0.126530
vt 0.722728 0.064795
vt 0.727667 0.126530
vt 0.735898 0.064795
vt 0.735898 0.435205
vt 0.777055 0.373470
vt 0.722728 0.435205
vt 0.727667 0.373470
vt 0.722728 0.373470
vt 0.696636 0.823973
vt 0.503060 0.756119
vt 0.503060 0.694384
vt 0.564795 0.632649
vt 0.800351 0.638768
vt 0.593604 0.064795
vt 0.552448 0.126530
vt 0.606775 0.064795
vt 0.601836 0.126530
vt 0.606775 0.126530
vt 0.606775 0.435205
vt 0.593604 0.435205
vt 0.601836 0.373470
vt 0.606775 0.373470
vt 0.715925 0.823973
vt 0.811409 0.638768
vt 0.756119 0.626530
vt 0.694384 0.626530
vt 0.632649 0.564795
vt 0.658057 0.823973
vt 0.735214 0.823973
vt 0.817528 0.762238
vt 0.762238 0.830092
vt 0.694384 0.756119
vt 0.632649 0.756119
vt 0.632649 0.632649
vt 0.797524 0.768358
vt 0.126530 0.873470
vt 0.126530 0.626530
vt 0.373470 0.626530
vt 0.496940 0.626530
vt 0.496940 0.873470
vt 0.373470 0.873470
vt 0.373470 0.996941
vt 0.126530 0.996941
vt 0.003060 0.873470
vt 0.003060 0.626530
vt 0.126530 0.503060
vt 0.373470 0.503060
vt 0.003060 0.064795
vt 0.435205 0.003060
vt 0.496940 0.064795
vt 0.923107 0.496940
vt 0.832562 0.496940
vt 0.823973 0.564795
vt 0.762238 0.503060
vt 0.823973 0.503060
vt 0.716609 0.496940
vt 0.626064 0.496940
vt 0.503060 0.003060
vt 0.593604 0.003060
vt 0.823973 0.570914
vt 0.762238 0.632649
vt 0.762238 0.570914
vt 0.735898 0.003060
vt 0.826443 0.003060
vt 0.503060 0.762238
vt 0.564795 0.823973
vt 0.503060 0.823973
vt 0.593604 0.496940
vt 0.503060 0.496940
vt 0.832562 0.003060
vt 0.923107 0.003060
vt 0.826443 0.496940
vt 0.735898 0.496940
vt 0.570914 0.762238
vt 0.632649 0.823973
vt 0.570914 0.823973
vt 0.626064 0.003060
vt 0.716609 0.003060
vt 0.496940 0.435205
vt 0.435205 0.496940
vt 0.496940 0.496940
vt 0.064795 0.496941
vt 0.003060 0.496941
vt 0.003060 0.435205
vt 0.003060 0.003060
vt 0.064795 0.003060
vt 0.496940 0.003060
vt 0.762238 0.564795
vt 0.823973 0.632649
vt 0.564795 0.762238
vt 0.632649 0.762238
vn 0.0000 1.0000 0.0000
vn 1.0000 0.0000 -0.0000
vn -1.0000 0.0000 0.0000
vn 0.0000 -0.0000 1.0000
vn -0.0000 0.0000 -1.0000
vn -0.0000 -1.0000 -0.0000
s 1
f 3/1/1 4/2/1 5/3/1
f 8/4/2 1/5/2 7/6/2
f 9/7/3 20/8/3 10/9/3
f 21/10/4 22/11/4 26/12/4
f 5/13/3 27/14/3 6/15/3
f 4/16/4 39/17/4 5/18/4
f 30/19/3 29/20/3 42/21/3
f 18/22/5 2/23/5 8/24/5
f 16/25/4 43/26/4 17/27/4
f 15/28/2 46/29/2 16/30/2
f 33/31/5 32/32/5 53/33/5
f 55/34/2 49/35/2 48/36/2
f 57/37/1 55/38/1 54/39/1
f 12/40/4 57/41/4 13/42/4
f 36/43/2 35/44/2 62/45/2
f 59/46/5 56/47/5 55/48/5
f 10/49/5 63/50/5 11/51/5
f 67/52/1 63/53/1 20/54/1
f 24/55/2 68/56/2 67/57/2
f 67/58/4 65/59/4 64/60/4
f 13/61/3 54/62/3 14/63/3
f 72/64/5 45/65/5 44/66/5
f 47/67/1 51/68/1 72/69/1
f 51/70/3 71/71/3 72/72/3
f 6/73/1 1/74/1 5/3/1
f 1/74/1 2/75/1 5/3/1
f 2/75/1 3/1/1 5/3/1
f 8/4/2 2/76/2 1/5/2
f 9/7/3 19/77/3 20/8/3
f 22/11/4 23/78/4 25/79/4
f 23/78/4 24/80/4 9/81/4
f 25/79/4 23/78/4 9/81/4
f 24/80/4 19/82/4 9/81/4
f 6/83/4 27/84/4 7/85/4
f 27/84/4 21/10/4 26/12/4
f 7/85/4 1/86/4 6/83/4
f 26/12/4 7/85/4 27/84/4
f 22/11/4 25/79/4 26/12/4
f 5/13/3 39/87/3 27/14/3
f 4/16/4 40/88/4 39/17/4
f 29/20/3 40/89/3 41/90/3
f 40/89/3 4/91/3 18/92/3
f 41/90/3 40/89/3 18/92/3
f 4/91/3 3/93/3 18/92/3
f 44/94/3 45/95/3 17/96/3
f 45/95/3 30/19/3 42/21/3
f 17/96/3 43/97/3 44/94/3
f 42/21/3 17/96/3 45/95/3
f 29/20/3 41/90/3 42/21/3
f 18/22/5 3/98/5 2/23/5
f 16/25/4 46/99/4 43/26/4
f 15/28/2 47/100/2 46/29/2
f 54/101/5 48/102/5 14/103/5
f 48/102/5 49/104/5 14/103/5
f 32/32/5 50/105/5 52/106/5
f 50/105/5 51/107/5 15/108/5
f 52/106/5 50/105/5 15/108/5
f 51/107/5 47/109/5 15/108/5
f 49/104/5 33/31/5 53/33/5
f 14/103/5 49/104/5 53/33/5
f 32/32/5 52/106/5 53/33/5
f 55/34/2 56/110/2 49/35/2
f 57/37/1 58/111/1 55/38/1
f 58/111/1 59/112/1 55/38/1
f 55/38/1 48/113/1 54/39/1
f 12/40/4 58/114/4 57/41/4
f 35/44/2 60/115/2 61/116/2
f 60/115/2 59/117/2 12/118/2
f 61/116/2 60/115/2 12/118/2
f 59/117/2 58/119/2 12/118/2
f 64/120/2 65/121/2 11/122/2
f 65/121/2 36/43/2 62/45/2
f 11/122/2 63/123/2 64/120/2
f 62/45/2 11/122/2 65/121/2
f 35/44/2 61/116/2 62/45/2
f 59/46/5 60/124/5 56/47/5
f 10/49/5 20/125/5 63/50/5
f 19/126/1 24/127/1 67/52/1
f 67/52/1 64/128/1 63/53/1
f 20/54/1 19/126/1 67/52/1
f 24/55/2 23/129/2 68/56/2
f 67/58/4 68/130/4 65/59/4
f 13/61/3 57/131/3 54/62/3
f 72/64/5 71/132/5 45/65/5
f 44/133/1 43/134/1 72/69/1
f 43/134/1 46/135/1 72/69/1
f 46/135/1 47/67/1 72/69/1
f 51/70/3 50/136/3 71/71/3
f 13/137/1 16/138/1 8/139/1
f 42/21/3 18/92/3 17/96/3
f 62/45/2 12/118/2 11/122/2
f 53/33/5 15/108/5 14/103/5
f 26/12/4 9/81/4 7/85/4
f 7/140/1 9/141/1 10/142/1
f 10/142/1 11/143/1 12/144/1
f 13/137/1 14/145/1 15/146/1
f 10/142/1 12/144/1 13/137/1
f 8/139/1 7/140/1 10/142/1
f 17/147/1 18/148/1 8/139/1
f 13/137/1 15/146/1 16/138/1
f 16/138/1 17/147/1 8/139/1
f 8/139/1 10/142/1 13/137/1
f 42/21/3 41/90/3 18/92/3
f 62/45/2 61/116/2 12/118/2
f 53/33/5 52/106/5 15/108/5
f 26/12/4 25/79/4 9/81/4
f 33/149/6 36/150/6 22/151/6
f 21/10/4 38/152/4 28/153/4
f 27/154/1 40/155/1 38/156/1
f 40/89/3 28/157/3 38/158/3
f 60/115/2 34/159/2 66/160/2
f 49/161/1 60/162/1 66/163/1
f 33/31/5 66/164/5 34/165/5
f 65/166/1 23/167/1 69/168/1
f 36/43/2 69/169/2 37/170/2
f 23/78/4 37/171/4 69/172/4
f 50/105/5 31/173/5 70/174/5
f 71/175/1 70/176/1 45/177/1
f 30/19/3 70/178/3 31/179/3
f 22/151/6 21/180/6 29/181/6
f 21/180/6 28/182/6 29/181/6
f 29/181/6 30/183/6 22/151/6
f 30/183/6 31/184/6 32/185/6
f 33/149/6 34/186/6 35/187/6
f 30/183/6 32/185/6 22/151/6
f 32/185/6 33/149/6 22/151/6
f 36/150/6 37/188/6 22/151/6
f 33/149/6 35/187/6 36/150/6
f 21/10/4 27/84/4 38/152/4
f 27/154/1 39/189/1 40/155/1
f 40/89/3 29/20/3 28/157/3
f 60/115/2 35/44/2 34/159/2
f 49/161/1 56/190/1 60/162/1
f 33/31/5 49/104/5 66/164/5
f 65/166/1 68/191/1 23/167/1
f 36/43/2 65/121/2 69/169/2
f 23/78/4 22/11/4 37/171/4
f 50/105/5 32/32/5 31/173/5
f 71/175/1 50/192/1 70/176/1
f 30/19/3 45/95/3 70/178/3
