# Blender v2.92.0 OBJ File: 'kenney_OGConvert.blend'
# www.blender.org
o roadTile_259
v 3.000000 1.385560 -1.741110
v 3.000000 1.410000 -1.500000
v -0.000000 1.410000 -1.500000
v -0.000000 1.385560 -1.741110
v 3.000000 1.650000 -3.000000
v 3.000000 1.385560 -1.258891
v 3.000000 1.650000 -0.000000
v 3.000000 1.313220 -1.027601
v 3.000000 1.195930 -0.815525
v 3.000000 1.038460 -0.631311
v 3.000000 0.847222 -0.482450
v 3.000000 0.000000 -0.000001
v 0.000000 1.650000 0.000000
v 0.000000 0.000000 -0.000000
v -0.000000 0.847222 -0.482450
v -0.000000 1.038460 -0.631311
v -0.000000 1.195930 -0.815525
v -0.000000 1.313220 -1.027600
v -0.000000 1.385560 -1.258890
v -0.000001 1.650000 -3.000000
v -0.000001 0.000000 -3.000000
v 3.000000 0.000000 -3.000000
v -0.000000 0.630000 -2.625000
v -0.000000 0.300000 -2.250000
v -0.000000 0.300000 -0.750000
v -0.000000 0.630000 -0.375000
v 3.000000 0.630000 -0.375001
v 3.000000 0.300000 -0.750001
v 3.000000 0.300000 -2.250000
v 3.000000 0.600000 -2.250000
v 3.000000 0.630000 -2.625000
v 3.000000 0.847222 -2.517550
v 3.000000 1.038460 -2.368690
v 3.000000 1.139910 -2.250000
v 3.000000 1.195930 -2.184480
v 3.000000 1.275000 -2.041501
v 3.000000 1.313220 -1.972400
v -0.000000 1.313220 -1.972400
v 3.000000 1.275000 -0.958498
v -0.000000 1.275000 -0.958498
v 3.000000 1.139910 -0.750000
v -0.000000 1.139910 -0.750000
v -0.000000 1.275000 -2.041500
v -0.000000 1.195930 -2.184480
v -0.000000 1.139910 -2.250000
v -0.000000 1.038460 -2.368690
v -0.000000 0.847222 -2.517550
v 3.000000 0.630000 -2.250000
v -0.000000 0.630000 -2.250000
v -0.000000 0.600000 -2.250000
v -0.000000 0.600000 -0.750000
v 3.000000 0.600000 -0.750000
v 3.000000 0.630000 -0.750000
v -0.000000 0.630000 -0.750000
vt 0.431004 0.330602
vt 0.457355 0.002731
vt 0.457355 0.330602
vt 0.516394 0.336064
vt 0.490164 0.500000
vt 0.487493 0.473649
vt 0.487493 0.526351
vt 0.516394 0.663935
vt 0.479587 0.551629
vt 0.466768 0.574806
vt 0.449558 0.594939
vt 0.428658 0.611208
vt 0.336064 0.663935
vt 0.707647 0.663935
vt 0.885900 0.336064
vt 0.885900 0.663935
vt 0.521856 0.663935
vt 0.609592 0.611208
vt 0.702185 0.663935
vt 0.588691 0.594939
vt 0.571481 0.574806
vt 0.558663 0.551629
vt 0.550757 0.526351
vt 0.521856 0.336064
vt 0.002731 0.002731
vt 0.330602 0.330602
vt 0.002731 0.330602
vt 0.710578 0.002731
vt 0.531405 0.330602
vt 0.531405 0.002731
vt 0.702185 0.336064
vt 0.633332 0.377048
vt 0.669398 0.418032
vt 0.669398 0.581968
vt 0.633332 0.622952
vt 0.891362 0.663936
vt 0.916278 0.336064
vt 0.916278 0.663936
vt 0.404917 0.622952
vt 0.368852 0.581968
vt 0.336064 0.336064
vt 0.002731 0.663935
vt 0.330602 0.336064
vt 0.330602 0.663935
vt 0.368852 0.418032
vt 0.401639 0.418032
vt 0.404917 0.377048
vt 0.428658 0.388792
vt 0.449558 0.405061
vt 0.460646 0.418032
vt 0.466768 0.425193
vt 0.475410 0.440819
vt 0.479587 0.448371
vt 0.482633 0.002731
vt 0.482633 0.330602
vt 0.550757 0.473649
vt 0.558663 0.448371
vt 0.548086 0.500000
vt 0.404653 0.330602
vt 0.431004 0.002731
vt 0.379375 0.330602
vt 0.404653 0.002731
vt 0.371823 0.330602
vt 0.379375 0.002731
vt 0.475410 0.559181
vt 0.356197 0.330602
vt 0.371823 0.002731
vt 0.349036 0.330602
vt 0.356197 0.002731
vt 0.460646 0.581968
vt 0.336064 0.330602
vt 0.349036 0.002731
vt 0.938884 0.336064
vt 0.938884 0.663936
vt 0.577604 0.581968
vt 0.562840 0.559181
vt 0.562840 0.440819
vt 0.571481 0.425193
vt 0.577604 0.418032
vt 0.588691 0.405061
vt 0.609592 0.388792
vt 0.910682 0.002731
vt 0.885438 0.330602
vt 0.885438 0.002731
vt 0.933804 0.002731
vt 0.910682 0.330602
vt 0.512972 0.330602
vt 0.525943 0.002731
vt 0.525943 0.330602
vt 0.505811 0.330602
vt 0.512972 0.002731
vt 0.490185 0.330602
vt 0.505811 0.002731
vt 0.490185 0.002731
vt 0.980250 0.002731
vt 0.939266 0.330602
vt 0.939266 0.002731
vt 0.404917 0.418032
vt 0.988953 0.002731
vt 0.985712 0.330602
vt 0.985712 0.002731
vt 0.636611 0.418032
vt 0.633332 0.418032
vt 0.044028 0.669398
vt 0.044028 0.669398
vt 0.044028 0.669398
vt 0.005989 0.669398
vt 0.002731 0.997269
vt 0.002731 0.669398
vt 0.038566 0.997269
vt 0.005989 0.997269
vt 0.633332 0.581968
vt 0.985330 0.336064
vt 0.944346 0.663935
vt 0.944346 0.336064
vt 0.404917 0.581968
vt 0.707647 0.336064
vt 0.330602 0.002731
vt 0.710578 0.330602
vt 0.891362 0.336064
vt 0.002731 0.336064
vt 0.336064 0.002731
vt 0.933804 0.330602
vt 0.980250 0.330602
vt 0.988953 0.330602
vt 0.985330 0.663935
vt 0.636611 0.581968
vt 0.879976 0.002731
vt 0.716040 0.330602
vt 0.716040 0.002731
vt 0.401639 0.581968
vt 0.879976 0.330602
vn -0.0000 -1.0000 -0.0000
vn 0.0000 -0.9797 0.2007
vn 1.0000 0.0000 -0.0000
vn 0.0000 -0.0000 1.0000
vn -1.0000 0.0000 0.0000
vn 0.0000 1.0000 0.0000
vn -0.0000 0.0000 -1.0000
vn -0.0000 -0.4434 -0.8963
vn -0.0000 -0.5315 -0.8470
vn 0.0000 -0.9194 0.3933
vn -0.0000 -0.9797 -0.2007
vn -0.0000 -0.9194 -0.3933
vn -0.0000 -0.8751 -0.4840
vn 0.9942 0.1075 0.0000
vn -0.0000 -0.8218 -0.5698
vn -0.0000 -0.7601 -0.6498
vn 1.0000 0.0000 -0.0091
vn -0.0000 -0.6907 -0.7231
vn 0.0000 -0.5315 0.8470
vn 0.0000 -0.4434 0.8963
vn 0.0000 -0.6907 0.7231
vn 0.0000 -0.7601 0.6498
vn 0.0000 -0.8218 0.5698
vn 0.0000 -0.8751 0.4840
vn 0.9950 0.0000 -0.0998
s 1
f 2/1/1 4/2/2 1/3/2
f 5/4/3 2/5/3 1/6/3
f 5/4/3 6/7/3 2/5/3
f 7/8/3 6/7/3 5/4/3
f 6/7/3 7/8/3 8/9/3
f 8/9/3 7/8/3 9/10/3
f 9/10/3 7/8/3 10/11/3
f 10/11/3 7/8/3 11/12/3
f 11/12/3 7/8/3 12/13/3
f 14/14/4 7/15/4 13/16/4
f 13/17/5 15/18/5 14/19/5
f 15/18/5 13/17/5 16/20/5
f 16/20/5 13/17/5 17/21/5
f 17/21/5 13/17/5 18/22/5
f 18/22/5 13/17/5 19/23/5
f 19/23/5 13/17/5 20/24/5
f 5/25/6 13/26/6 7/27/6
f 20/28/7 22/29/7 21/30/7
f 21/31/5 23/32/5 20/24/5
f 21/31/5 24/33/5 23/32/5
f 21/31/5 25/34/5 24/33/5
f 14/19/5 25/34/5 21/31/5
f 25/34/5 14/19/5 26/35/5
f 14/19/5 15/18/5 26/35/5
f 27/36/8 15/37/9 11/38/9
f 11/12/3 12/13/3 27/39/3
f 12/13/3 28/40/3 27/39/3
f 28/40/3 12/13/3 22/41/3
f 21/42/1 12/43/1 14/44/1
f 28/40/3 22/41/3 29/45/3
f 29/45/3 22/41/3 30/46/3
f 30/46/3 22/41/3 31/47/3
f 5/4/3 31/47/3 22/41/3
f 5/4/3 32/48/3 31/47/3
f 5/4/3 33/49/3 32/48/3
f 5/4/3 34/50/3 33/49/3
f 5/4/3 35/51/3 34/50/3
f 5/4/3 36/52/3 35/51/3
f 5/4/3 37/53/3 36/52/3
f 5/4/3 1/6/3 37/53/3
f 1/3/2 38/54/10 37/55/10
f 4/56/5 20/24/5 38/57/5
f 3/58/5 20/24/5 4/56/5
f 19/23/5 20/24/5 3/58/5
f 6/59/11 3/60/1 2/1/1
f 8/61/12 19/62/11 6/59/11
f 39/63/13 18/64/12 8/61/12
f 8/9/3 9/10/3 39/65/14
f 9/66/15 40/67/13 39/63/13
f 41/68/16 17/69/15 9/66/15
f 9/10/3 10/11/3 41/70/17
f 10/71/18 42/72/16 41/68/16
f 11/38/9 16/73/18 10/74/18
f 16/20/5 17/21/5 42/75/5
f 17/21/5 18/22/5 40/76/5
f 38/57/5 20/24/5 43/77/5
f 43/77/5 20/24/5 44/78/5
f 44/78/5 20/24/5 45/79/5
f 45/79/5 20/24/5 46/80/5
f 46/80/5 20/24/5 47/81/5
f 47/81/5 20/24/5 23/32/5
f 32/82/19 23/83/20 31/84/20
f 33/85/21 47/86/19 32/82/19
f 34/87/22 46/88/21 33/89/21
f 35/90/23 45/91/22 34/87/22
f 36/92/24 44/93/23 35/90/23
f 37/55/10 43/94/24 36/92/24
f 31/95/6 49/96/6 48/97/6
f 31/47/3 48/98/3 30/46/3
f 48/99/4 50/100/4 30/101/4
f 23/32/5 50/102/5 49/103/5
f 50/102/5 23/32/5 24/33/5
f 52/104/25 53/105/3 28/106/3
f 52/107/7 54/108/7 53/109/7
f 25/110/5 54/108/5 51/111/5
f 25/34/5 26/35/5 54/112/5
f 53/113/6 26/114/6 27/115/6
f 27/39/3 28/40/3 53/116/3
f 2/1/1 3/60/1 4/2/2
f 14/14/4 12/117/4 7/15/4
f 5/25/6 20/118/6 13/26/6
f 20/28/7 5/119/7 22/29/7
f 27/36/8 26/120/8 15/37/9
f 21/42/1 22/121/1 12/43/1
f 1/3/2 4/2/2 38/54/10
f 6/59/11 19/62/11 3/60/1
f 8/61/12 18/64/12 19/62/11
f 39/63/13 40/67/13 18/64/12
f 9/66/15 17/69/15 40/67/13
f 41/68/16 42/72/16 17/69/15
f 10/71/18 16/122/18 42/72/16
f 11/38/9 15/37/9 16/73/18
f 32/82/19 47/86/19 23/83/20
f 33/85/21 46/123/21 47/86/19
f 34/87/22 45/91/22 46/88/21
f 35/90/23 44/93/23 45/91/22
f 36/92/24 43/94/24 44/93/23
f 37/55/10 38/54/10 43/94/24
f 31/95/6 23/124/6 49/96/6
f 48/99/4 49/125/4 50/100/4
f 52/107/7 51/111/7 54/108/7
f 53/113/6 54/126/6 26/114/6
f 50/102/5 25/34/5 51/127/5
f 30/128/6 51/129/6 52/130/6
f 52/131/25 29/45/3 30/46/3
f 50/102/5 24/33/5 25/34/5
f 30/128/6 50/132/6 51/129/6
f 52/131/25 28/40/3 29/45/3
