# Blender v2.92.0 OBJ File: 'kenney_OGConvert.blend'
# www.blender.org
o roadTile_227
v -0.000000 1.100000 -0.375000
v 0.000000 1.100000 0.000000
v 3.000000 1.100000 -0.000000
v 3.000000 1.100000 -0.375000
v -0.000000 0.470000 -2.250000
v 0.000000 0.470000 0.000000
v -0.000000 1.070000 -0.375000
v -0.000000 0.770000 -0.375000
v -0.000000 0.770000 -1.875000
v -0.000000 1.070000 -1.875000
v -0.000000 1.100000 -1.875000
v -0.000000 1.100000 -2.250000
v 1.718180 0.470000 -0.000000
v 1.718180 0.470000 -2.250000
v 3.000000 0.000000 -0.000001
v 3.000000 0.000000 -2.250000
v 3.000000 1.100000 -2.250000
v 3.000000 1.100000 -1.875000
v 3.000000 1.070000 -1.875000
v 3.000000 0.770000 -1.875000
v 3.000000 0.770000 -0.375000
v 3.000000 1.070000 -0.375000
vt 0.816951 0.497712
vt 0.878879 0.002288
vt 0.878879 0.497712
vt 0.854933 0.502288
vt 0.854933 0.873856
vt 0.805391 0.564216
vt 0.373856 0.503652
vt 0.002288 0.224278
vt 0.373856 0.224278
vt 0.482471 0.786031
vt 0.560087 0.997712
vt 0.378432 0.997712
vt 0.002288 0.002288
vt 0.373856 0.002288
vt 0.708336 0.286031
vt 0.708336 0.002288
vt 0.812375 0.002288
vt 0.564663 0.873856
vt 0.564663 0.502288
vt 0.691822 0.811928
vt 0.945382 0.002288
vt 0.883454 0.497712
vt 0.883454 0.002288
vt 0.949958 0.002288
vt 0.954912 0.497712
vt 0.949958 0.497712
vt 0.959487 0.002288
vt 0.964442 0.497712
vt 0.959487 0.497712
vt 0.816951 0.002288
vt 0.750894 0.873856
vt 0.805391 0.811928
vt 0.750894 0.811928
vt 0.755848 0.811928
vt 0.750894 0.564216
vt 0.750894 0.502288
vt 0.755848 0.564216
vt 0.002288 0.503652
vt 0.378432 0.502288
vt 0.482471 0.502288
vt 0.812375 0.497712
vt 0.630719 0.497712
vt 0.746318 0.502288
vt 0.691822 0.564216
vt 0.746318 0.564216
vt 0.741364 0.564216
vt 0.746318 0.811928
vt 0.746318 0.873856
vt 0.741364 0.811928
vt 0.945382 0.497712
vt 0.954912 0.002288
vt 0.964442 0.002288
vt 0.626144 0.497712
vt 0.378432 0.002288
vt 0.626144 0.002288
vt 0.378432 0.497712
vn 0.0000 1.0000 0.0000
vn -1.0000 0.0000 0.0000
vn -0.0000 -1.0000 -0.0000
vn 0.0000 -0.0000 1.0000
vn -0.3443 -0.9389 0.0000
vn -0.0000 -0.0000 -1.0000
vn 1.0000 0.0000 -0.0000
s 1
f 2/1/1 4/2/1 1/3/1
f 5/4/2 6/5/2 9/6/2
f 6/7/3 14/8/3 13/9/3
f 13/10/4 15/11/4 3/12/4
f 13/9/5 16/13/5 15/14/5
f 14/15/6 5/16/6 12/17/6
f 15/18/7 16/19/7 21/20/7
f 17/21/1 11/22/1 18/23/1
f 19/24/4 11/25/4 10/26/4
f 7/27/6 4/28/6 22/29/6
f 2/1/1 3/30/1 4/2/1
f 6/5/2 2/31/2 8/32/2
f 2/31/2 1/33/2 7/34/2
f 7/34/2 8/32/2 2/31/2
f 11/35/2 12/36/2 10/37/2
f 12/36/2 5/4/2 9/6/2
f 10/37/2 12/36/2 9/6/2
f 6/5/2 8/32/2 9/6/2
f 6/7/3 5/38/3 14/8/3
f 3/12/4 2/39/4 13/10/4
f 2/39/4 6/40/4 13/10/4
f 13/9/5 14/8/5 16/13/5
f 12/17/6 17/41/6 14/15/6
f 17/41/6 16/42/6 14/15/6
f 16/19/7 17/43/7 20/44/7
f 17/43/7 18/45/7 19/46/7
f 19/46/7 20/44/7 17/43/7
f 4/47/7 3/48/7 22/49/7
f 3/48/7 15/18/7 21/20/7
f 22/49/7 3/48/7 21/20/7
f 16/19/7 20/44/7 21/20/7
f 17/21/1 12/50/1 11/22/1
f 19/24/4 18/51/4 11/25/4
f 7/27/6 1/52/6 4/28/6
f 10/53/1 22/54/1 19/55/1
f 9/6/2 7/34/2 10/37/2
f 21/20/7 19/46/7 22/49/7
f 10/53/1 7/56/1 22/54/1
f 9/6/2 8/32/2 7/34/2
f 21/20/7 20/44/7 19/46/7
