# Blender v2.92.0 OBJ File: 'kenney_OGConvert.blend'
# www.blender.org
o roadTile_093
v 1.141039 0.630000 -2.755260
v 1.125000 0.630000 -3.000000
v 1.125000 0.570000 -3.000000
v 1.141039 0.570000 -2.755260
v 1.875000 0.630000 -3.000000
v 1.188890 0.630000 -2.514710
v 1.267730 0.630000 -2.282470
v 1.376200 0.630000 -2.062500
v 2.382460 0.630000 -2.062500
v 2.315140 0.630000 -2.107481
v 2.204499 0.630000 -2.204500
v 2.107480 0.630000 -2.315140
v 2.025719 0.630000 -2.437500
v 1.960639 0.630000 -2.569480
v 1.913329 0.630000 -2.708830
v 1.884619 0.630000 -2.853160
v 3.000000 0.630000 -3.000000
v 3.000000 0.000000 -3.000000
v -0.000001 0.000000 -3.000000
v -0.000001 0.630000 -3.000000
v 0.937499 0.630000 -3.000000
v 0.937499 0.570000 -3.000000
v 1.875000 0.570000 -3.000000
v 2.062500 0.570000 -3.000000
v 2.062500 0.630000 -3.000000
v 3.000000 0.000000 -0.000001
v 3.000000 0.630000 -2.062500
v 3.000000 0.570000 -2.062500
v 3.000000 0.570000 -1.875000
v 3.000000 0.630000 -1.875000
v 3.000000 0.630000 -1.125000
v 3.000000 0.570000 -1.125000
v 3.000000 0.570000 -0.937500
v 3.000000 0.630000 -0.937500
v 3.000000 0.630000 -0.000000
v 0.000000 0.000000 -0.000000
v 0.000000 0.630000 0.000000
v -0.000000 0.630000 -0.937500
v -0.000000 0.570000 -0.937500
v -0.000000 0.570000 -1.125000
v -0.000000 0.630000 -1.125000
v -0.000000 0.630000 -1.875000
v -0.000000 0.570000 -1.875000
v -0.000000 0.570000 -2.062500
v -0.000000 0.630000 -2.062500
v 1.501490 0.570000 -1.875000
v 2.877630 0.570000 -2.070520
v 2.757360 0.570000 -2.094440
v 2.641230 0.570000 -2.133861
v 2.531250 0.570000 -2.188101
v 2.429290 0.570000 -2.256231
v 2.337090 0.570000 -2.337090
v 2.256230 0.570000 -2.429291
v 2.188100 0.570000 -2.531250
v 2.133860 0.570000 -2.641230
v 2.094440 0.570000 -2.757360
v 2.070519 0.570000 -2.877630
v 1.884619 0.570000 -2.853160
v 1.913329 0.570000 -2.708830
v 1.960639 0.570000 -2.569480
v 2.025719 0.570000 -2.437500
v 2.107480 0.570000 -2.315140
v 2.204499 0.570000 -2.204500
v 2.315140 0.570000 -2.107481
v 2.382460 0.570000 -2.062500
v 1.376200 0.570000 -2.062500
v 1.267730 0.570000 -2.282470
v 1.188890 0.570000 -2.514710
v 0.955145 0.570000 -2.730790
v 1.007779 0.570000 -2.466190
v 1.094500 0.570000 -2.210720
v 1.167590 0.570000 -2.062500
v 1.276460 0.570000 -1.875000
v 1.363710 0.570000 -1.744430
v 1.541590 0.570000 -1.541590
v 1.744430 0.570000 -1.363710
v 1.968750 0.570000 -1.213820
v 2.148860 0.570000 -1.125000
v 2.755260 0.570000 -1.141040
v 2.514710 0.570000 -1.188890
v 2.282470 0.570000 -1.267730
v 2.062500 0.570000 -1.376200
v 1.858570 0.570000 -1.512460
v 1.674170 0.570000 -1.674170
v 1.512460 0.570000 -1.858570
v 1.501490 0.630000 -1.875000
v 1.512460 0.630000 -1.858570
v 1.674170 0.630000 -1.674170
v 1.858570 0.630000 -1.512460
v 2.062500 0.630000 -1.376200
v 2.282470 0.630000 -1.267730
v 2.514710 0.630000 -1.188890
v 2.755260 0.630000 -1.141040
v 2.877630 0.630000 -2.070520
v 2.070519 0.630000 -2.877630
v 2.094440 0.630000 -2.757360
v 2.133860 0.630000 -2.641230
v 2.188100 0.630000 -2.531250
v 2.256230 0.630000 -2.429291
v 2.337090 0.630000 -2.337090
v 2.429290 0.630000 -2.256231
v 2.531250 0.630000 -2.188101
v 2.641230 0.630000 -2.133861
v 2.757360 0.630000 -2.094440
v 0.955145 0.630000 -2.730790
v 1.167590 0.630000 -2.062500
v 1.094500 0.630000 -2.210720
v 1.007779 0.630000 -2.466190
v 1.276460 0.630000 -1.875000
v 2.148860 0.630000 -1.125000
v 1.968750 0.630000 -1.213820
v 1.744430 0.630000 -1.363710
v 1.541590 0.630000 -1.541590
v 1.363710 0.630000 -1.744430
vt 0.969762 0.570025
vt 0.979542 0.609449
vt 0.969762 0.609449
vt 0.962644 0.490615
vt 0.952863 0.003559
vt 0.962644 0.003559
vt 0.969762 0.689205
vt 0.979542 0.728173
vt 0.969762 0.728173
vt 0.969762 0.649403
vt 0.979542 0.689205
vt 0.979542 0.649403
vt 0.979542 0.570025
vt 0.952863 0.490615
vt 0.665335 0.540664
vt 0.624152 0.659872
vt 0.604206 0.646544
vt 0.843047 0.490615
vt 0.935964 0.307969
vt 0.935964 0.338410
vt 0.273317 0.499715
vt 0.366235 0.678163
vt 0.366235 0.797129
vt 0.003559 0.492597
vt 0.492597 0.003559
vt 0.492597 0.492597
vt 0.945745 0.497732
vt 0.843047 0.979376
vt 0.843047 0.497732
vt 0.266199 0.975577
vt 0.173282 0.797129
vt 0.173282 0.678163
vt 0.156383 0.499715
vt 0.003559 0.988753
vt 0.003559 0.499715
vt 0.784298 0.664883
vt 0.792098 0.704096
vt 0.672453 0.743991
vt 0.785724 0.756316
vt 0.805330 0.752417
vt 0.825278 0.903934
vt 0.665335 0.711815
vt 0.599529 0.876096
vt 0.556396 0.867516
vt 0.383133 0.850007
vt 0.422046 0.565642
vt 0.451043 0.598708
vt 0.536448 0.623543
vt 0.512511 0.621975
vt 0.512511 0.499715
vt 0.552407 0.502330
vt 0.591619 0.510130
vt 0.559975 0.628223
vt 0.629478 0.522982
vt 0.665335 0.704697
vt 0.658003 0.693723
vt 0.642188 0.675687
vt 0.582691 0.635935
vt 0.945745 0.338410
vt 0.945745 0.490615
vt 0.843047 0.003559
vt 0.935964 0.186205
vt 0.945745 0.003559
vt 0.935964 0.155764
vt 0.945745 0.155764
vt 0.945745 0.186205
vt 0.945745 0.307969
vt 0.376015 0.975577
vt 0.273317 0.975577
vt 0.366235 0.826870
vt 0.376015 0.499715
vt 0.366235 0.648422
vt 0.376015 0.648422
vt 0.376015 0.826870
vt 0.376015 0.678163
vt 0.376015 0.797129
vt 0.003559 0.003559
vt 0.945745 0.979376
vt 0.163501 0.499715
vt 0.266199 0.499715
vt 0.173282 0.648422
vt 0.163501 0.975577
vt 0.173282 0.826870
vt 0.163501 0.826870
vt 0.163501 0.648422
vt 0.163501 0.797129
vt 0.163501 0.678163
vt 0.156383 0.988753
vt 0.794713 0.743991
vt 0.672453 0.499715
vt 0.675132 0.501503
vt 0.705191 0.527864
vt 0.731552 0.557924
vt 0.753764 0.591167
vt 0.771446 0.627025
vt 0.825278 0.751109
vt 0.672453 0.903934
vt 0.673761 0.883986
vt 0.677660 0.864380
vt 0.684086 0.845450
vt 0.692928 0.827522
vt 0.704034 0.810901
vt 0.717215 0.795871
vt 0.732245 0.782690
vt 0.748866 0.771584
vt 0.766794 0.762742
vt 0.512511 0.711815
vt 0.665335 0.902147
vt 0.641174 0.890233
vt 0.512511 0.864640
vt 0.505393 0.850007
vt 0.505393 0.641927
vt 0.383133 0.499715
vt 0.397612 0.529075
vt 0.484108 0.627705
vt 0.683105 0.104226
vt 0.683105 0.268259
vt 0.652540 0.247835
vt 0.811612 0.743001
vt 0.801831 0.499715
vt 0.811612 0.499715
vt 0.450728 0.857125
vt 0.460509 0.860143
vt 0.450728 0.860143
vt 0.460509 0.895471
vt 0.450728 0.895471
vt 0.818730 0.499715
vt 0.828510 0.533887
vt 0.818730 0.533887
vt 0.828510 0.570476
vt 0.818730 0.570476
vt 0.828510 0.608855
vt 0.818730 0.608855
vt 0.828510 0.648367
vt 0.818730 0.648367
vt 0.828510 0.688338
vt 0.818730 0.688338
vt 0.828510 0.728084
vt 0.818730 0.728084
vt 0.400032 0.951436
vt 0.409813 0.971308
vt 0.400032 0.971308
vt 0.383133 0.857125
vt 0.392914 0.876837
vt 0.383133 0.876837
vt 0.392914 0.896813
vt 0.383133 0.896813
vt 0.392914 0.916715
vt 0.383133 0.916715
vt 0.392914 0.936199
vt 0.383133 0.936199
vt 0.392914 0.954932
vt 0.383133 0.954932
vt 0.392914 0.972596
vt 0.383133 0.972596
vt 0.400032 0.857125
vt 0.409813 0.874211
vt 0.400032 0.874211
vt 0.409813 0.892504
vt 0.400032 0.892504
vt 0.409813 0.911693
vt 0.400032 0.911693
vt 0.409813 0.931451
vt 0.400032 0.931451
vt 0.409813 0.951436
vt 0.979542 0.758945
vt 0.969762 0.735291
vt 0.979542 0.735291
vt 0.979542 0.782917
vt 0.969762 0.758945
vt 0.979542 0.806799
vt 0.969762 0.782917
vt 0.979542 0.830180
vt 0.969762 0.806799
vt 0.979542 0.852662
vt 0.969762 0.830180
vt 0.979542 0.873858
vt 0.969762 0.852662
vt 0.979542 0.893406
vt 0.969762 0.873858
vt 0.477408 0.868714
vt 0.467627 0.857125
vt 0.477408 0.857125
vt 0.952863 0.692304
vt 0.962644 0.853857
vt 0.952863 0.853857
vt 0.996441 0.046924
vt 0.986660 0.003559
vt 0.996441 0.003559
vt 0.952863 0.497732
vt 0.962644 0.685186
vt 0.952863 0.685186
vt 0.996441 0.160914
vt 0.986660 0.134656
vt 0.996441 0.134656
vt 0.986660 0.090874
vt 0.996441 0.090874
vt 0.986660 0.046924
vt 0.979542 0.562907
vt 0.969762 0.355671
vt 0.979542 0.355671
vt 0.969762 0.003559
vt 0.979542 0.348553
vt 0.969762 0.348553
vt 0.443610 0.926285
vt 0.433829 0.895741
vt 0.443610 0.895741
vt 0.433830 0.857125
vt 0.443610 0.857125
vt 0.426712 0.955815
vt 0.416931 0.919975
vt 0.426712 0.919975
vt 0.416931 0.881115
vt 0.426712 0.881115
vt 0.416931 0.857125
vt 0.426712 0.857125
vt 0.652540 0.003559
vt 0.683105 0.003559
vt 0.684412 0.023507
vt 0.688311 0.043112
vt 0.499715 0.003559
vt 0.530280 0.003559
vt 0.532895 0.043455
vt 0.530280 0.492597
vt 0.499715 0.492597
vt 0.530280 0.142306
vt 0.569193 0.208233
vt 0.544759 0.171666
vt 0.571229 0.156384
vt 0.540695 0.082667
vt 0.553547 0.120526
vt 0.631255 0.270295
vt 0.598190 0.241298
vt 0.619802 0.219686
vt 0.683105 0.492597
vt 0.652540 0.492597
vt 0.683105 0.302265
vt 0.652540 0.284518
vt 0.649861 0.246047
vt 0.593441 0.189627
vt 0.707266 0.314180
vt 0.718962 0.285941
vt 0.792044 0.336896
vt 0.748911 0.328316
vt 0.796033 0.306593
vt 0.756820 0.298793
vt 0.835929 0.309208
vt 0.835929 0.339773
vt 0.815981 0.155076
vt 0.835929 0.156384
vt 0.835929 0.186948
vt 0.811992 0.185380
vt 0.788465 0.180700
vt 0.796376 0.151177
vt 0.765749 0.172988
vt 0.777445 0.144751
vt 0.744234 0.162379
vt 0.724288 0.149051
vt 0.759517 0.135909
vt 0.706252 0.133236
vt 0.727866 0.111622
vt 0.742896 0.124803
vt 0.690437 0.115200
vt 0.714685 0.096592
vt 0.703579 0.079971
vt 0.694737 0.062043
vt 0.801831 0.743001
vt 0.460509 0.857125
vt 0.828510 0.499715
vt 0.392914 0.857125
vt 0.409813 0.857125
vt 0.969762 0.893406
vt 0.467627 0.868714
vt 0.962644 0.692304
vt 0.962644 0.497732
vt 0.986660 0.160914
vt 0.969762 0.562907
vt 0.979542 0.003559
vt 0.433829 0.926285
vt 0.416931 0.955815
vn -0.9979 0.0000 0.0654
vn -0.9914 0.0000 0.1305
vn -0.0000 0.0000 -1.0000
vn -0.9239 0.0000 0.3827
vn -0.8969 0.0000 0.4423
vn -0.9659 0.0000 0.2588
vn 0.0000 1.0000 -0.0000
vn 1.0000 -0.0000 -0.0000
vn -0.0000 -1.0000 -0.0000
vn 0.0000 -0.0000 1.0000
vn -1.0000 -0.0000 0.0000
vn -0.8317 0.0000 0.5553
vn -0.7935 0.0000 0.6086
vn -0.7071 0.0000 0.7071
vn -0.6088 -0.0000 0.7934
vn -0.5000 -0.0000 0.8660
vn -0.3827 0.0000 0.9239
vn -0.2588 0.0000 0.9659
vn -0.1305 0.0000 0.9914
vn -0.0654 0.0000 0.9979
vn -0.8660 -0.0000 0.5000
vn -0.7933 -0.0000 0.6088
vn -0.6088 0.0000 0.7933
vn 0.9914 0.0000 -0.1305
vn 0.9979 0.0000 -0.0654
vn 0.9659 0.0000 -0.2588
vn 0.9239 0.0000 -0.3827
vn 0.8660 0.0000 -0.5000
vn 0.7934 0.0000 -0.6087
vn 0.7071 0.0000 -0.7071
vn 0.6087 0.0000 -0.7934
vn 0.5556 0.0000 -0.8315
vn 0.8969 0.0000 -0.4423
vn 0.4423 0.0000 -0.8969
vn 0.5000 0.0000 -0.8660
vn 0.6088 0.0000 -0.7934
vn 0.7933 0.0000 -0.6088
vn 0.8315 0.0000 -0.5556
s 1
f 2/1/1 4/2/2 1/3/2
f 34/4/3 39/5/3 38/6/3
f 7/7/4 66/8/5 8/9/5
f 6/10/6 67/11/4 7/7/4
f 1/3/2 68/12/6 6/10/6
f 2/1/1 3/13/1 4/2/2
f 34/4/3 33/14/3 39/5/3
f 7/7/4 67/11/4 66/8/5
f 6/10/6 68/12/6 67/11/4
f 1/3/2 4/2/2 68/12/6
f 8/15/7 12/16/7 13/17/7
f 18/18/3 23/19/3 24/20/3
f 18/21/8 29/22/8 32/23/8
f 36/24/9 18/25/9 26/26/9
f 36/27/10 35/28/10 37/29/10
f 36/30/11 40/31/11 43/32/11
f 34/33/7 37/34/7 35/35/7
f 92/36/7 93/37/7 30/38/7
f 104/39/7 94/40/7 17/41/7
f 45/42/7 108/43/7 105/44/7
f 41/45/7 112/46/7 113/47/7
f 16/48/7 5/49/7 2/50/7
f 2/50/7 1/51/7 16/48/7
f 1/51/7 6/52/7 15/53/7
f 6/52/7 7/54/7 15/53/7
f 7/54/7 8/15/7 13/17/7
f 8/15/7 9/55/7 10/56/7
f 8/15/7 10/56/7 11/57/7
f 1/51/7 15/53/7 16/48/7
f 7/54/7 13/17/7 14/58/7
f 12/16/7 8/15/7 11/57/7
f 14/58/7 15/53/7 7/54/7
f 25/59/3 17/60/3 24/20/3
f 17/60/3 18/18/3 24/20/3
f 18/18/3 19/61/3 3/62/3
f 19/61/3 20/63/3 22/64/3
f 20/63/3 21/65/3 22/64/3
f 3/62/3 2/66/3 5/67/3
f 19/61/3 22/64/3 3/62/3
f 3/62/3 5/67/3 23/19/3
f 18/18/3 3/62/3 23/19/3
f 35/68/8 26/69/8 33/70/8
f 26/69/8 18/21/8 32/23/8
f 33/70/8 26/69/8 32/23/8
f 18/21/8 17/71/8 28/72/8
f 17/71/8 27/73/8 28/72/8
f 33/70/8 34/74/8 35/68/8
f 30/75/8 31/76/8 32/23/8
f 29/22/8 30/75/8 32/23/8
f 18/21/8 28/72/8 29/22/8
f 36/24/9 19/77/9 18/25/9
f 36/27/10 26/78/10 35/28/10
f 20/79/11 19/80/11 44/81/11
f 19/80/11 36/30/11 43/32/11
f 44/81/11 19/80/11 43/32/11
f 36/30/11 37/82/11 39/83/11
f 37/82/11 38/84/11 39/83/11
f 44/81/11 45/85/11 20/79/11
f 41/86/11 42/87/11 43/32/11
f 40/31/11 41/86/11 43/32/11
f 36/30/11 39/83/11 40/31/11
f 34/33/7 38/88/7 37/34/7
f 31/89/7 30/38/7 93/37/7
f 30/38/7 86/90/7 87/91/7
f 88/92/7 30/38/7 87/91/7
f 88/92/7 89/93/7 30/38/7
f 89/93/7 90/94/7 30/38/7
f 90/94/7 91/95/7 30/38/7
f 91/95/7 92/36/7 30/38/7
f 27/96/7 17/41/7 94/40/7
f 17/41/7 25/97/7 95/98/7
f 96/99/7 17/41/7 95/98/7
f 96/99/7 97/100/7 17/41/7
f 97/100/7 98/101/7 17/41/7
f 98/101/7 99/102/7 17/41/7
f 99/102/7 100/103/7 17/41/7
f 100/103/7 101/104/7 17/41/7
f 101/104/7 102/105/7 17/41/7
f 102/105/7 103/106/7 17/41/7
f 103/106/7 104/39/7 17/41/7
f 20/107/7 45/42/7 105/44/7
f 45/42/7 106/108/7 107/109/7
f 45/42/7 107/109/7 108/43/7
f 105/44/7 21/110/7 20/107/7
f 42/111/7 41/45/7 109/112/7
f 41/45/7 110/113/7 111/114/7
f 41/45/7 111/114/7 112/46/7
f 114/115/7 109/112/7 41/45/7
f 113/47/7 114/115/7 41/45/7
f 65/116/7 66/117/7 46/118/7
f 30/119/3 46/120/3 86/121/3
f 86/122/12 85/123/13 87/124/13
f 87/124/13 84/125/14 88/126/14
f 88/127/14 83/128/15 89/129/15
f 89/129/15 82/130/16 90/131/16
f 90/131/16 81/132/17 91/133/17
f 91/133/17 80/134/18 92/135/18
f 92/135/18 79/136/19 93/137/19
f 93/137/19 32/138/20 31/139/20
f 94/140/19 28/141/20 27/142/20
f 25/143/1 57/144/2 95/145/2
f 95/145/2 56/146/6 96/147/6
f 96/147/6 55/148/4 97/149/4
f 97/149/4 54/150/21 98/151/21
f 98/151/21 53/152/22 99/153/22
f 99/153/22 52/154/14 100/155/14
f 100/156/14 51/157/23 101/158/23
f 101/158/23 50/159/16 102/160/16
f 102/160/16 49/161/17 103/162/17
f 103/162/17 48/163/18 104/164/18
f 104/164/18 47/165/19 94/140/19
f 16/166/24 23/167/25 5/168/25
f 15/169/26 58/170/24 16/166/24
f 14/171/27 59/172/26 15/169/26
f 13/173/28 60/174/27 14/171/27
f 12/175/29 61/176/28 13/173/28
f 11/177/30 62/178/29 12/175/29
f 10/179/31 63/180/30 11/177/30
f 9/181/32 64/182/31 10/183/31
f 8/184/10 65/185/10 9/186/10
f 105/187/24 22/188/25 21/189/25
f 45/190/10 72/191/10 106/192/10
f 106/193/33 71/194/27 107/195/27
f 107/195/27 70/196/26 108/197/26
f 108/197/26 69/198/24 105/187/24
f 109/199/3 43/200/3 42/201/3
f 41/202/10 78/203/10 110/204/10
f 110/205/34 77/206/35 111/207/35
f 111/207/35 76/208/36 112/209/36
f 112/210/36 75/211/30 113/212/30
f 113/212/30 74/213/37 114/214/37
f 114/214/37 73/215/38 109/216/38
f 46/118/7 29/217/7 65/116/7
f 29/217/7 28/218/7 47/219/7
f 29/217/7 47/219/7 48/220/7
f 29/217/7 48/220/7 65/116/7
f 33/221/7 32/222/7 79/223/7
f 40/224/7 39/225/7 78/226/7
f 39/225/7 33/221/7 78/226/7
f 76/227/7 77/228/7 82/229/7
f 77/228/7 78/226/7 82/229/7
f 33/221/7 79/223/7 80/230/7
f 33/221/7 80/230/7 78/226/7
f 80/230/7 81/231/7 78/226/7
f 74/232/7 75/233/7 84/234/7
f 75/233/7 76/227/7 84/234/7
f 44/235/7 43/236/7 72/237/7
f 43/236/7 73/238/7 72/237/7
f 73/238/7 74/232/7 46/118/7
f 78/226/7 81/231/7 82/229/7
f 74/232/7 84/234/7 85/239/7
f 76/227/7 82/229/7 83/240/7
f 76/227/7 83/240/7 84/234/7
f 71/241/7 72/237/7 67/242/7
f 72/237/7 73/238/7 66/117/7
f 67/242/7 72/237/7 66/117/7
f 69/243/7 70/244/7 4/245/7
f 70/244/7 71/241/7 68/246/7
f 3/247/7 22/248/7 69/243/7
f 4/245/7 3/247/7 69/243/7
f 70/244/7 68/246/7 4/245/7
f 68/246/7 71/241/7 67/242/7
f 74/232/7 85/239/7 46/118/7
f 57/249/7 24/250/7 23/251/7
f 23/251/7 58/252/7 57/249/7
f 58/252/7 59/253/7 56/254/7
f 59/253/7 60/255/7 55/256/7
f 60/255/7 61/257/7 55/256/7
f 61/257/7 62/258/7 54/259/7
f 62/258/7 63/260/7 52/261/7
f 54/259/7 62/258/7 53/262/7
f 63/260/7 64/263/7 52/261/7
f 64/263/7 65/116/7 51/264/7
f 52/261/7 64/263/7 51/264/7
f 58/252/7 56/254/7 57/249/7
f 55/256/7 56/254/7 59/253/7
f 53/262/7 62/258/7 52/261/7
f 55/256/7 61/257/7 54/259/7
f 50/265/7 51/264/7 65/116/7
f 49/266/7 50/265/7 65/116/7
f 73/238/7 46/118/7 66/117/7
f 48/220/7 49/266/7 65/116/7
f 30/119/3 29/267/3 46/120/3
f 86/122/12 46/268/12 85/123/13
f 87/124/13 85/123/13 84/125/14
f 88/127/14 84/269/14 83/128/15
f 89/129/15 83/128/15 82/130/16
f 90/131/16 82/130/16 81/132/17
f 91/133/17 81/132/17 80/134/18
f 92/135/18 80/134/18 79/136/19
f 93/137/19 79/136/19 32/138/20
f 94/140/19 47/165/19 28/141/20
f 25/143/1 24/270/1 57/144/2
f 95/145/2 57/144/2 56/146/6
f 96/147/6 56/146/6 55/148/4
f 97/149/4 55/148/4 54/150/21
f 98/151/21 54/150/21 53/152/22
f 99/153/22 53/152/22 52/154/14
f 100/156/14 52/271/14 51/157/23
f 101/158/23 51/157/23 50/159/16
f 102/160/16 50/159/16 49/161/17
f 103/162/17 49/161/17 48/163/18
f 104/164/18 48/163/18 47/165/19
f 16/166/24 58/170/24 23/167/25
f 15/169/26 59/172/26 58/170/24
f 14/171/27 60/174/27 59/172/26
f 13/173/28 61/176/28 60/174/27
f 12/175/29 62/178/29 61/176/28
f 11/177/30 63/180/30 62/178/29
f 10/179/31 64/272/31 63/180/30
f 9/181/32 65/273/32 64/182/31
f 8/184/10 66/274/10 65/185/10
f 105/187/24 69/198/24 22/188/25
f 45/190/10 44/275/10 72/191/10
f 106/193/33 72/276/33 71/194/27
f 107/195/27 71/194/27 70/196/26
f 108/197/26 70/196/26 69/198/24
f 109/199/3 73/277/3 43/200/3
f 41/202/10 40/278/10 78/203/10
f 110/205/34 78/279/34 77/206/35
f 111/207/35 77/206/35 76/208/36
f 112/210/36 76/280/36 75/211/30
f 113/212/30 75/211/30 74/213/37
f 114/214/37 74/213/37 73/215/38
