# Blender v2.92.0 OBJ File: 'kenney_OGConvert.blend'
# www.blender.org
o roadTile_288
v 1.188890 0.630000 -2.514710
v 1.267730 0.630000 -2.282470
v 1.267730 0.600000 -2.282470
v 1.188890 0.600000 -2.514710
v 3.000000 0.630000 -0.000000
v 3.000000 0.630000 -1.125000
v 2.755260 0.630000 -1.141040
v 2.514710 0.630000 -1.188890
v 2.282470 0.630000 -1.267730
v 2.062500 0.630000 -1.376200
v 1.858570 0.630000 -1.512460
v 1.674170 0.630000 -1.674170
v 1.512460 0.630000 -1.858570
v 1.376200 0.630000 -2.062500
v 1.141039 0.630000 -2.755260
v 1.125000 0.630000 -3.000000
v -0.000001 0.630000 -3.000000
v 0.000000 0.630000 0.000000
v 3.000000 0.000000 -0.000001
v 3.000000 0.000000 -3.000000
v 3.000000 0.630000 -3.000000
v 3.000000 0.630000 -1.875000
v 3.000000 0.600000 -1.875000
v 3.000000 0.300000 -1.875000
v 3.000000 0.300000 -1.125000
v 3.000000 0.600000 -1.125000
v -0.000001 0.000000 -3.000000
v -0.000000 0.000000 -0.000000
v 1.125000 0.600000 -3.000000
v 1.125000 0.300000 -3.000000
v 1.875000 0.300000 -3.000000
v 1.875000 0.600000 -3.000000
v 1.875000 0.630000 -3.000000
v 1.141039 0.600000 -2.755260
v 1.376200 0.600000 -2.062500
v 1.512460 0.600000 -1.858570
v 1.674170 0.600000 -1.674170
v 1.858570 0.600000 -1.512460
v 2.062500 0.600000 -1.376200
v 2.282470 0.600000 -1.267730
v 2.514710 0.600000 -1.188890
v 2.755260 0.600000 -1.141040
v 2.853160 0.600000 -1.884620
v 2.708830 0.600000 -1.913330
v 2.569480 0.600000 -1.960640
v 2.437500 0.600000 -2.025720
v 2.315140 0.600000 -2.107481
v 2.204499 0.600000 -2.204500
v 2.107480 0.600000 -2.315140
v 2.025719 0.600000 -2.437500
v 1.960639 0.600000 -2.569480
v 1.913329 0.600000 -2.708830
v 1.884619 0.600000 -2.853160
v 2.853160 0.630000 -1.884620
v 1.884619 0.630000 -2.853160
v 1.913329 0.630000 -2.708830
v 1.960639 0.630000 -2.569480
v 2.025719 0.630000 -2.437500
v 2.107480 0.630000 -2.315140
v 2.204499 0.630000 -2.204500
v 2.315140 0.630000 -2.107481
v 2.437500 0.630000 -2.025720
v 2.569480 0.630000 -1.960640
v 2.708830 0.630000 -1.913330
vt 0.625352 0.565541
vt 0.620398 0.525512
vt 0.625352 0.525512
vt 0.221236 0.221236
vt 0.247942 0.190784
vt 0.497720 0.497720
vt 0.793721 0.490228
vt 0.793721 0.002280
vt 0.843265 0.307247
vt 0.497720 0.502280
vt 0.002280 0.997720
vt 0.002280 0.502280
vt 0.551824 0.627732
vt 0.551824 0.749719
vt 0.502280 0.932699
vt 0.625352 0.485017
vt 0.620398 0.444752
vt 0.625352 0.444752
vt 0.620398 0.485017
vt 0.625352 0.604422
vt 0.620398 0.565541
vt 0.625352 0.641490
vt 0.620398 0.604422
vt 0.625352 0.676109
vt 0.620398 0.641490
vt 0.634867 0.479371
vt 0.629912 0.444751
vt 0.634867 0.444751
vt 0.634867 0.516438
vt 0.629912 0.479371
vt 0.634867 0.555320
vt 0.629912 0.516438
vt 0.634867 0.595349
vt 0.629912 0.555320
vt 0.634867 0.635843
vt 0.629912 0.595349
vt 0.634867 0.676109
vt 0.629912 0.635843
vt 0.610883 0.689752
vt 0.615837 0.706935
vt 0.610883 0.706935
vt 0.822822 0.712328
vt 0.846658 0.707586
vt 0.870908 0.891788
vt 0.610883 0.444751
vt 0.615837 0.464031
vt 0.610883 0.464031
vt 0.615837 0.485078
vt 0.610883 0.485078
vt 0.615837 0.507532
vt 0.610883 0.507532
vt 0.615837 0.531005
vt 0.610883 0.531005
vt 0.615837 0.555101
vt 0.610883 0.555101
vt 0.615837 0.579402
vt 0.610883 0.579402
vt 0.615837 0.603496
vt 0.610883 0.603496
vt 0.615837 0.626971
vt 0.610883 0.626971
vt 0.615837 0.649423
vt 0.610883 0.649423
vt 0.615837 0.670471
vt 0.610883 0.670471
vt 0.615837 0.689752
vt 0.789161 0.002280
vt 0.685118 0.374771
vt 0.685118 0.002280
vt 0.789161 0.374771
vt 0.685118 0.701437
vt 0.002280 0.497720
vt 0.157105 0.270445
vt 0.002280 0.311930
vt 0.042698 0.309281
vt 0.082424 0.301379
vt 0.311930 0.002280
vt 0.497720 0.002280
vt 0.309281 0.042698
vt 0.270445 0.157105
vt 0.301379 0.082424
vt 0.288358 0.120778
vt 0.120778 0.288359
vt 0.190784 0.247942
vt 0.897763 0.002280
vt 0.843265 0.185261
vt 0.897763 0.185261
vt 0.892809 0.185261
vt 0.897763 0.307247
vt 0.897763 0.490228
vt 0.892809 0.307247
vt 0.497720 0.997720
vt 0.606323 0.627732
vt 0.601368 0.627732
vt 0.606323 0.444751
vt 0.601368 0.749719
vt 0.606322 0.932699
vt 0.606323 0.749719
vt 0.502280 0.444751
vt 0.620398 0.676109
vt 0.629912 0.676109
vt 0.870908 0.705998
vt 0.685118 0.891788
vt 0.686707 0.867537
vt 0.691448 0.843702
vt 0.699261 0.820689
vt 0.710009 0.798893
vt 0.723511 0.778685
vt 0.739534 0.760414
vt 0.757806 0.744391
vt 0.778013 0.730889
vt 0.799809 0.720141
vt 0.615837 0.444751
vt 0.789160 0.701437
vt 0.512832 0.141092
vt 0.632472 0.173149
vt 0.627731 0.196986
vt 0.664534 0.334338
vt 0.680558 0.352609
vt 0.592976 0.440191
vt 0.566269 0.409738
vt 0.543766 0.376060
vt 0.651032 0.314131
vt 0.525853 0.339733
vt 0.512832 0.301379
vt 0.640284 0.292334
vt 0.504930 0.261653
vt 0.632472 0.269322
vt 0.502280 0.221236
vt 0.627731 0.245485
vt 0.504930 0.180818
vt 0.626140 0.221236
vt 0.525853 0.102738
vt 0.640284 0.150138
vt 0.543766 0.066411
vt 0.651032 0.128340
vt 0.566269 0.032733
vt 0.592976 0.002280
vt 0.664534 0.108133
vt 0.680558 0.089862
vn 0.9239 0.0000 -0.3827
vn 0.9659 0.0000 -0.2588
vn -0.0000 1.0000 0.0000
vn 1.0000 0.0000 -0.0000
vn -0.0000 -1.0000 -0.0000
vn -0.0000 -0.0000 -1.0000
vn 0.9914 0.0000 -0.1305
vn 0.9979 0.0000 -0.0654
vn 0.8660 0.0000 -0.5000
vn 0.7934 0.0000 -0.6088
vn 0.7071 0.0000 -0.7071
vn 0.6088 0.0000 -0.7934
vn 0.5000 0.0000 -0.8660
vn 0.3827 0.0000 -0.9239
vn 0.2588 0.0000 -0.9659
vn 0.1305 0.0000 -0.9914
vn 0.0654 0.0000 -0.9979
vn -0.1305 0.0000 0.9914
vn -0.0654 0.0000 0.9979
vn -0.9979 0.0000 0.0654
vn -0.9914 0.0000 0.1305
vn -0.9659 0.0000 0.2588
vn -0.9239 0.0000 0.3827
vn -0.8660 0.0000 0.5000
vn -0.7934 0.0000 0.6087
vn -0.7071 0.0000 0.7071
vn -0.6087 0.0000 0.7934
vn -0.5000 0.0000 0.8660
vn -0.3827 0.0000 0.9239
vn -0.2588 0.0000 0.9659
vn -1.0000 -0.0000 0.0000
vn 0.0000 -0.0000 1.0000
s 1
f 2/1/1 4/2/2 1/3/2
f 12/4/3 13/5/3 18/6/3
f 19/7/4 20/8/4 25/9/4
f 20/10/5 28/11/5 27/12/5
f 30/13/6 31/14/6 20/15/6
f 15/16/7 29/17/8 16/18/8
f 1/3/2 34/19/7 15/16/7
f 14/20/9 3/21/1 2/1/1
f 13/22/10 35/23/9 14/20/9
f 12/24/11 36/25/10 13/22/10
f 11/26/12 37/27/11 12/28/11
f 10/29/13 38/30/12 11/26/12
f 9/31/14 39/32/13 10/29/13
f 8/33/15 40/34/14 9/31/14
f 7/35/16 41/36/15 8/33/15
f 6/37/17 42/38/16 7/35/16
f 54/39/18 23/40/19 22/41/19
f 64/42/3 54/43/3 21/44/3
f 33/45/20 53/46/21 55/47/21
f 55/47/21 52/48/22 56/49/22
f 56/49/22 51/50/23 57/51/23
f 57/51/23 50/52/24 58/53/24
f 58/53/24 49/54/25 59/55/25
f 59/55/25 48/56/26 60/57/26
f 60/57/26 47/58/27 61/59/27
f 61/59/27 46/60/28 62/61/28
f 62/61/28 45/62/29 63/63/29
f 63/63/29 44/64/30 64/65/30
f 64/65/30 43/66/18 54/39/18
f 27/67/31 18/68/31 17/69/31
f 28/70/32 5/71/32 18/68/32
f 2/1/1 3/21/1 4/2/2
f 18/6/3 5/72/3 10/73/3
f 5/72/3 6/74/3 7/75/3
f 5/72/3 7/75/3 8/76/3
f 16/77/3 17/78/3 15/79/3
f 17/78/3 18/6/3 14/80/3
f 15/79/3 17/78/3 1/81/3
f 1/81/3 17/78/3 2/82/3
f 5/72/3 8/76/3 9/83/3
f 5/72/3 9/83/3 10/73/3
f 2/82/3 17/78/3 14/80/3
f 18/6/3 10/73/3 11/84/3
f 13/5/3 14/80/3 18/6/3
f 18/6/3 11/84/3 12/4/3
f 20/8/4 21/85/4 24/86/4
f 21/85/4 22/87/4 23/88/4
f 23/88/4 24/86/4 21/85/4
f 6/89/4 5/90/4 26/91/4
f 5/90/4 19/7/4 25/9/4
f 26/91/4 5/90/4 25/9/4
f 20/8/4 24/86/4 25/9/4
f 20/10/5 19/92/5 28/11/5
f 16/93/6 29/94/6 17/95/6
f 29/94/6 30/13/6 17/95/6
f 31/14/6 32/96/6 21/97/6
f 32/96/6 33/98/6 21/97/6
f 27/99/6 17/95/6 30/13/6
f 31/14/6 21/97/6 20/15/6
f 27/99/6 30/13/6 20/15/6
f 15/16/7 34/19/7 29/17/8
f 1/3/2 4/2/2 34/19/7
f 14/20/9 35/23/9 3/21/1
f 13/22/10 36/25/10 35/23/9
f 12/24/11 37/100/11 36/25/10
f 11/26/12 38/30/12 37/27/11
f 10/29/13 39/32/13 38/30/12
f 9/31/14 40/34/14 39/32/13
f 8/33/15 41/36/15 40/34/14
f 7/35/16 42/38/16 41/36/15
f 6/37/17 26/101/17 42/38/16
f 54/39/18 43/66/18 23/40/19
f 22/102/3 21/44/3 54/43/3
f 21/44/3 33/103/3 55/104/3
f 56/105/3 21/44/3 55/104/3
f 56/105/3 57/106/3 21/44/3
f 57/106/3 58/107/3 21/44/3
f 58/107/3 59/108/3 21/44/3
f 59/108/3 60/109/3 21/44/3
f 60/109/3 61/110/3 21/44/3
f 61/110/3 62/111/3 21/44/3
f 62/111/3 63/112/3 21/44/3
f 63/112/3 64/42/3 21/44/3
f 33/45/20 32/113/20 53/46/21
f 55/47/21 53/46/21 52/48/22
f 56/49/22 52/48/22 51/50/23
f 57/51/23 51/50/23 50/52/24
f 58/53/24 50/52/24 49/54/25
f 59/55/25 49/54/25 48/56/26
f 60/57/26 48/56/26 47/58/27
f 61/59/27 47/58/27 46/60/28
f 62/61/28 46/60/28 45/62/29
f 63/63/29 45/62/29 44/64/30
f 64/65/30 44/64/30 43/66/18
f 27/67/31 28/70/31 18/68/31
f 28/70/32 19/114/32 5/71/32
f 31/14/6 29/94/6 32/96/6
f 39/115/3 46/116/3 47/117/3
f 25/9/4 23/88/4 26/91/4
f 31/14/6 30/13/6 29/94/6
f 53/118/3 32/119/3 29/120/3
f 29/120/3 34/121/3 53/118/3
f 34/121/3 4/122/3 52/123/3
f 4/122/3 3/124/3 52/123/3
f 3/124/3 35/125/3 51/126/3
f 35/125/3 36/127/3 50/128/3
f 36/127/3 37/129/3 49/130/3
f 50/128/3 36/127/3 49/130/3
f 37/129/3 38/131/3 48/132/3
f 38/131/3 39/115/3 47/117/3
f 48/132/3 38/131/3 47/117/3
f 39/115/3 40/133/3 45/134/3
f 40/133/3 41/135/3 44/136/3
f 41/135/3 42/137/3 44/136/3
f 42/137/3 26/138/3 43/139/3
f 44/136/3 42/137/3 43/139/3
f 26/138/3 23/140/3 43/139/3
f 40/133/3 44/136/3 45/134/3
f 35/125/3 50/128/3 51/126/3
f 34/121/3 52/123/3 53/118/3
f 3/124/3 51/126/3 52/123/3
f 49/130/3 37/129/3 48/132/3
f 39/115/3 45/134/3 46/116/3
f 25/9/4 24/86/4 23/88/4
