# Blender v2.92.0 OBJ File: 'OGConvert.blend'
# www.blender.org
o roadTile_192
v 0.000000 8.800000 0.000000
v 0.000000 8.800000 -3.000000
v 0.000000 0.000000 -3.000000
v 0.000000 0.000000 0.000000
v 24.000000 4.400000 0.000000
v 24.000000 4.400000 -3.000000
v 24.000000 0.000000 -0.000000
v 24.000000 0.000000 -3.000000
v 0.000000 0.000001 -21.000000
v 0.000000 0.000001 -24.000000
v 24.000000 0.000001 -24.000000
v 24.000000 0.000001 -21.000000
v 0.000000 9.440000 -3.000000
v 0.000000 9.440000 -6.000000
v 0.000000 9.200000 -6.000000
v 0.000000 6.800001 -6.000000
v 0.000000 6.800001 -18.000000
v 0.000000 9.200001 -18.000000
v 0.000000 9.440001 -18.000000
v 0.000000 9.440001 -21.000000
v 0.000000 8.800001 -21.000000
v 24.000000 5.040000 -3.000000
v 24.000000 4.400001 -21.000000
v 24.000000 5.040001 -21.000000
v 24.000000 5.040001 -18.000000
v 24.000000 4.800001 -18.000000
v 24.000000 2.400001 -18.000000
v 24.000000 2.400000 -6.000000
v 24.000000 4.800001 -6.000000
v 24.000000 5.040000 -6.000000
v 24.000000 4.400001 -24.000000
v 0.000000 8.800001 -24.000000
vt 0.756009 0.427839
vt 0.934067 0.488540
vt 0.756009 0.488540
vt 0.936878 0.988103
vt 0.876176 0.494397
vt 0.936878 0.494397
vt 0.091957 0.494397
vt 0.002928 0.980009
vt 0.002928 0.494397
vt 0.370757 0.919307
vt 0.459786 0.980009
vt 0.370757 0.980009
vt 0.427839 0.002928
vt 0.488540 0.002928
vt 0.427839 0.488540
vt 0.459786 0.555099
vt 0.370757 0.494397
vt 0.459786 0.494397
vt 0.743060 0.494397
vt 0.803761 0.988103
vt 0.743060 0.988102
vt 0.364900 0.980009
vt 0.275872 0.494397
vt 0.364900 0.494397
vt 0.934067 0.063630
vt 0.756009 0.002928
vt 0.934067 0.002928
vt 0.934067 0.427839
vt 0.876176 0.988103
vt 0.180986 0.980009
vt 0.459786 0.919307
vt 0.488540 0.488540
vt 0.063630 0.488540
vt 0.002928 0.488540
vt 0.063630 0.002928
vt 0.002928 0.002928
vt 0.370757 0.555099
vt 0.803761 0.494397
vt 0.186843 0.980009
vt 0.756009 0.063630
vt 0.796477 0.124331
vt 0.942734 0.987940
vt 0.968081 0.497058
vt 0.955407 0.990601
vt 0.419318 0.858606
vt 0.973938 0.496732
vt 0.986675 0.988102
vt 0.973938 0.990438
vt 0.809618 0.988102
vt 0.870319 0.494397
vt 0.870319 0.988102
vt 0.483764 0.988102
vt 0.488540 0.495273
vt 0.488540 0.988978
vt 0.565732 0.996196
vt 0.560955 0.503366
vt 0.565732 0.502491
vt 0.555099 0.502491
vt 0.494397 0.996196
vt 0.494397 0.502491
vt 0.796477 0.367137
vt 0.743060 0.427839
vt 0.747916 0.367137
vt 0.743060 0.367137
vt 0.743060 0.063630
vt 0.747916 0.124331
vt 0.743060 0.124331
vt 0.955407 0.494397
vt 0.472736 0.858606
vt 0.472736 0.919307
vt 0.467880 0.858606
vt 0.419318 0.615800
vt 0.472736 0.555099
vt 0.467880 0.615800
vt 0.472736 0.615800
vt 0.986675 0.494397
vt 0.809618 0.494397
vt 0.483764 0.494397
vt 0.560955 0.997072
vt 0.555098 0.996196
vt 0.737203 0.496634
vt 0.494397 0.002928
vt 0.737203 0.002928
vt 0.494397 0.496634
vn -1.0000 0.0000 -0.0000
vn 0.1803 0.9836 0.0000
vn 0.0000 -0.0000 1.0000
vn 1.0000 -0.0000 0.0000
vn 0.0000 -1.0000 -0.0000
vn 0.0000 0.0000 -1.0000
s 1
f 2/1/1 4/2/1 1/3/1
f 5/4/2 2/5/2 1/6/2
f 5/7/3 4/8/3 7/9/3
f 8/10/4 5/11/4 7/12/4
f 8/13/5 7/14/5 3/15/5
f 23/16/4 11/17/4 31/18/4
f 32/19/2 23/20/2 31/21/2
f 10/22/6 31/23/6 11/24/6
f 9/25/1 32/26/1 10/27/1
f 2/1/1 3/28/1 4/2/1
f 5/4/2 6/29/2 2/5/2
f 5/7/3 1/30/3 4/8/3
f 8/10/4 6/31/4 5/11/4
f 7/14/5 4/32/5 3/15/5
f 3/15/5 9/33/5 8/13/5
f 9/33/5 10/34/5 12/35/5
f 8/13/5 9/33/5 12/35/5
f 10/34/5 11/36/5 12/35/5
f 23/16/4 12/37/4 11/17/4
f 32/19/2 21/38/2 23/20/2
f 10/22/6 32/39/6 31/23/6
f 9/25/1 21/40/1 32/26/1
f 9/25/1 3/28/1 17/41/1
f 2/42/3 22/43/3 13/44/3
f 8/10/4 12/37/4 28/45/4
f 24/46/6 21/47/6 20/48/6
f 24/49/2 19/50/2 25/51/2
f 18/52/3 25/53/3 19/54/3
f 15/55/6 30/56/6 29/57/6
f 13/58/2 30/59/2 14/60/2
f 3/28/1 2/1/1 16/61/1
f 2/1/1 13/62/1 15/63/1
f 16/61/1 2/1/1 15/63/1
f 13/62/1 14/64/1 15/63/1
f 20/65/1 21/40/1 18/66/1
f 21/40/1 9/25/1 17/41/1
f 18/66/1 19/67/1 20/65/1
f 17/41/1 18/66/1 21/40/1
f 3/28/1 16/61/1 17/41/1
f 2/42/3 6/68/3 22/43/3
f 30/69/4 22/70/4 29/71/4
f 22/70/4 6/31/4 29/71/4
f 12/37/4 23/16/4 27/72/4
f 23/16/4 24/73/4 26/74/4
f 27/72/4 23/16/4 26/74/4
f 24/73/4 25/75/4 26/74/4
f 6/31/4 8/10/4 28/45/4
f 29/71/4 6/31/4 28/45/4
f 12/37/4 27/72/4 28/45/4
f 24/46/6 23/76/6 21/47/6
f 24/49/2 20/77/2 19/50/2
f 18/52/3 26/78/3 25/53/3
f 15/55/6 14/79/6 30/56/6
f 13/58/2 22/80/2 30/59/2
f 18/81/2 29/82/2 26/83/2
f 17/41/1 15/63/1 18/66/1
f 29/71/4 27/72/4 26/74/4
f 18/81/2 15/84/2 29/82/2
f 17/41/1 16/61/1 15/63/1
f 29/71/4 28/45/4 27/72/4
