# Blender v2.92.0 OBJ File: 'kenney_OGConvert.blend'
# www.blender.org
o roadTile_139
v 1.875000 1.230000 -2.625000
v 1.884150 1.230000 -2.528140
v 1.884150 1.260000 -2.528140
v 1.875000 1.260000 -2.625000
v 0.375000 1.230000 -2.625000
v 0.381827 1.230000 -2.326910
v 0.429783 1.230000 -2.032630
v 0.517946 1.230000 -1.747790
v 0.644626 1.230000 -1.477870
v 0.807391 1.230000 -1.228050
v 1.003120 1.230000 -1.003120
v 1.228050 1.230000 -0.807391
v 1.477870 1.230000 -0.644626
v 1.747790 1.230000 -0.517946
v 2.032630 1.230000 -0.429783
v 2.326910 1.230000 -0.381827
v 2.625000 1.230000 -0.375000
v 2.625000 1.230000 -1.875000
v 2.528140 1.230000 -1.884150
v 2.433190 1.230000 -1.905370
v 2.341650 1.230000 -1.938320
v 2.254960 1.230000 -1.982480
v 2.174490 1.230000 -2.037170
v 2.101510 1.230000 -2.101510
v 2.037169 1.230000 -2.174490
v 1.982480 1.230000 -2.254960
v 1.938320 1.230000 -2.341650
v 1.905370 1.230000 -2.433190
v 1.875000 0.930000 -2.625000
v 0.375000 0.930000 -2.625000
v 2.250000 0.630000 -2.625000
v -0.000000 0.630000 -2.625000
v -0.000000 1.260000 -2.625000
v 0.375000 1.260000 -2.625000
v 2.250000 1.260000 -2.625000
v 0.022457 0.630000 -2.282370
v 0.089444 0.630000 -1.945600
v 0.199816 0.630000 -1.620460
v 0.351683 0.630000 -1.312500
v 1.257580 0.630000 -1.787910
v 1.787910 0.630000 -1.257580
v 1.945600 0.630000 -0.089445
v 2.282370 0.630000 -0.022458
v 2.253210 0.630000 -2.576051
v 2.253210 1.260000 -2.576050
v 2.625000 1.260000 -1.875000
v 2.625000 1.260000 -2.250000
v 2.576050 1.260000 -2.253211
v 2.527940 1.260000 -2.262780
v 2.481489 1.260000 -2.278550
v 2.437500 1.260000 -2.300241
v 2.396709 1.260000 -2.327491
v 2.359829 1.260000 -2.359830
v 2.327490 1.260000 -2.396710
v 2.300240 1.260000 -2.437500
v 2.278549 1.260000 -2.481490
v 2.262779 1.260000 -2.527940
v 1.905370 1.260000 -2.433190
v 1.938320 1.260000 -2.341650
v 1.982480 1.260000 -2.254960
v 2.037169 1.260000 -2.174490
v 2.101510 1.260000 -2.101510
v 2.174490 1.260000 -2.037170
v 2.254960 1.260000 -1.982480
v 2.341650 1.260000 -1.938320
v 2.433190 1.260000 -1.905370
v 2.528140 1.260000 -1.884150
v 2.625000 0.630000 -0.000000
v 2.625000 0.630000 -2.250000
v 2.625000 0.930000 -1.875000
v 2.625000 0.930000 -0.375000
v 2.625000 1.260000 -0.375000
v 2.625000 1.260000 -0.000000
v 2.576050 0.630000 -2.253211
v 2.527940 0.630000 -2.262780
v 2.481489 0.630000 -2.278550
v 2.437500 0.630000 -2.300241
v 2.396709 0.630000 -2.327491
v 2.359829 0.630000 -2.359830
v 2.327490 0.630000 -2.396710
v 2.300240 0.630000 -2.437500
v 2.278549 0.630000 -2.481490
v 2.262779 0.630000 -2.527941
v 2.282370 1.260000 -0.022458
v 0.022457 1.260000 -2.282370
v 0.089444 1.260000 -1.945600
v 0.199816 1.260000 -1.620460
v 0.351683 1.260000 -1.312500
v 0.542447 1.260000 -1.027000
v 0.768845 1.260000 -0.768845
v 1.027000 1.260000 -0.542447
v 1.312500 1.260000 -0.351683
v 1.620460 1.260000 -0.199816
v 1.945600 1.260000 -0.089445
v 2.326910 1.260000 -0.381827
v 2.032630 1.260000 -0.429783
v 1.747790 1.260000 -0.517946
v 1.477870 1.260000 -0.644626
v 1.228050 1.260000 -0.807391
v 1.003120 1.260000 -1.003120
v 0.807391 1.260000 -1.228050
v 0.644626 1.260000 -1.477870
v 0.517946 1.260000 -1.747790
v 0.429783 1.260000 -2.032630
v 0.381827 1.260000 -2.326910
v 0.542447 0.630000 -1.027000
v 0.859835 0.630000 -1.390170
v 1.257580 0.000000 -1.787910
v 0.859835 0.000000 -1.390170
v 1.787910 0.000000 -1.257580
v 1.390170 0.630000 -0.859835
v 1.390170 0.000000 -0.859835
v 1.620460 0.630000 -0.199816
v 1.312500 0.630000 -0.351683
v 1.027000 0.630000 -0.542447
v 0.768845 0.630000 -0.768845
vt 0.447399 0.512154
vt 0.441842 0.494658
vt 0.447399 0.494658
vt 0.814110 0.411536
vt 0.814110 0.002804
vt 0.869680 0.343414
vt 0.419586 0.002804
vt 0.006964 0.066272
vt 0.002804 0.002804
vt 0.019373 0.128654
vt 0.039817 0.188881
vt 0.067949 0.245927
vt 0.235754 0.157864
vt 0.333990 0.256100
vt 0.363200 0.472481
vt 0.425582 0.484890
vt 0.420181 0.011872
vt 0.430242 0.611357
vt 0.436233 0.494658
vt 0.436233 0.611357
vt 0.562923 0.785237
vt 0.562328 0.794304
vt 0.494658 0.794304
vt 0.814110 0.711856
vt 0.814110 0.417145
vt 0.869680 0.662737
vt 0.489050 0.489050
vt 0.479982 0.071673
vt 0.489050 0.072268
vt 0.471071 0.069901
vt 0.462466 0.066979
vt 0.454318 0.062962
vt 0.446762 0.057914
vt 0.439930 0.051923
vt 0.433940 0.045092
vt 0.428892 0.037536
vt 0.424874 0.029387
vt 0.421953 0.020783
vt 0.425194 0.611357
vt 0.430242 0.494658
vt 0.659606 0.812766
vt 0.664154 0.696067
vt 0.664154 0.812766
vt 0.654072 0.812766
vt 0.659606 0.696067
vt 0.647644 0.812766
vt 0.654072 0.696067
vt 0.640433 0.812766
vt 0.647644 0.696067
vt 0.632562 0.812766
vt 0.640433 0.696067
vt 0.624165 0.812766
vt 0.632562 0.696067
vt 0.615388 0.812766
vt 0.624165 0.696067
vt 0.606378 0.812766
vt 0.615388 0.696067
vt 0.597292 0.812766
vt 0.606378 0.696067
vt 0.588283 0.812766
vt 0.597292 0.696067
vt 0.930808 0.753792
vt 0.930808 0.711856
vt 0.571257 0.237492
vt 0.559854 0.291533
vt 0.498817 0.283164
vt 0.691802 0.002804
vt 0.808501 0.064087
vt 0.691802 0.064087
vt 0.808501 0.127069
vt 0.691802 0.127069
vt 0.808501 0.190670
vt 0.691802 0.190670
vt 0.808501 0.253803
vt 0.691802 0.253803
vt 0.808501 0.315388
vt 0.691802 0.315388
vt 0.162077 0.231539
vt 0.103285 0.298812
vt 0.808501 0.628570
vt 0.691802 0.570726
vt 0.808501 0.570726
vt 0.808501 0.744123
vt 0.691802 0.628570
vt 0.691802 0.997196
vt 0.795996 0.880497
vt 0.795996 0.997196
vt 0.302972 0.452036
vt 0.260314 0.329777
vt 0.245927 0.423905
vt 0.193042 0.388569
vt 0.145222 0.346632
vt 0.691802 0.374370
vt 0.808501 0.429742
vt 0.691802 0.429742
vt 0.808501 0.374370
vt 0.808501 0.480554
vt 0.691802 0.480554
vt 0.808501 0.525939
vt 0.691802 0.525939
vt 0.808501 0.565118
vt 0.691802 0.565118
vt 0.930808 0.789129
vt 0.814110 0.753792
vt 0.691802 0.749731
vt 0.808501 0.874889
vt 0.691802 0.874889
vt 0.814110 0.933665
vt 0.918304 0.794737
vt 0.918304 0.933665
vt 0.936417 0.407242
vt 0.941974 0.461640
vt 0.936417 0.461640
vt 0.936417 0.352046
vt 0.941974 0.407242
vt 0.936417 0.297108
vt 0.941974 0.352046
vt 0.936417 0.243486
vt 0.941974 0.297108
vt 0.936417 0.192207
vt 0.941974 0.243486
vt 0.936417 0.144255
vt 0.941974 0.192207
vt 0.936417 0.100550
vt 0.941974 0.144255
vt 0.936417 0.061931
vt 0.941974 0.100550
vt 0.936417 0.029139
vt 0.941974 0.061931
vt 0.936417 0.002804
vt 0.941974 0.029139
vt 0.453007 0.532808
vt 0.458564 0.565073
vt 0.453007 0.565073
vt 0.453007 0.494658
vt 0.458564 0.532808
vt 0.925251 0.466263
vt 0.930808 0.477751
vt 0.925251 0.477751
vt 0.930808 0.487409
vt 0.925251 0.487409
vt 0.447399 0.654618
vt 0.441842 0.643260
vt 0.447399 0.643260
vt 0.441842 0.630237
vt 0.447399 0.630237
vt 0.441842 0.615754
vt 0.447399 0.615754
vt 0.441842 0.600042
vt 0.447399 0.600042
vt 0.441842 0.583347
vt 0.447399 0.583347
vt 0.441842 0.565933
vt 0.447399 0.565933
vt 0.441842 0.548074
vt 0.447399 0.548074
vt 0.441842 0.530054
vt 0.447399 0.530054
vt 0.441842 0.512154
vt 0.930808 0.002804
vt 0.869680 0.070926
vt 0.930808 0.070926
vt 0.925251 0.070926
vt 0.930808 0.343414
vt 0.930808 0.411536
vt 0.925251 0.343414
vt 0.522069 0.709953
vt 0.533557 0.696067
vt 0.582675 0.745185
vt 0.576684 0.752017
vt 0.504737 0.741475
vt 0.512411 0.725169
vt 0.571636 0.759573
vt 0.495790 0.776317
vt 0.499166 0.758614
vt 0.564697 0.776325
vt 0.567617 0.767722
vt 0.495790 0.812290
vt 0.562923 0.803370
vt 0.564697 0.812282
vt 0.504737 0.847133
vt 0.499166 0.829994
vt 0.567617 0.820885
vt 0.522069 0.878655
vt 0.512411 0.863439
vt 0.576684 0.836590
vt 0.571636 0.829035
vt 0.582675 0.843422
vt 0.533557 0.892540
vt 0.930808 0.417145
vt 0.869680 0.466263
vt 0.930808 0.466263
vt 0.930808 0.662737
vt 0.925251 0.662737
vt 0.425194 0.494658
vt 0.588283 0.696067
vt 0.648044 0.601402
vt 0.686194 0.641341
vt 0.637076 0.690459
vt 0.595139 0.642639
vt 0.559802 0.589754
vt 0.615780 0.556575
vt 0.531672 0.532710
vt 0.590019 0.507719
vt 0.511226 0.472481
vt 0.498817 0.410099
vt 0.571257 0.455771
vt 0.494658 0.346632
vt 0.559854 0.401730
vt 0.511226 0.220782
vt 0.556029 0.346632
vt 0.531672 0.160553
vt 0.590019 0.185544
vt 0.559802 0.103509
vt 0.615780 0.136688
vt 0.595139 0.050624
vt 0.637076 0.002804
vt 0.648044 0.091861
vt 0.686194 0.051922
vt 0.808501 0.002804
vt 0.691802 0.744123
vt 0.691802 0.880497
vt 0.814110 0.789129
vt 0.808501 0.749731
vt 0.814110 0.794737
vt 0.941974 0.002804
vt 0.458564 0.494658
vt 0.441842 0.654618
vt 0.322617 0.814470
vt 0.160820 0.574752
vt 0.336135 0.802552
vt 0.282354 0.893498
vt 0.280659 0.911440
vt 0.002804 0.911440
vt 0.004069 0.856223
vt 0.012952 0.801711
vt 0.286284 0.875910
vt 0.292388 0.858953
vt 0.029283 0.748949
vt 0.052749 0.698950
vt 0.300568 0.842895
vt 0.082899 0.652674
vt 0.310698 0.827989
vt 0.119155 0.611009
vt 0.207096 0.544602
vt 0.257095 0.521137
vt 0.351041 0.792422
vt 0.309857 0.504806
vt 0.367099 0.784242
vt 0.384056 0.778138
vt 0.364369 0.495923
vt 0.419586 0.494658
vt 0.401644 0.774207
vt 0.419586 0.772512
vn -0.9877 0.0000 0.1564
vn -0.9956 0.0000 0.0940
vn -0.0000 0.0000 -1.0000
vn 0.0000 -1.0000 -0.0000
vn 0.9914 -0.0000 -0.1305
vn 0.9979 0.0000 -0.0654
vn 0.0000 1.0000 0.0000
vn 1.0000 0.0000 -0.0000
vn 0.9659 0.0000 -0.2588
vn 0.9239 0.0000 -0.3827
vn 0.8661 0.0000 -0.4999
vn 0.7934 0.0000 -0.6087
vn 0.7071 0.0000 -0.7071
vn 0.6087 0.0000 -0.7934
vn 0.4999 0.0000 -0.8661
vn 0.3827 0.0000 -0.9239
vn 0.2588 0.0000 -0.9659
vn 0.1305 0.0000 -0.9914
vn 0.0654 0.0000 -0.9979
vn -0.1305 -0.0000 0.9914
vn -0.0654 -0.0000 0.9979
vn -0.9979 0.0000 0.0654
vn -0.9914 0.0000 0.1305
vn -0.9659 0.0000 0.2588
vn -0.9239 0.0000 0.3827
vn -0.8660 0.0000 0.5000
vn -0.7934 -0.0000 0.6088
vn -0.7071 0.0000 -0.7071
vn 0.7071 0.0000 0.7071
vn -0.7071 -0.0000 0.7071
vn -0.6088 -0.0000 0.7934
vn -0.5000 -0.0000 0.8660
vn -0.3827 -0.0000 0.9239
vn -0.2588 -0.0000 0.9659
vn 0.0921 0.0000 -0.9958
vn 0.0229 0.0000 -0.9997
vn 0.2288 0.0000 -0.9735
vn 0.3611 0.0000 -0.9325
vn 0.4865 0.0000 -0.8737
vn 0.6026 0.0000 -0.7980
vn 0.7980 0.0000 -0.6026
vn 0.8737 0.0000 -0.4865
vn 0.9325 0.0000 -0.3611
vn 0.9735 0.0000 -0.2288
vn 0.9958 0.0000 -0.0921
vn 0.9997 0.0000 -0.0229
vn -0.0940 0.0000 0.9956
vn -0.1564 0.0000 0.9877
vn -0.2789 0.0000 0.9603
vn -0.3971 0.0000 0.9178
vn -0.5090 0.0000 0.8608
vn -0.6129 0.0000 0.7901
vn -0.7901 0.0000 0.6129
vn -0.7902 0.0000 0.6129
vn -0.8608 0.0000 0.5090
vn -0.9178 0.0000 0.3971
vn -0.9603 0.0000 0.2789
s 1
f 2/1/1 4/2/2 1/3/2
f 31/4/3 32/5/3 29/6/3
f 31/7/4 36/8/4 32/9/4
f 36/8/4 31/7/4 37/10/4
f 37/10/4 31/7/4 38/11/4
f 38/11/4 31/7/4 39/12/4
f 39/12/4 31/7/4 40/13/4
f 40/13/4 31/7/4 41/14/4
f 41/14/4 31/7/4 42/15/4
f 42/15/4 31/7/4 43/16/4
f 43/16/4 31/7/4 44/17/4
f 45/18/5 31/19/6 35/20/6
f 52/21/7 53/22/7 62/23/7
f 68/24/8 69/25/8 71/26/8
f 68/27/4 74/28/4 69/29/4
f 68/27/4 75/30/4 74/28/4
f 68/27/4 76/31/4 75/30/4
f 68/27/4 77/32/4 76/31/4
f 68/27/4 78/33/4 77/32/4
f 68/27/4 79/34/4 78/33/4
f 68/27/4 80/35/4 79/34/4
f 68/27/4 81/36/4 80/35/4
f 43/16/4 81/36/4 68/27/4
f 43/16/4 82/37/4 81/36/4
f 43/16/4 83/38/4 82/37/4
f 43/16/4 44/17/4 83/38/4
f 57/39/9 44/40/5 45/18/5
f 56/41/10 83/42/9 57/43/9
f 55/44/11 82/45/10 56/41/10
f 54/46/12 81/47/11 55/44/11
f 53/48/13 80/49/12 54/46/12
f 52/50/14 79/51/13 53/48/13
f 51/52/15 78/53/14 52/50/14
f 50/54/16 77/55/15 51/52/15
f 49/56/17 76/57/16 50/54/16
f 48/58/18 75/59/17 49/56/17
f 47/60/19 74/61/18 48/58/18
f 84/62/20 68/24/21 73/63/21
f 98/64/7 99/65/7 91/66/7
f 33/67/22 36/68/23 85/69/23
f 85/69/23 37/70/24 86/71/24
f 86/71/24 38/72/25 87/73/25
f 87/73/25 39/74/26 88/75/26
f 88/75/26 106/76/27 89/77/27
f 39/12/4 107/78/4 106/79/4
f 39/12/4 40/13/4 107/78/4
f 40/80/28 109/81/28 107/82/28
f 41/83/13 108/84/13 40/80/13
f 111/85/29 110/86/29 41/87/29
f 113/88/4 111/89/4 41/14/4
f 114/90/4 111/89/4 113/88/4
f 115/91/4 111/89/4 114/90/4
f 115/91/4 107/78/4 111/89/4
f 107/78/4 115/91/4 116/92/4
f 90/93/30 115/94/31 91/95/31
f 89/77/27 116/96/30 90/93/30
f 106/79/4 107/78/4 116/92/4
f 91/95/31 114/97/32 92/98/32
f 92/98/32 113/99/33 93/100/33
f 93/100/33 42/101/34 94/102/34
f 113/88/4 41/14/4 42/15/4
f 94/103/34 43/104/20 84/62/20
f 107/105/30 112/106/30 111/107/30
f 112/108/4 108/109/4 110/110/4
f 16/111/35 72/112/36 17/113/36
f 15/114/37 95/115/35 16/111/35
f 14/116/38 96/117/37 15/114/37
f 13/118/39 97/119/38 14/116/38
f 12/120/40 98/121/39 13/118/39
f 11/122/13 99/123/40 12/120/40
f 10/124/41 100/125/13 11/122/13
f 9/126/42 101/127/41 10/124/41
f 8/128/43 102/129/42 9/126/42
f 7/130/44 103/131/43 8/128/43
f 6/132/45 104/133/44 7/134/44
f 5/135/46 105/136/45 6/132/45
f 18/137/47 67/138/48 19/139/48
f 19/139/48 66/140/49 20/141/49
f 20/142/49 65/143/50 21/144/50
f 21/144/50 64/145/51 22/146/51
f 22/146/51 63/147/52 23/148/52
f 23/148/52 62/149/30 24/150/30
f 24/150/30 61/151/53 25/152/54
f 25/152/54 60/153/55 26/154/55
f 26/154/55 59/155/56 27/156/56
f 27/156/56 58/157/57 28/158/57
f 28/158/57 3/159/1 2/1/1
f 2/1/1 3/159/1 4/2/2
f 32/5/3 33/160/3 30/161/3
f 33/160/3 34/162/3 5/163/3
f 5/163/3 30/161/3 33/160/3
f 4/164/3 35/165/3 1/166/3
f 35/165/3 31/4/3 29/6/3
f 1/166/3 35/165/3 29/6/3
f 32/5/3 30/161/3 29/6/3
f 45/18/5 44/40/5 31/19/6
f 67/167/7 46/168/7 47/169/7
f 67/167/7 47/169/7 48/170/7
f 65/171/7 66/172/7 49/173/7
f 66/172/7 67/167/7 48/170/7
f 63/174/7 64/175/7 51/176/7
f 64/175/7 65/171/7 50/177/7
f 63/174/7 52/21/7 62/23/7
f 61/178/7 62/23/7 54/179/7
f 61/178/7 54/179/7 55/180/7
f 59/181/7 60/182/7 56/183/7
f 60/182/7 61/178/7 55/180/7
f 56/183/7 60/182/7 55/180/7
f 3/184/7 58/185/7 45/186/7
f 58/185/7 59/181/7 57/187/7
f 57/187/7 59/181/7 56/183/7
f 35/188/7 4/189/7 3/184/7
f 45/186/7 35/188/7 3/184/7
f 52/21/7 63/174/7 51/176/7
f 66/172/7 48/170/7 49/173/7
f 57/187/7 45/186/7 58/185/7
f 65/171/7 49/173/7 50/177/7
f 50/177/7 51/176/7 64/175/7
f 54/179/7 62/23/7 53/22/7
f 69/25/8 47/190/8 70/191/8
f 47/190/8 46/192/8 18/137/8
f 18/137/8 70/191/8 47/190/8
f 72/193/8 73/63/8 17/194/8
f 73/63/8 68/24/8 71/26/8
f 17/194/8 73/63/8 71/26/8
f 69/25/8 70/191/8 71/26/8
f 57/39/9 83/195/9 44/40/5
f 56/41/10 82/45/10 83/42/9
f 55/44/11 81/47/11 82/45/10
f 54/46/12 80/49/12 81/47/11
f 53/48/13 79/51/13 80/49/12
f 52/50/14 78/53/14 79/51/13
f 51/52/15 77/55/15 78/53/14
f 50/54/16 76/57/16 77/55/15
f 49/56/17 75/59/17 76/57/16
f 48/58/18 74/61/18 75/59/17
f 47/60/19 69/196/19 74/61/18
f 84/62/20 43/104/20 68/24/21
f 105/197/7 34/198/7 33/199/7
f 33/199/7 85/200/7 105/197/7
f 85/200/7 86/201/7 104/202/7
f 86/201/7 87/203/7 103/204/7
f 87/203/7 88/205/7 103/204/7
f 88/205/7 89/206/7 102/207/7
f 89/206/7 90/208/7 101/209/7
f 90/208/7 91/66/7 99/65/7
f 91/66/7 92/210/7 98/64/7
f 90/208/7 99/65/7 100/211/7
f 92/210/7 93/212/7 97/213/7
f 93/212/7 94/214/7 97/213/7
f 97/213/7 94/214/7 96/215/7
f 94/214/7 84/216/7 96/215/7
f 84/216/7 73/217/7 95/218/7
f 96/215/7 84/216/7 95/218/7
f 73/217/7 72/219/7 95/218/7
f 89/206/7 101/209/7 102/207/7
f 101/209/7 90/208/7 100/211/7
f 85/200/7 104/202/7 105/197/7
f 103/204/7 104/202/7 86/201/7
f 102/207/7 103/204/7 88/205/7
f 92/210/7 97/213/7 98/64/7
f 33/67/22 32/220/22 36/68/23
f 85/69/23 36/68/23 37/70/24
f 86/71/24 37/70/24 38/72/25
f 87/73/25 38/72/25 39/74/26
f 88/75/26 39/74/26 106/76/27
f 40/80/28 108/84/28 109/81/28
f 41/83/13 110/221/13 108/84/13
f 111/85/29 112/222/29 110/86/29
f 90/93/30 116/96/30 115/94/31
f 89/77/27 106/76/27 116/96/30
f 91/95/31 115/94/31 114/97/32
f 92/98/32 114/97/32 113/99/33
f 93/100/33 113/99/33 42/101/34
f 94/103/34 42/223/34 43/104/20
f 107/105/30 109/224/30 112/106/30
f 112/108/4 109/225/4 108/109/4
f 16/111/35 95/115/35 72/112/36
f 15/114/37 96/117/37 95/115/35
f 14/116/38 97/119/38 96/117/37
f 13/118/39 98/121/39 97/119/38
f 12/120/40 99/123/40 98/121/39
f 11/122/13 100/125/13 99/123/40
f 10/124/41 101/127/41 100/125/13
f 9/126/42 102/129/42 101/127/41
f 8/128/43 103/131/43 102/129/42
f 7/130/44 104/226/44 103/131/43
f 6/132/45 105/136/45 104/133/44
f 5/135/46 34/227/46 105/136/45
f 18/137/47 46/192/47 67/138/48
f 19/139/48 67/138/48 66/140/49
f 20/142/49 66/228/49 65/143/50
f 21/144/50 65/143/50 64/145/51
f 22/146/51 64/145/51 63/147/52
f 23/148/52 63/147/52 62/149/30
f 24/150/30 62/149/30 61/151/53
f 25/152/54 61/151/53 60/153/55
f 26/154/55 60/153/55 59/155/56
f 27/156/56 59/155/56 58/157/57
f 28/158/57 58/157/57 3/159/1
f 24/229/7 12/230/7 23/231/7
f 29/6/3 5/163/3 1/166/3
f 71/26/8 18/137/8 17/194/8
f 2/232/7 1/233/7 5/234/7
f 5/234/7 6/235/7 2/232/7
f 6/235/7 7/236/7 28/237/7
f 28/237/7 7/236/7 27/238/7
f 7/236/7 8/239/7 27/238/7
f 8/239/7 9/240/7 26/241/7
f 27/238/7 8/239/7 26/241/7
f 9/240/7 10/242/7 25/243/7
f 10/242/7 11/244/7 24/229/7
f 11/244/7 12/230/7 24/229/7
f 12/230/7 13/245/7 23/231/7
f 25/243/7 10/242/7 24/229/7
f 13/245/7 14/246/7 22/247/7
f 14/246/7 15/248/7 21/249/7
f 21/249/7 15/248/7 20/250/7
f 15/248/7 16/251/7 20/250/7
f 16/251/7 17/252/7 19/253/7
f 20/250/7 16/251/7 19/253/7
f 17/252/7 18/254/7 19/253/7
f 26/241/7 9/240/7 25/243/7
f 28/237/7 2/232/7 6/235/7
f 14/246/7 21/249/7 22/247/7
f 13/245/7 22/247/7 23/231/7
f 29/6/3 30/161/3 5/163/3
f 71/26/8 70/191/8 18/137/8
