# Blender v2.92.0 OBJ File: 'OGConvert.blend'
# www.blender.org
o roadTile_253
v 24.000000 4.400001 -24.000000
v 24.000000 0.000001 -24.000000
v 0.000000 0.000001 -24.000000
v 0.000000 4.400001 -24.000000
v 24.000000 4.400001 -21.000000
v 24.000000 0.000001 -21.000000
v 0.000000 4.400001 -21.000000
v 0.000000 0.000001 -21.000000
v 24.000000 0.000001 -18.000000
v 0.000000 0.000001 -18.000000
v 0.000000 0.000000 0.000000
v 0.000000 0.000000 -3.000000
v 0.000000 0.000000 -6.000000
v 24.000000 0.000000 -6.000000
v 24.000000 0.000000 -3.000000
v 24.000000 0.000000 -0.000000
v 0.000000 4.400000 0.000000
v 0.000000 4.400000 -3.000000
v 24.000000 4.400000 0.000000
v 24.000000 4.400000 -3.000000
v 24.000000 5.040000 -3.000000
v 24.000000 5.040000 -6.000000
v 0.000000 5.040000 -3.000000
v 0.000000 5.040000 -6.000000
v 0.000000 3.640000 -6.000000
v 20.835119 3.608856 -6.000000
v 20.360001 3.640000 -6.000000
v 23.968880 0.475115 -6.000000
v 23.875999 0.942104 -6.000000
v 23.722960 1.392968 -6.000000
v 23.512320 1.820000 -6.000000
v 23.247841 2.215888 -6.000000
v 22.933840 2.573872 -6.000000
v 22.575920 2.887808 -6.000000
v 22.180000 3.152336 -6.000000
v 21.752960 3.362920 -6.000000
v 21.302080 3.515968 -6.000000
v 20.835119 3.608857 -18.000000
v 20.360001 3.640001 -18.000000
v 21.302080 3.515969 -18.000000
v 21.752960 3.362921 -18.000000
v 22.180000 3.152337 -18.000000
v 22.575920 2.887809 -18.000000
v 22.933840 2.573873 -18.000000
v 23.247841 2.215889 -18.000000
v 23.512320 1.820001 -18.000000
v 23.722960 1.392969 -18.000000
v 23.875999 0.942105 -18.000000
v 23.968880 0.475116 -18.000000
v 24.000000 5.040001 -18.000000
v 0.000000 5.040001 -18.000000
v 0.000000 3.640001 -18.000000
v 24.000000 5.040001 -21.000000
v 0.000000 5.040001 -21.000000
vt 0.003136 0.996864
vt 0.093653 0.503136
vt 0.093653 0.996864
vt 0.846022 0.564852
vt 0.756271 0.503136
vt 0.846022 0.503136
vt 0.099924 0.993571
vt 0.161640 0.503136
vt 0.161640 0.993571
vt 0.859954 0.064852
vt 0.769437 0.003136
vt 0.859954 0.003136
vt 0.003136 0.496864
vt 0.003136 0.003136
vt 0.064852 0.003136
vt 0.373432 0.003136
vt 0.435148 0.003136
vt 0.373432 0.496864
vt 0.769437 0.435148
vt 0.859954 0.496864
vt 0.769437 0.496864
vt 0.365603 0.503136
vt 0.303886 0.993571
vt 0.303886 0.503136
vt 0.756271 0.694555
vt 0.846022 0.756272
vt 0.756271 0.756271
vt 0.613090 0.974313
vt 0.703607 0.480584
vt 0.703607 0.974313
vt 0.003136 0.503136
vt 0.756271 0.564852
vt 0.099924 0.503136
vt 0.769437 0.064852
vt 0.126568 0.003136
vt 0.126568 0.496864
vt 0.064852 0.496864
vt 0.496864 0.003136
vt 0.496864 0.496864
vt 0.435148 0.496864
vt 0.859954 0.435148
vt 0.365603 0.993571
vt 0.846022 0.694555
vt 0.613090 0.480584
vt 0.756271 0.632839
vt 0.859077 0.632839
vt 0.709878 0.480584
vt 0.723045 0.974313
vt 0.709878 0.974313
vt 0.235899 0.993571
vt 0.297615 0.503136
vt 0.297615 0.993571
vt 0.785072 0.373432
vt 0.969909 0.496864
vt 0.925634 0.467568
vt 0.931076 0.459423
vt 0.503136 0.974313
vt 0.547411 0.945017
vt 0.553869 0.952380
vt 0.859077 0.564852
vt 0.859077 0.626568
vt 0.729316 0.480584
vt 0.742482 0.974313
vt 0.729316 0.974313
vt 0.785072 0.126568
vt 0.756271 0.126568
vt 0.229628 0.503136
vt 0.167912 0.993571
vt 0.167912 0.503136
vt 0.859077 0.694555
vt 0.723045 0.480584
vt 0.235899 0.503136
vt 0.756271 0.435148
vt 0.756271 0.373432
vt 0.859954 0.373432
vt 0.941108 0.421982
vt 0.941108 0.003136
vt 0.969909 0.003136
vt 0.866226 0.496864
vt 0.876000 0.496224
vt 0.885607 0.494313
vt 0.940467 0.431756
vt 0.894882 0.491165
vt 0.903667 0.486832
vt 0.938556 0.441363
vt 0.935408 0.450638
vt 0.911811 0.481391
vt 0.919176 0.474931
vt 0.597045 0.973673
vt 0.606819 0.974313
vt 0.503136 0.480584
vt 0.531937 0.899431
vt 0.531937 0.480584
vt 0.587438 0.971762
vt 0.578163 0.968614
vt 0.532577 0.909205
vt 0.534488 0.918811
vt 0.569378 0.964280
vt 0.561233 0.958840
vt 0.537637 0.928087
vt 0.541969 0.936872
vt 0.756271 0.626568
vt 0.742482 0.480584
vt 0.756271 0.064852
vt 0.859954 0.126568
vt 0.229628 0.993571
vt 0.503136 0.048478
vt 0.750000 0.058261
vt 0.503136 0.058261
vt 0.503136 0.038715
vt 0.750000 0.048478
vt 0.503136 0.029139
vt 0.750000 0.038715
vt 0.503136 0.019912
vt 0.750000 0.029139
vt 0.503136 0.011194
vt 0.750000 0.019912
vt 0.503136 0.003136
vt 0.750000 0.011194
vt 0.419082 0.750000
vt 0.427223 0.503136
vt 0.427223 0.750000
vt 0.410301 0.750000
vt 0.419082 0.503136
vt 0.401028 0.750000
vt 0.410301 0.503136
vt 0.391422 0.750000
vt 0.401028 0.503136
vt 0.381648 0.750000
vt 0.391422 0.503136
vt 0.371874 0.750000
vt 0.381648 0.503136
vt 0.750000 0.474313
vt 0.503136 0.474313
vt 0.750000 0.003136
vt 0.371874 0.503136
vn 0.0000 0.0000 -1.0000
vn 1.0000 0.0000 0.0000
vn 0.0000 1.0000 0.0000
vn -1.0000 0.0000 0.0000
vn 0.0000 -1.0000 -0.0000
vn 0.0000 -0.0000 1.0000
vn 0.1305 0.9914 0.0000
vn 0.0327 0.9995 0.0000
vn 0.2588 0.9659 0.0000
vn 0.3827 0.9239 0.0000
vn 0.5000 0.8660 0.0000
vn 0.6088 0.7933 0.0000
vn 0.7071 0.7071 0.0000
vn 0.7933 0.6088 0.0000
vn 0.8660 0.5000 0.0000
vn 0.7934 0.6088 0.0000
vn 0.9239 0.3827 0.0000
vn 0.9659 0.2588 0.0000
vn 0.9914 0.1305 0.0000
vn 0.9979 0.0654 0.0000
s 1
f 2/1/1 4/2/1 1/3/1
f 5/4/2 2/5/2 1/6/2
f 7/7/3 1/8/3 4/9/3
f 8/10/4 4/11/4 3/12/4
f 3/13/5 2/14/5 6/15/5
f 14/16/5 15/17/5 13/18/5
f 18/19/4 11/20/4 17/21/4
f 20/22/3 17/23/3 19/24/3
f 15/25/2 19/26/2 16/27/2
f 11/28/6 19/29/6 17/30/6
f 2/1/1 3/31/1 4/2/1
f 5/4/2 6/32/2 2/5/2
f 7/7/3 5/33/3 1/8/3
f 8/10/4 7/34/4 4/11/4
f 6/15/5 9/35/5 10/36/5
f 10/36/5 8/37/5 6/15/5
f 8/37/5 3/13/5 6/15/5
f 16/38/5 11/39/5 12/40/5
f 13/18/5 10/36/5 9/35/5
f 16/38/5 12/40/5 15/17/5
f 12/40/5 13/18/5 15/17/5
f 9/35/5 14/16/5 13/18/5
f 18/19/4 12/41/4 11/20/4
f 20/22/3 18/42/3 17/23/3
f 15/25/2 20/43/2 19/26/2
f 11/28/6 16/44/6 19/29/6
f 20/43/2 14/45/2 22/46/2
f 20/47/6 23/48/6 18/49/6
f 23/50/3 22/51/3 24/52/3
f 25/53/4 12/41/4 18/19/4
f 22/54/1 34/55/1 35/56/1
f 50/57/6 43/58/6 44/59/6
f 5/4/2 53/60/2 50/61/2
f 7/62/1 53/63/1 5/64/1
f 52/65/4 51/66/4 7/34/4
f 53/67/3 51/68/3 50/69/3
f 22/46/2 21/70/2 20/43/2
f 20/43/2 15/25/2 14/45/2
f 20/47/6 21/71/6 23/48/6
f 23/50/3 21/72/3 22/51/3
f 23/73/4 24/74/4 18/19/4
f 24/74/4 25/53/4 18/19/4
f 25/53/4 13/75/4 12/41/4
f 27/76/1 25/77/1 24/78/1
f 22/54/1 14/79/1 28/80/1
f 22/54/1 28/80/1 29/81/1
f 27/76/1 24/78/1 22/54/1
f 26/82/1 27/76/1 22/54/1
f 22/54/1 29/81/1 30/83/1
f 22/54/1 30/83/1 31/84/1
f 37/85/1 26/82/1 22/54/1
f 36/86/1 37/85/1 22/54/1
f 22/54/1 31/84/1 32/87/1
f 22/54/1 32/87/1 33/88/1
f 35/56/1 36/86/1 22/54/1
f 22/54/1 33/88/1 34/55/1
f 49/89/6 9/90/6 50/57/6
f 50/57/6 51/91/6 39/92/6
f 51/91/6 52/93/6 39/92/6
f 48/94/6 49/89/6 50/57/6
f 47/95/6 48/94/6 50/57/6
f 50/57/6 39/92/6 38/96/6
f 50/57/6 38/96/6 40/97/6
f 46/98/6 47/95/6 50/57/6
f 45/99/6 46/98/6 50/57/6
f 50/57/6 40/97/6 41/100/6
f 50/57/6 41/100/6 42/101/6
f 44/59/6 45/99/6 50/57/6
f 50/57/6 42/101/6 43/58/6
f 50/61/2 9/102/2 5/4/2
f 9/102/2 6/32/2 5/4/2
f 7/62/1 54/103/1 53/63/1
f 51/66/4 54/104/4 7/34/4
f 7/34/4 8/10/4 52/65/4
f 8/10/4 10/105/4 52/65/4
f 53/67/3 54/106/3 51/68/3
f 26/107/7 39/108/8 27/109/8
f 37/110/9 38/111/7 26/107/7
f 36/112/10 40/113/9 37/110/9
f 35/114/11 41/115/10 36/112/10
f 34/116/12 42/117/11 35/114/11
f 33/118/13 43/119/12 34/116/12
f 32/120/14 44/121/13 33/122/13
f 31/123/15 45/124/16 32/120/14
f 30/125/17 46/126/15 31/123/15
f 29/127/18 47/128/17 30/125/17
f 28/129/19 48/130/18 29/127/18
f 14/131/20 49/132/19 28/129/19
f 13/75/4 52/65/4 10/105/4
f 27/109/8 52/133/3 25/134/3
f 26/107/7 38/111/7 39/108/8
f 37/110/9 40/113/9 38/111/7
f 36/112/10 41/115/10 40/113/9
f 35/114/11 42/117/11 41/115/10
f 34/116/12 43/119/12 42/117/11
f 33/118/13 44/135/13 43/119/12
f 32/120/14 45/124/16 44/121/13
f 31/123/15 46/126/15 45/124/16
f 30/125/17 47/128/17 46/126/15
f 29/127/18 48/130/18 47/128/17
f 28/129/19 49/132/19 48/130/18
f 14/131/20 9/136/20 49/132/19
f 13/75/4 25/53/4 52/65/4
f 27/109/8 39/108/8 52/133/3
