# Blender v2.92.0 OBJ File: 'OGConvert.blend'
# www.blender.org
o roadTile_029
v 0.000000 0.000001 -24.000000
v 0.000000 0.000000 0.000000
v 0.000000 4.400000 0.000000
v 0.000000 4.400001 -24.000000
v 24.000000 0.000001 -24.000000
v 23.794640 0.000001 -20.867359
v 23.182240 0.000001 -17.788321
v 22.173120 0.000001 -14.815600
v 20.784639 0.000001 -12.000000
v 19.040480 0.000000 -9.389760
v 16.970560 0.000000 -7.029440
v 14.610240 0.000000 -4.959520
v 12.000000 0.000000 -3.215392
v 9.184400 0.000000 -1.826888
v 6.211656 0.000000 -0.817784
v 3.132632 0.000000 -0.205323
v 24.000000 4.400001 -24.000000
v 3.132632 4.400000 -0.205323
v 6.211656 4.400000 -0.817784
v 9.184400 4.400000 -1.826888
v 12.000000 4.400000 -3.215392
v 14.610240 4.400000 -4.959520
v 16.970560 4.400001 -7.029440
v 19.040480 4.400001 -9.389760
v 20.784639 4.400001 -12.000000
v 22.173120 4.400001 -14.815600
v 23.182240 4.400001 -17.788321
v 23.794640 4.400001 -20.867359
vt 0.592800 0.498210
vt 0.501789 0.001790
vt 0.592800 0.001790
vt 0.369727 0.018705
vt 0.433414 0.006036
vt 0.498210 0.498211
vt 0.687389 0.001789
vt 0.596379 0.498211
vt 0.596379 0.001789
vt 0.369727 0.518704
vt 0.433414 0.506037
vt 0.498211 0.998210
vt 0.781979 0.380920
vt 0.690968 0.318198
vt 0.781979 0.318198
vt 0.690968 0.253819
vt 0.781979 0.253819
vt 0.690968 0.188884
vt 0.781979 0.188884
vt 0.690968 0.124504
vt 0.781979 0.124504
vt 0.690968 0.061782
vt 0.781979 0.061782
vt 0.690968 0.001790
vt 0.781979 0.001790
vt 0.781979 0.763630
vt 0.690968 0.703637
vt 0.781979 0.703637
vt 0.690968 0.640915
vt 0.781979 0.640915
vt 0.690968 0.576536
vt 0.781979 0.576536
vt 0.690968 0.511601
vt 0.781979 0.511601
vt 0.690968 0.447222
vt 0.781979 0.447222
vt 0.690968 0.384499
vt 0.781979 0.384499
vt 0.501789 0.498210
vt 0.498210 0.001789
vt 0.001790 0.498211
vt 0.006037 0.433414
vt 0.018704 0.369727
vt 0.039577 0.308238
vt 0.068297 0.250000
vt 0.104373 0.196009
vt 0.147188 0.147188
vt 0.196009 0.104373
vt 0.250000 0.068297
vt 0.308239 0.039577
vt 0.687389 0.498211
vt 0.498210 0.501790
vt 0.001789 0.998211
vt 0.006036 0.933414
vt 0.018705 0.869727
vt 0.039577 0.808239
vt 0.068297 0.750000
vt 0.104373 0.696009
vt 0.147188 0.647188
vt 0.196009 0.604373
vt 0.250000 0.568297
vt 0.308238 0.539577
vt 0.690968 0.380920
vt 0.690968 0.763630
vn -1.0000 0.0000 -0.0000
vn -0.0000 -1.0000 -0.0000
vn 0.0000 0.0000 -1.0000
vn -0.0000 1.0000 0.0000
vn 0.0654 -0.0000 0.9979
vn 0.1305 -0.0000 0.9914
vn 0.2588 -0.0000 0.9659
vn 0.3827 -0.0000 0.9239
vn 0.5000 -0.0000 0.8660
vn 0.6088 0.0000 0.7934
vn 0.7071 0.0000 0.7071
vn 0.7934 0.0000 0.6088
vn 0.8660 0.0000 0.5000
vn 0.9239 0.0000 0.3827
vn 0.9659 0.0000 0.2588
vn 0.9914 0.0000 0.1305
vn 0.9979 0.0000 0.0654
s 1
f 2/1/1 4/2/1 1/3/1
f 15/4/2 16/5/2 1/6/2
f 4/7/3 5/8/3 1/9/3
f 27/10/4 28/11/4 4/12/4
f 3/13/5 16/14/6 18/15/6
f 18/15/6 15/16/7 19/17/7
f 19/17/7 14/18/8 20/19/8
f 20/19/8 13/20/9 21/21/9
f 21/21/9 12/22/10 22/23/10
f 22/23/10 11/24/11 23/25/11
f 23/26/11 10/27/12 24/28/12
f 24/28/12 9/29/13 25/30/13
f 25/30/13 8/31/14 26/32/14
f 26/32/14 7/33/15 27/34/15
f 27/34/15 6/35/16 28/36/16
f 28/36/16 5/37/17 17/38/17
f 2/1/1 3/39/1 4/2/1
f 2/40/2 1/6/2 16/5/2
f 1/6/2 5/41/2 6/42/2
f 7/43/2 1/6/2 6/42/2
f 7/43/2 8/44/2 1/6/2
f 8/44/2 9/45/2 1/6/2
f 9/45/2 10/46/2 1/6/2
f 10/46/2 11/47/2 1/6/2
f 11/47/2 12/48/2 1/6/2
f 12/48/2 13/49/2 1/6/2
f 13/49/2 14/50/2 1/6/2
f 14/50/2 15/4/2 1/6/2
f 4/7/3 17/51/3 5/8/3
f 17/52/4 4/12/4 28/11/4
f 4/12/4 3/53/4 18/54/4
f 19/55/4 4/12/4 18/54/4
f 19/55/4 20/56/4 4/12/4
f 20/56/4 21/57/4 4/12/4
f 21/57/4 22/58/4 4/12/4
f 22/58/4 23/59/4 4/12/4
f 23/59/4 24/60/4 4/12/4
f 24/60/4 25/61/4 4/12/4
f 25/61/4 26/62/4 4/12/4
f 26/62/4 27/10/4 4/12/4
f 3/13/5 2/63/5 16/14/6
f 18/15/6 16/14/6 15/16/7
f 19/17/7 15/16/7 14/18/8
f 20/19/8 14/18/8 13/20/9
f 21/21/9 13/20/9 12/22/10
f 22/23/10 12/22/10 11/24/11
f 23/26/11 11/64/11 10/27/12
f 24/28/12 10/27/12 9/29/13
f 25/30/13 9/29/13 8/31/14
f 26/32/14 8/31/14 7/33/15
f 27/34/15 7/33/15 6/35/16
f 28/36/16 6/35/16 5/37/17
