# Blender v2.92.0 OBJ File: 'OGConvert.blend'
# www.blender.org
o roadTile_020
v 8.140960 0.000000 -4.707768
v 7.682744 4.430264 -5.165968
v 6.088456 4.430264 -5.165968
v 5.630264 0.000000 -4.707768
v 8.140960 0.000000 -7.218440
v 7.682744 4.430264 -6.760248
v 5.630264 0.000000 -7.218440
v 6.088456 4.430264 -6.760248
v 4.200216 4.430264 -1.311880
v 9.570960 4.430264 -1.311880
v 9.570960 4.430264 -10.614320
v 4.200216 4.430264 -10.614320
v 1.514832 4.430264 -5.963104
v 3.442800 7.257464 0.000000
v 0.000000 7.257464 -5.963103
v 10.328400 7.257464 0.000000
v 13.771200 7.257464 -5.963103
v 12.256400 4.430264 -5.963104
v 12.187520 17.198240 -5.963103
v 9.536560 17.198240 -1.371511
v 10.328400 7.257464 -11.926240
v 9.536560 17.198240 -10.554719
v 3.442800 7.257464 -11.926240
v 1.583688 17.198240 -5.963103
v 4.234648 17.198240 -10.554719
v 6.885600 20.983040 -5.963103
v 4.234648 17.198240 -1.371511
v 6.885600 17.198240 -5.963103
vt 0.067071 0.888991
vt 0.002695 0.751210
vt 0.081442 0.751210
vt 0.250481 0.889448
vt 0.317472 0.751210
vt 0.322410 0.889448
vt 0.438915 0.753901
vt 0.360169 0.832648
vt 0.360169 0.753901
vt 0.192559 0.751210
vt 0.245090 0.888850
vt 0.170971 0.888850
vt 0.086833 0.888991
vt 0.151208 0.751210
vt 0.165580 0.888991
vt 0.017066 0.888991
vt 0.271797 0.751210
vt 0.438915 0.832648
vt 0.239624 0.751210
vt 0.101204 0.751210
vt 0.515204 0.545906
vt 0.506053 0.411607
vt 0.540206 0.589210
vt 0.360170 0.495833
vt 0.471900 0.570908
vt 0.346118 0.413234
vt 0.296114 0.463238
vt 0.296114 0.413234
vt 0.496902 0.614212
vt 0.506054 0.748510
vt 0.651937 0.664284
vt 0.651937 0.495833
vt 0.156307 0.402066
vt 0.002695 0.317749
vt 0.142353 0.310343
vt 0.923204 0.311180
vt 0.730997 0.402256
vt 0.707240 0.311180
vt 0.701849 0.316633
vt 0.504923 0.402724
vt 0.487100 0.312156
vt 0.677916 0.006143
vt 0.414822 0.006143
vt 0.512559 0.002695
vt 0.405918 0.406216
vt 0.360168 0.316633
vt 0.360169 0.664285
vt 0.849534 0.811167
vt 0.657327 0.720092
vt 0.873291 0.720092
vt 0.321998 0.407843
vt 0.354778 0.317749
vt 0.329879 0.008398
vt 0.166311 0.002695
vt 0.146710 0.413234
vt 0.146710 0.579526
vt 0.002695 0.496380
vt 0.290723 0.496380
vt 0.878682 0.577469
vt 0.997305 0.411607
vt 0.997305 0.577000
vt 0.290723 0.662672
vt 0.146710 0.745819
vt 0.002695 0.662672
vt 0.997305 0.742393
vt 0.146710 0.579526
vt 0.058775 0.008398
vt 0.898368 0.002695
vt 0.682163 0.411607
vt 0.346118 0.463238
vt 0.047375 0.407843
vt 0.899448 0.402256
vt 0.672428 0.406216
vt 0.681083 0.811167
vt 0.732076 0.002695
vt 0.848456 0.411607
vn 0.0000 0.1029 0.9947
vn 0.9947 0.1029 0.0000
vn 0.0000 -1.0000 -0.0000
vn -0.9947 0.1029 0.0000
vn 0.0000 0.1029 -0.9947
vn 0.0000 1.0000 0.0000
vn -0.7856 -0.4209 0.4536
vn 0.0000 -0.4209 0.9071
vn 0.7856 -0.4209 0.4536
vn 0.8579 0.1367 0.4953
vn 0.8579 0.1367 -0.4953
vn 0.7856 -0.4209 -0.4536
vn 0.7856 -0.4209 -0.4535
vn 0.0000 -0.4209 -0.9071
vn -0.7856 -0.4209 -0.4535
vn -0.8579 0.1367 -0.4953
vn -0.5508 0.7716 -0.3180
vn -0.5508 0.7716 0.3180
vn 0.8660 0.0000 0.5000
vn 0.0000 0.7716 0.6361
vn 0.5508 0.7716 0.3180
vn 0.5508 0.7716 -0.3180
vn 0.0000 0.7716 -0.6361
vn -0.8579 0.1367 0.4953
vn 0.0000 0.1367 0.9906
vn 0.0000 0.1367 -0.9906
vn -0.7856 -0.4209 -0.4536
s 1
f 2/1/1 4/2/1 1/3/1
f 5/4/2 2/5/2 1/6/2
f 7/7/3 1/8/3 4/9/3
f 3/10/4 7/11/4 4/12/4
f 7/13/5 6/14/5 5/15/5
f 2/1/1 3/16/1 4/2/1
f 5/4/2 6/17/2 2/5/2
f 7/7/3 5/18/3 1/8/3
f 3/10/4 8/19/4 7/11/4
f 7/13/5 8/20/5 6/14/5
f 3/21/3 9/22/3 8/23/3
f 9/22/3 3/21/3 10/24/3
f 10/24/3 3/21/3 2/25/3
f 6/26/6 3/27/6 2/28/6
f 6/29/3 11/30/3 2/25/3
f 8/23/3 11/30/3 6/29/3
f 8/23/3 12/31/3 11/30/3
f 9/22/3 12/31/3 8/23/3
f 12/31/3 9/22/3 13/32/3
f 13/33/7 14/34/7 15/35/7
f 14/36/8 10/37/8 16/38/8
f 16/39/9 18/40/9 17/41/9
f 17/41/10 20/42/10 16/39/10
f 17/41/11 22/43/11 19/44/11
f 17/41/12 11/45/13 21/46/13
f 10/24/3 11/30/3 18/47/3
f 10/24/3 2/25/3 11/30/3
f 11/48/14 23/49/14 21/50/14
f 12/51/15 15/35/15 23/52/15
f 25/53/16 15/35/16 24/54/16
f 24/55/17 26/56/17 25/57/17
f 27/58/18 26/56/18 24/55/18
f 26/59/19 27/60/19 28/61/19
f 20/62/20 26/56/20 27/58/20
f 19/63/21 26/56/21 20/62/21
f 22/64/22 26/56/22 19/63/22
f 22/65/19 26/59/19 28/61/19
f 26/56/23 22/64/23 25/57/23
f 28/66/6 22/64/6 25/57/6
f 24/54/24 14/34/24 27/67/24
f 16/38/25 27/68/25 14/36/25
f 28/66/6 27/58/6 20/62/6
f 25/69/26 21/50/26 23/49/26
f 6/26/6 8/70/6 3/27/6
f 13/33/7 9/71/7 14/34/7
f 14/36/8 9/72/8 10/37/8
f 16/39/9 10/73/9 18/40/9
f 17/41/10 19/44/10 20/42/10
f 17/41/11 21/46/11 22/43/11
f 17/41/12 18/40/12 11/45/13
f 11/48/14 12/74/14 23/49/14
f 12/51/15 13/33/27 15/35/15
f 25/53/16 23/52/16 15/35/16
f 25/57/6 24/55/6 28/66/6
f 24/55/6 27/58/6 28/66/6
f 24/54/24 15/35/24 14/34/24
f 16/38/25 20/75/25 27/68/25
f 20/62/6 19/63/6 28/66/6
f 19/63/6 22/64/6 28/66/6
f 25/69/26 22/76/26 21/50/26
