# Blender v2.92.0 OBJ File: 'OGConvert.blend'
# www.blender.org
o roadTile_061
v 24.000000 4.800001 -6.000000
v 6.000000 4.800001 -6.000000
v 6.000000 5.040000 -6.000000
v 24.000000 5.040000 -6.000000
v 24.000000 4.800001 -24.000000
v 6.000000 4.800001 -24.000000
v 24.000000 2.400001 -24.000000
v 6.000000 2.400001 -24.000000
v 24.000000 2.400000 -6.000000
v 24.000000 5.040000 0.000000
v 24.000000 0.000000 0.000000
v 24.000000 0.000001 -24.000000
v 6.000000 5.040001 -24.000000
v 0.000000 5.040001 -24.000000
v 0.000000 5.040000 0.000000
v 0.000000 0.000001 -24.000000
v 0.000000 0.000000 -0.000000
vt 0.828522 0.502356
vt 0.833475 0.873822
vt 0.828522 0.873822
vt 0.551885 0.873822
vt 0.606366 0.997644
vt 0.502356 0.997644
vt 0.373822 0.373822
vt 0.497644 0.002356
vt 0.497644 0.497644
vt 0.616031 0.873822
vt 0.665559 0.873822
vt 0.611078 0.997644
vt 0.997644 0.497644
vt 0.502356 0.002356
vt 0.997644 0.002356
vt 0.719800 0.997644
vt 0.823810 0.502356
vt 0.823810 0.997644
vt 0.378534 0.502356
vt 0.482544 0.997644
vt 0.378534 0.997644
vt 0.492691 0.873822
vt 0.497644 0.502356
vt 0.497644 0.873822
vt 0.833475 0.502356
vt 0.502356 0.502356
vt 0.551885 0.502356
vt 0.601413 0.873822
vt 0.606366 0.873822
vt 0.373822 0.002356
vt 0.002356 0.497644
vt 0.002356 0.373822
vt 0.665559 0.502356
vt 0.715088 0.502356
vt 0.715088 0.997644
vt 0.611078 0.873822
vt 0.502356 0.497644
vt 0.719800 0.502356
vt 0.482544 0.502356
vt 0.492691 0.502356
vt 0.373822 0.502356
vt 0.002356 0.873822
vt 0.002356 0.502356
vt 0.616031 0.502356
vt 0.601413 0.502356
vt 0.373822 0.873822
vn 0.0000 0.0000 -1.0000
vn 1.0000 0.0000 0.0000
vn -0.0000 1.0000 0.0000
vn 0.0000 -1.0000 -0.0000
vn -0.0000 -0.0000 1.0000
vn -1.0000 0.0000 -0.0000
s 1
f 2/1/1 4/2/1 1/3/1
f 9/4/2 10/5/2 11/6/2
f 3/7/3 14/8/3 15/9/3
f 6/10/1 8/11/1 14/12/1
f 11/13/4 16/14/4 12/15/4
f 17/16/5 10/17/5 15/18/5
f 14/19/6 17/20/6 15/21/6
f 2/22/2 13/23/2 3/24/2
f 2/1/1 3/25/1 4/2/1
f 12/26/2 7/27/2 9/4/2
f 1/28/2 4/29/2 10/5/2
f 11/6/2 12/26/2 9/4/2
f 9/4/2 1/28/2 10/5/2
f 3/7/3 13/30/3 14/8/3
f 15/9/3 10/31/3 3/7/3
f 10/31/3 4/32/3 3/7/3
f 7/33/1 12/34/1 8/11/1
f 12/34/1 16/35/1 8/11/1
f 16/35/1 14/12/1 8/11/1
f 14/12/1 13/36/1 6/10/1
f 11/13/4 17/37/4 16/14/4
f 17/16/5 11/38/5 10/17/5
f 14/19/6 16/39/6 17/20/6
f 2/22/2 6/40/2 13/23/2
f 6/41/3 1/42/3 5/43/3
f 7/33/1 6/10/1 5/44/1
f 9/4/2 5/45/2 1/28/2
f 6/41/3 2/46/3 1/42/3
f 7/33/1 8/11/1 6/10/1
f 9/4/2 7/27/2 5/45/2
