# Blender v2.92.0 OBJ File: 'OGConvert.blend'
# www.blender.org
o roadTile_123
v 24.000000 4.800000 0.000000
v 24.000000 2.400000 0.000000
v 24.000000 2.400001 -24.000000
v 24.000000 4.800001 -24.000000
v 0.000000 4.800000 0.000000
v 0.000000 2.400000 0.000000
v 0.000000 4.800001 -18.000000
v 0.000000 2.400001 -18.000000
v 0.000000 13.840001 -21.000000
v 0.000000 0.000001 -21.000000
v 0.000000 0.000000 0.000000
v 0.000000 13.840001 -18.000000
v 0.391578 13.840001 -21.025681
v 0.391578 0.000001 -21.025681
v 6.000000 13.840001 -24.000000
v 3.000000 13.840001 -24.000000
v 2.974336 13.840001 -23.608400
v 2.897776 13.840001 -23.223520
v 2.771640 13.840001 -22.851919
v 2.598080 13.840001 -22.500000
v 2.380064 13.840001 -22.173679
v 2.121320 13.840001 -21.878639
v 1.826288 13.840001 -21.619921
v 1.500000 13.840001 -21.401920
v 1.148048 13.840001 -21.228399
v 0.776457 13.840001 -21.102240
v 0.783157 13.840001 -18.051359
v 1.552912 13.840001 -18.204479
v 2.296104 13.840001 -18.456720
v 3.000000 13.840001 -18.803841
v 3.652568 13.840001 -19.239840
v 4.242640 13.840001 -19.757360
v 4.760120 13.840001 -20.347441
v 5.196152 13.840001 -21.000000
v 5.543280 13.840001 -21.703920
v 5.795552 13.840001 -22.447121
v 5.948672 13.840001 -23.216881
v 24.000000 0.000001 -24.000000
v 3.000000 0.000001 -24.000000
v 6.000000 4.800001 -24.000000
v 6.000000 2.400001 -24.000000
v 24.000000 0.000000 -0.000000
v 0.776457 0.000001 -21.102240
v 1.148048 0.000001 -21.228399
v 1.500000 0.000001 -21.401920
v 1.826288 0.000001 -21.619921
v 2.121320 0.000001 -21.878639
v 2.380064 0.000001 -22.173679
v 2.598080 0.000001 -22.500000
v 2.771640 0.000001 -22.851919
v 2.897776 0.000001 -23.223520
v 2.974336 0.000001 -23.608400
v 5.948672 4.800001 -23.216881
v 5.795552 4.800001 -22.447121
v 5.543280 4.800001 -21.703920
v 5.196152 4.800001 -21.000000
v 4.760120 4.800001 -20.347441
v 4.242640 4.800001 -19.757360
v 3.652568 4.800001 -19.239840
v 3.000000 4.800001 -18.803841
v 2.296104 4.800001 -18.456720
v 1.552912 4.800001 -18.204479
v 0.783157 4.800001 -18.051359
vt 0.842410 0.277510
vt 0.891915 0.002476
vt 0.891915 0.277510
vt 0.842410 0.689128
vt 0.891915 0.689128
vt 0.551981 0.799716
vt 0.601485 0.434044
vt 0.601485 0.799716
vt 0.410011 0.589989
vt 0.422183 0.600664
vt 0.002476 0.997524
vt 0.551981 0.429093
vt 0.601486 0.063421
vt 0.601486 0.429093
vt 0.842410 0.002476
vt 0.551981 0.434044
vt 0.002476 0.502476
vt 0.399337 0.577817
vt 0.373762 0.502476
vt 0.374821 0.518629
vt 0.377979 0.534507
vt 0.497524 0.626238
vt 0.497524 0.997524
vt 0.481370 0.625179
vt 0.465492 0.622020
vt 0.450162 0.616817
vt 0.383183 0.549837
vt 0.390343 0.564357
vt 0.435643 0.609657
vt 0.551981 0.063421
vt 0.502476 0.860661
vt 0.956101 0.182454
vt 0.948054 0.467931
vt 0.948054 0.182454
vt 0.960856 0.073973
vt 0.959277 0.081912
vt 0.901084 0.057957
vt 0.502476 0.002476
vt 0.497524 0.002476
vt 0.046233 0.453768
vt 0.040147 0.448431
vt 0.792905 0.689128
vt 0.792905 0.277510
vt 0.792905 0.002476
vt 0.964193 0.182454
vt 0.956101 0.467931
vt 0.972193 0.182454
vt 0.964193 0.467931
vt 0.979963 0.182454
vt 0.972193 0.467931
vt 0.987371 0.182454
vt 0.979963 0.467931
vt 0.994289 0.182454
vt 0.987371 0.467931
vt 0.903785 0.182454
vt 0.896867 0.467931
vt 0.896867 0.182454
vt 0.911194 0.182454
vt 0.903785 0.467931
vt 0.918963 0.182454
vt 0.911194 0.467931
vt 0.926963 0.182454
vt 0.918963 0.467931
vt 0.935055 0.182454
vt 0.926963 0.467931
vt 0.943103 0.182454
vt 0.935055 0.467931
vt 0.964568 0.694079
vt 0.954714 0.880548
vt 0.954714 0.694079
vt 0.943266 0.880548
vt 0.943266 0.694079
vt 0.930423 0.880548
vt 0.930423 0.694079
vt 0.916402 0.880548
vt 0.916402 0.694079
vt 0.901446 0.880548
vt 0.901446 0.694079
vt 0.885809 0.880548
vt 0.885809 0.694079
vt 0.869758 0.880548
vt 0.869758 0.694079
vt 0.853569 0.880548
vt 0.853569 0.694079
vt 0.837519 0.880548
vt 0.837519 0.694079
vt 0.821882 0.880548
vt 0.821882 0.694079
vt 0.806926 0.880548
vt 0.806926 0.694079
vt 0.792905 0.880548
vt 0.792905 0.694079
vt 0.787954 0.799716
vt 0.787954 0.860661
vt 0.502476 0.434044
vt 0.922442 0.014647
vt 0.933116 0.002476
vt 0.976872 0.046232
vt 0.971535 0.052318
vt 0.906288 0.042627
vt 0.913448 0.028107
vt 0.967038 0.059049
vt 0.897926 0.073834
vt 0.958747 0.089989
vt 0.897925 0.106144
vt 0.896867 0.089989
vt 0.959277 0.098066
vt 0.960856 0.106005
vt 0.906287 0.137351
vt 0.901084 0.122021
vt 0.963459 0.113669
vt 0.922442 0.165330
vt 0.913448 0.151869
vt 0.967039 0.120929
vt 0.976872 0.133745
vt 0.933116 0.177502
vt 0.971536 0.127659
vt 0.963458 0.066308
vt 0.502476 0.429093
vt 0.787954 0.002476
vt 0.787954 0.063421
vt 0.002476 0.002476
vt 0.497524 0.497524
vt 0.051570 0.459853
vt 0.059646 0.473843
vt 0.062248 0.481508
vt 0.064357 0.497524
vt 0.063827 0.489447
vt 0.010553 0.436172
vt 0.002476 0.435643
vt 0.018492 0.437752
vt 0.056067 0.466584
vt 0.026157 0.440354
vt 0.033416 0.443933
vt 0.994289 0.467931
vt 0.943103 0.467931
vt 0.964568 0.880548
vn 1.0000 0.0000 0.0000
vn 0.0000 -0.0000 1.0000
vn -1.0000 -0.0000 -0.0000
vn 0.0000 1.0000 -0.0000
vn 0.0000 0.0000 -1.0000
vn -0.1306 0.0000 -0.9914
vn -0.0654 0.0000 -0.9979
vn -0.0000 -1.0000 -0.0000
vn -0.2589 0.0000 -0.9659
vn -0.1305 0.0000 -0.9914
vn -0.3827 0.0000 -0.9239
vn -0.2588 0.0000 -0.9659
vn -0.4999 0.0000 -0.8661
vn -0.6087 0.0000 -0.7934
vn -0.7071 0.0000 -0.7071
vn -0.7934 0.0000 -0.6087
vn -0.8660 0.0000 -0.5000
vn -0.9239 0.0000 -0.3827
vn -0.9659 0.0000 -0.2588
vn -0.9914 0.0000 -0.1305
vn -0.9979 0.0000 -0.0654
vn 0.9979 0.0000 0.0654
vn 0.9914 0.0000 0.1305
vn 0.9659 0.0000 0.2588
vn 0.9239 0.0000 0.3827
vn 0.8660 0.0000 0.5000
vn 0.7934 0.0000 0.6088
vn 0.7071 0.0000 0.7071
vn 0.6088 0.0000 0.7934
vn 0.5000 0.0000 0.8660
vn 0.3827 0.0000 0.9239
vn 0.2588 0.0000 0.9659
vn 0.1305 0.0000 0.9914
vn 0.0654 0.0000 0.9979
s 1
f 2/1/1 4/2/1 1/3/1
f 6/4/2 1/3/2 5/5/2
f 8/6/3 5/7/3 7/8/3
f 58/9/4 59/10/4 1/11/4
f 3/12/5 40/13/5 4/14/5
f 2/1/1 3/15/1 4/2/1
f 6/4/2 2/1/2 1/3/2
f 8/6/3 6/16/3 5/7/3
f 1/11/4 4/17/4 57/18/4
f 4/17/4 40/19/4 53/20/4
f 4/17/4 53/20/4 54/21/4
f 7/22/4 5/23/4 63/24/4
f 5/23/4 1/11/4 59/10/4
f 63/24/4 5/23/4 62/25/4
f 62/25/4 5/23/4 61/26/4
f 4/17/4 54/21/4 55/27/4
f 4/17/4 55/27/4 56/28/4
f 61/26/4 5/23/4 60/29/4
f 60/29/4 5/23/4 59/10/4
f 4/17/4 56/28/4 57/18/4
f 1/11/4 57/18/4 58/9/4
f 3/12/5 41/30/5 40/13/5
f 8/6/3 7/8/3 10/31/3
f 13/32/6 10/33/7 9/34/7
f 20/35/4 21/36/4 34/37/4
f 40/13/5 41/30/5 39/38/5
f 42/39/8 47/40/8 48/41/8
f 2/1/2 11/42/2 42/43/2
f 3/15/1 42/43/1 38/44/1
f 26/45/9 14/46/10 13/32/6
f 25/47/11 43/48/12 26/45/9
f 24/49/13 44/50/11 25/47/11
f 23/51/14 45/52/13 24/49/13
f 22/53/15 46/54/14 23/51/14
f 21/55/16 47/56/15 22/57/15
f 20/58/17 48/59/16 21/55/16
f 19/60/18 49/61/17 20/58/17
f 18/62/19 50/63/18 19/60/18
f 17/64/20 51/65/19 18/62/19
f 16/66/21 52/67/20 17/64/20
f 40/68/22 37/69/23 53/70/23
f 53/70/23 36/71/24 54/72/24
f 54/72/24 35/73/25 55/74/25
f 55/74/25 34/75/26 56/76/26
f 56/76/26 33/77/27 57/78/27
f 57/78/27 32/79/28 58/80/28
f 58/80/28 31/81/29 59/82/29
f 59/82/29 30/83/30 60/84/30
f 60/84/30 29/85/31 61/86/31
f 61/86/31 28/87/32 62/88/32
f 62/88/32 27/89/33 63/90/33
f 63/90/33 12/91/34 7/92/34
f 12/93/3 9/94/3 7/8/3
f 9/94/3 10/31/3 7/8/3
f 10/31/3 11/95/3 8/6/3
f 11/95/3 6/16/3 8/6/3
f 13/32/6 14/46/10 10/33/7
f 37/96/4 15/97/4 16/98/4
f 37/96/4 16/98/4 17/99/4
f 35/100/4 36/101/4 18/102/4
f 36/101/4 37/96/4 17/99/4
f 33/103/4 34/37/4 21/36/4
f 34/37/4 35/100/4 20/35/4
f 33/103/4 21/36/4 22/104/4
f 31/105/4 32/106/4 23/107/4
f 32/106/4 33/103/4 22/104/4
f 31/105/4 23/107/4 24/108/4
f 29/109/4 30/110/4 25/111/4
f 30/110/4 31/105/4 24/108/4
f 25/111/4 30/110/4 24/108/4
f 27/112/4 28/113/4 26/114/4
f 28/113/4 29/109/4 25/111/4
f 9/115/4 12/116/4 27/112/4
f 13/117/4 9/115/4 27/112/4
f 28/113/4 25/111/4 26/114/4
f 36/101/4 17/99/4 18/102/4
f 26/114/4 13/117/4 27/112/4
f 35/100/4 18/102/4 19/118/4
f 35/100/4 19/118/4 20/35/4
f 23/107/4 32/106/4 22/104/4
f 3/12/5 38/119/5 41/30/5
f 38/119/5 39/38/5 41/30/5
f 39/38/5 16/120/5 40/13/5
f 16/120/5 15/121/5 40/13/5
f 38/122/8 42/39/8 48/41/8
f 42/39/8 11/123/8 46/124/8
f 44/125/8 11/123/8 43/126/8
f 11/123/8 10/127/8 14/128/8
f 11/123/8 14/128/8 43/126/8
f 52/129/8 39/130/8 38/122/8
f 51/131/8 52/129/8 38/122/8
f 11/123/8 44/125/8 45/132/8
f 11/123/8 45/132/8 46/124/8
f 50/133/8 51/131/8 38/122/8
f 49/134/8 50/133/8 38/122/8
f 42/39/8 46/124/8 47/40/8
f 48/41/8 49/134/8 38/122/8
f 2/1/2 6/4/2 11/42/2
f 3/15/1 2/1/1 42/43/1
f 26/45/9 43/48/12 14/46/10
f 25/47/11 44/50/11 43/48/12
f 24/49/13 45/52/13 44/50/11
f 23/51/14 46/54/14 45/52/13
f 22/53/15 47/135/15 46/54/14
f 21/55/16 48/59/16 47/56/15
f 20/58/17 49/61/17 48/59/16
f 19/60/18 50/63/18 49/61/17
f 18/62/19 51/65/19 50/63/18
f 17/64/20 52/67/20 51/65/19
f 16/66/21 39/136/21 52/67/20
f 40/68/22 15/137/22 37/69/23
f 53/70/23 37/69/23 36/71/24
f 54/72/24 36/71/24 35/73/25
f 55/74/25 35/73/25 34/75/26
f 56/76/26 34/75/26 33/77/27
f 57/78/27 33/77/27 32/79/28
f 58/80/28 32/79/28 31/81/29
f 59/82/29 31/81/29 30/83/30
f 60/84/30 30/83/30 29/85/31
f 61/86/31 29/85/31 28/87/32
f 62/88/32 28/87/32 27/89/33
f 63/90/33 27/89/33 12/91/34
