# Blender v2.92.0 OBJ File: 'OGConvert.blend'
# www.blender.org
o roadTile_157
v 6.153992 4.400001 -21.650560
v 6.000000 4.400001 -24.000000
v 0.000000 4.400001 -24.000000
v 0.000000 4.400000 0.000000
v 24.000000 4.400000 0.000000
v 24.000000 4.400001 -6.000000
v 21.650560 4.400001 -6.153992
v 19.341280 4.400001 -6.613336
v 17.111679 4.400001 -7.370168
v 15.000000 4.400001 -8.411520
v 13.042320 4.400001 -9.719600
v 11.272080 4.400001 -11.272080
v 9.719600 4.400001 -13.042320
v 8.411520 4.400001 -15.000000
v 7.370168 4.400001 -17.111679
v 6.613336 4.400001 -19.341280
v 6.153992 3.640001 -21.650560
v 6.000000 3.640001 -24.000000
v 24.000000 3.640000 -6.000000
v 24.000000 3.640001 -15.000000
v 22.825279 3.640001 -15.076960
v 21.670641 3.640001 -15.306640
v 20.555840 3.640001 -15.685120
v 19.500000 3.640001 -16.205759
v 18.521120 3.640001 -16.859840
v 17.636000 3.640001 -17.636000
v 16.859840 3.640001 -18.521120
v 16.205759 3.640001 -19.500000
v 15.685120 3.640001 -20.555840
v 15.306640 3.640001 -21.670641
v 15.076960 3.640001 -22.825279
v 15.000000 3.640001 -24.000000
v 6.613336 3.640001 -19.341280
v 7.370168 3.640001 -17.111679
v 8.411520 3.640001 -15.000000
v 9.719600 3.640001 -13.042320
v 11.272080 3.640001 -11.272080
v 13.042320 3.640001 -9.719600
v 15.000000 3.640001 -8.411520
v 17.111679 3.640000 -7.370168
v 19.341280 3.640000 -6.613336
v 21.650560 3.640000 -6.153992
v 24.000000 0.000000 -6.000000
v 24.000000 0.000001 -15.000000
v 24.000000 0.000000 0.000000
v 0.000000 0.000000 -0.000000
v 0.000000 0.000001 -24.000000
v 6.000000 0.000001 -24.000000
v 15.000000 0.000001 -24.000000
v 24.000000 0.000001 -24.000000
v 24.000000 3.640001 -24.000000
vt 0.497660 0.497660
vt 0.265023 0.265023
vt 0.297064 0.228488
vt 0.760462 0.502340
vt 0.776147 0.550763
vt 0.760462 0.550763
vt 0.811915 0.002340
vt 0.997660 0.002340
vt 0.997660 0.188085
vt 0.740098 0.869713
vt 0.755783 0.869714
vt 0.755783 0.992171
vt 0.780827 0.729843
vt 0.796512 0.778266
vt 0.780827 0.778266
vt 0.780827 0.681304
vt 0.796512 0.729843
vt 0.780827 0.633479
vt 0.796512 0.681304
vt 0.780827 0.587190
vt 0.796512 0.633479
vt 0.780827 0.543227
vt 0.796512 0.587190
vt 0.780827 0.502340
vt 0.796512 0.543227
vt 0.760462 0.737379
vt 0.776147 0.778266
vt 0.760462 0.778266
vt 0.760462 0.693415
vt 0.776147 0.737379
vt 0.760462 0.647126
vt 0.776147 0.693415
vt 0.760462 0.599302
vt 0.776147 0.647126
vt 0.776147 0.599302
vt 0.473998 0.997660
vt 0.564807 0.502340
vt 0.564807 0.997660
vt 0.378510 0.502340
vt 0.469318 0.997660
vt 0.378509 0.997660
vt 0.660295 0.502340
vt 0.644610 0.624798
vt 0.569486 0.502340
vt 0.370652 0.050828
vt 0.373830 0.002340
vt 0.497660 0.002340
vt 0.002340 0.497660
vt 0.144503 0.345552
vt 0.002340 0.373830
vt 0.050828 0.370652
vt 0.098488 0.361172
vt 0.361172 0.098488
vt 0.345552 0.144503
vt 0.324060 0.188085
vt 0.188085 0.324060
vt 0.228488 0.297064
vt 0.776147 0.502340
vt 0.997660 0.373830
vt 0.626170 0.002340
vt 0.997660 0.497660
vt 0.502340 0.497660
vt 0.502340 0.002340
vt 0.664974 0.992171
vt 0.664974 0.869713
vt 0.796512 0.502340
vt 0.473998 0.502340
vt 0.469318 0.502340
vt 0.660295 0.624798
vt 0.569486 0.624798
vt 0.280958 0.712970
vt 0.260755 0.726469
vt 0.188085 0.552110
vt 0.664974 0.686027
vt 0.644610 0.808485
vt 0.325342 0.505518
vt 0.373830 0.502340
vt 0.349586 0.689673
vt 0.373830 0.688085
vt 0.231667 0.530618
vt 0.277682 0.514998
vt 0.325756 0.694414
vt 0.147682 0.579106
vt 0.242488 0.742488
vt 0.079106 0.647682
vt 0.111147 0.611147
vt 0.226469 0.760755
vt 0.212970 0.780958
vt 0.030618 0.731667
vt 0.052109 0.688085
vt 0.202225 0.802748
vt 0.005518 0.825342
vt 0.014998 0.777682
vt 0.194413 0.825756
vt 0.188085 0.873830
vt 0.002340 0.873830
vt 0.189673 0.849586
vt 0.302748 0.702225
vt 0.740098 0.686027
vt 0.569486 0.808485
vt 0.644610 0.992171
vt 0.569486 0.992171
vt 0.373830 0.873830
vt 0.664974 0.502340
vt 0.740098 0.502340
vn -0.0000 1.0000 0.0000
vn 0.9979 0.0000 -0.0654
vn 0.9914 0.0000 -0.1305
vn 0.0000 -1.0000 -0.0000
vn 1.0000 0.0000 0.0000
vn 0.1305 0.0000 -0.9914
vn 0.0654 0.0000 -0.9979
vn 0.2588 0.0000 -0.9659
vn 0.3827 0.0000 -0.9239
vn 0.5000 0.0000 -0.8660
vn 0.6088 0.0000 -0.7934
vn 0.7071 0.0000 -0.7071
vn 0.7934 0.0000 -0.6088
vn 0.8660 0.0000 -0.5000
vn 0.9239 0.0000 -0.3827
vn 0.9659 0.0000 -0.2588
vn -0.0000 -0.0000 1.0000
vn -1.0000 0.0000 -0.0000
vn 0.0000 0.0000 -1.0000
s 1
f 4/1/1 12/2/1 13/3/1
f 18/4/2 1/5/3 17/6/3
f 49/7/4 50/8/4 44/9/4
f 19/10/5 6/11/5 5/12/5
f 42/13/6 6/14/7 19/15/7
f 41/16/8 7/17/6 42/13/6
f 40/18/9 8/19/8 41/16/8
f 39/20/10 9/21/9 40/18/9
f 38/22/11 10/23/10 39/20/10
f 37/24/12 11/25/11 38/22/11
f 36/26/13 12/27/12 37/28/12
f 35/29/14 13/30/13 36/26/13
f 34/31/15 14/32/14 35/29/14
f 33/33/16 15/34/15 34/31/15
f 17/6/3 16/35/16 33/33/16
f 46/36/17 5/37/17 4/38/17
f 3/39/18 46/40/18 4/41/18
f 3/42/19 18/43/19 47/44/19
f 1/45/1 2/46/1 3/47/1
f 4/1/1 5/48/1 9/49/1
f 5/48/1 6/50/1 7/51/1
f 5/48/1 7/51/1 8/52/1
f 1/45/1 3/47/1 16/53/1
f 3/47/1 4/1/1 15/54/1
f 16/53/1 3/47/1 15/54/1
f 5/48/1 8/52/1 9/49/1
f 14/55/1 15/54/1 4/1/1
f 4/1/1 9/49/1 10/56/1
f 4/1/1 10/56/1 11/57/1
f 13/3/1 14/55/1 4/1/1
f 4/1/1 11/57/1 12/2/1
f 18/4/2 2/58/2 1/5/3
f 44/9/4 43/59/4 48/60/4
f 43/59/4 45/61/4 46/62/4
f 48/60/4 43/59/4 46/62/4
f 46/62/4 47/63/4 48/60/4
f 48/60/4 49/7/4 44/9/4
f 5/12/5 45/64/5 19/10/5
f 45/64/5 43/65/5 19/10/5
f 42/13/6 7/17/6 6/14/7
f 41/16/8 8/19/8 7/17/6
f 40/18/9 9/21/9 8/19/8
f 39/20/10 10/23/10 9/21/9
f 38/22/11 11/25/11 10/23/10
f 37/24/12 12/66/12 11/25/11
f 36/26/13 13/30/13 12/27/12
f 35/29/14 14/32/14 13/30/13
f 34/31/15 15/34/15 14/32/14
f 33/33/16 16/35/16 15/34/15
f 17/6/3 1/5/3 16/35/16
f 46/36/17 45/67/17 5/37/17
f 3/39/18 47/68/18 46/40/18
f 2/69/19 18/43/19 3/42/19
f 18/43/19 48/70/19 47/44/19
f 24/71/1 25/72/1 39/73/1
f 44/74/5 19/10/5 43/65/5
f 32/75/19 48/70/19 18/43/19
f 42/76/1 19/77/1 21/78/1
f 19/77/1 20/79/1 21/78/1
f 40/80/1 41/81/1 22/82/1
f 41/81/1 42/76/1 21/78/1
f 38/83/1 39/73/1 25/72/1
f 39/73/1 40/80/1 24/71/1
f 38/83/1 25/72/1 26/84/1
f 36/85/1 37/86/1 27/87/1
f 37/86/1 38/83/1 26/84/1
f 36/85/1 27/87/1 28/88/1
f 34/89/1 35/90/1 29/91/1
f 35/90/1 36/85/1 28/88/1
f 29/91/1 35/90/1 28/88/1
f 17/92/1 33/93/1 30/94/1
f 33/93/1 34/89/1 29/91/1
f 32/95/1 18/96/1 31/97/1
f 18/96/1 17/92/1 31/97/1
f 33/93/1 29/91/1 30/94/1
f 41/81/1 21/78/1 22/82/1
f 30/94/1 31/97/1 17/92/1
f 40/80/1 22/82/1 23/98/1
f 40/80/1 23/98/1 24/71/1
f 27/87/1 37/86/1 26/84/1
f 44/74/5 20/99/5 19/10/5
f 32/75/19 49/100/19 48/70/19
f 49/100/19 51/101/19 50/102/19
f 22/82/1 21/78/1 51/103/1
f 20/99/5 50/104/5 51/105/5
f 49/100/19 32/75/19 51/101/19
f 20/79/1 51/103/1 21/78/1
f 51/103/1 32/95/1 31/97/1
f 30/94/1 51/103/1 31/97/1
f 30/94/1 29/91/1 51/103/1
f 29/91/1 28/88/1 51/103/1
f 28/88/1 27/87/1 51/103/1
f 27/87/1 26/84/1 51/103/1
f 26/84/1 25/72/1 51/103/1
f 25/72/1 24/71/1 51/103/1
f 24/71/1 23/98/1 51/103/1
f 23/98/1 22/82/1 51/103/1
f 20/99/5 44/74/5 50/104/5
