# Blender v2.92.0 OBJ File: 'OGConvert.blend'
# www.blender.org
o roadTile_210
v 3.000008 13.840000 0.000001
v 3.000008 13.840000 -2.999999
v 3.000000 0.000001 -3.000000
v 3.000000 0.000000 -0.000001
v 3.000008 13.840001 -18.000000
v 3.000008 13.840000 -6.000000
v 0.000005 13.840000 -6.000000
v 0.000005 13.840000 -2.999999
v 6.000008 13.840000 0.000001
v 6.000008 13.840001 -24.000000
v 3.000008 13.840001 -24.000000
v 3.000008 13.840001 -21.000000
v 0.000005 13.840001 -21.000000
v 0.000005 13.840001 -18.000000
v 3.000008 11.200000 -6.000000
v 3.000008 11.200001 -18.000000
v 21.000000 11.200000 -6.000000
v 21.000000 13.840000 -6.000000
v 24.000000 13.840000 -6.000000
v 24.000000 4.800001 -6.000000
v 0.000005 4.800001 -6.000000
v 21.000000 11.200001 -18.000000
v 21.000000 13.840001 -18.000000
v 24.000000 4.800001 -18.000000
v 24.000000 13.840001 -18.000000
v 0.000005 4.800001 -18.000000
v 24.000000 13.840000 -2.999999
v 24.000000 0.000002 -3.000000
v 24.000000 0.000001 -21.000000
v 24.000000 13.840001 -21.000000
v 24.000000 2.400001 -18.000000
v 24.000000 2.400000 -6.000000
v 21.000000 0.000001 -3.000000
v 21.000000 13.840000 -2.999999
v 21.000000 13.840001 -21.000000
v 21.000000 13.840001 -24.000000
v 18.000000 13.840001 -24.000000
v 18.000000 13.840000 0.000000
v 21.000000 13.840000 0.000000
v 21.000000 0.000001 -21.000000
v 21.000000 0.000001 -24.000000
v 3.000008 0.000001 -24.000000
v 6.000008 13.600001 -24.000000
v 6.000008 11.200001 -24.000000
v 18.000000 11.200001 -24.000000
v 18.000000 13.600001 -24.000000
v 3.000008 0.000001 -21.000000
v 0.000005 0.000001 -21.000000
v 0.000000 0.000002 -3.000000
v 0.000005 2.400000 -6.000000
v 0.000005 2.400001 -18.000000
v 6.000008 13.600000 0.000001
v 21.000000 0.000000 -0.000001
v 18.000000 13.600000 0.000001
v 18.000000 11.200000 0.000000
v 6.000008 11.200000 0.000000
vt 0.696169 0.924281
vt 0.744811 0.699876
vt 0.744811 0.924281
vt 0.842746 0.351826
vt 0.842746 0.400468
vt 0.794103 0.303183
vt 0.848583 0.894447
vt 0.891389 0.699876
vt 0.891388 0.894447
vt 0.682781 0.351826
vt 0.786552 0.303183
vt 0.786552 0.692325
vt 0.841032 0.699876
vt 0.798226 0.894447
vt 0.798226 0.699876
vt 0.150352 0.789611
vt 0.046581 0.449111
vt 0.150352 0.400468
vt 0.408019 0.595040
vt 0.408019 0.303183
vt 0.446933 0.351826
vt 0.232256 0.924281
vt 0.280899 0.699876
vt 0.280899 0.924281
vt 0.947582 0.643682
vt 0.947582 0.595040
vt 0.996225 0.692325
vt 0.176063 0.924281
vt 0.224706 0.699876
vt 0.224706 0.924281
vt 0.639975 0.924281
vt 0.688618 0.699876
vt 0.688618 0.924281
vt 0.639975 0.003775
vt 0.821575 0.246989
vt 0.639975 0.295632
vt 0.344643 0.699876
vt 0.393286 0.924281
vt 0.344643 0.924281
vt 0.871931 0.228181
vt 0.920574 0.003775
vt 0.920574 0.228181
vt 0.632424 0.003775
vt 0.632425 0.295632
vt 0.593510 0.052418
vt 0.337093 0.699876
vt 0.288450 0.924281
vt 0.288450 0.699876
vt 0.614032 0.602590
vt 0.610141 0.991733
vt 0.610141 0.602590
vt 0.400468 0.692325
vt 0.218869 0.449111
vt 0.400468 0.400468
vt 0.947582 0.924281
vt 0.898939 0.699876
vt 0.947582 0.699876
vt 0.161794 0.400468
vt 0.157903 0.789611
vt 0.157903 0.400468
vt 0.408019 0.894447
vt 0.602590 0.602590
vt 0.602590 0.894447
vt 0.696169 0.699876
vt 0.842746 0.595040
vt 0.891389 0.595040
vt 0.891389 0.643682
vt 0.842746 0.643682
vt 0.842746 0.692325
vt 0.794103 0.692325
vt 0.891389 0.351826
vt 0.891389 0.400468
vt 0.842746 0.303183
vt 0.848583 0.699876
vt 0.639975 0.351826
vt 0.639975 0.303183
vt 0.639975 0.692325
vt 0.682781 0.643682
vt 0.639975 0.643682
vt 0.841032 0.894447
vt 0.003775 0.789611
vt 0.046581 0.740968
vt 0.003775 0.740968
vt 0.003775 0.449111
vt 0.003775 0.400468
vt 0.632424 0.546397
vt 0.632424 0.595040
vt 0.485847 0.546397
vt 0.632425 0.303183
vt 0.485847 0.351826
vt 0.632425 0.351826
vt 0.446933 0.546397
vt 0.232256 0.699876
vt 0.947582 0.400468
vt 0.898939 0.400468
vt 0.898939 0.351826
vt 0.947582 0.351826
vt 0.947582 0.303183
vt 0.996225 0.303183
vt 0.898939 0.643682
vt 0.898939 0.595040
vt 0.947582 0.692325
vt 0.176063 0.699876
vt 0.639975 0.699876
vt 0.864381 0.003775
vt 0.821575 0.052418
vt 0.864381 0.052418
vt 0.860489 0.052418
vt 0.864381 0.246989
vt 0.864381 0.295632
vt 0.860489 0.246989
vt 0.393286 0.699876
vt 0.871931 0.003775
vt 0.408019 0.295632
vt 0.554596 0.246989
vt 0.408019 0.246989
vt 0.593510 0.246989
vt 0.408019 0.052418
vt 0.408019 0.003775
vt 0.554596 0.052418
vt 0.337093 0.924281
vt 0.614032 0.991733
vt 0.176063 0.692325
vt 0.218868 0.643683
vt 0.176063 0.643683
vt 0.179954 0.643683
vt 0.176063 0.449111
vt 0.176063 0.400469
vt 0.179954 0.449111
vt 0.898939 0.924281
vt 0.161794 0.789611
vt 0.408019 0.602590
vt 0.198347 0.003775
vt 0.003775 0.392918
vt 0.003775 0.003775
vt 0.400468 0.003775
vt 0.205897 0.392918
vt 0.205897 0.003775
vt 0.198347 0.392918
vt 0.400469 0.392918
vn -1.0000 0.0000 0.0000
vn 0.0000 1.0000 0.0000
vn 0.0000 0.0000 -1.0000
vn 1.0000 0.0000 0.0000
vn 0.0000 0.0000 1.0000
vn 0.0000 -1.0000 -0.0000
s 1
f 2/1/1 4/2/1 1/3/1
f 12/4/2 5/5/2 10/6/2
f 6/7/1 16/8/1 15/9/1
f 17/10/3 20/11/3 21/12/3
f 23/13/4 17/14/4 22/15/4
f 24/16/5 16/17/5 26/18/5
f 28/19/4 29/20/4 31/21/4
f 28/22/5 34/23/5 33/24/5
f 34/25/2 18/26/2 38/27/2
f 40/28/3 30/29/3 29/30/3
f 35/31/4 41/32/4 36/33/4
f 42/34/3 45/35/3 41/36/3
f 12/37/1 42/38/1 47/39/1
f 48/40/3 12/41/3 47/42/3
f 48/43/1 49/44/1 51/45/1
f 3/46/5 8/47/5 49/48/5
f 10/49/4 52/50/4 43/51/4
f 53/52/5 56/53/5 4/54/5
f 34/55/4 53/56/4 33/57/4
f 46/58/1 38/59/1 37/60/1
f 17/61/6 16/62/6 22/63/6
f 2/1/1 3/64/1 4/2/1
f 6/65/2 7/66/2 8/67/2
f 2/68/2 1/69/2 9/70/2
f 6/65/2 8/67/2 2/68/2
f 13/71/2 14/72/2 5/5/2
f 6/65/2 2/68/2 9/70/2
f 12/4/2 13/71/2 5/5/2
f 5/5/2 6/65/2 9/70/2
f 9/70/2 10/6/2 5/5/2
f 10/6/2 11/73/2 12/4/2
f 6/7/1 5/74/1 16/8/1
f 17/10/3 18/75/3 19/76/3
f 21/12/3 7/77/3 15/78/3
f 7/77/3 6/79/3 15/78/3
f 17/10/3 19/76/3 20/11/3
f 21/12/3 15/78/3 17/10/3
f 23/13/4 18/80/4 17/14/4
f 24/16/5 25/81/5 22/82/5
f 25/81/5 23/83/5 22/82/5
f 5/84/5 14/85/5 16/17/5
f 14/85/5 26/18/5 16/17/5
f 24/16/5 22/82/5 16/17/5
f 19/86/4 27/87/4 20/88/4
f 27/87/4 28/19/4 20/88/4
f 29/20/4 30/89/4 24/90/4
f 30/89/4 25/91/4 24/90/4
f 24/90/4 31/21/4 29/20/4
f 32/92/4 20/88/4 28/19/4
f 31/21/4 32/92/4 28/19/4
f 28/22/5 27/93/5 34/23/5
f 23/94/2 25/95/2 30/96/2
f 35/97/2 36/98/2 37/99/2
f 23/94/2 30/96/2 35/97/2
f 27/100/2 19/101/2 18/26/2
f 23/94/2 35/97/2 37/99/2
f 34/25/2 27/100/2 18/26/2
f 18/26/2 23/94/2 37/99/2
f 37/99/2 38/27/2 18/26/2
f 38/27/2 39/102/2 34/25/2
f 40/28/3 35/103/3 30/29/3
f 35/31/4 40/104/4 41/32/4
f 42/34/3 11/105/3 44/106/3
f 11/105/3 10/107/3 43/108/3
f 43/108/3 44/106/3 11/105/3
f 37/109/3 36/110/3 46/111/3
f 36/110/3 41/36/3 45/35/3
f 46/111/3 36/110/3 45/35/3
f 42/34/3 44/106/3 45/35/3
f 12/37/1 11/112/1 42/38/1
f 48/40/3 13/113/3 12/41/3
f 49/44/1 8/114/1 21/115/1
f 8/114/1 7/116/1 21/115/1
f 21/115/1 50/117/1 49/44/1
f 14/118/1 13/119/1 26/120/1
f 13/119/1 48/43/1 26/120/1
f 51/45/1 26/120/1 48/43/1
f 49/44/1 50/117/1 51/45/1
f 3/46/5 2/121/5 8/47/5
f 10/49/4 9/122/4 52/50/4
f 53/52/5 39/123/5 55/124/5
f 39/123/5 38/125/5 54/126/5
f 54/126/5 55/124/5 39/123/5
f 9/127/5 1/128/5 52/129/5
f 1/128/5 4/54/5 56/53/5
f 52/129/5 1/128/5 56/53/5
f 53/52/5 55/124/5 56/53/5
f 34/55/4 39/130/4 53/56/4
f 46/58/1 54/131/1 38/59/1
f 17/61/6 15/132/6 16/62/6
f 51/45/1 21/115/1 26/120/1
f 21/133/2 24/134/2 26/135/2
f 32/92/4 24/90/4 20/88/4
f 43/136/2 54/137/2 46/138/2
f 46/111/3 44/106/3 43/108/3
f 52/129/5 55/124/5 54/126/5
f 51/45/1 50/117/1 21/115/1
f 21/133/2 20/139/2 24/134/2
f 32/92/4 31/21/4 24/90/4
f 43/136/2 52/140/2 54/137/2
f 46/111/3 45/35/3 44/106/3
f 52/129/5 56/53/5 55/124/5
