# Blender v2.92.0 OBJ File: 'kenney_OGConvert.blend'
# www.blender.org
o roadTile_275
v 3.000000 0.000000 -0.000001
v 3.000000 0.000000 -2.250000
v 3.000000 0.630000 -2.250000
v 3.000000 0.630000 -1.875000
v 3.000000 0.600000 -1.875000
v 3.000000 0.300000 -1.875000
v 3.000000 0.300000 -0.375001
v 3.000000 0.600000 -0.375001
v 3.000000 0.630000 -0.375001
v 3.000000 0.630000 -0.000000
v 0.000000 0.000000 0.000000
v -0.000000 0.000000 -2.250000
v 0.000000 0.630000 0.000000
v -0.000000 0.630000 -0.375000
v -0.000000 0.600000 -0.375000
v -0.000000 0.300000 -0.375000
v -0.000000 0.300000 -1.875000
v -0.000000 0.600000 -1.875000
v -0.000000 0.630000 -1.875000
v -0.000000 0.630000 -2.250000
vt 0.110895 0.878191
vt 0.110895 0.504508
vt 0.160719 0.815910
vt 0.375771 0.002088
vt 0.002088 0.500332
vt 0.002088 0.002088
vt 0.846683 0.500332
vt 0.742052 0.002088
vt 0.846683 0.002088
vt 0.850859 0.500332
vt 0.913139 0.002088
vt 0.913139 0.500332
vt 0.106719 0.504508
vt 0.106719 0.878191
vt 0.056895 0.566788
vt 0.983772 0.002088
vt 0.988754 0.500332
vt 0.983772 0.500332
vt 0.992930 0.002088
vt 0.997912 0.500332
vt 0.992930 0.500332
vt 0.979596 0.002088
vt 0.917315 0.500332
vt 0.917315 0.002088
vt 0.633245 0.002088
vt 0.737876 0.500332
vt 0.633245 0.500332
vt 0.215526 0.504508
vt 0.160719 0.566788
vt 0.215526 0.566788
vt 0.210544 0.566788
vt 0.215526 0.815910
vt 0.215526 0.878191
vt 0.210544 0.815910
vt 0.375771 0.500332
vt 0.742052 0.500332
vt 0.850859 0.002088
vt 0.002088 0.878191
vt 0.056895 0.815910
vt 0.002088 0.815910
vt 0.007070 0.815910
vt 0.002088 0.566788
vt 0.002088 0.504508
vt 0.007070 0.566788
vt 0.988754 0.002088
vt 0.997912 0.002088
vt 0.979596 0.500332
vt 0.737876 0.002088
vt 0.629069 0.500332
vt 0.379947 0.002088
vt 0.629069 0.002088
vt 0.379947 0.500332
vn 1.0000 0.0000 -0.0000
vn -0.0000 -1.0000 -0.0000
vn 0.0000 -0.0000 1.0000
vn 0.0000 1.0000 0.0000
vn -1.0000 -0.0000 0.0000
vn -0.0000 0.0000 -1.0000
s 1
f 1/1/1 2/2/1 7/3/1
f 1/4/2 12/5/2 2/6/2
f 13/7/3 1/8/3 10/9/3
f 13/10/4 9/11/4 14/12/4
f 12/13/5 11/14/5 17/15/5
f 15/16/6 9/17/6 8/18/6
f 5/19/3 19/20/3 18/21/3
f 3/22/4 19/23/4 4/24/4
f 3/25/6 12/26/6 20/27/6
f 2/2/1 3/28/1 6/29/1
f 3/28/1 4/30/1 5/31/1
f 5/31/1 6/29/1 3/28/1
f 9/32/1 10/33/1 8/34/1
f 10/33/1 1/1/1 7/3/1
f 8/34/1 10/33/1 7/3/1
f 2/2/1 6/29/1 7/3/1
f 1/4/2 11/35/2 12/5/2
f 13/7/3 11/36/3 1/8/3
f 13/10/4 10/37/4 9/11/4
f 11/14/5 13/38/5 16/39/5
f 13/38/5 14/40/5 15/41/5
f 15/41/5 16/39/5 13/38/5
f 19/42/5 20/43/5 18/44/5
f 20/43/5 12/13/5 17/15/5
f 18/44/5 20/43/5 17/15/5
f 11/14/5 16/39/5 17/15/5
f 15/16/6 14/45/6 9/17/6
f 5/19/3 4/46/3 19/20/3
f 3/22/4 20/47/4 19/23/4
f 3/25/6 2/48/6 12/26/6
f 18/49/4 8/50/4 5/51/4
f 17/15/5 15/41/5 18/44/5
f 7/3/1 5/31/1 8/34/1
f 18/49/4 15/52/4 8/50/4
f 17/15/5 16/39/5 15/41/5
f 7/3/1 6/29/1 5/31/1
