# Blender v2.92.0 OBJ File: 'OGConvert.blend'
# www.blender.org
o roadTile_112
v 1.826288 5.040001 -21.619921
v 2.121320 5.040001 -21.878639
v 2.121320 0.000001 -21.878639
v 1.826288 0.000001 -21.619921
v 6.000000 5.040001 -24.000000
v 3.000000 5.040001 -24.000000
v 2.974336 5.040001 -23.608400
v 2.897776 5.040001 -23.223520
v 2.771640 5.040001 -22.851919
v 2.598080 5.040001 -22.500000
v 2.380064 5.040001 -22.173679
v 1.500000 5.040001 -21.401920
v 1.148048 5.040001 -21.228399
v 0.776457 5.040001 -21.102240
v 0.391578 5.040001 -21.025681
v 0.000000 5.040001 -21.000000
v 0.000000 5.040001 -18.000000
v 0.783157 5.040001 -18.051359
v 1.552912 5.040001 -18.204479
v 2.296104 5.040001 -18.456720
v 3.000000 5.040001 -18.803841
v 3.652568 5.040001 -19.239840
v 4.242640 5.040001 -19.757360
v 4.760120 5.040001 -20.347441
v 5.196152 5.040001 -21.000000
v 5.543280 5.040001 -21.703920
v 5.795552 5.040001 -22.447121
v 5.948672 5.040001 -23.216881
v 24.000000 0.000001 -24.000000
v 3.000000 0.000001 -24.000000
v 6.000000 4.800001 -24.000000
v 6.000000 2.400001 -24.000000
v 24.000000 2.400001 -24.000000
v 24.000000 0.000000 -0.000000
v 0.000000 0.000000 0.000000
v 0.000000 0.000001 -21.000000
v 0.391578 0.000001 -21.025681
v 0.776457 0.000001 -21.102240
v 1.148048 0.000001 -21.228399
v 1.500000 0.000001 -21.401920
v 2.380064 0.000001 -22.173679
v 2.598080 0.000001 -22.500000
v 2.771640 0.000001 -22.851919
v 2.897776 0.000001 -23.223520
v 2.974336 0.000001 -23.608400
v 24.000000 2.400000 0.000000
v 0.000000 2.400000 0.000000
v 24.000000 4.800000 0.000000
v 24.000000 4.800001 -24.000000
v 0.000000 4.800000 0.000000
v 0.000000 4.800001 -18.000000
v 0.000000 2.400001 -18.000000
v 0.783157 4.800001 -18.051359
v 5.948672 4.800001 -23.216881
v 5.795552 4.800001 -22.447121
v 5.543280 4.800001 -21.703920
v 5.196152 4.800001 -21.000000
v 4.760120 4.800001 -20.347441
v 4.242640 4.800001 -19.757360
v 3.652568 4.800001 -19.239840
v 3.000000 4.800001 -18.803841
v 2.296104 4.800001 -18.456720
v 1.552912 4.800001 -18.204479
vt 0.607162 0.502153
vt 0.600235 0.606249
vt 0.600235 0.502153
vt 0.489921 0.573743
vt 0.488340 0.581693
vt 0.430071 0.557707
vt 0.308183 0.563178
vt 0.258613 0.563178
vt 0.313140 0.502153
vt 0.997847 0.002153
vt 0.545968 0.454033
vt 0.539874 0.448689
vt 0.155168 0.502153
vt 0.105599 0.990351
vt 0.105599 0.502153
vt 0.051723 0.502153
vt 0.002153 0.990351
vt 0.002153 0.502153
vt 0.317446 0.502153
vt 0.367015 0.502153
vt 0.367015 0.868301
vt 0.568925 0.502153
vt 0.560867 0.606249
vt 0.560867 0.502153
vt 0.577028 0.502153
vt 0.568925 0.606249
vt 0.585038 0.502153
vt 0.577028 0.606249
vt 0.592818 0.502153
vt 0.585038 0.606249
vt 0.592818 0.606249
vt 0.611469 0.578629
vt 0.616426 0.594743
vt 0.611469 0.594743
vt 0.620733 0.502153
vt 0.625689 0.518267
vt 0.620732 0.518267
vt 0.625689 0.534473
vt 0.620732 0.534473
vt 0.625689 0.550493
vt 0.620732 0.550493
vt 0.625689 0.566054
vt 0.620732 0.566054
vt 0.625689 0.580889
vt 0.620732 0.580889
vt 0.625689 0.594743
vt 0.620732 0.594743
vt 0.611469 0.502153
vt 0.616426 0.516008
vt 0.611469 0.516008
vt 0.616426 0.530842
vt 0.611469 0.530842
vt 0.616426 0.546403
vt 0.611469 0.546403
vt 0.616426 0.562423
vt 0.611469 0.562423
vt 0.616426 0.578629
vt 0.517192 0.502153
vt 0.510265 0.606249
vt 0.510265 0.502153
vt 0.524610 0.502153
vt 0.517192 0.606249
vt 0.532390 0.502153
vt 0.524610 0.606249
vt 0.540400 0.502153
vt 0.532390 0.606249
vt 0.548503 0.502153
vt 0.540400 0.606249
vt 0.556561 0.502153
vt 0.548503 0.606249
vt 0.607162 0.606249
vt 0.451457 0.514340
vt 0.462145 0.502153
vt 0.505958 0.545967
vt 0.500614 0.552061
vt 0.435282 0.542356
vt 0.442451 0.527818
vt 0.496111 0.558800
vt 0.426909 0.573605
vt 0.487809 0.589781
vt 0.426908 0.605956
vt 0.425848 0.589780
vt 0.488340 0.597868
vt 0.489921 0.605817
vt 0.435281 0.637204
vt 0.430071 0.621854
vt 0.492527 0.613492
vt 0.451457 0.665220
vt 0.442451 0.651742
vt 0.496112 0.620761
vt 0.505958 0.633594
vt 0.462145 0.677407
vt 0.500614 0.627500
vt 0.492526 0.566069
vt 0.258613 0.929326
vt 0.209044 0.929326
vt 0.209044 0.502153
vt 0.313140 0.563178
vt 0.502153 0.002153
vt 0.997847 0.497847
vt 0.551311 0.460127
vt 0.559398 0.474135
vt 0.562003 0.481810
vt 0.564115 0.497847
vt 0.563585 0.489759
vt 0.510241 0.436415
vt 0.502153 0.435885
vt 0.518191 0.437996
vt 0.555814 0.466866
vt 0.525866 0.440602
vt 0.533134 0.444186
vt 0.155168 0.990351
vt 0.051723 0.990351
vt 0.421542 0.868301
vt 0.421542 0.929326
vt 0.416585 0.868301
vt 0.317446 0.929326
vt 0.625689 0.502153
vt 0.616426 0.502153
vt 0.556561 0.606249
vt 0.101292 0.502153
vt 0.101292 0.990351
vt 0.204737 0.502153
vt 0.204737 0.990351
vt 0.416585 0.502153
vt 0.410220 0.089780
vt 0.422407 0.100469
vt 0.002153 0.497847
vt 0.308183 0.929326
vt 0.002153 0.002153
vt 0.399532 0.077593
vt 0.373923 0.002153
vt 0.374984 0.018328
vt 0.378146 0.034226
vt 0.497847 0.126077
vt 0.497847 0.497847
vt 0.481671 0.125016
vt 0.465773 0.121853
vt 0.450423 0.116644
vt 0.383356 0.049576
vt 0.390526 0.064115
vt 0.435885 0.109474
vn -0.7071 0.0000 -0.7071
vn -0.6087 0.0000 -0.7934
vn 0.0000 1.0000 -0.0000
vn 0.0000 0.0000 -1.0000
vn -0.0000 -1.0000 -0.0000
vn 0.0000 -0.0000 1.0000
vn 1.0000 0.0000 0.0000
vn -1.0000 -0.0000 0.0000
vn -0.1306 0.0000 -0.9914
vn -0.0654 0.0000 -0.9979
vn -0.2588 0.0000 -0.9659
vn -0.1305 0.0000 -0.9914
vn -0.3827 0.0000 -0.9239
vn -0.4999 0.0000 -0.8661
vn 0.1305 0.0000 0.9914
vn 0.0654 0.0000 0.9979
vn 0.9979 0.0000 0.0654
vn 0.9914 0.0000 0.1305
vn 0.9659 0.0000 0.2588
vn 0.9239 0.0000 0.3827
vn 0.8660 0.0000 0.5000
vn 0.7934 0.0000 0.6088
vn 0.7071 0.0000 0.7071
vn 0.6088 0.0000 0.7934
vn 0.5000 0.0000 0.8660
vn 0.3827 0.0000 0.9239
vn 0.2588 0.0000 0.9659
vn -0.7934 0.0000 -0.6087
vn -0.8660 0.0000 -0.5000
vn -0.9239 0.0000 -0.3827
vn -0.9659 0.0000 -0.2588
vn -0.9914 0.0000 -0.1305
vn -0.9979 0.0000 -0.0654
s 1
f 2/1/1 4/2/2 1/3/2
f 10/4/3 11/5/3 25/6/3
f 31/7/4 32/8/4 6/9/4
f 34/10/5 3/11/5 41/12/5
f 46/13/6 35/14/6 34/15/6
f 33/16/7 34/17/7 29/18/7
f 35/19/8 47/20/8 52/21/8
f 15/22/9 36/23/10 16/24/10
f 14/25/11 37/26/12 15/22/9
f 13/27/13 38/28/11 14/25/11
f 12/29/14 39/30/13 13/27/13
f 1/3/2 40/31/14 12/29/14
f 53/32/15 17/33/16 51/34/16
f 31/35/17 28/36/18 54/37/18
f 54/37/18 27/38/19 55/39/19
f 55/39/19 26/40/20 56/41/20
f 56/41/20 25/42/21 57/43/21
f 57/43/21 24/44/22 58/45/22
f 58/45/22 23/46/23 59/47/23
f 59/48/23 22/49/24 60/50/24
f 60/50/24 21/51/25 61/52/25
f 61/52/25 20/53/26 62/54/26
f 62/54/26 19/55/27 63/56/27
f 63/56/27 18/57/15 53/32/15
f 11/58/28 3/59/1 2/60/1
f 10/61/29 41/62/28 11/58/28
f 9/63/30 42/64/29 10/61/29
f 8/65/31 43/66/30 9/63/30
f 7/67/32 44/68/31 8/65/31
f 6/69/33 45/70/32 7/67/32
f 2/1/1 3/71/1 4/2/2
f 28/72/3 5/73/3 6/74/3
f 28/72/3 6/74/3 7/75/3
f 26/76/3 27/77/3 8/78/3
f 27/77/3 28/72/3 7/75/3
f 24/79/3 25/6/3 11/5/3
f 25/6/3 26/76/3 10/4/3
f 24/79/3 11/5/3 2/80/3
f 22/81/3 23/82/3 1/83/3
f 23/82/3 24/79/3 2/80/3
f 22/81/3 1/83/3 12/84/3
f 20/85/3 21/86/3 13/87/3
f 21/86/3 22/81/3 12/84/3
f 13/87/3 21/86/3 12/84/3
f 18/88/3 19/89/3 14/90/3
f 19/89/3 20/85/3 13/87/3
f 16/91/3 17/92/3 18/88/3
f 15/93/3 16/91/3 18/88/3
f 19/89/3 13/87/3 14/90/3
f 27/77/3 7/75/3 8/78/3
f 14/90/3 15/93/3 18/88/3
f 26/76/3 8/78/3 9/94/3
f 26/76/3 9/94/3 10/4/3
f 1/83/3 23/82/3 2/80/3
f 33/95/4 29/96/4 32/8/4
f 29/96/4 30/97/4 32/8/4
f 30/97/4 6/9/4 32/8/4
f 6/9/4 5/98/4 31/7/4
f 29/99/5 34/10/5 41/12/5
f 34/10/5 35/100/5 4/101/5
f 39/102/5 35/100/5 38/103/5
f 35/100/5 36/104/5 37/105/5
f 35/100/5 37/105/5 38/103/5
f 45/106/5 30/107/5 29/99/5
f 44/108/5 45/106/5 29/99/5
f 35/100/5 39/102/5 40/109/5
f 35/100/5 40/109/5 4/101/5
f 43/110/5 44/108/5 29/99/5
f 42/111/5 43/110/5 29/99/5
f 34/10/5 4/101/5 3/11/5
f 41/12/5 42/111/5 29/99/5
f 46/13/6 47/112/6 35/14/6
f 33/16/7 46/113/7 34/17/7
f 17/114/8 16/115/8 51/116/8
f 16/115/8 36/117/8 52/21/8
f 51/116/8 16/115/8 52/21/8
f 36/117/8 35/19/8 52/21/8
f 15/22/9 37/26/12 36/23/10
f 14/25/11 38/28/11 37/26/12
f 13/27/13 39/30/13 38/28/11
f 12/29/14 40/31/14 39/30/13
f 1/3/2 4/2/2 40/31/14
f 53/32/15 18/57/15 17/33/16
f 31/35/17 5/118/17 28/36/18
f 54/37/18 28/36/18 27/38/19
f 55/39/19 27/38/19 26/40/20
f 56/41/20 26/40/20 25/42/21
f 57/43/21 25/42/21 24/44/22
f 58/45/22 24/44/22 23/46/23
f 59/48/23 23/119/23 22/49/24
f 60/50/24 22/49/24 21/51/25
f 61/52/25 21/51/25 20/53/26
f 62/54/26 20/53/26 19/55/27
f 63/56/27 19/55/27 18/57/15
f 11/58/28 41/62/28 3/59/1
f 10/61/29 42/64/29 41/62/28
f 9/63/30 43/66/30 42/64/29
f 8/65/31 44/68/31 43/66/30
f 7/67/32 45/70/32 44/68/31
f 6/69/33 30/120/33 45/70/32
f 46/113/7 49/121/7 48/122/7
f 47/112/6 48/123/6 50/124/6
f 52/21/8 50/125/8 51/116/8
f 59/126/3 60/127/3 48/128/3
f 33/95/4 31/7/4 49/129/4
f 46/113/7 33/16/7 49/121/7
f 47/112/6 46/13/6 48/123/6
f 52/21/8 47/20/8 50/125/8
f 48/128/3 49/130/3 58/131/3
f 49/130/3 31/132/3 54/133/3
f 49/130/3 54/133/3 55/134/3
f 51/135/3 50/136/3 53/137/3
f 50/136/3 48/128/3 60/127/3
f 53/137/3 50/136/3 63/138/3
f 63/138/3 50/136/3 62/139/3
f 49/130/3 55/134/3 56/140/3
f 49/130/3 56/140/3 57/141/3
f 62/139/3 50/136/3 61/142/3
f 61/142/3 50/136/3 60/127/3
f 49/130/3 57/141/3 58/131/3
f 48/128/3 58/131/3 59/126/3
f 33/95/4 32/8/4 31/7/4
