# Blender v2.92.0 OBJ File: 'OGConvert.blend'
# www.blender.org
o roadTile_198
v 0.000000 13.840000 0.000001
v 0.000000 8.800000 0.000000
v 0.000000 0.000000 -0.000000
v 24.000000 0.000000 -0.000000
v 24.000000 13.840000 0.000001
v 0.000000 13.840001 -24.000000
v 0.000000 8.800001 -24.000000
v 0.000000 13.840000 -6.000000
v 0.000000 13.600000 -6.000000
v 0.000000 11.200000 -6.000000
v 0.000000 11.200001 -18.000000
v 0.000000 13.600001 -18.000000
v 0.000000 13.840001 -18.000000
v 0.000000 0.000001 -24.000000
v 24.000000 13.840001 -24.000000
v 24.000000 0.000001 -24.000000
v 24.000000 13.840001 -18.000000
v 24.000000 13.600001 -18.000000
v 24.000000 11.200001 -18.000000
v 24.000000 11.200000 -6.000000
v 24.000000 13.600000 -6.000000
v 24.000000 13.840000 -6.000000
vt 0.419825 0.881363
vt 0.259670 0.444577
vt 0.511550 0.444577
vt 0.536302 0.002597
vt 0.536302 0.439383
vt 0.492623 0.330187
vt 0.676899 0.444576
vt 0.768624 0.881363
vt 0.516744 0.881363
vt 0.696457 0.002597
vt 0.696457 0.439383
vt 0.439383 0.439383
vt 0.002597 0.002597
vt 0.439383 0.002597
vt 0.002597 0.881363
vt 0.206430 0.553773
vt 0.206430 0.772166
vt 0.883014 0.444577
vt 0.773817 0.881363
vt 0.773817 0.444577
vt 0.925236 0.002597
vt 0.929604 0.439383
vt 0.925236 0.439383
vt 0.934797 0.002597
vt 0.939165 0.439383
vt 0.934797 0.439383
vt 0.888207 0.881363
vt 0.997403 0.444577
vt 0.997403 0.881363
vt 0.511550 0.881363
vt 0.259670 0.881363
vt 0.444577 0.111793
vt 0.444576 0.002597
vt 0.448944 0.111793
vt 0.492623 0.111793
vt 0.444577 0.439383
vt 0.444577 0.330187
vt 0.448944 0.330187
vt 0.516744 0.444576
vt 0.768624 0.444576
vt 0.002597 0.439383
vt 0.254477 0.772166
vt 0.254477 0.881363
vt 0.250109 0.772166
vt 0.002597 0.444577
vt 0.254477 0.444577
vt 0.254477 0.553773
vt 0.250109 0.553773
vt 0.883014 0.881363
vt 0.929604 0.002597
vt 0.939165 0.002597
vt 0.888207 0.444577
vt 0.920043 0.439383
vt 0.701650 0.002597
vt 0.920043 0.002597
vt 0.701650 0.439383
vn 0.0000 -0.0000 1.0000
vn -1.0000 0.0000 -0.0000
vn 0.0000 0.0000 -1.0000
vn -0.0000 -1.0000 -0.0000
vn 1.0000 0.0000 0.0000
vn 0.0000 1.0000 0.0000
s 1
f 2/1/1 4/2/1 5/3/1
f 7/4/2 2/5/2 10/6/2
f 7/7/3 15/8/3 16/9/3
f 2/5/2 14/10/2 3/11/2
f 3/12/4 16/13/4 4/14/4
f 4/15/5 19/16/5 20/17/5
f 15/18/6 13/19/6 17/20/6
f 18/21/1 13/22/1 12/23/1
f 9/24/3 22/25/3 21/26/3
f 1/27/6 22/28/6 8/29/6
f 5/3/1 1/30/1 2/1/1
f 2/1/1 3/31/1 4/2/1
f 13/32/2 6/33/2 12/34/2
f 6/33/2 7/4/2 11/35/2
f 12/34/2 6/33/2 11/35/2
f 2/5/2 1/36/2 10/6/2
f 1/36/2 8/37/2 9/38/2
f 9/38/2 10/6/2 1/36/2
f 10/6/2 11/35/2 7/4/2
f 16/9/3 14/39/3 7/7/3
f 7/7/3 6/40/3 15/8/3
f 2/5/2 7/4/2 14/10/2
f 3/12/4 14/41/4 16/13/4
f 22/42/5 5/43/5 21/44/5
f 5/43/5 4/15/5 20/17/5
f 21/44/5 5/43/5 20/17/5
f 4/15/5 16/45/5 19/16/5
f 16/45/5 15/46/5 19/16/5
f 15/46/5 17/47/5 18/48/5
f 15/46/5 18/48/5 19/16/5
f 15/18/6 6/49/6 13/19/6
f 18/21/1 17/50/1 13/22/1
f 9/24/3 8/51/3 22/25/3
f 1/27/6 5/52/6 22/28/6
f 12/53/6 21/54/6 18/55/6
f 11/35/2 9/38/2 12/34/2
f 20/17/5 18/48/5 21/44/5
f 12/53/6 9/56/6 21/54/6
f 11/35/2 10/6/2 9/38/2
f 20/17/5 19/16/5 18/48/5
