# Blender v2.92.0 OBJ File: 'OGConvert.blend'
# www.blender.org
o roadTile_188
v 24.000000 4.400001 -18.000000
v 21.000000 4.400001 -18.000000
v 21.000000 3.640001 -18.000000
v 24.000000 3.640001 -18.000000
v 24.000000 4.400001 -24.000000
v 21.000000 4.400001 -24.000000
v 24.000000 0.000001 -24.000000
v 21.000000 0.000001 -24.000000
v 24.000000 0.000000 -0.000000
v 21.000000 0.000000 -0.000000
v 24.000000 0.000001 -18.000000
v 24.000000 0.000000 -6.000000
v 24.000000 4.400000 0.000000
v 21.000000 4.400000 0.000000
v 24.000000 4.400001 -6.000000
v 21.000000 4.400001 -6.000000
v 24.000000 3.640000 -6.000000
v 21.000000 3.640000 -6.000000
v 21.000000 5.040000 0.000000
v 21.000000 5.040001 -24.000000
v 18.000000 5.040000 0.000000
v 18.000000 4.800000 0.000000
v 18.000000 2.400000 0.000000
v 6.000000 2.400000 0.000000
v 6.000000 4.800000 0.000000
v 6.000000 5.040000 0.000000
v 3.000000 5.040000 0.000000
v 3.000000 4.400000 0.000000
v 3.000000 0.000000 -0.000000
v 3.000000 0.000001 -24.000000
v 3.000000 4.400001 -24.000000
v 3.000000 5.040001 -24.000000
v 6.000000 5.040001 -24.000000
v 6.000000 4.800001 -24.000000
v 6.000000 2.400001 -24.000000
v 18.000000 2.400001 -24.000000
v 18.000000 4.800001 -24.000000
v 18.000000 5.040001 -24.000000
v 3.000000 4.400001 -6.000000
v 3.000000 3.640000 -6.000000
v 3.000000 3.640001 -18.000000
v 3.000000 4.400001 -18.000000
v 0.000000 0.000000 0.000000
v 0.000000 4.400000 0.000000
v 0.000000 0.000001 -24.000000
v 0.000000 0.000000 -6.000000
v 0.000000 0.000001 -18.000000
v 0.000000 4.400001 -24.000000
v 0.000000 4.400001 -18.000000
v 0.000000 3.640001 -18.000000
v 0.000000 3.640000 -6.000000
v 0.000000 4.400001 -6.000000
vt 0.631885 0.818338
vt 0.616262 0.756672
vt 0.631885 0.756672
vt 0.838354 0.633340
vt 0.776688 0.756672
vt 0.776688 0.633340
vt 0.970542 0.065002
vt 0.880099 0.003336
vt 0.970542 0.003336
vt 0.126668 0.003336
vt 0.373332 0.003336
vt 0.496664 0.065002
vt 0.204051 0.565002
vt 0.113607 0.503336
vt 0.204051 0.503336
vt 0.838354 0.503336
vt 0.776688 0.626668
vt 0.776688 0.503336
vt 0.640012 0.756672
vt 0.655634 0.818338
vt 0.640012 0.818338
vt 0.113607 0.934998
vt 0.204051 0.996664
vt 0.113607 0.996664
vt 0.373332 0.496664
vt 0.126668 0.496664
vt 0.003336 0.434998
vt 0.880099 0.434998
vt 0.970542 0.496664
vt 0.880099 0.496664
vt 0.708350 0.756672
vt 0.770016 0.633340
vt 0.770016 0.756672
vt 0.571674 0.756672
vt 0.587296 0.818338
vt 0.571674 0.818338
vt 0.609590 0.818338
vt 0.593968 0.756672
vt 0.609590 0.756672
vt 0.708350 0.626668
vt 0.770016 0.503336
vt 0.770016 0.626668
vt 0.239500 0.873332
vt 0.314322 0.996664
vt 0.223878 0.996664
vt 0.239500 0.626668
vt 0.223878 0.626668
vt 0.223878 0.503336
vt 0.395815 0.626668
vt 0.320994 0.503336
vt 0.411437 0.503336
vt 0.395815 0.873332
vt 0.411437 0.873332
vt 0.411437 0.996664
vt 0.616262 0.818338
vt 0.838354 0.756672
vt 0.880099 0.065002
vt 0.496664 0.003336
vt 0.003336 0.065002
vt 0.003336 0.003336
vt 0.113607 0.565002
vt 0.838354 0.626668
vt 0.655634 0.756672
vt 0.204051 0.934998
vt 0.003336 0.496664
vt 0.496664 0.434998
vt 0.496664 0.496664
vt 0.970542 0.434998
vt 0.708350 0.633340
vt 0.587296 0.756672
vt 0.593968 0.818338
vt 0.708350 0.503336
vt 0.223878 0.873332
vt 0.314322 0.873332
vt 0.314321 0.503336
vt 0.314321 0.626668
vt 0.411437 0.626668
vt 0.320994 0.626668
vt 0.320994 0.996664
vt 0.320994 0.873332
vt 0.633340 0.503336
vt 0.571674 0.750000
vt 0.571674 0.503336
vt 0.640012 0.750000
vt 0.701678 0.503336
vt 0.701678 0.750000
vt 0.633340 0.750000
vt 0.640012 0.503336
vt 0.847116 0.373332
vt 0.847116 0.126668
vt 0.860271 0.003336
vt 0.162940 0.873332
vt 0.831493 0.126668
vt 0.831494 0.373332
vt 0.756672 0.496664
vt 0.921209 0.126668
vt 0.032114 0.873332
vt 0.032114 0.626668
vt 0.106935 0.503336
vt 0.016491 0.626668
vt 0.016491 0.873332
vt 0.003336 0.996664
vt 0.479775 0.503336
vt 0.418109 0.996664
vt 0.418109 0.503336
vt 0.977214 0.003336
vt 0.982147 0.496664
vt 0.977214 0.496664
vt 0.993753 0.496664
vt 0.988820 0.003336
vt 0.993753 0.003336
vt 0.503336 0.996664
vt 0.565002 0.503336
vt 0.565002 0.996664
vt 0.860271 0.496664
vt 0.847116 0.496664
vt 0.847116 0.003336
vt 0.162940 0.626668
vt 0.217206 0.565002
vt 0.212273 0.626668
vt 0.217206 0.626668
vt 0.217206 0.934998
vt 0.212273 0.873332
vt 0.217206 0.873332
vt 0.756672 0.003336
vt 0.921209 0.373332
vt 0.866943 0.434998
vt 0.871876 0.373332
vt 0.866943 0.373332
vt 0.866943 0.065002
vt 0.871876 0.126668
vt 0.866943 0.126668
vt 0.106935 0.996664
vt 0.016491 0.996664
vt 0.016492 0.503336
vt 0.003336 0.503336
vt 0.479775 0.996664
vt 0.982147 0.003336
vt 0.988820 0.496664
vt 0.503336 0.503336
vt 0.750000 0.496664
vt 0.503336 0.003336
vt 0.750000 0.003336
vt 0.503336 0.496664
vn 0.0000 0.0000 1.0000
vn 0.0000 1.0000 0.0000
vn 0.0000 0.0000 -1.0000
vn 0.0000 -1.0000 -0.0000
vn -1.0000 -0.0000 0.0000
vn 1.0000 0.0000 0.0000
s 1
f 2/1/1 4/2/1 1/3/1
f 6/4/2 1/5/2 5/6/2
f 8/7/3 5/8/3 7/9/3
f 11/10/4 12/11/4 10/12/4
f 14/13/1 9/14/1 13/15/1
f 16/16/2 13/17/2 15/18/2
f 18/19/3 15/20/3 17/21/3
f 29/22/1 44/23/1 43/24/1
f 46/25/4 47/26/4 30/27/4
f 31/28/3 45/29/3 48/30/3
f 42/31/2 48/32/2 49/33/2
f 41/34/1 49/35/1 50/36/1
f 39/37/3 51/38/3 52/39/3
f 28/40/2 52/41/2 44/42/2
f 51/43/5 43/44/5 44/45/5
f 50/46/5 49/47/5 48/48/5
f 4/49/6 7/50/6 5/51/6
f 17/52/6 15/53/6 13/54/6
f 2/1/1 3/55/1 4/2/1
f 6/4/2 2/56/2 1/5/2
f 8/7/3 6/57/3 5/8/3
f 12/11/4 9/58/4 10/12/4
f 10/12/4 8/59/4 11/10/4
f 8/59/4 7/60/4 11/10/4
f 14/13/1 10/61/1 9/14/1
f 16/16/2 14/62/2 13/17/2
f 18/19/3 16/63/3 15/20/3
f 29/22/1 28/64/1 44/23/1
f 47/26/4 45/65/4 30/27/4
f 30/27/4 29/66/4 46/25/4
f 29/66/4 43/67/4 46/25/4
f 31/28/3 30/68/3 45/29/3
f 42/31/2 31/69/2 48/32/2
f 41/34/1 42/70/1 49/35/1
f 39/37/3 40/71/3 51/38/3
f 28/40/2 39/72/2 52/41/2
f 44/45/5 52/73/5 51/43/5
f 51/43/5 46/74/5 43/44/5
f 48/48/5 45/75/5 50/46/5
f 45/75/5 47/76/5 50/46/5
f 5/51/6 1/77/6 4/49/6
f 4/49/6 11/78/6 7/50/6
f 13/54/6 9/79/6 17/52/6
f 9/79/6 12/80/6 17/52/6
f 3/81/2 17/82/2 4/83/2
f 40/84/2 50/85/2 51/86/2
f 46/74/5 50/46/5 47/76/5
f 11/78/6 17/52/6 12/80/6
f 3/81/2 18/87/2 17/82/2
f 40/84/2 41/88/2 50/85/2
f 46/74/5 51/43/5 50/46/5
f 11/78/6 4/49/6 17/52/6
f 16/89/6 2/90/6 20/91/6
f 10/61/1 24/92/1 29/22/1
f 3/93/6 18/94/6 10/95/6
f 30/68/3 36/96/3 8/7/3
f 40/97/5 41/98/5 30/99/5
f 42/100/5 39/101/5 27/102/5
f 32/103/2 26/104/2 33/105/2
f 34/106/6 26/107/6 25/108/6
f 22/109/5 38/110/5 37/111/5
f 19/112/2 38/113/2 21/114/2
f 29/66/4 8/59/4 10/12/4
f 20/91/6 19/115/6 16/89/6
f 19/115/6 14/116/6 16/89/6
f 16/89/6 18/94/6 3/93/6
f 2/90/6 6/117/6 20/91/6
f 16/89/6 3/93/6 2/90/6
f 10/61/1 14/13/1 23/118/1
f 14/13/1 19/119/1 22/120/1
f 23/118/1 14/13/1 22/120/1
f 19/119/1 21/121/1 22/120/1
f 27/122/1 28/64/1 25/123/1
f 28/64/1 29/22/1 24/92/1
f 25/123/1 26/124/1 27/122/1
f 24/92/1 25/123/1 28/64/1
f 10/61/1 23/118/1 24/92/1
f 10/95/6 8/125/6 3/93/6
f 8/125/6 6/117/6 3/93/6
f 6/117/6 2/90/6 3/93/6
f 18/94/6 16/89/6 14/116/6
f 18/94/6 14/116/6 10/95/6
f 30/68/3 31/28/3 35/126/3
f 31/28/3 32/127/3 34/128/3
f 35/126/3 31/28/3 34/128/3
f 32/127/3 33/129/3 34/128/3
f 20/130/3 6/57/3 37/131/3
f 6/57/3 8/7/3 36/96/3
f 37/131/3 38/132/3 20/130/3
f 36/96/3 37/131/3 6/57/3
f 30/68/3 35/126/3 36/96/3
f 30/99/5 29/133/5 40/97/5
f 29/133/5 28/134/5 40/97/5
f 28/134/5 39/101/5 40/97/5
f 41/98/5 42/100/5 31/135/5
f 41/98/5 31/135/5 30/99/5
f 27/102/5 32/136/5 42/100/5
f 32/136/5 31/135/5 42/100/5
f 42/100/5 41/98/5 40/97/5
f 39/101/5 28/134/5 27/102/5
f 42/100/5 40/97/5 39/101/5
f 32/103/2 27/137/2 26/104/2
f 34/106/6 33/138/6 26/107/6
f 22/109/5 21/139/5 38/110/5
f 19/112/2 20/140/2 38/113/2
f 29/66/4 30/27/4 8/59/4
f 25/141/2 37/142/2 34/143/2
f 23/118/1 25/123/1 24/92/1
f 35/126/3 37/131/3 36/96/3
f 25/141/2 22/144/2 37/142/2
f 23/118/1 22/120/1 25/123/1
f 35/126/3 34/128/3 37/131/3
