# Blender v2.92.0 OBJ File: 'OGConvert.blend'
# www.blender.org
o roadTile_269
v 24.000000 5.040000 0.000000
v 24.000000 0.000000 -0.000000
v 24.000000 0.000001 -24.000000
v 24.000000 5.040001 -24.000000
v 24.000000 5.040001 -18.000000
v 24.000000 4.800001 -18.000000
v 24.000000 2.400001 -18.000000
v 24.000000 2.400000 -6.000000
v 24.000000 4.800001 -6.000000
v 24.000000 5.040000 -6.000000
v 0.000000 0.000000 0.000000
v 0.000000 5.040000 0.000000
v 0.000000 0.000001 -24.000000
v 0.000000 5.040001 -24.000000
v 0.000000 5.040000 -6.000000
v 0.000000 4.800001 -6.000000
v 0.000000 2.400000 -6.000000
v 0.000000 2.400001 -18.000000
v 0.000000 4.800001 -18.000000
v 0.000000 5.040001 -18.000000
vt 0.130870 0.997652
vt 0.130870 0.502348
vt 0.180400 0.626174
vt 0.343593 0.997652
vt 0.239579 0.502348
vt 0.343593 0.502348
vt 0.002348 0.497652
vt 0.497652 0.002348
vt 0.497652 0.497652
vt 0.987231 0.002348
vt 0.987231 0.497652
vt 0.937701 0.373826
vt 0.348289 0.502348
vt 0.452303 0.997652
vt 0.348289 0.997652
vt 0.878522 0.002348
vt 0.754696 0.497652
vt 0.754696 0.002348
vt 0.991927 0.002348
vt 0.996880 0.497652
vt 0.991927 0.497652
vt 0.456998 0.502348
vt 0.461951 0.997652
vt 0.456998 0.997652
vt 0.002348 0.997652
vt 0.126174 0.502348
vt 0.126174 0.997652
vt 0.234883 0.873826
vt 0.234883 0.997652
vt 0.229930 0.873826
vt 0.180400 0.873826
vt 0.234883 0.502348
vt 0.234883 0.626174
vt 0.229930 0.626174
vt 0.239579 0.997652
vt 0.002348 0.002348
vt 0.883217 0.126174
vt 0.883217 0.002348
vt 0.888170 0.126174
vt 0.937701 0.126174
vt 0.883217 0.497652
vt 0.883217 0.373826
vt 0.888170 0.373826
vt 0.452303 0.502348
vt 0.878522 0.497652
vt 0.996880 0.002348
vt 0.461951 0.502348
vt 0.002348 0.502348
vt 0.750000 0.497652
vt 0.502348 0.002348
vt 0.750000 0.002348
vt 0.502348 0.497652
vn 1.0000 0.0000 0.0000
vn 0.0000 -0.0000 1.0000
vn 0.0000 -1.0000 -0.0000
vn -1.0000 -0.0000 -0.0000
vn 0.0000 0.0000 -1.0000
vn 0.0000 1.0000 0.0000
s 1
f 2/1/1 3/2/1 7/3/1
f 2/4/2 12/5/2 11/6/2
f 13/7/3 2/8/3 11/9/3
f 13/10/4 11/11/4 17/12/4
f 13/13/5 4/14/5 3/15/5
f 4/16/6 20/17/6 5/18/6
f 6/19/2 20/20/2 19/21/2
f 16/22/5 10/23/5 9/24/5
f 12/25/6 10/26/6 15/27/6
f 10/28/1 1/29/1 9/30/1
f 1/29/1 2/1/1 8/31/1
f 9/30/1 1/29/1 8/31/1
f 3/2/1 4/32/1 7/3/1
f 4/32/1 5/33/1 6/34/1
f 6/34/1 7/3/1 4/32/1
f 7/3/1 8/31/1 2/1/1
f 2/4/2 1/35/2 12/5/2
f 13/7/3 3/36/3 2/8/3
f 20/37/4 14/38/4 19/39/4
f 14/38/4 13/10/4 18/40/4
f 19/39/4 14/38/4 18/40/4
f 11/11/4 12/41/4 17/12/4
f 12/41/4 15/42/4 16/43/4
f 16/43/4 17/12/4 12/41/4
f 17/12/4 18/40/4 13/10/4
f 13/13/5 14/44/5 4/14/5
f 4/16/6 14/45/6 20/17/6
f 6/19/2 5/46/2 20/20/2
f 16/22/5 15/47/5 10/23/5
f 12/25/6 1/48/6 10/26/6
f 19/49/6 9/50/6 6/51/6
f 18/40/4 16/43/4 19/39/4
f 8/31/1 6/34/1 9/30/1
f 19/49/6 16/52/6 9/50/6
f 18/40/4 17/12/4 16/43/4
f 8/31/1 7/3/1 6/34/1
