# Blender v2.92.0 OBJ File: 'kenney_OGConvert.blend'
# www.blender.org
o roadTile_222
v 3.000000 0.000000 -3.000000
v 3.000000 0.300000 -0.750001
v 3.000000 0.000000 -0.000001
v 3.000000 0.300000 -2.250000
v 3.000000 0.600000 -2.250000
v 3.000000 1.275000 -2.250000
v 3.000000 1.650000 -3.000000
v 3.000000 1.275000 -0.750000
v 3.000000 1.650000 -0.000000
v 2.406570 0.630000 -0.000000
v 0.000000 0.000000 -0.000000
v 0.593435 0.630000 -0.000000
v 0.000000 1.650000 0.000000
v 0.593435 1.275000 -0.000000
v 0.593435 0.630000 -0.750000
v 0.593435 1.275000 -0.750000
v 2.406570 0.630000 -0.750000
v 2.406570 1.275000 -0.750000
v 3.000000 0.600000 -0.750000
v -0.000000 0.600000 -0.750000
v -0.000000 1.275000 -0.750000
v 2.406570 1.275000 -0.000000
v -0.000001 1.650000 -3.000000
v 0.593434 1.275000 -3.000000
v 0.593434 0.630000 -3.000000
v -0.000001 0.000000 -3.000000
v 2.406569 0.630000 -3.000000
v 0.593435 0.630000 -2.250000
v 2.406569 0.630000 -2.250000
v -0.000000 1.275000 -2.250000
v -0.000000 0.600000 -2.250000
v 2.406569 1.275000 -2.250000
v 0.593435 1.275000 -2.250000
v -0.000000 0.300000 -0.750000
v -0.000000 0.300000 -2.250000
v 2.406569 1.275000 -3.000000
vt 0.522466 0.336385
vt 0.555189 0.581807
vt 0.522466 0.663615
vt 0.555189 0.418193
vt 0.587911 0.418193
vt 0.661538 0.418193
vt 0.702442 0.336385
vt 0.661538 0.581807
vt 0.702442 0.663615
vt 0.777264 0.401114
vt 0.708546 0.336385
vt 0.888522 0.336385
vt 0.708546 0.663615
vt 0.777264 0.598885
vt 0.888522 0.663615
vt 0.847618 0.598885
vt 0.495406 0.669719
vt 0.425052 0.751526
vt 0.425052 0.669719
vt 0.859071 0.067782
vt 0.859071 0.265552
vt 0.855799 0.330281
vt 0.260682 0.669719
vt 0.342490 0.867489
vt 0.260682 0.867489
vt 0.648323 0.669719
vt 0.577969 0.751526
vt 0.577969 0.669719
vt 0.847618 0.401114
vt 0.003052 0.003052
vt 0.330281 0.330281
vt 0.003052 0.330281
vt 0.808791 0.067782
vt 0.849695 0.003052
vt 0.849695 0.330281
vt 0.738437 0.067782
vt 0.669719 0.003052
vt 0.669719 0.330281
vt 0.738437 0.265552
vt 0.172771 0.669719
vt 0.254578 0.867489
vt 0.172771 0.867489
vt 0.894626 0.663615
vt 0.894626 0.336385
vt 0.897898 0.598885
vt 0.377289 0.418193
vt 0.336385 0.336385
vt 0.450916 0.418193
vt 0.377289 0.581807
vt 0.336385 0.663615
vt 0.516361 0.663615
vt 0.483639 0.581807
vt 0.516361 0.336385
vt 0.483638 0.418193
vt 0.660532 0.669719
vt 0.660532 0.669719
vt 0.660532 0.669719
vt 0.654428 0.669719
vt 0.654428 0.776068
vt 0.654428 0.702442
vt 0.003052 0.663615
vt 0.330281 0.336385
vt 0.330281 0.663615
vt 0.581807 0.265552
vt 0.418193 0.265552
vt 0.418193 0.067781
vt 0.348594 0.751526
vt 0.418948 0.669719
vt 0.418948 0.751526
vt 0.808791 0.265552
vt 0.501511 0.751526
vt 0.571865 0.669719
vt 0.571865 0.751526
vt 0.495406 0.751526
vt 0.929425 0.265552
vt 0.929425 0.330281
vt 0.855799 0.003052
vt 0.929425 0.003052
vt 0.929425 0.067782
vt 0.342490 0.669719
vt 0.648323 0.751526
vt 0.330281 0.003052
vt 0.254578 0.669719
vt 0.968253 0.598885
vt 0.968253 0.663615
vt 0.968253 0.336385
vt 0.897898 0.401114
vt 0.968253 0.401114
vt 0.003052 0.336385
vt 0.418193 0.003052
vt 0.581807 0.003052
vt 0.581807 0.067781
vt 0.663615 0.067781
vt 0.663615 0.265552
vt 0.581807 0.330281
vt 0.418193 0.330281
vt 0.336385 0.265552
vt 0.336385 0.067781
vt 0.348594 0.669719
vt 0.501511 0.669719
vt 0.450916 0.581807
vt 0.166667 0.669719
vt 0.003052 0.996948
vt 0.003052 0.669719
vt 0.587911 0.581807
vt 0.166667 0.996948
vn 1.0000 0.0000 -0.0000
vn 0.0000 -0.0000 1.0000
vn -0.0000 0.0000 -1.0000
vn 0.0000 1.0000 0.0000
vn -1.0000 0.0000 0.0000
vn -1.0000 -0.0000 0.0001
vn -0.0000 -1.0000 -0.0000
s 1
f 1/1/1 2/2/1 3/3/1
f 2/2/1 1/1/1 4/4/1
f 4/4/1 1/1/1 5/5/1
f 5/5/1 1/1/1 6/6/1
f 7/7/1 6/6/1 1/1/1
f 7/7/1 8/8/1 6/6/1
f 9/9/1 8/8/1 7/7/1
f 8/8/1 9/9/1 3/3/1
f 10/10/2 3/11/2 9/12/2
f 3/11/2 10/10/2 11/13/2
f 12/14/2 11/13/2 10/10/2
f 11/13/2 12/14/2 13/15/2
f 13/15/2 12/14/2 14/16/2
f 16/17/1 12/18/1 15/19/1
f 15/20/3 17/21/3 19/22/3
f 15/23/4 10/24/4 17/25/4
f 17/26/5 22/27/5 18/28/5
f 10/10/2 9/12/2 22/29/2
f 22/29/2 9/12/2 14/16/2
f 13/15/2 14/16/2 9/12/2
f 7/30/4 13/31/4 9/32/4
f 24/33/3 23/34/3 7/35/3
f 25/36/3 23/34/3 24/33/3
f 25/36/3 26/37/3 23/34/3
f 26/37/3 25/36/3 1/38/3
f 1/38/3 25/36/3 27/39/3
f 29/40/4 25/41/4 28/42/4
f 31/43/2 5/44/2 28/45/2
f 30/46/5 23/47/5 31/48/5
f 21/49/6 23/47/5 30/46/5
f 21/49/6 13/50/5 23/47/5
f 13/50/5 21/49/6 11/51/5
f 34/52/6 11/51/5 21/49/6
f 11/51/5 34/52/6 26/53/5
f 26/53/5 34/52/6 35/54/5
f 8/55/1 2/56/1 19/57/5
f 8/8/1 3/3/1 2/2/1
f 26/53/5 35/54/5 31/48/5
f 26/53/5 31/48/5 23/47/5
f 34/58/6 21/59/6 20/60/5
f 26/61/7 3/62/7 11/63/7
f 16/64/7 33/65/7 32/66/7
f 28/67/1 24/68/1 33/69/1
f 7/35/3 36/70/3 24/33/3
f 7/35/3 27/39/3 36/70/3
f 27/39/3 7/35/3 1/38/3
f 32/71/5 27/72/5 29/73/5
f 16/17/1 14/74/1 12/18/1
f 17/21/3 18/75/3 8/76/3
f 20/77/3 21/78/3 15/20/3
f 21/78/3 16/79/3 15/20/3
f 17/21/3 8/76/3 19/22/3
f 20/77/3 15/20/3 19/22/3
f 15/23/4 12/80/4 10/24/4
f 17/26/5 10/81/5 22/27/5
f 7/30/4 23/82/4 13/31/4
f 29/40/4 27/83/4 25/41/4
f 33/84/2 30/85/2 28/45/2
f 30/85/2 31/43/2 28/45/2
f 5/44/2 6/86/2 29/87/2
f 6/86/2 32/88/2 29/87/2
f 5/44/2 29/87/2 28/45/2
f 26/61/7 1/89/7 3/62/7
f 6/90/7 8/91/7 18/92/7
f 18/92/7 22/93/7 14/94/7
f 16/64/7 21/95/7 30/96/7
f 18/92/7 14/94/7 16/64/7
f 32/66/7 6/90/7 18/92/7
f 24/97/7 36/98/7 32/66/7
f 16/64/7 30/96/7 33/65/7
f 33/65/7 24/97/7 32/66/7
f 32/66/7 18/92/7 16/64/7
f 28/67/1 25/99/1 24/68/1
f 32/71/5 36/100/5 27/72/5
f 31/48/5 34/52/6 20/101/5
f 5/102/4 20/103/4 19/104/4
f 19/105/5 4/4/1 5/5/1
f 31/48/5 35/54/5 34/52/6
f 5/102/4 31/106/4 20/103/4
f 19/105/5 2/2/1 4/4/1
