# Blender v2.92.0 OBJ File: 'OGConvert.blend'
# www.blender.org
o roadTile_086
v 24.000000 5.040001 -16.500000
v 23.021040 5.040001 -16.564159
v 23.021040 4.560001 -16.564159
v 24.000000 4.560001 -16.500000
v 24.000000 5.040001 -24.000000
v 16.500000 5.040001 -24.000000
v 16.564159 5.040001 -23.021040
v 16.755520 5.040001 -22.058880
v 17.070881 5.040001 -21.129841
v 17.504801 5.040001 -20.250000
v 18.049841 5.040001 -19.434320
v 18.696720 5.040001 -18.696720
v 19.434320 5.040001 -18.049841
v 20.250000 5.040001 -17.504801
v 21.129841 5.040001 -17.070881
v 22.058880 5.040001 -16.755520
v 24.000000 0.000001 -24.000000
v 0.000000 0.000001 -24.000000
v 0.000000 5.040001 -24.000000
v 7.500000 5.040001 -24.000000
v 7.500000 4.560001 -24.000000
v 9.000000 4.560001 -24.000000
v 9.000000 5.040001 -24.000000
v 15.000000 5.040001 -24.000000
v 15.000000 4.560001 -24.000000
v 16.500000 4.560001 -24.000000
v 24.000000 0.000000 -0.000000
v 24.000000 4.560000 -15.000000
v 24.000000 5.040000 -15.000000
v 24.000000 5.040000 -9.000000
v 24.000000 4.560000 -9.000000
v 24.000000 4.560000 -7.500000
v 24.000000 5.040000 -7.500000
v 24.000000 5.040000 0.000000
v 0.000000 0.000000 0.000000
v 0.000000 5.040000 0.000000
v 21.846319 5.040000 -7.641160
v 19.729521 5.040000 -8.062240
v 17.685760 5.040000 -8.756000
v 15.750000 5.040000 -9.710560
v 13.955440 5.040000 -10.909680
v 12.332720 5.040000 -12.332720
v 10.909680 5.040000 -13.955440
v 9.710560 5.040000 -15.750000
v 8.756000 5.040001 -17.685760
v 8.062240 5.040001 -19.729521
v 7.641160 5.040001 -21.846319
v 21.846319 4.560000 -7.641160
v 7.641160 4.560001 -21.846319
v 8.062240 4.560001 -19.729521
v 8.756000 4.560001 -17.685760
v 9.710560 4.560000 -15.750000
v 10.909680 4.560000 -13.955440
v 12.332720 4.560000 -12.332720
v 13.955440 4.560000 -10.909680
v 15.750000 4.560000 -9.710560
v 17.685760 4.560000 -8.756000
v 19.729521 4.560000 -8.062240
v 22.042080 4.560000 -9.128320
v 20.117680 4.560000 -9.511120
v 18.259760 4.560000 -10.141840
v 16.500000 4.560000 -11.009600
v 14.868560 4.560000 -12.099680
v 13.393360 4.560000 -13.393360
v 12.099680 4.560000 -14.868560
v 11.009600 4.560001 -16.500000
v 10.141840 4.560001 -18.259760
v 9.511120 4.560001 -20.117680
v 9.128320 4.560001 -22.042080
v 22.042080 5.040000 -9.128320
v 9.128320 5.040001 -22.042080
v 9.511120 5.040001 -20.117680
v 10.141840 5.040001 -18.259760
v 11.009600 5.040001 -16.500000
v 12.099680 5.040000 -14.868560
v 13.393360 5.040000 -13.393360
v 14.868560 5.040000 -12.099680
v 16.500000 5.040000 -11.009600
v 18.259760 5.040000 -10.141840
v 20.117680 5.040000 -9.511120
v 22.825279 5.040000 -15.076960
v 21.670641 5.040000 -15.306640
v 20.555840 5.040000 -15.685120
v 19.500000 5.040000 -16.205759
v 18.521120 5.040001 -16.859840
v 17.636000 5.040001 -17.636000
v 16.859840 5.040001 -18.521120
v 16.205759 5.040001 -19.500000
v 15.685120 5.040001 -20.555840
v 15.306640 5.040001 -21.670641
v 15.076960 5.040001 -22.825279
v 22.825279 4.560000 -15.076960
v 15.076960 4.560001 -22.825279
v 15.306640 4.560001 -21.670641
v 15.685120 4.560001 -20.555840
v 16.205759 4.560001 -19.500000
v 16.859840 4.560001 -18.521120
v 17.636000 4.560001 -17.636000
v 18.521120 4.560001 -16.859840
v 19.500000 4.560000 -16.205759
v 20.555840 4.560000 -15.685120
v 21.670641 4.560000 -15.306640
v 22.058880 4.560001 -16.755520
v 21.129841 4.560001 -17.070881
v 20.250000 4.560001 -17.504801
v 19.434320 4.560001 -18.049841
v 18.696720 4.560001 -18.696720
v 18.049841 4.560001 -19.434320
v 17.504801 4.560001 -20.250000
v 17.070881 4.560001 -21.129841
v 16.755520 4.560001 -22.058880
v 16.564159 4.560001 -23.021040
vt 0.642462 0.542106
vt 0.652354 0.562044
vt 0.642462 0.562044
vt 0.789916 0.584485
vt 0.780024 0.553031
vt 0.789916 0.553031
vt 0.828848 0.283494
vt 0.836737 0.323155
vt 0.806877 0.331156
vt 0.789916 0.139892
vt 0.780024 0.104602
vt 0.789916 0.104602
vt 0.789916 0.178413
vt 0.780024 0.139892
vt 0.789916 0.219509
vt 0.780024 0.178413
vt 0.789916 0.262475
vt 0.780024 0.219509
vt 0.789916 0.306576
vt 0.780024 0.262475
vt 0.789916 0.351058
vt 0.780024 0.306576
vt 0.789916 0.395158
vt 0.780024 0.351058
vt 0.789916 0.438125
vt 0.780024 0.395158
vt 0.789916 0.479220
vt 0.780024 0.438125
vt 0.789916 0.517742
vt 0.780024 0.479220
vt 0.780024 0.517742
vt 0.611931 0.638962
vt 0.621824 0.678836
vt 0.611931 0.678836
vt 0.627196 0.445252
vt 0.637089 0.485126
vt 0.627196 0.485126
vt 0.637089 0.525537
vt 0.627196 0.525537
vt 0.637089 0.565794
vt 0.627196 0.565794
vt 0.637089 0.605208
vt 0.627196 0.605208
vt 0.637089 0.643105
vt 0.627196 0.643105
vt 0.637089 0.678836
vt 0.627196 0.678836
vt 0.611931 0.445252
vt 0.621824 0.480983
vt 0.611931 0.480983
vt 0.621824 0.518880
vt 0.611931 0.518880
vt 0.621824 0.558294
vt 0.611931 0.558294
vt 0.621824 0.598551
vt 0.611931 0.598551
vt 0.621824 0.638962
vt 0.789916 0.468272
vt 0.780024 0.451117
vt 0.789916 0.451117
vt 0.910855 0.572122
vt 0.940716 0.580123
vt 0.936772 0.599953
vt 0.789916 0.225766
vt 0.780024 0.206518
vt 0.789916 0.206518
vt 0.789916 0.246778
vt 0.780024 0.225766
vt 0.789916 0.269195
vt 0.780024 0.246778
vt 0.789916 0.292630
vt 0.780024 0.269195
vt 0.789916 0.316686
vt 0.780024 0.292630
vt 0.789916 0.340948
vt 0.780024 0.316686
vt 0.789916 0.365003
vt 0.780024 0.340948
vt 0.789916 0.388439
vt 0.780024 0.365003
vt 0.789916 0.410854
vt 0.780024 0.388439
vt 0.789916 0.431868
vt 0.780024 0.410854
vt 0.780024 0.431868
vt 0.642462 0.521902
vt 0.652354 0.542106
vt 0.642462 0.501772
vt 0.652354 0.521902
vt 0.642462 0.482066
vt 0.652354 0.501772
vt 0.642462 0.463118
vt 0.652354 0.482066
vt 0.642462 0.445252
vt 0.652354 0.463118
vt 0.657727 0.544178
vt 0.667620 0.562043
vt 0.657727 0.562043
vt 0.657727 0.525230
vt 0.667620 0.544178
vt 0.657727 0.505523
vt 0.667620 0.525230
vt 0.657727 0.485394
vt 0.667620 0.505523
vt 0.657727 0.465189
vt 0.667620 0.485394
vt 0.657727 0.445252
vt 0.667620 0.465189
vt 0.780024 0.584485
vt 0.890087 0.431336
vt 0.916749 0.461739
vt 0.894890 0.483598
vt 0.865561 0.450155
vt 0.840849 0.413171
vt 0.867621 0.397713
vt 0.821175 0.373277
vt 0.849737 0.361446
vt 0.798199 0.287529
vt 0.795289 0.243142
vt 0.826203 0.243142
vt 0.798199 0.198756
vt 0.806877 0.155129
vt 0.828848 0.202791
vt 0.821175 0.113008
vt 0.849737 0.124839
vt 0.840849 0.073114
vt 0.867621 0.088572
vt 0.865561 0.036129
vt 0.890087 0.054949
vt 0.894890 0.002686
vt 0.916749 0.024546
vt 0.836737 0.163130
vt 0.637089 0.445252
vt 0.621824 0.445252
vt 0.780024 0.468272
vt 0.967390 0.714226
vt 0.980722 0.729427
vt 0.958862 0.751287
vt 0.942864 0.733046
vt 0.929385 0.712872
vt 0.956157 0.697415
vt 0.918654 0.691111
vt 0.947214 0.679281
vt 0.910855 0.668136
vt 0.940716 0.660135
vt 0.906121 0.644339
vt 0.904534 0.620129
vt 0.935450 0.620129
vt 0.936772 0.640305
vt 0.906121 0.595919
vt 0.918654 0.549148
vt 0.947214 0.560977
vt 0.929385 0.527386
vt 0.956157 0.542843
vt 0.942864 0.507212
vt 0.958862 0.488971
vt 0.967390 0.526032
vt 0.980722 0.510831
vt 0.652354 0.445252
vt 0.667620 0.445252
vt 0.749911 0.711336
vt 0.769740 0.707392
vt 0.789916 0.860641
vt 0.686044 0.328817
vt 0.780024 0.226901
vt 0.780024 0.561242
vt 0.497314 0.497313
vt 0.002687 0.002687
vt 0.497313 0.002687
vt 0.606558 0.445252
vt 0.502687 0.926552
vt 0.502687 0.445252
vt 0.899161 0.970271
vt 0.795289 0.488971
vt 0.899161 0.488971
vt 0.256857 0.743143
vt 0.290301 0.772471
vt 0.002686 0.997313
vt 0.513221 0.141271
vt 0.632664 0.173275
vt 0.627931 0.197073
vt 0.789916 0.706070
vt 0.635345 0.860641
vt 0.636668 0.840465
vt 0.640611 0.820635
vt 0.647111 0.801489
vt 0.656054 0.783355
vt 0.667287 0.766545
vt 0.680618 0.751343
vt 0.695820 0.738011
vt 0.712631 0.726778
vt 0.730764 0.717836
vt 0.789916 0.226901
vt 0.789916 0.328817
vt 0.686045 0.002687
vt 0.780024 0.124985
vt 0.789916 0.002687
vt 0.789916 0.124985
vt 0.789916 0.700697
vt 0.686044 0.700697
vt 0.780024 0.445030
vt 0.789916 0.445030
vt 0.789916 0.561242
vt 0.002687 0.497314
vt 0.606558 0.926552
vt 0.795289 0.970271
vt 0.002686 0.502687
vt 0.183143 0.632819
vt 0.157257 0.502687
vt 0.160167 0.547073
vt 0.168845 0.590699
vt 0.497314 0.842743
vt 0.497314 0.997313
vt 0.452927 0.839833
vt 0.367180 0.816857
vt 0.409301 0.831155
vt 0.202816 0.672714
vt 0.227529 0.709699
vt 0.327285 0.797184
vt 0.664674 0.334200
vt 0.680672 0.352441
vt 0.593233 0.439879
vt 0.566570 0.409476
vt 0.544104 0.375853
vt 0.651194 0.314026
vt 0.526220 0.339586
vt 0.513221 0.301295
vt 0.640464 0.292264
vt 0.505332 0.261634
vt 0.632664 0.269290
vt 0.502687 0.221283
vt 0.627931 0.245493
vt 0.505332 0.180932
vt 0.626343 0.221283
vt 0.526220 0.102980
vt 0.640464 0.150301
vt 0.544104 0.066712
vt 0.651194 0.128540
vt 0.566570 0.033089
vt 0.593233 0.002686
vt 0.664674 0.108366
vt 0.680672 0.090125
vn -0.1305 0.0000 0.9914
vn -0.0654 0.0000 0.9979
vn 0.0654 0.0000 -0.9979
vn 0.1305 0.0000 -0.9914
vn -0.0000 1.0000 0.0000
vn 0.9914 0.0000 -0.1305
vn 0.9979 0.0000 -0.0654
vn 0.9659 0.0000 -0.2588
vn 0.9239 0.0000 -0.3827
vn 0.8660 0.0000 -0.5000
vn 0.7934 0.0000 -0.6088
vn 0.7071 0.0000 -0.7071
vn 0.6088 0.0000 -0.7934
vn 0.5000 0.0000 -0.8660
vn 0.3827 0.0000 -0.9239
vn 0.2588 0.0000 -0.9659
vn -0.9979 0.0000 0.0654
vn -0.9914 0.0000 0.1305
vn -0.9659 0.0000 0.2588
vn -0.9239 0.0000 0.3827
vn -0.8660 0.0000 0.5000
vn -0.7934 0.0000 0.6088
vn -0.7071 0.0000 0.7071
vn -0.6088 0.0000 0.7934
vn -0.5000 0.0000 0.8660
vn -0.3827 0.0000 0.9239
vn -0.2588 0.0000 0.9659
vn 0.7934 0.0000 -0.6087
vn 0.6087 0.0000 -0.7934
vn -0.6088 0.0000 0.7933
vn -0.7933 0.0000 0.6088
vn 0.0000 0.0000 -1.0000
vn 1.0000 0.0000 0.0000
vn 0.0000 -1.0000 -0.0000
vn 0.0000 -0.0000 1.0000
vn -1.0000 0.0000 0.0000
s 1
f 2/1/1 4/2/2 1/3/2
f 33/4/3 48/5/4 37/6/4
f 65/7/5 66/8/5 52/9/5
f 47/10/6 21/11/7 20/12/7
f 46/13/8 49/14/6 47/10/6
f 45/15/9 50/16/8 46/13/8
f 44/17/10 51/18/9 45/15/9
f 43/19/11 52/20/10 44/17/10
f 42/21/12 53/22/11 43/19/11
f 41/23/13 54/24/12 42/21/12
f 40/25/14 55/26/13 41/23/13
f 39/27/15 56/28/14 40/25/14
f 38/29/16 57/30/15 39/27/15
f 37/6/4 58/31/16 38/29/16
f 70/32/1 31/33/2 30/34/2
f 23/35/17 69/36/18 71/37/18
f 71/37/18 68/38/19 72/39/19
f 72/39/19 67/40/20 73/41/20
f 73/41/20 66/42/21 74/43/21
f 74/43/21 65/44/22 75/45/22
f 75/45/22 64/46/23 76/47/23
f 76/48/23 63/49/24 77/50/24
f 77/50/24 62/51/25 78/52/25
f 78/52/25 61/53/26 79/54/26
f 79/54/26 60/55/27 80/56/27
f 80/56/27 59/57/1 70/32/1
f 29/58/3 92/59/4 81/60/4
f 100/61/5 105/62/5 106/63/5
f 91/64/6 25/65/7 24/66/7
f 90/67/8 93/68/6 91/64/6
f 89/69/9 94/70/8 90/67/8
f 88/71/10 95/72/9 89/69/9
f 87/73/28 96/74/10 88/71/10
f 86/75/12 97/76/28 87/73/28
f 85/77/29 98/78/12 86/75/12
f 84/79/14 99/80/29 85/77/29
f 83/81/15 100/82/14 84/79/14
f 82/83/16 101/84/15 83/81/15
f 81/60/4 102/85/16 82/83/16
f 16/86/27 3/87/1 2/1/1
f 15/88/26 103/89/27 16/86/27
f 14/90/25 104/91/26 15/88/26
f 13/92/30 105/93/25 14/90/25
f 12/94/23 106/95/30 13/92/30
f 11/96/31 107/97/23 12/98/23
f 10/99/21 108/100/31 11/96/31
f 9/101/20 109/102/21 10/99/21
f 8/103/19 110/104/20 9/101/20
f 7/105/18 111/106/19 8/103/19
f 6/107/17 112/108/18 7/105/18
f 2/1/1 3/87/1 4/2/2
f 33/4/3 32/109/3 48/5/4
f 69/110/5 22/111/5 21/112/5
f 21/112/5 49/113/5 69/110/5
f 49/113/5 50/114/5 69/110/5
f 69/110/5 50/114/5 68/115/5
f 50/114/5 51/116/5 68/115/5
f 51/116/5 52/9/5 67/117/5
f 52/9/5 53/118/5 65/7/5
f 53/118/5 54/119/5 64/120/5
f 54/119/5 55/121/5 64/120/5
f 55/121/5 56/122/5 63/123/5
f 64/120/5 55/121/5 63/123/5
f 56/122/5 57/124/5 61/125/5
f 57/124/5 58/126/5 60/127/5
f 58/126/5 48/128/5 59/129/5
f 48/128/5 32/130/5 59/129/5
f 58/126/5 59/129/5 60/127/5
f 32/130/5 31/131/5 59/129/5
f 57/124/5 60/127/5 61/125/5
f 53/118/5 64/120/5 65/7/5
f 51/116/5 67/117/5 68/115/5
f 66/8/5 67/117/5 52/9/5
f 56/122/5 61/125/5 62/132/5
f 56/122/5 62/132/5 63/123/5
f 47/10/6 49/14/6 21/11/7
f 46/13/8 50/16/8 49/14/6
f 45/15/9 51/18/9 50/16/8
f 44/17/10 52/20/10 51/18/9
f 43/19/11 53/22/11 52/20/10
f 42/21/12 54/24/12 53/22/11
f 41/23/13 55/26/13 54/24/12
f 40/25/14 56/28/14 55/26/13
f 39/27/15 57/30/15 56/28/14
f 38/29/16 58/31/16 57/30/15
f 37/6/4 48/5/4 58/31/16
f 70/32/1 59/57/1 31/33/2
f 23/35/17 22/133/17 69/36/18
f 71/37/18 69/36/18 68/38/19
f 72/39/19 68/38/19 67/40/20
f 73/41/20 67/40/20 66/42/21
f 74/43/21 66/42/21 65/44/22
f 75/45/22 65/44/22 64/46/23
f 76/48/23 64/134/23 63/49/24
f 77/50/24 63/49/24 62/51/25
f 78/52/25 62/51/25 61/53/26
f 79/54/26 61/53/26 60/55/27
f 80/56/27 60/55/27 59/57/1
f 29/58/3 28/135/3 92/59/4
f 112/136/5 26/137/5 25/138/5
f 25/138/5 93/139/5 112/136/5
f 93/139/5 94/140/5 111/141/5
f 94/140/5 95/142/5 110/143/5
f 95/142/5 96/144/5 109/145/5
f 96/144/5 97/146/5 109/145/5
f 97/146/5 98/147/5 107/148/5
f 109/145/5 97/146/5 108/149/5
f 98/147/5 99/150/5 107/148/5
f 99/150/5 100/61/5 106/63/5
f 107/148/5 99/150/5 106/63/5
f 100/61/5 101/151/5 104/152/5
f 101/151/5 102/153/5 103/154/5
f 102/153/5 92/155/5 103/154/5
f 92/155/5 28/156/5 3/157/5
f 103/154/5 92/155/5 3/157/5
f 28/156/5 4/158/5 3/157/5
f 101/151/5 103/154/5 104/152/5
f 93/139/5 111/141/5 112/136/5
f 95/142/5 109/145/5 110/143/5
f 110/143/5 111/141/5 94/140/5
f 108/149/5 97/146/5 107/148/5
f 100/61/5 104/152/5 105/62/5
f 91/64/6 93/68/6 25/65/7
f 90/67/8 94/70/8 93/68/6
f 89/69/9 95/72/9 94/70/8
f 88/71/10 96/74/10 95/72/9
f 87/73/28 97/76/28 96/74/10
f 86/75/12 98/78/12 97/76/28
f 85/77/29 99/80/29 98/78/12
f 84/79/14 100/82/14 99/80/29
f 83/81/15 101/84/15 100/82/14
f 82/83/16 102/85/16 101/84/15
f 81/60/4 92/59/4 102/85/16
f 16/86/27 103/89/27 3/87/1
f 15/88/26 104/91/26 103/89/27
f 14/90/25 105/93/25 104/91/26
f 13/92/30 106/95/30 105/93/25
f 12/94/23 107/159/23 106/95/30
f 11/96/31 108/100/31 107/97/23
f 10/99/21 109/102/21 108/100/31
f 9/101/20 110/104/20 109/102/21
f 8/103/19 111/106/19 110/104/20
f 7/105/18 112/108/18 111/106/19
f 6/107/17 26/160/17 112/108/18
f 16/161/5 2/162/5 5/163/5
f 17/164/32 25/65/32 26/165/32
f 17/164/33 28/135/33 31/166/33
f 35/167/34 17/168/34 27/169/34
f 35/170/35 34/171/35 36/172/35
f 35/173/36 19/174/36 18/175/36
f 42/176/5 43/177/5 36/178/5
f 78/179/5 84/180/5 85/181/5
f 1/182/5 5/163/5 2/162/5
f 5/163/5 6/183/5 7/184/5
f 8/185/5 5/163/5 7/184/5
f 8/185/5 9/186/5 5/163/5
f 9/186/5 10/187/5 5/163/5
f 10/187/5 11/188/5 5/163/5
f 11/188/5 12/189/5 5/163/5
f 12/189/5 13/190/5 5/163/5
f 13/190/5 14/191/5 5/163/5
f 14/191/5 15/192/5 5/163/5
f 15/192/5 16/161/5 5/163/5
f 6/193/32 5/194/32 26/165/32
f 5/194/32 17/164/32 26/165/32
f 17/164/32 18/195/32 22/196/32
f 18/195/32 19/197/32 21/11/32
f 19/197/32 20/12/32 21/11/32
f 22/196/32 23/198/32 24/66/32
f 18/195/32 21/11/32 22/196/32
f 22/196/32 24/66/32 25/65/32
f 17/164/32 22/196/32 25/65/32
f 34/199/33 27/200/33 32/109/33
f 27/200/33 17/164/33 31/166/33
f 32/109/33 27/200/33 31/166/33
f 17/164/33 5/194/33 4/201/33
f 5/194/33 1/202/33 4/201/33
f 32/109/33 33/4/33 34/199/33
f 29/58/33 30/203/33 31/166/33
f 28/135/33 29/58/33 31/166/33
f 17/164/33 4/201/33 28/135/33
f 35/167/34 18/204/34 17/168/34
f 35/170/35 27/205/35 34/171/35
f 35/173/36 36/206/36 19/174/36
f 36/178/5 34/207/5 39/208/5
f 34/207/5 33/209/5 37/210/5
f 34/207/5 37/210/5 38/211/5
f 20/212/5 19/213/5 47/214/5
f 19/213/5 36/178/5 45/215/5
f 47/214/5 19/213/5 46/216/5
f 46/216/5 19/213/5 45/215/5
f 34/207/5 38/211/5 39/208/5
f 36/178/5 39/208/5 40/217/5
f 36/178/5 40/217/5 41/218/5
f 44/219/5 45/215/5 36/178/5
f 43/177/5 44/219/5 36/178/5
f 36/178/5 41/218/5 42/176/5
f 91/220/5 24/221/5 23/222/5
f 23/222/5 71/223/5 91/220/5
f 71/223/5 72/224/5 90/225/5
f 72/224/5 73/226/5 90/225/5
f 73/226/5 74/227/5 89/228/5
f 74/227/5 75/229/5 88/230/5
f 75/229/5 76/231/5 87/232/5
f 88/230/5 75/229/5 87/232/5
f 76/231/5 77/233/5 86/234/5
f 77/233/5 78/179/5 85/181/5
f 86/234/5 77/233/5 85/181/5
f 78/179/5 79/235/5 83/236/5
f 79/235/5 80/237/5 82/238/5
f 80/237/5 70/239/5 82/238/5
f 70/239/5 30/240/5 81/241/5
f 82/238/5 70/239/5 81/241/5
f 30/240/5 29/242/5 81/241/5
f 79/235/5 82/238/5 83/236/5
f 74/227/5 88/230/5 89/228/5
f 71/223/5 90/225/5 91/220/5
f 73/226/5 89/228/5 90/225/5
f 87/232/5 76/231/5 86/234/5
f 78/179/5 83/236/5 84/180/5
