# Blender v2.92.0 OBJ File: 'OGConvert.blend'
# www.blender.org
o broccoli
v -1.264324 1.175150 0.657830
v -0.815381 1.464505 1.500719
v -1.500719 1.464505 0.815381
v -0.657830 1.175150 1.264324
v -0.541390 3.373344 0.312572
v -1.082781 2.563624 -0.625144
v -1.082781 2.563624 0.625144
v -0.541390 3.373344 -0.312572
v -0.000000 3.373344 0.625144
v -0.000000 2.563624 1.250287
v 1.317845 1.920627 0.000000
v 1.051752 2.419556 -0.468764
v 0.988994 2.128170 0.000000
v 1.179690 2.356879 -0.494352
v 1.082781 2.563624 -0.625144
v 0.541390 3.373344 0.312572
v 1.082781 2.563624 0.625144
v 0.541390 3.373344 -0.312572
v 1.051752 2.419556 0.468764
v 1.179690 2.356879 0.494352
v -0.815381 1.464505 -1.500719
v -1.264324 1.175150 -0.657830
v -1.500719 1.464505 -0.815381
v -0.657830 1.175150 -1.264324
v 0.815381 1.464505 -1.500719
v 1.265358 2.147038 -0.922689
v 1.500719 1.464505 -0.815381
v 0.922689 2.147038 -1.265357
v -0.000000 3.373344 -0.625144
v 1.337643 1.863958 0.000000
v -0.000000 2.563624 -1.250287
v -0.000000 1.863958 1.337643
v -0.922689 2.147038 1.265358
v -0.000000 1.920627 1.317845
v -0.494352 2.356879 1.179690
v -1.179690 2.356879 0.494352
v -1.265358 2.147038 0.922689
v -1.337643 1.863958 0.000000
v -1.317845 1.920627 0.000000
v -0.988994 2.128170 0.000000
v -1.179690 2.356879 -0.494352
v -1.051752 2.419556 -0.468764
v -1.051752 2.419556 0.468764
v -1.041060 2.369913 0.601056
v -1.041060 2.369913 -0.601056
v -0.451318 2.462291 0.964518
v 1.264324 1.175150 -0.657830
v 1.132758 1.497420 0.000000
v 0.494352 2.356879 1.179690
v -0.000000 2.044710 1.121236
v 0.451318 2.462291 0.964518
v 0.451318 2.462291 -0.964517
v -0.000000 2.044710 -1.121236
v 1.041060 2.369913 -0.601056
v 1.041060 2.369913 0.601056
v 0.000000 1.863958 -1.337643
v 0.000000 1.920627 -1.317845
v 0.494352 2.356879 -1.179690
v -0.922689 2.147038 -1.265357
v -0.494352 2.356879 -1.179690
v -0.451318 2.462291 -0.964517
v -1.265358 2.147038 -0.922689
v -1.132758 1.497420 0.000000
v 0.000000 1.497420 -1.132758
v 0.657830 1.175150 -1.264324
v 0.815381 1.464505 1.500719
v -0.000000 1.497420 1.132758
v 0.657830 1.175150 1.264324
v 1.264324 1.175150 0.657830
v 1.500719 1.464505 0.815381
v 0.922689 2.147038 1.265358
v 1.265358 2.147038 0.922689
v -0.700679 1.673815 0.000000
v -0.673643 1.637504 -0.115981
v -0.442551 1.730002 -0.120501
v -0.112039 1.537682 -0.922097
v -0.221943 1.778650 -0.221943
v -0.122944 1.647465 -0.642280
v 0.000000 1.565902 -0.965010
v -0.000000 1.871463 -0.216543
v -0.000000 1.675153 -0.697403
v -0.216543 1.871463 0.000000
v -0.476055 1.765518 0.000000
v 0.112039 1.537682 -0.922097
v 0.122944 1.647465 -0.642280
v 0.221943 1.778650 -0.221943
v 0.442551 1.730002 -0.120501
v 0.673643 1.637504 -0.115981
v 0.700679 1.673815 0.000000
v 0.476055 1.765518 0.000000
v 0.216543 1.871463 0.000000
v -0.442551 1.730002 0.120501
v -0.221943 1.778650 0.221943
v -0.112039 1.537682 0.922097
v -0.673643 1.637504 0.115981
v -0.122944 1.647465 0.642280
v -0.000000 1.871463 0.216543
v -0.000000 1.675153 0.697403
v -0.000000 1.565902 0.965010
v 0.221943 1.778650 0.221943
v 0.122944 1.647465 0.642280
v 0.112039 1.537682 0.922097
v 0.442551 1.730002 0.120501
v 0.673643 1.637504 0.115981
v 0.237425 1.512554 -0.137864
v 0.262299 1.085044 -0.155988
v 0.325428 -0.000000 0.325428
v 0.262299 1.085044 0.155988
v 0.325428 0.000000 -0.325428
v 0.237425 1.512554 0.137864
v -0.237425 1.512554 0.137864
v -0.262299 1.085044 0.155988
v -0.237425 1.512554 -0.137864
v -0.262299 1.085044 -0.155988
v -0.325428 -0.000000 0.325428
v -0.325428 0.000000 -0.325428
v -0.157980 1.103094 -0.261248
v -0.149008 1.446051 -0.241295
v 0.157980 1.103094 -0.261248
v 0.149008 1.446051 -0.241295
v 0.157980 1.103094 0.261249
v -0.157980 1.103094 0.261249
v 0.149008 1.446051 0.241295
v -0.149008 1.446051 0.241295
vt 0.286039 0.365324
vt 0.396227 0.306635
vt 0.306635 0.396227
vt 0.365324 0.286039
vt 0.085708 0.694762
vt 0.163079 0.847985
vt 0.008337 0.795360
vt 0.163079 0.721075
vt 0.185007 0.545495
vt 0.080231 0.687043
vt 0.068606 0.545495
vt 0.190819 0.616269
vt 0.566162 0.347858
vt 0.506956 0.309649
vt 0.568603 0.304938
vt 0.502667 0.326156
vt 0.356711 0.717438
vt 0.280988 0.856826
vt 0.205264 0.778904
vt 0.356711 0.826093
vt 0.629318 0.316609
vt 0.631708 0.333497
vt 0.003860 0.306635
vt 0.114048 0.365324
vt 0.093452 0.396227
vt 0.034763 0.286039
vt 0.525387 0.445169
vt 0.426320 0.386346
vt 0.512642 0.355577
vt 0.432693 0.431141
vt 0.755664 0.044721
vt 0.826438 0.167305
vt 0.755664 0.126444
vt 0.897212 0.126444
vt 0.826438 0.003860
vt 0.897212 0.044721
vt 0.841817 0.582789
vt 0.783995 0.476197
vt 0.791205 0.476197
vt 0.728358 0.540822
vt 0.754945 0.596817
vt 0.385498 0.474721
vt 0.263285 0.545495
vt 0.274910 0.403947
vt 0.379686 0.545495
vt 0.632872 0.551761
vt 0.594898 0.431141
vt 0.687593 0.445169
vt 0.625171 0.551761
vt 0.566152 0.487136
vt 0.728358 0.789781
vt 0.851793 0.831748
vt 0.757715 0.845776
vt 0.795908 0.725157
vt 0.788089 0.725157
vt 0.583288 0.046780
vt 0.520184 0.018221
vt 0.585730 0.003860
vt 0.522573 0.035109
vt 0.022144 0.818253
vt 0.003860 0.818305
vt 0.068942 0.870972
vt 0.138178 0.857713
vt 0.152639 0.868902
vt 0.747945 0.064828
vt 0.649225 0.025561
vt 0.705765 0.017561
vt 0.662122 0.044447
vt 0.644935 0.042069
vt 0.705181 0.124116
vt 0.733584 0.120097
vt 0.674848 0.355577
vt 0.588525 0.386345
vt 0.881699 0.562193
vt 0.840866 0.476197
vt 0.726243 0.249138
vt 0.722284 0.184183
vt 0.747945 0.185643
vt 0.698480 0.241924
vt 0.255487 0.604494
vt 0.198539 0.545495
vt 0.274910 0.687043
vt 0.250293 0.681589
vt 0.190819 0.474721
vt 0.080231 0.403947
vt 0.217034 0.753546
vt 0.198539 0.753961
vt 0.259311 0.694762
vt 0.330598 0.707456
vt 0.344151 0.694863
vt 0.470666 0.551761
vt 0.462965 0.551761
vt 0.403947 0.487136
vt 0.432693 0.672381
vt 0.525387 0.658353
vt 0.403947 0.616386
vt 0.453412 0.109794
vt 0.403947 0.166075
vt 0.425648 0.102580
vt 0.429607 0.167534
vt 0.417647 0.046039
vt 0.464915 0.003860
vt 0.505228 0.035522
vt 0.880722 0.811152
vt 0.835636 0.725157
vt 0.385498 0.616269
vt 0.514285 0.551761
vt 0.558433 0.465765
vt 0.003860 0.093452
vt 0.114048 0.034763
vt 0.034763 0.114048
vt 0.093452 0.003860
vt 0.426320 0.717177
vt 0.512642 0.747945
vt 0.060808 0.604494
vt 0.003860 0.545495
vt 0.055614 0.681589
vt 0.687593 0.658353
vt 0.676491 0.551761
vt 0.720638 0.637757
vt 0.489770 0.307271
vt 0.418308 0.231621
vt 0.446711 0.227602
vt 0.403947 0.286890
vt 0.446126 0.334157
vt 0.286039 0.034763
vt 0.396227 0.093452
vt 0.365324 0.114048
vt 0.306635 0.003860
vt 0.720638 0.465765
vt 0.674848 0.747945
vt 0.594898 0.672381
vt 0.588525 0.717177
vt 0.841817 0.369605
vt 0.728358 0.411572
vt 0.754945 0.355577
vt 0.728358 0.660532
vt 0.851793 0.618565
vt 0.757715 0.604537
vt 0.880722 0.639161
vt 0.200043 0.348125
vt 0.200043 0.291641
vt 0.184882 0.288106
vt 0.184291 0.257897
vt 0.079501 0.214690
vt 0.051962 0.200043
vt 0.171030 0.229057
vt 0.116080 0.216116
vt 0.073891 0.200043
vt 0.171735 0.200043
vt 0.108874 0.200043
vt 0.200043 0.228351
vt 0.200043 0.262276
vt 0.646664 0.316196
vt 0.734244 0.305679
vt 0.686976 0.347858
vt 0.255487 0.486496
vt 0.250293 0.409401
vt 0.079501 0.185397
vt 0.116080 0.183971
vt 0.171030 0.171030
vt 0.184291 0.142190
vt 0.184882 0.111981
vt 0.200043 0.108446
vt 0.200043 0.051962
vt 0.200043 0.137810
vt 0.200043 0.171736
vt 0.060808 0.486496
vt 0.055614 0.409401
vt 0.566152 0.616386
vt 0.215796 0.257897
vt 0.229057 0.229057
vt 0.320586 0.214690
vt 0.215205 0.288106
vt 0.348125 0.200043
vt 0.284006 0.216116
vt 0.228351 0.200043
vt 0.291212 0.200043
vt 0.326196 0.200043
vt 0.881699 0.390202
vt 0.558433 0.637757
vt 0.229057 0.171030
vt 0.284006 0.183971
vt 0.320586 0.185397
vt 0.215796 0.142190
vt 0.215205 0.111981
vt 0.848468 0.222373
vt 0.884311 0.175025
vt 0.884311 0.265074
vt 0.852982 0.183532
vt 0.990016 0.246930
vt 0.967866 0.106002
vt 0.976488 0.015914
vt 0.904932 0.246930
vt 0.927082 0.106002
vt 0.918460 0.015914
vt 0.965497 0.050476
vt 0.947474 0.003860
vt 0.929452 0.050476
vt 0.417475 0.767591
vt 0.428466 0.801783
vt 0.426097 0.856716
vt 0.446489 0.755665
vt 0.464511 0.801783
vt 0.475503 0.767591
vt 0.466881 0.856716
vt 0.403947 0.996140
vt 0.489031 0.996140
vt 0.888442 0.848723
vt 0.910332 0.704793
vt 0.973526 0.848723
vt 0.901970 0.616647
vt 0.911505 0.660044
vt 0.959998 0.616647
vt 0.930984 0.604537
vt 0.951636 0.704793
vt 0.950463 0.660044
vt 0.804612 0.273417
vt 0.838387 0.307630
vt 0.802342 0.307630
vt 0.820365 0.267829
vt 0.836118 0.273417
vt 0.904932 0.301997
vt 0.940775 0.254649
vt 0.940775 0.344698
vt 0.909446 0.263156
vt 0.234196 0.179391
vt 0.234196 0.220696
vt 0.962636 0.030219
vt 0.947474 0.025238
vt 0.932312 0.030219
vt 0.764201 0.943545
vt 0.728358 0.896197
vt 0.764201 0.853496
vt 0.732872 0.935038
vt 0.431327 0.800178
vt 0.446489 0.796462
vt 0.461651 0.800178
vt 0.755664 0.327454
vt 0.791216 0.275035
vt 0.794623 0.327454
vt 0.775144 0.267829
vt 0.759072 0.275035
vt 0.851875 0.280000
vt 0.887427 0.332419
vt 0.848468 0.332419
vt 0.867947 0.272794
vt 0.884019 0.280000
vt 0.889418 0.596817
vt 0.911308 0.452887
vt 0.974503 0.596817
vt 0.902947 0.364741
vt 0.912481 0.408138
vt 0.951440 0.408138
vt 0.952613 0.452887
vt 0.960974 0.364741
vt 0.931960 0.352631
vt 0.165891 0.179391
vt 0.165891 0.220696
vt 0.807764 0.943545
vt 0.771920 0.896197
vt 0.807764 0.853496
vt 0.776434 0.935038
vt 0.840749 0.175025
vt 0.755664 0.260109
vt 0.755664 0.175025
vt 0.840749 0.260109
vt 0.619354 0.778861
vt 0.650713 0.858899
vt 0.612706 0.837152
vt 0.650713 0.755665
vt 0.395626 0.730807
vt 0.368811 0.697032
vt 0.395626 0.694762
vt 0.364431 0.712785
vt 0.368811 0.728538
vt 0.604986 0.755665
vt 0.572945 0.835972
vt 0.566152 0.777841
vt 0.604986 0.858758
vt 0.689279 0.835702
vt 0.720638 0.755665
vt 0.720638 0.858899
vt 0.682631 0.777411
vt 0.558433 0.858758
vt 0.526391 0.778451
vt 0.558433 0.755664
vt 0.519598 0.836582
vn -0.5094 -0.6935 0.5094
vn -0.8313 0.5558 0.0000
vn -0.4157 0.5558 0.7199
vn 0.4582 0.7261 0.5127
vn 0.8313 0.5558 0.0000
vn 0.4582 0.7261 -0.5127
vn -0.5094 -0.6935 -0.5094
vn 0.7010 0.1315 -0.7010
vn 0.0000 1.0000 0.0000
vn 0.9437 0.3297 0.0272
vn -0.4157 0.5558 -0.7199
vn 0.0272 0.3297 0.9437
vn -0.9437 0.3297 -0.0272
vn -0.4582 0.7261 0.5127
vn -0.9776 -0.2105 -0.0000
vn -0.9776 -0.2106 -0.0000
vn -0.3536 0.8660 0.3536
vn -0.7010 0.1315 0.7010
vn 0.8066 -0.4509 0.3822
vn -0.5127 0.7261 0.4582
vn 0.4888 -0.2105 -0.8466
vn 0.4888 -0.2106 -0.8466
vn 0.4157 0.5558 0.7199
vn 0.9776 -0.2105 -0.0000
vn 0.9776 -0.2106 -0.0000
vn -0.0272 0.3297 -0.9437
vn -0.4582 0.7261 -0.5127
vn 0.0272 0.3297 -0.9437
vn 0.5127 0.7261 -0.4582
vn -0.3536 0.8660 -0.3536
vn -0.8066 -0.4509 -0.3822
vn 0.4157 0.5558 -0.7199
vn -0.3822 -0.4509 -0.8066
vn 0.5094 -0.6935 -0.5094
vn -0.7010 0.1315 -0.7010
vn -0.4888 -0.2105 0.8466
vn -0.4888 -0.2106 0.8466
vn -0.3822 -0.4509 0.8066
vn 0.3536 0.8660 -0.3536
vn 0.5094 -0.6935 0.5094
vn 0.5127 0.7261 0.4582
vn 0.3822 -0.4509 0.8066
vn 0.7010 0.1315 0.7010
vn 0.9437 0.3297 -0.0272
vn -0.9437 0.3297 0.0272
vn -0.8066 -0.4509 0.3822
vn 0.3536 -0.8660 0.3536
vn 0.3535 -0.8660 0.3536
vn 0.3536 -0.8660 0.3535
vn 0.3536 0.8660 0.3536
vn -0.4888 -0.2105 -0.8466
vn -0.4888 -0.2106 -0.8466
vn -0.3536 -0.8660 0.3536
vn -0.3535 -0.8660 0.3536
vn 0.4888 -0.2105 0.8466
vn 0.4888 -0.2106 0.8466
vn -0.0272 0.3297 0.9437
vn 0.3536 -0.8660 -0.3536
vn 0.3536 -0.8660 -0.3535
vn 0.3535 -0.8660 -0.3535
vn -0.5127 0.7261 -0.4582
vn 0.8066 -0.4509 -0.3822
vn 0.3822 -0.4509 -0.8066
vn -0.3536 -0.8660 -0.3536
vn -0.3536 -0.8660 -0.3535
vn 0.0373 0.0445 -0.9983
vn 0.9983 0.0581 -0.0000
vn -0.9983 0.0581 0.0000
vn 0.0000 0.0581 -0.9983
vn -0.7274 0.6862 -0.0000
vn -0.0373 0.0445 0.9983
vn 0.0000 -0.8355 0.5495
vn 0.8021 -0.5972 -0.0000
vn -0.0373 0.0445 -0.9983
vn -0.8021 -0.5972 0.0000
vn 0.0000 0.8936 0.4489
vn -0.0000 0.8936 -0.4489
vn 0.0000 0.0581 0.9983
vn -0.0000 -0.8355 -0.5495
vn 0.0373 0.0445 0.9983
vn 0.0000 -1.0000 -0.0000
vn -0.9983 0.0290 -0.0503
vn 0.7274 0.6862 0.0000
vn 0.9983 0.0290 -0.0503
vn -0.9983 0.0290 0.0503
vn 0.9983 0.0290 0.0503
s 1
f 1/1/1 2/2/1 3/3/1
f 2/2/1 1/1/1 4/4/1
f 5/5/2 6/6/2 7/7/2
f 6/6/2 5/5/2 8/8/2
f 9/9/3 7/10/3 10/11/3
f 7/10/3 9/9/3 5/12/3
f 11/13/4 12/14/4 13/15/4
f 12/14/4 11/13/4 14/16/4
f 15/17/5 16/18/5 17/19/5
f 16/18/5 15/17/5 18/20/5
f 19/21/6 11/13/6 13/15/6
f 11/13/6 19/21/6 20/22/6
f 21/23/7 22/24/7 23/25/7
f 22/24/7 21/23/7 24/26/7
f 25/27/8 26/28/8 27/29/8
f 26/28/8 25/27/8 28/30/8
f 9/31/9 8/32/9 5/33/9
f 8/32/9 9/31/9 29/34/9
f 29/34/9 9/31/9 16/35/9
f 29/34/9 16/35/9 18/36/9
f 27/37/10 11/38/10 30/39/10
f 11/38/10 27/37/10 14/40/10
f 14/40/10 27/37/10 26/41/10
f 8/42/11 31/43/11 6/44/11
f 31/43/11 8/42/11 29/45/11
f 32/46/12 33/47/12 2/48/12
f 33/47/12 32/46/12 34/49/12
f 33/47/12 34/49/12 35/50/12
f 36/51/13 3/52/13 37/53/13
f 3/52/13 36/51/13 38/54/13
f 38/54/13 36/51/13 39/55/13
f 40/56/14 41/57/14 39/58/14
f 41/57/14 40/56/14 42/59/14
f 7/7/15 43/60/15 44/61/15
f 43/60/15 7/7/15 6/6/15
f 43/60/15 6/6/15 40/62/16
f 40/62/16 6/6/15 42/63/16
f 42/63/16 6/6/15 45/64/15
f 33/65/17 36/66/17 37/67/17
f 36/66/17 33/65/17 44/68/17
f 36/66/17 44/68/17 43/69/17
f 44/68/17 33/65/17 46/70/17
f 46/70/17 33/65/17 35/71/17
f 33/47/18 3/72/18 2/48/18
f 3/72/18 33/47/18 37/73/18
f 47/74/19 30/39/19 48/75/19
f 30/39/19 47/74/19 27/37/19
f 49/76/20 50/77/20 34/78/20
f 50/77/20 49/76/20 51/79/20
f 31/43/21 52/80/22 53/81/21
f 15/82/21 52/80/22 31/43/21
f 52/80/22 15/82/21 54/83/21
f 16/84/23 10/11/23 17/85/23
f 10/11/23 16/84/23 9/9/23
f 17/19/24 19/86/24 15/17/24
f 19/86/24 17/19/24 55/87/24
f 15/17/24 19/86/24 13/88/25
f 15/17/24 13/88/25 12/89/25
f 15/17/24 12/89/25 54/90/24
f 56/91/26 28/30/26 25/27/26
f 28/30/26 56/91/26 57/92/26
f 28/30/26 57/92/26 58/93/26
f 36/66/27 40/56/27 39/58/27
f 40/56/27 36/66/27 43/69/27
f 59/94/28 56/91/28 21/95/28
f 56/91/28 59/94/28 57/92/28
f 57/92/28 59/94/28 60/96/28
f 61/97/29 57/98/29 60/99/29
f 57/98/29 61/97/29 53/100/29
f 41/57/30 59/101/30 62/102/30
f 59/101/30 41/57/30 45/103/30
f 45/103/30 41/57/30 42/59/30
f 59/101/30 45/103/30 61/97/30
f 59/101/30 61/97/30 60/99/30
f 38/54/31 1/104/31 3/52/31
f 1/104/31 38/54/31 63/105/31
f 29/45/32 15/82/32 31/43/32
f 15/82/32 29/45/32 18/106/32
f 64/107/33 25/27/33 65/108/33
f 25/27/33 64/107/33 56/91/33
f 25/109/34 47/110/34 65/111/34
f 47/110/34 25/109/34 27/112/34
f 62/113/35 21/95/35 23/114/35
f 21/95/35 62/113/35 59/94/35
f 10/11/36 46/115/37 50/116/36
f 7/10/36 46/115/37 10/11/36
f 46/115/37 7/10/36 44/117/36
f 66/118/38 67/119/38 68/120/38
f 67/119/38 66/118/38 32/46/38
f 54/121/39 58/122/39 52/123/39
f 58/122/39 54/121/39 28/124/39
f 28/124/39 54/121/39 26/125/39
f 26/125/39 54/121/39 12/14/39
f 26/125/39 12/14/39 14/16/39
f 69/126/40 66/127/40 68/128/40
f 66/127/40 69/126/40 70/129/40
f 34/78/41 46/70/41 35/71/41
f 46/70/41 34/78/41 50/77/41
f 67/119/42 2/48/42 4/130/42
f 2/48/42 67/119/42 32/46/42
f 70/131/43 71/132/43 66/118/43
f 71/132/43 70/131/43 72/133/43
f 70/134/44 20/135/44 72/136/44
f 20/135/44 70/134/44 30/39/44
f 20/135/44 30/39/44 11/38/44
f 41/137/45 38/54/45 39/55/45
f 38/54/45 41/137/45 23/138/45
f 23/138/45 41/137/45 62/139/45
f 38/54/46 22/140/46 63/105/46
f 22/140/46 38/54/46 23/138/46
f 24/26/47 63/141/47 22/24/47
f 63/141/47 24/26/47 73/142/47
f 73/142/47 24/26/47 74/143/47
f 74/143/47 24/26/47 75/144/47
f 75/144/47 24/26/47 76/145/47
f 76/145/47 24/26/47 64/146/47
f 75/144/47 76/145/47 77/147/47
f 77/147/47 76/145/47 78/148/47
f 76/145/47 64/146/47 79/149/48
f 78/148/47 80/150/47 77/147/47
f 80/150/47 78/148/47 81/151/47
f 82/152/47 75/144/47 77/147/47
f 75/144/47 82/152/47 83/153/49
f 49/76/50 55/154/50 51/79/50
f 55/154/50 49/76/50 71/155/50
f 55/154/50 71/155/50 72/156/50
f 55/154/50 72/156/50 19/21/50
f 19/21/50 72/156/50 20/22/50
f 6/44/51 61/157/52 45/158/51
f 31/43/51 61/157/52 6/44/51
f 61/157/52 31/43/51 53/81/51
f 64/146/53 84/159/53 79/149/54
f 84/159/53 64/146/53 65/111/53
f 84/159/53 65/111/53 85/160/53
f 85/160/53 65/111/53 86/161/53
f 86/161/53 65/111/53 87/162/53
f 87/162/53 65/111/53 88/163/53
f 88/163/53 65/111/53 47/110/53
f 88/163/53 47/110/53 89/164/53
f 89/164/53 47/110/53 48/165/53
f 90/166/53 86/161/53 87/162/53
f 86/161/53 90/166/53 91/167/53
f 86/161/53 81/151/53 85/160/53
f 81/151/53 86/161/53 80/150/53
f 17/85/55 51/168/56 55/169/55
f 10/11/55 51/168/56 17/85/55
f 51/168/56 10/11/55 50/116/55
f 71/132/57 32/46/57 66/118/57
f 32/46/57 71/132/57 34/49/57
f 34/49/57 71/132/57 49/170/57
f 82/152/58 92/171/58 83/153/59
f 92/171/58 82/152/58 93/172/58
f 94/173/58 92/171/58 93/172/58
f 4/4/58 92/171/58 94/173/58
f 4/4/58 95/174/58 92/171/58
f 4/4/58 73/142/58 95/174/58
f 4/4/58 63/141/58 73/142/58
f 63/141/58 4/4/58 1/1/58
f 4/4/58 94/173/58 67/175/58
f 94/173/58 93/172/58 96/176/58
f 97/177/58 96/176/58 93/172/58
f 96/176/58 97/177/58 98/178/58
f 67/175/58 94/173/58 99/179/60
f 52/123/61 57/98/61 53/100/61
f 57/98/61 52/123/61 58/122/61
f 69/180/62 30/39/62 70/134/62
f 30/39/62 69/180/62 48/75/62
f 21/95/63 64/107/63 24/181/63
f 64/107/63 21/95/63 56/91/63
f 100/182/64 98/178/64 97/177/64
f 98/178/64 100/182/64 101/183/64
f 68/128/64 101/183/64 100/182/64
f 68/128/64 102/184/64 101/183/64
f 68/128/64 99/179/64 102/184/64
f 99/179/64 68/128/64 67/175/65
f 68/128/64 100/182/64 103/185/64
f 100/182/64 90/166/64 103/185/64
f 90/166/64 100/182/64 91/167/64
f 68/128/64 103/185/64 104/186/64
f 68/128/64 104/186/64 69/126/64
f 69/126/64 104/186/64 89/164/64
f 69/126/64 89/164/64 48/165/64
f 105/187/66 88/188/66 106/189/66
f 88/188/66 105/187/66 87/190/66
f 107/191/67 108/192/67 100/193/67
f 108/192/67 107/191/67 109/194/67
f 108/192/67 109/194/67 106/195/67
f 106/195/67 109/194/67 86/196/67
f 110/197/67 100/193/67 108/192/67
f 100/193/67 110/197/67 91/198/67
f 91/198/67 110/197/67 105/199/67
f 91/198/67 105/199/67 86/196/67
f 86/196/67 105/199/67 106/195/67
f 93/200/68 111/201/68 112/202/68
f 111/201/68 93/200/68 82/203/68
f 111/201/68 82/203/68 113/204/68
f 113/204/68 82/203/68 77/205/68
f 113/204/68 77/205/68 114/206/68
f 112/202/68 115/207/68 93/200/68
f 115/207/68 112/202/68 116/208/68
f 116/208/68 112/202/68 114/206/68
f 116/208/68 114/206/68 77/205/68
f 116/209/69 117/210/69 109/211/69
f 117/210/69 116/209/69 77/212/69
f 117/210/69 77/212/69 118/213/69
f 118/213/69 77/212/69 86/214/69
f 86/214/69 77/212/69 80/215/69
f 109/211/69 119/216/69 86/214/69
f 119/216/69 109/211/69 117/210/69
f 86/214/69 119/216/69 120/217/69
f 86/214/69 120/217/69 118/213/69
f 103/218/70 105/219/70 110/220/70
f 105/219/70 103/218/70 90/221/70
f 105/219/70 90/221/70 87/222/70
f 111/223/71 95/224/71 112/225/71
f 95/224/71 111/223/71 92/226/71
f 121/227/72 94/173/72 122/228/72
f 94/173/72 121/227/72 99/179/72
f 99/179/72 121/227/72 102/184/72
f 106/195/73 104/229/73 108/192/73
f 104/229/73 106/195/73 89/230/73
f 89/230/73 106/195/73 88/231/73
f 74/232/74 113/233/74 114/234/74
f 113/233/74 74/232/74 75/235/74
f 95/236/75 114/206/75 112/202/75
f 114/206/75 95/236/75 73/237/75
f 114/206/75 73/237/75 74/238/75
f 120/239/76 78/240/76 118/241/76
f 78/240/76 120/239/76 81/242/76
f 81/242/76 120/239/76 85/243/76
f 96/244/77 123/245/77 124/246/77
f 123/245/77 96/244/77 98/247/77
f 123/245/77 98/247/77 101/248/77
f 107/249/78 121/250/78 115/251/78
f 121/250/78 107/249/78 100/252/78
f 121/250/78 100/252/78 123/253/78
f 123/253/78 100/252/78 124/254/78
f 122/255/78 115/251/78 121/250/78
f 115/251/78 122/255/78 93/256/78
f 93/256/78 122/255/78 124/254/78
f 93/256/78 124/254/78 100/252/78
f 93/256/78 100/252/78 97/257/78
f 76/145/79 119/258/79 117/259/79
f 119/258/79 76/145/79 79/149/79
f 119/258/79 79/149/79 84/159/79
f 104/260/80 110/261/80 108/262/80
f 110/261/80 104/260/80 103/263/80
f 109/264/81 115/265/81 116/266/81
f 115/265/81 109/264/81 107/267/81
f 78/268/82 117/269/82 118/270/82
f 117/269/82 78/268/82 76/271/82
f 113/272/83 92/273/83 111/274/83
f 92/273/83 113/272/83 83/275/83
f 83/275/83 113/272/83 75/276/83
f 119/277/84 85/278/84 120/279/84
f 85/278/84 119/277/84 84/280/84
f 96/281/85 122/282/85 94/283/85
f 122/282/85 96/281/85 124/284/85
f 121/285/86 101/286/86 102/287/86
f 101/286/86 121/285/86 123/288/86
