# Blender v2.92.0 OBJ File: 'kenney_OGConvert.blend'
# www.blender.org
o burgerCheeseDouble
v -0.000000 0.040000 -0.180000
v 0.127279 0.000000 -0.127279
v -0.000000 0.000000 -0.180000
v 0.127279 0.040000 -0.127279
v 0.000000 0.040000 0.180000
v -0.127279 -0.000000 0.127279
v 0.000000 -0.000000 0.180000
v -0.127279 0.040000 0.127279
v -0.127279 0.040000 -0.127279
v -0.127279 0.000000 -0.127279
v -0.180000 0.000000 0.000000
v 0.127279 -0.000000 0.127279
v 0.180000 0.000000 -0.000000
v 0.127279 0.040000 0.127279
v 0.127279 0.100000 -0.127279
v -0.000000 0.100000 -0.180000
v 0.127279 0.140000 -0.127279
v -0.127279 0.100000 0.127279
v 0.000000 0.100000 0.180000
v -0.127279 0.140000 0.127279
v -0.127279 0.140000 -0.127279
v -0.127279 0.100000 -0.127279
v -0.180000 0.100000 0.000000
v 0.127279 0.100000 0.127279
v 0.180000 0.100000 -0.000000
v -0.180000 0.140000 0.000000
v 0.127279 0.140000 0.127279
v 0.180000 0.140000 -0.000000
v -0.056257 0.320000 0.056257
v -0.056257 0.320000 -0.056257
v -0.079560 0.320000 0.000000
v 0.000000 0.320000 0.079560
v -0.000000 0.320000 -0.079560
v 0.056257 0.320000 0.056257
v 0.056257 0.320000 -0.056257
v 0.079560 0.320000 0.000000
v -0.127279 0.200000 -0.127279
v -0.127279 0.200000 0.127279
v -0.180000 0.200000 0.000000
v -0.000000 0.200000 -0.180000
v 0.000000 0.200000 0.180000
v 0.127279 0.200000 -0.127279
v 0.127279 0.200000 0.127279
v 0.180000 0.200000 -0.000000
v 0.187200 0.230000 -0.000000
v 0.132370 0.230000 -0.132370
v 0.132370 0.230000 0.132370
v 0.000000 0.230000 0.187200
v -0.187200 0.230000 0.000000
v -0.132370 0.230000 0.132370
v -0.132370 0.230000 -0.132370
v -0.000000 0.230000 -0.187200
v -0.112515 0.290000 -0.112515
v -0.159120 0.290000 0.000000
v 0.112515 0.290000 -0.112515
v 0.159120 0.290000 -0.000000
v 0.000000 0.290000 0.159120
v -0.112515 0.290000 0.112515
v -0.000000 0.290000 -0.159120
v 0.112515 0.290000 0.112515
v -0.153640 0.095600 0.114397
v -0.123848 0.055600 0.142698
v -0.094057 0.095600 0.171000
v -0.153640 0.095600 -0.114397
v -0.094057 0.095600 -0.171000
v 0.094057 0.095600 0.171000
v 0.094057 0.095600 -0.171000
v 0.153640 0.095600 0.114397
v 0.153640 0.095600 -0.114397
v 0.123849 0.055600 0.142698
v -0.123849 0.055600 -0.142698
v 0.123848 0.055600 -0.142698
v 0.114397 0.195600 0.153640
v 0.142698 0.155600 0.123848
v 0.171000 0.195600 0.094057
v -0.114397 0.195600 0.153640
v -0.171000 0.195600 0.094057
v 0.171000 0.195600 -0.094057
v -0.171000 0.195600 -0.094057
v 0.114397 0.195600 -0.153640
v -0.114397 0.195600 -0.153640
v 0.142698 0.155600 -0.123849
v -0.142698 0.155600 0.123849
v -0.142698 0.155600 -0.123848
v -0.180000 0.040000 0.000000
v 0.180000 0.040000 -0.000000
v -0.127279 0.085600 0.127279
v -0.127279 0.085600 -0.127279
v -0.180000 0.085600 0.000000
v 0.000000 0.085600 0.180000
v -0.000000 0.085600 -0.180000
v 0.127279 0.085600 0.127279
v 0.127279 0.085600 -0.127279
v 0.180000 0.085600 -0.000000
v -0.189000 0.062800 0.000000
v -0.133643 0.062800 -0.133643
v -0.000000 0.062800 -0.189000
v 0.133643 0.062800 -0.133643
v 0.189000 0.062800 -0.000000
v -0.133643 0.062800 0.133643
v 0.000000 0.062800 0.189000
v 0.133643 0.062800 0.133643
v -0.000000 0.140000 -0.180000
v 0.000000 0.140000 0.180000
v -0.127279 0.185600 0.127279
v -0.127279 0.185600 -0.127279
v -0.180000 0.185600 0.000000
v 0.000000 0.185600 0.180000
v -0.000000 0.185600 -0.180000
v 0.127279 0.185600 0.127279
v 0.127279 0.185600 -0.127279
v 0.180000 0.185600 -0.000000
v -0.189000 0.162800 0.000000
v -0.133643 0.162800 -0.133643
v -0.000000 0.162800 -0.189000
v 0.133643 0.162800 -0.133643
v 0.189000 0.162800 -0.000000
v -0.133643 0.162800 0.133643
v 0.000000 0.162800 0.189000
v 0.133643 0.162800 0.133643
vt 0.917985 0.271739
vt 0.889162 0.343135
vt 0.889987 0.271953
vt 0.917160 0.342922
vt 0.103430 0.766627
vt 0.074607 0.838023
vt 0.075432 0.766840
vt 0.102605 0.837809
vt 0.752844 0.827126
vt 0.725671 0.923693
vt 0.724846 0.827339
vt 0.753669 0.923479
vt 0.258367 0.169277
vt 0.423022 0.237480
vt 0.326569 0.237480
vt 0.491225 0.169277
vt 0.258367 0.072825
vt 0.491225 0.072825
vt 0.326570 0.004622
vt 0.423022 0.004622
vt 0.103430 0.934163
vt 0.075432 0.934376
vt 0.432956 0.819583
vt 0.405783 0.916150
vt 0.404958 0.819796
vt 0.433781 0.915936
vt 0.405783 0.748614
vt 0.433781 0.748400
vt 0.917985 0.439275
vt 0.889987 0.439489
vt 0.725671 0.756157
vt 0.753669 0.755943
vt 0.724846 0.703959
vt 0.724846 0.525737
vt 0.813957 0.488826
vt 0.813957 0.740870
vt 0.903067 0.525737
vt 0.903067 0.703959
vt 0.823653 0.755943
vt 0.794831 0.827339
vt 0.795655 0.756157
vt 0.822828 0.827126
vt 0.893638 0.755943
vt 0.864815 0.827339
vt 0.865640 0.756157
vt 0.892813 0.827126
vt 0.172589 0.837809
vt 0.145416 0.934376
vt 0.144591 0.838023
vt 0.173414 0.934163
vt 0.258367 0.423022
vt 0.423022 0.491225
vt 0.326569 0.491225
vt 0.491225 0.423022
vt 0.258367 0.326569
vt 0.491225 0.326570
vt 0.326570 0.258367
vt 0.423022 0.258367
vt 0.893638 0.923479
vt 0.865640 0.923693
vt 0.032620 0.837809
vt 0.005447 0.934376
vt 0.004622 0.838023
vt 0.033445 0.934163
vt 0.005447 0.766840
vt 0.033445 0.766627
vt 0.823653 0.923479
vt 0.795655 0.923693
vt 0.145416 0.766840
vt 0.173414 0.766627
vt 0.949223 0.667048
vt 0.912312 0.577937
vt 0.949223 0.488826
vt 0.742571 0.219755
vt 0.742571 0.041533
vt 0.831682 0.004622
vt 0.831682 0.256666
vt 0.920793 0.041533
vt 0.920793 0.219755
vt 0.971711 0.928335
vt 0.934800 0.839225
vt 0.971711 0.750114
vt 0.654854 0.819119
vt 0.582076 0.788973
vt 0.624708 0.788973
vt 0.654854 0.861751
vt 0.551931 0.819119
vt 0.624708 0.891896
vt 0.551931 0.861751
vt 0.582076 0.891896
vt 0.500469 0.169277
vt 0.665124 0.237480
vt 0.568672 0.237480
vt 0.500469 0.072825
vt 0.733327 0.169277
vt 0.568672 0.004622
vt 0.733327 0.072825
vt 0.665124 0.004622
vt 0.258367 0.818480
vt 0.280111 0.916809
vt 0.259192 0.914833
vt 0.279253 0.816601
vt 0.836752 0.339940
vt 0.816692 0.438172
vt 0.815867 0.341819
vt 0.837610 0.440147
vt 0.764315 0.440147
vt 0.742571 0.341819
vt 0.763457 0.339940
vt 0.743396 0.438172
vt 0.352548 0.816601
vt 0.332487 0.914833
vt 0.331662 0.818480
vt 0.353406 0.916809
vt 0.837610 0.265910
vt 0.816692 0.270636
vt 0.332487 0.747297
vt 0.353406 0.742571
vt 0.764315 0.265910
vt 0.743396 0.270636
vt 0.280111 0.742571
vt 0.259192 0.747297
vt 0.394984 0.822984
vt 0.395714 0.760059
vt 0.321689 0.822984
vt 0.322418 0.908160
vt 0.806622 0.283397
vt 0.805893 0.346323
vt 0.395714 0.908161
vt 0.806622 0.431499
vt 0.322418 0.760059
vt 0.879188 0.346323
vt 0.879918 0.431499
vt 0.879918 0.283397
vt 0.560760 0.737512
vt 0.646024 0.737512
vt 0.646024 0.943358
vt 0.706315 0.883067
vt 0.706315 0.797803
vt 0.500469 0.797803
vt 0.500469 0.883067
vt 0.560760 0.943358
vt 0.242574 0.941999
vt 0.214576 0.915446
vt 0.242574 0.888432
vt 0.542184 0.488826
vt 0.500469 0.688638
vt 0.500469 0.528455
vt 0.542184 0.728267
vt 0.673887 0.488826
vt 0.673887 0.728267
vt 0.715602 0.528455
vt 0.715602 0.688638
vt 0.940310 0.676292
vt 0.940310 0.730865
vt 0.912312 0.703775
vt 0.242574 0.879188
vt 0.214576 0.852098
vt 0.242574 0.824615
vt 0.958035 0.192088
vt 0.958035 0.245655
vt 0.930037 0.219102
vt 0.977552 0.729859
vt 0.949554 0.703306
vt 0.977552 0.676292
vt 0.178040 0.751553
vt 0.219755 0.551741
vt 0.219755 0.711924
vt 0.178040 0.512112
vt 0.046337 0.751553
vt 0.046337 0.512112
vt 0.004622 0.711924
vt 0.004622 0.551741
vt 0.332673 0.926053
vt 0.370621 0.965272
vt 0.331662 0.965272
vt 0.242574 0.815371
vt 0.214576 0.788281
vt 0.242574 0.760798
vt 0.286365 0.926053
vt 0.286365 0.979620
vt 0.258367 0.953067
vt 0.966948 0.004622
vt 0.966948 0.182844
vt 0.930037 0.093733
vt 0.995378 0.488826
vt 0.995378 0.667048
vt 0.958467 0.577937
vt 0.733327 0.314927
vt 0.568672 0.246724
vt 0.665124 0.246724
vt 0.733327 0.411379
vt 0.500469 0.314927
vt 0.665124 0.479582
vt 0.500469 0.411379
vt 0.568672 0.479582
vt 0.784761 0.826882
vt 0.769528 0.750114
vt 0.785586 0.755700
vt 0.768662 0.824856
vt 0.933844 0.265910
vt 0.932978 0.340652
vt 0.933844 0.441823
vt 0.249123 0.076235
vt 0.076235 0.004622
vt 0.177510 0.004622
vt 0.249123 0.177510
vt 0.004622 0.076235
vt 0.177510 0.249123
vt 0.004622 0.177510
vt 0.076235 0.249123
vt 0.448774 0.817313
vt 0.449640 0.918484
vt 0.135347 0.766383
vt 0.118423 0.835539
vt 0.119289 0.760798
vt 0.134522 0.837566
vt 0.119289 0.936710
vt 0.449640 0.742571
vt 0.464873 0.819340
vt 0.465698 0.748157
vt 0.465698 0.915693
vt 0.949902 0.271496
vt 0.949077 0.342678
vt 0.769528 0.926027
vt 0.135347 0.933919
vt 0.949902 0.439032
vt 0.785586 0.923236
vt 0.491225 0.568672
vt 0.326570 0.500469
vt 0.423022 0.500469
vt 0.491225 0.665124
vt 0.258367 0.568672
vt 0.423022 0.733327
vt 0.258367 0.665124
vt 0.326569 0.733327
vt 0.204507 0.837566
vt 0.189273 0.760798
vt 0.205332 0.766383
vt 0.188407 0.835539
vt 0.839512 0.750114
vt 0.838646 0.824856
vt 0.839512 0.926027
vt 0.249123 0.329980
vt 0.076235 0.258367
vt 0.177510 0.258367
vt 0.249123 0.431255
vt 0.004622 0.329980
vt 0.177510 0.502868
vt 0.004622 0.431255
vt 0.076235 0.502868
vt 0.048438 0.835539
vt 0.049304 0.936710
vt 0.925555 0.755700
vt 0.908631 0.824856
vt 0.909497 0.750114
vt 0.924730 0.826882
vt 0.909497 0.926027
vt 0.049304 0.760798
vt 0.064537 0.837566
vt 0.065362 0.766383
vt 0.065362 0.933919
vt 0.855571 0.755700
vt 0.854746 0.826882
vt 0.189273 0.936710
vt 0.925555 0.923236
vt 0.855571 0.923236
vt 0.205332 0.933919
vn 0.3827 0.0000 -0.9239
vn -0.3827 -0.0000 0.9239
vn -0.3827 0.0000 -0.9239
vn -0.0000 -1.0000 -0.0000
vn -0.9239 -0.0000 0.3827
vn 0.3827 0.0000 0.9239
vn 0.9239 -0.0000 0.3827
vn 0.9239 0.0000 -0.3827
vn -0.9239 0.0000 -0.3827
vn -0.0000 1.0000 0.0000
vn 0.9020 -0.2165 -0.3736
vn 0.3736 -0.2165 0.9020
vn -0.9020 -0.2165 0.3736
vn -0.3736 -0.2165 -0.9020
vn 0.9020 -0.2165 0.3736
vn -0.9020 -0.2165 -0.3736
vn -0.3736 -0.2165 0.9020
vn 0.3736 -0.2165 -0.9020
vn -0.6404 0.4239 -0.6404
vn -0.9057 0.4239 0.0000
vn 0.9057 0.4239 -0.0000
vn 0.6404 0.4239 -0.6404
vn 0.0000 0.4239 0.9057
vn -0.6404 0.4239 0.6404
vn -0.0000 0.4239 -0.9057
vn 0.6404 0.4239 0.6404
vn -0.3528 0.9357 0.0000
vn -0.2495 0.9357 -0.2495
vn 0.2495 0.9357 0.2495
vn 0.0000 0.9357 0.3528
vn -0.2495 0.9357 0.2495
vn -0.0000 0.9357 -0.3528
vn 0.2495 0.9357 -0.2495
vn 0.3528 0.9357 -0.0000
vn -0.9645 0.0000 0.2642
vn 0.9645 0.0000 0.2642
vn -0.9645 0.0000 -0.2642
vn 0.9645 0.0000 -0.2642
vn 0.2642 0.0000 0.9645
vn 0.2642 0.0000 -0.9645
vn -0.2642 0.0000 0.9645
vn -0.2642 -0.0000 -0.9645
vn -0.8349 0.4283 -0.3458
vn 0.3458 -0.4283 -0.8349
vn 0.8349 -0.4283 -0.3458
vn 0.3458 -0.4283 0.8349
vn -0.3458 0.4283 0.8349
vn -0.8349 -0.4283 0.3458
vn 0.8349 0.4283 0.3458
vn 0.3458 0.4283 0.8349
vn 0.3458 0.4283 -0.8349
vn -0.3458 -0.4283 -0.8349
vn 0.8349 -0.4283 0.3458
vn -0.8349 0.4283 0.3458
vn 0.8349 0.4283 -0.3458
vn -0.8349 -0.4283 -0.3458
vn -0.3458 -0.4283 0.8349
vn -0.3458 0.4283 -0.8349
s 1
f 1/1/1 2/2/1 3/3/1
f 2/2/1 1/1/1 4/4/1
f 5/5/2 6/6/2 7/7/2
f 6/6/2 5/5/2 8/8/2
f 9/9/3 3/10/3 10/11/3
f 3/10/3 9/9/3 1/12/3
f 10/13/4 6/14/4 11/15/4
f 6/14/4 10/13/4 7/16/4
f 7/16/4 10/13/4 3/17/4
f 7/16/4 3/17/4 12/18/4
f 12/18/4 3/17/4 2/19/4
f 12/18/4 2/19/4 13/20/4
f 85/21/5 6/6/5 8/8/5
f 6/6/5 85/21/5 11/22/5
f 14/23/6 7/24/6 12/25/6
f 7/24/6 14/23/6 5/26/6
f 13/27/7 14/23/7 12/25/7
f 14/23/7 13/27/7 86/28/7
f 2/2/8 86/29/8 13/30/8
f 86/29/8 2/2/8 4/4/8
f 9/9/9 11/31/9 85/32/9
f 11/31/9 9/9/9 10/11/9
f 9/33/10 8/34/10 5/35/10
f 9/33/10 5/35/10 1/36/10
f 1/36/10 5/35/10 14/37/10
f 1/36/10 14/37/10 4/38/10
f 103/39/1 15/40/1 16/41/1
f 15/40/1 103/39/1 17/42/1
f 104/43/2 18/44/2 19/45/2
f 18/44/2 104/43/2 20/46/2
f 21/47/3 16/48/3 22/49/3
f 16/48/3 21/47/3 103/50/3
f 22/51/4 18/52/4 23/53/4
f 18/52/4 22/51/4 19/54/4
f 19/54/4 22/51/4 16/55/4
f 19/54/4 16/55/4 24/56/4
f 24/56/4 16/55/4 15/57/4
f 24/56/4 15/57/4 25/58/4
f 26/59/5 18/44/5 20/46/5
f 18/44/5 26/59/5 23/60/5
f 27/61/6 19/62/6 24/63/6
f 19/62/6 27/61/6 104/64/6
f 25/65/7 27/61/7 24/63/7
f 27/61/7 25/65/7 28/66/7
f 15/40/8 28/67/8 25/68/8
f 28/67/8 15/40/8 17/42/8
f 21/47/9 23/69/9 26/70/9
f 23/69/9 21/47/9 22/49/9
f 20/71/4 26/72/4 21/73/4
f 21/74/10 20/75/10 104/76/10
f 21/74/10 104/76/10 103/77/10
f 103/77/10 104/76/10 27/78/10
f 103/77/10 27/78/10 17/79/10
f 17/80/4 28/81/4 27/82/4
f 29/83/10 30/84/10 31/85/10
f 30/84/10 29/83/10 32/86/10
f 30/84/10 32/86/10 33/87/10
f 33/87/10 32/86/10 34/88/10
f 33/87/10 34/88/10 35/89/10
f 35/89/10 34/88/10 36/90/10
f 37/91/4 38/92/4 39/93/4
f 38/92/4 37/91/4 40/94/4
f 38/92/4 40/94/4 41/95/4
f 41/95/4 40/94/4 42/96/4
f 41/95/4 42/96/4 43/97/4
f 43/97/4 42/96/4 44/98/4
f 42/99/11 45/100/11 44/101/11
f 45/100/11 42/99/11 46/102/11
f 47/103/12 41/104/12 43/105/12
f 41/104/12 47/103/12 48/106/12
f 49/107/13 38/108/13 50/109/13
f 38/108/13 49/107/13 39/110/13
f 51/111/14 40/112/14 37/113/14
f 40/112/14 51/111/14 52/114/14
f 43/105/15 45/115/15 47/103/15
f 45/115/15 43/105/15 44/116/15
f 51/111/16 39/117/16 49/118/16
f 39/117/16 51/111/16 37/113/16
f 48/119/17 38/108/17 41/120/17
f 38/108/17 48/119/17 50/109/17
f 52/121/18 42/99/18 40/122/18
f 42/99/18 52/121/18 46/102/18
f 53/123/19 49/118/20 54/124/20
f 49/118/20 53/123/19 51/111/19
f 45/100/21 55/125/22 56/126/21
f 55/125/22 45/100/21 46/102/22
f 57/127/23 50/109/24 48/119/23
f 50/109/24 57/127/23 58/128/24
f 53/123/19 52/114/25 51/111/19
f 52/114/25 53/123/19 59/129/25
f 58/128/24 49/107/20 50/109/24
f 49/107/20 58/128/24 54/130/20
f 59/131/25 46/102/22 52/121/25
f 46/102/22 59/131/25 55/125/22
f 60/132/26 48/106/23 47/103/26
f 48/106/23 60/132/26 57/133/23
f 45/115/21 60/132/26 47/103/26
f 60/132/26 45/115/21 56/134/21
f 31/85/27 53/135/28 54/136/27
f 53/135/28 31/85/27 30/84/28
f 60/137/29 32/86/30 57/138/30
f 32/86/30 60/137/29 34/88/29
f 58/139/31 31/85/27 54/136/27
f 31/85/27 58/139/31 29/83/31
f 30/84/28 59/140/32 53/135/28
f 59/140/32 30/84/28 33/87/32
f 33/87/32 55/141/33 59/140/32
f 55/141/33 33/87/32 35/89/33
f 60/137/29 36/90/34 34/88/29
f 36/90/34 60/137/29 56/142/34
f 57/138/30 29/83/31 58/139/31
f 29/83/31 57/138/30 32/86/30
f 36/90/34 55/141/33 35/89/33
f 55/141/33 36/90/34 56/142/34
f 61/143/35 62/144/35 63/145/35
f 63/146/10 64/147/10 61/148/10
f 64/147/10 63/146/10 65/149/10
f 65/149/10 63/146/10 66/150/10
f 65/149/10 66/150/10 67/151/10
f 67/151/10 66/150/10 68/152/10
f 67/151/10 68/152/10 69/153/10
f 68/154/36 66/155/36 70/156/36
f 65/157/37 71/158/37 64/159/37
f 67/160/38 69/161/38 72/162/38
f 73/163/39 74/164/39 75/165/39
f 75/166/10 76/167/10 73/168/10
f 76/167/10 75/166/10 77/169/10
f 77/169/10 75/166/10 78/170/10
f 77/169/10 78/170/10 79/171/10
f 79/171/10 78/170/10 80/172/10
f 79/171/10 80/172/10 81/173/10
f 80/174/40 78/175/40 82/176/40
f 77/177/41 83/178/41 76/179/41
f 79/180/42 81/181/42 84/182/42
f 9/183/4 8/184/4 85/185/4
f 8/34/10 1/36/10 9/33/10
f 8/34/10 5/35/10 1/36/10
f 5/35/10 4/38/10 1/36/10
f 5/35/10 14/37/10 4/38/10
f 14/186/4 4/187/4 86/188/4
f 87/189/10 88/190/10 89/191/10
f 88/190/10 87/189/10 90/192/10
f 88/190/10 90/192/10 91/193/10
f 91/193/10 90/192/10 92/194/10
f 91/193/10 92/194/10 93/195/10
f 93/195/10 92/194/10 94/196/10
f 88/197/43 95/198/43 89/199/43
f 95/198/43 88/197/43 96/200/43
f 97/201/44 4/4/44 1/1/44
f 4/4/44 97/201/44 98/202/44
f 4/4/45 99/203/45 86/29/45
f 99/203/45 4/4/45 98/202/45
f 100/204/10 96/205/10 95/206/10
f 96/205/10 100/204/10 101/207/10
f 96/205/10 101/207/10 97/208/10
f 97/208/10 101/207/10 102/209/10
f 97/208/10 102/209/10 98/210/10
f 98/210/10 102/209/10 99/211/10
f 102/212/46 5/26/46 14/23/46
f 5/26/46 102/212/46 101/213/46
f 90/214/47 100/215/47 101/216/47
f 100/215/47 90/214/47 87/217/47
f 95/218/48 8/8/48 100/215/48
f 8/8/48 95/218/48 85/21/48
f 99/219/49 92/220/49 102/212/49
f 92/220/49 99/219/49 94/221/49
f 92/220/50 101/213/50 102/212/50
f 101/213/50 92/220/50 90/222/50
f 91/223/51 98/202/51 97/201/51
f 98/202/51 91/223/51 93/224/51
f 96/200/52 1/12/52 9/9/52
f 1/12/52 96/200/52 97/225/52
f 14/23/53 99/219/53 102/212/53
f 99/219/53 14/23/53 86/28/53
f 87/217/54 95/218/54 100/215/54
f 95/218/54 87/217/54 89/226/54
f 98/202/55 94/227/55 99/203/55
f 94/227/55 98/202/55 93/224/55
f 96/200/56 85/32/56 95/198/56
f 85/32/56 96/200/56 9/9/56
f 101/216/57 8/8/57 5/5/57
f 8/8/57 101/216/57 100/215/57
f 88/197/58 97/225/58 96/200/58
f 97/225/58 88/197/58 91/228/58
f 20/75/10 103/77/10 21/74/10
f 20/75/10 104/76/10 103/77/10
f 104/76/10 17/79/10 103/77/10
f 104/76/10 27/78/10 17/79/10
f 105/229/10 106/230/10 107/231/10
f 106/230/10 105/229/10 108/232/10
f 106/230/10 108/232/10 109/233/10
f 109/233/10 108/232/10 110/234/10
f 109/233/10 110/234/10 111/235/10
f 111/235/10 110/234/10 112/236/10
f 106/237/43 113/238/43 107/239/43
f 113/238/43 106/237/43 114/240/43
f 115/241/44 17/42/44 103/39/44
f 17/42/44 115/241/44 116/242/44
f 17/42/45 117/243/45 28/67/45
f 117/243/45 17/42/45 116/242/45
f 118/244/10 114/245/10 113/246/10
f 114/245/10 118/244/10 119/247/10
f 114/245/10 119/247/10 115/248/10
f 115/248/10 119/247/10 120/249/10
f 115/248/10 120/249/10 116/250/10
f 116/250/10 120/249/10 117/251/10
f 120/252/46 104/64/46 27/61/46
f 104/64/46 120/252/46 119/253/46
f 108/254/47 118/255/47 119/256/47
f 118/255/47 108/254/47 105/257/47
f 113/258/48 20/46/48 118/255/48
f 20/46/48 113/258/48 26/59/48
f 117/259/49 110/260/49 120/252/49
f 110/260/49 117/259/49 112/261/49
f 110/260/50 119/253/50 120/252/50
f 119/253/50 110/260/50 108/262/50
f 109/263/51 116/242/51 115/241/51
f 116/242/51 109/263/51 111/264/51
f 114/240/52 103/50/52 21/47/52
f 103/50/52 114/240/52 115/265/52
f 27/61/53 117/259/53 120/252/53
f 117/259/53 27/61/53 28/66/53
f 105/257/54 113/258/54 118/255/54
f 113/258/54 105/257/54 107/266/54
f 116/242/55 112/267/55 117/243/55
f 112/267/55 116/242/55 111/264/55
f 114/240/56 26/70/56 113/238/56
f 26/70/56 114/240/56 21/47/56
f 119/256/57 20/46/57 104/43/57
f 20/46/57 119/256/57 118/255/57
f 106/237/58 115/265/58 114/240/58
f 115/265/58 106/237/58 109/268/58
