# Blender v2.92.0 OBJ File: 'kenney_OGConvert.blend'
# www.blender.org
o cheeseSlicer
v -0.062302 0.011438 -0.025341
v -0.062302 0.027038 0.025341
v -0.062302 0.011438 0.025341
v -0.062302 0.027038 -0.025341
v -0.309212 0.029238 0.000000
v -0.284012 0.009238 0.032488
v -0.284012 0.029238 0.032488
v -0.309212 0.009238 0.000000
v -0.284012 0.029238 -0.032488
v -0.284012 0.009238 -0.032488
v 0.083270 0.005796 0.095900
v 0.061639 -0.000000 0.012488
v 0.061639 -0.000000 0.068578
v 0.061639 0.000000 -0.012488
v 0.061639 0.000000 -0.068578
v 0.083270 0.005796 -0.095900
v 0.083270 0.005796 0.068578
v 0.083270 0.005796 -0.068578
v -0.062302 0.019238 -0.022488
v -0.062302 0.019238 0.022488
v 0.309212 0.005796 0.049124
v 0.116030 0.005796 0.065542
v 0.116030 0.005796 -0.065332
v 0.309212 0.005796 -0.049124
vt 0.676678 0.656511
vt 0.717877 0.790359
vt 0.676678 0.790359
vt 0.717877 0.656511
vt 0.904730 0.651402
vt 0.851911 0.587649
vt 0.904730 0.587649
vt 0.851911 0.651402
vt 0.829402 0.652878
vt 0.676678 0.068293
vt 0.848278 0.068293
vt 0.695554 0.652878
vt 0.501445 0.068367
vt 0.587245 0.001816
vt 0.673045 0.068367
vt 0.762478 0.001816
vt 0.654169 0.653921
vt 0.520321 0.653921
vt 0.908363 0.587649
vt 0.955372 0.001816
vt 0.961182 0.587649
vt 0.914173 0.001816
vt 0.961182 0.651402
vt 0.908363 0.651402
vt 0.857721 0.001816
vt 0.898920 0.001816
vt 0.497812 0.336832
vt 0.270379 0.324949
vt 0.415428 0.294885
vt 0.205791 0.338336
vt 0.060741 0.368399
vt 0.001816 0.439635
vt 0.427158 0.351477
vt 0.501445 0.657554
vt 0.501445 0.657554
vt 0.501445 0.657554
vt 0.114068 0.025923
vt 0.230376 0.001816
vt 0.497812 0.945524
vt 0.436846 0.437725
vt 0.098403 0.507872
vt 0.243744 0.998183
vt 0.072471 0.424991
vn 1.0000 0.0000 -0.0000
vn -0.7902 -0.0000 0.6129
vn 0.0099 1.0000 0.0000
vn 0.0022 1.0000 0.0000
vn 0.0016 1.0000 -0.0000
vn 0.0022 -1.0000 -0.0000
vn -0.0000 -1.0000 -0.0000
vn 0.0016 -1.0000 0.0000
vn 0.0000 1.0000 0.0000
vn 0.0099 -1.0000 -0.0000
vn 0.0322 0.0000 -0.9995
vn -0.7902 -0.0000 -0.6129
vn 0.0322 -0.0000 0.9995
vn -0.2588 0.9659 0.0000
vn -0.2590 0.9659 0.0000
vn -0.2584 0.9660 -0.0003
vn -0.2183 0.9759 0.0001
vn 0.0000 -0.0000 1.0000
vn 0.1534 0.9882 0.0000
s 1
f 1/1/1 2/2/1 3/3/1
f 2/2/1 1/1/1 4/4/1
f 5/5/2 6/6/2 7/7/2
f 6/6/2 5/5/2 8/8/2
f 2/9/3 9/10/4 7/11/5
f 9/10/4 2/9/3 4/12/3
f 6/13/6 8/14/7 10/15/8
f 9/10/4 5/16/9 7/11/5
f 1/17/10 6/13/6 10/15/8
f 6/13/6 1/17/10 3/18/10
f 9/19/11 1/20/11 10/21/11
f 1/20/11 9/19/11 4/22/11
f 9/19/12 8/23/12 5/24/12
f 8/23/12 9/19/12 10/21/12
f 3/25/13 7/7/13 6/6/13
f 7/7/13 3/25/13 2/26/13
f 11/27/14 12/28/14 13/29/14
f 12/28/14 11/27/14 14/30/14
f 14/30/14 11/27/15 15/31/14
f 15/31/14 11/27/15 16/32/16
f 16/32/16 11/27/15 17/33/17
f 16/34/16 17/35/17 18/36/18
f 12/28/19 19/37/19 20/38/19
f 19/37/19 12/28/19 14/30/19
f 21/39/9 17/33/9 11/27/9
f 17/33/9 21/39/9 22/40/9
f 22/40/9 21/39/9 23/41/9
f 24/42/9 23/41/9 21/39/9
f 16/32/9 23/41/9 24/42/9
f 23/41/9 16/32/9 18/43/9
