# Blender v2.92.0 OBJ File: 'kenney_OGConvert.blend'
# www.blender.org
o coconutHalf
v -0.073594 0.041400 -0.073594
v -0.062447 -0.000000 0.000000
v -0.104078 0.041400 0.000000
v -0.044157 0.000000 -0.044157
v -0.073594 0.041400 0.073594
v -0.044157 -0.000000 0.044157
v -0.000000 0.041400 -0.104078
v -0.000000 0.000000 -0.062447
v 0.000000 0.041400 0.104078
v 0.000000 -0.000000 0.062447
v 0.073594 0.041400 -0.073594
v 0.044157 0.000000 -0.044157
v -0.124200 0.124200 0.000000
v -0.087823 0.124200 0.087823
v 0.087823 0.124200 0.087823
v 0.073594 0.041400 0.073594
v 0.000000 0.124200 0.124200
v -0.087823 0.124200 -0.087823
v -0.000000 0.124200 -0.124200
v 0.124200 0.124200 -0.000000
v 0.104078 0.041400 -0.000000
v 0.087823 0.124200 -0.087823
v 0.044157 -0.000000 0.044157
v 0.062447 -0.000000 -0.000000
v -0.108647 0.124200 0.000000
v -0.076825 0.124200 0.076825
v 0.000000 0.124200 0.108647
v 0.076825 0.124200 0.076825
v 0.108647 0.124200 -0.000000
v -0.076825 0.124200 -0.076825
v -0.000000 0.124200 -0.108647
v 0.076825 0.124200 -0.076825
v -0.087429 0.124200 0.000000
v -0.061822 0.124200 0.061822
v 0.000000 0.124200 0.087429
v 0.061822 0.124200 0.061822
v 0.087429 0.124200 -0.000000
v -0.061822 0.124200 -0.061822
v -0.000000 0.124200 -0.087429
v 0.061822 0.124200 -0.061822
v -0.050075 0.054200 0.050075
v -0.050075 0.054200 -0.050075
v -0.070817 0.054200 0.000000
v 0.000000 0.054200 0.070817
v -0.000000 0.054200 -0.070817
v 0.050075 0.054200 0.050075
v 0.050075 0.054200 -0.050075
v 0.070817 0.054200 -0.000000
vt 0.003129 0.651751
vt 0.130131 0.683149
vt 0.102130 0.750751
vt 0.070731 0.623749
vt 0.798545 0.003129
vt 0.910551 0.076064
vt 0.770544 0.076064
vt 0.882550 0.003129
vt 0.710483 0.500937
vt 0.637548 0.388931
vt 0.710483 0.360930
vt 0.637548 0.472935
vt 0.214135 0.683149
vt 0.341137 0.651751
vt 0.242137 0.750751
vt 0.273535 0.623749
vt 0.102129 0.412744
vt 0.070731 0.539745
vt 0.003129 0.511744
vt 0.130131 0.480345
vt 0.757010 0.221675
vt 0.924085 0.221675
vt 0.631289 0.347396
vt 0.485678 0.500937
vt 0.485678 0.360930
vt 0.631289 0.514471
vt 0.856094 0.347396
vt 0.856094 0.514471
vt 0.558355 0.910551
vt 0.412744 0.757010
vt 0.558355 0.770544
vt 0.412744 0.924085
vt 0.710234 0.599937
vt 0.855797 0.632611
vt 0.273535 0.539745
vt 0.214135 0.480345
vt 0.485429 0.599937
vt 0.630992 0.632611
vt 0.873796 0.969503
vt 0.989133 0.845902
vt 0.989133 0.995088
vt 0.205992 0.757010
vt 0.205992 0.953108
vt 0.132463 0.823301
vt 0.558604 0.671544
vt 0.413041 0.638870
vt 0.631289 0.798545
vt 0.631289 0.882550
vt 0.412744 0.472935
vt 0.412744 0.388931
vt 0.341137 0.511744
vt 0.242137 0.412744
vt 0.288345 0.003129
vt 0.131731 0.028385
vt 0.121270 0.003129
vt 0.277884 0.028385
vt 0.406485 0.121270
vt 0.381230 0.131731
vt 0.406485 0.288345
vt 0.381230 0.277884
vt 0.277884 0.381230
vt 0.288345 0.406485
vt 0.003129 0.121270
vt 0.028385 0.131731
vt 0.003129 0.288345
vt 0.028385 0.277884
vt 0.121270 0.406485
vt 0.131731 0.381230
vt 0.511744 0.003129
vt 0.651751 0.003129
vt 0.750751 0.102129
vt 0.412744 0.102130
vt 0.750751 0.242137
vt 0.412744 0.242137
vt 0.651751 0.341137
vt 0.511744 0.341137
vt 0.146002 0.062839
vt 0.263612 0.062839
vt 0.346775 0.146002
vt 0.346775 0.263612
vt 0.263612 0.346775
vt 0.062839 0.146002
vt 0.062839 0.263612
vt 0.146002 0.346775
vt 0.867537 0.706232
vt 0.704911 0.638870
vt 0.800175 0.638870
vt 0.867537 0.801496
vt 0.637548 0.706232
vt 0.800175 0.868858
vt 0.637548 0.801496
vt 0.704911 0.868858
vt 0.003229 0.946738
vt 0.126082 0.840173
vt 0.126204 0.957783
vt 0.003129 0.851474
vt 0.126204 0.757010
vt 0.003229 0.784112
vt 0.341014 0.840173
vt 0.218161 0.946738
vt 0.218062 0.851474
vt 0.341137 0.957783
vt 0.341137 0.757010
vt 0.218161 0.784112
vt 0.985428 0.347396
vt 0.862353 0.441860
vt 0.862452 0.374498
vt 0.985305 0.430559
vt 0.862452 0.537124
vt 0.985428 0.548169
vt 0.996871 0.839643
vt 0.873796 0.733334
vt 0.996748 0.722033
vt 0.873895 0.828598
vt 0.873895 0.665972
vt 0.996871 0.638870
vn -0.5571 -0.7978 -0.2308
vn -0.5571 -0.7978 -0.2307
vn -0.5571 -0.7978 0.2307
vn -0.5571 -0.7978 0.2308
vn -0.2308 -0.7978 -0.5571
vn -0.2307 -0.7978 -0.5571
vn -0.2308 -0.7978 0.5571
vn -0.2307 -0.7978 0.5571
vn 0.2308 -0.7978 -0.5571
vn 0.2307 -0.7978 -0.5571
vn -0.8800 -0.3045 0.3645
vn 0.3645 -0.3045 0.8800
vn -0.3645 -0.3045 -0.8800
vn 0.8800 -0.3045 -0.3645
vn 0.3645 -0.3045 -0.8800
vn -0.0000 -1.0000 -0.0000
vn -0.3645 -0.3045 0.8800
vn -0.8800 -0.3045 -0.3645
vn 0.8800 -0.3045 0.3645
vn 0.5571 -0.7978 -0.2307
vn 0.5571 -0.7978 -0.2308
vn 0.2307 -0.7978 0.5571
vn 0.2308 -0.7978 0.5571
vn 0.5571 -0.7978 0.2308
vn 0.5571 -0.7978 0.2307
vn -0.0000 1.0000 0.0000
vn 0.8819 0.2980 -0.3653
vn 0.8819 0.2980 0.3653
vn 0.3653 0.2980 0.8819
vn -0.3653 0.2980 0.8819
vn 0.3653 0.2980 -0.8819
vn -0.3653 0.2980 -0.8819
vn -0.8819 0.2980 0.3653
vn -0.8819 0.2980 -0.3653
s 1
f 1/1/1 2/2/1 3/3/1
f 2/2/1 1/1/2 4/4/1
f 2/5/3 5/6/3 3/7/4
f 5/6/3 2/5/3 6/8/4
f 7/9/5 4/10/5 1/11/6
f 4/10/5 7/9/5 8/12/6
f 6/13/7 9/14/7 5/15/8
f 9/14/7 6/13/7 10/16/8
f 11/17/9 8/18/9 7/19/9
f 8/18/9 11/17/10 12/20/9
f 13/21/11 5/6/11 14/22/11
f 5/6/11 13/21/11 3/7/11
f 15/23/12 9/24/12 16/25/12
f 9/24/12 15/23/12 17/26/12
f 18/27/13 7/9/13 1/11/13
f 7/9/13 18/27/13 19/28/13
f 11/29/14 20/30/14 21/31/14
f 20/30/14 11/29/14 22/32/14
f 19/28/15 11/33/15 7/9/15
f 11/33/15 19/28/15 22/34/15
f 4/4/16 6/13/16 2/2/16
f 6/13/16 4/4/16 8/18/16
f 6/13/16 8/18/16 10/16/16
f 10/16/16 8/18/16 12/20/16
f 10/16/16 12/20/16 23/35/16
f 23/35/16 12/20/16 24/36/16
f 17/26/17 5/37/17 9/24/17
f 5/37/17 17/26/17 14/38/17
f 18/39/18 3/40/18 13/41/18
f 3/42/18 18/43/18 1/44/18
f 16/45/19 20/30/19 15/46/19
f 20/30/19 16/45/19 21/31/19
f 11/29/20 24/47/20 12/48/21
f 24/47/20 11/29/20 21/31/21
f 10/49/22 16/25/22 9/24/23
f 16/25/22 10/49/22 23/50/23
f 24/36/24 16/51/25 23/35/24
f 16/51/24 24/36/24 21/52/24
f 14/53/26 25/54/26 13/55/26
f 25/54/26 14/53/26 26/56/26
f 26/56/26 14/53/26 17/57/26
f 26/56/26 17/57/26 27/58/26
f 27/58/26 17/57/26 15/59/26
f 27/58/26 15/59/26 28/60/26
f 28/60/26 15/59/26 29/61/26
f 29/61/26 15/59/26 20/62/26
f 25/54/26 18/63/26 13/55/26
f 18/63/26 25/54/26 30/64/26
f 18/63/26 30/64/26 19/65/26
f 19/65/26 30/64/26 31/66/26
f 19/65/26 31/66/26 22/67/26
f 22/67/26 29/61/26 20/62/26
f 22/67/26 31/66/26 32/68/26
f 22/67/26 32/68/26 29/61/26
f 1/69/26 3/70/26 5/71/26
f 5/71/26 7/72/26 1/69/26
f 5/71/26 9/73/26 7/72/26
f 9/73/26 11/74/26 7/72/26
f 9/73/26 16/75/26 11/74/26
f 16/75/26 21/76/26 11/74/26
f 26/56/26 33/77/26 25/54/26
f 33/77/26 26/56/26 34/78/26
f 34/78/26 26/56/26 27/58/26
f 34/78/26 27/58/26 35/79/26
f 35/79/26 27/58/26 28/60/26
f 35/79/26 28/60/26 36/80/26
f 36/80/26 28/60/26 37/81/26
f 37/81/26 28/60/26 29/61/26
f 33/77/26 30/64/26 25/54/26
f 30/64/26 33/77/26 38/82/26
f 30/64/26 38/82/26 31/66/26
f 31/66/26 38/82/26 39/83/26
f 31/66/26 39/83/26 40/84/26
f 31/66/26 40/84/26 32/68/26
f 32/68/26 40/84/26 37/81/26
f 32/68/26 37/81/26 29/61/26
f 41/85/26 42/86/26 43/87/26
f 42/86/26 41/85/26 44/88/26
f 42/86/26 44/88/26 45/89/26
f 45/89/26 44/88/26 46/90/26
f 45/89/26 46/90/26 47/91/26
f 47/91/26 46/90/26 48/92/26
f 41/93/27 33/94/27 34/95/27
f 33/94/27 41/93/27 43/96/27
f 43/96/28 38/97/28 33/94/28
f 38/97/28 43/96/28 42/98/28
f 39/99/29 42/100/29 45/101/29
f 42/100/29 39/99/29 38/102/29
f 40/103/30 45/101/30 47/104/30
f 45/101/30 40/103/30 39/99/30
f 34/105/31 44/106/31 41/107/31
f 44/106/31 34/105/31 35/108/31
f 35/108/32 46/109/32 44/106/32
f 46/109/32 35/108/32 36/110/32
f 40/111/33 48/112/33 37/113/33
f 48/112/33 40/111/33 47/114/33
f 37/113/34 46/115/34 36/116/34
f 46/115/34 37/113/34 48/112/34
