# Blender v2.92.0 OBJ File: 'kenney_OGConvert.blend'
# www.blender.org
o cookingSpatula
v -0.094426 0.002200 -0.025341
v -0.094426 0.017800 0.025341
v -0.094426 0.002200 0.025341
v -0.094426 0.017800 -0.025341
v -0.316136 0.020000 -0.032488
v -0.341336 0.000000 0.000000
v -0.341336 0.020000 0.000000
v -0.316136 0.000000 -0.032488
v -0.316136 -0.000000 0.032488
v -0.316136 0.020000 0.032488
v 0.131146 0.015796 0.095000
v 0.109514 0.010000 0.012488
v 0.109514 0.010000 0.072605
v 0.109514 0.010000 -0.012488
v 0.109514 0.010000 -0.072605
v 0.131146 0.015796 -0.095000
v 0.144345 0.019333 0.062440
v 0.319704 0.066320 0.095000
v 0.306505 0.062784 0.062440
v 0.306505 0.062784 0.037464
v 0.306505 0.062784 0.012488
v 0.306505 0.062784 -0.012488
v 0.306505 0.062784 -0.037464
v 0.306505 0.062784 -0.062440
v 0.144345 0.019333 -0.062440
v 0.319704 0.066320 -0.095000
v 0.144345 0.019333 0.037464
v 0.144345 0.019333 0.012488
v 0.144345 0.019333 -0.012488
v 0.144345 0.019333 -0.037464
v 0.341336 0.072117 0.072605
v 0.341336 0.072117 -0.072605
v -0.094426 0.010000 -0.022488
v -0.094426 0.010000 0.022488
vt 0.586886 0.553637
vt 0.622309 0.668718
vt 0.586886 0.668718
vt 0.622309 0.553637
vt 0.783007 0.056398
vt 0.737594 0.001584
vt 0.783007 0.001584
vt 0.737594 0.056398
vt 0.718196 0.550469
vt 0.586886 0.057496
vt 0.734426 0.057496
vt 0.603116 0.550469
vt 0.660656 0.001584
vt 0.567489 0.562255
vt 0.436179 0.058803
vt 0.583718 0.058803
vt 0.452408 0.562255
vt 0.742589 0.560089
vt 0.778011 0.560089
vt 0.509949 0.001584
vt 0.826593 0.390674
vt 0.786175 0.094945
vt 0.831588 0.094945
vt 0.791170 0.390674
vt 0.786175 0.001584
vt 0.831588 0.001584
vt 0.433011 0.495136
vt 0.382160 0.545930
vt 0.245654 0.545930
vt 0.188941 0.545930
vt 0.052435 0.545930
vt 0.001584 0.495136
vt 0.359079 0.464143
vt 0.433011 0.052378
vt 0.359079 0.083371
vt 0.302366 0.083371
vt 0.245654 0.083371
vt 0.188941 0.083371
vt 0.132229 0.083371
vt 0.075516 0.083371
vt 0.075516 0.464143
vt 0.001584 0.052378
vt 0.436179 0.565423
vt 0.436179 0.565423
vt 0.436179 0.565423
vt 0.436179 0.565423
vt 0.302366 0.464143
vt 0.245654 0.464143
vt 0.436179 0.565423
vt 0.436179 0.565423
vt 0.188941 0.464143
vt 0.132229 0.464143
vt 0.382160 0.001584
vt 0.052435 0.001584
vt 0.268360 0.998416
vt 0.166235 0.998416
vn 1.0000 0.0000 -0.0000
vn -0.7902 0.0000 -0.6129
vn 0.0099 -1.0000 -0.0000
vn 0.0023 -1.0000 -0.0000
vn 0.0016 -1.0000 0.0000
vn -0.0000 -1.0000 -0.0000
vn 0.0099 1.0000 0.0000
vn 0.0023 1.0000 0.0000
vn 0.0016 1.0000 -0.0000
vn 0.0322 0.0000 -0.9995
vn 0.0000 1.0000 0.0000
vn 0.0322 0.0000 0.9995
vn -0.7902 -0.0000 0.6129
vn 0.2588 -0.9659 -0.0000
vn -0.1401 -0.7541 -0.6417
vn 0.9089 -0.4171 -0.0000
vn 0.0527 -0.9814 -0.1847
vn 0.9695 -0.2450 -0.0000
s 1
f 1/1/1 2/2/1 3/3/1
f 2/2/1 1/1/1 4/4/1
f 5/5/2 6/6/2 7/7/2
f 6/6/2 5/5/2 8/8/2
f 1/9/3 9/10/4 8/11/5
f 9/10/4 1/9/3 3/12/3
f 9/10/4 6/13/6 8/11/5
f 2/14/7 5/15/8 10/16/9
f 5/15/8 2/14/7 4/17/7
f 5/5/10 1/18/10 8/8/10
f 1/18/10 5/5/10 4/19/10
f 5/15/8 7/20/11 10/16/9
f 3/21/12 10/22/12 9/23/12
f 10/22/12 3/21/12 2/24/12
f 7/25/13 9/23/13 10/22/13
f 9/23/13 7/25/13 6/26/13
f 11/27/14 13/28/14 12/29/14
f 12/29/14 14/30/14 11/27/14
f 14/30/14 15/31/14 11/27/14
f 15/31/14 16/32/14 11/27/14
f 16/32/14 17/33/14 11/27/14
f 17/33/14 18/34/14 11/27/14
f 17/33/14 19/35/14 18/34/14
f 19/35/14 20/36/14 18/34/14
f 20/36/14 21/37/14 18/34/14
f 21/37/14 22/38/14 18/34/14
f 22/38/14 23/39/14 18/34/14
f 23/39/14 24/40/14 18/34/14
f 25/41/14 17/33/14 16/32/14
f 16/32/14 26/42/14 25/41/14
f 26/42/14 24/40/14 25/41/14
f 26/42/14 18/34/14 24/40/14
f 25/43/14 27/44/15 17/45/14
f 25/43/14 28/46/16 27/44/15
f 20/36/14 27/47/15 28/48/16
f 28/48/16 21/37/14 20/36/14
f 25/43/14 29/49/17 28/46/16
f 25/43/14 30/50/18 29/49/17
f 22/38/14 29/51/17 30/52/18
f 30/52/18 23/39/14 22/38/14
f 26/42/14 31/53/14 18/34/14
f 26/42/14 32/54/14 31/53/14
f 12/29/6 34/55/6 33/56/6
f 33/56/6 14/30/6 12/29/6
