# Blender v2.92.0 OBJ File: 'OGConvert.blend'
# www.blender.org
o donutChocolate
v -0.790511 0.711138 0.456402
v -0.412457 0.711138 0.238132
v -0.790511 0.711138 -0.456402
v -0.000000 0.711138 0.912804
v -0.000000 0.711138 0.476264
v 0.790511 0.711138 0.456402
v 0.412457 0.711138 0.238132
v 0.412457 0.711138 -0.238132
v -0.412457 0.711138 -0.238132
v -0.000000 0.711138 -0.912804
v -0.000000 0.711138 -0.476264
v 0.790511 0.711138 -0.456402
v -0.331507 0.564738 0.191396
v -0.331507 0.564738 -0.191396
v 0.000000 0.600789 1.049200
v 0.908634 0.600789 0.524600
v 0.331507 0.564738 0.191396
v -0.000000 0.564738 0.382792
v 0.908634 0.600789 -0.524600
v 0.472217 0.478179 -0.817904
v 0.000000 0.600789 -1.049200
v -0.472217 0.478179 -0.817904
v -0.908634 0.600789 -0.524600
v -0.908634 0.600789 0.524600
v -0.472217 0.478179 0.817904
v -0.000000 0.564738 -0.382792
v 0.331507 0.564738 -0.191396
v 0.472217 0.478179 0.817904
v -0.944434 0.478179 0.000000
v 0.944434 0.478179 0.000000
v -0.000000 0.146400 0.382792
v 0.412457 -0.000000 0.238132
v -0.000000 -0.000000 0.476264
v 0.331507 0.146400 0.191396
v -0.000000 0.355569 1.131877
v -0.980234 0.355569 0.565938
v -0.790511 -0.000000 0.456402
v 0.000000 0.110349 1.049200
v -0.908634 0.110349 0.524600
v -0.000000 -0.000000 0.912804
v -0.980234 0.355569 -0.565938
v -0.908634 0.110349 -0.524600
v 0.000000 0.110349 -1.049200
v 0.790511 0.000000 -0.456402
v -0.000000 0.000000 -0.912804
v 0.908634 0.110349 -0.524600
v -0.790511 0.000000 -0.456402
v 0.790511 -0.000000 0.456402
v 0.908634 0.110349 0.524600
v -0.000000 0.146400 -0.382792
v 0.331507 0.146400 -0.191396
v -0.331507 0.146400 0.191396
v -0.000000 0.355569 -1.131877
v 0.980234 0.355569 -0.565938
v 0.980234 0.355569 0.565938
v -0.331507 0.146400 -0.191396
v -0.412457 0.000000 -0.238132
v -0.000000 0.000000 -0.476264
v 0.412457 0.000000 -0.238132
v -0.412457 -0.000000 0.238132
vt 0.388557 0.136683
vt 0.302488 0.186375
vt 0.208587 0.032778
vt 0.388557 0.344494
vt 0.302488 0.294802
vt 0.208587 0.448399
vt 0.208587 0.349016
vt 0.114687 0.294802
vt 0.208587 0.132162
vt 0.028618 0.136683
vt 0.114687 0.186375
vt 0.028618 0.344494
vt 0.284059 0.197015
vt 0.208587 0.153442
vt 0.415449 0.360020
vt 0.208587 0.479452
vt 0.126980 0.624264
vt 0.161185 0.526477
vt 0.161185 0.613624
vt 0.126980 0.515837
vt 0.001726 0.360020
vt 0.284059 0.284162
vt 0.836075 0.020548
vt 0.869300 0.073206
vt 0.846361 0.139980
vt 0.874645 0.259411
vt 0.846361 0.378843
vt 0.001726 0.501726
vt 0.034950 0.554383
vt 0.012012 0.621157
vt 0.001726 0.121157
vt 0.292131 0.624264
vt 0.326335 0.526477
vt 0.326335 0.613624
vt 0.292131 0.515837
vt 0.208587 0.327736
vt 0.133116 0.284162
vt 0.415449 0.121157
vt 0.208587 0.001726
vt 0.040296 0.740589
vt 0.012012 0.860020
vt 0.133116 0.197015
vt 0.869300 0.445617
vt 0.836075 0.498274
vt 0.001726 0.979452
vt 0.034950 0.926794
vt 0.256306 0.613624
vt 0.288679 0.515837
vt 0.288679 0.624264
vt 0.256306 0.526477
vt 0.068580 0.611746
vt 0.057484 0.482904
vt 0.625762 0.448399
vt 0.832623 0.360020
vt 0.625762 0.479452
vt 0.805731 0.344494
vt 0.902929 0.388254
vt 0.947591 0.498274
vt 0.891833 0.517096
vt 0.957877 0.378843
vt 0.418901 0.121157
vt 0.625762 0.032778
vt 0.445792 0.136683
vt 0.625762 0.001726
vt 0.113242 0.501726
vt 0.123528 0.621157
vt 0.445792 0.344494
vt 0.418901 0.360020
vt 0.805731 0.136683
vt 0.832623 0.121157
vt 0.330088 0.657198
vt 0.421457 0.613624
vt 0.425210 0.657198
vt 0.164937 0.657198
vt 0.260059 0.657198
vt 0.902929 0.130569
vt 0.891833 0.001726
vt 0.123528 0.860020
vt 0.057484 0.998274
vt 0.068580 0.869431
vt 0.113242 0.979451
vt 0.421457 0.526477
vt 0.330088 0.482904
vt 0.425210 0.482904
vt 0.531861 0.294802
vt 0.531861 0.186375
vt 0.625762 0.132162
vt 0.719663 0.186375
vt 0.625762 0.349016
vt 0.719663 0.294802
vt 0.625762 0.327736
vt 0.550290 0.284162
vt 0.947591 0.020548
vt 0.957877 0.139980
vt 0.625762 0.153442
vt 0.550290 0.197015
vt 0.453829 0.515837
vt 0.453829 0.624264
vt 0.701233 0.197015
vt 0.701233 0.284162
vt 0.164937 0.482904
vt 0.260059 0.482904
vn 0.0000 1.0000 0.0000
vn 0.8751 0.4839 0.0000
vn 0.3413 0.7307 0.5912
vn -0.4376 0.4839 -0.7579
vn 0.6827 0.7307 0.0000
vn 0.4376 0.4839 -0.7579
vn 0.4800 0.2803 -0.8313
vn -0.4800 0.2803 -0.8313
vn -0.4800 0.2803 0.8313
vn 0.3413 0.7307 -0.5912
vn 0.4376 0.4839 0.7579
vn -0.8751 0.4839 0.0000
vn -0.3413 0.7307 0.5912
vn -0.6827 0.7307 0.0000
vn -0.3413 0.7307 -0.5912
vn 0.4800 0.2803 0.8313
vn -0.4376 0.4839 0.7579
vn -0.9599 0.2803 0.0000
vn 0.9599 0.2803 0.0000
vn -0.4376 -0.4839 -0.7579
vn -0.3413 -0.7307 0.5912
vn -0.9599 -0.2803 -0.0000
vn 0.3413 -0.7307 -0.5912
vn -0.4800 -0.2803 0.8313
vn -0.3413 -0.7307 -0.5912
vn -0.5000 0.0000 -0.8660
vn 0.3413 -0.7307 0.5912
vn -0.5000 -0.0000 0.8660
vn 0.5000 0.0000 -0.8660
vn 0.9599 -0.2803 -0.0000
vn 1.0000 0.0000 0.0000
vn 0.0000 -1.0000 -0.0000
vn 0.5000 -0.0000 0.8660
vn -0.6827 -0.7307 -0.0000
vn 0.8751 -0.4839 -0.0000
vn 0.4800 -0.2803 -0.8313
vn -0.4376 -0.4839 0.7579
vn 0.4376 -0.4839 0.7579
vn -0.8751 -0.4839 -0.0000
vn 0.4376 -0.4839 -0.7579
vn -1.0000 0.0000 0.0000
vn 0.6827 -0.7307 -0.0000
vn -0.4800 -0.2803 -0.8313
vn 0.4800 -0.2803 0.8313
s 1
f 1/1/1 2/2/1 3/3/1
f 2/2/1 1/1/1 4/4/1
f 2/2/1 4/4/1 5/5/1
f 5/5/1 4/4/1 6/6/1
f 5/5/1 6/6/1 7/7/1
f 7/7/1 6/6/1 8/8/1
f 9/9/1 3/3/1 2/2/1
f 3/3/1 9/9/1 10/10/1
f 10/10/1 9/9/1 11/11/1
f 10/10/1 11/11/1 12/12/1
f 12/12/1 11/11/1 8/8/1
f 12/12/1 8/8/1 6/6/1
f 13/13/2 9/9/2 2/2/2
f 9/9/2 13/13/2 14/14/2
f 15/15/3 6/6/3 4/4/3
f 6/6/3 15/15/3 16/16/3
f 5/17/4 17/18/4 18/19/4
f 17/18/4 5/17/4 7/20/4
f 16/16/5 12/12/5 6/6/5
f 12/12/5 16/16/5 19/21/5
f 2/2/6 18/22/6 13/13/6
f 18/22/6 2/2/6 5/5/6
f 19/23/7 20/24/7 21/25/7
f 21/25/8 22/26/8 23/27/8
f 24/28/9 25/29/9 15/30/9
f 12/12/10 21/31/10 10/10/10
f 21/31/10 12/12/10 19/21/10
f 11/32/11 14/33/11 26/34/11
f 14/33/11 11/32/11 9/35/11
f 8/8/12 17/36/12 7/7/12
f 17/36/12 8/8/12 27/37/12
f 15/15/13 1/1/13 24/38/13
f 1/1/13 15/15/13 4/4/13
f 1/1/14 23/39/14 24/38/14
f 23/39/14 1/1/14 3/3/14
f 3/3/15 21/31/15 23/39/15
f 21/31/15 3/3/15 10/10/15
f 15/30/16 28/40/16 16/41/16
f 8/8/17 26/42/17 27/37/17
f 26/42/17 8/8/17 11/11/17
f 23/27/18 29/43/18 24/44/18
f 19/45/19 16/41/19 30/46/19
f 31/47/20 32/48/20 33/49/20
f 32/48/20 31/47/20 34/50/20
f 35/51/9 25/29/9 36/52/9
f 25/29/9 35/51/9 15/30/9
f 24/28/9 36/52/9 25/29/9
f 37/53/21 38/54/21 39/55/21
f 38/54/21 37/53/21 40/56/21
f 41/57/22 39/58/22 36/59/22
f 39/58/22 41/57/22 42/60/22
f 43/61/23 44/62/23 45/63/23
f 44/62/23 43/61/23 46/64/23
f 35/51/24 39/65/24 38/66/24
f 39/65/24 35/51/24 36/52/24
f 43/61/25 47/67/25 42/68/25
f 47/67/25 43/61/25 45/63/25
f 18/19/26 34/50/26 31/47/26
f 34/50/26 18/19/26 17/18/26
f 48/69/27 38/54/27 40/56/27
f 38/54/27 48/69/27 49/70/27
f 27/71/28 50/72/28 51/73/28
f 50/72/28 27/71/28 26/34/28
f 13/74/29 31/47/29 52/75/29
f 31/47/29 13/74/29 18/19/29
f 53/76/7 20/24/7 54/77/7
f 20/24/7 53/76/7 21/25/7
f 19/23/7 54/77/7 20/24/7
f 36/59/18 29/43/18 41/57/18
f 29/43/18 36/59/18 24/44/18
f 41/57/18 29/43/18 23/27/18
f 49/78/30 54/79/30 55/80/30
f 54/79/30 49/78/30 46/81/30
f 56/82/31 13/83/31 52/84/31
f 13/83/31 56/82/31 14/33/31
f 47/67/32 57/85/32 37/53/32
f 57/85/32 47/67/32 45/63/32
f 57/85/32 45/63/32 58/86/32
f 58/86/32 45/63/32 44/62/32
f 58/86/32 44/62/32 59/87/32
f 59/87/32 44/62/32 32/88/32
f 60/89/32 37/53/32 57/85/32
f 37/53/32 60/89/32 40/56/32
f 40/56/32 60/89/32 33/90/32
f 40/56/32 33/90/32 48/69/32
f 48/69/32 33/90/32 32/88/32
f 48/69/32 32/88/32 44/62/32
f 26/34/33 56/82/33 50/72/33
f 56/82/33 26/34/33 14/33/33
f 47/67/34 39/55/34 42/68/34
f 39/55/34 47/67/34 37/53/34
f 57/85/35 52/91/35 60/89/35
f 52/91/35 57/85/35 56/92/35
f 53/76/36 46/93/36 43/94/36
f 46/93/36 53/76/36 54/77/36
f 51/95/37 58/86/37 59/87/37
f 58/86/37 51/95/37 50/96/37
f 50/72/38 57/97/38 58/98/38
f 57/97/38 50/72/38 56/82/38
f 34/99/39 59/87/39 32/88/39
f 59/87/39 34/99/39 51/95/39
f 52/91/40 33/90/40 60/89/40
f 33/90/40 52/91/40 31/100/40
f 27/101/41 34/50/41 17/18/41
f 34/50/41 27/101/41 51/102/41
f 46/64/42 48/69/42 44/62/42
f 48/69/42 46/64/42 49/70/42
f 41/57/8 22/26/8 53/76/8
f 22/26/8 41/57/8 23/27/8
f 21/25/8 53/76/8 22/26/8
f 41/57/43 43/94/43 42/60/43
f 43/94/43 41/57/43 53/76/43
f 55/80/44 38/66/44 49/78/44
f 38/66/44 55/80/44 35/51/44
f 55/80/16 28/40/16 35/51/16
f 28/40/16 55/80/16 16/41/16
f 15/30/16 35/51/16 28/40/16
f 55/80/19 30/46/19 16/41/19
f 30/46/19 55/80/19 54/79/19
f 30/46/19 54/79/19 19/45/19
