# Blender v2.92.0 OBJ File: 'kenney_OGConvert.blend'
# www.blender.org
o eggCup
v 0.000000 0.060000 0.026600
v 0.059894 0.100000 0.034580
v 0.000000 0.100000 0.069160
v 0.023036 0.060000 0.013300
v 0.000000 0.020000 0.070000
v -0.023036 0.060000 0.013300
v -0.060622 0.020000 0.035000
v -0.060622 0.020000 -0.035000
v -0.000000 0.000000 -0.070000
v -0.060622 0.000000 -0.035000
v -0.000000 0.020000 -0.070000
v -0.060622 -0.000000 0.035000
v 0.000000 -0.000000 0.070000
v 0.059894 0.100000 -0.034580
v -0.000000 0.060000 -0.026600
v -0.000000 0.100000 -0.069160
v 0.023036 0.060000 -0.013300
v 0.060622 0.020000 0.035000
v 0.060622 -0.000000 0.035000
v 0.060622 0.000000 -0.035000
v 0.060622 0.020000 -0.035000
v -0.000000 0.150000 -0.091291
v 0.079060 0.150000 -0.045646
v -0.059894 0.100000 0.034580
v -0.059894 0.100000 -0.034580
v -0.023036 0.060000 -0.013300
v 0.079060 0.150000 0.045646
v 0.000000 0.150000 0.091291
v -0.079060 0.150000 -0.045646
v -0.079060 0.150000 0.045646
v -0.062143 0.150000 0.035878
v 0.000000 0.150000 0.071756
v 0.062143 0.150000 0.035878
v 0.062143 0.150000 -0.035878
v -0.062143 0.150000 -0.035878
v -0.000000 0.150000 -0.071756
v -0.000000 0.092167 -0.051665
v 0.044743 0.092167 -0.025832
v 0.044743 0.092167 0.025832
v 0.000000 0.092167 0.051665
v -0.044743 0.092167 0.025832
v -0.044743 0.092167 -0.025832
vt 0.128260 0.601878
vt 0.025839 0.512558
vt 0.175119 0.514125
vt 0.070844 0.601275
vt 0.914117 0.605370
vt 0.832984 0.501109
vt 0.914117 0.454268
vt 0.832984 0.558528
vt 0.350613 0.329791
vt 0.431037 0.358774
vt 0.356680 0.372522
vt 0.424970 0.316043
vt 0.174213 0.686725
vt 0.249274 0.733835
vt 0.173760 0.729883
vt 0.249727 0.690678
vt 0.373592 0.421876
vt 0.524695 0.378717
vt 0.524695 0.421876
vt 0.373592 0.378717
vt 0.549411 0.124043
vt 0.459487 0.225935
vt 0.401604 0.145029
vt 0.516336 0.217864
vt 0.023119 0.685139
vt 0.022666 0.728296
vt 0.580639 0.337533
vt 0.649817 0.287309
vt 0.655884 0.330040
vt 0.574571 0.294802
vt 0.362647 0.040571
vt 0.557752 0.012869
vt 0.662078 0.078649
vt 0.792937 0.305302
vt 0.662078 0.229751
vt 0.923795 0.229751
vt 0.792937 0.003097
vt 0.923795 0.078649
vt 0.264856 0.662253
vt 0.344418 0.558899
vt 0.344418 0.708188
vt 0.264856 0.604834
vt 0.374499 0.594476
vt 0.477853 0.506236
vt 0.523788 0.594476
vt 0.420434 0.506236
vt 0.783258 0.378716
vt 0.652400 0.454268
vt 0.783258 0.680921
vt 0.652400 0.605370
vt 0.623753 0.116640
vt 0.655884 0.003097
vt 0.783258 0.587238
vt 0.733532 0.558528
vt 0.264856 0.817737
vt 0.344418 0.714383
vt 0.344418 0.863672
vt 0.264856 0.760318
vt 0.003097 0.403415
vt 0.200148 0.405485
vt 0.350613 0.703374
vt 0.547674 0.703374
vt 0.249727 0.518030
vt 0.646205 0.699254
vt 0.264856 0.403415
vt 0.344418 0.506769
vt 0.264856 0.552704
vt 0.344418 0.449350
vt 0.344418 0.101628
vt 0.307899 0.122712
vt 0.173758 0.003097
vt 0.344418 0.298690
vt 0.307899 0.277606
vt 0.173758 0.397220
vt 0.173758 0.355052
vt 0.039616 0.277606
vt 0.173758 0.045266
vt 0.003097 0.101628
vt 0.039616 0.122712
vt 0.003097 0.298690
vt 0.783258 0.472400
vt 0.733532 0.501109
vt 0.249727 0.740030
vt 0.249727 0.901164
vt 0.198818 0.846485
vt 0.046320 0.740030
vt 0.101714 0.849830
vt 0.003097 0.849830
vt 0.476353 0.709568
vt 0.350613 0.810462
vt 0.352167 0.754674
vt 0.474195 0.787053
vt 0.606444 0.864462
vt 0.482548 0.731254
vt 0.606444 0.709568
vt 0.482548 0.842777
vt 0.975655 0.919456
vt 0.854090 0.953532
vt 0.851759 0.897771
vt 0.978893 0.996903
vt 0.851758 0.786248
vt 0.978893 0.687116
vt 0.975655 0.764563
vt 0.854090 0.730486
vt 0.845564 0.854401
vt 0.748982 0.687116
vt 0.845564 0.742877
vt 0.652400 0.742877
vt 0.748982 0.910162
vt 0.652400 0.854401
vt 0.352167 0.921975
vt 0.476353 0.941931
vn 0.3677 -0.6776 0.6369
vn -0.3644 0.6848 0.6311
vn -0.5000 0.0000 -0.8660
vn -0.5000 0.0000 0.8660
vn -1.0000 0.0000 0.0000
vn 0.3677 -0.6776 -0.6369
vn 0.5000 0.0000 0.8660
vn 1.0000 0.0000 -0.0000
vn 0.4669 -0.3579 -0.8087
vn -0.0000 -1.0000 -0.0000
vn 0.3644 0.6848 -0.6311
vn -0.3677 -0.6776 0.6369
vn -0.7354 -0.6776 0.0000
vn 0.0000 1.0000 0.0000
vn 0.5000 0.0000 -0.8660
vn 0.3644 0.6848 0.6311
vn 0.9337 -0.3579 -0.0000
vn 0.7288 0.6848 -0.0000
vn 0.7354 -0.6776 -0.0000
vn -0.7288 0.6848 0.0000
vn 0.4669 -0.3579 0.8087
vn -0.9337 -0.3579 0.0000
vn -0.4669 -0.3579 0.8087
vn -0.3677 -0.6776 -0.6369
vn -0.3644 0.6848 -0.6311
vn -0.4669 -0.3579 -0.8087
vn -0.4788 0.2881 0.8293
vn -0.9576 0.2881 0.0000
vn -0.4788 0.2881 -0.8293
vn 0.9576 0.2881 -0.0000
vn 0.4788 0.2881 -0.8293
vn 0.4788 0.2881 0.8293
s 1
f 1/1/1 2/2/1 3/3/1
f 2/2/1 1/1/1 4/4/1
f 5/5/2 6/6/2 7/7/2
f 6/6/2 5/5/2 1/8/2
f 8/9/3 9/10/3 10/11/3
f 9/10/3 8/9/3 11/12/3
f 5/13/4 12/14/4 13/15/4
f 12/14/4 5/13/4 7/16/4
f 8/17/5 12/18/5 7/19/5
f 12/18/5 8/17/5 10/20/5
f 14/21/6 15/22/6 16/23/6
f 15/22/6 14/21/6 17/24/6
f 18/25/7 13/15/7 19/26/7
f 13/15/7 18/25/7 5/13/7
f 20/27/8 18/28/8 19/29/8
f 18/28/8 20/27/8 21/30/8
f 22/31/9 14/21/9 16/23/9
f 14/21/9 22/31/9 23/32/9
f 9/33/10 12/34/10 10/35/10
f 12/34/10 9/33/10 13/36/10
f 13/36/10 9/33/10 20/37/10
f 13/36/10 20/37/10 19/38/10
f 17/24/11 11/12/11 15/22/11
f 11/12/11 17/24/11 21/30/11
f 6/39/12 3/40/12 24/41/12
f 3/40/12 6/39/12 1/42/12
f 25/43/13 6/44/13 24/45/13
f 6/44/13 25/43/13 26/46/13
f 5/5/14 8/47/14 7/7/14
f 8/47/14 5/5/14 11/48/14
f 11/48/14 5/5/14 18/49/14
f 11/48/14 18/49/14 21/50/14
f 11/12/15 20/27/15 9/10/15
f 20/27/15 11/12/15 21/30/15
f 18/25/16 1/1/16 5/13/16
f 1/1/16 18/25/16 4/4/16
f 2/51/17 23/32/17 27/52/17
f 23/32/17 2/51/17 14/21/17
f 21/50/18 4/53/18 18/49/18
f 4/53/18 21/50/18 17/54/18
f 4/55/19 14/56/19 2/57/19
f 14/56/19 4/55/19 17/58/19
f 6/44/20 8/17/20 7/19/20
f 8/17/20 6/44/20 26/46/20
f 27/59/21 3/3/21 2/2/21
f 3/3/21 27/59/21 28/60/21
f 29/61/22 24/45/22 30/62/22
f 24/45/22 29/61/22 25/43/22
f 28/60/23 24/63/23 3/3/23
f 24/45/23 28/64/23 30/62/23
f 16/65/24 26/66/24 25/67/24
f 26/66/24 16/65/24 15/68/24
f 30/69/14 31/70/14 29/71/14
f 31/70/14 30/69/14 28/72/14
f 31/70/14 28/72/14 32/73/14
f 32/73/14 28/72/14 27/74/14
f 32/73/14 27/74/14 33/75/14
f 33/75/14 27/74/14 34/76/14
f 29/71/14 35/77/14 22/78/14
f 35/77/14 29/71/14 31/70/14
f 22/78/14 35/77/14 36/79/14
f 22/78/14 36/79/14 23/80/14
f 23/80/14 36/79/14 34/76/14
f 23/80/14 34/76/14 27/74/14
f 26/81/25 11/48/25 8/47/25
f 11/48/25 26/81/25 15/82/25
f 29/83/26 16/84/26 25/85/26
f 16/86/26 29/87/26 22/88/26
f 34/89/27 37/90/27 38/91/27
f 37/90/27 34/89/27 36/92/27
f 34/93/28 39/94/28 33/95/28
f 39/94/28 34/93/28 38/96/28
f 32/97/29 39/98/29 40/99/29
f 39/98/29 32/97/29 33/100/29
f 41/101/30 35/102/30 31/103/30
f 35/102/30 41/101/30 42/104/30
f 31/103/31 40/99/31 41/101/31
f 40/99/31 31/103/31 32/97/31
f 40/105/14 42/106/14 41/107/14
f 42/106/14 40/105/14 37/108/14
f 37/108/14 40/105/14 39/109/14
f 37/108/14 39/109/14 38/110/14
f 36/92/32 42/111/32 37/90/32
f 42/111/32 36/92/32 35/112/32
