# Blender v2.92.0 OBJ File: 'kenney_OGConvert.blend'
# www.blender.org
o fryingPanLid
v -0.242211 0.040000 0.078699
v -0.206278 0.040000 0.067024
v -0.206278 0.040000 -0.067024
v -0.149694 0.040000 0.206037
v -0.127487 0.040000 0.175471
v 0.000000 0.040000 0.254675
v 0.000000 0.040000 0.216893
v 0.127487 0.040000 0.175470
v 0.149694 0.040000 0.206037
v 0.206278 0.040000 0.067024
v 0.242211 0.040000 0.078699
v 0.242211 0.040000 -0.078699
v -0.242211 0.040000 -0.078699
v -0.149694 0.040000 -0.206037
v -0.127487 0.040000 -0.175470
v -0.000000 0.040000 -0.254675
v -0.000000 0.040000 -0.216893
v 0.149694 0.040000 -0.206037
v 0.127487 0.040000 -0.175471
v 0.206278 0.040000 -0.067024
v -0.178208 -0.000000 0.245282
v -0.288346 -0.000000 0.093689
v -0.178208 0.000000 -0.245282
v -0.288346 0.000000 -0.093689
v 0.178208 0.000000 -0.245282
v 0.288346 0.000000 -0.093689
v -0.000000 0.000000 -0.303185
v 0.000000 -0.000000 0.303185
v 0.178208 -0.000000 0.245282
v 0.288346 -0.000000 0.093689
v 0.127487 -0.000000 0.175470
v 0.000000 -0.000000 0.216893
v 0.206278 -0.000000 0.067024
v 0.206278 0.000000 -0.067024
v 0.127487 0.000000 -0.175471
v -0.000000 0.000000 -0.216893
v -0.127487 0.000000 -0.175470
v -0.206278 0.000000 -0.067024
v -0.206278 -0.000000 0.067024
v -0.127487 -0.000000 0.175471
v -0.085182 0.040000 -0.019572
v -0.057543 0.040000 -0.019572
v -0.057543 0.040000 0.019572
v -0.085182 0.040000 0.019572
v 0.057543 0.040000 -0.019572
v 0.085182 0.040000 -0.019572
v 0.085182 0.040000 0.019572
v 0.057543 0.040000 0.019572
v -0.082619 0.087619 -0.019572
v -0.084034 0.083449 0.019572
v -0.082619 0.087619 0.019572
v -0.084034 0.083449 -0.019572
v -0.075322 0.098540 0.019572
v -0.078225 0.095229 -0.019572
v -0.078225 0.095229 0.019572
v -0.075322 0.098540 -0.019572
v -0.057433 0.075515 -0.019572
v -0.057280 0.076280 0.019572
v -0.057433 0.075515 0.019572
v -0.057280 0.076280 -0.019572
v 0.080671 0.091568 0.019572
v 0.078225 0.095229 -0.019572
v 0.078225 0.095229 0.019572
v 0.080671 0.091568 -0.019572
v -0.064400 0.105838 0.019572
v -0.060231 0.107253 -0.019572
v -0.064400 0.105838 -0.019572
v -0.060231 0.107253 0.019572
v -0.057029 0.077019 -0.019572
v -0.056684 0.077719 0.019572
v -0.057029 0.077019 0.019572
v -0.056684 0.077719 -0.019572
v 0.055150 0.079469 -0.019572
v 0.054501 0.079903 0.019572
v 0.054501 0.079903 -0.019572
v 0.055150 0.079469 0.019572
v 0.055736 0.078955 -0.019572
v 0.056251 0.078368 0.019572
v 0.055736 0.078955 0.019572
v 0.056251 0.078368 -0.019572
v -0.055912 0.108112 -0.019572
v -0.055912 0.108112 0.019572
v -0.052297 0.080651 -0.019572
v -0.053062 0.080499 0.019572
v -0.053062 0.080499 -0.019572
v -0.052296 0.080651 0.019572
v -0.057543 0.073831 -0.019572
v -0.057543 0.073831 0.019572
v 0.056684 0.077719 0.019572
v 0.056684 0.077719 -0.019572
v -0.056251 0.078368 -0.019572
v -0.055736 0.078955 0.019572
v -0.056251 0.078368 0.019572
v -0.055736 0.078955 -0.019572
v -0.055150 0.079469 -0.019572
v 0.053801 0.080248 -0.019572
v 0.053062 0.080499 0.019572
v 0.053062 0.080499 -0.019572
v 0.053801 0.080248 0.019572
v -0.085182 0.074736 -0.019572
v -0.085182 0.074736 0.019572
v -0.050613 0.080761 -0.019572
v -0.050613 0.080761 0.019572
v -0.068350 0.103890 0.019572
v -0.068350 0.103890 -0.019572
v 0.055912 0.108112 0.019572
v 0.060231 0.107253 -0.019572
v 0.055912 0.108112 -0.019572
v 0.060231 0.107253 0.019572
v 0.051518 0.108400 0.019572
v 0.051518 0.108400 -0.019572
v 0.057543 0.073831 0.019572
v 0.085182 0.074736 0.019572
v 0.057433 0.075515 0.019572
v 0.084894 0.079130 0.019572
v 0.057280 0.076280 0.019572
v 0.057029 0.077019 0.019572
v 0.084034 0.083449 0.019572
v 0.052297 0.080651 0.019572
v 0.050613 0.080761 0.019572
v 0.082619 0.087619 0.019572
v -0.080671 0.091568 0.019572
v 0.075322 0.098540 0.019572
v -0.072011 0.101443 0.019572
v 0.072011 0.101443 0.019572
v 0.068350 0.103890 0.019572
v 0.064400 0.105838 0.019572
v -0.051518 0.108400 0.019572
v -0.084894 0.079130 0.019572
v -0.055150 0.079469 0.019572
v -0.054501 0.079903 0.019572
v -0.053801 0.080248 0.019572
v 0.072011 0.101443 -0.019572
v 0.068350 0.103890 -0.019572
v -0.084894 0.079130 -0.019572
v 0.082619 0.087619 -0.019572
v 0.084034 0.083449 -0.019572
v -0.080671 0.091568 -0.019572
v 0.064400 0.105838 -0.019572
v 0.057029 0.077019 -0.019572
v -0.053801 0.080248 -0.019572
v 0.085182 0.074736 -0.019572
v -0.051518 0.108400 -0.019572
v -0.054501 0.079903 -0.019572
v 0.075322 0.098540 -0.019572
v -0.072011 0.101443 -0.019572
v 0.084894 0.079130 -0.019572
v 0.050613 0.080761 -0.019572
v 0.057543 0.073831 -0.019572
v 0.057433 0.075515 -0.019572
v 0.057280 0.076280 -0.019572
v 0.052296 0.080651 -0.019572
vt 0.378637 0.085697
vt 0.359554 0.111964
vt 0.250000 0.076368
vt 0.458140 0.195123
vt 0.427261 0.205156
vt 0.458140 0.330380
vt 0.427261 0.320347
vt 0.359554 0.413539
vt 0.378637 0.439806
vt 0.250000 0.449135
vt 0.250000 0.481603
vt 0.121363 0.439806
vt 0.250000 0.043901
vt 0.121363 0.085697
vt 0.140446 0.111964
vt 0.041860 0.195123
vt 0.072739 0.205156
vt 0.041860 0.330380
vt 0.072739 0.320347
vt 0.140446 0.413539
vt 0.497785 0.182241
vt 0.403140 0.051973
vt 0.096860 0.051973
vt 0.250000 0.002215
vt 0.002215 0.343262
vt 0.096860 0.473530
vt 0.002215 0.182241
vt 0.497785 0.343262
vt 0.403140 0.473530
vt 0.250000 0.523288
vt 0.599796 0.637271
vt 0.565423 0.637271
vt 0.565423 0.527718
vt 0.599796 0.527718
vt 0.434343 0.736101
vt 0.434343 0.829293
vt 0.399970 0.829293
vt 0.399970 0.736101
vt 0.434343 0.620910
vt 0.399970 0.620910
vt 0.434343 0.527718
vt 0.399970 0.527718
vt 0.638599 0.746825
vt 0.604225 0.746825
vt 0.604225 0.637271
vt 0.638599 0.637271
vt 0.604225 0.527718
vt 0.638599 0.527718
vt 0.395540 0.527718
vt 0.395540 0.620910
vt 0.361167 0.620910
vt 0.361167 0.527718
vt 0.395540 0.736101
vt 0.361167 0.736101
vt 0.395540 0.829293
vt 0.361167 0.829293
vt 0.599796 0.746825
vt 0.565423 0.746825
vt 0.502215 0.343262
vt 0.750000 0.523288
vt 0.596860 0.473530
vt 0.640446 0.413539
vt 0.572739 0.320347
vt 0.502215 0.182241
vt 0.572739 0.205156
vt 0.596860 0.051973
vt 0.640446 0.111964
vt 0.750000 0.076368
vt 0.750000 0.002215
vt 0.859554 0.111964
vt 0.750000 0.449135
vt 0.903140 0.473530
vt 0.859554 0.413539
vt 0.997785 0.343262
vt 0.927261 0.320347
vt 0.927261 0.205156
vt 0.997785 0.182241
vt 0.903140 0.051973
vt 0.256624 0.187937
vt 0.249285 0.210526
vt 0.281276 0.220921
vt 0.288616 0.198332
vt 0.218724 0.304583
vt 0.211384 0.327171
vt 0.243376 0.337566
vt 0.250715 0.314977
vt 0.002215 0.771697
vt 0.002215 0.656506
vt 0.069923 0.864889
vt 0.069923 0.563314
vt 0.179476 0.900485
vt 0.179476 0.527718
vt 0.289030 0.864889
vt 0.289030 0.563314
vt 0.356738 0.771697
vt 0.356738 0.656506
vt 0.643028 0.702520
vt 0.676666 0.698937
vt 0.676666 0.702520
vt 0.643028 0.698937
vt 0.676666 0.711905
vt 0.643028 0.709061
vt 0.676666 0.709061
vt 0.643028 0.711905
vt 0.469292 0.678546
vt 0.469949 0.712184
vt 0.469292 0.712184
vt 0.469949 0.678546
vt 0.714734 0.667591
vt 0.681096 0.664445
vt 0.714734 0.664445
vt 0.681096 0.667591
vt 0.643028 0.647786
vt 0.676666 0.644202
vt 0.676666 0.647786
vt 0.643028 0.644202
vt 0.470584 0.678546
vt 0.471186 0.712184
vt 0.470584 0.712184
vt 0.471186 0.678546
vt 0.714734 0.623006
vt 0.681096 0.622448
vt 0.714734 0.622448
vt 0.681096 0.623006
vt 0.476677 0.678546
vt 0.477181 0.712184
vt 0.476677 0.712184
vt 0.714734 0.623510
vt 0.681096 0.623510
vt 0.477181 0.678546
vt 0.676666 0.640491
vt 0.643028 0.640491
vt 0.714734 0.530674
vt 0.681096 0.530016
vt 0.714734 0.530016
vt 0.681096 0.530674
vt 0.467845 0.678546
vt 0.467845 0.712184
vt 0.477739 0.712184
vt 0.477739 0.678546
vt 0.471743 0.678546
vt 0.472248 0.712184
vt 0.471743 0.712184
vt 0.472248 0.678546
vt 0.714734 0.528222
vt 0.681096 0.527718
vt 0.714734 0.527718
vt 0.714734 0.621847
vt 0.681096 0.621212
vt 0.714734 0.621212
vt 0.681096 0.621847
vt 0.643028 0.691450
vt 0.676666 0.661600
vt 0.676666 0.691450
vt 0.643028 0.661600
vt 0.714734 0.532120
vt 0.681096 0.532120
vt 0.643028 0.651179
vt 0.676666 0.651179
vt 0.643028 0.544397
vt 0.676666 0.540686
vt 0.676666 0.544397
vt 0.643028 0.540686
vt 0.643028 0.548173
vt 0.676666 0.548173
vt 0.438773 0.527718
vt 0.467845 0.551469
vt 0.438773 0.551469
vt 0.468623 0.527718
vt 0.469292 0.551563
vt 0.472398 0.527965
vt 0.469949 0.551694
vt 0.470584 0.551910
vt 0.471186 0.552206
vt 0.471743 0.552579
vt 0.472248 0.553021
vt 0.472690 0.553525
vt 0.476110 0.528704
vt 0.473062 0.554083
vt 0.473359 0.554684
vt 0.473575 0.555319
vt 0.473705 0.555977
vt 0.473800 0.557424
vt 0.476110 0.673131
vt 0.479693 0.671914
vt 0.479693 0.529920
vt 0.483087 0.670241
vt 0.483087 0.531594
vt 0.486233 0.668139
vt 0.486233 0.533696
vt 0.489078 0.665644
vt 0.489078 0.536191
vt 0.491573 0.662799
vt 0.491573 0.539036
vt 0.493675 0.659652
vt 0.493675 0.542182
vt 0.495349 0.656258
vt 0.495349 0.545576
vt 0.496565 0.652675
vt 0.496565 0.549159
vt 0.497303 0.648964
vt 0.497303 0.552870
vt 0.497551 0.645188
vt 0.497551 0.556646
vt 0.438773 0.650366
vt 0.468623 0.674116
vt 0.438773 0.674116
vt 0.467845 0.650366
vt 0.469292 0.650271
vt 0.472398 0.673869
vt 0.469949 0.650140
vt 0.470584 0.649924
vt 0.471186 0.649628
vt 0.471743 0.649255
vt 0.472248 0.648813
vt 0.472690 0.648309
vt 0.473062 0.647751
vt 0.473359 0.647150
vt 0.473575 0.646515
vt 0.473705 0.645857
vt 0.473800 0.644411
vt 0.643028 0.533709
vt 0.676666 0.530563
vt 0.676666 0.533709
vt 0.643028 0.530563
vt 0.676666 0.695226
vt 0.643028 0.695226
vt 0.714734 0.674568
vt 0.681096 0.670985
vt 0.714734 0.670985
vt 0.681096 0.674568
vt 0.676666 0.705914
vt 0.643028 0.705914
vt 0.643028 0.537103
vt 0.676666 0.537103
vt 0.478340 0.712184
vt 0.478340 0.678546
vt 0.438773 0.678546
vt 0.438773 0.712184
vt 0.681096 0.529381
vt 0.714734 0.529381
vt 0.681096 0.711905
vt 0.714734 0.682055
vt 0.714734 0.711905
vt 0.681096 0.682055
vt 0.643028 0.636715
vt 0.676666 0.636715
vt 0.714734 0.528780
vt 0.681096 0.528222
vt 0.681096 0.528780
vt 0.714734 0.661600
vt 0.681096 0.661600
vt 0.643028 0.657171
vt 0.676666 0.654326
vt 0.676666 0.657171
vt 0.643028 0.654326
vt 0.714734 0.678280
vt 0.681096 0.678280
vt 0.532065 0.527718
vt 0.502215 0.551469
vt 0.502215 0.527718
vt 0.531287 0.551469
vt 0.532734 0.551563
vt 0.535841 0.527965
vt 0.533392 0.551694
vt 0.534027 0.551910
vt 0.534628 0.552206
vt 0.535186 0.552579
vt 0.535690 0.553021
vt 0.536132 0.553525
vt 0.539552 0.528704
vt 0.536505 0.554083
vt 0.536801 0.554684
vt 0.537017 0.555319
vt 0.537148 0.555977
vt 0.537242 0.557424
vt 0.537242 0.644411
vt 0.531287 0.650366
vt 0.502215 0.674116
vt 0.502215 0.650366
vt 0.532065 0.674116
vt 0.532734 0.650271
vt 0.535841 0.673869
vt 0.533392 0.650140
vt 0.534027 0.649924
vt 0.534628 0.649628
vt 0.535186 0.649255
vt 0.535690 0.648813
vt 0.536132 0.648309
vt 0.539552 0.673131
vt 0.536505 0.647751
vt 0.536801 0.647150
vt 0.537017 0.646515
vt 0.537148 0.645857
vt 0.543135 0.529920
vt 0.543135 0.671914
vt 0.546529 0.531594
vt 0.546529 0.670241
vt 0.549675 0.533696
vt 0.549675 0.668139
vt 0.552520 0.536191
vt 0.552520 0.665644
vt 0.555015 0.539036
vt 0.555015 0.662799
vt 0.557117 0.542182
vt 0.557117 0.659652
vt 0.558791 0.545576
vt 0.558791 0.656258
vt 0.560007 0.549159
vt 0.560007 0.652675
vt 0.560746 0.552870
vt 0.560746 0.648964
vt 0.560993 0.556646
vt 0.560993 0.645188
vt 0.478975 0.678546
vt 0.479633 0.712184
vt 0.478975 0.712184
vt 0.479633 0.678546
vt 0.681096 0.620554
vt 0.714734 0.620554
vt 0.681096 0.619107
vt 0.714734 0.619107
vt 0.481080 0.712184
vt 0.481080 0.678546
vt 0.510152 0.712184
vt 0.510152 0.678546
vt 0.676666 0.527718
vt 0.643028 0.527718
vn 0.0000 1.0000 0.0000
vn -0.5300 0.7556 0.3850
vn -0.5300 0.7556 -0.3850
vn 0.5300 0.7556 -0.3850
vn -0.6551 0.7556 0.0000
vn 0.2024 0.7556 -0.6230
vn -0.2024 0.7556 0.6230
vn -0.2024 0.7556 -0.6230
vn 0.2024 0.7556 0.6230
vn 0.6551 0.7556 -0.0000
vn 0.5300 0.7556 0.3850
vn 0.3090 0.0000 0.9511
vn 0.8090 0.0000 0.5878
vn 1.0000 0.0000 -0.0000
vn 0.8090 0.0000 -0.5878
vn 0.3090 0.0000 -0.9511
vn -0.3090 0.0000 -0.9511
vn -0.8090 0.0000 -0.5878
vn -1.0000 0.0000 0.0000
vn -0.8090 0.0000 0.5878
vn -0.3090 -0.0000 0.9511
vn 0.0000 -1.0000 -0.0000
vn -0.9239 0.3827 0.0000
vn -0.9659 0.2588 0.0000
vn -0.7071 0.7071 0.0000
vn -0.7934 0.6088 0.0000
vn 0.9914 -0.1305 -0.0000
vn 0.9659 -0.2588 -0.0000
vn 0.8660 0.5000 0.0000
vn 0.7934 0.6088 0.0000
vn -0.3827 0.9239 0.0000
vn -0.2588 0.9659 0.0000
vn 0.9239 -0.3827 -0.0000
vn 0.8660 -0.5000 -0.0000
vn -0.6088 -0.7934 0.0000
vn -0.5000 -0.8660 0.0000
vn -0.6088 -0.7933 0.0000
vn -0.7071 -0.7071 0.0000
vn -0.7934 -0.6088 0.0000
vn -0.1305 0.9914 -0.0000
vn 0.1305 -0.9914 -0.0000
vn 0.2588 -0.9659 -0.0000
vn 0.9979 -0.0654 -0.0000
vn -0.8660 -0.5000 0.0000
vn 0.7934 -0.6088 -0.0000
vn 0.7071 -0.7071 -0.0000
vn 0.6088 -0.7933 -0.0000
vn -0.3827 -0.9239 0.0000
vn -0.2588 -0.9659 0.0000
vn 0.0654 -0.9979 -0.0000
vn -0.5000 0.8660 0.0000
vn 0.1305 0.9914 -0.0000
vn 0.2588 0.9659 -0.0000
vn 0.0654 0.9979 0.0000
vn 0.0000 0.0000 1.0000
vn 0.5000 0.8660 0.0000
vn 0.6088 0.7934 0.0000
vn -0.9914 0.1305 0.0000
vn 0.9659 0.2588 0.0000
vn 0.9239 0.3827 0.0000
vn -0.8660 0.5000 0.0000
vn 0.3827 0.9239 0.0000
vn -0.9239 -0.3827 0.0000
vn 0.3827 -0.9239 -0.0000
vn 0.5000 -0.8660 -0.0000
vn 0.6088 -0.7934 -0.0000
vn 0.7071 0.7071 0.0000
vn -0.6088 0.7934 0.0000
vn 0.9979 0.0654 0.0000
vn 0.9914 0.1305 0.0000
vn -0.0000 0.0000 -1.0000
vn -0.9659 -0.2588 0.0000
vn -0.9914 -0.1305 0.0000
vn -0.1305 -0.9914 0.0000
vn -0.0654 -0.9979 0.0000
vn -0.9979 0.0654 0.0000
vn -0.0654 0.9979 -0.0000
vn -0.9979 -0.0654 0.0000
s 1
f 1/1/1 2/2/1 3/3/1
f 2/2/1 1/1/1 4/4/1
f 2/2/1 4/4/1 5/5/1
f 5/5/1 4/4/1 6/6/1
f 5/5/1 6/6/1 7/7/1
f 7/7/1 6/6/1 8/8/1
f 8/8/1 6/6/1 9/9/1
f 8/8/1 9/9/1 10/10/1
f 10/10/1 9/9/1 11/11/1
f 10/10/1 11/11/1 12/12/1
f 3/3/1 13/13/1 1/1/1
f 13/13/1 3/3/1 14/14/1
f 14/14/1 3/3/1 15/15/1
f 14/14/1 15/15/1 16/16/1
f 16/16/1 15/15/1 17/17/1
f 16/16/1 17/17/1 18/18/1
f 18/18/1 17/17/1 19/19/1
f 18/18/1 19/19/1 20/20/1
f 18/18/1 20/20/1 12/12/1
f 12/12/1 20/20/1 10/10/1
f 21/21/2 1/1/2 22/22/2
f 1/1/2 21/21/2 4/4/2
f 13/13/3 23/23/3 24/24/3
f 23/23/3 13/13/3 14/14/3
f 12/12/4 25/25/4 18/18/4
f 25/25/4 12/12/4 26/26/4
f 22/22/5 13/13/5 24/24/5
f 13/13/5 22/22/5 1/1/5
f 16/16/6 25/25/6 27/27/6
f 25/25/6 16/16/6 18/18/6
f 28/28/7 4/4/7 21/21/7
f 4/4/7 28/28/7 6/6/7
f 14/14/8 27/27/8 23/23/8
f 27/27/8 14/14/8 16/16/8
f 28/28/9 9/9/9 6/6/9
f 9/9/9 28/28/9 29/29/9
f 11/11/10 26/26/10 12/12/10
f 26/26/10 11/11/10 30/30/10
f 29/29/11 11/11/11 9/9/11
f 11/11/11 29/29/11 30/30/11
f 7/31/12 32/32/12 31/33/12
f 31/33/12 8/34/12 7/31/12
f 10/35/13 8/36/13 31/37/13
f 31/37/13 33/38/13 10/35/13
f 20/39/14 10/35/14 33/38/14
f 33/38/14 34/40/14 20/39/14
f 19/41/15 20/39/15 34/40/15
f 34/40/15 35/42/15 19/41/15
f 19/43/16 35/44/16 36/45/16
f 36/45/16 17/46/16 19/43/16
f 17/46/17 36/45/17 37/47/17
f 37/47/17 15/48/17 17/46/17
f 37/49/18 38/50/18 3/51/18
f 3/51/18 15/52/18 37/49/18
f 38/50/19 39/53/19 2/54/19
f 2/54/19 3/51/19 38/50/19
f 39/53/20 40/55/20 5/56/20
f 5/56/20 2/54/20 39/53/20
f 5/57/21 40/58/21 32/32/21
f 32/32/21 7/31/21 5/57/21
f 23/59/22 22/60/22 24/61/22
f 22/60/22 23/59/22 38/62/22
f 38/62/22 23/59/22 37/63/22
f 37/63/22 23/59/22 27/64/22
f 37/63/22 27/64/22 36/65/22
f 36/65/22 27/64/22 25/66/22
f 36/65/22 25/66/22 35/67/22
f 35/67/22 25/66/22 34/68/22
f 34/68/22 25/66/22 26/69/22
f 34/68/22 26/69/22 33/70/22
f 39/71/22 22/60/22 38/62/22
f 22/60/22 39/71/22 21/72/22
f 21/72/22 39/71/22 40/73/22
f 21/72/22 40/73/22 28/74/22
f 28/74/22 40/73/22 32/75/22
f 28/74/22 32/75/22 31/76/22
f 28/74/22 31/76/22 29/77/22
f 29/77/22 31/76/22 33/70/22
f 29/77/22 33/70/22 30/78/22
f 30/78/22 33/70/22 26/69/22
f 15/15/1 3/3/1 2/2/1
f 2/2/1 5/5/1 15/15/1
f 5/5/1 41/79/1 15/15/1
f 41/79/1 17/17/1 15/15/1
f 41/79/1 42/80/1 17/17/1
f 42/80/1 43/81/1 17/17/1
f 44/82/1 41/79/1 5/5/1
f 5/5/1 7/7/1 44/82/1
f 7/7/1 43/81/1 44/82/1
f 7/7/1 17/17/1 43/81/1
f 7/7/1 45/83/1 17/17/1
f 45/83/1 19/19/1 17/17/1
f 45/83/1 46/84/1 19/19/1
f 46/84/1 47/85/1 19/19/1
f 48/86/1 45/83/1 7/7/1
f 7/7/1 8/8/1 48/86/1
f 8/8/1 47/85/1 48/86/1
f 8/8/1 19/19/1 47/85/1
f 8/8/1 20/20/1 19/19/1
f 8/8/1 10/10/1 20/20/1
f 38/87/1 39/88/1 37/89/1
f 40/90/1 37/89/1 39/88/1
f 36/91/1 37/89/1 40/90/1
f 32/92/1 36/91/1 40/90/1
f 35/93/1 36/91/1 32/92/1
f 31/94/1 35/93/1 32/92/1
f 34/95/1 35/93/1 31/94/1
f 33/96/1 34/95/1 31/94/1
f 49/97/23 50/98/24 51/99/23
f 50/98/24 49/97/23 52/100/24
f 53/101/25 54/102/26 55/103/26
f 54/102/26 53/101/25 56/104/25
f 57/105/27 58/106/28 59/107/27
f 58/106/28 57/105/27 60/108/28
f 61/109/29 62/110/30 63/111/30
f 62/110/30 61/109/29 64/112/29
f 65/113/31 66/114/32 67/115/31
f 66/114/32 65/113/31 68/116/32
f 69/117/33 70/118/34 71/119/33
f 70/118/34 69/117/33 72/120/34
f 73/121/35 74/122/36 75/123/36
f 74/122/36 73/121/35 76/124/37
f 77/125/38 78/126/39 79/127/38
f 76/124/37 77/128/38 79/129/38
f 78/126/39 77/125/38 80/130/39
f 68/116/32 81/131/40 66/114/32
f 81/131/40 68/116/32 82/132/40
f 83/133/41 84/134/42 85/135/42
f 84/134/42 83/133/41 86/136/41
f 87/137/43 59/107/27 88/138/43
f 59/107/27 87/137/43 57/105/27
f 80/130/39 89/139/44 78/126/39
f 89/139/44 80/130/39 90/140/44
f 91/141/45 92/142/46 93/143/45
f 92/142/46 91/141/45 94/144/46
f 95/145/47 92/146/46 94/147/46
f 96/148/48 97/149/49 98/150/49
f 97/149/49 96/148/48 99/151/48
f 100/152/19 44/153/19 101/154/19
f 44/153/19 100/152/19 41/155/19
f 102/156/50 86/136/41 83/133/41
f 86/136/41 102/156/50 103/157/50
f 104/158/51 67/115/31 105/159/51
f 67/115/31 104/158/51 65/113/31
f 106/160/52 107/161/53 108/162/52
f 107/161/53 106/160/52 109/163/53
f 75/123/36 99/151/48 96/148/48
f 99/151/48 75/123/36 74/122/36
f 110/164/54 108/162/52 111/165/54
f 108/162/52 110/164/54 106/160/52
f 47/166/55 112/167/55 48/168/55
f 112/167/55 47/166/55 113/169/55
f 112/167/55 113/169/55 114/170/55
f 114/170/55 113/169/55 115/171/55
f 114/170/55 115/171/55 116/172/55
f 116/172/55 115/171/55 117/173/55
f 117/173/55 115/171/55 89/174/55
f 89/174/55 115/171/55 78/175/55
f 78/175/55 115/171/55 79/176/55
f 79/176/55 115/171/55 76/177/55
f 76/177/55 115/171/55 118/178/55
f 76/177/55 118/178/55 74/179/55
f 74/179/55 118/178/55 99/180/55
f 99/180/55 118/178/55 97/181/55
f 97/181/55 118/178/55 119/182/55
f 119/182/55 118/178/55 120/183/55
f 120/183/55 118/178/55 50/184/55
f 50/184/55 118/178/55 51/185/55
f 51/185/55 118/178/55 121/186/55
f 51/185/55 121/186/55 122/187/55
f 122/187/55 121/186/55 61/188/55
f 122/187/55 61/188/55 55/189/55
f 55/189/55 61/188/55 63/190/55
f 55/189/55 63/190/55 53/191/55
f 53/191/55 63/190/55 123/192/55
f 53/191/55 123/192/55 124/193/55
f 124/193/55 123/192/55 125/194/55
f 124/193/55 125/194/55 104/195/55
f 104/195/55 125/194/55 126/196/55
f 104/195/55 126/196/55 65/197/55
f 65/197/55 126/196/55 127/198/55
f 65/197/55 127/198/55 68/199/55
f 68/199/55 127/198/55 109/200/55
f 68/199/55 109/200/55 82/201/55
f 82/201/55 109/200/55 106/202/55
f 82/201/55 106/202/55 128/203/55
f 128/203/55 106/202/55 110/204/55
f 43/205/55 101/206/55 44/207/55
f 101/206/55 43/205/55 88/208/55
f 101/206/55 88/208/55 59/209/55
f 101/206/55 59/209/55 129/210/55
f 129/210/55 59/209/55 58/211/55
f 129/210/55 58/211/55 71/212/55
f 129/210/55 71/212/55 70/213/55
f 129/210/55 70/213/55 93/214/55
f 129/210/55 93/214/55 92/215/55
f 129/210/55 92/215/55 130/216/55
f 129/210/55 130/216/55 50/184/55
f 50/184/55 130/216/55 131/217/55
f 50/184/55 131/217/55 132/218/55
f 50/184/55 132/218/55 84/219/55
f 50/184/55 84/219/55 86/220/55
f 50/184/55 86/220/55 103/221/55
f 50/184/55 103/221/55 120/183/55
f 126/222/56 133/223/57 134/224/56
f 133/223/57 126/222/56 125/225/57
f 52/100/24 129/226/58 50/98/24
f 129/226/58 52/100/24 135/227/58
f 118/228/59 136/229/60 121/230/60
f 136/229/60 118/228/59 137/231/59
f 54/102/26 122/232/61 55/103/26
f 122/232/61 54/102/26 138/233/61
f 127/234/62 134/224/56 139/235/62
f 134/224/56 127/234/62 126/222/56
f 90/140/44 117/236/63 89/139/44
f 117/236/63 90/140/44 140/237/63
f 42/238/14 88/138/14 43/239/14
f 88/138/14 42/238/14 87/137/14
f 85/135/42 132/240/64 141/241/64
f 132/240/64 85/135/42 84/134/42
f 46/242/14 113/243/14 47/244/14
f 113/243/14 46/242/14 142/245/14
f 128/246/1 111/165/1 143/247/1
f 111/165/1 128/246/1 110/164/1
f 109/163/53 139/235/62 107/161/53
f 139/235/62 109/163/53 127/234/62
f 144/248/65 130/249/66 95/145/47
f 130/249/66 144/248/65 131/250/65
f 62/110/30 123/251/67 63/111/30
f 123/251/67 62/110/30 145/252/67
f 60/108/28 71/119/33 58/106/28
f 71/119/33 60/108/28 69/117/33
f 53/253/25 146/254/68 56/255/25
f 146/254/68 53/253/25 124/256/68
f 142/245/69 115/257/70 113/243/69
f 115/257/70 142/245/69 147/258/70
f 100/259/71 42/260/71 41/261/71
f 42/260/71 100/259/71 87/262/71
f 87/262/71 100/259/71 57/263/71
f 57/263/71 100/259/71 135/264/71
f 57/263/71 135/264/71 60/265/71
f 60/265/71 135/264/71 69/266/71
f 69/266/71 135/264/71 72/267/71
f 72/267/71 135/264/71 91/268/71
f 91/268/71 135/264/71 94/269/71
f 94/269/71 135/264/71 95/270/71
f 95/270/71 135/264/71 52/271/71
f 95/270/71 52/271/71 144/272/71
f 144/272/71 52/271/71 141/273/71
f 141/273/71 52/271/71 85/274/71
f 85/274/71 52/271/71 83/275/71
f 83/275/71 52/271/71 102/276/71
f 102/276/71 52/271/71 148/277/71
f 149/278/71 46/279/71 45/280/71
f 46/279/71 149/278/71 142/281/71
f 142/281/71 149/278/71 150/282/71
f 142/281/71 150/282/71 147/283/71
f 147/283/71 150/282/71 151/284/71
f 147/283/71 151/284/71 140/285/71
f 147/283/71 140/285/71 90/286/71
f 147/283/71 90/286/71 80/287/71
f 147/283/71 80/287/71 77/288/71
f 147/283/71 77/288/71 73/289/71
f 147/283/71 73/289/71 137/290/71
f 137/290/71 73/289/71 75/291/71
f 137/290/71 75/291/71 96/292/71
f 137/290/71 96/292/71 98/293/71
f 137/290/71 98/293/71 152/294/71
f 137/290/71 152/294/71 148/277/71
f 137/290/71 148/277/71 52/271/71
f 137/290/71 52/271/71 49/295/71
f 137/290/71 49/295/71 136/296/71
f 136/296/71 49/295/71 138/297/71
f 136/296/71 138/297/71 64/298/71
f 64/298/71 138/297/71 54/299/71
f 64/298/71 54/299/71 62/300/71
f 62/300/71 54/299/71 56/301/71
f 62/300/71 56/301/71 145/302/71
f 145/302/71 56/301/71 146/303/71
f 145/302/71 146/303/71 133/304/71
f 133/304/71 146/303/71 105/305/71
f 133/304/71 105/305/71 134/306/71
f 134/306/71 105/305/71 67/307/71
f 134/306/71 67/307/71 139/308/71
f 139/308/71 67/307/71 66/309/71
f 139/308/71 66/309/71 107/310/71
f 107/310/71 66/309/71 81/311/71
f 107/310/71 81/311/71 108/312/71
f 108/312/71 81/311/71 143/313/71
f 108/312/71 143/313/71 111/314/71
f 92/146/46 95/145/47 130/249/66
f 72/120/34 93/143/45 70/118/34
f 93/143/45 72/120/34 91/141/45
f 151/315/72 114/316/73 116/317/72
f 114/316/73 151/315/72 150/318/73
f 136/229/60 61/109/29 121/230/60
f 61/109/29 136/229/60 64/112/29
f 122/232/61 49/97/23 51/99/23
f 49/97/23 122/232/61 138/233/61
f 98/150/49 119/319/74 152/320/74
f 119/319/74 98/150/49 97/149/49
f 152/320/74 120/321/75 148/322/75
f 120/321/75 152/320/74 119/319/74
f 135/227/58 101/154/76 129/226/58
f 101/154/76 135/227/58 100/152/76
f 147/258/70 118/228/59 115/257/70
f 118/228/59 147/258/70 137/231/59
f 82/132/40 143/247/77 81/131/40
f 143/247/77 82/132/40 128/246/77
f 141/241/64 131/250/65 144/248/65
f 131/250/65 141/241/64 132/240/64
f 150/318/73 112/323/78 114/316/73
f 112/323/78 150/318/73 149/324/78
f 124/256/68 105/159/51 146/254/68
f 105/159/51 124/256/68 104/158/51
f 149/324/19 48/325/19 112/323/19
f 48/325/19 149/324/19 45/326/19
f 140/237/63 116/317/72 117/236/63
f 116/317/72 140/237/63 151/315/72
f 148/322/22 103/157/22 102/156/22
f 103/157/22 148/322/22 120/321/22
f 77/128/38 76/124/37 73/121/35
f 125/225/57 145/327/67 133/223/57
f 145/327/67 125/225/57 123/328/67
f 46/84/1 45/83/1 48/86/1
f 48/86/1 47/85/1 46/84/1
f 42/80/1 41/79/1 44/82/1
f 44/82/1 43/81/1 42/80/1
