# Blender v2.92.0 OBJ File: 'OGConvert.blend'
# www.blender.org
o loafRound
v -1.898970 1.705772 1.265980
v -3.086838 0.426443 0.000000
v -2.182725 0.426443 1.455150
v -2.685549 1.705772 0.000000
v 1.745607 2.345437 0.000000
v 1.898970 1.705772 -1.265980
v 1.234330 2.345437 -0.822887
v 2.685549 1.705772 0.000000
v 0.000000 0.426443 2.057892
v -2.039930 -0.000000 1.359953
v 0.000000 -0.000000 1.923264
v 0.000000 1.705772 -1.790366
v 2.182725 0.426443 -1.455150
v 0.000000 0.426443 -2.057892
v 1.002006 1.705772 -1.513670
v 0.250501 1.705772 -1.721192
v 0.501003 1.705772 -1.652018
v -2.039930 0.000000 -1.359953
v -2.884896 0.000000 -0.000000
v 0.000000 0.000000 -1.923264
v 2.039930 -0.000000 1.359953
v 2.039930 0.000000 -1.359953
v 2.884896 0.000000 0.000000
v 0.501003 2.345437 1.025391
v 0.250501 2.345437 -1.094564
v 0.250501 2.345437 1.094564
v 0.501003 2.345437 -1.025390
v -1.745607 2.345437 0.000000
v -1.898970 1.705772 -1.265980
v -1.234330 2.345437 -0.822887
v -2.182725 0.426443 -1.455150
v -1.002006 1.705772 -1.513670
v -0.250501 1.705772 -1.721192
v -0.501003 1.705772 -1.652018
v 1.898970 1.705772 1.265980
v 1.234330 2.345437 0.822887
v 2.182725 0.426443 1.455150
v -0.250501 2.345437 1.094564
v -0.501003 2.345437 -1.025390
v -0.501003 2.345437 1.025391
v -0.250501 2.345437 -1.094564
v 1.002006 2.345437 -0.887042
v 1.002006 2.345437 0.887042
v 1.002006 1.705772 1.513671
v 0.501003 1.705772 1.652019
v 0.751504 2.025437 1.269695
v 0.000000 2.025437 1.477217
v 0.000000 1.705772 1.790367
v 0.250501 1.705772 1.721192
v -0.751504 2.025437 1.269695
v -1.002006 1.705772 1.513671
v -0.501003 1.705772 1.652019
v -0.250501 1.705772 1.721192
v -1.234330 2.345437 0.822887
v -1.002006 2.345437 0.887042
v 0.000000 2.025437 -1.477217
v -0.751504 2.025437 -1.269694
v -1.002006 2.345437 -0.887042
v 3.086838 0.426443 0.000000
v 0.751504 2.025437 -1.269694
vt 0.811661 0.662457
vt 0.714180 0.819041
vt 0.714180 0.661452
vt 0.811661 0.799560
vt 0.465238 0.407404
vt 0.347938 0.408550
vt 0.395206 0.352292
vt 0.455679 0.493337
vt 0.661456 0.508393
vt 0.671898 0.661958
vt 0.622623 0.518912
vt 0.766889 0.309558
vt 0.701639 0.503814
vt 0.651742 0.318581
vt 0.810299 0.470711
vt 0.543957 0.497916
vt 0.543957 0.679136
vt 0.543956 0.583514
vt 0.562273 0.497916
vt 0.562273 0.593538
vt 0.562273 0.569633
vt 0.580590 0.497916
vt 0.580590 0.569633
vt 0.580590 0.545727
vt 0.002290 0.405671
vt 0.243462 0.472269
vt 0.102186 0.513893
vt 0.343358 0.305183
vt 0.002290 0.210999
vt 0.343358 0.110511
vt 0.102186 0.043913
vt 0.243462 0.002290
vt 0.571641 0.304045
vt 0.380374 0.259584
vt 0.580513 0.281847
vt 0.384150 0.283189
vt 0.500743 0.088223
vt 0.386562 0.061327
vt 0.510302 0.002290
vt 0.420312 0.126597
vt 0.766889 0.128826
vt 0.651742 0.110843
vt 0.557694 0.497916
vt 0.557694 0.679136
vt 0.557694 0.593538
vt 0.566853 0.497916
vt 0.566853 0.593538
vt 0.566853 0.521822
vt 0.585170 0.497916
vt 0.585169 0.569633
vt 0.585169 0.521822
vt 0.661456 0.888847
vt 0.671898 0.809237
vt 0.622623 0.874476
vt 0.622623 0.317410
vt 0.622623 0.123263
vt 0.579419 0.434299
vt 0.545669 0.369029
vt 0.701639 0.002290
vt 0.810299 0.034384
vt 0.504664 0.893267
vt 0.534798 0.686447
vt 0.534798 0.879925
vt 0.504664 0.686245
vt 0.585608 0.236043
vt 0.394340 0.191582
vt 0.581831 0.212438
vt 0.385469 0.213780
vt 0.391704 0.330400
vt 0.553897 0.348442
vt 0.906633 0.061444
vt 0.825975 0.086781
vt 0.835908 0.002290
vt 0.820427 0.133974
vt 0.862223 0.108652
vt 0.904060 0.083329
vt 0.853900 0.179441
vt 0.814878 0.181166
vt 0.571432 0.545727
vt 0.571432 0.593538
vt 0.571432 0.569633
vt 0.898512 0.130522
vt 0.895738 0.154118
vt 0.895738 0.199803
vt 0.862223 0.245707
vt 0.898512 0.221892
vt 0.835908 0.348614
vt 0.548536 0.593538
vt 0.548536 0.497916
vt 0.548536 0.679136
vt 0.539377 0.631325
vt 0.539377 0.679136
vt 0.539377 0.583514
vt 0.539377 0.655231
vt 0.906633 0.286555
vt 0.904060 0.266069
vt 0.235426 0.695875
vt 0.195906 0.697765
vt 0.198910 0.674113
vt 0.244435 0.624921
vt 0.201913 0.650462
vt 0.289784 0.577443
vt 0.207919 0.603160
vt 0.218672 0.518472
vt 0.286999 0.599378
vt 0.277990 0.670332
vt 0.280993 0.646680
vt 0.570775 0.143334
vt 0.574278 0.165227
vt 0.412084 0.147185
vt 0.618044 0.087077
vt 0.099770 0.745867
vt 0.002290 0.607759
vt 0.099770 0.588278
vt 0.002290 0.744861
vt 0.198910 0.719575
vt 0.201913 0.741385
vt 0.244435 0.761306
vt 0.280993 0.737603
vt 0.277990 0.715793
vt 0.289784 0.801452
vt 0.207919 0.785006
vt 0.218672 0.863102
vt 0.286999 0.781224
vt 0.458185 0.997710
vt 0.388375 0.876161
vt 0.347938 0.967027
vt 0.191327 0.532842
vt 0.152494 0.518472
vt 0.142052 0.598081
vt 0.571432 0.497916
vt 0.576011 0.497916
vt 0.576011 0.593538
vt 0.576011 0.521822
vt 0.553115 0.497916
vt 0.553115 0.679136
vt 0.553115 0.593538
vt 0.388375 0.696052
vt 0.142052 0.745361
vt 0.458185 0.497916
vt 0.383041 0.674438
vt 0.347938 0.532206
vt 0.539377 0.497916
vt 0.152495 0.898926
vt 0.191327 0.888406
vt 0.374553 0.166195
vt 0.606714 0.192020
vt 0.359267 0.303606
vt 0.591429 0.329431
vt 0.347938 0.232790
vt 0.618044 0.262836
vn -0.8208 0.2575 0.5100
vn 0.5311 0.7804 -0.3300
vn -0.2547 -0.2911 0.9222
vn -0.2546 -0.2911 0.9222
vn 0.2609 0.1979 -0.9449
vn 0.2609 0.1976 -0.9449
vn 0.2489 0.2315 -0.9405
vn 0.2706 0.0676 -0.9603
vn 0.2852 0.0111 -0.9584
vn -0.0000 -1.0000 -0.0000
vn 0.0000 1.0000 0.0000
vn -0.5311 0.7804 -0.3300
vn -0.2609 0.1976 -0.9449
vn -0.2609 0.1979 -0.9449
vn -0.2497 0.2301 -0.9406
vn -0.2881 -0.3360 -0.8967
vn -0.7880 -0.3732 -0.4896
vn -0.2547 -0.2911 -0.9222
vn -0.2546 -0.2911 -0.9222
vn 0.5311 0.7804 0.3300
vn -0.8208 0.2575 -0.5100
vn 0.2547 -0.2911 0.9222
vn 0.2546 -0.2911 0.9222
vn 0.1935 0.6866 0.7008
vn 0.1936 0.6864 0.7010
vn 0.1936 0.6866 0.7008
vn -0.1935 0.6866 0.7008
vn -0.2292 0.6698 0.7063
vn -0.1935 0.6866 -0.7008
vn -0.5311 0.7804 0.3300
vn 0.8208 0.2575 -0.5100
vn -0.7880 -0.3732 0.4896
vn 0.1935 0.6866 -0.7008
vn 0.8208 0.2575 0.5100
vn 0.7880 -0.3732 0.4896
vn 0.2609 0.1976 0.9449
vn 0.2702 0.1644 0.9487
vn 0.2610 0.1979 0.9449
vn 0.7880 -0.3732 -0.4896
vn -0.2609 0.1976 0.9449
vn -0.2666 0.1819 0.9465
vn -0.2381 0.3357 0.9114
vn 0.2547 -0.2911 -0.9222
vn 0.2546 -0.2911 -0.9222
vn -0.7874 0.6164 0.0000
vn 0.7874 0.6164 0.0000
s 1
f 1/1/1 2/2/1 3/3/1
f 2/2/1 1/1/1 4/4/1
f 5/5/2 6/6/2 7/7/2
f 6/6/2 5/5/2 8/8/2
f 9/9/3 10/10/4 11/11/3
f 10/10/4 9/9/3 3/3/4
f 12/12/5 13/13/6 14/14/6
f 13/13/6 12/12/5 6/15/6
f 6/16/6 12/17/5 15/18/7
f 15/19/7 12/20/5 16/21/8
f 15/22/7 16/23/8 17/24/9
f 18/25/10 10/26/10 19/27/10
f 10/26/10 18/25/10 11/28/10
f 11/28/10 18/25/10 20/29/10
f 11/28/10 20/29/10 21/30/10
f 21/30/10 20/29/10 22/31/10
f 21/30/10 22/31/10 23/32/10
f 24/33/11 25/34/11 26/35/11
f 25/34/11 24/33/11 27/36/11
f 28/37/12 29/38/12 4/39/12
f 29/38/12 28/37/12 30/40/12
f 29/41/13 14/14/13 31/42/13
f 14/14/13 29/41/13 12/12/14
f 12/43/14 29/44/13 32/45/15
f 12/46/14 32/47/15 33/48/16
f 33/49/16 32/50/15 34/51/13
f 31/52/17 19/53/17 2/2/17
f 19/53/17 31/52/17 18/54/17
f 31/42/18 20/55/19 18/56/18
f 20/55/19 31/42/18 14/14/19
f 35/57/20 5/5/20 36/58/20
f 5/5/20 35/57/20 8/8/20
f 29/41/21 2/59/21 4/60/21
f 2/59/21 29/41/21 31/42/21
f 37/61/22 11/62/23 21/63/22
f 11/62/23 37/61/22 9/64/23
f 38/65/11 39/66/11 40/67/11
f 39/66/11 38/65/11 41/68/11
f 36/58/11 42/69/11 43/70/11
f 42/69/11 36/58/11 7/7/11
f 7/7/11 36/58/11 5/5/11
f 36/71/24 44/72/24 35/73/24
f 44/72/24 36/71/24 45/74/24
f 45/74/24 36/71/24 46/75/24
f 46/75/24 36/71/24 43/76/24
f 47/77/24 45/74/24 46/75/24
f 48/78/25 45/74/24 47/77/24
f 45/79/24 48/80/25 49/81/26
f 47/77/24 46/75/24 24/82/24
f 47/77/24 24/82/24 26/83/24
f 38/84/27 50/85/27 47/77/27
f 50/85/27 38/84/27 40/86/27
f 1/87/27 47/77/27 50/85/27
f 1/87/27 48/78/27 47/77/27
f 51/88/28 48/89/27 1/90/27
f 52/91/27 48/92/27 51/93/28
f 48/92/27 52/91/27 53/94/27
f 1/87/27 50/85/27 54/95/27
f 54/95/27 50/85/27 55/96/27
f 56/97/29 12/98/29 33/99/29
f 33/99/29 57/100/29 56/97/29
f 34/101/29 57/100/29 33/99/29
f 34/101/29 30/102/29 57/100/29
f 32/103/29 30/102/29 34/101/29
f 30/102/29 32/103/29 29/104/29
f 57/100/29 30/102/29 58/105/29
f 57/100/29 41/106/29 56/97/29
f 41/106/29 57/100/29 39/107/29
f 54/108/11 30/40/11 28/37/11
f 30/40/11 54/108/11 55/109/11
f 30/40/11 55/109/11 58/110/11
f 1/111/30 28/37/30 4/39/30
f 28/37/30 1/111/30 54/108/30
f 13/112/31 8/113/31 59/114/31
f 8/113/31 13/112/31 6/115/31
f 2/2/32 10/10/32 3/3/32
f 10/10/32 2/2/32 19/53/32
f 56/97/33 16/116/33 12/98/33
f 16/116/33 56/97/33 17/117/33
f 17/117/33 56/97/33 60/118/33
f 60/118/33 56/97/33 27/119/33
f 27/119/33 56/97/33 25/120/33
f 7/121/33 17/117/33 60/118/33
f 7/121/33 15/122/33 17/117/33
f 15/122/33 7/121/33 6/123/33
f 7/121/33 60/118/33 42/124/33
f 59/125/34 35/126/34 37/61/34
f 35/126/34 59/125/34 8/127/34
f 21/128/35 59/114/35 37/129/35
f 59/114/35 21/128/35 23/130/35
f 45/79/36 49/81/36 44/131/37
f 48/132/38 44/133/37 49/134/36
f 48/135/38 35/136/36 44/137/37
f 9/64/36 35/126/36 48/138/38
f 35/126/36 9/64/36 37/61/36
f 22/139/39 59/114/39 23/130/39
f 59/114/39 22/139/39 13/112/39
f 48/138/40 3/140/40 9/64/40
f 3/140/40 48/138/40 53/141/40
f 53/141/40 1/142/40 3/140/40
f 1/143/40 53/94/40 51/93/41
f 51/93/41 53/94/40 52/91/42
f 14/144/43 22/139/44 20/145/43
f 22/139/44 14/144/43 13/112/44
f 40/67/45 57/146/45 50/147/45
f 57/146/45 40/67/45 39/66/45
f 43/70/45 60/148/45 46/149/45
f 60/148/45 43/70/45 42/69/45
f 60/148/46 24/33/46 46/149/46
f 24/33/46 60/148/46 27/36/46
f 56/150/46 38/65/46 47/151/46
f 38/65/46 56/150/46 41/68/46
f 26/35/45 56/150/45 47/151/45
f 56/150/45 26/35/45 25/34/45
f 57/146/46 55/109/46 50/147/46
f 55/109/46 57/146/46 58/110/46
