# Blender v2.92.0 OBJ File: 'OGConvert.blend'
# www.blender.org
o plateRectangle
v 3.434564 1.040000 2.080000
v 2.640000 1.040000 2.874565
v 2.640000 0.320000 2.080000
v 2.640000 0.320000 -2.080000
v 3.434565 1.040000 -2.080000
v -2.640000 1.040000 -2.874565
v -2.640000 0.320000 -2.080000
v 2.640000 1.040000 -2.874565
v -2.640000 0.640000 2.080000
v -2.640000 0.320000 2.080000
v 2.640000 0.640000 2.080000
v -2.640000 1.040000 2.080000
v 2.640000 1.040000 2.080000
v 2.640000 0.640000 -2.080000
v -2.640000 0.640000 -2.080000
v 2.640000 1.040000 -2.080000
v -2.640000 1.040000 -2.080000
v -2.640000 1.040000 2.874565
v -3.434564 1.040000 -2.080000
v -3.434565 1.040000 2.080000
v -2.435537 0.000000 -1.875537
v 2.435537 -0.000000 1.875537
v -2.435537 -0.000000 1.875537
v 2.435537 0.000000 -1.875537
v -2.214390 0.640000 -1.654390
v 2.214390 0.640000 -1.654390
v -2.214390 0.640000 1.654390
v 2.214390 0.640000 1.654390
vt 0.475757 0.468948
vt 0.487817 0.404148
vt 0.545510 0.468948
vt 0.545510 0.808212
vt 0.475757 0.808212
vt 0.681942 0.834753
vt 0.751694 0.404148
vt 0.751694 0.834753
vt 0.681942 0.404148
vt 0.913768 0.404148
vt 0.888127 0.834753
vt 0.888127 0.404148
vt 0.913768 0.834753
vt 0.945820 0.404148
vt 0.945820 0.834753
vt 0.034350 0.997702
vt 0.059991 0.567098
vt 0.059991 0.997702
vt 0.034350 0.567098
vt 0.002298 0.997702
vt 0.002298 0.567098
vt 0.854787 0.404148
vt 0.785035 0.834753
vt 0.785035 0.404148
vt 0.854787 0.834753
vt 0.677347 0.808212
vt 0.607594 0.468948
vt 0.677347 0.468948
vt 0.607594 0.808212
vt 0.781672 0.002298
vt 0.475757 0.399553
vt 0.475757 0.002298
vt 0.781672 0.399553
vt 0.665287 0.873012
vt 0.101808 0.101808
vt 0.067098 0.497702
vt 0.067098 0.067098
vt 0.101808 0.462992
vt 0.371652 0.101808
vt 0.406362 0.067098
vt 0.578850 0.485623
vt 0.578850 0.791538
vt 0.786268 0.002298
vt 0.818319 0.341562
vt 0.786268 0.341562
vt 0.818319 0.002298
vt 0.843961 0.341562
vt 0.843961 0.002298
vt 0.371652 0.462992
vt 0.406362 0.497702
vt 0.406362 0.067098
vt 0.067098 0.067098
vt 0.067098 0.497702
vt 0.406362 0.497702
vt 0.665287 0.404148
vt 0.780439 0.420823
vt 0.780439 0.818078
vt 0.487817 0.873012
vt 0.874198 0.002298
vt 0.906249 0.341562
vt 0.874198 0.341562
vt 0.906249 0.002298
vt 0.848556 0.002298
vt 0.848556 0.341562
vt 0.471162 0.497702
vt 0.471162 0.067098
vt 0.406362 0.562502
vt 0.002298 0.497702
vt 0.067098 0.562502
vt 0.067098 0.002298
vt 0.406362 0.002298
vt 0.002298 0.067098
vt 0.950416 0.808213
vt 0.950416 0.404148
vt 0.950416 0.743413
vt 0.883531 0.420823
vt 0.883531 0.818078
vt 0.574254 0.485623
vt 0.574254 0.791538
vn 0.5575 -0.6152 0.5575
vn 0.6715 -0.7410 -0.0000
vn 0.0000 -0.7410 -0.6715
vn 0.0000 0.0000 -1.0000
vn 0.0000 0.0000 1.0000
vn 0.0000 -0.7410 0.6715
vn -0.6715 -0.7410 -0.0000
vn 0.0000 -1.0000 -0.0000
vn -0.5575 -0.6152 -0.5575
vn 0.0000 0.7287 0.6848
vn 0.6848 0.7287 0.0000
vn -0.8427 -0.5384 -0.0000
vn -1.0000 0.0000 0.0000
vn 0.0000 1.0000 0.0000
vn -0.6848 0.7287 0.0000
vn -0.5575 -0.6152 0.5575
vn 0.0000 -0.5384 -0.8427
vn 0.5575 -0.6152 -0.5575
vn 1.0000 0.0000 0.0000
vn -0.0660 0.9978 0.0000
vn 0.0000 -0.5384 0.8427
vn 0.0000 0.7287 -0.6848
vn 0.8427 -0.5384 -0.0000
s 1
f 1/1/1 2/2/1 3/3/1
f 4/4/2 1/1/2 3/3/2
f 1/1/2 4/4/2 5/5/2
f 6/6/3 4/7/3 7/8/3
f 4/7/3 6/6/3 8/9/3
f 9/10/4 3/11/4 10/12/4
f 3/11/4 9/10/4 11/13/4
f 12/14/4 11/13/4 9/10/4
f 11/13/4 12/14/4 13/15/4
f 14/16/5 7/17/5 4/18/5
f 7/17/5 14/16/5 15/19/5
f 16/20/5 15/19/5 14/16/5
f 15/19/5 16/20/5 17/21/5
f 10/22/6 2/23/6 18/24/6
f 2/23/6 10/22/6 3/25/6
f 19/26/7 10/27/7 20/28/7
f 10/27/7 19/26/7 7/29/7
f 21/30/8 22/31/8 23/32/8
f 22/31/8 21/30/8 24/33/8
f 6/34/9 7/29/9 19/26/9
f 25/35/10 16/36/10 17/37/10
f 16/36/10 25/35/10 26/38/10
f 27/39/11 17/37/11 12/40/11
f 17/37/11 27/39/11 25/35/11
f 7/29/12 23/41/12 10/27/12
f 23/41/12 7/29/12 21/42/12
f 16/43/13 11/44/13 13/45/13
f 11/44/13 16/43/13 14/46/13
f 14/46/13 3/47/13 11/44/13
f 3/47/13 14/46/13 4/48/13
f 28/49/14 25/35/14 27/39/14
f 25/35/14 28/49/14 26/38/14
f 27/39/14 11/50/14 28/49/14
f 28/49/14 11/50/14 26/38/14
f 27/39/14 9/51/14 11/50/14
f 9/51/14 27/39/14 15/52/14
f 25/35/14 15/52/14 27/39/14
f 15/52/14 25/35/14 14/53/14
f 14/53/14 25/35/14 26/38/14
f 14/53/14 26/38/14 11/50/14
f 13/54/15 26/38/15 28/49/15
f 26/38/15 13/54/15 16/36/15
f 10/27/16 18/55/16 20/28/16
f 7/8/17 24/56/17 21/57/17
f 24/56/17 7/8/17 4/7/17
f 5/5/18 4/4/18 8/58/18
f 15/59/19 12/60/19 9/61/19
f 12/60/19 15/59/19 17/62/19
f 9/61/19 7/63/19 15/59/19
f 7/63/19 9/61/19 10/64/19
f 2/65/14 12/40/14 18/66/14
f 12/40/14 2/65/14 13/54/14
f 13/54/14 2/65/14 1/67/14
f 13/54/14 1/67/14 16/36/14
f 16/36/14 1/67/14 8/68/14
f 8/68/14 1/67/14 5/69/14
f 19/70/14 18/66/14 12/40/14
f 18/66/14 19/70/14 20/71/14
f 19/70/14 12/40/14 6/72/14
f 6/72/14 16/36/14 8/68/14
f 6/73/14 12/74/14 17/75/20
f 6/72/14 17/37/20 16/36/14
f 3/25/21 23/76/21 22/77/21
f 23/76/21 3/25/21 10/22/21
f 13/54/22 27/39/22 12/40/22
f 27/39/22 13/54/22 28/49/22
f 22/78/23 4/4/23 3/3/23
f 4/4/23 22/78/23 24/79/23
