# Blender v2.92.0 OBJ File: 'OGConvert.blend'
# www.blender.org
o soda
v 0.767508 0.272000 0.000000
v 0.645825 2.251578 -0.645825
v 0.913335 2.251578 0.000000
v 0.542710 0.272000 -0.542710
v 0.542710 0.272000 0.542710
v 0.645825 2.251578 0.645826
v 0.000000 2.251578 0.913335
v -0.542710 0.272000 0.542710
v 0.000000 0.272000 0.767508
v -0.645825 2.251578 0.645826
v 0.000000 2.251578 -0.913335
v 0.000000 0.272000 -0.767508
v -0.645825 2.251578 -0.645825
v -0.542710 0.272000 -0.542710
v -0.767508 0.272000 0.000000
v -0.913335 2.251578 0.000000
v 0.064800 3.459579 0.064800
v -0.064800 3.459579 -0.064800
v -0.064800 3.459579 0.064800
v 0.064800 3.459579 -0.064800
v -0.045592 2.739578 0.045592
v -0.045592 2.739578 -0.045592
v 0.045592 2.739578 0.045592
v 0.045592 2.739578 -0.045592
v 0.000000 0.272000 0.660960
v -0.432749 -0.000000 0.432749
v 0.000000 -0.000000 0.612000
v -0.467369 0.272000 0.467369
v -0.718615 2.455578 -0.718615
v -0.913335 2.455578 0.000000
v -1.016275 2.455578 0.000000
v -0.645825 2.455578 -0.645825
v 0.000000 2.455578 -1.016275
v 0.000000 2.455578 -0.913335
v 0.645825 2.455578 -0.645825
v 0.718615 2.455578 -0.718615
v 0.913335 2.455578 0.000000
v 1.016275 2.455578 0.000000
v -0.718615 2.455578 0.718615
v -0.645825 2.455578 0.645826
v 0.000000 2.455578 1.016275
v 0.000000 2.455578 0.913335
v 0.645825 2.455578 0.645826
v 0.718615 2.455578 0.718615
v 0.610390 2.591578 0.000000
v 0.484956 2.659578 -0.484956
v 0.431611 2.591578 -0.431611
v 0.685831 2.659578 0.000000
v -0.610390 2.591578 0.000000
v -0.484956 2.659578 -0.484956
v -0.685831 2.659578 0.000000
v -0.431611 2.591578 -0.431611
v 0.000000 2.659578 0.685831
v -0.431611 2.591578 0.431611
v -0.484956 2.659578 0.484956
v 0.000000 2.591578 0.610390
v 0.000000 2.659578 -0.685831
v 0.000000 2.591578 -0.610390
v 0.484956 2.659578 0.484956
v 0.431611 2.591578 0.431611
v -0.245973 2.739578 0.245973
v -0.245973 2.739578 -0.245972
v -0.347858 2.739578 0.000000
v 0.000000 2.739578 0.347858
v 0.245973 2.739578 0.245973
v 0.000000 2.739578 -0.347858
v 0.245973 2.739578 -0.245972
v 0.347858 2.739578 0.000000
v -0.682684 2.659578 0.682685
v -0.965462 2.659578 0.000000
v -0.682684 2.659578 -0.682684
v 0.000000 2.659578 -0.965461
v 0.682684 2.659578 0.682685
v 0.965462 2.659578 0.000000
v 0.000000 0.272000 -0.660960
v 0.432749 0.000000 -0.432749
v 0.000000 0.000000 -0.612000
v 0.467369 0.272000 -0.467369
v 0.682684 2.659578 -0.682684
v 0.000000 2.659578 0.965462
v -0.467369 0.272000 -0.467369
v -0.432749 0.000000 -0.432749
v -0.660960 0.272000 0.000000
v -0.612000 0.000000 -0.000000
v 0.660960 0.272000 0.000000
v 0.612000 0.000000 -0.000000
v 0.432749 -0.000000 0.432749
v 0.467369 0.272000 0.467369
v -0.458283 2.591578 0.000000
v -0.324055 2.591578 0.324055
v 0.000000 2.591578 0.458283
v 0.324055 2.591578 0.324055
v 0.458283 2.591578 0.000000
v -0.324055 2.591578 -0.324055
v 0.000000 2.591578 -0.458283
v 0.324055 2.591578 -0.324055
vt 0.461401 0.392036
vt 0.344694 0.040189
vt 0.468619 0.039838
vt 0.357262 0.392331
vt 0.540809 0.392331
vt 0.563115 0.040189
vt 0.468619 0.435731
vt 0.540809 0.788224
vt 0.461401 0.787929
vt 0.563115 0.436082
vt 0.694248 0.039838
vt 0.766438 0.392331
vt 0.687030 0.392036
vt 0.788744 0.040189
vt 0.570323 0.040189
vt 0.582891 0.392331
vt 0.344694 0.436082
vt 0.357262 0.788224
vt 0.788744 0.436082
vt 0.687030 0.787929
vt 0.694248 0.435731
vt 0.766438 0.788224
vt 0.582891 0.788224
vt 0.570323 0.436082
vt 0.288493 0.857201
vt 0.311538 0.834155
vt 0.311538 0.857201
vt 0.288493 0.834155
vt 0.832467 0.754054
vt 0.813036 0.882109
vt 0.810552 0.754054
vt 0.828455 0.882109
vt 0.905232 0.131618
vt 0.887329 0.003563
vt 0.902749 0.003563
vt 0.883317 0.131618
vt 0.883317 0.138743
vt 0.901220 0.266798
vt 0.885800 0.266798
vt 0.905232 0.138743
vt 0.913287 0.466754
vt 0.895384 0.338699
vt 0.917299 0.338699
vt 0.897867 0.466754
vt 0.262872 0.737348
vt 0.311538 0.676612
vt 0.311303 0.739931
vt 0.263126 0.668964
vt 0.101366 0.337486
vt 0.232677 0.320574
vt 0.239682 0.337486
vt 0.108372 0.320574
vt 0.003563 0.239682
vt 0.020474 0.232677
vt 0.020474 0.108372
vt 0.003563 0.101366
vt 0.108372 0.020474
vt 0.101366 0.003563
vt 0.337486 0.239682
vt 0.320574 0.232677
vt 0.337486 0.101366
vt 0.320574 0.108372
vt 0.232677 0.020474
vt 0.239682 0.003563
vt 0.203713 0.603504
vt 0.115505 0.615899
vt 0.120639 0.603505
vt 0.208847 0.615899
vt 0.120639 0.402945
vt 0.049502 0.456554
vt 0.115505 0.390551
vt 0.061897 0.461688
vt 0.274850 0.456554
vt 0.203713 0.402945
vt 0.208847 0.390551
vt 0.262456 0.461688
vt 0.049502 0.549896
vt 0.061897 0.544762
vt 0.274850 0.549896
vt 0.262456 0.544762
vt 0.684538 0.828826
vt 0.603717 0.795349
vt 0.651060 0.795349
vt 0.684538 0.876170
vt 0.637981 0.848110
vt 0.631776 0.863091
vt 0.651061 0.909647
vt 0.616796 0.856885
vt 0.623001 0.841905
vt 0.570240 0.828826
vt 0.570240 0.876170
vt 0.603717 0.909647
vt 0.796240 0.492748
vt 0.832077 0.358873
vt 0.832468 0.496765
vt 0.795869 0.361750
vt 0.796240 0.242584
vt 0.832077 0.108709
vt 0.832468 0.246601
vt 0.795869 0.111587
vt 0.796240 0.261861
vt 0.832468 0.253726
vt 0.832077 0.609036
vt 0.796240 0.512025
vt 0.832468 0.503890
vt 0.795869 0.611914
vt 0.839593 0.572275
vt 0.888259 0.511538
vt 0.888024 0.574857
vt 0.839846 0.503890
vt 0.832468 0.003563
vt 0.796240 0.011698
vt 0.832468 0.746929
vt 0.796240 0.742912
vt 0.839593 0.111587
vt 0.876191 0.003563
vt 0.875801 0.108709
vt 0.839964 0.011698
vt 0.839846 0.661956
vt 0.888259 0.657896
vt 0.839963 0.242584
vt 0.876191 0.246601
vt 0.839593 0.407083
vt 0.888259 0.492705
vt 0.839846 0.496765
vt 0.888024 0.409666
vt 0.888259 0.823087
vt 0.839593 0.737466
vt 0.888024 0.740049
vt 0.839846 0.827148
vt 0.888259 0.676730
vt 0.839846 0.669081
vt 0.839846 0.338699
vt 0.888259 0.346347
vt 0.570240 0.003913
vt 0.694165 0.003563
vt 0.788661 0.003913
vt 0.694165 0.399456
vt 0.570240 0.399807
vt 0.344611 0.399807
vt 0.468536 0.399456
vt 0.563032 0.003913
vt 0.468536 0.003563
vt 0.227876 0.344611
vt 0.096476 0.344611
vt 0.320790 0.437525
vt 0.320790 0.568925
vt 0.227876 0.661839
vt 0.003563 0.437525
vt 0.003563 0.568925
vt 0.096476 0.661839
vt 0.263126 0.827030
vt 0.311538 0.822969
vt 0.344611 0.003913
vt 0.563032 0.399807
vt 0.788661 0.399807
vt 0.077426 0.921148
vt 0.174633 0.903644
vt 0.181884 0.921148
vt 0.084676 0.903644
vt 0.003563 0.847285
vt 0.021067 0.840034
vt 0.021067 0.750077
vt 0.003563 0.742827
vt 0.084676 0.686468
vt 0.077426 0.668964
vt 0.255747 0.847285
vt 0.238243 0.840034
vt 0.255747 0.742827
vt 0.238243 0.750077
vt 0.174633 0.686468
vt 0.181884 0.668964
vt 0.344611 0.937540
vt 0.486802 0.996437
vt 0.403509 0.996437
vt 0.344611 0.854246
vt 0.545700 0.937540
vt 0.403509 0.795349
vt 0.545700 0.854246
vt 0.486802 0.795349
vt 0.130990 0.427934
vt 0.193363 0.427934
vt 0.237467 0.472039
vt 0.237467 0.534411
vt 0.193363 0.578515
vt 0.086886 0.472039
vt 0.086886 0.534411
vt 0.130990 0.578515
vt 0.728922 0.848898
vt 0.755270 0.795349
vt 0.755094 0.842764
vt 0.729055 0.812908
vt 0.895384 0.527428
vt 0.921732 0.473879
vt 0.921556 0.521294
vt 0.895517 0.491438
vt 0.788567 0.842764
vt 0.762529 0.812908
vt 0.788743 0.795349
vt 0.762395 0.848898
vt 0.691796 0.812908
vt 0.717835 0.842764
vt 0.691663 0.848898
vt 0.718011 0.795349
vt 0.788743 0.904946
vt 0.762529 0.896097
vt 0.895517 0.574627
vt 0.921732 0.583476
vt 0.691796 0.896097
vt 0.718011 0.904946
vt 0.729055 0.896097
vt 0.755270 0.904946
vn 0.9217 -0.0679 -0.3818
vn 0.9217 -0.0679 0.3818
vn -0.3818 -0.0679 0.9217
vn 0.3818 -0.0679 -0.9217
vn -0.3818 -0.0679 -0.9217
vn 0.3818 -0.0679 0.9217
vn -0.9217 -0.0679 -0.3818
vn -0.9217 -0.0679 0.3818
vn 0.0000 1.0000 0.0000
vn -0.9996 -0.0267 0.0000
vn 0.0000 -0.0267 0.9996
vn 0.0000 -0.0267 -0.9996
vn 0.9996 -0.0267 0.0000
vn -0.3775 -0.1640 0.9114
vn 0.0000 -1.0000 -0.0000
vn -0.6452 0.7158 0.2672
vn 0.6452 0.7158 0.2672
vn 0.2672 0.7158 -0.6452
vn 0.2672 0.7158 0.6452
vn 0.6452 0.7158 -0.2672
vn -0.2672 0.7158 -0.6452
vn -0.2672 0.7158 0.6452
vn -0.6452 0.7158 -0.2672
vn -0.9003 0.2243 0.3729
vn -0.3729 0.2243 -0.9003
vn -0.9003 0.2243 -0.3729
vn 0.9003 0.2243 0.3729
vn 0.3775 -0.1640 -0.9114
vn 0.3729 0.2243 -0.9003
vn 0.9003 0.2243 -0.3729
vn -0.3729 0.2243 0.9003
vn -0.3775 -0.1640 -0.9114
vn 0.3729 0.2243 0.9003
vn -0.9114 -0.1640 0.3775
vn 0.9114 -0.1640 -0.3775
vn 0.9114 -0.1640 0.3775
vn -0.9114 -0.1640 -0.3775
vn -0.3827 0.0000 -0.9239
vn 0.3827 0.0000 -0.9239
vn -0.9239 -0.0000 0.3827
vn 0.3827 0.0000 0.9239
vn 0.9239 -0.0000 0.3827
vn 0.3775 -0.1640 0.9114
vn 0.9239 0.0000 -0.3827
vn -0.3827 0.0000 0.9239
vn -0.9239 0.0000 -0.3827
vn -0.3151 0.5675 0.7607
vn 0.3151 0.5675 -0.7607
vn 0.7607 0.5675 0.3151
vn -0.7607 0.5675 -0.3151
vn 0.7607 0.5675 -0.3151
vn -0.3151 0.5675 -0.7607
vn -0.7607 0.5675 0.3151
vn 0.3151 0.5675 0.7607
s 1
f 1/1/1 2/2/1 3/3/1
f 2/2/1 1/1/1 4/4/1
f 5/5/2 3/3/2 6/6/2
f 3/3/2 5/5/2 1/1/2
f 7/7/3 8/8/3 9/9/3
f 8/8/3 7/7/3 10/10/3
f 11/11/4 4/12/4 12/13/4
f 4/12/4 11/11/4 2/14/4
f 13/15/5 12/13/5 14/16/5
f 12/13/5 13/15/5 11/11/5
f 6/17/6 9/9/6 5/18/6
f 9/9/6 6/17/6 7/7/6
f 13/19/7 15/20/7 16/21/7
f 15/20/7 13/19/7 14/22/7
f 16/21/8 8/23/8 10/24/8
f 8/23/8 16/21/8 15/20/8
f 17/25/9 18/26/9 19/27/9
f 18/26/9 17/25/9 20/28/9
f 18/29/10 21/30/10 19/31/10
f 21/30/10 18/29/10 22/32/10
f 17/33/11 21/34/11 23/35/11
f 21/34/11 17/33/11 19/36/11
f 18/37/12 24/38/12 22/39/12
f 24/38/12 18/37/12 20/40/12
f 23/41/13 20/42/13 17/43/13
f 20/42/13 23/41/13 24/44/13
f 25/45/14 26/46/14 27/47/14
f 26/46/14 25/45/14 28/48/14
f 29/49/15 30/50/15 31/51/15
f 30/50/15 29/49/15 32/52/15
f 32/52/15 29/49/15 33/53/15
f 32/52/15 33/53/15 34/54/15
f 34/54/15 33/53/15 35/55/15
f 35/55/15 33/53/15 36/56/15
f 35/55/15 36/56/15 37/57/15
f 37/57/15 36/56/15 38/58/15
f 30/50/15 39/59/15 31/51/15
f 39/59/15 30/50/15 40/60/15
f 39/59/15 40/60/15 41/61/15
f 41/61/15 40/60/15 42/62/15
f 41/61/15 42/62/15 43/63/15
f 41/61/15 43/63/15 44/64/15
f 44/64/15 43/63/15 37/57/15
f 44/64/15 37/57/15 38/58/15
f 45/65/16 46/66/16 47/67/16
f 46/66/16 45/65/16 48/68/16
f 49/69/17 50/70/17 51/71/17
f 50/70/17 49/69/17 52/72/17
f 53/73/18 54/74/18 55/75/18
f 54/74/18 53/73/18 56/76/18
f 52/72/19 57/77/19 50/70/19
f 57/77/19 52/72/19 58/78/19
f 55/75/20 49/69/20 51/71/20
f 49/69/20 55/75/20 54/74/20
f 59/79/21 56/76/21 53/73/21
f 56/76/21 59/79/21 60/80/21
f 47/67/22 57/77/22 58/78/22
f 57/77/22 47/67/22 46/66/22
f 59/79/23 45/65/23 60/80/23
f 45/65/23 59/79/23 48/68/23
f 61/81/9 62/82/9 63/83/9
f 62/82/9 61/81/9 64/84/9
f 62/82/9 64/84/9 21/85/9
f 21/85/9 64/84/9 23/86/9
f 23/86/9 64/84/9 65/87/9
f 23/86/9 65/87/9 24/88/9
f 62/82/9 22/89/9 66/90/9
f 22/89/9 62/82/9 21/85/9
f 66/90/9 22/89/9 24/88/9
f 66/90/9 24/88/9 67/91/9
f 67/91/9 24/88/9 65/87/9
f 67/91/9 65/87/9 68/92/9
f 69/93/24 31/94/24 39/95/24
f 31/94/24 69/93/24 70/96/24
f 71/97/25 33/98/25 29/99/25
f 33/98/25 71/97/25 72/100/25
f 71/101/26 31/94/26 70/96/26
f 31/94/26 71/101/26 29/102/26
f 38/103/27 73/104/27 44/105/27
f 73/104/27 38/103/27 74/106/27
f 75/107/28 76/108/28 77/109/28
f 76/108/28 75/107/28 78/110/28
f 72/100/29 36/111/29 33/98/29
f 36/111/29 72/100/29 79/112/29
f 36/113/30 74/106/30 38/103/30
f 74/106/30 36/113/30 79/114/30
f 80/115/31 39/116/31 41/117/31
f 39/116/31 80/115/31 69/118/31
f 81/119/32 77/109/32 82/120/32
f 77/109/32 81/119/32 75/107/32
f 73/121/33 41/117/33 44/122/33
f 41/117/33 73/121/33 80/115/33
f 83/123/34 26/124/34 28/125/34
f 26/124/34 83/123/34 84/126/34
f 76/127/35 85/128/35 86/129/35
f 85/128/35 76/127/35 78/130/35
f 87/131/36 85/128/36 88/132/36
f 85/128/36 87/131/36 86/129/36
f 81/133/37 84/126/37 83/123/37
f 84/126/37 81/133/37 82/134/37
f 32/135/38 11/11/38 13/15/38
f 11/11/38 32/135/38 34/136/38
f 34/136/39 2/14/39 11/11/39
f 2/14/39 34/136/39 35/137/39
f 30/138/40 10/24/40 40/139/40
f 10/24/40 30/138/40 16/21/40
f 43/140/41 7/7/41 6/17/41
f 7/7/41 43/140/41 42/141/41
f 3/3/42 43/142/42 6/6/42
f 43/142/42 3/3/42 37/143/42
f 69/144/9 51/71/9 70/145/9
f 51/71/9 69/144/9 55/75/9
f 55/75/9 69/144/9 80/146/9
f 55/75/9 80/146/9 53/73/9
f 53/73/9 80/146/9 73/147/9
f 53/73/9 73/147/9 59/79/9
f 59/79/9 73/147/9 48/68/9
f 48/68/9 73/147/9 74/148/9
f 51/71/9 71/149/9 70/145/9
f 71/149/9 51/71/9 50/70/9
f 71/149/9 50/70/9 72/150/9
f 72/150/9 50/70/9 57/77/9
f 72/150/9 57/77/9 46/66/9
f 72/150/9 46/66/9 79/151/9
f 79/151/9 46/66/9 48/68/9
f 79/151/9 48/68/9 74/148/9
f 88/152/43 27/47/43 87/153/43
f 27/47/43 88/152/43 25/45/43
f 2/2/44 37/143/44 3/3/44
f 37/143/44 2/2/44 35/154/44
f 42/141/45 10/10/45 7/7/45
f 10/10/45 42/141/45 40/155/45
f 32/156/46 16/21/46 30/138/46
f 16/21/46 32/156/46 13/19/46
f 14/157/15 83/158/15 15/159/15
f 83/158/15 14/157/15 81/160/15
f 81/160/15 14/157/15 12/161/15
f 81/160/15 12/161/15 75/162/15
f 75/162/15 12/161/15 78/163/15
f 78/163/15 12/161/15 4/164/15
f 78/163/15 4/164/15 85/165/15
f 85/165/15 4/164/15 1/166/15
f 83/158/15 8/167/15 15/159/15
f 8/167/15 83/158/15 28/168/15
f 8/167/15 28/168/15 9/169/15
f 9/169/15 28/168/15 25/170/15
f 9/169/15 25/170/15 88/171/15
f 9/169/15 88/171/15 5/172/15
f 5/172/15 88/171/15 85/165/15
f 5/172/15 85/165/15 1/166/15
f 82/173/15 26/174/15 84/175/15
f 26/174/15 82/173/15 77/176/15
f 26/174/15 77/176/15 27/177/15
f 27/177/15 77/176/15 76/178/15
f 27/177/15 76/178/15 87/179/15
f 87/179/15 76/178/15 86/180/15
f 54/74/9 89/181/9 49/69/9
f 89/181/9 54/74/9 90/182/9
f 90/182/9 54/74/9 56/76/9
f 90/182/9 56/76/9 91/183/9
f 91/183/9 56/76/9 60/80/9
f 91/183/9 60/80/9 92/184/9
f 92/184/9 60/80/9 93/185/9
f 93/185/9 60/80/9 45/65/9
f 89/181/9 52/72/9 49/69/9
f 52/72/9 89/181/9 94/186/9
f 52/72/9 94/186/9 58/78/9
f 58/78/9 94/186/9 95/187/9
f 58/78/9 95/187/9 47/67/9
f 47/67/9 95/187/9 96/188/9
f 47/67/9 96/188/9 93/185/9
f 47/67/9 93/185/9 45/65/9
f 64/189/47 90/190/47 91/191/47
f 90/190/47 64/189/47 61/192/47
f 66/193/48 96/194/48 95/195/48
f 96/194/48 66/193/48 67/196/48
f 93/197/49 65/198/49 92/199/49
f 65/198/49 93/197/49 68/200/49
f 62/201/50 89/202/50 63/203/50
f 89/202/50 62/201/50 94/204/50
f 96/205/51 68/200/51 93/197/51
f 68/200/51 96/205/51 67/206/51
f 62/207/52 95/195/52 94/208/52
f 95/195/52 62/207/52 66/193/52
f 61/209/53 89/202/53 90/210/53
f 89/202/53 61/209/53 63/203/53
f 65/211/54 91/191/54 92/212/54
f 91/191/54 65/211/54 64/189/54
