# Blender v2.92.0 OBJ File: 'kenney_OGConvert.blend'
# www.blender.org
o sodaCan
v -0.063640 0.000000 -0.063640
v -0.093600 0.010000 0.000000
v -0.066185 0.010000 -0.066185
v -0.090000 -0.000000 0.000000
v 0.066185 0.010000 0.066185
v 0.090000 0.000000 -0.000000
v 0.093600 0.010000 -0.000000
v 0.063640 -0.000000 0.063640
v 0.000000 -0.000000 0.090000
v 0.000000 0.010000 0.093600
v -0.000000 0.010000 -0.093600
v 0.063640 0.000000 -0.063640
v -0.000000 0.000000 -0.090000
v 0.066185 0.010000 -0.066185
v -0.063640 -0.000000 0.063640
v -0.066185 0.010000 0.066185
v -0.070686 0.310000 0.070686
v -0.099965 0.330000 0.000000
v -0.099965 0.310000 0.000000
v -0.070686 0.330000 0.070686
v 0.000000 0.330000 0.099965
v 0.000000 0.310000 0.099965
v 0.070686 0.330000 0.070686
v 0.070686 0.310000 0.070686
v -0.070686 0.330000 -0.070686
v -0.000000 0.310000 -0.099965
v -0.070686 0.310000 -0.070686
v -0.000000 0.330000 -0.099965
v 0.070686 0.330000 -0.070686
v 0.081926 0.330000 -0.000000
v 0.099965 0.330000 -0.000000
v 0.057931 0.330000 -0.057931
v -0.000000 0.330000 -0.081926
v -0.057931 0.330000 -0.057931
v -0.081926 0.330000 0.000000
v 0.057931 0.330000 0.057931
v 0.000000 0.330000 0.081926
v -0.057931 0.330000 0.057931
v 0.070686 0.310000 -0.070686
v 0.099965 0.310000 -0.000000
v 0.049982 0.320000 0.049982
v 0.000000 0.320000 0.070686
v -0.049982 0.320000 0.049982
v 0.070686 0.320000 0.000000
v 0.049982 0.320000 -0.049982
v -0.049982 0.320000 -0.049982
v -0.000000 0.320000 -0.070686
v -0.060334 0.320000 0.024991
v -0.070686 0.320000 0.000000
v 0.027319 0.320000 -0.026028
v 0.027319 0.320000 0.026028
v 0.038100 0.320000 0.000000
v 0.025585 0.320000 0.000000
v 0.020439 0.320000 -0.012424
v -0.018288 0.320000 -0.014793
v -0.006726 0.320000 -0.005733
v 0.020439 0.320000 0.012424
v -0.018288 0.320000 0.014793
v -0.006726 0.320000 0.005733
v 0.112320 0.280000 -0.000000
v 0.079422 0.280000 -0.079422
v 0.000000 0.280000 0.112320
v 0.079422 0.280000 0.079422
v -0.112320 0.280000 0.000000
v -0.079422 0.280000 0.079422
v -0.079422 0.280000 -0.079422
v -0.000000 0.280000 -0.112320
v -0.048288 0.320000 -0.014792
v -0.048288 0.320000 0.014793
v 0.079422 0.030000 0.079422
v 0.000000 0.030000 0.112320
v -0.000000 0.030000 -0.112320
v 0.079422 0.030000 -0.079422
v -0.079422 0.030000 -0.079422
v 0.112320 0.030000 -0.000000
v -0.112320 0.030000 0.000000
v -0.079422 0.030000 0.079422
vt 0.213205 0.553968
vt 0.134071 0.538146
vt 0.218766 0.537273
vt 0.131768 0.554807
vt 0.468766 0.537273
vt 0.381768 0.554807
vt 0.384071 0.538146
vt 0.463205 0.553968
vt 0.514295 0.538146
vt 0.631768 0.554807
vt 0.516599 0.554807
vt 0.634071 0.538146
vt 0.884071 0.538146
vt 0.963205 0.553968
vt 0.881768 0.554807
vt 0.968766 0.537273
vt 0.016599 0.554807
vt 0.014295 0.538146
vt 0.266599 0.554807
vt 0.264295 0.538146
vt 0.764295 0.538146
vt 0.766599 0.554807
vt 0.713205 0.553968
vt 0.718766 0.537273
vt 0.010223 0.036687
vt 0.138144 0.003250
vt 0.138144 0.036687
vt 0.010223 0.003250
vt 0.638144 0.003250
vt 0.728598 0.035755
vt 0.638144 0.036687
vt 0.728598 0.002318
vt 0.510223 0.003250
vt 0.510223 0.036687
vt 0.760223 0.003250
vt 0.888144 0.036687
vt 0.760223 0.036687
vt 0.888144 0.003250
vt 0.002317 0.777817
vt 0.104313 0.840407
vt 0.092771 0.868271
vt 0.030182 0.766276
vt 0.002317 0.649896
vt 0.030182 0.661438
vt 0.104313 0.587306
vt 0.092771 0.559442
vt 0.209151 0.587306
vt 0.220692 0.559442
vt 0.220692 0.868271
vt 0.209151 0.840407
vt 0.311146 0.777817
vt 0.283282 0.766276
vt 0.283282 0.661438
vt 0.311146 0.649896
vt 0.228598 0.002318
vt 0.228598 0.035755
vt 0.593825 0.640880
vt 0.397218 0.559442
vt 0.512388 0.559442
vt 0.593825 0.756049
vt 0.315781 0.640880
vt 0.512388 0.837486
vt 0.315781 0.756049
vt 0.397218 0.837486
vt 0.978598 0.035755
vt 0.978598 0.002318
vt 0.388144 0.003250
vt 0.260223 0.036687
vt 0.260223 0.003250
vt 0.388144 0.036687
vt 0.478598 0.002318
vt 0.478598 0.035755
vt 0.201959 0.823044
vt 0.265919 0.759084
vt 0.265919 0.668630
vt 0.111505 0.823044
vt 0.047544 0.759084
vt 0.111505 0.604669
vt 0.047544 0.668630
vt 0.233939 0.636650
vt 0.201959 0.604669
vt 0.099047 0.739403
vt 0.179457 0.772710
vt 0.132354 0.772710
vt 0.140362 0.753378
vt 0.124463 0.737479
vt 0.145584 0.676142
vt 0.152180 0.699800
vt 0.162846 0.753378
vt 0.191283 0.695072
vt 0.169890 0.707135
vt 0.396049 0.087040
vt 0.252318 0.087040
vt 0.646049 0.087040
vt 0.502318 0.087040
vt 0.146049 0.087040
vt 0.002318 0.087040
vt 0.247683 0.085992
vt 0.997683 0.085992
vt 0.896049 0.087040
vt 0.752318 0.087040
vt 0.747683 0.085992
vt 0.497683 0.085992
vt 0.164778 0.629802
vt 0.210478 0.648731
vt 0.502318 0.505007
vt 0.646049 0.505007
vt 0.632011 0.703174
vt 0.660928 0.571420
vt 0.660928 0.691196
vt 0.632011 0.559442
vt 0.752318 0.505007
vt 0.896049 0.505007
vt 0.396049 0.505007
vt 0.252318 0.505007
vt 0.694479 0.703174
vt 0.665563 0.571420
vt 0.694479 0.559442
vt 0.665563 0.691196
vt 0.699114 0.691196
vt 0.728031 0.559442
vt 0.728031 0.703174
vt 0.699114 0.571420
vt 0.002317 0.505007
vt 0.146049 0.505007
vt 0.627376 0.559443
vt 0.598460 0.691196
vt 0.598460 0.571420
vt 0.627376 0.703174
vt 0.497683 0.503959
vt 0.247682 0.503959
vt 0.747683 0.503959
vt 0.997683 0.503959
vn -0.8767 -0.3156 -0.3631
vn 0.8767 -0.3156 0.3631
vn 0.3631 -0.3156 0.8767
vn 0.3631 -0.3156 -0.8767
vn -0.8767 -0.3156 0.3631
vn 0.8767 -0.3156 -0.3631
vn -0.3631 -0.3156 -0.8767
vn -0.3631 -0.3156 0.8767
vn -0.9239 0.0000 0.3827
vn -0.3827 -0.0000 0.9239
vn 0.3827 0.0000 0.9239
vn -0.3827 0.0000 -0.9239
vn 0.0000 1.0000 -0.0000
vn -0.9239 0.0000 -0.3827
vn -0.0000 -1.0000 -0.0000
vn 0.3827 0.0000 -0.9239
vn 0.9239 0.0000 -0.3827
vn 0.9239 -0.0000 0.3827
vn -0.2654 0.7203 -0.6408
vn 0.2654 0.7203 -0.6408
vn -0.6408 0.7203 0.2654
vn 0.2654 0.7203 0.6408
vn -0.2654 0.7203 0.6408
vn 0.6408 0.7203 -0.2654
vn 0.6408 0.7203 0.2654
vn -0.6408 0.7203 -0.2654
vn 0.8635 0.3556 -0.3577
vn 0.3577 0.3556 0.8635
vn -0.8635 0.3556 0.3577
vn -0.8635 0.3556 -0.3577
vn 0.3577 0.3556 -0.8635
vn -0.3577 0.3556 -0.8635
vn -0.3577 0.3556 0.8635
vn 0.8635 0.3556 0.3577
vn 0.2895 -0.6541 0.6988
vn 0.2895 -0.6541 -0.6988
vn -0.2895 -0.6541 -0.6988
vn 0.6988 -0.6541 -0.2895
vn 0.6988 -0.6541 0.2895
vn -0.6988 -0.6541 -0.2895
vn -0.6988 -0.6541 0.2895
vn -0.2895 -0.6541 0.6988
s 1
f 1/1/1 2/2/1 3/3/1
f 2/2/1 1/1/1 4/4/1
f 5/5/2 6/6/2 7/7/2
f 6/6/2 5/5/2 8/8/2
f 5/9/3 9/10/3 8/11/3
f 9/10/3 5/9/3 10/12/3
f 11/13/4 12/14/4 13/15/4
f 12/14/4 11/13/4 14/16/4
f 15/17/5 2/2/5 4/4/5
f 2/2/5 15/17/5 16/18/5
f 7/7/6 12/19/6 14/20/6
f 12/19/6 7/7/6 6/6/6
f 3/21/7 13/15/7 1/22/7
f 13/15/7 3/21/7 11/13/7
f 10/12/8 15/23/8 9/10/8
f 15/23/8 10/12/8 16/24/8
f 17/25/9 18/26/9 19/27/9
f 18/26/9 17/25/9 20/28/9
f 21/29/10 17/30/10 22/31/10
f 17/30/10 21/29/10 20/32/10
f 23/33/11 22/31/11 24/34/11
f 22/31/11 23/33/11 21/29/11
f 25/35/12 26/36/12 27/37/12
f 26/36/12 25/35/12 28/38/12
f 29/39/13 30/40/13 31/41/13
f 30/40/13 29/39/13 32/42/13
f 32/42/13 29/39/13 28/43/13
f 32/42/13 28/43/13 33/44/13
f 33/44/13 28/43/13 34/45/13
f 34/45/13 28/43/13 25/46/13
f 34/45/13 25/46/13 35/47/13
f 35/47/13 25/46/13 18/48/13
f 30/40/13 23/49/13 31/41/13
f 23/49/13 30/40/13 36/50/13
f 23/49/13 36/50/13 21/51/13
f 21/51/13 36/50/13 37/52/13
f 21/51/13 37/52/13 38/53/13
f 21/51/13 38/53/13 20/54/13
f 20/54/13 38/53/13 35/47/13
f 20/54/13 35/47/13 18/48/13
f 19/27/14 25/55/14 27/56/14
f 25/55/14 19/27/14 18/26/14
f 8/57/15 12/58/15 6/59/15
f 12/58/15 8/57/15 9/60/15
f 12/58/15 9/60/15 13/61/15
f 13/61/15 9/60/15 15/62/15
f 13/61/15 15/62/15 1/63/15
f 1/63/15 15/62/15 4/64/15
f 28/38/16 39/65/16 26/36/16
f 39/65/16 28/38/16 29/66/16
f 31/67/17 39/68/17 29/69/17
f 39/68/17 31/67/17 40/70/17
f 23/71/18 40/70/18 31/67/18
f 40/70/18 23/71/18 24/72/18
f 41/73/19 37/52/19 36/50/19
f 37/52/19 41/73/19 42/74/19
f 43/75/20 37/52/20 42/74/20
f 37/52/20 43/75/20 38/53/20
f 32/42/21 44/76/21 30/40/21
f 44/76/21 32/42/21 45/77/21
f 33/44/22 46/78/22 47/79/22
f 46/78/22 33/44/22 34/45/22
f 33/44/23 45/77/23 32/42/23
f 45/77/23 33/44/23 47/79/23
f 48/80/24 38/53/24 43/75/24
f 38/53/24 48/80/24 35/47/24
f 35/47/24 48/80/24 49/81/24
f 34/45/25 49/81/25 46/78/25
f 49/81/25 34/45/25 35/47/25
f 44/76/26 36/50/26 30/40/26
f 36/50/26 44/76/26 41/73/26
f 50/82/13 51/83/13 52/84/13
f 51/83/13 50/82/13 53/85/13
f 53/85/13 50/82/13 54/86/13
f 54/86/13 50/82/13 55/87/13
f 54/86/13 55/87/13 56/88/13
f 57/89/13 51/83/13 53/85/13
f 51/83/13 57/89/13 58/90/13
f 58/90/13 56/88/13 55/87/13
f 58/90/13 57/89/13 59/91/13
f 58/90/13 59/91/13 56/88/13
f 39/68/27 60/92/27 61/93/27
f 60/92/27 39/68/27 40/70/27
f 24/34/28 62/94/28 63/95/28
f 62/94/28 24/34/28 22/31/28
f 64/96/29 17/25/29 19/27/29
f 17/25/29 64/96/29 65/97/29
f 64/96/30 27/56/30 66/98/30
f 27/56/30 64/96/30 19/27/30
f 26/36/31 61/99/31 67/100/31
f 61/99/31 26/36/31 39/65/31
f 27/37/32 67/100/32 66/101/32
f 67/100/32 27/37/32 26/36/32
f 22/31/33 65/102/33 62/94/33
f 65/102/33 22/31/33 17/30/33
f 24/72/34 60/92/34 40/70/34
f 60/92/34 24/72/34 63/103/34
f 45/77/13 41/73/13 44/76/13
f 41/73/13 45/77/13 52/84/13
f 52/84/13 45/77/13 50/82/13
f 50/82/13 45/77/13 47/79/13
f 50/82/13 47/79/13 55/87/13
f 55/87/13 47/79/13 46/78/13
f 55/87/13 46/78/13 68/104/13
f 68/104/13 46/78/13 69/105/13
f 51/83/13 41/73/13 52/84/13
f 41/73/13 51/83/13 42/74/13
f 42/74/13 51/83/13 58/90/13
f 42/74/13 58/90/13 43/75/13
f 43/75/13 58/90/13 69/105/13
f 43/75/13 69/105/13 46/78/13
f 43/75/13 46/78/13 48/80/13
f 48/80/13 46/78/13 49/81/13
f 70/106/35 10/12/35 5/9/35
f 10/12/35 70/106/35 71/107/35
f 72/108/36 14/109/36 11/110/36
f 14/109/36 72/108/36 73/111/36
f 74/112/37 11/13/37 3/21/37
f 11/13/37 74/112/37 72/113/37
f 75/114/38 14/20/38 73/115/38
f 14/20/38 75/114/38 7/7/38
f 70/116/39 7/117/39 75/118/39
f 7/117/39 70/116/39 5/119/39
f 3/120/40 76/121/40 74/122/40
f 76/121/40 3/120/40 2/123/40
f 2/2/41 77/124/41 76/125/41
f 77/124/41 2/2/41 16/18/41
f 71/126/42 16/127/42 10/128/42
f 16/127/42 71/126/42 77/129/42
f 54/86/13 57/89/13 53/85/13
f 57/89/13 54/86/13 56/88/13
f 57/89/13 56/88/13 59/91/13
f 63/103/18 75/114/18 60/92/18
f 75/114/18 63/103/18 70/130/18
f 77/124/9 64/96/9 76/125/9
f 64/96/9 77/124/9 65/97/9
f 60/92/17 73/115/17 61/93/17
f 73/115/17 60/92/17 75/114/17
f 76/125/14 66/98/14 74/131/14
f 66/98/14 76/125/14 64/96/14
f 66/101/12 72/113/12 74/112/12
f 72/113/12 66/101/12 67/100/12
f 62/94/10 77/132/10 71/107/10
f 77/132/10 62/94/10 65/102/10
f 67/100/16 73/133/16 72/113/16
f 73/133/16 67/100/16 61/99/16
f 63/95/11 71/107/11 70/106/11
f 71/107/11 63/95/11 62/94/11
f 68/104/13 58/90/13 55/87/13
f 58/90/13 68/104/13 69/105/13
