# Blender v2.92.0 OBJ File: 'kenney_OGConvert.blend'
# www.blender.org
o sodaGlass
v -0.055000 0.000000 -0.095263
v -0.055000 -0.000000 0.095263
v -0.110000 0.000000 0.000000
v 0.055000 0.000000 -0.095263
v 0.055000 -0.000000 0.095263
v 0.110000 0.000000 -0.000000
v -0.110000 0.030000 0.000000
v -0.055000 0.030000 0.095263
v -0.130900 0.340000 0.000000
v -0.062201 0.243618 0.107735
v -0.065450 0.340000 0.113363
v -0.124121 0.239443 0.000000
v 0.065450 0.340000 0.113363
v 0.062201 0.243618 0.107735
v -0.065450 0.340000 -0.113363
v -0.062201 0.243618 -0.107735
v -0.108885 0.340000 0.000000
v -0.054442 0.340000 0.094297
v 0.054442 0.340000 0.094297
v 0.108885 0.340000 -0.000000
v 0.130900 0.340000 -0.000000
v -0.054442 0.340000 -0.094297
v 0.065450 0.340000 -0.113363
v 0.054442 0.340000 -0.094297
v -0.055000 0.030000 -0.095263
v 0.055000 0.030000 -0.095263
v 0.055000 0.030000 0.095263
v 0.110000 0.030000 -0.000000
v 0.124402 0.243618 -0.000000
v -0.048454 0.280000 -0.083924
v -0.096908 0.280000 0.000000
v 0.048454 0.280000 0.083924
v 0.096908 0.280000 -0.000000
v -0.048454 0.280000 0.083924
v 0.048454 0.280000 -0.083924
v 0.062201 0.243618 -0.107735
v -0.015000 0.270718 0.063363
v 0.015000 0.270718 0.143363
v -0.015000 0.270718 0.143363
v 0.015000 0.270718 0.063363
v -0.015000 0.291353 0.131449
v -0.015000 0.340000 0.183363
v -0.015000 0.340000 0.159536
v -0.015000 0.409282 0.143363
v -0.015000 0.388647 0.131449
v -0.015000 0.388647 0.075276
v -0.015000 0.291353 0.075276
v -0.015000 0.340000 0.023363
v -0.015000 0.340000 0.047190
v -0.015000 0.409282 0.063363
v 0.015000 0.409282 0.063363
v 0.015000 0.340000 0.023363
v 0.015000 0.409282 0.143363
v 0.015000 0.340000 0.183363
v 0.015000 0.291353 0.075276
v 0.015000 0.340000 0.047190
v 0.015000 0.388647 0.075276
v 0.015000 0.388647 0.131449
v 0.015000 0.291353 0.131449
v 0.015000 0.340000 0.159536
v 0.014669 0.408404 -0.104964
v 0.017911 0.251958 -0.046263
v 0.014669 0.413438 -0.086176
v 0.017911 0.248602 -0.058789
v 0.034120 0.413438 -0.086176
v 0.030879 0.251958 -0.046263
v 0.030879 0.248602 -0.058789
v 0.034120 0.408404 -0.104964
vt 0.003580 0.524021
vt 0.127200 0.737682
vt 0.003580 0.666613
vt 0.127200 0.452498
vt 0.250819 0.666158
vt 0.250819 0.523566
vt 0.150748 0.042530
vt 0.274456 0.003979
vt 0.274455 0.042929
vt 0.150748 0.003580
vt 0.150739 0.444863
vt 0.290646 0.320224
vt 0.297951 0.445337
vt 0.150742 0.314356
vt 0.606543 0.452343
vt 0.772279 0.575345
vt 0.610761 0.575345
vt 0.776498 0.452343
vt 0.003580 0.445337
vt 0.010888 0.320224
vt 0.599382 0.537320
vt 0.452247 0.480926
vt 0.452247 0.452343
vt 0.574637 0.551612
vt 0.599382 0.707275
vt 0.574637 0.692983
vt 0.452247 0.763669
vt 0.452247 0.792252
vt 0.305111 0.537320
vt 0.329857 0.551612
vt 0.305111 0.707275
vt 0.329857 0.692983
vt 0.616534 0.405888
vt 0.759353 0.444539
vt 0.616534 0.444539
vt 0.759353 0.405888
vt 0.620111 0.847964
vt 0.762930 0.886557
vt 0.620111 0.886557
vt 0.762930 0.847964
vt 0.441541 0.003580
vt 0.330633 0.042731
vt 0.330651 0.003781
vt 0.441524 0.042531
vt 0.027086 0.042929
vt 0.027086 0.003979
vt 0.574932 0.003781
vt 0.574914 0.042731
vt 0.313046 0.320056
vt 0.437071 0.444943
vt 0.305111 0.445182
vt 0.438455 0.319829
vt 0.861780 0.931680
vt 0.783659 0.836404
vt 0.861603 0.833988
vt 0.783857 0.946170
vt 0.783659 0.574796
vt 0.861997 0.683735
vt 0.784053 0.697205
vt 0.861645 0.574791
vt 0.861780 0.716474
vt 0.783857 0.704366
vt 0.305111 0.940784
vt 0.384118 0.807188
vt 0.384118 0.933009
vt 0.305111 0.799413
vt 0.602966 0.003580
vt 0.768703 0.128662
vt 0.607185 0.128662
vt 0.772921 0.003580
vt 0.391279 0.940784
vt 0.466917 0.807188
vt 0.466917 0.933009
vt 0.391279 0.799413
vt 0.861997 0.465808
vt 0.784053 0.452343
vt 0.589310 0.320056
vt 0.595806 0.445182
vt 0.221489 0.933493
vt 0.112535 0.744842
vt 0.221489 0.807705
vt 0.112535 0.996420
vt 0.003580 0.807768
vt 0.003580 0.933557
vt 0.520189 0.799413
vt 0.559140 0.903061
vt 0.520189 0.903061
vt 0.559140 0.799413
vt 0.780082 0.055514
vt 0.806873 0.070983
vt 0.780082 0.159383
vt 0.870033 0.003580
vt 0.870033 0.034517
vt 0.959984 0.055515
vt 0.933193 0.070983
vt 0.933193 0.143915
vt 0.806873 0.143915
vt 0.870033 0.211317
vt 0.870033 0.180381
vt 0.959984 0.159383
vt 0.257979 0.535338
vt 0.296930 0.452498
vt 0.296930 0.535338
vt 0.257979 0.452498
vt 0.474078 0.799413
vt 0.513028 0.903246
vt 0.474078 0.903246
vt 0.513028 0.799413
vt 0.296930 0.631023
vt 0.257979 0.631023
vt 0.296930 0.734330
vt 0.257980 0.816438
vt 0.257980 0.734330
vt 0.296930 0.816438
vt 0.257980 0.638183
vt 0.296930 0.638183
vt 0.869171 0.425608
vt 0.869171 0.394762
vt 0.958260 0.374775
vt 0.780082 0.372876
vt 0.806616 0.357736
vt 0.780082 0.269311
vt 0.806616 0.285017
vt 0.869171 0.249324
vt 0.931726 0.359069
vt 0.958260 0.271210
vt 0.931726 0.286350
vt 0.869171 0.218478
vt 0.869157 0.668245
vt 0.890213 0.452343
vt 0.894412 0.668244
vt 0.873376 0.452343
vt 0.869157 0.675405
vt 0.890203 0.890144
vt 0.873366 0.890144
vt 0.894412 0.675405
vt 0.250819 0.761679
vt 0.234307 0.744842
vt 0.250819 0.744842
vt 0.234307 0.761679
vt 0.907807 0.452343
vt 0.926536 0.667876
vt 0.901572 0.667876
vt 0.924449 0.452343
vt 0.901573 0.675405
vt 0.922618 0.888706
vt 0.905782 0.888706
vt 0.926827 0.675405
vt 0.566301 0.799413
vt 0.590856 0.824668
vt 0.566301 0.824668
vt 0.590856 0.799413
vn -0.0000 -1.0000 -0.0000
vn -0.8660 -0.0000 0.5000
vn -0.8646 -0.0583 0.4991
vn -0.8646 -0.0583 0.4992
vn 0.0000 -0.0583 0.9983
vn -0.8646 -0.0583 -0.4991
vn 0.0000 1.0000 -0.0000
vn -0.0000 0.0000 -1.0000
vn 0.0000 0.0000 1.0000
vn 0.8660 0.0000 0.5000
vn -0.8660 0.0000 -0.5000
vn 0.8660 -0.0000 -0.5000
vn 0.8646 -0.0583 0.4991
vn 0.8534 0.1704 0.4927
vn -0.8534 0.1704 -0.4927
vn 0.8534 0.1704 -0.4927
vn 0.0000 0.1704 0.9854
vn -0.0000 -0.0583 -0.9983
vn -0.0000 0.1704 -0.9854
vn -0.8534 0.1704 0.4927
vn 0.8646 -0.0583 -0.4992
vn -1.0000 0.0000 0.0000
vn -0.0000 0.5000 -0.8660
vn -0.0000 -0.5000 -0.8660
vn 0.0000 -0.5000 0.8660
vn 0.0000 0.5000 0.8660
vn 1.0000 0.0000 -0.0000
vn -0.9994 -0.0343 0.0092
vn 0.0000 0.2244 0.9745
vn 0.0000 -0.9659 0.2588
vn 0.9994 -0.0343 0.0092
vn -0.0000 -0.2929 -0.9561
vn 0.0000 0.9659 -0.2588
s 1
f 1/1/1 2/2/1 3/3/1
f 2/2/1 1/1/1 4/4/1
f 2/2/1 4/4/1 5/5/1
f 5/5/1 4/4/1 6/6/1
f 7/7/2 2/8/2 8/9/2
f 2/8/2 7/7/2 3/10/2
f 9/11/3 10/12/3 11/13/4
f 10/12/3 9/11/3 12/14/3
f 13/15/5 10/16/5 14/17/5
f 10/16/5 13/15/5 11/18/5
f 15/19/6 12/14/6 9/11/6
f 12/14/6 15/19/6 16/20/6
f 11/21/7 17/22/7 9/23/7
f 17/22/7 11/21/7 18/24/7
f 18/24/7 11/21/7 13/25/7
f 18/24/7 13/25/7 19/26/7
f 19/26/7 13/25/7 20/27/7
f 20/27/7 13/25/7 21/28/7
f 17/22/7 15/29/7 9/23/7
f 15/29/7 17/22/7 22/30/7
f 15/29/7 22/30/7 23/31/7
f 23/31/7 22/30/7 24/32/7
f 23/31/7 20/27/7 21/28/7
f 23/31/7 24/32/7 20/27/7
f 25/33/8 4/34/8 1/35/8
f 4/34/8 25/33/8 26/36/8
f 27/37/9 2/38/9 5/39/9
f 2/38/9 27/37/9 8/40/9
f 6/41/10 27/42/10 5/43/10
f 27/42/10 6/41/10 28/44/10
f 25/45/11 3/10/11 7/7/11
f 3/10/11 25/45/11 1/46/11
f 4/47/12 28/44/12 6/41/12
f 28/44/12 4/47/12 26/48/12
f 14/49/13 21/50/13 13/51/13
f 21/50/13 14/49/13 29/52/13
f 30/53/14 17/54/14 31/55/14
f 17/54/14 30/53/14 22/56/14
f 20/57/15 32/58/15 19/59/15
f 32/58/15 20/57/15 33/60/15
f 34/61/16 17/54/16 18/62/16
f 17/54/16 34/61/16 31/55/16
f 24/63/17 30/64/17 35/65/17
f 30/64/17 24/63/17 22/66/17
f 15/67/18 36/68/18 16/69/18
f 36/68/18 15/67/18 23/70/18
f 18/71/19 32/72/19 34/73/19
f 32/72/19 18/71/19 19/74/19
f 20/57/20 35/75/20 33/60/20
f 35/75/20 20/57/20 24/76/20
f 36/77/21 21/50/21 29/52/21
f 21/50/21 36/77/21 23/78/21
f 34/79/7 30/80/7 31/81/7
f 30/80/7 34/79/7 32/82/7
f 30/80/7 32/82/7 35/83/7
f 35/83/7 32/82/7 33/84/7
f 14/17/5 8/40/5 27/37/5
f 8/40/5 14/17/5 10/16/5
f 12/14/3 8/9/3 10/12/3
f 8/9/3 12/14/3 7/7/4
f 27/42/13 29/52/13 14/49/13
f 29/52/13 27/42/13 28/44/13
f 16/69/18 26/36/18 25/33/18
f 26/36/18 16/69/18 36/68/18
f 28/44/21 36/77/21 29/52/21
f 36/77/21 28/44/21 26/48/21
f 16/20/6 7/7/6 12/14/6
f 7/7/6 16/20/6 25/45/6
f 37/85/1 38/86/1 39/87/1
f 38/86/1 37/85/1 40/88/1
f 39/89/22 41/90/22 37/91/22
f 41/90/22 39/89/22 42/92/22
f 41/90/22 42/92/22 43/93/22
f 43/93/22 42/92/22 44/94/22
f 43/93/22 44/94/22 45/95/22
f 45/95/22 44/94/22 46/96/22
f 47/97/22 37/91/22 41/90/22
f 37/91/22 47/97/22 48/98/22
f 48/98/22 47/97/22 49/99/22
f 48/98/22 49/99/22 46/96/22
f 48/98/22 46/96/22 50/100/22
f 50/100/22 46/96/22 44/94/22
f 48/101/23 51/102/23 52/103/23
f 51/102/23 48/101/23 50/104/23
f 51/105/7 44/106/7 53/107/7
f 44/106/7 51/105/7 50/108/7
f 40/109/24 48/101/24 52/103/24
f 48/101/24 40/109/24 37/110/24
f 42/111/25 38/112/25 54/113/25
f 38/112/25 42/111/25 39/114/25
f 53/115/26 42/111/26 54/113/26
f 42/111/26 53/115/26 44/116/26
f 40/117/27 55/118/27 38/119/27
f 55/118/27 40/117/27 52/120/27
f 55/118/27 52/120/27 56/121/27
f 56/121/27 52/120/27 51/122/27
f 56/121/27 51/122/27 57/123/27
f 57/123/27 51/122/27 58/124/27
f 59/125/27 38/119/27 55/118/27
f 38/119/27 59/125/27 54/126/27
f 54/126/27 59/125/27 60/127/27
f 54/126/27 60/127/27 58/124/27
f 54/126/27 58/124/27 53/128/27
f 53/128/27 58/124/27 51/122/27
f 43/93/22 47/97/22 41/90/22
f 47/97/22 43/93/22 49/99/22
f 49/99/22 43/93/22 45/95/22
f 49/99/22 45/95/22 46/96/22
f 56/121/27 59/125/27 55/118/27
f 59/125/27 56/121/27 60/127/27
f 60/127/27 56/121/27 57/123/27
f 60/127/27 57/123/27 58/124/27
f 61/129/28 62/130/28 63/131/28
f 62/130/28 61/129/28 64/132/28
f 65/133/29 62/134/29 66/135/29
f 62/134/29 65/133/29 63/136/29
f 67/137/30 62/138/30 64/139/30
f 62/138/30 67/137/30 66/140/30
f 66/141/31 68/142/31 65/143/31
f 68/142/31 66/141/31 67/144/31
f 61/145/32 67/146/32 64/147/32
f 67/146/32 61/145/32 68/148/32
f 65/149/33 61/150/33 63/151/33
f 61/150/33 65/149/33 68/152/33
