# Blender v2.92.0 OBJ File: 'kenney_OGConvert.blend'
# www.blender.org
o taco
v -0.212800 0.049363 -0.057000
v 0.212800 0.000000 -0.028500
v -0.212800 0.000000 -0.028500
v 0.212800 0.049363 -0.057000
v 0.106400 0.233654 0.057000
v 0.000000 0.262163 0.035150
v 0.000000 0.262163 0.057000
v 0.106400 0.233654 0.035150
v 0.212800 0.049363 0.057000
v 0.184290 0.155763 0.035150
v 0.184290 0.155763 0.057000
v 0.212800 0.049363 0.035150
v -0.212800 0.049363 0.035150
v -0.176033 0.049363 -0.035150
v -0.212800 0.049363 -0.035150
v -0.176033 0.049363 0.035150
v 0.212800 -0.000000 0.028500
v 0.212800 0.049363 -0.035150
v -0.212800 -0.000000 0.028500
v -0.212800 0.049363 0.057000
v 0.184290 0.155763 -0.035150
v 0.176033 0.049363 -0.035150
v 0.152449 0.137380 -0.035150
v 0.120233 0.169596 -0.035150
v 0.106400 0.233654 -0.035150
v 0.088017 0.201813 -0.035150
v -0.000000 0.225396 -0.035150
v -0.106400 0.233654 -0.035150
v -0.088017 0.201813 -0.035150
v -0.120233 0.169596 -0.035150
v -0.184290 0.155763 -0.035150
v -0.152449 0.137380 -0.035150
v -0.000000 0.262163 -0.035150
v -0.184290 0.155763 -0.057000
v 0.184290 0.155763 -0.057000
v 0.106400 0.233654 -0.057000
v -0.106400 0.233654 -0.057000
v -0.000000 0.262163 -0.057000
v -0.184290 0.155763 0.035150
v -0.152449 0.137380 0.035150
v -0.120233 0.169596 0.035150
v -0.106400 0.233654 0.035150
v -0.088017 0.201813 0.035150
v 0.000000 0.225396 0.035150
v 0.088017 0.201813 0.035150
v 0.120233 0.169596 0.035150
v 0.152449 0.137380 0.035150
v 0.176033 0.049363 0.035150
v -0.106400 0.233654 0.057000
v -0.184290 0.155763 0.057000
v 0.046255 0.220870 0.029894
v 0.005914 0.223812 0.003996
v 0.044288 0.213529 0.029894
v 0.007881 0.231153 0.003996
v -0.029041 0.225483 0.003653
v -0.023924 0.226854 -0.010594
v -0.015280 0.229170 0.008951
v -0.010162 0.230542 -0.005296
v 0.050141 0.211961 0.020599
v 0.052109 0.219302 0.020599
v 0.030147 0.217319 -0.028549
v 0.032114 0.224660 -0.028549
v 0.019765 0.220101 -0.017801
v 0.021732 0.227442 -0.017801
v 0.049938 0.212016 -0.023384
v 0.061187 0.216870 -0.028932
v 0.059220 0.209529 -0.028932
v 0.051905 0.219357 -0.023384
v 0.136341 0.153488 0.017575
v 0.136341 0.153488 -0.017575
v -0.030465 0.217234 -0.018705
v -0.036688 0.223434 -0.028889
v -0.032432 0.224575 -0.018705
v -0.034721 0.216093 -0.028889
v -0.012913 0.229805 0.029872
v -0.054387 0.218692 0.006880
v -0.057161 0.217948 0.017598
v -0.010139 0.230548 0.019154
v -0.074472 0.213310 0.000129
v -0.078729 0.212169 -0.010054
v 0.013734 0.229585 -0.005300
v 0.011767 0.222244 -0.005300
v -0.027074 0.218142 0.003653
v -0.013313 0.221829 0.008951
v 0.040528 0.214537 -0.017801
v 0.030147 0.217319 -0.007053
v 0.042495 0.221878 -0.017801
v 0.032114 0.224660 -0.007053
v -0.083400 0.203049 0.014714
v -0.076762 0.204828 -0.010054
v -0.070685 0.206456 0.007114
v -0.072505 0.205969 0.000129
v -0.052420 0.211351 0.006880
v -0.063344 0.208423 0.020278
v -0.055194 0.210607 0.017598
v -0.008172 0.223207 0.019154
v -0.008195 0.223201 -0.005296
v -0.076059 0.205016 0.027878
v -0.010946 0.222464 0.029872
v -0.021957 0.219513 -0.010594
v 0.072842 0.205878 0.017686
v 0.082124 0.203391 0.012138
v -0.136341 0.153488 0.017575
v -0.136341 0.153488 -0.017575
v 0.074809 0.213219 0.017686
v 0.084091 0.210732 0.012138
v -0.085367 0.210390 0.014714
v -0.072652 0.213797 0.007114
v -0.065311 0.215764 0.020278
v -0.078026 0.212358 0.027878
vt 0.562094 0.496779
vt 0.620377 0.004822
vt 0.620377 0.498380
vt 0.562094 0.003221
vt 0.308661 0.844884
vt 0.283289 0.722371
vt 0.308661 0.722371
vt 0.283289 0.844884
vt 0.136488 0.738700
vt 0.110181 0.611313
vt 0.135542 0.611079
vt 0.111127 0.738934
vt 0.523813 0.614222
vt 0.566487 0.695854
vt 0.523813 0.695854
vt 0.566487 0.614222
vt 0.104227 0.795233
vt 0.029528 0.739686
vt 0.038066 0.795843
vt 0.004167 0.739920
vt 0.250152 0.496779
vt 0.308661 0.004800
vt 0.308661 0.498358
vt 0.250152 0.003221
vt 0.249890 0.562062
vt 0.241748 0.504800
vt 0.275252 0.561879
vt 0.168291 0.562650
vt 0.175587 0.505277
vt 0.142930 0.562833
vt 0.111127 0.505034
vt 0.136488 0.504800
vt 0.750284 0.963951
vt 0.873749 0.954141
vt 0.873749 0.996779
vt 0.771616 0.926985
vt 0.734232 0.889696
vt 0.659901 0.873795
vt 0.696849 0.852406
vt 0.669482 0.750387
vt 0.659901 0.627016
vt 0.696849 0.648265
vt 0.734232 0.610833
vt 0.750284 0.536517
vt 0.771616 0.573402
vt 0.873749 0.503221
vt 0.873749 0.545858
vt 0.626818 0.750468
vt 0.438599 0.463905
vt 0.438599 0.036471
vt 0.348193 0.126936
vt 0.348193 0.373716
vt 0.315103 0.250376
vt 0.750314 0.463905
vt 0.873809 0.454141
vt 0.873809 0.496779
vt 0.771651 0.426947
vt 0.734259 0.389644
vt 0.659909 0.373716
vt 0.696866 0.352340
vt 0.669493 0.250311
vt 0.659909 0.126936
vt 0.626818 0.250376
vt 0.696866 0.148199
vt 0.734259 0.110781
vt 0.750314 0.036471
vt 0.771651 0.073364
vt 0.873810 0.003221
vt 0.873810 0.045858
vt 0.283289 0.597891
vt 0.308661 0.597891
vt 0.517371 0.722392
vt 0.491999 0.597913
vt 0.517371 0.597913
vt 0.491999 0.722392
vt 0.517371 0.844905
vt 0.491999 0.844905
vt 0.517371 0.504822
vt 0.491999 0.504822
vt 0.126686 0.463951
vt 0.126686 0.036517
vt 0.036303 0.373795
vt 0.036303 0.127016
vt 0.003221 0.250468
vt 0.572929 0.614222
vt 0.615603 0.695854
vt 0.572929 0.695854
vt 0.615603 0.614222
vt 0.168291 0.686403
vt 0.142930 0.686586
vt 0.946439 0.497423
vt 0.880251 0.003221
vt 0.946439 0.003221
vt 0.880251 0.497423
vt 0.003221 0.612299
vt 0.028582 0.612065
vt 0.283289 0.504800
vt 0.308661 0.504800
vt 0.004167 0.506020
vt 0.029528 0.505786
vt 0.275252 0.685632
vt 0.249890 0.685815
vt 0.532634 0.702295
vt 0.523813 0.746729
vt 0.523813 0.702443
vt 0.532634 0.746582
vt 0.485557 0.723097
vt 0.468325 0.723403
vt 0.485557 0.705503
vt 0.468325 0.705809
vt 0.233436 0.751224
vt 0.241085 0.764672
vt 0.233436 0.762615
vt 0.241085 0.753281
vt 0.550708 0.714247
vt 0.551233 0.727235
vt 0.541891 0.714262
vt 0.542415 0.727250
vt 0.200657 0.751807
vt 0.209473 0.763420
vt 0.200657 0.763227
vt 0.209473 0.752001
vt 0.605411 0.607193
vt 0.523813 0.607781
vt 0.605411 0.504822
vt 0.523813 0.505410
vt 0.485166 0.548780
vt 0.484775 0.592738
vt 0.464571 0.570947
vt 0.423772 0.571323
vt 0.403176 0.593490
vt 0.403568 0.549532
vt 0.485557 0.504822
vt 0.403959 0.505574
vt 0.435733 0.751400
vt 0.426932 0.762815
vt 0.426932 0.751128
vt 0.435733 0.763088
vt 0.175060 0.746894
vt 0.162199 0.693027
vt 0.175060 0.693202
vt 0.162199 0.746719
vt 0.485557 0.698310
vt 0.403959 0.699062
vt 0.155758 0.693027
vt 0.142930 0.747109
vt 0.142930 0.693281
vt 0.155758 0.746854
vt 0.412030 0.752386
vt 0.420468 0.762201
vt 0.412030 0.763507
vt 0.420468 0.751080
vt 0.461884 0.705503
vt 0.461884 0.721792
vt 0.453071 0.705684
vt 0.453071 0.721973
vt 0.542412 0.733692
vt 0.551233 0.733869
vt 0.542412 0.746888
vt 0.551233 0.747066
vt 0.338834 0.703739
vt 0.347659 0.688864
vt 0.367594 0.695972
vt 0.355769 0.690992
vt 0.377639 0.641808
vt 0.347930 0.667494
vt 0.332373 0.680275
vt 0.335485 0.670739
vt 0.351678 0.637842
vt 0.333678 0.615728
vt 0.345526 0.621743
vt 0.362069 0.615755
vt 0.315103 0.606167
vt 0.323548 0.695151
vt 0.315103 0.709140
vt 0.321232 0.618974
vt 0.396735 0.606167
vt 0.396735 0.709139
vt 0.389464 0.646788
vt 0.368221 0.631855
vt 0.256340 0.745617
vt 0.247526 0.693161
vt 0.256340 0.693027
vt 0.247526 0.745751
vt 0.426909 0.722412
vt 0.426909 0.705703
vt 0.435713 0.722211
vt 0.435713 0.705503
vt 0.224736 0.762776
vt 0.216289 0.752057
vt 0.224736 0.751013
vt 0.216289 0.763819
vt 0.351280 0.599358
vt 0.321206 0.555172
vt 0.315103 0.504822
vt 0.332000 0.548433
vt 0.335382 0.522294
vt 0.341824 0.511606
vt 0.396735 0.504822
vt 0.389070 0.571455
vt 0.376590 0.583409
vt 0.362073 0.592618
vt 0.389515 0.537979
vt 0.376590 0.559501
vt 0.383072 0.548666
vt 0.364109 0.571455
vt 0.335511 0.766895
vt 0.315103 0.747643
vt 0.376327 0.766895
vt 0.396735 0.747643
vt 0.315103 0.786147
vt 0.396735 0.786147
vt 0.200657 0.745366
vt 0.209481 0.693027
vt 0.209481 0.745320
vt 0.200657 0.693072
vt 0.566487 0.747156
vt 0.557674 0.702559
vt 0.566487 0.702295
vt 0.557674 0.747420
vt 0.215923 0.693027
vt 0.224736 0.744572
vt 0.215923 0.744405
vt 0.224736 0.693194
vt 0.611853 0.504822
vt 0.620289 0.553587
vt 0.611853 0.552274
vt 0.620289 0.506136
vt 0.611853 0.576808
vt 0.611853 0.560029
vt 0.620329 0.577570
vt 0.620329 0.560791
vt 0.598667 0.749430
vt 0.607161 0.762525
vt 0.598667 0.761991
vt 0.607161 0.749964
vt 0.485557 0.751798
vt 0.476735 0.763218
vt 0.476735 0.751698
vt 0.485557 0.763318
vt 0.181501 0.693027
vt 0.194216 0.746977
vt 0.181501 0.746476
vt 0.194216 0.693529
vt 0.461877 0.763245
vt 0.453072 0.750852
vt 0.461877 0.750712
vt 0.453072 0.763385
vt 0.275252 0.747990
vt 0.262781 0.693027
vt 0.275252 0.693493
vt 0.262781 0.747524
vt 0.580570 0.750845
vt 0.572929 0.704379
vt 0.580570 0.702295
vt 0.572929 0.752928
vt 0.607161 0.742929
vt 0.598338 0.742989
vt 0.607161 0.726763
vt 0.598338 0.726823
vt 0.551233 0.702295
vt 0.542415 0.702311
vt 0.241085 0.693078
vt 0.232261 0.744732
vt 0.232261 0.693027
vt 0.241085 0.744783
vt 0.435733 0.744686
vt 0.426910 0.744617
vt 0.435733 0.728922
vt 0.426909 0.728853
vt 0.476759 0.744897
vt 0.476759 0.729844
vt 0.485557 0.745257
vt 0.485557 0.730204
vt 0.611853 0.600606
vt 0.611853 0.585381
vt 0.620252 0.599237
vt 0.620252 0.584012
vt 0.403176 0.723036
vt 0.403176 0.705503
vt 0.420468 0.723443
vt 0.420468 0.705910
vt 0.598338 0.719577
vt 0.598338 0.702295
vt 0.615603 0.720322
vt 0.615603 0.703040
vt 0.461883 0.728641
vt 0.461883 0.744270
vt 0.453071 0.728414
vt 0.453071 0.744043
vt 0.412220 0.729885
vt 0.420468 0.732092
vt 0.412220 0.742431
vt 0.420468 0.744639
vn -0.0000 -0.5000 -0.8660
vn 0.2588 0.9659 -0.0000
vn 0.9659 0.2588 -0.0000
vn 0.0000 1.0000 0.0000
vn -0.5974 0.3498 0.7216
vn -0.4388 0.8986 0.0000
vn 1.0000 0.0000 -0.0000
vn 0.0000 -0.5000 0.8660
vn -1.0000 0.0000 0.0000
vn 0.7071 0.7071 -0.0000
vn 0.0000 -0.0000 1.0000
vn 0.6032 0.7861 0.1349
vn 0.4656 0.2047 0.8610
vn 0.5000 0.5000 0.7071
vn 0.2829 0.3022 0.9103
vn 0.0894 0.4158 0.9051
vn -0.2509 0.5017 0.8278
vn -0.5000 0.5000 0.7071
vn -0.4100 0.3009 0.8610
vn -0.0000 0.0000 -1.0000
vn -0.8583 0.2300 -0.4587
vn -0.4656 0.2047 -0.8610
vn -0.5000 0.5000 -0.7071
vn -0.2973 0.3867 -0.8730
vn -0.0936 0.4041 -0.9099
vn 0.2509 0.5017 -0.8278
vn 0.5000 0.5000 -0.7071
vn 0.5523 0.3189 -0.7703
vn 0.5974 0.3498 -0.7216
vn -0.2588 0.9659 0.0000
vn -0.7071 0.7071 0.0000
vn -0.9659 0.2588 0.0000
vn -0.0000 -1.0000 -0.0000
vn -0.5275 0.1413 0.8377
vn -0.0190 0.9801 0.1974
vn -0.3784 0.5187 0.7667
vn 0.5065 0.8393 -0.1974
vn 0.8092 -0.2168 0.5461
vn 0.5355 0.8208 0.1987
vn -0.6830 0.1830 -0.7071
vn -0.0766 0.9956 0.0530
vn -0.4830 0.1294 -0.8660
vn 0.1195 0.9496 -0.2897
vn 0.0470 0.9943 -0.0962
vn 0.8865 0.2375 -0.3971
vn 0.5079 0.8065 -0.3026
vn -0.8092 0.2168 -0.5461
vn 0.0065 0.9799 -0.1994
vn -0.3367 -0.0902 0.9373
vn 0.6830 -0.1830 0.7071
vn -0.6171 0.7711 -0.1570
vn -0.2298 0.9135 0.3358
vn -0.4400 0.8185 -0.3693
vn -0.4342 0.8587 0.2722
vn -0.0533 0.9608 -0.2722
vn 0.0415 0.9928 0.1127
vn -0.3964 0.8325 -0.3870
vn -0.2500 -0.0670 0.9659
vn 0.9053 0.2426 0.3486
vn -0.8865 -0.2375 0.3971
vn 0.3713 0.8822 0.2897
vn 0.6319 0.7671 0.1104
vn 0.2500 0.0670 -0.9659
vn 0.5275 -0.1413 -0.8377
vn 0.3836 0.1028 0.9178
vn -0.8365 0.2241 0.5000
vn -0.9053 -0.2426 -0.3486
vn -0.9330 -0.2500 -0.2588
vn 0.4830 -0.1294 0.8660
vn 0.9330 0.2500 0.2588
vn 0.8365 -0.2241 -0.5000
vn 0.3367 0.0902 -0.9373
vn 0.6830 -0.1830 -0.7071
vn -0.3836 -0.1028 -0.9178
vn -0.4830 -0.1294 -0.8660
vn 0.8365 0.2241 -0.5000
vn -0.8365 -0.2241 0.5000
vn 0.4830 0.1294 0.8660
vn -0.6830 0.1830 0.7071
s 1
f 1/1/1 2/2/1 3/3/1
f 2/2/1 1/1/1 4/4/1
f 5/5/2 6/6/2 7/7/2
f 6/6/2 5/5/2 8/8/2
f 9/9/3 10/10/3 11/11/3
f 10/10/3 9/9/3 12/12/3
f 13/13/4 14/14/4 15/15/4
f 14/14/5 13/13/4 16/16/6
f 17/17/7 12/12/7 9/9/7
f 12/12/7 17/17/7 18/18/7
f 18/18/7 17/17/7 2/19/7
f 18/18/7 2/19/7 4/20/7
f 9/21/8 19/22/8 17/23/8
f 19/22/8 9/21/8 20/24/8
f 13/25/9 19/26/9 20/27/9
f 19/26/9 13/25/9 15/28/9
f 19/26/9 15/28/9 3/29/9
f 3/29/9 15/28/9 1/30/9
f 11/11/10 8/31/10 5/32/10
f 8/31/10 11/11/10 10/10/10
f 21/33/11 22/34/11 18/35/11
f 22/34/12 21/33/11 23/36/13
f 23/36/13 21/33/11 24/37/14
f 24/37/14 21/33/11 25/38/11
f 24/37/14 25/38/11 26/39/15
f 26/39/15 25/38/11 27/40/16
f 28/41/11 27/40/16 25/38/11
f 28/41/11 29/42/17 27/40/16
f 28/41/11 30/43/18 29/42/17
f 31/44/11 30/43/18 28/41/11
f 31/44/11 32/45/19 30/43/18
f 15/46/11 32/45/19 31/44/11
f 32/45/19 15/46/11 14/47/5
f 28/41/11 25/38/11 33/48/11
f 34/49/20 4/4/20 1/1/20
f 4/4/20 34/49/20 35/50/20
f 35/50/20 34/49/20 36/51/20
f 36/51/20 34/49/20 37/52/20
f 36/51/20 37/52/20 38/53/20
f 39/54/20 16/55/20 13/56/20
f 16/55/21 39/54/20 40/57/22
f 40/57/22 39/54/20 41/58/23
f 41/58/23 39/54/20 42/59/20
f 41/58/23 42/59/20 43/60/24
f 43/60/24 42/59/20 44/61/25
f 44/61/25 42/59/20 8/62/20
f 8/62/20 42/59/20 6/63/20
f 8/62/20 45/64/26 44/61/25
f 8/62/20 46/65/27 45/64/26
f 10/66/20 46/65/27 8/62/20
f 10/66/20 47/67/28 46/65/27
f 12/68/20 47/67/28 10/66/20
f 47/67/28 12/68/20 48/69/29
f 7/7/30 42/70/30 49/71/30
f 42/70/30 7/7/30 6/6/30
f 33/72/30 37/73/30 28/74/30
f 37/73/30 33/72/30 38/75/30
f 25/76/2 38/75/2 33/72/2
f 38/75/2 25/76/2 36/77/2
f 31/78/31 37/73/31 34/79/31
f 37/73/31 31/78/31 28/74/31
f 11/80/11 20/24/11 9/21/11
f 20/24/11 11/80/11 50/81/11
f 50/81/11 11/80/11 5/82/11
f 50/81/11 5/82/11 49/83/11
f 49/83/11 5/82/11 7/84/11
f 48/85/29 18/86/4 22/87/12
f 18/86/4 48/85/4 12/88/4
f 31/89/32 1/30/32 15/28/32
f 1/30/32 31/89/32 34/90/32
f 2/91/33 19/92/33 3/93/33
f 19/92/33 2/91/33 17/94/33
f 18/18/3 35/95/3 21/96/3
f 35/95/3 18/18/3 4/20/3
f 49/71/31 39/97/31 50/98/31
f 39/97/31 49/71/31 42/70/31
f 21/96/10 36/99/10 25/100/10
f 36/99/10 21/96/10 35/95/10
f 50/101/32 13/25/32 20/27/32
f 13/25/32 50/101/32 39/102/32
f 51/103/34 52/104/35 53/105/36
f 52/104/35 51/103/34 54/106/34
f 55/107/30 57/108/30 56/109/30
f 58/110/30 56/109/30 57/108/30
f 59/111/37 51/112/38 53/113/39
f 51/112/38 59/111/38 60/114/38
f 61/115/40 63/116/40 62/117/40
f 64/118/40 62/117/40 63/116/40
f 65/119/41 66/120/42 67/121/43
f 66/120/42 65/119/42 68/122/42
f 40/123/22 32/124/32 16/125/21
f 14/126/5 16/125/6 32/124/19
f 46/127/27 47/128/28 69/129/10
f 70/130/10 69/129/10 47/128/28
f 69/129/10 70/130/10 46/127/27
f 23/131/10 70/130/10 47/128/28
f 70/130/10 23/131/13 24/132/14
f 70/130/10 24/132/14 46/127/27
f 46/127/27 24/132/14 45/133/26
f 26/134/15 45/133/10 24/132/14
f 71/135/44 72/136/45 73/137/45
f 72/136/45 71/135/44 74/138/46
f 75/139/30 76/140/30 77/141/30
f 76/140/30 75/139/30 78/142/30
f 47/128/28 48/143/29 23/131/13
f 22/144/12 23/131/13 48/143/29
f 79/145/30 72/146/30 80/147/30
f 72/146/30 79/145/30 73/148/30
f 81/149/47 52/150/47 54/151/47
f 52/150/35 81/149/47 82/152/48
f 83/153/49 84/154/49 55/155/49
f 57/156/49 55/155/49 84/154/49
f 85/157/50 87/158/50 86/159/50
f 88/160/50 86/159/50 87/158/50
f 89/161/30 91/162/30 90/163/51
f 92/164/52 90/163/51 91/162/30
f 71/165/44 92/164/52 91/162/30
f 93/166/53 71/165/44 91/162/30
f 94/167/30 93/166/53 91/162/30
f 95/168/54 93/166/53 94/167/30
f 83/169/30 71/165/44 93/166/53
f 96/170/55 83/169/30 93/166/53
f 84/171/30 83/169/30 96/170/55
f 97/172/30 84/171/30 96/170/55
f 95/168/54 94/167/30 44/173/25
f 94/167/30 98/174/30 44/173/25
f 89/161/30 43/175/30 98/174/30
f 44/173/25 98/174/30 43/175/24
f 99/176/56 95/168/54 44/173/25
f 96/170/55 99/176/56 44/173/25
f 27/177/30 96/170/55 44/173/25
f 96/170/55 27/177/30 97/172/30
f 89/161/30 90/163/51 29/178/17
f 43/175/30 89/161/30 29/178/17
f 27/177/16 29/178/17 74/179/57
f 71/165/44 27/177/30 74/179/46
f 90/163/51 74/179/57 29/178/17
f 100/180/30 27/177/30 71/165/44
f 97/172/30 27/177/30 100/180/30
f 83/169/30 100/180/30 71/165/44
f 99/181/56 77/182/58 95/183/54
f 77/182/58 99/181/58 75/184/58
f 84/185/59 97/186/59 57/187/59
f 58/188/59 57/187/59 97/186/59
f 80/189/60 92/190/60 79/191/60
f 92/190/52 80/189/60 90/192/51
f 52/193/35 44/173/2 53/194/36
f 45/195/26 53/194/39 44/173/25
f 59/196/37 53/194/39 45/195/26
f 101/197/61 59/196/37 45/195/26
f 102/198/62 101/197/61 45/195/26
f 26/199/2 102/198/62 45/195/26
f 44/173/2 52/193/35 27/177/16
f 26/199/15 27/177/16 61/200/2
f 63/201/2 61/200/2 27/177/16
f 82/202/48 63/201/2 27/177/16
f 52/193/35 82/202/48 27/177/16
f 82/202/48 59/196/37 63/201/2
f 67/203/43 26/199/2 61/200/2
f 102/198/62 26/199/2 67/203/43
f 85/204/2 67/203/43 61/200/2
f 65/205/41 67/203/43 85/204/2
f 65/205/41 85/204/2 59/196/37
f 101/197/61 65/205/41 59/196/37
f 86/206/2 63/201/2 59/196/37
f 85/204/2 86/206/2 59/196/37
f 103/207/31 41/208/23 104/209/31
f 30/210/18 104/209/31 41/208/23
f 29/178/17 30/210/18 41/208/23
f 43/175/24 29/178/31 41/208/23
f 40/211/22 41/208/23 103/207/31
f 103/207/31 104/209/31 40/211/31
f 30/210/18 32/212/19 104/209/31
f 40/211/31 104/209/31 32/212/19
f 76/213/63 96/214/55 93/215/53
f 96/214/55 76/213/63 78/216/63
f 82/217/48 60/218/64 59/219/37
f 60/218/64 82/217/64 81/220/64
f 71/221/44 79/222/65 92/223/52
f 79/222/65 71/221/65 73/224/65
f 68/225/66 101/226/66 105/227/66
f 101/226/61 68/225/66 65/228/41
f 55/229/67 56/230/67 83/231/67
f 100/232/67 83/231/67 56/230/67
f 76/233/68 95/234/68 77/235/68
f 95/234/54 76/233/68 93/236/53
f 106/237/69 101/238/61 102/239/62
f 101/238/61 106/237/69 105/240/69
f 51/241/2 81/242/2 54/243/2
f 81/242/2 51/241/2 60/244/2
f 96/245/55 75/246/70 99/247/56
f 75/246/70 96/245/70 78/248/70
f 105/249/2 66/250/2 68/251/2
f 66/250/2 105/249/2 106/252/2
f 67/253/43 106/254/71 102/255/62
f 106/254/71 67/253/71 66/256/71
f 100/257/72 56/258/72 97/259/72
f 58/260/72 97/259/72 56/258/72
f 85/261/73 61/115/73 87/262/73
f 62/117/73 87/262/73 61/115/73
f 80/263/74 74/264/57 90/265/51
f 74/264/57 80/263/74 72/266/74
f 89/267/75 107/268/75 91/269/75
f 108/270/75 91/269/75 107/268/75
f 94/271/76 91/272/76 109/273/76
f 108/274/76 109/273/76 91/272/76
f 110/275/77 107/276/77 98/277/77
f 89/278/77 98/277/77 107/276/77
f 107/279/30 110/280/30 108/281/30
f 109/282/30 108/281/30 110/280/30
f 64/283/2 88/284/2 62/285/2
f 87/286/2 62/285/2 88/284/2
f 98/287/78 94/288/78 110/289/78
f 109/290/78 110/289/78 94/288/78
f 86/291/79 88/292/79 63/293/79
f 64/294/79 63/293/79 88/292/79
