# Blender v2.92.0 OBJ File: 'kenney_OGConvert.blend'
# www.blender.org
o utensilFork
v 0.078719 -0.000000 0.013030
v -0.136686 0.017800 -0.026664
v -0.136686 0.017800 0.026664
v 0.078719 0.000000 -0.013031
v -0.230645 0.000000 -0.030830
v -0.230645 -0.000000 0.030831
v -0.251738 0.000000 0.000000
v 0.123242 -0.000000 0.042000
v 0.123242 0.000000 -0.042000
v 0.153738 -0.000000 0.016800
v 0.158738 -0.000000 0.025200
v 0.241738 -0.000000 0.042000
v 0.241738 -0.000000 0.025200
v 0.251738 -0.000000 0.033600
v 0.153738 0.000000 -0.016800
v 0.158738 -0.000000 0.008400
v 0.158738 0.000000 -0.008400
v 0.241738 -0.000000 0.008400
v 0.241738 0.000000 -0.008400
v 0.251738 0.000000 -0.000000
v 0.158738 0.000000 -0.025200
v 0.241738 0.000000 -0.042000
v 0.241738 0.000000 -0.025200
v 0.251738 0.000000 -0.033600
vt 0.109625 0.343776
vt 0.136682 0.770929
vt 0.030845 0.770929
vt 0.057903 0.343776
vt 0.144952 0.957731
vt 0.022576 0.957731
vt 0.083764 0.999592
vt 0.167120 0.255416
vt 0.000408 0.255416
vt 0.117106 0.194896
vt 0.133777 0.184973
vt 0.167120 0.020254
vt 0.133777 0.020254
vt 0.150449 0.000408
vt 0.050422 0.194896
vt 0.100435 0.184973
vt 0.067093 0.184973
vt 0.100435 0.020254
vt 0.067093 0.020254
vt 0.083764 0.000408
vt 0.033750 0.184973
vt 0.000408 0.020254
vt 0.033750 0.020254
vt 0.017079 0.000408
vn -0.0824 -0.9966 -0.0000
vn 0.1861 -0.9825 -0.0000
vn -0.0000 -1.0000 -0.0000
s 1
f 1/1/1 3/2/1 2/3/1
f 2/3/1 4/4/1 1/1/1
f 3/2/2 6/5/2 5/6/2
f 5/6/2 2/3/2 3/2/2
f 5/6/3 6/5/3 7/7/3
f 8/8/3 1/1/3 4/4/3
f 4/4/3 9/9/3 8/8/3
f 9/9/3 10/10/3 8/8/3
f 10/10/3 11/11/3 8/8/3
f 11/11/3 12/12/3 8/8/3
f 11/11/3 13/13/3 12/12/3
f 13/13/3 14/14/3 12/12/3
f 15/15/3 10/10/3 9/9/3
f 16/16/3 10/10/3 15/15/3
f 15/15/3 17/17/3 16/16/3
f 17/17/3 18/18/3 16/16/3
f 17/17/3 19/19/3 18/18/3
f 19/19/3 20/20/3 18/18/3
f 21/21/3 15/15/3 9/9/3
f 9/9/3 22/22/3 21/21/3
f 22/22/3 23/23/3 21/21/3
f 22/22/3 24/24/3 23/23/3
