# Blender v2.92.0 OBJ File: 'kenney_OGConvert.blend'
# www.blender.org
o whisk
v 0.064592 0.116914 0.038105
v 0.302318 0.116914 0.038105
v 0.095705 0.116914 0.038105
v 0.316705 0.134534 0.055726
v 0.362205 0.078808 -0.000000
v 0.333431 0.078808 -0.000000
v 0.302318 0.040703 -0.038105
v 0.316705 0.023082 -0.055726
v 0.064592 0.040703 -0.038105
v 0.095705 0.023082 -0.055726
v 0.050205 0.023082 -0.055726
v 0.004705 0.078808 0.000000
v 0.033479 0.078808 -0.000000
v 0.050205 0.134534 0.055726
v 0.095705 0.134534 0.055726
v 0.095705 0.040703 -0.038105
v 0.050205 0.134534 -0.055726
v 0.064592 0.116914 -0.038105
v 0.095705 0.134534 -0.055726
v 0.095705 0.116914 -0.038105
v 0.316705 0.134534 -0.055726
v 0.302318 0.116914 -0.038105
v 0.050205 0.023082 0.055726
v 0.064592 0.040703 0.038105
v 0.095705 0.023082 0.055726
v 0.095705 0.040703 0.038105
v 0.302318 0.040703 0.038105
v 0.316705 0.023082 0.055726
v 0.012421 0.078808 -0.013365
v -0.115295 0.078808 0.022488
v -0.115295 0.078808 -0.022488
v 0.012422 0.078808 0.013365
v 0.050205 0.078808 -0.078808
v 0.064592 0.078808 -0.053889
v 0.095705 0.078808 -0.078808
v 0.095705 0.078808 -0.053889
v 0.316705 0.078808 -0.078808
v 0.302318 0.078808 -0.053889
v 0.050205 0.078808 0.078808
v 0.064592 0.078808 0.053889
v 0.095705 0.078808 0.078808
v 0.095705 0.078808 0.053889
v 0.302318 0.078808 0.053889
v 0.316705 0.078808 0.078808
v 0.064592 0.132697 -0.000000
v 0.302318 0.132697 -0.000000
v 0.095705 0.132697 -0.000000
v 0.316705 0.157617 -0.000000
v 0.302318 0.024919 -0.000000
v 0.316705 0.000000 -0.000000
v 0.064592 0.024919 -0.000000
v 0.095705 0.000000 -0.000000
v 0.050205 -0.000000 -0.000000
v 0.050205 0.157617 -0.000000
v 0.095705 0.157617 -0.000000
v 0.095705 0.024919 -0.000000
v -0.337005 0.088808 -0.032488
v -0.362205 0.068808 0.000000
v -0.362205 0.088808 0.000000
v -0.337005 0.068808 -0.032488
v -0.115295 0.071008 -0.025341
v -0.337005 0.068808 0.032488
v -0.115295 0.071008 0.025341
v -0.115295 0.086608 0.025341
v -0.337005 0.088808 0.032488
v -0.115295 0.086608 -0.025341
vt 0.952552 0.001816
vt 0.952552 0.497852
vt 0.952552 0.066736
vt 0.282540 0.903137
vt 0.245772 0.873149
vt 0.245772 0.377103
vt 0.166260 0.998184
vt 0.166260 0.938142
vt 0.086749 0.873293
vt 0.049981 0.903347
vt 0.086749 0.377247
vt 0.049981 0.442201
vt 0.049981 0.347259
vt 0.166260 0.252212
vt 0.166260 0.312254
vt 0.282540 0.347049
vt 0.282540 0.441991
vt 0.461252 0.462656
vt 0.461252 0.462656
vt 0.461252 0.462656
vt 0.049981 0.347049
vt 0.086749 0.377103
vt 0.049981 0.441991
vt 0.086749 0.442024
vt 0.049981 0.903137
vt 0.086749 0.873149
vt 0.282540 0.347259
vt 0.245772 0.377247
vt 0.282540 0.442201
vt 0.245772 0.442168
vt 0.245772 0.873293
vt 0.282540 0.903347
vt 0.138372 0.268314
vt 0.119336 0.001816
vt 0.213185 0.001816
vt 0.194149 0.268314
vt 0.001816 0.347154
vt 0.053814 0.377175
vt 0.001816 0.442096
vt 0.053814 0.442096
vt 0.001816 0.903242
vt 0.053814 0.873221
vt 0.330705 0.347154
vt 0.278707 0.377175
vt 0.330705 0.442096
vt 0.278707 0.442096
vt 0.278707 0.873221
vt 0.330705 0.903242
vt 0.945286 0.001816
vt 0.945286 0.066736
vt 0.945286 0.497852
vt 0.663226 0.060006
vt 0.611228 0.382433
vt 0.611228 0.078406
vt 0.498781 0.001816
vt 0.498781 0.038616
vt 0.386335 0.078406
vt 0.334337 0.060006
vt 0.386335 0.382433
vt 0.334337 0.342643
vt 0.334337 0.400833
vt 0.498781 0.459023
vt 0.498781 0.422223
vt 0.663226 0.400833
vt 0.663226 0.342643
vt 0.948919 0.497852
vt 0.948919 0.066736
vt 0.948919 0.001816
vt 0.376070 0.513027
vt 0.334337 0.462656
vt 0.376070 0.462656
vt 0.334337 0.513027
vt 0.787526 0.517046
vt 0.666858 0.054398
vt 0.802440 0.054398
vt 0.681772 0.517046
vt 0.734649 0.001816
vt 0.926740 0.517031
vt 0.806072 0.054399
vt 0.941654 0.054399
vt 0.820986 0.517031
vt 0.338928 0.975895
vt 0.371479 0.975895
vt 0.425068 0.462656
vt 0.457619 0.568409
vt 0.425068 0.568409
vt 0.457619 0.462656
vt 0.416845 0.820210
vt 0.379703 0.548449
vt 0.421435 0.548449
vt 0.384293 0.820210
vt 0.873863 0.001816
vt 0.379703 0.462656
vt 0.421435 0.462656
vn -0.0000 0.7071 -0.7071
vn 1.0000 0.0000 -0.0000
vn -1.0000 0.0000 0.0000
vn -0.0000 0.7071 0.7071
vn 0.0000 1.0000 0.0000
vn 0.0000 -0.0000 1.0000
vn -0.7902 0.0000 -0.6129
vn 0.0099 -1.0000 -0.0000
vn 0.0022 -1.0000 -0.0000
vn 0.0016 -1.0000 0.0000
vn 0.0000 -1.0000 0.0000
vn 0.0099 1.0000 -0.0000
vn 0.0022 1.0000 0.0000
vn 0.0016 1.0000 -0.0000
vn 0.0322 0.0000 -0.9995
vn 0.0322 -0.0000 0.9995
vn -0.7902 -0.0000 0.6129
s 1
f 1/1/1 2/2/1 3/3/2
f 4/4/1 2/5/1 1/6/1
f 5/7/1 2/5/1 4/4/1
f 5/7/1 6/8/1 2/5/1
f 5/7/1 7/9/1 6/8/1
f 8/10/1 7/9/1 5/7/1
f 7/9/1 8/10/1 9/11/1
f 10/12/1 9/11/1 8/10/1
f 11/13/1 9/11/1 10/12/1
f 9/11/1 11/13/1 12/14/1
f 9/11/1 12/14/1 13/15/1
f 13/15/1 12/14/1 14/16/1
f 13/15/1 14/16/1 1/6/1
f 1/6/1 14/16/1 15/17/1
f 4/4/1 1/6/1 15/17/1
f 7/18/1 9/19/1 16/20/3
f 17/21/4 12/14/4 13/15/4
f 13/15/4 18/22/4 17/21/4
f 18/22/4 19/23/4 17/21/4
f 18/22/4 20/24/4 19/23/4
f 20/24/4 21/25/4 19/23/4
f 20/24/4 22/26/4 21/25/4
f 22/26/4 6/8/4 21/25/4
f 6/8/4 5/7/4 21/25/4
f 13/15/4 12/14/4 23/27/4
f 23/27/4 24/28/4 13/15/4
f 23/27/4 25/29/4 24/28/4
f 25/29/4 26/30/4 24/28/4
f 25/29/4 27/31/4 26/30/4
f 25/29/4 28/32/4 27/31/4
f 28/32/4 6/8/4 27/31/4
f 28/32/4 5/7/4 6/8/4
f 29/33/5 31/34/5 30/35/5
f 30/35/5 32/36/5 29/33/5
f 32/36/5 33/37/5 29/33/5
f 32/36/5 13/15/5 33/37/5
f 13/15/5 34/38/5 33/37/5
f 34/38/5 35/39/5 33/37/5
f 34/38/5 36/40/5 35/39/5
f 36/40/5 37/41/5 35/39/5
f 36/40/5 38/42/5 37/41/5
f 38/42/5 6/8/5 37/41/5
f 6/8/5 5/7/5 37/41/5
f 13/15/5 32/36/5 39/43/5
f 39/43/5 40/44/5 13/15/5
f 39/43/5 41/45/5 40/44/5
f 41/45/5 42/46/5 40/44/5
f 41/45/5 43/47/5 42/46/5
f 41/45/5 44/48/5 43/47/5
f 44/48/5 6/8/5 43/47/5
f 44/48/5 5/7/5 6/8/5
f 45/49/6 47/50/3 46/51/6
f 48/52/6 45/53/6 46/54/6
f 5/55/6 48/52/6 46/54/6
f 5/55/6 46/54/6 6/56/6
f 5/55/6 6/56/6 49/57/6
f 50/58/6 5/55/6 49/57/6
f 49/57/6 51/59/6 50/58/6
f 52/60/6 50/58/6 51/59/6
f 53/61/6 52/60/6 51/59/6
f 51/59/6 12/62/6 53/61/6
f 51/59/6 13/63/6 12/62/6
f 13/63/6 54/64/6 12/62/6
f 13/63/6 45/53/6 54/64/6
f 45/53/6 55/65/6 54/64/6
f 48/52/6 55/65/6 45/53/6
f 49/66/6 56/67/6 51/68/6
f 57/69/7 58/70/7 59/71/7
f 58/70/7 57/69/7 60/72/7
f 61/73/8 62/74/9 60/75/10
f 62/74/9 61/73/8 63/76/8
f 62/74/9 58/77/11 60/75/10
f 64/78/12 57/79/13 65/80/14
f 57/79/13 64/78/12 66/81/12
f 57/69/15 61/82/15 60/72/15
f 61/82/15 57/69/15 66/83/15
f 61/84/2 64/85/2 63/86/2
f 64/85/2 61/84/2 66/87/2
f 63/88/16 65/89/16 62/90/16
f 65/89/16 63/88/16 64/91/16
f 57/79/13 59/92/5 65/80/14
f 59/93/17 62/90/17 65/89/17
f 62/90/17 59/93/17 58/94/17
