# Blender v2.92.0 OBJ File: 'kenney_OGConvert.blend'
# www.blender.org
o wineRed
v -0.026146 0.018325 0.045287
v 0.047699 -0.000000 0.082616
v -0.047699 -0.000000 0.082616
v 0.026146 0.018325 0.045287
v 0.047699 0.000000 -0.082616
v 0.095397 0.366493 -0.000000
v 0.095397 0.000000 -0.000000
v 0.047699 0.366493 -0.082616
v 0.047699 0.366493 0.082616
v -0.047699 0.366493 0.082616
v -0.018739 0.528192 -0.032456
v -0.044292 0.423136 0.000000
v -0.037477 0.528192 0.000000
v -0.022146 0.423136 -0.038358
v -0.095397 0.366493 0.000000
v -0.047699 0.366493 -0.082616
v -0.018739 0.528192 0.032456
v -0.022146 0.423136 0.038358
v 0.022146 0.423136 -0.038358
v 0.018739 0.528192 -0.032456
v 0.044292 0.423136 0.000000
v 0.022146 0.423136 0.038358
v 0.037477 0.528192 0.000000
v -0.026146 0.018325 -0.045287
v -0.047699 0.000000 -0.082616
v 0.026146 0.018325 -0.045287
v -0.052293 0.018325 0.000000
v -0.095397 0.000000 0.000000
v 0.052293 0.018325 -0.000000
v -0.095397 0.317474 0.000000
v -0.059623 0.317474 -0.061962
v -0.059623 0.122317 -0.061962
v -0.095397 0.122317 0.000000
v 0.018739 0.528192 0.032456
v -0.059623 0.317474 0.061962
v -0.059623 0.122317 0.061962
v -0.011897 0.698880 -0.020606
v -0.023794 0.651267 0.000000
v -0.023794 0.698880 0.000000
v -0.011897 0.651267 -0.020606
v -0.011897 0.698880 0.020606
v 0.011897 0.698880 0.020606
v 0.011897 0.698880 -0.020606
v 0.023794 0.698880 0.000000
v 0.023794 0.651267 0.000000
v 0.011897 0.651267 0.020606
v 0.011897 0.651267 -0.020606
v -0.011897 0.651267 0.020606
v -0.014241 0.606466 0.024667
v -0.028483 0.606466 0.000000
v 0.019226 0.628867 0.033300
v 0.014241 0.606466 0.024667
v -0.019226 0.628867 0.033300
v 0.028483 0.606466 0.000000
v 0.014241 0.606466 -0.024667
v -0.014241 0.606466 -0.024667
v 0.019226 0.628867 -0.033300
v 0.038452 0.651267 0.000000
v 0.038452 0.628867 0.000000
v 0.019226 0.651267 -0.033300
v -0.038452 0.651267 0.000000
v -0.019226 0.651267 0.033300
v -0.038452 0.628867 0.000000
v -0.019226 0.628867 -0.033300
v -0.019226 0.651267 -0.033300
v 0.019226 0.651267 0.033300
vt 0.719108 0.227605
vt 0.845306 0.220587
vt 0.719107 0.293448
vt 0.788284 0.187665
vt 0.074865 0.993643
vt 0.220587 0.434148
vt 0.220587 0.993643
vt 0.074865 0.434148
vt 0.293448 0.438500
vt 0.293448 0.997996
vt 0.297456 0.438056
vt 0.370317 0.994847
vt 0.297456 0.997737
vt 0.370317 0.435165
vt 0.500426 0.191120
vt 0.477007 0.350212
vt 0.471802 0.189984
vt 0.510835 0.351554
vt 0.651501 0.409350
vt 0.719107 0.516039
vt 0.651501 0.477007
vt 0.719107 0.370317
vt 0.414554 0.189984
vt 0.409350 0.350212
vt 0.090478 0.191647
vt 0.113898 0.350007
vt 0.080069 0.352027
vt 0.119102 0.189937
vt 0.181554 0.350007
vt 0.660515 0.626737
vt 0.719107 0.738630
vt 0.592909 0.665769
vt 0.719107 0.660565
vt 0.176350 0.189937
vt 0.719107 0.002004
vt 0.649931 0.107787
vt 0.592909 0.074865
vt 0.719107 0.067847
vt 0.649931 0.187665
vt 0.592909 0.220587
vt 0.788284 0.107787
vt 0.845306 0.074865
vt 0.588900 0.438056
vt 0.516039 0.510023
vt 0.516039 0.435165
vt 0.570685 0.512190
vt 0.570685 0.810221
vt 0.588900 0.997737
vt 0.516039 0.994847
vt 0.516039 0.808053
vt 0.592909 0.520048
vt 0.660515 0.559080
vt 0.204974 0.191647
vt 0.215383 0.352027
vt 0.385930 0.191120
vt 0.375522 0.351554
vt 0.592909 0.297456
vt 0.592909 0.375522
vt 0.406748 0.510023
vt 0.406748 0.808053
vt 0.002004 0.438500
vt 0.002004 0.997996
vt 0.723116 0.592760
vt 0.741288 0.520769
vt 0.741288 0.593481
vt 0.723116 0.520048
vt 0.786068 0.652007
vt 0.754592 0.597489
vt 0.786068 0.615662
vt 0.754592 0.670180
vt 0.723116 0.615662
vt 0.723116 0.652007
vt 0.777634 0.491625
vt 0.795807 0.420023
vt 0.795807 0.492711
vt 0.777634 0.418937
vt 0.723116 0.420023
vt 0.741288 0.491625
vt 0.723116 0.492711
vt 0.741288 0.418937
vt 0.795807 0.592760
vt 0.777634 0.520769
vt 0.795807 0.520048
vt 0.777634 0.593481
vt 0.421424 0.070722
vt 0.464932 0.070722
vt 0.384442 0.037377
vt 0.399670 0.071585
vt 0.413810 0.036212
vt 0.191234 0.072151
vt 0.169480 0.070852
vt 0.125972 0.070852
vt 0.104218 0.072151
vt 0.118358 0.036200
vt 0.177094 0.002004
vt 0.177094 0.036200
vt 0.118358 0.002004
vt 0.472546 0.002004
vt 0.413810 0.002004
vt 0.472546 0.036212
vt 0.501915 0.037377
vt 0.486687 0.071585
vt 0.206462 0.037955
vt 0.088990 0.037955
vt 0.088990 0.003759
vt 0.384442 0.003169
vt 0.824850 0.385561
vt 0.805459 0.338020
vt 0.824850 0.326825
vt 0.805459 0.374365
vt 0.773983 0.414929
vt 0.773983 0.392538
vt 0.742507 0.374365
vt 0.723116 0.385561
vt 0.773983 0.297456
vt 0.773983 0.319847
vt 0.723116 0.326824
vt 0.742507 0.338020
vt 0.501915 0.003169
vt 0.206462 0.003759
vn -0.0000 -0.8977 -0.4407
vn 0.8660 0.0000 -0.5000
vn 0.8660 -0.0000 0.5000
vn 0.0000 -0.0000 1.0000
vn -0.8647 0.0561 -0.4992
vn -0.6824 0.6157 -0.3940
vn -0.8647 0.0561 0.4992
vn -0.0000 0.0561 -0.9984
vn 0.6824 0.6157 -0.3940
vn 0.0000 0.6157 0.7880
vn 0.8647 0.0561 -0.4992
vn 0.0000 -0.8977 0.4407
vn 0.3816 -0.8977 0.2203
vn -0.3816 -0.8977 0.2203
vn -0.8660 -0.0000 -0.5000
vn 0.3816 -0.8977 -0.2203
vn -0.0000 -1.0000 -0.0000
vn -0.6824 0.6157 0.3940
vn 0.6824 0.6157 0.3940
vn 0.8647 0.0561 0.4992
vn 0.0000 0.0561 0.9984
vn -0.3816 -0.8977 -0.2203
vn -0.0000 0.6157 -0.7880
vn -0.8660 -0.0000 0.5000
vn -0.0000 0.0000 -1.0000
vn 0.0000 1.0000 0.0000
vn -0.8618 0.0990 0.4975
vn 0.0000 -0.3596 0.9331
vn 0.8618 0.0990 0.4975
vn 0.8618 0.0990 -0.4975
vn -0.0000 0.0990 -0.9951
vn 0.0000 0.0990 0.9951
vn 0.8081 -0.3596 -0.4665
vn -0.8081 -0.3596 -0.4665
vn 0.8081 -0.3596 0.4665
vn -0.0000 -0.3596 -0.9331
vn -0.8618 0.0990 -0.4975
vn -0.8081 -0.3596 0.4665
s 1
f 1/1/1 2/2/1 3/3/1
f 2/2/1 1/1/1 4/4/1
f 5/5/2 6/6/2 7/7/2
f 6/6/2 5/5/2 8/8/2
f 7/7/3 9/9/3 2/10/3
f 9/9/3 7/7/3 6/6/3
f 9/11/4 3/12/4 2/13/4
f 3/12/4 9/11/4 10/14/4
f 11/15/5 12/16/5 13/17/5
f 12/16/5 11/15/5 14/18/5
f 14/19/6 15/20/6 12/21/6
f 15/20/6 14/19/6 16/22/6
f 17/23/7 12/16/7 18/24/7
f 12/16/7 17/23/7 13/17/7
f 11/25/8 19/26/8 14/27/8
f 19/26/8 11/25/8 20/28/8
f 8/8/9 21/29/9 6/6/9
f 21/29/9 8/8/9 19/26/9
f 22/30/10 10/31/10 9/32/10
f 10/31/10 22/30/10 18/33/10
f 19/26/11 23/34/11 21/29/11
f 23/34/11 19/26/11 20/28/11
f 5/35/12 24/36/12 25/37/12
f 24/36/12 5/35/12 26/38/12
f 25/37/13 27/39/13 28/40/13
f 27/39/13 25/37/13 24/36/13
f 5/35/14 29/41/14 26/38/14
f 29/41/14 5/35/14 7/42/14
f 16/43/15 30/44/15 15/45/15
f 30/44/15 16/43/15 31/46/15
f 31/46/15 16/43/15 32/47/15
f 25/48/15 32/47/15 16/43/15
f 28/49/15 32/47/15 25/48/15
f 32/47/15 28/49/15 33/50/15
f 27/39/16 3/3/16 28/40/16
f 3/3/16 27/39/16 1/1/16
f 24/36/17 1/1/17 27/39/17
f 1/1/17 24/36/17 26/38/17
f 1/1/17 26/38/17 4/4/17
f 4/4/17 26/38/17 29/41/17
f 18/24/18 15/45/18 10/14/18
f 15/45/18 18/24/18 12/16/18
f 6/51/19 22/30/19 9/32/19
f 22/30/19 6/51/19 21/52/19
f 21/29/20 34/53/20 22/54/20
f 34/53/20 21/29/20 23/34/20
f 34/55/21 18/24/21 22/56/21
f 18/24/21 34/55/21 17/23/21
f 29/41/22 2/2/22 4/4/22
f 2/2/22 29/41/22 7/42/22
f 14/19/23 8/57/23 16/22/23
f 8/57/23 14/19/23 19/58/23
f 10/14/24 35/59/24 3/12/24
f 35/59/24 10/14/24 15/45/24
f 35/59/24 15/45/24 30/44/24
f 36/60/24 3/12/24 35/59/24
f 3/12/24 36/60/24 28/49/24
f 28/49/24 36/60/24 33/50/24
f 16/61/25 5/5/25 25/62/25
f 5/5/25 16/61/25 8/8/25
f 30/44/24 36/60/24 35/59/24
f 36/60/24 30/44/24 33/50/24
f 31/46/15 33/50/15 30/44/15
f 33/50/15 31/46/15 32/47/15
f 37/63/15 38/64/15 39/65/15
f 38/64/15 37/63/15 40/66/15
f 41/67/26 37/68/26 39/69/26
f 37/68/26 41/67/26 42/70/26
f 37/68/26 42/70/26 43/71/26
f 43/71/26 42/70/26 44/72/26
f 45/73/3 42/74/3 46/75/3
f 42/74/3 45/73/3 44/76/3
f 37/77/25 47/78/25 40/79/25
f 47/78/25 37/77/25 43/80/25
f 42/81/4 48/82/4 46/83/4
f 48/82/4 42/81/4 41/84/4
f 47/78/2 44/76/2 45/73/2
f 44/76/2 47/78/2 43/80/2
f 39/65/24 48/82/24 41/84/24
f 48/82/24 39/65/24 38/64/24
f 49/85/27 13/17/27 17/23/27
f 13/17/27 49/85/27 50/86/27
f 51/87/28 49/85/28 52/88/28
f 49/85/28 51/87/28 53/89/28
f 23/34/29 52/90/29 34/53/29
f 52/90/29 23/34/29 54/91/29
f 20/28/30 54/91/30 23/34/30
f 54/91/30 20/28/30 55/92/30
f 56/93/31 20/28/31 11/25/31
f 20/28/31 56/93/31 55/92/31
f 52/88/32 17/23/32 34/55/32
f 17/23/32 52/88/32 49/85/32
f 57/94/2 58/95/2 59/96/2
f 58/95/2 57/94/2 60/97/2
f 61/98/24 53/89/24 62/99/24
f 53/89/24 61/98/24 63/100/24
f 55/92/33 59/96/33 54/91/33
f 59/96/33 55/92/33 57/94/33
f 64/101/34 50/86/34 63/100/34
f 50/86/34 64/101/34 56/102/34
f 52/90/35 59/96/35 51/103/35
f 59/96/35 52/90/35 54/91/35
f 64/104/36 55/92/36 56/93/36
f 55/92/36 64/104/36 57/94/36
f 65/105/25 57/94/25 64/104/25
f 57/94/25 65/105/25 60/97/25
f 66/106/4 53/89/4 51/87/4
f 53/89/4 66/106/4 62/99/4
f 62/107/26 38/108/26 61/109/26
f 38/108/26 62/107/26 48/110/26
f 48/110/26 62/107/26 66/111/26
f 48/110/26 66/111/26 46/112/26
f 46/112/26 66/111/26 45/113/26
f 45/113/26 66/111/26 58/114/26
f 38/108/26 65/115/26 61/109/26
f 65/115/26 38/108/26 40/116/26
f 65/115/26 40/116/26 60/117/26
f 60/117/26 45/113/26 58/114/26
f 60/117/26 40/116/26 47/118/26
f 60/117/26 47/118/26 45/113/26
f 65/119/15 63/100/15 61/98/15
f 63/100/15 65/119/15 64/101/15
f 56/102/37 13/17/37 50/86/37
f 13/17/37 56/102/37 11/15/37
f 63/100/38 49/85/38 53/89/38
f 49/85/38 63/100/38 50/86/38
f 59/96/3 66/120/3 51/103/3
f 66/120/3 59/96/3 58/95/3
