# Blender v2.92.0 OBJ File: 'OGConvert.blend'
# www.blender.org
o boat_small
v 30.000000 22.799999 13.818401
v 30.000000 15.999999 13.818401
v 30.000000 15.999998 49.120960
v 30.000000 27.999998 49.120960
v 30.000000 22.799999 -3.381598
v 30.000000 28.000000 -12.175271
v 30.000000 16.000000 -3.381598
v 30.000000 16.000000 -12.175271
v -30.000000 15.999999 13.818401
v -30.000000 22.799999 13.818401
v -30.000000 22.799999 -3.381598
v -30.000000 16.000000 -3.381598
v -30.000000 15.999998 49.120960
v 27.200001 0.000000 0.000000
v 27.200001 -0.000002 51.602558
v -27.200001 -0.000002 51.602558
v 14.880000 0.000001 -22.052160
v 0.000000 0.000001 -30.533760
v -14.880000 0.000001 -22.052160
v -27.200001 -0.000000 -0.000000
v -0.000000 16.000002 -60.219360
v 19.530001 16.000002 -49.087257
v -0.000000 16.000002 -45.499535
v 16.700865 16.000002 -35.980042
v 16.700865 28.000002 -35.980042
v -0.000000 28.000002 -45.499535
v -19.530001 16.000002 -49.087257
v -18.600000 28.000002 -43.680241
v -0.000000 28.000002 -54.282242
v -30.000000 27.999998 49.120960
v -35.700001 15.999997 58.387966
v 35.700001 15.999997 58.387966
v 34.000000 27.999998 58.387966
v -34.000000 27.999998 58.387966
v -21.799999 27.999998 58.387966
v -35.700001 16.000000 -20.143801
v -34.000000 28.000000 -16.115038
v 35.700001 16.000000 -20.143801
v -16.700865 16.000002 -35.980042
v -16.700865 28.000002 -35.980042
v -30.000000 28.000000 -12.175271
v -30.000000 16.000000 -12.175271
v 34.000000 28.000000 -16.115038
v 18.600000 28.000002 -43.680241
vt 0.035583 0.741066
vt 0.003187 0.741027
vt 0.003397 0.572832
vt 0.060567 0.572902
vt 0.035481 0.823014
vt 0.060203 0.864941
vt 0.003084 0.822974
vt 0.003032 0.864871
vt 0.967848 0.545901
vt 0.967848 0.831765
vt 0.935564 0.831765
vt 0.935564 0.545901
vt 0.066631 0.572833
vt 0.148579 0.572833
vt 0.148579 0.858696
vt 0.066631 0.858696
vt 0.281116 0.858696
vt 0.281116 0.572833
vt 0.313514 0.572833
vt 0.313514 0.858696
vt 0.556004 0.545901
vt 0.724200 0.545901
vt 0.724200 0.831765
vt 0.556004 0.831765
vt 0.302712 0.294530
vt 0.302712 0.539795
vt 0.043529 0.539795
vt 0.244015 0.189717
vt 0.173121 0.149404
vt 0.102227 0.189717
vt 0.043530 0.294530
vt 0.173121 0.003032
vt 0.266170 0.055943
vt 0.410035 0.917398
vt 0.406247 0.996968
vt 0.349274 0.996968
vt 0.353062 0.917398
vt 0.217879 0.665881
vt 0.217879 0.572832
vt 0.275052 0.577263
vt 0.275052 0.665881
vt 0.154643 0.858696
vt 0.154643 0.572833
vt 0.211815 0.572833
vt 0.211815 0.858696
vt 0.787236 0.545901
vt 0.787236 0.886079
vt 0.730263 0.877980
vt 0.730263 0.554001
vt 0.319578 0.572832
vt 0.319578 0.572832
vt 0.319578 0.572832
vt 0.080072 0.055943
vt 0.952109 0.489112
vt 0.894974 0.514887
vt 0.895590 0.377212
vt 0.952696 0.357992
vt 0.343210 0.193510
vt 0.872329 0.545971
vt 0.929500 0.545901
vt 0.929135 0.659500
vt 0.871964 0.659570
vt 0.865901 0.586399
vt 0.865901 0.845582
vt 0.755868 0.514863
vt 0.755868 0.140707
vt 0.812974 0.159926
vt 0.812974 0.514887
vt 0.904413 0.701426
vt 0.929500 0.951538
vt 0.904516 0.783373
vt 0.872119 0.783413
vt 0.872329 0.951608
vt 0.872016 0.701466
vt 0.316053 0.522723
vt 0.343210 0.566769
vt 0.003032 0.566769
vt 0.030189 0.522723
vt 0.030189 0.354931
vt 0.030189 0.273180
vt 0.030189 0.231384
vt 0.316053 0.231384
vt 0.325641 0.572832
vt 0.325641 0.572832
vt 0.325641 0.572832
vt 0.325641 0.572832
vt 0.316053 0.273180
vt 0.316053 0.354931
vt 0.252690 0.118240
vt 0.173121 0.072995
vt 0.093551 0.118240
vt 0.003032 0.193510
vt 0.406247 0.837829
vt 0.349274 0.837829
vt 0.895590 0.003057
vt 0.819038 0.281124
vt 0.819038 0.035270
vt 0.368331 0.203646
vt 0.349274 0.539837
vt 0.349274 0.184875
vt 0.422646 0.053544
vt 0.431694 0.090231
vt 0.511263 0.003032
vt 0.511263 0.044876
vt 0.599881 0.053544
vt 0.590833 0.090231
vt 0.654195 0.203646
vt 0.673253 0.184875
vt 0.654195 0.495686
vt 0.368331 0.495686
vt 0.615127 0.539837
vt 0.673253 0.539837
vt 0.952696 0.003032
vt 0.217879 0.758930
vt 0.275052 0.754499
vt 0.060567 0.978539
vt 0.003397 0.978468
vt 0.679316 0.236795
vt 0.679316 0.482649
vt 0.755252 0.003032
vt 0.812388 0.028807
vt 0.349274 0.545901
vt 0.391170 0.545901
vt 0.504586 0.609264
vt 0.349274 0.831765
vt 0.549940 0.688833
vt 0.504586 0.768403
vt 0.391170 0.831765
vn -1.0000 0.0000 0.0000
vn 0.0000 0.0000 1.0000
vn 0.0000 1.0000 0.0000
vn 0.0000 0.0000 -1.0000
vn -0.0000 -1.0000 -0.0000
vn 0.2611 -0.8498 -0.4580
vn -0.4952 0.0000 0.8688
vn -0.4550 0.3949 -0.7982
vn -0.2611 -0.8498 -0.4580
vn -0.8390 0.2762 -0.4687
vn 0.5938 -0.7331 -0.3317
vn 0.8730 0.0000 0.4877
vn 0.0000 -0.3904 0.9206
vn 0.9901 0.1403 0.0000
vn 1.0000 0.0000 0.0000
vn 0.0484 -0.9988 -0.0000
vn -0.0615 0.4462 -0.8928
vn 0.4952 0.0000 0.8688
vn -0.8831 -0.4692 -0.0000
vn -0.9901 0.1403 0.0000
vn 0.4550 0.3949 -0.7982
vn -0.5938 -0.7331 -0.3317
vn -0.8730 0.0000 0.4877
vn 0.8831 -0.4692 -0.0000
vn 0.8390 0.2762 -0.4687
s 1
f 1/1/1 2/2/1 3/3/1
f 1/1/1 3/3/1 4/4/1
f 5/5/1 1/1/1 4/4/1
f 5/5/1 4/4/1 6/6/1
f 7/7/1 5/5/1 6/6/1
f 6/6/1 8/8/1 7/7/1
f 9/9/2 2/10/2 1/11/2
f 1/11/2 10/12/2 9/9/2
f 1/13/3 5/14/3 11/15/3
f 11/15/3 10/16/3 1/13/3
f 7/17/4 12/18/4 11/19/4
f 11/19/4 5/20/4 7/17/4
f 3/21/3 2/22/3 9/23/3
f 9/23/3 13/24/3 3/21/3
f 14/25/5 15/26/5 16/27/5
f 16/27/5 17/28/5 14/25/5
f 16/27/5 18/29/5 17/28/5
f 16/27/5 19/30/5 18/29/5
f 16/27/5 20/31/5 19/30/5
f 21/32/6 22/33/6 17/28/6
f 17/28/6 18/29/6 21/32/6
f 23/34/7 24/35/7 25/36/7
f 25/36/7 26/37/7 23/34/7
f 21/38/8 27/39/8 28/40/8
f 28/40/8 29/41/8 21/38/8
f 3/42/4 13/43/4 30/44/4
f 30/44/4 4/45/4 3/42/4
f 31/46/2 32/47/2 33/48/2
f 33/48/2 34/49/2 31/46/2
f 33/50/2 35/51/2 34/52/2
f 21/32/9 18/29/9 19/30/9
f 19/30/9 27/53/9 21/32/9
f 28/54/10 27/55/10 36/56/10
f 36/56/10 37/57/10 28/54/10
f 22/33/11 38/58/11 14/25/11
f 14/25/11 17/28/11 22/33/11
f 39/59/12 40/60/12 41/61/12
f 41/61/12 42/62/12 39/59/12
f 16/63/13 15/64/13 32/47/13
f 32/47/13 31/46/13 16/63/13
f 32/65/14 38/66/14 43/67/14
f 43/67/14 33/68/14 32/65/14
f 11/69/15 42/62/15 41/61/15
f 41/61/15 30/70/15 11/69/15
f 30/70/15 10/71/15 11/69/15
f 30/70/15 9/72/15 10/71/15
f 30/70/15 13/73/15 9/72/15
f 42/62/15 11/69/15 12/74/15
f 3/75/5 38/58/5 32/76/5
f 32/76/5 31/77/5 3/75/5
f 31/77/5 13/78/5 3/75/5
f 31/77/5 9/79/5 13/78/5
f 31/77/5 12/80/5 9/79/5
f 31/77/5 42/81/5 12/80/5
f 38/58/5 3/75/5 8/82/5
f 8/82/5 22/33/5 38/58/5
f 3/83/5 2/84/16 8/85/5
f 2/84/16 7/86/17 8/85/5
f 7/87/17 2/88/16 9/79/5
f 9/79/5 12/80/5 7/87/17
f 8/82/5 24/89/5 22/33/5
f 24/89/5 21/32/5 22/33/5
f 24/89/5 23/90/5 21/32/5
f 23/90/5 39/91/5 21/32/5
f 39/91/5 27/53/5 21/32/5
f 39/91/5 42/81/5 27/53/5
f 42/81/5 36/92/5 27/53/5
f 42/81/5 31/77/5 36/92/5
f 39/93/18 23/34/18 26/37/18
f 26/37/18 40/94/18 39/93/18
f 31/95/19 36/56/19 20/96/19
f 20/96/19 16/97/19 31/95/19
f 6/98/3 33/99/3 43/100/3
f 43/100/3 44/101/3 6/98/3
f 44/101/3 25/102/3 6/98/3
f 44/101/3 29/103/3 25/102/3
f 29/103/3 26/104/3 25/102/3
f 29/103/3 28/105/3 26/104/3
f 28/105/3 40/106/3 26/104/3
f 28/105/3 41/107/3 40/106/3
f 28/105/3 37/108/3 41/107/3
f 37/108/3 30/109/3 41/107/3
f 33/99/3 6/98/3 4/110/3
f 4/110/3 35/111/3 33/99/3
f 4/110/3 30/109/3 35/111/3
f 30/109/3 34/112/3 35/111/3
f 30/109/3 37/108/3 34/112/3
f 37/57/20 36/56/20 31/95/20
f 31/95/20 34/113/20 37/57/20
f 22/114/21 21/38/21 29/41/21
f 29/41/21 44/115/21 22/114/21
f 27/53/22 19/30/22 20/31/22
f 20/31/22 36/92/22 27/53/22
f 25/116/23 24/117/23 8/8/23
f 8/8/23 6/6/23 25/116/23
f 14/118/24 38/66/24 32/65/24
f 32/65/24 15/119/24 14/118/24
f 38/66/25 22/120/25 44/121/25
f 44/121/25 43/67/25 38/66/25
f 7/122/3 8/123/3 24/124/3
f 24/124/3 12/125/3 7/122/3
f 24/124/3 23/126/3 12/125/3
f 23/126/3 39/127/3 12/125/3
f 39/127/3 42/128/3 12/125/3
