# Blender v2.92.0 OBJ File: 'OGConvert.blend'
# www.blender.org
o cabinetTelevisionDoors
v -0.320000 -0.000000 0.320000
v 0.000000 -0.000000 0.320000
v 0.000000 0.320000 0.320000
v -0.320000 0.320000 0.320000
v -0.320000 0.320000 0.000000
v -0.320000 0.000000 0.000000
v 0.000000 0.000000 0.000000
v 0.000000 -0.000000 1.680000
v 0.000000 -0.000000 2.000000
v -0.320000 -0.000000 2.000000
v -0.320000 -0.000000 1.680000
v -0.320000 0.320000 2.000000
v -0.320000 0.320000 1.680000
v -0.320000 2.160000 0.000000
v -0.320000 2.160000 1.680000
v -6.080000 2.160000 1.680000
v -3.120000 2.160000 0.400000
v -3.280000 2.160000 0.400000
v -3.280000 2.160000 0.240000
v -3.120000 2.160000 0.240000
v -6.080000 2.160000 0.000000
v -3.120000 0.640000 0.240000
v -0.320000 0.640000 1.680000
v -0.320000 0.640000 0.000000
v -6.080000 0.640000 0.000000
v -3.280000 0.640000 0.240000
v -3.280000 0.640000 0.400000
v -3.120000 0.640000 0.400000
v -6.080000 0.640000 1.680000
v 0.000000 0.320000 1.680000
v -6.080000 0.000000 0.000000
v -6.080000 -0.000000 0.320000
v -6.400000 -0.000000 0.320000
v -6.400000 0.000000 0.000000
v -6.080000 0.320000 0.320000
v -6.400000 0.320000 0.320000
v -6.080000 -0.000000 1.680000
v -6.080000 0.320000 1.680000
v -6.080000 0.320000 2.000000
v -6.080000 -0.000000 2.000000
v -6.400000 -0.000000 1.680000
v -6.400000 0.320000 1.680000
v -6.400000 -0.000000 2.000000
v 0.000000 2.480000 2.000000
v 0.000000 2.480000 0.000000
v -6.400000 2.480000 0.000000
v -6.400000 2.480000 2.000000
v -6.080000 0.320000 0.000000
v -0.320000 1.320000 0.240000
v -0.320000 1.320000 1.680000
v -6.080000 1.320000 1.680000
v -3.120000 1.320000 0.400000
v -3.280000 1.320000 0.400000
v -3.280000 1.320000 0.240000
v -6.080000 1.320000 0.240000
v -3.120000 1.320000 0.240000
v -3.280000 1.480000 0.400000
v -3.280000 1.480000 0.240000
v -6.080000 1.480000 0.240000
v -6.080000 1.480000 1.680000
v -3.120000 1.480000 0.400000
v -0.320000 1.480000 1.680000
v -3.120000 1.480000 0.240000
v -0.320000 1.480000 0.240000
v -3.200000 0.640000 0.240000
v -0.320000 0.640000 0.240000
v -0.320000 2.160000 0.240000
v -3.200000 2.160000 0.240000
v -3.079360 1.103934 0.080000
v -0.320000 0.640000 0.080000
v -3.200000 0.640000 0.080000
v -3.079360 1.583934 0.080000
v -2.919360 1.583934 0.080000
v -2.919360 1.103934 0.080000
v -0.320000 2.160000 0.080000
v -2.919360 1.103934 -0.080000
v -3.079360 1.103934 -0.080000
v -3.079360 1.232847 -0.080000
v -2.919360 1.232847 -0.080000
v -3.320640 1.103934 -0.080000
v -3.320640 1.232847 -0.080000
v -3.320640 1.583934 0.080000
v -3.320640 1.103934 0.080000
v -3.480640 1.232847 -0.080000
v -3.480640 1.103934 -0.080000
v -3.480640 1.103934 0.080000
v -3.480640 1.583934 0.080000
v -3.200000 2.160000 0.080000
v -6.080000 2.160000 0.080000
v -6.080000 2.160000 0.240000
v -6.080000 0.640000 0.080000
v -6.080000 0.640000 0.240000
vt 0.688136 0.918934
vt 0.664522 0.918934
vt 0.664522 0.895320
vt 0.688136 0.895320
vt 0.004320 0.918934
vt 0.027934 0.918934
vt 0.027934 0.942548
vt 0.004320 0.942548
vt 0.060189 0.918934
vt 0.060189 0.942548
vt 0.036575 0.942548
vt 0.036575 0.918934
vt 0.567329 0.895320
vt 0.567329 0.918934
vt 0.543715 0.918934
vt 0.543715 0.895320
vt 0.543715 0.429373
vt 0.567329 0.429373
vt 0.567329 0.452987
vt 0.543715 0.452987
vt 0.823917 0.429373
vt 0.699943 0.429373
vt 0.699943 0.004320
vt 0.794399 0.222750
vt 0.794399 0.210943
vt 0.806206 0.210943
vt 0.806206 0.222750
vt 0.823917 0.004320
vt 0.806206 0.644636
vt 0.699943 0.438013
vt 0.823917 0.438013
vt 0.823917 0.863065
vt 0.806206 0.656443
vt 0.794399 0.656443
vt 0.794399 0.644636
vt 0.699943 0.863065
vt 0.189190 0.918934
vt 0.189190 0.942548
vt 0.165594 0.942548
vt 0.165594 0.918934
vt 0.124698 0.942548
vt 0.101084 0.942548
vt 0.101084 0.918934
vt 0.124698 0.918934
vt 0.133339 0.942548
vt 0.133339 0.918934
vt 0.156953 0.918934
vt 0.156953 0.942548
vt 0.575970 0.895320
vt 0.599584 0.895320
vt 0.599584 0.918934
vt 0.575970 0.918934
vt 0.221428 0.918934
vt 0.221428 0.942548
vt 0.197831 0.942548
vt 0.197831 0.918934
vt 0.631838 0.895320
vt 0.631838 0.918934
vt 0.608224 0.918934
vt 0.608224 0.895320
vt 0.387487 0.004320
vt 0.535074 0.004320
vt 0.535074 0.476601
vt 0.387487 0.476601
vt 0.535074 0.485241
vt 0.535074 0.668250
vt 0.387487 0.668250
vt 0.511460 0.508855
vt 0.411101 0.508855
vt 0.411101 0.485241
vt 0.387487 0.485241
vt 0.511460 0.485241
vt 0.004320 0.027934
vt 0.004320 0.004320
vt 0.187329 0.004320
vt 0.027934 0.027934
vt 0.027934 0.452987
vt 0.187329 0.476601
vt 0.004320 0.476601
vt 0.004320 0.452987
vt 0.511460 0.836285
vt 0.535074 0.859899
vt 0.511460 0.859899
vt 0.387487 0.676890
vt 0.535074 0.676890
vt 0.411101 0.836285
vt 0.411101 0.859899
vt 0.387487 0.859899
vt 0.378846 0.452987
vt 0.378846 0.476601
vt 0.195970 0.476601
vt 0.355249 0.452987
vt 0.331652 0.452987
vt 0.355249 0.027934
vt 0.219567 0.452987
vt 0.219567 0.027934
vt 0.331652 0.027934
vt 0.195970 0.004320
vt 0.378846 0.004320
vt 0.378846 0.027934
vt 0.231310 0.910293
vt 0.125047 0.910293
vt 0.125047 0.485241
vt 0.219503 0.703671
vt 0.219503 0.691864
vt 0.231310 0.691864
vt 0.231310 0.485241
vt 0.231310 0.703671
vt 0.334406 0.703671
vt 0.346213 0.703671
vt 0.346213 0.910294
vt 0.239950 0.910294
vt 0.334406 0.691864
vt 0.239950 0.485241
vt 0.346213 0.691864
vt 0.346213 0.485241
vt 0.882701 0.438013
vt 0.882701 0.863065
vt 0.832557 0.863065
vt 0.832557 0.438013
vt 0.941485 0.438013
vt 0.941485 0.863065
vt 0.891342 0.863065
vt 0.891342 0.438013
vt 0.926799 0.004320
vt 0.926799 0.104680
vt 0.903185 0.104680
vt 0.903185 0.004320
vt 0.354854 0.502523
vt 0.354854 0.502523
vt 0.354854 0.502523
vt 0.354854 0.485241
vt 0.354854 0.485241
vt 0.354854 0.485241
vt 0.543715 0.004320
vt 0.691303 0.004320
vt 0.691303 0.429373
vt 0.667689 0.429373
vt 0.667689 0.452987
vt 0.567329 0.452987
vt 0.068830 0.918934
vt 0.092444 0.918934
vt 0.092444 0.942548
vt 0.068830 0.942548
vt 0.914992 0.405115
vt 0.903185 0.405115
vt 0.903185 0.354935
vt 0.914992 0.354935
vt 0.354854 0.493882
vt 0.354854 0.493882
vt 0.354854 0.493882
vt 0.832557 0.429373
vt 0.832557 0.222750
vt 0.832557 0.004320
vt 0.844365 0.004320
vt 0.844364 0.210943
vt 0.844364 0.222750
vt 0.844364 0.429373
vt 0.894544 0.222750
vt 0.894544 0.210943
vt 0.449474 0.886250
vt 0.387487 0.868540
vt 0.499653 0.868540
vt 0.499653 0.992513
vt 0.449474 0.992513
vt 0.437667 0.886250
vt 0.387487 0.992513
vt 0.437667 0.992513
vt 0.761930 0.889417
vt 0.699943 0.871706
vt 0.812110 0.871706
vt 0.812110 0.995680
vt 0.761930 0.995680
vt 0.750123 0.889417
vt 0.699943 0.995680
vt 0.750123 0.995680
vt 0.520101 0.918720
vt 0.508294 0.918720
vt 0.508294 0.868540
vt 0.520101 0.868540
vt 0.864812 0.871706
vt 0.864812 0.921886
vt 0.853005 0.921886
vt 0.853005 0.871706
vt 0.885260 0.871706
vt 0.885260 0.921886
vt 0.873453 0.921886
vt 0.873453 0.871706
vt 0.844364 0.871706
vt 0.844364 0.921886
vt 0.832557 0.921886
vt 0.832557 0.871706
vt 0.905707 0.871706
vt 0.905707 0.921886
vt 0.893900 0.921886
vt 0.893900 0.871706
vt 0.926155 0.871706
vt 0.926155 0.921886
vt 0.914348 0.921886
vt 0.914348 0.871706
vt 0.543715 0.674153
vt 0.543715 0.461627
vt 0.655882 0.461627
vt 0.655882 0.674153
vt 0.082195 0.688865
vt 0.116406 0.485241
vt 0.116406 0.697767
vt 0.004320 0.697767
vt 0.046800 0.688865
vt 0.046800 0.677058
vt 0.082195 0.677058
vt 0.004320 0.485241
vt 0.676329 0.886679
vt 0.664522 0.886679
vt 0.664522 0.674153
vt 0.676329 0.674153
vt 0.903185 0.225487
vt 0.903185 0.113321
vt 0.914992 0.113321
vt 0.914992 0.225487
vt 0.367039 0.485241
vt 0.378846 0.485241
vt 0.378846 0.697767
vt 0.367039 0.697767
vt 0.903185 0.346294
vt 0.903185 0.234128
vt 0.914992 0.234128
vt 0.914992 0.346294
vt 0.378846 0.910294
vt 0.367039 0.910294
vt 0.923632 0.225487
vt 0.923633 0.113321
vt 0.935439 0.113321
vt 0.935439 0.225487
vt 0.543715 0.886680
vt 0.655882 0.886680
vt 0.664522 0.461627
vt 0.676329 0.461627
vt 0.923633 0.346294
vt 0.923633 0.234128
vt 0.935439 0.234128
vt 0.935439 0.346294
vt 0.116406 0.910294
vt 0.004320 0.910294
vt 0.082195 0.718477
vt 0.046800 0.718477
vt 0.046800 0.706670
vt 0.082195 0.706670
vt 0.082644 0.677058
vt 0.082644 0.688865
vt 0.073138 0.688865
vt 0.073138 0.677058
vt 0.644074 0.930741
vt 0.644074 0.921228
vt 0.655882 0.895320
vt 0.655882 0.930741
vt 0.946603 0.897614
vt 0.946603 0.907127
vt 0.934796 0.907127
vt 0.934796 0.871706
vt 0.914992 0.429373
vt 0.903185 0.429373
vt 0.903185 0.417566
vt 0.914992 0.417566
vt 0.923632 0.390356
vt 0.923632 0.380843
vt 0.935439 0.354935
vt 0.935439 0.390356
vt 0.947246 0.030228
vt 0.947246 0.039741
vt 0.935439 0.039741
vt 0.935439 0.004320
vt 0.082644 0.706670
vt 0.082644 0.718477
vt 0.073138 0.718477
vt 0.073138 0.706670
vt 0.251757 0.918934
vt 0.251757 0.930741
vt 0.239950 0.930741
vt 0.239950 0.918934
vn 0.0000 0.0000 1.0000
vn -1.0000 -0.0000 0.0000
vn 0.0000 -1.0000 -0.0000
vn 0.0000 1.0000 -0.0000
vn 0.0000 0.0000 -1.0000
vn 1.0000 0.0000 0.0000
vn 0.0251 -0.9997 0.0000
vn -0.6387 -0.3193 -0.7000
vn -0.0002 -1.0000 -0.0000
vn 0.0000 0.4147 -0.9100
s 1
f 1/1/1 2/2/1 3/3/1
f 3/3/1 4/4/1 1/1/1
f 5/5/2 6/6/2 1/7/2
f 1/7/2 4/8/2 5/5/2
f 7/9/3 2/10/3 1/11/3
f 1/11/3 6/12/3 7/9/3
f 8/13/3 9/14/3 10/15/3
f 10/15/3 11/16/3 8/13/3
f 12/17/2 13/18/2 11/19/2
f 11/19/2 10/20/2 12/17/2
f 14/21/3 15/22/3 16/23/3
f 16/23/3 17/24/3 14/21/3
f 16/23/3 18/25/3 17/24/3
f 16/23/3 19/26/3 18/25/3
f 14/21/3 17/24/3 20/27/3
f 20/27/3 21/28/3 14/21/3
f 20/27/3 19/26/3 21/28/3
f 19/26/3 16/23/3 21/28/3
f 22/29/4 23/30/4 24/31/4
f 24/31/4 25/32/4 22/29/4
f 25/32/4 26/33/4 22/29/4
f 25/32/4 27/34/4 26/33/4
f 23/30/4 22/29/4 28/35/4
f 28/35/4 29/36/4 23/30/4
f 28/35/4 27/34/4 29/36/4
f 27/34/4 25/32/4 29/36/4
f 8/37/5 11/38/5 13/39/5
f 13/39/5 30/40/5 8/37/5
f 31/41/3 32/42/3 33/43/3
f 33/43/3 34/44/3 31/41/3
f 33/45/1 32/46/1 35/47/1
f 35/47/1 36/48/1 33/45/1
f 37/49/6 38/50/6 39/51/6
f 39/51/6 40/52/6 37/49/6
f 37/53/5 41/54/5 42/55/5
f 42/55/5 38/56/5 37/53/5
f 37/57/3 40/58/3 43/59/3
f 43/59/3 41/60/3 37/57/3
f 44/61/4 45/62/4 46/63/4
f 46/63/4 47/64/4 44/61/4
f 7/65/6 45/66/6 44/67/6
f 44/67/6 3/68/6 7/65/6
f 44/67/6 30/69/6 3/68/6
f 44/67/6 8/70/6 30/69/6
f 44/67/6 9/71/6 8/70/6
f 7/65/6 3/68/6 2/72/6
f 10/73/1 9/74/1 44/75/1
f 44/75/1 12/76/1 10/73/1
f 44/75/1 39/77/1 12/76/1
f 39/77/1 44/75/1 47/78/1
f 39/77/1 47/78/1 43/79/1
f 43/79/1 40/80/1 39/77/1
f 36/81/2 34/82/2 33/83/2
f 34/82/2 36/81/2 47/84/2
f 47/84/2 46/85/2 34/82/2
f 36/81/2 42/86/2 47/84/2
f 42/86/2 41/87/2 47/84/2
f 41/87/2 43/88/2 47/84/2
f 31/89/5 34/90/5 46/91/5
f 46/91/5 48/92/5 31/89/5
f 46/91/5 25/93/5 48/92/5
f 25/93/5 5/94/5 48/92/5
f 46/91/5 21/95/5 25/93/5
f 46/91/5 14/96/5 21/95/5
f 5/94/5 25/93/5 24/97/5
f 5/94/5 24/97/5 45/98/5
f 24/97/5 14/96/5 45/98/5
f 14/96/5 46/91/5 45/98/5
f 5/94/5 45/98/5 7/99/5
f 7/99/5 6/100/5 5/94/5
f 49/101/3 50/102/3 51/103/3
f 51/103/3 52/104/3 49/101/3
f 51/103/3 53/105/3 52/104/3
f 51/103/3 54/106/3 53/105/3
f 51/103/3 55/107/3 54/106/3
f 49/101/3 52/104/3 56/108/3
f 57/109/4 58/110/4 59/111/4
f 57/109/4 59/111/4 60/112/4
f 61/113/4 57/109/4 60/112/4
f 61/113/4 60/112/4 62/114/4
f 63/115/4 61/113/4 62/114/4
f 62/114/4 64/116/4 63/115/4
f 62/117/5 60/118/5 16/119/5
f 16/119/5 15/120/5 62/117/5
f 23/121/5 29/122/5 51/123/5
f 51/123/5 50/124/5 23/121/5
f 35/125/7 38/126/8 42/127/3
f 42/127/3 36/128/3 35/125/7
f 38/129/8 35/130/7 48/131/9
f 39/132/3 38/133/8 48/134/9
f 39/135/3 48/136/9 5/137/3
f 39/135/3 5/137/3 4/138/3
f 39/135/3 4/138/3 13/18/3
f 13/18/3 12/17/3 39/135/3
f 13/18/3 4/138/3 3/139/3
f 3/139/3 30/140/3 13/18/3
f 31/141/6 48/142/6 35/143/6
f 35/143/6 32/144/6 31/141/6
f 58/145/1 63/146/1 20/147/1
f 20/147/1 19/148/1 58/145/1
f 63/149/1 58/150/1 59/151/1
f 64/152/1 63/153/1 59/154/1
f 64/152/1 59/154/1 55/155/1
f 64/152/1 55/155/1 54/156/1
f 64/152/1 54/156/1 56/157/1
f 56/157/1 49/158/1 64/152/1
f 22/159/1 56/157/1 54/156/1
f 54/156/1 26/160/1 22/159/1
f 49/161/2 14/162/2 24/163/2
f 24/163/2 23/164/2 49/161/2
f 23/164/2 50/165/2 49/161/2
f 14/162/2 49/161/2 64/166/2
f 64/166/2 15/167/2 14/162/2
f 64/166/2 62/168/2 15/167/2
f 59/169/6 25/170/6 21/171/6
f 21/171/6 16/172/6 59/169/6
f 16/172/6 60/173/6 59/169/6
f 25/170/6 59/169/6 55/174/6
f 55/174/6 29/175/6 25/170/6
f 55/174/6 51/176/6 29/175/6
f 57/177/1 61/178/1 17/179/1
f 17/179/1 18/180/1 57/177/1
f 19/181/2 58/182/2 57/183/2
f 57/183/2 18/184/2 19/181/2
f 63/185/6 20/186/6 17/187/6
f 17/187/6 61/188/6 63/185/6
f 53/189/1 27/190/1 28/191/1
f 28/191/1 52/192/1 53/189/1
f 22/193/6 56/194/6 52/195/6
f 52/195/6 28/196/6 22/193/6
f 54/197/2 26/198/2 27/199/2
f 27/199/2 53/200/2 54/197/2
f 65/201/1 66/202/1 67/203/1
f 67/203/1 68/204/1 65/201/1
f 69/205/5 70/206/5 71/207/5
f 71/207/5 88/208/5 69/205/5
f 88/208/5 72/209/5 69/205/5
f 88/208/5 73/210/5 72/209/5
f 70/206/5 69/205/5 74/211/5
f 74/211/5 75/212/5 70/206/5
f 74/211/5 73/210/5 75/212/5
f 73/210/5 88/208/5 75/212/5
f 70/213/3 66/214/3 65/215/3
f 65/215/3 71/216/3 70/213/3
f 70/217/6 75/218/6 67/219/6
f 67/219/6 66/220/6 70/217/6
f 67/221/4 75/222/4 88/223/4
f 88/223/4 68/224/4 67/221/4
f 88/225/2 71/226/2 65/227/2
f 65/227/2 68/228/2 88/225/2
f 68/224/4 88/223/4 89/229/4
f 89/229/4 90/230/4 68/224/4
f 89/231/2 91/232/2 92/233/2
f 92/233/2 90/234/2 89/231/2
f 92/235/1 65/201/1 68/204/1
f 68/204/1 90/236/1 92/235/1
f 71/216/3 65/215/3 92/237/3
f 92/237/3 91/238/3 71/216/3
f 71/239/6 88/240/6 68/241/6
f 68/241/6 65/242/6 71/239/6
f 71/207/5 91/243/5 89/244/5
f 89/244/5 86/245/5 71/207/5
f 89/244/5 87/246/5 86/245/5
f 89/244/5 82/247/5 87/246/5
f 71/207/5 86/245/5 83/248/5
f 83/248/5 88/208/5 71/207/5
f 83/248/5 82/247/5 88/208/5
f 82/247/5 89/244/5 88/208/5
f 76/249/5 77/250/5 78/251/5
f 78/251/5 79/252/5 76/249/5
f 76/253/6 79/254/6 73/255/6
f 73/255/6 74/256/6 76/253/6
f 78/257/2 77/258/2 69/259/2
f 69/259/2 72/260/2 78/257/2
f 76/261/3 74/262/3 69/263/3
f 69/263/3 77/264/3 76/261/3
f 79/252/10 78/251/10 72/209/10
f 72/209/10 73/210/10 79/252/10
f 80/265/6 81/266/6 82/267/6
f 82/267/6 83/268/6 80/265/6
f 84/269/2 85/270/2 86/271/2
f 86/271/2 87/272/2 84/269/2
f 80/273/5 85/274/5 84/275/5
f 84/275/5 81/276/5 80/273/5
f 80/277/3 83/278/3 86/279/3
f 86/279/3 85/280/3 80/277/3
f 81/276/10 84/275/10 87/246/10
f 87/246/10 82/247/10 81/276/10
