# Blender v2.92.0 OBJ File: 'OGConvert.blend'
# www.blender.org
o cliff_cornerTop_stone
v 2.989000 0.000000 -2.989000
v 2.652000 8.000000 -4.000000
v 2.652000 0.000000 -4.000000
v 2.989000 8.000000 -2.989000
v 4.000000 0.000000 -4.000000
v 4.000000 8.000000 -4.000000
v 4.000000 8.000000 -2.652000
v 4.000000 0.000000 -2.652000
v 2.389000 7.200000 -2.389000
v 1.852000 7.200000 -4.000000
v 4.000000 7.200000 -1.852000
vt 0.081364 0.001711
vt 0.001711 0.998289
vt 0.001711 0.001711
vt 0.081364 0.998289
vt 0.249056 0.001711
vt 0.416979 0.998289
vt 0.249055 0.998289
vt 0.416979 0.001711
vt 0.214119 0.998289
vt 0.214119 0.001711
vt 0.633727 0.314695
vt 0.759669 0.440637
vt 0.591746 0.440637
vt 0.759669 0.272714
vt 0.420401 0.998289
vt 0.588324 0.001711
vt 0.588324 0.998289
vt 0.420401 0.001711
vt 0.591746 0.101369
vt 0.792432 0.068606
vt 0.717688 0.143350
vt 0.591746 0.001711
vt 0.034092 0.898631
vt 0.245634 0.898631
vt 0.591746 0.269292
vt 0.759669 0.269292
vn -0.9487 0.0000 0.3162
vn 0.0000 0.0000 -1.0000
vn -0.3162 -0.0000 0.9487
vn 0.0000 -1.0000 -0.0000
vn 1.0000 0.0000 0.0000
vn -0.6882 0.6882 0.2294
vn -0.2294 0.6882 0.6882
vn 0.0000 1.0000 0.0000
s 1
f 1/1/1 2/2/1 3/3/1
f 2/2/1 1/1/1 4/4/1
f 2/5/2 5/6/2 3/7/2
f 5/6/2 2/5/2 6/8/2
f 7/9/3 1/1/3 8/10/3
f 1/1/3 7/9/3 4/4/3
f 1/11/4 5/12/4 8/13/4
f 5/12/4 1/11/4 3/14/4
f 7/15/5 5/16/5 6/17/5
f 5/16/5 7/15/5 8/18/5
f 2/19/6 9/20/6 4/21/6
f 9/20/6 2/19/6 10/22/6
f 7/9/7 9/23/7 11/24/7
f 9/23/7 7/9/7 4/4/7
f 6/25/8 4/21/8 7/26/8
f 4/21/8 6/25/8 2/19/8
