# Blender v2.92.0 OBJ File: 'OGConvert.blend'
# www.blender.org
o crops_dirtRow
v -1.000000 0.400000 1.240000
v 1.000000 -0.000000 1.736000
v 1.000000 0.400000 1.240000
v -1.000000 -0.000000 1.736000
v -3.000000 0.000000 -2.232000
v -1.000000 0.400000 -2.232000
v -1.000000 0.000000 -2.728000
v -3.000000 0.400000 -1.736000
v -4.000000 0.400000 1.736000
v -3.000000 -0.000000 2.232000
v -3.000000 0.400000 1.736000
v -4.000000 -0.000000 2.232000
v 1.000000 0.400000 -2.232000
v 1.000000 0.000000 -2.728000
v 3.000000 0.400000 -1.736000
v 3.000000 0.000000 -2.232000
v 3.000000 0.400000 1.736000
v 4.000000 -0.000000 2.232000
v 4.000000 0.400000 1.736000
v 3.000000 -0.000000 2.232000
v -4.000000 0.000000 -2.232000
v -4.000000 0.400000 -1.736000
v 4.000000 0.400000 -1.736000
v 4.000000 0.000000 -2.232000
vt 0.096745 0.481699
vt 0.049106 0.289606
vt 0.096745 0.289606
vt 0.049106 0.481699
vt 0.430218 0.673792
vt 0.430218 0.481699
vt 0.477857 0.481699
vt 0.382579 0.673792
vt 0.049106 0.769838
vt 0.001467 0.673792
vt 0.049106 0.673792
vt 0.001467 0.769838
vt 0.430218 0.289606
vt 0.477857 0.289606
vt 0.382579 0.097513
vt 0.430218 0.097513
vt 0.049106 0.097513
vt 0.001467 0.001467
vt 0.049106 0.001467
vt 0.001467 0.097513
vt 0.430218 0.769838
vt 0.382579 0.769838
vt 0.382579 0.001467
vt 0.430218 0.001467
vt 0.998533 0.430218
vt 0.960115 0.049106
vt 0.998533 0.001467
vt 0.960115 0.382579
vt 0.480791 0.673792
vt 0.909542 0.769838
vt 0.480791 0.769838
vt 0.909542 0.673792
vt 0.528430 0.481699
vt 0.957181 0.481699
vt 0.528430 0.289606
vt 0.957181 0.289606
vt 0.480791 0.097513
vt 0.909542 0.097513
vt 0.480791 0.001467
vt 0.909542 0.001467
vt 0.960115 0.814264
vt 0.998533 0.433152
vt 0.998533 0.861903
vt 0.960115 0.480791
vn 0.0000 0.7784 0.6278
vn -0.1538 0.7691 -0.6203
vn 0.0000 0.7784 -0.6278
vn 0.1538 0.7691 -0.6203
vn 0.1538 0.7691 0.6203
vn -0.1538 0.7691 0.6203
vn -1.0000 -0.0000 0.0000
vn -0.0000 1.0000 0.0000
vn 0.0000 -1.0000 -0.0000
vn 1.0000 -0.0000 0.0000
s 1
f 1/1/1 2/2/1 3/3/1
f 2/2/1 1/1/1 4/4/1
f 5/5/2 6/6/2 7/7/2
f 6/6/2 5/5/2 8/8/2
f 9/9/1 10/10/1 11/11/1
f 10/10/1 9/9/1 12/12/1
f 7/7/3 13/13/3 14/14/3
f 13/13/3 7/7/3 6/6/3
f 14/14/4 15/15/4 16/16/4
f 15/15/4 14/14/4 13/13/4
f 11/11/5 4/4/5 1/1/5
f 4/4/5 11/11/5 10/10/5
f 17/17/1 18/18/1 19/19/1
f 18/18/1 17/17/1 20/20/1
f 3/3/6 20/20/6 17/17/6
f 20/20/6 3/3/6 2/2/6
f 21/21/3 8/8/3 5/5/3
f 8/8/3 21/21/3 22/22/3
f 16/16/3 23/23/3 24/24/3
f 23/23/3 16/16/3 15/15/3
f 12/25/7 22/26/7 21/27/7
f 22/26/7 12/25/7 9/28/7
f 15/15/8 19/19/8 23/23/8
f 19/19/8 15/15/8 17/17/8
f 17/17/8 15/15/8 13/13/8
f 17/17/8 13/13/8 3/3/8
f 3/3/8 13/13/8 6/6/8
f 3/3/8 6/6/8 1/1/8
f 1/1/8 6/6/8 8/8/8
f 1/1/8 8/8/8 11/11/8
f 11/11/8 8/8/8 22/22/8
f 11/11/8 22/22/8 9/9/8
f 20/29/9 24/30/9 18/31/9
f 24/30/9 20/29/9 16/32/9
f 16/32/9 20/29/9 2/33/9
f 16/32/9 2/33/9 14/34/9
f 14/34/9 2/33/9 4/35/9
f 14/34/9 4/35/9 7/36/9
f 7/36/9 4/35/9 10/37/9
f 7/36/9 10/37/9 5/38/9
f 5/38/9 10/37/9 12/39/9
f 5/38/9 12/39/9 21/40/9
f 23/41/10 18/42/10 24/43/10
f 18/42/10 23/41/10 19/44/10
