# Blender v2.92.0 OBJ File: 'OGConvert.blend'
# www.blender.org
o fence_simpleDiagonalCenter
v 0.279999 0.993678 0.133488
v 3.440000 0.993678 3.440000
v 3.586513 0.993678 3.440000
v 3.440000 0.993678 3.586512
v 0.279999 0.993678 0.280000
v 0.133488 0.993678 0.280000
v -3.440000 2.263379 -3.586513
v -0.280000 2.263379 -0.279999
v -0.133488 2.263379 -0.279999
v -0.280000 2.263379 -0.133488
v -3.440000 2.263379 -3.440000
v -3.586512 2.263379 -3.440000
v 0.133488 0.496839 0.280000
v 3.440000 0.496839 3.440000
v 3.440000 0.496839 3.586512
v 0.279999 0.496839 0.280000
v 0.279999 0.496839 0.133488
v 3.586513 0.496839 3.440000
v -3.440000 1.766540 -3.440000
v -3.586512 0.993679 -3.440000
v -3.440000 0.993679 -3.440000
v -3.586512 1.766540 -3.440000
v -4.000000 2.760219 -3.440000
v -3.586512 0.496840 -3.440000
v -4.000000 0.000000 -3.440000
v -3.440000 0.496840 -3.440000
v -3.440000 0.000000 -3.440000
v -3.440000 2.760219 -3.440000
v -4.000000 2.760219 -4.000000
v -3.440000 0.000000 -4.000000
v -4.000000 0.000000 -4.000000
v -3.440000 2.760219 -4.000000
v 3.440000 -0.000000 4.000000
v 4.000000 -0.000000 3.440000
v 4.000000 -0.000000 4.000000
v 3.440000 -0.000000 3.440000
v 3.440000 2.760218 3.440000
v 4.000000 2.760218 4.000000
v 4.000000 2.760218 3.440000
v 3.440000 2.760218 4.000000
v -0.280000 -0.000000 0.280000
v -0.280000 0.496839 -0.279999
v -0.280000 0.000000 -0.279999
v -0.280000 0.496839 -0.133488
v -0.280000 0.993678 -0.133488
v -0.280000 1.766540 -0.133488
v -0.280000 2.760218 0.280000
v -0.280000 2.760218 -0.279999
v -0.280000 1.766540 -0.279999
v -0.280000 0.993678 -0.279999
v 0.279999 2.263379 0.133488
v 3.440000 2.263379 3.440000
v 3.586513 2.263379 3.440000
v 3.440000 2.263379 3.586512
v 0.279999 2.263379 0.280000
v 0.133488 2.263379 0.280000
v -3.440000 0.496840 -3.586513
v -3.440000 1.766540 -3.586513
v -3.440000 0.993679 -3.586513
v 3.440000 1.766540 3.440000
v 3.586513 1.766540 3.440000
v -0.133488 1.766540 -0.279999
v 0.279999 1.766540 0.280000
v 0.133488 1.766540 0.280000
v 0.279999 -0.000000 0.280000
v 0.279999 2.760218 0.280000
v 0.279999 2.760218 -0.279999
v -0.133488 0.993678 -0.279999
v -0.133488 0.496839 -0.279999
v 0.279999 0.000000 -0.279999
v 3.440000 1.766540 3.586512
v 0.279999 1.766540 0.133488
vt 0.762944 0.413715
vt 0.753829 0.011427
vt 0.762943 0.002312
vt 0.744714 0.002312
vt 0.753829 0.404600
vt 0.744715 0.413715
vt 0.767569 0.002312
vt 0.776683 0.404600
vt 0.767568 0.413715
vt 0.785798 0.413715
vt 0.776684 0.011427
vt 0.785799 0.002312
vt 0.831506 0.829742
vt 0.822391 0.427454
vt 0.831506 0.418339
vt 0.822391 0.820627
vt 0.813277 0.829742
vt 0.813277 0.418339
vt 0.089736 0.071988
vt 0.157732 0.062874
vt 0.157732 0.071988
vt 0.089736 0.062874
vt 0.002312 0.037150
vt 0.201443 0.062874
vt 0.245155 0.037150
vt 0.201443 0.071988
vt 0.245155 0.071988
vt 0.046024 0.062874
vt 0.002312 0.071988
vt 0.046024 0.071988
vt 0.319456 0.721744
vt 0.284618 0.478901
vt 0.319456 0.478901
vt 0.284618 0.721744
vt 0.324080 0.528169
vt 0.373349 0.478901
vt 0.373349 0.528169
vt 0.324080 0.478901
vt 0.427241 0.528169
vt 0.377973 0.478901
vt 0.427241 0.478901
vt 0.377973 0.528169
vt 0.245155 0.500000
vt 0.201443 0.465162
vt 0.245155 0.465162
vt 0.201443 0.474277
vt 0.157732 0.474277
vt 0.089736 0.474277
vt 0.046024 0.474277
vt 0.002312 0.500000
vt 0.002312 0.465162
vt 0.046024 0.465162
vt 0.089736 0.465162
vt 0.157732 0.465162
vt 0.808653 0.413715
vt 0.799538 0.011427
vt 0.808652 0.002312
vt 0.790423 0.002312
vt 0.799538 0.404600
vt 0.790424 0.413715
vt 0.492622 0.474277
vt 0.249779 0.439438
vt 0.492622 0.439438
vt 0.249779 0.474277
vt 0.258894 0.678032
vt 0.249779 0.721744
vt 0.249779 0.678032
vt 0.258894 0.522613
vt 0.249779 0.478901
vt 0.427241 0.532794
vt 0.427241 0.532794
vt 0.427241 0.532794
vt 0.427241 0.532794
vt 0.539651 0.546897
vt 0.548766 0.478901
vt 0.548766 0.546897
vt 0.539651 0.478901
vt 0.249779 0.522613
vt 0.431866 0.528169
vt 0.481134 0.478901
vt 0.481134 0.528169
vt 0.431866 0.478901
vt 0.405199 0.404600
vt 0.337203 0.413715
vt 0.337203 0.404600
vt 0.405199 0.413715
vt 0.293491 0.413715
vt 0.293491 0.404600
vt 0.249779 0.404600
vt 0.448911 0.413715
vt 0.492622 0.404600
vt 0.448911 0.404600
vt 0.762943 0.829742
vt 0.753829 0.427454
vt 0.762943 0.418339
vt 0.753829 0.820627
vt 0.744714 0.829742
vt 0.744714 0.418339
vt 0.535027 0.528169
vt 0.485759 0.478901
vt 0.535027 0.478901
vt 0.485759 0.528169
vt 0.089736 0.534838
vt 0.157732 0.525724
vt 0.157732 0.534838
vt 0.089736 0.525724
vt 0.201443 0.525724
vt 0.201443 0.534838
vt 0.245155 0.534838
vt 0.046024 0.525724
vt 0.002312 0.534838
vt 0.046024 0.534838
vt 0.373349 0.532794
vt 0.324080 0.582062
vt 0.324080 0.532794
vt 0.373349 0.582062
vt 0.652666 0.404600
vt 0.584670 0.413715
vt 0.584670 0.404600
vt 0.652666 0.413715
vt 0.740090 0.439438
vt 0.540958 0.413715
vt 0.497247 0.439438
vt 0.540958 0.404600
vt 0.497247 0.404600
vt 0.696378 0.413715
vt 0.740090 0.404600
vt 0.696378 0.404600
vt 0.245155 0.962850
vt 0.201443 0.928012
vt 0.245155 0.928012
vt 0.201443 0.937126
vt 0.157732 0.937126
vt 0.089736 0.937126
vt 0.046024 0.937126
vt 0.002312 0.962850
vt 0.002312 0.928012
vt 0.046024 0.928012
vt 0.089736 0.928012
vt 0.157732 0.928012
vt 0.245155 0.002312
vt 0.002312 0.002312
vt 0.767569 0.418339
vt 0.776683 0.820628
vt 0.767568 0.829742
vt 0.785798 0.829742
vt 0.776684 0.427454
vt 0.785799 0.418339
vt 0.002312 0.997688
vt 0.245155 0.997688
vt 0.831507 0.413715
vt 0.822392 0.011427
vt 0.831507 0.002312
vt 0.822392 0.404600
vt 0.813277 0.413715
vt 0.813277 0.002312
vt 0.696378 0.465162
vt 0.740090 0.474277
vt 0.696378 0.474277
vt 0.540958 0.465162
vt 0.497247 0.474276
vt 0.377973 0.532794
vt 0.377973 0.532794
vt 0.377973 0.532794
vt 0.293491 0.002312
vt 0.405199 0.002312
vt 0.337203 0.002312
vt 0.405199 0.011427
vt 0.337203 0.011427
vt 0.540958 0.474277
vt 0.808652 0.829742
vt 0.799538 0.427454
vt 0.808652 0.418339
vt 0.799538 0.820627
vt 0.790423 0.829742
vt 0.790423 0.418339
vt 0.431866 0.582062
vt 0.481134 0.532794
vt 0.481134 0.582062
vt 0.431866 0.532794
vt 0.448911 0.002312
vt 0.652666 0.002312
vt 0.696378 0.002312
vt 0.540958 0.002312
vt 0.584670 0.002312
vn 0.0000 1.0000 -0.0000
vn -0.0000 -1.0000 -0.0000
vn 0.0000 0.0000 1.0000
vn 0.0000 0.0000 -1.0000
vn -1.0000 0.0000 0.0000
vn 1.0000 0.0000 0.0000
vn 0.1809 -0.0000 -0.9835
vn 1.0000 -0.0000 0.0001
vn 1.0000 -0.0005 -0.0000
vn 0.7071 0.0000 -0.7071
vn -0.7071 -0.0000 0.7071
s 1
f 1/1/1 2/2/1 3/3/1
f 2/2/1 1/1/1 4/4/1
f 4/4/1 1/1/1 5/5/1
f 4/4/1 5/5/1 6/6/1
f 7/7/1 8/8/1 9/9/1
f 8/8/1 7/7/1 10/10/1
f 10/10/1 7/7/1 11/11/1
f 10/10/1 11/11/1 12/12/1
f 13/13/2 14/14/2 15/15/2
f 14/14/2 13/13/2 16/16/2
f 17/17/2 14/14/2 16/16/2
f 14/14/2 17/17/2 18/18/2
f 19/19/3 20/20/3 21/21/3
f 22/22/3 20/20/3 19/19/3
f 23/23/3 20/20/3 22/22/3
f 23/23/3 24/24/3 20/20/3
f 25/25/3 24/24/3 23/23/3
f 25/25/3 26/26/3 24/24/3
f 26/26/3 25/25/3 27/27/3
f 23/23/3 22/22/3 12/28/3
f 23/23/3 12/28/3 28/29/3
f 28/29/3 12/28/3 11/30/3
f 29/31/4 30/32/4 31/33/4
f 30/32/4 29/31/4 32/34/4
f 33/35/2 34/36/2 35/37/2
f 34/36/2 33/35/2 36/38/2
f 37/39/1 38/40/1 39/41/1
f 38/40/1 37/39/1 40/42/1
f 41/43/5 42/44/5 43/45/5
f 42/44/5 41/43/5 44/46/5
f 44/46/5 41/43/5 45/47/5
f 45/47/5 41/43/5 46/48/5
f 46/48/5 41/43/5 10/49/5
f 47/50/5 10/49/5 41/43/5
f 48/51/5 10/49/5 47/50/5
f 10/49/5 48/51/5 8/52/5
f 49/53/5 45/47/5 46/48/5
f 45/47/5 49/53/5 50/54/5
f 51/55/1 52/56/1 53/57/1
f 52/56/1 51/55/1 54/58/1
f 54/58/1 51/55/1 55/59/1
f 54/58/1 55/59/1 56/60/1
f 38/61/6 34/62/6 39/63/6
f 34/62/6 38/61/6 35/64/6
f 32/34/6 7/65/6 30/32/6
f 7/65/6 32/34/6 28/66/6
f 7/65/6 28/66/6 11/67/6
f 57/68/6 30/32/6 7/65/6
f 30/32/6 57/68/6 27/69/6
f 57/70/6 7/71/6 58/72/6
f 57/70/6 58/72/6 59/73/7
f 19/74/6 59/75/7 58/76/6
f 59/75/7 19/74/6 21/77/6
f 27/69/6 57/68/6 26/78/6
f 25/79/2 30/80/2 27/81/2
f 30/80/2 25/79/2 31/82/2
f 60/83/4 3/84/4 2/85/4
f 61/86/4 3/84/4 60/83/4
f 39/63/4 3/84/4 61/86/4
f 39/63/4 18/87/4 3/84/4
f 34/62/4 18/87/4 39/63/4
f 34/62/4 14/88/4 18/87/4
f 14/88/4 34/62/4 36/89/4
f 39/63/4 61/86/4 53/90/4
f 39/63/4 53/90/4 37/91/4
f 37/91/4 53/90/4 52/92/4
f 22/93/2 49/94/2 46/95/2
f 49/94/2 22/93/2 19/96/2
f 58/97/2 49/94/2 19/96/2
f 49/94/2 58/97/2 62/98/2
f 29/99/1 28/100/1 32/101/1
f 28/100/1 29/99/1 23/102/1
f 63/103/3 6/104/3 5/105/3
f 64/106/3 6/104/3 63/103/3
f 47/50/3 6/104/3 64/106/3
f 47/50/3 13/107/3 6/104/3
f 41/43/3 13/107/3 47/50/3
f 41/43/3 16/108/3 13/107/3
f 16/108/3 41/43/3 65/109/3
f 47/50/3 64/106/3 56/110/3
f 47/50/3 56/110/3 66/111/3
f 66/111/3 56/110/3 55/112/3
f 48/113/1 66/114/1 67/115/1
f 66/114/1 48/113/1 47/116/1
f 49/117/4 68/118/4 50/119/4
f 62/120/4 68/118/4 49/117/4
f 67/121/4 68/118/4 62/120/4
f 67/121/4 69/122/4 68/118/4
f 70/123/4 69/122/4 67/121/4
f 70/123/4 42/124/4 69/122/4
f 42/124/4 70/123/4 43/125/4
f 67/121/4 62/120/4 9/126/4
f 67/121/4 9/126/4 48/127/4
f 48/127/4 9/126/4 8/128/4
f 33/129/5 14/130/5 36/131/5
f 14/130/5 33/129/5 15/132/5
f 15/132/5 33/129/5 4/133/5
f 4/133/5 33/129/5 71/134/5
f 71/134/5 33/129/5 54/135/5
f 40/136/5 54/135/5 33/129/5
f 37/137/5 54/135/5 40/136/5
f 54/135/5 37/137/5 52/138/5
f 60/139/5 4/133/5 71/134/5
f 4/133/5 60/139/5 2/140/5
f 31/141/5 23/23/5 29/142/5
f 23/23/5 31/141/5 25/25/5
f 59/143/1 50/144/1 68/145/1
f 50/144/1 59/143/1 45/146/1
f 45/146/1 59/143/1 21/147/1
f 45/146/1 21/147/1 20/148/1
f 38/149/3 33/129/3 35/150/3
f 33/129/3 38/149/3 40/136/3
f 64/151/2 60/152/2 71/153/2
f 60/152/2 64/151/2 63/154/2
f 72/155/2 60/152/2 63/154/2
f 60/152/2 72/155/2 61/156/2
f 67/121/6 51/157/8 70/123/6
f 51/157/8 67/121/6 66/158/6
f 51/157/8 66/158/6 55/159/6
f 17/160/6 70/123/6 51/157/8
f 70/123/6 17/160/6 65/161/6
f 17/162/6 51/163/8 72/164/9
f 17/165/6 72/166/9 1/167/6
f 63/168/6 1/167/6 72/166/9
f 1/167/6 63/168/6 5/169/6
f 65/161/6 17/160/6 16/170/6
f 24/171/2 42/172/2 44/173/2
f 42/172/2 24/171/2 26/174/2
f 57/175/2 42/172/2 26/174/2
f 42/172/2 57/175/2 69/176/2
f 41/177/2 70/178/2 65/179/2
f 70/178/2 41/177/2 43/180/2
f 51/181/10 61/86/10 72/166/10
f 61/86/10 51/181/10 53/90/10
f 9/126/10 58/182/10 7/183/10
f 58/182/10 9/126/10 62/120/10
f 45/47/11 24/24/11 44/46/11
f 24/24/11 45/47/11 20/20/11
f 68/118/10 57/184/10 59/185/10
f 57/184/10 68/118/10 69/122/10
f 71/134/11 56/110/11 64/106/11
f 56/110/11 71/134/11 54/135/11
f 10/49/11 22/22/11 46/48/11
f 22/22/11 10/49/11 12/28/11
f 1/167/10 18/87/10 17/165/10
f 18/87/10 1/167/10 3/84/10
f 15/132/11 6/104/11 13/107/11
f 6/104/11 15/132/11 4/133/11
