# Blender v2.92.0 OBJ File: 'OGConvert.blend'
# www.blender.org
o floorHalf
v 0.000000 0.000000 0.000000
v 0.000000 0.400000 0.000000
v 0.000000 0.400000 8.000000
v 0.000000 -0.000000 8.000000
v -4.000000 0.400000 0.000000
v -4.000000 0.400000 8.000000
v -4.000000 -0.000000 8.000000
v -4.000000 0.000000 0.000000
vt 0.430849 0.044513
vt 0.473775 0.044513
vt 0.473775 0.903037
vt 0.430849 0.903037
vt 0.476950 0.860111
vt 0.476950 0.001587
vt 0.906211 0.001587
vt 0.906211 0.860111
vt 0.001587 0.903037
vt 0.001587 0.044513
vt 0.955487 0.430849
vt 0.955487 0.001587
vt 0.998413 0.001587
vt 0.998413 0.430849
vt 0.001587 0.001587
vt 0.430849 0.001587
vt 0.909386 0.001587
vt 0.952312 0.001587
vt 0.952312 0.860111
vt 0.909386 0.860111
vn 1.0000 0.0000 0.0000
vn 0.0000 1.0000 0.0000
vn 0.0000 -1.0000 -0.0000
vn 0.0000 0.0000 1.0000
vn 0.0000 0.0000 -1.0000
vn -1.0000 0.0000 0.0000
s 1
f 1/1/1 2/2/1 3/3/1
f 3/3/1 4/4/1 1/1/1
f 3/5/2 2/6/2 5/7/2
f 5/7/2 6/8/2 3/5/2
f 1/1/3 4/4/3 7/9/3
f 7/9/3 8/10/3 1/1/3
f 7/11/4 4/12/4 3/13/4
f 3/13/4 6/14/4 7/11/4
f 1/1/5 8/10/5 5/15/5
f 5/15/5 2/16/5 1/1/5
f 5/17/6 8/18/6 7/19/6
f 7/19/6 6/20/6 5/17/6
