# Blender v2.92.0 OBJ File: 'OGConvert.blend'
# www.blender.org
o ground_pathRocks
v 2.728000 0.000000 -1.000000
v 2.232000 -0.400000 1.000000
v 2.728000 -0.000000 1.000000
v 2.232000 -0.400000 -1.000000
v 2.232000 0.000000 -3.000000
v 1.736000 -0.400000 -3.000000
v 2.232000 0.000000 -4.000000
v 1.736000 -0.400000 -4.000000
v 2.232000 -0.000000 3.000000
v 1.736000 -0.400000 3.000000
v -1.736000 -0.400000 -3.000000
v -1.736000 0.000000 -1.000000
v -1.240000 -0.400000 -1.000000
v -2.232000 0.000000 -3.000000
v -1.736000 -0.400000 3.000000
v -2.232000 -0.000000 4.000000
v -1.736000 -0.400000 4.000000
v -2.232000 -0.000000 3.000000
v 2.232000 -0.000000 4.000000
v 1.736000 -0.400000 4.000000
v -1.736000 -0.000000 1.000000
v -1.240000 -0.400000 1.000000
v -1.736000 -0.400000 -4.000000
v -2.232000 0.000000 -4.000000
v 1.154284 0.000000 -1.749622
v 0.552295 -0.400000 -1.527642
v 1.321852 -0.400000 -1.388609
v 0.851770 0.000000 -1.804276
v 1.040591 -0.400000 -2.539028
v 1.262288 0.000000 -1.936982
v 1.682260 -0.400000 -2.013829
v 0.983851 0.000000 -2.164879
v 0.822308 0.000000 -2.099438
v 0.474245 -0.400000 -2.309597
v -0.393119 -0.000000 2.503669
v -1.060178 -0.400000 2.905483
v -0.090006 -0.400000 2.905483
v -0.759327 -0.000000 2.503669
v -0.288885 -0.000000 2.138742
v 0.175153 -0.400000 1.977158
v -0.548715 -0.400000 1.457746
v -0.819913 -0.000000 2.297195
v -0.505807 -0.000000 1.983090
v -1.272583 -0.400000 2.181614
v -2.536000 0.000000 -1.000000
v -3.032000 -0.000000 3.000000
v -2.536000 -0.000000 1.000000
v -3.032000 0.000000 -3.000000
v -3.032000 0.000000 -4.000000
v -3.032000 -0.000000 4.000000
v -4.000000 -0.000000 4.000000
v -4.000000 0.000000 -4.000000
v 4.000000 0.000000 -4.000000
v 3.528000 0.000000 -1.000000
v 4.000000 -0.000000 4.000000
v 3.032000 0.000000 -4.000000
v 3.528000 -0.000000 1.000000
v 3.032000 0.000000 -3.000000
v 3.032000 -0.000000 4.000000
v 3.032000 -0.000000 3.000000
vt 0.159363 0.374502
vt 0.221116 0.623506
vt 0.159363 0.623506
vt 0.221116 0.374502
vt 0.221116 0.125498
vt 0.282869 0.125498
vt 0.221116 0.000996
vt 0.282869 0.000996
vt 0.221116 0.872510
vt 0.282869 0.872510
vt 0.715139 0.125498
vt 0.715139 0.374502
vt 0.653386 0.374502
vt 0.776892 0.125498
vt 0.715139 0.872510
vt 0.776892 0.997012
vt 0.715139 0.997012
vt 0.776892 0.872510
vt 0.221116 0.997012
vt 0.282869 0.997012
vt 0.715139 0.623506
vt 0.653386 0.623506
vt 0.715139 0.000996
vt 0.776892 0.000996
vt 0.355293 0.281173
vt 0.430242 0.308809
vt 0.334431 0.326119
vt 0.392957 0.274368
vt 0.369448 0.182890
vt 0.341847 0.257846
vt 0.289559 0.248278
vt 0.376513 0.229472
vt 0.396625 0.237620
vt 0.439960 0.211455
vt 0.547948 0.810716
vt 0.630998 0.860742
vt 0.510210 0.860742
vt 0.593542 0.810716
vt 0.534971 0.765282
vt 0.477197 0.745164
vt 0.567320 0.680496
vt 0.601085 0.785009
vt 0.561978 0.745903
vt 0.657443 0.770619
vt 0.814741 0.374502
vt 0.876494 0.872510
vt 0.814741 0.623506
vt 0.876494 0.125498
vt 0.000996 0.999004
vt 0.000996 0.999004
vt 0.000996 0.999004
vt 0.876494 0.000996
vt 0.876494 0.997012
vt 0.997012 0.997012
vt 0.997012 0.000996
vt 0.000996 0.000996
vt 0.059761 0.374502
vt 0.000996 0.997012
vt 0.121514 0.000996
vt 0.059761 0.623506
vt 0.121514 0.125498
vt 0.121514 0.997012
vt 0.121514 0.872510
vt 0.999004 0.000996
vt 0.999004 0.000996
vt 0.999004 0.000996
vt 0.002988 0.999004
vt 0.002988 0.999004
vt 0.002988 0.999004
vt 0.999004 0.002988
vt 0.999004 0.002988
vt 0.999004 0.002988
vn -0.6278 0.7784 0.0000
vn -0.6203 0.7691 0.1538
vn -0.6203 0.7691 -0.1538
vn 0.6203 0.7691 -0.1538
vn 0.6278 0.7784 0.0000
vn 0.6203 0.7691 0.1538
vn -0.1379 0.6311 0.7633
vn 0.4913 0.6311 -0.6002
vn -0.2912 0.6311 -0.7189
vn -0.7718 0.6311 0.0770
vn 0.6720 0.6311 0.3874
vn 0.0000 0.7087 0.7055
vn 0.6784 0.7087 0.1938
vn -0.4989 0.7087 -0.4989
vn 0.4113 0.7087 -0.5732
vn -0.6770 0.7087 0.1986
vn 0.0000 1.0000 0.0000
vn -0.6405 0.5054 -0.5783
vn 0.4008 -0.8678 0.2938
vn -0.5730 0.5729 -0.5861
vn -0.5766 -0.6179 -0.5346
vn -0.4574 0.8893 0.0004
s 1
f 1/1/1 2/2/1 3/3/1
f 2/2/1 1/1/1 4/4/1
f 5/5/2 4/4/2 1/1/2
f 4/4/2 5/5/2 6/6/2
f 7/7/1 6/6/1 5/5/1
f 6/6/1 7/7/1 8/8/1
f 2/2/3 9/9/3 3/3/3
f 9/9/3 2/2/3 10/10/3
f 11/11/4 12/12/4 13/13/4
f 12/12/4 11/11/4 14/14/4
f 15/15/5 16/16/5 17/17/5
f 16/16/5 15/15/5 18/18/5
f 10/10/1 19/19/1 9/9/1
f 19/19/1 10/10/1 20/20/1
f 13/13/5 21/21/5 22/22/5
f 21/21/5 13/13/5 12/12/5
f 23/23/5 14/14/5 11/11/5
f 14/14/5 23/23/5 24/24/5
f 21/21/6 15/15/6 22/22/6
f 15/15/6 21/21/6 18/18/6
f 25/25/7 26/26/7 27/27/7
f 26/26/7 25/25/7 28/28/7
f 29/29/8 30/30/8 31/31/8
f 30/30/8 29/29/8 32/32/8
f 33/33/9 29/29/9 34/34/9
f 29/29/9 33/33/9 32/32/9
f 26/26/10 33/33/10 34/34/10
f 33/33/10 26/26/10 28/28/10
f 30/30/11 27/27/11 31/31/11
f 27/27/11 30/30/11 25/25/11
f 35/35/12 36/36/12 37/37/12
f 36/36/12 35/35/12 38/38/12
f 39/39/13 37/37/13 40/40/13
f 37/37/13 39/39/13 35/35/13
f 41/41/14 42/42/14 43/43/14
f 42/42/14 41/41/14 44/44/14
f 41/41/15 39/39/15 40/40/15
f 39/39/15 41/41/15 43/43/15
f 42/42/16 36/36/16 38/38/16
f 36/36/16 42/42/16 44/44/16
f 45/45/17 46/46/18 47/47/17
f 46/46/18 45/45/17 48/48/19
f 46/49/18 48/50/19 49/51/17
f 46/46/18 49/52/17 50/53/17
f 50/53/17 49/52/17 51/54/17
f 51/54/17 49/52/17 52/55/17
f 53/56/17 54/57/17 55/58/17
f 54/57/17 53/56/17 56/59/17
f 55/58/17 54/57/17 57/60/17
f 54/57/17 56/59/17 58/61/17
f 57/60/17 59/62/17 55/58/17
f 59/62/17 57/60/17 60/63/20
f 24/24/17 45/45/17 47/47/17
f 45/45/17 24/24/17 49/52/17
f 45/45/17 49/52/17 48/48/19
f 16/16/17 24/24/17 47/47/17
f 18/18/21 24/24/17 16/16/17
f 18/64/21 14/65/17 24/66/17
f 18/18/21 12/12/17 14/14/17
f 12/12/17 18/18/21 21/21/17
f 16/16/17 47/47/17 50/53/17
f 50/53/17 47/47/17 46/46/18
f 56/59/17 1/1/17 3/3/17
f 1/1/17 56/59/17 7/7/17
f 1/1/17 7/7/17 5/5/17
f 59/62/17 56/59/17 3/3/17
f 60/63/20 56/59/17 59/62/17
f 60/67/20 58/68/17 56/69/17
f 60/63/20 54/57/17 58/61/17
f 54/57/17 60/63/20 57/60/17
f 59/62/17 3/3/17 19/19/17
f 19/19/17 3/3/17 9/9/17
f 32/32/17 25/25/17 30/30/17
f 25/25/17 32/32/17 28/28/17
f 28/28/17 32/32/17 33/33/17
f 43/43/17 35/35/17 39/39/17
f 35/35/17 43/43/17 38/38/17
f 38/38/17 43/43/17 42/42/17
f 8/8/17 29/29/17 31/31/17
f 29/29/17 8/8/17 23/23/17
f 29/29/17 23/23/17 34/34/17
f 34/34/17 23/23/17 40/40/17
f 40/40/17 23/23/17 41/41/17
f 41/41/17 23/23/17 13/13/17
f 41/41/17 13/13/17 22/22/17
f 13/13/17 23/23/17 11/11/17
f 22/22/17 44/44/17 41/41/17
f 44/44/17 22/22/17 15/15/17
f 44/44/17 15/15/17 17/17/17
f 20/20/17 8/8/17 31/31/17
f 10/10/21 8/8/17 20/20/17
f 10/70/21 6/71/22 8/72/17
f 10/10/21 4/4/17 6/6/22
f 4/4/17 10/10/21 2/2/17
f 20/20/17 37/37/17 17/17/17
f 20/20/17 31/31/17 37/37/17
f 37/37/17 31/31/17 27/27/17
f 37/37/17 27/27/17 40/40/17
f 40/40/17 27/27/17 26/26/17
f 40/40/17 26/26/17 34/34/17
f 17/17/17 37/37/17 36/36/17
f 17/17/17 36/36/17 44/44/17
