# Blender v2.92.0 OBJ File: 'OGConvert.blend'
# www.blender.org
o ground_riverSplit
v 4.000000 -0.000000 2.232000
v 3.000000 -0.000000 3.032000
v 4.000000 -0.000000 3.032000
v 3.000000 -0.000000 2.232000
v 1.000000 -0.000000 3.528000
v 1.000000 -0.000000 2.728000
v -1.000000 -0.000000 3.528000
v -1.000000 -0.000000 2.728000
v -3.000000 -0.000000 3.032000
v -3.000000 -0.000000 2.232000
v -4.000000 -0.000000 3.032000
v -4.000000 -0.000000 2.232000
v 2.232000 0.000000 -4.000000
v 3.032000 0.000000 -3.032000
v 3.032000 0.000000 -4.000000
v 3.000000 0.000000 -2.232000
v 2.343963 0.000000 -2.548535
v 2.232000 0.000000 -3.000000
v 4.000000 0.000000 -3.032000
v 4.000000 0.000000 -2.232000
v -3.032000 0.000000 -4.000000
v -2.232000 0.000000 -3.000000
v -2.232000 0.000000 -4.000000
v -2.343963 0.000000 -2.548535
v -3.000000 0.000000 -2.232000
v -3.032000 0.000000 -3.032000
v -4.000000 0.000000 -2.232000
v -4.000000 0.000000 -3.032000
v 1.000000 -0.400000 2.232000
v -1.000000 -0.400000 2.232000
v 3.000000 -0.400000 1.736000
v 4.000000 -0.400000 1.736000
v -3.000000 -0.400000 1.736000
v -4.000000 -0.400000 1.736000
v 3.000000 -0.400000 -1.736000
v 4.000000 -0.400000 -1.736000
v 1.736000 -0.400000 -4.000000
v 1.736000 -0.400000 -3.000000
v -3.000000 -0.400000 -1.736000
v -4.000000 -0.400000 -1.736000
v -1.736000 -0.400000 -3.000000
v -1.736000 -0.400000 -4.000000
v -1.920273 -0.400000 -2.256964
v 1.920273 -0.400000 -2.256964
v 4.000000 0.000000 -4.000000
v 4.000000 -0.000000 4.000000
v -4.000000 -0.000000 4.000000
v -4.000000 0.000000 -4.000000
vt 0.000998 0.778443
vt 0.125749 0.878243
vt 0.000998 0.878243
vt 0.125749 0.778443
vt 0.375249 0.940120
vt 0.375249 0.840319
vt 0.624750 0.940120
vt 0.624750 0.840319
vt 0.874251 0.878244
vt 0.874251 0.778443
vt 0.999002 0.878244
vt 0.999002 0.778443
vt 0.221557 0.000998
vt 0.121757 0.121756
vt 0.121757 0.000998
vt 0.125749 0.221557
vt 0.207590 0.182069
vt 0.221557 0.125749
vt 0.000998 0.121756
vt 0.000998 0.221557
vt 0.878244 0.000998
vt 0.778443 0.125749
vt 0.778443 0.000998
vt 0.792411 0.182069
vt 0.874251 0.221557
vt 0.878244 0.121757
vt 0.999002 0.221557
vt 0.999002 0.121757
vt 0.375249 0.778443
vt 0.624750 0.778443
vt 0.125749 0.716567
vt 0.000998 0.716567
vt 0.874251 0.716567
vt 0.999002 0.716567
vt 0.125749 0.283433
vt 0.000998 0.283433
vt 0.283433 0.000998
vt 0.283433 0.125749
vt 0.874251 0.283433
vt 0.999002 0.283433
vt 0.716567 0.125749
vt 0.716567 0.000998
vt 0.739555 0.218443
vt 0.260445 0.218443
vt 0.000998 0.000998
vt 0.000998 0.999002
vt 0.999002 0.999002
vt 0.999002 0.000998
vn 0.0000 1.0000 0.0000
vn 0.0000 0.7784 -0.6278
vn -0.1538 0.7691 -0.6203
vn 0.1538 0.7691 -0.6203
vn 0.0000 0.7784 0.6278
vn -0.6278 0.7784 0.0000
vn 0.6278 0.7784 0.0000
vn 0.6203 0.7691 0.1538
vn -0.6203 0.7691 0.1538
vn 0.2899 0.7450 0.6008
vn -0.2899 0.7450 0.6008
s 1
f 1/1/1 2/2/1 3/3/1
f 2/2/1 1/1/1 4/4/1
f 2/2/1 4/4/1 5/5/1
f 5/5/1 4/4/1 6/6/1
f 5/5/1 6/6/1 7/7/1
f 7/7/1 6/6/1 8/8/1
f 7/7/1 8/8/1 9/9/1
f 9/9/1 8/8/1 10/10/1
f 9/9/1 10/10/1 11/11/1
f 11/11/1 10/10/1 12/12/1
f 13/13/1 14/14/1 15/15/1
f 14/14/1 13/13/1 16/16/1
f 16/16/1 13/13/1 17/17/1
f 17/17/1 13/13/1 18/18/1
f 16/16/1 19/19/1 14/14/1
f 19/19/1 16/16/1 20/20/1
f 21/21/1 22/22/1 23/23/1
f 22/22/1 21/21/1 24/24/1
f 24/24/1 21/21/1 25/25/1
f 25/25/1 21/21/1 26/26/1
f 25/25/1 26/26/1 27/27/1
f 27/27/1 26/26/1 28/28/1
f 29/29/2 8/8/2 6/6/2
f 8/8/2 29/29/2 30/30/2
f 31/31/3 6/6/3 4/4/3
f 6/6/3 31/31/3 29/29/3
f 32/32/2 4/4/2 1/1/2
f 4/4/2 32/32/2 31/31/2
f 30/30/4 10/10/4 8/8/4
f 10/10/4 30/30/4 33/33/4
f 33/33/2 12/12/2 10/10/2
f 12/12/2 33/33/2 34/34/2
f 20/20/5 35/35/5 36/36/5
f 35/35/5 20/20/5 16/16/5
f 37/37/6 18/18/6 13/13/6
f 18/18/6 37/37/6 38/38/6
f 27/27/5 39/39/5 25/25/5
f 39/39/5 27/27/5 40/40/5
f 23/23/7 41/41/7 42/42/7
f 41/41/7 23/23/7 22/22/7
f 22/22/8 43/43/8 41/41/8
f 43/43/8 22/22/8 24/24/8
f 18/18/9 44/44/9 17/17/9
f 44/44/9 18/18/9 38/38/9
f 24/24/10 39/39/10 43/43/10
f 39/39/10 24/24/10 25/25/10
f 16/16/11 44/44/11 35/35/11
f 44/44/11 16/16/11 17/17/11
f 45/45/1 14/14/1 19/19/1
f 14/14/1 45/45/1 15/15/1
f 46/46/1 5/5/1 47/47/1
f 5/5/1 46/46/1 3/3/1
f 5/5/1 3/3/1 2/2/1
f 47/47/1 5/5/1 7/7/1
f 47/47/1 7/7/1 9/9/1
f 47/47/1 9/9/1 11/11/1
f 48/48/1 26/26/1 21/21/1
f 26/26/1 48/48/1 28/28/1
f 36/36/1 31/31/1 32/32/1
f 31/31/1 36/36/1 35/35/1
f 31/31/1 35/35/1 29/29/1
f 29/29/1 35/35/1 44/44/1
f 29/29/1 44/44/1 38/38/1
f 29/29/1 38/38/1 37/37/1
f 29/29/1 37/37/1 42/42/1
f 29/29/1 42/42/1 30/30/1
f 30/30/1 42/42/1 41/41/1
f 30/30/1 41/41/1 43/43/1
f 30/30/1 43/43/1 33/33/1
f 33/33/1 43/43/1 39/39/1
f 33/33/1 39/39/1 34/34/1
f 34/34/1 39/39/1 40/40/1
