# Blender v2.92.0 OBJ File: 'OGConvert.blend'
# www.blender.org
o house_type07
v 2.240000 1.040000 -3.040000
v 2.400000 1.200000 -3.040000
v 4.160000 1.040000 -3.040000
v 2.240000 2.160000 -3.040000
v 2.400000 2.000000 -3.040000
v 4.000000 2.000000 -3.040000
v 4.000000 1.200000 -3.040000
v 4.160000 2.160000 -3.040000
v 2.240000 1.040000 -3.200000
v 2.240000 2.160000 -3.200000
v 4.160000 1.040000 -3.200000
v 4.160000 2.160000 -3.200000
v 2.000000 0.800000 -3.200000
v 4.400000 0.800000 -3.200000
v 2.000000 2.400000 -3.200000
v 4.400000 2.400000 -3.200000
v 0.800000 0.000000 -3.200000
v 4.800000 0.400000 -3.200000
v 4.800000 0.000000 -3.200000
v 0.800000 0.400000 -3.200000
v -0.800000 2.400000 -3.280000
v -0.560000 0.000000 -3.280000
v -0.800000 0.000000 -3.280000
v -0.560000 2.160000 -3.280000
v 0.560000 2.160000 -3.280000
v 0.800000 2.400000 -3.280000
v 0.800000 0.000000 -3.280000
v 0.560000 0.000000 -3.280000
v 0.800000 2.400000 -3.200000
v -0.800000 2.400000 -3.200000
v -0.560000 2.160000 -3.040000
v 0.560000 2.160000 -3.040000
v -0.800000 0.000000 -3.200000
v -0.800000 0.400000 -3.200000
v 0.560000 0.000000 -3.040000
v -0.560000 0.000000 -3.040000
v 4.000000 0.800000 3.200000
v 3.760000 1.040000 3.200000
v 2.400000 0.800000 3.200000
v 4.000000 2.400000 3.200000
v 3.760000 2.160000 3.200000
v 2.640000 2.160000 3.200000
v 2.640000 1.040000 3.200000
v 2.400000 2.400000 3.200000
v 2.640000 1.040000 3.040000
v 2.640000 2.160000 3.040000
v 3.760000 2.160000 3.040000
v 3.760000 1.040000 3.040000
v 3.600000 1.200000 3.040000
v 3.600000 2.000000 3.040000
v 2.800000 2.000000 3.040000
v 2.800000 1.200000 3.040000
v 4.800000 0.400000 3.200000
v -2.640000 -0.000000 3.200000
v 4.800000 -0.000000 3.200000
v -2.400000 0.400000 3.200000
v -2.640000 2.160000 3.200000
v -2.400000 2.400000 3.200000
v -3.760000 2.160000 3.200000
v -4.000000 2.400000 3.200000
v -4.000000 0.400000 3.200000
v -3.760000 -0.000000 3.200000
v -4.800000 0.400000 3.200000
v -4.800000 -0.000000 3.200000
v 0.000000 4.581437 -2.864000
v 0.630117 4.112000 -3.024000
v 0.630117 4.112000 -2.864000
v 0.000000 4.581437 -3.024000
v -0.630117 4.112000 -2.864000
v -0.630117 4.112000 -3.024000
v -0.880000 4.125358 -3.024000
v 0.880000 3.952000 -3.024000
v -0.880000 3.952000 -3.024000
v 0.000000 4.780958 -3.024000
v 0.880000 4.125358 -3.024000
v 0.560000 1.040000 3.200000
v 0.560000 2.160000 3.040000
v 0.560000 1.040000 3.040000
v 0.560000 2.160000 3.200000
v 0.400000 1.200000 3.040000
v -0.560000 1.040000 3.040000
v 0.400000 2.000000 3.040000
v -0.400000 2.000000 3.040000
v -0.400000 1.200000 3.040000
v -0.560000 2.160000 3.040000
v -0.560000 2.160000 3.200000
v -0.560000 1.040000 3.200000
v 0.800000 0.800000 3.200000
v -0.800000 0.800000 3.200000
v 0.800000 2.400000 3.200000
v -0.800000 2.400000 3.200000
v -4.800000 0.400000 -3.200000
v -4.800000 0.000000 -3.200000
v -4.400000 0.800000 -3.200000
v -4.160000 1.040000 -3.200000
v -2.000000 0.800000 -3.200000
v -4.400000 2.400000 -3.200000
v -4.160000 2.160000 -3.200000
v -2.240000 2.160000 -3.200000
v -2.240000 1.040000 -3.200000
v -2.000000 2.400000 -3.200000
v -3.760000 -0.000000 3.040000
v -2.640000 -0.000000 3.040000
v -2.240000 1.040000 -3.040000
v -2.240000 2.160000 -3.040000
v -4.160000 2.160000 -3.040000
v -4.160000 1.040000 -3.040000
v -4.000000 1.200000 -3.040000
v -4.000000 2.000000 -3.040000
v -2.400000 2.000000 -3.040000
v -2.400000 1.200000 -3.040000
v -3.760000 2.160000 3.040000
v -2.640000 2.160000 3.040000
v -0.160000 1.760000 -3.040000
v 0.160000 0.400000 -3.040000
v -0.160000 0.400000 -3.040000
v 0.160000 1.760000 -3.040000
v 5.200000 5.900000 0.000000
v 5.200000 2.960000 -3.520000
v 5.200000 3.152000 -3.664000
v 5.200000 5.600000 0.000000
v 5.200000 3.152000 3.664000
v 5.200000 2.960000 3.520000
v 1.200000 3.632000 -3.024000
v -5.200000 3.152000 -3.664000
v 1.200000 4.526000 -1.832000
v -1.200000 3.632000 -3.024000
v 0.000000 5.420000 -0.640000
v -5.200000 5.900000 0.000000
v -1.200000 4.526000 -1.832000
v -1.200000 4.286000 -2.152000
v 1.200000 4.286000 -2.152000
v -1.200000 4.286000 -3.024000
v -1.200000 4.526000 -3.424000
v -1.200000 4.286000 -3.424000
v 1.200000 4.526000 -3.424000
v 0.000000 5.420000 -3.424000
v 0.000000 5.180000 -3.424000
v 0.000000 5.180000 -3.024000
v 1.200000 4.286000 -3.424000
v 1.200000 4.286000 -3.024000
v -5.200000 2.960000 -3.520000
v 4.800000 5.600000 0.000000
v 4.800000 3.200000 -3.200000
v -4.800000 3.200000 -3.200000
v -5.200000 5.600000 0.000000
v -4.800000 5.600000 0.000000
v -5.200000 2.960000 3.520000
v 4.800000 3.200000 3.200000
v -4.800000 3.200000 3.200000
v -5.200000 3.152000 3.664000
vt 0.695579 0.726163
vt 0.699993 0.732903
vt 0.695579 0.807038
vt 0.726477 0.726163
vt 0.722063 0.732903
vt 0.722063 0.800299
vt 0.699993 0.800299
vt 0.726477 0.807038
vt 0.728076 0.389182
vt 0.721337 0.436359
vt 0.721337 0.389182
vt 0.728076 0.436359
vt 0.297052 0.713345
vt 0.291661 0.632470
vt 0.297052 0.632470
vt 0.291661 0.713345
vt 0.784640 0.389182
vt 0.777900 0.436359
vt 0.777900 0.389182
vt 0.784640 0.436359
vt 0.218050 0.701913
vt 0.224671 0.712022
vt 0.218050 0.803007
vt 0.262189 0.701913
vt 0.255569 0.712022
vt 0.255569 0.792898
vt 0.224671 0.792898
vt 0.262189 0.803007
vt 0.868415 0.361562
vt 0.863322 0.280687
vt 0.868415 0.280687
vt 0.863322 0.361562
vt 0.195980 0.651366
vt 0.207015 0.819856
vt 0.195980 0.819856
vt 0.207015 0.651366
vt 0.633599 0.726163
vt 0.567389 0.736272
vt 0.567389 0.726163
vt 0.626978 0.736272
vt 0.626978 0.783450
vt 0.633599 0.793559
vt 0.567389 0.793559
vt 0.567389 0.783450
vt 0.688178 0.860549
vt 0.685482 0.793153
vt 0.688178 0.793153
vt 0.685482 0.860549
vt 0.706296 0.389182
vt 0.713935 0.436359
vt 0.706296 0.436359
vt 0.713935 0.389182
vt 0.291661 0.516573
vt 0.295030 0.415479
vt 0.295030 0.516573
vt 0.291661 0.415479
vt 0.845812 0.379073
vt 0.845812 0.439729
vt 0.845812 0.389182
vt 0.291661 0.625069
vt 0.295030 0.523974
vt 0.295030 0.625069
vt 0.291661 0.523974
vt 0.604954 0.800960
vt 0.604954 0.800960
vt 0.604954 0.800960
vt 0.845812 0.371671
vt 0.855921 0.280687
vt 0.855921 0.371671
vt 0.845812 0.280687
vt 0.831335 0.856238
vt 0.841444 0.765253
vt 0.841444 0.856238
vt 0.831335 0.765253
vt 0.232039 0.037399
vt 0.238660 0.047508
vt 0.232039 0.104795
vt 0.276179 0.037399
vt 0.269558 0.047508
vt 0.269558 0.094685
vt 0.238660 0.094685
vt 0.276179 0.104795
vt 0.798781 0.389182
vt 0.792041 0.436359
vt 0.792041 0.389182
vt 0.798781 0.436359
vt 0.264465 0.047508
vt 0.264465 0.094685
vt 0.585574 0.800960
vt 0.580182 0.848138
vt 0.580182 0.800960
vt 0.585574 0.848138
vt 0.233567 0.047508
vt 0.237981 0.054248
vt 0.233567 0.094685
vt 0.260051 0.054248
vt 0.260051 0.087946
vt 0.237981 0.087946
vt 0.742217 0.389182
vt 0.735477 0.436359
vt 0.735477 0.389182
vt 0.742217 0.436359
vt 0.221004 0.003701
vt 0.209969 0.317093
vt 0.209969 0.003701
vt 0.221004 0.306983
vt 0.269558 0.317093
vt 0.276179 0.306983
vt 0.269558 0.364270
vt 0.276179 0.374380
vt 0.221004 0.374380
vt 0.209969 0.364270
vt 0.221004 0.408078
vt 0.209969 0.408078
vt 0.514778 0.718762
vt 0.497929 0.449177
vt 0.514778 0.449177
vt 0.497929 0.718762
vt 0.592975 0.800960
vt 0.597553 0.832727
vt 0.592975 0.830493
vt 0.597553 0.803194
vt 0.506078 0.750168
vt 0.524122 0.776710
vt 0.519029 0.776710
vt 0.511171 0.750168
vt 0.511540 0.739642
vt 0.506757 0.813778
vt 0.506757 0.739642
vt 0.529626 0.776710
vt 0.511171 0.803252
vt 0.511540 0.813778
vt 0.831749 0.422048
vt 0.826357 0.368963
vt 0.831749 0.368963
vt 0.826357 0.422048
vt 0.756358 0.389182
vt 0.749618 0.436359
vt 0.749618 0.389182
vt 0.756358 0.436359
vt 0.233567 0.182301
vt 0.237981 0.189040
vt 0.233567 0.229478
vt 0.264465 0.182301
vt 0.260051 0.189040
vt 0.260051 0.222738
vt 0.237981 0.222738
vt 0.264465 0.229478
vt 0.660234 0.793153
vt 0.653495 0.840330
vt 0.653495 0.793153
vt 0.660234 0.840330
vt 0.232039 0.172191
vt 0.238660 0.182301
vt 0.232039 0.239587
vt 0.276179 0.172191
vt 0.269558 0.182301
vt 0.269558 0.229478
vt 0.238660 0.229478
vt 0.276179 0.239587
vt 0.572781 0.800960
vt 0.567389 0.848138
vt 0.567389 0.800960
vt 0.572781 0.848138
vt 0.942182 0.273285
vt 0.925333 0.003701
vt 0.942182 0.003701
vt 0.925333 0.273285
vt 0.218050 0.432328
vt 0.224671 0.442437
vt 0.218050 0.533422
vt 0.262189 0.432328
vt 0.255569 0.442437
vt 0.255569 0.523313
vt 0.224671 0.523313
vt 0.262189 0.533422
vt 0.204876 0.364270
vt 0.006247 0.408078
vt 0.204876 0.317093
vt 0.006247 0.239587
vt 0.003701 0.229478
vt 0.011340 0.229478
vt 0.011340 0.182301
vt 0.003701 0.172191
vt 0.006247 0.172191
vt 0.006247 0.003701
vt 0.003701 0.239587
vt 0.003701 0.182301
vt 0.674375 0.793153
vt 0.667635 0.840330
vt 0.667635 0.793153
vt 0.674375 0.840330
vt 0.646093 0.874028
vt 0.641000 0.793153
vt 0.646093 0.793153
vt 0.641000 0.874028
vt 0.770499 0.389182
vt 0.763759 0.436359
vt 0.763759 0.389182
vt 0.770499 0.436359
vt 0.297052 0.801622
vt 0.291661 0.720747
vt 0.297052 0.720747
vt 0.291661 0.801622
vt 0.207015 0.415479
vt 0.195980 0.583969
vt 0.195980 0.415479
vt 0.207015 0.583969
vt 0.807513 0.280687
vt 0.811927 0.287426
vt 0.807513 0.361562
vt 0.838410 0.280687
vt 0.833997 0.287426
vt 0.833997 0.354822
vt 0.811927 0.354822
vt 0.838410 0.361562
vt 0.848845 0.856238
vt 0.855585 0.765253
vt 0.855585 0.856238
vt 0.848845 0.765253
vt 0.264465 0.317093
vt 0.264465 0.364270
vt 0.862986 0.856238
vt 0.869726 0.765253
vt 0.869726 0.856238
vt 0.862986 0.765253
vt 0.657849 0.737198
vt 0.671329 0.774717
vt 0.657849 0.774717
vt 0.671329 0.737198
vt 0.506078 0.803252
vt 0.872459 0.603514
vt 0.996299 0.751786
vt 0.988212 0.757852
vt 0.885096 0.603514
vt 0.988212 0.449177
vt 0.996299 0.455243
vt 0.698895 0.003701
vt 0.665197 0.172191
vt 0.505973 0.003701
vt 0.698895 0.441776
vt 0.602434 0.172191
vt 0.665197 0.273285
vt 0.539671 0.222738
vt 0.505973 0.441776
vt 0.602434 0.273285
vt 0.619283 0.273285
vt 0.863322 0.385812
vt 0.863322 0.368963
vt 0.863322 0.431726
vt 0.813824 0.815463
vt 0.823934 0.832312
vt 0.813824 0.832312
vt 0.823934 0.765253
vt 0.813824 0.778732
vt 0.728890 0.381781
vt 0.800111 0.331234
vt 0.782538 0.381781
vt 0.706296 0.331234
vt 0.728890 0.280687
vt 0.782538 0.280687
vt 0.515972 0.726163
vt 0.553367 0.776710
vt 0.540635 0.776710
vt 0.528704 0.726163
vt 0.807513 0.368963
vt 0.818956 0.430790
vt 0.807513 0.425206
vt 0.818956 0.374547
vt 0.535325 0.726163
vt 0.559988 0.776710
vt 0.535325 0.827257
vt 0.528704 0.827257
vt 0.741217 0.765253
vt 0.751327 0.832312
vt 0.741217 0.832312
vt 0.751327 0.815463
vt 0.751327 0.778732
vt 0.976746 0.003701
vt 0.966866 0.441776
vt 0.966866 0.003701
vt 0.976746 0.441776
vt 0.188579 0.432328
vt 0.003701 0.415479
vt 0.188579 0.415479
vt 0.020508 0.432328
vt 0.003701 0.853554
vt 0.020508 0.836705
vt 0.188579 0.853554
vt 0.188579 0.836705
vt 0.305650 0.449177
vt 0.322457 0.870403
vt 0.305650 0.887252
vt 0.322457 0.466026
vt 0.490528 0.466026
vt 0.490528 0.449177
vt 0.490528 0.870403
vt 0.490528 0.887252
vt 0.949584 0.441776
vt 0.959464 0.003701
vt 0.959464 0.441776
vt 0.949584 0.003701
vt 0.865058 0.455243
vt 0.741217 0.603514
vt 0.856970 0.449177
vt 0.753854 0.603514
vt 0.865058 0.751786
vt 0.856970 0.757851
vt 0.498572 0.441776
vt 0.305650 0.003701
vt 0.498572 0.003701
vt 0.305650 0.441776
vt 0.641000 0.785752
vt 0.688178 0.785752
vt 0.641000 0.726163
vt 0.688178 0.726163
vt 0.284259 0.415479
vt 0.262189 0.583969
vt 0.262189 0.651366
vt 0.284259 0.819856
vt 0.298249 0.003701
vt 0.298249 0.408078
vt 0.875817 0.348083
vt 0.875817 0.415479
vt 0.875817 0.280687
vt 0.733816 0.583969
vt 0.632722 0.449177
vt 0.632722 0.718762
vt 0.778875 0.815463
vt 0.497929 0.726163
vt 0.497929 0.827257
vt 0.515972 0.827257
vt 0.786276 0.815463
vt 0.807390 0.003701
vt 0.706296 0.138493
vt 0.807390 0.273285
vn -0.0000 0.0000 -1.0000
vn 1.0000 0.0000 0.0000
vn 0.0000 1.0000 0.0000
vn -1.0000 0.0000 0.0000
vn 0.0000 -1.0000 0.0000
vn -0.0000 -0.0000 1.0000
vn -0.5974 -0.8019 0.0000
vn 0.5974 -0.8019 0.0000
vn 0.0000 0.8000 -0.6000
vn -0.0001 0.8001 -0.5998
vn 0.5974 0.8019 0.0000
vn -0.5974 0.8019 -0.0000
vn 0.0000 -0.6000 -0.8000
vn -0.0000 -0.8000 0.6000
vn 0.0000 -0.8000 -0.6000
vn 0.0000 -0.6000 0.8000
vn 0.0000 0.8000 0.6000
s 1
f 1/1/1 2/2/1 3/3/1
f 2/2/1 1/1/1 4/4/1
f 2/2/1 4/4/1 5/5/1
f 5/5/1 4/4/1 6/6/1
f 7/7/1 3/3/1 2/2/1
f 3/3/1 7/7/1 8/8/1
f 8/8/1 7/7/1 6/6/1
f 8/8/1 6/6/1 4/4/1
f 4/9/2 9/10/2 10/11/2
f 9/10/2 4/9/2 1/12/2
f 9/13/3 3/14/3 11/15/3
f 3/14/3 9/13/3 1/16/3
f 3/17/4 12/18/4 11/19/4
f 12/18/4 3/17/4 8/20/4
f 13/21/1 9/22/1 14/23/1
f 9/22/1 13/21/1 15/24/1
f 9/22/1 15/24/1 10/25/1
f 10/25/1 15/24/1 12/26/1
f 11/27/1 14/23/1 9/22/1
f 14/23/1 11/27/1 16/28/1
f 16/28/1 11/27/1 12/26/1
f 16/28/1 12/26/1 15/24/1
f 4/29/5 12/30/5 8/31/5
f 12/30/5 4/29/5 10/32/5
f 17/33/1 18/34/1 19/35/1
f 18/34/1 17/33/1 20/36/1
f 21/37/1 22/38/1 23/39/1
f 22/38/1 21/37/1 24/40/1
f 24/40/1 21/37/1 25/41/1
f 26/42/1 25/41/1 21/37/1
f 27/43/1 25/41/1 26/42/1
f 25/41/1 27/43/1 28/44/1
f 21/45/3 29/46/3 26/47/3
f 29/46/3 21/45/3 30/48/3
f 31/49/5 25/50/5 32/51/5
f 25/50/5 31/49/5 24/52/5
f 29/53/2 27/54/2 26/55/2
f 27/54/2 29/53/2 17/56/2
f 17/57/2 29/58/2 20/59/3
f 33/60/4 21/61/4 23/62/4
f 21/61/4 33/60/4 30/63/4
f 30/64/4 33/65/4 34/66/2
f 35/67/4 25/68/4 28/69/4
f 25/68/4 35/67/4 32/70/4
f 31/71/2 22/72/2 24/73/2
f 22/72/2 31/71/2 36/74/2
f 37/75/6 38/76/6 39/77/1
f 38/76/6 37/75/6 40/78/6
f 38/76/6 40/78/6 41/79/6
f 41/79/6 40/78/6 42/80/6
f 43/81/6 39/77/1 38/76/6
f 39/77/1 43/81/6 44/82/6
f 44/82/6 43/81/6 42/80/6
f 44/82/6 42/80/6 40/78/6
f 42/83/2 45/84/2 46/85/2
f 45/84/2 42/83/2 43/86/2
f 42/80/5 47/87/5 41/79/5
f 47/87/5 42/80/5 46/88/5
f 48/89/3 43/90/3 38/91/3
f 43/90/3 48/89/3 45/92/3
f 48/93/6 49/94/6 45/95/6
f 49/94/6 48/93/6 47/87/6
f 49/94/6 47/87/6 50/96/6
f 50/96/6 47/87/6 51/97/6
f 52/98/6 45/95/6 49/94/6
f 45/95/6 52/98/6 46/88/6
f 46/88/6 52/98/6 51/97/6
f 46/88/6 51/97/6 47/87/6
f 38/99/4 47/100/4 48/101/4
f 47/100/4 38/99/4 41/102/4
f 53/103/6 54/104/6 55/105/6
f 54/104/6 53/103/6 56/106/6
f 54/104/6 56/106/6 57/107/6
f 57/107/6 56/106/6 58/108/6
f 57/107/6 58/108/6 59/109/6
f 60/110/6 59/109/6 58/108/6
f 61/111/6 59/109/6 60/110/6
f 59/109/6 61/111/6 62/112/6
f 63/113/6 62/112/6 61/111/6
f 62/112/6 63/113/6 64/114/6
f 53/115/2 19/116/2 18/117/2
f 19/116/2 53/115/2 55/118/2
f 65/119/7 66/120/7 67/121/7
f 66/120/7 65/119/7 68/122/7
f 69/123/8 68/124/8 65/125/8
f 68/124/8 69/123/8 70/126/8
f 71/127/1 72/128/1 73/129/1
f 72/128/1 71/127/1 70/126/1
f 70/126/1 71/127/1 68/124/1
f 68/124/1 71/127/1 74/130/1
f 66/131/1 72/128/1 70/126/1
f 72/128/1 66/131/1 75/132/1
f 75/132/1 66/131/1 68/124/1
f 75/132/1 68/124/1 74/130/1
f 70/133/3 67/134/3 66/135/3
f 67/134/3 70/133/3 69/136/3
f 76/137/4 77/138/4 78/139/4
f 77/138/4 76/137/4 79/140/4
f 78/141/6 80/142/6 81/143/6
f 80/142/6 78/141/6 77/144/6
f 80/142/6 77/144/6 82/145/6
f 82/145/6 77/144/6 83/146/6
f 84/147/6 81/143/6 80/142/6
f 81/143/6 84/147/6 85/148/6
f 85/148/6 84/147/6 83/146/6
f 85/148/6 83/146/6 77/144/6
f 86/149/2 81/150/2 85/151/2
f 81/150/2 86/149/2 87/152/2
f 88/153/6 76/154/6 89/155/6
f 76/154/6 88/153/6 90/156/6
f 76/154/6 90/156/6 79/157/6
f 79/157/6 90/156/6 86/158/6
f 87/159/6 89/155/6 76/154/6
f 89/155/6 87/159/6 91/160/6
f 91/160/6 87/159/6 86/158/6
f 91/160/6 86/158/6 90/156/6
f 86/158/5 77/144/5 79/157/5
f 77/144/5 86/158/5 85/148/5
f 78/161/3 87/162/3 76/163/3
f 87/162/3 78/161/3 81/164/3
f 64/165/4 92/166/4 93/167/4
f 92/166/4 64/165/4 63/168/4
f 94/169/1 95/170/1 96/171/1
f 95/170/1 94/169/1 97/172/1
f 95/170/1 97/172/1 98/173/1
f 98/173/1 97/172/1 99/174/1
f 100/175/1 96/171/1 95/170/1
f 96/171/1 100/175/1 101/176/1
f 101/176/1 100/175/1 99/174/1
f 101/176/1 99/174/1 97/172/1
f 64/114/5 102/177/5 62/112/5
f 93/178/5 102/177/5 64/114/5
f 93/178/5 103/179/5 102/177/5
f 33/180/5 103/179/5 93/178/5
f 33/180/5 54/104/5 103/179/5
f 22/181/5 54/104/5 33/180/5
f 36/182/5 54/104/5 22/181/5
f 35/183/5 54/104/5 36/182/5
f 27/184/5 54/104/5 35/183/5
f 17/185/5 54/104/5 27/184/5
f 19/186/5 54/104/5 17/185/5
f 54/104/5 19/186/5 55/105/5
f 23/187/5 22/181/5 33/180/5
f 28/188/5 27/184/5 35/183/5
f 104/189/4 99/190/4 100/191/4
f 99/190/4 104/189/4 105/192/4
f 106/193/5 99/194/5 105/195/5
f 99/194/5 106/193/5 98/196/5
f 106/197/2 95/198/2 98/199/2
f 95/198/2 106/197/2 107/200/2
f 95/201/3 104/202/3 100/203/3
f 104/202/3 95/201/3 107/204/3
f 92/205/1 33/206/1 93/207/1
f 33/206/1 92/205/1 34/208/1
f 107/209/1 108/210/1 104/211/1
f 108/210/1 107/209/1 106/212/1
f 108/210/1 106/212/1 109/213/1
f 109/213/1 106/212/1 110/214/1
f 111/215/1 104/211/1 108/210/1
f 104/211/1 111/215/1 105/216/1
f 105/216/1 111/215/1 110/214/1
f 105/216/1 110/214/1 106/212/1
f 59/217/2 102/218/2 112/219/2
f 102/218/2 59/217/2 62/220/2
f 59/109/5 113/221/5 57/107/5
f 113/221/5 59/109/5 112/222/5
f 54/223/4 113/224/4 103/225/4
f 113/224/4 54/223/4 57/226/4
f 5/5/1 7/7/1 2/2/1
f 7/7/1 5/5/1 6/6/1
f 114/227/1 115/228/1 116/229/1
f 115/228/1 114/227/1 117/230/1
f 50/96/6 52/98/6 49/94/6
f 52/98/6 50/96/6 51/97/6
f 65/125/1 67/231/1 69/123/1
f 82/145/6 84/147/6 80/142/6
f 84/147/6 82/145/6 83/146/6
f 109/213/1 111/215/1 108/210/1
f 111/215/1 109/213/1 110/214/1
f 118/232/2 119/233/2 120/234/2
f 119/233/2 118/232/2 121/235/2
f 121/235/2 118/232/2 122/236/2
f 121/235/2 122/236/2 123/237/2
f 120/238/9 124/239/9 118/240/9
f 124/239/9 120/238/9 125/241/9
f 118/240/9 124/239/9 126/242/9
f 124/239/9 125/241/9 127/243/9
f 128/244/9 118/240/9 126/242/9
f 118/240/9 128/244/9 129/245/9
f 129/245/9 127/243/9 125/241/9
f 129/245/9 128/244/9 130/246/9
f 129/245/9 130/246/9 131/247/9
f 129/245/9 131/247/9 127/243/9
f 132/248/10 126/249/9 124/250/9
f 133/251/4 134/252/4 135/253/4
f 134/252/4 133/251/4 130/254/4
f 130/254/4 133/251/4 131/255/4
f 136/256/11 128/257/11 126/258/11
f 128/257/11 136/256/11 137/259/11
f 134/260/12 128/257/12 137/259/12
f 128/257/12 134/260/12 130/261/12
f 133/262/8 138/263/8 139/264/8
f 138/263/8 133/262/8 135/265/8
f 139/266/7 140/267/7 141/268/7
f 140/267/7 139/266/7 138/269/7
f 134/270/1 138/263/1 135/265/1
f 138/263/1 134/270/1 137/271/1
f 136/272/1 138/263/1 137/271/1
f 138/263/1 136/272/1 140/273/1
f 126/274/2 140/275/2 136/276/2
f 140/275/2 126/274/2 141/277/2
f 141/277/2 126/274/2 132/278/2
f 125/279/13 119/280/13 142/281/13
f 119/280/13 125/279/13 120/282/13
f 143/283/14 119/284/14 121/285/14
f 119/284/14 143/283/14 144/286/14
f 144/286/14 142/287/14 119/284/14
f 142/287/14 144/286/14 145/288/14
f 142/287/14 145/288/14 146/289/14
f 146/289/14 145/288/14 147/290/14
f 148/291/15 149/292/15 123/293/15
f 149/292/15 148/291/15 150/294/15
f 150/294/15 148/291/15 147/295/15
f 147/295/15 148/291/15 146/296/15
f 143/297/15 123/293/15 149/292/15
f 123/293/15 143/297/15 121/298/15
f 122/299/16 148/300/16 123/301/16
f 148/300/16 122/299/16 151/302/16
f 142/303/4 129/304/4 125/305/4
f 129/304/4 142/303/4 146/306/4
f 129/304/4 146/306/4 148/307/4
f 129/304/4 148/307/4 151/308/4
f 129/309/17 122/310/17 118/311/17
f 122/310/17 129/309/17 151/312/17
f 36/313/1 116/229/1 35/314/1
f 116/229/1 36/313/1 31/315/1
f 116/229/1 31/315/1 114/227/1
f 114/227/1 31/315/1 117/230/1
f 115/228/1 35/314/1 116/229/1
f 35/314/1 115/228/1 32/316/1
f 32/316/1 115/228/1 117/230/1
f 32/316/1 117/230/1 31/315/1
f 113/221/6 102/177/6 103/179/6
f 102/177/6 113/221/6 112/222/6
f 92/205/1 94/169/1 34/208/1
f 94/169/1 92/205/1 145/317/1
f 94/169/1 145/317/1 97/172/1
f 97/172/1 145/317/1 101/176/1
f 101/176/1 145/317/1 30/318/1
f 30/318/1 145/317/1 29/319/1
f 29/319/1 145/317/1 15/24/1
f 15/24/1 145/317/1 16/28/1
f 18/34/1 14/23/1 144/320/1
f 14/23/1 18/34/1 13/21/1
f 144/320/1 14/23/1 16/28/1
f 144/320/1 16/28/1 145/317/1
f 20/36/1 13/21/1 18/34/1
f 13/21/1 20/36/1 29/319/1
f 13/21/1 29/319/1 15/24/1
f 34/208/1 96/171/1 30/318/1
f 96/171/1 34/208/1 94/169/1
f 30/318/1 96/171/1 101/176/1
f 53/103/6 37/75/6 56/106/6
f 37/75/6 53/103/6 149/321/6
f 37/75/6 149/321/6 40/78/6
f 40/78/6 149/321/6 44/82/6
f 44/82/6 149/321/6 90/156/6
f 90/156/6 149/321/6 91/160/6
f 91/160/6 149/321/6 58/108/6
f 58/108/6 149/321/6 60/110/6
f 60/110/6 63/113/6 61/111/6
f 63/113/6 60/110/6 150/322/6
f 150/322/6 60/110/6 149/321/6
f 56/106/6 89/155/6 58/108/6
f 89/155/6 56/106/6 88/153/6
f 88/153/6 56/106/6 37/75/6
f 58/108/6 89/155/6 91/160/6
f 39/323/1 88/324/6 37/325/6
f 88/153/6 39/77/1 90/156/6
f 90/156/6 39/77/1 44/82/6
f 143/326/2 18/117/2 144/327/2
f 18/117/2 143/326/2 53/115/2
f 53/115/2 143/326/2 149/328/2
f 132/278/2 124/329/2 141/277/2
f 127/330/1 73/129/1 124/331/1
f 73/129/1 127/330/1 133/262/1
f 73/129/1 133/262/1 71/127/1
f 74/130/1 133/262/1 139/264/1
f 71/127/1 133/262/1 74/130/1
f 124/331/1 72/128/1 141/332/1
f 72/128/1 124/331/1 73/129/1
f 141/332/1 72/128/1 75/132/1
f 141/332/1 75/132/1 74/130/1
f 141/332/1 74/130/1 139/264/1
f 131/255/4 133/251/4 127/333/4
f 63/168/4 145/334/4 92/166/4
f 145/334/4 63/168/4 147/335/4
f 147/335/4 63/168/4 150/336/4
