# Blender v2.92.0 OBJ File: 'OGConvert.blend'
# www.blender.org
o kitchenBarEnd
v -0.444804 -0.000000 0.472304
v -0.552500 -0.000000 0.389667
v -0.552500 0.465935 0.389667
v -0.444804 0.465935 0.472305
v -0.677914 -0.000000 0.337719
v -0.677914 0.465935 0.337719
v -0.310219 -0.000000 0.705414
v -0.310219 0.465935 0.705414
v -0.292500 0.465935 0.840000
v -0.292500 -0.000000 0.840000
v -0.812500 -0.000000 0.320000
v -0.812500 0.465935 0.320000
v -0.310219 0.465935 0.974586
v -0.310219 -0.000000 0.974586
v -0.362167 -0.000000 1.100000
v -0.362167 0.465935 1.100000
v -0.444804 0.465935 1.207696
v -0.444804 -0.000000 1.207696
v -0.812500 -0.000000 1.360000
v -0.677914 -0.000000 1.342282
v -0.677914 0.465935 1.342282
v -0.812500 0.465935 1.360000
v -0.552500 -0.000000 1.290334
v -0.552500 0.465935 1.290334
v -0.362167 0.465935 0.580000
v -0.362167 -0.000000 0.580000
v -0.184648 0.465935 0.664003
v -0.184648 3.120000 0.664003
v -0.162500 3.120000 0.840000
v -0.162500 0.465935 0.840000
v -0.184648 3.120000 1.015997
v -0.184648 0.465935 1.015997
v -0.249584 0.465935 1.180000
v -0.249584 3.120000 1.180000
v -0.352881 3.120000 1.320833
v -0.352881 0.465935 1.320833
v -0.487500 0.465935 1.428898
v -0.487500 3.120000 1.428898
v -0.644268 0.465935 1.496830
v -0.644268 3.120000 1.496830
v -0.487500 0.465935 0.251103
v -0.644268 0.465935 0.183170
v -0.644268 3.120000 0.183171
v -0.487500 3.120000 0.251103
v -0.352881 0.465935 0.359167
v -0.352881 3.120000 0.359168
v -0.249584 3.120000 0.500000
v -0.249584 0.465935 0.500000
v -0.812500 0.465935 1.520000
v -0.812500 3.120000 1.520000
v -0.812500 0.465935 0.160000
v -0.812500 3.120000 0.160000
v -0.812500 3.360000 1.680000
v -0.812500 3.360000 0.000000
v -0.812500 3.120000 0.000000
v -0.812500 3.120000 1.680000
v -0.027685 3.120000 0.622592
v -0.027685 3.360000 0.622592
v 0.000000 3.360000 0.840000
v 0.000000 3.120000 0.840000
v -0.027685 3.360000 1.057408
v -0.027685 3.120000 1.057408
v -0.108854 3.120000 1.260000
v -0.108854 3.360000 1.260000
v -0.237976 3.360000 1.433970
v -0.237976 3.120000 1.433970
v -0.406250 3.120000 1.567462
v -0.406250 3.360000 1.567462
v -0.602210 3.120000 1.651378
v -0.602210 3.360000 1.651378
v -0.237976 3.120000 0.246030
v -0.406250 3.120000 0.112539
v -0.406250 3.360000 0.112539
v -0.237976 3.360000 0.246030
v -0.108854 3.360000 0.420000
v -0.602210 3.360000 0.028622
v -0.602210 3.120000 0.028622
v -0.108854 3.120000 0.420000
vt 0.002853 0.824974
vt 0.002853 0.796424
vt 0.104077 0.796424
vt 0.104077 0.824974
vt 0.002853 0.766934
vt 0.104077 0.766934
vt 0.216712 0.766980
vt 0.317936 0.766980
vt 0.317936 0.796471
vt 0.216712 0.796471
vt 0.002853 0.738514
vt 0.104077 0.738514
vt 0.317936 0.824976
vt 0.216712 0.824976
vt 0.109783 0.738514
vt 0.211006 0.738514
vt 0.211006 0.764178
vt 0.109783 0.764178
vt 0.109783 0.850638
vt 0.109783 0.822218
vt 0.211006 0.822218
vt 0.211006 0.850638
vt 0.109783 0.792728
vt 0.211006 0.792728
vt 0.317936 0.850554
vt 0.216712 0.850554
vt 0.104077 0.850638
vt 0.002853 0.850638
vt 0.524303 0.727358
vt 0.520454 0.698120
vt 0.524303 0.668881
vt 0.535589 0.641635
vt 0.535589 0.754604
vt 0.553542 0.618238
vt 0.553542 0.778001
vt 0.576939 0.600285
vt 0.576939 0.795954
vt 0.604185 0.589000
vt 0.604185 0.807240
vt 0.633423 0.585151
vt 0.633423 0.811089
vt 0.216712 0.738514
vt 0.317936 0.738514
vt 0.482908 0.002853
vt 0.482908 0.579445
vt 0.444372 0.579445
vt 0.444372 0.002853
vt 0.407067 0.579445
vt 0.407067 0.002853
vt 0.700400 0.002853
vt 0.700400 0.579445
vt 0.667793 0.579445
vt 0.667793 0.002853
vt 0.631701 0.002853
vt 0.631701 0.579445
vt 0.594584 0.002853
vt 0.594584 0.579445
vt 0.924419 0.002853
vt 0.961535 0.002853
vt 0.961535 0.579445
vt 0.924419 0.579445
vt 0.888327 0.002853
vt 0.888327 0.579445
vt 0.373536 0.579445
vt 0.373536 0.002853
vt 0.553267 0.002853
vt 0.553267 0.579445
vt 0.520050 0.579445
vt 0.520050 0.002853
vt 0.558973 0.002853
vt 0.558973 0.579445
vt 0.378348 0.771115
vt 0.373536 0.732880
vt 0.378348 0.694645
vt 0.392455 0.659015
vt 0.392455 0.806744
vt 0.414896 0.628419
vt 0.401779 0.732880
vt 0.405628 0.703641
vt 0.416914 0.676395
vt 0.444142 0.604942
vt 0.434867 0.652998
vt 0.458263 0.635045
vt 0.478200 0.590184
vt 0.485509 0.623760
vt 0.514748 0.585151
vt 0.514748 0.619910
vt 0.414896 0.837340
vt 0.405628 0.762118
vt 0.416914 0.789364
vt 0.444142 0.860817
vt 0.434867 0.812761
vt 0.458263 0.830714
vt 0.478200 0.875575
vt 0.485509 0.841999
vt 0.514748 0.880609
vt 0.514748 0.845849
vt 0.997147 0.002853
vt 0.997147 0.579445
vt 0.037613 0.680668
vt 0.037613 0.104077
vt 0.072373 0.104077
vt 0.333071 0.680668
vt 0.367830 0.732808
vt 0.002853 0.732808
vt 0.002853 0.680668
vt 0.298311 0.104077
vt 0.298311 0.002853
vt 0.072373 0.002853
vt 0.333071 0.104077
vt 0.367830 0.680668
vt 0.639129 0.672133
vt 0.691269 0.672133
vt 0.691269 0.719746
vt 0.639129 0.719746
vt 0.691269 0.765819
vt 0.639129 0.765819
vt 0.706106 0.744220
vt 0.758246 0.744220
vt 0.758246 0.784804
vt 0.706106 0.784804
vt 0.706106 0.829784
vt 0.758246 0.829784
vt 0.706106 0.876095
vt 0.758246 0.876095
vt 0.706106 0.920580
vt 0.758246 0.920580
vt 0.763952 0.879996
vt 0.763952 0.835016
vt 0.816092 0.835016
vt 0.816092 0.879996
vt 0.691269 0.807212
vt 0.639129 0.807212
vt 0.712121 0.232573
vt 0.706106 0.185342
vt 0.712121 0.138110
vt 0.729755 0.094097
vt 0.729755 0.276586
vt 0.757806 0.056303
vt 0.757806 0.314381
vt 0.794364 0.027302
vt 0.794364 0.343382
vt 0.836936 0.009071
vt 0.836935 0.361612
vt 0.882621 0.002853
vt 0.882621 0.367830
vt 0.763952 0.788706
vt 0.763952 0.744220
vt 0.816092 0.744220
vt 0.816092 0.788706
vt 0.639129 0.585151
vt 0.691269 0.585151
vt 0.691269 0.626225
vt 0.639129 0.626225
vt 0.712121 0.603257
vt 0.706106 0.556025
vt 0.712121 0.508794
vt 0.729755 0.464781
vt 0.729755 0.647269
vt 0.746221 0.517790
vt 0.757806 0.426986
vt 0.741409 0.556025
vt 0.760328 0.482161
vt 0.794364 0.397985
vt 0.782769 0.451565
vt 0.812015 0.428088
vt 0.836936 0.379755
vt 0.846073 0.413330
vt 0.882621 0.373536
vt 0.882621 0.408296
vt 0.746221 0.594260
vt 0.757806 0.685064
vt 0.760328 0.629890
vt 0.794364 0.714065
vt 0.782769 0.660485
vt 0.812015 0.683962
vt 0.836936 0.732296
vt 0.846073 0.698720
vt 0.882621 0.738514
vt 0.882621 0.703754
vn 0.7071 0.0000 -0.7071
vn 0.5000 0.0000 -0.8660
vn 0.2588 0.0000 -0.9659
vn 0.9659 0.0000 -0.2588
vn 1.0000 0.0000 0.0000
vn 0.1305 0.0000 -0.9914
vn 0.9659 0.0000 0.2588
vn 0.8660 0.0000 0.5000
vn 0.7071 0.0000 0.7071
vn 0.1305 0.0000 0.9914
vn 0.2588 0.0000 0.9659
vn 0.5000 0.0000 0.8660
vn 0.8660 0.0000 -0.5000
vn -0.0000 -1.0000 -0.0000
vn 0.9686 0.0000 -0.2485
vn 0.9686 -0.0000 0.2485
vn 0.8752 -0.0000 0.4837
vn 0.7223 -0.0000 0.6915
vn 0.5164 -0.0000 0.8563
vn 0.2695 -0.0000 0.9630
vn 0.5164 0.0000 -0.8563
vn 0.2695 0.0000 -0.9630
vn 0.7223 0.0000 -0.6915
vn 0.8752 0.0000 -0.4837
vn 0.1364 -0.0000 0.9906
vn -0.0001 -1.0000 -0.0000
vn 0.1364 0.0000 -0.9906
vn -1.0000 -0.0000 0.0000
vn 0.9679 0.0000 -0.2511
vn 0.9679 0.0000 0.2511
vn 0.8729 0.0000 0.4880
vn 0.7184 0.0000 0.6957
vn 0.7184 0.0000 0.6956
vn 0.5121 0.0000 0.8589
vn 0.2667 0.0000 0.9638
vn 0.1349 0.0000 0.9909
vn 0.7184 0.0000 -0.6957
vn 0.5121 0.0000 -0.8589
vn 0.0000 1.0000 0.0000
vn 0.2667 0.0000 -0.9638
vn 0.1349 -0.0000 -0.9909
vn 0.8729 0.0000 -0.4880
s 1
f 1/1/1 2/2/2 3/3/2
f 3/3/2 4/4/1 1/1/1
f 2/2/2 5/5/3 6/6/3
f 6/6/3 3/3/2 2/2/2
f 7/7/4 8/8/4 9/9/5
f 9/9/5 10/10/5 7/7/4
f 5/5/3 11/11/6 12/12/6
f 12/12/6 6/6/3 5/5/3
f 10/10/5 9/9/5 13/13/7
f 13/13/7 14/14/7 10/10/5
f 15/15/8 16/16/8 17/17/9
f 17/17/9 18/18/9 15/15/8
f 19/19/10 20/20/11 21/21/11
f 21/21/11 22/22/10 19/19/10
f 23/23/12 18/18/9 17/17/9
f 17/17/9 24/24/12 23/23/12
f 14/14/7 13/13/7 16/25/8
f 16/25/8 15/26/8 14/14/7
f 1/1/1 4/4/1 25/27/13
f 25/27/13 26/28/13 1/1/1
f 7/29/14 10/30/14 14/31/14
f 14/31/14 15/32/14 7/29/14
f 15/32/14 26/33/14 7/29/14
f 15/32/14 18/34/14 26/33/14
f 18/34/14 1/35/14 26/33/14
f 18/34/14 23/36/14 1/35/14
f 23/36/14 2/37/14 1/35/14
f 23/36/14 20/38/14 2/37/14
f 20/38/14 5/39/14 2/37/14
f 20/38/14 19/40/14 5/39/14
f 19/40/14 11/41/14 5/39/14
f 20/20/11 23/23/12 24/24/12
f 24/24/12 21/21/11 20/20/11
f 26/42/13 25/43/13 8/8/4
f 8/8/4 7/7/4 26/42/13
f 27/44/15 28/45/15 29/46/5
f 29/46/5 30/47/5 27/44/15
f 30/47/5 29/46/5 31/48/16
f 31/48/16 32/49/16 30/47/5
f 33/50/17 34/51/17 35/52/18
f 35/52/18 36/53/18 33/50/17
f 37/54/19 36/53/18 35/52/18
f 35/52/18 38/55/19 37/54/19
f 39/56/20 37/54/19 38/55/19
f 38/55/19 40/57/20 39/56/20
f 41/58/21 42/59/22 43/60/22
f 43/60/22 44/61/21 41/58/21
f 45/62/23 41/58/21 44/61/21
f 44/61/21 46/63/23 45/62/23
f 32/49/16 31/48/16 34/64/17
f 34/64/17 33/65/17 32/49/16
f 45/66/23 46/67/23 47/68/24
f 47/68/24 48/69/24 45/66/23
f 49/70/25 39/56/20 40/57/20
f 40/57/20 50/71/25 49/70/25
f 27/72/14 30/73/14 32/74/14
f 32/74/14 33/75/14 27/72/14
f 33/75/14 48/76/14 27/72/14
f 33/75/14 36/77/14 48/76/14
f 36/77/14 9/78/26 48/76/14
f 36/77/14 13/79/14 9/78/26
f 36/77/14 16/80/14 13/79/14
f 36/77/14 37/81/14 16/80/14
f 37/81/14 17/82/14 16/80/14
f 37/81/14 24/83/14 17/82/14
f 37/81/14 39/84/14 24/83/14
f 39/84/14 21/85/14 24/83/14
f 39/84/14 49/86/14 21/85/14
f 49/86/14 22/87/14 21/85/14
f 45/88/14 48/76/14 9/78/26
f 9/78/26 8/89/14 45/88/14
f 8/89/14 25/90/14 45/88/14
f 25/90/14 41/91/14 45/88/14
f 25/90/14 4/92/14 41/91/14
f 4/92/14 3/93/14 41/91/14
f 3/93/14 42/94/14 41/91/14
f 3/93/14 6/95/14 42/94/14
f 6/95/14 51/96/14 42/94/14
f 6/95/14 12/97/14 51/96/14
f 48/69/24 47/68/24 28/45/15
f 28/45/15 27/44/15 48/69/24
f 42/59/22 51/98/27 52/99/27
f 52/99/27 43/60/22 42/59/22
f 52/100/28 51/101/28 12/102/28
f 52/100/28 12/102/28 50/103/28
f 52/100/28 50/103/28 53/104/28
f 52/100/28 53/104/28 54/105/28
f 54/105/28 55/106/28 52/100/28
f 12/102/28 22/107/28 50/103/28
f 12/102/28 19/108/28 22/107/28
f 12/102/28 11/109/28 19/108/28
f 22/107/28 49/110/28 50/103/28
f 50/103/28 56/111/28 53/104/28
f 57/112/29 58/113/29 59/114/5
f 59/114/5 60/115/5 57/112/29
f 60/115/5 59/114/5 61/116/30
f 61/116/30 62/117/30 60/115/5
f 63/118/31 64/119/31 65/120/32
f 65/120/32 66/121/33 63/118/31
f 67/122/34 66/121/33 65/120/32
f 65/120/32 68/123/34 67/122/34
f 69/124/35 67/122/34 68/123/34
f 68/123/34 70/125/35 69/124/35
f 56/126/36 69/124/35 70/125/35
f 70/125/35 53/127/36 56/126/36
f 71/128/37 72/129/38 73/130/38
f 73/130/38 74/131/37 71/128/37
f 62/117/30 61/116/30 64/132/31
f 64/132/31 63/133/31 62/117/30
f 61/134/39 59/135/39 58/136/39
f 58/136/39 75/137/39 61/134/39
f 75/137/39 64/138/39 61/134/39
f 75/137/39 74/139/39 64/138/39
f 74/139/39 65/140/39 64/138/39
f 74/139/39 73/141/39 65/140/39
f 73/141/39 68/142/39 65/140/39
f 73/141/39 76/143/39 68/142/39
f 76/143/39 70/144/39 68/142/39
f 76/143/39 54/145/39 70/144/39
f 54/145/39 53/146/39 70/144/39
f 77/147/40 55/148/41 54/149/41
f 54/149/41 76/150/40 77/147/40
f 72/129/38 77/147/40 76/150/40
f 76/150/40 73/130/38 72/129/38
f 71/151/37 74/152/37 75/153/42
f 75/153/42 78/154/42 71/151/37
f 78/154/42 75/153/42 58/113/29
f 58/113/29 57/112/29 78/154/42
f 57/155/14 60/156/14 62/157/14
f 62/157/14 63/158/14 57/155/14
f 63/158/14 78/159/14 57/155/14
f 63/158/14 31/160/14 78/159/14
f 63/158/14 66/161/14 31/160/14
f 31/160/14 29/162/14 78/159/14
f 66/161/14 34/163/14 31/160/14
f 66/161/14 67/164/14 34/163/14
f 67/164/14 35/165/14 34/163/14
f 67/164/14 38/166/14 35/165/14
f 67/164/14 69/167/14 38/166/14
f 69/167/14 40/168/14 38/166/14
f 69/167/14 56/169/14 40/168/14
f 56/169/14 50/170/14 40/168/14
f 78/159/14 29/162/14 28/171/14
f 28/171/14 71/172/14 78/159/14
f 28/171/14 47/173/14 71/172/14
f 47/173/14 72/174/14 71/172/14
f 47/173/14 46/175/14 72/174/14
f 46/175/14 44/176/14 72/174/14
f 44/176/14 77/177/14 72/174/14
f 44/176/14 43/178/14 77/177/14
f 43/178/14 55/179/14 77/177/14
f 43/178/14 52/180/14 55/179/14
