# Blender v2.92.0 OBJ File: 'OGConvert.blend'
# www.blender.org
o lollypop
v 0.092800 1.739200 0.375047
v 0.092800 2.388800 0.577192
v 0.092800 2.388800 0.750094
v 0.092800 1.888937 0.288596
v 0.092800 1.739200 0.000000
v 0.092800 1.888937 -0.288596
v 0.092800 1.739200 -0.375047
v 0.092800 2.388800 -0.577192
v 0.092800 2.388800 -0.750093
v 0.092800 3.038400 0.375047
v 0.092800 2.888663 0.288596
v 0.092800 3.038400 -0.375047
v 0.092800 2.888663 -0.288596
v -0.092800 2.736049 0.200485
v -0.092800 2.388800 0.242310
v -0.092800 2.388800 0.400969
v -0.092800 2.598646 0.121155
v -0.092800 2.736049 -0.200484
v -0.092800 2.598646 -0.121155
v -0.092800 2.388800 -0.242310
v -0.092800 2.388800 -0.400969
v -0.092800 2.041550 0.200484
v -0.092800 2.178954 0.121155
v -0.092800 2.041550 -0.200484
v -0.092800 2.178954 -0.121155
v -0.092800 2.388800 0.750094
v -0.092800 3.038400 0.375047
v -0.092800 3.038400 -0.375047
v 0.092800 2.049902 0.195663
v 0.092800 2.388800 0.210271
v 0.092800 2.388800 0.391325
v 0.092800 2.206700 0.105136
v 0.092800 2.049902 -0.195662
v 0.092800 2.206700 -0.105135
v 0.092800 2.388800 -0.210271
v 0.092800 2.388800 -0.391325
v 0.092800 2.727698 0.195663
v 0.092800 2.570900 0.105136
v 0.092800 2.727698 -0.195662
v 0.092800 2.570900 -0.105135
v -0.092800 1.739200 0.000000
v -0.092800 1.739200 -0.375047
v 0.000000 1.739200 -0.092800
v 0.000000 1.739200 0.092800
v -0.092800 1.739200 0.375047
v -0.092800 2.388800 -0.750093
v -0.092800 2.388800 0.576029
v -0.092800 2.887656 0.288015
v -0.092800 2.887656 -0.288015
v -0.092800 2.388800 -0.576029
v -0.092800 1.889944 0.288015
v -0.092800 1.889944 -0.288015
v 0.000000 0.000000 -0.154048
v 0.000000 -0.000000 0.154048
v -0.154048 0.000000 0.000000
v 0.154048 0.000000 0.000000
vt 0.256567 0.425662
vt 0.308446 0.214032
vt 0.348314 0.214032
vt 0.237848 0.376880
vt 0.170089 0.425662
vt 0.104759 0.376880
vt 0.083611 0.425662
vt 0.042269 0.214032
vt 0.002401 0.214032
vt 0.267104 0.002401
vt 0.245956 0.051183
vt 0.094148 0.002401
vt 0.112867 0.051183
vt 0.569484 0.327161
vt 0.581944 0.214032
vt 0.618528 0.214032
vt 0.552307 0.282397
vt 0.477029 0.327161
vt 0.496435 0.282397
vt 0.470201 0.214032
vt 0.433617 0.214032
vt 0.575117 0.100903
vt 0.555710 0.145667
vt 0.482661 0.100903
vt 0.499839 0.145667
vt 0.833065 0.425794
vt 0.703831 0.213010
vt 0.746614 0.211945
vt 0.790283 0.426859
vt 0.353116 0.674986
vt 0.413620 0.430465
vt 0.413620 0.674986
vt 0.353116 0.430465
vt 0.217725 0.324440
vt 0.223842 0.214032
vt 0.265589 0.214032
vt 0.198123 0.273357
vt 0.127493 0.324440
vt 0.149639 0.273357
vt 0.126873 0.214032
vt 0.085126 0.214032
vt 0.223222 0.103624
vt 0.201077 0.154706
vt 0.132990 0.103624
vt 0.152592 0.154706
vt 0.478925 0.430465
vt 0.418422 0.552725
vt 0.418422 0.430465
vt 0.448674 0.522474
vt 0.478925 0.552725
vt 0.513979 0.460716
vt 0.483728 0.552725
vt 0.483728 0.430465
vt 0.544231 0.552725
vt 0.544231 0.430465
vt 0.131635 0.430465
vt 0.002401 0.641074
vt 0.088853 0.431530
vt 0.045183 0.640009
vt 0.607283 0.425662
vt 0.658893 0.214032
vt 0.699029 0.214032
vt 0.588437 0.376552
vt 0.434326 0.425662
vt 0.455616 0.376552
vt 0.393252 0.214032
vt 0.353116 0.214032
vt 0.617819 0.002401
vt 0.596529 0.051511
vt 0.531341 0.002401
vt 0.463708 0.051511
vt 0.444863 0.002401
vt 0.790283 0.003466
vt 0.833065 0.002401
vt 0.088853 0.854922
vt 0.131635 0.853857
vt 0.549033 0.430465
vt 0.620052 0.501483
vt 0.549033 0.501483
vt 0.620052 0.430465
vt 0.193338 0.997599
vt 0.136437 0.430465
vt 0.207456 0.430465
vt 0.150556 0.997599
vt 0.283277 0.430465
vt 0.226376 0.997599
vt 0.212258 0.430465
vt 0.269159 0.997599
vt 0.908886 0.002401
vt 0.851985 0.569535
vt 0.837867 0.002401
vt 0.894768 0.569535
vt 0.984707 0.002401
vt 0.927806 0.569535
vt 0.913688 0.002401
vt 0.970589 0.569535
vn 1.0000 0.0000 0.0000
vn -1.0000 0.0000 0.0000
vn 0.0000 0.5000 0.8660
vn 0.0000 1.0000 0.0000
vn 0.0000 -1.0000 0.0000
vn 0.0000 -0.5000 -0.8660
vn 0.0000 -0.5000 0.8660
vn 0.0000 0.5000 -0.8660
vn -0.7069 0.0249 0.7069
vn 0.7069 0.0249 -0.7069
vn -0.7069 0.0249 -0.7069
vn 0.7069 0.0249 0.7069
s 1
f 1/1/1 2/2/1 3/3/1
f 2/2/1 1/1/1 4/4/1
f 4/4/1 1/1/1 5/5/1
f 4/4/1 5/5/1 6/6/1
f 6/6/1 5/5/1 7/7/1
f 6/6/1 7/7/1 8/8/1
f 8/8/1 7/7/1 9/9/1
f 2/2/1 10/10/1 3/3/1
f 10/10/1 2/2/1 11/11/1
f 10/10/1 11/11/1 12/12/1
f 12/12/1 8/8/1 9/9/1
f 12/12/1 11/11/1 13/13/1
f 12/12/1 13/13/1 8/8/1
f 14/14/2 15/15/2 16/16/2
f 15/15/2 14/14/2 17/17/2
f 17/17/2 14/14/2 18/18/2
f 17/17/2 18/18/2 19/19/2
f 19/19/2 18/18/2 20/20/2
f 20/20/2 18/18/2 21/21/2
f 15/15/2 22/22/2 16/16/2
f 22/22/2 15/15/2 23/23/2
f 22/22/2 23/23/2 24/24/2
f 24/24/2 20/20/2 21/21/2
f 24/24/2 23/23/2 25/25/2
f 24/24/2 25/25/2 20/20/2
f 10/26/3 26/27/3 3/28/3
f 26/27/3 10/26/3 27/29/3
f 10/30/4 28/31/4 27/32/4
f 28/31/4 10/30/4 12/33/4
f 29/34/1 30/35/1 31/36/1
f 30/35/1 29/34/1 32/37/1
f 32/37/1 29/34/1 33/38/1
f 32/37/1 33/38/1 34/39/1
f 34/39/1 33/38/1 35/40/1
f 35/40/1 33/38/1 36/41/1
f 30/35/1 37/42/1 31/36/1
f 37/42/1 30/35/1 38/43/1
f 37/42/1 38/43/1 39/44/1
f 39/44/1 35/40/1 36/41/1
f 39/44/1 38/43/1 40/45/1
f 39/44/1 40/45/1 35/40/1
f 7/46/5 41/47/5 42/48/5
f 41/47/5 7/46/5 43/49/5
f 43/49/5 7/46/5 5/50/5
f 44/51/5 45/52/5 41/53/5
f 45/52/5 44/51/5 1/54/5
f 1/54/5 44/51/5 5/55/5
f 42/56/6 9/57/6 7/58/6
f 9/57/6 42/56/6 46/59/6
f 27/60/2 47/61/2 26/62/2
f 47/61/2 27/60/2 48/63/2
f 48/63/2 27/60/2 28/64/2
f 48/63/2 28/64/2 49/65/2
f 49/65/2 28/64/2 50/66/2
f 50/66/2 28/64/2 46/67/2
f 47/61/2 45/68/2 26/62/2
f 45/68/2 47/61/2 51/69/2
f 45/68/2 51/69/2 41/70/2
f 41/70/2 51/69/2 52/71/2
f 41/70/2 52/71/2 42/72/2
f 42/72/2 52/71/2 50/66/2
f 42/72/2 50/66/2 46/67/2
f 3/28/7 45/73/7 1/74/7
f 45/73/7 3/28/7 26/27/7
f 46/59/8 12/75/8 9/57/8
f 12/75/8 46/59/8 28/76/8
f 53/77/5 54/78/5 55/79/5
f 54/78/5 53/77/5 56/80/5
f 44/81/9 55/82/9 54/83/9
f 55/82/9 44/81/9 41/84/9
f 53/85/10 5/86/10 56/87/10
f 5/86/10 53/85/10 43/88/10
f 55/89/11 43/90/11 53/91/11
f 43/90/11 55/89/11 41/92/11
f 48/63/2 16/16/2 47/61/2
f 16/16/2 48/63/2 14/14/2
f 14/14/2 48/63/2 49/65/2
f 14/14/2 49/65/2 18/18/2
f 21/21/2 49/65/2 50/66/2
f 18/18/2 49/65/2 21/21/2
f 16/16/2 51/69/2 47/61/2
f 51/69/2 16/16/2 22/22/2
f 51/69/2 22/22/2 52/71/2
f 52/71/2 22/22/2 24/24/2
f 52/71/2 24/24/2 21/21/2
f 52/71/2 21/21/2 50/66/2
f 32/37/1 38/43/1 30/35/1
f 38/43/1 32/37/1 34/39/1
f 38/43/1 34/39/1 40/45/1
f 40/45/1 34/39/1 35/40/1
f 17/17/2 23/23/2 15/15/2
f 23/23/2 17/17/2 19/19/2
f 23/23/2 19/19/2 25/25/2
f 25/25/2 19/19/2 20/20/2
f 56/93/12 44/94/12 54/95/12
f 44/94/12 56/93/12 5/96/12
f 4/4/1 31/36/1 2/2/1
f 31/36/1 4/4/1 29/34/1
f 29/34/1 4/4/1 6/6/1
f 29/34/1 6/6/1 33/38/1
f 36/41/1 6/6/1 8/8/1
f 33/38/1 6/6/1 36/41/1
f 31/36/1 11/11/1 2/2/1
f 11/11/1 31/36/1 37/42/1
f 11/11/1 37/42/1 13/13/1
f 13/13/1 37/42/1 39/44/1
f 13/13/1 39/44/1 36/41/1
f 13/13/1 36/41/1 8/8/1
