# Blender v2.92.0 OBJ File: 'OGConvert.blend'
# www.blender.org
o monorail_trainFlat
v 2.000000 1.600000 4.000000
v 1.600000 1.200000 4.000000
v 2.000000 1.200000 4.000000
v -1.600000 1.200000 4.000000
v -2.000000 1.200000 4.000000
v -2.000000 1.600000 4.000000
v 2.000000 1.200000 -4.000000
v 1.600000 1.200000 -4.000000
v -1.600000 1.200000 -4.000000
v -2.000000 1.200000 -4.000000
v -2.000000 1.600000 -4.000000
v -2.000000 1.600000 -3.600000
v -2.000000 2.000000 -3.200000
v -2.000000 2.000000 3.200000
v -2.000000 1.600000 3.600000
v 2.000000 1.600000 -4.000000
v 1.600000 1.600000 3.600000
v 2.000000 1.600000 3.600000
v -1.600000 1.600000 3.600000
v 2.000000 1.600000 -3.600000
v 1.600000 1.600000 -3.600000
v -1.600000 1.600000 -3.600000
v -1.600000 2.000000 -3.200000
v -1.600000 2.000000 3.200000
v 1.600000 2.000000 3.200000
v 2.000000 2.000000 3.200000
v 2.000000 2.000000 -3.200000
v 1.600000 2.000000 -3.200000
v 1.600000 0.800000 -4.000000
v 1.600000 0.800000 4.000000
v 1.200000 0.000000 -4.000000
v 1.200000 -0.000000 4.000000
v 0.800000 -0.000000 4.000000
v 0.800000 0.000000 -4.000000
v 0.800000 0.800000 -4.000000
v 0.800000 0.800000 4.000000
v -0.799999 0.800000 4.000000
v -0.799999 0.800000 -4.000000
v -0.799999 0.000000 -4.000000
v -0.799999 -0.000000 4.000000
v -1.200001 -0.000000 4.000000
v -1.200001 0.000000 -4.000000
v -1.600000 0.800000 -4.000000
v -1.600000 0.800000 4.000000
vt 0.003209 0.832264
vt 0.030630 0.804843
vt 0.030630 0.832264
vt 0.030630 0.585472
vt 0.030630 0.558051
vt 0.003209 0.558051
vt 0.892764 0.551634
vt 0.920186 0.003209
vt 0.920186 0.551634
vt 0.892764 0.003209
vt 0.926603 0.551634
vt 0.954024 0.003209
vt 0.954024 0.551634
vt 0.926603 0.003209
vt 0.702798 0.003209
vt 0.730161 0.551634
vt 0.702798 0.551634
vt 0.730161 0.524213
vt 0.757525 0.496791
vt 0.757525 0.058051
vt 0.235413 0.635529
vt 0.235413 0.558051
vt 0.235413 0.596790
vt 0.337047 0.558051
vt 0.337047 0.596790
vt 0.317677 0.577461
vt 0.119311 0.832264
vt 0.146732 0.804843
vt 0.146732 0.832264
vt 0.146732 0.585472
vt 0.146732 0.558051
vt 0.119311 0.558051
vt 0.030630 0.524213
vt 0.003209 0.551634
vt 0.003209 0.524213
vt 0.277421 0.551634
vt 0.250000 0.524213
vt 0.277421 0.524213
vt 0.277421 0.003209
vt 0.003209 0.030630
vt 0.003209 0.003209
vt 0.030630 0.030630
vt 0.250000 0.030630
vt 0.277421 0.030630
vt 0.343464 0.585473
vt 0.370885 0.558051
vt 0.370885 0.585473
vt 0.343464 0.558051
vt 0.427362 0.585472
vt 0.399941 0.558051
vt 0.427362 0.558051
vt 0.399941 0.585472
vt 0.311260 0.558051
vt 0.283839 0.996791
vt 0.283839 0.558051
vt 0.311260 0.996791
vt 0.461201 0.558051
vt 0.433779 0.585473
vt 0.433779 0.558051
vt 0.461201 0.585473
vt 0.467618 0.558051
vt 0.495039 0.585472
vt 0.467618 0.585472
vt 0.495039 0.558051
vt 0.277421 0.558051
vt 0.250000 0.996791
vt 0.250000 0.558051
vt 0.277421 0.996791
vt 0.791306 0.524213
vt 0.818670 0.551634
vt 0.791306 0.551634
vt 0.818670 0.003209
vt 0.763942 0.496791
vt 0.763942 0.058051
vt 0.243583 0.558051
vt 0.243583 0.635529
vt 0.243583 0.596790
vt 0.501456 0.585472
vt 0.528820 0.558051
vt 0.528820 0.585472
vt 0.483807 0.551634
vt 0.456443 0.003209
vt 0.483807 0.003209
vt 0.456443 0.551634
vt 0.399941 0.003209
vt 0.399941 0.551634
vt 0.858926 0.551634
vt 0.886347 0.003209
vt 0.886347 0.551634
vt 0.858926 0.003209
vt 0.696380 0.551634
vt 0.641653 0.003209
vt 0.696380 0.003209
vt 0.641653 0.551634
vt 0.283839 0.551634
vt 0.393524 0.003209
vt 0.393524 0.551634
vt 0.283839 0.003209
vt 0.635235 0.551634
vt 0.580508 0.003209
vt 0.635236 0.003209
vt 0.580508 0.551634
vt 0.825087 0.551634
vt 0.852509 0.003209
vt 0.852509 0.551634
vt 0.825087 0.003209
vt 0.574091 0.551634
vt 0.517588 0.003209
vt 0.574091 0.003209
vt 0.517588 0.551634
vt 0.490224 0.003209
vt 0.490224 0.551634
vt 0.058051 0.804843
vt 0.112894 0.750000
vt 0.112894 0.777421
vt 0.058051 0.750000
vt 0.058051 0.640315
vt 0.058051 0.585472
vt 0.112894 0.612894
vt 0.112894 0.640315
vt 0.174153 0.804843
vt 0.228996 0.750000
vt 0.228996 0.777421
vt 0.174153 0.750000
vt 0.174153 0.640315
vt 0.174153 0.585472
vt 0.228996 0.612894
vt 0.228996 0.640315
vt 0.960441 0.969370
vt 0.987805 0.503209
vt 0.987805 0.996791
vt 0.960441 0.530630
vt 0.987805 0.496791
vt 0.960442 0.030630
vt 0.987805 0.003209
vt 0.960442 0.469370
vn 0.0000 0.0000 1.0000
vn 0.0000 -1.0000 -0.0000
vn -1.0000 -0.0000 0.0000
vn 0.0000 0.0000 -1.0000
vn 0.0000 1.0000 -0.0000
vn 0.0000 0.7071 -0.7071
vn 0.0000 0.7071 0.7071
vn 1.0000 0.0000 0.0000
vn 0.8944 -0.4472 -0.0000
vn -0.8944 -0.4472 -0.0000
s 1
f 1/1/1 2/2/1 3/3/1
f 2/2/1 1/1/1 4/4/1
f 4/4/1 1/1/1 5/5/1
f 5/5/1 1/1/1 6/6/1
f 2/7/2 7/8/2 3/9/2
f 7/8/2 2/7/2 8/10/2
f 5/11/2 9/12/2 4/13/2
f 9/12/2 5/11/2 10/14/2
f 5/15/3 11/16/3 10/17/3
f 11/16/3 5/15/3 12/18/3
f 12/18/3 5/15/3 13/19/3
f 13/19/3 5/15/3 14/20/3
f 14/21/3 5/22/3 15/23/3
f 15/24/3 5/25/3 6/26/3
f 11/27/4 9/28/4 10/29/4
f 9/28/4 11/27/4 8/30/4
f 8/30/4 11/27/4 7/31/4
f 7/31/4 11/27/4 16/32/4
f 17/33/5 1/34/5 18/35/5
f 1/34/5 17/33/5 6/36/5
f 6/36/5 17/33/5 19/37/5
f 6/36/5 19/37/5 15/38/5
f 11/39/5 20/40/5 16/41/5
f 20/40/5 11/39/5 21/42/5
f 21/42/5 11/39/5 22/43/5
f 22/43/5 11/39/5 12/44/5
f 12/45/6 23/46/6 22/47/6
f 23/46/6 12/45/6 13/48/6
f 14/49/7 19/50/7 24/51/7
f 19/50/7 14/49/7 15/52/7
f 13/53/5 24/54/5 23/55/5
f 24/54/5 13/53/5 14/56/5
f 25/57/7 18/58/7 26/59/7
f 18/58/7 25/57/7 17/60/7
f 21/61/6 27/62/6 20/63/6
f 27/62/6 21/61/6 28/64/6
f 28/65/5 26/66/5 27/67/5
f 26/66/5 28/65/5 25/68/5
f 20/69/8 7/70/8 16/71/8
f 7/70/8 20/69/8 3/72/8
f 3/72/8 20/69/8 27/73/8
f 3/72/8 27/73/8 26/74/8
f 3/75/8 26/76/8 18/77/8
f 3/78/8 18/79/8 1/80/8
f 2/81/8 29/82/8 8/83/8
f 29/82/8 2/81/8 30/84/8
f 30/84/9 31/85/9 29/82/9
f 31/85/9 30/84/9 32/86/9
f 33/87/2 31/88/2 32/89/2
f 31/88/2 33/87/2 34/90/2
f 33/91/3 35/92/3 34/93/3
f 35/92/3 33/91/3 36/94/3
f 37/95/2 35/96/2 36/97/2
f 35/96/2 37/95/2 38/98/2
f 37/99/8 39/100/8 38/101/8
f 39/100/8 37/99/8 40/102/8
f 41/103/2 39/104/2 40/105/2
f 39/104/2 41/103/2 42/106/2
f 41/107/10 43/108/10 42/109/10
f 43/108/10 41/107/10 44/110/10
f 44/110/3 9/111/3 43/108/3
f 9/111/3 44/110/3 4/112/3
f 30/113/1 33/114/1 32/115/1
f 33/114/1 30/113/1 36/116/1
f 36/116/1 30/113/1 2/2/1
f 36/116/1 2/2/1 37/117/1
f 37/117/1 2/2/1 44/118/1
f 44/118/1 2/2/1 4/4/1
f 41/119/1 37/117/1 44/118/1
f 37/117/1 41/119/1 40/120/1
f 43/121/4 39/122/4 42/123/4
f 39/122/4 43/121/4 38/124/4
f 38/124/4 43/121/4 9/28/4
f 38/124/4 9/28/4 35/125/4
f 35/125/4 9/28/4 29/126/4
f 29/126/4 9/28/4 8/30/4
f 31/127/4 35/125/4 29/126/4
f 35/125/4 31/127/4 34/128/4
f 22/43/5 17/33/5 21/42/5
f 17/33/5 22/43/5 19/37/5
f 23/129/8 19/130/8 22/131/8
f 19/130/8 23/129/8 24/132/8
f 17/133/3 28/134/3 21/135/3
f 28/134/3 17/133/3 25/136/3
