# Blender v2.92.0 OBJ File: 'OGConvert.blend'
# www.blender.org
o overhang
v 3.200000 7.200000 -3.200000
v 1.925686 7.200000 -3.400000
v 3.200000 7.200000 -4.000000
v 1.120000 7.200000 -3.200000
v 1.360000 7.200000 -3.400000
v 1.360000 7.200000 -3.800000
v 1.925686 7.200000 -3.800000
v 1.120000 7.200000 -4.000000
v 3.200000 5.360000 -3.800000
v 3.200000 5.360000 -3.400000
v 1.120000 7.200000 3.200000
v 1.320000 7.599999 3.200000
v 3.200000 7.200000 3.200000
v 1.120000 8.000000 3.200000
v 1.320000 8.000000 3.200000
v 3.200000 7.599999 3.200000
v 3.200000 8.000000 4.000000
v 3.200000 8.000000 3.200000
v 3.200000 7.200000 4.000000
v 3.400000 8.000000 3.200000
v 3.400000 7.599999 -3.200000
v 3.400000 8.000000 -3.200000
v 3.400000 7.599999 3.200000
v 1.120000 8.000000 4.000000
v 1.320000 8.000000 -3.200000
v 1.120000 8.000000 -4.000000
v 3.200000 8.000000 -3.200000
v 3.200000 8.000000 -4.000000
v 1.120000 8.000000 -3.200000
v 1.120000 7.200000 4.000000
v 3.200000 5.925685 3.800000
v 1.360000 7.200000 3.800000
v 3.200000 5.360000 3.800000
v 1.925686 7.200000 3.800000
v 3.200000 7.599999 -3.200000
v 3.200000 5.925685 -3.400000
v 3.200000 5.925685 -3.800000
v 3.200000 5.360000 3.400000
v 1.360000 7.200000 3.400000
v 1.925686 7.200000 3.400000
v 3.200000 5.925685 3.400000
v 1.320000 7.599999 -3.200000
vt 0.744884 0.250423
vt 0.768622 0.099174
vt 0.839837 0.250423
vt 0.744884 0.003547
vt 0.768622 0.032033
vt 0.816098 0.032033
vt 0.816098 0.099174
vt 0.839837 0.003547
vt 0.816098 0.250423
vt 0.768622 0.250423
vt 0.744884 0.568490
vt 0.792360 0.592228
vt 0.744884 0.815367
vt 0.839837 0.568490
vt 0.839837 0.592228
vt 0.792360 0.815367
vt 0.281256 0.865214
vt 0.376208 0.817737
vt 0.376208 0.865214
vt 0.376208 0.770261
vt 0.281256 0.770261
vt 0.582702 0.763167
vt 0.535226 0.003547
vt 0.582702 0.003547
vt 0.535226 0.763167
vt 0.027285 0.953072
vt 0.250423 0.858120
vt 0.274162 0.953072
vt 0.250424 0.098500
vt 0.274162 0.858120
vt 0.274162 0.003547
vt 0.027285 0.858120
vt 0.027285 0.098499
vt 0.027285 0.003547
vt 0.274162 0.098500
vt 0.003547 0.858120
vt 0.003547 0.098499
vt 0.582702 0.865213
vt 0.487750 0.770261
vt 0.582702 0.770261
vt 0.487750 0.865213
vt 0.682593 0.269199
vt 0.682593 0.003547
vt 0.737790 0.307426
vt 0.644366 0.058744
vt 0.839837 0.917413
vt 0.744884 0.822460
vt 0.839837 0.822460
vt 0.744884 0.917413
vt 0.729769 0.625492
vt 0.729769 0.625492
vt 0.729769 0.625492
vt 0.281256 0.939449
vt 0.328732 0.872307
vt 0.328732 0.939449
vt 0.281256 0.872307
vt 0.698937 0.680063
vt 0.722675 0.727539
vt 0.698937 0.727539
vt 0.722675 0.680063
vt 0.768622 0.343005
vt 0.816098 0.561396
vt 0.768622 0.561396
vt 0.816098 0.343005
vt 0.744884 0.561396
vt 0.768622 0.410147
vt 0.839837 0.561396
vt 0.744884 0.314520
vt 0.816098 0.410147
vt 0.839837 0.314520
vt 0.691843 0.934344
vt 0.644366 0.672969
vt 0.691843 0.625492
vt 0.644366 0.886867
vt 0.941883 0.003547
vt 0.846931 0.250423
vt 0.846931 0.003547
vt 0.941883 0.250423
vt 0.894407 0.916707
vt 0.846930 0.765458
vt 0.894407 0.765458
vt 0.846930 0.916707
vt 0.682593 0.580171
vt 0.682593 0.314520
vt 0.737790 0.618399
vt 0.644366 0.369716
vt 0.335826 0.939449
vt 0.383302 0.872307
vt 0.383302 0.939449
vt 0.335826 0.872307
vt 0.894407 0.257517
vt 0.846931 0.504394
vt 0.846931 0.257517
vt 0.894407 0.480656
vt 0.941883 0.504394
vt 0.941883 0.480656
vt 0.637272 0.763167
vt 0.589796 0.003547
vt 0.637272 0.003547
vt 0.589796 0.763167
vt 0.941883 0.511488
vt 0.846931 0.758364
vt 0.846931 0.511488
vt 0.941883 0.758364
vt 0.383302 0.865213
vt 0.478254 0.770261
vt 0.478254 0.865213
vt 0.383302 0.770261
vt 0.698936 0.625492
vt 0.722675 0.672969
vt 0.698936 0.672969
vt 0.722675 0.625492
vt 0.637272 0.921510
vt 0.589796 0.770261
vt 0.637272 0.770261
vt 0.589796 0.921510
vt 0.996453 0.312398
vt 0.948977 0.051023
vt 0.996453 0.003547
vt 0.948977 0.264922
vt 0.504394 0.763167
vt 0.528132 0.003547
vt 0.528132 0.763167
vt 0.504394 0.003547
vt 0.281256 0.763167
vt 0.281256 0.003547
vn 0.0000 -1.0000 -0.0000
vn -0.7071 -0.7071 0.0000
vn 0.0000 0.0000 -1.0000
vn 1.0000 0.0000 0.0000
vn 0.0000 1.0000 0.0000
vn -1.0000 0.0000 0.0000
vn 0.0000 0.0000 1.0000
vn 0.7071 0.7071 0.0000
s 1
f 1/1/1 2/2/1 3/3/1
f 2/2/1 1/1/1 4/4/1
f 2/2/1 4/4/1 5/5/1
f 5/5/1 4/4/1 6/6/1
f 7/7/1 3/3/1 2/2/1
f 3/3/1 7/7/1 8/8/1
f 8/8/1 7/7/1 6/6/1
f 8/8/1 6/6/1 4/4/1
f 5/5/2 9/9/2 10/10/2
f 9/9/2 5/5/2 6/6/2
f 11/11/3 12/12/3 13/13/3
f 12/12/3 11/11/3 14/14/3
f 12/12/3 14/14/3 15/15/3
f 16/16/3 13/13/3 12/12/3
f 17/17/4 16/18/4 18/19/4
f 16/18/4 17/17/4 13/20/4
f 13/20/4 17/17/4 19/21/4
f 20/22/4 21/23/4 22/24/4
f 21/23/4 20/22/4 23/25/4
f 17/26/5 15/27/5 24/28/5
f 15/27/5 17/26/5 25/29/5
f 24/28/5 15/27/5 14/30/5
f 17/26/5 26/31/5 25/29/5
f 18/32/5 26/31/5 17/26/5
f 27/33/5 26/31/5 18/32/5
f 26/31/5 27/33/5 28/34/5
f 25/29/5 26/31/5 29/35/5
f 20/36/5 27/33/5 18/32/5
f 27/33/5 20/36/5 22/37/5
f 30/38/6 14/39/6 11/40/6
f 14/39/6 30/38/6 24/41/6
f 31/42/7 32/43/7 33/44/7
f 32/43/7 31/42/7 34/45/7
f 27/46/4 3/47/4 28/48/4
f 3/47/4 27/46/4 1/49/4
f 1/50/4 27/51/4 35/52/5
f 36/53/4 9/54/4 37/55/4
f 9/54/4 36/53/4 10/56/4
f 20/57/7 16/58/7 23/59/7
f 16/58/7 20/57/7 18/60/7
f 32/61/2 38/62/2 33/63/2
f 38/62/2 32/61/2 39/64/2
f 19/65/1 34/66/1 13/67/1
f 34/66/1 19/65/1 30/68/1
f 34/66/1 30/68/1 32/61/1
f 32/61/1 30/68/1 39/64/1
f 40/69/1 13/67/1 34/66/1
f 13/67/1 40/69/1 11/70/1
f 11/70/1 40/69/1 39/64/1
f 11/70/1 39/64/1 30/68/1
f 6/71/3 37/72/3 9/73/3
f 37/72/3 6/71/3 7/74/3
f 26/75/3 3/76/3 8/77/3
f 3/76/3 26/75/3 28/78/3
f 40/79/8 31/80/8 41/81/8
f 31/80/8 40/79/8 34/82/8
f 36/83/7 5/84/7 10/85/7
f 5/84/7 36/83/7 2/86/7
f 31/87/4 38/88/4 41/89/4
f 38/88/4 31/87/4 33/90/4
f 35/91/7 4/92/7 1/93/7
f 4/92/7 35/91/7 42/94/7
f 4/92/7 42/94/7 29/95/7
f 29/95/7 42/94/7 25/96/7
f 12/97/6 25/98/6 42/99/6
f 25/98/6 12/97/6 15/100/6
f 17/101/7 30/102/7 19/103/7
f 30/102/7 17/101/7 24/104/7
f 4/105/6 26/106/6 8/107/6
f 26/106/6 4/105/6 29/108/6
f 27/109/3 21/110/3 35/111/3
f 21/110/3 27/109/3 22/112/3
f 7/113/8 36/114/8 37/115/8
f 36/114/8 7/113/8 2/116/8
f 39/117/3 41/118/3 38/119/3
f 41/118/3 39/117/3 40/120/3
f 16/121/1 21/122/1 23/123/1
f 21/122/1 16/121/1 35/124/1
f 35/124/1 16/121/1 12/125/1
f 35/124/1 12/125/1 42/126/1
