# Blender v2.92.0 OBJ File: 'OGConvert.blend'
# www.blender.org
o pipe_end
v 0.923761 0.800000 0.000000
v 0.923761 0.800000 3.049055
v 1.847521 0.800000 0.000000
v 1.847521 0.800000 4.000000
v -1.847521 0.800000 4.000000
v -0.896576 0.800000 3.049055
v -0.923762 0.800000 0.000000
v -1.847521 0.800000 0.000000
v 1.847521 2.400000 0.000000
v 2.771282 2.400000 0.000000
v 0.923761 4.000000 0.000000
v 2.078461 3.600000 0.000000
v 1.385641 4.800000 0.000000
v 0.000000 4.000000 0.000000
v -0.923762 4.000000 0.000000
v -1.385641 4.800000 0.000000
v -2.078461 3.600000 0.000000
v -1.847521 2.400000 0.000000
v -2.771282 2.400000 0.000000
v -2.078461 3.600000 -4.000000
v -1.385641 4.800000 -2.000000
v -1.385641 4.800000 -4.000000
v -2.771282 2.400000 -4.000000
v -2.078461 3.600000 -2.000000
v 1.385641 0.000000 -4.000000
v 2.771282 2.400000 -4.000000
v 1.385641 -0.000000 4.000000
v -1.385641 0.000000 -4.000000
v -0.923762 0.800000 -4.000000
v 0.923761 0.800000 -4.000000
v -1.847521 2.400000 -4.000000
v -0.923762 4.000000 -4.000000
v 0.000000 4.000000 -4.000000
v 0.923761 4.000000 -4.000000
v 1.847521 2.400000 -4.000000
v 2.078461 3.600000 -4.000000
v 1.385641 4.800000 -4.000000
v 0.000000 4.800000 -4.000000
v -1.385641 -0.000000 4.000000
v 1.385641 4.800000 -2.000000
v 2.078461 3.600000 -2.000000
vt 0.479748 0.294988
vt 0.479748 0.518262
vt 0.412103 0.294988
vt 0.412103 0.587897
vt 0.682681 0.587897
vt 0.613046 0.518262
vt 0.615037 0.294988
vt 0.682681 0.294988
vt 0.979748 0.750326
vt 0.862584 0.750326
vt 0.979748 0.682681
vt 0.862584 0.817970
vt 0.745421 0.682681
vt 0.774712 0.767237
vt 0.686839 0.716503
vt 0.745421 0.615037
vt 0.745421 0.547392
vt 0.686839 0.513570
vt 0.774712 0.462837
vt 0.862584 0.479748
vt 0.862584 0.412103
vt 0.979748 0.479748
vt 0.979748 0.547392
vt 0.686839 0.052812
vt 0.833293 0.103546
vt 0.686839 0.103546
vt 0.686839 0.002079
vt 0.833293 0.052812
vt 0.979748 0.002079
vt 0.979748 0.052812
vt 0.407945 0.294988
vt 0.306479 0.002079
vt 0.407945 0.002079
vt 0.340301 0.294988
vt 0.306479 0.587897
vt 0.340301 0.587897
vt 0.353570 0.896454
vt 0.294988 0.862632
vt 0.353570 0.693521
vt 0.177824 0.997921
vt 0.294988 0.727343
vt 0.177824 0.930277
vt 0.089952 0.947188
vt 0.060661 0.862632
vt 0.002079 0.896454
vt 0.060661 0.794988
vt 0.060661 0.727343
vt 0.177824 0.592054
vt 0.177824 0.659699
vt 0.089952 0.642788
vt 0.002079 0.693521
vt 0.420467 0.592054
vt 0.420467 0.592054
vt 0.420467 0.592054
vt 0.357727 0.862632
vt 0.416309 0.625877
vt 0.416309 0.828810
vt 0.357727 0.592054
vt 0.833293 0.306479
vt 0.686839 0.357212
vt 0.686839 0.306479
vt 0.686839 0.407945
vt 0.833293 0.357212
vt 0.979748 0.407945
vt 0.979748 0.357212
vt 0.686839 0.205012
vt 0.103546 0.587897
vt 0.103546 0.002079
vt 0.002079 0.294988
vt 0.002079 0.002079
vt 0.069723 0.294988
vt 0.069723 0.587897
vt 0.353570 0.862632
vt 0.060661 0.930277
vt 0.353570 0.930277
vt 0.479748 0.002079
vt 0.412103 0.294988
vt 0.412103 0.002079
vt 0.353570 0.794988
vt 0.353570 0.727343
vt 0.682681 0.294988
vt 0.615037 0.002079
vt 0.682681 0.002079
vt 0.060661 0.659699
vt 0.353570 0.659699
vt 0.979748 0.306479
vt 0.979748 0.103546
vn 0.0000 1.0000 0.0000
vn 0.0000 -0.0000 1.0000
vn -0.8660 0.5000 -0.0000
vn 0.8660 -0.5000 0.0000
vn 0.0000 0.0000 -1.0000
vn -1.0000 -0.0000 -0.0000
vn 0.8660 0.5000 0.0000
vn 0.0000 -1.0000 -0.0000
vn -0.8660 -0.5000 0.0000
s 1
f 1/1/1 2/2/1 3/3/1
f 2/2/1 4/4/1 3/3/1
f 4/4/1 2/2/1 5/5/1
f 5/5/1 2/2/1 6/6/1
f 5/5/1 6/6/1 7/7/1
f 5/5/1 7/7/1 8/8/1
f 3/9/2 9/10/2 1/11/2
f 9/10/2 3/9/2 10/12/2
f 9/10/2 10/12/2 11/13/2
f 11/13/2 10/12/2 12/14/2
f 11/13/2 12/14/2 13/15/2
f 11/13/2 13/15/2 14/16/2
f 14/16/2 13/15/2 15/17/2
f 16/18/2 15/17/2 13/15/2
f 17/19/2 15/17/2 16/18/2
f 17/19/2 18/20/2 15/17/2
f 19/21/2 18/20/2 17/19/2
f 8/22/2 18/20/2 19/21/2
f 18/20/2 8/22/2 7/23/2
f 20/24/3 21/25/3 22/26/3
f 21/25/3 20/24/3 23/27/3
f 21/25/3 23/27/3 24/28/3
f 24/28/3 23/27/3 19/29/3
f 24/28/3 19/29/3 17/30/3
f 10/31/4 25/32/4 26/33/4
f 25/32/4 10/31/4 3/34/4
f 25/32/4 3/34/4 27/35/4
f 27/35/4 3/34/4 4/36/4
f 28/37/5 29/38/5 25/39/5
f 29/38/5 28/37/5 23/40/5
f 25/39/5 29/38/5 30/41/5
f 29/38/5 23/40/5 31/42/5
f 31/42/5 23/40/5 20/43/5
f 31/42/5 20/43/5 32/44/5
f 32/44/5 20/43/5 22/45/5
f 32/44/5 22/45/5 33/46/5
f 33/46/5 22/45/5 34/47/5
f 30/41/5 26/48/5 25/39/5
f 26/48/5 30/41/5 35/49/5
f 26/48/5 35/49/5 34/47/5
f 26/48/5 34/47/5 36/50/5
f 36/50/5 34/47/5 37/51/5
f 37/51/5 34/47/5 22/45/5
f 37/52/5 22/53/5 38/54/6
f 4/55/2 39/56/2 27/57/2
f 39/56/2 4/55/2 5/58/2
f 40/59/7 36/60/7 37/61/7
f 36/60/7 40/59/7 26/62/7
f 26/62/7 40/59/7 41/63/7
f 26/62/7 41/63/7 10/64/7
f 10/64/7 41/63/7 12/65/7
f 37/61/1 21/25/1 40/59/1
f 21/25/1 37/61/1 38/66/1
f 21/25/1 38/66/1 22/26/1
f 39/67/8 25/32/8 27/35/8
f 25/32/8 39/67/8 28/68/8
f 28/68/9 19/69/9 23/70/9
f 19/69/9 28/68/9 8/71/9
f 8/71/9 28/68/9 39/67/9
f 8/71/9 39/67/9 5/72/9
f 15/73/4 31/74/4 32/44/4
f 31/74/4 15/73/4 18/75/4
f 30/76/3 9/77/3 35/78/3
f 9/77/3 30/76/3 1/1/3
f 15/73/8 33/46/8 14/79/8
f 33/46/8 15/73/8 32/44/8
f 34/47/8 14/79/8 33/46/8
f 14/79/8 34/47/8 11/80/8
f 18/81/7 29/82/7 31/83/7
f 29/82/7 18/81/7 7/7/7
f 1/1/1 6/6/1 2/2/1
f 6/6/1 1/1/1 30/76/1
f 6/6/1 30/76/1 29/82/1
f 6/6/1 29/82/1 7/7/1
f 35/84/9 11/80/9 34/47/9
f 11/80/9 35/84/9 9/85/9
f 13/86/7 41/63/7 40/59/7
f 41/63/7 13/86/7 12/65/7
f 40/59/1 16/87/1 13/86/1
f 16/87/1 40/59/1 21/25/1
f 24/28/3 16/87/3 21/25/3
f 16/87/3 24/28/3 17/30/3
