# Blender v2.92.0 OBJ File: 'OGConvert.blend'
# www.blender.org
o plant_bush
v -0.576000 1.251551 1.121151
v 0.000000 1.189378 1.584000
v 0.576000 1.251551 1.121151
v -0.576000 1.251551 -1.121151
v 0.576000 0.941018 -0.589199
v 0.576000 1.251551 -1.121151
v -0.576000 0.941018 -0.589199
v 0.000000 0.000000 0.000000
v -0.576000 0.941018 0.589199
v 0.576000 0.941018 0.589199
v 0.589199 1.470340 -0.576000
v 1.121151 1.955549 0.576000
v 1.121151 1.955549 -0.576000
v 0.589199 1.470340 0.576000
v -1.584000 1.858405 0.000000
v -1.121151 1.955549 0.576000
v -1.121151 1.955549 -0.576000
v -0.589199 1.470340 0.576000
v -0.589199 1.470340 -0.576000
v 1.584000 1.858405 0.000000
v -0.000000 1.189378 -1.584000
vt 0.115649 0.970015
vt 0.002458 0.805807
vt 0.115649 0.641598
vt 0.669125 0.475935
vt 0.997542 0.302566
vt 0.997542 0.475935
vt 0.669125 0.302566
vt 0.833333 0.002458
vt 0.997542 0.780958
vt 0.669125 0.954327
vt 0.669125 0.780958
vt 0.997542 0.954327
vt 0.002458 0.433693
vt 0.330875 0.636682
vt 0.002458 0.636682
vt 0.330875 0.433693
vt 0.833333 0.480851
vt 0.445416 0.805807
vt 0.550124 0.641598
vt 0.550124 0.970015
vt 0.664209 0.636682
vt 0.335791 0.433693
vt 0.664209 0.433693
vt 0.335791 0.636682
vt 0.500000 0.002458
vt 0.440500 0.970015
vt 0.335791 0.805807
vt 0.440500 0.641598
vt 0.233757 0.641598
vt 0.233757 0.970015
vt 0.120565 0.805807
vt 0.166667 0.002458
vn 0.0000 0.9911 0.1331
vn 0.0000 0.8636 0.5041
vn 0.0000 0.5307 0.8476
vn 0.0000 0.8636 -0.5041
vn -0.6739 0.7388 0.0000
vn 0.0000 0.5307 -0.8476
vn -0.2054 0.9787 0.0000
vn 0.6739 0.7388 0.0000
vn 0.9282 0.3720 0.0000
vn 0.2054 0.9787 0.0000
vn 0.0000 0.9911 -0.1331
vn -0.9282 0.3720 0.0000
s 1
f 1/1/1 2/2/1 3/3/1
f 4/4/2 5/5/2 6/6/2
f 5/5/2 4/4/2 7/7/2
f 7/7/3 8/8/3 5/5/3
f 9/9/4 3/10/4 10/11/4
f 3/10/4 9/9/4 1/12/4
f 11/13/5 12/14/5 13/15/5
f 12/14/5 11/13/5 14/16/5
f 10/11/6 8/17/6 9/9/6
f 15/18/7 16/19/7 17/20/7
f 17/21/8 18/22/8 19/23/8
f 18/22/8 17/21/8 16/24/8
f 18/22/9 8/25/9 19/23/9
f 12/26/10 20/27/10 13/28/10
f 4/29/11 6/30/11 21/31/11
f 14/16/12 11/13/12 8/32/12
