# Blender v2.92.0 OBJ File: 'OGConvert.blend'
# www.blender.org
o plant_flatTall
v 0.000000 1.437154 0.000000
v 0.000000 0.000000 -0.527340
v -0.527340 -0.000000 0.000000
v -1.086622 0.726904 0.000000
v -0.625378 0.593506 0.000000
v -0.806953 1.807974 0.000000
v 0.625378 0.593506 0.000000
v 0.527340 -0.000000 0.000000
v 0.806953 1.807974 0.000000
v 1.086622 0.726904 0.000000
v -0.000000 0.914463 -1.086622
v -0.000000 0.746645 -0.625378
v 0.000000 1.807974 0.000000
v -0.000000 2.274475 -0.806953
v 0.000000 2.274475 0.806953
v 0.000000 -0.000000 0.527340
v 0.000000 0.746645 0.625378
v 0.000000 0.914463 1.086622
vt 0.858637 0.098686
vt 0.858637 0.475193
vt 0.720484 0.475193
vt 0.573962 0.284758
vt 0.694799 0.319706
vt 0.647230 0.001537
vt 0.805895 0.879322
vt 0.728221 0.615391
vt 0.805895 0.478268
vt 0.573962 0.897700
vt 0.602740 0.606575
vt 0.286212 0.220900
vt 0.286212 0.597408
vt 0.148059 0.597408
vt 0.001537 0.357835
vt 0.122375 0.401801
vt 0.286212 0.123752
vt 0.074806 0.001537
vt 0.497619 0.001537
vt 0.424366 0.597408
vt 0.450050 0.401801
vt 0.570887 0.357835
vt 0.998463 0.879322
vt 0.808969 0.525858
vt 0.998463 0.478268
vn -0.6844 0.2511 -0.6844
vn 0.0000 0.0000 -1.0000
vn 0.6844 0.2511 -0.6844
vn 1.0000 0.0000 -0.0000
vn 0.6844 0.2511 0.6844
vn -0.6844 0.2511 0.6844
s 1
f 1/1/1 2/2/1 3/3/1
f 4/4/2 5/5/2 3/3/2
f 5/5/2 1/1/2 3/3/2
f 1/1/2 5/5/2 6/6/2
f 1/7/2 7/8/2 8/9/2
f 7/8/2 1/7/2 9/10/2
f 10/11/2 8/9/2 7/8/2
f 1/12/3 8/13/3 2/14/3
f 2/14/4 11/15/4 12/16/4
f 12/16/4 13/17/4 2/14/4
f 13/17/4 12/16/4 14/18/4
f 2/14/4 13/17/4 1/12/4
f 1/12/4 13/17/4 15/19/4
f 1/12/4 15/19/4 16/20/4
f 16/20/4 15/19/4 17/21/4
f 18/22/4 16/20/4 17/21/4
f 16/20/5 8/13/5 1/12/5
f 1/23/6 3/24/6 16/25/6
