# Blender v2.92.0 OBJ File: 'OGConvert.blend'
# www.blender.org
o road_crossroadPath
v 2.400000 0.080000 1.800000
v 3.600000 0.080000 2.200000
v 3.600000 0.080000 1.800000
v 2.400000 0.080000 2.200000
v 2.400000 0.080000 1.000000
v 3.600000 0.080000 1.400000
v 3.600000 0.080000 1.000000
v 2.400000 0.080000 1.400000
v 2.400000 0.080000 -1.400000
v 3.600000 0.080000 -1.000000
v 3.600000 0.080000 -1.400000
v 2.400000 0.080000 -1.000000
v -3.600000 0.080000 0.200000
v -2.400000 0.080000 0.600000
v -2.400000 0.080000 0.200000
v -3.600000 0.080000 0.600000
v 2.400000 0.080000 -2.200000
v 3.600000 0.080000 -1.800000
v 3.600000 0.080000 -2.200000
v 2.400000 0.080000 -1.800000
v -3.600000 0.080000 1.800000
v -2.400000 0.080000 2.200000
v -2.400000 0.080000 1.800000
v -3.600000 0.080000 2.200000
v 2.400000 0.080000 -0.600000
v 3.600000 0.080000 -0.200000
v 3.600000 0.080000 -0.600000
v 2.400000 0.080000 -0.200000
v -3.600000 0.080000 -2.200000
v -2.400000 0.080000 -1.800000
v -2.400000 0.080000 -2.200000
v -3.600000 0.080000 -1.800000
v -3.600000 0.080000 -0.600000
v -2.400000 0.080000 -0.200000
v -2.400000 0.080000 -0.600000
v -3.600000 0.080000 -0.200000
v -3.600000 0.080000 -1.400000
v -2.400000 0.080000 -1.000000
v -2.400000 0.080000 -1.400000
v -3.600000 0.080000 -1.000000
v 2.400000 0.080000 0.200000
v 3.600000 0.080000 0.600000
v 3.600000 0.080000 0.200000
v 2.400000 0.080000 0.600000
v -3.600000 0.080000 1.000000
v -2.400000 0.080000 1.400000
v -2.400000 0.080000 1.000000
v -3.600000 0.080000 1.400000
v 2.200000 0.080000 -3.600000
v 1.800000 0.080000 -2.400000
v 2.200000 0.080000 -2.400000
v 1.800000 0.080000 -3.600000
v -0.200000 0.080000 -3.600000
v -0.600000 0.080000 -2.400000
v -0.200000 0.080000 -2.400000
v -0.600000 0.080000 -3.600000
v -1.800000 0.080000 -3.600000
v -2.200000 0.080000 -2.400000
v -1.800000 0.080000 -2.400000
v -2.200000 0.080000 -3.600000
v -1.000000 0.080000 -3.600000
v -1.400000 0.080000 -2.400000
v -1.000000 0.080000 -2.400000
v -1.400000 0.080000 -3.600000
v 0.600000 0.080000 -3.600000
v 0.200000 0.080000 -2.400000
v 0.600000 0.080000 -2.400000
v 0.200000 0.080000 -3.600000
v 1.400000 0.080000 -3.600000
v 1.000000 0.080000 -2.400000
v 1.400000 0.080000 -2.400000
v 1.000000 0.080000 -3.600000
v -0.200000 0.080000 2.400000
v -0.600000 0.080000 3.600000
v -0.200000 0.080000 3.600000
v -0.600000 0.080000 2.400000
v -1.800000 0.080000 2.400000
v -2.200000 0.080000 3.600000
v -1.800000 0.080000 3.600000
v -2.200000 0.080000 2.400000
v -1.000000 0.080000 2.400000
v -1.400000 0.080000 3.600000
v -1.000000 0.080000 3.600000
v -1.400000 0.080000 2.400000
v 2.200000 0.080000 2.400000
v 1.800000 0.080000 3.600000
v 2.200000 0.080000 3.600000
v 1.800000 0.080000 2.400000
v 0.600000 0.080000 2.400000
v 0.200000 0.080000 3.600000
v 0.600000 0.080000 3.600000
v 0.200000 0.080000 2.400000
v 1.400000 0.080000 2.400000
v 1.000000 0.080000 3.600000
v 1.400000 0.080000 3.600000
v 1.000000 0.080000 2.400000
v -2.400000 0.080000 -4.000000
v 2.400000 0.080000 -4.000000
v 2.400000 0.080000 -2.400000
v 2.400000 0.080000 4.000000
v -2.400000 0.080000 4.000000
v -2.400000 0.080000 -2.400000
v -4.000000 0.080000 -2.400000
v -4.000000 0.080000 2.400000
v -2.400000 0.080000 2.400000
v 4.000000 0.080000 2.400000
v 2.400000 0.080000 2.400000
v 4.000000 0.080000 -2.400000
v 4.000000 -0.000000 4.000000
v 3.200000 0.080000 4.000000
v -4.000000 -0.000000 4.000000
v 4.000000 0.160000 4.000000
v 3.200000 0.160000 4.000000
v -3.200000 0.080000 4.000000
v -4.000000 0.160000 4.000000
v -3.200000 0.160000 4.000000
v -4.000000 0.000000 -4.000000
v -4.000000 0.080000 -3.200000
v -4.000000 0.160000 -4.000000
v -4.000000 0.080000 3.200000
v -4.000000 0.160000 3.200000
v -4.000000 0.160000 -3.200000
v 4.000000 0.080000 3.200000
v 4.000000 0.160000 3.200000
v 4.000000 0.080000 -3.200000
v 4.000000 0.000000 -4.000000
v 4.000000 0.160000 -3.200000
v 4.000000 0.160000 -4.000000
v -3.200000 0.080000 -4.000000
v -3.200000 0.160000 -4.000000
v 3.200000 0.080000 -4.000000
v 3.200000 0.160000 -4.000000
v -3.200000 0.080000 3.200000
v -3.200000 0.080000 -3.200000
v 3.200000 0.080000 3.200000
v 3.200000 0.080000 -3.200000
v -3.200000 0.160000 3.200000
v 3.200000 0.160000 3.200000
v -3.200000 0.160000 -3.200000
v 3.200000 0.160000 -3.200000
vt 0.361736 0.898981
vt 0.386566 0.973472
vt 0.361736 0.973472
vt 0.386566 0.898981
vt 0.312076 0.898981
vt 0.336906 0.973472
vt 0.312076 0.973472
vt 0.336906 0.898981
vt 0.163094 0.898981
vt 0.187924 0.973472
vt 0.163094 0.973472
vt 0.187924 0.898981
vt 0.262415 0.526528
vt 0.287245 0.601019
vt 0.262415 0.601019
vt 0.287245 0.526528
vt 0.113434 0.898981
vt 0.138264 0.973472
vt 0.113434 0.973472
vt 0.138264 0.898981
vt 0.361736 0.526528
vt 0.386566 0.601019
vt 0.361736 0.601019
vt 0.386566 0.526528
vt 0.212755 0.898981
vt 0.237585 0.973472
vt 0.212755 0.973472
vt 0.237585 0.898981
vt 0.113434 0.526528
vt 0.138264 0.601019
vt 0.113434 0.601019
vt 0.138264 0.526528
vt 0.212755 0.526528
vt 0.237585 0.601019
vt 0.212755 0.601019
vt 0.237585 0.526528
vt 0.163094 0.526528
vt 0.187924 0.601019
vt 0.163094 0.601019
vt 0.187924 0.526528
vt 0.262415 0.898981
vt 0.287245 0.973472
vt 0.262415 0.973472
vt 0.287245 0.898981
vt 0.312076 0.526528
vt 0.336906 0.601019
vt 0.312076 0.601019
vt 0.336906 0.526528
vt 0.026528 0.886566
vt 0.101019 0.861736
vt 0.101019 0.886566
vt 0.026528 0.861736
vt 0.026528 0.737585
vt 0.101019 0.712755
vt 0.101019 0.737585
vt 0.026528 0.712755
vt 0.026528 0.638264
vt 0.101019 0.613434
vt 0.101019 0.638264
vt 0.026528 0.613434
vt 0.026528 0.687925
vt 0.101019 0.663094
vt 0.101019 0.687925
vt 0.026528 0.663094
vt 0.026528 0.787245
vt 0.101019 0.762415
vt 0.101019 0.787245
vt 0.026528 0.762415
vt 0.026528 0.836906
vt 0.101019 0.812076
vt 0.101019 0.836906
vt 0.026528 0.812076
vt 0.398981 0.737585
vt 0.473472 0.712755
vt 0.473472 0.737585
vt 0.398981 0.712755
vt 0.398981 0.638264
vt 0.473472 0.613434
vt 0.473472 0.638264
vt 0.398981 0.613434
vt 0.398981 0.687925
vt 0.473472 0.663094
vt 0.473472 0.687925
vt 0.398981 0.663094
vt 0.398981 0.886566
vt 0.473472 0.861736
vt 0.473472 0.886566
vt 0.398981 0.861736
vt 0.398981 0.787246
vt 0.473472 0.762415
vt 0.473472 0.787246
vt 0.398981 0.762415
vt 0.398981 0.836906
vt 0.473472 0.812076
vt 0.473472 0.836906
vt 0.398981 0.812076
vt 0.555009 0.107810
vt 0.555009 0.480263
vt 0.555009 0.182301
vt 0.001698 0.601019
vt 0.001698 0.898981
vt 0.101019 0.898981
vt 0.498302 0.898981
vt 0.558404 0.107810
vt 0.558404 0.480263
vt 0.558404 0.182301
vt 0.498302 0.601019
vt 0.555009 0.483659
vt 0.555009 0.483659
vt 0.555009 0.483659
vt 0.565195 0.107810
vt 0.565195 0.480263
vt 0.565195 0.182301
vt 0.555009 0.498302
vt 0.555009 0.498302
vt 0.555009 0.498302
vt 0.561800 0.107810
vt 0.561800 0.480263
vt 0.561800 0.405773
vt 0.568591 0.359508
vt 0.568591 0.471244
vt 0.568591 0.371923
vt 0.101019 0.601019
vt 0.101019 0.501698
vt 0.398981 0.501698
vt 0.398981 0.601019
vt 0.587139 0.362903
vt 0.587139 0.412564
vt 0.587139 0.387733
vt 0.587139 0.437394
vt 0.555009 0.487054
vt 0.555009 0.487054
vt 0.555009 0.487054
vt 0.571987 0.309847
vt 0.571987 0.433998
vt 0.571987 0.409168
vt 0.571987 0.458829
vt 0.555009 0.494907
vt 0.555009 0.494907
vt 0.555009 0.494907
vt 0.555009 0.494907
vt 0.555009 0.494907
vt 0.555009 0.494907
vt 0.571987 0.483659
vt 0.398981 0.998302
vt 0.398981 0.898981
vt 0.555009 0.490450
vt 0.555009 0.490450
vt 0.555009 0.490450
vt 0.568591 0.107810
vt 0.568591 0.356112
vt 0.568591 0.331282
vt 0.558404 0.483659
vt 0.558404 0.483659
vt 0.558404 0.483659
vt 0.571987 0.107810
vt 0.571987 0.306452
vt 0.571987 0.281621
vt 0.558404 0.487054
vt 0.558404 0.487054
vt 0.558404 0.487054
vt 0.558404 0.487054
vt 0.558404 0.487054
vt 0.587139 0.107810
vt 0.587139 0.207131
vt 0.587139 0.182301
vt 0.587139 0.157470
vt 0.558404 0.498302
vt 0.558404 0.498302
vt 0.558404 0.498302
vt 0.583744 0.462224
vt 0.583744 0.474639
vt 0.583744 0.362903
vt 0.101019 0.998302
vt 0.528353 0.001698
vt 0.533319 0.051358
vt 0.528353 0.498302
vt 0.538285 0.001698
vt 0.533319 0.101019
vt 0.538285 0.051358
vt 0.533319 0.398981
vt 0.533319 0.448642
vt 0.538285 0.498302
vt 0.538285 0.448642
vt 0.511630 0.001698
vt 0.506664 0.051358
vt 0.501698 0.001698
vt 0.511630 0.498302
vt 0.506664 0.101019
vt 0.506664 0.398981
vt 0.506664 0.448642
vt 0.501698 0.448642
vt 0.501698 0.498302
vt 0.501698 0.051358
vt 0.524958 0.498302
vt 0.519992 0.448642
vt 0.524958 0.448642
vt 0.515026 0.498302
vt 0.519992 0.398981
vt 0.519992 0.101019
vt 0.519992 0.051358
vt 0.515026 0.001698
vt 0.524958 0.051358
vt 0.524958 0.001698
vt 0.541681 0.001698
vt 0.546647 0.051358
vt 0.541681 0.498302
vt 0.551613 0.001698
vt 0.546647 0.101019
vt 0.551613 0.051358
vt 0.546647 0.398981
vt 0.546647 0.448642
vt 0.551613 0.498302
vt 0.551613 0.448642
vt 0.575382 0.248271
vt 0.575382 0.107810
vt 0.575382 0.178040
vt 0.555009 0.104414
vt 0.604669 0.054754
vt 0.604669 0.104414
vt 0.551358 0.551358
vt 0.501698 0.551358
vt 0.551358 0.501698
vt 0.001698 0.551358
vt 0.051358 0.551358
vt 0.051358 0.501698
vt 0.448642 0.998302
vt 0.448642 0.948642
vt 0.498302 0.948642
vt 0.051358 0.948642
vt 0.001698 0.948642
vt 0.051358 0.998302
vt 0.580348 0.301327
vt 0.575382 0.251666
vt 0.580348 0.251666
vt 0.575382 0.301327
vt 0.551358 0.604414
vt 0.501698 0.554754
vt 0.551358 0.554754
vt 0.501698 0.604414
vt 0.578778 0.107810
vt 0.583744 0.157470
vt 0.578778 0.157470
vt 0.583744 0.107810
vt 0.580348 0.359508
vt 0.575382 0.309847
vt 0.580348 0.309847
vt 0.575382 0.359508
vt 0.580348 0.412564
vt 0.575382 0.362903
vt 0.580348 0.362903
vt 0.575382 0.412564
vt 0.604414 0.551358
vt 0.554754 0.501698
vt 0.604414 0.501698
vt 0.554754 0.551358
vt 0.583744 0.160866
vt 0.578778 0.210526
vt 0.578778 0.160866
vt 0.583744 0.210526
vt 0.604414 0.554754
vt 0.554754 0.604414
vt 0.554754 0.554754
vt 0.604414 0.604414
vt 0.580348 0.465620
vt 0.575382 0.415959
vt 0.580348 0.415959
vt 0.575382 0.465620
vt 0.604669 0.001698
vt 0.555009 0.051358
vt 0.555009 0.001698
vt 0.604669 0.051358
vt 0.588710 0.251666
vt 0.583744 0.301327
vt 0.583744 0.251666
vt 0.588710 0.301327
vt 0.498302 0.498302
vt 0.001698 0.001698
vt 0.498302 0.001698
vt 0.001698 0.498302
vt 0.588710 0.304722
vt 0.583744 0.354383
vt 0.583744 0.304722
vt 0.588710 0.354383
vn 0.0000 1.0000 0.0000
vn -0.5935 0.5935 -0.5436
vn 0.0031 1.0000 0.0000
vn 0.0000 0.0000 0.0000
vn 1.0000 0.0094 0.0000
vn -0.0062 1.0000 0.0000
vn 0.9277 -0.3733 0.0000
vn 0.0042 1.0000 0.0000
vn 0.0125 0.9999 0.0000
vn -0.0125 0.9999 0.0000
vn -0.0083 1.0000 0.0000
vn -0.9999 0.0100 0.0000
vn 0.0094 1.0000 0.0000
vn 0.9993 0.0374 0.0000
vn -0.9972 0.0744 0.0000
vn -0.0187 0.9998 0.0000
vn 0.3765 0.3764 -0.8465
vn 0.9834 0.1565 0.0920
vn 0.2364 0.4885 -0.8399
vn 0.4332 0.8273 0.3576
vn -1.0000 0.0016 0.0000
vn -0.2861 0.2860 -0.9145
vn 0.0000 0.0000 1.0000
vn -1.0000 0.0000 0.0000
vn -1.0000 -0.0001 0.0000
vn 1.0000 0.0000 0.0000
vn 0.0000 0.0000 -1.0000
vn 0.0205 0.9998 -0.0000
vn 0.0000 -1.0000 -0.0000
s 1
f 1/1/1 2/2/1 3/3/2
f 2/2/1 1/1/1 4/4/1
f 5/5/1 6/6/3 7/7/4
f 6/6/3 5/5/1 8/8/1
f 9/9/1 10/10/5 11/11/6
f 10/10/5 9/9/1 12/12/1
f 13/13/1 14/14/7 15/15/8
f 14/14/7 13/13/1 16/16/1
f 17/17/1 18/18/9 19/19/1
f 18/18/9 17/17/1 20/20/1
f 21/21/1 22/22/1 23/23/10
f 22/22/1 21/21/1 24/24/1
f 25/25/1 26/26/11 27/27/4
f 26/26/11 25/25/1 28/28/1
f 29/29/1 30/30/9 31/31/1
f 30/30/9 29/29/1 32/32/1
f 33/33/1 34/34/12 35/35/13
f 34/34/12 33/33/1 36/36/1
f 37/37/1 38/38/14 39/39/15
f 38/38/14 37/37/1 40/40/1
f 41/41/1 42/42/16 43/43/17
f 42/42/16 41/41/1 44/44/1
f 45/45/1 46/46/9 47/47/17
f 46/46/9 45/45/1 48/48/1
f 49/49/1 50/50/1 51/51/1
f 50/50/1 49/49/1 52/52/1
f 53/53/1 54/54/1 55/55/1
f 54/54/1 53/53/1 56/56/1
f 57/57/1 58/58/1 59/59/1
f 58/58/1 57/57/1 60/60/1
f 61/61/1 62/62/1 63/63/1
f 62/62/1 61/61/1 64/64/1
f 65/65/1 66/66/1 67/67/1
f 66/66/1 65/65/1 68/68/1
f 69/69/1 70/70/1 71/71/1
f 70/70/1 69/69/1 72/72/1
f 73/73/18 74/74/1 75/75/1
f 74/74/1 73/73/18 76/76/1
f 77/77/1 78/78/1 79/79/1
f 78/78/1 77/77/1 80/80/1
f 81/81/19 82/82/1 83/83/1
f 82/82/1 81/81/19 84/84/1
f 85/85/1 86/86/1 87/87/1
f 86/86/1 85/85/1 88/88/1
f 89/89/1 90/90/1 91/91/1
f 90/90/1 89/89/1 92/92/1
f 93/93/20 94/94/1 95/95/1
f 94/94/1 93/93/20 96/96/1
f 71/71/1 96/96/1 93/93/20
f 96/96/1 71/71/1 70/70/1
f 95/97/1 71/98/1 93/99/20
f 52/52/1 71/71/1 95/95/1
f 52/52/1 69/69/1 71/71/1
f 52/52/1 97/100/1 69/69/1
f 49/49/1 97/100/1 52/52/1
f 49/49/1 98/101/1 97/100/1
f 98/101/1 49/49/1 99/102/1
f 99/102/1 49/49/1 17/17/1
f 17/17/1 49/49/1 20/20/1
f 20/20/1 49/49/1 9/9/1
f 9/9/1 49/49/1 12/12/1
f 12/12/1 49/49/1 25/25/1
f 25/25/1 49/49/1 28/28/1
f 28/28/1 49/49/1 41/41/1
f 41/41/1 49/49/1 44/44/1
f 44/44/1 49/49/1 5/5/1
f 5/5/1 49/49/1 8/8/1
f 8/8/1 49/49/1 1/1/1
f 1/1/1 49/49/1 4/4/1
f 4/4/1 49/49/1 100/103/1
f 100/103/1 49/49/1 51/51/1
f 100/103/1 51/51/1 87/87/1
f 87/104/1 51/105/1 85/106/1
f 87/87/1 101/107/1 100/103/1
f 101/107/1 87/87/1 86/86/1
f 101/107/1 86/86/1 95/95/1
f 95/95/1 86/86/1 88/88/1
f 51/51/1 88/88/1 85/85/1
f 95/95/1 88/88/1 50/50/1
f 88/88/1 51/51/1 50/50/1
f 95/95/1 50/50/1 52/52/1
f 101/107/1 95/95/1 94/94/1
f 101/107/1 94/94/1 91/91/1
f 91/91/1 94/94/1 96/96/1
f 91/91/1 96/96/1 70/70/1
f 91/91/1 70/70/1 72/72/1
f 72/72/1 89/89/1 91/91/1
f 72/72/1 65/65/1 89/89/1
f 72/72/1 97/100/1 65/65/1
f 69/69/1 97/100/1 72/72/1
f 89/108/1 65/109/1 67/110/1
f 67/67/1 92/92/1 89/89/1
f 92/92/1 67/67/1 66/66/1
f 65/65/1 97/100/1 68/68/1
f 68/68/1 97/100/1 53/53/1
f 68/68/1 53/53/1 55/55/1
f 68/68/1 55/55/1 75/75/1
f 75/75/1 92/92/1 66/66/1
f 75/75/1 66/66/1 68/68/1
f 75/111/1 55/112/1 73/113/18
f 53/53/1 97/100/1 56/56/1
f 56/56/1 97/100/1 61/61/1
f 56/56/1 61/61/1 63/63/1
f 56/56/1 63/63/1 83/83/1
f 83/114/1 63/115/1 81/116/19
f 63/63/1 84/84/1 81/81/19
f 84/84/1 63/63/1 62/62/1
f 75/75/1 90/90/1 92/92/1
f 101/107/1 90/90/1 75/75/1
f 101/107/1 91/91/1 90/90/1
f 101/107/1 75/75/1 74/74/1
f 101/107/1 74/74/1 83/83/1
f 83/83/1 74/74/1 76/76/1
f 55/55/1 76/76/1 73/73/18
f 83/83/1 76/76/1 54/54/1
f 83/83/1 54/54/1 56/56/1
f 76/76/1 55/55/1 54/54/1
f 101/107/1 83/83/1 82/82/1
f 101/107/1 82/82/1 79/79/1
f 79/79/1 82/82/1 84/84/1
f 79/79/1 84/84/1 62/62/1
f 79/79/1 62/62/1 64/64/1
f 61/61/1 97/100/1 64/64/1
f 64/64/1 97/100/1 57/57/1
f 64/64/1 57/57/1 77/77/1
f 64/64/1 77/77/1 79/79/1
f 77/117/1 57/118/1 59/119/1
f 59/59/1 80/80/1 77/77/1
f 80/80/1 59/59/1 58/58/1
f 101/107/1 80/80/1 58/58/1
f 57/57/1 97/100/1 60/60/1
f 101/107/1 58/58/1 60/60/1
f 60/60/1 97/100/1 31/31/1
f 31/120/1 97/121/1 102/122/21
f 31/31/1 102/123/21 29/29/1
f 29/29/1 102/123/21 103/124/1
f 29/29/1 103/124/1 32/32/1
f 32/32/1 103/124/1 37/37/1
f 37/37/1 103/124/1 40/40/1
f 40/40/1 103/124/1 33/33/1
f 33/33/1 103/124/1 36/36/1
f 36/36/1 103/124/1 13/13/1
f 13/13/1 103/124/1 16/16/1
f 16/16/1 103/124/1 45/45/1
f 45/45/1 103/124/1 48/48/1
f 48/48/1 103/124/1 21/21/1
f 21/21/1 103/124/1 24/24/1
f 104/125/1 24/24/1 103/124/1
f 105/126/1 24/24/1 104/125/1
f 24/24/1 105/126/1 22/22/1
f 23/23/10 48/48/1 21/21/1
f 48/48/1 23/23/10 46/46/9
f 22/127/1 46/128/9 23/129/10
f 47/47/17 16/16/1 45/45/1
f 22/127/1 47/130/17 46/128/9
f 16/16/1 47/47/17 14/14/7
f 22/131/1 14/132/7 47/133/17
f 15/15/8 36/36/1 13/13/1
f 22/134/1 15/135/8 14/136/7
f 36/36/1 15/15/8 34/34/12
f 22/134/1 34/137/12 15/135/8
f 105/126/1 60/60/1 22/22/1
f 101/107/1 60/60/1 105/126/1
f 22/22/1 60/60/1 31/31/1
f 22/138/1 31/139/1 30/140/9
f 22/138/1 30/140/9 39/141/15
f 32/32/1 39/39/15 30/30/9
f 39/39/15 32/32/1 37/37/1
f 22/138/1 39/141/15 38/142/14
f 22/138/1 38/142/14 35/143/13
f 22/134/1 35/144/13 34/137/12
f 40/40/1 35/35/13 38/38/14
f 35/35/13 40/40/1 33/33/1
f 101/107/1 79/79/1 78/78/1
f 101/107/1 78/78/1 80/80/1
f 106/145/1 2/2/1 107/146/22
f 2/2/1 106/145/1 19/19/1
f 2/147/1 19/148/1 18/149/9
f 2/150/1 18/151/9 11/152/6
f 2/153/1 11/154/6 10/155/5
f 2/156/1 10/157/5 27/158/4
f 2/159/1 27/160/4 26/161/11
f 2/159/1 26/161/11 43/162/17
f 2/159/1 43/162/17 42/163/16
f 2/164/1 42/165/16 7/166/4
f 2/164/1 7/166/4 6/167/3
f 2/168/1 6/169/3 3/170/2
f 107/146/22 2/2/1 4/4/1
f 107/171/22 4/172/1 100/173/1
f 8/8/1 3/3/2 6/6/3
f 3/3/2 8/8/1 1/1/1
f 44/44/1 7/7/4 42/42/16
f 7/7/4 44/44/1 5/5/1
f 28/28/1 43/43/17 26/26/11
f 43/43/17 28/28/1 41/41/1
f 12/12/1 27/27/4 10/10/5
f 27/27/4 12/12/1 25/25/1
f 20/20/1 11/11/6 18/18/9
f 11/11/6 20/20/1 9/9/1
f 108/174/1 19/19/1 106/145/1
f 19/19/1 108/174/1 99/102/1
f 19/19/1 99/102/1 17/17/1
f 109/175/23 110/176/23 111/177/23
f 110/176/23 109/175/23 112/178/23
f 111/177/23 110/176/23 100/179/23
f 110/176/23 112/178/23 113/180/23
f 101/181/23 111/177/23 100/179/23
f 114/182/23 111/177/23 101/181/23
f 111/177/23 114/182/23 115/183/23
f 115/183/23 114/182/23 116/184/23
f 117/185/24 118/186/24 119/187/24
f 118/186/24 117/185/24 111/188/24
f 118/186/24 111/188/24 103/189/25
f 103/189/25 111/188/24 104/190/24
f 104/190/24 111/188/24 120/191/24
f 120/191/24 111/188/24 121/192/24
f 121/192/24 111/188/24 115/193/24
f 122/194/24 119/187/24 118/186/24
f 112/195/26 123/196/26 124/197/26
f 123/196/26 112/195/26 109/198/26
f 109/198/26 106/199/26 123/196/26
f 109/198/26 108/200/26 106/199/26
f 109/198/26 125/201/26 108/200/26
f 126/202/26 125/201/26 109/198/26
f 126/202/26 127/203/26 125/201/26
f 127/203/26 126/202/26 128/204/26
f 117/205/27 129/206/27 126/207/27
f 129/206/27 117/205/27 119/208/27
f 126/207/27 129/206/27 97/209/27
f 129/206/27 119/208/27 130/210/27
f 98/211/27 126/207/27 97/209/27
f 131/212/27 126/207/27 98/211/27
f 126/207/27 131/212/27 128/213/27
f 128/213/27 131/212/27 132/214/27
f 104/125/1 101/107/1 105/126/1
f 101/215/1 104/216/1 133/217/28
f 133/218/28 104/219/1 120/220/1
f 114/221/1 101/222/1 133/223/28
f 129/224/1 102/123/21 97/100/1
f 102/123/21 129/224/1 134/225/1
f 102/123/21 134/225/1 103/124/1
f 103/124/1 134/225/1 118/226/1
f 107/146/22 123/227/1 106/145/1
f 123/227/1 107/146/22 135/228/1
f 135/228/1 107/146/22 110/229/1
f 110/229/1 107/146/22 100/103/1
f 98/101/1 136/230/1 131/231/1
f 99/102/1 136/230/1 98/101/1
f 108/174/1 136/230/1 99/102/1
f 136/230/1 108/174/1 125/232/1
f 116/233/26 133/234/26 137/235/26
f 133/234/26 116/233/26 114/236/26
f 138/237/1 112/238/1 124/239/1
f 112/238/1 138/237/1 113/240/1
f 134/241/23 122/242/23 118/243/23
f 122/242/23 134/241/23 139/244/23
f 139/245/26 129/246/26 130/247/26
f 129/246/26 139/245/26 134/248/26
f 136/249/24 132/250/24 131/251/24
f 132/250/24 136/249/24 140/252/24
f 119/253/1 139/254/1 130/255/1
f 139/254/1 119/253/1 122/256/1
f 121/257/27 133/258/27 120/259/27
f 133/258/27 121/257/27 137/260/27
f 121/261/1 116/262/1 137/263/1
f 116/262/1 121/261/1 115/264/1
f 110/265/24 138/266/24 135/267/24
f 138/266/24 110/265/24 113/268/24
f 132/269/1 127/270/1 128/271/1
f 127/270/1 132/269/1 140/272/1
f 127/273/23 136/274/23 125/275/23
f 136/274/23 127/273/23 140/276/23
f 109/277/29 117/278/29 126/279/29
f 117/278/29 109/277/29 111/280/29
f 138/281/27 123/282/27 135/283/27
f 123/282/27 138/281/27 124/284/27
