# Blender v2.92.0 OBJ File: 'OGConvert.blend'
# www.blender.org
o rock_tallG
v -1.257167 4.271872 -0.084325
v -1.102248 6.263488 -0.774821
v -1.257167 4.271872 -0.810151
v -1.102248 6.263488 -0.172385
v -0.000000 4.271872 -1.535977
v -0.010237 4.618627 -1.508342
v -0.416611 6.263488 -1.170673
v 1.461822 3.059584 -0.843983
v -0.000000 3.059584 -1.687966
v 1.257167 4.271872 -0.810151
v 0.565407 4.271872 -1.209538
v -1.461822 3.059584 -0.843983
v -0.000000 0.000000 -1.962752
v -1.699793 0.000000 -0.981376
v 1.461822 3.059584 0.000000
v 1.257167 4.271872 -0.453140
v 1.418978 3.313377 -0.017653
v 0.410488 6.263488 -1.106313
v 0.121265 4.271872 0.331326
v 0.041850 6.263488 0.172605
v 0.910813 4.271872 0.042413
v 0.000000 1.529792 1.825359
v -1.699793 -0.000000 0.981376
v 0.000000 -0.000000 1.962752
v -1.461822 3.059584 0.843983
v -0.642666 3.059584 1.316923
v 0.141006 3.059584 0.483316
v 0.384449 3.059584 1.466005
v -1.461822 3.059584 0.000000
v 0.200971 6.263488 -1.227277
v 1.461822 3.059584 0.843983
v 1.699793 -0.000000 0.981376
v 1.699793 0.000000 -0.981376
vt 0.090079 0.204870
vt 0.135217 0.007288
vt 0.123729 0.210651
vt 0.107287 0.002490
vt 0.271634 0.210651
vt 0.269256 0.175244
vt 0.215882 0.007288
vt 0.372987 0.321598
vt 0.279261 0.335043
vt 0.352238 0.199089
vt 0.574081 0.819837
vt 0.697276 0.737628
vt 0.641869 0.774601
vt 0.107278 0.335043
vt 0.293466 0.648117
vt 0.093486 0.648117
vt 0.750910 0.412931
vt 0.832523 0.538322
vt 0.747074 0.538322
vt 0.787055 0.412931
vt 0.830821 0.512071
vt 0.552246 0.940526
vt 0.407429 0.737628
vt 0.569101 0.737628
vt 0.418059 0.940526
vt 0.841549 0.407973
vt 0.564085 0.533916
vt 0.418924 0.732648
vt 0.407429 0.535320
vt 0.730626 0.702213
vt 0.725086 0.607117
vt 0.277022 0.688166
vt 0.172893 0.653097
vt 0.281557 0.662373
vt 0.166444 0.777599
vt 0.231400 0.783143
vt 0.723340 0.503708
vt 0.068150 0.328321
vt 0.307886 0.205451
vt 0.288067 0.002972
vt 0.274633 0.004899
vt 0.002490 0.653097
vt 0.019898 0.777599
vt 0.730626 0.422992
vt 0.418924 0.407973
vt 0.154643 0.981031
vt 0.033009 0.981031
vt 0.402449 0.632484
vt 0.934323 0.850797
vt 0.735606 0.850797
vt 0.917971 0.538322
vt 0.002490 0.632484
vt 0.029022 0.321598
vt 0.580852 0.002490
vt 0.407429 0.302867
vt 0.407429 0.102616
vt 0.580852 0.402993
vt 0.754275 0.102616
vt 0.754275 0.302867
vt 0.759255 0.300777
vt 0.908825 0.190857
vt 0.845363 0.300777
vt 0.808565 0.166020
vt 0.893615 0.086065
vt 0.759255 0.002490
vt 0.845363 0.002490
vt 0.850581 0.997510
vt 0.874539 0.855777
vt 0.874539 0.991572
vt 0.791636 0.974509
vt 0.752629 0.857268
vt 0.735606 0.916328
vt 0.614981 0.904348
vt 0.576441 0.856185
vt 0.697276 0.928542
vn -0.9970 0.0776 0.0000
vn -0.8596 0.0758 -0.5052
vn -0.8671 0.0762 -0.4923
vn -0.4993 0.0542 -0.8648
vn 0.4971 0.1079 -0.8610
vn 0.4971 0.1081 -0.8609
vn 0.4970 0.1079 -0.8610
vn -0.4985 0.0775 -0.8634
vn 0.9860 0.1665 0.0000
vn -0.4971 0.1079 -0.8610
vn 0.9591 0.0603 0.2765
vn 0.7614 0.3703 0.5321
vn -0.4985 0.0775 0.8634
vn 0.3411 0.1224 0.9320
vn -0.1387 0.2594 0.9558
vn -0.9860 0.1665 0.0000
vn 0.4983 0.0835 -0.8630
vn -0.2868 0.1146 0.9511
vn 0.4985 0.0775 0.8634
vn -0.2881 0.0647 0.9554
vn -0.0898 0.1789 -0.9798
vn 0.4985 0.0775 -0.8634
vn 0.9970 0.0775 0.0000
vn -0.9970 0.0775 0.0000
vn 0.0000 -1.0000 -0.0000
vn 0.0000 1.0000 -0.0000
s 1
f 1/1/1 2/2/2 3/3/3
f 2/2/2 1/1/1 4/4/1
f 2/2/2 5/5/4 3/3/3
f 5/5/4 2/2/2 6/6/4
f 6/6/4 2/2/2 7/7/4
f 5/5/5 8/8/5 9/9/5
f 8/8/5 5/5/5 10/10/6
f 10/11/6 5/12/5 11/13/7
f 12/14/8 13/15/8 14/16/8
f 13/15/8 12/14/8 9/9/8
f 10/17/9 15/18/9 8/19/9
f 15/18/9 10/17/9 16/20/9
f 15/18/9 16/20/9 17/21/9
f 3/3/10 9/9/10 12/14/10
f 9/9/10 3/3/10 5/5/10
f 18/22/11 19/23/11 11/24/11
f 19/23/11 18/22/11 20/25/11
f 21/26/12 17/21/12 16/20/12
f 22/27/13 23/28/13 24/29/13
f 23/28/13 22/27/13 25/30/13
f 25/30/13 22/27/13 26/31/13
f 17/32/14 27/33/14 15/34/14
f 27/33/14 17/32/14 19/35/14
f 19/35/14 17/32/14 21/36/14
f 26/31/15 22/27/15 28/37/15
f 29/38/16 3/3/16 12/14/16
f 3/3/16 29/38/16 1/1/16
f 6/6/17 11/39/17 5/5/17
f 11/39/17 6/6/17 18/40/17
f 18/40/17 6/6/17 30/41/17
f 19/35/18 29/42/18 27/33/18
f 29/42/18 19/35/18 1/43/18
f 31/44/19 24/29/19 32/45/19
f 24/29/19 31/44/19 22/27/19
f 22/27/19 31/44/19 28/37/19
f 20/46/20 1/43/20 19/35/20
f 1/43/20 20/46/20 4/47/20
f 30/41/21 6/6/21 7/7/21
f 9/9/22 33/48/22 13/15/22
f 33/48/22 9/9/22 8/8/22
f 8/19/23 32/49/23 33/50/23
f 32/49/23 8/19/23 15/18/23
f 32/49/23 15/18/23 31/51/23
f 23/52/24 12/14/24 14/16/24
f 12/14/24 23/52/24 29/38/24
f 29/38/24 23/52/24 25/53/24
f 24/54/25 33/55/25 32/56/25
f 33/55/25 24/54/25 13/57/25
f 13/57/25 24/54/25 23/58/25
f 13/57/25 23/58/25 14/59/25
f 15/60/26 28/61/26 31/62/26
f 28/61/26 15/60/26 27/63/26
f 28/61/26 27/63/26 26/64/26
f 26/64/26 27/63/26 29/65/26
f 26/64/26 29/65/26 25/66/26
f 30/67/26 20/68/26 18/69/26
f 20/68/26 30/67/26 7/70/26
f 20/68/26 7/70/26 4/71/26
f 4/71/26 7/70/26 2/72/26
f 10/11/26 21/73/26 16/74/26
f 21/73/26 10/11/26 11/13/26
f 21/73/26 11/13/26 19/75/26
