# Blender v2.92.0 OBJ File: 'OGConvert.blend'
# www.blender.org
o roofHighCorner
v -3.765686 0.800000 -4.000000
v 3.200000 7.765686 -3.200000
v 3.200000 7.765686 -4.000000
v -3.765686 0.800000 3.765686
v 4.000000 9.125688 -4.000000
v 3.200000 8.325688 -3.200000
v 4.000000 8.325688 -3.200000
v 4.000000 -0.000000 4.565686
v -4.282843 -0.282843 4.282843
v 4.000000 -0.282843 4.282843
v -4.565686 -0.000000 4.565686
v -4.000000 -0.000000 4.000000
v -4.282843 -0.282843 -4.000000
v -4.000000 0.000000 -4.000000
v 3.200000 8.325688 -4.000000
v 4.000000 7.765686 -3.200000
v -4.565686 0.000000 -4.000000
v 4.000000 0.800000 3.765686
v 4.000000 -0.000000 4.000000
v 4.000000 0.000000 -4.000000
vt 0.389236 0.516340
vt 0.353084 0.071171
vt 0.389236 0.071171
vt 0.038302 0.516340
vt 0.393535 0.002150
vt 0.429688 0.038302
vt 0.393535 0.038302
vt 0.393535 0.414543
vt 0.767840 0.427325
vt 0.393535 0.427325
vt 0.780622 0.414543
vt 0.807296 0.014931
vt 0.825372 0.376454
vt 0.807296 0.376454
vt 0.825372 0.002150
vt 0.389236 0.053277
vt 0.353084 0.053277
vt 0.429688 0.063609
vt 0.393535 0.063609
vt 0.802997 0.002150
vt 0.784921 0.389236
vt 0.784921 0.014931
vt 0.802997 0.389236
vt 0.393535 0.378391
vt 0.744470 0.378391
vt 0.829671 0.376454
vt 0.842453 0.014931
vt 0.842453 0.376454
vt 0.829671 0.002150
vt 0.389236 0.002150
vt 0.002150 0.567467
vt 0.389236 0.567467
vt 0.676601 0.432252
vt 0.657907 0.449689
vt 0.658536 0.431624
vt 0.674823 0.483349
vt 0.393535 0.696279
vt 0.659340 0.928248
vt 0.674823 0.997850
vt 0.676601 0.946754
vt 0.002150 0.933289
vt 0.257785 0.571766
vt 0.257785 0.933290
vt 0.002150 0.571766
vt 0.914748 0.475877
vt 0.680900 0.607789
vt 0.913279 0.431624
vt 0.900488 0.486687
vt 0.899304 0.895884
vt 0.913279 0.872003
vt 0.914748 0.916256
vt 0.899823 0.911530
vn -0.7071 0.7071 0.0000
vn 0.0000 0.7071 0.7071
vn 0.0000 -0.7071 0.7071
vn 0.7071 -0.7071 -0.0000
vn -1.0000 -0.0000 0.0000
vn 0.0000 -0.0000 1.0000
vn -0.7071 -0.7071 -0.0000
vn 0.0000 -0.7071 -0.7071
vn 0.0000 0.0000 -1.0000
vn 0.0000 -1.0000 -0.0000
vn 1.0000 0.0000 0.0000
s 1
f 1/1/1 2/2/1 3/3/1
f 2/2/1 1/1/1 4/4/1
f 5/5/2 6/6/2 7/7/2
f 8/8/3 9/9/3 10/10/3
f 9/9/3 8/8/3 11/11/3
f 12/12/4 13/13/4 14/14/4
f 13/13/4 12/12/4 9/15/4
f 2/2/5 15/16/5 3/3/5
f 15/16/5 2/2/5 6/17/5
f 7/7/6 2/18/6 16/19/6
f 2/18/6 7/7/6 6/6/6
f 11/20/7 13/21/7 9/22/7
f 13/21/7 11/20/7 17/23/7
f 2/18/2 18/24/2 16/19/2
f 18/24/2 2/18/2 4/25/2
f 10/26/8 12/27/8 19/28/8
f 12/27/8 10/26/8 9/29/8
f 6/17/1 5/30/1 15/16/1
f 18/24/2 11/11/2 8/8/2
f 11/11/2 18/24/2 4/25/2
f 11/31/1 1/1/1 17/32/1
f 1/1/1 11/31/1 4/4/1
f 17/33/9 14/34/9 13/35/9
f 14/34/9 17/33/9 1/36/9
f 14/34/9 1/36/9 20/37/9
f 20/37/9 1/36/9 3/38/9
f 20/37/9 3/38/9 5/39/9
f 5/39/9 3/38/9 15/40/9
f 12/41/10 20/42/10 19/43/10
f 20/42/10 12/41/10 14/44/10
f 7/45/11 20/46/11 5/47/11
f 20/46/11 7/45/11 16/48/11
f 20/46/11 16/48/11 19/49/11
f 19/49/11 16/48/11 18/50/11
f 19/49/11 18/50/11 8/51/11
f 19/49/11 8/51/11 10/52/11
