# Blender v2.92.0 OBJ File: 'OGConvert.blend'
# www.blender.org
o satelliteDish_large
v -1.561293 2.665382 1.355582
v -2.208000 3.787297 0.198456
v -2.208000 3.440000 0.000000
v -1.561293 3.012679 1.554036
v 0.000000 4.535474 -1.917081
v 1.561292 4.561915 -1.157125
v 1.561292 4.214618 -1.355581
v 0.000000 4.882772 -1.718625
v 0.000000 4.010108 1.420988
v -0.896526 3.689793 1.175315
v 0.000000 3.505550 1.497740
v -0.672396 4.148291 1.179170
v 0.000000 6.111565 -1.853449
v -2.400486 6.020163 -1.290383
v -2.075155 5.685106 -1.107144
v 0.000000 6.513482 -2.153689
v 2.208000 3.787297 0.198456
v 1.561292 2.665382 1.355582
v 2.208000 3.440000 0.000000
v 1.561292 3.012679 1.554036
v -1.561293 4.561915 -1.157125
v -1.561293 4.214618 -1.355581
v 0.000000 4.763639 -0.703917
v -0.672396 4.815493 0.011564
v 0.000000 4.953675 -0.230255
v -0.896526 4.579396 -0.381492
v -1.267882 4.134594 0.396912
v -0.950910 4.481892 0.595367
v 0.950910 4.481892 0.595367
v 0.896527 3.689793 1.175315
v 1.267882 4.134594 0.396912
v 0.672396 4.148291 1.179170
v 0.000000 2.691822 2.115537
v 0.000000 2.344526 1.917081
v 2.400486 6.020163 -1.290383
v 2.934711 4.655540 0.694595
v 3.394800 4.829189 0.793823
v 2.075154 5.685106 -1.107144
v 0.672396 4.815493 0.011564
v 0.896527 4.579396 -0.381492
v -2.075155 3.625976 2.496333
v 0.000000 3.144897 3.741334
v 0.000000 3.199516 3.242638
v -2.400486 3.638214 2.878028
v 2.400486 3.638214 2.878028
v 2.075154 3.625976 2.496333
v -2.934711 4.655540 0.694595
v -3.394800 4.829189 0.793823
v -0.400000 3.200000 0.420000
v 0.400000 3.897142 -0.800000
v 0.400000 3.200000 0.420000
v -0.400000 3.897142 -0.800000
v -0.799999 3.897142 -0.800000
v -0.799999 2.982857 0.800000
v 0.800000 2.982857 0.800000
v 0.800000 3.897142 -0.800000
v -2.805799 5.534686 -0.440797
v -2.851654 5.479761 -0.344679
v -2.897644 5.424677 -0.248280
v -2.943498 5.369752 -0.152162
v -0.799999 2.800000 -0.800000
v 1.200000 0.400000 -1.200000
v -1.200001 0.400000 -1.200000
v 0.800000 2.800000 -0.800000
v 0.800000 2.800000 0.800000
v -1.200001 0.400000 1.200000
v 1.200000 0.400000 1.200000
v -0.799999 2.800000 0.800000
v -0.400000 3.200000 -0.800000
v 0.400000 3.200000 -0.800000
v -1.554447 4.134594 0.396912
v -1.099159 3.589258 1.351249
v 1.600000 0.400000 -1.600000
v 1.600000 0.400000 1.600000
v -1.600000 0.400000 -1.600000
v -1.600000 0.400000 1.600000
v 1.554446 4.134594 0.396912
v 1.099159 3.589258 1.351249
v 1.099159 4.679930 -0.557426
v 0.000000 3.363374 1.746549
v 0.000000 4.905816 -0.952726
v -1.099159 4.679930 -0.557426
v -1.326803 4.407262 -0.080257
v -1.600000 -0.000000 1.600000
v -1.600000 0.000000 -1.600000
v 1.600000 -0.000000 1.600000
v 1.600000 0.000000 -1.600000
v 0.160000 4.561275 0.456448
v -0.160000 4.561275 0.456448
v -0.160000 4.402510 0.734286
v 0.160000 4.402510 0.734286
v -0.080000 5.910772 1.319730
v 0.080000 5.831389 1.458649
v 0.080000 5.910772 1.319730
v -0.080000 5.831389 1.458649
vt 0.993012 0.277839
vt 0.968008 0.171960
vt 0.996141 0.172276
vt 0.964879 0.277523
vt 0.427222 0.622050
vt 0.414014 0.512163
vt 0.440871 0.512163
vt 0.400365 0.622050
vt 0.187192 0.811741
vt 0.160589 0.874840
vt 0.154793 0.811741
vt 0.191539 0.859065
vt 0.032837 0.145584
vt 0.132915 0.003859
vt 0.144403 0.033822
vt 0.003859 0.133142
vt 0.909733 0.659209
vt 0.884349 0.768816
vt 0.881595 0.659551
vt 0.912486 0.768475
vt 0.968008 0.058576
vt 0.996141 0.058893
vt 0.138369 0.190631
vt 0.196849 0.162871
vt 0.160700 0.199085
vt 0.186568 0.142347
vt 0.881595 0.837171
vt 0.911222 0.887816
vt 0.882525 0.902271
vt 0.910524 0.838990
vt 0.912357 0.364996
vt 0.884334 0.428030
vt 0.883539 0.365272
vt 0.912953 0.412065
vt 0.013952 0.748642
vt 0.031311 0.858528
vt 0.003859 0.858528
vt 0.041404 0.748642
vt 0.003859 0.316012
vt 0.144403 0.415475
vt 0.132915 0.445345
vt 0.032837 0.303670
vt 0.160700 0.250308
vt 0.138369 0.258929
vt 0.413745 0.145659
vt 0.444484 0.316098
vt 0.413745 0.303744
vt 0.444484 0.133229
vt 0.909733 0.548737
vt 0.881595 0.549079
vt 0.414014 0.731936
vt 0.440871 0.731936
vt 0.912953 0.317424
vt 0.884334 0.301842
vt 0.160589 0.748642
vt 0.191539 0.764416
vt 0.315428 0.445381
vt 0.302180 0.415506
vt 0.882525 0.776535
vt 0.911222 0.793513
vt 0.302180 0.033853
vt 0.315428 0.003895
vt 0.013952 0.968414
vt 0.041404 0.968414
vt 0.165838 0.635723
vt 0.096985 0.546863
vt 0.187087 0.583581
vt 0.003859 0.539314
vt 0.075736 0.599005
vt 0.003859 0.657974
vt 0.065112 0.625076
vt 0.204090 0.739571
vt 0.183278 0.673230
vt 0.287028 0.654709
vt 0.225776 0.568947
vt 0.287028 0.536049
vt 0.086797 0.454452
vt 0.204090 0.453099
vt 0.107609 0.520792
vt 0.086798 0.740923
vt 0.207313 0.003874
vt 0.215730 0.003875
vt 0.224171 0.003877
vt 0.232588 0.003879
vt 0.813083 0.896032
vt 0.672320 0.724996
vt 0.841236 0.724996
vt 0.700472 0.896032
vt 0.863509 0.287267
vt 0.710116 0.428030
vt 0.710116 0.259114
vt 0.863509 0.399877
vt 0.480443 0.799558
vt 0.621117 0.969306
vt 0.452202 0.969306
vt 0.593053 0.799558
vt 0.710116 0.251396
vt 0.851542 0.080870
vt 0.878761 0.251396
vt 0.739112 0.080870
vt 0.480433 0.722381
vt 0.593051 0.786695
vt 0.784930 0.923539
vt 0.813083 0.971480
vt 0.784930 0.971480
vt 0.728625 0.923539
vt 0.700472 0.971480
vt 0.728625 0.971480
vt 0.851221 0.003859
vt 0.739058 0.068035
vt 0.875821 0.287267
vt 0.875821 0.399877
vt 0.521051 0.411741
vt 0.702397 0.398194
vt 0.687269 0.481723
vt 0.594288 0.352677
vt 0.262436 0.123728
vt 0.321529 0.182949
vt 0.672320 0.717277
vt 0.697514 0.688798
vt 0.873877 0.714581
vt 0.672320 0.492137
vt 0.697514 0.519943
vt 0.848682 0.517920
vt 0.848682 0.686776
vt 0.873877 0.489441
vt 0.315732 0.453099
vt 0.294746 0.622050
vt 0.991619 0.659291
vt 0.991619 0.489441
vt 0.178865 0.325864
vt 0.262436 0.325881
vt 0.119772 0.266644
vt 0.321529 0.266683
vt 0.315732 0.791000
vt 0.119772 0.182909
vt 0.178865 0.123712
vt 0.886479 0.074920
vt 0.886479 0.003859
vt 0.886479 0.082960
vt 0.886479 0.091023
vt 0.886479 0.099062
vt 0.886479 0.178186
vt 0.521051 0.073841
vt 0.702397 0.087388
vt 0.594288 0.132904
vt 0.687269 0.003859
vt 0.220651 0.123720
vt 0.049122 0.748758
vt 0.077199 0.973502
vt 0.049122 0.973619
vt 0.077199 0.748642
vt 0.120143 0.973863
vt 0.147075 0.748642
vt 0.147075 0.973863
vt 0.120143 0.748642
vt 0.452202 0.242791
vt 0.549508 0.242791
vt 0.628835 0.722384
vt 0.656972 0.947600
vt 0.628835 0.947604
vt 0.656972 0.722381
vt 0.112425 0.748642
vt 0.084918 0.973863
vt 0.084918 0.748642
vt 0.112425 0.973863
vt 0.452202 0.489441
vt 0.664601 0.714662
vt 0.452202 0.714662
vt 0.664601 0.489441
vt 0.294746 0.798718
vt 0.337328 0.873281
vt 0.294746 0.897606
vt 0.255537 0.749394
vt 0.199257 0.825492
vt 0.199257 0.748642
vt 0.255537 0.826245
vt 0.345403 0.798718
vt 0.393981 0.884445
vt 0.345046 0.884445
vt 0.247973 0.286545
vt 0.196849 0.286535
vt 0.207726 0.230800
vt 0.216328 0.209994
vt 0.237096 0.218617
vt 0.228494 0.239423
vt 0.284122 0.250332
vt 0.284122 0.199109
vt 0.247973 0.162881
vt 0.186568 0.307232
vt 0.254733 0.142361
vt 0.254733 0.307246
vt 0.302932 0.258961
vt 0.302932 0.190664
vt 0.710116 0.435748
vt 0.721359 0.447022
vt 0.710116 0.447005
vt 0.721359 0.435765
vt 0.848954 0.837735
vt 0.865922 0.724996
vt 0.871394 0.837735
vt 0.854702 0.724996
vt 0.418591 0.909774
vt 0.401699 0.798718
vt 0.424221 0.798718
vt 0.407330 0.909774
vt 0.280174 0.861371
vt 0.263256 0.748642
vt 0.285776 0.748642
vt 0.268914 0.861371
vt 0.221779 0.833963
vt 0.204888 0.939703
vt 0.199257 0.833963
vt 0.216149 0.939703
vn -0.9239 -0.1899 0.3323
vn 0.3827 0.4584 -0.8022
vn -0.3088 0.1430 0.9403
vn 0.1629 0.5905 0.7904
vn 0.9239 -0.1899 0.3323
vn -0.9239 0.1899 -0.3323
vn -0.3088 0.8827 -0.3542
vn -0.7455 0.6661 0.0250
vn 0.7455 0.3597 0.5612
vn 0.3827 -0.4584 0.8022
vn -0.3933 0.7048 0.5904
vn 0.3088 0.8827 -0.3542
vn 0.1629 0.9808 0.1074
vn 0.9239 0.1899 -0.3323
vn -0.3827 0.4584 -0.8022
vn 0.7455 0.6661 0.0250
vn 0.3088 0.1430 0.9403
vn -0.3933 0.8665 0.3075
vn -0.1629 0.9808 0.1074
vn -0.7455 0.3597 0.5612
vn 0.3933 0.8665 0.3075
vn -0.3827 -0.4584 0.8022
vn 0.0000 -0.8682 -0.4961
vn 0.3933 0.7048 0.5904
vn -0.1629 0.5905 0.7904
vn 0.0000 0.1644 -0.9864
vn 0.0000 0.1644 0.9864
vn 0.9864 0.1644 0.0000
vn -0.9864 0.1644 0.0000
vn 1.0000 0.0000 0.0000
vn 0.0000 0.0000 -1.0000
vn -1.0000 -0.0000 0.0000
vn 0.0000 0.0000 1.0000
vn 0.6820 -0.7258 -0.0894
vn 0.0000 1.0000 0.0000
vn 0.2825 -0.2473 -0.9268
vn 0.6820 -0.4455 -0.5800
vn -0.2825 -0.2473 -0.9268
vn -0.6820 -0.4455 -0.5800
vn -0.6820 -0.7258 -0.0894
vn 0.2825 -0.9241 0.2575
vn 0.0000 -1.0000 -0.0000
vn -0.2825 -0.9241 0.2575
vn 0.0000 0.8682 0.4961
vn -0.9988 0.0434 0.0248
vn 0.0000 -0.4522 0.8919
vn 0.9988 0.0434 0.0248
vn 0.0000 0.5389 -0.8424
s 1
f 1/1/1 2/2/1 3/3/1
f 2/2/1 1/1/1 4/4/1
f 5/5/2 6/6/2 7/7/2
f 6/6/2 5/5/2 8/8/2
f 9/9/3 10/10/3 11/11/3
f 10/10/3 9/9/3 12/12/3
f 13/13/4 14/14/4 15/15/4
f 14/14/4 13/13/4 16/16/4
f 17/17/5 18/18/5 19/19/5
f 18/18/5 17/17/5 20/20/5
f 3/3/6 21/21/6 22/22/6
f 21/21/6 3/3/6 2/2/6
f 23/23/7 24/24/7 25/25/7
f 24/24/7 23/23/7 26/26/7
f 27/27/8 24/28/8 26/29/8
f 24/28/8 27/27/8 28/30/8
f 29/31/9 30/32/9 31/33/9
f 30/32/9 29/31/9 32/34/9
f 18/35/10 33/36/10 34/37/10
f 33/36/10 18/35/10 20/38/10
f 35/39/11 36/40/11 37/41/11
f 36/40/11 35/39/11 38/42/11
f 23/23/12 39/43/12 40/44/12
f 39/43/12 23/23/12 25/25/12
f 41/45/13 42/46/13 43/47/13
f 42/46/13 41/45/13 44/48/13
f 6/49/14 19/19/14 7/50/14
f 19/19/14 6/49/14 17/17/14
f 21/51/15 5/5/15 22/52/15
f 5/5/15 21/51/15 8/8/15
f 39/53/16 31/33/16 40/54/16
f 31/33/16 39/53/16 29/31/16
f 30/55/17 9/9/17 11/11/17
f 9/9/17 30/55/17 32/56/17
f 36/40/18 45/57/18 37/41/18
f 45/57/18 36/40/18 46/58/18
f 46/58/19 42/46/19 45/57/19
f 42/46/19 46/58/19 43/47/19
f 10/59/20 28/30/20 27/27/20
f 28/30/20 10/59/20 12/60/20
f 47/61/21 44/48/21 41/45/21
f 44/48/21 47/61/21 48/62/21
f 33/36/22 1/63/22 34/37/22
f 1/63/22 33/36/22 4/64/22
f 49/65/23 50/66/23 51/67/23
f 50/66/23 49/65/23 5/68/23
f 5/68/23 49/65/23 52/69/23
f 52/69/23 22/70/23 5/68/23
f 22/70/23 52/69/23 53/71/23
f 22/70/23 53/71/23 1/72/23
f 54/73/23 1/72/23 53/71/23
f 54/73/23 34/74/23 1/72/23
f 55/75/23 34/74/23 54/73/23
f 55/75/23 18/76/23 34/74/23
f 7/77/23 18/76/23 55/75/23
f 18/76/23 7/77/23 19/78/23
f 7/77/23 55/75/23 56/79/23
f 56/79/23 5/68/23 7/77/23
f 5/68/23 56/79/23 50/66/23
f 22/70/23 1/72/23 3/80/23
f 14/14/24 47/61/24 15/15/24
f 47/61/24 14/14/24 57/81/24
f 47/61/24 57/81/24 58/82/24
f 47/61/24 58/82/24 59/83/24
f 47/61/24 59/83/24 60/84/24
f 47/61/24 60/84/24 48/62/24
f 35/39/25 13/13/25 38/42/25
f 13/13/25 35/39/25 16/16/25
f 61/85/26 62/86/26 63/87/26
f 62/86/26 61/85/26 64/88/26
f 65/89/27 66/90/27 67/91/27
f 66/90/27 65/89/27 68/92/27
f 64/93/28 67/94/28 62/95/28
f 67/94/28 64/93/28 65/96/28
f 66/97/29 61/98/29 63/99/29
f 61/98/29 66/97/29 68/100/29
f 56/101/30 65/96/30 64/93/30
f 65/96/30 56/101/30 55/102/30
f 61/85/31 69/103/31 64/88/31
f 69/103/31 61/85/31 53/104/31
f 69/103/31 53/104/31 52/105/31
f 70/106/31 64/88/31 69/103/31
f 64/88/31 70/106/31 56/107/31
f 56/107/31 70/106/31 50/108/31
f 68/100/32 53/109/32 61/98/32
f 53/109/32 68/100/32 54/110/32
f 55/111/33 68/92/33 65/89/33
f 68/92/33 55/111/33 54/112/33
f 45/113/34 17/114/34 37/115/34
f 17/114/34 45/113/34 20/116/34
f 71/117/21 41/45/21 72/118/21
f 41/45/21 71/117/21 47/61/21
f 73/119/35 62/120/35 74/121/35
f 62/120/35 73/119/35 75/122/35
f 62/120/35 75/122/35 63/123/35
f 63/123/35 75/122/35 66/124/35
f 67/125/35 74/121/35 62/120/35
f 74/121/35 67/125/35 76/126/35
f 76/126/35 67/125/35 66/124/35
f 76/126/35 66/124/35 75/122/35
f 8/8/36 35/127/36 6/6/36
f 35/127/36 8/8/36 16/128/36
f 37/129/37 6/49/37 35/130/37
f 6/49/37 37/129/37 17/17/37
f 77/131/18 46/58/18 36/40/18
f 46/58/18 77/131/18 78/132/18
f 38/42/11 77/131/11 36/40/11
f 77/131/11 38/42/11 79/133/11
f 72/118/13 43/47/13 80/134/13
f 43/47/13 72/118/13 41/45/13
f 14/135/38 8/8/38 21/51/38
f 8/8/38 14/135/38 16/128/38
f 78/132/19 43/47/19 46/58/19
f 43/47/19 78/132/19 80/134/19
f 38/42/25 81/136/25 79/133/25
f 81/136/25 38/42/25 13/13/25
f 81/136/4 15/15/4 82/137/4
f 15/15/4 81/136/4 13/13/4
f 21/21/39 57/138/39 14/139/39
f 57/138/39 21/21/39 2/2/39
f 57/138/39 2/2/39 58/140/39
f 58/140/39 2/2/39 59/141/39
f 59/141/39 2/2/39 60/142/39
f 60/142/39 2/2/39 48/143/39
f 44/144/40 2/145/40 4/146/40
f 2/145/40 44/144/40 48/147/40
f 15/15/24 83/148/24 82/137/24
f 83/148/24 15/15/24 71/117/24
f 71/117/24 15/15/24 47/61/24
f 84/149/32 75/150/32 85/151/32
f 75/150/32 84/149/32 76/152/32
f 74/153/33 84/154/33 86/155/33
f 84/154/33 74/153/33 76/156/33
f 42/157/41 20/116/41 45/113/41
f 20/116/41 42/157/41 33/158/41
f 74/159/30 87/160/30 73/161/30
f 87/160/30 74/159/30 86/162/30
f 75/163/31 87/164/31 85/165/31
f 87/164/31 75/163/31 73/166/31
f 84/167/42 87/168/42 86/169/42
f 87/168/42 84/167/42 85/170/42
f 44/144/43 33/158/43 42/157/43
f 33/158/43 44/144/43 4/146/43
f 49/171/30 69/172/30 52/173/30
f 69/174/35 51/175/35 70/176/35
f 51/175/35 69/174/35 49/177/35
f 51/178/32 50/179/32 70/180/32
f 39/43/44 32/181/44 29/182/44
f 32/181/44 39/43/44 25/25/44
f 32/181/44 25/25/44 88/183/44
f 88/183/44 25/25/44 89/184/44
f 89/184/44 25/25/44 24/24/44
f 89/184/44 24/24/44 90/185/44
f 91/186/44 32/181/44 88/183/44
f 32/181/44 91/186/44 9/187/44
f 9/187/44 91/186/44 90/185/44
f 9/187/44 90/185/44 12/188/44
f 12/188/44 90/185/44 24/24/44
f 12/188/44 24/24/44 28/189/44
f 79/133/44 31/190/44 77/131/44
f 31/190/44 79/133/44 40/44/44
f 40/44/44 79/133/44 81/136/44
f 40/44/44 81/136/44 23/23/44
f 23/23/44 81/136/44 82/137/44
f 23/23/44 82/137/44 26/26/44
f 26/26/44 82/137/44 27/191/44
f 27/191/44 82/137/44 83/148/44
f 31/190/44 78/132/44 77/131/44
f 78/132/44 31/190/44 30/192/44
f 78/132/44 30/192/44 80/134/44
f 80/134/44 30/192/44 11/193/44
f 80/134/44 11/193/44 10/194/44
f 80/134/44 10/194/44 72/118/44
f 72/118/44 10/194/44 27/191/44
f 72/118/44 27/191/44 71/117/44
f 71/117/44 27/191/44 83/148/44
f 92/195/44 93/196/44 94/197/44
f 93/196/44 92/195/44 95/198/44
f 90/199/45 92/200/45 89/201/45
f 92/200/45 90/199/45 95/202/45
f 93/203/46 90/204/46 91/205/46
f 90/204/46 93/203/46 95/206/46
f 94/207/47 91/208/47 88/209/47
f 91/208/47 94/207/47 93/210/47
f 89/211/48 94/212/48 88/213/48
f 94/212/48 89/211/48 92/214/48
