# Blender v2.92.0 OBJ File: 'OGConvert.blend'
# www.blender.org
o shieldBlue
v 3.983907 -9.664984 -2.256000
v 3.983907 -9.664984 2.256001
v 2.747890 -10.479528 2.256001
v 2.747890 -10.479528 -2.256000
v 9.527152 -1.187211 2.256000
v 9.309160 -2.365679 2.256001
v 9.309160 -2.365680 -2.256000
v 9.527152 -1.187212 -2.256000
v 8.947616 -3.526722 2.256001
v 8.947616 -3.526723 -2.256000
v 4.800000 6.468453 2.256000
v 4.947726 9.542008 2.256000
v 3.316918 9.778352 2.256000
v 1.664004 9.920784 2.256000
v 1.416653 -11.216888 2.256001
v 0.000000 9.968376 2.256000
v 0.000000 -11.871632 2.256001
v -1.664004 9.920784 2.256000
v -1.435523 -11.083384 2.256001
v -2.778012 -10.218528 2.256001
v -3.316918 9.778352 2.256000
v -4.019145 -9.282424 2.256001
v -4.947726 9.542008 2.256000
v -4.947726 6.468453 2.256000
v -5.151229 -8.280880 2.256001
v -9.600000 6.468453 2.256000
v -6.167245 -7.220089 2.256001
v -7.060900 -6.106642 2.256001
v -7.826652 -4.947433 2.256001
v -8.459752 -3.749648 2.256001
v -8.956288 -2.520712 2.256001
v -9.313160 -1.268241 2.256001
v -9.528184 0.000000 2.256000
v -9.600000 1.276151 2.256000
v 9.600000 0.000000 2.256000
v 9.600000 6.468453 2.256000
v 8.445192 -4.661790 2.256001
v 7.805580 -5.762524 2.256001
v 7.033498 -6.820813 2.256001
v 6.134631 -7.828866 2.256001
v 5.115598 -8.779256 2.256001
v -4.947726 6.468453 -2.256001
v -9.600000 6.468453 -2.256001
v 3.316918 9.778344 -2.256001
v 1.664004 9.920784 -2.256001
v 9.600000 6.468453 -2.256001
v 9.600000 -0.000000 -2.256000
v 6.535607 4.323379 -2.256001
v 4.800000 6.468453 -2.256001
v 8.445192 -4.661791 -2.256000
v 7.805580 -5.762524 -2.256000
v 7.033498 -6.820813 -2.256000
v 6.535607 0.046044 -2.256001
v 1.630773 4.323379 -2.256001
v 1.795382 7.748198 -2.256001
v 1.413837 7.781077 -2.256001
v 0.000000 9.968376 -2.256001
v 0.000000 7.821509 -2.256001
v -1.413837 7.781077 -2.256001
v -1.664004 9.920784 -2.256001
v -1.883334 7.740618 -2.256001
v -3.316918 9.778344 -2.256001
v 6.134631 -7.828867 -2.255999
v 6.471233 -1.003118 -2.256000
v 6.287040 -1.998849 -2.256000
v 5.981559 -2.979857 -2.256000
v 5.115598 -8.779256 -2.256000
v 5.557041 -3.938918 -2.256000
v 5.016611 -4.868967 -2.256000
v 4.364252 -5.763155 -2.256000
v 3.604766 -6.614895 -2.256000
v 2.743748 -7.417913 -2.255999
v 1.416653 -11.216888 -2.256000
v 1.787540 -8.166296 -2.255999
v 0.743185 -8.854536 -2.256000
v 0.000000 -11.871632 -2.256000
v 0.144591 -9.186088 -2.256000
v -0.614035 -8.697368 -2.256000
v -1.435523 -11.083384 -2.256000
v -1.690921 -7.885149 -2.255999
v -2.778012 -10.218528 -2.256000
v -2.673190 -7.016140 -2.256000
v -3.554752 -6.095734 -2.256000
v -4.019145 -9.282424 -2.256000
v -4.330144 -5.129635 -2.256000
v -5.151229 -8.280880 -2.256000
v -4.994560 -4.123830 -2.256000
v -5.543881 -3.084556 -2.256000
v -6.167245 -7.220091 -2.256000
v -5.974701 -2.018251 -2.256000
v -6.284352 -0.931528 -2.256000
v -7.060900 -6.106642 -2.256000
v -6.470913 0.168880 -2.256000
v -6.535607 1.318387 -2.256000
v -6.535607 4.323379 -2.256001
v -1.883334 4.323379 -2.256001
v -7.826652 -4.947433 -2.256000
v -8.459752 -3.749648 -2.256000
v -8.956288 -2.520712 -2.256000
v -9.313160 -1.268242 -2.256000
v -9.528184 -0.000000 -2.256000
v -9.600000 1.276151 -2.256000
v -4.947726 9.542008 -2.256001
v 4.947726 9.542008 -2.256001
vt 0.111397 0.855512
vt 0.217025 0.855512
vt 0.217025 0.890021
vt 0.111397 0.890021
vt 0.217025 0.630248
vt 0.217025 0.651454
vt 0.111397 0.651454
vt 0.111397 0.630248
vt 0.217025 0.675032
vt 0.111397 0.675032
vt 0.339032 0.431271
vt 0.342490 0.503224
vt 0.304313 0.508757
vt 0.319927 0.053582
vt 0.290992 0.034513
vt 0.265617 0.512091
vt 0.259827 0.017251
vt 0.226663 0.513205
vt 0.226663 0.001923
vt 0.187708 0.512091
vt 0.193056 0.020376
vt 0.161628 0.040623
vt 0.149012 0.508757
vt 0.132573 0.062538
vt 0.110835 0.503224
vt 0.110835 0.431271
vt 0.106071 0.085984
vt 0.001923 0.431271
vt 0.082285 0.110817
vt 0.061364 0.136884
vt 0.043438 0.164021
vt 0.028617 0.192062
vt 0.016993 0.220832
vt 0.008638 0.250152
vt 0.003605 0.279842
vt 0.001923 0.309717
vt 0.451402 0.279842
vt 0.451402 0.431271
vt 0.449696 0.252049
vt 0.444593 0.224461
vt 0.436129 0.197280
vt 0.424367 0.170708
vt 0.409394 0.144940
vt 0.391319 0.120165
vt 0.370276 0.096566
vt 0.346420 0.074317
vt 0.439819 0.625963
vt 0.439819 0.517052
vt 0.545447 0.517052
vt 0.545447 0.625963
vt 0.326499 0.671835
vt 0.326499 0.710530
vt 0.220871 0.710530
vt 0.220871 0.671835
vt 0.455248 0.431271
vt 0.455248 0.279842
vt 0.456954 0.252049
vt 0.526987 0.381054
vt 0.567618 0.431271
vt 0.462057 0.224461
vt 0.470521 0.197280
vt 0.482283 0.170708
vt 0.497256 0.144940
vt 0.515331 0.120165
vt 0.526987 0.280920
vt 0.641811 0.381054
vt 0.602337 0.508757
vt 0.637957 0.461230
vt 0.641033 0.512091
vt 0.646889 0.462000
vt 0.679988 0.513205
vt 0.679988 0.462946
vt 0.713086 0.462000
vt 0.718942 0.512091
vt 0.724077 0.461053
vt 0.757638 0.508757
vt 0.536374 0.096566
vt 0.528494 0.256359
vt 0.532806 0.233048
vt 0.539957 0.210083
vt 0.560230 0.074317
vt 0.549895 0.187631
vt 0.562547 0.165858
vt 0.586723 0.053582
vt 0.577819 0.144925
vt 0.595599 0.124985
vt 0.615659 0.034513
vt 0.615756 0.106186
vt 0.646823 0.017251
vt 0.638141 0.088666
vt 0.662589 0.072554
vt 0.679988 0.001923
vt 0.676603 0.064793
vt 0.694362 0.076234
vt 0.713594 0.020376
vt 0.719573 0.095248
vt 0.745022 0.040623
vt 0.742568 0.115592
vt 0.763206 0.137139
vt 0.774077 0.062538
vt 0.781358 0.159756
vt 0.800580 0.085984
vt 0.796912 0.183302
vt 0.809772 0.207632
vt 0.824365 0.110817
vt 0.819857 0.232594
vt 0.827106 0.258035
vt 0.845286 0.136884
vt 0.831474 0.283796
vt 0.832988 0.310706
vt 0.832988 0.381054
vt 0.904727 0.431271
vt 0.795815 0.431271
vt 0.724077 0.381054
vt 0.863212 0.164021
vt 0.878033 0.192062
vt 0.889657 0.220832
vt 0.898012 0.250152
vt 0.903046 0.279842
vt 0.904727 0.309717
vt 0.795815 0.503224
vt 0.564160 0.503224
vt 0.111397 0.821870
vt 0.217025 0.821870
vt 0.217025 0.700807
vt 0.111397 0.700807
vt 0.326499 0.748708
vt 0.220871 0.748708
vt 0.217025 0.517052
vt 0.217025 0.611568
vt 0.111397 0.611568
vt 0.111397 0.517052
vt 0.107551 0.760602
vt 0.001923 0.760602
vt 0.001923 0.729105
vt 0.107551 0.729105
vt 0.107551 0.860403
vt 0.107551 0.894752
vt 0.001923 0.894752
vt 0.001923 0.860403
vt 0.107551 0.998077
vt 0.001923 0.998077
vt 0.001923 0.963803
vt 0.107551 0.963803
vt 0.608518 0.517052
vt 0.608518 0.622679
vt 0.549293 0.622679
vt 0.549293 0.517052
vt 0.111397 0.789345
vt 0.217025 0.789345
vt 0.107551 0.929290
vt 0.001923 0.929290
vt 0.107551 0.826455
vt 0.001923 0.826455
vt 0.001923 0.793119
vt 0.107551 0.793119
vt 0.217025 0.728590
vt 0.111397 0.728590
vt 0.217025 0.925144
vt 0.111397 0.925144
vt 0.326499 0.517052
vt 0.326499 0.555230
vt 0.220871 0.555230
vt 0.220871 0.517052
vt 0.217025 0.758175
vt 0.111397 0.758175
vt 0.326499 0.593925
vt 0.220871 0.593925
vt 0.001923 0.698823
vt 0.107551 0.698823
vt 0.107551 0.642648
vt 0.001923 0.642648
vt 0.001923 0.617103
vt 0.107551 0.617103
vt 0.217025 0.960622
vt 0.111397 0.960622
vt 0.330345 0.629421
vt 0.330345 0.517052
vt 0.435973 0.517052
vt 0.435973 0.629421
vt 0.220871 0.632880
vt 0.326499 0.632880
vt 0.001923 0.669944
vt 0.107551 0.669944
vt 0.001923 0.517052
vt 0.107551 0.517052
vt 0.612365 0.517052
vt 0.659977 0.517052
vt 0.659977 0.622679
vt 0.612365 0.622679
vn 0.7161 -0.6980 0.0000
vn 0.6536 -0.7569 0.0001
vn 0.6536 -0.7568 0.0000
vn 0.9963 -0.0857 0.0000
vn 0.9853 -0.1709 -0.0000
vn 0.9670 -0.2547 0.0000
vn 0.0000 0.0000 1.0000
vn 0.0000 1.0000 0.0000
vn 0.0816 0.9967 -0.0000
vn 0.1626 0.9867 -0.0000
vn 0.0815 0.9967 -0.0000
vn 0.0000 -0.0000 -1.0000
vn 0.7733 -0.6341 0.0000
vn 0.7733 -0.6340 0.0000
vn 0.9416 -0.3367 -0.0001
vn 0.9416 -0.3367 0.0000
vn 0.2027 0.9792 -0.0000
vn 1.0000 -0.0000 0.0000
vn -0.9235 -0.3837 -0.0000
vn -0.9508 -0.3098 0.0000
vn -0.9508 -0.3098 0.0001
vn -0.8080 -0.5892 0.0000
vn -0.7592 -0.6509 0.0001
vn -0.7592 -0.6509 0.0000
vn 0.9991 -0.0429 -0.0000
vn -0.6172 -0.7868 -0.0000
vn -0.6477 -0.7619 0.0000
vn -0.6477 -0.7619 0.0001
vn -1.0000 -0.0000 0.0000
vn 0.8248 -0.5654 -0.0000
vn 0.8248 -0.5654 -0.0001
vn -0.7056 -0.7086 -0.0000
vn -0.8519 -0.5238 -0.0001
vn -0.8519 -0.5238 0.0000
vn -0.8904 -0.4551 0.0000
vn 0.9093 -0.4162 0.0001
vn 0.9093 -0.4162 0.0000
vn 0.5863 -0.8101 0.0001
vn 0.5863 -0.8101 0.0000
vn -0.2027 0.9792 -0.0000
vn -0.1626 0.9867 -0.0000
vn 0.8703 -0.4926 0.0001
vn 0.8702 -0.4926 0.0000
vn -0.0816 0.9967 -0.0000
vn -0.0815 0.9967 0.0000
vn -0.9722 -0.2340 0.0000
vn -0.9969 -0.0787 -0.0000
vn -0.9992 -0.0394 -0.0000
vn 0.5510 -0.8345 0.0000
vn -0.9876 -0.1568 -0.0000
vn -0.9876 -0.1569 -0.0000
vn 0.9994 -0.0336 -0.0000
s 1
f 1/1/1 2/2/1 3/3/2
f 3/3/2 4/4/3 1/1/1
f 5/5/4 6/6/5 7/7/5
f 7/7/5 8/8/4 5/5/4
f 9/9/6 10/10/6 7/7/5
f 7/7/5 6/6/5 9/9/6
f 11/11/7 12/12/7 13/13/7
f 13/13/7 2/14/7 11/11/7
f 13/13/7 3/15/7 2/14/7
f 13/13/7 14/16/7 3/15/7
f 14/16/7 15/17/7 3/15/7
f 14/16/7 16/18/7 15/17/7
f 16/18/7 17/19/7 15/17/7
f 16/18/7 18/20/7 17/19/7
f 18/20/7 19/21/7 17/19/7
f 18/20/7 20/22/7 19/21/7
f 18/20/7 21/23/7 20/22/7
f 21/23/7 22/24/7 20/22/7
f 21/23/7 23/25/7 22/24/7
f 23/25/7 24/26/7 22/24/7
f 24/26/7 25/27/7 22/24/7
f 24/26/7 26/28/7 25/27/7
f 26/28/7 27/29/7 25/27/7
f 26/28/7 28/30/7 27/29/7
f 26/28/7 29/31/7 28/30/7
f 26/28/7 30/32/7 29/31/7
f 26/28/7 31/33/7 30/32/7
f 26/28/7 32/34/7 31/33/7
f 26/28/7 33/35/7 32/34/7
f 26/28/7 34/36/7 33/35/7
f 35/37/7 36/38/7 11/11/7
f 11/11/7 5/39/7 35/37/7
f 11/11/7 6/40/7 5/39/7
f 11/11/7 9/41/7 6/40/7
f 11/11/7 37/42/7 9/41/7
f 11/11/7 38/43/7 37/42/7
f 11/11/7 39/44/7 38/43/7
f 11/11/7 40/45/7 39/44/7
f 11/11/7 41/46/7 40/45/7
f 11/11/7 2/14/7 41/46/7
f 26/47/8 24/48/8 42/49/8
f 42/49/8 43/50/8 26/47/8
f 14/51/9 13/52/10 44/53/10
f 44/53/10 45/54/11 14/51/9
f 46/55/12 47/56/12 8/57/12
f 8/57/12 48/58/12 46/55/12
f 48/58/12 49/59/12 46/55/12
f 8/57/12 7/60/12 48/58/12
f 7/60/12 10/61/12 48/58/12
f 10/61/12 50/62/12 48/58/12
f 50/62/12 51/63/12 48/58/12
f 51/63/12 52/64/12 48/58/12
f 52/64/12 53/65/12 48/58/12
f 48/58/12 54/66/12 49/59/12
f 54/66/12 44/67/12 49/59/12
f 54/66/12 55/68/12 44/67/12
f 45/69/12 44/67/12 55/68/12
f 55/68/12 56/70/12 45/69/12
f 56/70/12 57/71/12 45/69/12
f 56/70/12 58/72/12 57/71/12
f 58/72/12 59/73/12 57/71/12
f 59/73/12 60/74/12 57/71/12
f 59/73/12 61/75/12 60/74/12
f 61/75/12 62/76/12 60/74/12
f 53/65/12 52/64/12 63/77/12
f 63/77/12 64/78/12 53/65/12
f 63/77/12 65/79/12 64/78/12
f 63/77/12 66/80/12 65/79/12
f 63/77/12 67/81/12 66/80/12
f 67/81/12 68/82/12 66/80/12
f 67/81/12 69/83/12 68/82/12
f 67/81/12 1/84/12 69/83/12
f 1/84/12 70/85/12 69/83/12
f 1/84/12 71/86/12 70/85/12
f 1/84/12 4/87/12 71/86/12
f 4/87/12 72/88/12 71/86/12
f 4/87/12 73/89/12 72/88/12
f 73/89/12 74/90/12 72/88/12
f 73/89/12 75/91/12 74/90/12
f 73/89/12 76/92/12 75/91/12
f 76/92/12 77/93/12 75/91/12
f 76/92/12 78/94/12 77/93/12
f 76/92/12 79/95/12 78/94/12
f 79/95/12 80/96/12 78/94/12
f 79/95/12 81/97/12 80/96/12
f 81/97/12 82/98/12 80/96/12
f 81/97/12 83/99/12 82/98/12
f 81/97/12 84/100/12 83/99/12
f 84/100/12 85/101/12 83/99/12
f 84/100/12 86/102/12 85/101/12
f 86/102/12 87/103/12 85/101/12
f 86/102/12 88/104/12 87/103/12
f 86/102/12 89/105/12 88/104/12
f 89/105/12 90/106/12 88/104/12
f 89/105/12 91/107/12 90/106/12
f 89/105/12 92/108/12 91/107/12
f 92/108/12 93/109/12 91/107/12
f 92/108/12 94/110/12 93/109/12
f 92/108/12 95/111/12 94/110/12
f 95/111/12 92/108/12 43/112/12
f 95/111/12 43/112/12 42/113/12
f 95/111/12 42/113/12 61/75/12
f 61/75/12 96/114/12 95/111/12
f 42/113/12 62/76/12 61/75/12
f 92/108/12 97/115/12 43/112/12
f 97/115/12 98/116/12 43/112/12
f 98/116/12 99/117/12 43/112/12
f 99/117/12 100/118/12 43/112/12
f 100/118/12 101/119/12 43/112/12
f 101/119/12 102/120/12 43/112/12
f 62/76/12 42/113/12 103/121/12
f 104/122/12 49/59/12 44/67/12
f 2/2/1 1/1/1 67/123/13
f 67/123/13 41/124/14 2/2/1
f 9/9/6 37/125/15 50/126/16
f 50/126/16 10/10/6 9/9/6
f 44/53/10 13/52/10 12/127/17
f 12/127/17 104/128/17 44/53/10
f 36/129/18 35/130/18 47/131/18
f 47/131/18 46/132/18 36/129/18
f 97/133/19 29/134/19 30/135/20
f 30/135/20 98/136/21 97/133/19
f 86/137/22 84/138/23 22/139/24
f 22/139/24 25/140/22 86/137/22
f 35/130/25 5/5/4 8/8/4
f 8/8/4 47/131/25 35/130/25
f 76/141/26 17/142/26 19/143/27
f 19/143/27 79/144/28 76/141/26
f 42/145/29 24/146/29 23/147/29
f 23/147/29 103/148/29 42/145/29
f 41/124/14 67/123/13 63/149/30
f 63/149/30 40/150/31 41/124/14
f 81/151/32 20/152/32 22/139/24
f 22/139/24 84/138/23 81/151/32
f 89/153/33 27/154/34 28/155/35
f 28/155/35 92/156/35 89/153/33
f 37/125/15 38/157/36 51/158/37
f 51/158/37 50/126/16 37/125/15
f 19/143/27 20/152/32 81/151/32
f 81/151/32 79/144/28 19/143/27
f 3/3/2 15/159/38 73/160/39
f 73/160/39 4/4/3 3/3/2
f 23/161/40 21/162/41 62/163/41
f 62/163/41 103/164/40 23/161/40
f 39/165/42 52/166/43 51/158/37
f 51/158/37 38/157/36 39/165/42
f 62/163/41 21/162/41 18/167/44
f 18/167/44 60/168/45 62/163/41
f 86/137/22 25/140/22 27/154/34
f 27/154/34 89/153/33 86/137/22
f 98/136/21 30/135/20 31/169/46
f 31/169/46 99/170/46 98/136/21
f 101/171/47 33/172/47 34/173/48
f 34/173/48 102/174/48 101/171/47
f 15/159/38 17/175/49 76/176/49
f 76/176/49 73/160/39 15/159/38
f 11/177/8 36/178/8 46/179/8
f 46/179/8 49/180/8 11/177/8
f 57/181/8 16/182/8 14/51/9
f 14/51/9 45/54/11 57/181/8
f 99/170/46 31/169/46 32/183/50
f 32/183/50 100/184/51 99/170/46
f 92/156/35 28/155/35 29/134/19
f 29/134/19 97/133/19 92/156/35
f 102/174/29 34/173/29 26/185/29
f 26/185/29 43/186/29 102/174/29
f 18/167/44 16/182/8 57/181/8
f 57/181/8 60/168/45 18/167/44
f 101/171/47 100/184/51 32/183/50
f 32/183/50 33/172/47 101/171/47
f 40/150/31 63/149/30 52/166/43
f 52/166/43 39/165/42 40/150/31
f 12/187/52 11/188/52 49/189/52
f 49/189/52 104/190/52 12/187/52
f 96/114/12 80/96/12 82/98/12
f 82/98/12 95/111/12 96/114/12
f 82/98/12 83/99/12 95/111/12
f 83/99/12 85/101/12 95/111/12
f 85/101/12 87/103/12 95/111/12
f 87/103/12 88/104/12 95/111/12
f 88/104/12 90/106/12 95/111/12
f 90/106/12 91/107/12 95/111/12
f 91/107/12 93/109/12 95/111/12
f 93/109/12 94/110/12 95/111/12
f 80/96/12 96/114/12 61/75/12
f 80/96/12 61/75/12 59/73/12
f 78/94/12 80/96/12 59/73/12
f 78/94/12 59/73/12 58/72/12
f 77/93/12 78/94/12 58/72/12
f 75/91/12 77/93/12 58/72/12
f 75/91/12 58/72/12 56/70/12
f 75/91/12 56/70/12 54/66/12
f 74/90/12 75/91/12 54/66/12
f 72/88/12 74/90/12 54/66/12
f 71/86/12 72/88/12 54/66/12
f 70/85/12 71/86/12 54/66/12
f 69/83/12 70/85/12 54/66/12
f 68/82/12 69/83/12 54/66/12
f 66/80/12 68/82/12 54/66/12
f 65/79/12 66/80/12 54/66/12
f 64/78/12 65/79/12 54/66/12
f 64/78/12 54/66/12 48/58/12
f 48/58/12 53/65/12 64/78/12
f 55/68/12 54/66/12 56/70/12
