# Blender v2.92.0 OBJ File: 'OGConvert.blend'
# www.blender.org
o snow_tile_crossing
v -4.000000 -0.000000 4.000000
v 4.000000 0.000000 -4.000000
v 4.000000 -0.000000 4.000000
v -4.000000 0.000000 -4.000000
v 4.000000 0.800000 4.000000
v 4.000000 0.800000 -4.000000
v -4.000000 0.800000 4.000000
v -4.000000 0.800000 -4.000000
v 4.000000 1.600000 4.000000
v 4.000000 1.200000 2.200000
v 4.000000 1.600000 2.200000
v 4.000000 1.200000 1.450000
v 4.000000 1.200000 -1.450000
v 4.000000 1.200000 -2.200000
v 4.000000 1.600000 -2.200000
v 4.000000 1.600000 -4.000000
v -2.200000 1.200000 -4.000000
v -4.000000 1.600000 -4.000000
v -2.200000 1.600000 -4.000000
v 2.200000 1.200000 -4.000000
v -1.450000 1.200000 -4.000000
v 1.450000 1.200000 -4.000000
v 2.200000 1.600000 -4.000000
v -4.000000 1.200000 -2.200000
v -4.000000 1.200000 -1.450000
v -4.000000 1.200000 1.450000
v -4.000000 1.200000 2.200000
v -4.000000 1.600000 2.200000
v -4.000000 1.600000 4.000000
v -4.000000 1.600000 -2.200000
v 2.200000 1.200000 4.000000
v 2.200000 1.600000 4.000000
v 1.450000 1.200000 4.000000
v -2.200000 1.200000 4.000000
v -1.450000 1.200000 4.000000
v -2.200000 1.600000 4.000000
v -2.215399 1.600000 3.765053
v -2.261334 1.600000 3.534126
v -2.337017 1.600000 3.311170
v -2.441154 1.600000 3.100000
v -2.571964 1.600000 2.904230
v -2.727208 1.600000 2.727208
v -2.904230 1.600000 2.571964
v -3.100000 1.600000 2.441154
v -3.311170 1.600000 2.337017
v -3.534126 1.600000 2.261334
v -3.765053 1.600000 2.215399
v 3.765053 1.600000 2.215399
v 3.534126 1.600000 2.261334
v 3.311170 1.600000 2.337017
v 3.100000 1.600000 2.441154
v 2.904230 1.600000 2.571964
v 2.727208 1.600000 2.727208
v 2.571964 1.600000 2.904230
v 2.441154 1.600000 3.100000
v 2.337017 1.600000 3.311170
v 2.261334 1.600000 3.534126
v 2.215399 1.600000 3.765053
v 3.765053 1.600000 -2.215399
v 3.534126 1.600000 -2.261334
v 3.311170 1.600000 -2.337017
v 3.100000 1.600000 -2.441154
v 2.904230 1.600000 -2.571964
v 2.727208 1.600000 -2.727208
v 2.571964 1.600000 -2.904230
v 2.441154 1.600000 -3.100000
v 2.337017 1.600000 -3.311170
v 2.261334 1.600000 -3.534126
v 2.215399 1.600000 -3.765053
v -2.215399 1.600000 -3.765053
v -2.261334 1.600000 -3.534126
v -2.337017 1.600000 -3.311170
v -2.441154 1.600000 -3.100000
v -2.571964 1.600000 -2.904230
v -2.727208 1.600000 -2.727208
v -2.904230 1.600000 -2.571964
v -3.100000 1.600000 -2.441154
v -3.311170 1.600000 -2.337017
v -3.534126 1.600000 -2.261334
v -3.765053 1.600000 -2.215399
v -1.471815 1.200000 -3.667158
v -1.536889 1.200000 -3.340011
v -1.644107 1.200000 -3.024158
v -1.791635 1.200000 -2.725000
v -1.976949 1.200000 -2.447658
v -2.196878 1.200000 -2.196878
v -2.215399 1.200000 -3.765053
v -2.447658 1.200000 -1.976949
v -2.261334 1.200000 -3.534126
v -2.337017 1.200000 -3.311170
v -2.441154 1.200000 -3.100000
v -2.571964 1.200000 -2.904230
v -2.725000 1.200000 -1.791635
v -2.727208 1.200000 -2.727208
v -3.024158 1.200000 -1.644107
v -2.904230 1.200000 -2.571964
v -3.100000 1.200000 -2.441154
v -3.340011 1.200000 -1.536889
v -3.311170 1.200000 -2.337017
v -3.534126 1.200000 -2.261334
v -3.667158 1.200000 -1.471815
v -3.765053 1.200000 -2.215399
v 3.667158 1.200000 -1.471815
v 3.765053 1.200000 -2.215399
v 3.534126 1.200000 -2.261334
v 3.340011 1.200000 -1.536889
v 3.311170 1.200000 -2.337017
v 3.024158 1.200000 -1.644107
v 3.100000 1.200000 -2.441154
v 2.904230 1.200000 -2.571964
v 2.725000 1.200000 -1.791635
v 2.727208 1.200000 -2.727208
v 2.571964 1.200000 -2.904230
v 2.447658 1.200000 -1.976949
v 2.441154 1.200000 -3.100000
v 2.196878 1.200000 -2.196878
v 2.337017 1.200000 -3.311170
v 2.261334 1.200000 -3.534126
v 2.215399 1.200000 -3.765053
v 1.976949 1.200000 -2.447658
v 1.791635 1.200000 -2.725000
v 1.644107 1.200000 -3.024158
v 1.536889 1.200000 -3.340011
v 1.471815 1.200000 -3.667158
v 3.765053 1.200000 2.215399
v 3.667158 1.200000 1.471815
v 3.534126 1.200000 2.261334
v 3.340011 1.200000 1.536889
v 3.311170 1.200000 2.337017
v 3.024158 1.200000 1.644107
v 3.100000 1.200000 2.441154
v 2.904230 1.200000 2.571964
v 2.725000 1.200000 1.791635
v 2.727208 1.200000 2.727208
v 2.571964 1.200000 2.904230
v 2.447658 1.200000 1.976949
v 2.441154 1.200000 3.100000
v 2.196878 1.200000 2.196878
v 2.337017 1.200000 3.311170
v 2.261334 1.200000 3.534126
v 2.215399 1.200000 3.765053
v 1.976949 1.200000 2.447658
v 1.791635 1.200000 2.725000
v 1.644107 1.200000 3.024158
v 1.536889 1.200000 3.340011
v 1.471815 1.200000 3.667158
v -1.471815 1.200000 3.667158
v -1.536889 1.200000 3.340011
v -1.644107 1.200000 3.024158
v -1.791635 1.200000 2.725000
v -1.976949 1.200000 2.447658
v -2.196878 1.200000 2.196878
v -2.215399 1.200000 3.765053
v -2.447658 1.200000 1.976949
v -2.261334 1.200000 3.534126
v -2.337017 1.200000 3.311170
v -2.441154 1.200000 3.100000
v -2.571964 1.200000 2.904230
v -2.725000 1.200000 1.791635
v -2.727208 1.200000 2.727208
v -3.024158 1.200000 1.644107
v -2.904230 1.200000 2.571964
v -3.100000 1.200000 2.441154
v -3.340011 1.200000 1.536889
v -3.311170 1.200000 2.337017
v -3.534126 1.200000 2.261334
v -3.667158 1.200000 1.471815
v -3.765053 1.200000 2.215399
vt 0.002373 0.497627
vt 0.497627 0.002373
vt 0.497627 0.497627
vt 0.002373 0.002373
vt 0.551899 0.277521
vt 0.502373 0.002373
vt 0.551899 0.002373
vt 0.502373 0.277521
vt 0.502373 0.689309
vt 0.551899 0.689309
vt 0.705222 0.493844
vt 0.655696 0.002373
vt 0.705222 0.002373
vt 0.655696 0.493844
vt 0.759494 0.002373
vt 0.709968 0.414161
vt 0.709968 0.002373
vt 0.759494 0.414161
vt 0.601424 0.277521
vt 0.576661 0.215613
vt 0.601424 0.215613
vt 0.576661 0.189818
vt 0.576661 0.090077
vt 0.576661 0.064282
vt 0.601424 0.064282
vt 0.601424 0.002373
vt 0.784256 0.095026
vt 0.809019 0.002373
vt 0.809019 0.095026
vt 0.784256 0.321509
vt 0.809019 0.414161
vt 0.601424 0.694056
vt 0.601424 0.694056
vt 0.601424 0.694056
vt 0.838528 0.724550
vt 0.838528 0.498591
vt 0.838528 0.678120
vt 0.809019 0.321509
vt 0.630934 0.112954
vt 0.606171 0.002373
vt 0.630934 0.159030
vt 0.630934 0.337188
vt 0.630934 0.383263
vt 0.606171 0.383263
vt 0.606171 0.493844
vt 0.606171 0.112954
vt 0.576661 0.370174
vt 0.601424 0.370174
vt 0.576661 0.408779
vt 0.576661 0.596657
vt 0.601424 0.689309
vt 0.843275 0.002373
vt 0.843275 0.228333
vt 0.843275 0.048803
vt 0.601424 0.596657
vt 0.607124 0.595478
vt 0.717603 0.610023
vt 0.606171 0.610023
vt 0.609968 0.581182
vt 0.614653 0.567379
vt 0.621100 0.554307
vt 0.629198 0.542187
vt 0.638809 0.531228
vt 0.649767 0.521618
vt 0.661887 0.513520
vt 0.674960 0.507073
vt 0.688762 0.502388
vt 0.703058 0.499544
vt 0.717603 0.498591
vt 0.620716 0.615723
vt 0.606171 0.726201
vt 0.606171 0.614769
vt 0.717603 0.726201
vt 0.635012 0.618566
vt 0.648814 0.623252
vt 0.661887 0.629698
vt 0.674006 0.637796
vt 0.684965 0.647407
vt 0.694576 0.658366
vt 0.702674 0.670485
vt 0.709121 0.683558
vt 0.713806 0.697361
vt 0.716650 0.711657
vt 0.833782 0.610023
vt 0.819237 0.499544
vt 0.833782 0.498591
vt 0.722350 0.610023
vt 0.804941 0.502388
vt 0.791138 0.507073
vt 0.778066 0.513520
vt 0.765946 0.521618
vt 0.754987 0.531228
vt 0.745377 0.542187
vt 0.737279 0.554307
vt 0.730832 0.567379
vt 0.726147 0.581182
vt 0.723303 0.595478
vt 0.833782 0.726201
vt 0.819237 0.615723
vt 0.833782 0.614769
vt 0.804941 0.618566
vt 0.791138 0.623252
vt 0.778066 0.629698
vt 0.765946 0.637796
vt 0.754987 0.647407
vt 0.745377 0.658366
vt 0.737279 0.670485
vt 0.730832 0.683558
vt 0.726147 0.697361
vt 0.723303 0.711657
vt 0.722350 0.726201
vt 0.002373 0.613805
vt 0.022978 0.658885
vt 0.002373 0.660235
vt 0.043231 0.654856
vt 0.062785 0.648219
vt 0.081304 0.639086
vt 0.098474 0.627614
vt 0.113999 0.613999
vt 0.016918 0.612852
vt 0.127614 0.598474
vt 0.031214 0.610008
vt 0.045017 0.605323
vt 0.058089 0.598876
vt 0.070209 0.590778
vt 0.139086 0.581304
vt 0.081168 0.581168
vt 0.148219 0.562784
vt 0.090778 0.570209
vt 0.098876 0.558089
vt 0.154856 0.543231
vt 0.105323 0.545017
vt 0.110008 0.531214
vt 0.158885 0.522978
vt 0.112852 0.516918
vt 0.160235 0.502373
vt 0.113805 0.502373
vt 0.113805 0.997627
vt 0.158885 0.977022
vt 0.160235 0.997627
vt 0.112852 0.983082
vt 0.110008 0.968786
vt 0.154856 0.956769
vt 0.105323 0.954983
vt 0.148219 0.937216
vt 0.098876 0.941911
vt 0.090778 0.929791
vt 0.139086 0.918696
vt 0.081168 0.918832
vt 0.070209 0.909222
vt 0.127614 0.901526
vt 0.058089 0.901124
vt 0.113999 0.886001
vt 0.045017 0.894677
vt 0.031214 0.889992
vt 0.016918 0.887148
vt 0.002373 0.886195
vt 0.002373 0.839765
vt 0.098474 0.872386
vt 0.081304 0.860914
vt 0.062785 0.851781
vt 0.043231 0.845144
vt 0.022978 0.841115
vt 0.339765 0.997627
vt 0.387148 0.983082
vt 0.386195 0.997627
vt 0.341115 0.977022
vt 0.389992 0.968786
vt 0.345144 0.956769
vt 0.394677 0.954983
vt 0.351781 0.937216
vt 0.401124 0.941911
vt 0.409222 0.929791
vt 0.360914 0.918696
vt 0.418832 0.918832
vt 0.429791 0.909222
vt 0.372386 0.901526
vt 0.441911 0.901124
vt 0.386001 0.886001
vt 0.454983 0.894677
vt 0.468786 0.889992
vt 0.483082 0.887148
vt 0.497627 0.886195
vt 0.497627 0.839765
vt 0.401526 0.872386
vt 0.418696 0.860914
vt 0.437216 0.851781
vt 0.456769 0.845144
vt 0.477022 0.841115
vt 0.477022 0.658885
vt 0.497627 0.613805
vt 0.497627 0.660235
vt 0.456769 0.654856
vt 0.437216 0.648219
vt 0.418696 0.639086
vt 0.401526 0.627614
vt 0.386001 0.613999
vt 0.483082 0.612852
vt 0.372386 0.598474
vt 0.468786 0.610008
vt 0.454983 0.605323
vt 0.441911 0.598876
vt 0.429791 0.590778
vt 0.360914 0.581304
vt 0.418832 0.581168
vt 0.351781 0.562784
vt 0.409222 0.570209
vt 0.401124 0.558089
vt 0.345144 0.543231
vt 0.394677 0.545017
vt 0.389992 0.531214
vt 0.341115 0.522978
vt 0.387148 0.516918
vt 0.339765 0.502373
vt 0.386195 0.502373
vt 0.838528 0.156934
vt 0.813766 0.148061
vt 0.838528 0.148061
vt 0.813766 0.156934
vt 0.813766 0.137754
vt 0.838528 0.137754
vt 0.813766 0.126190
vt 0.838528 0.126190
vt 0.813766 0.113567
vt 0.838528 0.113567
vt 0.813766 0.100100
vt 0.838528 0.100100
vt 0.813766 0.086021
vt 0.838528 0.086021
vt 0.838528 0.071570
vt 0.813766 0.071570
vt 0.838528 0.056994
vt 0.813766 0.056994
vt 0.838528 0.042542
vt 0.813766 0.042542
vt 0.838528 0.028463
vt 0.813766 0.028463
vt 0.838528 0.014997
vt 0.813766 0.014997
vt 0.838528 0.002373
vt 0.813766 0.002373
vt 0.586155 0.720524
vt 0.561392 0.732088
vt 0.561392 0.720524
vt 0.586155 0.732088
vt 0.586155 0.710217
vt 0.561392 0.710217
vt 0.586155 0.701344
vt 0.561392 0.701344
vt 0.586155 0.694056
vt 0.561392 0.694056
vt 0.531883 0.700597
vt 0.556646 0.694056
vt 0.556646 0.700597
vt 0.531883 0.694056
vt 0.531883 0.708783
vt 0.556646 0.708783
vt 0.556646 0.718472
vt 0.531883 0.718472
vt 0.556646 0.729500
vt 0.531883 0.729500
vt 0.556646 0.741678
vt 0.531883 0.741678
vt 0.556646 0.754797
vt 0.531883 0.754797
vt 0.556646 0.768633
vt 0.531883 0.768633
vt 0.556646 0.782949
vt 0.531883 0.782949
vt 0.527136 0.708607
vt 0.502373 0.694056
vt 0.527136 0.694056
vt 0.502373 0.708607
vt 0.527136 0.723145
vt 0.502373 0.723145
vt 0.527136 0.737420
vt 0.502373 0.737420
vt 0.527136 0.751188
vt 0.502373 0.751188
vt 0.527136 0.764214
vt 0.502373 0.764214
vt 0.527136 0.776275
vt 0.502373 0.776275
vt 0.502373 0.787164
vt 0.527136 0.787164
vt 0.502373 0.796695
vt 0.527136 0.796695
vt 0.502373 0.804705
vt 0.527136 0.804705
vt 0.601424 0.086152
vt 0.576661 0.095026
vt 0.576661 0.086152
vt 0.601424 0.095026
vt 0.601424 0.075846
vt 0.576661 0.075846
vt 0.813766 0.303618
vt 0.838528 0.316241
vt 0.813766 0.316241
vt 0.838528 0.303618
vt 0.813766 0.290152
vt 0.838528 0.290152
vt 0.813766 0.276072
vt 0.838528 0.276072
vt 0.813766 0.261621
vt 0.838528 0.261621
vt 0.813766 0.247045
vt 0.838528 0.247045
vt 0.813766 0.232594
vt 0.838528 0.232594
vt 0.813766 0.218514
vt 0.838528 0.218514
vt 0.813766 0.205048
vt 0.838528 0.205048
vt 0.813766 0.192425
vt 0.838528 0.192425
vt 0.813766 0.180861
vt 0.838528 0.180861
vt 0.813766 0.170554
vt 0.838528 0.170554
vt 0.813766 0.161681
vt 0.838528 0.161681
vn 0.0000 -1.0000 -0.0000
vn 1.0000 -0.0000 0.0000
vn 0.0000 0.0000 1.0000
vn -1.0000 0.0000 0.0000
vn 0.0000 0.0000 -1.0000
vn 0.0000 1.0000 -0.0000
vn 0.9979 0.0000 -0.0654
vn 0.9914 0.0000 -0.1305
vn 0.9659 0.0000 -0.2588
vn 0.9239 0.0000 -0.3827
vn 0.8660 0.0000 -0.5000
vn 0.7934 0.0000 -0.6088
vn 0.7071 0.0000 -0.7071
vn 0.6088 0.0000 -0.7934
vn 0.5000 0.0000 -0.8660
vn 0.3827 0.0000 -0.9239
vn 0.2588 0.0000 -0.9659
vn 0.1305 0.0000 -0.9914
vn 0.0654 0.0000 -0.9979
vn -0.1305 0.0000 -0.9914
vn -0.0654 0.0000 -0.9979
vn -0.2588 0.0000 -0.9659
vn -0.3827 0.0000 -0.9239
vn -0.5000 0.0000 -0.8660
vn -0.6088 0.0000 -0.7934
vn -0.7071 0.0000 -0.7071
vn -0.7934 0.0000 -0.6088
vn -0.8660 0.0000 -0.5000
vn -0.9239 0.0000 -0.3827
vn -0.9659 0.0000 -0.2588
vn -0.9914 0.0000 -0.1305
vn -0.9979 0.0000 -0.0654
vn -0.9914 0.0000 0.1305
vn -0.9979 0.0000 0.0654
vn -0.9659 0.0000 0.2588
vn -0.9239 0.0000 0.3827
vn -0.8660 0.0000 0.5000
vn -0.7934 0.0000 0.6088
vn -0.7071 0.0000 0.7071
vn -0.6088 0.0000 0.7934
vn -0.5000 0.0000 0.8660
vn -0.3827 0.0000 0.9239
vn -0.2588 0.0000 0.9659
vn -0.1305 0.0000 0.9914
vn -0.0654 0.0000 0.9979
vn 0.1305 0.0000 0.9914
vn 0.0654 0.0000 0.9979
vn 0.2588 0.0000 0.9659
vn 0.3827 0.0000 0.9239
vn 0.5000 0.0000 0.8660
vn 0.6088 0.0000 0.7934
vn 0.7071 0.0000 0.7071
vn 0.7934 0.0000 0.6088
vn 0.8660 0.0000 0.5000
vn 0.9239 0.0000 0.3827
vn 0.9659 0.0000 0.2588
vn 0.9914 0.0000 0.1305
vn 0.9979 0.0000 0.0654
s 1
f 1/1/1 2/2/1 3/3/1
f 2/2/1 1/1/1 4/4/1
f 5/5/2 2/6/2 6/7/2
f 2/6/2 5/5/2 3/8/2
f 5/5/3 1/9/3 3/8/3
f 1/9/3 5/5/3 7/10/3
f 1/11/4 8/12/4 4/13/4
f 8/12/4 1/11/4 7/14/4
f 8/15/5 2/16/5 4/17/5
f 2/16/5 8/15/5 6/18/5
f 9/19/2 10/20/2 11/21/2
f 5/5/2 10/20/2 9/19/2
f 5/5/2 12/22/2 10/20/2
f 5/5/2 13/23/2 12/22/2
f 5/5/2 14/24/2 13/23/2
f 6/7/2 14/24/2 5/5/2
f 6/7/2 15/25/2 14/24/2
f 15/25/2 6/7/2 16/26/2
f 8/15/5 17/27/5 6/18/5
f 17/27/5 8/15/5 18/28/5
f 17/27/5 18/28/5 19/29/5
f 20/30/5 6/18/5 17/27/5
f 6/18/5 20/30/5 16/31/5
f 20/32/5 17/33/5 21/34/5
f 20/35/5 21/36/5 22/37/3
f 16/31/5 20/30/5 23/38/5
f 8/12/4 24/39/4 18/40/4
f 24/39/4 8/12/4 7/14/4
f 24/39/4 7/14/4 25/41/4
f 25/41/4 7/14/4 26/42/4
f 26/42/4 7/14/4 27/43/4
f 27/43/4 7/14/4 28/44/4
f 28/44/4 7/14/4 29/45/4
f 30/46/4 18/40/4 24/39/4
f 5/5/3 31/47/3 7/10/3
f 31/47/3 5/5/3 9/19/3
f 31/47/3 9/19/3 32/48/3
f 33/49/3 7/10/3 31/47/3
f 34/50/3 7/10/3 33/49/3
f 7/10/3 34/50/3 29/51/3
f 34/52/3 33/53/3 35/54/3
f 29/51/3 34/50/3 36/55/3
f 37/56/6 29/57/6 36/58/6
f 29/57/6 37/56/6 38/59/6
f 29/57/6 38/59/6 39/60/6
f 29/57/6 39/60/6 40/61/6
f 29/57/6 40/61/6 41/62/6
f 29/57/6 41/62/6 42/63/6
f 29/57/6 42/63/6 43/64/6
f 29/57/6 43/64/6 44/65/6
f 29/57/6 44/65/6 45/66/6
f 29/57/6 45/66/6 46/67/6
f 29/57/6 46/67/6 47/68/6
f 29/57/6 47/68/6 28/69/6
f 48/70/6 9/71/6 11/72/6
f 9/71/6 48/70/6 32/73/6
f 32/73/6 48/70/6 49/74/6
f 32/73/6 49/74/6 50/75/6
f 32/73/6 50/75/6 51/76/6
f 32/73/6 51/76/6 52/77/6
f 32/73/6 52/77/6 53/78/6
f 32/73/6 53/78/6 54/79/6
f 32/73/6 54/79/6 55/80/6
f 32/73/6 55/80/6 56/81/6
f 32/73/6 56/81/6 57/82/6
f 32/73/6 57/82/6 58/83/6
f 16/84/6 59/85/6 15/86/6
f 59/85/6 16/84/6 23/87/6
f 59/85/6 23/87/6 60/88/6
f 60/88/6 23/87/6 61/89/6
f 61/89/6 23/87/6 62/90/6
f 62/90/6 23/87/6 63/91/6
f 63/91/6 23/87/6 64/92/6
f 64/92/6 23/87/6 65/93/6
f 65/93/6 23/87/6 66/94/6
f 66/94/6 23/87/6 67/95/6
f 67/95/6 23/87/6 68/96/6
f 68/96/6 23/87/6 69/97/6
f 18/98/6 70/99/6 19/100/6
f 70/99/6 18/98/6 71/101/6
f 71/101/6 18/98/6 72/102/6
f 72/102/6 18/98/6 73/103/6
f 73/103/6 18/98/6 74/104/6
f 74/104/6 18/98/6 75/105/6
f 75/105/6 18/98/6 76/106/6
f 76/106/6 18/98/6 77/107/6
f 77/107/6 18/98/6 78/108/6
f 78/108/6 18/98/6 79/109/6
f 79/109/6 18/98/6 80/110/6
f 80/110/6 18/98/6 30/111/6
f 17/112/6 81/113/6 21/114/6
f 81/113/6 17/112/6 82/115/6
f 82/115/6 17/112/6 83/116/6
f 83/116/6 17/112/6 84/117/6
f 84/117/6 17/112/6 85/118/6
f 85/118/6 17/112/6 86/119/6
f 86/119/6 17/112/6 87/120/6
f 86/119/6 87/120/6 88/121/6
f 88/121/6 87/120/6 89/122/6
f 88/121/6 89/122/6 90/123/6
f 88/121/6 90/123/6 91/124/6
f 88/121/6 91/124/6 92/125/6
f 88/121/6 92/125/6 93/126/6
f 93/126/6 92/125/6 94/127/6
f 93/126/6 94/127/6 95/128/6
f 95/128/6 94/127/6 96/129/6
f 95/128/6 96/129/6 97/130/6
f 95/128/6 97/130/6 98/131/6
f 98/131/6 97/130/6 99/132/6
f 98/131/6 99/132/6 100/133/6
f 98/131/6 100/133/6 101/134/6
f 101/134/6 100/133/6 102/135/6
f 101/134/6 102/135/6 25/136/6
f 25/136/6 102/135/6 24/137/6
f 14/138/6 103/139/6 13/140/6
f 103/139/6 14/138/6 104/141/6
f 103/139/6 104/141/6 105/142/6
f 103/139/6 105/142/6 106/143/6
f 106/143/6 105/142/6 107/144/6
f 106/143/6 107/144/6 108/145/6
f 108/145/6 107/144/6 109/146/6
f 108/145/6 109/146/6 110/147/6
f 108/145/6 110/147/6 111/148/6
f 111/148/6 110/147/6 112/149/6
f 111/148/6 112/149/6 113/150/6
f 111/148/6 113/150/6 114/151/6
f 114/151/6 113/150/6 115/152/6
f 114/151/6 115/152/6 116/153/6
f 116/153/6 115/152/6 117/154/6
f 116/153/6 117/154/6 118/155/6
f 116/153/6 118/155/6 119/156/6
f 116/153/6 119/156/6 20/157/6
f 116/153/6 20/157/6 22/158/6
f 116/153/6 22/158/6 120/159/6
f 120/159/6 22/158/6 121/160/6
f 121/160/6 22/158/6 122/161/6
f 122/161/6 22/158/6 123/162/6
f 123/162/6 22/158/6 124/163/6
f 12/164/6 125/165/6 10/166/6
f 125/165/6 12/164/6 126/167/6
f 125/165/6 126/167/6 127/168/6
f 127/168/6 126/167/6 128/169/6
f 127/168/6 128/169/6 129/170/6
f 129/170/6 128/169/6 130/171/6
f 129/170/6 130/171/6 131/172/6
f 131/172/6 130/171/6 132/173/6
f 132/173/6 130/171/6 133/174/6
f 132/173/6 133/174/6 134/175/6
f 134/175/6 133/174/6 135/176/6
f 135/176/6 133/174/6 136/177/6
f 135/176/6 136/177/6 137/178/6
f 137/178/6 136/177/6 138/179/6
f 137/178/6 138/179/6 139/180/6
f 139/180/6 138/179/6 140/181/6
f 140/181/6 138/179/6 141/182/6
f 141/182/6 138/179/6 31/183/6
f 31/183/6 138/179/6 33/184/6
f 33/184/6 138/179/6 142/185/6
f 33/184/6 142/185/6 143/186/6
f 33/184/6 143/186/6 144/187/6
f 33/184/6 144/187/6 145/188/6
f 33/184/6 145/188/6 146/189/6
f 147/190/6 34/191/6 35/192/6
f 34/191/6 147/190/6 148/193/6
f 34/191/6 148/193/6 149/194/6
f 34/191/6 149/194/6 150/195/6
f 34/191/6 150/195/6 151/196/6
f 34/191/6 151/196/6 152/197/6
f 34/191/6 152/197/6 153/198/6
f 153/198/6 152/197/6 154/199/6
f 153/198/6 154/199/6 155/200/6
f 155/200/6 154/199/6 156/201/6
f 156/201/6 154/199/6 157/202/6
f 157/202/6 154/199/6 158/203/6
f 158/203/6 154/199/6 159/204/6
f 158/203/6 159/204/6 160/205/6
f 160/205/6 159/204/6 161/206/6
f 160/205/6 161/206/6 162/207/6
f 162/207/6 161/206/6 163/208/6
f 163/208/6 161/206/6 164/209/6
f 163/208/6 164/209/6 165/210/6
f 165/210/6 164/209/6 166/211/6
f 166/211/6 164/209/6 167/212/6
f 166/211/6 167/212/6 168/213/6
f 168/213/6 167/212/6 26/214/6
f 168/213/6 26/214/6 27/215/6
f 36/216/7 153/217/8 37/218/8
f 153/217/8 36/216/7 34/219/7
f 37/218/8 155/220/9 38/221/9
f 155/220/9 37/218/8 153/217/8
f 38/221/9 156/222/10 39/223/10
f 156/222/10 38/221/9 155/220/9
f 39/223/10 157/224/11 40/225/11
f 157/224/11 39/223/10 156/222/10
f 40/225/11 158/226/12 41/227/12
f 158/226/12 40/225/11 157/224/11
f 41/227/12 160/228/13 42/229/13
f 160/228/13 41/227/12 158/226/12
f 43/230/14 160/228/13 162/231/14
f 160/228/13 43/230/14 42/229/13
f 44/232/15 162/231/14 163/233/15
f 162/231/14 44/232/15 43/230/14
f 45/234/16 163/233/15 165/235/16
f 163/233/15 45/234/16 44/232/15
f 46/236/17 165/235/16 166/237/17
f 165/235/16 46/236/17 45/234/16
f 47/238/18 166/237/17 168/239/18
f 166/237/17 47/238/18 46/236/17
f 28/240/19 168/239/18 27/241/19
f 168/239/18 28/240/19 47/238/18
f 48/242/20 10/243/21 125/244/20
f 10/243/21 48/242/20 11/245/21
f 49/246/22 125/244/20 127/247/22
f 125/244/20 49/246/22 48/242/20
f 50/248/23 127/247/22 129/249/23
f 127/247/22 50/248/23 49/246/22
f 51/250/24 129/249/23 131/251/24
f 129/249/23 51/250/24 50/248/23
f 52/252/25 131/253/24 132/254/25
f 131/253/24 52/252/25 51/255/24
f 53/256/26 132/254/25 134/257/26
f 132/254/25 53/256/26 52/252/25
f 135/258/27 53/256/26 134/257/26
f 53/256/26 135/258/27 54/259/27
f 137/260/28 54/259/27 135/258/27
f 54/259/27 137/260/28 55/261/28
f 139/262/29 55/261/28 137/260/28
f 55/261/28 139/262/29 56/263/29
f 140/264/30 56/263/29 139/262/29
f 56/263/29 140/264/30 57/265/30
f 141/266/31 57/265/30 140/264/30
f 57/265/30 141/266/31 58/267/31
f 31/268/32 58/267/31 141/266/31
f 58/267/31 31/268/32 32/269/32
f 119/270/33 23/271/34 20/272/34
f 23/271/34 119/270/33 69/273/33
f 118/274/35 69/273/33 119/270/33
f 69/273/33 118/274/35 68/275/35
f 117/276/36 68/275/35 118/274/35
f 68/275/35 117/276/36 67/277/36
f 115/278/37 67/277/36 117/276/36
f 67/277/36 115/278/37 66/279/37
f 113/280/38 66/279/37 115/278/37
f 66/279/37 113/280/38 65/281/38
f 112/282/39 65/281/38 113/280/38
f 65/281/38 112/282/39 64/283/39
f 63/284/40 112/282/39 110/285/40
f 112/282/39 63/284/40 64/283/39
f 62/286/41 110/285/40 109/287/41
f 110/285/40 62/286/41 63/284/40
f 61/288/42 109/287/41 107/289/42
f 109/287/41 61/288/42 62/286/41
f 60/290/43 107/291/42 105/292/43
f 107/291/42 60/290/43 61/293/42
f 59/294/44 105/292/43 104/295/44
f 105/292/43 59/294/44 60/290/43
f 15/25/45 104/295/44 14/24/45
f 104/295/44 15/25/45 59/294/44
f 102/296/46 30/297/47 24/298/47
f 30/297/47 102/296/46 80/299/46
f 100/300/48 80/299/46 102/296/46
f 80/299/46 100/300/48 79/301/48
f 99/302/49 79/301/48 100/300/48
f 79/301/48 99/302/49 78/303/49
f 97/304/50 78/303/49 99/302/49
f 78/303/49 97/304/50 77/305/50
f 96/306/51 77/305/50 97/304/50
f 77/305/50 96/306/51 76/307/51
f 94/308/52 76/307/51 96/306/51
f 76/307/51 94/308/52 75/309/52
f 75/309/52 92/310/53 74/311/53
f 92/310/53 75/309/52 94/308/52
f 74/311/53 91/312/54 73/313/54
f 91/312/54 74/311/53 92/310/53
f 73/313/54 90/314/55 72/315/55
f 90/314/55 73/313/54 91/312/54
f 72/315/55 89/316/56 71/317/56
f 89/316/56 72/315/55 90/314/55
f 71/317/56 87/318/57 70/319/57
f 87/318/57 71/317/56 89/316/56
f 70/319/57 17/320/58 19/321/58
f 17/320/58 70/319/57 87/318/57
f 13/140/6 126/167/6 12/164/6
f 126/167/6 13/140/6 103/139/6
f 126/167/6 103/139/6 128/169/6
f 128/169/6 103/139/6 106/143/6
f 128/169/6 106/143/6 130/171/6
f 130/171/6 106/143/6 108/145/6
f 130/171/6 108/145/6 133/174/6
f 133/174/6 108/145/6 111/148/6
f 133/174/6 111/148/6 136/177/6
f 136/177/6 111/148/6 114/151/6
f 136/177/6 114/151/6 138/179/6
f 138/179/6 114/151/6 116/153/6
f 138/179/6 116/153/6 120/159/6
f 138/179/6 120/159/6 142/185/6
f 142/185/6 120/159/6 121/160/6
f 142/185/6 121/160/6 143/186/6
f 143/186/6 121/160/6 122/161/6
f 143/186/6 122/161/6 144/187/6
f 144/187/6 122/161/6 123/162/6
f 144/187/6 123/162/6 145/188/6
f 145/188/6 123/162/6 124/163/6
f 145/188/6 124/163/6 146/189/6
f 146/189/6 124/163/6 22/158/6
f 146/189/6 22/158/6 33/184/6
f 33/184/6 22/158/6 21/114/6
f 33/184/6 21/114/6 35/192/6
f 35/192/6 21/114/6 147/190/6
f 147/190/6 21/114/6 81/113/6
f 147/190/6 81/113/6 148/193/6
f 148/193/6 81/113/6 82/115/6
f 148/193/6 82/115/6 149/194/6
f 149/194/6 82/115/6 83/116/6
f 149/194/6 83/116/6 150/195/6
f 150/195/6 83/116/6 84/117/6
f 150/195/6 84/117/6 151/196/6
f 151/196/6 84/117/6 85/118/6
f 151/196/6 85/118/6 152/197/6
f 152/197/6 85/118/6 86/119/6
f 152/197/6 86/119/6 154/199/6
f 154/199/6 86/119/6 88/121/6
f 154/199/6 88/121/6 159/204/6
f 159/204/6 88/121/6 93/126/6
f 159/204/6 93/126/6 161/206/6
f 161/206/6 93/126/6 95/128/6
f 161/206/6 95/128/6 164/209/6
f 164/209/6 95/128/6 98/131/6
f 164/209/6 98/131/6 167/212/6
f 167/212/6 98/131/6 101/134/6
f 167/212/6 101/134/6 26/214/6
f 26/214/6 101/134/6 25/136/6
