# Blender v2.92.0 OBJ File: 'OGConvert.blend'
# www.blender.org
o snow_tile_cornerRound
v -4.000000 -0.000000 4.000000
v 4.000000 0.000000 -4.000000
v 4.000000 -0.000000 4.000000
v -4.000000 0.000000 -4.000000
v 4.000000 0.800000 4.000000
v 4.000000 0.800000 -4.000000
v -4.000000 0.800000 4.000000
v -4.000000 0.800000 -4.000000
v 4.000000 1.600000 4.000000
v 4.000000 1.200000 2.200000
v 4.000000 1.600000 2.200000
v 4.000000 1.200000 1.450000
v 4.000000 1.200000 -1.450000
v 4.000000 1.200000 -2.200000
v 4.000000 1.600000 -2.200000
v 4.000000 1.600000 -4.000000
v -4.000000 1.600000 -4.000000
v -4.000000 1.600000 4.000000
v 2.200000 1.200000 4.000000
v -2.200000 1.200000 4.000000
v 2.200000 1.600000 4.000000
v -1.450000 1.200000 4.000000
v 1.450000 1.200000 4.000000
v -2.200000 1.600000 4.000000
v 3.765053 1.600000 2.215399
v 3.534126 1.600000 2.261334
v 3.311170 1.600000 2.337017
v 3.100000 1.600000 2.441154
v 2.904230 1.600000 2.571964
v 2.727208 1.600000 2.727208
v 2.571964 1.600000 2.904230
v 2.441154 1.600000 3.100000
v 2.337017 1.600000 3.311170
v 2.261334 1.600000 3.534126
v 2.215399 1.600000 3.765053
v 3.190737 1.600000 -2.146958
v 2.395322 1.600000 -1.988740
v 1.627362 1.600000 -1.728053
v 0.900000 1.600000 -1.369357
v 0.225679 1.600000 -0.918790
v -0.384062 1.600000 -0.384062
v -0.918790 1.600000 0.225679
v -1.369358 1.600000 0.900000
v -1.728053 1.600000 1.627362
v -1.988740 1.600000 2.395322
v -2.146958 1.600000 3.190737
v 3.765053 1.200000 2.215399
v 3.667158 1.200000 1.471815
v 3.534126 1.200000 2.261334
v 3.340011 1.200000 1.536889
v 3.311170 1.200000 2.337017
v 3.024158 1.200000 1.644107
v 3.100000 1.200000 2.441154
v 2.904230 1.200000 2.571964
v 2.725000 1.200000 1.791635
v 2.727208 1.200000 2.727208
v 2.571964 1.200000 2.904230
v 2.447658 1.200000 1.976949
v 2.441154 1.200000 3.100000
v 2.196878 1.200000 2.196878
v 2.337017 1.200000 3.311170
v 2.261334 1.200000 3.534126
v 2.215399 1.200000 3.765053
v 1.976949 1.200000 2.447658
v 1.791635 1.200000 2.725000
v 1.644107 1.200000 3.024158
v 1.536889 1.200000 3.340011
v 1.471815 1.200000 3.667158
v 3.288632 1.200000 -1.403374
v 3.190737 1.200000 -2.146958
v 2.589436 1.200000 -1.264296
v 2.395322 1.200000 -1.988740
v 1.914375 1.200000 -1.035143
v 1.627362 1.200000 -1.728053
v 1.275000 1.200000 -0.719838
v 0.900000 1.200000 -1.369358
v 0.682250 1.200000 -0.323776
v 0.225679 1.200000 -0.918790
v 0.146268 1.200000 0.146268
v -0.384062 1.200000 -0.384062
v -0.323776 1.200000 0.682250
v -0.719839 1.200000 1.275000
v -0.918790 1.200000 0.225679
v -1.035143 1.200000 1.914375
v -1.369358 1.200000 0.900000
v -1.264296 1.200000 2.589436
v -1.403374 1.200000 3.288632
v -1.728053 1.200000 1.627362
v -1.988740 1.200000 2.395322
v -2.146958 1.200000 3.190737
vt 0.002189 0.450764
vt 0.450764 0.002189
vt 0.450764 0.450764
vt 0.002189 0.002189
vt 0.399071 0.900724
vt 0.354213 0.455143
vt 0.399071 0.455143
vt 0.354213 0.900724
vt 0.500000 0.455143
vt 0.455143 0.899921
vt 0.455143 0.455143
vt 0.500000 0.899921
vt 0.997811 0.624380
vt 0.952953 0.251404
vt 0.997811 0.251404
vt 0.952953 0.624380
vt 0.997811 0.002189
vt 0.952953 0.002189
vt 0.443928 0.900724
vt 0.421499 0.800469
vt 0.443928 0.800469
vt 0.421499 0.758695
vt 0.421499 0.597172
vt 0.421499 0.555399
vt 0.443928 0.555399
vt 0.443928 0.455143
vt 0.908096 0.251404
vt 0.908096 0.002189
vt 0.908096 0.624380
vt 0.522429 0.555218
vt 0.544858 0.455143
vt 0.522429 0.799846
vt 0.544858 0.555218
vt 0.576044 0.560451
vt 0.576044 0.560451
vt 0.576044 0.560451
vt 0.448307 0.455143
vt 0.448307 0.659805
vt 0.448307 0.617751
vt 0.544858 0.899921
vt 0.544858 0.799846
vt 0.562410 0.456006
vt 0.549236 0.556072
vt 0.549236 0.455143
vt 0.650166 0.556072
vt 0.575359 0.458582
vt 0.587860 0.462825
vt 0.599701 0.468665
vt 0.610678 0.475999
vt 0.620604 0.484704
vt 0.629309 0.494630
vt 0.636644 0.505607
vt 0.642483 0.517448
vt 0.646726 0.529949
vt 0.649302 0.542898
vt 0.455143 0.002189
vt 0.500519 0.106093
vt 0.455143 0.103119
vt 0.903717 0.002189
vt 0.545120 0.114964
vt 0.588181 0.129582
vt 0.628965 0.149694
vt 0.666776 0.174958
vt 0.700965 0.204942
vt 0.730948 0.239131
vt 0.756212 0.276941
vt 0.776325 0.317726
vt 0.790942 0.360787
vt 0.799814 0.405387
vt 0.802788 0.450764
vt 0.903717 0.450764
vt 0.002189 0.659805
vt 0.015363 0.702722
vt 0.002189 0.701859
vt 0.020852 0.661028
vt 0.028312 0.705298
vt 0.039196 0.664677
vt 0.040813 0.709541
vt 0.056907 0.670689
vt 0.052654 0.715380
vt 0.063631 0.722715
vt 0.073681 0.678961
vt 0.073557 0.731420
vt 0.082262 0.741346
vt 0.089232 0.689352
vt 0.089597 0.752323
vt 0.103294 0.701683
vt 0.095436 0.764164
vt 0.099680 0.776665
vt 0.102255 0.789614
vt 0.103119 0.802788
vt 0.145172 0.802788
vt 0.115626 0.715745
vt 0.126016 0.731296
vt 0.134289 0.748070
vt 0.140300 0.765781
vt 0.143949 0.784125
vt 0.002189 0.455143
vt 0.042077 0.499811
vt 0.002189 0.497196
vt 0.047566 0.458117
vt 0.081282 0.507609
vt 0.092167 0.466988
vt 0.119134 0.520458
vt 0.135227 0.481606
vt 0.154985 0.538138
vt 0.176012 0.501718
vt 0.188222 0.560346
vt 0.213822 0.526982
vt 0.218275 0.586702
vt 0.248012 0.556966
vt 0.244631 0.616756
vt 0.266839 0.649992
vt 0.277995 0.591155
vt 0.284519 0.685843
vt 0.303259 0.628965
vt 0.297368 0.723695
vt 0.305166 0.762900
vt 0.323372 0.669750
vt 0.307781 0.802788
vt 0.349835 0.802788
vt 0.337989 0.712811
vt 0.346860 0.757411
vt 0.549236 0.568488
vt 0.571665 0.560451
vt 0.571665 0.568488
vt 0.549236 0.560451
vt 0.549236 0.577823
vt 0.571665 0.577823
vt 0.549236 0.588297
vt 0.571665 0.588297
vt 0.549236 0.599730
vt 0.571665 0.599730
vt 0.549236 0.611928
vt 0.571665 0.611928
vt 0.549236 0.624680
vt 0.571665 0.624680
vt 0.571665 0.637769
vt 0.549236 0.637769
vt 0.571665 0.650971
vt 0.549236 0.650971
vt 0.571665 0.664061
vt 0.549236 0.664061
vt 0.571665 0.676813
vt 0.549236 0.676813
vt 0.571665 0.689010
vt 0.549236 0.689010
vt 0.571665 0.700444
vt 0.549236 0.700444
vt 0.703781 0.711067
vt 0.681352 0.665650
vt 0.703781 0.665650
vt 0.681352 0.711067
vt 0.681352 0.620324
vt 0.703781 0.620324
vt 0.681352 0.575865
vt 0.703781 0.575865
vt 0.681352 0.533033
vt 0.703781 0.533033
vt 0.681352 0.492561
vt 0.703781 0.492561
vt 0.681352 0.455143
vt 0.703781 0.455143
vt 0.676973 0.674311
vt 0.654544 0.712104
vt 0.654544 0.674311
vt 0.676973 0.712104
vt 0.676973 0.633541
vt 0.654544 0.633541
vt 0.676973 0.590490
vt 0.654544 0.590490
vt 0.676973 0.545896
vt 0.654544 0.545896
vt 0.676973 0.500522
vt 0.654544 0.500522
vt 0.676973 0.455143
vt 0.654544 0.455143
vn 0.0000 -1.0000 -0.0000
vn 1.0000 -0.0000 0.0000
vn 0.0000 0.0000 1.0000
vn -1.0000 0.0000 0.0000
vn 0.0000 0.0000 -1.0000
vn 0.0000 1.0000 -0.0000
vn -0.1305 0.0000 -0.9914
vn -0.0654 0.0000 -0.9979
vn -0.2588 0.0000 -0.9659
vn -0.3827 0.0000 -0.9239
vn -0.5000 0.0000 -0.8660
vn -0.6088 0.0000 -0.7934
vn -0.7071 0.0000 -0.7071
vn -0.7934 0.0000 -0.6088
vn -0.8660 0.0000 -0.5000
vn -0.9239 0.0000 -0.3827
vn -0.9659 0.0000 -0.2588
vn -0.9914 0.0000 -0.1305
vn -0.9979 0.0000 -0.0654
vn 0.9979 0.0000 0.0654
vn 0.9914 0.0000 0.1305
vn 0.9659 0.0000 0.2588
vn 0.9239 0.0000 0.3827
vn 0.8660 0.0000 0.5000
vn 0.7934 -0.0000 0.6088
vn 0.7071 -0.0000 0.7071
vn 0.6088 0.0000 0.7934
vn 0.5000 -0.0000 0.8660
vn 0.3827 -0.0000 0.9239
vn 0.2588 -0.0000 0.9659
vn 0.1305 -0.0000 0.9914
vn 0.0654 0.0000 0.9979
s 1
f 1/1/1 2/2/1 3/3/1
f 2/2/1 1/1/1 4/4/1
f 5/5/2 2/6/2 6/7/2
f 2/6/2 5/5/2 3/8/2
f 5/9/3 1/10/3 3/11/3
f 1/10/3 5/9/3 7/12/3
f 1/13/4 8/14/4 4/15/4
f 8/14/4 1/13/4 7/16/4
f 8/14/5 2/17/5 4/15/5
f 2/17/5 8/14/5 6/18/5
f 9/19/2 10/20/2 11/21/2
f 5/5/2 10/20/2 9/19/2
f 5/5/2 12/22/2 10/20/2
f 5/5/2 13/23/2 12/22/2
f 5/5/2 14/24/2 13/23/2
f 6/7/2 14/24/2 5/5/2
f 6/7/2 15/25/2 14/24/2
f 15/25/2 6/7/2 16/26/2
f 17/27/5 6/18/5 8/14/5
f 6/18/5 17/27/5 16/28/5
f 7/16/4 17/27/4 8/14/4
f 17/27/4 7/16/4 18/29/4
f 5/9/3 19/30/3 7/12/3
f 19/30/3 5/9/3 9/31/3
f 7/12/3 19/30/3 20/32/3
f 19/30/3 9/31/3 21/33/3
f 19/34/3 22/35/3 20/36/3
f 22/37/3 19/38/3 23/39/3
f 20/32/3 18/40/3 7/12/3
f 18/40/3 20/32/3 24/41/3
f 25/42/6 9/43/6 11/44/6
f 9/43/6 25/42/6 21/45/6
f 21/45/6 25/42/6 26/46/6
f 21/45/6 26/46/6 27/47/6
f 21/45/6 27/47/6 28/48/6
f 21/45/6 28/48/6 29/49/6
f 21/45/6 29/49/6 30/50/6
f 21/45/6 30/50/6 31/51/6
f 21/45/6 31/51/6 32/52/6
f 21/45/6 32/52/6 33/53/6
f 21/45/6 33/53/6 34/54/6
f 21/45/6 34/54/6 35/55/6
f 16/56/6 36/57/6 15/58/6
f 36/57/6 16/56/6 17/59/6
f 36/57/6 17/59/6 37/60/6
f 37/60/6 17/59/6 38/61/6
f 38/61/6 17/59/6 39/62/6
f 39/62/6 17/59/6 40/63/6
f 40/63/6 17/59/6 41/64/6
f 41/64/6 17/59/6 42/65/6
f 42/65/6 17/59/6 43/66/6
f 43/66/6 17/59/6 44/67/6
f 44/67/6 17/59/6 45/68/6
f 45/68/6 17/59/6 46/69/6
f 46/69/6 17/59/6 24/70/6
f 24/70/6 17/59/6 18/71/6
f 12/72/6 47/73/6 10/74/6
f 47/73/6 12/72/6 48/75/6
f 47/73/6 48/75/6 49/76/6
f 49/76/6 48/75/6 50/77/6
f 49/76/6 50/77/6 51/78/6
f 51/78/6 50/77/6 52/79/6
f 51/78/6 52/79/6 53/80/6
f 53/80/6 52/79/6 54/81/6
f 54/81/6 52/79/6 55/82/6
f 54/81/6 55/82/6 56/83/6
f 56/83/6 55/82/6 57/84/6
f 57/84/6 55/82/6 58/85/6
f 57/84/6 58/85/6 59/86/6
f 59/86/6 58/85/6 60/87/6
f 59/86/6 60/87/6 61/88/6
f 61/88/6 60/87/6 62/89/6
f 62/89/6 60/87/6 63/90/6
f 63/90/6 60/87/6 19/91/6
f 19/91/6 60/87/6 23/92/6
f 23/92/6 60/87/6 64/93/6
f 23/92/6 64/93/6 65/94/6
f 23/92/6 65/94/6 66/95/6
f 23/92/6 66/95/6 67/96/6
f 23/92/6 67/96/6 68/97/6
f 14/98/6 69/99/6 13/100/6
f 69/99/6 14/98/6 70/101/6
f 69/99/6 70/101/6 71/102/6
f 71/102/6 70/101/6 72/103/6
f 71/102/6 72/103/6 73/104/6
f 73/104/6 72/103/6 74/105/6
f 73/104/6 74/105/6 75/106/6
f 75/106/6 74/105/6 76/107/6
f 75/106/6 76/107/6 77/108/6
f 77/108/6 76/107/6 78/109/6
f 77/108/6 78/109/6 79/110/6
f 79/110/6 78/109/6 80/111/6
f 79/110/6 80/111/6 81/112/6
f 81/112/6 80/111/6 82/113/6
f 82/113/6 80/111/6 83/114/6
f 82/113/6 83/114/6 84/115/6
f 84/115/6 83/114/6 85/116/6
f 84/115/6 85/116/6 86/117/6
f 86/117/6 85/116/6 87/118/6
f 87/118/6 85/116/6 88/119/6
f 87/118/6 88/119/6 22/120/6
f 22/120/6 88/119/6 20/121/6
f 20/121/6 88/119/6 89/122/6
f 20/121/6 89/122/6 90/123/6
f 25/124/7 10/125/8 47/126/7
f 10/125/8 25/124/7 11/127/8
f 26/128/9 47/126/7 49/129/9
f 47/126/7 26/128/9 25/124/7
f 27/130/10 49/129/9 51/131/10
f 49/129/9 27/130/10 26/128/9
f 28/132/11 51/131/10 53/133/11
f 51/131/10 28/132/11 27/130/10
f 29/134/12 53/133/11 54/135/12
f 53/133/11 29/134/12 28/132/11
f 30/136/13 54/135/12 56/137/13
f 54/135/12 30/136/13 29/134/12
f 57/138/14 30/136/13 56/137/13
f 30/136/13 57/138/14 31/139/14
f 59/140/15 31/139/14 57/138/14
f 31/139/14 59/140/15 32/141/15
f 61/142/16 32/141/15 59/140/15
f 32/141/15 61/142/16 33/143/16
f 62/144/17 33/143/16 61/142/16
f 33/143/16 62/144/17 34/145/17
f 63/146/18 34/145/17 62/144/17
f 34/145/17 63/146/18 35/147/18
f 19/148/19 35/147/18 63/146/18
f 35/147/18 19/148/19 21/149/19
f 24/150/20 90/151/21 46/152/21
f 90/151/21 24/150/20 20/153/20
f 46/152/21 89/154/22 45/155/22
f 89/154/22 46/152/21 90/151/21
f 45/155/22 88/156/23 44/157/23
f 88/156/23 45/155/22 89/154/22
f 44/157/23 85/158/24 43/159/24
f 85/158/24 44/157/23 88/156/23
f 43/159/24 83/160/25 42/161/25
f 83/160/25 43/159/24 85/158/24
f 42/161/25 80/162/26 41/163/26
f 80/162/26 42/161/25 83/160/25
f 40/164/27 80/165/26 78/166/27
f 80/165/26 40/164/27 41/167/26
f 39/168/28 78/166/27 76/169/28
f 78/166/27 39/168/28 40/164/27
f 38/170/29 76/169/28 74/171/29
f 76/169/28 38/170/29 39/168/28
f 37/172/30 74/171/29 72/173/30
f 74/171/29 37/172/30 38/170/29
f 36/174/31 72/173/30 70/175/31
f 72/173/30 36/174/31 37/172/30
f 15/176/32 70/175/31 14/177/32
f 70/175/31 15/176/32 36/174/31
f 13/100/6 48/75/6 12/72/6
f 48/75/6 13/100/6 69/99/6
f 48/75/6 69/99/6 50/77/6
f 50/77/6 69/99/6 52/79/6
f 52/79/6 69/99/6 71/102/6
f 52/79/6 71/102/6 55/82/6
f 55/82/6 71/102/6 58/85/6
f 58/85/6 71/102/6 73/104/6
f 58/85/6 73/104/6 60/87/6
f 60/87/6 73/104/6 64/93/6
f 64/93/6 73/104/6 65/94/6
f 65/94/6 73/104/6 75/106/6
f 65/94/6 75/106/6 66/95/6
f 66/95/6 75/106/6 67/96/6
f 67/96/6 75/106/6 68/97/6
f 68/97/6 75/106/6 23/92/6
f 23/92/6 75/106/6 22/120/6
f 22/120/6 75/106/6 77/108/6
f 22/120/6 77/108/6 79/110/6
f 22/120/6 79/110/6 81/112/6
f 22/120/6 81/112/6 82/113/6
f 22/120/6 82/113/6 84/115/6
f 22/120/6 84/115/6 86/117/6
f 22/120/6 86/117/6 87/118/6
