# Blender v2.92.0 OBJ File: 'OGConvert.blend'
# www.blender.org
o snow_tile_cornerSquare
v 4.000000 1.200000 -2.200000
v -1.450000 1.200000 -1.450000
v 4.000000 1.200000 -1.450000
v -2.200000 1.200000 -2.200000
v -1.450000 1.200000 4.000000
v -2.200000 1.200000 4.000000
v -2.200000 1.600000 4.000000
v -2.200000 1.600000 -2.200000
v 2.200000 1.200000 4.000000
v 2.200000 1.600000 2.200000
v 2.200000 1.200000 2.200000
v 2.200000 1.600000 4.000000
v 4.000000 1.200000 2.200000
v 4.000000 1.600000 2.200000
v 4.000000 1.600000 -2.200000
v 1.450000 1.200000 1.450000
v 4.000000 1.200000 1.450000
v 1.450000 1.200000 4.000000
v 4.000000 0.800000 4.000000
v -4.000000 0.800000 4.000000
v 4.000000 1.600000 4.000000
v -4.000000 1.600000 4.000000
v 4.000000 0.800000 -4.000000
v 4.000000 1.600000 -4.000000
v -4.000000 1.600000 -4.000000
v -4.000000 0.800000 -4.000000
v 4.000000 0.000000 -4.000000
v 4.000000 -0.000000 4.000000
v -4.000000 -0.000000 4.000000
v -4.000000 0.000000 -4.000000
vt 0.002669 0.502669
vt 0.339658 0.549043
vt 0.002669 0.549043
vt 0.386032 0.502669
vt 0.339658 0.886032
vt 0.386032 0.886032
vt 0.956847 0.886032
vt 0.932114 0.502669
vt 0.956847 0.502669
vt 0.932114 0.886032
vt 0.840211 0.730604
vt 0.815478 0.619305
vt 0.840211 0.619305
vt 0.815478 0.730604
vt 0.840211 0.735941
vt 0.815478 0.847240
vt 0.815478 0.735941
vt 0.840211 0.847240
vt 0.986917 0.502669
vt 0.962184 0.886032
vt 0.962184 0.502669
vt 0.986917 0.886032
vt 0.160342 0.728359
vt 0.002669 0.774733
vt 0.002669 0.728359
vt 0.113968 0.774733
vt 0.160342 0.886032
vt 0.113968 0.886032
vt 0.656405 0.502669
vt 0.681138 0.613968
vt 0.656405 0.997331
vt 0.705871 0.502669
vt 0.705871 0.613968
vt 0.681138 0.886032
vt 0.705871 0.997331
vt 0.495639 0.733696
vt 0.495639 0.733696
vt 0.495639 0.733696
vt 0.495639 0.502669
vt 0.495639 0.728359
vt 0.495639 0.549043
vt 0.705871 0.886032
vt 0.490302 0.997331
vt 0.465569 0.886032
vt 0.490302 0.886032
vt 0.440836 0.997331
vt 0.465569 0.839658
vt 0.465569 0.660342
vt 0.465569 0.613968
vt 0.440836 0.502669
vt 0.490302 0.613968
vt 0.490302 0.502669
vt 0.552135 0.997331
vt 0.502669 0.502669
vt 0.552135 0.502669
vt 0.502669 0.997331
vt 0.926777 0.502669
vt 0.815478 0.613968
vt 0.815478 0.502669
vt 0.926777 0.613968
vt 0.502669 0.002669
vt 0.886032 0.113968
vt 0.502669 0.113968
vt 0.997332 0.002669
vt 0.997331 0.497332
vt 0.886032 0.497331
vt 0.810141 0.502669
vt 0.760674 0.997331
vt 0.760674 0.502669
vt 0.810141 0.997331
vt 0.391369 0.502669
vt 0.391369 0.997331
vt 0.002669 0.497331
vt 0.497332 0.002669
vt 0.497331 0.497332
vt 0.002669 0.002669
vt 0.601601 0.997331
vt 0.601601 0.502669
vt 0.711208 0.997331
vt 0.711208 0.502669
vt 0.606938 0.997331
vt 0.606938 0.502669
vn 0.0000 1.0000 0.0000
vn 1.0000 0.0000 0.0000
vn -1.0000 0.0000 0.0000
vn 0.0000 0.0000 -1.0000
vn 0.0000 0.0000 1.0000
vn 0.0000 -1.0000 -0.0000
s 1
f 1/1/1 2/2/1 3/3/1
f 2/2/1 1/1/1 4/4/1
f 2/2/1 4/4/1 5/5/1
f 5/5/1 4/4/1 6/6/1
f 7/7/2 4/8/2 8/9/2
f 4/8/2 7/7/2 6/10/2
f 9/11/3 10/12/3 11/13/3
f 10/12/3 9/11/3 12/14/3
f 10/15/4 13/16/4 11/17/4
f 13/16/4 10/15/4 14/18/4
f 15/19/5 4/20/5 1/21/5
f 4/20/5 15/19/5 8/22/5
f 16/23/1 13/24/1 17/25/1
f 13/24/1 16/23/1 11/26/1
f 18/27/1 11/26/1 16/23/1
f 11/26/1 18/27/1 9/28/1
f 19/29/5 9/30/5 20/31/5
f 9/30/5 19/29/5 21/32/5
f 9/30/5 21/32/5 12/33/5
f 6/34/5 20/31/5 9/30/5
f 20/31/5 6/34/5 22/35/5
f 6/36/5 9/37/5 18/38/5
f 6/39/5 18/40/5 5/41/5
f 22/35/5 6/34/5 7/42/5
f 21/43/2 13/44/2 14/45/2
f 19/46/2 13/44/2 21/43/2
f 19/46/2 17/47/2 13/44/2
f 19/46/2 3/48/2 17/47/2
f 19/46/2 1/49/2 3/48/2
f 23/50/2 1/49/2 19/46/2
f 23/50/2 15/51/2 1/49/2
f 15/51/2 23/50/2 24/52/2
f 20/53/3 25/54/3 26/55/3
f 25/54/3 20/53/3 22/56/3
f 14/57/1 12/58/1 21/59/1
f 12/58/1 14/57/1 10/60/1
f 24/61/1 8/62/1 15/63/1
f 8/62/1 24/61/1 25/64/1
f 8/62/1 25/64/1 22/65/1
f 22/65/1 7/66/1 8/62/1
f 25/67/4 23/68/4 26/69/4
f 23/68/4 25/67/4 24/70/4
f 19/46/2 27/71/2 23/50/2
f 27/71/2 19/46/2 28/72/2
f 29/73/6 27/74/6 28/75/6
f 27/74/6 29/73/6 30/76/6
f 29/77/3 26/55/3 30/78/3
f 26/55/3 29/77/3 20/53/3
f 26/69/4 27/79/4 30/80/4
f 27/79/4 26/69/4 23/68/4
f 19/29/5 29/81/5 28/82/5
f 29/81/5 19/29/5 20/31/5
f 3/3/1 16/23/1 17/25/1
f 16/23/1 3/3/1 2/2/1
f 16/23/1 2/2/1 18/27/1
f 18/27/1 2/2/1 5/5/1
