# Blender v2.92.0 OBJ File: 'OGConvert.blend'
# www.blender.org
o spikesHidden
v -2.130000 0.952496 -0.700000
v -1.675600 0.560000 -0.252000
v -1.675600 0.560000 -1.148000
v -0.255600 0.560000 -1.652000
v -0.255600 0.800000 -2.548000
v -0.255600 0.560000 -2.548000
v -0.255600 0.800000 -1.652000
v -2.584400 0.800000 -1.652000
v -1.675600 0.560000 -1.652000
v -2.584400 0.560000 -1.652000
v -1.675600 0.800000 -1.652000
v -2.584400 0.560000 -2.548000
v -2.584400 0.800000 -2.548000
v 2.840000 0.800000 -2.800000
v 2.584400 0.800000 -2.548000
v 2.840000 0.800000 2.800000
v -2.840000 0.800000 -2.800000
v 1.675600 0.800000 -2.548000
v 1.164400 0.800000 -2.548000
v 1.675600 0.800000 -1.652000
v 1.675600 0.800000 -1.148000
v 1.675600 0.800000 -0.252000
v 1.675600 0.800000 0.252000
v 1.675600 0.800000 1.148000
v 1.675600 0.800000 1.652000
v 1.675600 0.800000 2.548000
v 0.255600 0.800000 -2.548000
v 0.255600 0.800000 -1.652000
v 0.255600 0.800000 -1.148000
v 0.255600 0.800000 -0.252000
v 0.255600 0.800000 0.252000
v 0.255600 0.800000 1.148000
v 0.255600 0.800000 1.652000
v 0.255600 0.800000 2.548000
v -0.255600 0.800000 2.548000
v -2.840000 0.800000 2.800000
v 2.584400 0.800000 2.548000
v 2.584400 0.800000 -1.652000
v 2.584400 0.800000 -1.148000
v 2.584400 0.800000 -0.252000
v 2.584400 0.800000 0.252000
v 2.584400 0.800000 1.148000
v 2.584400 0.800000 1.652000
v 1.164400 0.800000 2.548000
v 1.164400 0.800000 -1.652000
v 1.164400 0.800000 -1.148000
v 1.164400 0.800000 -0.252000
v 1.164400 0.800000 0.252000
v 1.164400 0.800000 1.148000
v 1.164400 0.800000 1.652000
v -1.164400 0.800000 -2.548000
v -1.675600 0.800000 -2.548000
v -1.164400 0.800000 -1.652000
v -1.164400 0.800000 -1.148000
v -1.164400 0.800000 -0.252000
v -1.164400 0.800000 0.252000
v -1.164400 0.800000 1.148000
v -1.164400 0.800000 1.652000
v -1.164400 0.800000 2.548000
v -2.584400 0.800000 -1.148000
v -2.584400 0.800000 -0.252000
v -2.584400 0.800000 0.252000
v -2.584400 0.800000 1.148000
v -2.584400 0.800000 1.652000
v -2.584400 0.800000 2.548000
v -1.675600 0.800000 2.548000
v -1.675600 0.800000 -1.148000
v -1.675600 0.800000 -0.252000
v -1.675600 0.800000 0.252000
v -1.675600 0.800000 1.148000
v -1.675600 0.800000 1.652000
v -0.255600 0.800000 -1.148000
v -0.255600 0.800000 -0.252000
v -0.255600 0.800000 0.252000
v -0.255600 0.800000 1.148000
v -0.255600 0.800000 1.652000
v -1.164400 0.560000 -2.548000
v 3.240000 0.400000 3.200000
v -3.240000 -0.000000 3.200000
v 3.240000 -0.000000 3.200000
v -3.240000 0.400000 3.200000
v -2.584400 0.560000 1.148000
v -2.130000 0.952496 0.700000
v -2.584400 0.560000 0.252000
v -3.240000 0.400000 -3.200000
v 3.240000 0.400000 -3.200000
v 0.255600 0.560000 -2.548000
v 0.710000 0.952496 -2.100000
v 1.164400 0.560000 -2.548000
v -1.675600 0.560000 2.548000
v -1.675600 0.560000 1.652000
v 1.164400 0.560000 2.548000
v 0.255600 0.560000 2.548000
v 2.130000 0.952496 -2.100000
v 2.584400 0.560000 -1.652000
v 2.584400 0.560000 -2.548000
v 2.584400 0.560000 1.148000
v 2.584400 0.560000 0.252000
v 0.255600 0.560000 0.252000
v 0.710000 0.952496 0.700000
v 1.164400 0.560000 0.252000
v -1.164400 0.560000 1.652000
v -0.710000 0.952496 2.100000
v -0.255600 0.560000 1.652000
v -0.710000 0.952496 -0.700000
v -0.255600 0.560000 -0.252000
v -0.255600 0.560000 -1.148000
v 0.710000 0.952496 2.100000
v 0.255600 0.560000 1.652000
v -1.164400 0.560000 -0.252000
v -1.164400 0.560000 -1.148000
v 1.164400 0.560000 1.652000
v 1.675600 0.560000 1.652000
v 1.675600 0.560000 2.548000
v 1.675600 0.560000 -1.652000
v 1.675600 0.560000 -2.548000
v 0.255600 0.560000 -1.148000
v 1.164400 0.560000 -1.148000
v -2.584400 0.560000 -1.148000
v -0.710000 0.952496 0.700000
v -0.255600 0.560000 1.148000
v -0.255600 0.560000 0.252000
v 1.675600 0.560000 -1.148000
v 2.584400 0.560000 -1.148000
v 2.584400 0.560000 2.548000
v 1.675600 0.560000 1.148000
v 2.130000 0.952496 2.100000
v 2.584400 0.560000 1.652000
v 0.710000 0.952496 -0.700000
v 1.164400 0.560000 -0.252000
v -2.584400 0.560000 2.548000
v -2.130000 0.952496 2.100000
v -1.675600 0.560000 1.148000
v -0.255600 0.560000 2.548000
v -1.164400 0.560000 0.252000
v -1.164400 0.560000 2.548000
v -1.164400 0.560000 -1.652000
v -0.710000 0.952496 -2.100000
v 1.675600 0.560000 -0.252000
v 2.130000 0.952496 -0.700000
v -1.675600 0.560000 0.252000
v -2.584400 0.560000 -0.252000
v 0.255600 0.560000 -0.252000
v -2.584400 0.560000 1.652000
v 1.675600 0.560000 0.252000
v -3.240000 0.000000 -3.200000
v -1.164400 0.560000 1.148000
v 0.255600 0.560000 -1.652000
v 3.240000 0.000000 -3.200000
v 1.164400 0.560000 -1.652000
v -1.675600 0.560000 -2.548000
v 2.584400 0.560000 -0.252000
v 0.255600 0.560000 1.148000
v 1.164400 0.560000 1.148000
v -2.130000 0.952496 -2.100000
v 2.130000 0.952496 0.700000
vt 0.532656 0.539195
vt 0.498753 0.504807
vt 0.566559 0.504807
vt 0.825025 0.885202
vt 0.806863 0.817396
vt 0.825025 0.817396
vt 0.806863 0.885202
vt 0.259930 0.739975
vt 0.241768 0.808750
vt 0.241768 0.739975
vt 0.259930 0.808750
vt 0.797249 0.807781
vt 0.779086 0.739975
vt 0.797249 0.739975
vt 0.779086 0.807781
vt 0.458868 0.035078
vt 0.439797 0.054421
vt 0.035078 0.035078
vt 0.458868 0.464922
vt 0.439797 0.123196
vt 0.439797 0.161882
vt 0.371991 0.123196
vt 0.333850 0.123196
vt 0.266043 0.123196
vt 0.227902 0.123196
vt 0.160096 0.123196
vt 0.121955 0.123196
vt 0.054148 0.123196
vt 0.439797 0.230657
vt 0.439797 0.269343
vt 0.371991 0.230657
vt 0.333850 0.230657
vt 0.266043 0.230657
vt 0.227902 0.230657
vt 0.160096 0.230657
vt 0.121955 0.230657
vt 0.054148 0.230657
vt 0.054148 0.269343
vt 0.035078 0.464922
vt 0.054148 0.054421
vt 0.474030 0.504807
vt 0.474030 0.504807
vt 0.474030 0.504807
vt 0.759858 0.504807
vt 0.759858 0.822650
vt 0.759858 0.784509
vt 0.759858 0.716702
vt 0.489139 0.504807
vt 0.489139 0.504807
vt 0.489139 0.504807
vt 0.890193 0.504807
vt 0.890193 0.678561
vt 0.890193 0.610755
vt 0.483644 0.514421
vt 0.483644 0.514421
vt 0.483644 0.514421
vt 0.054148 0.161882
vt 0.731015 0.504807
vt 0.731015 0.890456
vt 0.731015 0.822650
vt 0.474030 0.514421
vt 0.474030 0.514421
vt 0.474030 0.514421
vt 0.769472 0.504807
vt 0.769472 0.784509
vt 0.769472 0.716702
vt 0.483644 0.524036
vt 0.483644 0.524036
vt 0.483644 0.524036
vt 0.483644 0.524036
vt 0.483644 0.524036
vt 0.121955 0.161882
vt 0.160096 0.161882
vt 0.227902 0.161882
vt 0.266043 0.161882
vt 0.333850 0.161882
vt 0.371991 0.161882
vt 0.121955 0.054421
vt 0.160096 0.054421
vt 0.439797 0.338118
vt 0.439797 0.376804
vt 0.371991 0.338118
vt 0.333850 0.338118
vt 0.266043 0.338118
vt 0.227902 0.338118
vt 0.160096 0.338118
vt 0.121955 0.338118
vt 0.054148 0.338118
vt 0.439797 0.445579
vt 0.371991 0.445579
vt 0.333850 0.445579
vt 0.266043 0.445579
vt 0.227902 0.445579
vt 0.160096 0.445579
vt 0.121955 0.445579
vt 0.054148 0.445579
vt 0.054148 0.376804
vt 0.740629 0.504807
vt 0.740629 0.890456
vt 0.740629 0.822650
vt 0.740629 0.784509
vt 0.333850 0.376804
vt 0.371991 0.376804
vt 0.474030 0.524036
vt 0.474030 0.524036
vt 0.474030 0.524036
vt 0.721401 0.583196
vt 0.721401 0.795092
vt 0.721401 0.756950
vt 0.227902 0.376804
vt 0.266043 0.376804
vt 0.474030 0.533650
vt 0.474030 0.533650
vt 0.474030 0.533650
vt 0.474030 0.533650
vt 0.121955 0.376804
vt 0.160096 0.376804
vt 0.750244 0.504807
vt 0.750244 0.890456
vt 0.750244 0.822650
vt 0.750244 0.784509
vt 0.483644 0.533650
vt 0.483644 0.533650
vt 0.483644 0.533650
vt 0.483644 0.533650
vt 0.483644 0.533650
vt 0.483644 0.533650
vt 0.121955 0.269343
vt 0.160096 0.269343
vt 0.227902 0.269343
vt 0.266043 0.269343
vt 0.333850 0.269343
vt 0.371991 0.269343
vt 0.227902 0.054421
vt 0.266043 0.054421
vt 0.333850 0.054421
vt 0.371991 0.054421
vt 0.601094 0.730361
vt 0.619257 0.661586
vt 0.619257 0.730361
vt 0.601094 0.661586
vt 0.035078 0.504807
vt 0.004807 0.995193
vt 0.004807 0.504807
vt 0.035078 0.995193
vt 0.241768 0.730361
vt 0.275671 0.695973
vt 0.309574 0.730361
vt 0.489139 0.495193
vt 0.004807 0.495193
vt 0.004807 0.004807
vt 0.489139 0.004807
vt 0.576174 0.504807
vt 0.610077 0.539195
vt 0.576174 0.573582
vt 0.825025 0.572614
vt 0.806863 0.504807
vt 0.825025 0.504807
vt 0.806863 0.572614
vt 0.656648 0.730361
vt 0.674810 0.661586
vt 0.674810 0.730361
vt 0.656648 0.661586
vt 0.430512 0.617584
vt 0.396609 0.583196
vt 0.464416 0.583196
vt 0.420681 0.886171
vt 0.402519 0.818364
vt 0.420681 0.818364
vt 0.402518 0.886171
vt 0.474030 0.583196
vt 0.507933 0.617584
vt 0.474030 0.651972
vt 0.164347 0.583196
vt 0.198250 0.617584
vt 0.164347 0.651971
vt 0.275671 0.539195
vt 0.309574 0.573582
vt 0.241768 0.573582
vt 0.386995 0.504807
vt 0.353092 0.539195
vt 0.319188 0.504807
vt 0.309574 0.504807
vt 0.241768 0.504807
vt 0.319188 0.730361
vt 0.337351 0.661586
vt 0.337351 0.730361
vt 0.319188 0.661586
vt 0.210286 0.886171
vt 0.192124 0.818364
vt 0.210286 0.818364
vt 0.192124 0.886171
vt 0.396609 0.651971
vt 0.464416 0.651971
vt 0.346965 0.730361
vt 0.365128 0.661586
vt 0.365128 0.730361
vt 0.346965 0.661586
vt 0.566559 0.573582
vt 0.275671 0.617584
vt 0.309574 0.651971
vt 0.241768 0.651971
vt 0.287707 0.739975
vt 0.269544 0.808750
vt 0.269544 0.739975
vt 0.287707 0.808750
vt 0.337351 0.739975
vt 0.319188 0.808750
vt 0.319188 0.739975
vt 0.337351 0.808750
vt 0.365128 0.739975
vt 0.346965 0.808750
vt 0.346965 0.739975
vt 0.365128 0.808750
vt 0.619257 0.651971
vt 0.585354 0.617584
vt 0.619257 0.583196
vt 0.198250 0.539195
vt 0.232154 0.573582
vt 0.164347 0.573582
vt 0.628871 0.651972
vt 0.628871 0.583196
vt 0.662774 0.617584
vt 0.241768 0.661586
vt 0.232154 0.651971
vt 0.241768 0.583196
vt 0.232154 0.583196
vt 0.696678 0.583196
vt 0.464416 0.504807
vt 0.464416 0.573582
vt 0.430512 0.539195
vt 0.825025 0.651003
vt 0.806863 0.583196
vt 0.825025 0.583196
vt 0.806863 0.651003
vt 0.319188 0.651971
vt 0.353092 0.617584
vt 0.386995 0.651971
vt 0.309574 0.661586
vt 0.825025 0.729392
vt 0.806863 0.661586
vt 0.825025 0.661586
vt 0.806863 0.729392
vt 0.386995 0.583196
vt 0.319188 0.573582
vt 0.392904 0.739975
vt 0.374742 0.808750
vt 0.374742 0.739975
vt 0.392904 0.808750
vt 0.420681 0.739975
vt 0.402518 0.808750
vt 0.402518 0.739975
vt 0.420681 0.808750
vt 0.684424 0.730361
vt 0.702587 0.661586
vt 0.702587 0.730361
vt 0.684424 0.661586
vt 0.232154 0.504807
vt 0.396609 0.730361
vt 0.414772 0.661586
vt 0.414772 0.730361
vt 0.396609 0.661586
vt 0.825025 0.807781
vt 0.806863 0.739975
vt 0.825025 0.739975
vt 0.806863 0.807781
vt 0.386995 0.573582
vt 0.448458 0.739975
vt 0.430295 0.808750
vt 0.430295 0.739975
vt 0.448458 0.808750
vt 0.476234 0.739975
vt 0.458072 0.808750
vt 0.458072 0.739975
vt 0.476234 0.808750
vt 0.504011 0.739975
vt 0.485848 0.808750
vt 0.485848 0.739975
vt 0.504011 0.808750
vt 0.498753 0.573582
vt 0.114848 0.989139
vt 0.084577 0.504807
vt 0.114848 0.504807
vt 0.084577 0.989139
vt 0.852802 0.572614
vt 0.834640 0.504807
vt 0.852802 0.504807
vt 0.834640 0.572614
vt 0.424386 0.730361
vt 0.442548 0.661586
vt 0.442548 0.730361
vt 0.424386 0.661586
vt 0.182510 0.886171
vt 0.164347 0.818364
vt 0.182510 0.818364
vt 0.164347 0.886171
vt 0.309574 0.583196
vt 0.396609 0.504807
vt 0.643980 0.504807
vt 0.238063 0.886171
vt 0.219900 0.818364
vt 0.238063 0.818364
vt 0.219900 0.886171
vt 0.154733 0.989139
vt 0.124462 0.504807
vt 0.154733 0.504807
vt 0.124462 0.989139
vt 0.448458 0.886171
vt 0.430295 0.818364
vt 0.448458 0.818364
vt 0.430295 0.886171
vt 0.643980 0.573582
vt 0.287707 0.886171
vt 0.269544 0.818364
vt 0.287707 0.818364
vt 0.269544 0.886171
vt 0.319188 0.583196
vt 0.164347 0.504807
vt 0.541836 0.583196
vt 0.541836 0.651972
vt 0.551450 0.651971
vt 0.551450 0.583196
vt 0.476234 0.886171
vt 0.458072 0.818364
vt 0.476234 0.818364
vt 0.458072 0.886171
vt 0.474030 0.730361
vt 0.492192 0.661586
vt 0.492192 0.730361
vt 0.474030 0.661586
vt 0.531788 0.739975
vt 0.513625 0.808750
vt 0.513625 0.739975
vt 0.531788 0.808750
vt 0.504011 0.886171
vt 0.485849 0.818364
vt 0.504011 0.818364
vt 0.485849 0.886171
vt 0.687498 0.539195
vt 0.653594 0.504807
vt 0.721401 0.504807
vt 0.531788 0.886171
vt 0.513625 0.818364
vt 0.531788 0.818364
vt 0.513625 0.886171
vt 0.696678 0.651972
vt 0.198250 0.695973
vt 0.164347 0.661586
vt 0.232154 0.661586
vt 0.653594 0.573582
vt 0.779086 0.573582
vt 0.797249 0.504807
vt 0.797249 0.573582
vt 0.779086 0.504807
vt 0.559564 0.886171
vt 0.541402 0.818364
vt 0.559564 0.818364
vt 0.541402 0.886171
vt 0.779086 0.651971
vt 0.797249 0.583196
vt 0.797249 0.651971
vt 0.779086 0.583196
vt 0.852802 0.650034
vt 0.834640 0.582228
vt 0.852802 0.582228
vt 0.834640 0.650034
vt 0.501806 0.730361
vt 0.519969 0.661586
vt 0.519969 0.730361
vt 0.501806 0.661586
vt 0.164347 0.730361
vt 0.232154 0.730361
vt 0.396609 0.573582
vt 0.852802 0.728423
vt 0.834640 0.660617
vt 0.852802 0.660617
vt 0.834640 0.728423
vt 0.559564 0.739975
vt 0.541402 0.808750
vt 0.541402 0.739975
vt 0.559564 0.808750
vt 0.852802 0.806813
vt 0.834640 0.739007
vt 0.852802 0.739007
vt 0.834640 0.806813
vt 0.551450 0.730361
vt 0.569613 0.661586
vt 0.569613 0.730361
vt 0.551450 0.661586
vt 0.074963 0.504807
vt 0.044692 0.995193
vt 0.044692 0.504807
vt 0.074963 0.995193
vt 0.498753 0.004807
vt 0.983085 0.495193
vt 0.498753 0.495193
vt 0.983085 0.004807
vt 0.880579 0.572614
vt 0.862416 0.504807
vt 0.880579 0.504807
vt 0.862416 0.572614
vt 0.880579 0.650034
vt 0.862416 0.582228
vt 0.880579 0.582228
vt 0.862416 0.650034
vt 0.880579 0.727455
vt 0.862416 0.659648
vt 0.880579 0.659648
vt 0.862416 0.727455
vt 0.628871 0.730361
vt 0.647034 0.661586
vt 0.647034 0.730361
vt 0.628871 0.661586
vt 0.880579 0.805844
vt 0.862416 0.738038
vt 0.880579 0.738038
vt 0.862416 0.805844
vt 0.315484 0.886171
vt 0.297321 0.818364
vt 0.315484 0.818364
vt 0.297321 0.886171
vt 0.587341 0.886171
vt 0.569179 0.818364
vt 0.587341 0.818364
vt 0.569179 0.886171
vt 0.587341 0.739975
vt 0.569179 0.808750
vt 0.569179 0.739975
vt 0.587341 0.808750
vt 0.619257 0.739975
vt 0.601094 0.808750
vt 0.601094 0.739975
vt 0.619257 0.808750
vt 0.615118 0.886171
vt 0.596955 0.818364
vt 0.615118 0.818364
vt 0.596955 0.886171
vt 0.880579 0.883265
vt 0.862416 0.815458
vt 0.880579 0.815458
vt 0.862416 0.883265
vt 0.779086 0.730361
vt 0.797249 0.661586
vt 0.797249 0.730361
vt 0.779086 0.661586
vt 0.852802 0.884234
vt 0.834640 0.816427
vt 0.852802 0.816427
vt 0.834640 0.884234
vt 0.365128 0.886171
vt 0.346965 0.818364
vt 0.365128 0.818364
vt 0.346965 0.886171
vt 0.702587 0.739975
vt 0.684424 0.808750
vt 0.684424 0.739975
vt 0.702587 0.808750
vt 0.721401 0.573582
vt 0.164347 0.808750
vt 0.182510 0.739975
vt 0.182510 0.808750
vt 0.164347 0.739975
vt 0.674810 0.739975
vt 0.656648 0.808750
vt 0.656648 0.739975
vt 0.674810 0.808750
vt 0.192124 0.808750
vt 0.210286 0.739975
vt 0.210286 0.808750
vt 0.192124 0.739975
vt 0.392904 0.886171
vt 0.374742 0.818364
vt 0.392904 0.818364
vt 0.374742 0.886171
vt 0.797249 0.885202
vt 0.779086 0.817396
vt 0.797249 0.817396
vt 0.779086 0.885202
vt 0.647034 0.739975
vt 0.628871 0.808750
vt 0.628871 0.739975
vt 0.647034 0.808750
vn 0.6537 0.7568 0.0000
vn -1.0000 0.0000 0.0000
vn 0.0000 0.0000 -1.0000
vn 1.0000 0.0000 0.0000
vn 0.0000 1.0000 0.0000
vn -0.0628 0.9980 0.0000
vn -0.0472 0.9989 0.0000
vn -0.0419 0.9991 0.0000
vn 0.0479 0.0243 -0.9986
vn 0.1252 0.9919 -0.0213
vn 0.1842 0.0925 -0.9785
vn -0.2723 0.9622 -0.0000
vn 0.1662 0.9857 -0.0279
vn -0.4000 0.2000 -0.8944
vn 0.1499 0.9884 -0.0251
vn 0.0835 0.9965 0.0000
vn 0.8792 -0.4396 -0.1835
vn 0.1640 0.9865 0.0000
vn 0.7456 0.6511 -0.1417
vn 0.4214 0.9069 0.0000
vn -0.3867 0.9222 0.0000
vn 0.0000 0.0000 1.0000
vn -0.6537 0.7568 0.0000
vn -0.7071 0.7071 0.0000
vn 0.7071 0.7071 0.0000
vn 0.0000 0.7522 -0.6590
vn 0.0000 0.7522 0.6590
vn 0.0000 0.7071 0.7071
vn 0.0000 0.7071 -0.7071
vn 0.0000 -1.0000 -0.0000
s 1
f 1/1/1 2/2/1 3/3/1
f 4/4/2 5/5/2 6/6/2
f 5/5/2 4/4/2 7/7/2
f 8/8/3 9/9/3 10/10/3
f 9/9/3 8/8/3 11/11/3
f 8/12/4 12/13/4 13/14/4
f 12/13/4 8/12/4 10/15/4
f 14/16/5 15/17/5 16/18/5
f 15/17/5 14/16/5 17/19/5
f 15/17/5 17/19/5 18/20/5
f 18/20/5 17/19/5 19/21/5
f 18/20/5 19/21/5 20/22/5
f 20/22/5 19/21/5 21/23/5
f 21/23/5 19/21/5 22/24/5
f 22/24/5 19/21/5 23/25/5
f 23/25/5 19/21/5 24/26/5
f 24/26/5 19/21/5 25/27/5
f 25/27/5 19/21/5 26/28/5
f 19/21/5 17/19/5 27/29/5
f 27/29/5 17/19/5 5/30/5
f 27/29/5 5/30/5 28/31/5
f 28/31/5 5/30/5 29/32/5
f 29/32/5 5/30/5 30/33/5
f 30/33/5 5/30/5 31/34/5
f 31/34/5 5/30/5 32/35/5
f 32/35/5 5/30/5 33/36/5
f 33/36/5 5/30/5 34/37/5
f 35/38/5 34/37/5 5/30/5
f 36/39/5 34/37/5 35/38/5
f 36/39/5 37/40/5 26/28/5
f 16/18/5 37/40/5 36/39/5
f 37/40/5 16/18/5 15/17/5
f 37/41/5 15/42/5 38/43/6
f 37/44/5 38/45/6 39/46/7
f 37/44/5 39/46/7 40/47/8
f 37/48/5 40/49/8 41/50/9
f 37/51/5 41/52/9 42/53/10
f 37/54/5 42/55/10 43/56/11
f 36/39/5 44/57/5 34/37/5
f 36/39/5 26/28/5 44/57/5
f 44/57/5 26/28/5 19/21/5
f 44/58/5 19/59/5 45/60/6
f 44/61/5 45/62/6 46/63/12
f 44/64/5 46/65/12 47/66/13
f 44/67/5 47/68/13 48/69/9
f 44/67/5 48/69/9 49/70/14
f 44/67/5 49/70/14 50/71/11
f 32/35/5 50/72/11 49/73/14
f 50/72/11 32/35/5 33/36/5
f 30/33/5 48/74/9 47/75/13
f 48/74/9 30/33/5 31/34/5
f 28/31/5 46/76/12 45/77/6
f 46/76/12 28/31/5 29/32/5
f 24/26/5 43/78/11 42/79/10
f 43/78/11 24/26/5 25/27/5
f 5/30/5 17/19/5 51/80/5
f 51/80/5 17/19/5 52/81/5
f 51/80/5 52/81/5 53/82/5
f 53/82/5 52/81/5 54/83/5
f 54/83/5 52/81/5 55/84/5
f 55/84/5 52/81/5 56/85/5
f 56/85/5 52/81/5 57/86/5
f 57/86/5 52/81/5 58/87/5
f 58/87/5 52/81/5 59/88/5
f 52/81/5 17/19/5 13/89/5
f 13/89/5 17/19/5 8/90/5
f 8/90/5 17/19/5 60/91/5
f 60/91/5 17/19/5 61/92/5
f 61/92/5 17/19/5 62/93/5
f 62/93/5 17/19/5 63/94/5
f 63/94/5 17/19/5 64/95/5
f 64/95/5 17/19/5 65/96/5
f 36/39/5 65/96/5 17/19/5
f 36/39/5 35/38/5 59/88/5
f 36/39/5 59/88/5 66/97/5
f 36/39/5 66/97/5 65/96/5
f 66/97/5 59/88/5 52/81/5
f 66/98/5 52/99/5 11/100/15
f 66/98/5 11/100/15 67/101/16
f 8/90/5 67/102/16 11/103/15
f 67/102/16 8/90/5 60/91/5
f 66/104/5 67/105/16 68/106/17
f 66/107/5 68/108/17 69/109/18
f 61/92/5 69/110/18 68/111/17
f 69/110/18 61/92/5 62/93/5
f 66/112/5 69/113/18 70/114/14
f 66/112/5 70/114/14 71/115/11
f 63/94/5 71/116/11 70/117/14
f 71/116/11 63/94/5 64/95/5
f 35/118/5 5/119/5 7/120/19
f 35/118/5 7/120/19 72/121/20
f 35/122/5 72/123/20 73/124/21
f 35/122/5 73/124/21 74/125/9
f 35/122/5 74/125/9 75/126/14
f 35/122/5 75/126/14 76/127/11
f 57/86/5 76/128/11 75/129/14
f 76/128/11 57/86/5 58/87/5
f 55/84/5 74/130/9 73/131/21
f 74/130/9 55/84/5 56/85/5
f 53/82/5 72/132/20 7/133/19
f 72/132/20 53/82/5 54/83/5
f 22/24/5 41/134/9 40/135/8
f 41/134/9 22/24/5 23/25/5
f 20/22/5 39/136/7 38/137/6
f 39/136/7 20/22/5 21/23/5
f 5/138/22 77/139/22 6/140/22
f 77/139/22 5/138/22 51/141/22
f 78/142/22 79/143/22 80/144/22
f 79/143/22 78/142/22 81/145/22
f 82/146/23 83/147/23 84/148/23
f 85/149/24 36/39/24 17/19/24
f 36/39/24 85/149/24 81/150/24
f 14/16/25 78/151/25 86/152/25
f 78/151/25 14/16/25 16/18/25
f 87/153/26 88/154/26 89/155/26
f 90/156/2 71/157/2 91/158/2
f 71/157/2 90/156/2 66/159/2
f 34/160/3 92/161/3 93/162/3
f 92/161/3 34/160/3 44/163/3
f 94/164/1 95/165/1 96/166/1
f 97/167/2 41/168/2 98/169/2
f 41/168/2 97/167/2 42/170/2
f 99/171/26 100/172/26 101/173/26
f 102/174/26 103/175/26 104/176/26
f 105/177/1 106/178/1 107/179/1
f 93/180/23 108/181/23 109/182/23
f 110/183/23 105/177/23 111/184/23
f 50/185/22 109/186/22 112/187/22
f 109/186/22 50/185/22 33/188/22
f 26/189/4 113/190/4 25/191/4
f 113/190/4 26/189/4 114/192/4
f 115/193/23 94/164/23 116/194/23
f 110/183/27 106/178/27 105/177/27
f 46/195/22 117/196/22 118/197/22
f 117/196/22 46/195/22 29/198/22
f 119/199/26 1/1/26 3/3/26
f 120/200/1 121/201/1 122/202/1
f 39/203/22 123/204/22 124/205/22
f 123/204/22 39/203/22 21/206/22
f 26/207/3 125/208/3 114/209/3
f 125/208/3 26/207/3 37/210/3
f 24/211/3 97/212/3 126/213/3
f 97/212/3 24/211/3 42/214/3
f 113/215/26 127/216/26 128/217/26
f 129/218/1 130/219/1 118/220/1
f 131/221/27 90/222/27 132/223/27
f 82/146/27 133/224/27 83/147/27
f 103/175/1 134/225/1 104/176/1
f 135/226/26 120/200/26 122/202/26
f 136/227/23 103/175/23 102/174/23
f 116/194/26 94/164/26 96/166/26
f 132/223/1 90/222/1 91/228/1
f 137/229/27 4/230/27 138/231/27
f 134/232/2 76/233/2 104/234/2
f 76/233/2 134/232/2 35/235/2
f 139/236/23 140/237/23 123/238/23
f 84/148/26 83/147/26 141/239/26
f 61/240/4 119/241/4 60/242/4
f 119/241/4 61/240/4 142/243/4
f 123/238/26 140/237/26 124/244/26
f 109/182/26 108/181/26 112/245/26
f 20/246/3 95/247/3 115/248/3
f 95/247/3 20/246/3 38/249/3
f 15/250/22 116/251/22 96/252/22
f 116/251/22 15/250/22 18/253/22
f 76/254/22 102/255/22 104/256/22
f 102/255/22 76/254/22 58/257/22
f 143/258/27 130/219/27 129/218/27
f 59/259/3 134/260/3 136/261/3
f 134/260/3 59/259/3 35/262/3
f 106/263/2 72/264/2 107/265/2
f 72/264/2 106/263/2 73/266/2
f 93/180/27 92/267/27 108/181/27
f 71/268/22 144/269/22 91/270/22
f 144/269/22 71/268/22 64/271/22
f 108/181/1 92/267/1 112/245/1
f 61/272/3 2/273/3 142/274/3
f 2/273/3 61/272/3 68/275/3
f 41/276/22 145/277/22 98/278/22
f 145/277/22 41/276/22 23/279/22
f 142/280/27 2/2/27 1/1/27
f 79/281/2 85/282/2 146/283/2
f 85/282/2 79/281/2 81/284/2
f 125/285/2 43/286/2 128/287/2
f 43/286/2 125/285/2 37/288/2
f 136/227/27 134/225/27 103/175/27
f 57/289/3 121/290/3 147/291/3
f 121/290/3 57/289/3 75/292/3
f 34/293/4 109/294/4 33/295/4
f 109/294/4 34/293/4 93/296/4
f 147/297/27 121/201/27 120/200/27
f 137/229/23 138/231/23 77/298/23
f 148/299/23 88/154/23 87/153/23
f 59/300/4 102/301/4 58/302/4
f 102/301/4 59/300/4 136/303/4
f 78/304/4 149/305/4 86/306/4
f 149/305/4 78/304/4 80/307/4
f 16/18/28 81/150/28 78/151/28
f 81/150/28 16/18/28 36/39/28
f 142/280/23 1/1/23 119/199/23
f 121/308/2 74/309/2 122/310/2
f 74/309/2 121/308/2 75/311/2
f 88/154/1 150/312/1 89/155/1
f 9/313/2 52/314/2 151/315/2
f 52/314/2 9/313/2 11/316/2
f 140/237/1 152/317/1 124/244/1
f 117/318/26 129/218/26 118/220/26
f 139/236/27 152/317/27 140/237/27
f 153/319/27 154/320/27 100/172/27
f 114/321/27 125/322/27 127/216/27
f 114/321/23 127/216/23 113/215/23
f 24/323/4 145/324/4 23/325/4
f 145/324/4 24/323/4 126/326/4
f 53/327/3 4/328/3 137/329/3
f 4/328/3 53/327/3 7/330/3
f 43/331/22 113/332/22 128/333/22
f 113/332/22 43/331/22 25/334/22
f 57/335/4 135/336/4 56/337/4
f 135/336/4 57/335/4 147/338/4
f 155/339/1 9/340/1 151/341/1
f 32/342/4 99/343/4 31/344/4
f 99/343/4 32/342/4 153/345/4
f 144/346/26 132/223/26 91/228/26
f 115/193/27 95/165/27 94/164/27
f 156/347/1 97/348/1 98/349/1
f 148/299/27 150/312/27 88/154/27
f 10/350/27 9/340/27 155/339/27
f 32/351/3 154/352/3 153/353/3
f 154/352/3 32/351/3 49/354/3
f 154/355/2 48/356/2 101/357/2
f 48/356/2 154/355/2 49/358/2
f 74/359/22 135/360/22 122/361/22
f 135/360/22 74/359/22 56/362/22
f 131/221/23 132/223/23 144/346/23
f 92/363/2 50/364/2 112/365/2
f 50/364/2 92/363/2 44/366/2
f 48/367/22 99/368/22 101/369/22
f 99/368/22 48/367/22 31/370/22
f 17/19/29 86/152/29 85/149/29
f 86/152/29 17/19/29 14/16/29
f 126/371/23 156/347/23 145/372/23
f 138/231/1 4/230/1 6/373/1
f 53/374/4 77/375/4 51/376/4
f 77/375/4 53/374/4 137/377/4
f 52/378/22 12/379/22 151/380/22
f 12/379/22 52/378/22 13/381/22
f 28/382/4 87/383/4 27/384/4
f 87/383/4 28/382/4 148/385/4
f 19/386/22 87/387/22 89/388/22
f 87/387/22 19/386/22 27/389/22
f 85/390/3 149/391/3 146/392/3
f 149/391/3 85/390/3 86/393/3
f 79/394/30 149/395/30 80/396/30
f 149/395/30 79/394/30 146/397/30
f 143/258/23 129/218/23 117/318/23
f 130/398/2 46/399/2 118/400/2
f 46/399/2 130/398/2 47/401/2
f 20/402/4 116/403/4 18/404/4
f 116/403/4 20/402/4 115/405/4
f 2/406/2 67/407/2 3/408/2
f 67/407/2 2/406/2 68/409/2
f 55/410/3 106/411/3 110/412/3
f 106/411/3 55/410/3 73/413/3
f 55/414/4 111/415/4 54/416/4
f 111/415/4 55/414/4 110/417/4
f 95/418/2 15/419/2 96/420/2
f 15/419/2 95/418/2 38/421/2
f 126/371/27 97/348/27 156/347/27
f 133/422/2 69/423/2 141/424/2
f 69/423/2 133/422/2 70/425/2
f 22/426/3 152/427/3 139/428/3
f 152/427/3 22/426/3 40/429/3
f 67/430/22 119/431/22 3/432/22
f 119/431/22 67/430/22 60/433/22
f 63/434/4 84/435/4 62/436/4
f 84/435/4 63/434/4 82/437/4
f 152/438/2 39/439/2 124/440/2
f 39/439/2 152/438/2 40/441/2
f 72/442/22 111/443/22 107/444/22
f 111/443/22 72/442/22 54/445/22
f 22/446/4 123/447/4 21/448/4
f 123/447/4 22/446/4 139/449/4
f 150/450/2 19/451/2 89/452/2
f 19/451/2 150/450/2 45/453/2
f 63/454/3 133/455/3 82/456/3
f 133/455/3 63/454/3 70/457/3
f 153/319/23 100/172/23 99/171/23
f 10/350/23 155/339/23 12/458/23
f 28/459/3 150/460/3 148/461/3
f 150/460/3 28/459/3 45/462/3
f 65/463/3 90/464/3 131/465/3
f 90/464/3 65/463/3 66/466/3
f 12/458/26 155/339/26 151/341/26
f 83/147/1 133/224/1 141/239/1
f 30/467/3 130/468/3 143/469/3
f 130/468/3 30/467/3 47/470/3
f 147/297/23 120/200/23 135/226/23
f 100/172/1 154/320/1 101/173/1
f 111/184/26 105/177/26 107/179/26
f 145/372/26 156/347/26 98/349/26
f 65/471/4 144/472/4 64/473/4
f 144/472/4 65/471/4 131/474/4
f 30/475/4 117/476/4 29/477/4
f 117/476/4 30/475/4 143/478/4
f 77/298/26 138/231/26 6/373/26
f 127/216/1 125/322/1 128/217/1
f 69/479/22 84/480/22 141/481/22
f 84/480/22 69/479/22 62/482/22
