# Blender v2.92.0 OBJ File: 'OGConvert.blend'
# www.blender.org
o stairsStoneCorner
v 4.000000 8.000000 4.000000
v 0.000000 -0.000000 4.000000
v 4.000000 -0.000000 4.000000
v -0.000000 8.000000 4.000000
v 0.000000 4.000000 0.000000
v -3.400000 0.000000 0.000000
v 0.000000 0.000000 0.000000
v -3.000000 1.000000 0.000000
v -4.000000 0.700000 0.000000
v -4.160000 1.000000 0.000000
v -2.000000 2.000000 0.000000
v -3.000000 1.700000 0.000000
v -3.160000 2.000000 0.000000
v -1.000000 3.000000 0.000000
v -2.000000 2.700000 0.000000
v -2.160000 3.000000 0.000000
v -1.000000 3.700000 0.000000
v -1.160000 4.000000 0.000000
v -1.160000 3.700000 0.000000
v -2.160000 2.700000 0.000000
v -3.160000 1.700000 0.000000
v -4.160000 0.700000 0.000000
v -4.000000 -0.000000 0.000000
v 0.000000 7.000000 1.240000
v 4.000000 7.000000 2.400000
v 4.000000 7.000000 1.240000
v 0.000000 7.000000 2.400000
v -4.160000 1.000000 -4.000000
v -3.000000 1.000000 -4.000000
v 4.000000 4.700000 -0.600000
v 0.000000 4.700000 -0.760000
v 4.000000 4.700000 -0.760000
v 0.000000 4.700000 -0.600000
v 4.000000 6.700000 1.240000
v 0.000000 6.700000 1.240000
v 0.000000 6.000000 0.240000
v 4.000000 5.700000 0.240000
v 0.000000 5.700000 0.240000
v 4.000000 6.000000 0.240000
v 0.000000 5.700000 0.400000
v 4.000000 5.000000 0.400000
v 0.000000 5.000000 0.400000
v 4.000000 5.700000 0.400000
v -2.000000 2.700000 -4.000000
v -2.000000 2.000000 -4.000000
v 4.000000 6.000000 1.400000
v 0.000000 6.000000 1.400000
v -2.160000 3.000000 -4.000000
v -1.000000 3.000000 -4.000000
v -1.160000 4.000000 -4.000000
v -1.160000 3.700000 -4.000000
v 4.000000 4.000000 -0.600000
v 0.000000 4.000000 -0.600000
v 0.000000 8.000000 2.240000
v 4.000000 8.000000 2.240000
v 4.000000 4.000000 -4.000000
v -3.160000 2.000000 -4.000000
v -3.160000 1.700000 -4.000000
v 0.000000 5.000000 -0.760000
v 4.000000 5.000000 -0.760000
v 4.000000 7.700000 2.400000
v 0.000000 7.700000 2.240000
v 4.000000 7.700000 2.240000
v 0.000000 7.700000 2.400000
v 4.000000 6.700000 1.400000
v 0.000000 6.700000 1.400000
v -3.000000 1.700000 -4.000000
v -1.000000 3.700000 -4.000000
v 4.000000 0.000000 -4.000000
v -4.000000 0.700000 -4.000000
v -3.400000 0.000000 -4.000000
v -4.000000 0.000000 -4.000000
v -4.160000 0.700000 -4.000000
v -2.160000 2.700000 -4.000000
vt 0.600864 0.399136
vt 0.793950 0.785307
vt 0.600864 0.785307
vt 0.793950 0.399136
vt 0.004321 0.994759
vt 0.197407 0.830636
vt 0.197407 0.994759
vt 0.149136 0.849945
vt 0.163617 0.801674
vt 0.149136 0.793950
vt 0.637551 0.338954
vt 0.637551 0.338954
vt 0.637551 0.338954
vt 0.685788 0.310316
vt 0.734059 0.262045
vt 0.719578 0.310316
vt 0.734059 0.318040
vt 0.637551 0.338954
vt 0.677145 0.262045
vt 0.677145 0.330311
vt 0.653252 0.285938
vt 0.637551 0.290717
vt 0.685788 0.374954
vt 0.734059 0.326682
vt 0.719578 0.374954
vt 0.734059 0.382677
vt 0.719578 0.382677
vt 0.647790 0.280477
vt 0.719578 0.318040
vt 0.163617 0.793950
vt 0.197407 0.801674
vt 0.895274 0.197407
vt 0.839279 0.004321
vt 0.895274 0.004321
vt 0.839279 0.197407
vt 0.858588 0.600864
vt 0.802593 0.793950
vt 0.802593 0.600864
vt 0.858588 0.793950
vt 0.540731 0.994759
vt 0.548454 0.801674
vt 0.548454 0.994759
vt 0.540731 0.801674
vt 0.975312 0.399136
vt 0.960831 0.592222
vt 0.960831 0.399136
vt 0.975312 0.592222
vt 0.983036 0.004321
vt 0.968554 0.197407
vt 0.968554 0.004321
vt 0.983036 0.197407
vt 0.634654 0.793950
vt 0.600864 0.987036
vt 0.600864 0.793950
vt 0.634654 0.987036
vt 0.346910 0.987036
vt 0.313120 0.793950
vt 0.346910 0.793950
vt 0.313120 0.987036
vt 0.959912 0.197407
vt 0.903917 0.004321
vt 0.959912 0.004321
vt 0.903917 0.197407
vt 0.923225 0.600864
vt 0.867230 0.793950
vt 0.867230 0.600864
vt 0.923225 0.793950
vt 0.413617 0.994759
vt 0.399136 0.801674
vt 0.413617 0.801674
vt 0.399136 0.994759
vt 0.761953 0.793950
vt 0.728163 0.987036
vt 0.728163 0.793950
vt 0.761953 0.987036
vt 0.887551 0.592222
vt 0.802593 0.399136
vt 0.887551 0.399136
vt 0.802593 0.592222
vt 0.637551 0.004321
vt 0.801673 0.253402
vt 0.637551 0.253402
vt 0.801673 0.060316
vt 0.830636 0.060316
vt 0.830636 0.004321
vt 0.459866 0.994759
vt 0.445384 0.801674
vt 0.459866 0.801674
vt 0.445384 0.994759
vt 0.952188 0.592222
vt 0.896193 0.399136
vt 0.952188 0.399136
vt 0.896193 0.592222
vt 0.584498 0.994759
vt 0.592221 0.801674
vt 0.592221 0.994759
vt 0.584498 0.801674
vt 0.677087 0.793950
vt 0.643297 0.987036
vt 0.643297 0.793950
vt 0.677087 0.987036
vt 0.802593 0.995679
vt 0.810316 0.802593
vt 0.810316 0.995679
vt 0.802593 0.802593
vt 0.592222 0.197407
vt 0.621184 0.163617
vt 0.621184 0.197407
vt 0.572913 0.149136
vt 0.628908 0.163617
vt 0.628908 0.149136
vt 0.592222 0.390493
vt 0.399136 0.390493
vt 0.572913 0.115346
vt 0.524642 0.100864
vt 0.476370 0.052593
vt 0.476370 0.018803
vt 0.399136 0.004321
vt 0.484094 0.004321
vt 0.484094 0.018803
vt 0.524642 0.067074
vt 0.532365 0.067074
vt 0.532365 0.052593
vt 0.580636 0.115346
vt 0.580636 0.100864
vt 0.965658 0.793950
vt 0.931868 0.600864
vt 0.965658 0.600864
vt 0.931868 0.793950
vt 0.785077 0.793950
vt 0.770595 0.987036
vt 0.770595 0.793950
vt 0.785077 0.987036
vt 0.719520 0.793950
vt 0.685730 0.987036
vt 0.685730 0.793950
vt 0.719520 0.987036
vt 0.491633 0.994759
vt 0.499356 0.801674
vt 0.499356 0.994759
vt 0.491633 0.801674
vt 0.988782 0.600864
vt 0.974301 0.793950
vt 0.974301 0.600864
vt 0.988782 0.793950
vt 0.389343 0.987036
vt 0.355553 0.793950
vt 0.389343 0.793950
vt 0.355553 0.987036
vt 0.557097 0.994759
vt 0.564821 0.801674
vt 0.564821 0.994759
vt 0.557097 0.801674
vt 0.507999 0.994759
vt 0.515722 0.801674
vt 0.515722 0.994759
vt 0.507999 0.801674
vt 0.245679 0.611530
vt 0.231197 0.555535
vt 0.245679 0.555535
vt 0.231197 0.563259
vt 0.004321 0.785307
vt 0.197407 0.563259
vt 0.197407 0.399136
vt 0.004321 0.399136
vt 0.293950 0.659802
vt 0.279469 0.611530
vt 0.279469 0.603807
vt 0.293950 0.603807
vt 0.342222 0.708073
vt 0.327740 0.659802
vt 0.327740 0.652078
vt 0.342222 0.652078
vt 0.376012 0.708073
vt 0.390493 0.785307
vt 0.376012 0.700350
vt 0.390493 0.700350
vt 0.432926 0.406859
vt 0.399136 0.435822
vt 0.399136 0.406859
vt 0.447407 0.455131
vt 0.592222 0.793031
vt 0.399136 0.793031
vt 0.447407 0.399136
vt 0.432926 0.399136
vt 0.495679 0.503402
vt 0.481197 0.455131
vt 0.495679 0.447407
vt 0.481197 0.447407
vt 0.529469 0.503402
vt 0.543950 0.551674
vt 0.543950 0.495679
vt 0.529469 0.495679
vt 0.577740 0.551674
vt 0.592222 0.543950
vt 0.577740 0.543950
vt 0.304478 0.987036
vt 0.270688 0.793950
vt 0.304478 0.793950
vt 0.270688 0.987036
vt 0.262045 0.793950
vt 0.206050 0.987036
vt 0.206050 0.793950
vt 0.262045 0.987036
vt 0.004321 0.197407
vt 0.033284 0.004321
vt 0.033284 0.197407
vt 0.004321 0.004321
vt 0.436741 0.994759
vt 0.422260 0.801674
vt 0.436741 0.801674
vt 0.422260 0.994759
vt 0.983955 0.592222
vt 0.991679 0.399136
vt 0.991679 0.592222
vt 0.983955 0.399136
vt 0.482990 0.994759
vt 0.468508 0.801674
vt 0.482990 0.801674
vt 0.468508 0.994759
vt 0.524365 0.994759
vt 0.532088 0.801674
vt 0.532088 0.994759
vt 0.524365 0.801674
vt 0.197407 0.390493
vt 0.390493 0.004321
vt 0.390493 0.390493
vt 0.197407 0.197407
vn 0.0000 -0.0000 1.0000
vn 0.0002 -0.0002 1.0000
vn -0.0054 -0.0053 1.0000
vn 0.0045 0.0062 1.0000
vn 0.0000 1.0000 0.0000
vn 0.0000 -1.0000 0.0000
vn 0.0000 0.0000 -1.0000
vn -1.0000 0.0000 0.0000
vn 1.0000 -0.0000 0.0000
s 1
f 1/1/1 2/2/1 3/3/1
f 2/2/1 1/1/1 4/4/1
f 5/5/2 6/6/1 7/7/1
f 6/6/1 5/5/2 8/8/1
f 6/6/1 8/8/1 9/9/1
f 9/9/1 8/8/1 10/10/1
f 8/11/1 5/12/2 11/13/3
f 8/14/1 11/15/3 12/16/1
f 12/16/1 11/15/3 13/17/1
f 11/13/3 5/12/2 14/18/4
f 11/19/3 14/20/4 15/21/1
f 15/21/1 14/20/4 16/22/1
f 14/23/4 5/24/2 17/25/1
f 17/25/1 5/24/2 18/26/1
f 18/26/1 19/27/1 17/25/1
f 16/22/1 20/28/1 15/21/1
f 13/17/1 21/29/1 12/16/1
f 10/10/1 22/30/1 9/9/1
f 9/9/1 23/31/1 6/6/1
f 24/32/5 25/33/5 26/34/5
f 25/33/5 24/32/5 27/35/5
f 28/36/5 8/37/5 29/38/5
f 8/37/5 28/36/5 10/39/5
f 30/40/6 31/41/6 32/42/6
f 31/41/6 30/40/6 33/43/6
f 24/44/7 34/45/7 35/46/7
f 34/45/7 24/44/7 26/47/7
f 36/48/7 37/49/7 38/50/7
f 37/49/7 36/48/7 39/51/7
f 40/52/7 41/53/7 42/54/7
f 41/53/7 40/52/7 43/55/7
f 11/56/8 44/57/8 45/58/8
f 44/57/8 11/56/8 15/59/8
f 36/60/5 46/61/5 39/62/5
f 46/61/5 36/60/5 47/63/5
f 48/64/5 14/65/5 49/66/5
f 14/65/5 48/64/5 16/67/5
f 19/68/8 50/69/8 51/70/8
f 50/69/8 19/68/8 18/71/8
f 33/72/7 52/73/7 53/74/7
f 52/73/7 33/72/7 30/75/7
f 54/76/5 1/77/5 55/78/5
f 1/77/5 54/76/5 4/79/5
f 50/80/5 52/81/5 56/82/5
f 52/81/5 50/80/5 53/83/5
f 53/83/5 50/80/5 5/84/5
f 5/84/5 50/80/5 18/85/5
f 21/86/8 57/87/8 58/88/8
f 57/87/8 21/86/8 13/89/8
f 59/90/5 41/91/5 60/92/5
f 41/91/5 59/90/5 42/93/5
f 61/94/6 62/95/6 63/96/6
f 62/95/6 61/94/6 64/97/6
f 64/98/7 25/99/7 27/100/7
f 25/99/7 64/98/7 61/101/7
f 65/102/6 35/103/6 34/104/6
f 35/103/6 65/102/6 66/105/6
f 5/106/8 33/107/8 53/108/8
f 42/109/8 33/107/8 5/106/8
f 42/109/8 31/110/8 33/107/8
f 31/110/8 42/109/8 59/111/8
f 42/109/8 5/106/8 7/112/8
f 42/109/8 7/112/8 2/113/8
f 42/109/8 2/113/8 40/114/8
f 40/114/8 2/113/8 47/115/8
f 47/115/8 2/113/8 27/116/8
f 27/116/8 2/113/8 64/117/8
f 64/117/8 2/113/8 4/118/8
f 54/119/8 64/117/8 4/118/8
f 64/117/8 54/119/8 62/120/8
f 27/116/8 66/121/8 47/115/8
f 27/116/8 35/122/8 66/121/8
f 35/122/8 27/116/8 24/123/8
f 47/115/8 38/124/8 40/114/8
f 38/124/8 47/115/8 36/125/8
f 8/126/8 67/127/8 29/128/8
f 67/127/8 8/126/8 12/129/8
f 54/130/7 63/131/7 62/132/7
f 63/131/7 54/130/7 55/133/7
f 66/134/7 46/135/7 47/136/7
f 46/135/7 66/134/7 65/137/7
f 19/138/6 68/139/6 17/140/6
f 68/139/6 19/138/6 51/141/6
f 59/142/7 32/143/7 31/144/7
f 32/143/7 59/142/7 60/145/7
f 14/146/8 68/147/8 49/148/8
f 68/147/8 14/146/8 17/149/8
f 43/150/6 38/151/6 37/152/6
f 38/151/6 43/150/6 40/153/6
f 21/154/6 67/155/6 12/156/6
f 67/155/6 21/154/6 58/157/6
f 41/158/9 32/159/9 60/160/9
f 32/159/9 41/158/9 30/161/9
f 3/162/9 30/161/9 41/158/9
f 3/162/9 52/163/9 30/161/9
f 3/162/9 56/164/9 52/163/9
f 56/164/9 3/162/9 69/165/9
f 3/162/9 41/158/9 46/166/9
f 43/167/9 46/166/9 41/158/9
f 37/168/9 46/166/9 43/167/9
f 46/166/9 37/168/9 39/169/9
f 3/162/9 46/166/9 25/170/9
f 65/171/9 25/170/9 46/166/9
f 34/172/9 25/170/9 65/171/9
f 25/170/9 34/172/9 26/173/9
f 3/162/9 25/170/9 61/174/9
f 3/162/9 61/174/9 1/175/9
f 63/176/9 1/175/9 61/174/9
f 1/175/9 63/176/9 55/177/9
f 70/178/7 71/179/7 72/180/7
f 29/181/7 71/179/7 70/178/7
f 56/182/7 71/179/7 29/181/7
f 71/179/7 56/182/7 69/183/7
f 29/181/7 70/178/7 28/184/7
f 28/184/7 70/178/7 73/185/7
f 56/182/7 29/181/7 45/186/7
f 45/186/7 29/181/7 67/187/7
f 45/186/7 67/187/7 57/188/7
f 57/188/7 67/187/7 58/189/7
f 56/182/7 45/186/7 44/190/7
f 56/182/7 44/190/7 49/191/7
f 49/191/7 44/190/7 48/192/7
f 48/192/7 44/190/7 74/193/7
f 56/182/7 49/191/7 68/194/7
f 56/182/7 68/194/7 50/195/7
f 50/195/7 68/194/7 51/196/7
f 23/197/8 70/198/8 72/199/8
f 70/198/8 23/197/8 9/200/8
f 57/201/5 11/202/5 45/203/5
f 11/202/5 57/201/5 13/204/5
f 23/205/6 71/206/6 6/207/6
f 71/206/6 23/205/6 72/208/6
f 22/209/8 28/210/8 73/211/8
f 28/210/8 22/209/8 10/212/8
f 20/213/6 44/214/6 15/215/6
f 44/214/6 20/213/6 74/216/6
f 20/217/8 48/218/8 74/219/8
f 48/218/8 20/217/8 16/220/8
f 22/221/6 70/222/6 9/223/6
f 70/222/6 22/221/6 73/224/6
f 2/225/6 69/226/6 3/227/6
f 69/226/6 2/225/6 7/228/6
f 69/226/6 7/228/6 71/206/6
f 71/206/6 7/228/6 6/207/6
