# Blender v2.92.0 OBJ File: 'OGConvert.blend'
# www.blender.org
o stone_smallF
v -0.565734 0.923648 -0.979881
v 0.707168 0.000000 -1.224851
v -0.707168 0.000000 -1.224851
v 0.613676 0.610558 -1.062918
v 0.209616 0.923648 -0.979881
v 0.679486 0.923648 -0.782857
v -0.353852 1.264084 -0.612890
v 0.403612 0.923648 -0.699076
v -0.403612 0.923648 -0.699076
v 0.251733 1.962752 -0.436014
v 0.057568 1.962752 -0.436014
v 0.743794 0.923648 0.671473
v 1.414336 0.000000 0.000000
v 1.131469 0.923648 0.000000
v 0.707168 -0.000000 1.224851
v 0.679486 0.180778 1.176905
v -0.807223 0.923648 0.000000
v -0.251733 1.962752 0.436014
v -0.503465 1.962752 0.000000
v -0.403612 0.923648 0.699076
v 0.807223 0.923648 0.000000
v 0.503465 1.962752 0.000000
v 0.251733 1.962752 0.436014
v 0.403612 0.923648 0.699076
v -0.340871 1.962752 -0.281622
v -0.707168 -0.000000 1.224851
v -1.414336 0.000000 0.000000
v 0.209616 0.923648 0.979881
v -0.565734 0.923648 0.979881
v -0.995692 0.923648 -0.235172
v -1.290432 0.404585 0.000000
v -0.937150 0.923648 0.336569
vt 0.210094 0.565057
vt 0.002478 0.756214
vt 0.048338 0.509438
vt 0.115466 0.760355
vt 0.184953 0.700342
vt 0.180783 0.784298
vt 0.291163 0.755961
vt 0.215050 0.882980
vt 0.230334 0.740541
vt 0.406469 0.876448
vt 0.410145 0.842187
vt 0.623778 0.564573
vt 0.482917 0.377437
vt 0.646109 0.429185
vt 0.442183 0.624402
vt 0.475717 0.624863
vt 0.856068 0.854515
vt 0.666173 0.971280
vt 0.666173 0.882087
vt 0.856068 0.997522
vt 0.247091 0.958166
vt 0.426453 0.923342
vt 0.406973 0.654040
vt 0.238299 0.509438
vt 0.421473 0.566127
vt 0.215050 0.650392
vt 0.760974 0.794727
vt 0.818565 0.776017
vt 0.651065 0.850464
vt 0.437226 0.127979
vt 0.002478 0.127979
vt 0.219852 0.002478
vt 0.437226 0.378981
vt 0.002478 0.378981
vt 0.219852 0.504482
vt 0.238299 0.735584
vt 0.421473 0.707174
vt 0.442183 0.807480
vt 0.519562 0.941505
vt 0.442183 0.896830
vt 0.472024 0.790251
vt 0.596941 0.896830
vt 0.546962 0.778625
vt 0.596941 0.807480
vt 0.623778 0.664340
vt 0.048338 0.891868
vt 0.210094 0.871001
vt 0.482917 0.773668
vt 0.646109 0.746169
vt 0.651065 0.624484
vt 0.855805 0.744844
vt 0.692892 0.771060
vt 0.830374 0.655726
vt 0.726090 0.625842
vt 0.426453 0.772756
vt 0.833837 0.559699
vt 0.442183 0.143254
vt 0.492017 0.274909
vt 0.442183 0.303680
vt 0.492017 0.131651
vt 0.496916 0.071279
vt 0.616082 0.060022
vt 0.616082 0.002478
vt 0.740147 0.131651
vt 0.748245 0.078783
vt 0.789981 0.171850
vt 0.561349 0.372481
vt 0.616082 0.346537
vt 0.670815 0.372481
vt 0.740147 0.274908
vt 0.789981 0.303680
vt 0.692892 0.377437
vt 0.855805 0.429946
vn 0.0000 0.2564 -0.9666
vn 0.3103 0.5967 -0.7400
vn 0.0000 0.2454 -0.9694
vn 0.8371 0.2564 0.4833
vn -0.8395 0.2454 0.4847
vn 0.8395 0.2454 -0.4847
vn 0.8395 0.2454 0.4847
vn -0.8395 0.2454 -0.4847
vn 0.0000 -1.0000 -0.0000
vn 0.0000 0.2454 0.9694
vn 0.0000 1.0000 0.0000
vn 0.4389 0.4792 0.7601
vn 0.8371 0.2564 -0.4833
vn 0.0000 0.2564 0.9666
vn -0.8371 0.2564 -0.4833
vn -0.3296 0.4095 -0.8507
vn -0.8489 0.5214 0.0869
vn -0.8371 0.2564 0.4833
s 1
f 1/1/1 2/2/1 3/3/1
f 2/2/1 1/1/1 4/4/1
f 4/4/1 1/1/1 5/5/1
f 6/6/2 4/4/2 5/5/2
f 7/7/3 8/8/3 9/9/3
f 8/8/3 7/7/3 10/10/3
f 10/10/3 7/7/3 11/11/3
f 12/12/4 13/13/4 14/14/4
f 13/13/4 12/12/4 15/15/4
f 15/15/4 12/12/4 16/16/4
f 17/17/5 18/18/5 19/19/5
f 18/18/5 17/17/5 20/20/5
f 10/10/6 21/21/6 8/8/6
f 21/21/6 10/10/6 22/22/6
f 23/23/7 21/24/7 22/25/7
f 21/24/7 23/23/7 24/26/7
f 17/17/8 7/27/8 9/28/8
f 7/27/8 17/17/8 25/29/8
f 25/29/8 17/17/8 19/19/8
f 15/30/9 2/31/9 13/32/9
f 2/31/9 15/30/9 26/33/9
f 2/31/9 26/33/9 3/34/9
f 3/34/9 26/33/9 27/35/9
f 23/23/10 20/36/10 24/26/10
f 20/36/10 23/23/10 18/37/10
f 10/38/11 23/39/11 22/40/11
f 23/39/11 10/38/11 11/41/11
f 23/39/11 11/41/11 18/42/11
f 18/42/11 11/41/11 25/43/11
f 18/42/11 25/43/11 19/44/11
f 28/45/12 16/16/12 12/12/12
f 4/4/13 13/46/13 2/2/13
f 13/46/13 4/4/13 6/6/13
f 13/46/13 6/6/13 14/47/13
f 16/16/14 26/48/14 15/15/14
f 26/48/14 16/16/14 29/49/14
f 29/49/14 16/16/14 28/45/14
f 27/50/15 1/51/15 3/52/15
f 1/51/15 27/50/15 30/53/15
f 30/53/15 27/50/15 31/54/15
f 11/11/16 7/7/16 25/55/16
f 32/56/17 30/53/17 31/54/17
f 6/57/11 21/58/11 14/59/11
f 21/58/11 6/57/11 8/60/11
f 8/60/11 6/57/11 5/61/11
f 8/60/11 5/61/11 9/62/11
f 9/62/11 5/61/11 1/63/11
f 9/62/11 1/63/11 17/64/11
f 17/64/11 1/63/11 30/65/11
f 17/64/11 30/65/11 32/66/11
f 21/58/11 12/67/11 14/59/11
f 12/67/11 21/58/11 24/68/11
f 12/67/11 24/68/11 28/69/11
f 28/69/11 24/68/11 20/70/11
f 28/69/11 20/70/11 29/71/11
f 29/71/11 20/70/11 17/64/11
f 29/71/11 17/64/11 32/66/11
f 26/72/18 31/54/18 27/50/18
f 31/54/18 26/72/18 32/56/18
f 32/56/18 26/72/18 29/73/18
