# Blender v2.92.0 OBJ File: 'OGConvert.blend'
# www.blender.org
o stone_tallE
v 0.000000 3.059584 1.327455
v -1.824778 -0.000000 1.053536
v 0.000000 -0.000000 2.107072
v -1.149610 3.059584 0.663728
v -0.378254 3.059584 1.109071
v -1.149610 3.059584 -0.663728
v 0.000000 0.000000 -2.107072
v -1.824778 0.000000 -1.053536
v 0.000000 3.059584 -1.327455
v 1.824778 0.000000 -1.053536
v 1.149610 3.059584 -0.663728
v 0.716017 3.059584 -0.914062
v 1.149610 3.059584 0.000000
v 0.574805 3.059584 0.995591
v 0.912389 -0.000000 1.580304
v -0.935063 3.550272 -0.536184
v -0.935063 3.550272 0.485956
v 1.824778 0.000000 0.000000
v -0.049863 3.550272 -1.047255
v 0.501470 3.550272 -0.728942
v -0.341118 3.550272 0.828870
vt 0.091864 0.472370
vt 0.123394 0.872265
vt 0.002125 0.807252
vt 0.168263 0.513328
vt 0.370181 0.430815
vt 0.370181 0.583614
vt 0.370181 0.533339
vt 0.796840 0.383159
vt 0.660491 0.002125
vt 0.796840 0.041348
vt 0.710940 0.358449
vt 0.426462 0.065800
vt 0.563502 0.398564
vt 0.809164 0.501523
vt 0.951645 0.446328
vt 0.862903 0.480705
vt 0.797444 0.577018
vt 0.845244 0.700410
vt 0.951645 0.730146
vt 0.904765 0.748307
vt 0.434825 0.589690
vt 0.779919 0.446328
vt 0.793194 0.550916
vt 0.426462 0.523799
vt 0.306380 0.451976
vt 0.321061 0.513328
vt 0.188726 0.451976
vt 0.426462 0.788447
vt 0.793194 0.760954
vt 0.779919 0.866403
vt 0.434825 0.722014
vt 0.716898 0.422839
vt 0.619110 0.383434
vt 0.646189 0.442077
vt 0.783041 0.441866
vt 0.862726 0.208024
vt 0.935977 0.002125
vt 0.935977 0.205988
vt 0.801091 0.107805
vt 0.857065 0.004318
vt 0.940228 0.236365
vt 0.997875 0.002125
vt 0.997875 0.266830
vt 0.940228 0.032543
vt 0.149254 0.430815
vt 0.117001 0.485846
vt 0.365931 0.872265
vt 0.317190 0.002125
vt 0.002125 0.062759
vt 0.107147 0.002125
vt 0.002125 0.305297
vt 0.422212 0.062759
vt 0.422212 0.305296
vt 0.212168 0.426565
vn -0.4883 0.2155 0.8457
vn -0.4882 0.2154 0.8457
vn -0.4882 0.2155 0.8457
vn -0.4883 0.2155 -0.8457
vn 0.4883 0.2155 -0.8457
vn 0.0000 1.0000 0.0000
vn 0.4883 0.2155 0.8457
vn -0.9162 0.4006 0.0000
vn 0.9765 0.2155 0.0000
vn 0.4390 0.4788 -0.7603
vn -0.4570 0.4056 -0.7916
vn 0.8616 0.2009 0.4660
vn 0.8506 0.1877 0.4911
vn -0.4414 0.4699 0.7644
vn -0.9765 0.2155 0.0000
vn 0.0000 -1.0000 -0.0000
s 1
f 1/1/1 2/2/1 3/3/1
f 2/2/1 1/1/1 4/4/2
f 4/5/2 1/6/1 5/7/3
f 6/8/4 7/9/4 8/10/4
f 7/9/4 6/8/4 9/11/4
f 9/11/5 10/12/5 7/9/5
f 10/12/5 9/11/5 11/13/5
f 11/14/5 9/15/5 12/16/5
f 12/16/6 13/17/6 11/14/6
f 13/17/6 12/16/6 14/18/6
f 14/18/6 12/16/6 5/19/6
f 14/18/6 5/19/6 1/20/6
f 14/21/7 3/22/7 15/23/7
f 3/22/7 14/21/7 1/24/7
f 4/4/8 16/25/8 6/26/8
f 16/25/8 4/4/8 17/27/8
f 11/28/9 18/29/9 10/30/9
f 18/29/9 11/28/9 13/31/9
f 19/32/10 12/33/10 9/11/10
f 12/33/10 19/32/10 20/34/10
f 16/35/11 9/11/11 6/8/11
f 9/11/11 16/35/11 19/32/11
f 19/36/6 21/37/6 20/38/6
f 21/37/6 19/36/6 16/39/6
f 21/37/6 16/39/6 17/40/6
f 20/41/12 5/42/12 12/43/12
f 5/42/12 20/41/12 21/44/12
f 14/21/13 18/29/13 13/31/13
f 18/29/13 14/21/13 15/23/13
f 21/45/14 4/4/14 5/46/14
f 4/4/14 21/45/14 17/27/14
f 2/2/15 6/26/15 8/47/15
f 6/26/15 2/2/15 4/4/15
f 15/48/16 10/49/16 18/50/16
f 10/49/16 15/48/16 7/51/16
f 7/51/16 15/48/16 3/52/16
f 7/51/16 3/52/16 2/53/16
f 7/51/16 2/53/16 8/54/16
