# Blender v2.92.0 OBJ File: 'OGConvert.blend'
# www.blender.org
o stone_smallTopA
v 1.804617 0.520000 -0.195979
v 0.821008 -0.000000 1.956586
v 1.950937 0.000000 -0.211870
v 1.339302 1.040000 0.432096
v 0.697857 1.040000 1.663098
v 0.033524 1.760000 0.776229
v -1.061717 1.040000 0.798639
v 0.126573 1.040000 0.997978
v -0.881459 1.760000 0.622737
v 0.233085 1.760000 -0.279925
v -0.170369 1.295147 -0.851699
v -0.602997 1.760000 -0.501713
v 0.683358 1.040000 -0.070552
v -0.160819 1.040000 -0.930282
v 0.462249 1.760000 -0.046540
v -1.620194 1.040000 -0.480808
v -1.426931 1.040000 -0.851699
v -1.804617 0.520000 -0.801442
v -1.590483 -0.000000 1.552049
v -1.426931 0.712966 1.392449
v 0.079523 1.040000 1.559370
v -1.393316 1.040000 1.041427
v -1.950937 0.000000 -0.866424
v -1.018225 1.760000 -0.294895
v -1.239335 1.040000 -0.393092
v 0.237781 0.000000 -1.956586
v 0.202114 1.040000 -1.663098
v 1.339302 1.040000 -0.504961
vt 0.578417 0.717088
vt 0.641706 0.409444
vt 0.647853 0.726334
vt 0.507246 0.618380
vt 0.503756 0.438486
vt 0.809403 0.549094
vt 0.906101 0.409444
vt 0.906101 0.565593
vt 0.809403 0.428859
vt 0.666325 0.792122
vt 0.728324 0.881645
vt 0.653385 0.888565
vt 0.762353 0.731865
vt 0.762353 0.888046
vt 0.666325 0.749725
vt 0.011008 0.576890
vt 0.002766 0.533033
vt 0.080648 0.532259
vt 0.665293 0.704571
vt 0.803872 0.409444
vt 0.803872 0.726330
vt 0.708870 0.427114
vt 0.665293 0.623318
vt 0.653385 0.423315
vt 0.150289 0.838082
vt 0.150289 0.521132
vt 0.011008 0.776385
vt 0.054805 0.820746
vt 0.966817 0.751845
vt 0.870415 0.888046
vt 0.870415 0.731865
vt 0.904577 0.882397
vt 0.966817 0.811975
vt 0.490501 0.100708
vt 0.002766 0.259183
vt 0.189064 0.002766
vt 0.490501 0.417658
vt 0.189064 0.515601
vt 0.225092 0.534354
vt 0.155820 0.838082
vt 0.155820 0.521132
vt 0.294364 0.816983
vt 0.294364 0.581080
vt 0.496033 0.726334
vt 0.864883 0.888046
vt 0.767885 0.748680
vt 0.864883 0.731865
vt 0.767885 0.868939
vt 0.496033 0.174759
vt 0.703334 0.403913
vt 0.588750 0.363618
vt 0.670077 0.302088
vt 0.881446 0.378411
vt 0.601249 0.161892
vt 0.665303 0.010449
vt 0.713315 0.053109
vt 0.895351 0.095967
vt 0.718967 0.002766
vt 0.895351 0.298340
vt 0.824681 0.279953
vt 0.851403 0.126075
vt 0.646168 0.768334
vt 0.507212 0.758235
vt 0.624544 0.731865
vt 0.646168 0.880456
vt 0.496033 0.877973
vt 0.606456 0.925606
vt 0.900883 0.142942
vt 0.997234 0.002766
vt 0.997234 0.158946
vt 0.900883 0.022683
vt 0.299895 0.814177
vt 0.437983 0.521132
vt 0.437983 0.838082
vt 0.299895 0.603787
vt 0.368939 0.532951
vn 0.8632 0.2292 0.4498
vn -0.1592 0.2717 0.9491
vn 0.1844 0.6949 -0.6951
vn 0.6934 0.2357 -0.6809
vn -0.7606 0.5142 -0.3963
vn -0.1602 0.2505 0.9548
vn -0.2292 0.7230 0.6517
vn -0.9573 0.2515 0.1427
vn -0.4316 0.2507 -0.8665
vn -0.0000 -1.0000 -0.0000
vn -0.4338 0.2309 -0.8709
vn 0.7452 0.6668 0.0000
vn -0.9515 0.2729 0.1418
vn -0.0000 1.0000 -0.0000
vn 0.8589 0.2488 0.4476
vn 0.6965 0.2169 -0.6839
s 1
f 1/1/1 2/2/1 3/3/1
f 2/2/1 1/1/1 4/4/1
f 2/2/1 4/4/1 5/5/1
f 6/6/2 7/7/2 8/8/2
f 7/7/2 6/6/2 9/9/2
f 10/10/3 11/11/3 12/12/3
f 11/11/4 13/13/4 14/14/4
f 13/13/4 11/11/4 10/10/4
f 13/13/4 10/10/4 15/15/4
f 16/16/5 17/17/5 18/18/5
f 5/19/6 19/20/6 2/21/6
f 19/20/6 5/19/6 20/22/6
f 20/22/6 5/19/6 21/23/6
f 20/22/7 21/23/7 22/24/7
f 19/25/8 18/18/8 23/26/8
f 18/18/8 19/25/8 16/16/8
f 16/16/8 19/25/8 22/27/8
f 22/27/8 19/25/8 20/28/8
f 24/29/9 14/30/9 25/31/9
f 14/30/9 24/29/9 11/32/9
f 11/32/9 24/29/9 12/33/9
f 2/34/10 26/35/10 3/36/10
f 26/35/10 2/34/10 19/37/10
f 26/35/10 19/37/10 23/38/10
f 18/39/11 26/40/11 23/41/11
f 26/40/11 18/39/11 27/42/11
f 27/42/11 18/39/11 17/43/11
f 4/4/12 1/1/12 28/44/12
f 7/45/13 24/46/13 25/47/13
f 24/46/13 7/45/13 9/48/13
f 27/49/14 4/50/14 28/51/14
f 4/50/14 27/49/14 13/52/14
f 4/50/14 13/52/14 5/53/14
f 13/52/14 27/49/14 14/54/14
f 14/54/14 27/49/14 17/55/14
f 14/54/14 17/55/14 25/56/14
f 25/56/14 17/55/14 22/57/14
f 22/57/14 17/55/14 16/58/14
f 13/52/14 21/59/14 5/53/14
f 21/59/14 13/52/14 8/60/14
f 21/59/14 8/60/14 7/61/14
f 21/59/14 7/61/14 22/57/14
f 22/57/14 7/61/14 25/56/14
f 10/62/14 6/63/14 15/64/14
f 6/63/14 10/62/14 12/65/14
f 6/63/14 12/65/14 9/66/14
f 9/66/14 12/65/14 24/67/14
f 15/68/15 8/69/15 13/70/15
f 8/69/15 15/68/15 6/71/15
f 27/72/16 3/73/16 26/74/16
f 3/73/16 27/72/16 28/75/16
f 3/73/16 28/75/16 1/76/16
