# Blender v2.92.0 OBJ File: 'OGConvert.blend'
# www.blender.org
o structure
v -3.200001 8.000000 -4.000000
v 3.200000 8.000000 -3.200000
v 3.200000 8.000000 -4.000000
v -3.200001 8.000000 -3.200000
v -4.000000 8.000000 -3.200000
v -3.200001 8.000000 3.200000
v -3.200001 8.000000 4.000000
v -4.000000 8.000000 3.200000
v 3.200000 8.000000 4.000000
v 4.000000 8.000000 3.200000
v 4.000000 8.000000 -3.200000
v 3.200000 8.000000 3.200000
v 3.200000 3.200000 -4.000000
v 4.000000 3.200000 -3.200000
v -2.799999 3.200000 -4.000000
v -3.200001 3.200000 -4.000000
v -2.799999 7.200000 -4.000000
v 2.800000 7.200000 -4.000000
v 2.800000 3.200000 -4.000000
v -4.000000 3.200000 -3.200000
v -4.000000 3.200000 -2.800000
v -4.000000 7.200000 -2.800000
v -4.000000 7.200000 2.800000
v -4.000000 3.200000 3.200000
v -4.000000 3.200000 2.800000
v -3.200001 3.200000 4.000000
v 2.800000 3.200000 4.000000
v 3.200000 3.200000 4.000000
v 2.800000 7.200000 4.000000
v -2.799999 7.200000 4.000000
v -2.799999 3.200000 4.000000
v 4.000000 3.200000 3.200000
v 4.000000 7.200000 -2.800000
v 4.000000 7.200000 2.800000
v 4.000000 3.200000 2.800000
v 4.000000 3.200000 -2.800000
v 3.200000 3.200000 -3.200000
v 2.800000 7.200000 -3.200000
v 2.800000 3.200000 -3.200000
v -2.799999 7.200000 -3.200000
v -3.200001 3.200000 -3.200000
v -2.799999 3.200000 -3.200000
v -3.200001 7.200000 -2.800000
v -3.200001 7.200000 2.800000
v -3.200001 3.200000 2.800000
v -3.200001 3.200000 3.200000
v -3.200001 3.200000 -2.800000
v -2.799999 7.200000 3.200000
v -2.799999 3.200000 3.200000
v 2.800000 7.200000 3.200000
v 3.200000 3.200000 3.200000
v 2.800000 3.200000 3.200000
v 3.200000 7.200000 2.800000
v 3.200000 3.200000 2.800000
v 3.200000 7.200000 -2.800000
v 3.200000 3.200000 -2.800000
v -3.200001 -0.000000 4.000000
v -2.799999 -0.000000 3.200000
v -2.799999 -0.000000 4.000000
v -3.200001 -0.000000 3.200000
v -4.000000 -0.000000 3.200000
v -3.200001 -0.000000 2.800000
v -4.000000 -0.000000 2.800000
v -4.000000 0.000000 -2.800000
v -3.200001 0.000000 -3.200000
v -3.200001 0.000000 -2.800000
v -3.200001 0.000000 -4.000000
v -4.000000 0.000000 -3.200000
v -2.799999 0.000000 -4.000000
v -2.799999 0.000000 -3.200000
v 2.800000 -0.000000 4.000000
v 3.200000 -0.000000 3.200000
v 3.200000 -0.000000 4.000000
v 2.800000 -0.000000 3.200000
v 4.000000 -0.000000 2.800000
v 4.000000 -0.000000 3.200000
v 3.200000 -0.000000 2.800000
v 3.200000 0.000000 -2.800000
v 4.000000 0.000000 -3.200000
v 4.000000 0.000000 -2.800000
v 3.200000 0.000000 -4.000000
v 3.200000 0.000000 -3.200000
v 2.800000 0.000000 -3.200000
v 2.800000 0.000000 -4.000000
vt 0.003838 0.350011
vt 0.034610 0.596191
vt 0.003838 0.596191
vt 0.034610 0.350011
vt 0.034610 0.319238
vt 0.280790 0.350011
vt 0.311563 0.350011
vt 0.280790 0.319238
vt 0.311563 0.596191
vt 0.280790 0.626963
vt 0.034610 0.626963
vt 0.280790 0.596191
vt 0.880819 0.003838
vt 0.850047 0.188473
vt 0.850047 0.003838
vt 0.880819 0.188473
vt 0.603866 0.003838
vt 0.619253 0.188473
vt 0.603866 0.188473
vt 0.619253 0.034610
vt 0.834660 0.034610
vt 0.834660 0.188473
vt 0.188473 0.003838
vt 0.003838 0.034610
vt 0.003838 0.003838
vt 0.188473 0.034610
vt 0.188473 0.049996
vt 0.034610 0.049996
vt 0.003838 0.280790
vt 0.034610 0.265404
vt 0.188473 0.280790
vt 0.188473 0.265404
vt 0.188473 0.311563
vt 0.003838 0.311563
vt 0.350011 0.003838
vt 0.365397 0.188473
vt 0.350011 0.188473
vt 0.365397 0.034610
vt 0.580805 0.034610
vt 0.596191 0.003838
vt 0.596191 0.188473
vt 0.580805 0.188473
vt 0.319238 0.003838
vt 0.319238 0.188473
vt 0.250018 0.942364
vt 0.234632 0.911592
vt 0.250018 0.757729
vt 0.003838 0.942364
vt 0.019224 0.911592
vt 0.003838 0.757729
vt 0.019224 0.757729
vt 0.234632 0.757729
vt 0.603866 0.503873
vt 0.619253 0.350011
vt 0.619253 0.503873
vt 0.603866 0.319238
vt 0.850047 0.319238
vt 0.834660 0.350011
vt 0.850047 0.503873
vt 0.834660 0.503873
vt 0.596191 0.942364
vt 0.580805 0.911592
vt 0.596191 0.757729
vt 0.350011 0.942364
vt 0.365397 0.911592
vt 0.365397 0.757729
vt 0.350011 0.757729
vt 0.580805 0.757729
vt 0.350011 0.503873
vt 0.365397 0.350011
vt 0.365397 0.503873
vt 0.350011 0.319238
vt 0.596191 0.319238
vt 0.580805 0.350011
vt 0.596191 0.503873
vt 0.580805 0.503873
vt 0.603866 0.819274
vt 0.619253 0.665411
vt 0.619253 0.819274
vt 0.603866 0.634639
vt 0.834660 0.665411
vt 0.850047 0.634639
vt 0.834660 0.819274
vt 0.850047 0.819274
vt 0.965390 0.757729
vt 0.934618 0.542321
vt 0.965390 0.542321
vt 0.934618 0.757729
vt 0.934618 0.765404
vt 0.965390 0.980812
vt 0.934618 0.980812
vt 0.965390 0.765404
vt 0.965390 0.534646
vt 0.934618 0.319238
vt 0.965390 0.319238
vt 0.934618 0.534646
vt 0.965390 0.003838
vt 0.996162 0.219245
vt 0.965390 0.219245
vt 0.996162 0.003838
vt 0.257693 0.634639
vt 0.288466 0.788501
vt 0.257693 0.788501
vt 0.288466 0.634639
vt 0.896170 0.473101
vt 0.926942 0.319238
vt 0.926942 0.473101
vt 0.896170 0.319238
vt 0.857722 0.757729
vt 0.888494 0.603866
vt 0.888494 0.757729
vt 0.857722 0.603866
vt 0.857722 0.319238
vt 0.888494 0.473101
vt 0.857722 0.473101
vt 0.888494 0.319238
vt 0.296141 0.788501
vt 0.326913 0.634639
vt 0.326913 0.788501
vt 0.296141 0.634639
vt 0.896170 0.880819
vt 0.926942 0.726956
vt 0.926942 0.880819
vt 0.896170 0.726956
vt 0.926942 0.157700
vt 0.957715 0.003838
vt 0.957715 0.157700
vt 0.926942 0.003838
vt 0.888494 0.280790
vt 0.919267 0.126928
vt 0.919267 0.280790
vt 0.888494 0.126928
vt 0.857722 0.919267
vt 0.888494 0.934653
vt 0.857722 0.934653
vt 0.888494 0.919267
vt 0.888494 0.888494
vt 0.903881 0.919267
vt 0.903881 0.888494
vt 0.311563 0.280790
vt 0.311563 0.265404
vt 0.365397 0.634639
vt 0.350011 0.634639
vt 0.350011 0.626964
vt 0.365397 0.626964
vt 0.919267 0.003838
vt 0.888494 0.003838
vt 0.596191 0.311563
vt 0.580805 0.311563
vt 0.311563 0.311563
vt 0.303852 0.965426
vt 0.288466 0.934653
vt 0.303852 0.934653
vt 0.257693 0.934653
vt 0.288466 0.965426
vt 0.257693 0.919267
vt 0.288466 0.919267
vt 0.603866 0.311563
vt 0.619253 0.311563
vt 0.850047 0.626963
vt 0.834660 0.626964
vt 0.596191 0.634639
vt 0.580805 0.634639
vt 0.311563 0.049996
vt 0.311563 0.034610
vt 0.311563 0.003838
vt 0.903881 0.988487
vt 0.873108 0.973101
vt 0.903881 0.973101
vt 0.873108 0.988487
vt 0.857722 0.942328
vt 0.873108 0.942328
vt 0.857722 0.973101
vt 0.350011 0.311563
vt 0.365397 0.311563
vt 0.596191 0.626963
vt 0.580805 0.626964
vt 0.603866 0.942364
vt 0.619253 0.942364
vt 0.019224 0.634639
vt 0.003838 0.634639
vt 0.319238 0.311563
vt 0.311527 0.965426
vt 0.342300 0.950039
vt 0.342300 0.965426
vt 0.311527 0.919267
vt 0.319274 0.319238
vt 0.319274 0.319238
vt 0.319274 0.319238
vt 0.342335 0.319238
vt 0.342335 0.350011
vt 0.326949 0.350011
vt 0.326949 0.319238
vt 0.250018 0.634639
vt 0.234632 0.634639
vt 0.834660 0.942364
vt 0.850047 0.942364
vt 0.603866 0.626964
vt 0.619253 0.626964
vt 0.850047 0.311563
vt 0.834660 0.311563
vt 0.880819 0.311563
vt 0.896170 0.596191
vt 0.926942 0.596191
vt 0.888494 0.596191
vt 0.857722 0.596191
vt 0.296141 0.911591
vt 0.326913 0.911591
vt 0.926942 0.280790
vt 0.957715 0.280790
vt 0.288466 0.911591
vt 0.257693 0.911591
vt 0.926942 0.603866
vt 0.896170 0.603866
vt 0.857722 0.880819
vt 0.888494 0.880819
vn 0.0000 1.0000 0.0000
vn 0.0000 -1.0000 0.0000
vn 0.7071 0.0000 -0.7071
vn -0.0000 0.0000 -1.0000
vn -0.7071 0.0000 -0.7071
vn -1.0000 0.0000 0.0000
vn -0.7071 -0.0000 0.7071
vn 0.0000 -0.0000 1.0000
vn 0.7071 -0.0000 0.7071
vn 1.0000 0.0000 0.0000
s 1
f 1/1/1 2/2/2 3/3/1
f 2/2/2 1/1/1 4/4/1
f 4/4/1 1/1/1 5/5/1
f 4/4/1 5/5/1 6/6/1
f 6/6/1 5/5/1 7/7/1
f 7/7/1 5/5/1 8/8/1
f 9/9/1 3/3/1 2/2/2
f 9/9/1 6/6/1 7/7/1
f 10/10/1 3/3/1 9/9/1
f 3/3/1 10/10/1 11/11/1
f 9/9/1 2/2/2 12/12/1
f 9/9/1 12/12/1 6/6/1
f 11/13/3 13/14/3 3/15/3
f 13/14/3 11/13/3 14/16/3
f 1/17/4 15/18/4 16/19/4
f 15/18/4 1/17/4 17/20/4
f 17/20/4 1/17/4 18/21/4
f 3/15/4 18/21/4 1/17/4
f 13/14/4 18/21/4 3/15/4
f 18/21/4 13/14/4 19/22/4
f 16/23/5 5/24/5 1/25/5
f 5/24/5 16/23/5 20/26/5
f 21/27/6 22/28/6 20/26/6
f 22/28/6 5/24/6 20/26/6
f 5/24/6 22/28/6 8/29/6
f 8/29/6 22/28/6 23/30/6
f 8/29/6 23/30/6 24/31/6
f 24/31/6 23/30/6 25/32/6
f 26/33/7 8/29/7 24/31/7
f 8/29/7 26/33/7 7/34/7
f 9/35/8 27/36/8 28/37/8
f 27/36/8 9/35/8 29/38/8
f 29/38/8 9/35/8 30/39/8
f 7/40/8 30/39/8 9/35/8
f 26/41/8 30/39/8 7/40/8
f 30/39/8 26/41/8 31/42/8
f 10/43/9 28/37/9 32/44/9
f 28/37/9 10/43/9 9/35/9
f 11/45/10 33/46/10 14/47/10
f 33/46/10 11/45/10 10/48/10
f 33/46/10 10/48/10 34/49/10
f 34/49/10 10/48/10 32/50/10
f 32/50/10 35/51/10 34/49/10
f 36/52/10 14/47/10 33/46/10
f 37/53/8 38/54/8 39/55/8
f 38/54/8 37/53/8 2/56/8
f 4/57/8 38/54/8 2/56/8
f 4/57/8 40/58/8 38/54/8
f 41/59/8 40/58/8 4/57/8
f 40/58/8 41/59/8 42/60/8
f 4/61/10 43/62/10 41/63/10
f 43/62/10 4/61/10 6/64/10
f 43/62/10 6/64/10 44/65/10
f 44/65/10 6/64/10 45/66/10
f 45/66/10 6/64/10 46/67/10
f 47/68/10 41/63/10 43/62/10
f 46/69/4 48/70/4 49/71/4
f 48/70/4 46/69/4 6/72/4
f 12/73/4 48/70/4 6/72/4
f 12/73/4 50/74/4 48/70/4
f 51/75/4 50/74/4 12/73/4
f 50/74/4 51/75/4 52/76/4
f 51/77/6 53/78/6 54/79/6
f 12/80/6 53/78/6 51/77/6
f 12/80/6 55/81/6 53/78/6
f 2/82/6 55/81/6 12/80/6
f 2/82/6 56/83/6 55/81/6
f 56/83/6 2/82/6 37/84/6
f 44/85/2 22/86/2 43/87/2
f 22/86/2 44/85/2 23/88/2
f 30/89/2 50/90/2 29/91/2
f 50/90/2 30/89/2 48/92/2
f 34/93/2 55/94/2 33/95/2
f 55/94/2 34/93/2 53/96/2
f 40/97/2 18/98/2 38/99/2
f 18/98/2 40/97/2 17/100/2
f 23/101/4 45/102/4 25/103/4
f 45/102/4 23/101/4 44/104/4
f 27/105/6 50/106/6 52/107/6
f 50/106/6 27/105/6 29/108/6
f 54/109/4 34/110/4 35/111/4
f 34/110/4 54/109/4 53/112/4
f 33/113/8 56/114/8 36/115/8
f 56/114/8 33/113/8 55/116/8
f 39/117/6 18/118/6 19/119/6
f 18/118/6 39/117/6 38/120/6
f 40/121/10 15/122/10 17/123/10
f 15/122/10 40/121/10 42/124/10
f 47/125/8 22/126/8 21/127/8
f 22/126/8 47/125/8 43/128/8
f 30/129/10 49/130/10 48/131/10
f 49/130/10 30/129/10 31/132/10
f 57/133/2 58/134/2 59/135/2
f 58/134/2 57/133/2 60/136/2
f 60/136/2 57/133/2 61/137/2
f 60/136/2 61/137/2 62/138/2
f 62/138/2 61/137/2 63/139/2
f 61/140/6 25/32/6 63/141/6
f 25/32/6 61/140/6 24/31/6
f 46/67/10 62/142/10 45/66/10
f 62/142/10 46/67/10 60/143/10
f 60/144/4 49/71/4 58/145/4
f 49/71/4 60/144/4 46/69/4
f 31/132/10 58/146/10 49/130/10
f 58/146/10 31/132/10 59/147/10
f 31/42/8 57/148/8 59/149/8
f 57/148/8 31/42/8 26/41/8
f 57/150/7 24/31/7 61/140/7
f 24/31/7 57/150/7 26/33/7
f 64/151/2 65/152/2 66/153/2
f 65/152/2 64/151/2 67/154/2
f 67/154/2 64/151/2 68/155/2
f 69/156/2 65/152/2 67/154/2
f 65/152/2 69/156/2 70/157/2
f 67/158/4 15/18/4 69/159/4
f 15/18/4 67/158/4 16/19/4
f 42/60/8 65/160/8 70/161/8
f 65/160/8 42/60/8 41/59/8
f 47/68/10 65/162/10 41/63/10
f 65/162/10 47/68/10 66/163/10
f 64/164/6 20/26/6 68/165/6
f 20/26/6 64/164/6 21/27/6
f 68/165/5 16/23/5 67/166/5
f 16/23/5 68/165/5 20/26/5
f 71/167/2 72/168/2 73/169/2
f 72/168/2 71/167/2 74/170/2
f 75/171/2 73/169/2 72/168/2
f 73/169/2 75/171/2 76/172/2
f 75/171/2 72/168/2 77/173/2
f 73/174/8 27/36/8 71/175/8
f 27/36/8 73/174/8 28/37/8
f 52/76/4 72/176/4 74/177/4
f 72/176/4 52/76/4 51/75/4
f 72/178/6 54/79/6 77/179/6
f 54/79/6 72/178/6 51/77/6
f 32/50/10 75/180/10 35/51/10
f 75/180/10 32/50/10 76/181/10
f 28/37/9 76/182/9 32/44/9
f 76/182/9 28/37/9 73/174/9
f 78/183/2 79/184/2 80/185/2
f 79/184/2 78/183/2 81/186/2
f 81/187/2 78/188/2 82/189/2
f 81/190/2 82/191/2 83/192/2
f 81/190/2 83/192/2 84/193/2
f 36/52/10 79/194/10 14/47/10
f 79/194/10 36/52/10 80/195/10
f 78/196/6 37/84/6 82/197/6
f 37/84/6 78/196/6 56/83/6
f 82/198/8 39/55/8 83/199/8
f 39/55/8 82/198/8 37/53/8
f 19/22/4 81/200/4 84/201/4
f 81/200/4 19/22/4 13/14/4
f 14/16/3 81/200/3 13/14/3
f 81/200/3 14/16/3 79/202/3
f 71/203/6 52/107/6 74/204/6
f 52/107/6 71/203/6 27/105/6
f 36/115/8 78/205/8 80/206/8
f 78/205/8 36/115/8 56/114/8
f 83/207/6 19/119/6 84/208/6
f 19/119/6 83/207/6 39/117/6
f 66/209/8 21/127/8 64/210/8
f 21/127/8 66/209/8 47/125/8
f 25/103/4 62/211/4 63/212/4
f 62/211/4 25/103/4 45/102/4
f 42/124/10 69/213/10 15/122/10
f 69/213/10 42/124/10 70/214/10
f 77/215/4 35/111/4 75/216/4
f 35/111/4 77/215/4 54/109/4
