# Blender v2.92.0 OBJ File: 'OGConvert.blend'
# www.blender.org
o stump_squareDetailed
v 0.816000 1.600000 -0.816000
v 0.960000 0.800000 -0.800000
v 0.960000 0.800000 -0.960000
v 0.816000 1.600000 0.816000
v 0.960000 0.800000 0.800000
v 0.960000 0.800000 0.960000
v 0.800000 0.800000 0.960000
v -0.816000 1.600000 0.816000
v -0.960000 0.800000 0.960000
v -0.800000 0.800000 0.960000
v 1.368000 -0.000000 0.596000
v 1.760000 -0.000000 0.400000
v 1.760000 0.000000 -0.400000
v 1.368000 0.000000 -0.596000
v 0.800000 0.800000 -0.960000
v 1.368000 0.000000 -1.368000
v 0.596000 0.000000 -1.368000
v 0.400000 0.000000 -1.760000
v -0.800000 0.800000 -0.960000
v -0.400000 0.000000 -1.760000
v 1.368000 -0.000000 1.368000
v -0.596000 0.000000 -1.368000
v -0.596000 -0.000000 1.368000
v -1.368000 -0.000000 1.368000
v 0.547730 1.600000 -0.547730
v -0.816000 1.600000 -0.816000
v -0.547730 1.600000 -0.547730
v -0.547730 1.600000 0.547730
v 0.547730 1.600000 0.547730
v -0.960000 0.800000 -0.960000
v -1.368000 0.000000 -1.368000
v 0.596000 -0.000000 1.368000
v -0.960000 0.800000 -0.800000
v -0.960000 0.800000 0.800000
v 0.400000 -0.000000 1.760000
v -0.400000 -0.000000 1.760000
v -1.368000 0.000000 -0.596000
v -1.368000 -0.000000 0.596000
v -1.760000 -0.000000 0.400000
v -1.760000 0.000000 -0.400000
v -0.410797 0.800000 -0.410797
v -0.410797 0.800000 0.410797
v 0.410797 0.800000 -0.410797
v 0.410797 0.800000 0.410797
vt 0.497957 0.307874
vt 0.610368 0.305479
vt 0.610368 0.327566
vt 0.497957 0.082585
vt 0.610368 0.084608
vt 0.610368 0.062521
vt 0.474658 0.570852
vt 0.362261 0.573314
vt 0.362261 0.551244
vt 0.474658 0.795966
vt 0.362261 0.816084
vt 0.490613 0.741428
vt 0.490613 0.497957
vt 0.490613 0.520091
vt 0.903481 0.847301
vt 0.863520 0.733088
vt 0.903481 0.693505
vt 0.950977 0.693505
vt 0.950977 0.838110
vt 0.910826 0.801023
vt 0.115781 0.576532
vt 0.237126 0.497957
vt 0.237126 0.604752
vt 0.115781 0.554398
vt 0.743915 0.402782
vt 0.878974 0.236780
vt 0.878974 0.458117
vt 0.743915 0.292114
vt 0.728329 0.003672
vt 0.728329 0.110242
vt 0.949968 0.845454
vt 0.949968 0.991704
vt 0.910826 0.956660
vt 0.916993 0.618553
vt 0.877059 0.504724
vt 0.916993 0.465461
vt 0.124672 0.945138
vt 0.171889 0.827347
vt 0.231160 0.945138
vt 0.149819 0.827347
vt 0.743915 0.003672
vt 0.781026 0.040783
vt 0.743915 0.229436
vt 0.969678 0.003672
vt 0.932567 0.040783
vt 0.932567 0.192324
vt 0.781026 0.192324
vt 0.969678 0.229436
vt 0.420116 0.823428
vt 0.470470 0.944773
vt 0.363675 0.944773
vt 0.442250 0.823428
vt 0.728329 0.274791
vt 0.728329 0.381362
vt 0.244470 0.497957
vt 0.244470 0.604445
vt 0.482002 0.497957
vt 0.482002 0.741428
vt 0.482002 0.520091
vt 0.115781 0.820003
vt 0.003672 0.800082
vt 0.003672 0.574319
vt 0.624160 0.685460
vt 0.736571 0.687482
vt 0.624160 0.707547
vt 0.736571 0.462194
vt 0.624160 0.464588
vt 0.624160 0.442501
vt 0.736571 0.133824
vt 0.736571 0.244259
vt 0.743915 0.465461
vt 0.869715 0.623928
vt 0.743915 0.686161
vt 0.869715 0.513578
vt 0.972739 0.383029
vt 0.933596 0.347985
vt 0.972739 0.236780
vt 0.926252 0.236780
vt 0.926252 0.389872
vt 0.886318 0.276043
vt 0.506199 0.659825
vt 0.506199 0.766395
vt 0.506199 0.388706
vt 0.506199 0.495276
vt 0.436386 0.164695
vt 0.329591 0.057900
vt 0.436386 0.057900
vt 0.057900 0.164695
vt 0.057900 0.057900
vt 0.164695 0.057900
vt 0.302477 0.003672
vt 0.191808 0.003672
vt 0.490613 0.191808
vt 0.003672 0.191808
vt 0.003672 0.302477
vt 0.490613 0.302477
vt 0.057900 0.329591
vt 0.436386 0.329591
vt 0.436386 0.436386
vt 0.329591 0.436386
vt 0.164695 0.436386
vt 0.302477 0.490613
vt 0.191808 0.490613
vt 0.057900 0.436386
vt 0.497957 0.636244
vt 0.497957 0.525808
vt 0.964489 0.610066
vt 0.924337 0.502548
vt 0.964489 0.465461
vt 0.996328 0.845454
vt 0.996328 0.991315
vt 0.957312 0.956648
vt 0.856176 0.844727
vt 0.743915 0.712531
vt 0.856176 0.693505
vt 0.743915 0.825948
vt 0.497957 0.906182
vt 0.610219 0.773739
vt 0.610219 0.924962
vt 0.497957 0.792766
vt 0.617563 0.924845
vt 0.729816 0.792446
vt 0.729816 0.905775
vt 0.617563 0.773739
vt 0.356331 0.823428
vt 0.244470 0.956026
vt 0.244470 0.842370
vt 0.356331 0.974969
vt 0.117328 0.827347
vt 0.003672 0.941002
vt 0.003672 0.827347
vt 0.117328 0.941002
vn 0.9842 0.1772 0.0000
vn 0.0000 0.1772 0.9842
vn -1.0000 0.0000 0.0000
vn 0.4472 0.0000 0.8944
vn 0.4472 0.0000 -0.8944
vn 0.0000 0.4543 -0.8908
vn 0.0000 0.7071 -0.7071
vn 0.8908 0.4543 0.0000
vn -0.8944 0.0000 -0.4472
vn 0.8944 0.0000 -0.4472
vn 0.0000 0.4543 0.8908
vn 0.0000 1.0000 0.0000
vn 0.0000 0.1772 -0.9842
vn 1.0000 0.0000 -0.0000
vn -0.9842 0.1772 0.0000
vn 0.7071 0.7071 0.0000
vn 0.0000 0.7071 0.7071
vn 0.8944 -0.0000 0.4472
vn -0.8944 -0.0000 0.4472
vn -0.8908 0.4543 0.0000
vn 0.0000 -1.0000 -0.0000
vn -0.7071 0.7071 0.0000
vn -0.4472 0.0000 -0.8944
vn -0.4472 0.0000 0.8944
vn 0.9857 0.1687 0.0000
vn -0.9857 0.1687 0.0000
vn 0.0000 0.1687 0.9857
vn 0.0000 0.1687 -0.9857
s 1
f 1/1/1 2/2/1 3/3/1
f 2/2/1 1/1/1 4/4/1
f 2/2/1 4/4/1 5/5/1
f 5/5/1 4/4/1 6/6/1
f 4/7/2 7/8/2 6/9/2
f 8/10/2 7/8/2 4/7/2
f 9/11/2 7/8/2 8/10/2
f 7/12/2 9/13/2 10/14/3
f 5/15/4 11/16/4 12/17/4
f 2/18/5 13/19/5 14/20/5
f 15/21/6 16/22/6 17/23/6
f 16/22/6 15/21/6 3/24/6
f 18/25/7 19/26/7 15/27/7
f 19/26/7 18/25/7 20/28/7
f 5/5/8 21/29/8 11/30/8
f 21/29/8 5/5/8 6/6/8
f 19/31/9 20/32/9 22/33/9
f 15/34/10 17/35/10 18/36/10
f 23/37/11 9/38/11 24/39/11
f 9/38/11 23/37/11 10/40/11
f 1/41/12 25/42/12 4/43/12
f 25/42/12 1/41/12 26/44/12
f 25/42/12 26/44/12 27/45/12
f 27/45/12 26/44/12 28/46/12
f 29/47/12 4/43/12 25/42/12
f 4/43/12 29/47/12 8/48/12
f 8/48/12 29/47/12 28/46/12
f 8/48/12 28/46/12 26/44/12
f 30/49/6 22/50/6 31/51/6
f 22/50/6 30/49/6 19/52/6
f 3/3/8 14/53/8 16/54/8
f 14/53/8 3/3/8 2/2/8
f 21/55/11 7/8/11 32/56/11
f 7/8/11 21/55/11 6/9/11
f 30/57/13 15/58/13 19/59/14
f 15/21/13 30/60/13 26/61/13
f 1/62/13 15/21/13 26/61/13
f 15/21/13 1/62/13 3/24/13
f 33/63/15 26/64/15 30/65/15
f 26/64/15 33/63/15 8/66/15
f 8/66/15 33/63/15 34/67/15
f 8/66/15 34/67/15 9/68/15
f 2/2/16 12/69/16 13/70/16
f 12/69/16 2/2/16 5/5/16
f 10/71/17 35/72/17 7/73/17
f 35/72/17 10/71/17 36/74/17
f 35/75/18 32/76/18 7/77/18
f 36/78/19 10/79/19 23/80/19
f 37/81/20 30/65/20 31/82/20
f 30/65/20 37/81/20 33/63/20
f 24/83/20 34/67/20 38/84/20
f 34/67/20 24/83/20 9/68/20
f 32/85/21 11/86/21 21/87/21
f 17/88/21 11/86/21 32/85/21
f 16/89/21 11/86/21 17/88/21
f 14/90/21 11/86/21 16/89/21
f 14/90/21 12/91/21 11/86/21
f 12/91/21 14/90/21 13/92/21
f 17/88/21 32/85/21 35/93/21
f 17/88/21 35/93/21 18/94/21
f 18/94/21 35/93/21 20/95/21
f 20/95/21 35/93/21 36/96/21
f 20/95/21 36/96/21 22/97/21
f 22/97/21 36/96/21 23/98/21
f 22/97/21 23/98/21 24/99/21
f 22/97/21 24/99/21 38/100/21
f 37/101/21 22/97/21 38/100/21
f 39/102/21 37/101/21 38/100/21
f 37/101/21 39/102/21 40/103/21
f 22/97/21 37/101/21 31/104/21
f 40/105/22 34/67/22 33/63/22
f 34/67/22 40/105/22 39/106/22
f 33/107/23 37/108/23 40/109/23
f 34/110/24 39/111/24 38/112/24
f 28/113/25 41/114/25 27/115/25
f 41/114/25 28/113/25 42/116/25
f 43/117/26 29/118/26 25/119/26
f 29/118/26 43/117/26 44/120/26
f 25/121/27 41/122/27 43/123/27
f 41/122/27 25/121/27 27/124/27
f 28/125/28 44/126/28 42/127/28
f 44/126/28 28/125/28 29/128/28
f 41/129/12 44/130/12 43/131/12
f 44/130/12 41/129/12 42/132/12
