# Blender v2.92.0 OBJ File: 'OGConvert.blend'
# www.blender.org
o stump_squareDetailedWide
v -0.800000 0.800000 -0.960000
v -0.400000 0.000000 -2.560000
v -0.698000 0.000000 -1.368000
v -0.816000 1.600000 -0.816000
v -0.960000 0.800000 -0.960000
v 0.800000 0.800000 -0.960000
v 0.816000 1.600000 -0.816000
v 0.960000 0.800000 -0.960000
v 0.400000 0.000000 -2.560000
v 0.960000 0.800000 -0.800000
v 2.560000 -0.000000 0.400000
v 2.560000 0.000000 -0.400000
v 0.960000 0.800000 0.800000
v -0.960000 0.800000 0.800000
v -2.560000 -0.000000 0.400000
v -1.368000 -0.000000 0.698000
v 0.816000 1.600000 0.816000
v 0.960000 0.800000 0.960000
v 1.368000 -0.000000 1.368000
v 1.368000 -0.000000 0.698000
v 0.698000 0.000000 -1.368000
v 0.400000 -0.000000 2.560000
v 0.698000 -0.000000 1.368000
v 0.800000 0.800000 0.960000
v -0.960000 0.800000 -0.800000
v -1.368000 0.000000 -0.698000
v -2.560000 0.000000 -0.400000
v -0.400000 -0.000000 2.560000
v -0.800000 0.800000 0.960000
v -0.698000 -0.000000 1.368000
v 1.368000 0.000000 -0.698000
v -0.816000 1.600000 0.816000
v -0.960000 0.800000 0.960000
v -1.368000 0.000000 -1.368000
v 1.368000 0.000000 -1.368000
v -1.368000 -0.000000 1.368000
v 0.547730 1.600000 -0.547730
v -0.547730 1.600000 -0.547730
v -0.547730 1.600000 0.547730
v 0.547730 1.600000 0.547730
v -0.410797 0.800000 -0.410797
v -0.410797 0.800000 0.410797
v 0.410797 0.800000 -0.410797
v 0.410797 0.800000 0.410797
vt 0.478776 0.503825
vt 0.478776 0.708070
vt 0.416233 0.582434
vt 0.701991 0.398284
vt 0.606683 0.400164
vt 0.606683 0.381361
vt 0.606683 0.588196
vt 0.701991 0.590076
vt 0.606683 0.606999
vt 0.703536 0.803890
vt 0.891568 0.662866
vt 0.891568 0.850898
vt 0.703536 0.709874
vt 0.897942 0.003959
vt 0.709910 0.144983
vt 0.709910 0.050967
vt 0.897942 0.191991
vt 0.272539 0.785330
vt 0.272539 0.989407
vt 0.210044 0.863732
vt 0.003959 0.760489
vt 0.099267 0.758608
vt 0.099267 0.777412
vt 0.003959 0.568696
vt 0.099267 0.570576
vt 0.099267 0.551773
vt 0.202126 0.503825
vt 0.202126 0.582564
vt 0.968404 0.208204
vt 0.905860 0.129595
vt 0.968404 0.003959
vt 0.968404 0.420367
vt 0.905860 0.294731
vt 0.968404 0.216123
vt 0.968404 0.632531
vt 0.905860 0.553922
vt 0.968404 0.428286
vt 0.478776 0.715989
vt 0.478776 0.920233
vt 0.416233 0.841625
vt 0.962030 0.662866
vt 0.962030 0.867111
vt 0.899487 0.741475
vt 0.709910 0.199910
vt 0.897942 0.340934
vt 0.709910 0.387942
vt 0.897942 0.246918
vt 0.210044 0.712541
vt 0.305309 0.710660
vt 0.305309 0.729464
vt 0.210044 0.520748
vt 0.305309 0.503825
vt 0.495907 0.710660
vt 0.495906 0.503825
vt 0.495906 0.522628
vt 0.503825 0.333413
vt 0.503825 0.412151
vt 0.701991 0.082698
vt 0.599133 0.051907
vt 0.701991 0.003959
vt 0.599133 0.070711
vt 0.421616 0.305609
vt 0.421616 0.194256
vt 0.477292 0.249933
vt 0.305609 0.078250
vt 0.194256 0.078250
vt 0.249933 0.022573
vt 0.495907 0.429427
vt 0.070439 0.003959
vt 0.003959 0.070439
vt 0.429427 0.495907
vt 0.078250 0.194256
vt 0.305609 0.421616
vt 0.022573 0.249933
vt 0.078250 0.305609
vt 0.194256 0.421616
vt 0.249933 0.477292
vt 0.070439 0.495907
vt 0.003959 0.429427
vt 0.495907 0.070439
vt 0.429427 0.003959
vt 0.503825 0.068830
vt 0.503825 0.260623
vt 0.599133 0.258743
vt 0.599133 0.277546
vt 0.342953 0.989407
vt 0.280458 0.911005
vt 0.342953 0.785330
vt 0.701991 0.325494
vt 0.701991 0.246756
vt 0.202126 0.746621
vt 0.202126 0.825360
vt 0.408314 0.777412
vt 0.408314 0.698673
vt 0.503825 0.662866
vt 0.535352 0.694393
vt 0.503825 0.854659
vt 0.695618 0.662866
vt 0.664091 0.694393
vt 0.664091 0.823132
vt 0.535352 0.823132
vt 0.695618 0.854659
vt 0.818548 0.858817
vt 0.885299 0.961821
vt 0.806561 0.961821
vt 0.837351 0.858817
vt 0.503825 0.654947
vt 0.503825 0.576209
vt 0.709910 0.536885
vt 0.897942 0.395861
vt 0.897942 0.583893
vt 0.709910 0.442869
vt 0.099065 0.962017
vt 0.003959 0.849371
vt 0.099065 0.833278
vt 0.003959 0.945925
vt 0.106984 0.945925
vt 0.202089 0.833278
vt 0.202089 0.962017
vt 0.106984 0.849371
vt 0.798642 0.858817
vt 0.703536 0.971463
vt 0.703536 0.874909
vt 0.798642 0.987555
vt 0.996041 0.875029
vt 0.899487 0.971583
vt 0.899487 0.875029
vt 0.996041 0.971583
vt 0.503825 0.991316
vt 0.598883 0.878670
vt 0.598883 0.975223
vt 0.503825 0.862577
vn -0.9701 -0.0000 -0.2425
vn 0.0000 0.1772 -0.9842
vn 0.0000 0.8944 -0.4472
vn 0.4472 0.8944 0.0000
vn -0.2425 -0.0000 0.9701
vn 0.9842 0.1772 0.0000
vn 0.8908 0.4543 0.0000
vn 0.9701 -0.0000 -0.2425
vn 0.9701 -0.0000 0.2425
vn -0.2425 -0.0000 -0.9701
vn -0.9701 -0.0000 0.2425
vn 0.2425 -0.0000 -0.9701
vn 0.0000 0.8944 0.4472
vn 0.0000 0.1772 0.9842
vn -1.0000 0.0000 0.0000
vn 0.0000 0.4543 -0.8908
vn -0.8908 0.4543 0.0000
vn 0.0000 -1.0000 -0.0000
vn -0.9842 0.1772 0.0000
vn 0.2425 -0.0000 0.9701
vn 0.0000 0.4543 0.8908
vn 0.0000 1.0000 0.0000
vn -0.4472 0.8944 0.0000
vn 0.9857 0.1687 0.0000
vn -0.9857 0.1687 0.0000
vn 0.0000 0.1687 -0.9857
vn 0.0000 0.1687 0.9857
s 1
f 1/1/1 2/2/1 3/3/1
f 4/4/2 1/5/2 5/6/2
f 1/5/2 4/4/2 6/7/2
f 7/8/2 6/7/2 4/4/2
f 6/7/2 7/8/2 8/9/2
f 9/10/3 1/11/3 6/12/3
f 1/11/3 9/10/3 2/13/3
f 10/14/4 11/15/4 12/16/4
f 11/15/4 10/14/4 13/17/4
f 14/18/5 15/19/5 16/20/5
f 7/21/6 10/22/6 8/23/6
f 10/22/6 7/21/6 17/24/6
f 10/22/6 17/24/6 13/25/6
f 13/25/6 17/24/6 18/26/6
f 13/25/7 19/27/7 20/28/7
f 19/27/7 13/25/7 18/26/7
f 6/29/8 21/30/8 9/31/8
f 22/32/9 23/33/9 24/34/9
f 25/35/10 26/36/10 27/37/10
f 28/38/11 29/39/11 30/40/11
f 10/41/12 12/42/12 31/43/12
f 29/44/13 22/45/13 24/46/13
f 22/45/13 29/44/13 28/47/13
f 17/48/14 24/49/14 18/50/14
f 32/51/14 24/49/14 17/48/14
f 33/52/14 24/49/14 32/51/14
f 24/53/14 33/54/14 29/55/15
f 34/56/16 1/5/16 3/57/16
f 1/5/16 34/56/16 5/6/16
f 26/58/17 5/59/17 34/60/17
f 5/59/17 26/58/17 25/61/17
f 23/62/18 20/63/18 19/64/18
f 20/63/18 23/62/18 31/65/18
f 21/66/18 31/65/18 23/62/18
f 31/65/18 21/66/18 35/67/18
f 21/66/18 23/62/18 22/68/18
f 21/66/18 22/68/18 9/69/18
f 9/69/18 22/68/18 2/70/18
f 2/70/18 22/68/18 28/71/18
f 2/70/18 28/71/18 3/72/18
f 3/72/18 28/71/18 30/73/18
f 3/72/18 30/73/18 34/74/18
f 34/74/18 30/73/18 26/75/18
f 26/75/18 30/73/18 16/76/18
f 36/77/18 16/76/18 30/73/18
f 15/78/18 26/75/18 16/76/18
f 26/75/18 15/78/18 27/79/18
f 11/80/18 31/65/18 12/81/18
f 31/65/18 11/80/18 20/63/18
f 25/61/19 4/82/19 5/59/19
f 4/82/19 25/61/19 32/83/19
f 32/83/19 25/61/19 14/84/19
f 32/83/19 14/84/19 33/85/19
f 13/86/20 20/87/20 11/88/20
f 36/89/17 14/84/17 16/90/17
f 14/84/17 36/89/17 33/85/17
f 8/23/7 31/91/7 35/92/7
f 31/91/7 8/23/7 10/22/7
f 19/93/21 24/49/21 23/94/21
f 24/49/21 19/93/21 18/50/21
f 7/95/22 37/96/22 17/97/22
f 37/96/22 7/95/22 4/98/22
f 37/96/22 4/98/22 38/99/22
f 38/99/22 4/98/22 39/100/22
f 40/101/22 17/97/22 37/96/22
f 17/97/22 40/101/22 32/102/22
f 32/102/22 40/101/22 39/100/22
f 32/102/22 39/100/22 4/98/22
f 29/103/21 36/104/21 30/105/21
f 36/104/21 29/103/21 33/106/21
f 6/7/16 35/107/16 21/108/16
f 35/107/16 6/7/16 8/9/16
f 27/109/23 14/110/23 25/111/23
f 14/110/23 27/109/23 15/112/23
f 39/113/24 41/114/24 38/115/24
f 41/114/24 39/113/24 42/116/24
f 43/117/25 40/118/25 37/119/25
f 40/118/25 43/117/25 44/120/25
f 39/121/26 44/122/26 42/123/26
f 44/122/26 39/121/26 40/124/26
f 41/125/22 44/126/22 43/127/22
f 44/126/22 41/125/22 42/128/22
f 37/129/27 41/130/27 43/131/27
f 41/130/27 37/129/27 38/132/27
