# Blender v2.92.0 OBJ File: 'OGConvert.blend'
# www.blender.org
o tile_straightHill
v -4.000000 0.800000 4.000000
v -4.000000 3.200000 -4.000000
v -4.000000 2.400000 -4.000000
v -4.000000 1.600000 4.000000
v -3.000000 2.800000 -4.000000
v 4.000000 2.400000 -4.000000
v -3.000000 3.200000 -4.000000
v 3.000000 2.800000 -4.000000
v 4.000000 3.200000 -4.000000
v -2.250000 2.800000 -4.000000
v 2.250000 2.800000 -4.000000
v 3.000000 3.200000 -4.000000
v 4.000000 0.800000 4.000000
v 4.000000 1.600000 4.000000
v 3.000000 1.600000 4.000000
v 3.000000 1.200000 4.000000
v -3.000000 1.200000 4.000000
v 2.250000 1.200000 4.000000
v -2.250000 1.200000 4.000000
v -3.000000 1.600000 4.000000
v 4.000000 0.000000 -4.000000
v 4.000000 -0.000000 4.000000
v -4.000000 0.000000 -4.000000
v -4.000000 -0.000000 4.000000
vt 0.148884 0.982940
vt 0.002624 0.495406
vt 0.051378 0.495406
vt 0.100131 0.982940
vt 0.641666 0.505061
vt 0.666043 0.566003
vt 0.641666 0.992595
vt 0.690420 0.505061
vt 0.690420 0.566003
vt 0.666043 0.931653
vt 0.690420 0.992595
vt 0.469338 0.861057
vt 0.469338 0.495406
vt 0.469338 0.541113
vt 0.469338 0.815350
vt 0.690420 0.931653
vt 0.397900 0.495406
vt 0.251640 0.982940
vt 0.349146 0.495406
vt 0.300393 0.982940
vt 0.464090 0.495406
vt 0.403148 0.992595
vt 0.403148 0.495406
vt 0.464090 0.992595
vt 0.915058 0.002624
vt 0.939435 0.063566
vt 0.915058 0.490158
vt 0.963812 0.002624
vt 0.963812 0.063566
vt 0.939435 0.429216
vt 0.963812 0.490158
vt 0.479836 0.495406
vt 0.479836 0.495406
vt 0.479836 0.495406
vt 0.474587 0.495406
vt 0.474587 0.815350
vt 0.474587 0.541113
vt 0.963812 0.429216
vt 0.927247 0.495406
vt 0.866305 0.992595
vt 0.866305 0.495406
vt 0.927247 0.992595
vt 0.861057 0.002624
vt 0.815350 0.499813
vt 0.815350 0.002624
vt 0.861057 0.499813
vt 0.992964 0.499813
vt 0.969060 0.007405
vt 0.992964 0.002624
vt 0.969060 0.504594
vt 0.541113 0.002624
vt 0.495406 0.499813
vt 0.495406 0.002624
vt 0.541113 0.499813
vt 0.963812 0.997376
vt 0.939909 0.495406
vt 0.963812 0.500187
vt 0.939909 0.992595
vt 0.202886 0.495406
vt 0.202886 0.982940
vt 0.197638 0.495406
vt 0.197638 0.982940
vt 0.490158 0.490158
vt 0.002624 0.002624
vt 0.490158 0.002624
vt 0.002624 0.490158
vt 0.866305 0.490158
vt 0.866305 0.002624
vt 0.495406 0.992595
vt 0.495406 0.505061
vn -1.0000 -0.0000 0.0000
vn 0.0000 0.0000 -1.0000
vn 0.0000 0.0000 1.0000
vn 1.0000 0.0000 0.0000
vn 0.0000 0.9806 0.1961
vn 0.0000 -1.0000 -0.0000
s 1
f 1/1/1 2/2/1 3/3/1
f 2/2/1 1/1/1 4/4/1
f 3/5/2 5/6/2 6/7/2
f 5/6/2 3/5/2 2/8/2
f 5/6/2 2/8/2 7/9/2
f 8/10/2 6/7/2 5/6/2
f 6/7/2 8/10/2 9/11/2
f 8/12/2 5/13/2 10/14/3
f 8/12/2 10/14/3 11/15/1
f 9/11/2 8/10/2 12/16/2
f 9/17/4 13/18/4 6/19/4
f 13/18/4 9/17/4 14/20/4
f 12/21/5 14/22/5 9/23/5
f 14/22/5 12/21/5 15/24/5
f 13/25/3 16/26/3 1/27/3
f 16/26/3 13/25/3 14/28/3
f 16/26/3 14/28/3 15/29/3
f 17/30/3 1/27/3 16/26/3
f 1/27/3 17/30/3 4/31/3
f 17/32/3 16/33/3 18/34/3
f 17/35/3 18/36/3 19/37/3
f 4/31/3 17/30/3 20/38/3
f 2/39/5 20/40/5 7/41/5
f 20/40/5 2/39/5 4/42/5
f 5/43/5 19/44/5 10/45/5
f 19/44/5 5/43/5 17/46/5
f 20/47/4 5/48/4 7/49/4
f 5/48/4 20/47/4 17/50/4
f 11/51/5 16/52/5 8/53/5
f 16/52/5 11/51/5 18/54/5
f 16/55/1 12/56/1 8/57/1
f 12/56/1 16/55/1 15/58/1
f 13/18/4 21/59/4 6/19/4
f 21/59/4 13/18/4 22/60/4
f 23/61/1 1/1/1 3/3/1
f 1/1/1 23/61/1 24/62/1
f 10/45/5 18/54/5 11/51/5
f 18/54/5 10/45/5 19/44/5
f 22/63/6 23/64/6 21/65/6
f 23/64/6 22/63/6 24/66/6
f 13/25/3 24/67/3 22/68/3
f 24/67/3 13/25/3 1/27/3
f 3/5/2 21/69/2 23/70/2
f 21/69/2 3/5/2 6/7/2
