# Blender v2.92.0 OBJ File: 'OGConvert.blend'
# www.blender.org
o tile_wideCorner
v 6.871673 1.200000 -6.042107
v 7.000000 1.600000 -8.000000
v 7.000000 1.200000 -8.000000
v 6.871673 1.600000 -6.042107
v 6.488887 1.200000 -4.117713
v 6.488887 1.600000 -4.117713
v 5.858193 1.200000 -2.259749
v 5.858193 1.600000 -2.259749
v -4.117713 1.600000 6.488887
v -2.259749 1.200000 5.858193
v -4.117713 1.200000 6.488887
v -2.259749 1.600000 5.858193
v -0.500000 1.200000 4.990381
v 1.131422 1.600000 3.900300
v 1.131422 1.200000 3.900300
v -0.500000 1.600000 4.990381
v 2.606602 1.200000 2.606602
v 3.900300 1.600000 1.131422
v 3.900300 1.200000 1.131422
v 2.606602 1.600000 2.606602
v 4.990381 1.600000 -0.500000
v 4.990381 1.200000 -0.500000
v -6.042107 1.600000 6.871673
v -6.042107 1.200000 6.871673
v -8.000000 1.600000 7.000000
v -8.000000 1.200000 7.000000
v -7.133975 1.600000 -7.500001
v -7.076121 1.200000 -7.617316
v -7.076121 1.600000 -7.617316
v -7.133975 1.200000 -7.500001
v -7.034074 1.600000 -7.741181
v -7.008555 1.200000 -7.869473
v -7.008555 1.600000 -7.869473
v -7.034074 1.200000 -7.741181
v -7.000000 1.200000 -8.000000
v -7.000000 1.600000 -8.000000
v -7.391238 1.600000 -7.206647
v -7.500001 1.200000 -7.133975
v -7.391238 1.200000 -7.206647
v -7.500001 1.600000 -7.133975
v -7.292893 1.600000 -7.292893
v -7.206647 1.200000 -7.391238
v -7.206647 1.600000 -7.391238
v -7.292893 1.200000 -7.292893
v -7.617316 1.200000 -7.076121
v -7.617316 1.600000 -7.076121
v -7.741181 1.200000 -7.034074
v -7.741181 1.600000 -7.034074
v -7.869473 1.200000 -7.008555
v -7.869473 1.600000 -7.008555
v -8.000000 1.200000 -7.000000
v -8.000000 1.600000 -7.000000
v -6.264971 1.200000 -7.771578
v -6.250000 1.200000 -8.000000
v -6.309629 1.200000 -7.547066
v -6.383210 1.200000 -7.330304
v -6.484455 1.200000 -7.125000
v -6.611631 1.200000 -6.934667
v -6.762563 1.200000 -6.762563
v -6.934667 1.200000 -6.611631
v -7.125000 1.200000 -6.484455
v -7.330304 1.200000 -6.383210
v -7.547066 1.200000 -6.309629
v -7.771578 1.200000 -6.264971
v -8.000000 1.200000 -6.250000
v 6.250000 1.200000 -8.000000
v 6.128089 1.200000 -6.140002
v 5.764443 1.200000 -4.311829
v 5.165283 1.200000 -2.546761
v 4.340862 1.200000 -0.875000
v 3.305285 1.200000 0.674850
v 2.076272 1.200000 2.076272
v 0.674850 1.200000 3.305285
v -0.875000 1.200000 4.340862
v -2.546761 1.200000 5.165283
v -4.311829 1.200000 5.764443
v -6.140002 1.200000 6.128089
v -8.000000 1.200000 6.250000
v 8.000000 1.600000 8.000000
v 8.000000 1.600000 -8.000000
v -8.000000 1.600000 8.000000
v -8.000000 1.600000 -8.000000
v -8.000000 0.800000 -8.000000
v -8.000000 0.800000 8.000000
v 8.000000 0.800000 8.000000
v 8.000000 0.800000 -8.000000
v -8.000000 -0.000000 8.000000
v 8.000000 0.000000 -8.000000
v 8.000000 -0.000000 8.000000
v -8.000000 0.000000 -8.000000
vt 0.747909 0.531985
vt 0.735523 0.471302
vt 0.747909 0.471302
vt 0.735523 0.531985
vt 0.747909 0.592546
vt 0.735523 0.592546
vt 0.747909 0.651949
vt 0.735523 0.651949
vt 0.718600 0.693375
vt 0.730986 0.633792
vt 0.730986 0.693375
vt 0.718600 0.633792
vt 0.730986 0.576271
vt 0.718600 0.521797
vt 0.730986 0.521797
vt 0.718600 0.576271
vt 0.747909 0.813248
vt 0.735523 0.763252
vt 0.747909 0.763252
vt 0.735523 0.813248
vt 0.735523 0.709177
vt 0.747909 0.709177
vt 0.730986 0.471302
vt 0.718600 0.471302
vt 0.718600 0.754002
vt 0.730986 0.754002
vt 0.718600 0.814633
vt 0.730986 0.814633
vt 0.769369 0.522641
vt 0.756982 0.518593
vt 0.769369 0.518593
vt 0.756982 0.522641
vt 0.769369 0.514559
vt 0.756982 0.510607
vt 0.769369 0.510607
vt 0.756982 0.514559
vt 0.756982 0.506805
vt 0.769369 0.506805
vt 0.769369 0.538711
vt 0.756982 0.542418
vt 0.756982 0.538711
vt 0.769369 0.542418
vt 0.769369 0.530498
vt 0.756982 0.526632
vt 0.769369 0.526632
vt 0.756982 0.530498
vt 0.756982 0.546306
vt 0.769369 0.546306
vt 0.756982 0.550309
vt 0.769369 0.550309
vt 0.756982 0.554359
vt 0.769369 0.554359
vt 0.756982 0.558385
vt 0.769369 0.558385
vt 0.756982 0.534174
vt 0.769369 0.534174
vt 0.935799 0.002268
vt 0.913037 0.009342
vt 0.912574 0.002268
vt 0.914420 0.016294
vt 0.916699 0.023006
vt 0.919834 0.029364
vt 0.923772 0.035258
vt 0.928446 0.040587
vt 0.933776 0.045261
vt 0.936064 0.006310
vt 0.939669 0.049199
vt 0.936854 0.010283
vt 0.938156 0.014119
vt 0.939947 0.017752
vt 0.946027 0.052335
vt 0.942198 0.021119
vt 0.944869 0.024165
vt 0.947914 0.026836
vt 0.952739 0.054613
vt 0.951282 0.029086
vt 0.954915 0.030878
vt 0.959692 0.055996
vt 0.958750 0.032180
vt 0.962723 0.032970
vt 0.966765 0.056460
vt 0.966765 0.033235
vt 0.525493 0.002268
vt 0.506242 0.062897
vt 0.502268 0.002268
vt 0.518096 0.122489
vt 0.529268 0.059866
vt 0.537626 0.180024
vt 0.540529 0.116478
vt 0.564499 0.234517
vt 0.559083 0.171136
vt 0.584612 0.222904
vt 0.598255 0.285036
vt 0.616680 0.270898
vt 0.638316 0.330717
vt 0.654739 0.314295
vt 0.683997 0.370779
vt 0.698136 0.352353
vt 0.734517 0.404534
vt 0.746129 0.384421
vt 0.789010 0.431408
vt 0.797898 0.409951
vt 0.846545 0.450938
vt 0.852556 0.428504
vt 0.906136 0.462791
vt 0.909168 0.439765
vt 0.966765 0.466765
vt 0.966765 0.443540
vt 0.033235 0.502268
vt 0.002268 0.997732
vt 0.002268 0.502268
vt 0.037209 0.562897
vt 0.049062 0.622489
vt 0.068592 0.680024
vt 0.095466 0.734517
vt 0.129221 0.785036
vt 0.169283 0.830717
vt 0.214964 0.870779
vt 0.265483 0.904534
vt 0.319976 0.931408
vt 0.497732 0.997732
vt 0.377511 0.950938
vt 0.437103 0.962791
vt 0.497732 0.966765
vt 0.787949 0.502268
vt 0.783907 0.471567
vt 0.787949 0.471302
vt 0.779934 0.472357
vt 0.776099 0.473659
vt 0.772466 0.475451
vt 0.769098 0.477701
vt 0.766052 0.480372
vt 0.763382 0.483417
vt 0.761131 0.486785
vt 0.759340 0.490418
vt 0.758038 0.494254
vt 0.757247 0.498226
vt 0.756982 0.502268
vt 0.527041 0.471302
vt 0.514655 0.502062
vt 0.502268 0.471302
vt 0.527041 0.963460
vt 0.514655 0.525132
vt 0.514655 0.909630
vt 0.514655 0.932700
vt 0.502268 0.932700
vt 0.502268 0.963460
vt 0.502268 0.502062
vt 0.659980 0.471302
vt 0.635207 0.959273
vt 0.635207 0.471302
vt 0.659980 0.959273
vt 0.714063 0.924237
vt 0.689290 0.471302
vt 0.714063 0.471302
vt 0.689290 0.924237
vt 0.581124 0.962572
vt 0.568738 0.931868
vt 0.581124 0.471302
vt 0.556351 0.962572
vt 0.556351 0.931868
vt 0.568738 0.502006
vt 0.556351 0.471302
vt 0.752446 0.904832
vt 0.752446 0.471302
vt 0.752446 0.494527
vt 0.752446 0.881607
vt 0.556351 0.502006
vt 0.002268 0.497732
vt 0.497732 0.002268
vt 0.497732 0.497732
vt 0.002268 0.002268
vt 0.605898 0.471302
vt 0.605897 0.962572
vt 0.551815 0.963460
vt 0.551815 0.471302
vt 0.610434 0.959273
vt 0.610434 0.471302
vt 0.664517 0.471302
vt 0.664517 0.924237
vn -0.9914 0.0000 -0.1305
vn -0.9979 0.0000 -0.0654
vn -0.9659 0.0000 -0.2588
vn -0.9239 0.0000 -0.3827
vn -0.2588 0.0000 -0.9659
vn -0.3827 0.0000 -0.9239
vn -0.5000 0.0000 -0.8660
vn -0.6088 0.0000 -0.7934
vn -0.7071 -0.0000 -0.7071
vn -0.7934 -0.0000 -0.6088
vn -0.8660 -0.0000 -0.5000
vn -0.1305 0.0000 -0.9914
vn -0.0654 0.0000 -0.9979
vn 0.8660 0.0000 0.5000
vn 0.9239 0.0000 0.3827
vn 0.9659 0.0000 0.2588
vn 0.9914 0.0000 0.1305
vn 0.9979 0.0000 0.0654
vn 0.6088 0.0000 0.7934
vn 0.5000 0.0000 0.8660
vn 0.7071 0.0000 0.7071
vn 0.7934 0.0000 0.6088
vn 0.3827 0.0000 0.9239
vn 0.2588 0.0000 0.9659
vn 0.1305 0.0000 0.9914
vn 0.0654 0.0000 0.9979
vn 0.0000 1.0000 0.0000
vn -1.0000 0.0000 0.0000
vn 0.0000 0.0000 1.0000
vn 1.0000 0.0000 0.0000
vn 0.0000 0.0000 -1.0000
vn 0.0000 -1.0000 -0.0000
s 1
f 1/1/1 2/2/2 3/3/2
f 2/2/2 1/1/1 4/4/1
f 5/5/3 4/4/1 1/1/1
f 4/4/1 5/5/3 6/6/3
f 7/7/4 6/6/3 5/5/3
f 6/6/3 7/7/4 8/8/4
f 9/9/5 10/10/6 11/11/5
f 10/10/6 9/9/5 12/12/6
f 13/13/7 14/14/8 15/15/8
f 14/14/8 13/13/7 16/16/7
f 17/17/9 18/18/10 19/19/10
f 18/18/10 17/17/9 20/20/9
f 19/19/10 21/21/11 22/22/11
f 21/21/11 19/19/10 18/18/10
f 14/14/8 17/23/9 15/15/8
f 17/23/9 14/14/8 20/24/9
f 23/25/12 11/11/5 24/26/12
f 11/11/5 23/25/12 9/9/5
f 22/22/11 8/8/4 7/7/4
f 8/8/4 22/22/11 21/21/11
f 12/12/6 13/13/7 10/10/6
f 13/13/7 12/12/6 16/16/7
f 25/27/13 24/26/12 26/28/13
f 24/26/12 25/27/13 23/25/12
f 27/29/14 28/30/15 29/31/15
f 28/30/15 27/29/14 30/32/14
f 31/33/16 32/34/17 33/35/17
f 32/34/17 31/33/16 34/36/16
f 29/31/15 34/36/16 31/33/16
f 34/36/16 29/31/15 28/30/15
f 33/35/17 35/37/18 36/38/18
f 35/37/18 33/35/17 32/34/17
f 37/39/19 38/40/20 39/41/19
f 38/40/20 37/39/19 40/42/20
f 41/43/21 42/44/22 43/45/22
f 42/44/22 41/43/21 44/46/21
f 40/42/20 45/47/23 38/40/20
f 45/47/23 40/42/20 46/48/23
f 46/48/23 47/49/24 45/47/23
f 47/49/24 46/48/23 48/50/24
f 43/45/22 30/32/14 27/29/14
f 30/32/14 43/45/22 42/44/22
f 48/50/24 49/51/25 47/49/24
f 49/51/25 48/50/24 50/52/25
f 50/52/25 51/53/26 49/51/25
f 51/53/26 50/52/25 52/54/26
f 41/43/21 39/55/19 44/46/21
f 39/55/19 41/43/21 37/56/19
f 35/57/27 53/58/27 54/59/27
f 53/58/27 35/57/27 55/60/27
f 55/60/27 35/57/27 56/61/27
f 56/61/27 35/57/27 57/62/27
f 57/62/27 35/57/27 58/63/27
f 58/63/27 35/57/27 59/64/27
f 59/64/27 35/57/27 60/65/27
f 60/65/27 35/57/27 32/66/27
f 60/65/27 32/66/27 61/67/27
f 61/67/27 32/66/27 34/68/27
f 61/67/27 34/68/27 28/69/27
f 61/67/27 28/69/27 30/70/27
f 61/67/27 30/70/27 62/71/27
f 62/71/27 30/70/27 42/72/27
f 62/71/27 42/72/27 44/73/27
f 62/71/27 44/73/27 39/74/27
f 62/71/27 39/74/27 63/75/27
f 63/75/27 39/74/27 38/76/27
f 63/75/27 38/76/27 45/77/27
f 63/75/27 45/77/27 64/78/27
f 64/78/27 45/77/27 47/79/27
f 64/78/27 47/79/27 49/80/27
f 64/78/27 49/80/27 65/81/27
f 65/81/27 49/80/27 51/82/27
f 66/83/27 1/84/27 3/85/27
f 1/84/27 66/83/27 5/86/27
f 5/86/27 66/83/27 67/87/27
f 5/86/27 67/87/27 7/88/27
f 7/88/27 67/87/27 68/89/27
f 7/88/27 68/89/27 22/90/27
f 22/90/27 68/89/27 69/91/27
f 22/90/27 69/91/27 70/92/27
f 22/90/27 70/92/27 19/93/27
f 19/93/27 70/92/27 71/94/27
f 19/93/27 71/94/27 17/95/27
f 17/95/27 71/94/27 72/96/27
f 17/95/27 72/96/27 15/97/27
f 15/97/27 72/96/27 73/98/27
f 15/97/27 73/98/27 13/99/27
f 13/99/27 73/98/27 74/100/27
f 13/99/27 74/100/27 10/101/27
f 10/101/27 74/100/27 75/102/27
f 10/101/27 75/102/27 11/103/27
f 11/103/27 75/102/27 76/104/27
f 11/103/27 76/104/27 24/105/27
f 24/105/27 76/104/27 77/106/27
f 24/105/27 77/106/27 26/107/27
f 26/107/27 77/106/27 78/108/27
f 2/109/27 79/110/27 80/111/27
f 79/110/27 2/109/27 4/112/27
f 79/110/27 4/112/27 6/113/27
f 79/110/27 6/113/27 8/114/27
f 79/110/27 8/114/27 21/115/27
f 79/110/27 21/115/27 18/116/27
f 79/110/27 18/116/27 20/117/27
f 79/110/27 20/117/27 14/118/27
f 79/110/27 14/118/27 16/119/27
f 79/110/27 16/119/27 12/120/27
f 79/110/27 12/120/27 81/121/27
f 81/121/27 12/120/27 9/122/27
f 81/121/27 9/122/27 23/123/27
f 81/121/27 23/123/27 25/124/27
f 82/125/27 33/126/27 36/127/27
f 33/126/27 82/125/27 31/128/27
f 31/128/27 82/125/27 29/129/27
f 29/129/27 82/125/27 27/130/27
f 27/130/27 82/125/27 43/131/27
f 43/131/27 82/125/27 41/132/27
f 41/132/27 82/125/27 37/133/27
f 37/133/27 82/125/27 40/134/27
f 40/134/27 82/125/27 46/135/27
f 46/135/27 82/125/27 48/136/27
f 48/136/27 82/125/27 50/137/27
f 50/137/27 82/125/27 52/138/27
f 83/139/28 51/140/28 82/141/28
f 51/140/28 83/139/28 84/142/28
f 51/140/28 84/142/28 65/143/28
f 65/143/28 84/142/28 78/144/28
f 78/144/28 84/142/28 26/145/28
f 26/145/28 84/142/28 25/146/28
f 25/146/28 84/142/28 81/147/28
f 52/148/28 82/141/28 51/140/28
f 79/149/29 84/150/29 85/151/29
f 84/150/29 79/149/29 81/152/29
f 79/153/30 86/154/30 80/155/30
f 86/154/30 79/153/30 85/156/30
f 83/157/31 35/158/31 86/159/31
f 35/158/31 83/157/31 82/160/31
f 35/158/31 82/160/31 36/161/31
f 3/162/31 86/159/31 35/158/31
f 86/159/31 3/162/31 80/163/31
f 3/164/31 35/165/31 54/166/29
f 3/164/31 54/166/29 66/167/28
f 80/163/31 3/162/31 2/168/31
f 87/169/32 88/170/32 89/171/32
f 88/170/32 87/169/32 90/172/32
f 83/157/31 88/173/31 90/174/31
f 88/173/31 83/157/31 86/159/31
f 87/175/28 83/139/28 90/176/28
f 83/139/28 87/175/28 84/142/28
f 85/151/29 87/177/29 89/178/29
f 87/177/29 85/151/29 84/150/29
f 85/156/30 88/179/30 86/154/30
f 88/179/30 85/156/30 89/180/30
f 54/59/27 67/87/27 66/83/27
f 67/87/27 54/59/27 68/89/27
f 68/89/27 54/59/27 69/91/27
f 69/91/27 54/59/27 70/92/27
f 70/92/27 54/59/27 71/94/27
f 71/94/27 54/59/27 72/96/27
f 72/96/27 54/59/27 73/98/27
f 73/98/27 54/59/27 74/100/27
f 74/100/27 54/59/27 75/102/27
f 75/102/27 54/59/27 76/104/27
f 76/104/27 54/59/27 77/106/27
f 77/106/27 54/59/27 53/58/27
f 77/106/27 53/58/27 78/108/27
f 78/108/27 53/58/27 55/60/27
f 78/108/27 55/60/27 56/61/27
f 78/108/27 56/61/27 57/62/27
f 78/108/27 57/62/27 58/63/27
f 78/108/27 58/63/27 59/64/27
f 78/108/27 59/64/27 60/65/27
f 78/108/27 60/65/27 61/67/27
f 78/108/27 61/67/27 62/71/27
f 78/108/27 62/71/27 63/75/27
f 78/108/27 63/75/27 64/78/27
f 78/108/27 64/78/27 65/81/27
