# Blender v2.92.0 OBJ File: 'OGConvert.blend'
# www.blender.org
o trackSimpleCornerSmall
v 0.706608 0.192832 -1.232000
v 0.843402 0.192832 -1.120964
v 0.850680 0.192832 -1.232000
v 0.821694 0.192832 -1.011828
v 0.785926 0.192832 -0.906458
v 0.736710 0.192832 -0.806660
v 0.674890 0.192832 -0.714139
v 0.700563 0.192832 -1.139769
v 0.682531 0.192832 -1.049116
v 0.652821 0.192832 -0.961593
v 0.601522 0.192832 -0.630479
v 0.611941 0.192832 -0.878696
v 0.560590 0.192832 -0.801844
v 0.517861 0.192832 -0.557110
v 0.499647 0.192832 -0.732353
v 0.425340 0.192832 -0.495289
v 0.430156 0.192832 -0.671410
v 0.353304 0.192832 -0.620059
v 0.325541 0.192832 -0.446074
v 0.270407 0.192832 -0.579179
v 0.220172 0.192832 -0.410306
v 0.182884 0.192832 -0.549469
v 0.111036 0.192832 -0.388598
v 0.092231 0.192832 -0.531437
v 0.000000 0.192832 -0.381320
v 0.000000 0.192832 -0.525392
v 0.270407 0.112112 -0.579179
v 0.182884 0.112112 -0.549469
v 0.092231 0.112112 -0.531437
v 0.000000 0.112112 -0.525392
v 1.613320 0.192832 -1.232000
v 1.742357 0.192832 -1.002614
v 1.757392 0.192832 -1.232000
v 1.697510 0.192832 -0.777153
v 1.623618 0.192832 -0.559475
v 1.599518 0.192832 -1.021419
v 1.521946 0.192832 -0.353304
v 1.558347 0.192832 -0.814442
v 1.490514 0.192832 -0.614609
v 1.394233 0.192832 -0.162168
v 1.397176 0.192832 -0.425340
v 1.279933 0.192832 -0.249873
v 1.242664 0.192832 0.010664
v 1.140790 0.192832 -0.091210
v 1.069833 0.192832 0.162233
v 0.982127 0.192832 0.047933
v 0.878696 0.192832 0.289946
v 0.806660 0.192832 0.165176
v 0.672525 0.192832 0.391618
v 0.617391 0.192832 0.258513
v 0.454846 0.192832 0.465510
v 0.417558 0.192832 0.326347
v 0.229386 0.192832 0.510357
v 0.210580 0.192832 0.367518
v 0.000000 0.192832 0.525392
v 0.000000 0.192832 0.381320
v 0.353304 0.112112 -0.620059
v 0.275876 0.112112 -0.581876
v 0.430156 0.112112 -0.671410
v 0.000000 0.112112 0.525392
v 0.229386 0.112112 0.510357
v 1.069833 0.112112 0.162233
v 1.242664 0.112112 0.010664
v 0.454846 0.112112 0.465510
v 0.672525 0.112112 0.391618
v 0.000000 0.112112 0.381320
v 0.878696 0.112112 0.289946
v 1.039951 0.112112 0.182199
v 1.757392 0.112112 -1.232000
v 1.613320 0.112112 -1.232000
v 1.521946 0.112112 -0.353304
v 1.414199 0.112112 -0.192049
v 1.394233 0.112112 -0.162168
v 0.806660 0.112112 0.165176
v 0.982127 0.112112 0.047933
v 0.936303 0.112112 0.078551
v 1.742357 0.112112 -1.002614
v 1.697510 0.112112 -0.777153
v 0.617391 0.112112 0.258513
v 0.652821 0.112112 -0.961593
v 0.682531 0.112112 -1.049116
v 0.210580 0.112112 0.367518
v 0.650124 0.112112 -0.956124
v 0.611941 0.112112 -0.878696
v 0.560590 0.112112 -0.801844
v 0.785926 0.112112 -0.906458
v 0.757477 0.112112 -0.848770
v 0.736710 0.112112 -0.806660
v 1.490514 0.112112 -0.614609
v 1.558347 0.112112 -0.814442
v 1.397176 0.112112 -0.425340
v 0.417558 0.112112 0.326347
v 1.599518 0.112112 -1.021419
v 1.310551 0.112112 -0.295697
v 1.279933 0.112112 -0.249873
v 1.623618 0.112112 -0.559475
v 1.140790 0.112112 -0.091210
v 0.111036 0.112112 -0.388598
v 0.220172 0.112112 -0.410306
v 0.517861 0.112112 -0.557110
v 0.601522 0.112112 -0.630479
v 0.821694 0.112112 -1.011828
v 0.700563 0.112112 -1.139769
v 0.706608 0.112112 -1.232000
v 0.425340 0.112112 -0.495289
v 0.674890 0.112112 -0.714139
v 0.325541 0.112112 -0.446074
v 0.383229 0.112112 -0.474523
v 0.850680 0.112112 -1.232000
v 0.843402 0.112112 -1.120964
v 0.000000 0.112112 -0.381320
v 0.499647 0.112112 -0.732353
vt 0.645299 0.042928
vt 0.575086 0.035630
vt 0.604482 0.002111
vt 0.550316 0.072700
vt 0.530597 0.112686
vt 0.516267 0.154903
vt 0.507569 0.198630
vt 0.620881 0.070771
vt 0.600307 0.101562
vt 0.583928 0.134776
vt 0.504653 0.243118
vt 0.572024 0.169843
vt 0.564799 0.206165
vt 0.507569 0.287606
vt 0.562377 0.243118
vt 0.516267 0.331333
vt 0.564799 0.280072
vt 0.572024 0.316393
vt 0.530598 0.373550
vt 0.583928 0.351460
vt 0.550316 0.413536
vt 0.600307 0.384674
vt 0.575086 0.450606
vt 0.620881 0.415466
vt 0.604482 0.484126
vt 0.645299 0.443308
vt 0.904076 0.366886
vt 0.936418 0.340439
vt 0.936418 0.366886
vt 0.904076 0.340439
vt 0.904076 0.408560
vt 0.936418 0.389724
vt 0.936418 0.408560
vt 0.904076 0.389724
vt 0.249160 0.042928
vt 0.147615 0.071358
vt 0.208343 0.002111
vt 0.096445 0.147939
vt 0.055709 0.230544
vt 0.193411 0.106498
vt 0.026103 0.317760
vt 0.146436 0.176801
vt 0.109039 0.252634
vt 0.008135 0.408094
vt 0.081861 0.332700
vt 0.065365 0.415628
vt 0.002111 0.500000
vt 0.059835 0.500000
vt 0.008134 0.591906
vt 0.065365 0.584372
vt 0.026103 0.682240
vt 0.081860 0.667300
vt 0.055709 0.769456
vt 0.109039 0.747366
vt 0.096445 0.852061
vt 0.146436 0.823199
vt 0.147615 0.928642
vt 0.193411 0.893502
vt 0.208343 0.997889
vt 0.249160 0.957072
vt 0.728795 0.134776
vt 0.716891 0.169843
vt 0.728010 0.137089
vt 0.936418 0.310835
vt 0.904076 0.310835
vt 0.936418 0.278580
vt 0.904076 0.278580
vt 0.794387 0.057914
vt 0.826729 0.002111
vt 0.826729 0.057914
vt 0.794387 0.002111
vt 0.794387 0.449110
vt 0.826729 0.360232
vt 0.826729 0.449110
vt 0.794387 0.360232
vt 0.794387 0.195671
vt 0.826729 0.122805
vt 0.826729 0.195671
vt 0.794387 0.122805
vt 0.863292 0.948201
vt 0.830950 0.896688
vt 0.863292 0.896688
vt 0.830950 0.948201
vt 0.794387 0.275268
vt 0.826729 0.275268
vt 0.259406 0.408094
vt 0.277374 0.317760
vt 0.262215 0.393971
vt 0.830950 0.028159
vt 0.863292 0.002111
vt 0.863292 0.028159
vt 0.830950 0.002111
vt 0.794387 0.540381
vt 0.826729 0.632484
vt 0.794387 0.632484
vt 0.826729 0.554780
vt 0.826729 0.540381
vt 0.504653 0.572900
vt 0.504653 0.488347
vt 0.504653 0.510428
vt 0.863292 0.599918
vt 0.863292 0.673563
vt 0.830950 0.673563
vt 0.830950 0.599918
vt 0.794387 0.812894
vt 0.826729 0.898114
vt 0.794387 0.898114
vt 0.826729 0.812894
vt 0.830950 0.741155
vt 0.863292 0.741155
vt 0.936418 0.134568
vt 0.904076 0.097902
vt 0.936418 0.097902
vt 0.904076 0.134568
vt 0.863292 0.853680
vt 0.830950 0.853680
vt 0.936418 0.137011
vt 0.904076 0.171599
vt 0.936418 0.171599
vt 0.936418 0.208361
vt 0.904076 0.208361
vt 0.899855 0.169382
vt 0.867513 0.125159
vt 0.899855 0.125159
vt 0.867513 0.150722
vt 0.867513 0.169382
vt 0.863292 0.271111
vt 0.830950 0.187396
vt 0.863292 0.187396
vt 0.830950 0.271111
vt 0.863292 0.355659
vt 0.830950 0.355659
vt 0.863292 0.801539
vt 0.830950 0.801539
vt 0.863292 0.105947
vt 0.830950 0.105947
vt 0.826729 0.978045
vt 0.794387 0.978045
vt 0.863292 0.417675
vt 0.830950 0.439595
vt 0.863292 0.439595
vt 0.794387 0.723843
vt 0.826729 0.723843
vt 0.863292 0.521482
vt 0.830950 0.521482
vt 0.899855 0.416097
vt 0.867513 0.447507
vt 0.867513 0.416097
vt 0.899855 0.447507
vt 0.899855 0.258146
vt 0.867513 0.301168
vt 0.867513 0.258146
vt 0.899855 0.301168
vt 0.867513 0.082053
vt 0.899855 0.082053
vt 0.936418 0.062229
vt 0.904076 0.028159
vt 0.936418 0.028159
vt 0.904076 0.062229
vt 0.867513 0.342296
vt 0.899855 0.342296
vt 0.899855 0.213965
vt 0.867513 0.213965
vt 0.661134 0.154903
vt 0.675465 0.112686
vt 0.667181 0.137089
vt 0.867513 0.380825
vt 0.899855 0.380825
vt 0.899855 0.040802
vt 0.867513 0.002111
vt 0.899855 0.002111
vt 0.867513 0.040802
vt 0.936418 0.460073
vt 0.904076 0.460073
vt 0.936418 0.002111
vt 0.904076 0.002111
vt 0.936418 0.244226
vt 0.904076 0.244226
vt 0.867513 0.474519
vt 0.899855 0.474519
vt 0.719953 0.450606
vt 0.790166 0.443308
vt 0.749349 0.484126
vt 0.695184 0.413536
vt 0.675465 0.373550
vt 0.667181 0.349147
vt 0.661134 0.331333
vt 0.652436 0.287606
vt 0.765748 0.415465
vt 0.745174 0.384674
vt 0.728795 0.351460
vt 0.649520 0.243118
vt 0.728010 0.349147
vt 0.716891 0.316393
vt 0.709666 0.280071
vt 0.652436 0.198630
vt 0.707244 0.243118
vt 0.709666 0.206165
vt 0.695184 0.072700
vt 0.745174 0.101562
vt 0.719953 0.035630
vt 0.765749 0.070771
vt 0.749349 0.002111
vt 0.790166 0.042928
vt 0.398887 0.928642
vt 0.500432 0.957072
vt 0.459614 0.997889
vt 0.347716 0.852061
vt 0.306980 0.769456
vt 0.444682 0.893502
vt 0.277374 0.682240
vt 0.397707 0.823199
vt 0.360310 0.747366
vt 0.262215 0.606029
vt 0.333132 0.667300
vt 0.259406 0.591906
vt 0.320944 0.606029
vt 0.253382 0.500000
vt 0.316636 0.584372
vt 0.311106 0.500000
vt 0.316636 0.415628
vt 0.320944 0.393971
vt 0.333132 0.332700
vt 0.306980 0.230544
vt 0.360310 0.252634
vt 0.347716 0.147939
vt 0.397707 0.176801
vt 0.398886 0.071358
vt 0.444682 0.106498
vt 0.459614 0.002111
vt 0.500432 0.042928
vn -0.0000 1.0000 0.0000
vn -0.2588 0.0000 -0.9659
vn -0.3827 0.0000 -0.9239
vn -0.0654 0.0000 -0.9979
vn -0.1305 0.0000 -0.9914
vn -0.5000 0.0000 -0.8660
vn 0.8969 0.0000 0.4422
vn -0.6088 0.0000 -0.7934
vn 0.1305 0.0000 0.9914
vn 0.0654 0.0000 0.9979
vn 0.7071 0.0000 0.7071
vn 0.6088 -0.0000 0.7934
vn 0.3827 0.0000 0.9239
vn 0.2588 0.0000 0.9659
vn -1.0000 0.0000 0.0000
vn 0.5000 0.0000 0.8660
vn -0.8315 0.0000 -0.5556
vn 0.0000 0.0000 -1.0000
vn 0.7934 0.0000 0.6088
vn 0.8660 0.0000 0.5000
vn 0.8315 0.0000 0.5556
vn -0.5553 0.0113 -0.8316
vn 0.9659 0.0000 0.2588
vn 0.9914 0.0000 0.1305
vn -0.9239 0.0000 -0.3827
vn -0.9659 0.0000 -0.2588
vn -0.8969 -0.0000 -0.4423
vn -0.8660 -0.0000 -0.5000
vn -0.7934 0.0000 -0.6088
vn 0.9239 0.0000 0.3827
vn 0.8969 0.0000 0.4423
vn -0.9914 0.0000 -0.1305
vn -0.9979 0.0000 -0.0654
vn 0.9979 0.0000 0.0654
vn -0.7071 0.0000 -0.7071
vn 0.4450 -0.1112 0.8886
vn 0.0000 -1.0000 -0.0000
s 1
f 1/1/1 2/2/1 3/3/1
f 2/2/1 1/1/1 4/4/1
f 4/4/1 1/1/1 5/5/1
f 5/5/1 1/1/1 6/6/1
f 6/6/1 1/1/1 7/7/1
f 7/7/1 1/1/1 8/8/1
f 7/7/1 8/8/1 9/9/1
f 7/7/1 9/9/1 10/10/1
f 7/7/1 10/10/1 11/11/1
f 11/11/1 10/10/1 12/12/1
f 11/11/1 12/12/1 13/13/1
f 11/11/1 13/13/1 14/14/1
f 14/14/1 13/13/1 15/15/1
f 14/14/1 15/15/1 16/16/1
f 16/16/1 15/15/1 17/17/1
f 16/16/1 17/17/1 18/18/1
f 16/16/1 18/18/1 19/19/1
f 19/19/1 18/18/1 20/20/1
f 19/19/1 20/20/1 21/21/1
f 21/21/1 20/20/1 22/22/1
f 21/21/1 22/22/1 23/23/1
f 23/23/1 22/22/1 24/24/1
f 23/23/1 24/24/1 25/25/1
f 25/25/1 24/24/1 26/26/1
f 22/27/2 27/28/3 28/29/2
f 27/28/3 22/27/2 20/30/3
f 26/31/4 29/32/5 30/33/4
f 29/32/5 26/31/4 24/34/5
f 31/35/1 32/36/1 33/37/1
f 32/36/1 31/35/1 34/38/1
f 34/38/1 31/35/1 35/39/1
f 35/39/1 31/35/1 36/40/1
f 35/39/1 36/40/1 37/41/1
f 37/41/1 36/40/1 38/42/1
f 37/41/1 38/42/1 39/43/1
f 37/41/1 39/43/1 40/44/1
f 40/44/1 39/43/1 41/45/1
f 40/44/1 41/45/1 42/46/1
f 40/44/1 42/46/1 43/47/1
f 43/47/1 42/46/1 44/48/1
f 43/47/1 44/48/1 45/49/1
f 45/49/1 44/48/1 46/50/1
f 45/49/1 46/50/1 47/51/1
f 47/51/1 46/50/1 48/52/1
f 47/51/1 48/52/1 49/53/1
f 49/53/1 48/52/1 50/54/1
f 49/53/1 50/54/1 51/55/1
f 51/55/1 50/54/1 52/56/1
f 51/55/1 52/56/1 53/57/1
f 53/57/1 52/56/1 54/58/1
f 53/57/1 54/58/1 55/59/1
f 55/59/1 54/58/1 56/60/1
f 24/34/5 28/29/2 29/32/5
f 28/29/2 24/34/5 22/27/2
f 27/61/3 57/62/6 58/63/7
f 57/64/6 27/28/3 20/30/3
f 57/64/6 20/30/3 18/65/6
f 18/65/6 59/66/8 57/64/6
f 59/66/8 18/65/6 17/67/8
f 53/68/9 60/69/10 61/70/9
f 60/69/10 53/68/9 55/71/10
f 43/72/11 62/73/12 63/74/11
f 62/73/12 43/72/11 45/75/12
f 49/76/13 64/77/14 65/78/13
f 64/77/14 49/76/13 51/79/14
f 60/80/15 56/81/15 66/82/15
f 56/81/15 60/80/15 55/83/15
f 47/84/16 65/78/13 67/85/16
f 65/78/13 47/84/16 49/76/13
f 62/86/12 67/87/16 68/88/17
f 67/85/16 62/73/12 45/75/12
f 67/85/16 45/75/12 47/84/16
f 51/79/14 61/70/9 64/77/14
f 61/70/9 51/79/14 53/68/9
f 31/89/18 69/90/18 70/91/18
f 69/90/18 31/89/18 33/92/18
f 40/93/19 71/94/20 37/95/20
f 71/94/20 40/93/19 72/96/21
f 72/96/21 40/93/19 73/97/19
f 74/98/6 75/99/8 76/100/22
f 75/101/8 74/102/6 48/103/6
f 75/101/8 48/103/6 46/104/8
f 34/105/23 77/106/24 32/107/24
f 77/106/24 34/105/23 78/108/23
f 50/109/3 74/102/6 79/110/3
f 74/102/6 50/109/3 48/103/6
f 80/111/25 9/112/26 81/113/26
f 9/112/26 80/111/25 10/114/25
f 56/81/4 82/115/5 66/82/4
f 82/115/5 56/81/4 54/116/5
f 83/117/27 10/114/25 80/111/25
f 10/114/25 83/117/27 12/118/28
f 12/118/28 83/117/27 84/119/28
f 85/120/29 12/118/28 84/119/28
f 12/118/28 85/120/29 13/121/29
f 6/122/20 86/123/30 5/124/30
f 86/123/30 6/122/20 87/125/31
f 87/125/31 6/122/20 88/126/20
f 89/127/25 38/128/26 90/129/26
f 38/128/26 89/127/25 39/130/25
f 43/72/11 73/97/19 40/93/19
f 73/97/19 43/72/11 63/74/11
f 91/131/28 39/130/25 89/127/25
f 39/130/25 91/131/28 41/132/28
f 54/116/5 92/133/2 82/115/5
f 92/133/2 54/116/5 52/134/2
f 93/135/32 31/89/33 70/91/33
f 31/89/33 93/135/32 36/136/32
f 52/134/2 79/110/3 92/133/2
f 79/110/3 52/134/2 50/109/3
f 32/107/24 69/137/34 33/138/34
f 69/137/34 32/107/24 77/106/24
f 90/129/26 36/136/32 93/135/32
f 36/136/32 90/129/26 38/128/26
f 94/139/17 41/132/28 91/131/28
f 41/132/28 94/139/17 42/140/29
f 42/140/29 94/139/17 95/141/29
f 35/142/30 78/108/23 34/105/23
f 78/108/23 35/142/30 96/143/30
f 97/144/35 42/140/29 95/141/29
f 42/140/29 97/144/35 44/145/35
f 46/104/8 97/144/35 75/101/8
f 97/144/35 46/104/8 44/145/35
f 37/95/20 96/143/30 35/142/30
f 96/143/30 37/95/20 71/94/20
f 21/146/14 98/147/9 99/148/14
f 98/147/9 21/146/14 23/149/9
f 11/150/11 100/151/12 101/152/11
f 100/151/12 11/150/11 14/153/12
f 5/124/30 102/154/23 4/155/23
f 102/154/23 5/124/30 86/123/30
f 103/156/32 1/157/33 104/158/33
f 1/157/33 103/156/32 8/159/32
f 81/113/26 8/159/32 103/156/32
f 8/159/32 81/113/26 9/112/26
f 14/153/12 105/160/16 100/151/12
f 105/160/16 14/153/12 16/161/16
f 7/162/19 88/126/20 6/122/20
f 88/126/20 7/162/19 106/163/19
f 11/150/11 106/163/19 7/162/19
f 106/163/19 11/150/11 101/152/11
f 105/164/16 107/165/13 108/166/36
f 107/167/13 105/160/16 16/161/16
f 107/167/13 16/161/16 19/168/13
f 2/169/24 109/170/34 3/171/34
f 109/170/34 2/169/24 110/172/24
f 111/173/15 26/31/15 30/33/15
f 26/31/15 111/173/15 25/174/15
f 19/168/13 99/148/14 107/167/13
f 99/148/14 19/168/13 21/146/14
f 1/157/18 109/175/18 104/158/18
f 109/175/18 1/157/18 3/176/18
f 112/177/35 13/121/29 85/120/29
f 13/121/29 112/177/35 15/178/35
f 23/149/9 111/179/10 98/147/9
f 111/179/10 23/149/9 25/180/10
f 17/67/8 112/177/35 59/66/8
f 112/177/35 17/67/8 15/178/35
f 4/155/23 110/172/24 2/169/24
f 110/172/24 4/155/23 102/154/23
f 110/181/37 104/182/37 109/183/37
f 104/182/37 110/181/37 102/184/37
f 104/182/37 102/184/37 86/185/37
f 104/182/37 86/185/37 87/186/37
f 104/182/37 87/186/37 88/187/37
f 104/182/37 88/187/37 106/188/37
f 104/182/37 106/188/37 103/189/37
f 103/189/37 106/188/37 81/190/37
f 81/190/37 106/188/37 80/191/37
f 80/191/37 106/188/37 101/192/37
f 80/191/37 101/192/37 83/193/37
f 83/193/37 101/192/37 84/194/37
f 84/194/37 101/192/37 85/195/37
f 85/195/37 101/192/37 100/196/37
f 85/195/37 100/196/37 112/197/37
f 112/197/37 100/196/37 105/164/37
f 112/197/37 105/164/37 59/198/37
f 59/198/37 105/164/37 57/62/37
f 57/62/37 105/164/37 108/166/37
f 57/62/37 108/166/37 107/165/37
f 57/62/37 107/165/37 58/63/37
f 58/63/37 107/165/37 99/199/37
f 58/63/37 99/199/37 27/61/37
f 27/61/37 99/199/37 28/200/37
f 28/200/37 99/199/37 98/201/37
f 28/200/37 98/201/37 29/202/37
f 29/202/37 98/201/37 111/203/37
f 29/202/37 111/203/37 30/204/37
f 77/205/37 70/206/37 69/207/37
f 70/206/37 77/205/37 78/208/37
f 70/206/37 78/208/37 96/209/37
f 70/206/37 96/209/37 93/210/37
f 93/210/37 96/209/37 71/211/37
f 93/210/37 71/211/37 90/212/37
f 90/212/37 71/211/37 89/213/37
f 89/213/37 71/211/37 72/214/37
f 89/213/37 72/214/37 91/215/37
f 91/215/37 72/214/37 73/216/37
f 91/215/37 73/216/37 94/217/37
f 94/217/37 73/216/37 63/218/37
f 94/217/37 63/218/37 95/219/37
f 95/219/37 63/218/37 97/220/37
f 97/220/37 63/218/37 62/86/37
f 97/220/37 62/86/37 75/221/37
f 75/221/37 62/86/37 68/88/37
f 75/221/37 68/88/37 67/87/37
f 75/221/37 67/87/37 76/222/37
f 76/222/37 67/87/37 74/223/37
f 74/223/37 67/87/37 65/224/37
f 74/223/37 65/224/37 79/225/37
f 79/225/37 65/224/37 64/226/37
f 79/225/37 64/226/37 92/227/37
f 92/227/37 64/226/37 61/228/37
f 92/227/37 61/228/37 82/229/37
f 82/229/37 61/228/37 60/230/37
f 82/229/37 60/230/37 66/231/37
