# Blender v2.92.0 OBJ File: 'OGConvert.blend'
# www.blender.org
o tree_pineSmallA
v -2.000000 1.600000 -1.200000
v -1.200000 2.400000 -2.000000
v -1.200000 1.600000 -2.000000
v -2.000000 2.400000 -1.200000
v 1.200000 2.400000 2.000000
v 2.000000 1.600000 1.200000
v 2.000000 2.400000 1.200000
v 1.200000 1.600000 2.000000
v -2.000000 1.600000 1.200000
v -2.000000 2.400000 1.200000
v -1.200000 1.600000 2.000000
v -1.200000 2.400000 2.000000
v 2.000000 2.400000 -1.200000
v 1.200000 1.600000 -2.000000
v 1.200000 2.400000 -2.000000
v 2.000000 1.600000 -1.200000
v -0.654720 4.000000 1.091200
v -1.091200 4.000000 0.654720
v 0.654720 4.000000 1.091200
v 1.091200 4.000000 0.654720
v -0.654720 4.000000 -1.091200
v 0.654720 4.000000 -1.091200
v -1.091200 4.000000 -0.654720
v 1.091200 4.000000 -0.654720
v 0.864000 4.576000 1.440000
v -0.864000 4.000000 1.440000
v 0.864000 4.000000 1.440000
v -0.864000 4.576000 1.440000
v -1.440000 4.000000 -0.864000
v -0.864000 4.576000 -1.440000
v -0.864000 4.000000 -1.440000
v -1.440000 4.576000 -0.864000
v 0.633600 5.728000 0.380160
v 1.440000 4.576000 0.864000
v 0.380160 5.728000 0.633600
v -1.440000 4.576000 0.864000
v -1.440000 4.000000 0.864000
v -0.633600 5.728000 0.380160
v -0.380160 5.728000 0.633600
v 1.440000 4.576000 -0.864000
v 0.864000 4.000000 -1.440000
v 0.864000 4.576000 -1.440000
v 1.440000 4.000000 -0.864000
v 1.440000 4.000000 0.864000
v 0.443919 1.600000 0.443919
v -0.443919 1.600000 0.443919
v -0.443919 1.600000 -0.443919
v 0.443919 1.600000 -0.443919
v -0.633600 5.728000 -0.380160
v -0.380160 5.728000 -0.633600
v 0.633600 5.728000 -0.380160
v 0.380160 5.728000 -0.633600
v -1.008000 5.728000 -0.604800
v -0.604800 6.131200 -1.008000
v -0.604800 5.728000 -1.008000
v -1.008000 6.131200 -0.604800
v 1.008000 6.131200 -0.604800
v 0.604800 5.728000 -1.008000
v 0.604800 6.131200 -1.008000
v 1.008000 5.728000 -0.604800
v 0.604800 6.131200 1.008000
v -0.604800 5.728000 1.008000
v 0.604800 5.728000 1.008000
v -0.604800 6.131200 1.008000
v -1.008000 5.728000 0.604800
v -1.008000 6.131200 0.604800
v 1.008000 5.728000 0.604800
v 0.188940 7.737600 0.314900
v 1.008000 6.131200 0.604800
v 0.314899 7.737600 0.188940
v 0.188940 7.737600 -0.314899
v 0.314899 7.737600 -0.188939
v -0.188940 7.737600 -0.314899
v -0.188940 7.737600 0.314900
v -0.314899 7.737600 -0.188939
v -0.314899 7.737600 0.188940
v -0.746671 -0.000000 0.746671
v 0.746671 0.000000 -0.746671
v 0.746671 -0.000000 0.746671
v -0.746671 0.000000 -0.746671
v 0.506067 0.800000 -0.506067
v -0.506067 0.800000 -0.506067
v 0.506067 0.800000 0.506068
v -0.506067 0.800000 0.506068
vt 0.784514 0.070603
vt 0.706722 0.003895
vt 0.772302 0.003895
vt 0.718934 0.070603
vt 0.155591 0.612055
vt 0.208960 0.678763
vt 0.143379 0.678763
vt 0.221172 0.612055
vt 0.784514 0.270726
vt 0.718934 0.270726
vt 0.221172 0.411931
vt 0.155591 0.411931
vt 0.294542 0.411931
vt 0.241174 0.345224
vt 0.306754 0.345224
vt 0.228962 0.411931
vt 0.143379 0.345224
vt 0.208960 0.345224
vt 0.294542 0.612055
vt 0.228962 0.612055
vt 0.410062 0.070603
vt 0.345224 0.270726
vt 0.345224 0.070603
vt 0.410062 0.270726
vt 0.010558 0.457399
vt 0.003895 0.421004
vt 0.446239 0.602983
vt 0.439576 0.566587
vt 0.010558 0.566587
vt 0.557554 0.116071
vt 0.557554 0.225258
vt 0.573900 0.116071
vt 0.573900 0.225258
vt 0.439576 0.457400
vt 0.566110 0.079675
vt 0.425745 0.003895
vt 0.733259 0.785280
vt 0.780477 0.641191
vt 0.780477 0.785280
vt 0.733259 0.641191
vt 0.855930 0.393253
vt 0.799919 0.345224
vt 0.847137 0.345224
vt 0.808712 0.393253
vt 0.622645 0.766068
vt 0.724467 0.833310
vt 0.626514 0.744935
vt 0.724467 0.593161
vt 0.771685 0.593161
vt 0.446239 0.619845
vt 0.446239 0.751772
vt 0.427957 0.631129
vt 0.622645 0.660403
vt 0.895013 0.737250
vt 0.933438 0.785280
vt 0.886220 0.785280
vt 0.942231 0.737250
vt 0.646147 0.345224
vt 0.628696 0.374308
vt 0.502058 0.345224
vt 0.694177 0.393253
vt 0.665092 0.410704
vt 0.694177 0.537342
vt 0.665092 0.519891
vt 0.628696 0.556287
vt 0.646147 0.585372
vt 0.519509 0.556287
vt 0.519509 0.374308
vt 0.454028 0.393253
vt 0.483113 0.410704
vt 0.454028 0.537342
vt 0.483113 0.519891
vt 0.502058 0.585372
vt 0.425745 0.337434
vt 0.566110 0.261654
vt 0.337434 0.070603
vt 0.070603 0.003895
vt 0.270726 0.003895
vt 0.003895 0.070603
vt 0.207680 0.133648
vt 0.337434 0.270726
vt 0.207680 0.207680
vt 0.133648 0.207680
vt 0.133648 0.133648
vt 0.003895 0.270726
vt 0.270726 0.337434
vt 0.070603 0.337434
vt 0.895013 0.593161
vt 0.942231 0.593161
vt 0.771685 0.833310
vt 0.808712 0.537342
vt 0.701966 0.433598
vt 0.701966 0.496997
vt 0.568172 0.785280
vt 0.454028 0.766068
vt 0.458997 0.744935
vt 0.556880 0.833310
vt 0.568172 0.641191
vt 0.454028 0.660403
vt 0.556880 0.593161
vt 0.458997 0.681536
vt 0.626514 0.681536
vt 0.855930 0.537342
vt 0.788267 0.696905
vt 0.788267 0.633506
vt 0.889129 0.968388
vt 0.922750 0.929181
vt 0.922750 0.962233
vt 0.889129 0.935335
vt 0.614855 0.641191
vt 0.614855 0.785280
vt 0.262582 0.948830
vt 0.228962 0.975728
vt 0.228962 0.942675
vt 0.262582 0.981882
vt 0.138378 0.719605
vt 0.037516 0.686552
vt 0.138378 0.686552
vt 0.037516 0.719605
vt 0.788267 0.968388
vt 0.788267 0.935335
vt 0.363445 0.652523
vt 0.262582 0.619845
vt 0.363445 0.619845
vt 0.262582 0.652523
vt 0.960408 0.037516
vt 0.825925 0.003895
vt 0.926787 0.003895
vt 0.908055 0.035114
vt 0.929188 0.056247
vt 0.960408 0.138378
vt 0.929188 0.119646
vt 0.908055 0.140779
vt 0.926787 0.171999
vt 0.844656 0.140779
vt 0.844656 0.035114
vt 0.792304 0.037516
vt 0.823523 0.056247
vt 0.792304 0.138378
vt 0.823523 0.119646
vt 0.825925 0.171999
vt 0.103701 0.861871
vt 0.171999 0.725760
vt 0.114204 0.863794
vt 0.297259 0.796305
vt 0.228962 0.660427
vt 0.286756 0.798774
vt 0.573900 0.320528
vt 0.615912 0.331031
vt 0.584403 0.331031
vt 0.626416 0.320528
vt 0.573900 0.289019
vt 0.626416 0.289019
vt 0.584403 0.278516
vt 0.615912 0.278516
vt 0.003895 0.725760
vt 0.003895 0.692707
vt 0.363445 0.948830
vt 0.363445 0.981882
vt 0.171999 0.692707
vt 0.297259 0.806564
vt 0.328768 0.806564
vt 0.328768 0.796305
vt 0.854453 0.793070
vt 0.822943 0.793070
vt 0.072192 0.861871
vt 0.061689 0.863794
vt 0.397065 0.660427
vt 0.339271 0.798774
vt 0.003895 0.996105
vt 0.128417 0.871583
vt 0.128417 0.996105
vt 0.003895 0.871583
vt 0.962996 0.480835
vt 0.883782 0.414778
vt 0.968179 0.414778
vt 0.888964 0.480835
vt 0.812367 0.246317
vt 0.916826 0.315571
vt 0.792304 0.315571
vt 0.896763 0.246317
vt 0.558488 0.910353
vt 0.454028 0.841099
vt 0.578550 0.841099
vt 0.474091 0.910353
vt 0.863719 0.345224
vt 0.988241 0.345224
vt 0.817549 0.179788
vt 0.891581 0.179788
vt 0.710862 0.841099
vt 0.606403 0.910353
vt 0.586340 0.841099
vt 0.690799 0.910353
vt 0.553306 0.976882
vt 0.479273 0.976882
vt 0.611585 0.976882
vt 0.685617 0.976882
vn -0.7071 0.0000 -0.7071
vn 0.7071 0.0000 0.7071
vn -1.0000 0.0000 0.0000
vn 0.0000 0.0000 1.0000
vn 0.7071 0.0000 -0.7071
vn -0.7071 0.0000 0.7071
vn 1.0000 0.0000 0.0000
vn 0.0000 0.0000 -1.0000
vn -0.5949 0.5406 0.5949
vn 0.5949 0.5406 0.5949
vn 0.0000 0.4939 -0.8695
vn -0.8695 0.4939 0.0000
vn 0.8695 0.4939 0.0000
vn 0.0000 0.4939 0.8695
vn -0.5949 0.5406 -0.5949
vn 0.5543 0.6208 0.5543
vn -0.5543 0.6208 0.5543
vn 0.0000 -1.0000 0.0000
vn 0.5949 0.5406 -0.5949
vn -0.8192 0.5735 0.0000
vn -0.5543 0.6208 -0.5543
vn 0.5543 0.6208 -0.5543
vn 0.0000 0.5735 0.8192
vn 0.0000 0.5735 -0.8192
vn 0.8192 0.5735 0.0000
vn 0.6354 0.4387 0.6354
vn 0.6354 0.4387 -0.6354
vn 0.0000 1.0000 0.0000
vn 0.9182 0.3962 0.0000
vn 0.0000 0.3962 -0.9182
vn -0.9182 0.3962 0.0000
vn 0.0000 0.3962 0.9182
vn -0.6354 0.4387 0.6354
vn -0.6354 0.4387 -0.6354
vn 0.0000 0.0775 -0.9970
vn 0.0000 0.2880 0.9576
vn 0.9576 0.2880 0.0000
vn 0.0000 0.2880 -0.9576
vn 0.0000 0.0775 0.9970
vn -0.9576 0.2880 0.0000
vn 0.9970 0.0775 0.0000
vn -0.9970 0.0775 0.0000
s 1
f 1/1/1 2/2/1 3/3/1
f 2/2/1 1/1/1 4/4/1
f 5/5/2 6/6/2 7/7/2
f 6/6/2 5/5/2 8/8/2
f 9/9/3 4/4/3 1/1/3
f 4/4/3 9/9/3 10/10/3
f 5/5/4 11/11/4 8/8/4
f 11/11/4 5/5/4 12/12/4
f 13/13/5 14/14/5 15/15/5
f 14/14/5 13/13/5 16/16/5
f 11/11/6 10/17/6 9/18/6
f 10/17/6 11/11/6 12/12/6
f 7/19/7 16/16/7 13/13/7
f 16/16/7 7/19/7 6/20/7
f 2/21/8 14/22/8 3/23/8
f 14/22/8 2/21/8 15/24/8
f 17/25/9 10/17/9 12/12/9
f 10/17/9 17/25/9 18/26/9
f 19/27/10 7/19/10 20/28/10
f 7/7/10 19/29/10 5/5/10
f 21/30/11 15/24/11 2/21/11
f 15/24/11 21/30/11 22/31/11
f 10/10/12 23/32/12 4/4/12
f 23/32/12 10/10/12 18/33/12
f 24/34/13 7/19/13 13/13/13
f 7/19/13 24/34/13 20/28/13
f 19/29/14 12/12/14 5/5/14
f 12/12/14 19/29/14 17/25/14
f 23/35/15 2/21/15 4/36/15
f 2/21/15 23/35/15 21/30/15
f 25/37/4 26/38/4 27/39/4
f 26/38/4 25/37/4 28/40/4
f 29/41/1 30/42/1 31/43/1
f 30/42/1 29/41/1 32/44/1
f 33/45/16 25/37/16 34/46/16
f 25/37/16 33/45/16 35/47/16
f 26/38/6 36/48/6 37/49/6
f 36/48/6 26/38/6 28/40/6
f 38/50/17 28/51/17 39/52/17
f 28/40/17 38/53/17 36/48/17
f 40/54/5 41/55/5 42/56/5
f 41/55/5 40/54/5 43/57/5
f 44/58/18 20/59/18 43/60/18
f 20/59/18 44/58/18 27/61/18
f 20/59/18 27/61/18 19/62/18
f 19/62/18 27/61/18 26/63/18
f 19/62/18 26/63/18 17/64/18
f 17/64/18 26/63/18 18/65/18
f 18/65/18 26/63/18 37/66/18
f 18/65/18 37/66/18 23/67/18
f 24/68/18 43/60/18 20/59/18
f 43/60/18 24/68/18 41/69/18
f 41/69/18 24/68/18 22/70/18
f 41/69/18 22/70/18 31/71/18
f 31/71/18 22/70/18 21/72/18
f 31/71/18 21/72/18 23/67/18
f 31/71/18 23/67/18 29/73/18
f 29/73/18 23/67/18 37/66/18
f 22/31/19 13/74/19 15/24/19
f 13/74/19 22/31/19 24/75/19
f 8/76/18 16/77/18 6/78/18
f 16/77/18 8/76/18 14/79/18
f 14/79/18 8/76/18 45/80/18
f 45/80/18 8/76/18 11/81/18
f 45/80/18 11/81/18 46/82/18
f 46/82/18 11/81/18 47/83/18
f 48/84/18 14/79/18 45/80/18
f 14/79/18 48/84/18 3/85/18
f 3/85/18 48/84/18 47/83/18
f 3/85/18 47/83/18 11/81/18
f 3/85/18 11/81/18 9/86/18
f 3/85/18 9/86/18 1/87/18
f 34/88/7 43/57/7 40/54/7
f 43/57/7 34/88/7 44/89/7
f 25/37/2 44/90/2 34/46/2
f 44/90/2 25/37/2 27/39/2
f 36/91/20 49/92/20 32/44/20
f 49/92/20 36/91/20 38/93/20
f 30/94/21 49/95/21 50/96/21
f 49/95/21 30/94/21 32/97/21
f 42/98/22 51/99/22 40/100/22
f 51/99/22 42/98/22 52/101/22
f 35/47/23 28/40/23 25/37/23
f 28/40/23 35/47/23 39/102/23
f 37/103/3 32/44/3 29/41/3
f 32/44/3 37/103/3 36/91/3
f 50/96/24 42/98/24 30/94/24
f 42/98/24 50/96/24 52/101/24
f 51/104/25 34/88/25 40/54/25
f 34/88/25 51/104/25 33/105/25
f 53/106/1 54/107/1 55/108/1
f 54/107/1 53/106/1 56/109/1
f 30/94/8 41/110/8 31/111/8
f 41/110/8 30/94/8 42/98/8
f 57/112/5 58/113/5 59/114/5
f 58/113/5 57/112/5 60/115/5
f 61/116/4 62/117/4 63/118/4
f 62/117/4 61/116/4 64/119/4
f 65/120/3 56/109/3 53/106/3
f 56/109/3 65/120/3 66/121/3
f 54/122/8 58/123/8 55/124/8
f 58/123/8 54/122/8 59/125/8
f 63/126/18 60/127/18 67/128/18
f 60/127/18 63/126/18 33/129/18
f 33/129/18 63/126/18 35/130/18
f 35/130/18 63/126/18 62/131/18
f 35/130/18 62/131/18 39/132/18
f 39/132/18 62/131/18 38/133/18
f 38/133/18 62/131/18 65/134/18
f 38/133/18 65/134/18 49/135/18
f 51/136/18 60/127/18 33/129/18
f 60/127/18 51/136/18 58/137/18
f 58/137/18 51/136/18 52/138/18
f 58/137/18 52/138/18 55/139/18
f 55/139/18 52/138/18 50/140/18
f 55/139/18 50/140/18 49/135/18
f 55/139/18 49/135/18 53/141/18
f 53/141/18 49/135/18 65/134/18
f 68/142/26 69/143/26 70/144/26
f 69/143/26 68/142/26 61/116/26
f 71/145/27 57/146/27 59/125/27
f 57/146/27 71/145/27 72/147/27
f 71/148/28 70/149/28 72/150/28
f 70/149/28 71/148/28 68/151/28
f 68/151/28 71/148/28 73/152/28
f 68/151/28 73/152/28 74/153/28
f 74/153/28 73/152/28 75/154/28
f 74/153/28 75/154/28 76/155/28
f 62/117/6 66/156/6 65/157/6
f 66/156/6 62/117/6 64/119/6
f 69/158/7 60/115/7 57/112/7
f 60/115/7 69/158/7 67/159/7
f 61/116/2 67/160/2 69/143/2
f 67/160/2 61/116/2 63/118/2
f 72/161/29 69/158/29 57/112/29
f 69/158/29 72/161/29 70/162/29
f 73/163/30 59/125/30 54/122/30
f 59/125/30 73/163/30 71/145/30
f 66/121/31 75/164/31 56/109/31
f 75/164/31 66/121/31 76/165/31
f 68/142/32 64/119/32 61/116/32
f 64/119/32 68/142/32 74/166/32
f 66/156/33 74/166/33 76/167/33
f 74/166/33 66/156/33 64/119/33
f 56/168/34 73/163/34 54/122/34
f 73/163/34 56/168/34 75/169/34
f 77/170/18 78/171/18 79/172/18
f 78/171/18 77/170/18 80/173/18
f 47/174/35 81/175/35 82/176/35
f 81/175/35 47/174/35 48/177/35
f 83/178/36 77/179/36 79/180/36
f 77/179/36 83/178/36 84/181/36
f 81/182/37 79/183/37 78/184/37
f 79/183/37 81/182/37 83/185/37
f 82/176/38 78/186/38 80/187/38
f 78/186/38 82/176/38 81/175/38
f 45/188/39 84/181/39 83/178/39
f 84/181/39 45/188/39 46/189/39
f 77/190/40 82/191/40 80/192/40
f 82/191/40 77/190/40 84/193/40
f 48/194/41 83/185/41 81/182/41
f 83/185/41 48/194/41 45/195/41
f 84/193/42 47/196/42 82/191/42
f 47/196/42 84/193/42 46/197/42
