# Blender v2.92.0 OBJ File: 'OGConvert.blend'
# www.blender.org
o utensilKnife
v -2.234329 0.000000 -0.182088
v -2.403073 -0.000000 0.064556
v -2.234329 -0.000000 0.311200
v -1.482656 0.142400 0.277866
v -1.482656 0.142400 -0.148754
v 0.240583 -0.000000 0.168800
v 0.240583 0.000000 -0.039688
v 2.403073 -0.000000 0.168800
v 1.250794 0.000000 -0.311200
v 1.901622 0.000000 -0.191200
v 2.403073 -0.000000 0.076628
vt 0.004923 0.036993
vt 0.055148 0.000327
vt 0.107528 0.033841
vt 0.105417 0.191048
vt 0.016679 0.193774
vt 0.093716 0.549401
vt 0.050350 0.550733
vt 0.107528 0.999084
vt 0.000327 0.762538
vt 0.029445 0.897109
vt 0.088356 0.999673
vn 0.0000 1.0000 0.0000
vn -0.1861 0.9825 0.0000
vn 0.0824 0.9966 0.0000
s 1
f 1/1/1 2/2/1 3/3/1
f 4/4/2 1/1/2 3/3/2
f 1/1/2 4/4/2 5/5/2
f 6/6/3 5/5/3 4/4/3
f 5/5/3 6/6/3 7/7/3
f 8/8/1 7/7/1 6/6/1
f 7/7/1 8/8/1 9/9/1
f 9/9/1 8/8/1 10/10/1
f 10/10/1 8/8/1 11/11/1
