# Blender v2.92.0 OBJ File: 'OGConvert.blend'
# www.blender.org
o wallB_flatGarage
v -4.000000 8.000000 0.000000
v -2.799999 0.000000 0.000000
v -4.000000 0.000000 0.000000
v -2.799999 5.360000 0.000000
v 2.799999 5.360000 0.000000
v 4.000000 8.000000 0.000000
v 4.000000 0.000000 0.000000
v 2.799999 0.000000 0.000000
v -2.799999 5.360000 0.799999
v 2.799999 5.360000 0.799999
v -2.799999 -0.000000 0.799999
v 2.799999 -0.000000 0.799999
vt 0.001469 0.001469
vt 0.090761 0.596753
vt 0.001469 0.596753
vt 0.090761 0.197913
vt 0.507461 0.197913
vt 0.596753 0.001469
vt 0.596753 0.596753
vt 0.507461 0.596753
vt 0.599691 0.421105
vt 0.659219 0.837804
vt 0.599691 0.837804
vt 0.659219 0.421105
vt 0.662156 0.819946
vt 0.721685 0.421105
vt 0.721685 0.819946
vt 0.662156 0.421105
vt 0.724622 0.819946
vt 0.784150 0.421105
vt 0.784150 0.819946
vt 0.724622 0.421105
vt 0.998531 0.001469
vt 0.599691 0.418168
vt 0.599691 0.001469
vt 0.998531 0.418168
vn 0.0000 0.0000 -1.0000
vn 0.0000 -1.0000 0.0000
vn 1.0000 -0.0000 0.0000
vn -1.0000 -0.0000 0.0000
s 1
f 1/1/1 2/2/1 3/3/1
f 2/2/1 1/1/1 4/4/1
f 4/4/1 1/1/1 5/5/1
f 6/6/1 5/5/1 1/1/1
f 7/7/1 5/5/1 6/6/1
f 5/5/1 7/7/1 8/8/1
f 9/9/2 5/10/2 10/11/2
f 5/10/2 9/9/2 4/12/2
f 9/13/3 2/14/3 4/15/3
f 2/14/3 9/13/3 11/16/3
f 12/17/4 5/18/4 8/19/4
f 5/18/4 12/17/4 10/20/4
f 9/21/1 12/22/1 11/23/1
f 12/22/1 9/21/1 10/24/1
