# Blender v2.92.0 OBJ File: 'OGConvert.blend'
# www.blender.org
o wallB_roofSlant
v 4.000000 4.000000 4.000000
v 4.000000 0.000000 -4.000000
v 4.000000 4.000000 -4.000000
v 4.000000 -0.000000 4.000000
v -4.000000 0.000000 -4.000000
v -4.000000 -0.000000 4.000000
vt 0.236177 0.998043
vt 0.001958 0.529603
vt 0.236177 0.529603
vt 0.001957 0.998043
vt 0.683804 0.998043
vt 0.474312 0.893296
vt 0.683804 0.474312
vt 0.897211 0.474312
vt 0.897211 0.998042
vt 0.687719 0.579058
vt 0.470397 0.525688
vt 0.001957 0.001957
vt 0.470397 0.001957
vt 0.001957 0.525688
vt 0.474312 0.470397
vt 0.942751 0.001958
vt 0.942751 0.470397
vt 0.474312 0.001957
vn 1.0000 -0.0000 0.0000
vn 0.0000 0.0000 -1.0000
vn 0.0000 0.0000 1.0000
vn -0.4472 0.8944 0.0000
vn 0.0000 -1.0000 -0.0000
s 1
f 1/1/1 2/2/1 3/3/1
f 2/2/1 1/1/1 4/4/1
f 3/5/2 2/6/2 5/7/2
f 1/8/3 6/9/3 4/10/3
f 5/11/4 1/12/4 3/13/4
f 1/12/4 5/11/4 6/14/4
f 6/15/5 2/16/5 4/17/5
f 2/16/5 6/15/5 5/18/5
