# Blender v2.92.0 OBJ File: 'OGConvert.blend'
# www.blender.org
o wallSteps_typeA
v 4.000000 3.200000 0.280001
v 4.000000 0.000000 -0.280001
v 4.000000 3.200000 -0.280001
v 4.000000 -0.000000 0.280001
v -4.000000 -0.000000 0.280001
v -3.405739 0.640000 0.280001
v 0.354260 2.000000 0.280001
v -2.205738 1.200000 0.280001
v 1.154258 2.640000 0.280001
v 1.154258 3.200000 0.280001
v 0.354260 2.640000 0.280001
v -2.205738 2.000000 0.280001
v -3.405739 1.200000 0.280001
v -4.000000 0.640000 0.280001
v -4.000000 0.640000 -0.280001
v -4.000000 0.000000 -0.280001
v -3.405739 0.640000 -0.280001
v 0.354260 2.000000 -0.280001
v -2.205738 1.200000 -0.280001
v -3.405739 1.200000 -0.280001
v -2.205738 2.000000 -0.280001
v 1.154258 2.640000 -0.280001
v 0.354260 2.640000 -0.280001
v 1.154258 3.200000 -0.280001
vt 0.857281 0.388510
vt 0.924826 0.002543
vt 0.924826 0.388510
vt 0.857281 0.002543
vt 0.388510 0.002543
vt 0.002543 0.967460
vt 0.002543 0.002543
vt 0.079737 0.895783
vt 0.243772 0.442273
vt 0.147281 0.751046
vt 0.320966 0.345781
vt 0.388510 0.345781
vt 0.320966 0.442273
vt 0.243772 0.751046
vt 0.147281 0.895783
vt 0.079737 0.967460
vt 0.929912 0.654648
vt 0.997457 0.577455
vt 0.997457 0.654648
vt 0.929912 0.577455
vt 0.470790 0.002543
vt 0.393597 0.967460
vt 0.393597 0.002543
vt 0.470790 0.074220
vt 0.779563 0.967460
vt 0.634826 0.527730
vt 0.538334 0.218957
vt 0.538334 0.074220
vt 0.634826 0.218957
vt 0.712019 0.624222
vt 0.712019 0.527730
vt 0.779563 0.624222
vt 0.924826 0.736835
vt 0.857281 0.393597
vt 0.924826 0.393597
vt 0.857281 0.736835
vt 0.784650 0.002543
vt 0.852194 0.967460
vt 0.784650 0.967460
vt 0.852194 0.002543
vt 0.997456 0.809466
vt 0.929912 0.741921
vt 0.997456 0.741921
vt 0.929912 0.809466
vt 0.997457 0.490088
vt 0.929912 0.393597
vt 0.997457 0.393597
vt 0.929912 0.490088
vt 0.929912 0.572368
vt 0.997457 0.495175
vt 0.997457 0.572368
vt 0.929912 0.495175
vt 0.997457 0.311316
vt 0.929912 0.002543
vt 0.997457 0.002543
vt 0.929912 0.311316
vt 0.857281 0.988237
vt 0.924826 0.891746
vt 0.924826 0.988237
vt 0.857281 0.891746
vt 0.924826 0.886659
vt 0.857281 0.741921
vt 0.924826 0.741921
vt 0.857281 0.886659
vt 0.997456 0.727280
vt 0.929912 0.659735
vt 0.997456 0.659735
vt 0.929912 0.727280
vt 0.929912 0.316833
vt 0.997457 0.388510
vt 0.929912 0.388510
vt 0.997457 0.316833
vn 1.0000 0.0000 0.0000
vn -0.0000 -0.0000 1.0000
vn -1.0000 0.0000 0.0000
vn 0.0000 0.0000 -1.0000
vn 0.0000 1.0000 0.0000
vn 0.0000 -1.0000 -0.0000
s 1
f 1/1/1 2/2/1 3/3/1
f 2/2/1 1/1/1 4/4/1
f 1/5/2 5/6/2 4/7/2
f 5/6/2 1/5/2 6/8/2
f 6/8/2 1/5/2 7/9/2
f 6/8/2 7/9/2 8/10/2
f 7/9/2 1/5/2 9/11/2
f 9/11/2 1/5/2 10/12/2
f 11/13/2 7/9/2 9/11/2
f 12/14/2 8/10/2 7/9/2
f 13/15/2 6/8/2 8/10/2
f 14/16/2 5/6/2 6/8/2
f 5/17/3 15/18/3 16/19/3
f 15/18/3 5/17/3 14/20/3
f 15/21/4 2/22/4 16/23/4
f 2/22/4 15/21/4 17/24/4
f 2/22/4 17/24/4 3/25/4
f 3/25/4 17/24/4 18/26/4
f 18/26/4 17/24/4 19/27/4
f 19/27/4 17/24/4 20/28/4
f 18/26/4 19/27/4 21/29/4
f 3/25/4 18/26/4 22/30/4
f 22/30/4 18/26/4 23/31/4
f 3/25/4 22/30/4 24/32/4
f 24/33/5 1/34/5 3/35/5
f 1/34/5 24/33/5 10/36/5
f 5/37/6 2/38/6 4/39/6
f 2/38/6 5/37/6 16/40/6
f 9/41/3 24/42/3 22/43/3
f 24/42/3 9/41/3 10/44/3
f 23/45/5 9/46/5 22/47/5
f 9/46/5 23/45/5 11/48/5
f 7/49/3 23/50/3 18/51/3
f 23/50/3 7/49/3 11/52/3
f 21/53/5 7/54/5 18/55/5
f 7/54/5 21/53/5 12/56/5
f 8/57/3 21/58/3 19/59/3
f 21/58/3 8/57/3 12/60/3
f 20/61/5 8/62/5 19/63/5
f 8/62/5 20/61/5 13/64/5
f 6/65/3 20/66/3 17/67/3
f 20/66/3 6/65/3 13/68/3
f 15/69/5 6/70/5 17/71/5
f 6/70/5 15/69/5 14/72/5
