# Blender v2.92.0 OBJ File: 'OGConvert.blend'
# www.blender.org
o wallA_window
v -4.000000 8.000000 -4.000000
v 4.000000 8.000000 4.000000
v 4.000000 8.000000 -4.000000
v -4.000000 8.000000 4.000000
v -4.000000 -0.000000 4.000000
v 4.000000 0.000000 -4.000000
v 4.000000 -0.000000 4.000000
v -4.000000 0.000000 -4.000000
v -2.391174 1.608825 -4.000000
v -2.391174 6.391175 -4.000000
v 2.391174 6.391175 -4.000000
v 2.391174 1.608825 -4.000000
v -1.972580 5.972580 -3.200001
v -1.972580 2.027420 -4.000000
v -1.972580 5.972580 -4.000000
v -1.972580 2.027420 -3.200001
v 1.972580 5.972580 -4.000000
v 1.972580 2.027420 -4.000000
v 1.972580 2.027420 -3.200001
v 1.972580 5.972580 -3.200001
vt 0.330909 0.002425
vt 0.002425 0.330909
vt 0.002425 0.002425
vt 0.330909 0.330909
vt 0.002425 0.664242
vt 0.330909 0.335758
vt 0.330909 0.664242
vt 0.002425 0.335758
vt 0.335758 0.002425
vt 0.664242 0.330909
vt 0.335758 0.330909
vt 0.664242 0.002425
vt 0.664242 0.664242
vt 0.335758 0.335758
vt 0.664242 0.335758
vt 0.335758 0.664242
vt 0.997575 0.330909
vt 0.669091 0.002425
vt 0.997575 0.002425
vt 0.669091 0.330909
vt 0.002425 0.997575
vt 0.068484 0.931516
vt 0.330909 0.997575
vt 0.002425 0.669091
vt 0.068484 0.735151
vt 0.264849 0.735151
vt 0.264849 0.931516
vt 0.330909 0.669091
vt 0.669091 0.664588
vt 0.701940 0.502598
vt 0.701940 0.664588
vt 0.669091 0.502598
vt 0.085672 0.914329
vt 0.085672 0.752338
vt 0.247662 0.752338
vt 0.247662 0.914329
vt 0.706789 0.664588
vt 0.739637 0.502598
vt 0.739637 0.664588
vt 0.706789 0.502598
vt 0.777335 0.664588
vt 0.744487 0.502598
vt 0.777335 0.502598
vt 0.744487 0.664588
vt 0.782184 0.502598
vt 0.815033 0.664588
vt 0.782184 0.664588
vt 0.815033 0.502598
vt 0.831082 0.335758
vt 0.669091 0.497748
vt 0.669091 0.335758
vt 0.831082 0.497748
vn 0.0000 1.0000 0.0000
vn 0.0000 -1.0000 -0.0000
vn 0.0000 -0.0000 1.0000
vn -1.0000 0.0000 0.0000
vn 1.0000 0.0000 0.0000
vn 0.0000 0.0000 -1.0000
s 1
f 1/1/1 2/2/1 3/3/1
f 2/2/1 1/1/1 4/4/1
f 5/5/2 6/6/2 7/7/2
f 6/6/2 5/5/2 8/8/2
f 2/9/3 5/10/3 7/11/3
f 5/10/3 2/9/3 4/12/3
f 5/13/4 1/14/4 8/15/4
f 1/14/4 5/13/4 4/16/4
f 2/17/5 6/18/5 3/19/5
f 6/18/5 2/17/5 7/20/5
f 8/21/6 9/22/6 6/23/6
f 9/22/6 8/21/6 1/24/6
f 9/22/6 1/24/6 10/25/6
f 10/25/6 1/24/6 11/26/6
f 12/27/6 6/23/6 9/22/6
f 6/23/6 12/27/6 3/28/6
f 3/28/6 12/27/6 11/26/6
f 3/28/6 11/26/6 1/24/6
f 13/29/5 14/30/5 15/31/5
f 14/30/5 13/29/5 16/32/5
f 9/22/6 14/33/6 12/27/6
f 14/33/6 9/22/6 10/25/6
f 14/33/6 10/25/6 15/34/6
f 15/34/6 10/25/6 17/35/6
f 18/36/6 12/27/6 14/33/6
f 12/27/6 18/36/6 11/26/6
f 11/26/6 18/36/6 17/35/6
f 11/26/6 17/35/6 10/25/6
f 19/37/4 17/38/4 18/39/4
f 17/38/4 19/37/4 20/40/4
f 14/41/1 19/42/1 18/43/1
f 19/42/1 14/41/1 16/44/1
f 13/45/2 17/46/2 20/47/2
f 17/46/2 13/45/2 15/48/2
f 13/49/6 19/50/6 16/51/6
f 19/50/6 13/49/6 20/52/6
