####
#
#	OBJ File Generated by LightWave3D
#	LightWave3D OBJ Export v2.3
#
####
o jims_rabies_swordhull.obj
mtllib jims_rabies_swordhull.mtl
g default
v -0.0680034 0.835991 -0
v 0.0939384 0.917868 -0
v -0.0118763 0.689092 -0.0263591
v 0.038084 0.135425 -0
v -0.0898595 0.135425 -0
v -0.0337324 0.135425 -0.0263591
v -0.00459097 -0.180512 -0.0263591
v -0.0340051 -0.180512 -0
v 0.0332271 -0.180512 -0
v -0.0118763 0.689092 0.0263591
v -0.0337324 0.135425 0.0263591
v -0.00459097 -0.180512 0.0263591
v -0.00995734 0.666453 -0.000467
v -0.00911734 0.653015 -0.000467
v 0.00264161 0.657214 -0.000467
vn -0.946877 0.321594 -5.96336e-008
vn 0.850893 0.525338 -0
vn -0.0575063 0.0304768 -0.99788
vn -0.0575063 0.0304768 -0.99788
vn 0.850893 0.525338 -0
vn 0.999976 -0.00699281 -0
vn -0.0435991 -0.00114798 -0.999048
vn -0.0575063 0.0304768 -0.99788
vn 0.999976 -0.00699281 -0
vn -0.946877 0.321594 -5.96336e-008
vn -0.0575063 0.0304768 -0.99788
vn -0.997793 -0.0663956 -0
vn -0.0575063 0.0304768 -0.99788
vn -0.0435991 -0.00114798 -0.999048
vn -0.997793 -0.0663956 -0
vn -0.0435991 -0.00114798 -0.999048
vn 0.999976 -0.00699281 -0
vn -0.0426308 -0.530714 -0.846478
vn -0.0426308 -0.530714 -0.846478
vn 0.999976 -0.00699281 -0
vn 0.747062 -0.664754 -0
vn -0.0426308 -0.530714 -0.846478
vn -0.997793 -0.0663956 -0
vn -0.0435991 -0.00114798 -0.999048
vn 0.850893 0.525338 -0
vn -0.946877 0.321594 -5.96336e-008
vn -0.0575063 0.0304768 0.99788
vn 0.850893 0.525338 -0
vn -0.0575063 0.0304768 0.99788
vn 0.999976 -0.00699281 -0
vn 0.999976 -0.00699281 -0
vn -0.0575063 0.0304768 0.99788
vn -0.0435991 -0.00114798 0.999048
vn -0.0575063 0.0304768 0.99788
vn -0.997793 -0.0663956 -0
vn -0.0435991 -0.00114798 0.999048
vn -0.0575063 0.0304768 0.99788
vn -0.946877 0.321594 -5.96336e-008
vn -0.997793 -0.0663956 -0
vn 0.747062 -0.664754 -0
vn 0.999976 -0.00699281 -0
vn -0.0426308 -0.530714 0.846478
vn 0.999976 -0.00699281 -0
vn -0.0435991 -0.00114798 0.999048
vn -0.0426308 -0.530714 0.846478
vn -0.731837 -0.68148 -0
vn -0.0426308 -0.530714 0.846478
vn -0.997793 -0.0663956 -0
vn -0.731837 -0.68148 -0
vn -0.0426308 -0.530714 -0.846478
vn -0.0426308 -0.530714 0.846478
vn -0.0426308 -0.530714 -0.846478
vn 0.747062 -0.664754 -0
vn -0.0426308 -0.530714 0.846478
vn -0.0426308 -0.530714 -0.846478
vn -0.731837 -0.68148 -0
vn -0.997793 -0.0663956 -0
vn -0.0426308 -0.530714 0.846478
vn -0.0435991 -0.00114798 0.999048
vn -0.997793 -0.0663956 -0
vn 0 0 1
vn 0 0 1
vn 0 0 1
g group_Default
usemtl Default
s 1
f 1//1 2//2 3//3
f 3//4 2//5 4//6
f 6//7 3//8 4//9
f 1//10 3//11 5//12
f 3//13 6//14 5//15
f 6//16 4//17 7//18
f 7//19 4//20 9//21
f 7//22 5//23 6//24
f 2//25 1//26 10//27
f 2//28 10//29 4//30
f 4//31 10//32 11//33
f 10//34 5//35 11//36
f 10//37 1//38 5//39
f 9//40 4//41 12//42
f 4//43 11//44 12//45
f 8//46 12//47 5//48
f 8//49 7//50 12//51
f 7//52 9//53 12//54
f 7//55 8//56 5//57
f 12//58 11//59 5//60
g group_Default
usemtl Default
s 1
f 15//61 13//62 14//63
