####
#
#	OBJ File Generated by LightWave3D
#	LightWave3D OBJ Export v2.3
#
####
o jims_rabies_sword.obj
mtllib jims_rabies_sword.mtl
g default
v 0.0337161 0.788432 -0.0145528
v 0.0395554 0.785582 -0.00807681
v -0.0124568 0.688639 -0.0257699
v 0.0189155 0.314401 -0.0174422
v 0.0298325 0.314401 -0.0174422
v 0.0321781 0.314401 -0.0166393
v 0.0202218 0.312352 -0.0194904
v 0.0301733 0.312352 -0.0194904
v 0.0337909 0.312352 -0.0182522
v 0.0329809 0.314401 -0.0142938
v 0.0350291 0.312352 -0.0146346
v -0.0168279 0.237813 -0.0174422
v -0.0147841 0.237351 -0.0194904
v 0.0156972 0.130715 -0.0135742
v 0.0204029 0.130715 -0.0123133
v 0.0235068 0.130715 -0.00920938
v 0.0247677 0.130715 -0.00450372
v 0.0298325 0.130715 -0.0174422
v 0.0321781 0.130715 -0.0166393
v 0.0301733 0.13344 -0.0194904
v 0.0337909 0.13344 -0.0182522
v 0.0350291 0.13344 -0.0146346
v 0.0329809 0.130715 -0.0142938
v 0.0214119 0.160981 -0.009535
v 0.0242609 0.160981 -0.00715125
v -0.0252632 0.130715 -0.00450372
v -0.0240023 0.130715 -0.00920938
v -0.0208984 0.130715 -0.0123133
v -0.0161927 0.130715 -0.0135742
v -0.000247743 0.130715 -0.0135742
v -0.0175729 0.160981 -0.0174422
v -0.0155247 0.158722 -0.0194904
v -0.0175729 0.160981 -0.009535
v -0.0823755 0.160981 -0.0174422
v -0.0858263 0.160981 -0.0162627
v -0.0858263 0.130715 -0.0162627
v -0.0823755 0.130715 -0.0174422
v -0.0877474 0.158722 -0.0182522
v -0.0877474 0.13344 -0.0182522
v -0.0841299 0.13344 -0.0194904
v -0.0841299 0.158722 -0.0194904
v -0.0870074 0.130715 -0.0130394
v -0.0889856 0.13344 -0.0146346
v -0.0889856 0.158722 -0.0146346
v -0.0870074 0.160981 -0.0130394
v 0.0161628 0.127179 -0.0171107
v 0.0222335 0.127179 -0.0154841
v 0.0266776 0.127179 -0.01104
v 0.0283042 0.127179 -0.0049693
v 0.0156972 0.10718 -0.0135742
v 0.0161628 0.110717 -0.0171107
v 0.0222335 0.110717 -0.0154841
v 0.0204029 0.10718 -0.0123133
v 0.0266776 0.110717 -0.01104
v 0.0235068 0.10718 -0.00920938
v 0.0283042 0.110717 -0.0049693
v 0.0247677 0.10718 -0.00450372
v -0.0287997 0.127179 -0.0049693
v -0.027173 0.127179 -0.01104
v -0.022729 0.127179 -0.0154841
v -0.0166583 0.127179 -0.0171107
v -0.000247743 0.127179 -0.0171107
v -0.0287997 0.110717 -0.0049693
v -0.0252632 0.10718 -0.00450372
v -0.027173 0.110717 -0.01104
v -0.0240023 0.10718 -0.00920938
v -0.022729 0.110717 -0.0154841
v -0.0208984 0.10718 -0.0123133
v -0.0166583 0.110717 -0.0171107
v -0.0161927 0.10718 -0.0135742
v -0.000247743 0.110717 -0.0171107
v -0.000247743 0.10718 -0.0135742
v 0.0118046 0.0585349 -0.0126913
v 0.0165103 0.0585349 -0.0114304
v 0.0196142 0.0585349 -0.00832643
v 0.0208751 0.0585349 -0.00362077
v -0.0213706 0.0585349 -0.00362077
v -0.0201097 0.0585349 -0.00832643
v -0.0170058 0.0585349 -0.0114304
v -0.0123001 0.0585349 -0.0126913
v -0.000247743 0.0585349 -0.0126913
v 0.0103832 -0.0248144 -0.0119735
v 0.0150889 -0.0248144 -0.0107127
v 0.0194537 -0.0248144 -0.00290305
v 0.0181928 -0.0248144 -0.00760871
v -0.0199492 -0.0248144 -0.00290305
v -0.0186883 -0.0248144 -0.00760871
v -0.0155844 -0.0248144 -0.0107127
v -0.0108787 -0.0248144 -0.0119735
v -0.000247743 -0.0248144 -0.0119735
v 0.0118046 -0.108164 -0.0126913
v 0.0165103 -0.108164 -0.0114304
v 0.0196142 -0.108164 -0.00832643
v 0.0208751 -0.108164 -0.00362077
v -0.0213706 -0.108164 -0.00362077
v -0.0201097 -0.108164 -0.00832643
v -0.0170058 -0.108164 -0.0114304
v -0.0123001 -0.108164 -0.0126913
v -0.000247743 -0.108164 -0.0126913
v 0.0156972 -0.180344 -0.0135742
v 0.0161628 -0.176807 -0.0171107
v 0.0222335 -0.176807 -0.0154841
v 0.0204029 -0.180344 -0.0123133
v 0.0266776 -0.176807 -0.01104
v 0.0235068 -0.180344 -0.00920938
v 0.0283042 -0.176807 -0.0049693
v 0.0247677 -0.180344 -0.00450372
v 0.0156972 -0.156809 -0.0135742
v 0.0161628 -0.160346 -0.0171107
v 0.0222335 -0.160346 -0.0154841
v 0.0204029 -0.156809 -0.0123133
v 0.0266776 -0.160346 -0.01104
v 0.0235068 -0.156809 -0.00920938
v 0.0247677 -0.156809 -0.00450372
v 0.0283042 -0.160346 -0.0049693
v -0.0287997 -0.176807 -0.0049693
v -0.0252632 -0.180344 -0.00450372
v -0.027173 -0.176807 -0.01104
v -0.0240023 -0.180344 -0.00920938
v -0.022729 -0.176807 -0.0154841
v -0.0208984 -0.180344 -0.0123133
v -0.0166583 -0.176807 -0.0171107
v -0.0161927 -0.180344 -0.0135742
v -0.000247743 -0.176807 -0.0171107
v -0.000247743 -0.180344 -0.0135742
v -0.0252632 -0.156809 -0.00450372
v -0.0287997 -0.160346 -0.0049693
v -0.0240023 -0.156809 -0.00920938
v -0.027173 -0.160346 -0.01104
v -0.0208984 -0.156809 -0.0123133
v -0.022729 -0.160346 -0.0154841
v -0.0166583 -0.160346 -0.0171107
v -0.0161927 -0.156809 -0.0135742
v -0.000247743 -0.156809 -0.0135742
v -0.000247743 -0.160346 -0.0171107
v 0.0395554 0.785582 0.00807681
v 0.0337161 0.788432 0.0145528
v -0.0124568 0.688639 0.0257699
v 0.0189155 0.314401 0.0174422
v 0.0298325 0.314401 0.0174422
v 0.0321781 0.314401 0.0166393
v 0.0202218 0.312352 0.0194904
v 0.0301733 0.312352 0.0194904
v 0.0337909 0.312352 0.0182522
v 0.0350291 0.312352 0.0146346
v 0.0329809 0.314401 0.0142938
v -0.0168279 0.237813 0.0174422
v -0.0147841 0.237351 0.0194904
v 0.0247677 0.130715 0.00450372
v 0.0235068 0.130715 0.00920938
v 0.0204029 0.130715 0.0123133
v 0.0156972 0.130715 0.0135742
v 0.0298325 0.130715 0.0174422
v 0.0321781 0.130715 0.0166393
v 0.0301733 0.13344 0.0194904
v 0.0337909 0.13344 0.0182522
v 0.0329809 0.130715 0.0142938
v 0.0350291 0.13344 0.0146346
v 0.0242609 0.160981 0.00715125
v 0.0214119 0.160981 0.009535
v -0.0252632 0.130715 0.00450372
v -0.0240023 0.130715 0.00920938
v -0.000247743 0.130715 0.0135742
v -0.0161927 0.130715 0.0135742
v -0.0208984 0.130715 0.0123133
v -0.0175729 0.160981 0.0174422
v -0.0155247 0.158722 0.0194904
v -0.0175729 0.160981 0.009535
v -0.0823755 0.160981 0.0174422
v -0.0858263 0.160981 0.0162627
v -0.0858263 0.130715 0.0162627
v -0.0823755 0.130715 0.0174422
v -0.0877474 0.158722 0.0182522
v -0.0877474 0.13344 0.0182522
v -0.0841299 0.158722 0.0194904
v -0.0841299 0.13344 0.0194904
v -0.0889856 0.13344 0.0146346
v -0.0870074 0.130715 0.0130394
v -0.0870074 0.160981 0.0130394
v -0.0889856 0.158722 0.0146346
v 0.0283042 0.127179 0.0049693
v 0.0266776 0.127179 0.01104
v 0.0222335 0.127179 0.0154841
v 0.0161628 0.127179 0.0171107
v 0.0247677 0.10718 0.00450372
v 0.0283042 0.110717 0.0049693
v 0.0235068 0.10718 0.00920938
v 0.0266776 0.110717 0.01104
v 0.0222335 0.110717 0.0154841
v 0.0204029 0.10718 0.0123133
v 0.0161628 0.110717 0.0171107
v 0.0156972 0.10718 0.0135742
v -0.0287997 0.127179 0.0049693
v -0.027173 0.127179 0.01104
v -0.000247743 0.127179 0.0171107
v -0.022729 0.127179 0.0154841
v -0.0166583 0.127179 0.0171107
v -0.027173 0.110717 0.01104
v -0.0287997 0.110717 0.0049693
v -0.0252632 0.10718 0.00450372
v -0.0240023 0.10718 0.00920938
v -0.000247743 0.110717 0.0171107
v -0.000247743 0.10718 0.0135742
v -0.022729 0.110717 0.0154841
v -0.0166583 0.110717 0.0171107
v -0.0208984 0.10718 0.0123133
v -0.0161927 0.10718 0.0135742
v 0.0208751 0.0585349 0.00362077
v 0.0196142 0.0585349 0.00832643
v 0.0165103 0.0585349 0.0114304
v 0.0118046 0.0585349 0.0126913
v -0.0213706 0.0585349 0.00362077
v -0.0201097 0.0585349 0.00832643
v -0.000247743 0.0585349 0.0126913
v -0.0170058 0.0585349 0.0114304
v -0.0123001 0.0585349 0.0126913
v 0.0194537 -0.0248144 0.00290305
v 0.0181928 -0.0248144 0.00760871
v 0.0150889 -0.0248144 0.0107127
v 0.0103832 -0.0248144 0.0119735
v -0.0199492 -0.0248144 0.00290305
v -0.0186883 -0.0248144 0.00760871
v -0.000247743 -0.0248144 0.0119735
v -0.0108787 -0.0248144 0.0119735
v -0.0155844 -0.0248144 0.0107127
v 0.0208751 -0.108164 0.00362077
v 0.0196142 -0.108164 0.00832643
v 0.0165103 -0.108164 0.0114304
v 0.0118046 -0.108164 0.0126913
v -0.0213706 -0.108164 0.00362077
v -0.0201097 -0.108164 0.00832643
v -0.000247743 -0.108164 0.0126913
v -0.0123001 -0.108164 0.0126913
v -0.0170058 -0.108164 0.0114304
v 0.0247677 -0.180344 0.00450372
v 0.0283042 -0.176807 0.0049693
v 0.0235068 -0.180344 0.00920938
v 0.0266776 -0.176807 0.01104
v 0.0222335 -0.176807 0.0154841
v 0.0204029 -0.180344 0.0123133
v 0.0161628 -0.176807 0.0171107
v 0.0156972 -0.180344 0.0135742
v 0.0247677 -0.156809 0.00450372
v 0.0283042 -0.160346 0.0049693
v 0.0235068 -0.156809 0.00920938
v 0.0266776 -0.160346 0.01104
v 0.0222335 -0.160346 0.0154841
v 0.0204029 -0.156809 0.0123133
v 0.0161628 -0.160346 0.0171107
v 0.0156972 -0.156809 0.0135742
v -0.027173 -0.176807 0.01104
v -0.0287997 -0.176807 0.0049693
v -0.0252632 -0.180344 0.00450372
v -0.0240023 -0.180344 0.00920938
v -0.000247743 -0.176807 0.0171107
v -0.000247743 -0.180344 0.0135742
v -0.022729 -0.176807 0.0154841
v -0.0166583 -0.176807 0.0171107
v -0.0208984 -0.180344 0.0123133
v -0.0161927 -0.180344 0.0135742
v -0.0252632 -0.156809 0.00450372
v -0.0240023 -0.156809 0.00920938
v -0.0287997 -0.160346 0.0049693
v -0.027173 -0.160346 0.01104
v -0.000247743 -0.156809 0.0135742
v -0.000247743 -0.160346 0.0171107
v -0.022729 -0.160346 0.0154841
v -0.0161927 -0.156809 0.0135742
v -0.0208984 -0.156809 0.0123133
v -0.0166583 -0.160346 0.0171107
v 0.0936195 0.917901 -0
v 0.0936195 0.917901 -0
v 0.0936195 0.917901 -0
v -0.0378303 0.160981 -0
v -0.0378303 0.160981 -0
v 0.0936195 0.917901 -0
v 0.045498 0.888604 0.00069525
v 0.0479882 0.894599 -0
v -0.0197334 0.846777 0.00194877
v -0.0100371 0.864969 -0
v 0.0392202 0.890122 -0
v -0.0197334 0.846777 0.00194877
v 0.0392202 0.890122 -0
v 0.045498 0.888604 0.00069525
v -0.0197334 0.846777 -0.00194877
v 0.0392202 0.890122 -0
v -0.0100371 0.864969 -0
v -0.0197334 0.846777 -0.00194877
v 0.045498 0.888604 -0.00069525
v 0.0392202 0.890122 -0
v 0.0936195 0.917901 -0
v 0.045498 0.888604 -0.00069525
v 0.0936195 0.917901 -0
v 0.045498 0.888604 0.00069525
v 0.0936195 0.917901 -0
v 0.0479882 0.894599 -0
v 0.045498 0.888604 -0.00069525
v -0.0672058 0.835777 -0
v -0.028094 0.855749 -0
v -0.0197334 0.846777 0.00194877
v -0.0197334 0.846777 -0.00194877
v -0.028094 0.855749 -0
v -0.0672058 0.835777 -0
v 0.045498 0.888604 0.00069525
v 0.045498 0.888604 -0.00069525
v -0.021732 0.849957 -0
v -0.0197334 0.846777 0.00194877
v -0.028094 0.855749 -0
v -0.021732 0.849957 -0
v -0.028094 0.855749 -0
v -0.0197334 0.846777 -0.00194877
v -0.021732 0.849957 -0
v -0.0100371 0.864969 -0
v -0.0197334 0.846777 0.00194877
v -0.021732 0.849957 -0
v -0.0197334 0.846777 -0.00194877
v -0.0100371 0.864969 -0
v 0.046041 0.890552 -0
v 0.0392202 0.890122 -0
v 0.045498 0.888604 -0.00069525
v 0.046041 0.890552 -0
v 0.045498 0.888604 0.00069525
v 0.0392202 0.890122 -0
v 0.046041 0.890552 -0
v 0.0479882 0.894599 -0
v 0.045498 0.888604 0.00069525
v 0.046041 0.890552 -0
v 0.045498 0.888604 -0.00069525
v 0.0479882 0.894599 -0
v -0.0197334 0.846777 0.00194877
v -0.0672058 0.835777 -0
v -0.0197334 0.846777 -0.00194877
v -0.0672058 0.835777 -0
v -0.0472512 0.482588 -0
v -0.0520274 0.487108 -0
v -0.0452543 0.482144 0.00308632
v -0.0505211 0.452507 -0
v -0.0472512 0.482588 -0
v -0.0520274 0.487108 -0
v -0.0505211 0.452507 -0
v -0.0452543 0.482144 -0.00308632
v -0.0421075 0.606917 -0
v -0.0570182 0.601753 -0
v -0.058106 0.626741 -0
v -0.0331063 0.606917 -0.012546
v -0.0421075 0.606917 -0
v -0.0570182 0.601753 -0
v -0.058106 0.626741 -0
v -0.0331063 0.606917 0.012546
v -0.0506236 0.732569 -0
v -0.0458065 0.734107 0.0089447
v -0.0629272 0.73749 -0
v -0.0567211 0.720414 -0
v -0.0602873 0.727451 -0
v -0.0591613 0.727451 0.00157212
v -0.0549799 0.720722 0.00365541
v -0.0616682 0.708571 -0
v -0.0506236 0.732569 -0
v -0.0458065 0.734107 -0.0089447
v -0.0629272 0.73749 -0
v -0.0616682 0.708571 -0
v -0.0549799 0.720722 -0.00365541
v -0.0567211 0.720414 -0
v -0.0591613 0.727451 -0.00157212
v -0.0602873 0.727451 -0
vt 0.0221462 0.846184
vt 0.0269388 0.733114
vt 0.0307759 0.693576
vt 0.0309033 0.713684
vt 0.0344476 0.713894
vt 0.0359935 0.706976
vt 0.0389191 0.723594
vt 0.0424694 0.595093
vt 0.043472 0.7085
vt 0.0437064 0.557621
vt 0.0573706 0.418636
vt 0.0575864 0.570537
vt 0.0580708 0.72688
vt 0.061153 0.375248
vt 0.0630054 0.41234
vt 0.0687065 0.41267
vt 0.0704706 0.876814
vt 0.0817944 0.871724
vt 0.0846036 0.569769
vt 0.0862757 0.866781
vt 0.0915255 0.891636
vt 0.0932675 0.0102055
vt 0.116821 0.674092
vt 0.12671 0.0111095
vt 0.149366 0.933836
vt 0.158301 0.936005
vt 0.158916 0.933293
vt 0.159428 0.941418
vt 0.184885 0.0122202
vt 0.185017 0.800589
vt 0.190422 0.0122671
vt 0.198105 0.797643
vt 0.211742 0.0121017
vt 0.21228 0.985698
vt 0.217278 0.0119663
vt 0.22212 0.797447
vt 0.235274 0.800184
vt 0.264102 0.94058
vt 0.264426 0.932447
vt 0.265104 0.93515
vt 0.273987 0.932837
vt 0.275417 0.00992646
vt 0.300549 0.672623
vt 0.308833 0.00848837
vt 0.330362 0.567805
vt 0.330844 0.889721
vt 0.335521 0.864787
vt 0.340115 0.869657
vt 0.340149 0.92721
vt 0.34151 0.980324
vt 0.342392 0.920497
vt 0.342644 0.410483
vt 0.344493 0.987694
vt 0.347886 0.927863
vt 0.348336 0.410062
vt 0.348998 0.979208
vt 0.349335 0.372947
vt 0.349552 0.92114
vt 0.351395 0.986533
vt 0.351554 0.874565
vt 0.354115 0.416267
vt 0.355552 0.927563
vt 0.356688 0.979103
vt 0.357392 0.568141
vt 0.358576 0.921279
vt 0.360163 0.985958
vt 0.360503 0.724462
vt 0.370972 0.555006
vt 0.373071 0.592452
vt 0.374676 0.705852
vt 0.379575 0.720871
vt 0.380326 0.165709
vt 0.380494 0.146737
vt 0.380778 0.155917
vt 0.381529 0.185194
vt 0.381732 0.196325
vt 0.381759 0.205603
vt 0.381894 0.136928
vt 0.382118 0.704209
vt 0.383446 0.215358
vt 0.383823 0.711102
vt 0.38396 0.107391
vt 0.385766 0.0778967
vt 0.386313 0.068127
vt 0.387027 0.690728
vt 0.387362 0.710835
vt 0.387809 0.244854
vt 0.388311 0.0589531
vt 0.389032 0.183904
vt 0.389265 0.167151
vt 0.389619 0.15681
vt 0.390105 0.146519
vt 0.390213 0.0484253
vt 0.390284 0.194535
vt 0.39096 0.136103
vt 0.391237 0.204979
vt 0.391773 0.730198
vt 0.391954 0.274185
vt 0.392366 0.0302385
vt 0.392439 0.215394
vt 0.39264 0.107937
vt 0.393193 0.283396
vt 0.393581 0.0216478
vt 0.394016 0.291456
vt 0.394656 0.0799564
vt 0.395652 0.0694567
vt 0.396396 0.243693
vt 0.396961 0.0589182
vt 0.398233 0.0480562
vt 0.399164 0.843169
vt 0.400681 0.272547
vt 0.401496 0.0311859
vt 0.402428 0.283445
vt 0.403207 0.0204957
vt 0.403244 0.294194
vt 0.420952 0.182645
vt 0.421274 0.157302
vt 0.421337 0.147394
vt 0.421475 0.192472
vt 0.421565 0.448425
vt 0.421565 0.510435
vt 0.421684 0.16721
vt 0.421932 0.13738
vt 0.422174 0.202377
vt 0.423306 0.443337
vt 0.423306 0.515522
vt 0.423406 0.212367
vt 0.423933 0.110521
vt 0.425489 0.0831951
vt 0.426074 0.0729356
vt 0.426557 0.239543
vt 0.427187 0.0627309
vt 0.428394 0.441596
vt 0.428394 0.517264
vt 0.428696 0.0525043
vt 0.429831 0.26767
vt 0.430487 0.166361
vt 0.430615 0.182931
vt 0.430653 0.157352
vt 0.430997 0.191829
vt 0.431071 0.149269
vt 0.431293 0.140348
vt 0.431541 0.278539
vt 0.431775 0.199853
vt 0.431956 0.0361218
vt 0.432479 0.208738
vt 0.432746 0.111445
vt 0.433928 0.289417
vt 0.433965 0.0255965
vt 0.434884 0.0824387
vt 0.435243 0.237515
vt 0.435612 0.0735072
vt 0.436195 0.0654176
vt 0.437366 0.0565464
vt 0.438829 0.266391
vt 0.440131 0.275221
vt 0.440154 0.0403016
vt 0.441707 0.283082
vt 0.442272 0.0315588
vt 0.452074 0.441596
vt 0.452074 0.517264
vt 0.489221 0.766768
vt 0.489293 0.922793
vt 0.495077 0.928705
vt 0.4951 0.768038
vt 0.517532 0.156815
vt 0.517544 0.165518
vt 0.517705 0.148965
vt 0.517791 0.178444
vt 0.518013 0.187149
vt 0.518073 0.14026
vt 0.518395 0.194997
vt 0.519012 0.203703
vt 0.519108 0.118713
vt 0.520017 0.0970496
vt 0.520471 0.088261
vt 0.520713 0.22529
vt 0.521051 0.0803491
vt 0.52189 0.0715602
vt 0.522352 0.24708
vt 0.523114 0.255939
vt 0.523317 0.0583778
vt 0.523968 0.263939
vt 0.524331 0.0494937
vt 0.543003 0.329208
vt 0.543003 0.382417
vt 0.545413 0.322632
vt 0.545413 0.388994
vt 0.552453 0.320225
vt 0.552453 0.3914
vt 0.560722 0.609502
vt 0.564882 0.614492
vt 0.585115 0.614366
vt 0.586764 0.608673
vt 0.588307 0.97802
vt 0.588462 0.984889
vt 0.59286 0.614305
vt 0.593287 0.608274
vt 0.59538 0.985093
vt 0.596028 0.977949
vt 0.599987 0.608631
vt 0.600602 0.614214
vt 0.602329 0.98469
vt 0.603752 0.977892
vt 0.635402 0.441596
vt 0.635402 0.517264
vt 0.660118 0.613721
vt 0.66066 0.607923
vt 0.663261 0.977435
vt 0.664694 0.983821
vt 0.667195 0.60763
vt 0.667858 0.61367
vt 0.668476 0.0667309
vt 0.668476 0.256342
vt 0.668479 0.248292
vt 0.668482 0.0578376
vt 0.668482 0.239442
vt 0.66849 0.22031
vt 0.668495 0.165757
vt 0.668497 0.157133
vt 0.6685 0.149363
vt 0.668503 0.20116
vt 0.668504 0.140715
vt 0.668507 0.0772897
vt 0.668509 0.192466
vt 0.668511 0.0861172
vt 0.668512 0.121737
vt 0.668512 0.0940347
vt 0.668513 0.10277
vt 0.668514 0.184676
vt 0.66852 0.176041
vt 0.67099 0.977334
vt 0.671929 0.984413
vt 0.673783 0.607945
vt 0.675602 0.613597
vt 0.678715 0.977267
vt 0.678726 0.984143
vt 0.695833 0.613362
vt 0.699907 0.608305
vt 0.768262 0.765682
vt 0.771061 0.926344
vt 0.774117 0.76431
vt 0.776741 0.920331
vt 0.781393 0.320225
vt 0.781393 0.3914
vt 0.786179 0.321863
vt 0.786179 0.389762
vt 0.787817 0.326649
vt 0.787817 0.384977
vt 0.802069 0.441596
vt 0.802069 0.517264
vt 0.803175 0.624963
vt 0.803175 0.652094
vt 0.806973 0.610788
vt 0.806973 0.666268
vt 0.812727 0.0496386
vt 0.812953 0.264008
vt 0.813739 0.0585192
vt 0.813812 0.256007
vt 0.814579 0.247147
vt 0.815187 0.0716351
vt 0.816029 0.0804236
vt 0.816236 0.225355
vt 0.816323 0.601439
vt 0.816323 0.675618
vt 0.816608 0.0883362
vt 0.81706 0.0971241
vt 0.81795 0.203764
vt 0.817965 0.118781
vt 0.81858 0.195054
vt 0.818982 0.1872
vt 0.818996 0.140321
vt 0.819209 0.178492
vt 0.819354 0.14902
vt 0.819501 0.165554
vt 0.819514 0.156859
vt 0.830497 0.597641
vt 0.830497 0.679416
vt 0.878525 0.597641
vt 0.878525 0.679416
vt 0.895063 0.0317481
vt 0.895183 0.283204
vt 0.896768 0.275344
vt 0.896977 0.0404723
vt 0.898078 0.266515
vt 0.899702 0.0567369
vt 0.900857 0.0656502
vt 0.901445 0.0737446
vt 0.901675 0.237645
vt 0.902199 0.0826735
vt 0.902954 0.28952
vt 0.903301 0.0258504
vt 0.904387 0.111677
vt 0.904394 0.208861
vt 0.905052 0.199969
vt 0.905356 0.278643
vt 0.905697 0.036329
vt 0.905794 0.191937
vt 0.905918 0.140558
vt 0.90622 0.149464
vt 0.906308 0.182954
vt 0.906699 0.157528
vt 0.906789 0.166422
vt 0.907071 0.985843
vt 0.907076 0.267772
vt 0.907704 0.921114
vt 0.907993 0.0528492
vt 0.90981 0.0629939
vt 0.910175 0.978949
vt 0.910367 0.239633
vt 0.91055 0.927306
vt 0.910989 0.0731516
vt 0.911598 0.0833926
vt 0.913199 0.11071
vt 0.913476 0.212429
vt 0.914672 0.202442
vt 0.915042 0.182827
vt 0.915258 0.137598
vt 0.915274 0.192565
vt 0.915921 0.147631
vt 0.916161 0.157579
vt 0.91658 0.167561
vt 0.917313 0.985823
vt 0.917817 0.978494
vt 0.917969 0.921192
vt 0.91811 0.927858
vt 0.925319 0.979141
vt 0.925794 0.927352
vt 0.926554 0.597641
vt 0.926554 0.679416
vt 0.92684 0.985923
vt 0.927706 0.92147
vt 0.933614 0.294376
vt 0.933792 0.0203826
vt 0.934451 0.283627
vt 0.935485 0.031246
vt 0.936217 0.272732
vt 0.938678 0.0484549
vt 0.940254 0.0591348
vt 0.940538 0.243895
vt 0.940728 0.601439
vt 0.940728 0.675618
vt 0.941522 0.0695839
vt 0.942477 0.0800358
vt 0.942633 0.441596
vt 0.942633 0.517264
vt 0.942847 0.291653
vt 0.943306 0.0217107
vt 0.943685 0.283595
vt 0.943875 0.0310101
vt 0.944483 0.215637
vt 0.94449 0.107976
vt 0.944945 0.274389
vt 0.945754 0.205289
vt 0.9462 0.136097
vt 0.946808 0.194973
vt 0.947026 0.146536
vt 0.947477 0.156918
vt 0.947479 0.0485889
vt 0.94782 0.184527
vt 0.94791 0.167567
vt 0.948868 0.0586148
vt 0.949113 0.245029
vt 0.950078 0.610788
vt 0.950078 0.666268
vt 0.950118 0.444154
vt 0.950118 0.514705
vt 0.950884 0.0679118
vt 0.951345 0.0778226
vt 0.95268 0.451146
vt 0.95268 0.507714
vt 0.953172 0.107362
vt 0.95349 0.215431
vt 0.953876 0.624963
vt 0.953876 0.652094
vt 0.955284 0.136802
vt 0.955348 0.20555
vt 0.955487 0.196173
vt 0.955511 0.166727
vt 0.956148 0.15569
vt 0.956567 0.146488
vt 0.956587 0.186158
vt 0.980998 0.986598
vt 0.981779 0.921966
vt 0.984457 0.979907
vt 0.984943 0.928153
vn 0.213072 0.0492329 0.975795
vn -0.279159 0.0634851 0.958144
vn -0.323249 -0.0042061 0.946305
vn 0.434198 -0.0212413 0.900567
vn -0.323249 -0.0042061 0.946305
vn -0.336561 -0.0230652 0.941379
vn 0.213072 0.0492329 0.975795
vn -0.323249 -0.0042061 0.946305
vn 0.434198 -0.0212413 0.900567
vn 0.910707 -0.127152 -0.392995
vn 0.925709 -0.378236 -0
vn 0.870364 -0.146721 0.470041
vn 0.910707 -0.127152 -0.392995
vn 0.870364 -0.146721 0.470041
vn 0.960062 -0.023922 0.278762
vn 0.905758 -0.0228062 -0.423181
vn 0.910707 -0.127152 -0.392995
vn 0.960062 -0.023922 0.278762
vn -0.279159 0.0634851 -0.958144
vn 0.213072 0.0492329 -0.975795
vn -0.323249 -0.0042061 -0.946305
vn -0.323249 -0.0042061 -0.946305
vn 0.434198 -0.0212413 -0.900567
vn -0.336561 -0.0230652 -0.941379
vn -0.323249 -0.0042061 -0.946305
vn 0.213072 0.0492329 -0.975795
vn 0.434198 -0.0212413 -0.900567
vn 0.213072 0.0492329 -0.975795
vn 0.669987 -0.230679 -0.705624
vn 0.910707 -0.127152 -0.392995
vn 0.669987 -0.230679 0.705624
vn 0.213072 0.0492329 0.975795
vn 0.870364 -0.146721 0.470041
vn 0.960062 -0.023922 0.278762
vn 0.870364 -0.146721 0.470041
vn 0.434198 -0.0212413 0.900567
vn 0.870364 -0.146721 0.470041
vn 0.213072 0.0492329 0.975795
vn 0.434198 -0.0212413 0.900567
vn 0.213072 0.0492329 -0.975795
vn 0.910707 -0.127152 -0.392995
vn 0.434198 -0.0212413 -0.900567
vn 0.434198 -0.0212413 -0.900567
vn 0.910707 -0.127152 -0.392995
vn 0.905758 -0.0228062 -0.423181
vn -0.279159 0.0634851 0.958144
vn -0.474065 -0.519632 0.710807
vn -0.565965 -0.0207593 0.824168
vn -0.474065 -0.519632 -0.710807
vn -0.279159 0.0634851 -0.958144
vn -0.565965 -0.0207593 -0.824168
vn -0.474065 -0.519632 -0.710807
vn -0.565965 -0.0207593 -0.824168
vn -0.751078 0.481401 -0.451813
vn -0.776344 0.296733 -0.556094
vn -0.751078 0.481401 -0.451813
vn -0.772493 0.236846 -0.589202
vn -0.751078 0.481401 -0.451813
vn -0.565965 -0.0207593 -0.824168
vn -0.772493 0.236846 -0.589202
vn -0.776344 0.296733 -0.556094
vn -0.772493 0.236846 -0.589202
vn -0.866577 -0.144085 -0.477791
vn -0.772493 0.236846 -0.589202
vn -0.667973 -0.016609 -0.744
vn -0.866577 -0.144085 -0.477791
vn -0.866577 -0.144085 -0.477791
vn -0.667973 -0.016609 -0.744
vn -0.636945 0.11639 -0.762072
vn -0.279159 0.0634851 0.958144
vn -0.565965 -0.0207593 0.824168
vn -0.323249 -0.0042061 0.946305
vn -0.565965 -0.0207593 -0.824168
vn -0.279159 0.0634851 -0.958144
vn -0.323249 -0.0042061 -0.946305
vn -0.580349 0.0183495 -0.814161
vn -0.591091 -0.122912 -0.797185
vn -0.336561 -0.0230652 -0.941379
vn -0.580349 0.0183495 -0.814161
vn -0.336561 -0.0230652 -0.941379
vn -0.425801 -0.0185362 -0.904627
vn -0.580349 0.0183495 0.814161
vn -0.425801 -0.0185362 0.904627
vn -0.336561 -0.0230652 0.941379
vn -0.591091 -0.122912 0.797185
vn -0.580349 0.0183495 0.814161
vn -0.336561 -0.0230652 0.941379
vn -0.323249 -0.0042061 0.946305
vn -0.569209 -0.209653 0.795014
vn -0.553227 0.0545795 0.83124
vn -0.323249 -0.0042061 0.946305
vn -0.636945 0.11639 0.762072
vn -0.569209 -0.209653 0.795014
vn -0.569209 -0.209653 -0.795014
vn -0.323249 -0.0042061 -0.946305
vn -0.553227 0.0545795 -0.83124
vn -0.636945 0.11639 -0.762072
vn -0.323249 -0.0042061 -0.946305
vn -0.569209 -0.209653 -0.795014
vn -0.772493 0.236846 -0.589202
vn -0.565965 -0.0207593 -0.824168
vn -0.667973 -0.016609 -0.744
vn -0.477843 0.551489 -0.683759
vn -0.553227 0.0545795 -0.83124
vn -0.567904 -0.270297 -0.777448
vn -0.567904 -0.270297 -0.777448
vn -0.553227 0.0545795 -0.83124
vn -0.591091 -0.122912 -0.797185
vn -0.553227 0.0545795 0.83124
vn -0.477843 0.551489 0.683759
vn -0.567904 -0.270297 0.777448
vn -0.553227 0.0545795 0.83124
vn -0.567904 -0.270297 0.777448
vn -0.591091 -0.122912 0.797185
vn -0.323249 -0.0042061 0.946305
vn -0.553227 0.0545795 0.83124
vn -0.591091 -0.122912 0.797185
vn -0.323249 -0.0042061 0.946305
vn -0.591091 -0.122912 0.797185
vn -0.336561 -0.0230652 0.941379
vn -0.553227 0.0545795 -0.83124
vn -0.323249 -0.0042061 -0.946305
vn -0.591091 -0.122912 -0.797185
vn -0.591091 -0.122912 -0.797185
vn -0.323249 -0.0042061 -0.946305
vn -0.336561 -0.0230652 -0.941379
vn -0.569209 -0.209653 0.795014
vn -0.777707 0.289551 0.557971
vn -0.553227 0.0545795 0.83124
vn -0.553227 0.0545795 0.83124
vn -0.777707 0.289551 0.557971
vn -0.477843 0.551489 0.683759
vn -0.813896 -0.328262 -0.479393
vn -0.567904 -0.270297 -0.777448
vn -0.591091 -0.122912 -0.797185
vn -0.813896 -0.328262 -0.479393
vn -0.591091 -0.122912 -0.797185
vn -0.580349 0.0183495 -0.814161
vn -0.0741485 0.145208 0.986619
vn -0.0741485 0.145208 0.986619
vn -0.0741485 0.145208 0.986619
vn -0.0741484 0.145207 0.986619
vn -0.0741484 0.145207 0.986619
vn -0.0741484 0.145207 0.986619
vn -0.0741481 0.145207 0.986619
vn -0.0741481 0.145207 0.986619
vn -0.0741481 0.145207 0.986619
vn -0.0741484 0.145207 -0.986619
vn -0.0741484 0.145207 -0.986619
vn -0.0741484 0.145207 -0.986619
vn -0.0741481 0.145207 -0.986619
vn -0.0741481 0.145207 -0.986619
vn -0.0741481 0.145207 -0.986619
vn -0.0741484 0.145207 -0.986619
vn -0.0741484 0.145207 -0.986619
vn 0.213072 0.0492329 -0.975795
vn -0.0741484 0.145207 0.986619
vn -0.0741484 0.145207 0.986619
vn 0.213072 0.0492329 0.975795
vn -0.0741485 0.145208 -0.986619
vn -0.0741485 0.145208 -0.986619
vn -0.0741485 0.145208 -0.986619
vn -0.0741484 0.145207 0.986619
vn -0.0741484 0.145207 0.986619
vn -0.0741484 0.145207 0.986619
vn -0.0741484 0.145207 -0.986619
vn -0.0741484 0.145207 -0.986619
vn -0.0741484 0.145207 -0.986619
vn -0.0741484 0.145207 0.986619
vn -0.279159 0.0634851 0.958144
vn 0.213072 0.0492329 0.975795
vn -0.0741484 0.145207 0.986619
vn -0.0741484 0.145207 0.986619
vn 0.213072 0.0492329 0.975795
vn -0.0741484 0.145207 -0.986619
vn -0.0741484 0.145207 -0.986619
vn 0.213072 0.0492329 -0.975795
vn -0.279159 0.0634851 -0.958144
vn -0.0741484 0.145207 -0.986619
vn 0.213072 0.0492329 -0.975795
vn 0.598244 0.657108 0.458599
vn 0.598244 0.657108 0.458599
vn 0.598244 0.657108 0.458599
vn 0.598244 0.657108 -0.458599
vn 0.598244 0.657108 -0.458599
vn 0.598244 0.657108 -0.458599
vn -0.381207 0.296962 0.875497
vn -0.381207 0.296962 0.875497
vn -0.381207 0.296962 0.875497
vn -0.381207 0.296962 -0.875497
vn -0.381207 0.296962 -0.875497
vn -0.381207 0.296962 -0.875497
vn -0.0215279 0.341303 -0.939707
vn -0.0215279 0.341303 -0.939707
vn -0.0215279 0.341303 -0.939707
vn -0.0215279 0.341303 0.939707
vn -0.0215279 0.341303 0.939707
vn -0.0215279 0.341303 0.939707
vn -0.802323 0.386036 0.455251
vn -0.802323 0.386036 0.455251
vn -0.802323 0.386036 0.455251
vn -0.802323 0.386036 -0.455251
vn -0.802323 0.386036 -0.455251
vn -0.802323 0.386036 -0.455251
vn -0.379949 0.922781 0.0641427
vn -0.39115 0.919327 -0.0428983
vn -0.884612 0.43358 0.17167
vn -0.39115 0.919327 -0.0428983
vn -0.92724 0.332409 -0.172422
vn -0.884612 0.43358 0.17167
vn -0.926981 -0.344831 0.147641
vn -0.883246 -0.445578 -0.146075
vn -0.36935 -0.928385 0.041019
vn -0.883246 -0.445578 -0.146075
vn -0.421011 -0.904212 -0.0717635
vn -0.36935 -0.928385 0.041019
vn -0.884612 0.43358 0.17167
vn -0.92724 0.332409 -0.172422
vn -0.926981 -0.344831 0.147641
vn -0.92724 0.332409 -0.172422
vn -0.883246 -0.445578 -0.146075
vn -0.926981 -0.344831 0.147641
vn 0.297253 0.953517 -0.0494635
vn 0.376469 0.925504 0.0413815
vn 0.848157 0.510598 -0.141135
vn 0.848157 0.510598 -0.141135
vn 0.376469 0.925504 0.0413815
vn 0.910911 0.387148 0.142683
vn 0.945034 -0.274588 -0.177516
vn 0.913644 -0.365787 0.177356
vn 0.439749 -0.896819 -0.0483351
vn 0.439749 -0.896819 -0.0483351
vn 0.913644 -0.365787 0.177356
vn 0.435857 -0.897089 0.0725244
vn 0.848157 0.510598 -0.141135
vn 0.910911 0.387148 0.142683
vn 0.945034 -0.274588 -0.177516
vn 0.945034 -0.274588 -0.177516
vn 0.910911 0.387148 0.142683
vn 0.913644 -0.365787 0.177356
vn 0.662762 -0.34856 -0.662762
vn 0.678966 0.279301 -0.678967
vn 0.945034 -0.274588 -0.177516
vn 0.678966 0.279301 -0.678967
vn 0.848157 0.510598 -0.141135
vn 0.945034 -0.274588 -0.177516
vn 0.112555 -0.232137 -0.966149
vn 0.678966 0.279301 -0.678967
vn 0.662762 -0.34856 -0.662762
vn 0.170438 0.462459 -0.870105
vn 0.678966 0.279301 -0.678967
vn 0.112555 -0.232137 -0.966149
vn -0.237912 0.373623 -0.896551
vn 0.170438 0.462459 -0.870105
vn 0.112555 -0.232137 -0.966149
vn -0.444267 0.0676978 -0.893333
vn -0.237912 0.373623 -0.896551
vn 0.112555 -0.232137 -0.966149
vn -0.196093 0.189097 -0.96218
vn -0.444267 0.0676978 -0.893333
vn 0.112555 -0.232137 -0.966149
vn 0.39091 0.833294 -0.39091
vn 0.297253 0.953517 -0.0494635
vn 0.848157 0.510598 -0.141135
vn 0.678966 0.279301 -0.678967
vn 0.39091 0.833294 -0.39091
vn 0.848157 0.510598 -0.141135
vn 0.170438 0.462459 -0.870105
vn 0.39091 0.833294 -0.39091
vn 0.678966 0.279301 -0.678967
vn 0.0413815 0.925505 -0.376469
vn 0.39091 0.833294 -0.39091
vn 0.170438 0.462459 -0.870105
vn 0.0413815 0.925505 -0.376469
vn 0.170438 0.462459 -0.870105
vn -0.237912 0.373623 -0.896551
vn -0.482093 0.757097 -0.440898
vn 0.0413815 0.925505 -0.376469
vn -0.237912 0.373623 -0.896551
vn -0.541463 0.531611 -0.651312
vn -0.444267 0.0676978 -0.893333
vn -0.196093 0.189097 -0.96218
vn -0.913635 0.231548 -0.334149
vn -0.444267 0.0676978 -0.893333
vn -0.541463 0.531611 -0.651312
vn -0.482093 0.757097 -0.440898
vn -0.237912 0.373623 -0.896551
vn -0.913635 0.231548 -0.334149
vn -0.913635 0.231548 -0.334149
vn -0.237912 0.373623 -0.896551
vn -0.444267 0.0676978 -0.893333
vn -0.202111 -0.351391 -0.914153
vn -0.118259 0.441722 -0.889324
vn 0.112555 -0.232137 -0.966149
vn -0.118259 0.441722 -0.889324
vn -0.196093 0.189097 -0.96218
vn 0.112555 -0.232137 -0.966149
vn -0.92724 0.332409 -0.172422
vn -0.740252 -0.315929 -0.593478
vn -0.883246 -0.445578 -0.146075
vn -0.92724 0.332409 -0.172422
vn -0.583917 0.35254 -0.73127
vn -0.740252 -0.315929 -0.593478
vn -0.583917 0.35254 -0.73127
vn -0.202111 -0.351391 -0.914153
vn -0.740252 -0.315929 -0.593478
vn -0.583917 0.35254 -0.73127
vn -0.118259 0.441722 -0.889324
vn -0.202111 -0.351391 -0.914153
vn 0.662762 -0.34856 -0.662762
vn 0.945034 -0.274588 -0.177516
vn 0.455943 -0.764352 -0.455941
vn 0.945034 -0.274588 -0.177516
vn 0.439749 -0.896819 -0.0483351
vn 0.455943 -0.764352 -0.455941
vn 0.0404521 -0.969159 -0.243095
vn 0.112555 -0.232137 -0.966149
vn 0.455943 -0.764352 -0.455941
vn 0.112555 -0.232137 -0.966149
vn 0.662762 -0.34856 -0.662762
vn 0.455943 -0.764352 -0.455941
vn -0.202111 -0.351391 -0.914153
vn 0.112555 -0.232137 -0.966149
vn -0.0441138 -0.903983 -0.425286
vn -0.0441138 -0.903983 -0.425286
vn 0.112555 -0.232137 -0.966149
vn 0.0404521 -0.969159 -0.243095
vn -0.883246 -0.445578 -0.146075
vn -0.413648 -0.810032 -0.415624
vn -0.421011 -0.904212 -0.0717635
vn -0.883246 -0.445578 -0.146075
vn -0.740252 -0.315929 -0.593478
vn -0.413648 -0.810032 -0.415624
vn -0.369858 0.851737 -0.371146
vn -0.583917 0.35254 -0.73127
vn -0.92724 0.332409 -0.172422
vn -0.39115 0.919327 -0.0428983
vn -0.369858 0.851737 -0.371146
vn -0.92724 0.332409 -0.172422
vn -0.740252 -0.315929 -0.593478
vn -0.202111 -0.351391 -0.914153
vn -0.413648 -0.810032 -0.415624
vn -0.202111 -0.351391 -0.914153
vn -0.0441138 -0.903983 -0.425286
vn -0.413648 -0.810032 -0.415624
vn -0.369858 0.851737 -0.371146
vn -0.0387407 0.968531 -0.245858
vn -0.118259 0.441722 -0.889324
vn -0.369858 0.851737 -0.371146
vn -0.118259 0.441722 -0.889324
vn -0.583917 0.35254 -0.73127
vn -0.118259 0.441722 -0.889324
vn -0.541463 0.531611 -0.651312
vn -0.196093 0.189097 -0.96218
vn -0.0387407 0.968531 -0.245858
vn -0.541463 0.531611 -0.651312
vn -0.118259 0.441722 -0.889324
vn 0.913644 -0.365787 0.177356
vn 0.678966 0.279301 0.678967
vn 0.662762 -0.34856 0.662762
vn 0.910911 0.387148 0.142683
vn 0.678966 0.279301 0.678967
vn 0.913644 -0.365787 0.177356
vn 0.678966 0.279301 0.678967
vn 0.170438 0.462459 0.870105
vn 0.112555 -0.232137 0.966149
vn 0.662762 -0.34856 0.662762
vn 0.678966 0.279301 0.678967
vn 0.112555 -0.232137 0.966149
vn 0.170438 0.462459 0.870105
vn -0.237912 0.373623 0.896551
vn 0.112555 -0.232137 0.966149
vn -0.444267 0.0676978 0.893333
vn -0.196093 0.189097 0.96218
vn 0.112555 -0.232137 0.966149
vn -0.237912 0.373623 0.896551
vn -0.444267 0.0676978 0.893333
vn 0.112555 -0.232137 0.966149
vn 0.910911 0.387148 0.142683
vn 0.39091 0.833294 0.39091
vn 0.678966 0.279301 0.678967
vn 0.376469 0.925504 0.0413815
vn 0.39091 0.833294 0.39091
vn 0.910911 0.387148 0.142683
vn 0.678966 0.279301 0.678967
vn 0.39091 0.833294 0.39091
vn 0.170438 0.462459 0.870105
vn 0.39091 0.833294 0.39091
vn 0.0495258 0.89137 0.450562
vn 0.170438 0.462459 0.870105
vn 0.170438 0.462459 0.870105
vn 0.0495258 0.89137 0.450562
vn -0.237912 0.373623 0.896551
vn 0.0495258 0.89137 0.450562
vn -0.377308 0.900164 0.217587
vn -0.237912 0.373623 0.896551
vn -0.444267 0.0676978 0.893333
vn -0.855073 0.227788 0.465793
vn -0.608254 0.602169 0.517127
vn -0.444267 0.0676978 0.893333
vn -0.608254 0.602169 0.517127
vn -0.196093 0.189097 0.96218
vn -0.237912 0.373623 0.896551
vn -0.855073 0.227788 0.465793
vn -0.444267 0.0676978 0.893333
vn -0.237912 0.373623 0.896551
vn -0.377308 0.900164 0.217587
vn -0.855073 0.227788 0.465793
vn -0.118259 0.441722 0.889324
vn -0.202111 -0.351391 0.914153
vn 0.112555 -0.232137 0.966149
vn -0.196093 0.189097 0.96218
vn -0.118259 0.441722 0.889324
vn 0.112555 -0.232137 0.966149
vn -0.884612 0.43358 0.17167
vn -0.926981 -0.344831 0.147641
vn -0.740252 -0.315929 0.593478
vn -0.583917 0.35254 0.73127
vn -0.884612 0.43358 0.17167
vn -0.740252 -0.315929 0.593478
vn -0.583917 0.35254 0.73127
vn -0.740252 -0.315929 0.593478
vn -0.202111 -0.351391 0.914153
vn -0.118259 0.441722 0.889324
vn -0.583917 0.35254 0.73127
vn -0.202111 -0.351391 0.914153
vn 0.913644 -0.365787 0.177356
vn 0.662762 -0.34856 0.662762
vn 0.455943 -0.764352 0.455941
vn 0.435857 -0.897089 0.0725244
vn 0.913644 -0.365787 0.177356
vn 0.455943 -0.764352 0.455941
vn 0.662762 -0.34856 0.662762
vn 0.112555 -0.232137 0.966149
vn 0.455943 -0.764352 0.455941
vn 0.455943 -0.764352 0.455941
vn 0.112555 -0.232137 0.966149
vn 0.0476239 -0.956989 0.286189
vn 0.112555 -0.232137 0.966149
vn -0.202111 -0.351391 0.914153
vn -0.0441138 -0.903983 0.425286
vn 0.112555 -0.232137 0.966149
vn -0.0441138 -0.903983 0.425286
vn 0.0476239 -0.956989 0.286189
vn -0.740252 -0.315929 0.593478
vn -0.926981 -0.344831 0.147641
vn -0.413648 -0.810032 0.415624
vn -0.926981 -0.344831 0.147641
vn -0.36935 -0.928385 0.041019
vn -0.413648 -0.810032 0.415624
vn -0.369858 0.851737 0.371146
vn -0.884612 0.43358 0.17167
vn -0.583917 0.35254 0.73127
vn -0.369858 0.851737 0.371146
vn -0.379949 0.922781 0.0641427
vn -0.884612 0.43358 0.17167
vn -0.202111 -0.351391 0.914153
vn -0.740252 -0.315929 0.593478
vn -0.413648 -0.810032 0.415624
vn -0.202111 -0.351391 0.914153
vn -0.413648 -0.810032 0.415624
vn -0.0441138 -0.903983 0.425286
vn -0.369858 0.851737 0.371146
vn -0.583917 0.35254 0.73127
vn -0.118259 0.441722 0.889324
vn -0.0387407 0.968531 0.245858
vn -0.369858 0.851737 0.371146
vn -0.118259 0.441722 0.889324
vn -0.608254 0.602169 0.517127
vn -0.0387407 0.968531 0.245858
vn -0.118259 0.441722 0.889324
vn -0.608254 0.602169 0.517127
vn -0.118259 0.441722 0.889324
vn -0.196093 0.189097 0.96218
vn -0.413648 -0.810032 -0.415624
vn -0.0441138 -0.903983 -0.425286
vn -0.421011 -0.904212 -0.0717635
vn -0.413648 -0.810032 0.415624
vn -0.36935 -0.928385 0.041019
vn -0.0441138 -0.903983 0.425286
vn -0.421011 -0.904212 -0.0717635
vn -0.0441138 -0.903983 -0.425286
vn -0.36935 -0.928385 0.041019
vn -0.0441138 -0.903983 -0.425286
vn 0.0404521 -0.969159 -0.243095
vn -0.36935 -0.928385 0.041019
vn 0.435857 -0.897089 0.0725244
vn 0.455943 -0.764352 0.455941
vn 0.0476239 -0.956989 0.286189
vn 0.439749 -0.896819 -0.0483351
vn 0.0404521 -0.969159 -0.243095
vn 0.455943 -0.764352 -0.455941
vn 0.439749 -0.896819 -0.0483351
vn 0.435857 -0.897089 0.0725244
vn 0.0476239 -0.956989 0.286189
vn 0.0404521 -0.969159 -0.243095
vn 0.439749 -0.896819 -0.0483351
vn 0.0476239 -0.956989 0.286189
vn -0.0441138 -0.903983 0.425286
vn 0.0404521 -0.969159 -0.243095
vn 0.0476239 -0.956989 0.286189
vn -0.36935 -0.928385 0.041019
vn 0.0404521 -0.969159 -0.243095
vn -0.0441138 -0.903983 0.425286
vn -0.855073 0.227788 0.465793
vn -0.913635 0.231548 -0.334149
vn -0.608254 0.602169 0.517127
vn -0.913635 0.231548 -0.334149
vn -0.541463 0.531611 -0.651312
vn -0.608254 0.602169 0.517127
vn -0.377308 0.900164 0.217587
vn -0.913635 0.231548 -0.334149
vn -0.855073 0.227788 0.465793
vn -0.377308 0.900164 0.217587
vn -0.482093 0.757097 -0.440898
vn -0.913635 0.231548 -0.334149
vn 0.0413815 0.925505 -0.376469
vn -0.482093 0.757097 -0.440898
vn -0.377308 0.900164 0.217587
vn 0.39091 0.833294 0.39091
vn 0.376469 0.925504 0.0413815
vn 0.0495258 0.89137 0.450562
vn 0.0495258 0.89137 0.450562
vn 0.376469 0.925504 0.0413815
vn -0.377308 0.900164 0.217587
vn 0.39091 0.833294 -0.39091
vn 0.0413815 0.925505 -0.376469
vn 0.297253 0.953517 -0.0494635
vn 0.297253 0.953517 -0.0494635
vn 0.0413815 0.925505 -0.376469
vn -0.377308 0.900164 0.217587
vn 0.376469 0.925504 0.0413815
vn 0.297253 0.953517 -0.0494635
vn -0.377308 0.900164 0.217587
vn -0.541463 0.531611 -0.651312
vn -0.0387407 0.968531 -0.245858
vn -0.608254 0.602169 0.517127
vn -0.0387407 0.968531 -0.245858
vn -0.369858 0.851737 -0.371146
vn -0.39115 0.919327 -0.0428983
vn -0.0387407 0.968531 -0.245858
vn -0.0387407 0.968531 0.245858
vn -0.608254 0.602169 0.517127
vn -0.379949 0.922781 0.0641427
vn -0.369858 0.851737 0.371146
vn -0.0387407 0.968531 0.245858
vn -0.39115 0.919327 -0.0428983
vn -0.379949 0.922781 0.0641427
vn -0.0387407 0.968531 0.245858
vn -0.0387407 0.968531 -0.245858
vn -0.39115 0.919327 -0.0428983
vn -0.0387407 0.968531 0.245858
vn -0.113547 -0.385487 0.9157
vn -0.422997 -0.532978 0.732809
vn -0.126435 -0.400081 0.907717
vn -0.113547 -0.385487 0.9157
vn -0.423978 -0.314293 0.84939
vn -0.422997 -0.532978 0.732809
vn 0 -0.436589 0.899661
vn -0.126435 -0.400081 0.907717
vn 0 -0.264838 0.964293
vn 0 -0.436589 0.899661
vn -0.113547 -0.385487 0.9157
vn -0.126435 -0.400081 0.907717
vn 0.126435 -0.400081 0.907717
vn 0 -0.436589 0.899661
vn 0 -0.264838 0.964293
vn 0.160452 -0.385181 0.908785
vn 0 -0.436589 0.899661
vn 0.126435 -0.400081 0.907717
vn 0.422997 -0.532978 0.732809
vn 0.160452 -0.385181 0.908785
vn 0.126435 -0.400081 0.907717
vn 0.523605 -0.314293 0.79187
vn 0.160452 -0.385181 0.908785
vn 0.422997 -0.532978 0.732809
vn 0.802892 -0.394077 0.447289
vn 0.523605 -0.314293 0.79187
vn 0.422997 -0.532978 0.732809
vn 0.775561 -0.42835 0.463704
vn 0.802892 -0.394077 0.447289
vn 0.422997 -0.532978 0.732809
vn 0.853587 -0.508686 0.112377
vn 0.802892 -0.394077 0.447289
vn 0.775561 -0.42835 0.463704
vn 0.922929 -0.354721 0.149584
vn 0.853587 -0.508686 0.112377
vn 0.775561 -0.42835 0.463704
vn 0.775561 -0.42835 -0.463704
vn 0.933949 -0.329926 -0.137436
vn 0.921137 -0.37424 -0.107011
vn 0.752356 -0.392795 -0.528841
vn 0.933949 -0.329926 -0.137436
vn 0.775561 -0.42835 -0.463704
vn 0.422997 -0.532978 -0.732809
vn 0.752356 -0.392795 -0.528841
vn 0.775561 -0.42835 -0.463704
vn 0.423978 -0.314293 -0.84939
vn 0.752356 -0.392795 -0.528841
vn 0.422997 -0.532978 -0.732809
vn 0.113547 -0.385487 -0.9157
vn 0.423978 -0.314293 -0.84939
vn 0.422997 -0.532978 -0.732809
vn 0.126435 -0.400081 -0.907717
vn 0.113547 -0.385487 -0.9157
vn 0.422997 -0.532978 -0.732809
vn 0 -0.436589 -0.899661
vn 0.126435 -0.400081 -0.907717
vn 0 -0.264838 -0.964293
vn 0 -0.436589 -0.899661
vn 0.113547 -0.385487 -0.9157
vn 0.126435 -0.400081 -0.907717
vn -0.126435 -0.400081 -0.907717
vn 0 -0.436589 -0.899661
vn 0 -0.264838 -0.964293
vn -0.160452 -0.385181 -0.908785
vn 0 -0.436589 -0.899661
vn -0.126435 -0.400081 -0.907717
vn -0.160452 -0.385181 -0.908785
vn -0.126435 -0.400081 -0.907717
vn -0.422997 -0.532978 -0.732809
vn -0.523605 -0.314293 -0.79187
vn -0.160452 -0.385181 -0.908785
vn -0.422997 -0.532978 -0.732809
vn -0.802892 -0.394077 -0.447289
vn -0.422997 -0.532978 -0.732809
vn -0.775561 -0.428349 -0.463704
vn -0.802892 -0.394077 -0.447289
vn -0.523605 -0.314293 -0.79187
vn -0.422997 -0.532978 -0.732809
vn -0.853587 -0.508686 -0.112377
vn -0.775561 -0.428349 -0.463704
vn -0.943063 -0.308575 -0.12415
vn -0.853587 -0.508686 -0.112377
vn -0.802892 -0.394077 -0.447289
vn -0.775561 -0.428349 -0.463704
vn -0.933949 -0.329926 0.137436
vn -0.897557 -0.422814 0.124979
vn -0.775561 -0.428349 0.463704
vn -0.752356 -0.392795 0.528841
vn -0.933949 -0.329926 0.137436
vn -0.775561 -0.428349 0.463704
vn -0.752356 -0.392795 0.528841
vn -0.775561 -0.428349 0.463704
vn -0.422997 -0.532978 0.732809
vn -0.423978 -0.314293 0.84939
vn -0.752356 -0.392795 0.528841
vn -0.422997 -0.532978 0.732809
vn -0.126435 -0.400081 0.907717
vn -0.499418 -0.0424205 0.865322
vn -0.130493 -0.0182539 0.991281
vn -0.126435 -0.400081 0.907717
vn -0.422997 -0.532978 0.732809
vn -0.499418 -0.0424205 0.865322
vn 0 -0.264838 0.964293
vn -0.130493 -0.0182539 0.991281
vn 0 -0.0117898 0.999931
vn 0 -0.264838 0.964293
vn -0.126435 -0.400081 0.907717
vn -0.130493 -0.0182539 0.991281
vn 0.130493 -0.0182539 0.991281
vn 0 -0.264838 0.964293
vn 0 -0.0117898 0.999931
vn 0.126435 -0.400081 0.907717
vn 0 -0.264838 0.964293
vn 0.130493 -0.0182539 0.991281
vn 0.499418 -0.0424207 0.865322
vn 0.126435 -0.400081 0.907717
vn 0.130493 -0.0182539 0.991281
vn 0.422997 -0.532978 0.732809
vn 0.126435 -0.400081 0.907717
vn 0.499418 -0.0424207 0.865322
vn 0.775561 -0.42835 0.463704
vn 0.422997 -0.532978 0.732809
vn 0.499418 -0.0424207 0.865322
vn 0.864865 -0.0496547 0.499544
vn 0.775561 -0.42835 0.463704
vn 0.499418 -0.0424207 0.865322
vn 0.922929 -0.354721 0.149584
vn 0.775561 -0.42835 0.463704
vn 0.864865 -0.0496547 0.499544
vn 0.99021 -0.0497307 0.130427
vn 0.922929 -0.354721 0.149584
vn 0.864865 -0.0496547 0.499544
vn 0.864865 -0.0496547 -0.499544
vn 0.921137 -0.37424 -0.107011
vn 0.990684 -0.0391818 -0.130422
vn 0.775561 -0.42835 -0.463704
vn 0.921137 -0.37424 -0.107011
vn 0.864865 -0.0496547 -0.499544
vn 0.499418 -0.0424206 -0.865322
vn 0.775561 -0.42835 -0.463704
vn 0.864865 -0.0496547 -0.499544
vn 0.422997 -0.532978 -0.732809
vn 0.775561 -0.42835 -0.463704
vn 0.499418 -0.0424206 -0.865322
vn 0.126435 -0.400081 -0.907717
vn 0.422997 -0.532978 -0.732809
vn 0.499418 -0.0424206 -0.865322
vn 0.130493 -0.0182539 -0.991281
vn 0.126435 -0.400081 -0.907717
vn 0.499418 -0.0424206 -0.865322
vn 0 -0.264838 -0.964293
vn 0.130493 -0.0182539 -0.991281
vn 0 -0.0117898 -0.999931
vn 0 -0.264838 -0.964293
vn 0.126435 -0.400081 -0.907717
vn 0.130493 -0.0182539 -0.991281
vn -0.130493 -0.0182539 -0.991281
vn 0 -0.264838 -0.964293
vn 0 -0.0117898 -0.999931
vn -0.126435 -0.400081 -0.907717
vn 0 -0.264838 -0.964293
vn -0.130493 -0.0182539 -0.991281
vn -0.126435 -0.400081 -0.907717
vn -0.130493 -0.0182539 -0.991281
vn -0.499418 -0.0424205 -0.865322
vn -0.422997 -0.532978 -0.732809
vn -0.126435 -0.400081 -0.907717
vn -0.499418 -0.0424205 -0.865322
vn -0.775561 -0.428349 -0.463704
vn -0.499418 -0.0424205 -0.865322
vn -0.864865 -0.0496545 -0.499544
vn -0.775561 -0.428349 -0.463704
vn -0.422997 -0.532978 -0.732809
vn -0.499418 -0.0424205 -0.865322
vn -0.943063 -0.308575 -0.12415
vn -0.864865 -0.0496545 -0.499544
vn -0.986724 -0.043563 -0.156456
vn -0.943063 -0.308575 -0.12415
vn -0.775561 -0.428349 -0.463704
vn -0.864865 -0.0496545 -0.499544
vn -0.897557 -0.422814 0.124979
vn -0.992711 -0.0450761 0.111774
vn -0.864865 -0.0496545 0.499544
vn -0.775561 -0.428349 0.463704
vn -0.897557 -0.422814 0.124979
vn -0.864865 -0.0496545 0.499544
vn -0.775561 -0.428349 0.463704
vn -0.864865 -0.0496545 0.499544
vn -0.499418 -0.0424205 0.865322
vn -0.422997 -0.532978 0.732809
vn -0.775561 -0.428349 0.463704
vn -0.499418 -0.0424205 0.865322
vn -0.0612366 0.709799 0.701738
vn -0.347374 0.719254 0.601668
vn -0.160452 0.385181 0.908785
vn -0.347374 0.719254 0.601668
vn -0.523605 0.314293 0.79187
vn -0.160452 0.385181 0.908785
vn 0 0.707107 0.707107
vn -0.0612366 0.709799 0.701738
vn 0 0.436589 0.899661
vn -0.0612366 0.709799 0.701738
vn -0.160452 0.385181 0.908785
vn 0 0.436589 0.899661
vn 0.0612366 0.709799 0.701738
vn 0 0.707107 0.707107
vn 0 0.436589 0.899661
vn 0.113547 0.385487 0.9157
vn 0.0612366 0.709799 0.701738
vn 0 0.436589 0.899661
vn 0.347374 0.719254 0.601668
vn 0.0612366 0.709799 0.701738
vn 0.113547 0.385487 0.9157
vn 0.423978 0.314293 0.84939
vn 0.347374 0.719254 0.601668
vn 0.113547 0.385487 0.9157
vn 0.63148 0.717873 0.293071
vn 0.347374 0.719254 0.601668
vn 0.752356 0.392795 0.528841
vn 0.752356 0.392795 0.528841
vn 0.347374 0.719254 0.601668
vn 0.423978 0.314293 0.84939
vn 0.701738 0.709799 0.0612368
vn 0.63148 0.717873 0.293071
vn 0.933949 0.329926 0.137436
vn 0.933949 0.329926 0.137436
vn 0.63148 0.717873 0.293071
vn 0.752356 0.392795 0.528841
vn 0.63148 0.717874 -0.293071
vn 0.698039 0.710138 -0.091899
vn 0.853587 0.508686 -0.112377
vn 0.802892 0.394077 -0.447289
vn 0.63148 0.717874 -0.293071
vn 0.853587 0.508686 -0.112377
vn 0.347374 0.719254 -0.601668
vn 0.63148 0.717874 -0.293071
vn 0.802892 0.394077 -0.447289
vn 0.523605 0.314293 -0.79187
vn 0.347374 0.719254 -0.601668
vn 0.802892 0.394077 -0.447289
vn 0.0612366 0.709799 -0.701738
vn 0.347374 0.719254 -0.601668
vn 0.160452 0.385181 -0.908785
vn 0.160452 0.385181 -0.908785
vn 0.347374 0.719254 -0.601668
vn 0.523605 0.314293 -0.79187
vn 0 0.707107 -0.707107
vn 0.0612366 0.709799 -0.701738
vn 0 0.436589 -0.899661
vn 0.0612366 0.709799 -0.701738
vn 0.160452 0.385181 -0.908785
vn 0 0.436589 -0.899661
vn -0.0612366 0.709799 -0.701738
vn 0 0.707107 -0.707107
vn 0 0.436589 -0.899661
vn -0.113547 0.385487 -0.9157
vn -0.0612366 0.709799 -0.701738
vn 0 0.436589 -0.899661
vn -0.347374 0.719254 -0.601668
vn -0.113547 0.385487 -0.9157
vn -0.423978 0.314293 -0.84939
vn -0.347374 0.719254 -0.601668
vn -0.0612366 0.709799 -0.701738
vn -0.113547 0.385487 -0.9157
vn -0.63148 0.717873 -0.293071
vn -0.347374 0.719254 -0.601668
vn -0.752356 0.392795 -0.528841
vn -0.347374 0.719254 -0.601668
vn -0.423978 0.314293 -0.84939
vn -0.752356 0.392795 -0.528841
vn -0.701738 0.709799 -0.0612368
vn -0.63148 0.717873 -0.293071
vn -0.933949 0.329926 -0.137436
vn -0.63148 0.717873 -0.293071
vn -0.752356 0.392795 -0.528841
vn -0.933949 0.329926 -0.137436
vn -0.63148 0.717873 0.293071
vn -0.853587 0.508686 0.112377
vn -0.802892 0.394077 0.447289
vn -0.63148 0.717873 0.293071
vn -0.698039 0.710138 0.091899
vn -0.853587 0.508686 0.112377
vn -0.347374 0.719254 0.601668
vn -0.802892 0.394077 0.447289
vn -0.523605 0.314293 0.79187
vn -0.347374 0.719254 0.601668
vn -0.63148 0.717873 0.293071
vn -0.802892 0.394077 0.447289
vn 0.160452 -0.385181 0.908785
vn 0.113547 0.385487 0.9157
vn 0 -0.436589 0.899661
vn 0.113547 0.385487 0.9157
vn 0 0.436589 0.899661
vn 0 -0.436589 0.899661
vn 0 0.436589 0.899661
vn -0.113547 -0.385487 0.9157
vn 0 -0.436589 0.899661
vn 0 0.436589 0.899661
vn -0.160452 0.385181 0.908785
vn -0.113547 -0.385487 0.9157
vn -0.160452 0.385181 0.908785
vn -0.423978 -0.314293 0.84939
vn -0.113547 -0.385487 0.9157
vn -0.160452 0.385181 0.908785
vn -0.523605 0.314293 0.79187
vn -0.423978 -0.314293 0.84939
vn -0.523605 0.314293 0.79187
vn -0.752356 -0.392795 0.528841
vn -0.423978 -0.314293 0.84939
vn -0.523605 0.314293 0.79187
vn -0.802892 0.394077 0.447289
vn -0.752356 -0.392795 0.528841
vn -0.802892 0.394077 0.447289
vn -0.933949 -0.329926 0.137436
vn -0.752356 -0.392795 0.528841
vn -0.802892 0.394077 0.447289
vn -0.853587 0.508686 0.112377
vn -0.933949 -0.329926 0.137436
vn -0.933949 0.329926 -0.137436
vn -0.802892 -0.394077 -0.447289
vn -0.853587 -0.508686 -0.112377
vn -0.933949 0.329926 -0.137436
vn -0.752356 0.392795 -0.528841
vn -0.802892 -0.394077 -0.447289
vn -0.752356 0.392795 -0.528841
vn -0.523605 -0.314293 -0.79187
vn -0.802892 -0.394077 -0.447289
vn -0.752356 0.392795 -0.528841
vn -0.423978 0.314293 -0.84939
vn -0.523605 -0.314293 -0.79187
vn -0.423978 0.314293 -0.84939
vn -0.160452 -0.385181 -0.908785
vn -0.523605 -0.314293 -0.79187
vn -0.423978 0.314293 -0.84939
vn -0.113547 0.385487 -0.9157
vn -0.160452 -0.385181 -0.908785
vn -0.160452 -0.385181 -0.908785
vn -0.113547 0.385487 -0.9157
vn 0 -0.436589 -0.899661
vn -0.113547 0.385487 -0.9157
vn 0 0.436589 -0.899661
vn 0 -0.436589 -0.899661
vn 0 0.436589 -0.899661
vn 0.113547 -0.385487 -0.9157
vn 0 -0.436589 -0.899661
vn 0 0.436589 -0.899661
vn 0.160452 0.385181 -0.908785
vn 0.113547 -0.385487 -0.9157
vn 0.113547 -0.385487 -0.9157
vn 0.160452 0.385181 -0.908785
vn 0.423978 -0.314293 -0.84939
vn 0.160452 0.385181 -0.908785
vn 0.523605 0.314293 -0.79187
vn 0.423978 -0.314293 -0.84939
vn 0.423978 -0.314293 -0.84939
vn 0.523605 0.314293 -0.79187
vn 0.752356 -0.392795 -0.528841
vn 0.523605 0.314293 -0.79187
vn 0.802892 0.394077 -0.447289
vn 0.752356 -0.392795 -0.528841
vn 0.752356 -0.392795 -0.528841
vn 0.802892 0.394077 -0.447289
vn 0.933949 -0.329926 -0.137436
vn 0.802892 0.394077 -0.447289
vn 0.853587 0.508686 -0.112377
vn 0.933949 -0.329926 -0.137436
vn 0.853587 -0.508686 0.112377
vn 0.933949 0.329926 0.137436
vn 0.802892 -0.394077 0.447289
vn 0.933949 0.329926 0.137436
vn 0.752356 0.392795 0.528841
vn 0.802892 -0.394077 0.447289
vn 0.802892 -0.394077 0.447289
vn 0.752356 0.392795 0.528841
vn 0.523605 -0.314293 0.79187
vn 0.752356 0.392795 0.528841
vn 0.423978 0.314293 0.84939
vn 0.523605 -0.314293 0.79187
vn 0.523605 -0.314293 0.79187
vn 0.423978 0.314293 0.84939
vn 0.160452 -0.385181 0.908785
vn 0.423978 0.314293 0.84939
vn 0.113547 0.385487 0.9157
vn 0.160452 -0.385181 0.908785
vn -0.126435 0.400081 0.907717
vn -0.422997 0.532978 0.732809
vn -0.113547 0.385487 0.9157
vn -0.422997 0.532978 0.732809
vn -0.423978 0.314293 0.84939
vn -0.113547 0.385487 0.9157
vn 0 0.264838 0.964293
vn -0.126435 0.400081 0.907717
vn 0 0.436589 0.899661
vn -0.126435 0.400081 0.907717
vn -0.113547 0.385487 0.9157
vn 0 0.436589 0.899661
vn 0.126434 0.400081 0.907717
vn 0 0.264838 0.964293
vn 0 0.436589 0.899661
vn 0.160452 0.385181 0.908785
vn 0.126434 0.400081 0.907717
vn 0 0.436589 0.899661
vn 0.422997 0.532978 0.732809
vn 0.126434 0.400081 0.907717
vn 0.160452 0.385181 0.908785
vn 0.523605 0.314293 0.79187
vn 0.422997 0.532978 0.732809
vn 0.160452 0.385181 0.908785
vn 0.775561 0.42835 0.463704
vn 0.422997 0.532978 0.732809
vn 0.802892 0.394077 0.447289
vn 0.802892 0.394077 0.447289
vn 0.422997 0.532978 0.732809
vn 0.523605 0.314293 0.79187
vn 0.897557 0.422815 0.124979
vn 0.775561 0.42835 0.463704
vn 0.9157 0.385487 0.113547
vn 0.9157 0.385487 0.113547
vn 0.775561 0.42835 0.463704
vn 0.802892 0.394077 0.447289
vn 0.775561 0.42835 -0.463704
vn 0.943063 0.308575 -0.12415
vn 0.887664 0.43954 -0.137323
vn 0.752356 0.392795 -0.528841
vn 0.775561 0.42835 -0.463704
vn 0.887664 0.43954 -0.137323
vn 0.422997 0.532978 -0.732809
vn 0.775561 0.42835 -0.463704
vn 0.752356 0.392795 -0.528841
vn 0.423978 0.314293 -0.84939
vn 0.422997 0.532978 -0.732809
vn 0.752356 0.392795 -0.528841
vn 0.126434 0.400081 -0.907717
vn 0.422997 0.532978 -0.732809
vn 0.113547 0.385487 -0.9157
vn 0.113547 0.385487 -0.9157
vn 0.422997 0.532978 -0.732809
vn 0.423978 0.314293 -0.84939
vn 0 0.264838 -0.964293
vn 0.126434 0.400081 -0.907717
vn 0 0.436589 -0.899661
vn 0.126434 0.400081 -0.907717
vn 0.113547 0.385487 -0.9157
vn 0 0.436589 -0.899661
vn -0.126435 0.400081 -0.907717
vn 0 0.264838 -0.964293
vn 0 0.436589 -0.899661
vn -0.160452 0.385181 -0.908785
vn -0.126435 0.400081 -0.907717
vn 0 0.436589 -0.899661
vn -0.422997 0.532978 -0.732809
vn -0.160452 0.385181 -0.908785
vn -0.523605 0.314293 -0.79187
vn -0.422997 0.532978 -0.732809
vn -0.126435 0.400081 -0.907717
vn -0.160452 0.385181 -0.908785
vn -0.775561 0.428349 -0.463704
vn -0.422997 0.532978 -0.732809
vn -0.802892 0.394077 -0.447289
vn -0.422997 0.532978 -0.732809
vn -0.523605 0.314293 -0.79187
vn -0.802892 0.394077 -0.447289
vn -0.921137 0.37424 -0.107011
vn -0.775561 0.428349 -0.463704
vn -0.9157 0.385487 -0.113547
vn -0.775561 0.428349 -0.463704
vn -0.802892 0.394077 -0.447289
vn -0.9157 0.385487 -0.113547
vn -0.775561 0.428349 0.463704
vn -0.887664 0.43954 0.137323
vn -0.752356 0.392795 0.528841
vn -0.775561 0.428349 0.463704
vn -0.922929 0.354721 0.149584
vn -0.887664 0.43954 0.137323
vn -0.422997 0.532978 0.732809
vn -0.752356 0.392795 0.528841
vn -0.423978 0.314293 0.84939
vn -0.422997 0.532978 0.732809
vn -0.775561 0.428349 0.463704
vn -0.752356 0.392795 0.528841
vn -0.130493 0.0182539 0.991281
vn -0.499418 0.0424205 0.865322
vn -0.126435 0.400081 0.907717
vn -0.499418 0.0424205 0.865322
vn -0.422997 0.532978 0.732809
vn -0.126435 0.400081 0.907717
vn 0 0.0117898 0.999931
vn -0.130493 0.0182539 0.991281
vn 0 0.264838 0.964293
vn -0.130493 0.0182539 0.991281
vn -0.126435 0.400081 0.907717
vn 0 0.264838 0.964293
vn 0.130493 0.0182539 0.991281
vn 0 0.0117898 0.999931
vn 0 0.264838 0.964293
vn 0.126434 0.400081 0.907717
vn 0.130493 0.0182539 0.991281
vn 0 0.264838 0.964293
vn 0.499418 0.0424206 0.865322
vn 0.130493 0.0182539 0.991281
vn 0.126434 0.400081 0.907717
vn 0.422997 0.532978 0.732809
vn 0.499418 0.0424206 0.865322
vn 0.126434 0.400081 0.907717
vn 0.864865 0.0496547 0.499544
vn 0.499418 0.0424206 0.865322
vn 0.775561 0.42835 0.463704
vn 0.775561 0.42835 0.463704
vn 0.499418 0.0424206 0.865322
vn 0.422997 0.532978 0.732809
vn 0.992711 0.0450763 0.111774
vn 0.864865 0.0496547 0.499544
vn 0.897557 0.422815 0.124979
vn 0.897557 0.422815 0.124979
vn 0.864865 0.0496547 0.499544
vn 0.775561 0.42835 0.463704
vn 0.864865 0.0496547 -0.499544
vn 0.986724 0.0435632 -0.156456
vn 0.943063 0.308575 -0.12415
vn 0.775561 0.42835 -0.463704
vn 0.864865 0.0496547 -0.499544
vn 0.943063 0.308575 -0.12415
vn 0.499418 0.0424206 -0.865322
vn 0.864865 0.0496547 -0.499544
vn 0.775561 0.42835 -0.463704
vn 0.422997 0.532978 -0.732809
vn 0.499418 0.0424206 -0.865322
vn 0.775561 0.42835 -0.463704
vn 0.130493 0.0182539 -0.991281
vn 0.499418 0.0424206 -0.865322
vn 0.126434 0.400081 -0.907717
vn 0.126434 0.400081 -0.907717
vn 0.499418 0.0424206 -0.865322
vn 0.422997 0.532978 -0.732809
vn 0 0.0117898 -0.999931
vn 0.130493 0.0182539 -0.991281
vn 0 0.264838 -0.964293
vn 0.130493 0.0182539 -0.991281
vn 0.126434 0.400081 -0.907717
vn 0 0.264838 -0.964293
vn -0.130493 0.0182539 -0.991281
vn 0 0.0117898 -0.999931
vn 0 0.264838 -0.964293
vn -0.126435 0.400081 -0.907717
vn -0.130493 0.0182539 -0.991281
vn 0 0.264838 -0.964293
vn -0.499418 0.0424205 -0.865322
vn -0.126435 0.400081 -0.907717
vn -0.422997 0.532978 -0.732809
vn -0.499418 0.0424205 -0.865322
vn -0.130493 0.0182539 -0.991281
vn -0.126435 0.400081 -0.907717
vn -0.864865 0.0496545 -0.499544
vn -0.499418 0.0424205 -0.865322
vn -0.775561 0.428349 -0.463704
vn -0.499418 0.0424205 -0.865322
vn -0.422997 0.532978 -0.732809
vn -0.775561 0.428349 -0.463704
vn -0.990684 0.0391816 -0.130422
vn -0.864865 0.0496545 -0.499544
vn -0.921137 0.37424 -0.107011
vn -0.864865 0.0496545 -0.499544
vn -0.775561 0.428349 -0.463704
vn -0.921137 0.37424 -0.107011
vn -0.864865 0.0496545 0.499544
vn -0.922929 0.354721 0.149584
vn -0.775561 0.428349 0.463704
vn -0.864865 0.0496545 0.499544
vn -0.99021 0.0497305 0.130427
vn -0.922929 0.354721 0.149584
vn -0.499418 0.0424205 0.865322
vn -0.775561 0.428349 0.463704
vn -0.422997 0.532978 0.732809
vn -0.499418 0.0424205 0.865322
vn -0.864865 0.0496545 0.499544
vn -0.775561 0.428349 0.463704
vn -0.160452 -0.385181 0.908785
vn -0.212216 -0.90546 0.367568
vn -0.033052 -0.924906 0.378757
vn -0.160452 -0.385181 0.908785
vn -0.523605 -0.314293 0.79187
vn -0.212216 -0.90546 0.367568
vn 0 -0.436589 0.899661
vn -0.033052 -0.924906 0.378757
vn 0 -0.95232 0.305102
vn 0 -0.436589 0.899661
vn -0.160452 -0.385181 0.908785
vn -0.033052 -0.924906 0.378757
vn 0.033052 -0.924906 0.378757
vn 0 -0.436589 0.899661
vn 0 -0.95232 0.305102
vn 0.113547 -0.385487 0.9157
vn 0 -0.436589 0.899661
vn 0.033052 -0.924906 0.378757
vn 0.212216 -0.90546 0.367568
vn 0.113547 -0.385487 0.9157
vn 0.033052 -0.924906 0.378757
vn 0.423978 -0.314293 0.84939
vn 0.113547 -0.385487 0.9157
vn 0.212216 -0.90546 0.367568
vn 0.752356 -0.392795 0.528841
vn 0.423978 -0.314293 0.84939
vn 0.212216 -0.90546 0.367568
vn 0.338106 -0.927934 0.156916
vn 0.752356 -0.392795 0.528841
vn 0.212216 -0.90546 0.367568
vn 0.887664 -0.43954 0.137323
vn 0.752356 -0.392795 0.528841
vn 0.338106 -0.927934 0.156916
vn 0.376634 -0.925034 0.049585
vn 0.887664 -0.43954 0.137323
vn 0.338106 -0.927934 0.156916
vn 0.338106 -0.927934 -0.156916
vn 0.9157 -0.385487 -0.113547
vn 0.557047 -0.829057 -0.0486104
vn 0.802892 -0.394077 -0.447289
vn 0.9157 -0.385487 -0.113547
vn 0.338106 -0.927934 -0.156916
vn 0.212216 -0.90546 -0.367568
vn 0.802892 -0.394077 -0.447289
vn 0.338106 -0.927934 -0.156916
vn 0.523605 -0.314293 -0.79187
vn 0.802892 -0.394077 -0.447289
vn 0.212216 -0.90546 -0.367568
vn 0.160452 -0.385181 -0.908785
vn 0.523605 -0.314293 -0.79187
vn 0.212216 -0.90546 -0.367568
vn 0.033052 -0.924906 -0.378757
vn 0.160452 -0.385181 -0.908785
vn 0.212216 -0.90546 -0.367568
vn 0 -0.436589 -0.899661
vn 0.033052 -0.924906 -0.378757
vn 0 -0.95232 -0.305102
vn 0 -0.436589 -0.899661
vn 0.160452 -0.385181 -0.908785
vn 0.033052 -0.924906 -0.378757
vn -0.033052 -0.924906 -0.378757
vn 0 -0.436589 -0.899661
vn 0 -0.95232 -0.305102
vn -0.113547 -0.385487 -0.9157
vn 0 -0.436589 -0.899661
vn -0.033052 -0.924906 -0.378757
vn -0.113547 -0.385487 -0.9157
vn -0.033052 -0.924906 -0.378757
vn -0.212216 -0.90546 -0.367568
vn -0.423978 -0.314293 -0.84939
vn -0.113547 -0.385487 -0.9157
vn -0.212216 -0.90546 -0.367568
vn -0.752356 -0.392795 -0.528841
vn -0.212216 -0.90546 -0.367568
vn -0.288959 -0.947902 -0.134107
vn -0.752356 -0.392795 -0.528841
vn -0.423978 -0.314293 -0.84939
vn -0.212216 -0.90546 -0.367568
vn -0.887664 -0.43954 -0.137323
vn -0.288959 -0.947902 -0.134107
vn -0.497923 -0.86474 -0.0655531
vn -0.887664 -0.43954 -0.137323
vn -0.752356 -0.392795 -0.528841
vn -0.288959 -0.947902 -0.134107
vn -0.9157 -0.385487 0.113547
vn -0.453174 -0.890545 0.039546
vn -0.405109 -0.894728 0.188012
vn -0.802892 -0.394077 0.447289
vn -0.9157 -0.385487 0.113547
vn -0.405109 -0.894728 0.188012
vn -0.802892 -0.394077 0.447289
vn -0.405109 -0.894728 0.188012
vn -0.212216 -0.90546 0.367568
vn -0.523605 -0.314293 0.79187
vn -0.802892 -0.394077 0.447289
vn -0.212216 -0.90546 0.367568
vn 0.160452 0.385181 0.908785
vn 0 0.436589 0.899661
vn 0.113547 -0.385487 0.9157
vn 0.113547 -0.385487 0.9157
vn 0 0.436589 0.899661
vn 0 -0.436589 0.899661
vn 0 0.436589 0.899661
vn -0.113547 0.385487 0.9157
vn 0 -0.436589 0.899661
vn -0.113547 0.385487 0.9157
vn -0.160452 -0.385181 0.908785
vn 0 -0.436589 0.899661
vn -0.113547 0.385487 0.9157
vn -0.423978 0.314293 0.84939
vn -0.160452 -0.385181 0.908785
vn -0.423978 0.314293 0.84939
vn -0.523605 -0.314293 0.79187
vn -0.160452 -0.385181 0.908785
vn -0.423978 0.314293 0.84939
vn -0.752356 0.392795 0.528841
vn -0.523605 -0.314293 0.79187
vn -0.752356 0.392795 0.528841
vn -0.802892 -0.394077 0.447289
vn -0.523605 -0.314293 0.79187
vn -0.752356 0.392795 0.528841
vn -0.887664 0.43954 0.137323
vn -0.802892 -0.394077 0.447289
vn -0.887664 0.43954 0.137323
vn -0.9157 -0.385487 0.113547
vn -0.802892 -0.394077 0.447289
vn -0.9157 0.385487 -0.113547
vn -0.802892 0.394077 -0.447289
vn -0.887664 -0.43954 -0.137323
vn -0.802892 0.394077 -0.447289
vn -0.752356 -0.392795 -0.528841
vn -0.887664 -0.43954 -0.137323
vn -0.802892 0.394077 -0.447289
vn -0.523605 0.314293 -0.79187
vn -0.752356 -0.392795 -0.528841
vn -0.523605 0.314293 -0.79187
vn -0.423978 -0.314293 -0.84939
vn -0.752356 -0.392795 -0.528841
vn -0.523605 0.314293 -0.79187
vn -0.160452 0.385181 -0.908785
vn -0.423978 -0.314293 -0.84939
vn -0.160452 0.385181 -0.908785
vn -0.113547 -0.385487 -0.9157
vn -0.423978 -0.314293 -0.84939
vn -0.160452 0.385181 -0.908785
vn 0 0.436589 -0.899661
vn -0.113547 -0.385487 -0.9157
vn -0.113547 -0.385487 -0.9157
vn 0 0.436589 -0.899661
vn 0 -0.436589 -0.899661
vn 0 0.436589 -0.899661
vn 0.113547 0.385487 -0.9157
vn 0 -0.436589 -0.899661
vn 0.113547 0.385487 -0.9157
vn 0.160452 -0.385181 -0.908785
vn 0 -0.436589 -0.899661
vn 0.113547 0.385487 -0.9157
vn 0.423978 0.314293 -0.84939
vn 0.160452 -0.385181 -0.908785
vn 0.160452 -0.385181 -0.908785
vn 0.423978 0.314293 -0.84939
vn 0.523605 -0.314293 -0.79187
vn 0.423978 0.314293 -0.84939
vn 0.752356 0.392795 -0.528841
vn 0.523605 -0.314293 -0.79187
vn 0.523605 -0.314293 -0.79187
vn 0.752356 0.392795 -0.528841
vn 0.802892 -0.394077 -0.447289
vn 0.752356 0.392795 -0.528841
vn 0.887664 0.43954 -0.137323
vn 0.802892 -0.394077 -0.447289
vn 0.802892 -0.394077 -0.447289
vn 0.887664 0.43954 -0.137323
vn 0.9157 -0.385487 -0.113547
vn 0.9157 0.385487 0.113547
vn 0.802892 0.394077 0.447289
vn 0.887664 -0.43954 0.137323
vn 0.887664 -0.43954 0.137323
vn 0.802892 0.394077 0.447289
vn 0.752356 -0.392795 0.528841
vn 0.802892 0.394077 0.447289
vn 0.523605 0.314293 0.79187
vn 0.752356 -0.392795 0.528841
vn 0.752356 -0.392795 0.528841
vn 0.523605 0.314293 0.79187
vn 0.423978 -0.314293 0.84939
vn 0.523605 0.314293 0.79187
vn 0.160452 0.385181 0.908785
vn 0.423978 -0.314293 0.84939
vn 0.423978 -0.314293 0.84939
vn 0.160452 0.385181 0.908785
vn 0.113547 -0.385487 0.9157
vn -0.853587 0.508686 0.112377
vn -0.933949 0.329926 -0.137436
vn -0.933949 -0.329926 0.137436
vn -0.933949 0.329926 -0.137436
vn -0.853587 -0.508686 -0.112377
vn -0.933949 -0.329926 0.137436
vn -0.933949 -0.329926 0.137436
vn -0.853587 -0.508686 -0.112377
vn -0.897557 -0.422814 0.124979
vn -0.853587 -0.508686 -0.112377
vn -0.943063 -0.308575 -0.12415
vn -0.897557 -0.422814 0.124979
vn -0.897557 -0.422814 0.124979
vn -0.943063 -0.308575 -0.12415
vn -0.992711 -0.0450761 0.111774
vn -0.943063 -0.308575 -0.12415
vn -0.986724 -0.043563 -0.156456
vn -0.992711 -0.0450761 0.111774
vn -0.698039 0.710138 0.091899
vn -0.701738 0.709799 -0.0612368
vn -0.853587 0.508686 0.112377
vn -0.701738 0.709799 -0.0612368
vn -0.933949 0.329926 -0.137436
vn -0.853587 0.508686 0.112377
vn -0.99021 0.0497305 0.130427
vn -0.921137 0.37424 -0.107011
vn -0.922929 0.354721 0.149584
vn -0.99021 0.0497305 0.130427
vn -0.990684 0.0391816 -0.130422
vn -0.921137 0.37424 -0.107011
vn -0.922929 0.354721 0.149584
vn -0.921137 0.37424 -0.107011
vn -0.887664 0.43954 0.137323
vn -0.921137 0.37424 -0.107011
vn -0.9157 0.385487 -0.113547
vn -0.887664 0.43954 0.137323
vn -0.887664 0.43954 0.137323
vn -0.9157 0.385487 -0.113547
vn -0.9157 -0.385487 0.113547
vn -0.9157 0.385487 -0.113547
vn -0.887664 -0.43954 -0.137323
vn -0.9157 -0.385487 0.113547
vn -0.9157 -0.385487 0.113547
vn -0.887664 -0.43954 -0.137323
vn -0.453174 -0.890545 0.039546
vn -0.887664 -0.43954 -0.137323
vn -0.497923 -0.86474 -0.0655531
vn -0.453174 -0.890545 0.039546
vn 0.933949 -0.329926 -0.137436
vn 0.933949 0.329926 0.137436
vn 0.853587 -0.508686 0.112377
vn 0.853587 0.508686 -0.112377
vn 0.933949 0.329926 0.137436
vn 0.933949 -0.329926 -0.137436
vn 0.853587 0.508686 -0.112377
vn 0.701738 0.709799 0.0612368
vn 0.933949 0.329926 0.137436
vn 0.698039 0.710138 -0.091899
vn 0.701738 0.709799 0.0612368
vn 0.853587 0.508686 -0.112377
vn 0.921137 -0.37424 -0.107011
vn 0.853587 -0.508686 0.112377
vn 0.922929 -0.354721 0.149584
vn 0.933949 -0.329926 -0.137436
vn 0.853587 -0.508686 0.112377
vn 0.921137 -0.37424 -0.107011
vn 0.921137 -0.37424 -0.107011
vn 0.922929 -0.354721 0.149584
vn 0.99021 -0.0497307 0.130427
vn 0.990684 -0.0391818 -0.130422
vn 0.921137 -0.37424 -0.107011
vn 0.99021 -0.0497307 0.130427
vn 0.9157 -0.385487 -0.113547
vn 0.9157 0.385487 0.113547
vn 0.887664 -0.43954 0.137323
vn 0.887664 0.43954 -0.137323
vn 0.9157 0.385487 0.113547
vn 0.9157 -0.385487 -0.113547
vn 0.887664 0.43954 -0.137323
vn 0.897557 0.422815 0.124979
vn 0.9157 0.385487 0.113547
vn 0.943063 0.308575 -0.12415
vn 0.897557 0.422815 0.124979
vn 0.887664 0.43954 -0.137323
vn 0.943063 0.308575 -0.12415
vn 0.992711 0.0450763 0.111774
vn 0.897557 0.422815 0.124979
vn 0.986724 0.0435632 -0.156456
vn 0.992711 0.0450763 0.111774
vn 0.943063 0.308575 -0.12415
vn 0.557047 -0.829057 -0.0486104
vn 0.887664 -0.43954 0.137323
vn 0.376634 -0.925034 0.049585
vn 0.9157 -0.385487 -0.113547
vn 0.887664 -0.43954 0.137323
vn 0.557047 -0.829057 -0.0486104
vn -0.130493 -0.0182539 0.991281
vn -0.499418 -0.0424205 0.865322
vn -0.49999 7.23221e-010 0.866031
vn -0.130493 -0.0182539 0.991281
vn -0.49999 7.23221e-010 0.866031
vn -0.0869313 -3.12835e-010 0.996214
vn 0 -0.0117898 0.999931
vn -0.130493 -0.0182539 0.991281
vn -0.0869313 -3.12835e-010 0.996214
vn 0 -0.0117898 0.999931
vn -0.0869313 -3.12835e-010 0.996214
vn 0 0 1
vn 0.130493 -0.0182539 0.991281
vn 0 -0.0117898 0.999931
vn 0.0869313 3.12835e-010 0.996214
vn 0.0869313 3.12835e-010 0.996214
vn 0 -0.0117898 0.999931
vn 0 0 1
vn 0.499418 -0.0424207 0.865322
vn 0.130493 -0.0182539 0.991281
vn 0.49999 2.41074e-010 0.866031
vn 0.49999 2.41074e-010 0.866031
vn 0.130493 -0.0182539 0.991281
vn 0.0869313 3.12835e-010 0.996214
vn 0.864865 -0.0496547 0.499544
vn 0.499418 -0.0424207 0.865322
vn 0.49999 2.41074e-010 0.866031
vn 0.907072 6.40345e-010 0.420976
vn 0.864865 -0.0496547 0.499544
vn 0.49999 2.41074e-010 0.866031
vn 0.99021 -0.0497307 0.130427
vn 0.864865 -0.0496547 0.499544
vn 0.907072 6.40345e-010 0.420976
vn 0.994531 -0.00343898 0.104383
vn 0.99021 -0.0497307 0.130427
vn 0.907072 6.40345e-010 0.420976
vn 0.864865 -0.0496547 -0.499544
vn 0.990684 -0.0391818 -0.130422
vn 0.907072 -3.20173e-010 -0.420976
vn 0.907072 -3.20173e-010 -0.420976
vn 0.990684 -0.0391818 -0.130422
vn 0.994531 0.00343898 -0.104383
vn 0.499991 -3.6161e-010 -0.866031
vn 0.864865 -0.0496547 -0.499544
vn 0.907072 -3.20173e-010 -0.420976
vn 0.499418 -0.0424206 -0.865322
vn 0.864865 -0.0496547 -0.499544
vn 0.499991 -3.6161e-010 -0.866031
vn 0.130493 -0.0182539 -0.991281
vn 0.499418 -0.0424206 -0.865322
vn 0.499991 -3.6161e-010 -0.866031
vn 0.0869313 3.12835e-010 -0.996214
vn 0.130493 -0.0182539 -0.991281
vn 0.499991 -3.6161e-010 -0.866031
vn 0 -0.0117898 -0.999931
vn 0.130493 -0.0182539 -0.991281
vn 0.0869313 3.12835e-010 -0.996214
vn 0 -0.0117898 -0.999931
vn 0.0869313 3.12835e-010 -0.996214
vn 0 0 -1
vn -0.130493 -0.0182539 -0.991281
vn 0 -0.0117898 -0.999931
vn -0.0869313 -1.56417e-010 -0.996214
vn -0.0869313 -1.56417e-010 -0.996214
vn 0 -0.0117898 -0.999931
vn 0 0 -1
vn -0.499418 -0.0424205 -0.865322
vn -0.130493 -0.0182539 -0.991281
vn -0.49999 -2.41074e-010 -0.866031
vn -0.130493 -0.0182539 -0.991281
vn -0.0869313 -1.56417e-010 -0.996214
vn -0.49999 -2.41074e-010 -0.866031
vn -0.864865 -0.0496545 -0.499544
vn -0.499418 -0.0424205 -0.865322
vn -0.49999 -2.41074e-010 -0.866031
vn -0.864865 -0.0496545 -0.499544
vn -0.49999 -2.41074e-010 -0.866031
vn -0.907072 3.20173e-010 -0.420976
vn -0.986724 -0.043563 -0.156456
vn -0.864865 -0.0496545 -0.499544
vn -0.907072 3.20173e-010 -0.420976
vn -0.986724 -0.043563 -0.156456
vn -0.907072 3.20173e-010 -0.420976
vn -0.994531 -0.00343897 -0.104383
vn -0.864865 -0.0496545 0.499544
vn -0.992711 -0.0450761 0.111774
vn -0.907072 9.60518e-010 0.420976
vn -0.992711 -0.0450761 0.111774
vn -0.994531 0.00343897 0.104383
vn -0.907072 9.60518e-010 0.420976
vn -0.864865 -0.0496545 0.499544
vn -0.907072 9.60518e-010 0.420976
vn -0.49999 7.23221e-010 0.866031
vn -0.499418 -0.0424205 0.865322
vn -0.864865 -0.0496545 0.499544
vn -0.49999 7.23221e-010 0.866031
vn -0.49999 7.23221e-010 0.866031
vn -0.499418 0.0424205 0.865322
vn -0.130493 0.0182539 0.991281
vn -0.0869313 -3.12835e-010 0.996214
vn -0.49999 7.23221e-010 0.866031
vn -0.130493 0.0182539 0.991281
vn -0.0869313 -3.12835e-010 0.996214
vn -0.130493 0.0182539 0.991281
vn 0 0.0117898 0.999931
vn 0 0 1
vn -0.0869313 -3.12835e-010 0.996214
vn 0 0.0117898 0.999931
vn 0.130493 0.0182539 0.991281
vn 0.0869313 3.12835e-010 0.996214
vn 0 0.0117898 0.999931
vn 0.0869313 3.12835e-010 0.996214
vn 0 0 1
vn 0 0.0117898 0.999931
vn 0.499418 0.0424206 0.865322
vn 0.49999 2.41074e-010 0.866031
vn 0.130493 0.0182539 0.991281
vn 0.49999 2.41074e-010 0.866031
vn 0.0869313 3.12835e-010 0.996214
vn 0.130493 0.0182539 0.991281
vn 0.907072 6.40345e-010 0.420976
vn 0.49999 2.41074e-010 0.866031
vn 0.864865 0.0496547 0.499544
vn 0.864865 0.0496547 0.499544
vn 0.49999 2.41074e-010 0.866031
vn 0.499418 0.0424206 0.865322
vn 0.992711 0.0450763 0.111774
vn 0.907072 6.40345e-010 0.420976
vn 0.864865 0.0496547 0.499544
vn 0.994531 -0.00343898 0.104383
vn 0.907072 6.40345e-010 0.420976
vn 0.992711 0.0450763 0.111774
vn 0.864865 0.0496547 -0.499544
vn 0.907072 -3.20173e-010 -0.420976
vn 0.986724 0.0435632 -0.156456
vn 0.907072 -3.20173e-010 -0.420976
vn 0.994531 0.00343898 -0.104383
vn 0.986724 0.0435632 -0.156456
vn 0.499418 0.0424206 -0.865322
vn 0.499991 -3.6161e-010 -0.866031
vn 0.864865 0.0496547 -0.499544
vn 0.499991 -3.6161e-010 -0.866031
vn 0.907072 -3.20173e-010 -0.420976
vn 0.864865 0.0496547 -0.499544
vn 0.130493 0.0182539 -0.991281
vn 0.499991 -3.6161e-010 -0.866031
vn 0.499418 0.0424206 -0.865322
vn 0.0869313 3.12835e-010 -0.996214
vn 0.499991 -3.6161e-010 -0.866031
vn 0.130493 0.0182539 -0.991281
vn 0.0869313 3.12835e-010 -0.996214
vn 0.130493 0.0182539 -0.991281
vn 0 0.0117898 -0.999931
vn 0 0 -1
vn 0.0869313 3.12835e-010 -0.996214
vn 0 0.0117898 -0.999931
vn -0.130493 0.0182539 -0.991281
vn -0.0869313 -1.56417e-010 -0.996214
vn 0 0.0117898 -0.999931
vn -0.0869313 -1.56417e-010 -0.996214
vn 0 0 -1
vn 0 0.0117898 -0.999931
vn -0.49999 -2.41074e-010 -0.866031
vn -0.130493 0.0182539 -0.991281
vn -0.499418 0.0424205 -0.865322
vn -0.49999 -2.41074e-010 -0.866031
vn -0.0869313 -1.56417e-010 -0.996214
vn -0.130493 0.0182539 -0.991281
vn -0.907072 3.20173e-010 -0.420976
vn -0.49999 -2.41074e-010 -0.866031
vn -0.864865 0.0496545 -0.499544
vn -0.49999 -2.41074e-010 -0.866031
vn -0.499418 0.0424205 -0.865322
vn -0.864865 0.0496545 -0.499544
vn -0.907072 3.20173e-010 -0.420976
vn -0.864865 0.0496545 -0.499544
vn -0.990684 0.0391816 -0.130422
vn -0.994531 -0.00343897 -0.104383
vn -0.907072 3.20173e-010 -0.420976
vn -0.990684 0.0391816 -0.130422
vn -0.907072 9.60518e-010 0.420976
vn -0.99021 0.0497305 0.130427
vn -0.864865 0.0496545 0.499544
vn -0.907072 9.60518e-010 0.420976
vn -0.994531 0.00343897 0.104383
vn -0.99021 0.0497305 0.130427
vn -0.49999 7.23221e-010 0.866031
vn -0.864865 0.0496545 0.499544
vn -0.499418 0.0424205 0.865322
vn -0.49999 7.23221e-010 0.866031
vn -0.907072 9.60518e-010 0.420976
vn -0.864865 0.0496545 0.499544
vn -0.992711 -0.0450761 0.111774
vn -0.986724 -0.043563 -0.156456
vn -0.994531 -0.00343897 -0.104383
vn -0.992711 -0.0450761 0.111774
vn -0.994531 -0.00343897 -0.104383
vn -0.994531 0.00343897 0.104383
vn -0.994531 0.00343897 0.104383
vn -0.990684 0.0391816 -0.130422
vn -0.99021 0.0497305 0.130427
vn -0.994531 0.00343897 0.104383
vn -0.994531 -0.00343897 -0.104383
vn -0.990684 0.0391816 -0.130422
vn 0.990684 -0.0391818 -0.130422
vn 0.99021 -0.0497307 0.130427
vn 0.994531 -0.00343898 0.104383
vn 0.994531 0.00343898 -0.104383
vn 0.990684 -0.0391818 -0.130422
vn 0.994531 -0.00343898 0.104383
vn 0.986724 0.0435632 -0.156456
vn 0.994531 0.00343898 -0.104383
vn 0.992711 0.0450763 0.111774
vn 0.994531 0.00343898 -0.104383
vn 0.994531 -0.00343898 0.104383
vn 0.992711 0.0450763 0.111774
vn -0.453174 -0.890545 0.039546
vn -0.288959 -0.947902 -0.134107
vn -0.405109 -0.894728 0.188012
vn -0.497923 -0.86474 -0.0655531
vn -0.288959 -0.947902 -0.134107
vn -0.453174 -0.890545 0.039546
vn -0.033052 -0.924906 0.378757
vn -0.033052 -0.924906 -0.378757
vn 0 -0.95232 0.305102
vn -0.033052 -0.924906 -0.378757
vn 0 -0.95232 -0.305102
vn 0 -0.95232 0.305102
vn 0 -0.95232 -0.305102
vn 0.033052 -0.924906 0.378757
vn 0 -0.95232 0.305102
vn 0 -0.95232 -0.305102
vn 0.033052 -0.924906 -0.378757
vn 0.033052 -0.924906 0.378757
vn 0.033052 -0.924906 -0.378757
vn 0.212216 -0.90546 0.367568
vn 0.033052 -0.924906 0.378757
vn 0.033052 -0.924906 -0.378757
vn 0.212216 -0.90546 -0.367568
vn 0.212216 -0.90546 0.367568
vn 0.212216 -0.90546 -0.367568
vn 0.338106 -0.927934 0.156916
vn 0.212216 -0.90546 0.367568
vn 0.212216 -0.90546 -0.367568
vn 0.338106 -0.927934 -0.156916
vn 0.338106 -0.927934 0.156916
vn -0.212216 -0.90546 0.367568
vn -0.212216 -0.90546 -0.367568
vn -0.033052 -0.924906 0.378757
vn -0.212216 -0.90546 -0.367568
vn -0.033052 -0.924906 -0.378757
vn -0.033052 -0.924906 0.378757
vn -0.405109 -0.894728 0.188012
vn -0.288959 -0.947902 -0.134107
vn -0.212216 -0.90546 0.367568
vn -0.288959 -0.947902 -0.134107
vn -0.212216 -0.90546 -0.367568
vn -0.212216 -0.90546 0.367568
vn 0.338106 -0.927934 -0.156916
vn 0.376634 -0.925034 0.049585
vn 0.338106 -0.927934 0.156916
vn 0.338106 -0.927934 -0.156916
vn 0.557047 -0.829057 -0.0486104
vn 0.376634 -0.925034 0.049585
vn -0.567904 -0.270297 0.777448
vn -0.813896 -0.328262 0.479393
vn -0.591091 -0.122912 0.797185
vn -0.591091 -0.122912 0.797185
vn -0.813896 -0.328262 0.479393
vn -0.580349 0.0183495 0.814161
vn -0.569209 -0.209653 -0.795014
vn -0.553227 0.0545795 -0.83124
vn -0.777707 0.289551 -0.557971
vn -0.777707 0.289551 -0.557971
vn -0.553227 0.0545795 -0.83124
vn -0.477843 0.551489 -0.683759
vn -0.667973 -0.016609 0.744
vn -0.636945 0.11639 0.762072
vn -0.323249 -0.0042061 0.946305
vn -0.565965 -0.0207593 0.824168
vn -0.667973 -0.016609 0.744
vn -0.323249 -0.0042061 0.946305
vn -0.667973 -0.016609 -0.744
vn -0.565965 -0.0207593 -0.824168
vn -0.323249 -0.0042061 -0.946305
vn -0.636945 0.11639 -0.762072
vn -0.667973 -0.016609 -0.744
vn -0.323249 -0.0042061 -0.946305
vn -0.565965 -0.0207593 0.824168
vn -0.474065 -0.519632 0.710807
vn -0.751078 0.481401 0.451813
vn -0.565965 -0.0207593 0.824168
vn -0.751078 0.481401 0.451813
vn -0.772493 0.236846 0.589202
vn -0.751078 0.481401 0.451813
vn -0.776344 0.296733 0.556094
vn -0.772493 0.236846 0.589202
vn -0.772493 0.236846 0.589202
vn -0.776344 0.296733 0.556094
vn -0.866577 -0.144085 0.477791
vn -0.667973 -0.016609 0.744
vn -0.772493 0.236846 0.589202
vn -0.866577 -0.144085 0.477791
vn -0.667973 -0.016609 0.744
vn -0.866577 -0.144085 0.477791
vn -0.636945 0.11639 0.762072
vn -0.565965 -0.0207593 0.824168
vn -0.772493 0.236846 0.589202
vn -0.667973 -0.016609 0.744
g group_cam
usemtl cam
s 1
f 137/30/1 331/1/2 138/23/3
f 160/29/4 138/23/5 168/24/6
f 137/30/7 138/23/8 160/29/9
f 2/36/10 271/34/11 136/32/12
f 2/36/13 136/32/14 159/31/15
f 25/33/16 2/36/17 159/31/18
f 333/110/19 1/37/20 3/43/21
f 3/43/22 24/35/23 33/42/24
f 3/43/25 1/37/26 24/35/27
f 1/37/28 272/34/29 2/36/30
f 273/34/31 137/30/32 136/32/33
f 159/31/34 136/32/35 160/29/36
f 136/32/37 137/30/38 160/29/39
f 1/37/40 2/36/41 24/35/42
f 24/35/43 2/36/44 25/33/45
f 331/1/46 352/2/47 351/13/48
f 360/97/49 333/110/50 359/67/51
f 360/97/52 359/67/53 358/71/54
f 365/86/55 358/71/56 364/81/57
f 358/71/58 359/67/59 364/81/60
f 365/86/61 364/81/62 363/79/63
f 364/81/64 362/70/65 363/79/66
f 363/79/67 362/70/68 361/85/69
f 331/1/70 351/13/71 138/23/72
f 359/67/73 333/110/74 3/43/75
f 340/57/76 341/52/77 33/42/78
f 340/57/79 33/42/80 274/44/81
f 337/14/82 275/22/83 168/24/84
f 336/16/85 337/14/86 168/24/87
f 138/23/88 348/8/89 349/19/90
f 138/23/91 357/3/92 348/8/93
f 344/69/94 3/43/95 345/45/96
f 361/85/97 3/43/98 344/69/99
f 364/81/100 359/67/101 362/70/102
f 343/68/103 345/45/104 339/61/105
f 339/61/106 345/45/107 341/52/108
f 349/19/109 347/10/110 335/11/111
f 349/19/112 335/11/113 336/16/114
f 138/23/115 349/19/116 336/16/117
f 138/23/118 336/16/119 168/24/120
f 345/45/121 3/43/122 341/52/123
f 341/52/124 3/43/125 33/42/126
f 348/8/127 346/12/128 349/19/129
f 349/19/130 346/12/131 347/10/132
f 338/55/133 339/61/134 341/52/135
f 338/55/136 341/52/137 340/57/138
f 276/34/139 278/28/140 277/27/141
f 281/25/142 280/21/143 279/20/144
f 284/27/145 283/25/146 282/20/147
f 287/46/148 286/41/149 285/47/150
f 290/41/151 289/39/152 288/47/153
f 292/39/154 291/34/155 1/37/156
f 293/34/157 294/27/158 137/30/159
f 296/38/160 295/34/161 297/39/162
f 300/20/163 299/17/164 298/1/165
f 302/60/166 301/47/167 303/110/168
f 330/20/169 331/1/170 137/30/171
f 304/27/172 330/20/173 137/30/174
f 332/47/175 305/39/176 1/37/177
f 333/110/178 332/47/179 1/37/180
f 306/18/181 308/17/182 307/20/183
f 310/60/184 309/48/185 311/47/186
f 313/21/187 312/18/188 314/20/189
f 315/48/190 317/46/191 316/47/192
f 319/41/193 318/40/194 320/39/195
f 321/26/196 323/25/197 322/27/198
f 325/28/199 324/26/200 326/27/201
f 327/40/202 329/38/203 328/39/204
f 179/332/205 45/384/206 180/328/207
f 45/384/208 44/386/209 180/328/210
f 177/327/211 43/385/212 178/331/213
f 43/385/214 42/383/215 178/331/216
f 180/328/217 44/386/218 177/327/219
f 44/386/220 43/385/221 177/327/222
f 10/201/223 146/208/224 11/202/225
f 11/202/226 146/208/227 145/207/228
f 22/204/229 158/209/230 23/203/231
f 23/203/232 158/209/233 157/210/234
f 11/202/235 145/207/236 22/204/237
f 22/204/238 145/207/239 158/209/240
f 21/200/241 9/197/242 22/204/243
f 9/197/244 11/202/245 22/204/246
f 20/195/247 9/197/248 21/200/249
f 8/193/250 9/197/251 20/195/252
f 7/192/253 8/193/254 20/195/255
f 13/165/256 7/192/257 20/195/258
f 32/164/259 13/165/260 20/195/261
f 6/198/262 10/201/263 11/202/264
f 9/197/265 6/198/266 11/202/267
f 8/193/268 6/198/269 9/197/270
f 5/194/271 6/198/272 8/193/273
f 5/194/274 8/193/275 7/192/276
f 4/191/277 5/194/278 7/192/279
f 31/163/280 13/165/281 32/164/282
f 12/162/283 13/165/284 31/163/285
f 4/191/286 7/192/287 12/162/288
f 12/162/289 7/192/290 13/165/291
f 40/63/292 41/62/293 20/195/294
f 41/62/295 32/164/296 20/195/297
f 44/49/298 39/56/299 43/50/300
f 44/49/301 38/54/302 39/56/303
f 38/54/304 40/63/305 39/56/306
f 38/54/307 41/62/308 40/63/309
f 21/200/310 22/204/311 19/199/312
f 22/204/313 23/203/314 19/199/315
f 18/196/316 20/195/317 19/199/318
f 20/195/319 21/200/320 19/199/321
f 40/63/322 20/195/323 37/66/324
f 37/66/325 20/195/326 18/196/327
f 43/50/328 36/59/329 42/53/330
f 43/50/331 39/56/332 36/59/333
f 35/58/334 38/54/335 44/49/336
f 45/51/337 35/58/338 44/49/339
f 39/56/340 40/63/341 36/59/342
f 40/63/343 37/66/344 36/59/345
f 35/58/346 34/65/347 41/62/348
f 35/58/349 41/62/350 38/54/351
f 41/62/352 31/163/353 32/164/354
f 34/65/355 31/163/356 41/62/357
f 158/209/358 144/212/359 156/232/360
f 145/207/361 144/212/362 158/209/363
f 144/212/364 143/235/365 155/236/366
f 156/232/367 144/212/368 155/236/369
f 143/235/370 142/238/371 155/236/372
f 148/240/373 167/241/374 155/236/375
f 142/238/376 148/240/377 155/236/378
f 145/207/379 141/211/380 144/212/381
f 146/208/382 141/211/383 145/207/384
f 144/212/385 141/211/386 143/235/387
f 141/211/388 140/234/389 143/235/390
f 143/235/391 140/234/392 142/238/393
f 140/234/394 139/239/395 142/238/396
f 148/240/397 147/242/398 166/243/399
f 148/240/400 166/243/401 167/241/402
f 142/238/403 147/242/404 148/240/405
f 142/238/406 139/239/407 147/242/408
f 175/311/409 176/309/410 155/236/411
f 167/241/412 175/311/413 155/236/414
f 180/328/415 177/327/416 174/324/417
f 173/326/418 180/328/419 174/324/420
f 173/326/421 174/324/422 176/309/423
f 175/311/424 173/326/425 176/309/426
f 158/209/427 156/232/428 154/233/429
f 157/210/430 158/209/431 154/233/432
f 156/232/433 155/236/434 154/233/435
f 154/233/436 155/236/437 153/237/438
f 155/236/439 176/309/440 172/304/441
f 155/236/442 172/304/443 153/237/444
f 174/324/445 177/327/446 171/323/447
f 177/327/448 178/331/449 171/323/450
f 170/325/451 180/328/452 173/326/453
f 170/325/454 179/332/455 180/328/456
f 176/309/457 174/324/458 171/323/459
f 176/309/460 171/323/461 172/304/462
f 170/325/463 173/326/464 175/311/465
f 169/306/466 170/325/467 175/311/468
f 166/243/469 169/306/470 175/311/471
f 166/243/472 175/311/473 167/241/474
f 36/187/475 37/189/476 42/185/477
f 171/188/478 178/186/479 172/190/480
f 42/185/481 37/189/482 178/186/483
f 37/189/484 18/244/485 178/186/486
f 157/249/487 154/247/488 153/245/489
f 23/248/490 18/244/491 19/246/492
f 23/248/493 157/249/494 153/245/495
f 18/244/496 23/248/497 153/245/498
f 172/190/499 18/244/500 153/245/501
f 178/186/502 18/244/503 172/190/504
f 147/206/505 12/205/506 166/251/507
f 12/205/508 31/250/509 166/251/510
f 139/161/511 12/205/512 147/206/513
f 139/161/514 4/160/515 12/205/516
f 5/133/517 4/160/518 139/161/519
f 141/126/520 146/121/521 140/134/522
f 140/134/523 146/121/524 139/161/525
f 6/125/526 5/133/527 10/120/528
f 10/120/529 5/133/530 139/161/531
f 146/121/532 10/120/533 139/161/534
f 31/250/535 34/345/536 166/251/537
f 34/345/538 35/366/539 45/370/540
f 34/345/541 169/346/542 166/251/543
f 179/371/544 170/367/545 169/346/546
f 45/370/547 179/371/548 169/346/549
f 34/345/550 45/370/551 169/346/552
f 205/318/553 206/300/554 207/299/555
f 205/318/556 204/320/557 206/300/558
f 202/314/559 207/299/560 203/293/561
f 202/314/562 205/318/563 207/299/564
f 192/290/565 202/314/566 203/293/567
f 191/313/568 202/314/569 192/290/570
f 190/288/571 191/313/572 192/290/573
f 189/312/574 191/313/575 190/288/576
f 188/308/577 189/312/578 190/288/579
f 187/287/580 188/308/581 190/288/582
f 186/307/583 188/308/584 187/287/585
f 185/286/586 186/307/587 187/287/588
f 55/281/589 56/297/590 57/284/591
f 54/292/592 56/297/593 55/281/594
f 53/283/595 54/291/596 55/282/597
f 52/296/598 54/291/599 53/283/600
f 51/305/601 52/296/602 53/283/603
f 50/285/604 51/305/605 53/283/606
f 71/310/607 50/285/608 72/289/609
f 71/310/610 51/305/611 50/285/612
f 70/294/613 71/310/614 72/289/615
f 69/315/616 71/310/617 70/294/618
f 69/315/619 70/294/620 68/295/621
f 67/316/622 69/315/623 68/295/624
f 65/319/625 68/295/626 66/298/627
f 65/319/628 67/316/629 68/295/630
f 63/317/631 66/298/632 64/301/633
f 63/317/634 65/319/635 66/298/636
f 199/322/637 200/303/638 201/302/639
f 198/321/640 199/322/641 201/302/642
f 198/321/643 201/302/644 206/300/645
f 204/320/646 198/321/647 206/300/648
f 207/299/649 215/274/650 216/272/651
f 207/299/652 206/300/653 215/274/654
f 203/293/655 216/272/656 214/269/657
f 203/293/658 207/299/659 216/272/660
f 211/267/661 203/293/662 214/269/663
f 192/290/664 203/293/665 211/267/666
f 210/266/667 192/290/668 211/267/669
f 190/288/670 192/290/671 210/266/672
f 187/287/673 190/288/674 210/266/675
f 209/262/676 187/287/677 210/266/678
f 185/286/679 187/287/680 209/262/681
f 208/261/682 185/286/683 209/262/684
f 75/256/685 57/284/686 76/258/687
f 55/281/688 57/284/689 75/256/690
f 74/259/691 55/282/692 75/257/693
f 53/283/694 55/282/695 74/259/696
f 50/285/697 53/283/698 74/259/699
f 73/260/700 50/285/701 74/259/702
f 72/289/703 73/260/704 81/263/705
f 72/289/706 50/285/707 73/260/708
f 80/268/709 72/289/710 81/263/711
f 70/294/712 72/289/713 80/268/714
f 70/294/715 80/268/716 79/270/717
f 68/295/718 70/294/719 79/270/720
f 66/298/721 79/270/722 78/271/723
f 66/298/724 68/295/725 79/270/726
f 64/301/727 78/271/728 77/273/729
f 64/301/730 66/298/731 78/271/732
f 200/303/733 212/275/734 213/276/735
f 201/302/736 200/303/737 213/276/738
f 201/302/739 213/276/740 215/274/741
f 206/300/742 201/302/743 215/274/744
f 164/376/745 165/381/746 197/355/747
f 165/381/748 196/357/749 197/355/750
f 163/372/751 164/376/752 195/352/753
f 164/376/754 197/355/755 195/352/756
f 152/369/757 163/372/758 195/352/759
f 184/344/760 152/369/761 195/352/762
f 151/368/763 152/369/764 184/344/765
f 183/343/766 151/368/767 184/344/768
f 150/362/769 151/368/770 182/339/771
f 182/339/772 151/368/773 183/343/774
f 149/359/775 150/362/776 181/338/777
f 181/338/778 150/362/779 182/339/780
f 16/348/781 17/350/782 49/336/783
f 48/334/784 16/348/785 49/336/786
f 15/349/787 16/347/788 48/333/789
f 47/335/790 15/349/791 48/333/792
f 14/353/793 15/349/794 46/337/795
f 46/337/796 15/349/797 47/335/798
f 30/363/799 14/353/800 62/340/801
f 14/353/802 46/337/803 62/340/804
f 29/373/805 30/363/806 62/340/807
f 61/351/808 29/373/809 62/340/810
f 28/377/811 61/351/812 60/354/813
f 28/377/814 29/373/815 61/351/816
f 27/378/817 28/377/818 59/356/819
f 28/377/820 60/354/821 59/356/822
f 26/382/823 27/378/824 58/360/825
f 27/378/826 59/356/827 58/360/828
f 162/380/829 193/361/830 194/358/831
f 162/380/832 161/379/833 193/361/834
f 165/381/835 194/358/836 196/357/837
f 165/381/838 162/380/839 194/358/840
f 191/313/841 184/344/842 202/314/843
f 184/344/844 195/352/845 202/314/846
f 195/352/847 205/318/848 202/314/849
f 195/352/850 197/355/851 205/318/852
f 197/355/853 204/320/854 205/318/855
f 197/355/856 196/357/857 204/320/858
f 196/357/859 198/321/860 204/320/861
f 196/357/862 194/358/863 198/321/864
f 194/358/865 199/322/866 198/321/867
f 194/358/868 193/361/869 199/322/870
f 58/360/871 65/319/872 63/317/873
f 58/360/874 59/356/875 65/319/876
f 59/356/877 67/316/878 65/319/879
f 59/356/880 60/354/881 67/316/882
f 60/354/883 69/315/884 67/316/885
f 60/354/886 61/351/887 69/315/888
f 69/315/889 61/351/890 71/310/891
f 61/351/892 62/340/893 71/310/894
f 62/340/895 51/305/896 71/310/897
f 62/340/898 46/337/899 51/305/900
f 51/305/901 46/337/902 52/296/903
f 46/337/904 47/335/905 52/296/906
f 52/296/907 47/335/908 54/291/909
f 47/335/910 48/333/911 54/291/912
f 54/292/913 48/334/914 56/297/915
f 48/334/916 49/336/917 56/297/918
f 186/307/919 181/338/920 188/308/921
f 181/338/922 182/339/923 188/308/924
f 188/308/925 182/339/926 189/312/927
f 182/339/928 183/343/929 189/312/930
f 189/312/931 183/343/932 191/313/933
f 183/343/934 184/344/935 191/313/936
f 268/142/937 269/141/938 270/123/939
f 269/141/940 267/118/941 270/123/942
f 265/147/943 268/142/944 266/128/945
f 268/142/946 270/123/947 266/128/948
f 250/150/949 265/147/950 266/128/951
f 249/129/952 250/150/953 266/128/954
f 248/152/955 250/150/956 249/129/957
f 247/130/958 248/152/959 249/129/960
f 245/153/961 248/152/962 246/132/963
f 246/132/964 248/152/965 247/130/966
f 243/154/967 245/153/968 244/135/969
f 244/135/970 245/153/971 246/132/972
f 113/159/973 114/157/974 115/145/975
f 112/149/976 113/159/977 115/145/978
f 111/156/979 113/158/980 112/148/981
f 110/143/982 111/156/983 112/148/984
f 108/155/985 111/156/986 109/136/987
f 109/136/988 111/156/989 110/143/990
f 134/151/991 108/155/992 135/131/993
f 108/155/994 109/136/995 135/131/996
f 133/146/997 134/151/998 135/131/999
f 132/127/1000 133/146/1001 135/131/1002
f 130/144/1003 132/127/1004 131/124/1005
f 130/144/1006 133/146/1007 132/127/1008
f 128/140/1009 130/144/1010 129/119/1011
f 130/144/1012 131/124/1013 129/119/1014
f 126/138/1015 128/140/1016 127/116/1017
f 128/140/1018 129/119/1019 127/116/1020
f 262/139/1021 263/122/1022 264/117/1023
f 262/139/1024 261/137/1025 263/122/1026
f 269/141/1027 264/117/1028 267/118/1029
f 269/141/1030 262/139/1031 264/117/1032
f 233/171/1033 234/168/1034 268/142/1035
f 234/168/1036 269/141/1037 268/142/1038
f 232/174/1039 233/171/1040 265/147/1041
f 233/171/1042 268/142/1043 265/147/1044
f 229/175/1045 232/174/1046 265/147/1047
f 250/150/1048 229/175/1049 265/147/1050
f 228/176/1051 229/175/1052 250/150/1053
f 248/152/1054 228/176/1055 250/150/1056
f 227/178/1057 228/176/1058 245/153/1059
f 245/153/1060 228/176/1061 248/152/1062
f 226/179/1063 227/178/1064 243/154/1065
f 243/154/1066 227/178/1067 245/153/1068
f 93/184/1069 94/182/1070 114/157/1071
f 113/159/1072 93/184/1073 114/157/1074
f 92/181/1075 93/183/1076 113/158/1077
f 111/156/1078 92/181/1079 113/158/1080
f 91/180/1081 92/181/1082 108/155/1083
f 108/155/1084 92/181/1085 111/156/1086
f 99/177/1087 91/180/1088 134/151/1089
f 91/180/1090 108/155/1091 134/151/1092
f 98/173/1093 99/177/1094 134/151/1095
f 133/146/1096 98/173/1097 134/151/1098
f 97/172/1099 133/146/1100 130/144/1101
f 97/172/1102 98/173/1103 133/146/1104
f 96/170/1105 97/172/1106 128/140/1107
f 97/172/1108 130/144/1109 128/140/1110
f 95/169/1111 96/170/1112 126/138/1113
f 96/170/1114 128/140/1115 126/138/1116
f 231/166/1117 261/137/1118 262/139/1119
f 231/166/1120 230/167/1121 261/137/1122
f 234/168/1123 262/139/1124 269/141/1125
f 234/168/1126 231/166/1127 262/139/1128
f 258/95/1129 259/73/1130 260/78/1131
f 258/95/1132 257/92/1133 259/73/1134
f 255/101/1135 260/78/1136 256/82/1137
f 255/101/1138 258/95/1139 260/78/1140
f 242/83/1141 255/101/1142 256/82/1143
f 241/105/1144 255/101/1145 242/83/1146
f 240/84/1147 241/105/1148 242/83/1149
f 239/106/1150 241/105/1151 240/84/1152
f 238/108/1153 239/106/1154 240/84/1155
f 237/88/1156 238/108/1157 240/84/1158
f 236/109/1159 238/108/1160 237/88/1161
f 235/93/1162 236/109/1163 237/88/1164
f 105/103/1165 106/112/1166 107/99/1167
f 104/114/1168 106/112/1169 105/103/1170
f 103/102/1171 104/115/1172 105/104/1173
f 102/113/1174 104/115/1175 103/102/1176
f 101/111/1177 102/113/1178 103/102/1179
f 100/98/1180 101/111/1181 103/102/1182
f 124/107/1183 100/98/1184 125/87/1185
f 124/107/1186 101/111/1187 100/98/1188
f 123/80/1189 124/107/1190 125/87/1191
f 122/100/1192 124/107/1193 123/80/1194
f 122/100/1195 123/80/1196 121/77/1197
f 120/96/1198 122/100/1199 121/77/1200
f 118/94/1201 121/77/1202 119/76/1203
f 118/94/1204 120/96/1205 121/77/1206
f 116/89/1207 119/76/1208 117/75/1209
f 116/89/1210 118/94/1211 119/76/1212
f 252/90/1213 253/72/1214 254/74/1215
f 251/91/1216 252/90/1217 254/74/1218
f 251/91/1219 254/74/1220 259/73/1221
f 257/92/1222 251/91/1223 259/73/1224
f 249/129/1225 266/128/1226 241/105/1227
f 241/105/1228 266/128/1229 255/101/1230
f 266/128/1231 270/123/1232 255/101/1233
f 270/123/1234 258/95/1235 255/101/1236
f 270/123/1237 267/118/1238 258/95/1239
f 267/118/1240 257/92/1241 258/95/1242
f 267/118/1243 264/117/1244 257/92/1245
f 264/117/1246 251/91/1247 257/92/1248
f 264/117/1249 263/122/1250 251/91/1251
f 263/122/1252 252/90/1253 251/91/1254
f 127/116/1255 129/119/1256 116/89/1257
f 129/119/1258 118/94/1259 116/89/1260
f 129/119/1261 131/124/1262 118/94/1263
f 131/124/1264 120/96/1265 118/94/1266
f 131/124/1267 132/127/1268 120/96/1269
f 132/127/1270 122/100/1271 120/96/1272
f 132/127/1273 135/131/1274 122/100/1275
f 122/100/1276 135/131/1277 124/107/1278
f 135/131/1279 109/136/1280 124/107/1281
f 109/136/1282 101/111/1283 124/107/1284
f 109/136/1285 110/143/1286 101/111/1287
f 101/111/1288 110/143/1289 102/113/1290
f 110/143/1291 112/148/1292 102/113/1293
f 102/113/1294 112/148/1295 104/115/1296
f 112/149/1297 115/145/1298 104/114/1299
f 104/114/1300 115/145/1301 106/112/1302
f 244/135/1303 246/132/1304 236/109/1305
f 236/109/1306 246/132/1307 238/108/1308
f 246/132/1309 247/130/1310 238/108/1311
f 238/108/1312 247/130/1313 239/106/1314
f 247/130/1315 249/129/1316 239/106/1317
f 239/106/1318 249/129/1319 241/105/1320
f 193/361/1321 58/360/1322 199/322/1323
f 58/360/1324 63/317/1325 199/322/1326
f 199/322/1327 63/317/1328 200/303/1329
f 63/317/1330 64/301/1331 200/303/1332
f 200/303/1333 64/301/1334 212/275/1335
f 64/301/1336 77/273/1337 212/275/1338
f 161/379/1339 26/382/1340 193/361/1341
f 26/382/1342 58/360/1343 193/361/1344
f 230/167/1345 126/138/1346 261/137/1347
f 230/167/1348 95/169/1349 126/138/1350
f 261/137/1351 126/138/1352 263/122/1353
f 126/138/1354 127/116/1355 263/122/1356
f 263/122/1357 127/116/1358 252/90/1359
f 127/116/1360 116/89/1361 252/90/1362
f 252/90/1363 116/89/1364 253/72/1365
f 116/89/1366 117/75/1367 253/72/1368
f 56/297/1369 181/338/1370 186/307/1371
f 49/336/1372 181/338/1373 56/297/1374
f 49/336/1375 149/359/1376 181/338/1377
f 17/350/1378 149/359/1379 49/336/1380
f 57/284/1381 186/307/1382 185/286/1383
f 56/297/1384 186/307/1385 57/284/1386
f 57/284/1387 185/286/1388 208/261/1389
f 76/258/1390 57/284/1391 208/261/1392
f 106/112/1393 244/135/1394 236/109/1395
f 115/145/1396 244/135/1397 106/112/1398
f 115/145/1399 243/154/1400 244/135/1401
f 114/157/1402 243/154/1403 115/145/1404
f 114/157/1405 226/179/1406 243/154/1407
f 94/182/1408 226/179/1409 114/157/1410
f 107/99/1411 236/109/1412 235/93/1413
f 106/112/1414 236/109/1415 107/99/1416
f 216/272/1417 215/274/1418 225/221/1419
f 216/272/1420 225/221/1421 224/223/1422
f 214/269/1423 216/272/1424 224/223/1425
f 214/269/1426 224/223/1427 223/227/1428
f 211/267/1429 214/269/1430 220/229/1431
f 220/229/1432 214/269/1433 223/227/1434
f 210/266/1435 211/267/1436 219/228/1437
f 219/228/1438 211/267/1439 220/229/1440
f 209/262/1441 210/266/1442 219/228/1443
f 218/226/1444 209/262/1445 219/228/1446
f 208/261/1447 209/262/1448 218/226/1449
f 217/224/1450 208/261/1451 218/226/1452
f 75/256/1453 76/258/1454 85/216/1455
f 85/216/1456 76/258/1457 84/213/1458
f 83/215/1459 75/257/1460 85/214/1461
f 74/259/1462 75/257/1463 83/215/1464
f 73/260/1465 74/259/1466 83/215/1467
f 82/217/1468 73/260/1469 83/215/1470
f 81/263/1471 73/260/1472 82/217/1473
f 81/263/1474 82/217/1475 90/218/1476
f 80/268/1477 81/263/1478 89/222/1479
f 89/222/1480 81/263/1481 90/218/1482
f 79/270/1483 80/268/1484 88/225/1485
f 80/268/1486 89/222/1487 88/225/1488
f 78/271/1489 79/270/1490 88/225/1491
f 78/271/1492 88/225/1493 87/230/1494
f 77/273/1495 78/271/1496 87/230/1497
f 77/273/1498 87/230/1499 86/231/1500
f 213/276/1501 212/275/1502 222/220/1503
f 212/275/1504 221/219/1505 222/220/1506
f 213/276/1507 222/220/1508 225/221/1509
f 215/274/1510 213/276/1511 225/221/1512
f 225/221/1513 234/168/1514 233/171/1515
f 224/223/1516 225/221/1517 233/171/1518
f 224/223/1519 233/171/1520 232/174/1521
f 223/227/1522 224/223/1523 232/174/1524
f 229/175/1525 220/229/1526 232/174/1527
f 220/229/1528 223/227/1529 232/174/1530
f 228/176/1531 219/228/1532 229/175/1533
f 219/228/1534 220/229/1535 229/175/1536
f 218/226/1537 219/228/1538 227/178/1539
f 227/178/1540 219/228/1541 228/176/1542
f 226/179/1543 218/226/1544 227/178/1545
f 217/224/1546 218/226/1547 226/179/1548
f 93/184/1549 85/216/1550 94/182/1551
f 85/216/1552 84/213/1553 94/182/1554
f 92/181/1555 83/215/1556 93/183/1557
f 83/215/1558 85/214/1559 93/183/1560
f 91/180/1561 83/215/1562 92/181/1563
f 82/217/1564 83/215/1565 91/180/1566
f 82/217/1567 91/180/1568 99/177/1569
f 90/218/1570 82/217/1571 99/177/1572
f 98/173/1573 89/222/1574 99/177/1575
f 89/222/1576 90/218/1577 99/177/1578
f 88/225/1579 98/173/1580 97/172/1581
f 88/225/1582 89/222/1583 98/173/1584
f 87/230/1585 88/225/1586 96/170/1587
f 88/225/1588 97/172/1589 96/170/1590
f 87/230/1591 96/170/1592 95/169/1593
f 86/231/1594 87/230/1595 95/169/1596
f 222/220/1597 230/167/1598 231/166/1599
f 222/220/1600 221/219/1601 230/167/1602
f 225/221/1603 231/166/1604 234/168/1605
f 225/221/1606 222/220/1607 231/166/1608
f 212/275/1609 77/273/1610 86/231/1611
f 212/275/1612 86/231/1613 221/219/1614
f 221/219/1615 95/169/1616 230/167/1617
f 221/219/1618 86/231/1619 95/169/1620
f 76/258/1621 208/261/1622 217/224/1623
f 84/213/1624 76/258/1625 217/224/1626
f 94/182/1627 84/213/1628 226/179/1629
f 84/213/1630 217/224/1631 226/179/1632
f 253/253/1633 119/254/1634 254/255/1635
f 117/252/1636 119/254/1637 253/253/1638
f 260/278/1639 123/277/1640 256/280/1641
f 123/277/1642 125/279/1643 256/280/1644
f 125/279/1645 242/330/1646 256/280/1647
f 125/279/1648 100/329/1649 242/330/1650
f 100/329/1651 240/342/1652 242/330/1653
f 100/329/1654 103/341/1655 240/342/1656
f 103/341/1657 237/365/1658 240/342/1659
f 103/341/1660 105/364/1661 237/365/1662
f 259/265/1663 121/264/1664 260/278/1665
f 121/264/1666 123/277/1667 260/278/1668
f 254/255/1669 119/254/1670 259/265/1671
f 119/254/1672 121/264/1673 259/265/1674
f 105/364/1675 235/375/1676 237/365/1677
f 105/364/1678 107/374/1679 235/375/1680
f 335/11/1681 334/15/1682 336/16/1683
f 336/16/1684 334/15/1685 337/14/1686
f 344/69/1687 345/45/1688 342/64/1689
f 342/64/1690 345/45/1691 343/68/1692
f 356/9/1693 357/3/1694 138/23/1695
f 351/13/1696 356/9/1697 138/23/1698
f 362/70/1699 359/67/1700 3/43/1701
f 361/85/1702 362/70/1703 3/43/1704
f 351/13/1705 352/2/1706 350/7/1707
f 351/13/1708 350/7/1709 355/5/1710
f 350/7/1711 354/4/1712 355/5/1713
f 355/5/1714 354/4/1715 353/6/1716
f 356/9/1717 355/5/1718 353/6/1719
f 356/9/1720 353/6/1721 357/3/1722
f 351/13/1723 355/5/1724 356/9/1725
