# Blender v2.92.0 OBJ File: 'OGConvert.blend'
# www.blender.org
o gate
v -2.064000 67.665855 -45.214493
v -2.064000 70.466240 -39.729046
v 2.064000 70.466240 -39.729046
v 2.064000 67.665855 -45.214493
v -2.064000 67.665855 -7.757577
v -2.064000 64.016312 -3.548453
v 2.064000 64.016312 -3.548453
v 2.064000 67.665855 -7.757577
v -2.064000 72.827080 -26.486036
v -2.064000 72.226646 -19.630939
v 2.064000 72.226646 -19.630939
v 2.064000 72.827080 -26.486036
v 2.064000 59.766331 -52.069580
v -2.064000 59.766331 -52.069580
v -2.064000 64.016312 -49.423611
v 2.064000 64.016312 -49.423611
v -2.064000 59.766327 -0.902487
v 2.064000 59.766327 -0.902487
v 2.064000 55.205540 -52.972069
v -2.064000 55.205540 -52.972069
v -2.064000 72.226646 -33.341125
v 2.064000 72.226646 -33.341125
v -2.064000 55.205536 0.000002
v 2.064000 55.205536 0.000002
v -2.064000 70.466240 -13.243013
v 2.064000 70.466240 -13.243013
v -2.064000 -0.000000 0.000000
v 2.064000 0.000000 -0.000000
v 2.064000 0.000002 -52.972073
v -2.064000 0.000002 -52.972073
v -2.064000 58.338257 -4.518719
v -2.064000 54.830761 -3.824656
v -2.064000 61.504807 -6.490159
v -2.064000 64.471130 -9.911309
v -2.064000 66.882591 -14.634901
v -2.064000 68.446945 -20.311460
v -2.064000 68.987778 -26.486036
v -2.064000 68.446945 -32.660603
v -2.064000 66.882591 -38.337166
v -2.064000 64.471130 -43.060757
v -2.064000 61.504810 -46.481907
v -2.064000 58.338261 -48.453350
v -2.064000 54.830765 -49.147404
v -2.064000 3.824661 -49.147408
v -2.064000 3.824659 -3.824658
v 2.064000 3.824659 -3.824658
v 2.064000 3.824661 -49.147408
v 2.064000 54.830765 -49.147404
v 2.064000 54.830761 -3.824656
v 2.064000 58.338257 -4.518719
v 2.064000 61.504807 -6.490159
v 2.064000 64.471130 -9.911309
v 2.064000 66.882591 -14.634901
v 2.064000 68.446945 -20.311460
v 2.064000 68.987778 -26.486036
v 2.064000 68.446945 -32.660603
v 2.064000 66.882591 -38.337166
v 2.064000 64.471130 -43.060757
v 2.064000 61.504810 -46.481907
v 2.064000 58.338261 -48.453350
v -0.464000 54.830761 -3.824656
v -0.464000 58.338257 -4.518719
v -0.464000 61.504807 -6.490159
v -0.464000 64.471130 -9.911309
v -0.464000 66.882591 -14.634901
v -0.464000 68.446945 -20.311460
v -0.464000 68.987778 -26.486036
v -0.464000 68.446945 -32.660603
v -0.464000 66.882591 -38.337166
v -0.464000 64.471130 -43.060757
v -0.464000 61.504810 -46.481907
v -0.464000 58.338261 -48.453350
v -0.464000 54.830765 -49.147404
v -1.264000 22.562483 -49.147408
v -0.464000 22.562483 -49.147408
v -0.464000 30.999491 -49.147408
v -1.264000 30.999491 -49.147408
v -1.264000 15.812074 -49.147408
v -0.464000 15.812074 -49.147408
v -0.464000 3.824661 -49.147408
v -1.264000 37.749893 -49.147408
v -0.464000 37.749893 -49.147408
v -0.464000 3.824659 -3.824658
v -1.264000 15.812072 -3.824658
v -1.264000 22.562481 -3.824657
v -1.264000 30.999489 -3.824657
v -0.464000 22.562481 -3.824657
v -1.264000 37.749889 -3.824657
v -0.464000 37.749889 -3.824657
v -0.464000 30.999489 -3.824657
v -0.464000 15.812072 -3.824658
v 1.264000 15.812074 -49.147408
v 0.464000 3.824661 -49.147408
v 1.264000 22.562483 -49.147408
v 1.264000 30.999491 -49.147408
v 0.464000 22.562483 -49.147408
v 1.264000 37.749893 -49.147408
v 0.464000 37.749893 -49.147408
v 0.464000 54.830765 -49.147404
v 0.464000 30.999491 -49.147408
v 0.464000 15.812074 -49.147408
v 0.464000 58.338261 -48.453350
v 0.464000 61.504810 -46.481907
v 0.464000 64.471130 -43.060757
v 0.464000 66.882591 -38.337166
v 0.464000 68.446945 -32.660603
v 0.464000 68.987778 -26.486036
v 0.464000 68.446945 -20.311460
v 0.464000 66.882591 -14.634901
v 0.464000 64.471130 -9.911309
v 0.464000 61.504807 -6.490159
v 0.464000 58.338257 -4.518719
v 0.464000 54.830761 -3.824656
v 1.264000 22.562481 -3.824657
v 0.464000 22.562481 -3.824657
v 0.464000 30.999489 -3.824657
v 1.264000 30.999489 -3.824657
v 1.264000 15.812072 -3.824658
v 0.464000 15.812072 -3.824658
v 0.464000 3.824659 -3.824658
v 1.264000 37.749889 -3.824657
v 0.464000 37.749889 -3.824657
vt 0.921689 0.400534
vt 0.921689 0.437907
vt 0.893565 0.437907
vt 0.893565 0.400534
vt 0.921689 0.655732
vt 0.921689 0.684410
vt 0.893565 0.684410
vt 0.893565 0.655732
vt 0.921689 0.528133
vt 0.921689 0.574838
vt 0.893565 0.574838
vt 0.893565 0.528133
vt 0.886264 0.031789
vt 0.858139 0.031789
vt 0.858139 0.003651
vt 0.886264 0.003651
vt 0.921689 0.371857
vt 0.893565 0.371857
vt 0.858139 0.852161
vt 0.886263 0.852161
vt 0.886263 0.880299
vt 0.858139 0.880299
vt 0.886264 0.062564
vt 0.858139 0.062564
vt 0.921689 0.481429
vt 0.893565 0.481429
vt 0.858139 0.821387
vt 0.886263 0.821387
vt 0.921689 0.618359
vt 0.893565 0.618359
vt 0.858139 0.445626
vt 0.886264 0.445626
vt 0.886263 0.438324
vt 0.858139 0.438324
vt 0.034437 0.102365
vt 0.029708 0.126262
vt 0.027827 0.063680
vt 0.056504 0.038815
vt 0.047869 0.080791
vt 0.071178 0.060580
vt 0.093877 0.019735
vt 0.103360 0.044151
vt 0.137398 0.007741
vt 0.142035 0.033493
vt 0.184103 0.003651
vt 0.184103 0.029808
vt 0.230808 0.007741
vt 0.226171 0.033493
vt 0.264846 0.044151
vt 0.274329 0.019735
vt 0.297029 0.060580
vt 0.311702 0.038815
vt 0.320337 0.080791
vt 0.340379 0.063680
vt 0.333769 0.102365
vt 0.338498 0.126262
vt 0.338498 0.473772
vt 0.364555 0.499830
vt 0.029708 0.473772
vt 0.003651 0.499830
vt 0.009799 0.092635
vt 0.003651 0.123708
vt 0.358407 0.092635
vt 0.364555 0.123708
vt 0.893565 0.364555
vt 0.893565 0.003651
vt 0.921689 0.003651
vt 0.921689 0.364555
vt 0.706704 0.473772
vt 0.732761 0.123708
vt 0.732761 0.499830
vt 0.371857 0.499830
vt 0.726613 0.092635
vt 0.708585 0.063680
vt 0.397914 0.473772
vt 0.397914 0.126262
vt 0.396033 0.063680
vt 0.378006 0.092635
vt 0.371857 0.123708
vt 0.706704 0.126262
vt 0.701975 0.102365
vt 0.679908 0.038815
vt 0.688543 0.080791
vt 0.665235 0.060580
vt 0.642535 0.019735
vt 0.633052 0.044151
vt 0.599014 0.007741
vt 0.594377 0.033493
vt 0.552309 0.003651
vt 0.552309 0.029808
vt 0.510241 0.033493
vt 0.505605 0.007741
vt 0.471566 0.044151
vt 0.462083 0.019735
vt 0.439384 0.060580
vt 0.424710 0.038815
vt 0.416075 0.080791
vt 0.402643 0.102365
vt 0.939892 0.450574
vt 0.928991 0.450574
vt 0.928991 0.426493
vt 0.939892 0.426493
vt 0.928991 0.404351
vt 0.939892 0.404351
vt 0.776467 0.908300
vt 0.776467 0.884991
vt 0.787368 0.884991
vt 0.787368 0.908300
vt 0.776467 0.852808
vt 0.787368 0.852808
vt 0.776467 0.814134
vt 0.787368 0.814134
vt 0.776467 0.772066
vt 0.787368 0.772066
vt 0.776467 0.729998
vt 0.787368 0.729998
vt 0.776467 0.691322
vt 0.787368 0.691322
vt 0.776467 0.659140
vt 0.787368 0.659140
vt 0.776467 0.635831
vt 0.787368 0.635831
vt 0.928991 0.374909
vt 0.939892 0.374909
vt 0.939892 0.397050
vt 0.928991 0.397050
vt 0.928991 0.350828
vt 0.939892 0.350828
vt 0.934441 0.131191
vt 0.939892 0.131191
vt 0.939892 0.188618
vt 0.934441 0.188618
vt 0.934441 0.085244
vt 0.928991 0.003651
vt 0.939892 0.085244
vt 0.939892 0.003651
vt 0.934441 0.234566
vt 0.939892 0.234566
vt 0.769166 0.635831
vt 0.769166 0.944621
vt 0.758265 0.944621
vt 0.758265 0.635831
vt 0.934441 0.716157
vt 0.939892 0.797751
vt 0.928991 0.797751
vt 0.934441 0.670210
vt 0.934441 0.612783
vt 0.939892 0.670210
vt 0.934441 0.566836
vt 0.939892 0.566836
vt 0.939892 0.612783
vt 0.939892 0.716157
vt 0.952643 0.085244
vt 0.947193 0.003651
vt 0.958094 0.003651
vt 0.958094 0.350828
vt 0.952643 0.131191
vt 0.952643 0.188618
vt 0.947193 0.131191
vt 0.952643 0.234565
vt 0.947193 0.234565
vt 0.947193 0.350828
vt 0.947193 0.188618
vt 0.947193 0.085244
vt 0.958094 0.374909
vt 0.947193 0.374909
vt 0.958094 0.397050
vt 0.947193 0.397050
vt 0.804846 0.659140
vt 0.804846 0.635831
vt 0.815747 0.635831
vt 0.815747 0.659140
vt 0.804846 0.691322
vt 0.815747 0.691322
vt 0.804846 0.729998
vt 0.815747 0.729998
vt 0.804846 0.772066
vt 0.815747 0.772066
vt 0.804846 0.814134
vt 0.815747 0.814134
vt 0.804846 0.852808
vt 0.815747 0.852808
vt 0.804846 0.884991
vt 0.815747 0.884991
vt 0.804846 0.908300
vt 0.815747 0.908300
vt 0.958094 0.426493
vt 0.947193 0.426493
vt 0.947193 0.404351
vt 0.958094 0.404351
vt 0.958094 0.450574
vt 0.947193 0.450574
vt 0.952643 0.670210
vt 0.947193 0.670210
vt 0.947193 0.612783
vt 0.952643 0.612783
vt 0.952643 0.716157
vt 0.958094 0.797751
vt 0.947193 0.716157
vt 0.947193 0.797751
vt 0.952643 0.566836
vt 0.947193 0.566836
vt 0.750964 0.635831
vt 0.750964 0.944621
vt 0.740063 0.944621
vt 0.740063 0.635831
vt 0.850838 0.312440
vt 0.804846 0.312440
vt 0.804846 0.003651
vt 0.850838 0.003651
vt 0.823049 0.944621
vt 0.823049 0.635831
vt 0.828499 0.635831
vt 0.828499 0.944621
vt 0.983598 0.635831
vt 0.983597 0.944621
vt 0.978147 0.944621
vt 0.978147 0.635831
vt 0.667845 0.815920
vt 0.621854 0.815920
vt 0.621854 0.507131
vt 0.667845 0.507131
vt 0.835800 0.944621
vt 0.835800 0.635831
vt 0.841251 0.635831
vt 0.841251 0.944621
vt 0.996349 0.003651
vt 0.996349 0.312440
vt 0.990899 0.312440
vt 0.990899 0.003651
vt 0.850838 0.628531
vt 0.804847 0.628531
vt 0.804847 0.319741
vt 0.850838 0.319741
vt 0.970846 0.003651
vt 0.970846 0.312440
vt 0.965395 0.312440
vt 0.965395 0.003651
vt 0.965395 0.628530
vt 0.965395 0.319741
vt 0.970846 0.319741
vt 0.970846 0.628530
vt 0.721138 0.815920
vt 0.675146 0.815920
vt 0.675146 0.507131
vt 0.721138 0.507131
vt 0.970846 0.635831
vt 0.970846 0.944621
vt 0.965395 0.944621
vt 0.965395 0.635831
vt 0.978147 0.312440
vt 0.978147 0.003651
vt 0.983598 0.003651
vt 0.983597 0.312440
vt 0.525579 0.815920
vt 0.443908 0.815920
vt 0.443908 0.507131
vt 0.525579 0.507131
vt 0.614552 0.815920
vt 0.532881 0.815920
vt 0.532881 0.507131
vt 0.614552 0.507131
vt 0.797545 0.628531
vt 0.740063 0.628531
vt 0.740063 0.319741
vt 0.797545 0.319741
vt 0.340153 0.815920
vt 0.223779 0.815920
vt 0.223779 0.507131
vt 0.364050 0.811192
vt 0.385624 0.797760
vt 0.405834 0.774451
vt 0.422264 0.742269
vt 0.432922 0.703594
vt 0.436606 0.661526
vt 0.432922 0.619458
vt 0.422264 0.580782
vt 0.405834 0.548600
vt 0.385624 0.525291
vt 0.364050 0.511860
vt 0.340153 0.507131
vt 0.216478 0.815920
vt 0.100104 0.815920
vt 0.076207 0.811192
vt 0.216478 0.507131
vt 0.054633 0.797760
vt 0.034423 0.774451
vt 0.017994 0.742269
vt 0.007336 0.703594
vt 0.003651 0.661526
vt 0.007336 0.619458
vt 0.017994 0.580782
vt 0.034423 0.548600
vt 0.054633 0.525291
vt 0.076207 0.511860
vt 0.100104 0.507131
vt 0.797545 0.312440
vt 0.740063 0.312440
vt 0.740063 0.003651
vt 0.797545 0.003651
vn 0.0000 0.8292 -0.5590
vn 0.0000 0.9322 -0.3620
vn 0.0000 0.8292 0.5590
vn 0.0000 0.6493 0.7605
vn 0.0000 1.0000 -0.0000
vn 0.0000 0.9842 0.1772
vn 0.0000 0.5285 -0.8489
vn 0.0000 0.6493 -0.7605
vn 0.0000 0.5285 0.8489
vn 0.0000 0.0975 -0.9952
vn 0.0000 0.1941 -0.9810
vn 0.0000 0.9842 -0.1772
vn 0.0000 0.0975 0.9952
vn 0.0000 0.1941 0.9810
vn 0.0000 0.9322 0.3620
vn 0.0000 -0.0000 1.0000
vn 0.0000 0.0000 -1.0000
vn -1.0000 0.0000 0.0000
vn 0.0000 -1.0000 -0.0000
vn 1.0000 -0.0000 0.0000
vn 0.0000 -0.0975 -0.9952
vn 0.0000 -0.1941 -0.9810
vn 0.0000 -0.5285 -0.8489
vn 0.0000 -0.6493 -0.7605
vn 0.0000 -0.8292 -0.5590
vn 0.0000 -0.9322 -0.3620
vn 0.0000 -0.9842 -0.1772
vn 0.0000 -0.9842 0.1772
vn 0.0000 -0.9322 0.3620
vn 0.0000 -0.8292 0.5590
vn 0.0000 -0.6493 0.7605
vn 0.0000 -0.5285 0.8489
vn -0.0000 -0.0975 0.9952
vn 0.0000 -0.1941 0.9810
s 1
f 1/1/1 2/2/2 3/3/2
f 3/3/2 4/4/1 1/1/1
f 5/5/3 6/6/4 7/7/4
f 7/7/4 8/8/3 5/5/3
f 9/9/5 10/10/6 11/11/6
f 11/11/6 12/12/5 9/9/5
f 13/13/7 14/14/7 15/15/8
f 15/15/8 16/16/8 13/13/7
f 15/17/8 1/1/1 4/4/1
f 4/4/1 16/18/8 15/17/8
f 17/19/9 18/20/9 7/21/4
f 7/21/4 6/22/4 17/19/9
f 19/23/10 20/24/10 14/14/11
f 14/14/11 13/13/11 19/23/10
f 2/2/2 21/25/12 22/26/12
f 22/26/12 3/3/2 2/2/2
f 23/27/13 24/28/13 18/20/14
f 18/20/14 17/19/14 23/27/13
f 21/25/12 9/9/5 12/12/5
f 12/12/5 22/26/12 21/25/12
f 25/29/15 5/5/3 8/8/3
f 8/8/3 26/30/15 25/29/15
f 10/10/6 25/29/15 26/30/15
f 26/30/15 11/11/6 10/10/6
f 27/31/16 28/32/16 24/28/13
f 24/28/13 23/27/13 27/31/16
f 29/33/17 30/34/17 20/24/10
f 20/24/10 19/23/10 29/33/17
f 31/35/18 32/36/18 6/37/18
f 6/37/18 5/38/18 31/35/18
f 5/38/18 33/39/18 31/35/18
f 5/38/18 34/40/18 33/39/18
f 5/38/18 25/41/18 34/40/18
f 25/41/18 35/42/18 34/40/18
f 25/41/18 10/43/18 35/42/18
f 10/43/18 36/44/18 35/42/18
f 10/43/18 9/45/18 36/44/18
f 9/45/18 37/46/18 36/44/18
f 9/45/18 21/47/18 37/46/18
f 21/47/18 38/48/18 37/46/18
f 21/47/18 39/49/18 38/48/18
f 21/47/18 2/50/18 39/49/18
f 2/50/18 40/51/18 39/49/18
f 2/50/18 1/52/18 40/51/18
f 1/52/18 41/53/18 40/51/18
f 1/52/18 15/54/18 41/53/18
f 15/54/18 42/55/18 41/53/18
f 15/54/18 43/56/18 42/55/18
f 15/54/18 44/57/18 43/56/18
f 44/57/18 15/54/18 30/58/18
f 45/59/18 44/57/18 30/58/18
f 45/59/18 30/58/18 27/60/18
f 17/61/18 45/59/18 27/60/18
f 27/60/18 23/62/18 17/61/18
f 17/61/18 6/37/18 45/59/18
f 6/37/18 32/36/18 45/59/18
f 15/54/18 14/63/18 30/58/18
f 14/63/18 20/64/18 30/58/18
f 27/65/19 30/66/19 29/67/19
f 29/67/19 28/68/19 27/65/19
f 46/69/20 24/70/20 28/71/20
f 28/71/20 29/72/20 46/69/20
f 46/69/20 18/73/20 24/70/20
f 46/69/20 7/74/20 18/73/20
f 29/72/20 47/75/20 46/69/20
f 29/72/20 48/76/20 47/75/20
f 29/72/20 16/77/20 48/76/20
f 29/72/20 13/78/20 16/77/20
f 29/72/20 19/79/20 13/78/20
f 7/74/20 46/69/20 49/80/20
f 7/74/20 49/80/20 50/81/20
f 50/81/20 8/82/20 7/74/20
f 50/81/20 51/83/20 8/82/20
f 51/83/20 52/84/20 8/82/20
f 52/84/20 26/85/20 8/82/20
f 52/84/20 53/86/20 26/85/20
f 53/86/20 11/87/20 26/85/20
f 53/86/20 54/88/20 11/87/20
f 54/88/20 12/89/20 11/87/20
f 54/88/20 55/90/20 12/89/20
f 55/90/20 56/91/20 12/89/20
f 56/91/20 22/92/20 12/89/20
f 56/91/20 57/93/20 22/92/20
f 57/93/20 3/94/20 22/92/20
f 57/93/20 58/95/20 3/94/20
f 58/95/20 4/96/20 3/94/20
f 58/95/20 59/97/20 4/96/20
f 59/97/20 16/77/20 4/96/20
f 59/97/20 60/98/20 16/77/20
f 60/98/20 48/76/20 16/77/20
f 61/99/21 32/100/21 31/101/22
f 31/101/22 62/102/22 61/99/21
f 62/102/23 31/101/23 33/103/24
f 33/103/24 63/104/24 62/102/23
f 33/105/24 34/106/25 64/107/25
f 64/107/25 63/108/24 33/105/24
f 34/106/25 35/109/26 65/110/26
f 65/110/26 64/107/25 34/106/25
f 35/109/26 36/111/27 66/112/27
f 66/112/27 65/110/26 35/109/26
f 36/111/27 37/113/19 67/114/19
f 67/114/19 66/112/27 36/111/27
f 37/113/19 38/115/28 68/116/28
f 68/116/28 67/114/19 37/113/19
f 38/115/28 39/117/29 69/118/29
f 69/118/29 68/116/28 38/115/28
f 39/117/29 40/119/30 70/120/30
f 70/120/30 69/118/29 39/117/29
f 40/119/30 41/121/31 71/122/31
f 71/122/31 70/120/30 40/119/30
f 42/123/32 72/124/32 71/125/31
f 71/125/31 41/126/31 42/123/32
f 43/127/33 73/128/33 72/124/34
f 72/124/34 42/123/34 43/127/33
f 74/129/16 75/130/16 76/131/16
f 74/129/16 76/131/16 77/132/16
f 74/129/16 77/132/16 43/127/33
f 78/133/16 74/129/16 43/127/33
f 78/133/16 43/127/33 44/134/16
f 79/135/16 78/133/16 44/134/16
f 44/134/16 80/136/16 79/135/16
f 77/132/16 81/137/16 43/127/33
f 81/137/16 73/128/33 43/127/33
f 81/137/16 82/138/16 73/128/33
f 44/139/5 45/140/5 83/141/5
f 83/141/5 80/142/5 44/139/5
f 84/143/17 83/144/17 45/145/17
f 45/145/17 32/100/21 84/143/17
f 32/100/21 85/146/17 84/143/17
f 32/100/21 86/147/17 85/146/17
f 86/147/17 87/148/17 85/146/17
f 32/100/21 88/149/17 86/147/17
f 32/100/21 89/150/17 88/149/17
f 32/100/21 61/99/21 89/150/17
f 87/148/17 86/147/17 90/151/17
f 83/144/17 84/143/17 91/152/17
f 92/153/16 93/154/16 47/155/16
f 47/155/16 48/156/33 92/153/16
f 48/156/33 94/157/16 92/153/16
f 48/156/33 95/158/16 94/157/16
f 95/158/16 96/159/16 94/157/16
f 48/156/33 97/160/16 95/158/16
f 48/156/33 98/161/16 97/160/16
f 48/156/33 99/162/33 98/161/16
f 96/159/16 95/158/16 100/163/16
f 93/154/16 92/153/16 101/164/16
f 99/162/33 48/156/33 60/165/34
f 60/165/34 102/166/34 99/162/33
f 102/166/32 60/165/32 59/167/31
f 59/167/31 103/168/31 102/166/32
f 104/169/30 103/170/31 59/171/31
f 59/171/31 58/172/30 104/169/30
f 105/173/29 104/169/30 58/172/30
f 58/172/30 57/174/29 105/173/29
f 106/175/28 105/173/29 57/174/29
f 57/174/29 56/176/28 106/175/28
f 107/177/19 106/175/28 56/176/28
f 56/176/28 55/178/19 107/177/19
f 108/179/27 107/177/19 55/178/19
f 55/178/19 54/180/27 108/179/27
f 109/181/26 108/179/27 54/180/27
f 54/180/27 53/182/26 109/181/26
f 110/183/25 109/181/26 53/182/26
f 53/182/26 52/184/25 110/183/25
f 111/185/24 110/183/25 52/184/25
f 52/184/25 51/186/24 111/185/24
f 50/187/23 112/188/23 111/189/24
f 111/189/24 51/190/24 50/187/23
f 49/191/21 113/192/21 112/188/22
f 112/188/22 50/187/22 49/191/21
f 114/193/17 115/194/17 116/195/17
f 114/193/17 116/195/17 117/196/17
f 114/193/17 117/196/17 49/191/21
f 118/197/17 114/193/17 49/191/21
f 118/197/17 49/191/21 46/198/17
f 119/199/17 118/197/17 46/198/17
f 46/198/17 120/200/17 119/199/17
f 117/196/17 121/201/17 49/191/21
f 121/201/17 113/192/21 49/191/21
f 121/201/17 122/202/17 113/192/21
f 93/203/5 120/204/5 46/205/5
f 46/205/5 47/206/5 93/203/5
f 86/207/18 88/208/18 81/209/18
f 81/209/18 77/210/18 86/207/18
f 86/211/19 77/212/19 76/213/19
f 76/213/19 90/214/19 86/211/19
f 81/215/5 88/216/5 89/217/5
f 89/217/5 82/218/5 81/215/5
f 84/219/18 85/220/18 74/221/18
f 74/221/18 78/222/18 84/219/18
f 84/223/19 78/224/19 79/225/19
f 79/225/19 91/226/19 84/223/19
f 74/227/5 85/228/5 87/229/5
f 87/229/5 75/230/5 74/227/5
f 121/231/20 117/232/20 95/233/20
f 95/233/20 97/234/20 121/231/20
f 98/235/5 122/236/5 121/237/5
f 121/237/5 97/238/5 98/235/5
f 116/239/19 100/240/19 95/241/19
f 95/241/19 117/242/19 116/239/19
f 114/243/20 118/244/20 92/245/20
f 92/245/20 94/246/20 114/243/20
f 96/247/5 115/248/5 114/249/5
f 114/249/5 94/250/5 96/247/5
f 119/251/19 101/252/19 92/253/19
f 92/253/19 118/254/19 119/251/19
f 83/255/18 91/256/18 79/257/18
f 79/257/18 80/258/18 83/255/18
f 119/259/20 120/260/20 93/261/20
f 93/261/20 101/262/20 119/259/20
f 116/263/20 115/264/20 96/265/20
f 96/265/20 100/266/20 116/263/20
f 113/267/20 122/268/20 98/269/20
f 98/269/20 112/270/20 113/267/20
f 98/269/20 111/271/20 112/270/20
f 98/269/20 110/272/20 111/271/20
f 98/269/20 109/273/20 110/272/20
f 98/269/20 108/274/20 109/273/20
f 98/269/20 107/275/20 108/274/20
f 98/269/20 106/276/20 107/275/20
f 98/269/20 105/277/20 106/276/20
f 98/269/20 104/278/20 105/277/20
f 98/269/20 103/279/20 104/278/20
f 98/269/20 102/280/20 103/279/20
f 98/269/20 99/281/20 102/280/20
f 89/282/18 61/283/18 62/284/18
f 62/284/18 82/285/18 89/282/18
f 62/284/18 63/286/18 82/285/18
f 63/286/18 64/287/18 82/285/18
f 64/287/18 65/288/18 82/285/18
f 65/288/18 66/289/18 82/285/18
f 66/289/18 67/290/18 82/285/18
f 67/290/18 68/291/18 82/285/18
f 68/291/18 69/292/18 82/285/18
f 69/292/18 70/293/18 82/285/18
f 70/293/18 71/294/18 82/285/18
f 71/294/18 72/295/18 82/285/18
f 72/295/18 73/296/18 82/285/18
f 87/297/18 90/298/18 76/299/18
f 76/299/18 75/300/18 87/297/18
