# Blender v2.92.0 OBJ File: 'kenney_OGConvert.blend'
# www.blender.org
o sword
v -0.288432 -0.504000 0.280592
v 0.288432 -0.504000 0.280592
v 0.215248 -0.336000 0.209397
v -0.215248 -0.336000 0.209397
v -0.288432 -0.504000 -0.280592
v -0.215248 -0.672000 -0.209397
v -0.215248 -0.672000 0.209397
v 0.215248 -0.336000 -0.209397
v 0.288432 -0.504000 -0.280592
v -0.215248 -0.336000 -0.209397
v 0.215248 -0.672000 0.209397
v 0.215248 -0.672000 -0.209397
v 0.247520 2.362808 0.336000
v 0.247520 2.362808 -0.336000
v -0.248563 2.362808 -0.336000
v -0.248563 2.362808 0.336000
v 0.123760 2.968000 0.000000
v 0.123760 0.504000 -0.168000
v -0.123760 0.504000 -0.168000
v 0.123760 0.504000 0.168000
v -0.123760 2.968000 0.000000
v -0.123760 0.504000 0.168000
v 0.215248 0.336000 0.209397
v 0.495040 0.336000 -0.336000
v 0.495040 0.336000 0.336000
v -0.495040 0.336000 0.336000
v -0.215248 0.336000 0.209397
v -0.215248 0.336000 -0.209397
v 0.215248 0.336000 -0.209397
v -0.495040 0.336000 -0.336000
v -0.495040 0.504000 -0.336000
v -0.495040 0.504000 0.336000
v 0.495040 0.504000 -0.336000
v 0.495040 0.504000 0.336000
vt 0.850041 0.812761
vt 0.687400 0.812761
vt 0.708033 0.764122
vt 0.829408 0.764122
vt 0.552431 0.753642
vt 0.394210 0.753642
vt 0.414283 0.706408
vt 0.532359 0.706408
vt 0.023998 0.800731
vt 0.003364 0.752092
vt 0.166006 0.752092
vt 0.145372 0.800731
vt 0.829408 0.858628
vt 0.708033 0.858628
vt 0.677235 0.827783
vt 0.559160 0.827783
vt 0.559160 0.706408
vt 0.677235 0.706408
vt 0.330955 0.943182
vt 0.172734 0.943182
vt 0.192807 0.895686
vt 0.310883 0.895686
vt 0.856770 0.764574
vt 0.856770 0.575110
vt 0.996636 0.575110
vt 0.996636 0.764574
vt 0.023998 0.706225
vt 0.145372 0.706225
vt 0.192807 0.990416
vt 0.310883 0.990416
vt 0.003364 0.182047
vt 0.082326 0.003364
vt 0.192059 0.164985
vt 0.414283 0.801139
vt 0.532359 0.801139
vt 0.394210 0.522916
vt 0.429104 0.003364
vt 0.498890 0.003364
vt 0.534077 0.522916
vt 0.097712 0.699496
vt 0.192059 0.690965
vt 0.429103 0.699680
vt 0.498890 0.699680
vt 0.277749 0.699496
vt 0.198787 0.520810
vt 0.387482 0.537872
vt 0.680671 0.180128
vt 0.540805 0.180128
vt 0.575698 0.003364
vt 0.645484 0.003364
vt 0.293135 0.003364
vt 0.387482 0.011895
vt 0.645484 0.699680
vt 0.575698 0.699680
vt 0.723094 0.203624
vt 0.876864 0.282509
vt 0.687400 0.282509
vt 0.687400 0.003364
vt 0.723094 0.082249
vt 0.841169 0.082249
vt 0.841169 0.203624
vt 0.876864 0.003364
vt 0.340117 0.706225
vt 0.387482 0.706225
vt 0.387482 0.895689
vt 0.340117 0.895689
vt 0.883592 0.003364
vt 0.930845 0.003364
vt 0.930845 0.282509
vt 0.883592 0.282509
vt 0.856770 0.771303
vt 0.904135 0.771303
vt 0.904135 0.960767
vt 0.856770 0.960767
vt 0.829498 0.393916
vt 0.687400 0.289237
vt 0.876864 0.289237
vt 0.876864 0.568381
vt 0.829498 0.463702
vt 0.734766 0.463702
vt 0.734766 0.393916
vt 0.687400 0.568381
vt 0.883592 0.568381
vt 0.883592 0.289237
vt 0.930845 0.289237
vt 0.930845 0.568381
vt 0.708033 0.575110
vt 0.829408 0.575110
vt 0.023998 0.989743
vt 0.145372 0.989743
vt 0.414283 0.990599
vt 0.532359 0.990599
vt 0.192807 0.706225
vt 0.310883 0.706225
vn 0.0000 0.3902 0.9207
vn -0.9168 -0.3994 0.0000
vn -0.0000 0.3902 -0.9207
vn 0.0000 -0.3902 0.9207
vn 0.0000 -1.0000 0.0000
vn 0.9168 0.3994 -0.0000
vn 0.0000 1.0000 0.0000
vn -0.0000 -0.3902 -0.9207
vn 0.9168 -0.3994 -0.0000
vn 0.9797 0.2004 -0.0000
vn -0.9168 0.3994 0.0000
vn -0.0000 -0.0900 -0.9959
vn 0.9978 -0.0664 -0.0000
vn -0.0000 0.4854 -0.8743
vn -0.9794 0.2020 0.0000
vn 0.0000 0.4854 0.8743
vn -0.9978 -0.0670 0.0000
vn 0.0000 -0.0900 0.9959
vn -1.0000 0.0000 0.0000
vn -0.0000 0.0000 -1.0000
vn 1.0000 0.0000 -0.0000
vn 0.0000 -0.0000 1.0000
s 1
f 1/1/1 2/2/1 3/3/1
f 3/3/1 4/4/1 1/1/1
f 1/5/2 5/6/2 6/7/2
f 6/7/2 7/8/2 1/5/2
f 8/9/3 9/10/3 5/11/3
f 5/11/3 10/12/3 8/9/3
f 7/13/4 11/14/4 2/2/4
f 2/2/4 1/1/4 7/13/4
f 12/15/5 11/16/5 7/17/5
f 7/17/5 6/18/5 12/15/5
f 2/19/6 9/20/6 8/21/6
f 8/21/6 3/22/6 2/19/6
f 13/23/7 14/24/7 15/25/7
f 15/25/7 16/26/7 13/23/7
f 9/10/8 12/27/8 6/28/8
f 6/28/8 5/11/8 9/10/8
f 12/29/9 9/20/9 2/19/9
f 2/19/9 11/30/9 12/29/9
f 14/31/10 17/32/10 13/33/10
f 10/34/11 5/6/11 1/5/11
f 1/5/11 4/35/11 10/34/11
f 14/36/12 18/37/12 19/38/12
f 19/38/12 15/39/12 14/36/12
f 18/40/13 14/31/13 13/33/13
f 13/33/13 20/41/13 18/40/13
f 17/42/14 14/36/14 15/39/14
f 15/39/14 21/43/14 17/42/14
f 21/44/15 15/45/15 16/46/15
f 16/47/16 13/48/16 17/49/16
f 17/49/16 21/50/16 16/47/16
f 16/46/17 15/45/17 19/51/17
f 19/51/17 22/52/17 16/46/17
f 22/53/18 20/54/18 13/48/18
f 13/48/18 16/47/18 22/53/18
f 23/55/5 24/56/5 25/57/5
f 25/57/5 26/58/5 23/55/5
f 26/58/5 27/59/5 23/55/5
f 26/58/5 28/60/5 27/59/5
f 24/56/5 23/55/5 29/61/5
f 29/61/5 30/62/5 24/56/5
f 29/61/5 28/60/5 30/62/5
f 28/60/5 26/58/5 30/62/5
f 31/63/19 30/64/19 26/65/19
f 26/65/19 32/66/19 31/63/19
f 33/67/20 24/68/20 30/69/20
f 30/69/20 31/70/20 33/67/20
f 24/71/21 33/72/21 34/73/21
f 34/73/21 25/74/21 24/71/21
f 18/75/7 34/76/7 33/77/7
f 33/77/7 31/78/7 18/75/7
f 31/78/7 19/79/7 18/75/7
f 31/78/7 22/80/7 19/79/7
f 34/76/7 18/75/7 20/81/7
f 20/81/7 32/82/7 34/76/7
f 20/81/7 22/80/7 32/82/7
f 22/80/7 31/78/7 32/82/7
f 26/83/22 25/84/22 34/85/22
f 34/85/22 32/86/22 26/83/22
f 4/4/22 3/3/22 23/87/22
f 23/87/22 27/88/22 4/4/22
f 29/89/20 8/9/20 10/12/20
f 10/12/20 28/90/20 29/89/20
f 28/91/19 10/34/19 4/35/19
f 4/35/19 27/92/19 28/91/19
f 8/21/21 29/93/21 23/94/21
f 23/94/21 3/22/21 8/21/21
