# Blender v2.92.0 OBJ File: 'OGConvert.blend'
# www.blender.org
o towerSquareArch
v -77.199997 80.800003 62.300003
v -77.199997 -0.000003 62.299999
v -77.199997 -0.000003 71.599998
v -77.199997 80.800003 71.599998
v -2.800000 0.000000 -2.800000
v -2.800000 80.800003 -2.799996
v -2.800000 80.800003 6.500003
v -2.800000 -0.000000 6.500000
v -12.100000 -0.000003 71.599998
v -2.800000 -0.000003 71.599998
v -2.800000 80.800003 71.599998
v -12.100000 80.800003 71.599998
v -67.900002 0.000000 -2.800000
v -77.199997 0.000000 -2.800000
v -77.199997 80.800003 -2.799996
v -67.900002 80.800003 -2.799996
v -12.100000 0.000000 -2.800000
v -12.100000 80.800003 -2.799996
v -2.800000 -0.000003 62.299999
v -6.503391 -0.000003 62.299999
v -6.503391 80.800003 62.300003
v -2.800000 80.800003 62.300003
v -6.503391 -0.000000 6.500000
v -6.503391 80.800003 6.500003
v -67.900002 80.800003 0.903395
v -67.900002 -0.000000 0.903391
v -12.100000 -0.000000 0.903391
v -12.100000 80.800003 0.903395
v -67.900002 -0.000003 71.599998
v -67.900002 80.800003 71.599998
v -12.100000 80.800003 67.896606
v -12.100000 -0.000003 67.896606
v -67.900002 -0.000003 67.896606
v -67.900002 80.800003 67.896606
v -77.199997 -0.000000 6.500000
v -77.199997 80.800003 6.500003
v -73.496605 -0.000003 62.299999
v -73.496605 80.800003 62.300003
v -73.496605 -0.000000 6.500000
v -73.496605 80.800003 6.500003
v -12.181472 80.800003 8.851940
v -14.451936 80.800003 6.581474
v -65.548065 80.800003 6.581474
v -67.818527 80.800003 8.851940
v -67.818527 80.800003 59.948067
v -12.181472 80.800003 59.948067
v -14.451936 80.800003 62.218533
v -65.548065 80.800003 62.218533
v -60.379856 -0.000000 0.903391
v -60.379856 -0.000001 14.020144
v -73.496605 -0.000001 14.020144
v -60.379856 43.759895 0.903393
v -59.685432 49.034584 14.020146
v -59.685432 49.034584 0.903393
v -60.379856 43.759895 14.020146
v -57.649471 53.949825 14.020146
v -57.649471 53.949825 0.903394
v -54.410736 58.170624 14.020147
v -54.410736 58.170624 0.903394
v -50.189926 61.409367 0.903394
v -50.189926 61.409367 14.020147
v -45.274696 63.445320 0.903394
v -45.274696 63.445320 14.020147
v -40.000000 64.139755 0.903394
v -40.000000 64.139755 14.020147
v -34.725304 63.445320 0.903394
v -34.725304 63.445320 14.020147
v -29.810072 61.409367 0.903394
v -29.810072 61.409367 14.020147
v -25.589264 58.170624 0.903394
v -25.589264 58.170624 14.020147
v -22.350529 53.949825 14.020146
v -22.350529 53.949825 0.903394
v -20.314568 49.034584 14.020146
v -20.314568 49.034584 0.903393
v -19.620144 43.759895 14.020146
v -19.620144 43.759895 0.903393
v -6.503391 49.034584 14.714570
v -6.503391 43.759895 14.020146
v -19.620144 49.034584 14.714570
v -6.503391 53.949825 16.750530
v -19.620144 53.949825 16.750530
v -6.503391 58.170624 19.989265
v -19.620144 58.170624 19.989265
v -19.620144 61.409367 24.210073
v -6.503391 61.409367 24.210073
v -19.620144 63.445320 29.125305
v -6.503391 63.445320 29.125305
v -19.620144 64.139755 34.400005
v -6.503391 64.139755 34.400005
v -19.620144 63.445320 39.674702
v -6.503391 63.445320 39.674702
v -19.620144 61.409363 44.589931
v -6.503391 61.409363 44.589931
v -19.620144 58.170620 48.810741
v -6.503391 58.170620 48.810741
v -6.503391 53.949821 52.049484
v -19.620144 53.949821 52.049484
v -6.503391 49.034580 54.085434
v -19.620144 49.034580 54.085434
v -6.503391 43.759892 54.779861
v -19.620144 43.759892 54.779861
v -20.314568 49.034580 54.779861
v -19.620144 43.759892 67.896606
v -20.314568 49.034580 67.896606
v -22.350529 53.949821 54.779861
v -22.350529 53.949821 67.896606
v -25.589264 58.170620 54.779861
v -25.589264 58.170620 67.896606
v -29.810072 61.409363 67.896606
v -29.810072 61.409363 54.779861
v -34.725304 63.445316 67.896606
v -34.725304 63.445316 54.779861
v -40.000000 64.139755 67.896606
v -40.000000 64.139755 54.779861
v -45.274696 63.445316 67.896606
v -45.274696 63.445316 54.779861
v -50.189926 61.409363 67.896606
v -50.189926 61.409363 54.779861
v -54.410736 58.170620 67.896606
v -54.410736 58.170620 54.779861
v -57.649471 53.949821 54.779861
v -57.649471 53.949821 67.896606
v -59.685432 49.034580 54.779861
v -59.685432 49.034580 67.896606
v -60.379856 43.759892 54.779861
v -60.379856 43.759892 67.896606
v -73.496605 49.034580 54.085434
v -73.496605 43.759892 54.779861
v -60.379856 49.034580 54.085434
v -73.496605 53.949821 52.049484
v -60.379856 53.949821 52.049484
v -73.496605 58.170620 48.810741
v -60.379856 58.170620 48.810741
v -60.379856 61.409363 44.589931
v -73.496605 61.409363 44.589931
v -60.379856 63.445320 39.674702
v -73.496605 63.445320 39.674702
v -60.379856 64.139755 34.400005
v -73.496605 64.139755 34.400005
v -60.379856 63.445320 29.125305
v -73.496605 63.445320 29.125305
v -60.379856 61.409367 24.210073
v -73.496605 61.409367 24.210073
v -60.379856 58.170624 19.989265
v -73.496605 58.170624 19.989265
v -73.496605 53.949825 16.750530
v -60.379856 53.949825 16.750530
v -73.496605 49.034584 14.714570
v -60.379856 49.034584 14.714570
v -73.496605 43.759895 14.020146
v -6.503391 -0.000002 54.779858
v -19.620144 -0.000002 54.779858
v -19.620144 -0.000003 67.896606
v -73.496605 -0.000002 54.779858
v -60.379856 -0.000002 54.779858
v -60.379856 -0.000003 67.896606
v -6.503391 -0.000001 14.020144
v -19.620144 -0.000001 14.020144
v -19.620144 -0.000000 0.903391
v -60.379856 64.139755 14.020147
v -19.620144 64.139755 14.020147
v -19.620144 64.139755 54.779861
v -60.379856 64.139755 54.779861
vt 0.845572 0.326917
vt 0.845572 0.638241
vt 0.809707 0.638241
vt 0.809707 0.326917
vt 0.846200 0.005197
vt 0.846200 0.316522
vt 0.810335 0.316522
vt 0.810335 0.005197
vt 0.753052 0.638241
vt 0.717187 0.638241
vt 0.717187 0.326917
vt 0.753052 0.326917
vt 0.763447 0.326916
vt 0.799312 0.326916
vt 0.799312 0.638241
vt 0.763447 0.638241
vt 0.717816 0.005197
vt 0.753681 0.005197
vt 0.753681 0.316522
vt 0.717816 0.316522
vt 0.902854 0.005197
vt 0.917136 0.005197
vt 0.917136 0.316522
vt 0.902854 0.316522
vt 0.941184 0.638241
vt 0.926902 0.638241
vt 0.926902 0.326917
vt 0.941184 0.326917
vt 0.924336 0.648635
vt 0.924336 0.959960
vt 0.910054 0.959960
vt 0.910054 0.648635
vt 0.949012 0.648636
vt 0.949012 0.959960
vt 0.934730 0.959960
vt 0.934730 0.648636
vt 0.799940 0.316522
vt 0.764075 0.316522
vt 0.764075 0.005198
vt 0.799940 0.005198
vt 0.463864 0.648636
vt 0.463864 0.959960
vt 0.449583 0.959960
vt 0.449583 0.648636
vt 0.941812 0.005197
vt 0.941812 0.316522
vt 0.927530 0.316522
vt 0.927530 0.005197
vt 0.695679 0.551872
vt 0.695679 0.863196
vt 0.659814 0.863196
vt 0.659814 0.551872
vt 0.230783 0.302512
vt 0.245064 0.302512
vt 0.245064 0.613836
vt 0.230783 0.613836
vt 0.916507 0.638241
vt 0.902225 0.638241
vt 0.902225 0.326917
vt 0.916507 0.326917
vt 0.891831 0.326916
vt 0.891831 0.638241
vt 0.855967 0.638241
vt 0.855967 0.326916
vt 0.005511 0.050132
vt 0.005197 0.277835
vt 0.005197 0.019479
vt 0.014267 0.041376
vt 0.220387 0.019479
vt 0.211317 0.041376
vt 0.220073 0.050132
vt 0.220073 0.247182
vt 0.005511 0.247182
vt 0.014267 0.255938
vt 0.220387 0.277835
vt 0.211317 0.255938
vt 0.255458 0.302512
vt 0.255458 0.302512
vt 0.255458 0.302512
vt 0.255458 0.302512
vt 0.870876 0.256252
vt 0.892459 0.005197
vt 0.892459 0.292117
vt 0.870876 0.041062
vt 0.856594 0.041062
vt 0.856594 0.005197
vt 0.856594 0.292117
vt 0.856594 0.256252
vt 0.241970 0.041062
vt 0.256252 0.005197
vt 0.220387 0.005197
vt 0.220387 0.292117
vt 0.256252 0.041062
vt 0.241970 0.256252
vt 0.256252 0.292117
vt 0.256252 0.256252
vt 0.500987 0.326916
vt 0.492231 0.532722
vt 0.492231 0.335672
vt 0.706793 0.532722
vt 0.698037 0.326916
vt 0.706793 0.335672
vt 0.698037 0.541478
vt 0.500987 0.541478
vt 0.331513 0.898415
vt 0.331513 0.948999
vt 0.280929 0.948999
vt 0.302512 0.898415
vt 0.302512 0.884133
vt 0.280929 0.919998
vt 0.266647 0.884133
vt 0.266647 0.919998
vt 0.378209 0.705130
vt 0.327625 0.684694
vt 0.378209 0.684694
vt 0.327625 0.705130
vt 0.327625 0.665424
vt 0.378209 0.665424
vt 0.327625 0.648635
vt 0.378209 0.648635
vt 0.205679 0.954600
vt 0.155094 0.970877
vt 0.155094 0.954600
vt 0.205679 0.970877
vt 0.205679 0.935644
vt 0.155094 0.935644
vt 0.205679 0.915303
vt 0.155094 0.915303
vt 0.205679 0.894961
vt 0.155095 0.894961
vt 0.205679 0.876006
vt 0.155095 0.876006
vt 0.205679 0.859728
vt 0.155095 0.859728
vt 0.238717 0.849334
vt 0.188133 0.832544
vt 0.238717 0.832544
vt 0.188133 0.849334
vt 0.188133 0.813275
vt 0.238717 0.813275
vt 0.188133 0.792839
vt 0.238717 0.792839
vt 0.177739 0.792839
vt 0.127154 0.813275
vt 0.127154 0.792839
vt 0.177739 0.813275
vt 0.127154 0.832544
vt 0.177739 0.832544
vt 0.127154 0.849334
vt 0.177739 0.849334
vt 0.094116 0.859728
vt 0.144700 0.876006
vt 0.094116 0.876006
vt 0.144700 0.859728
vt 0.144700 0.894961
vt 0.094116 0.894961
vt 0.144700 0.915303
vt 0.094116 0.915303
vt 0.144700 0.935644
vt 0.094116 0.935644
vt 0.144700 0.954600
vt 0.094116 0.954600
vt 0.144700 0.970877
vt 0.094116 0.970877
vt 0.066176 0.641020
vt 0.116760 0.624230
vt 0.116760 0.641020
vt 0.066176 0.624230
vt 0.066176 0.660289
vt 0.116760 0.660289
vt 0.066176 0.680726
vt 0.116760 0.680726
vt 0.439188 0.837680
vt 0.388604 0.817243
vt 0.439188 0.817243
vt 0.388604 0.837680
vt 0.439188 0.856949
vt 0.388604 0.856949
vt 0.439188 0.873738
vt 0.388604 0.873738
vt 0.695679 0.873591
vt 0.645095 0.889869
vt 0.645095 0.873591
vt 0.695679 0.889869
vt 0.645095 0.908824
vt 0.695679 0.908824
vt 0.645095 0.929166
vt 0.695679 0.929166
vt 0.645095 0.949507
vt 0.695679 0.949507
vt 0.645095 0.968463
vt 0.695679 0.968463
vt 0.645095 0.984740
vt 0.695679 0.984740
vt 0.767772 0.665424
vt 0.717188 0.648635
vt 0.767772 0.648635
vt 0.717188 0.665424
vt 0.767772 0.684694
vt 0.717188 0.684694
vt 0.767772 0.705130
vt 0.717188 0.705130
vt 0.005197 0.680726
vt 0.055781 0.660289
vt 0.055781 0.680726
vt 0.005197 0.660289
vt 0.055781 0.641020
vt 0.005197 0.641020
vt 0.055781 0.624230
vt 0.005197 0.624230
vt 0.581150 0.935820
vt 0.631734 0.952097
vt 0.581150 0.952097
vt 0.631734 0.935820
vt 0.581150 0.916864
vt 0.631734 0.916864
vt 0.581150 0.896523
vt 0.631734 0.896523
vt 0.581150 0.876181
vt 0.631734 0.876181
vt 0.581150 0.857226
vt 0.631734 0.857226
vt 0.581150 0.840948
vt 0.631734 0.840948
vt 0.317231 0.856949
vt 0.266646 0.873738
vt 0.266646 0.856949
vt 0.317231 0.873738
vt 0.317231 0.837679
vt 0.266646 0.837679
vt 0.317231 0.817243
vt 0.266646 0.817243
vt 0.370908 0.884133
vt 0.406773 0.884133
vt 0.406773 0.919998
vt 0.370908 0.898415
vt 0.341907 0.898415
vt 0.392491 0.919998
vt 0.341907 0.948999
vt 0.392491 0.948999
vt 0.506513 0.965802
vt 0.492231 0.965802
vt 0.492231 0.929937
vt 0.528096 0.944219
vt 0.528096 0.929937
vt 0.557097 0.944219
vt 0.557097 0.994803
vt 0.506513 0.994803
vt 0.814031 0.905905
vt 0.843032 0.905905
vt 0.843032 0.956489
vt 0.792448 0.927488
vt 0.792448 0.956489
vt 0.778166 0.927488
vt 0.778166 0.891623
vt 0.814031 0.891623
vt 0.191386 0.613836
vt 0.220387 0.302512
vt 0.220387 0.613836
vt 0.191386 0.445229
vt 0.188708 0.424905
vt 0.180857 0.405967
vt 0.168367 0.389704
vt 0.152089 0.377225
vt 0.133134 0.369380
vt 0.112792 0.366704
vt 0.005197 0.302512
vt 0.092451 0.369380
vt 0.073495 0.377225
vt 0.057218 0.389704
vt 0.044728 0.405967
vt 0.036876 0.424905
vt 0.034198 0.445229
vt 0.005197 0.613836
vt 0.034198 0.613836
vt 0.295648 0.495524
vt 0.266646 0.326916
vt 0.295648 0.326916
vt 0.266646 0.638241
vt 0.298326 0.515848
vt 0.306177 0.534786
vt 0.318667 0.551049
vt 0.334945 0.563528
vt 0.353900 0.571373
vt 0.374241 0.574048
vt 0.394583 0.571373
vt 0.413538 0.563528
vt 0.481837 0.638241
vt 0.429816 0.551049
vt 0.442306 0.534786
vt 0.450158 0.515848
vt 0.452836 0.495524
vt 0.452836 0.326916
vt 0.481837 0.326916
vt 0.378209 0.873738
vt 0.327625 0.873738
vt 0.295648 0.005197
vt 0.266647 0.316522
vt 0.266647 0.005197
vt 0.295648 0.173805
vt 0.298326 0.194129
vt 0.306177 0.213067
vt 0.318667 0.229330
vt 0.334945 0.241809
vt 0.353900 0.249654
vt 0.374242 0.252329
vt 0.481837 0.316522
vt 0.394583 0.249654
vt 0.413539 0.241809
vt 0.429816 0.229330
vt 0.442306 0.213067
vt 0.450158 0.194129
vt 0.452836 0.173805
vt 0.481837 0.005197
vt 0.452836 0.005197
vt 0.188133 0.624231
vt 0.238717 0.624231
vt 0.177739 0.624231
vt 0.127154 0.624231
vt 0.066176 0.849334
vt 0.116760 0.849334
vt 0.388604 0.648635
vt 0.439188 0.648635
vt 0.675743 0.127590
vt 0.707422 0.005198
vt 0.707422 0.316522
vt 0.667891 0.108652
vt 0.655401 0.092389
vt 0.639123 0.079910
vt 0.492231 0.005198
vt 0.678421 0.147914
vt 0.620168 0.072065
vt 0.599826 0.069389
vt 0.579485 0.072065
vt 0.560530 0.079910
vt 0.544252 0.092389
vt 0.531762 0.108652
vt 0.523911 0.127590
vt 0.521233 0.147914
vt 0.521233 0.316522
vt 0.492231 0.316522
vt 0.678421 0.316522
vt 0.550431 0.916864
vt 0.570755 0.919542
vt 0.492231 0.919542
vt 0.531493 0.909013
vt 0.515230 0.896523
vt 0.502751 0.880245
vt 0.494906 0.861290
vt 0.492231 0.840948
vt 0.821231 0.743453
vt 0.833715 0.759734
vt 0.778166 0.704135
vt 0.813383 0.724499
vt 0.810706 0.704164
vt 0.813383 0.683834
vt 0.821231 0.664894
vt 0.833715 0.648635
vt 0.025521 0.862406
vt 0.005197 0.859728
vt 0.083721 0.859728
vt 0.044459 0.870258
vt 0.060722 0.882748
vt 0.073201 0.899025
vt 0.081046 0.917980
vt 0.083721 0.938322
vt 0.821231 0.864947
vt 0.833715 0.881228
vt 0.778166 0.825629
vt 0.813382 0.845993
vt 0.810706 0.825658
vt 0.813382 0.805328
vt 0.821231 0.786388
vt 0.833715 0.770129
vt 0.844110 0.704135
vt 0.899660 0.648635
vt 0.887176 0.664894
vt 0.879327 0.683834
vt 0.876651 0.704164
vt 0.879327 0.724499
vt 0.887176 0.743453
vt 0.899660 0.759735
vt 0.844110 0.825727
vt 0.899660 0.770129
vt 0.887175 0.786410
vt 0.879327 0.805364
vt 0.876650 0.825699
vt 0.879327 0.846029
vt 0.887175 0.864969
vt 0.899660 0.881228
vt 0.717188 0.873738
vt 0.767772 0.873738
vt 0.492231 0.774955
vt 0.547781 0.719454
vt 0.535296 0.735713
vt 0.527448 0.754653
vt 0.524771 0.774983
vt 0.527448 0.795319
vt 0.535296 0.814272
vt 0.547781 0.830554
vt 0.558176 0.775054
vt 0.613726 0.719455
vt 0.601241 0.735736
vt 0.593392 0.754690
vt 0.590716 0.775025
vt 0.593392 0.795355
vt 0.601241 0.814295
vt 0.613726 0.830554
vt 0.317231 0.648635
vt 0.266646 0.648635
vt 0.005197 0.849334
vt 0.055781 0.849334
vt 0.570825 0.551872
vt 0.649419 0.551872
vt 0.649419 0.630466
vt 0.492231 0.551872
vt 0.492231 0.630466
vt 0.649419 0.709060
vt 0.492231 0.709060
vt 0.255458 0.312906
vt 0.255458 0.312906
vt 0.255458 0.312906
vn -1.0000 0.0000 0.0000
vn 1.0000 -0.0000 0.0000
vn 0.0000 0.0000 1.0000
vn 0.0000 0.0000 -1.0000
vn 0.0000 1.0000 0.0000
vn -0.0000 1.0000 -0.0003
vn 0.0000 1.0000 -0.0002
vn 0.0000 -1.0000 0.0000
vn -0.9914 0.1305 0.0000
vn -0.9659 0.2588 0.0000
vn -0.8660 0.5000 0.0000
vn -0.7071 0.7071 0.0000
vn -0.5000 0.8660 0.0000
vn -0.2588 0.9659 0.0000
vn 0.2588 0.9659 0.0000
vn 0.5000 0.8660 0.0000
vn 0.7071 0.7071 0.0000
vn 0.8660 0.5000 0.0000
vn 0.9659 0.2588 0.0000
vn 0.9914 0.1305 0.0000
vn 0.0000 0.1305 -0.9914
vn 0.0000 0.2588 -0.9659
vn 0.0000 0.5000 -0.8660
vn 0.0000 0.7071 -0.7071
vn 0.0000 0.8660 -0.5000
vn 0.0000 0.9659 -0.2588
vn 0.0000 0.9659 0.2588
vn 0.0000 0.8660 0.5000
vn 0.0000 0.7071 0.7071
vn 0.0000 0.5000 0.8660
vn 0.0000 0.2588 0.9659
vn 0.0000 0.1305 0.9914
vn 0.0000 0.0000 0.0000
s 1
f 1/1/1 2/2/1 3/3/1
f 3/3/1 4/4/1 1/1/1
f 5/5/2 6/6/2 7/7/2
f 7/7/2 8/8/2 5/5/2
f 9/9/3 10/10/3 11/11/3
f 11/11/3 12/12/3 9/9/3
f 13/13/4 14/14/4 15/15/4
f 15/15/4 16/16/4 13/13/4
f 5/17/4 17/18/4 18/19/4
f 18/19/4 6/20/4 5/17/4
f 19/21/4 20/22/4 21/23/4
f 21/23/4 22/24/4 19/21/4
f 23/25/3 8/26/3 7/27/3
f 7/27/3 24/28/3 23/25/3
f 13/29/2 16/30/2 25/31/2
f 25/31/2 26/32/2 13/29/2
f 18/33/1 17/34/1 27/35/1
f 27/35/1 28/36/1 18/33/1
f 3/37/3 29/38/3 30/39/3
f 30/39/3 4/40/3 3/37/3
f 31/41/1 32/42/1 9/43/1
f 9/43/1 12/44/1 31/41/1
f 33/45/2 34/46/2 30/47/2
f 30/47/2 29/48/2 33/45/2
f 15/49/1 14/50/1 35/51/1
f 35/51/1 36/52/1 15/49/1
f 37/53/4 2/54/4 1/55/4
f 1/55/4 38/56/4 37/53/4
f 35/57/3 39/58/3 40/59/3
f 40/59/3 36/60/3 35/57/3
f 19/61/2 22/62/2 11/63/2
f 11/63/2 10/64/2 19/61/2
f 41/65/5 31/66/5 28/67/5
f 28/67/5 42/68/5 41/65/5
f 28/67/5 25/69/5 42/68/5
f 25/69/5 43/70/5 42/68/5
f 25/69/5 44/71/5 43/70/5
f 25/69/5 45/72/5 44/71/5
f 31/66/5 41/65/5 46/73/5
f 31/66/5 46/73/5 47/74/5
f 47/74/5 34/75/5 31/66/5
f 45/72/5 25/69/5 34/75/5
f 47/74/5 48/76/5 34/75/5
f 48/76/5 45/72/5 34/75/5
f 28/77/5 31/78/5 12/79/6
f 18/80/7 28/77/5 12/79/6
f 21/81/5 18/82/7 12/83/6
f 18/82/7 21/81/5 24/84/5
f 18/82/5 24/84/5 7/85/5
f 7/85/5 6/86/5 18/82/5
f 21/81/5 12/83/6 11/87/5
f 11/87/5 22/88/5 21/81/5
f 40/89/5 34/75/5 25/69/5
f 15/90/5 40/89/5 25/69/5
f 25/69/5 16/91/5 15/90/5
f 40/89/5 30/92/5 34/75/5
f 15/90/5 36/93/5 40/89/5
f 30/92/5 40/89/5 38/94/5
f 38/94/5 4/95/5 30/92/5
f 38/94/5 1/96/5 4/95/5
f 43/97/8 45/98/8 44/99/8
f 46/100/8 42/101/8 41/102/8
f 42/101/8 46/100/8 47/103/8
f 42/101/8 47/103/8 43/97/8
f 43/97/8 47/103/8 48/104/8
f 43/97/8 48/104/8 45/98/8
f 49/105/8 50/106/8 51/107/8
f 51/107/8 26/108/8 49/105/8
f 51/107/8 13/109/8 26/108/8
f 51/107/8 39/110/8 13/109/8
f 39/110/8 14/111/8 13/109/8
f 39/110/8 35/112/8 14/111/8
f 52/113/9 53/114/10 54/115/10
f 53/114/10 52/113/9 55/116/9
f 54/115/10 56/117/11 57/118/11
f 56/117/11 54/115/10 53/114/10
f 57/118/11 58/119/12 59/120/12
f 58/119/12 57/118/11 56/117/11
f 60/121/13 58/122/12 61/123/13
f 58/122/12 60/121/13 59/124/12
f 62/125/14 61/123/13 63/126/14
f 61/123/13 62/125/14 60/121/13
f 64/127/5 63/126/14 65/128/5
f 63/126/14 64/127/5 62/125/14
f 66/129/15 65/128/5 67/130/15
f 65/128/5 66/129/15 64/127/5
f 68/131/16 67/130/15 69/132/16
f 67/130/15 68/131/16 66/129/15
f 70/133/17 69/132/16 71/134/17
f 69/132/16 70/133/17 68/131/16
f 70/135/17 72/136/18 73/137/18
f 72/136/18 70/135/17 71/138/17
f 73/137/18 74/139/19 75/140/19
f 74/139/19 73/137/18 72/136/18
f 75/140/19 76/141/20 77/142/20
f 76/141/20 75/140/19 74/139/19
f 76/143/21 78/144/22 79/145/21
f 78/144/22 76/143/21 80/146/22
f 80/146/22 81/147/23 78/144/22
f 81/147/23 80/146/22 82/148/23
f 82/148/23 83/149/24 81/147/23
f 83/149/24 82/148/23 84/150/24
f 83/151/24 85/152/25 86/153/25
f 85/152/25 83/151/24 84/154/24
f 86/153/25 87/155/26 88/156/26
f 87/155/26 86/153/25 85/152/25
f 88/156/26 89/157/5 90/158/5
f 89/157/5 88/156/26 87/155/26
f 90/158/5 91/159/27 92/160/27
f 91/159/27 90/158/5 89/157/5
f 92/160/27 93/161/28 94/162/28
f 93/161/28 92/160/27 91/159/27
f 94/162/28 95/163/29 96/164/29
f 95/163/29 94/162/28 93/161/28
f 97/165/30 95/166/29 98/167/30
f 95/166/29 97/165/30 96/168/29
f 99/169/31 98/167/30 100/170/31
f 98/167/30 99/169/31 97/165/30
f 101/171/32 100/170/31 102/172/32
f 100/170/31 101/171/32 99/169/31
f 103/173/19 104/174/20 102/175/20
f 104/174/20 103/173/19 105/176/19
f 106/177/18 105/176/19 103/173/19
f 105/176/19 106/177/18 107/178/18
f 108/179/17 107/178/18 106/177/18
f 107/178/18 108/179/17 109/180/17
f 108/181/17 110/182/16 109/183/17
f 110/182/16 108/181/17 111/184/16
f 111/184/16 112/185/15 110/182/16
f 112/185/15 111/184/16 113/186/15
f 113/186/15 114/187/5 112/185/15
f 114/187/5 113/186/15 115/188/5
f 115/188/5 116/189/14 114/187/5
f 116/189/14 115/188/5 117/190/14
f 117/190/14 118/191/13 116/189/14
f 118/191/13 117/190/14 119/192/13
f 119/192/13 120/193/12 118/191/13
f 120/193/12 119/192/13 121/194/12
f 122/195/11 120/196/12 121/197/12
f 120/196/12 122/195/11 123/198/11
f 124/199/10 123/198/11 122/195/11
f 123/198/11 124/199/10 125/200/10
f 126/201/9 125/200/10 124/199/10
f 125/200/10 126/201/9 127/202/9
f 126/203/32 128/204/31 129/205/32
f 128/204/31 126/203/32 130/206/31
f 130/206/31 131/207/30 128/204/31
f 131/207/30 130/206/31 132/208/30
f 132/208/30 133/209/29 131/207/30
f 133/209/29 132/208/30 134/210/29
f 135/211/28 133/212/29 134/213/29
f 133/212/29 135/211/28 136/214/28
f 137/215/27 136/214/28 135/211/28
f 136/214/28 137/215/27 138/216/27
f 139/217/5 138/216/27 137/215/27
f 138/216/27 139/217/5 140/218/5
f 141/219/26 140/218/5 139/217/5
f 140/218/5 141/219/26 142/220/26
f 143/221/25 142/220/26 141/219/26
f 142/220/26 143/221/25 144/222/25
f 145/223/24 144/222/25 143/221/25
f 144/222/25 145/223/24 146/224/24
f 147/225/23 145/226/24 148/227/23
f 145/226/24 147/225/23 146/228/24
f 149/229/22 148/227/23 150/230/22
f 148/227/23 149/229/22 147/225/23
f 151/231/21 150/230/22 55/232/21
f 150/230/22 151/231/21 149/229/22
f 19/233/8 10/234/8 9/235/8
f 9/235/8 20/236/8 19/233/8
f 9/235/8 152/237/8 20/236/8
f 9/235/8 32/238/8 152/237/8
f 32/238/8 153/239/8 152/237/8
f 32/238/8 154/240/8 153/239/8
f 33/241/8 29/242/8 3/243/8
f 3/243/8 37/244/8 33/241/8
f 3/243/8 2/245/8 37/244/8
f 33/241/8 37/244/8 155/246/8
f 33/241/8 155/246/8 156/247/8
f 156/247/8 157/248/8 33/241/8
f 23/249/8 158/250/8 159/251/8
f 159/251/8 27/252/8 23/249/8
f 159/251/8 160/253/8 27/252/8
f 23/249/8 27/252/8 17/254/8
f 23/249/8 17/254/8 5/255/8
f 5/255/8 8/256/8 23/249/8
f 49/257/3 25/258/3 26/259/3
f 25/258/3 49/257/3 52/260/3
f 25/258/3 52/260/3 54/261/3
f 25/258/3 54/261/3 57/262/3
f 25/258/3 57/262/3 59/263/3
f 25/258/3 59/263/3 60/264/3
f 25/258/3 60/264/3 62/265/3
f 25/258/3 62/265/3 64/266/3
f 64/266/3 28/267/3 25/258/3
f 66/268/3 28/267/3 64/266/3
f 68/269/3 28/267/3 66/268/3
f 70/270/3 28/267/3 68/269/3
f 73/271/3 28/267/3 70/270/3
f 75/272/3 28/267/3 73/271/3
f 77/273/3 28/267/3 75/272/3
f 77/273/3 27/274/3 28/267/3
f 27/274/3 77/273/3 160/275/3
f 129/276/2 37/277/2 155/278/2
f 129/276/2 38/279/2 37/277/2
f 128/280/2 38/279/2 129/276/2
f 131/281/2 38/279/2 128/280/2
f 133/282/2 38/279/2 131/281/2
f 136/283/2 38/279/2 133/282/2
f 138/284/2 38/279/2 136/283/2
f 140/285/2 38/279/2 138/284/2
f 142/286/2 38/279/2 140/285/2
f 144/287/2 38/279/2 142/286/2
f 144/287/2 40/288/2 38/279/2
f 146/289/2 40/288/2 144/287/2
f 147/290/2 40/288/2 146/289/2
f 149/291/2 40/288/2 147/290/2
f 151/292/2 40/288/2 149/291/2
f 51/293/2 40/288/2 151/292/2
f 40/288/2 51/293/2 39/294/2
f 49/295/1 55/116/1 52/113/1
f 55/116/1 49/295/1 50/296/1
f 154/297/4 31/298/4 32/299/4
f 31/298/4 154/297/4 104/300/4
f 31/298/4 104/300/4 105/301/4
f 31/298/4 105/301/4 107/302/4
f 31/298/4 107/302/4 109/303/4
f 31/298/4 109/303/4 110/304/4
f 31/298/4 110/304/4 112/305/4
f 31/298/4 112/305/4 114/306/4
f 114/306/4 34/307/4 31/298/4
f 116/308/4 34/307/4 114/306/4
f 118/309/4 34/307/4 116/308/4
f 120/310/4 34/307/4 118/309/4
f 123/311/4 34/307/4 120/310/4
f 125/312/4 34/307/4 123/311/4
f 127/313/4 34/307/4 125/312/4
f 127/313/4 33/314/4 34/307/4
f 33/314/4 127/313/4 157/315/4
f 77/142/2 159/316/2 160/317/2
f 159/316/2 77/142/2 76/141/2
f 159/318/4 79/145/4 158/319/4
f 79/145/4 159/318/4 76/143/4
f 152/320/3 102/172/3 153/321/3
f 102/172/3 152/320/3 101/171/3
f 102/175/2 154/322/2 153/323/2
f 154/322/2 102/175/2 104/174/2
f 78/324/1 24/325/1 23/326/1
f 24/325/1 78/324/1 81/327/1
f 24/325/1 81/327/1 83/328/1
f 24/325/1 83/328/1 86/329/1
f 24/325/1 86/329/1 21/330/1
f 78/324/1 23/326/1 79/331/1
f 21/330/1 86/329/1 88/332/1
f 21/330/1 88/332/1 90/333/1
f 21/330/1 90/333/1 92/334/1
f 21/330/1 92/334/1 94/335/1
f 21/330/1 94/335/1 96/336/1
f 21/330/1 96/336/1 97/337/1
f 21/330/1 97/337/1 99/338/1
f 21/330/1 99/338/1 101/339/1
f 21/330/1 101/339/1 152/340/1
f 21/330/1 152/340/1 20/341/1
f 23/326/1 158/342/1 79/331/1
f 53/343/4 55/344/4 161/345/4
f 161/345/4 56/346/4 53/343/4
f 161/345/4 58/347/4 56/346/4
f 161/345/4 61/348/4 58/347/4
f 161/345/4 63/349/4 61/348/4
f 161/345/4 65/350/4 63/349/4
f 67/351/4 65/352/4 162/353/4
f 69/354/4 67/351/4 162/353/4
f 71/355/4 69/354/4 162/353/4
f 72/356/4 71/355/4 162/353/4
f 74/357/4 72/356/4 162/353/4
f 162/353/4 76/358/4 74/357/4
f 80/359/2 76/360/2 162/361/2
f 162/361/2 82/362/2 80/359/2
f 162/361/2 84/363/2 82/362/2
f 162/361/2 85/364/2 84/363/2
f 162/361/2 87/365/2 85/364/2
f 162/361/2 89/366/2 87/365/2
f 91/367/2 89/368/2 163/369/2
f 163/369/2 93/370/2 91/367/2
f 163/369/2 95/371/2 93/370/2
f 163/369/2 98/372/2 95/371/2
f 163/369/2 100/373/2 98/372/2
f 163/369/2 102/374/2 100/373/2
f 164/375/3 126/376/3 124/377/3
f 124/377/3 122/378/3 164/375/3
f 122/378/3 121/379/3 164/375/3
f 121/379/3 119/380/3 164/375/3
f 119/380/3 117/381/3 164/375/3
f 117/381/3 115/382/3 164/375/3
f 163/383/3 115/384/3 113/385/3
f 163/383/3 113/385/3 111/386/3
f 163/383/3 111/386/3 108/387/3
f 163/383/3 108/387/3 106/388/3
f 163/383/3 106/388/3 103/389/3
f 103/389/3 102/390/3 163/383/3
f 157/391/1 126/201/1 156/392/1
f 126/201/1 157/391/1 127/202/1
f 161/393/1 55/394/1 150/395/1
f 150/395/1 148/396/1 161/393/1
f 148/396/1 145/397/1 161/393/1
f 145/397/1 143/398/1 161/393/1
f 143/398/1 141/399/1 161/393/1
f 141/399/1 139/400/1 161/393/1
f 164/401/1 139/402/1 137/403/1
f 137/403/1 135/404/1 164/401/1
f 135/404/1 134/405/1 164/401/1
f 134/405/1 132/406/1 164/401/1
f 132/406/1 130/407/1 164/401/1
f 130/407/1 126/408/1 164/401/1
f 51/409/4 55/232/4 50/410/4
f 55/232/4 51/409/4 151/231/4
f 156/411/3 129/205/3 155/412/3
f 129/205/3 156/411/3 126/203/3
f 89/413/5 162/414/5 65/415/5
f 65/415/5 163/416/5 89/413/5
f 65/415/5 115/417/5 163/416/5
f 65/415/5 161/418/5 115/417/5
f 161/418/5 164/419/5 115/417/5
f 161/420/5 139/421/33 164/422/5
