# Blender v2.91.0 OBJ File: 'signal.blend'
# www.blender.org
mtllib signal.mtl
o Cube
v 0.100000 5.000000 0.100000
v 0.100000 -1.000000 0.100000
v -0.100000 5.000000 0.100000
v -0.100000 -1.000000 0.100000
v 0.100000 5.000000 -0.100000
v 0.100000 -1.000000 -0.100000
v -0.100000 5.000000 -0.100000
v -0.100000 -1.000000 -0.100000
v 0.100000 4.557500 0.100000
v -0.100000 4.557500 -0.100000
v -0.100000 4.557500 0.100000
v 0.100000 4.557500 -0.100000
v 0.100000 3.702500 0.100000
v -0.100000 3.702500 0.100000
v 0.100000 3.702500 -0.100000
v -0.100000 3.702500 -0.100000
v 0.100000 4.985000 1.213936
v -0.100000 4.985000 1.213936
v 0.100000 3.275000 1.213936
v -0.100000 3.275000 1.213936
v 0.100000 4.155078 2.713936
v -0.100000 4.155078 2.713936
v 0.100000 4.104921 2.713936
v -0.100000 4.104921 2.713936
v -0.100000 3.788000 1.213936
v -0.100000 4.472000 1.213936
v 0.100000 4.472000 1.213936
v 0.100000 3.788000 1.213936
vt 0.786932 0.645570
vt 0.819015 0.678216
vt 0.819015 0.645570
vt 0.336769 0.989691
vt 0.369416 0.894202
vt 0.336769 0.894202
vt 0.606526 0.989691
vt 0.639172 0.894202
vt 0.606526 0.894202
vt 0.786932 0.592307
vt 0.819015 0.624953
vt 0.819015 0.592307
vt 0.766315 0.495248
vt 0.798962 0.399758
vt 0.766315 0.399758
vt 0.390033 0.989691
vt 0.422679 0.894202
vt 0.390033 0.894202
vt 0.422679 0.801160
vt 0.390033 0.801160
vt 0.173539 0.884897
vt 0.173539 0.754640
vt 0.173539 0.940722
vt 0.639172 0.801160
vt 0.606526 0.801160
vt 0.369416 0.801160
vt 0.336769 0.801160
vt 0.369416 0.010309
vt 0.336770 0.010309
vt 0.639172 0.010309
vt 0.606526 0.010309
vt 0.659789 0.801160
vt 0.692435 0.010309
vt 0.659789 0.010309
vt 0.422679 0.010309
vt 0.390033 0.010309
vt 0.010309 0.850410
vt 0.766315 0.722565
vt 0.798962 0.778390
vt 0.798962 0.722565
vt 0.819578 0.571690
vt 0.786932 0.515865
vt 0.786932 0.571690
vt 0.766315 0.646123
vt 0.766315 0.515865
vt 0.766315 0.701948
vt 0.819578 0.217008
vt 0.825037 0.249654
vt 0.825037 0.217008
vt 0.745699 0.394131
vt 0.713052 0.217008
vt 0.713052 0.394131
vt 0.713052 0.414748
vt 0.745698 0.591871
vt 0.745698 0.414748
vt 0.876283 0.010308
vt 0.713053 0.106079
vt 0.876283 0.196391
vt 0.585909 0.810464
vt 0.713052 0.612488
vt 0.745698 0.774621
vt 0.745698 0.612488
vt 0.798962 0.379141
vt 0.766315 0.217008
vt 0.766315 0.379141
vt 0.786932 0.678216
vt 0.369416 0.989691
vt 0.639172 0.989691
vt 0.786932 0.624953
vt 0.798962 0.495248
vt 0.422679 0.989691
vt 0.173539 0.810464
vt 0.692435 0.801160
vt 0.010309 0.844952
vt 0.766315 0.778390
vt 0.819578 0.515865
vt 0.766315 0.571690
vt 0.819578 0.249654
vt 0.745699 0.217008
vt 0.713052 0.591871
vt 0.713053 0.100621
vt 0.585909 0.884897
vt 0.713052 0.774621
vt 0.798962 0.217008
vn 0.0000 1.0000 0.0000
vn -1.0000 0.0000 0.0000
vn 0.0000 0.0000 -1.0000
vn 0.0000 -1.0000 0.0000
vn 0.0000 0.0000 1.0000
vn 1.0000 0.0000 -0.0000
vn 0.0000 0.8750 0.4841
vn 0.0000 -0.8750 0.4841
vn 0.0000 -0.9971 0.0765
vn 0.0000 0.9971 0.0765
usemtl Material
s off
f 5/1/1 3/2/1 1/3/1
f 3/4/2 10/5/2 11/6/2
f 7/7/3 12/8/3 10/9/3
f 2/10/4 8/11/4 6/12/4
f 1/13/5 11/14/5 9/15/5
f 5/16/6 9/17/6 12/18/6
f 12/18/6 13/19/6 15/20/6
f 26/21/5 20/22/5 18/23/5
f 10/9/3 15/24/3 16/25/3
f 11/6/2 16/26/2 14/27/2
f 14/27/2 8/28/2 4/29/2
f 16/25/3 6/30/3 8/31/3
f 13/32/5 4/33/5 2/34/5
f 15/20/6 2/35/6 6/36/6
f 20/22/2 22/37/2 18/23/2
f 26/38/3 17/39/3 27/40/3
f 28/41/3 20/42/3 25/43/3
f 28/44/6 17/45/6 19/46/6
f 21/47/5 24/48/5 23/49/5
f 18/50/7 21/51/7 17/52/7
f 19/53/8 24/54/8 20/55/8
f 17/56/6 23/57/6 19/58/6
f 9/17/6 28/59/6 13/19/6
f 13/60/9 25/61/9 14/62/9
f 11/63/10 27/64/10 9/65/10
f 14/27/2 26/21/2 11/6/2
f 5/1/1 7/66/1 3/2/1
f 3/4/2 7/67/2 10/5/2
f 7/7/3 5/68/3 12/8/3
f 2/10/4 4/69/4 8/11/4
f 1/13/5 3/70/5 11/14/5
f 5/16/6 1/71/6 9/17/6
f 12/18/6 9/17/6 13/19/6
f 26/21/2 25/72/2 20/22/2
f 10/9/3 12/8/3 15/24/3
f 11/6/2 10/5/2 16/26/2
f 14/27/2 16/26/2 8/28/2
f 16/25/3 15/24/3 6/30/3
f 13/32/5 14/73/5 4/33/5
f 15/20/6 13/19/6 2/35/6
f 20/22/2 24/74/2 22/37/2
f 26/38/3 18/75/3 17/39/3
f 28/41/3 19/76/3 20/42/3
f 28/44/5 27/77/5 17/45/5
f 21/47/5 22/78/5 24/48/5
f 18/50/7 22/79/7 21/51/7
f 19/53/8 23/80/8 24/54/8
f 17/56/6 21/81/6 23/57/6
f 9/17/6 27/82/6 28/59/6
f 13/60/9 28/83/9 25/61/9
f 11/63/10 26/84/10 27/64/10
f 14/27/2 25/72/2 26/21/2
