# Blender v2.92.0 OBJ File: 'quaternius_OGConvert.blend'
# www.blender.org
o DoorSingle_Wall_SideB_Plane.023
v -0.961430 0.000052 0.045566
v -0.755750 0.000052 0.045566
v -0.961430 0.000052 -0.275057
v -0.961431 0.875439 -0.275057
v -0.755750 0.000052 -0.275057
v -0.755750 0.875439 -0.275057
v -0.961431 0.777113 0.045566
v -0.961431 0.852513 -0.090513
v -0.755750 0.852513 -0.090513
v -0.755750 0.777114 0.045566
v -0.961431 1.186023 -0.275057
v -0.755750 1.186023 -0.275057
v -0.755750 1.186023 -0.128405
v -0.755750 1.148131 -0.090513
v -0.961431 1.148131 -0.090513
v -0.961431 1.186023 -0.128405
v -2.000000 0.000000 0.000000
v -2.000000 3.398779 -0.206424
v -2.000000 4.430894 0.255656
v -2.000000 0.853536 -0.206424
v -2.000000 0.741229 0.000000
v -2.000000 3.703513 0.255656
v -2.000000 3.766714 0.255656
v -2.000000 3.859771 0.255656
v -0.846202 4.430894 0.255656
v -0.846202 3.766714 0.255656
v -0.846202 3.859771 0.255656
v -0.846202 3.766714 0.227141
v -0.846202 3.859771 0.227141
v -2.000000 2.901515 -0.206424
v -2.000000 0.120513 0.000000
v -2.000000 0.165472 0.000000
v -2.000000 0.165472 -0.021995
v -2.000000 0.120513 -0.021995
v -2.000000 2.620514 -0.206424
v -0.831724 2.620514 -0.206425
v -0.831724 3.398779 -0.206425
v -0.831724 3.703513 0.255656
v -0.831724 2.901515 -0.206425
v -0.831724 0.120513 0.000000
v -0.831724 0.120513 -0.021995
v -0.831724 0.000000 0.000000
v -0.831724 0.853536 -0.206425
v -0.831724 0.741229 0.000000
v -0.831724 0.165472 0.000000
v -0.831724 0.165472 -0.021995
v -0.549427 2.901515 -0.206425
v -0.549427 3.398779 -0.206425
v -0.549427 3.703513 0.255656
v -2.000000 3.382576 -0.234991
v -2.000000 3.348314 -0.121058
v -2.000000 3.111566 -0.121058
v -2.000000 3.077305 -0.237250
v -2.000000 1.180995 -0.234991
v -2.000000 1.146734 -0.121058
v -2.000000 0.909986 -0.121058
v -2.000000 0.875724 -0.237250
v -0.818843 1.180995 -0.234991
v -0.818843 1.146734 -0.121058
v -0.818843 0.909986 -0.121058
v -0.818843 0.875724 -0.237250
v 0.961430 0.000052 0.045566
v 0.755750 0.000052 0.045566
v 0.961430 0.000052 -0.275057
v 0.961431 0.875439 -0.275057
v 0.755750 0.000052 -0.275057
v 0.755750 0.875439 -0.275057
v 0.961431 0.777113 0.045566
v 0.961431 0.852513 -0.090514
v 0.755750 0.852513 -0.090514
v 0.755750 0.777114 0.045566
v 0.961431 1.186023 -0.275057
v 0.755750 1.186023 -0.275057
v 0.755750 1.186023 -0.128405
v 0.755750 1.148131 -0.090514
v 0.961431 1.148131 -0.090514
v 0.961431 1.186023 -0.128405
v 2.000000 0.000000 -0.000000
v 2.000000 3.398779 -0.206425
v 2.000000 4.430894 0.255655
v 2.000000 0.853536 -0.206425
v 2.000000 0.741229 -0.000000
v 2.000000 3.703513 0.255655
v 2.000000 3.766714 0.255655
v 2.000000 3.859771 0.255655
v 0.846202 4.430894 0.255655
v 0.846202 3.766714 0.255655
v 0.846202 3.859771 0.255655
v 0.846202 3.766714 0.227141
v 0.846202 3.859771 0.227141
v 2.000000 2.901515 -0.206425
v 2.000000 0.120513 -0.000000
v 2.000000 0.165472 -0.000000
v 2.000000 0.165472 -0.021996
v 2.000000 0.120513 -0.021996
v 2.000000 2.620514 -0.206425
v 0.831724 2.620514 -0.206425
v 0.831724 3.398779 -0.206425
v 0.831724 3.703513 0.255655
v 0.831724 2.901515 -0.206425
v 0.831724 0.120513 -0.000000
v 0.831724 0.120513 -0.021995
v 0.831724 0.000000 -0.000000
v 0.831724 0.853536 -0.206425
v 0.831724 0.741229 -0.000000
v 0.831724 0.165472 -0.000000
v 0.831724 0.165472 -0.021995
v 0.549427 2.901515 -0.206425
v 0.549427 3.398779 -0.206425
v 0.549427 3.703513 0.255655
v -0.000000 2.901515 -0.206425
v -0.000000 3.398779 -0.206425
v 0.000000 3.703513 0.255655
v 0.000000 3.766714 0.227141
v 0.000000 4.430894 0.255655
v 0.000000 3.859771 0.255655
v 0.000000 3.766714 0.255655
v 0.000000 3.859771 0.227141
v -0.000000 3.077305 -0.237250
v -0.000000 3.111566 -0.121058
v -0.000000 3.348314 -0.121058
v -0.000000 3.382576 -0.234991
v 2.000000 3.382576 -0.234991
v 2.000000 3.348314 -0.121058
v 2.000000 3.111566 -0.121058
v 2.000000 3.077305 -0.237251
v 2.000000 1.180995 -0.234991
v 2.000000 1.146734 -0.121058
v 2.000000 0.909986 -0.121058
v 2.000000 0.875724 -0.237251
v 0.818843 1.180995 -0.234991
v 0.818843 1.146734 -0.121058
v 0.818843 0.909986 -0.121058
v 0.818843 0.875724 -0.237250
v 0.576394 3.503825 -0.060920
v -0.577631 3.503825 -0.060920
v -0.577631 3.610366 0.100633
v 0.576394 3.610366 0.100632
v 0.576394 3.473571 -0.040968
v -0.577631 3.473571 -0.040968
v -0.577631 3.580112 0.120584
v 0.576394 3.580112 0.120584
v 0.523965 3.495031 -0.008428
v -0.525202 3.495031 -0.008428
v -0.525202 3.559463 0.089274
v 0.523965 3.559463 0.089274
v 0.492157 3.519044 0.006625
v -0.493394 3.519044 0.006625
v -0.493394 3.557718 0.065267
v 0.492157 3.557718 0.065267
vt 0.772157 0.666920
vt 0.805955 0.510799
vt 0.830877 0.524608
vt 0.384034 0.745645
vt 0.421703 0.887941
vt 0.384034 0.887941
vt 0.961147 0.734477
vt 0.988535 0.772146
vt 0.961147 0.772146
vt 0.805955 0.831761
vt 0.772158 0.835960
vt 0.772158 0.675641
vt 0.772157 0.449720
vt 0.799015 0.449720
vt 0.805955 0.456660
vt 0.839598 0.732521
vt 0.877266 0.675641
vt 0.877266 0.732521
vt 0.961147 0.725757
vt 0.987318 0.688088
vt 0.987318 0.725757
vt 0.772158 0.892840
vt 0.805955 0.885901
vt 0.799015 0.892840
vt 0.995640 0.725757
vt 0.809826 0.901561
vt 0.772157 0.955695
vt 0.772157 0.901561
vt 0.839598 0.892840
vt 0.600796 0.215668
vt 0.583755 0.004360
vt 0.600796 0.004360
vt 0.918822 0.789807
vt 0.924044 0.806849
vt 0.918822 0.806849
vt 0.621091 0.218319
vt 0.711362 0.004360
vt 0.711362 0.218319
vt 0.583755 0.215668
vt 0.479170 0.004360
vt 0.095420 0.370642
vt 0.004360 0.270020
vt 0.095420 0.270020
vt 0.479170 0.370642
vt 0.583755 0.370642
vt 0.947338 0.159335
vt 0.964379 0.004360
vt 0.964379 0.159335
vt 0.952426 0.796673
vt 0.947338 0.951647
vt 0.947338 0.796673
vt 0.612370 0.218319
vt 0.612370 0.270020
vt 0.947338 0.478004
vt 0.952528 0.323030
vt 0.952528 0.478004
vt 0.293571 0.959604
vt 0.335032 0.745645
vt 0.335032 0.959604
vt 0.470450 0.004360
vt 0.146878 0.218319
vt 0.146878 0.004360
vt 0.095420 0.004360
vt 0.671035 0.959604
vt 0.662802 0.745645
vt 0.671035 0.745645
vt 0.745225 0.959604
vt 0.749229 0.745645
vt 0.749229 0.959604
vt 0.772157 0.004360
vt 0.877591 0.218319
vt 0.772157 0.218319
vt 0.095420 0.218319
vt 0.004360 0.004360
vt 0.621091 0.270020
vt 0.711362 0.270020
vt 0.621091 0.370642
vt 0.711362 0.370642
vt 0.004360 0.218319
vt 0.029282 0.806724
vt 0.063080 0.802525
vt 0.063080 0.962844
vt 0.468092 0.745645
vt 0.430424 0.887941
vt 0.430424 0.745645
vt 0.988535 0.780867
vt 0.961147 0.818535
vt 0.961147 0.780867
vt 0.071800 0.962844
vt 0.071800 0.802525
vt 0.105598 0.806724
vt 0.029282 0.752584
vt 0.063080 0.745644
vt 0.877266 0.666920
vt 0.839597 0.610039
vt 0.877266 0.610039
vt 0.969469 0.679367
vt 0.995640 0.641699
vt 0.995640 0.679367
vt 0.071800 0.745644
vt 0.098658 0.745644
vt 0.105598 0.752584
vt 0.961147 0.679367
vt 0.969469 0.641699
vt 0.818547 0.901561
vt 0.856215 0.955695
vt 0.818547 0.955695
vt 0.839598 0.449720
vt 0.583755 0.736924
vt 0.600796 0.525616
vt 0.600796 0.736924
vt 0.918822 0.832613
vt 0.924044 0.815570
vt 0.924044 0.832613
vt 0.711362 0.736924
vt 0.621091 0.522965
vt 0.711362 0.522965
vt 0.479170 0.736924
vt 0.583755 0.525616
vt 0.004360 0.471265
vt 0.095420 0.471265
vt 0.964379 0.314309
vt 0.947338 0.641699
vt 0.612370 0.471265
vt 0.612370 0.522965
vt 0.952528 0.632978
vt 0.284850 0.745645
vt 0.243389 0.959604
vt 0.243389 0.745645
vt 0.470450 0.736924
vt 0.146878 0.522965
vt 0.470450 0.522965
vt 0.095420 0.736924
vt 0.146878 0.736924
vt 0.679756 0.959604
vt 0.687989 0.745645
vt 0.687989 0.959604
vt 0.736504 0.959604
vt 0.732501 0.745645
vt 0.736504 0.745645
vt 0.877591 0.227040
vt 0.772158 0.440999
vt 0.772158 0.227040
vt 0.004360 0.736924
vt 0.095420 0.522965
vt 0.621091 0.471265
vt 0.711362 0.471265
vt 0.004360 0.522965
vt 0.830877 0.666920
vt 0.772157 0.506601
vt 0.421703 0.745645
vt 0.988535 0.734477
vt 0.830877 0.675641
vt 0.830877 0.817952
vt 0.839598 0.675640
vt 0.961147 0.688088
vt 0.995640 0.688088
vt 0.809826 0.955695
vt 0.877266 0.892840
vt 0.924044 0.789807
vt 0.621091 0.004360
vt 0.479170 0.215668
vt 0.004360 0.370642
vt 0.947338 0.004360
vt 0.952426 0.951647
vt 0.612370 0.370642
vt 0.600796 0.370642
vt 0.612370 0.004360
vt 0.947338 0.323030
vt 0.293571 0.745645
vt 0.470450 0.218320
vt 0.662802 0.959604
vt 0.745225 0.745645
vt 0.877591 0.004360
vt 0.004360 0.962844
vt 0.004360 0.820533
vt 0.468092 0.887941
vt 0.988535 0.818535
vt 0.130520 0.820533
vt 0.130520 0.962844
vt 0.036222 0.745644
vt 0.839597 0.666920
vt 0.961147 0.641699
vt 0.856215 0.901561
vt 0.877266 0.449720
vt 0.918822 0.815570
vt 0.621091 0.736924
vt 0.479170 0.525616
vt 0.947338 0.314309
vt 0.952426 0.641699
vt 0.612370 0.736924
vt 0.947338 0.632978
vt 0.284850 0.959604
vt 0.679755 0.745645
vt 0.732501 0.959604
vt 0.877591 0.440999
vt 0.916875 0.736924
vt 0.938617 0.370642
vt 0.938617 0.736924
vt 0.763437 0.004360
vt 0.720083 0.370642
vt 0.720083 0.004360
vt 0.886312 0.736924
vt 0.908154 0.370642
vt 0.908154 0.736924
vt 0.479171 0.745645
vt 0.501013 0.961963
vt 0.479171 0.961963
vt 0.182594 0.745645
vt 0.139240 0.961963
vt 0.139240 0.745645
vt 0.601875 0.961963
vt 0.623618 0.745645
vt 0.623618 0.961963
vt 0.916875 0.004360
vt 0.938617 0.004360
vt 0.763437 0.736924
vt 0.720083 0.736924
vt 0.886312 0.004360
vt 0.908154 0.004360
vt 0.531576 0.961963
vt 0.509734 0.745645
vt 0.531576 0.745645
vt 0.191315 0.745645
vt 0.234668 0.961963
vt 0.191315 0.961963
vt 0.654081 0.961963
vt 0.632339 0.745645
vt 0.654081 0.745645
vt 0.916875 0.370642
vt 0.763437 0.370642
vt 0.886312 0.370642
vt 0.501013 0.745645
vt 0.182594 0.961963
vt 0.601875 0.745645
vt 0.509734 0.961963
vt 0.234668 0.745645
vt 0.632339 0.961963
vt 0.353335 0.761072
vt 0.364792 0.941566
vt 0.353335 0.941566
vt 0.364792 0.761072
vt 0.384034 0.896662
vt 0.421703 0.955022
vt 0.384034 0.955022
vt 0.886312 0.959604
vt 0.890237 0.745645
vt 0.890237 0.959604
vt 0.540297 0.745645
vt 0.562365 0.959604
vt 0.540297 0.959604
vt 0.430424 0.955022
vt 0.468092 0.896662
vt 0.468092 0.955022
vt 0.902883 0.959604
vt 0.898958 0.745644
vt 0.902883 0.745644
vt 0.571086 0.959604
vt 0.593155 0.745645
vt 0.593155 0.959604
vt 0.375314 0.956994
vt 0.369197 0.755246
vt 0.375314 0.745645
vt 0.864936 0.901561
vt 0.871573 0.937002
vt 0.864936 0.937002
vt 0.925459 0.781086
vt 0.918822 0.745644
vt 0.925459 0.745644
vt 0.711362 0.956994
vt 0.705822 0.745644
vt 0.711362 0.745644
vt 0.763437 0.956994
vt 0.757949 0.745644
vt 0.763437 0.745644
vt 0.350110 0.755246
vt 0.350110 0.947392
vt 0.369197 0.947392
vt 0.343753 0.745645
vt 0.343753 0.956994
vt 0.934180 0.745645
vt 0.938617 0.931965
vt 0.934180 0.937790
vt 0.421703 0.896662
vt 0.886312 0.745645
vt 0.562365 0.745645
vt 0.430424 0.896662
vt 0.898958 0.959604
vt 0.571086 0.745645
vt 0.871573 0.901561
vt 0.918822 0.781086
vt 0.705822 0.956994
vt 0.757949 0.956994
vt 0.938617 0.751470
vn 1.0000 0.0000 0.0000
vn 0.0000 -0.0000 1.0000
vn -0.0000 0.8747 0.4847
vn -1.0000 -0.0000 0.0000
vn -0.0000 0.0000 -1.0000
vn 0.0000 1.0000 0.0000
vn 0.0000 0.7071 0.7071
vn 0.0000 -0.8348 0.5505
vn 0.0000 -1.0000 0.0000
vn 0.0000 0.8784 0.4779
vn 0.0000 0.9576 0.2880
vn 0.0000 -0.9592 0.2828
vn 0.0000 -0.8348 0.5506
vn -0.0000 -0.5505 -0.8348
vn 0.0000 0.5505 0.8348
vn -0.3468 -0.7830 0.5164
vn 0.0000 -0.5311 0.8473
vn 0.0000 -0.9974 0.0725
vn 0.3468 -0.7830 0.5164
s off
f 5/1/1 9/2/1 10/3/1
f 1/4/2 10/5/2 7/6/2
f 10/7/3 8/8/3 7/9/3
f 8/10/4 4/11/4 3/12/4
f 12/13/1 13/14/1 14/15/1
f 4/16/5 12/17/5 6/18/5
f 12/19/6 16/20/6 13/21/6
f 11/22/4 15/23/4 16/24/4
f 16/20/7 14/25/7 13/21/7
f 9/26/2 15/27/2 8/28/2
f 6/18/5 3/29/5 4/16/5
f 26/30/2 24/31/2 23/32/2
f 26/33/1 29/34/1 27/35/1
f 38/36/8 18/37/8 37/38/8
f 27/39/2 19/40/2 24/31/2
f 111/41/2 48/42/2 47/43/2
f 115/44/2 27/39/2 116/45/2
f 118/46/2 28/47/2 114/48/2
f 114/49/6 26/50/6 117/51/6
f 26/30/2 38/52/2 49/53/2
f 116/54/9 29/55/9 118/56/9
f 21/57/10 43/58/10 20/59/10
f 20/60/2 36/61/2 35/62/2
f 36/61/2 30/63/2 35/62/2
f 41/64/2 33/65/2 34/66/2
f 33/67/9 45/68/9 32/69/9
f 45/70/2 21/71/2 32/72/2
f 39/73/2 18/74/2 30/63/2
f 49/75/8 37/38/8 48/76/8
f 113/77/8 48/76/8 112/78/8
f 36/61/2 47/43/2 39/73/2
f 47/43/2 37/79/2 39/73/2
f 70/80/4 67/81/4 66/82/4
f 71/83/2 62/84/2 68/85/2
f 69/86/3 71/87/3 68/88/3
f 64/89/1 65/90/1 69/91/1
f 75/92/4 73/93/4 67/81/4
f 73/94/5 65/95/5 67/96/5
f 74/97/6 72/98/6 73/99/6
f 72/100/1 77/101/1 76/102/1
f 75/103/7 77/104/7 74/97/7
f 76/105/2 70/106/2 69/107/2
f 64/108/5 67/96/5 65/95/5
f 85/109/2 87/110/2 84/111/2
f 90/112/4 87/113/4 88/114/4
f 79/115/8 99/116/8 98/117/8
f 80/118/2 88/119/2 85/109/2
f 109/120/2 111/41/2 108/121/2
f 88/119/2 115/44/2 116/45/2
f 89/122/2 118/46/2 114/48/2
f 87/123/6 114/49/6 117/51/6
f 110/124/2 99/125/2 87/110/2
f 90/126/9 116/54/9 118/56/9
f 81/127/10 105/128/10 82/129/10
f 81/130/2 97/131/2 104/132/2
f 91/133/2 97/131/2 96/134/2
f 94/135/2 102/136/2 95/137/2
f 106/138/9 94/139/9 93/140/9
f 82/141/2 106/142/2 93/143/2
f 79/144/2 100/145/2 91/133/2
f 98/117/8 110/146/8 109/147/8
f 109/147/8 113/77/8 112/78/8
f 97/131/2 100/145/2 108/121/2
f 98/148/2 108/121/2 100/145/2
f 10/3/1 2/149/1 5/1/1
f 5/1/1 6/150/1 9/2/1
f 1/4/2 2/151/2 10/5/2
f 10/7/3 9/152/3 8/8/3
f 1/153/4 7/154/4 3/12/4
f 7/154/4 8/10/4 3/12/4
f 14/15/1 9/2/1 6/150/1
f 6/150/1 12/13/1 14/15/1
f 4/16/5 11/155/5 12/17/5
f 12/19/6 11/156/6 16/20/6
f 11/22/4 4/11/4 15/23/4
f 4/11/4 8/10/4 15/23/4
f 16/20/7 15/157/7 14/25/7
f 9/26/2 14/158/2 15/27/2
f 6/18/5 5/159/5 3/29/5
f 26/30/2 27/39/2 24/31/2
f 26/33/1 28/160/1 29/34/1
f 38/36/8 22/161/8 18/37/8
f 27/39/2 25/162/2 19/40/2
f 111/41/2 112/163/2 48/42/2
f 115/44/2 25/162/2 27/39/2
f 118/46/2 29/164/2 28/47/2
f 114/49/6 28/165/6 26/50/6
f 49/53/2 113/166/2 117/167/2
f 26/30/2 23/32/2 22/168/2
f 49/53/2 117/167/2 26/30/2
f 26/30/2 22/168/2 38/52/2
f 116/54/9 27/169/9 29/55/9
f 21/57/10 44/170/10 43/58/10
f 20/60/2 43/171/2 36/61/2
f 36/61/2 39/73/2 30/63/2
f 41/64/2 46/172/2 33/65/2
f 33/67/9 46/173/9 45/68/9
f 45/70/2 44/174/2 21/71/2
f 39/73/2 37/79/2 18/74/2
f 49/75/8 38/36/8 37/38/8
f 113/77/8 49/75/8 48/76/8
f 47/43/2 48/42/2 37/79/2
f 66/82/4 63/175/4 71/176/4
f 71/176/4 70/80/4 66/82/4
f 71/83/2 63/177/2 62/84/2
f 69/86/3 70/178/3 71/87/3
f 69/91/1 68/179/1 64/89/1
f 68/179/1 62/180/1 64/89/1
f 67/81/4 70/80/4 75/92/4
f 75/92/4 74/181/4 73/93/4
f 73/94/5 72/182/5 65/95/5
f 74/97/6 77/104/6 72/98/6
f 69/91/1 65/90/1 76/102/1
f 65/90/1 72/100/1 76/102/1
f 75/103/7 76/183/7 77/104/7
f 76/105/2 75/184/2 70/106/2
f 64/108/5 66/185/5 67/96/5
f 85/109/2 88/119/2 87/110/2
f 90/112/4 89/186/4 87/113/4
f 79/115/8 83/187/8 99/116/8
f 80/118/2 86/188/2 88/119/2
f 109/120/2 112/163/2 111/41/2
f 88/119/2 86/188/2 115/44/2
f 89/122/2 90/189/2 118/46/2
f 87/123/6 89/190/6 114/49/6
f 117/167/2 113/166/2 110/124/2
f 99/125/2 83/191/2 87/110/2
f 83/191/2 84/111/2 87/110/2
f 117/167/2 110/124/2 87/110/2
f 90/126/9 88/192/9 116/54/9
f 81/127/10 104/193/10 105/128/10
f 81/130/2 96/134/2 97/131/2
f 91/133/2 100/145/2 97/131/2
f 94/135/2 107/194/2 102/136/2
f 106/138/9 107/195/9 94/139/9
f 82/141/2 105/196/2 106/142/2
f 79/144/2 98/148/2 100/145/2
f 98/117/8 99/116/8 110/146/8
f 109/147/8 110/146/8 113/77/8
f 98/148/2 109/120/2 108/121/2
f 51/197/11 122/198/11 50/199/11
f 52/200/2 121/201/2 51/202/2
f 53/203/12 120/204/12 52/205/12
f 56/206/12 61/207/12 60/208/12
f 56/209/2 59/210/2 55/211/2
f 55/212/11 58/213/11 54/214/11
f 122/198/11 124/215/11 123/216/11
f 121/201/2 125/217/2 124/218/2
f 120/204/12 126/219/12 125/220/12
f 133/221/12 130/222/12 129/223/12
f 132/224/2 129/225/2 128/226/2
f 131/227/11 128/228/11 127/229/11
f 51/197/11 121/230/11 122/198/11
f 52/200/2 120/231/2 121/201/2
f 53/203/12 119/232/12 120/204/12
f 56/206/12 57/233/12 61/207/12
f 56/209/2 60/234/2 59/210/2
f 55/212/11 59/235/11 58/213/11
f 122/198/11 121/230/11 124/215/11
f 121/201/2 120/231/2 125/217/2
f 120/204/12 119/232/12 126/219/12
f 133/221/12 134/236/12 130/222/12
f 132/224/2 133/237/2 129/225/2
f 131/227/11 132/238/11 128/228/11
f 147/239/8 149/240/8 148/241/8
f 147/239/8 150/242/8 149/240/8
f 3/243/9 2/244/9 1/245/9
f 41/246/6 31/247/6 40/248/6
f 42/249/2 31/250/2 17/251/2
f 63/252/9 64/253/9 62/254/9
f 92/255/6 102/256/6 101/257/6
f 92/258/2 103/259/2 78/260/2
f 141/261/13 146/262/13 142/263/13
f 136/264/4 141/265/4 137/266/4
f 138/267/1 139/268/1 135/269/1
f 135/270/14 140/271/14 136/272/14
f 137/273/15 142/274/15 138/275/15
f 146/262/16 147/239/16 143/276/16
f 141/261/8 144/277/8 145/278/8
f 142/263/8 143/276/8 139/279/8
f 139/279/8 144/277/8 140/280/8
f 143/281/17 148/282/17 144/283/17
f 146/262/18 149/240/18 150/242/18
f 145/278/19 148/241/19 149/240/19
f 3/243/9 5/284/9 2/244/9
f 41/246/6 34/285/6 31/247/6
f 42/249/2 40/286/2 31/250/2
f 63/252/9 66/287/9 64/253/9
f 92/255/6 95/288/6 102/256/6
f 92/258/2 101/289/2 103/259/2
f 141/261/8 145/278/8 146/262/8
f 136/264/4 140/290/4 141/265/4
f 138/267/1 142/291/1 139/268/1
f 135/270/14 139/292/14 140/271/14
f 137/273/15 141/293/15 142/274/15
f 146/262/16 150/242/16 147/239/16
f 141/261/8 140/280/8 144/277/8
f 142/263/8 146/262/8 143/276/8
f 139/279/8 143/276/8 144/277/8
f 143/281/17 147/294/17 148/282/17
f 146/262/18 145/278/18 149/240/18
f 145/278/19 144/277/19 148/241/19
