# Blender v2.92.0 OBJ File: 'kenney_OGConvert.blend'
# www.blender.org
o fence_large
v 0.570000 0.265000 0.570000
v 0.585000 0.250000 0.570000
v 0.570000 0.250000 0.570000
v 0.600000 0.265000 0.570000
v 0.600000 -0.000000 0.570000
v 0.585000 -0.000000 0.570000
v 0.570000 -0.000000 0.570000
v -0.570000 0.250000 0.570000
v -0.570000 -0.000000 0.570000
v -0.585000 0.250000 0.570000
v -0.600000 0.265000 0.570000
v -0.585000 -0.000000 0.570000
v -0.600000 -0.000000 0.570000
v -0.570000 0.265000 0.570000
v -0.570000 -0.000000 0.585000
v 0.570000 -0.000000 0.585000
v 0.570000 0.000000 -0.600000
v 0.570000 -0.000000 0.600000
v 0.585000 0.000000 -0.600000
v 0.600000 -0.000000 0.600000
v -0.600000 -0.000000 0.600000
v -0.570000 -0.000000 0.600000
v -0.570000 0.000000 -0.600000
v -0.585000 0.000000 -0.600000
v -0.600000 0.265000 0.600000
v 0.570000 0.250000 -0.600000
v 0.585000 0.250000 -0.600000
v 0.570000 0.265000 0.600000
v 0.600000 0.265000 0.600000
v 0.570000 0.250000 0.585000
v -0.570000 0.250000 0.585000
v -0.570000 0.250000 -0.600000
v -0.585000 0.250000 -0.600000
v -0.570000 0.265000 0.600000
vt 0.033257 0.634672
vt 0.026836 0.628251
vt 0.033257 0.628251
vt 0.020415 0.634672
vt 0.020415 0.521238
vt 0.026836 0.521238
vt 0.508396 0.996377
vt 0.615409 0.508396
vt 0.615409 0.996377
vt 0.508396 0.508396
vt 0.044726 0.628251
vt 0.051147 0.634672
vt 0.038306 0.628251
vt 0.044726 0.521238
vt 0.051147 0.521238
vt 0.038306 0.634672
vt 0.015366 0.509768
vt 0.503347 0.503347
vt 0.503347 0.509768
vt 0.015366 0.503347
vt 0.997476 0.002524
vt 0.997476 0.509768
vt 0.997476 0.503347
vt 0.204369 0.521238
vt 0.204369 0.521238
vt 0.204369 0.521238
vt 0.963066 0.002524
vt 0.956645 0.516189
vt 0.956646 0.002524
vt 0.963066 0.503347
vt 0.969487 0.503347
vt 0.969487 0.516189
vt 0.002524 0.516189
vt 0.015366 0.516189
vt 0.008945 0.503347
vt 0.015366 0.002524
vt 0.002524 0.503347
vt 0.008945 0.002524
vt 0.056196 0.634672
vt 0.069038 0.521238
vt 0.069038 0.634672
vt 0.056196 0.521238
vt 0.145649 0.521238
vt 0.152070 0.628251
vt 0.145649 0.628251
vt 0.152070 0.521238
vt 0.168588 0.521238
vt 0.181430 0.534079
vt 0.168588 0.534079
vt 0.181430 0.521238
vt 0.086928 0.521238
vt 0.080507 0.628251
vt 0.080507 0.521238
vt 0.086928 0.634672
vt 0.074087 0.634672
vt 0.074087 0.628251
vt 0.508396 0.002524
vt 0.615409 0.503347
vt 0.508396 0.503347
vt 0.615410 0.002524
vt 0.974536 0.002524
vt 0.980957 0.503347
vt 0.974536 0.503347
vt 0.980957 0.002524
vt 0.738942 0.508396
vt 0.732521 0.996377
vt 0.732521 0.508396
vt 0.738942 0.996377
vt 0.986006 0.002524
vt 0.992427 0.503347
vt 0.986006 0.503347
vt 0.992427 0.002524
vt 0.091977 0.634672
vt 0.104819 0.521238
vt 0.104819 0.634672
vt 0.091977 0.521238
vt 0.199320 0.521238
vt 0.186479 0.534079
vt 0.186479 0.521238
vt 0.199320 0.534079
vt 0.002524 0.521238
vt 0.015366 0.634672
vt 0.002524 0.634672
vt 0.015366 0.521238
vt 0.109868 0.634672
vt 0.122709 0.521238
vt 0.122709 0.634672
vt 0.109868 0.521238
vt 0.727472 0.503347
vt 0.620458 0.002524
vt 0.727472 0.002524
vt 0.620458 0.503347
vt 0.839534 0.503347
vt 0.732521 0.002524
vt 0.839534 0.002524
vt 0.732521 0.503347
vt 0.951597 0.503347
vt 0.844583 0.002524
vt 0.951597 0.002524
vt 0.844583 0.503347
vt 0.127758 0.634672
vt 0.140600 0.628251
vt 0.140600 0.634672
vt 0.134179 0.628251
vt 0.134179 0.521238
vt 0.127758 0.521238
vt 0.727472 0.508396
vt 0.620458 0.996377
vt 0.620458 0.508396
vt 0.727472 0.996377
vt 0.157118 0.521238
vt 0.163539 0.628251
vt 0.157118 0.628251
vt 0.163539 0.521238
vn -0.0000 0.0000 -1.0000
vn -0.0000 -1.0000 -0.0000
vn -0.5685 -0.6703 -0.4770
vn -1.0000 0.0000 0.0000
vn 0.0000 1.0000 0.0000
vn 0.0000 0.0000 1.0000
vn 1.0000 0.0000 0.0000
s 1
f 1/1/1 2/2/1 3/3/1
f 4/4/1 2/2/1 1/1/1
f 5/5/1 2/2/1 4/4/1
f 2/2/1 5/5/1 6/6/1
f 7/7/1 8/8/1 3/9/1
f 8/8/1 7/7/1 9/10/1
f 10/11/1 11/12/1 8/13/1
f 12/14/1 11/12/1 10/11/1
f 11/12/1 12/14/1 13/15/1
f 8/13/1 11/12/1 14/16/1
f 15/17/2 7/18/3 16/19/2
f 7/18/3 15/17/2 9/20/2
f 17/21/2 16/22/2 7/23/3
f 17/24/2 18/25/2 16/26/2
f 19/27/2 18/28/2 17/29/2
f 6/30/2 18/28/2 19/27/2
f 5/31/2 18/28/2 6/30/2
f 18/28/2 5/31/2 20/32/2
f 15/17/2 21/33/2 9/20/2
f 21/33/2 15/17/2 22/34/2
f 9/20/2 21/33/2 12/35/2
f 9/20/2 12/35/2 23/36/2
f 12/35/2 21/33/2 13/37/2
f 24/38/2 23/36/2 12/35/2
f 21/39/4 11/40/4 13/41/4
f 11/40/4 21/39/4 25/42/4
f 26/43/1 19/44/1 17/45/1
f 19/44/1 26/43/1 27/46/1
f 4/47/5 28/48/5 29/49/5
f 28/48/5 4/47/5 1/50/5
f 18/51/4 30/52/4 16/53/4
f 28/54/4 30/52/4 18/51/4
f 1/55/4 30/52/4 28/54/4
f 30/52/4 1/55/4 3/56/4
f 26/57/4 7/58/4 3/59/4
f 7/58/4 26/57/4 17/60/4
f 27/61/5 3/62/5 2/63/5
f 3/62/5 27/61/5 26/64/5
f 3/65/5 31/66/5 30/67/5
f 31/66/5 3/65/5 8/68/5
f 32/69/5 10/70/5 8/71/5
f 10/70/5 32/69/5 33/72/5
f 22/73/6 25/74/6 21/75/6
f 25/74/6 22/73/6 34/76/6
f 11/77/5 34/78/5 14/79/5
f 34/78/5 11/77/5 25/80/5
f 29/81/6 18/82/6 20/83/6
f 18/82/6 29/81/6 28/84/6
f 29/85/7 5/86/7 4/87/7
f 5/86/7 29/85/7 20/88/7
f 2/89/7 19/90/7 27/91/7
f 19/90/7 2/89/7 6/92/7
f 12/93/4 33/94/4 24/95/4
f 33/94/4 12/93/4 10/96/4
f 8/97/7 23/98/7 32/99/7
f 23/98/7 8/97/7 9/100/7
f 34/101/7 8/102/7 14/103/7
f 8/102/7 34/101/7 31/104/7
f 31/104/7 34/101/7 15/105/7
f 15/105/7 34/101/7 22/106/7
f 30/107/6 15/108/6 16/109/6
f 15/108/6 30/107/6 31/110/6
f 33/111/1 23/112/1 24/113/1
f 23/112/1 33/111/1 32/114/1
