# Blender v2.92.0 OBJ File: 'kenney_OGConvert.blend'
# www.blender.org
o path_tilesShort
v -0.070000 0.000000 -0.100000
v 0.070000 0.005000 -0.100000
v 0.070000 0.000000 -0.100000
v -0.070000 0.005000 -0.100000
v -0.070000 0.010000 -0.095000
v 0.070000 0.005000 -0.095000
v -0.070000 0.005000 -0.095000
v 0.070000 0.010000 -0.095000
v -0.070000 -0.000000 0.100000
v -0.070000 0.005000 -0.005000
v -0.070000 0.005000 0.005000
v -0.070000 0.010000 0.005000
v -0.070000 0.005000 0.095000
v -0.070000 0.005000 0.100000
v -0.070000 0.010000 0.095000
v -0.070000 0.010000 -0.005000
v 0.070000 0.010000 -0.005000
v 0.070000 0.005000 -0.005000
v 0.070000 -0.000000 0.100000
v 0.070000 0.005000 0.005000
v 0.070000 0.005000 0.095000
v 0.070000 0.010000 0.095000
v 0.070000 0.010000 0.005000
v 0.070000 0.005000 0.100000
vt 0.936302 0.487778
vt 0.953460 0.968222
vt 0.936302 0.968222
vt 0.953460 0.487778
vt 0.975508 0.002444
vt 0.958349 0.482889
vt 0.958349 0.002444
vt 0.975508 0.482889
vt 0.892206 0.688794
vt 0.875048 0.002444
vt 0.892206 0.002444
vt 0.875048 0.019603
vt 0.875048 0.328460
vt 0.857889 0.019603
vt 0.875048 0.362778
vt 0.857889 0.362778
vt 0.875048 0.671635
vt 0.875048 0.688794
vt 0.857889 0.671635
vt 0.857889 0.328460
vt 0.931413 0.328460
vt 0.914254 0.019603
vt 0.931413 0.019603
vt 0.914254 0.328460
vt 0.897095 0.688794
vt 0.897095 0.002444
vt 0.914254 0.002444
vt 0.914254 0.362778
vt 0.914254 0.671635
vt 0.931413 0.671635
vt 0.931413 0.362778
vt 0.914254 0.688794
vt 0.853000 0.002444
vt 0.835841 0.482889
vt 0.835841 0.002444
vt 0.853000 0.482889
vt 0.796635 0.482889
vt 0.487778 0.002444
vt 0.796635 0.002444
vt 0.487778 0.482889
vt 0.818682 0.968222
vt 0.801524 0.487778
vt 0.818682 0.487778
vt 0.801524 0.968222
vt 0.975508 0.487778
vt 0.958349 0.968222
vt 0.958349 0.487778
vt 0.975508 0.968222
vt 0.796635 0.968222
vt 0.487778 0.487778
vt 0.796635 0.487778
vt 0.487778 0.968222
vt 0.801524 0.002444
vt 0.801524 0.482889
vt 0.936302 0.482889
vt 0.953460 0.002444
vt 0.953460 0.482889
vt 0.936302 0.002444
vt 0.853000 0.968222
vt 0.835841 0.487778
vt 0.853000 0.487778
vt 0.835841 0.968222
vt 0.997555 0.002444
vt 0.980397 0.482889
vt 0.980397 0.002444
vt 0.997555 0.482889
vt 0.002444 0.688794
vt 0.482889 0.002444
vt 0.482889 0.688794
vt 0.002444 0.002444
vn -0.0000 0.0000 -1.0000
vn -1.0000 0.0000 0.0000
vn 1.0000 0.0000 -0.0000
vn 0.0000 -0.0000 1.0000
vn 0.0000 1.0000 0.0000
vn -0.0000 -1.0000 -0.0000
s 1
f 1/1/1 2/2/1 3/3/1
f 2/2/1 1/1/1 4/4/1
f 5/5/1 6/6/1 7/7/1
f 6/6/1 5/5/1 8/8/1
f 9/9/2 4/10/2 1/11/2
f 4/10/2 9/9/2 7/12/2
f 7/12/2 9/9/2 10/13/2
f 7/12/2 10/13/2 5/14/2
f 10/13/2 9/9/2 11/15/2
f 11/15/2 9/9/2 12/16/2
f 12/16/2 9/9/2 13/17/2
f 13/17/2 9/9/2 14/18/2
f 15/19/2 12/16/2 13/17/2
f 16/20/2 5/14/2 10/13/2
f 17/21/3 6/22/3 8/23/3
f 18/24/3 6/22/3 17/21/3
f 19/25/3 6/22/3 18/24/3
f 3/26/3 6/22/3 19/25/3
f 6/22/3 3/26/3 2/27/3
f 19/25/3 18/24/3 20/28/3
f 19/25/3 20/28/3 21/29/3
f 21/29/3 20/28/3 22/30/3
f 22/30/3 20/28/3 23/31/3
f 19/25/3 21/29/3 24/32/3
f 17/33/4 10/34/4 18/35/4
f 10/34/4 17/33/4 16/36/4
f 12/37/5 22/38/5 23/39/5
f 22/38/5 12/37/5 15/40/5
f 4/41/5 6/42/5 2/43/5
f 6/42/5 4/41/5 7/44/5
f 22/45/4 13/46/4 21/47/4
f 13/46/4 22/45/4 15/48/4
f 5/49/5 17/50/5 8/51/5
f 17/50/5 5/49/5 16/52/5
f 10/34/5 20/53/5 18/35/5
f 20/53/5 10/34/5 11/54/5
f 24/55/4 9/56/4 19/57/4
f 9/56/4 24/55/4 14/58/4
f 13/59/5 24/60/5 21/61/5
f 24/60/5 13/59/5 14/62/5
f 12/63/1 20/64/1 11/65/1
f 20/64/1 12/63/1 23/66/1
f 9/67/6 3/68/6 19/69/6
f 3/68/6 9/67/6 1/70/6
