# Blender v2.92.0 OBJ File: 'OGConvert.blend'
# www.blender.org
o balconyLadder_bottom
v -1.656853 -0.000000 1.134981
v 4.000000 5.753674 -0.334982
v -1.656853 0.000000 -0.334982
v 4.000000 5.753674 1.134981
v -4.000000 -0.000000 1.134981
v -4.000000 2.246326 -1.134981
v -4.000000 0.000000 -1.134981
v -4.000000 2.246326 1.134981
v 4.000000 0.000000 0.000000
v 4.000000 2.246326 -1.134981
v 4.000000 0.000000 -1.134981
v 4.000000 2.246326 1.134981
v 4.000000 -0.000000 1.134981
v 0.000000 0.000000 0.000000
v 0.000000 -0.000000 1.134981
vt 0.549752 0.690145
vt 0.725585 0.001905
vt 0.725585 0.690145
vt 0.549752 0.001905
vt 0.818452 0.965482
vt 0.549752 0.693955
vt 0.818452 0.693955
vt 0.549752 0.965482
vt 0.998095 0.137669
vt 0.729395 0.001905
vt 0.998095 0.001905
vt 0.729395 0.273432
vt 0.998095 0.273432
vt 0.273432 0.958845
vt 0.137669 0.001905
vt 0.273432 0.001905
vt 0.137669 0.480375
vt 0.001905 0.480375
vt 0.001905 0.678564
vt 0.001905 0.958845
vt 0.545942 0.001905
vt 0.277242 0.958845
vt 0.277242 0.001905
vt 0.545942 0.958845
vn -0.7131 0.7011 0.0000
vn -1.0000 0.0000 0.0000
vn 0.0000 1.0000 0.0000
vn 0.0000 0.0000 -1.0000
s 1
f 1/1/1 2/2/1 3/3/1
f 2/2/1 1/1/1 4/4/1
f 5/5/2 6/6/2 7/7/2
f 6/6/2 5/5/2 8/8/2
f 9/9/2 10/10/2 11/11/2
f 10/10/2 9/9/2 12/12/2
f 12/12/2 9/9/2 13/13/2
f 7/14/3 9/15/3 11/16/3
f 9/15/3 7/14/3 14/17/3
f 14/17/3 7/14/3 15/18/3
f 15/18/3 7/14/3 1/19/3
f 1/19/3 7/14/3 5/20/3
f 6/21/4 11/22/4 7/23/4
f 11/22/4 6/21/4 10/24/4
