# Blender v2.92.0 OBJ File: 'kenney_OGConvert.blend'
# www.blender.org
o roadDirt_tile
v -0.250000 0.050000 -0.250000
v 0.250000 0.050000 0.250000
v 0.250000 0.050000 -0.250000
v -0.250000 0.050000 0.250000
v -0.250000 -0.000000 0.250000
v 0.250000 0.000000 -0.250000
v 0.250000 -0.000000 0.250000
v -0.250000 0.000000 -0.250000
vt 0.498378 0.001622
vt 0.001622 0.498378
vt 0.001622 0.001622
vt 0.498378 0.498378
vt 0.001622 0.998378
vt 0.498378 0.501622
vt 0.498378 0.998378
vt 0.001622 0.501622
vt 0.657136 0.001622
vt 0.607461 0.498378
vt 0.607461 0.001622
vt 0.657136 0.498378
vt 0.551297 0.498378
vt 0.501622 0.001622
vt 0.551298 0.001622
vt 0.501622 0.498378
vt 0.710056 0.001622
vt 0.660380 0.498378
vt 0.660380 0.001622
vt 0.710056 0.498378
vt 0.604217 0.498378
vt 0.554541 0.001622
vt 0.604217 0.001622
vt 0.554541 0.498378
vn 0.0000 1.0000 0.0000
vn -0.0000 -1.0000 -0.0000
vn -0.0000 0.0000 -1.0000
vn -1.0000 0.0000 0.0000
vn 0.0000 -0.0000 1.0000
vn 1.0000 0.0000 -0.0000
s 1
f 1/1/1 2/2/1 3/3/1
f 2/2/1 1/1/1 4/4/1
f 5/5/2 6/6/2 7/7/2
f 6/6/2 5/5/2 8/8/2
f 1/9/3 6/10/3 8/11/3
f 6/10/3 1/9/3 3/12/3
f 5/13/4 1/14/4 8/15/4
f 1/14/4 5/13/4 4/16/4
f 2/17/5 5/18/5 7/19/5
f 5/18/5 2/17/5 4/20/5
f 2/21/6 6/22/6 3/23/6
f 6/22/6 2/21/6 7/24/6
