# Blender v2.92.0 OBJ File: 'kenney_OGConvert.blend'
# www.blender.org
o wall_typeA
v 0.500000 0.400000 0.035000
v 0.500000 0.000000 -0.035000
v 0.500000 0.400000 -0.035000
v 0.500000 -0.000000 0.035000
v -0.500000 0.400000 -0.035000
v -0.500000 0.000000 -0.035000
v -0.500000 -0.000000 0.035000
v -0.500000 0.400000 0.035000
vt 0.930059 0.389929
vt 0.997936 0.002064
vt 0.997936 0.389929
vt 0.930059 0.002064
vt 0.389929 0.002064
vt 0.002064 0.971725
vt 0.002064 0.002064
vt 0.389929 0.971725
vt 0.781922 0.002064
vt 0.394057 0.971725
vt 0.394057 0.002064
vt 0.781922 0.971725
vt 0.930059 0.781921
vt 0.997936 0.394057
vt 0.997936 0.781921
vt 0.930059 0.394057
vt 0.853926 0.971725
vt 0.786050 0.002064
vt 0.853926 0.002064
vt 0.786050 0.971725
vt 0.858055 0.002064
vt 0.925931 0.971725
vt 0.858055 0.971725
vt 0.925931 0.002064
vn 1.0000 0.0000 0.0000
vn -0.0000 0.0000 -1.0000
vn 0.0000 -0.0000 1.0000
vn -1.0000 0.0000 0.0000
vn 0.0000 1.0000 0.0000
vn -0.0000 -1.0000 -0.0000
s 1
f 1/1/1 2/2/1 3/3/1
f 2/2/1 1/1/1 4/4/1
f 5/5/2 2/6/2 6/7/2
f 2/6/2 5/5/2 3/8/2
f 1/9/3 7/10/3 4/11/3
f 7/10/3 1/9/3 8/12/3
f 7/13/4 5/14/4 6/15/4
f 5/14/4 7/13/4 8/16/4
f 5/17/5 1/18/5 3/19/5
f 1/18/5 5/17/5 8/20/5
f 7/21/6 2/22/6 4/23/6
f 2/22/6 7/21/6 6/24/6
