# Blender v2.92.0 OBJ File: 'kenney_OGConvert.blend'
# www.blender.org
o wallA_cornerPainted
v -0.000000 1.000000 -0.500000
v 0.500000 0.000000 -0.500000
v -0.000000 0.000000 -0.500000
v 0.500000 1.000000 -0.500000
v 0.500000 1.000000 0.500000
v -0.500000 -0.000000 0.500000
v 0.500000 -0.000000 0.500000
v -0.500000 1.000000 0.500000
v -0.500000 1.000000 0.000000
v -0.500000 0.000000 0.000000
v 0.000000 0.000000 0.000000
v 0.000000 1.000000 0.000000
vt 0.668615 0.500000
vt 0.833333 0.829437
vt 0.668615 0.829437
vt 0.833333 0.500000
vt 0.500000 0.001948
vt 0.829437 0.331385
vt 0.500000 0.331385
vt 0.829437 0.001948
vt 0.833333 0.331385
vt 0.998052 0.001948
vt 0.998052 0.331385
vt 0.833333 0.001948
vt 0.664718 0.829437
vt 0.335282 0.500000
vt 0.664718 0.500000
vt 0.335282 0.829437
vt 0.166667 0.001948
vt 0.331385 0.331385
vt 0.166667 0.331385
vt 0.331385 0.001948
vt 0.001948 0.166667
vt 0.331385 0.166667
vt 0.001948 0.331385
vt 0.496103 0.496103
vt 0.496103 0.166667
vt 0.166667 0.496103
vt 0.166667 0.500000
vt 0.001948 0.829437
vt 0.001948 0.500000
vt 0.166667 0.664718
vt 0.331385 0.829437
vt 0.331385 0.664718
vn -0.0000 0.0000 -1.0000
vn 0.0000 -0.0000 1.0000
vn -1.0000 -0.0000 0.0000
vn 1.0000 0.0000 -0.0000
vn -0.0000 -1.0000 -0.0000
vn 0.0000 1.0000 0.0000
s 1
f 1/1/1 2/2/1 3/3/1
f 2/2/1 1/1/1 4/4/1
f 5/5/2 6/6/2 7/7/2
f 6/6/2 5/5/2 8/8/2
f 6/9/3 9/10/3 10/11/3
f 9/10/3 6/9/3 8/12/3
f 5/13/4 2/14/4 4/15/4
f 2/14/4 5/13/4 7/16/4
f 9/17/1 11/18/1 10/19/1
f 11/18/1 9/17/1 12/20/1
f 11/18/3 1/21/3 3/22/3
f 1/21/3 11/18/3 12/23/3
f 7/24/5 11/18/5 2/25/5
f 11/18/5 7/24/5 6/26/5
f 11/18/5 6/26/5 10/19/5
f 3/22/5 2/25/5 11/18/5
f 1/27/6 5/28/6 4/29/6
f 5/28/6 1/27/6 12/30/6
f 5/28/6 12/30/6 8/31/6
f 8/31/6 12/30/6 9/32/6
