# Blender v2.92.0 OBJ File: 'kenney_OGConvert.blend'
# www.blender.org
o wallB_garage
v -0.500000 1.000000 -0.500000
v -0.350000 0.000000 -0.500000
v -0.500000 0.000000 -0.500000
v -0.350000 0.670000 -0.500000
v 0.350000 0.670000 -0.500000
v 0.500000 1.000000 -0.500000
v 0.500000 0.000000 -0.500000
v 0.350000 0.000000 -0.500000
v 0.500000 1.000000 0.500000
v -0.500000 -0.000000 0.500000
v 0.500000 -0.000000 0.500000
v -0.500000 1.000000 0.500000
v -0.350000 0.670000 -0.400000
v 0.350000 0.670000 -0.400000
v -0.350000 0.000000 -0.400000
v 0.350000 0.000000 -0.400000
vt 0.002452 0.002452
vt 0.051717 0.330881
vt 0.002452 0.330881
vt 0.051717 0.110834
vt 0.281617 0.110834
vt 0.330881 0.002452
vt 0.330881 0.330881
vt 0.281617 0.330881
vt 0.002452 0.335786
vt 0.330881 0.664214
vt 0.002452 0.664214
vt 0.330881 0.335786
vt 0.664214 0.330881
vt 0.335786 0.002452
vt 0.664214 0.002452
vt 0.335786 0.330881
vt 0.664214 0.664214
vt 0.335786 0.335786
vt 0.664214 0.335786
vt 0.335786 0.664214
vt 0.669119 0.570590
vt 0.701962 0.800490
vt 0.669119 0.800490
vt 0.701962 0.570590
vt 0.706867 0.790637
vt 0.739709 0.570590
vt 0.739709 0.790637
vt 0.706867 0.570590
vt 0.744614 0.790637
vt 0.777457 0.570590
vt 0.777457 0.790637
vt 0.744614 0.570590
vt 0.330881 0.669119
vt 0.002452 0.997548
vt 0.002452 0.669119
vt 0.330881 0.997548
vt 0.669119 0.330881
vt 0.997548 0.002452
vt 0.997548 0.330881
vt 0.948283 0.035295
vt 0.718383 0.035295
vt 0.718383 0.002452
vt 0.669119 0.002452
vt 0.948283 0.002452
vt 0.889166 0.335786
vt 0.669119 0.565686
vt 0.669119 0.335786
vt 0.889166 0.565686
vn -0.0000 0.0000 -1.0000
vn 0.0000 -0.0000 1.0000
vn -1.0000 0.0000 0.0000
vn 1.0000 0.0000 -0.0000
vn 0.0000 -1.0000 0.0000
vn 0.0000 1.0000 0.0000
s 1
f 1/1/1 2/2/1 3/3/1
f 2/2/1 1/1/1 4/4/1
f 4/4/1 1/1/1 5/5/1
f 6/6/1 5/5/1 1/1/1
f 7/7/1 5/5/1 6/6/1
f 5/5/1 7/7/1 8/8/1
f 9/9/2 10/10/2 11/11/2
f 10/10/2 9/9/2 12/12/2
f 10/13/3 1/14/3 3/15/3
f 1/14/3 10/13/3 12/16/3
f 9/17/4 7/18/4 6/19/4
f 7/18/4 9/17/4 11/20/4
f 13/21/5 5/22/5 14/23/5
f 5/22/5 13/21/5 4/24/5
f 13/25/4 2/26/4 4/27/4
f 2/26/4 13/25/4 15/28/4
f 16/29/3 5/30/3 8/31/3
f 5/30/3 16/29/3 14/32/3
f 1/33/6 9/34/6 6/35/6
f 9/34/6 1/33/6 12/36/6
f 10/37/5 7/38/5 11/39/5
f 7/38/5 10/37/5 16/40/5
f 16/40/5 10/37/5 15/41/5
f 15/41/5 10/37/5 2/42/5
f 2/42/5 10/37/5 3/43/5
f 8/44/5 7/38/5 16/40/5
f 13/45/1 16/46/1 15/47/1
f 16/46/1 13/45/1 14/48/1
