# Blender v2.92.0 OBJ File: 'kenney_OGConvert.blend'
# www.blender.org
o windowWide_typeA
v -0.246572 0.545470 0.000000
v 0.246572 0.052324 -0.000000
v -0.246572 0.052324 0.000000
v 0.246572 0.545470 -0.000000
v -0.246572 0.325059 -0.025000
v -0.246572 0.545470 -0.025000
v -0.246572 0.272735 -0.025000
v -0.246572 0.052324 -0.025000
v 0.246572 0.272735 -0.025000
v 0.246572 0.052324 -0.025000
v 0.246572 0.325059 -0.025000
v 0.246572 0.545470 -0.025000
v -0.298897 0.000000 -0.025000
v 0.298897 0.000000 -0.025000
v -0.298897 0.597794 -0.025000
v 0.298897 0.597794 -0.025000
v 0.298897 0.597794 0.025000
v 0.298897 -0.000000 0.025000
v -0.298897 -0.000000 0.025000
v -0.298897 0.597794 0.025000
vt 0.549599 0.002025
vt 0.997975 0.450401
vt 0.549599 0.450401
vt 0.997975 0.002025
vt 0.747639 0.902827
vt 0.770369 0.702426
vt 0.770369 0.902827
vt 0.770369 0.654851
vt 0.770369 0.454450
vt 0.747639 0.454450
vt 0.774418 0.902827
vt 0.797149 0.702426
vt 0.797149 0.902827
vt 0.797149 0.654851
vt 0.797149 0.454450
vt 0.774418 0.454450
vt 0.823928 0.902827
vt 0.801198 0.454450
vt 0.823928 0.454450
vt 0.801198 0.902827
vt 0.827977 0.454450
vt 0.850708 0.902827
vt 0.827977 0.902827
vt 0.850708 0.454450
vt 0.002024 0.545550
vt 0.049599 0.497975
vt 0.545549 0.545550
vt 0.002025 0.002025
vt 0.049599 0.297574
vt 0.049599 0.250000
vt 0.049599 0.049599
vt 0.497975 0.049599
vt 0.497975 0.497975
vt 0.545550 0.002025
vt 0.497975 0.297574
vt 0.497975 0.250000
vt 0.549599 0.997975
vt 0.595060 0.454450
vt 0.595060 0.997975
vt 0.549599 0.454450
vt 0.648619 0.454450
vt 0.694080 0.997975
vt 0.648619 0.997975
vt 0.694080 0.454450
vt 0.743590 0.997975
vt 0.698129 0.454450
vt 0.743590 0.454450
vt 0.698129 0.997975
vt 0.599109 0.997975
vt 0.644570 0.454450
vt 0.644570 0.997975
vt 0.599109 0.454450
vn -0.0000 0.0000 -1.0000
vn 1.0000 -0.0000 0.0000
vn -1.0000 0.0000 0.0000
vn 0.0000 1.0000 0.0000
vn 0.0000 -1.0000 0.0000
s 1
f 1/1/1 2/2/1 3/3/1
f 2/2/1 1/1/1 4/4/1
f 1/5/2 5/6/2 6/7/2
f 5/6/2 1/5/2 7/8/2
f 7/8/2 1/5/2 8/9/2
f 8/9/2 1/5/2 3/10/2
f 2/11/3 9/12/3 10/13/3
f 9/12/3 2/11/3 11/14/3
f 11/14/3 2/11/3 12/15/3
f 12/15/3 2/11/3 4/16/3
f 8/17/4 2/18/4 10/19/4
f 2/18/4 8/17/4 3/20/4
f 1/21/5 12/22/5 4/23/5
f 12/22/5 1/21/5 6/24/5
f 13/25/1 8/26/1 14/27/1
f 8/26/1 13/25/1 15/28/1
f 8/26/1 15/28/1 7/29/1
f 7/29/1 15/28/1 5/30/1
f 5/30/1 15/28/1 6/31/1
f 6/31/1 15/28/1 12/32/1
f 10/33/1 14/27/1 8/26/1
f 14/27/1 10/33/1 16/34/1
f 16/34/1 12/32/1 15/28/1
f 16/34/1 10/33/1 9/35/1
f 5/30/1 9/35/1 7/29/1
f 16/34/1 9/35/1 11/36/1
f 16/34/1 11/36/1 12/32/1
f 9/35/1 5/30/1 11/36/1
f 17/37/2 14/38/2 16/39/2
f 14/38/2 17/37/2 18/40/2
f 19/41/5 14/42/5 18/43/5
f 14/42/5 19/41/5 13/44/5
f 15/45/4 17/46/4 16/47/4
f 17/46/4 15/45/4 20/48/4
f 19/49/3 15/50/3 13/51/3
f 15/50/3 19/49/3 20/52/3
