# Blender v2.92.0 OBJ File: 'quaternius_OGConvert.blend'
# www.blender.org
o Triangle_Cylinder.001
v 0.026929 0.534466 -0.006744
v 0.026929 0.534466 0.006702
v 0.005326 0.534466 0.006702
v 0.005326 0.534466 -0.006744
v 0.026929 0.411931 0.077448
v 0.026929 0.400286 0.070724
v 0.005326 0.400286 0.070724
v 0.005326 0.411931 0.077448
v 0.026929 0.400286 -0.070767
v 0.026929 0.411931 -0.077490
v 0.005326 0.411931 -0.077490
v 0.005326 0.400286 -0.070767
v 0.026929 0.514766 0.005154
v 0.026929 0.514766 -0.005197
v 0.026929 0.411476 0.054438
v 0.026929 0.420440 0.059614
v 0.026929 0.420440 -0.059656
v 0.026929 0.411476 -0.054480
v 0.020002 0.514766 0.005154
v 0.020002 0.514766 -0.005197
v 0.020002 0.411476 0.054438
v 0.020002 0.420440 0.059614
v 0.020002 0.420440 -0.059656
v 0.020002 0.411476 -0.054480
v -0.007605 0.000039 0.000000
v -0.007605 0.470810 0.000000
v -0.002350 0.000039 -0.007233
v -0.002350 0.470810 -0.007233
v 0.006153 0.000039 -0.004470
v 0.006153 0.470810 -0.004470
v 0.006153 0.000039 0.004470
v 0.006153 0.470810 0.004470
v -0.002350 0.000039 0.007233
v -0.002350 0.470810 0.007233
vt 0.592761 0.998079
vt 0.577456 0.001921
vt 0.592761 0.001921
vt 0.685610 0.867543
vt 0.667618 0.001921
vt 0.685610 0.004844
vt 0.663777 0.998079
vt 0.644859 0.001921
vt 0.663777 0.001921
vt 0.473406 0.339458
vt 0.455414 0.364221
vt 0.444295 0.348917
vt 0.608065 0.998079
vt 0.608065 0.001921
vt 0.641017 0.877001
vt 0.623026 0.017225
vt 0.641018 0.014302
vt 0.623026 0.001921
vt 0.577456 0.998079
vt 0.667618 0.864620
vt 0.644859 0.998079
vt 0.455414 0.333612
vt 0.473406 0.358375
vt 0.623026 0.879924
vt 0.611907 0.009573
vt 0.641018 0.004844
vt 0.201516 0.585988
vt 0.001921 0.448849
vt 0.220485 0.344563
vt 0.220485 0.575037
vt 0.001921 0.470751
vt 0.201516 0.333612
vt 0.285847 0.362065
vt 0.240135 0.511763
vt 0.240135 0.362065
vt 0.548974 0.329771
vt 0.289688 0.180072
vt 0.289688 0.151619
vt 0.335401 0.362065
vt 0.289688 0.511764
vt 0.289688 0.362065
vt 0.339242 0.483310
vt 0.384954 0.333612
vt 0.384954 0.483310
vt 0.339242 0.511763
vt 0.384954 0.511763
vt 0.335401 0.333612
vt 0.285847 0.333612
vt 0.001921 0.016147
vt 0.025599 0.281082
vt 0.001921 0.315544
vt 0.388795 0.333612
vt 0.403454 0.344563
vt 0.388795 0.344563
vt 0.285847 0.151619
vt 0.044567 0.039657
vt 0.026562 0.001921
vt 0.025599 0.050609
vt 0.044567 0.292034
vt 0.026561 0.329771
vt 0.285847 0.180072
vt 0.244163 0.176797
vt 0.244163 0.154894
vt 0.421954 0.575037
vt 0.407295 0.564085
vt 0.421954 0.564085
vt 0.403454 0.575037
vt 0.388795 0.575037
vt 0.407295 0.333612
vt 0.421954 0.333612
vt 0.403454 0.585988
vt 0.388795 0.585988
vt 0.425795 0.333612
vt 0.440453 0.564085
vt 0.425795 0.564085
vt 0.285847 0.511763
vt 0.548974 0.001921
vt 0.573615 0.016147
vt 0.573615 0.315544
vt 0.335401 0.511764
vt 0.339242 0.333612
vt 0.289688 0.333612
vt 0.240135 0.333612
vt 0.403454 0.333612
vt 0.407295 0.575037
vt 0.440453 0.333612
vn -0.8090 0.0000 -0.5878
vn 0.3090 0.0000 -0.9511
vn 1.0000 0.0000 -0.0000
vn 0.0000 1.0000 0.0000
vn -0.8090 0.0000 0.5878
vn 0.3090 0.0000 0.9511
vn 0.0000 -1.0000 0.0000
vn -0.0000 0.5000 -0.8660
vn -1.0000 0.0000 0.0000
vn 0.0000 0.5000 0.8660
vn 0.0000 -0.5000 0.8660
vn 0.0000 -0.5000 -0.8660
s off
f 26/1/1 27/2/1 25/3/1
f 28/4/2 29/5/2 27/6/2
f 30/7/3 31/8/3 29/9/3
f 26/10/4 32/11/4 30/12/4
f 34/13/5 25/3/5 33/14/5
f 32/15/6 33/16/6 31/17/6
f 27/18/7 31/17/7 33/16/7
f 26/1/1 28/19/1 27/2/1
f 28/4/2 30/20/2 29/5/2
f 30/7/3 32/21/3 31/8/3
f 30/12/4 28/22/4 26/10/4
f 26/10/4 34/23/4 32/11/4
f 34/13/5 26/1/5 25/3/5
f 32/15/6 34/24/6 33/16/6
f 33/16/7 25/25/7 27/18/7
f 27/18/7 29/26/7 31/17/7
f 19/27/3 21/28/3 23/29/3
f 23/29/3 20/30/3 19/27/3
f 19/27/3 22/31/3 21/28/3
f 21/28/3 24/32/3 23/29/3
f 11/33/8 1/34/8 10/35/8
f 4/36/9 11/37/9 12/38/9
f 7/39/7 9/40/7 6/41/7
f 3/42/10 5/43/10 2/44/10
f 4/45/4 2/44/4 1/46/4
f 6/41/11 8/47/11 7/39/11
f 10/35/12 12/48/12 11/33/12
f 9/49/3 15/50/3 6/51/3
f 17/52/10 24/53/10 18/54/10
f 1/55/3 17/56/3 10/57/3
f 9/49/3 17/56/3 18/58/3
f 6/51/3 16/59/3 5/60/3
f 2/61/3 16/59/3 13/62/3
f 1/55/3 13/62/3 14/63/3
f 13/64/7 20/65/7 14/66/7
f 18/54/4 21/67/4 15/68/4
f 14/66/11 23/69/11 17/70/11
f 15/68/8 22/71/8 16/72/8
f 16/73/12 19/74/12 13/75/12
f 11/33/8 4/76/8 1/34/8
f 12/38/9 7/77/9 4/36/9
f 7/77/9 8/78/9 4/36/9
f 8/78/9 3/79/9 4/36/9
f 7/39/7 12/80/7 9/40/7
f 3/42/10 8/81/10 5/43/10
f 4/45/4 3/42/4 2/44/4
f 6/41/11 5/82/11 8/47/11
f 10/35/12 9/83/12 12/48/12
f 9/49/3 18/58/3 15/50/3
f 17/52/10 23/84/10 24/53/10
f 1/55/3 14/63/3 17/56/3
f 9/49/3 10/57/3 17/56/3
f 6/51/3 15/50/3 16/59/3
f 2/61/3 5/60/3 16/59/3
f 1/55/3 2/61/3 13/62/3
f 13/64/7 19/85/7 20/65/7
f 18/54/4 24/53/4 21/67/4
f 14/66/11 20/65/11 23/69/11
f 15/68/8 21/67/8 22/71/8
f 16/73/12 22/86/12 19/74/12
