# Blender v2.92.0 OBJ File: 'quaternius_OGConvert.blend'
# www.blender.org
o Fence_Cube.057
v -1.602227 -0.010823 0.065095
v -1.602227 1.086240 0.065095
v -1.602227 -0.010823 -0.065097
v -1.602227 1.086240 -0.065097
v -1.434891 -0.010823 0.065095
v -1.434891 1.086240 0.065095
v -1.434891 -0.010823 -0.065097
v -1.434891 1.086240 -0.065097
v -1.562879 0.350492 0.027777
v -1.562879 0.350492 -0.027779
v -1.562879 0.250189 0.027777
v -1.562879 0.250189 -0.027779
v -1.562879 0.828958 0.027777
v -1.562879 0.828958 -0.027779
v -1.562879 0.701952 0.027777
v -1.562879 0.701952 -0.027779
v 1.674833 -0.010823 0.065097
v 1.674833 1.086240 0.065097
v 1.674833 -0.010823 -0.065095
v 1.674833 1.086240 -0.065095
v 1.507497 -0.010823 0.065097
v 1.507497 1.086240 0.065097
v 1.507497 -0.010823 -0.065095
v 1.507497 1.086240 -0.065095
v 1.671374 0.350492 0.027779
v 0.405324 0.350492 0.039454
v 1.671374 0.350492 -0.027777
v 0.405324 0.350492 -0.039454
v 1.671374 0.250189 0.027779
v 0.405324 0.250189 0.039454
v 1.671374 0.250189 -0.027777
v 0.405324 0.250189 -0.039454
v 1.671374 0.828958 0.027779
v 0.405324 0.828958 0.039454
v 1.671374 0.828958 -0.027777
v 0.405324 0.828958 -0.039454
v 1.671374 0.701952 0.027779
v 0.405324 0.701952 0.039454
v 1.671374 0.701952 -0.027777
v 0.405324 0.701952 -0.039454
v 1.349356 0.828958 0.030114
v 1.261004 0.807070 0.032449
v 1.183382 0.828958 0.034784
v 1.100395 0.828958 0.037119
v 1.100395 0.828958 -0.037118
v 1.183382 0.828958 -0.034783
v 1.261004 0.807070 -0.032448
v 1.349356 0.828958 -0.030113
v 1.109593 0.713594 -0.037118
v 1.183382 0.701952 -0.034783
v 1.266369 0.701952 -0.032448
v 1.349356 0.701952 -0.030113
v 1.109593 0.713594 0.037119
v 1.183382 0.701952 0.034784
v 1.266369 0.701952 0.032449
v 1.349356 0.701952 0.030114
v 0.673800 0.350492 0.030697
v 0.617239 0.331735 0.033616
v 0.560677 0.350492 0.036535
v 0.560677 0.350492 -0.036535
v 0.617239 0.331735 -0.033616
v 0.673800 0.350492 -0.030697
v 0.560677 0.273726 -0.036535
v 0.617239 0.250189 -0.033616
v 0.673800 0.250189 -0.030697
v 0.560677 0.273726 0.036535
v 0.617239 0.250189 0.033616
v 0.673800 0.250189 0.030697
v -0.545750 0.828958 0.029724
v -0.460242 0.828958 0.031670
v -0.374734 0.828958 0.033616
v -0.289226 0.793369 0.035562
v -0.203718 0.828958 0.037508
v -0.203718 0.828958 -0.037508
v -0.289226 0.793369 -0.035562
v -0.374734 0.828958 -0.033616
v -0.460242 0.828958 -0.031670
v -0.545750 0.828958 -0.029724
v -0.203718 0.715297 -0.037508
v -0.289226 0.701952 -0.035562
v -0.374734 0.701952 -0.033616
v -0.460242 0.734574 -0.031670
v -0.545750 0.701952 -0.029724
v -0.203718 0.715297 0.037508
v -0.289226 0.701952 0.035562
v -0.374734 0.701952 0.033616
v -0.460242 0.734574 0.031670
v -0.545750 0.701952 0.029724
v -1.262517 0.350492 0.029112
v -1.262517 0.350492 -0.029113
v -1.262517 0.250189 -0.029113
v -1.262517 0.250189 0.029112
v -1.331291 0.323383 -0.028808
v -1.331291 0.250189 -0.028808
v -1.331291 0.250189 0.028806
v -1.331291 0.323383 0.028806
v -0.681879 1.086240 -0.071412
v -0.681879 -0.010823 -0.071412
v -0.681879 1.086240 0.071410
v -0.681879 -0.010823 0.071410
v -0.849215 1.086240 -0.071412
v -0.849215 -0.010823 -0.071412
v -0.849215 1.086240 0.071410
v -0.849215 -0.010823 0.071410
v 0.071133 1.086240 -0.071412
v 0.071133 -0.010823 -0.071412
v 0.071133 1.086240 0.071410
v 0.071133 -0.010823 0.071410
v -0.096203 1.086240 -0.071412
v -0.096203 -0.010823 -0.071412
v -0.096203 1.086240 0.071410
v -0.096203 -0.010823 0.071410
v 0.824145 1.086240 -0.071412
v 0.824145 -0.010823 -0.071412
v 0.824145 1.086240 0.071410
v 0.824145 -0.010823 0.071410
v 0.656809 1.086240 -0.071412
v 0.656809 -0.010823 -0.071412
v 0.656809 1.086240 0.071410
v 0.656809 -0.010823 0.071410
vt 0.809771 0.685686
vt 0.769873 0.349484
vt 0.809771 0.349484
vt 0.482873 0.340629
vt 0.431593 0.004428
vt 0.482873 0.004428
vt 0.817283 0.340629
vt 0.777385 0.004428
vt 0.817283 0.004428
vt 0.543009 0.340629
vt 0.491729 0.004428
vt 0.543009 0.004428
vt 0.531627 0.805953
vt 0.491729 0.754675
vt 0.531627 0.754675
vt 0.753276 0.694541
vt 0.713378 0.745820
vt 0.713378 0.694541
vt 0.203353 0.607567
vt 0.182341 0.096471
vt 0.200185 0.096471
vt 0.130721 0.607571
vt 0.099983 0.096472
vt 0.130722 0.096472
vt 0.245246 0.392394
vt 0.266259 0.903485
vt 0.248415 0.903485
vt 0.139577 0.392429
vt 0.170316 0.903528
vt 0.139577 0.903528
vt 0.380970 0.785414
vt 0.363944 0.754675
vt 0.380970 0.754675
vt 0.236390 0.607567
vt 0.212805 0.420931
vt 0.235794 0.420931
vt 0.043349 0.607571
vt 0.008518 0.420932
vt 0.043350 0.420932
vt 0.278283 0.392394
vt 0.301869 0.579072
vt 0.278880 0.579072
vt 0.056295 0.579068
vt 0.091127 0.392429
vt 0.091127 0.579068
vt 0.561378 0.793597
vt 0.544352 0.754675
vt 0.561378 0.754675
vt 0.858524 0.349484
vt 0.818626 0.685686
vt 0.818626 0.349484
vt 0.362601 0.004428
vt 0.311320 0.340629
vt 0.311320 0.004428
vt 0.866036 0.004428
vt 0.826138 0.340629
vt 0.826138 0.004428
vt 0.422737 0.004428
vt 0.371456 0.340629
vt 0.371457 0.004428
vt 0.802030 0.745820
vt 0.762132 0.694541
vt 0.802030 0.694541
vt 0.664625 0.745820
vt 0.704523 0.694541
vt 0.704523 0.745820
vt 0.180066 0.655173
vt 0.202459 0.655173
vt 0.107196 0.655184
vt 0.130721 0.655184
vt 0.246140 0.344865
vt 0.269428 0.392394
vt 0.146791 0.344816
vt 0.170316 0.392429
vt 0.337201 0.785414
vt 0.354227 0.754675
vt 0.354227 0.785414
vt 0.212924 0.820565
vt 0.235675 0.820565
vt 0.043350 0.820581
vt 0.004428 0.607571
vt 0.278999 0.176617
vt 0.302465 0.392394
vt 0.091127 0.179419
vt 0.052205 0.392429
vt 0.055773 0.176601
vt 0.311320 0.793597
vt 0.328346 0.754675
vt 0.328346 0.793597
vt 0.091127 0.004428
vt 0.052206 0.103114
vt 0.052206 0.004428
vt 0.084420 0.130193
vt 0.052206 0.128549
vt 0.052205 0.153984
vt 0.091127 0.153984
vt 0.281861 0.004428
vt 0.299602 0.103106
vt 0.281146 0.103106
vt 0.300318 0.128537
vt 0.280430 0.128537
vt 0.301034 0.153967
vt 0.279714 0.153967
vt 0.301749 0.176617
vt 0.004428 0.995572
vt 0.043350 0.896886
vt 0.043350 0.995572
vt 0.004428 0.896886
vt 0.036642 0.869806
vt 0.004428 0.846016
vt 0.043350 0.846016
vt 0.007996 0.823399
vt 0.215786 0.995537
vt 0.233528 0.896857
vt 0.232812 0.995537
vt 0.215071 0.896857
vt 0.234243 0.869717
vt 0.213640 0.845996
vt 0.234959 0.845996
vt 0.170316 0.004428
vt 0.139577 0.310141
vt 0.139577 0.004428
vt 0.164568 0.327479
vt 0.139577 0.327479
vt 0.248824 0.004428
vt 0.266744 0.310123
vt 0.247929 0.310123
vt 0.267639 0.327456
vt 0.247035 0.327456
vt 0.268533 0.344865
vt 0.099983 0.995572
vt 0.130722 0.689859
vt 0.130722 0.995572
vt 0.099983 0.689859
vt 0.124973 0.672521
vt 0.182749 0.995537
vt 0.200669 0.689839
vt 0.199775 0.995537
vt 0.181855 0.689839
vt 0.201564 0.672450
vt 0.180960 0.672450
vt 0.052206 0.683873
vt 0.091127 0.995572
vt 0.052206 0.995572
vt 0.062203 0.657672
vt 0.091127 0.683873
vt 0.091127 0.631471
vt 0.091127 0.657672
vt 0.052205 0.631471
vt 0.080221 0.605270
vt 0.052205 0.605270
vt 0.281265 0.683840
vt 0.298887 0.995528
vt 0.281862 0.995528
vt 0.300080 0.657743
vt 0.299483 0.683840
vt 0.280072 0.631434
vt 0.280669 0.657743
vt 0.279476 0.605231
vt 0.300676 0.631434
vt 0.301272 0.605231
vt 0.043350 0.316127
vt 0.004428 0.004428
vt 0.043350 0.004428
vt 0.014425 0.342328
vt 0.004428 0.316127
vt 0.043350 0.368529
vt 0.043350 0.342328
vt 0.032443 0.394730
vt 0.004428 0.368529
vt 0.004428 0.394730
vt 0.232813 0.004428
vt 0.215191 0.316118
vt 0.215788 0.004428
vt 0.233409 0.316118
vt 0.214594 0.342322
vt 0.234005 0.342322
vt 0.213998 0.368525
vt 0.234602 0.368525
vt 0.213402 0.394622
vt 0.235198 0.394622
vt 0.162008 0.924603
vt 0.139577 0.924603
vt 0.266165 0.924560
vt 0.248509 0.924560
vt 0.122414 0.075397
vt 0.099983 0.075397
vt 0.200091 0.075315
vt 0.182435 0.075315
vt 0.182750 0.004428
vt 0.199776 0.004428
vt 0.099983 0.004428
vt 0.130722 0.004428
vt 0.265850 0.995528
vt 0.248824 0.995528
vt 0.139578 0.995572
vt 0.170316 0.995572
vt 0.595633 0.685686
vt 0.551865 0.349485
vt 0.595633 0.349485
vt 0.595633 0.745819
vt 0.551865 0.694541
vt 0.595633 0.694541
vt 0.603145 0.340629
vt 0.551865 0.004428
vt 0.603145 0.004428
vt 0.431593 0.349485
vt 0.482873 0.685686
vt 0.431593 0.685686
vt 0.655769 0.685686
vt 0.612001 0.349485
vt 0.655769 0.349485
vt 0.475361 0.694541
vt 0.431593 0.745820
vt 0.431593 0.694541
vt 0.708393 0.685686
vt 0.664625 0.349485
vt 0.708393 0.349485
vt 0.648257 0.745819
vt 0.604489 0.694541
vt 0.648257 0.694541
vt 0.422737 0.685686
vt 0.371457 0.349485
vt 0.422737 0.349485
vt 0.491729 0.349485
vt 0.543009 0.685686
vt 0.491729 0.685686
vt 0.715905 0.340629
vt 0.672137 0.004428
vt 0.715905 0.004428
vt 0.415225 0.694541
vt 0.371456 0.745820
vt 0.371456 0.694541
vt 0.761017 0.685686
vt 0.717249 0.349485
vt 0.761017 0.349485
vt 0.535497 0.745819
vt 0.491728 0.694541
vt 0.535497 0.694541
vt 0.663281 0.340629
vt 0.612001 0.004428
vt 0.663281 0.004428
vt 0.362601 0.685686
vt 0.311320 0.349485
vt 0.362601 0.349484
vt 0.768529 0.340629
vt 0.724761 0.004428
vt 0.768529 0.004428
vt 0.355089 0.694541
vt 0.311320 0.745820
vt 0.311320 0.694541
vt 0.769873 0.685686
vt 0.431593 0.340629
vt 0.777385 0.340629
vt 0.491729 0.340629
vt 0.491729 0.805953
vt 0.753276 0.745820
vt 0.179171 0.607567
vt 0.099983 0.607571
vt 0.363944 0.785414
vt 0.212209 0.607567
vt 0.544352 0.793597
vt 0.858524 0.685686
vt 0.362601 0.340629
vt 0.866036 0.340629
vt 0.422737 0.340629
vt 0.762132 0.745820
vt 0.664625 0.694541
vt 0.170316 0.344816
vt 0.337201 0.754675
vt 0.311320 0.754675
vt 0.091127 0.103114
vt 0.298887 0.004428
vt 0.004428 0.871451
vt 0.214355 0.869717
vt 0.170316 0.310141
vt 0.265849 0.004428
vt 0.099983 0.672521
vt 0.551865 0.685686
vt 0.551865 0.745819
vt 0.551865 0.340629
vt 0.482873 0.349484
vt 0.612001 0.685686
vt 0.475361 0.745820
vt 0.664625 0.685686
vt 0.604489 0.745819
vt 0.371456 0.685686
vt 0.543009 0.349484
vt 0.672136 0.340629
vt 0.415225 0.745820
vt 0.717249 0.685686
vt 0.491728 0.745819
vt 0.612001 0.340629
vt 0.311320 0.685686
vt 0.724761 0.340629
vt 0.355089 0.745820
vn -1.0000 0.0000 0.0000
vn 0.0000 0.0000 -1.0000
vn 1.0000 0.0000 0.0000
vn -0.0000 0.0000 1.0000
vn 0.0000 -1.0000 0.0000
vn 0.0000 1.0000 0.0000
vn -0.0062 0.0000 -1.0000
vn -0.0062 0.0000 1.0000
vn -0.0032 0.0000 -1.0000
vn -0.0219 -0.9998 0.0000
vn -0.0032 0.0000 1.0000
vn 0.0188 0.0000 -0.9998
vn 0.1498 -0.9887 0.0000
vn 0.0188 0.0000 0.9998
vn 0.0034 0.0000 -1.0000
vn 0.0165 -0.9999 0.0000
vn 0.0033 0.0003 1.0000
vn 0.0073 0.0000 1.0000
vn 0.0281 0.0014 0.9996
vn 0.0316 -0.0000 0.9995
vn -0.1558 -0.9878 -0.0000
vn 0.0073 0.0000 -1.0000
vn 0.0264 0.0000 -0.9997
vn 0.0301 0.0000 -0.9995
vn 0.0281 0.0022 -0.9996
vn -0.2405 0.9707 0.0000
vn 0.2714 0.9625 0.0000
vn 0.0029 0.0000 1.0000
vn 0.0515 0.0000 0.9987
vn -0.3842 -0.9232 0.0000
vn 0.0029 0.0000 -1.0000
vn 0.0515 0.0000 -0.9987
vn -0.3148 0.9492 0.0000
vn 0.3148 0.9492 0.0000
vn -0.0019 0.0000 1.0000
vn -0.0228 0.0000 0.9997
vn 0.3565 -0.9343 -0.0000
vn -0.3565 -0.9343 -0.0000
vn 0.1542 -0.9880 0.0000
vn -0.0019 0.0000 -1.0000
vn -0.0228 0.0000 -0.9997
vn 0.3842 0.9232 0.0000
vn -0.3842 0.9232 0.0000
vn -0.0044 0.0000 1.0000
vn -0.0044 0.0000 -1.0000
vn -0.3667 0.9303 0.0000
vn 0.1163 0.9932 0.0000
vn 0.0033 0.0003 -1.0000
vn 0.0034 0.0000 1.0000
vn 0.0264 0.0000 0.9997
vn 0.0301 -0.0000 0.9995
vn 0.0281 0.0022 0.9996
vn 0.0281 0.0014 -0.9996
vn 0.0316 0.0000 -0.9995
s off
f 2/1/1 3/2/1 1/3/1
f 4/4/2 7/5/2 3/6/2
f 8/7/3 5/8/3 7/9/3
f 6/10/4 1/11/4 5/12/4
f 7/13/5 1/14/5 3/15/5
f 8/16/6 2/17/6 6/18/6
f 26/19/6 90/20/6 89/21/6
f 28/22/7 91/23/7 90/24/7
f 32/25/5 92/26/5 91/27/5
f 30/28/8 89/29/8 92/30/8
f 12/31/1 9/32/1 10/33/1
f 34/34/6 74/35/6 73/36/6
f 36/37/9 79/38/9 74/39/9
f 40/40/10 84/41/10 79/42/10
f 84/43/11 34/44/11 73/45/11
f 16/46/1 13/47/1 14/48/1
f 19/49/3 18/50/3 17/51/3
f 23/52/2 20/53/2 19/54/2
f 21/55/1 24/56/1 23/57/1
f 17/58/4 22/59/4 21/60/4
f 19/61/5 21/62/5 23/63/5
f 22/64/6 20/65/6 24/66/6
f 60/67/6 26/19/6 59/68/6
f 63/69/12 28/22/12 60/70/12
f 63/71/13 30/72/13 32/25/13
f 66/73/14 26/74/14 30/28/14
f 25/75/3 31/76/3 27/77/3
f 45/78/6 34/34/6 44/79/6
f 45/80/15 40/81/15 36/37/15
f 49/82/16 38/83/16 40/40/16
f 44/84/17 38/85/17 53/86/17
f 33/87/3 39/88/3 35/89/3
f 33/90/18 56/91/18 37/92/18
f 56/91/19 42/93/19 55/94/19
f 42/93/19 54/95/19 55/94/19
f 43/96/20 53/86/20 54/95/20
f 39/97/5 56/98/5 52/99/5
f 52/99/5 55/100/5 51/101/5
f 51/101/5 54/102/5 50/103/5
f 50/103/21 53/104/21 49/82/21
f 39/105/22 48/106/22 35/107/22
f 52/108/23 47/109/23 48/106/23
f 47/109/24 50/110/24 46/111/24
f 46/111/25 49/112/25 45/80/25
f 35/113/6 41/114/6 33/115/6
f 48/116/26 42/117/26 41/114/26
f 42/117/27 46/118/27 43/119/27
f 46/118/6 44/79/6 43/119/6
f 25/120/28 68/121/28 29/122/28
f 68/121/29 58/123/29 67/124/29
f 58/123/29 66/73/29 67/124/29
f 31/125/5 68/126/5 65/127/5
f 65/127/5 67/128/5 64/129/5
f 64/129/30 66/130/30 63/71/30
f 31/131/31 62/132/31 27/133/31
f 65/134/32 61/135/32 62/132/32
f 61/135/32 63/69/32 60/70/32
f 27/136/6 57/137/6 25/138/6
f 62/139/33 58/140/33 57/137/33
f 61/141/34 59/68/34 58/140/34
f 88/142/35 13/143/35 15/144/35
f 87/145/36 69/146/36 88/142/36
f 87/145/36 71/147/36 70/148/36
f 86/149/36 72/150/36 71/147/36
f 84/43/36 72/150/36 85/151/36
f 83/152/5 15/153/5 16/154/5
f 83/152/37 87/155/37 88/156/37
f 81/157/38 87/155/38 82/158/38
f 80/159/5 86/160/5 81/157/5
f 79/42/39 85/161/39 80/159/39
f 78/162/40 16/163/40 14/164/40
f 78/162/41 82/165/41 83/166/41
f 76/167/41 82/165/41 77/168/41
f 75/169/41 81/170/41 76/167/41
f 75/169/41 79/38/41 80/171/41
f 13/172/6 78/173/6 14/174/6
f 69/175/6 77/176/6 78/173/6
f 70/177/6 76/178/6 77/176/6
f 71/179/42 75/180/42 76/178/42
f 72/181/43 74/35/43 75/180/43
f 92/30/44 96/182/44 95/183/44
f 91/27/5 95/184/5 94/185/5
f 93/186/45 91/23/45 94/187/45
f 96/188/46 90/20/46 93/189/46
f 96/188/47 10/190/47 9/191/47
f 93/186/45 12/192/45 10/193/45
f 94/185/5 11/194/5 12/195/5
f 11/196/44 96/182/44 9/197/44
f 97/198/3 100/199/3 98/200/3
f 98/201/5 104/202/5 102/203/5
f 101/204/2 98/205/2 102/206/2
f 99/207/4 104/208/4 100/209/4
f 103/210/1 102/211/1 104/212/1
f 97/213/6 103/214/6 99/215/6
f 105/216/3 108/217/3 106/218/3
f 106/219/5 112/220/5 110/221/5
f 109/222/2 106/223/2 110/224/2
f 107/225/4 112/226/4 108/227/4
f 111/228/1 110/229/1 112/230/1
f 105/231/6 111/232/6 107/233/6
f 113/234/3 116/235/3 114/236/3
f 114/237/5 120/238/5 118/239/5
f 117/240/2 114/241/2 118/242/2
f 115/243/4 120/244/4 116/245/4
f 119/246/1 118/247/1 120/248/1
f 113/249/6 119/250/6 115/251/6
f 2/1/1 4/252/1 3/2/1
f 4/4/2 8/253/2 7/5/2
f 8/7/3 6/254/3 5/8/3
f 6/10/4 2/255/4 1/11/4
f 7/13/5 5/256/5 1/14/5
f 8/16/6 4/257/6 2/17/6
f 26/19/6 28/258/6 90/20/6
f 28/22/7 32/259/7 91/23/7
f 32/25/5 30/72/5 92/26/5
f 30/28/8 26/74/8 89/29/8
f 12/31/1 11/260/1 9/32/1
f 34/34/6 36/261/6 74/35/6
f 36/37/9 40/81/9 79/38/9
f 40/40/10 38/83/10 84/41/10
f 84/43/11 38/85/11 34/44/11
f 16/46/1 15/262/1 13/47/1
f 19/49/3 20/263/3 18/50/3
f 23/52/2 24/264/2 20/53/2
f 21/55/1 22/265/1 24/56/1
f 17/58/4 18/266/4 22/59/4
f 19/61/5 17/267/5 21/62/5
f 22/64/6 18/268/6 20/65/6
f 60/67/6 28/258/6 26/19/6
f 63/69/12 32/259/12 28/22/12
f 63/71/13 66/130/13 30/72/13
f 66/73/14 59/269/14 26/74/14
f 25/75/3 29/270/3 31/76/3
f 45/78/6 36/261/6 34/34/6
f 45/80/48 49/112/48 40/81/48
f 49/82/16 53/104/16 38/83/16
f 44/84/49 34/44/49 38/85/49
f 33/87/3 37/271/3 39/88/3
f 33/90/18 41/272/18 56/91/18
f 56/91/50 41/272/50 42/93/50
f 42/93/51 43/96/51 54/95/51
f 43/96/52 44/84/52 53/86/52
f 39/97/5 37/273/5 56/98/5
f 52/99/5 56/98/5 55/100/5
f 51/101/5 55/100/5 54/102/5
f 50/103/21 54/102/21 53/104/21
f 39/105/22 52/108/22 48/106/22
f 52/108/53 51/274/53 47/109/53
f 47/109/53 51/274/53 50/110/53
f 46/111/54 50/110/54 49/112/54
f 35/113/6 48/116/6 41/114/6
f 48/116/26 47/275/26 42/117/26
f 42/117/27 47/275/27 46/118/27
f 46/118/6 45/78/6 44/79/6
f 25/120/28 57/276/28 68/121/28
f 68/121/29 57/276/29 58/123/29
f 58/123/29 59/269/29 66/73/29
f 31/125/5 29/277/5 68/126/5
f 65/127/5 68/126/5 67/128/5
f 64/129/30 67/128/30 66/130/30
f 31/131/31 65/134/31 62/132/31
f 65/134/32 64/278/32 61/135/32
f 61/135/32 64/278/32 63/69/32
f 27/136/6 62/139/6 57/137/6
f 62/139/33 61/141/33 58/140/33
f 61/141/34 60/67/34 59/68/34
f 88/142/35 69/146/35 13/143/35
f 87/145/36 70/148/36 69/146/36
f 87/145/36 86/149/36 71/147/36
f 86/149/36 85/151/36 72/150/36
f 84/43/36 73/45/36 72/150/36
f 83/152/5 88/156/5 15/153/5
f 83/152/37 82/158/37 87/155/37
f 81/157/38 86/160/38 87/155/38
f 80/159/5 85/161/5 86/160/5
f 79/42/39 84/41/39 85/161/39
f 78/162/40 83/166/40 16/163/40
f 78/162/41 77/168/41 82/165/41
f 76/167/41 81/170/41 82/165/41
f 75/169/41 80/171/41 81/170/41
f 75/169/41 74/39/41 79/38/41
f 13/172/6 69/175/6 78/173/6
f 69/175/6 70/177/6 77/176/6
f 70/177/6 71/179/6 76/178/6
f 71/179/42 72/181/42 75/180/42
f 72/181/43 73/36/43 74/35/43
f 92/30/44 89/29/44 96/182/44
f 91/27/5 92/26/5 95/184/5
f 93/186/45 90/24/45 91/23/45
f 96/188/46 89/21/46 90/20/46
f 96/188/47 93/189/47 10/190/47
f 93/186/45 94/187/45 12/192/45
f 94/185/5 95/184/5 11/194/5
f 11/196/44 95/183/44 96/182/44
f 97/198/3 99/279/3 100/199/3
f 98/201/5 100/280/5 104/202/5
f 101/204/2 97/281/2 98/205/2
f 99/207/4 103/282/4 104/208/4
f 103/210/1 101/283/1 102/211/1
f 97/213/6 101/284/6 103/214/6
f 105/216/3 107/285/3 108/217/3
f 106/219/5 108/286/5 112/220/5
f 109/222/2 105/287/2 106/223/2
f 107/225/4 111/288/4 112/226/4
f 111/228/1 109/289/1 110/229/1
f 105/231/6 109/290/6 111/232/6
f 113/234/3 115/291/3 116/235/3
f 114/237/5 116/292/5 120/238/5
f 117/240/2 113/293/2 114/241/2
f 115/243/4 119/294/4 120/244/4
f 119/246/1 117/295/1 118/247/1
f 113/249/6 117/296/6 119/250/6
