# Blender v2.92.0 OBJ File: 'quaternius_OGConvert.blend'
# www.blender.org
o BushBerries_2_Cube.026
v -0.224985 0.115062 -0.198198
v 0.193651 0.068873 -0.206276
v -0.208218 0.098951 0.202956
v 0.210322 0.085337 0.194573
v 0.178079 0.229448 0.180648
v -0.219548 0.215919 -0.151272
v -0.217961 0.211595 0.205746
v 0.147768 0.467072 0.115938
v -0.168426 0.466568 -0.078309
v -0.167770 0.486271 0.139844
v -0.123041 0.103798 -0.234843
v 0.282094 0.085724 0.122866
v 0.255835 0.064966 -0.135248
v -0.288237 0.120748 -0.114880
v -0.291092 0.109494 0.137565
v -0.104309 0.090039 0.222481
v -0.199417 -0.008028 0.177609
v 0.211146 -0.005523 -0.171892
v -0.211008 -0.004672 -0.161034
v -0.219263 0.184676 -0.187102
v 0.181265 0.171854 -0.190856
v -0.201379 0.162392 0.197735
v 0.207425 0.370834 -0.179407
v -0.220356 0.358735 -0.169989
v -0.229517 0.364638 0.253627
v 0.178115 0.254615 -0.168483
v 0.130179 0.464114 -0.087319
v 0.223452 -0.003242 0.149950
v 0.184132 0.200489 0.156049
v 0.199038 0.331123 0.199832
v 0.093575 0.080355 -0.216932
v 0.110486 0.082434 0.215232
v -0.280300 0.207649 0.137973
v 0.240892 0.233952 0.113129
v -0.278344 0.205818 -0.085132
v 0.224151 0.257608 -0.095183
v -0.121387 0.220546 0.220276
v -0.136441 0.226315 -0.204772
v -0.094794 0.490805 0.146869
v 0.194427 0.445430 0.088751
v 0.186271 0.453297 -0.068891
v -0.103093 0.474616 -0.094426
v -0.217562 0.443536 -0.047651
v -0.212303 0.448744 0.109760
v -0.277374 0.002692 0.121702
v -0.108178 0.002804 0.221557
v -0.125786 0.007294 -0.208815
v -0.275319 0.008040 -0.095950
v 0.273674 0.004195 -0.125293
v 0.281640 0.008900 0.097781
v 0.245996 0.206404 0.102633
v 0.236321 0.175529 -0.122436
v -0.281012 0.186400 -0.107265
v -0.118560 0.182711 -0.207125
v -0.101194 0.160523 0.223057
v -0.278685 0.169032 0.130590
v -0.310177 0.361274 0.174556
v -0.117844 0.363898 0.279899
v 0.253493 0.329755 0.118534
v -0.284761 0.351433 -0.092147
v 0.272342 0.365255 -0.115703
v -0.131595 0.366062 -0.231913
v 0.089888 0.228009 0.212356
v 0.083237 0.247717 -0.189052
v 0.088322 0.497601 0.143697
v 0.071627 0.492143 -0.106897
v 0.095309 -0.005403 -0.185491
v 0.111858 -0.007058 0.179874
v 0.107158 0.178220 0.202188
v 0.088352 0.176346 -0.204994
v 0.105332 0.368683 -0.213815
v 0.101302 0.350241 0.223353
vt 0.658014 0.072144
vt 0.513017 0.094052
vt 0.538466 0.058580
vt 0.679554 0.107768
vt 0.778548 0.154622
vt 0.680635 0.163728
vt 0.765372 0.068023
vt 0.710024 0.001829
vt 0.505354 0.004976
vt 0.617258 0.380453
vt 0.454167 0.427538
vt 0.498186 0.364634
vt 0.477658 0.274956
vt 0.497095 0.142776
vt 0.885444 0.574655
vt 0.850992 0.461702
vt 0.880146 0.458967
vt 0.442532 0.049242
vt 0.406050 0.575627
vt 0.661224 0.475310
vt 0.684901 0.560315
vt 0.390337 0.113014
vt 0.487971 0.320790
vt 0.389826 0.294442
vt 0.409874 0.374237
vt 0.620930 0.431195
vt 0.415585 0.487085
vt 0.450678 0.438945
vt 0.889436 0.642231
vt 0.871689 0.583541
vt 0.196049 0.588323
vt 0.147850 0.464246
vt 0.181079 0.456683
vt 0.180587 0.372121
vt 0.145408 0.425131
vt 0.142228 0.361205
vt 0.139580 0.283167
vt 0.073949 0.124749
vt 0.146139 0.126319
vt 0.179627 0.030786
vt 0.158255 0.071127
vt 0.157909 0.028329
vt 0.199598 0.716142
vt 0.153090 0.829595
vt 0.137975 0.706512
vt 0.866868 0.659215
vt 0.890908 0.716994
vt 0.856251 0.726036
vt 0.060173 0.856916
vt 0.054065 0.707688
vt 0.185090 0.137572
vt 0.185629 0.297463
vt 0.181908 0.073143
vt 0.019691 0.291885
vt 0.003734 0.128414
vt 0.259826 0.053570
vt 0.252490 0.018785
vt 0.822938 0.580045
vt 0.815080 0.658152
vt 0.797818 0.733740
vt 0.724250 0.713897
vt 0.721969 0.640803
vt 0.069414 0.574960
vt 0.137918 0.640102
vt 0.059911 0.636150
vt 0.001829 0.661702
vt 0.002832 0.589851
vt 0.002521 0.841496
vt 0.007284 0.721135
vt 0.806920 0.448104
vt 0.735809 0.571832
vt 0.725255 0.458525
vt 0.996481 0.582077
vt 0.086008 0.287050
vt 0.094459 0.367303
vt 0.100863 0.435234
vt 0.018297 0.428326
vt 0.011330 0.364892
vt 0.289151 0.666239
vt 0.282293 0.735458
vt 0.998171 0.658679
vt 0.997034 0.740796
vt 0.246545 0.845489
vt 0.300169 0.373852
vt 0.298124 0.286994
vt 0.477096 0.857871
vt 0.685456 0.798000
vt 0.643310 0.857870
vt 0.295123 0.441491
vt 0.175268 0.424958
vt 0.278423 0.125471
vt 0.288653 0.449213
vt 0.289151 0.591212
vt 0.142195 0.580917
vt 0.088716 0.445148
vt 0.014156 0.454424
vt 0.066314 0.001829
vt 0.072218 0.050564
vt 0.001829 0.046028
vt 0.667368 0.302893
vt 0.200211 0.652265
vt 0.697265 0.391031
vt 0.632104 0.427538
vt 0.426967 0.809321
vt 0.389826 0.744535
vt 0.359682 0.096374
vt 0.386169 0.138633
vt 0.386169 0.277516
vt 0.173726 0.832958
vt 0.998171 0.431195
vt 0.006394 0.005791
vt 0.641546 0.346534
vt 0.718312 0.727952
vn -0.4322 0.9016 -0.0154
vn -0.1103 0.7286 0.6760
vn -0.4389 0.7976 0.4138
vn -0.8096 0.5870 0.0076
vn 0.7145 0.6996 -0.0021
vn -0.1041 0.9926 -0.0630
vn -0.1370 0.9887 -0.0616
vn -0.9992 -0.0402 -0.0084
vn -0.6092 0.6582 -0.4423
vn 0.0326 -0.9995 -0.0060
vn -0.2377 0.7857 -0.5711
vn 0.5012 0.6406 -0.5817
vn 0.3242 0.7869 -0.5251
vn -0.1180 0.6315 -0.7664
vn 0.1421 -0.9897 0.0158
vn -0.6316 0.6190 -0.4669
vn 0.0634 0.0797 -0.9948
vn -0.6354 -0.3280 0.6991
vn 0.0872 0.1374 0.9867
vn 0.6538 -0.1606 0.7394
vn 0.9837 0.1675 -0.0653
vn -0.1955 -0.0272 -0.9803
vn 0.9760 0.1855 -0.1142
vn 0.0353 0.0581 0.9977
vn 0.5498 -0.4711 0.6898
vn -0.2455 -0.0377 0.9687
vn 0.1580 -0.3607 0.9192
vn 0.8217 -0.1393 0.5527
vn -0.7809 0.1604 -0.6037
vn -0.2864 0.3320 -0.8988
vn -0.4306 -0.3130 -0.8465
vn -0.7761 -0.2678 -0.5709
vn 0.1228 0.1614 -0.9792
vn 0.7444 0.1856 -0.6415
vn 0.7426 -0.1291 -0.6572
vn 0.0605 -0.3425 -0.9376
vn 0.9605 0.2754 -0.0401
vn -0.9790 0.2038 -0.0020
vn -0.9920 -0.1256 -0.0125
vn -0.9990 -0.0444 -0.0084
vn -0.1755 0.0995 0.9794
vn -0.6040 0.1298 0.7864
vn -0.5877 -0.2320 0.7751
vn -0.1849 -0.0022 0.9828
vn 0.6220 -0.4061 -0.6695
vn -0.7409 -0.0649 -0.6685
vn -0.5588 -0.1394 -0.8175
vn 0.9135 -0.4067 0.0119
vn -0.2150 -0.3705 0.9036
vn -0.1182 -0.9927 -0.0255
vn -0.6955 -0.2916 0.6567
vn 0.2420 -0.1093 0.9641
vn 0.1875 -0.2193 0.9575
vn 0.0768 -0.2134 -0.9739
vn 0.0199 0.3303 -0.9437
vn 0.0792 -0.3417 -0.9365
vn 0.1572 0.2260 -0.9614
vn 0.6558 0.3694 0.6584
vn 0.1968 0.1390 0.9705
vn 0.2496 -0.4059 0.8792
vn 0.6862 -0.2436 0.6855
vn 0.4446 0.8944 -0.0491
vn 0.7587 0.1968 -0.6211
vn 0.7262 0.4939 0.4781
vn 0.1312 -0.9913 -0.0143
vn 0.1765 0.9835 0.0399
vn 0.5543 0.4330 0.7108
vn -0.0024 0.4754 0.8798
vn 0.2222 -0.2343 -0.9464
vn -0.6151 0.7854 -0.0691
vn -0.1554 0.7158 0.6808
vn -0.7225 0.6310 0.2824
vn -0.6969 0.7112 -0.0927
vn 0.8662 0.4790 0.1423
vn -0.0374 0.9991 -0.0193
vn -0.0532 0.9946 -0.0897
vn -0.9931 0.1157 0.0182
vn -0.5934 0.6678 -0.4494
vn -0.0019 -1.0000 0.0072
vn -0.4494 0.6943 -0.5621
vn 0.1911 0.7652 -0.6148
vn 0.5062 0.7348 -0.4514
vn 0.0390 0.7803 -0.6242
vn 0.2035 -0.9791 -0.0008
vn -0.6403 0.5764 -0.5077
vn 0.0168 0.2191 -0.9756
vn -0.7220 -0.1590 0.6734
vn 0.0334 -0.0096 0.9994
vn 0.6899 -0.3795 0.6165
vn 0.9777 0.2023 -0.0556
vn -0.4604 0.6673 -0.5855
vn 0.9586 0.2735 -0.0787
vn 0.1119 -0.1614 0.9805
vn 0.3385 -0.0742 0.9381
vn -0.1275 -0.2011 0.9712
vn 0.0333 -0.0121 0.9994
vn 0.7140 -0.2691 0.6463
vn -0.7797 0.1561 -0.6064
vn -0.1890 0.1697 -0.9672
vn -0.3517 -0.2344 -0.9063
vn -0.7165 -0.1946 -0.6699
vn 0.1553 0.1302 -0.9792
vn 0.7570 0.2055 -0.6202
vn 0.5928 0.0423 -0.8042
vn 0.1066 -0.3964 -0.9119
vn 0.9942 0.0279 -0.1034
vn -0.9941 0.1074 0.0176
vn -0.9930 -0.1166 -0.0164
vn -0.9816 -0.1701 -0.0873
vn -0.2450 0.0029 0.9695
vn -0.6291 0.2185 0.7460
vn -0.6228 -0.1926 0.7583
vn -0.3975 -0.2424 0.8850
vn 0.8234 -0.2553 -0.5067
vn -0.7634 -0.0882 -0.6399
vn -0.5277 -0.1133 -0.8418
vn 0.9878 -0.1247 -0.0935
vn -0.1141 -0.3045 0.9457
vn -0.1968 -0.9804 -0.0030
vn -0.6688 -0.2675 0.6936
vn 0.0481 -0.3846 0.9218
vn 0.3377 -0.1156 0.9341
vn 0.0887 -0.1929 -0.9772
vn 0.0955 0.1280 -0.9872
vn 0.0514 -0.2614 -0.9639
vn 0.1861 0.2630 -0.9467
vn 0.6057 0.3044 0.7352
vn 0.3961 0.3711 0.8399
vn 0.1992 -0.3574 0.9124
vn 0.6757 -0.2324 0.6996
vn 0.4373 0.8979 -0.0509
vn 0.8048 0.2911 -0.5173
vn 0.5945 0.5726 0.5645
vn -0.0565 -0.9984 -0.0081
vn -0.0452 -0.9990 -0.0025
vn 0.1252 -0.9920 -0.0155
vn 0.3973 0.9165 -0.0477
vn 0.2961 0.5800 0.7589
vn 0.2216 0.6861 0.6929
vn 0.3180 -0.1679 -0.9331
s off
f 44/1/1 9/2/1 43/3/1
f 10/4/2 58/5/2 39/6/2
f 25/7/3 44/1/3 57/8/3
f 60/9/4 44/1/4 43/3/4
f 40/10/5 61/11/5 41/12/5
f 39/6/6 66/13/6 42/14/6
f 9/2/7 39/6/7 42/14/7
f 35/15/8 56/16/8 33/17/8
f 43/3/9 24/18/9 60/9/9
f 67/19/10 28/20/10 68/21/10
f 62/22/11 9/2/11 42/14/11
f 27/23/12 71/24/12 66/13/12
f 41/12/13 23/25/13 27/23/13
f 71/24/14 42/14/14 66/13/14
f 50/26/15 18/27/15 49/28/15
f 6/29/16 53/30/16 35/15/16
f 64/31/17 54/32/17 38/33/17
f 7/34/18 56/35/18 22/36/18
f 55/37/19 32/38/19 69/39/19
f 34/40/20 29/41/20 51/42/20
f 36/43/21 51/44/21 52/45/21
f 20/46/22 38/47/22 54/48/22
f 52/45/23 12/49/23 13/50/23
f 55/37/24 63/51/24 37/52/24
f 5/53/25 69/39/25 29/41/25
f 37/52/26 22/36/26 55/37/26
f 32/38/27 46/54/27 68/55/27
f 30/56/28 34/40/28 59/57/28
f 14/58/29 20/46/29 1/59/29
f 1/59/30 54/48/30 11/60/30
f 1/59/31 47/61/31 19/62/31
f 19/62/32 14/58/32 1/59/32
f 31/63/33 21/64/33 2/65/33
f 21/64/34 13/50/34 2/65/34
f 13/50/35 18/66/35 2/65/35
f 2/65/36 67/67/36 31/63/36
f 13/50/37 50/68/37 49/69/37
f 56/16/38 14/58/38 15/70/38
f 15/70/39 48/71/39 45/72/39
f 33/17/40 60/73/40 35/15/40
f 16/74/41 22/36/41 3/75/41
f 22/36/42 15/76/42 3/75/42
f 3/75/43 45/77/43 17/78/43
f 3/75/44 46/54/44 16/74/44
f 36/43/45 23/79/45 61/80/45
f 60/73/46 6/29/46 35/15/46
f 38/47/47 24/81/47 62/82/47
f 59/83/48 36/43/48 61/80/48
f 25/84/49 37/52/49 58/85/49
f 48/86/50 17/87/50 45/88/50
f 7/34/51 57/89/51 33/90/51
f 58/85/52 63/51/52 72/91/52
f 72/91/53 5/53/53 30/56/53
f 64/31/54 62/92/54 71/93/54
f 70/94/55 11/95/55 54/32/55
f 47/96/56 31/63/56 67/67/56
f 64/31/57 21/64/57 70/94/57
f 12/97/58 29/41/58 4/98/58
f 4/98/59 69/39/59 32/38/59
f 4/98/60 68/55/60 28/99/60
f 28/99/61 12/97/61 4/98/61
f 65/100/62 27/23/62 66/13/62
f 26/101/63 52/45/63 21/64/63
f 40/10/64 30/102/64 59/103/64
f 17/87/65 19/104/65 47/105/65
f 27/23/66 40/10/66 41/12/66
f 72/91/67 8/106/67 65/107/67
f 39/108/68 72/91/68 65/107/68
f 71/93/69 26/101/69 64/31/69
f 44/1/70 10/4/70 9/2/70
f 10/4/71 25/7/71 58/5/71
f 25/7/72 10/4/72 44/1/72
f 60/9/73 57/8/73 44/1/73
f 40/10/74 59/103/74 61/11/74
f 39/6/75 65/100/75 66/13/75
f 9/2/76 10/4/76 39/6/76
f 35/15/77 53/30/77 56/16/77
f 43/3/78 9/2/78 24/18/78
f 67/19/79 18/27/79 28/20/79
f 62/22/80 24/18/80 9/2/80
f 27/23/81 23/25/81 71/24/81
f 41/12/82 61/11/82 23/25/82
f 71/24/83 62/22/83 42/14/83
f 50/26/84 28/20/84 18/27/84
f 6/29/85 20/46/85 53/30/85
f 64/31/86 70/94/86 54/32/86
f 7/34/87 33/90/87 56/35/87
f 55/37/88 16/74/88 32/38/88
f 34/40/89 5/53/89 29/41/89
f 36/43/90 34/109/90 51/44/90
f 20/46/91 6/29/91 38/47/91
f 52/45/92 51/44/92 12/49/92
f 55/37/93 69/39/93 63/51/93
f 5/53/94 63/51/94 69/39/94
f 37/52/95 7/34/95 22/36/95
f 32/38/96 16/74/96 46/54/96
f 30/56/97 5/53/97 34/40/97
f 14/58/98 53/30/98 20/46/98
f 1/59/99 20/46/99 54/48/99
f 1/59/100 11/60/100 47/61/100
f 19/62/101 48/71/101 14/58/101
f 31/63/102 70/94/102 21/64/102
f 21/64/103 52/45/103 13/50/103
f 13/50/104 49/69/104 18/66/104
f 2/65/105 18/66/105 67/67/105
f 13/50/106 12/49/106 50/68/106
f 56/16/107 53/30/107 14/58/107
f 15/70/108 14/58/108 48/71/108
f 33/17/109 57/110/109 60/73/109
f 16/74/110 55/37/110 22/36/110
f 22/36/111 56/35/111 15/76/111
f 3/75/112 15/76/112 45/77/112
f 3/75/113 17/78/113 46/54/113
f 36/43/114 26/101/114 23/79/114
f 60/73/115 24/81/115 6/29/115
f 38/47/116 6/29/116 24/81/116
f 59/83/117 34/109/117 36/43/117
f 25/84/118 7/34/118 37/52/118
f 48/86/119 19/104/119 17/87/119
f 7/34/120 25/84/120 57/89/120
f 58/85/121 37/52/121 63/51/121
f 72/91/122 63/51/122 5/53/122
f 64/31/123 38/33/123 62/92/123
f 70/94/124 31/63/124 11/95/124
f 47/96/125 11/95/125 31/63/125
f 64/31/126 26/101/126 21/64/126
f 12/97/127 51/42/127 29/41/127
f 4/98/128 29/41/128 69/39/128
f 4/98/129 32/38/129 68/55/129
f 28/99/130 50/111/130 12/97/130
f 65/100/131 8/112/131 27/23/131
f 26/101/132 36/43/132 52/45/132
f 40/10/133 8/112/133 30/102/133
f 47/105/134 67/19/134 46/113/134
f 67/19/135 68/21/135 46/113/135
f 46/113/136 17/87/136 47/105/136
f 27/23/137 8/112/137 40/10/137
f 72/91/138 30/56/138 8/106/138
f 39/108/139 58/85/139 72/91/139
f 71/93/140 23/79/140 26/101/140
