# Blender v2.92.0 OBJ File: 'quaternius_OGConvert.blend'
# www.blender.org
o Wheat_2_Cube.007
v -0.005522 0.000000 -0.014121
v 0.014121 0.000000 -0.005522
v -0.014121 0.000000 0.005522
v 0.005522 0.000000 0.014121
v -0.004999 0.165831 -0.001577
v 0.004550 0.165831 0.002603
v 0.000385 0.164850 0.012118
v -0.009164 0.164850 0.007937
v -0.009788 0.303749 0.006630
v -0.000084 0.304480 0.010840
v -0.004313 0.304702 0.020557
v -0.014018 0.303971 0.016347
v -0.031918 0.434511 0.019429
v -0.007894 0.436329 0.029851
v 0.002385 0.438726 0.005809
v -0.021638 0.436923 -0.004613
v -0.043499 0.474943 0.030937
v -0.009620 0.477692 0.045167
v 0.004412 0.483215 0.011044
v -0.029467 0.480465 -0.003186
v -0.034035 0.483076 0.027046
v -0.013599 0.484735 0.035629
v -0.005183 0.489528 0.014924
v -0.025619 0.487870 0.006340
v -0.037400 0.506549 0.032882
v -0.018878 0.508052 0.040662
v -0.011392 0.512440 0.022222
v -0.029914 0.510937 0.014443
v -0.031034 0.538891 0.038508
v -0.004562 0.104991 0.001174
v -0.001564 0.104991 0.003290
v -0.017433 0.134325 0.022149
v -0.002763 0.134601 0.032832
v -0.027969 0.147550 0.039118
v -0.016510 0.147683 0.047918
v -0.040219 0.144075 0.064762
v -0.037214 0.144036 0.067110
v -0.041804 0.142409 0.070090
v -0.004141 0.106686 -0.000822
v -0.001144 0.106686 0.001294
v -0.016774 0.136611 0.020869
v -0.002220 0.136611 0.031143
v -0.027147 0.150114 0.038946
v -0.015783 0.150114 0.046969
v -0.039380 0.146581 0.065146
v -0.036377 0.146581 0.067266
v -0.040966 0.144889 0.070580
v -0.008301 0.290964 0.015513
v -0.011298 0.290964 0.013397
v 0.004571 0.320298 -0.005462
v -0.010099 0.320575 -0.016145
v 0.015106 0.333524 -0.022431
v 0.003648 0.333657 -0.031231
v 0.027357 0.330049 -0.048075
v 0.024351 0.330010 -0.050423
v 0.028941 0.328383 -0.053403
v -0.008722 0.292659 0.017509
v -0.011719 0.292659 0.015393
v 0.003911 0.322585 -0.004181
v -0.010642 0.322585 -0.014456
v 0.014285 0.336088 -0.022259
v 0.002920 0.336088 -0.030282
v 0.026518 0.332555 -0.048459
v 0.023515 0.332555 -0.050579
v 0.028104 0.330863 -0.053892
vt 0.453501 0.156336
vt 0.414270 0.117014
vt 0.453501 0.116942
vt 0.049968 0.307080
vt 0.033580 0.001927
vt 0.072824 0.004916
vt 0.279791 0.301826
vt 0.249253 0.001995
vt 0.288648 0.001927
vt 0.178009 0.889062
vt 0.196345 0.584016
vt 0.217255 0.886329
vt 0.116260 0.692858
vt 0.144222 0.998073
vt 0.104824 0.997926
vt 0.029134 0.561392
vt 0.030824 0.307429
vt 0.259440 0.557413
vt 0.260639 0.301859
vt 0.176134 0.328467
vt 0.177206 0.583544
vt 0.115338 0.439088
vt 0.135413 0.692930
vt 0.196224 0.084556
vt 0.195499 0.326713
vt 0.278881 0.558701
vt 0.232280 0.797499
vt 0.088492 0.196976
vt 0.134781 0.437832
vt 0.057605 0.893585
vt 0.029713 0.942758
vt 0.016105 0.899239
vt 0.149093 0.001927
vt 0.148075 0.083478
vt 0.076678 0.116513
vt 0.136624 0.193882
vt 0.004627 0.884512
vt 0.050092 0.803495
vt 0.072824 0.879555
vt 0.144222 0.111859
vt 0.090081 0.101561
vt 0.130825 0.098753
vt 0.403835 0.335736
vt 0.349896 0.350438
vt 0.336210 0.335612
vt 0.403835 0.404239
vt 0.390689 0.350513
vt 0.125764 0.055007
vt 0.416372 0.060205
vt 0.455112 0.104638
vt 0.414270 0.104638
vt 0.412208 0.395190
vt 0.449486 0.437624
vt 0.407688 0.440553
vt 0.088836 0.057552
vt 0.104442 0.001927
vt 0.453388 0.060204
vt 0.434235 0.001927
vt 0.449486 0.392793
vt 0.439519 0.335612
vt 0.066682 0.937505
vt 0.066260 0.997296
vt 0.368201 0.467995
vt 0.357214 0.408092
vt 0.363802 0.408092
vt 0.415399 0.264936
vt 0.446109 0.230810
vt 0.448745 0.264936
vt 0.419572 0.230122
vt 0.436641 0.179082
vt 0.429637 0.178829
vt 0.433244 0.169201
vt 0.303321 0.067697
vt 0.328139 0.001927
vt 0.332500 0.003868
vt 0.303209 0.399268
vt 0.332357 0.434303
vt 0.299623 0.434303
vt 0.312612 0.346576
vt 0.328771 0.399268
vt 0.315990 0.336448
vt 0.319367 0.346575
vt 0.426017 0.268790
vt 0.415399 0.328887
vt 0.419435 0.268906
vt 0.373956 0.162740
vt 0.342854 0.096328
vt 0.347599 0.095048
vt 0.378247 0.324076
vt 0.381971 0.329334
vt 0.378247 0.330817
vt 0.297180 0.111110
vt 0.298390 0.067119
vt 0.341292 0.051845
vt 0.336354 0.051854
vt 0.321226 0.157433
vt 0.292502 0.112286
vt 0.363380 0.008991
vt 0.367706 0.010599
vt 0.325425 0.155485
vt 0.328417 0.165348
vt 0.369986 0.001927
vt 0.373956 0.003970
vt 0.280407 0.800700
vt 0.221109 0.875026
vt 0.048496 0.563276
vt 0.410417 0.054023
vt 0.403153 0.002518
vt 0.409869 0.001927
vt 0.378247 0.266186
vt 0.411546 0.229762
vt 0.411505 0.268606
vt 0.385124 0.227180
vt 0.405628 0.178713
vt 0.398658 0.177986
vt 0.402891 0.169201
vt 0.303280 0.234903
vt 0.328035 0.169201
vt 0.332357 0.171156
vt 0.410417 0.094900
vt 0.377809 0.056895
vt 0.405542 0.146732
vt 0.384954 0.097143
vt 0.403004 0.156408
vt 0.398813 0.147325
vt 0.404815 0.318359
vt 0.411546 0.318740
vt 0.374394 0.329849
vt 0.342550 0.262949
vt 0.347283 0.261654
vt 0.389407 0.329176
vt 0.385824 0.323406
vt 0.389407 0.322593
vt 0.297218 0.278278
vt 0.298353 0.234317
vt 0.341164 0.218673
vt 0.336210 0.218676
vt 0.321103 0.324656
vt 0.292502 0.279455
vt 0.363640 0.176164
vt 0.368014 0.177804
vt 0.325358 0.322703
vt 0.328214 0.332595
vt 0.370369 0.169201
vt 0.374394 0.171282
vt 0.414270 0.156408
vt 0.217255 0.007416
vt 0.001927 0.804265
vt 0.390588 0.392307
vt 0.336210 0.467995
vt 0.447873 0.328887
vt 0.369534 0.164624
vt 0.381971 0.322593
vt 0.332500 0.163261
vt 0.288648 0.879764
vt 0.369998 0.331759
vt 0.385824 0.329989
vt 0.332357 0.330503
vn 0.0000 -1.0000 0.0000
vn -0.9156 0.0334 -0.4008
vn -0.4010 -0.0014 0.9161
vn 0.9156 0.0334 0.4008
vn 0.4001 0.0679 -0.9140
vn -0.9157 -0.0079 -0.4017
vn -0.4000 -0.0692 0.9139
vn 0.9158 0.0068 0.4016
vn 0.4001 0.0683 -0.9139
vn 0.9169 -0.0032 0.3991
vn -0.3921 -0.0754 0.9168
vn 0.4003 -0.0417 -0.9154
vn -0.9228 -0.0370 -0.3836
vn 0.9191 -0.0871 0.3843
vn 0.3897 0.1001 -0.9155
vn -0.9063 -0.1467 -0.3964
vn 0.2148 0.7272 -0.6520
vn -0.3272 0.6898 0.6459
vn 0.5362 0.7703 0.3451
vn -0.7684 0.6172 -0.1694
vn 0.3347 0.3672 -0.8678
vn -0.3536 -0.2731 0.8946
vn 0.9097 0.1199 0.3975
vn 0.2541 0.6368 -0.7279
vn -0.3799 -0.0854 0.9211
vn 0.8325 0.3577 0.4231
vn -0.9187 0.2359 -0.3168
vn 0.4426 0.6412 -0.6269
vn -0.3149 -0.8335 0.4540
vn 0.0839 -0.9920 -0.0943
vn 0.1789 -0.9529 -0.2448
vn -0.9269 -0.1662 -0.3363
vn 0.3146 0.8382 -0.4456
vn -0.0711 0.9924 0.1006
vn -0.1738 0.9535 0.2462
vn -0.4422 -0.6419 0.6264
vn 0.9783 -0.1253 0.1653
vn 0.3869 -0.7416 -0.5480
vn -0.8612 -0.0357 -0.5069
vn 0.7676 0.0203 0.6406
vn -0.8881 0.2590 -0.3797
vn 0.6802 -0.2656 0.6833
vn -0.9271 0.3359 -0.1660
vn 0.5940 -0.3442 0.7271
vn -0.3508 -0.3479 0.8694
vn -0.9117 -0.1157 -0.3942
vn -0.4426 0.6412 0.6269
vn 0.3149 -0.8335 -0.4540
vn -0.0839 -0.9920 0.0943
vn -0.1789 -0.9529 0.2448
vn 0.9270 -0.1662 0.3363
vn -0.3146 0.8382 0.4456
vn 0.0711 0.9924 -0.1006
vn 0.1738 0.9535 -0.2461
vn 0.4422 -0.6419 -0.6264
vn -0.9783 -0.1253 -0.1653
vn -0.3869 -0.7416 0.5481
vn 0.8613 -0.0357 0.5069
vn -0.7677 0.0203 -0.6405
vn 0.8881 0.2590 0.3797
vn -0.6802 -0.2656 -0.6833
vn 0.9271 0.3359 0.1660
vn -0.5940 -0.3442 -0.7271
vn -0.9168 0.0330 -0.3979
vn 0.9143 0.0330 0.4036
vn -0.9170 -0.0079 -0.3989
vn -0.3927 -0.0685 0.9171
vn 0.9169 0.0067 0.3989
vn 0.3928 0.0676 -0.9171
vn 0.9195 -0.0022 0.3930
vn -0.3920 -0.0754 0.9169
vn -0.9228 -0.0370 -0.3835
vn 0.9259 -0.0966 0.3651
vn 0.3793 0.0911 -0.9208
vn -0.9037 -0.1493 -0.4014
vn 0.6112 0.6795 0.4057
vn -0.6810 0.7136 -0.1645
vn 0.9096 0.1201 0.3978
vn -0.3236 -0.8407 0.4341
vn 0.0729 -0.9913 -0.1097
vn -0.8750 -0.0187 -0.4838
vn -0.4434 -0.6420 0.6255
vn 0.9873 -0.0931 0.1289
vn 0.3869 -0.7416 -0.5481
vn -0.7735 0.2075 -0.5989
vn 0.8108 0.2325 0.5372
vn -0.8641 0.3455 -0.3660
vn 0.6938 0.0720 0.7165
vn -0.9237 0.3449 -0.1668
vn 0.6257 -0.2511 0.7385
vn -0.3408 -0.3389 0.8769
vn -0.9092 -0.1147 -0.4003
vn 0.3236 -0.8407 -0.4341
vn -0.0729 -0.9913 0.1097
vn 0.8750 -0.0187 0.4838
vn 0.0711 0.9924 -0.1007
vn 0.4434 -0.6420 -0.6255
vn -0.9873 -0.0931 -0.1289
vn -0.3869 -0.7416 0.5480
vn 0.7735 0.2075 0.5989
vn -0.8108 0.2325 -0.5372
vn 0.8641 0.3455 0.3660
vn -0.6938 0.0720 -0.7165
vn 0.9237 0.3449 0.1669
vn -0.6257 -0.2511 -0.7385
s off
f 2/1/1 3/2/1 1/3/1
f 8/4/2 1/5/2 3/6/2
f 7/7/3 3/8/3 4/9/3
f 2/10/4 7/11/4 4/12/4
f 5/13/5 2/14/5 1/15/5
f 8/4/6 9/16/6 5/17/6
f 7/7/7 12/18/7 8/19/7
f 10/20/8 7/11/8 6/21/8
f 9/22/9 6/23/9 5/13/9
f 10/20/10 14/24/10 11/25/10
f 11/26/11 13/27/11 12/18/11
f 16/28/12 10/29/12 9/22/12
f 21/30/13 28/31/13 24/32/13
f 19/33/14 14/24/14 15/34/14
f 20/35/15 15/36/15 16/28/15
f 20/37/16 13/38/16 17/39/16
f 19/40/17 24/41/17 23/42/17
f 18/43/18 21/44/18 17/45/18
f 19/46/19 22/47/19 18/43/19
f 20/37/20 21/30/20 24/32/20
f 24/41/21 27/48/21 23/42/21
f 26/49/22 21/50/22 22/51/22
f 27/52/23 22/53/23 23/54/23
f 27/48/24 28/55/24 29/56/24
f 25/57/25 26/49/25 29/58/25
f 26/59/26 27/52/26 29/60/26
f 28/31/27 25/61/27 29/62/27
f 41/63/28 40/64/28 39/65/28
f 33/66/29 34/67/29 32/68/29
f 35/69/30 36/70/30 34/67/30
f 36/70/31 37/71/31 38/72/31
f 32/73/32 39/74/32 30/75/32
f 43/76/33 42/77/33 41/78/33
f 45/79/34 44/80/34 43/76/34
f 45/79/35 47/81/35 46/82/35
f 31/83/36 32/84/36 30/85/36
f 31/86/37 42/87/37 33/88/37
f 30/89/38 40/90/38 31/91/38
f 34/92/39 41/93/39 32/73/39
f 35/94/40 42/87/40 44/95/40
f 34/92/41 45/96/41 43/97/41
f 35/94/42 46/98/42 37/99/42
f 36/100/43 47/101/43 45/96/43
f 37/99/44 47/102/44 38/103/44
f 14/104/45 17/105/45 13/27/45
f 13/38/46 9/16/46 12/106/46
f 59/107/47 58/108/47 57/109/47
f 51/110/48 52/111/48 50/112/48
f 53/113/49 54/114/49 52/111/49
f 54/114/50 55/115/50 56/116/50
f 50/117/51 57/118/51 48/119/51
f 61/120/52 60/121/52 59/107/52
f 63/122/53 62/123/53 61/120/53
f 63/122/54 65/124/54 64/125/54
f 49/126/55 50/112/55 48/127/55
f 49/128/56 60/129/56 51/130/56
f 48/131/57 58/132/57 49/133/57
f 52/134/58 59/135/58 50/117/58
f 53/136/59 60/129/59 62/137/59
f 52/134/60 63/138/60 61/139/60
f 53/136/61 64/140/61 55/141/61
f 54/142/62 65/143/62 63/138/62
f 55/141/63 65/144/63 56/145/63
f 2/1/1 4/146/1 3/2/1
f 8/4/64 5/17/64 1/5/64
f 7/7/3 8/19/3 3/8/3
f 2/10/65 6/21/65 7/11/65
f 5/13/5 6/23/5 2/14/5
f 8/4/66 12/106/66 9/16/66
f 7/7/67 11/26/67 12/18/67
f 10/20/68 11/25/68 7/11/68
f 9/22/69 10/29/69 6/23/69
f 10/20/70 15/34/70 14/24/70
f 11/26/71 14/104/71 13/27/71
f 16/28/12 15/36/12 10/29/12
f 21/30/72 25/61/72 28/31/72
f 19/33/73 18/147/73 14/24/73
f 20/35/74 19/40/74 15/36/74
f 20/37/75 16/148/75 13/38/75
f 19/40/17 20/35/17 24/41/17
f 18/43/18 22/47/18 21/44/18
f 19/46/76 23/149/76 22/47/76
f 20/37/77 17/39/77 21/30/77
f 24/41/21 28/55/21 27/48/21
f 26/49/22 25/57/22 21/50/22
f 27/52/78 26/59/78 22/53/78
f 41/63/28 42/150/28 40/64/28
f 33/66/79 35/69/79 34/67/79
f 35/69/80 37/71/80 36/70/80
f 32/73/81 41/93/81 39/74/81
f 43/76/33 44/80/33 42/77/33
f 45/79/34 46/82/34 44/80/34
f 31/83/82 33/151/82 32/84/82
f 31/86/83 40/152/83 42/87/83
f 30/89/84 39/153/84 40/90/84
f 34/92/85 43/97/85 41/93/85
f 35/94/86 33/88/86 42/87/86
f 34/92/87 36/100/87 45/96/87
f 35/94/88 44/95/88 46/98/88
f 36/100/89 38/154/89 47/101/89
f 37/99/90 46/98/90 47/102/90
f 14/104/91 18/155/91 17/105/91
f 13/38/92 16/148/92 9/16/92
f 59/107/47 60/121/47 58/108/47
f 51/110/93 53/113/93 52/111/93
f 53/113/94 55/115/94 54/114/94
f 50/117/95 59/135/95 57/118/95
f 61/120/52 62/123/52 60/121/52
f 63/122/96 64/125/96 62/123/96
f 49/126/97 51/110/97 50/112/97
f 49/128/98 58/156/98 60/129/98
f 48/131/99 57/157/99 58/132/99
f 52/134/100 61/139/100 59/135/100
f 53/136/101 51/130/101 60/129/101
f 52/134/102 54/142/102 63/138/102
f 53/136/103 62/137/103 64/140/103
f 54/142/104 56/158/104 65/143/104
f 55/141/105 64/140/105 65/144/105
