####
#
#	OBJ File Generated by LightWave3D
#	LightWave3D OBJ Export v2.3
#
####
o jims_katana_dark_scabbardhull.obj
mtllib jims_katana_dark_scabbardhull.mtl
g default
v -0.0210787 0.102002 0.0106427
v -0.0210787 0.102002 -0.0106427
v -0.0210787 0.846654 0.0106427
v -0.0210787 0.846654 -0.0106427
v -0.00172397 0.355395 -0.000467
v -0.000883971 0.341957 -0.000467
v 0 0.102002 0.0147815
v 0 0.102002 -0.0147815
v 0 0.846654 0.0147815
v 0 0.846654 -0.0147815
v 0.010875 0.346156 -0.000467
v 0.0210787 0.102002 0.0106427
v 0.0210787 0.102002 -0.0106427
v 0.0210787 0.846654 0.0106427
v 0.0210787 0.846654 -0.0106427
vn -0.842669 -0.384312 -0.377111
vn -0.701473 0.639834 0.313923
vn -0.532404 0.384312 -0.754222
vn -0.443195 -0.639834 0.627846
vn 0 -0.713762 0.700388
vn 0 -0.713762 -0.700388
vn 0 0 1
vn 0 0.454006 0.890999
vn 0 0.897766 -0.440472
vn 0.443195 -0.639834 0.627846
vn 0.532404 0.384312 -0.754222
vn 0.701473 0.639834 0.313923
vn 0.842669 -0.384312 -0.377111
g group_Default
usemtl Default
s off
f 12//10 9//8 7//5
f 14//12 9//8 12//10
f 8//6 15//11 13//13
f 10//9 15//11 8//6
f 13//13 14//12 12//10
f 15//11 14//12 13//13
f 9//8 1//4 7//5
f 9//8 3//2 1//4
f 3//2 2//1 1//4
f 3//2 4//3 2//1
f 4//3 8//6 2//1
f 4//3 10//9 8//6
f 8//6 12//10 7//5
f 8//6 13//13 12//10
f 14//12 10//9 9//8
f 15//11 10//9 14//12
f 1//4 8//6 7//5
f 2//1 8//6 1//4
f 10//9 3//2 9//8
f 10//9 4//3 3//2
g group_Default
usemtl Default
s 1
f 11//7 5//7 6//7
