####
#
#	OBJ File Generated by LightWave3D
#	LightWave3D OBJ Export v2.3
#
####
o jims_katana_dark.obj
mtllib jims_katana_dark.mtl
g default
v -0.0235079 -0.128217 0.00447113
v -0.0235079 -0.128217 -0.00447113
v -0.0235079 0.101063 0.00447113
v -0.0235079 0.101063 -0.00447113
v -0.0228297 -0.110923 0.00434091
v -0.0228297 -0.110923 -0.00434091
v -0.0228297 -0.0186872 0.00434091
v -0.0228297 -0.0186872 -0.00434091
v -0.0228297 -0.00865651 0.00434091
v -0.0228297 -0.00865651 -0.00434091
v -0.0228297 0.0837691 0.00434091
v -0.0228297 0.0837691 -0.00434091
v -0.022559 -0.129166 0.00422387
v -0.022559 -0.129166 -0.00422387
v -0.022559 0.102012 0.00422387
v -0.022559 0.102012 -0.00422387
v -0.0213507 -0.0649 0.00405692
v -0.0213507 -0.0649 -0.00405692
v -0.0213507 0.0375563 0.00405692
v -0.0213507 0.0375563 -0.00405692
v -0.0194513 -0.128217 0.0117264
v -0.0194513 -0.128217 -0.0117264
v -0.0194513 0.101063 0.0117264
v -0.0194513 0.101063 -0.0117264
v -0.0188912 -0.110923 0.0113849
v -0.0188912 -0.110923 -0.0113849
v -0.0188912 -0.0186872 0.0113849
v -0.0188912 -0.0186872 -0.0113849
v -0.0188912 -0.00865651 0.0113849
v -0.0188912 -0.00865651 -0.0113849
v -0.0188912 0.0837691 0.0113849
v -0.0188912 0.0837691 -0.0113849
v -0.018828 -0.129166 0.0108967
v -0.018828 -0.129166 -0.0108967
v -0.018828 0.102012 0.0108967
v -0.018828 0.102012 -0.0108967
v -0.0176699 -0.0649 0.0106401
v -0.0176699 -0.0649 -0.0106401
v -0.0176699 0.0375563 0.0106401
v -0.0176699 0.0375563 -0.0106401
v -0.0161768 0.102012 0.00195458
v -0.0161768 0.102012 -0.00195458
v -0.0161768 0.124083 0.00195458
v -0.0161768 0.124083 -0.00195458
v -0.0157959 0.102012 0.00259867
v -0.0157959 0.102012 -0.00259867
v -0.0157959 0.124083 0.00259867
v -0.0157959 0.124083 -0.00259867
v -0.0153101 0.124951 0.00186794
v -0.0153101 0.124951 -0.00186794
v -0.0148015 0.326367 8.92718e-019
v -0.0147629 0.472469 8.90355e-019
v -0.014294 0.191432 8.61648e-019
v -0.0142141 0.608285 8.56752e-019
v -0.013956 0.124951 8.40949e-019
v -0.0130956 0.703323 7.88267e-019
v -0.0117878 0.767478 7.08184e-019
v -0.0109882 0.79897 6.59222e-019
v -0.0107056 0.804122 6.41918e-019
v -0.0103838 0.807819 6.22215e-019
v -0.0099388 0.811023 5.94966e-019
v -0.00930895 0.813847 5.56399e-019
v -0.00851479 0.816363 5.0777e-019
v -0.00758028 0.818633 4.50549e-019
v -0.00736625 -0.128217 0.0145249
v -0.00736625 -0.128217 -0.0145249
v -0.00736625 0.101063 0.0145249
v -0.00736625 0.101063 -0.0145249
v -0.00725782 -0.129166 0.013576
v -0.00725782 -0.129166 -0.013576
v -0.00725782 0.102012 0.013576
v -0.00725782 0.102012 -0.013576
v -0.00715817 -0.110923 0.0141018
v -0.00715817 -0.110923 -0.0141018
v -0.00715817 -0.0186872 0.0141018
v -0.00715817 -0.0186872 -0.0141018
v -0.00715817 -0.00865651 0.0141018
v -0.00715817 -0.00865651 -0.0141018
v -0.00715817 0.0837691 0.0141018
v -0.00715817 0.0837691 -0.0141018
v -0.00700945 0.102012 0.00626013
v -0.00700945 0.102012 -0.00626013
v -0.00700945 0.124083 0.00626013
v -0.00700945 0.124083 -0.00626013
v -0.00671302 0.124951 0.00544572
v -0.00671302 0.124951 -0.00544572
v -0.00670443 -0.0649 0.0131793
v -0.00670443 -0.0649 -0.0131793
v -0.00670443 0.0375563 0.0131793
v -0.00670443 0.0375563 -0.0131793
v -0.00646093 0.820717 3.82008e-019
v -0.00507685 0.822688 2.97258e-019
v -0.00400199 0.801815 0.00193664
v -0.00400199 0.801815 -0.00193664
v -0.00327517 0.824649 1.86936e-019
v -0.00226185 0.812693 0.00193009
v -0.00226185 0.812693 -0.00193009
v -0.000988527 0.826668 4.69198e-020
v 9.21472e-005 0.102012 0.00819658
v 9.21472e-005 0.102012 -0.00819658
v 9.21472e-005 0.124083 0.00819658
v 9.21472e-005 0.124083 -0.00819658
v 0.000242645 0.124951 0.00734307
v 0.000242645 0.124951 -0.00734307
v 0.000801551 0.472469 0.00393138
v 0.000801551 0.472469 -0.00393138
v 0.00103119 0.608285 0.00373728
v 0.00103119 0.608285 -0.00373728
v 0.00115646 0.326367 0.00414017
v 0.00115646 0.326367 -0.00414017
v 0.00143526 0.828616 -1.01495e-019
v 0.00173775 0.703323 0.00360146
v 0.00173775 0.703323 -0.00360146
v 0.00197012 0.191432 0.00433291
v 0.00197012 0.191432 -0.00433291
v 0.00243822 0.124951 0.00443383
v 0.00243822 0.124951 -0.00443383
v 0.00261396 0.767446 0.00350982
v 0.00261396 0.767446 -0.00350982
v 0.00274056 0.819372 0.00196326
v 0.00274056 0.819372 -0.00196326
v 0.00323385 0.801113 0.00346171
v 0.00323385 0.801113 -0.00346171
v 0.00464959 0.810136 0.00344881
v 0.00464959 0.810136 -0.00344881
v 0.00603007 0.832154 -3.82845e-019
v 0.0062599 -0.0649 0.0131793
v 0.0062599 -0.0649 -0.0131793
v 0.0062599 0.0375563 0.0131793
v 0.0062599 0.0375563 -0.0131793
v 0.00635647 0.102012 0.00873563
v 0.00635647 0.102012 -0.00873563
v 0.00635647 0.124083 0.00873563
v 0.00635647 0.124083 -0.00873563
v 0.00635647 0.124951 0.00786896
v 0.00635647 0.124951 -0.00786896
v 0.00671365 -0.110923 0.0141018
v 0.00671365 -0.110923 -0.0141018
v 0.00671365 -0.0186872 0.0141018
v 0.00671365 -0.0186872 -0.0141018
v 0.00671365 -0.00865651 0.0141018
v 0.00671365 -0.00865651 -0.0141018
v 0.00671365 0.0837691 0.0141018
v 0.00671365 0.0837691 -0.0141018
v 0.00681329 -0.129166 0.013576
v 0.00681329 -0.129166 -0.013576
v 0.00681329 0.102012 0.013576
v 0.00681329 0.102012 -0.013576
v 0.00692172 -0.128217 0.0145249
v 0.00692172 -0.128217 -0.0145249
v 0.00692172 0.101063 0.0145249
v 0.00692172 0.101063 -0.0145249
v 0.00879769 0.823174 0.00207521
v 0.00879769 0.823174 -0.00207521
v 0.00937269 0.814208 0.00344299
v 0.00937269 0.814208 -0.00344299
v 0.0109845 0.835586 -6.86217e-019
v 0.0123994 0.836393 -7.72856e-019
v 0.0124394 0.102012 0.00851602
v 0.0124394 0.102012 -0.00851602
v 0.0124394 0.124083 0.00851602
v 0.0124394 0.124083 -0.00851602
v 0.0124394 0.124951 0.00764934
v 0.0124394 0.124951 -0.00764934
v 0.0127375 0.608285 0.00373728
v 0.0127375 0.608285 -0.00373728
v 0.0127637 0.472469 0.00393138
v 0.0127637 0.472469 -0.00393138
v 0.0131138 0.703323 0.00360146
v 0.0131138 0.703323 -0.00360146
v 0.0132211 0.836628 -8.23169e-019
v 0.0134341 0.326367 0.00414017
v 0.0134341 0.326367 -0.00414017
v 0.0135807 0.608285 0.0031144
v 0.0135807 0.608285 -0.0031144
v 0.0136136 0.472469 0.00327615
v 0.0136136 0.472469 -0.00327615
v 0.013644 0.767422 0.00350986
v 0.013644 0.767422 -0.00350986
v 0.0138533 0.836484 0.000132974
v 0.0138533 0.836484 -0.000132974
v 0.0139484 0.703323 0.00300122
v 0.0139484 0.703323 -0.00300122
v 0.0140043 0.81505 0.00344179
v 0.0140043 0.81505 -0.00344179
v 0.0142922 0.326367 0.00345015
v 0.0142922 0.326367 -0.00345015
v 0.0143127 0.836147 0.000255492
v 0.0143127 0.836147 -0.000255492
v 0.0143336 0.825592 0.0021821
v 0.0143336 0.825592 -0.0021821
v 0.0143585 0.835349 0.000469625
v 0.0143585 0.835349 -0.000469625
v 0.0144696 0.76742 0.00292488
v 0.0144696 0.76742 -0.00292488
v 0.0144933 0.191432 0.00433291
v 0.0144933 0.191432 -0.00433291
v 0.0145942 0.835413 0.000403469
v 0.0145942 0.835413 -0.000403469
v 0.0147789 0.815073 0.00286813
v 0.0147789 0.815073 -0.00286813
v 0.0147789 0.825549 0.00188334
v 0.0147789 0.825549 -0.00188334
v 0.0151002 0.124951 0.00729678
v 0.0151002 0.124951 0.00443383
v 0.0151002 0.124951 -0.00443383
v 0.0151002 0.124951 -0.00729678
v 0.0152908 0.102012 0.00811147
v 0.0152908 0.102012 -0.00811147
v 0.0152908 0.124083 0.00811147
v 0.0152908 0.124083 -0.00811147
v 0.0153578 0.191432 0.00361076
v 0.0153578 0.191432 -0.00361076
v 0.0159669 0.102012 0.00738341
v 0.0159669 0.102012 -0.00738341
v 0.0159669 0.124083 0.00738341
v 0.0159669 0.124083 0.00369486
v 0.0159669 0.124083 -0.00369486
v 0.0159669 0.124083 -0.00738341
v 0.0172253 -0.0649 0.0106401
v 0.0172253 -0.0649 -0.0106401
v 0.0172253 0.0375563 0.0106401
v 0.0172253 0.0375563 -0.0106401
v 0.0183835 -0.129166 0.0108967
v 0.0183835 -0.129166 -0.0108967
v 0.0183835 0.102012 0.0108967
v 0.0183835 0.102012 -0.0108967
v 0.0184467 -0.110923 0.0113849
v 0.0184467 -0.110923 -0.0113849
v 0.0184467 -0.0186872 0.0113849
v 0.0184467 -0.0186872 -0.0113849
v 0.0184467 -0.00865651 0.0113849
v 0.0184467 -0.00865651 -0.0113849
v 0.0184467 0.0837691 0.0113849
v 0.0184467 0.0837691 -0.0113849
v 0.0190067 -0.128217 0.0117264
v 0.0190067 -0.128217 -0.0117264
v 0.0190067 0.101063 0.0117264
v 0.0190067 0.101063 -0.0117264
v 0.0209062 -0.0649 0.00405692
v 0.0209062 -0.0649 -0.00405692
v 0.0209062 0.0375563 0.00405692
v 0.0209062 0.0375563 -0.00405692
v 0.0221145 -0.129166 0.00422387
v 0.0221145 -0.129166 -0.00422387
v 0.0221145 0.102012 0.00422387
v 0.0221145 0.102012 -0.00422387
v 0.0223852 -0.110923 0.00434091
v 0.0223852 -0.110923 -0.00434091
v 0.0223852 -0.0186872 0.00434091
v 0.0223852 -0.0186872 -0.00434091
v 0.0223852 -0.00865651 0.00434091
v 0.0223852 -0.00865651 -0.00434091
v 0.0223852 0.0837691 0.00434091
v 0.0223852 0.0837691 -0.00434091
v 0.0230634 -0.128217 0.00447113
v 0.0230634 -0.128217 -0.00447113
v 0.0230634 0.101063 0.00447113
v 0.0230634 0.101063 -0.00447113
vt 0.0142345 0.0130972
vt 0.0160071 0.115999
vt 0.0196302 0.310683
vt 0.0239589 0.506549
vt 0.0277216 0.684016
vt 0.0316096 0.811419
vt 0.0352179 0.897497
vt 0.0377455 0.939887
vt 0.039338 0.946937
vt 0.0408233 0.951997
vt 0.0427988 0.956374
vt 0.0454458 0.960233
vt 0.0487446 0.963663
vt 0.0525977 0.966738
vt 0.0571345 0.969544
vt 0.0626588 0.972188
vt 0.0650101 0.943666
vt 0.0698045 0.974809
vt 0.072363 0.958483
vt 0.0782647 0.012828
vt 0.0789017 0.977466
vt 0.0794714 0.115747
vt 0.0818011 0.310481
vt 0.0845175 0.50643
vt 0.0869238 0.68398
vt 0.0885917 0.979951
vt 0.0891634 0.811456
vt 0.0910586 0.897479
vt 0.0921718 0.967445
vt 0.0929221 0.942595
vt 0.0981223 0.954653
vt 0.106925 0.984444
vt 0.115896 0.96008
vt 0.116284 0.972285
vt 0.125845 0.98888
vt 0.125997 0.0126294
vt 0.126684 0.115563
vt 0.128092 0.310334
vt 0.129628 0.506345
vt 0.130262 0.0114518
vt 0.130931 0.11555
vt 0.131061 0.683963
vt 0.131218 0.989937
vt 0.132051 0.811502
vt 0.132243 0.310324
vt 0.132689 0.897453
vt 0.133335 0.961122
vt 0.133674 0.50634
vt 0.134321 0.990245
vt 0.135012 0.683963
vt 0.135927 0.811506
vt 0.136509 0.897453
vt 0.136732 0.990016
vt 0.136966 0.961139
vt 0.138414 0.975125
vt 0.138472 0.989538
vt 0.138649 0.988431
vt 0.14048 0.975048
vt 0.145707 0.987949
vt 0.146667 0.987973
vt 0.147236 0.989033
vt 0.147673 0.989796
vt 0.148129 0.990669
vt 0.148675 0.989802
vt 0.149172 0.98904
vt 0.149739 0.987979
vt 0.150695 0.987946
vt 0.155095 0.974949
vt 0.156883 0.988342
vt 0.157055 0.98945
vt 0.157162 0.975029
vt 0.158122 0.0114381
vt 0.158157 0.115537
vt 0.158258 0.310311
vt 0.158377 0.506327
vt 0.158493 0.683951
vt 0.158561 0.811496
vt 0.158561 0.961152
vt 0.158602 0.897439
vt 0.158791 0.989929
vt 0.161201 0.990159
vt 0.162196 0.961127
vt 0.162397 0.0126115
vt 0.162404 0.115545
vt 0.162409 0.310317
vt 0.162422 0.897435
vt 0.162422 0.506329
vt 0.162437 0.811489
vt 0.162445 0.683948
vt 0.164305 0.989853
vt 0.16968 0.988799
vt 0.179372 0.972244
vt 0.179629 0.960056
vt 0.188629 0.984392
vt 0.197365 0.954614
vt 0.202485 0.942549
vt 0.203447 0.967394
vt 0.204051 0.897427
vt 0.205324 0.811402
vt 0.206581 0.683922
vt 0.207029 0.97991
vt 0.207534 0.506368
vt 0.208701 0.310418
vt 0.209618 0.115683
vt 0.21013 0.012763
vt 0.216712 0.977413
vt 0.22317 0.958415
vt 0.225806 0.974749
vt 0.230402 0.943595
vt 0.23295 0.972122
vt 0.238472 0.969474
vt 0.242983 0.966661
vt 0.246812 0.963581
vt 0.250089 0.960147
vt 0.252713 0.956285
vt 0.254661 0.951905
vt 0.256101 0.946843
vt 0.25764 0.939792
vt 0.25989 0.897397
vt 0.262875 0.81131
vt 0.265782 0.683898
vt 0.268093 0.506427
vt 0.270873 0.310558
vt 0.273084 0.115872
vt 0.274163 0.0129692
vt 0.285287 0.335765
vt 0.285287 0.439484
vt 0.289659 0.0139089
vt 0.291589 0.31851
vt 0.293699 0.0370067
vt 0.295325 0.295401
vt 0.295425 0.159219
vt 0.295557 0.172871
vt 0.300899 0.439484
vt 0.30423 0.0976219
vt 0.305073 0.234504
vt 0.324409 0.0131132
vt 0.32635 0.319201
vt 0.327732 0.0361895
vt 0.329272 0.159257
vt 0.329326 0.172756
vt 0.329368 0.296115
vt 0.332174 0.439484
vt 0.335937 0.0974466
vt 0.336775 0.234572
vt 0.347786 0.335765
vt 0.347786 0.439484
vt 0.351991 0.335765
vt 0.351991 0.439484
vt 0.36418 0.335765
vt 0.36418 0.439484
vt 0.364411 0.0122337
vt 0.366361 0.319957
vt 0.366524 0.0354774
vt 0.367942 0.159194
vt 0.368017 0.172728
vt 0.368167 0.296706
vt 0.372562 0.0971189
vt 0.373395 0.234788
vt 0.389941 0.335765
vt 0.389941 0.439484
vt 0.398691 0.0114581
vt 0.400104 0.0348897
vt 0.400649 0.320629
vt 0.401365 0.159182
vt 0.401413 0.172643
vt 0.401755 0.297192
vt 0.404304 0.0968519
vt 0.405138 0.234963
vt 0.416552 0.335765
vt 0.416552 0.439484
vt 0.421659 0.011355
vt 0.422604 0.0347085
vt 0.423616 0.320663
vt 0.423715 0.159115
vt 0.423783 0.172653
vt 0.424256 0.297307
vt 0.425513 0.0967543
vt 0.426349 0.234996
vt 0.441036 0.962691
vt 0.441974 0.929511
vt 0.442596 0.979319
vt 0.446314 0.0112
vt 0.44655 0.983791
vt 0.446775 0.895531
vt 0.446796 0.0346638
vt 0.447249 0.962971
vt 0.447706 0.335765
vt 0.447706 0.439484
vt 0.447713 0.159038
vt 0.447806 0.172658
vt 0.448073 0.977416
vt 0.44814 0.929999
vt 0.448273 0.320745
vt 0.448354 0.096703
vt 0.448449 0.297281
vt 0.449191 0.234983
vt 0.45276 0.897097
vt 0.458573 0.857348
vt 0.462509 0.978782
vt 0.464285 0.859943
vt 0.465505 0.985662
vt 0.466732 0.909991
vt 0.46919 0.0110873
vt 0.46926 0.034615
vt 0.469591 0.0966466
vt 0.470031 0.159069
vt 0.470091 0.172562
vt 0.470428 0.234978
vt 0.470914 0.297264
vt 0.471149 0.320791
vt 0.479578 0.810439
vt 0.483196 0.808206
vt 0.484537 0.814458
vt 0.487993 0.335765
vt 0.487993 0.439484
vt 0.49116 0.335765
vt 0.49116 0.439484
vt 0.493731 0.822071
vt 0.501317 0.0967036
vt 0.502153 0.23483
vt 0.502744 0.814255
vt 0.502827 0.0348561
vt 0.503308 0.158968
vt 0.50332 0.0115524
vt 0.503408 0.172563
vt 0.504008 0.807513
vt 0.504479 0.296927
vt 0.505274 0.320228
vt 0.507487 0.809926
vt 0.507705 0.335765
vt 0.507705 0.439484
vt 0.510871 0.335765
vt 0.510871 0.439484
vt 0.523563 0.90903
vt 0.524391 0.858916
vt 0.527251 0.984606
vt 0.530022 0.977616
vt 0.530022 0.85611
vt 0.537109 0.895612
vt 0.537899 0.0968273
vt 0.538728 0.234604
vt 0.541558 0.0351065
vt 0.541731 0.158895
vt 0.541843 0.172515
vt 0.542794 0.928318
vt 0.542854 0.0117303
vt 0.543039 0.893822
vt 0.543207 0.296566
vt 0.544404 0.975703
vt 0.544757 0.961236
vt 0.544814 0.319933
vt 0.546134 0.982017
vt 0.54894 0.927596
vt 0.549939 0.977398
vt 0.550957 0.960721
vt 0.551158 0.335765
vt 0.551158 0.439484
vt 0.56962 0.0968935
vt 0.570443 0.234457
vt 0.575192 0.0351119
vt 0.575288 0.15895
vt 0.575312 0.172362
vt 0.575696 0.944647
vt 0.575772 0.90499
vt 0.576849 0.296456
vt 0.577273 0.0117519
vt 0.579026 0.630446
vt 0.579075 0.669801
vt 0.579222 0.944225
vt 0.579239 0.319805
vt 0.579284 0.905425
vt 0.582312 0.335765
vt 0.582312 0.439484
vt 0.582404 0.630849
vt 0.582443 0.669382
vt 0.583532 0.978359
vt 0.583552 0.871276
vt 0.586272 0.596824
vt 0.586376 0.703399
vt 0.586565 0.976048
vt 0.58659 0.873578
vt 0.589191 0.599107
vt 0.589293 0.701117
vt 0.590891 0.096981
vt 0.591715 0.234297
vt 0.591957 0.94294
vt 0.592671 0.95966
vt 0.59337 0.925713
vt 0.593807 0.967522
vt 0.595744 0.969383
vt 0.59775 0.0353912
vt 0.597795 0.158921
vt 0.597816 0.172352
vt 0.598509 0.906183
vt 0.599407 0.296105
vt 0.600345 0.0121698
vt 0.602309 0.319314
vt 0.603127 0.990021
vt 0.603148 0.859559
vt 0.604054 0.863271
vt 0.604071 0.986366
vt 0.60508 0.585223
vt 0.605214 0.715013
vt 0.605984 0.588854
vt 0.606072 0.711324
vt 0.608308 0.881975
vt 0.608923 0.335765
vt 0.608923 0.439484
vt 0.609994 0.88092
vt 0.613819 0.0970904
vt 0.614649 0.234112
vt 0.620245 0.880884
vt 0.621935 0.881935
vt 0.622039 0.0358923
vt 0.622068 0.15888
vt 0.622098 0.172351
vt 0.623694 0.295525
vt 0.625416 0.0128372
vt 0.626146 0.863241
vt 0.626155 0.986359
vt 0.627062 0.990072
vt 0.627088 0.859585
vt 0.627179 0.588859
vt 0.627264 0.711287
vt 0.62737 0.318571
vt 0.628043 0.585172
vt 0.628175 0.714916
vt 0.631721 0.906154
vt 0.634436 0.969341
vt 0.634685 0.335765
vt 0.634685 0.439484
vt 0.635078 0.0971219
vt 0.635916 0.233999
vt 0.636374 0.967484
vt 0.63685 0.925685
vt 0.637521 0.959626
vt 0.63825 0.94291
vt 0.643602 0.97603
vt 0.643654 0.873558
vt 0.643944 0.599098
vt 0.644035 0.700999
vt 0.644661 0.158668
vt 0.644808 0.172518
vt 0.644857 0.0366534
vt 0.6465 0.294696
vt 0.646635 0.978334
vt 0.646691 0.871251
vt 0.646865 0.59682
vt 0.646874 0.335765
vt 0.646874 0.439484
vt 0.64696 0.703276
vt 0.64872 0.0136095
vt 0.650663 0.317729
vt 0.650772 0.630774
vt 0.650807 0.669303
vt 0.650948 0.905406
vt 0.650986 0.944208
vt 0.651079 0.335765
vt 0.651079 0.439484
vt 0.654152 0.630362
vt 0.654177 0.669716
vt 0.65446 0.904973
vt 0.654511 0.944633
vn -1 -0.00014238 -0
vn -0.999998 0.0021524 -6.08468e-008
vn -0.999995 -0.00316631 -3.89068e-008
vn -0.999995 -0.00324358 -0
vn -0.99997 0.00774103 1.23986e-007
vn -0.999885 0.0151463 4.19722e-008
vn -0.999832 0.0183231 3.84938e-008
vn -0.999763 0.021765 -4.19969e-008
vn -0.997499 0.0706828 -0
vn -0.991845 0.127447 -0
vn -0.985875 1.98254e-008 -0.167481
vn -0.985875 6.70893e-005 -0.167481
vn -0.984539 0 -0.175164
vn -0.983957 0.178405 -0
vn -0.976229 0.0185624 0.215944
vn -0.975771 -0.0357096 0.215861
vn -0.975768 0.0357861 0.215861
vn -0.967684 2.02209e-008 0.252166
vn -0.967684 6.6964e-005 0.252166
vn -0.967564 -0.0161613 -0.25211
vn -0.965675 0.259753 -5.68458e-008
vn -0.957466 -0.0185624 0.287948
vn -0.952654 -0.0352703 -0.302005
vn -0.952651 0.0353501 -0.302004
vn -0.942112 0.0161007 -0.334912
vn -0.940102 0.340892 -0
vn -0.936627 0 0.350329
vn -0.908032 0.385614 0.163648
vn -0.904465 0.426549 -5.863e-008
vn -0.900657 0.305633 -0.308878
vn -0.896951 -0.375297 -0.233733
vn -0.896945 0.375312 -0.233732
vn -0.873782 -0.37419 0.310623
vn -0.873776 0.374205 0.310621
vn -0.839222 0.543789 -4.19853e-008
vn -0.778343 0.627839 -6.3756e-008
vn -0.735357 0 -0.677679
vn -0.700003 0.71414 6.23772e-008
vn -0.677255 0.309349 0.667555
vn -0.668723 -0.0114554 -0.743424
vn -0.668723 0.0114555 0.743424
vn -0.644362 0.76472 6.23932e-008
vn -0.607836 0.794062 -8.53496e-008
vn -0.600565 1.7575e-008 0.799576
vn -0.600565 1.7575e-008 -0.799576
vn -0.600565 5.92337e-005 0.799576
vn -0.600565 5.92337e-005 -0.799576
vn -0.600222 -0.0330617 0.79915
vn -0.600222 -0.0330617 -0.79915
vn -0.600221 0.0331011 0.799149
vn -0.600221 0.0331011 -0.799149
vn -0.570502 0.309441 -0.760772
vn -0.569124 0 0.822252
vn -0.552232 0.83369 -9.05806e-008
vn -0.551229 -0.396945 0.733881
vn -0.551229 -0.396945 -0.733881
vn -0.551225 0.396961 0.733876
vn -0.551225 0.396961 -0.733876
vn -0.548042 0.83645 8.96953e-008
vn -0.543144 -0.834554 0.0922674
vn -0.5277 -0.0114554 0.849353
vn -0.5277 0.0114554 -0.849353
vn -0.411645 0.871313 -0.267135
vn -0.377547 0.92599 -5.62038e-008
vn -0.360033 -0.92821 -0.0938182
vn -0.348695 0.884118 0.311042
vn -0.34476 0 -0.938691
vn -0.314506 0.947751 0.0534272
vn -0.304159 0 0.952621
vn -0.301412 0.435918 0.848013
vn -0.286542 0.955154 -0.0746678
vn -0.283599 -0.881499 -0.377533
vn -0.282624 0.435918 -0.854459
vn -0.243606 0.914052 0.324293
vn -0.243606 0.914052 -0.324293
vn -0.239195 0.0206451 0.970752
vn -0.239195 0.0206451 -0.970752
vn -0.225982 0.0801084 -0.970832
vn -0.225982 0.0801084 0.970832
vn -0.212743 -0.935165 0.283209
vn -0.2047 0 -0.978825
vn -0.185917 0.305141 0.933983
vn -0.164284 0.00108676 0.986412
vn -0.164284 0.00108676 -0.986412
vn -0.154271 0.153653 0.976008
vn -0.154271 0.153653 -0.976008
vn -0.147545 0.305141 -0.940808
vn -0.145373 0 0.989377
vn -0.140374 -0.372556 0.917332
vn -0.140374 -0.372556 -0.917332
vn -0.140373 0.37257 0.917326
vn -0.140373 0.37257 -0.917326
vn -0.138674 0.0651861 -0.98819
vn -0.138674 0.0651861 0.98819
vn -0.130436 0.000423774 0.991457
vn -0.130436 0.000423774 -0.991457
vn -0.129724 -0.0119671 -0.991478
vn -0.129724 0.0119671 0.991478
vn -0.127659 0.00066267 0.991818
vn -0.127659 0.00066267 -0.991818
vn -0.123316 0.992367 -0
vn -0.119545 0.00201826 0.992827
vn -0.119545 0.00201826 -0.992827
vn -0.118952 0.00283073 0.992896
vn -0.118952 0.00283073 -0.992896
vn -0.118837 0.00185744 -0.992912
vn -0.118837 0.00185744 0.992912
vn -0.113529 1.26574e-008 0.993535
vn -0.113529 1.26574e-008 -0.993535
vn -0.113529 4.31614e-005 -0.993535
vn -0.113529 4.31618e-005 0.993535
vn -0.102749 0.0103812 0.994653
vn -0.102749 0.0103812 -0.994653
vn -0.0989897 0.952281 0.288726
vn -0.0989897 0.952281 -0.288726
vn -0.097722 0.16279 0.98181
vn -0.097722 0.16279 -0.98181
vn -0.0972893 0.0119671 -0.995184
vn -0.0972893 -0.0119671 0.995184
vn -0.0972727 -0.0228135 0.994996
vn -0.0972727 -0.0228135 -0.994996
vn -0.0972726 0.0228628 0.994995
vn -0.0972726 0.0228628 -0.994995
vn -0.088531 0.862817 0.497704
vn -0.088531 0.862817 -0.497704
vn -0.0877024 0.000894632 0.996146
vn -0.0877024 0.000894632 -0.996146
vn -0.0452044 0 -0.998978
vn -0.0417838 0.382226 0.923124
vn -0.0357991 0.062016 0.997433
vn -0.0357991 0.062016 -0.997433
vn -0.0288014 -0.924655 0.379716
vn -0.0288014 -0.924655 -0.379716
vn -0.0288003 0.924661 0.379701
vn -0.0288003 0.924661 -0.379701
vn -0.0197906 0.382292 -0.92383
vn -0.00453212 0 0.99999
vn -0.00208883 0.888986 0.45793
vn -0.00208883 0.888986 -0.45793
vn 0 1 -0
vn 0.0256694 0.952057 0.304843
vn 0.0256694 0.952057 -0.304843
vn 0.0285174 0.967939 0.249562
vn 0.0285174 0.967939 -0.249562
vn 0.0285185 -0.967936 -0.249571
vn 0.0432066 -0.924752 0.37811
vn 0.0563381 0.218006 0.97432
vn 0.0563381 0.218006 -0.97432
vn 0.0707325 0.433395 0.898424
vn 0.0709631 0 -0.997479
vn 0.0756307 4.25441e-005 0.997136
vn 0.0756307 4.25441e-005 -0.997136
vn 0.0756307 1.28043e-008 0.997136
vn 0.0756307 1.28043e-008 -0.997136
vn 0.0868413 0.433401 -0.897007
vn 0.105338 0.372965 -0.921847
vn 0.105338 0.372965 0.921847
vn 0.105338 -0.37295 0.921852
vn 0.105338 -0.37295 -0.921852
vn 0.105802 0 0.994387
vn 0.11352 -0.0106152 -0.993479
vn 0.11352 0.0106152 0.993479
vn 0.123844 0.155439 0.980052
vn 0.123844 0.155439 -0.980052
vn 0.136164 0.0230489 0.990418
vn 0.136164 0.0230489 -0.990418
vn 0.136164 -0.0229964 0.990419
vn 0.136164 -0.0229964 -0.990419
vn 0.151256 0.0106075 -0.988438
vn 0.151256 -0.0106075 0.988438
vn 0.19491 0.745291 -0.637614
vn 0.212735 0.93517 -0.283197
vn 0.212735 0.93517 0.283197
vn 0.243615 -0.914045 -0.324306
vn 0.243615 -0.914045 0.324306
vn 0.249684 0.000913612 0.968327
vn 0.249684 0.000913612 -0.968327
vn 0.273349 0.0018077 0.961913
vn 0.273349 0.0018077 -0.961913
vn 0.30449 -0.00110557 0.952515
vn 0.30449 -0.00110557 -0.952515
vn 0.30874 -0.000329077 0.951146
vn 0.30874 -0.000329077 -0.951146
vn 0.310354 0.804273 0.506779
vn 0.328974 0.00319288 0.944334
vn 0.328974 0.00319288 -0.944334
vn 0.330829 0.836141 0.437517
vn 0.330829 0.836141 -0.437517
vn 0.336247 0.0636012 0.939624
vn 0.336247 0.0636012 -0.939624
vn 0.338058 0.00416012 0.941116
vn 0.338058 0.00416012 -0.941116
vn 0.356041 0 -0.93447
vn 0.360019 0.928216 0.0938143
vn 0.360033 -0.92821 0.0938179
vn 0.367976 0.927732 -0.0625102
vn 0.378818 0.295681 0.876966
vn 0.383042 0.923731 -0
vn 0.456038 0.00542275 0.889944
vn 0.456038 0.00542275 -0.889944
vn 0.51145 0.295483 -0.806913
vn 0.527701 0.0114554 0.849353
vn 0.527701 -0.0114554 -0.849353
vn 0.543144 -0.834554 -0.0922671
vn 0.551225 0.396961 0.733875
vn 0.551225 0.396961 -0.733875
vn 0.551229 -0.396945 0.733881
vn 0.551229 -0.396945 -0.733881
vn 0.564075 0 0.825723
vn 0.58104 0.645886 -0.4952
vn 0.600222 0.0331011 0.799148
vn 0.600222 0.0331011 -0.799148
vn 0.600223 -0.0330616 0.799149
vn 0.600223 -0.0330616 -0.799149
vn 0.600565 5.92347e-005 0.799576
vn 0.600565 5.92358e-005 -0.799576
vn 0.600566 1.85939e-008 0.799576
vn 0.600566 1.85939e-008 -0.799576
vn 0.668723 0.0114554 -0.743423
vn 0.668723 -0.0114554 0.743423
vn 0.678588 0.536505 0.501678
vn 0.820955 0.0804046 -0.565303
vn 0.821166 0.0773122 0.565428
vn 0.828374 0.288936 -0.479909
vn 0.843329 0.461875 -0.274713
vn 0.848207 0.388104 0.360444
vn 0.851079 0.205011 0.483357
vn 0.858702 -0.00121833 -0.512474
vn 0.858703 -0.000562434 0.512474
vn 0.873777 0.374205 -0.31062
vn 0.873782 -0.37419 -0.310622
vn 0.889359 -0.00540112 -0.457177
vn 0.889364 -0.00460258 0.457177
vn 0.889893 -0.00610462 0.456128
vn 0.889895 -0.0057975 -0.456128
vn 0.896945 0.375312 0.233731
vn 0.896951 -0.375297 0.233732
vn 0.898883 0.00341078 0.438176
vn 0.898885 0.00259445 -0.438176
vn 0.903176 0.00669593 0.429218
vn 0.90318 0.00609582 -0.429219
vn 0.906893 0.00842208 0.421276
vn 0.906895 0.00821123 -0.421276
vn 0.930802 0 -0.365523
vn 0.933577 0.0147238 -0.358075
vn 0.933595 0.0132771 0.358084
vn 0.942112 0.0161007 0.334911
vn 0.952651 0.0353499 0.302004
vn 0.952654 -0.0352701 0.302004
vn 0.957466 -0.0185624 -0.287947
vn 0.967564 -0.0161613 0.252109
vn 0.967684 2.21467e-008 -0.252165
vn 0.967684 6.69674e-005 -0.252165
vn 0.972372 0.161108 0.16893
vn 0.975768 0.0357859 -0.21586
vn 0.975771 -0.0357094 -0.215861
vn 0.97623 0.0185624 -0.215943
vn 0.983788 0 0.179337
vn 0.985875 2.11045e-008 0.16748
vn 0.985875 6.70918e-005 0.16748
vn 0.986569 0.113464 -0.117502
g group_jims_katana_dark
usemtl jims_katana_dark
s 1
f 243/197/252 242/179/259 253/191/257
f 242/179/259 252/176/247 253/191/257
f 242/179/259 222/169/217 252/176/247
f 252/176/247 222/169/217 232/166/202
f 222/169/217 129/159/153 141/156/162
f 232/166/202 222/169/217 141/156/162
f 141/156/162 129/159/153 77/141/98
f 129/159/153 89/145/108 77/141/98
f 89/145/108 39/136/44 77/141/98
f 77/141/98 39/136/44 29/133/41
f 29/344/41 39/334/44 9/317/15
f 39/334/44 19/312/18 9/317/15
f 19/312/18 20/286/11 9/317/15
f 20/286/11 10/294/25 9/317/15
f 223/209/218 243/197/252 253/191/257
f 223/209/218 253/191/257 233/208/219
f 223/209/218 233/208/219 142/226/169
f 130/221/154 223/209/218 142/226/169
f 90/242/109 130/221/154 78/245/118
f 130/221/154 142/226/169 78/245/118
f 40/260/45 90/242/109 78/245/118
f 40/260/45 78/245/118 30/263/62
f 20/286/11 40/260/45 10/294/25
f 40/260/45 30/263/62 10/294/25
f 253/191/257 252/176/247 250/175/251
f 253/191/257 250/175/251 251/190/250
f 252/176/247 232/166/202 230/165/220
f 250/175/251 252/176/247 230/165/220
f 232/166/202 141/156/162 139/155/170
f 230/165/220 232/166/202 139/155/170
f 141/156/162 77/141/98 75/140/119
f 139/155/170 141/156/162 75/140/119
f 77/141/98 29/133/41 27/132/61
f 75/140/119 77/141/98 27/132/61
f 29/344/41 9/317/15 7/316/22
f 27/343/61 29/344/41 7/316/22
f 9/317/15 10/294/25 8/293/20
f 9/317/15 8/293/20 7/316/22
f 233/208/219 253/191/257 251/190/250
f 233/208/219 251/190/250 231/207/203
f 142/226/169 233/208/219 231/207/203
f 142/226/169 231/207/203 140/224/161
f 78/245/118 142/226/169 140/224/161
f 78/245/118 140/224/161 76/244/97
f 30/263/62 78/245/118 76/244/97
f 30/263/62 76/244/97 28/262/40
f 10/294/25 30/263/62 28/262/40
f 10/294/25 28/262/40 8/293/20
f 255/196/256 242/179/259 243/197/252
f 255/196/256 254/177/249 242/179/259
f 242/179/259 254/177/249 222/169/217
f 254/177/249 234/167/213 222/169/217
f 234/167/213 143/157/167 222/169/217
f 222/169/217 143/157/167 129/159/153
f 129/159/153 79/142/120 89/145/108
f 143/157/167 79/142/120 129/159/153
f 89/145/108 79/142/120 39/136/44
f 79/142/120 31/131/48 39/136/44
f 39/334/44 11/318/16 19/312/18
f 31/346/48 11/318/16 39/334/44
f 11/318/16 20/286/11 19/312/18
f 11/318/16 12/296/23 20/286/11
f 255/196/256 243/197/252 223/209/218
f 235/210/214 255/196/256 223/209/218
f 144/228/168 223/209/218 130/221/154
f 144/228/168 235/210/214 223/209/218
f 80/249/121 144/228/168 130/221/154
f 80/249/121 130/221/154 90/242/109
f 80/249/121 90/242/109 40/260/45
f 32/266/49 80/249/121 40/260/45
f 12/296/23 32/266/49 40/260/45
f 12/296/23 40/260/45 20/286/11
f 258/174/236 254/177/249 255/196/256
f 259/194/230 258/174/236 255/196/256
f 258/174/236 238/164/205 234/167/213
f 254/177/249 258/174/236 234/167/213
f 234/167/213 151/153/157 143/157/167
f 238/164/205 151/153/157 234/167/213
f 151/153/157 67/138/91 79/142/120
f 143/157/167 151/153/157 79/142/120
f 67/138/91 23/129/57 31/131/48
f 79/142/120 67/138/91 31/131/48
f 31/346/48 3/326/34 11/318/16
f 23/354/57 3/326/34 31/346/48
f 4/298/32 12/296/23 11/318/16
f 3/326/34 4/298/32 11/318/16
f 259/194/230 255/196/256 235/210/214
f 239/211/206 259/194/230 235/210/214
f 152/229/156 239/211/206 235/210/214
f 152/229/156 235/210/214 144/228/168
f 152/229/156 144/228/168 80/249/121
f 68/252/92 152/229/156 80/249/121
f 68/252/92 80/249/121 32/266/49
f 24/271/58 68/252/92 32/266/49
f 4/298/32 24/271/58 32/266/49
f 4/298/32 32/266/49 12/296/23
f 36/282/75 24/278/58 4/300/32
f 16/301/71 36/282/75 4/300/32
f 36/282/75 68/265/92 24/278/58
f 36/282/75 72/272/135 68/265/92
f 72/272/135 152/264/156 68/265/92
f 72/272/135 148/270/144 152/264/156
f 148/270/144 227/281/172 152/264/156
f 227/281/172 239/277/206 152/264/156
f 227/281/172 259/299/230 239/277/206
f 227/281/172 247/302/196 259/299/230
f 247/302/196 246/321/194 258/322/236
f 247/302/196 258/322/236 259/299/230
f 246/321/194 226/339/173 258/322/236
f 258/322/236 226/339/173 238/347/205
f 226/339/173 147/358/143 151/364/157
f 238/347/205 226/339/173 151/364/157
f 151/364/157 71/357/134 67/363/91
f 147/358/143 71/357/134 151/364/157
f 67/363/91 35/340/74 23/348/57
f 71/357/134 35/340/74 67/363/91
f 35/340/74 15/320/68 3/323/34
f 23/348/57 35/340/74 3/323/34
f 15/320/68 4/300/32 3/323/34
f 15/320/68 16/301/71 4/300/32
f 226/339/173 214/330/140 208/335/140
f 226/339/173 246/321/194 214/330/140
f 246/321/194 247/302/196 214/330/140
f 247/302/196 215/291/140 214/330/140
f 147/358/143 159/337/140 131/338/140
f 226/339/173 159/337/140 147/358/143
f 226/339/173 208/335/140 159/337/140
f 99/336/140 81/329/140 71/357/134
f 147/358/143 99/336/140 71/357/134
f 147/358/143 131/338/140 99/336/140
f 35/340/74 45/314/140 15/320/68
f 71/357/134 81/329/140 35/340/74
f 81/329/140 45/314/140 35/340/74
f 45/314/140 41/313/140 15/320/68
f 41/313/140 42/310/140 15/320/68
f 42/310/140 16/301/71 15/320/68
f 215/291/140 227/281/172 209/290/140
f 247/302/196 227/281/172 215/291/140
f 160/288/140 148/270/144 132/287/140
f 209/290/140 227/281/172 160/288/140
f 160/288/140 227/281/172 148/270/144
f 132/287/140 148/270/144 100/289/140
f 100/289/140 148/270/144 72/272/135
f 82/295/140 100/289/140 72/272/135
f 46/307/140 36/282/75 16/301/71
f 46/307/140 82/295/140 36/282/75
f 82/295/140 72/272/135 36/282/75
f 42/310/140 46/307/140 16/301/71
f 251/190/250 240/178/260 241/195/253
f 251/190/250 250/175/251 240/178/260
f 240/178/260 250/175/251 220/168/215
f 250/175/251 230/165/220 220/168/215
f 230/165/220 139/155/170 220/168/215
f 220/168/215 139/155/170 127/158/151
f 127/158/151 75/140/119 87/144/111
f 139/155/170 75/140/119 127/158/151
f 87/144/111 75/140/119 37/135/46
f 75/140/119 27/132/61 37/135/46
f 37/333/46 7/316/22 17/311/19
f 27/343/61 7/316/22 37/333/46
f 7/316/22 18/285/12 17/311/19
f 7/316/22 8/293/20 18/285/12
f 251/190/250 241/195/253 221/206/216
f 231/207/203 251/190/250 221/206/216
f 140/224/161 221/206/216 128/220/152
f 140/224/161 231/207/203 221/206/216
f 76/244/97 140/224/161 128/220/152
f 76/244/97 128/220/152 88/241/110
f 76/244/97 88/241/110 38/259/47
f 28/262/40 76/244/97 38/259/47
f 8/293/20 28/262/40 38/259/47
f 8/293/20 38/259/47 18/285/12
f 241/195/253 240/178/260 249/186/255
f 240/178/260 248/173/248 249/186/255
f 240/178/260 220/168/215 248/173/248
f 248/173/248 220/168/215 228/163/211
f 220/168/215 127/158/151 137/154/165
f 228/163/211 220/168/215 137/154/165
f 137/154/165 127/158/151 73/139/122
f 127/158/151 87/144/111 73/139/122
f 87/144/111 37/135/46 73/139/122
f 73/139/122 37/135/46 25/130/50
f 25/345/50 37/333/46 5/315/17
f 37/333/46 17/311/19 5/315/17
f 17/311/19 18/285/12 5/315/17
f 18/285/12 6/292/24 5/315/17
f 221/206/216 241/195/253 249/186/255
f 221/206/216 249/186/255 229/205/212
f 221/206/216 229/205/212 138/223/166
f 128/220/152 221/206/216 138/223/166
f 88/241/110 128/220/152 74/243/123
f 128/220/152 138/223/166 74/243/123
f 38/259/47 88/241/110 74/243/123
f 38/259/47 74/243/123 26/261/51
f 18/285/12 38/259/47 6/292/24
f 38/259/47 26/261/51 6/292/24
f 249/186/255 248/173/248 256/172/237
f 249/186/255 256/172/237 257/183/231
f 248/173/248 228/163/211 256/172/237
f 256/172/237 228/163/211 236/162/207
f 228/163/211 137/154/165 149/152/158
f 236/162/207 228/163/211 149/152/158
f 137/154/165 73/139/122 149/152/158
f 149/152/158 73/139/122 65/137/89
f 73/139/122 25/130/50 65/137/89
f 65/137/89 25/130/50 21/128/55
f 25/345/50 5/315/17 1/319/33
f 21/353/55 25/345/50 1/319/33
f 5/315/17 6/292/24 2/297/31
f 5/315/17 2/297/31 1/319/33
f 229/205/212 249/186/255 257/183/231
f 229/205/212 257/183/231 237/204/208
f 138/223/166 229/205/212 150/225/159
f 229/205/212 237/204/208 150/225/159
f 74/243/123 138/223/166 150/225/159
f 74/243/123 150/225/159 66/247/90
f 26/261/51 74/243/123 66/247/90
f 26/261/51 66/247/90 22/267/56
f 6/292/24 26/261/51 2/297/31
f 26/261/51 22/267/56 2/297/31
f 2/304/31 34/284/72 14/306/65
f 2/304/31 22/280/56 34/284/72
f 22/280/56 66/269/90 34/284/72
f 66/269/90 70/276/133 34/284/72
f 66/269/90 150/268/159 70/276/133
f 150/268/159 146/275/145 70/276/133
f 150/268/159 225/283/174 146/275/145
f 150/268/159 237/279/208 225/283/174
f 257/303/231 245/305/204 225/283/174
f 237/279/208 257/303/231 225/283/174
f 256/327/237 244/324/195 245/305/204
f 257/303/231 256/327/237 245/305/204
f 256/327/237 236/349/207 224/341/175
f 244/324/195 256/327/237 224/341/175
f 224/341/175 149/361/158 145/355/146
f 236/349/207 149/361/158 224/341/175
f 149/361/158 65/362/89 69/356/132
f 145/355/146 149/361/158 69/356/132
f 65/362/89 21/352/55 33/342/80
f 69/356/132 65/362/89 33/342/80
f 21/352/55 1/328/33 33/342/80
f 33/342/80 1/328/33 13/325/60
f 1/328/33 2/304/31 13/325/60
f 2/304/31 14/306/65 13/325/60
f 244/324/195 224/341/175 225/283/174
f 245/305/204 244/324/195 225/283/174
f 225/283/174 224/341/175 146/275/145
f 224/341/175 145/355/146 146/275/145
f 146/275/145 145/355/146 69/356/132
f 146/275/145 69/356/132 70/276/133
f 70/276/133 69/356/132 33/342/80
f 70/276/133 33/342/80 34/284/72
f 33/342/80 13/325/60 14/306/65
f 34/284/72 33/342/80 14/306/65
f 196/37/191 172/38/185 114/22/95
f 172/38/185 109/23/99 114/22/95
f 172/38/185 167/39/178 109/23/99
f 167/39/178 105/24/83 109/23/99
f 165/42/176 107/25/102 167/39/178
f 167/39/178 107/25/102 105/24/83
f 155/33/130 122/30/112 118/28/107
f 155/33/130 118/28/107 178/46/180
f 184/47/189 155/33/130 178/46/180
f 192/59/147 190/55/163 202/58/223
f 198/60/227 192/59/147 202/58/223
f 198/60/227 188/61/221 192/59/147
f 190/55/163 126/32/54 153/34/116
f 153/34/116 111/26/43 120/29/85
f 98/21/42 95/18/38 120/29/85
f 95/18/38 92/16/36 120/29/85
f 92/16/36 91/15/35 120/29/85
f 120/29/85 91/15/35 96/19/79
f 64/14/29 63/13/26 96/19/79
f 63/13/26 62/12/21 96/19/79
f 96/19/79 62/12/21 61/11/14
f 96/19/79 61/11/14 60/10/10
f 60/10/10 59/9/9 93/17/76
f 93/17/76 59/9/9 58/8/7
f 93/17/76 58/8/7 118/28/107
f 58/8/7 57/7/8 118/28/107
f 107/25/102 54/5/5 105/24/83
f 105/24/83 54/5/5 52/4/2
f 109/23/99 105/24/83 51/3/1
f 105/24/83 52/4/2 51/3/1
f 114/22/95 109/23/99 53/2/3
f 109/23/99 51/3/1 53/2/3
f 157/35/59 126/32/54 190/55/163
f 171/63/101 180/62/184 181/64/171
f 192/57/147 157/35/59 190/55/163
f 188/56/221 180/53/184 192/57/147
f 180/53/184 171/49/101 192/57/147
f 158/43/64 157/35/59 192/57/147
f 171/49/101 158/43/64 192/57/147
f 184/47/189 178/46/180 194/52/234
f 200/54/246 184/47/189 194/52/234
f 174/50/229 165/42/176 167/39/178
f 176/48/238 174/50/229 167/39/178
f 176/48/238 167/39/178 172/38/185
f 186/45/240 176/48/238 172/38/185
f 186/45/240 172/38/185 196/37/191
f 212/41/242 186/45/240 196/37/191
f 200/54/246 202/58/223 184/47/189
f 202/58/223 190/55/163 184/47/189
f 190/55/163 153/34/116 184/47/189
f 184/47/189 153/34/116 155/33/130
f 155/33/130 120/29/85 124/31/94
f 124/31/94 93/17/76 122/30/112
f 124/31/94 96/19/79 93/17/76
f 122/30/112 93/17/76 118/28/107
f 153/34/116 120/29/85 155/33/130
f 120/29/85 96/19/79 124/31/94
f 126/32/54 111/26/43 153/34/116
f 111/26/43 98/21/42 120/29/85
f 91/15/35 64/14/29 96/19/79
f 96/19/79 60/10/10 93/17/76
f 173/85/186 197/84/192 115/104/96
f 110/103/100 173/85/186 115/104/96
f 168/87/179 173/85/186 110/103/100
f 106/102/84 168/87/179 110/103/100
f 108/100/103 168/87/179 106/102/84
f 108/100/103 166/89/177 168/87/179
f 123/96/113 156/93/131 119/98/106
f 119/98/106 156/93/131 179/86/181
f 156/93/131 185/82/190 179/86/181
f 193/67/148 199/66/224 203/68/222
f 191/71/164 193/67/148 203/68/222
f 189/65/210 199/66/224 193/67/148
f 126/94/54 191/71/164 154/92/117
f 111/101/43 154/92/117 121/97/86
f 95/108/38 98/106/42 121/97/86
f 92/110/36 95/108/38 121/97/86
f 91/111/35 92/110/36 121/97/86
f 91/111/35 121/97/86 97/107/78
f 63/113/26 64/112/29 97/107/78
f 62/114/21 63/113/26 97/107/78
f 62/114/21 97/107/78 61/115/14
f 61/115/14 97/107/78 60/116/10
f 59/117/9 60/116/10 94/109/77
f 59/117/9 94/109/77 58/118/7
f 58/118/7 94/109/77 119/98/106
f 57/119/8 58/118/7 119/98/106
f 54/121/5 108/100/103 106/102/84
f 54/121/5 106/102/84 52/122/2
f 52/122/2 106/102/84 51/123/1
f 106/102/84 110/103/100 51/123/1
f 51/123/1 110/103/100 53/124/3
f 110/103/100 115/104/96 53/124/3
f 126/94/54 157/91/59 191/71/164
f 157/91/59 193/69/148 191/71/164
f 181/80/171 189/70/210 193/69/148
f 171/81/101 181/80/171 193/69/148
f 157/91/59 158/90/64 193/69/148
f 158/90/64 171/81/101 193/69/148
f 179/86/181 185/82/190 195/79/235
f 185/82/190 201/78/245 195/79/235
f 175/76/228 177/75/239 168/87/179
f 166/89/177 175/76/228 168/87/179
f 177/75/239 187/74/241 173/85/186
f 168/87/179 177/75/239 173/85/186
f 187/74/241 213/73/243 197/84/192
f 173/85/186 187/74/241 197/84/192
f 203/68/222 201/78/245 185/82/190
f 191/71/164 203/68/222 185/82/190
f 154/92/117 191/71/164 185/82/190
f 154/92/117 185/82/190 156/93/131
f 121/97/86 156/93/131 125/95/93
f 97/107/78 125/95/93 94/109/77
f 94/109/77 125/95/93 123/96/113
f 94/109/77 123/96/113 119/98/106
f 121/97/86 154/92/117 156/93/131
f 97/107/78 121/97/86 125/95/93
f 111/101/43 126/94/54 154/92/117
f 98/106/42 111/101/43 121/97/86
f 64/112/29 91/111/35 97/107/78
f 60/116/10 97/107/78 94/109/77
f 198/60/227 202/58/223 203/68/222
f 199/66/224 198/60/227 203/68/222
f 188/61/221 198/60/227 199/66/224
f 189/65/210 188/61/221 199/66/224
f 180/62/184 188/61/221 189/65/210
f 181/64/171 180/62/184 189/65/210
f 202/58/223 200/54/246 201/78/245
f 203/68/222 202/58/223 201/78/245
f 200/54/246 194/52/234 195/79/235
f 201/78/245 200/54/246 195/79/235
f 175/76/228 174/50/229 177/75/239
f 177/75/239 174/50/229 176/48/238
f 176/48/238 186/45/240 187/74/241
f 177/75/239 176/48/238 187/74/241
f 186/45/240 212/41/242 213/73/243
f 187/74/241 186/45/240 213/73/243
f 125/95/93 156/93/131 123/96/113
f 155/33/130 124/31/94 122/30/112
f 118/28/107 57/7/8 112/27/104
f 112/27/104 57/7/8 56/6/6
f 112/27/104 56/6/6 107/25/102
f 107/25/102 56/6/6 54/5/5
f 178/46/180 118/28/107 169/44/182
f 169/44/182 118/28/107 112/27/104
f 165/42/176 112/27/104 107/25/102
f 169/44/182 112/27/104 165/42/176
f 182/51/233 178/46/180 169/44/182
f 194/52/234 178/46/180 182/51/233
f 174/50/229 169/44/182 165/42/176
f 182/51/233 169/44/182 174/50/229
f 194/52/234 182/51/233 183/77/232
f 195/79/235 194/52/234 183/77/232
f 182/51/233 174/50/229 175/76/228
f 183/77/232 182/51/233 175/76/228
f 179/86/181 183/77/232 170/88/183
f 179/86/181 195/79/235 183/77/232
f 170/88/183 175/76/228 166/89/177
f 170/88/183 183/77/232 175/76/228
f 119/98/106 170/88/183 113/99/105
f 119/98/106 179/86/181 170/88/183
f 113/99/105 170/88/183 166/89/177
f 113/99/105 166/89/177 108/100/103
f 57/119/8 119/98/106 113/99/105
f 57/119/8 113/99/105 56/120/6
f 56/120/6 113/99/105 108/100/103
f 56/120/6 108/100/103 54/121/5
f 116/20/126 114/22/95 55/1/4
f 114/22/95 53/2/3 55/1/4
f 53/124/3 115/104/96 55/125/4
f 115/104/96 117/105/127 55/125/4
f 205/36/199 196/37/191 116/20/126
f 196/37/191 114/22/95 116/20/126
f 212/41/242 196/37/191 205/36/199
f 212/41/242 205/36/199 217/40/254
f 197/84/192 206/83/200 117/105/127
f 115/104/96 197/84/192 117/105/127
f 206/83/200 213/73/243 218/72/261
f 197/84/192 213/73/243 206/83/200
f 212/41/242 217/40/254 218/72/261
f 213/73/243 212/41/242 218/72/261
f 217/237/254 205/238/198 216/253/226
f 205/238/198 204/250/187 216/253/226
f 206/200/198 218/202/261 219/184/225
f 207/192/188 206/200/198 219/184/225
f 216/253/226 204/250/187 210/255/197
f 207/192/188 219/184/225 211/182/201
f 135/246/138 103/240/124 133/254/129
f 133/254/129 103/240/124 101/248/82
f 104/198/125 136/193/139 134/181/136
f 104/198/125 134/181/136 102/185/87
f 101/248/82 103/240/124 83/239/70
f 103/240/124 85/236/114 83/239/70
f 104/198/125 102/185/87 84/199/73
f 86/201/115 104/198/125 84/199/73
f 161/256/149 135/246/138 133/254/129
f 163/251/141 135/246/138 161/256/149
f 210/255/197 204/250/187 161/256/149
f 204/250/187 163/251/141 161/256/149
f 85/236/114 49/222/66 83/239/70
f 83/239/70 49/222/66 47/230/39
f 50/214/63 86/201/115 84/199/73
f 50/214/63 84/199/73 48/212/52
f 47/230/39 49/222/66 43/227/28
f 50/214/63 48/212/52 44/213/30
f 49/222/66 50/214/63 43/227/28
f 50/214/63 44/213/30 43/227/28
f 55/219/140 50/214/63 49/222/66
f 85/236/114 55/219/140 49/222/66
f 85/236/114 116/235/140 55/219/140
f 103/240/124 116/235/140 85/236/114
f 135/246/138 116/235/140 103/240/124
f 135/246/138 163/251/141 116/235/140
f 204/250/187 205/238/198 163/251/141
f 163/251/141 205/238/198 116/235/140
f 55/219/140 86/201/115 50/214/63
f 117/203/140 86/201/115 55/219/140
f 117/203/140 104/198/125 86/201/115
f 117/203/140 136/193/139 104/198/125
f 164/187/142 136/193/139 117/203/140
f 206/200/198 207/192/188 164/187/142
f 206/200/198 164/187/142 117/203/140
f 136/193/139 162/180/155 134/181/136
f 136/193/139 164/187/142 162/180/155
f 207/192/188 211/182/201 162/180/155
f 164/187/142 207/192/188 162/180/155
f 218/143/261 217/134/254 214/126/258
f 218/143/261 214/126/258 215/146/244
f 217/134/254 216/127/226 214/126/258
f 219/147/225 218/143/261 215/146/244
f 216/360/226 210/351/197 208/350/209
f 214/359/258 216/360/226 208/350/209
f 211/149/201 219/147/225 215/146/244
f 211/149/201 215/146/244 209/148/193
f 133/309/129 101/274/82 99/273/88
f 131/308/137 133/309/129 99/273/88
f 102/171/87 134/161/136 132/160/128
f 102/171/87 132/160/128 100/170/81
f 101/274/82 83/258/70 81/257/69
f 99/273/88 101/274/82 81/257/69
f 84/189/73 102/171/87 100/170/81
f 84/189/73 100/170/81 82/188/67
f 161/332/149 133/309/129 131/308/137
f 159/331/160 161/332/149 131/308/137
f 210/351/197 161/332/149 159/331/160
f 208/350/209 210/351/197 159/331/160
f 83/258/70 47/234/39 45/233/53
f 81/257/69 83/258/70 45/233/53
f 48/216/52 84/189/73 82/188/67
f 48/216/52 82/188/67 46/215/37
f 47/234/39 43/232/28 41/231/27
f 45/233/53 47/234/39 41/231/27
f 44/218/30 48/216/52 46/215/37
f 44/218/30 46/215/37 42/217/13
f 43/232/28 44/218/30 42/217/13
f 43/232/28 42/217/13 41/231/27
f 134/161/136 162/151/155 160/150/150
f 134/161/136 160/150/150 132/160/128
f 162/151/155 211/149/201 209/148/193
f 162/151/155 209/148/193 160/150/150
