####
#
#	OBJ File Generated by LightWave3D
#	LightWave3D OBJ Export v2.3
#
####
o jims_katana_dark_scabbard.obj
mtllib jims_katana_dark_scabbard.mtl
g default
v -0.0264639 0.169054 -0.00553417
v -0.0262727 0.192096 -0.00588587
v -0.0261713 0.192974 0.00586666
v -0.0260172 0.169343 0.0062548
v -0.0257403 0.252188 -0.00483441
v -0.0257009 0.240122 0.00646381
v -0.025598 0.240563 -0.00579239
v -0.0252075 0.251787 0.00718487
v -0.0235079 0.103105 0.00447113
v -0.0235079 0.103105 -0.00447113
v -0.0235079 0.845698 0.00447113
v -0.0235079 0.845698 -0.00447113
v -0.0230558 0.314751 0.00438431
v -0.0230558 0.314751 -0.00438431
v -0.0230558 0.423511 0.00438431
v -0.0230558 0.423511 -0.00438431
v -0.0230558 0.432571 0.00438431
v -0.0230558 0.432571 -0.00438431
v -0.0230558 0.524644 0.00438431
v -0.0230558 0.524644 -0.00438431
v -0.0230558 0.533704 0.00438431
v -0.0230558 0.533704 -0.00438431
v -0.0230558 0.625825 0.00438431
v -0.0230558 0.625825 -0.00438431
v -0.0230558 0.634885 0.00438431
v -0.0230558 0.634885 -0.00438431
v -0.0230558 0.727006 0.00438431
v -0.0230558 0.727006 -0.00438431
v -0.0230558 0.736066 0.00438431
v -0.0230558 0.736066 -0.00438431
v -0.0228297 0.120399 0.00434091
v -0.0228297 0.120399 -0.00434091
v -0.0228297 0.212825 0.00434091
v -0.0228297 0.212825 -0.00434091
v -0.0228297 0.222855 0.00434091
v -0.0228297 0.222855 -0.00434091
v -0.0228297 0.33245 0.00434091
v -0.0228297 0.33245 -0.00434091
v -0.0228297 0.828404 0.00434091
v -0.0228297 0.828404 -0.00434091
v -0.022559 0.102156 0.00422387
v -0.022559 0.102156 -0.00422387
v -0.022559 0.846646 0.00422387
v -0.022559 0.846646 -0.00422387
v -0.021902 0.239326 -0.00495604
v -0.0218573 0.194201 0.0048996
v -0.0218543 0.253331 -0.00410457
v -0.0218311 0.193323 -0.00489082
v -0.021645 0.238885 0.00544373
v -0.0215849 0.2526 -0.012427
v -0.0213507 0.166612 0.00405692
v -0.0213507 0.166612 -0.00405692
v -0.0213507 0.269068 0.00405692
v -0.0213507 0.269068 -0.00405692
v -0.0213507 0.377616 0.00405692
v -0.0213507 0.377616 -0.00405692
v -0.0213507 0.478749 0.00405692
v -0.0213507 0.478749 -0.00405692
v -0.0213507 0.57993 0.00405692
v -0.0213507 0.57993 -0.00405692
v -0.0213507 0.681111 0.00405692
v -0.0213507 0.681111 -0.00405692
v -0.0213507 0.782381 0.00405692
v -0.0213507 0.782381 -0.00405692
v -0.0212629 0.241085 -0.0132661
v -0.0211806 0.167689 -0.00442933
v -0.0208656 0.25293 0.00594732
v -0.020863 0.167977 0.00501569
v -0.019905 0.191572 -0.0148031
v -0.0198952 0.193666 0.0168509
v -0.0195624 0.168803 -0.0152451
v -0.0194513 0.103105 0.0117264
v -0.0194513 0.103105 -0.0117264
v -0.0194513 0.845698 0.0117264
v -0.0194513 0.845698 -0.0117264
v -0.0194381 0.17061 0.0170121
v -0.0190906 0.239343 0.017987
v -0.0190779 0.314751 0.0114987
v -0.0190779 0.314751 -0.0114987
v -0.0190779 0.423511 0.0114987
v -0.0190779 0.423511 -0.0114987
v -0.0190779 0.432571 0.0114987
v -0.0190779 0.432571 -0.0114987
v -0.0190779 0.524644 0.0114987
v -0.0190779 0.524644 -0.0114987
v -0.0190779 0.533704 0.0114987
v -0.0190779 0.533704 -0.0114987
v -0.0190779 0.625825 0.0114987
v -0.0190779 0.625825 -0.0114987
v -0.0190779 0.634885 0.0114987
v -0.0190779 0.634885 -0.0114987
v -0.0190779 0.727006 0.0114987
v -0.0190779 0.727006 -0.0114987
v -0.0190779 0.736066 0.0114987
v -0.0190779 0.736066 -0.0114987
v -0.0188912 0.120399 0.0113849
v -0.0188912 0.120399 -0.0113849
v -0.0188912 0.212825 0.0113849
v -0.0188912 0.212825 -0.0113849
v -0.0188912 0.222855 0.0113849
v -0.0188912 0.222855 -0.0113849
v -0.0188912 0.33245 0.0113849
v -0.0188912 0.33245 -0.0113849
v -0.0188912 0.828404 0.0113849
v -0.0188912 0.828404 -0.0113849
v -0.018828 0.102156 0.0108967
v -0.018828 0.102156 -0.0108967
v -0.018828 0.846646 0.0108967
v -0.018828 0.846646 -0.0108967
v -0.0182782 0.253744 -0.0105233
v -0.0181802 0.251182 0.0176648
v -0.0179801 0.239848 -0.011218
v -0.0176699 0.166612 0.0106401
v -0.0176699 0.166612 -0.0106401
v -0.0176699 0.269068 0.0106401
v -0.0176699 0.269068 -0.0106401
v -0.0176699 0.377616 0.0106401
v -0.0176699 0.377616 -0.0106401
v -0.0176699 0.478749 0.0106401
v -0.0176699 0.478749 -0.0106401
v -0.0176699 0.57993 0.0106401
v -0.0176699 0.57993 -0.0106401
v -0.0176699 0.681111 0.0106401
v -0.0176699 0.681111 -0.0106401
v -0.0176699 0.782381 0.0106401
v -0.0176699 0.782381 -0.0106401
v -0.0174114 0.102156 0.00229228
v -0.0174114 0.102156 -0.00229228
v -0.0166498 0.102156 0.00358041
v -0.0166498 0.102156 -0.00358041
v -0.0166213 0.102953 0.00207615
v -0.0166213 0.102953 -0.00207615
v -0.0163623 0.838058 0.00251412
v -0.0163623 0.838058 -0.00251412
v -0.0161033 0.102953 0.00295209
v -0.0161033 0.102953 -0.00295209
v -0.0157027 0.192799 -0.0116779
v -0.0145915 0.167437 -0.0113713
v -0.014242 0.194893 0.0120627
v -0.0133637 0.169245 0.0116958
v -0.0131376 0.23922 0.0123533
v -0.0125531 0.252326 0.0121972
v -0.0121158 0.195625 0.020181
v -0.0115589 0.2373 0.0201342
v -0.0102595 0.235357 0.0283899
v -0.0102176 0.194809 0.0130382
v -0.0101216 0.238426 0.0131148
v -0.0101 0.198806 0.0287567
v -0.00894167 0.252848 -0.0179522
v -0.00890669 0.241489 -0.0181801
v -0.00791356 0.168652 -0.0184909
v -0.00782812 0.19579 0.0225456
v -0.00775348 0.191532 -0.0182117
v -0.00770218 0.238869 0.023996
v -0.00741095 0.102156 0.00743035
v -0.00741095 0.102156 -0.00743035
v -0.00740108 0.194283 0.0244563
v -0.00736625 0.103105 0.0145249
v -0.00736625 0.103105 -0.0145249
v -0.00736625 0.845698 0.0145249
v -0.00736625 0.845698 -0.0145249
v -0.00732179 0.251376 0.0134297
v -0.00725782 0.102156 0.013576
v -0.00725782 0.102156 -0.013576
v -0.00725782 0.846646 0.013576
v -0.00725782 0.846646 -0.013576
v -0.00722753 0.314751 0.0142428
v -0.00722753 0.314751 -0.0142428
v -0.00722753 0.423511 0.0142428
v -0.00722753 0.423511 -0.0142428
v -0.00722753 0.432571 0.0142428
v -0.00722753 0.432571 -0.0142428
v -0.00722753 0.524644 0.0142428
v -0.00722753 0.524644 -0.0142428
v -0.00722753 0.533704 0.0142428
v -0.00722753 0.533704 -0.0142428
v -0.00722753 0.625825 0.0142428
v -0.00722753 0.625825 -0.0142428
v -0.00722753 0.634885 0.0142428
v -0.00722753 0.634885 -0.0142428
v -0.00722753 0.727006 0.0142428
v -0.00722753 0.727006 -0.0142428
v -0.00722753 0.736066 0.0142428
v -0.00722753 0.736066 -0.0142428
v -0.00722371 0.254663 0.0127814
v -0.00715817 0.120399 0.0141018
v -0.00715817 0.120399 -0.0141018
v -0.00715817 0.212825 0.0141018
v -0.00715817 0.212825 -0.0141018
v -0.00715817 0.222855 0.0141018
v -0.00715817 0.222855 -0.0141018
v -0.00715817 0.33245 0.0141018
v -0.00715817 0.33245 -0.0141018
v -0.00715817 0.828404 0.0141018
v -0.00715817 0.828404 -0.0141018
v -0.00715399 0.102953 0.00668141
v -0.00715399 0.102953 -0.00668141
v -0.0071539 0.236287 0.0279801
v -0.00710864 0.250232 0.0236968
v -0.00705651 0.166864 0.0122911
v -0.00686555 0.167481 0.0272444
v -0.00686314 0.164713 0.0226302
v -0.00673853 0.240252 -0.0137545
v -0.00671605 0.197291 0.0277401
v -0.00671424 0.253992 -0.0134802
v -0.00670443 0.166612 0.0131793
v -0.00670443 0.166612 -0.0131793
v -0.00670443 0.269068 0.0131793
v -0.00670443 0.269068 -0.0131793
v -0.00670443 0.377616 0.0131793
v -0.00670443 0.377616 -0.0131793
v -0.00670443 0.478749 0.0131793
v -0.00670443 0.478749 -0.0131793
v -0.00670443 0.57993 0.0131793
v -0.00670443 0.57993 -0.0131793
v -0.00670443 0.681111 0.0131793
v -0.00670443 0.681111 -0.0131793
v -0.00670443 0.782381 0.0131793
v -0.00670443 0.782381 -0.0131793
v -0.00669981 0.17084 0.0132637
v -0.00661023 0.171869 0.0297574
v -0.00658435 0.172205 0.0238614
v -0.00621944 0.256685 0.0210437
v -0.00604249 0.2548 0.0261907
v -0.00602978 0.194146 0.0300599
v -0.00595003 0.248667 0.0291885
v -0.00583318 0.19276 -0.0137012
v -0.00564611 0.167286 -0.0131927
v -0.000641549 0.233813 0.0313508
v -0.000531252 0.235386 0.028723
v -0.00012493 0.102156 0.00941709
v -0.00012493 0.102156 -0.00941709
v 1.40021e-005 0.102953 0.00863596
v 1.40021e-005 0.102953 -0.00863596
v 1.40021e-005 0.838058 0.00863596
v 1.40021e-005 0.838058 -0.00863596
v 0.000446514 0.200202 0.031013
v 0.000560777 0.19843 0.0295252
v 0.000602548 0.188077 0.0303348
v 0.00453678 0.240302 -0.0137535
v 0.00457556 0.254326 -0.0134736
v 0.00492364 0.192575 -0.0136976
v 0.00532308 0.167585 -0.0131987
v 0.00607964 0.241539 -0.0184308
v 0.00616036 0.253182 -0.0181403
v 0.0062599 0.166612 0.0131793
v 0.0062599 0.166612 -0.0131793
v 0.0062599 0.269068 0.0131793
v 0.0062599 0.269068 -0.0131793
v 0.0062599 0.377616 0.0131793
v 0.0062599 0.377616 -0.0131793
v 0.0062599 0.478749 0.0131793
v 0.0062599 0.478749 -0.0131793
v 0.0062599 0.57993 0.0131793
v 0.0062599 0.57993 -0.0131793
v 0.0062599 0.681111 0.0131793
v 0.0062599 0.681111 -0.0131793
v 0.0062599 0.782381 0.0131793
v 0.0062599 0.782381 -0.0131793
v 0.00632571 0.102156 0.00997218
v 0.00632571 0.102156 -0.00997218
v 0.0063454 0.102953 0.00918079
v 0.0063454 0.102953 -0.00918079
v 0.00637404 0.248462 0.0296317
v 0.00650611 0.194345 0.0296311
v 0.00652543 0.19813 0.027495
v 0.00653122 0.172955 0.0301085
v 0.00659533 0.191348 -0.0183482
v 0.00664389 0.164582 0.0230516
v 0.00671365 0.120399 0.0141018
v 0.00671365 0.120399 -0.0141018
v 0.00671365 0.212825 0.0141018
v 0.00671365 0.212825 -0.0141018
v 0.00671365 0.222855 0.0141018
v 0.00671365 0.222855 -0.0141018
v 0.00671365 0.33245 0.0141018
v 0.00671365 0.33245 -0.0141018
v 0.00671365 0.828404 0.0141018
v 0.00671365 0.828404 -0.0141018
v 0.00678301 0.314751 0.0142428
v 0.00678301 0.314751 -0.0142428
v 0.00678301 0.423511 0.0142428
v 0.00678301 0.423511 -0.0142428
v 0.00678301 0.432571 0.0142428
v 0.00678301 0.432571 -0.0142428
v 0.00678301 0.524644 0.0142428
v 0.00678301 0.524644 -0.0142428
v 0.00678301 0.533704 0.0142428
v 0.00678301 0.533704 -0.0142428
v 0.00678301 0.625825 0.0142428
v 0.00678301 0.625825 -0.0142428
v 0.00678301 0.634885 0.0142428
v 0.00678301 0.634885 -0.0142428
v 0.00678301 0.727006 0.0142428
v 0.00678301 0.727006 -0.0142428
v 0.00678301 0.736066 0.0142428
v 0.00678301 0.736066 -0.0142428
v 0.00681329 0.102156 0.013576
v 0.00681329 0.102156 -0.013576
v 0.00681329 0.846646 0.013576
v 0.00681329 0.846646 -0.013576
v 0.00692172 0.103105 0.0145249
v 0.00692172 0.103105 -0.0145249
v 0.00692172 0.845698 0.0145249
v 0.00692172 0.845698 -0.0145249
v 0.00701752 0.167474 0.0279125
v 0.00707003 0.194533 0.0235375
v 0.00708647 0.25477 0.0260482
v 0.00710912 0.172839 0.0236904
v 0.00718768 0.196647 0.0214871
v 0.00726794 0.25097 0.0133483
v 0.00726794 0.254095 0.0126808
v 0.00727376 0.166733 0.0121407
v 0.00727376 0.171473 0.0130526
v 0.00739624 0.256117 0.0205445
v 0.00741333 0.168951 -0.0183815
v 0.00744969 0.236298 0.0276356
v 0.00784199 0.238744 0.0234728
v 0.00807344 0.249826 0.0234423
v 0.00948565 0.235183 0.0291026
v 0.0102978 0.199206 0.0281596
v 0.0108876 0.196682 0.0127763
v 0.0108876 0.235943 0.0128442
v 0.0123934 0.251424 0.0121513
v 0.0124788 0.102953 0.00895935
v 0.0124788 0.102953 -0.00895935
v 0.0125487 0.102156 0.0097475
v 0.0125487 0.102156 -0.0097475
v 0.0125896 0.195774 0.0188425
v 0.0125896 0.236542 0.0194739
v 0.0129169 0.238339 0.012321
v 0.0129834 0.17109 0.0117219
v 0.0138874 0.194889 0.0120418
v 0.0154338 0.253795 -0.0113945
v 0.0155093 0.102953 0.00852939
v 0.0155093 0.102953 -0.00852939
v 0.0157987 0.239618 -0.0116253
v 0.0158977 0.102156 0.00927237
v 0.0158977 0.102156 -0.00927237
v 0.0159603 0.838058 0.00804367
v 0.0159603 0.838058 -0.00804367
v 0.0160327 0.192889 -0.0115005
v 0.0164114 0.102953 0.00755796
v 0.0164114 0.102953 -0.00755796
v 0.0165689 0.168251 -0.0108285
v 0.0172015 0.102156 0.00786825
v 0.0172015 0.102156 -0.00786825
v 0.0172253 0.166612 0.0106401
v 0.0172253 0.166612 -0.0106401
v 0.0172253 0.269068 0.0106401
v 0.0172253 0.269068 -0.0106401
v 0.0172253 0.377616 0.0106401
v 0.0172253 0.377616 -0.0106401
v 0.0172253 0.478749 0.0106401
v 0.0172253 0.478749 -0.0106401
v 0.0172253 0.57993 0.0106401
v 0.0172253 0.57993 -0.0106401
v 0.0172253 0.681111 0.0106401
v 0.0172253 0.681111 -0.0106401
v 0.0172253 0.782381 0.0106401
v 0.0172253 0.782381 -0.0106401
v 0.0179715 0.250281 0.0176206
v 0.0182613 0.238833 0.0174422
v 0.0183835 0.102156 0.0108967
v 0.0183835 0.102156 -0.0108967
v 0.0183835 0.846646 0.0108967
v 0.0183835 0.846646 -0.0108967
v 0.0184467 0.120399 0.0113849
v 0.0184467 0.120399 -0.0113849
v 0.0184467 0.212825 0.0113849
v 0.0184467 0.212825 -0.0113849
v 0.0184467 0.222855 0.0113849
v 0.0184467 0.222855 -0.0113849
v 0.0184467 0.33245 0.0113849
v 0.0184467 0.33245 -0.0113849
v 0.0184467 0.828404 0.0113849
v 0.0184467 0.828404 -0.0113849
v 0.0186334 0.314751 0.0114987
v 0.0186334 0.314751 -0.0114987
v 0.0186334 0.423511 0.0114987
v 0.0186334 0.423511 -0.0114987
v 0.0186334 0.432571 0.0114987
v 0.0186334 0.432571 -0.0114987
v 0.0186334 0.524644 0.0114987
v 0.0186334 0.524644 -0.0114987
v 0.0186334 0.533704 0.0114987
v 0.0186334 0.533704 -0.0114987
v 0.0186334 0.625825 0.0114987
v 0.0186334 0.625825 -0.0114987
v 0.0186334 0.634885 0.0114987
v 0.0186334 0.634885 -0.0114987
v 0.0186334 0.727006 0.0114987
v 0.0186334 0.727006 -0.0114987
v 0.0186334 0.736066 0.0114987
v 0.0186334 0.736066 -0.0114987
v 0.0190067 0.103105 0.0117264
v 0.0190067 0.103105 -0.0117264
v 0.0190067 0.845698 0.0117264
v 0.0190067 0.845698 -0.0117264
v 0.0194186 0.194033 0.0168494
v 0.0196355 0.252651 -0.0144966
v 0.019678 0.240855 -0.0144798
v 0.0197527 0.172456 0.0178335
v 0.0197748 0.170095 0.00630107
v 0.0198731 0.191661 -0.0142553
v 0.0207286 0.169617 -0.013547
v 0.0209062 0.166612 0.00405692
v 0.0209062 0.166612 -0.00405692
v 0.0209062 0.269068 0.00405692
v 0.0209062 0.269068 -0.00405692
v 0.0209062 0.377616 0.00405692
v 0.0209062 0.377616 -0.00405692
v 0.0209062 0.478749 0.00405692
v 0.0209062 0.478749 -0.00405692
v 0.0209062 0.57993 0.00405692
v 0.0209062 0.57993 -0.00405692
v 0.0209062 0.681111 0.00405692
v 0.0209062 0.681111 -0.00405692
v 0.0209062 0.782381 0.00405692
v 0.0209062 0.782381 -0.00405692
v 0.0209088 0.194729 0.00583447
v 0.0209839 0.169041 -0.00284165
v 0.0211492 0.252486 -0.00467318
v 0.021456 0.251889 0.0039628
v 0.021703 0.238823 -0.00454879
v 0.0217694 0.193586 -0.00372539
v 0.0218995 0.238029 0.00422108
v 0.0221145 0.102156 0.00422387
v 0.0221145 0.102156 -0.00422387
v 0.0221145 0.846646 0.00422387
v 0.0221145 0.846646 -0.00422387
v 0.0223852 0.120399 0.00434091
v 0.0223852 0.120399 -0.00434091
v 0.0223852 0.212825 0.00434091
v 0.0223852 0.212825 -0.00434091
v 0.0223852 0.222855 0.00434091
v 0.0223852 0.222855 -0.00434091
v 0.0223852 0.33245 0.00434091
v 0.0223852 0.33245 -0.00434091
v 0.0223852 0.828404 0.00434091
v 0.0223852 0.828404 -0.00434091
v 0.0226112 0.314751 0.00438431
v 0.0226112 0.314751 -0.00438431
v 0.0226112 0.423511 0.00438431
v 0.0226112 0.423511 -0.00438431
v 0.0226112 0.432571 0.00438431
v 0.0226112 0.432571 -0.00438431
v 0.0226112 0.524644 0.00438431
v 0.0226112 0.524644 -0.00438431
v 0.0226112 0.533704 0.00438431
v 0.0226112 0.533704 -0.00438431
v 0.0226112 0.625825 0.00438431
v 0.0226112 0.625825 -0.00438431
v 0.0226112 0.634885 0.00438431
v 0.0226112 0.634885 -0.00438431
v 0.0226112 0.727006 0.00438431
v 0.0226112 0.727006 -0.00438431
v 0.0226112 0.736066 0.00438431
v 0.0226112 0.736066 -0.00438431
v 0.0230634 0.103105 0.00447113
v 0.0230634 0.103105 -0.00447113
v 0.0230634 0.845698 0.00447113
v 0.0230634 0.845698 -0.00447113
v 0.0252938 0.193502 0.00705809
v 0.0257483 0.192359 -0.00440629
v 0.0257574 0.171461 0.00820735
v 0.0260311 0.239266 0.00501743
v 0.0261378 0.24006 -0.00547829
v 0.0262331 0.250745 0.00484512
v 0.0263757 0.170406 -0.0035718
v 0.0264152 0.251343 -0.00583675
vt 0.27953 0.752514
vt 0.28049 0.853021
vt 0.280748 0.609351
vt 0.281517 0.556837
vt 0.284233 0.552368
vt 0.285774 0.50356
vt 0.286936 0.472229
vt 0.294519 0.552744
vt 0.295434 0.629075
vt 0.2961 0.513065
vt 0.298062 0.85529
vt 0.298323 0.750692
vt 0.302885 0.451389
vt 0.305421 0.53931
vt 0.306867 0.526587
vt 0.310404 0.626315
vt 0.311532 0.557726
vt 0.311587 0.504947
vt 0.31164 0.610459
vt 0.312842 0.543297
vt 0.31287 0.524217
vt 0.313549 0.474213
vt 0.313814 0.455043
vt 0.315198 0.860193
vt 0.315838 0.742694
vt 0.318224 0.708944
vt 0.318561 0.673469
vt 0.32084 0.923337
vt 0.320886 0.960437
vt 0.321295 0.863375
vt 0.324643 0.845153
vt 0.326522 0.75498
vt 0.328099 0.67072
vt 0.328844 0.748904
vt 0.33086 0.690244
vt 0.333036 0.703633
vt 0.333105 0.720891
vt 0.333386 0.8518
vt 0.335385 0.967282
vt 0.336048 0.623831
vt 0.337088 0.861858
vt 0.337526 0.613383
vt 0.337827 0.558177
vt 0.33794 0.548414
vt 0.338099 0.461336
vt 0.338424 0.517996
vt 0.338429 0.941561
vt 0.338799 0.474194
vt 0.339121 0.927954
vt 0.339235 0.914428
vt 0.339262 0.505924
vt 0.353116 0.850539
vt 0.353303 0.845309
vt 0.354085 0.751034
vt 0.354491 0.75798
vt 0.354651 0.876723
vt 0.361315 0.613137
vt 0.361358 0.625104
vt 0.361977 0.557526
vt 0.362459 0.461827
vt 0.362564 0.474279
vt 0.363218 0.548533
vt 0.363654 0.50578
vt 0.36373 0.517964
vt 0.369459 0.704199
vt 0.370305 0.719688
vt 0.37041 0.690587
vt 0.372689 0.861596
vt 0.374502 0.749125
vt 0.374958 0.67175
vt 0.376717 0.917144
vt 0.376949 0.853097
vt 0.377625 0.928979
vt 0.378857 0.941384
vt 0.379653 0.473793
vt 0.380693 0.505259
vt 0.381841 0.753027
vt 0.382502 0.463346
vt 0.382882 0.846523
vt 0.382899 0.964013
vt 0.383275 0.516039
vt 0.383496 0.70803
vt 0.384625 0.557847
vt 0.384932 0.613745
vt 0.385261 0.674841
vt 0.386493 0.740728
vt 0.387736 0.86187
vt 0.388806 0.625654
vt 0.388809 0.548491
vt 0.393833 0.922564
vt 0.393878 0.859765
vt 0.395773 0.958583
vt 0.404663 0.747163
vt 0.407365 0.504795
vt 0.407402 0.853745
vt 0.407753 0.474353
vt 0.409633 0.613821
vt 0.410298 0.558228
vt 0.410336 0.518286
vt 0.410751 0.460801
vt 0.412694 0.625143
vt 0.413093 0.548222
vt 0.424434 0.743888
vt 0.427912 0.85522
vt 0.436433 0.460825
vt 0.436499 0.517089
vt 0.438524 0.473911
vt 0.438583 0.50436
vt 0.438904 0.625886
vt 0.439072 0.547108
vt 0.44037 0.640508
vt 0.440651 0.791481
vt 0.441362 0.556752
vt 0.441502 0.613518
vt 0.447272 0.640509
vt 0.45396 0.791483
vt 0.455357 0.791483
vt 0.461056 0.791484
vt 0.462453 0.791484
vt 0.463229 0.462205
vt 0.464654 0.515815
vt 0.466835 0.474675
vt 0.467423 0.546982
vt 0.467445 0.622619
vt 0.468127 0.504082
vt 0.470817 0.612706
vt 0.470849 0.55566
vt 0.47127 0.64051
vt 0.475762 0.791485
vt 0.48596 0.791486
vt 0.488227 0.463646
vt 0.489168 0.476561
vt 0.489671 0.517089
vt 0.490782 0.505165
vt 0.493174 0.640512
vt 0.493704 0.610112
vt 0.493838 0.623366
vt 0.493872 0.546875
vt 0.494436 0.555918
vt 0.494683 0.791487
vt 0.503107 0.791487
vt 0.507309 0.791487
vt 0.509129 0.791487
vt 0.510041 0.477684
vt 0.510521 0.464372
vt 0.511601 0.50681
vt 0.511906 0.519089
vt 0.515256 0.640512
vt 0.51715 0.608819
vt 0.517611 0.622616
vt 0.517878 0.554952
vt 0.518454 0.54583
vt 0.529878 0.791487
vt 0.531698 0.791487
vt 0.535899 0.791487
vt 0.53716 0.64051
vt 0.538717 0.460224
vt 0.538958 0.525497
vt 0.539298 0.626547
vt 0.539302 0.479536
vt 0.539783 0.608075
vt 0.540478 0.542657
vt 0.540545 0.508445
vt 0.541499 0.55676
vt 0.544323 0.791486
vt 0.544369 0.528885
vt 0.54649 0.539858
vt 0.548994 0.45635
vt 0.551451 0.629818
vt 0.552696 0.517491
vt 0.553047 0.791485
vt 0.554495 0.553039
vt 0.561159 0.640507
vt 0.563174 0.478032
vt 0.563245 0.791484
vt 0.564258 0.508329
vt 0.566915 0.552874
vt 0.568837 0.559072
vt 0.56884 0.611072
vt 0.579954 0.8054
vt 0.580057 0.53036
vt 0.580561 0.767505
vt 0.581485 0.492303
vt 0.583208 0.805068
vt 0.583303 0.530049
vt 0.583792 0.767966
vt 0.584689 0.492879
vt 0.586443 0.837896
vt 0.587037 0.562844
vt 0.588057 0.735277
vt 0.589282 0.835747
vt 0.589842 0.560704
vt 0.590155 0.460466
vt 0.590829 0.737524
vt 0.592083 0.529
vt 0.592552 0.545276
vt 0.592841 0.462819
vt 0.59371 0.554285
vt 0.59399 0.512136
vt 0.594839 0.529127
vt 0.595289 0.54497
vt 0.596194 0.552657
vt 0.596651 0.512782
vt 0.597234 0.55787
vt 0.59819 0.554962
vt 0.59956 0.493251
vt 0.602099 0.494362
vt 0.604362 0.849385
vt 0.604731 0.574632
vt 0.605283 0.845903
vt 0.605665 0.571124
vt 0.60633 0.933749
vt 0.606333 0.724412
vt 0.606986 0.948964
vt 0.607106 0.727978
vt 0.608564 0.450237
vt 0.609305 0.453764
vt 0.610204 0.469457
vt 0.612256 0.471545
vt 0.613106 0.918124
vt 0.613429 0.467498
vt 0.614233 0.470609
vt 0.618671 0.918124
vt 0.623669 0.470681
vt 0.624673 0.467791
vt 0.624791 0.948964
vt 0.625447 0.933749
vt 0.625585 0.471949
vt 0.62566 0.846256
vt 0.626015 0.571892
vt 0.626439 0.84982
vt 0.62677 0.575409
vt 0.62748 0.728372
vt 0.627768 0.470041
vt 0.628408 0.724892
vt 0.62963 0.454507
vt 0.630546 0.450992
vt 0.634296 0.49548
vt 0.634486 0.556269
vt 0.63526 0.559255
vt 0.636612 0.554113
vt 0.636898 0.49456
vt 0.637976 0.546505
vt 0.638585 0.514269
vt 0.638991 0.555919
vt 0.639384 0.53072
vt 0.640687 0.547008
vt 0.64128 0.513821
vt 0.641925 0.83668
vt 0.64214 0.530794
vt 0.642468 0.562591
vt 0.643459 0.73856
vt 0.644701 0.838922
vt 0.645139 0.564929
vt 0.645518 0.4647
vt 0.646304 0.736417
vt 0.648345 0.462554
vt 0.648939 0.806294
vt 0.649519 0.769195
vt 0.650832 0.532479
vt 0.651756 0.495299
vt 0.652183 0.806747
vt 0.652765 0.768854
vt 0.654052 0.533026
vt 0.654988 0.494963
vt 0.667606 0.985239
vt 0.669014 0.0116399
vt 0.670416 0.842741
vt 0.670429 0.709669
vt 0.67049 0.830572
vt 0.670519 0.697485
vt 0.670587 0.576566
vt 0.670685 0.564385
vt 0.670759 0.443541
vt 0.670858 0.43136
vt 0.670924 0.962613
vt 0.671229 0.288241
vt 0.671987 0.311975
vt 0.672288 0.0342693
vt 0.6727 0.167678
vt 0.672791 0.154291
vt 0.67964 0.903274
vt 0.679742 0.770314
vt 0.679866 0.637203
vt 0.680039 0.504111
vt 0.680176 0.371078
vt 0.680604 0.22821
vt 0.680848 0.0938981
vt 0.697514 0.985953
vt 0.698922 0.0109399
vt 0.699711 0.830688
vt 0.69973 0.709561
vt 0.69973 0.697586
vt 0.699795 0.842649
vt 0.699891 0.576462
vt 0.699899 0.564489
vt 0.700064 0.443436
vt 0.70007 0.431463
vt 0.700226 0.963353
vt 0.700381 0.288407
vt 0.701029 0.311812
vt 0.70158 0.033546
vt 0.70175 0.167592
vt 0.701837 0.154359
vt 0.706918 0.770336
vt 0.706921 0.903353
vt 0.707044 0.637231
vt 0.707217 0.50414
vt 0.707362 0.371126
vt 0.707776 0.228313
vt 0.708126 0.0938099
vt 0.731943 0.98674
vt 0.733316 0.830715
vt 0.73334 0.709559
vt 0.733344 0.697594
vt 0.733349 0.0101728
vt 0.733397 0.842685
vt 0.733505 0.576464
vt 0.733516 0.564501
vt 0.733612 0.963974
vt 0.733677 0.443438
vt 0.733688 0.431475
vt 0.733946 0.28849
vt 0.734393 0.311808
vt 0.734966 0.0329402
vt 0.735031 0.167585
vt 0.735138 0.154336
vt 0.738322 0.770348
vt 0.738443 0.903608
vt 0.738449 0.637244
vt 0.738625 0.504156
vt 0.738775 0.371128
vt 0.73917 0.228362
vt 0.739636 0.0935689
vt 0.761437 0.987441
vt 0.762368 0.830809
vt 0.762428 0.697657
vt 0.762454 0.842687
vt 0.762459 0.709514
vt 0.762512 0.964488
vt 0.762602 0.564568
vt 0.762628 0.576423
vt 0.762771 0.431541
vt 0.762798 0.443398
vt 0.762851 0.00949032
vt 0.763041 0.288567
vt 0.763309 0.311788
vt 0.76385 0.167525
vt 0.763868 0.0324414
vt 0.763903 0.154364
vt 0.765669 0.770353
vt 0.765778 0.903814
vt 0.765803 0.637252
vt 0.765979 0.504167
vt 0.766129 0.371128
vt 0.76649 0.228397
vt 0.766955 0.0933753
vt 0.781194 0.987495
vt 0.781828 0.830778
vt 0.781874 0.964623
vt 0.781883 0.842729
vt 0.781915 0.697619
vt 0.781928 0.709548
vt 0.78209 0.564533
vt 0.782099 0.576462
vt 0.782256 0.431508
vt 0.782269 0.443438
vt 0.782505 0.288546
vt 0.782613 0.00944343
vt 0.782678 0.311833
vt 0.783121 0.167566
vt 0.783176 0.15433
vt 0.783231 0.0323149
vt 0.784027 0.770365
vt 0.784054 0.903879
vt 0.784172 0.637263
vt 0.784348 0.504178
vt 0.7845 0.371148
vt 0.784828 0.228415
vt 0.785216 0.0933231
vt 0.8024 0.98761
vt 0.802693 0.964625
vt 0.802738 0.830743
vt 0.802744 0.842777
vt 0.802845 0.709594
vt 0.802855 0.697583
vt 0.803019 0.576511
vt 0.803032 0.5645
vt 0.803188 0.44349
vt 0.803197 0.431479
vt 0.803422 0.288521
vt 0.803497 0.311876
vt 0.803739 0.903899
vt 0.803805 0.770371
vt 0.803826 0.167618
vt 0.803827 0.00934374
vt 0.803874 0.154304
vt 0.803963 0.637268
vt 0.80405 0.0323235
vt 0.80414 0.504185
vt 0.80429 0.371169
vt 0.804582 0.228428
vt 0.804881 0.0933154
vt 0.822025 0.964652
vt 0.822042 0.903929
vt 0.822074 0.987699
vt 0.822138 0.830834
vt 0.822151 0.842728
vt 0.822195 0.77037
vt 0.822287 0.697663
vt 0.82231 0.709529
vt 0.822365 0.637274
vt 0.822465 0.56458
vt 0.822487 0.576445
vt 0.822541 0.504192
vt 0.822628 0.431559
vt 0.822655 0.443425
vt 0.82269 0.371162
vt 0.822845 0.311842
vt 0.822861 0.288596
vt 0.82295 0.228435
vt 0.82308 0.154368
vt 0.823089 0.167551
vt 0.823165 0.0933093
vt 0.823382 0.0323199
vt 0.823511 0.00927851
vt 0.849379 0.903844
vt 0.849607 0.770381
vt 0.849793 0.637286
vt 0.84997 0.504205
vt 0.850124 0.371187
vt 0.850336 0.228441
vt 0.850477 0.0934267
vt 0.850913 0.964378
vt 0.851083 0.84277
vt 0.851146 0.83076
vt 0.851328 0.709595
vt 0.851346 0.697611
vt 0.851427 0.987196
vt 0.851509 0.576514
vt 0.851526 0.56453
vt 0.851676 0.443497
vt 0.851687 0.431513
vt 0.851714 0.311916
vt 0.851795 0.154357
vt 0.851811 0.167643
vt 0.851884 0.288539
vt 0.852267 0.0326225
vt 0.852874 0.00980405
vt 0.880887 0.903676
vt 0.881162 0.770382
vt 0.881355 0.637293
vt 0.881534 0.504213
vt 0.881685 0.371219
vt 0.881869 0.228461
vt 0.881956 0.0936186
vt 0.884247 0.964095
vt 0.884473 0.84276
vt 0.884588 0.830699
vt 0.884786 0.709646
vt 0.884834 0.697596
vt 0.88491 0.154411
vt 0.884944 0.167738
vt 0.884972 0.576565
vt 0.884985 0.311938
vt 0.885015 0.564515
vt 0.885141 0.443552
vt 0.885177 0.431506
vt 0.885331 0.288501
vt 0.885426 0.986995
vt 0.885596 0.0329408
vt 0.886896 0.0100548
vt 0.908206 0.903581
vt 0.908522 0.770375
vt 0.908722 0.637294
vt 0.908902 0.504213
vt 0.90905 0.371217
vt 0.909212 0.22847
vt 0.909251 0.0937397
vt 0.913185 0.964082
vt 0.913617 0.842647
vt 0.91364 0.83079
vt 0.913722 0.154544
vt 0.913814 0.167679
vt 0.913869 0.311842
vt 0.913899 0.697709
vt 0.913932 0.709565
vt 0.914081 0.564626
vt 0.914118 0.576483
vt 0.914251 0.431612
vt 0.914289 0.443466
vt 0.914446 0.28862
vt 0.914545 0.0330159
vt 0.915032 0.986963
vt 0.916517 0.0101464
vt 0.926513 0.903485
vt 0.926817 0.770392
vt 0.927015 0.637313
vt 0.927195 0.50423
vt 0.927344 0.371233
vt 0.927494 0.228472
vt 0.927554 0.0938769
vt 0.932592 0.963801
vt 0.933089 0.154543
vt 0.933164 0.842642
vt 0.933179 0.167704
vt 0.93318 0.830751
vt 0.933273 0.311871
vt 0.933444 0.697687
vt 0.933481 0.709585
vt 0.933626 0.564604
vt 0.933666 0.576501
vt 0.933801 0.431585
vt 0.933839 0.44348
vt 0.933956 0.0333378
vt 0.933983 0.288609
vt 0.934878 0.986543
vt 0.936368 0.0106052
vt 0.946241 0.903378
vt 0.946466 0.770408
vt 0.946661 0.63733
vt 0.946841 0.504246
vt 0.947002 0.371239
vt 0.947129 0.228455
vt 0.947288 0.0940355
vt 0.953488 0.963304
vt 0.953981 0.154521
vt 0.954042 0.167723
vt 0.954141 0.311958
vt 0.954241 0.842659
vt 0.954248 0.830717
vt 0.954509 0.697658
vt 0.954538 0.709612
vt 0.954691 0.564574
vt 0.954723 0.576528
vt 0.954855 0.0338824
vt 0.954872 0.431545
vt 0.954896 0.443502
vt 0.955038 0.288576
vt 0.956452 0.985876
vt 0.957935 0.0113093
vt 0.964529 0.903378
vt 0.964679 0.77044
vt 0.964871 0.63736
vt 0.96505 0.504275
vt 0.965226 0.371217
vt 0.965332 0.228403
vt 0.965586 0.0941242
vt 0.97313 0.962545
vt 0.973435 0.167927
vt 0.973517 0.154332
vt 0.973625 0.312286
vt 0.973835 0.84286
vt 0.973914 0.830498
vt 0.97408 0.709831
vt 0.974169 0.697437
vt 0.974263 0.576746
vt 0.97435 0.564352
vt 0.974435 0.443719
vt 0.974482 0.0346727
vt 0.974524 0.431322
vt 0.974542 0.288314
vt 0.976504 0.985108
vt 0.97798 0.0121121
vn -0.998787 0.024125 0.0429337
vn -0.998072 0.0584605 0.0208331
vn -0.992167 0.101421 0.0729306
vn -0.985875 1.85463e-008 -0.167481
vn -0.985875 -0.000135297 -0.167482
vn -0.985875 -0.000135246 -0.167482
vn -0.985875 -0.000115934 -0.167482
vn -0.985873 -0.00224017 -0.167481
vn -0.985873 0.00237901 -0.167481
vn -0.985872 -0.0027048 -0.167481
vn -0.981549 0.121144 0.147939
vn -0.976229 -0.0185624 0.215944
vn -0.976171 -0.0215452 0.215928
vn -0.976171 -0.0215452 0.215928
vn -0.976171 -0.0215451 0.215928
vn -0.975771 0.0357097 0.215861
vn -0.975768 -0.035786 0.215861
vn -0.973138 -0.0293713 0.228343
vn -0.967684 1.9258e-008 0.252166
vn -0.967684 -0.00013504 0.252167
vn -0.967684 -0.000134992 0.252167
vn -0.967684 -0.000115715 0.252167
vn -0.967681 -0.00223595 0.252166
vn -0.967681 0.00237453 0.252166
vn -0.96768 -0.00269971 0.252166
vn -0.967609 -0.0124643 0.252145
vn -0.967564 0.0161613 -0.25211
vn -0.967524 0.0185886 -0.252093
vn -0.967524 0.0186241 -0.252093
vn -0.967523 0.0186433 -0.252093
vn -0.967432 0.0230601 -0.252078
vn -0.967345 0.0264969 0.252076
vn -0.957466 0.0185624 0.287948
vn -0.957412 0.0213502 0.287936
vn -0.957411 0.021391 0.287936
vn -0.957411 0.021391 0.287936
vn -0.95741 0.0214131 0.287936
vn -0.952654 0.0352704 -0.302005
vn -0.952651 -0.03535 -0.302004
vn -0.942162 -0.0123472 -0.334931
vn -0.942112 -0.0161007 -0.334912
vn -0.942069 -0.018688 -0.334898
vn -0.942069 -0.018688 -0.334898
vn -0.942069 -0.0186879 -0.334898
vn -0.929205 0.283108 0.237548
vn -0.896957 -0.375282 -0.233735
vn -0.896939 0.375327 -0.23373
vn -0.873788 -0.374175 0.310625
vn -0.873771 0.37422 0.310619
vn -0.860333 0.494691 -0.122915
vn -0.858395 -0.404657 0.315294
vn -0.854774 0.453808 -0.251832
vn -0.8384 -0.50529 0.204371
vn -0.83281 0.485299 0.266292
vn -0.829001 -0.464777 -0.311031
vn -0.806066 -0.499739 -0.317046
vn -0.789221 -0.530165 -0.309927
vn -0.788714 0.499461 0.358425
vn -0.763732 0.615989 -0.193056
vn -0.762986 -0.618702 0.187243
vn -0.752546 -0.608557 -0.251659
vn -0.751541 -0.658858 0.0330552
vn -0.740588 -0.660497 -0.12358
vn -0.728494 -0.568581 0.382115
vn -0.724427 -0.687094 -0.0557367
vn -0.699763 0.116985 0.704732
vn -0.680718 0.72636 -0.0949951
vn -0.668723 -0.0114554 0.743424
vn -0.668723 0.0114555 -0.743424
vn -0.668706 0.0131762 -0.74341
vn -0.668706 0.0132014 -0.74341
vn -0.668706 0.013215 -0.74341
vn -0.668705 -0.0132966 0.743409
vn -0.668705 -0.0132966 0.743409
vn -0.668705 -0.0132965 0.743409
vn -0.656812 0.113597 0.745449
vn -0.640762 0.733944 0.22528
vn -0.606405 -0.38729 0.694463
vn -0.600565 1.73203e-008 0.799576
vn -0.600565 1.73203e-008 -0.799576
vn -0.600556 0.00210047 0.79958
vn -0.600556 0.00210047 -0.79958
vn -0.600555 -0.00238813 0.799579
vn -0.600555 -0.00238813 -0.799579
vn -0.600555 -0.0019779 0.799581
vn -0.600555 -0.0019779 -0.799581
vn -0.60055 -0.00011946 0.799587
vn -0.60055 -0.00011946 -0.799587
vn -0.60055 -0.000119417 0.799587
vn -0.60055 -0.000119417 -0.799587
vn -0.60055 -0.000102365 0.799587
vn -0.60055 -0.000102365 -0.799587
vn -0.600539 -0.0110248 0.79952
vn -0.600539 -0.0110248 -0.79952
vn -0.600497 0.0174567 -0.799437
vn -0.600497 0.0174566 0.799437
vn -0.600222 0.0330617 0.79915
vn -0.600222 0.0330617 -0.79915
vn -0.600221 -0.033101 0.799149
vn -0.600221 -0.033101 -0.799149
vn -0.595361 -0.601533 0.532638
vn -0.58467 0.541875 -0.603766
vn -0.582324 -0.72604 0.365739
vn -0.576072 -0.391797 -0.717382
vn -0.556486 -0.455356 0.694963
vn -0.556429 0.82828 0.065875
vn -0.551233 -0.39693 0.733886
vn -0.551233 -0.39693 -0.733886
vn -0.551221 0.396976 0.73387
vn -0.551221 0.396976 -0.73387
vn -0.543104 0.834581 0.0922607
vn -0.538071 0.633892 0.555572
vn -0.528055 -0.634455 0.564469
vn -0.5277 0.0114554 0.849353
vn -0.5277 -0.0114554 -0.849353
vn -0.52768 0.0131761 0.849341
vn -0.527679 0.0132013 0.849341
vn -0.527679 0.0132013 0.849341
vn -0.527679 0.013215 0.849341
vn -0.527678 -0.0132965 -0.84934
vn -0.527678 -0.0132965 -0.84934
vn -0.527678 -0.0132965 -0.84934
vn -0.524919 0.663251 0.533439
vn -0.523446 0.554385 0.647041
vn -0.515576 0.565467 0.643762
vn -0.510404 -0.661209 0.549809
vn -0.501295 0.833518 0.232275
vn -0.499669 0.621679 -0.603197
vn -0.478173 -0.185309 0.858493
vn -0.47121 0.441518 0.763559
vn -0.461332 -0.687685 -0.560591
vn -0.455525 -0.234805 0.858699
vn -0.449831 -0.34041 0.825695
vn -0.401391 -0.634327 -0.660693
vn -0.370974 0.686972 0.624858
vn -0.368004 -0.92772 0.0625152
vn -0.360006 0.928222 -0.0938111
vn -0.359156 -0.476355 0.802554
vn -0.359156 -0.476355 -0.802554
vn -0.330994 0.586992 0.738839
vn -0.301733 -0.950427 0.0751317
vn -0.283577 0.881518 -0.377504
vn -0.275188 -0.952908 -0.127431
vn -0.268162 0.96317 -0.0198274
vn -0.267356 -0.957861 -0.104991
vn -0.265022 0.684475 0.679159
vn -0.264211 -0.662834 0.700602
vn -0.248865 -0.897412 0.364304
vn -0.248865 -0.897412 -0.364304
vn -0.243625 -0.914038 -0.324319
vn -0.243624 -0.914037 0.324319
vn -0.237148 -0.969506 -0.0617965
vn -0.237086 0.971489 -0.000384701
vn -0.224958 -0.973231 -0.0470743
vn -0.212727 0.935175 0.283187
vn -0.200387 0.965612 -0.165645
vn -0.196243 -0.581841 -0.789272
vn -0.187863 -0.981716 0.0306723
vn -0.168945 0.964259 -0.204114
vn -0.162127 0.97721 0.137025
vn -0.158951 -0.97357 0.164001
vn -0.143208 0.620279 -0.771198
vn -0.140375 -0.372541 0.917337
vn -0.140375 -0.372541 -0.917337
vn -0.140372 0.372585 0.91732
vn -0.140372 0.372585 -0.91732
vn -0.137825 0.613778 -0.777355
vn -0.133589 -0.983716 -0.120233
vn -0.129726 -0.0103244 0.991496
vn -0.129724 -0.0119671 0.991478
vn -0.129724 0.0119671 -0.991478
vn -0.129722 0.0137653 -0.991455
vn -0.129722 0.0137917 -0.991455
vn -0.129722 0.0137917 -0.991455
vn -0.129722 0.0138059 -0.991454
vn -0.129721 -0.0138912 0.991453
vn -0.129721 -0.0138912 0.991453
vn -0.129721 -0.0138911 0.991453
vn -0.121447 -0.951219 -0.283607
vn -0.115442 0.993119 -0.0196872
vn -0.113529 1.07822e-008 0.993535
vn -0.113529 1.07822e-008 -0.993535
vn -0.113529 0.00153066 0.993533
vn -0.113529 0.00153066 -0.993533
vn -0.113529 -0.00144135 0.993534
vn -0.113529 -0.00144135 -0.993534
vn -0.113529 -0.00174029 0.993533
vn -0.113529 -0.00174029 -0.993533
vn -0.113529 -8.70585e-005 0.993535
vn -0.113529 -8.70585e-005 -0.993535
vn -0.113529 -8.70275e-005 0.993535
vn -0.113529 -8.70271e-005 -0.993535
vn -0.113529 -7.45989e-005 0.993535
vn -0.113529 -7.45989e-005 -0.993535
vn -0.113526 -0.00803249 -0.993503
vn -0.113513 0.0170734 -0.99339
vn -0.104079 -0.974853 -0.19705
vn -0.0972893 -0.0119671 -0.995184
vn -0.0972893 0.0119671 0.995184
vn -0.0972861 0.0137654 0.995161
vn -0.0972861 0.0137917 0.995161
vn -0.0972861 0.0137917 0.995161
vn -0.0972861 0.0138059 0.995161
vn -0.0972859 -0.0138911 -0.99516
vn -0.0972859 -0.0138912 -0.995159
vn -0.0972859 -0.0138911 -0.995159
vn -0.0972842 0.0157779 0.995132
vn -0.0972727 0.0228135 0.994996
vn -0.0972727 0.0228135 -0.994996
vn -0.0972726 -0.0228628 0.994995
vn -0.0972726 -0.0228628 -0.994995
vn -0.0856814 0.967066 -0.239669
vn -0.0706667 -0.456103 -0.887117
vn -0.0706667 -0.456103 0.887117
vn -0.0661804 -0.697622 -0.713403
vn -0.0605219 0.991271 0.11713
vn -0.0557114 0.520112 0.852279
vn -0.0426812 0.971834 -0.23177
vn -0.0406523 -0.923237 0.382073
vn -0.0406523 -0.923237 -0.382073
vn -0.0370439 -0.991251 0.126684
vn -0.0288025 -0.924649 -0.37973
vn -0.0288025 -0.924649 0.37973
vn -0.0287992 0.924667 0.379687
vn -0.0287992 0.924667 -0.379687
vn -0.0179536 -0.970021 -0.242357
vn -0.00687167 -0.965459 -0.260463
vn -0.00651904 0.967346 -0.253376
vn -0.00275203 -0.966535 -0.256521
vn 0.00502208 0.337651 0.941258
vn 0.00905953 -0.986248 0.16502
vn 0.0103182 -0.304468 -0.952466
vn 0.0103182 -0.304468 0.952466
vn 0.0126174 -0.861791 -0.507106
vn 0.0126174 -0.861791 0.507106
vn 0.0167822 0.028385 0.999456
vn 0.0191782 0.968409 -0.24863
vn 0.0192993 0.990426 0.136691
vn 0.0285164 0.967941 -0.249553
vn 0.0285195 -0.967934 0.249581
vn 0.0285195 -0.967934 -0.249581
vn 0.0296139 0.973117 -0.228398
vn 0.0296917 0.988069 0.151121
vn 0.0432033 0.924764 0.378081
vn 0.0451333 -0.0212246 0.998755
vn 0.0498992 -0.969315 -0.240706
vn 0.0534999 -0.952188 0.300791
vn 0.0534999 -0.952188 -0.300791
vn 0.0560079 -0.979201 0.195008
vn 0.0609307 -0.959492 -0.27507
vn 0.0715423 -0.423829 0.902912
vn 0.0740768 0.69047 -0.719559
vn 0.0756301 -8.58107e-005 0.997136
vn 0.0756301 -8.58107e-005 -0.997136
vn 0.0756301 -8.57798e-005 0.997136
vn 0.0756301 -8.57798e-005 -0.997136
vn 0.0756301 -7.35311e-005 0.997136
vn 0.0756301 -7.35311e-005 -0.997136
vn 0.0756303 -0.00171537 0.997134
vn 0.0756303 -0.00171537 -0.997134
vn 0.0756303 -0.00142072 0.997135
vn 0.0756303 -0.00142072 -0.997135
vn 0.0756304 0.00150874 0.997135
vn 0.0756304 0.00150874 -0.997135
vn 0.0756307 1.06182e-008 0.997136
vn 0.0756307 1.06182e-008 -0.997136
vn 0.0781831 0.804159 -0.58925
vn 0.0862119 0.962491 -0.257251
vn 0.0878189 -0.596268 -0.797968
vn 0.105337 0.37298 0.921841
vn 0.105337 0.37298 -0.921841
vn 0.105339 -0.372936 0.921858
vn 0.105339 -0.372936 -0.921858
vn 0.113513 0.0149843 -0.993423
vn 0.113516 -0.0123219 0.99346
vn 0.113516 -0.0123219 0.99346
vn 0.113516 -0.0123218 0.99346
vn 0.113516 -0.0123219 0.99346
vn 0.113516 0.0122463 -0.993461
vn 0.113516 0.0122336 -0.993461
vn 0.113516 0.0122336 -0.993461
vn 0.113516 0.0122103 -0.993461
vn 0.11352 0.0106152 -0.993479
vn 0.11352 -0.0106152 0.993479
vn 0.117661 -0.711457 0.69281
vn 0.118122 -0.976759 0.178854
vn 0.129727 -0.00583211 0.991533
vn 0.136164 -0.0230489 0.990418
vn 0.136164 -0.0230488 -0.990418
vn 0.136164 0.0229964 0.990419
vn 0.136164 0.0229964 -0.990419
vn 0.13618 0.0163729 0.990549
vn 0.142168 -0.898942 0.414357
vn 0.142168 -0.898942 -0.414357
vn 0.145608 0.977507 -0.15257
vn 0.149369 -0.451818 -0.879516
vn 0.151201 -0.504462 0.850092
vn 0.151201 -0.504462 -0.850092
vn 0.151253 -0.0123129 -0.988419
vn 0.151253 -0.0123129 -0.988419
vn 0.151253 -0.0123129 -0.988419
vn 0.151253 -0.0123129 -0.988419
vn 0.151253 0.0122374 0.988419
vn 0.151253 0.0122248 0.98842
vn 0.151253 0.0122248 0.98842
vn 0.151253 0.0122014 0.98842
vn 0.151256 -0.0106075 -0.988438
vn 0.151256 0.0106075 0.988438
vn 0.151259 -0.00813591 -0.988461
vn 0.153404 0.982436 0.106239
vn 0.175222 -0.968081 -0.179212
vn 0.180082 0.978079 0.104557
vn 0.19185 -0.956311 0.220594
vn 0.19185 -0.956311 -0.220594
vn 0.192514 -0.613446 -0.765913
vn 0.202302 -0.961491 -0.186036
vn 0.203536 -0.971317 0.122952
vn 0.209394 0.977453 0.0271917
vn 0.211154 -0.97741 0.00917045
vn 0.212752 -0.93516 0.283219
vn 0.212752 -0.93516 -0.283219
vn 0.227072 0.973851 0.0072207
vn 0.23877 -0.970612 0.0300057
vn 0.243596 0.914059 0.32428
vn 0.243596 0.914059 -0.32428
vn 0.247331 0.957358 -0.149311
vn 0.279496 0.960113 -0.00800547
vn 0.286564 -0.955147 0.0746731
vn 0.305467 -0.646243 0.699328
vn 0.314697 -0.304282 -0.899099
vn 0.314697 -0.304282 0.899099
vn 0.333966 0.660888 0.672081
vn 0.360006 0.928222 0.0938107
vn 0.3794 -0.91973 -0.100759
vn 0.411019 -0.904668 -0.112425
vn 0.420029 -0.893809 0.157104
vn 0.420641 0.656635 -0.626012
vn 0.423958 0.618272 0.661815
vn 0.44089 -0.894431 -0.0748964
vn 0.441355 -0.884148 -0.153256
vn 0.445449 0.472104 0.760719
vn 0.445661 0.659086 0.605798
vn 0.455028 0.434567 0.777239
vn 0.470936 0.853394 -0.223469
vn 0.476657 -0.800113 0.364166
vn 0.48123 -0.742292 -0.466282
vn 0.483154 -0.611112 -0.62698
vn 0.487461 0.681188 0.546228
vn 0.489361 -0.226544 0.842142
vn 0.524145 0.527378 -0.668689
vn 0.527679 -0.0132965 0.84934
vn 0.527679 -0.0132965 0.84934
vn 0.527679 -0.0132965 0.84934
vn 0.527679 -0.0132965 0.84934
vn 0.52768 0.013215 -0.849341
vn 0.52768 0.0132013 -0.849341
vn 0.52768 0.0132013 -0.849341
vn 0.52768 0.0131761 -0.849341
vn 0.527701 -0.0114554 0.849353
vn 0.527701 0.0114554 -0.849353
vn 0.529873 -0.631683 0.565872
vn 0.53555 0.69167 0.48454
vn 0.542797 -0.621204 0.565222
vn 0.543105 0.834581 -0.0922603
vn 0.551221 0.396976 0.73387
vn 0.551221 0.396976 -0.73387
vn 0.551233 -0.39693 0.733886
vn 0.551233 -0.39693 -0.733886
vn 0.552042 -0.492949 0.672496
vn 0.552139 0.647248 0.52556
vn 0.552559 -0.0849791 0.82913
vn 0.557491 0.153203 0.815925
vn 0.559411 -0.5228 0.643226
vn 0.559411 -0.5228 -0.643226
vn 0.564524 -0.549958 0.615516
vn 0.600222 -0.033101 0.799148
vn 0.600222 -0.033101 -0.799148
vn 0.600223 0.0330616 0.799149
vn 0.600223 0.0330616 -0.799149
vn 0.600497 0.0174567 0.799436
vn 0.600497 0.0174567 -0.799436
vn 0.600539 -0.0110248 0.799519
vn 0.600539 -0.0110248 -0.799519
vn 0.600551 -0.000102366 0.799587
vn 0.600551 -0.000102366 -0.799587
vn 0.600551 -0.00011946 0.799586
vn 0.600551 -0.00011946 -0.799586
vn 0.600551 -0.000119417 0.799587
vn 0.600551 -0.000119417 -0.799587
vn 0.600556 -0.00197791 0.79958
vn 0.600556 -0.00197791 -0.79958
vn 0.600556 -0.00238814 0.799579
vn 0.600556 -0.00238814 -0.799579
vn 0.600557 0.00210048 -0.799579
vn 0.600557 0.00210049 0.799579
vn 0.600566 1.73203e-008 0.799576
vn 0.600566 1.73203e-008 -0.799576
vn 0.601929 0.767905 0.219098
vn 0.635486 -0.427697 0.642831
vn 0.641822 -0.494966 -0.585724
vn 0.668706 -0.0132966 -0.743408
vn 0.668706 -0.0132966 -0.743408
vn 0.668706 -0.0132966 -0.743408
vn 0.668706 -0.0132965 -0.743408
vn 0.668706 0.013215 0.743409
vn 0.668707 0.0132014 0.743409
vn 0.668707 0.0132014 0.743409
vn 0.668707 0.0131762 0.743409
vn 0.668723 -0.0114554 -0.743423
vn 0.668723 0.0114554 0.743423
vn 0.693869 -0.677593 0.24375
vn 0.706253 -0.676707 0.208026
vn 0.728206 0.640985 -0.242601
vn 0.734955 0.133209 0.664904
vn 0.746264 0.63121 0.21134
vn 0.754465 -0.614939 0.229417
vn 0.75566 -0.622704 -0.203021
vn 0.81334 -0.226667 0.535817
vn 0.817347 0.576144 -0.00109225
vn 0.823821 -0.487001 0.290086
vn 0.82786 0.441623 0.345857
vn 0.83906 -0.489069 -0.238307
vn 0.846767 0.490794 0.205199
vn 0.851441 0.491573 -0.182771
vn 0.861541 -0.507169 -0.0229615
vn 0.862373 -0.468105 0.192849
vn 0.873771 0.37422 -0.310618
vn 0.873788 -0.374175 -0.310624
vn 0.896939 0.375327 0.233729
vn 0.896957 -0.375282 0.233734
vn 0.914146 -0.350914 -0.202972
vn 0.923358 0.326852 -0.20144
vn 0.926114 0.238834 0.292011
vn 0.929753 -0.313234 -0.193503
vn 0.942069 -0.018688 0.334897
vn 0.942069 -0.018688 0.334897
vn 0.942069 -0.0186879 0.334897
vn 0.942112 -0.0161007 0.334911
vn 0.942162 -0.0123472 0.33493
vn 0.952651 -0.0353498 0.302004
vn 0.952654 0.0352702 0.302004
vn 0.957411 0.0214131 -0.287935
vn 0.957411 0.021391 -0.287935
vn 0.957411 0.021391 -0.287935
vn 0.957412 0.0213502 -0.287935
vn 0.957466 0.0185624 -0.287947
vn 0.967345 0.0264969 -0.252075
vn 0.967432 0.0230601 0.252078
vn 0.967524 0.0186433 0.252092
vn 0.967524 0.0186241 0.252092
vn 0.967525 0.0185886 0.252092
vn 0.967564 0.0161613 0.252109
vn 0.967609 -0.0124643 -0.252144
vn 0.967681 -0.0026997 -0.252165
vn 0.967681 0.00237453 -0.252165
vn 0.967682 -0.00223595 -0.252165
vn 0.967684 -0.000134989 -0.252166
vn 0.967684 -0.000115715 -0.252166
vn 0.967684 -0.00013504 -0.252166
vn 0.967684 1.87765e-008 -0.252165
vn 0.975768 -0.0357858 -0.21586
vn 0.975771 0.0357095 -0.215861
vn 0.976172 -0.0215452 -0.215928
vn 0.976172 -0.0215452 -0.215928
vn 0.976172 -0.0215451 -0.215928
vn 0.97623 -0.0185624 -0.215943
vn 0.985872 -0.0027048 0.16748
vn 0.985872 0.00237901 0.16748
vn 0.985873 -0.00224017 0.167481
vn 0.985875 -0.000135295 0.167482
vn 0.985875 -0.000135244 0.167482
vn 0.985875 -0.000115934 0.167482
vn 0.985875 1.85463e-008 0.16748
vn 0.98804 0.0633694 0.140577
vn 0.995005 0.0304241 0.0950756
vn 0.99843 0.0355901 -0.0432559
vn 0.998639 -0.0343564 0.0392283
vn 0.998708 -0.0104911 0.049721
g group_jims_katana_dark
usemtl jims_katana_dark
s 1
f 408/403/460 407/380/473 433/399/462
f 407/380/473 432/373/441 433/399/462
f 407/380/473 348/357/396 432/373/441
f 432/373/441 348/357/396 368/349/378
f 348/357/396 246/334/265 270/325/290
f 368/349/378 348/357/396 270/325/290
f 270/325/290 246/334/265 186/302/208
f 246/334/265 206/311/181 186/302/208
f 206/311/181 113/288/79 186/302/208
f 186/302/208 113/288/79 96/279/97
f 96/560/97 113/548/79 31/536/16
f 113/548/79 51/525/19 31/536/16
f 51/525/19 52/502/4 31/536/16
f 52/502/4 32/515/38 31/536/16
f 349/424/397 408/403/460 433/399/462
f 349/424/397 433/399/462 369/425/379
f 349/424/397 369/425/379 271/448/291
f 247/433/266 349/424/397 271/448/291
f 207/456/182 247/433/266 187/471/209
f 247/433/266 271/448/291 187/471/209
f 114/479/80 207/456/182 187/471/209
f 114/479/80 187/471/209 97/493/98
f 52/502/4 114/479/80 32/515/38
f 114/479/80 97/493/98 32/515/38
f 433/399/462 432/373/441 460/369/430
f 433/399/462 460/369/430 461/396/428
f 432/373/441 368/349/378 460/369/430
f 460/369/430 368/349/378 396/345/367
f 368/349/378 270/325/290 302/316/272
f 396/345/367 368/349/378 302/316/272
f 270/325/290 186/302/208 302/316/272
f 302/316/272 186/302/208 158/290/163
f 186/302/208 96/279/97 158/290/163
f 158/290/163 96/279/97 72/267/107
f 96/560/97 31/536/16 9/541/48
f 72/564/107 96/560/97 9/541/48
f 31/536/16 32/515/38 10/518/46
f 31/536/16 10/518/46 9/541/48
f 369/425/379 433/399/462 461/396/428
f 369/425/379 461/396/428 397/426/368
f 271/448/291 369/425/379 303/449/273
f 369/425/379 397/426/368 303/449/273
f 187/471/209 271/448/291 303/449/273
f 187/471/209 303/449/273 159/472/164
f 97/493/98 187/471/209 159/472/164
f 97/493/98 159/472/164 73/495/108
f 32/515/38 97/493/98 10/518/46
f 97/493/98 73/495/108 10/518/46
f 10/237/46 107/255/150 42/236/152
f 10/237/46 73/257/108 107/255/150
f 73/257/108 159/265/164 107/255/150
f 159/265/164 164/261/222 107/255/150
f 159/265/164 303/264/273 164/261/222
f 303/264/273 299/260/241 164/261/222
f 303/264/273 365/251/321 299/260/241
f 303/264/273 397/254/368 365/251/321
f 461/232/428 429/230/339 365/251/321
f 397/254/368 461/232/428 365/251/321
f 460/209/430 428/211/328 429/230/339
f 461/232/428 460/209/430 429/230/339
f 460/209/430 396/189/367 364/192/320
f 428/211/328 460/209/430 364/192/320
f 364/192/320 302/181/272 298/185/240
f 396/189/367 302/181/272 364/192/320
f 302/181/272 158/183/163 163/187/223
f 298/185/240 302/181/272 163/187/223
f 158/183/163 72/193/107 106/197/151
f 163/187/223 158/183/163 106/197/151
f 72/193/107 9/216/48 106/197/151
f 106/197/151 9/216/48 41/217/136
f 9/216/48 10/237/46 41/217/136
f 10/237/46 42/236/152 41/217/136
f 346/204/145 364/192/320 338/198/149
f 365/251/321 347/240/141 339/245/148
f 428/211/328 364/192/320 346/204/145
f 365/251/321 429/230/339 347/240/141
f 429/230/339 428/211/328 347/240/141
f 428/211/328 346/204/145 347/240/141
f 107/255/150 130/234/313 42/236/152
f 130/234/313 128/225/336 42/236/152
f 128/225/336 127/221/335 42/236/152
f 127/221/335 41/217/136 42/236/152
f 127/221/335 129/218/314 41/217/136
f 129/218/314 106/197/151 41/217/136
f 129/218/314 155/206/294 106/197/151
f 155/206/294 163/187/223 106/197/151
f 164/261/222 156/242/293 107/255/150
f 156/242/293 130/234/313 107/255/150
f 164/261/222 232/248/247 156/242/293
f 299/260/241 232/248/247 164/261/222
f 299/260/241 261/250/235 232/248/247
f 299/260/241 328/247/219 261/250/235
f 365/251/321 328/247/219 299/260/241
f 365/251/321 339/245/148 328/247/219
f 231/199/248 163/187/223 155/206/294
f 231/199/248 298/185/240 163/187/223
f 260/195/234 298/185/240 231/199/248
f 327/196/220 298/185/240 260/195/234
f 327/196/220 364/192/320 298/185/240
f 338/198/149 364/192/320 327/196/220
f 441/382/461 419/375/468 420/393/455
f 441/382/461 440/360/440 419/375/468
f 419/375/468 440/360/440 360/352/395
f 440/360/440 376/340/376 360/352/395
f 376/340/376 278/320/288 360/352/395
f 360/352/395 278/320/288 258/329/263
f 258/329/263 194/299/210 218/306/183
f 278/320/288 194/299/210 258/329/263
f 218/306/183 194/299/210 125/282/81
f 194/299/210 104/276/99 125/282/81
f 125/542/81 39/526/17 63/519/24
f 104/549/99 39/526/17 125/542/81
f 39/526/17 64/496/9 63/519/24
f 39/526/17 40/503/39 64/496/9
f 441/382/461 420/393/455 361/405/394
f 377/404/377 441/382/461 361/405/394
f 279/434/289 361/405/394 259/427/264
f 279/434/289 377/404/377 361/405/394
f 195/457/211 279/434/289 259/427/264
f 195/457/211 259/427/264 219/450/184
f 195/457/211 219/450/184 126/473/82
f 105/480/100 195/457/211 126/473/82
f 40/503/39 105/480/100 126/473/82
f 40/503/39 126/473/82 64/496/9
f 462/358/429 440/360/440 441/382/461
f 463/381/427 462/358/429 441/382/461
f 462/358/429 398/335/365 376/340/376
f 440/360/440 462/358/429 376/340/376
f 376/340/376 304/312/270 278/320/288
f 398/335/365 304/312/270 376/340/376
f 304/312/270 160/289/165 194/299/210
f 278/320/288 304/312/270 194/299/210
f 160/289/165 74/266/109 104/276/99
f 194/299/210 160/289/165 104/276/99
f 104/549/99 11/540/49 39/526/17
f 74/563/109 11/540/49 104/549/99
f 12/517/47 40/503/39 39/526/17
f 11/540/49 12/517/47 39/526/17
f 463/381/427 441/382/461 377/404/377
f 399/406/366 463/381/427 377/404/377
f 305/439/271 399/406/366 377/404/377
f 305/439/271 377/404/377 279/434/289
f 305/439/271 279/434/289 195/457/211
f 161/470/166 305/439/271 195/457/211
f 161/470/166 195/457/211 105/480/100
f 75/494/110 161/470/166 105/480/100
f 12/517/47 75/494/110 105/480/100
f 12/517/47 105/480/100 40/503/39
f 109/194/142 75/190/110 12/213/47
f 44/215/137 109/194/142 12/213/47
f 109/194/142 161/182/166 75/190/110
f 109/194/142 166/186/225 161/182/166
f 166/186/225 305/180/271 161/182/166
f 166/186/225 301/184/239 305/180/271
f 301/184/239 367/191/325 305/180/271
f 367/191/325 399/188/366 305/180/271
f 367/191/325 463/208/427 399/188/366
f 367/191/325 431/210/364 463/208/427
f 431/210/364 430/229/333 462/231/429
f 431/210/364 462/231/429 463/208/427
f 430/229/333 366/249/324 462/231/429
f 462/231/429 366/249/324 398/253/365
f 366/249/324 300/258/244 304/262/270
f 398/253/365 366/249/324 304/262/270
f 304/262/270 165/259/224 160/263/165
f 300/258/244 165/259/224 304/262/270
f 160/263/165 108/252/155 74/256/109
f 165/259/224 108/252/155 160/263/165
f 108/252/155 43/233/111 11/235/49
f 74/256/109 108/252/155 11/235/49
f 43/233/111 12/213/47 11/235/49
f 43/233/111 44/215/137 12/213/47
f 430/229/333 367/191/325 366/249/324
f 430/229/333 431/210/364 367/191/325
f 366/249/324 367/191/325 301/184/239
f 366/249/324 301/184/239 300/258/244
f 300/258/244 301/184/239 165/259/224
f 301/184/239 166/186/225 165/259/224
f 165/259/224 166/186/225 108/252/155
f 166/186/225 109/194/142 108/252/155
f 108/252/155 44/215/137 43/233/111
f 108/252/155 109/194/142 44/215/137
f 457/383/465 417/374/471 418/394/457
f 457/383/465 456/359/437 417/374/471
f 417/374/471 456/359/437 358/351/388
f 456/359/437 392/336/354 358/351/388
f 392/336/354 294/313/277 358/351/388
f 358/351/388 294/313/277 256/328/255
f 256/328/255 181/291/178 216/305/191
f 294/313/277 181/291/178 256/328/255
f 216/305/191 181/291/178 123/283/89
f 181/291/178 92/270/75 123/283/89
f 123/543/89 27/531/15 61/520/21
f 92/554/75 27/531/15 123/543/89
f 27/531/15 62/497/6 61/520/21
f 27/531/15 28/507/44 62/497/6
f 457/383/465 418/394/457 359/409/389
f 393/407/404 457/383/465 359/409/389
f 295/436/301 359/409/389 257/428/256
f 295/436/301 393/407/404 359/409/389
f 182/459/204 295/436/301 257/428/256
f 182/459/204 257/428/256 217/451/192
f 182/459/204 217/451/192 124/474/90
f 93/482/122 182/459/204 124/474/90
f 28/507/44 93/482/122 124/474/90
f 28/507/44 124/474/90 62/497/6
f 458/361/451 456/359/437 457/383/465
f 459/384/445 458/361/451 457/383/465
f 456/359/437 394/338/408 392/336/354
f 458/361/451 394/338/408 456/359/437
f 392/336/354 296/317/306 294/313/277
f 394/338/408 296/317/306 392/336/354
f 294/313/277 183/294/200 181/291/178
f 296/317/306 183/294/200 294/313/277
f 181/291/178 94/268/116 92/270/75
f 183/294/200 94/268/116 181/291/178
f 92/554/75 29/530/34 27/531/15
f 94/553/116 29/530/34 92/554/75
f 30/505/28 28/507/44 27/531/15
f 29/530/34 30/505/28 27/531/15
f 459/384/445 457/383/465 393/407/404
f 395/408/358 459/384/445 393/407/404
f 395/408/358 393/407/404 295/436/301
f 297/435/282 395/408/358 295/436/301
f 297/435/282 295/436/301 182/459/204
f 184/458/172 297/435/282 182/459/204
f 184/458/172 182/459/204 93/482/122
f 95/481/70 184/458/172 93/482/122
f 95/481/70 93/482/122 28/507/44
f 30/505/28 95/481/70 28/507/44
f 435/397/466 407/380/473 408/403/460
f 435/397/466 434/372/438 407/380/473
f 407/380/473 434/372/438 348/357/396
f 434/372/438 370/350/359 348/357/396
f 370/350/359 272/327/284 348/357/396
f 348/357/396 272/327/284 246/334/265
f 246/334/265 188/304/170 206/311/181
f 272/327/284 188/304/170 246/334/265
f 206/311/181 188/304/170 113/288/79
f 188/304/170 98/281/68 113/288/79
f 113/548/79 33/527/12 51/525/19
f 98/551/68 33/527/12 113/548/79
f 33/527/12 52/502/4 51/525/19
f 33/527/12 34/504/41 52/502/4
f 435/397/466 408/403/460 349/424/397
f 371/422/409 435/397/466 349/424/397
f 273/445/307 349/424/397 247/433/266
f 273/445/307 371/422/409 349/424/397
f 189/462/198 273/445/307 247/433/266
f 189/462/198 247/433/266 207/456/182
f 189/462/198 207/456/182 114/479/80
f 99/483/115 189/462/198 114/479/80
f 34/504/41 99/483/115 114/479/80
f 34/504/41 114/479/80 52/502/4
f 436/371/452 434/372/438 435/397/466
f 437/395/446 436/371/452 435/397/466
f 434/372/438 372/348/410 370/350/359
f 436/371/452 372/348/410 434/372/438
f 370/350/359 274/326/308 272/327/284
f 372/348/410 274/326/308 370/350/359
f 272/327/284 190/303/199 188/304/170
f 274/326/308 190/303/199 272/327/284
f 188/304/170 100/280/114 98/281/68
f 190/303/199 100/280/114 188/304/170
f 98/551/68 35/528/33 33/527/12
f 100/550/114 35/528/33 98/551/68
f 36/506/27 34/504/41 33/527/12
f 35/528/33 36/506/27 33/527/12
f 437/395/446 435/397/466 371/422/409
f 373/423/360 437/395/446 371/422/409
f 373/423/360 371/422/409 273/445/307
f 275/446/283 373/423/360 273/445/307
f 275/446/283 273/445/307 189/462/198
f 191/463/171 275/446/283 189/462/198
f 191/463/171 189/462/198 99/483/115
f 101/484/69 191/463/171 99/483/115
f 101/484/69 99/483/115 34/504/41
f 36/506/27 101/484/69 34/504/41
f 410/402/454 409/379/467 437/395/446
f 409/379/467 436/371/452 437/395/446
f 409/379/467 350/356/392 436/371/452
f 436/371/452 350/356/392 372/348/410
f 350/356/392 248/333/259 274/326/308
f 372/348/410 350/356/392 274/326/308
f 274/326/308 248/333/259 190/303/199
f 248/333/259 208/310/187 190/303/199
f 208/310/187 115/287/83 190/303/199
f 190/303/199 115/287/83 100/280/114
f 100/550/114 115/547/83 35/528/33
f 115/547/83 53/524/25 35/528/33
f 53/524/25 54/501/10 35/528/33
f 54/501/10 36/506/27 35/528/33
f 351/421/393 410/402/454 437/395/446
f 351/421/393 437/395/446 373/423/360
f 351/421/393 373/423/360 275/446/283
f 249/432/260 351/421/393 275/446/283
f 209/455/188 249/432/260 191/463/171
f 249/432/260 275/446/283 191/463/171
f 116/478/84 209/455/188 191/463/171
f 116/478/84 191/463/171 101/484/69
f 54/501/10 116/478/84 36/506/27
f 116/478/84 101/484/69 36/506/27
f 443/391/453 409/379/467 410/402/454
f 443/391/453 442/368/439 409/379/467
f 409/379/467 442/368/439 350/356/392
f 442/368/439 378/346/382 350/356/392
f 378/346/382 280/323/287 350/356/392
f 350/356/392 280/323/287 248/333/259
f 248/333/259 167/300/169 208/310/187
f 280/323/287 167/300/169 248/333/259
f 208/310/187 167/300/169 115/287/83
f 167/300/169 78/277/93 115/287/83
f 115/547/83 13/539/26 53/524/25
f 78/562/93 13/539/26 115/547/83
f 13/539/26 54/501/10 53/524/25
f 13/539/26 14/516/40 54/501/10
f 443/391/453 410/402/454 351/421/393
f 379/420/383 443/391/453 351/421/393
f 281/447/309 351/421/393 249/432/260
f 281/447/309 379/420/383 351/421/393
f 168/469/195 281/447/309 249/432/260
f 168/469/195 249/432/260 209/455/188
f 168/469/195 209/455/188 116/478/84
f 79/492/94 168/469/195 116/478/84
f 14/516/40 79/492/94 116/478/84
f 14/516/40 116/478/84 54/501/10
f 438/370/448 442/368/439 443/391/453
f 439/392/447 438/370/448 443/391/453
f 442/368/439 374/347/380 378/346/382
f 438/370/448 374/347/380 442/368/439
f 374/347/380 276/324/292 280/323/287
f 378/346/382 374/347/380 280/323/287
f 280/323/287 192/301/207 167/300/169
f 276/324/292 192/301/207 280/323/287
f 167/300/169 102/278/96 78/277/93
f 192/301/207 102/278/96 167/300/169
f 102/552/96 37/529/32 13/539/26
f 78/562/93 102/552/96 13/539/26
f 38/508/31 14/516/40 13/539/26
f 37/529/32 38/508/31 13/539/26
f 375/419/381 439/392/447 443/391/453
f 375/419/381 443/391/453 379/420/383
f 375/419/381 379/420/383 281/447/309
f 277/444/274 375/419/381 281/447/309
f 277/444/274 281/447/309 168/469/195
f 193/465/196 277/444/274 168/469/195
f 103/485/95 193/465/196 168/469/195
f 103/485/95 168/469/195 79/492/94
f 103/485/95 79/492/94 14/516/40
f 38/508/31 103/485/95 14/516/40
f 412/401/456 411/378/469 439/392/447
f 411/378/469 438/370/448 439/392/447
f 411/378/469 352/355/390 438/370/448
f 438/370/448 352/355/390 374/347/380
f 352/355/390 250/332/261 276/324/292
f 374/347/380 352/355/390 276/324/292
f 276/324/292 250/332/261 192/301/207
f 250/332/261 210/309/185 192/301/207
f 210/309/185 117/286/85 192/301/207
f 192/301/207 117/286/85 102/278/96
f 102/552/96 117/546/85 37/529/32
f 117/546/85 55/523/23 37/529/32
f 55/523/23 56/500/8 37/529/32
f 56/500/8 38/508/31 37/529/32
f 353/418/391 412/401/456 439/392/447
f 353/418/391 439/392/447 375/419/381
f 353/418/391 375/419/381 277/444/274
f 251/431/262 353/418/391 277/444/274
f 211/454/186 251/431/262 193/465/196
f 251/431/262 277/444/274 193/465/196
f 118/477/86 211/454/186 193/465/196
f 118/477/86 193/465/196 103/485/95
f 56/500/8 118/477/86 38/508/31
f 118/477/86 103/485/95 38/508/31
f 445/390/464 411/378/469 412/401/456
f 445/390/464 444/366/436 411/378/469
f 411/378/469 444/366/436 352/355/390
f 444/366/436 380/343/352 352/355/390
f 380/343/352 282/322/278 352/355/390
f 352/355/390 282/322/278 250/332/261
f 250/332/261 169/298/177 210/309/185
f 282/322/278 169/298/177 250/332/261
f 210/309/185 169/298/177 117/286/85
f 169/298/177 80/275/74 117/286/85
f 117/546/85 15/537/14 55/523/23
f 80/561/74 15/537/14 117/546/85
f 15/537/14 56/500/8 55/523/23
f 15/537/14 16/513/43 56/500/8
f 445/390/464 412/401/456 353/418/391
f 381/416/403 445/390/464 353/418/391
f 283/443/302 353/418/391 251/431/262
f 283/443/302 381/416/403 353/418/391
f 170/468/206 283/443/302 251/431/262
f 170/468/206 251/431/262 211/454/186
f 170/468/206 211/454/186 118/477/86
f 81/490/121 170/468/206 118/477/86
f 16/513/43 81/490/121 118/477/86
f 16/513/43 118/477/86 56/500/8
f 446/367/449 444/366/436 445/390/464
f 447/389/442 446/367/449 445/390/464
f 444/366/436 382/344/405 380/343/352
f 446/367/449 382/344/405 444/366/436
f 380/343/352 284/321/303 282/322/278
f 382/344/405 284/321/303 380/343/352
f 282/322/278 171/297/203 169/298/177
f 284/321/303 171/297/203 282/322/278
f 169/298/177 82/274/119 80/275/74
f 171/297/203 82/274/119 169/298/177
f 80/561/74 17/538/37 15/537/14
f 82/559/119 17/538/37 80/561/74
f 18/514/30 16/513/43 15/537/14
f 17/538/37 18/514/30 15/537/14
f 447/389/442 445/390/464 381/416/403
f 383/417/355 447/389/442 381/416/403
f 383/417/355 381/416/403 283/443/302
f 285/442/279 383/417/355 283/443/302
f 285/442/279 283/443/302 170/468/206
f 172/467/175 285/442/279 170/468/206
f 172/467/175 170/468/206 81/490/121
f 83/491/72 172/467/175 81/490/121
f 83/491/72 81/490/121 16/513/43
f 18/514/30 83/491/72 16/513/43
f 414/400/458 413/377/472 447/389/442
f 413/377/472 446/367/449 447/389/442
f 413/377/472 354/354/384 446/367/449
f 446/367/449 354/354/384 382/344/405
f 354/354/384 252/331/257 284/321/303
f 382/344/405 354/354/384 284/321/303
f 284/321/303 252/331/257 171/297/203
f 252/331/257 212/308/193 171/297/203
f 212/308/193 119/285/91 171/297/203
f 171/297/203 119/285/91 82/274/119
f 82/559/119 119/545/91 17/538/37
f 119/545/91 57/522/22 17/538/37
f 57/522/22 58/499/7 17/538/37
f 58/499/7 18/514/30 17/538/37
f 355/415/385 414/400/458 447/389/442
f 355/415/385 447/389/442 383/417/355
f 355/415/385 383/417/355 285/442/279
f 253/430/258 355/415/385 285/442/279
f 213/453/194 253/430/258 172/467/175
f 253/430/258 285/442/279 172/467/175
f 120/476/92 213/453/194 172/467/175
f 120/476/92 172/467/175 83/491/72
f 58/499/7 120/476/92 18/514/30
f 120/476/92 83/491/72 18/514/30
f 449/388/463 413/377/472 414/400/458
f 449/388/463 448/364/435 413/377/472
f 413/377/472 448/364/435 354/354/384
f 448/364/435 384/341/351 354/354/384
f 384/341/351 286/319/275 354/354/384
f 354/354/384 286/319/275 252/331/257
f 252/331/257 173/296/176 212/308/193
f 286/319/275 173/296/176 252/331/257
f 212/308/193 173/296/176 119/285/91
f 173/296/176 84/273/73 119/285/91
f 119/545/91 19/534/13 57/522/22
f 84/558/73 19/534/13 119/545/91
f 19/534/13 58/499/7 57/522/22
f 19/534/13 20/511/42 58/499/7
f 449/388/463 414/400/458 355/415/385
f 385/413/401 449/388/463 355/415/385
f 287/441/299 355/415/385 253/430/258
f 287/441/299 385/413/401 355/415/385
f 174/466/205 287/441/299 253/430/258
f 174/466/205 253/430/258 213/453/194
f 174/466/205 213/453/194 120/476/92
f 85/488/120 174/466/205 120/476/92
f 20/511/42 85/488/120 120/476/92
f 20/511/42 120/476/92 58/499/7
f 450/365/450 448/364/435 449/388/463
f 451/387/444 450/365/450 449/388/463
f 448/364/435 386/342/406 384/341/351
f 450/365/450 386/342/406 448/364/435
f 384/341/351 288/318/304 286/319/275
f 386/342/406 288/318/304 384/341/351
f 286/319/275 175/295/202 173/296/176
f 288/318/304 175/295/202 286/319/275
f 173/296/176 86/272/118 84/273/73
f 175/295/202 86/272/118 173/296/176
f 84/558/73 21/535/35 19/534/13
f 86/557/118 21/535/35 84/558/73
f 22/512/29 20/511/42 19/534/13
f 21/535/35 22/512/29 19/534/13
f 451/387/444 449/388/463 385/413/401
f 387/414/357 451/387/444 385/413/401
f 387/414/357 385/413/401 287/441/299
f 289/440/280 387/414/357 287/441/299
f 289/440/280 287/441/299 174/466/205
f 176/464/174 289/440/280 174/466/205
f 176/464/174 174/466/205 85/488/120
f 87/489/71 176/464/174 85/488/120
f 87/489/71 85/488/120 20/511/42
f 22/512/29 87/489/71 20/511/42
f 416/398/459 415/376/470 451/387/444
f 415/376/470 450/365/450 451/387/444
f 415/376/470 356/353/386 450/365/450
f 450/365/450 356/353/386 386/342/406
f 356/353/386 254/330/253 288/318/304
f 386/342/406 356/353/386 288/318/304
f 288/318/304 254/330/253 175/295/202
f 254/330/253 214/307/189 175/295/202
f 214/307/189 121/284/87 175/295/202
f 175/295/202 121/284/87 86/272/118
f 86/557/118 121/544/87 21/535/35
f 121/544/87 59/521/20 21/535/35
f 59/521/20 60/498/5 21/535/35
f 60/498/5 22/512/29 21/535/35
f 357/412/387 416/398/459 451/387/444
f 357/412/387 451/387/444 387/414/357
f 357/412/387 387/414/357 289/440/280
f 255/429/254 357/412/387 289/440/280
f 215/452/190 255/429/254 176/464/174
f 255/429/254 289/440/280 176/464/174
f 122/475/88 215/452/190 176/464/174
f 122/475/88 176/464/174 87/489/71
f 60/498/5 122/475/88 22/512/29
f 122/475/88 87/489/71 22/512/29
f 453/386/464 415/376/470 416/398/459
f 453/386/464 452/362/436 415/376/470
f 415/376/470 452/362/436 356/353/386
f 452/362/436 388/337/353 356/353/386
f 388/337/353 290/315/276 356/353/386
f 356/353/386 290/315/276 254/330/253
f 254/330/253 177/293/177 214/307/189
f 290/315/276 177/293/177 254/330/253
f 214/307/189 177/293/177 121/284/87
f 177/293/177 88/271/74 121/284/87
f 121/544/87 23/532/14 59/521/20
f 88/556/74 23/532/14 121/544/87
f 23/532/14 60/498/5 59/521/20
f 23/532/14 24/509/43 60/498/5
f 453/386/464 416/398/459 357/412/387
f 389/410/402 453/386/464 357/412/387
f 291/438/300 357/412/387 255/429/254
f 291/438/300 389/410/402 357/412/387
f 178/461/206 291/438/300 255/429/254
f 178/461/206 255/429/254 215/452/190
f 178/461/206 215/452/190 122/475/88
f 89/486/121 178/461/206 122/475/88
f 24/509/43 89/486/121 122/475/88
f 24/509/43 122/475/88 60/498/5
f 454/363/450 452/362/436 453/386/464
f 455/385/443 454/363/450 453/386/464
f 452/362/436 390/339/407 388/337/353
f 454/363/450 390/339/407 452/362/436
f 388/337/353 292/314/305 290/315/276
f 390/339/407 292/314/305 388/337/353
f 290/315/276 179/292/201 177/293/177
f 292/314/305 179/292/201 290/315/276
f 177/293/177 90/269/117 88/271/74
f 179/292/201 90/269/117 177/293/177
f 88/556/74 25/533/36 23/532/14
f 90/555/117 25/533/36 88/556/74
f 26/510/29 24/509/43 23/532/14
f 25/533/36 26/510/29 23/532/14
f 455/385/443 453/386/464 389/410/402
f 391/411/356 455/385/443 389/410/402
f 391/411/356 389/410/402 291/438/300
f 293/437/281 391/411/356 291/438/300
f 293/437/281 291/438/300 178/461/206
f 180/460/173 293/437/281 178/461/206
f 180/460/173 178/461/206 89/486/121
f 91/487/71 180/460/173 89/486/121
f 91/487/71 89/486/121 24/509/43
f 26/510/29 91/487/71 24/509/43
f 418/394/457 417/374/471 455/385/443
f 417/374/471 454/363/450 455/385/443
f 417/374/471 358/351/388 454/363/450
f 454/363/450 358/351/388 390/339/407
f 358/351/388 256/328/255 292/314/305
f 390/339/407 358/351/388 292/314/305
f 292/314/305 256/328/255 179/292/201
f 256/328/255 216/305/191 179/292/201
f 216/305/191 123/283/89 179/292/201
f 179/292/201 123/283/89 90/269/117
f 90/555/117 123/543/89 25/533/36
f 123/543/89 61/520/21 25/533/36
f 61/520/21 62/497/6 25/533/36
f 62/497/6 26/510/29 25/533/36
f 359/409/389 418/394/457 455/385/443
f 359/409/389 455/385/443 391/411/356
f 359/409/389 391/411/356 293/437/281
f 257/428/256 359/409/389 293/437/281
f 217/451/192 257/428/256 180/460/173
f 257/428/256 293/437/281 180/460/173
f 124/474/90 217/451/192 180/460/173
f 124/474/90 180/460/173 91/487/71
f 62/497/6 124/474/90 26/510/29
f 124/474/90 91/487/71 26/510/29
f 420/393/455 419/375/468 459/384/445
f 419/375/468 458/361/451 459/384/445
f 419/375/468 360/352/395 458/361/451
f 458/361/451 360/352/395 394/338/408
f 360/352/395 258/329/263 296/317/306
f 394/338/408 360/352/395 296/317/306
f 296/317/306 258/329/263 183/294/200
f 258/329/263 218/306/183 183/294/200
f 218/306/183 125/282/81 183/294/200
f 183/294/200 125/282/81 94/268/116
f 94/553/116 125/542/81 29/530/34
f 125/542/81 63/519/24 29/530/34
f 63/519/24 64/496/9 29/530/34
f 64/496/9 30/505/28 29/530/34
f 361/405/394 420/393/455 459/384/445
f 361/405/394 459/384/445 395/408/358
f 361/405/394 395/408/358 297/435/282
f 259/427/264 361/405/394 297/435/282
f 219/450/184 259/427/264 184/458/172
f 259/427/264 297/435/282 184/458/172
f 126/473/82 219/450/184 184/458/172
f 126/473/82 184/458/172 95/481/70
f 64/496/9 126/473/82 30/505/28
f 126/473/82 95/481/70 30/505/28
f 335/202/139 343/205/57 338/198/149
f 343/205/57 346/204/145 338/198/149
f 343/205/57 344/239/51 347/240/141
f 343/205/57 347/240/141 346/204/145
f 344/239/51 336/241/138 339/245/148
f 347/240/141 344/239/51 339/245/148
f 336/241/138 326/243/214 328/247/219
f 339/245/148 336/241/138 328/247/219
f 326/243/214 263/246/233 261/250/235
f 328/247/219 326/243/214 261/250/235
f 263/246/233 234/244/297 261/250/235
f 261/250/235 234/244/297 232/248/247
f 234/244/297 197/238/331 156/242/293
f 232/248/247 234/244/297 156/242/293
f 197/238/331 136/228/373 156/242/293
f 156/242/293 136/228/373 130/234/313
f 136/228/373 132/224/426 128/225/336
f 130/234/313 136/228/373 128/225/336
f 132/224/426 131/222/434 127/221/335
f 132/224/426 127/221/335 128/225/336
f 131/222/434 135/219/374 127/221/335
f 135/219/374 129/218/314 127/221/335
f 135/219/374 196/207/330 155/206/294
f 135/219/374 155/206/294 129/218/314
f 196/207/330 233/203/298 155/206/294
f 233/203/298 231/199/248 155/206/294
f 233/203/298 262/200/232 260/195/234
f 233/203/298 260/195/234 231/199/248
f 262/200/232 325/201/213 260/195/234
f 325/201/213 327/196/220 260/195/234
f 325/201/213 335/202/139 327/196/220
f 335/202/139 338/198/149 327/196/220
f 340/148/104 343/153/57 335/154/139
f 343/153/57 340/148/104 344/143/51
f 340/148/104 341/135/132 344/143/51
f 344/143/51 341/135/132 336/142/138
f 336/142/138 341/135/132 326/141/214
f 326/141/214 341/135/132 263/140/233
f 263/140/233 236/128/285 234/130/297
f 234/130/297 236/128/285 197/129/331
f 197/129/331 134/115/418 136/119/373
f 136/119/373 134/115/418 132/118/426
f 134/115/418 133/111/400 131/117/434
f 134/115/418 131/117/434 132/118/426
f 133/111/400 135/116/374 131/117/434
f 133/111/400 196/112/330 135/116/374
f 133/173/400 235/156/296 196/175/330
f 235/156/296 262/165/232 233/171/298
f 235/156/296 340/148/104 262/165/232
f 340/148/104 335/154/139 325/155/213
f 341/214/132 340/226/104 236/212/285
f 236/212/285 340/226/104 235/227/296
f 236/212/285 235/227/296 133/223/400
f 134/220/418 236/212/285 133/223/400
f 236/128/285 134/115/418 197/129/331
f 235/156/296 233/171/298 196/175/330
f 340/148/104 325/155/213 262/165/232
f 341/135/132 236/128/285 263/140/233
f 153/98/167 268/113/252 151/97/215
f 268/113/252 316/114/315 151/97/215
f 268/113/252 405/127/350 316/114/315
f 405/127/350 406/126/346 316/114/315
f 405/127/350 470/136/422 406/126/346
f 405/127/350 465/139/424 470/136/422
f 465/139/424 466/149/416 470/136/422
f 465/139/424 464/151/415 466/149/416
f 464/151/415 403/161/361 466/149/416
f 464/151/415 400/164/348 403/161/361
f 400/164/348 309/179/329 403/161/361
f 400/164/348 307/178/341 309/179/329
f 69/83/128 153/98/167 71/84/134
f 71/84/134 153/98/167 151/97/215
f 2/59/59 69/83/128 1/57/56
f 1/57/56 69/83/128 71/84/134
f 3/43/54 2/59/59 4/42/60
f 4/42/60 2/59/59 1/57/56
f 70/17/112 3/43/54 76/19/113
f 76/19/113 3/43/54 4/42/60
f 157/4/130 70/17/112 222/3/147
f 222/3/147 70/17/112 76/19/113
f 149/96/162 244/108/269 150/94/157
f 149/96/162 245/107/267 244/108/269
f 245/107/267 401/122/337 244/108/269
f 244/108/269 401/122/337 402/125/347
f 401/122/337 471/132/413 402/125/347
f 402/125/347 471/132/413 468/134/417
f 471/132/413 469/144/423 468/134/417
f 468/134/417 469/144/423 467/146/420
f 469/144/423 362/160/370 467/146/420
f 467/146/420 362/160/370 363/163/363
f 362/160/370 319/174/332 363/163/363
f 363/163/363 319/174/332 318/176/349
f 50/75/102 149/96/162 150/94/157
f 50/75/102 150/94/157 65/76/131
f 5/61/50 50/75/102 7/63/55
f 50/75/102 65/76/131 7/63/55
f 8/48/77 5/61/50 6/51/53
f 5/61/50 7/63/55 6/51/53
f 111/22/123 8/48/77 6/51/53
f 111/22/123 6/51/53 77/18/126
f 199/7/146 111/22/123 77/18/126
f 199/7/146 77/18/126 154/6/133
f 329/172/398 310/177/338 307/178/341
f 329/172/398 307/178/341 400/164/348
f 152/5/135 143/8/127 157/4/130
f 157/4/130 143/8/127 70/17/112
f 363/163/363 318/176/349 330/170/425
f 154/6/133 77/18/126 144/10/65
f 205/100/218 245/107/267 149/96/162
f 205/100/218 241/105/242 245/107/267
f 245/107/267 334/120/295 401/122/337
f 241/105/242 334/120/295 245/107/267
f 401/122/337 423/131/322 471/132/413
f 401/122/337 334/120/295 423/131/322
f 471/132/413 424/145/312 469/144/423
f 423/131/322 424/145/312 471/132/413
f 469/144/423 424/145/312 362/160/370
f 424/145/312 324/157/238 362/160/370
f 362/160/370 324/157/238 319/174/332
f 324/157/238 311/168/216 319/174/332
f 110/78/159 149/96/162 50/75/102
f 110/78/159 205/100/218 149/96/162
f 47/60/144 50/75/102 5/61/50
f 47/60/144 110/78/159 50/75/102
f 47/60/144 5/61/50 8/48/77
f 67/45/160 47/60/144 8/48/77
f 67/45/160 8/48/77 111/22/123
f 142/23/243 67/45/160 111/22/123
f 142/23/243 111/22/123 199/7/146
f 162/13/310 142/23/243 199/7/146
f 150/94/157 244/108/269 203/99/227
f 244/108/269 240/106/229 203/99/227
f 244/108/269 402/125/347 337/121/250
f 240/106/229 244/108/269 337/121/250
f 402/125/347 468/134/417 425/133/316
f 337/121/250 402/125/347 425/133/316
f 468/134/417 467/146/420 427/147/319
f 425/133/316 468/134/417 427/147/319
f 467/146/420 363/163/363 427/147/319
f 363/163/363 331/158/334 427/147/319
f 65/76/131 150/94/157 112/81/179
f 150/94/157 203/99/227 112/81/179
f 7/63/55 65/76/131 45/64/143
f 65/76/131 112/81/179 45/64/143
f 6/51/53 7/63/55 45/64/143
f 6/51/53 45/64/143 49/46/158
f 77/18/126 6/51/53 49/46/158
f 141/21/168 77/18/126 49/46/158
f 77/18/126 141/21/168 144/10/65
f 153/98/167 227/102/228 268/113/252
f 227/102/228 242/110/237 268/113/252
f 342/123/268 405/127/350 268/113/252
f 242/110/237 342/123/268 268/113/252
f 426/138/326 465/139/424 405/127/350
f 342/123/268 426/138/326 405/127/350
f 426/138/326 464/151/415 465/139/424
f 426/138/326 421/152/318 464/151/415
f 421/152/318 400/164/348 464/151/415
f 421/152/318 333/162/327 400/164/348
f 69/83/128 137/89/212 153/98/167
f 137/89/212 227/102/228 153/98/167
f 2/59/59 48/62/156 69/83/128
f 48/62/156 137/89/212 69/83/128
f 3/43/54 46/44/153 2/59/59
f 46/44/153 48/62/156 2/59/59
f 70/17/112 46/44/153 3/43/54
f 139/20/180 46/44/153 70/17/112
f 333/162/327 329/172/398 400/164/348
f 139/20/180 143/8/127 146/14/52
f 151/97/215 316/114/315 243/109/246
f 151/97/215 243/109/246 228/101/226
f 316/114/315 406/126/346 345/124/311
f 316/114/315 345/124/311 243/109/246
f 406/126/346 470/136/422 422/137/323
f 406/126/346 422/137/323 345/124/311
f 470/136/422 466/149/416 422/137/323
f 466/149/416 404/150/286 422/137/323
f 466/149/416 403/161/361 404/150/286
f 403/161/361 332/159/231 404/150/286
f 403/161/361 309/179/329 332/159/231
f 309/179/329 314/169/221 332/159/231
f 71/84/134 151/97/215 138/88/197
f 138/88/197 151/97/215 228/101/226
f 1/57/56 71/84/134 66/58/154
f 66/58/154 71/84/134 138/88/197
f 4/42/60 1/57/56 66/58/154
f 68/40/161 4/42/60 66/58/154
f 76/19/113 4/42/60 68/40/161
f 140/16/249 76/19/113 68/40/161
f 222/3/147 76/19/113 140/16/249
f 220/9/317 222/3/147 140/16/249
f 144/93/65 147/103/61 146/104/52
f 143/95/127 144/93/65 146/104/52
f 323/1/431 330/12/425 322/2/432
f 322/2/432 330/12/425 329/11/398
f 331/158/334 330/170/425 323/166/431
f 331/158/334 363/163/363 330/170/425
f 143/8/127 139/20/180 70/17/112
f 141/21/168 147/15/61 144/10/65
f 322/167/432 329/172/398 333/162/327
f 204/72/78 157/87/18 225/68/66
f 225/68/66 222/90/1 221/71/129
f 225/68/66 157/87/18 222/90/1
f 221/71/129 222/90/1 201/73/101
f 307/30/475 266/38/375 265/41/414
f 307/30/475 265/41/414 309/28/478
f 265/41/414 267/50/371 309/28/478
f 309/28/478 267/50/371 306/49/369
f 238/52/245 204/72/78 225/68/66
f 266/38/375 238/52/245 265/41/414
f 265/41/414 238/52/245 239/56/236
f 238/52/245 225/68/66 239/56/236
f 239/56/236 225/68/66 221/71/129
f 265/41/414 239/56/236 267/50/371
f 267/50/371 239/56/236 221/71/129
f 221/71/129 201/73/101 306/49/369
f 267/50/371 221/71/129 306/49/369
f 306/49/369 201/73/101 269/47/412
f 201/73/101 202/74/62 269/47/412
f 310/24/411 266/38/375 307/30/475
f 321/31/399 266/38/375 329/11/345
f 204/72/78 152/91/103 157/87/18
f 204/72/78 148/79/105 152/91/103
f 152/91/103 148/79/105 143/95/64
f 238/52/245 237/53/251 204/72/78
f 237/53/251 148/79/105 204/72/78
f 321/31/399 237/53/251 266/38/375
f 237/53/251 238/52/245 266/38/375
f 229/55/217 145/77/124 148/79/105
f 237/53/251 229/55/217 148/79/105
f 320/32/343 237/53/251 321/31/399
f 320/32/343 229/55/217 237/53/251
f 198/69/140 145/77/124 229/55/217
f 320/32/343 317/34/342 229/55/217
f 230/54/230 198/69/140 229/55/217
f 317/34/342 230/54/230 229/55/217
f 330/12/421 321/31/399 329/11/345
f 330/12/421 320/32/343 321/31/399
f 330/12/421 318/25/433 317/34/342
f 154/86/58 144/93/45 145/77/124
f 198/69/140 154/86/58 145/77/124
f 145/77/124 144/93/45 148/79/105
f 148/79/105 144/93/45 143/95/64
f 226/66/76 198/69/140 230/54/230
f 308/36/362 224/65/125 264/37/372
f 224/65/125 226/66/76 264/37/372
f 315/35/419 223/67/106 308/36/362
f 223/67/106 224/65/125 308/36/362
f 226/66/76 154/86/58 198/69/140
f 226/66/76 199/82/11 154/86/58
f 224/65/125 199/82/11 226/66/76
f 224/65/125 223/67/106 199/82/11
f 318/25/433 264/37/372 317/34/342
f 319/26/474 264/37/372 318/25/433
f 319/26/474 308/36/362 264/37/372
f 315/35/419 308/36/362 319/26/474
f 201/73/101 222/90/1 202/74/62
f 309/28/478 306/49/369 269/47/412
f 264/37/372 226/66/76 230/54/230
f 317/34/342 264/37/372 230/54/230
f 223/67/106 315/35/419 312/33/344
f 185/70/67 223/67/106 312/33/344
f 223/67/106 162/85/3 199/82/11
f 223/67/106 185/70/67 162/85/3
f 311/27/476 315/35/419 319/26/474
f 312/33/344 315/35/419 311/27/476
f 202/74/62 313/39/340 269/47/412
f 200/80/63 313/39/340 202/74/62
f 222/90/1 220/92/2 202/74/62
f 220/92/2 200/80/63 202/74/62
f 314/29/477 309/28/478 269/47/412
f 313/39/340 314/29/477 269/47/412
f 330/12/421 317/34/342 320/32/343
f 266/38/375 310/24/411 329/11/345
