# Blender v2.78 (sub 0) OBJ File: ''
# www.blender.org
mtllib gun.mtl
o Cube_Cube.001
v -0.028000 -0.028000 0.028000
v -0.028000 0.128000 0.028000
v -0.028000 -0.028000 -0.028000
v -0.028000 0.128000 -0.028000
v 0.028000 -0.028000 0.028000
v 0.028000 0.128000 0.028000
v 0.028000 -0.028000 -0.028000
v 0.028000 0.128000 -0.028000
v -0.028000 0.073400 0.028000
v -0.028000 0.073400 -0.028000
v 0.028000 0.073400 -0.028000
v 0.028000 0.073400 0.028000
v -0.228000 0.073400 0.028000
v -0.228000 0.128000 0.028000
v -0.228000 0.128000 -0.028000
v -0.228000 0.073400 -0.028000
vn 0.0000 1.0000 0.0000
vn 0.0000 0.0000 -1.0000
vn 1.0000 0.0000 0.0000
vn 0.0000 0.0000 1.0000
vn 0.0000 -1.0000 0.0000
vn -1.0000 0.0000 0.0000
usemtl None
s off
f 2//1 4//1 15//1 14//1
f 10//2 4//2 8//2 11//2
f 11//3 8//3 6//3 12//3
f 12//4 6//4 2//4 9//4
f 3//5 7//5 5//5 1//5
f 8//1 4//1 2//1 6//1
f 5//4 12//4 9//4 1//4
f 7//3 11//3 12//3 5//3
f 3//2 10//2 11//2 7//2
f 1//6 9//6 10//6 3//6
f 13//6 14//6 15//6 16//6
f 4//2 10//2 16//2 15//2
f 9//4 2//4 14//4 13//4
f 10//5 9//5 13//5 16//5
