# Blender v2.92.0 OBJ File: 'quaternius_OGConvert.blend'
# www.blender.org
o Fence_Cube.049
v -0.400949 0.308541 -0.008272
v -0.400949 0.308777 0.007107
v -0.400949 0.223035 -0.006964
v -0.400949 0.223270 0.008415
v 0.390060 0.308541 -0.008272
v 0.390060 0.308777 0.007107
v 0.390060 0.223035 -0.006964
v 0.390060 0.223270 0.008415
v -0.126169 0.228352 -0.007008
v -0.126126 0.234854 0.008276
v -0.125588 0.313857 -0.008316
v -0.125588 0.314092 0.007064
v 0.121334 0.216122 0.008524
v 0.122708 0.310702 -0.008305
v 0.121334 0.215887 -0.006855
v 0.122708 0.310937 0.007074
v -0.112009 0.239741 -0.007182
v -0.109495 0.314422 0.007059
v -0.112009 0.239976 0.008197
v -0.109495 0.314186 -0.008321
v 0.110424 0.217878 0.008497
v 0.114546 0.295080 -0.008066
v 0.110423 0.217643 -0.006882
v 0.114546 0.295315 0.007313
v -0.101369 0.225935 -0.006971
v -0.077428 0.315079 0.007049
v -0.101369 0.226170 0.008409
v -0.077428 0.314843 -0.008331
v 0.256746 0.215846 0.008529
v 0.255742 0.295092 -0.008067
v 0.256746 0.215611 -0.006851
v 0.255742 0.295328 0.007313
v -0.400949 0.125624 -0.006256
v -0.400949 0.125959 0.009121
v -0.400949 0.211121 -0.008119
v -0.400949 0.211456 0.007259
v 0.390060 0.125624 -0.006256
v 0.390060 0.125959 0.009121
v 0.390060 0.211121 -0.008119
v 0.390060 0.211456 0.007259
v -0.240936 0.218149 -0.008272
v -0.240936 0.212218 0.007242
v -0.240936 0.132652 -0.006409
v -0.240936 0.132987 0.008968
v 0.134814 0.208230 0.007329
v 0.134814 0.122398 -0.006186
v 0.134814 0.207895 -0.008049
v 0.134814 0.122733 0.009191
v -0.226854 0.206665 -0.008022
v -0.224845 0.132548 0.008978
v -0.226854 0.207000 0.007356
v -0.224845 0.132213 -0.006400
v 0.123763 0.208192 0.007330
v 0.115790 0.130730 -0.006368
v 0.123763 0.207857 -0.008048
v 0.115790 0.131065 0.009010
v -0.194613 0.220831 -0.008330
v -0.192784 0.131673 0.008997
v -0.194613 0.221166 0.007047
v -0.192784 0.131338 -0.006381
v 0.263441 0.203819 0.007425
v 0.262437 0.124011 -0.006221
v 0.263441 0.203484 -0.007952
v 0.262437 0.124346 0.009156
v -0.311739 -0.002826 0.013071
v -0.311739 0.323195 0.013071
v -0.311739 -0.002826 -0.012816
v -0.311739 0.323195 -0.012816
v -0.277785 -0.002826 0.013071
v -0.277785 0.323195 0.013071
v -0.277785 -0.002826 -0.012816
v -0.277785 0.323195 -0.012816
v 0.311739 -0.002826 0.013071
v 0.311739 0.323195 0.013071
v 0.311739 -0.002826 -0.012816
v 0.311739 0.323195 -0.012816
v 0.277785 -0.002826 0.013071
v 0.277785 0.323195 0.013071
v 0.277785 -0.002826 -0.012816
v 0.277785 0.323195 -0.012816
v -0.305311 0.227846 0.013071
v -0.305311 0.227846 -0.012816
v -0.277785 0.231703 -0.012816
v -0.277785 0.231703 0.013071
v -0.311739 0.203353 -0.012816
v -0.277785 0.203353 -0.012816
v -0.277785 0.203353 0.013071
v -0.311739 0.203353 0.013071
v -0.311739 0.110573 -0.012816
v -0.277785 0.110573 -0.012816
v -0.277785 0.110573 0.013071
v -0.311739 0.110573 0.013071
v -0.306597 0.092535 -0.012816
v -0.277785 0.093821 -0.012816
v -0.277785 0.093821 0.013071
v -0.306597 0.092535 0.013071
v 0.305260 0.257435 0.013071
v 0.305260 0.257435 -0.012816
v 0.277785 0.257435 -0.012816
v 0.277785 0.257435 0.013071
v 0.311739 0.236986 -0.012816
v 0.277785 0.236986 -0.012816
v 0.277785 0.236986 0.013071
v 0.311739 0.236986 0.013071
v 0.311739 0.155190 -0.012816
v 0.284264 0.152413 -0.012816
v 0.284264 0.152413 0.013071
v 0.311739 0.155190 0.013071
v 0.311739 0.112433 -0.012816
v 0.277785 0.112433 -0.012816
v 0.277785 0.112433 0.013071
v 0.311739 0.112433 0.013071
vt 0.817235 0.345462
vt 0.836521 0.452604
vt 0.817235 0.452604
vt 0.791135 0.003416
vt 0.810247 0.170121
vt 0.790963 0.170128
vt 0.809829 0.763948
vt 0.790543 0.656736
vt 0.809829 0.656736
vt 0.764508 0.348594
vt 0.784123 0.003416
vt 0.783789 0.348602
vt 0.488077 0.826971
vt 0.399995 0.996592
vt 0.388432 0.829573
vt 0.278256 0.650780
vt 0.366304 0.996592
vt 0.259087 0.995146
vt 0.284918 0.633167
vt 0.377622 0.651444
vt 0.493842 0.003408
vt 0.397936 0.349273
vt 0.386625 0.004854
vt 0.783766 0.368775
vt 0.764485 0.368768
vt 0.610184 0.436248
vt 0.629670 0.780290
vt 0.610386 0.780321
vt 0.836515 0.171650
vt 0.817679 0.338646
vt 0.817235 0.171651
vt 0.360539 0.173029
vt 0.258952 0.340206
vt 0.260894 0.170427
vt 0.485675 0.649944
vt 0.386490 0.659794
vt 0.388507 0.646085
vt 0.790940 0.339819
vt 0.810255 0.353563
vt 0.790972 0.353571
vt 0.610386 0.419022
vt 0.629589 0.436448
vt 0.505160 0.348556
vt 0.412456 0.366833
vt 0.764440 0.408965
vt 0.783720 0.408973
vt 0.379673 0.591079
vt 0.267787 0.619593
vt 0.358137 0.350056
vt 0.260969 0.353915
vt 0.610384 0.807122
vt 0.629670 0.787138
vt 0.629670 0.807122
vt 0.791135 0.619335
vt 0.810418 0.619328
vt 0.507211 0.408921
vt 0.395325 0.380407
vt 0.807704 0.645439
vt 0.790940 0.626152
vt 0.807704 0.626153
vt 0.784123 0.649919
vt 0.764843 0.649911
vt 0.272457 0.003408
vt 0.836960 0.003408
vt 0.817680 0.003409
vt 0.810224 0.339812
vt 0.816645 0.763878
vt 0.835931 0.656736
vt 0.835931 0.763877
vt 0.514584 0.836528
vt 0.533534 0.995187
vt 0.514257 0.995189
vt 0.764440 0.656736
vt 0.783726 0.763948
vt 0.764440 0.763948
vt 0.540680 0.203600
vt 0.560055 0.003408
vt 0.559966 0.203595
vt 0.021705 0.162758
vt 0.118391 0.003408
vt 0.121377 0.163417
vt 0.144917 0.003408
vt 0.242113 0.204634
vt 0.142752 0.204036
vt 0.149189 0.221732
vt 0.242543 0.224813
vt 0.017144 0.995864
vt 0.114341 0.794638
vt 0.124364 0.995218
vt 0.559969 0.223777
vt 0.514456 0.003410
vt 0.533663 0.204026
vt 0.514144 0.203950
vt 0.540743 0.834746
vt 0.560055 0.674896
vt 0.560028 0.834741
vt 0.149477 0.836515
vt 0.252136 0.675848
vt 0.249149 0.835856
vt 0.017145 0.324070
vt 0.114058 0.347341
vt 0.017275 0.337927
vt 0.533727 0.661341
vt 0.514446 0.675199
vt 0.514450 0.661343
vt 0.514584 0.221749
vt 0.021417 0.777540
vt 0.007122 0.795284
vt 0.540692 0.263997
vt 0.559977 0.263991
vt 0.243398 0.265020
vt 0.131180 0.262050
vt 0.144917 0.675202
vt 0.241830 0.651932
vt 0.540770 0.674901
vt 0.559963 0.650679
vt 0.533305 0.261994
vt 0.514028 0.261996
vt 0.003408 0.737222
vt 0.115626 0.734252
vt 0.114771 0.774459
vt 0.533861 0.221747
vt 0.145047 0.661346
vt 0.540678 0.650684
vt 0.246163 0.995864
vt 0.138944 0.995218
vt 0.560002 0.994586
vt 0.124364 0.323425
vt 0.533723 0.675196
vt 0.668950 0.827454
vt 0.636486 0.708317
vt 0.668946 0.708317
vt 0.708231 0.412175
vt 0.665656 0.297462
vt 0.700171 0.292626
vt 0.599331 0.827722
vt 0.566872 0.713019
vt 0.599331 0.713019
vt 0.609447 0.297462
vt 0.566872 0.412175
vt 0.574932 0.292626
vt 0.817235 0.459457
vt 0.849679 0.501968
vt 0.817235 0.502004
vt 0.796898 0.813338
vt 0.764440 0.770768
vt 0.796898 0.770765
vt 0.747507 0.745418
vt 0.715048 0.827722
vt 0.715048 0.745418
vt 0.749499 0.085858
vt 0.715048 0.003408
vt 0.757623 0.003408
vt 0.708231 0.745066
vt 0.675772 0.827453
vt 0.675772 0.745065
vt 0.650715 0.329725
vt 0.616264 0.412175
vt 0.616264 0.329725
vt 0.849679 0.508821
vt 0.817235 0.551404
vt 0.817235 0.508857
vt 0.803715 0.813341
vt 0.836173 0.770765
vt 0.836173 0.813338
vt 0.609447 0.261917
vt 0.566872 0.261917
vt 0.566872 0.677477
vt 0.599331 0.677477
vt 0.665656 0.261917
vt 0.708231 0.261917
vt 0.636491 0.677307
vt 0.668950 0.677308
vt 0.636491 0.561065
vt 0.668950 0.561066
vt 0.665656 0.145588
vt 0.708231 0.145588
vt 0.566872 0.561159
vt 0.599331 0.561159
vt 0.566872 0.145588
vt 0.609447 0.145588
vt 0.573320 0.122972
vt 0.609447 0.124584
vt 0.566872 0.540157
vt 0.599331 0.540157
vt 0.701783 0.122972
vt 0.665656 0.124584
vt 0.636487 0.538724
vt 0.668947 0.538725
vt 0.636491 0.418991
vt 0.668950 0.418992
vt 0.665656 0.003408
vt 0.708231 0.003408
vt 0.566872 0.418991
vt 0.599331 0.418991
vt 0.609447 0.003408
vt 0.566872 0.003408
vt 0.616264 0.304086
vt 0.708231 0.719446
vt 0.675772 0.719445
vt 0.715048 0.111498
vt 0.757623 0.111498
vt 0.747507 0.719642
vt 0.715048 0.719642
vt 0.747507 0.617095
vt 0.715048 0.617095
vt 0.757623 0.214054
vt 0.708227 0.613812
vt 0.675767 0.613811
vt 0.658839 0.201529
vt 0.624388 0.198047
vt 0.658839 0.147920
vt 0.616264 0.147920
vt 0.708231 0.563396
vt 0.675772 0.563395
vt 0.757623 0.267663
vt 0.723172 0.217536
vt 0.747507 0.563490
vt 0.715048 0.563490
vt 0.747507 0.418991
vt 0.715048 0.418991
vt 0.715048 0.412175
vt 0.757623 0.412175
vt 0.708231 0.418992
vt 0.675772 0.418991
vt 0.658839 0.003408
vt 0.616264 0.003408
vt 0.836521 0.345462
vt 0.810418 0.003408
vt 0.790543 0.763948
vt 0.764843 0.003408
vt 0.507211 0.995146
vt 0.378308 0.631272
vt 0.836960 0.338645
vt 0.377863 0.340086
vt 0.505401 0.659914
vt 0.629670 0.418991
vt 0.505845 0.368728
vt 0.610384 0.787138
vt 0.790940 0.645438
vt 0.379673 0.004854
vt 0.816645 0.656736
vt 0.533861 0.836526
vt 0.783726 0.656736
vt 0.540770 0.003414
vt 0.011172 0.004054
vt 0.252136 0.004054
vt 0.540684 0.223782
vt 0.533733 0.003408
vt 0.540717 0.994591
vt 0.636491 0.827453
vt 0.665656 0.412175
vt 0.566872 0.827722
vt 0.609447 0.412175
vt 0.849679 0.459421
vt 0.764440 0.813341
vt 0.747507 0.827722
vt 0.715048 0.085858
vt 0.708231 0.827454
vt 0.658839 0.412175
vt 0.849679 0.551368
vt 0.803715 0.770767
vt 0.658839 0.304086
vt 0.715048 0.267663
vn -1.0000 0.0000 0.0000
vn 0.0556 -0.9983 0.0153
vn 1.0000 0.0000 0.0000
vn -0.0193 0.9997 -0.0153
vn -0.0000 -0.0153 -0.9999
vn -0.0001 0.0153 0.9999
vn -0.0000 0.0153 0.9999
vn 0.0001 -0.0153 -0.9999
vn -0.0205 0.9997 -0.0153
vn 0.0193 -0.9997 0.0153
vn 0.1165 0.9931 -0.0152
vn -0.1589 -0.9872 0.0151
vn 0.5977 -0.7383 0.3124
vn -0.8863 0.4630 -0.0071
vn -0.0391 -0.9991 0.0153
vn -0.0002 -0.0152 -0.9999
vn -0.7921 -0.6103 0.0093
vn 0.0002 0.0152 0.9999
vn 0.1024 0.9946 -0.0152
vn -0.0996 0.9949 -0.0152
vn -0.0020 -0.9999 0.0153
vn -0.0602 0.9979 -0.0217
vn 0.0439 -0.9988 0.0218
vn -0.0000 -0.0218 -0.9998
vn 0.0000 0.0218 0.9998
vn -0.0273 -0.9994 0.0218
vn -0.0407 0.9333 0.3568
vn 0.0126 -0.9997 0.0218
vn -0.0034 0.9998 -0.0218
vn 0.6027 0.7453 0.2849
vn -0.4013 -0.9157 0.0200
vn 0.0407 0.9989 -0.0218
vn -0.4023 0.9153 -0.0199
vn -0.0020 -0.9998 0.0218
vn 0.0343 0.9992 -0.0218
vn -0.9977 -0.0673 0.0000
vn -0.0000 0.0000 -1.0000
vn 0.0000 -0.0000 1.0000
vn 0.0000 -1.0000 0.0000
vn 0.0000 1.0000 0.0000
vn 0.9952 -0.0981 0.0000
vn -0.9672 0.2538 0.0000
vn -0.9617 -0.2742 0.0000
vn -0.9985 0.0538 0.0000
vn 0.9533 0.3021 0.0000
vn -0.9971 -0.0764 0.0000
vn -0.9871 0.1600 0.0000
vn 0.0390 -0.9195 0.3911
vn 0.3411 -0.9399 0.0144
vn -0.0002 -0.0153 -0.9999
vn 0.0002 0.0153 0.9999
vn -0.0048 0.9998 -0.0218
vn 0.3475 0.9375 -0.0204
vn -0.4013 -0.9157 0.0199
s off
f 3/1/1 2/2/1 1/3/1
f 7/4/2 29/5/2 31/6/2
f 5/7/3 8/8/3 7/9/3
f 11/10/4 2/11/4 12/12/4
f 30/13/5 7/14/5 31/15/5
f 10/16/6 2/17/6 4/18/6
f 19/19/7 12/20/7 10/16/7
f 1/21/8 9/22/8 3/23/8
f 11/10/9 18/24/9 20/25/9
f 9/26/10 4/27/10 3/28/10
f 30/29/11 16/30/11 32/31/11
f 32/32/7 13/33/7 29/34/7
f 22/35/5 15/36/5 23/37/5
f 15/38/12 21/39/12 23/40/12
f 17/41/13 10/42/13 9/26/13
f 11/43/5 17/44/5 9/22/5
f 28/45/9 18/24/9 26/46/9
f 26/47/7 19/19/7 27/48/7
f 13/33/7 24/49/7 21/50/7
f 14/51/14 24/52/14 16/53/14
f 25/54/15 21/39/15 27/55/15
f 28/56/16 23/37/16 25/57/16
f 17/44/5 28/56/5 25/57/5
f 17/58/17 27/59/17 19/60/17
f 21/50/18 26/47/18 27/48/18
f 28/45/19 24/61/19 22/62/19
f 8/63/7 32/32/7 29/34/7
f 5/64/20 32/31/20 6/65/20
f 15/36/5 30/13/5 31/15/5
f 31/6/21 13/66/21 15/38/21
f 34/67/1 35/68/1 33/69/1
f 63/70/22 40/71/22 39/72/22
f 39/73/3 38/74/3 37/75/3
f 44/76/23 33/77/23 43/78/23
f 63/79/24 37/80/24 62/81/24
f 36/82/25 44/83/25 42/84/25
f 51/85/25 44/83/25 50/86/25
f 35/87/24 43/88/24 33/89/24
f 52/90/26 44/76/26 43/78/26
f 35/91/27 42/92/27 41/93/27
f 64/94/28 46/95/28 62/96/28
f 61/97/25 48/98/25 64/99/25
f 47/100/24 54/101/24 55/102/24
f 53/103/29 47/104/29 55/105/29
f 42/92/30 49/106/30 41/93/30
f 49/107/24 43/88/24 41/108/24
f 58/109/26 52/90/26 60/110/26
f 51/85/25 58/111/25 59/112/25
f 45/113/25 56/114/25 48/98/25
f 48/115/31 54/116/31 46/95/31
f 59/117/32 55/105/32 57/118/32
f 57/119/24 54/101/24 60/120/24
f 49/107/24 60/120/24 52/121/24
f 51/122/33 57/118/33 49/106/33
f 59/112/25 56/114/25 53/123/25
f 56/124/34 60/110/34 54/116/34
f 61/97/25 38/125/25 40/126/25
f 37/127/28 64/94/28 62/96/28
f 63/79/24 46/128/24 47/100/24
f 45/129/35 63/70/35 47/104/35
f 66/130/36 82/131/36 81/132/36
f 68/133/37 83/134/37 82/135/37
f 72/136/3 84/137/3 83/138/3
f 84/139/38 66/140/38 81/141/38
f 71/142/39 65/143/39 67/144/39
f 68/145/40 70/146/40 72/147/40
f 98/148/41 74/149/41 97/150/41
f 98/151/37 80/152/37 76/153/37
f 100/154/1 80/155/1 99/156/1
f 97/157/38 78/158/38 100/159/38
f 73/160/39 79/161/39 75/162/39
f 78/163/40 76/164/40 80/165/40
f 87/166/38 81/141/38 88/167/38
f 83/138/3 87/168/3 86/169/3
f 82/135/37 86/170/37 85/171/37
f 81/132/42 85/172/42 88/173/42
f 88/173/1 89/174/1 92/175/1
f 85/171/37 90/176/37 89/177/37
f 86/169/3 91/178/3 90/179/3
f 87/166/38 92/180/38 91/181/38
f 91/181/38 96/182/38 95/183/38
f 90/179/3 95/184/3 94/185/3
f 93/186/37 90/176/37 94/187/37
f 92/175/43 93/188/43 96/189/43
f 96/189/44 67/190/44 65/191/44
f 93/186/37 71/192/37 67/193/37
f 94/185/3 69/194/3 71/195/3
f 69/196/38 96/182/38 65/197/38
f 103/198/38 97/157/38 100/159/38
f 103/199/1 99/156/1 102/200/1
f 102/201/37 98/151/37 101/202/37
f 101/203/45 97/150/45 104/204/45
f 105/205/3 104/204/3 108/206/3
f 105/207/37 102/201/37 101/202/37
f 107/208/46 102/200/46 106/209/46
f 108/210/38 103/198/38 107/211/38
f 112/212/38 107/211/38 111/213/38
f 111/214/47 106/209/47 110/215/47
f 109/216/37 106/217/37 105/207/37
f 109/218/3 108/206/3 112/219/3
f 75/220/3 112/219/3 73/221/3
f 79/222/37 109/216/37 75/223/37
f 77/224/1 110/215/1 79/225/1
f 73/226/38 111/213/38 77/227/38
f 3/1/1 4/228/1 2/2/1
f 7/4/2 8/229/2 29/5/2
f 5/7/3 6/230/3 8/8/3
f 11/10/4 1/231/4 2/11/4
f 30/13/5 5/232/5 7/14/5
f 10/16/6 12/20/6 2/17/6
f 19/19/7 18/233/7 12/20/7
f 1/21/8 11/43/8 9/22/8
f 11/10/9 12/12/9 18/24/9
f 9/26/48 10/42/48 4/27/48
f 30/29/11 14/234/11 16/30/11
f 32/32/7 16/235/7 13/33/7
f 22/35/5 14/236/5 15/36/5
f 15/38/12 13/66/12 21/39/12
f 17/41/49 19/237/49 10/42/49
f 11/43/5 20/238/5 17/44/5
f 28/45/9 20/25/9 18/24/9
f 26/47/7 18/233/7 19/19/7
f 13/33/7 16/235/7 24/49/7
f 14/51/14 22/239/14 24/52/14
f 25/54/15 23/40/15 21/39/15
f 28/56/50 22/35/50 23/37/50
f 17/44/5 20/238/5 28/56/5
f 17/58/17 25/240/17 27/59/17
f 21/50/51 24/49/51 26/47/51
f 28/45/19 26/46/19 24/61/19
f 8/63/7 6/241/7 32/32/7
f 5/64/20 30/29/20 32/31/20
f 15/36/5 14/236/5 30/13/5
f 31/6/21 29/5/21 13/66/21
f 34/67/1 36/242/1 35/68/1
f 63/70/22 61/243/22 40/71/22
f 39/73/3 40/244/3 38/74/3
f 44/76/23 34/245/23 33/77/23
f 63/79/24 39/246/24 37/80/24
f 36/82/25 34/247/25 44/83/25
f 51/85/25 42/84/25 44/83/25
f 35/87/24 41/108/24 43/88/24
f 52/90/26 50/248/26 44/76/26
f 35/91/52 36/249/52 42/92/52
f 64/94/28 48/115/28 46/95/28
f 61/97/25 45/113/25 48/98/25
f 47/100/24 46/128/24 54/101/24
f 53/103/29 45/129/29 47/104/29
f 42/92/53 51/122/53 49/106/53
f 49/107/24 52/121/24 43/88/24
f 58/109/26 50/248/26 52/90/26
f 51/85/25 50/86/25 58/111/25
f 45/113/25 53/123/25 56/114/25
f 48/115/54 56/124/54 54/116/54
f 59/117/32 53/103/32 55/105/32
f 57/119/24 55/102/24 54/101/24
f 49/107/24 57/119/24 60/120/24
f 51/122/33 59/117/33 57/118/33
f 59/112/25 58/111/25 56/114/25
f 56/124/34 58/109/34 60/110/34
f 61/97/25 64/99/25 38/125/25
f 37/127/28 38/250/28 64/94/28
f 63/79/24 62/81/24 46/128/24
f 45/129/35 61/243/35 63/70/35
f 66/130/36 68/251/36 82/131/36
f 68/133/37 72/252/37 83/134/37
f 72/136/3 70/253/3 84/137/3
f 84/139/38 70/254/38 66/140/38
f 71/142/39 69/255/39 65/143/39
f 68/145/40 66/256/40 70/146/40
f 98/148/41 76/257/41 74/149/41
f 98/151/37 99/258/37 80/152/37
f 100/154/1 78/259/1 80/155/1
f 97/157/38 74/260/38 78/158/38
f 73/160/39 77/261/39 79/161/39
f 78/163/40 74/262/40 76/164/40
f 87/166/38 84/139/38 81/141/38
f 83/138/3 84/137/3 87/168/3
f 82/135/37 83/134/37 86/170/37
f 81/132/42 82/131/42 85/172/42
f 88/173/1 85/172/1 89/174/1
f 85/171/37 86/170/37 90/176/37
f 86/169/3 87/168/3 91/178/3
f 87/166/38 88/167/38 92/180/38
f 91/181/38 92/180/38 96/182/38
f 90/179/3 91/178/3 95/184/3
f 93/186/37 89/177/37 90/176/37
f 92/175/43 89/174/43 93/188/43
f 96/189/44 93/188/44 67/190/44
f 93/186/37 94/187/37 71/192/37
f 94/185/3 95/184/3 69/194/3
f 69/196/38 95/183/38 96/182/38
f 103/198/38 104/263/38 97/157/38
f 103/199/1 100/154/1 99/156/1
f 102/201/37 99/258/37 98/151/37
f 101/203/45 98/148/45 97/150/45
f 105/205/3 101/203/3 104/204/3
f 105/207/37 106/217/37 102/201/37
f 107/208/46 103/199/46 102/200/46
f 108/210/38 104/263/38 103/198/38
f 112/212/38 108/210/38 107/211/38
f 111/214/47 107/208/47 106/209/47
f 109/216/37 110/264/37 106/217/37
f 109/218/3 105/205/3 108/206/3
f 75/220/3 109/218/3 112/219/3
f 79/222/37 110/264/37 109/216/37
f 77/224/1 111/214/1 110/215/1
f 73/226/38 112/212/38 111/213/38
