# Blender v2.92.0 OBJ File: 'quaternius_OGConvert.blend'
# www.blender.org
o Rock_1_Cube.395
v 0.087764 0.142930 0.054673
v 0.098858 0.142930 0.029149
v -0.107913 0.160025 0.009567
v -0.098266 0.142864 -0.078374
v 0.002841 0.160025 -0.086144
v -0.045558 0.168633 0.075961
v 0.023568 0.160025 0.068662
v 0.061619 0.155646 -0.061957
v 0.102023 0.000547 0.066016
v 0.113515 0.000547 0.017853
v -0.141514 0.000547 0.015446
v -0.116406 0.000547 -0.090206
v 0.001908 0.000547 -0.108495
v -0.060767 0.000547 0.101423
v 0.028748 0.000547 0.091971
v 0.072494 -0.003832 -0.094010
vt 0.300610 0.647874
vt 0.135652 0.868327
vt 0.001797 0.761482
vt 0.006485 0.629487
vt 0.247269 0.540122
vt 0.071341 0.480336
vt 0.024831 0.504529
vt 0.383398 0.305010
vt 0.193598 0.001797
vt 0.383398 0.079078
vt 0.001797 0.297285
vt 0.336106 0.432509
vt 0.115589 0.476742
vt 0.386992 0.165120
vt 0.703458 0.072324
vt 0.708774 0.150685
vt 0.708728 0.323336
vt 0.400741 0.061706
vt 0.684191 0.010930
vt 0.708774 0.433234
vt 0.407565 0.386756
vt 0.998203 0.578704
vt 0.696594 0.742965
vt 0.728012 0.558338
vt 0.386992 0.528370
vt 0.692405 0.636427
vt 0.388578 0.642839
vt 0.423326 0.830468
vt 0.994359 0.501235
vt 0.724710 0.520592
vt 0.300610 0.835902
vt 0.009976 0.127612
vt 0.029079 0.441426
vt 0.418352 0.001797
vt 0.447361 0.497640
vt 0.998203 0.803703
vt 0.692999 0.501235
vt 0.692999 0.856048
vn -0.0616 0.9956 -0.0712
vn 0.0786 0.9969 -0.0105
vn 0.2801 0.9522 0.1218
vn 0.0000 -1.0000 0.0000
vn -0.0637 -0.9979 0.0085
vn 0.0259 -0.9992 0.0296
vn 0.1210 0.1380 0.9830
vn -0.7294 0.1665 0.6635
vn 0.2480 0.1480 0.9574
vn -0.9692 0.1989 -0.1451
vn 0.9245 0.1238 -0.3606
vn 0.3855 0.1259 -0.9141
vn -0.0993 0.1387 -0.9854
vn 0.9102 0.1227 0.3956
vn -0.1792 0.9617 -0.2073
vn 0.1219 0.9924 -0.0163
vn 0.2399 0.9701 0.0374
vn 0.1039 0.1471 0.9836
vn -0.7175 0.1760 0.6739
vn 0.3319 0.1079 0.9371
vn -0.9631 0.1418 -0.2289
vn 0.9289 0.1328 -0.3458
vn 0.2090 0.2064 -0.9559
vn -0.1520 0.1011 -0.9832
vn 0.9695 0.0814 0.2313
s off
f 5/1/1 3/2/1 6/3/1
f 5/1/2 7/4/2 8/5/2
f 2/6/3 7/4/3 1/7/3
f 13/8/4 11/9/4 12/10/4
f 15/11/5 13/8/5 16/12/5
f 10/13/6 15/11/6 16/12/6
f 14/14/7 7/15/7 6/16/7
f 3/17/8 14/14/8 6/16/8
f 15/18/9 1/19/9 7/15/9
f 4/20/10 11/21/10 3/17/10
f 10/22/11 8/23/11 2/24/11
f 8/25/12 13/26/12 5/27/12
f 13/26/13 4/28/13 5/27/13
f 9/29/14 2/24/14 1/30/14
f 5/1/15 4/31/15 3/2/15
f 5/1/16 6/3/16 7/4/16
f 2/6/17 8/5/17 7/4/17
f 13/8/4 14/32/4 11/9/4
f 15/11/4 14/32/4 13/8/4
f 10/13/4 9/33/4 15/11/4
f 14/14/18 15/18/18 7/15/18
f 3/17/19 11/21/19 14/14/19
f 15/18/20 9/34/20 1/19/20
f 4/20/21 12/35/21 11/21/21
f 10/22/22 16/36/22 8/23/22
f 8/25/23 16/37/23 13/26/23
f 13/26/24 12/38/24 4/28/24
f 9/29/25 10/22/25 2/24/25
