# Blender v2.78 (sub 0) OBJ File: ''
# www.blender.org
o Object484
v 0.026952 0.397045 -0.098805
v 0.174995 0.664850 0.089127
v 0.224114 0.072620 0.104220
v -0.245312 0.095334 -0.003531
v 0.020430 0.125635 -0.038958
v -0.052270 0.627106 -0.067651
v -0.179295 0.898536 0.101185
v -0.280690 0.436178 0.006503
v -0.280690 0.436178 0.006503
v -0.004418 0.007431 0.068920
vt 0.4361 0.2845
vt 0.7025 0.4988
vt 0.0516 0.4959
vt 0.1128 0.0005
vt 0.1639 0.2645
vt 0.6837 0.2345
vt 0.9909 0.1724
vt 0.5700 0.0005
vt 0.5700 0.0005
vt 0.0005 0.2525
vn 0.2592 0.0160 -0.9657
vn 0.5632 0.3459 -0.7505
vn 0.5616 -0.2992 -0.7714
vn -0.1780 -0.2724 -0.9456
vn 0.2023 -0.4211 -0.8842
vn 0.0192 0.3543 -0.9349
vn -0.0580 0.5076 -0.8596
vn 0.4938 0.8622 0.1129
vn -0.0287 -0.9200 -0.3908
vn 0.1417 -0.6834 -0.7162
s 1
f 1/1/1 2/2/2 3/3/3
f 4/4/4 1/1/1 5/5/5
f 3/3/3 5/5/5 1/1/1
f 6/6/6 7/7/7 2/2/2
f 8/8/8 7/7/7 6/6/6
f 9/9/9 1/1/1 4/4/4
f 2/2/2 1/1/1 6/6/6
f 6/6/6 1/1/1 9/9/9
f 3/3/3 10/10/10 5/5/5
f 5/5/5 10/10/10 4/4/4
