# Blender v2.92.0 OBJ File: 'kenney_OGConvert.blend'
# www.blender.org
o bannerGreen
v 0.375000 0.950000 0.200000
v 0.375000 1.000000 0.120000
v 0.375000 0.950000 0.120000
v 0.375000 1.000000 0.200000
v 0.375000 0.950000 0.040000
v 0.375000 1.000000 -0.040000
v 0.375000 0.950000 -0.040000
v 0.375000 1.000000 0.040000
v 0.425000 1.000000 0.200000
v 0.425000 1.000000 0.120000
v 0.375000 1.000000 -0.200000
v 0.425000 1.000000 -0.120000
v 0.425000 1.000000 -0.200000
v 0.375000 1.000000 -0.120000
v 0.375000 0.950000 -0.200000
v 0.375000 0.950000 -0.120000
v 0.425000 1.000000 0.040000
v 0.425000 1.000000 -0.040000
v 0.400000 0.160649 -0.200000
v 0.400000 0.286311 -0.120000
v 0.400000 0.890389 -0.120000
v 0.400000 0.254064 -0.000000
v 0.400000 0.342360 -0.000000
v 0.400000 0.160649 0.200000
v 0.400000 0.286311 0.120000
v 0.400000 0.890389 0.120000
v 0.400000 0.950000 0.120000
v 0.400000 0.890389 0.200000
v 0.400000 0.950000 0.200000
v 0.400000 0.950000 -0.120000
v 0.400000 0.950000 -0.200000
v 0.400000 0.890389 -0.200000
v 0.387500 0.987500 -0.250000
v 0.412500 0.962500 -0.250000
v 0.387500 0.962500 -0.250000
v 0.412500 0.987500 -0.250000
v 0.425000 0.950000 0.200000
v 0.425000 0.950000 -0.200000
v 0.412500 0.987500 0.250000
v 0.387500 0.962500 0.250000
v 0.412500 0.962500 0.250000
v 0.387500 0.987500 0.250000
v 0.400000 0.890389 0.040000
v 0.400000 0.950000 0.040000
v 0.400000 0.950000 -0.040000
v 0.400000 0.890389 -0.040000
vt 0.705586 0.569868
vt 0.642442 0.468838
vt 0.705586 0.468838
vt 0.642442 0.569868
vt 0.705586 0.367807
vt 0.642442 0.266777
vt 0.705586 0.266777
vt 0.642442 0.367807
vt 0.573011 0.468838
vt 0.509867 0.569868
vt 0.509867 0.468838
vt 0.573011 0.569868
vt 0.573011 0.064716
vt 0.509867 0.165746
vt 0.509867 0.064716
vt 0.573011 0.165746
vt 0.705586 0.064716
vt 0.642442 0.165746
vt 0.642442 0.064716
vt 0.705586 0.165746
vt 0.573011 0.266777
vt 0.509867 0.367807
vt 0.509867 0.266777
vt 0.573011 0.367807
vt 0.506724 0.001571
vt 0.405694 0.923147
vt 0.405694 0.160268
vt 0.254148 0.119543
vt 0.254148 0.231051
vt 0.001572 0.001571
vt 0.102602 0.160268
vt 0.102602 0.923147
vt 0.102602 0.998428
vt 0.001571 0.923147
vt 0.001571 0.998428
vt 0.405694 0.998428
vt 0.506724 0.998428
vt 0.573011 0.636155
vt 0.573011 0.636155
vt 0.573011 0.636155
vt 0.509867 0.636155
vt 0.541439 0.667727
vt 0.509867 0.667727
vt 0.541439 0.636155
vt 0.771873 0.064716
vt 0.708729 0.569868
vt 0.708729 0.064716
vt 0.771873 0.165746
vt 0.771873 0.266777
vt 0.771873 0.367807
vt 0.771873 0.468838
vt 0.771873 0.569868
vt 0.607726 0.569868
vt 0.639299 0.064716
vt 0.639299 0.569868
vt 0.607727 0.064716
vt 0.576154 0.569868
vt 0.576154 0.064716
vt 0.775016 0.506724
vt 0.775016 0.001571
vt 0.775016 0.102602
vt 0.775016 0.203633
vt 0.775016 0.304663
vt 0.775016 0.405694
vt 0.576154 0.636155
vt 0.607726 0.667727
vt 0.576154 0.667727
vt 0.607726 0.636155
vt 0.689800 0.001571
vt 0.658228 0.001571
vt 0.756087 0.001571
vt 0.724515 0.001571
vt 0.525653 0.001571
vt 0.557225 0.001571
vt 0.623513 0.001571
vt 0.591941 0.001571
vt 0.623513 0.633012
vt 0.591940 0.633012
vt 0.525653 0.633012
vt 0.557225 0.633012
vt 0.689800 0.633012
vt 0.658228 0.633012
vt 0.724515 0.633012
vt 0.756087 0.633012
vt 0.203633 0.923147
vt 0.203633 0.998428
vt 0.304663 0.998428
vt 0.304663 0.923147
vn -0.9937 0.0000 0.1122
vn -1.0000 -0.0000 0.0000
vn 0.0000 1.0000 0.0000
vn 0.0000 0.9937 0.1122
vn 0.0000 0.9937 -0.1122
vn -0.9937 0.0000 -0.1122
vn 1.0000 0.0000 -0.0000
vn -0.0000 -1.0000 -0.0000
vn 0.0000 0.0000 -1.0000
vn 0.9937 -0.0000 -0.1122
vn 0.9937 -0.0000 0.1122
vn 0.0000 -0.9925 0.1222
vn 0.0000 -0.9937 -0.1122
vn 0.0000 -0.9937 0.1122
vn 0.0000 -0.9925 -0.1222
vn 0.0000 0.0000 0.0000
vn 0.0000 0.0000 1.0000
vn -0.9701 0.0000 -0.2425
vn 0.9701 0.0000 -0.2425
vn 0.0000 0.9701 -0.2425
vn 0.0000 -0.9701 -0.2425
vn 0.0000 -0.9701 0.2425
vn 0.0000 0.9701 0.2425
vn -0.9701 0.0000 0.2425
vn 0.9701 0.0000 0.2425
s 1
f 1/1/1 2/2/2 3/3/2
f 2/2/2 1/1/1 4/4/1
f 5/5/2 6/6/2 7/7/2
f 6/6/2 5/5/2 8/8/2
f 2/9/3 9/10/4 10/11/3
f 9/10/4 2/9/3 4/12/4
f 11/13/5 12/14/3 13/15/5
f 12/14/3 11/13/5 14/16/3
f 15/17/6 14/18/2 11/19/6
f 14/18/2 15/17/6 16/20/2
f 6/21/3 17/22/3 18/23/3
f 17/22/3 6/21/3 8/24/3
f 19/25/7 21/26/7 20/27/7
f 20/27/7 22/28/7 19/25/7
f 20/27/7 23/29/7 22/28/7
f 23/29/7 24/30/7 22/28/7
f 23/29/7 25/31/7 24/30/7
f 25/31/7 26/32/7 24/30/7
f 26/32/7 27/33/7 24/30/7
f 27/33/7 28/34/7 24/30/7
f 27/33/7 29/35/7 28/34/7
f 30/36/7 21/26/7 19/25/7
f 31/37/7 30/36/7 19/25/7
f 19/38/7 32/39/8 31/40/7
f 8/24/3 10/11/3 17/22/3
f 10/11/3 8/24/3 2/9/3
f 3/3/2 8/8/2 5/5/2
f 8/8/2 3/3/2 2/2/2
f 33/41/9 34/42/9 35/43/9
f 34/42/9 33/41/9 36/44/9
f 13/45/10 37/46/11 38/47/10
f 37/46/11 13/45/10 12/48/7
f 37/46/11 12/48/7 18/49/7
f 37/46/11 18/49/7 17/50/7
f 37/46/11 17/50/7 10/51/7
f 37/46/11 10/51/7 9/52/11
f 29/53/12 38/54/13 37/55/14
f 38/54/13 29/53/12 31/56/15
f 31/56/15 29/53/12 1/57/14
f 31/56/15 1/57/14 15/58/13
f 15/59/13 1/60/14 3/61/8
f 15/59/13 3/61/8 5/62/8
f 15/59/13 5/62/8 7/63/8
f 15/59/13 7/63/8 16/64/16
f 39/65/17 40/66/17 41/67/17
f 40/66/17 39/65/17 42/68/17
f 7/7/2 14/18/2 16/20/2
f 14/18/2 7/7/2 6/6/2
f 14/16/3 18/23/3 12/14/3
f 18/23/3 14/16/3 6/21/3
f 35/69/18 11/19/6 33/70/18
f 11/19/6 35/69/18 15/17/6
f 36/71/19 38/47/10 34/72/19
f 38/47/10 36/71/19 13/45/10
f 36/73/20 11/13/5 13/15/5
f 11/13/5 36/73/20 33/74/20
f 31/56/15 34/75/21 38/54/13
f 34/75/21 31/56/15 35/76/21
f 35/76/21 31/56/15 15/58/13
f 41/77/22 29/53/12 37/55/14
f 29/53/12 41/77/22 40/78/22
f 29/53/12 40/78/22 1/57/14
f 4/12/4 39/79/23 9/10/4
f 39/79/23 4/12/4 42/80/23
f 40/81/24 4/4/1 1/1/1
f 4/4/1 40/81/24 42/82/24
f 9/52/11 41/83/25 37/46/11
f 41/83/25 9/52/11 39/84/25
f 25/31/7 23/29/7 43/85/7
f 43/85/7 26/32/7 25/31/7
f 44/86/7 43/85/7 23/29/7
f 45/87/7 44/86/7 23/29/7
f 46/88/7 45/87/7 23/29/7
f 46/88/7 23/29/7 20/27/7
f 20/27/7 21/26/7 46/88/7
