# Blender v2.92.0 OBJ File: 'kenney_OGConvert.blend'
# www.blender.org
o chimneyBase
v 0.253092 0.590000 -0.130000
v 0.425000 0.410000 -0.260000
v 0.081183 0.410000 -0.260000
v 0.425000 0.590000 -0.130000
v 0.081183 0.410000 0.260000
v 0.253092 0.590000 0.130000
v 0.425000 0.350000 -0.260000
v 0.425000 0.350000 -0.200000
v 0.425000 0.128742 -0.200000
v 0.425000 -0.000000 0.240000
v 0.425000 0.000000 -0.240000
v 0.425000 0.128742 -0.240000
v 0.425000 0.128742 0.200000
v 0.425000 0.590000 0.130000
v 0.425000 1.000000 0.130000
v 0.425000 1.000000 -0.130000
v 0.425000 0.350000 0.200000
v 0.425000 0.410000 0.260000
v 0.425000 0.350000 0.260000
v 0.425000 0.128742 0.240000
v 0.101183 -0.000000 0.240000
v 0.101183 0.128742 -0.240000
v 0.101183 0.000000 -0.240000
v 0.101183 0.128742 0.240000
v 0.141183 0.128742 -0.200000
v 0.141183 0.128742 -0.149430
v 0.141183 0.128742 0.149430
v 0.141183 0.128742 0.200000
v 0.241183 0.128742 0.149430
v 0.241183 0.128742 -0.149430
v 0.081183 0.350000 -0.260000
v 0.081183 0.350000 0.260000
v 0.141183 0.350000 0.200000
v 0.141183 0.350000 -0.200000
v 0.141183 0.299430 0.149430
v 0.141183 0.299430 -0.149430
v 0.241183 0.299430 0.149430
v 0.253092 1.000000 0.130000
v 0.241183 0.299430 -0.149430
v 0.253092 1.000000 -0.130000
vt 0.420829 0.639228
vt 0.522827 0.746027
vt 0.318831 0.746027
vt 0.522827 0.639228
vt 0.318831 0.353497
vt 0.550229 0.246698
vt 0.627362 0.353497
vt 0.395963 0.246698
vt 0.080566 0.246698
vt 0.003433 0.389097
vt 0.003433 0.353497
vt 0.039033 0.389097
vt 0.039033 0.520376
vt 0.300098 0.596762
vt 0.015300 0.596762
vt 0.015300 0.520376
vt 0.276364 0.520376
vt 0.234831 0.246698
vt 0.234831 0.003433
vt 0.080566 0.003433
vt 0.276364 0.389097
vt 0.311964 0.353497
vt 0.311964 0.389097
vt 0.300098 0.520376
vt 0.278816 0.888426
vt 0.202429 0.603628
vt 0.278816 0.603628
vt 0.202429 0.888426
vt 0.921477 0.187622
vt 0.845091 0.379752
vt 0.845091 0.187622
vt 0.921477 0.379752
vt 0.195563 0.603628
vt 0.003433 0.627362
vt 0.003433 0.603628
vt 0.171830 0.627362
vt 0.171830 0.657366
vt 0.171830 0.834688
vt 0.171830 0.864693
vt 0.195563 0.888426
vt 0.003433 0.888426
vt 0.003433 0.864693
vt 0.112497 0.834688
vt 0.112497 0.657366
vt 0.522827 0.781627
vt 0.318831 0.781627
vt 0.318831 0.389097
vt 0.627362 0.389097
vt 0.955088 0.687628
vt 0.878701 0.879757
vt 0.878701 0.687628
vt 0.955088 0.879757
vt 0.529693 0.746027
vt 0.733690 0.781627
vt 0.529693 0.781627
vt 0.733690 0.746027
vt 0.634228 0.311964
vt 0.838224 0.276364
vt 0.838224 0.311964
vt 0.669828 0.276364
vt 0.669828 0.039033
vt 0.634228 0.003433
vt 0.838224 0.003433
vt 0.838224 0.039033
vt 0.740556 0.680761
vt 0.932686 0.395963
vt 0.932686 0.680761
vt 0.740556 0.395963
vt 0.529693 0.639228
vt 0.631692 0.639228
vt 0.871835 0.924959
vt 0.770561 0.894955
vt 0.871835 0.894955
vt 0.740556 0.924959
vt 0.770561 0.717632
vt 0.740556 0.687628
vt 0.871835 0.717632
vt 0.871835 0.687628
vt 0.450109 0.788493
vt 0.318831 0.956890
vt 0.318831 0.788493
vt 0.450109 0.956890
vt 0.588255 0.788493
vt 0.456976 0.956890
vt 0.456976 0.788493
vt 0.588255 0.956890
vt 0.878701 0.886624
vt 0.938034 0.987898
vt 0.878701 0.987898
vt 0.938034 0.886624
vt 0.529693 0.395963
vt 0.631692 0.395963
vt 0.928343 0.364944
vt 0.987676 0.187622
vt 0.987676 0.364944
vt 0.928343 0.187622
vt 0.550229 0.003433
vt 0.395963 0.003433
vt 0.946365 0.180755
vt 0.845091 0.003433
vt 0.946365 0.003433
vt 0.845091 0.180755
vt 0.420829 0.395963
vt 0.522827 0.395963
vt 0.003433 0.895293
vt 0.062766 0.996567
vt 0.003433 0.996567
vt 0.062766 0.895293
vt 0.697119 0.788493
vt 0.595121 0.942759
vt 0.595121 0.788493
vt 0.697119 0.942759
vn -0.0000 0.5855 -0.8107
vn -0.7232 0.6907 0.0000
vn 1.0000 0.0000 -0.0000
vn -1.0000 0.0000 0.0000
vn 0.0000 0.0000 1.0000
vn -0.0000 1.0000 0.0000
vn -0.0000 0.0000 -1.0000
vn 0.0000 -1.0000 0.0000
vn 0.0000 0.5855 0.8107
s 1
f 1/1/1 2/2/1 3/3/1
f 2/2/1 1/1/1 4/4/1
f 5/5/2 1/6/2 3/7/2
f 1/6/2 5/5/2 6/8/2
f 4/9/3 7/10/3 2/11/3
f 7/10/3 4/9/3 8/12/3
f 8/12/3 4/9/3 9/13/3
f 10/14/3 9/13/3 4/9/3
f 11/15/3 9/13/3 10/14/3
f 9/13/3 11/15/3 12/16/3
f 10/14/3 4/9/3 13/17/3
f 13/17/3 4/9/3 14/18/3
f 14/18/3 4/9/3 15/19/3
f 15/19/3 4/9/3 16/20/3
f 13/17/3 14/18/3 17/21/3
f 18/22/3 17/21/3 14/18/3
f 17/21/3 18/22/3 19/23/3
f 10/14/3 13/17/3 20/24/3
f 21/25/4 22/26/4 23/27/4
f 22/26/4 21/25/4 24/28/4
f 20/29/5 21/30/5 10/31/5
f 21/30/5 20/29/5 24/32/5
f 22/33/6 9/34/6 12/35/6
f 9/34/6 22/33/6 25/36/6
f 25/36/6 22/33/6 26/37/6
f 26/37/6 22/33/6 27/38/6
f 27/38/6 22/33/6 28/39/6
f 24/40/6 28/39/6 22/33/6
f 20/41/6 28/39/6 24/40/6
f 28/39/6 20/41/6 13/42/6
f 29/43/6 26/37/6 27/38/6
f 26/37/6 29/43/6 30/44/6
f 3/3/7 7/45/7 31/46/7
f 7/45/7 3/3/7 2/2/7
f 32/47/4 3/7/4 31/48/4
f 3/7/4 32/47/4 5/5/4
f 22/49/7 11/50/7 23/51/7
f 11/50/7 22/49/7 12/52/7
f 18/53/5 32/54/5 19/55/5
f 32/54/5 18/53/5 5/56/5
f 32/57/8 17/58/8 19/59/8
f 17/58/8 32/57/8 33/60/8
f 33/60/8 32/57/8 34/61/8
f 31/62/8 34/61/8 32/57/8
f 7/63/8 34/61/8 31/62/8
f 34/61/8 7/63/8 8/64/8
f 21/65/8 11/66/8 10/67/8
f 11/66/8 21/65/8 23/68/8
f 14/69/9 5/56/9 18/53/9
f 5/56/9 14/69/9 6/70/9
f 28/71/4 35/72/4 27/73/4
f 33/74/4 35/72/4 28/71/4
f 33/74/4 36/75/4 35/72/4
f 34/76/4 36/75/4 33/74/4
f 34/76/4 26/77/4 36/75/4
f 26/77/4 34/76/4 25/78/4
f 17/79/5 28/80/5 13/81/5
f 28/80/5 17/79/5 33/82/5
f 34/83/7 9/84/7 25/85/7
f 9/84/7 34/83/7 8/86/7
f 35/87/7 29/88/7 27/89/7
f 29/88/7 35/87/7 37/90/7
f 15/91/5 6/70/5 14/69/5
f 6/70/5 15/91/5 38/92/5
f 35/93/8 39/94/8 37/95/8
f 39/94/8 35/93/8 36/96/8
f 6/8/4 40/97/4 1/6/4
f 40/97/4 6/8/4 38/98/4
f 29/99/4 39/100/4 30/101/4
f 39/100/4 29/99/4 37/102/4
f 40/103/7 4/4/7 1/1/7
f 4/4/7 40/103/7 16/104/7
f 39/105/5 26/106/5 30/107/5
f 26/106/5 39/105/5 36/108/5
f 40/109/6 15/110/6 16/111/6
f 15/110/6 40/109/6 38/112/6
