# Blender v2.92.0 OBJ File: 'OGConvert.blend'
# www.blender.org
o fountainCorner
v -1.600000 1.120000 4.000000
v -1.600000 0.000000 -1.600000
v -1.600000 1.120000 -1.600000
v -1.600000 -0.000000 4.000000
v -1.600000 2.240000 -1.600000
v -1.600000 2.240000 4.000000
v -4.000000 1.120000 4.000000
v -3.760000 0.896000 -3.760000
v -3.760000 0.896000 4.000000
v -4.000000 1.120000 -3.700000
v -3.700000 1.120000 -4.000000
v 4.000000 2.240000 -1.600000
v 4.000000 1.120000 -1.600000
v 4.000000 0.000000 -1.600000
v 4.000000 1.120000 -4.000000
v 4.000000 0.896000 -3.760000
v -4.000000 -0.000000 4.000000
v -4.000000 0.000000 -4.000000
v 4.000000 0.000000 -4.000000
v -3.700000 2.240000 -4.000000
v 4.000000 2.240000 -4.000000
v 4.000000 2.240000 -3.400000
v -3.400000 2.240000 -3.400000
v -3.400000 2.240000 4.000000
v -4.000000 2.240000 -3.700000
v -4.000000 2.240000 4.000000
v -3.760000 0.448000 4.000000
v -4.000000 0.448000 4.000000
v 4.000000 -0.000000 4.000000
v 4.000000 0.448000 -3.760000
v -3.760000 0.448000 -3.760000
v 4.000000 0.448000 -4.000000
v -4.000000 0.448000 -4.000000
v 4.000000 1.120000 4.000000
vt 0.704331 0.228789
vt 0.659076 0.002517
vt 0.704331 0.002517
vt 0.659076 0.228789
vt 0.749585 0.002517
vt 0.749585 0.228789
vt 0.754620 0.316065
vt 0.764317 0.002517
vt 0.764317 0.316065
vt 0.754620 0.004942
vt 0.838007 0.567937
vt 0.838007 0.550794
vt 0.847799 0.559366
vt 0.421305 0.562103
vt 0.376051 0.788374
vt 0.376051 0.562103
vt 0.421305 0.788374
vt 0.330797 0.788374
vt 0.330797 0.562103
vt 0.769352 0.002517
vt 0.779049 0.316065
vt 0.769352 0.316065
vt 0.779049 0.004942
vt 0.325762 0.654042
vt 0.099491 0.557068
vt 0.325762 0.557068
vt 0.002517 0.654042
vt 0.002517 0.330797
vt 0.099491 0.330797
vt 0.793409 0.550794
vt 0.875335 0.330797
vt 0.830737 0.330797
vt 0.002517 0.026761
vt 0.228789 0.099491
vt 0.002517 0.099491
vt 0.301519 0.026761
vt 0.228789 0.325762
vt 0.301519 0.325762
vt 0.875335 0.787934
vt 0.793409 0.567937
vt 0.830737 0.787934
vt 0.567138 0.562103
vt 0.521883 0.659076
vt 0.521883 0.562103
vt 0.539985 0.649379
vt 0.558087 0.649379
vt 0.567138 0.659076
vt 0.612392 0.562103
vt 0.612392 0.659076
vt 0.325762 0.325762
vt 0.539985 0.659076
vt 0.557068 0.330797
vt 0.330797 0.557068
vt 0.330797 0.330797
vt 0.557068 0.557068
vt 0.942025 0.552508
vt 0.997483 0.330797
vt 0.959864 0.552508
vt 0.979643 0.330797
vt 0.516849 0.586346
vt 0.471594 0.562103
vt 0.516849 0.562103
vt 0.462544 0.571800
vt 0.444442 0.571800
vt 0.426340 0.659077
vt 0.426340 0.562103
vt 0.444442 0.562103
vt 0.471594 0.659077
vt 0.516849 0.659077
vt 0.997483 0.774220
vt 0.979643 0.774220
vt 0.313640 0.002517
vt 0.002517 0.002517
vt 0.325762 0.014639
vt 0.936990 0.787934
vt 0.880369 0.559366
vt 0.898209 0.559366
vt 0.919151 0.787934
vt 0.936990 0.330797
vt 0.919151 0.330797
vt 0.654042 0.002517
vt 0.330797 0.012215
vt 0.330797 0.002517
vt 0.644344 0.012215
vt 0.644344 0.325762
vt 0.654042 0.325762
vt 0.788374 0.330797
vt 0.562103 0.557068
vt 0.562103 0.330797
vt 0.788374 0.557068
vn 1.0000 0.0000 0.0000
vn -0.6823 -0.7311 -0.0000
vn -0.6148 -0.4940 -0.6148
vn 0.0000 -0.0000 1.0000
vn 0.0000 -0.7311 -0.6823
vn 0.0000 -1.0000 -0.0000
vn 0.0000 0.0000 -1.0000
vn 0.0000 1.0000 0.0000
vn -1.0000 0.0000 0.0000
vn -0.7071 0.0000 -0.7071
s 1
f 1/1/1 2/2/1 3/3/1
f 2/2/1 1/1/1 4/4/1
f 5/5/1 1/1/1 3/3/1
f 1/1/1 5/5/1 6/6/1
f 7/7/2 8/8/2 9/9/2
f 8/8/2 7/7/2 10/10/2
f 10/11/3 11/12/3 8/13/3
f 12/14/4 3/15/4 13/16/4
f 3/15/4 12/14/4 5/17/4
f 2/18/4 13/16/4 3/15/4
f 13/16/4 2/18/4 14/19/4
f 8/20/5 15/21/5 16/22/5
f 15/21/5 8/20/5 11/23/5
f 17/24/6 2/25/6 4/26/6
f 18/27/6 2/25/6 17/24/6
f 19/28/6 2/25/6 18/27/6
f 2/25/6 19/28/6 14/29/6
f 20/30/7 15/31/7 11/12/7
f 15/31/7 20/30/7 21/32/7
f 22/33/8 5/34/8 12/35/8
f 5/34/8 22/33/8 23/36/8
f 5/34/8 23/36/8 6/37/8
f 6/37/8 23/36/8 24/38/8
f 7/39/9 25/40/9 10/11/9
f 25/40/9 7/39/9 26/41/9
f 10/11/10 20/30/10 11/12/10
f 20/30/10 10/11/10 25/40/10
f 1/42/4 17/43/4 4/44/4
f 17/43/4 1/42/4 27/45/4
f 27/45/4 1/42/4 9/46/4
f 9/46/4 1/42/4 7/47/4
f 7/47/4 1/42/4 6/48/4
f 7/47/4 6/48/4 26/49/4
f 26/50/4 6/37/4 24/38/1
f 28/51/4 17/43/4 27/45/4
f 2/52/8 29/53/8 14/54/8
f 29/53/8 2/52/8 4/55/8
f 8/56/7 30/57/7 31/58/7
f 30/57/7 8/56/7 16/59/7
f 22/60/1 15/61/1 21/62/1
f 15/61/1 22/60/1 16/63/1
f 16/63/1 22/60/1 30/64/1
f 14/65/1 30/64/1 22/60/1
f 19/66/1 30/64/1 14/65/1
f 30/64/1 19/66/1 32/67/1
f 14/65/1 22/60/1 13/68/1
f 12/69/1 13/68/1 22/60/1
f 27/70/9 8/56/9 31/58/9
f 8/56/9 27/70/9 9/71/9
f 20/72/8 22/33/8 21/73/8
f 22/33/8 20/72/8 23/36/8
f 23/36/8 20/72/8 24/38/8
f 24/38/8 20/72/8 26/50/8
f 26/50/8 20/72/8 25/74/8
f 17/75/9 33/76/9 18/77/9
f 33/76/9 17/75/9 28/78/9
f 33/76/7 19/79/7 18/77/7
f 19/79/7 33/76/7 32/80/7
f 33/81/8 30/82/8 32/83/8
f 30/82/8 33/81/8 31/84/8
f 31/84/8 33/81/8 27/85/8
f 27/85/8 33/81/8 28/86/8
f 3/87/8 34/88/8 13/89/8
f 34/88/8 3/87/8 1/90/8
