# Blender v2.92.0 OBJ File: 'kenney_OGConvert.blend'
# www.blender.org
o fountainCornerInner
v -0.476199 0.056000 -0.481737
v -0.474019 0.112000 -0.485000
v -0.474019 0.056000 -0.485000
v -0.476199 0.112000 -0.481737
v -0.481737 0.112000 -0.476199
v -0.478787 0.056000 -0.478787
v -0.481737 0.056000 -0.476199
v -0.478787 0.112000 -0.478787
v -0.496084 0.112000 -0.470257
v -0.492235 0.056000 -0.471022
v -0.496084 0.056000 -0.470257
v -0.492235 0.112000 -0.471022
v -0.472284 0.112000 -0.488519
v -0.472284 0.056000 -0.488519
v -0.485000 0.112000 -0.474019
v -0.485000 0.056000 -0.474019
v -0.500000 0.112000 -0.470000
v -0.500000 0.056000 -0.470000
v -0.471022 0.056000 -0.492235
v -0.470257 0.112000 -0.496084
v -0.470257 0.056000 -0.496084
v -0.471022 0.112000 -0.492235
v -0.470000 0.112000 -0.500000
v -0.470000 0.056000 -0.500000
v -0.488520 0.112000 -0.472284
v -0.488520 0.056000 -0.472284
v -0.425000 0.280000 -0.500000
v -0.202567 0.280000 -0.460842
v -0.200000 0.280000 -0.500000
v -0.210222 0.280000 -0.422354
v -0.222836 0.280000 -0.385195
v -0.240192 0.280000 -0.350000
v -0.261994 0.280000 -0.317372
v -0.287868 0.280000 -0.287868
v -0.317372 0.280000 -0.261994
v -0.350000 0.280000 -0.240192
v -0.385195 0.280000 -0.222836
v -0.422354 0.280000 -0.210222
v -0.425642 0.280000 -0.490210
v -0.460842 0.280000 -0.202566
v -0.427556 0.280000 -0.480588
v -0.430709 0.280000 -0.471299
v -0.435048 0.280000 -0.462500
v -0.440499 0.280000 -0.454343
v -0.446967 0.280000 -0.446967
v -0.454343 0.280000 -0.440498
v -0.462500 0.280000 -0.435048
v -0.500000 0.280000 -0.200000
v -0.471299 0.280000 -0.430709
v -0.480589 0.280000 -0.427555
v -0.490211 0.280000 -0.425642
v -0.500000 0.280000 -0.425000
v -0.202567 0.000000 -0.460842
v -0.500000 0.000000 -0.500000
v -0.200000 0.000000 -0.500000
v -0.210222 0.000000 -0.422354
v -0.222836 0.000000 -0.385195
v -0.240192 0.000000 -0.350000
v -0.261994 0.000000 -0.317372
v -0.287868 0.000000 -0.287868
v -0.317372 0.000000 -0.261994
v -0.350000 0.000000 -0.240192
v -0.385195 0.000000 -0.222836
v -0.422354 0.000000 -0.210222
v -0.460842 0.000000 -0.202566
v -0.500000 0.000000 -0.200000
v -0.202567 0.140000 -0.460842
v -0.200000 0.140000 -0.500000
v -0.422354 0.140000 -0.210222
v -0.460842 0.140000 -0.202566
v -0.385195 0.140000 -0.222836
v -0.210222 0.140000 -0.422354
v -0.222836 0.140000 -0.385195
v -0.261994 0.140000 -0.317372
v -0.240192 0.140000 -0.350000
v -0.287868 0.140000 -0.287868
v -0.317372 0.140000 -0.261994
v -0.500000 0.140000 -0.200000
v -0.350000 0.140000 -0.240192
v -0.500000 0.056000 -0.500000
v -0.500000 0.280000 -0.500000
v -0.500000 0.140000 -0.500000
v 0.500000 -0.000000 0.500000
v 0.500000 0.000000 -0.500000
v -0.500000 -0.000000 0.500000
v 0.500000 0.140000 0.500000
v 0.500000 0.140000 -0.500000
v -0.500000 0.140000 0.500000
vt 0.593777 0.679424
vt 0.595573 0.651627
vt 0.595573 0.679424
vt 0.593777 0.651627
vt 0.616288 0.651627
vt 0.617916 0.679424
vt 0.616288 0.679424
vt 0.617916 0.651627
vt 0.608826 0.651627
vt 0.610771 0.679424
vt 0.608826 0.679424
vt 0.610771 0.651627
vt 0.592095 0.679424
vt 0.592095 0.651627
vt 0.597452 0.651627
vt 0.597452 0.679424
vt 0.614534 0.651627
vt 0.614534 0.679424
vt 0.606884 0.651627
vt 0.606884 0.679424
vt 0.599382 0.679424
vt 0.601330 0.651627
vt 0.601330 0.679424
vt 0.599382 0.651627
vt 0.603262 0.651627
vt 0.603262 0.679424
vt 0.612684 0.651627
vt 0.612684 0.679424
vt 0.256103 0.501811
vt 0.145692 0.521248
vt 0.144418 0.501811
vt 0.149492 0.540352
vt 0.155753 0.558798
vt 0.164369 0.576268
vt 0.175190 0.592464
vt 0.188034 0.607109
vt 0.202679 0.619952
vt 0.218875 0.630774
vt 0.236345 0.639389
vt 0.254790 0.645650
vt 0.256422 0.506670
vt 0.273894 0.649450
vt 0.257372 0.511446
vt 0.258937 0.516057
vt 0.261091 0.520425
vt 0.263796 0.524474
vt 0.267007 0.528135
vt 0.270668 0.531346
vt 0.274717 0.534052
vt 0.293332 0.650724
vt 0.279085 0.536205
vt 0.283696 0.537771
vt 0.288472 0.538721
vt 0.293332 0.539039
vt 0.298227 0.631287
vt 0.445867 0.650724
vt 0.296953 0.650724
vt 0.302027 0.612183
vt 0.308288 0.593738
vt 0.316904 0.576267
vt 0.327725 0.560071
vt 0.340569 0.545426
vt 0.355214 0.532583
vt 0.371410 0.521761
vt 0.388880 0.513146
vt 0.407325 0.506885
vt 0.426429 0.503085
vt 0.445867 0.501811
vt 0.071304 0.518680
vt 0.001811 0.501811
vt 0.071304 0.501811
vt 0.001811 0.518680
vt 0.140797 0.518680
vt 0.140797 0.501811
vt 0.071304 0.682728
vt 0.001811 0.696502
vt 0.001811 0.682728
vt 0.071304 0.696502
vt 0.140797 0.682728
vt 0.140797 0.696502
vt 0.071304 0.667275
vt 0.001811 0.667275
vt 0.140797 0.667275
vt 0.071304 0.536676
vt 0.001811 0.536676
vt 0.140797 0.536676
vt 0.071304 0.555491
vt 0.001811 0.555491
vt 0.140797 0.555491
vt 0.071304 0.594282
vt 0.001811 0.574803
vt 0.071304 0.574803
vt 0.001811 0.594282
vt 0.140797 0.594282
vt 0.140797 0.574803
vt 0.071304 0.613594
vt 0.001811 0.632409
vt 0.001811 0.613594
vt 0.071304 0.632409
vt 0.140797 0.613594
vt 0.140797 0.632409
vt 0.001811 0.708360
vt 0.071304 0.708360
vt 0.140797 0.708360
vt 0.001811 0.650405
vt 0.071304 0.650405
vt 0.140797 0.650405
vt 0.731081 0.648006
vt 0.703284 0.501811
vt 0.731081 0.501811
vt 0.703284 0.516430
vt 0.675487 0.516430
vt 0.592095 0.538359
vt 0.592095 0.648006
vt 0.449488 0.652910
vt 0.449488 0.652910
vt 0.449488 0.652910
vt 0.592095 0.501811
vt 0.661588 0.501811
vt 0.349276 0.001811
vt 0.001811 0.498189
vt 0.001811 0.001811
vt 0.350550 0.021248
vt 0.354350 0.040352
vt 0.498189 0.498189
vt 0.360611 0.058797
vt 0.369226 0.076267
vt 0.380048 0.092464
vt 0.392892 0.107108
vt 0.407537 0.119952
vt 0.423733 0.130774
vt 0.441203 0.139389
vt 0.459648 0.145650
vt 0.478752 0.149450
vt 0.498189 0.150724
vt 0.560677 0.649289
vt 0.588474 0.501811
vt 0.588474 0.649289
vt 0.560677 0.634541
vt 0.518981 0.501811
vt 0.532879 0.634541
vt 0.518981 0.649289
vt 0.449488 0.649289
vt 0.449488 0.501811
vt 0.293332 0.501811
vt 0.636429 0.666518
vt 0.621665 0.664575
vt 0.622045 0.662664
vt 0.630730 0.652761
vt 0.632575 0.652134
vt 0.628983 0.653622
vt 0.627363 0.654704
vt 0.622671 0.660820
vt 0.623532 0.659073
vt 0.625899 0.655989
vt 0.621537 0.666518
vt 0.624615 0.657453
vt 0.634485 0.651754
vt 0.636429 0.651627
vt 0.654941 0.666518
vt 0.652998 0.651754
vt 0.654941 0.651627
vt 0.651087 0.652134
vt 0.649243 0.652761
vt 0.647496 0.653622
vt 0.645876 0.654704
vt 0.644412 0.655989
vt 0.643127 0.657453
vt 0.642045 0.659073
vt 0.641184 0.660820
vt 0.640557 0.662664
vt 0.640177 0.664575
vt 0.640050 0.666518
vt 0.849276 0.001811
vt 0.501811 0.498189
vt 0.501811 0.001811
vt 0.850550 0.021248
vt 0.854350 0.040352
vt 0.998189 0.498189
vt 0.860611 0.058797
vt 0.869226 0.076267
vt 0.880048 0.092464
vt 0.892892 0.107108
vt 0.907537 0.119952
vt 0.923733 0.130774
vt 0.941203 0.139389
vt 0.959648 0.145650
vt 0.978752 0.149450
vt 0.998189 0.150724
vn -0.7934 0.0000 -0.6088
vn -0.8660 0.0000 -0.5000
vn -0.6088 0.0000 -0.7934
vn -0.7071 0.0000 -0.7071
vn -0.6088 0.0000 -0.7933
vn -0.1305 0.0000 -0.9914
vn -0.2588 0.0000 -0.9659
vn -0.9239 0.0000 -0.3827
vn -0.5000 0.0000 -0.8660
vn -0.0654 0.0000 -0.9979
vn -0.9659 0.0000 -0.2588
vn -0.9914 0.0000 -0.1305
vn -0.9979 0.0000 -0.0654
vn -0.3827 0.0000 -0.9239
vn 0.0000 1.0000 0.0000
vn 0.0000 -1.0000 -0.0000
vn 0.9914 0.0000 0.1305
vn 0.9979 0.0000 0.0654
vn 0.2588 -0.0000 0.9659
vn 0.1305 -0.0000 0.9914
vn 0.3827 0.0000 0.9239
vn 0.9659 0.0000 0.2588
vn 0.9239 0.0000 0.3827
vn 0.7934 -0.0000 0.6088
vn 0.8660 -0.0000 0.5000
vn 0.7071 0.0000 0.7071
vn 0.6088 0.0000 0.7934
vn 0.0654 -0.0000 0.9979
vn 0.5000 -0.0000 0.8660
vn -1.0000 0.0000 0.0000
vn -0.0000 0.0000 -1.0000
vn -0.4557 -0.7647 -0.4557
vn -0.6765 -0.7311 -0.0891
vn -0.6591 -0.7311 -0.1766
vn -0.2611 -0.7311 -0.6304
vn -0.1766 -0.7311 -0.6591
vn -0.3412 -0.7311 -0.5909
vn -0.4154 -0.7311 -0.5413
vn -0.6304 -0.7311 -0.2611
vn -0.5909 -0.7311 -0.3412
vn -0.4825 -0.7311 -0.4825
vn -0.6816 -0.7303 -0.0447
vn -0.5413 -0.7311 -0.4154
vn -0.0891 -0.7311 -0.6765
vn -0.0447 -0.7303 -0.6816
s 1
f 1/1/1 2/2/2 3/3/2
f 2/2/2 1/1/1 4/4/1
f 5/5/3 6/6/4 7/7/5
f 6/6/4 5/5/3 8/8/4
f 9/9/6 10/10/7 11/11/6
f 10/10/7 9/9/6 12/12/7
f 6/13/4 4/4/1 1/1/1
f 4/4/1 6/13/4 8/14/4
f 3/3/2 13/15/8 14/16/8
f 13/15/8 3/3/2 2/2/2
f 15/17/9 7/7/5 16/18/9
f 7/7/5 15/17/9 5/5/3
f 17/19/10 11/11/6 18/20/10
f 11/11/6 17/19/10 9/9/6
f 19/21/11 20/22/12 21/23/12
f 20/22/12 19/21/11 22/24/11
f 21/23/12 23/25/13 24/26/13
f 23/25/13 21/23/12 20/22/12
f 14/16/8 22/24/11 19/21/11
f 22/24/11 14/16/8 13/15/8
f 25/27/14 16/18/9 26/28/14
f 16/18/9 25/27/14 15/17/9
f 12/12/7 26/28/14 10/10/7
f 26/28/14 12/12/7 25/27/14
f 27/29/15 28/30/15 29/31/15
f 28/30/15 27/29/15 30/32/15
f 30/32/15 27/29/15 31/33/15
f 31/33/15 27/29/15 32/34/15
f 32/34/15 27/29/15 33/35/15
f 33/35/15 27/29/15 34/36/15
f 34/36/15 27/29/15 35/37/15
f 35/37/15 27/29/15 36/38/15
f 36/38/15 27/29/15 37/39/15
f 37/39/15 27/29/15 38/40/15
f 38/40/15 27/29/15 39/41/15
f 38/40/15 39/41/15 40/42/15
f 40/42/15 39/41/15 41/43/15
f 40/42/15 41/43/15 42/44/15
f 40/42/15 42/44/15 43/45/15
f 40/42/15 43/45/15 44/46/15
f 40/42/15 44/46/15 45/47/15
f 40/42/15 45/47/15 46/48/15
f 40/42/15 46/48/15 47/49/15
f 40/42/15 47/49/15 48/50/15
f 48/50/15 47/49/15 49/51/15
f 48/50/15 49/51/15 50/52/15
f 48/50/15 50/52/15 51/53/15
f 48/50/15 51/53/15 52/54/15
f 53/55/16 54/56/16 55/57/16
f 54/56/16 53/55/16 56/58/16
f 54/56/16 56/58/16 57/59/16
f 54/56/16 57/59/16 58/60/16
f 54/56/16 58/60/16 59/61/16
f 54/56/16 59/61/16 60/62/16
f 54/56/16 60/62/16 61/63/16
f 54/56/16 61/63/16 62/64/16
f 54/56/16 62/64/16 63/65/16
f 54/56/16 63/65/16 64/66/16
f 54/56/16 64/66/16 65/67/16
f 54/56/16 65/67/16 66/68/16
f 67/69/17 55/70/18 68/71/18
f 55/70/18 67/69/17 53/72/17
f 68/71/18 28/73/17 67/69/17
f 28/73/17 68/71/18 29/74/18
f 69/75/19 65/76/20 64/77/19
f 65/76/20 69/75/19 70/78/20
f 38/79/19 70/78/20 69/75/19
f 70/78/20 38/79/19 40/80/20
f 71/81/21 64/77/19 63/82/21
f 64/77/19 71/81/21 69/75/19
f 37/83/21 69/75/19 71/81/21
f 69/75/19 37/83/21 38/79/19
f 72/84/22 53/72/17 67/69/17
f 53/72/17 72/84/22 56/85/22
f 67/69/17 30/86/22 72/84/22
f 30/86/22 67/69/17 28/73/17
f 73/87/23 56/85/22 72/84/22
f 56/85/22 73/87/23 57/88/23
f 72/84/22 31/89/23 73/87/23
f 31/89/23 72/84/22 30/86/22
f 74/90/24 58/91/25 75/92/25
f 58/91/25 74/90/24 59/93/24
f 75/92/25 33/94/24 74/90/24
f 33/94/24 75/92/25 32/95/25
f 76/96/26 61/97/27 60/98/26
f 61/97/27 76/96/26 77/99/27
f 34/100/26 77/99/27 76/96/26
f 77/99/27 34/100/26 35/101/27
f 76/96/26 59/93/24 74/90/24
f 59/93/24 76/96/26 60/98/26
f 74/90/24 34/100/26 76/96/26
f 34/100/26 74/90/24 33/94/24
f 75/92/25 57/88/23 73/87/23
f 57/88/23 75/92/25 58/91/25
f 73/87/23 32/95/25 75/92/25
f 32/95/25 73/87/23 31/89/23
f 70/78/20 66/102/28 65/76/20
f 66/102/28 70/78/20 78/103/28
f 40/80/20 78/103/28 70/78/20
f 78/103/28 40/80/20 48/104/28
f 77/99/27 62/105/29 61/97/27
f 62/105/29 77/99/27 79/106/29
f 35/101/27 79/106/29 77/99/27
f 79/106/29 35/101/27 36/107/29
f 79/106/29 63/82/21 62/105/29
f 63/82/21 79/106/29 71/81/21
f 36/107/29 71/81/21 79/106/29
f 71/81/21 36/107/29 37/83/21
f 66/108/30 80/109/30 54/110/30
f 80/109/30 66/108/30 18/111/30
f 18/111/30 66/108/30 17/112/30
f 17/112/30 66/108/30 52/113/30
f 52/113/30 66/108/30 48/114/30
f 48/115/30 66/116/30 78/117/16
f 81/118/30 17/112/30 52/113/30
f 17/112/30 81/118/30 82/119/30
f 55/120/15 83/121/15 84/122/15
f 83/121/15 55/120/15 53/123/15
f 83/121/15 53/123/15 56/124/15
f 83/121/15 56/124/15 85/125/15
f 85/125/15 56/124/15 57/126/15
f 85/125/15 57/126/15 58/127/15
f 85/125/15 58/127/15 59/128/15
f 85/125/15 59/128/15 60/129/15
f 85/125/15 60/129/15 61/130/15
f 85/125/15 61/130/15 62/131/15
f 85/125/15 62/131/15 63/132/15
f 85/125/15 63/132/15 64/133/15
f 85/125/15 64/133/15 65/134/15
f 85/125/15 65/134/15 66/135/15
f 80/136/31 55/137/31 54/138/31
f 55/137/31 80/136/31 24/139/31
f 55/137/31 24/139/31 68/140/31
f 68/140/31 24/139/31 23/141/31
f 68/140/31 23/141/31 82/142/31
f 68/140/31 82/142/31 81/143/31
f 68/140/31 81/143/31 29/144/31
f 29/31/31 81/145/31 27/29/30
f 82/146/32 20/147/33 22/148/34
f 82/146/32 25/149/35 12/150/36
f 82/146/32 15/151/37 25/149/35
f 82/146/32 5/152/38 15/151/37
f 82/146/32 22/148/34 13/153/39
f 82/146/32 13/153/39 2/154/40
f 82/146/32 8/155/41 5/152/38
f 82/146/32 23/156/42 20/147/33
f 82/146/32 2/154/40 4/157/43
f 82/146/32 9/158/44 17/159/45
f 82/146/32 12/150/36 9/158/44
f 82/146/32 4/157/43 8/155/41
f 80/160/15 21/161/15 24/162/15
f 21/161/15 80/160/15 19/163/15
f 19/163/15 80/160/15 14/164/15
f 14/164/15 80/160/15 3/165/15
f 3/165/15 80/160/15 1/166/15
f 1/166/15 80/160/15 6/167/15
f 6/167/15 80/160/15 7/168/15
f 7/168/15 80/160/15 16/169/15
f 16/169/15 80/160/15 26/170/15
f 26/170/15 80/160/15 10/171/15
f 10/171/15 80/160/15 11/172/15
f 11/172/15 80/160/15 18/173/15
f 81/145/15 39/41/15 27/29/15
f 39/41/15 81/145/15 41/43/15
f 41/43/15 81/145/15 42/44/15
f 42/44/15 81/145/15 43/45/15
f 43/45/15 81/145/15 44/46/15
f 44/46/15 81/145/15 45/47/15
f 45/47/15 81/145/15 46/48/15
f 46/48/15 81/145/15 47/49/15
f 47/49/15 81/145/15 49/51/15
f 49/51/15 81/145/15 50/52/15
f 50/52/15 81/145/15 51/53/15
f 51/53/15 81/145/15 52/54/15
f 68/174/15 86/175/15 87/176/15
f 86/175/15 68/174/15 67/177/15
f 86/175/15 67/177/15 72/178/15
f 86/175/15 72/178/15 88/179/15
f 88/179/15 72/178/15 73/180/15
f 88/179/15 73/180/15 75/181/15
f 88/179/15 75/181/15 74/182/15
f 88/179/15 74/182/15 76/183/15
f 88/179/15 76/183/15 77/184/15
f 88/179/15 77/184/15 79/185/15
f 88/179/15 79/185/15 71/186/15
f 88/179/15 71/186/15 69/187/15
f 88/179/15 69/187/15 70/188/15
f 88/179/15 70/188/15 78/189/15
