# Blender v2.92.0 OBJ File: 'OGConvert.blend'
# www.blender.org
o roofHighGableDetail
v -4.000000 -0.000000 4.000000
v 3.200000 -0.000000 3.200000
v 3.200000 -0.000000 4.000000
v 3.000000 -0.000000 3.200000
v 3.000000 0.000000 -3.200000
v -3.800000 -0.000000 3.200000
v -4.000000 -0.000000 3.200000
v -3.800000 0.000000 -3.200000
v -4.000000 0.000000 -4.000000
v 3.200000 0.000000 -4.000000
v 3.200000 0.000000 -3.200000
v -4.000000 0.000000 -3.200000
v 3.000000 8.000000 0.000000
v 3.000000 1.600000 -3.200000
v 3.000000 1.600000 3.200000
v -3.800000 1.600000 -3.200000
v -3.800000 8.000000 0.000000
v -3.800000 1.600000 3.200000
v 3.200000 1.600000 -3.200000
v -4.000000 1.600000 3.200000
v 3.200000 1.600000 3.200000
v -4.000000 1.600000 -3.200000
v -4.800000 8.894424 -0.447213
v -4.400000 -0.357771 -5.073313
v -4.800000 -0.357771 -5.073313
v -4.400000 8.894424 -0.447213
v -4.400000 -0.357771 -4.178885
v -4.800000 -0.715542 -4.357771
v -4.400000 -0.715542 -4.357771
v -4.800000 8.000000 0.000000
v -4.400000 8.000000 0.000000
v 3.600000 8.894424 -0.447213
v 4.000000 -0.357771 -5.073313
v 3.600000 -0.357771 -5.073313
v 4.000000 8.894424 -0.447213
v 4.000000 9.788856 0.447214
v 4.000000 9.788856 -0.447213
v 4.000000 8.000000 0.000000
v 4.000000 8.894424 0.447214
v 4.000000 -0.715542 4.357771
v 4.000000 -0.357771 5.073313
v 4.000000 -0.715542 -4.357771
v -4.400000 -0.715542 4.357771
v -4.800000 -0.715542 4.357771
v -4.400000 -0.357771 4.178885
v 3.600000 -0.715542 -4.357771
v 3.600000 -0.178885 -4.536656
v 3.600000 -0.357771 -4.178885
v 3.600000 0.955279 -3.969574
v 3.600000 8.894424 0.000000
v 3.600000 9.788856 -0.447213
v 3.600000 9.788856 0.447214
v 3.600000 8.894424 0.447214
v 3.600000 0.955278 3.969574
v 3.600000 -0.357771 5.073313
v 3.600000 -0.178886 4.536656
v 3.600000 -0.715542 4.357771
v 3.600000 -0.357771 4.178885
v 3.600000 8.000000 0.000000
v -4.400000 8.894424 0.447214
v -4.800000 -0.357771 5.073313
v -4.400000 -0.357771 5.073313
v -4.800000 8.894424 0.447214
v -4.800000 9.788856 -0.447213
v -4.400000 9.788856 0.447214
v -4.400000 9.788856 -0.447213
v -4.800000 9.788856 0.447214
v -4.400000 8.894424 0.000000
v -4.400000 0.955278 3.969574
v -4.400000 -0.178886 4.536656
v -4.400000 0.955279 -3.969574
v -4.400000 -0.178885 -4.536656
vt 0.213422 0.827303
vt 0.415549 0.805179
vt 0.415549 0.827303
vt 0.409935 0.805179
vt 0.409935 0.628189
vt 0.219036 0.805179
vt 0.213422 0.805179
vt 0.219037 0.628189
vt 0.213422 0.606065
vt 0.415549 0.606065
vt 0.415549 0.628189
vt 0.213422 0.628189
vt 0.892345 0.563790
vt 0.802510 0.788376
vt 0.802510 0.743459
vt 0.982179 0.788376
vt 0.982179 0.743459
vt 0.817075 0.504699
vt 0.996744 0.459782
vt 0.996744 0.504699
vt 0.906910 0.280113
vt 0.817075 0.459782
vt 0.641776 0.586248
vt 0.598060 0.591863
vt 0.598060 0.586248
vt 0.641776 0.591863
vt 0.608436 0.201776
vt 0.614051 0.244548
vt 0.608436 0.244548
vt 0.614051 0.201776
vt 0.804949 0.201776
vt 0.810563 0.244548
vt 0.804949 0.244548
vt 0.810563 0.201776
vt 0.548296 0.650982
vt 0.525838 0.650982
vt 0.525838 0.606065
vt 0.554808 0.606065
vt 0.577267 0.650982
vt 0.554808 0.650982
vt 0.641776 0.782761
vt 0.598060 0.788376
vt 0.598060 0.782761
vt 0.641776 0.788376
vt 0.577267 0.702411
vt 0.554808 0.702411
vt 0.577267 0.657494
vt 0.475285 0.629975
vt 0.486514 0.837644
vt 0.475285 0.837644
vt 0.486514 0.629975
vt 0.594599 0.799605
vt 0.585977 0.810834
vt 0.585977 0.799605
vt 0.795998 0.810834
vt 0.795998 0.799605
vt 0.468773 0.813734
vt 0.457544 0.606065
vt 0.468773 0.606065
vt 0.457543 0.813734
vt 0.525838 0.702411
vt 0.548296 0.657494
vt 0.548296 0.702411
vt 0.158235 0.003256
vt 0.133126 0.028365
vt 0.133126 0.003256
vt 0.145680 0.053475
vt 0.158235 0.028365
vt 0.268017 0.298149
vt 0.288105 0.288105
vt 0.023344 0.298149
vt 0.003256 0.288105
vt 0.585977 0.003256
vt 0.597207 0.273602
vt 0.585977 0.273602
vt 0.597207 0.262504
vt 0.597207 0.003256
vt 0.314704 0.003256
vt 0.309682 0.018322
vt 0.294617 0.013300
vt 0.319726 0.013300
vt 0.424486 0.273039
vt 0.325602 0.050161
vt 0.437041 0.273039
vt 0.424486 0.298149
vt 0.449596 0.298149
vt 0.449596 0.273039
vt 0.548480 0.050161
vt 0.579465 0.013300
vt 0.564400 0.018322
vt 0.559378 0.003256
vt 0.554356 0.013300
vt 0.795998 0.563790
vt 0.585977 0.575019
vt 0.585977 0.563790
vt 0.594599 0.575019
vt 0.795998 0.575019
vt 0.422061 0.630503
vt 0.433290 0.913132
vt 0.422061 0.913132
vt 0.433290 0.630503
vt 0.566037 0.708923
vt 0.554808 0.734033
vt 0.554808 0.708923
vt 0.566037 0.734033
vt 0.537067 0.708923
vt 0.525838 0.734033
vt 0.525838 0.708923
vt 0.537067 0.734033
vt 0.468773 0.837644
vt 0.457543 0.837644
vt 0.543579 0.762060
vt 0.554808 0.740544
vt 0.554808 0.762060
vt 0.543579 0.740544
vt 0.821793 0.262504
vt 0.833022 0.273601
vt 0.821793 0.273601
vt 0.833022 0.003256
vt 0.821793 0.003256
vt 0.475285 0.606065
vt 0.486514 0.606065
vt 0.561320 0.758605
vt 0.572549 0.740544
vt 0.572549 0.758605
vt 0.561320 0.740544
vt 0.561320 0.783177
vt 0.572549 0.765117
vt 0.572549 0.783177
vt 0.561320 0.765117
vt 0.439802 0.630503
vt 0.451032 0.913132
vt 0.439802 0.913132
vt 0.451032 0.630503
vt 0.422061 0.606065
vt 0.433290 0.606065
vt 0.439802 0.606065
vt 0.451032 0.606065
vt 0.158235 0.304660
vt 0.133126 0.329770
vt 0.133126 0.304660
vt 0.145680 0.329770
vt 0.158235 0.329770
vt 0.257119 0.552648
vt 0.288105 0.589509
vt 0.273039 0.584487
vt 0.268017 0.599553
vt 0.262995 0.589509
vt 0.034241 0.552648
vt 0.018322 0.584487
vt 0.003256 0.589509
vt 0.023344 0.599553
vt 0.028365 0.589509
vt 0.525838 0.762060
vt 0.537067 0.740544
vt 0.537067 0.762060
vt 0.525838 0.740544
vt 0.559378 0.304660
vt 0.449596 0.574444
vt 0.437041 0.549334
vt 0.579465 0.314704
vt 0.449596 0.599553
vt 0.424486 0.599553
vt 0.424486 0.574444
vt 0.314704 0.304660
vt 0.294617 0.314704
vt 0.181453 0.830651
vt 0.206910 0.606065
vt 0.206910 0.830651
vt 0.181453 0.606065
vt 0.585977 0.522632
vt 0.810563 0.557278
vt 0.585977 0.557278
vt 0.810563 0.522632
vt 0.603220 0.586248
vt 0.795998 0.591863
vt 0.603220 0.788376
vt 0.795998 0.782761
vt 0.608436 0.251406
vt 0.614051 0.003256
vt 0.810563 0.251406
vt 0.804949 0.003256
vt 0.585977 0.280113
vt 0.810563 0.280113
vt 0.493026 0.606065
vt 0.503784 0.830651
vt 0.493026 0.830651
vt 0.503784 0.606065
vt 0.003256 0.830651
vt 0.003256 0.606065
vt 0.510296 0.606065
vt 0.519326 0.830651
vt 0.510296 0.830651
vt 0.519326 0.606065
vn 0.0000 -1.0000 -0.0000
vn 1.0000 0.0000 0.0000
vn -1.0000 0.0000 0.0000
vn 0.0000 0.0000 1.0000
vn 0.0000 0.0000 -1.0000
vn 0.0000 0.4472 -0.8944
vn -0.0000 -0.4472 0.8944
vn -0.0000 -0.4472 -0.8944
vn 0.0000 0.4472 0.8944
vn 0.0000 1.0000 0.0000
vn 0.0000 -0.8944 0.4472
vn 0.0000 -0.8944 -0.4472
s 1
f 1/1/1 2/2/1 3/3/1
f 2/2/1 1/1/1 4/4/1
f 4/4/1 1/1/1 5/5/1
f 5/5/1 1/1/1 6/6/1
f 6/6/1 1/1/1 7/7/1
f 8/8/1 5/5/1 6/6/1
f 9/9/1 5/5/1 8/8/1
f 10/10/1 5/5/1 9/9/1
f 5/5/1 10/10/1 11/11/1
f 9/9/1 8/8/1 12/12/1
f 13/13/2 5/14/2 14/15/2
f 5/14/2 13/13/2 4/16/2
f 4/16/2 13/13/2 15/17/2
f 6/18/3 16/19/3 8/20/3
f 16/19/3 6/18/3 17/21/3
f 17/21/3 6/18/3 18/22/3
f 19/23/4 5/24/4 11/25/4
f 5/24/4 19/23/4 14/26/4
f 20/27/5 6/28/5 7/29/5
f 6/28/5 20/27/5 18/30/5
f 15/31/5 2/32/5 4/33/5
f 2/32/5 15/31/5 21/34/5
f 3/35/2 2/36/2 21/37/2
f 22/38/3 9/39/3 12/40/3
f 16/41/4 12/42/4 8/43/4
f 12/42/4 16/41/4 22/44/4
f 11/45/2 10/46/2 19/47/2
f 23/48/6 24/49/6 25/50/6
f 24/49/6 23/48/6 26/51/6
f 27/52/7 28/53/7 29/54/7
f 28/53/7 27/52/7 30/55/7
f 30/55/7 27/52/7 31/56/7
f 32/57/6 33/58/6 34/59/6
f 33/58/6 32/57/6 35/60/6
f 1/61/3 20/62/3 7/63/3
f 36/64/2 35/65/2 37/66/2
f 35/65/2 36/64/2 38/67/2
f 38/67/2 36/64/2 39/68/2
f 38/67/2 39/68/2 40/69/2
f 40/69/2 39/68/2 41/70/2
f 42/71/2 35/65/2 38/67/2
f 35/65/2 42/71/2 33/72/2
f 30/73/8 43/74/8 44/75/8
f 43/74/8 30/73/8 45/76/8
f 45/76/8 30/73/8 31/77/8
f 46/78/3 47/79/3 34/80/3
f 47/79/3 46/78/3 48/81/3
f 47/79/3 32/82/3 34/80/3
f 32/82/3 47/79/3 49/83/3
f 32/82/3 49/83/3 50/84/3
f 32/82/3 50/84/3 51/85/3
f 51/85/3 50/84/3 52/86/3
f 52/86/3 50/84/3 53/87/3
f 54/88/3 53/87/3 50/84/3
f 53/87/3 54/88/3 55/89/3
f 55/89/3 54/88/3 56/90/3
f 56/90/3 57/91/3 55/89/3
f 57/91/3 56/90/3 58/92/3
f 38/93/7 46/94/7 42/95/7
f 46/94/7 38/93/7 48/96/7
f 48/96/7 38/93/7 59/97/7
f 60/98/9 61/99/9 62/100/9
f 61/99/9 60/98/9 63/101/9
f 64/102/10 65/103/10 66/104/10
f 65/103/10 64/102/10 67/105/10
f 51/106/10 36/107/10 37/108/10
f 36/107/10 51/106/10 52/109/10
f 51/110/5 35/60/5 32/57/5
f 35/60/5 51/110/5 37/111/5
f 61/112/11 43/113/11 62/114/11
f 43/113/11 61/112/11 44/115/11
f 58/116/8 40/117/8 57/118/8
f 40/117/8 58/116/8 38/119/8
f 38/119/8 58/116/8 59/120/8
f 64/121/5 26/51/5 23/48/5
f 26/51/5 64/121/5 66/122/5
f 28/123/12 24/124/12 29/125/12
f 24/124/12 28/123/12 25/126/12
f 46/127/12 33/128/12 42/129/12
f 33/128/12 46/127/12 34/130/12
f 39/131/9 55/132/9 41/133/9
f 55/132/9 39/131/9 53/134/9
f 65/135/4 63/101/4 60/98/4
f 63/101/4 65/135/4 67/136/4
f 36/137/4 53/134/4 39/131/4
f 53/134/4 36/137/4 52/138/4
f 65/139/2 26/140/2 66/141/2
f 26/140/2 65/139/2 68/142/2
f 68/142/2 65/139/2 60/143/2
f 68/142/2 60/143/2 69/144/2
f 69/144/2 60/143/2 62/145/2
f 69/144/2 62/145/2 70/146/2
f 43/147/2 70/146/2 62/145/2
f 70/146/2 43/147/2 45/148/2
f 71/149/2 26/140/2 68/142/2
f 72/150/2 26/140/2 71/149/2
f 26/140/2 72/150/2 24/151/2
f 72/150/2 29/152/2 24/151/2
f 29/152/2 72/150/2 27/153/2
f 55/154/11 40/155/11 41/156/11
f 40/155/11 55/154/11 57/157/11
f 44/158/3 63/159/3 30/160/3
f 63/159/3 44/158/3 61/161/3
f 67/162/3 30/160/3 63/159/3
f 64/163/3 30/160/3 67/162/3
f 23/164/3 30/160/3 64/163/3
f 23/164/3 28/165/3 30/160/3
f 28/165/3 23/164/3 25/166/3
f 71/167/6 47/168/6 72/169/6
f 47/168/6 71/167/6 49/170/6
f 54/171/9 70/172/9 56/173/9
f 70/172/9 54/171/9 69/174/9
f 48/96/7 10/175/7 27/52/7
f 10/175/7 48/96/7 59/97/7
f 10/175/7 59/97/7 19/23/7
f 19/23/7 59/97/7 14/26/7
f 14/26/7 59/97/7 13/176/7
f 9/177/7 27/52/7 10/175/7
f 27/52/7 9/177/7 31/56/7
f 31/56/7 9/177/7 22/44/7
f 31/56/7 22/44/7 17/178/7
f 17/178/7 22/44/7 16/41/7
f 45/76/8 1/179/8 58/116/8
f 1/179/8 45/76/8 31/77/8
f 1/179/8 31/77/8 20/27/8
f 20/27/8 31/77/8 18/30/8
f 18/30/8 31/77/8 17/180/8
f 3/181/8 58/116/8 1/179/8
f 58/116/8 3/181/8 59/120/8
f 59/120/8 3/181/8 21/34/8
f 59/120/8 21/34/8 13/182/8
f 13/182/8 21/34/8 15/31/8
f 50/183/9 69/174/9 54/171/9
f 69/174/9 50/183/9 68/184/9
f 70/185/11 58/186/11 56/187/11
f 58/186/11 70/185/11 45/188/11
f 68/189/6 49/170/6 71/167/6
f 49/170/6 68/189/6 50/190/6
f 27/191/12 47/192/12 48/193/12
f 47/192/12 27/191/12 72/194/12
