# Blender v2.92.0 OBJ File: 'OGConvert.blend'
# www.blender.org
o roofPoint
v -3.987500 0.500000 3.637500
v -4.000000 -0.000000 4.400000
v -3.637500 0.500000 3.987500
v -4.400000 -0.000000 4.000000
v 3.987500 0.500000 3.637500
v 4.000000 -0.000000 4.400000
v 4.400000 -0.000000 4.000000
v 3.637500 0.500000 3.987500
v 3.987500 0.500000 -3.637500
v 4.400000 0.000000 -4.000000
v -3.637500 0.500000 -3.987500
v 4.000000 0.000000 -4.400000
v -4.000000 0.000000 -4.400000
v 3.637500 0.500000 -3.987500
v -3.987500 0.500000 -3.637500
v -4.400000 0.000000 -4.000000
v 1.100000 4.000000 1.100000
v -1.100000 4.000000 1.100000
v -1.100000 4.000000 -1.100000
v -0.550000 3.600000 0.550000
v -0.550000 3.600000 -0.550000
v -4.000000 -0.000000 4.000000
v 4.000000 0.000000 -4.000000
v 4.000000 -0.000000 4.000000
v -4.000000 0.000000 -4.000000
v 1.100000 4.000000 -1.100000
v 0.550000 3.600000 0.550000
v 0.550000 3.600000 -0.550000
vt 0.455775 0.024426
vt 0.498910 0.023718
vt 0.475574 0.044225
vt 0.476281 0.001090
vt 0.455775 0.475574
vt 0.498910 0.476281
vt 0.476281 0.498910
vt 0.475574 0.455775
vt 0.044225 0.475574
vt 0.023718 0.498910
vt 0.024426 0.044225
vt 0.001090 0.476281
vt 0.001090 0.023718
vt 0.024426 0.455775
vt 0.044225 0.024426
vt 0.023718 0.001090
vt 0.312227 0.312227
vt 0.312227 0.187773
vt 0.187773 0.187773
vt 0.281114 0.218886
vt 0.218886 0.218886
vt 0.523718 0.476282
vt 0.976282 0.023719
vt 0.976282 0.476282
vt 0.523719 0.023718
vt 0.523718 0.498910
vt 0.976282 0.498910
vt 0.501090 0.476281
vt 0.523719 0.001090
vt 0.501090 0.023718
vt 0.025899 0.501090
vt 0.025899 0.501090
vt 0.025899 0.501090
vt 0.976282 0.001090
vt 0.001090 0.976281
vt 0.023718 0.501090
vt 0.023718 0.998910
vt 0.001090 0.523718
vt 0.187773 0.312227
vt 0.281114 0.281114
vt 0.218886 0.281114
vn -0.4766 0.7387 0.4766
vn 0.4766 0.7387 0.4766
vn 0.7714 0.6364 0.0000
vn 0.0000 0.6364 -0.7714
vn -0.4766 0.7387 -0.4766
vn 0.0000 0.6364 0.7714
vn -0.7714 0.6364 0.0000
vn 0.4766 0.7387 -0.4766
vn 0.5882 0.8087 0.0000
vn 0.0000 -1.0000 -0.0000
vn -0.1268 0.9195 -0.3721
vn 0.0000 0.8087 -0.5882
vn 0.0000 0.8087 0.5882
vn -0.5882 0.8087 0.0000
vn 0.0000 1.0000 0.0000
s 1
f 1/1/1 2/2/1 3/3/1
f 2/2/1 1/1/1 4/4/1
f 5/5/2 6/6/2 7/7/2
f 6/6/2 5/5/2 8/8/2
f 9/9/3 7/7/3 10/10/3
f 7/7/3 9/9/3 5/5/3
f 11/11/4 12/12/4 13/13/4
f 12/12/4 11/11/4 14/14/4
f 13/13/5 15/15/5 11/11/5
f 15/15/5 13/13/5 16/16/5
f 8/8/6 2/2/6 6/6/6
f 2/2/6 8/8/6 3/3/6
f 4/4/7 15/15/7 16/16/7
f 15/15/7 4/4/7 1/1/7
f 12/12/8 9/9/8 10/10/8
f 9/9/8 12/12/8 14/14/8
f 17/17/6 3/3/6 8/8/6
f 3/3/6 17/17/6 18/18/6
f 1/1/1 3/3/1 18/18/1
f 19/19/9 20/20/9 21/21/9
f 20/20/9 19/19/9 18/18/9
f 22/22/10 23/23/11 24/24/10
f 23/23/11 22/22/10 25/25/10
f 24/24/10 2/26/10 22/22/10
f 2/26/10 24/24/10 6/27/10
f 22/22/10 2/26/10 4/28/10
f 22/22/10 4/28/10 25/25/10
f 25/25/10 4/28/10 13/29/10
f 13/29/10 4/28/10 16/30/10
f 12/31/10 6/32/10 24/33/10
f 12/34/10 24/24/10 23/23/11
f 12/34/10 23/23/11 25/25/10
f 12/34/10 25/25/10 13/29/10
f 10/35/10 6/36/10 12/37/10
f 6/36/10 10/35/10 7/38/10
f 11/11/4 26/39/4 14/14/4
f 26/39/4 11/11/4 19/19/4
f 26/39/8 9/9/8 14/14/8
f 1/1/7 19/19/7 15/15/7
f 19/19/7 1/1/7 18/18/7
f 27/40/12 18/18/12 17/17/12
f 18/18/12 27/40/12 20/20/12
f 19/19/13 28/41/13 26/39/13
f 28/41/13 19/19/13 21/21/13
f 28/41/14 17/17/14 26/39/14
f 17/17/14 28/41/14 27/40/14
f 21/21/15 27/40/15 28/41/15
f 27/40/15 21/21/15 20/20/15
f 17/17/2 8/8/2 5/5/2
f 15/15/5 19/19/5 11/11/5
f 26/39/3 5/5/3 9/9/3
f 5/5/3 26/39/3 17/17/3
