# Blender v2.92.0 OBJ File: 'kenney_OGConvert.blend'
# www.blender.org
o roofHighFlat
v 0.500000 0.140711 -0.500000
v -0.500000 0.040711 -0.400000
v 0.500000 0.040711 -0.400000
v -0.500000 0.140711 -0.500000
v 0.500000 0.140711 0.500000
v -0.500000 -0.000000 0.500000
v 0.500000 -0.000000 0.500000
v -0.500000 0.140711 0.500000
v 0.500000 0.000000 -0.500000
v -0.500000 0.000000 -0.500000
v -0.500000 0.040711 0.400000
v 0.500000 0.040711 0.400000
vt 0.272963 0.501998
vt 0.223363 0.998002
vt 0.223363 0.501998
vt 0.272963 0.998002
vt 0.145579 0.501998
vt 0.075786 0.998002
vt 0.075786 0.501998
vt 0.145579 0.998002
vt 0.219368 0.501998
vt 0.149574 0.998002
vt 0.149574 0.501998
vt 0.219368 0.998002
vt 0.972590 0.001998
vt 0.952397 0.051598
vt 0.902797 0.001998
vt 0.972590 0.498002
vt 0.952397 0.448402
vt 0.902797 0.498002
vt 0.022190 0.551598
vt 0.001998 0.501998
vt 0.071791 0.501998
vt 0.001998 0.998002
vt 0.022190 0.948402
vt 0.071791 0.998002
vt 0.898801 0.498002
vt 0.501998 0.001998
vt 0.898801 0.001998
vt 0.501998 0.498002
vt 0.276958 0.501998
vt 0.326559 0.998002
vt 0.276958 0.998002
vt 0.326559 0.501998
vt 0.498002 0.498002
vt 0.001998 0.001998
vt 0.498002 0.001998
vt 0.001998 0.498002
vn 0.0000 0.7071 0.7071
vn 0.0000 -0.0000 1.0000
vn -0.0000 0.0000 -1.0000
vn -1.0000 0.0000 0.0000
vn 1.0000 0.0000 -0.0000
vn 0.0000 1.0000 0.0000
vn -0.0000 0.7071 -0.7071
vn -0.0000 -1.0000 -0.0000
s 1
f 1/1/1 2/2/1 3/3/1
f 2/2/1 1/1/1 4/4/1
f 5/5/2 6/6/2 7/7/2
f 6/6/2 5/5/2 8/8/2
f 4/9/3 9/10/3 10/11/3
f 9/10/3 4/9/3 1/12/3
f 10/13/4 2/14/4 4/15/4
f 2/14/4 10/13/4 6/16/4
f 2/14/4 6/16/4 11/17/4
f 11/17/4 6/16/4 8/18/4
f 3/19/5 9/20/5 1/21/5
f 9/20/5 3/19/5 7/22/5
f 7/22/5 3/19/5 12/23/5
f 7/22/5 12/23/5 5/24/5
f 2/25/6 12/26/6 3/27/6
f 12/26/6 2/25/6 11/28/6
f 11/29/7 5/30/7 12/31/7
f 5/30/7 11/29/7 8/32/7
f 7/33/8 10/34/8 9/35/8
f 10/34/8 7/33/8 6/36/8
