# Blender v2.92.0 OBJ File: 'kenney_OGConvert.blend'
# www.blender.org
o roofHighRight
v 0.400000 0.970711 0.400000
v 0.400000 1.040711 -0.500000
v 0.400000 0.970711 -0.500000
v 0.400000 0.990711 0.400000
v 0.400000 1.040711 0.400000
v 0.400000 0.900000 -0.475000
v -0.400000 0.100000 -0.500000
v 0.400000 0.900000 -0.500000
v -0.400000 0.100000 -0.475000
v -0.570711 0.000000 -0.500000
v -0.500000 0.000000 -0.500000
v -0.535355 -0.035355 -0.500000
v -0.470711 0.100000 -0.500000
v 0.500000 1.000000 -0.500000
v 0.500000 1.140711 -0.500000
v -0.470711 0.100000 0.400000
v 0.400000 0.900000 0.500000
v -0.400000 0.100000 0.475000
v 0.400000 0.900000 0.475000
v -0.400000 0.100000 0.500000
v -0.500000 -0.000000 0.500000
v -0.535355 -0.035355 0.400000
v -0.535355 -0.035355 0.500000
v -0.570711 -0.000000 0.400000
v 0.500000 1.140711 0.400000
v 0.400000 0.000000 -0.475000
v -0.400000 0.000000 -0.475000
v 0.500000 1.190711 0.500000
v 0.500000 1.190711 0.400000
v 0.500000 -0.000000 0.500000
v 0.500000 0.000000 -0.500000
v -0.400000 -0.000000 0.475000
v 0.400000 -0.000000 0.475000
v -0.400000 -0.000000 0.500000
v -0.400000 0.000000 -0.500000
v 0.400000 0.000000 -0.500000
v 0.400000 -0.000000 0.500000
v -0.641421 -0.000711 0.500000
v 0.400000 1.040711 0.500000
v -0.641421 -0.000711 0.400000
v 0.400000 1.090711 0.400000
v -0.570711 -0.070711 0.400000
v 0.400000 1.090711 0.500000
v -0.570711 -0.070711 0.500000
vt 0.503402 0.422427
vt 0.777189 0.401132
vt 0.777189 0.422427
vt 0.503402 0.416343
vt 0.503402 0.401132
vt 0.358623 0.728312
vt 0.366228 0.484946
vt 0.366228 0.728312
vt 0.358623 0.484946
vt 0.497743 0.003358
vt 0.482013 0.018031
vt 0.482542 0.002829
vt 0.496247 0.046354
vt 0.480516 0.061026
vt 0.483218 0.420720
vt 0.468546 0.404990
vt 0.467050 0.447985
vt 0.497743 0.436292
vt 0.496247 0.479288
vt 0.503402 0.687304
vt 0.777189 0.687304
vt 0.345359 0.728312
vt 0.352964 0.484946
vt 0.352964 0.728312
vt 0.345359 0.484946
vt 0.425584 0.789154
vt 0.414829 0.484946
vt 0.425584 0.484946
vt 0.414829 0.758733
vt 0.414829 0.789154
vt 0.398415 0.758733
vt 0.409170 0.484946
vt 0.409170 0.758733
vt 0.398415 0.484946
vt 0.503402 0.370712
vt 0.777189 0.370712
vt 0.752427 0.966750
vt 0.995793 0.997171
vt 0.752427 0.997171
vt 0.995793 0.723384
vt 0.503402 0.365053
vt 0.533822 0.349843
vt 0.533822 0.365053
vt 0.503402 0.002829
vt 0.807609 0.002829
vt 0.807609 0.307037
vt 0.807609 0.349843
vt 0.503402 0.723384
vt 0.746768 0.997171
vt 0.503402 0.997171
vt 0.746768 0.966750
vt 0.002829 0.815179
vt 0.033250 0.807573
vt 0.033250 0.815179
vt 0.033250 0.518576
vt 0.033250 0.510971
vt 0.002829 0.510971
vt 0.276616 0.518576
vt 0.276616 0.807573
vt 0.339700 0.781549
vt 0.339700 0.484946
vt 0.339700 0.773944
vt 0.259554 0.484946
vt 0.259554 0.484946
vt 0.259554 0.484946
vt 0.461663 0.484946
vt 0.431243 0.789154
vt 0.431243 0.484946
vt 0.461663 0.789154
vt 0.497743 0.530577
vt 0.467322 0.847386
vt 0.467322 0.530577
vt 0.497743 0.847386
vt 0.287207 0.527968
vt 0.297962 0.495702
vt 0.297962 0.538723
vt 0.287207 0.484946
vt 0.828326 0.435501
vt 0.813269 0.450864
vt 0.813268 0.002829
vt 0.843536 0.435501
vt 0.843536 0.450711
vt 0.828326 0.392480
vt 0.824024 0.013585
vt 0.828326 0.017887
vt 0.497743 0.515367
vt 0.467322 0.515367
vt 0.459767 0.038780
vt 0.259554 0.225526
vt 0.281800 0.204777
vt 0.303621 0.553292
vt 0.311226 0.522871
vt 0.311226 0.553292
vt 0.303621 0.522871
vt 0.385151 0.758733
vt 0.392756 0.484946
vt 0.392756 0.758733
vt 0.385151 0.484946
vt 0.467322 0.484946
vt 0.497743 0.484946
vt 0.303621 0.517212
vt 0.334042 0.506457
vt 0.334042 0.517212
vt 0.303621 0.506457
vt 0.221911 0.431890
vt 0.222919 0.474900
vt 0.200910 0.453899
vt 0.243395 0.056844
vt 0.253895 0.504755
vt 0.223276 0.490106
vt 0.223632 0.505312
vt 0.213845 0.087813
vt 0.252887 0.002829
vt 0.024838 0.285893
vt 0.002829 0.264893
vt 0.253895 0.045839
vt 0.316885 0.553292
vt 0.324490 0.522871
vt 0.324490 0.553292
vt 0.316885 0.522871
vt 0.303621 0.484946
vt 0.334042 0.484946
vt 0.371887 0.758733
vt 0.379492 0.484946
vt 0.379492 0.758733
vt 0.371887 0.484946
vt 0.503402 0.717725
vt 0.777189 0.717725
vn -1.0000 0.0000 0.0000
vn 0.7071 -0.7071 0.0000
vn 0.0000 0.0000 -1.0000
vn -0.7071 0.7071 0.0000
vn -0.7071 -0.7071 0.0000
vn 1.0000 0.0000 0.0000
vn 0.0000 -0.0000 1.0000
vn -0.0000 -1.0000 -0.0000
vn -0.7035 -0.7107 -0.0000
s 1
f 1/1/1 2/2/1 3/3/1
f 2/2/1 1/1/1 4/4/1
f 2/2/1 4/4/1 5/5/1
f 6/6/2 7/7/2 8/8/2
f 7/7/2 6/6/2 9/9/2
f 10/10/3 11/11/3 12/12/3
f 11/11/3 10/10/3 13/13/3
f 11/11/3 13/13/3 7/14/3
f 7/14/3 13/13/3 3/15/3
f 7/14/3 3/15/3 8/16/3
f 8/16/3 3/15/3 14/17/3
f 14/17/3 3/15/3 2/18/3
f 14/17/3 2/18/3 15/19/3
f 3/3/4 16/20/4 1/1/4
f 16/20/4 3/3/4 13/21/4
f 17/22/2 18/23/2 19/24/2
f 18/23/2 17/22/2 20/25/2
f 21/26/2 12/27/2 11/28/2
f 12/27/2 21/26/2 22/29/2
f 22/29/2 21/26/2 23/30/2
f 24/31/5 12/32/5 22/33/5
f 12/32/5 24/31/5 10/34/5
f 2/2/4 25/35/4 15/36/4
f 25/35/4 2/2/4 5/5/4
f 9/37/3 26/38/3 27/39/3
f 26/38/3 9/37/3 6/40/3
f 28/41/6 25/42/6 29/43/6
f 25/42/6 28/41/6 30/44/6
f 31/45/6 25/42/6 30/44/6
f 14/46/6 25/42/6 31/45/6
f 25/42/6 14/46/6 15/47/6
f 19/48/7 32/49/7 33/50/7
f 32/49/7 19/48/7 18/51/7
f 21/52/8 32/53/8 34/54/8
f 32/53/8 21/52/8 27/55/8
f 27/55/8 21/52/8 35/56/8
f 35/56/8 21/52/8 11/57/8
f 26/58/8 32/53/8 27/55/8
f 32/53/8 26/58/8 33/59/8
f 36/60/8 33/61/8 26/62/8
f 36/63/8 37/64/8 33/65/8
f 31/66/8 37/67/8 36/68/8
f 37/67/8 31/66/8 30/69/8
f 5/70/4 38/71/4 39/72/4
f 38/71/4 5/70/4 40/73/4
f 41/74/3 25/75/3 5/76/3
f 25/75/3 41/74/3 29/77/3
f 24/78/3 40/79/3 5/80/3
f 22/81/3 40/79/3 24/78/3
f 40/79/3 22/81/3 42/82/3
f 24/78/3 5/80/3 16/83/3
f 16/83/3 5/80/3 4/84/3
f 16/83/3 4/84/3 1/85/3
f 39/72/1 41/86/1 5/70/1
f 41/86/1 39/72/1 43/87/1
f 7/14/3 35/88/3 11/11/3
f 8/16/3 31/89/3 36/90/3
f 31/89/3 8/16/3 14/17/3
f 9/91/6 35/92/6 7/93/6
f 35/92/6 9/91/6 27/94/6
f 26/95/1 8/96/1 36/97/1
f 8/96/1 26/95/1 6/98/1
f 41/86/4 28/99/4 29/100/4
f 28/99/4 41/86/4 43/87/4
f 23/101/2 42/102/2 22/103/2
f 42/102/2 23/101/2 44/104/2
f 20/105/7 21/106/7 34/107/7
f 39/108/7 21/106/7 20/105/7
f 38/109/7 21/106/7 39/108/7
f 38/109/7 23/110/7 21/106/7
f 23/110/7 38/109/7 44/111/7
f 39/108/7 20/105/7 17/112/7
f 17/112/7 28/113/7 39/108/7
f 37/114/7 28/113/7 17/112/7
f 28/113/7 37/114/7 30/115/7
f 39/108/7 28/113/7 43/116/7
f 20/117/6 32/118/6 18/119/6
f 32/118/6 20/117/6 34/120/6
f 38/121/9 42/102/9 44/104/9
f 42/102/9 38/121/9 40/122/9
f 37/123/1 19/124/1 33/125/1
f 19/124/1 37/123/1 17/126/1
f 13/21/4 24/127/4 16/20/4
f 24/127/4 13/21/4 10/128/4
