# Blender v2.92.0 OBJ File: 'kenney_OGConvert.blend'
# www.blender.org
o roofHigh
v -0.500000 -0.000000 0.500000
v -0.400000 -0.000000 0.475000
v -0.400000 -0.000000 0.500000
v -0.400000 0.000000 -0.475000
v -0.400000 0.000000 -0.500000
v -0.500000 0.000000 -0.500000
v 0.400000 0.000000 -0.475000
v 0.400000 -0.000000 0.475000
v 0.400000 0.000000 -0.500000
v 0.400000 -0.000000 0.500000
v 0.500000 0.000000 -0.500000
v 0.500000 -0.000000 0.500000
v 0.500000 1.140711 0.500000
v 0.500000 1.000000 -0.500000
v 0.500000 1.140711 -0.500000
v 0.500000 1.000000 0.500000
v 0.400000 0.900000 0.475000
v -0.400000 0.100000 0.475000
v -0.400000 0.100000 -0.475000
v 0.400000 0.900000 -0.475000
v 0.400000 0.900000 -0.500000
v -0.400000 0.100000 0.500000
v 0.400000 0.900000 0.500000
v -0.400000 0.100000 -0.500000
v -0.570711 -0.000000 0.500000
v -0.535355 -0.035355 -0.500000
v -0.535355 -0.035355 0.500000
v -0.570711 0.000000 -0.500000
v -0.470711 0.100000 -0.500000
v 0.400000 0.970711 -0.500000
v 0.400000 1.040711 -0.500000
v 0.400000 1.040711 0.500000
v 0.400000 0.970711 0.500000
v -0.470711 0.100000 0.500000
vt 0.776684 0.298176
vt 0.797583 0.290787
vt 0.797583 0.298176
vt 0.797583 0.010000
vt 0.797583 0.002610
vt 0.776684 0.002610
vt 0.964781 0.010000
vt 0.964781 0.290787
vt 0.786744 0.758931
vt 0.786744 0.470754
vt 0.786744 0.751541
vt 0.298176 0.470011
vt 0.298176 0.470011
vt 0.298176 0.470011
vt 0.267136 0.470011
vt 0.246236 0.765577
vt 0.246236 0.470011
vt 0.267136 0.765577
vt 0.241015 0.765577
vt 0.211607 0.470011
vt 0.241015 0.470011
vt 0.002610 0.470011
vt 0.002610 0.765577
vt 0.292355 0.470011
vt 0.292355 0.470011
vt 0.292355 0.470011
vt 0.303397 0.470754
vt 0.539850 0.736763
vt 0.303397 0.736763
vt 0.539850 0.707207
vt 0.545070 0.707206
vt 0.781523 0.736763
vt 0.545070 0.736763
vt 0.781523 0.470754
vt 0.506452 0.393346
vt 0.303397 0.218981
vt 0.325011 0.198821
vt 0.504998 0.435120
vt 0.754726 0.408990
vt 0.756179 0.450764
vt 0.734565 0.430604
vt 0.741641 0.033023
vt 0.561654 0.269323
vt 0.540040 0.249163
vt 0.743095 0.074798
vt 0.303397 0.930081
vt 0.310786 0.741984
vt 0.310786 0.930081
vt 0.303397 0.741984
vt 0.980061 0.491654
vt 0.987451 0.470754
vt 0.987451 0.491654
vt 0.980061 0.470754
vt 0.518082 0.059154
vt 0.497922 0.037540
vt 0.519536 0.017380
vt 0.990000 0.023510
vt 0.997390 0.002610
vt 0.997390 0.023510
vt 0.990000 0.002610
vt 0.974841 0.758931
vt 0.974841 0.751541
vt 0.272356 0.765577
vt 0.287135 0.470011
vt 0.287135 0.765577
vt 0.272356 0.470011
vt 0.984780 0.298176
vt 0.970001 0.002610
vt 0.984780 0.002610
vt 0.970001 0.298176
vt 0.534819 0.003124
vt 0.520050 0.002610
vt 0.533366 0.044898
vt 0.520707 0.408629
vt 0.534819 0.423759
vt 0.533366 0.465533
vt 0.980061 0.826048
vt 0.987451 0.826048
vt 0.990000 0.357905
vt 0.997390 0.357905
vt 0.002610 0.044410
vt 0.298176 0.002610
vt 0.298176 0.044410
vt 0.002610 0.002610
vt 0.002610 0.059039
vt 0.298176 0.059039
vt 0.771463 0.465019
vt 0.756693 0.465533
vt 0.770009 0.423245
vt 0.757351 0.059514
vt 0.771463 0.044384
vt 0.770009 0.002610
vt 0.298176 0.422991
vt 0.002610 0.422991
vt 0.298176 0.464790
vt 0.002610 0.464790
vn -0.0000 -1.0000 -0.0000
vn 1.0000 0.0000 -0.0000
vn 0.0000 1.0000 -0.0000
vn 0.0000 -0.0000 1.0000
vn -0.0000 0.0000 -1.0000
vn -1.0000 0.0000 0.0000
vn -0.7071 -0.7071 0.0000
vn 0.7071 -0.7071 -0.0000
vn -0.7071 0.7071 0.0000
s 1
f 1/1/1 2/2/1 3/3/1
f 2/2/1 1/1/1 4/4/1
f 4/4/1 1/1/1 5/5/1
f 5/5/1 1/1/1 6/6/1
f 7/7/1 2/2/1 4/4/1
f 2/2/1 7/7/1 8/8/1
f 9/9/1 8/10/1 7/11/1
f 9/12/1 10/13/1 8/14/1
f 11/15/1 10/16/1 9/17/1
f 10/16/1 11/15/1 12/18/1
f 13/19/2 14/20/2 15/21/2
f 14/20/2 13/19/2 11/22/2
f 11/22/2 13/19/2 12/23/2
f 12/24/2 13/25/2 16/26/3
f 17/27/4 2/28/4 8/29/4
f 2/28/4 17/27/4 18/30/4
f 19/31/5 7/32/5 4/33/5
f 7/32/5 19/31/5 20/34/5
f 21/35/5 11/36/5 9/37/5
f 11/36/5 21/35/5 14/38/5
f 22/39/4 1/40/4 3/41/4
f 16/42/4 10/43/4 12/44/4
f 10/43/4 16/42/4 23/45/4
f 10/46/6 17/47/6 8/48/6
f 17/47/6 10/46/6 23/49/6
f 22/50/2 2/51/2 18/52/2
f 2/51/2 22/50/2 3/53/2
f 24/54/5 5/55/5 6/56/5
f 19/57/2 5/58/2 24/59/2
f 5/58/2 19/57/2 4/60/2
f 7/11/6 21/61/6 9/9/6
f 21/61/6 7/11/6 20/62/6
f 25/63/7 26/64/7 27/65/7
f 26/64/7 25/63/7 28/66/7
f 1/67/8 26/68/8 6/69/8
f 26/68/8 1/67/8 27/70/8
f 28/71/5 6/56/5 26/72/5
f 6/56/5 28/71/5 29/73/5
f 6/56/5 29/73/5 24/54/5
f 24/54/5 29/73/5 30/74/5
f 24/54/5 30/74/5 21/35/5
f 21/35/5 30/74/5 14/38/5
f 14/38/5 30/74/5 31/75/5
f 14/38/5 31/75/5 15/76/5
f 23/77/8 18/52/8 17/78/8
f 18/52/8 23/77/8 22/50/8
f 20/79/8 24/59/8 21/80/8
f 24/59/8 20/79/8 19/57/8
f 32/81/9 15/82/9 31/83/9
f 15/82/9 32/81/9 13/84/9
f 33/85/6 31/83/6 30/86/6
f 31/83/6 33/85/6 32/81/6
f 1/40/4 25/87/4 27/88/4
f 25/87/4 1/40/4 34/89/4
f 34/89/4 1/40/4 22/39/4
f 34/89/4 22/39/4 33/90/4
f 33/90/4 22/39/4 23/45/4
f 33/90/4 23/45/4 16/42/4
f 33/90/4 16/42/4 32/91/4
f 32/91/4 16/42/4 13/92/4
f 29/93/9 33/85/9 30/86/9
f 33/85/9 29/93/9 34/94/9
f 28/95/9 34/94/9 29/93/9
f 34/94/9 28/95/9 25/96/9
