# Blender v2.92.0 OBJ File: 'kenney_OGConvert.blend'
# www.blender.org
o roofHighCornerRound
v -0.470711 0.100000 -0.041207
v 0.041207 0.100000 0.470711
v 0.400000 0.970711 -0.400000
v 0.400000 1.040711 -0.400000
v 0.500000 1.140711 -0.500000
v 0.400000 1.040711 -0.500000
v 0.500000 1.040711 -0.400000
v 0.500000 0.970711 -0.400000
v -0.470711 0.100000 -0.500000
v 0.400000 0.970711 -0.500000
v 0.000000 -0.000000 0.500000
v 0.500000 -0.035355 0.535355
v 0.000000 -0.035355 0.535355
v 0.500000 -0.000000 0.500000
v -0.500000 0.000000 0.000000
v -0.535355 -0.035355 -0.500000
v -0.500000 0.000000 -0.500000
v -0.535355 -0.035355 0.000000
v 0.500000 0.100000 0.470711
v -0.570711 0.000000 -0.500000
v 0.500000 0.000000 -0.500000
v 0.500000 -0.000000 0.570711
v 0.000000 -0.000000 0.570711
v -0.570711 -0.000000 0.000000
v -0.070711 -0.000000 0.500000
v -0.500000 -0.000000 0.070711
vt 0.145651 0.107245
vt 0.386586 0.053780
vt 0.368633 0.501290
vt 0.376873 0.515902
vt 0.388648 0.575657
vt 0.353342 0.540565
vt 0.751192 0.560043
vt 0.786493 0.595344
vt 0.751192 0.595344
vt 0.786493 0.620054
vt 0.751192 0.620054
vt 0.037690 0.220396
vt 0.345101 0.525953
vt 0.202251 0.580426
vt 0.189770 0.756930
vt 0.189770 0.580426
vt 0.202251 0.756930
vt 0.932465 0.749028
vt 0.944945 0.925532
vt 0.932465 0.925532
vt 0.944945 0.749028
vt 0.932465 0.572524
vt 0.944945 0.560043
vt 0.751192 0.927423
vt 0.913150 0.927423
vt 0.669815 0.002998
vt 0.651561 0.020024
vt 0.652175 0.002384
vt 0.668078 0.052891
vt 0.393416 0.260806
vt 0.652960 0.487312
vt 0.668078 0.555275
vt 0.669815 0.505382
vt 0.569920 0.913051
vt 0.746424 0.560043
vt 0.746424 0.913051
vt 0.393416 0.560043
vt 0.393416 0.736547
vt 0.950982 0.052277
vt 0.674583 0.296853
vt 0.949245 0.002384
vt 0.934127 0.070347
vt 0.932728 0.537635
vt 0.949245 0.504768
vt 0.950982 0.554661
vt 0.933342 0.555275
vt 0.927696 0.962723
vt 0.751192 0.962723
vt 0.083453 0.997616
vt 0.013470 0.835099
vt 0.094540 0.991883
vt 0.002384 0.840831
vt 0.099308 0.740494
vt 0.185002 0.585685
vt 0.110627 0.745754
vt 0.173683 0.580426
vt 0.388648 0.002384
vt 0.355368 0.009769
vt 0.153322 0.054605
vt 0.120042 0.061990
vt 0.094540 0.580426
vt 0.208664 0.580426
vt 0.208664 0.769822
vt 0.207019 0.744915
vt 0.185002 0.974939
vt 0.111427 0.773650
vt 0.002384 0.185303
vn -0.5004 0.7066 0.5004
vn -0.7071 0.7071 0.0000
vn 0.0000 0.7071 0.7071
vn 0.0000 -0.0000 1.0000
vn -1.0000 0.0000 0.0000
vn -0.0000 -0.7071 -0.7071
vn 0.7071 -0.7071 -0.0000
vn 0.5774 -0.5773 -0.5774
vn 0.5774 -0.5774 -0.5774
vn 0.0000 0.0000 -1.0000
vn -0.0000 -1.0000 -0.0000
vn 1.0000 -0.0000 -0.0000
vn 0.0000 -0.7071 0.7071
vn -0.7071 -0.7071 0.0000
vn -0.5773 -0.5774 0.5774
vn -0.5774 -0.5774 0.5774
vn -0.5774 -0.5773 0.5774
s 1
f 1/1/1 2/2/1 3/3/1
f 4/4/2 5/5/2 6/6/2
f 5/7/3 4/8/3 7/9/3
f 7/9/4 3/10/4 8/11/4
f 3/10/4 7/9/4 4/8/4
f 9/12/2 3/3/2 10/13/2
f 3/3/2 9/12/2 1/1/2
f 3/3/5 6/6/5 10/13/5
f 6/6/5 3/3/5 4/4/5
f 11/14/6 12/15/6 13/16/6
f 12/15/6 11/14/6 14/17/6
f 15/18/7 16/19/7 17/20/7
f 16/19/7 15/18/7 18/21/7
f 11/22/8 18/21/9 15/18/9
f 18/21/9 11/22/8 13/23/8
f 3/10/3 19/24/3 8/11/3
f 19/24/3 3/10/3 2/25/3
f 20/26/10 17/27/10 16/28/10
f 17/27/10 20/26/10 9/29/10
f 17/27/10 9/29/10 21/30/10
f 21/30/10 9/29/10 10/31/10
f 21/30/10 10/31/10 5/32/10
f 5/32/10 10/31/10 6/33/10
f 11/34/11 21/35/11 14/36/11
f 21/35/11 11/34/11 17/37/11
f 17/37/11 11/34/11 15/38/11
f 7/39/12 21/40/12 5/41/12
f 21/40/12 7/39/12 8/42/12
f 21/40/12 8/42/12 14/43/12
f 14/43/12 8/42/12 19/44/12
f 14/43/12 19/44/12 22/45/12
f 14/43/12 22/45/12 12/46/12
f 19/24/3 23/47/3 22/48/3
f 23/47/3 19/24/3 2/25/3
f 22/49/13 13/50/13 12/51/13
f 13/50/13 22/49/13 23/52/13
f 24/53/14 16/54/14 18/55/14
f 16/54/14 24/53/14 20/56/14
f 1/1/1 23/57/1 2/2/1
f 23/57/1 1/1/1 25/58/1
f 25/58/1 1/1/1 26/59/1
f 26/59/1 1/1/1 24/60/1
f 23/52/15 18/61/16 13/50/15
f 18/62/16 23/63/15 25/64/17
f 18/55/16 25/65/17 26/66/15
f 18/55/16 26/66/15 24/53/17
f 24/60/2 9/12/2 20/67/2
f 9/12/2 24/60/2 1/1/2
