# Blender v2.92.0 OBJ File: 'kenney_OGConvert.blend'
# www.blender.org
o stallStool
v 0.110000 0.175501 0.110000
v 0.110000 -0.000000 0.060000
v 0.110000 0.175501 0.060000
v 0.110000 -0.000000 0.110000
v 0.130000 0.225501 0.130000
v 0.130000 0.175501 -0.130000
v 0.130000 0.225501 -0.130000
v 0.130000 0.175501 0.130000
v 0.060000 -0.000000 0.110000
v 0.060000 -0.000000 0.060000
v 0.060000 -0.000000 0.070000
v -0.060000 0.175501 0.110000
v -0.110000 -0.000000 0.110000
v -0.060000 -0.000000 0.110000
v -0.110000 0.175501 0.110000
v 0.060000 0.000000 -0.110000
v 0.110000 0.175501 -0.110000
v 0.110000 0.000000 -0.110000
v 0.060000 0.175501 -0.110000
v -0.130000 0.225501 -0.130000
v -0.130000 0.225501 0.130000
v -0.130000 0.175501 0.130000
v 0.060000 0.175501 0.110000
v 0.060000 0.175501 0.060000
v 0.060000 0.175501 -0.060000
v -0.110000 0.175501 0.060000
v -0.110000 0.175501 -0.060000
v -0.110000 0.175501 -0.110000
v -0.130000 0.175501 -0.130000
v 0.110000 0.175501 -0.060000
v -0.060000 0.175501 -0.110000
v -0.060000 0.175501 0.070000
v -0.060000 0.175501 0.060000
v -0.060000 0.175501 -0.060000
v -0.060000 0.175501 -0.070000
v 0.060000 0.082751 0.072500
v 0.060000 0.082751 0.097500
v 0.060000 0.132751 0.097500
v 0.060000 0.132751 0.072500
v -0.097500 0.082751 0.060000
v -0.110000 -0.000000 0.060000
v -0.097500 0.132751 0.060000
v -0.072500 0.132751 0.060000
v -0.072500 0.082751 0.060000
v -0.060000 -0.000000 0.060000
v -0.110000 0.000000 -0.060000
v -0.060000 0.000000 -0.110000
v -0.060000 0.000000 -0.060000
v -0.110000 0.000000 -0.110000
v -0.072500 0.082751 -0.060000
v -0.072500 0.132751 -0.060000
v 0.072500 0.082751 0.060000
v 0.072500 0.132751 0.060000
v 0.097500 0.132751 0.060000
v 0.097500 0.082751 0.060000
v -0.060000 0.132751 -0.097500
v -0.060000 0.132751 -0.072500
v -0.060000 0.082751 -0.072500
v -0.060000 0.082751 -0.097500
v -0.097500 0.132751 -0.060000
v -0.097500 0.082751 -0.060000
v 0.097500 0.082751 -0.060000
v 0.097500 0.132751 -0.060000
v 0.060000 0.000000 -0.060000
v 0.110000 0.000000 -0.060000
v 0.060000 0.000000 -0.070000
v 0.072500 0.132751 -0.060000
v 0.072500 0.082751 -0.060000
v -0.060000 0.132751 0.072500
v -0.060000 0.132751 0.097500
v -0.060000 0.082751 0.097500
v -0.060000 0.082751 0.072500
v 0.060000 0.082751 -0.097500
v 0.060000 0.082751 -0.072500
v 0.060000 0.132751 -0.072500
v 0.060000 0.132751 -0.097500
vt 0.603814 0.857091
vt 0.671873 0.618202
vt 0.671873 0.857091
vt 0.603814 0.618202
vt 0.437210 0.358989
vt 0.369151 0.005081
vt 0.437210 0.005081
vt 0.369150 0.358989
vt 0.682035 0.358989
vt 0.750094 0.290929
vt 0.750094 0.358989
vt 0.682035 0.290929
vt 0.525593 0.867253
vt 0.525593 0.935312
vt 0.525593 0.880865
vt 0.447372 0.369150
vt 0.515431 0.608040
vt 0.447372 0.608040
vt 0.515431 0.369150
vt 0.369150 0.608040
vt 0.437210 0.369150
vt 0.437210 0.608040
vt 0.369150 0.369150
vt 0.358989 0.005081
vt 0.005081 0.358989
vt 0.005081 0.005081
vt 0.358989 0.358989
vt 0.358989 0.723058
vt 0.331765 0.695834
vt 0.358989 0.369150
vt 0.005081 0.723058
vt 0.263706 0.695834
vt 0.100364 0.695834
vt 0.263706 0.627775
vt 0.263706 0.464433
vt 0.263706 0.396374
vt 0.032305 0.695834
vt 0.032305 0.627775
vt 0.032305 0.464433
vt 0.032305 0.396374
vt 0.331765 0.396374
vt 0.005081 0.369150
vt 0.682035 0.254132
vt 0.682035 0.254132
vt 0.682035 0.254132
vt 0.682035 0.254132
vt 0.331765 0.464433
vt 0.331765 0.627775
vt 0.100364 0.396374
vt 0.682035 0.280767
vt 0.682035 0.280767
vt 0.682035 0.280767
vt 0.960889 0.944109
vt 0.960889 0.699096
vt 0.960889 0.712708
vt 0.960889 0.876050
vt 0.100364 0.464433
vt 0.100364 0.627775
vt 0.682035 0.264294
vt 0.682035 0.264294
vt 0.682035 0.264294
vt 0.593652 0.005081
vt 0.525593 0.358989
vt 0.525593 0.005081
vt 0.593652 0.358989
vt 0.760256 0.742073
vt 0.811300 0.629435
vt 0.814703 0.742073
vt 0.777271 0.629435
vt 0.777271 0.561375
vt 0.811300 0.561375
vt 0.828315 0.503184
vt 0.828315 0.742073
vt 0.760256 0.503184
vt 0.525593 0.369150
vt 0.542607 0.495401
vt 0.525593 0.608040
vt 0.542607 0.427342
vt 0.576637 0.427342
vt 0.576637 0.495401
vt 0.593652 0.608040
vt 0.593652 0.369150
vt 0.838477 0.918251
vt 0.906536 0.850192
vt 0.906536 0.918251
vt 0.838477 0.850192
vt 0.073140 0.896562
vt 0.005081 0.733220
vt 0.073140 0.733220
vt 0.005081 0.896562
vt 0.682035 0.857091
vt 0.750094 0.618202
vt 0.750094 0.857091
vt 0.682035 0.618202
vt 0.603814 0.369150
vt 0.671873 0.608040
vt 0.603814 0.608040
vt 0.671873 0.369150
vt 0.682035 0.005081
vt 0.699050 0.131332
vt 0.682035 0.243970
vt 0.699050 0.063272
vt 0.733079 0.063272
vt 0.733079 0.131332
vt 0.750094 0.243970
vt 0.750094 0.005081
vt 0.447372 0.935312
vt 0.515431 0.867253
vt 0.515431 0.935312
vt 0.447372 0.867253
vt 0.515431 0.857091
vt 0.498416 0.798900
vt 0.515431 0.618202
vt 0.460983 0.857091
vt 0.464386 0.798900
vt 0.464386 0.730841
vt 0.498416 0.730841
vt 0.447372 0.618202
vt 0.447372 0.857091
vt 0.273774 0.733220
vt 0.239744 0.896562
vt 0.239744 0.733220
vt 0.273774 0.896562
vt 0.682035 0.608040
vt 0.699050 0.495401
vt 0.750094 0.608040
vt 0.682035 0.369150
vt 0.699050 0.427342
vt 0.733079 0.427342
vt 0.733079 0.495401
vt 0.750094 0.369150
vt 0.515431 0.358989
vt 0.447372 0.005081
vt 0.515431 0.005081
vt 0.447372 0.358989
vt 0.151361 0.896562
vt 0.083302 0.733220
vt 0.151361 0.733220
vt 0.083302 0.896562
vt 0.369150 0.935312
vt 0.437210 0.867253
vt 0.437210 0.935312
vt 0.369151 0.867253
vt 0.692197 0.264294
vt 0.692197 0.264294
vt 0.692197 0.264294
vt 0.760256 0.243970
vt 0.777271 0.131332
vt 0.828315 0.243970
vt 0.760256 0.005081
vt 0.777271 0.063272
vt 0.811300 0.063272
vt 0.811300 0.131332
vt 0.828315 0.005081
vt 0.760256 0.493022
vt 0.828315 0.254132
vt 0.828315 0.493022
vt 0.760256 0.254132
vt 0.603814 0.005081
vt 0.671873 0.358989
vt 0.603814 0.358989
vt 0.671873 0.005081
vt 0.838477 0.243970
vt 0.889521 0.185779
vt 0.892924 0.243970
vt 0.855492 0.185779
vt 0.855492 0.117720
vt 0.889521 0.117720
vt 0.906536 0.005081
vt 0.906536 0.243970
vt 0.838477 0.005081
vt 0.916698 0.341927
vt 0.950727 0.178585
vt 0.950727 0.341927
vt 0.916698 0.178585
vt 0.229582 0.733220
vt 0.161523 0.896562
vt 0.161523 0.733220
vt 0.229582 0.896562
vt 0.906536 0.493022
vt 0.889521 0.380383
vt 0.906536 0.254132
vt 0.852089 0.493022
vt 0.855492 0.380383
vt 0.855492 0.312324
vt 0.889521 0.312324
vt 0.838477 0.254132
vt 0.838477 0.493022
vt 0.369150 0.857091
vt 0.437210 0.618202
vt 0.437210 0.857091
vt 0.369150 0.618202
vt 0.950727 0.352089
vt 0.916698 0.515431
vt 0.916698 0.352089
vt 0.950727 0.515431
vt 0.358989 0.733220
vt 0.290929 0.896562
vt 0.290929 0.733220
vt 0.358989 0.896562
vt 0.916698 0.688935
vt 0.950727 0.525593
vt 0.950727 0.688935
vt 0.916698 0.525593
vt 0.525593 0.857091
vt 0.593652 0.618202
vt 0.593652 0.857091
vt 0.525593 0.618202
vt 0.906536 0.503184
vt 0.838477 0.666526
vt 0.838477 0.503184
vt 0.906536 0.666526
vt 0.838477 0.676688
vt 0.906536 0.840030
vt 0.838477 0.840030
vt 0.906536 0.676688
vt 0.950727 0.699096
vt 0.916698 0.862438
vt 0.916698 0.699096
vt 0.950727 0.862438
vt 0.960889 0.178585
vt 0.994919 0.341927
vt 0.960889 0.341927
vt 0.994919 0.178585
vt 0.994919 0.352089
vt 0.960889 0.515431
vt 0.960889 0.352089
vt 0.994919 0.515431
vt 0.760256 0.752235
vt 0.828315 0.915577
vt 0.760256 0.915577
vt 0.828315 0.752235
vt 0.960889 0.525593
vt 0.994919 0.688935
vt 0.960889 0.688935
vt 0.994919 0.525593
vt 0.984757 0.005081
vt 0.916698 0.168423
vt 0.916698 0.005081
vt 0.984757 0.168423
vn 1.0000 0.0000 -0.0000
vn -0.0000 -1.0000 -0.0000
vn 0.0000 -1.0000 0.0003
vn 0.0000 -0.0000 1.0000
vn -0.0000 0.0000 -1.0000
vn 0.0000 1.0000 0.0000
vn -0.0000 -0.5888 -0.8083
vn -0.0000 0.2583 -0.9661
vn -1.0000 -0.0000 0.0000
s 1
f 1/1/1 2/2/1 3/3/1
f 2/2/1 1/1/1 4/4/1
f 5/5/1 6/6/1 7/7/1
f 6/6/1 5/5/1 8/8/1
f 9/9/2 2/10/2 4/11/2
f 2/10/2 9/9/2 10/12/2
f 10/13/2 9/14/2 11/15/3
f 12/16/4 13/17/4 14/18/4
f 13/17/4 12/16/4 15/19/4
f 16/20/5 17/21/5 18/22/5
f 17/21/5 16/20/5 19/23/5
f 20/24/6 5/25/6 7/26/6
f 5/25/6 20/24/6 21/27/6
f 8/28/2 1/29/2 6/30/2
f 1/29/2 8/28/2 22/31/2
f 1/29/2 22/31/2 23/32/2
f 23/32/2 22/31/2 12/33/2
f 23/32/2 12/33/2 24/34/2
f 24/34/2 12/33/2 25/35/2
f 25/35/2 12/33/2 19/36/2
f 12/33/2 22/31/2 15/37/2
f 15/37/2 22/31/2 26/38/2
f 26/38/2 22/31/2 27/39/2
f 27/39/2 22/31/2 28/40/2
f 17/41/2 6/30/2 1/29/2
f 6/30/2 17/41/2 29/42/2
f 29/42/2 17/41/2 19/36/2
f 29/42/2 28/40/2 22/31/2
f 17/43/2 1/44/2 3/45/7
f 17/43/2 3/45/7 30/46/8
f 24/34/2 30/47/8 3/48/7
f 30/47/8 24/34/2 25/35/2
f 29/42/2 19/36/2 31/49/2
f 31/49/2 19/36/2 12/33/2
f 29/42/2 31/49/2 28/40/2
f 31/50/2 12/51/2 32/52/2
f 31/53/2 32/54/2 33/55/2
f 31/53/2 33/55/2 34/56/2
f 26/38/2 34/57/2 33/58/2
f 34/57/2 26/38/2 27/39/2
f 31/59/2 34/60/2 35/61/4
f 5/62/4 22/63/4 8/64/4
f 22/63/4 5/62/4 21/65/4
f 9/66/9 36/67/9 11/68/9
f 36/67/9 9/66/9 37/69/9
f 37/69/9 9/66/9 38/70/9
f 39/71/9 11/68/9 36/67/9
f 24/72/9 11/68/9 39/71/9
f 11/68/9 24/72/9 10/73/9
f 24/72/9 39/71/9 23/74/9
f 23/74/9 39/71/9 38/70/9
f 23/74/9 38/70/9 9/66/9
f 26/75/5 40/76/5 41/77/5
f 40/76/5 26/75/5 42/78/5
f 42/78/5 26/75/5 43/79/5
f 44/80/5 41/77/5 40/76/5
f 44/80/5 45/81/5 41/77/5
f 45/81/5 44/80/5 33/82/5
f 33/82/5 44/80/5 43/79/5
f 33/82/5 43/79/5 26/75/5
f 46/83/2 47/84/2 48/85/2
f 47/84/2 46/83/2 49/86/2
f 43/87/1 50/88/1 51/89/1
f 50/88/1 43/87/1 44/90/1
f 46/91/9 28/92/9 49/93/9
f 28/92/9 46/91/9 27/94/9
f 1/95/4 9/96/4 4/97/4
f 9/96/4 1/95/4 23/98/4
f 24/99/5 52/100/5 10/101/5
f 52/100/5 24/99/5 53/102/5
f 53/102/5 24/99/5 54/103/5
f 55/104/5 10/101/5 52/100/5
f 55/104/5 2/105/5 10/101/5
f 2/105/5 55/104/5 3/106/5
f 3/106/5 55/104/5 54/103/5
f 3/106/5 54/103/5 24/99/5
f 13/107/2 45/108/2 14/109/2
f 45/108/2 13/107/2 41/110/2
f 31/111/1 56/112/1 47/113/1
f 56/112/1 31/111/1 35/114/1
f 56/112/1 35/114/1 57/115/1
f 57/115/1 35/114/1 58/116/1
f 59/117/1 47/113/1 56/112/1
f 47/113/1 59/117/1 48/118/1
f 48/118/1 59/117/1 58/116/1
f 48/118/1 58/116/1 35/114/1
f 48/118/1 35/114/1 34/119/1
f 60/120/6 43/121/6 51/122/6
f 43/121/6 60/120/6 42/123/6
f 48/124/4 50/125/4 46/126/4
f 50/125/4 48/124/4 34/127/4
f 50/125/4 34/127/4 51/128/4
f 51/128/4 34/127/4 60/129/4
f 61/130/4 46/126/4 50/125/4
f 46/126/4 61/130/4 27/131/4
f 27/131/4 61/130/4 60/129/4
f 27/131/4 60/129/4 34/127/4
f 22/132/9 20/133/9 29/134/9
f 20/133/9 22/132/9 21/135/9
f 54/136/1 62/137/1 63/138/1
f 62/137/1 54/136/1 55/139/1
f 64/140/2 18/141/2 65/142/2
f 18/141/2 64/140/2 16/143/2
f 16/144/2 64/145/2 66/146/2
f 65/147/4 62/148/4 64/149/4
f 62/148/4 65/147/4 30/150/4
f 62/148/4 30/150/4 63/151/4
f 63/151/4 30/150/4 67/152/4
f 68/153/4 64/149/4 62/148/4
f 64/149/4 68/153/4 25/154/4
f 25/154/4 68/153/4 67/152/4
f 25/154/4 67/152/4 30/150/4
f 49/155/5 31/156/5 47/157/5
f 31/156/5 49/155/5 28/158/5
f 29/159/5 7/160/5 6/161/5
f 7/160/5 29/159/5 20/162/5
f 12/163/1 69/164/1 32/165/1
f 69/164/1 12/163/1 70/166/1
f 70/166/1 12/163/1 71/167/1
f 72/168/1 32/165/1 69/164/1
f 45/169/1 32/165/1 72/168/1
f 32/165/1 45/169/1 33/170/1
f 45/169/1 72/168/1 14/171/1
f 14/171/1 72/168/1 71/167/1
f 14/171/1 71/167/1 12/163/1
f 52/172/2 62/173/2 55/174/2
f 62/173/2 52/172/2 68/175/2
f 68/176/9 53/177/9 67/178/9
f 53/177/9 68/176/9 52/179/9
f 16/180/9 73/181/9 19/182/9
f 73/181/9 16/180/9 66/183/9
f 73/181/9 66/183/9 74/184/9
f 74/184/9 66/183/9 75/185/9
f 76/186/9 19/182/9 73/181/9
f 19/182/9 76/186/9 25/187/9
f 25/187/9 76/186/9 75/185/9
f 25/187/9 75/185/9 66/183/9
f 25/187/9 66/183/9 64/188/9
f 30/189/1 18/190/1 17/191/1
f 18/190/1 30/189/1 65/192/1
f 67/193/6 54/194/6 63/195/6
f 54/194/6 67/193/6 53/196/6
f 61/197/9 42/198/9 60/199/9
f 42/198/9 61/197/9 40/200/9
f 40/201/2 50/202/2 44/203/2
f 50/202/2 40/201/2 61/204/2
f 13/205/9 26/206/9 41/207/9
f 26/206/9 13/205/9 15/208/9
f 75/209/4 58/210/4 74/211/4
f 58/210/4 75/209/4 57/212/4
f 59/213/5 76/214/5 73/215/5
f 76/214/5 59/213/5 56/216/5
f 76/217/6 57/218/6 75/219/6
f 57/218/6 76/217/6 56/220/6
f 58/221/2 73/222/2 74/223/2
f 73/222/2 58/221/2 59/224/2
f 39/225/6 70/226/6 38/227/6
f 70/226/6 39/225/6 69/228/6
f 72/229/5 39/230/5 36/231/5
f 39/230/5 72/229/5 69/232/5
f 71/233/2 36/234/2 37/235/2
f 36/234/2 71/233/2 72/236/2
f 38/237/4 71/238/4 37/239/4
f 71/238/4 38/237/4 70/240/4
