# Blender v2.92.0 OBJ File: 'kenney_OGConvert.blend'
# www.blender.org
o wallWindowStone
v 0.400000 0.750000 -0.110000
v 0.425000 0.750000 -0.055000
v 0.425000 0.750000 -0.110000
v 0.412500 0.750000 -0.055000
v 0.412500 0.750000 0.055000
v 0.400000 0.750000 0.110000
v 0.425000 0.750000 0.110000
v 0.425000 0.750000 0.055000
v 0.500000 0.700000 -0.060000
v 0.400000 0.300000 -0.060000
v 0.500000 0.300000 -0.060000
v 0.400000 0.700000 -0.060000
v 0.412500 0.800000 -0.055000
v 0.412500 0.800000 0.055000
v 0.412500 0.250000 -0.055000
v 0.425000 0.200000 -0.055000
v 0.412500 0.200000 -0.055000
v 0.425000 0.250000 -0.055000
v 0.412500 0.575000 0.110000
v 0.425000 0.575000 0.110000
v 0.412500 0.437500 0.110000
v 0.400000 0.250000 0.110000
v 0.425000 0.437500 0.110000
v 0.425000 0.250000 0.110000
v 0.475000 0.750000 -0.110000
v 0.487500 0.575000 -0.110000
v 0.475000 0.575000 -0.110000
v 0.500000 0.750000 -0.110000
v 0.487500 0.437500 -0.110000
v 0.500000 0.250000 -0.110000
v 0.475000 0.437500 -0.110000
v 0.475000 0.250000 -0.110000
v 0.425000 0.800000 0.055000
v 0.425000 0.800000 -0.055000
v 0.475000 0.800000 -0.055000
v 0.487500 0.750000 -0.055000
v 0.475000 0.750000 -0.055000
v 0.487500 0.800000 -0.055000
v 0.475000 0.575000 -0.160000
v 0.487500 0.437500 -0.160000
v 0.475000 0.437500 -0.160000
v 0.487500 0.575000 -0.160000
v 0.412500 0.575000 -0.160000
v 0.425000 0.575000 -0.110000
v 0.425000 0.575000 -0.160000
v 0.412500 0.575000 -0.110000
v 0.475000 0.800000 0.055000
v 0.487500 0.800000 0.055000
v 0.487500 0.250000 0.055000
v 0.475000 0.200000 0.055000
v 0.487500 0.200000 0.055000
v 0.475000 0.250000 0.055000
v 0.487500 0.200000 -0.055000
v 0.487500 0.250000 -0.055000
v 0.412500 0.437500 0.160000
v 0.412500 0.575000 0.160000
v 0.500000 0.750000 0.110000
v 0.487500 0.425000 0.110000
v 0.500000 0.250000 0.110000
v 0.487500 0.575000 0.110000
v 0.475000 0.575000 0.110000
v 0.475000 0.750000 0.110000
v 0.475000 0.425000 0.110000
v 0.475000 0.250000 0.110000
v 0.400000 0.300000 0.060000
v 0.500000 0.300000 0.060000
v 0.500000 0.700000 0.060000
v 0.425000 0.250000 0.055000
v 0.412500 0.250000 0.055000
v 0.400000 0.250000 -0.110000
v 0.425000 0.250000 -0.110000
v 0.475000 0.250000 -0.055000
v 0.475000 0.200000 -0.055000
v 0.412500 0.425000 -0.110000
v 0.425000 0.425000 -0.110000
v 0.425000 0.575000 0.160000
v 0.412500 0.200000 0.055000
v 0.425000 0.200000 0.055000
v 0.425000 0.437500 0.160000
v 0.425000 0.425000 -0.160000
v 0.412500 0.425000 -0.160000
v 0.400000 0.700000 0.060000
v 0.475000 0.575000 0.160000
v 0.487500 0.575000 0.160000
v 0.487500 0.425000 0.160000
v 0.487500 0.750000 0.055000
v 0.475000 0.750000 0.055000
v 0.475000 0.425000 0.160000
v 0.475000 1.000000 0.400000
v 0.500000 -0.000000 0.400000
v 0.475000 -0.000000 0.400000
v 0.500000 1.000000 0.400000
v 0.425000 1.000000 -0.400000
v 0.400000 0.000000 -0.400000
v 0.425000 0.000000 -0.400000
v 0.400000 1.000000 -0.400000
v 0.400000 -0.000000 0.500000
v 0.400000 1.000000 0.400000
v 0.400000 -0.000000 0.400000
v 0.400000 1.000000 0.500000
v 0.500000 1.000000 -0.400000
v 0.475000 0.000000 -0.400000
v 0.500000 0.000000 -0.400000
v 0.475000 1.000000 -0.400000
v 0.500000 0.000000 -0.500000
v 0.500000 1.000000 -0.500000
v 0.400000 1.000000 -0.500000
v 0.400000 0.000000 -0.500000
v 0.500000 1.000000 0.500000
v 0.425000 1.000000 0.400000
v 0.425000 -0.000000 0.400000
v 0.500000 -0.000000 0.500000
vt 0.840139 0.504097
vt 0.827843 0.531146
vt 0.827843 0.504097
vt 0.833991 0.531146
vt 0.833991 0.585245
vt 0.840139 0.612294
vt 0.827843 0.612294
vt 0.827843 0.585245
vt 0.635236 0.504097
vt 0.684416 0.700819
vt 0.635236 0.700819
vt 0.684417 0.504097
vt 0.028687 0.812293
vt 0.004097 0.758194
vt 0.028687 0.758194
vt 0.004097 0.812293
vt 0.606545 0.776225
vt 0.612693 0.800815
vt 0.606545 0.800815
vt 0.612693 0.776225
vt 0.713101 0.504097
vt 0.719248 0.590163
vt 0.713101 0.590163
vt 0.725396 0.504097
vt 0.719248 0.657786
vt 0.725396 0.750000
vt 0.713100 0.657786
vt 0.713100 0.750000
vt 0.733590 0.504097
vt 0.739738 0.590163
vt 0.733590 0.590163
vt 0.745885 0.504097
vt 0.739738 0.657786
vt 0.745885 0.750000
vt 0.733590 0.657786
vt 0.733590 0.750000
vt 0.202447 0.758194
vt 0.196300 0.812293
vt 0.196300 0.758194
vt 0.202447 0.812293
vt 0.747932 0.758194
vt 0.754080 0.782785
vt 0.747932 0.782785
vt 0.754080 0.758194
vt 0.181958 0.758194
vt 0.188105 0.825818
vt 0.181958 0.825818
vt 0.188105 0.758194
vt 0.782764 0.790979
vt 0.776616 0.815569
vt 0.776616 0.790979
vt 0.782764 0.815569
vt 0.210641 0.758194
vt 0.216789 0.812293
vt 0.210641 0.812293
vt 0.216789 0.758194
vt 0.592203 0.809010
vt 0.598351 0.833600
vt 0.592203 0.833600
vt 0.598351 0.809010
vt 0.094257 0.812293
vt 0.069667 0.758194
vt 0.094257 0.758194
vt 0.069667 0.812293
vt 0.795059 0.735651
vt 0.819649 0.668028
vt 0.819649 0.735651
vt 0.795059 0.668028
vt 0.774569 0.504097
vt 0.780717 0.663934
vt 0.774569 0.750000
vt 0.780717 0.590163
vt 0.786864 0.590163
vt 0.786864 0.504097
vt 0.786864 0.663934
vt 0.786864 0.750000
vt 0.577861 0.709014
vt 0.627041 0.768031
vt 0.577861 0.768030
vt 0.627041 0.709014
vt 0.112294 0.750000
vt 0.087704 0.725410
vt 0.112294 0.504097
vt 0.004097 0.750000
vt 0.028687 0.725410
vt 0.028687 0.528687
vt 0.087704 0.528687
vt 0.004097 0.504097
vt 0.827843 0.728686
vt 0.840139 0.701637
vt 0.840139 0.728686
vt 0.833991 0.701637
vt 0.833991 0.647538
vt 0.827843 0.620489
vt 0.840139 0.620489
vt 0.840139 0.647538
vt 0.577861 0.809010
vt 0.584009 0.833600
vt 0.577861 0.833600
vt 0.584009 0.809010
vt 0.754080 0.504097
vt 0.760227 0.663934
vt 0.754080 0.750000
vt 0.760227 0.590163
vt 0.766375 0.590163
vt 0.766375 0.504097
vt 0.766375 0.663934
vt 0.766375 0.750000
vt 0.641384 0.776225
vt 0.635236 0.800815
vt 0.635236 0.776225
vt 0.641384 0.800815
vt 0.620894 0.776225
vt 0.627041 0.800815
vt 0.620894 0.800815
vt 0.627041 0.776225
vt 0.774569 0.758194
vt 0.780717 0.782785
vt 0.774569 0.782785
vt 0.780717 0.758194
vt 0.713101 0.812293
vt 0.719248 0.758194
vt 0.719248 0.812293
vt 0.713101 0.758194
vt 0.167616 0.758194
vt 0.173763 0.825818
vt 0.167615 0.825818
vt 0.173763 0.758194
vt 0.795059 0.811469
vt 0.819649 0.743845
vt 0.819649 0.811469
vt 0.795059 0.743845
vt 0.649578 0.800815
vt 0.655726 0.776225
vt 0.655726 0.800815
vt 0.649578 0.776225
vt 0.577861 0.504097
vt 0.627042 0.700819
vt 0.577861 0.700819
vt 0.627042 0.504097
vt 0.635236 0.768030
vt 0.684417 0.709014
vt 0.684417 0.768030
vt 0.635236 0.709014
vt 0.795059 0.577868
vt 0.819649 0.504097
vt 0.819649 0.577868
vt 0.795059 0.504097
vt 0.153274 0.758194
vt 0.159421 0.831965
vt 0.153273 0.831965
vt 0.159421 0.758194
vt 0.577861 0.776225
vt 0.584009 0.800815
vt 0.577861 0.800815
vt 0.584009 0.776225
vt 0.606545 0.833600
vt 0.612693 0.809010
vt 0.612693 0.833600
vt 0.606545 0.809010
vt 0.145079 0.812293
vt 0.120489 0.758194
vt 0.145079 0.758194
vt 0.120489 0.812293
vt 0.228686 0.750000
vt 0.204096 0.725410
vt 0.228686 0.504097
vt 0.120489 0.750000
vt 0.145079 0.725410
vt 0.145079 0.528687
vt 0.204096 0.528687
vt 0.120489 0.504097
vt 0.678269 0.776225
vt 0.684417 0.800815
vt 0.678269 0.800815
vt 0.684417 0.776225
vt 0.663920 0.776225
vt 0.670068 0.800815
vt 0.663920 0.800815
vt 0.670068 0.776225
vt 0.795059 0.659833
vt 0.819649 0.586062
vt 0.819649 0.659833
vt 0.795059 0.586062
vt 0.827844 0.736880
vt 0.833991 0.763930
vt 0.833991 0.818028
vt 0.840139 0.736880
vt 0.840139 0.763930
vt 0.827844 0.845078
vt 0.840139 0.845078
vt 0.840139 0.818028
vt 0.747932 0.815569
vt 0.754080 0.790979
vt 0.754080 0.815569
vt 0.747932 0.790979
vt 0.061472 0.812293
vt 0.036882 0.758194
vt 0.061472 0.758194
vt 0.036882 0.812293
vt 0.106147 0.758194
vt 0.112294 0.831965
vt 0.106147 0.831965
vt 0.112294 0.758194
vt 0.733590 0.812293
vt 0.739738 0.758194
vt 0.739738 0.812293
vt 0.733590 0.758194
vt 0.762274 0.815569
vt 0.768422 0.790979
vt 0.768422 0.815569
vt 0.762274 0.790979
vt 0.860628 0.612294
vt 0.854481 0.585245
vt 0.860628 0.504097
vt 0.848333 0.612294
vt 0.848333 0.585245
vt 0.854481 0.531147
vt 0.848333 0.504097
vt 0.848333 0.531147
vt 0.592203 0.776225
vt 0.598351 0.800815
vt 0.592203 0.800815
vt 0.598351 0.776225
vt 0.692611 0.504097
vt 0.704906 0.995903
vt 0.692611 0.995903
vt 0.704906 0.504097
vt 0.979500 0.004097
vt 0.991795 0.495903
vt 0.979500 0.495903
vt 0.991795 0.004097
vt 0.405736 0.995903
vt 0.454917 0.504097
vt 0.454917 0.995903
vt 0.405736 0.504097
vt 0.294255 0.504097
vt 0.306551 0.995903
vt 0.294255 0.995903
vt 0.306551 0.504097
vt 0.348361 0.995903
vt 0.397542 0.504097
vt 0.397542 0.995903
vt 0.348361 0.504097
vt 0.856556 0.004097
vt 0.807375 0.053278
vt 0.807375 0.004097
vt 0.819670 0.053278
vt 0.844260 0.053278
vt 0.856556 0.053278
vt 0.463111 0.995903
vt 0.512292 0.504097
vt 0.512292 0.995903
vt 0.463111 0.504097
vt 0.236881 0.504097
vt 0.286061 0.995903
vt 0.236880 0.995903
vt 0.286061 0.504097
vt 0.901635 0.053278
vt 0.913931 0.004097
vt 0.913931 0.053278
vt 0.864750 0.004097
vt 0.877045 0.053278
vt 0.864750 0.053278
vt 0.819670 0.446722
vt 0.807375 0.495903
vt 0.807375 0.446722
vt 0.856556 0.495903
vt 0.844260 0.446722
vt 0.856556 0.446722
vt 0.327872 0.504097
vt 0.340167 0.995903
vt 0.327872 0.995903
vt 0.340167 0.504097
vt 0.520486 0.995903
vt 0.569667 0.504097
vt 0.569667 0.995903
vt 0.520486 0.504097
vt 0.864750 0.495903
vt 0.913931 0.446722
vt 0.913931 0.495903
vt 0.901635 0.446722
vt 0.877045 0.446722
vt 0.864750 0.446722
vt 0.922125 0.004097
vt 0.971305 0.495903
vt 0.922125 0.495903
vt 0.971306 0.004097
vt 0.146721 0.127049
vt 0.173770 0.102458
vt 0.173770 0.127049
vt 0.004097 0.004097
vt 0.227869 0.102458
vt 0.397542 0.004097
vt 0.254918 0.127049
vt 0.279508 0.219262
vt 0.279508 0.286885
vt 0.254918 0.372951
vt 0.397542 0.495903
vt 0.227869 0.397542
vt 0.004097 0.495903
vt 0.173770 0.397542
vt 0.173770 0.372951
vt 0.146721 0.372951
vt 0.146721 0.286885
vt 0.122131 0.286885
vt 0.122131 0.213115
vt 0.254918 0.219262
vt 0.227869 0.127049
vt 0.227869 0.372951
vt 0.254918 0.286885
vt 0.146721 0.213115
vt 0.548360 0.127049
vt 0.575409 0.102458
vt 0.575409 0.127049
vt 0.405736 0.004097
vt 0.629508 0.102458
vt 0.799181 0.004097
vt 0.656557 0.127049
vt 0.681147 0.213115
vt 0.681147 0.286885
vt 0.656557 0.372951
vt 0.799181 0.495903
vt 0.629508 0.397542
vt 0.405736 0.495903
vt 0.575409 0.397542
vt 0.575409 0.372951
vt 0.548360 0.372951
vt 0.548360 0.280738
vt 0.523769 0.280738
vt 0.523769 0.213115
vt 0.656557 0.213115
vt 0.629508 0.127049
vt 0.629508 0.372951
vt 0.656557 0.286885
vt 0.548360 0.213115
vn 0.0000 1.0000 0.0000
vn 0.0000 -0.0000 1.0000
vn -1.0000 -0.0000 0.0000
vn -0.0000 0.0000 -1.0000
vn 1.0000 0.0000 0.0000
vn 0.0000 -1.0000 0.0000
s 1
f 1/1/1 2/2/1 3/3/1
f 2/2/1 1/1/1 4/4/1
f 4/4/1 1/1/1 5/5/1
f 6/6/1 5/5/1 1/1/1
f 7/7/1 5/5/1 6/6/1
f 5/5/1 7/7/1 8/8/1
f 9/9/2 10/10/2 11/11/2
f 10/10/2 9/9/2 12/12/2
f 5/13/3 13/14/3 4/15/3
f 13/14/3 5/13/3 14/16/3
f 15/17/4 16/18/4 17/19/4
f 16/18/4 15/17/4 18/20/4
f 7/21/2 19/22/2 20/23/2
f 6/24/2 19/22/2 7/21/2
f 6/24/2 21/25/2 19/22/2
f 22/26/2 21/25/2 6/24/2
f 22/26/2 23/27/2 21/25/2
f 23/27/2 22/26/2 24/28/2
f 25/29/4 26/30/4 27/31/4
f 28/32/4 26/30/4 25/29/4
f 28/32/4 29/33/4 26/30/4
f 30/34/4 29/33/4 28/32/4
f 30/34/4 31/35/4 29/33/4
f 31/35/4 30/34/4 32/36/4
f 13/37/1 33/38/1 34/39/1
f 33/38/1 13/37/1 14/40/1
f 35/41/4 36/42/4 37/43/4
f 36/42/4 35/41/4 38/44/4
f 39/45/4 40/46/4 41/47/4
f 40/46/4 39/45/4 42/48/4
f 43/49/1 44/50/1 45/51/1
f 44/50/1 43/49/1 46/52/1
f 38/53/1 47/54/1 48/55/1
f 47/54/1 38/53/1 35/56/1
f 49/57/2 50/58/2 51/59/2
f 50/58/2 49/57/2 52/60/2
f 49/61/5 53/62/5 54/63/5
f 53/62/5 49/61/5 51/64/5
f 55/65/3 19/66/3 21/67/3
f 19/66/3 55/65/3 56/68/3
f 57/69/2 58/70/2 59/71/2
f 58/70/2 57/69/2 60/72/2
f 60/72/2 57/69/2 61/73/2
f 61/73/2 57/69/2 62/74/2
f 63/75/2 59/71/2 58/70/2
f 59/71/2 63/75/2 64/76/2
f 11/77/1 65/78/1 66/79/1
f 65/78/1 11/77/1 10/80/1
f 28/81/5 9/82/5 30/83/5
f 9/82/5 28/81/5 57/84/5
f 9/82/5 57/84/5 67/85/5
f 67/85/5 57/84/5 66/86/5
f 11/87/5 30/83/5 9/82/5
f 30/83/5 11/87/5 59/88/5
f 59/88/5 11/87/5 66/86/5
f 59/88/5 66/86/5 57/84/5
f 22/89/6 68/90/6 24/91/6
f 68/90/6 22/89/6 69/92/6
f 69/92/6 22/89/6 15/93/6
f 70/94/6 15/93/6 22/89/6
f 71/95/6 15/93/6 70/94/6
f 15/93/6 71/95/6 18/96/6
f 72/97/4 53/98/4 73/99/4
f 53/98/4 72/97/4 54/100/4
f 1/101/4 74/102/4 70/103/4
f 74/102/4 1/101/4 46/104/4
f 46/104/4 1/101/4 44/105/4
f 44/105/4 1/101/4 3/106/4
f 75/107/4 70/103/4 74/102/4
f 70/103/4 75/107/4 71/108/4
f 19/109/1 76/110/1 20/111/1
f 76/110/1 19/109/1 56/112/1
f 68/113/2 77/114/2 78/115/2
f 77/114/2 68/113/2 69/116/2
f 33/117/2 5/118/2 8/119/2
f 5/118/2 33/117/2 14/120/2
f 77/121/6 16/122/6 78/123/6
f 16/122/6 77/121/6 17/124/6
f 76/125/2 55/126/2 79/127/2
f 55/126/2 76/125/2 56/128/2
f 26/129/5 40/130/5 42/131/5
f 40/130/5 26/129/5 29/132/5
f 74/133/6 80/134/6 75/135/6
f 80/134/6 74/133/6 81/136/6
f 82/137/4 66/138/4 65/139/4
f 66/138/4 82/137/4 67/140/4
f 82/141/6 9/142/6 67/143/6
f 9/142/6 82/141/6 12/144/6
f 74/145/3 43/146/3 81/147/3
f 43/146/3 74/145/3 46/148/3
f 43/149/4 80/150/4 81/151/4
f 80/150/4 43/149/4 45/152/4
f 13/153/4 2/154/4 4/155/4
f 2/154/4 13/153/4 34/156/4
f 55/157/6 23/158/6 79/159/6
f 23/158/6 55/157/6 21/160/6
f 77/161/3 15/162/3 17/163/3
f 15/162/3 77/161/3 69/164/3
f 70/165/3 10/166/3 1/167/3
f 10/166/3 70/165/3 22/168/3
f 10/166/3 22/168/3 65/169/3
f 65/169/3 22/168/3 82/170/3
f 12/171/3 1/167/3 10/166/3
f 1/167/3 12/171/3 6/172/3
f 6/172/3 12/171/3 82/170/3
f 6/172/3 82/170/3 22/168/3
f 42/173/1 27/174/1 26/175/1
f 27/174/1 42/173/1 39/176/1
f 60/177/1 83/178/1 84/179/1
f 83/178/1 60/177/1 61/180/1
f 84/181/5 58/182/5 60/183/5
f 58/182/5 84/181/5 85/184/5
f 28/185/1 36/186/1 86/187/1
f 36/186/1 28/185/1 25/188/1
f 36/186/1 25/188/1 37/189/1
f 86/187/1 57/190/1 28/185/1
f 57/190/1 86/187/1 62/191/1
f 62/191/1 86/187/1 87/192/1
f 31/193/6 40/194/6 29/195/6
f 40/194/6 31/193/6 41/196/6
f 48/197/5 36/198/5 38/199/5
f 36/198/5 48/197/5 86/200/5
f 84/201/2 88/202/2 85/203/2
f 88/202/2 84/201/2 83/204/2
f 50/205/6 53/206/6 51/207/6
f 53/206/6 50/205/6 73/208/6
f 88/209/6 58/210/6 85/211/6
f 58/210/6 88/209/6 63/212/6
f 59/213/6 49/214/6 30/215/6
f 49/214/6 59/213/6 64/216/6
f 49/214/6 64/216/6 52/217/6
f 54/218/6 30/215/6 49/214/6
f 30/215/6 54/218/6 32/219/6
f 32/219/6 54/218/6 72/220/6
f 48/221/2 87/222/2 86/223/2
f 87/222/2 48/221/2 47/224/2
f 89/225/4 90/226/4 91/227/4
f 90/226/4 89/225/4 92/228/4
f 93/229/2 94/230/2 95/231/2
f 94/230/2 93/229/2 96/232/2
f 97/233/3 98/234/3 99/235/3
f 98/234/3 97/233/3 100/236/3
f 101/237/2 102/238/2 103/239/2
f 102/238/2 101/237/2 104/240/2
f 101/241/5 105/242/5 106/243/5
f 105/242/5 101/241/5 103/244/5
f 107/245/1 101/246/1 106/247/1
f 101/246/1 107/245/1 104/248/1
f 104/248/1 107/245/1 93/249/1
f 93/249/1 107/245/1 96/250/1
f 94/251/3 107/252/3 108/253/3
f 107/252/3 94/251/3 96/254/3
f 107/255/4 105/256/4 108/257/4
f 105/256/4 107/255/4 106/258/4
f 102/259/6 105/260/6 103/261/6
f 105/260/6 102/259/6 108/262/6
f 108/262/6 102/259/6 95/263/6
f 108/262/6 95/263/6 94/264/6
f 89/265/1 109/266/1 92/267/1
f 109/266/1 89/265/1 100/268/1
f 100/268/1 89/265/1 110/269/1
f 100/268/1 110/269/1 98/270/1
f 98/271/4 111/272/4 99/273/4
f 111/272/4 98/271/4 110/274/4
f 109/275/5 90/276/5 92/277/5
f 90/276/5 109/275/5 112/278/5
f 97/279/6 90/280/6 112/281/6
f 90/280/6 97/279/6 91/282/6
f 91/282/6 97/279/6 111/283/6
f 111/283/6 97/279/6 99/284/6
f 109/285/2 97/286/2 112/287/2
f 97/286/2 109/285/2 100/288/2
f 111/283/6 102/259/6 91/282/6
f 102/259/6 111/283/6 95/263/6
f 64/289/5 50/290/5 52/291/5
f 91/292/5 50/290/5 64/289/5
f 91/292/5 73/293/5 50/290/5
f 102/294/5 73/293/5 91/292/5
f 73/293/5 102/294/5 32/295/5
f 32/295/5 102/294/5 41/296/5
f 41/296/5 102/294/5 39/297/5
f 102/294/5 25/298/5 39/297/5
f 104/299/5 25/298/5 102/294/5
f 25/298/5 104/299/5 35/300/5
f 35/300/5 104/299/5 89/301/5
f 35/300/5 89/301/5 47/302/5
f 47/302/5 89/301/5 87/303/5
f 87/303/5 89/301/5 62/304/5
f 62/304/5 89/301/5 61/305/5
f 61/305/5 89/301/5 83/306/5
f 83/306/5 89/301/5 88/307/5
f 91/292/5 88/307/5 89/301/5
f 32/295/5 41/296/5 31/308/5
f 73/293/5 32/295/5 72/309/5
f 37/310/5 25/298/5 35/300/5
f 27/311/5 39/297/5 25/298/5
f 88/307/5 64/289/5 63/312/5
f 91/292/5 64/289/5 88/307/5
f 7/313/3 33/314/3 8/315/3
f 110/316/3 33/314/3 7/313/3
f 110/316/3 34/317/3 33/314/3
f 93/318/3 34/317/3 110/316/3
f 34/317/3 93/318/3 3/319/3
f 3/319/3 93/318/3 45/320/3
f 45/320/3 93/318/3 80/321/3
f 93/318/3 71/322/3 80/321/3
f 95/323/3 71/322/3 93/318/3
f 71/322/3 95/323/3 16/324/3
f 16/324/3 95/323/3 111/325/3
f 16/324/3 111/325/3 78/326/3
f 78/326/3 111/325/3 68/327/3
f 68/327/3 111/325/3 24/328/3
f 24/328/3 111/325/3 23/329/3
f 23/329/3 111/325/3 79/330/3
f 79/330/3 111/325/3 76/331/3
f 110/316/3 76/331/3 111/325/3
f 3/319/3 45/320/3 44/332/3
f 34/317/3 3/319/3 2/333/3
f 18/334/3 71/322/3 16/324/3
f 75/335/3 80/321/3 71/322/3
f 76/331/3 7/313/3 20/336/3
f 110/316/3 7/313/3 76/331/3
f 93/249/1 89/265/1 104/248/1
f 89/265/1 93/249/1 110/269/1
