# Blender v2.92.0 OBJ File: 'kenney_OGConvert.blend'
# www.blender.org
o wallDoorwaySquareWideCurved
v 0.475000 0.000000 -0.400000
v 0.500000 0.000000 -0.500000
v 0.500000 0.000000 -0.400000
v 0.400000 0.000000 -0.500000
v 0.425000 0.000000 -0.400000
v 0.400000 0.000000 -0.400000
v 0.400000 1.000000 -0.500000
v 0.400000 1.000000 -0.400000
v 0.425000 1.000000 -0.400000
v 0.500000 1.000000 -0.400000
v 0.475000 1.000000 -0.400000
v 0.500000 1.000000 -0.500000
v 0.400000 0.823205 -0.200000
v 0.425000 0.834776 -0.176537
v 0.425000 0.823205 -0.200000
v 0.400000 0.834776 -0.176537
v 0.400000 0.843185 -0.151764
v 0.425000 0.848289 -0.126105
v 0.425000 0.843185 -0.151764
v 0.400000 0.848289 -0.126105
v 0.400000 0.000000 -0.200000
v 0.400000 0.650000 -0.300000
v 0.400000 0.000000 -0.300000
v 0.400000 0.676105 -0.298289
v 0.400000 0.701764 -0.293185
v 0.400000 0.726537 -0.284776
v 0.400000 0.750000 -0.273205
v 0.400000 0.771752 -0.258671
v 0.400000 0.791421 -0.241421
v 0.400000 0.808671 -0.221752
v 0.400000 0.650000 -0.200000
v 0.400000 0.663053 -0.199145
v 0.400000 0.675882 -0.196593
v 0.400000 0.688268 -0.192388
v 0.400000 0.700000 -0.186603
v 0.400000 0.710876 -0.179335
v 0.400000 0.720711 -0.170711
v 0.400000 0.729335 -0.160876
v 0.400000 0.736602 -0.150000
v 0.400000 0.742388 -0.138268
v 0.400000 0.746593 -0.125882
v 0.400000 0.850000 -0.100000
v 0.400000 0.749144 -0.113053
v 0.400000 0.750000 -0.100000
v 0.400000 0.750000 0.500000
v 0.400000 0.850000 0.500000
v 0.475000 0.771752 -0.258671
v 0.500000 0.750000 -0.273205
v 0.475000 0.750000 -0.273205
v 0.500000 0.771752 -0.258671
v 0.500000 0.823205 -0.200000
v 0.500000 0.663053 -0.199145
v 0.500000 0.650000 -0.200000
v 0.500000 0.834776 -0.176537
v 0.500000 0.675882 -0.196593
v 0.500000 0.688268 -0.192388
v 0.500000 0.700000 -0.186603
v 0.500000 0.710876 -0.179335
v 0.500000 0.720711 -0.170711
v 0.500000 0.843185 -0.151764
v 0.500000 0.729335 -0.160876
v 0.500000 0.736602 -0.150000
v 0.500000 0.848289 -0.126105
v 0.500000 0.742388 -0.138268
v 0.500000 0.746593 -0.125882
v 0.500000 0.850000 -0.100000
v 0.500000 0.749144 -0.113053
v 0.500000 0.750000 -0.100000
v 0.500000 0.850000 0.500000
v 0.500000 0.750000 0.500000
v 0.500000 0.676105 -0.298289
v 0.500000 0.000000 -0.300000
v 0.500000 0.650000 -0.300000
v 0.500000 0.000000 -0.200000
v 0.500000 0.701764 -0.293185
v 0.500000 0.726537 -0.284776
v 0.500000 0.791421 -0.241421
v 0.500000 0.808671 -0.221752
v 0.425000 0.701764 -0.293185
v 0.425000 0.726537 -0.284776
v 0.425000 0.750000 -0.273205
v 0.425000 0.808671 -0.221752
v 0.425000 0.791421 -0.241421
v 0.475000 0.676105 -0.298289
v 0.475000 0.650000 -0.300000
v 0.425000 0.000000 -0.300000
v 0.425000 0.650000 -0.300000
v 0.425000 0.676105 -0.298289
v 0.475000 0.726537 -0.284776
v 0.475000 0.843185 -0.151764
v 0.475000 0.848289 -0.126105
v 0.425000 0.850000 -0.100000
v 0.425000 0.850000 0.500000
v 0.475000 0.701764 -0.293185
v 0.425000 0.771752 -0.258671
v 0.475000 0.850000 0.500000
v 0.475000 0.850000 -0.100000
v 0.475000 0.000000 -0.300000
v 0.475000 0.823205 -0.200000
v 0.475000 0.834776 -0.176537
v 0.475000 0.808671 -0.221752
v 0.475000 0.791421 -0.241421
v 0.475000 1.000000 0.500000
v 0.425000 1.000000 0.500000
vt 0.601766 0.552006
vt 0.614124 0.502841
vt 0.614124 0.552006
vt 0.564692 0.502841
vt 0.577050 0.552006
vt 0.564692 0.552006
vt 0.197937 0.997159
vt 0.247369 0.502841
vt 0.247369 0.997159
vt 0.197937 0.502841
vt 0.540972 0.990671
vt 0.528614 0.502841
vt 0.540972 0.502841
vt 0.528614 0.990671
vt 0.559011 0.990671
vt 0.546653 0.502841
vt 0.559011 0.502841
vt 0.546653 0.990671
vt 0.903977 0.277469
vt 0.953409 0.250007
vt 0.953409 0.277469
vt 0.941051 0.250007
vt 0.916335 0.250007
vt 0.903977 0.250007
vt 0.253050 0.997159
vt 0.302482 0.502841
vt 0.302482 0.997159
vt 0.253050 0.502841
vt 0.953409 0.688481
vt 0.903977 0.688481
vt 0.971448 0.368650
vt 0.959090 0.379849
vt 0.959090 0.368650
vt 0.971448 0.379849
vt 0.971448 0.390109
vt 0.959090 0.399253
vt 0.959090 0.390109
vt 0.971448 0.399253
vt 0.363276 0.909766
vt 0.412707 0.588459
vt 0.412707 0.909766
vt 0.411862 0.575555
vt 0.409339 0.562871
vt 0.405182 0.550626
vt 0.399462 0.539027
vt 0.392278 0.528275
vt 0.383751 0.518552
vt 0.374028 0.510025
vt 0.363276 0.502840
vt 0.619805 0.636809
vt 0.619805 0.636809
vt 0.619805 0.636809
vt 0.009950 0.514949
vt 0.094708 0.502841
vt 0.088380 0.504172
vt 0.005928 0.527240
vt 0.082280 0.506317
vt 0.076513 0.509241
vt 0.071177 0.512892
vt 0.066362 0.517209
vt 0.062153 0.522116
vt 0.003544 0.539950
vt 0.058620 0.527532
vt 0.055824 0.533362
vt 0.002841 0.552863
vt 0.053813 0.539508
vt 0.052621 0.545863
vt 0.003828 0.565757
vt 0.052269 0.552319
vt 0.052763 0.558766
vt 0.094708 0.852377
vt 0.045773 0.859367
vt 0.989486 0.331390
vt 0.977129 0.318458
vt 0.989486 0.318458
vt 0.977129 0.331390
vt 0.107498 0.847259
vt 0.185928 0.858036
vt 0.192256 0.859367
vt 0.103476 0.834969
vt 0.179829 0.855891
vt 0.174061 0.852967
vt 0.168725 0.849316
vt 0.163911 0.845000
vt 0.159701 0.840092
vt 0.101093 0.822258
vt 0.156168 0.834676
vt 0.153372 0.828846
vt 0.100389 0.809345
vt 0.151361 0.822701
vt 0.150169 0.816345
vt 0.101376 0.796451
vt 0.149818 0.809889
vt 0.150311 0.803442
vt 0.143321 0.502841
vt 0.192256 0.509831
vt 0.309008 0.575555
vt 0.308163 0.909766
vt 0.308163 0.588459
vt 0.357595 0.909766
vt 0.311531 0.562871
vt 0.315688 0.550626
vt 0.321408 0.539027
vt 0.328593 0.528275
vt 0.337119 0.518552
vt 0.346842 0.510025
vt 0.357595 0.502840
vt 0.625486 0.636809
vt 0.625486 0.636809
vt 0.625486 0.636809
vt 0.971448 0.305636
vt 0.959090 0.293145
vt 0.971448 0.293145
vt 0.959090 0.305636
vt 0.971448 0.318458
vt 0.959090 0.318458
vt 0.971448 0.344211
vt 0.959090 0.356702
vt 0.959090 0.344211
vt 0.971448 0.356702
vt 0.989486 0.281197
vt 0.977129 0.269998
vt 0.989486 0.269998
vt 0.977129 0.281197
vt 0.467820 0.819930
vt 0.418389 0.502841
vt 0.467820 0.502841
vt 0.418388 0.819930
vt 0.473501 0.532646
vt 0.522933 0.526208
vt 0.522933 0.532646
vt 0.473501 0.526208
vt 0.971448 0.269998
vt 0.959090 0.002841
vt 0.971448 0.002841
vt 0.959090 0.269998
vt 0.473501 0.519902
vt 0.522933 0.513838
vt 0.522933 0.519902
vt 0.473501 0.513838
vt 0.467820 0.856763
vt 0.418388 0.851277
vt 0.467820 0.851277
vt 0.418388 0.856763
vt 0.467820 0.832828
vt 0.418388 0.826366
vt 0.467820 0.826366
vt 0.418388 0.832828
vt 0.522933 0.508118
vt 0.473501 0.508118
vt 0.959090 0.281197
vt 0.971448 0.281197
vt 0.977129 0.305636
vt 0.989486 0.305636
vt 0.989486 0.390109
vt 0.977129 0.399253
vt 0.977129 0.390109
vt 0.989486 0.399253
vt 0.959090 0.407126
vt 0.971448 0.571903
vt 0.959090 0.571903
vt 0.971448 0.407126
vt 0.977129 0.293145
vt 0.989486 0.293145
vt 0.522933 0.502841
vt 0.473501 0.502841
vt 0.418388 0.845391
vt 0.467820 0.845391
vt 0.971448 0.331390
vt 0.959090 0.331390
vt 0.473501 0.834099
vt 0.522933 0.539107
vt 0.522933 0.834099
vt 0.473501 0.539107
vt 0.977129 0.407126
vt 0.989486 0.571903
vt 0.977129 0.571903
vt 0.989486 0.407126
vt 0.467820 0.839206
vt 0.418388 0.839206
vt 0.989486 0.002841
vt 0.977129 0.002841
vt 0.989486 0.368650
vt 0.977129 0.379849
vt 0.977129 0.368650
vt 0.989486 0.379849
vt 0.989486 0.356702
vt 0.977129 0.356702
vt 0.989486 0.344211
vt 0.977129 0.344211
vt 0.644521 0.631128
vt 0.619805 0.557953
vt 0.644521 0.557953
vt 0.619805 0.631128
vt 0.631167 0.636809
vt 0.631167 0.636809
vt 0.631167 0.636809
vt 0.636848 0.636809
vt 0.636848 0.636809
vt 0.636848 0.636809
vt 0.668588 0.502841
vt 0.619805 0.552272
vt 0.619805 0.502841
vt 0.668588 0.552272
vt 0.898296 0.497159
vt 0.848018 0.337052
vt 0.898296 0.002841
vt 0.845495 0.349736
vt 0.841338 0.361981
vt 0.835618 0.373580
vt 0.828434 0.384332
vt 0.819907 0.394055
vt 0.810184 0.402582
vt 0.799432 0.409766
vt 0.787833 0.415486
vt 0.775588 0.419643
vt 0.453409 0.497159
vt 0.848864 0.324148
vt 0.762904 0.422166
vt 0.750000 0.423012
vt 0.453409 0.423012
vt 0.848864 0.002841
vt 0.941051 0.002841
vt 0.916335 0.002841
vt 0.052272 0.002841
vt 0.002841 0.497159
vt 0.002841 0.002841
vt 0.052272 0.324148
vt 0.053118 0.337052
vt 0.055641 0.349736
vt 0.059798 0.361981
vt 0.065518 0.373580
vt 0.072702 0.384332
vt 0.081229 0.394055
vt 0.090952 0.402582
vt 0.101704 0.409766
vt 0.113303 0.415486
vt 0.125548 0.419643
vt 0.447728 0.497159
vt 0.138232 0.422166
vt 0.151136 0.423012
vt 0.447728 0.423012
vt 0.614124 0.650337
vt 0.601766 0.601171
vt 0.614124 0.601171
vt 0.564692 0.650337
vt 0.577050 0.601171
vt 0.564692 0.601171
vn -0.0000 -1.0000 -0.0000
vn -1.0000 0.0000 0.0000
vn 0.0000 -0.0000 1.0000
vn 0.0000 1.0000 0.0000
vn 1.0000 -0.0000 -0.0000
vn -0.0000 0.0000 -1.0000
vn -0.0000 0.8660 -0.5000
vn -0.0000 0.9239 -0.3827
vn -0.0000 0.9659 -0.2588
vn -0.0000 0.9914 -0.1305
vn -0.0010 -0.0334 0.9994
vn 0.0000 0.6088 -0.7934
vn 0.0000 0.5000 -0.8660
vn -0.0010 0.0320 -0.9995
vn 0.0000 0.3827 -0.9239
vn 0.0000 0.2588 -0.9659
vn -0.0000 0.7071 -0.7071
vn -0.0000 0.7934 -0.6088
vn 0.0000 0.1305 -0.9914
vn 0.0000 0.0327 -0.9995
vn 0.0000 -0.0327 0.9995
vn 0.0000 -0.9914 0.1305
vn 0.0000 -0.9659 0.2588
vn 0.0000 -0.9239 0.3827
vn 0.0000 -0.8660 0.5000
vn 0.0000 -0.7071 0.7071
vn 0.0000 -0.6088 0.7934
vn 0.0000 -0.2588 0.9659
vn 0.0000 -0.1305 0.9914
vn 0.0000 -0.7934 0.6088
vn 0.0000 0.9995 -0.0327
vn 0.0000 -0.5000 0.8660
vn 0.0000 -0.9995 0.0327
vn 0.0000 -0.3827 0.9239
vn 0.0000 -0.8944 0.4472
vn 0.1835 -0.8792 -0.4396
s 1
f 1/1/1 2/2/1 3/3/1
f 2/2/1 1/1/1 4/4/1
f 4/4/1 1/1/1 5/5/1
f 4/4/1 5/5/1 6/6/1
f 6/7/2 7/8/2 4/9/2
f 7/8/2 6/7/2 8/10/2
f 9/11/3 6/12/3 5/13/3
f 6/12/3 9/11/3 8/14/3
f 10/15/3 1/16/3 3/17/3
f 1/16/3 10/15/3 11/18/3
f 7/19/4 10/20/4 12/21/4
f 10/20/4 7/19/4 11/22/4
f 11/22/4 7/19/4 9/23/4
f 9/23/4 7/19/4 8/24/4
f 10/25/5 2/26/5 12/27/5
f 2/26/5 10/25/5 3/28/5
f 7/19/6 2/29/6 4/30/6
f 2/29/6 7/19/6 12/21/6
f 13/31/7 14/32/8 15/33/7
f 14/32/8 13/31/7 16/34/8
f 17/35/9 18/36/10 19/37/9
f 18/36/10 17/35/9 20/38/10
f 21/39/2 22/40/2 23/41/2
f 22/40/2 21/39/2 24/42/2
f 24/42/2 21/39/2 25/43/2
f 25/43/2 21/39/2 26/44/2
f 26/44/2 21/39/2 27/45/2
f 27/45/2 21/39/2 28/46/2
f 28/46/2 21/39/2 29/47/2
f 29/47/2 21/39/2 30/48/2
f 30/48/2 21/39/2 13/49/2
f 13/50/2 21/51/2 31/52/11
f 13/53/2 31/54/11 32/55/2
f 13/53/2 32/55/2 16/56/2
f 16/56/2 32/55/2 33/57/2
f 16/56/2 33/57/2 34/58/2
f 16/56/2 34/58/2 35/59/2
f 16/56/2 35/59/2 36/60/2
f 16/56/2 36/60/2 37/61/2
f 16/56/2 37/61/2 17/62/2
f 17/62/2 37/61/2 38/63/2
f 17/62/2 38/63/2 39/64/2
f 17/62/2 39/64/2 20/65/2
f 20/65/2 39/64/2 40/66/2
f 20/65/2 40/66/2 41/67/2
f 20/65/2 41/67/2 42/68/2
f 42/68/2 41/67/2 43/69/2
f 42/68/2 43/69/2 44/70/2
f 42/68/2 44/70/2 45/71/2
f 42/68/2 45/71/2 46/72/2
f 47/73/12 48/74/13 49/75/13
f 48/74/13 47/73/12 50/76/12
f 51/77/5 52/78/5 53/79/14
f 52/78/5 51/77/5 54/80/5
f 52/78/5 54/80/5 55/81/5
f 55/81/5 54/80/5 56/82/5
f 56/82/5 54/80/5 57/83/5
f 57/83/5 54/80/5 58/84/5
f 58/84/5 54/80/5 59/85/5
f 59/85/5 54/80/5 60/86/5
f 59/85/5 60/86/5 61/87/5
f 61/87/5 60/86/5 62/88/5
f 62/88/5 60/86/5 63/89/5
f 62/88/5 63/89/5 64/90/5
f 64/90/5 63/89/5 65/91/5
f 65/91/5 63/89/5 66/92/5
f 65/91/5 66/92/5 67/93/5
f 67/93/5 66/92/5 68/94/5
f 68/94/5 66/92/5 69/95/5
f 68/94/5 69/95/5 70/96/5
f 71/97/5 72/98/5 73/99/5
f 72/98/5 71/97/5 74/100/5
f 74/100/5 71/97/5 75/101/5
f 74/100/5 75/101/5 76/102/5
f 74/100/5 76/102/5 48/103/5
f 74/100/5 48/103/5 50/104/5
f 74/100/5 50/104/5 77/105/5
f 74/100/5 77/105/5 78/106/5
f 74/100/5 78/106/5 51/107/5
f 74/108/5 51/109/5 53/110/14
f 26/111/15 79/112/16 25/113/16
f 79/112/16 26/111/15 80/114/15
f 27/115/13 80/114/15 26/111/15
f 80/114/15 27/115/13 81/116/13
f 29/117/17 82/118/18 83/119/17
f 82/118/18 29/117/17 30/120/18
f 84/121/19 73/122/20 85/123/20
f 73/122/20 84/121/19 71/124/19
f 53/125/21 21/126/3 74/127/3
f 21/126/3 53/125/21 31/128/21
f 43/129/22 65/130/23 67/131/22
f 65/130/23 43/129/22 41/132/23
f 22/133/20 86/134/6 23/135/6
f 86/134/6 22/133/20 87/136/20
f 40/137/24 62/138/25 64/139/24
f 62/138/25 40/137/24 39/140/25
f 59/141/26 36/142/27 58/143/27
f 36/142/27 59/141/26 37/144/26
f 55/145/28 32/146/29 52/147/29
f 32/146/29 55/145/28 33/148/28
f 39/140/25 61/149/30 62/138/25
f 61/149/30 39/140/25 38/150/30
f 25/113/16 88/151/19 24/152/19
f 88/151/19 25/113/16 79/112/16
f 49/75/13 76/153/15 89/154/15
f 76/153/15 49/75/13 48/74/13
f 90/155/9 63/156/10 60/157/9
f 63/156/10 90/155/9 91/158/10
f 92/159/31 46/160/4 93/161/4
f 46/160/4 92/159/31 42/162/31
f 52/147/29 31/128/21 53/125/21
f 31/128/21 52/147/29 32/146/29
f 89/154/15 75/163/16 94/164/16
f 75/163/16 89/154/15 76/153/15
f 38/150/30 59/165/26 61/149/30
f 59/165/26 38/150/30 37/166/26
f 58/143/27 35/167/32 57/168/32
f 35/167/32 58/143/27 36/142/27
f 28/169/12 81/116/13 27/115/13
f 81/116/13 28/169/12 95/170/12
f 45/171/1 68/172/33 70/173/1
f 68/172/33 45/171/1 44/174/33
f 66/175/31 96/176/4 69/177/4
f 96/176/4 66/175/31 97/178/31
f 56/179/34 33/148/28 55/145/28
f 33/148/28 56/179/34 34/180/34
f 57/168/32 34/180/34 56/179/34
f 34/180/34 57/168/32 35/167/32
f 30/120/18 15/33/7 82/118/18
f 15/33/7 30/120/18 13/31/7
f 16/34/8 19/37/9 14/32/8
f 19/37/9 16/34/8 17/35/9
f 65/130/23 40/137/24 64/139/24
f 40/137/24 65/130/23 41/132/23
f 24/152/19 87/136/20 22/133/20
f 87/136/20 24/152/19 88/151/19
f 91/158/10 66/175/31 63/156/10
f 66/175/31 91/158/10 97/178/31
f 98/181/6 73/122/20 72/182/6
f 73/122/20 98/181/6 85/123/20
f 99/183/7 54/184/8 51/185/7
f 54/184/8 99/183/7 100/186/8
f 44/174/33 67/131/22 68/172/33
f 67/131/22 44/174/33 43/129/22
f 101/187/18 51/185/7 78/188/18
f 51/185/7 101/187/18 99/183/7
f 102/189/17 78/188/18 77/190/17
f 78/188/18 102/189/17 101/187/18
f 102/189/17 50/76/12 47/73/12
f 50/76/12 102/189/17 77/190/17
f 20/38/10 92/159/31 18/36/10
f 92/159/31 20/38/10 42/162/31
f 94/164/16 71/124/19 84/121/19
f 71/124/19 94/164/16 75/163/16
f 29/117/17 95/170/12 28/169/12
f 95/170/12 29/117/17 83/119/17
f 100/186/8 60/157/9 54/184/8
f 60/157/9 100/186/8 90/155/9
f 103/191/3 93/192/35 96/193/36
f 93/192/35 103/191/3 104/194/3
f 46/195/3 96/196/36 93/197/35
f 46/198/3 69/199/3 96/200/36
f 45/201/3 69/202/3 46/203/3
f 69/202/3 45/201/3 70/204/3
f 11/205/5 84/206/5 1/207/5
f 84/206/5 11/205/5 94/208/5
f 94/208/5 11/205/5 89/209/5
f 89/209/5 11/205/5 49/210/5
f 49/210/5 11/205/5 47/211/5
f 47/211/5 11/205/5 102/212/5
f 102/212/5 11/205/5 101/213/5
f 101/213/5 11/205/5 99/214/5
f 99/214/5 11/205/5 100/215/5
f 100/215/5 11/205/5 90/216/5
f 90/216/5 11/205/5 103/217/5
f 1/207/5 84/206/5 85/218/5
f 90/216/5 103/217/5 91/219/5
f 91/219/5 103/217/5 97/220/5
f 97/220/5 103/217/5 96/221/5
f 98/222/5 1/207/5 85/218/5
f 9/23/4 103/223/4 11/22/4
f 103/223/4 9/23/4 104/224/4
f 86/225/2 9/226/2 5/227/2
f 9/226/2 86/225/2 87/228/2
f 9/226/2 87/228/2 88/229/2
f 9/226/2 88/229/2 79/230/2
f 9/226/2 79/230/2 80/231/2
f 9/226/2 80/231/2 81/232/2
f 9/226/2 81/232/2 95/233/2
f 9/226/2 95/233/2 83/234/2
f 9/226/2 83/234/2 82/235/2
f 9/226/2 82/235/2 15/236/2
f 9/226/2 15/236/2 14/237/2
f 9/226/2 14/237/2 19/238/2
f 9/226/2 19/238/2 104/239/2
f 104/239/2 19/238/2 18/240/2
f 104/239/2 18/240/2 92/241/2
f 104/239/2 92/241/2 93/242/2
f 74/243/1 98/244/1 72/245/1
f 98/244/1 74/243/1 21/246/1
f 98/244/1 21/246/1 1/1/1
f 1/1/1 21/246/1 86/247/1
f 86/247/1 21/246/1 23/248/1
f 5/5/1 1/1/1 86/247/1
