# Blender v2.92.0 OBJ File: 'kenney_OGConvert.blend'
# www.blender.org
o wallWoodBroken
v 0.425000 0.636026 -0.050000
v 0.475000 0.594866 -0.050000
v 0.425000 0.594866 -0.050000
v 0.475000 0.636026 -0.050000
v 0.425000 0.250000 -0.425000
v 0.475000 0.250000 -0.340693
v 0.475000 0.250000 -0.425000
v 0.454969 0.250000 -0.346061
v 0.425000 0.250000 -0.234215
v 0.425000 0.594866 0.010000
v 0.475000 0.497784 0.010000
v 0.425000 0.497784 0.010000
v 0.475000 0.594866 0.010000
v 0.425000 0.166667 -0.425000
v 0.475000 0.083333 -0.425000
v 0.425000 0.083333 -0.425000
v 0.475000 0.166667 -0.425000
v 0.475000 0.166667 -0.350000
v 0.475000 -0.000000 0.400000
v 0.475000 0.083333 -0.500000
v 0.475000 0.000000 -0.500000
v 0.475000 0.219360 -0.350000
v 0.475000 0.219360 -0.425000
v 0.475000 0.250000 -0.227632
v 0.475000 0.250000 -0.084860
v 0.475000 0.416667 -0.079795
v 0.475000 0.333333 -0.084860
v 0.475000 0.416667 -0.194391
v 0.475000 0.333333 -0.200000
v 0.475000 0.386026 -0.200000
v 0.475000 0.386026 -0.275000
v 0.475000 0.416667 -0.275000
v 0.475000 0.416667 -0.050000
v 0.475000 0.497784 -0.050000
v 0.475000 0.666667 0.175000
v 0.475000 0.636026 -0.125000
v 0.475000 0.666667 -0.125000
v 0.475000 0.750000 0.325000
v 0.475000 0.750000 0.175000
v 0.475000 0.916667 0.400000
v 0.475000 0.916667 0.325000
v 0.425000 0.666667 -0.125000
v 0.425000 0.666667 0.175000
v 0.425000 0.166667 -0.350000
v 0.425000 0.386026 -0.200000
v 0.425000 0.333333 -0.200000
v 0.425000 0.333333 -0.084860
v 0.425000 0.250000 -0.084860
v 0.425000 0.416667 -0.275000
v 0.425000 0.386026 -0.275000
v 0.425000 0.083333 -0.500000
v 0.425000 0.750000 0.175000
v 0.425000 0.916667 0.325000
v 0.425000 0.750000 0.325000
v 0.425000 0.000000 -0.500000
v 0.425000 -0.000000 0.400000
v 0.425000 0.497784 -0.050000
v 0.425000 0.416667 -0.050000
v 0.425000 0.250000 -0.121154
v 0.425000 0.219360 -0.350000
v 0.425000 0.916667 0.400000
v 0.425000 0.416667 -0.186203
v 0.425000 0.416667 -0.233896
v 0.425000 0.636026 -0.125000
v 0.425000 0.219360 -0.425000
v 0.462254 0.416667 -0.075505
v 0.445031 0.280640 -0.115786
v 0.503265 0.250000 -0.333120
v 0.503265 0.280640 -0.333120
v 0.445031 0.250000 -0.115786
v 0.454969 0.280640 -0.346061
v 0.396735 0.280640 -0.128727
v 0.396735 0.250000 -0.128727
v 0.410583 0.447307 -0.229044
v 0.410583 0.416667 -0.229044
v 0.462254 0.447307 -0.075505
v 0.509642 0.416667 -0.091453
v 0.509642 0.447307 -0.091453
v 0.457971 0.416667 -0.244992
v 0.457971 0.447307 -0.244992
v 0.400000 -0.000000 0.500000
v 0.400000 1.000000 0.400000
v 0.400000 -0.000000 0.400000
v 0.400000 1.000000 0.500000
v 0.475000 1.000000 0.400000
v 0.500000 1.000000 0.500000
v 0.500000 1.000000 0.400000
v 0.500000 -0.000000 0.500000
v 0.500000 -0.000000 0.400000
vt 0.505264 0.673550
vt 0.526466 0.647796
vt 0.526466 0.673550
vt 0.505264 0.647796
vt 0.324718 0.481725
vt 0.298963 0.525151
vt 0.298963 0.481725
vt 0.309281 0.522386
vt 0.324718 0.579996
vt 0.607462 0.608262
vt 0.581707 0.558257
vt 0.607462 0.558257
vt 0.581707 0.608262
vt 0.498889 0.608287
vt 0.473135 0.565363
vt 0.498889 0.565363
vt 0.473135 0.608287
vt 0.389498 0.089035
vt 0.428130 0.046111
vt 0.428130 0.089035
vt 0.003187 0.003187
vt 0.466761 0.046111
vt 0.466761 0.003187
vt 0.384705 0.131959
vt 0.389498 0.116177
vt 0.428130 0.116177
vt 0.428130 0.131959
vt 0.326469 0.131959
vt 0.252930 0.131959
vt 0.250321 0.217807
vt 0.252930 0.174883
vt 0.309347 0.217807
vt 0.312236 0.174883
vt 0.312236 0.202025
vt 0.350867 0.202025
vt 0.350867 0.217807
vt 0.234974 0.217807
vt 0.204069 0.259589
vt 0.234974 0.259589
vt 0.119081 0.346579
vt 0.204069 0.309595
vt 0.234974 0.309595
vt 0.234974 0.330796
vt 0.273605 0.330796
vt 0.273605 0.346579
vt 0.041818 0.389503
vt 0.119081 0.389503
vt 0.003187 0.475351
vt 0.041818 0.475351
vt 0.260460 0.481725
vt 0.234705 0.636252
vt 0.234705 0.481725
vt 0.260460 0.636252
vt 0.607462 0.614637
vt 0.581707 0.653269
vt 0.581707 0.614637
vt 0.607462 0.653269
vt 0.324717 0.661670
vt 0.298963 0.634528
vt 0.324717 0.634528
vt 0.298963 0.661670
vt 0.414730 0.616872
vt 0.388976 0.573948
vt 0.414730 0.573948
vt 0.388976 0.616872
vt 0.656927 0.507479
vt 0.672710 0.481725
vt 0.672710 0.507479
vt 0.656927 0.481725
vt 0.331092 0.643922
vt 0.356847 0.605291
vt 0.356847 0.643922
vt 0.331092 0.605291
vt 0.292589 0.603995
vt 0.266834 0.642626
vt 0.266834 0.603995
vt 0.292589 0.642626
vt 0.446859 0.614468
vt 0.421104 0.571544
vt 0.446859 0.571544
vt 0.421104 0.614468
vt 0.414730 0.567573
vt 0.388976 0.481725
vt 0.414730 0.481725
vt 0.388976 0.567573
vt 0.549578 0.561640
vt 0.575333 0.604564
vt 0.549578 0.604564
vt 0.575333 0.561640
vt 0.498890 0.481725
vt 0.473135 0.558988
vt 0.473135 0.481725
vt 0.498890 0.558988
vt 0.331092 0.598916
vt 0.356847 0.539609
vt 0.356847 0.598916
vt 0.331092 0.539609
vt 0.388976 0.654152
vt 0.414730 0.623247
vt 0.414730 0.654152
vt 0.388976 0.623247
vt 0.674017 0.168943
vt 0.704922 0.147742
vt 0.704922 0.168943
vt 0.589029 0.131959
vt 0.473135 0.475351
vt 0.674017 0.218949
vt 0.704922 0.218949
vt 0.704922 0.260731
vt 0.722878 0.303655
vt 0.722878 0.346579
vt 0.741572 0.346579
vt 0.799807 0.346579
vt 0.859446 0.362361
vt 0.859446 0.389503
vt 0.898077 0.389503
vt 0.898077 0.432427
vt 0.936709 0.432427
vt 0.936709 0.475351
vt 0.589029 0.089035
vt 0.511766 0.089035
vt 0.511766 0.003187
vt 0.473135 0.003187
vt 0.775078 0.260731
vt 0.782184 0.276513
vt 0.799643 0.260731
vt 0.820815 0.260731
vt 0.820815 0.276513
vt 0.782184 0.303655
vt 0.743553 0.131959
vt 0.743553 0.147742
vt 0.898077 0.346579
vt 0.898077 0.362361
vt 0.955960 0.466766
vt 0.981715 0.003187
vt 0.981715 0.466766
vt 0.955960 0.003187
vt 0.260459 0.669768
vt 0.234705 0.642626
vt 0.260459 0.642626
vt 0.234705 0.669768
vt 0.498890 0.614662
vt 0.473135 0.653293
vt 0.473135 0.614662
vt 0.498890 0.653293
vt 0.324717 0.628153
vt 0.298963 0.586371
vt 0.324717 0.586371
vt 0.298963 0.628153
vt 0.600896 0.494863
vt 0.607462 0.481725
vt 0.607462 0.497072
vt 0.581707 0.481725
vt 0.581707 0.551882
vt 0.363221 0.650950
vt 0.379004 0.625196
vt 0.379004 0.650950
vt 0.363221 0.625196
vt 0.549578 0.649570
vt 0.575333 0.610939
vt 0.575333 0.649570
vt 0.549578 0.610939
vt 0.613837 0.655385
vt 0.629619 0.629631
vt 0.629619 0.655385
vt 0.613837 0.629631
vt 0.421105 0.659474
vt 0.446859 0.620843
vt 0.446859 0.659474
vt 0.421105 0.620843
vt 0.664793 0.629939
vt 0.639038 0.660844
vt 0.639038 0.629939
vt 0.664793 0.660844
vt 0.543204 0.593526
vt 0.527421 0.481725
vt 0.543204 0.481725
vt 0.527421 0.535990
vt 0.527421 0.593526
vt 0.521047 0.539261
vt 0.505264 0.481725
vt 0.521047 0.481725
vt 0.505264 0.593526
vt 0.521047 0.593526
vt 0.379004 0.561711
vt 0.363221 0.539609
vt 0.379004 0.539609
vt 0.363221 0.618821
vt 0.379004 0.618821
vt 0.632664 0.567312
vt 0.632664 0.623256
vt 0.613837 0.623256
vt 0.639038 0.623564
vt 0.639039 0.567312
vt 0.654111 0.623564
vt 0.356847 0.650297
vt 0.341064 0.668276
vt 0.341064 0.650297
vt 0.341064 0.674891
vt 0.356847 0.674891
vt 0.531019 0.641422
vt 0.522247 0.625965
vt 0.531019 0.599901
vt 0.505264 0.641422
vt 0.505264 0.620249
vt 0.565015 0.539336
vt 0.549578 0.555265
vt 0.549578 0.481725
vt 0.575333 0.555265
vt 0.575333 0.536571
vt 0.650553 0.539962
vt 0.635994 0.536061
vt 0.650553 0.481725
vt 0.676268 0.567312
vt 0.660486 0.574750
vt 0.660486 0.567312
vt 0.676268 0.591759
vt 0.660486 0.591759
vt 0.446859 0.565170
vt 0.421105 0.481725
vt 0.446859 0.481725
vt 0.421105 0.565170
vt 0.266834 0.597620
vt 0.292589 0.481725
vt 0.292589 0.597620
vt 0.266834 0.481725
vt 0.656927 0.539962
vt 0.672710 0.529657
vt 0.672710 0.539962
vt 0.672710 0.515116
vt 0.656927 0.515116
vt 0.629619 0.560937
vt 0.613837 0.481725
vt 0.629619 0.481725
vt 0.613837 0.507831
vt 0.613837 0.560937
vt 0.282617 0.649001
vt 0.266834 0.659251
vt 0.266834 0.649001
vt 0.266834 0.673716
vt 0.282617 0.673716
vt 0.459334 0.484225
vt 0.466761 0.481725
vt 0.466761 0.506291
vt 0.061070 0.996813
vt 0.112578 0.481725
vt 0.112578 0.996813
vt 0.061070 0.481725
vt 0.382601 0.494603
vt 0.331092 0.481725
vt 0.382601 0.481725
vt 0.331092 0.533234
vt 0.382601 0.533234
vt 0.176836 0.481725
vt 0.228331 0.996813
vt 0.176836 0.996813
vt 0.228331 0.481725
vt 0.016064 0.953889
vt 0.003187 0.481725
vt 0.016064 0.481725
vt 0.003187 0.996813
vt 0.016064 0.996813
vt 0.054696 0.996813
vt 0.041818 0.953889
vt 0.041818 0.481725
vt 0.054696 0.481725
vt 0.943083 0.518275
vt 0.994592 0.466766
vt 0.994592 0.518275
vt 0.943083 0.466766
vt 0.118953 0.996813
vt 0.170461 0.481725
vt 0.170461 0.996813
vt 0.118953 0.481725
vn -0.0000 0.0000 -1.0000
vn 0.0000 1.0000 0.0000
vn 1.0000 0.0000 -0.0000
vn 0.0000 -1.0000 -0.0000
vn -1.0000 -0.0000 0.0000
vn 0.9659 0.0000 0.2588
vn -0.9659 0.0000 -0.2588
vn -0.9478 -0.0000 0.3190
vn 0.3190 0.0000 0.9478
vn -0.3190 -0.0000 -0.9478
vn 0.2588 0.0000 -0.9659
vn 0.9478 0.0000 -0.3190
vn -0.2588 -0.0000 0.9659
vn 0.0000 -0.0000 1.0000
s 1
f 1/1/1 2/2/1 3/3/1
f 2/2/1 1/1/1 4/4/1
f 5/5/2 6/6/2 7/7/2
f 6/6/2 5/5/2 8/8/2
f 8/8/2 5/5/2 9/9/2
f 10/10/1 11/11/1 12/12/1
f 11/11/1 10/10/1 13/13/1
f 14/14/1 15/15/1 16/16/1
f 15/15/1 14/14/1 17/17/1
f 18/18/3 15/19/3 17/20/3
f 19/21/3 15/19/3 18/18/3
f 19/21/3 20/22/3 15/19/3
f 20/22/3 19/21/3 21/23/3
f 19/21/3 18/18/3 6/24/3
f 22/25/3 6/24/3 18/18/3
f 23/26/3 6/24/3 22/25/3
f 6/24/3 23/26/3 7/27/3
f 19/21/3 6/24/3 24/28/3
f 19/21/3 24/28/3 25/29/3
f 19/21/3 25/29/3 26/30/3
f 27/31/3 26/30/3 25/29/3
f 27/31/3 28/32/3 26/30/3
f 29/33/3 28/32/3 27/31/3
f 30/34/3 28/32/3 29/33/3
f 31/35/3 28/32/3 30/34/3
f 28/32/3 31/35/3 32/36/3
f 19/21/3 26/30/3 33/37/3
f 19/21/3 33/37/3 11/38/3
f 11/38/3 33/37/3 34/39/3
f 19/21/3 11/38/3 35/40/3
f 13/41/3 35/40/3 11/38/3
f 2/42/3 35/40/3 13/41/3
f 4/43/3 35/40/3 2/42/3
f 36/44/3 35/40/3 4/43/3
f 35/40/3 36/44/3 37/45/3
f 19/21/3 35/40/3 38/46/3
f 38/46/3 35/40/3 39/47/3
f 38/46/3 40/48/3 19/21/3
f 40/48/3 38/46/3 41/49/3
f 42/50/2 35/51/2 37/52/2
f 35/51/2 42/50/2 43/53/2
f 14/54/2 18/55/2 17/56/2
f 18/55/2 14/54/2 44/57/2
f 45/58/1 29/59/1 46/60/1
f 29/59/1 45/58/1 30/61/1
f 47/62/1 25/63/1 48/64/1
f 25/63/1 47/62/1 27/65/1
f 49/66/1 31/67/1 50/68/1
f 31/67/1 49/66/1 32/69/1
f 45/70/4 31/71/4 30/72/4
f 31/71/4 45/70/4 50/73/4
f 51/74/2 15/75/2 20/76/2
f 15/75/2 51/74/2 16/77/2
f 52/78/1 35/79/1 43/80/1
f 35/79/1 52/78/1 39/81/1
f 53/82/1 38/83/1 54/84/1
f 38/83/1 53/82/1 41/85/1
f 51/86/1 21/87/1 55/88/1
f 21/87/1 51/86/1 20/89/1
f 52/90/2 38/91/2 39/92/2
f 38/91/2 52/90/2 54/93/2
f 47/94/4 29/95/4 27/96/4
f 29/95/4 47/94/4 46/97/4
f 10/98/4 2/99/4 13/100/4
f 2/99/4 10/98/4 3/101/4
f 10/102/5 1/103/5 3/104/5
f 43/105/5 1/103/5 10/102/5
f 10/102/5 56/106/5 43/105/5
f 12/107/5 56/106/5 10/102/5
f 57/108/5 56/106/5 12/107/5
f 58/109/5 56/106/5 57/108/5
f 47/110/5 56/106/5 58/109/5
f 48/111/5 56/106/5 47/110/5
f 59/112/5 56/106/5 48/111/5
f 9/113/5 56/106/5 59/112/5
f 60/114/5 56/106/5 9/113/5
f 44/115/5 56/106/5 60/114/5
f 14/116/5 56/106/5 44/115/5
f 16/117/5 56/106/5 14/116/5
f 51/118/5 56/106/5 16/117/5
f 56/106/5 51/118/5 55/119/5
f 43/105/5 56/106/5 52/120/5
f 52/120/5 56/106/5 54/121/5
f 54/121/5 56/106/5 53/122/5
f 53/122/5 56/106/5 61/123/5
f 62/124/5 47/110/5 58/109/5
f 45/125/5 47/110/5 62/124/5
f 63/126/5 45/125/5 62/124/5
f 49/127/5 45/125/5 63/126/5
f 45/125/5 49/127/5 50/128/5
f 47/110/5 45/125/5 46/129/5
f 1/103/5 42/130/5 64/131/5
f 42/130/5 1/103/5 43/105/5
f 60/114/5 5/132/5 65/133/5
f 5/132/5 60/114/5 9/113/5
f 56/134/4 21/135/4 19/136/4
f 21/135/4 56/134/4 55/137/4
f 60/138/1 18/139/1 44/140/1
f 18/139/1 60/138/1 22/141/1
f 53/142/2 40/143/2 41/144/2
f 40/143/2 53/142/2 61/145/2
f 57/146/1 33/147/1 58/148/1
f 33/147/1 57/146/1 34/149/1
f 66/150/2 33/151/2 26/152/2
f 33/151/2 66/150/2 58/153/2
f 58/153/2 66/150/2 62/154/2
f 42/155/1 36/156/1 64/157/1
f 36/156/1 42/155/1 37/158/1
f 1/159/4 36/160/4 4/161/4
f 36/160/4 1/159/4 64/162/4
f 5/163/1 23/164/1 65/165/1
f 23/164/1 5/163/1 7/166/1
f 60/167/4 23/168/4 22/169/4
f 23/168/4 60/167/4 65/170/4
f 57/171/2 11/172/2 34/173/2
f 11/172/2 57/171/2 12/174/2
f 67/175/6 68/176/6 69/177/6
f 68/176/6 67/175/6 24/178/6
f 24/178/6 67/175/6 70/179/6
f 9/180/7 71/181/7 8/182/7
f 71/181/7 9/180/7 72/183/7
f 72/183/7 9/180/7 73/184/7
f 62/185/8 74/186/8 75/187/8
f 74/186/8 62/185/8 76/188/8
f 76/188/8 62/185/8 66/189/8
f 28/190/4 77/191/4 26/192/4
f 73/193/4 9/194/4 59/195/4
f 78/196/9 26/197/9 77/198/9
f 26/197/9 78/196/9 66/199/9
f 66/199/9 78/196/9 76/200/9
f 32/201/2 79/202/2 28/203/2
f 79/202/2 32/201/2 49/204/2
f 79/202/2 49/204/2 63/205/2
f 70/206/2 25/207/2 24/208/2
f 25/207/2 70/206/2 48/209/2
f 48/209/2 70/206/2 59/210/2
f 6/211/4 68/212/4 24/213/4
f 74/214/10 63/215/10 75/216/10
f 80/217/10 63/215/10 74/214/10
f 63/215/10 80/217/10 79/218/10
f 80/219/2 76/220/2 78/221/2
f 76/220/2 80/219/2 74/222/2
f 71/223/2 67/224/2 69/225/2
f 67/224/2 71/223/2 72/226/2
f 71/227/11 6/228/11 8/229/11
f 6/228/11 71/227/11 68/230/11
f 68/230/11 71/227/11 69/231/11
f 78/232/12 79/233/12 80/234/12
f 79/233/12 78/232/12 28/235/12
f 28/235/12 78/232/12 77/236/12
f 67/237/13 59/238/13 70/239/13
f 59/238/13 67/237/13 73/240/13
f 73/240/13 67/237/13 72/241/13
f 75/242/4 63/243/4 62/244/4
f 81/245/5 82/246/5 83/247/5
f 82/246/5 81/245/5 84/248/5
f 85/249/2 86/250/2 87/251/2
f 86/250/2 85/249/2 84/252/2
f 84/252/2 85/249/2 82/253/2
f 86/254/14 81/255/14 88/256/14
f 81/255/14 86/254/14 84/257/14
f 40/258/1 89/259/1 19/260/1
f 89/259/1 40/258/1 87/261/1
f 87/261/1 40/258/1 85/262/1
f 40/258/1 82/263/1 85/262/1
f 61/264/1 82/263/1 40/258/1
f 56/265/1 82/263/1 61/264/1
f 82/263/1 56/265/1 83/266/1
f 81/267/4 89/268/4 88/269/4
f 89/268/4 81/267/4 19/136/4
f 19/136/4 81/267/4 56/134/4
f 56/134/4 81/267/4 83/270/4
f 86/271/3 89/272/3 87/273/3
f 89/272/3 86/271/3 88/274/3
