# Blender v2.92.0 OBJ File: 'kenney_OGConvert.blend'
# www.blender.org
o wallWoodWindowShutters
v 0.400000 0.750000 -0.200000
v 0.425000 0.750000 0.200000
v 0.425000 0.750000 -0.200000
v 0.400000 0.750000 0.200000
v 0.425000 0.200000 -0.250000
v 0.425000 0.250000 -0.200000
v 0.425000 0.800000 -0.250000
v 0.425000 0.200000 0.250000
v 0.425000 0.250000 0.200000
v 0.425000 0.800000 0.250000
v 0.425000 0.250000 0.250000
v 0.475000 0.800000 -0.250000
v 0.475000 0.750000 -0.200000
v 0.475000 0.200000 -0.250000
v 0.475000 0.800000 0.250000
v 0.475000 0.750000 0.200000
v 0.475000 0.250000 0.200000
v 0.475000 0.250000 -0.200000
v 0.475000 0.200000 0.250000
v 0.475000 0.250000 0.250000
v 0.475000 1.000000 0.400000
v 0.500000 1.000000 0.500000
v 0.500000 1.000000 0.400000
v 0.400000 1.000000 0.500000
v 0.425000 1.000000 0.400000
v 0.400000 1.000000 0.400000
v 0.475000 0.700000 0.025000
v 0.425000 0.300000 0.025000
v 0.475000 0.300000 0.025000
v 0.425000 0.700000 0.025000
v 0.500000 0.750000 0.200000
v 0.500000 0.750000 -0.200000
v 0.400000 0.250000 -0.200000
v 0.400000 0.300000 -0.150000
v 0.400000 0.250000 0.200000
v 0.400000 0.300000 0.150000
v 0.400000 0.700000 0.150000
v 0.400000 0.700000 -0.150000
v 0.475000 0.300000 -0.025000
v 0.475000 0.700000 -0.025000
v 0.500000 1.000000 -0.400000
v 0.500000 0.000000 -0.500000
v 0.500000 1.000000 -0.500000
v 0.500000 0.000000 -0.400000
v 0.500000 0.300000 0.150000
v 0.500000 0.700000 0.150000
v 0.500000 0.700000 -0.150000
v 0.425000 0.700000 -0.025000
v 0.425000 0.300000 -0.025000
v 0.500000 0.300000 -0.150000
v 0.425000 1.000000 -0.400000
v 0.400000 0.000000 -0.400000
v 0.425000 0.000000 -0.400000
v 0.400000 1.000000 -0.400000
v 0.475000 0.000000 -0.400000
v 0.400000 0.000000 -0.500000
v 0.425000 -0.000000 0.400000
v 0.400000 -0.000000 0.400000
v 0.400000 -0.000000 0.500000
v 0.475000 1.000000 -0.400000
v 0.500000 -0.000000 0.400000
v 0.500000 -0.000000 0.500000
v 0.500000 0.250000 -0.200000
v 0.500000 0.250000 0.200000
v 0.475000 -0.000000 0.400000
v 0.400000 1.000000 -0.500000
vt 0.056163 0.751954
vt 0.043957 0.947264
vt 0.043957 0.751954
vt 0.056163 0.947264
vt 0.321287 0.394528
vt 0.296873 0.370114
vt 0.321287 0.101563
vt 0.077150 0.394528
vt 0.101563 0.370114
vt 0.101563 0.125977
vt 0.296873 0.125977
vt 0.077150 0.101563
vt 0.124053 0.751954
vt 0.124053 0.751954
vt 0.124053 0.751954
vt 0.719723 0.394528
vt 0.695310 0.370114
vt 0.719723 0.101563
vt 0.475586 0.394528
vt 0.500000 0.370114
vt 0.500000 0.125977
vt 0.695310 0.125977
vt 0.475586 0.101563
vt 0.475586 0.125977
vt 0.812989 0.443355
vt 0.800782 0.492183
vt 0.800782 0.443355
vt 0.849609 0.492183
vt 0.837402 0.443355
vt 0.849609 0.443355
vt 0.877450 0.500000
vt 0.901864 0.695310
vt 0.877450 0.695310
vt 0.901864 0.500000
vt 0.096212 0.751954
vt 0.084005 0.947264
vt 0.084005 0.751954
vt 0.096212 0.947264
vt 0.199218 0.744137
vt 0.174805 0.719723
vt 0.199218 0.500000
vt 0.003909 0.744137
vt 0.028322 0.719723
vt 0.028322 0.524414
vt 0.174805 0.524414
vt 0.003909 0.500000
vt 0.909681 0.695310
vt 0.934095 0.500000
vt 0.934095 0.695310
vt 0.909681 0.500000
vt 0.466807 0.988274
vt 0.515634 0.500000
vt 0.515634 0.988274
vt 0.466807 0.500000
vt 0.750030 0.500000
vt 0.798857 0.695310
vt 0.750030 0.695310
vt 0.798857 0.500000
vt 0.742213 0.849609
vt 0.730006 0.788575
vt 0.742213 0.703127
vt 0.693385 0.849609
vt 0.705592 0.788575
vt 0.705592 0.764161
vt 0.730006 0.764161
vt 0.693385 0.703127
vt 0.877450 0.703127
vt 0.901864 0.898437
vt 0.877450 0.898437
vt 0.901864 0.703127
vt 0.693385 0.695310
vt 0.742213 0.500000
vt 0.742213 0.695310
vt 0.693385 0.500000
vt 0.063981 0.947264
vt 0.076188 0.751954
vt 0.076187 0.947264
vt 0.063981 0.751954
vt 0.750030 0.703127
vt 0.762237 0.764161
vt 0.750030 0.849609
vt 0.798857 0.703127
vt 0.786650 0.764161
vt 0.786650 0.788575
vt 0.762237 0.788575
vt 0.798857 0.849609
vt 0.970716 0.003909
vt 0.982923 0.492183
vt 0.970716 0.492183
vt 0.982923 0.003909
vt 0.894047 0.052736
vt 0.906254 0.003909
vt 0.906254 0.052736
vt 0.857426 0.003909
vt 0.869633 0.052736
vt 0.857426 0.052736
vt 0.806674 0.500000
vt 0.818881 0.744137
vt 0.806674 0.744137
vt 0.818881 0.500000
vt 0.857426 0.500000
vt 0.869633 0.988274
vt 0.857426 0.988274
vt 0.869633 0.500000
vt 0.523451 0.988274
vt 0.572279 0.500000
vt 0.572279 0.988274
vt 0.523451 0.500000
vt 0.837402 0.500000
vt 0.849609 0.988274
vt 0.837402 0.988274
vt 0.849609 0.500000
vt 0.580096 0.988274
vt 0.628923 0.500000
vt 0.628923 0.988274
vt 0.580096 0.500000
vt 0.402345 0.744137
vt 0.377931 0.719723
vt 0.402345 0.500000
vt 0.207035 0.744137
vt 0.231449 0.719723
vt 0.231449 0.524414
vt 0.377932 0.524414
vt 0.207035 0.500000
vt 0.914071 0.003909
vt 0.962898 0.492183
vt 0.914071 0.492183
vt 0.962899 0.003909
vt 0.104029 0.947264
vt 0.116236 0.751954
vt 0.116236 0.947264
vt 0.104029 0.751954
vt 0.857426 0.492183
vt 0.906254 0.443355
vt 0.906254 0.492183
vt 0.894047 0.443355
vt 0.869633 0.443355
vt 0.857426 0.443355
vt 0.023933 0.751954
vt 0.036139 0.996091
vt 0.023933 0.996091
vt 0.036139 0.751954
vt 0.970716 0.500000
vt 0.982922 0.988274
vt 0.970716 0.988274
vt 0.982923 0.500000
vt 0.410162 0.500000
vt 0.458990 0.988274
vt 0.410162 0.988274
vt 0.458990 0.500000
vt 0.849609 0.003909
vt 0.800782 0.052736
vt 0.800782 0.003909
vt 0.812989 0.052736
vt 0.837402 0.052736
vt 0.849609 0.052736
vt 0.909681 0.898437
vt 0.934095 0.703127
vt 0.934095 0.898437
vt 0.909681 0.703127
vt 0.003909 0.996091
vt 0.016115 0.751954
vt 0.016115 0.996091
vt 0.003909 0.751954
vt 0.941912 0.744137
vt 0.954119 0.500000
vt 0.954119 0.744137
vt 0.941912 0.500000
vt 0.636741 0.988274
vt 0.685568 0.500000
vt 0.685568 0.988274
vt 0.636741 0.500000
vt 0.792965 0.492183
vt 0.792965 0.003909
vt 0.402345 0.492183
vt 0.402345 0.003909
vt 0.394528 0.492183
vt 0.394528 0.003909
vt 0.003909 0.492183
vt 0.077150 0.370114
vt 0.003909 0.003909
vn 0.0000 1.0000 0.0000
vn -1.0000 -0.0000 0.0000
vn -0.7970 0.4675 -0.3824
vn 1.0000 0.0000 -0.0000
vn -0.7468 0.0000 -0.6651
vn 0.0000 -0.0000 1.0000
vn 0.0000 0.0000 -1.0000
vn 0.0000 -1.0000 0.0000
s 1
f 1/1/1 2/2/1 3/3/1
f 2/2/1 1/1/1 4/4/1
f 5/5/2 6/6/2 7/7/2
f 6/6/2 5/5/2 8/8/2
f 6/6/2 8/8/2 9/9/2
f 9/9/2 8/8/2 2/10/2
f 3/11/2 7/7/2 6/6/2
f 7/7/2 3/11/2 10/12/2
f 10/12/2 3/11/2 2/10/2
f 10/12/2 2/10/2 8/8/2
f 10/13/2 8/14/2 11/15/3
f 12/16/4 13/17/4 14/18/4
f 13/17/4 12/16/4 15/19/4
f 13/17/4 15/19/4 16/20/4
f 16/20/4 15/19/4 17/21/4
f 18/22/4 14/18/4 13/17/4
f 14/18/4 18/22/4 19/23/4
f 19/23/4 18/22/4 17/21/4
f 19/23/4 17/21/4 15/19/4
f 19/23/4 15/19/4 20/24/5
f 21/25/1 22/26/1 23/27/1
f 22/26/1 21/25/1 24/28/1
f 24/28/1 21/25/1 25/29/1
f 24/28/1 25/29/1 26/30/1
f 27/31/6 28/32/6 29/33/6
f 28/32/6 27/31/6 30/34/6
f 13/35/1 31/36/1 32/37/1
f 31/36/1 13/35/1 16/38/1
f 33/39/2 34/40/2 1/41/2
f 34/40/2 33/39/2 35/42/2
f 34/40/2 35/42/2 36/43/2
f 36/43/2 35/42/2 37/44/2
f 38/45/2 1/41/2 34/40/2
f 1/41/2 38/45/2 4/46/2
f 4/46/2 38/45/2 37/44/2
f 4/46/2 37/44/2 35/42/2
f 27/47/4 39/48/4 40/49/4
f 39/48/4 27/47/4 29/50/4
f 41/51/4 42/52/4 43/53/4
f 42/52/4 41/51/4 44/54/4
f 37/55/7 45/56/7 36/57/7
f 45/56/7 37/55/7 46/58/7
f 46/59/8 27/60/8 47/61/8
f 27/60/8 46/59/8 37/62/8
f 27/60/8 37/62/8 30/63/8
f 30/63/8 37/62/8 48/64/8
f 40/65/8 47/61/8 27/60/8
f 47/61/8 40/65/8 38/66/8
f 38/66/8 40/65/8 48/64/8
f 38/66/8 48/64/8 37/62/8
f 48/67/7 39/68/7 49/69/7
f 39/68/7 48/67/7 40/70/7
f 50/71/6 38/72/6 34/73/6
f 38/72/6 50/71/6 47/74/6
f 35/75/8 6/76/8 9/77/8
f 6/76/8 35/75/8 33/78/8
f 50/79/1 39/80/1 45/81/1
f 39/80/1 50/79/1 34/82/1
f 39/80/1 34/82/1 49/83/1
f 49/83/1 34/82/1 28/84/1
f 29/85/1 45/81/1 39/80/1
f 45/81/1 29/85/1 36/86/1
f 36/86/1 29/85/1 28/84/1
f 36/86/1 28/84/1 34/82/1
f 51/87/6 52/88/6 53/89/6
f 52/88/6 51/87/6 54/90/6
f 55/91/8 42/92/8 44/93/8
f 42/92/8 55/91/8 56/94/8
f 56/94/8 55/91/8 53/95/8
f 56/94/8 53/95/8 52/96/8
f 2/97/6 35/98/6 9/99/6
f 35/98/6 2/97/6 4/100/6
f 26/101/7 57/102/7 58/103/7
f 57/102/7 26/101/7 25/104/7
f 59/105/2 26/106/2 58/107/2
f 26/106/2 59/105/2 24/108/2
f 41/109/6 55/110/6 44/111/6
f 55/110/6 41/109/6 60/112/6
f 22/113/4 61/114/4 23/115/4
f 61/114/4 22/113/4 62/116/4
f 32/117/4 47/118/4 63/119/4
f 47/118/4 32/117/4 31/120/4
f 47/118/4 31/120/4 46/121/4
f 46/121/4 31/120/4 45/122/4
f 50/123/4 63/119/4 47/118/4
f 63/119/4 50/123/4 64/124/4
f 64/124/4 50/123/4 45/122/4
f 64/124/4 45/122/4 31/120/4
f 22/125/6 59/126/6 62/127/6
f 59/126/6 22/125/6 24/128/6
f 17/129/8 63/130/8 64/131/8
f 63/130/8 17/129/8 18/132/8
f 59/133/8 61/134/8 62/135/8
f 61/134/8 59/133/8 65/136/8
f 65/136/8 59/133/8 57/137/8
f 57/137/8 59/133/8 58/138/8
f 13/139/7 63/140/7 18/141/7
f 63/140/7 13/139/7 32/142/7
f 21/143/7 61/144/7 65/145/7
f 61/144/7 21/143/7 23/146/7
f 66/147/7 42/148/7 56/149/7
f 42/148/7 66/147/7 43/150/7
f 66/151/1 41/152/1 43/153/1
f 41/152/1 66/151/1 60/154/1
f 60/154/1 66/151/1 51/155/1
f 51/155/1 66/151/1 54/156/1
f 28/157/2 48/158/2 49/159/2
f 48/158/2 28/157/2 30/160/2
f 33/161/7 3/162/7 6/163/7
f 3/162/7 33/161/7 1/164/7
f 64/165/6 16/166/6 17/167/6
f 16/166/6 64/165/6 31/168/6
f 52/169/2 66/170/2 56/171/2
f 66/170/2 52/169/2 54/172/2
f 60/173/4 12/16/4 55/174/4
f 12/16/4 60/173/4 21/175/4
f 12/16/4 21/175/4 15/19/4
f 15/19/4 21/175/4 20/24/5
f 20/24/5 21/175/4 19/23/4
f 14/18/4 55/174/4 12/16/4
f 55/174/4 14/18/4 65/176/4
f 65/176/4 14/18/4 19/23/4
f 65/176/4 19/23/4 21/175/4
f 57/137/8 55/91/8 65/136/8
f 55/91/8 57/137/8 53/95/8
f 53/177/2 5/5/2 51/178/2
f 5/5/2 53/177/2 57/179/2
f 5/5/2 57/179/2 8/8/2
f 8/8/2 57/179/2 11/180/3
f 11/180/3 57/179/2 10/12/2
f 7/7/2 51/178/2 5/5/2
f 51/178/2 7/7/2 25/181/2
f 25/181/2 7/7/2 10/12/2
f 25/181/2 10/12/2 57/179/2
f 51/155/1 21/25/1 60/154/1
f 21/25/1 51/155/1 25/29/1
