# Blender v2.92.0 OBJ File: 'OGConvert.blend'
# www.blender.org
o wallWindowShutters
v 3.200000 8.000000 -4.000000
v 4.000000 0.000000 -4.000000
v 3.200000 0.000000 -4.000000
v 4.000000 8.000000 -4.000000
v 3.200000 -0.000000 4.000000
v 4.000000 -0.000000 3.200000
v 4.000000 -0.000000 4.000000
v 3.800000 -0.000000 3.200000
v 3.400000 -0.000000 3.200000
v 3.200000 -0.000000 3.200000
v 4.000000 8.000000 4.000000
v 3.200000 8.000000 4.000000
v 3.800000 2.000000 1.600000
v 4.000000 2.000000 -1.600000
v 4.000000 2.000000 1.600000
v 3.800000 2.000000 -1.600000
v 3.800000 8.000000 3.200000
v 4.000000 8.000000 3.200000
v 3.400000 8.000000 3.200000
v 3.200000 8.000000 3.200000
v 4.000000 8.000000 -3.200000
v 4.000000 0.000000 -3.200000
v 3.400000 6.000000 1.600000
v 3.200000 2.000000 1.600000
v 3.400000 2.000000 1.600000
v 3.400000 2.000000 -1.600000
v 3.800000 8.000000 -3.200000
v 3.400000 8.000000 -3.200000
v 3.200000 8.000000 -3.200000
v 4.000000 6.000000 -1.600000
v 4.000000 5.600000 -1.200000
v 4.000000 6.000000 1.600000
v 4.000000 5.600000 1.200000
v 4.000000 2.400000 1.200000
v 4.000000 2.400000 -1.200000
v 3.800000 0.000000 -3.200000
v 3.400000 0.000000 -3.200000
v 3.200000 0.000000 -3.200000
v 3.200000 5.600000 1.200000
v 3.200000 5.600000 -1.200000
v 3.200000 2.400000 -1.200000
v 3.200000 6.000000 -1.600000
v 3.200000 2.400000 1.200000
v 3.400000 6.000000 -1.600000
v 3.400000 1.600000 -2.000000
v 3.400000 6.400000 -2.000000
v 3.400000 1.600000 2.000000
v 3.400000 6.400000 2.000000
v 3.400000 2.000000 2.000000
v 3.800000 6.000000 1.600000
v 3.800000 6.400000 -2.000000
v 3.800000 6.000000 -1.600000
v 3.800000 1.600000 -2.000000
v 3.800000 6.400000 2.000000
v 3.800000 1.600000 2.000000
v 3.800000 2.000000 2.000000
v 3.650000 3.440000 1.200000
v 3.550000 3.440000 0.560000
v 3.650000 3.440000 0.560000
v 3.550000 3.440000 1.200000
v 3.650000 4.560000 1.200000
v 3.650000 4.360000 0.560000
v 3.650000 4.560000 0.560000
v 3.650000 4.360000 1.200000
v 3.650000 3.640000 0.360000
v 3.650000 3.440000 -0.360000
v 3.650000 3.640000 -0.360000
v 3.650000 3.440000 0.360000
v 3.550000 3.640000 0.560000
v 3.650000 3.640000 1.200000
v 3.650000 3.640000 0.560000
v 3.550000 3.640000 1.200000
v 3.550000 3.640000 -0.360000
v 3.550000 3.640000 0.360000
v 3.550000 4.360000 0.560000
v 3.550000 4.360000 1.200000
v 3.650000 4.360000 0.360000
v 3.550000 4.360000 -0.360000
v 3.650000 4.360000 -0.360000
v 3.550000 4.360000 0.360000
v 3.650000 4.360000 -0.560000
v 3.550000 4.360000 -1.200000
v 3.650000 4.360000 -1.200000
v 3.550000 4.360000 -0.560000
v 3.500000 2.400000 -0.560000
v 3.550000 3.440000 -0.560000
v 3.700000 2.400000 -0.560000
v 3.500000 5.600000 -0.560000
v 3.550000 3.640000 -0.560000
v 3.650000 3.640000 -0.560000
v 3.550000 4.560000 -0.560000
v 3.650000 4.560000 -0.560000
v 3.650000 3.440000 -0.560000
v 3.700000 5.600000 -0.560000
v 3.700000 2.400000 -0.360000
v 3.550000 3.440000 -0.360000
v 3.700000 5.600000 -0.360000
v 3.650000 4.560000 -0.360000
v 3.550000 4.560000 -0.360000
v 3.500000 2.400000 -0.360000
v 3.500000 5.600000 -0.360000
v 3.500000 2.400000 0.560000
v 3.500000 5.600000 0.360000
v 3.500000 2.400000 0.360000
v 3.500000 5.600000 0.560000
v 3.550000 3.440000 0.360000
v 3.700000 2.400000 0.360000
v 3.550000 4.560000 0.360000
v 3.650000 4.560000 0.360000
v 3.700000 5.600000 0.360000
v 3.700000 5.600000 0.560000
v 3.700000 2.400000 0.560000
v 3.550000 4.560000 0.560000
v 3.550000 3.440000 -1.200000
v 3.650000 3.440000 -1.200000
v 3.550000 4.560000 1.200000
v 3.550000 3.640000 -1.200000
v 3.650000 3.640000 -1.200000
v 3.550000 4.560000 -1.200000
v 3.650000 4.560000 -1.200000
v 2.773205 6.000000 2.739231
v 2.600000 2.000000 2.639230
v 2.773205 2.000000 2.739230
v 2.600000 6.000000 2.639231
v 3.373205 6.000000 1.700000
v 3.373205 2.000000 1.700000
v 3.200000 2.500000 1.600000
v 3.200000 5.500000 1.600000
v 3.200000 6.000000 1.600000
v 3.200000 3.000000 1.600000
v 3.200000 5.000000 1.600000
v 3.125000 2.500000 1.729904
v 3.125000 3.000000 1.729904
v 3.125000 5.000000 1.729904
v 3.125000 5.500000 1.729904
v 2.773205 2.000000 -2.739230
v 2.600000 2.000000 -2.639230
v 2.773205 6.000000 -2.739230
v 2.600000 6.000000 -2.639230
v 3.200000 2.000000 -1.600000
v 3.373205 2.000000 -1.700000
v 3.200000 2.500000 -1.600000
v 3.373205 6.000000 -1.700000
v 3.200000 3.000000 -1.600000
v 3.200000 5.000000 -1.600000
v 3.200000 5.500000 -1.600000
v 3.125000 2.500000 -1.729904
v 3.125000 3.000000 -1.729904
v 3.125000 5.000000 -1.729904
v 3.125000 5.500000 -1.729904
vt 0.739186 0.920168
vt 0.693953 0.467738
vt 0.739186 0.467738
vt 0.693953 0.920168
vt 0.749392 0.693953
vt 0.794635 0.648710
vt 0.794635 0.693953
vt 0.783324 0.648710
vt 0.760703 0.648710
vt 0.749392 0.648710
vt 0.683747 0.920168
vt 0.638539 0.467738
vt 0.683747 0.467738
vt 0.638539 0.920168
vt 0.511343 0.885215
vt 0.522654 0.704243
vt 0.522654 0.885215
vt 0.511343 0.704243
vt 0.816151 0.648710
vt 0.804841 0.693953
vt 0.804841 0.648710
vt 0.850084 0.693953
vt 0.838773 0.648710
vt 0.850084 0.648710
vt 0.196280 0.920165
vt 0.241523 0.467737
vt 0.241523 0.920165
vt 0.196280 0.467737
vt 0.816143 0.930373
vt 0.804841 0.704159
vt 0.816143 0.704159
vt 0.804841 0.930373
vt 0.532860 0.885215
vt 0.544171 0.704243
vt 0.544171 0.885215
vt 0.532860 0.704243
vt 0.850084 0.241523
vt 0.804841 0.286766
vt 0.804841 0.241523
vt 0.816151 0.286766
vt 0.838773 0.286766
vt 0.850084 0.286766
vt 0.251729 0.920166
vt 0.296971 0.467737
vt 0.296971 0.920166
vt 0.251729 0.467737
vt 0.186075 0.693951
vt 0.163453 0.671329
vt 0.186075 0.467737
vt 0.005103 0.693951
vt 0.027724 0.671329
vt 0.027724 0.490358
vt 0.163453 0.490358
vt 0.005103 0.467737
vt 0.783324 0.286766
vt 0.794635 0.241523
vt 0.794635 0.286766
vt 0.749392 0.241523
vt 0.760703 0.286766
vt 0.749392 0.286766
vt 0.860290 0.693951
vt 0.905532 0.241523
vt 0.905532 0.693951
vt 0.860290 0.241523
vt 0.569314 0.839887
vt 0.614557 0.704159
vt 0.614557 0.839887
vt 0.569314 0.704159
vt 0.307177 0.920166
vt 0.352419 0.467737
vt 0.352419 0.920166
vt 0.307177 0.467737
vt 0.948561 0.693953
vt 0.937252 0.241523
vt 0.948561 0.241523
vt 0.937252 0.693953
vt 0.174479 0.704157
vt 0.129271 0.885128
vt 0.129271 0.704157
vt 0.174479 0.885128
vt 0.930359 0.231318
vt 0.907738 0.208696
vt 0.930359 0.005103
vt 0.749392 0.231318
vt 0.772013 0.208696
vt 0.772013 0.027724
vt 0.907738 0.027724
vt 0.749392 0.005103
vt 0.884018 0.704157
vt 0.872710 0.930372
vt 0.872710 0.704157
vt 0.884018 0.930372
vt 0.375805 0.711606
vt 0.364494 0.892578
vt 0.364495 0.711606
vt 0.375805 0.892578
vt 0.927047 0.693953
vt 0.915738 0.241523
vt 0.927047 0.241523
vt 0.915738 0.693953
vt 0.671324 0.367046
vt 0.648703 0.344425
vt 0.671324 0.095589
vt 0.445115 0.367046
vt 0.467736 0.344425
vt 0.467736 0.118210
vt 0.648703 0.118210
vt 0.445115 0.095589
vt 0.628333 0.704159
vt 0.628333 0.704159
vt 0.628333 0.704159
vt 0.991576 0.693953
vt 0.980274 0.241523
vt 0.991576 0.241523
vt 0.980274 0.693953
vt 0.850084 0.704159
vt 0.838782 0.930373
vt 0.838782 0.704159
vt 0.850084 0.930373
vt 0.299182 0.367045
vt 0.276561 0.344424
vt 0.299182 0.095589
vt 0.072967 0.367045
vt 0.095589 0.344424
vt 0.095589 0.118210
vt 0.276561 0.118210
vt 0.072967 0.095589
vt 0.072967 0.118210
vt 0.794635 0.704159
vt 0.749392 0.839888
vt 0.749392 0.704159
vt 0.794635 0.839888
vt 0.970069 0.693953
vt 0.958767 0.241523
vt 0.970069 0.241523
vt 0.958767 0.693953
vt 0.119065 0.885128
vt 0.073831 0.704157
vt 0.119065 0.704157
vt 0.073831 0.885128
vt 0.905532 0.930372
vt 0.894224 0.704157
vt 0.905532 0.704157
vt 0.894224 0.930372
vt 0.397322 0.711606
vt 0.386011 0.892578
vt 0.386011 0.711606
vt 0.397322 0.892578
vt 0.564763 0.964358
vt 0.559108 0.928163
vt 0.564763 0.928163
vt 0.559108 0.964358
vt 0.174479 0.931529
vt 0.163168 0.895334
vt 0.174479 0.895334
vt 0.163168 0.931529
vt 0.085142 0.936053
vt 0.073831 0.895334
vt 0.085142 0.895334
vt 0.073831 0.936053
vt 0.201936 0.930371
vt 0.196280 0.966565
vt 0.196280 0.930371
vt 0.201936 0.966565
vt 0.948563 0.895336
vt 0.942908 0.936054
vt 0.942908 0.895336
vt 0.948563 0.936054
vt 0.760703 0.964358
vt 0.755047 0.928164
vt 0.760703 0.928164
vt 0.755047 0.964358
vt 0.596486 0.968882
vt 0.590830 0.928164
vt 0.596486 0.928164
vt 0.590830 0.968882
vt 0.296971 0.966566
vt 0.291316 0.930372
vt 0.296971 0.930372
vt 0.291316 0.966566
vt 0.927047 0.704157
vt 0.924220 0.762973
vt 0.915738 0.704157
vt 0.927047 0.885129
vt 0.924220 0.774284
vt 0.924220 0.815003
vt 0.918565 0.774284
vt 0.924220 0.826313
vt 0.918565 0.826313
vt 0.918565 0.762973
vt 0.915738 0.885129
vt 0.918565 0.815003
vt 0.991587 0.704159
vt 0.988762 0.762975
vt 0.983111 0.762975
vt 0.991587 0.885130
vt 0.988762 0.774285
vt 0.988762 0.815004
vt 0.983111 0.774285
vt 0.983111 0.815004
vt 0.988762 0.826315
vt 0.983111 0.826315
vt 0.980285 0.704159
vt 0.980285 0.885130
vt 0.323038 0.930372
vt 0.334349 0.941683
vt 0.323038 0.941683
vt 0.334349 0.930372
vt 0.958769 0.885130
vt 0.970079 0.704159
vt 0.970079 0.885130
vt 0.958769 0.704159
vt 0.940565 0.186075
vt 0.951875 0.005103
vt 0.951875 0.186075
vt 0.940565 0.005103
vt 0.973389 0.005103
vt 0.970562 0.063919
vt 0.962081 0.005103
vt 0.973389 0.186075
vt 0.970562 0.075229
vt 0.970562 0.115948
vt 0.964908 0.075229
vt 0.970562 0.127259
vt 0.964908 0.127259
vt 0.964908 0.063919
vt 0.962081 0.186075
vt 0.964908 0.115948
vt 0.671366 0.941684
vt 0.660055 0.930373
vt 0.671366 0.930373
vt 0.660055 0.941684
vt 0.937252 0.885130
vt 0.948563 0.704159
vt 0.948563 0.885130
vt 0.937252 0.704159
vt 0.265249 0.941683
vt 0.253938 0.930372
vt 0.265249 0.930372
vt 0.253938 0.941683
vt 0.409841 0.892577
vt 0.421152 0.711606
vt 0.421152 0.892577
vt 0.409841 0.711606
vt 0.638539 0.930373
vt 0.649849 0.941684
vt 0.638539 0.941684
vt 0.649849 0.930373
vt 0.994897 0.005103
vt 0.992072 0.063919
vt 0.986421 0.063919
vt 0.994897 0.186075
vt 0.992072 0.075229
vt 0.992072 0.115948
vt 0.986421 0.075229
vt 0.986421 0.115948
vt 0.992072 0.127259
vt 0.986421 0.127259
vt 0.983595 0.005103
vt 0.983595 0.186075
vt 0.281110 0.966566
vt 0.275454 0.930372
vt 0.281110 0.930372
vt 0.275454 0.966566
vt 0.782219 0.937211
vt 0.770909 0.901018
vt 0.782219 0.901018
vt 0.770909 0.937211
vt 0.580625 0.928163
vt 0.574969 0.968882
vt 0.574969 0.928163
vt 0.580625 0.968882
vt 0.782219 0.890812
vt 0.770908 0.850093
vt 0.782219 0.850093
vt 0.770908 0.890812
vt 0.739186 0.941684
vt 0.733535 0.930373
vt 0.739186 0.930373
vt 0.733535 0.941684
vt 0.233658 0.930371
vt 0.228003 0.966565
vt 0.228003 0.930371
vt 0.233658 0.966565
vt 0.350209 0.941683
vt 0.344555 0.930372
vt 0.350209 0.930372
vt 0.344555 0.941683
vt 0.544171 0.895421
vt 0.532860 0.931615
vt 0.532860 0.895421
vt 0.544171 0.931615
vt 0.699607 0.941684
vt 0.693953 0.930373
vt 0.699607 0.930373
vt 0.693953 0.941684
vt 0.715464 0.941684
vt 0.709813 0.930373
vt 0.715464 0.930373
vt 0.709813 0.941684
vt 0.119065 0.936052
vt 0.107754 0.895334
vt 0.119065 0.895334
vt 0.107754 0.936052
vt 0.140581 0.936052
vt 0.129271 0.895334
vt 0.140581 0.895334
vt 0.129271 0.936052
vt 0.618002 0.968882
vt 0.612347 0.928164
vt 0.618002 0.928164
vt 0.612347 0.968882
vt 0.397322 0.938977
vt 0.386011 0.902784
vt 0.397322 0.902784
vt 0.386011 0.938977
vt 0.375805 0.938977
vt 0.364494 0.902784
vt 0.375805 0.902784
vt 0.364494 0.938977
vt 0.522654 0.931615
vt 0.511343 0.895421
vt 0.522654 0.895421
vt 0.511343 0.931615
vt 0.421152 0.938977
vt 0.409841 0.902783
vt 0.421152 0.902783
vt 0.409841 0.938977
vt 0.927049 0.895336
vt 0.915738 0.931531
vt 0.915738 0.895336
vt 0.927049 0.931531
vt 0.312832 0.930372
vt 0.307177 0.966566
vt 0.307177 0.930372
vt 0.312832 0.966566
vt 0.217797 0.930371
vt 0.212142 0.966565
vt 0.212142 0.930371
vt 0.217797 0.966565
vt 0.501137 0.930458
vt 0.491572 0.704243
vt 0.501137 0.704243
vt 0.491572 0.930458
vt 0.461481 0.704243
vt 0.451573 0.930458
vt 0.451573 0.704243
vt 0.461481 0.732520
vt 0.461481 0.902181
vt 0.461481 0.930458
vt 0.554376 0.704243
vt 0.554376 0.704243
vt 0.554376 0.704243
vt 0.826348 0.845542
vt 0.826348 0.704159
vt 0.826348 0.817266
vt 0.569314 0.850093
vt 0.580625 0.917958
vt 0.569314 0.917958
vt 0.580625 0.850093
vt 0.623658 0.917958
vt 0.612347 0.850093
vt 0.623658 0.850093
vt 0.612347 0.917958
vt 0.500336 0.467823
vt 0.559108 0.693952
vt 0.500336 0.694037
vt 0.559108 0.467738
vt 0.005103 0.704157
vt 0.063626 0.930371
vt 0.005103 0.930371
vt 0.421152 0.496946
vt 0.421152 0.701400
vt 0.414070 0.524321
vt 0.406987 0.522489
vt 0.385741 0.633824
vt 0.378659 0.661199
vt 0.371577 0.659367
vt 0.364494 0.686743
vt 0.378659 0.631992
vt 0.414070 0.495114
vt 0.421152 0.467738
vt 0.186075 0.937963
vt 0.186075 0.704157
vt 0.186075 0.908737
vt 0.471687 0.704243
vt 0.481366 0.704243
vt 0.471687 0.930458
vt 0.481366 0.930458
vt 0.431358 0.704243
vt 0.441367 0.704243
vt 0.431358 0.732520
vt 0.441367 0.930458
vt 0.431358 0.760797
vt 0.431358 0.873904
vt 0.431358 0.902181
vt 0.431358 0.930458
vt 0.602141 0.917958
vt 0.590830 0.917958
vt 0.602141 0.850093
vt 0.590830 0.850093
vt 0.760703 0.850093
vt 0.760703 0.917958
vt 0.749392 0.850093
vt 0.749392 0.917958
vt 0.490130 0.467823
vt 0.490130 0.694037
vt 0.431358 0.467738
vt 0.431358 0.693952
vt 0.569314 0.693953
vt 0.569314 0.665676
vt 0.628333 0.693953
vt 0.576691 0.665676
vt 0.576691 0.637399
vt 0.576691 0.524292
vt 0.576691 0.496015
vt 0.628333 0.467738
vt 0.569314 0.467738
vt 0.569314 0.496015
vt 0.569314 0.524292
vt 0.569314 0.637399
vt 0.367046 0.457531
vt 0.367046 0.005103
vt 0.005103 0.457531
vt 0.005103 0.005103
vt 0.739186 0.457532
vt 0.739186 0.005103
vt 0.377252 0.457532
vt 0.445115 0.344425
vt 0.377252 0.005103
vn 0.0000 0.0000 -1.0000
vn 0.0000 -1.0000 -0.0000
vn 0.0000 -0.0000 1.0000
vn 0.0000 1.0000 0.0000
vn 1.0000 0.0000 0.0000
vn -1.0000 0.0000 0.0000
vn -1.0000 0.0001 0.0001
vn -0.5000 -0.0000 0.8660
vn 0.5000 0.0000 -0.8660
vn 0.8660 0.0000 0.5000
vn -0.8659 0.0002 -0.5002
vn -0.8660 0.0000 -0.5000
vn -0.5000 0.0000 -0.8660
vn 0.5000 0.0000 0.8660
vn 0.8660 0.0000 -0.5000
vn -0.8660 0.0000 0.5000
s 1
f 1/1/1 2/2/1 3/3/1
f 2/2/1 1/1/1 4/4/1
f 5/5/2 6/6/2 7/7/2
f 6/6/2 5/5/2 8/8/2
f 8/8/2 5/5/2 9/9/2
f 9/9/2 5/5/2 10/10/2
f 11/11/3 5/12/3 7/13/3
f 5/12/3 11/11/3 12/14/3
f 13/15/2 14/16/2 15/17/2
f 14/16/2 13/15/2 16/18/2
f 17/19/4 11/20/4 18/21/4
f 11/20/4 17/19/4 12/22/4
f 12/22/4 17/19/4 19/23/4
f 12/22/4 19/23/4 20/24/4
f 21/25/5 2/26/5 4/27/5
f 2/26/5 21/25/5 22/28/5
f 23/29/3 24/30/3 25/31/3
f 24/30/3 23/29/3 129/32/3
f 24/33/2 26/34/2 25/35/2
f 26/34/2 24/33/2 140/36/2
f 1/37/4 21/38/4 4/39/4
f 21/38/4 1/37/4 27/40/4
f 27/40/4 1/37/4 28/41/4
f 28/41/4 1/37/4 29/42/4
f 5/43/6 20/44/6 10/45/6
f 20/44/6 5/43/6 12/46/6
f 30/47/5 31/48/5 14/49/5
f 31/48/5 30/47/5 32/50/5
f 31/48/5 32/50/5 33/51/5
f 33/51/5 32/50/5 34/52/5
f 35/53/5 14/49/5 31/48/5
f 14/49/5 35/53/5 15/54/5
f 15/54/5 35/53/5 34/52/5
f 15/54/5 34/52/5 32/50/5
f 36/55/2 2/56/2 22/57/2
f 2/56/2 36/55/2 3/58/2
f 3/58/2 36/55/2 37/59/2
f 3/58/2 37/59/2 38/60/2
f 11/61/5 6/62/5 18/63/5
f 6/62/5 11/61/5 7/64/5
f 39/65/2 31/66/2 33/67/2
f 31/66/2 39/65/2 40/68/2
f 38/69/6 1/70/6 3/71/6
f 1/70/6 38/69/6 29/72/6
f 20/73/1 9/74/1 10/75/1
f 9/74/1 20/73/1 19/76/1
f 35/77/3 40/78/3 41/79/3
f 40/78/3 35/77/3 31/80/3
f 140/81/6 41/82/6 42/83/6
f 41/82/6 140/81/6 24/84/6
f 41/82/6 24/84/6 43/85/6
f 43/85/6 24/84/6 39/86/6
f 40/87/6 42/83/6 41/82/6
f 42/83/6 40/87/6 129/88/6
f 129/88/6 40/87/6 39/86/6
f 129/88/6 39/86/6 24/84/6
f 140/89/1 44/90/1 26/91/1
f 44/90/1 140/89/1 42/92/1
f 42/93/4 23/94/4 44/95/4
f 23/94/4 42/93/4 129/96/4
f 17/97/1 6/98/1 8/99/1
f 6/98/1 17/97/1 18/100/1
f 45/101/6 26/102/6 46/103/6
f 26/102/6 45/101/6 47/104/6
f 26/102/6 47/104/6 25/105/6
f 25/105/6 47/104/6 23/106/6
f 44/107/6 46/103/6 26/102/6
f 46/103/6 44/107/6 48/108/6
f 48/108/6 44/107/6 23/106/6
f 48/108/6 23/106/6 47/104/6
f 48/109/6 47/110/6 49/111/7
f 28/112/3 38/113/3 37/114/3
f 38/113/3 28/112/3 29/115/3
f 15/116/3 50/117/3 13/118/3
f 50/117/3 15/116/3 32/119/3
f 51/120/5 52/121/5 53/122/5
f 52/121/5 51/120/5 54/123/5
f 52/121/5 54/123/5 50/124/5
f 50/124/5 54/123/5 13/125/5
f 16/126/5 53/122/5 52/121/5
f 53/122/5 16/126/5 55/127/5
f 55/127/5 16/126/5 13/125/5
f 55/127/5 13/125/5 54/123/5
f 55/127/5 54/123/5 56/128/5
f 41/129/4 34/130/4 35/131/4
f 34/130/4 41/129/4 43/132/4
f 21/133/3 36/134/3 22/135/3
f 36/134/3 21/133/3 27/136/3
f 39/137/1 34/138/1 43/139/1
f 34/138/1 39/137/1 33/140/1
f 52/141/1 14/142/1 16/143/1
f 14/142/1 52/141/1 30/144/1
f 52/145/4 32/146/4 30/147/4
f 32/146/4 52/145/4 50/148/4
f 57/149/2 58/150/2 59/151/2
f 58/150/2 57/149/2 60/152/2
f 61/153/5 62/154/5 63/155/5
f 62/154/5 61/153/5 64/156/5
f 65/157/5 66/158/5 67/159/5
f 66/158/5 65/157/5 68/160/5
f 69/161/4 70/162/4 71/163/4
f 70/162/4 69/161/4 72/164/4
f 73/165/4 65/166/4 67/167/4
f 65/166/4 73/165/4 74/168/4
f 64/169/2 75/170/2 62/171/2
f 75/170/2 64/169/2 76/172/2
f 77/173/2 78/174/2 79/175/2
f 78/174/2 77/173/2 80/176/2
f 81/177/2 82/178/2 83/179/2
f 82/178/2 81/177/2 84/180/2
f 85/181/1 86/182/1 87/183/1
f 86/182/1 85/181/1 88/184/1
f 86/182/1 88/184/1 89/185/1
f 89/185/1 88/184/1 84/186/1
f 89/185/1 84/186/1 90/187/1
f 84/186/1 88/184/1 91/188/1
f 91/188/1 88/184/1 92/189/1
f 93/190/1 87/183/1 86/182/1
f 87/183/1 93/190/1 94/191/1
f 94/191/1 93/190/1 90/187/1
f 94/191/1 92/189/1 88/184/1
f 94/191/1 90/187/1 81/192/1
f 81/192/1 90/187/1 84/186/1
f 94/191/1 81/192/1 92/189/1
f 95/193/3 66/194/3 96/195/3
f 66/194/3 95/193/3 97/196/3
f 66/194/3 97/196/3 67/197/3
f 67/197/3 97/196/3 79/198/3
f 67/197/3 79/198/3 73/199/3
f 73/199/3 79/198/3 78/200/3
f 79/198/3 97/196/3 98/201/3
f 98/201/3 97/196/3 99/202/3
f 96/195/3 100/203/3 95/193/3
f 100/203/3 96/195/3 101/204/3
f 101/204/3 96/195/3 73/199/3
f 101/204/3 73/199/3 78/200/3
f 101/204/3 78/200/3 99/202/3
f 101/204/3 99/202/3 97/196/3
f 100/205/2 87/206/2 95/207/2
f 87/206/2 100/205/2 85/208/2
f 102/209/6 103/210/6 104/211/6
f 103/210/6 102/209/6 105/212/6
f 100/213/6 88/214/6 85/215/6
f 88/214/6 100/213/6 101/216/6
f 104/217/1 106/218/1 107/219/1
f 106/218/1 104/217/1 103/220/1
f 106/218/1 103/220/1 74/221/1
f 74/221/1 103/220/1 80/222/1
f 74/221/1 80/222/1 65/223/1
f 80/222/1 103/220/1 108/224/1
f 108/224/1 103/220/1 109/225/1
f 68/226/1 107/219/1 106/218/1
f 107/219/1 68/226/1 110/227/1
f 110/227/1 68/226/1 65/223/1
f 110/227/1 109/225/1 103/220/1
f 110/227/1 65/223/1 77/228/1
f 77/228/1 65/223/1 80/222/1
f 110/227/1 77/228/1 109/225/1
f 103/229/4 111/230/4 110/231/4
f 111/230/4 103/229/4 105/232/4
f 111/233/5 107/234/5 110/235/5
f 107/234/5 111/233/5 112/236/5
f 88/237/4 97/238/4 94/239/4
f 97/238/4 88/237/4 101/240/4
f 97/241/5 87/242/5 94/243/5
f 87/242/5 97/241/5 95/244/5
f 102/245/2 107/246/2 112/247/2
f 107/246/2 102/245/2 104/248/2
f 112/249/3 59/250/3 58/251/3
f 59/250/3 112/249/3 111/252/3
f 59/250/3 111/252/3 71/253/3
f 71/253/3 111/252/3 62/254/3
f 71/253/3 62/254/3 69/255/3
f 69/255/3 62/254/3 75/256/3
f 62/254/3 111/252/3 63/257/3
f 63/257/3 111/252/3 113/258/3
f 58/251/3 102/259/3 112/249/3
f 102/259/3 58/251/3 105/260/3
f 105/260/3 58/251/3 69/255/3
f 105/260/3 69/255/3 75/256/3
f 105/260/3 75/256/3 113/258/3
f 105/260/3 113/258/3 111/252/3
f 93/261/2 114/262/2 115/263/2
f 114/262/2 93/261/2 86/264/2
f 76/265/6 113/266/6 75/267/6
f 113/266/6 76/265/6 116/268/6
f 99/269/4 109/270/4 98/271/4
f 109/270/4 99/269/4 108/272/4
f 109/273/5 79/274/5 98/275/5
f 79/274/5 109/273/5 77/276/5
f 70/277/3 60/278/3 57/279/3
f 60/278/3 70/277/3 72/280/3
f 117/281/4 90/282/4 118/283/4
f 90/282/4 117/281/4 89/284/4
f 119/285/1 83/286/1 82/287/1
f 83/286/1 119/285/1 120/288/1
f 118/289/5 93/290/5 115/291/5
f 93/290/5 118/289/5 90/292/5
f 117/293/1 115/294/1 114/295/1
f 115/294/1 117/293/1 118/296/1
f 61/297/3 76/298/3 64/299/3
f 76/298/3 61/297/3 116/300/3
f 106/301/6 73/302/6 96/303/6
f 73/302/6 106/301/6 74/304/6
f 80/305/6 99/306/6 78/307/6
f 99/306/6 80/305/6 108/308/6
f 68/309/2 96/310/2 66/311/2
f 96/310/2 68/309/2 106/312/2
f 86/313/6 117/314/6 114/315/6
f 117/314/6 86/313/6 89/316/6
f 60/317/6 69/318/6 58/319/6
f 69/318/6 60/317/6 72/320/6
f 70/321/5 59/322/5 71/323/5
f 59/322/5 70/321/5 57/324/5
f 84/325/6 119/326/6 82/327/6
f 119/326/6 84/325/6 91/328/6
f 120/329/5 81/330/5 83/331/5
f 81/330/5 120/329/5 92/332/5
f 119/333/4 92/334/4 120/335/4
f 92/334/4 119/333/4 91/336/4
f 113/337/4 61/338/4 63/339/4
f 61/338/4 113/337/4 116/340/4
f 121/341/8 122/342/8 123/343/8
f 122/342/8 121/341/8 124/344/8
f 24/345/9 125/346/9 126/347/9
f 125/346/9 24/345/9 127/348/9
f 128/349/9 125/346/9 127/348/9
f 125/346/9 128/349/9 129/350/9
f 128/351/9 127/352/9 130/353/8
f 128/354/9 130/355/8 131/356/2
f 24/357/2 123/358/2 122/359/2
f 123/358/2 24/357/2 126/360/2
f 125/361/4 124/362/4 121/363/4
f 124/362/4 125/361/4 129/364/4
f 125/365/10 123/366/10 126/367/10
f 123/366/10 125/365/10 121/368/10
f 124/369/11 24/370/12 122/371/12
f 132/372/12 124/373/11 133/374/12
f 133/374/12 124/373/11 130/375/12
f 130/375/12 124/373/11 134/376/12
f 134/376/12 124/373/11 135/377/12
f 135/377/12 124/373/11 128/378/12
f 128/378/12 124/373/11 129/379/12
f 131/380/12 130/375/12 134/376/12
f 127/381/12 24/382/12 132/372/12
f 24/383/12 124/384/11 132/385/12
f 136/386/13 137/387/13 138/388/13
f 139/389/13 138/388/13 137/387/13
f 140/390/14 141/391/14 142/392/14
f 143/393/14 142/392/14 141/391/14
f 144/394/14 142/392/14 143/393/14
f 145/395/14 144/394/14 143/393/14
f 146/396/14 145/395/14 143/393/14
f 42/397/14 146/396/14 143/393/14
f 141/398/2 140/399/2 136/400/2
f 137/401/2 136/400/2 140/399/2
f 143/402/4 138/403/4 42/404/4
f 139/405/4 42/404/4 138/403/4
f 143/406/15 141/407/15 138/408/15
f 136/409/15 138/408/15 141/407/15
f 140/410/16 142/411/16 137/412/16
f 147/413/16 137/412/16 142/411/16
f 148/414/16 137/412/16 147/413/16
f 149/415/16 137/412/16 148/414/16
f 150/416/16 137/412/16 149/415/16
f 137/412/16 150/416/16 139/417/16
f 139/417/16 150/416/16 42/418/16
f 146/419/16 42/418/16 150/416/16
f 149/415/16 148/414/16 145/420/16
f 144/421/16 145/420/16 148/414/16
f 9/9/2 36/55/2 8/8/2
f 36/55/2 9/9/2 37/59/2
f 27/422/5 51/120/5 36/423/5
f 51/120/5 27/422/5 17/424/5
f 51/120/5 17/424/5 54/123/5
f 54/123/5 17/424/5 56/128/5
f 56/128/5 17/424/5 55/127/5
f 53/122/5 36/423/5 51/120/5
f 36/423/5 53/122/5 8/425/5
f 8/425/5 53/122/5 55/127/5
f 8/425/5 55/127/5 17/424/5
f 28/41/4 17/19/4 27/40/4
f 17/19/4 28/41/4 19/23/4
f 37/426/6 45/101/6 28/427/6
f 45/101/6 37/426/6 9/428/6
f 45/101/6 9/428/6 47/104/6
f 47/104/6 9/428/6 49/429/7
f 49/429/7 9/428/6 48/108/6
f 46/103/6 28/427/6 45/101/6
f 28/427/6 46/103/6 19/430/6
f 19/430/6 46/103/6 48/108/6
f 19/430/6 48/108/6 9/428/6
f 135/377/12 131/380/12 134/376/12
f 131/380/12 135/377/12 128/378/12
f 133/374/12 127/381/12 132/372/12
f 127/381/12 133/374/12 130/375/12
f 145/420/16 146/419/16 149/415/16
f 150/416/16 149/415/16 146/419/16
f 142/411/16 144/421/16 147/413/16
f 148/414/16 147/413/16 144/421/16
