# Blender v2.92.0 OBJ File: 'OGConvert.blend'
# www.blender.org
o light_curvedCross
v -1.200000 5.400000 0.200000
v -1.600000 5.222222 0.200000
v -1.200000 5.222222 0.200000
v -1.600000 5.400000 0.200000
v -0.582633 5.373547 -0.100000
v -0.800000 5.400000 0.100000
v -0.582633 5.373547 0.100000
v -0.800000 5.400000 -0.100000
v -0.219026 4.916483 0.100000
v -0.331716 5.044181 -0.100000
v -0.219026 4.916483 -0.100000
v -0.331716 5.044181 0.100000
v -0.140255 4.765485 0.100000
v -0.140255 4.765485 -0.100000
v 0.140255 4.765485 0.100000
v 0.100000 4.600000 -0.100000
v 0.140255 4.765485 -0.100000
v 0.100000 4.600000 0.100000
v -0.800000 5.222222 0.100000
v -1.600000 5.400000 -0.200000
v -1.600000 5.222222 -0.200000
v -0.377957 5.295728 -0.100000
v -0.377957 5.295728 0.100000
v 0.630937 5.201647 0.100000
v 0.800000 5.222222 -0.100000
v 0.800000 5.222222 0.100000
v 0.630937 5.201647 -0.100000
v 1.200000 5.400000 0.200000
v 1.200000 5.222222 0.200000
v 0.800000 5.400000 0.100000
v 1.600000 5.400000 0.200000
v 1.600000 5.222222 0.200000
v -0.471744 5.141121 0.100000
v -0.471744 5.141121 -0.100000
v -1.200000 5.400000 -0.200000
v -0.800000 5.222222 -0.100000
v -1.200000 5.222222 -0.200000
v 0.331716 5.044181 0.100000
v 0.471744 5.141121 -0.100000
v 0.471744 5.141121 0.100000
v 0.331716 5.044181 -0.100000
v -0.630937 5.201647 -0.100000
v -0.630937 5.201647 0.100000
v 1.600000 5.222222 -0.200000
v 1.600000 5.400000 -0.200000
v -0.197920 5.171090 -0.100000
v -0.197920 5.171090 0.100000
v 0.582633 5.373547 -0.100000
v 0.377957 5.295728 0.100000
v 0.582633 5.373547 0.100000
v 0.377957 5.295728 -0.100000
v -0.100000 5.044181 -0.331715
v 0.100000 4.916483 -0.219026
v -0.100000 4.916483 -0.219026
v 0.100000 5.044181 -0.331715
v -0.200000 0.800000 0.200000
v -0.100000 1.200000 -0.100000
v -0.200000 0.800000 -0.200000
v -0.100000 1.200000 0.100000
v 0.200000 5.400000 1.200000
v 0.100000 5.222222 0.800000
v 0.100000 5.400000 0.800000
v 0.200000 5.222222 1.200000
v 0.053034 5.006907 0.053034
v 0.000000 4.905246 0.000000
v -0.053034 5.006907 0.053034
v 0.100000 5.373547 0.582634
v -0.100000 5.400000 0.800000
v -0.100000 5.373547 0.582634
v 0.200000 5.400000 1.600000
v -0.200000 5.222222 1.600000
v 0.200000 5.222222 1.600000
v -0.200000 5.400000 1.600000
v -0.200000 5.400000 -1.600000
v 0.200000 5.400000 -1.200000
v 0.200000 5.400000 -1.600000
v 0.100000 5.400000 -0.800000
v -0.100000 5.400000 -0.800000
v -0.200000 5.400000 -1.200000
v -0.100000 5.295728 -0.377957
v 0.100000 5.171090 -0.197920
v 0.100000 5.295728 -0.377957
v -0.100000 5.171090 -0.197920
v -0.100000 5.141121 -0.471744
v 0.100000 5.201647 -0.630937
v 0.100000 5.141121 -0.471744
v -0.100000 5.201647 -0.630937
v 0.100000 1.200000 0.100000
v -0.100000 4.600000 0.100000
v 0.100000 5.060128 0.100000
v 0.219026 4.916483 0.100000
v 0.197920 5.171090 0.100000
v -0.100000 5.060128 0.100000
v 0.200000 0.800000 0.200000
v 0.200000 0.000000 -0.200000
v 0.200000 0.800000 -0.200000
v 0.200000 -0.000000 0.200000
v 0.100000 5.060128 -0.100000
v -0.053034 5.006907 -0.053034
v 0.053034 5.006907 -0.053034
v -0.100000 5.060128 -0.100000
v -0.100000 5.373547 -0.582633
v 0.100000 5.373547 -0.582633
v 0.219026 4.916483 -0.100000
v -0.100000 5.222222 0.800000
v -0.200000 5.400000 1.200000
v -0.200000 5.222222 1.200000
v 1.200000 5.400000 -0.200000
v 0.800000 5.400000 -0.100000
v 1.200000 5.222222 -0.200000
v -0.100000 5.222222 -0.800000
v -0.200000 5.222222 -1.200000
v 0.100000 5.222222 -0.800000
v -0.100000 4.600000 -0.100000
v -0.200000 -0.000000 0.200000
v 0.100000 5.171090 0.197921
v -0.100000 5.171090 0.197921
v 0.100000 5.201647 0.630937
v -0.100000 5.201647 0.630937
v 0.197920 5.171090 -0.100000
v -0.100000 4.765485 0.140255
v 0.100000 4.765485 0.140255
v 0.100000 1.200000 -0.100000
v -0.200000 0.000000 -0.200000
v 0.100000 5.141121 0.471745
v -0.100000 5.044181 0.331716
v 0.100000 5.044181 0.331716
v -0.100000 5.141121 0.471745
v 0.100000 4.765485 -0.140254
v 0.100000 4.916483 0.219026
v 0.100000 5.295728 0.377958
v 0.200000 5.222222 -1.600000
v -0.200000 5.222222 -1.600000
v -0.100000 4.765485 -0.140254
v -0.100000 5.295728 0.377958
v -0.100000 4.916483 0.219026
v 0.200000 5.222222 -1.200000
vt 0.509144 0.417918
vt 0.571570 0.358731
vt 0.541406 0.431323
vt 0.539309 0.345325
vt 0.866501 0.704938
vt 0.827196 0.747656
vt 0.827196 0.704938
vt 0.866501 0.747656
vt 0.285102 0.029572
vt 0.324407 0.004231
vt 0.324407 0.029572
vt 0.285102 0.004231
vt 0.285102 0.059418
vt 0.324407 0.059418
vt 0.237335 0.059418
vt 0.198029 0.092026
vt 0.198029 0.059418
vt 0.237335 0.092026
vt 0.479182 0.490594
vt 0.511443 0.504000
vt 0.929552 0.453921
vt 0.894616 0.375311
vt 0.929552 0.375311
vt 0.894616 0.453921
vt 0.866501 0.664714
vt 0.827196 0.664714
vt 0.914269 0.063036
vt 0.953574 0.096261
vt 0.914269 0.096261
vt 0.953574 0.063036
vt 0.395389 0.605364
vt 0.397688 0.519282
vt 0.427651 0.591958
vt 0.365427 0.532687
vt 0.425554 0.677956
vt 0.457815 0.664551
vt 0.665673 0.713938
vt 0.626368 0.686419
vt 0.665673 0.686419
vt 0.626368 0.713938
vt 0.622900 0.264270
vt 0.625199 0.178188
vt 0.655161 0.250864
vt 0.592937 0.191593
vt 0.914269 0.004231
vt 0.953574 0.031750
vt 0.914269 0.031750
vt 0.953574 0.004231
vt 0.665673 0.778449
vt 0.626368 0.745223
vt 0.665673 0.745223
vt 0.626368 0.778449
vt 0.807543 0.826267
vt 0.886153 0.826267
vt 0.807543 0.904877
vt 0.886153 0.904877
vt 0.929552 0.540994
vt 0.894616 0.462384
vt 0.929552 0.462384
vt 0.894616 0.540994
vt 0.866501 0.629332
vt 0.827196 0.629332
vt 0.653064 0.336863
vt 0.685326 0.323457
vt 0.485930 0.762025
vt 0.525235 0.721801
vt 0.525235 0.762025
vt 0.485930 0.721801
vt 0.023884 0.004231
vt 0.063189 0.029572
vt 0.023884 0.029572
vt 0.063189 0.004231
vt 0.265450 0.838558
vt 0.324407 0.760171
vt 0.344060 0.838558
vt 0.285102 0.760171
vt 0.622900 0.417918
vt 0.625199 0.504000
vt 0.592937 0.490594
vt 0.655161 0.431323
vt 0.903846 0.569318
vt 0.914269 0.549457
vt 0.924691 0.569318
vt 0.827196 0.079837
vt 0.866501 0.122555
vt 0.827196 0.122555
vt 0.866501 0.079837
vt 0.563317 0.765029
vt 0.598253 0.686419
vt 0.598253 0.765029
vt 0.563317 0.686419
vt 0.886154 0.345325
vt 0.807543 0.423935
vt 0.807543 0.345325
vt 0.827196 0.502546
vt 0.866501 0.502546
vt 0.886154 0.423935
vt 0.866501 0.585488
vt 0.827196 0.620870
vt 0.827196 0.585488
vt 0.866501 0.620870
vt 0.398857 0.908150
vt 0.438162 0.876865
vt 0.438162 0.908150
vt 0.398857 0.876865
vt 0.150262 0.907974
vt 0.110957 0.239829
vt 0.150262 0.239829
vt 0.110957 0.907974
vt 0.430820 0.365109
vt 0.374316 0.380022
vt 0.457815 0.345325
vt 0.409359 0.390791
vt 0.394683 0.420871
vt 0.387651 0.453594
vt 0.361564 0.406160
vt 0.388673 0.487048
vt 0.352522 0.448232
vt 0.353835 0.491244
vt 0.488071 0.643260
vt 0.544575 0.658172
vt 0.571570 0.677956
vt 0.523114 0.632490
vt 0.508439 0.602410
vt 0.501407 0.569687
vt 0.475319 0.617122
vt 0.502428 0.536233
vt 0.466277 0.575050
vt 0.467591 0.532037
vt 0.256987 0.838558
vt 0.178377 0.995769
vt 0.178377 0.838558
vt 0.256987 0.995769
vt 0.598253 0.890782
vt 0.568178 0.880426
vt 0.589023 0.880426
vt 0.558948 0.890782
vt 0.558948 0.912373
vt 0.598253 0.912373
vt 0.866501 0.545264
vt 0.827196 0.545264
vt 0.237335 0.029572
vt 0.198029 0.029572
vt 0.397688 0.178188
vt 0.395389 0.264270
vt 0.365427 0.191593
vt 0.427651 0.250864
vt 0.466277 0.961964
vt 0.544888 0.883353
vt 0.544888 0.961964
vt 0.466277 0.883353
vt 0.525235 0.804743
vt 0.485930 0.804743
vt 0.706693 0.149500
vt 0.768916 0.090229
vt 0.738954 0.162906
vt 0.736655 0.076824
vt 0.653064 0.345325
vt 0.685326 0.358731
vt 0.807543 0.279776
vt 0.807543 0.201166
vt 0.886154 0.279776
vt 0.886154 0.201166
vt 0.799081 0.017637
vt 0.766819 0.004231
vt 0.511443 0.162906
vt 0.509144 0.076824
vt 0.541406 0.090229
vt 0.479182 0.149500
vt 0.438162 0.843639
vt 0.398857 0.843639
vt 0.285102 0.092026
vt 0.324407 0.092026
vt 0.237335 0.004231
vt 0.198029 0.004231
vt 0.169914 0.161442
vt 0.091304 0.004231
vt 0.169914 0.004231
vt 0.091304 0.161442
vt 0.933921 0.579674
vt 0.894616 0.579674
vt 0.894616 0.601265
vt 0.933921 0.601265
vt 0.713441 0.778449
vt 0.752746 0.745223
vt 0.752746 0.778449
vt 0.713441 0.745223
vt 0.525235 0.686419
vt 0.485930 0.686419
vt 0.457815 0.323457
vt 0.425554 0.336863
vt 0.110957 0.940582
vt 0.150262 0.940582
vt 0.198029 0.760171
vt 0.237334 0.760171
vt 0.004231 0.838558
vt 0.082842 0.995769
vt 0.004231 0.995769
vt 0.082842 0.838558
vt 0.752746 0.713938
vt 0.713441 0.686419
vt 0.752746 0.686419
vt 0.713441 0.713938
vt 0.772086 0.365109
vt 0.715581 0.380022
vt 0.799081 0.345325
vt 0.702829 0.406160
vt 0.750624 0.390791
vt 0.735949 0.420871
vt 0.693788 0.448232
vt 0.728917 0.453594
vt 0.695101 0.491244
vt 0.729938 0.487048
vt 0.706693 0.532687
vt 0.738954 0.519282
vt 0.589074 0.617122
vt 0.685326 0.677956
vt 0.601826 0.643260
vt 0.658331 0.658172
vt 0.636869 0.632490
vt 0.580033 0.575050
vt 0.622194 0.602410
vt 0.615162 0.569687
vt 0.581346 0.532037
vt 0.616183 0.536233
vt 0.023884 0.760171
vt 0.063189 0.760171
vt 0.598253 0.773492
vt 0.563317 0.852102
vt 0.563317 0.773492
vt 0.598253 0.852102
vt 0.023884 0.059418
vt 0.063189 0.092026
vt 0.023884 0.092026
vt 0.063189 0.059418
vt 0.398857 0.935669
vt 0.438162 0.935669
vt 0.866501 0.004231
vt 0.827196 0.039613
vt 0.827196 0.004231
vt 0.866501 0.039613
vt 0.715581 0.302166
vt 0.772086 0.317078
vt 0.799081 0.336863
vt 0.750624 0.291397
vt 0.735949 0.261316
vt 0.728917 0.228594
vt 0.702829 0.276028
vt 0.729938 0.195139
vt 0.693788 0.233956
vt 0.695101 0.190943
vt 0.658331 0.024015
vt 0.601826 0.038928
vt 0.685326 0.004231
vt 0.636869 0.049697
vt 0.622194 0.079777
vt 0.615162 0.112500
vt 0.589074 0.065066
vt 0.616183 0.145955
vt 0.580033 0.107138
vt 0.581346 0.150151
vt 0.150262 0.995769
vt 0.110957 0.970428
vt 0.150262 0.970428
vt 0.110957 0.995769
vt 0.539309 0.004231
vt 0.571570 0.017637
vt 0.924691 0.649194
vt 0.903846 0.649194
vt 0.914269 0.629332
vt 0.502428 0.195139
vt 0.467591 0.190943
vt 0.501407 0.228594
vt 0.466277 0.233956
vt 0.508439 0.261316
vt 0.475319 0.276028
vt 0.523114 0.291397
vt 0.544575 0.317078
vt 0.488071 0.302166
vt 0.571570 0.336863
vt 0.430820 0.024015
vt 0.374316 0.038928
vt 0.457815 0.004231
vt 0.361564 0.065066
vt 0.409359 0.049697
vt 0.352522 0.107138
vt 0.394683 0.079777
vt 0.387651 0.112500
vt 0.353835 0.150151
vt 0.388673 0.145955
vt 0.933921 0.741412
vt 0.924691 0.709465
vt 0.933921 0.719821
vt 0.894616 0.741412
vt 0.903846 0.709465
vt 0.894616 0.719821
vt 0.265450 0.995769
vt 0.344060 0.995769
vt 0.736655 0.605364
vt 0.799081 0.664551
vt 0.766819 0.677956
vt 0.768916 0.591958
vt 0.578600 0.860564
vt 0.914269 0.689603
vt 0.894616 0.659550
vt 0.933921 0.681141
vt 0.894616 0.681141
vt 0.933921 0.659550
vt 0.685325 0.857059
vt 0.606715 0.857059
vt 0.685325 0.935669
vt 0.606715 0.935669
vt 0.894616 0.174871
vt 0.973226 0.253482
vt 0.894616 0.253482
vt 0.973226 0.174871
vt 0.772398 0.935669
vt 0.772398 0.857059
vt 0.693788 0.935669
vt 0.693788 0.857059
vt 0.457815 0.686419
vt 0.457815 0.765029
vt 0.379205 0.686419
vt 0.379205 0.765029
vt 0.894616 0.288238
vt 0.973226 0.366849
vt 0.894616 0.366849
vt 0.973226 0.288238
vn 0.1222 -0.0000 0.9925
vn 0.0000 -0.0000 1.0000
vn 0.2399 0.9708 0.0000
vn 0.0561 0.9984 0.0000
vn -0.8242 -0.5662 0.0000
vn -0.6644 -0.7474 0.0000
vn -0.9360 -0.3520 0.0000
vn 0.9360 -0.3520 0.0000
vn 0.9717 -0.2364 0.0000
vn 0.2425 0.0000 0.9701
vn -1.0000 0.0000 0.0000
vn 0.4657 0.8849 0.0000
vn 0.2399 -0.9708 0.0000
vn 0.1208 -0.9927 0.0000
vn -0.1222 -0.0000 0.9925
vn -0.2425 0.0000 0.9701
vn -0.4657 -0.8849 0.0000
vn 0.1222 0.0000 -0.9925
vn 0.2425 0.0000 -0.9701
vn 0.6644 -0.7474 0.0000
vn 0.4657 -0.8849 0.0000
vn -0.1208 -0.9927 0.0000
vn -0.2399 -0.9708 0.0000
vn 0.0000 1.0000 0.0000
vn 1.0000 0.0000 0.0000
vn 0.6644 0.7474 0.0000
vn 0.0000 0.0000 -1.0000
vn -0.2399 0.9708 0.0000
vn -0.4657 0.8849 0.0000
vn 0.0000 -0.7474 -0.6644
vn 0.0000 -0.5662 -0.8242
vn -0.9937 0.1122 0.0000
vn -0.9701 0.2425 0.0000
vn 0.9925 0.0000 -0.1222
vn 0.9701 0.0000 -0.2425
vn 0.0000 0.5968 -0.8024
vn 0.0000 0.4625 -0.8866
vn 0.0000 0.9708 -0.2399
vn 0.0000 0.9984 -0.0561
vn 0.0000 0.9984 0.0561
vn 0.0000 0.8849 0.4657
vn 0.0000 0.7474 0.6644
vn 0.0000 -0.8849 -0.4657
vn 0.0000 -0.9708 -0.2399
vn 0.9937 0.1122 0.0000
vn 0.0000 0.6617 0.7498
vn 0.0000 0.5968 0.8024
vn 0.0000 0.9708 0.2399
vn 0.8242 -0.5662 0.0000
vn -0.9701 0.0000 -0.2425
vn -0.9925 0.0000 -0.1222
vn -0.0561 0.9984 0.0000
vn -0.2425 0.0000 -0.9701
vn -0.1222 0.0000 -0.9925
vn -0.9701 0.0000 0.2425
vn -0.9925 0.0000 0.1222
vn 0.0000 -0.9927 -0.1208
vn -0.9717 -0.2364 0.0000
vn 0.0000 0.1122 0.9937
vn 0.0000 0.6617 -0.7498
vn 0.0000 0.7474 -0.6644
vn 0.0000 -0.9927 0.1208
vn 0.0000 -0.9708 0.2399
vn -0.6644 0.7474 -0.0000
vn 0.0000 -0.2364 0.9717
vn 0.0000 -0.3520 0.9360
vn 0.9701 0.2425 0.0000
vn 0.0000 0.1122 -0.9937
vn 0.0000 -0.8849 0.4657
vn 0.0000 -0.7474 0.6644
vn 0.0000 0.2425 -0.9701
vn 0.0000 -0.3520 -0.9360
vn 0.0000 -0.2364 -0.9717
vn 0.0000 0.8849 -0.4657
vn 0.0000 0.2425 0.9701
vn 0.0000 -0.5662 0.8242
vn -0.8024 0.5968 -0.0000
vn -0.8866 0.4625 0.0000
vn 0.8024 0.5968 0.0000
vn 0.7498 0.6617 0.0000
vn 0.9925 0.0000 0.1222
vn 0.9701 0.0000 0.2425
vn 0.0000 0.4625 0.8866
vn 0.8866 0.4625 0.0000
vn -0.7498 0.6617 0.0000
vn 0.0000 -1.0000 0.0000
s 1
f 1/1/1 2/2/2 3/3/1
f 2/2/2 1/1/1 4/4/2
f 5/5/3 6/6/4 7/7/3
f 6/6/4 5/5/3 8/8/4
f 9/9/5 10/10/6 11/11/5
f 10/10/6 9/9/5 12/12/6
f 13/13/7 11/11/5 14/14/7
f 11/11/5 13/13/7 9/9/5
f 15/15/8 16/16/9 17/17/8
f 16/16/9 15/15/8 18/18/9
f 6/19/10 3/3/1 19/20/10
f 3/3/1 6/19/10 1/1/1
f 2/21/11 20/22/11 21/23/11
f 20/22/11 2/21/11 4/24/11
f 22/25/12 7/7/3 23/26/12
f 7/7/3 22/25/12 5/5/3
f 24/27/13 25/28/14 26/29/14
f 25/28/14 24/27/13 27/30/13
f 28/31/15 26/32/16 29/33/15
f 26/32/16 28/31/15 30/34/16
f 31/35/2 29/33/15 32/36/2
f 29/33/15 31/35/2 28/31/15
f 33/37/17 10/38/6 12/39/6
f 10/38/6 33/37/17 34/40/17
f 35/41/18 36/42/19 37/43/18
f 36/42/19 35/41/18 8/44/19
f 38/45/20 39/46/21 40/47/21
f 39/46/21 38/45/20 41/48/20
f 19/49/22 42/50/23 43/51/23
f 42/50/23 19/49/22 36/52/22
f 8/8/4 1/53/24 6/6/4
f 1/53/24 8/8/4 35/54/24
f 1/53/24 35/54/24 4/55/24
f 4/55/24 35/54/24 20/56/24
f 31/57/25 44/58/25 45/59/25
f 44/58/25 31/57/25 32/60/25
f 43/51/23 34/40/17 33/37/17
f 34/40/17 43/51/23 42/50/23
f 46/61/26 23/26/12 47/62/26
f 23/26/12 46/61/26 22/25/12
f 20/63/27 37/43/18 21/64/27
f 37/43/18 20/63/27 35/41/18
f 48/65/28 49/66/29 50/67/28
f 49/66/29 48/65/28 51/68/29
f 52/69/30 53/70/31 54/71/31
f 53/70/31 52/69/30 55/72/30
f 56/73/32 57/74/33 58/75/32
f 57/74/33 56/73/32 59/76/33
f 60/77/34 61/78/35 62/79/35
f 61/78/35 60/77/34 63/80/34
f 64/81/36 65/82/37 66/83/36
f 67/84/38 68/85/39 62/86/39
f 68/85/39 67/84/38 69/87/38
f 70/88/2 71/89/2 72/90/2
f 71/89/2 70/88/2 73/91/2
f 74/92/24 75/93/24 76/94/24
f 75/93/24 74/92/24 77/95/40
f 77/95/40 74/92/24 78/96/40
f 78/96/40 74/92/24 79/97/24
f 80/98/41 81/99/42 82/100/41
f 81/99/42 80/98/41 83/101/42
f 84/102/43 85/103/44 86/104/43
f 85/103/44 84/102/43 87/105/44
f 18/106/2 59/107/2 88/108/2
f 59/107/2 18/106/2 89/109/2
f 15/110/2 90/111/2 18/112/2
f 90/111/2 15/110/2 91/113/2
f 90/111/2 91/113/2 38/114/2
f 90/111/2 38/114/2 40/115/2
f 90/111/2 40/115/2 92/116/2
f 92/116/2 40/115/2 24/117/2
f 92/116/2 24/117/2 49/118/2
f 49/118/2 24/117/2 26/32/2
f 49/118/2 26/32/2 30/34/2
f 49/118/2 30/34/2 50/119/2
f 93/120/2 13/121/2 89/122/2
f 13/121/2 93/120/2 9/123/2
f 9/123/2 93/120/2 12/124/2
f 12/124/2 93/120/2 33/125/2
f 33/125/2 93/120/2 47/126/2
f 33/125/2 47/126/2 43/127/2
f 43/127/2 47/126/2 23/128/2
f 43/127/2 23/128/2 19/20/2
f 19/20/2 23/128/2 6/19/2
f 6/19/2 23/128/2 7/129/2
f 94/130/45 95/131/25 96/132/45
f 95/131/25 94/130/45 97/133/25
f 98/134/46 99/135/47 100/136/47
f 99/135/47 98/134/46 101/137/46
f 101/137/46 98/134/46 83/138/42
f 83/138/42 98/134/46 81/139/42
f 77/95/40 102/140/48 103/141/48
f 102/140/48 77/95/40 78/96/40
f 91/142/49 17/17/8 104/143/49
f 17/17/8 91/142/49 15/15/8
f 105/144/50 106/145/51 68/146/50
f 106/145/51 105/144/50 107/147/51
f 45/148/24 28/149/24 31/150/24
f 28/149/24 45/148/24 108/151/24
f 28/149/24 108/151/24 30/152/52
f 30/152/52 108/151/24 109/153/52
f 109/154/53 110/155/54 25/156/53
f 110/155/54 109/154/53 108/157/54
f 70/158/25 63/80/34 60/77/34
f 63/80/34 70/158/25 72/159/25
f 109/153/52 50/67/28 30/152/52
f 50/67/28 109/153/52 48/65/28
f 62/86/39 70/160/24 60/161/24
f 70/160/24 62/86/39 73/162/24
f 73/162/24 62/86/39 68/85/39
f 73/162/24 68/85/39 106/163/24
f 108/157/54 44/164/27 110/155/54
f 44/164/27 108/157/54 45/165/27
f 111/166/55 79/167/56 112/168/56
f 79/167/56 111/166/55 78/169/55
f 87/105/44 113/170/57 85/103/44
f 113/170/57 87/105/44 111/171/57
f 89/172/58 14/14/7 114/173/58
f 14/14/7 89/172/58 13/13/7
f 38/174/20 104/143/49 41/175/20
f 104/143/49 38/174/20 91/142/49
f 94/176/59 115/177/2 97/178/2
f 115/177/2 94/176/59 56/179/59
f 93/180/60 64/81/36 66/83/36
f 64/81/36 93/180/60 90/181/60
f 90/181/60 93/180/60 116/182/61
f 116/182/61 93/180/60 117/183/61
f 105/184/62 118/185/63 61/186/62
f 118/185/63 105/184/62 119/187/63
f 51/68/29 92/188/64 49/66/29
f 92/188/64 51/68/29 120/189/64
f 40/47/21 27/30/13 24/27/13
f 27/30/13 40/47/21 39/46/21
f 71/190/11 106/145/51 107/147/51
f 106/145/51 71/190/11 73/191/11
f 18/106/65 121/192/66 89/109/65
f 121/192/66 18/106/65 122/193/66
f 123/194/67 94/130/45 96/132/45
f 94/130/45 123/194/67 88/195/67
f 58/196/68 95/197/27 124/198/27
f 95/197/27 58/196/68 96/199/68
f 125/200/69 126/201/70 127/202/70
f 126/201/70 125/200/69 128/203/69
f 18/18/25 123/194/25 16/16/25
f 123/194/25 18/18/25 88/195/25
f 129/204/25 98/205/25 16/206/25
f 129/204/25 81/207/25 98/205/25
f 53/208/25 81/207/25 129/204/25
f 55/209/25 81/207/25 53/208/25
f 55/209/25 82/210/25 81/207/25
f 86/211/25 82/210/25 55/209/25
f 86/211/25 103/212/25 82/210/25
f 85/213/25 103/212/25 86/211/25
f 85/213/25 77/214/25 103/212/25
f 77/214/25 85/213/25 113/215/25
f 116/216/25 18/217/25 90/218/25
f 18/217/25 116/216/25 122/219/25
f 122/219/25 116/216/25 130/220/25
f 130/220/25 116/216/25 131/221/25
f 130/220/25 131/221/25 127/222/25
f 127/222/25 131/221/25 125/223/25
f 125/223/25 131/221/25 67/224/25
f 125/223/25 67/224/25 118/225/25
f 118/225/25 67/224/25 62/79/25
f 118/225/25 62/79/25 61/78/25
f 57/226/71 96/199/68 58/196/68
f 96/199/68 57/226/71 123/227/71
f 74/228/27 132/229/27 133/230/27
f 132/229/27 74/228/27 76/231/27
f 134/232/72 16/233/73 114/234/73
f 16/233/73 134/232/72 129/235/72
f 52/236/30 86/104/43 55/237/30
f 86/104/43 52/236/30 84/102/43
f 117/238/61 131/239/74 116/240/61
f 131/239/74 117/238/61 135/241/74
f 88/108/75 56/179/59 94/176/59
f 56/179/59 88/108/75 59/107/75
f 98/242/27 17/243/27 16/244/27
f 17/243/27 98/242/27 104/245/27
f 104/245/27 98/242/27 41/246/27
f 41/246/27 98/242/27 39/247/27
f 39/247/27 98/242/27 120/248/27
f 39/247/27 120/248/27 27/249/27
f 27/249/27 120/248/27 51/250/27
f 27/249/27 51/250/27 25/156/27
f 25/156/27 51/250/27 109/154/27
f 109/154/27 51/250/27 48/251/27
f 123/227/27 114/234/27 16/233/27
f 114/234/27 123/227/27 57/226/27
f 14/252/27 101/253/27 114/254/27
f 101/253/27 14/252/27 11/255/27
f 101/253/27 11/255/27 10/256/27
f 101/253/27 10/256/27 34/257/27
f 101/253/27 34/257/27 46/258/27
f 46/258/27 34/257/27 42/259/27
f 46/258/27 42/259/27 22/260/27
f 22/260/27 42/259/27 36/42/27
f 22/260/27 36/42/27 8/44/27
f 22/260/27 8/44/27 5/261/27
f 54/71/31 129/235/72 134/232/72
f 129/235/72 54/71/31 53/70/31
f 135/241/74 67/84/38 131/239/74
f 67/84/38 135/241/74 69/87/38
f 127/262/70 136/263/76 130/264/76
f 136/263/76 127/262/70 126/265/70
f 112/168/56 74/266/11 133/267/11
f 74/266/11 112/168/56 79/167/56
f 102/140/48 82/100/41 103/141/48
f 82/100/41 102/140/48 80/98/41
f 64/268/77 100/269/77 65/270/78
f 87/271/11 78/169/11 111/166/11
f 78/169/11 87/271/11 102/272/11
f 102/272/11 87/271/11 84/273/11
f 102/272/11 84/273/11 80/274/11
f 80/274/11 84/273/11 52/275/11
f 80/274/11 52/275/11 83/276/11
f 83/276/11 52/275/11 54/277/11
f 83/276/11 54/277/11 134/278/11
f 83/276/11 134/278/11 101/279/11
f 101/279/11 134/278/11 114/280/11
f 59/76/11 114/173/11 57/74/11
f 114/173/11 59/76/11 89/172/11
f 121/281/11 93/282/11 89/283/11
f 93/282/11 121/281/11 117/284/11
f 117/284/11 121/281/11 136/285/11
f 117/284/11 136/285/11 135/286/11
f 135/286/11 136/285/11 126/287/11
f 135/286/11 126/287/11 128/288/11
f 135/286/11 128/288/11 69/289/11
f 69/289/11 128/288/11 119/290/11
f 69/289/11 119/290/11 68/146/11
f 68/146/11 119/290/11 105/144/11
f 46/291/26 99/292/79 101/293/80
f 99/292/79 46/291/26 47/294/26
f 99/292/79 47/294/26 66/295/79
f 66/295/79 47/294/26 93/296/80
f 118/185/63 128/203/69 125/200/69
f 128/203/69 118/185/63 119/187/63
f 115/297/11 58/75/32 124/298/11
f 58/75/32 115/297/11 56/73/32
f 75/299/81 132/300/25 76/301/25
f 132/300/25 75/299/81 137/302/81
f 77/214/82 137/302/81 75/299/81
f 137/302/81 77/214/82 113/215/82
f 130/264/76 121/192/66 122/193/66
f 121/192/66 130/264/76 136/263/76
f 99/135/47 65/303/83 100/136/47
f 66/295/79 65/304/84 99/292/79
f 98/305/85 92/306/64 120/307/64
f 92/306/64 98/305/85 100/269/77
f 92/306/64 100/269/77 64/268/77
f 92/306/64 64/268/77 90/308/85
f 3/309/86 36/52/86 19/49/86
f 36/52/86 3/309/86 37/310/86
f 37/310/86 3/309/86 2/311/86
f 37/310/86 2/311/86 21/312/86
f 29/313/86 44/314/86 32/315/86
f 44/314/86 29/313/86 110/316/86
f 110/316/86 29/313/86 26/29/86
f 110/316/86 26/29/86 25/28/86
f 72/317/86 61/186/86 63/318/86
f 61/186/86 72/317/86 71/319/86
f 61/186/86 71/319/86 105/184/86
f 105/184/86 71/319/86 107/320/86
f 113/170/86 132/321/86 137/322/86
f 132/321/86 113/170/86 133/323/86
f 133/323/86 113/170/86 111/171/86
f 133/323/86 111/171/86 112/324/86
f 115/325/86 95/326/86 97/327/86
f 95/326/86 115/325/86 124/328/86
