# Blender v2.92.0 OBJ File: 'kenney_OGConvert.blend'
# www.blender.org
o road_intersectionLine
v 0.500000 -0.000000 0.500000
v 0.400000 0.010000 0.500000
v -0.500000 -0.000000 0.500000
v 0.500000 0.020000 0.500000
v 0.300000 0.010000 0.500000
v 0.400000 0.020000 0.500000
v -0.300000 0.010000 0.500000
v -0.400000 0.010000 0.500000
v -0.500000 0.020000 0.500000
v 0.010000 0.010000 0.500000
v -0.010000 0.010000 0.500000
v -0.400000 0.020000 0.500000
v -0.500000 0.000000 -0.500000
v -0.500000 0.010000 -0.400000
v -0.500000 0.020000 -0.500000
v -0.500000 0.010000 -0.300000
v -0.500000 0.010000 -0.010000
v -0.500000 0.010000 0.010000
v -0.500000 0.010000 0.300000
v -0.500000 0.010000 0.400000
v -0.500000 0.020000 0.400000
v -0.500000 0.020000 -0.400000
v 0.500000 0.010000 0.400000
v 0.500000 0.020000 0.400000
v 0.500000 0.010000 0.300000
v 0.500000 0.010000 0.010000
v 0.500000 0.010000 -0.010000
v 0.500000 0.010000 -0.300000
v 0.500000 0.010000 -0.400000
v 0.500000 0.000000 -0.500000
v 0.500000 0.020000 -0.400000
v 0.500000 0.020000 -0.500000
v 0.300000 0.010000 0.300000
v 0.010000 0.010000 0.010000
v -0.010000 0.010000 0.010000
v -0.300000 0.010000 0.300000
v -0.400000 0.010000 0.400000
v -0.400000 0.020000 0.400000
v 0.400000 0.020000 0.400000
v 0.400000 0.010000 0.400000
vt 0.978790 0.001717
vt 0.983756 0.051373
vt 0.978790 0.498283
vt 0.988721 0.001717
vt 0.983756 0.101030
vt 0.988721 0.051373
vt 0.983756 0.398970
vt 0.983756 0.448627
vt 0.988721 0.498283
vt 0.280532 0.501717
vt 0.280532 0.799657
vt 0.280532 0.655652
vt 0.320996 0.501717
vt 0.320996 0.501717
vt 0.320996 0.501717
vt 0.988721 0.448627
vt 0.961992 0.001717
vt 0.957026 0.051373
vt 0.952060 0.001717
vt 0.961992 0.498283
vt 0.957026 0.101030
vt 0.957026 0.245034
vt 0.957026 0.254966
vt 0.957026 0.398970
vt 0.957026 0.448627
vt 0.952060 0.448627
vt 0.952060 0.498283
vt 0.952060 0.051373
vt 0.975356 0.498283
vt 0.970391 0.448627
vt 0.975356 0.448627
vt 0.965425 0.498283
vt 0.970391 0.398970
vt 0.970391 0.254966
vt 0.970391 0.245034
vt 0.970391 0.101030
vt 0.970391 0.051373
vt 0.965425 0.001717
vt 0.975356 0.051373
vt 0.975356 0.001717
vt 0.551373 0.001717
vt 0.695378 0.498283
vt 0.551373 0.498283
vt 0.695378 0.001717
vt 0.705309 0.498283
vt 0.849313 0.398970
vt 0.849313 0.498283
vt 0.705309 0.254966
vt 0.948627 0.398970
vt 0.948627 0.254966
vt 0.705309 0.001717
vt 0.948627 0.245034
vt 0.705309 0.245034
vt 0.849313 0.101030
vt 0.849313 0.001717
vt 0.948627 0.101030
vt 0.064738 0.501717
vt 0.054807 0.998283
vt 0.054807 0.501717
vt 0.064738 0.998283
vt 0.051373 0.998283
vt 0.001717 0.501717
vt 0.051373 0.501717
vt 0.001717 0.998283
vt 0.498283 0.498283
vt 0.001717 0.001717
vt 0.498283 0.001717
vt 0.001717 0.498283
vt 0.309163 0.501717
vt 0.304197 0.551373
vt 0.304197 0.501717
vt 0.309163 0.551373
vt 0.997120 0.001717
vt 0.992155 0.498283
vt 0.992155 0.001717
vt 0.997120 0.498283
vt 0.292365 0.551373
vt 0.287399 0.501717
vt 0.292365 0.501717
vt 0.287399 0.551373
vt 0.117828 0.501717
vt 0.068172 0.551373
vt 0.068172 0.501717
vt 0.117828 0.551373
vt 0.277099 0.551373
vt 0.227442 0.501717
vt 0.277099 0.501717
vt 0.227442 0.551373
vt 0.317562 0.501717
vt 0.312597 0.551373
vt 0.312597 0.501717
vt 0.317562 0.551373
vt 0.300764 0.551373
vt 0.295798 0.501717
vt 0.300764 0.501717
vt 0.295798 0.551373
vt 0.283966 0.642167
vt 0.283966 0.501717
vt 0.283966 0.571942
vt 0.174352 0.551373
vt 0.224009 0.501717
vt 0.224009 0.551373
vt 0.170918 0.551373
vt 0.121262 0.551373
vt 0.170918 0.501717
vt 0.501717 0.001717
vt 0.501717 0.498283
vt 0.898970 0.498283
vt 0.898970 0.448627
vt 0.948627 0.448627
vn 0.0000 -0.0000 1.0000
vn 0.0000 -0.9314 -0.3639
vn 1.0000 -0.0000 -0.0000
vn -1.0000 0.0000 0.0000
vn -1.0000 0.0001 0.0000
vn 0.0000 1.0000 0.0000
vn -0.0000 0.0000 -1.0000
vn -0.0000 -1.0000 -0.0000
vn 0.1182 -0.4708 -0.8743
s 1
f 1/1/1 2/2/1 3/3/1
f 2/2/1 1/1/1 4/4/1
f 3/3/1 2/2/1 5/5/1
f 2/2/1 4/4/1 6/6/1
f 7/7/1 3/3/1 5/5/1
f 8/8/1 3/3/1 7/7/1
f 3/3/1 8/8/1 9/9/1
f 7/10/1 5/11/1 10/12/2
f 7/13/1 10/14/2 11/15/3
f 9/9/1 8/8/1 12/16/1
f 13/17/4 14/18/4 15/19/4
f 14/18/4 13/17/4 3/20/4
f 14/18/4 3/20/4 16/21/4
f 16/21/4 3/20/4 17/22/4
f 17/22/4 3/20/4 18/23/5
f 18/23/5 3/20/4 19/24/4
f 19/24/4 3/20/4 20/25/4
f 20/25/4 3/20/4 21/26/4
f 21/26/4 3/20/4 9/27/4
f 22/28/4 15/19/4 14/18/4
f 4/29/3 23/30/3 24/31/3
f 23/30/3 4/29/3 1/32/3
f 1/32/3 25/33/3 23/30/3
f 1/32/3 26/34/3 25/33/3
f 1/32/3 27/35/3 26/34/3
f 1/32/3 28/36/3 27/35/3
f 1/32/3 29/37/3 28/36/3
f 30/38/3 29/37/3 1/32/3
f 30/38/3 31/39/3 29/37/3
f 31/39/3 30/38/3 32/40/3
f 16/41/6 27/42/6 28/43/6
f 27/42/6 16/41/6 17/44/6
f 26/45/6 33/46/6 25/47/6
f 33/46/6 26/45/6 34/48/6
f 33/46/6 34/48/6 5/49/6
f 5/49/6 34/48/6 10/50/6
f 18/51/6 11/52/6 35/53/6
f 11/52/6 18/51/6 36/54/6
f 36/54/6 18/51/6 19/55/6
f 7/56/6 11/52/6 36/54/6
f 15/57/7 30/58/7 13/59/7
f 30/58/7 15/57/7 32/60/7
f 15/61/6 31/62/6 32/63/6
f 31/62/6 15/61/6 22/64/6
f 1/65/8 13/66/8 30/67/8
f 13/66/8 1/65/8 3/68/8
f 21/69/7 37/70/7 20/71/7
f 37/70/7 21/69/7 38/72/7
f 31/73/1 14/74/1 29/75/1
f 14/74/1 31/73/1 22/76/1
f 12/77/3 37/78/3 38/79/3
f 37/78/3 12/77/3 8/80/3
f 21/81/6 12/82/6 38/83/6
f 12/82/6 21/81/6 9/84/6
f 39/85/6 4/86/6 24/87/6
f 4/86/6 39/85/6 6/88/6
f 39/89/7 23/90/7 40/91/7
f 23/90/7 39/89/7 24/92/7
f 2/93/4 39/94/4 40/95/4
f 39/94/4 2/93/4 6/96/4
f 19/55/6 7/56/6 36/54/6
f 7/97/6 19/98/6 37/99/9
f 37/100/9 19/101/6 20/102/6
f 8/103/6 7/104/6 37/105/9
f 14/106/6 28/43/6 29/107/6
f 28/43/6 14/106/6 16/41/6
f 33/46/6 23/108/6 25/47/6
f 23/108/6 33/46/6 40/109/6
f 40/109/6 33/46/6 2/110/6
f 2/110/6 33/46/6 5/49/6
f 17/44/6 26/45/6 27/42/6
f 26/45/6 17/44/6 34/48/6
f 34/48/6 17/44/6 35/53/6
f 34/48/6 35/53/6 10/50/6
f 35/53/6 17/44/6 18/51/6
f 11/52/6 10/50/6 35/53/6
