# Blender v2.92.0 OBJ File: 'kenney_OGConvert.blend'
# www.blender.org
o road_slantFlatHigh
v 0.500000 0.520000 0.500000
v 0.500000 0.510000 0.400000
v 0.500000 0.520000 0.400000
v 0.500000 0.500000 0.500000
v 0.500000 0.510000 0.300000
v 0.500000 0.510000 0.010000
v 0.500000 0.510000 -0.010000
v 0.500000 0.510000 -0.300000
v 0.500000 0.510000 -0.400000
v 0.500000 0.500000 -0.500000
v 0.500000 0.520000 -0.400000
v 0.500000 0.520000 -0.500000
v -0.500000 0.010000 -0.300000
v -0.500000 0.010000 -0.010000
v -0.500000 0.010000 0.300000
v -0.500000 0.010000 0.010000
v -0.500000 0.000000 -0.500000
v -0.500000 0.010000 -0.400000
v -0.500000 0.020000 -0.500000
v -0.500000 -0.000000 0.500000
v -0.500000 0.010000 0.400000
v -0.500000 0.020000 0.400000
v -0.500000 0.020000 0.500000
v -0.500000 0.020000 -0.400000
vt 0.483378 0.541779
vt 0.531341 0.539634
vt 0.531341 0.541779
vt 0.483378 0.537489
vt 0.579304 0.539634
vt 0.718395 0.539634
vt 0.727988 0.539634
vt 0.867079 0.539634
vt 0.915042 0.539634
vt 0.963005 0.537489
vt 0.915042 0.541779
vt 0.963005 0.541779
vt 0.384952 0.539634
vt 0.245860 0.003396
vt 0.384952 0.003396
vt 0.245860 0.539634
vt 0.236268 0.003396
vt 0.097176 0.539634
vt 0.097176 0.003396
vt 0.236268 0.539634
vt 0.480877 0.541779
vt 0.432914 0.539634
vt 0.480877 0.537489
vt 0.001251 0.541779
vt 0.049213 0.539634
vt 0.049213 0.537489
vt 0.001251 0.537489
vt 0.432914 0.537489
vt 0.974086 0.005541
vt 0.965506 0.537489
vt 0.965506 0.001251
vt 0.974086 0.541779
vt 0.985167 0.537489
vt 0.976587 0.005541
vt 0.985167 0.001251
vt 0.976587 0.541779
vt 0.991958 0.537489
vt 0.987668 0.003396
vt 0.991958 0.001251
vt 0.987668 0.539634
vt 0.001251 0.001251
vt 0.049213 0.001251
vt 0.998749 0.003396
vt 0.994459 0.537489
vt 0.994459 0.001251
vt 0.998749 0.539634
vt 0.432914 0.001251
vt 0.480877 0.001251
vt 0.483378 0.001251
vt 0.963005 0.001251
vt 0.432914 0.003396
vt 0.049213 0.003396
vn 1.0000 0.0000 0.0000
vn -0.4472 0.8944 0.0000
vn -1.0000 0.0000 0.0000
vn -1.0000 0.0001 0.0000
vn 0.0000 0.0000 -1.0000
vn 0.0000 0.0000 1.0000
vn 0.4472 -0.8944 -0.0000
s 1
f 1/1/1 2/2/1 3/3/1
f 4/4/1 2/2/1 1/1/1
f 4/4/1 5/5/1 2/2/1
f 4/4/1 6/6/1 5/5/1
f 4/4/1 7/7/1 6/6/1
f 4/4/1 8/8/1 7/7/1
f 4/4/1 9/9/1 8/8/1
f 10/10/1 9/9/1 4/4/1
f 10/10/1 11/11/1 9/9/1
f 11/11/1 10/10/1 12/12/1
f 13/13/2 7/14/2 8/15/2
f 7/14/2 13/13/2 14/16/2
f 6/17/2 15/18/2 5/19/2
f 15/18/2 6/17/2 16/20/2
f 17/21/3 18/22/3 19/23/3
f 18/22/3 17/21/3 20/24/3
f 18/22/3 20/24/3 13/13/3
f 13/13/3 20/24/3 14/16/3
f 14/16/3 20/24/3 16/20/4
f 16/20/4 20/24/3 15/18/3
f 15/18/3 20/24/3 21/25/3
f 21/25/3 20/24/3 22/26/3
f 22/26/3 20/24/3 23/27/3
f 24/28/3 19/23/3 18/22/3
f 19/29/5 10/30/5 17/31/5
f 10/30/5 19/29/5 12/32/5
f 4/33/6 23/34/6 20/35/6
f 23/34/6 4/33/6 1/36/6
f 9/37/6 24/38/6 18/39/6
f 24/38/6 9/37/6 11/40/6
f 22/26/2 1/41/2 3/42/2
f 1/41/2 22/26/2 23/27/2
f 22/43/5 2/44/5 21/45/5
f 2/44/5 22/43/5 3/46/5
f 19/23/2 11/47/2 12/48/2
f 11/47/2 19/23/2 24/28/2
f 20/49/7 10/10/7 4/4/7
f 10/10/7 20/49/7 17/50/7
f 18/22/2 8/15/2 9/51/2
f 8/15/2 18/22/2 13/13/2
f 15/18/2 2/52/2 5/19/2
f 2/52/2 15/18/2 21/25/2
f 14/16/2 6/17/2 7/14/2
f 6/17/2 14/16/2 16/20/2
