# Blender v2.92.0 OBJ File: 'OGConvert.blend'
# www.blender.org
o road_curveIntersection
v 4.896315 0.080000 0.000000
v 4.361771 0.160000 -0.800000
v 4.361771 0.080000 -0.800000
v 4.896315 0.160000 0.000000
v 5.163587 0.080000 0.400000
v 5.163587 0.160000 0.400000
v -4.632386 0.160000 -0.130140
v -4.368488 0.160000 0.000000
v -4.632386 0.080000 -0.130140
v -3.600000 0.160000 0.378976
v -4.368488 0.080000 0.000000
v -3.600000 0.080000 0.378976
v -8.000000 0.160000 -0.800000
v -6.851369 0.080000 -0.724715
v -8.000000 0.080000 -0.800000
v -6.851369 0.160000 -0.724715
v -2.642899 0.080000 1.018490
v -2.642899 0.160000 1.018490
v -5.722393 0.080000 -0.500147
v -5.722393 0.160000 -0.500147
v 8.000000 0.160000 0.000000
v 8.000000 0.160000 -0.800000
v 5.856406 0.160000 0.000000
v 6.042969 0.160000 2.183212
v 6.682073 0.160000 4.065950
v 6.782073 0.160000 1.877065
v 7.069963 0.160000 6.016002
v 7.454813 0.160000 3.858895
v 7.200000 0.160000 8.000000
v 7.863118 0.160000 5.911581
v 8.000000 0.160000 8.000000
v -8.000000 0.160000 -8.000000
v 8.000000 0.000000 -8.000000
v -8.000000 0.000000 -8.000000
v 8.000000 0.160000 -8.000000
v 5.856406 0.000000 0.000000
v 8.000000 0.000000 0.000000
v 8.000000 0.080000 -0.800000
v 8.000000 0.160000 -7.200000
v -8.000000 0.080000 -7.200000
v 8.000000 0.080000 -7.200000
v -8.000000 0.160000 -7.200000
v 0.724715 0.160000 6.851369
v -0.000000 0.160000 8.000000
v 0.800000 0.160000 8.000000
v 0.500147 0.160000 5.722393
v 0.130140 0.160000 4.632386
v -0.068441 0.160000 6.955791
v -0.378976 0.160000 3.600000
v -0.272593 0.160000 5.929448
v -0.608964 0.160000 4.938533
v -1.018490 0.160000 2.642899
v -1.071797 0.160000 4.000000
v -1.777460 0.160000 1.777460
v -1.653174 0.160000 3.129909
v -2.343146 0.160000 2.343146
v -3.129909 0.160000 1.653174
v -4.000000 0.160000 1.071797
v -4.938533 0.160000 0.608964
v -5.929448 0.160000 0.272594
v -6.955791 0.160000 0.068441
v -8.000000 0.160000 0.000000
v 6.782073 -0.000000 1.877065
v 7.863118 -0.000000 5.911581
v 8.000000 -0.000000 8.000000
v -0.000000 -0.000000 8.000000
v -0.068441 -0.000000 6.955791
v -0.272593 -0.000000 5.929448
v -0.608964 -0.000000 4.938533
v -1.071797 -0.000000 4.000000
v -1.653174 -0.000000 3.129909
v -2.343146 -0.000000 2.343146
v -3.129909 -0.000000 1.653174
v -4.000000 -0.000000 1.071797
v 7.454813 -0.000000 3.858895
v -6.955791 -0.000000 0.068441
v -8.000000 0.000000 0.000000
v -4.938533 -0.000000 0.608964
v -5.929448 -0.000000 0.272594
v 6.042969 0.080000 2.183212
v 6.682073 0.080000 4.065950
v 0.724715 0.080000 6.851369
v 0.800000 0.080000 8.000000
v 0.500147 0.080000 5.722393
v 0.130140 0.080000 4.632386
v -0.378976 0.080000 3.600000
v -1.018490 0.080000 2.642899
v -1.777460 0.080000 1.777460
v 7.069963 0.080000 6.016002
v 7.200000 0.080000 8.000000
v -8.000000 0.080000 -6.400000
v 8.000000 0.080000 -4.080000
v 8.000000 0.080000 -6.400000
v -8.000000 0.080000 -4.080000
v 3.818022 0.080000 6.444128
v 1.600000 0.080000 8.000000
v 3.920000 0.080000 8.000000
v 3.513836 0.080000 4.914877
v 3.012644 0.080000 3.438414
v 2.323022 0.080000 2.040000
v 1.456772 0.080000 0.743564
v 1.517870 0.080000 6.746949
v 1.272888 0.080000 5.515337
v 0.804684 0.080000 0.000000
v 0.869243 0.080000 4.326239
v 0.313844 0.080000 3.200000
v 0.428713 0.080000 -0.428713
v 0.005341 0.080000 -0.800000
v -0.383808 0.080000 2.155890
v -0.743564 0.080000 -1.456772
v -1.211775 0.080000 1.211775
v -0.957920 0.080000 -1.600000
v -2.040000 0.080000 -2.323023
v -2.155890 0.080000 0.383808
v -3.438414 0.080000 -3.012644
v -2.730299 0.080000 0.000000
v -3.200000 0.080000 -0.313844
v -4.185826 0.080000 -0.800000
v -4.914877 0.080000 -3.513836
v -4.326239 0.080000 -0.869244
v -5.515337 0.080000 -1.272888
v -6.444128 0.080000 -3.818022
v -6.746949 0.080000 -1.517871
v -8.000000 0.080000 -3.920000
v -8.000000 0.080000 -1.600000
v 8.000000 0.080000 -3.920000
v 2.693034 0.080000 -1.600000
v 8.000000 0.080000 -1.600000
v -4.873466 0.080000 -3.668383
v -6.138425 0.080000 -3.920000
v -3.377184 0.080000 -3.160466
v -1.960000 0.080000 -2.461587
v -0.670544 0.080000 -1.600000
v -0.646162 0.080000 -1.583708
v 0.247486 0.080000 -0.800000
v 0.541850 0.080000 -0.541850
v 1.017039 0.080000 0.000000
v 1.583709 0.080000 0.646162
v 2.461587 0.080000 1.960000
v 3.160465 0.080000 3.377184
v 3.394615 0.080000 -0.800000
v 3.424288 0.080000 -0.766165
v 3.668384 0.080000 4.873466
v 3.936222 0.080000 0.000000
v 3.976654 0.080000 6.423243
v 4.080000 0.080000 8.000000
v 4.470766 0.080000 0.800000
v 5.303865 0.080000 2.489358
v 5.909332 0.080000 4.273005
v 6.276805 0.080000 6.120423
v 6.400000 0.080000 8.000000
vt 0.285269 0.528998
vt 0.282788 0.501851
vt 0.285269 0.501851
vt 0.282788 0.528998
vt 0.285269 0.542572
vt 0.282788 0.542572
vt 0.308786 0.608338
vt 0.308786 0.617196
vt 0.306304 0.608338
vt 0.308786 0.642992
vt 0.306304 0.617196
vt 0.306304 0.642992
vt 0.308786 0.501851
vt 0.306304 0.537159
vt 0.306304 0.501851
vt 0.308786 0.537159
vt 0.306304 0.676227
vt 0.308786 0.676227
vt 0.306304 0.572858
vt 0.308786 0.572858
vt 0.215903 0.501851
vt 0.103050 0.526666
vt 0.103050 0.501851
vt 0.169542 0.526666
vt 0.191032 0.539074
vt 0.163755 0.594386
vt 0.143931 0.652786
vt 0.140829 0.584890
vt 0.131899 0.713274
vt 0.119961 0.646364
vt 0.127865 0.774815
vt 0.107296 0.710035
vt 0.103050 0.774815
vt 0.199322 0.526666
vt 0.982000 0.001851
vt 0.977037 0.486734
vt 0.977037 0.001851
vt 0.982000 0.486734
vt 0.324858 0.567945
vt 0.329821 0.501851
vt 0.329821 0.567945
vt 0.324858 0.501851
vt 0.318673 0.501851
vt 0.321155 0.612109
vt 0.318673 0.612109
vt 0.321155 0.501851
vt 0.977037 0.983766
vt 0.979518 0.490437
vt 0.979518 0.983766
vt 0.977037 0.490437
vt 0.058258 0.861035
vt 0.099347 0.870333
vt 0.081801 0.887880
vt 0.038422 0.831347
vt 0.022630 0.799324
vt 0.077945 0.845929
vt 0.011153 0.765514
vt 0.059912 0.818940
vt 0.045556 0.789828
vt 0.004187 0.730495
vt 0.035122 0.759091
vt 0.001851 0.694866
vt 0.028789 0.727256
vt 0.026666 0.694866
vt 0.004187 0.659237
vt 0.028789 0.662476
vt 0.011153 0.624218
vt 0.035122 0.630640
vt 0.019696 0.599050
vt 0.045556 0.599903
vt 0.022630 0.590407
vt 0.038422 0.558384
vt 0.059912 0.570791
vt 0.058258 0.528696
vt 0.077945 0.543802
vt 0.081801 0.501851
vt 0.099347 0.519398
vt 0.253087 0.563918
vt 0.248124 0.501851
vt 0.253087 0.501851
vt 0.248124 0.563918
vt 0.253087 0.757439
vt 0.248124 0.692814
vt 0.253087 0.692814
vt 0.248124 0.757439
vt 0.293935 0.686684
vt 0.288972 0.654371
vt 0.293935 0.654371
vt 0.288972 0.686684
vt 0.293935 0.621932
vt 0.288972 0.589923
vt 0.293935 0.589923
vt 0.288972 0.621932
vt 0.288972 0.558890
vt 0.293935 0.558890
vt 0.288972 0.529364
vt 0.293935 0.529364
vt 0.288972 0.501851
vt 0.293935 0.501851
vt 0.297638 0.684207
vt 0.302601 0.657611
vt 0.302601 0.684207
vt 0.297638 0.657611
vt 0.302601 0.628814
vt 0.297638 0.628814
vt 0.244421 0.998148
vt 0.219606 0.501851
vt 0.244421 0.501851
vt 0.219606 0.998148
vt 0.253087 0.627937
vt 0.248124 0.627937
vt 0.302601 0.534279
vt 0.297638 0.501851
vt 0.302601 0.501851
vt 0.297638 0.534279
vt 0.302601 0.598309
vt 0.297638 0.598309
vt 0.302601 0.566616
vt 0.297638 0.566616
vt 0.285269 0.601535
vt 0.282788 0.601535
vt 0.285269 0.662353
vt 0.282788 0.662353
vt 0.314970 0.705167
vt 0.312489 0.669623
vt 0.314970 0.669623
vt 0.312489 0.705167
vt 0.312489 0.633940
vt 0.314970 0.633940
vt 0.312489 0.598730
vt 0.314970 0.598730
vt 0.312489 0.564593
vt 0.314970 0.564593
vt 0.312489 0.532115
vt 0.314970 0.532115
vt 0.312489 0.501851
vt 0.314970 0.501851
vt 0.285269 0.723987
vt 0.282788 0.723987
vt 0.306304 0.707474
vt 0.308786 0.707474
vt 0.285269 0.785380
vt 0.282788 0.785380
vt 0.526666 0.001851
vt 0.598629 0.498148
vt 0.526666 0.498148
vt 0.598629 0.001851
vt 0.925073 0.368430
vt 0.973334 0.299630
vt 0.973334 0.371593
vt 0.877638 0.358994
vt 0.831840 0.343448
vt 0.788463 0.322057
vt 0.748249 0.295187
vt 0.934466 0.297082
vt 0.896263 0.289483
vt 0.725185 0.274960
vt 0.859379 0.276963
vt 0.824445 0.259735
vt 0.711887 0.263298
vt 0.700370 0.250166
vt 0.792058 0.238095
vt 0.679998 0.226936
vt 0.762773 0.212412
vt 0.675555 0.220287
vt 0.653128 0.186722
vt 0.737090 0.183127
vt 0.631737 0.143345
vt 0.725185 0.165310
vt 0.715450 0.150741
vt 0.700370 0.120162
vt 0.616191 0.097548
vt 0.698222 0.115806
vt 0.685702 0.078922
vt 0.606756 0.050112
vt 0.678103 0.040719
vt 0.603592 0.001851
vt 0.675555 0.001851
vt 0.603592 0.498148
vt 0.675555 0.333534
vt 0.675555 0.498148
vt 0.611397 0.098832
vt 0.603592 0.059595
vt 0.627152 0.145245
vt 0.648830 0.189204
vt 0.675555 0.229201
vt 0.676061 0.229957
vt 0.700370 0.257677
vt 0.708378 0.266807
vt 0.725185 0.281547
vt 0.745228 0.299124
vt 0.785982 0.326355
vt 0.829941 0.348033
vt 0.700370 0.355296
vt 0.701420 0.356216
vt 0.876353 0.363788
vt 0.725185 0.372096
vt 0.924425 0.373350
vt 0.973334 0.376556
vt 0.750000 0.388677
vt 0.802401 0.414518
vt 0.857728 0.433299
vt 0.915032 0.444697
vt 0.973334 0.448519
vt 0.270419 0.746807
vt 0.267937 0.722311
vt 0.270419 0.722311
vt 0.265456 0.746807
vt 0.267937 0.697816
vt 0.267937 0.626779
vt 0.267937 0.621880
vt 0.267937 0.550843
vt 0.267937 0.526347
vt 0.265456 0.501851
vt 0.270419 0.526347
vt 0.270419 0.501851
vt 0.261753 0.748516
vt 0.259271 0.723849
vt 0.261753 0.501851
vt 0.256790 0.748516
vt 0.256790 0.723849
vt 0.259271 0.551184
vt 0.259271 0.526518
vt 0.256790 0.501851
vt 0.337227 0.501851
vt 0.337227 0.501851
vt 0.337227 0.501851
vt 0.337227 0.501851
vt 0.333524 0.501851
vt 0.333524 0.578778
vt 0.333524 0.573815
vt 0.256790 0.526518
vt 0.279085 0.501851
vt 0.276603 0.526347
vt 0.274122 0.501851
vt 0.279085 0.746807
vt 0.276603 0.550843
vt 0.276603 0.621879
vt 0.276603 0.626779
vt 0.276603 0.697816
vt 0.276603 0.722311
vt 0.274122 0.722311
vt 0.274122 0.746807
vt 0.274122 0.526347
vt 0.700370 0.498148
vt 0.700370 0.385296
vt 0.725185 0.401877
vt 0.737593 0.410167
vt 0.792905 0.437444
vt 0.851305 0.457268
vt 0.911793 0.469300
vt 0.973334 0.473334
vt 0.501851 0.001851
vt 0.501851 0.498148
vt 0.973334 0.274815
vt 0.937705 0.272480
vt 0.902686 0.265514
vt 0.868875 0.254037
vt 0.836852 0.238245
vt 0.807164 0.218408
vt 0.780319 0.194866
vt 0.756777 0.168021
vt 0.736940 0.138333
vt 0.725185 0.114496
vt 0.721148 0.106310
vt 0.709671 0.072500
vt 0.702706 0.037480
vt 0.700370 0.001851
vt 0.250000 0.498148
vt 0.493903 0.433369
vt 0.498148 0.498149
vt 0.481238 0.369697
vt 0.460370 0.308224
vt 0.431657 0.250000
vt 0.498148 0.001852
vt 0.498148 0.250000
vt 0.001851 0.001851
vt 0.216754 0.374074
vt 0.198721 0.347085
vt 0.177319 0.322681
vt 0.231111 0.403186
vt 0.241544 0.433923
vt 0.247877 0.465759
vt 0.152915 0.301279
vt 0.125926 0.283246
vt 0.096814 0.268889
vt 0.066077 0.258455
vt 0.034241 0.252123
vt 0.001851 0.250000
vn -0.8315 -0.0000 0.5556
vn -0.8660 0.0000 0.5000
vn 0.3827 0.0000 -0.9239
vn 0.4423 -0.0000 -0.8969
vn 0.5000 -0.0000 -0.8660
vn 0.0654 0.0000 -0.9979
vn 0.1305 0.0000 -0.9914
vn 0.6088 0.0000 -0.7934
vn 0.2588 0.0000 -0.9659
vn 0.0000 1.0000 0.0000
vn -0.0000 0.9999 -0.0156
vn 0.0000 0.0000 -1.0000
vn 0.0000 -0.0000 1.0000
vn 0.9239 -0.0000 -0.3827
vn 0.8969 -0.0000 -0.4423
vn 0.9979 0.0000 -0.0654
vn 0.9914 0.0000 -0.1305
vn -0.9979 0.0000 0.0654
vn -0.9914 0.0000 0.1305
vn -0.9659 0.0000 0.2588
vn -0.9239 0.0000 0.3827
vn -0.7934 0.0000 0.6088
vn -0.7071 0.0000 0.7071
vn -0.6088 0.0000 0.7934
vn -0.5000 0.0000 0.8660
vn 0.9659 0.0000 -0.2588
vn -0.1305 -0.0000 0.9914
vn -0.0654 0.0000 0.9979
vn -0.3827 0.0000 0.9239
vn -0.2588 0.0000 0.9659
vn 0.8660 0.0000 -0.5000
vn 0.7934 0.0000 -0.6088
vn 0.7071 0.0000 -0.7071
vn 0.0052 1.0000 -0.0078
vn 1.0000 0.0000 0.0000
vn -1.0000 0.0000 0.0000
vn -0.0000 -1.0000 -0.0000
s 1
f 1/1/1 2/2/1 3/3/1
f 2/2/1 1/1/1 4/4/1
f 4/4/1 1/1/1 5/5/2
f 4/4/1 5/5/2 6/6/2
f 7/7/3 8/8/4 9/9/3
f 10/10/5 9/9/3 8/8/4
f 10/10/5 11/11/4 9/9/3
f 11/11/4 10/10/5 12/12/5
f 13/13/6 14/14/7 15/15/6
f 14/14/7 13/13/6 16/16/7
f 10/10/5 17/17/8 12/12/5
f 17/17/8 10/10/5 18/18/8
f 19/19/9 7/7/3 9/9/3
f 7/7/3 19/19/9 20/20/9
f 14/14/7 20/20/9 19/19/9
f 20/20/9 14/14/7 16/16/7
f 2/21/10 21/22/10 22/23/10
f 21/22/10 2/21/10 23/24/10
f 23/24/10 2/21/10 6/25/10
f 24/26/10 23/24/10 6/25/10
f 25/27/10 23/24/10 24/26/10
f 25/27/10 26/28/10 23/24/10
f 27/29/10 26/28/10 25/27/10
f 27/29/10 28/30/10 26/28/10
f 29/31/10 28/30/10 27/29/10
f 29/31/10 30/32/10 28/30/10
f 30/32/10 29/31/10 31/33/10
f 6/25/10 2/21/10 4/34/11
f 32/35/12 33/36/12 34/37/12
f 33/36/12 32/35/12 35/38/12
f 21/39/13 36/40/13 37/41/13
f 36/40/13 21/39/13 23/42/13
f 3/43/12 22/44/12 38/45/12
f 22/44/12 3/43/12 2/46/12
f 39/47/13 40/48/13 41/49/13
f 40/48/13 39/47/13 42/50/13
f 43/51/10 44/52/10 45/53/10
f 44/52/10 43/51/10 46/54/10
f 44/52/10 46/54/10 47/55/10
f 44/52/10 47/55/10 48/56/10
f 48/56/10 47/55/10 49/57/10
f 48/56/10 49/57/10 50/58/10
f 50/58/10 49/57/10 51/59/10
f 51/59/10 49/57/10 52/60/10
f 51/59/10 52/60/10 53/61/10
f 53/61/10 52/60/10 54/62/10
f 53/61/10 54/62/10 55/63/10
f 55/63/10 54/62/10 56/64/10
f 56/64/10 54/62/10 18/65/10
f 56/64/10 18/65/10 57/66/10
f 57/66/10 18/65/10 10/67/10
f 57/66/10 10/67/10 58/68/10
f 58/68/10 10/67/10 8/69/10
f 58/68/10 8/69/10 59/70/10
f 59/70/10 8/69/10 7/71/10
f 59/70/10 7/71/10 20/72/10
f 59/70/10 20/72/10 60/73/10
f 60/73/10 20/72/10 16/74/10
f 60/73/10 16/74/10 61/75/10
f 61/75/10 16/74/10 13/76/10
f 61/75/10 13/76/10 62/77/10
f 26/78/14 36/79/15 23/80/15
f 36/79/15 26/78/14 63/81/14
f 31/82/16 64/83/17 30/84/17
f 64/83/17 31/82/16 65/85/16
f 66/86/18 48/87/19 67/88/19
f 48/87/19 66/86/18 44/89/18
f 68/90/20 51/91/21 69/92/21
f 51/91/21 68/90/20 50/93/20
f 69/92/21 53/94/2 70/95/2
f 53/94/2 69/92/21 51/91/21
f 70/95/2 55/96/22 71/97/22
f 55/96/22 70/95/2 53/94/2
f 71/97/22 56/98/23 72/99/23
f 56/98/23 71/97/22 55/96/22
f 56/100/23 73/101/24 72/102/23
f 73/101/24 56/100/23 57/103/24
f 57/103/24 74/104/25 73/101/24
f 74/104/25 57/103/24 58/105/25
f 32/106/10 39/107/10 35/108/10
f 39/107/10 32/106/10 42/109/10
f 28/110/26 63/81/14 26/78/14
f 63/81/14 28/110/26 75/111/26
f 30/84/17 75/111/26 28/110/26
f 75/111/26 30/84/17 64/83/17
f 67/88/19 50/93/20 68/90/20
f 50/93/20 67/88/19 48/87/19
f 76/112/27 62/113/28 77/114/28
f 62/113/28 76/112/27 61/115/27
f 58/105/25 78/116/29 74/104/25
f 78/116/29 58/105/25 59/117/29
f 59/117/29 79/118/30 78/116/29
f 79/118/30 59/117/29 60/119/30
f 60/119/30 76/112/27 79/118/30
f 76/112/27 60/119/30 61/115/27
f 80/120/21 6/6/2 5/5/2
f 6/6/2 80/120/21 24/121/21
f 81/122/20 24/121/21 80/120/21
f 24/121/21 81/122/20 25/123/20
f 45/124/16 82/125/17 43/126/17
f 82/125/17 45/124/16 83/127/16
f 43/126/17 84/128/26 46/129/26
f 84/128/26 43/126/17 82/125/17
f 46/129/26 85/130/14 47/131/14
f 85/130/14 46/129/26 84/128/26
f 47/131/14 86/132/31 49/133/31
f 86/132/31 47/131/14 85/130/14
f 49/133/31 87/134/32 52/135/32
f 87/134/32 49/133/31 86/132/31
f 52/135/32 88/136/33 54/137/33
f 88/136/33 52/135/32 87/134/32
f 89/138/19 25/123/20 81/122/20
f 25/123/20 89/138/19 27/139/19
f 18/18/8 88/140/33 17/17/8
f 88/140/33 18/18/8 54/141/33
f 90/142/18 27/139/19 89/138/19
f 27/139/19 90/142/18 29/143/18
f 91/144/10 92/145/10 93/146/10
f 92/145/10 91/144/10 94/147/10
f 95/148/10 96/149/10 97/150/10
f 96/149/10 95/148/10 98/151/10
f 96/149/10 98/151/10 99/152/10
f 96/149/10 99/152/10 100/153/10
f 96/149/10 100/153/10 101/154/10
f 96/149/10 101/154/10 102/155/10
f 102/155/10 101/154/10 103/156/10
f 103/156/10 101/154/10 104/157/10
f 103/156/10 104/157/10 105/158/10
f 105/158/10 104/157/10 106/159/10
f 106/159/10 104/157/10 107/160/10
f 106/159/10 107/160/10 108/161/10
f 106/159/10 108/161/10 109/162/10
f 109/162/10 108/161/10 110/163/10
f 109/162/10 110/163/10 111/164/10
f 111/164/10 110/163/10 112/165/10
f 111/164/10 112/165/10 113/166/10
f 111/164/10 113/166/10 114/167/10
f 114/167/10 113/166/10 115/168/10
f 114/167/10 115/168/10 116/169/10
f 116/169/10 115/168/10 117/170/10
f 117/170/10 115/168/10 118/171/10
f 118/171/10 115/168/10 119/172/10
f 118/171/10 119/172/10 120/173/10
f 120/173/10 119/172/10 121/174/10
f 121/174/10 119/172/10 122/175/10
f 121/174/10 122/175/10 123/176/10
f 123/176/10 122/175/10 124/177/10
f 123/176/10 124/177/10 125/178/10
f 126/179/10 127/180/10 128/181/10
f 127/180/10 126/179/10 129/182/10
f 129/182/10 126/179/10 130/183/10
f 127/180/10 129/182/10 131/184/10
f 127/180/10 131/184/10 132/185/10
f 127/180/10 132/185/10 133/186/10
f 127/180/10 133/186/10 134/187/10
f 127/180/10 134/187/10 135/188/10
f 127/180/10 135/188/10 136/189/10
f 127/180/10 136/189/10 137/190/10
f 127/180/10 137/190/10 138/191/10
f 127/180/10 138/191/10 139/192/10
f 140/193/10 127/180/10 139/192/10
f 140/193/10 141/194/34 127/180/10
f 140/193/10 142/195/10 141/194/34
f 143/196/10 142/195/10 140/193/10
f 143/196/10 144/197/10 142/195/10
f 145/198/10 144/197/10 143/196/10
f 146/199/10 144/197/10 145/198/10
f 146/199/10 147/200/10 144/197/10
f 146/199/10 148/201/10 147/200/10
f 146/199/10 149/202/10 148/201/10
f 146/199/10 150/203/10 149/202/10
f 150/203/10 146/199/10 151/204/10
f 21/205/35 38/206/35 22/207/35
f 37/208/35 38/206/35 21/205/35
f 37/208/35 128/209/35 38/206/35
f 37/208/35 126/210/35 128/209/35
f 37/208/35 92/211/35 126/210/35
f 37/208/35 93/212/35 92/211/35
f 37/208/35 41/213/35 93/212/35
f 33/214/35 41/213/35 37/208/35
f 33/214/35 39/215/35 41/213/35
f 39/215/35 33/214/35 35/216/35
f 65/217/13 90/218/13 66/219/13
f 90/218/13 65/217/13 31/220/13
f 90/218/13 31/220/13 29/221/13
f 96/222/13 66/219/13 90/218/13
f 83/223/13 66/219/13 96/222/13
f 66/219/13 83/223/13 44/224/13
f 96/225/13 90/226/13 151/227/12
f 146/228/13 96/225/13 151/227/12
f 96/229/13 146/230/13 97/231/12
f 44/224/13 83/223/13 45/232/13
f 34/233/36 40/234/36 32/235/36
f 40/234/36 34/233/36 77/236/36
f 40/234/36 77/236/36 91/237/36
f 91/237/36 77/236/36 94/238/36
f 94/238/36 77/236/36 124/239/36
f 124/239/36 77/236/36 125/240/36
f 125/240/36 77/236/36 15/241/36
f 15/241/36 77/236/36 13/242/36
f 13/242/36 77/236/36 62/243/36
f 42/244/36 32/235/36 40/234/36
f 127/180/10 38/245/10 128/181/10
f 38/245/10 127/180/10 3/246/10
f 3/246/10 127/180/10 142/195/10
f 3/246/10 142/195/10 144/197/10
f 142/195/10 127/180/10 141/194/34
f 147/200/10 3/246/10 144/197/10
f 147/200/10 1/247/10 3/246/10
f 147/200/10 5/248/10 1/247/10
f 148/201/10 5/248/10 147/200/10
f 149/202/10 5/248/10 148/201/10
f 149/202/10 80/249/10 5/248/10
f 150/203/10 80/249/10 149/202/10
f 151/204/10 80/249/10 150/203/10
f 151/204/10 81/250/10 80/249/10
f 151/204/10 89/251/10 81/250/10
f 89/251/10 151/204/10 90/252/10
f 40/253/10 93/146/10 41/254/10
f 93/146/10 40/253/10 91/144/10
f 102/155/10 83/255/10 96/149/10
f 83/255/10 102/155/10 103/156/10
f 83/255/10 103/156/10 105/158/10
f 83/255/10 105/158/10 82/256/10
f 82/256/10 105/158/10 106/159/10
f 82/256/10 106/159/10 84/257/10
f 84/257/10 106/159/10 85/258/10
f 85/258/10 106/159/10 109/162/10
f 85/258/10 109/162/10 86/259/10
f 86/259/10 109/162/10 87/260/10
f 87/260/10 109/162/10 111/164/10
f 87/260/10 111/164/10 88/261/10
f 88/261/10 111/164/10 114/167/10
f 88/261/10 114/167/10 17/262/10
f 17/262/10 114/167/10 116/169/10
f 17/262/10 116/169/10 12/263/10
f 12/263/10 116/169/10 117/170/10
f 12/263/10 117/170/10 118/171/10
f 12/263/10 118/171/10 11/264/10
f 11/264/10 118/171/10 120/173/10
f 11/264/10 120/173/10 121/174/10
f 11/264/10 121/174/10 9/265/10
f 9/265/10 121/174/10 19/266/10
f 19/266/10 121/174/10 123/176/10
f 19/266/10 123/176/10 14/267/10
f 14/267/10 123/176/10 125/178/10
f 14/267/10 125/178/10 15/268/10
f 66/269/37 64/270/37 65/271/37
f 64/270/37 66/269/37 75/272/37
f 75/272/37 66/269/37 63/273/37
f 63/273/37 66/269/37 36/274/37
f 36/274/37 33/275/37 37/276/37
f 33/275/37 36/274/37 34/277/37
f 34/277/37 36/274/37 70/278/37
f 34/277/37 70/278/37 71/279/37
f 34/277/37 71/279/37 72/280/37
f 70/278/37 36/274/37 69/281/37
f 69/281/37 36/274/37 68/282/37
f 68/282/37 36/274/37 67/283/37
f 67/283/37 36/274/37 66/269/37
f 34/277/37 72/280/37 73/284/37
f 34/277/37 73/284/37 74/285/37
f 34/277/37 74/285/37 78/286/37
f 34/277/37 78/286/37 79/287/37
f 34/277/37 79/287/37 76/288/37
f 34/277/37 76/288/37 77/289/37
f 94/147/10 126/179/10 92/145/10
f 126/179/10 94/147/10 130/183/10
f 130/183/10 94/147/10 122/175/10
f 122/175/10 94/147/10 124/177/10
f 119/172/10 130/183/10 122/175/10
f 119/172/10 129/182/10 130/183/10
f 115/168/10 129/182/10 119/172/10
f 115/168/10 131/184/10 129/182/10
f 113/166/10 131/184/10 115/168/10
f 113/166/10 132/185/10 131/184/10
f 112/165/10 132/185/10 113/166/10
f 110/163/10 132/185/10 112/165/10
f 110/163/10 133/186/10 132/185/10
f 110/163/10 134/187/10 133/186/10
f 108/161/10 134/187/10 110/163/10
f 108/161/10 135/188/10 134/187/10
f 107/160/10 135/188/10 108/161/10
f 107/160/10 136/189/10 135/188/10
f 104/157/10 136/189/10 107/160/10
f 104/157/10 137/190/10 136/189/10
f 101/154/10 137/190/10 104/157/10
f 101/154/10 138/191/10 137/190/10
f 100/153/10 138/191/10 101/154/10
f 100/153/10 139/192/10 138/191/10
f 99/152/10 139/192/10 100/153/10
f 99/152/10 140/193/10 139/192/10
f 98/151/10 140/193/10 99/152/10
f 98/151/10 143/196/10 140/193/10
f 95/148/10 143/196/10 98/151/10
f 95/148/10 145/198/10 143/196/10
f 97/150/10 145/198/10 95/148/10
f 145/198/10 97/150/10 146/199/10
