# Blender v2.92.0 OBJ File: 'OGConvert.blend'
# www.blender.org
o road_crossroadBarrier
v 4.000000 0.640000 4.000000
v 3.600000 -0.000000 4.000000
v 4.000000 -0.000000 4.000000
v 3.760000 0.640000 4.000000
v 3.937883 0.640000 3.768178
v 4.000000 0.640000 3.760000
v 3.880000 0.640000 3.792154
v 3.830294 0.640000 3.830294
v 3.792154 0.640000 3.880000
v 3.768178 0.640000 3.937884
v 3.896472 -0.000000 3.613630
v 4.000000 -0.000000 3.600000
v 3.800000 -0.000000 3.653589
v 3.717157 -0.000000 3.717157
v 3.653589 -0.000000 3.800000
v 3.613630 -0.000000 3.896473
v -4.000000 0.640000 -3.760000
v -4.000000 0.000000 -3.600000
v -3.896472 0.000000 -3.613630
v -3.937883 0.640000 -3.768178
v -3.613630 0.000000 -3.896473
v -3.600000 0.000000 -4.000000
v -3.760000 0.640000 -4.000000
v -3.768178 0.640000 -3.937883
v -4.000000 0.640000 -4.000000
v -4.000000 0.000000 -4.000000
v -3.717157 0.000000 -3.717158
v -3.792154 0.640000 -3.880000
v -3.830294 0.640000 -3.830294
v -3.653589 0.000000 -3.800000
v -3.880000 0.640000 -3.792154
v -3.800000 0.000000 -3.653589
v 3.613630 0.000000 -3.896472
v 3.768178 0.640000 -3.937883
v 3.760000 0.640000 -4.000000
v 3.600000 0.000000 -4.000000
v 3.653589 0.000000 -3.799999
v 3.792154 0.640000 -3.880000
v 4.000000 0.640000 -3.760000
v 4.000000 0.000000 -4.000000
v 4.000000 0.640000 -4.000000
v 4.000000 0.000000 -3.600000
v 3.937884 0.640000 -3.768178
v 3.880000 0.640000 -3.792154
v 3.830294 0.640000 -3.830294
v 3.717157 0.000000 -3.717158
v 3.800000 0.000000 -3.653589
v 3.896473 0.000000 -3.613630
v -4.000000 0.640000 3.760000
v -3.896473 -0.000000 3.613630
v -4.000000 -0.000000 3.600000
v -3.937884 0.640000 3.768178
v -3.768178 0.640000 3.937883
v -4.000000 0.640000 4.000000
v -3.760000 0.640000 4.000000
v -3.792154 0.640000 3.880000
v -3.830294 0.640000 3.830294
v -3.880000 0.640000 3.792154
v -3.800000 -0.000000 3.653589
v -3.717157 -0.000000 3.717157
v -3.653589 -0.000000 3.800000
v -4.000000 -0.000000 4.000000
v -3.600000 -0.000000 4.000000
v -3.613630 -0.000000 3.896472
vt 0.004178 0.275113
vt 0.170598 0.537692
vt 0.004178 0.537692
vt 0.104030 0.275113
vt 0.048125 0.832804
vt 0.022281 0.929254
vt 0.022281 0.829402
vt 0.122133 0.929254
vt 0.072207 0.842780
vt 0.092887 0.858648
vt 0.108755 0.879328
vt 0.118730 0.903411
vt 0.869702 0.453951
vt 0.826629 0.293202
vt 0.869702 0.287532
vt 0.703282 0.453951
vt 0.786492 0.309828
vt 0.752025 0.336275
vt 0.725578 0.370742
vt 0.708953 0.410879
vt 0.175076 0.819837
vt 0.173525 0.546049
vt 0.213757 0.546049
vt 0.199215 0.819837
vt 0.048765 0.547258
vt 0.072904 0.547258
vt 0.087446 0.821046
vt 0.047214 0.821046
vt 0.149255 0.821046
vt 0.130489 0.548064
vt 0.093716 0.546049
vt 0.122133 0.819031
vt 0.004178 0.819031
vt 0.022944 0.546049
vt 0.248443 0.548064
vt 0.220027 0.821046
vt 0.278806 0.266757
vt 0.178954 0.004178
vt 0.345374 0.004178
vt 0.178954 0.266757
vt 0.627696 0.546049
vt 0.646461 0.819031
vt 0.603425 0.821046
vt 0.601874 0.547258
vt 0.856046 0.546049
vt 0.899082 0.548064
vt 0.880316 0.821046
vt 0.854495 0.819837
vt 0.170598 0.004178
vt 0.004178 0.266757
vt 0.004178 0.004178
vt 0.104030 0.266757
vt 0.781128 0.548064
vt 0.830356 0.819837
vt 0.809544 0.821046
vt 0.815814 0.546049
vt 0.754669 0.929254
vt 0.728825 0.832804
vt 0.754669 0.829402
vt 0.704743 0.842780
vt 0.684063 0.858648
vt 0.668195 0.879328
vt 0.658219 0.903410
vt 0.654817 0.929254
vt 0.136160 0.952749
vt 0.296909 0.995822
vt 0.130489 0.995822
vt 0.152785 0.912612
vt 0.179232 0.878146
vt 0.213699 0.851698
vt 0.253836 0.835073
vt 0.296909 0.829402
vt 0.577735 0.547258
vt 0.563193 0.821046
vt 0.528506 0.819031
vt 0.556923 0.546049
vt 0.694926 0.266757
vt 0.528506 0.004178
vt 0.694926 0.004178
vt 0.595074 0.266757
vt 0.904511 0.279175
vt 0.902960 0.005387
vt 0.928782 0.004178
vt 0.947547 0.277160
vt 0.864279 0.279175
vt 0.878821 0.005387
vt 0.453582 0.004178
vt 0.353730 0.266757
vt 0.353730 0.004178
vt 0.520150 0.266757
vt 0.781128 0.929254
vt 0.880980 0.829402
vt 0.880980 0.929254
vt 0.855136 0.832804
vt 0.831054 0.842780
vt 0.810374 0.858648
vt 0.794505 0.879328
vt 0.784530 0.903410
vt 0.792820 0.004178
vt 0.821237 0.277160
vt 0.772008 0.005387
vt 0.786550 0.279175
vt 0.480041 0.995822
vt 0.646461 0.829402
vt 0.646461 0.995822
vt 0.485712 0.952749
vt 0.502337 0.912612
vt 0.528784 0.878145
vt 0.563251 0.851698
vt 0.603388 0.835073
vt 0.747869 0.005387
vt 0.746318 0.279175
vt 0.829593 0.277160
vt 0.858009 0.004178
vt 0.722048 0.004178
vt 0.703282 0.277160
vt 0.278806 0.537692
vt 0.178954 0.275113
vt 0.345374 0.275113
vt 0.178955 0.537692
vt 0.673583 0.546049
vt 0.697853 0.821046
vt 0.654817 0.819031
vt 0.699404 0.547258
vt 0.881461 0.428108
vt 0.977910 0.453951
vt 0.878058 0.453951
vt 0.891436 0.404025
vt 0.907304 0.383345
vt 0.927984 0.367477
vt 0.952067 0.357502
vt 0.977910 0.354100
vt 0.738085 0.821046
vt 0.723543 0.547258
vt 0.422456 0.819837
vt 0.471685 0.548064
vt 0.443268 0.821046
vt 0.436998 0.546049
vt 0.420298 0.275113
vt 0.520150 0.537692
vt 0.353730 0.537692
vt 0.520150 0.275113
vt 0.398317 0.819837
vt 0.396766 0.546049
vt 0.353730 0.548064
vt 0.372496 0.821046
vt 0.744355 0.546049
vt 0.772771 0.819031
vt 0.305265 0.995822
vt 0.466014 0.952749
vt 0.471685 0.995822
vt 0.449389 0.912612
vt 0.422942 0.878145
vt 0.388475 0.851698
vt 0.348338 0.835073
vt 0.305265 0.829402
vt 0.528506 0.537692
vt 0.628358 0.275113
vt 0.694926 0.537692
vt 0.528506 0.275113
vn 0.0000 0.0000 1.0000
vn 0.0000 1.0000 0.0000
vn 0.0000 -1.0000 -0.0000
vn -0.2511 0.2425 -0.9371
vn -0.4851 0.2425 -0.8402
vn -0.9371 0.2425 -0.2511
vn -0.8402 0.2425 -0.4851
vn -0.1267 0.2406 -0.9623
vn -0.6860 0.2425 -0.6860
vn -0.9623 0.2406 -0.1267
vn 1.0000 0.0000 0.0000
vn 0.1267 0.2406 0.9623
vn 0.2511 0.2425 0.9371
vn 0.9371 0.2425 0.2511
vn 0.9623 0.2406 0.1267
vn -1.0000 0.0000 0.0000
vn 0.6860 0.2425 0.6860
vn 0.8402 0.2425 0.4851
vn 0.4851 0.2425 0.8402
vn 0.0000 0.0000 -1.0000
vn -0.9371 0.2425 0.2511
vn -0.9623 0.2406 0.1267
vn -0.8402 0.2425 0.4851
vn -0.6860 0.2425 0.6860
vn -0.4851 0.2425 0.8402
vn -0.2511 0.2425 0.9371
vn -0.1267 0.2406 0.9623
vn 0.1267 0.2406 -0.9623
vn 0.2511 0.2425 -0.9371
vn 0.4851 0.2425 -0.8402
vn 0.8402 0.2425 -0.4851
vn 0.6860 0.2425 -0.6860
vn 0.9371 0.2425 -0.2511
vn 0.9623 0.2406 -0.1267
s 1
f 1/1/1 2/2/1 3/3/1
f 2/2/1 1/1/1 4/4/1
f 5/5/2 1/6/2 6/7/2
f 1/6/2 5/5/2 4/8/2
f 4/8/2 5/5/2 7/9/2
f 4/8/2 7/9/2 8/10/2
f 4/8/2 8/10/2 9/11/2
f 4/8/2 9/11/2 10/12/2
f 3/13/3 11/14/3 12/15/3
f 11/14/3 3/13/3 2/16/3
f 11/14/3 2/16/3 13/17/3
f 13/17/3 2/16/3 14/18/3
f 14/18/3 2/16/3 15/19/3
f 15/19/3 2/16/3 16/20/3
f 5/21/4 11/22/4 13/23/5
f 5/21/4 13/23/5 7/24/5
f 10/25/6 9/26/7 15/27/7
f 10/25/6 15/27/7 16/28/6
f 6/29/8 11/22/4 5/21/4
f 6/29/8 12/30/8 11/22/4
f 9/26/7 8/31/9 14/32/9
f 9/26/7 14/32/9 15/27/7
f 2/33/10 4/34/10 16/28/6
f 4/34/10 10/25/6 16/28/6
f 7/24/5 13/23/5 14/35/9
f 7/24/5 14/35/9 8/36/9
f 6/37/11 3/38/11 12/39/11
f 3/38/11 6/37/11 1/40/11
f 17/41/12 18/42/12 19/43/13
f 17/41/12 19/43/13 20/44/13
f 21/45/14 22/46/15 23/47/15
f 21/45/14 23/47/15 24/48/14
f 18/49/16 25/50/16 26/51/16
f 25/50/16 18/49/16 17/52/16
f 27/53/17 28/54/18 29/55/17
f 27/53/17 30/56/18 28/54/18
f 30/56/18 21/45/14 24/48/14
f 30/56/18 24/48/14 28/54/18
f 25/57/2 24/58/2 23/59/2
f 24/58/2 25/57/2 28/60/2
f 28/60/2 25/57/2 29/61/2
f 29/61/2 25/57/2 31/62/2
f 31/62/2 25/57/2 20/63/2
f 20/63/2 25/57/2 17/64/2
f 21/65/3 26/66/3 22/67/3
f 26/66/3 21/65/3 30/68/3
f 26/66/3 30/68/3 27/69/3
f 26/66/3 27/69/3 32/70/3
f 26/66/3 32/70/3 19/71/3
f 26/66/3 19/71/3 18/72/3
f 31/73/19 32/74/19 27/75/17
f 31/73/19 27/75/17 29/76/17
f 20/44/13 32/74/19 31/73/19
f 20/44/13 19/43/13 32/74/19
f 25/77/20 22/78/20 26/79/20
f 22/78/20 25/77/20 23/80/20
f 33/81/21 34/82/21 35/83/22
f 33/81/21 35/83/22 36/84/22
f 37/85/23 38/86/23 34/82/21
f 37/85/23 34/82/21 33/81/21
f 39/87/11 40/88/11 41/89/11
f 40/88/11 39/87/11 42/90/11
f 35/91/2 39/92/2 41/93/2
f 39/92/2 35/91/2 43/94/2
f 43/94/2 35/91/2 44/95/2
f 44/95/2 35/91/2 45/96/2
f 45/96/2 35/91/2 38/97/2
f 38/97/2 35/91/2 34/98/2
f 45/99/24 46/100/24 44/101/25
f 44/101/25 46/100/24 47/102/25
f 42/103/3 36/104/3 40/105/3
f 36/104/3 42/103/3 48/106/3
f 36/104/3 48/106/3 47/107/3
f 36/104/3 47/107/3 46/108/3
f 36/104/3 46/108/3 37/109/3
f 36/104/3 37/109/3 33/110/3
f 44/101/25 47/102/25 43/111/26
f 43/111/26 47/102/25 48/112/26
f 46/113/24 38/86/23 37/85/23
f 46/113/24 45/114/24 38/86/23
f 39/115/27 48/112/26 42/116/27
f 43/111/26 48/112/26 39/115/27
f 35/117/20 40/118/20 36/119/20
f 40/118/20 35/117/20 41/120/20
f 49/121/28 50/122/29 51/123/28
f 52/124/29 50/122/29 49/121/28
f 53/125/2 54/126/2 55/127/2
f 54/126/2 53/125/2 56/128/2
f 54/126/2 56/128/2 57/129/2
f 54/126/2 57/129/2 58/130/2
f 54/126/2 58/130/2 52/131/2
f 54/126/2 52/131/2 49/132/2
f 52/124/29 59/133/30 50/122/29
f 58/134/30 59/133/30 52/124/29
f 56/135/31 60/136/32 57/137/32
f 56/135/31 61/138/31 60/136/32
f 55/139/1 62/140/1 63/141/1
f 62/140/1 55/139/1 54/142/1
f 53/143/33 64/144/33 61/138/31
f 53/143/33 61/138/31 56/135/31
f 63/145/34 64/144/33 55/146/34
f 55/146/34 64/144/33 53/143/33
f 57/147/32 60/148/32 58/134/30
f 58/134/30 60/148/32 59/133/30
f 62/149/3 64/150/3 63/151/3
f 64/150/3 62/149/3 61/152/3
f 61/152/3 62/149/3 60/153/3
f 60/153/3 62/149/3 59/154/3
f 59/154/3 62/149/3 50/155/3
f 50/155/3 62/149/3 51/156/3
f 62/157/16 49/158/16 51/159/16
f 49/158/16 62/157/16 54/160/16
