# Blender v2.92.0 OBJ File: 'kenney_OGConvert.blend'
# www.blender.org
o tile_low
v -0.500000 -0.000000 0.500000
v 0.500000 0.000000 -0.500000
v 0.500000 -0.000000 0.500000
v -0.500000 0.000000 -0.500000
v -0.500000 0.020000 -0.500000
v -0.500000 0.020000 0.500000
v 0.500000 0.020000 -0.500000
v 0.500000 0.020000 0.500000
vt 0.001276 0.498724
vt 0.498724 0.001276
vt 0.498724 0.498724
vt 0.001276 0.001276
vt 0.511225 0.498724
vt 0.501276 0.001276
vt 0.511225 0.001276
vt 0.501276 0.498724
vt 0.536228 0.001276
vt 0.526279 0.498724
vt 0.526280 0.001276
vt 0.536228 0.498724
vt 0.548730 0.001276
vt 0.538781 0.498724
vt 0.538781 0.001276
vt 0.548730 0.498724
vt 0.523727 0.498724
vt 0.513778 0.001276
vt 0.523727 0.001276
vt 0.513778 0.498724
vt 0.498724 0.501276
vt 0.001276 0.998724
vt 0.001276 0.501276
vt 0.498724 0.998724
vn -0.0000 -1.0000 -0.0000
vn -1.0000 0.0000 0.0000
vn -0.0000 0.0000 -1.0000
vn 0.0000 0.0000 1.0000
vn 1.0000 0.0000 -0.0000
vn 0.0000 1.0000 0.0000
s 1
f 1/1/1 2/2/1 3/3/1
f 2/2/1 1/1/1 4/4/1
f 1/5/2 5/6/2 4/7/2
f 5/6/2 1/5/2 6/8/2
f 5/9/3 2/10/3 4/11/3
f 2/10/3 5/9/3 7/12/3
f 8/13/4 1/14/4 3/15/4
f 1/14/4 8/13/4 6/16/4
f 8/17/5 2/18/5 7/19/5
f 2/18/5 8/17/5 3/20/5
f 5/21/6 8/22/6 7/23/6
f 8/22/6 5/21/6 6/24/6
