# Blender v2.92.0 OBJ File: 'quaternius_OGConvert.blend'
# www.blender.org
o ColumnTop_Cube.010
v -0.507267 0.609156 -0.507267
v -0.482870 0.453839 -0.482869
v -0.507267 0.609156 0.507267
v -0.482869 0.453838 0.482870
v 0.507267 0.609156 -0.507267
v 0.482869 0.453839 -0.482870
v 0.507267 0.609156 0.507267
v 0.482870 0.453838 0.482870
v -0.413995 0.439417 -0.413995
v -0.413995 0.439417 0.413995
v 0.413995 0.439417 0.413995
v 0.413995 0.439417 -0.413995
v -0.413995 0.064849 -0.413995
v -0.351108 -0.007653 -0.351107
v -0.351107 -0.007653 0.351108
v -0.413995 0.064849 0.413995
v 0.351108 -0.007653 0.351107
v 0.413995 0.064849 0.413995
v 0.351107 -0.007653 -0.351108
v 0.413995 0.064849 -0.413995
v 0.351107 -0.007653 -0.175554
v 0.413995 0.064849 -0.206998
v 0.413995 0.064849 0.206997
v 0.351108 -0.007653 0.175554
v -0.413995 0.117114 0.413995
v -0.413995 0.117114 -0.413995
v 0.413995 0.117114 -0.413995
v 0.413995 0.117114 0.413995
v 0.413995 0.117114 -0.206998
v 0.413995 0.117114 0.206997
v -0.413995 0.374085 0.413995
v 0.413995 0.374085 0.413995
v -0.413995 0.374085 -0.413995
v 0.413995 0.374085 -0.413995
v -0.455395 0.374396 -0.455394
v -0.455395 0.117541 -0.455394
v 0.455394 0.374396 -0.455395
v 0.455394 0.117541 -0.455395
v 0.392296 -0.007653 0.175554
v 0.455183 0.117114 -0.206998
v 0.455184 0.117114 0.206997
v -0.455394 0.117541 0.455395
v 0.455395 0.117541 0.455394
v -0.455394 0.374396 0.455395
v 0.455395 0.374396 0.455395
v 0.455183 0.064849 -0.206998
v 0.392296 -0.007653 -0.175554
v 0.455184 0.064849 0.206997
vt 0.927703 0.666519
vt 0.873590 0.325067
vt 0.927703 0.333481
vt 0.682252 0.654888
vt 0.736014 0.996341
vt 0.682252 0.987927
vt 0.989135 0.666519
vt 0.935022 0.325067
vt 0.989135 0.333481
vt 0.664172 0.654888
vt 0.610324 0.996341
vt 0.610324 0.646475
vt 0.336698 0.360844
vt 0.027411 0.384595
vt 0.003659 0.360844
vt 0.003659 0.693883
vt 0.312947 0.670131
vt 0.336698 0.693883
vt 0.003659 0.353525
vt 0.353525 0.003659
vt 0.353525 0.353525
vt 0.795512 0.646475
vt 0.813458 0.932010
vt 0.795512 0.932010
vt 0.743333 0.646475
vt 0.761278 0.932010
vt 0.743333 0.932010
vt 0.127880 0.783429
vt 0.109862 0.712045
vt 0.127880 0.712045
vt 0.788194 0.668162
vt 0.761278 0.646475
vt 0.033409 0.722888
vt 0.058968 0.772585
vt 0.033409 0.783429
vt 0.840374 0.910323
vt 0.813458 0.646475
vt 0.840374 0.668162
vt 0.917352 0.025346
vt 0.943179 0.289195
vt 0.917352 0.267508
vt 0.076985 0.772585
vt 0.058968 0.701201
vt 0.076985 0.701201
vt 0.961190 0.003659
vt 0.961190 0.289195
vt 0.084304 0.761742
vt 0.109862 0.783429
vt 0.360844 0.902840
vt 0.360844 0.660679
vt 0.421384 0.660679
vt 0.905272 0.682251
vt 0.927703 0.967787
vt 0.905272 0.967787
vt 0.003659 0.701201
vt 0.026091 0.986737
vt 0.003659 0.986737
vt 0.935022 0.967787
vt 0.957535 0.682251
vt 0.957535 0.967787
vt 0.873590 0.967787
vt 0.896112 0.682251
vt 0.896112 0.967787
vt 0.873590 0.674933
vt 0.736014 0.646475
vt 0.935022 0.674933
vt 0.664172 0.987927
vt 0.312947 0.384595
vt 0.027411 0.670131
vt 0.003659 0.003659
vt 0.788194 0.910323
vt 0.943179 0.003659
vt 0.084304 0.701201
vt 0.542465 0.660679
vt 0.603005 0.660679
vt 0.603005 0.902840
vt 0.927703 0.682251
vt 0.026091 0.701201
vt 0.935022 0.682251
vt 0.873590 0.682251
vt 0.175936 0.723584
vt 0.171160 0.701201
vt 0.183892 0.707498
vt 0.660656 0.303472
vt 0.674933 0.003659
vt 0.674933 0.317748
vt 0.375121 0.339344
vt 0.674933 0.325067
vt 0.660656 0.339344
vt 0.660656 0.624879
vt 0.360844 0.639156
vt 0.375121 0.624879
vt 0.674860 0.553496
vt 0.674933 0.639156
vt 0.814524 0.003659
vt 0.814524 0.317748
vt 0.725827 0.089320
vt 0.360844 0.317748
vt 0.375121 0.303472
vt 0.725827 0.232088
vt 0.707810 0.089320
vt 0.770762 0.639156
vt 0.682252 0.325067
vt 0.770762 0.325067
vt 0.682252 0.221244
vt 0.682252 0.100163
vt 0.778080 0.325067
vt 0.866272 0.639156
vt 0.778080 0.639156
vt 0.821842 0.003659
vt 0.910034 0.317748
vt 0.821842 0.317748
vt 0.360844 0.325067
vt 0.147930 0.734036
vt 0.143154 0.707498
vt 0.155886 0.701201
vt 0.674860 0.410728
vt 0.660656 0.410728
vt 0.542465 0.646475
vt 0.375121 0.017936
vt 0.660656 0.017936
vt 0.360844 0.003659
vt 0.171160 0.750121
vt 0.163204 0.717287
vt 0.155886 0.750121
vt 0.135198 0.740332
vt 0.660656 0.553496
vt 0.725977 0.317748
vt 0.725977 0.003659
vt 0.707810 0.232088
vt 0.682252 0.639156
vt 0.866272 0.325067
vt 0.910034 0.003659
vt 0.421384 0.646475
vt 0.183892 0.756418
vt 0.143154 0.756418
vn 0.0000 -0.1552 0.9879
vn 0.9879 -0.1552 -0.0000
vn -0.0000 -0.1552 -0.9879
vn -0.9879 -0.1552 0.0000
vn -0.0000 -0.9788 -0.2049
vn 0.0000 -0.9788 0.2049
vn 0.0000 1.0000 0.0000
vn -0.0000 0.0000 -1.0000
vn 0.0000 0.0000 1.0000
vn 1.0000 0.0000 -0.0000
vn 0.2049 -0.9788 -0.0000
vn 0.0000 -0.6552 0.7554
vn 0.7554 -0.6552 -0.0000
vn -0.0000 -0.6552 -0.7554
vn -0.7554 -0.6552 0.0000
vn -0.2049 -0.9788 -0.0000
vn -1.0000 0.0000 0.0000
vn -0.0000 -1.0000 -0.0000
vn 0.0075 1.0000 0.0000
vn -0.0000 -0.9999 -0.0103
vn 0.0000 -0.9999 0.0103
vn 0.0086 -1.0000 0.0017
vn 1.0000 -0.0008 -0.0000
vn -0.0000 1.0000 -0.0075
vn -0.0103 -0.9999 -0.0000
vn -0.0000 -0.3979 -0.9174
vn 0.0000 1.0000 0.0075
vn -0.0075 1.0000 0.0000
vn 0.0000 -0.3979 0.9174
vn 1.0000 0.0000 -0.0009
vn 1.0000 -0.0000 0.0008
vn 0.0086 -1.0000 -0.0017
s off
f 8/1/1 3/2/1 4/3/1
f 6/4/2 7/5/2 8/6/2
f 2/7/3 5/8/3 6/9/3
f 2/10/4 3/11/4 1/12/4
f 6/13/5 9/14/5 2/15/5
f 4/16/6 11/17/6 8/18/6
f 7/19/7 1/20/7 3/21/7
f 27/22/8 13/23/8 26/24/8
f 25/25/9 18/26/9 28/27/9
f 28/28/10 23/29/10 30/30/10
f 11/17/11 6/13/11 8/18/11
f 15/31/12 18/26/12 16/32/12
f 19/33/13 22/34/13 21/35/13
f 14/36/14 20/37/14 19/38/14
f 15/39/15 13/40/15 14/41/15
f 29/42/10 20/43/10 27/44/10
f 9/14/16 4/16/16 2/15/16
f 13/40/17 25/45/17 26/46/17
f 17/47/13 23/29/13 18/48/13
f 14/49/18 19/50/18 21/51/18
f 12/52/8 33/53/8 9/54/8
f 10/55/9 32/56/9 11/57/9
f 33/58/17 10/59/17 9/60/17
f 32/61/10 12/62/10 11/63/10
f 8/1/1 7/64/1 3/2/1
f 6/4/2 5/65/2 7/5/2
f 2/7/3 1/66/3 5/8/3
f 2/10/4 4/67/4 3/11/4
f 6/13/5 12/68/5 9/14/5
f 4/16/6 10/69/6 11/17/6
f 7/19/7 5/70/7 1/20/7
f 27/22/8 20/37/8 13/23/8
f 25/25/9 16/32/9 18/26/9
f 28/28/10 18/48/10 23/29/10
f 11/17/11 12/68/11 6/13/11
f 15/31/12 17/71/12 18/26/12
f 19/33/13 20/43/13 22/34/13
f 14/36/14 13/23/14 20/37/14
f 15/39/15 16/72/15 13/40/15
f 29/42/10 22/34/10 20/43/10
f 9/14/16 10/69/16 4/16/16
f 13/40/17 16/72/17 25/45/17
f 17/47/13 24/73/13 23/29/13
f 21/51/18 24/74/18 14/49/18
f 24/74/18 17/75/18 15/76/18
f 14/49/18 24/74/18 15/76/18
f 12/52/8 34/77/8 33/53/8
f 10/55/9 31/78/9 32/56/9
f 33/58/17 31/79/17 10/59/17
f 32/61/10 34/80/10 12/62/10
f 23/81/9 41/82/9 30/83/9
f 31/84/19 35/85/19 44/86/19
f 26/87/20 38/88/20 27/89/20
f 28/90/21 42/91/21 25/92/21
f 28/90/22 41/93/22 43/94/22
f 37/95/23 45/96/23 40/97/23
f 31/84/24 45/98/24 32/99/24
f 41/100/10 46/101/10 40/97/10
f 35/102/17 42/103/17 44/104/17
f 46/101/13 39/105/13 47/106/13
f 44/107/9 43/108/9 45/109/9
f 37/110/8 36/111/8 35/112/8
f 26/87/25 42/91/25 36/113/25
f 22/114/26 47/115/26 21/116/26
f 27/89/18 40/117/18 29/118/18
f 21/51/18 39/119/18 24/74/18
f 34/120/27 35/85/27 33/121/27
f 32/99/28 37/122/28 34/120/28
f 23/81/29 39/123/29 48/124/29
f 29/125/8 46/126/8 22/114/8
f 23/81/9 48/124/9 41/82/9
f 31/84/19 33/121/19 35/85/19
f 26/87/20 36/113/20 38/88/20
f 28/90/21 43/94/21 42/91/21
f 28/90/18 30/127/18 41/93/18
f 43/128/30 41/100/30 45/96/30
f 41/100/23 40/97/23 45/96/23
f 40/97/31 38/129/31 37/95/31
f 31/84/24 44/86/24 45/98/24
f 41/100/10 48/130/10 46/101/10
f 35/102/17 36/131/17 42/103/17
f 46/101/13 48/130/13 39/105/13
f 44/107/9 42/132/9 43/108/9
f 37/110/8 38/133/8 36/111/8
f 26/87/25 25/92/25 42/91/25
f 22/114/26 46/126/26 47/115/26
f 27/89/32 38/88/32 40/117/32
f 21/51/18 47/134/18 39/119/18
f 34/120/27 37/122/27 35/85/27
f 32/99/28 45/98/28 37/122/28
f 23/81/29 24/135/29 39/123/29
f 29/125/8 40/136/8 46/126/8
