# Blender v2.92.0 OBJ File: 'quaternius_OGConvert.blend'
# www.blender.org
o Rock4_Icosphere
v -0.008227 -0.016757 0.415621
v 0.259098 0.311630 0.079888
v -0.165008 0.487149 0.075165
v -0.483340 -0.006572 0.088451
v -0.156653 -0.010260 0.088550
v 0.320674 -0.013805 0.088645
v 0.062184 0.385935 -0.196787
v -0.211919 0.438667 -0.072172
v -0.391027 -0.012159 -0.176673
v 0.226291 -0.017393 -0.176532
v 0.367315 0.217572 -0.182855
v -0.018121 -0.012839 -0.407319
vt 0.932701 0.966650
vt 0.706629 0.619513
vt 0.932701 0.507761
vt 0.597930 0.854426
vt 0.418800 0.998127
vt 0.001873 0.739488
vt 0.418800 0.547389
vt 0.478540 0.452614
vt 0.657416 0.068397
vt 0.655883 0.238278
vt 0.654724 0.487199
vt 0.478540 0.604833
vt 0.646240 0.490946
vt 0.012237 0.644706
vt 0.795367 0.001873
vt 0.793489 0.323550
vt 0.024915 0.501357
vt 0.028442 0.221963
vt 0.096214 0.449929
vt 0.474793 0.543642
vt 0.474793 0.373498
vt 0.931608 0.487199
vt 0.001873 0.001873
vt 0.345743 0.057968
vt 0.918337 0.099061
vn 0.2370 0.5934 0.7692
vn 0.6963 0.1506 0.7018
vn -0.5242 0.3587 0.7724
vn -0.0113 -0.9998 -0.0147
vn -0.0074 -0.9998 -0.0165
vn 0.9303 0.1846 0.3171
vn 0.3825 0.9236 -0.0242
vn -0.8361 0.5415 0.0880
vn -0.0113 -0.9998 0.0171
vn -0.0074 -0.9998 0.0162
vn 0.4840 0.8680 -0.1114
vn 0.0354 0.9459 -0.3225
vn -0.8578 0.4120 -0.3073
vn -0.0085 -0.9999 0.0147
vn 0.8186 -0.4990 -0.2846
vn 0.2650 0.4079 -0.8737
vn -0.2802 0.4917 -0.8244
vn -0.4869 0.3762 -0.7883
vn -0.0085 -0.9999 -0.0108
vn 0.6270 -0.3944 -0.6718
s off
f 1/1/1 2/2/1 3/3/1
f 2/2/2 1/1/2 6/4/2
f 1/5/3 3/6/3 4/7/3
f 1/8/4 4/9/4 5/10/4
f 1/8/5 5/10/5 6/11/5
f 2/2/6 6/4/6 11/12/6
f 3/3/7 2/2/7 7/13/7
f 4/7/8 3/6/8 8/14/8
f 5/10/9 4/9/9 9/15/9
f 6/11/10 5/10/10 10/16/10
f 2/2/11 11/12/11 7/13/11
f 3/17/12 7/18/12 8/19/12
f 4/20/13 8/19/13 9/21/13
f 5/10/14 9/15/14 10/16/14
f 6/11/15 10/16/15 11/22/15
f 7/18/16 11/23/16 12/24/16
f 8/19/17 7/18/17 12/24/17
f 9/21/18 8/19/18 12/24/18
f 10/16/19 9/15/19 12/25/19
f 11/22/20 10/16/20 12/25/20
