# Blender v2.92.0 OBJ File: 'OGConvert.blend'
# www.blender.org
o wheelDark
v -1.200000 1.738666 0.465874
v -1.800000 1.325019 0.765000
v -1.200000 1.558846 0.900000
v -1.800000 1.477866 0.395993
v -1.200000 -1.558846 -0.900000
v 0.000000 -1.272792 -1.272792
v 0.000000 -1.558846 -0.900000
v -1.200000 -1.272792 -1.272792
v 0.000000 1.272792 1.272792
v -1.200000 0.900000 1.558846
v 0.000000 0.900000 1.558846
v -1.200000 1.272792 1.272792
v -1.800000 0.765000 -1.325019
v -1.200000 0.465874 -1.738666
v -1.800000 0.395993 -1.477866
v -1.200000 0.900000 -1.558846
v -1.200000 1.738666 -0.465874
v -1.800000 1.530000 0.000000
v -1.200000 1.800000 0.000000
v -1.800000 1.477866 -0.395993
v 0.000000 -0.465874 1.738666
v -1.200000 -0.900000 1.558846
v 0.000000 -0.900000 1.558846
v -1.200000 -0.465874 1.738666
v 0.000000 1.558846 -0.900000
v 0.000000 1.738666 -0.465874
v -1.200000 1.558846 -0.900000
v -1.200000 -0.900000 -1.558846
v -0.000000 -0.900000 -1.558846
v -1.200000 -0.000000 1.800000
v -1.800000 -0.395993 1.477866
v -1.800000 -0.000000 1.530000
v -1.800000 -1.530000 -0.000000
v -1.200000 -1.738666 -0.465874
v -1.200000 -1.800000 -0.000000
v -1.800000 -1.477866 -0.395993
v 0.000000 1.800000 0.000000
v 0.000000 1.738666 0.465874
v -1.200000 -1.272792 1.272792
v 0.000000 -1.558846 0.900000
v 0.000000 -1.272792 1.272792
v -1.200000 -1.558846 0.900000
v -1.200000 0.465874 1.738666
v -1.800000 0.395993 1.477866
v -1.200000 -1.738666 0.465874
v 0.000000 -1.800000 -0.000000
v 0.000000 -1.738666 0.465874
v -1.800000 -1.325019 0.765000
v -1.800000 -1.477866 0.395993
v 0.000000 -1.738666 -0.465874
v -1.800000 0.765000 1.325019
v -1.800000 1.081874 -1.081874
v -1.200000 1.272792 -1.272792
v -1.800000 1.081874 1.081874
v 0.000000 1.272792 -1.272792
v -1.800000 -1.325019 -0.765000
v -1.800000 -1.081874 -1.081874
v -1.800000 -0.765000 -1.325019
v -1.200000 -0.465874 -1.738666
v -1.800000 -0.395993 -1.477866
v -0.000000 0.465874 -1.738666
v -0.000000 0.900000 -1.558846
v -1.800000 -0.765000 1.325019
v -1.800000 -1.081874 1.081874
v -1.800000 0.000000 -1.530000
v -1.800000 0.000000 -0.989281
v -1.800000 -0.256045 -0.955572
v -1.800000 -0.494641 -0.856742
v -1.800000 -0.699527 -0.699527
v -1.800000 -0.856742 -0.494641
v -1.800000 -0.955572 -0.256045
v -1.800000 -0.989281 -0.000000
v -1.800000 -0.955572 0.256045
v -1.800000 -0.856742 0.494641
v -1.800000 -0.699527 0.699527
v -1.800000 -0.494641 0.856742
v -1.800000 -0.256045 0.955572
v -1.800000 -0.000000 0.989281
v -1.800000 0.256045 0.955572
v -1.800000 0.494641 0.856742
v -1.800000 0.699527 0.699527
v -1.800000 0.856742 0.494641
v -1.800000 0.955572 0.256045
v -1.800000 0.989281 0.000000
v -1.800000 0.955572 -0.256045
v -1.800000 0.856742 -0.494641
v -1.800000 0.699527 -0.699527
v -1.800000 1.325019 -0.765000
v -1.800000 0.494641 -0.856742
v -1.800000 0.256045 -0.955572
v -1.200000 0.000000 -1.800000
v -0.000000 -0.465874 -1.738666
v -0.000000 0.000000 -1.800000
v 0.000000 0.465874 1.738666
v 0.000000 -0.000000 1.800000
v 0.000000 1.558846 0.900000
v -1.800000 -0.000000 0.657153
v -1.200000 0.127563 0.476071
v -1.200000 -0.000000 0.492864
v -1.800000 0.170084 0.634761
v -1.200000 -0.127563 -0.476071
v -1.200000 0.127563 -0.476071
v -1.200000 0.000000 -0.492864
v -1.200000 -0.246432 -0.426833
v -1.200000 0.246432 -0.426833
v -1.200000 -0.348508 -0.348508
v -1.200000 0.348508 -0.348508
v -1.200000 -0.426833 -0.246432
v -1.200000 0.426833 -0.246432
v -1.200000 -0.476071 -0.127563
v -1.200000 0.476071 -0.127563
v -1.200000 -0.492864 -0.000000
v -1.200000 0.492864 0.000000
v -1.200000 -0.476071 0.127563
v -1.200000 0.476071 0.127563
v -1.200000 -0.426833 0.246432
v -1.200000 0.426833 0.246432
v -1.200000 -0.348508 0.348508
v -1.200000 0.348508 0.348508
v -1.200000 -0.246432 0.426833
v -1.200000 0.246432 0.426833
v -1.200000 -0.127563 0.476071
v -1.800000 -0.569111 0.328576
v -1.800000 -0.634761 0.170084
v -1.800000 0.000000 -0.657153
v -1.800000 0.170084 -0.634761
v -1.800000 -0.657153 -0.000000
v -1.800000 0.328576 0.569111
v -1.800000 0.328576 -0.569111
v -1.800000 -0.569111 -0.328576
v -1.800000 -0.464677 -0.464677
v -1.800000 0.569111 -0.328576
v -1.800000 0.464677 -0.464677
v -1.800000 -0.328576 0.569111
v -1.800000 -0.464677 0.464677
v -1.800000 0.634761 -0.170084
v -1.800000 -0.634761 -0.170084
v -1.800000 -0.170084 0.634761
v -1.800000 -0.170084 -0.634761
v -1.800000 -0.328576 -0.569111
v -1.800000 0.464677 0.464677
v -1.800000 0.569111 0.328576
v -1.800000 0.634761 0.170084
v -1.800000 0.657153 0.000000
vt 0.644842 0.553491
vt 0.729036 0.613819
vt 0.643239 0.616348
vt 0.730399 0.560390
vt 0.839749 0.568398
vt 0.997281 0.505521
vt 0.997281 0.568398
vt 0.839749 0.505521
vt 0.487361 0.673127
vt 0.649542 0.731734
vt 0.492061 0.727718
vt 0.644842 0.677143
vt 0.754044 0.808929
vt 0.839749 0.867090
vt 0.754044 0.862374
vt 0.839749 0.804213
vt 0.657018 0.438576
vt 0.734394 0.508851
vt 0.649542 0.492857
vt 0.740749 0.462713
vt 0.741020 0.285980
vt 0.586640 0.225245
vt 0.744172 0.225245
vt 0.583488 0.285980
vt 0.509281 0.390333
vt 0.499537 0.434560
vt 0.666762 0.394349
vt 0.836596 0.444786
vt 0.994128 0.444786
vt 0.577397 0.340434
vt 0.498255 0.272154
vt 0.493079 0.318440
vt 0.746187 0.661592
vt 0.836596 0.629133
vt 0.830506 0.683586
vt 0.751364 0.615307
vt 0.492061 0.488840
vt 0.487361 0.549475
vt 0.586640 0.162368
vt 0.741020 0.101634
vt 0.744172 0.162368
vt 0.583488 0.101634
vt 0.568785 0.384894
vt 0.485758 0.356231
vt 0.577397 0.047180
vt 0.726317 0.002719
vt 0.734930 0.047180
vt 0.568785 0.002719
vt 0.498255 0.115459
vt 0.493079 0.069174
vt 0.994128 0.629133
vt 0.988038 0.683586
vt 0.657018 0.776400
vt 0.734394 0.711897
vt 0.740749 0.749863
vt 0.751364 0.757304
vt 0.836596 0.743478
vt 0.730399 0.665495
vt 0.485758 0.031382
vt 0.994128 0.743478
vt 0.830506 0.689025
vt 0.988038 0.689025
vt 0.754044 0.563683
vt 0.754044 0.510237
vt 0.751364 0.458612
vt 0.830506 0.390333
vt 0.746187 0.412327
vt 0.997281 0.867090
vt 0.997281 0.804213
vt 0.500935 0.220530
vt 0.500935 0.167084
vt 0.016552 0.610391
vt 0.002719 0.715461
vt 0.002719 0.662015
vt 0.043275 0.564105
vt 0.016552 0.767085
vt 0.081067 0.526313
vt 0.043275 0.813371
vt 0.074455 0.671459
vt 0.083399 0.638079
vt 0.127352 0.499591
vt 0.100678 0.608152
vt 0.125113 0.583716
vt 0.178977 0.485758
vt 0.155041 0.566437
vt 0.188421 0.557493
vt 0.232422 0.485758
vt 0.222978 0.557493
vt 0.284047 0.499591
vt 0.256358 0.566437
vt 0.286285 0.583716
vt 0.330332 0.526313
vt 0.310721 0.608152
vt 0.328000 0.638079
vt 0.368124 0.564105
vt 0.336944 0.671459
vt 0.336944 0.706017
vt 0.330332 0.851162
vt 0.328000 0.739397
vt 0.310721 0.769324
vt 0.284047 0.877885
vt 0.286285 0.793760
vt 0.256358 0.811038
vt 0.232422 0.891718
vt 0.222978 0.819983
vt 0.178976 0.891718
vt 0.188421 0.819983
vt 0.155041 0.811038
vt 0.127352 0.877885
vt 0.125113 0.793760
vt 0.100677 0.769324
vt 0.081067 0.851162
vt 0.083399 0.739397
vt 0.074455 0.706017
vt 0.394847 0.610391
vt 0.368124 0.813371
vt 0.408679 0.662015
vt 0.394847 0.767085
vt 0.408679 0.715461
vt 0.480319 0.485758
vt 0.480319 0.578749
vt 0.437968 0.501799
vt 0.480319 0.584188
vt 0.480319 0.684923
vt 0.447088 0.603617
vt 0.836596 0.927825
vt 0.988038 0.982278
vt 0.830506 0.982278
vt 0.994128 0.927825
vt 0.746187 0.711019
vt 0.499537 0.772384
vt 0.746187 0.960284
vt 0.751364 0.913999
vt 0.734930 0.340434
vt 0.988038 0.390333
vt 0.002719 0.272958
vt 0.050432 0.388146
vt 0.018993 0.333693
vt 0.002719 0.210081
vt 0.094893 0.432607
vt 0.018993 0.149346
vt 0.149346 0.464045
vt 0.050432 0.094893
vt 0.210081 0.480319
vt 0.094893 0.050432
vt 0.272958 0.480319
vt 0.149346 0.018993
vt 0.333693 0.464045
vt 0.210081 0.002719
vt 0.388146 0.432607
vt 0.272958 0.002719
vt 0.432607 0.388146
vt 0.333693 0.018993
vt 0.464045 0.333693
vt 0.388146 0.050432
vt 0.480319 0.272958
vt 0.432607 0.094893
vt 0.480319 0.210081
vt 0.464045 0.149346
vt 0.485758 0.612332
vt 0.726317 0.384894
vt 0.843653 0.158778
vt 0.928105 0.153488
vt 0.926225 0.168372
vt 0.846161 0.138931
vt 0.754067 0.042868
vt 0.749611 0.076714
vt 0.749611 0.059498
vt 0.762675 0.027958
vt 0.754067 0.093344
vt 0.774849 0.015784
vt 0.762675 0.108254
vt 0.789759 0.007175
vt 0.774849 0.120428
vt 0.806389 0.002719
vt 0.789759 0.129037
vt 0.823606 0.002719
vt 0.806389 0.133493
vt 0.840236 0.007175
vt 0.823606 0.133493
vt 0.855146 0.015784
vt 0.840236 0.129037
vt 0.867320 0.027958
vt 0.855146 0.120428
vt 0.875928 0.042868
vt 0.867320 0.108254
vt 0.880384 0.059498
vt 0.875928 0.093344
vt 0.880384 0.076714
vt 0.929141 0.245983
vt 0.844629 0.245983
vt 0.926957 0.233776
vt 0.758199 0.138931
vt 0.836418 0.170551
vt 0.754641 0.155078
vt 0.569231 0.824378
vt 0.488059 0.798146
vt 0.570518 0.809430
vt 0.486343 0.818076
vt 0.834371 0.185413
vt 0.751912 0.174895
vt 0.583035 0.905173
vt 0.662764 0.874838
vt 0.664811 0.889701
vt 0.580305 0.885356
vt 0.568792 0.841024
vt 0.485758 0.840272
vt 0.833084 0.235874
vt 0.749611 0.219980
vt 0.832645 0.219227
vt 0.750196 0.242175
vt 0.488059 0.885356
vt 0.569231 0.858235
vt 0.570518 0.874838
vt 0.486343 0.863220
vt 0.841857 0.203885
vt 0.925503 0.218844
vt 0.842690 0.226073
vt 0.924877 0.202203
vt 0.490789 0.905173
vt 0.572565 0.889701
vt 0.750196 0.197032
vt 0.833084 0.202016
vt 0.925124 0.184988
vt 0.842185 0.180932
vt 0.118517 0.677260
vt 0.124458 0.655087
vt 0.135936 0.635207
vt 0.152168 0.618975
vt 0.172048 0.607497
vt 0.194222 0.601556
vt 0.217177 0.601556
vt 0.239350 0.607497
vt 0.259231 0.618975
vt 0.275463 0.635207
vt 0.286940 0.655087
vt 0.292882 0.677260
vt 0.292882 0.700216
vt 0.286940 0.722389
vt 0.275462 0.742269
vt 0.259230 0.758501
vt 0.239350 0.769979
vt 0.217177 0.775920
vt 0.194222 0.775920
vt 0.172048 0.769979
vt 0.152168 0.758501
vt 0.135936 0.742269
vt 0.124458 0.722389
vt 0.118517 0.700216
vt 0.661477 0.858235
vt 0.578589 0.863220
vt 0.661038 0.841024
vt 0.578004 0.840271
vt 0.834371 0.250821
vt 0.754641 0.278412
vt 0.751912 0.262105
vt 0.836418 0.263051
vt 0.572565 0.797200
vt 0.490789 0.781839
vt 0.578589 0.818076
vt 0.662764 0.809430
vt 0.661477 0.824378
vt 0.580305 0.798146
vt 0.664811 0.797200
vt 0.583035 0.781839
vn -0.4104 0.8808 0.2360
vn -0.4104 0.7897 0.4560
vn 0.0000 -0.8660 -0.5000
vn 0.0000 -0.7071 -0.7071
vn 0.0000 0.7071 0.7071
vn 0.0000 0.5000 0.8660
vn -0.4104 0.4560 -0.7897
vn -0.4104 0.2360 -0.8808
vn -0.4104 0.8808 -0.2360
vn -0.4104 0.9119 0.0000
vn 0.0000 -0.2588 0.9659
vn 0.0000 -0.5000 0.8660
vn 0.0000 0.8660 -0.5000
vn 0.0000 0.9659 -0.2588
vn 0.0000 -0.5000 -0.8660
vn -0.4104 -0.0000 0.9119
vn -0.4104 -0.2360 0.8808
vn -0.4104 -0.9119 0.0000
vn -0.4104 -0.8808 -0.2360
vn 0.0000 1.0000 0.0000
vn 0.0000 0.9659 0.2588
vn 0.0000 -0.7071 0.7071
vn 0.0000 -0.8660 0.5000
vn -0.4104 0.2360 0.8808
vn 0.0000 -0.9659 0.2588
vn 0.0000 -1.0000 0.0000
vn -0.4104 -0.7897 0.4560
vn -0.4104 -0.8808 0.2360
vn 0.0000 -0.9659 -0.2588
vn -0.4104 0.4560 0.7897
vn -0.4104 0.6448 -0.6448
vn -0.4104 0.6448 0.6448
vn 0.0000 0.7071 -0.7071
vn -0.4104 -0.7897 -0.4560
vn -0.4104 -0.6448 -0.6448
vn -0.4104 -0.4560 -0.7897
vn -0.4104 -0.2360 -0.8808
vn 0.0000 0.5000 -0.8660
vn 0.0000 0.2588 -0.9659
vn -0.4104 -0.4560 0.7897
vn -0.4104 -0.6448 0.6448
vn -1.0000 0.0000 0.0000
vn -0.4104 0.7897 -0.4560
vn 0.0000 -0.0000 -1.0000
vn 0.0000 -0.2588 -0.9659
vn 0.0000 0.2588 0.9659
vn -0.4104 0.0000 -0.9119
vn 0.0000 0.0000 1.0000
vn 1.0000 0.0000 -0.0000
vn 0.0000 0.8660 0.5000
vn -0.2641 0.0000 -0.9645
vn -0.2641 -0.2496 -0.9316
vn -0.2641 0.9316 -0.2496
vn -0.2641 0.8353 -0.4822
vn -0.2641 -0.2496 0.9316
vn -0.2641 -0.0000 0.9645
vn -0.2641 0.9645 -0.0000
vn -0.2641 -0.4822 -0.8353
vn -0.2641 -0.4822 0.8353
vn -0.2641 0.6820 0.6820
vn -0.2641 0.8353 0.4822
vn -0.2641 -0.8353 0.4822
vn -0.2641 -0.6820 0.6820
vn -0.2641 0.4822 -0.8353
vn -0.2641 0.6820 -0.6820
vn -0.2641 -0.9316 0.2496
vn -0.2641 0.9316 0.2496
vn -0.2641 0.2496 -0.9316
vn -0.2641 -0.6820 -0.6820
vn -0.2641 -0.8353 -0.4822
vn -0.2641 0.4822 0.8353
vn -0.2641 0.2496 0.9316
vn -0.2641 -0.9316 -0.2496
vn -0.2641 -0.9645 -0.0000
s 1
f 1/1/1 2/2/2 3/3/2
f 2/2/2 1/1/1 4/4/1
f 5/5/3 6/6/4 7/7/3
f 6/6/4 5/5/3 8/8/4
f 9/9/5 10/10/6 11/11/6
f 10/10/6 9/9/5 12/12/5
f 13/13/7 14/14/8 15/15/8
f 14/14/8 13/13/7 16/16/7
f 17/17/9 18/18/10 19/19/10
f 18/18/10 17/17/9 20/20/9
f 21/21/11 22/22/12 23/23/12
f 22/22/12 21/21/11 24/24/11
f 25/25/13 17/17/14 26/26/14
f 17/17/14 25/25/13 27/27/13
f 28/28/15 6/6/4 8/8/4
f 6/6/4 28/28/15 29/29/15
f 30/30/16 31/31/17 24/24/17
f 31/31/17 30/30/16 32/32/16
f 33/33/18 34/34/19 35/35/18
f 34/34/19 33/33/18 36/36/19
f 37/37/20 1/1/21 38/38/21
f 1/1/21 37/37/20 19/19/20
f 39/39/22 40/40/23 41/41/22
f 40/40/23 39/39/22 42/42/23
f 43/43/24 32/32/16 30/30/16
f 32/32/16 43/43/24 44/44/24
f 45/45/25 46/46/26 47/47/25
f 46/46/26 45/45/25 35/48/26
f 48/49/27 45/45/28 42/42/27
f 45/45/28 48/49/27 49/50/28
f 35/35/26 50/51/29 46/52/26
f 50/51/29 35/35/26 34/34/29
f 23/23/12 39/39/22 41/41/22
f 39/39/22 23/23/12 22/22/12
f 43/53/24 51/54/30 44/55/24
f 51/54/30 43/53/24 10/10/30
f 42/42/23 47/47/25 40/40/23
f 47/47/25 42/42/23 45/45/25
f 19/19/10 4/4/1 1/1/1
f 4/4/1 19/19/10 18/18/10
f 52/56/31 16/16/7 13/13/7
f 16/16/7 52/56/31 53/57/31
f 10/10/30 54/58/32 51/54/30
f 54/58/32 10/10/30 12/12/32
f 49/50/28 35/48/18 45/45/28
f 35/48/18 49/50/28 33/59/18
f 3/3/2 54/58/32 12/12/32
f 54/58/32 3/3/2 2/2/2
f 55/60/33 27/61/13 25/62/13
f 27/61/13 55/60/33 53/57/33
f 56/63/34 8/8/35 5/5/34
f 8/8/35 56/63/34 57/64/35
f 58/65/36 59/66/37 28/28/36
f 59/66/37 58/65/36 60/67/37
f 16/16/38 61/68/39 14/14/39
f 61/68/39 16/16/38 62/69/38
f 24/24/17 63/70/40 22/22/40
f 63/70/40 24/24/17 31/31/17
f 64/71/41 42/42/27 39/39/41
f 42/42/27 64/71/41 48/49/27
f 60/72/42 15/73/42 65/74/42
f 15/73/42 60/72/42 58/75/42
f 15/73/42 58/75/42 13/76/42
f 13/76/42 58/75/42 57/77/42
f 13/76/42 57/77/42 52/78/42
f 52/78/42 57/77/42 66/79/42
f 66/79/42 57/77/42 67/80/42
f 67/80/42 57/77/42 56/81/42
f 67/80/42 56/81/42 68/82/42
f 68/82/42 56/81/42 69/83/42
f 69/83/42 56/81/42 36/84/42
f 69/83/42 36/84/42 70/85/42
f 70/85/42 36/84/42 71/86/42
f 71/86/42 36/84/42 33/87/42
f 71/86/42 33/87/42 72/88/42
f 72/88/42 33/87/42 49/89/42
f 72/88/42 49/89/42 73/90/42
f 73/90/42 49/89/42 74/91/42
f 74/91/42 49/89/42 48/92/42
f 74/91/42 48/92/42 75/93/42
f 75/93/42 48/92/42 76/94/42
f 76/94/42 48/92/42 64/95/42
f 76/94/42 64/95/42 77/96/42
f 77/96/42 64/95/42 78/97/42
f 54/98/42 78/97/42 64/95/42
f 54/98/42 79/99/42 78/97/42
f 54/98/42 80/100/42 79/99/42
f 2/101/42 80/100/42 54/98/42
f 2/101/42 81/102/42 80/100/42
f 2/101/42 82/103/42 81/102/42
f 4/104/42 82/103/42 2/101/42
f 4/104/42 83/105/42 82/103/42
f 18/106/42 83/105/42 4/104/42
f 18/106/42 84/107/42 83/105/42
f 18/106/42 85/108/42 84/107/42
f 20/109/42 85/108/42 18/106/42
f 20/109/42 86/110/42 85/108/42
f 20/109/42 87/111/42 86/110/42
f 88/112/42 87/111/42 20/109/42
f 88/112/42 89/113/42 87/111/42
f 88/112/42 90/114/42 89/113/42
f 52/78/42 90/114/42 88/112/42
f 90/114/42 52/78/42 66/79/42
f 54/98/42 64/95/42 63/115/42
f 54/98/42 63/115/42 51/116/42
f 51/116/42 63/115/42 31/117/42
f 51/116/42 31/117/42 44/118/42
f 44/118/42 31/117/42 32/119/42
f 27/120/43 20/121/9 17/122/9
f 20/123/9 27/124/43 88/125/43
f 91/126/44 92/127/45 59/128/45
f 92/127/45 91/126/44 93/129/44
f 53/57/31 88/130/43 27/61/43
f 88/130/43 53/57/31 52/56/31
f 57/64/35 28/28/36 8/8/35
f 28/28/36 57/64/35 58/65/36
f 26/26/14 19/19/20 37/37/20
f 19/19/20 26/26/14 17/17/14
f 34/34/29 7/7/3 50/51/29
f 7/7/3 34/34/29 5/5/3
f 11/11/6 43/53/46 94/131/46
f 43/53/46 11/11/6 10/10/6
f 60/132/37 91/126/47 59/128/37
f 91/126/47 60/132/37 65/133/47
f 95/134/48 24/24/11 21/21/11
f 24/24/11 95/134/48 30/30/48
f 36/36/19 5/5/34 34/34/19
f 5/5/34 36/36/19 56/63/34
f 59/66/45 29/29/15 28/28/15
f 29/29/15 59/66/45 92/135/45
f 61/136/49 92/137/49 93/138/49
f 92/137/49 61/136/49 62/139/49
f 92/137/49 62/139/49 29/140/49
f 29/140/49 62/139/49 55/141/49
f 29/140/49 55/141/49 6/142/49
f 6/142/49 55/141/49 25/143/49
f 6/142/49 25/143/49 7/144/49
f 7/144/49 25/143/49 26/145/49
f 7/144/49 26/145/49 50/146/49
f 50/146/49 26/145/49 37/147/49
f 50/146/49 37/147/49 46/148/49
f 46/148/49 37/147/49 38/149/49
f 46/148/49 38/149/49 47/150/49
f 47/150/49 38/149/49 96/151/49
f 47/150/49 96/151/49 40/152/49
f 40/152/49 96/151/49 9/153/49
f 40/152/49 9/153/49 41/154/49
f 41/154/49 9/153/49 11/155/49
f 41/154/49 11/155/49 23/156/49
f 23/156/49 11/155/49 94/157/49
f 23/156/49 94/157/49 21/158/49
f 21/158/49 94/157/49 95/159/49
f 14/14/39 93/129/44 91/126/44
f 93/129/44 14/14/39 61/68/39
f 22/22/40 64/71/41 39/39/41
f 64/71/41 22/22/40 63/70/40
f 15/15/8 91/126/47 65/133/47
f 91/126/47 15/15/8 14/14/8
f 38/38/21 3/3/50 96/160/50
f 3/3/50 38/38/21 1/1/21
f 96/160/50 12/12/5 9/9/5
f 12/12/5 96/160/50 3/3/50
f 53/57/33 62/69/38 16/16/38
f 62/69/38 53/57/33 55/60/33
f 94/161/46 30/30/48 95/134/48
f 30/30/48 94/161/46 43/43/46
f 97/162/51 98/163/52 99/164/51
f 98/163/52 97/162/51 100/165/52
f 101/166/42 102/167/42 103/168/42
f 102/167/42 101/166/42 104/169/42
f 102/167/42 104/169/42 105/170/42
f 105/170/42 104/169/42 106/171/42
f 105/170/42 106/171/42 107/172/42
f 107/172/42 106/171/42 108/173/42
f 107/172/42 108/173/42 109/174/42
f 109/174/42 108/173/42 110/175/42
f 109/174/42 110/175/42 111/176/42
f 111/176/42 110/175/42 112/177/42
f 111/176/42 112/177/42 113/178/42
f 113/178/42 112/177/42 114/179/42
f 113/178/42 114/179/42 115/180/42
f 115/180/42 114/179/42 116/181/42
f 115/180/42 116/181/42 117/182/42
f 117/182/42 116/181/42 118/183/42
f 117/182/42 118/183/42 119/184/42
f 119/184/42 118/183/42 120/185/42
f 119/184/42 120/185/42 121/186/42
f 121/186/42 120/185/42 122/187/42
f 121/186/42 122/187/42 98/188/42
f 98/188/42 122/187/42 99/189/42
f 114/190/53 123/191/54 116/192/54
f 123/193/54 114/194/53 124/195/53
f 102/196/55 125/197/56 103/198/56
f 125/197/56 102/196/55 126/199/55
f 112/200/57 124/195/53 114/194/53
f 124/195/53 112/200/57 127/201/57
f 100/202/52 121/203/58 98/204/52
f 121/203/58 100/202/52 128/205/58
f 105/206/59 126/199/55 102/196/55
f 126/199/55 105/206/59 129/207/59
f 106/208/60 130/209/61 108/210/61
f 130/209/61 106/208/60 131/211/60
f 132/212/62 107/213/63 109/214/62
f 107/213/63 132/212/62 133/215/63
f 134/216/64 118/217/65 135/218/65
f 118/217/65 134/216/64 120/219/64
f 107/213/63 129/207/59 105/206/59
f 129/207/59 107/213/63 133/215/63
f 136/220/66 109/214/62 111/221/66
f 109/214/62 136/220/66 132/212/62
f 108/210/61 137/222/67 110/223/67
f 137/222/67 108/210/61 130/209/61
f 97/162/51 122/224/68 138/225/68
f 122/224/68 97/162/51 99/164/51
f 67/80/42 90/114/42 66/79/42
f 90/114/42 67/80/42 89/113/42
f 89/113/42 67/80/42 68/82/42
f 89/113/42 68/82/42 69/83/42
f 89/113/42 69/83/42 87/111/42
f 87/111/42 69/83/42 125/226/42
f 125/226/42 69/83/42 139/227/42
f 139/227/42 69/83/42 70/85/42
f 139/227/42 70/85/42 140/228/42
f 140/228/42 70/85/42 131/229/42
f 131/229/42 70/85/42 71/86/42
f 131/229/42 71/86/42 130/230/42
f 130/230/42 71/86/42 137/231/42
f 137/231/42 71/86/42 72/88/42
f 137/231/42 72/88/42 127/232/42
f 127/232/42 72/88/42 73/90/42
f 127/232/42 73/90/42 124/233/42
f 124/233/42 73/90/42 123/234/42
f 123/234/42 73/90/42 74/91/42
f 123/234/42 74/91/42 135/235/42
f 135/235/42 74/91/42 134/236/42
f 134/236/42 74/91/42 75/93/42
f 134/236/42 75/93/42 138/237/42
f 138/237/42 75/93/42 97/238/42
f 97/238/42 75/93/42 81/102/42
f 81/102/42 75/93/42 80/100/42
f 80/100/42 75/93/42 76/94/42
f 80/100/42 76/94/42 79/99/42
f 79/99/42 76/94/42 77/96/42
f 79/99/42 77/96/42 78/97/42
f 81/102/42 100/239/42 97/238/42
f 81/102/42 128/240/42 100/239/42
f 82/103/42 128/240/42 81/102/42
f 82/103/42 141/241/42 128/240/42
f 82/103/42 142/242/42 141/241/42
f 83/105/42 142/242/42 82/103/42
f 83/105/42 143/243/42 142/242/42
f 84/107/42 143/243/42 83/105/42
f 84/107/42 144/244/42 143/243/42
f 84/107/42 136/245/42 144/244/42
f 85/108/42 136/245/42 84/107/42
f 85/108/42 132/246/42 136/245/42
f 85/108/42 133/247/42 132/246/42
f 86/110/42 133/247/42 85/108/42
f 86/110/42 129/248/42 133/247/42
f 86/110/42 126/249/42 129/248/42
f 87/111/42 126/249/42 86/110/42
f 126/249/42 87/111/42 125/226/42
f 128/205/58 119/250/69 121/203/58
f 119/250/69 128/205/58 141/251/69
f 141/251/69 117/252/70 119/250/69
f 117/252/70 141/251/69 142/253/70
f 138/225/68 120/219/64 134/216/64
f 120/219/64 138/225/68 122/224/68
f 104/254/71 139/255/72 140/256/71
f 139/255/72 104/254/71 101/257/72
f 110/223/67 127/201/57 112/200/57
f 127/201/57 110/223/67 137/222/67
f 101/258/72 125/197/56 139/259/72
f 125/197/56 101/258/72 103/198/56
f 116/192/54 135/218/65 118/217/65
f 135/218/65 116/192/54 123/191/54
f 143/260/73 113/261/74 115/262/73
f 113/261/74 143/260/73 144/263/74
f 142/253/70 115/262/73 117/252/70
f 115/262/73 142/253/70 143/260/73
f 144/263/74 111/264/66 113/261/74
f 111/264/66 144/263/74 136/265/66
f 106/208/60 140/256/71 131/211/60
f 140/256/71 106/208/60 104/254/71
