# Blender v2.92.0 OBJ File: 'OGConvert.blend'
# www.blender.org
o watercraftPack_004
v -2.949160 -0.000002 36.449680
v 0.000000 3.311998 46.106720
v -4.915264 3.311998 44.292961
v 0.000000 -0.000002 37.537842
v 6.739592 0.000001 -32.440720
v -6.739592 -0.000001 32.440720
v -6.739592 0.000001 -32.440720
v -11.232640 3.311998 37.611439
v -11.232640 3.312001 -32.440720
v -14.779760 7.728002 -32.440720
v -14.779760 7.727998 40.771042
v -6.467448 7.727998 49.562561
v 0.000000 7.727998 51.949039
v 4.915264 3.311998 44.292961
v 6.467448 7.727998 49.562561
v 11.232640 3.311998 37.611439
v 14.779840 7.727998 40.771042
v 14.779840 7.728002 -32.440720
v 11.232640 3.312001 -32.440720
v 6.739592 -0.000001 32.440720
v 2.949160 -0.000002 36.449680
v 14.040800 11.039998 40.112801
v 14.040800 11.040001 -32.440720
v 9.288640 8.832001 -32.440720
v -9.288640 8.832001 -32.440720
v -14.040800 11.040001 -32.440720
v -14.040800 11.039998 40.112801
v -6.144080 11.039998 48.464722
v 0.000000 11.039998 50.731918
v 6.144080 11.039998 48.464722
v 12.384800 11.039998 39.241920
v 4.969976 11.039998 47.084160
v 0.000000 11.039998 48.918079
v -4.969976 11.039998 47.084160
v -12.384800 11.039998 39.241920
v -12.384800 11.040001 -30.784719
v -9.288640 11.040001 -32.440720
v -9.288640 11.040001 -30.784719
v -12.384800 8.832001 -30.784719
v -9.288640 8.832001 -30.784719
v -9.072800 8.831998 39.961922
v -12.384800 8.832000 9.886640
v -12.384800 8.831999 28.815121
v -12.384800 8.831998 39.241920
v -4.969976 8.831998 47.084160
v 0.000000 8.831998 48.918079
v 4.969976 8.831998 47.084160
v 12.384800 8.831998 39.241920
v 12.384800 11.040001 -30.784719
v 12.384800 8.831999 24.399120
v 12.384800 8.832000 9.886640
v 12.384800 8.832001 -30.784719
v 9.288640 8.832001 -30.784719
v 9.288640 11.040001 -30.784719
v 9.288640 11.040001 -32.440720
v -9.072800 8.832000 7.471289
v -9.072800 11.591998 33.721920
v -9.072800 11.591998 39.961922
v 9.072800 11.591998 39.961922
v 9.072800 8.831998 39.961922
v 9.072800 8.832000 7.471289
v -9.072800 17.106480 7.471289
v 9.072800 17.106480 7.471289
v 10.176800 17.106480 6.511289
v -10.176800 17.106480 6.511289
v -10.176800 17.106478 40.345921
v -9.072800 17.106478 33.721920
v -8.272800 17.106478 39.241920
v 10.176800 17.106478 40.345921
v 8.272800 17.106478 39.241920
v -8.272800 11.591998 39.241920
v 8.272800 11.591998 39.241920
v -8.272800 11.591998 33.721920
v -8.272800 17.106478 33.721920
v 8.272800 17.106478 33.721920
v 9.072800 17.106478 33.721920
v 8.272800 11.591998 33.721920
v 9.072800 11.591998 33.721920
v 10.176800 19.314478 40.345921
v 10.176800 19.314480 7.615289
v 10.176800 18.210480 6.511289
v -10.176800 18.210480 6.511289
v -10.176800 19.314480 7.615289
v -10.176800 19.314478 40.345921
vt 0.148295 0.135240
vt 0.124242 0.054380
vt 0.164330 0.069114
vt 0.124242 0.126401
vt 0.069276 0.694838
vt 0.179208 0.167805
vt 0.179208 0.694838
vt 0.215852 0.123388
vt 0.215852 0.692422
vt 0.698034 0.383509
vt 0.734726 0.954742
vt 0.699466 0.954831
vt 0.733230 0.357652
vt 0.176989 0.023088
vt 0.244781 0.094501
vt 0.124242 0.003702
vt 0.084155 0.069114
vt 0.071496 0.023088
vt 0.032632 0.123388
vt 0.003702 0.094501
vt 0.871436 0.575025
vt 0.908129 0.003791
vt 0.906632 0.600882
vt 0.872869 0.003702
vt 0.069276 0.167805
vt 0.032632 0.692422
vt 0.100190 0.135240
vt 0.859327 0.351520
vt 0.832316 0.498096
vt 0.832316 0.314876
vt 0.859327 0.461452
vt 0.796300 0.527025
vt 0.796300 0.285946
vt 0.258711 0.734457
vt 0.252186 0.948549
vt 0.252186 0.734457
vt 0.400176 0.948549
vt 0.393651 0.734457
vt 0.393651 0.689437
vt 0.258711 0.689437
vt 0.400176 0.734457
vt 0.003702 0.689202
vt 0.244781 0.689202
vt 0.488616 0.653734
vt 0.515628 0.076746
vt 0.513867 0.653734
vt 0.488616 0.322031
vt 0.488616 0.167656
vt 0.488616 0.082618
vt 0.549089 0.018659
vt 0.515628 0.341730
vt 0.665378 0.653734
vt 0.836750 0.799414
vt 0.814248 0.748522
vt 0.836750 0.534430
vt 0.814248 0.799414
vt 0.114254 0.850233
vt 0.136702 0.702243
vt 0.136702 0.850233
vt 0.114254 0.702243
vt 0.663617 0.076746
vt 0.589622 0.003702
vt 0.630156 0.018659
vt 0.690629 0.082618
vt 0.663617 0.341730
vt 0.690629 0.653734
vt 0.996298 0.572530
vt 0.996298 0.003702
vt 0.996298 0.242156
vt 0.996298 0.124270
vt 0.475065 0.689438
vt 0.407581 0.837427
vt 0.407581 0.689438
vt 0.475065 0.837427
vt 0.009574 0.843708
vt 0.003702 0.702243
vt 0.009574 0.708767
vt 0.003702 0.850233
vt 0.054594 0.850233
vt 0.054594 0.843708
vt 0.231330 0.702243
vt 0.237854 0.747094
vt 0.231330 0.747094
vt 0.237854 0.702243
vt 0.237854 0.799349
vt 0.231330 0.754498
vt 0.237854 0.754498
vt 0.231330 0.799349
vt 0.054594 0.708767
vt 0.054594 0.702243
vt 0.893938 0.944975
vt 0.871436 0.679991
vt 0.893938 0.894083
vt 0.871436 0.944975
vt 0.938898 0.894083
vt 0.938898 0.679991
vt 0.769289 0.534430
vt 0.769289 0.748522
vt 0.933803 0.595581
vt 0.935287 0.003859
vt 0.787296 0.330731
vt 0.769289 0.291974
vt 0.787296 0.482242
vt 0.769289 0.520999
vt 0.760401 0.362952
vt 0.761884 0.954674
vt 0.761884 0.294832
vt 0.734791 0.285946
vt 0.196324 0.807736
vt 0.222555 0.754989
vt 0.223925 0.805099
vt 0.194882 0.754989
vt 0.223925 0.704880
vt 0.196324 0.702243
vt 0.935286 0.663701
vt 0.908194 0.672587
vt 0.467705 0.097411
vt 0.416808 0.022193
vt 0.481211 0.090309
vt 0.407232 0.033453
vt 0.366699 0.018496
vt 0.366699 0.003702
vt 0.326165 0.033453
vt 0.316589 0.022193
vt 0.265692 0.097411
vt 0.252186 0.090309
vt 0.252186 0.682033
vt 0.265692 0.668527
vt 0.290943 0.682033
vt 0.290943 0.668527
vt 0.061998 0.869840
vt 0.079957 0.844588
vt 0.079957 0.869840
vt 0.061998 0.844588
vt 0.960693 0.067665
vt 0.944088 0.003747
vt 0.962090 0.003702
vt 0.942691 0.067709
vt 0.960901 0.152702
vt 0.944088 0.638823
vt 0.961279 0.307077
vt 0.962090 0.638779
vt 0.862163 0.817780
vt 0.844155 0.858313
vt 0.844155 0.817780
vt 0.862163 0.858313
vt 0.844155 0.898847
vt 0.862163 0.898847
vt 0.969494 0.574816
vt 0.988893 0.638823
vt 0.970891 0.638779
vt 0.987496 0.574861
vt 0.970891 0.003702
vt 0.987792 0.453808
vt 0.988082 0.335449
vt 0.988893 0.003746
vt 0.105320 0.844588
vt 0.087361 0.869840
vt 0.087361 0.844588
vt 0.105320 0.869840
vt 0.467705 0.668527
vt 0.442454 0.682033
vt 0.442454 0.668527
vt 0.481211 0.682033
vt 0.769289 0.330731
vt 0.821653 0.824820
vt 0.835159 0.806818
vt 0.835159 0.824820
vt 0.821653 0.806818
vt 0.513867 0.667240
vt 0.665378 0.667240
vt 0.835159 0.832225
vt 0.821653 0.850227
vt 0.821653 0.832225
vt 0.835159 0.850227
vt 0.769289 0.482242
vt 0.707038 0.011500
vt 0.864031 0.003702
vt 0.855027 0.011500
vt 0.698034 0.003702
vt 0.698034 0.278542
vt 0.707038 0.224735
vt 0.713562 0.269574
vt 0.864031 0.278542
vt 0.848503 0.269574
vt 0.713562 0.224735
vt 0.855027 0.224735
vt 0.848503 0.224735
vt 0.662018 0.674644
vt 0.680020 0.950589
vt 0.662018 0.950589
vt 0.680020 0.683648
vt 0.671019 0.674644
vt 0.144107 0.868241
vt 0.153111 0.702243
vt 0.153111 0.868241
vt 0.144107 0.702243
vt 0.862157 0.534430
vt 0.844155 0.543434
vt 0.853156 0.534430
vt 0.862157 0.810375
vt 0.844155 0.810375
vt 0.169519 0.868241
vt 0.187477 0.702243
vt 0.187477 0.868241
vt 0.169519 0.702243
vt 0.488616 0.941585
vt 0.654614 0.674644
vt 0.654613 0.941585
vt 0.488616 0.674644
vt 0.162114 0.868241
vt 0.162114 0.702243
vt 0.061998 0.837184
vt 0.106849 0.702243
vt 0.106849 0.837184
vt 0.061998 0.702243
vt 0.769289 0.806818
vt 0.814248 0.851838
vt 0.769289 0.851838
vt 0.814248 0.806818
vt 0.194882 0.815140
vt 0.239842 0.860160
vt 0.194882 0.860160
vt 0.239842 0.815140
vn -0.1319 -0.9246 0.3574
vn -0.0000 -1.0000 -0.0000
vn -0.5934 -0.8049 -0.0000
vn -0.7796 -0.6262 -0.0000
vn -0.4949 -0.7323 0.4679
vn -0.3175 -0.8995 0.3002
vn -0.2172 -0.7787 0.5886
vn 0.2172 -0.7787 0.5886
vn 0.4949 -0.7323 0.4679
vn 0.7796 -0.6262 -0.0000
vn 0.5934 -0.8049 -0.0000
vn 0.1319 -0.9246 0.3574
vn 0.3175 -0.8995 0.3002
vn 0.0000 0.0000 -1.0000
vn 0.0000 1.0000 0.0000
vn -1.0000 -0.0000 0.0000
vn 0.0000 0.0000 1.0000
vn -0.6305 0.7762 0.0000
vn 1.0000 -0.0000 0.0000
vn 0.9760 0.2178 0.0000
vn -0.9760 0.2178 0.0000
vn -0.6962 0.2862 0.6583
vn -0.3273 0.3259 0.8869
vn 0.3273 0.3259 0.8869
vn 0.6962 0.2862 0.6583
vn 0.7266 0.0000 -0.6870
vn 0.3462 0.0000 -0.9382
vn -0.3462 0.0000 -0.9382
vn -0.7266 0.0000 -0.6870
vn 0.0000 0.7071 -0.7071
s 1
f 1/1/1 2/2/1 3/3/1
f 2/2/1 1/1/1 4/4/1
f 1/1/2 5/5/2 4/4/2
f 6/6/2 5/5/2 1/1/2
f 5/5/2 6/6/2 7/7/2
f 8/8/3 7/7/3 6/6/3
f 7/7/3 8/8/3 9/9/3
f 8/10/4 10/11/4 9/12/4
f 10/11/4 8/10/4 11/13/4
f 8/8/5 12/14/5 11/15/5
f 12/14/5 8/8/5 3/3/5
f 6/6/6 3/3/6 8/8/6
f 3/3/6 6/6/6 1/1/6
f 3/3/7 13/16/7 12/14/7
f 13/16/7 3/3/7 2/2/7
f 14/17/8 13/16/8 2/2/8
f 13/16/8 14/17/8 15/18/8
f 16/19/9 15/18/9 14/17/9
f 15/18/9 16/19/9 17/20/9
f 16/21/10 18/22/10 17/23/10
f 18/22/10 16/21/10 19/24/10
f 20/25/11 19/26/11 16/19/11
f 19/26/11 20/25/11 5/5/11
f 21/27/2 5/5/2 20/25/2
f 4/4/2 5/5/2 21/27/2
f 21/27/12 2/2/12 4/4/12
f 2/2/12 21/27/12 14/17/12
f 20/25/13 14/17/13 21/27/13
f 14/17/13 20/25/13 16/19/13
f 5/28/14 9/29/14 19/30/14
f 9/29/14 5/28/14 7/31/14
f 10/32/14 19/30/14 9/29/14
f 19/30/14 10/32/14 18/33/14
f 74/34/15 62/35/15 67/36/15
f 62/35/15 74/34/15 63/37/15
f 63/37/15 74/34/15 75/38/15
f 75/38/15 74/34/15 70/39/15
f 70/39/15 74/34/15 68/40/15
f 63/37/15 75/38/15 76/41/15
f 18/42/2 11/15/2 10/43/2
f 11/15/2 18/42/2 12/14/2
f 12/14/2 18/42/2 13/16/2
f 13/16/2 18/42/2 15/18/2
f 15/18/2 18/42/2 17/20/2
f 39/44/15 41/45/15 40/46/15
f 42/47/15 41/45/15 39/44/15
f 43/48/15 41/45/15 42/47/15
f 44/49/15 41/45/15 43/48/15
f 41/45/15 44/49/15 45/50/15
f 40/46/15 56/51/15 53/52/15
f 56/51/15 40/46/15 41/45/15
f 41/53/16 57/54/16 56/55/16
f 57/54/16 41/53/16 58/56/16
f 41/57/17 59/58/17 58/59/17
f 59/58/17 41/57/17 60/60/17
f 41/45/15 45/50/15 60/61/15
f 60/61/15 45/50/15 46/62/15
f 60/61/15 46/62/15 47/63/15
f 60/61/15 47/63/15 48/64/15
f 60/61/15 48/64/15 61/65/15
f 61/65/15 48/64/15 53/52/15
f 53/52/15 48/64/15 52/66/15
f 52/67/15 48/68/15 51/69/18
f 51/69/18 48/68/15 50/70/17
f 53/52/15 56/51/15 61/65/15
f 62/71/14 61/72/14 56/73/14
f 61/72/14 62/71/14 63/74/14
f 71/75/15 59/76/15 72/77/15
f 71/75/15 58/78/15 59/76/15
f 58/78/15 71/75/15 57/79/15
f 73/80/15 57/79/15 71/75/15
f 74/81/17 57/82/17 73/83/17
f 57/82/17 74/81/17 67/84/17
f 77/85/17 76/86/17 75/87/17
f 76/86/17 77/85/17 78/88/17
f 77/89/15 59/76/15 78/90/15
f 72/77/15 59/76/15 77/89/15
f 59/91/19 61/92/19 78/93/19
f 61/92/19 59/91/19 60/94/19
f 78/93/19 61/92/19 76/95/19
f 76/95/19 61/92/19 63/96/19
f 62/97/16 57/54/16 67/98/16
f 56/55/16 57/54/16 62/97/16
f 18/22/20 22/99/20 17/23/20
f 22/99/20 18/22/20 23/100/20
f 18/33/14 24/101/14 23/102/14
f 24/101/14 18/33/14 25/103/14
f 10/32/14 25/103/14 18/33/14
f 25/103/14 10/32/14 26/104/14
f 10/11/21 27/105/21 26/106/21
f 27/105/21 10/11/21 11/13/21
f 11/13/22 28/107/22 27/105/22
f 28/107/22 11/13/22 12/108/22
f 12/109/23 29/110/23 28/111/23
f 29/110/23 12/109/23 13/112/23
f 13/112/24 30/113/24 29/110/24
f 30/113/24 13/112/24 15/114/24
f 17/23/25 30/115/25 15/116/25
f 30/115/25 17/23/25 22/99/25
f 31/117/15 30/118/15 22/119/15
f 32/120/15 30/118/15 31/117/15
f 33/121/15 30/118/15 32/120/15
f 33/121/15 29/122/15 30/118/15
f 34/123/15 29/122/15 33/121/15
f 34/123/15 28/124/15 29/122/15
f 35/125/15 28/124/15 34/123/15
f 35/125/15 27/126/15 28/124/15
f 27/126/15 35/125/15 26/127/15
f 36/128/15 26/127/15 35/125/15
f 26/127/15 36/128/15 37/129/15
f 37/129/15 36/128/15 38/130/15
f 39/131/17 38/132/17 36/133/17
f 38/132/17 39/131/17 40/134/17
f 44/135/26 34/136/26 45/137/26
f 34/136/26 44/135/26 35/138/26
f 43/139/19 35/138/19 44/135/19
f 35/138/19 43/139/19 36/140/19
f 36/140/19 43/139/19 42/141/19
f 36/140/19 42/141/19 39/142/19
f 34/143/27 46/144/27 45/145/27
f 46/144/27 34/143/27 33/146/27
f 33/146/28 47/147/28 46/144/28
f 47/147/28 33/146/28 32/148/28
f 31/149/29 47/150/29 32/151/29
f 47/150/29 31/149/29 48/152/29
f 49/153/16 48/152/16 31/149/16
f 48/152/16 49/153/16 50/154/16
f 50/154/16 49/153/16 51/155/16
f 51/155/16 49/153/16 52/156/16
f 49/157/17 53/158/17 52/159/17
f 53/158/17 49/157/17 54/160/17
f 49/161/15 55/162/15 54/163/15
f 55/162/15 49/161/15 23/164/15
f 23/164/15 49/161/15 31/117/15
f 23/164/15 31/117/15 22/119/15
f 23/102/14 24/101/14 55/165/14
f 53/166/16 55/167/16 24/168/16
f 55/167/16 53/166/16 54/169/16
f 25/170/15 53/52/15 24/171/15
f 53/52/15 25/170/15 40/46/15
f 25/172/19 38/173/19 40/174/19
f 38/173/19 25/172/19 37/175/19
f 25/103/14 26/104/14 37/176/14
f 62/177/2 64/178/2 63/179/2
f 62/177/2 65/180/2 64/178/2
f 65/180/2 62/177/2 66/181/2
f 67/182/2 66/181/2 62/177/2
f 68/183/2 66/181/2 67/182/2
f 66/181/2 68/183/2 69/184/2
f 69/184/2 68/183/2 70/185/2
f 68/183/2 67/182/2 74/186/2
f 76/187/2 70/185/2 75/188/2
f 69/184/2 70/185/2 76/187/2
f 69/184/2 76/187/2 64/178/2
f 63/179/2 64/178/2 76/187/2
f 64/189/19 79/190/19 69/191/19
f 79/190/19 64/189/19 80/192/19
f 80/192/19 64/189/19 81/193/19
f 64/194/14 82/195/14 81/196/14
f 82/195/14 64/194/14 65/197/14
f 65/198/16 83/199/16 82/200/16
f 66/201/16 83/199/16 65/198/16
f 83/199/16 66/201/16 84/202/16
f 66/203/17 79/204/17 84/205/17
f 79/204/17 66/203/17 69/206/17
f 79/207/15 83/208/15 84/209/15
f 83/208/15 79/207/15 80/210/15
f 80/211/30 82/195/30 83/212/30
f 82/195/30 80/211/30 81/196/30
f 71/213/17 70/214/17 68/215/17
f 70/214/17 71/213/17 72/216/17
f 74/217/16 71/218/16 68/219/16
f 71/218/16 74/217/16 73/220/16
f 77/221/19 70/222/19 72/223/19
f 70/222/19 77/221/19 75/224/19
