# Blender v2.92.0 OBJ File: 'kenney_OGConvert.blend'
# www.blender.org
o watercraftPack_026
v -1.275000 1.000000 2.340000
v -1.338750 0.700000 -1.680000
v -1.338750 0.700000 2.397000
v -1.275000 1.000000 -1.680000
v -1.125000 1.000000 2.254260
v -0.697500 1.000000 2.730000
v -0.732375 0.700000 2.806500
v 1.338750 0.700000 -1.680000
v -1.020000 0.300000 2.112000
v -1.020000 0.300000 -1.680000
v 1.020000 0.300000 -1.680000
v -0.817500 0.800000 -1.680000
v -0.817500 1.000000 -1.680000
v -1.125000 1.000000 -1.530000
v -1.125000 0.800000 -1.530000
v -1.125000 0.800000 2.254260
v -0.626281 0.800000 2.591060
v -0.626281 1.000000 2.591060
v 0.000001 1.000000 2.880000
v 0.000001 0.700000 2.964000
v 0.732376 0.700000 2.806500
v 1.338750 0.700000 2.397000
v 1.275000 1.000000 2.340000
v 1.275000 1.000000 -1.680000
v 0.817500 0.800000 -1.680000
v 0.817500 0.800000 -1.530000
v 0.825000 0.800000 -0.840000
v -0.817500 0.800000 -1.530000
v -0.825000 0.800000 -0.840000
v -0.825000 0.800000 1.894000
v 0.825000 0.800000 1.894000
v 0.000000 0.800000 2.725740
v 0.000000 1.000000 2.725740
v 0.697500 1.000000 2.730000
v 0.558000 0.300000 2.424000
v 0.000000 0.300000 2.544000
v -0.558000 0.300000 2.424000
v -0.612000 0.000000 -1.680000
v -0.612000 -0.000000 1.680000
v 0.612000 0.000000 -1.680000
v -0.334800 -0.000000 1.867200
v 0.000000 -0.000000 1.939200
v 0.334800 -0.000000 1.867200
v 0.612000 -0.000000 1.680000
v 1.020000 0.300000 2.112000
v 1.125000 1.000000 2.254260
v 0.626282 1.000000 2.591060
v 0.626282 0.800000 2.591060
v 1.125000 0.800000 2.254260
v 1.125000 1.000000 -1.530000
v 1.125000 0.800000 -1.530000
v 0.817500 1.000000 -1.530000
v 0.817500 1.000000 -1.680000
v 0.825000 1.174750 1.694000
v 0.825000 1.274750 1.894000
v 0.825000 1.274750 1.794000
v 0.825000 1.749500 1.794000
v 0.825000 1.749500 1.694000
v 0.975000 1.749500 -0.960000
v 0.825000 1.749500 0.527000
v 0.825000 1.749500 0.427000
v 0.825000 1.749500 -0.740000
v 0.825000 1.749500 -0.840000
v -0.825000 1.749500 -0.840000
v -0.975000 1.749500 -0.960000
v -0.975000 1.749500 1.914000
v -0.825000 1.749500 1.794000
v 0.975000 1.749500 1.914000
v -0.825000 1.274750 1.794000
v -0.825000 1.274750 1.894000
v -0.825000 1.174750 1.694000
v -0.825000 1.749500 1.694000
v -0.825000 1.749500 0.527000
v -0.825000 1.749500 0.427000
v -0.825000 1.749500 -0.740000
v -0.825000 1.174750 -0.740000
v -0.825000 1.174750 0.427000
v -0.825000 1.174750 0.527000
v -0.725000 1.174750 1.694000
v -0.725000 1.174750 0.527000
v -0.725000 1.749500 0.527000
v -0.725000 1.749500 1.694000
v -0.725000 1.749500 0.427000
v 0.725000 1.749500 1.694000
v 0.725000 1.749500 0.527000
v 0.725000 1.749500 0.427000
v 0.725000 1.174750 0.527000
v 0.825000 1.174750 0.527000
v 0.725000 1.174750 1.694000
v 0.825000 1.174750 0.427000
v 0.825000 1.174750 -0.740000
v -0.725000 1.749500 -0.740000
v 0.725000 1.749500 -0.740000
v 0.725000 1.174750 0.427000
v 0.725000 1.174750 -0.740000
v -0.725000 1.174750 0.427000
v -0.725000 1.174750 -0.740000
v 0.975000 1.899500 1.914000
v 0.975000 1.899500 -0.960000
v -0.975000 1.899500 -0.960000
v -0.975000 1.899500 1.914000
v 0.000000 2.399500 1.914000
v -0.000000 2.399500 -0.960000
v -0.817500 1.000000 -1.530000
vt 0.972383 0.009726
vt 0.945026 0.375027
vt 0.945026 0.004546
vt 0.972383 0.375027
vt 0.509344 0.053616
vt 0.522974 0.061408
vt 0.509344 0.418917
vt 0.561821 0.018177
vt 0.453800 0.678949
vt 0.479630 0.620678
vt 0.481272 0.673156
vt 0.452076 0.623847
vt 0.256945 0.056070
vt 0.312047 0.018858
vt 0.500252 0.426550
vt 0.256945 0.426550
vt 0.750156 0.940221
vt 0.741069 0.892855
vt 0.750156 0.696914
vt 0.722895 0.934428
vt 0.722895 0.892855
vt 0.522974 0.405287
vt 0.550917 0.418917
vt 0.220589 0.783799
vt 0.202418 0.439920
vt 0.220589 0.439920
vt 0.202418 0.783799
vt 0.995454 0.763691
vt 0.977280 0.809010
vt 0.977280 0.763691
vt 0.995454 0.809010
vt 0.568293 0.030802
vt 0.625204 0.004546
vt 0.478999 0.557296
vt 0.451413 0.557296
vt 0.378598 0.004546
vt 0.445150 0.018858
vt 0.500252 0.056070
vt 0.936543 0.754599
vt 0.909185 0.389298
vt 0.936543 0.384119
vt 0.909185 0.754599
vt 0.741069 0.744281
vt 0.722895 0.702707
vt 0.977280 0.865921
vt 0.995454 0.865921
vt 0.625204 0.018564
vt 0.688586 0.018177
vt 0.479630 0.493913
vt 0.452076 0.490744
vt 0.256945 0.474899
vt 0.298927 0.446547
vt 0.442321 0.819481
vt 0.256945 0.819481
vt 0.400339 0.446547
vt 0.442321 0.474899
vt 0.349633 0.435642
vt 0.481272 0.441435
vt 0.453800 0.435642
vt 0.727434 0.061408
vt 0.741064 0.053616
vt 0.682115 0.030802
vt 0.977280 0.922832
vt 0.995454 0.922832
vt 0.977280 0.968151
vt 0.995454 0.968151
vt 0.229681 0.439920
vt 0.247853 0.783799
vt 0.229681 0.783799
vt 0.247853 0.439920
vt 0.850104 0.911147
vt 0.868259 0.883205
vt 0.868259 0.911147
vt 0.850104 0.883205
vt 0.727434 0.405287
vt 0.699491 0.418917
vt 0.699491 0.405287
vt 0.741064 0.418917
vt 0.722895 0.744281
vt 0.877351 0.901376
vt 0.890981 0.883204
vt 0.890981 0.901376
vt 0.877351 0.883204
vt 0.891006 0.128766
vt 0.900093 0.119679
vt 0.900093 0.128766
vt 0.891006 0.119679
vt 0.750156 0.243900
vt 0.891006 0.234813
vt 0.900093 0.234813
vt 0.900093 0.243900
vt 0.759243 0.234813
vt 0.750156 0.234813
vt 0.759243 0.128766
vt 0.759243 0.119679
vt 0.750156 0.119679
vt 0.750156 0.128766
vt 0.900093 0.004546
vt 0.891006 0.013633
vt 0.750156 0.004546
vt 0.900093 0.013633
vt 0.759243 0.013633
vt 0.750156 0.013633
vt 0.841012 0.883205
vt 0.822858 0.911147
vt 0.822858 0.883205
vt 0.841012 0.911147
vt 0.550917 0.405287
vt 0.672955 0.916890
vt 0.686585 0.898719
vt 0.686585 0.916890
vt 0.672955 0.898719
vt 0.909185 0.030444
vt 0.909185 0.375027
vt 0.786505 0.725879
vt 0.786505 0.911256
vt 0.126199 0.004546
vt 0.075493 0.057054
vt 0.059648 0.018784
vt 0.126199 0.046205
vt 0.176905 0.057054
vt 0.192751 0.018784
vt 0.218888 0.085259
vt 0.247853 0.055804
vt 0.181812 0.430828
vt 0.218888 0.428060
vt 0.181812 0.127080
vt 0.070586 0.430828
vt 0.156623 0.110157
vt 0.126199 0.103648
vt 0.095776 0.110157
vt 0.070586 0.127080
vt 0.033511 0.428060
vt 0.033511 0.085259
vt 0.004546 0.055804
vt 0.972383 0.410017
vt 0.972383 0.754599
vt 0.813766 0.762955
vt 0.813766 0.874181
vt 0.685860 0.828363
vt 0.537286 0.828363
vt 0.685860 0.814732
vt 0.686542 0.752031
vt 0.537286 0.814732
vt 0.536605 0.752031
vt 0.509344 0.814732
vt 0.536605 0.503590
vt 0.509344 0.470853
vt 0.554662 0.440248
vt 0.686542 0.503590
vt 0.611573 0.428009
vt 0.668484 0.440248
vt 0.713803 0.470853
vt 0.713803 0.814732
vt 0.152127 0.728349
vt 0.186176 0.710175
vt 0.186176 0.958616
vt 0.143041 0.710175
vt 0.143041 0.719262
vt 0.099907 0.719262
vt 0.099907 0.728349
vt 0.499451 0.585579
vt 0.490364 0.435642
vt 0.499451 0.435642
vt 0.490364 0.585579
vt 0.047680 0.949529
vt 0.090815 0.958616
vt 0.047680 0.958616
vt 0.056766 0.940442
vt 0.004546 0.940442
vt 0.004546 0.949529
vt 0.004546 0.710175
vt 0.056766 0.719262
vt 0.004546 0.719262
vt 0.090815 0.710175
vt 0.056766 0.825309
vt 0.056766 0.834396
vt 0.545702 0.943501
vt 0.554789 0.837455
vt 0.554789 0.943501
vt 0.545702 0.837455
vt 0.499451 0.646899
vt 0.490364 0.594671
vt 0.499451 0.594671
vt 0.490364 0.646899
vt 0.682042 0.889627
vt 0.672955 0.837455
vt 0.682042 0.837455
vt 0.672955 0.889627
vt 0.572968 0.837455
vt 0.563881 0.943501
vt 0.563881 0.837455
vt 0.572968 0.943501
vt 0.618418 0.837455
vt 0.627505 0.889683
vt 0.618418 0.889683
vt 0.627505 0.837455
vt 0.152127 0.834396
vt 0.152127 0.843483
vt 0.152127 0.949529
vt 0.099907 0.949529
vt 0.099907 0.958616
vt 0.750156 0.402929
vt 0.836438 0.252992
vt 0.836438 0.402929
vt 0.750156 0.252992
vt 0.645684 0.889683
vt 0.636597 0.837455
vt 0.645684 0.837455
vt 0.636597 0.889683
vt 0.509344 0.943501
vt 0.518431 0.837455
vt 0.518431 0.943501
vt 0.509344 0.837455
vt 0.691134 0.837455
vt 0.700221 0.889627
vt 0.691134 0.889627
vt 0.700221 0.837455
vt 0.099907 0.843483
vt 0.099907 0.834396
vt 0.451413 0.847070
vt 0.460500 0.899242
vt 0.451413 0.899242
vt 0.460500 0.847070
vt 0.536610 0.837455
vt 0.527523 0.943501
vt 0.527523 0.837455
vt 0.536610 0.943501
vt 0.654776 0.837455
vt 0.663863 0.889683
vt 0.654776 0.889683
vt 0.663863 0.837455
vt 0.004546 0.825309
vt 0.004546 0.834396
vt 0.478679 0.899242
vt 0.469592 0.847070
vt 0.478679 0.847070
vt 0.469592 0.899242
vt 0.494508 0.688041
vt 0.451413 0.837978
vt 0.451413 0.688041
vt 0.494508 0.837978
vt 0.886463 0.667934
vt 0.900093 0.428009
vt 0.886463 0.676974
vt 0.886463 0.562436
vt 0.886463 0.553396
vt 0.886463 0.447898
vt 0.886463 0.438857
vt 0.736526 0.438857
vt 0.722895 0.428009
vt 0.722895 0.687822
vt 0.736526 0.676974
vt 0.900093 0.687822
vt 0.190836 0.439920
vt 0.190836 0.439920
vt 0.190836 0.439920
vt 0.600239 0.942953
vt 0.609326 0.837455
vt 0.609326 0.942953
vt 0.600239 0.837455
vt 0.877375 0.667934
vt 0.877375 0.562436
vt 0.591147 0.837455
vt 0.582060 0.942953
vt 0.582060 0.837455
vt 0.591147 0.942953
vt 0.877375 0.553396
vt 0.877375 0.447898
vt 0.981475 0.274801
vt 0.995104 0.535964
vt 0.981475 0.535964
vt 0.995104 0.274801
vt 0.881924 0.696914
vt 0.868293 0.874113
vt 0.868293 0.696914
vt 0.881924 0.874113
vt 0.995104 0.265709
vt 0.981475 0.004546
vt 0.995104 0.004546
vt 0.981475 0.265709
vt 0.968188 0.763691
vt 0.954572 0.940889
vt 0.954572 0.763691
vt 0.968188 0.940889
vt 0.909185 0.852290
vt 0.004546 0.701083
vt 0.093145 0.439920
vt 0.093145 0.701083
vt 0.004546 0.439920
vt 0.822858 0.785513
vt 0.181744 0.701083
vt 0.181744 0.439920
vt 0.845530 0.402929
vt 0.888625 0.252992
vt 0.888625 0.402929
vt 0.845530 0.252992
vt 0.370477 0.934619
vt 0.318257 0.828573
vt 0.370477 0.828573
vt 0.318257 0.934619
vt 0.379569 0.828573
vt 0.431789 0.934619
vt 0.379569 0.934619
vt 0.431789 0.828573
vt 0.247853 0.898938
vt 0.195633 0.792891
vt 0.247853 0.792891
vt 0.195633 0.898938
vt 0.256945 0.828573
vt 0.309165 0.934619
vt 0.256945 0.934619
vt 0.309165 0.828573
vn -0.9782 0.2079 0.0000
vn 0.0000 1.0000 0.0000
vn -0.5394 0.2664 0.7988
vn -0.0000 -0.0000 -1.0000
vn 1.0000 0.0000 -0.0000
vn 0.5597 0.0000 -0.8287
vn -0.2028 0.2640 0.9430
vn 0.9782 0.2079 -0.0000
vn 0.2102 0.0000 -0.9776
vn 0.2028 0.2640 0.9430
vn 0.5394 0.2664 0.7988
vn -0.2102 0.0000 -0.9776
vn -0.5597 0.0000 -0.8287
vn -1.0000 0.0000 0.0000
vn 0.0000 0.0000 1.0000
vn -0.0333 0.9994 0.0000
vn -0.7821 -0.6232 0.0000
vn 0.1467 -0.7163 0.6822
vn -0.1467 -0.7163 0.6822
vn -0.3886 -0.7196 0.5754
vn -0.5924 -0.8057 0.0000
vn -0.0000 -1.0000 -0.0000
vn 0.5924 -0.8057 -0.0000
vn -0.0951 -0.8918 0.4424
vn 0.0951 -0.8918 0.4424
vn 0.2549 -0.8902 0.3775
vn 0.3886 -0.7196 0.5754
vn 0.7821 -0.6232 -0.0000
vn -0.2549 -0.8902 0.3775
vn 0.0664 -0.9978 0.0000
vn 0.1621 -0.9868 0.0000
vn -0.7244 -0.6894 -0.0000
vn 0.0167 -0.9999 -0.0000
vn 0.4563 0.8898 -0.0000
vn -0.4563 0.8898 0.0000
s 1
f 1/1/1 2/2/1 3/3/1
f 2/2/1 1/1/1 4/4/1
f 1/5/2 5/6/2 4/7/2
f 5/6/2 1/5/2 6/8/2
f 3/9/3 6/10/3 1/11/3
f 6/10/3 3/9/3 7/12/3
f 3/13/2 7/14/2 8/15/2
f 8/15/2 2/16/2 3/13/2
f 2/17/4 12/18/4 8/19/4
f 12/18/4 2/17/4 4/20/4
f 12/18/4 4/20/4 13/21/4
f 4/7/2 14/22/2 13/23/2
f 14/22/2 4/7/2 5/6/2
f 5/24/5 15/25/5 14/26/5
f 15/25/5 5/24/5 16/27/5
f 5/28/6 17/29/6 16/30/6
f 17/29/6 5/28/6 18/31/6
f 5/6/2 6/8/2 18/32/2
f 18/32/2 6/8/2 19/33/2
f 7/12/7 19/34/7 6/10/7
f 19/34/7 7/12/7 20/35/7
f 7/14/2 20/36/2 8/15/2
f 20/36/2 21/37/2 8/15/2
f 21/37/2 22/38/2 8/15/2
f 8/39/8 23/40/8 22/41/8
f 23/40/8 8/39/8 24/42/8
f 8/19/4 25/43/4 24/44/4
f 25/43/4 8/19/4 12/18/4
f 18/31/9 32/45/9 17/29/9
f 32/45/9 18/31/9 33/46/9
f 18/32/2 19/33/2 33/47/2
f 33/47/2 19/33/2 34/48/2
f 20/35/10 34/49/10 19/34/10
f 34/49/10 20/35/10 21/50/10
f 9/51/2 37/52/2 11/53/2
f 11/53/2 10/54/2 9/51/2
f 35/55/2 45/56/2 11/53/2
f 36/57/2 35/55/2 11/53/2
f 37/52/2 36/57/2 11/53/2
f 23/58/11 21/50/11 22/59/11
f 21/50/11 23/58/11 34/49/11
f 46/60/2 34/48/2 23/61/2
f 47/62/2 34/48/2 46/60/2
f 33/47/2 34/48/2 47/62/2
f 48/63/12 33/46/12 47/64/12
f 33/46/12 48/63/12 32/45/12
f 47/64/13 49/65/13 48/63/13
f 49/65/13 47/64/13 46/66/13
f 50/67/14 49/68/14 46/69/14
f 49/68/14 50/67/14 51/70/14
f 50/71/15 26/72/15 51/73/15
f 26/72/15 50/71/15 52/74/15
f 50/75/2 53/76/2 52/77/2
f 53/76/2 50/75/2 24/78/2
f 24/78/2 50/75/2 23/61/2
f 46/60/2 23/61/2 50/75/2
f 24/44/4 25/43/4 53/79/4
f 26/80/14 53/81/14 25/82/14
f 53/81/14 26/80/14 52/83/14
f 81/84/2 74/85/2 73/86/2
f 74/85/2 81/84/2 83/87/2
f 81/84/2 57/88/2 83/87/2
f 82/89/2 57/88/2 81/84/2
f 72/90/2 57/88/2 82/89/2
f 57/88/2 72/90/2 67/91/2
f 83/87/2 57/88/2 84/92/2
f 84/92/2 57/88/2 58/93/2
f 85/94/16 86/95/2 84/92/2
f 86/95/2 85/94/16 61/96/2
f 61/96/2 85/94/16 60/97/2
f 64/98/2 92/99/2 63/100/2
f 92/99/2 64/98/2 75/101/2
f 83/87/2 84/92/2 92/99/2
f 92/99/2 84/92/2 86/95/2
f 93/102/2 92/99/2 86/95/2
f 63/100/2 92/99/2 93/102/2
f 63/100/2 93/102/2 62/103/2
f 104/104/15 15/105/15 28/106/15
f 15/105/15 104/104/15 14/107/15
f 13/23/2 14/22/2 104/108/2
f 104/109/5 12/110/5 13/111/5
f 12/110/5 104/109/5 28/112/5
f 2/2/17 9/113/17 3/3/17
f 9/113/17 2/2/17 10/114/17
f 2/17/4 11/115/4 10/116/4
f 11/115/4 2/17/4 8/19/4
f 20/117/18 35/118/18 21/119/18
f 35/118/18 20/117/18 36/120/18
f 20/117/19 37/121/19 36/120/19
f 37/121/19 20/117/19 7/122/19
f 7/122/20 9/123/20 37/121/20
f 9/123/20 7/122/20 3/124/20
f 38/125/21 9/123/21 10/126/21
f 9/123/21 38/125/21 39/127/21
f 40/128/22 39/127/22 38/125/22
f 39/127/22 40/128/22 41/129/22
f 41/129/22 40/128/22 42/130/22
f 42/130/22 40/128/22 43/131/22
f 43/131/22 40/128/22 44/132/22
f 11/133/23 44/132/23 40/128/23
f 44/132/23 11/133/23 45/134/23
f 41/129/24 36/120/24 37/121/24
f 36/120/24 41/129/24 42/130/24
f 42/130/25 35/118/25 36/120/25
f 35/118/25 42/130/25 43/131/25
f 44/132/26 35/118/26 43/131/26
f 35/118/26 44/132/26 45/134/26
f 45/134/27 21/119/27 35/118/27
f 21/119/27 45/134/27 22/135/27
f 45/136/28 8/39/28 22/41/28
f 8/39/28 45/136/28 11/137/28
f 37/121/29 39/127/29 41/129/29
f 39/127/29 37/121/29 9/123/29
f 40/138/4 10/116/4 11/115/4
f 10/116/4 40/138/4 38/139/4
f 25/140/2 12/141/2 26/142/2
f 12/141/2 27/143/2 26/142/2
f 28/144/2 27/143/2 12/141/2
f 28/144/2 29/145/2 27/143/2
f 15/146/2 29/145/2 28/144/2
f 29/145/2 15/146/2 30/147/2
f 16/148/2 30/147/2 15/146/2
f 30/147/2 16/148/2 17/149/2
f 30/147/2 17/149/2 31/150/2
f 31/150/2 17/149/2 32/151/2
f 31/150/2 32/151/2 48/152/2
f 31/150/2 48/152/2 49/153/2
f 26/142/2 27/143/2 51/154/2
f 51/154/2 27/143/2 49/153/2
f 31/150/2 49/153/2 27/143/2
f 54/155/5 31/156/5 27/157/5
f 31/156/5 54/155/5 55/158/5
f 55/158/5 54/155/5 56/159/5
f 56/159/5 54/155/5 57/160/5
f 58/161/5 57/160/5 54/155/5
f 69/162/2 55/163/2 56/164/2
f 55/163/2 69/162/2 70/165/2
f 69/166/14 30/167/14 70/168/14
f 30/167/14 69/166/14 71/169/14
f 71/169/14 69/166/14 72/170/14
f 72/170/14 69/166/14 67/171/14
f 64/172/14 76/173/14 75/174/14
f 29/175/14 76/173/14 64/172/14
f 29/175/14 77/176/14 76/173/14
f 29/175/14 78/177/14 77/176/14
f 29/175/14 71/169/14 78/177/14
f 30/167/14 71/169/14 29/175/14
f 79/178/2 78/179/2 71/180/2
f 78/179/2 79/178/2 80/181/2
f 79/182/4 72/183/4 82/184/4
f 72/183/4 79/182/4 71/185/4
f 87/186/15 60/187/15 85/188/15
f 60/187/15 87/186/15 88/189/15
f 87/190/2 54/191/2 88/192/2
f 54/191/2 87/190/2 89/193/2
f 84/194/4 54/195/4 89/196/4
f 54/195/4 84/194/4 58/197/4
f 54/155/5 27/157/5 88/198/5
f 88/198/5 27/157/5 90/199/5
f 90/199/5 27/157/5 91/200/5
f 91/200/5 27/157/5 62/201/5
f 62/201/5 27/157/5 63/202/5
f 27/203/4 64/204/4 63/205/4
f 64/204/4 27/203/4 29/206/4
f 90/207/4 86/208/4 61/209/4
f 86/208/4 90/207/4 94/210/4
f 90/211/2 95/212/2 94/213/2
f 95/212/2 90/211/2 91/214/2
f 62/215/15 95/216/15 91/217/15
f 95/216/15 62/215/15 93/218/15
f 61/219/5 60/220/5 90/199/5
f 88/198/5 90/199/5 60/220/5
f 92/221/15 76/222/15 97/223/15
f 76/222/15 92/221/15 75/224/15
f 76/225/2 96/226/2 97/227/2
f 96/226/2 76/225/2 77/228/2
f 74/229/4 96/230/4 77/231/4
f 96/230/4 74/229/4 83/232/4
f 77/176/14 78/177/14 74/233/14
f 74/233/14 78/177/14 73/234/14
f 78/235/15 81/236/15 73/237/15
f 81/236/15 78/235/15 80/238/15
f 30/239/15 55/240/15 70/241/15
f 55/240/15 30/239/15 31/242/15
f 58/243/22 59/244/22 57/245/22
f 60/246/22 59/244/22 58/243/22
f 61/247/22 59/244/22 60/246/22
f 62/248/22 59/244/22 61/247/22
f 63/249/22 59/244/22 62/248/22
f 64/250/22 59/244/22 63/249/22
f 64/250/22 65/251/22 59/244/22
f 65/251/22 64/250/22 66/252/22
f 67/253/22 66/252/22 64/250/22
f 66/252/22 67/253/22 68/254/22
f 68/254/22 67/253/22 57/245/22
f 67/91/22 73/86/30 72/90/31
f 67/91/22 74/85/32 73/86/30
f 67/91/22 75/101/33 74/85/32
f 67/255/22 64/256/22 75/257/33
f 72/258/31 81/259/22 82/260/22
f 81/259/22 72/258/31 73/261/30
f 84/262/22 60/246/22 58/243/22
f 60/246/22 84/262/22 85/263/22
f 92/264/22 74/265/32 75/266/33
f 74/265/32 92/264/22 83/267/22
f 62/248/22 86/268/22 93/269/22
f 86/268/22 62/248/22 61/247/22
f 68/254/22 57/245/22 59/244/22
f 59/270/5 98/271/5 68/272/5
f 98/271/5 59/270/5 99/273/5
f 59/274/4 100/275/4 99/276/4
f 100/275/4 59/274/4 65/277/4
f 66/278/14 100/279/14 65/280/14
f 100/279/14 66/278/14 101/281/14
f 66/282/15 98/283/15 101/284/15
f 98/283/15 66/282/15 68/285/15
f 101/284/15 98/283/15 102/286/15
f 98/287/34 103/288/34 102/289/34
f 103/288/34 98/287/34 99/290/34
f 99/276/4 100/275/4 103/291/4
f 101/292/35 103/288/35 100/293/35
f 103/288/35 101/292/35 102/289/35
f 69/294/15 57/295/15 67/296/15
f 57/295/15 69/294/15 56/297/15
f 79/298/14 81/299/14 80/300/14
f 81/299/14 79/298/14 82/301/14
f 87/302/5 84/303/5 89/304/5
f 84/303/5 87/302/5 85/305/5
f 86/306/5 95/307/5 93/308/5
f 95/307/5 86/306/5 94/309/5
f 92/310/14 96/311/14 83/312/14
f 96/311/14 92/310/14 97/313/14
