# Blender v2.92.0 OBJ File: 'kenney_OGConvert.blend'
# www.blender.org
o watercraftPack_022
v -0.180872 1.199500 1.329360
v 0.413339 1.199500 0.960560
v -0.413339 1.199500 0.960560
v 0.000000 1.199500 1.429470
v 0.000000 0.900000 1.805320
v -0.241162 0.900000 1.671840
v -0.551119 0.900000 1.180110
v -0.551119 0.900000 0.960560
v -0.551119 0.900000 -0.701470
v -0.699497 0.850000 -0.049477
v -0.847875 0.800000 -0.701470
v -0.847875 0.800000 -0.049477
v -0.892500 0.600000 -0.701470
v -0.847875 0.800000 0.200523
v -0.847875 0.800000 1.396410
v -0.892500 0.600000 1.456030
v -0.678300 0.200000 1.169830
v -0.678300 0.200000 -0.701470
v 0.678300 0.200000 -0.701470
v 0.892500 0.600000 -0.701470
v 0.847875 0.800000 -0.701470
v 0.551119 0.900000 -0.701470
v 0.551119 0.900000 -0.049478
v -0.551119 0.900000 -0.049477
v -0.413339 1.199500 0.200523
v 0.413339 1.199500 0.200523
v 0.551119 0.900000 0.960560
v 0.551119 0.900000 1.180110
v 0.180872 1.199500 1.329360
v 0.241162 0.900000 1.671840
v 0.371019 0.800000 2.152920
v 0.000000 0.800000 2.358280
v -0.371019 0.800000 2.152920
v -0.699497 0.850000 0.200523
v -0.699497 1.458110 -0.039477
v -0.699497 1.458110 -0.289477
v -0.847875 1.608110 -0.349477
v 0.699497 1.458110 -0.289477
v 0.847875 1.608110 -0.349477
v 0.847875 1.608110 -0.099478
v -0.847875 1.608110 -0.099477
v 0.699497 1.458110 -0.039478
v 0.699497 0.850000 -0.049478
v 0.699497 0.850000 0.200523
v 0.847875 0.800000 0.200523
v 0.847875 0.800000 -0.049478
v 0.847875 0.800000 1.396410
v 0.892500 0.600000 1.456030
v 0.390546 0.600000 2.252360
v 0.000000 0.600000 2.468530
v -0.390546 0.600000 2.252360
v -0.296815 0.200000 1.775040
v -0.406980 -0.000000 0.701470
v -0.178089 -0.000000 1.064600
v 0.406980 0.000000 -0.701470
v -0.406980 0.000000 -0.701470
v 0.406980 -0.000000 0.701470
v 0.678300 0.200000 1.169830
v 0.296815 0.200000 1.775040
v 0.000000 0.200000 1.939330
v 0.000000 -0.000000 1.163170
v 0.178089 -0.000000 1.064600
vt 0.934500 0.191748
vt 0.835181 0.130068
vt 0.973355 0.130166
vt 0.904268 0.208451
vt 0.905446 0.304789
vt 0.836325 0.247200
vt 0.906304 0.271637
vt 0.835181 0.291402
vt 0.856313 0.362187
vt 0.921295 0.357877
vt 0.887209 0.537237
vt 0.887209 0.573940
vt 0.835181 0.537237
vt 0.515209 0.690974
vt 0.462475 0.726653
vt 0.463192 0.689958
vt 0.517690 0.752687
vt 0.465783 0.808938
vt 0.856313 0.214649
vt 0.921295 0.247224
vt 0.874037 0.191705
vt 0.571851 0.833275
vt 0.571851 0.521139
vt 0.571851 0.557560
vt 0.356988 0.514809
vt 0.332345 0.405559
vt 0.356988 0.200481
vt 0.307702 0.514147
vt 0.307702 0.405228
vt 0.660506 0.496901
vt 0.694497 0.387905
vt 0.694497 0.496901
vt 0.694497 0.346112
vt 0.694497 0.146191
vt 0.660506 0.136225
vt 0.324210 0.812083
vt 0.357227 0.521139
vt 0.357227 0.819543
vt 0.324210 0.528599
vt 0.307702 0.762473
vt 0.307702 0.578208
vt 0.541219 0.406021
vt 0.541219 0.514940
vt 0.356988 0.405890
vt 0.571851 0.725116
vt 0.449104 0.096101
vt 0.511432 0.037450
vt 0.489412 0.118428
vt 0.449419 0.003099
vt 0.408795 0.118371
vt 0.387406 0.037362
vt 0.307702 0.163685
vt 0.307702 0.363464
vt 0.332345 0.363795
vt 0.591136 0.363665
vt 0.566178 0.405725
vt 0.566178 0.363961
vt 0.591136 0.405429
vt 0.731820 0.846112
vt 0.765811 0.996901
vt 0.731820 0.887905
vt 0.731820 0.646191
vt 0.765811 0.636225
vt 0.724259 0.519723
vt 0.757852 0.503099
vt 0.937385 0.773616
vt 0.882853 0.830017
vt 0.900069 0.770602
vt 0.921030 0.830061
vt 0.900069 0.899523
vt 0.937385 0.896091
vt 0.702058 0.019723
vt 0.668465 0.003099
vt 0.541219 0.200611
vt 0.591136 0.163885
vt 0.541219 0.237288
vt 0.591136 0.514348
vt 0.731820 0.996901
vt 0.597335 0.184069
vt 0.597335 0.496901
vt 0.423260 0.556947
vt 0.423260 0.783734
vt 0.301504 0.171064
vt 0.201921 0.126410
vt 0.217590 0.038960
vt 0.265695 0.226809
vt 0.220338 0.308639
vt 0.182073 0.248399
vt 0.084265 0.541374
vt 0.220338 0.541374
vt 0.265695 0.537240
vt 0.456276 0.602305
vt 0.456276 0.738377
vt 0.038908 0.537240
vt 0.084265 0.308639
vt 0.038908 0.226809
vt 0.828983 0.684069
vt 0.828983 0.996901
vt 0.003099 0.171064
vt 0.102682 0.126410
vt 0.087013 0.038960
vt 0.152301 0.003099
vt 0.152301 0.099156
vt 0.152301 0.232048
vt 0.122530 0.248399
vt 0.835182 0.410179
vt 0.887209 0.368386
vt 0.973355 0.003197
vt 0.835181 0.003099
vt 0.466489 0.521139
vt 0.517690 0.563940
vt 0.932259 0.383788
vt 0.893408 0.477250
vt 0.893408 0.368386
vt 0.932259 0.492653
vt 0.293281 0.547572
vt 0.266937 0.572377
vt 0.160223 0.572377
vt 0.266937 0.806252
vt 0.293281 0.831056
vt 0.565653 0.804572
vt 0.523889 0.521168
vt 0.565653 0.521138
vt 0.523889 0.804602
vt 0.828983 0.396264
vt 0.828983 0.438057
vt 0.151969 0.547572
vt 0.145770 0.827459
vt 0.003099 0.830678
vt 0.010449 0.805555
vt 0.118944 0.803466
vt 0.145770 0.547572
vt 0.118944 0.572559
vt 0.835181 0.580139
vt 0.876654 0.814013
vt 0.835181 0.814013
vt 0.876654 0.580139
vt 0.562741 0.919665
vt 0.523889 0.826203
vt 0.562741 0.810800
vt 0.523889 0.935068
vt 0.010449 0.574648
vt 0.003099 0.550791
vt 0.597335 0.896264
vt 0.597335 0.938057
vt 0.151969 0.831056
vt 0.160223 0.806252
vt 0.925705 0.580139
vt 0.882853 0.741370
vt 0.882853 0.603172
vt 0.925705 0.764403
vn 0.0000 1.0000 0.0000
vn -0.3261 0.7393 0.5891
vn -0.6670 0.6151 0.4204
vn -0.6670 0.6151 0.4205
vn -0.9085 0.4179 0.0000
vn 0.9085 0.4179 -0.0000
vn 0.6670 0.6151 0.4204
vn 0.6670 0.6151 0.4205
vn 0.3261 0.7393 0.5891
vn -0.3193 0.9477 0.0000
vn -0.3186 0.9479 0.0000
vn -0.1659 0.9861 0.0000
vn -0.3193 0.9476 0.0000
vn -0.9760 0.2178 0.0000
vn -0.0000 0.0000 -1.0000
vn 0.0000 -0.0000 1.0000
vn 0.0980 0.9793 0.1771
vn -0.0980 0.9793 0.1771
vn -0.2227 0.9647 0.1404
vn 0.3193 0.9476 -0.0000
vn 0.9760 0.2178 -0.0000
vn 0.7990 0.3284 0.5037
vn 0.4362 0.4344 0.7881
vn -0.4362 0.4344 0.7881
vn -0.7990 0.3284 0.5037
vn 0.2227 0.9647 0.1404
vn -0.8816 -0.4721 0.0000
vn -0.6495 -0.6407 0.4094
vn -0.3258 -0.9229 0.2054
vn -0.0000 -1.0000 -0.0000
vn -0.5934 -0.8049 0.0000
vn 0.5934 -0.8049 -0.0000
vn 0.8816 -0.4721 -0.0000
vn 0.6495 -0.6407 0.4094
vn 0.3166 -0.7567 0.5720
vn -0.3166 -0.7567 0.5720
vn -0.1368 -0.9593 0.2472
vn 0.3258 -0.9229 0.2054
vn 0.1368 -0.9593 0.2472
vn 1.0000 0.0000 -0.0000
vn -0.0004 -0.3717 -0.9284
vn 0.0026 -0.3692 -0.9293
vn 0.0050 -0.3671 -0.9302
vn -0.0001 -0.3713 -0.9285
vn -0.0046 -0.3675 -0.9300
vn -1.0000 0.0000 0.0000
vn 0.1165 -0.3457 -0.9311
vn -0.1165 0.3457 0.9311
vn -0.0046 0.3675 0.9300
vn -0.0050 0.3671 0.9302
vn -0.0000 0.3714 0.9285
vn -0.0003 0.3716 0.9284
vn 0.0026 0.3692 0.9293
vn 0.1165 0.3457 0.9311
vn 0.0050 0.3671 0.9302
vn -0.1165 -0.3457 -0.9311
vn -0.0050 -0.3671 -0.9302
vn -0.0000 0.6408 -0.7677
s 1
f 1/1/1 2/2/1 3/3/1
f 2/2/1 1/1/1 4/4/1
f 1/5/2 5/6/2 4/7/2
f 5/6/2 1/5/2 6/8/2
f 1/5/3 7/9/3 6/8/4
f 7/9/3 1/5/3 3/10/3
f 8/11/5 7/12/5 3/13/5
f 2/14/6 28/15/6 27/16/6
f 29/17/7 28/15/7 2/14/7
f 28/15/7 29/17/7 30/18/8
f 4/7/9 30/19/9 29/20/9
f 30/19/9 4/7/9 5/6/9
f 2/2/1 4/4/1 29/21/1
f 9/22/10 7/23/11 8/24/12
f 9/25/10 10/26/13 7/27/11
f 11/28/13 10/26/13 9/25/10
f 10/26/13 11/28/13 12/29/13
f 13/30/14 12/31/14 11/32/14
f 13/30/14 14/33/14 12/31/14
f 13/30/14 15/34/14 14/33/14
f 15/34/14 13/30/14 16/35/14
f 11/36/15 20/37/15 13/38/15
f 20/37/15 11/36/15 21/39/15
f 21/39/15 11/36/15 9/40/15
f 21/39/15 9/40/15 22/41/15
f 9/25/1 23/42/1 22/43/1
f 23/42/1 9/25/1 24/44/1
f 9/22/10 8/24/12 24/45/16
f 5/46/17 31/47/17 30/48/17
f 31/47/17 5/46/17 32/49/17
f 6/50/18 32/49/18 5/46/18
f 32/49/18 6/50/18 33/51/18
f 7/27/19 33/51/19 6/50/19
f 33/51/19 7/27/19 15/52/19
f 7/27/13 14/53/13 15/52/13
f 14/53/13 7/27/11 34/54/13
f 34/54/13 7/27/11 10/26/13
f 34/54/13 12/29/13 14/53/13
f 12/29/13 34/54/13 10/26/13
f 45/55/20 43/56/20 44/57/20
f 43/56/20 45/55/20 46/58/20
f 45/59/21 20/60/21 46/61/21
f 47/62/21 20/60/21 45/59/21
f 20/60/21 47/62/21 48/63/21
f 31/64/22 48/63/22 47/62/22
f 48/63/22 31/64/22 49/65/22
f 31/66/23 50/67/23 49/68/23
f 50/67/23 31/66/23 32/69/23
f 32/69/24 51/70/24 50/67/24
f 51/70/24 32/69/24 33/71/24
f 33/72/25 16/35/25 51/73/25
f 16/35/25 33/72/25 15/34/25
f 28/74/26 31/47/26 47/75/26
f 31/47/26 28/74/26 30/48/26
f 47/75/20 27/76/20 28/74/20
f 27/76/20 47/75/20 23/42/20
f 23/42/20 47/75/20 22/43/20
f 22/43/20 47/75/20 44/57/20
f 44/57/20 47/75/20 45/55/20
f 21/77/20 43/56/20 46/58/20
f 22/43/20 43/56/20 21/77/20
f 43/56/20 22/43/20 44/57/20
f 46/61/21 20/60/21 21/78/21
f 13/30/27 17/79/27 16/35/27
f 17/79/27 13/30/27 18/80/27
f 13/38/15 19/81/15 18/82/15
f 19/81/15 13/38/15 20/37/15
f 16/83/28 52/84/28 51/85/28
f 52/84/28 16/83/28 17/86/28
f 53/87/29 52/84/29 17/86/29
f 52/84/29 53/87/29 54/88/29
f 53/87/30 55/89/30 54/88/30
f 55/89/30 53/87/30 56/90/30
f 17/86/31 56/90/31 53/87/31
f 56/90/31 17/86/31 18/91/31
f 18/82/15 55/92/15 56/93/15
f 55/92/15 18/82/15 19/81/15
f 19/94/32 57/95/32 55/89/32
f 57/95/32 19/94/32 58/96/32
f 20/60/33 58/97/33 19/98/33
f 58/97/33 20/60/33 48/63/33
f 48/99/34 59/100/34 58/96/34
f 59/100/34 48/99/34 49/101/34
f 50/102/35 59/100/35 49/101/35
f 59/100/35 50/102/35 60/103/35
f 50/102/36 52/84/36 60/103/36
f 52/84/36 50/102/36 51/85/36
f 54/88/37 60/103/37 52/84/37
f 60/103/37 54/88/37 61/104/37
f 54/88/30 55/89/30 61/104/30
f 61/104/30 55/89/30 62/105/30
f 62/105/30 55/89/30 57/95/30
f 57/95/38 59/100/38 62/105/38
f 59/100/38 57/95/38 58/96/38
f 60/103/39 62/105/39 59/100/39
f 62/105/39 60/103/39 61/104/39
f 8/11/5 25/106/5 24/107/5
f 25/106/5 8/11/5 3/13/5
f 2/2/1 25/108/1 3/3/1
f 25/108/1 2/2/1 26/109/1
f 2/14/6 23/110/6 26/111/6
f 23/110/6 2/14/6 27/16/6
f 10/112/40 35/113/40 34/114/40
f 35/113/40 10/112/40 36/115/40
f 37/116/41 36/117/42 10/118/43
f 37/116/41 38/119/44 36/117/42
f 38/119/44 37/116/41 39/120/45
f 37/121/1 40/122/1 39/123/1
f 40/122/1 37/121/1 41/124/1
f 12/31/46 41/125/46 37/126/46
f 41/125/46 12/31/46 14/33/46
f 37/116/47 10/118/47 12/127/47
f 41/128/48 14/129/48 34/130/48
f 41/128/49 34/130/50 35/131/51
f 35/131/51 40/132/52 41/128/49
f 40/132/52 35/131/51 42/133/53
f 35/134/30 38/135/30 42/136/30
f 38/135/30 35/134/30 36/137/30
f 43/138/46 42/139/46 38/140/46
f 42/139/46 43/138/46 44/141/46
f 40/132/54 44/142/54 45/143/54
f 40/132/52 42/133/53 44/142/55
f 46/61/40 40/144/40 45/59/40
f 40/144/40 46/61/40 39/145/40
f 39/120/56 46/146/56 43/147/56
f 39/120/45 43/147/57 38/119/44
f 23/148/58 25/149/58 26/150/58
f 25/149/58 23/148/58 24/151/58
