# Blender v2.92.0 OBJ File: 'kenney_OGConvert.blend'
# www.blender.org
o modularBuildings_029
v 0.100000 0.310000 -0.562500
v 0.100000 0.120000 -0.562500
v -0.000000 0.120000 -0.562500
v -0.000000 0.310000 -0.562500
v 0.100000 0.350440 -0.567824
v 0.100000 0.388125 -0.583434
v 0.100000 0.420485 -0.608265
v 0.100000 0.445316 -0.640625
v 0.100000 0.460926 -0.678310
v 0.100000 0.466250 -0.718750
v 0.100000 0.460926 -0.759190
v 0.100000 0.445316 -0.796875
v 0.100000 0.420485 -0.829235
v 0.100000 0.388125 -0.854066
v 0.100000 0.350440 -0.869676
v 0.100000 0.310000 -0.875000
v 0.100000 0.120000 -0.875000
v -0.000000 0.350440 -0.567824
v -0.000000 0.120000 -0.437500
v -0.000000 0.388125 -0.583434
v -0.000000 0.310000 -0.437500
v -0.000000 0.420485 -0.608265
v -0.000000 0.445316 -0.640625
v -0.000000 0.350440 -0.432176
v -0.000000 0.625000 -1.000000
v -0.000000 0.388125 -0.416566
v -0.000000 0.420485 -0.391735
v -0.000000 0.445316 -0.359375
v -0.000000 0.460926 -0.321690
v -0.000000 0.466250 -0.281250
v -0.000000 0.460926 -0.240810
v 0.000000 0.625000 0.000000
v -0.000000 0.445316 -0.203125
v -0.000000 0.420485 -0.170765
v -0.000000 0.388125 -0.145934
v -0.000000 0.350440 -0.130324
v 0.000000 0.000000 0.000000
v -0.000000 0.310000 -0.125000
v 0.100000 0.350440 -0.130324
v 0.100000 0.310000 -0.125000
v 0.100000 0.388125 -0.145934
v 0.100000 0.420485 -0.170765
v 0.100000 0.445316 -0.203125
v 0.100000 0.460926 -0.240810
v 0.100000 0.466250 -0.281250
v 0.100000 0.460926 -0.321690
v 0.100000 0.445316 -0.359375
v 0.100000 0.420485 -0.391735
v 0.100000 0.388125 -0.416566
v 0.100000 0.350440 -0.432176
v 0.100000 0.310000 -0.437500
v 0.100000 0.120000 -0.437500
v 0.100000 0.120000 -0.125000
v -0.000000 0.120000 -0.125000
v -0.000000 0.000000 -1.000000
v -0.000000 0.120000 -0.875000
v -0.000000 0.310000 -0.875000
v -0.000000 0.350440 -0.869676
v -0.000000 0.388125 -0.854066
v -0.000000 0.420485 -0.829235
v -0.000000 0.445316 -0.796875
v -0.000000 0.460926 -0.759190
v -0.000000 0.466250 -0.718750
v -0.000000 0.460926 -0.678310
v 1.000000 0.625000 -1.000000
v 1.000000 0.000000 -1.000000
v 1.000000 0.625000 -0.000000
v 1.000000 0.000000 -0.000000
vt 0.565662 0.857595
vt 0.527923 0.786689
vt 0.565662 0.786689
vt 0.527923 0.771298
vt 0.400694 0.192921
vt 0.449876 0.105956
vt 0.447867 0.121218
vt 0.455767 0.091734
vt 0.400694 0.121218
vt 0.465138 0.079522
vt 0.477350 0.070151
vt 0.398685 0.105956
vt 0.612972 0.002341
vt 0.392794 0.091734
vt 0.383423 0.079522
vt 0.371211 0.070151
vt 0.356989 0.064260
vt 0.341727 0.062251
vt 0.326466 0.064260
vt 0.235588 0.002341
vt 0.312244 0.070151
vt 0.300032 0.079522
vt 0.290661 0.091734
vt 0.284770 0.105956
vt 0.235588 0.238207
vt 0.282761 0.121218
vt 0.485502 0.771298
vt 0.523240 0.786689
vt 0.485502 0.786689
vt 0.485502 0.756359
vt 0.523240 0.771298
vt 0.485502 0.742890
vt 0.523240 0.756359
vt 0.282692 0.826805
vt 0.320431 0.839017
vt 0.282692 0.839017
vt 0.282692 0.812583
vt 0.320431 0.826805
vt 0.282692 0.797322
vt 0.320431 0.812583
vt 0.282692 0.782060
vt 0.320431 0.797322
vt 0.282692 0.767838
vt 0.320431 0.782060
vt 0.282692 0.755626
vt 0.320431 0.767838
vt 0.570345 0.840900
vt 0.608083 0.854369
vt 0.570345 0.854369
vt 0.570345 0.825960
vt 0.608083 0.840900
vt 0.570345 0.810570
vt 0.608083 0.825960
vt 0.570345 0.739663
vt 0.608083 0.810570
vt 0.485502 0.620274
vt 0.523240 0.738207
vt 0.485502 0.738207
vt 0.523240 0.857595
vt 0.282761 0.192921
vt 0.612972 0.238207
vt 0.447867 0.192921
vt 0.565799 0.192921
vt 0.527923 0.620274
vt 0.565662 0.738207
vt 0.527923 0.738207
vt 0.570345 0.691181
vt 0.608083 0.620274
vt 0.608083 0.691181
vt 0.608083 0.706572
vt 0.570345 0.706572
vt 0.563790 0.105956
vt 0.565799 0.121218
vt 0.557899 0.091734
vt 0.548528 0.079522
vt 0.536316 0.070151
vt 0.522095 0.064260
vt 0.506833 0.062251
vt 0.491572 0.064260
vt 0.240271 0.812583
vt 0.278009 0.826805
vt 0.240271 0.826805
vt 0.240271 0.797322
vt 0.278009 0.812583
vt 0.240271 0.782060
vt 0.278009 0.797322
vt 0.240271 0.767839
vt 0.278009 0.782060
vt 0.240271 0.755626
vt 0.278009 0.767839
vt 0.570345 0.721511
vt 0.608083 0.734980
vt 0.570345 0.734980
vt 0.608083 0.721511
vt 0.278009 0.839017
vt 0.240271 0.839017
vt 0.527923 0.742890
vt 0.565662 0.756359
vt 0.527923 0.756359
vt 0.565662 0.771298
vt 0.235588 0.620274
vt 0.002341 0.997659
vt 0.002341 0.620274
vt 0.995040 0.379726
vt 0.617655 0.002341
vt 0.995040 0.002342
vt 0.002341 0.615591
vt 0.235588 0.615591
vt 0.853521 0.384409
vt 0.617655 0.761793
vt 0.617655 0.384409
vt 0.527923 0.857595
vt 0.523240 0.742890
vt 0.320431 0.755626
vt 0.608083 0.739663
vt 0.523240 0.620274
vt 0.485502 0.857595
vt 0.565662 0.620274
vt 0.570345 0.620274
vt 0.278009 0.755626
vt 0.565662 0.742890
vt 0.235588 0.997659
vt 0.617655 0.379726
vt 0.002341 0.238207
vt 0.853521 0.761793
vt 0.612972 0.615591
vt 0.269754 0.628174
vt 0.328720 0.628174
vt 0.358204 0.679240
vt 0.392370 0.628174
vt 0.451336 0.628174
vt 0.480819 0.679240
vt 0.358204 0.750944
vt 0.240271 0.750944
vt 0.240271 0.679240
vt 0.242280 0.663979
vt 0.248171 0.649757
vt 0.257542 0.637545
vt 0.283976 0.622283
vt 0.299237 0.620274
vt 0.314499 0.622283
vt 0.340933 0.637545
vt 0.350303 0.649757
vt 0.356194 0.663979
vt 0.480819 0.750944
vt 0.362886 0.750944
vt 0.362886 0.679240
vt 0.364896 0.663979
vt 0.370787 0.649757
vt 0.380157 0.637545
vt 0.406591 0.622283
vt 0.421853 0.620274
vt 0.437114 0.622283
vt 0.463548 0.637545
vt 0.472919 0.649757
vt 0.478810 0.663979
vn 0.0000 0.0000 -1.0000
vn 0.0000 -0.2588 -0.9659
vn 0.0000 -0.1305 -0.9914
vn -1.0000 0.0000 0.0000
vn 0.0000 -0.5000 -0.8660
vn -0.0000 -0.7071 -0.7071
vn 0.0000 -0.8660 -0.5000
vn -0.0000 -0.9659 -0.2588
vn -0.0000 -1.0000 -0.0000
vn 0.0000 -0.9659 0.2588
vn 0.0000 -0.8660 0.5000
vn 0.0000 -0.7071 0.7071
vn 0.0000 -0.5000 0.8660
vn 0.0000 -0.2588 0.9659
vn 0.0000 -0.1305 0.9914
vn 0.0000 0.0000 1.0000
vn 0.0000 1.0000 0.0000
vn 1.0000 -0.0000 -0.0000
s 1
f 2/1/1 4/2/1 1/3/1
f 18/4/2 1/3/3 4/2/3
f 19/5/4 18/6/4 4/7/4
f 19/5/4 20/8/4 18/6/4
f 21/9/4 20/8/4 19/5/4
f 21/9/4 22/10/4 20/8/4
f 21/9/4 23/11/4 22/10/4
f 24/12/4 23/11/4 21/9/4
f 24/12/4 25/13/4 23/11/4
f 26/14/4 25/13/4 24/12/4
f 27/15/4 25/13/4 26/14/4
f 28/16/4 25/13/4 27/15/4
f 29/17/4 25/13/4 28/16/4
f 30/18/4 25/13/4 29/17/4
f 31/19/4 25/13/4 30/18/4
f 31/19/4 32/20/4 25/13/4
f 33/21/4 32/20/4 31/19/4
f 34/22/4 32/20/4 33/21/4
f 35/23/4 32/20/4 34/22/4
f 36/24/4 32/20/4 35/23/4
f 32/20/4 36/24/4 37/25/4
f 37/25/4 36/24/4 38/26/4
f 36/27/2 40/28/3 38/29/3
f 35/30/5 39/31/2 36/27/2
f 34/32/6 41/33/5 35/30/5
f 33/34/7 42/35/6 34/36/6
f 31/37/8 43/38/7 33/34/7
f 30/39/9 44/40/8 31/37/8
f 29/41/10 45/42/9 30/39/9
f 28/43/11 46/44/10 29/41/10
f 27/45/12 47/46/11 28/43/11
f 26/47/13 48/48/12 27/49/12
f 24/50/14 49/51/13 26/47/13
f 21/52/15 50/53/14 24/50/14
f 19/54/16 51/55/16 21/52/16
f 52/56/17 54/57/17 53/58/17
f 53/59/1 38/29/1 40/28/1
f 54/60/4 37/25/4 38/26/4
f 37/25/4 54/60/4 55/61/4
f 55/61/4 54/60/4 19/5/4
f 55/61/4 19/5/4 3/62/4
f 3/62/4 19/5/4 4/7/4
f 55/61/4 3/62/4 56/63/4
f 17/64/17 3/65/17 2/66/17
f 57/67/16 17/68/16 16/69/16
f 57/67/15 15/70/14 58/71/14
f 58/72/4 25/13/4 57/73/4
f 59/74/4 25/13/4 58/72/4
f 60/75/4 25/13/4 59/74/4
f 61/76/4 25/13/4 60/75/4
f 62/77/4 25/13/4 61/76/4
f 63/78/4 25/13/4 62/77/4
f 64/79/4 25/13/4 63/78/4
f 23/11/4 25/13/4 64/79/4
f 64/80/8 8/81/7 23/82/7
f 63/83/9 9/84/8 64/80/8
f 62/85/10 10/86/9 63/83/9
f 61/87/11 11/88/10 62/85/10
f 60/89/12 12/90/11 61/87/11
f 59/91/13 13/92/12 60/93/12
f 58/71/14 14/94/13 59/91/13
f 23/82/7 7/95/6 22/96/6
f 22/97/6 6/98/5 20/99/5
f 20/99/5 5/100/2 18/4/2
f 57/73/4 25/13/4 56/63/4
f 55/61/4 56/63/4 25/13/4
f 25/101/1 66/102/1 55/103/1
f 32/104/17 65/105/17 25/106/17
f 67/107/16 37/25/16 68/108/16
f 65/109/18 68/110/18 66/111/18
f 55/61/9 68/108/9 37/25/9
f 2/1/1 3/112/1 4/2/1
f 18/4/2 5/100/2 1/3/3
f 36/27/2 39/31/2 40/28/3
f 35/30/5 41/33/5 39/31/2
f 34/32/6 42/113/6 41/33/5
f 33/34/7 43/38/7 42/35/6
f 31/37/8 44/40/8 43/38/7
f 30/39/9 45/42/9 44/40/8
f 29/41/10 46/44/10 45/42/9
f 28/43/11 47/46/11 46/44/10
f 27/45/12 48/114/12 47/46/11
f 26/47/13 49/51/13 48/48/12
f 24/50/14 50/53/14 49/51/13
f 21/52/15 51/55/15 50/53/14
f 19/54/16 52/115/16 51/55/16
f 52/56/17 19/116/17 54/57/17
f 53/59/1 54/117/1 38/29/1
f 17/64/17 56/118/17 3/65/17
f 57/67/16 56/119/16 17/68/16
f 57/67/15 16/69/15 15/70/14
f 64/80/8 9/84/8 8/81/7
f 63/83/9 10/86/9 9/84/8
f 62/85/10 11/88/10 10/86/9
f 61/87/11 12/90/11 11/88/10
f 60/89/12 13/120/12 12/90/11
f 59/91/13 14/94/13 13/92/12
f 58/71/14 15/70/14 14/94/13
f 23/82/7 8/81/7 7/95/6
f 22/97/6 7/121/6 6/98/5
f 20/99/5 6/98/5 5/100/2
f 25/101/1 65/122/1 66/102/1
f 32/104/17 67/123/17 65/105/17
f 67/107/16 32/124/16 37/25/16
f 65/109/18 67/125/18 68/110/18
f 55/61/9 66/126/9 68/108/9
f 8/127/4 12/128/4 16/129/4
f 43/130/4 47/131/4 51/132/4
f 17/133/4 2/134/4 1/135/4
f 1/135/4 5/136/4 6/137/4
f 6/137/4 7/138/4 8/127/4
f 8/127/4 9/139/4 10/140/4
f 10/140/4 11/141/4 12/128/4
f 12/128/4 13/142/4 16/129/4
f 13/142/4 14/143/4 16/129/4
f 14/143/4 15/144/4 16/129/4
f 16/129/4 17/133/4 1/135/4
f 1/135/4 6/137/4 16/129/4
f 6/137/4 8/127/4 16/129/4
f 8/127/4 10/140/4 12/128/4
f 52/145/4 53/146/4 40/147/4
f 40/147/4 39/148/4 41/149/4
f 41/149/4 42/150/4 43/130/4
f 43/130/4 44/151/4 45/152/4
f 45/152/4 46/153/4 47/131/4
f 47/131/4 48/154/4 51/132/4
f 48/154/4 49/155/4 51/132/4
f 49/155/4 50/156/4 51/132/4
f 51/132/4 52/145/4 40/147/4
f 40/147/4 41/149/4 51/132/4
f 41/149/4 43/130/4 51/132/4
f 43/130/4 45/152/4 47/131/4
