# Blender v2.92.0 OBJ File: 'kenney_OGConvert.blend'
# www.blender.org
o modularBuildings_033
v 0.100000 0.500000 -0.875000
v 0.100000 0.120000 -0.875000
v 0.100000 0.120000 -0.562500
v 0.100000 0.500000 -0.562500
v -0.000000 0.500000 -0.875000
v -0.000000 0.444444 -0.875000
v -0.000000 0.375000 -0.875000
v -0.000000 0.120000 -0.875000
v -0.000000 0.625000 -1.000000
v -0.000000 0.500000 -0.562500
v -0.000000 0.500000 -0.437500
v -0.000000 0.500000 -0.125000
v 0.000000 0.625000 0.000000
v 0.000000 0.000000 0.000000
v -0.000000 0.060000 -0.125000
v -0.000000 0.000000 -1.000000
v -0.000000 0.060000 -0.437500
v -0.050000 0.060000 -0.125000
v -0.050000 0.060000 -0.437500
v -0.000000 0.120000 -0.125000
v -0.050000 0.120000 -0.125000
v -0.000000 0.375000 -0.125000
v -0.000000 0.444444 -0.125000
v 0.100000 0.500000 -0.125000
v 0.100000 0.120000 -0.125000
v 0.100000 0.500000 -0.437500
v 0.100000 0.120000 -0.437500
v -0.000000 0.444444 -0.437500
v -0.000000 0.375000 -0.437500
v -0.000000 0.444444 -0.562500
v -0.128250 0.375000 -0.875000
v -0.127153 0.391316 -0.875000
v -0.123880 0.407352 -0.875000
v -0.118488 0.422835 -0.875000
v -0.111068 0.437500 -0.875000
v -0.101748 0.451095 -0.875000
v -0.090687 0.463388 -0.875000
v -0.078074 0.474169 -0.875000
v -0.064125 0.483253 -0.875000
v -0.049079 0.490485 -0.875000
v -0.033194 0.495741 -0.875000
v -0.016740 0.498931 -0.875000
v -0.000000 0.060000 -0.875000
v -0.000000 0.060000 -0.562500
v -0.000000 0.120000 -0.437500
v -0.050000 0.120000 -0.437500
v -0.128250 0.375000 -0.437500
v -0.127153 0.391316 -0.437500
v -0.123880 0.407352 -0.437500
v -0.118488 0.422835 -0.437500
v -0.111068 0.437500 -0.437500
v -0.101748 0.451095 -0.437500
v -0.090686 0.463388 -0.437500
v -0.078074 0.474169 -0.437500
v -0.064125 0.483253 -0.437500
v -0.049079 0.490485 -0.437500
v -0.033194 0.495741 -0.437500
v -0.016740 0.498931 -0.437500
v -0.016740 0.498931 -0.125000
v -0.033194 0.495741 -0.125000
v -0.049079 0.490485 -0.125000
v -0.064125 0.483253 -0.125000
v -0.078074 0.474169 -0.125000
v -0.090686 0.463388 -0.125000
v -0.101748 0.451095 -0.125000
v -0.111068 0.437500 -0.125000
v -0.118488 0.422835 -0.125000
v -0.123880 0.407352 -0.125000
v -0.127153 0.391316 -0.125000
v -0.128250 0.375000 -0.125000
v -0.000000 0.375000 -0.562500
v -0.000000 0.120000 -0.562500
v -0.050000 0.120000 -0.875000
v -0.050000 0.120000 -0.562500
v -0.050000 0.060000 -0.875000
v -0.050000 0.060000 -0.562500
v -0.016740 0.498931 -0.562500
v -0.033194 0.495741 -0.562500
v -0.049079 0.490485 -0.562500
v -0.064125 0.483253 -0.562500
v -0.078074 0.474169 -0.562500
v -0.090687 0.463388 -0.562500
v -0.101748 0.451095 -0.562500
v -0.111068 0.437500 -0.562500
v -0.118488 0.422835 -0.562500
v -0.123880 0.407352 -0.562500
v -0.127153 0.391316 -0.562500
v -0.128250 0.375000 -0.562500
v 1.000000 0.625000 -1.000000
v 1.000000 0.000000 -1.000000
v 1.000000 0.625000 -0.000000
v 1.000000 0.000000 -0.000000
vt 0.909728 0.150957
vt 0.788441 0.003775
vt 0.909728 0.003775
vt 0.909728 0.158507
vt 0.788441 0.305690
vt 0.788441 0.158507
vt 0.788441 0.150957
vt 0.909728 0.305690
vt 0.168204 0.843629
vt 0.129392 0.942599
vt 0.129392 0.795114
vt 0.802564 0.447959
vt 0.754149 0.399444
vt 0.824082 0.447959
vt 0.802564 0.569247
vt 0.802564 0.617762
vt 0.802564 0.739049
vt 0.754149 0.787564
vt 0.996225 0.787564
vt 0.972986 0.739049
vt 0.996225 0.399444
vt 0.972986 0.617762
vt 0.936684 0.125062
vt 0.917278 0.003775
vt 0.936684 0.003775
vt 0.788441 0.313239
vt 0.807847 0.336527
vt 0.788441 0.336527
vt 0.842353 0.335813
vt 0.842353 0.313239
vt 0.842353 0.331513
vt 0.788441 0.374914
vt 0.788441 0.374914
vt 0.788441 0.374914
vt 0.788441 0.374914
vt 0.042587 0.942599
vt 0.003775 0.942599
vt 0.003775 0.843629
vt 0.689128 0.795114
vt 0.727939 0.916401
vt 0.689128 0.916401
vt 0.824082 0.617762
vt 0.850979 0.617762
vt 0.824082 0.569247
vt 0.850979 0.447959
vt 0.949746 0.447959
vt 0.972986 0.447959
vt 0.972986 0.569247
vt 0.788441 0.382463
vt 0.788441 0.382463
vt 0.788441 0.382463
vt 0.834803 0.336527
vt 0.815397 0.313239
vt 0.834803 0.313239
vt 0.880455 0.795114
vt 0.857216 0.916401
vt 0.857216 0.795114
vt 0.271224 0.795114
vt 0.290297 0.916401
vt 0.271224 0.916401
vt 0.225530 0.843629
vt 0.186718 0.942599
vt 0.186718 0.795114
vt 0.850979 0.569247
vt 0.099913 0.942599
vt 0.061101 0.942599
vt 0.061101 0.843629
vt 0.335991 0.795114
vt 0.355064 0.916401
vt 0.335991 0.916401
vt 0.834803 0.367364
vt 0.815397 0.344077
vt 0.834803 0.344077
vt 0.936684 0.253900
vt 0.917278 0.132612
vt 0.936684 0.132612
vt 0.788441 0.344077
vt 0.807847 0.367364
vt 0.788441 0.367364
vt 0.788441 0.390013
vt 0.788441 0.390013
vt 0.788441 0.390013
vt 0.911244 0.795114
vt 0.888005 0.916401
vt 0.888005 0.795114
vt 0.735489 0.795114
vt 0.774301 0.916401
vt 0.735489 0.916401
vt 0.496474 0.399444
vt 0.253900 0.787564
vt 0.253900 0.399444
vt 0.780891 0.391895
vt 0.399444 0.003775
vt 0.780891 0.003775
vt 0.746599 0.399444
vt 0.504024 0.787564
vt 0.504024 0.399444
vt 0.246350 0.399444
vt 0.003775 0.787564
vt 0.003775 0.399444
vt 0.003775 0.003775
vt 0.391895 0.391895
vt 0.003775 0.391895
vt 0.168204 0.795114
vt 0.168204 0.816676
vt 0.168204 0.942599
vt 0.917278 0.125062
vt 0.807847 0.313239
vt 0.003775 0.795114
vt 0.042587 0.795114
vt 0.003775 0.816676
vt 0.727939 0.795114
vt 0.815397 0.336527
vt 0.880455 0.916401
vt 0.233080 0.916401
vt 0.233080 0.795114
vt 0.290297 0.795114
vt 0.225530 0.795114
vt 0.225530 0.816676
vt 0.225530 0.942599
vt 0.061101 0.795114
vt 0.099913 0.795114
vt 0.061101 0.816676
vt 0.297847 0.916401
vt 0.297847 0.795114
vt 0.355064 0.795114
vt 0.815397 0.367364
vt 0.917278 0.253900
vt 0.807847 0.344077
vt 0.911244 0.916401
vt 0.774301 0.795114
vt 0.496474 0.787564
vt 0.399444 0.391895
vt 0.746599 0.787564
vt 0.246350 0.787564
vt 0.391895 0.003775
vt 0.525781 0.795114
vt 0.504219 0.916401
vt 0.504219 0.795114
vt 0.581846 0.795114
vt 0.560283 0.916401
vt 0.560283 0.795114
vt 0.149155 0.798807
vt 0.155321 0.796767
vt 0.206481 0.798807
vt 0.212647 0.796767
vt 0.477266 0.916401
vt 0.477266 0.795114
vt 0.049762 0.825063
vt 0.051855 0.831072
vt 0.595858 0.795114
vt 0.589396 0.916401
vt 0.589396 0.795114
vt 0.602362 0.795114
vt 0.595858 0.916401
vt 0.608799 0.795114
vt 0.602362 0.916401
vt 0.615056 0.795114
vt 0.608799 0.916401
vt 0.621028 0.795114
vt 0.615056 0.916401
vt 0.626611 0.795114
vt 0.621028 0.916401
vt 0.631712 0.795114
vt 0.626611 0.916401
vt 0.787349 0.795114
vt 0.781851 0.916401
vt 0.781851 0.795114
vt 0.793213 0.795114
vt 0.787349 0.916401
vt 0.799344 0.795114
vt 0.793213 0.916401
vt 0.805637 0.795114
vt 0.799344 0.916401
vt 0.811984 0.795114
vt 0.805637 0.916401
vt 0.412390 0.795114
vt 0.362614 0.916401
vt 0.362614 0.795114
vt 0.533331 0.916401
vt 0.533331 0.795114
vt 0.107089 0.825063
vt 0.109181 0.831072
vt 0.645724 0.795114
vt 0.639262 0.916401
vt 0.639262 0.795114
vt 0.652228 0.795114
vt 0.645724 0.916401
vt 0.658665 0.795114
vt 0.652228 0.916401
vt 0.664922 0.795114
vt 0.658665 0.916401
vt 0.670894 0.795114
vt 0.664922 0.916401
vt 0.676477 0.795114
vt 0.670894 0.916401
vt 0.681578 0.795114
vt 0.676477 0.916401
vt 0.825031 0.795114
vt 0.819533 0.916401
vt 0.819533 0.795114
vt 0.830895 0.795114
vt 0.825031 0.916401
vt 0.837026 0.795114
vt 0.830895 0.916401
vt 0.843319 0.795114
vt 0.837026 0.916401
vt 0.849666 0.795114
vt 0.843319 0.916401
vt 0.469716 0.795114
vt 0.419940 0.916401
vt 0.419940 0.795114
vt 0.525781 0.916401
vt 0.581846 0.916401
vt 0.161707 0.795529
vt 0.128713 0.814095
vt 0.118427 0.843629
vt 0.118853 0.837296
vt 0.120123 0.831072
vt 0.122216 0.825063
vt 0.125096 0.819371
vt 0.133007 0.809324
vt 0.137902 0.805139
vt 0.143316 0.801614
vt 0.219033 0.795529
vt 0.186040 0.814095
vt 0.175754 0.843629
vt 0.176179 0.837296
vt 0.177450 0.831072
vt 0.179542 0.825063
vt 0.182422 0.819371
vt 0.190333 0.809324
vt 0.195228 0.805139
vt 0.200642 0.801614
vt 0.053551 0.843629
vt 0.053126 0.837296
vt 0.043265 0.814095
vt 0.010272 0.795529
vt 0.016658 0.796767
vt 0.022824 0.798807
vt 0.028663 0.801614
vt 0.034077 0.805139
vt 0.038972 0.809324
vt 0.046883 0.819371
vt 0.631712 0.916401
vt 0.811984 0.916401
vt 0.412390 0.916401
vt 0.110877 0.843629
vt 0.110452 0.837296
vt 0.100592 0.814095
vt 0.067598 0.795529
vt 0.073984 0.796767
vt 0.080150 0.798807
vt 0.085989 0.801614
vt 0.091403 0.805139
vt 0.096298 0.809324
vt 0.104209 0.819371
vt 0.681578 0.916401
vt 0.849666 0.916401
vt 0.469716 0.916401
vn -1.0000 0.0000 0.0000
vn -0.0000 0.0000 1.0000
vn 0.0000 -1.0000 -0.0000
vn 0.0000 0.0000 -1.0000
vn 0.0000 1.0000 -0.0000
vn 1.0000 -0.0000 -0.0000
vn -0.1273 0.9919 0.0000
vn -0.0637 0.9980 0.0000
vn -0.2527 0.9675 -0.0000
vn -0.3744 0.9273 0.0000
vn -0.4905 0.8714 0.0000
vn -0.5990 0.8007 0.0000
vn -0.6980 0.7161 0.0000
vn -0.7858 0.6185 0.0000
vn -0.8604 0.5096 0.0000
vn -0.9204 0.3910 0.0000
vn -0.9642 0.2650 0.0000
vn -0.9910 0.1338 0.0000
vn -0.9977 0.0671 0.0000
s 1
f 2/1/1 4/2/1 1/3/1
f 26/4/1 25/5/1 24/6/1
f 2/1/1 3/7/1 4/2/1
f 26/4/1 27/8/1 25/5/1
f 7/9/2 2/10/2 1/11/2
f 5/12/1 9/13/1 6/14/1
f 10/15/1 9/13/1 5/12/1
f 11/16/1 9/13/1 10/15/1
f 12/17/1 9/13/1 11/16/1
f 12/17/1 13/18/1 9/13/1
f 13/18/1 12/17/1 14/19/1
f 15/20/1 14/19/1 12/17/1
f 14/19/1 15/20/1 16/21/1
f 16/21/1 15/20/1 17/22/1
f 15/23/3 19/24/3 17/25/3
f 20/26/2 18/27/2 15/28/2
f 15/29/1 22/30/4 20/31/5
f 15/32/1 23/33/2 22/34/4
f 15/32/1 12/35/1 23/33/2
f 25/36/4 20/37/4 22/38/4
f 11/39/3 24/40/3 12/41/3
f 11/16/1 10/15/1 28/42/1
f 28/42/1 10/15/1 29/43/1
f 29/43/1 10/15/1 30/44/1
f 6/14/1 9/13/1 7/45/1
f 7/45/1 9/13/1 8/46/1
f 8/46/1 9/13/1 43/47/1
f 16/21/1 43/47/1 9/13/1
f 16/21/1 44/48/1 43/47/1
f 16/21/1 17/22/1 44/48/1
f 44/48/1 17/22/1 29/43/1
f 29/49/1 17/50/1 45/51/3
f 17/52/4 46/53/4 45/54/4
f 19/55/1 21/56/1 46/57/1
f 45/58/5 21/59/5 20/60/5
f 29/61/2 27/62/2 26/63/2
f 44/48/1 29/43/1 71/64/1
f 71/64/1 29/43/1 30/44/1
f 3/65/4 72/66/4 71/67/4
f 8/68/5 74/69/5 72/70/5
f 43/71/4 73/72/4 8/73/4
f 44/74/3 75/75/3 43/76/3
f 72/77/2 76/78/2 44/79/2
f 44/80/1 71/81/1 72/82/5
f 75/83/1 74/84/1 73/85/1
f 5/86/3 4/87/3 10/88/3
f 9/89/4 90/90/4 16/91/4
f 13/92/5 89/93/5 9/94/5
f 91/95/2 14/96/2 92/97/2
f 89/98/6 92/99/6 90/100/6
f 16/101/3 92/102/3 14/103/3
f 1/11/2 5/104/2 6/105/2
f 7/9/2 8/106/2 2/10/2
f 1/11/2 6/105/2 7/9/2
f 15/23/3 18/107/3 19/24/3
f 20/26/2 21/108/2 18/27/2
f 12/109/4 24/110/4 23/111/4
f 24/110/4 25/36/4 22/38/4
f 23/111/4 24/110/4 22/38/4
f 11/39/3 26/112/3 24/40/3
f 17/52/4 19/113/4 46/53/4
f 19/55/1 18/114/1 21/56/1
f 20/60/5 25/115/5 27/116/5
f 45/58/5 46/117/5 21/59/5
f 20/60/5 27/116/5 45/58/5
f 26/63/2 11/118/2 28/119/2
f 29/61/2 45/120/2 27/62/2
f 26/63/2 28/119/2 29/61/2
f 10/121/4 4/122/4 30/123/4
f 4/122/4 3/65/4 71/67/4
f 30/123/4 4/122/4 71/67/4
f 72/70/5 3/124/5 2/125/5
f 8/68/5 73/126/5 74/69/5
f 72/70/5 2/125/5 8/68/5
f 43/71/4 75/127/4 73/72/4
f 44/74/3 76/128/3 75/75/3
f 72/77/2 74/129/2 76/78/2
f 75/83/1 76/130/1 74/84/1
f 5/86/3 1/131/3 4/87/3
f 9/89/4 89/132/4 90/90/4
f 13/92/5 91/133/5 89/93/5
f 91/95/2 13/134/2 14/96/2
f 89/98/6 91/135/6 92/99/6
f 16/101/3 90/136/3 92/102/3
f 11/137/6 23/138/6 28/139/6
f 5/140/6 30/141/6 6/142/6
f 40/143/4 41/144/4 6/105/4
f 56/145/4 57/146/4 28/119/4
f 28/139/6 22/147/6 29/148/6
f 67/149/2 68/150/2 22/38/2
f 58/151/7 12/152/8 11/153/8
f 57/154/9 59/155/7 58/151/7
f 56/156/10 60/157/9 57/154/9
f 55/158/11 61/159/10 56/156/10
f 54/160/12 62/161/11 55/158/11
f 53/162/13 63/163/12 54/160/12
f 52/164/14 64/165/13 53/162/13
f 51/166/15 65/167/14 52/168/14
f 50/169/16 66/170/15 51/166/15
f 49/171/17 67/172/16 50/169/16
f 48/173/18 68/174/17 49/171/17
f 47/175/19 69/176/18 48/173/18
f 29/177/3 70/178/3 47/179/3
f 6/142/6 71/180/6 7/181/6
f 85/182/2 86/183/2 71/67/2
f 42/184/7 10/185/8 5/186/8
f 41/187/9 77/188/7 42/184/7
f 40/189/10 78/190/9 41/187/9
f 39/191/11 79/192/10 40/189/10
f 38/193/12 80/194/11 39/191/11
f 37/195/13 81/196/12 38/193/12
f 36/197/14 82/198/13 37/195/13
f 35/199/15 83/200/14 36/201/14
f 34/202/16 84/203/15 35/199/15
f 33/204/17 85/205/16 34/202/16
f 32/206/18 86/207/17 33/204/17
f 31/208/19 87/209/18 32/206/18
f 7/210/3 88/211/3 31/212/3
f 11/137/6 12/213/6 23/138/6
f 5/140/6 10/214/6 30/141/6
f 5/104/4 6/105/4 42/215/4
f 6/105/4 7/9/4 36/216/4
f 42/215/4 6/105/4 41/144/4
f 7/9/4 31/217/4 32/218/4
f 32/218/4 33/219/4 7/9/4
f 33/219/4 34/220/4 7/9/4
f 34/220/4 35/221/4 7/9/4
f 35/221/4 36/216/4 7/9/4
f 36/216/4 37/222/4 6/105/4
f 37/222/4 38/223/4 6/105/4
f 38/223/4 39/224/4 6/105/4
f 39/224/4 40/143/4 6/105/4
f 11/118/4 28/119/4 58/225/4
f 28/119/4 29/61/4 52/226/4
f 58/225/4 28/119/4 57/146/4
f 29/61/4 47/227/4 48/228/4
f 48/228/4 49/229/4 29/61/4
f 49/229/4 50/230/4 29/61/4
f 50/230/4 51/231/4 29/61/4
f 51/231/4 52/226/4 29/61/4
f 52/226/4 53/232/4 28/119/4
f 53/232/4 54/233/4 28/119/4
f 54/233/4 55/234/4 28/119/4
f 55/234/4 56/145/4 28/119/4
f 28/139/6 23/138/6 22/147/6
f 70/235/2 22/38/2 69/236/2
f 22/38/2 23/111/2 65/237/2
f 69/236/2 22/38/2 68/150/2
f 23/111/2 12/109/2 59/238/2
f 59/238/2 60/239/2 23/111/2
f 60/239/2 61/240/2 23/111/2
f 61/240/2 62/241/2 23/111/2
f 62/241/2 63/242/2 23/111/2
f 63/242/2 64/243/2 23/111/2
f 64/243/2 65/237/2 23/111/2
f 65/237/2 66/244/2 22/38/2
f 66/244/2 67/149/2 22/38/2
f 58/151/7 59/155/7 12/152/8
f 57/154/9 60/157/9 59/155/7
f 56/156/10 61/159/10 60/157/9
f 55/158/11 62/161/11 61/159/10
f 54/160/12 63/163/12 62/161/11
f 53/162/13 64/165/13 63/163/12
f 52/164/14 65/245/14 64/165/13
f 51/166/15 66/170/15 65/167/14
f 50/169/16 67/172/16 66/170/15
f 49/171/17 68/174/17 67/172/16
f 48/173/18 69/176/18 68/174/17
f 47/175/19 70/246/19 69/176/18
f 29/177/3 22/247/3 70/178/3
f 6/142/6 30/141/6 71/180/6
f 88/248/2 71/67/2 87/249/2
f 71/67/2 30/123/2 83/250/2
f 87/249/2 71/67/2 86/183/2
f 30/123/2 10/121/2 77/251/2
f 77/251/2 78/252/2 30/123/2
f 78/252/2 79/253/2 30/123/2
f 79/253/2 80/254/2 30/123/2
f 80/254/2 81/255/2 30/123/2
f 81/255/2 82/256/2 30/123/2
f 82/256/2 83/250/2 30/123/2
f 83/250/2 84/257/2 71/67/2
f 84/257/2 85/182/2 71/67/2
f 42/184/7 77/188/7 10/185/8
f 41/187/9 78/190/9 77/188/7
f 40/189/10 79/192/10 78/190/9
f 39/191/11 80/194/11 79/192/10
f 38/193/12 81/196/12 80/194/11
f 37/195/13 82/198/13 81/196/12
f 36/197/14 83/258/14 82/198/13
f 35/199/15 84/203/15 83/200/14
f 34/202/16 85/205/16 84/203/15
f 33/204/17 86/207/17 85/205/16
f 32/206/18 87/209/18 86/207/17
f 31/208/19 88/259/19 87/209/18
f 7/210/3 71/260/3 88/211/3
