# Blender v2.92.0 OBJ File: 'kenney_OGConvert.blend'
# www.blender.org
o modularBuildings_046
v -0.000000 0.000000 -0.125000
v -0.000000 0.500000 -0.125000
v 0.100000 0.500000 -0.125000
v 0.100000 0.000000 -0.125000
v -0.000000 0.000000 -0.875000
v -0.000000 0.500000 -0.875000
v 0.000000 0.000000 0.000000
v 0.000000 0.625000 0.000000
v -0.000000 0.625000 -1.000000
v -0.000000 0.000000 -1.000000
v 0.100000 0.000000 -0.875000
v 0.100000 0.500000 -0.875000
v 1.000000 0.000000 -0.000000
v 1.000000 0.000000 -1.000000
v 1.000000 0.625000 -0.000000
v 1.000000 0.625000 -1.000000
vt 0.242718 0.620230
vt 0.280469 0.808986
vt 0.242718 0.808986
vt 0.049447 0.049447
vt 0.002257 0.002257
vt 0.379770 0.002257
vt 0.322735 0.808986
vt 0.284984 0.620230
vt 0.322735 0.620230
vt 0.049447 0.275954
vt 0.332581 0.275954
vt 0.379770 0.615715
vt 0.860690 0.384285
vt 0.624745 0.761797
vt 0.624745 0.384285
vt 0.620230 0.384285
vt 0.384285 0.761797
vt 0.384285 0.384285
vt 0.238203 0.620230
vt 0.002257 0.997742
vt 0.002257 0.620230
vt 0.761797 0.379770
vt 0.384285 0.002257
vt 0.761797 0.002258
vt 0.902957 0.384285
vt 0.865205 0.667419
vt 0.865205 0.384285
vt 0.280469 0.620230
vt 0.379770 0.238203
vt 0.332581 0.238203
vt 0.332581 0.049447
vt 0.049447 0.238203
vt 0.002257 0.238203
vt 0.284984 0.808986
vt 0.002257 0.615715
vt 0.860690 0.761797
vt 0.620230 0.761797
vt 0.238203 0.997742
vt 0.384285 0.379770
vt 0.902957 0.667419
vt 0.955068 0.002258
vt 0.766312 0.285392
vt 0.766312 0.002257
vt 0.955068 0.285392
vn -0.0000 0.0000 -1.0000
vn -1.0000 0.0000 0.0000
vn 0.0000 0.0000 1.0000
vn -0.0000 -1.0000 -0.0000
vn 1.0000 -0.0000 -0.0000
vn 0.0000 1.0000 0.0000
s 1
f 2/1/1 4/2/1 1/3/1
f 2/4/2 8/5/2 9/6/2
f 5/7/3 12/8/3 6/9/3
f 4/10/4 11/11/4 14/12/4
f 15/13/3 7/14/3 13/15/3
f 16/16/5 13/17/5 14/18/5
f 9/19/1 14/20/1 10/21/1
f 8/22/6 16/23/6 9/24/6
f 12/25/4 2/26/4 6/27/4
f 2/1/1 3/28/1 4/2/1
f 10/29/2 5/30/2 6/31/2
f 2/4/2 1/32/2 7/33/2
f 9/6/2 10/29/2 6/31/2
f 2/4/2 7/33/2 8/5/2
f 9/6/2 6/31/2 2/4/2
f 5/7/3 11/34/3 12/8/3
f 14/12/4 13/35/4 4/10/4
f 13/35/4 7/33/4 4/10/4
f 7/33/4 1/32/4 4/10/4
f 11/11/4 5/30/4 10/29/4
f 11/11/4 10/29/4 14/12/4
f 15/13/3 8/36/3 7/14/3
f 16/16/5 15/37/5 13/17/5
f 9/19/1 16/38/1 14/20/1
f 8/22/6 15/39/6 16/23/6
f 12/25/4 3/40/4 2/26/4
f 11/41/2 3/42/2 12/43/2
f 11/41/2 4/44/2 3/42/2
