# Blender v2.92.0 OBJ File: 'OGConvert.blend'
# www.blender.org
o modularBuildings_018
v 8.000000 0.000000 0.000000
v 0.000000 0.000000 0.000000
v 0.000000 0.000000 -8.000000
v 8.000000 0.000000 -8.000000
v 8.000000 5.000000 0.000000
v 0.000000 5.000000 0.000000
v 8.000000 5.000000 -8.000000
v 0.000000 5.000000 -8.000000
vt 0.001758 0.238179
vt 0.380032 0.616453
vt 0.001758 0.616453
vt 0.859905 0.383547
vt 0.623484 0.761821
vt 0.623484 0.383547
vt 0.619968 0.383547
vt 0.383547 0.761821
vt 0.383547 0.383547
vt 0.238179 0.619968
vt 0.001758 0.998242
vt 0.001758 0.619968
vt 0.001758 0.001758
vt 0.380032 0.238179
vt 0.761821 0.380032
vt 0.383547 0.001758
vt 0.761821 0.001758
vt 0.859905 0.761821
vt 0.619968 0.761821
vt 0.238179 0.998242
vt 0.380032 0.001758
vt 0.383547 0.380032
vn 0.0000 -1.0000 -0.0000
vn 0.0000 -0.0000 1.0000
vn 1.0000 0.0000 0.0000
vn 0.0000 0.0000 -1.0000
vn -1.0000 0.0000 0.0000
vn 0.0000 1.0000 0.0000
s 1
f 2/1/1 4/2/1 1/3/1
f 5/4/2 2/5/2 1/6/2
f 7/7/3 1/8/3 4/9/3
f 8/10/4 4/11/4 3/12/4
f 6/13/5 3/14/5 2/1/5
f 6/15/6 7/16/6 8/17/6
f 2/1/1 3/14/1 4/2/1
f 5/4/2 6/18/2 2/5/2
f 7/7/3 5/19/3 1/8/3
f 8/10/4 7/20/4 4/11/4
f 6/13/5 8/21/5 3/14/5
f 6/15/6 5/22/6 7/16/6
