# Blender v2.92.0 OBJ File: 'kenney_OGConvert.blend'
# www.blender.org
o modularBuildings_031
v -0.000000 0.000000 -1.000000
v -0.000000 0.106250 -1.000000
v 1.000000 0.106250 -1.000000
v 1.000000 0.000000 -1.000000
v 0.000000 0.000000 0.000000
v 0.000000 0.106250 0.000000
v 1.000000 0.000000 -0.000000
v 1.000000 0.106250 -0.000000
vt 0.665944 0.501506
vt 0.613139 0.998494
vt 0.613139 0.501506
vt 0.001506 0.001506
vt 0.498494 0.054311
vt 0.001506 0.054311
vt 0.610127 0.501506
vt 0.557322 0.998494
vt 0.557322 0.501506
vt 0.501506 0.501506
vt 0.554311 0.998494
vt 0.501506 0.998494
vt 0.498494 0.551299
vt 0.001506 0.551299
vt 0.501506 0.001506
vt 0.998494 0.498494
vt 0.501506 0.498494
vt 0.665944 0.998494
vt 0.498494 0.001506
vt 0.610127 0.998494
vt 0.554311 0.501506
vt 0.998494 0.001506
vn -0.0000 0.0000 -1.0000
vn -1.0000 0.0000 0.0000
vn 0.0000 -0.0000 1.0000
vn 1.0000 0.0000 -0.0000
vn -0.0000 -1.0000 -0.0000
vn 0.0000 1.0000 0.0000
s 1
f 2/1/1 4/2/1 1/3/1
f 6/4/2 1/5/2 5/6/2
f 8/7/3 5/8/3 7/9/3
f 4/10/4 8/11/4 7/12/4
f 5/6/5 4/13/5 7/14/5
f 3/15/6 6/16/6 8/17/6
f 2/1/1 3/18/1 4/2/1
f 6/4/2 2/19/2 1/5/2
f 8/7/3 6/20/3 5/8/3
f 4/10/4 3/21/4 8/11/4
f 5/6/5 1/5/5 4/13/5
f 3/15/6 2/22/6 6/16/6
