# Blender v2.92.0 OBJ File: 'OGConvert.blend'
# www.blender.org
o modularBuildings_072
v 1.920000 0.000000 0.000000
v 1.920000 0.000000 -1.920000
v 1.920000 0.850000 -1.920000
v 1.920000 0.850000 0.000000
v 0.000000 0.000000 0.000000
v 0.000000 0.000000 -1.920000
v 0.000000 0.850000 0.000000
v 0.773650 0.850000 -0.264534
v 0.600000 0.850000 -0.336462
v 0.450883 0.850000 -0.450883
v 0.336462 0.850000 -0.600000
v 0.264534 0.850000 -0.773650
v 0.000000 0.850000 -1.920000
v 0.240000 0.850000 -0.960000
v 0.960000 0.850000 -0.240000
v 1.146352 0.850000 -0.264534
v 1.320000 0.850000 -0.336462
v 1.469120 0.850000 -0.450883
v 1.583536 0.850000 -0.600000
v 1.655464 0.850000 -0.773650
v 1.680000 0.850000 -0.960000
v 1.655464 0.850000 -1.146352
v 1.583536 0.850000 -1.320000
v 1.469120 0.850000 -1.469120
v 1.320000 0.850000 -1.583536
v 1.146352 0.850000 -1.655464
v 0.960000 0.850000 -1.680000
v 0.773650 0.850000 -1.655464
v 0.600000 0.850000 -1.583536
v 0.450883 0.850000 -1.469120
v 0.336462 0.850000 -1.320000
v 0.264534 0.850000 -1.146352
vt 0.428755 0.428755
vt 0.616208 0.852178
vt 0.428755 0.852178
vt 0.425200 0.001777
vt 0.001777 0.425200
vt 0.001777 0.001777
vt 0.619762 0.428755
vt 0.807215 0.852178
vt 0.619762 0.852178
vt 0.681563 0.366862
vt 0.852178 0.425200
vt 0.428755 0.425200
vt 0.719858 0.351000
vt 0.752744 0.325766
vt 0.777977 0.292881
vt 0.793840 0.254585
vt 0.852178 0.001777
vt 0.799250 0.213489
vt 0.640467 0.372273
vt 0.599370 0.366862
vt 0.561075 0.351000
vt 0.528189 0.325766
vt 0.502956 0.292881
vt 0.487094 0.254585
vt 0.481683 0.213489
vt 0.428755 0.001777
vt 0.487094 0.172392
vt 0.502956 0.134097
vt 0.528189 0.101211
vt 0.561075 0.075979
vt 0.599370 0.060116
vt 0.640467 0.054705
vt 0.681563 0.060116
vt 0.719858 0.075979
vt 0.752744 0.101211
vt 0.777977 0.134097
vt 0.793840 0.172392
vt 0.810770 0.428755
vt 0.998223 0.852178
vt 0.810770 0.852178
vt 0.425200 0.425200
vt 0.001777 0.612653
vt 0.616208 0.428755
vt 0.807215 0.428755
vt 0.998223 0.428755
vt 0.425200 0.612653
vn 1.0000 0.0000 0.0000
vn 0.0000 -1.0000 -0.0000
vn 0.0000 -0.0000 1.0000
vn 0.0000 1.0000 0.0000
vn 0.0000 0.0000 -1.0000
vn -1.0000 0.0000 0.0000
s 1
f 2/1/1 4/2/1 1/3/1
f 1/4/2 6/5/2 2/6/2
f 1/7/3 7/8/3 5/9/3
f 8/10/4 7/11/4 4/12/4
f 9/13/4 7/11/4 8/10/4
f 10/14/4 7/11/4 9/13/4
f 11/15/4 7/11/4 10/14/4
f 12/16/4 7/11/4 11/15/4
f 7/11/4 12/16/4 13/17/4
f 13/17/4 12/16/4 14/18/4
f 8/10/4 4/12/4 15/19/4
f 15/19/4 4/12/4 16/20/4
f 16/20/4 4/12/4 17/21/4
f 17/21/4 4/12/4 18/22/4
f 18/22/4 4/12/4 19/23/4
f 19/23/4 4/12/4 20/24/4
f 20/24/4 4/12/4 21/25/4
f 3/26/4 21/25/4 4/12/4
f 3/26/4 22/27/4 21/25/4
f 3/26/4 23/28/4 22/27/4
f 3/26/4 24/29/4 23/28/4
f 3/26/4 25/30/4 24/29/4
f 3/26/4 26/31/4 25/30/4
f 3/26/4 27/32/4 26/31/4
f 3/26/4 28/33/4 27/32/4
f 13/17/4 28/33/4 3/26/4
f 28/33/4 13/17/4 29/34/4
f 29/34/4 13/17/4 30/35/4
f 30/35/4 13/17/4 31/36/4
f 31/36/4 13/17/4 32/37/4
f 32/37/4 13/17/4 14/18/4
f 6/38/5 3/39/5 2/40/5
f 5/41/6 13/42/6 6/5/6
f 2/1/1 3/43/1 4/2/1
f 1/4/2 5/41/2 6/5/2
f 1/7/3 4/44/3 7/8/3
f 6/38/5 13/45/5 3/39/5
f 5/41/6 7/46/6 13/42/6
f 21/25/4 29/34/4 9/13/4
f 9/13/4 8/10/4 17/21/4
f 8/10/4 15/19/4 17/21/4
f 15/19/4 16/20/4 17/21/4
f 17/21/4 18/22/4 19/23/4
f 19/23/4 20/24/4 21/25/4
f 21/25/4 22/27/4 23/28/4
f 23/28/4 24/29/4 25/30/4
f 25/30/4 26/31/4 27/32/4
f 27/32/4 28/33/4 25/30/4
f 28/33/4 29/34/4 25/30/4
f 29/34/4 30/35/4 31/36/4
f 31/36/4 32/37/4 14/18/4
f 14/18/4 12/16/4 9/13/4
f 12/16/4 11/15/4 9/13/4
f 11/15/4 10/14/4 9/13/4
f 17/21/4 19/23/4 9/13/4
f 19/23/4 21/25/4 9/13/4
f 21/25/4 23/28/4 29/34/4
f 23/28/4 25/30/4 29/34/4
f 29/34/4 31/36/4 14/18/4
f 29/34/4 14/18/4 9/13/4
