# Blender v2.92.0 OBJ File: 'kenney_OGConvert.blend'
# www.blender.org
o modularBuildings_047
v -0.000000 0.500000 -0.656250
v -0.000000 0.120000 -0.656250
v 0.100000 0.120000 -0.656250
v 0.100000 0.500000 -0.656250
v -0.000000 0.625000 -1.000000
v -0.000000 0.500000 -0.343750
v 0.000000 0.625000 0.000000
v 0.000000 0.000000 0.000000
v -0.000000 0.060000 -0.343750
v -0.000000 0.000000 -1.000000
v -0.000000 0.060000 -0.656250
v -0.050000 0.060000 -0.343750
v -0.050000 0.060000 -0.656250
v -0.000000 0.120000 -0.343750
v -0.050000 0.120000 -0.343750
v 0.100000 0.500000 -0.343750
v 0.100000 0.120000 -0.343750
v -0.050000 0.120000 -0.656250
v 1.000000 0.625000 -1.000000
v 1.000000 0.000000 -1.000000
v 1.000000 0.625000 -0.000000
v 1.000000 0.000000 -0.000000
vt 0.804175 0.268320
vt 0.766433 0.124902
vt 0.804175 0.124902
vt 0.250000 0.049497
vt 0.379737 0.002320
vt 0.250000 0.192916
vt 0.132057 0.049497
vt 0.002320 0.002320
vt 0.002319 0.238206
vt 0.132057 0.215561
vt 0.379737 0.238206
vt 0.250000 0.215561
vt 0.870066 0.365427
vt 0.851195 0.247484
vt 0.870066 0.247484
vt 0.766433 0.300243
vt 0.785304 0.322889
vt 0.766433 0.322889
vt 0.365427 0.620263
vt 0.365427 0.620263
vt 0.365427 0.620263
vt 0.808814 0.124902
vt 0.846556 0.268320
vt 0.808814 0.268320
vt 0.827685 0.002320
vt 0.865427 0.120263
vt 0.827685 0.120263
vt 0.804175 0.002320
vt 0.823046 0.120263
vt 0.804175 0.120263
vt 0.785304 0.295604
vt 0.766433 0.272959
vt 0.785304 0.272959
vt 0.860788 0.384376
vt 0.624902 0.761794
vt 0.624902 0.384376
vt 0.384377 0.002319
vt 0.761794 0.379737
vt 0.384376 0.379737
vt 0.620263 0.384377
vt 0.384376 0.761794
vt 0.384376 0.384376
vt 0.238206 0.620263
vt 0.002319 0.997680
vt 0.002319 0.620263
vt 0.379737 0.615624
vt 0.002319 0.615624
vt 0.873840 0.124902
vt 0.851195 0.242845
vt 0.851195 0.124902
vt 0.766433 0.268320
vt 0.851195 0.365427
vt 0.785304 0.300243
vt 0.846556 0.124902
vt 0.865427 0.002320
vt 0.766433 0.120263
vt 0.766433 0.002320
vt 0.823046 0.002320
vt 0.766433 0.295604
vt 0.860788 0.761794
vt 0.761794 0.002320
vt 0.620263 0.761794
vt 0.238206 0.997680
vt 0.873840 0.242845
vt 0.242845 0.620263
vt 0.360788 0.763681
vt 0.242845 0.763681
vt 0.360788 0.620263
vn 0.0000 0.0000 1.0000
vn -1.0000 0.0000 0.0000
vn 0.0000 -1.0000 -0.0000
vn -0.0000 1.0000 0.0000
vn 0.0000 0.0000 -1.0000
vn 1.0000 -0.0000 -0.0000
s 1
f 2/1/1 4/2/1 1/3/1
f 1/4/2 5/5/2 2/6/2
f 6/7/2 5/5/2 1/4/2
f 6/7/2 7/8/2 5/5/2
f 7/8/2 6/7/2 8/9/2
f 9/10/2 8/9/2 6/7/2
f 8/9/2 9/10/2 10/11/2
f 10/11/2 9/10/2 11/12/2
f 9/13/3 13/14/3 11/15/3
f 14/16/1 12/17/1 9/18/1
f 9/19/2 6/20/2 14/21/4
f 6/22/5 17/23/5 14/24/5
f 1/25/3 16/26/3 6/27/3
f 2/28/4 15/29/4 14/30/4
f 11/31/5 18/32/5 2/33/5
f 2/6/2 5/5/2 11/12/2
f 10/11/2 11/12/2 5/5/2
f 5/34/5 20/35/5 10/36/5
f 19/37/4 7/38/4 21/39/4
f 19/40/6 22/41/6 20/42/6
f 21/43/1 8/44/1 22/45/1
f 8/9/3 20/46/3 22/47/3
f 13/48/2 15/49/2 18/50/2
f 2/1/1 3/51/1 4/2/1
f 9/13/3 12/52/3 13/14/3
f 14/16/1 15/53/1 12/17/1
f 6/22/5 16/54/5 17/23/5
f 1/25/3 4/55/3 16/26/3
f 17/56/4 3/57/4 2/28/4
f 2/28/4 18/58/4 15/29/4
f 14/30/4 17/56/4 2/28/4
f 11/31/5 13/59/5 18/32/5
f 5/34/5 19/60/5 20/35/5
f 19/37/4 5/61/4 7/38/4
f 19/40/6 21/62/6 22/41/6
f 21/43/1 7/63/1 8/44/1
f 8/9/3 10/11/3 20/46/3
f 13/48/2 12/64/2 15/49/2
f 16/65/2 3/66/2 17/67/2
f 16/65/2 4/68/2 3/66/2
