# Blender v2.92.0 OBJ File: 'OGConvert.blend'
# www.blender.org
o modularBuildings_089
v 0.400000 4.000000 0.000000
v 0.400000 4.000000 -3.000000
v 0.000000 4.000000 -3.000000
v 0.000000 4.000000 0.000000
v 0.400000 3.618064 -0.381933
v 0.400000 0.381934 -0.381934
v 0.400000 0.000000 0.000000
v 0.400000 0.000000 -3.000000
v 0.000000 0.000000 0.000000
v 0.000000 0.000000 -3.000000
v 0.000000 3.618064 -0.381933
v 0.000000 3.618064 -2.618064
v 0.000000 0.381934 -2.618064
v 0.000000 0.381934 -0.381934
v 0.400000 1.710968 -0.381934
v 0.400000 1.329032 -0.381934
v 0.400000 0.381934 -2.618064
v 0.400000 1.329032 -2.618064
v 0.400000 1.710968 -2.618064
v 0.400000 3.618064 -2.618064
vt 0.120432 0.554491
vt 0.175231 0.965484
vt 0.120432 0.965484
vt 0.002167 0.550157
vt 0.054491 0.497833
vt 0.413160 0.550157
vt 0.054491 0.054491
vt 0.002167 0.002167
vt 0.413160 0.002167
vt 0.234364 0.965484
vt 0.179565 0.554491
vt 0.234364 0.554491
vt 0.832820 0.002167
vt 0.887619 0.550157
vt 0.832820 0.550157
vt 0.417493 0.002167
vt 0.469817 0.054491
vt 0.417493 0.550157
vt 0.828486 0.002167
vt 0.776162 0.054491
vt 0.776162 0.497833
vt 0.828486 0.550157
vt 0.469817 0.497833
vt 0.002167 0.997833
vt 0.002167 0.554491
vt 0.056966 0.815759
vt 0.417493 0.554491
vt 0.417493 0.554491
vt 0.417493 0.554491
vt 0.951085 0.445509
vt 0.951085 0.002167
vt 0.951085 0.131917
vt 0.293496 0.860836
vt 0.238697 0.554491
vt 0.293496 0.554491
vt 0.360835 0.054491
vt 0.360835 0.184241
vt 0.360835 0.236565
vt 0.360835 0.497833
vt 0.297830 0.554491
vt 0.352629 0.860836
vt 0.297830 0.860836
vt 0.061299 0.815759
vt 0.061299 0.554491
vt 0.116098 0.554491
vt 0.946751 0.550157
vt 0.891952 0.002167
vt 0.946752 0.002167
vt 0.175231 0.554491
vt 0.179565 0.965484
vt 0.887619 0.002167
vt 0.056966 0.554491
vt 0.056966 0.868083
vt 0.056966 0.997833
vt 0.238697 0.860836
vt 0.352629 0.554491
vt 0.061299 0.997833
vt 0.061299 0.868083
vt 0.116098 0.997833
vt 0.891952 0.550157
vn 0.0000 1.0000 0.0000
vn 1.0000 0.0000 0.0000
vn 0.0000 -1.0000 -0.0000
vn 0.0000 -0.0000 1.0000
vn -1.0000 0.0000 0.0000
vn -0.0000 0.0000 -1.0000
s 1
f 2/1/1 4/2/1 1/3/1
f 1/4/2 5/5/2 2/6/2
f 5/5/2 1/4/2 6/7/2
f 7/8/2 6/7/2 1/4/2
f 6/7/2 7/8/2 8/9/2
f 7/10/3 10/11/3 8/12/3
f 1/13/4 9/14/4 7/15/4
f 4/16/5 11/17/5 9/18/5
f 11/17/5 4/16/5 3/19/5
f 11/17/5 3/19/5 12/20/5
f 12/20/5 3/19/5 13/21/5
f 10/22/5 13/21/5 3/19/5
f 10/22/5 14/23/5 13/21/5
f 9/18/5 14/23/5 10/22/5
f 14/23/5 9/18/5 11/17/5
f 14/24/6 11/25/6 15/26/6
f 5/27/2 16/28/2 15/29/5
f 5/30/2 6/31/2 16/32/2
f 14/33/1 17/34/1 13/35/1
f 6/7/2 8/9/2 17/36/2
f 17/36/2 8/9/2 18/37/2
f 18/37/2 8/9/2 19/38/2
f 19/38/2 8/9/2 20/39/2
f 2/6/2 20/39/2 8/9/2
f 2/6/2 5/5/2 20/39/2
f 12/40/3 5/41/3 11/42/3
f 19/43/4 20/44/4 12/45/4
f 8/46/6 3/47/6 2/48/6
f 2/1/1 3/49/1 4/2/1
f 7/10/3 9/50/3 10/11/3
f 1/13/4 4/51/4 9/14/4
f 5/52/6 15/26/6 11/25/6
f 15/26/6 16/53/6 14/24/6
f 16/53/6 6/54/6 14/24/6
f 14/33/1 6/55/1 17/34/1
f 12/40/3 20/56/3 5/41/3
f 17/57/4 18/58/4 13/59/4
f 18/58/4 19/43/4 13/59/4
f 13/59/4 19/43/4 12/45/4
f 8/46/6 10/60/6 3/47/6
