# Blender v2.92.0 OBJ File: 'OGConvert.blend'
# www.blender.org
o modularBuildings_048
v 8.000000 0.000000 0.000000
v 0.000000 0.000000 0.000000
v 0.000000 0.000000 -8.000000
v 8.000000 0.000000 -8.000000
v 8.000000 5.000000 0.000000
v 0.000000 5.000000 0.000000
v 8.000000 5.000000 -8.000000
v 0.000000 5.000000 -8.000000
v 0.000000 0.960000 -5.250000
v 0.000000 0.960000 -2.750000
v 0.000000 4.000000 -2.750000
v 0.000000 4.000000 -5.250000
v 0.800000 0.960000 -5.250000
v 0.800000 4.000000 -5.250000
v 0.800000 0.960000 -2.750000
v 0.800000 4.000000 -2.750000
vt 0.002166 0.238198
vt 0.379818 0.615851
vt 0.002166 0.615851
vt 0.860546 0.384149
vt 0.624513 0.761802
vt 0.624513 0.384149
vt 0.620182 0.384149
vt 0.384149 0.761802
vt 0.384149 0.384149
vt 0.238198 0.620182
vt 0.002166 0.997834
vt 0.002166 0.620182
vt 0.379818 0.238198
vt 0.250000 0.192880
vt 0.379818 0.002166
vt 0.131984 0.192880
vt 0.131984 0.049372
vt 0.002166 0.002166
vt 0.761802 0.379818
vt 0.384149 0.002166
vt 0.761802 0.002166
vt 0.250000 0.049372
vt 0.803898 0.145674
vt 0.766133 0.002166
vt 0.803898 0.002166
vt 0.845995 0.120182
vt 0.808230 0.002166
vt 0.845995 0.002166
vt 0.766133 0.150005
vt 0.803898 0.293513
vt 0.766133 0.293513
vt 0.808229 0.124513
vt 0.845995 0.242530
vt 0.808229 0.242530
vt 0.860546 0.761802
vt 0.620182 0.761802
vt 0.238198 0.997834
vt 0.384149 0.379818
vt 0.766133 0.145674
vt 0.808230 0.120182
vt 0.803898 0.150005
vt 0.845995 0.124513
vt 0.242530 0.620182
vt 0.360546 0.763690
vt 0.242530 0.763690
vt 0.360546 0.620182
vn 0.0000 -1.0000 -0.0000
vn 0.0000 -0.0000 1.0000
vn 1.0000 0.0000 0.0000
vn 0.0000 0.0000 -1.0000
vn -1.0000 0.0000 0.0000
vn 0.0000 1.0000 0.0000
s 1
f 2/1/1 4/2/1 1/3/1
f 5/4/2 2/5/2 1/6/2
f 7/7/3 1/8/3 4/9/3
f 8/10/4 4/11/4 3/12/4
f 3/13/5 9/14/5 8/15/5
f 3/13/5 10/16/5 9/14/5
f 2/1/5 10/16/5 3/13/5
f 10/16/5 2/1/5 11/17/5
f 6/18/5 11/17/5 2/1/5
f 11/17/5 6/18/5 8/15/5
f 6/19/6 7/20/6 8/21/6
f 11/17/5 8/15/5 12/22/5
f 12/22/5 8/15/5 9/14/5
f 9/23/2 14/24/2 12/25/2
f 10/26/6 13/27/6 9/28/6
f 11/29/4 15/30/4 10/31/4
f 12/32/1 16/33/1 11/34/1
f 2/1/1 3/13/1 4/2/1
f 5/4/2 6/35/2 2/5/2
f 7/7/3 5/36/3 1/8/3
f 8/10/4 7/37/4 4/11/4
f 6/19/6 5/38/6 7/20/6
f 9/23/2 13/39/2 14/24/2
f 10/26/6 15/40/6 13/27/6
f 11/29/4 16/41/4 15/30/4
f 12/32/1 14/42/1 16/33/1
f 16/43/5 13/44/5 15/45/5
f 16/43/5 14/46/5 13/44/5
