# Blender v2.92.0 OBJ File: 'kenney_OGConvert.blend'
# www.blender.org
o modularBuildings_073
v 0.000000 0.000000 0.000000
v 0.000000 0.200000 0.000000
v -0.100000 0.200000 0.000000
v -0.100000 0.000000 0.000000
v -0.000000 0.000000 -0.310000
v -0.000000 0.200000 -0.310000
v -0.100000 0.000000 -0.310000
v -0.100000 0.027556 -0.193089
v -0.100000 0.035048 -0.175000
v -0.100000 0.046967 -0.159467
v -0.100000 0.062500 -0.147548
v -0.100000 0.080589 -0.140056
v -0.100000 0.100000 -0.137500
v -0.100000 0.119411 -0.140056
v -0.100000 0.137500 -0.147548
v -0.100000 0.153033 -0.159467
v -0.100000 0.164952 -0.175000
v -0.100000 0.172444 -0.193089
v -0.100000 0.200000 -0.310000
v -0.100000 0.100000 -0.287500
v -0.100000 0.080589 -0.284944
v -0.100000 0.062500 -0.277452
v -0.100000 0.046967 -0.265533
v -0.100000 0.035048 -0.250000
v -0.100000 0.027556 -0.231911
v -0.100000 0.025000 -0.212500
v -0.100000 0.175000 -0.212500
v -0.100000 0.172444 -0.231911
v -0.100000 0.164952 -0.250000
v -0.100000 0.153033 -0.265533
v -0.100000 0.137500 -0.277452
v -0.100000 0.119411 -0.284944
vt 0.333953 0.514558
vt 0.498140 0.842931
vt 0.333953 0.842931
vt 0.001860 0.001860
vt 0.330233 0.510838
vt 0.001860 0.510838
vt 0.998140 0.510838
vt 0.833953 0.001860
vt 0.998140 0.001860
vt 0.662326 0.510838
vt 0.617084 0.193812
vt 0.662326 0.001860
vt 0.604782 0.223512
vt 0.585213 0.249015
vt 0.559710 0.268584
vt 0.530011 0.280885
vt 0.498140 0.285082
vt 0.466270 0.280885
vt 0.436570 0.268584
vt 0.411067 0.249015
vt 0.333953 0.510838
vt 0.391497 0.223512
vt 0.379197 0.193812
vt 0.333953 0.001860
vt 0.666047 0.001860
vt 0.830233 0.510838
vt 0.666047 0.510838
vt 0.166047 0.842931
vt 0.001860 0.514558
vt 0.166047 0.514558
vt 0.498140 0.038802
vt 0.530011 0.042999
vt 0.559710 0.055300
vt 0.585213 0.074869
vt 0.604782 0.100372
vt 0.617084 0.130072
vt 0.621280 0.161942
vt 0.375000 0.161942
vt 0.379197 0.130072
vt 0.391497 0.100372
vt 0.411067 0.074869
vt 0.436570 0.055300
vt 0.466270 0.042999
vt 0.498140 0.514558
vt 0.330233 0.001860
vt 0.833953 0.510838
vt 0.830233 0.001860
vt 0.001860 0.842931
vn 0.0000 -0.0000 1.0000
vn 1.0000 0.0000 -0.0000
vn -0.0000 -1.0000 -0.0000
vn -1.0000 -0.0000 0.0000
vn 0.0000 1.0000 -0.0000
vn -0.0000 0.0000 -1.0000
s 1
f 2/1/1 4/2/1 1/3/1
f 5/4/2 2/5/2 1/6/2
f 1/7/3 7/8/3 5/9/3
f 4/10/4 8/11/4 7/12/4
f 8/11/4 4/10/4 9/13/4
f 9/13/4 4/10/4 10/14/4
f 10/14/4 4/10/4 11/15/4
f 11/15/4 4/10/4 12/16/4
f 12/16/4 4/10/4 13/17/4
f 4/10/4 14/18/4 13/17/4
f 4/10/4 15/19/4 14/18/4
f 4/10/4 16/20/4 15/19/4
f 3/21/4 16/20/4 4/10/4
f 16/20/4 3/21/4 17/22/4
f 17/22/4 3/21/4 18/23/4
f 18/23/4 3/21/4 19/24/4
f 6/25/5 3/26/5 2/27/5
f 5/28/6 19/29/6 6/30/6
f 7/12/4 20/31/4 19/24/4
f 7/12/4 21/32/4 20/31/4
f 7/12/4 22/33/4 21/32/4
f 7/12/4 23/34/4 22/33/4
f 7/12/4 24/35/4 23/34/4
f 7/12/4 25/36/4 24/35/4
f 7/12/4 26/37/4 25/36/4
f 7/12/4 8/11/4 26/37/4
f 18/23/4 19/24/4 27/38/4
f 27/38/4 19/24/4 28/39/4
f 28/39/4 19/24/4 29/40/4
f 29/40/4 19/24/4 30/41/4
f 30/41/4 19/24/4 31/42/4
f 31/42/4 19/24/4 32/43/4
f 32/43/4 19/24/4 20/31/4
f 2/1/1 3/44/1 4/2/1
f 5/4/2 6/45/2 2/5/2
f 1/7/3 4/46/3 7/8/3
f 6/25/5 19/47/5 3/26/5
f 5/28/6 7/48/6 19/29/6
f 31/42/4 22/33/4 26/37/4
f 26/37/4 8/11/4 11/15/4
f 8/11/4 9/13/4 11/15/4
f 9/13/4 10/14/4 11/15/4
f 11/15/4 12/16/4 13/17/4
f 13/17/4 14/18/4 11/15/4
f 14/18/4 15/19/4 11/15/4
f 15/19/4 16/20/4 17/22/4
f 17/22/4 18/23/4 15/19/4
f 18/23/4 27/38/4 15/19/4
f 27/38/4 28/39/4 31/42/4
f 28/39/4 29/40/4 31/42/4
f 29/40/4 30/41/4 31/42/4
f 31/42/4 32/43/4 22/33/4
f 32/43/4 20/31/4 22/33/4
f 20/31/4 21/32/4 22/33/4
f 22/33/4 23/34/4 24/35/4
f 24/35/4 25/36/4 22/33/4
f 25/36/4 26/37/4 22/33/4
f 26/37/4 11/15/4 15/19/4
f 15/19/4 27/38/4 26/37/4
f 27/38/4 31/42/4 26/37/4
