# Blender v2.92.0 OBJ File: 'OGConvert.blend'
# www.blender.org
o modularBuildings_040
v 0.800000 0.960000 -1.000000
v 0.000000 0.960000 -1.000000
v 0.000000 4.000000 -1.000000
v 0.800000 4.000000 -1.000000
v 0.800000 0.960000 -7.000000
v 0.000000 0.960000 -7.000000
v 0.800000 4.000000 -7.000000
v 0.000000 4.000000 -7.000000
v 0.000000 5.000000 -8.000000
v 0.000000 5.000000 0.000000
v 0.000000 0.000000 0.000000
v 0.000000 0.000000 -8.000000
v 8.000000 5.000000 -8.000000
v 8.000000 0.000000 -8.000000
v 8.000000 5.000000 0.000000
v 8.000000 0.000000 0.000000
vt 0.285185 0.763682
vt 0.322928 0.620257
vt 0.322928 0.763682
vt 0.865390 0.384361
vt 0.903133 0.667436
vt 0.865390 0.667436
vt 0.365290 0.763682
vt 0.327547 0.620257
vt 0.365290 0.620257
vt 0.049488 0.568460
vt 0.002309 0.615639
vt 0.049488 0.425035
vt 0.332564 0.568460
vt 0.379743 0.615639
vt 0.379743 0.379743
vt 0.332564 0.425035
vt 0.002309 0.379743
vt 0.860772 0.384361
vt 0.624875 0.761795
vt 0.624875 0.384361
vt 0.761795 0.379743
vt 0.384361 0.002309
vt 0.761795 0.002309
vt 0.238205 0.620257
vt 0.002309 0.997691
vt 0.002309 0.620257
vt 0.620257 0.384361
vt 0.384361 0.761795
vt 0.384361 0.384361
vt 0.002309 0.002309
vt 0.379743 0.002309
vt 0.280567 0.620257
vt 0.242823 0.903332
vt 0.242823 0.620257
vt 0.285185 0.620257
vt 0.903133 0.384361
vt 0.327547 0.763682
vt 0.860772 0.761795
vt 0.384361 0.379743
vt 0.238205 0.997691
vt 0.620257 0.761795
vt 0.280567 0.903332
vt 0.909838 0.002309
vt 0.766413 0.285384
vt 0.766413 0.002309
vt 0.909838 0.285384
vn 0.0000 0.0000 -1.0000
vn 0.0000 1.0000 0.0000
vn 0.0000 0.0000 1.0000
vn -1.0000 -0.0000 -0.0000
vn 1.0000 0.0000 0.0000
vn 0.0000 -1.0000 -0.0000
s 1
f 2/1/1 4/2/1 1/3/1
f 5/4/2 2/5/2 1/6/2
f 6/7/3 7/8/3 8/9/3
f 8/10/4 9/11/4 6/12/4
f 3/13/4 9/11/4 8/10/4
f 3/13/4 10/14/4 9/11/4
f 10/14/4 3/13/4 11/15/4
f 2/16/4 11/15/4 3/13/4
f 11/15/4 2/16/4 12/17/4
f 12/17/4 2/16/4 6/12/4
f 12/17/4 6/12/4 9/11/4
f 9/18/1 14/19/1 12/20/1
f 10/21/2 13/22/2 9/23/2
f 15/24/3 11/25/3 16/26/3
f 13/27/5 16/28/5 14/29/5
f 11/15/6 14/30/6 16/31/6
f 7/32/6 3/33/6 8/34/6
f 2/1/1 3/35/1 4/2/1
f 5/4/2 6/36/2 2/5/2
f 6/7/3 5/37/3 7/8/3
f 9/18/1 13/38/1 14/19/1
f 10/21/2 15/39/2 13/22/2
f 15/24/3 10/40/3 11/25/3
f 13/27/5 15/41/5 16/28/5
f 11/15/6 12/17/6 14/30/6
f 7/32/6 4/42/6 3/33/6
f 5/43/4 4/44/4 7/45/4
f 5/43/4 1/46/4 4/44/4
