# Blender v2.92.0 OBJ File: 'OGConvert.blend'
# www.blender.org
o modularBuildings_056
v 0.000000 0.000000 -8.000000
v 0.000000 0.000000 -4.000000
v 0.000000 5.000000 -4.000000
v 0.000000 5.000000 -8.000000
v 8.000000 0.000000 0.000000
v 4.000000 0.000000 0.000000
v 8.000000 0.000000 -8.000000
v 4.000000 5.000000 0.000000
v 8.000000 5.000000 0.000000
v 8.000000 5.000000 -8.000000
vt 0.723664 0.719338
vt 0.943003 0.445165
vt 0.943003 0.719338
vt 0.002163 0.221501
vt 0.002163 0.002163
vt 0.440839 0.002163
vt 0.719338 0.221501
vt 0.445166 0.440839
vt 0.445166 0.221501
vt 0.445165 0.002163
vt 0.440839 0.664504
vt 0.440839 0.883842
vt 0.002163 0.883842
vt 0.719338 0.445166
vt 0.445165 0.883842
vt 0.445166 0.445166
vt 0.997837 0.002163
vt 0.723664 0.440839
vt 0.723664 0.002163
vt 0.723664 0.445165
vt 0.440839 0.440839
vt 0.221501 0.440839
vt 0.719338 0.440839
vt 0.719338 0.002163
vt 0.002163 0.445165
vt 0.221501 0.445165
vt 0.719338 0.883842
vt 0.997837 0.440839
vn -1.0000 0.0000 -0.0000
vn 0.0000 -1.0000 -0.0000
vn 0.0000 -0.0000 1.0000
vn -0.7071 -0.0000 0.7071
vn -0.0000 1.0000 0.0000
vn 1.0000 0.0000 0.0000
vn 0.0000 0.0000 -1.0000
s 1
f 2/1/1 4/2/1 1/3/1
f 2/4/2 1/5/2 7/6/2
f 6/7/3 9/8/3 8/9/3
f 3/10/4 6/7/4 8/9/4
f 8/11/5 9/12/5 10/13/5
f 10/14/6 5/15/6 7/16/6
f 4/17/7 7/18/7 1/19/7
f 2/1/1 3/20/1 4/2/1
f 7/6/2 5/21/2 6/22/2
f 6/22/2 2/4/2 7/6/2
f 6/7/3 5/23/3 9/8/3
f 3/10/4 2/24/4 6/7/4
f 10/13/5 4/25/5 3/26/5
f 3/26/5 8/11/5 10/13/5
f 10/14/6 9/27/6 5/15/6
f 4/17/7 10/28/7 7/18/7
