# Blender v2.92.0 OBJ File: 'kenney_OGConvert.blend'
# www.blender.org
o modularBuildings_010
v -0.223075 0.027737 -1.000000
v -0.225000 0.000000 -1.000000
v -0.225000 0.000000 -0.800000
v -0.223075 0.027737 -0.800000
v -0.000000 0.212500 -1.000000
v -0.000000 0.000000 -1.000000
v -0.217333 0.054999 -1.000000
v -0.207873 0.081320 -1.000000
v -0.194856 0.106250 -1.000000
v -0.178505 0.129362 -1.000000
v -0.159099 0.150260 -1.000000
v -0.136971 0.168588 -1.000000
v -0.112500 0.184030 -1.000000
v -0.086104 0.196324 -1.000000
v -0.058234 0.205259 -1.000000
v -0.029369 0.210682 -1.000000
v 1.000000 0.212500 -1.000000
v 1.000000 0.000000 -1.000000
v 1.000000 0.212500 -0.000000
v 1.000000 0.000000 -0.000000
v 0.000000 0.212500 0.000000
v 0.000000 0.000000 0.000000
v -0.000000 0.212500 -0.600000
v -0.000000 0.212500 -0.400000
v -0.000000 0.212500 -0.200000
v -0.000000 0.000000 -0.200000
v -0.000000 0.000000 -0.400000
v -0.000000 0.000000 -0.600000
v -0.000000 0.000000 -0.800000
v -0.000000 0.212500 -0.800000
v -0.029369 0.210682 -0.800000
v -0.058234 0.205259 -0.800000
v -0.086104 0.196324 -0.800000
v -0.112500 0.184030 -0.800000
v -0.136971 0.168588 -0.800000
v -0.159099 0.150260 -0.800000
v -0.178505 0.129362 -0.800000
v -0.194856 0.106250 -0.800000
v -0.207873 0.081320 -0.800000
v -0.217333 0.054999 -0.800000
v -0.217333 0.054999 -0.600000
v -0.223075 0.027737 -0.600000
v -0.207873 0.081320 -0.600000
v -0.194856 0.106250 -0.600000
v -0.178505 0.129362 -0.600000
v -0.159099 0.150260 -0.600000
v -0.136971 0.168588 -0.600000
v -0.112500 0.184030 -0.600000
v -0.086104 0.196324 -0.600000
v -0.058234 0.205259 -0.600000
v -0.029369 0.210682 -0.600000
v -0.029368 0.210682 -0.400000
v -0.058234 0.205259 -0.400000
v -0.086104 0.196324 -0.400000
v -0.112500 0.184030 -0.400000
v -0.136971 0.168588 -0.400000
v -0.159099 0.150260 -0.400000
v -0.178505 0.129362 -0.400000
v -0.194856 0.106250 -0.400000
v -0.207873 0.081320 -0.400000
v -0.217333 0.054999 -0.400000
v -0.223075 0.027737 -0.400000
v -0.225000 0.000000 -0.600000
v -0.225000 0.000000 -0.400000
v -0.225000 0.000000 -0.200000
v -0.225000 0.000000 0.000000
v -0.223075 0.027737 -0.200000
v -0.223075 0.027737 0.000000
v -0.029368 0.210682 0.000000
v -0.058234 0.205259 0.000000
v -0.086104 0.196324 0.000000
v -0.112500 0.184030 0.000000
v -0.136971 0.168588 0.000000
v -0.159099 0.150260 0.000000
v -0.178505 0.129362 0.000000
v -0.194856 0.106250 0.000000
v -0.207873 0.081320 0.000000
v -0.217333 0.054999 0.000000
v -0.029368 0.210682 -0.200000
v -0.058234 0.205259 -0.200000
v -0.086104 0.196324 -0.200000
v -0.112500 0.184030 -0.200000
v -0.136971 0.168588 -0.200000
v -0.159099 0.150260 -0.200000
v -0.178505 0.129362 -0.200000
v -0.194856 0.106250 -0.200000
v -0.207873 0.081320 -0.200000
v -0.217333 0.054999 -0.200000
vt 0.777473 0.480993
vt 0.766176 0.565417
vt 0.766176 0.480993
vt 0.849965 0.417333
vt 0.765540 0.405261
vt 0.849965 0.405261
vt 0.849965 0.429651
vt 0.765540 0.417333
vt 0.849965 0.442004
vt 0.765540 0.429651
vt 0.849965 0.454182
vt 0.765540 0.442004
vt 0.849965 0.465974
vt 0.765540 0.454182
vt 0.849965 0.477181
vt 0.765540 0.465974
vt 0.719446 0.480993
vt 0.708380 0.565417
vt 0.708380 0.480993
vt 0.730958 0.480993
vt 0.719446 0.565417
vt 0.742718 0.480993
vt 0.730958 0.565417
vt 0.754524 0.480993
vt 0.742718 0.565417
vt 0.754524 0.565417
vt 0.596691 0.417333
vt 0.681115 0.405261
vt 0.681115 0.417333
vt 0.596691 0.429651
vt 0.681115 0.429651
vt 0.596691 0.442004
vt 0.681115 0.442004
vt 0.596691 0.454182
vt 0.681115 0.454182
vt 0.596691 0.465974
vt 0.681115 0.465974
vt 0.596691 0.477181
vt 0.681115 0.477181
vt 0.719446 0.734267
vt 0.708380 0.649842
vt 0.719446 0.649842
vt 0.730958 0.734267
vt 0.730958 0.649842
vt 0.742718 0.734267
vt 0.742718 0.649842
vt 0.754524 0.734267
vt 0.754524 0.649842
vt 0.766176 0.734267
vt 0.766176 0.649842
vt 0.777473 0.734267
vt 0.777473 0.649842
vt 0.170755 0.096884
vt 0.255180 0.001906
vt 0.255180 0.096884
vt 0.086331 0.096884
vt 0.001906 0.001906
vt 0.086331 0.001906
vt 0.777473 0.818692
vt 0.766176 0.903116
vt 0.766176 0.818692
vt 0.920261 0.005142
vt 0.931769 0.002718
vt 0.943478 0.096884
vt 0.512266 0.417333
vt 0.427841 0.405261
vt 0.512266 0.405261
vt 0.512266 0.429651
vt 0.427841 0.417333
vt 0.512266 0.442004
vt 0.427841 0.429651
vt 0.512266 0.454182
vt 0.427841 0.442004
vt 0.512266 0.465974
vt 0.427841 0.454182
vt 0.512266 0.477181
vt 0.427841 0.465974
vt 0.719446 0.818692
vt 0.708380 0.903116
vt 0.708380 0.818692
vt 0.730958 0.818692
vt 0.719446 0.903116
vt 0.742718 0.818692
vt 0.730958 0.903116
vt 0.754524 0.818692
vt 0.742718 0.903116
vt 0.754524 0.903116
vt 0.424030 0.096884
vt 0.339605 0.001906
vt 0.424030 0.001906
vt 0.777473 0.565417
vt 0.765540 0.477181
vt 0.596691 0.405261
vt 0.708380 0.734267
vt 0.170755 0.001906
vt 0.001906 0.096884
vt 0.777473 0.903116
vt 0.943478 0.001906
vt 0.853777 0.096884
vt 0.854544 0.084487
vt 0.856833 0.072302
vt 0.860605 0.060537
vt 0.865794 0.049395
vt 0.872313 0.039065
vt 0.880049 0.029724
vt 0.888871 0.021532
vt 0.898627 0.014630
vt 0.909151 0.009136
vt 0.427841 0.477181
vt 0.339605 0.096884
vt 0.514486 0.551389
vt 0.516775 0.563573
vt 0.427841 0.575971
vt 0.614867 0.649842
vt 0.704568 0.649842
vt 0.614867 0.734267
vt 0.517542 0.575971
vt 0.427841 0.480993
vt 0.439550 0.481805
vt 0.451058 0.484229
vt 0.462168 0.488222
vt 0.472692 0.493717
vt 0.482448 0.500619
vt 0.491269 0.508811
vt 0.499006 0.518152
vt 0.505525 0.528482
vt 0.510714 0.539624
vt 0.704568 0.565417
vt 0.704568 0.734267
vt 0.614867 0.818692
vt 0.704568 0.818692
vt 0.704568 0.903116
vt 0.614867 0.903116
vt 0.704568 0.480993
vt 0.614867 0.565417
vt 0.614867 0.480993
vt 0.427841 0.998094
vt 0.517542 0.998094
vt 0.521354 0.903116
vt 0.611055 0.480993
vt 0.611055 0.903116
vt 0.853777 0.519007
vt 0.849965 0.001906
vt 0.424030 0.519007
vt 0.521354 0.480993
vt 0.943478 0.519007
vt 0.427841 0.001906
vt 0.001906 0.519007
vn -0.9976 0.0692 0.0000
vn -0.9904 0.1380 0.0000
vn -0.1234 0.9924 0.0000
vn -0.0618 0.9981 0.0000
vn -0.2454 0.9694 0.0000
vn -0.3645 0.9312 0.0000
vn -0.4789 0.8779 0.0000
vn -0.5870 0.8096 0.0000
vn -0.6868 0.7269 0.0000
vn -0.7763 0.6304 0.0000
vn -0.8533 0.5214 0.0000
vn -0.9159 0.4015 0.0000
vn -0.9621 0.2728 0.0000
vn -0.0000 -1.0000 -0.0000
vn 0.0000 -0.0000 1.0000
vn -0.6868 0.7268 0.0000
vn 0.0000 0.0000 -1.0000
vn 1.0000 0.0000 -0.0000
vn -0.0000 1.0000 0.0000
s 1
f 2/1/1 4/2/2 1/3/2
f 16/4/3 30/5/4 5/6/4
f 15/7/5 31/8/3 16/4/3
f 14/9/6 32/10/5 15/7/5
f 13/11/7 33/12/6 14/9/6
f 12/13/8 34/14/7 13/11/7
f 11/15/9 35/16/8 12/13/8
f 10/17/10 36/18/9 11/19/9
f 9/20/11 37/21/10 10/17/10
f 8/22/12 38/23/11 9/20/11
f 7/24/13 39/25/12 8/22/12
f 1/3/2 40/26/13 7/24/13
f 52/27/3 23/28/4 51/29/3
f 53/30/5 51/29/3 50/31/5
f 54/32/6 50/31/5 49/33/6
f 55/34/7 49/33/6 48/35/7
f 56/36/8 48/35/7 47/37/8
f 57/38/9 47/37/8 46/39/9
f 58/40/10 46/41/9 45/42/10
f 59/43/11 45/42/10 44/44/11
f 60/45/12 44/44/11 43/46/12
f 61/47/13 43/46/12 41/48/13
f 62/49/2 41/48/13 42/50/2
f 64/51/1 42/50/2 63/52/1
f 27/53/14 63/54/14 28/55/14
f 26/56/14 66/57/14 65/58/14
f 65/59/1 68/60/2 67/61/2
f 78/62/15 68/63/15 22/64/15
f 79/65/3 21/66/4 25/67/4
f 80/68/5 69/69/3 79/65/3
f 81/70/6 70/71/5 80/68/5
f 82/72/7 71/73/6 81/70/6
f 83/74/8 72/75/7 82/72/7
f 84/76/9 73/77/8 83/74/8
f 85/78/10 74/79/16 84/80/9
f 86/81/11 75/82/10 85/78/10
f 87/83/12 76/84/11 86/81/11
f 88/85/13 77/86/12 87/83/12
f 67/61/2 78/87/13 88/85/13
f 6/88/14 3/89/14 2/90/14
f 2/1/1 3/91/1 4/2/2
f 16/4/3 31/8/3 30/5/4
f 15/7/5 32/10/5 31/8/3
f 14/9/6 33/12/6 32/10/5
f 13/11/7 34/14/7 33/12/6
f 12/13/8 35/16/8 34/14/7
f 11/15/9 36/92/9 35/16/8
f 10/17/10 37/21/10 36/18/9
f 9/20/11 38/23/11 37/21/10
f 8/22/12 39/25/12 38/23/11
f 7/24/13 40/26/13 39/25/12
f 1/3/2 4/2/2 40/26/13
f 52/27/3 24/93/4 23/28/4
f 53/30/5 52/27/3 51/29/3
f 54/32/6 53/30/5 50/31/5
f 55/34/7 54/32/6 49/33/6
f 56/36/8 55/34/7 48/35/7
f 57/38/9 56/36/8 47/37/8
f 58/40/10 57/94/9 46/41/9
f 59/43/11 58/40/10 45/42/10
f 60/45/12 59/43/11 44/44/11
f 61/47/13 60/45/12 43/46/12
f 62/49/2 61/47/13 41/48/13
f 64/51/1 62/49/2 42/50/2
f 27/53/14 64/95/14 63/54/14
f 26/56/14 22/96/14 66/57/14
f 65/59/1 66/97/1 68/60/2
f 66/98/15 22/64/15 68/63/15
f 22/64/15 21/99/15 69/100/15
f 70/101/15 22/64/15 69/100/15
f 70/101/15 71/102/15 22/64/15
f 71/102/15 72/103/15 22/64/15
f 72/103/15 73/104/15 22/64/15
f 73/104/15 74/105/15 22/64/15
f 74/105/15 75/106/15 22/64/15
f 75/106/15 76/107/15 22/64/15
f 76/107/15 77/108/15 22/64/15
f 77/108/15 78/62/15 22/64/15
f 79/65/3 69/69/3 21/66/4
f 80/68/5 70/71/5 69/69/3
f 81/70/6 71/73/6 70/71/5
f 82/72/7 72/75/7 71/73/6
f 83/74/8 73/77/8 72/75/7
f 84/76/9 74/109/16 73/77/8
f 85/78/10 75/82/10 74/79/16
f 86/81/11 76/84/11 75/82/10
f 87/83/12 77/86/12 76/84/11
f 88/85/13 78/87/13 77/86/12
f 67/61/2 68/60/2 78/87/13
f 6/88/14 29/110/14 3/89/14
f 15/111/17 16/112/17 6/113/17
f 28/114/18 23/115/18 27/116/18
f 40/26/13 42/50/2 41/48/13
f 39/25/12 41/48/13 43/46/12
f 38/23/11 43/46/12 44/44/11
f 37/21/10 44/44/11 45/42/10
f 36/18/9 45/42/10 46/41/9
f 35/16/8 46/39/9 47/37/8
f 34/14/7 47/37/8 48/35/7
f 33/12/6 48/35/7 49/33/6
f 32/10/5 49/33/6 50/31/5
f 31/8/3 50/31/5 51/29/3
f 30/5/4 51/29/3 23/28/4
f 65/58/14 27/53/14 26/56/14
f 67/61/2 64/51/1 65/59/1
f 25/67/4 52/27/3 79/65/3
f 79/65/3 53/30/5 80/68/5
f 80/68/5 54/32/6 81/70/6
f 81/70/6 55/34/7 82/72/7
f 82/72/7 56/36/8 83/74/8
f 83/74/8 57/38/9 84/76/9
f 84/80/9 58/40/10 85/78/10
f 85/78/10 59/43/11 86/81/11
f 86/81/11 60/45/12 87/83/12
f 87/83/12 61/47/13 88/85/13
f 88/85/13 62/49/2 67/61/2
f 3/89/14 28/55/14 63/54/14
f 4/2/2 63/52/1 42/50/2
f 16/112/17 5/117/17 6/113/17
f 6/113/17 2/118/17 1/119/17
f 1/119/17 7/120/17 6/113/17
f 7/120/17 8/121/17 6/113/17
f 8/121/17 9/122/17 6/113/17
f 9/122/17 10/123/17 6/113/17
f 10/123/17 11/124/17 6/113/17
f 11/124/17 12/125/17 6/113/17
f 12/125/17 13/126/17 6/113/17
f 13/126/17 14/127/17 6/113/17
f 14/127/17 15/111/17 6/113/17
f 30/128/18 23/115/18 28/114/18
f 23/115/18 24/129/18 27/116/18
f 26/130/18 24/129/18 25/131/18
f 25/131/18 21/132/18 22/133/18
f 5/134/18 30/128/18 29/135/18
f 24/129/18 26/130/18 27/116/18
f 25/131/18 22/133/18 26/130/18
f 28/114/18 29/135/18 30/128/18
f 29/135/18 6/136/18 5/134/18
f 40/26/13 4/2/2 42/50/2
f 39/25/12 40/26/13 41/48/13
f 38/23/11 39/25/12 43/46/12
f 37/21/10 38/23/11 44/44/11
f 36/18/9 37/21/10 45/42/10
f 35/16/8 36/92/9 46/39/9
f 34/14/7 35/16/8 47/37/8
f 33/12/6 34/14/7 48/35/7
f 32/10/5 33/12/6 49/33/6
f 31/8/3 32/10/5 50/31/5
f 30/5/4 31/8/3 51/29/3
f 65/58/14 64/95/14 27/53/14
f 67/61/2 62/49/2 64/51/1
f 25/67/4 24/93/4 52/27/3
f 79/65/3 52/27/3 53/30/5
f 80/68/5 53/30/5 54/32/6
f 81/70/6 54/32/6 55/34/7
f 82/72/7 55/34/7 56/36/8
f 83/74/8 56/36/8 57/38/9
f 84/80/9 57/94/9 58/40/10
f 85/78/10 58/40/10 59/43/11
f 86/81/11 59/43/11 60/45/12
f 87/83/12 60/45/12 61/47/13
f 88/85/13 61/47/13 62/49/2
f 3/89/14 29/110/14 28/55/14
f 4/2/2 3/91/1 63/52/1
f 18/137/17 5/117/17 17/138/17
f 20/139/18 17/140/18 19/141/18
f 22/64/15 19/142/15 21/99/15
f 17/143/19 30/5/19 23/28/19
f 27/53/14 28/55/14 18/144/14
f 18/137/17 6/113/17 5/117/17
f 20/139/18 18/145/18 17/140/18
f 22/64/15 20/146/15 19/142/15
f 21/66/19 19/147/19 25/67/19
f 19/147/19 17/143/19 24/93/19
f 25/67/19 19/147/19 24/93/19
f 17/143/19 5/6/19 30/5/19
f 23/28/19 24/93/19 17/143/19
f 29/110/14 6/88/14 18/144/14
f 18/144/14 20/148/14 27/53/14
f 20/148/14 22/96/14 26/56/14
f 26/56/14 27/53/14 20/148/14
f 28/55/14 29/110/14 18/144/14
