# Blender v2.92.0 OBJ File: 'OGConvert.blend'
# www.blender.org
o modularBuildings_044
v 8.000000 0.000000 0.000000
v 8.000000 3.750000 0.000000
v 0.000000 0.000000 0.000000
v 8.000000 0.000000 -8.000000
v 8.000000 3.750000 -8.000000
v 8.000000 4.150001 -8.000000
v 8.000000 4.150000 0.000000
v -0.000000 0.000000 -8.000000
v -0.000000 0.587500 0.000000
v -0.000000 0.587500 -8.000000
v -0.000000 0.587500 -8.170960
v 0.000000 0.587500 0.170995
v -0.000000 4.150000 -4.000000
v 0.311573 0.733550 -8.000000
v 7.600000 4.150000 -4.000000
v 0.311572 0.733550 0.000000
v 7.600000 4.150000 0.000000
v 7.600000 4.150001 -8.000000
vt 0.001962 0.433676
vt 0.185872 0.433676
vt 0.001962 0.826017
vt 0.806359 0.398228
vt 0.825976 0.790569
vt 0.806359 0.790569
vt 0.794511 0.394303
vt 0.794511 0.001962
vt 0.978421 0.394303
vt 0.414998 0.394303
vt 0.790586 0.001962
vt 0.790586 0.394303
vt 0.443811 0.798955
vt 0.443811 0.406614
vt 0.618525 0.602784
vt 0.622449 0.790569
vt 0.622450 0.398228
vt 0.825976 0.398228
vt 0.414998 0.001962
vt 0.443811 0.807339
vt 0.443811 0.398228
vt 0.414998 0.406614
vt 0.228325 0.433676
vt 0.228325 0.452361
vt 0.220832 0.437438
vt 0.010347 0.018739
vt 0.206517 0.058591
vt 0.206517 0.411194
vt 0.402688 0.018739
vt 0.411074 0.001962
vt 0.402688 0.411194
vt 0.402688 0.429752
vt 0.010347 0.429752
vt 0.010347 0.411194
vt 0.830486 0.017243
vt 0.998038 0.374686
vt 0.037937 0.810737
vt 0.209414 0.433676
vt 0.216908 0.437440
vt 0.209414 0.452362
vt 0.414998 0.798955
vt 0.001962 0.001962
vt 0.998038 0.394303
vt 0.823323 0.001962
vt 0.205489 0.433676
vt 0.205489 0.453293
vt 0.030775 0.826017
vt 0.010347 0.001962
vt 0.402688 0.001962
vn 0.0000 -0.0000 1.0000
vn 1.0000 0.0000 0.0000
vn 0.0000 0.0000 -1.0000
vn 0.0000 -1.0000 -0.0000
vn -1.0000 -0.0000 0.0000
vn 0.4244 -0.9055 0.0000
vn -0.0000 0.7604 -0.6495
vn -0.0000 0.7604 0.6495
vn -0.4244 0.9055 0.0000
vn -0.0000 1.0000 0.0000
vn -0.0001 0.7604 -0.6495
s 1
f 1/1/1 2/2/1 3/3/1
f 5/4/2 7/5/2 2/6/2
f 4/7/3 8/8/3 5/9/3
f 3/10/4 4/11/4 1/12/4
f 10/13/5 9/14/5 13/15/5
f 1/16/2 4/17/2 5/4/2
f 5/4/2 6/18/2 7/5/2
f 2/6/2 1/16/2 5/4/2
f 3/10/4 8/19/4 4/11/4
f 13/15/5 11/20/5 10/13/5
f 9/14/5 12/21/5 13/15/5
f 10/13/5 3/22/5 9/14/5
f 11/23/6 14/24/6 10/25/6
f 14/26/7 13/27/7 15/28/7
f 16/29/8 13/27/8 12/30/8
f 17/31/9 15/28/9 16/29/9
f 15/28/10 7/32/10 6/33/10
f 18/34/9 14/26/9 15/28/9
f 14/35/3 18/36/3 5/9/3
f 3/3/1 2/2/1 16/37/1
f 12/38/6 9/39/6 16/40/6
f 10/13/5 8/41/5 3/22/5
f 14/26/7 11/42/11 13/27/7
f 16/29/8 15/28/8 13/27/8
f 6/33/10 18/34/10 15/28/10
f 15/28/10 17/31/10 7/32/10
f 6/43/3 5/9/3 18/36/3
f 5/9/3 8/8/3 14/35/3
f 8/8/3 10/44/3 14/35/3
f 7/45/1 17/46/1 2/2/1
f 17/46/1 16/37/1 2/2/1
f 16/37/1 9/47/1 3/3/1
f 16/29/9 14/26/9 10/48/9
f 10/48/9 9/49/9 16/29/9
f 16/29/9 15/28/9 14/26/9
