# This file uses centimeters as units for non-parametric coordinates.

g default
v -90.920860 0.103684 0.061363
v -90.920860 0.049056 0.002216
v -87.133965 0.103684 0.061363
v -87.133965 0.049056 0.002216
v -87.133965 0.159687 0.000729
v -87.133965 0.105059 -0.058418
v -90.920860 0.159687 0.000729
v -90.920860 0.105059 -0.058418
v -90.934990 -1.391212 0.054116
v -90.934990 -1.391213 -0.047938
v -87.215370 0.054865 0.054116
v -87.215370 0.054865 -0.047938
v -87.184044 -0.055120 0.054116
v -87.184044 -0.055121 -0.047938
v -90.903679 -1.501198 0.054116
v -90.903679 -1.501198 -0.047938
v -87.184044 -1.391212 0.054116
v -87.184044 -1.391213 -0.047938
v -90.903679 0.054865 0.054116
v -90.903679 0.054865 -0.047938
v -90.935005 -0.055120 0.054116
v -90.935005 -0.055121 -0.047938
v -87.215355 -1.501198 0.054116
v -87.215355 -1.501198 -0.047938
v -90.920860 -1.632221 0.061363
v -90.920860 -1.686850 0.002216
v -87.133965 -1.632221 0.061363
v -87.133965 -1.686850 0.002216
v -87.133965 -1.576218 0.000729
v -87.133965 -1.630847 -0.058418
v -90.920860 -1.576218 0.000729
v -90.920860 -1.630847 -0.058418
v -90.934990 -3.127118 0.054116
v -90.934990 -3.127118 -0.047938
v -87.215370 -1.681040 0.054116
v -87.215370 -1.681041 -0.047938
v -87.184044 -1.791026 0.054116
v -87.184044 -1.791026 -0.047938
v -90.903679 -3.237103 0.054116
v -90.903679 -3.237104 -0.047938
v -87.184044 -3.127118 0.054116
v -87.184044 -3.127118 -0.047938
v -90.903679 -1.681040 0.054116
v -90.903679 -1.681041 -0.047938
v -90.935005 -1.791026 0.054116
v -90.935005 -1.791026 -0.047938
v -87.215355 -3.237103 0.054116
v -87.215355 -3.237104 -0.047938
v -90.920860 -3.368127 0.061363
v -90.920860 -3.422755 0.002216
v -87.133965 -3.368127 0.061363
v -87.133965 -3.422755 0.002216
v -87.133965 -3.312124 0.000729
v -87.133965 -3.366752 -0.058418
v -90.920860 -3.312124 0.000729
v -90.920860 -3.366752 -0.058418
v -90.934990 -4.863023 0.054116
v -90.934990 -4.863024 -0.047938
v -87.215370 -3.416946 0.054116
v -87.215370 -3.416946 -0.047938
v -87.184044 -3.526931 0.054116
v -87.184044 -3.526932 -0.047938
v -90.903679 -4.973009 0.054116
v -90.903679 -4.973009 -0.047938
v -87.184044 -4.863023 0.054116
v -87.184044 -4.863024 -0.047938
v -90.903679 -3.416946 0.054116
v -90.903679 -3.416946 -0.047938
v -90.935005 -3.526931 0.054116
v -90.935005 -3.526932 -0.047938
v -87.215355 -4.973009 0.054116
v -87.215355 -4.973009 -0.047938
v -90.920860 -5.104032 0.061363
v -90.920860 -5.158661 0.002216
v -87.133965 -5.104032 0.061363
v -87.133965 -5.158661 0.002216
v -87.133965 -5.048029 0.000729
v -87.133965 -5.102657 -0.058418
v -90.920860 -5.048029 0.000729
v -90.920860 -5.102657 -0.058418
v -90.934990 -6.598929 0.054116
v -90.934990 -6.598929 -0.047938
v -87.215370 -5.152852 0.054116
v -87.215370 -5.152852 -0.047938
v -87.184044 -5.262837 0.054116
v -87.184044 -5.262837 -0.047938
v -90.903679 -6.708914 0.054116
v -90.903679 -6.708915 -0.047938
v -87.184044 -6.598929 0.054116
v -87.184044 -6.598929 -0.047938
v -90.903679 -5.152852 0.054116
v -90.903679 -5.152852 -0.047938
v -90.935005 -5.262837 0.054116
v -90.935005 -5.262837 -0.047938
v -87.215355 -6.708914 0.054116
v -87.215355 -6.708915 -0.047938
v -87.179115 1.197950 -3.661869
v -87.179115 1.283902 -2.926856
v -87.179131 1.299594 -2.160364
v -87.191002 1.291363 -3.669108
v -87.191002 1.378395 -2.925282
v -87.191017 1.406556 -2.160364
v -87.081505 1.291363 -3.669108
v -87.081505 1.378395 -2.925282
v -87.081505 1.406556 -2.160364
v -87.093407 1.197950 -3.661869
v -87.093407 1.283902 -2.926856
v -87.093407 1.299594 -2.160364
v -87.093407 1.068278 -4.326471
v -87.179115 1.068278 -4.326471
v -87.191002 1.155388 -4.356677
v -87.081505 1.155388 -4.356677
v -87.179115 1.473807 -3.661869
v -87.179115 1.556495 -2.926856
v -87.179131 1.572187 -2.160364
v -87.191002 1.567221 -3.669108
v -87.191002 1.646203 -2.925282
v -87.191017 1.671124 -2.160364
v -87.081505 1.567221 -3.669108
v -87.081505 1.646203 -2.925282
v -87.081505 1.671124 -2.160364
v -87.093407 1.473807 -3.661869
v -87.093407 1.556495 -2.926856
v -87.093407 1.572187 -2.160364
v -87.093407 1.344135 -4.326471
v -87.179115 1.344135 -4.326471
v -87.191002 1.431246 -4.356677
v -87.081505 1.431246 -4.356677
v -87.138115 0.767305 -2.980838
v -87.233879 0.766916 -2.892008
v -87.138115 1.947664 -2.980838
v -87.233879 1.947275 -2.892008
v -87.047142 1.947294 -2.896450
v -87.142906 1.946905 -2.807620
v -87.047142 0.766935 -2.896450
v -87.142906 0.766546 -2.807620
v -87.138115 0.566260 -4.416921
v -87.233879 0.565871 -4.328091
v -87.138115 1.767936 -4.416921
v -87.233879 1.767547 -4.328091
v -87.047142 1.767567 -4.332532
v -87.142906 1.767178 -4.243704
v -87.047142 0.565890 -4.332532
v -87.142906 0.565501 -4.243704
v -90.991447 0.532804 -3.647033
v -90.991447 0.622799 -2.912018
v -90.994072 0.666135 -2.160364
v -91.003349 0.767487 -3.669108
v -91.003349 0.858561 -2.925282
v -91.005974 0.902213 -2.160364
v -87.046104 0.767487 -3.669108
v -87.046104 0.858561 -2.925282
v -87.048729 0.902213 -2.160364
v -87.058006 0.532804 -3.647033
v -87.058006 0.622799 -2.912018
v -87.060631 0.666135 -2.160364
v -87.058006 0.371290 -4.438372
v -90.991447 0.371290 -4.438372
v -91.003349 0.592494 -4.487248
v -87.046104 0.592494 -4.487248
v -90.794777 0.744123 -3.669108
v -90.794777 0.569129 -4.487248
v -90.784142 0.397947 -4.438372
v -90.784142 0.559461 -3.647033
v -90.784142 0.649456 -2.912018
v -90.784523 0.692792 -2.160364
v -90.795158 0.878849 -2.160364
v -90.794777 0.835197 -2.925282
v -87.259163 0.744123 -3.669108
v -87.259163 0.569129 -4.487248
v -87.269783 0.397947 -4.438372
v -87.269783 0.559461 -3.647033
v -87.269783 0.649456 -2.912018
v -87.270164 0.692792 -2.160364
v -87.259544 0.878849 -2.160364
v -87.259163 0.835197 -2.925282
v -90.961281 1.197950 -3.661869
v -90.961281 1.283902 -2.926856
v -90.961296 1.299594 -2.160364
v -90.973167 1.291363 -3.669108
v -90.973167 1.378395 -2.925282
v -90.973183 1.406556 -2.160364
v -90.863670 1.291363 -3.669108
v -90.863670 1.378395 -2.925282
v -90.863670 1.406556 -2.160364
v -90.875572 1.197950 -3.661869
v -90.875572 1.283902 -2.926856
v -90.875572 1.299594 -2.160364
v -90.875572 1.068278 -4.326471
v -90.961281 1.068278 -4.326471
v -90.973167 1.155388 -4.356677
v -90.863670 1.155388 -4.356677
v -90.961281 1.473807 -3.661869
v -90.961281 1.556495 -2.926856
v -90.961296 1.572187 -2.160364
v -90.973167 1.567221 -3.669108
v -90.973167 1.646203 -2.925282
v -90.973183 1.671124 -2.160364
v -90.863670 1.567221 -3.669108
v -90.863670 1.646203 -2.925282
v -90.863670 1.671124 -2.160364
v -90.875572 1.473807 -3.661869
v -90.875572 1.556495 -2.926856
v -90.875572 1.572187 -2.160364
v -90.875572 1.344135 -4.326471
v -90.961281 1.344135 -4.326471
v -90.973167 1.431246 -4.356677
v -90.863670 1.431246 -4.356677
v -90.914238 0.767305 -2.980838
v -91.010002 0.766916 -2.892008
v -90.914238 1.947664 -2.980838
v -91.010002 1.947275 -2.892008
v -90.823265 1.947294 -2.896450
v -90.919029 1.946905 -2.807620
v -90.823265 0.766935 -2.896450
v -90.919029 0.766546 -2.807620
v -90.914238 0.566260 -4.416921
v -91.010002 0.565871 -4.328091
v -90.914238 1.767936 -4.416921
v -91.010002 1.767547 -4.328091
v -90.823265 1.767567 -4.332532
v -90.919029 1.767178 -4.243704
v -90.823265 0.565890 -4.332532
v -90.919029 0.565501 -4.243704
v -90.956642 1.309547 2.160957
v -90.870918 1.309547 2.160957
v -90.859032 1.406517 2.160365
v -90.968544 1.406517 2.160365
v -90.956642 1.583772 2.160957
v -90.870918 1.583772 2.160957
v -90.859032 1.671580 2.160365
v -90.968544 1.671580 2.160365
v -90.916588 0.791099 -1.339891
v -90.820808 0.791488 -1.428721
v -90.916588 1.968273 -1.339891
v -90.820808 1.968662 -1.428721
v -91.007561 1.968643 -1.424279
v -90.911797 1.969032 -1.513109
v -91.007561 0.791469 -1.424279
v -90.911797 0.791858 -1.513109
v -90.992043 0.674231 2.158766
v -87.058586 0.674231 2.158766
v -87.046700 0.902765 2.157810
v -91.003944 0.902765 2.157810
v -87.255257 0.879400 2.157810
v -87.265907 0.700888 2.158766
v -90.790871 0.879400 2.157810
v -90.780251 0.700888 2.158766
v -91.008598 0.905595 0.009514
v -90.795525 0.882231 0.009514
v -87.259911 0.882231 0.009514
v -87.051353 0.905595 0.009514
v -87.063240 0.386973 0.010475
v -87.270561 0.703761 0.010475
v -90.784904 0.703761 0.010475
v -90.996696 0.386973 0.010475
v -87.174477 1.309547 2.160957
v -87.088753 1.309547 2.160957
v -87.076866 1.406517 2.160365
v -87.186378 1.406517 2.160365
v -87.174477 1.583772 2.160957
v -87.088753 1.583772 2.160957
v -87.076866 1.671580 2.160365
v -87.186378 1.671580 2.160365
v -87.140465 0.791099 -1.339891
v -87.044685 0.791488 -1.428721
v -87.140465 1.968273 -1.339891
v -87.044685 1.968662 -1.428721
v -87.231438 1.968643 -1.424279
v -87.135674 1.969032 -1.513109
v -87.231438 0.791469 -1.424279
v -87.135674 0.791858 -1.513109
v -87.140465 0.877052 1.534388
v -87.044685 0.877052 1.445559
v -87.140465 1.949728 1.534388
v -87.044685 1.949728 1.445559
v -87.231438 1.949728 1.450000
v -87.135674 1.949728 1.361171
v -87.231438 0.877052 1.450000
v -87.135674 0.877052 1.361171
v -90.916588 0.877052 1.534388
v -90.820808 0.877052 1.445559
v -90.916588 1.949728 1.534388
v -90.820808 1.949728 1.445559
v -91.007561 1.949728 1.450000
v -90.911797 1.949728 1.361171
v -91.007561 0.877052 1.450000
v -90.911797 0.877052 1.361171
v -90.931435 0.355305 -0.042223
v -90.931435 0.465343 -0.054117
v -90.931435 0.465106 0.055388
v -90.931435 0.355120 0.043493
v -87.128578 0.372397 0.043493
v -87.128578 0.372582 -0.042223
v -87.129631 0.462072 -0.054117
v -87.129631 0.461835 0.055388
v -90.916588 -6.745350 0.103709
v -90.820808 -6.745350 0.007938
v -90.916588 1.949728 0.103709
v -90.820808 1.949728 0.007938
v -91.007561 1.949728 0.012726
v -90.911797 1.950091 -0.083045
v -91.007561 -6.745350 0.012727
v -90.911797 -6.745350 -0.083044
v -87.140465 -6.745350 0.103709
v -87.044685 -6.745350 0.007938
v -87.140465 1.949728 0.103709
v -87.044685 1.949728 0.007938
v -87.231438 1.949728 0.012726
v -87.135674 1.950091 -0.083045
v -87.231438 -6.745350 0.012727
v -87.135674 -6.745350 -0.083044
v -90.866264 1.207202 3.661870
v -90.866264 1.296374 2.926856
v -90.854378 1.300585 3.669109
v -90.854378 1.390874 2.925282
v -90.963890 1.300585 3.669109
v -90.963890 1.390874 2.925282
v -90.951988 1.207202 3.661870
v -90.951988 1.296374 2.926856
v -90.951988 1.074620 4.326472
v -90.866264 1.074620 4.326472
v -90.854378 1.161598 4.356677
v -90.963890 1.161598 4.356677
v -90.866264 1.483060 3.661870
v -90.866264 1.568967 2.926856
v -90.854378 1.576442 3.669109
v -90.854378 1.656081 2.925282
v -90.963890 1.576442 3.669109
v -90.963890 1.656081 2.925282
v -90.951988 1.483060 3.661870
v -90.951988 1.568967 2.926856
v -90.951988 1.350477 4.326472
v -90.866264 1.350477 4.326472
v -90.854378 1.437455 4.356677
v -90.963890 1.437455 4.356677
v -90.907280 0.779540 2.980838
v -90.811501 0.779540 2.892009
v -90.907280 1.957299 2.980838
v -90.811501 1.957299 2.892009
v -90.998253 1.957299 2.896450
v -90.902489 1.957299 2.807621
v -90.998253 0.779540 2.896450
v -90.902489 0.779540 2.807621
v -90.907280 0.572206 4.416922
v -90.811501 0.572206 4.328091
v -90.907280 1.771282 4.416922
v -90.811501 1.771282 4.328091
v -90.998253 1.771282 4.332533
v -90.902489 1.771282 4.243704
v -90.998253 0.572206 4.332533
v -90.902489 0.572206 4.243704
v -87.053932 0.542122 3.647033
v -87.053932 0.635336 2.912019
v -87.042046 0.776709 3.669109
v -87.042046 0.871040 2.925282
v -90.999290 0.776709 3.669109
v -90.999290 0.871040 2.925282
v -90.987389 0.542122 3.647033
v -90.987389 0.635336 2.912019
v -90.987389 0.377142 4.438372
v -87.053932 0.377142 4.438372
v -87.042046 0.598131 4.487248
v -90.999290 0.598131 4.487248
v -87.250603 0.753344 3.669109
v -87.250603 0.574767 4.487248
v -87.261253 0.403799 4.438372
v -87.261253 0.568779 3.647033
v -87.261253 0.661993 2.912019
v -87.250603 0.847676 2.925282
v -90.786217 0.753344 3.669109
v -90.786217 0.574767 4.487248
v -90.775597 0.403799 4.438372
v -90.775597 0.568779 3.647033
v -90.775597 0.661993 2.912019
v -90.786217 0.847676 2.925282
v -87.084099 1.207202 3.661870
v -87.084099 1.296374 2.926856
v -87.072212 1.300585 3.669109
v -87.072212 1.390874 2.925282
v -87.181725 1.300585 3.669109
v -87.181725 1.390874 2.925282
v -87.169823 1.207202 3.661870
v -87.169823 1.296374 2.926856
v -87.169823 1.074620 4.326472
v -87.084099 1.074620 4.326472
v -87.072212 1.161598 4.356677
v -87.181725 1.161598 4.356677
v -87.084099 1.483060 3.661870
v -87.084099 1.568967 2.926856
v -87.072212 1.576442 3.669109
v -87.072212 1.656081 2.925282
v -87.181725 1.576442 3.669109
v -87.181725 1.656081 2.925282
v -87.169823 1.483060 3.661870
v -87.169823 1.568967 2.926856
v -87.169823 1.350477 4.326472
v -87.084099 1.350477 4.326472
v -87.072212 1.437455 4.356677
v -87.181725 1.437455 4.356677
v -87.131157 0.779540 2.980838
v -87.035378 0.779540 2.892009
v -87.131157 1.957299 2.980838
v -87.035378 1.957299 2.892009
v -87.222130 1.957299 2.896450
v -87.126366 1.957299 2.807621
v -87.222130 0.779540 2.896450
v -87.126366 0.779540 2.807621
v -87.131157 0.572206 4.416922
v -87.035378 0.572206 4.328091
v -87.131157 1.771282 4.416922
v -87.035378 1.771282 4.328091
v -87.222130 1.771282 4.332533
v -87.126366 1.771282 4.243704
v -87.222130 0.572206 4.332533
v -87.126366 0.572206 4.243704
vt 0.375000 0.000000
vt 0.625000 0.000000
vt 0.375000 0.250000
vt 0.625000 0.250000
vt 0.375000 0.500000
vt 0.625000 0.500000
vt 0.375000 0.750000
vt 0.625000 0.750000
vt 0.375000 1.000000
vt 0.625000 1.000000
vt 0.875000 0.000000
vt 0.875000 0.250000
vt 0.125000 0.000000
vt 0.125000 0.250000
vt 0.375000 0.000000
vt 0.625000 0.000000
vt 0.625000 0.250000
vt 0.375000 0.250000
vt 0.625000 0.500000
vt 0.375000 0.500000
vt 0.625000 0.750000
vt 0.375000 0.750000
vt 0.625000 1.000000
vt 0.375000 1.000000
vt 0.875000 0.000000
vt 0.875000 0.250000
vt 0.125000 0.000000
vt 0.125000 0.250000
vt 0.375000 0.000000
vt 0.625000 0.000000
vt 0.625000 0.250000
vt 0.375000 0.250000
vt 0.625000 0.500000
vt 0.375000 0.500000
vt 0.625000 0.750000
vt 0.375000 0.750000
vt 0.625000 1.000000
vt 0.375000 1.000000
vt 0.875000 0.000000
vt 0.875000 0.250000
vt 0.125000 0.000000
vt 0.125000 0.250000
vt 0.375000 0.000000
vt 0.625000 0.000000
vt 0.625000 0.250000
vt 0.375000 0.250000
vt 0.625000 0.500000
vt 0.375000 0.500000
vt 0.625000 0.750000
vt 0.375000 0.750000
vt 0.625000 1.000000
vt 0.375000 1.000000
vt 0.875000 0.000000
vt 0.875000 0.250000
vt 0.125000 0.000000
vt 0.125000 0.250000
vt 0.375000 0.000000
vt 0.375000 0.250000
vt 0.625000 0.250000
vt 0.625000 0.000000
vt 0.375000 0.500000
vt 0.625000 0.500000
vt 0.375000 0.750000
vt 0.625000 0.750000
vt 0.375000 1.000000
vt 0.625000 1.000000
vt 0.875000 0.250000
vt 0.875000 0.000000
vt 0.125000 0.000000
vt 0.125000 0.250000
vt 0.375000 0.000000
vt 0.625000 0.000000
vt 0.625000 0.250000
vt 0.375000 0.250000
vt 0.625000 0.500000
vt 0.375000 0.500000
vt 0.625000 0.750000
vt 0.375000 0.750000
vt 0.625000 1.000000
vt 0.375000 1.000000
vt 0.875000 0.000000
vt 0.875000 0.250000
vt 0.125000 0.000000
vt 0.125000 0.250000
vt 0.375000 0.000000
vt 0.625000 0.000000
vt 0.625000 0.250000
vt 0.375000 0.250000
vt 0.625000 0.500000
vt 0.375000 0.500000
vt 0.625000 0.750000
vt 0.375000 0.750000
vt 0.625000 1.000000
vt 0.375000 1.000000
vt 0.875000 0.000000
vt 0.875000 0.250000
vt 0.125000 0.000000
vt 0.125000 0.250000
vt 0.375000 0.000000
vt 0.375000 0.250000
vt 0.625000 0.250000
vt 0.625000 0.000000
vt 0.375000 0.500000
vt 0.625000 0.500000
vt 0.375000 0.750000
vt 0.625000 0.750000
vt 0.375000 1.000000
vt 0.625000 1.000000
vt 0.875000 0.250000
vt 0.875000 0.000000
vt 0.125000 0.000000
vt 0.125000 0.250000
vt 0.375000 0.000000
vt 0.625000 0.000000
vt 0.625000 0.250000
vt 0.375000 0.250000
vt 0.625000 0.500000
vt 0.375000 0.500000
vt 0.625000 0.750000
vt 0.375000 0.750000
vt 0.625000 1.000000
vt 0.375000 1.000000
vt 0.875000 0.000000
vt 0.875000 0.250000
vt 0.125000 0.000000
vt 0.125000 0.250000
vt 0.375000 0.000000
vt 0.625000 0.000000
vt 0.625000 0.250000
vt 0.375000 0.250000
vt 0.625000 0.500000
vt 0.375000 0.500000
vt 0.625000 0.750000
vt 0.375000 0.750000
vt 0.625000 1.000000
vt 0.375000 1.000000
vt 0.875000 0.000000
vt 0.875000 0.250000
vt 0.125000 0.000000
vt 0.125000 0.250000
vt 0.375000 0.000000
vt 0.375000 0.250000
vt 0.625000 0.250000
vt 0.625000 0.000000
vt 0.375000 0.500000
vt 0.625000 0.500000
vt 0.375000 0.750000
vt 0.625000 0.750000
vt 0.375000 1.000000
vt 0.625000 1.000000
vt 0.875000 0.250000
vt 0.875000 0.000000
vt 0.125000 0.000000
vt 0.125000 0.250000
vt 0.375000 0.000000
vt 0.625000 0.000000
vt 0.625000 0.250000
vt 0.375000 0.250000
vt 0.625000 0.500000
vt 0.375000 0.500000
vt 0.625000 0.750000
vt 0.375000 0.750000
vt 0.625000 1.000000
vt 0.375000 1.000000
vt 0.875000 0.000000
vt 0.875000 0.250000
vt 0.125000 0.000000
vt 0.125000 0.250000
vt 0.771406 0.430656
vt -0.060877 0.430656
vt -0.060877 0.371135
vt 0.771406 0.371135
vt -0.890054 0.430656
vt -0.890054 0.371135
vt 0.771406 0.312688
vt -0.060877 0.312688
vt -0.890054 0.312688
vt -0.060877 0.255351
vt 0.771406 0.255351
vt -0.890053 0.255351
vt -0.060877 0.255351
vt 0.771406 0.484741
vt -0.060877 0.484741
vt -0.060877 0.484741
vt -0.890053 0.484741
vt -0.936764 0.429465
vt -0.936764 0.371267
vt -1.283352 0.371267
vt -1.283352 0.429465
vt 1.687571 0.430656
vt 1.687570 0.484741
vt 0.771406 0.484741
vt 1.687569 0.371135
vt 1.687570 0.312688
vt 0.771406 0.255351
vt 1.687570 0.255350
vt 0.771406 0.430656
vt -0.060877 0.430656
vt -0.060877 0.371135
vt 0.771406 0.371135
vt -0.890054 0.430656
vt -0.890054 0.371135
vt 0.771406 0.312688
vt -0.060877 0.312688
vt -0.890054 0.312688
vt -0.060877 0.255351
vt 0.771406 0.255351
vt -0.890053 0.255351
vt -0.060877 0.255351
vt 0.771406 0.484741
vt -0.060877 0.484741
vt -0.060877 0.484741
vt -0.890053 0.484741
vt -0.936764 0.429465
vt -0.936764 0.371267
vt -1.283352 0.371267
vt -1.283352 0.429465
vt 1.687571 0.430656
vt 1.687570 0.484741
vt 0.771406 0.484741
vt 1.687569 0.371135
vt 1.687570 0.312688
vt 0.771406 0.255351
vt 1.687570 0.255350
vt 0.375000 0.000000
vt 0.625000 0.000000
vt 0.625000 0.250000
vt 0.375000 0.250000
vt 0.625000 0.500000
vt 0.375000 0.500000
vt 0.625000 0.750000
vt 0.375000 0.750000
vt 0.625000 1.000000
vt 0.375000 1.000000
vt 0.875000 0.000000
vt 0.875000 0.250000
vt 0.125000 0.000000
vt 0.125000 0.250000
vt 0.375000 0.000000
vt 0.625000 0.000000
vt 0.625000 0.250000
vt 0.375000 0.250000
vt 0.625000 0.500000
vt 0.375000 0.500000
vt 0.625000 0.750000
vt 0.375000 0.750000
vt 0.625000 1.000000
vt 0.375000 1.000000
vt 0.875000 0.000000
vt 0.875000 0.250000
vt 0.125000 0.000000
vt 0.125000 0.250000
vt 0.771406 0.430656
vt -0.060877 0.430656
vt -0.060877 0.371135
vt 0.771406 0.371135
vt -0.890054 0.430656
vt -0.890054 0.371135
vt -0.060877 0.368054
vt 0.771406 0.368054
vt -0.890054 0.368054
vt 0.771406 0.312688
vt -0.060877 0.312688
vt -0.060877 0.255351
vt 0.771406 0.255351
vt -0.890054 0.312688
vt -0.890053 0.255351
vt -0.060877 0.255351
vt 0.771406 0.433507
vt -0.060877 0.433506
vt -0.060877 0.433506
vt -0.890054 0.433507
vt -0.955032 0.429465
vt -0.936764 0.429465
vt -0.936764 0.371267
vt -0.955032 0.371267
vt 1.687571 0.430656
vt 1.687571 0.433507
vt 0.771406 0.433507
vt 1.687569 0.371135
vt 1.687569 0.368054
vt 0.771406 0.255351
vt 1.687570 0.255350
vt 1.687570 0.312688
vt 0.771406 0.315835
vt 1.687570 0.315835
vt -1.264692 0.429465
vt -1.264692 0.371267
vt 1.687570 0.481829
vt 0.771406 0.481829
vt 0.771406 0.481829
vt -0.060877 0.481829
vt -0.060877 0.481829
vt -0.890053 0.481829
vt -0.890054 0.315835
vt -0.060877 0.315835
vt -1.283352 0.429465
vt -1.283352 0.371267
vt 1.687570 0.484741
vt 0.771406 0.484741
vt 0.771406 0.484741
vt -0.060877 0.484741
vt -0.060877 0.484741
vt -0.890053 0.484741
vt 0.771406 0.430656
vt -0.060877 0.430656
vt -0.060877 0.371135
vt 0.771406 0.371135
vt -0.890054 0.430656
vt -0.890054 0.371135
vt 0.771406 0.312688
vt -0.060877 0.312688
vt -0.890054 0.312688
vt -0.060877 0.255351
vt 0.771406 0.255351
vt -0.890053 0.255351
vt -0.060877 0.255351
vt 0.771406 0.484741
vt -0.060877 0.484741
vt -0.060877 0.484741
vt -0.890053 0.484741
vt -0.936764 0.429465
vt -0.936764 0.371267
vt -1.283352 0.371267
vt -1.283352 0.429465
vt 1.687571 0.430656
vt 1.687570 0.484741
vt 0.771406 0.484741
vt 1.687569 0.371135
vt 1.687570 0.312688
vt 0.771406 0.255351
vt 1.687570 0.255350
vt 0.771406 0.430656
vt -0.060877 0.430656
vt -0.060877 0.371135
vt 0.771406 0.371135
vt -0.890054 0.430656
vt -0.890054 0.371135
vt 0.771406 0.312688
vt -0.060877 0.312688
vt -0.890054 0.312688
vt -0.060877 0.255351
vt 0.771406 0.255351
vt -0.890053 0.255351
vt -0.060877 0.255351
vt 0.771406 0.484741
vt -0.060877 0.484741
vt -0.060877 0.484741
vt -0.890053 0.484741
vt -0.936764 0.429465
vt -0.936764 0.371267
vt -1.283352 0.371267
vt -1.283352 0.429465
vt 1.687571 0.430656
vt 1.687570 0.484741
vt 0.771406 0.484741
vt 1.687569 0.371135
vt 1.687570 0.312688
vt 0.771406 0.255351
vt 1.687570 0.255350
vt 0.375000 0.000000
vt 0.625000 0.000000
vt 0.625000 0.250000
vt 0.375000 0.250000
vt 0.625000 0.500000
vt 0.375000 0.500000
vt 0.625000 0.750000
vt 0.375000 0.750000
vt 0.625000 1.000000
vt 0.375000 1.000000
vt 0.875000 0.000000
vt 0.875000 0.250000
vt 0.125000 0.000000
vt 0.125000 0.250000
vt 0.375000 0.000000
vt 0.625000 0.000000
vt 0.625000 0.250000
vt 0.375000 0.250000
vt 0.625000 0.500000
vt 0.375000 0.500000
vt 0.625000 0.750000
vt 0.375000 0.750000
vt 0.625000 1.000000
vt 0.375000 1.000000
vt 0.875000 0.000000
vt 0.875000 0.250000
vt 0.125000 0.000000
vt 0.125000 0.250000
vt -0.890054 0.430656
vt 1.687571 0.430656
vt 1.687570 0.484741
vt -0.890053 0.484741
vt 1.687569 0.371135
vt -0.890054 0.371135
vt -0.890054 0.312688
vt 1.687570 0.312688
vt 1.687570 0.255350
vt -0.890053 0.255351
vt -0.890054 0.430656
vt 1.687571 0.430656
vt 1.687570 0.484741
vt -0.890053 0.484741
vt 1.687569 0.371135
vt -0.890054 0.371135
vt -0.890054 0.312688
vt 1.687570 0.312688
vt 1.687570 0.255350
vt -0.890053 0.255351
vt 0.375000 0.000000
vt 0.625000 0.000000
vt 0.625000 0.250000
vt 0.375000 0.250000
vt 0.625000 0.500000
vt 0.375000 0.500000
vt 0.625000 0.750000
vt 0.375000 0.750000
vt 0.625000 1.000000
vt 0.375000 1.000000
vt 0.875000 0.000000
vt 0.875000 0.250000
vt 0.125000 0.000000
vt 0.125000 0.250000
vt -0.890054 0.430656
vt 0.405967 0.430656
vt 0.405967 0.433507
vt -0.890054 0.433507
vt 0.405966 0.371135
vt -0.890054 0.371135
vt -0.890054 0.368054
vt 0.405966 0.368054
vt 0.405967 0.255350
vt 0.405967 0.312688
vt -0.890054 0.312688
vt -0.890053 0.255351
vt -0.890054 0.315835
vt 0.405967 0.315835
vt 0.405967 0.481829
vt -0.890053 0.481829
vt 0.405967 0.484741
vt -0.890053 0.484741
vt 1.687570 0.312688
vt 1.687570 0.315835
vt 1.687569 0.368054
vt 1.687569 0.371135
vt 1.687571 0.430656
vt 1.687571 0.433507
vt 1.687570 0.481829
vt 1.687570 0.484741
vt 1.687570 0.255350
vt -0.890054 0.430656
vt 1.687571 0.430656
vt 1.687570 0.484741
vt -0.890053 0.484741
vt 1.687569 0.371135
vt -0.890054 0.371135
vt -0.890054 0.312688
vt 1.687570 0.312688
vt -0.890053 0.255351
vt 1.687570 0.255350
vt -0.890054 0.430656
vt 1.687571 0.430656
vt 1.687570 0.484741
vt -0.890053 0.484741
vt 1.687569 0.371135
vt -0.890054 0.371135
vt -0.890054 0.312688
vt 1.687570 0.312688
vt -0.890053 0.255351
vt 1.687570 0.255350
vt 0.375000 0.000000
vt 0.625000 0.000000
vt 0.625000 0.250000
vt 0.375000 0.250000
vt 0.625000 0.500000
vt 0.375000 0.500000
vt 0.625000 0.750000
vt 0.375000 0.750000
vt 0.625000 1.000000
vt 0.375000 1.000000
vt 0.875000 0.000000
vt 0.875000 0.250000
vt 0.125000 0.000000
vt 0.125000 0.250000
vt 0.375000 0.000000
vt 0.625000 0.000000
vt 0.625000 0.250000
vt 0.375000 0.250000
vt 0.625000 0.500000
vt 0.375000 0.500000
vt 0.625000 0.750000
vt 0.375000 0.750000
vt 0.625000 1.000000
vt 0.375000 1.000000
vt 0.875000 0.000000
vt 0.875000 0.250000
vt 0.125000 0.000000
vt 0.125000 0.250000
vt 0.375000 0.000000
vt 0.625000 0.000000
vt 0.625000 0.250000
vt 0.375000 0.250000
vt 0.625000 0.500000
vt 0.375000 0.500000
vt 0.625000 0.750000
vt 0.375000 0.750000
vt 0.625000 1.000000
vt 0.375000 1.000000
vt 0.875000 0.000000
vt 0.875000 0.250000
vt 0.125000 0.000000
vt 0.125000 0.250000
vt -0.936764 0.429465
vt -0.936764 0.371267
vt -1.283352 0.371267
vt -1.283352 0.429465
vt -0.890054 0.430656
vt 1.687571 0.430656
vt 1.687570 0.484741
vt -0.890053 0.484741
vt 1.687569 0.371135
vt -0.890054 0.371135
vt -0.890054 0.312688
vt 1.687570 0.312688
vt 1.687570 0.255350
vt -0.890053 0.255351
vt 1.739801 0.372323
vt 1.739801 0.428138
vt 2.062576 0.428138
vt 2.062576 0.372323
vt 0.375000 0.000000
vt 0.625000 0.000000
vt 0.625000 0.250000
vt 0.375000 0.250000
vt 0.625000 0.500000
vt 0.375000 0.500000
vt 0.625000 0.750000
vt 0.375000 0.750000
vt 0.625000 1.000000
vt 0.375000 1.000000
vt 0.875000 0.000000
vt 0.875000 0.250000
vt 0.125000 0.000000
vt 0.125000 0.250000
vt 0.375000 0.000000
vt 0.625000 0.000000
vt 0.625000 0.250000
vt 0.375000 0.250000
vt 0.625000 0.500000
vt 0.375000 0.500000
vt 0.625000 0.750000
vt 0.375000 0.750000
vt 0.625000 1.000000
vt 0.375000 1.000000
vt 0.875000 0.000000
vt 0.875000 0.250000
vt 0.125000 0.000000
vt 0.125000 0.250000
vt 0.771406 0.430656
vt -0.060877 0.430656
vt -0.060877 0.371135
vt 0.771406 0.371135
vt -0.890054 0.430656
vt -0.890054 0.371135
vt 0.771406 0.312688
vt -0.060877 0.312688
vt -0.890054 0.312688
vt -0.060877 0.255351
vt 0.771406 0.255351
vt -0.890053 0.255351
vt -0.060877 0.255351
vt 0.771406 0.484741
vt -0.060877 0.484741
vt -0.060877 0.484741
vt -0.890053 0.484741
vt -0.936764 0.429465
vt -0.936764 0.371267
vt -1.283352 0.371267
vt -1.283352 0.429465
vt 1.687571 0.430656
vt 1.687570 0.484741
vt 0.771406 0.484741
vt 1.687569 0.371135
vt 1.687570 0.312688
vt 0.771406 0.255351
vt 1.687570 0.255350
vt 0.771406 0.430656
vt -0.060877 0.430656
vt -0.060877 0.371135
vt 0.771406 0.371135
vt -0.890054 0.430656
vt -0.890054 0.371135
vt 0.771406 0.312688
vt -0.060877 0.312688
vt -0.890054 0.312688
vt -0.060877 0.255351
vt 0.771406 0.255351
vt -0.890053 0.255351
vt -0.060877 0.255351
vt 0.771406 0.484741
vt -0.060877 0.484741
vt -0.060877 0.484741
vt -0.890053 0.484741
vt -0.936764 0.429465
vt -0.936764 0.371267
vt -1.283352 0.371267
vt -1.283352 0.429465
vt 1.687571 0.430656
vt 1.687570 0.484741
vt 0.771406 0.484741
vt 1.687569 0.371135
vt 1.687570 0.312688
vt 0.771406 0.255351
vt 1.687570 0.255350
vt 0.375000 0.000000
vt 0.625000 0.000000
vt 0.625000 0.250000
vt 0.375000 0.250000
vt 0.625000 0.500000
vt 0.375000 0.500000
vt 0.625000 0.750000
vt 0.375000 0.750000
vt 0.625000 1.000000
vt 0.375000 1.000000
vt 0.875000 0.000000
vt 0.875000 0.250000
vt 0.125000 0.000000
vt 0.125000 0.250000
vt 0.375000 0.000000
vt 0.625000 0.000000
vt 0.625000 0.250000
vt 0.375000 0.250000
vt 0.625000 0.500000
vt 0.375000 0.500000
vt 0.625000 0.750000
vt 0.375000 0.750000
vt 0.625000 1.000000
vt 0.375000 1.000000
vt 0.875000 0.000000
vt 0.875000 0.250000
vt 0.125000 0.000000
vt 0.125000 0.250000
vt 0.771406 0.430656
vt -0.060877 0.430656
vt -0.060877 0.371135
vt 0.771406 0.371135
vt -0.890054 0.430656
vt -0.890054 0.371135
vt -0.060877 0.368054
vt 0.771406 0.368054
vt -0.890054 0.368054
vt 0.771406 0.312688
vt -0.060877 0.312688
vt -0.060877 0.255351
vt 0.771406 0.255351
vt -0.890054 0.312688
vt -0.890053 0.255351
vt -0.060877 0.255351
vt 0.771406 0.433507
vt -0.060877 0.433506
vt -0.060877 0.433506
vt -0.890054 0.433507
vt -0.955032 0.429465
vt -0.936764 0.429465
vt -0.936764 0.371267
vt -0.955032 0.371267
vt 1.687571 0.430656
vt 1.687571 0.433507
vt 0.771406 0.433507
vt 1.687569 0.371135
vt 1.687569 0.368054
vt 0.771406 0.255351
vt 1.687570 0.255350
vt 1.687570 0.312688
vt 0.771406 0.315835
vt 1.687570 0.315835
vt -1.264692 0.429465
vt -1.264692 0.371267
vt 1.687570 0.481829
vt 0.771406 0.481829
vt 0.771406 0.481829
vt -0.060877 0.481829
vt -0.060877 0.481829
vt -0.890053 0.481829
vt -0.890054 0.315835
vt -0.060877 0.315835
vt -1.283352 0.429465
vt -1.283352 0.371267
vt 1.687570 0.484741
vt 0.771406 0.484741
vt 0.771406 0.484741
vt -0.060877 0.484741
vt -0.060877 0.484741
vt -0.890053 0.484741
vt 0.771406 0.430656
vt -0.060877 0.430656
vt -0.060877 0.371135
vt 0.771406 0.371135
vt -0.890054 0.430656
vt -0.890054 0.371135
vt 0.771406 0.312688
vt -0.060877 0.312688
vt -0.890054 0.312688
vt -0.060877 0.255351
vt 0.771406 0.255351
vt -0.890053 0.255351
vt -0.060877 0.255351
vt 0.771406 0.484741
vt -0.060877 0.484741
vt -0.060877 0.484741
vt -0.890053 0.484741
vt -0.936764 0.429465
vt -0.936764 0.371267
vt -1.283352 0.371267
vt -1.283352 0.429465
vt 1.687571 0.430656
vt 1.687570 0.484741
vt 0.771406 0.484741
vt 1.687569 0.371135
vt 1.687570 0.312688
vt 0.771406 0.255351
vt 1.687570 0.255350
vt 0.771406 0.430656
vt -0.060877 0.430656
vt -0.060877 0.371135
vt 0.771406 0.371135
vt -0.890054 0.430656
vt -0.890054 0.371135
vt 0.771406 0.312688
vt -0.060877 0.312688
vt -0.890054 0.312688
vt -0.060877 0.255351
vt 0.771406 0.255351
vt -0.890053 0.255351
vt -0.060877 0.255351
vt 0.771406 0.484741
vt -0.060877 0.484741
vt -0.060877 0.484741
vt -0.890053 0.484741
vt -0.936764 0.429465
vt -0.936764 0.371267
vt -1.283352 0.371267
vt -1.283352 0.429465
vt 1.687571 0.430656
vt 1.687570 0.484741
vt 0.771406 0.484741
vt 1.687569 0.371135
vt 1.687570 0.312688
vt 0.771406 0.255351
vt 1.687570 0.255350
vt 0.375000 0.000000
vt 0.625000 0.000000
vt 0.625000 0.250000
vt 0.375000 0.250000
vt 0.625000 0.500000
vt 0.375000 0.500000
vt 0.625000 0.750000
vt 0.375000 0.750000
vt 0.625000 1.000000
vt 0.375000 1.000000
vt 0.875000 0.000000
vt 0.875000 0.250000
vt 0.125000 0.000000
vt 0.125000 0.250000
vt 0.375000 0.000000
vt 0.625000 0.000000
vt 0.625000 0.250000
vt 0.375000 0.250000
vt 0.625000 0.500000
vt 0.375000 0.500000
vt 0.625000 0.750000
vt 0.375000 0.750000
vt 0.625000 1.000000
vt 0.375000 1.000000
vt 0.875000 0.000000
vt 0.875000 0.250000
vt 0.125000 0.000000
vt 0.125000 0.250000
vn 0.000000 -0.734606 0.678494
vn 0.000000 -0.734606 0.678494
vn 0.000000 -0.734606 0.678494
vn 0.000000 -0.734606 0.678494
vn 1.000000 0.000000 0.000000
vn 1.000000 0.000000 0.000000
vn 1.000000 0.000000 0.000000
vn 1.000000 0.000000 0.000000
vn 0.000000 0.734606 -0.678494
vn 0.000000 0.734606 -0.678494
vn 0.000000 0.734606 -0.678494
vn 0.000000 0.734606 -0.678494
vn -1.000000 0.000000 0.000000
vn -1.000000 0.000000 0.000000
vn -1.000000 0.000000 0.000000
vn -1.000000 0.000000 0.000000
vn 0.000000 -0.734604 -0.678496
vn 0.000000 -0.734604 -0.678496
vn 0.000000 -0.734604 -0.678496
vn 0.000000 -0.734604 -0.678496
vn 0.000000 0.734604 0.678496
vn 0.000000 0.734604 0.678496
vn 0.000000 0.734604 0.678496
vn 0.000000 0.734604 0.678496
vn -0.362350 0.932042 -0.000003
vn -0.362350 0.932042 -0.000003
vn -0.362350 0.932042 -0.000003
vn -0.362350 0.932042 -0.000003
vn 0.961735 0.273983 -0.000001
vn 0.961735 0.273983 -0.000001
vn 0.961735 0.273983 -0.000001
vn 0.961735 0.273983 -0.000001
vn 0.362349 -0.932043 0.000003
vn 0.362349 -0.932043 0.000003
vn 0.362349 -0.932043 0.000003
vn 0.362349 -0.932043 0.000003
vn -0.961778 -0.273832 0.000001
vn -0.961778 -0.273832 0.000001
vn -0.961778 -0.273832 0.000001
vn -0.961778 -0.273832 0.000001
vn -0.000000 0.000000 -1.000000
vn -0.000000 0.000000 -1.000000
vn -0.000000 0.000000 -1.000000
vn -0.000000 0.000000 -1.000000
vn -0.000000 0.000000 1.000000
vn -0.000000 0.000000 1.000000
vn -0.000000 0.000000 1.000000
vn -0.000000 0.000000 1.000000
vn 0.362349 0.932043 -0.000002
vn 0.362349 0.932043 -0.000002
vn 0.362349 0.932043 -0.000002
vn 0.362349 0.932043 -0.000002
vn -0.961756 0.273907 -0.000001
vn -0.961756 0.273907 -0.000001
vn -0.961756 0.273907 -0.000001
vn -0.961756 0.273907 -0.000001
vn -0.362348 -0.932043 0.000002
vn -0.362348 -0.932043 0.000002
vn -0.362348 -0.932043 0.000002
vn -0.362348 -0.932043 0.000002
vn 0.961778 -0.273832 0.000001
vn 0.961778 -0.273832 0.000001
vn 0.961778 -0.273832 0.000001
vn 0.961778 -0.273832 0.000001
vn 0.000000 0.000000 -1.000000
vn 0.000000 0.000000 -1.000000
vn 0.000000 0.000000 -1.000000
vn 0.000000 0.000000 -1.000000
vn 0.000000 0.000000 1.000000
vn 0.000000 0.000000 1.000000
vn 0.000000 0.000000 1.000000
vn 0.000000 0.000000 1.000000
vn 0.000000 -0.734606 0.678494
vn 0.000000 -0.734606 0.678494
vn 0.000000 -0.734606 0.678494
vn 0.000000 -0.734606 0.678494
vn 1.000000 0.000000 0.000000
vn 1.000000 0.000000 0.000000
vn 1.000000 0.000000 0.000000
vn 1.000000 0.000000 0.000000
vn 0.000000 0.734606 -0.678494
vn 0.000000 0.734606 -0.678494
vn 0.000000 0.734606 -0.678494
vn 0.000000 0.734606 -0.678494
vn -1.000000 0.000000 0.000000
vn -1.000000 0.000000 0.000000
vn -1.000000 0.000000 0.000000
vn -1.000000 0.000000 0.000000
vn 0.000000 -0.734604 -0.678496
vn 0.000000 -0.734604 -0.678496
vn 0.000000 -0.734604 -0.678496
vn 0.000000 -0.734604 -0.678496
vn 0.000000 0.734604 0.678496
vn 0.000000 0.734604 0.678496
vn 0.000000 0.734604 0.678496
vn 0.000000 0.734604 0.678496
vn -0.362350 0.932042 -0.000005
vn -0.362350 0.932042 -0.000005
vn -0.362350 0.932042 -0.000005
vn -0.362350 0.932042 -0.000005
vn 0.961735 0.273983 -0.000001
vn 0.961735 0.273983 -0.000001
vn 0.961735 0.273983 -0.000001
vn 0.961735 0.273983 -0.000001
vn 0.362349 -0.932043 0.000002
vn 0.362349 -0.932043 0.000002
vn 0.362349 -0.932043 0.000002
vn 0.362349 -0.932043 0.000002
vn -0.961778 -0.273831 0.000000
vn -0.961778 -0.273831 0.000000
vn -0.961778 -0.273831 0.000000
vn -0.961778 -0.273831 0.000000
vn -0.000000 0.000000 -1.000000
vn -0.000000 0.000000 -1.000000
vn -0.000000 0.000000 -1.000000
vn -0.000000 0.000000 -1.000000
vn -0.000000 0.000000 1.000000
vn -0.000000 0.000000 1.000000
vn -0.000000 0.000000 1.000000
vn -0.000000 0.000000 1.000000
vn 0.362349 0.932043 -0.000005
vn 0.362349 0.932043 -0.000005
vn 0.362349 0.932043 -0.000005
vn 0.362349 0.932043 -0.000005
vn -0.961756 0.273907 -0.000001
vn -0.961756 0.273907 -0.000001
vn -0.961756 0.273907 -0.000001
vn -0.961756 0.273907 -0.000001
vn -0.362348 -0.932043 0.000002
vn -0.362348 -0.932043 0.000002
vn -0.362348 -0.932043 0.000002
vn -0.362348 -0.932043 0.000002
vn 0.961778 -0.273831 0.000000
vn 0.961778 -0.273831 0.000000
vn 0.961778 -0.273831 0.000000
vn 0.961778 -0.273831 0.000000
vn 0.000000 0.000000 -1.000000
vn 0.000000 0.000000 -1.000000
vn 0.000000 0.000000 -1.000000
vn 0.000000 0.000000 -1.000000
vn 0.000000 0.000000 1.000000
vn 0.000000 0.000000 1.000000
vn 0.000000 0.000000 1.000000
vn 0.000000 0.000000 1.000000
vn 0.000000 -0.734606 0.678494
vn 0.000000 -0.734606 0.678494
vn 0.000000 -0.734606 0.678494
vn 0.000000 -0.734606 0.678494
vn 1.000000 0.000000 0.000000
vn 1.000000 0.000000 0.000000
vn 1.000000 0.000000 0.000000
vn 1.000000 0.000000 0.000000
vn 0.000000 0.734606 -0.678494
vn 0.000000 0.734606 -0.678494
vn 0.000000 0.734606 -0.678494
vn 0.000000 0.734606 -0.678494
vn -1.000000 0.000000 0.000000
vn -1.000000 0.000000 0.000000
vn -1.000000 0.000000 0.000000
vn -1.000000 0.000000 0.000000
vn 0.000000 -0.734603 -0.678497
vn 0.000000 -0.734603 -0.678497
vn 0.000000 -0.734603 -0.678497
vn 0.000000 -0.734603 -0.678497
vn 0.000000 0.734603 0.678497
vn 0.000000 0.734603 0.678497
vn 0.000000 0.734603 0.678497
vn 0.000000 0.734603 0.678497
vn -0.362350 0.932042 -0.000002
vn -0.362350 0.932042 -0.000002
vn -0.362350 0.932042 -0.000002
vn -0.362350 0.932042 -0.000002
vn 0.961735 0.273983 0.000000
vn 0.961735 0.273983 0.000000
vn 0.961735 0.273983 0.000000
vn 0.961735 0.273983 0.000000
vn 0.362349 -0.932043 0.000000
vn 0.362349 -0.932043 0.000000
vn 0.362349 -0.932043 0.000000
vn 0.362349 -0.932043 0.000000
vn -0.961778 -0.273831 0.000000
vn -0.961778 -0.273831 0.000000
vn -0.961778 -0.273831 0.000000
vn -0.961778 -0.273831 0.000000
vn -0.000000 0.000000 -1.000000
vn -0.000000 0.000000 -1.000000
vn -0.000000 0.000000 -1.000000
vn -0.000000 0.000000 -1.000000
vn 0.000000 0.000000 1.000000
vn 0.000000 0.000000 1.000000
vn 0.000000 0.000000 1.000000
vn 0.000000 0.000000 1.000000
vn 0.362349 0.932043 -0.000005
vn 0.362349 0.932043 -0.000005
vn 0.362349 0.932043 -0.000005
vn 0.362349 0.932043 -0.000005
vn -0.961756 0.273907 0.000000
vn -0.961756 0.273907 0.000000
vn -0.961756 0.273907 0.000000
vn -0.961756 0.273907 0.000000
vn -0.362348 -0.932043 0.000000
vn -0.362348 -0.932043 0.000000
vn -0.362348 -0.932043 0.000000
vn -0.362348 -0.932043 0.000000
vn 0.961778 -0.273831 0.000000
vn 0.961778 -0.273831 0.000000
vn 0.961778 -0.273831 0.000000
vn 0.961778 -0.273831 0.000000
vn 0.000000 0.000000 -1.000000
vn 0.000000 0.000000 -1.000000
vn 0.000000 0.000000 -1.000000
vn 0.000000 0.000000 -1.000000
vn 0.000000 0.000000 1.000000
vn 0.000000 0.000000 1.000000
vn 0.000000 0.000000 1.000000
vn 0.000000 0.000000 1.000000
vn 0.000000 -0.734606 0.678494
vn 0.000000 -0.734606 0.678494
vn 0.000000 -0.734606 0.678494
vn 0.000000 -0.734606 0.678494
vn 1.000000 0.000000 0.000000
vn 1.000000 0.000000 0.000000
vn 1.000000 0.000000 0.000000
vn 1.000000 0.000000 0.000000
vn 0.000000 0.734609 -0.678491
vn 0.000000 0.734609 -0.678491
vn 0.000000 0.734609 -0.678491
vn 0.000000 0.734609 -0.678491
vn -1.000000 0.000000 0.000000
vn -1.000000 0.000000 0.000000
vn -1.000000 0.000000 0.000000
vn -1.000000 0.000000 0.000000
vn 0.000000 -0.734600 -0.678500
vn 0.000000 -0.734600 -0.678500
vn 0.000000 -0.734600 -0.678500
vn 0.000000 -0.734600 -0.678500
vn 0.000000 0.734603 0.678497
vn 0.000000 0.734603 0.678497
vn 0.000000 0.734603 0.678497
vn 0.000000 0.734603 0.678497
vn -0.362350 0.932042 0.000000
vn -0.362350 0.932042 0.000000
vn -0.362350 0.932042 0.000000
vn -0.362350 0.932042 0.000000
vn 0.961735 0.273983 0.000000
vn 0.961735 0.273983 0.000000
vn 0.961735 0.273983 0.000000
vn 0.961735 0.273983 0.000000
vn 0.362349 -0.932043 0.000005
vn 0.362349 -0.932043 0.000005
vn 0.362349 -0.932043 0.000005
vn 0.362349 -0.932043 0.000005
vn -0.961778 -0.273831 0.000001
vn -0.961778 -0.273831 0.000001
vn -0.961778 -0.273831 0.000001
vn -0.961778 -0.273831 0.000001
vn 0.000000 0.000000 -1.000000
vn 0.000000 0.000000 -1.000000
vn 0.000000 0.000000 -1.000000
vn 0.000000 0.000000 -1.000000
vn -0.000000 0.000000 1.000000
vn -0.000000 0.000000 1.000000
vn -0.000000 0.000000 1.000000
vn -0.000000 0.000000 1.000000
vn 0.362349 0.932043 0.000000
vn 0.362349 0.932043 0.000000
vn 0.362349 0.932043 0.000000
vn 0.362349 0.932043 0.000000
vn -0.961756 0.273907 0.000000
vn -0.961756 0.273907 0.000000
vn -0.961756 0.273907 0.000000
vn -0.961756 0.273907 0.000000
vn -0.362348 -0.932043 0.000005
vn -0.362348 -0.932043 0.000005
vn -0.362348 -0.932043 0.000005
vn -0.362348 -0.932043 0.000005
vn 0.961778 -0.273831 0.000001
vn 0.961778 -0.273831 0.000001
vn 0.961778 -0.273831 0.000001
vn 0.961778 -0.273831 0.000001
vn 0.000000 0.000000 -1.000000
vn 0.000000 0.000000 -1.000000
vn 0.000000 0.000000 -1.000000
vn 0.000000 0.000000 -1.000000
vn 0.000000 0.000000 1.000000
vn 0.000000 0.000000 1.000000
vn 0.000000 0.000000 1.000000
vn 0.000000 0.000000 1.000000
vn -0.991925 -0.125292 0.019642
vn -0.992596 -0.121134 0.008983
vn -0.992596 -0.121134 0.008983
vn -0.991925 -0.125292 0.019642
vn -0.993101 -0.117215 0.003337
vn -0.993101 -0.117215 0.003337
vn 0.000000 0.987878 -0.155231
vn 0.000000 0.987878 -0.155231
vn 0.000000 0.997065 -0.076564
vn 0.000000 0.997065 -0.076564
vn 0.000000 0.999323 -0.036790
vn 0.000000 0.999323 -0.036790
vn 0.991908 -0.125430 0.019667
vn 0.992576 -0.121289 0.009005
vn 0.992576 -0.121289 0.009005
vn 0.991908 -0.125430 0.019667
vn 0.993086 -0.117340 0.003361
vn 0.993086 -0.117340 0.003361
vn 0.000000 -0.997659 0.068388
vn 0.000000 -0.988080 0.153939
vn 0.000000 -0.988080 0.153939
vn 0.000000 -0.997659 0.068388
vn 0.000000 -0.999790 0.020468
vn 0.000000 -0.999790 0.020468
vn 0.000000 -0.327604 -0.944815
vn 0.000000 -0.327604 -0.944815
vn 0.000000 -0.327604 -0.944815
vn 0.000000 -0.327604 -0.944815
vn 0.000000 -0.981492 0.191504
vn 0.000000 -0.981492 0.191504
vn -0.991783 -0.125533 0.024654
vn -0.991783 -0.125533 0.024654
vn 0.000000 0.981001 -0.194005
vn 0.000000 0.981001 -0.194005
vn 0.991771 -0.125624 0.024686
vn 0.991771 -0.125624 0.024686
vn -0.991726 -0.126909 0.019341
vn -0.991907 -0.126670 0.008662
vn -0.991907 -0.126670 0.008662
vn -0.991726 -0.126909 0.019341
vn -0.992145 -0.125054 0.003297
vn -0.992145 -0.125054 0.003297
vn 0.000000 0.988694 -0.149949
vn 0.000000 0.988694 -0.149949
vn 0.000000 0.997608 -0.069125
vn 0.000000 0.997608 -0.069125
vn 0.000000 0.999470 -0.032563
vn 0.000000 0.999470 -0.032563
vn 0.991707 -0.127049 0.019365
vn 0.991886 -0.126831 0.008683
vn 0.991886 -0.126831 0.008683
vn 0.991707 -0.127049 0.019365
vn 0.992128 -0.125187 0.003321
vn 0.992128 -0.125187 0.003321
vn 0.000000 -0.997806 0.066201
vn 0.000000 -0.988415 0.151773
vn 0.000000 -0.988415 0.151773
vn 0.000000 -0.997806 0.066201
vn 0.000000 -0.999790 0.020468
vn 0.000000 -0.999790 0.020468
vn 0.000000 -0.327603 -0.944816
vn 0.000000 -0.327603 -0.944816
vn 0.000000 -0.327603 -0.944816
vn 0.000000 -0.327603 -0.944816
vn 0.000000 -0.981492 0.191504
vn 0.000000 -0.981492 0.191504
vn -0.991783 -0.125533 0.024654
vn -0.991783 -0.125533 0.024654
vn 0.000000 0.981001 -0.194005
vn 0.000000 0.981001 -0.194005
vn 0.991771 -0.125624 0.024686
vn 0.991771 -0.125624 0.024686
vn -0.680063 0.000000 -0.733154
vn -0.680063 0.000000 -0.733154
vn -0.680063 0.000000 -0.733154
vn -0.680063 0.000000 -0.733154
vn 0.000000 0.999990 0.004380
vn 0.000000 0.999990 0.004380
vn 0.000000 0.999990 0.004380
vn 0.000000 0.999990 0.004380
vn 0.680063 0.000000 0.733154
vn 0.680063 0.000000 0.733154
vn 0.680063 0.000000 0.733154
vn 0.680063 0.000000 0.733154
vn 0.000000 -0.999990 -0.004380
vn 0.000000 -0.999990 -0.004380
vn 0.000000 -0.999990 -0.004380
vn 0.000000 -0.999990 -0.004380
vn -0.680077 0.000000 0.733141
vn -0.680077 0.000000 0.733141
vn -0.680077 0.000000 0.733141
vn -0.680077 0.000000 0.733141
vn 0.680077 0.000000 -0.733141
vn 0.680077 0.000000 -0.733141
vn 0.680077 0.000000 -0.733141
vn 0.680077 0.000000 -0.733141
vn -0.680066 0.000000 -0.733151
vn -0.680066 0.000000 -0.733151
vn -0.680066 0.000000 -0.733151
vn -0.680066 0.000000 -0.733151
vn 0.000000 0.999990 0.004380
vn 0.000000 0.999990 0.004380
vn 0.000000 0.999990 0.004380
vn 0.000000 0.999990 0.004380
vn 0.680058 0.000000 0.733158
vn 0.680058 0.000000 0.733158
vn 0.680058 0.000000 0.733158
vn 0.680058 0.000000 0.733158
vn 0.000000 -0.999990 -0.004380
vn 0.000000 -0.999990 -0.004380
vn 0.000000 -0.999990 -0.004380
vn 0.000000 -0.999990 -0.004380
vn -0.680070 0.000000 0.733147
vn -0.680070 0.000000 0.733147
vn -0.680070 0.000000 0.733147
vn -0.680070 0.000000 0.733147
vn 0.680080 0.000000 -0.733138
vn 0.680080 0.000000 -0.733138
vn 0.680080 0.000000 -0.733138
vn 0.680080 0.000000 -0.733138
vn -0.998701 -0.050269 0.008345
vn -0.998734 -0.050223 0.002783
vn -0.998734 -0.050223 0.002783
vn -0.998701 -0.050269 0.008345
vn -0.999159 -0.040963 -0.001889
vn -0.999159 -0.040963 -0.001889
vn 0.109809 0.980243 -0.164516
vn 0.110593 0.989905 -0.088646
vn 0.055381 0.994481 -0.089110
vn 0.054988 0.984715 -0.165263
vn 0.110108 0.993498 -0.028952
vn 0.055138 0.998053 -0.029159
vn 0.998700 -0.050289 0.008345
vn 0.998723 -0.050139 0.006234
vn 0.998723 -0.050139 0.006234
vn 0.998700 -0.050289 0.008345
vn 0.999161 -0.040868 0.002770
vn 0.999161 -0.040868 0.002770
vn 0.063077 -0.985008 0.160564
vn 0.063474 -0.993965 0.089473
vn 0.126692 -0.987942 0.088994
vn 0.125903 -0.979119 0.159607
vn 0.197378 -0.980145 0.018903
vn 0.394584 -0.918845 0.005185
vn 0.000957 -0.258128 -0.966110
vn 0.001913 -0.241632 -0.970366
vn 0.001913 -0.241632 -0.970366
vn 0.000957 -0.258128 -0.966110
vn 0.125003 -0.972114 0.198413
vn 0.062625 -0.977877 0.199588
vn -0.998669 -0.050484 0.010559
vn -0.998669 -0.050484 0.010559
vn 0.054527 0.976426 -0.208852
vn 0.108892 0.972066 -0.207920
vn 0.998667 -0.050521 0.010559
vn 0.998667 -0.050521 0.010559
vn -0.053839 0.984778 -0.165271
vn -0.053387 0.976487 -0.208860
vn -0.000937 -0.258129 -0.966110
vn -0.000937 -0.258129 -0.966110
vn -0.061317 -0.977957 0.199603
vn -0.061760 -0.985089 0.160577
vn -0.062482 -0.994038 0.089355
vn -0.198223 -0.979980 0.018613
vn -0.055140 0.998049 -0.029307
vn -0.054511 0.994519 -0.089222
vn -0.107520 0.980491 -0.164552
vn -0.106621 0.972308 -0.207964
vn -0.001873 -0.241634 -0.970366
vn -0.001873 -0.241634 -0.970366
vn -0.122403 -0.972432 0.198476
vn -0.123284 -0.979444 0.159658
vn -0.124720 -0.988213 0.088769
vn -0.396385 -0.918073 0.004584
vn -0.110112 0.993489 -0.029247
vn -0.108860 0.990076 -0.088878
vn -0.991929 -0.125263 0.019642
vn -0.992595 -0.121136 0.008983
vn -0.992595 -0.121136 0.008983
vn -0.991929 -0.125263 0.019642
vn -0.993100 -0.117222 0.003337
vn -0.993100 -0.117222 0.003337
vn 0.000000 0.987878 -0.155231
vn 0.000000 0.987878 -0.155231
vn 0.000000 0.997065 -0.076564
vn 0.000000 0.997065 -0.076564
vn 0.000000 0.999323 -0.036790
vn 0.000000 0.999323 -0.036790
vn 0.991904 -0.125459 0.019667
vn 0.992577 -0.121288 0.009005
vn 0.992577 -0.121288 0.009005
vn 0.991904 -0.125459 0.019667
vn 0.993087 -0.117333 0.003361
vn 0.993087 -0.117333 0.003361
vn 0.000000 -0.997659 0.068388
vn 0.000000 -0.988080 0.153939
vn 0.000000 -0.988080 0.153939
vn 0.000000 -0.997659 0.068388
vn 0.000000 -0.999790 0.020468
vn 0.000000 -0.999790 0.020468
vn 0.000000 -0.327627 -0.944807
vn 0.000000 -0.327627 -0.944807
vn 0.000000 -0.327627 -0.944807
vn 0.000000 -0.327627 -0.944807
vn 0.000000 -0.981492 0.191504
vn 0.000000 -0.981492 0.191504
vn -0.991790 -0.125479 0.024655
vn -0.991790 -0.125479 0.024655
vn 0.000000 0.981001 -0.194005
vn 0.000000 0.981001 -0.194005
vn 0.991764 -0.125678 0.024686
vn 0.991764 -0.125678 0.024686
vn -0.991729 -0.126880 0.019341
vn -0.991907 -0.126671 0.008662
vn -0.991907 -0.126671 0.008662
vn -0.991729 -0.126880 0.019341
vn -0.992144 -0.125061 0.003297
vn -0.992144 -0.125061 0.003297
vn 0.000000 0.988694 -0.149949
vn 0.000000 0.988694 -0.149949
vn 0.000000 0.997608 -0.069125
vn 0.000000 0.997608 -0.069125
vn 0.000000 0.999470 -0.032563
vn 0.000000 0.999470 -0.032563
vn 0.991704 -0.127078 0.019365
vn 0.991887 -0.126829 0.008683
vn 0.991887 -0.126829 0.008683
vn 0.991704 -0.127078 0.019365
vn 0.992129 -0.125180 0.003321
vn 0.992129 -0.125180 0.003321
vn 0.000000 -0.997806 0.066201
vn 0.000000 -0.988415 0.151773
vn 0.000000 -0.988415 0.151773
vn 0.000000 -0.997806 0.066201
vn 0.000000 -0.999790 0.020468
vn 0.000000 -0.999790 0.020468
vn 0.000000 -0.327627 -0.944807
vn 0.000000 -0.327627 -0.944807
vn 0.000000 -0.327627 -0.944807
vn 0.000000 -0.327627 -0.944807
vn 0.000000 -0.981492 0.191504
vn 0.000000 -0.981492 0.191504
vn -0.991790 -0.125479 0.024655
vn -0.991790 -0.125479 0.024655
vn 0.000000 0.981001 -0.194005
vn 0.000000 0.981001 -0.194005
vn 0.991764 -0.125678 0.024686
vn 0.991764 -0.125678 0.024686
vn -0.680063 0.000000 -0.733154
vn -0.680063 0.000000 -0.733154
vn -0.680063 0.000000 -0.733154
vn -0.680063 0.000000 -0.733154
vn 0.000000 0.999990 0.004380
vn 0.000000 0.999990 0.004380
vn 0.000000 0.999990 0.004380
vn 0.000000 0.999990 0.004380
vn 0.680063 0.000000 0.733154
vn 0.680063 0.000000 0.733154
vn 0.680063 0.000000 0.733154
vn 0.680063 0.000000 0.733154
vn 0.000000 -0.999990 -0.004380
vn 0.000000 -0.999990 -0.004380
vn 0.000000 -0.999990 -0.004380
vn 0.000000 -0.999990 -0.004380
vn -0.680077 0.000000 0.733141
vn -0.680077 0.000000 0.733141
vn -0.680077 0.000000 0.733141
vn -0.680077 0.000000 0.733141
vn 0.680077 0.000000 -0.733141
vn 0.680077 0.000000 -0.733141
vn 0.680077 0.000000 -0.733141
vn 0.680077 0.000000 -0.733141
vn -0.680066 0.000000 -0.733151
vn -0.680066 0.000000 -0.733151
vn -0.680066 0.000000 -0.733151
vn -0.680066 0.000000 -0.733151
vn 0.000000 0.999990 0.004380
vn 0.000000 0.999990 0.004380
vn 0.000000 0.999990 0.004380
vn 0.000000 0.999990 0.004380
vn 0.680058 0.000000 0.733158
vn 0.680058 0.000000 0.733158
vn 0.680058 0.000000 0.733158
vn 0.680058 0.000000 0.733158
vn 0.000000 -0.999990 -0.004380
vn 0.000000 -0.999990 -0.004380
vn 0.000000 -0.999990 -0.004380
vn 0.000000 -0.999990 -0.004380
vn -0.680070 0.000000 0.733147
vn -0.680070 0.000000 0.733147
vn -0.680070 0.000000 0.733147
vn -0.680070 0.000000 0.733147
vn 0.680080 0.000000 -0.733138
vn 0.680080 0.000000 -0.733138
vn 0.680080 0.000000 -0.733138
vn 0.680080 0.000000 -0.733138
vn 0.000000 -0.999997 0.002303
vn 0.000000 -0.999997 0.002303
vn 0.000000 -0.999997 0.002303
vn 0.000000 -0.999997 0.002303
vn 0.993274 -0.115787 -0.000935
vn 0.993274 -0.115787 -0.000935
vn 0.993274 -0.115787 -0.000935
vn 0.993274 -0.115787 -0.000935
vn 0.000000 1.000000 0.000009
vn 0.000000 1.000000 0.000009
vn 0.000000 1.000000 0.000009
vn 0.000000 1.000000 0.000009
vn -0.993257 -0.115923 0.001201
vn -0.993257 -0.115923 0.001201
vn -0.993257 -0.115923 0.001201
vn -0.993257 -0.115923 0.001201
vn 0.000000 -0.999996 0.002681
vn 0.000000 -0.999996 0.002681
vn 0.000000 -0.999996 0.002681
vn 0.000000 -0.999996 0.002681
vn 0.991994 -0.126280 -0.000891
vn 0.991994 -0.126280 -0.000891
vn 0.991994 -0.126280 -0.000891
vn 0.991994 -0.126280 -0.000891
vn 0.000000 1.000000 -0.000106
vn 0.000000 1.000000 -0.000106
vn 0.000000 1.000000 -0.000106
vn 0.000000 1.000000 -0.000106
vn -0.991975 -0.126428 0.001243
vn -0.991975 -0.126428 0.001243
vn -0.991975 -0.126428 0.001243
vn -0.991975 -0.126428 0.001243
vn 0.680006 0.000000 0.733207
vn 0.680006 0.000000 0.733207
vn 0.680006 0.000000 0.733207
vn 0.680006 0.000000 0.733207
vn 0.000000 0.999990 0.004381
vn 0.000000 0.999990 0.004381
vn 0.000000 0.999990 0.004381
vn 0.000000 0.999990 0.004381
vn -0.680064 0.000000 -0.733153
vn -0.680064 0.000000 -0.733153
vn -0.680064 0.000000 -0.733153
vn -0.680064 0.000000 -0.733153
vn -0.000000 -0.999990 -0.004379
vn -0.000000 -0.999990 -0.004379
vn -0.000000 -0.999990 -0.004379
vn -0.000000 -0.999990 -0.004379
vn 0.680014 0.000000 -0.733199
vn 0.680014 0.000000 -0.733199
vn 0.680014 0.000000 -0.733199
vn 0.680014 0.000000 -0.733199
vn -0.680075 0.000000 0.733143
vn -0.680075 0.000000 0.733143
vn -0.680075 0.000000 0.733143
vn -0.680075 0.000000 0.733143
vn -0.636885 -0.770956 0.002114
vn -0.338196 -0.941073 0.002111
vn 0.999499 -0.031658 -0.000428
vn 0.999499 -0.031658 -0.000428
vn -0.055604 0.998453 -0.000079
vn -0.111036 0.993816 -0.000037
vn -0.999498 -0.031677 0.000530
vn -0.999498 -0.031677 0.000530
vn 0.054727 0.998501 -0.000161
vn 0.334512 -0.942390 0.001676
vn 0.109289 0.994010 -0.000200
vn 0.630809 -0.775937 0.001300
vn 0.108978 0.993828 0.020739
vn 0.054570 0.998288 0.021058
vn -0.055739 0.998214 0.021510
vn -0.111304 0.993551 0.021638
vn 0.999135 -0.041376 -0.004269
vn 0.999135 -0.041376 -0.004269
vn -0.398426 -0.917200 0.001001
vn -0.199286 -0.979851 -0.013292
vn 0.196264 -0.980447 -0.014283
vn 0.392426 -0.919783 -0.001014
vn -0.999128 -0.041564 0.004001
vn -0.999128 -0.041564 0.004001
vn 0.000000 -0.999997 0.002303
vn 0.000000 -0.999997 0.002303
vn 0.000000 -0.999997 0.002303
vn 0.000000 -0.999997 0.002303
vn 0.993266 -0.115855 -0.000935
vn 0.993266 -0.115855 -0.000935
vn 0.993266 -0.115855 -0.000935
vn 0.993266 -0.115855 -0.000935
vn 0.000000 1.000000 0.000009
vn 0.000000 1.000000 0.000009
vn 0.000000 1.000000 0.000009
vn 0.000000 1.000000 0.000009
vn -0.993258 -0.115923 0.001201
vn -0.993258 -0.115923 0.001201
vn -0.993258 -0.115923 0.001201
vn -0.993258 -0.115923 0.001201
vn 0.000000 -0.999996 0.002681
vn 0.000000 -0.999996 0.002681
vn 0.000000 -0.999996 0.002681
vn 0.000000 -0.999996 0.002681
vn 0.991985 -0.126354 -0.000891
vn 0.991985 -0.126354 -0.000891
vn 0.991985 -0.126354 -0.000891
vn 0.991985 -0.126354 -0.000891
vn 0.000000 1.000000 -0.000106
vn 0.000000 1.000000 -0.000106
vn 0.000000 1.000000 -0.000106
vn 0.000000 1.000000 -0.000106
vn -0.991975 -0.126428 0.001243
vn -0.991975 -0.126428 0.001243
vn -0.991975 -0.126428 0.001243
vn -0.991975 -0.126428 0.001243
vn 0.680006 0.000000 0.733207
vn 0.680006 0.000000 0.733207
vn 0.680006 0.000000 0.733207
vn 0.680006 0.000000 0.733207
vn 0.000000 0.999990 0.004381
vn 0.000000 0.999990 0.004381
vn 0.000000 0.999990 0.004381
vn 0.000000 0.999990 0.004381
vn -0.680064 0.000000 -0.733153
vn -0.680064 0.000000 -0.733153
vn -0.680064 0.000000 -0.733153
vn -0.680064 0.000000 -0.733153
vn -0.000000 -0.999990 -0.004379
vn -0.000000 -0.999990 -0.004379
vn -0.000000 -0.999990 -0.004379
vn -0.000000 -0.999990 -0.004379
vn 0.680014 0.000000 -0.733199
vn 0.680014 0.000000 -0.733199
vn 0.680014 0.000000 -0.733199
vn 0.680014 0.000000 -0.733199
vn -0.680075 0.000000 0.733143
vn -0.680075 0.000000 0.733143
vn -0.680075 0.000000 0.733143
vn -0.680075 0.000000 0.733143
vn 0.680006 0.000000 0.733206
vn 0.680006 0.000000 0.733206
vn 0.680006 0.000000 0.733206
vn 0.680006 0.000000 0.733206
vn 0.000000 1.000000 0.000001
vn 0.000000 1.000000 0.000001
vn 0.000000 1.000000 0.000001
vn 0.000000 1.000000 0.000001
vn -0.680063 -0.000001 -0.733154
vn -0.680063 -0.000001 -0.733154
vn -0.680063 -0.000001 -0.733154
vn -0.680063 -0.000001 -0.733154
vn 0.000000 -1.000000 0.000000
vn 0.000000 -1.000000 0.000000
vn 0.000000 -1.000000 0.000000
vn 0.000000 -1.000000 0.000000
vn 0.680014 0.000000 -0.733199
vn 0.680014 0.000000 -0.733199
vn 0.680014 0.000000 -0.733199
vn 0.680014 0.000000 -0.733199
vn -0.680077 0.000001 0.733141
vn -0.680077 0.000001 0.733141
vn -0.680077 0.000001 0.733141
vn -0.680077 0.000001 0.733141
vn 0.680006 0.000000 0.733206
vn 0.680006 0.000000 0.733206
vn 0.680006 0.000000 0.733206
vn 0.680006 0.000000 0.733206
vn 0.000000 1.000000 0.000001
vn 0.000000 1.000000 0.000001
vn 0.000000 1.000000 0.000001
vn 0.000000 1.000000 0.000001
vn -0.680063 -0.000003 -0.733154
vn -0.680063 -0.000003 -0.733154
vn -0.680063 -0.000003 -0.733154
vn -0.680063 -0.000003 -0.733154
vn 0.000000 -1.000000 0.000000
vn 0.000000 -1.000000 0.000000
vn 0.000000 -1.000000 0.000000
vn 0.000000 -1.000000 0.000000
vn 0.680014 0.000000 -0.733199
vn 0.680014 0.000000 -0.733199
vn 0.680014 0.000000 -0.733199
vn 0.680014 0.000000 -0.733199
vn -0.680077 0.000000 0.733141
vn -0.680077 0.000000 0.733141
vn -0.680077 0.000000 0.733141
vn -0.680077 0.000000 0.733141
vn 0.999930 0.011848 0.000025
vn 0.999930 0.011848 0.000025
vn 0.999930 0.011848 0.000025
vn 0.999930 0.011848 0.000025
vn 0.004543 -0.999987 -0.002157
vn 0.004543 -0.999987 -0.002157
vn 0.004543 -0.999987 -0.002157
vn 0.004543 -0.999987 -0.002157
vn 0.000218 -0.118384 -0.992968
vn 0.000218 -0.118384 -0.992968
vn 0.000218 -0.118384 -0.992968
vn 0.000218 -0.118384 -0.992968
vn 0.000860 0.999997 0.002164
vn 0.000860 0.999997 0.002164
vn 0.000860 0.999997 0.002164
vn 0.000860 0.999997 0.002164
vn 0.000218 -0.118445 0.992961
vn 0.000218 -0.118445 0.992961
vn 0.000218 -0.118445 0.992961
vn 0.000218 -0.118445 0.992961
vn -1.000000 0.000000 0.000000
vn -1.000000 0.000000 0.000000
vn -1.000000 0.000000 0.000000
vn -1.000000 0.000000 0.000000
vn 0.707077 0.000000 0.707137
vn 0.707077 0.000000 0.707137
vn 0.707077 0.000000 0.707137
vn 0.707077 0.000000 0.707137
vn 0.000050 0.999998 0.001949
vn 0.000050 0.999998 0.001949
vn 0.000050 0.999998 0.001949
vn 0.000050 0.999998 0.001949
vn -0.707133 -0.000000 -0.707080
vn -0.707133 -0.000000 -0.707080
vn -0.707133 -0.000000 -0.707080
vn -0.707133 -0.000000 -0.707080
vn 0.000000 -1.000000 -0.000003
vn 0.000000 -1.000000 -0.000003
vn 0.000000 -1.000000 -0.000003
vn 0.000000 -1.000000 -0.000003
vn 0.707085 0.000000 -0.707128
vn 0.707085 0.000000 -0.707128
vn 0.707085 0.000000 -0.707128
vn 0.707085 0.000000 -0.707128
vn -0.707145 0.000000 0.707069
vn -0.707145 0.000000 0.707069
vn -0.707145 0.000000 0.707069
vn -0.707145 0.000000 0.707069
vn 0.707077 0.000000 0.707137
vn 0.707077 0.000000 0.707137
vn 0.707077 0.000000 0.707137
vn 0.707077 0.000000 0.707137
vn 0.000050 0.999998 0.001950
vn 0.000050 0.999998 0.001950
vn 0.000050 0.999998 0.001950
vn 0.000050 0.999998 0.001950
vn -0.707133 0.000000 -0.707080
vn -0.707133 0.000000 -0.707080
vn -0.707133 0.000000 -0.707080
vn -0.707133 0.000000 -0.707080
vn 0.000000 -1.000000 -0.000003
vn 0.000000 -1.000000 -0.000003
vn 0.000000 -1.000000 -0.000003
vn 0.000000 -1.000000 -0.000003
vn 0.707085 0.000000 -0.707128
vn 0.707085 0.000000 -0.707128
vn 0.707085 0.000000 -0.707128
vn 0.707085 0.000000 -0.707128
vn -0.707145 0.000000 0.707069
vn -0.707145 0.000000 0.707069
vn -0.707145 0.000000 0.707069
vn -0.707145 0.000000 0.707069
vn 0.991908 -0.125343 -0.020191
vn 0.992181 -0.124254 -0.011766
vn 0.992181 -0.124254 -0.011766
vn 0.991908 -0.125343 -0.020191
vn 0.992331 -0.123326 -0.008355
vn 0.992331 -0.123326 -0.008355
vn 0.000000 0.987208 0.159439
vn 0.000000 0.987208 0.159439
vn 0.000000 0.997508 0.070561
vn 0.000000 0.997508 0.070561
vn 0.000000 0.999791 0.020445
vn 0.000000 0.999791 0.020445
vn -0.991897 -0.125430 -0.020216
vn -0.992229 -0.124291 -0.005742
vn -0.992229 -0.124291 -0.005742
vn -0.991897 -0.125430 -0.020216
vn -0.992354 -0.123368 0.003712
vn -0.992354 -0.123368 0.003712
vn 0.000000 -0.997623 -0.068913
vn 0.000000 -0.987414 -0.158155
vn 0.000000 -0.987414 -0.158155
vn 0.000000 -0.997623 -0.068913
vn 0.000000 -0.999852 -0.017196
vn 0.000000 -0.999852 -0.017196
vn 0.000000 -0.328050 0.944660
vn 0.000000 -0.328050 0.944660
vn 0.000000 -0.328050 0.944660
vn 0.000000 -0.328050 0.944660
vn 0.000000 -0.980677 -0.195636
vn 0.000000 -0.980677 -0.195636
vn 0.991773 -0.125501 -0.025204
vn 0.991773 -0.125501 -0.025204
vn 0.000000 0.980175 0.198132
vn 0.000000 0.980175 0.198132
vn -0.991753 -0.125653 -0.025236
vn -0.991753 -0.125653 -0.025236
vn 0.991591 -0.127872 -0.019885
vn 0.991113 -0.132517 -0.011629
vn 0.991113 -0.132517 -0.011629
vn 0.991591 -0.127872 -0.019885
vn 0.990836 -0.134793 -0.008692
vn 0.990836 -0.134793 -0.008692
vn 0.000000 0.988310 0.152459
vn 0.000000 0.988310 0.152459
vn 0.000000 0.997987 0.063417
vn 0.000000 0.997987 0.063417
vn 0.000000 0.999795 0.020257
vn 0.000000 0.999795 0.020257
vn -0.991580 -0.127959 -0.019910
vn -0.991160 -0.132556 -0.005614
vn -0.991160 -0.132556 -0.005614
vn -0.991580 -0.127959 -0.019910
vn -0.990862 -0.134840 0.003356
vn -0.990862 -0.134840 0.003356
vn 0.000000 -0.997700 -0.067791
vn 0.000000 -0.987758 -0.155993
vn 0.000000 -0.987758 -0.155993
vn 0.000000 -0.997700 -0.067791
vn 0.000000 -0.999813 -0.019326
vn 0.000000 -0.999813 -0.019326
vn 0.000000 -0.328050 0.944660
vn 0.000000 -0.328050 0.944660
vn 0.000000 -0.328050 0.944660
vn 0.000000 -0.328050 0.944660
vn 0.000000 -0.980677 -0.195636
vn 0.000000 -0.980677 -0.195636
vn 0.991773 -0.125501 -0.025204
vn 0.991773 -0.125501 -0.025204
vn 0.000000 0.980175 0.198132
vn 0.000000 0.980175 0.198132
vn -0.991753 -0.125653 -0.025236
vn -0.991753 -0.125653 -0.025236
vn 0.680003 0.000000 0.733209
vn 0.680003 0.000000 0.733209
vn 0.680003 0.000000 0.733209
vn 0.680003 0.000000 0.733209
vn 0.000000 1.000000 0.000000
vn 0.000000 1.000000 0.000000
vn 0.000000 1.000000 0.000000
vn 0.000000 1.000000 0.000000
vn -0.680061 0.000000 -0.733155
vn -0.680061 0.000000 -0.733155
vn -0.680061 0.000000 -0.733155
vn -0.680061 0.000000 -0.733155
vn 0.000000 -1.000000 0.000000
vn 0.000000 -1.000000 0.000000
vn 0.000000 -1.000000 0.000000
vn 0.000000 -1.000000 0.000000
vn 0.680013 0.000000 -0.733200
vn 0.680013 0.000000 -0.733200
vn 0.680013 0.000000 -0.733200
vn 0.680013 0.000000 -0.733200
vn -0.680075 0.000000 0.733143
vn -0.680075 0.000000 0.733143
vn -0.680075 0.000000 0.733143
vn -0.680075 0.000000 0.733143
vn 0.680010 0.000000 0.733203
vn 0.680010 0.000000 0.733203
vn 0.680010 0.000000 0.733203
vn 0.680010 0.000000 0.733203
vn 0.000000 1.000000 0.000000
vn 0.000000 1.000000 0.000000
vn 0.000000 1.000000 0.000000
vn 0.000000 1.000000 0.000000
vn -0.680062 0.000000 -0.733155
vn -0.680062 0.000000 -0.733155
vn -0.680062 0.000000 -0.733155
vn -0.680062 0.000000 -0.733155
vn 0.000000 -1.000000 0.000000
vn 0.000000 -1.000000 0.000000
vn 0.000000 -1.000000 0.000000
vn 0.000000 -1.000000 0.000000
vn 0.680009 0.000000 -0.733204
vn 0.680009 0.000000 -0.733204
vn 0.680009 0.000000 -0.733204
vn 0.680009 0.000000 -0.733204
vn -0.680077 0.000000 0.733141
vn -0.680077 0.000000 0.733141
vn -0.680077 0.000000 0.733141
vn -0.680077 0.000000 0.733141
vn 0.998701 -0.050237 -0.008554
vn 0.998698 -0.050482 -0.007410
vn 0.998698 -0.050482 -0.007410
vn 0.998701 -0.050237 -0.008554
vn -0.109736 0.979544 0.168678
vn -0.110940 0.990317 0.083450
vn -0.055557 0.994944 0.083670
vn -0.054951 0.984007 0.169444
vn -0.998699 -0.050269 -0.008565
vn -0.998714 -0.050678 -0.001310
vn -0.998714 -0.050678 -0.001310
vn -0.998699 -0.050269 -0.008565
vn -0.063030 -0.984318 -0.164759
vn -0.063648 -0.994052 -0.088377
vn -0.127038 -0.988018 -0.087643
vn -0.125809 -0.978442 -0.163780
vn -0.000957 -0.258412 0.966034
vn -0.001914 -0.241880 0.970304
vn -0.001914 -0.241880 0.970304
vn -0.000957 -0.258412 0.966034
vn -0.124891 -0.971285 -0.202504
vn -0.062568 -0.977033 -0.203698
vn 0.998668 -0.050453 -0.010766
vn 0.998668 -0.050453 -0.010766
vn -0.054483 0.975546 0.212938
vn -0.108804 0.971196 0.211991
vn -0.998667 -0.050482 -0.010780
vn -0.998667 -0.050482 -0.010780
vn 0.053798 0.984068 0.169456
vn 0.053337 0.975607 0.212948
vn 0.000937 -0.258410 0.966035
vn 0.000937 -0.258410 0.966035
vn 0.061259 -0.977113 -0.203709
vn 0.061713 -0.984400 -0.164769
vn 0.062317 -0.994101 -0.088772
vn 0.054394 0.995035 0.083345
vn 0.107439 0.979791 0.168722
vn 0.106521 0.971439 0.212038
vn 0.001873 -0.241876 0.970305
vn 0.001873 -0.241876 0.970305
vn 0.122288 -0.971605 -0.202558
vn 0.123190 -0.978767 -0.163827
vn 0.124390 -0.988284 -0.088447
vn 0.108627 0.990627 0.082811
vn 0.991915 -0.125288 -0.020191
vn 0.992190 -0.124176 -0.011766
vn 0.992190 -0.124176 -0.011766
vn 0.991915 -0.125288 -0.020191
vn 0.992340 -0.123256 -0.008355
vn 0.992340 -0.123256 -0.008355
vn 0.000000 0.987208 0.159439
vn 0.000000 0.987208 0.159439
vn 0.000000 0.997508 0.070561
vn 0.000000 0.997508 0.070561
vn 0.000000 0.999791 0.020445
vn 0.000000 0.999791 0.020445
vn -0.991890 -0.125484 -0.020216
vn -0.992226 -0.124318 -0.005742
vn -0.992226 -0.124318 -0.005742
vn -0.991890 -0.125484 -0.020216
vn -0.992358 -0.123337 0.003712
vn -0.992358 -0.123337 0.003712
vn 0.000000 -0.997623 -0.068913
vn 0.000000 -0.987414 -0.158155
vn 0.000000 -0.987414 -0.158155
vn 0.000000 -0.997623 -0.068913
vn 0.000000 -0.999852 -0.017196
vn 0.000000 -0.999852 -0.017196
vn 0.000000 -0.328050 0.944660
vn 0.000000 -0.328050 0.944660
vn 0.000000 -0.328050 0.944660
vn 0.000000 -0.328050 0.944660
vn 0.000000 -0.980677 -0.195636
vn 0.000000 -0.980677 -0.195636
vn 0.991776 -0.125479 -0.025204
vn 0.991776 -0.125479 -0.025204
vn 0.000000 0.980175 0.198132
vn 0.000000 0.980175 0.198132
vn -0.991750 -0.125677 -0.025236
vn -0.991750 -0.125677 -0.025236
vn 0.991599 -0.127816 -0.019885
vn 0.991124 -0.132433 -0.011629
vn 0.991124 -0.132433 -0.011629
vn 0.991599 -0.127816 -0.019885
vn 0.990846 -0.134716 -0.008693
vn 0.990846 -0.134716 -0.008693
vn 0.000000 0.988310 0.152459
vn 0.000000 0.988310 0.152459
vn 0.000000 0.997987 0.063417
vn 0.000000 0.997987 0.063417
vn 0.000000 0.999795 0.020257
vn 0.000000 0.999795 0.020257
vn -0.991572 -0.128015 -0.019910
vn -0.991156 -0.132583 -0.005614
vn -0.991156 -0.132583 -0.005614
vn -0.991572 -0.128015 -0.019910
vn -0.990866 -0.134805 0.003356
vn -0.990866 -0.134805 0.003356
vn 0.000000 -0.997700 -0.067791
vn 0.000000 -0.987758 -0.155993
vn 0.000000 -0.987758 -0.155993
vn 0.000000 -0.997700 -0.067791
vn 0.000000 -0.999813 -0.019326
vn 0.000000 -0.999813 -0.019326
vn 0.000000 -0.328050 0.944660
vn 0.000000 -0.328050 0.944660
vn 0.000000 -0.328050 0.944660
vn 0.000000 -0.328050 0.944660
vn 0.000000 -0.980677 -0.195636
vn 0.000000 -0.980677 -0.195636
vn 0.991776 -0.125479 -0.025204
vn 0.991776 -0.125479 -0.025204
vn 0.000000 0.980175 0.198132
vn 0.000000 0.980175 0.198132
vn -0.991750 -0.125677 -0.025236
vn -0.991750 -0.125677 -0.025236
vn 0.680003 0.000000 0.733209
vn 0.680003 0.000000 0.733209
vn 0.680003 0.000000 0.733209
vn 0.680003 0.000000 0.733209
vn 0.000000 1.000000 0.000000
vn 0.000000 1.000000 0.000000
vn 0.000000 1.000000 0.000000
vn 0.000000 1.000000 0.000000
vn -0.680061 0.000000 -0.733155
vn -0.680061 0.000000 -0.733155
vn -0.680061 0.000000 -0.733155
vn -0.680061 0.000000 -0.733155
vn 0.000000 -1.000000 0.000000
vn 0.000000 -1.000000 0.000000
vn 0.000000 -1.000000 0.000000
vn 0.000000 -1.000000 0.000000
vn 0.680013 0.000000 -0.733200
vn 0.680013 0.000000 -0.733200
vn 0.680013 0.000000 -0.733200
vn 0.680013 0.000000 -0.733200
vn -0.680075 0.000000 0.733143
vn -0.680075 0.000000 0.733143
vn -0.680075 0.000000 0.733143
vn -0.680075 0.000000 0.733143
vn 0.680010 0.000000 0.733203
vn 0.680010 0.000000 0.733203
vn 0.680010 0.000000 0.733203
vn 0.680010 0.000000 0.733203
vn 0.000000 1.000000 0.000000
vn 0.000000 1.000000 0.000000
vn 0.000000 1.000000 0.000000
vn 0.000000 1.000000 0.000000
vn -0.680062 0.000000 -0.733155
vn -0.680062 0.000000 -0.733155
vn -0.680062 0.000000 -0.733155
vn -0.680062 0.000000 -0.733155
vn 0.000000 -1.000000 0.000000
vn 0.000000 -1.000000 0.000000
vn 0.000000 -1.000000 0.000000
vn 0.000000 -1.000000 0.000000
vn 0.680009 0.000000 -0.733204
vn 0.680009 0.000000 -0.733204
vn 0.680009 0.000000 -0.733204
vn 0.680009 0.000000 -0.733204
vn -0.680077 0.000000 0.733141
vn -0.680077 0.000000 0.733141
vn -0.680077 0.000000 0.733141
vn -0.680077 0.000000 0.733141
s off
g polySurface22645
f 1/1/1 2/2/2 4/4/3 3/3/4
f 3/3/5 4/4/6 6/6/7 5/5/8
f 5/5/9 6/6/10 8/8/11 7/7/12
f 7/7/13 8/8/14 2/10/15 1/9/16
f 2/2/17 8/11/18 6/12/19 4/4/20
f 7/13/21 1/1/22 3/3/23 5/14/24
f 9/15/25 11/18/26 12/17/27 10/16/28
f 11/18/29 13/20/30 14/19/31 12/17/32
f 13/20/33 15/22/34 16/21/35 14/19/36
f 15/22/37 9/24/38 10/23/39 16/21/40
f 10/16/41 12/17/42 14/26/43 16/25/44
f 15/27/45 13/28/46 11/18/47 9/15/48
f 17/29/49 18/30/50 20/31/51 19/32/52
f 19/32/53 20/31/54 22/33/55 21/34/56
f 21/34/57 22/33/58 24/35/59 23/36/60
f 23/36/61 24/35/62 18/37/63 17/38/64
f 18/30/65 24/39/66 22/40/67 20/31/68
f 23/41/69 17/29/70 19/32/71 21/42/72
f 25/43/73 26/44/74 28/45/75 27/46/76
f 27/46/77 28/45/78 30/47/79 29/48/80
f 29/48/81 30/47/82 32/49/83 31/50/84
f 31/50/85 32/49/86 26/51/87 25/52/88
f 26/44/89 32/53/90 30/54/91 28/45/92
f 31/55/93 25/43/94 27/46/95 29/56/96
f 33/57/97 35/58/98 36/59/99 34/60/100
f 35/58/101 37/61/102 38/62/103 36/59/104
f 37/61/105 39/63/106 40/64/107 38/62/108
f 39/63/109 33/65/110 34/66/111 40/64/112
f 34/60/113 36/59/114 38/67/115 40/68/116
f 39/69/117 37/70/118 35/58/119 33/57/120
f 41/71/121 42/72/122 44/73/123 43/74/124
f 43/74/125 44/73/126 46/75/127 45/76/128
f 45/76/129 46/75/130 48/77/131 47/78/132
f 47/78/133 48/77/134 42/79/135 41/80/136
f 42/72/137 48/81/138 46/82/139 44/73/140
f 47/83/141 41/71/142 43/74/143 45/84/144
f 49/85/145 50/86/146 52/87/147 51/88/148
f 51/88/149 52/87/150 54/89/151 53/90/152
f 53/90/153 54/89/154 56/91/155 55/92/156
f 55/92/157 56/91/158 50/93/159 49/94/160
f 50/86/161 56/95/162 54/96/163 52/87/164
f 55/97/165 49/85/166 51/88/167 53/98/168
f 57/99/169 59/100/170 60/101/171 58/102/172
f 59/100/173 61/103/174 62/104/175 60/101/176
f 61/103/177 63/105/178 64/106/179 62/104/180
f 63/105/181 57/107/182 58/108/183 64/106/184
f 58/102/185 60/101/186 62/109/187 64/110/188
f 63/111/189 61/112/190 59/100/191 57/99/192
f 65/113/193 66/114/194 68/115/195 67/116/196
f 67/116/197 68/115/198 70/117/199 69/118/200
f 69/118/201 70/117/202 72/119/203 71/120/204
f 71/120/205 72/119/206 66/121/207 65/122/208
f 66/114/209 72/123/210 70/124/211 68/115/212
f 71/125/213 65/113/214 67/116/215 69/126/216
f 73/127/217 74/128/218 76/129/219 75/130/220
f 75/130/221 76/129/222 78/131/223 77/132/224
f 77/132/225 78/131/226 80/133/227 79/134/228
f 79/134/229 80/133/230 74/135/231 73/136/232
f 74/128/233 80/137/234 78/138/235 76/129/236
f 79/139/237 73/127/238 75/130/239 77/140/240
f 81/141/241 83/142/242 84/143/243 82/144/244
f 83/142/245 85/145/246 86/146/247 84/143/248
f 85/145/249 87/147/250 88/148/251 86/146/252
f 87/147/253 81/149/254 82/150/255 88/148/256
f 82/144/257 84/143/258 86/151/259 88/152/260
f 87/153/261 85/154/262 83/142/263 81/141/264
f 89/155/265 90/156/266 92/157/267 91/158/268
f 91/158/269 92/157/270 94/159/271 93/160/272
f 93/160/273 94/159/274 96/161/275 95/162/276
f 95/162/277 96/161/278 90/163/279 89/164/280
f 90/156/281 96/165/282 94/166/283 92/157/284
f 95/167/285 89/155/286 91/158/287 93/168/288
s 73
f 97/169/289 98/170/290 101/171/291 100/172/292
f 98/170/290 99/173/293 102/174/294 101/171/291
s 74
f 103/175/295 100/172/296 101/171/297 104/176/298
f 101/171/297 102/174/299 105/177/300 104/176/298
s 75
f 103/175/301 104/176/302 107/178/303 106/179/304
f 104/176/302 105/177/305 108/180/306 107/181/303
s 76
f 98/170/307 97/169/308 106/182/309 107/183/310
f 99/173/311 98/170/307 107/184/310 108/185/312
s off
f 110/186/313 111/187/314 112/188/315 109/189/316
s 76
f 97/169/308 110/190/317 109/191/318 106/192/309
s 73
f 100/172/292 111/193/319 110/190/320 97/169/289
s 74
f 111/193/321 100/172/296 103/175/295 112/194/322
s 75
f 106/195/304 109/196/323 112/194/324 103/175/301
s 78
f 113/197/325 114/198/326 117/199/327 116/200/328
f 114/198/326 115/201/329 118/202/330 117/199/327
s 79
f 119/203/331 116/200/332 117/199/333 120/204/334
f 117/199/333 118/202/335 121/205/336 120/204/334
s 80
f 119/203/337 120/204/338 123/206/339 122/207/340
f 120/204/338 121/205/341 124/208/342 123/209/339
s 81
f 114/198/343 113/197/344 122/210/345 123/211/346
f 115/201/347 114/198/343 123/212/346 124/213/348
s off
f 126/214/349 127/215/350 128/216/351 125/217/352
s 81
f 113/197/344 126/218/353 125/219/354 122/220/345
s 78
f 116/200/328 127/221/355 126/218/356 113/197/325
s 79
f 127/221/357 116/200/332 119/203/331 128/222/358
s 80
f 122/223/340 125/224/359 128/222/360 119/203/337
s off
f 129/225/361 130/226/362 132/227/363 131/228/364
f 131/228/365 132/227/366 134/229/367 133/230/368
f 133/230/369 134/229/370 136/231/371 135/232/372
f 135/232/373 136/231/374 130/233/375 129/234/376
f 130/226/377 136/235/378 134/236/379 132/227/380
f 135/237/381 129/225/382 131/228/383 133/238/384
f 137/239/385 138/240/386 140/241/387 139/242/388
f 139/242/389 140/241/390 142/243/391 141/244/392
f 141/244/393 142/243/394 144/245/395 143/246/396
f 143/246/397 144/245/398 138/247/399 137/248/400
f 138/240/401 144/249/402 142/250/403 140/241/404
f 143/251/405 137/239/406 139/242/407 141/252/408
s 95
f 145/253/409 146/254/410 149/255/411 148/256/412
f 146/254/410 147/257/413 150/258/414 149/255/411
s 96
f 148/256/415 149/255/416 168/259/417 161/260/418
f 149/255/416 150/258/419 167/261/420 168/259/417
s 97
f 151/262/421 152/263/422 155/264/423 154/265/424
f 152/263/422 153/266/425 156/267/426 155/268/423
s 98
f 164/269/427 165/270/428 146/254/429 145/253/430
f 165/271/428 166/272/431 147/257/432 146/254/429
s 99
f 163/273/433 158/274/434 159/275/435 162/276/436
s 98
f 145/253/430 158/277/437 163/278/438 164/279/427
s 95
f 148/256/412 159/280/439 158/277/440 145/253/409
s 96
f 161/260/418 162/281/441 159/280/442 148/256/415
s 97
f 154/282/424 157/283/443 160/284/444 151/262/421
s 96
f 169/285/445 170/286/446 162/281/441 161/260/418
s 99
f 171/287/447 163/273/433 162/276/436 170/288/448
s 98
f 164/279/427 163/278/438 171/289/449 172/290/450
f 172/291/450 173/292/451 165/270/428 164/269/427
f 173/293/451 174/294/452 166/272/431 165/271/428
s 96
f 168/259/417 167/261/420 175/295/453 176/296/454
f 161/260/418 168/259/417 176/296/454 169/285/445
f 151/262/455 160/284/456 170/286/446 169/285/445
s 99
f 157/297/457 171/287/447 170/288/448 160/298/458
s 98
f 172/290/450 171/289/449 157/299/459 154/300/460
f 154/301/460 155/302/461 173/292/451 172/291/450
f 155/303/461 156/304/462 174/294/452 173/293/451
s 96
f 176/296/454 175/295/453 153/266/463 152/263/464
f 169/285/445 176/296/454 152/263/464 151/262/455
s 100
f 177/305/465 178/306/466 181/307/467 180/308/468
f 178/306/466 179/309/469 182/310/470 181/307/467
s 101
f 183/311/471 180/308/472 181/307/473 184/312/474
f 181/307/473 182/310/475 185/313/476 184/312/474
s 102
f 183/311/477 184/312/478 187/314/479 186/315/480
f 184/312/478 185/313/481 188/316/482 187/317/479
s 103
f 178/306/483 177/305/484 186/318/485 187/319/486
f 179/309/487 178/306/483 187/320/486 188/321/488
s off
f 190/322/489 191/323/490 192/324/491 189/325/492
s 103
f 177/305/484 190/326/493 189/327/494 186/328/485
s 100
f 180/308/468 191/329/495 190/326/496 177/305/465
s 101
f 191/329/497 180/308/472 183/311/471 192/330/498
s 102
f 186/331/480 189/332/499 192/330/500 183/311/477
s 105
f 193/333/501 194/334/502 197/335/503 196/336/504
f 194/334/502 195/337/505 198/338/506 197/335/503
s 106
f 199/339/507 196/336/508 197/335/509 200/340/510
f 197/335/509 198/338/511 201/341/512 200/340/510
s 107
f 199/339/513 200/340/514 203/342/515 202/343/516
f 200/340/514 201/341/517 204/344/518 203/345/515
s 108
f 194/334/519 193/333/520 202/346/521 203/347/522
f 195/337/523 194/334/519 203/348/522 204/349/524
s off
f 206/350/525 207/351/526 208/352/527 205/353/528
s 108
f 193/333/520 206/354/529 205/355/530 202/356/521
s 105
f 196/336/504 207/357/531 206/354/532 193/333/501
s 106
f 207/357/533 196/336/508 199/339/507 208/358/534
s 107
f 202/359/516 205/360/535 208/358/536 199/339/513
s off
f 209/361/537 210/362/538 212/363/539 211/364/540
f 211/364/541 212/363/542 214/365/543 213/366/544
f 213/366/545 214/365/546 216/367/547 215/368/548
f 215/368/549 216/367/550 210/369/551 209/370/552
f 210/362/553 216/371/554 214/372/555 212/363/556
f 215/373/557 209/361/558 211/364/559 213/374/560
f 217/375/561 218/376/562 220/377/563 219/378/564
f 219/378/565 220/377/566 222/379/567 221/380/568
f 221/380/569 222/379/570 224/381/571 223/382/572
f 223/382/573 224/381/574 218/383/575 217/384/576
f 218/376/577 224/385/578 222/386/579 220/377/580
f 223/387/581 217/375/582 219/378/583 221/388/584
f 188/389/585 226/390/586 225/391/587 179/392/588
f 227/393/589 226/390/590 188/389/591 185/394/592
f 182/395/593 228/396/594 227/393/595 185/394/596
f 225/397/597 228/396/598 182/395/599 179/398/600
f 204/399/601 230/400/602 229/401/603 195/402/604
f 231/403/605 230/400/606 204/399/607 201/404/608
f 198/405/609 232/406/610 231/403/611 201/404/612
f 229/407/613 232/406/614 198/405/615 195/408/616
f 233/409/617 234/410/618 236/411/619 235/412/620
f 235/412/621 236/411/622 238/413/623 237/414/624
f 237/414/625 238/413/626 240/415/627 239/416/628
f 239/416/629 240/415/630 234/417/631 233/418/632
f 234/410/633 240/419/634 238/420/635 236/411/636
f 239/421/637 233/409/638 235/412/639 237/422/640
s 98
f 156/423/462 253/424/641 254/425/642 174/426/452
s 97
f 252/427/643 253/424/644 156/423/426 153/428/425
s 96
f 175/429/453 251/430/645 252/427/646 153/428/463
s 95
f 256/431/647 249/432/648 150/433/414 147/434/413
s 96
f 167/435/420 250/436/649 251/430/645 175/429/453
s 98
f 174/426/452 254/425/642 255/437/650 166/438/431
s 96
f 150/433/419 249/432/651 250/436/649 167/435/420
s 98
f 255/437/650 256/439/652 147/440/432 166/438/431
s 96
f 249/432/651 244/441/653 247/442/654 250/436/649
f 251/430/645 250/436/649 247/442/654 245/443/655
f 252/427/646 251/430/645 245/443/655 243/444/656
s 97
f 243/444/657 242/445/658 253/424/644 252/427/643
s 98
f 254/425/642 253/424/641 242/445/659 246/446/660
f 255/437/650 254/425/642 246/446/660 248/447/661
f 248/447/661 241/448/662 256/439/652 255/437/650
s 95
f 241/449/663 244/441/664 249/432/648 256/431/647
s off
f 108/450/665 258/451/666 257/452/667 99/453/668
f 259/454/669 258/451/670 108/450/671 105/455/672
f 102/456/673 260/457/674 259/454/675 105/455/676
f 99/458/677 257/459/678 260/457/679 102/456/680
f 124/460/681 262/461/682 261/462/683 115/463/684
f 263/464/685 262/461/686 124/460/687 121/465/688
f 118/466/689 264/467/690 263/464/691 121/465/692
f 115/468/693 261/469/694 264/467/695 118/466/696
f 265/470/697 266/471/698 268/472/699 267/473/700
f 267/473/701 268/472/702 270/474/703 269/475/704
f 269/475/705 270/474/706 272/476/707 271/477/708
f 271/477/709 272/476/710 266/478/711 265/479/712
f 266/471/713 272/480/714 270/481/715 268/472/716
f 271/482/717 265/470/718 267/473/719 269/483/720
f 273/484/721 274/485/722 276/486/723 275/487/724
f 275/487/725 276/486/726 278/488/727 277/489/728
f 277/489/729 278/488/730 280/490/731 279/491/732
f 279/491/733 280/490/734 274/492/735 273/493/736
f 274/485/737 280/494/738 278/495/739 276/486/740
f 279/496/741 273/484/742 275/487/743 277/497/744
f 281/498/745 282/499/746 284/500/747 283/501/748
f 283/501/749 284/500/750 286/502/751 285/503/752
f 285/503/753 286/502/754 288/504/755 287/505/756
f 287/505/757 288/504/758 282/506/759 281/507/760
f 282/499/761 288/508/762 286/509/763 284/500/764
f 287/510/765 281/498/766 283/501/767 285/511/768
f 294/512/769 295/513/770 296/514/771 293/515/772
f 289/516/773 294/517/774 293/518/775 292/519/776
f 295/520/777 294/517/778 289/516/779 290/521/780
f 291/522/781 296/523/782 295/520/783 290/521/784
f 293/524/785 296/523/786 291/522/787 292/525/788
f 290/526/789 289/527/790 292/528/791 291/529/792
f 297/530/793 298/531/794 300/532/795 299/533/796
f 299/533/797 300/532/798 302/534/799 301/535/800
f 301/535/801 302/534/802 304/536/803 303/537/804
f 303/537/805 304/536/806 298/538/807 297/539/808
f 298/531/809 304/540/810 302/541/811 300/532/812
f 303/542/813 297/530/814 299/533/815 301/543/816
f 305/544/817 306/545/818 308/546/819 307/547/820
f 307/547/821 308/546/822 310/548/823 309/549/824
f 309/549/825 310/548/826 312/550/827 311/551/828
f 311/551/829 312/550/830 306/552/831 305/553/832
f 306/545/833 312/554/834 310/555/835 308/546/836
f 311/556/837 305/544/838 307/547/839 309/557/840
s 180
f 313/558/841 314/559/842 316/560/843 315/561/844
f 314/559/842 226/562/845 227/563/846 316/560/843
s 181
f 317/564/847 315/561/848 316/560/849 318/565/850
f 316/560/849 227/563/851 228/566/852 318/565/850
s 182
f 317/564/853 318/565/854 320/567/855 319/568/856
f 318/565/854 228/566/857 225/569/858 320/570/855
s 183
f 314/559/859 313/558/860 319/571/861 320/572/862
f 226/562/863 314/559/859 320/573/862 225/574/864
s off
f 322/575/865 323/576/866 324/577/867 321/578/868
s 183
f 313/558/860 322/579/869 321/580/870 319/581/861
s 180
f 315/561/844 323/582/871 322/579/872 313/558/841
s 181
f 323/582/873 315/561/848 317/564/847 324/583/874
s 182
f 319/584/856 321/585/875 324/583/876 317/564/853
s 185
f 325/586/877 326/587/878 328/588/879 327/589/880
f 326/587/878 230/590/881 231/591/882 328/588/879
s 186
f 329/592/883 327/589/884 328/588/885 330/593/886
f 328/588/885 231/591/887 232/594/888 330/593/886
s 187
f 329/592/889 330/593/890 332/595/891 331/596/892
f 330/593/890 232/594/893 229/597/894 332/598/891
s 188
f 326/587/895 325/586/896 331/599/897 332/600/898
f 230/590/899 326/587/895 332/601/898 229/602/900
s off
f 334/603/901 335/604/902 336/605/903 333/606/904
s 188
f 325/586/896 334/607/905 333/608/906 331/609/897
s 185
f 327/589/880 335/610/907 334/607/908 325/586/877
s 186
f 335/610/909 327/589/884 329/592/883 336/611/910
s 187
f 331/612/892 333/613/911 336/611/912 329/592/889
s off
f 337/614/913 338/615/914 340/616/915 339/617/916
f 339/617/917 340/616/918 342/618/919 341/619/920
f 341/619/921 342/618/922 344/620/923 343/621/924
f 343/621/925 344/620/926 338/622/927 337/623/928
f 338/615/929 344/624/930 342/625/931 340/616/932
f 343/626/933 337/614/934 339/617/935 341/627/936
f 345/628/937 346/629/938 348/630/939 347/631/940
f 347/631/941 348/630/942 350/632/943 349/633/944
f 349/633/945 350/632/946 352/634/947 351/635/948
f 351/635/949 352/634/950 346/636/951 345/637/952
f 346/629/953 352/638/954 350/639/955 348/630/956
f 351/640/957 345/628/958 347/631/959 349/641/960
s 97
f 353/642/961 354/643/962 356/644/963 355/645/964
f 354/643/962 242/646/658 243/647/657 356/644/963
s 96
f 355/645/965 356/644/966 370/648/967 365/649/968
f 356/644/966 243/647/656 245/650/655 370/648/967
s 95
f 357/651/969 358/652/970 360/653/971 359/654/972
f 358/652/970 244/655/664 241/656/663 360/657/971
s 98
f 368/658/973 369/659/974 354/643/975 353/642/976
f 369/660/974 246/661/660 242/646/659 354/643/975
s 202
f 367/662/977 362/663/978 363/664/979 366/665/980
s 98
f 353/642/976 362/666/981 367/667/982 368/668/973
s 97
f 355/645/964 363/669/983 362/666/984 353/642/961
s 96
f 365/649/968 366/670/985 363/669/986 355/645/965
s 95
f 359/671/972 361/672/987 364/673/988 357/651/969
s 96
f 371/674/989 372/675/990 366/670/985 365/649/968
s 202
f 373/676/991 367/662/977 366/665/980 372/677/992
s 98
f 368/668/973 367/667/982 373/678/993 374/679/994
f 374/680/994 375/681/995 369/659/974 368/658/973
f 375/682/995 248/683/661 246/661/660 369/660/974
s 96
f 370/648/967 245/650/655 247/684/654 376/685/996
f 365/649/968 370/648/967 376/685/996 371/674/989
f 357/651/997 364/673/998 372/675/990 371/674/989
s 202
f 361/686/999 373/676/991 372/677/992 364/687/1000
s 98
f 374/679/994 373/678/993 361/688/1001 359/689/1002
f 359/690/1002 360/691/1003 375/681/995 374/680/994
f 360/692/1003 241/693/662 248/683/661 375/682/995
s 96
f 376/685/996 247/684/654 244/655/653 358/652/1004
f 371/674/989 376/685/996 358/652/1004 357/651/997
s 203
f 377/694/1005 378/695/1006 380/696/1007 379/697/1008
f 378/695/1006 258/698/1009 259/699/1010 380/696/1007
s 204
f 381/700/1011 379/697/1012 380/696/1013 382/701/1014
f 380/696/1013 259/699/1015 260/702/1016 382/701/1014
s 205
f 381/700/1017 382/701/1018 384/703/1019 383/704/1020
f 382/701/1018 260/702/1021 257/705/1022 384/706/1019
s 206
f 378/695/1023 377/694/1024 383/707/1025 384/708/1026
f 258/698/1027 378/695/1023 384/709/1026 257/710/1028
s off
f 386/711/1029 387/712/1030 388/713/1031 385/714/1032
s 206
f 377/694/1024 386/715/1033 385/716/1034 383/717/1025
s 203
f 379/697/1008 387/718/1035 386/715/1036 377/694/1005
s 204
f 387/718/1037 379/697/1012 381/700/1011 388/719/1038
s 205
f 383/720/1020 385/721/1039 388/719/1040 381/700/1017
s 208
f 389/722/1041 390/723/1042 392/724/1043 391/725/1044
f 390/723/1042 262/726/1045 263/727/1046 392/724/1043
s 209
f 393/728/1047 391/725/1048 392/724/1049 394/729/1050
f 392/724/1049 263/727/1051 264/730/1052 394/729/1050
s 210
f 393/728/1053 394/729/1054 396/731/1055 395/732/1056
f 394/729/1054 264/730/1057 261/733/1058 396/734/1055
s 211
f 390/723/1059 389/722/1060 395/735/1061 396/736/1062
f 262/726/1063 390/723/1059 396/737/1062 261/738/1064
s off
f 398/739/1065 399/740/1066 400/741/1067 397/742/1068
s 211
f 389/722/1060 398/743/1069 397/744/1070 395/745/1061
s 208
f 391/725/1044 399/746/1071 398/743/1072 389/722/1041
s 209
f 399/746/1073 391/725/1048 393/728/1047 400/747/1074
s 210
f 395/748/1056 397/749/1075 400/747/1076 393/728/1053
s off
f 401/750/1077 402/751/1078 404/752/1079 403/753/1080
f 403/753/1081 404/752/1082 406/754/1083 405/755/1084
f 405/755/1085 406/754/1086 408/756/1087 407/757/1088
f 407/757/1089 408/756/1090 402/758/1091 401/759/1092
f 402/751/1093 408/760/1094 406/761/1095 404/752/1096
f 407/762/1097 401/750/1098 403/753/1099 405/763/1100
f 409/764/1101 410/765/1102 412/766/1103 411/767/1104
f 411/767/1105 412/766/1106 414/768/1107 413/769/1108
f 413/769/1109 414/768/1110 416/770/1111 415/771/1112
f 415/771/1113 416/770/1114 410/772/1115 409/773/1116
f 410/765/1117 416/774/1118 414/775/1119 412/766/1120
f 415/776/1121 409/764/1122 411/767/1123 413/777/1124
