# This file uses centimeters as units for non-parametric coordinates.

g default
v -99.644829 1.181524 1.487934
v -99.643120 1.265818 0.759430
v -99.643318 1.283826 -0.000000
v -99.633904 1.269798 1.495110
v -99.632195 1.355149 0.757870
v -99.632378 1.384937 -0.000000
v -99.734550 1.269798 1.495110
v -99.732841 1.355149 0.757870
v -99.733040 1.384937 -0.000000
v -99.723625 1.181524 1.487934
v -99.721916 1.265818 0.759430
v -99.722115 1.283826 -0.000000
v -99.723625 1.056193 2.146652
v -99.644829 1.056193 2.146652
v -99.633904 1.138414 2.176589
v -99.734550 1.138414 2.176589
v -99.644829 1.442293 1.487934
v -99.643120 1.523501 0.759430
v -99.643318 1.541509 -0.000000
v -99.633904 1.530567 1.495110
v -99.632195 1.612832 0.757870
v -99.632378 1.642620 -0.000000
v -99.734550 1.530567 1.495110
v -99.732841 1.612832 0.757870
v -99.733040 1.642620 -0.000000
v -99.723625 1.442293 1.487934
v -99.721916 1.523501 0.759430
v -99.722115 1.541509 -0.000000
v -99.723625 1.316962 2.146652
v -99.644829 1.316962 2.146652
v -99.633904 1.399183 2.176589
v -99.734550 1.399183 2.176589
v -99.682518 0.777254 0.812934
v -99.594475 0.777254 0.724891
v -99.682518 1.930205 0.812934
v -99.594475 1.930205 0.724891
v -99.766167 1.930205 0.729293
v -99.678123 1.930205 0.641250
v -99.766167 0.777254 0.729293
v -99.678123 0.777254 0.641250
v -99.682518 0.581260 2.236301
v -99.594475 0.581260 2.148258
v -99.682518 1.734211 2.236301
v -99.594475 1.734211 2.148258
v -99.766167 1.734211 2.152660
v -99.678123 1.734211 2.064617
v -99.766167 0.581260 2.152660
v -99.678123 0.581260 2.064617
v -97.542244 0.552822 1.473229
v -97.540535 0.640937 0.744724
v -97.538322 0.670372 -0.000000
v -97.531303 0.774577 1.495110
v -97.529594 0.863749 0.757870
v -97.527397 0.893536 -0.000000
v -99.767113 0.774577 1.495110
v -99.765404 0.863749 0.757870
v -99.763191 0.893536 -0.000000
v -99.756172 0.552822 1.473229
v -99.754463 0.640937 0.744724
v -99.752251 0.670372 -0.000000
v -99.756172 0.396866 2.257562
v -97.542244 0.396866 2.257562
v -97.531303 0.605768 2.306004
v -99.767113 0.605768 2.306004
v -97.723045 0.752491 1.495110
v -97.723045 0.583681 2.306004
v -97.732826 0.422065 2.257562
v -97.732826 0.578021 1.473229
v -97.731117 0.666136 0.744724
v -97.730965 0.695571 -0.000000
v -97.721199 0.871450 -0.000000
v -97.721336 0.841663 0.757870
v -99.571236 0.752491 1.495110
v -99.571236 0.583681 2.306004
v -99.561485 0.422065 2.257562
v -99.561485 0.578021 1.473229
v -99.559776 0.666136 0.744724
v -99.559624 0.695571 -0.000000
v -99.569389 0.871450 -0.000000
v -99.569527 0.841663 0.757870
v -97.569984 1.181524 1.487934
v -97.568275 1.265818 0.759430
v -97.568474 1.283826 -0.000000
v -97.559044 1.269798 1.495110
v -97.557335 1.355149 0.757870
v -97.557533 1.384937 -0.000000
v -97.659721 1.269798 1.495110
v -97.658012 1.355149 0.757870
v -97.658195 1.384937 -0.000000
v -97.648781 1.181524 1.487934
v -97.647072 1.265818 0.759430
v -97.647270 1.283826 -0.000000
v -97.648781 1.056193 2.146652
v -97.569984 1.056193 2.146652
v -97.559044 1.138414 2.176589
v -97.659721 1.138414 2.176589
v -97.569984 1.442293 1.487934
v -97.568275 1.523501 0.759430
v -97.568474 1.541509 -0.000000
v -97.559044 1.530567 1.495110
v -97.557335 1.612832 0.757870
v -97.557533 1.642620 -0.000000
v -97.659721 1.530567 1.495110
v -97.658012 1.612832 0.757870
v -97.658195 1.642620 -0.000000
v -97.648781 1.442293 1.487934
v -97.647072 1.523501 0.759430
v -97.647270 1.541509 -0.000000
v -97.648781 1.316962 2.146652
v -97.569984 1.316962 2.146652
v -97.559044 1.399183 2.176589
v -97.659721 1.399183 2.176589
v -97.613228 0.777254 0.812934
v -97.525185 0.777254 0.724891
v -97.613228 1.930205 0.812934
v -97.525185 1.930205 0.724891
v -97.696861 1.930205 0.729293
v -97.608818 1.930205 0.641250
v -97.696861 0.777254 0.729293
v -97.608818 0.777254 0.641250
v -97.613228 0.581260 2.236301
v -97.525185 0.581260 2.148258
v -97.613228 1.734211 2.236301
v -97.525185 1.734211 2.148258
v -97.696861 1.734211 2.152660
v -97.608818 1.734211 2.064617
v -97.696861 0.581260 2.152660
v -97.608818 0.581260 2.064617
v -97.647453 1.181524 -1.487934
v -97.647453 1.265818 -0.759430
v -97.658394 1.269798 -1.495110
v -97.658394 1.355149 -0.757870
v -97.557732 1.269798 -1.495110
v -97.557732 1.355149 -0.757870
v -97.568657 1.181524 -1.487934
v -97.568657 1.265818 -0.759430
v -97.568657 1.056193 -2.146652
v -97.647453 1.056193 -2.146652
v -97.658394 1.138414 -2.176589
v -97.557732 1.138414 -2.176589
v -97.647453 1.442293 -1.487934
v -97.647453 1.523501 -0.759430
v -97.658394 1.530567 -1.495110
v -97.658394 1.612832 -0.757870
v -97.557732 1.530567 -1.495110
v -97.557732 1.612832 -0.757870
v -97.568657 1.442293 -1.487934
v -97.568657 1.523501 -0.759430
v -97.568657 1.316962 -2.146652
v -97.647453 1.316962 -2.146652
v -97.658394 1.399183 -2.176589
v -97.557732 1.399183 -2.176589
v -97.609764 0.777254 -0.812934
v -97.697807 0.777254 -0.724891
v -97.609764 1.930205 -0.812934
v -97.697807 1.930205 -0.724891
v -97.526131 1.930205 -0.729293
v -97.614174 1.930205 -0.641250
v -97.526131 0.777254 -0.729293
v -97.614174 0.777254 -0.641250
v -97.609764 0.581260 -2.236301
v -97.697807 0.581260 -2.148258
v -97.609764 1.734211 -2.236301
v -97.697807 1.734211 -2.148258
v -97.526131 1.734211 -2.152660
v -97.614174 1.734211 -2.064617
v -97.526131 0.581260 -2.152660
v -97.614174 0.581260 -2.064617
v -99.750053 0.552822 -1.473229
v -99.750053 0.640937 -0.744724
v -99.760979 0.774577 -1.495110
v -99.760979 0.863749 -0.757870
v -97.525185 0.774577 -1.495110
v -97.525185 0.863749 -0.757870
v -97.536125 0.552822 -1.473229
v -97.536125 0.640937 -0.744724
v -97.536125 0.396866 -2.257562
v -99.750053 0.396866 -2.257562
v -99.760979 0.605768 -2.306004
v -97.525185 0.605768 -2.306004
v -99.569237 0.752491 -1.495110
v -99.569237 0.583681 -2.306004
v -99.559471 0.422065 -2.257562
v -99.559471 0.578021 -1.473229
v -99.559471 0.666136 -0.744724
v -99.569237 0.841663 -0.757870
v -97.721062 0.752491 -1.495110
v -97.721062 0.583681 -2.306004
v -97.730812 0.422065 -2.257562
v -97.730812 0.578021 -1.473229
v -97.730812 0.666136 -0.744724
v -97.721062 0.841663 -0.757870
v -99.722313 1.181524 -1.487934
v -99.722313 1.265818 -0.759430
v -99.733238 1.269798 -1.495110
v -99.733238 1.355149 -0.757870
v -99.632576 1.269798 -1.495110
v -99.632576 1.355149 -0.757870
v -99.643517 1.181524 -1.487934
v -99.643517 1.265818 -0.759430
v -99.643517 1.056193 -2.146652
v -99.722313 1.056193 -2.146652
v -99.733238 1.138414 -2.176589
v -99.632576 1.138414 -2.176589
v -99.722313 1.442293 -1.487934
v -99.722313 1.523501 -0.759430
v -99.733238 1.530567 -1.495110
v -99.733238 1.612832 -0.757870
v -99.632576 1.530567 -1.495110
v -99.632576 1.612832 -0.757870
v -99.643517 1.442293 -1.487934
v -99.643517 1.523501 -0.759430
v -99.643517 1.316962 -2.146652
v -99.722313 1.316962 -2.146652
v -99.733238 1.399183 -2.176589
v -99.632576 1.399183 -2.176589
v -99.679070 0.777254 -0.812934
v -99.767113 0.777254 -0.724891
v -99.679070 1.930205 -0.812934
v -99.767113 1.930205 -0.724891
v -99.595421 1.930205 -0.729293
v -99.683464 1.930205 -0.641250
v -99.595421 0.777254 -0.729293
v -99.683464 0.777254 -0.641250
v -99.679070 0.581260 -2.236301
v -99.767113 0.581260 -2.148258
v -99.679070 1.734211 -2.236301
v -99.767113 1.734211 -2.148258
v -99.595421 1.734211 -2.152660
v -99.683464 1.734211 -2.064617
v -99.595421 0.581260 -2.152660
v -99.683464 0.581260 -2.064617
vt 0.771406 0.430656
vt -0.060877 0.430656
vt -0.060877 0.371135
vt 0.771406 0.371135
vt -0.890054 0.430656
vt -0.890054 0.371135
vt 0.771406 0.312688
vt -0.060877 0.312688
vt -0.890054 0.312688
vt -0.060877 0.255351
vt 0.771406 0.255351
vt -0.890053 0.255351
vt -0.060877 0.255351
vt 0.771406 0.484741
vt -0.060877 0.484741
vt -0.060877 0.484741
vt -0.890053 0.484741
vt -0.936764 0.429465
vt -0.936764 0.371267
vt -1.283352 0.371267
vt -1.283352 0.429465
vt 1.687571 0.430656
vt 1.687570 0.484741
vt 0.771406 0.484741
vt 1.687569 0.371135
vt 1.687570 0.312688
vt 0.771406 0.255351
vt 1.687570 0.255350
vt 0.771406 0.430656
vt -0.060877 0.430656
vt -0.060877 0.371135
vt 0.771406 0.371135
vt -0.890054 0.430656
vt -0.890054 0.371135
vt 0.771406 0.312688
vt -0.060877 0.312688
vt -0.890054 0.312688
vt -0.060877 0.255351
vt 0.771406 0.255351
vt -0.890053 0.255351
vt -0.060877 0.255351
vt 0.771406 0.484741
vt -0.060877 0.484741
vt -0.060877 0.484741
vt -0.890053 0.484741
vt -0.936764 0.429465
vt -0.936764 0.371267
vt -1.283352 0.371267
vt -1.283352 0.429465
vt 1.687571 0.430656
vt 1.687570 0.484741
vt 0.771406 0.484741
vt 1.687569 0.371135
vt 1.687570 0.312688
vt 0.771406 0.255351
vt 1.687570 0.255350
vt 0.375000 0.000000
vt 0.625000 0.000000
vt 0.625000 0.250000
vt 0.375000 0.250000
vt 0.625000 0.500000
vt 0.375000 0.500000
vt 0.625000 0.750000
vt 0.375000 0.750000
vt 0.625000 1.000000
vt 0.375000 1.000000
vt 0.875000 0.000000
vt 0.875000 0.250000
vt 0.125000 0.000000
vt 0.125000 0.250000
vt 0.375000 0.000000
vt 0.625000 0.000000
vt 0.625000 0.250000
vt 0.375000 0.250000
vt 0.625000 0.500000
vt 0.375000 0.500000
vt 0.625000 0.750000
vt 0.375000 0.750000
vt 0.625000 1.000000
vt 0.375000 1.000000
vt 0.875000 0.000000
vt 0.875000 0.250000
vt 0.125000 0.000000
vt 0.125000 0.250000
vt 0.771406 0.430656
vt -0.060877 0.430656
vt -0.060877 0.371135
vt 0.771406 0.371135
vt -0.890054 0.430656
vt -0.890054 0.371135
vt -0.060877 0.368054
vt 0.771406 0.368054
vt -0.890054 0.368054
vt 0.771406 0.312688
vt -0.060877 0.312688
vt -0.060877 0.255351
vt 0.771406 0.255351
vt -0.890054 0.312688
vt -0.890053 0.255351
vt -0.060877 0.255351
vt 0.771406 0.433507
vt -0.060877 0.433506
vt -0.060877 0.433506
vt -0.890054 0.433507
vt -0.955032 0.429465
vt -0.936764 0.429465
vt -0.936764 0.371267
vt -0.955032 0.371267
vt 1.687571 0.430656
vt 1.687571 0.433507
vt 0.771406 0.433507
vt 1.687569 0.371135
vt 1.687569 0.368054
vt 0.771406 0.255351
vt 1.687570 0.255350
vt 1.687570 0.312688
vt 0.771406 0.315835
vt 1.687570 0.315835
vt -1.264692 0.429465
vt -1.264692 0.371267
vt 1.687570 0.481829
vt 0.771406 0.481829
vt 0.771406 0.481829
vt -0.060877 0.481829
vt -0.060877 0.481829
vt -0.890053 0.481829
vt -0.890054 0.315835
vt -0.060877 0.315835
vt -1.283352 0.429465
vt -1.283352 0.371267
vt 1.687570 0.484741
vt 0.771406 0.484741
vt 0.771406 0.484741
vt -0.060877 0.484741
vt -0.060877 0.484741
vt -0.890053 0.484741
vt 0.771406 0.430656
vt -0.060877 0.430656
vt -0.060877 0.371135
vt 0.771406 0.371135
vt -0.890054 0.430656
vt -0.890054 0.371135
vt 0.771406 0.312688
vt -0.060877 0.312688
vt -0.890054 0.312688
vt -0.060877 0.255351
vt 0.771406 0.255351
vt -0.890053 0.255351
vt -0.060877 0.255351
vt 0.771406 0.484741
vt -0.060877 0.484741
vt -0.060877 0.484741
vt -0.890053 0.484741
vt -0.936764 0.429465
vt -0.936764 0.371267
vt -1.283352 0.371267
vt -1.283352 0.429465
vt 1.687571 0.430656
vt 1.687570 0.484741
vt 0.771406 0.484741
vt 1.687569 0.371135
vt 1.687570 0.312688
vt 0.771406 0.255351
vt 1.687570 0.255350
vt 0.771406 0.430656
vt -0.060877 0.430656
vt -0.060877 0.371135
vt 0.771406 0.371135
vt -0.890054 0.430656
vt -0.890054 0.371135
vt 0.771406 0.312688
vt -0.060877 0.312688
vt -0.890054 0.312688
vt -0.060877 0.255351
vt 0.771406 0.255351
vt -0.890053 0.255351
vt -0.060877 0.255351
vt 0.771406 0.484741
vt -0.060877 0.484741
vt -0.060877 0.484741
vt -0.890053 0.484741
vt -0.936764 0.429465
vt -0.936764 0.371267
vt -1.283352 0.371267
vt -1.283352 0.429465
vt 1.687571 0.430656
vt 1.687570 0.484741
vt 0.771406 0.484741
vt 1.687569 0.371135
vt 1.687570 0.312688
vt 0.771406 0.255351
vt 1.687570 0.255350
vt 0.375000 0.000000
vt 0.625000 0.000000
vt 0.625000 0.250000
vt 0.375000 0.250000
vt 0.625000 0.500000
vt 0.375000 0.500000
vt 0.625000 0.750000
vt 0.375000 0.750000
vt 0.625000 1.000000
vt 0.375000 1.000000
vt 0.875000 0.000000
vt 0.875000 0.250000
vt 0.125000 0.000000
vt 0.125000 0.250000
vt 0.375000 0.000000
vt 0.625000 0.000000
vt 0.625000 0.250000
vt 0.375000 0.250000
vt 0.625000 0.500000
vt 0.375000 0.500000
vt 0.625000 0.750000
vt 0.375000 0.750000
vt 0.625000 1.000000
vt 0.375000 1.000000
vt 0.875000 0.000000
vt 0.875000 0.250000
vt 0.125000 0.000000
vt 0.125000 0.250000
vt 0.771406 0.430656
vt -0.060877 0.430656
vt -0.060877 0.371135
vt 0.771406 0.371135
vt -0.890054 0.430656
vt -0.890054 0.371135
vt 0.771406 0.312688
vt -0.060877 0.312688
vt -0.890054 0.312688
vt -0.060877 0.255351
vt 0.771406 0.255351
vt -0.890053 0.255351
vt -0.060877 0.255351
vt 0.771406 0.484741
vt -0.060877 0.484741
vt -0.060877 0.484741
vt -0.890053 0.484741
vt -0.936764 0.429465
vt -0.936764 0.371267
vt -1.283352 0.371267
vt -1.283352 0.429465
vt 1.687571 0.430656
vt 1.687570 0.484741
vt 0.771406 0.484741
vt 1.687569 0.371135
vt 1.687570 0.312688
vt 0.771406 0.255351
vt 1.687570 0.255350
vt 0.771406 0.430656
vt -0.060877 0.430656
vt -0.060877 0.371135
vt 0.771406 0.371135
vt -0.890054 0.430656
vt -0.890054 0.371135
vt 0.771406 0.312688
vt -0.060877 0.312688
vt -0.890054 0.312688
vt -0.060877 0.255351
vt 0.771406 0.255351
vt -0.890053 0.255351
vt -0.060877 0.255351
vt 0.771406 0.484741
vt -0.060877 0.484741
vt -0.060877 0.484741
vt -0.890053 0.484741
vt -0.936764 0.429465
vt -0.936764 0.371267
vt -1.283352 0.371267
vt -1.283352 0.429465
vt 1.687571 0.430656
vt 1.687570 0.484741
vt 0.771406 0.484741
vt 1.687569 0.371135
vt 1.687570 0.312688
vt 0.771406 0.255351
vt 1.687570 0.255350
vt 0.375000 0.000000
vt 0.625000 0.000000
vt 0.625000 0.250000
vt 0.375000 0.250000
vt 0.625000 0.500000
vt 0.375000 0.500000
vt 0.625000 0.750000
vt 0.375000 0.750000
vt 0.625000 1.000000
vt 0.375000 1.000000
vt 0.875000 0.000000
vt 0.875000 0.250000
vt 0.125000 0.000000
vt 0.125000 0.250000
vt 0.375000 0.000000
vt 0.625000 0.000000
vt 0.625000 0.250000
vt 0.375000 0.250000
vt 0.625000 0.500000
vt 0.375000 0.500000
vt 0.625000 0.750000
vt 0.375000 0.750000
vt 0.625000 1.000000
vt 0.375000 1.000000
vt 0.875000 0.000000
vt 0.875000 0.250000
vt 0.125000 0.000000
vt 0.125000 0.250000
vt 0.771406 0.430656
vt -0.060877 0.430656
vt -0.060877 0.371135
vt 0.771406 0.371135
vt -0.890054 0.430656
vt -0.890054 0.371135
vt -0.060877 0.368054
vt 0.771406 0.368054
vt -0.890054 0.368054
vt 0.771406 0.312688
vt -0.060877 0.312688
vt -0.060877 0.255351
vt 0.771406 0.255351
vt -0.890054 0.312688
vt -0.890053 0.255351
vt -0.060877 0.255351
vt 0.771406 0.433507
vt -0.060877 0.433506
vt -0.060877 0.433506
vt -0.890054 0.433507
vt -0.955032 0.429465
vt -0.936764 0.429465
vt -0.936764 0.371267
vt -0.955032 0.371267
vt 1.687571 0.430656
vt 1.687571 0.433507
vt 0.771406 0.433507
vt 1.687569 0.371135
vt 1.687569 0.368054
vt 0.771406 0.255351
vt 1.687570 0.255350
vt 1.687570 0.312688
vt 0.771406 0.315835
vt 1.687570 0.315835
vt -1.264692 0.429465
vt -1.264692 0.371267
vt 1.687570 0.481829
vt 0.771406 0.481829
vt 0.771406 0.481829
vt -0.060877 0.481829
vt -0.060877 0.481829
vt -0.890053 0.481829
vt -0.890054 0.315835
vt -0.060877 0.315835
vt -1.283352 0.429465
vt -1.283352 0.371267
vt 1.687570 0.484741
vt 0.771406 0.484741
vt 0.771406 0.484741
vt -0.060877 0.484741
vt -0.060877 0.484741
vt -0.890053 0.484741
vt 0.771406 0.430656
vt -0.060877 0.430656
vt -0.060877 0.371135
vt 0.771406 0.371135
vt -0.890054 0.430656
vt -0.890054 0.371135
vt 0.771406 0.312688
vt -0.060877 0.312688
vt -0.890054 0.312688
vt -0.060877 0.255351
vt 0.771406 0.255351
vt -0.890053 0.255351
vt -0.060877 0.255351
vt 0.771406 0.484741
vt -0.060877 0.484741
vt -0.060877 0.484741
vt -0.890053 0.484741
vt -0.936764 0.429465
vt -0.936764 0.371267
vt -1.283352 0.371267
vt -1.283352 0.429465
vt 1.687571 0.430656
vt 1.687570 0.484741
vt 0.771406 0.484741
vt 1.687569 0.371135
vt 1.687570 0.312688
vt 0.771406 0.255351
vt 1.687570 0.255350
vt 0.771406 0.430656
vt -0.060877 0.430656
vt -0.060877 0.371135
vt 0.771406 0.371135
vt -0.890054 0.430656
vt -0.890054 0.371135
vt 0.771406 0.312688
vt -0.060877 0.312688
vt -0.890054 0.312688
vt -0.060877 0.255351
vt 0.771406 0.255351
vt -0.890053 0.255351
vt -0.060877 0.255351
vt 0.771406 0.484741
vt -0.060877 0.484741
vt -0.060877 0.484741
vt -0.890053 0.484741
vt -0.936764 0.429465
vt -0.936764 0.371267
vt -1.283352 0.371267
vt -1.283352 0.429465
vt 1.687571 0.430656
vt 1.687570 0.484741
vt 0.771406 0.484741
vt 1.687569 0.371135
vt 1.687570 0.312688
vt 0.771406 0.255351
vt 1.687570 0.255350
vt 0.375000 0.000000
vt 0.625000 0.000000
vt 0.625000 0.250000
vt 0.375000 0.250000
vt 0.625000 0.500000
vt 0.375000 0.500000
vt 0.625000 0.750000
vt 0.375000 0.750000
vt 0.625000 1.000000
vt 0.375000 1.000000
vt 0.875000 0.000000
vt 0.875000 0.250000
vt 0.125000 0.000000
vt 0.125000 0.250000
vt 0.375000 0.000000
vt 0.625000 0.000000
vt 0.625000 0.250000
vt 0.375000 0.250000
vt 0.625000 0.500000
vt 0.375000 0.500000
vt 0.625000 0.750000
vt 0.375000 0.750000
vt 0.625000 1.000000
vt 0.375000 1.000000
vt 0.875000 0.000000
vt 0.875000 0.250000
vt 0.125000 0.000000
vt 0.125000 0.250000
vn 0.992376 -0.121985 -0.017579
vn 0.992988 -0.117960 -0.007809
vn 0.992988 -0.117960 -0.007809
vn 0.992376 -0.121985 -0.017579
vn 0.993462 -0.114102 -0.003844
vn 0.993462 -0.114102 -0.003844
vn 0.000000 0.988340 0.152261
vn 0.000000 0.988340 0.152261
vn 0.000000 0.997016 0.077191
vn 0.000000 0.997016 0.077191
vn 0.000000 0.999229 0.039272
vn 0.000000 0.999229 0.039272
vn -0.992355 -0.121803 -0.019885
vn -0.992984 -0.117838 -0.009859
vn -0.992984 -0.117838 -0.009859
vn -0.992355 -0.121803 -0.019885
vn -0.993464 -0.114094 -0.003332
vn -0.993464 -0.114094 -0.003332
vn 0.000000 -0.997589 -0.069397
vn 0.000000 -0.988529 -0.151030
vn 0.000000 -0.988529 -0.151030
vn 0.000000 -0.997589 -0.069397
vn 0.000000 -0.999719 -0.023707
vn 0.000000 -0.999719 -0.023707
vn 0.000000 -0.342136 0.939651
vn 0.000000 -0.342136 0.939651
vn 0.000000 -0.342136 0.939651
vn 0.000000 -0.342136 0.939651
vn 0.000000 -0.982376 -0.186918
vn 0.000000 -0.982376 -0.186918
vn 0.992236 -0.122151 -0.023383
vn 0.992236 -0.122151 -0.023383
vn 0.000000 0.981918 0.189308
vn 0.000000 0.981918 0.189308
vn -0.992251 -0.122030 -0.023384
vn -0.992251 -0.122030 -0.023384
vn 0.992380 -0.121994 -0.017324
vn 0.992989 -0.117969 -0.007554
vn 0.992989 -0.117969 -0.007554
vn 0.992380 -0.121994 -0.017324
vn 0.993462 -0.114102 -0.003844
vn 0.993462 -0.114102 -0.003844
vn 0.000000 0.988653 0.150219
vn 0.000000 0.988653 0.150219
vn 0.000000 0.997174 0.075131
vn 0.000000 0.997174 0.075131
vn 0.000000 0.999229 0.039273
vn 0.000000 0.999229 0.039273
vn -0.992359 -0.121812 -0.019630
vn -0.992985 -0.117846 -0.009604
vn -0.992985 -0.117846 -0.009604
vn -0.992359 -0.121812 -0.019630
vn -0.993464 -0.114094 -0.003332
vn -0.993464 -0.114094 -0.003332
vn 0.000000 -0.997732 -0.067311
vn 0.000000 -0.988843 -0.148962
vn 0.000000 -0.988843 -0.148962
vn 0.000000 -0.997732 -0.067311
vn 0.000000 -0.999719 -0.023707
vn 0.000000 -0.999719 -0.023707
vn 0.000000 -0.342136 0.939651
vn 0.000000 -0.342136 0.939651
vn 0.000000 -0.342136 0.939651
vn 0.000000 -0.342136 0.939651
vn 0.000000 -0.982376 -0.186918
vn 0.000000 -0.982376 -0.186918
vn 0.992236 -0.122151 -0.023383
vn 0.992236 -0.122151 -0.023383
vn 0.000000 0.981918 0.189308
vn 0.000000 0.981918 0.189308
vn -0.992251 -0.122030 -0.023384
vn -0.992251 -0.122030 -0.023384
vn 0.707106 0.000000 0.707108
vn 0.707106 0.000000 0.707108
vn 0.707106 0.000000 0.707108
vn 0.707106 0.000000 0.707108
vn 0.000000 1.000000 0.000000
vn 0.000000 1.000000 0.000000
vn 0.000000 1.000000 0.000000
vn 0.000000 1.000000 0.000000
vn -0.707107 0.000000 -0.707107
vn -0.707107 0.000000 -0.707107
vn -0.707107 0.000000 -0.707107
vn -0.707107 0.000000 -0.707107
vn 0.000000 -1.000000 0.000000
vn 0.000000 -1.000000 0.000000
vn 0.000000 -1.000000 0.000000
vn 0.000000 -1.000000 0.000000
vn 0.707074 0.000000 -0.707139
vn 0.707074 0.000000 -0.707139
vn 0.707074 0.000000 -0.707139
vn 0.707074 0.000000 -0.707139
vn -0.707074 0.000000 0.707140
vn -0.707074 0.000000 0.707140
vn -0.707074 0.000000 0.707140
vn -0.707074 0.000000 0.707140
vn 0.707107 0.000000 0.707107
vn 0.707107 0.000000 0.707107
vn 0.707107 0.000000 0.707107
vn 0.707107 0.000000 0.707107
vn 0.000000 1.000000 0.000000
vn 0.000000 1.000000 0.000000
vn 0.000000 1.000000 0.000000
vn 0.000000 1.000000 0.000000
vn -0.707107 0.000000 -0.707107
vn -0.707107 0.000000 -0.707107
vn -0.707107 0.000000 -0.707107
vn -0.707107 0.000000 -0.707107
vn 0.000000 -1.000000 0.000000
vn 0.000000 -1.000000 0.000000
vn 0.000000 -1.000000 0.000000
vn 0.000000 -1.000000 0.000000
vn 0.707075 0.000000 -0.707139
vn 0.707075 0.000000 -0.707139
vn 0.707075 0.000000 -0.707139
vn 0.707075 0.000000 -0.707139
vn -0.707075 0.000000 0.707139
vn -0.707075 0.000000 0.707139
vn -0.707075 0.000000 0.707139
vn -0.707075 0.000000 0.707139
vn 0.998776 -0.049002 -0.006791
vn 0.998802 -0.048917 -0.001291
vn 0.998802 -0.048917 -0.001291
vn 0.998776 -0.049002 -0.006791
vn 0.998799 -0.048911 0.002928
vn 0.998799 -0.048911 0.002928
vn -0.112941 0.980483 0.160929
vn -0.113773 0.990360 0.079008
vn -0.056979 0.995205 0.079504
vn -0.056561 0.985207 0.161768
vn -0.113230 0.993569 -0.000177
vn -0.056706 0.998391 -0.000089
vn -0.998767 -0.048795 -0.009098
vn -0.998794 -0.048657 -0.006532
vn -0.998794 -0.048657 -0.006532
vn -0.998767 -0.048795 -0.009098
vn -0.998799 -0.048905 -0.002934
vn -0.998799 -0.048905 -0.002934
vn -0.064871 -0.985400 -0.157410
vn -0.065299 -0.994669 -0.079808
vn -0.130319 -0.988286 -0.079424
vn -0.129467 -0.979157 -0.156493
vn -0.064991 -0.997886 -0.000101
vn -0.129707 -0.991552 -0.000201
vn -0.001029 -0.270033 0.962851
vn -0.002058 -0.252866 0.967499
vn -0.002058 -0.252866 0.967499
vn -0.001029 -0.270033 0.962851
vn -0.128609 -0.972653 -0.193408
vn -0.064438 -0.978760 -0.194619
vn 0.998742 -0.049144 -0.009999
vn 0.998742 -0.049144 -0.009999
vn -0.056119 0.977468 0.203488
vn -0.112061 0.972844 0.202528
vn -0.998744 -0.049095 -0.009999
vn -0.998744 -0.049095 -0.009999
vn 0.055375 0.985251 0.161905
vn 0.054944 0.977532 0.203499
vn 0.001008 -0.270031 0.962851
vn 0.001008 -0.270031 0.962851
vn 0.063093 -0.978845 -0.194631
vn 0.063521 -0.985510 -0.157272
vn 0.064281 -0.994755 -0.079562
vn 0.064993 -0.997886 0.000101
vn 0.056708 0.998391 0.000090
vn 0.056082 0.995238 0.079725
vn 0.110579 0.980703 0.161224
vn 0.109722 0.973100 0.202576
vn 0.002015 -0.252862 0.967500
vn 0.002015 -0.252862 0.967500
vn 0.125935 -0.972991 -0.193465
vn 0.126784 -0.979547 -0.156246
vn 0.128295 -0.988589 -0.078944
vn 0.129711 -0.991552 0.000202
vn 0.113233 0.993569 0.000179
vn 0.111987 0.990528 0.079458
vn 0.992361 -0.122101 -0.017605
vn 0.992975 -0.118064 -0.007825
vn 0.992975 -0.118064 -0.007825
vn 0.992361 -0.122101 -0.017605
vn 0.993459 -0.114127 -0.003856
vn 0.993459 -0.114127 -0.003856
vn 0.000000 0.988341 0.152258
vn 0.000000 0.988341 0.152258
vn 0.000000 0.997016 0.077192
vn 0.000000 0.997016 0.077192
vn 0.000000 0.999229 0.039275
vn 0.000000 0.999229 0.039275
vn -0.992325 -0.122046 -0.019911
vn -0.992970 -0.117957 -0.009875
vn -0.992970 -0.117957 -0.009875
vn -0.992325 -0.122046 -0.019911
vn -0.993455 -0.114173 -0.003344
vn -0.993455 -0.114173 -0.003344
vn 0.000000 -0.997589 -0.069397
vn 0.000000 -0.988529 -0.151030
vn 0.000000 -0.988529 -0.151030
vn 0.000000 -0.997589 -0.069397
vn 0.000000 -0.999719 -0.023707
vn 0.000000 -0.999719 -0.023707
vn 0.000000 -0.342138 0.939650
vn 0.000000 -0.342138 0.939650
vn 0.000000 -0.342138 0.939650
vn 0.000000 -0.342138 0.939650
vn 0.000000 -0.982376 -0.186918
vn 0.000000 -0.982376 -0.186918
vn 0.992229 -0.122201 -0.023416
vn 0.992229 -0.122201 -0.023416
vn 0.000000 0.981919 0.189303
vn 0.000000 0.981919 0.189303
vn -0.992210 -0.122356 -0.023416
vn -0.992210 -0.122356 -0.023416
vn 0.992365 -0.122110 -0.017350
vn 0.992976 -0.118073 -0.007570
vn 0.992976 -0.118073 -0.007570
vn 0.992365 -0.122110 -0.017350
vn 0.993459 -0.114127 -0.003856
vn 0.993459 -0.114127 -0.003856
vn 0.000000 0.988653 0.150216
vn 0.000000 0.988653 0.150216
vn 0.000000 0.997174 0.075132
vn 0.000000 0.997174 0.075132
vn 0.000000 0.999229 0.039275
vn 0.000000 0.999229 0.039275
vn -0.992329 -0.122055 -0.019655
vn -0.992971 -0.117965 -0.009620
vn -0.992971 -0.117965 -0.009620
vn -0.992329 -0.122055 -0.019655
vn -0.993455 -0.114173 -0.003344
vn -0.993455 -0.114173 -0.003344
vn 0.000000 -0.997732 -0.067311
vn 0.000000 -0.988843 -0.148962
vn 0.000000 -0.988843 -0.148962
vn 0.000000 -0.997732 -0.067311
vn 0.000000 -0.999719 -0.023707
vn 0.000000 -0.999719 -0.023707
vn 0.000000 -0.342138 0.939650
vn 0.000000 -0.342138 0.939650
vn 0.000000 -0.342138 0.939650
vn 0.000000 -0.342138 0.939650
vn 0.000000 -0.982376 -0.186918
vn 0.000000 -0.982376 -0.186918
vn 0.992229 -0.122201 -0.023416
vn 0.992229 -0.122201 -0.023416
vn 0.000000 0.981919 0.189303
vn 0.000000 0.981919 0.189303
vn -0.992210 -0.122356 -0.023416
vn -0.992210 -0.122356 -0.023416
vn 0.707106 0.000000 0.707108
vn 0.707106 0.000000 0.707108
vn 0.707106 0.000000 0.707108
vn 0.707106 0.000000 0.707108
vn 0.000000 1.000000 0.000000
vn 0.000000 1.000000 0.000000
vn 0.000000 1.000000 0.000000
vn 0.000000 1.000000 0.000000
vn -0.707107 0.000000 -0.707107
vn -0.707107 0.000000 -0.707107
vn -0.707107 0.000000 -0.707107
vn -0.707107 0.000000 -0.707107
vn 0.000000 -1.000000 0.000000
vn 0.000000 -1.000000 0.000000
vn 0.000000 -1.000000 0.000000
vn 0.000000 -1.000000 0.000000
vn 0.707139 0.000000 -0.707075
vn 0.707139 0.000000 -0.707075
vn 0.707139 0.000000 -0.707075
vn 0.707139 0.000000 -0.707075
vn -0.707138 0.000000 0.707075
vn -0.707138 0.000000 0.707075
vn -0.707138 0.000000 0.707075
vn -0.707138 0.000000 0.707075
vn 0.707107 0.000000 0.707107
vn 0.707107 0.000000 0.707107
vn 0.707107 0.000000 0.707107
vn 0.707107 0.000000 0.707107
vn 0.000000 1.000000 0.000000
vn 0.000000 1.000000 0.000000
vn 0.000000 1.000000 0.000000
vn 0.000000 1.000000 0.000000
vn -0.707107 0.000000 -0.707107
vn -0.707107 0.000000 -0.707107
vn -0.707107 0.000000 -0.707107
vn -0.707107 0.000000 -0.707107
vn 0.000000 -1.000000 0.000000
vn 0.000000 -1.000000 0.000000
vn 0.000000 -1.000000 0.000000
vn 0.000000 -1.000000 0.000000
vn 0.707139 0.000000 -0.707074
vn 0.707139 0.000000 -0.707074
vn 0.707139 0.000000 -0.707074
vn 0.707139 0.000000 -0.707074
vn -0.707139 0.000000 0.707074
vn -0.707139 0.000000 0.707074
vn -0.707139 0.000000 0.707074
vn -0.707139 0.000000 0.707074
vn -0.992340 -0.122104 0.018758
vn -0.992972 -0.118006 0.008972
vn -0.992972 -0.118006 0.008972
vn -0.992340 -0.122104 0.018758
vn -0.993459 -0.114126 0.003844
vn -0.993459 -0.114126 0.003844
vn 0.000000 0.988341 -0.152257
vn 0.000000 0.988341 -0.152257
vn 0.000000 0.997016 -0.077195
vn 0.000000 0.997016 -0.077195
vn 0.000000 0.999228 -0.039276
vn 0.000000 0.999228 -0.039276
vn 0.992370 -0.121866 0.018732
vn 0.992993 -0.117850 0.008713
vn 0.992993 -0.117850 0.008713
vn 0.992370 -0.121866 0.018732
vn 0.993467 -0.114070 0.003344
vn 0.993467 -0.114070 0.003344
vn 0.000000 -0.997589 0.069397
vn 0.000000 -0.988529 0.151030
vn 0.000000 -0.988529 0.151030
vn 0.000000 -0.997589 0.069397
vn 0.000000 -0.999719 0.023707
vn 0.000000 -0.999719 0.023707
vn 0.000000 -0.342137 -0.939650
vn 0.000000 -0.342137 -0.939650
vn 0.000000 -0.342137 -0.939650
vn 0.000000 -0.342137 -0.939650
vn 0.000000 -0.982376 0.186918
vn 0.000000 -0.982376 0.186918
vn -0.992214 -0.122326 0.023416
vn -0.992214 -0.122326 0.023416
vn 0.000000 0.981920 -0.189296
vn 0.000000 0.981920 -0.189296
vn 0.992242 -0.122105 0.023384
vn 0.992242 -0.122105 0.023384
vn -0.992344 -0.122113 0.018502
vn -0.992974 -0.118014 0.008717
vn -0.992974 -0.118014 0.008717
vn -0.992344 -0.122113 0.018502
vn -0.993459 -0.114126 0.003844
vn -0.993459 -0.114126 0.003844
vn 0.000000 0.988653 -0.150215
vn 0.000000 0.988653 -0.150215
vn 0.000000 0.997173 -0.075135
vn 0.000000 0.997173 -0.075135
vn 0.000000 0.999228 -0.039276
vn 0.000000 0.999228 -0.039276
vn 0.992373 -0.121875 0.018477
vn 0.992994 -0.117858 0.008457
vn 0.992994 -0.117858 0.008457
vn 0.992373 -0.121875 0.018477
vn 0.993467 -0.114070 0.003344
vn 0.993467 -0.114070 0.003344
vn 0.000000 -0.997732 0.067311
vn 0.000000 -0.988843 0.148962
vn 0.000000 -0.988843 0.148962
vn 0.000000 -0.997732 0.067311
vn 0.000000 -0.999719 0.023707
vn 0.000000 -0.999719 0.023707
vn 0.000000 -0.342137 -0.939650
vn 0.000000 -0.342137 -0.939650
vn 0.000000 -0.342137 -0.939650
vn 0.000000 -0.342137 -0.939650
vn 0.000000 -0.982376 0.186918
vn 0.000000 -0.982376 0.186918
vn -0.992214 -0.122326 0.023416
vn -0.992214 -0.122326 0.023416
vn 0.000000 0.981920 -0.189295
vn 0.000000 0.981920 -0.189295
vn 0.992242 -0.122105 0.023384
vn 0.992242 -0.122105 0.023384
vn -0.707106 0.000000 -0.707107
vn -0.707106 0.000000 -0.707107
vn -0.707106 0.000000 -0.707107
vn -0.707106 0.000000 -0.707107
vn 0.000000 1.000000 0.000000
vn 0.000000 1.000000 0.000000
vn 0.000000 1.000000 0.000000
vn 0.000000 1.000000 0.000000
vn 0.707106 0.000000 0.707107
vn 0.707106 0.000000 0.707107
vn 0.707106 0.000000 0.707107
vn 0.707106 0.000000 0.707107
vn 0.000000 -1.000000 0.000000
vn 0.000000 -1.000000 0.000000
vn 0.000000 -1.000000 0.000000
vn 0.000000 -1.000000 0.000000
vn -0.707139 0.000000 0.707075
vn -0.707139 0.000000 0.707075
vn -0.707139 0.000000 0.707075
vn -0.707139 0.000000 0.707075
vn 0.707139 0.000000 -0.707075
vn 0.707139 0.000000 -0.707075
vn 0.707139 0.000000 -0.707075
vn 0.707139 0.000000 -0.707075
vn -0.707107 0.000000 -0.707107
vn -0.707107 0.000000 -0.707107
vn -0.707107 0.000000 -0.707107
vn -0.707107 0.000000 -0.707107
vn 0.000000 1.000000 0.000000
vn 0.000000 1.000000 0.000000
vn 0.000000 1.000000 0.000000
vn 0.000000 1.000000 0.000000
vn 0.707105 0.000000 0.707108
vn 0.707105 0.000000 0.707108
vn 0.707105 0.000000 0.707108
vn 0.707105 0.000000 0.707108
vn 0.000000 -1.000000 -0.000000
vn 0.000000 -1.000000 -0.000000
vn 0.000000 -1.000000 -0.000000
vn 0.000000 -1.000000 -0.000000
vn -0.707138 0.000000 0.707076
vn -0.707138 0.000000 0.707076
vn -0.707138 0.000000 0.707076
vn -0.707138 0.000000 0.707076
vn 0.707139 0.000000 -0.707074
vn 0.707139 0.000000 -0.707074
vn 0.707139 0.000000 -0.707074
vn 0.707139 0.000000 -0.707074
vn -0.998774 -0.048866 0.007933
vn -0.998804 -0.048830 0.002441
vn -0.998804 -0.048830 0.002441
vn -0.998774 -0.048866 0.007933
vn 0.112936 0.980463 -0.161054
vn 0.113771 0.990350 -0.079137
vn 0.056978 0.995200 -0.079569
vn 0.056559 0.985196 -0.161830
vn 0.998772 -0.048910 0.007944
vn 0.998796 -0.048769 0.005373
vn 0.998796 -0.048769 0.005373
vn 0.998772 -0.048910 0.007944
vn 0.064870 -0.985413 0.157332
vn 0.065302 -0.994675 0.079732
vn 0.130324 -0.988297 0.079273
vn 0.129467 -0.979182 0.156338
vn 0.001030 -0.270040 -0.962849
vn 0.002059 -0.252878 -0.967496
vn 0.002059 -0.252878 -0.967496
vn 0.001030 -0.270040 -0.962849
vn 0.128603 -0.972655 0.193398
vn 0.064435 -0.978761 0.194615
vn -0.998746 -0.049065 0.009985
vn -0.998746 -0.049065 0.009985
vn 0.056117 0.977469 -0.203484
vn 0.112056 0.972846 -0.202518
vn 0.998743 -0.049127 0.009999
vn 0.998743 -0.049127 0.009999
vn -0.055376 0.985262 -0.161842
vn -0.054944 0.977532 -0.203499
vn -0.001008 -0.270037 -0.962849
vn -0.001008 -0.270037 -0.962849
vn -0.063093 -0.978845 0.194631
vn -0.063519 -0.985499 0.157346
vn -0.064280 -0.994749 0.079637
vn -0.056081 0.995243 -0.079661
vn -0.110582 0.980724 -0.161098
vn -0.109722 0.973100 -0.202576
vn -0.002016 -0.252874 -0.967497
vn -0.002016 -0.252874 -0.967497
vn -0.125934 -0.972991 0.193465
vn -0.126781 -0.979524 0.156393
vn -0.128293 -0.988577 0.079094
vn -0.111985 0.990538 -0.079329
vn -0.992370 -0.121867 0.018732
vn -0.992994 -0.117828 0.008966
vn -0.992994 -0.117828 0.008966
vn -0.992370 -0.121867 0.018732
vn -0.993468 -0.114044 0.003851
vn -0.993468 -0.114044 0.003851
vn 0.000000 0.988341 -0.152257
vn 0.000000 0.988341 -0.152257
vn 0.000000 0.997016 -0.077193
vn 0.000000 0.997016 -0.077193
vn 0.000000 0.999229 -0.039272
vn 0.000000 0.999229 -0.039272
vn 0.992347 -0.122046 0.018758
vn 0.992973 -0.118023 0.008719
vn 0.992973 -0.118023 0.008719
vn 0.992347 -0.122046 0.018758
vn 0.993446 -0.114255 0.003337
vn 0.993446 -0.114255 0.003337
vn 0.000000 -0.997589 0.069397
vn 0.000000 -0.988529 0.151030
vn 0.000000 -0.988529 0.151030
vn 0.000000 -0.997589 0.069397
vn 0.000000 -0.999719 0.023707
vn 0.000000 -0.999719 0.023707
vn 0.000000 -0.342137 -0.939650
vn 0.000000 -0.342137 -0.939650
vn 0.000000 -0.342137 -0.939650
vn 0.000000 -0.342137 -0.939650
vn 0.000000 -0.982376 0.186918
vn 0.000000 -0.982376 0.186918
vn -0.992239 -0.122125 0.023384
vn -0.992239 -0.122125 0.023384
vn 0.000000 0.981920 -0.189296
vn 0.000000 0.981920 -0.189296
vn 0.992216 -0.122305 0.023416
vn 0.992216 -0.122305 0.023416
vn -0.992373 -0.121876 0.018477
vn -0.992995 -0.117836 0.008711
vn -0.992995 -0.117836 0.008711
vn -0.992373 -0.121876 0.018477
vn -0.993468 -0.114044 0.003851
vn -0.993468 -0.114044 0.003851
vn 0.000000 0.988653 -0.150215
vn 0.000000 0.988653 -0.150215
vn 0.000000 0.997173 -0.075134
vn 0.000000 0.997173 -0.075134
vn 0.000000 0.999229 -0.039272
vn 0.000000 0.999229 -0.039272
vn 0.992351 -0.122055 0.018503
vn 0.992974 -0.118031 0.008463
vn 0.992974 -0.118031 0.008463
vn 0.992351 -0.122055 0.018503
vn 0.993446 -0.114255 0.003337
vn 0.993446 -0.114255 0.003337
vn 0.000000 -0.997732 0.067311
vn 0.000000 -0.988843 0.148962
vn 0.000000 -0.988843 0.148962
vn 0.000000 -0.997732 0.067311
vn 0.000000 -0.999719 0.023707
vn 0.000000 -0.999719 0.023707
vn 0.000000 -0.342137 -0.939650
vn 0.000000 -0.342137 -0.939650
vn 0.000000 -0.342137 -0.939650
vn 0.000000 -0.342137 -0.939650
vn 0.000000 -0.982376 0.186918
vn 0.000000 -0.982376 0.186918
vn -0.992239 -0.122125 0.023384
vn -0.992239 -0.122125 0.023384
vn 0.000000 0.981920 -0.189295
vn 0.000000 0.981920 -0.189295
vn 0.992216 -0.122305 0.023416
vn 0.992216 -0.122305 0.023416
vn -0.707106 0.000000 -0.707107
vn -0.707106 0.000000 -0.707107
vn -0.707106 0.000000 -0.707107
vn -0.707106 0.000000 -0.707107
vn 0.000000 1.000000 0.000000
vn 0.000000 1.000000 0.000000
vn 0.000000 1.000000 0.000000
vn 0.000000 1.000000 0.000000
vn 0.707106 0.000000 0.707107
vn 0.707106 0.000000 0.707107
vn 0.707106 0.000000 0.707107
vn 0.707106 0.000000 0.707107
vn 0.000000 -1.000000 0.000000
vn 0.000000 -1.000000 0.000000
vn 0.000000 -1.000000 0.000000
vn 0.000000 -1.000000 0.000000
vn -0.707074 0.000000 0.707140
vn -0.707074 0.000000 0.707140
vn -0.707074 0.000000 0.707140
vn -0.707074 0.000000 0.707140
vn 0.707074 0.000000 -0.707139
vn 0.707074 0.000000 -0.707139
vn 0.707074 0.000000 -0.707139
vn 0.707074 0.000000 -0.707139
vn -0.707107 0.000000 -0.707107
vn -0.707107 0.000000 -0.707107
vn -0.707107 0.000000 -0.707107
vn -0.707107 0.000000 -0.707107
vn 0.000000 1.000000 0.000000
vn 0.000000 1.000000 0.000000
vn 0.000000 1.000000 0.000000
vn 0.000000 1.000000 0.000000
vn 0.707105 0.000000 0.707108
vn 0.707105 0.000000 0.707108
vn 0.707105 0.000000 0.707108
vn 0.707105 0.000000 0.707108
vn 0.000000 -1.000000 -0.000000
vn 0.000000 -1.000000 -0.000000
vn 0.000000 -1.000000 -0.000000
vn 0.000000 -1.000000 -0.000000
vn -0.707073 0.000000 0.707141
vn -0.707073 0.000000 0.707141
vn -0.707073 0.000000 0.707141
vn -0.707073 0.000000 0.707141
vn 0.707075 0.000000 -0.707139
vn 0.707075 0.000000 -0.707139
vn 0.707075 0.000000 -0.707139
vn 0.707075 0.000000 -0.707139
s 1
g polySurface22644
f 1/1/1 2/2/2 5/3/3 4/4/4
f 2/2/2 3/5/5 6/6/6 5/3/3
s 2
f 7/7/7 4/4/8 5/3/9 8/8/10
f 5/3/9 6/6/11 9/9/12 8/8/10
s 3
f 7/7/13 8/8/14 11/10/15 10/11/16
f 8/8/14 9/9/17 12/12/18 11/13/15
s 4
f 2/2/19 1/1/20 10/14/21 11/15/22
f 3/5/23 2/2/19 11/16/22 12/17/24
s off
f 14/18/25 15/19/26 16/20/27 13/21/28
s 4
f 1/1/20 14/22/29 13/23/30 10/24/21
s 1
f 4/4/4 15/25/31 14/22/32 1/1/1
s 2
f 15/25/33 4/4/8 7/7/7 16/26/34
s 3
f 10/27/16 13/28/35 16/26/36 7/7/13
s 6
f 17/29/37 18/30/38 21/31/39 20/32/40
f 18/30/38 19/33/41 22/34/42 21/31/39
s 7
f 23/35/43 20/32/44 21/31/45 24/36/46
f 21/31/45 22/34/47 25/37/48 24/36/46
s 8
f 23/35/49 24/36/50 27/38/51 26/39/52
f 24/36/50 25/37/53 28/40/54 27/41/51
s 9
f 18/30/55 17/29/56 26/42/57 27/43/58
f 19/33/59 18/30/55 27/44/58 28/45/60
s off
f 30/46/61 31/47/62 32/48/63 29/49/64
s 9
f 17/29/56 30/50/65 29/51/66 26/52/57
s 6
f 20/32/40 31/53/67 30/50/68 17/29/37
s 7
f 31/53/69 20/32/44 23/35/43 32/54/70
s 8
f 26/55/52 29/56/71 32/54/72 23/35/49
s off
f 33/57/73 34/58/74 36/59/75 35/60/76
f 35/60/77 36/59/78 38/61/79 37/62/80
f 37/62/81 38/61/82 40/63/83 39/64/84
f 39/64/85 40/63/86 34/65/87 33/66/88
f 34/58/89 40/67/90 38/68/91 36/59/92
f 39/69/93 33/57/94 35/60/95 37/70/96
f 41/71/97 42/72/98 44/73/99 43/74/100
f 43/74/101 44/73/102 46/75/103 45/76/104
f 45/76/105 46/75/106 48/77/107 47/78/108
f 47/78/109 48/77/110 42/79/111 41/80/112
f 42/72/113 48/81/114 46/82/115 44/73/116
f 47/83/117 41/71/118 43/74/119 45/84/120
s 23
f 49/85/121 50/86/122 53/87/123 52/88/124
f 50/86/122 51/89/125 54/90/126 53/87/123
s 24
f 52/88/127 53/87/128 72/91/129 65/92/130
f 53/87/128 54/90/131 71/93/132 72/91/129
s 25
f 55/94/133 56/95/134 59/96/135 58/97/136
f 56/95/134 57/98/137 60/99/138 59/100/135
s 26
f 68/101/139 69/102/140 50/86/141 49/85/142
f 69/103/140 70/104/143 51/89/144 50/86/141
s 27
f 67/105/145 62/106/146 63/107/147 66/108/148
s 26
f 49/85/142 62/109/149 67/110/150 68/111/139
s 23
f 52/88/124 63/112/151 62/109/152 49/85/121
s 24
f 65/92/130 66/113/153 63/112/154 52/88/127
s 25
f 58/114/136 61/115/155 64/116/156 55/94/133
s 24
f 73/117/157 74/118/158 66/113/153 65/92/130
s 27
f 75/119/159 67/105/145 66/108/148 74/120/160
s 26
f 68/111/139 67/110/150 75/121/161 76/122/162
f 76/123/162 77/124/163 69/102/140 68/101/139
f 77/125/163 78/126/164 70/104/143 69/103/140
s 24
f 72/91/129 71/93/132 79/127/165 80/128/166
f 65/92/130 72/91/129 80/128/166 73/117/157
f 55/94/167 64/116/168 74/118/158 73/117/157
s 27
f 61/129/169 75/119/159 74/120/160 64/130/170
s 26
f 76/122/162 75/121/161 61/131/171 58/132/172
f 58/133/172 59/134/173 77/124/163 76/123/162
f 59/135/173 60/136/174 78/126/164 77/125/163
s 24
f 80/128/166 79/127/165 57/98/175 56/95/176
f 73/117/157 80/128/166 56/95/176 55/94/167
s 28
f 81/137/177 82/138/178 85/139/179 84/140/180
f 82/138/178 83/141/181 86/142/182 85/139/179
s 29
f 87/143/183 84/140/184 85/139/185 88/144/186
f 85/139/185 86/142/187 89/145/188 88/144/186
s 30
f 87/143/189 88/144/190 91/146/191 90/147/192
f 88/144/190 89/145/193 92/148/194 91/149/191
s 31
f 82/138/195 81/137/196 90/150/197 91/151/198
f 83/141/199 82/138/195 91/152/198 92/153/200
s off
f 94/154/201 95/155/202 96/156/203 93/157/204
s 31
f 81/137/196 94/158/205 93/159/206 90/160/197
s 28
f 84/140/180 95/161/207 94/158/208 81/137/177
s 29
f 95/161/209 84/140/184 87/143/183 96/162/210
s 30
f 90/163/192 93/164/211 96/162/212 87/143/189
s 33
f 97/165/213 98/166/214 101/167/215 100/168/216
f 98/166/214 99/169/217 102/170/218 101/167/215
s 34
f 103/171/219 100/168/220 101/167/221 104/172/222
f 101/167/221 102/170/223 105/173/224 104/172/222
s 35
f 103/171/225 104/172/226 107/174/227 106/175/228
f 104/172/226 105/173/229 108/176/230 107/177/227
s 36
f 98/166/231 97/165/232 106/178/233 107/179/234
f 99/169/235 98/166/231 107/180/234 108/181/236
s off
f 110/182/237 111/183/238 112/184/239 109/185/240
s 36
f 97/165/232 110/186/241 109/187/242 106/188/233
s 33
f 100/168/216 111/189/243 110/186/244 97/165/213
s 34
f 111/189/245 100/168/220 103/171/219 112/190/246
s 35
f 106/191/228 109/192/247 112/190/248 103/171/225
s off
f 113/193/249 114/194/250 116/195/251 115/196/252
f 115/196/253 116/195/254 118/197/255 117/198/256
f 117/198/257 118/197/258 120/199/259 119/200/260
f 119/200/261 120/199/262 114/201/263 113/202/264
f 114/194/265 120/203/266 118/204/267 116/195/268
f 119/205/269 113/193/270 115/196/271 117/206/272
f 121/207/273 122/208/274 124/209/275 123/210/276
f 123/210/277 124/209/278 126/211/279 125/212/280
f 125/212/281 126/211/282 128/213/283 127/214/284
f 127/214/285 128/213/286 122/215/287 121/216/288
f 122/208/289 128/217/290 126/218/291 124/209/292
f 127/219/293 121/207/294 123/210/295 125/220/296
s 50
f 129/221/297 130/222/298 132/223/299 131/224/300
f 130/222/298 92/225/301 89/226/302 132/223/299
s 51
f 133/227/303 131/224/304 132/223/305 134/228/306
f 132/223/305 89/226/307 86/229/308 134/228/306
s 52
f 133/227/309 134/228/310 136/230/311 135/231/312
f 134/228/310 86/229/313 83/232/314 136/233/311
s 53
f 130/222/315 129/221/316 135/234/317 136/235/318
f 92/225/319 130/222/315 136/236/318 83/237/320
s off
f 138/238/321 139/239/322 140/240/323 137/241/324
s 53
f 129/221/316 138/242/325 137/243/326 135/244/317
s 50
f 131/224/300 139/245/327 138/242/328 129/221/297
s 51
f 139/245/329 131/224/304 133/227/303 140/246/330
s 52
f 135/247/312 137/248/331 140/246/332 133/227/309
s 55
f 141/249/333 142/250/334 144/251/335 143/252/336
f 142/250/334 108/253/337 105/254/338 144/251/335
s 56
f 145/255/339 143/252/340 144/251/341 146/256/342
f 144/251/341 105/254/343 102/257/344 146/256/342
s 57
f 145/255/345 146/256/346 148/258/347 147/259/348
f 146/256/346 102/257/349 99/260/350 148/261/347
s 58
f 142/250/351 141/249/352 147/262/353 148/263/354
f 108/253/355 142/250/351 148/264/354 99/265/356
s off
f 150/266/357 151/267/358 152/268/359 149/269/360
s 58
f 141/249/352 150/270/361 149/271/362 147/272/353
s 55
f 143/252/336 151/273/363 150/270/364 141/249/333
s 56
f 151/273/365 143/252/340 145/255/339 152/274/366
s 57
f 147/275/348 149/276/367 152/274/368 145/255/345
s off
f 153/277/369 154/278/370 156/279/371 155/280/372
f 155/280/373 156/279/374 158/281/375 157/282/376
f 157/282/377 158/281/378 160/283/379 159/284/380
f 159/284/381 160/283/382 154/285/383 153/286/384
f 154/278/385 160/287/386 158/288/387 156/279/388
f 159/289/389 153/277/390 155/280/391 157/290/392
f 161/291/393 162/292/394 164/293/395 163/294/396
f 163/294/397 164/293/398 166/295/399 165/296/400
f 165/296/401 166/295/402 168/297/403 167/298/404
f 167/298/405 168/297/406 162/299/407 161/300/408
f 162/292/409 168/301/410 166/302/411 164/293/412
f 167/303/413 161/291/414 163/294/415 165/304/416
s 25
f 169/305/417 170/306/418 172/307/419 171/308/420
f 170/306/418 60/309/138 57/310/137 172/307/419
s 24
f 171/308/421 172/307/422 186/311/423 181/312/424
f 172/307/422 57/310/175 79/313/165 186/311/423
s 23
f 173/314/425 174/315/426 176/316/427 175/317/428
f 174/315/426 54/318/126 51/319/125 176/320/427
s 26
f 184/321/429 185/322/430 170/306/431 169/305/432
f 185/323/430 78/324/164 60/309/174 170/306/431
s 72
f 183/325/433 178/326/434 179/327/435 182/328/436
s 26
f 169/305/432 178/329/437 183/330/438 184/331/429
s 25
f 171/308/420 179/332/439 178/329/440 169/305/417
s 24
f 181/312/424 182/333/441 179/332/442 171/308/421
s 23
f 175/334/428 177/335/443 180/336/444 173/314/425
s 24
f 187/337/445 188/338/446 182/333/441 181/312/424
s 72
f 189/339/447 183/325/433 182/328/436 188/340/448
s 26
f 184/331/429 183/330/438 189/341/449 190/342/450
f 190/343/450 191/344/451 185/322/430 184/321/429
f 191/345/451 70/346/143 78/324/164 185/323/430
s 24
f 186/311/423 79/313/165 71/347/132 192/348/452
f 181/312/424 186/311/423 192/348/452 187/337/445
f 173/314/453 180/336/454 188/338/446 187/337/445
s 72
f 177/349/455 189/339/447 188/340/448 180/350/456
s 26
f 190/342/450 189/341/449 177/351/457 175/352/458
f 175/353/458 176/354/459 191/344/451 190/343/450
f 176/355/459 51/356/144 70/346/143 191/345/451
s 24
f 192/348/452 71/347/132 54/318/131 174/315/460
f 187/337/445 192/348/452 174/315/460 173/314/453
s 73
f 193/357/461 194/358/462 196/359/463 195/360/464
f 194/358/462 12/361/465 9/362/466 196/359/463
s 74
f 197/363/467 195/360/468 196/359/469 198/364/470
f 196/359/469 9/362/471 6/365/472 198/364/470
s 75
f 197/363/473 198/364/474 200/366/475 199/367/476
f 198/364/474 6/365/477 3/368/478 200/369/475
s 76
f 194/358/479 193/357/480 199/370/481 200/371/482
f 12/361/483 194/358/479 200/372/482 3/373/484
s off
f 202/374/485 203/375/486 204/376/487 201/377/488
s 76
f 193/357/480 202/378/489 201/379/490 199/380/481
s 73
f 195/360/464 203/381/491 202/378/492 193/357/461
s 74
f 203/381/493 195/360/468 197/363/467 204/382/494
s 75
f 199/383/476 201/384/495 204/382/496 197/363/473
s 78
f 205/385/497 206/386/498 208/387/499 207/388/500
f 206/386/498 28/389/501 25/390/502 208/387/499
s 79
f 209/391/503 207/388/504 208/387/505 210/392/506
f 208/387/505 25/390/507 22/393/508 210/392/506
s 80
f 209/391/509 210/392/510 212/394/511 211/395/512
f 210/392/510 22/393/513 19/396/514 212/397/511
s 81
f 206/386/515 205/385/516 211/398/517 212/399/518
f 28/389/519 206/386/515 212/400/518 19/401/520
s off
f 214/402/521 215/403/522 216/404/523 213/405/524
s 81
f 205/385/516 214/406/525 213/407/526 211/408/517
s 78
f 207/388/500 215/409/527 214/406/528 205/385/497
s 79
f 215/409/529 207/388/504 209/391/503 216/410/530
s 80
f 211/411/512 213/412/531 216/410/532 209/391/509
s off
f 217/413/533 218/414/534 220/415/535 219/416/536
f 219/416/537 220/415/538 222/417/539 221/418/540
f 221/418/541 222/417/542 224/419/543 223/420/544
f 223/420/545 224/419/546 218/421/547 217/422/548
f 218/414/549 224/423/550 222/424/551 220/415/552
f 223/425/553 217/413/554 219/416/555 221/426/556
f 225/427/557 226/428/558 228/429/559 227/430/560
f 227/430/561 228/429/562 230/431/563 229/432/564
f 229/432/565 230/431/566 232/433/567 231/434/568
f 231/434/569 232/433/570 226/435/571 225/436/572
f 226/428/573 232/437/574 230/438/575 228/429/576
f 231/439/577 225/427/578 227/430/579 229/440/580
