# This file uses centimeters as units for non-parametric coordinates.

g default
v -252.635635 -0.136045 3.754753
v -242.823257 -0.136045 3.754753
v -252.535599 0.009698 3.627728
v -242.923325 0.009698 3.627728
v -252.535599 0.009698 -1.727737
v -242.923325 0.009698 -1.727737
v -252.635635 -0.136045 -1.854763
v -242.823257 -0.136045 -1.854763
v -253.094345 2.489606 4.101292
v -242.369919 2.489606 4.101292
v -253.094345 2.489606 -2.101295
v -242.369919 2.489606 -2.101295
v -250.907120 2.489606 4.101292
v -250.907120 2.489606 -2.101295
v -244.598648 2.489606 4.101292
v -244.598648 2.489606 -2.101295
v -253.094345 2.489606 -0.121124
v -242.369919 2.489606 -0.121124
v -253.094345 2.489606 2.069551
v -242.369919 2.489606 2.069551
v -247.738358 2.484540 0.972937
v -254.435471 2.940740 -0.630295
v -251.385300 3.007934 -3.505375
v -254.435471 3.538700 -3.505375
v -244.134079 3.007934 -3.505375
v -241.028793 2.940740 -0.630295
v -241.028793 3.538700 -3.505375
v -254.435471 2.940740 2.559078
v -241.028793 2.940740 2.559078
v -254.435471 3.538700 5.505371
v -251.385300 3.007934 5.505371
v -244.134079 3.007934 5.505371
v -241.028793 3.538700 5.505371
v -252.362686 3.501767 0.092316
v -252.362625 3.522602 -1.529533
v -243.112900 3.522616 -1.529530
v -243.112350 3.501776 0.092316
v -252.362686 3.501779 1.867662
v -243.112350 3.501787 1.867661
v -252.362625 3.522621 3.530088
v -243.112900 3.522633 3.530085
v -252.362747 5.028094 0.824917
v -252.362625 4.324265 -0.109581
v -243.112534 5.028099 0.824917
v -243.112900 4.324279 -0.109581
v -252.362747 5.028100 1.134878
v -243.112534 5.028105 1.134878
v -252.362625 4.324284 2.110022
v -243.112900 4.324296 2.110020
v -247.738754 2.494672 4.101292
v -247.738663 2.877258 5.505371
v -247.739548 3.408028 3.530087
v -247.739548 4.166141 2.110022
v -247.739548 4.869953 1.134878
v -247.739548 4.869946 0.824917
v -247.739548 4.166122 -0.109581
v -247.739548 3.408010 -1.529530
v -247.738663 2.877258 -3.505375
v -247.738754 2.494672 -2.101295
v -251.382919 2.827128 -3.496704
v -247.738663 2.696452 -3.496704
v -244.136398 2.827128 -3.496704
v -241.035538 3.351149 -3.496704
v -241.035538 2.759934 -0.627136
v -241.035538 2.759934 2.556015
v -241.035538 3.351149 5.496698
v -244.136398 2.827128 5.496698
v -247.738663 2.696452 5.496698
v -251.382919 2.827128 5.496698
v -254.428726 3.351149 5.496698
v -254.428726 2.759934 2.556015
v -254.428726 2.759934 -0.627136
v -254.428726 3.351149 -3.496704
v -252.362747 5.332006 0.824917
v -247.739548 5.173859 0.824917
v -252.362747 5.332013 1.134878
v -247.739548 5.173865 1.134878
v -243.112534 5.332011 0.824917
v -243.112534 5.332017 1.134878
v -242.007004 3.452288 -2.577988
v -242.006729 3.125207 -0.291126
v -242.006729 3.125212 2.234552
v -242.007004 3.452296 4.578243
v -243.524429 3.218396 4.479969
v -247.739182 3.097315 4.479971
v -251.968765 3.218389 4.479971
v -253.455856 3.452239 4.571856
v -253.455856 3.127023 2.232317
v -253.455856 3.127017 -0.288788
v -253.455856 3.452229 -2.571594
v -251.968765 3.218378 -2.479641
v -247.739182 3.097304 -2.479641
v -243.524429 3.218386 -2.479637
v -242.907761 2.526375 -1.678490
v -243.307175 2.526375 -1.678490
v -242.907761 2.526375 -1.278954
v -243.307175 2.526375 -1.369499
v -243.216751 2.526375 -1.278954
v -242.907761 -0.065374 -1.678490
v -243.307175 -0.065374 -1.678490
v -242.907761 -0.065374 -1.278954
v -243.307175 0.820931 -1.678490
v -242.907761 0.820931 -1.678490
v -242.907761 0.820931 -1.278954
v -243.307175 0.820931 -1.369499
v -243.216751 0.820931 -1.278954
v -243.307175 -0.065374 -1.369499
v -243.216751 -0.065374 -1.278954
v -246.537979 0.820931 -1.678490
v -246.537979 -0.065374 -1.678490
v -246.537979 -0.065374 -1.369499
v -246.537979 0.820931 -1.369499
v -246.537979 2.526375 -1.678490
v -246.537979 2.526375 -1.369499
v -244.869522 2.526375 -1.678490
v -244.869522 0.820931 -1.678490
v -244.869522 -0.065374 -1.678490
v -244.869522 -0.065374 -1.369499
v -244.869522 0.820931 -1.369499
v -244.869522 2.526375 -1.369499
v -242.907761 2.526375 3.662745
v -243.307175 2.526375 3.662745
v -242.907761 2.526375 3.262415
v -243.307175 2.526375 3.353754
v -243.216751 2.526375 3.262415
v -242.907761 -0.065374 3.662745
v -243.307175 -0.065374 3.662745
v -242.907761 -0.065374 3.262415
v -243.307175 0.820931 3.662745
v -242.907761 0.820931 3.662745
v -242.907761 0.820931 3.262415
v -243.307175 0.820931 3.353754
v -243.216751 0.820931 3.262415
v -243.307175 -0.065374 3.353754
v -243.216751 -0.065374 3.262415
v -246.537979 0.820931 3.662745
v -246.537979 -0.065374 3.662745
v -246.537979 -0.065374 3.353754
v -246.537979 0.820931 3.353754
v -246.537979 2.526375 3.662745
v -246.537979 2.526375 3.353754
v -244.869522 2.526375 3.662745
v -244.869522 0.820931 3.662745
v -244.869522 -0.065374 3.662745
v -244.869522 -0.065374 3.353754
v -244.869522 0.820931 3.353754
v -244.869522 2.526375 3.353754
v -242.907761 0.820931 1.811125
v -242.907761 2.526375 1.811125
v -243.220291 2.526375 1.811125
v -243.220291 0.820931 1.811125
v -243.216751 -0.065374 1.811125
v -242.907761 -0.065374 1.811125
v -242.907761 0.820931 0.236839
v -242.907761 2.526375 0.236839
v -243.220291 2.526375 0.236839
v -243.220291 0.820931 0.236839
v -243.216751 -0.065374 0.236839
v -242.907761 -0.065374 0.236839
v -252.576523 2.526375 3.658506
v -252.177109 2.526375 3.658506
v -252.576523 2.526375 3.258968
v -252.177109 2.526375 3.349516
v -252.267532 2.526375 3.258968
v -252.576523 -0.065374 3.658506
v -252.177109 -0.065374 3.658506
v -252.576523 -0.065374 3.258968
v -252.177109 0.820931 3.658506
v -252.576523 0.820931 3.658506
v -252.576523 0.820931 3.258968
v -252.177109 0.820931 3.349516
v -252.267532 0.820931 3.258968
v -252.177109 -0.065374 3.349516
v -252.267532 -0.065374 3.258968
v -248.946304 0.820931 3.658506
v -248.946304 -0.065374 3.658506
v -248.946304 -0.065374 3.349516
v -248.946304 0.820931 3.349516
v -248.946304 2.526375 3.658506
v -248.946304 2.526375 3.349516
v -250.614761 2.526375 3.658506
v -250.614761 0.820931 3.658506
v -250.614761 -0.065374 3.658506
v -250.614761 -0.065374 3.349516
v -250.614761 0.820931 3.349516
v -250.614761 2.526375 3.349516
v -252.576523 2.526375 -1.682732
v -252.177109 2.526375 -1.682732
v -252.576523 2.526375 -1.282402
v -252.177109 2.526375 -1.373741
v -252.267532 2.526375 -1.282402
v -252.576523 -0.065374 -1.682732
v -252.177109 -0.065374 -1.682732
v -252.576523 -0.065374 -1.282402
v -252.177109 0.820931 -1.682732
v -252.576523 0.820931 -1.682732
v -252.576523 0.820931 -1.282402
v -252.177109 0.820931 -1.373741
v -252.267532 0.820931 -1.282402
v -252.177109 -0.065374 -1.373741
v -252.267532 -0.065374 -1.282402
v -248.946304 0.820931 -1.682732
v -248.946304 -0.065374 -1.682732
v -248.946304 -0.065374 -1.373741
v -248.946304 0.820931 -1.373741
v -248.946304 2.526375 -1.682732
v -248.946304 2.526375 -1.373741
v -250.614761 2.526375 -1.682732
v -250.614761 0.820931 -1.682732
v -250.614761 -0.065374 -1.682732
v -250.614761 -0.065374 -1.373741
v -250.614761 0.820931 -1.373741
v -250.614761 2.526375 -1.373741
v -252.576523 0.820931 0.168892
v -252.576523 2.526375 0.168892
v -252.263992 2.526375 0.168892
v -252.263992 0.820931 0.168892
v -252.267532 -0.065374 0.168892
v -252.576523 -0.065374 0.168892
v -252.576523 0.820931 1.743177
v -252.576523 2.526375 1.743177
v -252.263992 2.526375 1.743177
v -252.263992 0.820931 1.743177
v -252.267532 -0.065374 1.743177
v -252.576523 -0.065374 1.743177
v -250.093796 -0.142801 4.273623
v -249.685013 -0.142801 4.273623
v -250.093796 0.329972 4.273623
v -249.685013 0.329972 4.273623
v -250.093796 0.329972 3.866407
v -249.685013 0.329972 3.866407
v -250.093796 -0.142801 3.866407
v -249.685013 -0.142801 3.866407
v -249.974869 0.329972 4.155146
v -249.803970 0.329972 4.155146
v -249.803970 0.329972 3.984884
v -249.974869 0.329972 3.984884
v -249.974869 2.504202 4.155146
v -249.803970 2.504202 4.155146
v -249.803970 2.504202 3.984884
v -249.974869 2.504202 3.984884
v -245.837692 -0.142801 4.273623
v -245.428909 -0.142801 4.273623
v -245.837692 0.329972 4.273623
v -245.428909 0.329972 4.273623
v -245.837692 0.329972 3.866407
v -245.428909 0.329972 3.866407
v -245.837692 -0.142801 3.866407
v -245.428909 -0.142801 3.866407
v -245.718765 0.329972 4.155146
v -245.547867 0.329972 4.155146
v -245.547867 0.329972 3.984884
v -245.718765 0.329972 3.984884
v -245.718765 2.504202 4.155146
v -245.547867 2.504202 4.155146
v -245.547867 2.504202 3.984884
v -245.718765 2.504202 3.984884
v -242.821762 -0.142801 4.069460
v -242.532730 -0.142801 4.358513
v -242.821762 0.329972 4.069460
v -242.532730 0.329972 4.358513
v -242.533829 0.329972 3.781517
v -242.244766 0.329972 4.070570
v -242.533829 -0.142801 3.781517
v -242.244766 -0.142801 4.070570
v -242.653885 0.329972 4.069790
v -242.533035 0.329972 4.190634
v -242.412643 0.329972 4.070240
v -242.533493 0.329972 3.949396
v -242.653885 2.504202 4.069790
v -242.533035 2.504202 4.190634
v -242.412643 2.504202 4.070240
v -242.533493 2.504202 3.949396
v -253.266312 -0.142801 4.069460
v -252.977249 -0.142801 4.358513
v -253.266312 0.329972 4.069460
v -252.977249 0.329972 4.358513
v -252.978348 0.329972 3.781517
v -252.689316 0.329972 4.070570
v -252.978348 -0.142801 3.781517
v -252.689316 -0.142801 4.070570
v -253.098434 0.329972 4.069790
v -252.977585 0.329972 4.190634
v -252.857193 0.329972 4.070240
v -252.978043 0.329972 3.949396
v -253.098434 2.504202 4.069790
v -252.977585 2.504202 4.190634
v -252.857193 2.504202 4.070240
v -252.978043 2.504202 3.949396
v -242.244766 -0.142801 -2.066261
v -242.533798 -0.142801 -2.355316
v -242.244766 0.329972 -2.066261
v -242.533798 0.329972 -2.355316
v -242.532700 0.329972 -1.778313
v -242.821762 0.329972 -2.067368
v -242.532700 -0.142801 -1.778313
v -242.821762 -0.142801 -2.067368
v -242.412643 0.329972 -2.066589
v -242.533493 0.329972 -2.187431
v -242.653885 0.329972 -2.067039
v -242.533035 0.329972 -1.946198
v -242.412643 2.504202 -2.066589
v -242.533493 2.504202 -2.187431
v -242.653885 2.504202 -2.067039
v -242.533035 2.504202 -1.946198
v -245.417252 -0.142801 -2.270424
v -245.826035 -0.142801 -2.270424
v -245.417252 0.329972 -2.270424
v -245.826035 0.329972 -2.270424
v -245.417252 0.329972 -1.863205
v -245.826035 0.329972 -1.863205
v -245.417252 -0.142801 -1.863205
v -245.826035 -0.142801 -1.863205
v -245.536209 0.329972 -2.151947
v -245.707108 0.329972 -2.151947
v -245.707108 0.329972 -1.981682
v -245.536209 0.329972 -1.981682
v -245.536209 2.504202 -2.151947
v -245.707108 2.504202 -2.151947
v -245.707108 2.504202 -1.981682
v -245.536209 2.504202 -1.981682
v -249.673355 -0.142801 -2.270424
v -250.082138 -0.142801 -2.270424
v -249.673355 0.329972 -2.270424
v -250.082138 0.329972 -2.270424
v -249.673355 0.329972 -1.863205
v -250.082138 0.329972 -1.863205
v -249.673355 -0.142801 -1.863205
v -250.082138 -0.142801 -1.863205
v -249.792313 0.329972 -2.151947
v -249.963211 0.329972 -2.151947
v -249.963211 0.329972 -1.981682
v -249.792313 0.329972 -1.981682
v -249.792313 2.504202 -2.151947
v -249.963211 2.504202 -2.151947
v -249.963211 2.504202 -1.981682
v -249.792313 2.504202 -1.981682
v -252.689285 -0.142801 -2.066261
v -252.978348 -0.142801 -2.355316
v -252.689285 0.329972 -2.066261
v -252.978348 0.329972 -2.355316
v -252.977249 0.329972 -1.778313
v -253.266281 0.329972 -2.067368
v -252.977249 -0.142801 -1.778313
v -253.266281 -0.142801 -2.067368
v -252.857162 0.329972 -2.066589
v -252.978012 0.329972 -2.187431
v -253.098404 0.329972 -2.067039
v -252.977554 0.329972 -1.946198
v -252.857162 2.504202 -2.066589
v -252.978012 2.504202 -2.187431
v -253.098404 2.504202 -2.067039
v -252.977554 2.504202 -1.946198
v -252.121658 0.844406 3.461739
v -252.121658 0.844406 4.228630
v -252.177414 0.844406 3.461739
v -252.177414 0.844406 4.228630
v -252.177414 2.447862 3.461739
v -252.177414 2.447862 4.228630
v -252.121658 2.447862 3.461739
v -252.121658 2.447862 4.228630
v -252.439346 0.844402 0.336334
v -253.103500 0.844402 -0.047112
v -252.411469 0.844402 0.288036
v -253.075607 0.844402 -0.095409
v -252.411469 2.447858 0.288036
v -253.075607 2.447858 -0.095409
v -252.439346 2.447858 0.336334
v -253.103500 2.447858 -0.047112
v -250.706772 0.844402 -1.456474
v -251.090225 0.844402 -2.120621
v -250.658478 0.844402 -1.484352
v -251.041916 0.844402 -2.148499
v -250.658478 2.447858 -1.484352
v -251.041916 2.447858 -2.148499
v -250.706772 2.447858 -1.456474
v -251.090225 2.447858 -2.120621
v -243.362457 0.844402 -1.481277
v -243.362457 0.844402 -2.248169
v -243.306702 0.844402 -1.481277
v -243.306702 0.844402 -2.248169
v -243.306702 2.447858 -1.481277
v -243.306702 2.447858 -2.248169
v -243.362457 2.447858 -1.481277
v -243.362457 2.447858 -2.248169
v -243.100754 0.844402 1.737892
v -242.436600 0.844402 1.354446
v -243.072861 0.844402 1.786190
v -242.408722 0.844402 1.402744
v -243.072861 2.447858 1.786190
v -242.408722 2.447858 1.402744
v -243.100754 2.447858 1.737892
v -242.436600 2.447858 1.354446
v -244.816132 0.832887 3.491392
v -243.316742 0.832887 3.491392
v -244.816132 0.832887 3.547159
v -243.316742 0.832887 3.547159
v -244.816132 2.445388 3.547159
v -243.316742 2.445388 3.547159
v -244.816132 2.445388 3.491392
v -243.316742 2.445388 3.491392
v -250.203400 0.844402 4.126343
v -250.745667 0.844402 3.584076
v -250.163971 0.844402 4.086914
v -250.706238 0.844402 3.544647
v -250.163971 2.447858 4.086914
v -250.706238 2.447858 3.544647
v -250.203400 2.447858 4.126343
v -250.745667 2.447858 3.584076
v -253.002930 0.844402 2.250092
v -252.460663 0.844402 1.707825
v -252.963501 0.844402 2.289520
v -252.421234 0.844402 1.747253
v -252.963501 2.447858 2.289520
v -252.421234 2.447858 1.747253
v -253.002930 2.447858 2.250092
v -252.460663 2.447858 1.707825
v -251.582565 0.844402 -1.996632
v -252.124832 0.844402 -1.454365
v -251.621994 0.844402 -2.036060
v -252.164261 0.844402 -1.493793
v -251.621994 2.447858 -2.036060
v -252.164261 2.447858 -1.493793
v -251.582565 2.447858 -1.996632
v -252.124832 2.447858 -1.454365
v -245.116241 0.844402 -2.183762
v -244.732803 0.844402 -1.519615
v -245.164536 0.844402 -2.155884
v -244.781097 0.844402 -1.491737
v -245.164536 2.447858 -2.155884
v -244.781097 2.447858 -1.491737
v -245.116241 2.447858 -2.183762
v -244.732803 2.447858 -1.519615
v -242.560593 0.844402 0.862099
v -243.102859 0.844402 0.319832
v -242.521164 0.844402 0.822670
v -243.063431 0.844402 0.280403
v -242.521164 2.447858 0.822670
v -243.063431 2.447858 0.280403
v -242.560593 2.447858 0.862099
v -243.102859 2.447858 0.319832
vt 0.625000 0.500000
vt 0.375000 0.500000
vt 0.375000 0.250000
vt 0.625000 0.250000
vt 0.375000 0.750000
vt 0.625000 0.750000
vt 0.625000 1.000000
vt 0.375000 1.000000
vt 0.375000 0.737907
vt 0.625000 0.737907
vt 0.375000 0.012093
vt 0.125000 0.012093
vt 0.125000 0.000000
vt 0.375000 0.000000
vt 0.625000 0.000000
vt 0.625000 0.012093
vt 0.875000 0.000000
vt 0.875000 0.012093
vt 0.375000 0.420679
vt 0.375000 0.500000
vt 0.455359 0.500000
vt 0.499551 0.376697
vt 0.455359 0.500000
vt 0.500091 0.500000
vt 0.543743 0.500000
vt 0.625000 0.500000
vt 0.625000 0.420679
vt 0.375000 0.332715
vt 0.375000 0.420679
vt 0.625000 0.420679
vt 0.625000 0.332715
vt 0.375000 0.250000
vt 0.455359 0.250000
vt 0.500091 0.250000
vt 0.625000 0.250000
vt 0.543743 0.250000
vt 0.415179 0.500000
vt 0.415179 0.420679
vt 0.500808 0.420679
vt 0.500808 0.500000
vt 0.500808 0.420679
vt 0.415179 0.420679
vt 0.415179 0.332715
vt 0.500808 0.332715
vt 0.500808 0.332715
vt 0.415179 0.332715
vt 0.415179 0.250000
vt 0.500808 0.250000
vt 0.455359 0.500000
vt 0.375000 0.500000
vt 0.375000 0.500000
vt 0.455359 0.500000
vt 0.375000 0.420679
vt 0.375000 0.420679
vt 0.500091 0.500000
vt 0.500091 0.500000
vt 0.625000 0.420679
vt 0.625000 0.500000
vt 0.625000 0.500000
vt 0.625000 0.420679
vt 0.543743 0.500000
vt 0.543743 0.500000
vt 0.375000 0.332715
vt 0.375000 0.332715
vt 0.625000 0.332715
vt 0.625000 0.332715
vt 0.375000 0.250000
vt 0.455359 0.250000
vt 0.455359 0.250000
vt 0.375000 0.250000
vt 0.500091 0.250000
vt 0.500091 0.250000
vt 0.543743 0.250000
vt 0.625000 0.250000
vt 0.625000 0.250000
vt 0.543743 0.250000
vt 0.455359 0.500000
vt 0.375000 0.500000
vt 0.393989 0.500000
vt 0.431372 0.500000
vt 0.375000 0.420679
vt 0.375000 0.420679
vt 0.500091 0.500000
vt 0.500519 0.500000
vt 0.625000 0.420679
vt 0.625000 0.500000
vt 0.605931 0.500000
vt 0.625000 0.420679
vt 0.543743 0.500000
vt 0.567998 0.500000
vt 0.375000 0.332715
vt 0.375000 0.332715
vt 0.625000 0.332715
vt 0.625000 0.332715
vt 0.375000 0.250000
vt 0.455359 0.250000
vt 0.431372 0.250000
vt 0.393989 0.250000
vt 0.500091 0.250000
vt 0.500519 0.250000
vt 0.543743 0.250000
vt 0.625000 0.250000
vt 0.605931 0.250000
vt 0.567998 0.250000
vt 0.415179 0.500000
vt 0.375000 0.420679
vt 0.500808 0.500000
vt 0.375000 0.332715
vt 0.415179 0.250000
vt 0.500808 0.250000
vt 0.584372 0.500000
vt 0.584372 0.250000
vt 0.625000 0.332715
vt 0.625000 0.420679
vt 0.584372 0.250000
vt 0.584372 0.500000
vt 0.584372 0.332715
vt 0.584372 0.420679
vt 0.584372 0.420679
vt 0.584372 0.332715
vt 0.365878 0.250000
vt 0.365878 0.093413
vt 0.383936 0.093413
vt 0.383936 0.250000
vt 0.365878 0.012093
vt 0.383936 0.012093
vt 0.365878 0.093413
vt 0.365878 0.250000
vt 0.375000 0.250000
vt 0.375000 0.093413
vt 0.383936 0.250000
vt 0.383936 0.093413
vt 0.365878 0.012093
vt 0.375000 0.012093
vt 0.383936 0.012093
vt 0.375000 0.012093
vt 0.365878 0.012093
vt 0.383936 0.012093
vt 0.000000 0.330869
vt 0.000000 0.511778
vt 1.000000 0.511778
vt 1.000000 0.330869
vt 0.000000 0.330869
vt 0.000000 0.511778
vt 1.000000 0.511778
vt 1.000000 0.330869
vt 0.000000 0.330869
vt 0.000000 0.511778
vt 1.000000 0.511778
vt 1.000000 0.330869
vt 0.000000 0.330869
vt 0.000000 0.511778
vt 1.000000 0.511778
vt 1.000000 0.330869
vt 0.000000 0.330869
vt 0.000000 0.511778
vt 1.000000 0.511778
vt 1.000000 0.330869
vt 0.000000 0.153213
vt 1.000000 0.153213
vt 0.000000 0.153213
vt 1.000000 0.153213
vt 0.000000 0.153213
vt 1.000000 0.153213
vt 0.000000 0.720863
vt 0.000000 0.720863
vt 1.000000 0.720863
vt 1.000000 0.720863
vt 0.000000 0.511778
vt 1.000000 0.511778
vt 0.000000 0.153213
vt 0.000000 0.153213
vt 1.000000 0.153213
vt 1.000000 0.153213
vt 1.000000 0.330869
vt 0.000000 0.330869
vt 0.365878 0.250000
vt 0.383936 0.250000
vt 0.383936 0.093413
vt 0.365878 0.093413
vt 0.383936 0.012093
vt 0.365878 0.012093
vt 0.365878 0.093413
vt 0.375000 0.093413
vt 0.375000 0.250000
vt 0.365878 0.250000
vt 0.383936 0.093413
vt 0.383936 0.250000
vt 0.365878 0.012093
vt 0.375000 0.012093
vt 0.383936 0.012093
vt 0.375000 0.012093
vt 0.365878 0.012093
vt 0.383936 0.012093
vt 0.000000 0.330869
vt 1.000000 0.330869
vt 1.000000 0.511778
vt 0.000000 0.511778
vt 0.000000 0.330869
vt 1.000000 0.330869
vt 1.000000 0.511778
vt 0.000000 0.511778
vt 0.000000 0.330869
vt 1.000000 0.330869
vt 1.000000 0.511778
vt 0.000000 0.511778
vt 0.000000 0.330869
vt 1.000000 0.330869
vt 1.000000 0.511778
vt 0.000000 0.511778
vt 0.000000 0.330869
vt 1.000000 0.330869
vt 1.000000 0.511778
vt 0.000000 0.511778
vt 0.000000 0.153213
vt 1.000000 0.153213
vt 0.000000 0.153213
vt 1.000000 0.153213
vt 0.000000 0.153213
vt 1.000000 0.153213
vt 0.000000 0.000000
vt 1.000000 0.000000
vt 1.000000 0.233721
vt 0.000000 0.233721
vt 0.000000 0.000000
vt 1.000000 0.000000
vt 1.000000 0.233721
vt 0.000000 0.233721
vt 0.000000 0.000000
vt 1.000000 0.000000
vt 1.000000 0.233721
vt 0.000000 0.233721
vt 0.000000 0.000000
vt 1.000000 0.000000
vt 1.000000 0.233721
vt 0.000000 0.233721
vt 0.000000 0.000000
vt 1.000000 0.000000
vt 1.000000 0.233721
vt 0.000000 0.233721
vt 0.000000 0.720863
vt 1.000000 0.720863
vt 1.000000 0.720863
vt 0.000000 0.720863
vt 1.000000 0.511778
vt 0.000000 0.511778
vt 0.000000 0.153213
vt 1.000000 0.153213
vt 1.000000 0.153213
vt 0.000000 0.153213
vt 0.000000 0.330869
vt 1.000000 0.330869
vt 1.000000 0.503284
vt 0.000000 0.503284
vt 1.000000 0.503284
vt 0.000000 0.503284
vt 1.000000 0.503284
vt 0.000000 0.503284
vt 0.000000 0.503284
vt 1.000000 0.503284
vt 1.000000 0.743582
vt 0.000000 0.743582
vt 0.000000 0.503284
vt 1.000000 0.503284
vt 1.000000 0.743582
vt 0.000000 0.743582
vt 1.000000 0.743582
vt 0.000000 0.743582
vt 1.000000 0.743582
vt 0.000000 0.743582
vt 1.000000 0.743582
vt 0.000000 0.743582
vt 1.000000 0.233721
vt 0.000000 0.233721
vt 1.000000 0.503284
vt 0.000000 0.503284
vt 0.000000 0.194215
vt 1.000000 0.194215
vt 1.000000 0.000000
vt 0.000000 0.000000
vt 0.000590 0.000000
vt 1.000000 0.000000
vt 0.999403 0.229512
vt 0.000000 0.226913
vt 0.000000 0.000000
vt 0.999413 0.000000
vt 1.000000 0.226238
vt 0.000593 0.228830
vt 0.000000 0.000000
vt 1.000000 0.000000
vt 1.000000 0.194215
vt 0.000000 0.194215
vt 0.000000 0.000000
vt 0.773609 0.000000
vt 0.773609 1.000000
vt 0.000000 0.000000
vt 1.000000 0.000000
vt 1.000000 0.771840
vt 0.000000 0.000000
vt 1.000000 0.000000
vt 0.966271 0.251906
vt 0.000000 0.000000
vt 0.773372 0.000000
vt 0.773372 1.000000
vt 0.000000 0.000000
vt 0.773609 0.000000
vt 0.000000 1.000000
vt 0.000000 0.000000
vt 1.000000 0.000000
vt 0.968085 0.251387
vt 0.365878 0.250000
vt 0.365878 0.093413
vt 0.383936 0.093413
vt 0.383936 0.250000
vt 0.365878 0.012093
vt 0.383936 0.012093
vt 0.365878 0.093413
vt 0.365878 0.250000
vt 0.375000 0.250000
vt 0.375000 0.093413
vt 0.383936 0.250000
vt 0.383936 0.093413
vt 0.365878 0.012093
vt 0.375000 0.012093
vt 0.383936 0.012093
vt 0.375000 0.012093
vt 0.365878 0.012093
vt 0.383936 0.012093
vt 0.000000 0.330869
vt 0.000000 0.511778
vt 1.000000 0.511778
vt 1.000000 0.330869
vt 0.000000 0.330869
vt 0.000000 0.511778
vt 1.000000 0.511778
vt 1.000000 0.330869
vt 0.000000 0.330869
vt 0.000000 0.511778
vt 1.000000 0.511778
vt 1.000000 0.330869
vt 0.000000 0.330869
vt 0.000000 0.511778
vt 1.000000 0.511778
vt 1.000000 0.330869
vt 0.000000 0.330869
vt 0.000000 0.511778
vt 1.000000 0.511778
vt 1.000000 0.330869
vt 0.000000 0.153213
vt 1.000000 0.153213
vt 0.000000 0.153213
vt 1.000000 0.153213
vt 0.000000 0.153213
vt 1.000000 0.153213
vt 0.000000 0.720863
vt 0.000000 0.720863
vt 1.000000 0.720863
vt 1.000000 0.720863
vt 0.000000 0.511778
vt 1.000000 0.511778
vt 0.000000 0.153213
vt 0.000000 0.153213
vt 1.000000 0.153213
vt 1.000000 0.153213
vt 1.000000 0.330869
vt 0.000000 0.330869
vt 0.365878 0.250000
vt 0.383936 0.250000
vt 0.383936 0.093413
vt 0.365878 0.093413
vt 0.383936 0.012093
vt 0.365878 0.012093
vt 0.365878 0.093413
vt 0.375000 0.093413
vt 0.375000 0.250000
vt 0.365878 0.250000
vt 0.383936 0.093413
vt 0.383936 0.250000
vt 0.365878 0.012093
vt 0.375000 0.012093
vt 0.383936 0.012093
vt 0.375000 0.012093
vt 0.365878 0.012093
vt 0.383936 0.012093
vt 0.000000 0.330869
vt 1.000000 0.330869
vt 1.000000 0.511778
vt 0.000000 0.511778
vt 0.000000 0.330869
vt 1.000000 0.330869
vt 1.000000 0.511778
vt 0.000000 0.511778
vt 0.000000 0.330869
vt 1.000000 0.330869
vt 1.000000 0.511778
vt 0.000000 0.511778
vt 0.000000 0.330869
vt 1.000000 0.330869
vt 1.000000 0.511778
vt 0.000000 0.511778
vt 0.000000 0.330869
vt 1.000000 0.330869
vt 1.000000 0.511778
vt 0.000000 0.511778
vt 0.000000 0.153213
vt 1.000000 0.153213
vt 0.000000 0.153213
vt 1.000000 0.153213
vt 0.000000 0.153213
vt 1.000000 0.153213
vt 0.000000 0.000000
vt 1.000000 0.000000
vt 1.000000 0.233721
vt 0.000000 0.233721
vt 0.000000 0.000000
vt 1.000000 0.000000
vt 1.000000 0.233721
vt 0.000000 0.233721
vt 0.000000 0.000000
vt 1.000000 0.000000
vt 1.000000 0.233721
vt 0.000000 0.233721
vt 0.000000 0.000000
vt 1.000000 0.000000
vt 1.000000 0.233721
vt 0.000000 0.233721
vt 0.000000 0.000000
vt 1.000000 0.000000
vt 1.000000 0.233721
vt 0.000000 0.233721
vt 0.000000 0.720863
vt 1.000000 0.720863
vt 1.000000 0.720863
vt 0.000000 0.720863
vt 1.000000 0.511778
vt 0.000000 0.511778
vt 0.000000 0.153213
vt 1.000000 0.153213
vt 1.000000 0.153213
vt 0.000000 0.153213
vt 0.000000 0.330869
vt 1.000000 0.330869
vt 1.000000 0.503284
vt 0.000000 0.503284
vt 1.000000 0.503284
vt 0.000000 0.503284
vt 1.000000 0.503284
vt 0.000000 0.503284
vt 0.000000 0.503284
vt 1.000000 0.503284
vt 1.000000 0.743582
vt 0.000000 0.743582
vt 0.000000 0.503284
vt 1.000000 0.503284
vt 1.000000 0.743582
vt 0.000000 0.743582
vt 1.000000 0.743582
vt 0.000000 0.743582
vt 1.000000 0.743582
vt 0.000000 0.743582
vt 1.000000 0.743582
vt 0.000000 0.743582
vt 1.000000 0.233721
vt 0.000000 0.233721
vt 1.000000 0.503284
vt 0.000000 0.503284
vt 0.000000 0.194215
vt 1.000000 0.194215
vt 1.000000 0.000000
vt 0.000000 0.000000
vt 0.000590 0.000000
vt 1.000000 0.000000
vt 0.999403 0.229512
vt 0.000000 0.226913
vt 0.000000 0.000000
vt 0.999413 0.000000
vt 1.000000 0.226238
vt 0.000593 0.228830
vt 0.000000 0.000000
vt 1.000000 0.000000
vt 1.000000 0.194215
vt 0.000000 0.194215
vt 0.000000 0.000000
vt 0.773609 0.000000
vt 0.773609 1.000000
vt 0.000000 0.000000
vt 1.000000 0.000000
vt 1.000000 0.771840
vt 0.000000 0.000000
vt 1.000000 0.000000
vt 0.966271 0.251906
vt 0.000000 0.000000
vt 0.773372 0.000000
vt 0.773372 1.000000
vt 0.000000 0.000000
vt 0.773609 0.000000
vt 0.000000 1.000000
vt 0.000000 0.000000
vt 1.000000 0.000000
vt 0.968085 0.251387
vt 0.376327 -0.087414
vt 0.586153 -0.085554
vt 0.588527 0.196241
vt 0.369406 0.192953
vt 0.369406 0.192953
vt 0.588527 0.196241
vt 0.593733 0.558308
vt 0.368579 0.556085
vt 0.368579 0.556085
vt 0.593733 0.558308
vt 0.591247 0.816170
vt 0.370715 0.815379
vt 0.591555 1.005614
vt 0.370491 1.005453
vt 0.890794 -0.088466
vt 0.894042 0.194903
vt 0.115281 -0.085420
vt 0.107006 0.194685
vt 0.588527 0.196241
vt 0.369406 0.192953
vt 0.593733 0.558308
vt 0.368579 0.556085
vt 0.376327 -0.087414
vt 0.586153 -0.085554
vt 0.588527 0.196241
vt 0.369406 0.192953
vt 0.369406 0.192953
vt 0.588527 0.196241
vt 0.593733 0.558308
vt 0.368579 0.556085
vt 0.368579 0.556085
vt 0.593733 0.558308
vt 0.591247 0.816170
vt 0.370715 0.815379
vt 0.591555 1.005614
vt 0.370491 1.005453
vt 0.890794 -0.088466
vt 0.894042 0.194903
vt 0.115281 -0.085420
vt 0.107006 0.194685
vt 0.588527 0.196241
vt 0.369406 0.192953
vt 0.593733 0.558308
vt 0.368579 0.556085
vt 0.376327 -0.087414
vt 0.586153 -0.085554
vt 0.588527 0.196241
vt 0.369406 0.192953
vt 0.369406 0.192953
vt 0.588527 0.196241
vt 0.593733 0.558308
vt 0.368579 0.556085
vt 0.368579 0.556085
vt 0.593733 0.558308
vt 0.591247 0.816170
vt 0.370715 0.815379
vt 0.591555 1.005614
vt 0.370491 1.005453
vt 0.890794 -0.088466
vt 0.894042 0.194903
vt 0.115281 -0.085420
vt 0.107006 0.194685
vt 0.588527 0.196241
vt 0.369406 0.192953
vt 0.593733 0.558308
vt 0.368579 0.556085
vt 0.376327 -0.087414
vt 0.586153 -0.085554
vt 0.588527 0.196241
vt 0.369406 0.192953
vt 0.369406 0.192953
vt 0.588527 0.196241
vt 0.593733 0.558308
vt 0.368579 0.556085
vt 0.368579 0.556085
vt 0.593733 0.558308
vt 0.591247 0.816170
vt 0.370715 0.815379
vt 0.591555 1.005614
vt 0.370491 1.005453
vt 0.890794 -0.088466
vt 0.894042 0.194903
vt 0.115281 -0.085420
vt 0.107006 0.194685
vt 0.588527 0.196241
vt 0.369406 0.192953
vt 0.593733 0.558308
vt 0.368579 0.556085
vt 0.376327 -0.087414
vt 0.586153 -0.085554
vt 0.588527 0.196241
vt 0.369406 0.192953
vt 0.369406 0.192953
vt 0.588527 0.196241
vt 0.593733 0.558308
vt 0.368579 0.556085
vt 0.368579 0.556085
vt 0.593733 0.558308
vt 0.591247 0.816170
vt 0.370715 0.815379
vt 0.591555 1.005614
vt 0.370491 1.005453
vt 0.890794 -0.088466
vt 0.894042 0.194903
vt 0.115281 -0.085420
vt 0.107006 0.194685
vt 0.588527 0.196241
vt 0.369406 0.192953
vt 0.593733 0.558308
vt 0.368579 0.556085
vt 0.376327 -0.087414
vt 0.586153 -0.085554
vt 0.588527 0.196241
vt 0.369406 0.192953
vt 0.369406 0.192953
vt 0.588527 0.196241
vt 0.593733 0.558308
vt 0.368579 0.556085
vt 0.368579 0.556085
vt 0.593733 0.558308
vt 0.591247 0.816170
vt 0.370715 0.815379
vt 0.591555 1.005614
vt 0.370491 1.005453
vt 0.890794 -0.088466
vt 0.894042 0.194903
vt 0.115281 -0.085420
vt 0.107006 0.194685
vt 0.588527 0.196241
vt 0.369406 0.192953
vt 0.593733 0.558308
vt 0.368579 0.556085
vt 0.376327 -0.087414
vt 0.586153 -0.085554
vt 0.588527 0.196241
vt 0.369406 0.192953
vt 0.369406 0.192953
vt 0.588527 0.196241
vt 0.593733 0.558308
vt 0.368579 0.556085
vt 0.368579 0.556085
vt 0.593733 0.558308
vt 0.591247 0.816170
vt 0.370715 0.815379
vt 0.591555 1.005614
vt 0.370491 1.005453
vt 0.890794 -0.088466
vt 0.894042 0.194903
vt 0.115281 -0.085420
vt 0.107006 0.194685
vt 0.588527 0.196241
vt 0.369406 0.192953
vt 0.593733 0.558308
vt 0.368579 0.556085
vt 0.376327 -0.087414
vt 0.586153 -0.085554
vt 0.588527 0.196241
vt 0.369406 0.192953
vt 0.369406 0.192953
vt 0.588527 0.196241
vt 0.593733 0.558308
vt 0.368579 0.556085
vt 0.368579 0.556085
vt 0.593733 0.558308
vt 0.591247 0.816170
vt 0.370715 0.815379
vt 0.591555 1.005614
vt 0.370491 1.005453
vt 0.890794 -0.088466
vt 0.894042 0.194903
vt 0.115281 -0.085420
vt 0.107006 0.194685
vt 0.588527 0.196241
vt 0.369406 0.192953
vt 0.593733 0.558308
vt 0.368579 0.556085
vt 0.375000 0.000000
vt 0.625000 0.000000
vt 0.625000 0.250000
vt 0.375000 0.250000
vt 0.625000 0.500000
vt 0.375000 0.500000
vt 0.625000 0.750000
vt 0.375000 0.750000
vt 0.625000 1.000000
vt 0.375000 1.000000
vt 0.875000 0.000000
vt 0.875000 0.250000
vt 0.125000 0.000000
vt 0.125000 0.250000
vt 0.375000 0.000000
vt 0.625000 0.000000
vt 0.625000 0.250000
vt 0.375000 0.250000
vt 0.625000 0.500000
vt 0.375000 0.500000
vt 0.625000 0.750000
vt 0.375000 0.750000
vt 0.625000 1.000000
vt 0.375000 1.000000
vt 0.875000 0.000000
vt 0.875000 0.250000
vt 0.125000 0.000000
vt 0.125000 0.250000
vt 0.375000 0.000000
vt 0.625000 0.000000
vt 0.625000 0.250000
vt 0.375000 0.250000
vt 0.625000 0.500000
vt 0.375000 0.500000
vt 0.625000 0.750000
vt 0.375000 0.750000
vt 0.625000 1.000000
vt 0.375000 1.000000
vt 0.875000 0.000000
vt 0.875000 0.250000
vt 0.125000 0.000000
vt 0.125000 0.250000
vt 0.375000 0.000000
vt 0.625000 0.000000
vt 0.625000 0.250000
vt 0.375000 0.250000
vt 0.625000 0.500000
vt 0.375000 0.500000
vt 0.625000 0.750000
vt 0.375000 0.750000
vt 0.625000 1.000000
vt 0.375000 1.000000
vt 0.875000 0.000000
vt 0.875000 0.250000
vt 0.125000 0.000000
vt 0.125000 0.250000
vt 0.375000 0.000000
vt 0.625000 0.000000
vt 0.625000 0.250000
vt 0.375000 0.250000
vt 0.625000 0.500000
vt 0.375000 0.500000
vt 0.625000 0.750000
vt 0.375000 0.750000
vt 0.625000 1.000000
vt 0.375000 1.000000
vt 0.875000 0.000000
vt 0.875000 0.250000
vt 0.125000 0.000000
vt 0.125000 0.250000
vt 0.375000 0.000000
vt 0.625000 0.000000
vt 0.625000 0.250000
vt 0.375000 0.250000
vt 0.625000 0.500000
vt 0.375000 0.500000
vt 0.625000 0.750000
vt 0.375000 0.750000
vt 0.625000 1.000000
vt 0.375000 1.000000
vt 0.875000 0.000000
vt 0.875000 0.250000
vt 0.125000 0.000000
vt 0.125000 0.250000
vt 0.375000 0.000000
vt 0.625000 0.000000
vt 0.625000 0.250000
vt 0.375000 0.250000
vt 0.625000 0.500000
vt 0.375000 0.500000
vt 0.625000 0.750000
vt 0.375000 0.750000
vt 0.625000 1.000000
vt 0.375000 1.000000
vt 0.875000 0.000000
vt 0.875000 0.250000
vt 0.125000 0.000000
vt 0.125000 0.250000
vt 0.375000 0.000000
vt 0.625000 0.000000
vt 0.625000 0.250000
vt 0.375000 0.250000
vt 0.625000 0.500000
vt 0.375000 0.500000
vt 0.625000 0.750000
vt 0.375000 0.750000
vt 0.625000 1.000000
vt 0.375000 1.000000
vt 0.875000 0.000000
vt 0.875000 0.250000
vt 0.125000 0.000000
vt 0.125000 0.250000
vt 0.375000 0.000000
vt 0.625000 0.000000
vt 0.625000 0.250000
vt 0.375000 0.250000
vt 0.625000 0.500000
vt 0.375000 0.500000
vt 0.625000 0.750000
vt 0.375000 0.750000
vt 0.625000 1.000000
vt 0.375000 1.000000
vt 0.875000 0.000000
vt 0.875000 0.250000
vt 0.125000 0.000000
vt 0.125000 0.250000
vt 0.375000 0.000000
vt 0.625000 0.000000
vt 0.625000 0.250000
vt 0.375000 0.250000
vt 0.625000 0.500000
vt 0.375000 0.500000
vt 0.625000 0.750000
vt 0.375000 0.750000
vt 0.625000 1.000000
vt 0.375000 1.000000
vt 0.875000 0.000000
vt 0.875000 0.250000
vt 0.125000 0.000000
vt 0.125000 0.250000
vt 0.375000 0.000000
vt 0.625000 0.000000
vt 0.625000 0.250000
vt 0.375000 0.250000
vt 0.625000 0.500000
vt 0.375000 0.500000
vt 0.625000 0.750000
vt 0.375000 0.750000
vt 0.625000 1.000000
vt 0.375000 1.000000
vt 0.875000 0.000000
vt 0.875000 0.250000
vt 0.125000 0.000000
vt 0.125000 0.250000
vn 0.000000 1.000000 0.000000
vn 0.000000 1.000000 0.000000
vn 0.000000 1.000000 0.000000
vn 0.000000 1.000000 0.000000
vn 0.000000 -1.000000 0.000000
vn 0.000000 -1.000000 0.000000
vn 0.000000 -1.000000 0.000000
vn 0.000000 -1.000000 0.000000
vn 0.000000 0.657039 -0.753856
vn 0.000000 0.657039 -0.753856
vn 0.000000 0.657039 -0.753856
vn 0.000000 0.657039 -0.753856
vn -0.824463 0.565916 0.000000
vn -0.824463 0.565916 0.000000
vn -0.824463 0.565916 0.000000
vn -0.824463 0.565916 0.000000
vn 0.000000 0.657039 0.753856
vn 0.000000 0.657039 0.753856
vn 0.000000 0.657039 0.753856
vn 0.000000 0.657039 0.753856
vn 0.824404 0.566001 0.000000
vn 0.824404 0.566001 0.000000
vn 0.824404 0.566001 0.000000
vn 0.824404 0.566001 0.000000
vn -0.130789 -0.990981 -0.029160
vn -0.000579 -1.000000 -0.000639
vn -0.028003 -0.990524 -0.134454
vn -0.000004 -1.000000 -0.000014
vn 0.000044 -0.995435 -0.095437
vn 0.027609 -0.990483 -0.134835
vn 0.000574 -1.000000 -0.000646
vn 0.130787 -0.990981 -0.029162
vn -0.131469 -0.990913 0.028427
vn 0.131466 -0.990913 0.028428
vn -0.000581 -1.000000 0.000625
vn -0.028003 -0.990526 0.134437
vn 0.000044 -0.995438 0.095409
vn 0.000576 -1.000000 0.000632
vn 0.027610 -0.990486 0.134818
vn 0.026648 0.839500 -0.542706
vn 0.027314 0.798490 -0.601389
vn 0.000010 0.798789 -0.601611
vn 0.000009 0.839798 -0.542899
vn 0.000014 1.000000 -0.000021
vn 0.034188 0.999415 -0.000021
vn 0.034188 0.999415 -0.000021
vn 0.000014 1.000000 -0.000021
vn 0.000010 0.810861 0.585239
vn 0.027727 0.810548 0.585015
vn 0.026837 0.844981 0.534123
vn 0.000010 0.845286 0.534315
vn -0.093662 -0.935344 -0.341115
vn -0.093662 -0.935344 -0.341115
vn -0.056110 -0.962622 -0.264973
vn -0.317465 -0.941302 -0.114750
vn -0.258943 -0.964175 -0.057583
vn -0.317465 -0.941302 -0.114750
vn 0.000094 -0.982402 -0.186781
vn 0.317468 -0.941300 -0.114751
vn 0.317468 -0.941300 -0.114751
vn 0.258943 -0.964175 -0.057583
vn 0.091932 -0.934996 -0.342536
vn 0.055336 -0.962461 -0.265718
vn 0.091932 -0.934996 -0.342536
vn -0.260274 -0.963902 0.056130
vn 0.260273 -0.963902 0.056130
vn -0.093663 -0.935343 0.341117
vn -0.056110 -0.962622 0.264974
vn -0.093663 -0.935343 0.341117
vn -0.320116 -0.940752 0.111854
vn -0.320116 -0.940752 0.111854
vn 0.000094 -0.982402 0.186781
vn 0.091932 -0.934996 0.342536
vn 0.091932 -0.934996 0.342536
vn 0.055336 -0.962461 0.265719
vn 0.320116 -0.940752 0.111854
vn 0.320116 -0.940752 0.111854
vn 0.099669 0.984126 -0.146840
vn 0.167301 0.981230 -0.095903
vn 0.166697 0.971698 -0.167375
vn 0.097822 0.972899 -0.209519
vn -0.162629 0.971253 0.173836
vn -0.175399 0.980623 0.087255
vn -0.232481 0.970419 0.065118
vn -0.207657 0.969540 0.129889
vn -0.000116 0.980483 -0.196604
vn -0.000067 0.968196 -0.250193
vn 0.174059 0.980851 0.087376
vn 0.161404 0.971415 0.174075
vn 0.206314 0.969787 0.130186
vn 0.230971 0.970769 0.065267
vn -0.164418 0.981960 -0.093389
vn -0.098334 0.984481 -0.145354
vn -0.096594 0.973292 -0.208260
vn -0.164125 0.972507 -0.165206
vn -0.173458 0.981145 -0.085248
vn -0.231056 0.970859 -0.063612
vn 0.172125 0.981369 -0.085365
vn 0.229546 0.971207 -0.063756
vn 0.167299 0.981227 0.095942
vn 0.099668 0.984118 0.146895
vn 0.097819 0.972886 0.209581
vn 0.166692 0.971690 0.167427
vn -0.158814 0.972587 -0.169859
vn -0.204841 0.970536 -0.126887
vn -0.000116 0.980469 0.196676
vn -0.000067 0.968177 0.250265
vn -0.098333 0.984473 0.145409
vn -0.164417 0.981957 0.093426
vn -0.164118 0.972500 0.165256
vn -0.096590 0.973279 0.208321
vn 0.157601 0.972744 -0.170092
vn 0.203499 0.970780 -0.127175
vn -1.000000 0.000046 -0.000037
vn -1.000000 0.000066 -0.000018
vn -1.000000 -0.000013 -0.000012
vn -0.000005 0.919080 -0.394070
vn 0.072739 0.936311 -0.343557
vn -1.000000 0.000074 0.000018
vn -1.000000 0.000062 0.000036
vn -1.000000 -0.000008 0.000012
vn 0.072735 0.936298 0.343592
vn -0.000004 0.919072 0.394089
vn 1.000000 0.000255 -0.000110
vn 1.000000 0.000244 0.000108
vn 1.000000 0.000641 0.000162
vn 1.000000 0.000656 -0.000166
vn 1.000000 0.000582 0.000323
vn 1.000000 0.000614 -0.000331
vn 1.000000 -0.000274 0.000000
vn 1.000000 -0.000274 0.000000
vn -1.000000 -0.000086 0.000000
vn -1.000000 -0.000086 0.000000
vn -0.071983 0.936607 0.342909
vn -0.026818 0.844982 0.534122
vn -0.027706 0.810551 0.585012
vn -0.034160 0.999416 -0.000020
vn -0.034160 0.999416 -0.000020
vn -0.027294 0.798493 -0.601385
vn -0.026629 0.839501 -0.542706
vn -0.071987 0.936618 -0.342877
vn 0.000010 -0.047913 -0.998852
vn -0.004945 -0.047570 -0.998856
vn -0.004945 -0.047570 -0.998856
vn 0.000010 -0.047913 -0.998852
vn 0.004882 -0.047568 -0.998856
vn 0.004882 -0.047568 -0.998856
vn 0.008026 -0.047222 -0.998852
vn 0.008026 -0.047222 -0.998852
vn 0.999306 -0.037054 -0.003813
vn 0.999291 -0.036860 -0.007626
vn 0.999291 -0.036860 -0.007626
vn 0.999306 -0.037054 -0.003813
vn 0.999307 -0.037033 0.003720
vn 0.999307 -0.037033 0.003720
vn 0.999294 -0.036820 0.007440
vn 0.999294 -0.036820 0.007440
vn 0.004883 -0.047578 0.998856
vn 0.008028 -0.047232 0.998852
vn 0.008028 -0.047232 0.998852
vn 0.004883 -0.047578 0.998856
vn 0.000010 -0.047923 0.998851
vn 0.000010 -0.047923 0.998851
vn -0.004946 -0.047580 0.998855
vn -0.004946 -0.047580 0.998855
vn -0.008173 -0.047237 0.998850
vn -0.008173 -0.047237 0.998850
vn -0.999306 -0.037059 0.003720
vn -0.999294 -0.036836 0.007440
vn -0.999294 -0.036836 0.007440
vn -0.999306 -0.037059 0.003720
vn -0.999307 -0.037022 -0.003813
vn -0.999307 -0.037022 -0.003813
vn -0.999295 -0.036762 -0.007626
vn -0.999295 -0.036762 -0.007626
vn -0.008172 -0.047227 -0.998851
vn -0.008172 -0.047227 -0.998851
vn 0.000000 0.000000 -1.000000
vn 0.000000 0.000000 -1.000000
vn 0.000000 0.000000 -1.000000
vn 0.000000 0.000000 -1.000000
vn -1.000000 0.000000 0.000000
vn -1.000000 0.000000 0.000000
vn 0.000000 0.000000 1.000000
vn 0.000000 0.000000 1.000000
vn 0.000000 0.000000 1.000000
vn 0.000000 0.000000 1.000000
vn 0.000000 0.000000 -1.000000
vn 0.000000 0.000000 -1.000000
vn 0.000000 0.000000 1.000000
vn 0.000000 0.000000 1.000000
vn 1.000000 0.000000 0.000000
vn 1.000000 0.000000 0.000000
vn 0.286872 0.957005 0.042959
vn 0.250411 0.964332 0.085784
vn 0.285959 0.957323 -0.041947
vn 0.248593 0.964980 -0.083755
vn -0.287635 0.956829 -0.041775
vn -0.250054 0.964632 -0.083412
vn -0.288542 0.956511 0.042781
vn -0.251861 0.963985 0.085429
vn -0.707584 0.000000 0.706629
vn -0.707583 0.000000 0.706630
vn -0.707583 0.000000 0.706630
vn -0.707584 0.000000 0.706629
vn -0.707583 0.000000 0.706631
vn -0.707583 0.000000 0.706631
vn 0.000000 0.000000 -1.000000
vn 0.000000 0.000000 -1.000000
vn 0.000000 0.000000 -1.000000
vn 0.000000 0.000000 -1.000000
vn 1.000000 0.000000 0.000000
vn 1.000000 0.000000 0.000000
vn 1.000000 0.000000 0.000000
vn 1.000000 0.000000 0.000000
vn 0.000000 0.000000 -1.000000
vn 0.000000 0.000000 -1.000000
vn 1.000000 0.000000 0.000000
vn 1.000000 0.000000 0.000000
vn -0.000000 -1.000000 0.000000
vn -0.000000 -1.000000 -0.000000
vn -0.000000 -1.000000 -0.000000
vn 0.000000 -1.000000 0.000000
vn 0.000000 -1.000000 0.000000
vn 0.000000 0.000000 -1.000000
vn 0.000000 0.000000 -1.000000
vn 0.000000 0.000000 -1.000000
vn 0.000000 0.000000 -1.000000
vn 0.000000 0.000000 -1.000000
vn 0.000000 0.000000 -1.000000
vn 0.000000 -1.000000 0.000000
vn 0.000000 -1.000000 0.000000
vn 0.000000 -1.000000 0.000000
vn 0.000000 -1.000000 0.000000
vn 0.000000 0.000000 1.000000
vn 0.000000 0.000000 1.000000
vn 0.000000 0.000000 1.000000
vn 0.000000 0.000000 1.000000
vn 0.000000 0.000000 1.000000
vn 0.000000 0.000000 1.000000
vn 0.000000 0.000000 1.000000
vn 0.000000 0.000000 1.000000
vn -1.000000 0.000000 0.000000
vn -1.000000 0.000000 0.000000
vn -1.000000 0.000000 0.000000
vn -1.000000 0.000000 0.000000
vn -1.000000 0.000000 0.000000
vn -1.000000 0.000000 0.000000
vn -1.000000 0.000000 0.000000
vn -1.000000 0.000000 0.000000
vn -1.000000 0.000000 0.000000
vn -1.000000 0.000000 0.000000
vn 1.000000 0.000000 0.000000
vn 1.000000 0.000000 0.000000
vn 1.000000 0.000000 0.000000
vn 1.000000 0.000000 0.000000
vn 0.000000 1.000000 0.000000
vn 0.000000 1.000000 0.000000
vn 0.000000 1.000000 0.000000
vn 0.000000 1.000000 0.000000
vn -0.710660 0.000000 -0.703535
vn -0.710660 0.000000 -0.703535
vn -0.710659 0.000000 -0.703536
vn -0.710659 0.000000 -0.703536
vn -0.710658 0.000000 -0.703537
vn -0.710658 0.000000 -0.703537
vn 0.000000 0.000000 1.000000
vn 0.000000 0.000000 1.000000
vn 0.000000 0.000000 1.000000
vn 0.000000 0.000000 1.000000
vn 1.000000 0.000000 0.000000
vn 1.000000 0.000000 0.000000
vn 1.000000 0.000000 0.000000
vn 1.000000 0.000000 0.000000
vn 0.000000 0.000000 1.000000
vn 0.000000 0.000000 1.000000
vn 1.000000 0.000000 0.000000
vn 1.000000 0.000000 0.000000
vn -0.000000 -1.000000 -0.000000
vn -0.000000 -1.000000 0.000000
vn -0.000000 -1.000000 0.000000
vn 0.000000 -1.000000 -0.000000
vn 0.000000 -1.000000 0.000000
vn 0.000000 0.000000 1.000000
vn 0.000000 0.000000 1.000000
vn 0.000000 0.000000 1.000000
vn 0.000000 0.000000 1.000000
vn 0.000000 0.000000 1.000000
vn 0.000000 0.000000 1.000000
vn 0.000000 -1.000000 -0.000000
vn 0.000000 -1.000000 -0.000000
vn 0.000000 -1.000000 -0.000000
vn 0.000000 -1.000000 -0.000000
vn 0.000000 0.000000 -1.000000
vn 0.000000 0.000000 -1.000000
vn 0.000000 0.000000 -1.000000
vn 0.000000 0.000000 -1.000000
vn 0.000000 0.000000 -1.000000
vn 0.000000 0.000000 -1.000000
vn 0.000000 0.000000 -1.000000
vn 0.000000 0.000000 -1.000000
vn 1.000000 0.000000 0.000000
vn 1.000000 0.000000 0.000000
vn 1.000000 0.000000 0.000000
vn -0.999998 -0.001008 0.001829
vn -0.999997 0.000000 0.002439
vn -0.999997 0.000000 0.002439
vn -0.999997 -0.002006 0.001220
vn 0.000000 -1.000000 0.000000
vn 0.000000 -1.000000 0.000000
vn -0.999997 -0.002017 0.001220
vn -0.999995 -0.003010 0.000610
vn -1.000000 0.000000 0.000000
vn -1.000000 0.000000 0.000000
vn -1.000000 0.000000 0.000000
vn -1.000000 0.000000 0.000000
vn -1.000000 0.000000 0.000000
vn -1.000000 0.000000 0.000000
vn -1.000000 0.000000 0.000000
vn -1.000000 0.000000 0.000000
vn -1.000000 0.000000 0.000000
vn -1.000000 0.000000 0.000000
vn 1.000000 0.000000 0.000000
vn 1.000000 0.000000 0.000000
vn 1.000000 0.000000 0.000000
vn 1.000000 0.000000 0.000000
vn 0.000000 1.000000 0.000000
vn 0.000000 1.000000 0.000000
vn 0.000000 1.000000 0.000000
vn 0.000000 1.000000 0.000000
vn -0.999997 -0.002000 -0.001168
vn -0.999995 -0.003001 -0.000584
vn 0.000000 -1.000000 0.000000
vn 0.000000 -1.000000 0.000000
vn 1.000000 0.000000 0.000000
vn 1.000000 0.000000 0.000000
vn 1.000000 0.000000 0.000000
vn -0.999997 0.000000 -0.002335
vn -0.999997 0.000000 -0.002335
vn -0.999998 -0.000999 -0.001752
vn -0.999997 -0.001999 -0.001168
vn 0.000000 0.000000 -1.000000
vn 0.000000 0.000000 -1.000000
vn 0.000000 0.000000 -1.000000
vn 0.000000 0.000000 -1.000000
vn 0.000000 1.000000 0.000000
vn 0.000000 1.000000 0.000000
vn 0.000000 1.000000 0.000000
vn 0.000000 1.000000 0.000000
vn -0.000000 0.000000 1.000000
vn -0.000000 0.000000 1.000000
vn -0.000000 0.000000 1.000000
vn -0.000000 0.000000 1.000000
vn 0.000000 1.000000 0.000000
vn 0.000000 1.000000 0.000000
vn 0.000000 1.000000 0.000000
vn 0.000000 1.000000 0.000000
vn 0.000000 1.000000 0.000001
vn 0.000000 1.000000 -0.000000
vn 0.000000 1.000000 -0.000000
vn 0.000000 1.000000 -0.000000
vn 0.000000 1.000000 0.000000
vn 0.000000 1.000000 0.000000
vn 0.000000 1.000000 0.000000
vn 0.000000 1.000000 0.000000
vn 0.000000 1.000000 0.000000
vn 0.000000 1.000000 0.000000
vn 0.000000 1.000000 0.000000
vn 0.000000 1.000000 0.000000
vn 0.000000 1.000000 0.000000
vn 0.000000 1.000000 0.000000
vn 0.000000 1.000000 0.000000
vn 0.000000 1.000000 0.000001
vn 0.000000 1.000000 0.000000
vn 0.000000 1.000000 0.000001
vn 0.707591 0.000000 -0.706622
vn 0.707591 0.000000 -0.706622
vn 0.707591 0.000000 -0.706622
vn 0.707591 0.000000 -0.706622
vn 0.707591 0.000000 -0.706623
vn 0.707591 0.000000 -0.706623
vn 0.000000 0.000000 1.000000
vn 0.000000 0.000000 1.000000
vn 0.000000 0.000000 1.000000
vn 0.000000 0.000000 1.000000
vn -1.000000 0.000000 0.000000
vn -1.000000 0.000000 0.000000
vn -1.000000 0.000000 0.000000
vn -1.000000 0.000000 0.000000
vn 0.000000 0.000000 1.000000
vn 0.000000 0.000000 1.000000
vn -1.000000 0.000000 0.000000
vn -1.000000 0.000000 0.000000
vn 0.000000 -1.000000 -0.000000
vn 0.000000 -1.000000 0.000000
vn 0.000000 -1.000000 0.000000
vn 0.000000 -1.000000 -0.000000
vn 0.000000 -1.000000 0.000000
vn 0.000000 0.000000 1.000000
vn 0.000000 0.000000 1.000000
vn 0.000000 0.000000 1.000000
vn 0.000000 0.000000 1.000000
vn 0.000000 0.000000 1.000000
vn 0.000000 0.000000 1.000000
vn -0.000000 -1.000000 -0.000000
vn -0.000000 -1.000000 -0.000000
vn -0.000000 -1.000000 -0.000000
vn -0.000000 -1.000000 -0.000000
vn 0.000000 0.000000 -1.000000
vn 0.000000 0.000000 -1.000000
vn 0.000000 0.000000 -1.000000
vn 0.000000 0.000000 -1.000000
vn 0.000000 0.000000 -1.000000
vn 0.000000 0.000000 -1.000000
vn 0.000000 0.000000 -1.000000
vn 0.000000 0.000000 -1.000000
vn 1.000000 0.000000 0.000000
vn 1.000000 0.000000 0.000000
vn 1.000000 0.000000 0.000000
vn 1.000000 0.000000 0.000000
vn 1.000000 0.000000 0.000000
vn 1.000000 0.000000 0.000000
vn 1.000000 0.000000 0.000000
vn 1.000000 0.000000 0.000000
vn 1.000000 0.000000 0.000000
vn 1.000000 0.000000 0.000000
vn -1.000000 0.000000 0.000000
vn -1.000000 0.000000 0.000000
vn -1.000000 0.000000 0.000000
vn -1.000000 0.000000 0.000000
vn 0.000000 1.000000 0.000000
vn 0.000000 1.000000 0.000000
vn 0.000000 1.000000 0.000000
vn 0.000000 1.000000 0.000000
vn 0.710660 0.000000 0.703536
vn 0.710660 0.000000 0.703536
vn 0.710660 0.000000 0.703536
vn 0.710660 0.000000 0.703536
vn 0.710659 0.000000 0.703536
vn 0.710659 0.000000 0.703536
vn 0.000000 0.000000 -1.000000
vn 0.000000 0.000000 -1.000000
vn 0.000000 0.000000 -1.000000
vn 0.000000 0.000000 -1.000000
vn -1.000000 0.000000 0.000000
vn -1.000000 0.000000 0.000000
vn -1.000000 0.000000 0.000000
vn -1.000000 0.000000 0.000000
vn 0.000000 0.000000 -1.000000
vn 0.000000 0.000000 -1.000000
vn -1.000000 0.000000 0.000000
vn -1.000000 0.000000 0.000000
vn 0.000000 -1.000000 0.000000
vn 0.000000 -1.000000 -0.000000
vn 0.000000 -1.000000 -0.000000
vn 0.000000 -1.000000 0.000000
vn 0.000000 -1.000000 0.000000
vn 0.000000 0.000000 -1.000000
vn 0.000000 0.000000 -1.000000
vn 0.000000 0.000000 -1.000000
vn 0.000000 0.000000 -1.000000
vn 0.000000 0.000000 -1.000000
vn 0.000000 0.000000 -1.000000
vn -0.000000 -1.000000 0.000000
vn -0.000000 -1.000000 0.000000
vn -0.000000 -1.000000 0.000000
vn -0.000000 -1.000000 0.000000
vn 0.000000 0.000000 1.000000
vn 0.000000 0.000000 1.000000
vn 0.000000 0.000000 1.000000
vn 0.000000 0.000000 1.000000
vn 0.000000 0.000000 1.000000
vn 0.000000 0.000000 1.000000
vn 0.000000 0.000000 1.000000
vn 0.000000 0.000000 1.000000
vn -1.000000 0.000000 0.000000
vn -1.000000 0.000000 0.000000
vn -1.000000 0.000000 0.000000
vn 0.999998 -0.000996 -0.001829
vn 0.999997 0.000000 -0.002439
vn 0.999997 0.000000 -0.002439
vn 0.999997 -0.001991 -0.001220
vn 0.000000 -1.000000 0.000000
vn 0.000000 -1.000000 0.000000
vn 0.999997 -0.001993 -0.001220
vn 0.999995 -0.002987 -0.000610
vn 1.000000 0.000000 0.000000
vn 1.000000 0.000000 0.000000
vn 1.000000 0.000000 0.000000
vn 1.000000 0.000000 0.000000
vn 1.000000 0.000000 0.000000
vn 1.000000 0.000000 0.000000
vn 1.000000 0.000000 0.000000
vn 1.000000 0.000000 0.000000
vn 1.000000 0.000000 0.000000
vn 1.000000 0.000000 0.000000
vn -1.000000 0.000000 0.000000
vn -1.000000 0.000000 0.000000
vn -1.000000 0.000000 0.000000
vn -1.000000 0.000000 0.000000
vn 0.000000 1.000000 0.000000
vn 0.000000 1.000000 0.000000
vn 0.000000 1.000000 0.000000
vn 0.000000 1.000000 0.000000
vn 0.999997 -0.001986 0.001168
vn 0.999995 -0.002978 0.000584
vn 0.000000 -1.000000 0.000000
vn 0.000000 -1.000000 0.000000
vn -1.000000 0.000000 0.000000
vn -1.000000 0.000000 0.000000
vn -1.000000 0.000000 0.000000
vn 0.999997 0.000000 0.002335
vn 0.999997 0.000000 0.002335
vn 0.999998 -0.000988 0.001752
vn 0.999997 -0.001976 0.001168
vn 0.000000 0.000000 1.000000
vn 0.000000 0.000000 1.000000
vn 0.000000 0.000000 1.000000
vn 0.000000 0.000000 1.000000
vn -0.000000 1.000000 0.000000
vn -0.000000 1.000000 0.000000
vn -0.000000 1.000000 0.000000
vn -0.000000 1.000000 0.000000
vn -0.000000 0.000000 -1.000000
vn -0.000000 0.000000 -1.000000
vn -0.000000 0.000000 -1.000000
vn -0.000000 0.000000 -1.000000
vn 0.000000 1.000000 0.000000
vn 0.000000 1.000000 0.000000
vn 0.000000 1.000000 0.000000
vn 0.000000 1.000000 0.000000
vn 0.000000 1.000000 -0.000001
vn 0.000000 1.000000 0.000000
vn 0.000000 1.000000 0.000000
vn 0.000000 1.000000 0.000000
vn 0.000000 1.000000 -0.000000
vn 0.000000 1.000000 -0.000000
vn 0.000000 1.000000 -0.000000
vn 0.000000 1.000000 -0.000000
vn 0.000000 1.000000 0.000000
vn 0.000000 1.000000 0.000000
vn 0.000000 1.000000 0.000000
vn 0.000000 1.000000 0.000000
vn 0.000000 1.000000 0.000000
vn 0.000000 1.000000 0.000000
vn 0.000000 1.000000 0.000000
vn 0.000000 1.000000 -0.000001
vn 0.000000 1.000000 0.000000
vn 0.000000 1.000000 -0.000001
vn 0.000000 0.000000 1.000000
vn 0.000000 0.000000 1.000000
vn 0.000000 0.000000 1.000000
vn 0.000000 0.000000 1.000000
vn 0.000000 1.000000 0.000000
vn 0.000000 1.000000 0.000000
vn 0.000000 1.000000 0.000000
vn 0.000000 1.000000 0.000000
vn 0.000000 0.000000 -1.000000
vn 0.000000 0.000000 -1.000000
vn 0.000000 0.000000 -1.000000
vn 0.000000 0.000000 -1.000000
vn 0.000000 -1.000000 0.000000
vn 0.000000 -1.000000 0.000000
vn 0.000000 -1.000000 0.000000
vn 0.000000 -1.000000 0.000000
vn 1.000000 0.000000 0.000000
vn 1.000000 0.000000 0.000000
vn 1.000000 0.000000 0.000000
vn 1.000000 0.000000 0.000000
vn -1.000000 0.000000 0.000000
vn -1.000000 0.000000 0.000000
vn -1.000000 0.000000 0.000000
vn -1.000000 0.000000 0.000000
vn 0.000000 1.000000 0.000000
vn 0.000000 1.000000 0.000000
vn 0.000000 1.000000 0.000000
vn 0.000000 1.000000 0.000000
vn 0.000000 1.000000 -0.000000
vn 0.000000 1.000000 -0.000000
vn 0.000000 1.000000 -0.000000
vn 0.000000 1.000000 -0.000000
vn 0.000000 0.000000 1.000000
vn 0.000000 0.000000 1.000000
vn 0.000000 0.000000 1.000000
vn 0.000000 0.000000 1.000000
vn 1.000000 0.000000 0.000000
vn 1.000000 0.000000 0.000000
vn 1.000000 0.000000 0.000000
vn 1.000000 0.000000 0.000000
vn 0.000000 0.000000 -1.000000
vn 0.000000 0.000000 -1.000000
vn 0.000000 0.000000 -1.000000
vn 0.000000 0.000000 -1.000000
vn -1.000000 0.000000 0.000000
vn -1.000000 0.000000 0.000000
vn -1.000000 0.000000 0.000000
vn -1.000000 0.000000 0.000000
vn 0.000000 0.000000 1.000000
vn 0.000000 0.000000 1.000000
vn 0.000000 0.000000 1.000000
vn 0.000000 0.000000 1.000000
vn 0.000000 1.000000 0.000000
vn 0.000000 1.000000 0.000000
vn 0.000000 1.000000 0.000000
vn 0.000000 1.000000 0.000000
vn 0.000000 0.000000 -1.000000
vn 0.000000 0.000000 -1.000000
vn 0.000000 0.000000 -1.000000
vn 0.000000 0.000000 -1.000000
vn 0.000000 -1.000000 0.000000
vn 0.000000 -1.000000 0.000000
vn 0.000000 -1.000000 0.000000
vn 0.000000 -1.000000 0.000000
vn 1.000000 0.000000 0.000000
vn 1.000000 0.000000 0.000000
vn 1.000000 0.000000 0.000000
vn 1.000000 0.000000 0.000000
vn -1.000000 0.000000 0.000000
vn -1.000000 0.000000 0.000000
vn -1.000000 0.000000 0.000000
vn -1.000000 0.000000 0.000000
vn 0.000000 1.000000 0.000000
vn 0.000000 1.000000 0.000000
vn 0.000000 1.000000 0.000000
vn 0.000000 1.000000 0.000000
vn 0.000000 1.000000 -0.000000
vn 0.000000 1.000000 -0.000000
vn 0.000000 1.000000 -0.000000
vn 0.000000 1.000000 -0.000000
vn 0.000000 0.000000 1.000000
vn 0.000000 0.000000 1.000000
vn 0.000000 0.000000 1.000000
vn 0.000000 0.000000 1.000000
vn 1.000000 0.000000 0.000000
vn 1.000000 0.000000 0.000000
vn 1.000000 0.000000 0.000000
vn 1.000000 0.000000 0.000000
vn 0.000000 0.000000 -1.000000
vn 0.000000 0.000000 -1.000000
vn 0.000000 0.000000 -1.000000
vn 0.000000 0.000000 -1.000000
vn -1.000000 0.000000 0.000000
vn -1.000000 0.000000 0.000000
vn -1.000000 0.000000 0.000000
vn -1.000000 0.000000 0.000000
vn -0.707133 0.000000 0.707081
vn -0.707133 0.000000 0.707081
vn -0.707133 0.000000 0.707081
vn -0.707133 0.000000 0.707081
vn 0.000000 1.000000 0.000001
vn 0.000000 1.000000 0.000001
vn 0.000000 1.000000 0.000001
vn 0.000000 1.000000 0.000001
vn 0.707095 0.000000 -0.707118
vn 0.707095 0.000000 -0.707118
vn 0.707095 0.000000 -0.707118
vn 0.707095 0.000000 -0.707118
vn 0.000000 -1.000000 0.000000
vn 0.000000 -1.000000 0.000000
vn 0.000000 -1.000000 0.000000
vn 0.000000 -1.000000 0.000000
vn 0.707081 0.000000 0.707132
vn 0.707081 0.000000 0.707132
vn 0.707081 0.000000 0.707132
vn 0.707081 0.000000 0.707132
vn -0.707118 0.000000 -0.707095
vn -0.707118 0.000000 -0.707095
vn -0.707118 0.000000 -0.707095
vn -0.707118 0.000000 -0.707095
vn 0.000000 1.000000 -0.000000
vn 0.000000 1.000000 -0.000000
vn 0.000000 1.000000 -0.000000
vn 0.000000 1.000000 -0.000000
vn 0.000000 1.000000 -0.000000
vn 0.000000 1.000000 -0.000000
vn 0.000000 1.000000 -0.000000
vn 0.000000 1.000000 -0.000000
vn -0.707091 0.000000 0.707123
vn -0.707091 0.000000 0.707123
vn -0.707091 0.000000 0.707123
vn -0.707091 0.000000 0.707123
vn 0.707113 0.000000 0.707100
vn 0.707113 0.000000 0.707100
vn 0.707113 0.000000 0.707100
vn 0.707113 0.000000 0.707100
vn 0.707089 0.000000 -0.707124
vn 0.707089 0.000000 -0.707124
vn 0.707089 0.000000 -0.707124
vn 0.707089 0.000000 -0.707124
vn -0.707112 0.000000 -0.707101
vn -0.707112 0.000000 -0.707101
vn -0.707112 0.000000 -0.707101
vn -0.707112 0.000000 -0.707101
vn -0.707096 0.000000 0.707118
vn -0.707096 0.000000 0.707118
vn -0.707096 0.000000 0.707118
vn -0.707096 0.000000 0.707118
vn 0.000000 1.000000 0.000001
vn 0.000000 1.000000 0.000001
vn 0.000000 1.000000 0.000001
vn 0.000000 1.000000 0.000001
vn 0.707133 0.000000 -0.707081
vn 0.707133 0.000000 -0.707081
vn 0.707133 0.000000 -0.707081
vn 0.707133 0.000000 -0.707081
vn 0.000000 -1.000000 0.000000
vn 0.000000 -1.000000 0.000000
vn 0.000000 -1.000000 0.000000
vn 0.000000 -1.000000 0.000000
vn 0.707119 0.000000 0.707095
vn 0.707119 0.000000 0.707095
vn 0.707119 0.000000 0.707095
vn 0.707119 0.000000 0.707095
vn -0.707081 0.000000 -0.707133
vn -0.707081 0.000000 -0.707133
vn -0.707081 0.000000 -0.707133
vn -0.707081 0.000000 -0.707133
vn 0.000000 1.000000 0.000000
vn 0.000000 1.000000 0.000000
vn 0.000000 1.000000 0.000000
vn 0.000000 1.000000 0.000000
vn 0.000000 1.000000 0.000000
vn 0.000000 1.000000 0.000000
vn 0.000000 1.000000 0.000000
vn 0.000000 1.000000 0.000000
vn -0.707091 0.000000 0.707123
vn -0.707091 0.000000 0.707123
vn -0.707091 0.000000 0.707123
vn -0.707091 0.000000 0.707123
vn 0.707113 0.000000 0.707100
vn 0.707113 0.000000 0.707100
vn 0.707113 0.000000 0.707100
vn 0.707113 0.000000 0.707100
vn 0.707089 0.000000 -0.707124
vn 0.707089 0.000000 -0.707124
vn 0.707089 0.000000 -0.707124
vn 0.707089 0.000000 -0.707124
vn -0.707112 0.000000 -0.707101
vn -0.707112 0.000000 -0.707101
vn -0.707112 0.000000 -0.707101
vn -0.707112 0.000000 -0.707101
vn 0.707135 0.000000 -0.707079
vn 0.707135 0.000000 -0.707079
vn 0.707135 0.000000 -0.707079
vn 0.707135 0.000000 -0.707079
vn 0.000000 1.000000 -0.000001
vn 0.000000 1.000000 -0.000001
vn 0.000000 1.000000 -0.000001
vn 0.000000 1.000000 -0.000001
vn -0.707098 0.000000 0.707116
vn -0.707098 0.000000 0.707116
vn -0.707098 0.000000 0.707116
vn -0.707098 0.000000 0.707116
vn 0.000000 -1.000000 0.000000
vn 0.000000 -1.000000 0.000000
vn 0.000000 -1.000000 0.000000
vn 0.000000 -1.000000 0.000000
vn -0.707088 0.000000 -0.707125
vn -0.707088 0.000000 -0.707125
vn -0.707088 0.000000 -0.707125
vn -0.707088 0.000000 -0.707125
vn 0.707125 0.000000 0.707088
vn 0.707125 0.000000 0.707088
vn 0.707125 0.000000 0.707088
vn 0.707125 0.000000 0.707088
vn 0.000000 1.000000 0.000000
vn 0.000000 1.000000 0.000000
vn 0.000000 1.000000 0.000000
vn 0.000000 1.000000 0.000000
vn 0.000000 1.000000 0.000000
vn 0.000000 1.000000 0.000000
vn 0.000000 1.000000 0.000000
vn 0.000000 1.000000 0.000000
vn 0.707084 0.000000 -0.707129
vn 0.707084 0.000000 -0.707129
vn 0.707084 0.000000 -0.707129
vn 0.707084 0.000000 -0.707129
vn -0.707107 0.000000 -0.707107
vn -0.707107 0.000000 -0.707107
vn -0.707107 0.000000 -0.707107
vn -0.707107 0.000000 -0.707107
vn -0.707084 0.000000 0.707129
vn -0.707084 0.000000 0.707129
vn -0.707084 0.000000 0.707129
vn -0.707084 0.000000 0.707129
vn 0.707107 0.000000 0.707107
vn 0.707107 0.000000 0.707107
vn 0.707107 0.000000 0.707107
vn 0.707107 0.000000 0.707107
vn 0.000000 0.000000 -1.000000
vn 0.000000 0.000000 -1.000000
vn 0.000000 0.000000 -1.000000
vn 0.000000 0.000000 -1.000000
vn 0.000000 1.000000 0.000000
vn 0.000000 1.000000 0.000000
vn 0.000000 1.000000 0.000000
vn 0.000000 1.000000 0.000000
vn 0.000000 0.000000 1.000000
vn 0.000000 0.000000 1.000000
vn 0.000000 0.000000 1.000000
vn 0.000000 0.000000 1.000000
vn 0.000000 -1.000000 0.000000
vn 0.000000 -1.000000 0.000000
vn 0.000000 -1.000000 0.000000
vn 0.000000 -1.000000 0.000000
vn -1.000000 0.000000 0.000000
vn -1.000000 0.000000 0.000000
vn -1.000000 0.000000 0.000000
vn -1.000000 0.000000 0.000000
vn 1.000000 0.000000 0.000000
vn 1.000000 0.000000 0.000000
vn 1.000000 0.000000 0.000000
vn 1.000000 0.000000 0.000000
vn 0.000000 1.000000 -0.000000
vn 0.000000 1.000000 -0.000000
vn 0.000000 1.000000 -0.000000
vn 0.000000 1.000000 -0.000000
vn 0.000000 1.000000 0.000000
vn 0.000000 1.000000 0.000000
vn 0.000000 1.000000 0.000000
vn 0.000000 1.000000 0.000000
vn 0.000000 0.000000 -1.000000
vn 0.000000 0.000000 -1.000000
vn 0.000000 0.000000 -1.000000
vn 0.000000 0.000000 -1.000000
vn -1.000000 0.000000 0.000000
vn -1.000000 0.000000 0.000000
vn -1.000000 0.000000 0.000000
vn -1.000000 0.000000 0.000000
vn 0.000000 0.000000 1.000000
vn 0.000000 0.000000 1.000000
vn 0.000000 0.000000 1.000000
vn 0.000000 0.000000 1.000000
vn 1.000000 0.000000 0.000000
vn 1.000000 0.000000 0.000000
vn 1.000000 0.000000 0.000000
vn 1.000000 0.000000 0.000000
vn 0.000000 0.000000 -1.000000
vn 0.000000 0.000000 -1.000000
vn 0.000000 0.000000 -1.000000
vn 0.000000 0.000000 -1.000000
vn 0.000000 1.000000 0.000000
vn 0.000000 1.000000 0.000000
vn 0.000000 1.000000 0.000000
vn 0.000000 1.000000 0.000000
vn 0.000000 0.000000 1.000000
vn 0.000000 0.000000 1.000000
vn 0.000000 0.000000 1.000000
vn 0.000000 0.000000 1.000000
vn 0.000000 -1.000000 0.000000
vn 0.000000 -1.000000 0.000000
vn 0.000000 -1.000000 0.000000
vn 0.000000 -1.000000 0.000000
vn -1.000000 0.000000 0.000000
vn -1.000000 0.000000 0.000000
vn -1.000000 0.000000 0.000000
vn -1.000000 0.000000 0.000000
vn 1.000000 0.000000 0.000000
vn 1.000000 0.000000 0.000000
vn 1.000000 0.000000 0.000000
vn 1.000000 0.000000 0.000000
vn 0.000000 1.000000 -0.000000
vn 0.000000 1.000000 -0.000000
vn 0.000000 1.000000 -0.000000
vn 0.000000 1.000000 -0.000000
vn 0.000000 1.000000 0.000000
vn 0.000000 1.000000 0.000000
vn 0.000000 1.000000 0.000000
vn 0.000000 1.000000 0.000000
vn 0.000000 0.000000 -1.000000
vn 0.000000 0.000000 -1.000000
vn 0.000000 0.000000 -1.000000
vn 0.000000 0.000000 -1.000000
vn -1.000000 0.000000 0.000000
vn -1.000000 0.000000 0.000000
vn -1.000000 0.000000 0.000000
vn -1.000000 0.000000 0.000000
vn 0.000000 0.000000 1.000000
vn 0.000000 0.000000 1.000000
vn 0.000000 0.000000 1.000000
vn 0.000000 0.000000 1.000000
vn 1.000000 0.000000 0.000000
vn 1.000000 0.000000 0.000000
vn 1.000000 0.000000 0.000000
vn 1.000000 0.000000 0.000000
vn 0.707098 0.000000 -0.707116
vn 0.707098 0.000000 -0.707116
vn 0.707098 0.000000 -0.707116
vn 0.707098 0.000000 -0.707116
vn 0.000000 1.000000 -0.000001
vn 0.000000 1.000000 -0.000001
vn 0.000000 1.000000 -0.000001
vn 0.000000 1.000000 -0.000001
vn -0.707135 0.000000 0.707079
vn -0.707135 0.000000 0.707079
vn -0.707135 0.000000 0.707079
vn -0.707135 0.000000 0.707079
vn 0.000000 -1.000000 0.000000
vn 0.000000 -1.000000 0.000000
vn 0.000000 -1.000000 0.000000
vn 0.000000 -1.000000 0.000000
vn -0.707125 0.000000 -0.707088
vn -0.707125 0.000000 -0.707088
vn -0.707125 0.000000 -0.707088
vn -0.707125 0.000000 -0.707088
vn 0.707088 0.000000 0.707125
vn 0.707088 0.000000 0.707125
vn 0.707088 0.000000 0.707125
vn 0.707088 0.000000 0.707125
vn 0.000000 1.000000 -0.000000
vn 0.000000 1.000000 -0.000000
vn 0.000000 1.000000 -0.000000
vn 0.000000 1.000000 -0.000000
vn 0.000000 1.000000 -0.000000
vn 0.000000 1.000000 -0.000000
vn 0.000000 1.000000 -0.000000
vn 0.000000 1.000000 -0.000000
vn 0.707084 0.000000 -0.707129
vn 0.707084 0.000000 -0.707129
vn 0.707084 0.000000 -0.707129
vn 0.707084 0.000000 -0.707129
vn -0.707107 0.000000 -0.707107
vn -0.707107 0.000000 -0.707107
vn -0.707107 0.000000 -0.707107
vn -0.707107 0.000000 -0.707107
vn -0.707084 0.000000 0.707129
vn -0.707084 0.000000 0.707129
vn -0.707084 0.000000 0.707129
vn -0.707084 0.000000 0.707129
vn 0.707107 0.000000 0.707107
vn 0.707107 0.000000 0.707107
vn 0.707107 0.000000 0.707107
vn 0.707107 0.000000 0.707107
vn 0.000000 -1.000000 0.000000
vn 0.000000 -1.000000 0.000000
vn 0.000000 -1.000000 0.000000
vn 0.000000 -1.000000 0.000000
vn -1.000000 0.000000 0.000000
vn -1.000000 0.000000 0.000000
vn -1.000000 0.000000 0.000000
vn -1.000000 0.000000 0.000000
vn 0.000000 1.000000 0.000000
vn 0.000000 1.000000 0.000000
vn 0.000000 1.000000 0.000000
vn 0.000000 1.000000 0.000000
vn 1.000000 0.000000 0.000000
vn 1.000000 0.000000 0.000000
vn 1.000000 0.000000 0.000000
vn 1.000000 0.000000 0.000000
vn 0.000000 0.000000 1.000000
vn 0.000000 0.000000 1.000000
vn 0.000000 0.000000 1.000000
vn 0.000000 0.000000 1.000000
vn 0.000000 0.000000 -1.000000
vn 0.000000 0.000000 -1.000000
vn 0.000000 0.000000 -1.000000
vn 0.000000 0.000000 -1.000000
vn 0.000000 -1.000000 -0.000000
vn 0.000000 -1.000000 -0.000000
vn 0.000000 -1.000000 -0.000000
vn 0.000000 -1.000000 -0.000000
vn 0.500005 0.000000 -0.866023
vn 0.500005 0.000000 -0.866023
vn 0.500005 0.000000 -0.866023
vn 0.500005 0.000000 -0.866023
vn 0.000000 1.000000 -0.000001
vn 0.000000 1.000000 -0.000001
vn 0.000000 1.000000 -0.000001
vn 0.000000 1.000000 -0.000001
vn -0.499996 0.000000 0.866028
vn -0.499996 0.000000 0.866028
vn -0.499996 0.000000 0.866028
vn -0.499996 0.000000 0.866028
vn -0.865961 0.000000 -0.500111
vn -0.865961 0.000000 -0.500111
vn -0.865961 0.000000 -0.500111
vn -0.865961 0.000000 -0.500111
vn 0.866080 0.000000 0.499906
vn 0.866080 0.000000 0.499906
vn 0.866080 0.000000 0.499906
vn 0.866080 0.000000 0.499906
vn 0.000000 -1.000000 -0.000001
vn 0.000000 -1.000000 -0.000001
vn 0.000000 -1.000000 -0.000001
vn 0.000000 -1.000000 -0.000001
vn 0.866029 0.000000 -0.499993
vn 0.866029 0.000000 -0.499993
vn 0.866029 0.000000 -0.499993
vn 0.866029 0.000000 -0.499993
vn 0.000000 1.000000 -0.000001
vn 0.000000 1.000000 -0.000001
vn 0.000000 1.000000 -0.000001
vn 0.000000 1.000000 -0.000001
vn -0.866021 0.000000 0.500008
vn -0.866021 0.000000 0.500008
vn -0.866021 0.000000 0.500008
vn -0.866021 0.000000 0.500008
vn -0.499817 0.000000 -0.866131
vn -0.499817 0.000000 -0.866131
vn -0.499817 0.000000 -0.866131
vn -0.499817 0.000000 -0.866131
vn 0.499936 0.000000 0.866063
vn 0.499936 0.000000 0.866063
vn 0.499936 0.000000 0.866063
vn 0.499936 0.000000 0.866063
vn 0.000000 -1.000000 0.000000
vn 0.000000 -1.000000 0.000000
vn 0.000000 -1.000000 0.000000
vn 0.000000 -1.000000 0.000000
vn 1.000000 0.000000 0.000000
vn 1.000000 0.000000 0.000000
vn 1.000000 0.000000 0.000000
vn 1.000000 0.000000 0.000000
vn 0.000000 1.000000 0.000000
vn 0.000000 1.000000 0.000000
vn 0.000000 1.000000 0.000000
vn 0.000000 1.000000 0.000000
vn -1.000000 0.000000 0.000000
vn -1.000000 0.000000 0.000000
vn -1.000000 0.000000 0.000000
vn -1.000000 0.000000 0.000000
vn 0.000000 0.000000 -1.000000
vn 0.000000 0.000000 -1.000000
vn 0.000000 0.000000 -1.000000
vn 0.000000 0.000000 -1.000000
vn 0.000000 0.000000 1.000000
vn 0.000000 0.000000 1.000000
vn 0.000000 0.000000 1.000000
vn 0.000000 0.000000 1.000000
vn 0.000000 -1.000000 0.000000
vn 0.000000 -1.000000 0.000000
vn 0.000000 -1.000000 0.000000
vn 0.000000 -1.000000 0.000000
vn 0.500005 0.000000 0.866023
vn 0.500005 0.000000 0.866023
vn 0.500005 0.000000 0.866023
vn 0.500005 0.000000 0.866023
vn 0.000000 1.000000 0.000001
vn 0.000000 1.000000 0.000001
vn 0.000000 1.000000 0.000001
vn 0.000000 1.000000 0.000001
vn -0.499996 0.000000 -0.866027
vn -0.499996 0.000000 -0.866027
vn -0.499996 0.000000 -0.866027
vn -0.499996 0.000000 -0.866027
vn 0.866080 0.000000 -0.499906
vn 0.866080 0.000000 -0.499906
vn 0.866080 0.000000 -0.499906
vn 0.866080 0.000000 -0.499906
vn -0.865961 0.000000 0.500111
vn -0.865961 0.000000 0.500111
vn -0.865961 0.000000 0.500111
vn -0.865961 0.000000 0.500111
vn 0.000000 -1.000000 0.000000
vn 0.000000 -1.000000 0.000000
vn 0.000000 -1.000000 0.000000
vn 0.000000 -1.000000 0.000000
vn 0.000000 0.000000 1.000000
vn 0.000000 0.000000 1.000000
vn 0.000000 0.000000 1.000000
vn 0.000000 0.000000 1.000000
vn 0.000000 1.000000 0.000000
vn 0.000000 1.000000 0.000000
vn 0.000000 1.000000 0.000000
vn 0.000000 1.000000 0.000000
vn 0.000000 0.000000 -1.000000
vn 0.000000 0.000000 -1.000000
vn 0.000000 0.000000 -1.000000
vn 0.000000 0.000000 -1.000000
vn 1.000000 0.000000 0.000000
vn 1.000000 0.000000 0.000000
vn 1.000000 0.000000 0.000000
vn 1.000000 0.000000 0.000000
vn -1.000000 0.000000 0.000000
vn -1.000000 0.000000 0.000000
vn -1.000000 0.000000 0.000000
vn -1.000000 0.000000 0.000000
vn 0.000000 -1.000000 0.000000
vn 0.000000 -1.000000 0.000000
vn 0.000000 -1.000000 0.000000
vn 0.000000 -1.000000 0.000000
vn 0.707107 0.000000 -0.707107
vn 0.707107 0.000000 -0.707107
vn 0.707107 0.000000 -0.707107
vn 0.707107 0.000000 -0.707107
vn 0.000000 1.000000 -0.000000
vn 0.000000 1.000000 -0.000000
vn 0.000000 1.000000 -0.000000
vn 0.000000 1.000000 -0.000000
vn -0.707107 0.000000 0.707107
vn -0.707107 0.000000 0.707107
vn -0.707107 0.000000 0.707107
vn -0.707107 0.000000 0.707107
vn -0.707105 0.000000 -0.707108
vn -0.707105 0.000000 -0.707108
vn -0.707105 0.000000 -0.707108
vn -0.707105 0.000000 -0.707108
vn 0.707108 0.000000 0.707106
vn 0.707108 0.000000 0.707106
vn 0.707108 0.000000 0.707106
vn 0.707108 0.000000 0.707106
vn 0.000000 -1.000000 0.000000
vn 0.000000 -1.000000 0.000000
vn 0.000000 -1.000000 0.000000
vn 0.000000 -1.000000 0.000000
vn 0.707107 0.000000 0.707107
vn 0.707107 0.000000 0.707107
vn 0.707107 0.000000 0.707107
vn 0.707107 0.000000 0.707107
vn 0.000000 1.000000 -0.000000
vn 0.000000 1.000000 -0.000000
vn 0.000000 1.000000 -0.000000
vn 0.000000 1.000000 -0.000000
vn -0.707107 0.000000 -0.707107
vn -0.707107 0.000000 -0.707107
vn -0.707107 0.000000 -0.707107
vn -0.707107 0.000000 -0.707107
vn 0.707106 0.000000 -0.707107
vn 0.707106 0.000000 -0.707107
vn 0.707106 0.000000 -0.707107
vn 0.707106 0.000000 -0.707107
vn -0.707106 0.000000 0.707107
vn -0.707106 0.000000 0.707107
vn -0.707106 0.000000 0.707107
vn -0.707106 0.000000 0.707107
vn 0.000000 -1.000000 -0.000000
vn 0.000000 -1.000000 -0.000000
vn 0.000000 -1.000000 -0.000000
vn 0.000000 -1.000000 -0.000000
vn -0.707107 0.000000 -0.707107
vn -0.707107 0.000000 -0.707107
vn -0.707107 0.000000 -0.707107
vn -0.707107 0.000000 -0.707107
vn 0.000000 1.000000 0.000000
vn 0.000000 1.000000 0.000000
vn 0.000000 1.000000 0.000000
vn 0.000000 1.000000 0.000000
vn 0.707107 0.000000 0.707107
vn 0.707107 0.000000 0.707107
vn 0.707107 0.000000 0.707107
vn 0.707107 0.000000 0.707107
vn -0.707106 0.000000 0.707107
vn -0.707106 0.000000 0.707107
vn -0.707106 0.000000 0.707107
vn -0.707106 0.000000 0.707107
vn 0.707108 0.000000 -0.707106
vn 0.707108 0.000000 -0.707106
vn 0.707108 0.000000 -0.707106
vn 0.707108 0.000000 -0.707106
vn 0.000000 -1.000000 -0.000000
vn 0.000000 -1.000000 -0.000000
vn 0.000000 -1.000000 -0.000000
vn 0.000000 -1.000000 -0.000000
vn -0.866029 0.000000 0.499993
vn -0.866029 0.000000 0.499993
vn -0.866029 0.000000 0.499993
vn -0.866029 0.000000 0.499993
vn 0.000000 1.000000 -0.000000
vn 0.000000 1.000000 -0.000000
vn 0.000000 1.000000 -0.000000
vn 0.000000 1.000000 -0.000000
vn 0.866029 0.000000 -0.499993
vn 0.866029 0.000000 -0.499993
vn 0.866029 0.000000 -0.499993
vn 0.866029 0.000000 -0.499993
vn 0.499936 0.000000 0.866063
vn 0.499936 0.000000 0.866063
vn 0.499936 0.000000 0.866063
vn 0.499936 0.000000 0.866063
vn -0.499936 0.000000 -0.866063
vn -0.499936 0.000000 -0.866063
vn -0.499936 0.000000 -0.866063
vn -0.499936 0.000000 -0.866063
vn 0.000000 -1.000000 0.000000
vn 0.000000 -1.000000 0.000000
vn 0.000000 -1.000000 0.000000
vn 0.000000 -1.000000 0.000000
vn 0.707107 0.000000 -0.707107
vn 0.707107 0.000000 -0.707107
vn 0.707107 0.000000 -0.707107
vn 0.707107 0.000000 -0.707107
vn 0.000000 1.000000 -0.000000
vn 0.000000 1.000000 -0.000000
vn 0.000000 1.000000 -0.000000
vn 0.000000 1.000000 -0.000000
vn -0.707107 0.000000 0.707107
vn -0.707107 0.000000 0.707107
vn -0.707107 0.000000 0.707107
vn -0.707107 0.000000 0.707107
vn -0.707107 0.000000 -0.707107
vn -0.707107 0.000000 -0.707107
vn -0.707107 0.000000 -0.707107
vn -0.707107 0.000000 -0.707107
vn 0.707107 0.000000 0.707106
vn 0.707107 0.000000 0.707106
vn 0.707107 0.000000 0.707106
vn 0.707107 0.000000 0.707106
s off
g polySurface27519
f 6/1/1 5/2/2 3/3/3 4/4/4
f 7/5/5 8/6/6 2/7/7 1/8/8
f 7/5/9 5/9/10 6/10/11 8/6/12
f 3/11/13 5/12/14 7/13/15 1/14/16
f 3/11/17 1/14/18 2/15/19 4/16/20
f 8/17/21 6/18/22 4/16/23 2/15/24
s 7
f 17/19/25 11/20/26 14/21/27 21/22/28
f 14/23/27 59/24/29 21/22/28
f 16/25/30 12/26/31 18/27/32 21/22/28
f 19/28/33 17/29/25 21/22/28
f 18/30/32 20/31/34 21/22/28
f 9/32/35 19/28/33 21/22/28 13/33/36
f 21/22/28 50/34/37 13/33/36
f 20/31/34 10/35/38 15/36/39 21/22/28
s 8
f 43/37/40 42/38/41 55/39/42 56/40/43
s 9
f 75/41/44 74/42/45 76/43/46 77/44/47
s 10
f 54/45/48 46/46/49 48/47/50 53/48/51
s 7
f 14/49/27 11/50/52 73/51/53 60/52/54
f 11/50/55 17/53/25 72/54/56 73/51/57
f 59/55/29 14/49/27 60/52/54 61/56/58
f 18/57/32 12/58/59 63/59/60 64/60/61
f 12/58/62 16/61/30 62/62/63 63/59/64
f 17/53/25 19/63/33 71/64/65 72/54/56
f 20/65/34 18/57/32 64/60/61 65/66/66
f 9/67/67 13/68/36 69/69/68 70/70/69
f 19/63/33 9/67/70 70/70/71 71/64/65
f 13/68/36 50/71/37 68/72/72 69/69/68
f 15/73/39 10/74/73 66/75/74 67/76/75
f 10/74/76 20/65/34 65/66/66 66/75/77
s 8
f 23/77/78 24/78/79 90/79/80 91/80/81
s 11
f 24/78/82 22/81/83 89/82/84 90/79/85
s 8
f 58/83/86 23/77/78 91/80/81 92/84/87
s 12
f 26/85/88 27/86/89 80/87/90 81/88/91
s 8
f 27/86/92 25/89/93 93/90/94 80/87/95
s 11
f 22/81/83 28/91/96 88/92/97 89/82/84
s 12
f 29/93/98 26/85/88 81/88/91 82/94/99
s 10
f 30/95/100 31/96/101 86/97/102 87/98/103
s 11
f 28/91/96 30/95/104 87/98/105 88/92/97
s 10
f 31/96/101 51/99/106 85/100/107 86/97/102
f 32/101/108 33/102/109 83/103/110 84/104/111
s 12
f 33/102/112 29/93/98 82/94/99 83/103/113
s 13
f 35/105/114 34/106/115 43/37/116
s 8
f 57/107/117 35/105/118 43/37/40 56/40/43
s 13
f 38/108/119 40/109/120 48/47/121
s 10
f 40/109/122 52/110/123 53/48/51 48/47/50
s 14
f 45/111/124 49/112/125 39/113/126 37/114/127
f 41/115/128 39/113/126 49/112/125
f 37/114/127 36/116/129 45/111/124
s 13
f 48/47/121 43/37/116 34/106/115 38/108/119
s 14
f 47/117/130 49/112/125 45/111/124 44/118/131
s 13
f 46/46/132 42/38/133 43/37/116 48/47/121
s 7
f 50/71/37 15/73/39 67/76/75 68/72/72
s 10
f 85/100/107 51/99/106 32/101/108 84/104/111
f 53/48/51 52/110/123 41/115/134 49/112/135
f 47/117/136 54/45/48 53/48/51 49/112/135
s 9
f 78/119/137 75/41/44 77/44/47 79/120/138
s 8
f 56/40/43 55/39/42 44/118/139 45/111/140
f 36/116/141 57/107/117 56/40/43 45/111/140
f 25/89/93 58/83/86 92/84/87 93/90/94
s 7
f 16/61/30 59/55/29 61/56/58 62/62/63
f 21/22/28 59/24/29 16/25/30
f 21/22/28 15/36/39 50/34/37
s 15
f 61/56/142 60/52/143 23/77/144 58/83/145
f 62/62/146 61/56/142 58/83/145 25/89/147
f 63/59/148 62/62/146 25/89/147 27/86/149
s 16
f 64/60/150 63/59/151 27/86/152 26/85/153
f 65/66/154 64/60/150 26/85/153 29/93/155
f 66/75/156 65/66/154 29/93/155 33/102/157
s 17
f 67/76/158 66/75/159 33/102/160 32/101/161
f 68/72/162 67/76/158 32/101/161 51/99/163
f 69/69/164 68/72/162 51/99/163 31/96/165
f 70/70/166 69/69/164 31/96/165 30/95/167
s 18
f 71/64/168 70/70/169 30/95/170 28/91/171
f 72/54/172 71/64/168 28/91/171 22/81/173
f 73/51/174 72/54/172 22/81/173 24/78/175
s 15
f 60/52/143 73/51/176 24/78/177 23/77/144
s 19
f 55/39/178 42/38/179 74/42/180 75/41/181
s 13
f 42/38/133 46/46/132 76/43/182 74/42/183
s 20
f 46/46/184 54/45/185 77/44/186 76/43/187
s 19
f 44/118/188 55/39/178 75/41/181 78/119/189
s 20
f 54/45/185 47/117/190 79/120/191 77/44/186
s 14
f 47/117/130 44/118/131 78/119/192 79/120/193
s 12
f 37/114/194 81/88/91 80/87/90 36/116/195
f 39/113/196 82/94/99 81/88/91 37/114/194
f 41/115/197 83/103/113 82/94/99 39/113/196
s 10
f 84/104/111 83/103/110 41/115/134
f 52/110/123 85/100/107 84/104/111 41/115/134
f 86/97/102 85/100/107 52/110/123 40/109/122
f 87/98/103 86/97/102 40/109/122
s 11
f 38/108/198 88/92/97 87/98/105 40/109/199
f 34/106/200 89/82/84 88/92/97 38/108/198
f 35/105/201 90/79/85 89/82/84 34/106/200
s 8
f 91/80/81 90/79/80 35/105/118
f 92/84/87 91/80/81 35/105/118 57/107/117
f 93/90/94 92/84/87 57/107/117 36/116/141
f 80/87/95 93/90/94 36/116/141
s 21
f 97/121/202 105/122/203 106/123/204 98/124/205
f 106/123/204 105/122/203 107/125/206 108/126/207
s 22
f 102/127/208 95/128/209 94/129/210 103/130/211
s 23
f 103/130/212 94/129/213 96/131/214 104/132/215
s 22
f 100/133/216 102/127/208 103/130/211 99/134/217
s 23
f 99/134/218 103/130/212 104/132/215 101/135/219
s 24
f 107/125/220 99/136/221 108/126/222
f 107/125/220 100/137/223 99/136/221
f 108/126/222 99/136/221 101/138/224
s 22
f 116/139/225 109/140/226 113/141/227 115/142/228
f 117/143/229 110/144/230 109/145/226 116/146/225
s 24
f 118/147/231 111/148/232 110/149/233 117/150/234
s 25
f 119/151/235 112/152/236 111/153/237 118/154/238
f 120/155/239 114/156/240 112/157/236 119/158/235
s 22
f 100/159/216 117/143/229 116/146/225 102/160/208
s 24
f 107/161/220 118/147/231 117/150/234 100/162/223
s 25
f 105/163/241 119/151/235 118/154/238 107/164/242
s 26
f 110/165/243 111/166/244 112/167/245 109/168/246
f 109/140/246 112/169/245 114/170/247 113/141/248
s off
f 102/171/249 105/172/250 97/173/251 95/174/252
f 115/142/253 120/175/254 119/176/255 116/139/256
f 116/139/257 119/176/258 105/172/259 102/171/260
s 30
f 124/177/261 125/178/262 133/179/263 132/180/264
f 133/179/263 135/181/265 134/182/266 132/180/264
s 31
f 129/183/267 130/184/268 121/185/269 122/186/270
s 23
f 130/184/271 131/187/272 123/188/273 121/185/274
s 31
f 127/189/275 126/190/276 130/184/268 129/183/267
s 23
f 126/190/277 128/191/278 131/187/272 130/184/271
s 24
f 134/182/279 135/181/280 126/192/281
f 134/182/279 126/192/281 127/193/282
f 135/181/280 128/194/283 126/192/281
s 31
f 143/195/284 142/196/285 140/197/286 136/198/287
f 144/199/288 143/200/284 136/201/287 137/202/289
s 24
f 145/203/290 144/204/291 137/205/292 138/206/293
s 32
f 146/207/294 145/208/295 138/209/296 139/210/297
f 147/211/298 146/212/294 139/213/297 141/214/299
s 31
f 127/215/275 129/216/267 143/200/284 144/199/288
s 24
f 134/217/279 127/218/282 144/204/291 145/203/290
s 32
f 132/219/300 134/220/301 145/208/295 146/207/294
s 23
f 123/221/273 131/222/272 148/223/302 149/224/303
f 131/225/272 128/226/278 153/227/304 148/228/302
s 33
f 133/229/305 125/230/306 150/231/307 151/232/308
s 24
f 128/233/283 135/234/280 152/235/309 153/236/310
s 33
f 135/237/311 133/238/305 151/239/308 152/240/312
s 34
f 137/241/313 136/242/314 139/243/315 138/244/316
f 136/198/314 140/197/317 141/245/318 139/246/315
s off
f 129/247/319 122/248/320 124/249/321 132/250/322
f 142/196/323 143/195/324 146/251/325 147/252/326
f 143/195/327 129/247/328 132/250/329 146/251/330
s 33
f 152/240/312 151/239/308 157/253/331 158/254/332
s 24
f 153/236/310 152/235/309 158/255/333 159/256/334
s 23
f 148/228/302 153/227/304 159/257/335 154/258/336
f 155/259/337 154/260/336 104/261/215 96/262/214
s 33
f 157/263/331 156/264/338 98/265/339 106/266/340
f 158/254/332 157/253/331 106/267/340 108/268/341
s 24
f 159/256/334 158/255/333 108/269/222 101/270/224
s 23
f 154/258/336 159/257/335 101/271/219 104/272/215
s off
f 149/224/342 148/223/343 151/273/344 150/274/345
f 148/223/346 154/260/347 157/275/348 151/273/349
f 154/260/350 155/259/351 156/276/352 157/275/353
f 115/277/354 113/278/355 114/279/356 120/280/357
s 42
f 98/281/358 156/282/359 155/283/360 96/284/361
s 43
f 150/285/362 125/286/363 123/287/364 149/288/365
s off
f 140/289/366 142/290/367 147/291/368 141/292/369
s 43
f 124/293/370 122/294/371 121/295/372
f 121/296/372 123/297/364 125/298/363
f 121/299/372 125/300/363 124/301/370
s 42
f 98/302/358 96/303/361 94/304/373
f 95/305/374 97/306/375 94/307/373
f 94/308/373 97/309/375 98/310/358
s 45
f 163/311/376 171/312/377 172/313/378 164/314/379
f 172/313/378 171/312/377 173/315/380 174/316/381
s 46
f 168/317/382 161/318/383 160/319/384 169/320/385
s 47
f 169/320/386 160/319/387 162/321/388 170/322/389
s 46
f 166/323/390 168/317/382 169/320/385 165/324/391
s 47
f 165/324/392 169/320/386 170/322/389 167/325/393
s 48
f 173/315/394 165/326/395 174/316/396
f 173/315/394 166/327/397 165/326/395
f 174/316/396 165/326/395 167/328/398
s 46
f 182/329/399 175/330/400 179/331/401 181/332/402
f 183/333/403 176/334/404 175/335/400 182/336/399
s 48
f 184/337/405 177/338/406 176/339/407 183/340/408
s 49
f 185/341/409 178/342/410 177/343/411 184/344/412
f 186/345/413 180/346/414 178/347/410 185/348/409
s 46
f 166/349/390 183/333/403 182/336/399 168/350/382
s 48
f 173/351/394 184/337/405 183/340/408 166/352/397
s 49
f 171/353/415 185/341/409 184/344/412 173/354/416
s 50
f 176/355/417 177/356/418 178/357/419 175/358/420
f 175/330/420 178/359/419 180/360/421 179/331/422
s off
f 168/361/423 171/362/424 163/363/425 161/364/426
f 181/332/427 186/365/428 185/366/429 182/329/430
f 182/329/431 185/366/432 171/362/433 168/361/434
s 54
f 190/367/435 191/368/436 199/369/437 198/370/438
f 199/369/437 201/371/439 200/372/440 198/370/438
s 55
f 195/373/441 196/374/442 187/375/443 188/376/444
s 47
f 196/374/445 197/377/446 189/378/447 187/375/448
s 55
f 193/379/449 192/380/450 196/374/442 195/373/441
s 47
f 192/380/451 194/381/452 197/377/446 196/374/445
s 48
f 200/372/453 201/371/454 192/382/455
f 200/372/453 192/382/455 193/383/456
f 201/371/454 194/384/457 192/382/455
s 55
f 209/385/458 208/386/459 206/387/460 202/388/461
f 210/389/462 209/390/458 202/391/461 203/392/463
s 48
f 211/393/464 210/394/465 203/395/466 204/396/467
s 56
f 212/397/468 211/398/469 204/399/470 205/400/471
f 213/401/472 212/402/468 205/403/471 207/404/473
s 55
f 193/405/449 195/406/441 209/390/458 210/389/462
s 48
f 200/407/453 193/408/456 210/394/465 211/393/464
s 56
f 198/409/474 200/410/475 211/398/469 212/397/468
s 47
f 189/411/447 197/412/446 214/413/476 215/414/477
f 197/415/446 194/416/452 219/417/478 214/418/476
s 57
f 199/419/479 191/420/480 216/421/481 217/422/482
s 48
f 194/423/457 201/424/454 218/425/483 219/426/484
s 57
f 201/427/485 199/428/479 217/429/482 218/430/486
s 58
f 203/431/487 202/432/488 205/433/489 204/434/490
f 202/388/488 206/387/491 207/435/492 205/436/489
s off
f 195/437/493 188/438/494 190/439/495 198/440/496
f 208/386/497 209/385/498 212/441/499 213/442/500
f 209/385/501 195/437/502 198/440/503 212/441/504
s 57
f 218/430/486 217/429/482 223/443/505 224/444/506
s 48
f 219/426/484 218/425/483 224/445/507 225/446/508
s 47
f 214/418/476 219/417/478 225/447/509 220/448/510
f 221/449/511 220/450/510 170/451/389 162/452/388
s 57
f 223/453/505 222/454/512 164/455/513 172/456/514
f 224/444/506 223/443/505 172/457/514 174/458/515
s 48
f 225/446/508 224/445/507 174/459/396 167/460/398
s 47
f 220/448/510 225/447/509 167/461/393 170/462/389
s off
f 215/414/516 214/413/517 217/463/518 216/464/519
f 214/413/520 220/450/521 223/465/522 217/463/523
f 220/450/524 221/449/525 222/466/526 223/465/527
f 181/467/528 179/468/529 180/469/530 186/470/531
s 66
f 164/471/532 222/472/533 221/473/534 162/474/535
s 67
f 216/475/536 191/476/537 189/477/538 215/478/539
s off
f 206/479/540 208/480/541 213/481/542 207/482/543
s 67
f 190/483/544 188/484/545 187/485/546
f 187/486/546 189/487/538 191/488/537
f 187/489/546 191/490/537 190/491/544
s 66
f 164/492/532 162/493/535 160/494/547
f 161/495/548 163/496/549 160/497/547
f 160/498/547 163/499/549 164/500/532
s off
f 226/501/550 227/502/551 229/503/552 228/504/553
f 238/505/554 239/506/555 240/507/556 241/508/557
f 230/509/558 231/510/559 233/511/560 232/512/561
f 232/512/562 233/511/563 227/513/564 226/514/565
f 227/502/566 233/515/567 231/516/568 229/503/569
f 232/517/570 226/501/571 228/504/572 230/518/573
s 75
f 228/504/574 229/503/575 235/519/576 234/520/577
f 229/503/575 231/510/578 236/521/579 235/519/576
f 231/510/578 230/509/580 237/522/581 236/521/579
f 230/509/580 228/504/574 234/520/577 237/522/581
s off
f 234/520/582 235/519/583 239/506/584 238/505/585
f 235/519/586 236/521/587 240/507/588 239/506/589
f 236/521/590 237/522/591 241/508/592 240/507/593
f 237/522/594 234/520/595 238/505/596 241/508/597
f 242/523/598 243/524/599 245/525/600 244/526/601
f 254/527/602 255/528/603 256/529/604 257/530/605
f 246/531/606 247/532/607 249/533/608 248/534/609
f 248/534/610 249/533/611 243/535/612 242/536/613
f 243/524/614 249/537/615 247/538/616 245/525/617
f 248/539/618 242/523/619 244/526/620 246/540/621
s 86
f 244/526/622 245/525/623 251/541/624 250/542/625
f 245/525/623 247/532/626 252/543/627 251/541/624
f 247/532/626 246/531/628 253/544/629 252/543/627
f 246/531/628 244/526/622 250/542/625 253/544/629
s off
f 250/542/630 251/541/631 255/528/632 254/527/633
f 251/541/634 252/543/635 256/529/636 255/528/637
f 252/543/638 253/544/639 257/530/640 256/529/641
f 253/544/642 250/542/643 254/527/644 257/530/645
f 258/545/646 259/546/647 261/547/648 260/548/649
f 270/549/650 271/550/651 272/551/652 273/552/653
f 262/553/654 263/554/655 265/555/656 264/556/657
f 264/556/658 265/555/659 259/557/660 258/558/661
f 259/546/662 265/559/663 263/560/664 261/547/665
f 264/561/666 258/545/667 260/548/668 262/562/669
s 97
f 260/548/670 261/547/671 267/563/672 266/564/673
f 261/547/671 263/554/674 268/565/675 267/563/672
f 263/554/674 262/553/676 269/566/677 268/565/675
f 262/553/676 260/548/670 266/564/673 269/566/677
s off
f 266/564/678 267/563/679 271/550/680 270/549/681
f 267/563/682 268/565/683 272/551/684 271/550/685
f 268/565/686 269/566/687 273/552/688 272/551/689
f 269/566/690 266/564/691 270/549/692 273/552/693
f 274/567/694 275/568/695 277/569/696 276/570/697
f 286/571/698 287/572/699 288/573/700 289/574/701
f 278/575/702 279/576/703 281/577/704 280/578/705
f 280/578/706 281/577/707 275/579/708 274/580/709
f 275/568/710 281/581/711 279/582/712 277/569/713
f 280/583/714 274/567/715 276/570/716 278/584/717
s 108
f 276/570/718 277/569/719 283/585/720 282/586/721
f 277/569/719 279/576/722 284/587/723 283/585/720
f 279/576/722 278/575/724 285/588/725 284/587/723
f 278/575/724 276/570/718 282/586/721 285/588/725
s off
f 282/586/726 283/585/727 287/572/728 286/571/729
f 283/585/730 284/587/731 288/573/732 287/572/733
f 284/587/734 285/588/735 289/574/736 288/573/737
f 285/588/738 282/586/739 286/571/740 289/574/741
f 290/589/742 291/590/743 293/591/744 292/592/745
f 302/593/746 303/594/747 304/595/748 305/596/749
f 294/597/750 295/598/751 297/599/752 296/600/753
f 296/600/754 297/599/755 291/601/756 290/602/757
f 291/590/758 297/603/759 295/604/760 293/591/761
f 296/605/762 290/589/763 292/592/764 294/606/765
s 119
f 292/592/766 293/591/767 299/607/768 298/608/769
f 293/591/767 295/598/770 300/609/771 299/607/768
f 295/598/770 294/597/772 301/610/773 300/609/771
f 294/597/772 292/592/766 298/608/769 301/610/773
s off
f 298/608/774 299/607/775 303/594/776 302/593/777
f 299/607/778 300/609/779 304/595/780 303/594/781
f 300/609/782 301/610/783 305/596/784 304/595/785
f 301/610/786 298/608/787 302/593/788 305/596/789
f 306/611/790 307/612/791 309/613/792 308/614/793
f 318/615/794 319/616/795 320/617/796 321/618/797
f 310/619/798 311/620/799 313/621/800 312/622/801
f 312/622/802 313/621/803 307/623/804 306/624/805
f 307/612/806 313/625/807 311/626/808 309/613/809
f 312/627/810 306/611/811 308/614/812 310/628/813
s 130
f 308/614/814 309/613/815 315/629/816 314/630/817
f 309/613/815 311/620/818 316/631/819 315/629/816
f 311/620/818 310/619/820 317/632/821 316/631/819
f 310/619/820 308/614/814 314/630/817 317/632/821
s off
f 314/630/822 315/629/823 319/616/824 318/615/825
f 315/629/826 316/631/827 320/617/828 319/616/829
f 316/631/830 317/632/831 321/618/832 320/617/833
f 317/632/834 314/630/835 318/615/836 321/618/837
f 322/633/838 323/634/839 325/635/840 324/636/841
f 334/637/842 335/638/843 336/639/844 337/640/845
f 326/641/846 327/642/847 329/643/848 328/644/849
f 328/644/850 329/643/851 323/645/852 322/646/853
f 323/634/854 329/647/855 327/648/856 325/635/857
f 328/649/858 322/633/859 324/636/860 326/650/861
s 141
f 324/636/862 325/635/863 331/651/864 330/652/865
f 325/635/863 327/642/866 332/653/867 331/651/864
f 327/642/866 326/641/868 333/654/869 332/653/867
f 326/641/868 324/636/862 330/652/865 333/654/869
s off
f 330/652/870 331/651/871 335/638/872 334/637/873
f 331/651/874 332/653/875 336/639/876 335/638/877
f 332/653/878 333/654/879 337/640/880 336/639/881
f 333/654/882 330/652/883 334/637/884 337/640/885
f 338/655/886 339/656/887 341/657/888 340/658/889
f 350/659/890 351/660/891 352/661/892 353/662/893
f 342/663/894 343/664/895 345/665/896 344/666/897
f 344/666/898 345/665/899 339/667/900 338/668/901
f 339/656/902 345/669/903 343/670/904 341/657/905
f 344/671/906 338/655/907 340/658/908 342/672/909
s 152
f 340/658/910 341/657/911 347/673/912 346/674/913
f 341/657/911 343/664/914 348/675/915 347/673/912
f 343/664/914 342/663/916 349/676/917 348/675/915
f 342/663/916 340/658/910 346/674/913 349/676/917
s off
f 346/674/918 347/673/919 351/660/920 350/659/921
f 347/673/922 348/675/923 352/661/924 351/660/925
f 348/675/926 349/676/927 353/662/928 352/661/929
f 349/676/930 346/674/931 350/659/932 353/662/933
f 354/677/934 355/678/935 357/679/936 356/680/937
f 356/680/938 357/679/939 359/681/940 358/682/941
f 358/682/942 359/681/943 361/683/944 360/684/945
f 360/684/946 361/683/947 355/685/948 354/686/949
f 355/678/950 361/687/951 359/688/952 357/679/953
f 360/689/954 354/677/955 356/680/956 358/690/957
f 362/691/958 363/692/959 365/693/960 364/694/961
f 364/694/962 365/693/963 367/695/964 366/696/965
f 366/696/966 367/695/967 369/697/968 368/698/969
f 368/698/970 369/697/971 363/699/972 362/700/973
f 363/692/974 369/701/975 367/702/976 365/693/977
f 368/703/978 362/691/979 364/694/980 366/704/981
f 370/705/982 371/706/983 373/707/984 372/708/985
f 372/708/986 373/707/987 375/709/988 374/710/989
f 374/710/990 375/709/991 377/711/992 376/712/993
f 376/712/994 377/711/995 371/713/996 370/714/997
f 371/706/998 377/715/999 375/716/1000 373/707/1001
f 376/717/1002 370/705/1003 372/708/1004 374/718/1005
f 378/719/1006 379/720/1007 381/721/1008 380/722/1009
f 380/722/1010 381/721/1011 383/723/1012 382/724/1013
f 382/724/1014 383/723/1015 385/725/1016 384/726/1017
f 384/726/1018 385/725/1019 379/727/1020 378/728/1021
f 379/720/1022 385/729/1023 383/730/1024 381/721/1025
f 384/731/1026 378/719/1027 380/722/1028 382/732/1029
f 386/733/1030 387/734/1031 389/735/1032 388/736/1033
f 388/736/1034 389/735/1035 391/737/1036 390/738/1037
f 390/738/1038 391/737/1039 393/739/1040 392/740/1041
f 392/740/1042 393/739/1043 387/741/1044 386/742/1045
f 387/734/1046 393/743/1047 391/744/1048 389/735/1049
f 392/745/1050 386/733/1051 388/736/1052 390/746/1053
f 394/747/1054 395/748/1055 397/749/1056 396/750/1057
f 396/750/1058 397/749/1059 399/751/1060 398/752/1061
f 398/752/1062 399/751/1063 401/753/1064 400/754/1065
f 400/754/1066 401/753/1067 395/755/1068 394/756/1069
f 395/748/1070 401/757/1071 399/758/1072 397/749/1073
f 400/759/1074 394/747/1075 396/750/1076 398/760/1077
f 402/761/1078 403/762/1079 405/763/1080 404/764/1081
f 404/764/1082 405/763/1083 407/765/1084 406/766/1085
f 406/766/1086 407/765/1087 409/767/1088 408/768/1089
f 408/768/1090 409/767/1091 403/769/1092 402/770/1093
f 403/762/1094 409/771/1095 407/772/1096 405/763/1097
f 408/773/1098 402/761/1099 404/764/1100 406/774/1101
f 410/775/1102 411/776/1103 413/777/1104 412/778/1105
f 412/778/1106 413/777/1107 415/779/1108 414/780/1109
f 414/780/1110 415/779/1111 417/781/1112 416/782/1113
f 416/782/1114 417/781/1115 411/783/1116 410/784/1117
f 411/776/1118 417/785/1119 415/786/1120 413/777/1121
f 416/787/1122 410/775/1123 412/778/1124 414/788/1125
f 418/789/1126 419/790/1127 421/791/1128 420/792/1129
f 420/792/1130 421/791/1131 423/793/1132 422/794/1133
f 422/794/1134 423/793/1135 425/795/1136 424/796/1137
f 424/796/1138 425/795/1139 419/797/1140 418/798/1141
f 419/790/1142 425/799/1143 423/800/1144 421/791/1145
f 424/801/1146 418/789/1147 420/792/1148 422/802/1149
f 426/803/1150 427/804/1151 429/805/1152 428/806/1153
f 428/806/1154 429/805/1155 431/807/1156 430/808/1157
f 430/808/1158 431/807/1159 433/809/1160 432/810/1161
f 432/810/1162 433/809/1163 427/811/1164 426/812/1165
f 427/804/1166 433/813/1167 431/814/1168 429/805/1169
f 432/815/1170 426/803/1171 428/806/1172 430/816/1173
f 434/817/1174 435/818/1175 437/819/1176 436/820/1177
f 436/820/1178 437/819/1179 439/821/1180 438/822/1181
f 438/822/1182 439/821/1183 441/823/1184 440/824/1185
f 440/824/1186 441/823/1187 435/825/1188 434/826/1189
f 435/818/1190 441/827/1191 439/828/1192 437/819/1193
f 440/829/1194 434/817/1195 436/820/1196 438/830/1197
