# This file uses centimeters as units for non-parametric coordinates.

g default
v -58.847862 2.172323 1.022346
v -58.847862 2.184013 1.028557
v -58.846302 2.013184 1.427910
v -58.846302 1.987443 1.416962
v -58.968979 2.184326 1.031464
v -58.968979 2.159329 1.021805
v -58.951515 1.988201 1.419518
v -58.951515 2.013941 1.430473
v -59.534367 2.172323 1.022346
v -59.534367 2.184013 1.028564
v -59.532799 2.013184 1.427910
v -59.532799 1.987441 1.416969
v -59.406857 2.184326 1.031464
v -59.311790 2.184326 1.031464
v -59.357384 2.231398 1.053902
v -59.063080 2.184326 1.031464
v -58.968037 2.184326 1.031464
v -59.013065 2.231398 1.053902
v -59.080570 1.988201 1.419533
v -59.063080 2.159287 1.021889
v -59.017239 2.140571 1.010002
v -59.018021 1.936774 1.398262
v -58.968037 2.159293 1.021873
v -58.950542 1.988201 1.419525
v -59.083702 1.961877 1.479439
v -59.018173 1.907941 1.457848
v -58.947422 1.961876 1.479439
v -58.950542 2.013941 1.430473
v -59.012066 2.068338 1.452530
v -59.014912 1.973181 1.490936
v -59.011894 2.046256 1.513130
v -59.083702 1.989351 1.490730
v -58.947422 1.989351 1.490730
v -59.080570 2.013941 1.430473
v -59.424335 1.988200 1.419533
v -59.406849 2.159286 1.021889
v -59.359829 2.140569 1.010002
v -59.360104 1.936774 1.398262
v -59.311790 2.159287 1.021889
v -59.294331 1.988199 1.419533
v -59.427479 1.961877 1.479439
v -59.360157 1.907941 1.457848
v -59.291180 1.961877 1.479439
v -59.294331 2.013941 1.430473
v -59.356632 2.068334 1.452538
v -59.358685 1.973180 1.490944
v -59.356506 2.046256 1.513130
v -59.427479 1.989351 1.490730
v -59.291180 1.989351 1.490730
v -59.424339 2.013938 1.430481
v -59.532799 2.172323 0.977654
v -59.532799 2.184013 0.971436
v -59.534367 2.013184 0.572090
v -59.534367 1.987443 0.583038
v -58.973270 2.184326 0.968529
v -59.068226 2.184326 0.968529
v -59.023239 2.231398 0.946091
v -59.316719 2.184326 0.968529
v -59.411690 2.184326 0.968529
v -59.364513 2.231398 0.946091
v -59.299255 1.988201 0.580475
v -59.316719 2.159287 0.978111
v -59.361835 2.140569 0.989998
v -59.360767 1.936774 0.601738
v -59.411690 2.159329 0.978195
v -59.429142 1.988201 0.580475
v -59.429142 2.013941 0.569527
v -59.296120 1.961877 0.520561
v -59.360573 1.907943 0.542175
v -59.432278 1.961877 0.520561
v -59.364582 2.068336 0.547462
v -59.364849 1.973181 0.509071
v -59.364582 2.046256 0.486870
v -59.296120 1.989350 0.509262
v -59.432278 1.989350 0.509262
v -59.299255 2.013941 0.569527
v -58.955795 1.988201 0.580475
v -58.973270 2.159287 0.978111
v -59.019070 2.140571 0.989998
v -59.018288 1.936774 0.601738
v -59.068226 2.159293 0.978127
v -59.085701 1.988199 0.580475
v -58.952663 1.961877 0.520561
v -59.018139 1.907941 0.542152
v -59.088821 1.961877 0.520561
v -59.085701 2.013941 0.569527
v -59.024235 2.068338 0.547462
v -59.021393 1.973181 0.509071
v -59.024403 2.046256 0.486870
v -58.952663 1.989348 0.509262
v -59.088821 1.989348 0.509262
v -58.955795 2.013941 0.569527
v -58.846302 2.172323 0.977654
v -58.846302 2.184013 0.971436
v -58.847862 2.013184 0.572090
v -58.847866 1.987441 0.583031
v -58.973808 2.184326 0.968529
v -58.956329 1.988200 0.580467
v -58.973816 2.159286 0.978111
v -58.956322 2.013938 0.569519
v -58.861702 2.038182 0.687675
v -58.958786 1.993270 0.805389
v -58.862263 1.954467 0.728142
v -59.517536 2.036857 0.683411
v -59.517372 1.952730 0.724411
v -59.420444 1.991387 0.800140
v -59.516960 2.040000 1.324287
v -59.419968 1.987622 1.211227
v -59.516647 1.954802 1.284180
v -58.862289 2.037058 1.330788
v -58.959206 1.985251 1.216484
v -58.862457 1.952204 1.289948
v -58.861996 2.183353 1.002678
v -58.862358 2.080893 1.003105
v -58.958992 2.081098 1.005241
v -59.420261 2.081139 0.998543
v -59.516960 2.078946 0.996368
v -59.517441 2.180447 0.994690
v -59.211147 2.305891 1.000000
v -59.191257 2.291001 1.000092
v -59.191257 2.243671 0.921593
v -59.211147 2.250335 0.909073
v -59.211147 2.251353 1.090477
v -59.191257 2.244517 1.078209
v -59.211147 2.148068 1.088547
v -59.191250 2.156442 1.077827
v -59.191257 2.110802 1.000092
v -59.211147 2.097838 1.000000
v -59.211147 2.149543 0.910797
v -59.191257 2.156463 0.922340
v -59.580521 2.196626 1.000000
v -59.580521 2.305892 1.000000
v -59.580521 2.250335 0.909073
v -59.580536 2.251353 1.090477
v -59.580521 2.149542 0.910797
v -59.580521 2.097837 1.000000
v -59.580536 2.148068 1.088547
v -59.169659 2.308481 1.000000
v -59.169659 2.252924 1.090927
v -59.169659 2.253943 0.909515
v -59.169659 2.150658 0.911453
v -59.169659 2.100428 1.000000
v -59.169659 2.152132 1.089203
v -58.800285 2.199216 1.000000
v -58.800285 2.308482 1.000000
v -58.800285 2.252924 1.090927
v -58.800270 2.253943 0.909515
v -58.800285 2.152132 1.089203
v -58.800285 2.100427 1.000000
v -58.800270 2.150658 0.911453
v -58.889454 -0.103874 0.671040
v -58.889668 -0.036020 0.671169
v -59.494850 -0.103874 0.670631
v -59.494720 -0.036022 0.670841
v -58.889645 -0.036020 1.140060
v -59.495667 -0.036022 1.140717
v -59.495796 -0.103873 1.140640
v -58.889435 -0.103874 1.140060
v -58.889446 -0.103874 1.327209
v -58.889656 -0.036020 1.327080
v -59.494835 -0.103874 1.327610
v -59.494713 -0.036022 1.327408
v -58.961018 -0.036021 1.140484
v -58.961040 -0.036021 1.328148
v -58.960903 -0.103874 1.328320
v -58.960903 -0.103874 1.140457
v -58.960915 -0.103874 0.669930
v -58.961052 -0.036021 0.670101
v -59.460453 -0.046009 0.704784
v -59.422459 0.772058 0.758118
v -58.920418 -0.046009 0.704575
v -58.958393 0.772058 0.757954
v -58.920288 -0.046009 1.297184
v -58.958286 0.772058 1.243855
v -59.460163 -0.046009 1.297405
v -59.422218 0.772058 1.244026
v -58.937637 0.753190 0.743687
v -58.937637 0.820417 0.743687
v -58.937637 0.820382 1.260960
v -58.937637 0.753155 1.260960
v -59.043083 0.753190 0.848835
v -59.043083 0.753155 1.156010
v -59.043083 0.820382 1.156010
v -59.043083 0.820417 0.848835
v -59.332272 0.752995 1.156006
v -59.332272 0.820222 1.156006
v -59.437450 0.752995 1.260960
v -59.437450 0.820222 1.260960
v -59.332272 0.820257 0.848835
v -59.332272 0.753030 0.848835
v -59.437450 0.753030 0.743683
v -59.437450 0.820257 0.743683
v -58.975555 -0.048367 1.312710
v -58.906021 -0.048367 1.312710
v -59.015007 2.038930 1.256721
v -58.947720 2.038930 1.256721
v -59.015007 2.038930 1.156265
v -58.947720 2.038930 1.156265
v -58.975555 -0.048367 1.203495
v -58.906021 -0.048367 1.203495
v -59.014847 0.753515 1.256721
v -58.947556 0.753515 1.256721
v -59.014847 0.753515 1.156265
v -58.947559 0.753515 1.156265
v -58.975555 -0.048367 0.799892
v -58.906021 -0.048367 0.799892
v -59.015007 2.038930 0.848141
v -58.947720 2.038930 0.848141
v -59.015007 2.038930 0.747681
v -58.947720 2.038930 0.747681
v -58.975555 -0.048367 0.691692
v -58.906021 -0.048367 0.691692
v -59.014847 0.753515 0.848141
v -58.947556 0.753515 0.848141
v -59.014847 0.753515 0.747677
v -58.947559 0.753515 0.747677
v -59.475140 -0.048367 1.312710
v -59.405602 -0.048367 1.312710
v -59.434086 2.038930 1.256721
v -59.366795 2.038930 1.256721
v -59.434086 2.038930 1.156265
v -59.366795 2.038930 1.156265
v -59.475140 -0.048367 1.203495
v -59.405602 -0.048367 1.203495
v -59.433918 0.753515 1.256721
v -59.366631 0.753515 1.256721
v -59.433918 0.753515 1.156265
v -59.366634 0.753515 1.156265
v -59.475140 -0.048367 0.799892
v -59.405602 -0.048367 0.799892
v -59.434086 2.038930 0.848141
v -59.366795 2.038930 0.848141
v -59.434086 2.038930 0.747681
v -59.366795 2.038930 0.747681
v -59.475140 -0.048367 0.691692
v -59.405602 -0.048367 0.691692
v -59.433918 0.753515 0.848141
v -59.366631 0.753515 0.848141
v -59.433918 0.753515 0.747677
v -59.366634 0.753515 0.747677
v -58.956650 2.085027 1.014576
v -58.956474 1.999249 1.251034
v -58.956474 0.792928 1.251957
v -58.956474 0.792917 0.753532
v -58.956474 1.999249 0.755177
v -59.422371 0.792948 0.753700
v -59.422371 0.792918 1.252930
v -59.422371 1.999249 0.755177
v -59.422371 1.999249 1.251034
v -59.422371 2.085027 1.014576
vt 0.006708 0.981995
vt 0.001196 0.981995
vt 0.001301 0.930284
vt 0.003914 0.930306
vt 0.063101 0.775162
vt 0.077978 0.775446
vt 0.076609 0.771872
vt 0.063123 0.771464
vt 0.080438 0.826562
vt 0.062546 0.826865
vt 0.006708 0.981995
vt 0.003914 0.930306
vt 0.001301 0.930284
vt 0.001196 0.981995
vt 0.115533 0.754133
vt 0.111395 0.702713
vt 0.103450 0.702713
vt 0.102620 0.754592
vt 0.095532 0.702713
vt 0.092872 0.754216
vt 0.115187 0.761565
vt 0.102468 0.761565
vt 0.092010 0.761565
vt 0.133765 0.775654
vt 0.135524 0.826566
vt 0.147505 0.826843
vt 0.147423 0.775521
vt 0.213317 0.725792
vt 0.229591 0.726524
vt 0.216522 0.709649
vt 0.133742 0.767129
vt 0.147410 0.767129
vt 0.087731 0.754759
vt 0.086963 0.761565
vt 0.118223 0.754650
vt 0.118648 0.761565
vt 0.216473 0.741645
vt 0.210113 0.741635
vt 0.210162 0.709638
vt 0.197705 0.725003
vt 0.165809 0.753670
vt 0.162812 0.702713
vt 0.154426 0.702713
vt 0.153497 0.754233
vt 0.146035 0.702713
vt 0.142332 0.753910
vt 0.165679 0.761565
vt 0.153281 0.761565
vt 0.142083 0.761565
vt 0.189996 0.775659
vt 0.192920 0.826564
vt 0.203111 0.826849
vt 0.203236 0.775531
vt 0.233123 0.751790
vt 0.248516 0.752273
vt 0.236223 0.735622
vt 0.189136 0.767129
vt 0.203258 0.767129
vt 0.138527 0.754481
vt 0.137591 0.761565
vt 0.168740 0.754183
vt 0.168799 0.761565
vt 0.236182 0.767816
vt 0.230019 0.767695
vt 0.230073 0.735487
vt 0.217448 0.751393
vt 0.158432 0.775647
vt 0.156810 0.826565
vt 0.159855 0.772105
vt 0.188040 0.772121
vt 0.232174 0.827030
vt 0.232174 0.775707
vt 0.215677 0.775710
vt 0.212862 0.826605
vt 0.232174 0.772074
vt 0.217072 0.772160
vt 0.216146 0.767129
vt 0.159279 0.767129
vt 0.044119 0.702713
vt 0.027691 0.702432
vt 0.026759 0.754154
vt 0.040651 0.754244
vt 0.179127 0.702230
vt 0.162812 0.702713
vt 0.165809 0.753670
vt 0.179643 0.753384
vt 0.006708 0.981995
vt 0.001196 0.981995
vt 0.001301 0.930284
vt 0.003914 0.930306
vt 0.064858 0.754219
vt 0.060932 0.702713
vt 0.052639 0.702713
vt 0.052544 0.754576
vt 0.044119 0.702713
vt 0.040651 0.754244
vt 0.063101 0.775162
vt 0.077978 0.775446
vt 0.076609 0.771872
vt 0.063123 0.771464
vt 0.064895 0.761565
vt 0.052519 0.761565
vt 0.040121 0.761565
vt 0.080438 0.826562
vt 0.091332 0.826816
vt 0.091550 0.775458
vt 0.233014 0.698035
vt 0.248516 0.697363
vt 0.235537 0.681898
vt 0.062546 0.826865
vt 0.077604 0.767129
vt 0.091646 0.767129
vt 0.037328 0.754800
vt 0.036616 0.761565
vt 0.067808 0.754757
vt 0.068354 0.761565
vt 0.236622 0.713796
vt 0.230475 0.713889
vt 0.229367 0.682000
vt 0.217454 0.697565
vt 0.115533 0.754133
vt 0.111395 0.702713
vt 0.103450 0.702713
vt 0.102620 0.754592
vt 0.095532 0.702713
vt 0.092872 0.754216
vt 0.115187 0.761565
vt 0.102468 0.761565
vt 0.092010 0.761565
vt 0.133765 0.775654
vt 0.135524 0.826566
vt 0.147505 0.826843
vt 0.147423 0.775521
vt 0.213317 0.725792
vt 0.229591 0.726524
vt 0.216522 0.709649
vt 0.133742 0.767129
vt 0.147410 0.767129
vt 0.087731 0.754759
vt 0.086963 0.761565
vt 0.118223 0.754650
vt 0.118648 0.761565
vt 0.216473 0.741645
vt 0.210113 0.741635
vt 0.210162 0.709638
vt 0.197705 0.725003
vt 0.102714 0.775624
vt 0.100963 0.826567
vt 0.103970 0.772087
vt 0.132603 0.772117
vt 0.158432 0.775647
vt 0.156810 0.826565
vt 0.159279 0.767129
vt 0.103376 0.767129
vt 0.006708 0.981995
vt 0.003914 0.930306
vt 0.001301 0.930284
vt 0.001196 0.981995
vt 0.232174 0.827030
vt 0.232174 0.775707
vt 0.215677 0.775710
vt 0.212862 0.826605
vt 0.232174 0.772074
vt 0.217072 0.772160
vt 0.044119 0.702713
vt 0.027691 0.702432
vt 0.026759 0.754154
vt 0.040651 0.754244
vt 0.179127 0.702230
vt 0.162812 0.702713
vt 0.165809 0.753670
vt 0.179643 0.753384
vt 0.741013 0.135331
vt 0.741045 0.118459
vt 0.837757 0.118342
vt 0.837632 0.135563
vt 0.751160 0.151120
vt 0.738753 0.136068
vt 0.837632 0.135563
vt 0.837558 0.151779
vt 0.673673 0.138044
vt 0.669869 0.121697
vt 0.616659 0.124866
vt 0.620279 0.140554
vt 0.668690 0.151431
vt 0.626337 0.151431
vt 0.667679 0.135783
vt 0.608402 0.136075
vt 0.752126 0.151999
vt 0.837558 0.151779
vt 0.837632 0.135563
vt 0.739049 0.136696
vt 0.741168 0.135294
vt 0.837632 0.135563
vt 0.837757 0.118342
vt 0.741261 0.118637
vt 0.910572 0.138044
vt 0.857178 0.140555
vt 0.853559 0.124866
vt 0.906769 0.121697
vt 0.668690 0.151431
vt 0.626337 0.151431
vt 0.667679 0.135783
vt 0.608401 0.136074
vt 0.964973 0.135486
vt 0.960981 0.118468
vt 0.728073 0.135486
vt 0.711842 0.151431
vt 0.711842 0.151431
vt 0.728073 0.135486
vt 0.728073 0.135486
vt 0.724082 0.118468
vt 0.154978 0.644031
vt 0.152053 0.644029
vt 0.152053 0.656953
vt 0.154978 0.656980
vt 0.154978 0.631193
vt 0.152053 0.631234
vt 0.154978 0.617518
vt 0.152053 0.618083
vt 0.152053 0.682559
vt 0.152053 0.699559
vt 0.154978 0.698994
vt 0.154978 0.682603
vt 0.154978 0.670184
vt 0.152053 0.670159
vt 0.223791 0.633613
vt 0.223791 0.652983
vt 0.207475 0.643134
vt 0.240025 0.643315
vt 0.194533 0.644035
vt 0.194509 0.656947
vt 0.194610 0.670175
vt 0.194740 0.682733
vt 0.194769 0.698849
vt 0.194769 0.617373
vt 0.194669 0.631153
vt 0.223791 0.616101
vt 0.207785 0.625267
vt 0.239679 0.625006
vt 0.154978 0.644031
vt 0.152053 0.644029
vt 0.152053 0.656953
vt 0.154978 0.656980
vt 0.154978 0.631193
vt 0.152053 0.631234
vt 0.154978 0.617518
vt 0.152053 0.618083
vt 0.152053 0.682559
vt 0.152053 0.699559
vt 0.154978 0.698994
vt 0.154978 0.682603
vt 0.154978 0.670184
vt 0.152053 0.670159
vt 0.223791 0.633613
vt 0.223791 0.652983
vt 0.207475 0.643134
vt 0.240025 0.643315
vt 0.194533 0.644035
vt 0.194509 0.656947
vt 0.194610 0.670175
vt 0.194740 0.682733
vt 0.194769 0.698849
vt 0.194769 0.617373
vt 0.194669 0.631153
vt 0.223791 0.616101
vt 0.207785 0.625267
vt 0.239679 0.625006
vt 0.424995 0.342997
vt 0.424995 0.304090
vt 0.432239 0.304090
vt 0.432239 0.342997
vt 0.432239 0.304090
vt 0.432239 0.342997
vt 0.442097 0.342997
vt 0.442097 0.304090
vt 0.432239 0.342997
vt 0.432239 0.304090
vt 0.424995 0.304090
vt 0.424995 0.342997
vt 0.424995 0.304090
vt 0.432239 0.304090
vt 0.432239 0.293076
vt 0.424995 0.293076
vt 0.396937 0.304090
vt 0.432239 0.304090
vt 0.432239 0.293076
vt 0.396937 0.293076
vt 0.424995 0.325060
vt 0.432239 0.325060
vt 0.432239 0.304090
vt 0.424995 0.304090
vt 0.432239 0.304090
vt 0.442097 0.304090
vt 0.442097 0.325060
vt 0.432239 0.325060
vt 0.432239 0.325060
vt 0.424995 0.325060
vt 0.424995 0.304090
vt 0.432239 0.304090
vt 0.424995 0.304090
vt 0.424995 0.293076
vt 0.432239 0.293076
vt 0.432239 0.304090
vt 0.413212 0.304090
vt 0.413212 0.293076
vt 0.432239 0.293076
vt 0.432239 0.304090
vt 0.413212 0.353266
vt 0.413212 0.304090
vt 0.432239 0.304090
vt 0.432239 0.353266
vt 0.432239 0.304090
vt 0.442097 0.304090
vt 0.442097 0.353266
vt 0.432239 0.353266
vt 0.413212 0.353266
vt 0.432239 0.353266
vt 0.432239 0.304090
vt 0.413212 0.304090
vt 0.432239 0.353266
vt 0.396937 0.353266
vt 0.396937 0.304090
vt 0.432239 0.304090
vt 0.432239 0.304090
vt 0.432239 0.353266
vt 0.442097 0.353266
vt 0.442097 0.304090
vt 0.396937 0.353266
vt 0.432239 0.353266
vt 0.432239 0.304090
vt 0.396937 0.304090
vt 0.873168 0.628497
vt 0.999170 0.628497
vt 0.999170 0.745670
vt 0.873168 0.745670
vt 0.873168 0.628497
vt 0.999257 0.628497
vt 0.999257 0.745670
vt 0.873168 0.745670
vt 0.751538 0.745670
vt 0.751538 0.628497
vt 0.751538 0.745670
vt 0.751538 0.628497
vt 0.403867 0.088435
vt 0.403867 0.067333
vt 0.497617 0.067333
vt 0.497617 0.088435
vt 0.428836 0.067166
vt 0.403867 0.030469
vt 0.497617 0.030469
vt 0.472754 0.067097
vt 0.472750 0.067668
vt 0.472749 0.088089
vt 0.428836 0.088212
vt 0.428836 0.067567
vt 0.428836 0.030637
vt 0.472754 0.030706
vt 0.428836 0.088200
vt 0.428829 0.067359
vt 0.472754 0.067393
vt 0.472750 0.088113
vt 0.403867 0.067333
vt 0.428836 0.030637
vt 0.472754 0.030706
vt 0.497617 0.067333
vt 0.497617 0.067333
vt 0.497617 0.088435
vt 0.403867 0.088435
vt 0.403867 0.067333
vt 0.403867 0.030469
vt 0.497617 0.030469
vt 0.432198 0.087915
vt 0.432195 0.067355
vt 0.472854 0.067370
vt 0.472851 0.088212
vt 0.497617 0.067333
vt 0.497617 0.088435
vt 0.407268 0.088133
vt 0.407268 0.067712
vt 0.407277 0.030690
vt 0.497617 0.030469
vt 0.407276 0.067110
vt 0.432185 0.030845
vt 0.472851 0.030637
vt 0.497617 0.067333
vt 0.407268 0.088083
vt 0.407273 0.067353
vt 0.497617 0.067333
vt 0.497617 0.088435
vt 0.472851 0.067556
vt 0.472851 0.088200
vt 0.432197 0.087966
vt 0.432197 0.067878
vt 0.432186 0.030808
vt 0.472851 0.030637
vt 0.432185 0.066956
vt 0.407276 0.030693
vt 0.497617 0.030469
vt 0.472851 0.067166
vt 0.005869 0.088435
vt 0.005869 0.067333
vt 0.196231 0.067333
vt 0.196231 0.088435
vt 0.501350 0.067588
vt 0.501350 0.088234
vt 0.196231 0.088435
vt 0.196231 0.067333
vt 0.005869 0.030469
vt 0.196231 0.030469
vt 0.005869 0.067333
vt 0.005869 0.030469
vt 0.196231 0.030469
vt 0.196231 0.067333
vt 0.501350 0.088179
vt 0.501365 0.067330
vt 0.501350 0.030650
vt 0.501350 0.067152
vt 0.501350 0.030650
vt 0.005869 0.088435
vt 0.005869 0.067333
vt 0.005869 0.088435
vt 0.005869 0.067333
vt 0.196231 0.067333
vt 0.196231 0.088435
vt 0.501350 0.067588
vt 0.501350 0.088234
vt 0.196231 0.088435
vt 0.196231 0.067333
vt 0.005869 0.030469
vt 0.196231 0.030469
vt 0.005869 0.067333
vt 0.005869 0.030469
vt 0.196231 0.030469
vt 0.196231 0.067333
vt 0.501350 0.088179
vt 0.501365 0.067330
vt 0.501350 0.030650
vt 0.501350 0.067152
vt 0.501350 0.030651
vt 0.005869 0.088435
vt 0.005869 0.067333
vt 0.005869 0.088435
vt 0.005869 0.067333
vt 0.196231 0.067333
vt 0.196231 0.088435
vt 0.501350 0.067588
vt 0.501350 0.088235
vt 0.196231 0.088435
vt 0.196231 0.067333
vt 0.005869 0.030469
vt 0.196231 0.030469
vt 0.005869 0.067333
vt 0.005869 0.030469
vt 0.196231 0.030469
vt 0.196231 0.067333
vt 0.501350 0.088179
vt 0.501365 0.067329
vt 0.501350 0.030650
vt 0.501350 0.067152
vt 0.501350 0.030650
vt 0.005869 0.088435
vt 0.005869 0.067333
vt 0.005869 0.088435
vt 0.005869 0.067333
vt 0.196231 0.067333
vt 0.196231 0.088435
vt 0.501350 0.067588
vt 0.501350 0.088235
vt 0.196231 0.088435
vt 0.196231 0.067333
vt 0.005869 0.030469
vt 0.196231 0.030469
vt 0.005869 0.067333
vt 0.005869 0.030469
vt 0.196231 0.030469
vt 0.196231 0.067333
vt 0.501350 0.088179
vt 0.501365 0.067329
vt 0.501350 0.030650
vt 0.501350 0.067152
vt 0.501350 0.030651
vt 0.005869 0.088435
vt 0.005869 0.067333
vt 0.722796 0.933312
vt 0.703394 0.918517
vt 0.741815 0.918517
vt 0.703394 0.801705
vt 0.741815 0.801705
vt 0.722796 0.933312
vt 0.741815 0.918517
vt 0.703394 0.918517
vt 0.654435 0.801240
vt 0.692355 0.801259
vt 0.692346 0.918157
vt 0.654443 0.918157
vt 0.692355 0.801254
vt 0.654435 0.801240
vt 0.654443 0.918159
vt 0.692346 0.918160
vt 0.741815 0.801696
vt 0.703394 0.801696
vn 0.999994 0.001491 -0.003260
vn 0.999994 0.001491 -0.003260
vn 0.999994 0.001491 -0.003260
vn 0.999994 0.001491 -0.003260
vn 0.019565 -0.391436 0.919997
vn 0.019565 -0.391436 0.919997
vn 0.019565 -0.391436 0.919997
vn 0.019565 -0.391436 0.919997
vn 0.013840 0.919568 0.392687
vn 0.013840 0.919568 0.392687
vn 0.013840 0.919568 0.392687
vn 0.013840 0.919568 0.392687
vn -0.999994 -0.001464 0.003276
vn -0.999994 -0.001464 0.003276
vn -0.999994 -0.001464 0.003276
vn -0.999994 -0.001464 0.003276
vn -0.658693 -0.675470 -0.331457
vn -0.305720 -0.865268 -0.397298
vn -0.017235 -0.896374 -0.442964
vn -0.017973 -0.897685 -0.440272
vn 0.553626 -0.746996 -0.368098
vn 0.805496 -0.524484 -0.275851
vn -0.910915 -0.358429 -0.204361
vn -0.018772 -0.899093 -0.437354
vn 0.903068 -0.374332 -0.210580
vn 0.861313 0.481456 0.162294
vn 0.720522 0.645562 0.253177
vn 0.026558 0.929812 0.367075
vn 0.026644 0.935186 0.353154
vn 0.000723 -0.375314 0.926898
vn 0.001322 -0.290634 0.956833
vn -0.081155 -0.333287 0.939326
vn 0.918066 0.381113 0.109125
vn 0.026720 0.940143 0.339733
vn -0.841998 0.510162 0.175426
vn -0.907208 0.403557 0.118810
vn 0.083340 -0.335879 0.938211
vn 0.084410 -0.416597 0.905164
vn -0.083559 -0.413642 0.906597
vn -0.000037 -0.452346 0.891843
vn -0.814997 -0.512153 -0.271070
vn -0.571961 -0.735268 -0.363651
vn -0.005313 -0.896519 -0.442973
vn -0.005596 -0.897809 -0.440350
vn 0.294786 -0.868599 -0.398293
vn 0.648052 -0.684073 -0.334774
vn -0.908136 -0.364082 -0.206722
vn -0.005903 -0.899195 -0.437509
vn 0.905690 -0.368970 -0.208776
vn 0.859083 0.484956 0.163689
vn 0.716153 0.649611 0.255207
vn 0.020598 0.929930 0.367158
vn 0.020620 0.935334 0.353164
vn 0.000797 -0.375311 0.926899
vn 0.001140 -0.290524 0.956867
vn -0.081336 -0.333615 0.939194
vn 0.916797 0.383903 0.110004
vn 0.020636 0.940318 0.339670
vn -0.844152 0.507105 0.173933
vn -0.908442 0.401120 0.117629
vn 0.083336 -0.335461 0.938361
vn 0.084699 -0.415833 0.905488
vn -0.083453 -0.414496 0.906217
vn 0.000371 -0.452419 0.891806
vn 0.000000 0.919662 0.392711
vn 0.000000 0.919662 0.392711
vn 0.000000 0.919662 0.392711
vn 0.000000 0.919662 0.392711
vn 0.000001 -0.391166 0.920320
vn 0.000001 -0.391166 0.920320
vn 0.000001 -0.391166 0.920320
vn 0.000001 -0.391166 0.920320
vn -0.013266 0.919555 0.392738
vn -0.013266 0.919555 0.392738
vn -0.013266 0.919555 0.392738
vn -0.013266 0.919555 0.392738
vn -0.019048 -0.391209 0.920105
vn -0.019048 -0.391209 0.920105
vn -0.019048 -0.391209 0.920105
vn -0.019048 -0.391209 0.920105
vn -0.686799 0.675625 0.268027
vn -0.682686 0.679089 0.269774
vn 0.045591 -0.910791 -0.410344
vn 0.045591 -0.910791 -0.410344
vn 0.045591 -0.910791 -0.410344
vn 0.045591 -0.910791 -0.410344
vn -0.043731 -0.910960 -0.410169
vn -0.043731 -0.910960 -0.410169
vn -0.043731 -0.910960 -0.410169
vn -0.043731 -0.910960 -0.410169
vn -0.999994 0.001278 0.003276
vn -0.999994 0.001278 0.003276
vn -0.999994 0.001278 0.003276
vn -0.999994 0.001278 0.003276
vn 0.662200 -0.672585 0.330335
vn 0.309393 -0.864144 0.396901
vn 0.024112 -0.896253 0.442888
vn 0.025076 -0.897517 0.440267
vn -0.548585 -0.750136 0.369257
vn -0.802879 -0.527724 0.277295
vn -0.019598 -0.391314 -0.920049
vn -0.019598 -0.391314 -0.920049
vn -0.019598 -0.391314 -0.920049
vn -0.019598 -0.391314 -0.920049
vn 0.912595 -0.354940 0.202947
vn 0.026119 -0.898875 0.437426
vn -0.901671 -0.376963 0.211867
vn -0.852786 0.494431 -0.168207
vn -0.703870 0.660736 -0.260758
vn -0.003077 0.930108 -0.367274
vn -0.002963 0.935508 -0.353293
vn -0.000413 -0.375452 -0.926842
vn -0.000626 -0.290695 -0.956816
vn 0.081386 -0.334864 -0.938745
vn -0.013839 0.919565 -0.392695
vn -0.013839 0.919565 -0.392695
vn -0.013839 0.919565 -0.392695
vn -0.013839 0.919565 -0.392695
vn -0.913230 0.391329 -0.113460
vn -0.002853 0.940489 -0.339813
vn 0.850643 0.497639 -0.169592
vn 0.912079 0.393726 -0.114419
vn -0.082889 -0.334581 -0.938715
vn -0.084227 -0.417288 -0.904863
vn 0.083602 -0.413304 -0.906747
vn 0.000267 -0.452487 -0.891771
vn 0.820354 -0.505088 0.268151
vn 0.582318 -0.728415 0.360995
vn 0.017230 -0.896384 0.442943
vn 0.017961 -0.897691 0.440260
vn -0.289448 -0.870171 0.398776
vn -0.642859 -0.688287 0.336145
vn 0.911025 -0.358203 0.204265
vn 0.018752 -0.899095 0.437352
vn -0.903133 -0.374231 0.210481
vn -0.861490 0.481169 -0.162207
vn -0.720819 0.645282 -0.253045
vn -0.026528 0.929817 -0.367065
vn -0.026605 0.935189 -0.353149
vn -0.000725 -0.375415 -0.926857
vn -0.001318 -0.290757 -0.956796
vn 0.081046 -0.333495 -0.939262
vn -0.918185 0.380842 -0.109070
vn -0.026673 0.940144 -0.339733
vn 0.842165 0.509920 -0.175325
vn 0.907290 0.403395 -0.118735
vn -0.083230 -0.336085 -0.938147
vn -0.084371 -0.416699 -0.905121
vn 0.083512 -0.413723 -0.906565
vn 0.000031 -0.452250 -0.891891
vn 0.000000 0.919654 -0.392729
vn 0.000000 0.919654 -0.392729
vn 0.000000 0.919654 -0.392729
vn 0.000000 0.919654 -0.392729
vn -0.000001 -0.391391 -0.920225
vn -0.000001 -0.391391 -0.920225
vn -0.000001 -0.391391 -0.920225
vn -0.000001 -0.391391 -0.920225
vn 0.683043 0.678777 -0.269655
vn 0.699486 0.664651 -0.262600
vn 0.999994 -0.001351 -0.003227
vn 0.999994 -0.001351 -0.003227
vn 0.999994 -0.001351 -0.003227
vn 0.999994 -0.001351 -0.003227
vn 0.013279 0.919547 -0.392757
vn 0.013279 0.919547 -0.392757
vn 0.013279 0.919547 -0.392757
vn 0.013279 0.919547 -0.392757
vn 0.019049 -0.391226 -0.920098
vn 0.019049 -0.391226 -0.920098
vn 0.019049 -0.391226 -0.920098
vn 0.019049 -0.391226 -0.920098
vn -0.045578 -0.910789 0.410349
vn -0.045578 -0.910789 0.410349
vn -0.045578 -0.910789 0.410349
vn -0.045578 -0.910789 0.410349
vn 0.043731 -0.910963 0.410164
vn 0.043731 -0.910963 0.410164
vn 0.043731 -0.910963 0.410164
vn 0.043731 -0.910963 0.410164
vn 0.006507 -0.436663 -0.899602
vn 0.006507 -0.436663 -0.899602
vn 0.006507 -0.436663 -0.899602
vn 0.006507 -0.436663 -0.899602
vn -0.000741 -0.892150 0.451739
vn -0.000741 -0.892150 0.451739
vn -0.000741 -0.892150 0.451739
vn -0.000741 -0.892150 0.451739
vn -0.999993 -0.002930 0.002238
vn -0.999993 -0.002930 0.002238
vn -0.999993 -0.002930 0.002238
vn -0.999993 -0.002930 0.002238
vn 0.023846 -0.908543 0.417111
vn 0.023846 -0.908543 0.417111
vn 0.023846 -0.908543 0.417111
vn 0.023846 -0.908543 0.417111
vn -0.000007 -0.911971 -0.410254
vn -0.000007 -0.911971 -0.410254
vn -0.000007 -0.911971 -0.410254
vn -0.000007 -0.911971 -0.410254
vn -0.010282 -0.429793 0.902869
vn -0.010282 -0.429793 0.902869
vn -0.010282 -0.429793 0.902869
vn -0.010282 -0.429793 0.902869
vn 0.999987 -0.004408 0.002672
vn 0.999987 -0.004408 0.002672
vn 0.999987 -0.004408 0.002672
vn 0.999987 -0.004408 0.002672
vn -0.015038 -0.911399 0.411248
vn -0.015038 -0.911399 0.411248
vn -0.015038 -0.911399 0.411248
vn -0.015038 -0.911399 0.411248
vn 0.999996 -0.002665 -0.000572
vn 0.999996 -0.002665 -0.000572
vn 0.999996 -0.002665 -0.000572
vn 0.999996 -0.002665 -0.000572
vn -0.005169 -0.911637 -0.410964
vn -0.005169 -0.911637 -0.410964
vn -0.005169 -0.911637 -0.410964
vn -0.005169 -0.911637 -0.410964
vn 0.020053 -0.916850 -0.398728
vn 0.020053 -0.916850 -0.398728
vn 0.020053 -0.916850 -0.398728
vn 0.020053 -0.916850 -0.398728
vn -0.999991 -0.004136 -0.000493
vn -0.999991 -0.004136 -0.000493
vn -0.999991 -0.004136 -0.000493
vn -0.999991 -0.004136 -0.000493
vn 0.590664 0.806915 -0.002207
vn 0.590664 0.806915 -0.002207
vn 0.578805 0.393100 -0.714463
vn 0.578805 0.393100 -0.714463
vn 0.570147 0.396321 0.719627
vn 0.570147 0.396321 0.719627
vn 0.560513 -0.416835 0.715593
vn 0.560513 -0.416835 0.715593
vn 0.562542 -0.826759 -0.004044
vn 0.562542 -0.826759 -0.004044
vn 0.562395 -0.418844 -0.712939
vn 0.562395 -0.418844 -0.712939
vn -1.000000 0.000003 -0.000085
vn -1.000000 0.000000 -0.000084
vn -1.000000 0.000008 0.000000
vn -1.000000 0.000000 -0.000170
vn 0.000001 0.999996 -0.003003
vn 0.000001 0.999996 -0.003003
vn 0.000001 0.481714 -0.876328
vn 0.000001 0.481714 -0.876328
vn 0.000001 -0.506650 -0.862152
vn 0.000001 -0.506650 -0.862152
vn 0.000002 -0.999989 -0.004650
vn 0.000002 -0.999989 -0.004650
vn 0.000001 -0.511334 0.859382
vn 0.000001 -0.511334 0.859382
vn 0.000001 0.483652 0.875261
vn 0.000001 0.483652 0.875261
vn -1.000000 0.000000 -0.000086
vn -1.000000 0.000008 0.000000
vn -1.000000 0.000000 -0.000171
vn -0.621668 0.783272 0.003715
vn -0.621668 0.783272 0.003715
vn -0.574353 0.388634 0.720473
vn -0.574353 0.388634 0.720473
vn -0.575097 0.382200 -0.723317
vn -0.575097 0.382200 -0.723317
vn -0.491098 -0.447680 -0.747265
vn -0.491098 -0.447680 -0.747265
vn -0.451938 -0.892037 0.004637
vn -0.451938 -0.892037 0.004637
vn -0.490233 -0.449427 0.746784
vn -0.490233 -0.449427 0.746784
vn 1.000000 0.000020 0.000085
vn 1.000000 0.000000 0.000084
vn 1.000000 0.000009 0.000000
vn 1.000000 0.000052 0.000170
vn -0.000001 0.999996 0.003018
vn -0.000001 0.999996 0.003018
vn -0.000001 0.481715 0.876328
vn -0.000001 0.481715 0.876328
vn -0.000001 -0.506650 0.862152
vn -0.000001 -0.506650 0.862152
vn -0.000002 -0.999989 0.004651
vn -0.000002 -0.999989 0.004651
vn -0.000001 -0.511366 -0.859363
vn -0.000001 -0.511366 -0.859363
vn -0.000001 0.483633 -0.875271
vn -0.000001 0.483633 -0.875271
vn 1.000000 0.000000 0.000086
vn 1.000000 0.000009 0.000000
vn 1.000000 0.000052 0.000171
vn -0.000001 -1.000000 -0.000000
vn -0.000001 -1.000000 0.000000
vn -0.000001 -1.000000 0.000000
vn -0.000001 -1.000000 0.000000
vn 0.999995 0.003146 -0.000045
vn 0.999995 0.003113 0.000008
vn 0.999995 0.003113 0.000008
vn 0.999995 0.003146 -0.000045
vn -0.000004 1.000000 -0.000000
vn -0.000004 1.000000 0.000000
vn -0.000003 1.000000 0.000000
vn -0.000003 1.000000 -0.000000
vn 0.006948 0.002536 -0.999973
vn 0.015246 0.002260 -0.999881
vn 0.015246 0.002260 -0.999881
vn 0.006948 0.002536 -0.999973
vn -0.999997 0.001922 0.001556
vn -0.999996 0.001964 -0.002013
vn -0.999996 0.001964 -0.002013
vn -0.999997 0.001922 0.001556
vn -0.000001 -1.000000 0.000000
vn -0.000001 -1.000000 -0.000000
vn 0.999995 0.003080 0.000061
vn 0.999995 0.003080 0.000061
vn -0.000003 1.000000 -0.000000
vn -0.000004 1.000000 -0.000000
vn 0.006945 0.002507 0.999973
vn 0.006945 0.002507 0.999973
vn 0.015248 0.002260 0.999881
vn 0.015248 0.002260 0.999881
vn -0.999985 0.001881 0.005125
vn -0.999985 0.001881 0.005125
vn -0.000003 1.000000 -0.000000
vn -0.000003 1.000000 -0.000000
vn -0.001358 0.002754 0.999995
vn -0.001358 0.002754 0.999995
vn -0.000001 -1.000000 -0.000000
vn -0.000001 -1.000000 -0.000000
vn -0.000001 -1.000000 0.000000
vn -0.001351 0.002811 -0.999995
vn -0.001351 0.002811 -0.999995
vn -0.000003 1.000000 0.000000
vn -0.000372 0.065084 -0.997880
vn -0.000372 0.065084 -0.997880
vn -0.000372 0.065084 -0.997880
vn -0.000372 0.065084 -0.997880
vn 0.000391 0.065082 0.997880
vn 0.000391 0.065082 0.997880
vn 0.000391 0.065082 0.997880
vn 0.000391 0.065082 0.997880
vn -0.998925 0.046362 0.000491
vn -0.998925 0.046362 0.000491
vn -0.998925 0.046362 0.000491
vn -0.998925 0.046362 0.000491
vn 0.998924 0.046382 -0.000219
vn 0.998924 0.046382 -0.000219
vn 0.998924 0.046382 -0.000219
vn 0.998924 0.046382 -0.000219
vn 1.000000 0.000000 0.000000
vn 1.000000 0.000000 0.000000
vn 1.000000 0.000000 0.000000
vn 1.000000 0.000000 0.000000
vn -0.000000 -1.000000 -0.000086
vn -0.000000 -1.000000 -0.000086
vn -0.000000 -1.000000 -0.000086
vn -0.000000 -1.000000 -0.000086
vn -1.000000 0.000000 0.000000
vn -1.000000 0.000000 0.000000
vn -1.000000 0.000000 0.000000
vn -1.000000 0.000000 0.000000
vn 0.000000 1.000000 0.000086
vn 0.000000 1.000000 0.000086
vn 0.000000 1.000000 0.000086
vn 0.000000 1.000000 0.000086
vn 1.000000 0.000000 0.000000
vn 1.000000 0.000000 0.000000
vn 1.000000 0.000000 0.000000
vn 1.000000 0.000000 0.000000
vn 0.000000 -1.000000 -0.000086
vn 0.000000 -1.000000 -0.000086
vn 0.000000 -1.000000 -0.000086
vn 0.000000 -1.000000 -0.000086
vn -1.000000 0.000000 0.000000
vn -1.000000 0.000000 0.000000
vn -1.000000 0.000000 0.000000
vn -1.000000 0.000000 0.000000
vn -0.000000 1.000000 0.000086
vn -0.000000 1.000000 0.000086
vn -0.000000 1.000000 0.000086
vn -0.000000 1.000000 0.000086
vn -0.000000 0.000000 1.000000
vn -0.000000 0.000000 1.000000
vn -0.000000 0.000000 1.000000
vn -0.000000 0.000000 1.000000
vn 0.000008 0.000000 -1.000000
vn 0.000008 0.000000 -1.000000
vn 0.000008 0.000000 -1.000000
vn 0.000008 0.000000 -1.000000
vn -0.000407 1.000000 -0.000001
vn -0.000407 1.000000 -0.000001
vn -0.000407 1.000000 -0.000001
vn -0.000407 1.000000 -0.000001
vn 0.000407 -1.000000 0.000001
vn 0.000407 -1.000000 0.000001
vn 0.000407 -1.000000 0.000001
vn 0.000407 -1.000000 0.000001
vn -0.000000 0.000000 1.000000
vn -0.000000 0.000000 1.000000
vn -0.000000 0.000000 1.000000
vn -0.000000 0.000000 1.000000
vn 0.000013 0.000000 -1.000000
vn 0.000013 0.000000 -1.000000
vn 0.000013 0.000000 -1.000000
vn 0.000013 0.000000 -1.000000
vn -0.000407 1.000000 0.000001
vn -0.000407 1.000000 0.000001
vn -0.000407 1.000000 0.000001
vn -0.000407 1.000000 0.000001
vn 0.000407 -1.000000 -0.000000
vn 0.000407 -1.000000 -0.000000
vn 0.000407 -1.000000 -0.000000
vn 0.000407 -1.000000 -0.000000
vn 0.000000 0.069649 0.997572
vn 0.000000 0.069649 0.997572
vn 0.000000 0.034846 0.999393
vn 0.000000 0.034846 0.999393
vn 0.000000 0.000000 -1.000000
vn 0.000000 0.000000 -1.000000
vn 0.000000 -0.029411 -0.999567
vn 0.000000 -0.029411 -0.999567
vn 0.998662 0.051723 -0.000018
vn 0.998662 0.051723 -0.000018
vn 0.999664 0.025935 -0.000019
vn 0.999664 0.025935 -0.000019
vn -0.998802 -0.048943 0.000000
vn -0.998802 -0.048943 0.000000
vn -0.999699 -0.024542 0.000000
vn -0.999699 -0.024542 0.000000
vn 0.000000 0.000000 1.000000
vn 0.000000 0.000000 1.000000
vn 1.000000 0.000129 -0.000019
vn 1.000000 0.000129 -0.000019
vn -1.000000 -0.000126 0.000000
vn -1.000000 -0.000126 0.000000
vn 0.000000 -0.058797 -0.998270
vn 0.000000 -0.058797 -0.998270
vn 0.000000 -0.060062 0.998195
vn 0.000000 -0.060062 0.998195
vn 0.000000 -0.030045 0.999549
vn 0.000000 -0.030045 0.999549
vn 0.000000 0.000003 -1.000000
vn 0.000000 0.000003 -1.000000
vn 0.000000 0.034846 -0.999393
vn 0.000000 0.034846 -0.999393
vn 0.998661 0.051731 -0.000018
vn 0.998661 0.051731 -0.000018
vn 0.999664 0.025939 -0.000019
vn 0.999664 0.025939 -0.000019
vn -0.998802 -0.048938 0.000000
vn -0.998802 -0.048938 0.000000
vn -0.999699 -0.024539 0.000000
vn -0.999699 -0.024539 0.000000
vn 0.000000 0.000000 1.000000
vn 0.000000 0.000000 1.000000
vn 1.000000 0.000129 -0.000019
vn 1.000000 0.000129 -0.000019
vn -1.000000 -0.000126 0.000000
vn -1.000000 -0.000126 0.000000
vn 0.000000 0.069647 -0.997572
vn 0.000000 0.069647 -0.997572
vn 0.000000 0.069654 0.997571
vn 0.000000 0.069654 0.997571
vn 0.000000 0.034848 0.999393
vn 0.000000 0.034848 0.999393
vn 0.000000 0.000000 -1.000000
vn 0.000000 0.000000 -1.000000
vn 0.000000 -0.029411 -0.999567
vn 0.000000 -0.029411 -0.999567
vn 0.998821 -0.048548 -0.000018
vn 0.998821 -0.048548 -0.000018
vn 0.999707 -0.024218 -0.000019
vn 0.999707 -0.024218 -0.000019
vn -0.998681 0.051339 0.000000
vn -0.998681 0.051339 0.000000
vn -0.999672 0.025612 0.000000
vn -0.999672 0.025612 0.000000
vn 0.000000 0.000000 1.000000
vn 0.000000 0.000000 1.000000
vn 1.000000 0.000126 -0.000019
vn 1.000000 0.000126 -0.000019
vn -1.000000 -0.000133 0.000000
vn -1.000000 -0.000133 0.000000
vn 0.000000 -0.058797 -0.998270
vn 0.000000 -0.058797 -0.998270
vn 0.000000 -0.060058 0.998195
vn 0.000000 -0.060058 0.998195
vn 0.000000 -0.030042 0.999549
vn 0.000000 -0.030042 0.999549
vn 0.000000 0.000003 -1.000000
vn 0.000000 0.000003 -1.000000
vn 0.000000 0.034848 -0.999393
vn 0.000000 0.034848 -0.999393
vn 0.998821 -0.048543 -0.000018
vn 0.998821 -0.048543 -0.000018
vn 0.999707 -0.024216 -0.000019
vn 0.999707 -0.024216 -0.000019
vn -0.998681 0.051339 0.000000
vn -0.998681 0.051339 0.000000
vn -0.999672 0.025614 0.000000
vn -0.999672 0.025614 0.000000
vn 0.000000 0.000000 1.000000
vn 0.000000 0.000000 1.000000
vn 1.000000 0.000126 -0.000019
vn 1.000000 0.000126 -0.000019
vn -1.000000 -0.000129 0.000000
vn -1.000000 -0.000129 0.000000
vn 0.000000 0.069651 -0.997571
vn 0.000000 0.069651 -0.997571
vn 0.999998 0.002018 0.000000
vn 0.999998 0.002018 0.000000
vn 0.999998 0.002018 0.000000
vn 1.000000 0.000000 0.000000
vn 1.000000 0.000000 0.000000
vn 1.000000 0.000000 0.000000
vn 1.000000 0.000000 0.000000
vn -1.000000 0.000045 0.000000
vn -1.000000 0.000045 0.000000
vn -1.000000 0.000045 0.000000
vn 0.001044 0.001168 0.999999
vn 0.001044 0.001168 0.999999
vn 0.001044 0.001168 0.999999
vn 0.001044 0.001168 0.999999
vn -0.000180 0.001293 -0.999999
vn -0.000180 0.001293 -0.999999
vn -0.000180 0.001293 -0.999999
vn -0.000180 0.001293 -0.999999
vn -1.000000 -0.000003 0.000000
vn -1.000000 -0.000003 0.000000
vn -1.000000 -0.000003 0.000000
vn -1.000000 -0.000003 0.000000
s off
g polySurface26327
f 3/1/1 4/2/2 1/3/3 2/4/4
f 3/5/5 8/6/6 7/7/7 4/8/8
f 5/9/9 8/6/10 3/5/11 2/10/12
f 11/11/13 10/12/14 9/13/15 12/14/16
s 5
f 19/15/17 20/16/18 21/17/19 22/18/20
f 22/18/20 21/17/19 23/19/21 24/20/22
f 25/21/23 19/15/17 22/18/20 26/22/24
f 26/22/24 22/18/20 24/20/22 27/23/25
f 28/24/26 17/25/27 18/26/28 29/27/29
s 6
f 30/28/30 31/29/31 32/30/32
s 5
f 33/31/33 28/24/26 29/27/29 31/32/34
f 27/23/25 24/20/22 28/33/26 33/34/33
f 34/35/35 19/15/17 25/21/23 32/36/36
s 6
f 33/37/37 30/28/30 27/38/38
f 32/30/32 25/39/39 30/28/30
f 30/28/30 25/39/39 26/40/40
s 5
f 35/41/41 36/42/42 37/43/43 38/44/44
f 38/44/44 37/43/43 39/45/45 40/46/46
f 41/47/47 35/41/41 38/44/44 42/48/48
f 42/48/48 38/44/44 40/46/46 43/49/49
f 44/50/50 14/51/51 15/52/52 45/53/53
s 7
f 46/54/54 47/55/55 48/56/56
s 5
f 49/57/57 44/50/50 45/53/53 47/58/58
f 43/49/49 40/46/46 44/59/50 49/60/57
f 50/61/59 35/41/41 41/47/47 48/62/60
s 7
f 49/63/61 46/54/54 43/64/62
f 48/56/56 41/65/63 46/54/54
f 46/54/54 41/65/63 42/66/64
s off
f 34/67/65 16/68/66 14/51/67 44/50/68
f 19/69/69 34/67/70 44/50/71 40/70/72
s 5
f 39/45/45 20/16/18 19/15/17 40/46/46
s off
f 10/71/73 11/72/74 50/73/75 13/74/76
f 50/73/77 11/72/78 12/75/79 35/76/80
s 5
f 50/73/59 45/53/53 15/52/52 13/74/81
f 48/77/60 47/58/58 45/53/53 50/73/59
f 34/67/35 29/27/29 18/26/28 16/68/82
f 32/78/36 31/32/34 29/27/29 34/67/35
s 7
f 46/54/54 42/66/64 43/64/62
f 46/54/54 49/63/61 47/55/55
s 6
f 30/28/30 26/40/40 27/38/38
f 30/28/30 33/37/37 31/29/31
s off
f 6/79/83 1/80/84 4/81/85 7/82/86
f 9/83/87 36/84/88 35/85/89 12/86/90
f 53/87/91 54/88/92 51/89/93 52/90/94
s 15
f 61/91/95 62/92/96 63/93/97 64/94/98
f 64/94/98 63/93/97 65/95/99 66/96/100
s off
f 53/97/101 67/98/102 66/99/103 54/100/104
s 15
f 68/101/105 61/91/95 64/94/98 69/102/106
f 69/102/106 64/94/98 66/96/100 70/103/107
f 67/98/108 59/104/109 60/105/110 71/106/111
s 17
f 72/107/112 73/108/113 74/109/114
s off
f 59/104/115 67/98/116 53/97/117 52/110/118
s 15
f 75/111/119 67/98/108 71/106/111 73/112/120
f 70/103/107 66/96/100 67/113/108 75/114/119
f 76/115/121 61/91/95 68/101/105 74/116/122
s 17
f 75/117/123 72/107/112 70/118/124
f 74/109/114 68/119/125 72/107/112
f 72/107/112 68/119/125 69/120/126
s 15
f 77/121/127 78/122/128 79/123/129 80/124/130
f 80/124/130 79/123/129 81/125/131 82/126/132
f 83/127/133 77/121/127 80/124/130 84/128/134
f 84/128/134 80/124/130 82/126/132 85/129/135
f 86/130/136 56/131/137 57/132/138 87/133/139
s 19
f 88/134/140 89/135/141 90/136/142
s 15
f 91/137/143 86/130/136 87/133/139 89/138/144
f 85/129/135 82/126/132 86/139/136 91/140/143
f 92/141/145 77/121/127 83/127/133 90/142/146
s 19
f 91/143/147 88/134/140 85/144/148
f 90/136/142 83/145/149 88/134/140
f 88/134/140 83/145/149 84/146/150
s off
f 76/147/151 58/148/152 56/131/153 86/130/154
f 61/149/155 76/147/156 86/130/157 82/150/158
s 15
f 81/125/131 62/92/96 61/91/95 82/126/132
f 92/151/145 87/133/139 57/132/138 55/152/159
f 90/153/146 89/138/144 87/133/139 92/151/145
f 76/147/121 71/106/111 60/105/110 58/148/160
f 74/154/122 73/112/120 71/106/111 76/147/121
s 19
f 88/134/140 84/146/150 85/144/148
f 88/134/140 91/143/147 89/135/141
s 17
f 72/107/112 69/120/126 70/118/124
f 72/107/112 75/117/123 73/108/113
s off
f 95/155/161 94/156/162 93/157/163 96/158/164
f 94/159/165 95/160/166 100/161/167 97/162/168
f 100/161/169 95/160/170 96/163/171 98/164/172
f 65/165/173 51/166/174 54/167/175 66/168/176
f 93/169/177 99/170/178 98/171/179 96/172/180
f 105/173/181 104/174/182 101/175/183 103/176/184
f 106/177/185 105/178/186 103/179/187 102/180/188
f 117/181/189 118/182/190 104/183/191 105/184/192
f 117/187/193 105/188/194 106/186/195 116/185/196
f 108/189/197 111/190/198 112/191/199 109/192/200
f 109/193/201 112/194/202 110/195/203 107/196/204
f 114/197/205 103/198/206 101/199/207 113/200/208
f 114/203/209 115/201/210 102/202/211 103/204/212
f 112/205/213 114/197/214 113/200/215 110/206/216
f 112/207/217 111/208/218 115/201/219 114/203/220
f 109/210/221 117/187/222 116/185/223 108/209/224
f 109/211/225 107/212/226 118/182/227 117/181/228
s 39
f 119/213/229 120/214/230 121/215/231 122/216/232
f 119/213/229 123/217/233 124/218/234 120/214/230
f 123/217/233 125/219/235 126/220/236 124/218/234
f 127/221/237 126/222/236 125/223/235 128/224/238
f 128/224/238 129/225/239 130/226/240 127/221/237
f 129/225/239 122/216/232 121/215/231 130/226/240
s 40
f 131/227/241 132/228/242 133/229/243
f 131/227/241 134/230/244 132/228/242
s 41
f 132/231/245 119/213/246 122/216/247 133/232/248
f 133/232/248 122/216/247 129/225/249 135/233/250
f 136/234/251 135/233/250 129/225/249 128/224/252
f 125/223/253 137/235/254 136/234/251 128/224/252
f 137/236/254 125/219/253 123/217/255 134/237/256
f 132/231/245 134/237/256 123/217/255 119/213/246
s 40
f 136/238/257 131/227/241 135/239/258
f 136/238/257 137/240/259 131/227/241
f 131/227/241 137/240/259 134/230/244
f 135/239/258 131/227/241 133/229/243
s 42
f 138/241/260 120/242/261 124/243/262 139/244/263
f 138/241/260 140/245/264 121/246/265 120/242/261
f 140/245/264 141/247/266 130/248/267 121/246/265
f 127/249/268 130/250/267 141/251/266 142/252/269
f 142/252/269 143/253/270 126/254/271 127/249/268
f 143/253/270 139/244/263 124/243/262 126/254/271
s 43
f 144/255/272 145/256/273 146/257/274
f 144/255/272 147/258/275 145/256/273
s 44
f 145/259/276 138/241/277 139/244/278 146/260/279
f 146/260/279 139/244/278 143/253/280 148/261/281
f 149/262/282 148/261/281 143/253/280 142/252/283
f 141/251/284 150/263/285 149/262/282 142/252/283
f 150/264/285 141/247/284 140/245/286 147/265/287
f 145/259/276 147/265/287 140/245/286 138/241/277
s 43
f 149/266/288 144/255/272 148/267/289
f 149/266/288 150/268/290 144/255/272
f 144/255/272 150/268/290 147/258/275
f 148/267/289 144/255/272 146/257/274
s 45
f 166/269/291 167/270/292 151/271/293 158/272/294
s 46
f 152/273/295 155/274/296 158/275/297 151/276/298
s 47
f 155/277/299 152/278/300 168/279/301 163/280/302
s 48
f 168/281/303 152/282/304 151/283/305 167/284/306
s 49
f 156/285/307 154/286/308 153/287/309 157/288/310
s 45
f 166/289/291 158/290/294 159/291/311 165/292/312
s 46
f 160/293/313 159/294/314 158/295/297 155/296/296
s 47
f 155/297/299 163/298/302 164/299/315 160/300/316
s 50
f 164/301/317 165/302/318 159/303/319 160/304/320
s 49
f 156/305/307 157/306/310 161/307/321 162/308/322
s 47
f 163/309/302 156/310/323 162/311/324 164/312/315
s 50
f 162/313/325 161/314/326 165/315/318 164/316/317
s 45
f 166/317/291 165/318/312 161/319/327 157/320/328
f 167/321/292 166/322/291 157/323/328 153/324/329
s 48
f 154/325/330 168/326/303 167/327/306 153/328/331
s 47
f 163/329/302 168/330/301 154/331/332 156/332/323
s off
f 171/333/333 169/334/334 170/335/335 172/336/336
f 175/337/337 173/338/338 174/339/339 176/340/340
f 176/340/341 170/341/342 169/342/343 175/337/344
f 172/336/345 174/343/346 173/344/347 171/333/348
f 177/345/349 178/346/350 179/347/351 180/348/352
f 181/349/353 177/350/354 180/351/355 182/352/356
f 182/353/357 183/354/358 184/355/359 181/356/360
f 178/346/361 184/357/362 183/358/363 179/347/364
f 190/359/365 189/360/366 186/361/367 185/362/368
f 191/363/369 190/364/370 185/365/371 187/366/372
f 187/367/373 188/368/374 192/369/375 191/370/376
f 189/360/377 192/371/378 188/372/379 186/361/380
f 181/373/381 184/374/382 189/375/383 190/376/384
f 191/377/385 192/378/386 178/379/387 177/380/388
f 184/374/389 178/381/390 192/382/391 189/375/392
f 177/383/393 181/384/394 190/385/395 191/386/396
f 180/387/397 179/388/398 188/389/399 187/390/400
f 185/391/401 186/392/402 183/393/403 182/394/404
f 179/388/405 183/395/406 186/396/407 188/389/408
f 182/397/409 180/398/410 187/399/411 185/400/412
s 71
f 193/401/413 194/402/414 202/403/415 201/404/416
s 72
f 197/405/417 198/406/418 204/407/419 203/408/420
s 73
f 194/402/421 200/409/422 204/410/423 202/403/424
s 74
f 199/411/425 193/412/426 201/413/427 203/414/428
s 71
f 195/415/429 201/404/416 202/403/415 196/416/430
s 73
f 196/416/431 202/403/424 204/410/423 198/417/432
s 74
f 197/418/433 203/414/428 201/413/427 195/419/434
s 72
f 203/408/420 204/407/419 200/420/435 199/421/436
s 75
f 205/422/437 206/423/438 214/424/439 213/425/440
s 76
f 209/426/441 210/427/442 216/428/443 215/429/444
s 77
f 206/423/445 212/430/446 216/431/447 214/424/448
s 78
f 211/432/449 205/433/450 213/434/451 215/435/452
s 75
f 207/436/453 213/425/440 214/424/439 208/437/454
s 77
f 208/437/455 214/424/448 216/431/447 210/438/456
s 78
f 209/439/457 215/435/452 213/434/451 207/440/458
s 76
f 215/429/444 216/428/443 212/441/459 211/442/460
s 79
f 217/443/461 218/444/462 226/445/463 225/446/464
s 80
f 221/447/465 222/448/466 228/449/467 227/450/468
s 81
f 218/444/469 224/451/470 228/452/471 226/445/472
s 82
f 223/453/473 217/454/474 225/455/475 227/456/476
s 79
f 219/457/477 225/446/464 226/445/463 220/458/478
s 81
f 220/458/479 226/445/472 228/452/471 222/459/480
s 82
f 221/460/481 227/456/476 225/455/475 219/461/482
s 80
f 227/450/468 228/449/467 224/462/483 223/463/484
s 83
f 229/464/485 230/465/486 238/466/487 237/467/488
s 84
f 233/468/489 234/469/490 240/470/491 239/471/492
s 85
f 230/465/493 236/472/494 240/473/495 238/466/496
s 86
f 235/474/497 229/475/498 237/476/499 239/477/500
s 83
f 231/478/501 237/467/488 238/466/487 232/479/502
s 85
f 232/479/503 238/466/496 240/473/495 234/480/504
s 86
f 233/481/505 239/477/500 237/476/499 231/482/506
s 84
f 239/471/492 240/470/491 236/483/507 235/484/508
s off
f 241/485/509 242/486/510 245/487/511
f 242/486/512 243/488/513 244/489/514 245/487/515
f 250/490/516 248/491/517 249/492/518
f 247/493/519 243/494/520 242/495/521 249/496/522
f 244/497/523 246/498/524 248/499/525 245/500/526
f 248/491/527 246/501/528 247/502/529 249/492/530
