# This file uses centimeters as units for non-parametric coordinates.

g default
v -118.278938 1.304710 0.902267
v -118.278915 1.341624 0.917557
v -118.278404 1.352801 0.963547
v -118.294388 1.304710 0.924660
v -118.294441 1.325994 0.933220
v -118.294357 1.334341 0.964516
v -118.259621 1.304710 0.923500
v -118.259605 1.326798 0.932404
v -118.259628 1.335455 0.964417
v -118.278915 1.267795 0.917557
v -118.278404 1.256619 0.963547
v -118.294441 1.283425 0.933220
v -118.294357 1.275078 0.964516
v -118.259605 1.282621 0.932404
v -118.259628 1.273964 0.964417
v -118.236763 1.277400 0.937775
v -118.278740 1.294616 0.937775
v -118.320763 1.277400 0.937782
v -118.338142 1.235838 0.937775
v -118.320763 1.194277 0.937775
v -118.278740 1.177061 0.937775
v -118.236763 1.194277 0.937775
v -118.219345 1.235838 0.937775
v -118.223396 1.290610 0.926285
v -118.278740 1.313296 0.926285
v -118.334129 1.290610 0.926285
v -118.357063 1.235839 0.926285
v -118.334129 1.181067 0.926285
v -118.278740 1.158380 0.926285
v -118.223396 1.181067 0.926285
v -118.200462 1.235839 0.926285
v -118.211876 1.301991 0.940727
v -118.278740 1.329394 0.940720
v -118.345650 1.301992 0.940727
v -118.373306 1.235838 0.940720
v -118.345650 1.169684 0.940727
v -118.278740 1.142283 0.940720
v -118.211876 1.169685 0.940727
v -118.184196 1.235838 0.940727
v -118.222496 1.291493 0.959015
v -118.278740 1.314546 0.959023
v -118.335457 1.291931 0.961777
v -118.358925 1.235838 0.961777
v -118.335457 1.179745 0.961777
v -118.278740 1.156510 0.961777
v -118.222054 1.179745 0.961777
v -118.198601 1.235838 0.961777
v -118.278587 1.304710 1.097733
v -118.278580 1.341624 1.082443
v -118.279121 1.352801 1.036453
v -118.263107 1.304710 1.075340
v -118.263084 1.325994 1.066780
v -118.263138 1.334341 1.035484
v -118.297905 1.304710 1.076500
v -118.297920 1.326798 1.067596
v -118.297867 1.335455 1.035583
v -118.278580 1.267795 1.082443
v -118.279121 1.256619 1.036453
v -118.263084 1.283425 1.066780
v -118.263138 1.275078 1.035484
v -118.297920 1.282621 1.067596
v -118.297867 1.273964 1.035583
v -118.320763 1.277400 1.062225
v -118.278786 1.294616 1.062225
v -118.236763 1.277400 1.062218
v -118.219383 1.235838 1.062225
v -118.236763 1.194277 1.062225
v -118.278786 1.177061 1.062225
v -118.320763 1.194277 1.062225
v -118.338150 1.235838 1.062225
v -118.334129 1.290610 1.073715
v -118.278786 1.313296 1.073715
v -118.223396 1.290610 1.073715
v -118.200462 1.235839 1.073715
v -118.223396 1.181067 1.073715
v -118.278786 1.158380 1.073715
v -118.334129 1.181067 1.073715
v -118.357063 1.235839 1.073715
v -118.345650 1.301991 1.059273
v -118.278786 1.329394 1.059280
v -118.211876 1.301992 1.059273
v -118.184189 1.235838 1.059280
v -118.211876 1.169684 1.059273
v -118.278786 1.142283 1.059280
v -118.345650 1.169685 1.059273
v -118.373329 1.235838 1.059273
v -118.335030 1.291493 1.040985
v -118.278786 1.314546 1.040977
v -118.222069 1.291931 1.038223
v -118.198601 1.235838 1.038223
v -118.222069 1.179745 1.038223
v -118.278786 1.156510 1.038223
v -118.335472 1.179745 1.038223
v -118.358925 1.235838 1.038223
v -117.191185 1.157575 1.051254
v -117.171242 1.157532 1.062569
v -117.151230 1.157577 1.051254
v -117.171242 1.157575 1.014511
v -117.191185 1.357378 1.051254
v -117.171242 1.357423 1.062569
v -117.151230 1.357380 1.051254
v -117.171242 1.357379 1.014511
v -117.191185 2.022345 1.051254
v -117.171242 2.022302 1.062569
v -117.151230 2.022349 1.051254
v -117.171234 2.022345 1.014511
v -117.191124 2.222148 1.051254
v -117.171242 2.222195 1.062569
v -117.151230 2.222151 1.051254
v -117.171234 2.222150 1.014511
v -117.191185 0.234398 1.051254
v -117.171242 0.234355 1.062569
v -117.153358 0.235940 1.050652
v -117.171242 0.235871 1.016754
v -117.189056 0.432662 1.050652
v -117.171242 0.432617 1.060440
v -117.153358 0.432663 1.050652
v -117.171242 0.432730 1.016754
v -117.279480 1.135184 1.018822
v -117.279480 -0.003856 1.018822
v -117.431480 1.135184 1.018822
v -117.431480 -0.003856 1.018822
v -117.431480 1.135184 0.981277
v -117.431480 -0.003856 0.981277
v -117.279480 1.135184 0.981277
v -117.279480 -0.003856 0.981277
v -117.439423 1.135184 1.000198
v -117.439423 -0.003856 1.000198
v -117.271492 1.135184 0.999458
v -117.271492 -0.003856 0.999458
v -117.446136 1.135184 1.018822
v -117.446136 -0.003856 1.018822
v -117.598083 1.135184 1.018822
v -117.598083 -0.003856 1.018822
v -117.598083 1.135184 0.981277
v -117.598083 -0.003856 0.981277
v -117.446136 1.135184 0.981277
v -117.446136 -0.003856 0.981277
v -117.606049 1.135184 1.000198
v -117.606049 -0.003856 1.000198
v -117.438118 1.135184 0.999458
v -117.438118 -0.003856 0.999458
v -117.612770 1.135184 1.018822
v -117.612770 -0.003856 1.018822
v -117.764717 1.135184 1.018822
v -117.764717 -0.003856 1.018822
v -117.764717 1.135184 0.981277
v -117.764717 -0.003856 0.981277
v -117.612770 1.135184 0.981277
v -117.612770 -0.003856 0.981277
v -117.772682 1.135184 1.000198
v -117.772682 -0.003856 1.000198
v -117.604774 1.135184 0.999458
v -117.604774 -0.003856 0.999458
v -117.779396 1.135184 1.018822
v -117.779396 -0.003856 1.018822
v -117.931343 1.135184 1.018822
v -117.931343 -0.003856 1.018822
v -117.931343 1.135184 0.981277
v -117.931343 -0.003856 0.981277
v -117.779396 1.135184 0.981277
v -117.779396 -0.003856 0.981277
v -117.939339 1.135184 1.000198
v -117.939339 -0.003856 1.000198
v -117.771431 1.135184 0.999458
v -117.771431 -0.003856 0.999458
v -117.946007 1.135184 1.018822
v -117.946007 -0.003856 1.018822
v -118.097946 1.135184 1.018822
v -118.097946 -0.003856 1.018822
v -118.097946 1.135184 0.981277
v -118.097946 -0.003856 0.981277
v -117.946007 1.135184 0.981277
v -117.946007 -0.003856 0.981277
v -118.105988 1.135184 1.000198
v -118.105988 -0.003856 1.000198
v -117.938057 1.135184 0.999458
v -117.938057 -0.003856 0.999458
v -118.112656 1.135184 1.018822
v -118.112656 -0.003856 1.018822
v -118.264603 1.135184 1.018822
v -118.264603 -0.003856 1.018822
v -118.264603 1.135184 0.981277
v -118.264603 -0.003856 0.981277
v -118.112656 1.135184 0.981277
v -118.112656 -0.003856 0.981277
v -118.273903 1.135184 1.000198
v -118.273903 -0.003856 1.000198
v -118.104668 1.135184 0.999458
v -118.104668 -0.003856 0.999458
v -117.279480 2.420993 1.018822
v -117.279480 1.383441 1.018822
v -117.431480 2.420993 1.018822
v -117.431480 1.383441 1.018822
v -117.431480 2.420993 0.981277
v -117.431480 1.383441 0.981277
v -117.279480 2.420993 0.981277
v -117.279480 1.383441 0.981277
v -117.439423 2.420993 1.000198
v -117.439423 1.383441 1.000198
v -117.271492 2.420993 0.999458
v -117.271492 1.383441 0.999458
v -117.446136 2.420993 1.018822
v -117.446136 1.383441 1.018822
v -117.598083 2.420993 1.018822
v -117.598083 1.383441 1.018822
v -117.598083 2.420993 0.981277
v -117.598083 1.383441 0.981277
v -117.446136 2.420993 0.981277
v -117.446136 1.383441 0.981277
v -117.606049 2.420993 1.000198
v -117.606049 1.383441 1.000198
v -117.438118 2.420993 0.999458
v -117.438118 1.383441 0.999458
v -117.612770 2.420993 1.018822
v -117.612770 1.383441 1.018822
v -117.764717 2.420993 1.018822
v -117.764717 1.383441 1.018822
v -117.764717 2.420993 0.981277
v -117.764717 1.383441 0.981277
v -117.612770 2.420993 0.981277
v -117.612770 1.383441 0.981277
v -117.772682 2.420993 1.000198
v -117.772682 1.383441 1.000198
v -117.604774 2.420993 0.999458
v -117.604774 1.383441 0.999458
v -117.779396 2.420993 1.018822
v -117.779396 1.383441 1.018822
v -117.931343 2.420993 1.018822
v -117.931343 1.383441 1.018822
v -117.931343 2.420993 0.981277
v -117.931343 1.383441 0.981277
v -117.779396 2.420993 0.981277
v -117.779396 1.383441 0.981277
v -117.939339 2.420993 1.000198
v -117.939339 1.383441 1.000198
v -117.771431 2.420993 0.999458
v -117.771431 1.383441 0.999458
v -117.946007 2.420993 1.018822
v -117.946007 1.383441 1.018822
v -118.097946 2.420993 1.018822
v -118.097946 1.383441 1.018822
v -118.097946 2.420993 0.981277
v -118.097946 1.383441 0.981277
v -117.946007 2.420993 0.981277
v -117.946007 1.383441 0.981277
v -118.105988 2.420993 1.000198
v -118.105988 1.383441 1.000198
v -117.938057 2.420993 0.999458
v -117.938057 1.383441 0.999458
v -118.112656 2.420993 1.018822
v -118.112656 1.383441 1.018822
v -118.264603 2.420993 1.018822
v -118.264603 1.383441 1.018822
v -118.264603 2.420993 0.981277
v -118.264603 1.383441 0.981277
v -118.112656 2.420993 0.981277
v -118.112656 1.383441 0.981277
v -118.273903 2.420993 1.000198
v -118.273903 1.383441 1.000198
v -118.104668 2.420993 0.999458
v -118.104668 1.383441 0.999458
v -118.273048 2.369596 0.961555
v -118.273048 2.484997 0.961555
v -118.273048 2.484997 1.038544
v -118.273048 2.369596 1.038544
v -118.273071 -0.038677 0.961555
v -118.375732 -0.038860 0.961555
v -118.375732 2.485601 0.961555
v -118.375732 -0.038860 1.038544
v -118.375732 2.485601 1.038544
v -118.273071 -0.038677 1.038544
v -118.273201 1.422007 0.961555
v -118.375732 1.424020 0.961555
v -118.375732 1.424020 1.038544
v -118.273201 1.422007 1.038544
v -118.273201 1.081982 0.961555
v -118.375732 1.079983 0.961555
v -118.375732 1.079983 1.038544
v -118.273201 1.081982 1.038544
v -118.273071 0.076703 0.961555
v -118.375732 0.076547 0.961555
v -118.375732 0.076547 1.038544
v -118.273071 0.076703 1.038544
v -118.375732 2.370108 0.961555
v -118.375732 2.370108 1.038544
v -117.273994 2.369767 1.038544
v -117.273994 2.485198 1.038544
v -117.273994 2.485198 0.961555
v -117.273994 2.369767 0.961555
v -117.273994 -0.038738 1.038544
v -117.171211 -0.038860 1.038544
v -117.171211 2.485601 1.038544
v -117.171211 -0.038860 0.961555
v -117.171211 2.485601 0.961555
v -117.273994 -0.038738 0.961555
v -117.273743 1.422678 1.038544
v -117.171211 1.424020 1.038544
v -117.171211 1.424020 0.961555
v -117.273743 1.422678 0.961555
v -117.273743 1.081316 1.038544
v -117.171211 1.079983 1.038544
v -117.171211 1.079983 0.961555
v -117.273743 1.081316 0.961555
v -117.273994 0.076651 1.038544
v -117.171211 0.076547 1.038544
v -117.171211 0.076547 0.961555
v -117.273994 0.076651 0.961555
v -117.171211 2.370108 1.038544
v -117.171211 2.370108 0.961555
v -117.262482 2.491834 0.999107
v -117.157310 2.492239 0.999107
v -117.157310 2.376139 0.999107
v -117.157310 1.425075 0.999107
v -117.157310 1.079229 0.999107
v -117.157310 0.070517 0.999107
v -117.157310 -0.045498 0.999107
v -117.262482 -0.045375 0.999107
v -118.284584 -0.045313 0.999107
v -118.389633 -0.045498 0.999107
v -118.389633 0.070517 0.999107
v -118.389633 1.079229 0.999107
v -118.389633 1.425075 0.999107
v -118.389633 2.376139 0.999107
v -118.389633 2.492239 0.999107
v -118.284554 2.491631 0.999107
vt 0.527195 0.305914
vt 0.527195 0.318550
vt 0.523535 0.318550
vt 0.523535 0.305914
vt 0.527195 0.293277
vt 0.523535 0.293277
vt 0.530869 0.318550
vt 0.530869 0.305914
vt 0.530869 0.293277
vt 0.527195 0.318550
vt 0.527195 0.305914
vt 0.527195 0.293277
vt 0.527195 0.305914
vt 0.523535 0.305914
vt 0.523535 0.318550
vt 0.527195 0.318550
vt 0.527195 0.293277
vt 0.523535 0.293277
vt 0.530869 0.305914
vt 0.530869 0.318550
vt 0.530869 0.293277
vt 0.527195 0.305914
vt 0.527195 0.318550
vt 0.527195 0.293277
vt 0.487617 0.323567
vt 0.487617 0.318266
vt 0.475797 0.318266
vt 0.475797 0.323567
vt 0.499438 0.323567
vt 0.499438 0.318266
vt 0.511258 0.323567
vt 0.511258 0.318266
vt 0.523079 0.323567
vt 0.523079 0.318266
vt 0.534899 0.323567
vt 0.534899 0.318266
vt 0.546720 0.323567
vt 0.546720 0.318266
vt 0.558540 0.323567
vt 0.558540 0.318266
vt 0.570360 0.323567
vt 0.570360 0.318266
vt 0.487617 0.312965
vt 0.475797 0.312965
vt 0.499438 0.312965
vt 0.511258 0.312965
vt 0.523079 0.312965
vt 0.534899 0.312965
vt 0.546720 0.312965
vt 0.558540 0.312965
vt 0.570360 0.312965
vt 0.487617 0.302363
vt 0.475797 0.302363
vt 0.499438 0.302363
vt 0.511258 0.302363
vt 0.523079 0.302363
vt 0.534899 0.302363
vt 0.546720 0.302363
vt 0.558540 0.302363
vt 0.570360 0.302363
vt 0.487617 0.297063
vt 0.475797 0.297063
vt 0.499438 0.297063
vt 0.511258 0.297063
vt 0.523079 0.297063
vt 0.534899 0.297063
vt 0.546720 0.297063
vt 0.558540 0.297063
vt 0.570360 0.297063
vt 0.527195 0.305914
vt 0.523535 0.305914
vt 0.523535 0.318550
vt 0.527195 0.318550
vt 0.527195 0.293277
vt 0.523535 0.293277
vt 0.530869 0.305914
vt 0.530869 0.318550
vt 0.530869 0.293277
vt 0.527195 0.305914
vt 0.527195 0.318550
vt 0.527195 0.293277
vt 0.527195 0.305914
vt 0.527195 0.318550
vt 0.523535 0.318550
vt 0.523535 0.305914
vt 0.527195 0.293277
vt 0.523535 0.293277
vt 0.530869 0.318550
vt 0.530869 0.305914
vt 0.530869 0.293277
vt 0.527195 0.318550
vt 0.527195 0.305914
vt 0.527195 0.293277
vt 0.487617 0.323567
vt 0.475797 0.323567
vt 0.475797 0.318266
vt 0.487617 0.318266
vt 0.499438 0.323567
vt 0.499438 0.318266
vt 0.511258 0.323567
vt 0.511258 0.318266
vt 0.523079 0.323567
vt 0.523079 0.318266
vt 0.534899 0.323567
vt 0.534899 0.318266
vt 0.546720 0.323567
vt 0.546720 0.318266
vt 0.558540 0.323567
vt 0.558540 0.318266
vt 0.570360 0.323567
vt 0.570360 0.318266
vt 0.475797 0.312965
vt 0.487617 0.312965
vt 0.499438 0.312965
vt 0.511258 0.312965
vt 0.523079 0.312965
vt 0.534899 0.312965
vt 0.546720 0.312965
vt 0.558540 0.312965
vt 0.570360 0.312965
vt 0.475797 0.302363
vt 0.487617 0.302363
vt 0.499438 0.302363
vt 0.511258 0.302363
vt 0.523079 0.302363
vt 0.534899 0.302363
vt 0.546720 0.302363
vt 0.558540 0.302363
vt 0.570360 0.302363
vt 0.475797 0.297063
vt 0.487617 0.297063
vt 0.499438 0.297063
vt 0.511258 0.297063
vt 0.523079 0.297063
vt 0.534899 0.297063
vt 0.546720 0.297063
vt 0.558540 0.297063
vt 0.570360 0.297063
vt 0.487309 0.294383
vt 0.493123 0.294383
vt 0.493123 0.328792
vt 0.487309 0.328792
vt 0.498937 0.294383
vt 0.498937 0.328792
vt 0.510565 0.294383
vt 0.510565 0.328792
vt 0.550243 0.316505
vt 0.546147 0.307981
vt 0.550243 0.299457
vt 0.562534 0.307981
vt 0.562534 0.307582
vt 0.550243 0.316107
vt 0.546147 0.307582
vt 0.550243 0.299058
vt 0.487309 0.294383
vt 0.493123 0.294383
vt 0.493123 0.328792
vt 0.487309 0.328792
vt 0.498937 0.294383
vt 0.498937 0.328792
vt 0.510565 0.294383
vt 0.510565 0.328792
vt 0.550243 0.316505
vt 0.546147 0.307981
vt 0.550243 0.299457
vt 0.562534 0.307981
vt 0.562534 0.307582
vt 0.550243 0.316107
vt 0.546147 0.307582
vt 0.550243 0.299058
vt 0.487309 0.294383
vt 0.493123 0.294383
vt 0.493123 0.328792
vt 0.487309 0.328792
vt 0.498937 0.294383
vt 0.498937 0.328792
vt 0.510565 0.294383
vt 0.510565 0.328792
vt 0.550243 0.316505
vt 0.546147 0.307981
vt 0.550243 0.299457
vt 0.562534 0.307981
vt 0.562534 0.307582
vt 0.550243 0.316107
vt 0.546147 0.307582
vt 0.550243 0.299058
vt 0.780557 0.816187
vt 0.780609 0.786533
vt 0.964073 0.786528
vt 0.964125 0.816188
vt 0.780614 0.783529
vt 0.780619 0.780479
vt 0.964063 0.780476
vt 0.964068 0.783525
vt 0.780619 0.780479
vt 0.780586 0.750853
vt 0.964094 0.750848
vt 0.964063 0.780476
vt 0.778743 0.819313
vt 0.778760 0.816187
vt 0.965810 0.816188
vt 0.965827 0.819314
vt 0.780609 0.786533
vt 0.780614 0.783529
vt 0.964068 0.783525
vt 0.964073 0.786528
vt 0.778727 0.822247
vt 0.778743 0.819313
vt 0.965827 0.819314
vt 0.965843 0.822247
vt 0.758894 0.816187
vt 0.758946 0.786533
vt 0.942410 0.786528
vt 0.942462 0.816188
vt 0.758951 0.783529
vt 0.758956 0.780479
vt 0.942399 0.780476
vt 0.942405 0.783525
vt 0.758956 0.780479
vt 0.758923 0.750853
vt 0.942431 0.750848
vt 0.942399 0.780476
vt 0.756669 0.819313
vt 0.756685 0.816187
vt 0.943735 0.816188
vt 0.943753 0.819314
vt 0.758946 0.786533
vt 0.758951 0.783529
vt 0.942405 0.783525
vt 0.942410 0.786528
vt 0.756652 0.822247
vt 0.756669 0.819313
vt 0.943753 0.819314
vt 0.943769 0.822247
vt 0.964126 0.816187
vt 0.964074 0.786533
vt 0.780610 0.786528
vt 0.780558 0.816188
vt 0.964069 0.783529
vt 0.964064 0.780479
vt 0.780621 0.780476
vt 0.780615 0.783525
vt 0.964097 0.750853
vt 0.780589 0.750848
vt 0.964142 0.819313
vt 0.780541 0.819314
vt 0.964158 0.822247
vt 0.780525 0.822247
vt 0.942463 0.816187
vt 0.942411 0.786533
vt 0.758947 0.786528
vt 0.758895 0.816188
vt 0.942406 0.783529
vt 0.942401 0.780479
vt 0.758957 0.780476
vt 0.758952 0.783525
vt 0.942434 0.750853
vt 0.758925 0.750848
vt 0.942479 0.819313
vt 0.758878 0.819314
vt 0.942495 0.822247
vt 0.758862 0.822247
vt 0.780557 0.816187
vt 0.780609 0.786533
vt 0.964073 0.786528
vt 0.964125 0.816188
vt 0.780614 0.783529
vt 0.780619 0.780479
vt 0.964063 0.780476
vt 0.964068 0.783525
vt 0.780619 0.780479
vt 0.780586 0.750853
vt 0.964094 0.750848
vt 0.964063 0.780476
vt 0.778743 0.819313
vt 0.778760 0.816187
vt 0.965810 0.816188
vt 0.965827 0.819314
vt 0.780609 0.786533
vt 0.780614 0.783529
vt 0.964068 0.783525
vt 0.964073 0.786528
vt 0.778727 0.822247
vt 0.778743 0.819313
vt 0.965827 0.819314
vt 0.965843 0.822247
vt 0.758894 0.816187
vt 0.758946 0.786533
vt 0.942410 0.786528
vt 0.942462 0.816188
vt 0.758951 0.783529
vt 0.758956 0.780479
vt 0.942399 0.780476
vt 0.942405 0.783525
vt 0.758956 0.780479
vt 0.758923 0.750853
vt 0.942431 0.750848
vt 0.942399 0.780476
vt 0.756669 0.819313
vt 0.756685 0.816187
vt 0.943735 0.816188
vt 0.943753 0.819314
vt 0.758946 0.786533
vt 0.758951 0.783529
vt 0.942405 0.783525
vt 0.942410 0.786528
vt 0.756652 0.822247
vt 0.756669 0.819313
vt 0.943753 0.819314
vt 0.943769 0.822247
vt 0.752900 0.816187
vt 0.752941 0.786533
vt 0.899771 0.786528
vt 0.899813 0.816188
vt 0.752945 0.783529
vt 0.752950 0.780479
vt 0.899762 0.780476
vt 0.899767 0.783525
vt 0.752950 0.780479
vt 0.752923 0.750853
vt 0.899788 0.750848
vt 0.899762 0.780476
vt 0.750564 0.819313
vt 0.750578 0.816187
vt 0.900277 0.816188
vt 0.900291 0.819314
vt 0.752941 0.786533
vt 0.752945 0.783529
vt 0.899767 0.783525
vt 0.899771 0.786528
vt 0.750551 0.822247
vt 0.750564 0.819313
vt 0.900291 0.819314
vt 0.900304 0.822247
vt 0.850842 0.816187
vt 0.850883 0.786533
vt 0.997713 0.786528
vt 0.997755 0.816188
vt 0.850887 0.783529
vt 0.850892 0.780479
vt 0.997705 0.780476
vt 0.997709 0.783525
vt 0.850892 0.780479
vt 0.850865 0.750853
vt 0.997730 0.750848
vt 0.997705 0.780476
vt 0.850364 0.819313
vt 0.850378 0.816187
vt 1.000077 0.816188
vt 1.000091 0.819314
vt 0.850883 0.786533
vt 0.850887 0.783529
vt 0.997709 0.783525
vt 0.997713 0.786528
vt 0.850351 0.822247
vt 0.850364 0.819313
vt 1.000091 0.819314
vt 1.000104 0.822247
vt 0.899813 0.816187
vt 0.899772 0.786533
vt 0.752942 0.786528
vt 0.752900 0.816188
vt 0.899768 0.783529
vt 0.899764 0.780479
vt 0.752951 0.780476
vt 0.752946 0.783525
vt 0.899790 0.750853
vt 0.752925 0.750848
vt 0.899826 0.819313
vt 0.752887 0.819314
vt 0.899839 0.822247
vt 0.752874 0.822247
vt 0.997755 0.816187
vt 0.997714 0.786533
vt 0.850884 0.786528
vt 0.850842 0.816188
vt 0.997710 0.783529
vt 0.997706 0.780479
vt 0.850893 0.780476
vt 0.850888 0.783525
vt 0.997732 0.750853
vt 0.850867 0.750848
vt 0.997768 0.819313
vt 0.850829 0.819314
vt 0.997781 0.822247
vt 0.850816 0.822247
vt 0.752900 0.816187
vt 0.752941 0.786533
vt 0.899771 0.786528
vt 0.899813 0.816188
vt 0.752945 0.783529
vt 0.752950 0.780479
vt 0.899762 0.780476
vt 0.899767 0.783525
vt 0.752950 0.780479
vt 0.752923 0.750853
vt 0.899788 0.750848
vt 0.899762 0.780476
vt 0.750564 0.819313
vt 0.750578 0.816187
vt 0.900277 0.816188
vt 0.900291 0.819314
vt 0.752941 0.786533
vt 0.752945 0.783529
vt 0.899767 0.783525
vt 0.899771 0.786528
vt 0.750551 0.822247
vt 0.750564 0.819313
vt 0.900291 0.819314
vt 0.900304 0.822247
vt 0.850842 0.816187
vt 0.850883 0.786533
vt 0.997713 0.786528
vt 0.997755 0.816188
vt 0.850887 0.783529
vt 0.850892 0.780479
vt 0.997705 0.780476
vt 0.997709 0.783525
vt 0.850892 0.780479
vt 0.850865 0.750853
vt 0.997730 0.750848
vt 0.997705 0.780476
vt 0.850364 0.819313
vt 0.850378 0.816187
vt 1.000077 0.816188
vt 1.000091 0.819314
vt 0.850883 0.786533
vt 0.850887 0.783529
vt 0.997709 0.783525
vt 0.997713 0.786528
vt 0.850351 0.822247
vt 0.850364 0.819313
vt 1.000091 0.819314
vt 1.000104 0.822247
vt 0.753565 0.966079
vt 0.753565 0.984907
vt 0.772233 0.984907
vt 0.772233 0.966079
vt 0.753565 0.991559
vt 0.753565 0.998546
vt 0.772233 0.998546
vt 0.772233 0.991559
vt 0.753565 0.933613
vt 0.753565 0.952483
vt 0.772233 0.952483
vt 0.772233 0.933613
vt 0.788905 0.952483
vt 0.788905 0.933639
vt 0.804899 0.933613
vt 0.804899 0.952483
vt 0.770303 0.933572
vt 0.770303 0.952483
vt 0.997030 0.966079
vt 0.997030 0.984907
vt 0.824692 0.984907
vt 0.824692 0.966079
vt 0.997030 0.998546
vt 0.824692 0.998546
vt 0.824692 0.991559
vt 0.997030 0.991559
vt 0.997030 0.952483
vt 0.824692 0.952483
vt 0.824692 0.933613
vt 0.997030 0.933613
vt 0.939635 0.966079
vt 0.939635 0.984907
vt 0.939635 0.998546
vt 0.939635 0.991559
vt 0.939635 0.952483
vt 0.939635 0.933613
vt 0.804899 0.984907
vt 0.804899 0.966079
vt 0.804899 0.998546
vt 0.804899 0.991559
vt 0.966617 0.984907
vt 0.966618 0.966079
vt 0.771477 0.966079
vt 0.771476 0.984907
vt 0.966618 0.959115
vt 0.771477 0.959115
vt 0.966618 0.952483
vt 0.966619 0.934778
vt 0.771478 0.934771
vt 0.771477 0.952483
vt 0.966617 0.998546
vt 0.771476 0.998546
vt 0.753565 0.966079
vt 0.753565 0.984907
vt 0.772233 0.984907
vt 0.772233 0.966079
vt 0.753565 0.991894
vt 0.772233 0.991894
vt 0.753565 0.933613
vt 0.753565 0.952483
vt 0.772233 0.952483
vt 0.772233 0.933613
vt 0.773677 0.952483
vt 0.773677 0.933665
vt 0.789671 0.933638
vt 0.789671 0.952483
vt 0.769502 0.952483
vt 0.769502 0.933574
vt 0.786240 0.933534
vt 0.786240 0.952483
vt 0.997030 0.966079
vt 0.997030 0.984907
vt 0.824692 0.984907
vt 0.824692 0.966079
vt 0.997030 0.991894
vt 0.824692 0.991894
vt 0.997030 0.952483
vt 0.824692 0.952483
vt 0.824692 0.933613
vt 0.997030 0.933613
vt 0.939635 0.966079
vt 0.939635 0.984907
vt 0.939635 0.991894
vt 0.939635 0.952483
vt 0.939635 0.933613
vt 0.804899 0.984907
vt 0.804899 0.966079
vt 0.804899 0.991894
vt 0.804899 0.952483
vt 0.804899 0.933613
vt 0.897352 0.924010
vt 0.897352 0.878143
vt 0.762512 0.878142
vt 0.762511 0.924008
vt 0.897353 0.867564
vt 0.762512 0.867562
vt 0.897353 0.821697
vt 0.762512 0.821696
vt 0.897352 0.934589
vt 0.762511 0.934587
vt 0.966617 0.984907
vt 0.966618 0.966079
vt 0.771477 0.966079
vt 0.771476 0.984907
vt 0.966618 0.952483
vt 0.771477 0.952483
vt 0.966619 0.934778
vt 0.771478 0.934771
vt 0.966617 0.991894
vt 0.771476 0.991894
vt 0.824692 0.998546
vt 0.804899 0.998546
vt 0.997030 0.998546
vt 0.939635 0.998546
vt 0.772233 0.998546
vt 0.753565 0.998546
vt 0.966617 0.998546
vt 0.771476 0.998546
vt 0.786240 0.933534
vt 0.786240 0.952483
vt 0.773677 0.952483
vt 0.773677 0.933665
vn -0.071757 0.762832 -0.642603
vn -0.072914 0.000053 -0.997338
vn -0.900752 0.000006 0.434334
vn -0.911342 -0.292636 0.289517
vn -0.060859 0.967845 -0.244076
vn -0.901005 -0.413667 0.130649
vn 0.937161 0.000085 0.348898
vn 0.944810 -0.235089 0.228181
vn 0.936834 -0.335797 0.097893
vn -0.071736 -0.762848 -0.642586
vn -0.911345 0.292585 0.289558
vn -0.060832 -0.967861 -0.244017
vn -0.901035 0.413581 0.130715
vn 0.944798 0.235129 0.228190
vn 0.936851 0.335730 0.097952
vn 0.006837 -0.988460 -0.151330
vn -0.000006 0.084628 -0.996413
vn 0.059588 0.059915 -0.996423
vn -0.700726 -0.697140 -0.151586
vn 0.699145 -0.696163 -0.162951
vn -0.059687 0.060006 -0.996412
vn 0.985564 0.000048 -0.169303
vn -0.084636 0.000006 -0.996412
vn 0.693684 0.700159 -0.169057
vn -0.059721 -0.060041 -0.996408
vn -0.000145 0.985668 -0.168698
vn -0.000004 -0.084668 -0.996409
vn -0.693768 0.700099 -0.168962
vn 0.059580 -0.059910 -0.996424
vn -0.986564 0.006818 -0.163234
vn 0.084409 0.000002 -0.996431
vn 0.001669 0.995332 -0.096499
vn 0.699634 0.707952 -0.096524
vn -0.697581 0.706402 -0.119904
vn -0.991431 0.000002 -0.130633
vn -0.697999 -0.704106 -0.130511
vn 0.000129 -0.991467 -0.130357
vn 0.698051 -0.704053 -0.130515
vn 0.992772 0.001954 -0.120000
vn 0.008749 0.041759 0.999089
vn 0.023140 0.035736 0.999093
vn -0.023233 0.036573 0.999061
vn -0.051361 0.000046 0.998680
vn -0.036188 -0.036340 0.998684
vn 0.000009 -0.051456 0.998675
vn 0.036109 -0.036272 0.998689
vn 0.042031 0.009484 0.999071
vn 0.071789 0.762798 0.642640
vn 0.073127 0.000000 0.997323
vn 0.900728 0.000010 -0.434384
vn 0.911346 -0.292554 -0.289586
vn 0.060750 0.967830 0.244162
vn 0.900992 -0.413672 -0.130725
vn -0.937152 0.000010 -0.348923
vn -0.944856 -0.234930 -0.228156
vn -0.936789 -0.335924 -0.097889
vn 0.071900 -0.762803 0.642621
vn 0.911333 0.292616 -0.289564
vn 0.060939 -0.967824 0.244139
vn 0.900957 0.413754 -0.130705
vn -0.944859 0.234856 -0.228219
vn -0.936826 0.335787 -0.098000
vn -0.006866 -0.988457 0.151347
vn -0.000012 0.084636 0.996412
vn -0.059663 0.059968 0.996416
vn 0.700766 -0.697098 0.151596
vn -0.699184 -0.696126 0.162945
vn 0.059563 0.059986 0.996421
vn -0.985571 0.000035 0.169262
vn 0.084402 -0.000005 0.996432
vn -0.693712 0.700130 0.169061
vn 0.059597 -0.060024 0.996416
vn 0.000136 0.985668 0.168698
vn -0.000013 -0.084668 0.996409
vn 0.693813 0.700055 0.168956
vn -0.059656 -0.059963 0.996416
vn 0.986567 0.006847 0.163211
vn -0.084539 0.000002 0.996420
vn -0.001684 0.995332 0.096498
vn -0.699616 0.707966 0.096544
vn 0.697464 0.706521 0.119885
vn 0.991430 0.000002 0.130637
vn 0.697902 -0.704208 0.130475
vn -0.000131 -0.991470 0.130339
vn -0.698034 -0.704067 0.130532
vn -0.992769 0.001956 0.120021
vn -0.008771 0.041746 -0.999090
vn -0.023181 0.035920 -0.999086
vn 0.023085 0.036644 -0.999062
vn 0.051067 0.000046 -0.998695
vn 0.036057 -0.036371 -0.998688
vn 0.000002 -0.051430 -0.998677
vn -0.036139 -0.036466 -0.998681
vn -0.042084 0.009512 -0.999069
vn -0.961404 0.000000 0.275139
vn -0.000737 0.000000 1.000000
vn -0.000737 0.000000 1.000000
vn -0.961404 0.000000 0.275139
vn 0.961400 0.000000 0.275154
vn 0.961400 0.000000 0.275154
vn -0.000721 0.000000 -1.000000
vn -0.000721 0.000000 -1.000000
vn 0.000042 -1.000000 -0.000894
vn 0.000042 -1.000000 -0.000894
vn 0.000042 -1.000000 -0.000894
vn 0.000042 -1.000000 -0.000894
vn -0.000030 1.000000 -0.000919
vn -0.000030 1.000000 -0.000919
vn -0.000030 1.000000 -0.000919
vn -0.000030 1.000000 -0.000919
vn -0.961429 0.000175 0.275053
vn -0.001067 0.000045 1.000000
vn -0.001067 0.000045 1.000000
vn -0.961429 0.000175 0.275053
vn 0.961378 0.000000 0.275231
vn 0.961378 0.000000 0.275231
vn -0.000882 0.000179 -1.000000
vn -0.000882 0.000179 -1.000000
vn 0.000089 -1.000000 -0.000892
vn 0.000089 -1.000000 -0.000892
vn 0.000089 -1.000000 -0.000892
vn 0.000089 -1.000000 -0.000892
vn -0.000084 1.000000 -0.000937
vn -0.000084 1.000000 -0.000937
vn -0.000084 1.000000 -0.000937
vn -0.000084 1.000000 -0.000937
vn -0.961457 0.008893 0.274811
vn 0.017828 0.007658 0.999812
vn 0.017828 0.007658 0.999812
vn -0.961457 0.008893 0.274811
vn 0.963759 0.003167 0.266755
vn 0.963759 0.003167 0.266755
vn 0.009440 0.004196 -0.999947
vn 0.009440 0.004196 -0.999947
vn 0.040173 -0.998646 -0.033035
vn 0.040173 -0.998646 -0.033035
vn 0.040173 -0.998646 -0.033035
vn 0.040173 -0.998646 -0.033035
vn -0.000042 0.999997 0.002599
vn -0.000042 0.999997 0.002599
vn -0.000042 0.999997 0.002599
vn -0.000042 0.999997 0.002599
vn -0.000001 0.000000 1.000000
vn -0.000001 0.000000 1.000000
vn -0.000001 0.000000 1.000000
vn -0.000001 0.000000 1.000000
vn -0.999996 0.000000 0.002843
vn -0.922062 0.000000 -0.387044
vn -0.922062 0.000000 -0.387044
vn -0.999996 0.000000 0.002843
vn 0.000000 0.000000 -1.000000
vn 0.000000 0.000000 -1.000000
vn 0.000000 0.000000 -1.000000
vn 0.000000 0.000000 -1.000000
vn 0.999936 0.000000 -0.011356
vn 0.924429 0.000000 0.381353
vn 0.924429 0.000000 0.381353
vn 0.999936 0.000000 -0.011356
vn -0.919846 0.000000 0.392280
vn -0.919846 0.000000 0.392280
vn 0.915530 0.000000 -0.402250
vn 0.915530 0.000000 -0.402250
vn -0.000001 0.000000 1.000000
vn -0.000001 0.000000 1.000000
vn -0.000001 0.000000 1.000000
vn -0.000001 0.000000 1.000000
vn -0.999996 0.000000 0.002849
vn -0.921663 0.000000 -0.387991
vn -0.921663 0.000000 -0.387991
vn -0.999996 0.000000 0.002849
vn 0.000000 0.000000 -1.000000
vn 0.000000 0.000000 -1.000000
vn 0.000000 0.000000 -1.000000
vn 0.000000 0.000000 -1.000000
vn 0.999935 0.000000 -0.011386
vn 0.923915 0.000000 0.382597
vn 0.923915 0.000000 0.382597
vn 0.999935 0.000000 -0.011386
vn -0.919438 0.000000 0.393236
vn -0.919438 0.000000 0.393236
vn 0.914964 0.000000 -0.403537
vn 0.914964 0.000000 -0.403537
vn -0.000001 0.000000 1.000000
vn -0.000001 0.000000 1.000000
vn -0.000001 0.000000 1.000000
vn -0.000001 0.000000 1.000000
vn -0.999996 0.000000 0.002849
vn -0.921663 0.000000 -0.387991
vn -0.921663 0.000000 -0.387991
vn -0.999996 0.000000 0.002849
vn 0.000000 0.000000 -1.000000
vn 0.000000 0.000000 -1.000000
vn 0.000000 0.000000 -1.000000
vn 0.000000 0.000000 -1.000000
vn 0.999936 0.000000 -0.011364
vn 0.924301 0.000000 0.381665
vn 0.924301 0.000000 0.381665
vn 0.999936 0.000000 -0.011364
vn -0.919438 0.000000 0.393236
vn -0.919438 0.000000 0.393236
vn 0.915388 0.000000 -0.402572
vn 0.915388 0.000000 -0.402572
vn -0.000001 0.000000 1.000000
vn -0.000001 0.000000 1.000000
vn -0.000001 0.000000 1.000000
vn -0.000001 0.000000 1.000000
vn -0.999996 0.000000 0.002856
vn -0.921131 0.000000 -0.389253
vn -0.921131 0.000000 -0.389253
vn -0.999996 0.000000 0.002856
vn 0.000000 0.000000 -1.000000
vn 0.000000 0.000000 -1.000000
vn 0.000000 0.000000 -1.000000
vn 0.000000 0.000000 -1.000000
vn 0.999936 0.000000 -0.011334
vn 0.924814 0.000000 0.380419
vn 0.924814 0.000000 0.380419
vn 0.999936 0.000000 -0.011334
vn -0.918892 0.000000 0.394509
vn -0.918892 0.000000 0.394509
vn 0.915954 0.000000 -0.401283
vn 0.915954 0.000000 -0.401283
vn -0.000001 0.000000 1.000000
vn -0.000001 0.000000 1.000000
vn -0.000001 0.000000 1.000000
vn -0.000001 0.000000 1.000000
vn -0.999996 0.000000 0.002868
vn -0.920331 0.000000 -0.391141
vn -0.920331 0.000000 -0.391141
vn -0.999996 0.000000 0.002868
vn 0.000000 0.000000 -1.000000
vn 0.000000 0.000000 -1.000000
vn 0.000000 0.000000 -1.000000
vn 0.000000 0.000000 -1.000000
vn 0.999936 0.000000 -0.011319
vn 0.925071 0.000000 0.379795
vn 0.925071 0.000000 0.379795
vn 0.999936 0.000000 -0.011319
vn -0.918072 0.000000 0.396413
vn -0.918072 0.000000 0.396413
vn 0.916237 0.000000 -0.400638
vn 0.916237 0.000000 -0.400638
vn -0.000001 0.000000 1.000000
vn -0.000001 0.000000 1.000000
vn -0.000001 0.000000 1.000000
vn -0.000001 0.000000 1.000000
vn -0.999995 0.000000 0.003152
vn -0.897446 0.000000 -0.441125
vn -0.897446 0.000000 -0.441125
vn -0.999995 0.000000 0.003152
vn 0.000000 0.000000 -1.000000
vn 0.000000 0.000000 -1.000000
vn 0.000000 0.000000 -1.000000
vn 0.000000 0.000000 -1.000000
vn 0.999936 0.000000 -0.011356
vn 0.924429 0.000000 0.381353
vn 0.924429 0.000000 0.381353
vn 0.999936 0.000000 -0.011356
vn -0.894648 0.000000 0.446772
vn -0.894648 0.000000 0.446772
vn 0.915530 0.000000 -0.402250
vn 0.915530 0.000000 -0.402250
vn 0.000000 0.000000 1.000000
vn 0.000000 0.000000 1.000000
vn 0.000000 0.000000 1.000000
vn 0.000000 0.000000 1.000000
vn -0.999996 0.000000 0.002843
vn -0.922062 0.000000 -0.387043
vn -0.922062 0.000000 -0.387043
vn -0.999996 0.000000 0.002843
vn 0.000000 0.000000 -1.000000
vn 0.000000 0.000000 -1.000000
vn 0.000000 0.000000 -1.000000
vn 0.000000 0.000000 -1.000000
vn 0.999936 0.000000 -0.011356
vn 0.924429 0.000000 0.381354
vn 0.924429 0.000000 0.381354
vn 0.999936 0.000000 -0.011356
vn -0.919846 0.000000 0.392280
vn -0.919846 0.000000 0.392280
vn 0.915530 0.000000 -0.402250
vn 0.915530 0.000000 -0.402250
vn 0.000000 0.000000 1.000000
vn 0.000000 0.000000 1.000000
vn 0.000000 0.000000 1.000000
vn 0.000000 0.000000 1.000000
vn -0.999996 0.000000 0.002849
vn -0.921663 0.000000 -0.387991
vn -0.921663 0.000000 -0.387991
vn -0.999996 0.000000 0.002849
vn 0.000000 0.000000 -1.000000
vn 0.000000 0.000000 -1.000000
vn 0.000000 0.000000 -1.000000
vn 0.000000 0.000000 -1.000000
vn 0.999935 0.000000 -0.011386
vn 0.923915 0.000000 0.382598
vn 0.923915 0.000000 0.382598
vn 0.999935 0.000000 -0.011386
vn -0.919437 0.000000 0.393236
vn -0.919437 0.000000 0.393236
vn 0.914964 0.000000 -0.403536
vn 0.914964 0.000000 -0.403536
vn 0.000000 0.000000 1.000000
vn 0.000000 0.000000 1.000000
vn 0.000000 0.000000 1.000000
vn 0.000000 0.000000 1.000000
vn -0.999996 0.000000 0.002849
vn -0.921663 0.000000 -0.387991
vn -0.921663 0.000000 -0.387991
vn -0.999996 0.000000 0.002849
vn 0.000000 0.000000 -1.000000
vn 0.000000 0.000000 -1.000000
vn 0.000000 0.000000 -1.000000
vn 0.000000 0.000000 -1.000000
vn 0.999936 0.000000 -0.011364
vn 0.924301 0.000000 0.381665
vn 0.924301 0.000000 0.381665
vn 0.999936 0.000000 -0.011364
vn -0.919437 0.000000 0.393236
vn -0.919437 0.000000 0.393236
vn 0.915389 0.000000 -0.402571
vn 0.915389 0.000000 -0.402571
vn 0.000000 0.000000 1.000000
vn 0.000000 0.000000 1.000000
vn 0.000000 0.000000 1.000000
vn 0.000000 0.000000 1.000000
vn -0.999996 0.000000 0.002857
vn -0.921131 0.000000 -0.389253
vn -0.921131 0.000000 -0.389253
vn -0.999996 0.000000 0.002857
vn 0.000000 0.000000 -1.000000
vn 0.000000 0.000000 -1.000000
vn 0.000000 0.000000 -1.000000
vn 0.000000 0.000000 -1.000000
vn 0.999936 0.000000 -0.011333
vn 0.924814 0.000000 0.380419
vn 0.924814 0.000000 0.380419
vn 0.999936 0.000000 -0.011333
vn -0.918892 0.000000 0.394509
vn -0.918892 0.000000 0.394509
vn 0.915954 0.000000 -0.401283
vn 0.915954 0.000000 -0.401283
vn 0.000000 0.000000 1.000000
vn 0.000000 0.000000 1.000000
vn 0.000000 0.000000 1.000000
vn 0.000000 0.000000 1.000000
vn -0.999996 0.000000 0.002868
vn -0.920331 0.000000 -0.391141
vn -0.920331 0.000000 -0.391141
vn -0.999996 0.000000 0.002868
vn 0.000000 0.000000 -1.000000
vn 0.000000 0.000000 -1.000000
vn 0.000000 0.000000 -1.000000
vn 0.000000 0.000000 -1.000000
vn 0.999936 0.000000 -0.011318
vn 0.925070 0.000000 0.379796
vn 0.925070 0.000000 0.379796
vn 0.999936 0.000000 -0.011318
vn -0.918072 0.000000 0.396413
vn -0.918072 0.000000 0.396413
vn 0.916237 0.000000 -0.400638
vn 0.916237 0.000000 -0.400638
vn 0.000000 0.000000 1.000000
vn 0.000000 0.000000 1.000000
vn 0.000000 0.000000 1.000000
vn 0.000000 0.000000 1.000000
vn -0.999995 0.000000 0.003152
vn -0.897446 0.000000 -0.441124
vn -0.897446 0.000000 -0.441124
vn -0.999995 0.000000 0.003152
vn 0.000000 0.000000 -1.000000
vn 0.000000 0.000000 -1.000000
vn 0.000000 0.000000 -1.000000
vn 0.000000 0.000000 -1.000000
vn 0.999936 0.000000 -0.011356
vn 0.924429 0.000000 0.381354
vn 0.924429 0.000000 0.381354
vn 0.999936 0.000000 -0.011356
vn -0.894648 0.000000 0.446773
vn -0.894648 0.000000 0.446773
vn 0.915530 0.000000 -0.402250
vn 0.915530 0.000000 -0.402250
vn 0.000000 0.000000 -1.000000
vn 0.000000 0.000000 -1.000000
vn 0.000000 0.000000 -1.000000
vn 0.000000 0.000000 -1.000000
vn -0.999969 0.000000 -0.007823
vn -0.943125 0.000000 0.332438
vn -0.943125 0.000000 0.332439
vn -0.999969 0.000000 -0.007823
vn -0.000001 0.000000 1.000000
vn -0.000001 0.000000 1.000000
vn -0.000000 0.000000 1.000000
vn -0.000000 0.000000 1.000000
vn 0.005836 0.999975 -0.004052
vn 0.005836 0.999975 -0.004052
vn 0.005757 0.986420 0.164139
vn 0.005757 0.986420 0.164139
vn 0.001750 -0.986221 0.165426
vn 0.001750 -0.986221 0.165426
vn 0.001774 -0.999990 -0.004083
vn 0.001774 -0.999990 -0.004083
vn 0.000000 0.000000 -1.000000
vn 0.000000 0.000000 -1.000000
vn 0.000000 0.000000 -1.000000
vn 0.000000 0.000000 -1.000000
vn -0.943125 0.000000 0.332438
vn -0.943125 0.000000 0.332438
vn -0.999969 0.000000 -0.007823
vn -0.999969 0.000000 -0.007823
vn -0.000000 0.000000 1.000000
vn 0.000000 0.000000 1.000000
vn 0.000000 0.000000 1.000000
vn -0.000000 0.000000 1.000000
vn 1.000000 -0.000157 0.000000
vn 1.000000 -0.000157 0.000000
vn 1.000000 -0.000157 0.000000
vn 1.000000 -0.000157 0.000000
vn 0.000000 0.000000 -1.000000
vn 0.000000 0.000000 -1.000000
vn -0.943125 0.000000 0.332438
vn -0.999969 0.000000 -0.007823
vn -0.000000 0.000000 1.000000
vn -0.000000 0.000000 1.000000
vn 1.000000 0.000136 0.000000
vn 1.000000 0.000136 0.000000
vn 1.000000 0.000136 0.000000
vn 1.000000 0.000136 0.000000
vn 0.000000 0.000000 -1.000000
vn 0.000000 0.000000 -1.000000
vn -0.943125 0.000000 0.332438
vn -0.999969 0.000000 -0.007823
vn 0.000000 0.000000 1.000000
vn 0.000000 0.000000 1.000000
vn -0.000000 0.000000 1.000000
vn -0.000000 0.000000 1.000000
vn -0.000000 0.000000 1.000000
vn -0.000000 0.000000 1.000000
vn -0.000198 0.986140 0.165918
vn -0.000200 0.999992 -0.004100
vn -0.000200 0.999992 -0.004100
vn -0.000198 0.986140 0.165918
vn -0.000000 0.000000 -1.000000
vn -0.000000 0.000000 -1.000000
vn -0.000000 0.000000 -1.000000
vn -0.000000 0.000000 -1.000000
vn 0.000171 -1.000000 0.000000
vn 0.000171 -1.000000 0.000000
vn 0.000171 -1.000000 0.000000
vn 0.000171 -1.000000 0.000000
vn 0.000001 0.000000 1.000000
vn 0.000001 0.000000 1.000000
vn -0.000000 0.000000 1.000000
vn -0.000000 0.000000 1.000000
vn 0.943125 0.000000 0.332438
vn 0.999969 0.000000 -0.007823
vn 0.999969 0.000000 -0.007823
vn 0.943125 0.000000 0.332439
vn -0.000001 0.000000 -1.000000
vn -0.000001 0.000000 -1.000000
vn -0.000000 0.000000 -1.000000
vn -0.000000 0.000000 -1.000000
vn -0.003831 0.986326 0.164761
vn -0.003831 0.986326 0.164761
vn -0.003884 0.999984 -0.004073
vn -0.003884 0.999984 -0.004073
vn -0.001181 -0.999991 -0.004093
vn -0.001181 -0.999991 -0.004093
vn -0.001165 -0.986190 0.165615
vn -0.001165 -0.986190 0.165615
vn 0.000000 0.000000 1.000000
vn 0.000000 0.000000 1.000000
vn 0.000000 0.000000 1.000000
vn 0.000000 0.000000 1.000000
vn 0.999969 0.000000 -0.007823
vn 0.999969 0.000000 -0.007823
vn 0.943125 0.000000 0.332438
vn 0.943125 0.000000 0.332438
vn 0.000000 0.000000 -1.000000
vn -0.000000 0.000000 -1.000000
vn -0.000000 0.000000 -1.000000
vn 0.000000 0.000000 -1.000000
vn -1.000000 -0.000262 0.000000
vn -1.000000 -0.000262 0.000000
vn -1.000000 -0.000262 0.000000
vn -1.000000 -0.000262 0.000000
vn -0.000001 0.000000 1.000000
vn -0.000001 0.000000 1.000000
vn 0.999969 0.000000 -0.007823
vn 0.943125 0.000000 0.332438
vn 0.000000 0.000000 -1.000000
vn 0.000000 0.000000 -1.000000
vn -1.000000 0.000247 0.000000
vn -1.000000 0.000247 0.000000
vn -1.000000 0.000247 0.000000
vn -1.000000 0.000247 0.000000
vn 0.000000 0.000000 1.000000
vn 0.000000 0.000000 1.000000
vn 0.999969 0.000000 -0.007823
vn 0.943125 0.000000 0.332438
vn -0.000000 0.000000 -1.000000
vn -0.000000 0.000000 -1.000000
vn 0.000000 0.000000 1.000000
vn 0.000000 0.000000 1.000000
vn 0.000000 0.000000 1.000000
vn 0.000000 0.000000 1.000000
vn -0.000672 1.000000 0.000000
vn -0.000672 1.000000 0.000000
vn -0.000672 1.000000 0.000000
vn -0.000672 1.000000 0.000000
vn -0.000000 0.000000 -1.000000
vn -0.000000 0.000000 -1.000000
vn -0.000000 0.000000 -1.000000
vn -0.000000 0.000000 -1.000000
vn -0.000666 -1.000000 0.000000
vn -0.000666 -1.000000 0.000000
vn -0.000666 -1.000000 0.000000
vn -0.000666 -1.000000 0.000000
vn -0.000000 0.000000 1.000000
vn -0.000000 0.000000 1.000000
vn -0.000000 0.000000 1.000000
vn -0.000000 0.000000 1.000000
vn 0.000052 1.000000 0.000000
vn 0.000052 1.000000 0.000000
vn 0.000052 1.000000 0.000000
vn 0.000052 1.000000 0.000000
vn 0.000000 0.000000 -1.000000
vn 0.000000 0.000000 -1.000000
vn 0.000000 0.000000 -1.000000
vn 0.000000 0.000000 -1.000000
vn -0.000061 -0.999992 -0.004101
vn -0.000060 -0.986132 0.165962
vn -0.000060 -0.986132 0.165962
vn -0.000061 -0.999992 -0.004101
vn -0.003826 0.984951 -0.172790
vn -0.003826 0.984951 -0.172790
vn 0.937809 0.000000 -0.347153
vn 0.937809 0.000000 -0.347153
vn 0.937808 0.000000 -0.347153
vn 0.937809 0.000000 -0.347153
vn 0.937809 0.000000 -0.347153
vn 0.937809 0.000000 -0.347153
vn -0.001163 -0.984801 -0.173683
vn -0.001163 -0.984801 -0.173683
vn -0.000060 -0.984738 -0.174044
vn -0.000060 -0.984738 -0.174044
vn 0.001747 -0.984837 -0.173475
vn 0.001747 -0.984837 -0.173475
vn -0.937809 0.000000 -0.347153
vn -0.937809 0.000000 -0.347153
vn -0.937809 0.000000 -0.347153
vn -0.937809 0.000000 -0.347153
vn -0.937809 0.000000 -0.347153
vn -0.937809 0.000000 -0.347153
vn 0.005749 0.985058 -0.172127
vn 0.005749 0.985058 -0.172127
vn -0.000197 0.984746 -0.173998
vn -0.000197 0.984746 -0.173998
s 1
g polySurface26872
f 2/1/1 1/2/2 4/3/3 5/4/4
f 3/5/5 2/1/1 5/4/4 6/6/6
f 5/4/4 4/3/3 7/7/7 8/8/8
f 9/9/9 6/6/6 5/4/4 8/8/8
f 8/8/8 7/7/7 1/10/2 2/11/1
f 9/9/9 8/8/8 2/11/1 3/12/5
f 10/13/10 12/14/11 4/15/3 1/16/2
f 11/17/12 13/18/13 12/14/11 10/13/10
f 12/14/11 14/19/14 7/20/7 4/15/3
f 15/21/15 14/19/14 12/14/11 13/18/13
f 14/19/14 10/22/10 1/23/2 7/20/7
f 15/21/15 11/24/12 10/22/10 14/19/14
s 2
f 17/25/16 25/26/17 24/27/18 16/28/19
f 18/29/20 26/30/21 25/26/17 17/25/16
f 19/31/22 27/32/23 26/30/21 18/29/20
f 20/33/24 28/34/25 27/32/23 19/31/22
f 21/35/26 29/36/27 28/34/25 20/33/24
f 22/37/28 30/38/29 29/36/27 21/35/26
f 23/39/30 31/40/31 30/38/29 22/37/28
f 16/41/19 24/42/18 31/40/31 23/39/30
f 25/26/17 33/43/32 32/44/33 24/27/18
f 26/30/21 34/45/34 33/43/32 25/26/17
f 27/32/23 35/46/35 34/45/34 26/30/21
f 28/34/25 36/47/36 35/46/35 27/32/23
f 29/36/27 37/48/37 36/47/36 28/34/25
f 30/38/29 38/49/38 37/48/37 29/36/27
f 31/40/31 39/50/39 38/49/38 30/38/29
f 24/42/18 32/51/33 39/50/39 31/40/31
f 33/43/32 41/52/40 40/53/41 32/44/33
f 34/45/34 42/54/42 41/52/40 33/43/32
f 35/46/35 43/55/43 42/54/42 34/45/34
f 36/47/36 44/56/44 43/55/43 35/46/35
f 37/48/37 45/57/45 44/56/44 36/47/36
f 38/49/38 46/58/46 45/57/45 37/48/37
f 39/50/39 47/59/47 46/58/46 38/49/38
f 32/51/33 40/60/41 47/59/47 39/50/39
f 41/52/40 17/61/16 16/62/19 40/53/41
f 42/54/42 18/63/20 17/61/16 41/52/40
f 43/55/43 19/64/22 18/63/20 42/54/42
f 44/56/44 20/65/24 19/64/22 43/55/43
f 45/57/45 21/66/26 20/65/24 44/56/44
f 46/58/46 22/67/28 21/66/26 45/57/45
f 47/59/47 23/68/30 22/67/28 46/58/46
f 40/60/41 16/69/19 23/68/30 47/59/47
s 3
f 49/70/48 48/73/49 51/72/50 52/71/51
f 50/74/52 49/70/48 52/71/51 53/75/53
f 52/71/51 51/72/50 54/77/54 55/76/55
f 56/78/56 53/75/53 52/71/51 55/76/55
f 55/76/55 54/77/54 48/80/49 49/79/48
f 56/78/56 55/76/55 49/79/48 50/81/52
f 57/82/57 59/85/58 51/84/50 48/83/49
f 58/86/59 60/87/60 59/85/58 57/82/57
f 59/85/58 61/89/61 54/88/54 51/84/50
f 62/90/62 61/89/61 59/85/58 60/87/60
f 61/89/61 57/92/57 48/91/49 54/88/54
f 62/90/62 58/93/59 57/92/57 61/89/61
s 4
f 64/94/63 72/97/64 71/96/65 63/95/66
f 65/98/67 73/99/68 72/97/64 64/94/63
f 66/100/69 74/101/70 73/99/68 65/98/67
f 67/102/71 75/103/72 74/101/70 66/100/69
f 68/104/73 76/105/74 75/103/72 67/102/71
f 69/106/75 77/107/76 76/105/74 68/104/73
f 70/108/77 78/109/78 77/107/76 69/106/75
f 63/110/66 71/111/65 78/109/78 70/108/77
f 72/97/64 80/113/79 79/112/80 71/96/65
f 73/99/68 81/114/81 80/113/79 72/97/64
f 74/101/70 82/115/82 81/114/81 73/99/68
f 75/103/72 83/116/83 82/115/82 74/101/70
f 76/105/74 84/117/84 83/116/83 75/103/72
f 77/107/76 85/118/85 84/117/84 76/105/74
f 78/109/78 86/119/86 85/118/85 77/107/76
f 71/111/65 79/120/80 86/119/86 78/109/78
f 80/113/79 88/122/87 87/121/88 79/112/80
f 81/114/81 89/123/89 88/122/87 80/113/79
f 82/115/82 90/124/90 89/123/89 81/114/81
f 83/116/83 91/125/91 90/124/90 82/115/82
f 84/117/84 92/126/92 91/125/91 83/116/83
f 85/118/85 93/127/93 92/126/92 84/117/84
f 86/119/86 94/128/94 93/127/93 85/118/85
f 79/120/80 87/129/88 94/128/94 86/119/86
f 88/122/87 64/131/63 63/130/66 87/121/88
f 89/123/89 65/132/67 64/131/63 88/122/87
f 90/124/90 66/133/69 65/132/67 89/123/89
f 91/125/91 67/134/71 66/133/69 90/124/90
f 92/126/92 68/135/73 67/134/71 91/125/91
f 93/127/93 69/136/75 68/135/73 92/126/92
f 94/128/94 70/137/77 69/136/75 93/127/93
f 87/129/88 63/138/66 70/137/77 94/128/94
s 5
f 95/139/95 96/140/96 100/141/97 99/142/98
f 96/140/96 97/143/99 101/144/100 100/141/97
f 101/144/100 97/143/99 98/145/101 102/146/102
f 102/146/102 98/145/101 95/139/95 99/142/98
s off
f 97/147/103 96/148/104 95/149/105 98/150/106
f 102/151/107 99/152/108 100/153/109 101/154/110
s 8
f 103/155/111 104/156/112 108/157/113 107/158/114
f 104/156/112 105/159/115 109/160/116 108/157/113
f 109/160/116 105/159/115 106/161/117 110/162/118
f 110/162/118 106/161/117 103/155/111 107/158/114
s off
f 105/163/119 104/164/120 103/165/121 106/166/122
f 110/167/123 107/168/124 108/169/125 109/170/126
s 11
f 111/171/127 112/172/128 116/173/129 115/174/130
f 112/172/128 113/175/131 117/176/132 116/173/129
f 117/176/132 113/175/131 114/177/133 118/178/134
f 118/178/134 114/177/133 111/171/127 115/174/130
s off
f 113/179/135 112/180/136 111/181/137 114/182/138
f 118/183/139 115/184/140 116/185/141 117/186/142
f 119/187/143 121/188/144 122/189/145 120/190/146
s 15
f 127/191/147 123/192/148 124/193/149 128/194/150
s off
f 123/195/151 125/196/152 126/197/153 124/198/154
s 17
f 129/199/155 119/200/156 120/201/157 130/202/158
s 15
f 121/203/159 127/204/147 128/205/150 122/206/160
s 17
f 125/207/161 129/208/155 130/209/158 126/210/162
s off
f 131/211/163 133/212/164 134/213/165 132/214/166
s 19
f 139/215/167 135/216/168 136/217/169 140/218/170
s off
f 135/219/171 137/220/172 138/221/173 136/222/174
s 21
f 141/223/175 131/224/176 132/225/177 142/226/178
s 19
f 133/227/179 139/228/167 140/229/170 134/230/180
s 21
f 137/231/181 141/232/175 142/233/178 138/234/182
s off
f 143/235/183 145/236/184 146/237/185 144/238/186
s 23
f 151/239/187 147/240/188 148/241/189 152/242/190
s off
f 147/240/191 149/243/192 150/244/193 148/241/194
s 25
f 153/245/195 143/235/196 144/238/197 154/246/198
s 23
f 145/236/199 151/239/187 152/242/190 146/237/200
s 25
f 149/247/201 153/245/195 154/246/198 150/248/202
s off
f 155/249/203 157/250/204 158/251/205 156/252/206
s 27
f 163/253/207 159/254/208 160/255/209 164/256/210
s off
f 159/254/211 161/257/212 162/258/213 160/255/214
s 29
f 165/259/215 155/249/216 156/252/217 166/260/218
s 27
f 157/250/219 163/253/207 164/256/210 158/251/220
s 29
f 161/261/221 165/259/215 166/260/218 162/262/222
s off
f 167/263/223 169/264/224 170/265/225 168/266/226
s 31
f 175/267/227 171/268/228 172/269/229 176/270/230
s off
f 171/271/231 173/272/232 174/273/233 172/274/234
s 33
f 177/275/235 167/276/236 168/277/237 178/278/238
s 31
f 169/279/239 175/280/227 176/281/230 170/282/240
s 33
f 173/283/241 177/284/235 178/285/238 174/286/242
s off
f 179/287/243 181/288/244 182/289/245 180/290/246
s 35
f 187/291/247 183/292/248 184/293/249 188/294/250
s off
f 183/295/251 185/296/252 186/297/253 184/298/254
s 37
f 189/299/255 179/300/256 180/301/257 190/302/258
s 35
f 181/303/259 187/304/247 188/305/250 182/306/260
s 37
f 185/307/261 189/308/255 190/309/258 186/310/262
s off
f 191/311/263 193/312/264 194/313/265 192/314/266
s 39
f 199/315/267 195/316/268 196/317/269 200/318/270
s off
f 195/319/271 197/320/272 198/321/273 196/322/274
s 41
f 201/323/275 191/324/276 192/325/277 202/326/278
s 39
f 193/327/279 199/328/267 200/329/270 194/330/280
s 41
f 197/331/281 201/332/275 202/333/278 198/334/282
s off
f 203/335/283 205/336/284 206/337/285 204/338/286
s 43
f 211/339/287 207/340/288 208/341/289 212/342/290
s off
f 207/343/291 209/344/292 210/345/293 208/346/294
s 45
f 213/347/295 203/348/296 204/349/297 214/350/298
s 43
f 205/351/299 211/352/287 212/353/290 206/354/300
s 45
f 209/355/301 213/356/295 214/357/298 210/358/302
s off
f 215/359/303 217/360/304 218/361/305 216/362/306
s 47
f 223/363/307 219/364/308 220/365/309 224/366/310
s off
f 219/364/311 221/367/312 222/368/313 220/365/314
s 49
f 225/369/315 215/359/316 216/362/317 226/370/318
s 47
f 217/360/319 223/363/307 224/366/310 218/361/320
s 49
f 221/371/321 225/369/315 226/370/318 222/372/322
s off
f 227/373/323 229/374/324 230/375/325 228/376/326
s 51
f 235/377/327 231/378/328 232/379/329 236/380/330
s off
f 231/378/331 233/381/332 234/382/333 232/379/334
s 53
f 237/383/335 227/373/336 228/376/337 238/384/338
s 51
f 229/374/339 235/377/327 236/380/330 230/375/340
s 53
f 233/385/341 237/383/335 238/384/338 234/386/342
s off
f 239/387/343 241/388/344 242/389/345 240/390/346
s 55
f 247/391/347 243/392/348 244/393/349 248/394/350
s off
f 243/395/351 245/396/352 246/397/353 244/398/354
s 57
f 249/399/355 239/400/356 240/401/357 250/402/358
s 55
f 241/403/359 247/404/347 248/405/350 242/406/360
s 57
f 245/407/361 249/408/355 250/409/358 246/410/362
s off
f 251/411/363 253/412/364 254/413/365 252/414/366
s 59
f 259/415/367 255/416/368 256/417/369 260/418/370
s off
f 255/419/371 257/420/372 258/421/373 256/422/374
s 61
f 261/423/375 251/424/376 252/425/377 262/426/378
s 59
f 253/427/379 259/428/367 260/429/370 254/430/380
s 61
f 257/431/381 261/432/375 262/433/378 258/434/382
s 62
f 267/435/383 268/436/384 282/437/385 281/438/386
s 63
f 320/439/387 270/440/388 283/441/389 321/442/390
s 64
f 270/443/391 272/444/392 284/445/393 283/446/394
s 65
f 326/447/395 325/448/396 271/449/397 265/450/398
s 66
f 272/444/399 270/443/400 320/451/401 319/452/402
s 62
f 273/453/403 274/454/404 285/455/405 263/456/406
s 63
f 275/457/407 286/458/408 324/459/409 323/460/410
s 64
f 276/461/411 266/462/412 286/463/413 275/464/414
s off
f 273/453/415 263/456/416 266/462/417 276/461/418
s 62
f 277/465/419 278/466/420 274/454/404 273/453/403
s 63
f 279/467/421 275/457/407 323/460/410 322/468/422
s 64
f 280/469/423 276/461/411 275/464/414 279/470/424
s 62
f 281/438/386 282/437/385 278/466/420 277/465/419
s 63
f 283/441/389 279/467/421 322/468/422 321/442/390
s 64
f 284/445/393 280/469/423 279/470/424 283/446/394
s off
f 281/438/425 277/465/426 280/469/427 284/445/428
s 62
f 263/456/406 285/455/405 269/471/429 264/472/430
s 63
f 286/458/408 271/473/431 325/474/432 324/459/409
s 64
f 266/462/412 265/450/433 271/449/434 286/463/413
s off
f 287/475/435 288/476/436 265/477/437 266/478/438
s 70
f 288/476/439 311/479/440 326/480/441 265/477/442
s off
f 289/481/443 290/482/444 263/483/445 264/484/446
f 290/485/447 287/475/448 266/478/449 263/486/450
s 73
f 291/487/451 292/488/452 306/489/453 305/490/454
s 74
f 292/488/455 317/491/456 316/492/457 306/489/458
s 75
f 294/493/459 296/494/460 308/495/461 307/496/462
s 76
f 288/497/463 293/498/464 312/499/465 311/500/466
s 77
f 318/501/467 317/502/468 292/503/469 291/504/470
s 73
f 297/505/471 298/506/472 309/507/473 287/508/474
s 74
f 314/509/475 313/510/476 309/507/477 298/506/478
s 75
f 300/511/479 290/512/480 310/513/481 299/514/482
s off
f 297/505/483 287/508/484 290/512/485 300/511/486
s 73
f 301/515/487 302/516/488 298/506/472 297/505/471
s 74
f 315/517/489 314/509/475 298/506/478 302/516/490
s 75
f 304/518/491 300/511/479 299/514/482 303/519/492
s 73
f 305/490/454 306/489/453 302/516/488 301/515/487
s 74
f 316/492/457 315/517/489 302/516/490 306/489/458
s 75
f 308/495/461 304/518/491 303/519/492 307/496/462
s off
f 305/490/493 301/515/494 304/518/495 308/495/496
s 73
f 287/508/474 309/507/473 293/520/497 288/521/498
s 74
f 313/510/476 312/522/499 293/520/500 309/507/477
s 75
f 290/512/480 289/523/501 295/524/502 310/513/481
s off
f 301/525/503 297/526/504 276/527/505 280/528/506
f 297/526/507 300/529/508 273/530/509 276/527/510
f 300/529/511 304/531/512 277/532/513 273/530/514
f 304/533/515 301/525/516 280/528/517 277/534/518
f 291/535/519 305/536/520 284/537/521 272/538/522
f 305/536/523 308/539/524 281/540/525 284/537/526
f 308/539/527 296/541/528 267/542/529 281/540/530
s 87
f 318/543/531 291/535/532 272/538/533 319/544/534
s 76
f 311/500/466 312/499/465 295/524/535 289/523/536
s 74
f 310/545/537 295/546/538 312/522/499 313/510/476
f 299/547/539 310/545/537 313/510/476 314/509/475
f 303/548/540 299/547/539 314/509/475 315/517/489
f 307/549/541 303/548/540 315/517/489 316/492/457
f 317/491/456 294/550/542 307/549/541 316/492/457
s 77
f 296/494/543 294/493/544 317/502/468 318/501/467
s 87
f 296/551/545 318/543/531 319/544/534 267/552/546
s 66
f 320/451/401 268/553/547 267/554/548 319/452/402
s 63
f 268/436/549 320/439/387 321/442/390 282/437/550
f 322/468/422 278/466/551 282/437/550 321/442/390
f 323/460/410 274/454/552 278/466/551 322/468/422
f 324/459/409 285/455/553 274/454/552 323/460/410
f 325/474/432 269/471/554 285/455/553 324/459/409
s 65
f 264/555/555 269/556/556 325/448/396 326/447/395
s 70
f 311/479/440 289/481/557 264/484/558 326/480/441
