# This file uses centimeters as units for non-parametric coordinates.

g default
v -270.892761 -0.136045 2.657635
v -258.357849 -0.136045 2.657635
v -270.792725 0.009698 2.530609
v -258.457886 0.009698 2.530609
v -270.792725 0.009698 -0.476494
v -258.457886 0.009698 -0.476494
v -270.892761 -0.136045 -0.603519
v -258.357849 -0.136045 -0.603519
v -270.856018 2.467306 2.512970
v -270.856018 2.467306 -0.474514
v -270.856018 2.676292 -1.641350
v -270.856018 2.844641 -1.664570
v -270.856018 3.076847 -0.329384
v -270.856018 3.430962 0.822788
v -270.856018 3.692194 0.851814
v -270.856018 3.709610 1.176903
v -270.856018 3.442572 1.240757
v -270.856018 3.088458 2.288742
v -270.856018 2.844641 3.664566
v -270.856018 2.676291 3.641346
v -258.370361 2.844641 3.664566
v -258.370361 2.844641 -1.664570
v -258.370361 3.076847 -0.329384
v -258.370361 3.088458 2.288742
v -258.370361 3.430962 0.822788
v -258.370361 3.442572 1.240757
v -258.370361 3.692194 0.851814
v -258.370361 3.709610 1.176903
v -258.370361 2.467306 2.512970
v -258.370361 2.467306 -0.474514
v -258.370361 2.676292 -1.641350
v -258.370361 2.676291 3.641346
v -265.833313 -0.065374 2.509895
v -265.833313 0.820931 2.509895
v -265.833313 0.820931 2.200905
v -265.833313 -0.065374 2.200905
v -270.823975 2.526375 2.509895
v -270.823975 0.820931 2.509895
v -270.823975 -0.065374 2.509895
v -270.823975 -0.065374 2.200905
v -270.823975 0.820931 2.200905
v -270.823975 2.526375 2.200905
v -269.099670 2.526375 2.509895
v -269.099670 0.820931 2.509895
v -269.099670 -0.065374 2.509895
v -269.099670 -0.065374 2.200905
v -269.099670 0.820931 2.200905
v -269.099670 2.526375 2.200905
v -267.569580 2.526375 2.509895
v -267.569580 0.820931 2.509895
v -267.569580 -0.065374 2.509895
v -267.569580 -0.065374 2.200905
v -267.569580 0.820931 2.200905
v -267.569580 2.526375 2.200905
v -265.831543 2.526375 2.509895
v -265.831543 2.526375 2.200905
v -265.833313 -0.065374 -0.200962
v -265.833313 0.820931 -0.200962
v -265.833313 0.820931 -0.509953
v -265.833313 -0.065374 -0.509953
v -270.823975 2.526375 -0.200962
v -270.823975 0.820931 -0.200962
v -270.823975 -0.065374 -0.200962
v -270.823975 -0.065374 -0.509953
v -270.823975 0.820931 -0.509953
v -270.823975 2.526375 -0.509953
v -269.099670 2.526375 -0.200962
v -269.099670 0.820931 -0.200962
v -269.099670 -0.065374 -0.200962
v -269.099670 -0.065374 -0.509953
v -269.099670 0.820931 -0.509953
v -269.099670 2.526375 -0.509953
v -267.569580 2.526375 -0.200962
v -267.569580 0.820931 -0.200962
v -267.569580 -0.065374 -0.200962
v -267.569580 -0.065374 -0.509953
v -267.569580 0.820931 -0.509953
v -267.569580 2.526375 -0.509953
v -265.831543 2.526375 -0.200962
v -265.831543 2.526375 -0.509953
v -258.409485 -0.065374 2.509895
v -258.409485 0.820931 2.509895
v -258.409485 0.820931 2.200905
v -258.409485 -0.065374 2.200905
v -263.400146 2.526375 2.509895
v -263.400146 0.820931 2.509895
v -263.400146 -0.065374 2.509895
v -263.400146 -0.065374 2.200905
v -263.400146 0.820931 2.200905
v -263.400146 2.526375 2.200905
v -261.675842 2.526375 2.509895
v -261.675842 0.820931 2.509895
v -261.675842 -0.065374 2.509895
v -261.675842 -0.065374 2.200905
v -261.675842 0.820931 2.200905
v -261.675842 2.526375 2.200905
v -260.145813 2.526375 2.509895
v -260.145813 0.820931 2.509895
v -260.145813 -0.065374 2.509895
v -260.145813 -0.065374 2.200905
v -260.145813 0.820931 2.200905
v -260.145813 2.526375 2.200905
v -258.407715 2.526375 2.509895
v -258.407715 2.526375 2.200905
v -258.409485 -0.065374 -0.200962
v -258.409485 0.820931 -0.200962
v -258.409485 0.820931 -0.509953
v -258.409485 -0.065374 -0.509953
v -263.400146 2.526375 -0.200962
v -263.400146 0.820931 -0.200962
v -263.400146 -0.065374 -0.200962
v -263.400146 -0.065374 -0.509953
v -263.400146 0.820931 -0.509953
v -263.400146 2.526375 -0.509953
v -261.675842 2.526375 -0.200962
v -261.675842 0.820931 -0.200962
v -261.675842 -0.065374 -0.200962
v -261.675842 -0.065374 -0.509953
v -261.675842 0.820931 -0.509953
v -261.675842 2.526375 -0.509953
v -260.145813 2.526375 -0.200962
v -260.145813 0.820931 -0.200962
v -260.145813 -0.065374 -0.200962
v -260.145813 -0.065374 -0.509953
v -260.145813 0.820931 -0.509953
v -260.145813 2.526375 -0.509953
v -258.407715 2.526375 -0.200962
v -258.407715 2.526375 -0.509953
v -269.042969 0.844402 2.412750
v -269.585205 0.844402 2.955025
v -269.082397 0.844402 2.373322
v -269.624634 0.844402 2.915596
v -269.082397 2.447858 2.373322
v -269.624634 2.447858 2.915596
v -269.042969 2.447858 2.412750
v -269.585205 2.447858 2.955025
v -267.638367 0.844402 -0.326744
v -268.021790 0.844402 -0.990891
v -267.590057 0.844402 -0.354622
v -267.973511 0.844402 -1.018768
v -267.590057 2.447858 -0.354622
v -267.973511 2.447858 -1.018768
v -267.638367 2.447858 -0.326744
v -268.021790 2.447858 -0.990891
v -260.229736 0.844402 -0.398163
v -259.687469 0.844402 -0.940437
v -260.190308 0.844402 -0.358734
v -259.648041 0.844402 -0.901009
v -260.190308 2.447858 -0.358734
v -259.648041 2.447858 -0.901009
v -260.229736 2.447858 -0.398163
v -259.687469 2.447858 -0.940437
v -261.673157 0.832887 2.325958
v -260.173767 0.832887 2.325958
v -261.673157 0.832887 2.381725
v -260.173767 0.832887 2.381725
v -261.673157 2.445388 2.381725
v -260.173767 2.445388 2.381725
v -261.673157 2.445388 2.325958
v -260.173767 2.445388 2.325958
v -266.994263 0.844402 2.814327
v -267.658386 0.844402 2.430885
v -266.966370 0.844402 2.766029
v -267.630524 0.844402 2.382587
v -266.966370 2.447858 2.766029
v -267.630524 2.447858 2.382587
v -266.994263 2.447858 2.814327
v -267.658386 2.447858 2.430885
v -268.514160 0.844402 -0.866890
v -269.056396 0.844402 -0.324623
v -268.553589 0.844402 -0.906319
v -269.095825 0.844402 -0.364052
v -268.553589 2.447858 -0.906319
v -269.095825 2.447858 -0.364052
v -268.514160 2.447858 -0.866890
v -269.056396 2.447858 -0.324623
v -261.982971 0.844402 -1.054024
v -261.599548 0.844402 -0.389877
v -262.031311 0.844402 -1.026146
v -261.647827 0.844402 -0.362000
v -262.031311 2.447858 -1.026146
v -261.647827 2.447858 -0.362000
v -261.982971 2.447858 -1.054024
v -261.599548 2.447858 -0.389877
vt 0.625000 0.500000
vt 0.375000 0.500000
vt 0.375000 0.250000
vt 0.625000 0.250000
vt 0.375000 0.750000
vt 0.625000 0.750000
vt 0.625000 1.000000
vt 0.375000 1.000000
vt 0.375000 0.737907
vt 0.625000 0.737907
vt 0.375000 0.012093
vt 0.125000 0.012093
vt 0.125000 0.000000
vt 0.375000 0.000000
vt 0.625000 0.000000
vt 0.625000 0.012093
vt 0.875000 0.000000
vt 0.875000 0.012093
vt 0.000000 0.070806
vt 1.000000 0.070806
vt 0.749455 0.114379
vt 0.258170 0.116558
vt 0.469499 0.183007
vt 0.547930 0.180828
vt 0.542484 0.229847
vt 0.481481 0.233115
vt 0.216094 0.000000
vt 0.776688 0.000000
vt 0.995643 0.039216
vt 0.004357 0.039216
vt 0.000000 0.070806
vt 0.258170 0.116558
vt 0.749455 0.114379
vt 1.000000 0.070806
vt 0.469499 0.183007
vt 0.481481 0.233115
vt 0.542484 0.229847
vt 0.547930 0.180828
vt 0.216094 0.000000
vt 0.004357 0.039216
vt 0.995643 0.039216
vt 0.776688 0.000000
vt 1.000000 0.070806
vt 0.749455 0.114379
vt 0.258170 0.116558
vt 0.000000 0.070806
vt 0.547930 0.180828
vt 0.542484 0.229847
vt 0.481481 0.233115
vt 0.469499 0.183007
vt 0.216094 0.000000
vt 0.776688 0.000000
vt 0.995643 0.039216
vt 0.004357 0.039216
vt 0.000000 0.684128
vt 1.000000 0.684128
vt 1.000000 0.720863
vt 0.000000 0.720863
vt 0.000000 0.684128
vt 1.000000 0.684128
vt 1.000000 0.720863
vt 0.000000 0.720863
vt 0.000000 0.684128
vt 1.000000 0.684128
vt 1.000000 0.720863
vt 0.000000 0.720863
vt 0.000000 0.684128
vt 1.000000 0.684128
vt 1.000000 0.720863
vt 0.000000 0.720863
vt 0.000000 0.684128
vt 1.000000 0.684128
vt 1.000000 0.720863
vt 0.000000 0.720863
vt 0.000000 0.684128
vt 1.000000 0.684128
vt 1.000000 0.720863
vt 0.000000 0.720863
vt 0.000000 0.511778
vt 1.000000 0.511778
vt 0.000000 0.511778
vt 1.000000 0.511778
vt 0.000000 0.511778
vt 1.000000 0.511778
vt 0.000000 0.330869
vt 1.000000 0.330869
vt 1.000000 0.511778
vt 0.000000 0.511778
vt 0.000000 0.330869
vt 1.000000 0.330869
vt 0.000000 0.330869
vt 1.000000 0.330869
vt 0.000000 0.330869
vt 1.000000 0.330869
vt 0.000000 0.330869
vt 1.000000 0.330869
vt 1.000000 0.511778
vt 0.000000 0.511778
vt 0.000000 0.330869
vt 1.000000 0.330869
vt 1.000000 0.511778
vt 0.000000 0.511778
vt 1.000000 0.720863
vt 0.000000 0.720863
vt 1.000000 0.720863
vt 0.000000 0.720863
vt 1.000000 0.511778
vt 0.000000 0.511778
vt 0.000000 0.684128
vt 1.000000 0.684128
vt 0.000000 0.330869
vt 1.000000 0.330869
vt 0.000000 0.000000
vt 1.000000 0.000000
vt 1.000000 0.348628
vt 0.000000 0.348628
vt 0.000000 0.684128
vt 1.000000 0.684128
vt 1.000000 0.720863
vt 0.000000 0.720863
vt 0.000000 0.684128
vt 1.000000 0.684128
vt 1.000000 0.720863
vt 0.000000 0.720863
vt 0.000000 0.684128
vt 1.000000 0.684128
vt 1.000000 0.720863
vt 0.000000 0.720863
vt 0.000000 0.684128
vt 1.000000 0.684128
vt 1.000000 0.720863
vt 0.000000 0.720863
vt 0.000000 0.684128
vt 1.000000 0.684128
vt 1.000000 0.720863
vt 0.000000 0.720863
vt 0.000000 0.684128
vt 1.000000 0.684128
vt 1.000000 0.720863
vt 0.000000 0.720863
vt 0.000000 0.511778
vt 1.000000 0.511778
vt 0.000000 0.511778
vt 1.000000 0.511778
vt 0.000000 0.511778
vt 1.000000 0.511778
vt 0.000000 0.330869
vt 1.000000 0.330869
vt 1.000000 0.511778
vt 0.000000 0.511778
vt 0.000000 0.330869
vt 1.000000 0.330869
vt 0.000000 0.330869
vt 1.000000 0.330869
vt 0.000000 0.330869
vt 1.000000 0.330869
vt 0.000000 0.330869
vt 1.000000 0.330869
vt 1.000000 0.511778
vt 0.000000 0.511778
vt 0.000000 0.330869
vt 1.000000 0.330869
vt 1.000000 0.511778
vt 0.000000 0.511778
vt 1.000000 0.720863
vt 0.000000 0.720863
vt 1.000000 0.720863
vt 0.000000 0.720863
vt 1.000000 0.511778
vt 0.000000 0.511778
vt 0.000000 0.684128
vt 1.000000 0.684128
vt 0.000000 0.330869
vt 1.000000 0.330869
vt 0.000000 0.000000
vt 1.000000 0.000000
vt 1.000000 0.348628
vt 0.000000 0.348628
vt 0.000000 0.684128
vt 1.000000 0.684128
vt 1.000000 0.720863
vt 0.000000 0.720863
vt 0.000000 0.684128
vt 1.000000 0.684128
vt 1.000000 0.720863
vt 0.000000 0.720863
vt 0.000000 0.684128
vt 1.000000 0.684128
vt 1.000000 0.720863
vt 0.000000 0.720863
vt 0.000000 0.684128
vt 1.000000 0.684128
vt 1.000000 0.720863
vt 0.000000 0.720863
vt 0.000000 0.684128
vt 1.000000 0.684128
vt 1.000000 0.720863
vt 0.000000 0.720863
vt 0.000000 0.684128
vt 1.000000 0.684128
vt 1.000000 0.720863
vt 0.000000 0.720863
vt 0.000000 0.511778
vt 1.000000 0.511778
vt 0.000000 0.511778
vt 1.000000 0.511778
vt 0.000000 0.511778
vt 1.000000 0.511778
vt 0.000000 0.330869
vt 1.000000 0.330869
vt 1.000000 0.511778
vt 0.000000 0.511778
vt 0.000000 0.330869
vt 1.000000 0.330869
vt 0.000000 0.330869
vt 1.000000 0.330869
vt 0.000000 0.330869
vt 1.000000 0.330869
vt 0.000000 0.330869
vt 1.000000 0.330869
vt 1.000000 0.511778
vt 0.000000 0.511778
vt 0.000000 0.330869
vt 1.000000 0.330869
vt 1.000000 0.511778
vt 0.000000 0.511778
vt 1.000000 0.720863
vt 0.000000 0.720863
vt 1.000000 0.720863
vt 0.000000 0.720863
vt 1.000000 0.511778
vt 0.000000 0.511778
vt 0.000000 0.684128
vt 1.000000 0.684128
vt 0.000000 0.330869
vt 1.000000 0.330869
vt 0.000000 0.000000
vt 1.000000 0.000000
vt 1.000000 0.348628
vt 0.000000 0.348628
vt 0.000000 0.684128
vt 1.000000 0.684128
vt 1.000000 0.720863
vt 0.000000 0.720863
vt 0.000000 0.684128
vt 1.000000 0.684128
vt 1.000000 0.720863
vt 0.000000 0.720863
vt 0.000000 0.684128
vt 1.000000 0.684128
vt 1.000000 0.720863
vt 0.000000 0.720863
vt 0.000000 0.684128
vt 1.000000 0.684128
vt 1.000000 0.720863
vt 0.000000 0.720863
vt 0.000000 0.684128
vt 1.000000 0.684128
vt 1.000000 0.720863
vt 0.000000 0.720863
vt 0.000000 0.684128
vt 1.000000 0.684128
vt 1.000000 0.720863
vt 0.000000 0.720863
vt 0.000000 0.511778
vt 1.000000 0.511778
vt 0.000000 0.511778
vt 1.000000 0.511778
vt 0.000000 0.511778
vt 1.000000 0.511778
vt 0.000000 0.330869
vt 1.000000 0.330869
vt 1.000000 0.511778
vt 0.000000 0.511778
vt 0.000000 0.330869
vt 1.000000 0.330869
vt 0.000000 0.330869
vt 1.000000 0.330869
vt 0.000000 0.330869
vt 1.000000 0.330869
vt 0.000000 0.330869
vt 1.000000 0.330869
vt 1.000000 0.511778
vt 0.000000 0.511778
vt 0.000000 0.330869
vt 1.000000 0.330869
vt 1.000000 0.511778
vt 0.000000 0.511778
vt 1.000000 0.720863
vt 0.000000 0.720863
vt 1.000000 0.720863
vt 0.000000 0.720863
vt 1.000000 0.511778
vt 0.000000 0.511778
vt 0.000000 0.684128
vt 1.000000 0.684128
vt 0.000000 0.330869
vt 1.000000 0.330869
vt 0.000000 0.000000
vt 1.000000 0.000000
vt 1.000000 0.348628
vt 0.000000 0.348628
vt 0.375000 0.000000
vt 0.625000 0.000000
vt 0.625000 0.250000
vt 0.375000 0.250000
vt 0.625000 0.500000
vt 0.375000 0.500000
vt 0.625000 0.750000
vt 0.375000 0.750000
vt 0.625000 1.000000
vt 0.375000 1.000000
vt 0.875000 0.000000
vt 0.875000 0.250000
vt 0.125000 0.000000
vt 0.125000 0.250000
vt 0.375000 0.000000
vt 0.625000 0.000000
vt 0.625000 0.250000
vt 0.375000 0.250000
vt 0.625000 0.500000
vt 0.375000 0.500000
vt 0.625000 0.750000
vt 0.375000 0.750000
vt 0.625000 1.000000
vt 0.375000 1.000000
vt 0.875000 0.000000
vt 0.875000 0.250000
vt 0.125000 0.000000
vt 0.125000 0.250000
vt 0.375000 0.000000
vt 0.625000 0.000000
vt 0.625000 0.250000
vt 0.375000 0.250000
vt 0.625000 0.500000
vt 0.375000 0.500000
vt 0.625000 0.750000
vt 0.375000 0.750000
vt 0.625000 1.000000
vt 0.375000 1.000000
vt 0.875000 0.000000
vt 0.875000 0.250000
vt 0.125000 0.000000
vt 0.125000 0.250000
vt 0.375000 0.000000
vt 0.625000 0.000000
vt 0.625000 0.250000
vt 0.375000 0.250000
vt 0.625000 0.500000
vt 0.375000 0.500000
vt 0.625000 0.750000
vt 0.375000 0.750000
vt 0.625000 1.000000
vt 0.375000 1.000000
vt 0.875000 0.000000
vt 0.875000 0.250000
vt 0.125000 0.000000
vt 0.125000 0.250000
vt 0.375000 0.000000
vt 0.625000 0.000000
vt 0.625000 0.250000
vt 0.375000 0.250000
vt 0.625000 0.500000
vt 0.375000 0.500000
vt 0.625000 0.750000
vt 0.375000 0.750000
vt 0.625000 1.000000
vt 0.375000 1.000000
vt 0.875000 0.000000
vt 0.875000 0.250000
vt 0.125000 0.000000
vt 0.125000 0.250000
vt 0.375000 0.000000
vt 0.625000 0.000000
vt 0.625000 0.250000
vt 0.375000 0.250000
vt 0.625000 0.500000
vt 0.375000 0.500000
vt 0.625000 0.750000
vt 0.375000 0.750000
vt 0.625000 1.000000
vt 0.375000 1.000000
vt 0.875000 0.000000
vt 0.875000 0.250000
vt 0.125000 0.000000
vt 0.125000 0.250000
vt 0.375000 0.000000
vt 0.625000 0.000000
vt 0.625000 0.250000
vt 0.375000 0.250000
vt 0.625000 0.500000
vt 0.375000 0.500000
vt 0.625000 0.750000
vt 0.375000 0.750000
vt 0.625000 1.000000
vt 0.375000 1.000000
vt 0.875000 0.000000
vt 0.875000 0.250000
vt 0.125000 0.000000
vt 0.125000 0.250000
vn 0.000000 1.000000 0.000000
vn 0.000000 1.000000 0.000000
vn 0.000000 1.000000 0.000000
vn 0.000000 1.000000 0.000000
vn 0.000000 -1.000000 0.000000
vn 0.000000 -1.000000 0.000000
vn 0.000000 -1.000000 0.000000
vn 0.000000 -1.000000 0.000000
vn 0.000000 0.657039 -0.753857
vn 0.000000 0.657039 -0.753857
vn 0.000000 0.657039 -0.753857
vn 0.000000 0.657039 -0.753857
vn -0.824486 0.565882 0.000000
vn -0.824486 0.565882 0.000000
vn -0.824486 0.565882 0.000000
vn -0.824486 0.565882 0.000000
vn 0.000000 0.657039 0.753857
vn 0.000000 0.657039 0.753857
vn 0.000000 0.657039 0.753857
vn 0.000000 0.657039 0.753857
vn 0.824512 0.565845 0.000000
vn 0.824512 0.565845 0.000000
vn 0.824512 0.565845 0.000000
vn 0.824512 0.565845 0.000000
vn 1.000000 0.000097 0.000000
vn 1.000000 0.000097 0.000000
vn 1.000000 0.000097 0.000000
vn 1.000000 0.000097 0.000000
vn 1.000000 -0.000019 0.000000
vn 1.000000 -0.000019 0.000000
vn 1.000000 -0.000019 0.000000
vn 1.000000 -0.000019 0.000000
vn 1.000000 -0.000057 0.000000
vn 1.000000 -0.000057 0.000000
vn 1.000000 -0.000057 0.000000
vn 1.000000 -0.000057 0.000000
vn 1.000000 0.000035 0.000000
vn 1.000000 0.000035 0.000000
vn 1.000000 0.000035 0.000000
vn 1.000000 0.000035 0.000000
vn 1.000000 0.000015 0.000000
vn 1.000000 0.000015 0.000000
vn 1.000000 0.000015 0.000000
vn 1.000000 0.000015 0.000000
vn -1.000000 0.000000 0.000000
vn -1.000000 0.000000 0.000000
vn -1.000000 0.000000 0.000000
vn -1.000000 0.000000 0.000000
vn -1.000000 0.000000 0.000000
vn -1.000000 0.000000 0.000000
vn -1.000000 0.000000 0.000000
vn -1.000000 0.000000 0.000000
vn -1.000000 0.000000 0.000000
vn -1.000000 0.000000 0.000000
vn -1.000000 0.000000 0.000000
vn -1.000000 0.000000 0.000000
vn -1.000000 0.000000 0.000000
vn -1.000000 0.000000 0.000000
vn -1.000000 0.000000 0.000000
vn -1.000000 0.000000 0.000000
vn -1.000000 0.000000 0.000000
vn -1.000000 0.000000 0.000000
vn -1.000000 0.000000 0.000000
vn -1.000000 0.000000 0.000000
vn 0.000000 0.985212 -0.171341
vn 0.000000 0.972471 -0.233024
vn 0.000000 0.972471 -0.233024
vn 0.000000 0.985212 -0.171341
vn 0.000000 0.968758 0.248009
vn 0.000000 0.984658 0.174496
vn 0.000000 0.984658 0.174496
vn 0.000000 0.968758 0.248009
vn 0.000000 0.110432 -0.993884
vn 0.000000 0.110432 -0.993884
vn 0.000000 0.110432 -0.993884
vn 0.000000 0.110432 -0.993884
vn 0.000000 0.998568 -0.053494
vn 0.000000 0.998568 -0.053494
vn 0.000000 0.998568 -0.053494
vn 0.000000 0.998568 -0.053494
vn 0.000000 0.232565 0.972581
vn 0.000000 0.232565 0.972581
vn 0.000000 0.232565 0.972581
vn 0.000000 0.232565 0.972581
vn 0.000000 0.955872 -0.293783
vn 0.000000 0.955872 -0.293783
vn 0.000000 0.947377 0.320119
vn 0.000000 0.947377 0.320119
vn 0.000000 -0.995811 0.091439
vn 0.000000 -0.996076 -0.088497
vn 0.000000 -0.996076 -0.088497
vn 0.000000 -0.995811 0.091439
vn 0.000000 -0.984337 -0.176299
vn 0.000000 -0.984337 -0.176299
vn 0.000000 -0.983278 0.182112
vn 0.000000 -0.983278 0.182112
vn 0.000000 -0.136634 -0.990622
vn 0.000000 -0.136634 -0.990622
vn 0.000000 -0.136634 -0.990622
vn 0.000000 -0.136634 -0.990622
vn 0.000000 -0.136634 0.990622
vn 0.000000 -0.136634 0.990622
vn 0.000000 -0.136634 0.990622
vn 0.000000 -0.136634 0.990622
vn 0.000000 0.000000 1.000000
vn 0.000000 0.000000 1.000000
vn 0.000000 0.000000 1.000000
vn 0.000000 0.000000 1.000000
vn 0.000000 0.000000 1.000000
vn 0.000000 0.000000 1.000000
vn 0.000000 -1.000000 -0.000000
vn 0.000000 -1.000000 -0.000000
vn 0.000000 -1.000000 -0.000000
vn 0.000000 -1.000000 -0.000000
vn -0.000000 0.000000 -1.000000
vn -0.000000 0.000000 -1.000000
vn -0.000000 0.000000 -1.000000
vn -0.000000 0.000000 -1.000000
vn 0.000000 0.000000 -1.000000
vn 0.000000 0.000000 -1.000000
vn 0.000000 1.000000 0.000000
vn 0.000000 1.000000 0.000000
vn 0.000000 1.000000 0.000000
vn 0.000000 1.000000 0.000000
vn 0.000000 0.000000 1.000000
vn 0.000000 0.000000 1.000000
vn 0.000000 -1.000000 -0.000000
vn 0.000000 -1.000000 -0.000000
vn 0.000000 0.000000 -1.000000
vn 0.000000 0.000000 -1.000000
vn 0.000000 0.000000 1.000000
vn 0.000000 0.000000 1.000000
vn 0.000000 0.000000 1.000000
vn 0.000000 0.000000 1.000000
vn 0.000000 -1.000000 -0.000000
vn 0.000000 -1.000000 -0.000000
vn 0.000000 0.000000 -1.000000
vn 0.000000 0.000000 -1.000000
vn 0.000000 0.000000 -1.000000
vn 0.000000 0.000000 -1.000000
vn 0.000000 1.000000 0.000000
vn 0.000000 1.000000 0.000000
vn 0.000000 1.000000 0.000000
vn 0.000000 1.000000 0.000000
vn -1.000000 0.000000 0.000000
vn -1.000000 0.000000 0.000000
vn -1.000000 0.000000 0.000000
vn -1.000000 0.000000 0.000000
vn -1.000000 0.000000 0.000000
vn -1.000000 0.000000 0.000000
vn -1.000000 0.000000 0.000000
vn -1.000000 0.000000 0.000000
vn -1.000000 0.000000 0.000000
vn -1.000000 0.000000 0.000000
vn 1.000000 0.000000 0.000000
vn 1.000000 0.000000 0.000000
vn 1.000000 0.000000 0.000000
vn 1.000000 0.000000 0.000000
vn 0.000000 1.000000 0.000000
vn 0.000000 1.000000 0.000000
vn 0.000000 1.000000 0.000000
vn 0.000000 1.000000 0.000000
vn 0.999999 -0.001042 0.000000
vn 0.999999 -0.001042 0.000000
vn 0.999999 -0.001042 0.000000
vn 0.999999 -0.001042 0.000000
vn 1.000000 0.000000 0.000000
vn 1.000000 0.000000 0.000000
vn 1.000000 0.000000 0.000000
vn 1.000000 0.000000 0.000000
vn 0.000000 0.000000 1.000000
vn 0.000000 0.000000 1.000000
vn 0.000000 0.000000 1.000000
vn 0.000000 0.000000 1.000000
vn 0.000000 0.000000 1.000000
vn 0.000000 0.000000 1.000000
vn 0.000000 -1.000000 -0.000000
vn 0.000000 -1.000000 -0.000000
vn 0.000000 -1.000000 -0.000000
vn 0.000000 -1.000000 -0.000000
vn 0.000000 0.000000 -1.000000
vn 0.000000 0.000000 -1.000000
vn 0.000000 0.000000 -1.000000
vn 0.000000 0.000000 -1.000000
vn 0.000000 0.000000 -1.000000
vn 0.000000 0.000000 -1.000000
vn 0.000000 1.000000 0.000000
vn 0.000000 1.000000 0.000000
vn 0.000000 1.000000 0.000000
vn 0.000000 1.000000 0.000000
vn 0.000000 0.000000 1.000000
vn 0.000000 0.000000 1.000000
vn 0.000000 -1.000000 -0.000000
vn 0.000000 -1.000000 -0.000000
vn 0.000000 0.000000 -1.000000
vn 0.000000 0.000000 -1.000000
vn 0.000000 0.000000 1.000000
vn 0.000000 0.000000 1.000000
vn 0.000000 0.000000 1.000000
vn 0.000000 0.000000 1.000000
vn 0.000000 -1.000000 -0.000000
vn 0.000000 -1.000000 -0.000000
vn 0.000000 0.000000 -1.000000
vn 0.000000 0.000000 -1.000000
vn 0.000000 0.000000 -1.000000
vn 0.000000 0.000000 -1.000000
vn 0.000000 1.000000 0.000000
vn 0.000000 1.000000 0.000000
vn 0.000000 1.000000 0.000000
vn 0.000000 1.000000 0.000000
vn -1.000000 0.000000 0.000000
vn -1.000000 0.000000 0.000000
vn -1.000000 0.000000 0.000000
vn -1.000000 0.000000 0.000000
vn -1.000000 0.000000 0.000000
vn -1.000000 0.000000 0.000000
vn -1.000000 0.000000 0.000000
vn -1.000000 0.000000 0.000000
vn -1.000000 0.000000 0.000000
vn -1.000000 0.000000 0.000000
vn 1.000000 0.000000 0.000000
vn 1.000000 0.000000 0.000000
vn 1.000000 0.000000 0.000000
vn 1.000000 0.000000 0.000000
vn 0.000000 1.000000 0.000000
vn 0.000000 1.000000 0.000000
vn 0.000000 1.000000 0.000000
vn 0.000000 1.000000 0.000000
vn 0.999999 -0.001042 0.000000
vn 0.999999 -0.001042 0.000000
vn 0.999999 -0.001042 0.000000
vn 0.999999 -0.001042 0.000000
vn 1.000000 0.000000 0.000000
vn 1.000000 0.000000 0.000000
vn 1.000000 0.000000 0.000000
vn 1.000000 0.000000 0.000000
vn 0.000000 0.000000 1.000000
vn 0.000000 0.000000 1.000000
vn 0.000000 0.000000 1.000000
vn 0.000000 0.000000 1.000000
vn 0.000000 0.000000 1.000000
vn 0.000000 0.000000 1.000000
vn 0.000000 -1.000000 -0.000000
vn 0.000000 -1.000000 -0.000000
vn 0.000000 -1.000000 -0.000000
vn 0.000000 -1.000000 -0.000000
vn -0.000000 0.000000 -1.000000
vn -0.000000 0.000000 -1.000000
vn -0.000000 0.000000 -1.000000
vn -0.000000 0.000000 -1.000000
vn 0.000000 0.000000 -1.000000
vn 0.000000 0.000000 -1.000000
vn 0.000000 1.000000 0.000000
vn 0.000000 1.000000 0.000000
vn 0.000000 1.000000 0.000000
vn 0.000000 1.000000 0.000000
vn 0.000000 0.000000 1.000000
vn 0.000000 0.000000 1.000000
vn 0.000000 -1.000000 -0.000000
vn 0.000000 -1.000000 -0.000000
vn 0.000000 0.000000 -1.000000
vn 0.000000 0.000000 -1.000000
vn 0.000000 0.000000 1.000000
vn 0.000000 0.000000 1.000000
vn 0.000000 0.000000 1.000000
vn 0.000000 0.000000 1.000000
vn 0.000000 -1.000000 -0.000000
vn 0.000000 -1.000000 -0.000000
vn 0.000000 0.000000 -1.000000
vn 0.000000 0.000000 -1.000000
vn 0.000000 0.000000 -1.000000
vn 0.000000 0.000000 -1.000000
vn 0.000000 1.000000 0.000000
vn 0.000000 1.000000 0.000000
vn 0.000000 1.000000 0.000000
vn 0.000000 1.000000 0.000000
vn -1.000000 0.000000 0.000000
vn -1.000000 0.000000 0.000000
vn -1.000000 0.000000 0.000000
vn -1.000000 0.000000 0.000000
vn -1.000000 0.000000 0.000000
vn -1.000000 0.000000 0.000000
vn -1.000000 0.000000 0.000000
vn -1.000000 0.000000 0.000000
vn -1.000000 0.000000 0.000000
vn -1.000000 0.000000 0.000000
vn 1.000000 0.000000 0.000000
vn 1.000000 0.000000 0.000000
vn 1.000000 0.000000 0.000000
vn 1.000000 0.000000 0.000000
vn 0.000000 1.000000 0.000000
vn 0.000000 1.000000 0.000000
vn 0.000000 1.000000 0.000000
vn 0.000000 1.000000 0.000000
vn 0.999999 -0.001042 0.000000
vn 0.999999 -0.001042 0.000000
vn 0.999999 -0.001042 0.000000
vn 0.999999 -0.001042 0.000000
vn 1.000000 0.000000 0.000000
vn 1.000000 0.000000 0.000000
vn 1.000000 0.000000 0.000000
vn 1.000000 0.000000 0.000000
vn 0.000000 0.000000 1.000000
vn 0.000000 0.000000 1.000000
vn 0.000000 0.000000 1.000000
vn 0.000000 0.000000 1.000000
vn 0.000000 0.000000 1.000000
vn 0.000000 0.000000 1.000000
vn 0.000000 -1.000000 -0.000000
vn 0.000000 -1.000000 -0.000000
vn 0.000000 -1.000000 -0.000000
vn 0.000000 -1.000000 -0.000000
vn 0.000000 0.000000 -1.000000
vn 0.000000 0.000000 -1.000000
vn 0.000000 0.000000 -1.000000
vn 0.000000 0.000000 -1.000000
vn 0.000000 0.000000 -1.000000
vn 0.000000 0.000000 -1.000000
vn 0.000000 1.000000 0.000000
vn 0.000000 1.000000 0.000000
vn 0.000000 1.000000 0.000000
vn 0.000000 1.000000 0.000000
vn 0.000000 0.000000 1.000000
vn 0.000000 0.000000 1.000000
vn 0.000000 -1.000000 -0.000000
vn 0.000000 -1.000000 -0.000000
vn 0.000000 0.000000 -1.000000
vn 0.000000 0.000000 -1.000000
vn 0.000000 0.000000 1.000000
vn 0.000000 0.000000 1.000000
vn 0.000000 0.000000 1.000000
vn 0.000000 0.000000 1.000000
vn 0.000000 -1.000000 -0.000000
vn 0.000000 -1.000000 -0.000000
vn 0.000000 0.000000 -1.000000
vn 0.000000 0.000000 -1.000000
vn 0.000000 0.000000 -1.000000
vn 0.000000 0.000000 -1.000000
vn 0.000000 1.000000 0.000000
vn 0.000000 1.000000 0.000000
vn 0.000000 1.000000 0.000000
vn 0.000000 1.000000 0.000000
vn -1.000000 0.000000 0.000000
vn -1.000000 0.000000 0.000000
vn -1.000000 0.000000 0.000000
vn -1.000000 0.000000 0.000000
vn -1.000000 0.000000 0.000000
vn -1.000000 0.000000 0.000000
vn -1.000000 0.000000 0.000000
vn -1.000000 0.000000 0.000000
vn -1.000000 0.000000 0.000000
vn -1.000000 0.000000 0.000000
vn 1.000000 0.000000 0.000000
vn 1.000000 0.000000 0.000000
vn 1.000000 0.000000 0.000000
vn 1.000000 0.000000 0.000000
vn 0.000000 1.000000 0.000000
vn 0.000000 1.000000 0.000000
vn 0.000000 1.000000 0.000000
vn 0.000000 1.000000 0.000000
vn 0.999999 -0.001042 0.000000
vn 0.999999 -0.001042 0.000000
vn 0.999999 -0.001042 0.000000
vn 0.999999 -0.001042 0.000000
vn 1.000000 0.000000 0.000000
vn 1.000000 0.000000 0.000000
vn 1.000000 0.000000 0.000000
vn 1.000000 0.000000 0.000000
vn 0.000000 -1.000000 -0.000000
vn 0.000000 -1.000000 -0.000000
vn 0.000000 -1.000000 -0.000000
vn 0.000000 -1.000000 -0.000000
vn -0.707132 0.000000 -0.707082
vn -0.707132 0.000000 -0.707082
vn -0.707132 0.000000 -0.707082
vn -0.707132 0.000000 -0.707082
vn 0.000000 1.000000 0.000000
vn 0.000000 1.000000 0.000000
vn 0.000000 1.000000 0.000000
vn 0.000000 1.000000 0.000000
vn 0.707132 0.000000 0.707082
vn 0.707132 0.000000 0.707082
vn 0.707132 0.000000 0.707082
vn 0.707132 0.000000 0.707082
vn -0.707108 0.000000 0.707106
vn -0.707108 0.000000 0.707106
vn -0.707108 0.000000 0.707106
vn -0.707108 0.000000 0.707106
vn 0.707106 0.000000 -0.707107
vn 0.707106 0.000000 -0.707107
vn 0.707106 0.000000 -0.707107
vn 0.707106 0.000000 -0.707107
vn 0.000000 -1.000000 -0.000000
vn 0.000000 -1.000000 -0.000000
vn 0.000000 -1.000000 -0.000000
vn 0.000000 -1.000000 -0.000000
vn 0.866021 0.000000 -0.500008
vn 0.866021 0.000000 -0.500008
vn 0.866021 0.000000 -0.500008
vn 0.866021 0.000000 -0.500008
vn 0.000000 1.000000 -0.000001
vn 0.000000 1.000000 -0.000001
vn 0.000000 1.000000 -0.000001
vn 0.000000 1.000000 -0.000001
vn -0.866038 0.000000 0.499978
vn -0.866038 0.000000 0.499978
vn -0.866038 0.000000 0.499978
vn -0.866038 0.000000 0.499978
vn -0.500054 0.000000 -0.865994
vn -0.500054 0.000000 -0.865994
vn -0.500054 0.000000 -0.865994
vn -0.500054 0.000000 -0.865994
vn 0.499817 0.000000 0.866131
vn 0.499817 0.000000 0.866131
vn 0.499817 0.000000 0.866131
vn 0.499817 0.000000 0.866131
vn 0.000000 -1.000000 0.000000
vn 0.000000 -1.000000 0.000000
vn 0.000000 -1.000000 0.000000
vn 0.000000 -1.000000 0.000000
vn 0.707112 0.000000 0.707102
vn 0.707112 0.000000 0.707102
vn 0.707112 0.000000 0.707102
vn 0.707112 0.000000 0.707102
vn 0.000000 1.000000 -0.000000
vn 0.000000 1.000000 -0.000000
vn 0.000000 1.000000 -0.000000
vn 0.000000 1.000000 -0.000000
vn -0.707112 0.000000 -0.707102
vn -0.707112 0.000000 -0.707102
vn -0.707112 0.000000 -0.707102
vn -0.707112 0.000000 -0.707102
vn 0.707106 0.000000 -0.707107
vn 0.707106 0.000000 -0.707107
vn 0.707106 0.000000 -0.707107
vn 0.707106 0.000000 -0.707107
vn -0.707107 0.000000 0.707107
vn -0.707107 0.000000 0.707107
vn -0.707107 0.000000 0.707107
vn -0.707107 0.000000 0.707107
vn 0.000000 -1.000000 0.000000
vn 0.000000 -1.000000 0.000000
vn 0.000000 -1.000000 0.000000
vn 0.000000 -1.000000 0.000000
vn 0.000000 0.000000 1.000000
vn 0.000000 0.000000 1.000000
vn 0.000000 0.000000 1.000000
vn 0.000000 0.000000 1.000000
vn 0.000000 1.000000 0.000000
vn 0.000000 1.000000 0.000000
vn 0.000000 1.000000 0.000000
vn 0.000000 1.000000 0.000000
vn 0.000000 0.000000 -1.000000
vn 0.000000 0.000000 -1.000000
vn 0.000000 0.000000 -1.000000
vn 0.000000 0.000000 -1.000000
vn 1.000000 0.000000 0.000000
vn 1.000000 0.000000 0.000000
vn 1.000000 0.000000 0.000000
vn 1.000000 0.000000 0.000000
vn -1.000000 0.000000 0.000000
vn -1.000000 0.000000 0.000000
vn -1.000000 0.000000 0.000000
vn -1.000000 0.000000 0.000000
vn 0.000000 -1.000000 0.000000
vn 0.000000 -1.000000 0.000000
vn 0.000000 -1.000000 0.000000
vn 0.000000 -1.000000 0.000000
vn 0.499993 0.000000 -0.866030
vn 0.499993 0.000000 -0.866030
vn 0.499993 0.000000 -0.866030
vn 0.499993 0.000000 -0.866030
vn 0.000000 1.000000 0.000001
vn 0.000000 1.000000 0.000001
vn 0.000000 1.000000 0.000001
vn 0.000000 1.000000 0.000001
vn -0.500010 0.000000 0.866020
vn -0.500010 0.000000 0.866020
vn -0.500010 0.000000 0.866020
vn -0.500010 0.000000 0.866020
vn -0.866198 0.000000 -0.499701
vn -0.866198 0.000000 -0.499701
vn -0.866198 0.000000 -0.499701
vn -0.866198 0.000000 -0.499701
vn 0.865961 0.000000 0.500111
vn 0.865961 0.000000 0.500111
vn 0.865961 0.000000 0.500111
vn 0.865961 0.000000 0.500111
vn 0.000000 -1.000000 -0.000000
vn 0.000000 -1.000000 -0.000000
vn 0.000000 -1.000000 -0.000000
vn 0.000000 -1.000000 -0.000000
vn -0.707127 0.000000 -0.707087
vn -0.707127 0.000000 -0.707087
vn -0.707127 0.000000 -0.707087
vn -0.707127 0.000000 -0.707087
vn 0.000000 1.000000 0.000000
vn 0.000000 1.000000 0.000000
vn 0.000000 1.000000 0.000000
vn 0.000000 1.000000 0.000000
vn 0.707127 0.000000 0.707087
vn 0.707127 0.000000 0.707087
vn 0.707127 0.000000 0.707087
vn 0.707127 0.000000 0.707087
vn -0.707107 0.000000 0.707107
vn -0.707107 0.000000 0.707107
vn -0.707107 0.000000 0.707107
vn -0.707107 0.000000 0.707107
vn 0.707106 0.000000 -0.707107
vn 0.707106 0.000000 -0.707107
vn 0.707106 0.000000 -0.707107
vn 0.707106 0.000000 -0.707107
vn 0.000000 -1.000000 0.000001
vn 0.000000 -1.000000 0.000001
vn 0.000000 -1.000000 0.000001
vn 0.000000 -1.000000 0.000001
vn -0.866004 0.000000 0.500038
vn -0.866004 0.000000 0.500038
vn -0.866004 0.000000 0.500038
vn -0.866004 0.000000 0.500038
vn 0.000000 1.000000 -0.000000
vn 0.000000 1.000000 -0.000000
vn 0.000000 1.000000 -0.000000
vn 0.000000 1.000000 -0.000000
vn 0.866038 0.000000 -0.499978
vn 0.866038 0.000000 -0.499978
vn 0.866038 0.000000 -0.499978
vn 0.866038 0.000000 -0.499978
vn 0.500054 0.000000 0.865994
vn 0.500054 0.000000 0.865994
vn 0.500054 0.000000 0.865994
vn 0.500054 0.000000 0.865994
vn -0.499580 0.000000 -0.866268
vn -0.499580 0.000000 -0.866268
vn -0.499580 0.000000 -0.866268
vn -0.499580 0.000000 -0.866268
s off
g polySurface27521
f 6/1/1 5/2/2 3/3/3 4/4/4
f 7/5/5 8/6/6 2/7/7 1/8/8
f 7/5/9 5/9/10 6/10/11 8/6/12
f 3/11/13 5/12/14 7/13/15 1/14/16
f 3/11/17 1/14/18 2/15/19 4/16/20
f 8/17/21 6/18/22 4/16/23 2/15/24
f 21/19/25 22/20/26 23/21/27 24/22/28
f 26/23/29 25/24/30 27/25/31 28/26/32
f 24/22/33 23/21/34 25/24/35 26/23/36
f 29/27/37 30/28/38 31/29/39 32/30/40
f 32/30/41 31/29/42 22/20/43 21/19/44
f 19/31/45 18/32/46 13/33/47 12/34/48
f 17/35/49 16/36/50 15/37/51 14/38/52
f 18/32/53 17/35/54 14/38/55 13/33/56
f 9/39/57 20/40/58 11/41/59 10/42/60
f 20/40/61 19/31/62 12/34/63 11/41/64
s 17
f 12/43/65 13/44/66 23/21/67 22/20/68
s 18
f 18/45/69 19/46/70 21/19/71 24/22/72
s off
f 14/47/73 15/48/74 27/25/75 25/24/76
f 15/48/77 16/49/78 28/26/79 27/25/80
f 16/49/81 17/50/82 26/23/83 28/26/84
s 17
f 13/44/66 14/47/85 25/24/86 23/21/67
s 18
f 17/50/87 18/45/69 24/22/72 26/23/88
s 22
f 9/51/89 10/52/90 30/28/91 29/27/92
f 10/52/90 11/53/93 31/29/94 30/28/91
f 20/54/95 9/51/89 29/27/92 32/30/96
s off
f 11/53/97 12/43/98 22/20/99 31/29/100
f 19/46/101 20/54/102 32/30/103 21/19/104
s 25
f 44/55/105 43/56/106 37/57/107 38/58/108
f 45/59/109 44/60/105 38/61/108 39/62/110
s 26
f 46/63/111 45/64/112 39/65/113 40/66/114
s 27
f 47/67/115 46/68/116 40/69/117 41/70/118
f 48/71/119 47/72/115 41/73/118 42/74/120
s off
f 43/75/121 48/76/122 42/77/123 37/78/124
s 25
f 51/79/125 50/80/126 44/60/105 45/59/109
s 26
f 52/81/127 51/82/128 45/64/112 46/63/111
s 27
f 53/83/129 52/84/130 46/68/116 47/67/115
s 25
f 34/85/131 55/86/132 49/87/133 50/88/126
f 33/89/134 34/90/131 50/80/126 51/79/125
s 26
f 36/91/135 33/92/136 51/82/128 52/81/127
s 27
f 35/93/137 36/94/138 52/84/130 53/83/129
f 56/95/139 35/96/137 53/97/129 54/98/140
s off
f 55/99/141 56/100/142 54/101/143 49/102/144
s 30
f 38/58/145 37/57/146 42/103/147 41/104/148
f 39/62/149 38/61/145 41/105/148 40/106/150
s off
f 50/88/151 49/87/152 54/107/153 53/108/154
f 43/56/155 44/55/156 47/109/157 48/110/158
f 44/55/159 50/88/160 53/108/161 47/109/162
f 55/86/163 34/85/164 35/111/165 56/112/166
f 34/113/167 33/114/168 36/115/169 35/116/170
s 36
f 68/117/171 67/118/172 61/119/173 62/120/174
f 69/121/175 68/122/171 62/123/174 63/124/176
s 37
f 70/125/177 69/126/178 63/127/179 64/128/180
s 38
f 71/129/181 70/130/182 64/131/183 65/132/184
f 72/133/185 71/134/181 65/135/184 66/136/186
s off
f 67/137/187 72/138/188 66/139/189 61/140/190
s 36
f 75/141/191 74/142/192 68/122/171 69/121/175
s 37
f 76/143/193 75/144/194 69/126/178 70/125/177
s 38
f 77/145/195 76/146/196 70/130/182 71/129/181
s 36
f 58/147/197 79/148/198 73/149/199 74/150/192
f 57/151/200 58/152/197 74/142/192 75/141/191
s 37
f 60/153/201 57/154/202 75/144/194 76/143/193
s 38
f 59/155/203 60/156/204 76/146/196 77/145/195
f 80/157/205 59/158/203 77/159/195 78/160/206
s off
f 79/161/207 80/162/208 78/163/209 73/164/210
s 41
f 62/120/211 61/119/212 66/165/213 65/166/214
f 63/124/215 62/123/211 65/167/214 64/168/216
s off
f 74/150/217 73/149/218 78/169/219 77/170/220
f 67/118/221 68/117/222 71/171/223 72/172/224
f 68/117/225 74/150/226 77/170/227 71/171/228
f 79/148/229 58/147/230 59/173/231 80/174/232
f 58/175/233 57/176/234 60/177/235 59/178/236
s 47
f 92/179/237 91/180/238 85/181/239 86/182/240
f 93/183/241 92/184/237 86/185/240 87/186/242
s 48
f 94/187/243 93/188/244 87/189/245 88/190/246
s 49
f 95/191/247 94/192/248 88/193/249 89/194/250
f 96/195/251 95/196/247 89/197/250 90/198/252
s off
f 91/199/253 96/200/254 90/201/255 85/202/256
s 47
f 99/203/257 98/204/258 92/184/237 93/183/241
s 48
f 100/205/259 99/206/260 93/188/244 94/187/243
s 49
f 101/207/261 100/208/262 94/192/248 95/191/247
s 47
f 82/209/263 103/210/264 97/211/265 98/212/258
f 81/213/266 82/214/263 98/204/258 99/203/257
s 48
f 84/215/267 81/216/268 99/206/260 100/205/259
s 49
f 83/217/269 84/218/270 100/208/262 101/207/261
f 104/219/271 83/220/269 101/221/261 102/222/272
s off
f 103/223/273 104/224/274 102/225/275 97/226/276
s 52
f 86/182/277 85/181/278 90/227/279 89/228/280
f 87/186/281 86/185/277 89/229/280 88/230/282
s off
f 98/212/283 97/211/284 102/231/285 101/232/286
f 91/180/287 92/179/288 95/233/289 96/234/290
f 92/179/291 98/212/292 101/232/293 95/233/294
f 103/210/295 82/209/296 83/235/297 104/236/298
f 82/237/299 81/238/300 84/239/301 83/240/302
s 58
f 116/241/303 115/242/304 109/243/305 110/244/306
f 117/245/307 116/246/303 110/247/306 111/248/308
s 59
f 118/249/309 117/250/310 111/251/311 112/252/312
s 60
f 119/253/313 118/254/314 112/255/315 113/256/316
f 120/257/317 119/258/313 113/259/316 114/260/318
s off
f 115/261/319 120/262/320 114/263/321 109/264/322
s 58
f 123/265/323 122/266/324 116/246/303 117/245/307
s 59
f 124/267/325 123/268/326 117/250/310 118/249/309
s 60
f 125/269/327 124/270/328 118/254/314 119/253/313
s 58
f 106/271/329 127/272/330 121/273/331 122/274/324
f 105/275/332 106/276/329 122/266/324 123/265/323
s 59
f 108/277/333 105/278/334 123/268/326 124/267/325
s 60
f 107/279/335 108/280/336 124/270/328 125/269/327
f 128/281/337 107/282/335 125/283/327 126/284/338
s off
f 127/285/339 128/286/340 126/287/341 121/288/342
s 63
f 110/244/343 109/243/344 114/289/345 113/290/346
f 111/248/347 110/247/343 113/291/346 112/292/348
s off
f 122/274/349 121/273/350 126/293/351 125/294/352
f 115/242/353 116/241/354 119/295/355 120/296/356
f 116/241/357 122/274/358 125/294/359 119/295/360
f 127/272/361 106/271/362 107/297/363 128/298/364
f 106/299/365 105/300/366 108/301/367 107/302/368
f 129/303/369 130/304/370 132/305/371 131/306/372
f 131/306/373 132/305/374 134/307/375 133/308/376
f 133/308/377 134/307/378 136/309/379 135/310/380
f 135/310/381 136/309/382 130/311/383 129/312/384
f 130/304/385 136/313/386 134/314/387 132/305/388
f 135/315/389 129/303/390 131/306/391 133/316/392
f 137/317/393 138/318/394 140/319/395 139/320/396
f 139/320/397 140/319/398 142/321/399 141/322/400
f 141/322/401 142/321/402 144/323/403 143/324/404
f 143/324/405 144/323/406 138/325/407 137/326/408
f 138/318/409 144/327/410 142/328/411 140/319/412
f 143/329/413 137/317/414 139/320/415 141/330/416
f 145/331/417 146/332/418 148/333/419 147/334/420
f 147/334/421 148/333/422 150/335/423 149/336/424
f 149/336/425 150/335/426 152/337/427 151/338/428
f 151/338/429 152/337/430 146/339/431 145/340/432
f 146/332/433 152/341/434 150/342/435 148/333/436
f 151/343/437 145/331/438 147/334/439 149/344/440
f 153/345/441 154/346/442 156/347/443 155/348/444
f 155/348/445 156/347/446 158/349/447 157/350/448
f 157/350/449 158/349/450 160/351/451 159/352/452
f 159/352/453 160/351/454 154/353/455 153/354/456
f 154/346/457 160/355/458 158/356/459 156/347/460
f 159/357/461 153/345/462 155/348/463 157/358/464
f 161/359/465 162/360/466 164/361/467 163/362/468
f 163/362/469 164/361/470 166/363/471 165/364/472
f 165/364/473 166/363/474 168/365/475 167/366/476
f 167/366/477 168/365/478 162/367/479 161/368/480
f 162/360/481 168/369/482 166/370/483 164/361/484
f 167/371/485 161/359/486 163/362/487 165/372/488
f 169/373/489 170/374/490 172/375/491 171/376/492
f 171/376/493 172/375/494 174/377/495 173/378/496
f 173/378/497 174/377/498 176/379/499 175/380/500
f 175/380/501 176/379/502 170/381/503 169/382/504
f 170/374/505 176/383/506 174/384/507 172/375/508
f 175/385/509 169/373/510 171/376/511 173/386/512
f 177/387/513 178/388/514 180/389/515 179/390/516
f 179/390/517 180/389/518 182/391/519 181/392/520
f 181/392/521 182/391/522 184/393/523 183/394/524
f 183/394/525 184/393/526 178/395/527 177/396/528
f 178/388/529 184/397/530 182/398/531 180/389/532
f 183/399/533 177/387/534 179/390/535 181/400/536
