# This file uses centimeters as units for non-parametric coordinates.

g default
v -59.503353 -0.104382 1.341236
v -58.881073 -0.104382 1.341236
v -59.552204 1.997595 1.455503
v -58.832222 1.997595 1.455503
v -59.552204 1.997595 0.544497
v -58.832222 1.997595 0.544497
v -59.503353 -0.104382 0.675724
v -58.881073 -0.104382 0.675724
v -58.949120 0.837498 1.261555
v -59.435322 0.837498 1.261555
v -59.435322 0.837498 0.755428
v -58.949120 0.837498 0.755428
v -58.945164 0.807170 1.268394
v -59.439259 0.807170 1.268394
v -59.439259 0.807170 0.748566
v -58.945164 0.807170 0.748566
v -59.435478 1.949998 1.261618
v -59.435478 1.949998 0.755325
v -58.948929 1.949998 0.755325
v -58.948929 1.949998 1.261618
v -59.573780 2.288281 1.067747
v -58.810642 2.288281 1.067747
v -58.810642 2.288281 0.932257
v -59.573780 2.288281 0.932257
vt 0.375000 0.000000
vt 0.625000 0.000000
vt 0.625000 0.069794
vt 0.375000 0.069794
vt 0.375000 0.250000
vt 0.625000 0.250000
vt 0.625000 0.500000
vt 0.375000 0.500000
vt 0.375000 0.680206
vt 0.625000 0.680206
vt 0.625000 0.750000
vt 0.375000 0.750000
vt 0.625000 1.000000
vt 0.375000 1.000000
vt 0.875000 0.000000
vt 0.875000 0.069794
vt 0.125000 0.000000
vt 0.125000 0.069794
vt 0.375000 0.127069
vt 0.625000 0.127069
vt 0.625000 0.244584
vt 0.375000 0.244584
vt 0.125000 0.127069
vt 0.125000 0.244584
vt 0.375000 0.505416
vt 0.625000 0.505416
vt 0.625000 0.622931
vt 0.375000 0.622931
vt 0.875000 0.127069
vt 0.875000 0.244584
vt 0.375000 0.250000
vt 0.125000 0.250000
vt 0.375000 0.500000
vt 0.625000 0.500000
vt 0.875000 0.250000
vt 0.625000 0.250000
vn 0.000000 0.079656 0.996822
vn 0.000000 0.079656 0.996822
vn 0.000000 0.079656 0.996822
vn 0.000000 0.079656 0.996822
vn 0.000000 1.000000 0.000000
vn 0.000000 1.000000 0.000000
vn 0.000000 1.000000 0.000000
vn 0.000000 1.000000 0.000000
vn 0.000000 0.079656 -0.996822
vn 0.000000 0.079656 -0.996822
vn 0.000000 0.079656 -0.996822
vn 0.000000 0.079656 -0.996822
vn 0.000000 -1.000000 0.000000
vn 0.000000 -1.000000 0.000000
vn 0.000000 -1.000000 0.000000
vn 0.000000 -1.000000 0.000000
vn 0.997537 0.070137 0.000000
vn 0.997537 0.070137 0.000000
vn 0.997537 0.070137 0.000000
vn 0.997537 0.070137 0.000000
vn -0.997537 0.070136 0.000000
vn -0.997537 0.070136 0.000000
vn -0.997537 0.070136 0.000000
vn -0.997537 0.070136 0.000000
vn 0.000000 -0.000057 1.000000
vn 0.000000 -0.000057 1.000000
vn 0.000000 -0.000057 1.000000
vn 0.000000 -0.000057 1.000000
vn -1.000000 -0.000144 0.000000
vn -1.000000 -0.000144 0.000000
vn -1.000000 -0.000144 0.000000
vn -1.000000 -0.000144 0.000000
vn 0.000000 -0.000093 -1.000000
vn 0.000000 -0.000093 -1.000000
vn 0.000000 -0.000093 -1.000000
vn 0.000000 -0.000093 -1.000000
vn 1.000000 -0.000170 0.000000
vn 1.000000 -0.000170 0.000000
vn 1.000000 -0.000170 0.000000
vn 1.000000 -0.000170 0.000000
vn 0.000000 0.219998 0.975500
vn 0.000000 0.219998 0.975500
vn 0.000000 0.219998 0.975500
vn 0.000000 0.219998 0.975500
vn -0.991667 0.128825 0.000000
vn -0.991667 0.128825 0.000000
vn -0.991667 0.128825 0.000000
vn -0.991667 0.128825 0.000000
vn 0.000000 0.220698 -0.975342
vn 0.000000 0.220698 -0.975342
vn 0.000000 0.220698 -0.975342
vn 0.000000 0.220698 -0.975342
vn 0.991592 0.129403 0.000000
vn 0.991592 0.129403 0.000000
vn 0.991592 0.129403 0.000000
vn 0.991592 0.129403 0.000000
vn -0.377580 -0.925977 0.000000
vn -0.377580 -0.925977 0.000000
vn -0.377580 -0.925977 0.000000
vn -0.377580 -0.925977 0.000000
vn 0.000000 -0.975451 -0.220218
vn 0.000000 -0.975451 -0.220218
vn 0.000000 -0.975451 -0.220218
vn 0.000000 -0.975451 -0.220218
vn 0.377617 -0.925962 0.000000
vn 0.377617 -0.925962 0.000000
vn 0.377617 -0.925962 0.000000
vn 0.377617 -0.925962 0.000000
vn 0.000000 -0.971165 0.238410
vn 0.000000 -0.971165 0.238410
vn 0.000000 -0.971165 0.238410
vn 0.000000 -0.971165 0.238410
vn 0.000000 0.800129 0.599828
vn 0.000000 0.800129 0.599828
vn 0.000000 0.800129 0.599828
vn 0.000000 0.800129 0.599828
vn 0.997257 -0.074021 0.000000
vn 0.997257 -0.074021 0.000000
vn 0.997257 -0.074021 0.000000
vn 0.997257 -0.074021 0.000000
vn 0.000000 0.800131 -0.599825
vn 0.000000 0.800131 -0.599825
vn 0.000000 0.800131 -0.599825
vn 0.000000 0.800131 -0.599825
vn -0.997258 -0.074008 0.000000
vn -0.997258 -0.074008 0.000000
vn -0.997258 -0.074008 0.000000
vn -0.997258 -0.074008 0.000000
s off
g polySurface26667
f 1/1/1 2/2/2 13/3/3 14/4/4
f 21/5/5 22/6/6 23/7/7 24/8/8
f 15/9/9 16/10/10 8/11/11 7/12/12
f 7/12/13 8/11/14 2/13/15 1/14/16
f 2/2/17 8/15/18 16/16/19 13/3/20
f 7/17/21 1/1/22 14/4/23 15/18/24
f 10/19/25 9/20/26 20/21/27 17/22/28
f 11/23/29 10/19/30 17/22/31 18/24/32
f 18/25/33 19/26/34 12/27/35 11/28/36
f 9/20/37 12/29/38 19/30/39 20/21/40
f 14/4/41 13/3/42 9/20/43 10/19/44
f 15/18/45 14/4/46 10/19/47 11/23/48
f 11/28/49 12/27/50 16/10/51 15/9/52
f 13/3/53 16/16/54 12/29/55 9/20/56
f 18/24/57 17/22/58 3/31/59 5/32/60
f 5/33/61 6/34/62 19/26/63 18/25/64
f 20/21/65 19/30/66 6/35/67 4/36/68
f 17/22/69 20/21/70 4/36/71 3/31/72
f 3/31/73 4/36/74 22/6/75 21/5/76
f 4/36/77 6/34/78 23/7/79 22/6/80
f 6/34/81 5/33/82 24/8/83 23/7/84
f 5/33/85 3/31/86 21/5/87 24/8/88
