# This file uses centimeters as units for non-parametric coordinates.

g default
v -133.509521 -0.136045 4.537033
v -126.490479 -0.136045 4.537033
v -133.409485 0.009698 4.410007
v -126.590523 0.009698 4.410007
v -133.409485 0.009698 -2.410007
v -126.590523 0.009698 -2.410007
v -133.509521 -0.136045 -2.537033
v -126.490479 -0.136045 -2.537033
v -133.409485 2.527558 4.410007
v -126.590515 2.527558 4.410007
v -133.409485 2.527558 -2.410007
v -126.590515 2.527558 -2.410007
v -126.590515 -0.035509 -2.410007
v -133.409485 -0.035509 -2.410007
v -133.409485 -0.035509 4.410007
v -126.590515 -0.035509 4.410007
v -131.220505 -0.035509 4.410007
v -131.220505 2.527558 4.410007
v -131.220505 2.527558 -2.410007
v -131.220505 -0.035509 -2.410007
v -128.819077 -0.035509 4.410007
v -128.819077 2.527558 4.410007
v -128.819077 2.527558 -2.410007
v -128.819077 -0.035509 -2.410007
v -133.409485 -0.035509 -0.233928
v -133.409485 2.527558 -0.233928
v -126.590515 2.527558 -0.233928
v -126.590515 -0.035509 -0.233928
v -133.409485 -0.035509 2.180031
v -133.409485 2.527558 2.180031
v -126.590515 2.527558 2.180031
v -126.590515 -0.035509 2.180031
v -133.083771 -0.018418 4.096067
v -131.220276 -0.018418 4.096067
v -131.220291 2.506843 4.092745
v -133.092270 2.506843 4.092745
v -133.092270 2.506843 -0.233807
v -131.220291 2.506843 -2.092744
v -133.092270 2.506843 -2.092744
v -131.220276 -0.018418 -2.096066
v -133.083771 -0.018418 -2.096066
v -133.083771 -0.018418 -0.233808
v -126.916229 -0.018418 -0.233808
v -126.916229 -0.018418 -2.096066
v -126.907730 2.506843 -2.092744
v -126.907730 2.506843 -0.233807
v -128.819168 -0.018418 4.096067
v -128.819168 2.506843 -2.092744
v -128.819168 -0.018418 -2.096066
v -126.916229 -0.018418 4.096067
v -128.819168 2.506843 4.092745
v -126.907730 2.506843 4.092745
v -133.092270 2.506843 2.179832
v -126.907730 2.506843 2.179832
v -126.916229 -0.018418 2.179834
v -133.083771 -0.018418 2.179834
v -133.409698 2.489606 4.410233
v -126.590294 2.489606 4.410233
v -133.409698 2.489606 -2.410231
v -126.590294 2.489606 -2.410231
v -131.222473 2.489606 4.410233
v -131.222473 2.489606 -2.410231
v -128.819031 2.489606 4.410233
v -128.819031 2.489606 -2.410231
v -133.409698 2.489606 -0.232805
v -126.590294 2.489606 -0.232805
v -133.409698 2.489606 2.176098
v -126.590294 2.489606 2.176098
v -130.021729 2.479473 0.970242
v -134.750824 2.918205 -0.792694
v -131.700668 2.918205 -3.954180
v -134.750824 3.405358 -3.954180
v -128.354462 2.918205 -3.954180
v -125.249176 2.918205 -0.792694
v -125.249176 3.405358 -3.954180
v -134.750824 2.918205 2.714390
v -125.249176 2.918205 2.714390
v -134.750824 3.405358 5.954180
v -131.700668 2.918205 5.954180
v -128.354462 2.918205 5.954180
v -125.249176 3.405358 5.954180
v -132.678040 3.379625 0.001896
v -132.677979 3.389261 -1.781511
v -127.333260 3.389274 -1.781508
v -127.332718 3.379634 0.001898
v -132.678040 3.379637 1.954098
v -127.332718 3.379645 1.954096
v -132.677979 3.389279 3.782127
v -127.333260 3.389291 3.782124
v -132.678101 4.894752 0.807478
v -132.677979 4.190924 -0.220109
v -127.332909 4.894757 0.807478
v -127.333260 4.190937 -0.220108
v -132.678101 4.894759 1.148315
v -127.332909 4.894763 1.148315
v -132.677979 4.190942 2.220600
v -127.333260 4.190954 2.220598
v -130.006073 2.489606 4.410233
v -130.007141 2.918205 5.954180
v -129.972992 3.334760 3.782125
v -129.972992 4.092839 2.220600
v -129.972870 4.796651 1.148315
v -129.972870 4.796645 0.807478
v -129.972992 4.092821 -0.220108
v -129.972992 3.334743 -1.781509
v -130.007141 2.918205 -3.954180
v -130.006073 2.489606 -2.410231
v -131.698288 2.737400 -3.944643
v -130.007156 2.737400 -3.944643
v -128.356781 2.737400 -3.944643
v -125.255905 3.217808 -3.944643
v -125.255905 2.737400 -0.789222
v -125.255905 2.737400 2.711020
v -125.255905 3.217808 5.944643
v -128.356781 2.737400 5.944643
v -130.007156 2.737400 5.944643
v -131.698288 2.737400 5.944643
v -134.744095 3.217808 5.944643
v -134.744095 2.737400 2.711020
v -134.744095 2.737400 -0.789222
v -134.744095 3.217808 -3.944643
v -132.678101 5.198664 0.807478
v -129.972870 5.100557 0.807478
v -132.678101 5.198671 1.148315
v -129.972870 5.100564 1.148315
v -127.332909 5.198669 0.807478
v -127.332909 5.198676 1.148315
vt 0.375000 0.000000
vt 0.625000 0.000000
vt 0.375000 0.250000
vt 0.625000 0.250000
vt 0.375000 0.500000
vt 0.625000 0.500000
vt 0.375000 0.750000
vt 0.625000 0.750000
vt 0.375000 1.000000
vt 0.625000 1.000000
vt 0.875000 0.000000
vt 0.125000 0.000000
vt 0.625000 0.737907
vt 0.875000 0.012093
vt 0.125000 0.012093
vt 0.375000 0.737907
vt 0.375000 0.012093
vt 0.625000 0.012093
vt 0.375000 0.006046
vt 0.375000 0.250000
vt 0.455359 0.250000
vt 0.455359 0.006046
vt 0.375000 0.500000
vt 0.375000 0.743954
vt 0.455359 0.743954
vt 0.455359 0.500000
vt 0.795679 0.006046
vt 0.795679 0.250000
vt 0.875000 0.250000
vt 0.875000 0.006046
vt 0.125000 0.006046
vt 0.125000 0.250000
vt 0.204321 0.250000
vt 0.204321 0.006046
vt 0.543743 0.250000
vt 0.625000 0.250000
vt 0.625000 0.006046
vt 0.543743 0.006046
vt 0.543743 0.743954
vt 0.625000 0.743954
vt 0.625000 0.500000
vt 0.543743 0.500000
vt 0.292285 0.006046
vt 0.292285 0.250000
vt 0.707715 0.250000
vt 0.707715 0.006046
vt 0.375000 0.012093
vt 0.455359 0.012093
vt 0.455359 0.250000
vt 0.375000 0.250000
vt 0.375000 0.500000
vt 0.455359 0.500000
vt 0.455359 0.737907
vt 0.375000 0.737907
vt 0.795679 0.012093
vt 0.875000 0.012093
vt 0.875000 0.250000
vt 0.795679 0.250000
vt 0.125000 0.012093
vt 0.204321 0.012093
vt 0.204321 0.250000
vt 0.125000 0.250000
vt 0.543743 0.250000
vt 0.543743 0.012093
vt 0.625000 0.012093
vt 0.625000 0.250000
vt 0.543743 0.737907
vt 0.543743 0.500000
vt 0.625000 0.500000
vt 0.625000 0.737907
vt 0.292285 0.012093
vt 0.292285 0.250000
vt 0.707715 0.012093
vt 0.707715 0.250000
vt 0.455359 0.012093
vt 0.455359 0.250000
vt 0.455359 0.500000
vt 0.455359 0.737907
vt 0.795679 0.250000
vt 0.795679 0.012093
vt 0.204321 0.012093
vt 0.204321 0.250000
vt 0.543743 0.250000
vt 0.543743 0.012093
vt 0.543743 0.737907
vt 0.543743 0.500000
vt 0.292285 0.250000
vt 0.292285 0.012093
vt 0.707715 0.012093
vt 0.707715 0.250000
vt 0.000000 0.000000
vt 0.857665 0.000000
vt 1.000000 0.142647
vt 0.000041 0.142647
vt 0.145787 0.000000
vt 1.000000 0.000000
vt 0.999944 0.146063
vt 0.000000 0.146063
vt 0.000000 0.000000
vt 0.857741 0.000000
vt 1.000000 0.142528
vt 0.000089 0.142528
vt 0.142335 0.142647
vt 1.000000 0.142647
vt 0.999959 0.000000
vt 0.000000 0.000000
vt 0.000000 0.000000
vt 0.999902 0.000000
vt 1.000000 0.145217
vt 0.144900 0.145217
vt 0.142259 0.000000
vt 1.000000 0.000000
vt 0.999911 0.142528
vt 0.000000 0.142528
vt 0.144900 0.000000
vt 1.000000 0.000000
vt 0.999902 0.145217
vt 0.000000 0.145217
vt 0.000000 0.000000
vt 0.854213 0.000000
vt 1.000000 0.146063
vt 0.000056 0.146063
vt 0.000000 0.000000
vt 0.855739 0.000000
vt 1.000000 0.149865
vt 0.000055 0.149865
vt 0.000041 0.000000
vt 1.000000 0.000000
vt 0.853855 0.141065
vt 0.000000 0.141065
vt 0.140769 0.000000
vt 1.000000 0.000000
vt 0.999912 0.146238
vt 0.000000 0.146238
vt 0.000000 0.000000
vt 0.853855 0.000000
vt 1.000000 0.141065
vt 0.000041 0.141065
vt 0.148782 0.000000
vt 1.000000 0.000000
vt 0.999895 0.143607
vt 0.000000 0.143607
vt 0.000000 0.000000
vt 0.859231 0.000000
vt 1.000000 0.146241
vt 0.000088 0.146241
vt 0.144261 0.000000
vt 1.000000 0.000000
vt 0.999945 0.149868
vt 0.000000 0.149868
vt 0.000000 0.143607
vt 0.851218 0.143607
vt 1.000000 0.000000
vt 0.000105 0.000000
vt 0.375000 0.420679
vt 0.375000 0.500000
vt 0.455359 0.500000
vt 0.499551 0.376697
vt 0.455359 0.500000
vt 0.500091 0.500000
vt 0.543743 0.500000
vt 0.625000 0.500000
vt 0.625000 0.420679
vt 0.375000 0.332715
vt 0.375000 0.420679
vt 0.625000 0.420679
vt 0.625000 0.332715
vt 0.375000 0.250000
vt 0.455359 0.250000
vt 0.500091 0.250000
vt 0.625000 0.250000
vt 0.543743 0.250000
vt 0.415179 0.500000
vt 0.415179 0.420679
vt 0.500808 0.420679
vt 0.500808 0.500000
vt 0.415179 0.332715
vt 0.500808 0.332715
vt 0.415179 0.250000
vt 0.500808 0.250000
vt 0.455359 0.500000
vt 0.375000 0.500000
vt 0.375000 0.500000
vt 0.455359 0.500000
vt 0.375000 0.420679
vt 0.375000 0.420679
vt 0.500091 0.500000
vt 0.500091 0.500000
vt 0.625000 0.420679
vt 0.625000 0.500000
vt 0.625000 0.500000
vt 0.625000 0.420679
vt 0.543743 0.500000
vt 0.543743 0.500000
vt 0.375000 0.332715
vt 0.375000 0.332715
vt 0.625000 0.332715
vt 0.625000 0.332715
vt 0.375000 0.250000
vt 0.455359 0.250000
vt 0.455359 0.250000
vt 0.375000 0.250000
vt 0.500091 0.250000
vt 0.500091 0.250000
vt 0.543743 0.250000
vt 0.625000 0.250000
vt 0.625000 0.250000
vt 0.543743 0.250000
vt 0.415179 0.500000
vt 0.375000 0.420679
vt 0.500808 0.500000
vt 0.584372 0.500000
vt 0.625000 0.420679
vt 0.375000 0.332715
vt 0.625000 0.332715
vt 0.415179 0.250000
vt 0.500808 0.250000
vt 0.584372 0.250000
vt 0.584372 0.500000
vt 0.584372 0.250000
vt 0.584372 0.332715
vt 0.584372 0.420679
vt 0.455359 0.500000
vt 0.500091 0.500000
vt 0.543743 0.500000
vt 0.625000 0.500000
vt 0.625000 0.420679
vt 0.625000 0.332715
vt 0.625000 0.250000
vt 0.543743 0.250000
vt 0.500091 0.250000
vt 0.455359 0.250000
vt 0.375000 0.250000
vt 0.375000 0.332715
vt 0.375000 0.420679
vt 0.375000 0.500000
vt 0.500808 0.420679
vt 0.415179 0.420679
vt 0.415179 0.332715
vt 0.500808 0.332715
vt 0.584372 0.420679
vt 0.584372 0.332715
vn 0.000000 1.000000 0.000000
vn 0.000000 1.000000 0.000000
vn 0.000000 1.000000 0.000000
vn 0.000000 1.000000 0.000000
vn 0.000000 -1.000000 0.000000
vn 0.000000 -1.000000 0.000000
vn 0.000000 -1.000000 0.000000
vn 0.000000 -1.000000 0.000000
vn 0.000000 0.657040 -0.753856
vn 0.000000 0.657040 -0.753856
vn 0.000000 0.657040 -0.753856
vn 0.000000 0.657040 -0.753856
vn -0.824456 0.565926 0.000000
vn -0.824456 0.565926 0.000000
vn -0.824456 0.565926 0.000000
vn -0.824456 0.565926 0.000000
vn 0.000000 0.657040 0.753856
vn 0.000000 0.657040 0.753856
vn 0.000000 0.657040 0.753856
vn 0.000000 0.657040 0.753856
vn 0.824474 0.565900 0.000000
vn 0.824474 0.565900 0.000000
vn 0.824474 0.565900 0.000000
vn 0.824474 0.565900 0.000000
vn 0.000000 -0.001316 -0.999999
vn 0.000000 -0.001316 -0.999999
vn 0.000000 -0.001316 -0.999999
vn 0.000000 -0.001316 -0.999999
vn 0.000000 -0.001316 0.999999
vn 0.000000 -0.001316 0.999999
vn 0.000000 -0.001316 0.999999
vn 0.000000 -0.001316 0.999999
vn -0.999994 0.003364 0.000000
vn -0.999994 0.003364 0.000000
vn -0.999994 0.003364 0.000000
vn -0.999994 0.003364 0.000000
vn 0.999994 0.003368 0.000000
vn 0.999994 0.003368 0.000000
vn 0.999994 0.003368 0.000000
vn 0.999994 0.003368 0.000000
vn 0.000000 -0.001316 -0.999999
vn 0.000000 -0.001316 -0.999999
vn 0.000000 -0.001316 -0.999999
vn 0.000000 -0.001316 -0.999999
vn 0.000000 -0.001316 0.999999
vn 0.000000 -0.001316 0.999999
vn 0.000000 -0.001316 0.999999
vn 0.000000 -0.001316 0.999999
vn 0.999994 0.003367 0.000000
vn 0.999994 0.003367 0.000000
vn 0.999994 0.003367 0.000000
vn 0.999994 0.003367 0.000000
vn -0.999994 0.003367 0.000000
vn -0.999994 0.003367 0.000000
vn -0.999994 0.003367 0.000000
vn -0.999994 0.003367 0.000000
vn 0.000000 0.000000 1.000000
vn 0.000000 0.000000 1.000000
vn 0.000000 0.000000 1.000000
vn 0.000000 0.000000 1.000000
vn 0.000000 0.000000 -1.000000
vn 0.000000 0.000000 -1.000000
vn 0.000000 0.000000 -1.000000
vn 0.000000 0.000000 -1.000000
vn 1.000000 0.000000 0.000000
vn 1.000000 0.000000 0.000000
vn 1.000000 0.000000 0.000000
vn 1.000000 0.000000 0.000000
vn -1.000000 0.000000 0.000000
vn -1.000000 0.000000 0.000000
vn -1.000000 0.000000 0.000000
vn -1.000000 0.000000 0.000000
vn 0.000000 0.000000 1.000000
vn 0.000000 0.000000 1.000000
vn 0.000000 0.000000 1.000000
vn 0.000000 0.000000 1.000000
vn 0.000000 0.000000 -1.000000
vn 0.000000 0.000000 -1.000000
vn 0.000000 0.000000 -1.000000
vn 0.000000 0.000000 -1.000000
vn -1.000000 0.000000 0.000000
vn -1.000000 0.000000 0.000000
vn -1.000000 0.000000 0.000000
vn -1.000000 0.000000 0.000000
vn 1.000000 0.000000 0.000000
vn 1.000000 0.000000 0.000000
vn 1.000000 0.000000 0.000000
vn 1.000000 0.000000 0.000000
vn 1.000000 0.000000 0.000701
vn 1.000000 0.000000 0.000701
vn 1.000000 0.000000 0.000701
vn 1.000000 0.000000 0.000701
vn 1.000000 0.000000 -0.000701
vn 1.000000 0.000000 -0.000701
vn 1.000000 0.000000 -0.000701
vn 1.000000 0.000000 -0.000701
vn 0.000375 -0.000001 1.000000
vn 0.000375 -0.000001 1.000000
vn 0.000375 -0.000001 1.000000
vn 0.000375 -0.000001 1.000000
vn -0.000375 -0.000001 1.000000
vn -0.000375 -0.000001 1.000000
vn -0.000375 -0.000001 1.000000
vn -0.000375 -0.000001 1.000000
vn -1.000000 0.000000 0.000290
vn -1.000000 0.000000 0.000290
vn -1.000000 0.000000 0.000290
vn -1.000000 0.000000 0.000290
vn -1.000000 0.000000 -0.000290
vn -1.000000 0.000000 -0.000290
vn -1.000000 0.000000 -0.000290
vn -1.000000 0.000000 -0.000290
vn -0.000614 -0.000001 -1.000000
vn -0.000614 -0.000001 -1.000000
vn -0.000614 -0.000001 -1.000000
vn -0.000614 -0.000001 -1.000000
vn 0.000614 -0.000001 -1.000000
vn 0.000614 -0.000001 -1.000000
vn 0.000614 -0.000001 -1.000000
vn 0.000614 -0.000001 -1.000000
vn 0.000000 0.997875 0.065154
vn -0.032617 0.998936 0.032612
vn -0.032617 0.998936 0.032612
vn 0.000000 0.997875 0.065154
vn -0.065165 0.997874 0.000000
vn -0.065165 0.997874 0.000000
vn -0.065163 0.997875 0.000000
vn -0.032616 0.998936 -0.032612
vn -0.032616 0.998936 -0.032612
vn -0.065163 0.997875 0.000000
vn 0.000000 0.997875 -0.065154
vn 0.000000 0.997875 -0.065154
vn 0.032618 0.998936 -0.032612
vn 0.000000 0.997875 -0.065155
vn 0.000000 0.997875 -0.065155
vn 0.032618 0.998936 -0.032612
vn 0.065167 0.997874 0.000000
vn 0.065167 0.997874 0.000000
vn 0.032619 0.998936 0.032612
vn 0.000000 0.997875 0.065155
vn 0.000000 0.997875 0.065155
vn 0.032619 0.998936 0.032612
vn 0.065168 0.997874 0.000000
vn 0.065168 0.997874 0.000000
vn -0.052401 -0.998626 0.000000
vn -0.026219 -0.999286 0.027199
vn -0.026219 -0.999286 0.027199
vn -0.052401 -0.998626 0.000000
vn 0.000000 -0.998521 0.054359
vn 0.000000 -0.998521 0.054359
vn -0.026218 -0.999286 -0.027199
vn -0.052398 -0.998626 0.000000
vn -0.052398 -0.998626 0.000000
vn -0.026218 -0.999286 -0.027199
vn 0.000000 -0.998521 -0.054359
vn 0.000000 -0.998521 -0.054359
vn 0.026218 -0.999286 -0.027199
vn 0.000000 -0.998521 -0.054359
vn 0.000000 -0.998521 -0.054359
vn 0.026218 -0.999286 -0.027199
vn 0.052398 -0.998626 0.000000
vn 0.052398 -0.998626 0.000000
vn 0.026219 -0.999286 0.027199
vn 0.052401 -0.998626 0.000000
vn 0.052401 -0.998626 0.000000
vn 0.026219 -0.999286 0.027199
vn 0.000000 -0.998521 0.054359
vn 0.000000 -0.998521 0.054359
vn -0.118228 -0.992741 -0.022074
vn -0.125563 -0.985355 -0.115370
vn -0.022628 -0.994192 -0.105218
vn -0.000008 -1.000000 -0.000017
vn 0.000000 -0.996676 -0.081462
vn 0.022215 -0.994167 -0.105543
vn 0.125018 -0.985372 -0.115813
vn 0.118212 -0.992743 -0.022075
vn -0.118792 -0.992686 0.021522
vn 0.118777 -0.992688 0.021523
vn -0.126327 -0.985342 0.114646
vn -0.022630 -0.994194 0.105197
vn 0.000000 -0.996679 0.081437
vn 0.125783 -0.985360 0.115088
vn 0.022217 -0.994169 0.105522
vn 0.027634 0.861528 -0.506958
vn 0.029908 0.824661 -0.564836
vn -0.000371 0.825033 -0.565085
vn -0.000343 0.861858 -0.507150
vn -0.000449 1.000000 -0.000019
vn 0.036242 0.999343 -0.000020
vn 0.036242 0.999343 -0.000020
vn -0.000449 1.000000 -0.000019
vn -0.000376 0.836004 0.548723
vn 0.030305 0.835618 0.548474
vn 0.027816 0.866483 0.498431
vn -0.000345 0.866819 0.498622
vn -0.186756 -0.967315 -0.171531
vn -0.044305 -0.977287 -0.207238
vn -0.232820 -0.971563 -0.043137
vn 0.000000 -0.987210 -0.159425
vn 0.185964 -0.967349 -0.172199
vn 0.232820 -0.971563 -0.043137
vn 0.043493 -0.977187 -0.207878
vn -0.233927 -0.971344 0.042053
vn 0.233928 -0.971344 0.042053
vn -0.044305 -0.977287 0.207239
vn -0.187905 -0.967280 0.170475
vn 0.000000 -0.987210 0.159425
vn 0.187115 -0.967315 0.171143
vn 0.043493 -0.977187 0.207878
vn 0.084389 0.981797 -0.170154
vn -0.009975 0.999706 -0.022121
vn 0.004586 0.984267 -0.176627
vn -0.196754 0.979214 0.049271
vn -0.196754 0.979214 0.049271
vn -0.000152 0.980320 -0.197414
vn -0.000235 0.945733 -0.324946
vn 0.195768 0.979412 0.049272
vn 0.010872 0.999716 -0.021218
vn -0.004371 0.984370 -0.176058
vn 0.195768 0.979412 0.049272
vn -0.083197 0.982085 -0.169077
vn -0.195551 0.979513 -0.048111
vn -0.195551 0.979513 -0.048111
vn 0.194570 0.979708 -0.048111
vn 0.194570 0.979708 -0.048111
vn -0.008752 0.999690 0.023322
vn 0.084389 0.981788 0.170209
vn 0.005198 0.984162 0.177194
vn -0.000152 0.980308 0.197475
vn -0.000235 0.945728 0.324959
vn -0.083196 0.982076 0.169130
vn 0.009654 0.999702 0.022419
vn -0.004981 0.984266 0.176625
vn -1.000000 0.000063 -0.000034
vn -1.000000 0.000073 -0.000017
vn -1.000000 -0.000013 -0.000011
vn -1.000000 0.000075 0.000017
vn -1.000000 0.000067 0.000033
vn -1.000000 -0.000012 0.000011
vn 1.000000 0.000251 -0.000100
vn 1.000000 0.000250 0.000098
vn 1.000000 0.000625 0.000147
vn 1.000000 0.000627 -0.000150
vn 1.000000 0.000577 0.000293
vn 1.000000 0.000581 -0.000301
vn 1.000000 -0.000249 0.000000
vn 1.000000 -0.000249 0.000000
vn -1.000000 -0.000094 0.000000
vn -1.000000 -0.000094 0.000000
vn -0.028506 0.866468 0.498419
vn -0.031056 0.835603 0.548456
vn -0.037139 0.999310 -0.000018
vn -0.037139 0.999310 -0.000018
vn -0.030649 0.824648 -0.564815
vn -0.028320 0.861513 -0.506945
vn 0.000000 -0.052673 -0.998612
vn -0.004120 -0.052293 -0.998623
vn -0.004120 -0.052293 -0.998623
vn 0.000000 -0.052673 -0.998612
vn 0.004046 -0.052290 -0.998624
vn 0.004046 -0.052290 -0.998624
vn 0.008093 -0.051907 -0.998619
vn 0.008093 -0.051907 -0.998619
vn 0.999315 -0.036905 -0.002811
vn 0.999312 -0.036661 -0.005623
vn 0.999312 -0.036661 -0.005623
vn 0.999315 -0.036905 -0.002811
vn 0.999315 -0.036919 0.002743
vn 0.999315 -0.036919 0.002743
vn 0.999312 -0.036689 0.005486
vn 0.999312 -0.036689 0.005486
vn 0.004046 -0.052290 0.998624
vn 0.008092 -0.051907 0.998619
vn 0.008092 -0.051907 0.998619
vn 0.004046 -0.052290 0.998624
vn 0.000000 -0.052673 0.998612
vn 0.000000 -0.052673 0.998612
vn -0.004120 -0.052293 0.998623
vn -0.004120 -0.052293 0.998623
vn -0.008240 -0.051912 0.998618
vn -0.008240 -0.051912 0.998618
vn -0.999314 -0.036927 0.002743
vn -0.999313 -0.036665 0.005486
vn -0.999313 -0.036665 0.005486
vn -0.999314 -0.036927 0.002743
vn -0.999312 -0.036974 -0.002811
vn -0.999312 -0.036974 -0.002811
vn -0.999308 -0.036761 -0.005623
vn -0.999308 -0.036761 -0.005623
vn -0.008240 -0.051912 -0.998618
vn -0.008240 -0.051912 -0.998618
vn 0.000000 0.000000 -1.000000
vn 0.000000 0.000000 -1.000000
vn 0.000000 0.000000 -1.000000
vn 0.000000 0.000000 -1.000000
vn -1.000000 0.000000 0.000000
vn -1.000000 0.000000 0.000000
vn 0.000000 0.000000 1.000000
vn 0.000000 0.000000 1.000000
vn 0.000000 0.000000 1.000000
vn 0.000000 0.000000 1.000000
vn 0.000000 0.000000 -1.000000
vn 0.000000 0.000000 -1.000000
vn 0.000000 0.000000 1.000000
vn 0.000000 0.000000 1.000000
vn 1.000000 0.000000 0.000000
vn 1.000000 0.000000 0.000000
s off
g polySurface26673
f 6/6/1 5/5/2 3/3/3 4/4/4
f 7/7/5 8/8/6 2/10/7 1/9/8
f 7/7/9 5/16/10 6/13/11 8/8/12
f 3/17/13 5/15/14 7/12/15 1/1/16
f 3/17/17 1/1/18 2/2/19 4/18/20
f 8/11/21 6/14/22 4/18/23 2/2/24
f 33/19/25 36/20/26 35/21/27 34/22/28
f 39/23/29 41/24/30 40/25/31 38/26/32
f 43/27/33 46/28/34 45/29/35 44/30/36
f 41/31/37 39/32/38 37/33/39 42/34/40
f 51/35/41 52/36/42 50/37/43 47/38/44
f 49/39/45 44/40/46 45/41/47 48/42/48
f 56/43/49 53/44/50 36/20/51 33/19/52
f 50/37/53 52/36/54 54/45/55 55/46/56
f 15/47/57 17/48/58 18/49/59 9/50/60
f 11/51/61 19/52/62 20/53/63 14/54/64
f 28/55/65 13/56/66 12/57/67 27/58/68
f 14/59/69 25/60/70 26/61/71 11/62/72
f 22/63/73 21/64/74 16/65/75 10/66/76
f 24/67/77 23/68/78 12/69/79 13/70/80
f 29/71/81 15/47/82 9/50/83 30/72/84
f 16/65/85 32/73/86 31/74/87 10/66/88
f 17/75/89 34/22/90 35/21/91 18/76/92
f 19/77/93 38/26/94 40/25/95 20/78/96
f 27/79/97 46/28/98 43/27/99 28/80/100
f 25/81/101 42/34/102 37/33/103 26/82/104
f 22/83/105 51/35/106 47/38/107 21/84/108
f 24/85/109 49/39/110 48/42/111 23/86/112
f 30/87/113 53/44/114 56/43/115 29/88/116
f 32/89/117 55/46/118 54/45/119 31/90/120
s 31
f 48/91/121 45/92/122 12/93/123 23/94/124
f 45/95/122 46/96/125 27/97/126 12/98/123
s 32
f 54/99/127 52/100/128 10/101/129 31/102/130
f 52/103/128 51/104/131 22/105/132 10/106/129
s 33
f 9/107/133 18/108/134 35/109/135 36/110/136
f 36/111/136 53/112/137 30/113/138 9/114/133
s 34
f 39/115/139 38/116/140 19/117/141 11/118/142
f 37/119/143 39/120/139 11/121/142 26/122/144
s 35
f 43/123/145 44/124/146 13/125/147 28/126/148
f 24/127/149 13/128/147 44/129/146 49/130/150
s 36
f 50/131/151 55/132/152 32/133/153 16/134/154
f 47/135/155 50/136/151 16/137/154 21/138/156
s 37
f 33/139/157 34/140/158 17/141/159 15/142/160
f 56/143/161 33/144/157 15/145/160 29/146/162
s 38
f 41/147/163 42/148/164 25/149/165 14/150/166
f 40/151/167 41/152/163 14/153/166 20/154/168
s 39
f 65/155/169 59/156/170 62/157/171 69/158/172
f 62/159/171 107/160/173 69/158/172
f 64/161/174 60/162/175 66/163/176 69/158/172
f 67/164/177 65/165/169 69/158/172
f 66/166/176 68/167/178 69/158/172
f 57/168/179 67/164/177 69/158/172 61/169/180
f 69/158/172 98/170/181 61/169/180
f 68/167/178 58/171/182 63/172/183 69/158/172
s 40
f 91/173/184 90/174/185 103/175/186 104/176/187
s 41
f 123/237/188 122/238/189 124/239/190 125/240/191
s 40
f 102/178/192 94/177/193 96/179/194 101/180/195
s 39
f 62/181/171 59/182/170 121/236/196 108/223/197
f 59/182/170 65/185/169 120/235/198 121/236/196
f 107/187/173 62/181/171 108/223/197 109/224/199
f 66/189/176 60/190/175 111/226/200 112/227/201
f 60/190/175 64/193/174 110/225/202 111/226/200
f 65/185/169 67/195/177 119/234/203 120/235/198
f 68/197/178 66/189/176 112/227/201 113/228/204
f 57/199/179 61/200/180 117/232/205 118/233/206
f 67/195/177 57/199/179 118/233/206 119/234/203
f 61/200/180 98/203/181 116/231/207 117/232/205
f 63/205/183 58/206/182 114/229/208 115/230/209
f 58/206/182 68/197/178 113/228/204 114/229/208
s 40
f 71/184/210 72/183/211 83/209/212
f 72/183/211 70/186/213 82/210/214 83/209/212
f 106/188/215 71/184/210 83/209/212 105/211/216
f 74/192/217 75/191/218 84/212/219 85/213/220
f 75/191/218 73/194/221 84/212/219
f 70/186/213 76/196/222 86/214/223 82/210/214
f 77/198/224 74/192/217 85/213/220 87/215/225
f 78/202/226 79/201/227 88/216/228
f 76/196/222 78/202/226 88/216/228 86/214/223
f 79/201/227 99/204/229 100/217/230 88/216/228
f 80/208/231 81/207/232 89/218/233
f 81/207/232 77/198/224 87/215/225 89/218/233
s 42
f 83/209/234 82/210/235 91/173/236
s 40
f 105/211/216 83/209/212 91/173/184 104/176/187
s 42
f 86/214/237 88/216/238 96/179/239
s 40
f 88/216/228 100/217/230 101/180/195 96/179/194
s 43
f 93/219/240 97/220/241 87/215/242 85/213/243
f 89/218/244 87/215/242 97/220/241
f 85/213/243 84/212/245 93/219/240
s 42
f 96/179/239 91/173/236 82/210/235 86/214/237
s 43
f 95/221/246 97/220/241 93/219/240 92/222/247
s 42
f 94/177/248 90/174/249 91/173/236 96/179/239
s 39
f 98/203/181 63/205/183 115/230/209 116/231/207
s 40
f 100/217/230 99/204/229 80/208/231 89/218/233
f 101/180/195 100/217/230 89/218/233 97/220/250
f 95/221/251 102/178/192 101/180/195 97/220/250
s 41
f 126/241/252 123/237/188 125/240/191 127/242/253
s 40
f 104/176/187 103/175/186 92/222/254 93/219/255
f 84/212/219 105/211/216 104/176/187 93/219/255
f 73/194/221 106/188/215 105/211/216 84/212/219
s 39
f 64/193/174 107/187/173 109/224/199 110/225/202
f 69/158/172 107/160/173 64/161/174
f 69/158/172 63/172/183 98/170/181
s 44
f 109/224/256 108/223/257 71/184/258 106/188/259
f 110/225/260 109/224/256 106/188/259 73/194/261
f 111/226/262 110/225/260 73/194/261 75/191/263
s 45
f 112/227/264 111/226/265 75/191/266 74/192/267
f 113/228/268 112/227/264 74/192/267 77/198/269
f 114/229/270 113/228/268 77/198/269 81/207/271
s 46
f 115/230/272 114/229/273 81/207/274 80/208/275
f 116/231/276 115/230/272 80/208/275 99/204/277
f 117/232/278 116/231/276 99/204/277 79/201/279
f 118/233/280 117/232/278 79/201/279 78/202/281
s 47
f 119/234/282 118/233/283 78/202/284 76/196/285
f 120/235/286 119/234/282 76/196/285 70/186/287
f 121/236/288 120/235/286 70/186/287 72/183/289
s 44
f 108/223/257 121/236/290 72/183/291 71/184/258
s 48
f 103/175/292 90/174/293 122/238/294 123/237/295
s 42
f 90/174/249 94/177/248 124/239/296 122/238/297
s 49
f 94/177/298 102/178/299 125/240/300 124/239/301
s 48
f 92/222/302 103/175/292 123/237/295 126/241/303
s 49
f 102/178/299 95/221/304 127/242/305 125/240/300
s 43
f 95/221/246 92/222/247 126/241/306 127/242/307
