# This file uses centimeters as units for non-parametric coordinates.

g default
v -32.243988 -0.104382 3.773618
v -31.803967 -0.104382 4.213639
v -32.359329 1.997595 3.819875
v -31.850224 1.997595 4.328980
v -31.715149 1.997595 3.175694
v -31.206043 1.997595 3.684800
v -31.773399 -0.104382 3.303029
v -31.333378 -0.104382 3.743051
v -31.795738 0.837498 4.109178
v -32.139538 0.837498 3.765382
v -31.781651 0.837498 3.407495
v -31.437851 0.837498 3.751292
v -31.797779 0.807170 4.116811
v -32.147156 0.807170 3.767432
v -31.779583 0.807170 3.399858
v -31.430206 0.807170 3.749236
v -32.139690 1.949998 3.765313
v -31.781689 1.949998 3.407311
v -31.437649 1.949998 3.751355
v -31.795650 1.949998 4.109357
v -32.100399 2.288281 3.530435
v -31.560780 2.288281 4.070050
v -31.464973 2.288281 3.974244
v -32.004593 2.288281 3.434628
v -31.764860 -0.104382 4.021994
v -26.308268 -0.104382 4.021994
v -31.764860 1.534778 4.119736
v -26.308268 1.534778 4.119736
v -31.764860 1.534778 3.382753
v -26.308268 1.534778 3.382753
v -31.764860 -0.104382 3.480495
v -26.308268 -0.104382 3.480495
v -26.308268 0.816446 3.949688
v -31.764860 0.816446 3.949688
v -31.764860 0.816446 3.552801
v -26.308268 0.816446 3.552801
v -26.308268 0.786118 3.967340
v -31.764860 0.786118 3.967340
v -31.764860 0.786118 3.535151
v -26.308268 0.786118 3.535151
v -31.764860 1.509606 3.948790
v -31.764860 1.509606 3.553703
v -26.308268 1.509606 3.553703
v -26.308268 1.509606 3.948790
v -31.764860 1.788302 3.806051
v -26.308268 1.788302 3.806051
v -26.308268 1.788302 3.696440
v -31.764860 1.788302 3.696440
v -26.388908 -0.104382 4.092480
v -25.766628 -0.104382 4.092480
v -26.437759 1.997595 4.206747
v -25.717777 1.997595 4.206747
v -26.437759 1.997595 3.295740
v -25.717777 1.997595 3.295740
v -26.388908 -0.104382 3.426968
v -25.766628 -0.104382 3.426968
v -25.834675 0.837498 4.012798
v -26.320877 0.837498 4.012798
v -26.320877 0.837498 3.506672
v -25.834675 0.837498 3.506672
v -25.830719 0.807170 4.019638
v -26.324814 0.807170 4.019638
v -26.324814 0.807170 3.499809
v -25.830719 0.807170 3.499809
v -26.321033 1.949998 4.012861
v -26.321033 1.949998 3.506569
v -25.834484 1.949998 3.506569
v -25.834484 1.949998 4.012861
v -26.459335 2.288281 3.818991
v -25.696198 2.288281 3.818991
v -25.696198 2.288281 3.683500
v -26.459335 2.288281 3.683500
v -31.453297 -0.104382 -1.636270
v -31.453297 -0.104382 -2.258550
v -31.339029 1.997595 -1.587419
v -31.339029 1.997595 -2.307401
v -32.250038 1.997595 -1.587419
v -32.250038 1.997595 -2.307401
v -32.118809 -0.104382 -1.636270
v -32.118809 -0.104382 -2.258550
v -31.532978 0.837498 -2.190503
v -31.532978 0.837498 -1.704301
v -32.039104 0.837498 -1.704301
v -32.039104 0.837498 -2.190503
v -31.526138 0.807170 -2.194459
v -31.526138 0.807170 -1.700364
v -32.045967 0.807170 -1.700364
v -32.045967 0.807170 -2.194459
v -31.532915 1.949998 -1.704144
v -32.039207 1.949998 -1.704144
v -32.039207 1.949998 -2.190694
v -31.532915 1.949998 -2.190694
v -31.726786 2.288281 -1.565843
v -31.726786 2.288281 -2.328980
v -31.862276 2.288281 -2.328980
v -31.862276 2.288281 -1.565843
v -31.511457 -0.104382 3.739682
v -31.511457 -0.104382 -1.716910
v -31.413715 1.534778 3.739682
v -31.413715 1.534778 -1.716910
v -32.150696 1.534778 3.739682
v -32.150696 1.534778 -1.716910
v -32.052956 -0.104382 3.739682
v -32.052956 -0.104382 -1.716910
v -31.583763 0.816446 -1.716910
v -31.583763 0.816446 3.739682
v -31.980650 0.816446 3.739682
v -31.980650 0.816446 -1.716910
v -31.566111 0.786118 -1.716910
v -31.566111 0.786118 3.739682
v -31.998301 0.786118 3.739682
v -31.998301 0.786118 -1.716910
v -31.584661 1.509606 3.739682
v -31.979748 1.509606 3.739682
v -31.979748 1.509606 -1.716910
v -31.584661 1.509606 -1.716910
v -31.727400 1.788302 3.739682
v -31.727400 1.788302 -1.716910
v -31.837011 1.788302 -1.716910
v -31.837011 1.788302 3.739682
vt 0.375000 0.000000
vt 0.625000 0.000000
vt 0.625000 0.069794
vt 0.375000 0.069794
vt 0.375000 0.250000
vt 0.625000 0.250000
vt 0.625000 0.500000
vt 0.375000 0.500000
vt 0.375000 0.680206
vt 0.625000 0.680206
vt 0.625000 0.750000
vt 0.375000 0.750000
vt 0.625000 1.000000
vt 0.375000 1.000000
vt 0.875000 0.000000
vt 0.875000 0.069794
vt 0.125000 0.000000
vt 0.125000 0.069794
vt 0.375000 0.127069
vt 0.625000 0.127069
vt 0.625000 0.244584
vt 0.375000 0.244584
vt 0.125000 0.127069
vt 0.125000 0.244584
vt 0.375000 0.505416
vt 0.625000 0.505416
vt 0.625000 0.622931
vt 0.375000 0.622931
vt 0.875000 0.127069
vt 0.875000 0.244584
vt 0.375000 0.250000
vt 0.125000 0.250000
vt 0.375000 0.500000
vt 0.625000 0.500000
vt 0.875000 0.250000
vt 0.625000 0.250000
vt 0.375000 0.000000
vt 0.625000 0.000000
vt 0.625000 0.069794
vt 0.375000 0.069794
vt 0.375000 0.250000
vt 0.625000 0.250000
vt 0.625000 0.500000
vt 0.375000 0.500000
vt 0.375000 0.680206
vt 0.625000 0.680206
vt 0.625000 0.750000
vt 0.375000 0.750000
vt 0.625000 1.000000
vt 0.375000 1.000000
vt 0.875000 0.000000
vt 0.875000 0.069794
vt 0.125000 0.000000
vt 0.125000 0.069794
vt 0.375000 0.127069
vt 0.625000 0.127069
vt 0.625000 0.244584
vt 0.375000 0.244584
vt 0.125000 0.127069
vt 0.125000 0.244584
vt 0.375000 0.505416
vt 0.625000 0.505416
vt 0.625000 0.622931
vt 0.375000 0.622931
vt 0.875000 0.127069
vt 0.875000 0.244584
vt 0.375000 0.250000
vt 0.125000 0.250000
vt 0.375000 0.500000
vt 0.625000 0.500000
vt 0.875000 0.250000
vt 0.625000 0.250000
vt 0.375000 0.000000
vt 0.625000 0.000000
vt 0.625000 0.069794
vt 0.375000 0.069794
vt 0.375000 0.250000
vt 0.625000 0.250000
vt 0.625000 0.500000
vt 0.375000 0.500000
vt 0.375000 0.680206
vt 0.625000 0.680206
vt 0.625000 0.750000
vt 0.375000 0.750000
vt 0.625000 1.000000
vt 0.375000 1.000000
vt 0.875000 0.000000
vt 0.875000 0.069794
vt 0.125000 0.000000
vt 0.125000 0.069794
vt 0.375000 0.127069
vt 0.625000 0.127069
vt 0.625000 0.244584
vt 0.375000 0.244584
vt 0.125000 0.127069
vt 0.125000 0.244584
vt 0.375000 0.505416
vt 0.625000 0.505416
vt 0.625000 0.622931
vt 0.375000 0.622931
vt 0.875000 0.127069
vt 0.875000 0.244584
vt 0.375000 0.250000
vt 0.125000 0.250000
vt 0.375000 0.500000
vt 0.625000 0.500000
vt 0.875000 0.250000
vt 0.625000 0.250000
vt 0.375000 0.000000
vt 0.625000 0.000000
vt 0.625000 0.069794
vt 0.375000 0.069794
vt 0.375000 0.250000
vt 0.625000 0.250000
vt 0.625000 0.500000
vt 0.375000 0.500000
vt 0.375000 0.680206
vt 0.625000 0.680206
vt 0.625000 0.750000
vt 0.375000 0.750000
vt 0.625000 1.000000
vt 0.375000 1.000000
vt 0.875000 0.000000
vt 0.875000 0.069794
vt 0.125000 0.000000
vt 0.125000 0.069794
vt 0.375000 0.127069
vt 0.625000 0.127069
vt 0.625000 0.244584
vt 0.375000 0.244584
vt 0.125000 0.127069
vt 0.125000 0.244584
vt 0.375000 0.505416
vt 0.625000 0.505416
vt 0.625000 0.622931
vt 0.375000 0.622931
vt 0.875000 0.127069
vt 0.875000 0.244584
vt 0.375000 0.250000
vt 0.125000 0.250000
vt 0.375000 0.500000
vt 0.625000 0.500000
vt 0.875000 0.250000
vt 0.625000 0.250000
vt 0.375000 0.000000
vt 0.625000 0.000000
vt 0.625000 0.069794
vt 0.375000 0.069794
vt 0.375000 0.250000
vt 0.625000 0.250000
vt 0.625000 0.500000
vt 0.375000 0.500000
vt 0.375000 0.680206
vt 0.625000 0.680206
vt 0.625000 0.750000
vt 0.375000 0.750000
vt 0.625000 1.000000
vt 0.375000 1.000000
vt 0.875000 0.000000
vt 0.875000 0.069794
vt 0.125000 0.000000
vt 0.125000 0.069794
vt 0.375000 0.127069
vt 0.625000 0.127069
vt 0.625000 0.244584
vt 0.375000 0.244584
vt 0.125000 0.127069
vt 0.125000 0.244584
vt 0.375000 0.505416
vt 0.625000 0.505416
vt 0.625000 0.622931
vt 0.375000 0.622931
vt 0.875000 0.127069
vt 0.875000 0.244584
vt 0.375000 0.250000
vt 0.125000 0.250000
vt 0.375000 0.500000
vt 0.625000 0.500000
vt 0.875000 0.250000
vt 0.625000 0.250000
vn -0.704860 0.079661 0.704859
vn -0.704860 0.079661 0.704859
vn -0.704860 0.079661 0.704859
vn -0.704860 0.079661 0.704859
vn 0.000000 1.000000 0.000000
vn 0.000000 1.000000 0.000000
vn 0.000000 1.000000 0.000000
vn 0.000000 1.000000 0.000000
vn 0.704861 0.079656 -0.704859
vn 0.704861 0.079656 -0.704859
vn 0.704861 0.079656 -0.704859
vn 0.704861 0.079656 -0.704859
vn 0.000000 -1.000000 0.000000
vn 0.000000 -1.000000 0.000000
vn 0.000000 -1.000000 0.000000
vn 0.000000 -1.000000 0.000000
vn 0.705366 0.070139 0.705365
vn 0.705366 0.070139 0.705365
vn 0.705366 0.070139 0.705365
vn 0.705366 0.070139 0.705365
vn -0.705366 0.070144 -0.705364
vn -0.705366 0.070144 -0.705364
vn -0.705366 0.070144 -0.705364
vn -0.705366 0.070144 -0.705364
vn -0.707106 -0.000055 0.707107
vn -0.707106 -0.000055 0.707107
vn -0.707106 -0.000055 0.707107
vn -0.707106 -0.000055 0.707107
vn -0.707107 -0.000140 -0.707107
vn -0.707107 -0.000140 -0.707107
vn -0.707107 -0.000140 -0.707107
vn -0.707107 -0.000140 -0.707107
vn 0.707108 -0.000090 -0.707106
vn 0.707108 -0.000090 -0.707106
vn 0.707108 -0.000090 -0.707106
vn 0.707108 -0.000090 -0.707106
vn 0.707106 -0.000170 0.707108
vn 0.707106 -0.000170 0.707108
vn 0.707106 -0.000170 0.707108
vn 0.707106 -0.000170 0.707108
vn -0.689793 0.219930 0.689795
vn -0.689793 0.219930 0.689795
vn -0.689793 0.219930 0.689795
vn -0.689793 0.219930 0.689795
vn -0.701223 0.128740 -0.701222
vn -0.701223 0.128740 -0.701222
vn -0.701223 0.128740 -0.701222
vn -0.701223 0.128740 -0.701222
vn 0.689680 0.220642 -0.689680
vn 0.689680 0.220642 -0.689680
vn 0.689680 0.220642 -0.689680
vn 0.689680 0.220642 -0.689680
vn 0.701171 0.129303 0.701171
vn 0.701171 0.129303 0.701171
vn 0.701171 0.129303 0.701171
vn 0.701171 0.129303 0.701171
vn -0.266987 -0.925979 -0.266986
vn -0.266987 -0.925979 -0.266986
vn -0.266987 -0.925979 -0.266986
vn -0.266987 -0.925979 -0.266986
vn 0.155717 -0.975451 -0.155717
vn 0.155717 -0.975451 -0.155717
vn 0.155717 -0.975451 -0.155717
vn 0.155717 -0.975451 -0.155717
vn 0.267026 -0.925956 0.267025
vn 0.267026 -0.925956 0.267025
vn 0.267026 -0.925956 0.267025
vn 0.267026 -0.925956 0.267025
vn -0.168581 -0.971165 0.168580
vn -0.168581 -0.971165 0.168580
vn -0.168581 -0.971165 0.168580
vn -0.168581 -0.971165 0.168580
vn -0.424141 0.800130 0.424142
vn -0.424141 0.800130 0.424142
vn -0.424141 0.800130 0.424142
vn -0.424141 0.800130 0.424142
vn 0.705166 -0.074027 0.705167
vn 0.705166 -0.074027 0.705167
vn 0.705166 -0.074027 0.705167
vn 0.705166 -0.074027 0.705167
vn 0.424139 0.800132 -0.424140
vn 0.424139 0.800132 -0.424140
vn 0.424139 0.800132 -0.424140
vn 0.424139 0.800132 -0.424140
vn -0.705167 -0.074014 -0.705168
vn -0.705167 -0.074014 -0.705168
vn -0.705167 -0.074014 -0.705168
vn -0.705167 -0.074014 -0.705168
vn 0.000000 0.061258 0.998122
vn 0.000000 0.061258 0.998122
vn 0.000000 0.061258 0.998122
vn 0.000000 0.061258 0.998122
vn 0.000000 1.000000 0.000000
vn 0.000000 1.000000 0.000000
vn 0.000000 1.000000 0.000000
vn 0.000000 1.000000 0.000000
vn 0.000000 0.061260 -0.998122
vn 0.000000 0.061260 -0.998122
vn 0.000000 0.061260 -0.998122
vn 0.000000 0.061260 -0.998122
vn 0.000000 -1.000000 0.000000
vn 0.000000 -1.000000 0.000000
vn 0.000000 -1.000000 0.000000
vn 0.000000 -1.000000 0.000000
vn 1.000000 0.000001 0.000000
vn 1.000000 0.000001 0.000000
vn 1.000000 0.000001 0.000000
vn 1.000000 0.000001 0.000000
vn -1.000000 0.000002 0.000000
vn -1.000000 0.000002 0.000000
vn -1.000000 0.000002 0.000000
vn -1.000000 0.000002 0.000000
vn 0.000000 0.001296 0.999999
vn 0.000000 0.001296 0.999999
vn 0.000000 0.001296 0.999999
vn 0.000000 0.001296 0.999999
vn -1.000000 0.000002 0.000000
vn -1.000000 0.000002 0.000000
vn -1.000000 0.000002 0.000000
vn -1.000000 0.000002 0.000000
vn 0.000000 0.001302 -0.999999
vn 0.000000 0.001302 -0.999999
vn 0.000000 0.001302 -0.999999
vn 0.000000 0.001302 -0.999999
vn 1.000000 0.000001 0.000000
vn 1.000000 0.000001 0.000000
vn 1.000000 0.000001 0.000000
vn 1.000000 0.000001 0.000000
vn 0.000000 0.503042 0.864262
vn 0.000000 0.503042 0.864262
vn 0.000000 0.503042 0.864262
vn 0.000000 0.503042 0.864262
vn -1.000000 -0.000081 0.000000
vn -1.000000 -0.000081 0.000000
vn -1.000000 -0.000081 0.000000
vn -1.000000 -0.000081 0.000000
vn 0.000000 0.503001 -0.864286
vn 0.000000 0.503001 -0.864286
vn 0.000000 0.503001 -0.864286
vn 0.000000 0.503001 -0.864286
vn 1.000000 -0.000073 0.000000
vn 1.000000 -0.000073 0.000000
vn 1.000000 -0.000073 0.000000
vn 1.000000 -0.000073 0.000000
vn -1.000000 0.000000 0.000000
vn -1.000000 0.000000 0.000000
vn -1.000000 0.000000 0.000000
vn -1.000000 0.000000 0.000000
vn 0.000000 -0.989332 -0.145680
vn 0.000000 -0.989332 -0.145680
vn 0.000000 -0.989332 -0.145680
vn 0.000000 -0.989332 -0.145680
vn 1.000000 0.000067 0.000000
vn 1.000000 0.000067 0.000000
vn 1.000000 0.000067 0.000000
vn 1.000000 0.000067 0.000000
vn 0.000000 -0.989331 0.145683
vn 0.000000 -0.989331 0.145683
vn 0.000000 -0.989331 0.145683
vn 0.000000 -0.989331 0.145683
vn 0.000000 0.777743 0.628582
vn 0.000000 0.777743 0.628582
vn 0.000000 0.777743 0.628582
vn 0.000000 0.777743 0.628582
vn 1.000000 0.000000 0.000000
vn 1.000000 0.000000 0.000000
vn 1.000000 0.000000 0.000000
vn 1.000000 0.000000 0.000000
vn 0.000000 0.777745 -0.628580
vn 0.000000 0.777745 -0.628580
vn 0.000000 0.777745 -0.628580
vn 0.000000 0.777745 -0.628580
vn -1.000000 0.000000 0.000000
vn -1.000000 0.000000 0.000000
vn -1.000000 0.000000 0.000000
vn -1.000000 0.000000 0.000000
vn 0.000000 0.079655 0.996823
vn 0.000000 0.079655 0.996823
vn 0.000000 0.079655 0.996823
vn 0.000000 0.079655 0.996823
vn 0.000000 1.000000 0.000000
vn 0.000000 1.000000 0.000000
vn 0.000000 1.000000 0.000000
vn 0.000000 1.000000 0.000000
vn 0.000000 0.079655 -0.996823
vn 0.000000 0.079655 -0.996823
vn 0.000000 0.079655 -0.996823
vn 0.000000 0.079655 -0.996823
vn 0.000000 -1.000000 0.000000
vn 0.000000 -1.000000 0.000000
vn 0.000000 -1.000000 0.000000
vn 0.000000 -1.000000 0.000000
vn 0.997537 0.070136 0.000000
vn 0.997537 0.070136 0.000000
vn 0.997537 0.070136 0.000000
vn 0.997537 0.070136 0.000000
vn -0.997537 0.070140 0.000000
vn -0.997537 0.070140 0.000000
vn -0.997537 0.070140 0.000000
vn -0.997537 0.070140 0.000000
vn 0.000000 -0.000057 1.000000
vn 0.000000 -0.000057 1.000000
vn 0.000000 -0.000057 1.000000
vn 0.000000 -0.000057 1.000000
vn -1.000000 -0.000141 0.000000
vn -1.000000 -0.000141 0.000000
vn -1.000000 -0.000141 0.000000
vn -1.000000 -0.000141 0.000000
vn 0.000000 -0.000093 -1.000000
vn 0.000000 -0.000093 -1.000000
vn 0.000000 -0.000093 -1.000000
vn 0.000000 -0.000093 -1.000000
vn 1.000000 -0.000171 0.000000
vn 1.000000 -0.000171 0.000000
vn 1.000000 -0.000171 0.000000
vn 1.000000 -0.000171 0.000000
vn 0.000000 0.219998 0.975500
vn 0.000000 0.219998 0.975500
vn 0.000000 0.219998 0.975500
vn 0.000000 0.219998 0.975500
vn -0.991671 0.128798 0.000000
vn -0.991671 0.128798 0.000000
vn -0.991671 0.128798 0.000000
vn -0.991671 0.128798 0.000000
vn 0.000000 0.220699 -0.975342
vn 0.000000 0.220699 -0.975342
vn 0.000000 0.220699 -0.975342
vn 0.000000 0.220699 -0.975342
vn 0.991598 0.129355 0.000000
vn 0.991598 0.129355 0.000000
vn 0.991598 0.129355 0.000000
vn 0.991598 0.129355 0.000000
vn -0.377576 -0.925978 0.000000
vn -0.377576 -0.925978 0.000000
vn -0.377576 -0.925978 0.000000
vn -0.377576 -0.925978 0.000000
vn 0.000000 -0.975451 -0.220218
vn 0.000000 -0.975451 -0.220218
vn 0.000000 -0.975451 -0.220218
vn 0.000000 -0.975451 -0.220218
vn 0.377630 -0.925956 0.000000
vn 0.377630 -0.925956 0.000000
vn 0.377630 -0.925956 0.000000
vn 0.377630 -0.925956 0.000000
vn 0.000000 -0.971165 0.238409
vn 0.000000 -0.971165 0.238409
vn 0.000000 -0.971165 0.238409
vn 0.000000 -0.971165 0.238409
vn 0.000000 0.800130 0.599827
vn 0.000000 0.800130 0.599827
vn 0.000000 0.800130 0.599827
vn 0.000000 0.800130 0.599827
vn 0.997255 -0.074039 0.000000
vn 0.997255 -0.074039 0.000000
vn 0.997255 -0.074039 0.000000
vn 0.997255 -0.074039 0.000000
vn 0.000000 0.800133 -0.599823
vn 0.000000 0.800133 -0.599823
vn 0.000000 0.800133 -0.599823
vn 0.000000 0.800133 -0.599823
vn -0.997256 -0.074027 0.000000
vn -0.997256 -0.074027 0.000000
vn -0.997256 -0.074027 0.000000
vn -0.997256 -0.074027 0.000000
vn 0.996822 0.079657 0.000000
vn 0.996822 0.079657 0.000000
vn 0.996822 0.079657 0.000000
vn 0.996822 0.079657 0.000000
vn 0.000000 1.000000 0.000000
vn 0.000000 1.000000 0.000000
vn 0.000000 1.000000 0.000000
vn 0.000000 1.000000 0.000000
vn -0.996822 0.079656 0.000000
vn -0.996822 0.079656 0.000000
vn -0.996822 0.079656 0.000000
vn -0.996822 0.079656 0.000000
vn 0.000000 -1.000000 0.000000
vn 0.000000 -1.000000 0.000000
vn 0.000000 -1.000000 0.000000
vn 0.000000 -1.000000 0.000000
vn 0.000000 0.070137 -0.997537
vn 0.000000 0.070137 -0.997537
vn 0.000000 0.070137 -0.997537
vn 0.000000 0.070137 -0.997537
vn 0.000000 0.070141 0.997537
vn 0.000000 0.070141 0.997537
vn 0.000000 0.070141 0.997537
vn 0.000000 0.070141 0.997537
vn 1.000000 -0.000057 0.000000
vn 1.000000 -0.000057 0.000000
vn 1.000000 -0.000057 0.000000
vn 1.000000 -0.000057 0.000000
vn 0.000000 -0.000141 1.000000
vn 0.000000 -0.000141 1.000000
vn 0.000000 -0.000141 1.000000
vn 0.000000 -0.000141 1.000000
vn -1.000000 -0.000093 0.000000
vn -1.000000 -0.000093 0.000000
vn -1.000000 -0.000093 0.000000
vn -1.000000 -0.000093 0.000000
vn 0.000000 -0.000171 -1.000000
vn 0.000000 -0.000171 -1.000000
vn 0.000000 -0.000171 -1.000000
vn 0.000000 -0.000171 -1.000000
vn 0.975491 0.220038 0.000000
vn 0.975491 0.220038 0.000000
vn 0.975491 0.220038 0.000000
vn 0.975491 0.220038 0.000000
vn 0.000000 0.128725 0.991680
vn 0.000000 0.128725 0.991680
vn 0.000000 0.128725 0.991680
vn 0.000000 0.128725 0.991680
vn -0.975338 0.220717 0.000000
vn -0.975338 0.220717 0.000000
vn -0.975338 0.220717 0.000000
vn -0.975338 0.220717 0.000000
vn 0.000000 0.129338 -0.991601
vn 0.000000 0.129338 -0.991601
vn 0.000000 0.129338 -0.991601
vn 0.000000 0.129338 -0.991601
vn 0.000000 -0.925976 0.377582
vn 0.000000 -0.925976 0.377582
vn 0.000000 -0.925976 0.377582
vn 0.000000 -0.925976 0.377582
vn -0.220215 -0.975451 0.000000
vn -0.220215 -0.975451 0.000000
vn -0.220215 -0.975451 0.000000
vn -0.220215 -0.975451 0.000000
vn 0.000000 -0.925955 -0.377634
vn 0.000000 -0.925955 -0.377634
vn 0.000000 -0.925955 -0.377634
vn 0.000000 -0.925955 -0.377634
vn 0.238408 -0.971165 0.000000
vn 0.238408 -0.971165 0.000000
vn 0.238408 -0.971165 0.000000
vn 0.238408 -0.971165 0.000000
vn 0.599826 0.800130 0.000000
vn 0.599826 0.800130 0.000000
vn 0.599826 0.800130 0.000000
vn 0.599826 0.800130 0.000000
vn 0.000000 -0.074033 -0.997256
vn 0.000000 -0.074033 -0.997256
vn 0.000000 -0.074033 -0.997256
vn 0.000000 -0.074033 -0.997256
vn -0.599822 0.800133 0.000000
vn -0.599822 0.800133 0.000000
vn -0.599822 0.800133 0.000000
vn -0.599822 0.800133 0.000000
vn 0.000000 -0.074020 0.997257
vn 0.000000 -0.074020 0.997257
vn 0.000000 -0.074020 0.997257
vn 0.000000 -0.074020 0.997257
vn 0.998122 0.061258 0.000000
vn 0.998122 0.061258 0.000000
vn 0.998122 0.061258 0.000000
vn 0.998122 0.061258 0.000000
vn 0.000000 1.000000 0.000000
vn 0.000000 1.000000 0.000000
vn 0.000000 1.000000 0.000000
vn 0.000000 1.000000 0.000000
vn -0.998122 0.061261 0.000000
vn -0.998122 0.061261 0.000000
vn -0.998122 0.061261 0.000000
vn -0.998122 0.061261 0.000000
vn 0.000000 -1.000000 0.000000
vn 0.000000 -1.000000 0.000000
vn 0.000000 -1.000000 0.000000
vn 0.000000 -1.000000 0.000000
vn 0.000000 0.000000 -1.000000
vn 0.000000 0.000000 -1.000000
vn 0.000000 0.000000 -1.000000
vn 0.000000 0.000000 -1.000000
vn 0.000000 0.000000 1.000000
vn 0.000000 0.000000 1.000000
vn 0.000000 0.000000 1.000000
vn 0.000000 0.000000 1.000000
vn 0.999999 0.001299 0.000000
vn 0.999999 0.001299 0.000000
vn 0.999999 0.001299 0.000000
vn 0.999999 0.001299 0.000000
vn 0.000000 0.000000 1.000000
vn 0.000000 0.000000 1.000000
vn 0.000000 0.000000 1.000000
vn 0.000000 0.000000 1.000000
vn -0.999999 0.001299 0.000000
vn -0.999999 0.001299 0.000000
vn -0.999999 0.001299 0.000000
vn -0.999999 0.001299 0.000000
vn 0.000000 0.000000 -1.000000
vn 0.000000 0.000000 -1.000000
vn 0.000000 0.000000 -1.000000
vn 0.000000 0.000000 -1.000000
vn 0.864283 0.503006 0.000000
vn 0.864283 0.503006 0.000000
vn 0.864283 0.503006 0.000000
vn 0.864283 0.503006 0.000000
vn 0.000000 0.000000 1.000000
vn 0.000000 0.000000 1.000000
vn 0.000000 0.000000 1.000000
vn 0.000000 0.000000 1.000000
vn -0.864283 0.503006 0.000000
vn -0.864283 0.503006 0.000000
vn -0.864283 0.503006 0.000000
vn -0.864283 0.503006 0.000000
vn 0.000000 0.000000 -1.000000
vn 0.000000 0.000000 -1.000000
vn 0.000000 0.000000 -1.000000
vn 0.000000 0.000000 -1.000000
vn 0.000000 0.000000 1.000000
vn 0.000000 0.000000 1.000000
vn 0.000000 0.000000 1.000000
vn 0.000000 0.000000 1.000000
vn -0.145682 -0.989332 0.000000
vn -0.145682 -0.989332 0.000000
vn -0.145682 -0.989332 0.000000
vn -0.145682 -0.989332 0.000000
vn 0.000000 0.000000 -1.000000
vn 0.000000 0.000000 -1.000000
vn 0.000000 0.000000 -1.000000
vn 0.000000 0.000000 -1.000000
vn 0.145682 -0.989332 0.000000
vn 0.145682 -0.989332 0.000000
vn 0.145682 -0.989332 0.000000
vn 0.145682 -0.989332 0.000000
vn 0.628584 0.777741 0.000000
vn 0.628584 0.777741 0.000000
vn 0.628584 0.777741 0.000000
vn 0.628584 0.777741 0.000000
vn 0.000000 0.000000 -1.000000
vn 0.000000 0.000000 -1.000000
vn 0.000000 0.000000 -1.000000
vn 0.000000 0.000000 -1.000000
vn -0.628584 0.777741 0.000000
vn -0.628584 0.777741 0.000000
vn -0.628584 0.777741 0.000000
vn -0.628584 0.777741 0.000000
vn 0.000000 0.000000 1.000000
vn 0.000000 0.000000 1.000000
vn 0.000000 0.000000 1.000000
vn 0.000000 0.000000 1.000000
s off
g polySurface26671
f 1/1/1 2/2/2 13/3/3 14/4/4
f 21/5/5 22/6/6 23/7/7 24/8/8
f 15/9/9 16/10/10 8/11/11 7/12/12
f 7/12/13 8/11/14 2/13/15 1/14/16
f 2/2/17 8/15/18 16/16/19 13/3/20
f 7/17/21 1/1/22 14/4/23 15/18/24
f 10/19/25 9/20/26 20/21/27 17/22/28
f 11/23/29 10/19/30 17/22/31 18/24/32
f 18/25/33 19/26/34 12/27/35 11/28/36
f 9/20/37 12/29/38 19/30/39 20/21/40
f 14/4/41 13/3/42 9/20/43 10/19/44
f 15/18/45 14/4/46 10/19/47 11/23/48
f 11/28/49 12/27/50 16/10/51 15/9/52
f 13/3/53 16/16/54 12/29/55 9/20/56
f 18/24/57 17/22/58 3/31/59 5/32/60
f 5/33/61 6/34/62 19/26/63 18/25/64
f 20/21/65 19/30/66 6/35/67 4/36/68
f 17/22/69 20/21/70 4/36/71 3/31/72
f 3/31/73 4/36/74 22/6/75 21/5/76
f 4/36/77 6/34/78 23/7/79 22/6/80
f 6/34/81 5/33/82 24/8/83 23/7/84
f 5/33/85 3/31/86 21/5/87 24/8/88
f 25/37/89 26/38/90 37/39/91 38/40/92
f 45/41/93 46/42/94 47/43/95 48/44/96
f 39/45/97 40/46/98 32/47/99 31/48/100
f 31/48/101 32/47/102 26/49/103 25/50/104
f 26/38/105 32/51/106 40/52/107 37/39/108
f 31/53/109 25/37/110 38/40/111 39/54/112
f 34/55/113 33/56/114 44/57/115 41/58/116
f 35/59/117 34/55/118 41/58/119 42/60/120
f 42/61/121 43/62/122 36/63/123 35/64/124
f 33/56/125 36/65/126 43/66/127 44/57/128
f 38/40/129 37/39/130 33/56/131 34/55/132
f 39/54/133 38/40/134 34/55/135 35/59/136
f 35/64/137 36/63/138 40/46/139 39/45/140
f 37/39/141 40/52/142 36/65/143 33/56/144
f 42/60/145 41/58/146 27/67/147 29/68/148
f 29/69/149 30/70/150 43/62/151 42/61/152
f 44/57/153 43/66/154 30/71/155 28/72/156
f 41/58/157 44/57/158 28/72/159 27/67/160
f 27/67/161 28/72/162 46/42/163 45/41/164
f 28/72/165 30/70/166 47/43/167 46/42/168
f 30/70/169 29/69/170 48/44/171 47/43/172
f 29/69/173 27/67/174 45/41/175 48/44/176
f 49/73/177 50/74/178 61/75/179 62/76/180
f 69/77/181 70/78/182 71/79/183 72/80/184
f 63/81/185 64/82/186 56/83/187 55/84/188
f 55/84/189 56/83/190 50/85/191 49/86/192
f 50/74/193 56/87/194 64/88/195 61/75/196
f 55/89/197 49/73/198 62/76/199 63/90/200
f 58/91/201 57/92/202 68/93/203 65/94/204
f 59/95/205 58/91/206 65/94/207 66/96/208
f 66/97/209 67/98/210 60/99/211 59/100/212
f 57/92/213 60/101/214 67/102/215 68/93/216
f 62/76/217 61/75/218 57/92/219 58/91/220
f 63/90/221 62/76/222 58/91/223 59/95/224
f 59/100/225 60/99/226 64/82/227 63/81/228
f 61/75/229 64/88/230 60/101/231 57/92/232
f 66/96/233 65/94/234 51/103/235 53/104/236
f 53/105/237 54/106/238 67/98/239 66/97/240
f 68/93/241 67/102/242 54/107/243 52/108/244
f 65/94/245 68/93/246 52/108/247 51/103/248
f 51/103/249 52/108/250 70/78/251 69/77/252
f 52/108/253 54/106/254 71/79/255 70/78/256
f 54/106/257 53/105/258 72/80/259 71/79/260
f 53/105/261 51/103/262 69/77/263 72/80/264
f 73/109/265 74/110/266 85/111/267 86/112/268
f 93/113/269 94/114/270 95/115/271 96/116/272
f 87/117/273 88/118/274 80/119/275 79/120/276
f 79/120/277 80/119/278 74/121/279 73/122/280
f 74/110/281 80/123/282 88/124/283 85/111/284
f 79/125/285 73/109/286 86/112/287 87/126/288
f 82/127/289 81/128/290 92/129/291 89/130/292
f 83/131/293 82/127/294 89/130/295 90/132/296
f 90/133/297 91/134/298 84/135/299 83/136/300
f 81/128/301 84/137/302 91/138/303 92/129/304
f 86/112/305 85/111/306 81/128/307 82/127/308
f 87/126/309 86/112/310 82/127/311 83/131/312
f 83/136/313 84/135/314 88/118/315 87/117/316
f 85/111/317 88/124/318 84/137/319 81/128/320
f 90/132/321 89/130/322 75/139/323 77/140/324
f 77/141/325 78/142/326 91/134/327 90/133/328
f 92/129/329 91/138/330 78/143/331 76/144/332
f 89/130/333 92/129/334 76/144/335 75/139/336
f 75/139/337 76/144/338 94/114/339 93/113/340
f 76/144/341 78/142/342 95/115/343 94/114/344
f 78/142/345 77/141/346 96/116/347 95/115/348
f 77/141/349 75/139/350 93/113/351 96/116/352
f 97/145/353 98/146/354 109/147/355 110/148/356
f 117/149/357 118/150/358 119/151/359 120/152/360
f 111/153/361 112/154/362 104/155/363 103/156/364
f 103/156/365 104/155/366 98/157/367 97/158/368
f 98/146/369 104/159/370 112/160/371 109/147/372
f 103/161/373 97/145/374 110/148/375 111/162/376
f 106/163/377 105/164/378 116/165/379 113/166/380
f 107/167/381 106/163/382 113/166/383 114/168/384
f 114/169/385 115/170/386 108/171/387 107/172/388
f 105/164/389 108/173/390 115/174/391 116/165/392
f 110/148/393 109/147/394 105/164/395 106/163/396
f 111/162/397 110/148/398 106/163/399 107/167/400
f 107/172/401 108/171/402 112/154/403 111/153/404
f 109/147/405 112/160/406 108/173/407 105/164/408
f 114/168/409 113/166/410 99/175/411 101/176/412
f 101/177/413 102/178/414 115/170/415 114/169/416
f 116/165/417 115/174/418 102/179/419 100/180/420
f 113/166/421 116/165/422 100/180/423 99/175/424
f 99/175/425 100/180/426 118/150/427 117/149/428
f 100/180/429 102/178/430 119/151/431 118/150/432
f 102/178/433 101/177/434 120/152/435 119/151/436
f 101/177/437 99/175/438 117/149/439 120/152/440
