# This file uses centimeters as units for non-parametric coordinates.

g default
v -104.388031 6.302541 0.128480
v -109.667099 6.302541 0.128480
v -104.388031 6.302541 -0.126714
v -109.667099 6.302541 -0.126714
v -104.208115 6.857632 -0.125762
v -109.847023 6.857632 -0.125762
v -104.208115 6.857632 0.127529
v -109.847023 6.857632 0.127529
v -110.245010 5.422451 -0.130236
v -103.810127 5.422451 -0.130236
v -110.245010 5.422451 0.132003
v -103.810127 5.422451 0.132003
v -110.463860 6.016566 0.131025
v -103.591278 6.016566 0.131025
v -110.463860 6.016566 -0.129259
v -103.591278 6.016566 -0.129259
v -105.004280 0.439059 -0.221562
v -105.226006 0.439015 -0.313450
v -105.447754 0.439039 -0.221571
v -105.539497 0.439068 0.000001
v -105.447754 0.439036 0.221572
v -105.226006 0.439011 0.313450
v -105.004280 0.439056 0.221563
v -104.912544 0.439093 0.000001
v -105.222252 6.756927 -0.196199
v -105.402023 6.745700 -0.278231
v -105.581688 6.734789 -0.196052
v -105.655594 6.730362 0.000884
v -105.581696 6.734788 0.197820
v -105.402023 6.745698 0.280000
v -105.222252 6.756926 0.197968
v -105.148224 6.761623 0.000884
v -105.226860 0.424941 0.000002
v -105.402718 6.752838 0.000883
v -108.607391 0.438762 -0.221501
v -108.829056 0.439015 -0.313450
v -109.050850 0.439336 -0.221632
v -109.142647 0.439485 0.000001
v -109.050850 0.439333 0.221632
v -108.829056 0.439011 0.313451
v -108.607391 0.438759 0.221502
v -108.515724 0.438676 0.000001
v -108.473068 6.734792 -0.196122
v -108.652802 6.745709 -0.278231
v -108.832512 6.756932 -0.196128
v -108.906479 6.761624 0.000884
v -108.832512 6.756930 0.197897
v -108.652802 6.745707 0.280000
v -108.473068 6.734791 0.197891
v -108.399101 6.730361 0.000884
v -108.827980 0.424941 0.000002
v -108.652328 6.752860 0.000883
v -108.307739 6.725485 0.130859
v -108.309448 6.196776 0.130631
v -108.309448 6.196776 -0.128864
v -108.307739 6.725485 -0.129092
v -108.342857 5.870368 0.134452
v -108.342857 5.870368 -0.132686
v -108.344467 5.304475 -0.132442
v -108.344467 5.304475 0.134208
v -105.735565 6.725787 0.130865
v -105.733925 6.197076 0.130625
v -105.733925 6.197076 -0.128858
v -105.735565 6.725787 -0.129098
v -105.680702 5.871191 0.134450
v -105.680702 5.871191 -0.132684
v -105.678947 5.305303 -0.132443
v -105.678947 5.305303 0.134210
vt 0.894354 0.986028
vt 0.894354 0.946345
vt 0.106548 0.986028
vt 0.106548 0.946345
vt 0.894354 0.842330
vt 0.106548 0.842330
vt 0.894354 0.802173
vt 0.106548 0.802173
vt 0.894354 0.711885
vt 0.106548 0.711885
vt 0.013626 0.986028
vt 0.013626 0.946345
vt 0.987215 0.986028
vt 0.987215 0.946345
vt 0.894354 0.986028
vt 0.894354 0.946345
vt 0.106548 0.986028
vt 0.106548 0.946345
vt 0.894354 0.842330
vt 0.106548 0.842330
vt 0.894354 0.802173
vt 0.106548 0.802173
vt 0.894354 0.711885
vt 0.106548 0.711885
vt 0.013626 0.986028
vt 0.013626 0.946345
vt 0.987215 0.986028
vt 0.987215 0.946345
vt 0.014467 0.009572
vt 0.060725 0.009572
vt 0.106984 0.009572
vt 0.153243 0.009572
vt 0.199501 0.009572
vt 0.245760 0.009572
vt 0.292019 0.009572
vt 0.338277 0.009572
vt 0.384536 0.009572
vt 0.899160 0.160626
vt 0.961430 0.186419
vt 0.899160 0.245167
vt 0.836890 0.186419
vt 0.811097 0.248689
vt 0.836890 0.310959
vt 0.899160 0.336753
vt 0.961430 0.310959
vt 0.987223 0.248689
vt 0.959233 0.539849
vt 0.896963 0.565642
vt 0.896963 0.474057
vt 0.834693 0.539849
vt 0.808900 0.477579
vt 0.834693 0.415309
vt 0.896963 0.389516
vt 0.959233 0.415309
vt 0.985026 0.477579
vt 0.693736 0.691930
vt 0.647478 0.691930
vt 0.601219 0.691930
vt 0.554960 0.691930
vt 0.508702 0.691930
vt 0.462443 0.691930
vt 0.416185 0.691930
vt 0.786254 0.691930
vt 0.739995 0.691930
vt 0.014467 0.009572
vt 0.060725 0.009572
vt 0.106984 0.009572
vt 0.153243 0.009572
vt 0.199501 0.009572
vt 0.245760 0.009572
vt 0.292019 0.009572
vt 0.338277 0.009572
vt 0.384536 0.009572
vt 0.899160 0.160626
vt 0.961430 0.186419
vt 0.899160 0.245167
vt 0.836890 0.186419
vt 0.811097 0.248689
vt 0.836890 0.310959
vt 0.899160 0.336753
vt 0.961430 0.310959
vt 0.987223 0.248689
vt 0.959233 0.539849
vt 0.896963 0.565642
vt 0.896963 0.474057
vt 0.834693 0.539849
vt 0.808900 0.477579
vt 0.834693 0.415309
vt 0.896963 0.389516
vt 0.959233 0.415309
vt 0.985026 0.477579
vt 0.693736 0.691930
vt 0.647478 0.691930
vt 0.601219 0.691930
vt 0.554960 0.691930
vt 0.508702 0.691930
vt 0.462443 0.691930
vt 0.416185 0.691930
vt 0.786254 0.691930
vt 0.739995 0.691930
vt 0.315357 0.802173
vt 0.315357 0.986028
vt 0.315357 0.711885
vt 0.315357 0.946345
vt 0.315357 0.842330
vt 0.669678 0.842330
vt 0.669678 0.802173
vt 0.669678 0.986028
vt 0.669678 0.711885
vt 0.669678 0.946345
vt 0.687484 0.802173
vt 0.687484 0.986028
vt 0.687484 0.711885
vt 0.687484 0.946345
vt 0.687484 0.842330
vt 0.327588 0.842330
vt 0.327588 0.802173
vt 0.327588 0.986028
vt 0.327588 0.711885
vt 0.327588 0.946345
vn 0.078121 -0.996944 0.000000
vn 0.078121 -0.996944 0.000000
vn 0.039149 -0.999233 0.000000
vn 0.039149 -0.999233 0.000000
vn 0.001879 0.000347 -0.999998
vn 0.001879 0.000347 -0.999998
vn 0.000939 -0.000048 -1.000000
vn 0.000939 -0.000048 -1.000000
vn -0.085997 0.996295 0.000000
vn -0.085997 0.996295 0.000000
vn -0.043097 0.999071 0.000000
vn -0.043097 0.999071 0.000000
vn 0.000939 -0.000048 1.000000
vn 0.001879 0.000347 0.999998
vn 0.001879 0.000347 0.999998
vn 0.000939 -0.000048 1.000000
vn -0.951277 -0.308339 0.000000
vn -0.951277 -0.308339 0.000000
vn -0.951277 -0.308339 0.000000
vn -0.951277 -0.308339 0.000000
vn 0.951280 -0.308327 0.000000
vn 0.951280 -0.308327 0.000000
vn 0.951280 -0.308327 0.000000
vn 0.951280 -0.308327 0.000000
vn -0.061956 -0.998079 0.000000
vn -0.061956 -0.998079 0.000000
vn -0.030838 -0.999524 0.000000
vn -0.030838 -0.999524 0.000000
vn -0.001376 0.000375 0.999999
vn -0.001376 0.000375 0.999999
vn -0.000688 -0.000027 1.000000
vn -0.000688 -0.000027 1.000000
vn 0.068766 0.997633 0.000000
vn 0.068766 0.997633 0.000000
vn 0.034249 0.999413 0.000000
vn 0.034249 0.999413 0.000000
vn -0.000688 -0.000027 -1.000000
vn -0.001376 0.000374 -0.999999
vn -0.001376 0.000374 -0.999999
vn -0.000688 -0.000027 -1.000000
vn 0.938362 -0.345655 0.000000
vn 0.938362 -0.345655 0.000000
vn 0.938362 -0.345655 0.000000
vn 0.938362 -0.345655 0.000000
vn -0.938362 -0.345655 0.000000
vn -0.938362 -0.345655 0.000000
vn -0.938362 -0.345655 0.000000
vn -0.938362 -0.345655 0.000000
vn 0.717637 0.027546 -0.695872
vn -0.000360 0.006231 -0.999981
vn -0.000360 0.006231 -0.999981
vn 0.717637 0.027546 -0.695872
vn -0.718236 -0.012475 -0.695688
vn -0.718236 -0.012475 -0.695688
vn -0.999818 -0.019087 -0.000008
vn -0.999818 -0.019087 -0.000008
vn -0.718234 -0.012670 0.695686
vn -0.718234 -0.012670 0.695686
vn -0.000350 0.005951 0.999982
vn -0.000350 0.005951 0.999982
vn 0.717643 0.027352 0.695874
vn 0.717643 0.027352 0.695874
vn 0.999329 0.036632 0.000000
vn 0.999329 0.036632 0.000000
vn 0.000027 -0.998994 -0.044854
vn 0.031875 -0.998991 -0.031637
vn -0.000027 -1.000000 -0.000006
vn -0.031928 -0.998986 -0.031732
vn -0.045144 -0.998981 -0.000006
vn -0.031929 -0.998987 0.031721
vn 0.000026 -0.998994 0.044843
vn 0.031875 -0.998992 0.031624
vn 0.044983 -0.998988 -0.000007
vn -0.042569 0.998927 -0.018257
vn -0.061472 0.997779 -0.025666
vn -0.061515 0.998106 0.000001
vn -0.080417 0.996594 -0.018255
vn -0.088531 0.996073 -0.000002
vn -0.080415 0.996594 0.018258
vn -0.061470 0.997779 0.025673
vn -0.042573 0.998926 0.018261
vn -0.034501 0.999405 0.000001
vn 0.718247 -0.012529 -0.695675
vn 0.000372 0.006231 -0.999981
vn 0.000372 0.006231 -0.999981
vn 0.718247 -0.012529 -0.695675
vn -0.717627 0.027599 -0.695881
vn -0.717627 0.027599 -0.695881
vn -0.999326 0.036707 0.000000
vn -0.999326 0.036707 0.000000
vn -0.717633 0.027405 0.695882
vn -0.717633 0.027405 0.695882
vn 0.000364 0.005950 0.999982
vn 0.000364 0.005950 0.999982
vn 0.718243 -0.012725 0.695676
vn 0.718243 -0.012725 0.695676
vn 0.999816 -0.019161 -0.000000
vn 0.999816 -0.019161 -0.000000
vn -0.001249 -0.998993 -0.044852
vn 0.030719 -0.999024 -0.031743
vn -0.001182 -0.999999 -0.000006
vn -0.033080 -0.998952 -0.031621
vn -0.046173 -0.998934 -0.000006
vn -0.033080 -0.998953 0.031607
vn -0.001247 -0.998993 0.044840
vn 0.030719 -0.999024 0.031732
vn 0.043946 -0.999034 -0.000007
vn 0.080396 0.996596 -0.018246
vn 0.061462 0.997779 -0.025669
vn 0.061491 0.998108 0.000003
vn 0.042546 0.998928 -0.018268
vn 0.034462 0.999406 0.000005
vn 0.042542 0.998928 0.018273
vn 0.061453 0.997780 0.025674
vn 0.080394 0.996596 0.018250
vn 0.088500 0.996076 0.000000
vn -0.001862 0.000362 0.999998
vn -0.000931 -0.000040 1.000000
vn -0.000931 -0.000040 1.000000
vn -0.001862 0.000362 0.999998
vn -0.077668 -0.996979 0.000000
vn -0.038805 -0.999247 0.000000
vn -0.038805 -0.999247 0.000000
vn -0.077668 -0.996979 0.000000
vn -0.001862 0.000362 -0.999998
vn -0.000931 -0.000040 -1.000000
vn -0.000931 -0.000040 -1.000000
vn -0.001862 0.000362 -0.999998
vn 0.085534 0.996335 0.000000
vn 0.042748 0.999086 0.000000
vn 0.042748 0.999086 0.000000
vn 0.085534 0.996335 0.000000
vn -0.034880 0.999392 0.000000
vn -0.034880 0.999392 0.000000
vn 0.000699 -0.000027 -1.000000
vn 0.000699 -0.000027 -1.000000
vn 0.031452 -0.999505 0.000000
vn 0.031452 -0.999505 0.000000
vn 0.000699 -0.000027 1.000000
vn 0.000699 -0.000027 1.000000
vn -0.069409 0.997588 0.000000
vn -0.069409 0.997588 0.000000
vn 0.001398 0.000374 -0.999999
vn 0.001398 0.000374 -0.999999
vn 0.062563 -0.998041 0.000000
vn 0.062563 -0.998041 0.000000
vn 0.001398 0.000374 0.999999
vn 0.001398 0.000374 0.999999
s 1
g polySurface20228
f 3/2/1 1/1/2 62/112/3 63/114/4
s 2
f 5/5/5 3/2/6 63/114/7 64/115/8
s 3
f 7/7/9 5/5/10 64/115/11 61/111/12
s 4
f 62/113/13 1/9/14 7/7/15 61/111/16
s off
f 2/3/17 8/11/18 6/12/19 4/4/20
f 7/13/21 1/1/22 3/2/23 5/14/24
s 7
f 11/16/25 9/15/26 59/108/27 60/110/28
s 8
f 13/19/29 11/16/30 60/110/31 57/106/32
s 9
f 15/21/33 13/19/34 57/106/35 58/107/36
s 10
f 59/109/37 9/23/38 15/21/39 58/107/40
s off
f 10/17/41 16/25/42 14/26/43 12/18/44
f 15/27/45 9/15/46 11/16/47 13/28/48
s 13
f 17/29/49 18/30/50 26/61/51 25/62/52
f 18/30/50 19/31/53 27/60/54 26/61/51
f 19/31/53 20/32/55 28/59/56 27/60/54
f 20/32/55 21/33/57 29/58/58 28/59/56
f 21/33/57 22/34/59 30/57/60 29/58/58
f 22/34/59 23/35/61 31/56/62 30/57/60
f 31/56/62 23/35/61 24/36/63 32/64/64
f 24/36/63 17/37/49 25/63/52 32/64/64
s 14
f 18/38/65 17/39/66 33/40/67
f 19/41/68 18/38/65 33/40/67
f 20/42/69 19/41/68 33/40/67
f 21/43/70 20/42/69 33/40/67
f 22/44/71 21/43/70 33/40/67
f 23/45/72 22/44/71 33/40/67
f 24/46/73 23/45/72 33/40/67
f 17/39/66 24/46/73 33/40/67
s 15
f 25/47/74 26/48/75 34/49/76
f 26/48/75 27/50/77 34/49/76
f 27/50/77 28/51/78 34/49/76
f 28/51/78 29/52/79 34/49/76
f 29/52/79 30/53/80 34/49/76
f 30/53/80 31/54/81 34/49/76
f 31/54/81 32/55/82 34/49/76
f 32/55/82 25/47/74 34/49/76
s 16
f 35/65/83 36/66/84 44/97/85 43/98/86
f 36/66/84 37/67/87 45/96/88 44/97/85
f 37/67/87 38/68/89 46/95/90 45/96/88
f 38/68/89 39/69/91 47/94/92 46/95/90
f 39/69/91 40/70/93 48/93/94 47/94/92
f 40/70/93 41/71/95 49/92/96 48/93/94
f 49/92/96 41/71/95 42/72/97 50/100/98
f 42/72/97 35/73/83 43/99/86 50/100/98
s 17
f 36/74/99 35/75/100 51/76/101
f 37/77/102 36/74/99 51/76/101
f 38/78/103 37/77/102 51/76/101
f 39/79/104 38/78/103 51/76/101
f 40/80/105 39/79/104 51/76/101
f 41/81/106 40/80/105 51/76/101
f 42/82/107 41/81/106 51/76/101
f 35/75/100 42/82/107 51/76/101
s 18
f 43/83/108 44/84/109 52/85/110
f 44/84/109 45/86/111 52/85/110
f 45/86/111 46/87/112 52/85/110
f 46/87/112 47/88/113 52/85/110
f 47/88/113 48/89/114 52/85/110
f 48/89/114 49/90/115 52/85/110
f 49/90/115 50/91/116 52/85/110
f 50/91/116 43/83/108 52/85/110
s 4
f 2/10/117 54/103/118 53/101/119 8/8/120
s 1
f 4/4/121 55/104/122 54/102/123 2/3/124
s 2
f 6/6/125 56/105/126 55/104/127 4/4/128
s 3
f 8/8/129 53/101/130 56/105/131 6/6/132
s 9
f 58/107/36 57/106/35 65/116/133 66/117/134
s 10
f 67/119/135 59/109/37 58/107/40 66/117/136
s 7
f 60/110/28 59/108/27 67/118/137 68/120/138
s 8
f 57/106/32 60/110/31 68/120/139 65/116/140
s 4
f 54/103/118 62/113/13 61/111/16 53/101/119
s 1
f 63/114/4 62/112/3 54/102/123 55/104/122
s 2
f 64/115/8 63/114/7 55/104/127 56/105/126
s 3
f 61/111/12 64/115/11 56/105/131 53/101/130
s 9
f 16/22/141 66/117/134 65/116/133 14/20/142
s 10
f 10/24/143 67/119/135 66/117/136 16/22/144
s 7
f 12/18/145 68/120/138 67/118/137 10/17/146
s 8
f 14/20/147 65/116/140 68/120/139 12/18/148
