# This file uses centimeters as units for non-parametric coordinates.

g default
v -104.388031 6.302541 0.128480
v -105.446968 6.204962 0.130622
v -106.435631 6.177792 0.130631
v -107.617378 6.177779 0.130616
v -108.608177 6.204976 0.130638
v -109.667099 6.302541 0.128480
v -104.388031 6.302541 -0.126714
v -105.446968 6.204962 -0.128855
v -106.435638 6.177792 -0.128865
v -107.617378 6.177779 -0.128849
v -108.608177 6.204976 -0.128871
v -109.667099 6.302541 -0.126714
v -104.208115 6.857632 -0.125762
v -105.449066 6.733655 -0.129100
v -106.436180 6.706546 -0.129094
v -107.616760 6.706532 -0.129110
v -108.606003 6.733666 -0.129084
v -109.847023 6.857632 -0.125762
v -104.208115 6.857632 0.127529
v -105.449066 6.733655 0.130867
v -106.436180 6.706546 0.130860
v -107.616760 6.706532 0.130876
v -108.606003 6.733666 0.130851
v -109.847023 6.857632 0.127529
v -110.245010 5.422451 -0.130236
v -108.883209 5.318011 -0.132437
v -107.725853 5.288932 -0.132447
v -106.331772 5.288918 -0.132431
v -105.171913 5.318027 -0.132453
v -103.810127 5.422451 -0.130236
v -110.245010 5.422451 0.132003
v -108.883209 5.318011 0.134203
v -107.725853 5.288932 0.134213
v -106.331772 5.288918 0.134197
v -105.171913 5.318027 0.134219
v -103.810127 5.422451 0.132003
v -110.463860 6.016566 0.131025
v -108.880760 5.883874 0.134455
v -107.725220 5.854859 0.134449
v -106.332489 5.854845 0.134465
v -105.174461 5.883886 0.134439
v -103.591278 6.016566 0.131025
v -110.463860 6.016566 -0.129259
v -108.880760 5.883874 -0.132689
v -107.725220 5.854859 -0.132682
v -106.332489 5.854845 -0.132698
v -105.174461 5.883886 -0.132673
v -103.591278 6.016566 -0.129259
v -105.004272 0.439059 -0.221562
v -105.226013 0.439015 -0.313450
v -105.447746 0.439039 -0.221571
v -105.539497 0.439068 0.000001
v -105.447746 0.439036 0.221572
v -105.226013 0.439011 0.313450
v -105.004272 0.439056 0.221563
v -104.912544 0.439093 0.000001
v -105.222252 6.756927 -0.196199
v -105.402023 6.745701 -0.278231
v -105.581688 6.734790 -0.196052
v -105.655594 6.730362 0.000884
v -105.581688 6.734788 0.197820
v -105.402023 6.745698 0.280000
v -105.222252 6.756926 0.197968
v -105.148224 6.761623 0.000884
v -105.226852 0.424941 0.000002
v -105.402718 6.752838 0.000883
v -105.112595 3.675281 0.215558
v -105.318275 3.674939 0.304978
v -105.523972 3.674650 0.215551
v -105.608841 3.674556 0.000468
v -105.523972 3.674654 -0.214616
v -105.318275 3.674945 -0.304042
v -105.112595 3.675285 -0.214622
v -105.027718 3.675430 0.000468
v -108.607399 0.438762 -0.221501
v -108.829056 0.439015 -0.313450
v -109.050858 0.439336 -0.221632
v -109.142654 0.439485 0.000001
v -109.050850 0.439333 0.221632
v -108.829056 0.439011 0.313451
v -108.607399 0.438759 0.221502
v -108.515724 0.438676 0.000001
v -108.473068 6.734792 -0.196123
v -108.652802 6.745709 -0.278231
v -108.832512 6.756932 -0.196128
v -108.906479 6.761624 0.000884
v -108.832512 6.756930 0.197897
v -108.652802 6.745707 0.280000
v -108.473068 6.734791 0.197891
v -108.399109 6.730361 0.000884
v -108.827980 0.424941 0.000002
v -108.652336 6.752861 0.000883
v -108.530952 3.674517 0.215554
v -108.736649 3.674939 0.304978
v -108.942329 3.675413 0.215555
v -109.027199 3.675617 0.000468
v -108.942329 3.675417 -0.214619
v -108.736649 3.674945 -0.304042
v -108.530952 3.674522 -0.214618
v -108.446091 3.674368 0.000468
vt 0.894354 0.986028
vt 0.726481 0.986028
vt 0.726481 0.946345
vt 0.894354 0.946345
vt 0.592121 0.986028
vt 0.592121 0.946345
vt 0.409465 0.986028
vt 0.409465 0.946345
vt 0.274735 0.986028
vt 0.274735 0.946345
vt 0.106548 0.986028
vt 0.106548 0.946345
vt 0.726481 0.842330
vt 0.894354 0.842330
vt 0.592121 0.842330
vt 0.409465 0.842330
vt 0.274735 0.842330
vt 0.106548 0.842330
vt 0.726481 0.802173
vt 0.894354 0.802173
vt 0.592121 0.802173
vt 0.409465 0.802173
vt 0.274735 0.802173
vt 0.106548 0.802173
vt 0.726481 0.711885
vt 0.894354 0.711885
vt 0.592121 0.711885
vt 0.409465 0.711885
vt 0.274735 0.711885
vt 0.106548 0.711885
vt 0.013626 0.986028
vt 0.013626 0.946345
vt 0.987215 0.986028
vt 0.987215 0.946345
vt 0.894354 0.986028
vt 0.737221 0.986028
vt 0.737221 0.946345
vt 0.894354 0.946345
vt 0.592121 0.986028
vt 0.592121 0.946345
vt 0.409465 0.986028
vt 0.409465 0.946345
vt 0.263996 0.986028
vt 0.263996 0.946345
vt 0.106548 0.986028
vt 0.106548 0.946345
vt 0.737221 0.842330
vt 0.894354 0.842330
vt 0.592121 0.842330
vt 0.409465 0.842330
vt 0.263996 0.842330
vt 0.106548 0.842330
vt 0.737221 0.802173
vt 0.894354 0.802173
vt 0.592121 0.802173
vt 0.409465 0.802173
vt 0.263996 0.802173
vt 0.106548 0.802173
vt 0.737221 0.711885
vt 0.894354 0.711885
vt 0.592121 0.711885
vt 0.409465 0.711885
vt 0.263996 0.711885
vt 0.106548 0.711885
vt 0.013626 0.986028
vt 0.013626 0.946345
vt 0.987215 0.986028
vt 0.987215 0.946345
vt 0.014467 0.009572
vt 0.060725 0.009572
vt 0.060725 0.691967
vt 0.014467 0.691967
vt 0.106984 0.009572
vt 0.106984 0.691967
vt 0.153243 0.009572
vt 0.153243 0.691967
vt 0.199501 0.009572
vt 0.199501 0.691967
vt 0.245760 0.009572
vt 0.245760 0.691967
vt 0.292019 0.009572
vt 0.292019 0.691967
vt 0.338277 0.009572
vt 0.338277 0.691967
vt 0.384536 0.009572
vt 0.384536 0.691967
vt 0.899160 0.160626
vt 0.961430 0.186419
vt 0.899160 0.245167
vt 0.836890 0.186419
vt 0.811097 0.248689
vt 0.836890 0.310959
vt 0.899160 0.336753
vt 0.961430 0.310959
vt 0.987223 0.248689
vt 0.959233 0.539849
vt 0.896963 0.565642
vt 0.896963 0.474057
vt 0.834693 0.539849
vt 0.808900 0.477579
vt 0.834693 0.415309
vt 0.896963 0.389516
vt 0.959233 0.415309
vt 0.985026 0.477579
vt 0.647478 0.009572
vt 0.693736 0.009572
vt 0.693736 0.691930
vt 0.647478 0.691930
vt 0.601219 0.009572
vt 0.601219 0.691930
vt 0.554960 0.009572
vt 0.554960 0.691930
vt 0.508702 0.009572
vt 0.508702 0.691930
vt 0.462443 0.009572
vt 0.462443 0.691930
vt 0.416185 0.009572
vt 0.416185 0.691930
vt 0.739995 0.009572
vt 0.786254 0.009572
vt 0.786254 0.691930
vt 0.739995 0.691930
vt 0.014467 0.009572
vt 0.060725 0.009572
vt 0.060725 0.691967
vt 0.014467 0.691967
vt 0.106984 0.009572
vt 0.106984 0.691967
vt 0.153243 0.009572
vt 0.153243 0.691967
vt 0.199501 0.009572
vt 0.199501 0.691967
vt 0.245760 0.009572
vt 0.245760 0.691967
vt 0.292019 0.009572
vt 0.292019 0.691967
vt 0.338277 0.009572
vt 0.338277 0.691967
vt 0.384536 0.009572
vt 0.384536 0.691967
vt 0.899160 0.160626
vt 0.961430 0.186419
vt 0.899160 0.245167
vt 0.836890 0.186419
vt 0.811097 0.248689
vt 0.836890 0.310959
vt 0.899160 0.336753
vt 0.961430 0.310959
vt 0.987223 0.248689
vt 0.959233 0.539849
vt 0.896963 0.565642
vt 0.896963 0.474057
vt 0.834693 0.539849
vt 0.808900 0.477579
vt 0.834693 0.415309
vt 0.896963 0.389516
vt 0.959233 0.415309
vt 0.985026 0.477579
vt 0.647478 0.009572
vt 0.693736 0.009572
vt 0.693736 0.691930
vt 0.647478 0.691930
vt 0.601219 0.009572
vt 0.601219 0.691930
vt 0.554960 0.009572
vt 0.554960 0.691930
vt 0.508702 0.009572
vt 0.508702 0.691930
vt 0.462443 0.009572
vt 0.462443 0.691930
vt 0.416185 0.009572
vt 0.416185 0.691930
vt 0.739995 0.009572
vt 0.786254 0.009572
vt 0.786254 0.691930
vt 0.739995 0.691930
vn 0.091760 -0.995781 0.000000
vn 0.059646 -0.998220 0.000000
vn 0.059646 -0.998220 0.000000
vn 0.091760 -0.995781 0.000000
vn 0.013742 -0.999906 -0.000001
vn 0.013742 -0.999906 -0.000001
vn -0.013715 -0.999906 -0.000001
vn -0.013715 -0.999906 -0.000001
vn -0.059624 -0.998221 0.000000
vn -0.059624 -0.998221 0.000000
vn -0.091747 -0.995782 0.000000
vn -0.091747 -0.995782 0.000000
vn 0.002357 0.000265 -0.999997
vn 0.001185 -0.000092 -0.999999
vn 0.001185 -0.000092 -0.999999
vn 0.002357 0.000265 -0.999997
vn 0.000007 -0.000456 -1.000000
vn 0.000007 -0.000456 -1.000000
vn -0.000007 -0.000456 -1.000000
vn -0.000007 -0.000456 -1.000000
vn -0.001184 -0.000077 -0.999999
vn -0.001184 -0.000077 -0.999999
vn -0.002354 0.000295 -0.999997
vn -0.002354 0.000295 -0.999997
vn -0.099409 0.995047 0.000000
vn -0.063472 0.997984 0.000000
vn -0.063472 0.997984 0.000000
vn -0.099409 0.995047 0.000000
vn -0.013733 0.999906 0.000000
vn -0.013733 0.999906 0.000000
vn 0.013705 0.999906 0.000000
vn 0.013705 0.999906 0.000000
vn 0.063448 0.997985 0.000000
vn 0.063448 0.997985 0.000000
vn 0.099396 0.995048 0.000000
vn 0.099396 0.995048 0.000000
vn 0.002357 0.000265 0.999997
vn 0.001185 -0.000092 0.999999
vn 0.001185 -0.000092 0.999999
vn 0.002357 0.000265 0.999997
vn 0.000007 -0.000455 1.000000
vn 0.000007 -0.000455 1.000000
vn -0.000007 -0.000455 1.000000
vn -0.000007 -0.000455 1.000000
vn -0.001184 -0.000076 0.999999
vn -0.001184 -0.000076 0.999999
vn -0.002354 0.000295 0.999997
vn -0.002354 0.000295 0.999997
vn -0.951277 -0.308339 0.000000
vn -0.951277 -0.308339 0.000000
vn -0.951277 -0.308339 0.000000
vn -0.951277 -0.308339 0.000000
vn 0.951280 -0.308327 0.000000
vn 0.951280 -0.308327 0.000000
vn 0.951280 -0.308327 0.000000
vn 0.951280 -0.308327 0.000000
vn -0.076468 -0.997072 0.000000
vn -0.050810 -0.998708 0.000000
vn -0.050810 -0.998708 0.000000
vn -0.076468 -0.997072 0.000000
vn -0.012565 -0.999921 0.000000
vn -0.012565 -0.999921 0.000000
vn 0.012541 -0.999921 0.000000
vn 0.012541 -0.999921 0.000000
vn 0.050790 -0.998709 0.000000
vn 0.050790 -0.998709 0.000000
vn 0.076457 -0.997073 0.000000
vn 0.076457 -0.997073 0.000000
vn -0.001890 0.000273 0.999998
vn -0.000951 -0.000079 1.000000
vn -0.000951 -0.000079 1.000000
vn -0.001890 0.000273 0.999998
vn -0.000006 -0.000438 1.000000
vn -0.000006 -0.000438 1.000000
vn 0.000006 -0.000438 1.000000
vn 0.000006 -0.000438 1.000000
vn 0.000950 -0.000064 1.000000
vn 0.000950 -0.000064 1.000000
vn 0.001888 0.000302 0.999998
vn 0.001888 0.000302 0.999998
vn 0.083525 0.996506 0.000000
vn 0.054336 0.998523 0.000000
vn 0.054336 0.998523 0.000000
vn 0.083525 0.996506 0.000000
vn 0.012557 0.999921 0.000000
vn 0.012557 0.999921 0.000000
vn -0.012531 0.999922 0.000000
vn -0.012531 0.999922 0.000000
vn -0.054315 0.998524 0.000000
vn -0.054315 0.998524 0.000000
vn -0.083513 0.996507 0.000000
vn -0.083513 0.996507 0.000000
vn -0.001890 0.000273 -0.999998
vn -0.000951 -0.000079 -1.000000
vn -0.000951 -0.000079 -1.000000
vn -0.001890 0.000273 -0.999998
vn -0.000006 -0.000437 -1.000000
vn -0.000006 -0.000437 -1.000000
vn 0.000006 -0.000437 -1.000000
vn 0.000006 -0.000437 -1.000000
vn 0.000950 -0.000064 -1.000000
vn 0.000950 -0.000064 -1.000000
vn 0.001888 0.000302 -0.999998
vn 0.001888 0.000302 -0.999998
vn 0.938362 -0.345655 0.000000
vn 0.938362 -0.345655 0.000000
vn 0.938362 -0.345655 0.000000
vn 0.938362 -0.345655 0.000000
vn -0.938362 -0.345655 0.000000
vn -0.938362 -0.345655 0.000000
vn -0.938362 -0.345655 0.000000
vn -0.938362 -0.345655 0.000000
vn 0.712739 0.025354 -0.700971
vn -0.000013 0.003578 -0.999994
vn -0.000245 0.006309 -0.999980
vn 0.718419 0.027617 -0.695062
vn -0.712912 -0.015294 -0.701087
vn -0.718898 -0.012405 -0.695005
vn -0.999756 -0.022085 -0.000000
vn -0.999819 -0.018999 -0.000000
vn -0.712909 -0.015494 0.701086
vn -0.718895 -0.012600 0.695005
vn -0.000012 0.003290 0.999995
vn -0.000242 0.006028 0.999982
vn 0.712741 0.025153 0.700976
vn 0.718424 0.027423 0.695065
vn 0.999390 0.034916 0.000001
vn 0.999327 0.036671 0.000000
vn 0.000026 -0.998993 -0.044856
vn 0.031874 -0.998991 -0.031637
vn -0.000027 -1.000000 -0.000006
vn -0.031927 -0.998986 -0.031733
vn -0.045139 -0.998981 -0.000006
vn -0.031928 -0.998987 0.031722
vn 0.000025 -0.998994 0.044844
vn 0.031874 -0.998992 0.031624
vn 0.044982 -0.998988 -0.000006
vn -0.042569 0.998927 -0.018261
vn -0.061472 0.997779 -0.025669
vn -0.061517 0.998106 0.000002
vn -0.080421 0.996594 -0.018256
vn -0.088540 0.996073 0.000002
vn -0.080419 0.996594 0.018260
vn -0.061470 0.997779 0.025673
vn -0.042572 0.998927 0.018266
vn -0.034499 0.999405 0.000003
vn 0.724053 0.029690 0.689105
vn -0.000473 0.008788 0.999961
vn -0.724821 -0.009705 0.688869
vn -0.999873 -0.015933 -0.000000
vn -0.724824 -0.009516 -0.688868
vn -0.000479 0.009060 -0.999959
vn 0.724047 0.029876 -0.689104
vn 0.999262 0.038415 -0.000000
vn 0.713015 -0.015355 -0.700981
vn 0.000208 0.003572 -0.999994
vn 0.000234 0.006309 -0.999980
vn 0.718902 -0.012460 -0.694999
vn -0.712641 0.025408 -0.701069
vn -0.718421 0.027670 -0.695058
vn -0.999388 0.034993 0.000009
vn -0.999325 0.036744 0.000004
vn -0.712641 0.025205 0.701076
vn -0.718424 0.027476 0.695062
vn 0.000202 0.003283 0.999995
vn 0.000227 0.006028 0.999982
vn 0.713011 -0.015556 0.700980
vn 0.718899 -0.012656 0.695000
vn 0.999754 -0.022166 -0.000000
vn 0.999818 -0.019076 -0.000000
vn -0.001247 -0.998993 -0.044851
vn 0.030720 -0.999024 -0.031745
vn -0.001181 -0.999999 -0.000006
vn -0.033079 -0.998953 -0.031619
vn -0.046171 -0.998934 -0.000006
vn -0.033079 -0.998953 0.031607
vn -0.001247 -0.998993 0.044840
vn 0.030719 -0.999024 0.031733
vn 0.043946 -0.999034 -0.000007
vn 0.080395 0.996596 -0.018242
vn 0.061454 0.997780 -0.025666
vn 0.061491 0.998108 0.000003
vn 0.042545 0.998928 -0.018267
vn 0.034464 0.999406 0.000002
vn 0.042546 0.998927 0.018273
vn 0.061455 0.997780 0.025673
vn 0.080392 0.996596 0.018247
vn 0.088505 0.996076 0.000002
vn 0.724729 -0.009755 0.688965
vn 0.000252 0.008794 0.999961
vn -0.724153 0.029743 0.688998
vn -0.999259 0.038484 0.000000
vn -0.724145 0.029930 -0.688998
vn 0.000261 0.009066 -0.999959
vn 0.724732 -0.009566 -0.688965
vn 0.999872 -0.016007 -0.000000
s 1
g polySurface20227
f 1/1/1 2/2/2 8/3/3 7/4/4
f 2/2/2 3/5/5 9/6/6 8/3/3
f 3/5/5 4/7/7 10/8/8 9/6/6
f 4/7/7 5/9/9 11/10/10 10/8/8
f 5/9/9 6/11/11 12/12/12 11/10/10
s 2
f 7/4/13 8/3/14 14/13/15 13/14/16
f 8/3/14 9/6/17 15/15/18 14/13/15
f 9/6/17 10/8/19 16/16/20 15/15/18
f 10/8/19 11/10/21 17/17/22 16/16/20
f 11/10/21 12/12/23 18/18/24 17/17/22
s 3
f 13/14/25 14/13/26 20/19/27 19/20/28
f 14/13/26 15/15/29 21/21/30 20/19/27
f 15/15/29 16/16/31 22/22/32 21/21/30
f 16/16/31 17/17/33 23/23/34 22/22/32
f 17/17/33 18/18/35 24/24/36 23/23/34
s 4
f 19/20/37 20/19/38 2/25/39 1/26/40
f 20/19/38 21/21/41 3/27/42 2/25/39
f 21/21/41 22/22/43 4/28/44 3/27/42
f 22/22/43 23/23/45 5/29/46 4/28/44
f 23/23/45 24/24/47 6/30/48 5/29/46
s off
f 6/11/49 24/31/50 18/32/51 12/12/52
f 19/33/53 1/1/54 7/4/55 13/34/56
s 7
f 25/35/57 26/36/58 32/37/59 31/38/60
f 26/36/58 27/39/61 33/40/62 32/37/59
f 27/39/61 28/41/63 34/42/64 33/40/62
f 28/41/63 29/43/65 35/44/66 34/42/64
f 29/43/65 30/45/67 36/46/68 35/44/66
s 8
f 31/38/69 32/37/70 38/47/71 37/48/72
f 32/37/70 33/40/73 39/49/74 38/47/71
f 33/40/73 34/42/75 40/50/76 39/49/74
f 34/42/75 35/44/77 41/51/78 40/50/76
f 35/44/77 36/46/79 42/52/80 41/51/78
s 9
f 37/48/81 38/47/82 44/53/83 43/54/84
f 38/47/82 39/49/85 45/55/86 44/53/83
f 39/49/85 40/50/87 46/56/88 45/55/86
f 40/50/87 41/51/89 47/57/90 46/56/88
f 41/51/89 42/52/91 48/58/92 47/57/90
s 10
f 43/54/93 44/53/94 26/59/95 25/60/96
f 44/53/94 45/55/97 27/61/98 26/59/95
f 45/55/97 46/56/99 28/62/100 27/61/98
f 46/56/99 47/57/101 29/63/102 28/62/100
f 47/57/101 48/58/103 30/64/104 29/63/102
s off
f 30/45/105 48/65/106 42/66/107 36/46/108
f 43/67/109 25/35/110 31/38/111 37/68/112
s 13
f 49/69/113 50/70/114 72/71/115 73/72/116
f 50/70/114 51/73/117 71/74/118 72/71/115
f 51/73/117 52/75/119 70/76/120 71/74/118
f 52/75/119 53/77/121 69/78/122 70/76/120
f 53/77/121 54/79/123 68/80/124 69/78/122
f 54/79/123 55/81/125 67/82/126 68/80/124
f 55/81/125 56/83/127 74/84/128 67/82/126
f 56/83/127 49/85/113 73/86/116 74/84/128
s 14
f 50/87/129 49/88/130 65/89/131
f 51/90/132 50/87/129 65/89/131
f 52/91/133 51/90/132 65/89/131
f 53/92/134 52/91/133 65/89/131
f 54/93/135 53/92/134 65/89/131
f 55/94/136 54/93/135 65/89/131
f 56/95/137 55/94/136 65/89/131
f 49/88/130 56/95/137 65/89/131
s 15
f 57/96/138 58/97/139 66/98/140
f 58/97/139 59/99/141 66/98/140
f 59/99/141 60/100/142 66/98/140
f 60/100/142 61/101/143 66/98/140
f 61/101/143 62/102/144 66/98/140
f 62/102/144 63/103/145 66/98/140
f 63/103/145 64/104/146 66/98/140
f 64/104/146 57/96/138 66/98/140
s 13
f 68/105/124 67/106/126 63/107/147 62/108/148
f 69/109/122 68/105/124 62/108/148 61/110/149
f 70/111/120 69/109/122 61/110/149 60/112/150
f 71/113/118 70/111/120 60/112/150 59/114/151
f 72/115/115 71/113/118 59/114/151 58/116/152
f 73/117/116 72/115/115 58/116/152 57/118/153
f 74/119/128 73/120/116 57/121/153 64/122/154
f 67/106/126 74/119/128 64/122/154 63/107/147
s 16
f 75/123/155 76/124/156 98/125/157 99/126/158
f 76/124/156 77/127/159 97/128/160 98/125/157
f 77/127/159 78/129/161 96/130/162 97/128/160
f 78/129/161 79/131/163 95/132/164 96/130/162
f 79/131/163 80/133/165 94/134/166 95/132/164
f 80/133/165 81/135/167 93/136/168 94/134/166
f 81/135/167 82/137/169 100/138/170 93/136/168
f 82/137/169 75/139/155 99/140/158 100/138/170
s 17
f 76/141/171 75/142/172 91/143/173
f 77/144/174 76/141/171 91/143/173
f 78/145/175 77/144/174 91/143/173
f 79/146/176 78/145/175 91/143/173
f 80/147/177 79/146/176 91/143/173
f 81/148/178 80/147/177 91/143/173
f 82/149/179 81/148/178 91/143/173
f 75/142/172 82/149/179 91/143/173
s 18
f 83/150/180 84/151/181 92/152/182
f 84/151/181 85/153/183 92/152/182
f 85/153/183 86/154/184 92/152/182
f 86/154/184 87/155/185 92/152/182
f 87/155/185 88/156/186 92/152/182
f 88/156/186 89/157/187 92/152/182
f 89/157/187 90/158/188 92/152/182
f 90/158/188 83/150/180 92/152/182
s 16
f 94/159/166 93/160/168 89/161/189 88/162/190
f 95/163/164 94/159/166 88/162/190 87/164/191
f 96/165/162 95/163/164 87/164/191 86/166/192
f 97/167/160 96/165/162 86/166/192 85/168/193
f 98/169/157 97/167/160 85/168/193 84/170/194
f 99/171/158 98/169/157 84/170/194 83/172/195
f 100/173/170 99/174/158 83/175/195 90/176/196
f 93/160/168 100/173/170 90/176/196 89/161/189
