# This file uses centimeters as units for non-parametric coordinates.

g default
v -402.064880 0.000421 3.085383
v -401.707855 0.000421 3.085383
v -402.064880 0.340860 3.120277
v -401.707855 0.340860 3.120277
v -402.064880 1.916745 -1.134689
v -401.707855 1.916745 -1.134689
v -402.064880 0.020266 -1.134689
v -401.707855 0.020266 -1.134689
v -402.064880 1.912686 -0.806945
v -402.064880 0.004155 -0.805667
v -401.707855 0.004155 -0.805667
v -401.707855 1.912686 -0.806945
v -403.375702 0.000512 3.066011
v -401.979034 0.000512 3.066011
v -403.375702 0.221642 3.066011
v -401.979034 0.221642 3.066011
v -403.375702 1.761339 -1.134689
v -401.979034 1.761339 -1.134689
v -403.375702 0.020266 -1.134689
v -401.979034 0.020266 -1.134689
v -403.375702 1.740435 -0.805667
v -403.375702 0.004155 -0.805667
v -401.979034 0.004155 -0.805667
v -401.979034 1.740435 -0.805667
v -403.649780 0.000421 3.085383
v -403.295929 0.000421 3.085383
v -403.649780 0.340860 3.120277
v -403.295929 0.340860 3.120277
v -403.649780 1.916745 -1.134689
v -403.295929 1.916745 -1.134689
v -403.649780 0.020266 -1.134689
v -403.295929 0.020266 -1.134689
v -403.649780 1.912686 -0.806945
v -403.649780 0.004155 -0.805667
v -403.295929 0.004155 -0.805667
v -403.295929 1.912686 -0.806945
vt 0.375000 0.000000
vt 0.625000 0.000000
vt 0.375000 0.250000
vt 0.625000 0.250000
vt 0.375000 0.500000
vt 0.625000 0.500000
vt 0.375000 0.750000
vt 0.625000 0.750000
vt 0.375000 1.000000
vt 0.625000 1.000000
vt 0.875000 0.000000
vt 0.875000 0.250000
vt 0.125000 0.000000
vt 0.125000 0.250000
vt 0.188308 0.250000
vt 0.375000 0.436692
vt 0.188308 0.000000
vt 0.375000 0.813308
vt 0.625000 0.813308
vt 0.811692 0.000000
vt 0.625000 0.436692
vt 0.811692 0.250000
vt 0.375000 0.000000
vt 0.625000 0.000000
vt 0.625000 0.250000
vt 0.375000 0.250000
vt 0.625000 0.436692
vt 0.375000 0.436692
vt 0.375000 0.500000
vt 0.625000 0.500000
vt 0.625000 0.750000
vt 0.375000 0.750000
vt 0.375000 0.813308
vt 0.625000 0.813308
vt 0.625000 1.000000
vt 0.375000 1.000000
vt 0.811692 0.000000
vt 0.811692 0.250000
vt 0.188308 0.000000
vt 0.188308 0.250000
vt 0.125000 0.000000
vt 0.125000 0.250000
vt 0.875000 0.000000
vt 0.875000 0.250000
vt 0.375000 0.000000
vt 0.625000 0.000000
vt 0.625000 0.250000
vt 0.375000 0.250000
vt 0.625000 0.436692
vt 0.375000 0.436692
vt 0.375000 0.500000
vt 0.625000 0.500000
vt 0.625000 0.750000
vt 0.375000 0.750000
vt 0.375000 0.813308
vt 0.625000 0.813308
vt 0.625000 1.000000
vt 0.375000 1.000000
vt 0.811692 0.000000
vt 0.811692 0.250000
vt 0.188308 0.000000
vt 0.188308 0.250000
vt 0.125000 0.000000
vt 0.125000 0.250000
vt 0.875000 0.000000
vt 0.875000 0.250000
vn 0.000000 -0.101961 0.994788
vn 0.000000 -0.101961 0.994788
vn 0.000000 -0.101961 0.994788
vn 0.000000 -0.101961 0.994788
vn 0.000000 0.928399 0.371586
vn 0.000000 0.928399 0.371586
vn 0.000000 0.980746 0.195286
vn 0.000000 0.980746 0.195286
vn 0.000000 0.000000 -1.000000
vn 0.000000 0.000000 -1.000000
vn 0.000000 0.000000 -1.000000
vn 0.000000 0.000000 -1.000000
vn 0.000000 -0.999689 -0.024943
vn 0.000000 -0.999689 -0.024943
vn 0.000000 -1.000000 -0.000960
vn 0.000000 -1.000000 -0.000960
vn 1.000000 0.000005 0.000000
vn 1.000000 -0.000010 0.000000
vn 1.000000 -0.000010 0.000000
vn 1.000000 0.000005 0.000000
vn -1.000000 -0.000003 0.000000
vn -1.000000 -0.000007 0.000000
vn -1.000000 -0.000007 0.000000
vn -1.000000 -0.000003 0.000000
vn -1.000000 0.000000 0.000000
vn -1.000000 0.000000 0.000000
vn 0.000000 -0.998803 -0.048911
vn 0.000000 -0.998803 -0.048911
vn 1.000000 -0.000024 0.000000
vn 1.000000 -0.000024 0.000000
vn 0.000000 0.999923 0.012381
vn 0.000000 0.999923 0.012381
vn 0.000000 0.000000 1.000000
vn 0.000000 0.000000 1.000000
vn 0.000000 0.000000 1.000000
vn 0.000000 0.000000 1.000000
vn 0.000000 0.930934 0.365188
vn 0.000000 0.930934 0.365188
vn 0.000000 0.976193 0.216904
vn 0.000000 0.976193 0.216904
vn 0.000000 0.000000 -1.000000
vn 0.000000 0.000000 -1.000000
vn 0.000000 0.000000 -1.000000
vn 0.000000 0.000000 -1.000000
vn 0.000000 -0.999689 -0.024932
vn 0.000000 -0.999689 -0.024932
vn 0.000000 -1.000000 -0.000941
vn 0.000000 -1.000000 -0.000941
vn 1.000000 0.000000 0.000000
vn 1.000000 0.000000 0.000000
vn 1.000000 0.000000 0.000000
vn 1.000000 0.000000 0.000000
vn -1.000000 0.000000 0.000000
vn -1.000000 0.000000 0.000000
vn -1.000000 0.000000 0.000000
vn -1.000000 0.000000 0.000000
vn -1.000000 0.000000 0.000000
vn -1.000000 0.000000 0.000000
vn 0.000000 -0.998803 -0.048908
vn 0.000000 -0.998803 -0.048908
vn 1.000000 0.000000 0.000000
vn 1.000000 0.000000 0.000000
vn 0.000000 0.997988 0.063407
vn 0.000000 0.997988 0.063407
vn 0.000000 -0.101962 0.994788
vn 0.000000 -0.101962 0.994788
vn 0.000000 -0.101962 0.994788
vn 0.000000 -0.101962 0.994788
vn 0.000000 0.928400 0.371583
vn 0.000000 0.928400 0.371583
vn 0.000000 0.980747 0.195285
vn 0.000000 0.980747 0.195285
vn 0.000000 0.000000 -1.000000
vn 0.000000 0.000000 -1.000000
vn 0.000000 0.000000 -1.000000
vn 0.000000 0.000000 -1.000000
vn 0.000000 -0.999689 -0.024941
vn 0.000000 -0.999689 -0.024941
vn 0.000000 -1.000000 -0.000960
vn 0.000000 -1.000000 -0.000960
vn 1.000000 -0.000021 0.000000
vn 1.000000 -0.000011 0.000000
vn 1.000000 -0.000011 0.000000
vn 1.000000 -0.000021 0.000000
vn -1.000000 0.000005 0.000000
vn -1.000000 0.000010 0.000000
vn -1.000000 0.000010 0.000000
vn -1.000000 0.000005 0.000000
vn -1.000000 0.000000 0.000000
vn -1.000000 0.000000 0.000000
vn 0.000000 -0.998803 -0.048909
vn 0.000000 -0.998803 -0.048909
vn 1.000000 0.000000 0.000000
vn 1.000000 0.000000 0.000000
vn 0.000000 0.999923 0.012382
vn 0.000000 0.999923 0.012382
s off
g polySurface16769
f 1/1/1 2/2/2 4/4/3 3/3/4
s 2
f 3/3/5 4/4/6 12/21/7 9/16/8
s off
f 5/5/9 6/6/10 8/8/11 7/7/12
s 4
f 10/18/13 11/19/14 2/10/15 1/9/16
s 5
f 2/2/17 11/20/18 12/22/19 4/4/20
s 6
f 10/17/21 1/1/22 3/3/23 9/15/24
f 7/13/25 10/17/21 9/15/24 5/14/26
s 4
f 7/7/27 8/8/28 11/19/14 10/18/13
s 5
f 12/22/19 11/20/18 8/11/29 6/12/30
s 2
f 9/16/8 12/21/7 6/6/31 5/5/32
s off
f 13/23/33 14/24/34 16/25/35 15/26/36
s 8
f 15/26/37 16/25/38 24/27/39 21/28/40
s off
f 17/29/41 18/30/42 20/31/43 19/32/44
s 10
f 22/33/45 23/34/46 14/35/47 13/36/48
s 11
f 14/24/49 23/37/50 24/38/51 16/25/52
s 12
f 22/39/53 13/23/54 15/26/55 21/40/56
f 19/41/57 22/39/53 21/40/56 17/42/58
s 10
f 19/32/59 20/31/60 23/34/46 22/33/45
s 11
f 24/38/51 23/37/50 20/43/61 18/44/62
s 8
f 21/28/40 24/27/39 18/30/63 17/29/64
s off
f 25/45/65 26/46/66 28/47/67 27/48/68
s 14
f 27/48/69 28/47/70 36/49/71 33/50/72
s off
f 29/51/73 30/52/74 32/53/75 31/54/76
s 16
f 34/55/77 35/56/78 26/57/79 25/58/80
s 17
f 26/46/81 35/59/82 36/60/83 28/47/84
s 18
f 34/61/85 25/45/86 27/48/87 33/62/88
f 31/63/89 34/61/85 33/62/88 29/64/90
s 16
f 31/54/91 32/53/92 35/56/78 34/55/77
s 17
f 36/60/83 35/59/82 32/65/93 30/66/94
s 14
f 33/50/72 36/49/71 30/52/95 29/51/96
