# This file uses centimeters as units for non-parametric coordinates.

g default
v -393.711254 0.005266 -0.060257
v -393.711254 0.005266 1.802261
v -393.711254 1.821201 -0.060257
v -393.711254 1.821201 1.802261
v -389.498424 0.204125 -0.060257
v -389.498424 0.204125 1.802261
v -389.498424 0.005266 1.802261
v -389.498424 0.005266 -0.060257
v -395.860058 0.005266 1.730612
v -395.860058 0.005266 2.086514
v -395.860058 1.896286 1.730612
v -395.860058 1.896286 2.086514
v -393.678234 1.896286 1.730612
v -393.678234 1.896286 2.086514
v -393.678234 0.005266 1.730612
v -393.678234 0.005266 2.086514
v -389.441051 0.317649 1.730612
v -389.441051 0.317649 2.086514
v -389.441051 0.005266 2.086514
v -389.441051 0.005266 1.730612
v -393.678234 0.005266 -0.086515
v -395.860058 0.005266 -0.086515
v -395.860058 1.896286 -0.086515
v -393.678234 1.896286 -0.086515
vt 0.375000 0.000000
vt 0.625000 0.000000
vt 0.625000 0.250000
vt 0.375000 0.250000
vt 0.625000 0.500000
vt 0.375000 0.500000
vt 0.375000 0.500000
vt 0.625000 0.500000
vt 0.625000 0.750000
vt 0.375000 0.750000
vt 0.375000 0.750000
vt 0.625000 0.750000
vt 0.375000 0.000000
vt 0.625000 0.000000
vt 0.625000 0.250000
vt 0.375000 0.250000
vt 0.625000 0.500000
vt 0.375000 0.500000
vt 0.375000 0.500000
vt 0.625000 0.500000
vt 0.625000 0.750000
vt 0.375000 0.750000
vt 0.375000 0.750000
vt 0.625000 0.750000
vt 0.625000 1.000000
vt 0.375000 1.000000
vt 0.875000 0.000000
vt 0.875000 0.250000
vt 0.125000 0.000000
vt 0.375000 0.000000
vt 0.375000 0.250000
vt 0.125000 0.250000
vt 0.125000 0.000000
vt 0.125000 0.250000
vn -1.000000 0.000000 0.000000
vn -1.000000 0.000000 0.000000
vn -1.000000 0.000000 0.000000
vn -1.000000 0.000000 0.000000
vn 1.000000 0.000000 0.000000
vn 1.000000 0.000000 0.000000
vn 1.000000 0.000000 0.000000
vn 1.000000 0.000000 0.000000
vn 0.358352 0.933587 0.000000
vn 0.358352 0.933587 0.000000
vn 0.358352 0.933587 0.000000
vn 0.358352 0.933587 0.000000
vn 0.000000 0.000000 1.000000
vn 0.000000 0.000000 1.000000
vn 0.000000 0.000000 1.000000
vn 0.000000 0.000000 1.000000
vn 0.000000 -1.000000 0.000000
vn 0.000000 -1.000000 0.000000
vn 0.000000 -1.000000 0.000000
vn 0.000000 -1.000000 0.000000
vn -0.000000 0.000000 -1.000000
vn -0.000000 0.000000 -1.000000
vn -0.000000 0.000000 -1.000000
vn -0.000000 0.000000 -1.000000
vn -1.000000 0.000000 0.000000
vn -1.000000 0.000000 0.000000
vn -1.000000 0.000000 0.000000
vn -1.000000 0.000000 0.000000
vn 0.000000 1.000000 0.000000
vn 0.000000 1.000000 0.000000
vn 0.177374 0.984144 0.000000
vn 0.118037 0.993009 0.000000
vn 1.000000 0.000000 0.000000
vn 1.000000 0.000000 0.000000
vn 1.000000 0.000000 0.000000
vn 1.000000 0.000000 0.000000
vn 0.000000 -1.000000 0.000000
vn 0.000000 -1.000000 0.000000
vn 0.000000 -1.000000 0.000000
vn 0.000000 -1.000000 0.000000
vn 0.000000 0.000000 1.000000
vn -0.000000 0.000000 1.000000
vn -0.000000 0.000000 1.000000
vn 0.000000 0.000000 1.000000
vn 0.000000 0.000000 -1.000000
vn 0.000000 0.000000 -1.000000
vn 0.000000 0.000000 -1.000000
vn 0.000000 0.000000 -1.000000
vn 0.349124 0.937077 0.000000
vn 0.349124 0.937077 0.000000
vn -0.000000 0.000000 1.000000
vn -0.000000 0.000000 1.000000
vn 0.000000 -1.000000 0.000000
vn 0.000000 -1.000000 0.000000
vn 0.000000 0.000000 -1.000000
vn 0.000000 0.000000 -1.000000
vn 0.000000 0.000000 -1.000000
vn 0.000000 0.000000 -1.000000
vn 0.000000 -1.000000 0.000000
vn 0.000000 -1.000000 0.000000
vn -1.000000 0.000000 0.000000
vn -1.000000 0.000000 0.000000
vn 0.000000 1.000000 0.000000
vn 0.000000 1.000000 0.000000
vn 1.000000 0.000000 0.000000
vn 1.000000 0.000000 0.000000
vn 1.000000 0.000000 0.000000
vn 1.000000 0.000000 0.000000
s off
g polySurface23189
f 1/1/1 2/2/2 4/3/3 3/4/4
f 5/7/5 6/8/6 7/9/7 8/10/8
f 3/6/9 4/5/10 6/8/11 5/7/12
f 4/5/13 2/12/14 7/9/15 6/8/16
f 2/12/17 1/11/18 8/10/19 7/9/20
f 1/11/21 3/6/22 5/7/23 8/10/24
s 7
f 9/13/25 10/14/26 12/15/27 11/16/28
s 8
f 11/16/29 12/15/30 14/17/31 13/18/32
s off
f 17/19/33 18/20/34 19/21/35 20/22/36
s 10
f 15/23/37 16/24/38 10/25/39 9/26/40
s 11
f 10/14/41 16/27/42 14/28/43 12/15/44
s off
f 21/29/45 22/30/46 23/31/47 24/32/48
s 8
f 13/18/32 14/17/31 18/20/49 17/19/50
s 11
f 14/17/43 16/24/42 19/21/51 18/20/52
s 10
f 16/24/38 15/23/37 20/22/53 19/21/54
s off
f 15/23/55 13/18/56 17/19/57 20/22/58
s 10
f 15/33/37 9/13/40 22/30/59 21/29/60
s 7
f 9/13/25 11/16/28 23/31/61 22/30/62
s 8
f 11/16/29 13/34/32 24/32/63 23/31/64
s off
f 13/34/65 15/33/66 21/29/67 24/32/68
