# This file uses centimeters as units for non-parametric coordinates.

g default
v -407.536804 0.203861 2.068836
v -407.537476 0.255758 2.068836
v -406.176819 0.255459 1.784736
v -406.175476 0.203560 2.067359
v -406.176819 0.255457 2.067359
v -407.537415 0.255759 1.784618
v -406.176819 0.201898 1.991594
v -407.537476 0.201898 1.991856
v -406.176758 0.255483 1.674377
v -407.537415 0.255771 1.674251
v -406.176819 0.205862 1.820606
v -406.176880 0.256553 1.819752
v -408.898132 0.206463 1.869096
v -408.898071 0.257154 1.868242
v -408.898132 0.204162 2.070313
v -408.898132 0.256059 2.070313
v -408.898071 0.256059 1.784500
v -408.898132 0.201898 1.992117
v -408.898010 0.256059 1.674125
v -407.536804 0.325866 1.717601
v -407.537476 0.377763 1.717601
v -406.176819 0.377464 1.433502
v -406.175476 0.325565 1.716125
v -406.176819 0.377463 1.716125
v -407.537415 0.377764 1.433383
v -406.176819 0.323903 1.640360
v -407.537476 0.323903 1.640621
v -406.176758 0.377489 1.275470
v -407.537415 0.377777 1.275344
v -408.898132 0.326167 1.719078
v -408.898132 0.378064 1.719078
v -408.898071 0.378064 1.433265
v -408.898132 0.323903 1.640883
v -408.898010 0.378064 1.275218
v -407.536804 0.454953 1.361067
v -407.537476 0.506851 1.361067
v -406.176819 0.506552 1.076967
v -406.175476 0.454652 1.359590
v -406.176819 0.506550 1.359590
v -407.537415 0.506852 1.076849
v -406.176819 0.452991 1.283826
v -407.537476 0.452991 1.284087
v -406.176758 0.506576 0.905221
v -407.537415 0.506864 0.905095
v -408.898132 0.455254 1.362544
v -408.898132 0.507152 1.362544
v -408.898071 0.507152 1.076731
v -408.898132 0.452991 1.284348
v -408.898010 0.507152 0.904969
v -407.536804 0.580233 1.009203
v -407.537476 0.632131 1.009203
v -406.176819 0.631832 0.725103
v -406.175476 0.579932 1.007726
v -406.176819 0.631830 1.007726
v -407.537415 0.632132 0.724985
v -406.176819 0.578270 0.931962
v -407.537476 0.578270 0.932223
v -406.176758 0.631855 0.558859
v -407.537415 0.632143 0.558733
v -408.898132 0.580534 1.010680
v -408.898132 0.632432 1.010680
v -408.898071 0.632432 0.724867
v -408.898132 0.578270 0.932484
v -408.898010 0.632432 0.558608
v -407.536804 0.698311 0.652339
v -407.537476 0.750208 0.652339
v -406.176819 0.749909 0.368239
v -406.175476 0.698010 0.650862
v -406.176819 0.749907 0.650862
v -407.537415 0.750209 0.368121
v -406.176819 0.696348 0.575097
v -407.537476 0.696348 0.575359
v -406.176758 0.749933 0.207404
v -407.537415 0.750221 0.207278
v -408.898132 0.698612 0.653815
v -408.898132 0.750509 0.653815
v -408.898071 0.750509 0.368002
v -408.898132 0.696348 0.575620
v -408.898010 0.750509 0.207152
v -407.536682 0.829904 0.306589
v -407.536682 0.881802 0.306589
v -406.176819 0.881503 0.022489
v -406.175476 0.829603 0.305112
v -406.176819 0.881501 0.305112
v -407.536682 0.881803 0.022371
v -406.176819 0.827941 0.229348
v -407.536682 0.827941 0.229609
v -406.173340 0.881526 -0.071247
v -407.536682 0.881670 -0.071310
v -407.536682 0.208440 2.032684
v -407.536682 0.056957 2.033249
v -406.169922 0.208440 2.032684
v -406.169922 0.056957 2.033249
v -407.536682 0.056957 -0.071310
v -406.169922 0.056957 -0.071310
v -408.898132 0.830205 0.308066
v -408.898132 0.882102 0.308066
v -408.898071 0.882102 0.022253
v -408.898132 0.827941 0.229870
v -408.900696 0.881814 -0.071373
v -408.903381 0.208440 2.032684
v -408.903381 0.056957 2.033249
v -408.903381 0.056957 -0.071310
v -406.169922 0.332318 1.676439
v -406.169922 0.208117 1.676439
v -407.536682 0.332318 1.676439
v -407.536682 0.208117 1.676439
v -408.903381 0.332318 1.676439
v -408.903381 0.208117 1.676439
v -406.169922 0.472616 1.293009
v -406.169922 0.332318 1.293009
v -407.536682 0.472616 1.293009
v -407.536682 0.332318 1.293009
v -408.903381 0.472616 1.293009
v -408.903381 0.332318 1.293009
v -407.536682 0.597510 0.922705
v -407.536682 0.472616 0.922705
v -406.169922 0.597510 0.922705
v -406.169922 0.472616 0.922705
v -408.903381 0.597510 0.922705
v -408.903381 0.472616 0.922705
v -406.169922 0.729315 0.595284
v -406.169922 0.596208 0.595284
v -407.536682 0.729315 0.595284
v -407.536682 0.596208 0.595284
v -408.903381 0.729315 0.595284
v -408.903381 0.596208 0.595284
v -406.169922 0.875082 0.224388
v -406.169922 0.731452 0.217800
v -407.536682 0.875082 0.225211
v -407.536682 0.731452 0.218623
v -408.903381 0.875082 0.226034
v -408.903381 0.731452 0.219446
v -406.169617 0.292647 2.091298
v -406.169006 0.947064 -0.108711
v -406.169556 0.315577 2.024290
v -406.169067 0.947095 -0.006067
v -405.995605 0.315747 2.022025
v -405.995605 0.292435 2.090153
v -405.997009 0.946635 -0.077794
v -405.996887 0.946692 -0.006740
v -406.170166 0.343963 2.108768
v -406.247681 0.344215 2.108683
v -406.247681 0.292907 2.091126
v -406.242920 0.998661 -0.108635
v -406.242920 0.948437 -0.108665
v -406.247131 0.654438 1.034580
v -406.247131 0.705745 1.052137
v -406.169861 0.997756 -0.108653
v -406.170227 0.705914 1.050893
v -406.168335 0.654321 1.034562
v -405.922241 0.947026 -0.108768
v -405.922241 0.996660 -0.108695
v -405.918030 0.705749 1.049466
v -405.918030 0.654441 1.031909
v -405.996338 0.654441 1.031909
v -405.917542 0.343704 2.107517
v -405.917542 0.292396 2.089960
v -405.996765 0.947045 0.176796
v -405.921448 0.946590 0.175866
v -405.921448 0.997660 0.194120
v -406.169983 0.998578 0.195734
v -406.243713 0.999278 0.196567
v -406.243713 0.947731 0.179708
v -406.168274 0.947097 0.178621
v -405.964355 0.053527 2.039619
v -405.964355 0.053314 -0.076189
v -406.193054 0.053866 2.039564
v -406.193054 0.053668 -0.076174
v -406.192322 0.979713 -0.076155
v -406.192505 0.326667 2.039965
v -406.192505 0.981736 0.167135
v -405.965698 0.979548 -0.076147
v -405.965210 0.326576 2.039953
v -405.965210 0.981733 0.167135
v -406.183258 0.326660 2.053985
v -406.183777 0.053840 2.053584
v -406.183746 0.053640 -0.090196
v -406.183105 0.979700 -0.090175
v -406.162781 0.326652 2.060880
v -406.163147 0.053812 2.060483
v -406.163147 0.053611 -0.097093
v -406.162720 0.979686 -0.097070
v -405.975800 0.326583 2.053975
v -405.974976 0.053556 2.053631
v -405.974976 0.053344 -0.090209
v -405.976288 0.979561 -0.090168
v -405.996307 0.326591 2.060873
v -405.995605 0.053584 2.060521
v -405.995605 0.053373 -0.097104
v -405.996735 0.979575 -0.097065
v -409.087250 0.292647 2.091298
v -409.086639 0.947064 -0.108711
v -409.087189 0.315577 2.024290
v -409.086700 0.947095 -0.006067
v -408.913239 0.315747 2.022025
v -408.913239 0.292435 2.090153
v -408.914642 0.946635 -0.077794
v -408.914520 0.946692 -0.006740
v -409.087799 0.343963 2.108768
v -409.165314 0.344215 2.108683
v -409.165314 0.292907 2.091126
v -409.160553 0.998661 -0.108635
v -409.160553 0.948437 -0.108665
v -409.164764 0.654438 1.034580
v -409.164764 0.705745 1.052137
v -409.087494 0.997756 -0.108653
v -409.087860 0.705914 1.050893
v -409.085968 0.654321 1.034562
v -408.839874 0.947026 -0.108768
v -408.839874 0.996660 -0.108695
v -408.835663 0.705749 1.049466
v -408.835663 0.654441 1.031909
v -408.913971 0.654441 1.031909
v -408.835175 0.343704 2.107517
v -408.835175 0.292396 2.089960
v -408.914398 0.947045 0.176796
v -408.839081 0.946590 0.175866
v -408.839081 0.997660 0.194120
v -409.087616 0.998578 0.195734
v -409.161346 0.999278 0.196567
v -409.161346 0.947731 0.179708
v -409.085907 0.947097 0.178621
v -408.881989 0.053527 2.039619
v -408.881989 0.053314 -0.076189
v -409.110718 0.053866 2.039564
v -409.110718 0.053668 -0.076174
v -409.109985 0.979713 -0.076155
v -409.110168 0.326667 2.039965
v -409.110138 0.981736 0.167135
v -408.883362 0.979548 -0.076147
v -408.882843 0.326576 2.039953
v -408.882843 0.981733 0.167135
v -409.100891 0.326660 2.053985
v -409.101410 0.053840 2.053584
v -409.101379 0.053640 -0.090196
v -409.100769 0.979700 -0.090175
v -409.080444 0.326652 2.060880
v -409.080811 0.053812 2.060483
v -409.080811 0.053611 -0.097093
v -409.080383 0.979686 -0.097070
v -408.893433 0.326583 2.053975
v -408.892639 0.053556 2.053631
v -408.892639 0.053344 -0.090209
v -408.893921 0.979561 -0.090168
v -408.913940 0.326591 2.060873
v -408.913269 0.053584 2.060521
v -408.913269 0.053373 -0.097104
v -408.914368 0.979575 -0.097065
vt 0.903123 0.972478
vt 0.735336 0.972012
vt 0.734809 0.250194
vt 0.903788 0.250194
vt 0.932919 0.250194
vt 0.961066 0.250194
vt 0.960851 0.970325
vt 0.933213 0.974842
vt 0.259379 0.995479
vt 0.259309 0.338105
vt 0.313682 0.338105
vt 0.313618 0.995479
vt 0.904098 0.250194
vt 0.932365 0.250194
vt 0.932498 0.972806
vt 0.903915 0.972320
vt 0.903585 0.065058
vt 0.932815 0.065058
vt 0.932817 0.206581
vt 0.903639 0.207025
vt 0.903585 0.065058
vt 0.903639 0.207025
vt 0.932817 0.206581
vt 0.932815 0.065058
vt 0.903123 0.983239
vt 0.735336 0.983239
vt 0.734809 0.259325
vt 0.903788 0.259744
vt 0.932919 0.258072
vt 0.961066 0.252594
vt 0.960851 0.983239
vt 0.933213 0.983239
vt 0.259379 0.995479
vt 0.259309 0.338105
vt 0.313682 0.338105
vt 0.313618 0.995479
vt 0.904098 0.259804
vt 0.932365 0.259065
vt 0.932498 0.983239
vt 0.903915 0.983239
vt 0.903123 0.972478
vt 0.735336 0.972012
vt 0.734809 0.250194
vt 0.903788 0.250194
vt 0.932919 0.250194
vt 0.961066 0.250194
vt 0.960851 0.970325
vt 0.933213 0.974842
vt 0.543269 0.995479
vt 0.543199 0.338105
vt 0.620582 0.338135
vt 0.620589 0.995474
vt 0.904098 0.250194
vt 0.932365 0.250194
vt 0.932498 0.972806
vt 0.903915 0.972320
vt 0.903123 0.983239
vt 0.735336 0.983239
vt 0.734809 0.259325
vt 0.903788 0.259744
vt 0.932919 0.258072
vt 0.961066 0.252594
vt 0.960851 0.983239
vt 0.933213 0.983239
vt 0.543269 0.995479
vt 0.543199 0.338105
vt 0.620582 0.338135
vt 0.620589 0.995474
vt 0.904098 0.259804
vt 0.932365 0.259065
vt 0.932498 0.983239
vt 0.903915 0.983239
vt 0.903123 0.972478
vt 0.735336 0.972012
vt 0.734809 0.250194
vt 0.903788 0.250194
vt 0.932919 0.250194
vt 0.961066 0.250194
vt 0.960851 0.970325
vt 0.933213 0.974842
vt 0.259379 0.995479
vt 0.259309 0.338105
vt 0.343385 0.338139
vt 0.343393 0.995478
vt 0.904098 0.250194
vt 0.932365 0.250194
vt 0.932498 0.972806
vt 0.903915 0.972320
vt 0.903123 0.983239
vt 0.735336 0.983239
vt 0.734809 0.259325
vt 0.903788 0.259744
vt 0.932919 0.258072
vt 0.961066 0.252594
vt 0.960851 0.983239
vt 0.933213 0.983239
vt 0.259379 0.995479
vt 0.259309 0.338105
vt 0.343385 0.338139
vt 0.343393 0.995478
vt 0.904098 0.259804
vt 0.932365 0.259065
vt 0.932498 0.983239
vt 0.903915 0.983239
vt 0.903123 0.972478
vt 0.735336 0.972012
vt 0.734809 0.250194
vt 0.903788 0.250194
vt 0.932919 0.250194
vt 0.961066 0.250194
vt 0.960851 0.970325
vt 0.933213 0.974842
vt 0.008516 0.605178
vt 0.665890 0.605108
vt 0.665858 0.686499
vt 0.008519 0.686506
vt 0.904098 0.250194
vt 0.932365 0.250194
vt 0.932498 0.972806
vt 0.903915 0.972320
vt 0.903123 0.983239
vt 0.735336 0.983239
vt 0.734809 0.259325
vt 0.903788 0.259744
vt 0.932919 0.258072
vt 0.961066 0.252594
vt 0.960851 0.983239
vt 0.933213 0.983239
vt 0.008516 0.605178
vt 0.665890 0.605108
vt 0.665858 0.686499
vt 0.008519 0.686506
vt 0.904098 0.259804
vt 0.932365 0.259065
vt 0.932498 0.983239
vt 0.903915 0.983239
vt 0.903123 0.972478
vt 0.735336 0.972012
vt 0.734809 0.250194
vt 0.903788 0.250194
vt 0.932919 0.250194
vt 0.961066 0.250194
vt 0.960851 0.970325
vt 0.933213 0.974842
vt 0.008516 0.907994
vt 0.665890 0.907924
vt 0.665859 0.986675
vt 0.008520 0.986682
vt 0.904098 0.250194
vt 0.932365 0.250194
vt 0.932498 0.972806
vt 0.903915 0.972320
vt 0.903123 0.983239
vt 0.735336 0.983239
vt 0.734809 0.259325
vt 0.903788 0.259744
vt 0.932919 0.258072
vt 0.961066 0.252594
vt 0.960851 0.983239
vt 0.933213 0.983239
vt 0.008516 0.907994
vt 0.665890 0.907924
vt 0.665859 0.986675
vt 0.008520 0.986682
vt 0.904098 0.259804
vt 0.932365 0.259065
vt 0.932498 0.983239
vt 0.903915 0.983239
vt 0.903123 0.972478
vt 0.735336 0.972012
vt 0.734809 0.250194
vt 0.903788 0.250194
vt 0.932919 0.250194
vt 0.961066 0.250194
vt 0.960851 0.970325
vt 0.933213 0.974842
vt 0.008516 0.605178
vt 0.665890 0.605108
vt 0.665877 0.651081
vt 0.008538 0.651088
vt 0.904098 0.250194
vt 0.932365 0.250194
vt 0.932498 0.972806
vt 0.903915 0.972320
vt 0.667155 0.065963
vt 0.667155 0.014946
vt 0.222477 0.014946
vt 0.222477 0.065963
vt 0.001705 0.320841
vt 0.001705 1.000180
vt 0.484099 1.000180
vt 0.484100 0.320841
vt 0.000735 0.014946
vt 0.000753 0.319328
vt 0.677490 0.319328
vt 0.677508 0.014946
vt 0.903123 0.983239
vt 0.735336 0.983239
vt 0.734809 0.259325
vt 0.903788 0.259744
vt 0.932919 0.258072
vt 0.961066 0.252594
vt 0.960851 0.983239
vt 0.933213 0.983239
vt 0.008516 0.605178
vt 0.665890 0.605108
vt 0.665877 0.651081
vt 0.008538 0.651088
vt 0.904098 0.259804
vt 0.932365 0.259065
vt 0.932498 0.983239
vt 0.903915 0.983239
vt 0.667155 0.065963
vt 0.667155 0.014946
vt 0.222477 0.014946
vt 0.222477 0.065963
vt 0.001705 0.320841
vt 0.001705 1.000180
vt 0.484099 1.000180
vt 0.484100 0.320841
vt 0.000735 0.014946
vt 0.000753 0.319328
vt 0.677490 0.319328
vt 0.677508 0.014946
vt 0.490891 0.140944
vt 0.490891 0.101371
vt 0.100209 0.101371
vt 0.100209 0.140944
vt 0.490891 0.140944
vt 0.490891 0.101371
vt 0.100209 0.101371
vt 0.100209 0.140944
vt 0.531541 0.188384
vt 0.531541 0.140944
vt 0.079623 0.140944
vt 0.079623 0.188384
vt 0.531541 0.188384
vt 0.531541 0.140944
vt 0.079623 0.140944
vt 0.079623 0.188384
vt 0.472135 0.231197
vt 0.472135 0.188384
vt 0.007252 0.188384
vt 0.007252 0.231197
vt 0.472135 0.231197
vt 0.472135 0.188384
vt 0.007252 0.188384
vt 0.007252 0.231197
vt 0.634254 0.318130
vt 0.634254 0.273692
vt 0.122720 0.273692
vt 0.122720 0.318130
vt 0.634254 0.318130
vt 0.634254 0.273692
vt 0.122720 0.273692
vt 0.122720 0.318130
vt 0.531541 0.188384
vt 0.531541 0.140944
vt 0.079623 0.140944
vt 0.079623 0.188384
vt 0.531541 0.188384
vt 0.531541 0.140944
vt 0.079623 0.140944
vt 0.079623 0.188384
vt 0.870520 0.107573
vt 0.870523 0.065058
vt 0.796084 0.065058
vt 0.796084 0.107555
vt 0.871086 0.747507
vt 0.871089 0.704933
vt 0.796084 0.704654
vt 0.796084 0.747224
vt 0.863533 0.065058
vt 0.863533 0.036422
vt 0.903585 0.036422
vt 0.903585 0.065058
vt 0.961220 0.830756
vt 0.932815 0.830885
vt 0.932817 0.250386
vt 0.961182 0.250386
vt 0.932949 0.065058
vt 0.961050 0.065058
vt 0.961229 0.747819
vt 0.932815 0.747725
vt 0.932815 0.830885
vt 0.903599 0.830919
vt 0.903655 0.250386
vt 0.932817 0.250386
vt 0.903944 0.065058
vt 0.932528 0.065058
vt 0.932815 0.747725
vt 0.903585 0.747630
vt 0.903585 0.747630
vt 0.863533 0.747504
vt 0.863793 0.107731
vt 0.903439 0.065058
vt 0.903599 0.830919
vt 0.863545 0.830800
vt 0.863594 0.250386
vt 0.903655 0.250386
vt 0.903585 0.065058
vt 0.932815 0.065058
vt 0.932816 0.109473
vt 0.903602 0.109611
vt 0.961182 0.250386
vt 0.961220 0.830756
vt 0.932815 0.830885
vt 0.932817 0.250386
vt 0.932817 0.065058
vt 0.961186 0.109120
vt 0.961229 0.747819
vt 0.932815 0.747725
vt 0.932815 0.830885
vt 0.903599 0.830919
vt 0.903655 0.250386
vt 0.932817 0.250386
vt 0.903655 0.065058
vt 0.932817 0.065058
vt 0.932815 0.747725
vt 0.903585 0.747630
vt 0.796084 0.065058
vt 0.796084 0.036422
vt 0.903585 0.036422
vt 0.903585 0.065058
vt 0.903585 0.747630
vt 0.796084 0.747224
vt 0.796084 0.065058
vt 0.903655 0.065058
vt 0.903599 0.830919
vt 0.796084 0.830534
vt 0.796084 0.250386
vt 0.903655 0.250386
vt 0.903585 0.065058
vt 0.932815 0.065058
vt 0.932817 0.206581
vt 0.903639 0.207025
vt 0.961226 0.926303
vt 0.932815 0.971293
vt 0.932815 0.971293
vt 0.903585 0.971198
vt 0.903585 0.971198
vt 0.796084 0.970793
vt 0.961229 0.971388
vt 0.932815 0.971293
vt 0.932815 0.971293
vt 0.903585 0.971198
vt 0.903585 0.971198
vt 0.863533 0.971072
vt 0.863537 0.926313
vt 0.961182 0.065058
vt 0.863810 0.065058
vt 0.961229 0.971388
vt 0.001705 0.320841
vt 0.001705 0.326739
vt 0.678478 0.326739
vt 0.678478 0.320841
vt 0.003892 0.091620
vt 0.677328 0.004204
vt 0.003892 0.004204
vt 0.601603 0.312833
vt 0.677328 0.312833
vt 0.003892 0.091620
vt 0.003892 0.004204
vt 0.677328 0.004204
vt 0.012167 0.004204
vt 0.012167 0.092016
vt 0.016688 0.091837
vt 0.016688 0.004204
vt 0.057749 0.317147
vt 0.057749 0.004204
vt 0.053228 0.004204
vt 0.053228 0.317147
vt 0.677328 0.312833
vt 0.601603 0.312833
vt 0.061817 0.004204
vt 0.061817 0.090051
vt 0.066023 0.089885
vt 0.066023 0.004204
vt 0.678478 0.385614
vt 0.001705 0.385614
vt 0.001705 0.391101
vt 0.678478 0.391101
vt 0.008098 0.317147
vt 0.008098 0.004204
vt 0.003892 0.004204
vt 0.003892 0.317147
vt 0.057365 0.004204
vt 0.057365 0.090227
vt 0.678478 0.379805
vt 0.001705 0.379805
vt 0.012551 0.317147
vt 0.012551 0.004204
vt 0.021146 0.091661
vt 0.021146 0.004204
vt 0.001705 0.332556
vt 0.678478 0.332556
vt 0.048769 0.004204
vt 0.048769 0.317147
vt 0.870520 0.107573
vt 0.870523 0.065058
vt 0.796084 0.065058
vt 0.796084 0.107555
vt 0.871086 0.747507
vt 0.871089 0.704933
vt 0.796084 0.704654
vt 0.796084 0.747224
vt 0.863533 0.065058
vt 0.863533 0.036422
vt 0.903585 0.036422
vt 0.903585 0.065058
vt 0.961220 0.830756
vt 0.932815 0.830885
vt 0.932817 0.250386
vt 0.961182 0.250386
vt 0.932949 0.065058
vt 0.961050 0.065058
vt 0.961229 0.747819
vt 0.932815 0.747725
vt 0.932815 0.830885
vt 0.903599 0.830919
vt 0.903655 0.250386
vt 0.932817 0.250386
vt 0.903944 0.065058
vt 0.932528 0.065058
vt 0.932815 0.747725
vt 0.903585 0.747630
vt 0.903585 0.747630
vt 0.863533 0.747504
vt 0.863793 0.107731
vt 0.903439 0.065058
vt 0.903599 0.830919
vt 0.863545 0.830800
vt 0.863594 0.250386
vt 0.903655 0.250386
vt 0.903585 0.065058
vt 0.932815 0.065058
vt 0.932816 0.109473
vt 0.903602 0.109611
vt 0.961182 0.250386
vt 0.961220 0.830756
vt 0.932815 0.830885
vt 0.932817 0.250386
vt 0.932817 0.065058
vt 0.961186 0.109120
vt 0.961229 0.747819
vt 0.932815 0.747725
vt 0.932815 0.830885
vt 0.903599 0.830919
vt 0.903655 0.250386
vt 0.932817 0.250386
vt 0.903655 0.065058
vt 0.932817 0.065058
vt 0.932815 0.747725
vt 0.903585 0.747630
vt 0.796084 0.065058
vt 0.796084 0.036422
vt 0.903585 0.036422
vt 0.903585 0.065058
vt 0.903585 0.747630
vt 0.796084 0.747224
vt 0.796084 0.065058
vt 0.903655 0.065058
vt 0.903599 0.830919
vt 0.796084 0.830534
vt 0.796084 0.250386
vt 0.903655 0.250386
vt 0.903585 0.065058
vt 0.932815 0.065058
vt 0.932817 0.206581
vt 0.903639 0.207025
vt 0.961226 0.926303
vt 0.932815 0.971293
vt 0.932815 0.971293
vt 0.903585 0.971198
vt 0.903585 0.971198
vt 0.796084 0.970793
vt 0.961229 0.971388
vt 0.932815 0.971293
vt 0.932815 0.971293
vt 0.903585 0.971198
vt 0.903585 0.971198
vt 0.863533 0.971072
vt 0.863537 0.926313
vt 0.961182 0.065058
vt 0.863810 0.065058
vt 0.961229 0.971388
vt 0.001705 0.320841
vt 0.001705 0.326739
vt 0.678478 0.326739
vt 0.678478 0.320841
vt 0.003892 0.091620
vt 0.677328 0.004204
vt 0.003892 0.004204
vt 0.601603 0.312833
vt 0.677328 0.312833
vt 0.003892 0.091620
vt 0.003892 0.004204
vt 0.677328 0.004204
vt 0.012167 0.004204
vt 0.012167 0.092016
vt 0.016688 0.091837
vt 0.016688 0.004204
vt 0.057749 0.317147
vt 0.057749 0.004204
vt 0.053228 0.004204
vt 0.053228 0.317147
vt 0.677328 0.312833
vt 0.601603 0.312833
vt 0.061817 0.004204
vt 0.061817 0.090051
vt 0.066023 0.089885
vt 0.066023 0.004204
vt 0.678478 0.385614
vt 0.001705 0.385614
vt 0.001705 0.391101
vt 0.678478 0.391101
vt 0.008098 0.317147
vt 0.008098 0.004204
vt 0.003892 0.004204
vt 0.003892 0.317147
vt 0.057365 0.004204
vt 0.057365 0.090227
vt 0.678478 0.379805
vt 0.001705 0.379805
vt 0.012551 0.317147
vt 0.012551 0.004204
vt 0.021146 0.091661
vt 0.021146 0.004204
vt 0.001705 0.332556
vt 0.678478 0.332556
vt 0.048769 0.004204
vt 0.048769 0.317147
vn 0.000221 1.000000 0.000005
vn 0.000218 1.000000 0.000084
vn 0.000218 1.000000 0.000056
vn 0.000221 1.000000 0.000003
vn -0.000094 -0.999675 0.025475
vn -0.000094 -0.999675 0.025475
vn -0.000095 -0.999719 0.023723
vn -0.000095 -0.999719 0.023723
vn 0.000216 1.000000 0.000162
vn 0.000216 1.000000 0.000108
vn 0.001085 0.000014 0.999999
vn 0.001085 0.000014 0.999999
vn 0.001085 0.000021 0.999999
vn 0.001085 0.000021 0.999999
vn 0.999909 0.013238 -0.002746
vn 0.999909 0.013238 -0.002746
vn 0.999909 0.013238 -0.002746
vn 0.999909 0.013238 -0.002746
vn -1.000000 0.000738 -0.000146
vn -1.000000 0.000738 -0.000146
vn -1.000000 0.000738 -0.000146
vn -1.000000 0.000738 -0.000146
vn 0.000218 1.000000 0.000028
vn 0.000221 1.000000 0.000002
vn -0.000093 -0.999629 0.027226
vn -0.000093 -0.999629 0.027226
vn 0.000216 1.000000 0.000054
vn 0.001085 0.000007 0.999999
vn 0.001085 0.000007 0.999999
vn 0.000221 1.000000 0.000004
vn 0.000218 1.000000 0.000060
vn 0.000218 1.000000 0.000040
vn 0.000221 1.000000 0.000003
vn -0.000094 -0.999676 0.025474
vn -0.000094 -0.999676 0.025474
vn -0.000095 -0.999719 0.023723
vn -0.000095 -0.999719 0.023723
vn 0.000216 1.000000 0.000116
vn 0.000216 1.000000 0.000078
vn 0.001085 0.000014 0.999999
vn 0.001085 0.000014 0.999999
vn 0.001085 0.000021 0.999999
vn 0.001085 0.000021 0.999999
vn 0.000218 1.000000 0.000021
vn 0.000221 1.000000 0.000002
vn -0.000093 -0.999629 0.027225
vn -0.000093 -0.999629 0.027225
vn 0.000216 1.000000 0.000039
vn 0.001085 0.000007 0.999999
vn 0.001085 0.000007 0.999999
vn 0.000221 1.000000 0.000005
vn 0.000218 1.000000 0.000055
vn 0.000218 1.000000 0.000037
vn 0.000221 1.000000 0.000003
vn -0.000094 -0.999676 0.025475
vn -0.000094 -0.999676 0.025475
vn -0.000095 -0.999719 0.023724
vn -0.000095 -0.999719 0.023724
vn 0.000216 1.000000 0.000105
vn 0.000216 1.000000 0.000070
vn 0.001085 0.000014 0.999999
vn 0.001085 0.000014 0.999999
vn 0.001085 0.000021 0.999999
vn 0.001085 0.000021 0.999999
vn 0.000218 1.000000 0.000018
vn 0.000221 1.000000 0.000002
vn -0.000093 -0.999629 0.027226
vn -0.000093 -0.999629 0.027226
vn 0.000216 1.000000 0.000035
vn 0.001085 0.000007 0.999999
vn 0.001085 0.000007 0.999999
vn 0.000221 1.000000 0.000005
vn 0.000218 1.000000 0.000056
vn 0.000218 1.000000 0.000038
vn 0.000221 1.000000 0.000003
vn -0.000094 -0.999676 0.025474
vn -0.000094 -0.999676 0.025474
vn -0.000095 -0.999719 0.023723
vn -0.000095 -0.999719 0.023723
vn 0.000216 1.000000 0.000108
vn 0.000216 1.000000 0.000072
vn 0.001085 0.000014 0.999999
vn 0.001085 0.000014 0.999999
vn 0.001085 0.000021 0.999999
vn 0.001085 0.000021 0.999999
vn 0.000218 1.000000 0.000019
vn 0.000221 1.000000 0.000002
vn -0.000093 -0.999629 0.027225
vn -0.000093 -0.999629 0.027225
vn 0.000216 1.000000 0.000036
vn 0.001085 0.000007 0.999999
vn 0.001085 0.000007 0.999999
vn 0.000221 1.000000 0.000004
vn 0.000219 1.000000 0.000059
vn 0.000218 1.000000 0.000039
vn 0.000221 1.000000 0.000003
vn -0.000094 -0.999675 0.025481
vn -0.000094 -0.999675 0.025481
vn -0.000095 -0.999718 0.023730
vn -0.000095 -0.999718 0.023730
vn 0.000216 1.000000 0.000113
vn 0.000216 1.000000 0.000075
vn 0.001085 0.000014 0.999999
vn 0.001085 0.000014 0.999999
vn 0.001085 0.000021 0.999999
vn 0.001085 0.000021 0.999999
vn 0.000218 1.000000 0.000020
vn 0.000221 1.000000 0.000002
vn -0.000093 -0.999629 0.027231
vn -0.000093 -0.999629 0.027231
vn 0.000216 1.000000 0.000037
vn 0.001085 0.000007 0.999999
vn 0.001085 0.000007 0.999999
vn 0.000221 1.000000 0.000005
vn 0.000192 1.000000 -0.000285
vn 0.000192 1.000000 -0.000703
vn 0.000221 1.000000 0.000004
vn -0.000094 -0.999676 0.025474
vn -0.000094 -0.999676 0.025474
vn -0.000095 -0.999719 0.023723
vn -0.000095 -0.999719 0.023723
vn 0.000163 1.000000 -0.000575
vn 0.000163 0.999999 -0.001410
vn 0.001085 0.000007 0.999999
vn 0.001085 0.000007 0.999999
vn 0.001085 0.000014 0.999999
vn 0.001085 0.000014 0.999999
vn 0.000000 0.003727 0.999993
vn 0.000000 0.003727 0.999993
vn 0.000000 0.003727 0.999993
vn 0.000000 0.003727 0.999993
vn 0.000000 -1.000000 0.000000
vn 0.000000 -1.000000 0.000000
vn 0.000000 -1.000000 0.000000
vn 0.000000 -1.000000 0.000000
vn 0.000023 0.000000 -1.000000
vn 0.000023 0.000000 -1.000000
vn 0.000023 0.000038 -1.000000
vn 0.000023 0.000038 -1.000000
vn 0.000192 0.999999 -0.001121
vn 0.000221 1.000000 0.000002
vn -0.000093 -0.999629 0.027225
vn -0.000093 -0.999629 0.027225
vn 0.000163 0.999998 -0.002245
vn 0.001085 0.000000 0.999999
vn 0.001085 0.000000 0.999999
vn 0.000000 0.003727 0.999993
vn 0.000000 0.003727 0.999993
vn 0.000000 -1.000000 0.000000
vn 0.000000 -1.000000 0.000000
vn 0.000023 -0.000038 -1.000000
vn 0.000023 -0.000038 -1.000000
vn 0.000000 0.000000 1.000000
vn 0.000000 0.000000 1.000000
vn 0.000000 0.000000 1.000000
vn 0.000000 0.000000 1.000000
vn 0.000000 0.000000 1.000000
vn 0.000000 0.000000 1.000000
vn 0.000000 0.000000 1.000000
vn 0.000000 0.000000 1.000000
vn 0.000000 0.000000 1.000000
vn 0.000000 0.000000 1.000000
vn 0.000000 0.000000 1.000000
vn 0.000000 0.000000 1.000000
vn 0.000000 0.000000 1.000000
vn 0.000000 0.000000 1.000000
vn 0.000000 0.000000 1.000000
vn 0.000000 0.000000 1.000000
vn 0.000000 0.000000 1.000000
vn 0.000000 0.000000 1.000000
vn 0.000000 0.000000 1.000000
vn 0.000000 0.000000 1.000000
vn 0.000000 0.000000 1.000000
vn 0.000000 0.000000 1.000000
vn 0.000000 0.000000 1.000000
vn 0.000000 0.000000 1.000000
vn 0.000602 -0.045820 0.998950
vn 0.000602 -0.045820 0.998950
vn 0.000602 -0.045821 0.998949
vn 0.000602 -0.045821 0.998949
vn 0.000602 -0.045820 0.998950
vn 0.000602 -0.045820 0.998950
vn -0.001741 -0.946138 -0.323759
vn -0.002282 -0.946129 -0.323782
vn -0.002860 -0.946126 -0.323786
vn -0.002562 -0.946121 -0.323805
vn 0.001543 -0.999999 0.000648
vn 0.000721 -1.000000 0.000374
vn -0.011090 -0.999939 -0.000228
vn -0.010523 -0.999945 0.000402
vn 0.000947 -0.323021 0.946391
vn 0.000947 -0.323021 0.946391
vn -0.002635 -0.323071 0.946371
vn -0.002635 -0.323071 0.946371
vn 0.005909 0.946120 0.323762
vn 0.007807 0.945971 0.324159
vn 0.005374 0.946064 0.323935
vn 0.004318 0.946134 0.323747
vn 0.002940 0.946152 0.323709
vn 0.002726 0.946146 0.323730
vn -0.999994 0.001128 -0.003129
vn -0.999994 0.001128 -0.003129
vn -0.999998 0.000622 -0.002025
vn -0.999998 0.000622 -0.002025
vn -1.000000 0.000000 -0.000465
vn -1.000000 0.000000 -0.000465
vn -0.004448 -0.946068 -0.323936
vn -0.004448 -0.946068 -0.323936
vn -0.002200 -0.946117 -0.323819
vn -0.006931 -0.946022 -0.324028
vn -0.006931 -0.946022 -0.324028
vn -0.000421 0.000866 -1.000000
vn -0.000421 0.000866 -1.000000
vn -0.000309 0.001085 -0.999999
vn -0.000309 0.001085 -0.999999
vn -0.002708 -0.946224 -0.323502
vn -0.004757 -0.946288 -0.323291
vn -0.004757 -0.946288 -0.323291
vn -0.002708 -0.946224 -0.323502
vn -0.000969 -0.946143 -0.323749
vn 0.999994 0.001192 -0.003135
vn 0.999994 0.001192 -0.003135
vn 0.999998 0.000934 -0.001991
vn 0.999998 0.000934 -0.001991
vn 1.000000 0.000000 -0.000413
vn 1.000000 0.000000 -0.000413
vn 0.004530 -0.322967 0.946399
vn 0.004530 -0.322967 0.946399
vn 0.003262 0.946203 0.323558
vn 0.002513 0.946139 0.323751
vn 0.004011 0.946266 0.323365
vn -0.000198 0.001305 -0.999999
vn -0.000198 0.001305 -0.999999
vn -0.000924 -1.000000 -0.000175
vn 0.002312 -0.999997 0.000306
vn -0.000924 -1.000000 -0.000175
vn 0.999996 0.000516 -0.002702
vn 0.999996 0.000516 -0.002702
vn 0.004048 0.999987 -0.003007
vn 0.007486 0.999968 -0.002677
vn 0.007486 0.999968 -0.002677
vn 0.004048 0.999987 -0.003007
vn 0.010924 0.999938 -0.002347
vn 0.010924 0.999938 -0.002347
vn -0.999996 0.001010 -0.002673
vn -0.999996 0.001010 -0.002673
vn -0.015403 -0.999881 -0.000597
vn -0.012222 -0.999924 -0.001488
vn -0.012222 -0.999924 -0.001488
vn -0.002751 -0.999996 0.000100
vn -0.002075 -0.999998 0.000099
vn -0.002075 -0.999998 0.000099
vn -0.002751 -0.999996 0.000100
vn -0.981604 0.001226 0.190923
vn -0.981617 0.001161 -0.190858
vn -0.957697 0.001518 0.287773
vn -1.000000 0.000633 0.000089
vn -0.957714 0.000666 -0.287722
vn 0.977518 0.001892 0.210843
vn 0.948016 0.002340 0.318214
vn 0.977533 0.001711 -0.210775
vn 0.583665 0.000737 0.811994
vn 0.583665 0.000737 0.811994
vn 0.948044 0.001133 -0.318136
vn 0.583943 0.000849 -0.811794
vn 0.583943 0.000849 -0.811794
vn 1.000000 0.000977 0.000049
vn -0.609450 -0.000008 0.792825
vn -0.609450 -0.000008 0.792825
vn -0.002143 -0.999998 0.000093
vn -0.002143 -0.999998 0.000093
vn -0.002899 -0.999996 0.000093
vn -0.002899 -0.999996 0.000093
vn -0.609812 0.000447 -0.792546
vn -0.609812 0.000447 -0.792546
vn -0.161207 -0.001124 0.986920
vn -0.161207 -0.001124 0.986920
vn -0.001388 -0.999999 0.000094
vn -0.001388 -0.999999 0.000094
vn -0.161613 0.000120 -0.986854
vn -0.161613 0.000120 -0.986854
vn 0.160934 -0.000838 0.986965
vn 0.160934 -0.000838 0.986965
vn -0.001394 -0.999999 0.000097
vn -0.001394 -0.999999 0.000097
vn 0.161252 0.000246 -0.986913
vn 0.161252 0.000246 -0.986913
vn -0.001741 -0.946162 -0.323688
vn -0.002282 -0.946165 -0.323677
vn -0.002860 -0.946115 -0.323818
vn -0.002562 -0.946126 -0.323789
vn 0.001543 -0.999999 0.000648
vn 0.000721 -1.000000 0.000374
vn -0.011091 -0.999939 -0.000229
vn -0.010523 -0.999945 0.000402
vn 0.000947 -0.323004 0.946397
vn 0.000947 -0.323004 0.946397
vn -0.002635 -0.322997 0.946396
vn -0.002635 -0.322997 0.946396
vn 0.005909 0.946113 0.323783
vn 0.007807 0.945971 0.324159
vn 0.005374 0.946064 0.323935
vn 0.004318 0.946133 0.323749
vn 0.002940 0.946152 0.323709
vn 0.002726 0.946151 0.323714
vn -0.999995 0.000622 -0.003129
vn -0.999995 0.000622 -0.003129
vn -0.999998 0.000622 -0.002025
vn -0.999998 0.000622 -0.002025
vn -1.000000 0.000000 -0.000465
vn -1.000000 0.000000 -0.000465
vn -0.004449 -0.946064 -0.323948
vn -0.004449 -0.946064 -0.323948
vn -0.002200 -0.946124 -0.323797
vn -0.006934 -0.945976 -0.324162
vn -0.006934 -0.945976 -0.324162
vn -0.000421 0.000866 -1.000000
vn -0.000421 0.000866 -1.000000
vn -0.000309 0.001086 -0.999999
vn -0.000309 0.001086 -0.999999
vn -0.002708 -0.946224 -0.323502
vn -0.004757 -0.946288 -0.323291
vn -0.004757 -0.946288 -0.323291
vn -0.002708 -0.946224 -0.323502
vn -0.000969 -0.946178 -0.323645
vn 0.999995 0.000880 -0.003135
vn 0.999995 0.000880 -0.003135
vn 0.999998 0.000622 -0.001991
vn 0.999998 0.000622 -0.001991
vn 1.000000 0.000000 -0.000413
vn 1.000000 0.000000 -0.000413
vn 0.004529 -0.323006 0.946386
vn 0.004529 -0.323006 0.946386
vn 0.003262 0.946201 0.323562
vn 0.002512 0.946150 0.323718
vn 0.004011 0.946252 0.323406
vn -0.000198 0.001305 -0.999999
vn -0.000198 0.001305 -0.999999
vn -0.000925 -1.000000 -0.000175
vn 0.002312 -0.999997 0.000306
vn -0.000925 -1.000000 -0.000175
vn 0.999996 0.000516 -0.002702
vn 0.999996 0.000516 -0.002702
vn 0.004048 0.999987 -0.003007
vn 0.007484 0.999968 -0.002676
vn 0.007484 0.999968 -0.002676
vn 0.004048 0.999987 -0.003007
vn 0.010920 0.999938 -0.002346
vn 0.010920 0.999938 -0.002346
vn -0.999996 0.000000 -0.002673
vn -0.999996 0.000000 -0.002673
vn -0.015406 -0.999881 -0.000597
vn -0.012227 -0.999924 -0.001489
vn -0.012227 -0.999924 -0.001489
vn -0.002736 -0.999996 0.000100
vn -0.002067 -0.999998 0.000099
vn -0.002067 -0.999998 0.000099
vn -0.002736 -0.999996 0.000100
vn -0.981511 0.001129 0.191402
vn -0.981571 0.001089 -0.191093
vn -0.957480 0.001372 0.288498
vn -1.000000 0.000633 0.000098
vn -0.957606 0.000650 -0.288080
vn 0.977473 0.001837 0.211053
vn 0.947906 0.002287 0.318542
vn 0.977532 0.001680 -0.210780
vn 0.583384 0.000663 0.812196
vn 0.583384 0.000663 0.812196
vn 0.948042 0.001087 -0.318143
vn 0.583943 0.000840 -0.811794
vn 0.583943 0.000840 -0.811794
vn 1.000000 0.000920 0.000036
vn -0.609027 -0.000042 0.793149
vn -0.609027 -0.000042 0.793149
vn -0.002135 -0.999998 0.000093
vn -0.002135 -0.999998 0.000093
vn -0.002879 -0.999996 0.000093
vn -0.002879 -0.999996 0.000093
vn -0.609601 0.000425 -0.792708
vn -0.609601 0.000425 -0.792708
vn -0.161429 -0.001105 0.986884
vn -0.161429 -0.001105 0.986884
vn -0.001390 -0.999999 0.000094
vn -0.001390 -0.999999 0.000094
vn -0.161724 0.000114 -0.986836
vn -0.161724 0.000114 -0.986836
vn 0.160934 -0.000859 0.986965
vn 0.160934 -0.000859 0.986965
vn -0.001394 -0.999999 0.000097
vn -0.001394 -0.999999 0.000097
vn 0.161252 0.000252 -0.986913
vn 0.161252 0.000252 -0.986913
s 1
g polySurface23400
f 5/1/1 3/2/2 6/3/3 2/4/4
s 2
f 1/5/5 8/6/6 7/7/7 4/8/8
s 1
f 6/9/3 3/10/2 9/11/9 10/12/10
s 3
f 2/13/11 1/14/12 4/15/13 5/16/14
s off
f 5/17/15 4/18/16 11/19/17 12/20/18
f 16/21/19 14/22/20 13/23/21 15/24/22
s 1
f 2/25/4 6/26/3 17/27/23 16/28/24
s 2
f 15/29/25 18/30/26 8/31/6 1/32/5
s 1
f 17/33/23 6/34/3 10/35/10 19/36/27
s 3
f 16/37/28 15/38/29 1/39/12 2/40/11
s 6
f 24/41/30 22/42/31 25/43/32 21/44/33
s 7
f 20/45/34 27/46/35 26/47/36 23/48/37
s 6
f 25/49/32 22/50/31 28/51/38 29/52/39
s 8
f 21/53/40 20/54/41 23/55/42 24/56/43
s 6
f 21/57/33 25/58/32 32/59/44 31/60/45
s 7
f 30/61/46 33/62/47 27/63/35 20/64/34
s 6
f 32/65/44 25/66/32 29/67/39 34/68/48
s 8
f 31/69/49 30/70/50 20/71/41 21/72/40
s 9
f 39/73/51 37/74/52 40/75/53 36/76/54
s 10
f 35/77/55 42/78/56 41/79/57 38/80/58
s 9
f 40/81/53 37/82/52 43/83/59 44/84/60
s 11
f 36/85/61 35/86/62 38/87/63 39/88/64
s 9
f 36/89/54 40/90/53 47/91/65 46/92/66
s 10
f 45/93/67 48/94/68 42/95/56 35/96/55
s 9
f 47/97/65 40/98/53 44/99/60 49/100/69
s 11
f 46/101/70 45/102/71 35/103/62 36/104/61
s 12
f 54/105/72 52/106/73 55/107/74 51/108/75
s 13
f 50/109/76 57/110/77 56/111/78 53/112/79
s 12
f 55/113/74 52/114/73 58/115/80 59/116/81
s 14
f 51/117/82 50/118/83 53/119/84 54/120/85
s 12
f 51/121/75 55/122/74 62/123/86 61/124/87
s 13
f 60/125/88 63/126/89 57/127/77 50/128/76
s 12
f 62/129/86 55/130/74 59/131/81 64/132/90
s 14
f 61/133/91 60/134/92 50/135/83 51/136/82
s 15
f 69/137/93 67/138/94 70/139/95 66/140/96
s 16
f 65/141/97 72/142/98 71/143/99 68/144/100
s 15
f 70/145/95 67/146/94 73/147/101 74/148/102
s 17
f 66/149/103 65/150/104 68/151/105 69/152/106
s 15
f 66/153/96 70/154/95 77/155/107 76/156/108
s 16
f 75/157/109 78/158/110 72/159/98 65/160/97
s 15
f 77/161/107 70/162/95 74/163/102 79/164/111
s 17
f 76/165/112 75/166/113 65/167/104 66/168/103
s 18
f 84/169/114 82/170/115 85/171/116 81/172/117
s 19
f 80/173/118 87/174/119 86/175/120 83/176/121
s 18
f 85/177/116 82/178/115 88/179/122 89/180/123
s 20
f 81/181/124 80/182/125 83/183/126 84/184/127
s 21
f 90/185/128 91/186/129 93/187/130 92/188/131
s 22
f 91/189/132 94/190/133 95/191/134 93/192/135
s 23
f 94/193/136 89/194/137 88/195/138 95/196/139
s 18
f 81/197/117 85/198/116 98/199/140 97/200/141
s 19
f 96/201/142 99/202/143 87/203/119 80/204/118
s 18
f 98/205/140 85/206/116 89/207/123 100/208/144
s 20
f 97/209/145 96/210/146 80/211/125 81/212/124
s 21
f 101/213/147 102/214/148 91/215/129 90/216/128
s 22
f 102/217/149 103/218/150 94/219/133 91/220/132
s 23
f 103/221/151 100/222/152 89/223/137 94/224/136
s 24
f 106/225/153 107/226/154 105/227/155 104/228/156
f 108/229/157 109/230/158 107/231/154 106/232/153
s 25
f 112/233/159 113/234/160 111/235/161 110/236/162
f 114/237/163 115/238/164 113/239/160 112/240/159
s 26
f 116/241/165 117/242/166 119/243/167 118/244/168
f 120/245/169 121/246/170 117/247/166 116/248/165
s 27
f 124/249/171 125/250/172 123/251/173 122/252/174
f 126/253/175 127/254/176 125/255/172 124/256/171
s 28
f 130/257/177 131/258/178 129/259/179 128/260/180
f 132/261/181 133/262/182 131/263/178 130/264/177
s 29
f 138/265/183 139/266/184 134/267/185 136/268/186
s 30
f 140/269/187 141/270/188 137/271/189 135/272/190
s 31
f 134/273/191 142/274/192 143/275/193 144/276/194
s 32
f 162/277/195 163/278/196 148/279/197 150/280/198
f 143/281/199 142/282/200 150/283/198 148/284/197
s 33
f 163/285/201 164/286/202 147/287/203 148/288/204
f 144/289/205 143/290/206 148/291/204 147/292/203
s 29
f 147/293/207 151/294/208 136/295/186 144/296/209
f 164/297/210 165/298/211 151/299/208 147/300/207
s 34
f 146/301/212 145/302/213 149/303/214 135/304/215
s 29
f 156/305/216 159/306/217 160/307/218 155/308/219
f 158/309/220 138/310/183 156/311/216 155/312/219
s 35
f 160/313/221 161/314/222 154/315/223 155/316/224
f 157/317/225 158/318/226 155/319/224 154/320/223
s 31
f 142/321/192 134/322/191 158/323/227 157/324/228
s 32
f 154/325/229 150/326/198 142/327/200 157/328/230
f 161/329/231 162/330/195 150/331/198 154/332/229
s 34
f 153/333/232 152/334/233 135/335/215 149/336/214
s 30
f 159/306/234 141/337/188 152/338/235 160/307/236
s 35
f 152/339/237 153/340/238 161/314/222 160/313/221
s 36
f 153/341/239 149/342/240 162/330/241 161/329/242
f 149/343/240 145/344/243 163/278/244 162/277/241
s 33
f 145/345/245 146/346/246 164/286/202 163/285/201
s 30
f 146/347/247 135/348/190 137/349/189
s 29
f 158/309/220 139/350/184 138/310/183
f 144/296/209 136/295/186 134/351/185
s 30
f 146/347/247 137/349/189 165/298/248 164/297/249
f 141/337/188 140/352/187 152/338/235
s 37
f 166/353/250 185/354/251 186/355/252 167/356/253
s 38
f 171/357/254 169/358/255 168/359/256
f 171/357/254 172/360/257 170/361/258 169/358/255
f 174/362/259 166/363/260 167/364/261
f 166/365/260 174/366/259 184/367/262 185/368/263
f 173/369/264 167/370/261 186/371/265 187/372/266
f 174/362/259 167/364/261 173/373/264 175/374/267
f 177/375/268 176/376/269 171/377/254 168/378/256
s 37
f 178/379/270 177/380/271 168/381/272 169/382/273
s 38
f 179/383/274 178/384/275 169/385/255 170/386/258
f 181/387/276 180/388/277 176/376/269 177/375/268
s 37
f 182/389/278 181/390/279 177/380/271 178/379/270
s 38
f 183/391/280 182/392/281 178/384/275 179/383/274
f 185/368/263 184/367/262 188/393/282 189/394/283
s 37
f 186/355/252 185/354/251 189/395/284 190/396/285
s 38
f 187/372/266 186/371/265 190/397/286 191/398/287
f 189/394/283 188/393/282 180/388/277 181/387/276
s 37
f 190/396/285 189/395/284 181/390/279 182/389/278
s 38
f 191/398/287 190/397/286 182/392/281 183/391/280
s 39
f 196/399/288 197/400/289 192/401/290 194/402/291
s 40
f 198/403/292 199/404/293 195/405/294 193/406/295
s 41
f 192/407/296 200/408/297 201/409/298 202/410/299
s 42
f 220/411/300 221/412/301 206/413/302 208/414/303
f 201/415/304 200/416/305 208/417/303 206/418/302
s 43
f 221/419/306 222/420/307 205/421/308 206/422/309
f 202/423/310 201/424/311 206/425/309 205/426/308
s 39
f 205/427/312 209/428/313 194/429/291 202/430/314
f 222/431/315 223/432/316 209/433/313 205/434/312
s 44
f 204/435/317 203/436/318 207/437/319 193/438/320
s 39
f 214/439/321 217/440/322 218/441/323 213/442/324
f 216/443/325 196/444/288 214/445/321 213/446/324
s 45
f 218/447/326 219/448/327 212/449/328 213/450/329
f 215/451/330 216/452/331 213/453/329 212/454/328
s 41
f 200/455/297 192/456/296 216/457/332 215/458/333
s 42
f 212/459/334 208/460/303 200/461/305 215/462/335
f 219/463/336 220/464/300 208/465/303 212/466/334
s 44
f 211/467/337 210/468/338 193/469/320 207/470/319
s 40
f 217/440/339 199/471/293 210/472/340 218/441/341
s 45
f 210/473/342 211/474/343 219/448/327 218/447/326
s 46
f 211/475/344 207/476/345 220/464/346 219/463/347
f 207/477/345 203/478/348 221/412/349 220/411/346
s 43
f 203/479/350 204/480/351 222/420/307 221/419/306
s 40
f 204/481/352 193/482/295 195/483/294
s 39
f 216/443/325 197/484/289 196/444/288
f 202/430/314 194/429/291 192/485/290
s 40
f 204/481/352 195/483/294 223/432/353 222/431/354
f 199/471/293 198/486/292 210/472/340
s 47
f 224/487/355 243/488/356 244/489/357 225/490/358
s 48
f 229/491/359 227/492/360 226/493/361
f 229/491/359 230/494/362 228/495/363 227/492/360
f 232/496/364 224/497/365 225/498/366
f 224/499/365 232/500/364 242/501/367 243/502/368
f 231/503/369 225/504/366 244/505/370 245/506/371
f 232/496/364 225/498/366 231/507/369 233/508/372
f 235/509/373 234/510/374 229/511/359 226/512/361
s 47
f 236/513/375 235/514/376 226/515/377 227/516/378
s 48
f 237/517/379 236/518/380 227/519/360 228/520/363
f 239/521/381 238/522/382 234/510/374 235/509/373
s 47
f 240/523/383 239/524/384 235/514/376 236/513/375
s 48
f 241/525/385 240/526/386 236/518/380 237/517/379
f 243/502/368 242/501/367 246/527/387 247/528/388
s 47
f 244/489/357 243/488/356 247/529/389 248/530/390
s 48
f 245/506/371 244/505/370 248/531/391 249/532/392
f 247/528/388 246/527/387 238/522/382 239/521/381
s 47
f 248/530/390 247/529/389 239/524/384 240/523/383
s 48
f 249/532/392 248/531/391 240/526/386 241/525/385
