# This file uses centimeters as units for non-parametric coordinates.

g default
v -322.636475 0.052901 3.067966
v -324.716797 0.052901 3.078648
v -322.636841 1.028180 5.147678
v -324.716858 1.028180 5.158237
v -322.636841 0.052901 5.147678
v -324.716858 0.052901 5.158237
v -322.636841 2.003459 5.147678
v -324.716858 2.003459 5.158237
v -322.636047 0.052901 1.008823
v -324.708984 0.052901 1.009098
v -320.556702 0.052901 3.079075
v -320.557068 1.028180 5.158817
v -320.557068 0.052901 5.158817
v -320.557068 2.003459 5.158817
v -320.563293 0.052901 1.009403
v -318.476929 0.052902 3.090183
v -316.397034 1.028180 3.089909
v -316.397034 0.052902 3.089909
v -318.477234 1.028180 5.169926
v -318.477234 0.052902 5.169926
v -316.397461 1.028180 5.089451
v -316.397461 0.052902 5.089451
v -316.397034 2.003459 3.089909
v -318.477234 2.003459 5.169926
v -316.397461 2.003459 5.089451
v -316.407104 1.028180 1.010258
v -318.486755 0.052901 1.010044
v -316.407104 0.052901 1.010258
v -316.407104 2.003459 1.010258
v -326.796875 0.052902 3.088718
v -326.785522 0.052901 1.008884
v -326.796570 1.028180 5.168583
v -326.796570 0.052902 5.168583
v -328.876587 1.028180 3.088383
v -328.865234 1.028180 1.008671
v -328.876587 0.052902 3.088383
v -328.865234 0.052901 1.008671
v -328.876587 1.028180 5.087711
v -328.876587 0.052902 5.087711
v -326.796570 2.003459 5.168583
v -328.876587 2.003459 3.088383
v -328.865234 2.003459 1.008671
v -328.876587 2.003459 5.087711
v -326.795410 0.052902 -1.071255
v -324.715637 0.052901 -1.060116
v -328.875244 1.028180 -1.070950
v -328.875244 0.052902 -1.070950
v -326.795044 1.028180 -3.150967
v -324.715271 1.028180 -3.139858
v -326.795044 0.052902 -3.150967
v -324.715271 0.052901 -3.139858
v -328.874817 1.028180 -3.070492
v -328.874817 0.052902 -3.070492
v -328.875244 2.003459 -1.070950
v -326.795044 2.003459 -3.150967
v -324.715271 2.003459 -3.139858
v -328.874817 2.003459 -3.070492
v -318.475464 0.052902 -1.069790
v -318.475769 1.028180 -3.149654
v -318.475769 0.052902 -3.149654
v -316.395752 1.028180 -1.069454
v -316.395752 0.052902 -1.069454
v -316.395752 1.028180 -3.068783
v -316.395752 0.052902 -3.068783
v -318.475769 2.003459 -3.149654
v -316.395752 2.003459 -1.069454
v -316.395752 2.003459 -3.068783
v -320.555481 1.028180 -3.139309
v -320.555542 0.052901 -1.059689
v -320.555481 0.052901 -3.139309
v -320.555481 2.003459 -3.139309
v -322.635803 0.052901 -1.049007
v -322.635498 1.028180 -3.128750
v -322.635498 0.052901 -3.128750
v -322.635498 2.003459 -3.128750
v -328.984924 1.995390 -3.247410
v -328.984924 2.063688 -3.247410
v -328.984985 2.063687 -2.836674
v -328.984985 1.995390 -2.836674
v -328.567444 2.064449 -2.836674
v -328.570862 1.996150 -3.250492
v -328.567444 2.064446 -3.250492
v -328.568176 2.064826 -1.080029
v -328.985474 2.064446 -1.080036
v -328.985474 1.996150 -1.080036
v -328.890015 1.997288 -1.080029
v -328.886353 1.995390 -2.836674
v -328.570251 1.996149 -3.153973
v -328.889709 1.996912 -3.156963
v -328.567261 2.065395 0.995274
v -328.984924 2.065205 1.000042
v -328.984924 1.996909 1.000042
v -328.887634 1.997287 1.000050
v -326.813538 2.065205 -3.254246
v -326.813538 1.996908 -3.254246
v -326.813599 2.065205 -2.836376
v -326.813538 1.996908 -3.155628
v -324.733215 2.064399 -3.251194
v -324.734070 1.996102 -3.251194
v -324.730652 2.065348 -2.836079
v -324.733215 1.996671 -3.154896
v -324.728516 2.066035 -1.078365
v -324.734253 2.065964 1.000919
v -326.814270 2.065205 -1.079525
v -326.814392 2.065585 0.992886
v -322.654724 2.065347 -2.835049
v -322.655090 2.065964 -1.077335
v -320.569336 2.065585 -1.077679
v -320.571045 2.065443 -2.833813
v -322.654907 2.066415 1.001652
v -320.575623 2.065964 1.002392
v -322.654907 2.064731 -3.252773
v -322.654907 1.996434 -3.252773
v -322.654907 1.996434 -3.154156
v -320.574707 2.064897 -3.251369
v -320.574707 1.996600 -3.251369
v -320.574707 1.996979 -3.154057
v -328.976379 1.995390 5.251606
v -328.976379 2.063688 5.251606
v -328.565674 2.063687 5.251652
v -328.565674 1.995390 5.251652
v -328.565674 2.064449 4.834110
v -328.979492 1.996150 4.837498
v -328.979492 2.064446 4.834110
v -326.815247 2.064826 4.834827
v -326.815247 2.064446 5.252132
v -326.815247 1.996150 5.252132
v -326.815247 1.997288 5.156658
v -328.565674 1.995390 5.153034
v -328.882935 1.996149 4.836903
v -328.885986 1.996912 5.156391
v -324.738831 2.065443 4.835461
v -324.735107 2.064897 5.253017
v -324.735107 1.996600 5.253017
v -324.735107 1.996979 5.155712
v -328.983215 2.065205 3.080189
v -328.983215 1.996908 3.080189
v -328.565369 2.065205 3.080235
v -328.884644 1.996908 3.080189
v -326.814697 2.065205 3.080936
v -324.740540 2.065585 3.080982
v -316.324890 1.995248 5.247410
v -316.324890 2.063546 5.247410
v -316.324890 2.063545 4.836674
v -316.324890 1.995248 4.836674
v -316.742432 2.064307 4.836674
v -316.739014 1.996007 5.250492
v -316.742432 2.064304 5.250492
v -316.741699 2.064684 3.083340
v -316.324402 2.064304 3.083347
v -316.324402 1.996007 3.083347
v -316.419861 1.997146 3.083340
v -316.423462 1.995248 4.836674
v -316.739624 1.996007 5.157757
v -316.420105 1.996770 5.164532
v -316.742615 2.065253 1.008038
v -316.324951 2.065063 1.003269
v -316.324951 1.996767 1.003269
v -316.422241 1.997145 1.003262
v -318.496338 2.065063 5.254246
v -318.496338 1.996766 5.254246
v -318.496277 2.065063 4.836376
v -318.496338 1.996766 5.155628
v -320.576599 2.064257 5.251186
v -320.575806 1.995960 5.251186
v -320.579163 2.065206 4.836079
v -320.576599 1.996529 5.154888
v -320.581360 2.065893 3.081669
v -318.495605 2.065063 3.082829
v -318.495483 2.065443 1.010426
v -322.655151 2.065205 4.835049
v -322.654785 2.065822 3.080647
v -322.654968 2.064589 5.252773
v -322.654968 1.996292 5.252773
v -322.654968 1.996292 5.154156
v -316.333435 1.995248 -3.248295
v -316.333435 2.063546 -3.248295
v -316.744202 2.063545 -3.248341
v -316.744202 1.995248 -3.248341
v -316.744202 2.064307 -2.830799
v -316.330383 1.996007 -2.834187
v -316.330383 2.064304 -2.830799
v -318.494629 2.064684 -2.831516
v -318.494629 2.064304 -3.248821
v -318.494629 1.996007 -3.248821
v -318.494629 1.997146 -3.153347
v -316.744202 1.995248 -3.149723
v -316.426880 1.996007 -2.833584
v -316.423889 1.996770 -3.153080
v -316.326599 2.065063 -1.076878
v -316.326599 1.996766 -1.076878
v -316.744507 2.065063 -1.076923
v -316.425232 1.996766 -1.076878
v -318.495117 2.065063 -1.077625
v -328.796844 2.003459 5.168179
v -328.796844 1.028180 5.168179
v -328.796844 0.052902 5.168179
v -328.796844 0.052902 3.088406
v -328.785461 0.052901 1.008686
v -328.795532 0.052902 -1.070965
v -328.795074 0.052902 -3.150967
v -328.795074 1.028180 -3.150967
v -328.795074 2.003459 -3.150967
v -316.482391 2.003459 5.169926
v -316.482391 1.028180 5.169926
v -316.482391 0.052902 5.169926
v -316.481964 0.052902 3.089924
v -316.492035 0.052901 1.010242
v -316.480682 0.052902 -1.069469
v -316.480682 0.052902 -3.149242
v -316.480682 1.028180 -3.149242
v -316.480682 2.003459 -3.149242
v -328.847961 2.003459 5.146648
v -328.847961 1.028180 5.146648
v -328.847961 0.052902 5.146648
v -328.847961 0.052902 3.088398
v -328.836578 0.052901 1.008678
v -328.846649 0.052902 -1.070957
v -328.846191 0.052902 -3.129436
v -328.846191 1.028180 -3.129436
v -328.846191 2.003459 -3.129436
v -316.423187 2.003459 5.146053
v -316.423187 1.028180 5.146053
v -316.423187 0.052902 5.146053
v -316.422729 0.052902 3.089916
v -316.432831 0.052901 1.010250
v -316.421448 0.052902 -1.069462
v -316.421448 0.052902 -3.125370
v -316.421448 1.028180 -3.125370
v -316.421448 2.003459 -3.125370
vt 0.000000 0.322036
vt 0.000000 1.000000
vt 0.678011 1.000000
vt 0.678011 0.322036
vt 0.677156 0.001086
vt 0.677156 0.317870
vt 0.000855 0.317870
vt 0.000855 0.001086
vt 0.677156 0.001086
vt 0.677156 0.317870
vt 0.000855 0.317870
vt 0.000855 0.001086
vt 0.000000 0.322036
vt 0.000000 1.000000
vt 0.678011 1.000000
vt 0.678011 0.322036
vt 0.000000 0.322036
vt 0.000000 1.000000
vt 0.678011 1.000000
vt 0.678011 0.322036
vt 0.677156 0.001086
vt 0.677156 0.317870
vt 0.000855 0.317870
vt 0.000855 0.001086
vt 0.677156 0.001086
vt 0.677156 0.317870
vt 0.000855 0.317870
vt 0.000855 0.001086
vt 0.000000 0.322036
vt 0.000000 1.000000
vt 0.678011 1.000000
vt 0.678011 0.322036
vt 0.000000 0.322036
vt 0.000000 1.000000
vt 0.678011 1.000000
vt 0.678011 0.322036
vt 0.000855 0.317870
vt 0.000855 0.001086
vt 0.677156 0.317870
vt 0.000000 0.322036
vt 0.000000 1.000000
vt 0.678011 1.000000
vt 0.678011 0.322036
vt 0.000855 0.317870
vt 0.000855 0.001086
vt 0.677156 0.001086
vt 0.000000 0.322036
vt 0.000000 1.000000
vt 0.678011 1.000000
vt 0.678011 0.322036
vt 0.000000 0.322036
vt 0.000000 1.000000
vt 0.678011 1.000000
vt 0.678011 0.322036
vt 0.000855 0.001086
vt 0.677156 0.001086
vt 0.677156 0.317870
vt 0.000855 0.317870
vt 0.677156 0.317870
vt 0.000855 0.317870
vt 0.677156 0.001086
vt 0.677156 0.317870
vt 0.677156 0.001086
vt 0.000855 0.001086
vt 0.000855 0.001086
vt 0.677156 0.001086
vt 0.000855 0.317870
vt 0.677156 0.317870
vt 0.677156 0.001086
vt 0.000855 0.001086
vt 0.000855 0.001086
vt 0.677156 0.001086
vt 0.677156 0.317870
vt 0.000855 0.317870
vt 0.000855 0.317870
vt 0.677156 0.317870
vt 0.000855 0.317870
vt 0.677156 0.317870
vt 0.677156 0.001086
vt 0.000855 0.001086
vt 0.000000 0.322036
vt 0.000000 1.000000
vt 0.678011 1.000000
vt 0.678011 0.322036
vt 0.000855 0.317870
vt 0.000855 0.001086
vt 0.677156 0.317870
vt 0.000000 0.322036
vt 0.000000 1.000000
vt 0.678011 1.000000
vt 0.678011 0.322036
vt 0.000855 0.317870
vt 0.000855 0.001086
vt 0.677156 0.001086
vt 0.000000 0.322036
vt 0.000000 1.000000
vt 0.678011 1.000000
vt 0.678011 0.322036
vt 0.000000 0.322036
vt 0.000000 1.000000
vt 0.678011 1.000000
vt 0.678011 0.322036
vt 0.000855 0.001086
vt 0.677156 0.001086
vt 0.677156 0.317870
vt 0.000855 0.317870
vt 0.677156 0.317870
vt 0.000855 0.317870
vt 0.677156 0.001086
vt 0.677156 0.317870
vt 0.677156 0.001086
vt 0.000855 0.001086
vt 0.000855 0.001086
vt 0.677156 0.001086
vt 0.000855 0.317870
vt 0.677156 0.317870
vt 0.677156 0.001086
vt 0.000855 0.001086
vt 0.000855 0.001086
vt 0.677156 0.001086
vt 0.677156 0.317870
vt 0.000855 0.317870
vt 0.000855 0.317870
vt 0.677156 0.317870
vt 0.000855 0.317870
vt 0.677156 0.317870
vt 0.677156 0.001086
vt 0.000855 0.001086
vt 0.000000 0.322036
vt 0.000000 1.000000
vt 0.678011 1.000000
vt 0.678011 0.322036
vt 0.000855 0.317870
vt 0.000855 0.001086
vt 0.677156 0.317870
vt 0.000000 0.322036
vt 0.000000 1.000000
vt 0.678011 1.000000
vt 0.678011 0.322036
vt 0.000855 0.317870
vt 0.000855 0.001086
vt 0.677156 0.001086
vt 0.000000 0.322036
vt 0.000000 1.000000
vt 0.678011 1.000000
vt 0.678011 0.322036
vt 0.000000 0.322036
vt 0.000000 1.000000
vt 0.678011 1.000000
vt 0.678011 0.322036
vt 0.000855 0.001086
vt 0.677156 0.001086
vt 0.677156 0.317870
vt 0.000855 0.317870
vt 0.677156 0.317870
vt 0.000855 0.317870
vt 0.677156 0.001086
vt 0.677156 0.317870
vt 0.677156 0.001086
vt 0.000855 0.001086
vt 0.000855 0.001086
vt 0.677156 0.001086
vt 0.000855 0.317870
vt 0.677156 0.317870
vt 0.677156 0.001086
vt 0.000855 0.001086
vt 0.000855 0.001086
vt 0.677156 0.001086
vt 0.677156 0.317870
vt 0.000855 0.317870
vt 0.000855 0.317870
vt 0.677156 0.317870
vt 0.000855 0.317870
vt 0.677156 0.317870
vt 0.677156 0.001086
vt 0.000855 0.001086
vt 0.000000 0.322036
vt 0.000000 1.000000
vt 0.678011 1.000000
vt 0.678011 0.322036
vt 0.000855 0.317870
vt 0.000855 0.001086
vt 0.677156 0.317870
vt 0.000000 0.322036
vt 0.000000 1.000000
vt 0.678011 1.000000
vt 0.678011 0.322036
vt 0.000855 0.317870
vt 0.000855 0.001086
vt 0.677156 0.001086
vt 0.000000 0.322036
vt 0.000000 1.000000
vt 0.678011 1.000000
vt 0.678011 0.322036
vt 0.000000 0.322036
vt 0.000000 1.000000
vt 0.678011 1.000000
vt 0.678011 0.322036
vt 0.000855 0.001086
vt 0.677156 0.001086
vt 0.677156 0.317870
vt 0.000855 0.317870
vt 0.677156 0.317870
vt 0.000855 0.317870
vt 0.677156 0.001086
vt 0.677156 0.317870
vt 0.677156 0.001086
vt 0.000855 0.001086
vt 0.000855 0.001086
vt 0.677156 0.001086
vt 0.000855 0.317870
vt 0.677156 0.317870
vt 0.677156 0.001086
vt 0.000855 0.001086
vt 0.000855 0.001086
vt 0.677156 0.001086
vt 0.677156 0.317870
vt 0.000855 0.317870
vt 0.000855 0.317870
vt 0.677156 0.317870
vt 0.000855 0.317870
vt 0.677156 0.317870
vt 0.677156 0.001086
vt 0.000855 0.001086
vt 0.000000 0.322036
vt 0.000000 1.000000
vt 0.678011 1.000000
vt 0.678011 0.322036
vt 0.677156 0.001086
vt 0.677156 0.317870
vt 0.000855 0.317870
vt 0.000855 0.001086
vt 0.677156 0.001086
vt 0.677156 0.317870
vt 0.000855 0.317870
vt 0.000855 0.001086
vt 0.000000 0.322036
vt 0.000000 1.000000
vt 0.678011 1.000000
vt 0.678011 0.322036
vt 0.000000 0.322036
vt 0.000000 1.000000
vt 0.678011 1.000000
vt 0.678011 0.322036
vt 0.677156 0.001086
vt 0.677156 0.317870
vt 0.000855 0.317870
vt 0.000855 0.001086
vt 0.677156 0.001086
vt 0.677156 0.317870
vt 0.000855 0.317870
vt 0.000855 0.001086
vt 0.000000 0.322036
vt 0.000000 1.000000
vt 0.678011 1.000000
vt 0.678011 0.322036
vt 0.903585 0.065745
vt 0.932815 0.065745
vt 0.932817 0.249916
vt 0.903655 0.250496
vt 0.903585 0.036422
vt 0.734896 0.036422
vt 0.734896 0.007293
vt 0.903585 0.007293
vt 0.734925 0.250108
vt 0.734896 0.065745
vt 0.903585 0.984793
vt 0.734896 0.984262
vt 0.932815 0.984888
vt 0.961182 0.242181
vt 0.961229 0.984982
vt 0.961229 0.065745
vt 0.903585 0.984793
vt 0.734896 0.984262
vt 0.734925 0.250108
vt 0.903655 0.250496
vt 0.932817 0.249916
vt 0.932815 0.984888
vt 0.961182 0.242181
vt 0.961229 0.984982
vt 0.903585 0.984793
vt 0.734896 0.984262
vt 0.734925 0.250108
vt 0.903655 0.250496
vt 0.932817 0.249916
vt 0.961182 0.242181
vt 0.961229 0.984982
vt 0.932815 0.984888
vt 0.903585 0.984793
vt 0.734896 0.984262
vt 0.734925 0.250108
vt 0.903655 0.250496
vt 0.932817 0.249916
vt 0.961182 0.242181
vt 0.961229 0.984982
vt 0.932815 0.984888
vt 0.000000 1.000000
vt 0.000000 0.321078
vt 0.677219 0.321078
vt 0.677219 1.000000
vt 0.000000 0.321078
vt 0.677219 0.321078
vt 0.677219 1.000000
vt 0.000000 1.000000
vt 0.000000 0.321078
vt 0.677219 0.321078
vt 0.677219 1.000000
vt 0.000000 1.000000
vt 0.000000 0.321078
vt 0.677219 0.321078
vt 0.677219 1.000000
vt 0.000000 1.000000
vt 0.734896 0.065745
vt 0.734896 0.036422
vt 0.903585 0.036422
vt 0.903585 0.065745
vt 0.903655 0.250496
vt 0.932817 0.249916
vt 0.932815 0.984888
vt 0.903585 0.984793
vt 0.903655 0.250496
vt 0.932817 0.249916
vt 0.932815 0.984888
vt 0.903585 0.984793
vt 0.000703 0.320938
vt 0.677477 0.320938
vt 0.677477 1.000277
vt 0.000703 1.000277
vt 0.000703 0.320938
vt 0.677477 0.320938
vt 0.677477 1.000277
vt 0.000703 1.000277
vt 0.677477 0.320938
vt 0.677477 1.000277
vt 0.000703 1.000277
vt 0.000703 0.320938
vt 0.677477 0.320938
vt 0.677477 1.000277
vt 0.000703 1.000277
vt 0.000703 0.320938
vt 0.903585 0.984793
vt 0.734896 0.984262
vt 0.734925 0.250108
vt 0.903655 0.250496
vt 0.932817 0.249916
vt 0.961182 0.242181
vt 0.961229 0.984982
vt 0.932815 0.984888
vt 0.903585 0.984793
vt 0.734896 0.984262
vt 0.734925 0.250108
vt 0.903655 0.250496
vt 0.932817 0.249916
vt 0.961182 0.242181
vt 0.961229 0.984982
vt 0.932815 0.984888
vt 0.903655 0.250496
vt 0.932817 0.249916
vt 0.932815 0.984888
vt 0.903585 0.984793
vt 0.903655 0.250496
vt 0.932817 0.249916
vt 0.932815 0.984888
vt 0.903585 0.984793
vt 0.903585 0.065745
vt 0.932815 0.065745
vt 0.932817 0.249916
vt 0.903655 0.250496
vt 0.903585 0.036422
vt 0.734896 0.036422
vt 0.734896 0.007293
vt 0.903585 0.007293
vt 0.734925 0.250108
vt 0.734896 0.065745
vt 0.903585 0.984793
vt 0.734896 0.984262
vt 0.932815 0.984888
vt 0.961182 0.242181
vt 0.961229 0.984982
vt 0.961229 0.065745
vt 0.903585 0.984793
vt 0.734896 0.984262
vt 0.734925 0.250108
vt 0.903655 0.250496
vt 0.932817 0.249916
vt 0.932815 0.984888
vt 0.961182 0.242181
vt 0.961229 0.984982
vt 0.903585 0.984793
vt 0.734896 0.984262
vt 0.734925 0.250108
vt 0.903655 0.250496
vt 0.932817 0.249916
vt 0.961182 0.242181
vt 0.961229 0.984982
vt 0.932815 0.984888
vt 0.903585 0.984793
vt 0.734896 0.984262
vt 0.734925 0.250108
vt 0.903655 0.250496
vt 0.932817 0.249916
vt 0.961182 0.242181
vt 0.961229 0.984982
vt 0.932815 0.984888
vt 0.000000 1.000000
vt 0.000000 0.321078
vt 0.677219 0.321078
vt 0.677219 1.000000
vt 0.000000 0.321078
vt 0.677219 0.321078
vt 0.677219 1.000000
vt 0.000000 1.000000
vt 0.000000 0.321078
vt 0.677219 0.321078
vt 0.677219 1.000000
vt 0.000000 1.000000
vt 0.000000 0.321078
vt 0.677219 0.321078
vt 0.677219 1.000000
vt 0.000000 1.000000
vt 0.734896 0.065745
vt 0.734896 0.036422
vt 0.903585 0.036422
vt 0.903585 0.065745
vt 0.903655 0.250496
vt 0.932817 0.249916
vt 0.932815 0.984888
vt 0.903585 0.984793
vt 0.903655 0.250496
vt 0.932817 0.249916
vt 0.932815 0.984888
vt 0.903585 0.984793
vt 0.903585 0.065745
vt 0.932815 0.065745
vt 0.932817 0.249916
vt 0.903655 0.250496
vt 0.903585 0.036422
vt 0.734896 0.036422
vt 0.734896 0.007293
vt 0.903585 0.007293
vt 0.734925 0.250108
vt 0.734896 0.065745
vt 0.903585 0.984793
vt 0.734896 0.984262
vt 0.932815 0.984888
vt 0.961182 0.242181
vt 0.961229 0.984982
vt 0.961229 0.065745
vt 0.903585 0.984793
vt 0.734896 0.984262
vt 0.734925 0.250108
vt 0.903655 0.250496
vt 0.932817 0.249916
vt 0.932815 0.984888
vt 0.961182 0.242181
vt 0.961229 0.984982
vt 0.903585 0.984793
vt 0.734896 0.984262
vt 0.734925 0.250108
vt 0.903655 0.250496
vt 0.932817 0.249916
vt 0.961182 0.242181
vt 0.961229 0.984982
vt 0.932815 0.984888
vt 0.903585 0.984793
vt 0.734896 0.984262
vt 0.734925 0.250108
vt 0.903655 0.250496
vt 0.932817 0.249916
vt 0.961182 0.242181
vt 0.961229 0.984982
vt 0.932815 0.984888
vt 0.000000 1.000000
vt 0.000000 0.321078
vt 0.677219 0.321078
vt 0.677219 1.000000
vt 0.000000 0.321078
vt 0.677219 0.321078
vt 0.677219 1.000000
vt 0.000000 1.000000
vt 0.000000 0.321078
vt 0.677219 0.321078
vt 0.677219 1.000000
vt 0.000000 1.000000
vt 0.000000 0.321078
vt 0.677219 0.321078
vt 0.677219 1.000000
vt 0.000000 1.000000
vt 0.734896 0.065745
vt 0.734896 0.036422
vt 0.903585 0.036422
vt 0.903585 0.065745
vt 0.903655 0.250496
vt 0.932817 0.249916
vt 0.932815 0.984888
vt 0.903585 0.984793
vt 0.903655 0.250496
vt 0.932817 0.249916
vt 0.932815 0.984888
vt 0.903585 0.984793
vt 0.000703 0.320938
vt 0.677477 0.320938
vt 0.677477 1.000277
vt 0.000703 1.000277
vt 0.000703 0.320938
vt 0.677477 0.320938
vt 0.677477 1.000277
vt 0.000703 1.000277
vt 0.677477 0.320938
vt 0.677477 1.000277
vt 0.000703 1.000277
vt 0.000703 0.320938
vt 0.677477 0.320938
vt 0.677477 1.000277
vt 0.000703 1.000277
vt 0.000703 0.320938
vt 0.903585 0.984793
vt 0.734896 0.984262
vt 0.734925 0.250108
vt 0.903655 0.250496
vt 0.932817 0.249916
vt 0.961182 0.242181
vt 0.961229 0.984982
vt 0.932815 0.984888
vt 0.903585 0.984793
vt 0.734896 0.984262
vt 0.734925 0.250108
vt 0.903655 0.250496
vt 0.932817 0.249916
vt 0.961182 0.242181
vt 0.961229 0.984982
vt 0.932815 0.984888
vt 0.903655 0.250496
vt 0.932817 0.249916
vt 0.932815 0.984888
vt 0.903585 0.984793
vt 0.903655 0.250496
vt 0.932817 0.249916
vt 0.932815 0.984888
vt 0.903585 0.984793
vt 0.903585 0.065745
vt 0.932815 0.065745
vt 0.932817 0.249916
vt 0.903655 0.250496
vt 0.903585 0.036422
vt 0.734896 0.036422
vt 0.734896 0.007293
vt 0.903585 0.007293
vt 0.734925 0.250108
vt 0.734896 0.065745
vt 0.903585 0.984793
vt 0.734896 0.984262
vt 0.932815 0.984888
vt 0.961182 0.242181
vt 0.961229 0.984982
vt 0.961229 0.065745
vt 0.903585 0.984793
vt 0.734896 0.984262
vt 0.734925 0.250108
vt 0.903655 0.250496
vt 0.932817 0.249916
vt 0.932815 0.984888
vt 0.961182 0.242181
vt 0.961229 0.984982
vt 0.903585 0.984793
vt 0.734896 0.984262
vt 0.734925 0.250108
vt 0.903655 0.250496
vt 0.932817 0.249916
vt 0.961182 0.242181
vt 0.961229 0.984982
vt 0.932815 0.984888
vt 0.903585 0.984793
vt 0.734896 0.984262
vt 0.734925 0.250108
vt 0.903655 0.250496
vt 0.932817 0.249916
vt 0.961182 0.242181
vt 0.961229 0.984982
vt 0.932815 0.984888
vt 0.000000 1.000000
vt 0.000000 0.321078
vt 0.677219 0.321078
vt 0.677219 1.000000
vt 0.000000 0.321078
vt 0.677219 0.321078
vt 0.677219 1.000000
vt 0.000000 1.000000
vt 0.000000 0.321078
vt 0.677219 0.321078
vt 0.677219 1.000000
vt 0.000000 1.000000
vt 0.000000 0.321078
vt 0.677219 0.321078
vt 0.677219 1.000000
vt 0.000000 1.000000
vt 0.734896 0.065745
vt 0.734896 0.036422
vt 0.903585 0.036422
vt 0.903585 0.065745
vt 0.903655 0.250496
vt 0.932817 0.249916
vt 0.932815 0.984888
vt 0.903585 0.984793
vt 0.903655 0.250496
vt 0.932817 0.249916
vt 0.932815 0.984888
vt 0.903585 0.984793
vt 0.037589 0.317870
vt 0.037589 0.317870
vt 0.037589 0.001086
vt 0.000000 0.963176
vt 0.037589 0.001086
vt 0.000000 0.963176
vt 0.678011 0.963176
vt 0.641185 1.000000
vt 0.678011 0.963176
vt 0.641185 0.322036
vt 0.036827 0.322036
vt 0.036827 1.000000
vt 0.640422 0.001086
vt 0.640422 0.317870
vt 0.640422 0.001086
vt 0.640422 0.317870
vt 0.643392 0.317870
vt 0.643392 0.317870
vt 0.643392 0.001086
vt 0.033849 1.000000
vt 0.643392 0.001086
vt 0.644162 0.322036
vt 0.033849 0.322036
vt 0.644162 1.000000
vt 0.678011 0.966153
vt 0.000000 0.966153
vt 0.678011 0.966153
vt 0.000000 0.966153
vt 0.034619 0.001086
vt 0.034619 0.317870
vt 0.034619 0.001086
vt 0.034619 0.317870
vt 0.019122 0.317870
vt 0.019122 0.317870
vt 0.019122 0.001086
vt 0.000000 0.981688
vt 0.019122 0.001086
vt 0.000000 0.981688
vt 0.678011 0.981688
vt 0.659698 1.000000
vt 0.678011 0.981688
vt 0.659698 0.322036
vt 0.018313 0.322036
vt 0.018313 1.000000
vt 0.658889 0.001086
vt 0.658889 0.317870
vt 0.658889 0.001086
vt 0.658889 0.317870
vt 0.662215 0.317870
vt 0.662215 0.317870
vt 0.662215 0.001086
vt 0.014979 1.000000
vt 0.662215 0.001086
vt 0.663032 0.322036
vt 0.014979 0.322036
vt 0.663032 1.000000
vt 0.678011 0.985022
vt 0.000000 0.985022
vt 0.678011 0.985022
vt 0.000000 0.985022
vt 0.015797 0.001086
vt 0.015797 0.317870
vt 0.015797 0.001086
vt 0.015797 0.317870
vn 0.000000 -1.000000 -0.000000
vn 0.000000 -1.000000 0.000000
vn -0.000000 -1.000000 -0.000000
vn -0.000000 -1.000000 0.000000
vn -0.000140 0.000000 1.000000
vn -0.000140 0.000000 1.000000
vn 0.005025 0.000000 0.999987
vn 0.005025 0.000000 0.999987
vn -0.000140 0.000000 1.000000
vn 0.005025 0.000000 0.999987
vn -0.000000 -1.000000 -0.000000
vn 0.000000 -1.000000 0.000000
vn 0.000000 -1.000000 0.000000
vn 0.000000 -1.000000 0.000000
vn -0.005348 0.000000 0.999986
vn -0.005348 0.000000 0.999986
vn -0.005348 0.000000 0.999986
vn 0.000000 -1.000000 -0.000000
vn 0.000000 -1.000000 0.000000
vn 0.000000 -1.000000 0.000000
vn -0.002671 0.000000 0.999996
vn -0.002670 0.000000 0.999996
vn 0.000000 -1.000000 0.000000
vn 0.000000 -1.000000 0.000000
vn 0.000000 -1.000000 0.000000
vn 0.000000 -1.000000 0.000000
vn -0.002670 0.000000 0.999996
vn 0.977315 0.000000 0.211789
vn 0.999997 0.000000 -0.002314
vn 0.999997 0.000000 -0.002314
vn 0.977315 0.000000 0.211790
vn 0.691626 0.000000 0.722256
vn 0.691627 0.000000 0.722255
vn 0.000000 -1.000000 -0.000000
vn 0.000000 -1.000000 -0.000000
vn 0.000000 -1.000000 0.000000
vn 0.691627 0.000000 0.722255
vn 0.977316 0.000000 0.211788
vn 1.000000 0.000000 0.000308
vn 1.000000 0.000000 0.000308
vn 0.999997 0.000000 -0.002314
vn 1.000000 0.000000 0.000308
vn -0.000000 -1.000000 0.000000
vn -0.000000 -1.000000 0.000000
vn -0.000000 -1.000000 0.000000
vn -0.000000 -1.000000 -0.000000
vn -0.999996 0.000000 -0.002729
vn -0.999996 0.000000 -0.002729
vn -1.000000 0.000000 -0.000323
vn -1.000000 0.000000 -0.000323
vn -0.000000 -1.000000 0.000000
vn 0.000000 -1.000000 0.000000
vn -1.000000 0.000000 -0.000323
vn -0.999996 0.000000 -0.002729
vn -0.198104 0.000000 0.980181
vn 0.002386 0.000000 0.999997
vn 0.002386 0.000000 0.999997
vn -0.198104 0.000000 0.980181
vn -0.974555 0.000000 0.224149
vn -0.974555 0.000000 0.224149
vn -0.974555 0.000000 0.224149
vn 0.002386 0.000000 0.999997
vn -0.198104 0.000000 0.980181
vn -0.000000 -1.000000 -0.000000
vn -0.000000 -1.000000 0.000000
vn -0.000000 -1.000000 0.000000
vn -0.000000 -1.000000 -0.000000
vn 0.002671 0.000000 -0.999996
vn 0.002671 0.000000 -0.999996
vn 0.005341 0.000000 -0.999986
vn 0.005341 0.000000 -0.999986
vn -0.000000 -1.000000 -0.000000
vn 0.000000 -1.000000 0.000000
vn 0.005341 0.000000 -0.999986
vn 0.002671 0.000000 -0.999996
vn -0.974537 0.000000 -0.224228
vn -0.999997 0.000000 0.002300
vn -0.999997 0.000000 0.002300
vn -0.974537 0.000000 -0.224228
vn -0.198005 0.000000 -0.980201
vn -0.198005 0.000000 -0.980201
vn -0.198005 0.000000 -0.980201
vn -0.999997 0.000000 0.002300
vn -0.974537 0.000000 -0.224229
vn 0.000000 -1.000000 -0.000000
vn 0.000000 -1.000000 -0.000000
vn 0.999996 0.000000 0.002729
vn 0.999996 0.000000 0.002729
vn 0.000000 -1.000000 0.000000
vn 0.000000 -1.000000 0.000000
vn 0.999996 0.000000 0.002729
vn 0.977375 0.000000 -0.211516
vn 0.691687 0.000000 -0.722197
vn 0.691687 0.000000 -0.722197
vn 0.977375 0.000000 -0.211516
vn 0.000000 -1.000000 -0.000000
vn 0.000000 -1.000000 -0.000000
vn 0.000000 -1.000000 0.000000
vn 0.000000 -1.000000 -0.000000
vn 0.977375 0.000000 -0.211516
vn -0.005025 0.000000 -0.999987
vn -0.005025 0.000000 -0.999987
vn -0.002384 0.000000 -0.999997
vn -0.002384 0.000000 -0.999997
vn 0.691688 0.000000 -0.722197
vn -0.005025 0.000000 -0.999987
vn -0.002384 0.000000 -0.999997
vn 0.000000 -1.000000 0.000000
vn 0.000000 -1.000000 0.000000
vn 0.000132 0.000000 -1.000000
vn 0.000132 0.000000 -1.000000
vn 0.000132 0.000000 -1.000000
vn -1.000000 0.000000 -0.000149
vn -1.000000 0.000000 -0.000149
vn -1.000000 0.000000 -0.000213
vn -1.000000 0.000000 -0.000213
vn 0.004418 -0.999986 0.003009
vn 0.000214 -0.999992 0.004069
vn 0.000214 -0.999992 0.004069
vn 0.004418 -0.999986 0.003009
vn -0.000986 1.000000 -0.000109
vn -0.001126 0.999999 -0.000003
vn -0.001820 0.999998 -0.000003
vn -0.001594 0.999999 -0.000163
vn -0.001025 0.999999 -0.000322
vn -0.000634 1.000000 -0.000245
vn -1.000000 0.000000 -0.000007
vn -1.000000 0.000000 -0.000007
vn 0.007353 -0.999973 -0.000679
vn 0.007353 -0.999973 -0.000679
vn 0.006866 -0.999976 0.000470
vn 0.006866 -0.999976 0.000470
vn -0.000455 1.000000 -0.000137
vn -0.000282 1.000000 -0.000091
vn -1.000000 0.000000 0.000543
vn -1.000000 0.000000 0.000543
vn 0.004901 -0.999988 0.000042
vn 0.004901 -0.999988 0.000042
vn -0.000207 1.000000 -0.000361
vn -0.000136 1.000000 -0.000571
vn 0.000089 -0.999999 0.001458
vn 0.000089 -0.999999 0.001458
vn -0.000034 1.000000 -0.000896
vn 0.000040 0.999999 -0.001509
vn -0.000115 -0.999996 0.002921
vn -0.000115 -0.999996 0.002921
vn -0.000172 1.000000 0.000004
vn -0.000252 1.000000 -0.000152
vn -0.000149 1.000000 -0.000183
vn -0.000182 1.000000 0.000062
vn -0.004776 0.000119 -0.999989
vn -0.004776 0.000119 -0.999989
vn -0.007414 0.000185 -0.999973
vn -0.007414 0.000185 -0.999973
vn -0.000335 0.000022 -1.000000
vn -0.000335 0.000022 -1.000000
vn 0.000354 -0.000002 -1.000000
vn 0.000354 -0.000002 -1.000000
vn -0.000014 1.000000 -0.000964
vn 0.000048 1.000000 -0.000219
vn 0.000160 1.000000 -0.000716
vn 0.000207 1.000000 -0.000186
vn 0.000009 1.000000 0.000026
vn 0.000217 1.000000 -0.000028
vn -0.000071 0.999999 -0.001635
vn 0.000097 -0.999997 0.002429
vn 0.000097 -0.999997 0.002429
vn 0.000132 0.999999 -0.001250
vn 0.000031 -0.999988 0.004903
vn 0.000031 -0.999988 0.004903
vn -0.000042 0.000002 -1.000000
vn -0.000042 0.000002 -1.000000
vn 0.000950 0.000000 -1.000000
vn 0.000950 0.000000 -1.000000
vn -0.000112 0.000000 1.000000
vn -0.000112 0.000000 1.000000
vn -0.000193 0.000000 1.000000
vn -0.000193 0.000000 1.000000
vn 0.003012 -0.999986 -0.004418
vn 0.004071 -0.999992 -0.000214
vn 0.004071 -0.999992 -0.000214
vn 0.003012 -0.999986 -0.004418
vn -0.000110 1.000000 0.000986
vn -0.000003 0.999999 0.001126
vn -0.000002 0.999998 0.001820
vn -0.000164 0.999999 0.001594
vn -0.000291 0.999999 0.001238
vn -0.000233 1.000000 0.000737
vn -0.000350 0.000000 1.000000
vn -0.000350 0.000000 1.000000
vn -0.000678 -0.999973 -0.007353
vn -0.000678 -0.999973 -0.007353
vn 0.000400 -0.999976 -0.006867
vn 0.000400 -0.999976 -0.006867
vn -0.000063 0.999999 0.001250
vn -0.000091 1.000000 0.000716
vn -0.000154 0.000000 1.000000
vn -0.000154 0.000000 1.000000
vn -0.000103 -0.999988 -0.004902
vn -0.000103 -0.999988 -0.004902
vn -0.000098 1.000000 0.000234
vn -0.000115 1.000000 0.000239
vn 0.000965 -1.000000 -0.000263
vn 0.000965 -1.000000 -0.000263
vn -0.000147 1.000000 0.000195
vn -0.000146 1.000000 0.000198
vn -0.999988 0.000255 0.004804
vn -0.999988 0.000255 0.004804
vn -0.999972 0.000000 0.007486
vn -0.999972 0.000000 0.007486
vn -0.999999 0.000255 0.001471
vn -0.999999 0.000255 0.001471
vn 1.000000 0.000000 0.000000
vn 1.000000 0.000000 0.000000
vn 1.000000 0.000000 0.000139
vn 1.000000 0.000000 0.000139
vn -0.004352 -0.999985 -0.003297
vn -0.000191 -0.999991 -0.004346
vn -0.000191 -0.999991 -0.004346
vn -0.004352 -0.999985 -0.003297
vn 0.000986 1.000000 0.000109
vn 0.001126 0.999999 0.000003
vn 0.001820 0.999998 0.000002
vn 0.001594 0.999999 0.000163
vn 0.001025 0.999999 0.000322
vn 0.000634 1.000000 0.000245
vn 1.000000 0.000000 0.000007
vn 1.000000 0.000000 0.000007
vn -0.007310 -0.999973 0.000668
vn -0.007310 -0.999973 0.000668
vn -0.006869 -0.999976 -0.000471
vn -0.006869 -0.999976 -0.000471
vn 0.000455 1.000000 0.000137
vn 0.000282 1.000000 0.000091
vn 1.000000 0.000000 -0.000528
vn 1.000000 0.000000 -0.000528
vn -0.004901 -0.999988 -0.000042
vn -0.004901 -0.999988 -0.000042
vn 0.000207 1.000000 0.000362
vn 0.000136 1.000000 0.000571
vn -0.000089 -0.999999 -0.001459
vn -0.000089 -0.999999 -0.001459
vn 0.000034 1.000000 0.000897
vn -0.000040 0.999999 0.001509
vn 0.000115 -0.999996 -0.002921
vn 0.000115 -0.999996 -0.002921
vn 0.000198 1.000000 0.000005
vn 0.000261 1.000000 0.000160
vn 0.000158 1.000000 0.000209
vn 0.004775 0.000120 0.999989
vn 0.004775 0.000120 0.999989
vn 0.007413 0.000187 0.999973
vn 0.007413 0.000187 0.999973
vn 0.000334 0.000022 1.000000
vn 0.000334 0.000022 1.000000
vn -0.000354 -0.000002 1.000000
vn -0.000354 -0.000002 1.000000
vn 0.000049 1.000000 0.000965
vn -0.000023 1.000000 0.000245
vn 0.000106 0.999999 0.001635
vn -0.000132 -0.999997 -0.002428
vn -0.000132 -0.999997 -0.002428
vn 0.000440 0.000002 1.000000
vn 0.000440 0.000002 1.000000
vn 0.000111 0.000000 -1.000000
vn 0.000111 0.000000 -1.000000
vn 0.000193 0.000000 -1.000000
vn 0.000193 0.000000 -1.000000
vn -0.003011 -0.999986 0.004418
vn -0.004070 -0.999992 0.000213
vn -0.004070 -0.999992 0.000213
vn -0.003011 -0.999986 0.004418
vn 0.000110 1.000000 -0.000986
vn 0.000003 0.999999 -0.001126
vn 0.000002 0.999998 -0.001820
vn 0.000164 0.999999 -0.001593
vn 0.000326 0.999999 -0.001238
vn 0.000267 1.000000 -0.000737
vn 0.000750 0.000000 -1.000000
vn 0.000750 0.000000 -1.000000
vn 0.000678 -0.999973 0.007353
vn 0.000678 -0.999973 0.007353
vn -0.000437 -0.999976 0.006868
vn -0.000437 -0.999976 0.006868
vn 0.000098 1.000000 -0.000234
vn 0.000115 1.000000 -0.000239
vn -0.000965 -1.000000 0.000263
vn -0.000965 -1.000000 0.000263
vn 0.000181 1.000000 -0.000198
vn 0.999989 0.000000 -0.004748
vn 0.999989 0.000000 -0.004748
vn 0.999973 0.000000 -0.007340
vn 0.999973 0.000000 -0.007340
vn 0.999999 0.000000 -0.001474
vn 0.999999 0.000000 -0.001474
vn -0.687942 0.000000 0.725765
vn -0.687942 0.000000 0.725765
vn -0.687943 0.000000 0.725765
vn 0.000000 -1.000000 0.000000
vn -0.000000 -1.000000 0.000000
vn -0.000000 -1.000000 0.000000
vn 0.000000 -1.000000 -0.000000
vn 0.000000 -1.000000 0.000000
vn -0.687961 0.000000 -0.725748
vn -0.687961 0.000000 -0.725748
vn -0.687961 0.000000 -0.725747
vn 0.190468 0.000000 0.981693
vn 0.190468 0.000000 0.981693
vn 0.190468 0.000000 0.981693
vn -0.000000 -1.000000 0.000000
vn -0.000000 -1.000000 0.000000
vn -0.000000 -1.000000 0.000000
vn 0.000000 -1.000000 -0.000000
vn 0.000000 -1.000000 -0.000000
vn 0.190483 0.000000 -0.981691
vn 0.190484 0.000000 -0.981690
vn 0.190482 0.000000 -0.981691
vn 0.000000 -1.000000 0.000000
vn -0.000000 -1.000000 0.000000
vn -0.000000 -1.000000 0.000000
vn 0.000000 -1.000000 -0.000000
vn 0.000000 -1.000000 0.000000
s 1
g polySurface23273
f 1/1/1 5/2/2 6/3/3 2/4/4
s 2
f 5/5/5 3/6/6 4/7/7 6/8/8
f 3/9/6 7/10/9 8/11/10 4/12/7
s 1
f 2/13/4 10/14/11 9/15/12 1/16/1
f 11/17/13 13/18/14 5/19/2 1/20/1
s 2
f 13/21/15 12/22/16 3/23/6 5/24/5
f 12/25/16 14/26/17 7/27/9 3/28/6
s 1
f 1/29/1 9/30/12 15/31/18 11/32/13
f 16/33/19 20/34/20 13/35/14 11/36/13
s 2
f 20/79/21 19/39/22 12/37/16 13/38/15
s 1
f 18/40/23 22/41/24 224/660/25 225/663/26
s 2
f 14/44/17 12/45/16 19/46/22 24/78/27
f 21/71/28 17/72/29 23/73/30 25/74/31
f 222/657/32 223/659/33 21/69/28 25/76/31
s 1
f 225/662/26 226/664/34 28/49/35 18/50/23
f 11/51/13 15/52/18 27/53/36 16/54/19
s 2
f 223/658/33 224/661/37 22/63/38 21/68/28
f 28/61/39 26/59/40 17/60/29 18/80/41
f 22/65/38 18/66/41 17/62/29 21/67/28
f 29/57/42 23/77/30 17/55/29 26/56/40
s 1
f 30/81/43 198/614/44 199/617/45 31/84/46
s 2
f 36/127/47 34/87/48 35/85/49 37/86/50
s 1
f 33/88/51 197/612/52 198/615/44 30/91/43
s 2
f 42/92/53 35/93/49 34/94/48 41/126/54
f 196/611/55 32/120/56 40/121/57 195/609/58
f 41/123/54 34/118/48 38/117/59 43/124/60
s 1
f 30/95/43 2/96/4 6/97/3 33/98/51
f 31/99/46 10/100/11 2/101/4 30/102/43
s 2
f 34/106/48 36/112/47 39/111/61 38/116/59
f 6/109/8 4/107/7 32/108/56 33/128/62
f 197/613/63 33/114/62 32/110/56 196/610/55
f 8/105/10 40/125/57 32/103/56 4/104/7
s 1
f 44/129/64 50/130/65 51/131/66 45/132/67
s 2
f 50/175/68 48/135/69 49/133/70 51/134/71
s 1
f 200/619/72 201/620/73 50/138/65 44/139/64
s 2
f 56/140/74 49/141/70 48/142/69 55/174/75
f 52/167/76 46/168/77 54/169/78 57/170/79
f 55/171/75 48/166/69 202/623/80 203/624/81
s 1
f 44/143/64 31/144/46 199/616/45 200/618/72
f 45/147/67 10/148/11 31/149/46 44/150/64
s 2
f 48/154/69 50/160/68 201/621/82 202/622/80
f 37/157/50 35/155/49 46/156/77 47/176/83
f 53/161/84 47/162/83 46/158/77 52/163/76
f 42/153/53 54/173/78 46/151/77 35/152/49
s 1
f 227/666/85 62/178/86 28/179/35 226/665/34
s 2
f 62/223/87 61/183/88 26/181/40 28/182/39
s 1
f 228/668/89 64/185/90 62/186/86 227/667/85
s 2
f 29/188/42 26/189/40 61/190/88 66/222/91
f 63/215/92 229/671/93 230/672/94 67/218/95
f 66/219/91 61/214/88 63/213/92 67/220/95
s 1
f 58/191/96 69/192/97 70/193/98 60/194/99
f 27/195/36 15/196/18 69/197/97 58/198/96
s 2
f 61/202/88 62/208/87 64/207/100 63/212/92
f 70/205/101 68/203/102 59/204/103 60/224/104
f 64/209/100 228/669/105 229/670/93 63/211/92
f 71/201/106 65/221/107 59/199/103 68/200/102
s 1
f 72/225/108 74/226/109 70/227/98 69/228/97
s 2
f 74/229/110 73/230/111 68/231/102 70/232/101
f 73/233/111 75/234/112 71/235/106 68/236/102
s 1
f 69/237/97 15/238/18 9/239/12 72/240/108
f 45/241/67 51/242/66 74/243/109 72/244/108
s 2
f 51/245/71 49/246/70 73/247/111 74/248/110
f 49/249/70 56/250/74 75/251/112 73/252/111
s 1
f 72/253/108 9/254/12 10/255/11 45/256/67
s 3
f 77/257/113 76/258/114 79/259/115 78/260/116
s 4
f 76/261/117 81/262/118 88/263/119 89/264/120
s 5
f 80/265/121 82/266/122 77/257/123 78/260/124
f 84/267/125 83/268/126 80/265/121 78/260/124
s 3
f 78/260/116 79/259/115 85/269/127 84/267/128
s 4
f 79/259/129 87/270/130 86/271/131 85/269/132
f 79/259/129 76/258/117 89/272/120 87/270/130
s 5
f 91/273/133 90/274/134 83/275/126 84/276/125
s 3
f 84/276/128 85/277/127 92/278/135 91/273/136
s 4
f 85/277/132 86/279/131 93/280/137 92/278/138
s 5
f 82/281/122 80/282/121 96/283/139 94/284/140
s 4
f 95/285/141 97/286/142 88/287/119 81/288/118
s 5
f 94/289/140 96/290/139 100/291/143 98/292/144
s 4
f 99/293/145 101/294/146 97/295/142 95/296/141
s 5
f 83/297/126 90/298/134 105/299/147 104/300/148
f 96/301/139 80/302/121 83/303/126 104/304/148
f 100/305/143 96/306/139 104/307/148 102/308/149
f 102/309/149 104/310/148 105/311/147 103/312/150
s 6
f 82/313/151 81/314/152 76/315/153 77/316/154
f 94/317/155 95/318/156 81/319/152 82/320/151
f 98/321/157 99/322/158 95/323/156 94/324/155
s 5
f 106/325/159 100/326/143 102/327/149 107/328/160
f 109/329/161 106/330/159 107/331/160 108/332/162
f 102/333/149 103/334/150 110/335/163 107/336/160
f 107/337/160 110/338/163 111/339/164 108/340/162
f 98/341/144 100/342/143 106/343/159 112/344/165
s 4
f 113/345/166 114/346/167 101/347/146 99/348/145
s 5
f 112/349/165 106/350/159 109/351/161 115/352/168
s 4
f 116/353/169 117/354/170 114/355/167 113/356/166
s 6
f 112/357/171 113/358/172 99/359/158 98/360/157
f 115/361/173 116/362/174 113/363/172 112/364/171
s 7
f 119/365/175 118/366/176 121/367/177 120/368/178
s 4
f 118/369/179 123/370/180 130/371/181 131/372/182
s 5
f 122/373/183 124/374/184 119/365/185 120/368/186
f 126/375/187 125/376/188 122/373/183 120/368/186
s 7
f 120/368/178 121/367/177 127/377/189 126/375/190
s 4
f 121/367/191 129/378/192 128/379/193 127/377/194
f 121/367/191 118/366/179 131/380/182 129/378/192
s 5
f 133/381/195 132/382/196 125/383/188 126/384/187
s 7
f 126/384/190 127/385/189 134/386/197 133/381/198
s 4
f 127/385/194 128/387/193 135/388/199 134/386/200
s 5
f 124/389/184 122/390/183 138/391/201 136/392/202
s 4
f 137/393/203 139/394/204 130/395/181 123/396/180
s 5
f 136/397/202 138/398/201 90/399/134 91/400/133
s 4
f 92/401/138 93/402/137 139/403/204 137/404/203
s 5
f 125/405/188 132/406/196 141/407/205 140/408/206
f 138/409/201 122/410/183 125/411/188 140/412/206
f 90/413/134 138/414/201 140/415/206 105/416/147
f 105/417/147 140/418/206 141/419/205 103/420/150
s 3
f 124/421/207 123/422/208 118/423/209 119/424/210
f 136/425/211 137/426/212 123/427/208 124/428/207
f 91/429/136 92/430/135 137/431/212 136/432/211
s 8
f 143/433/213 142/434/214 145/435/215 144/436/216
s 4
f 142/437/217 147/438/218 154/439/219 155/440/220
s 5
f 146/441/221 148/442/222 143/433/223 144/436/224
f 150/443/225 149/444/226 146/441/221 144/436/224
s 8
f 144/436/216 145/435/215 151/445/227 150/443/228
s 4
f 145/435/229 153/446/230 152/447/231 151/445/232
f 145/435/229 142/434/217 155/448/220 153/446/230
s 5
f 157/449/233 156/450/234 149/451/226 150/452/225
s 8
f 150/452/228 151/453/227 158/454/235 157/449/236
s 4
f 151/453/232 152/455/231 159/456/237 158/454/238
s 5
f 148/457/222 146/458/221 162/459/239 160/460/240
s 4
f 161/461/241 163/462/242 154/463/219 147/464/218
s 5
f 160/465/240 162/466/239 166/467/243 164/468/244
s 4
f 165/469/245 167/470/246 163/471/242 161/472/241
s 5
f 149/473/226 156/474/234 170/475/247 169/476/248
f 162/477/239 146/478/221 149/479/226 169/480/248
f 166/481/243 162/482/239 169/483/248 168/484/249
f 168/485/249 169/486/248 170/487/247 111/488/164
s 7
f 148/489/250 147/490/251 142/491/252 143/492/253
f 160/493/254 161/494/255 147/495/251 148/496/250
f 164/497/256 165/498/257 161/499/255 160/500/254
s 5
f 171/501/258 166/502/243 168/503/249 172/504/259
f 132/505/196 171/506/258 172/507/259 141/508/205
f 168/509/249 111/510/164 110/511/163 172/512/259
f 172/513/259 110/514/163 103/515/150 141/516/205
f 164/517/244 166/518/243 171/519/258 173/520/260
s 4
f 174/521/261 175/522/262 167/523/246 165/524/245
s 5
f 173/525/260 171/526/258 132/527/196 133/528/195
s 4
f 134/529/200 135/530/199 175/531/262 174/532/261
s 7
f 173/533/263 174/534/264 165/535/257 164/536/256
f 133/537/198 134/538/197 174/539/264 173/540/263
s 6
f 177/541/265 176/542/266 179/543/267 178/544/268
s 4
f 176/545/269 181/546/270 188/547/271 189/548/272
s 5
f 180/549/273 182/550/274 177/541/275 178/544/276
f 184/551/277 183/552/278 180/549/273 178/544/276
s 6
f 178/544/268 179/543/267 185/553/279 184/551/280
s 4
f 179/543/281 187/554/282 186/555/283 185/553/284
f 179/543/281 176/542/269 189/556/272 187/554/282
s 5
f 115/557/168 109/558/161 183/559/278 184/560/277
s 6
f 184/560/280 185/561/279 116/562/174 115/557/173
s 4
f 185/561/284 186/563/283 117/564/170 116/562/169
s 5
f 182/565/274 180/566/273 192/567/285 190/568/286
s 4
f 191/569/287 193/570/288 188/571/271 181/572/270
s 5
f 190/573/286 192/574/285 156/575/234 157/576/233
s 4
f 158/577/238 159/578/237 193/579/288 191/580/287
s 5
f 183/581/278 109/582/161 108/583/162 194/584/289
f 192/585/285 180/586/273 183/587/278 194/588/289
f 156/589/234 192/590/285 194/591/289 170/592/247
f 170/593/247 194/594/289 108/595/162 111/596/164
s 8
f 182/597/290 181/598/291 176/599/292 177/600/293
f 190/601/294 191/602/295 181/603/291 182/604/290
f 157/605/236 158/606/235 191/607/295 190/608/294
s 2
f 214/643/296 196/611/55 195/609/58 213/641/297
f 215/645/298 197/613/63 196/610/55 214/642/296
s 1
f 198/615/44 197/612/52 215/644/299 216/647/300
f 199/617/45 198/614/44 216/646/300 217/649/301
f 200/618/72 199/616/45 217/648/301 218/650/302
f 218/651/302 219/652/303 201/620/73 200/619/72
s 2
f 202/622/80 201/621/82 219/653/304 220/654/305
f 203/624/81 202/623/80 220/655/305 221/656/306
f 24/75/27 19/70/22 205/627/307 204/625/308
f 19/58/22 20/64/21 206/629/309 205/626/307
s 1
f 207/631/310 206/628/311 20/42/20 16/43/19
f 16/47/19 27/48/36 208/632/312 207/630/310
f 58/177/96 209/634/313 208/633/312 27/180/36
f 60/184/99 210/636/314 209/635/313 58/187/96
s 2
f 211/638/315 210/637/316 60/210/104 59/206/103
f 212/640/317 211/639/315 59/216/103 65/217/107
f 38/119/59 214/643/296 213/641/297 43/122/60
f 39/113/61 215/645/298 214/642/296 38/115/59
s 1
f 216/647/300 215/644/299 39/89/318 36/90/319
f 217/649/301 216/646/300 36/82/319 37/83/320
f 218/650/302 217/648/301 37/145/320 47/146/321
f 47/136/321 53/137/322 219/652/303 218/651/302
s 2
f 220/654/305 219/653/304 53/159/84 52/164/76
f 221/656/306 220/655/305 52/165/76 57/172/79
f 204/625/308 205/627/307 223/659/33 222/657/32
f 205/626/307 206/629/309 224/661/37 223/658/33
s 1
f 225/663/26 224/660/25 206/628/311 207/631/310
f 207/630/310 208/632/312 226/664/34 225/662/26
f 209/634/313 227/666/85 226/665/34 208/633/312
f 210/636/314 228/668/89 227/667/85 209/635/313
s 2
f 229/670/93 228/669/105 210/637/316 211/638/315
f 230/672/94 229/671/93 211/639/315 212/640/317
