# This file uses centimeters as units for non-parametric coordinates.

g default
v -411.762878 0.830206 0.308066
v -411.762878 0.882103 0.308066
v -410.402222 0.881504 0.022489
v -410.400879 0.829604 0.305112
v -410.402222 0.881501 0.305112
v -411.762817 0.882103 0.022253
v -410.402222 0.827942 0.229348
v -411.762878 0.827941 0.229870
v -410.398743 0.881526 -0.071247
v -411.765442 0.881814 -0.071373
v -411.768127 0.208440 2.032684
v -411.768127 0.056957 2.033249
v -410.395325 0.208440 2.032684
v -410.395325 0.056957 2.033249
v -410.395325 0.332318 1.676439
v -410.395325 0.208117 1.676439
v -411.768127 0.332318 1.676439
v -411.768127 0.208117 1.676439
v -411.768127 0.597510 0.922705
v -411.768127 0.472616 0.922705
v -410.395325 0.597510 0.922705
v -410.395325 0.472616 0.922705
v -410.395325 0.472616 1.293009
v -410.395325 0.332318 1.293009
v -411.768127 0.472616 1.293009
v -411.768127 0.332318 1.293009
v -410.395325 0.875082 0.224388
v -410.395325 0.731452 0.217800
v -411.768127 0.875082 0.226034
v -411.768127 0.731452 0.219446
v -410.395325 0.729315 0.595284
v -410.395325 0.596208 0.595284
v -411.768127 0.729315 0.595284
v -411.768127 0.596208 0.595284
v -411.768127 0.056957 -0.071310
v -410.395325 0.056957 -0.071310
v -411.762878 0.698612 0.653815
v -411.762878 0.750509 0.653815
v -410.402222 0.749909 0.368239
v -410.400879 0.698010 0.650862
v -410.402222 0.749907 0.650862
v -411.762817 0.750509 0.368002
v -410.402222 0.696348 0.575097
v -411.762878 0.696348 0.575620
v -410.402161 0.749933 0.207404
v -411.762756 0.750509 0.207152
v -411.762878 0.580534 1.010680
v -411.762878 0.632432 1.010680
v -410.402222 0.631832 0.725103
v -410.400879 0.579932 1.007726
v -410.402222 0.631830 1.007726
v -411.762817 0.632432 0.724867
v -410.402222 0.578270 0.931962
v -411.762878 0.578270 0.932484
v -410.402161 0.631856 0.558859
v -411.762756 0.632432 0.558608
v -411.762878 0.455254 1.362544
v -411.762878 0.507152 1.362544
v -410.402222 0.506552 1.076967
v -410.400879 0.454653 1.359590
v -410.402222 0.506550 1.359590
v -411.762817 0.507152 1.076731
v -410.402222 0.452991 1.283826
v -411.762878 0.452991 1.284348
v -410.402161 0.506576 0.905221
v -411.762756 0.507152 0.904969
v -411.762878 0.326167 1.719078
v -411.762878 0.378065 1.719078
v -410.402222 0.377464 1.433502
v -410.400879 0.325565 1.716125
v -410.402222 0.377463 1.716125
v -411.762817 0.378065 1.433265
v -410.402222 0.323903 1.640360
v -411.762878 0.323903 1.640883
v -410.402161 0.377489 1.275470
v -411.762756 0.378064 1.275218
v -411.762878 0.206463 1.869096
v -411.762817 0.257154 1.868242
v -411.762878 0.204162 2.070313
v -411.762878 0.256059 2.070313
v -410.402222 0.255459 1.784736
v -410.400879 0.203560 2.067359
v -410.402222 0.255457 2.067359
v -411.762817 0.256059 1.784500
v -410.402222 0.201898 1.991594
v -411.762878 0.201898 1.992117
v -410.402161 0.255483 1.674377
v -411.762756 0.256059 1.674125
v -410.402222 0.205862 1.820606
v -410.402283 0.256553 1.819752
v -410.389740 0.292647 2.091298
v -410.389130 0.947064 -0.108711
v -410.389679 0.315577 2.024290
v -410.389191 0.947095 -0.006067
v -410.215729 0.315747 2.022025
v -410.215729 0.292435 2.090153
v -410.217133 0.946635 -0.077794
v -410.217010 0.946692 -0.006740
v -410.390289 0.343963 2.108768
v -410.467804 0.344215 2.108683
v -410.467804 0.292907 2.091126
v -410.463043 0.998661 -0.108635
v -410.463043 0.948437 -0.108665
v -410.467255 0.654438 1.034580
v -410.467255 0.705745 1.052137
v -410.389984 0.997756 -0.108653
v -410.390350 0.705914 1.050893
v -410.388458 0.654321 1.034562
v -410.142365 0.947026 -0.108768
v -410.142365 0.996660 -0.108695
v -410.138153 0.705749 1.049466
v -410.138153 0.654441 1.031909
v -410.216461 0.654441 1.031909
v -410.137665 0.343704 2.107517
v -410.137665 0.292396 2.089960
v -410.216888 0.947045 0.176796
v -410.141571 0.946590 0.175866
v -410.141571 0.997660 0.194120
v -410.390106 0.998578 0.195734
v -410.463837 0.999278 0.196567
v -410.463837 0.947731 0.179708
v -410.388397 0.947097 0.178621
v -410.184479 0.053527 2.039619
v -410.184479 0.053314 -0.076189
v -410.413208 0.053866 2.039564
v -410.413208 0.053668 -0.076174
v -410.412476 0.979713 -0.076155
v -410.412659 0.326667 2.039965
v -410.412628 0.981736 0.167135
v -410.185852 0.979548 -0.076147
v -410.185333 0.326576 2.039953
v -410.185333 0.981733 0.167135
v -410.403381 0.326660 2.053985
v -410.403900 0.053840 2.053584
v -410.403870 0.053640 -0.090196
v -410.403259 0.979700 -0.090175
v -410.382935 0.326652 2.060880
v -410.383301 0.053812 2.060483
v -410.383301 0.053611 -0.097093
v -410.382874 0.979686 -0.097070
v -410.195923 0.326583 2.053975
v -410.195129 0.053556 2.053631
v -410.195129 0.053344 -0.090209
v -410.196411 0.979561 -0.090168
v -410.216431 0.326591 2.060873
v -410.215759 0.053584 2.060521
v -410.215759 0.053373 -0.097104
v -410.216858 0.979575 -0.097065
v -411.957458 0.292647 2.091298
v -411.956848 0.947064 -0.108711
v -411.957397 0.315577 2.024290
v -411.956909 0.947095 -0.006067
v -411.783447 0.315747 2.022025
v -411.783447 0.292435 2.090153
v -411.784851 0.946635 -0.077794
v -411.784729 0.946692 -0.006740
v -411.958008 0.343963 2.108768
v -412.035522 0.344215 2.108683
v -412.035522 0.292907 2.091126
v -412.030762 0.998661 -0.108635
v -412.030762 0.948437 -0.108665
v -412.034973 0.654438 1.034580
v -412.034973 0.705745 1.052137
v -411.957703 0.997756 -0.108653
v -411.958069 0.705914 1.050893
v -411.956177 0.654321 1.034562
v -411.710083 0.947026 -0.108768
v -411.710083 0.996660 -0.108695
v -411.705872 0.705749 1.049466
v -411.705872 0.654441 1.031909
v -411.784180 0.654441 1.031909
v -411.705383 0.343704 2.107517
v -411.705383 0.292396 2.089960
v -411.784607 0.947045 0.176796
v -411.709290 0.946590 0.175866
v -411.709290 0.997660 0.194120
v -411.957825 0.998578 0.195734
v -412.031555 0.999278 0.196567
v -412.031555 0.947731 0.179708
v -411.956116 0.947097 0.178621
v -411.752197 0.053527 2.039619
v -411.752197 0.053314 -0.076189
v -411.980927 0.053866 2.039564
v -411.980896 0.053668 -0.076174
v -411.980194 0.979713 -0.076155
v -411.980347 0.326667 2.039965
v -411.980347 0.981736 0.167135
v -411.753571 0.979548 -0.076147
v -411.753052 0.326576 2.039953
v -411.753052 0.981733 0.167135
v -411.971130 0.326660 2.053985
v -411.971619 0.053840 2.053584
v -411.971619 0.053640 -0.090196
v -411.970978 0.979700 -0.090175
v -411.950623 0.326652 2.060880
v -411.951019 0.053812 2.060483
v -411.950989 0.053611 -0.097093
v -411.950562 0.979686 -0.097070
v -411.763672 0.326583 2.053975
v -411.762848 0.053556 2.053631
v -411.762848 0.053344 -0.090209
v -411.764160 0.979561 -0.090168
v -411.784180 0.326591 2.060873
v -411.783478 0.053584 2.060521
v -411.783478 0.053373 -0.097104
v -411.784607 0.979575 -0.097065
vt 0.903123 0.972478
vt 0.735336 0.972012
vt 0.734809 0.259325
vt 0.903788 0.259744
vt 0.932919 0.258072
vt 0.961066 0.252594
vt 0.960851 0.970325
vt 0.933213 0.974842
vt 0.008516 0.605178
vt 0.665890 0.605108
vt 0.665877 0.651081
vt 0.008538 0.651088
vt 0.904098 0.259804
vt 0.932365 0.259065
vt 0.932498 0.972806
vt 0.903915 0.972320
vt 0.667155 0.065963
vt 0.667155 0.014946
vt 0.222477 0.014946
vt 0.222477 0.065963
vt 0.490891 0.140944
vt 0.490891 0.101371
vt 0.100209 0.101371
vt 0.100209 0.140944
vt 0.472135 0.231197
vt 0.472135 0.188384
vt 0.007252 0.188384
vt 0.007252 0.231197
vt 0.531541 0.188384
vt 0.531541 0.140944
vt 0.079623 0.140944
vt 0.079623 0.188384
vt 0.531541 0.188384
vt 0.531541 0.140944
vt 0.079623 0.140944
vt 0.079623 0.188384
vt 0.634254 0.318130
vt 0.634254 0.273692
vt 0.122720 0.273692
vt 0.122720 0.318130
vt 0.001705 0.320841
vt 0.001705 1.000180
vt 0.484099 1.000180
vt 0.484100 0.320841
vt 0.000735 0.014946
vt 0.000753 0.319328
vt 0.677490 0.319328
vt 0.677508 0.014946
vt 0.903123 0.972478
vt 0.735336 0.972012
vt 0.734809 0.259325
vt 0.903788 0.259744
vt 0.932919 0.258072
vt 0.961066 0.252594
vt 0.960851 0.970325
vt 0.933213 0.974842
vt 0.008516 0.907994
vt 0.665890 0.907924
vt 0.665859 0.986675
vt 0.008520 0.986682
vt 0.904098 0.259804
vt 0.932365 0.259065
vt 0.932498 0.972806
vt 0.903915 0.972320
vt 0.903123 0.972478
vt 0.735336 0.972012
vt 0.734809 0.259325
vt 0.903788 0.259744
vt 0.932919 0.258072
vt 0.961066 0.252594
vt 0.960851 0.970325
vt 0.933213 0.974842
vt 0.008516 0.605178
vt 0.665890 0.605108
vt 0.665858 0.686499
vt 0.008519 0.686506
vt 0.904098 0.259804
vt 0.932365 0.259065
vt 0.932498 0.972806
vt 0.903915 0.972320
vt 0.903123 0.972478
vt 0.735336 0.972012
vt 0.734809 0.259325
vt 0.903788 0.259744
vt 0.932919 0.258072
vt 0.961066 0.252594
vt 0.960851 0.970325
vt 0.933213 0.974842
vt 0.259379 0.995479
vt 0.259309 0.338105
vt 0.343385 0.338139
vt 0.343393 0.995478
vt 0.904098 0.259804
vt 0.932365 0.259065
vt 0.932498 0.972806
vt 0.903915 0.972320
vt 0.903123 0.972478
vt 0.735336 0.972012
vt 0.734809 0.259325
vt 0.903788 0.259744
vt 0.932919 0.258072
vt 0.961066 0.252594
vt 0.960851 0.970325
vt 0.933213 0.974842
vt 0.543269 0.995479
vt 0.543199 0.338105
vt 0.620582 0.338135
vt 0.620589 0.995474
vt 0.904098 0.259804
vt 0.932365 0.259065
vt 0.932498 0.972806
vt 0.903915 0.972320
vt 0.903585 0.065058
vt 0.903639 0.207025
vt 0.932817 0.206581
vt 0.932815 0.065058
vt 0.903123 0.972478
vt 0.735336 0.972012
vt 0.734809 0.259325
vt 0.903788 0.259744
vt 0.932919 0.258072
vt 0.961066 0.252594
vt 0.960851 0.970325
vt 0.933213 0.974842
vt 0.259379 0.995479
vt 0.259309 0.338105
vt 0.313682 0.338105
vt 0.313618 0.995479
vt 0.904098 0.259804
vt 0.932365 0.259065
vt 0.932498 0.972806
vt 0.903915 0.972320
vt 0.903585 0.065058
vt 0.932815 0.065058
vt 0.932817 0.206581
vt 0.903639 0.207025
vt 0.870520 0.107573
vt 0.870523 0.065058
vt 0.796084 0.065058
vt 0.796084 0.107555
vt 0.871086 0.747507
vt 0.871089 0.704933
vt 0.796084 0.704654
vt 0.796084 0.747224
vt 0.863533 0.065058
vt 0.863533 0.036422
vt 0.903585 0.036422
vt 0.903585 0.065058
vt 0.961220 0.830756
vt 0.932815 0.830885
vt 0.932817 0.250386
vt 0.961182 0.250386
vt 0.932949 0.065058
vt 0.961050 0.065058
vt 0.961229 0.747819
vt 0.932815 0.747725
vt 0.932815 0.830885
vt 0.903599 0.830919
vt 0.903655 0.250386
vt 0.932817 0.250386
vt 0.903944 0.065058
vt 0.932528 0.065058
vt 0.932815 0.747725
vt 0.903585 0.747630
vt 0.903585 0.747630
vt 0.863533 0.747504
vt 0.863793 0.107731
vt 0.903439 0.065058
vt 0.903599 0.830919
vt 0.863545 0.830800
vt 0.863594 0.250386
vt 0.903655 0.250386
vt 0.903585 0.065058
vt 0.932815 0.065058
vt 0.932816 0.109473
vt 0.903602 0.109611
vt 0.961182 0.250386
vt 0.961220 0.830756
vt 0.932815 0.830885
vt 0.932817 0.250386
vt 0.932817 0.065058
vt 0.961186 0.109120
vt 0.961229 0.747819
vt 0.932815 0.747725
vt 0.932815 0.830885
vt 0.903599 0.830919
vt 0.903655 0.250386
vt 0.932817 0.250386
vt 0.903655 0.065058
vt 0.932817 0.065058
vt 0.932815 0.747725
vt 0.903585 0.747630
vt 0.796084 0.065058
vt 0.796084 0.036422
vt 0.903585 0.036422
vt 0.903585 0.065058
vt 0.903585 0.747630
vt 0.796084 0.747224
vt 0.796084 0.065058
vt 0.903655 0.065058
vt 0.903599 0.830919
vt 0.796084 0.830534
vt 0.796084 0.250386
vt 0.903655 0.250386
vt 0.903585 0.065058
vt 0.932815 0.065058
vt 0.932817 0.206581
vt 0.903639 0.207025
vt 0.961226 0.926303
vt 0.932815 0.971293
vt 0.932815 0.971293
vt 0.903585 0.971198
vt 0.903585 0.971198
vt 0.796084 0.970793
vt 0.961229 0.971388
vt 0.932815 0.971293
vt 0.932815 0.971293
vt 0.903585 0.971198
vt 0.903585 0.971198
vt 0.863533 0.971072
vt 0.863537 0.926313
vt 0.961182 0.065058
vt 0.863810 0.065058
vt 0.961229 0.971388
vt 0.001705 0.320841
vt 0.001705 0.326739
vt 0.678478 0.326739
vt 0.678478 0.320841
vt 0.003892 0.091620
vt 0.677328 0.004204
vt 0.003892 0.004204
vt 0.601603 0.312833
vt 0.677328 0.312833
vt 0.003892 0.091620
vt 0.003892 0.004204
vt 0.677328 0.004204
vt 0.012167 0.004204
vt 0.012167 0.092016
vt 0.016688 0.091837
vt 0.016688 0.004204
vt 0.057749 0.317147
vt 0.057749 0.004204
vt 0.053228 0.004204
vt 0.053228 0.317147
vt 0.677328 0.312833
vt 0.601603 0.312833
vt 0.061817 0.004204
vt 0.061817 0.090051
vt 0.066023 0.089885
vt 0.066023 0.004204
vt 0.678478 0.385614
vt 0.001705 0.385614
vt 0.001705 0.391101
vt 0.678478 0.391101
vt 0.008098 0.317147
vt 0.008098 0.004204
vt 0.003892 0.004204
vt 0.003892 0.317147
vt 0.057365 0.004204
vt 0.057365 0.090227
vt 0.678478 0.379805
vt 0.001705 0.379805
vt 0.012551 0.317147
vt 0.012551 0.004204
vt 0.021146 0.091661
vt 0.021146 0.004204
vt 0.001705 0.332556
vt 0.678478 0.332556
vt 0.048769 0.004204
vt 0.048769 0.317147
vt 0.870520 0.107573
vt 0.870523 0.065058
vt 0.796084 0.065058
vt 0.796084 0.107555
vt 0.871086 0.747507
vt 0.871089 0.704933
vt 0.796084 0.704654
vt 0.796084 0.747224
vt 0.863533 0.065058
vt 0.863533 0.036422
vt 0.903585 0.036422
vt 0.903585 0.065058
vt 0.961220 0.830756
vt 0.932815 0.830885
vt 0.932817 0.250386
vt 0.961182 0.250386
vt 0.932949 0.065058
vt 0.961050 0.065058
vt 0.961229 0.747819
vt 0.932815 0.747725
vt 0.932815 0.830885
vt 0.903599 0.830919
vt 0.903655 0.250386
vt 0.932817 0.250386
vt 0.903944 0.065058
vt 0.932528 0.065058
vt 0.932815 0.747725
vt 0.903585 0.747630
vt 0.903585 0.747630
vt 0.863533 0.747504
vt 0.863793 0.107731
vt 0.903439 0.065058
vt 0.903599 0.830919
vt 0.863545 0.830800
vt 0.863594 0.250386
vt 0.903655 0.250386
vt 0.903585 0.065058
vt 0.932815 0.065058
vt 0.932816 0.109473
vt 0.903602 0.109611
vt 0.961182 0.250386
vt 0.961220 0.830756
vt 0.932815 0.830885
vt 0.932817 0.250386
vt 0.932817 0.065058
vt 0.961186 0.109120
vt 0.961229 0.747819
vt 0.932815 0.747725
vt 0.932815 0.830885
vt 0.903599 0.830919
vt 0.903655 0.250386
vt 0.932817 0.250386
vt 0.903655 0.065058
vt 0.932817 0.065058
vt 0.932815 0.747725
vt 0.903585 0.747630
vt 0.796084 0.065058
vt 0.796084 0.036422
vt 0.903585 0.036422
vt 0.903585 0.065058
vt 0.903585 0.747630
vt 0.796084 0.747224
vt 0.796084 0.065058
vt 0.903655 0.065058
vt 0.903599 0.830919
vt 0.796084 0.830534
vt 0.796084 0.250386
vt 0.903655 0.250386
vt 0.903585 0.065058
vt 0.932815 0.065058
vt 0.932817 0.206581
vt 0.903639 0.207025
vt 0.961226 0.926303
vt 0.932815 0.971293
vt 0.932815 0.971293
vt 0.903585 0.971198
vt 0.903585 0.971198
vt 0.796084 0.970793
vt 0.961229 0.971388
vt 0.932815 0.971293
vt 0.932815 0.971293
vt 0.903585 0.971198
vt 0.903585 0.971198
vt 0.863533 0.971072
vt 0.863537 0.926313
vt 0.961182 0.065058
vt 0.863810 0.065058
vt 0.961229 0.971388
vt 0.001705 0.320841
vt 0.001705 0.326739
vt 0.678478 0.326739
vt 0.678478 0.320841
vt 0.003892 0.091620
vt 0.677328 0.004204
vt 0.003892 0.004204
vt 0.601603 0.312833
vt 0.677328 0.312833
vt 0.003892 0.091620
vt 0.003892 0.004204
vt 0.677328 0.004204
vt 0.012167 0.004204
vt 0.012167 0.092016
vt 0.016688 0.091837
vt 0.016688 0.004204
vt 0.057749 0.317147
vt 0.057749 0.004204
vt 0.053228 0.004204
vt 0.053228 0.317147
vt 0.677328 0.312833
vt 0.601603 0.312833
vt 0.061817 0.004204
vt 0.061817 0.090051
vt 0.066023 0.089885
vt 0.066023 0.004204
vt 0.678478 0.385614
vt 0.001705 0.385614
vt 0.001705 0.391101
vt 0.678478 0.391101
vt 0.008098 0.317147
vt 0.008098 0.004204
vt 0.003892 0.004204
vt 0.003892 0.317147
vt 0.057365 0.004204
vt 0.057365 0.090227
vt 0.678478 0.379805
vt 0.001705 0.379805
vt 0.012551 0.317147
vt 0.012551 0.004204
vt 0.021146 0.091661
vt 0.021146 0.004204
vt 0.001705 0.332556
vt 0.678478 0.332556
vt 0.048769 0.004204
vt 0.048769 0.317147
vn 0.000442 1.000000 0.000005
vn 0.000384 1.000000 -0.000707
vn 0.000384 1.000000 -0.000707
vn 0.000442 1.000000 0.000005
vn -0.000188 -0.999675 0.025496
vn -0.000188 -0.999675 0.025496
vn -0.000188 -0.999675 0.025496
vn -0.000188 -0.999675 0.025496
vn 0.000326 0.999999 -0.001419
vn 0.000326 0.999999 -0.001419
vn 0.002170 0.000027 0.999998
vn 0.002170 0.000027 0.999998
vn 0.002170 0.000027 0.999998
vn 0.002170 0.000027 0.999998
vn 0.000000 0.003727 0.999993
vn 0.000000 0.003727 0.999993
vn 0.000000 0.003727 0.999993
vn 0.000000 0.003727 0.999993
vn 0.000000 0.000000 1.000000
vn 0.000000 0.000000 1.000000
vn 0.000000 0.000000 1.000000
vn 0.000000 0.000000 1.000000
vn 0.000000 0.000000 1.000000
vn 0.000000 0.000000 1.000000
vn 0.000000 0.000000 1.000000
vn 0.000000 0.000000 1.000000
vn 0.000000 0.000000 1.000000
vn 0.000000 0.000000 1.000000
vn 0.000000 0.000000 1.000000
vn 0.000000 0.000000 1.000000
vn 0.001198 -0.045819 0.998949
vn 0.001198 -0.045819 0.998949
vn 0.001198 -0.045819 0.998949
vn 0.001198 -0.045819 0.998949
vn 0.000000 0.000000 1.000000
vn 0.000000 0.000000 1.000000
vn 0.000000 0.000000 1.000000
vn 0.000000 0.000000 1.000000
vn 0.000000 -1.000000 0.000000
vn 0.000000 -1.000000 0.000000
vn 0.000000 -1.000000 0.000000
vn 0.000000 -1.000000 0.000000
vn 0.000046 0.000000 -1.000000
vn 0.000046 0.000000 -1.000000
vn 0.000046 0.000000 -1.000000
vn 0.000046 0.000000 -1.000000
vn 0.000442 1.000000 0.000003
vn 0.000437 1.000000 0.000039
vn 0.000437 1.000000 0.000039
vn 0.000442 1.000000 0.000003
vn -0.000188 -0.999675 0.025496
vn -0.000188 -0.999675 0.025496
vn -0.000188 -0.999675 0.025496
vn -0.000188 -0.999675 0.025496
vn 0.000432 1.000000 0.000076
vn 0.000432 1.000000 0.000076
vn 0.002170 0.000027 0.999998
vn 0.002170 0.000027 0.999998
vn 0.002170 0.000027 0.999998
vn 0.002170 0.000027 0.999998
vn 0.000442 1.000000 0.000004
vn 0.000437 1.000000 0.000038
vn 0.000437 1.000000 0.000038
vn 0.000442 1.000000 0.000004
vn -0.000188 -0.999675 0.025490
vn -0.000188 -0.999675 0.025490
vn -0.000188 -0.999675 0.025490
vn -0.000188 -0.999675 0.025490
vn 0.000432 1.000000 0.000073
vn 0.000432 1.000000 0.000073
vn 0.002170 0.000027 0.999998
vn 0.002170 0.000027 0.999998
vn 0.002170 0.000027 0.999998
vn 0.002170 0.000027 0.999998
vn 0.000441 1.000000 0.000002
vn 0.000437 1.000000 0.000037
vn 0.000437 1.000000 0.000037
vn 0.000441 1.000000 0.000002
vn -0.000188 -0.999675 0.025493
vn -0.000188 -0.999675 0.025493
vn -0.000188 -0.999675 0.025493
vn -0.000188 -0.999675 0.025493
vn 0.000432 1.000000 0.000071
vn 0.000432 1.000000 0.000071
vn 0.002170 0.000027 0.999998
vn 0.002170 0.000027 0.999998
vn 0.002170 0.000027 0.999998
vn 0.002170 0.000027 0.999998
vn 0.000442 1.000000 0.000002
vn 0.000437 1.000000 0.000039
vn 0.000437 1.000000 0.000039
vn 0.000442 1.000000 0.000002
vn -0.000188 -0.999675 0.025493
vn -0.000188 -0.999675 0.025493
vn -0.000188 -0.999675 0.025493
vn -0.000188 -0.999675 0.025493
vn 0.000432 1.000000 0.000076
vn 0.000432 1.000000 0.000076
vn 0.002170 0.000027 0.999998
vn 0.002170 0.000027 0.999998
vn 0.002170 0.000027 0.999998
vn 0.002170 0.000027 0.999998
vn -1.000000 0.000000 -0.000146
vn -1.000000 0.000000 -0.000146
vn -1.000000 0.000000 -0.000146
vn -1.000000 0.000000 -0.000146
vn 0.000442 1.000000 0.000003
vn 0.000437 1.000000 0.000056
vn 0.000437 1.000000 0.000056
vn 0.000442 1.000000 0.000003
vn -0.000188 -0.999675 0.025490
vn -0.000188 -0.999675 0.025490
vn -0.000188 -0.999675 0.025490
vn -0.000188 -0.999675 0.025490
vn 0.000432 1.000000 0.000108
vn 0.000432 1.000000 0.000108
vn 0.002170 0.000027 0.999998
vn 0.002170 0.000027 0.999998
vn 0.002170 0.000027 0.999998
vn 0.002170 0.000027 0.999998
vn 0.999901 0.013839 -0.002745
vn 0.999901 0.013839 -0.002745
vn 0.999901 0.013839 -0.002745
vn 0.999901 0.013839 -0.002745
vn -0.001741 -0.946125 -0.323796
vn -0.002282 -0.946128 -0.323784
vn -0.002859 -0.946140 -0.323746
vn -0.002561 -0.946142 -0.323741
vn 0.001543 -0.999999 0.000648
vn 0.000721 -1.000000 0.000374
vn -0.011091 -0.999939 -0.000229
vn -0.010523 -0.999945 0.000402
vn 0.000947 -0.322994 0.946401
vn 0.000947 -0.322994 0.946401
vn -0.002635 -0.323013 0.946391
vn -0.002635 -0.323013 0.946391
vn 0.005909 0.946120 0.323762
vn 0.007807 0.945971 0.324159
vn 0.005374 0.946046 0.323989
vn 0.004318 0.946125 0.323774
vn 0.002941 0.946115 0.323818
vn 0.002727 0.946127 0.323784
vn -0.999995 0.000875 -0.003129
vn -0.999995 0.000875 -0.003129
vn -0.999998 0.000874 -0.002025
vn -0.999998 0.000874 -0.002025
vn -1.000000 0.000504 -0.000465
vn -1.000000 0.000504 -0.000465
vn -0.004448 -0.946087 -0.323881
vn -0.004448 -0.946087 -0.323881
vn -0.002199 -0.946150 -0.323722
vn -0.006931 -0.946022 -0.324028
vn -0.006931 -0.946022 -0.324028
vn -0.000421 0.000866 -1.000000
vn -0.000421 0.000866 -1.000000
vn -0.000309 0.001086 -0.999999
vn -0.000309 0.001086 -0.999999
vn -0.002709 -0.946182 -0.323624
vn -0.004759 -0.946241 -0.323426
vn -0.004759 -0.946241 -0.323426
vn -0.002709 -0.946182 -0.323624
vn -0.000969 -0.946124 -0.323804
vn 0.999995 0.000880 -0.003135
vn 0.999995 0.000880 -0.003135
vn 0.999998 0.000622 -0.001991
vn 0.999998 0.000622 -0.001991
vn 1.000000 0.000000 -0.000413
vn 1.000000 0.000000 -0.000413
vn 0.004530 -0.322971 0.946398
vn 0.004530 -0.322971 0.946398
vn 0.003262 0.946203 0.323558
vn 0.002513 0.946139 0.323751
vn 0.004011 0.946266 0.323365
vn -0.000198 0.001305 -0.999999
vn -0.000198 0.001305 -0.999999
vn -0.000924 -1.000000 -0.000175
vn 0.002312 -0.999997 0.000306
vn -0.000924 -1.000000 -0.000175
vn 0.999996 0.000516 -0.002702
vn 0.999996 0.000516 -0.002702
vn 0.004049 0.999987 -0.003007
vn 0.007485 0.999968 -0.002676
vn 0.007485 0.999968 -0.002676
vn 0.004049 0.999987 -0.003007
vn 0.010920 0.999938 -0.002346
vn 0.010920 0.999938 -0.002346
vn -0.999996 0.000505 -0.002673
vn -0.999996 0.000505 -0.002673
vn -0.015406 -0.999881 -0.000597
vn -0.012227 -0.999924 -0.001489
vn -0.012227 -0.999924 -0.001489
vn -0.002743 -0.999996 0.000100
vn -0.002070 -0.999998 0.000099
vn -0.002070 -0.999998 0.000099
vn -0.002743 -0.999996 0.000100
vn -0.981511 0.001206 0.191402
vn -0.981571 0.001141 -0.191093
vn -0.957479 0.001488 0.288498
vn -1.000000 0.000633 0.000098
vn -0.957606 0.000666 -0.288080
vn 0.977473 0.001837 0.211053
vn 0.947906 0.002287 0.318542
vn 0.977532 0.001691 -0.210780
vn 0.583384 0.000621 0.812196
vn 0.583384 0.000621 0.812196
vn 0.948042 0.001103 -0.318143
vn 0.583943 0.000849 -0.811794
vn 0.583943 0.000849 -0.811794
vn 1.000000 0.000920 0.000036
vn -0.609027 -0.000009 0.793150
vn -0.609027 -0.000009 0.793150
vn -0.002134 -0.999998 0.000093
vn -0.002134 -0.999998 0.000093
vn -0.002877 -0.999996 0.000093
vn -0.002877 -0.999996 0.000093
vn -0.609601 0.000453 -0.792708
vn -0.609601 0.000453 -0.792708
vn -0.161429 -0.001125 0.986884
vn -0.161429 -0.001125 0.986884
vn -0.001390 -0.999999 0.000094
vn -0.001390 -0.999999 0.000094
vn -0.161724 0.000126 -0.986836
vn -0.161724 0.000126 -0.986836
vn 0.160934 -0.000900 0.986965
vn 0.160934 -0.000900 0.986965
vn -0.001393 -0.999999 0.000097
vn -0.001393 -0.999999 0.000097
vn 0.161252 0.000246 -0.986913
vn 0.161252 0.000246 -0.986913
vn -0.001741 -0.946142 -0.323746
vn -0.002282 -0.946135 -0.323763
vn -0.002859 -0.946135 -0.323759
vn -0.002562 -0.946127 -0.323787
vn 0.001539 -0.999999 0.000647
vn 0.000718 -1.000000 0.000373
vn -0.011091 -0.999939 -0.000229
vn -0.010523 -0.999945 0.000402
vn 0.000947 -0.323004 0.946397
vn 0.000947 -0.323004 0.946397
vn -0.002635 -0.323040 0.946382
vn -0.002635 -0.323040 0.946382
vn 0.005909 0.946120 0.323762
vn 0.007807 0.945971 0.324159
vn 0.005374 0.946064 0.323935
vn 0.004318 0.946134 0.323747
vn 0.002940 0.946152 0.323709
vn 0.002726 0.946146 0.323730
vn -0.999995 0.000564 -0.003129
vn -0.999995 0.000564 -0.003129
vn -0.999998 0.000311 -0.002025
vn -0.999998 0.000311 -0.002025
vn -1.000000 0.000000 -0.000465
vn -1.000000 0.000000 -0.000465
vn -0.004450 -0.946045 -0.324003
vn -0.004450 -0.946045 -0.324003
vn -0.002200 -0.946120 -0.323810
vn -0.006934 -0.945976 -0.324162
vn -0.006934 -0.945976 -0.324162
vn -0.000421 0.000866 -1.000000
vn -0.000421 0.000866 -1.000000
vn -0.000309 0.001086 -0.999999
vn -0.000309 0.001086 -0.999999
vn -0.002709 -0.946201 -0.323569
vn -0.004759 -0.946241 -0.323426
vn -0.004759 -0.946241 -0.323426
vn -0.002709 -0.946201 -0.323569
vn -0.000969 -0.946143 -0.323749
vn 0.999995 0.000311 -0.003135
vn 0.999995 0.000311 -0.003135
vn 0.999998 0.000311 -0.001991
vn 0.999998 0.000311 -0.001991
vn 1.000000 0.000000 -0.000413
vn 1.000000 0.000000 -0.000413
vn 0.004530 -0.322963 0.946401
vn 0.004530 -0.322963 0.946401
vn 0.003262 0.946203 0.323558
vn 0.002513 0.946139 0.323751
vn 0.004011 0.946266 0.323365
vn -0.000198 0.001305 -0.999999
vn -0.000198 0.001305 -0.999999
vn -0.000925 -1.000000 -0.000175
vn 0.002308 -0.999997 0.000306
vn -0.000925 -1.000000 -0.000175
vn 0.999996 0.000000 -0.002702
vn 0.999996 0.000000 -0.002702
vn 0.004049 0.999987 -0.003007
vn 0.007485 0.999968 -0.002676
vn 0.007485 0.999968 -0.002676
vn 0.004049 0.999987 -0.003007
vn 0.010920 0.999938 -0.002346
vn 0.010920 0.999938 -0.002346
vn -0.999996 0.000505 -0.002673
vn -0.999996 0.000505 -0.002673
vn -0.015406 -0.999881 -0.000597
vn -0.012227 -0.999924 -0.001489
vn -0.012227 -0.999924 -0.001489
vn -0.002736 -0.999996 0.000100
vn -0.002068 -0.999998 0.000099
vn -0.002068 -0.999998 0.000099
vn -0.002736 -0.999996 0.000100
vn -0.981604 0.001172 0.190923
vn -0.981663 0.001132 -0.190620
vn -0.957700 0.001467 0.287766
vn -1.000000 0.000575 0.000102
vn -0.957825 0.000620 -0.287352
vn 0.977426 0.001980 0.211267
vn 0.947796 0.002503 0.318869
vn 0.977486 0.001775 -0.210994
vn 0.583103 0.000766 0.812398
vn 0.583103 0.000766 0.812398
vn 0.947932 0.001118 -0.318471
vn 0.583662 0.000864 -0.811996
vn 0.583662 0.000864 -0.811996
vn 1.000000 0.000920 0.000036
vn -0.609449 -0.000105 0.792825
vn -0.609449 -0.000105 0.792825
vn -0.002141 -0.999998 0.000093
vn -0.002141 -0.999998 0.000093
vn -0.002893 -0.999996 0.000093
vn -0.002893 -0.999996 0.000093
vn -0.609934 0.000431 -0.792452
vn -0.609934 0.000431 -0.792452
vn -0.161207 -0.001165 0.986920
vn -0.161207 -0.001165 0.986920
vn -0.001389 -0.999999 0.000094
vn -0.001389 -0.999999 0.000094
vn -0.161391 0.000119 -0.986891
vn -0.161391 0.000119 -0.986891
vn 0.160934 -0.000859 0.986965
vn 0.160934 -0.000859 0.986965
vn -0.001394 -0.999999 0.000097
vn -0.001394 -0.999999 0.000097
vn 0.161252 0.000246 -0.986913
vn 0.161252 0.000246 -0.986913
s 1
g polySurface23401
f 5/1/1 3/2/2 6/3/3 2/4/4
s off
f 1/5/5 8/6/6 7/7/7 4/8/8
s 1
f 6/9/3 3/10/2 9/11/9 10/12/10
s off
f 2/13/11 1/14/12 4/15/13 5/16/14
f 11/17/15 12/18/16 14/19/17 13/20/18
f 17/21/19 18/22/20 16/23/21 15/24/22
f 19/25/23 20/26/24 22/27/25 21/28/26
f 25/29/27 26/30/28 24/31/29 23/32/30
f 29/33/31 30/34/32 28/35/33 27/36/34
f 33/37/35 34/38/36 32/39/37 31/40/38
f 12/41/39 35/42/40 36/43/41 14/44/42
f 35/45/43 10/46/44 9/47/45 36/48/46
s 7
f 41/49/47 39/50/48 42/51/49 38/52/50
s off
f 37/53/51 44/54/52 43/55/53 40/56/54
s 7
f 42/57/49 39/58/48 45/59/55 46/60/56
s off
f 38/61/57 37/62/58 40/63/59 41/64/60
s 10
f 51/65/61 49/66/62 52/67/63 48/68/64
s off
f 47/69/65 54/70/66 53/71/67 50/72/68
s 10
f 52/73/63 49/74/62 55/75/69 56/76/70
s off
f 48/77/71 47/78/72 50/79/73 51/80/74
s 13
f 61/81/75 59/82/76 62/83/77 58/84/78
s off
f 57/85/79 64/86/80 63/87/81 60/88/82
s 13
f 62/89/77 59/90/76 65/91/83 66/92/84
s off
f 58/93/85 57/94/86 60/95/87 61/96/88
s 16
f 71/97/89 69/98/90 72/99/91 68/100/92
s off
f 67/101/93 74/102/94 73/103/95 70/104/96
s 16
f 72/105/91 69/106/90 75/107/97 76/108/98
s off
f 68/109/99 67/110/100 70/111/101 71/112/102
f 80/113/103 78/114/104 77/115/105 79/116/106
s 20
f 83/117/107 81/118/108 84/119/109 80/120/110
s off
f 79/121/111 86/122/112 85/123/113 82/124/114
s 20
f 84/125/109 81/126/108 87/127/115 88/128/116
s off
f 80/129/117 79/130/118 82/131/119 83/132/120
f 83/133/121 82/134/122 89/135/123 90/136/124
s 24
f 95/137/125 96/138/126 91/139/127 93/140/128
s 25
f 97/141/129 98/142/130 94/143/131 92/144/132
s 26
f 91/145/133 99/146/134 100/147/135 101/148/136
s 27
f 119/149/137 120/150/138 105/151/139 107/152/140
f 100/153/141 99/154/142 107/155/140 105/156/139
s 28
f 120/157/143 121/158/144 104/159/145 105/160/146
f 101/161/147 100/162/148 105/163/146 104/164/145
s 24
f 104/165/149 108/166/150 93/167/128 101/168/151
f 121/169/152 122/170/153 108/171/150 104/172/149
s 29
f 103/173/154 102/174/155 106/175/156 92/176/157
s 24
f 113/177/158 116/178/159 117/179/160 112/180/161
f 115/181/162 95/182/125 113/183/158 112/184/161
s 30
f 117/185/163 118/186/164 111/187/165 112/188/166
f 114/189/167 115/190/168 112/191/166 111/192/165
s 26
f 99/193/134 91/194/133 115/195/169 114/196/170
s 27
f 111/197/171 107/198/140 99/199/142 114/200/172
f 118/201/173 119/202/137 107/203/140 111/204/171
s 29
f 110/205/174 109/206/175 92/207/157 106/208/156
s 25
f 116/178/176 98/209/130 109/210/177 117/179/178
s 30
f 109/211/179 110/212/180 118/186/164 117/185/163
s 31
f 110/213/181 106/214/182 119/202/183 118/201/184
f 106/215/182 102/216/185 120/150/186 119/149/183
s 28
f 102/217/187 103/218/188 121/158/144 120/157/143
s 25
f 103/219/189 92/220/132 94/221/131
s 24
f 115/181/162 96/222/126 95/182/125
f 101/168/151 93/167/128 91/223/127
s 25
f 103/219/189 94/221/131 122/170/190 121/169/191
f 98/209/130 97/224/129 109/210/177
s 32
f 123/225/192 142/226/193 143/227/194 124/228/195
s 33
f 128/229/196 126/230/197 125/231/198
f 128/229/196 129/232/199 127/233/200 126/230/197
f 131/234/201 123/235/202 124/236/203
f 123/237/202 131/238/201 141/239/204 142/240/205
f 130/241/206 124/242/203 143/243/207 144/244/208
f 131/234/201 124/236/203 130/245/206 132/246/209
f 134/247/210 133/248/211 128/249/196 125/250/198
s 32
f 135/251/212 134/252/213 125/253/214 126/254/215
s 33
f 136/255/216 135/256/217 126/257/197 127/258/200
f 138/259/218 137/260/219 133/248/211 134/247/210
s 32
f 139/261/220 138/262/221 134/252/213 135/251/212
s 33
f 140/263/222 139/264/223 135/256/217 136/255/216
f 142/240/205 141/239/204 145/265/224 146/266/225
s 32
f 143/227/194 142/226/193 146/267/226 147/268/227
s 33
f 144/244/208 143/243/207 147/269/228 148/270/229
f 146/266/225 145/265/224 137/260/219 138/259/218
s 32
f 147/268/227 146/267/226 138/262/221 139/261/220
s 33
f 148/270/229 147/269/228 139/264/223 140/263/222
s 34
f 153/271/230 154/272/231 149/273/232 151/274/233
s 35
f 155/275/234 156/276/235 152/277/236 150/278/237
s 36
f 149/279/238 157/280/239 158/281/240 159/282/241
s 37
f 177/283/242 178/284/243 163/285/244 165/286/245
f 158/287/246 157/288/247 165/289/245 163/290/244
s 38
f 178/291/248 179/292/249 162/293/250 163/294/251
f 159/295/252 158/296/253 163/297/251 162/298/250
s 34
f 162/299/254 166/300/255 151/301/233 159/302/256
f 179/303/257 180/304/258 166/305/255 162/306/254
s 39
f 161/307/259 160/308/260 164/309/261 150/310/262
s 34
f 171/311/263 174/312/264 175/313/265 170/314/266
f 173/315/267 153/316/230 171/317/263 170/318/266
s 40
f 175/319/268 176/320/269 169/321/270 170/322/271
f 172/323/272 173/324/273 170/325/271 169/326/270
s 36
f 157/327/239 149/328/238 173/329/274 172/330/275
s 37
f 169/331/276 165/332/245 157/333/247 172/334/277
f 176/335/278 177/336/242 165/337/245 169/338/276
s 39
f 168/339/279 167/340/280 150/341/262 164/342/261
s 35
f 174/312/281 156/343/235 167/344/282 175/313/283
s 40
f 167/345/284 168/346/285 176/320/269 175/319/268
s 41
f 168/347/286 164/348/287 177/336/288 176/335/289
f 164/349/287 160/350/290 178/284/291 177/283/288
s 38
f 160/351/292 161/352/293 179/292/249 178/291/248
s 35
f 161/353/294 150/354/237 152/355/236
s 34
f 173/315/267 154/356/231 153/316/230
f 159/302/256 151/301/233 149/357/232
s 35
f 161/353/294 152/355/236 180/304/295 179/303/296
f 156/343/235 155/358/234 167/344/282
s 42
f 181/359/297 200/360/298 201/361/299 182/362/300
s 43
f 186/363/301 184/364/302 183/365/303
f 186/363/301 187/366/304 185/367/305 184/364/302
f 189/368/306 181/369/307 182/370/308
f 181/371/307 189/372/306 199/373/309 200/374/310
f 188/375/311 182/376/308 201/377/312 202/378/313
f 189/368/306 182/370/308 188/379/311 190/380/314
f 192/381/315 191/382/316 186/383/301 183/384/303
s 42
f 193/385/317 192/386/318 183/387/319 184/388/320
s 43
f 194/389/321 193/390/322 184/391/302 185/392/305
f 196/393/323 195/394/324 191/382/316 192/381/315
s 42
f 197/395/325 196/396/326 192/386/318 193/385/317
s 43
f 198/397/327 197/398/328 193/390/322 194/389/321
f 200/374/310 199/373/309 203/399/329 204/400/330
s 42
f 201/361/299 200/360/298 204/401/331 205/402/332
s 43
f 202/378/313 201/377/312 205/403/333 206/404/334
f 204/400/330 203/399/329 195/394/324 196/393/323
s 42
f 205/402/332 204/401/331 196/396/326 197/395/325
s 43
f 206/404/334 205/403/333 197/398/328 198/397/327
