# This file uses centimeters as units for non-parametric coordinates.

g default
v -380.379364 -0.017594 3.125693
v -378.208527 -0.017594 3.125693
v -380.379364 1.790380 1.043403
v -380.379364 -0.017594 1.043403
v -378.208527 -0.017594 0.856393
v -384.572235 -0.017594 1.043403
v -384.572235 -0.017594 3.125693
v -384.572235 0.179188 1.043403
v -378.208527 -0.017594 -1.125691
v -380.379364 -0.017594 -1.125691
v -384.572235 -0.017594 -1.125691
v -384.572235 1.574854 -1.125691
v -380.379364 2.044823 1.043403
v -384.498444 3.635178 1.043403
v -380.379364 2.044823 -1.125691
v -384.498444 3.635178 -1.125691
v -386.682159 0.913522 1.043403
v -386.682159 -0.017594 1.043403
v -386.682159 1.574854 -1.125691
v -386.682159 -0.017594 -1.125691
v -386.682159 3.635178 1.043403
v -386.682159 3.635178 -1.125691
v -384.498444 3.725003 1.043403
v -384.498444 3.725048 -1.125691
v -386.682159 3.725048 -1.125691
v -386.682159 3.725048 1.043403
v -380.379364 2.044823 0.669383
v -384.498444 3.635178 0.669383
v -384.498444 3.725002 0.669383
v -386.682159 3.725048 0.669383
v -386.682159 3.635178 0.669383
v -386.682159 1.027556 0.669383
v -386.682159 -0.017594 0.669383
v -384.572235 -0.017594 0.669383
v -380.379364 -0.017594 0.669383
v -380.290863 2.154314 1.043403
v -380.290863 2.154314 0.669383
v -380.379303 1.790380 2.756229
v -384.572235 0.179188 2.756229
v -384.572235 -0.017594 2.756229
v -380.379364 -0.017594 2.756229
v -378.208527 -0.017594 2.756229
v -380.379364 1.894325 3.125693
v -378.208527 1.894325 3.125693
v -378.208527 1.894325 2.756229
v -380.379303 1.894325 2.756229
v -384.572235 0.252729 2.756229
v -384.572235 0.252729 3.125693
v -380.379364 1.898625 1.043403
v -378.208527 1.894325 0.856393
v -380.379364 1.896095 0.669383
v -378.208527 1.894325 -1.125691
v -380.379364 1.892939 -1.125691
vt 0.375000 0.000000
vt 0.625000 0.000000
vt 0.375000 0.500000
vt 0.625000 0.750000
vt 0.375000 0.750000
vt 0.375000 0.750000
vt 0.625000 0.750000
vt 0.625000 1.000000
vt 0.375000 1.000000
vt 0.875000 0.000000
vt 0.125000 0.000000
vt 0.375000 0.000000
vt 0.125000 0.250000
vt 0.125000 0.000000
vt 0.125000 0.250000
vt 0.125000 0.000000
vt 0.125000 0.000000
vt 0.625000 0.000000
vt 0.875000 0.000000
vt 0.875000 0.000000
vt 0.625000 0.000000
vt 0.875000 0.000000
vt 0.875000 0.250000
vt 0.875000 0.250000
vt 0.875000 0.000000
vt 0.875000 0.250000
vt 0.625000 0.250000
vt 0.625000 0.250000
vt 0.875000 0.250000
vt 0.875000 0.250000
vt 0.625000 0.250000
vt 0.875000 0.250000
vt 0.875000 0.250000
vt 0.875000 0.250000
vt 0.875000 0.250000
vt 0.875000 0.000000
vt 0.875000 0.000000
vt 0.875000 0.250000
vt 0.875000 0.250000
vt 0.875000 0.250000
vt 0.875000 0.250000
vt 0.875000 0.250000
vt 0.625000 0.250000
vt 0.875000 0.250000
vt 0.875000 0.250000
vt 0.875000 0.250000
vt 0.875000 0.250000
vt 0.875000 0.250000
vt 0.875000 0.000000
vt 0.875000 0.000000
vt 0.875000 0.000000
vt 0.375000 0.750000
vt 0.625000 0.000000
vt 0.875000 0.250000
vt 0.625000 0.250000
vt 0.625000 0.250000
vt 0.875000 0.250000
vt 0.324830 0.250000
vt 0.375000 0.300170
vt 0.324830 0.250000
vt 0.324830 0.000000
vt 0.324830 0.000000
vt 0.375000 0.949830
vt 0.625000 0.949830
vt 0.675170 0.000000
vt 0.375000 0.250000
vt 0.625000 0.250000
vt 0.625000 0.300170
vt 0.324830 0.250000
vt 0.324830 0.250000
vt 0.375000 0.250000
vt 0.625000 0.500000
vt 0.375000 0.500000
vt 0.375000 0.500000
vt 0.625000 0.500000
vt 0.375000 0.500000
vt 0.375000 0.300170
vt 0.625000 0.250000
vt 0.625000 0.250000
vt 0.625000 0.250000
vt 0.625000 0.250000
vt 0.375000 0.300170
vn -0.185505 0.982643 -0.000015
vn 0.000000 1.000000 -0.000000
vn 0.000521 1.000000 0.000595
vn -0.123078 0.992397 0.000393
vn 0.000000 0.000000 -1.000000
vn 0.000000 0.000000 -1.000000
vn 0.000000 0.000000 -1.000000
vn 0.000000 0.000000 -1.000000
vn 0.000000 -1.000000 -0.000000
vn 0.000000 -1.000000 0.000000
vn 0.000000 -1.000000 0.000000
vn 0.000000 -1.000000 -0.000000
vn -1.000000 0.000000 0.000000
vn -1.000000 0.000000 0.000000
vn -1.000000 0.000000 0.000000
vn 0.000000 -1.000000 -0.000000
vn 0.000000 -1.000000 -0.000000
vn 0.000000 0.000000 1.000000
vn 0.000000 0.000000 1.000000
vn 0.000000 0.000000 1.000000
vn 0.000000 0.000000 1.000000
vn -0.364570 0.931176 -0.000030
vn -0.364570 0.931176 -0.000030
vn 0.001220 0.999995 -0.002787
vn 0.000855 0.999997 -0.002137
vn 0.000761 0.999993 -0.003800
vn 0.000000 -1.000000 0.000000
vn 0.000000 -1.000000 0.000000
vn 0.000000 -1.000000 0.000000
vn 0.000000 -1.000000 0.000000
vn 0.000000 -1.000000 0.000000
vn -1.000000 0.000000 0.000000
vn -1.000000 0.000000 0.000000
vn -1.000000 0.000000 0.000000
vn -1.000000 0.000000 0.000000
vn 0.349724 0.936853 0.000000
vn 0.349724 0.936853 0.000000
vn 0.349724 0.936853 0.000000
vn 0.349724 0.936853 0.000000
vn 0.000001 0.000000 1.000000
vn -0.707094 0.000000 0.707120
vn -0.707094 0.000000 0.707120
vn 0.000000 0.000000 -1.000000
vn 0.000000 0.000000 -1.000000
vn 0.000000 0.000000 -1.000000
vn 0.000000 0.000000 -1.000000
vn -1.000000 0.000000 0.000000
vn -1.000000 0.000000 0.000000
vn -1.000000 0.000000 0.000000
vn -1.000000 0.000000 0.000000
vn 0.000000 0.000000 1.000000
vn 0.000000 0.000000 1.000000
vn 0.000000 0.000000 1.000000
vn 0.000000 0.000000 1.000000
vn 0.000000 0.000000 -1.000000
vn 0.000000 0.000000 -1.000000
vn -0.000000 -1.000000 0.000000
vn -0.000000 -1.000000 0.000000
vn 0.000000 0.000000 1.000000
vn 0.000000 0.000000 1.000000
vn 0.000021 1.000000 0.000000
vn 0.000016 1.000000 0.000006
vn 0.000016 1.000000 0.000006
vn 0.000021 1.000000 0.000000
vn -0.000000 0.000000 -1.000000
vn 0.000000 0.000000 -1.000000
vn 0.000000 0.000000 -1.000000
vn 0.000000 0.000000 -1.000000
vn -1.000000 0.000000 0.000000
vn -1.000000 0.000000 0.000000
vn 0.000000 0.000000 1.000000
vn 0.000000 0.000000 1.000000
vn 0.360182 0.932882 0.000000
vn 0.360182 0.932882 0.000000
vn 0.360182 0.932882 0.000000
vn 0.360182 0.932882 0.000000
vn 1.000000 0.000000 0.000000
vn 1.000000 0.000000 0.000000
vn 1.000000 0.000000 0.000000
vn 1.000000 0.000000 0.000000
vn 0.000011 1.000000 0.000013
vn 0.000011 1.000000 0.000013
vn -1.000000 0.000000 0.000000
vn -1.000000 0.000000 0.000000
vn -1.000000 0.000000 0.000000
vn -1.000000 0.000000 0.000000
vn -1.000000 0.000000 0.000000
vn 0.000000 -1.000000 0.000000
vn -0.000000 -1.000000 0.000000
vn 0.000000 -1.000000 0.000000
vn 0.000000 -1.000000 0.000000
vn 0.000124 1.000000 -0.000836
vn 0.000124 1.000000 -0.000836
vn 0.000000 0.000000 1.000000
vn 0.000000 0.000000 1.000000
vn 0.000000 0.000000 1.000000
vn 0.942766 -0.333454 0.000000
vn 0.975325 -0.220774 0.000000
vn 0.777616 -0.628739 0.000000
vn 0.777616 -0.628739 0.000000
vn -0.000000 0.000000 -1.000000
vn -0.000000 0.000000 -1.000000
vn -0.000000 0.000000 -1.000000
vn -0.000000 0.000000 -1.000000
vn -0.358693 0.933456 0.000006
vn -0.358693 0.933456 0.000006
vn -0.358693 0.933456 0.000006
vn -0.358693 0.933456 0.000006
vn -1.000000 0.000000 0.000000
vn -1.000000 0.000000 0.000000
vn -1.000000 0.000000 0.000000
vn -1.000000 0.000000 0.000000
vn 0.000000 0.000000 1.000000
vn 0.000000 0.000000 1.000000
vn 1.000000 0.000000 0.000000
vn 1.000000 0.000000 0.000000
vn 1.000000 0.000000 0.000000
vn 1.000000 0.000000 0.000000
vn -0.000002 0.000000 -1.000000
vn -0.000002 0.000000 -1.000000
vn -0.000002 0.000000 -1.000000
vn -0.000002 0.000000 -1.000000
vn 1.000000 0.000000 0.000000
vn 1.000000 0.000000 0.000000
vn 1.000000 0.000000 0.000000
vn 1.000000 0.000000 0.000000
vn -1.000000 0.000000 0.000036
vn -1.000000 0.000000 0.000036
vn -0.000000 0.000000 -1.000000
vn -0.000000 0.000000 -1.000000
vn 1.000000 0.000000 0.000000
vn 1.000000 0.000000 0.000000
vn 1.000000 0.000000 0.000000
vn 1.000000 0.000000 0.000000
vn 0.000000 0.000000 1.000000
vn -1.000000 0.000000 0.000000
vn -1.000000 0.000000 0.000000
s 1
g polySurface23190
f 43/66/1 44/67/2 45/68/3 46/59/4
s off
f 9/4/5 10/5/6 53/76/7 52/75/8
s 3
f 41/63/9 42/64/10 2/8/11 1/9/12
s off
f 39/60/13 48/71/14 47/70/15
s 3
f 41/62/9 1/1/12 7/12/16 40/61/17
s 5
f 7/12/18 1/1/19 43/66/20 48/71/21
s 1
f 43/66/1 46/69/4 47/70/22 48/71/23
f 49/74/24 50/72/25 51/73/26
s 3
f 5/7/27 4/6/28 35/52/29
f 4/18/28 6/19/30 34/50/31 35/53/29
s 6
f 18/22/32 17/23/33 32/48/34 33/49/35
s off
f 23/54/36 36/55/37 37/56/38 29/57/39
s 8
f 8/30/40 3/31/41 49/81/42
s 9
f 12/32/43 53/79/44 10/16/45 11/17/46
s 10
f 32/48/47 17/23/48 21/33/49 31/47/50
s 11
f 6/19/51 8/30/52 17/23/53 18/22/54
s 9
f 12/35/43 11/36/46 20/25/55 19/24/56
s 3
f 34/51/31 6/19/30 18/22/57 33/49/58
s 11
f 8/30/52 14/26/59 21/33/60 17/23/53
s 12
f 23/39/61 29/45/62 30/46/63 26/42/64
s 9
f 16/29/65 12/38/43 19/24/56 22/34/66
f 16/29/65 22/34/66 25/41/67 24/40/68
s 10
f 31/47/50 21/33/49 26/42/69 30/46/70
s 11
f 21/33/60 14/26/59 23/39/71 26/42/72
s off
f 28/44/73 27/43/74 15/28/75 16/29/76
f 29/45/77 28/44/78 16/29/79 24/40/80
s 12
f 30/46/63 29/45/62 24/40/81 25/41/82
s 10
f 22/34/83 31/47/50 30/46/70 25/41/84
f 19/24/85 32/48/47 31/47/50 22/34/83
s 6
f 33/49/35 32/48/34 19/24/86 20/25/87
s 3
f 11/37/88 34/51/31 33/49/58 20/25/89
f 35/53/29 34/50/31 11/20/88 10/21/90
f 5/7/27 35/52/29 10/5/90 9/4/91
s 1
f 51/73/26 50/72/25 52/75/92 53/76/93
s 11
f 14/26/59 13/27/94 36/55/95 23/54/96
s 15
f 13/27/97 27/43/98 37/56/99 36/55/100
s off
f 27/43/101 28/44/102 29/57/103 37/56/104
s 1
f 46/77/4 45/68/3 50/72/25 49/74/24
s off
f 39/60/105 38/58/106 3/15/107 8/13/108
s 18
f 6/11/109 40/61/110 39/60/111 8/13/112
s 3
f 4/14/28 41/62/9 40/61/17 6/11/30
f 4/6/28 5/7/27 42/64/10 41/63/9
s 5
f 2/2/113 44/67/114 43/66/20 1/1/19
s 19
f 42/65/115 45/68/116 44/67/117 2/2/118
s off
f 38/58/119 39/60/120 47/70/121 46/69/122
s 19
f 9/4/123 52/75/124 50/72/125 5/7/126
f 5/10/126 50/72/125 45/68/116 42/65/115
s 8
f 3/3/41 38/82/127 46/77/128 49/74/42
s 9
f 53/79/129 12/32/43 16/29/65 15/28/130
s 15
f 27/43/98 51/80/131 53/78/132 15/28/133
f 49/81/134 51/80/131 27/43/98 13/27/97
s 11
f 8/30/52 49/81/135 13/27/94 14/26/59
s 18
f 39/60/111 40/61/110 7/12/136 48/71/137
