# This file uses centimeters as units for non-parametric coordinates.

g default
v -406.247681 0.058908 2.079882
v -405.922424 0.058908 2.079882
v -406.247681 0.362260 2.094927
v -405.922424 0.362260 2.094927
v -406.247681 1.027255 -0.094926
v -405.922424 1.027255 -0.094926
v -406.247681 0.058908 -0.094926
v -405.922424 0.058908 -0.094926
v -406.247681 1.013343 0.190512
v -406.247681 0.057611 0.234096
v -405.922424 0.057611 0.234096
v -405.922424 1.013343 0.190512
v -408.915222 0.063356 2.060510
v -406.177734 0.063356 2.060510
v -408.915222 0.257153 2.060510
v -406.177734 0.257153 2.060510
v -408.915222 0.920129 -0.094926
v -406.177734 0.920129 -0.094926
v -408.915222 0.063356 -0.094926
v -406.177734 0.063356 -0.094926
v -408.915222 0.906217 0.234096
v -408.915222 0.062060 0.234096
v -406.177734 0.062060 0.234096
v -406.177734 0.906217 0.234096
v -409.163879 0.058908 2.079882
v -408.838623 0.058908 2.079882
v -409.163879 0.362260 2.094927
v -408.838623 0.362260 2.094927
v -409.163879 1.027255 -0.094926
v -408.838623 1.027255 -0.094926
v -409.163879 0.058908 -0.094926
v -408.838623 0.058908 -0.094926
v -409.163879 1.013343 0.190512
v -409.163879 0.057611 0.234096
v -408.838623 0.057611 0.234096
v -408.838623 1.013343 0.190512
vt 0.375000 0.000000
vt 0.625000 0.000000
vt 0.375000 0.250000
vt 0.625000 0.250000
vt 0.375000 0.500000
vt 0.625000 0.500000
vt 0.375000 0.750000
vt 0.625000 0.750000
vt 0.375000 1.000000
vt 0.625000 1.000000
vt 0.875000 0.000000
vt 0.875000 0.250000
vt 0.125000 0.000000
vt 0.125000 0.250000
vt 0.188308 0.250000
vt 0.375000 0.436692
vt 0.188308 0.000000
vt 0.375000 0.813308
vt 0.625000 0.813308
vt 0.811692 0.000000
vt 0.625000 0.436692
vt 0.811692 0.250000
vt 0.375000 0.000000
vt 0.625000 0.000000
vt 0.625000 0.250000
vt 0.375000 0.250000
vt 0.625000 0.436692
vt 0.375000 0.436692
vt 0.375000 0.500000
vt 0.625000 0.500000
vt 0.625000 0.750000
vt 0.375000 0.750000
vt 0.375000 0.813308
vt 0.625000 0.813308
vt 0.625000 1.000000
vt 0.375000 1.000000
vt 0.811692 0.000000
vt 0.811692 0.250000
vt 0.188308 0.000000
vt 0.188308 0.250000
vt 0.125000 0.000000
vt 0.125000 0.250000
vt 0.875000 0.000000
vt 0.875000 0.250000
vt 0.375000 0.000000
vt 0.625000 0.000000
vt 0.625000 0.250000
vt 0.375000 0.250000
vt 0.625000 0.436692
vt 0.375000 0.436692
vt 0.375000 0.500000
vt 0.625000 0.500000
vt 0.625000 0.750000
vt 0.375000 0.750000
vt 0.375000 0.813308
vt 0.625000 0.813308
vt 0.625000 1.000000
vt 0.375000 1.000000
vt 0.811692 0.000000
vt 0.811692 0.250000
vt 0.188308 0.000000
vt 0.188308 0.250000
vt 0.125000 0.000000
vt 0.125000 0.250000
vt 0.875000 0.000000
vt 0.875000 0.250000
vn 0.000000 -0.049538 0.998772
vn 0.000000 -0.049538 0.998772
vn 0.000000 -0.049538 0.998772
vn 0.000000 -0.049538 0.998772
vn 0.000000 0.946223 0.323515
vn 0.000000 0.946223 0.323515
vn 0.000000 0.982179 0.187949
vn 0.000000 0.982179 0.187949
vn 0.000000 0.000000 -1.000000
vn 0.000000 0.000000 -1.000000
vn 0.000000 0.000000 -1.000000
vn 0.000000 0.000000 -1.000000
vn 0.000000 -0.999999 -0.001619
vn 0.000000 -0.999999 -0.001619
vn 0.000000 -1.000000 0.000702
vn 0.000000 -1.000000 0.000702
vn 1.000000 0.000006 0.000000
vn 1.000000 0.000016 0.000000
vn 1.000000 0.000016 0.000000
vn 1.000000 0.000006 0.000000
vn -1.000000 0.000017 0.000000
vn -1.000000 0.000008 0.000000
vn -1.000000 0.000008 0.000000
vn -1.000000 0.000017 0.000000
vn -1.000000 0.000026 0.000000
vn -1.000000 0.000026 0.000000
vn 0.000000 -0.999992 -0.003940
vn 0.000000 -0.999992 -0.003940
vn 1.000000 0.000026 0.000000
vn 1.000000 0.000026 0.000000
vn 0.000000 0.998814 0.048686
vn 0.000000 0.998814 0.048686
vn 0.000000 0.000000 1.000000
vn 0.000000 0.000000 1.000000
vn 0.000000 0.000000 1.000000
vn 0.000000 0.000000 1.000000
vn 0.000000 0.942268 0.334861
vn 0.000000 0.942268 0.334861
vn 0.000000 0.981651 0.190684
vn 0.000000 0.981651 0.190684
vn 0.000000 0.000000 -1.000000
vn 0.000000 0.000000 -1.000000
vn 0.000000 0.000000 -1.000000
vn 0.000000 0.000000 -1.000000
vn 0.000000 -0.999999 -0.001615
vn 0.000000 -0.999999 -0.001615
vn 0.000000 -1.000000 0.000710
vn 0.000000 -1.000000 0.000710
vn 1.000000 0.000000 0.000000
vn 1.000000 0.000000 0.000000
vn 1.000000 0.000000 0.000000
vn 1.000000 0.000000 0.000000
vn -1.000000 0.000000 0.000000
vn -1.000000 0.000000 0.000000
vn -1.000000 0.000000 0.000000
vn -1.000000 0.000000 0.000000
vn -1.000000 0.000000 0.000000
vn -1.000000 0.000000 0.000000
vn 0.000000 -0.999992 -0.003940
vn 0.000000 -0.999992 -0.003940
vn 1.000000 0.000000 0.000000
vn 1.000000 0.000000 0.000000
vn 0.000000 0.999107 0.042247
vn 0.000000 0.999107 0.042247
vn 0.000000 -0.049538 0.998772
vn 0.000000 -0.049538 0.998772
vn 0.000000 -0.049538 0.998772
vn 0.000000 -0.049538 0.998772
vn 0.000000 0.946223 0.323515
vn 0.000000 0.946223 0.323515
vn 0.000000 0.982179 0.187947
vn 0.000000 0.982179 0.187947
vn 0.000000 0.000000 -1.000000
vn 0.000000 0.000000 -1.000000
vn 0.000000 0.000000 -1.000000
vn 0.000000 0.000000 -1.000000
vn 0.000000 -0.999999 -0.001619
vn 0.000000 -0.999999 -0.001619
vn 0.000000 -1.000000 0.000702
vn 0.000000 -1.000000 0.000702
vn 1.000000 0.000015 0.000000
vn 1.000000 -0.000006 0.000000
vn 1.000000 -0.000006 0.000000
vn 1.000000 0.000015 0.000000
vn -1.000000 0.000015 0.000000
vn -1.000000 0.000029 0.000000
vn -1.000000 0.000029 0.000000
vn -1.000000 0.000015 0.000000
vn -1.000000 0.000000 0.000000
vn -1.000000 0.000000 0.000000
vn 0.000000 -0.999992 -0.003940
vn 0.000000 -0.999992 -0.003940
vn 1.000000 -0.000026 0.000000
vn 1.000000 -0.000026 0.000000
vn 0.000000 0.998814 0.048682
vn 0.000000 0.998814 0.048682
s off
g polySurface23196
f 1/1/1 2/2/2 4/4/3 3/3/4
s 2
f 3/3/5 4/4/6 12/21/7 9/16/8
s off
f 5/5/9 6/6/10 8/8/11 7/7/12
s 4
f 10/18/13 11/19/14 2/10/15 1/9/16
s 5
f 2/2/17 11/20/18 12/22/19 4/4/20
s 6
f 10/17/21 1/1/22 3/3/23 9/15/24
f 7/13/25 10/17/21 9/15/24 5/14/26
s 4
f 7/7/27 8/8/28 11/19/14 10/18/13
s 5
f 12/22/19 11/20/18 8/11/29 6/12/30
s 2
f 9/16/8 12/21/7 6/6/31 5/5/32
s off
f 13/23/33 14/24/34 16/25/35 15/26/36
s 8
f 15/26/37 16/25/38 24/27/39 21/28/40
s off
f 17/29/41 18/30/42 20/31/43 19/32/44
s 10
f 22/33/45 23/34/46 14/35/47 13/36/48
s 11
f 14/24/49 23/37/50 24/38/51 16/25/52
s 12
f 22/39/53 13/23/54 15/26/55 21/40/56
f 19/41/57 22/39/53 21/40/56 17/42/58
s 10
f 19/32/59 20/31/60 23/34/46 22/33/45
s 11
f 24/38/51 23/37/50 20/43/61 18/44/62
s 8
f 21/28/40 24/27/39 18/30/63 17/29/64
s off
f 25/45/65 26/46/66 28/47/67 27/48/68
s 14
f 27/48/69 28/47/70 36/49/71 33/50/72
s off
f 29/51/73 30/52/74 32/53/75 31/54/76
s 16
f 34/55/77 35/56/78 26/57/79 25/58/80
s 17
f 26/46/81 35/59/82 36/60/83 28/47/84
s 18
f 34/61/85 25/45/86 27/48/87 33/62/88
f 31/63/89 34/61/85 33/62/88 29/64/90
s 16
f 31/54/91 32/53/92 35/56/78 34/55/77
s 17
f 36/60/83 35/59/82 32/65/93 30/66/94
s 14
f 33/50/72 36/49/71 30/52/95 29/51/96
