# This file uses centimeters as units for non-parametric coordinates.

g default
v -366.555908 0.052902 2.039398
v -366.555298 1.028180 -0.040649
v -366.555298 0.052902 -0.040649
v -364.476166 1.028180 1.982407
v -364.476166 0.052902 1.982407
v -364.475281 1.028180 0.016922
v -364.475281 0.052902 0.016922
v -366.555908 2.003459 2.039398
v -366.555298 2.003459 -0.040649
v -364.476166 2.003459 1.982407
v -364.475281 2.003459 0.016922
v -368.634949 1.028180 -0.030579
v -368.635162 0.052901 2.049103
v -368.634949 0.052901 -0.030579
v -368.634949 2.003459 -0.030579
v -366.556824 1.028180 2.039551
v -368.636536 1.028180 2.028137
v -368.636536 0.052901 2.028137
v -368.636536 2.003459 2.028137
v -370.716156 1.028180 2.038208
v -370.715576 0.052902 2.037994
v -372.795532 1.028180 1.968102
v -372.795532 0.052902 1.968102
v -370.715576 2.003459 2.037994
v -372.795532 2.003459 1.968102
v -370.714661 1.028180 -0.041962
v -370.714661 0.052902 -0.041962
v -372.794434 1.028180 0.027840
v -372.794434 0.052902 0.027840
v -370.714661 2.003459 -0.041962
v -372.794434 2.003459 0.027840
v -364.392853 1.992710 2.132736
v -364.392853 2.061007 2.132736
v -364.392822 2.061007 1.749290
v -364.392822 1.992710 1.749290
v -364.811798 2.061769 1.749290
v -364.808411 1.993469 2.135620
v -364.811798 2.061766 2.135620
v -364.811157 2.061957 0.252892
v -364.394135 2.061766 0.252892
v -364.394135 1.993469 0.251312
v -364.487396 1.993659 0.250290
v -364.491760 1.992710 1.749290
v -364.808990 1.993469 2.048409
v -364.488403 1.994232 2.054108
v -366.547546 2.062525 2.139122
v -366.547546 1.994228 2.139122
v -366.547485 2.062525 1.749008
v -366.547546 1.994228 2.047058
v -368.634918 2.062525 2.139603
v -368.634918 1.994228 2.139603
v -368.639709 2.062715 1.749672
v -368.634918 1.994607 2.048759
v -368.635223 2.062809 0.252052
v -366.546326 2.062335 0.252319
v -372.869019 1.992710 2.138527
v -372.869019 2.061007 2.138527
v -372.456848 2.061007 2.138565
v -372.456848 1.992710 2.138565
v -372.456848 2.061769 1.748764
v -372.872101 1.993469 1.751923
v -372.872101 2.061766 1.748764
v -370.722260 2.062146 1.749435
v -370.722260 2.061766 2.139015
v -370.722260 1.993469 2.139015
v -370.722260 1.994607 2.049881
v -372.456848 1.992710 2.046501
v -372.775513 1.993469 1.751366
v -372.778809 1.994232 2.049637
v -372.875610 2.061766 0.251846
v -372.875610 1.993469 0.251846
v -372.456421 2.062147 0.251869
v -372.776611 1.993469 0.251846
v -370.721130 2.062525 0.252335
v -372.875275 1.992710 -0.132744
v -372.875275 2.061007 -0.132744
v -372.459686 1.993469 -0.135620
v -372.456299 2.061766 -0.135620
v -372.459106 1.993469 -0.048019
v -372.779724 1.994232 -0.053329
v -370.720551 2.062525 -0.139130
v -370.720551 1.994228 -0.139130
v -370.720551 1.994228 -0.047058
v -368.633148 2.062525 -0.139603
v -368.633148 1.994228 -0.139603
v -368.633148 1.994607 -0.048759
v -364.399048 1.992710 -0.138527
v -364.399048 2.061007 -0.138527
v -364.811218 2.061007 -0.138573
v -364.811218 1.992710 -0.138573
v -366.545837 2.061766 -0.139023
v -366.545837 1.993469 -0.139023
v -366.545837 1.994607 -0.049889
v -364.811218 1.992710 -0.046509
v -364.482666 1.994232 -0.049637
v -364.547333 2.003459 -0.040245
v -364.547333 1.028180 -0.040245
v -364.547333 0.052902 -0.040245
v -364.548218 0.052902 2.039543
v -364.548248 1.028180 2.039551
v -364.548218 2.003459 2.039543
v -364.501343 2.003459 -0.024109
v -364.501343 1.028180 -0.024109
v -364.501343 0.052902 -0.024109
v -364.502258 0.052902 2.023430
v -364.502258 1.028180 2.023430
v -364.502258 2.003459 2.023430
v -372.702667 2.003459 2.037910
v -372.702698 1.028180 2.037918
v -372.702667 0.052902 2.037910
v -372.701599 0.052902 -0.041962
v -372.701599 1.028180 -0.041962
v -372.701599 2.003459 -0.041962
v -372.765717 2.003459 2.023918
v -372.765747 1.028180 2.023926
v -372.765717 0.052902 2.023918
v -372.764648 0.052902 -0.027977
v -372.764648 1.028180 -0.027977
v -372.764648 2.003459 -0.027977
vt 0.000000 0.322036
vt 0.000000 1.000000
vt 0.678011 1.000000
vt 0.678011 0.322036
vt 0.678011 0.322036
vt 0.678011 1.000000
vt 0.000000 1.000000
vt 0.000000 0.322036
vt 0.000855 0.001086
vt 0.677156 0.001086
vt 0.677156 0.317870
vt 0.677156 0.317870
vt 0.000855 0.317870
vt 0.677156 0.001086
vt 0.677156 0.317870
vt 0.677156 0.001086
vt 0.000855 0.001086
vt 0.000855 0.001086
vt 0.677156 0.001086
vt 0.000855 0.317870
vt 0.677156 0.001086
vt 0.000855 0.001086
vt 0.000855 0.001086
vt 0.677156 0.001086
vt 0.677156 0.317870
vt 0.000855 0.317870
vt 0.677156 0.317870
vt 0.000855 0.317870
vt 0.000855 0.317870
vt 0.000855 0.001086
vt 0.000855 0.317870
vt 0.000855 0.001086
vt 0.677156 0.317870
vt 0.000855 0.317870
vt 0.000855 0.001086
vt 0.677156 0.001086
vt 0.000855 0.317870
vt 0.677156 0.001086
vt 0.000855 0.001086
vt 0.677156 0.317870
vt 0.677156 0.001086
vt 0.000855 0.001086
vt 0.000855 0.317870
vt 0.677156 0.317870
vt 0.677156 0.317870
vt 0.677156 0.001086
vt 0.000855 0.001086
vt 0.677156 0.001086
vt 0.677156 0.317870
vt 0.677156 0.317870
vt 0.000855 0.317870
vt 0.677156 0.001086
vt 0.677156 0.317870
vt 0.000855 0.001086
vt 0.677156 0.001086
vt 0.000855 0.317870
vt 0.000855 0.001086
vt 0.677156 0.001086
vt 0.677156 0.317870
vt 0.000855 0.317870
vt 0.000855 0.317870
vt 0.000855 0.001086
vt 0.000000 0.322036
vt 0.000000 1.000000
vt 0.678011 1.000000
vt 0.678011 0.322036
vt 0.000855 0.317870
vt 0.000855 0.001086
vt 0.677156 0.317870
vt 0.000000 0.322036
vt 0.000000 1.000000
vt 0.678011 1.000000
vt 0.678011 0.322036
vt 0.000855 0.317870
vt 0.000855 0.001086
vt 0.677156 0.001086
vt 0.000855 0.317870
vt 0.677156 0.001086
vt 0.000855 0.001086
vt 0.677156 0.317870
vt 0.677156 0.001086
vt 0.000855 0.001086
vt 0.677156 0.317870
vt 0.000855 0.317870
vt 0.000855 0.317870
vt 0.677156 0.317870
vt 0.677156 0.317870
vt 0.677156 0.001086
vt 0.000855 0.317870
vt 0.677156 0.317870
vt 0.000855 0.001086
vt 0.677156 0.001086
vt 0.677156 0.317870
vt 0.000855 0.317870
vt 0.000855 0.001086
vt 0.677156 0.001086
vt 0.903585 0.065745
vt 0.932815 0.065745
vt 0.932817 0.249916
vt 0.903655 0.250496
vt 0.903585 0.036422
vt 0.734896 0.036422
vt 0.734896 0.007293
vt 0.903585 0.007293
vt 0.734925 0.250108
vt 0.734896 0.065745
vt 0.903585 0.984793
vt 0.734896 0.984262
vt 0.932815 0.984888
vt 0.961182 0.242181
vt 0.961229 0.984982
vt 0.961229 0.065745
vt 0.903585 0.984793
vt 0.734896 0.984262
vt 0.734925 0.250108
vt 0.903655 0.250496
vt 0.932817 0.249916
vt 0.961182 0.242181
vt 0.961229 0.984982
vt 0.932815 0.984888
vt 0.903585 0.984793
vt 0.734896 0.984262
vt 0.734925 0.250108
vt 0.903655 0.250496
vt 0.932817 0.249916
vt 0.961182 0.242181
vt 0.961229 0.984982
vt 0.932815 0.984888
vt 0.000000 0.575432
vt 0.677219 0.575432
vt 0.677219 0.990616
vt 0.000000 0.990616
vt 0.000000 0.575432
vt 0.677219 0.575432
vt 0.677219 0.990616
vt 0.000000 0.990616
vt 0.734896 0.065745
vt 0.734896 0.036422
vt 0.903585 0.036422
vt 0.903585 0.065745
vt 0.903655 0.250496
vt 0.932817 0.249916
vt 0.932815 0.984888
vt 0.903585 0.984793
vt 0.903655 0.250496
vt 0.932817 0.249916
vt 0.932815 0.984888
vt 0.903585 0.984793
vt 0.903585 0.065745
vt 0.932815 0.065745
vt 0.932817 0.249916
vt 0.903655 0.250496
vt 0.903585 0.036422
vt 0.734896 0.036422
vt 0.734896 0.007293
vt 0.903585 0.007293
vt 0.734925 0.250108
vt 0.734896 0.065745
vt 0.903585 0.984793
vt 0.734896 0.984262
vt 0.932815 0.984888
vt 0.961182 0.242181
vt 0.961229 0.984982
vt 0.961229 0.065745
vt 0.903585 0.984793
vt 0.734896 0.984262
vt 0.734925 0.250108
vt 0.903655 0.250496
vt 0.932817 0.249916
vt 0.932815 0.984888
vt 0.961182 0.242181
vt 0.961229 0.984982
vt 0.903585 0.984793
vt 0.734896 0.984262
vt 0.734925 0.250108
vt 0.903655 0.250496
vt 0.932817 0.249916
vt 0.961182 0.242181
vt 0.961229 0.984982
vt 0.932815 0.984888
vt 0.000000 0.575432
vt 0.677219 0.575432
vt 0.677219 0.990616
vt 0.000000 0.990616
vt 0.000000 0.990616
vt 0.000000 0.575432
vt 0.677219 0.575432
vt 0.677219 0.990616
vt 0.734896 0.065745
vt 0.734896 0.036422
vt 0.903585 0.036422
vt 0.903585 0.065745
vt 0.903655 0.250496
vt 0.932817 0.249916
vt 0.932815 0.984888
vt 0.903585 0.984793
vt 0.903585 0.065745
vt 0.932815 0.065745
vt 0.932817 0.249916
vt 0.903655 0.250496
vt 0.903585 0.036422
vt 0.734896 0.036422
vt 0.734896 0.007293
vt 0.903585 0.007293
vt 0.734925 0.250108
vt 0.734896 0.065745
vt 0.961229 0.065745
vt 0.961182 0.242181
vt 0.903585 0.984793
vt 0.734896 0.984262
vt 0.734925 0.250108
vt 0.903655 0.250496
vt 0.932817 0.249916
vt 0.961182 0.242181
vt 0.961229 0.984982
vt 0.932815 0.984888
vt 0.903585 0.984793
vt 0.734896 0.984262
vt 0.734925 0.250108
vt 0.903655 0.250496
vt 0.932817 0.249916
vt 0.961182 0.242181
vt 0.961229 0.984982
vt 0.932815 0.984888
vt 0.734896 0.065745
vt 0.734896 0.036422
vt 0.903585 0.036422
vt 0.903585 0.065745
vt 0.903655 0.250496
vt 0.932817 0.249916
vt 0.932815 0.984888
vt 0.903585 0.984793
vt 0.903655 0.250496
vt 0.932817 0.249916
vt 0.932815 0.984888
vt 0.903585 0.984793
vt 0.903585 0.065745
vt 0.932815 0.065745
vt 0.932817 0.249916
vt 0.903655 0.250496
vt 0.903585 0.036422
vt 0.734896 0.036422
vt 0.734896 0.007293
vt 0.903585 0.007293
vt 0.734925 0.250108
vt 0.734896 0.065745
vt 0.903585 0.984793
vt 0.734896 0.984262
vt 0.932815 0.984888
vt 0.961182 0.242181
vt 0.961229 0.984982
vt 0.961229 0.065745
vt 0.903585 0.984793
vt 0.734896 0.984262
vt 0.734925 0.250108
vt 0.903655 0.250496
vt 0.932817 0.249916
vt 0.932815 0.984888
vt 0.961182 0.242181
vt 0.961229 0.984982
vt 0.734896 0.065745
vt 0.734896 0.036422
vt 0.903585 0.036422
vt 0.903585 0.065745
vt 0.035742 0.317870
vt 0.035742 0.317870
vt 0.035742 0.001086
vt 0.000000 0.965028
vt 0.035742 0.001086
vt 0.642269 0.001086
vt 0.678011 0.965028
vt 0.642269 0.317870
vt 0.642269 0.001086
vt 0.642269 0.317870
vt 0.016783 0.317870
vt 0.016783 0.317870
vt 0.016783 0.001086
vt 0.000000 0.984033
vt 0.016783 0.001086
vt 0.661228 0.001086
vt 0.678011 0.984033
vt 0.661228 0.317870
vt 0.661228 0.001086
vt 0.661228 0.317870
vt 0.043192 0.317870
vt 0.043192 0.317870
vt 0.043192 0.001086
vt 0.042444 0.322036
vt 0.043192 0.001086
vt 0.042444 1.000000
vt 0.634819 0.001086
vt 0.634819 0.317870
vt 0.634819 0.001086
vt 0.634819 0.317870
vt 0.022690 0.317870
vt 0.022690 0.317870
vt 0.022690 0.001086
vt 0.021889 0.322036
vt 0.022690 0.001086
vt 0.021889 1.000000
vt 0.655322 0.001086
vt 0.655322 0.317870
vt 0.655322 0.001086
vt 0.655322 0.317870
vn 0.000000 -1.000000 0.000000
vn 0.000000 -1.000000 0.000000
vn 0.000000 -1.000000 0.000000
vn 0.000000 -1.000000 0.000000
vn 0.960089 0.000000 0.279694
vn 0.960089 0.000000 0.279694
vn 0.960301 0.000000 -0.278967
vn 0.960301 0.000000 -0.278967
vn 0.168021 0.000000 -0.985783
vn -0.002321 0.000000 -0.999997
vn -0.002321 0.000000 -0.999997
vn 0.168021 0.000000 -0.985783
vn 0.000000 -1.000000 -0.000000
vn 0.000000 -1.000000 -0.000000
vn 0.000315 0.000000 -1.000000
vn 0.000315 0.000000 -1.000000
vn -0.002321 0.000000 -0.999997
vn 0.168021 0.000000 -0.985783
vn 0.000315 0.000000 -1.000000
vn -0.002743 -0.000082 0.999996
vn -0.002743 -0.000000 0.999996
vn -0.000329 -0.000000 1.000000
vn -0.000329 -0.000095 1.000000
vn -0.000329 0.000095 1.000000
vn -0.002743 0.000082 0.999996
vn 0.167774 -0.000000 0.985826
vn 0.167774 0.000042 0.985826
vn 0.167774 -0.000042 0.985826
vn -0.109023 0.000000 0.994039
vn 0.002349 0.000000 0.999997
vn 0.002349 0.000111 0.999997
vn -0.109023 0.000066 0.994039
vn 0.002349 -0.000111 0.999997
vn -0.109023 -0.000066 0.994039
vn -0.000000 -1.000000 -0.000000
vn -0.000000 -1.000000 -0.000000
vn 0.002737 0.000000 -0.999996
vn 0.002737 0.000000 -0.999996
vn 0.000000 -1.000000 0.000000
vn 0.000000 -1.000000 0.000000
vn 0.002737 0.000000 -0.999996
vn -0.970046 0.000000 -0.242920
vn -0.970046 0.000000 -0.242920
vn -0.970161 0.000000 0.242460
vn -0.970161 0.000000 0.242461
vn -0.108919 0.000000 -0.994051
vn -0.108919 0.000000 -0.994051
vn -0.108919 0.000000 -0.994051
vn -0.970046 0.000000 -0.242920
vn -0.970161 0.000000 0.242460
vn 1.000000 0.000000 0.000080
vn 1.000000 0.000000 0.000080
vn 1.000000 0.000000 -0.000398
vn 1.000000 0.000000 -0.000398
vn -0.004347 -0.999985 -0.003473
vn -0.000198 -0.999989 -0.004598
vn -0.000198 -0.999989 -0.004598
vn -0.004347 -0.999985 -0.003473
vn 0.000929 1.000000 0.000081
vn 0.001125 0.999999 0.000003
vn 0.001814 0.999998 0.000003
vn 0.001477 0.999999 0.000160
vn 0.000685 0.999999 -0.000934
vn 0.000506 0.999999 -0.000952
vn 0.999977 0.000000 -0.006727
vn 0.999977 0.000000 -0.006727
vn -0.004859 -0.999988 0.000841
vn -0.004859 -0.999988 0.000841
vn -0.005262 -0.999986 -0.000149
vn -0.005262 -0.999986 -0.000149
vn 0.000242 1.000000 0.000054
vn 0.000241 1.000000 0.000123
vn -0.000264 -1.000000 -0.001034
vn -0.000264 -1.000000 -0.001034
vn -0.000080 1.000000 0.000275
vn -0.000137 1.000000 0.000488
vn 0.000044 -0.999986 -0.005249
vn 0.000044 -0.999986 -0.005249
vn 0.000277 1.000000 -0.000765
vn 0.000045 1.000000 -0.000332
vn 0.004464 0.000109 0.999990
vn 0.004464 0.000109 0.999990
vn 0.006912 0.000167 0.999976
vn 0.006912 0.000167 0.999976
vn 0.001123 0.000025 0.999999
vn 0.001123 0.000025 0.999999
vn -0.000026 0.000000 1.000000
vn -0.000026 0.000000 1.000000
vn -0.000092 0.000000 1.000000
vn -0.000092 0.000000 1.000000
vn -0.000176 0.000000 1.000000
vn -0.000176 0.000000 1.000000
vn 0.003019 -0.999984 -0.004728
vn 0.004075 -0.999992 0.000004
vn 0.004075 -0.999992 0.000004
vn 0.003019 -0.999984 -0.004728
vn -0.000252 1.000000 0.000948
vn -0.000231 0.999999 0.001038
vn -0.000002 0.999998 0.001950
vn -0.000165 0.999999 0.001707
vn -0.000323 0.999999 0.001098
vn -0.000267 1.000000 0.000652
vn -0.000270 0.000000 1.000000
vn -0.000270 0.000000 1.000000
vn -0.000670 -0.999969 -0.007873
vn -0.000670 -0.999969 -0.007873
vn 0.000477 -0.999973 -0.007354
vn 0.000477 -0.999973 -0.007354
vn -0.000592 1.000000 -0.000396
vn -0.000912 0.999999 -0.000675
vn 0.003920 -0.999992 -0.000018
vn 0.003920 -0.999992 -0.000018
vn -0.000205 1.000000 -0.000110
vn -0.999987 0.000586 0.005141
vn -0.999987 0.000586 0.005141
vn -0.999968 0.000576 0.007940
vn -0.999968 0.000576 0.007940
vn -1.000000 0.000298 0.000735
vn -1.000000 0.000298 0.000735
vn -1.000000 0.000000 -0.000873
vn -1.000000 0.000000 -0.000873
vn 0.003902 -0.999982 0.004549
vn 0.000200 -0.999990 0.004566
vn 0.000200 -0.999990 0.004566
vn 0.003902 -0.999982 0.004549
vn -0.000846 0.999999 -0.000982
vn -0.001365 0.999998 -0.001476
vn -0.000198 1.000000 -0.000426
vn 0.000264 -1.000000 0.001034
vn 0.000264 -1.000000 0.001034
vn 0.000114 1.000000 -0.000726
vn -0.000044 -0.999986 0.005249
vn -0.000044 -0.999986 0.005249
vn -0.004457 0.000110 -0.999990
vn -0.004457 0.000110 -0.999990
vn -0.006893 0.000172 -0.999976
vn -0.006893 0.000172 -0.999976
vn -0.001123 0.000025 -0.999999
vn -0.001123 0.000025 -0.999999
vn 0.000026 0.000000 -1.000000
vn 0.000026 0.000000 -1.000000
vn 0.000111 0.000000 -1.000000
vn 0.000111 0.000000 -1.000000
vn 0.000185 0.000000 -1.000000
vn 0.000185 0.000000 -1.000000
vn -0.003724 -0.999981 0.004825
vn -0.003724 -0.999981 0.004825
vn 0.000230 0.999998 -0.002185
vn 0.000279 0.999998 -0.002063
vn 0.000312 0.999999 -0.001515
vn 0.000269 0.000000 -1.000000
vn 0.000269 0.000000 -1.000000
vn 0.000660 -0.999969 0.007830
vn 0.000660 -0.999969 0.007830
vn -0.000477 -0.999973 0.007354
vn -0.000477 -0.999973 0.007354
vn 0.999921 0.000000 -0.012577
vn 0.999921 0.000000 -0.012577
vn 0.960301 0.000000 -0.278967
vn 1.000000 0.000000 0.000450
vn 0.621908 0.000000 -0.783091
vn 0.621908 0.000000 -0.783091
vn 0.621908 0.000000 -0.783091
vn 0.000000 -1.000000 0.000000
vn 0.000000 -1.000000 0.000000
vn 0.621563 0.000000 0.783364
vn 0.621563 0.000000 0.783364
vn 0.621564 0.000000 0.783364
vn 0.000000 -1.000000 0.000000
vn 0.000000 -1.000000 0.000000
vn 0.843784 0.000000 0.536682
vn -0.604714 -0.000000 0.796443
vn -0.604714 0.000009 0.796443
vn -0.604715 -0.000009 0.796442
vn 0.000000 -1.000000 0.000000
vn 0.000000 -1.000000 0.000000
vn -0.604742 0.000000 -0.796422
vn -0.604742 0.000000 -0.796421
vn -0.604742 0.000000 -0.796421
vn 0.000000 -1.000000 0.000000
vn 0.000000 -1.000000 0.000000
s 1
g polySurface23291
f 3/1/1 98/268/2 99/271/3 1/4/4
s 2
f 4/89/5 5/17/6 7/16/7 6/90/8
f 97/267/9 2/24/10 9/25/11 96/265/12
s 1
f 1/5/4 13/6/13 14/7/14 3/8/1
s 2
f 14/14/15 12/12/16 2/13/10 3/30/17
f 98/269/18 3/19/17 2/15/10 97/266/9
f 15/11/19 9/29/11 2/9/10 12/10/16
f 1/46/20 16/33/21 17/31/22 18/32/23
f 19/34/24 17/35/22 16/36/21 8/45/25
f 8/43/25 16/42/21 100/273/26 101/274/27
f 16/37/21 1/39/20 99/270/28 100/272/26
f 109/287/29 20/58/30 24/59/31 108/285/32
f 18/52/23 17/50/22 20/51/30 21/62/33
f 110/289/34 21/55/33 20/53/30 109/286/29
f 19/49/24 24/61/31 20/47/30 17/48/22
s 1
f 21/63/35 27/64/36 14/65/14 13/66/13
s 2
f 27/88/37 26/69/38 12/67/16 14/68/15
s 1
f 110/288/39 111/290/40 27/72/36 21/73/35
s 2
f 15/74/19 12/75/16 26/76/38 30/87/41
f 31/84/42 28/95/43 22/96/44 25/83/45
f 30/85/41 26/82/38 112/293/46 113/294/47
f 26/77/38 27/79/37 111/291/48 112/292/46
f 28/94/43 29/91/49 23/92/50 22/93/44
s 3
f 33/97/51 32/98/52 35/99/53 34/100/54
s 4
f 32/101/55 37/102/56 44/103/57 45/104/58
s 5
f 36/105/59 38/106/60 33/97/61 34/100/62
f 40/107/63 39/108/64 36/105/59 34/100/62
s 3
f 34/100/54 35/99/53 41/109/65 40/107/66
s 4
f 35/99/67 43/110/68 42/111/69 41/109/70
f 35/99/67 32/98/55 45/112/58 43/110/68
s 5
f 38/113/60 36/114/59 48/115/71 46/116/72
s 4
f 47/117/73 49/118/74 44/119/57 37/120/56
s 5
f 46/121/72 48/122/71 52/123/75 50/124/76
s 4
f 51/125/77 53/126/78 49/127/74 47/128/73
s 5
f 48/129/71 36/130/59 39/131/64 55/132/79
f 52/133/75 48/134/71 55/135/79 54/136/80
s 6
f 38/137/81 37/138/82 32/139/83 33/140/84
f 46/141/85 47/142/86 37/143/82 38/144/81
f 50/145/87 51/146/88 47/147/86 46/148/85
f 57/149/89 56/150/90 59/151/91 58/152/92
s 4
f 56/153/93 61/154/94 68/155/95 69/156/96
s 5
f 60/157/97 62/158/98 57/149/99 58/152/100
f 64/159/101 63/160/102 60/157/97 58/152/100
s 6
f 58/152/92 59/151/91 65/161/103 64/159/104
s 4
f 59/151/105 67/162/106 66/163/107 65/161/108
f 59/151/105 56/150/93 69/164/96 67/162/106
s 5
f 50/165/76 52/166/75 63/167/102 64/168/101
s 6
f 64/168/104 65/169/103 51/170/88 50/165/87
s 4
f 65/169/108 66/171/107 53/172/78 51/170/77
s 5
f 62/173/98 60/174/97 72/175/109 70/176/110
s 4
f 71/177/111 73/178/112 68/179/95 61/180/94
s 5
f 63/181/102 52/182/75 54/183/80 74/184/113
f 72/185/109 60/186/97 63/187/102 74/188/113
s 7
f 62/189/114 61/190/115 56/191/116 57/192/117
f 70/193/118 71/194/119 61/195/115 62/196/114
f 76/197/120 75/198/121 71/199/119 70/200/118
s 4
f 75/201/122 77/202/123 79/203/124 80/204/125
s 5
f 72/205/109 78/206/126 76/197/127 70/200/110
s 4
f 71/199/111 75/198/122 80/207/125 73/208/112
s 5
f 78/209/126 72/210/109 74/211/113 81/212/128
s 4
f 82/213/129 83/214/130 79/215/124 77/216/123
s 5
f 81/217/128 74/218/113 54/219/80 84/220/131
s 4
f 85/221/132 86/222/133 83/223/130 82/224/129
s 8
f 78/225/134 77/226/135 75/227/136 76/228/137
f 81/229/138 82/230/139 77/231/135 78/232/134
f 84/233/140 85/234/141 82/235/139 81/236/138
f 88/237/142 87/238/143 90/239/144 89/240/145
s 4
f 87/241/146 41/242/70 42/243/69 95/244/147
s 5
f 39/245/64 40/246/63 88/237/148 89/240/149
f 91/247/150 55/248/79 39/245/64 89/240/149
s 8
f 89/240/145 90/239/144 92/249/151 91/247/152
s 4
f 90/239/153 94/250/154 93/251/155 92/249/156
f 90/239/153 87/238/146 95/252/147 94/250/154
s 5
f 84/253/131 54/254/80 55/255/79 91/256/150
s 8
f 91/256/152 92/257/151 85/258/141 84/253/140
s 4
f 92/257/156 93/259/155 86/260/133 85/258/132
s 3
f 40/261/66 41/262/65 87/263/157 88/264/158
s 2
f 6/21/8 11/27/159 10/28/160 4/22/5
f 103/277/161 97/267/9 96/265/12 102/275/162
f 104/279/163 98/269/18 97/266/9 103/276/161
s 1
f 99/271/3 98/268/2 104/278/164 105/281/165
s 2
f 100/272/26 99/270/28 105/280/166 106/282/167
f 101/274/27 100/273/26 106/283/167 107/284/168
f 6/23/8 103/277/161 102/275/162 11/26/159
f 7/18/7 104/279/163 103/276/161 6/20/8
s 1
f 105/281/165 104/278/164 7/2/169 5/3/170
s 2
f 106/282/167 105/280/166 5/38/6 4/40/5
f 107/284/168 106/283/167 4/41/5 10/44/171
f 115/297/172 109/287/29 108/285/32 114/295/173
f 116/299/174 110/289/34 109/286/29 115/296/172
s 1
f 116/298/175 117/300/176 111/290/40 110/288/39
s 2
f 112/292/46 111/291/48 117/301/177 118/302/178
f 113/294/47 112/293/46 118/303/178 119/304/179
f 22/57/44 115/297/172 114/295/173 25/60/45
f 23/54/50 116/299/174 115/296/172 22/56/44
s 1
f 23/70/180 29/71/181 117/300/176 116/298/175
s 2
f 118/302/178 117/301/177 29/78/49 28/80/43
f 119/304/179 118/303/178 28/81/43 31/86/42
