# This file uses centimeters as units for non-parametric coordinates.

g default
v -401.994873 0.154854 3.090832
v -401.995850 0.209734 3.090832
v -401.996643 0.209895 2.807353
v -401.996704 0.152938 3.014591
v -401.996643 0.209908 2.696986
v -401.994995 0.157129 2.843341
v -401.995056 0.210734 2.842487
v -403.351929 0.157765 2.891831
v -403.351868 0.211370 2.890977
v -403.351929 0.155332 3.093048
v -403.351929 0.210212 3.093048
v -403.351868 0.210212 2.807235
v -403.351929 0.152938 3.014852
v -403.351807 0.210212 2.696860
v -401.996033 0.287808 2.740336
v -401.996704 0.342689 2.740336
v -401.996643 0.342690 2.456118
v -401.996704 0.285733 2.663356
v -401.996643 0.342702 2.298079
v -403.351929 0.288126 2.741813
v -403.351929 0.343007 2.741813
v -403.351868 0.343007 2.456000
v -403.351929 0.285733 2.663618
v -403.351807 0.343007 2.297953
v -401.996033 0.428097 2.388402
v -401.996704 0.482978 2.388402
v -401.996643 0.482979 2.104184
v -401.996704 0.426022 2.311422
v -401.996643 0.482992 1.932430
v -403.351929 0.428415 2.389879
v -403.351929 0.483296 2.389879
v -403.351868 0.483296 2.104066
v -403.351929 0.426022 2.311684
v -403.351807 0.483296 1.932304
v -401.996033 0.568308 2.039672
v -401.996704 0.623188 2.039672
v -401.996643 0.623189 1.755454
v -401.996704 0.566232 1.962692
v -401.996643 0.623202 1.589202
v -403.351929 0.568626 2.041149
v -403.351929 0.623507 2.041149
v -403.351868 0.623507 1.755336
v -403.351929 0.566232 1.962953
v -403.351807 0.623507 1.589077
v -401.996033 0.697136 1.688873
v -401.996704 0.752017 1.688873
v -401.996643 0.752018 1.404655
v -401.996704 0.695061 1.611893
v -401.996643 0.752031 1.243812
v -403.351929 0.697454 1.690350
v -403.351929 0.752335 1.690350
v -403.351868 0.752335 1.404537
v -403.351929 0.695061 1.612154
v -403.351807 0.752335 1.243686
v -401.995911 0.840373 1.349256
v -401.995911 0.895254 1.349256
v -401.995911 0.895255 1.065038
v -401.995911 0.838297 1.272276
v -401.995911 0.895115 0.971357
v -403.351929 0.840691 1.350733
v -403.351929 0.895572 1.350733
v -403.351868 0.895572 1.064920
v -403.351929 0.838297 1.272537
v -403.354492 0.895267 0.971294
v -402.004822 0.294631 2.699174
v -402.004822 0.163292 2.699174
v -403.366089 0.294631 2.699174
v -403.366089 0.163292 2.699174
v -402.004822 0.446774 2.320344
v -402.004822 0.298413 2.320344
v -403.366089 0.446774 2.320344
v -403.366089 0.298413 2.320344
v -402.004822 0.586578 1.953174
v -402.004822 0.454504 1.953174
v -403.366089 0.586578 1.953174
v -403.366089 0.454504 1.953174
v -402.004822 0.729923 1.631818
v -402.004822 0.589165 1.631818
v -403.366089 0.729923 1.631818
v -403.366089 0.589165 1.631818
v -402.004822 0.888147 1.267878
v -402.004822 0.736262 1.261290
v -403.366089 0.888147 1.268701
v -403.366089 0.736262 1.262113
v -401.983521 0.981843 1.032774
v -401.984192 1.036724 1.032774
v -401.984131 1.036725 0.748556
v -401.984192 0.979768 0.955794
v -401.984131 1.036738 0.638189
v -403.339417 0.984595 0.833035
v -403.339355 1.038200 0.832180
v -403.339417 0.982162 1.034251
v -403.339417 1.037042 1.034251
v -403.339355 1.037042 0.748438
v -403.339417 0.979768 0.956055
v -403.339294 1.037042 0.638063
v -401.983521 1.115020 0.687426
v -401.984192 1.169900 0.687426
v -401.984131 1.169901 0.403208
v -401.984192 1.112944 0.610446
v -401.984131 1.169914 0.245169
v -403.339417 1.115338 0.688902
v -403.339417 1.170219 0.688902
v -403.339355 1.170219 0.403089
v -403.339417 1.112944 0.610707
v -403.339294 1.170219 0.245043
v -401.983521 1.255792 0.334785
v -401.984192 1.310672 0.334785
v -401.984131 1.310673 0.050567
v -401.984192 1.253716 0.257805
v -401.984131 1.310686 -0.121188
v -403.339417 1.256110 0.336262
v -403.339417 1.310990 0.336262
v -403.339355 1.310990 0.050448
v -403.339417 1.253716 0.258066
v -403.339294 1.310990 -0.121314
v -401.983521 1.392645 -0.013731
v -401.984192 1.447526 -0.013731
v -401.984131 1.447526 -0.297949
v -401.984192 1.390570 -0.090711
v -401.984131 1.447539 -0.464200
v -403.339417 1.392963 -0.012254
v -403.339417 1.447844 -0.012254
v -403.339355 1.447844 -0.298067
v -403.339417 1.390570 -0.090450
v -403.339294 1.447844 -0.464326
v -401.983521 1.521969 -0.367359
v -401.984192 1.576849 -0.367359
v -401.984131 1.576850 -0.651577
v -401.984192 1.519893 -0.444339
v -401.984131 1.576863 -0.812420
v -403.339417 1.522287 -0.365882
v -403.339417 1.577168 -0.365882
v -403.339355 1.577168 -0.651695
v -403.339417 1.519893 -0.444078
v -403.339294 1.577168 -0.812546
v -401.992310 0.986686 0.996623
v -401.992310 0.826496 0.997187
v -403.353577 0.986686 0.996623
v -403.353577 0.826496 0.997187
v -401.992310 1.121843 0.646264
v -401.992310 0.990504 0.646264
v -403.353577 1.121843 0.646264
v -403.353577 0.990504 0.646264
v -401.992310 1.274469 0.266726
v -401.992310 1.126108 0.266726
v -403.353577 1.274469 0.266726
v -403.353577 1.126108 0.266726
v -401.992310 1.410915 -0.100229
v -401.992310 1.278842 -0.100229
v -403.353577 1.410915 -0.100229
v -403.353577 1.278842 -0.100229
v -401.992310 1.554756 -0.424414
v -401.992310 1.413998 -0.424414
v -403.353577 1.554756 -0.424414
v -403.353577 1.413998 -0.424414
v -401.992065 1.715652 -0.793785
v -401.992065 1.565728 -0.800311
v -403.351379 1.715652 -0.792566
v -403.351379 1.565727 -0.799091
v -401.992188 1.666275 -0.710537
v -401.988464 1.664307 -0.787981
v -403.343872 1.666593 -0.709060
v -403.339417 1.664307 -0.787719
v -401.992065 1.720834 -1.087941
v -403.350037 1.720910 -1.087972
v -401.991821 0.167921 3.042040
v -402.004150 0.010390 3.042594
v -403.349182 0.167921 3.042040
v -403.349182 0.010390 3.042594
v -402.004150 0.020096 0.977343
v -403.349182 0.020096 0.977343
v -401.991821 0.875280 -1.087909
v -403.349182 0.875280 -1.087909
v -401.991821 0.029802 -1.087909
v -403.349182 0.029802 -1.087909
v -401.992310 1.721048 -0.710073
v -401.992310 1.721049 -0.994291
v -403.348328 1.721366 -0.708596
v -403.348267 1.721366 -0.994409
v -402.008057 -0.000332 3.055763
v -402.008057 0.009498 0.976257
v -402.008057 0.019331 -1.103024
v -402.008057 1.018619 0.976943
v -402.007996 1.071775 -1.103020
v -402.007874 1.876235 -1.103016
v -402.008057 1.146567 0.976943
v -402.008057 1.870426 -0.859726
v -402.008057 1.017869 1.308113
v -402.008057 0.330459 3.058433
v -401.780762 -0.000334 3.055984
v -401.780762 0.009499 0.976966
v -401.780762 0.019328 -1.103043
v -401.780762 1.018616 0.976943
v -401.780762 1.066084 -1.103051
v -401.781250 1.876061 -1.103009
v -401.780762 1.146564 0.976943
v -401.780762 1.870423 -0.859726
v -401.780762 1.017866 1.308113
v -401.780762 0.329992 3.058044
v -401.993652 1.846922 -1.137490
v -401.993530 1.038054 1.208244
v -401.993713 1.846954 -1.034846
v -401.804749 1.038029 1.207297
v -401.805664 1.846494 -1.106573
v -401.805542 1.846550 -1.035519
v -401.994873 1.088889 1.224019
v -402.077454 1.089365 1.224393
v -402.077454 1.038628 1.208770
v -402.074463 1.898519 -1.137414
v -402.074463 1.848296 -1.137445
v -402.079041 1.512989 0.022296
v -402.079041 1.564296 0.039853
v -401.994568 1.897614 -1.137433
v -401.994995 1.564465 0.038609
v -401.992920 1.512871 0.022278
v -401.723938 1.846884 -1.137548
v -401.723938 1.896518 -1.137474
v -401.719360 1.564300 0.037181
v -401.719360 1.512992 0.019624
v -401.804932 1.512992 0.019624
v -401.720947 1.088300 1.222586
v -401.720947 1.037801 1.206266
v -401.805420 1.846903 -0.835488
v -401.723083 1.846449 -0.836419
v -401.723083 1.897519 -0.818165
v -401.994751 1.898436 -0.816551
v -402.075317 1.899137 -0.815717
v -402.075317 1.847590 -0.832577
v -401.992859 1.846955 -0.833664
v -401.994324 0.274736 3.120078
v -401.994263 0.297666 3.053070
v -401.804138 0.297836 3.050804
v -401.804138 0.274525 3.118932
v -401.994934 0.326052 3.137548
v -402.079651 0.326304 3.137462
v -402.079651 0.274996 3.119905
v -402.079041 0.696392 2.063360
v -402.079041 0.747700 2.080917
v -401.994995 0.747868 2.079673
v -401.992920 0.696275 2.063342
v -401.719360 0.747704 2.078245
v -401.719360 0.696395 2.060688
v -401.804932 0.696395 2.060688
v -401.718811 0.325792 3.136296
v -401.718811 0.274484 3.118740
v -401.992432 1.876220 -1.119971
v -401.992523 1.071287 -1.119978
v -401.992554 0.019331 -1.119981
v -401.992554 0.009498 0.976307
v -401.992554 -0.000332 3.072716
v -401.992554 0.330419 3.075355
v -401.794678 1.876075 -1.119964
v -401.794189 1.066522 -1.120003
v -401.794189 0.019329 -1.119997
v -401.794189 0.009499 0.976906
v -401.794189 -0.000334 3.072903
v -401.794220 0.330028 3.075027
v -401.970398 1.876203 -1.125668
v -401.970398 1.070756 -1.125678
v -401.970459 0.019330 -1.125680
v -401.970459 0.009498 0.976370
v -401.970459 -0.000333 3.078427
v -401.970459 0.330375 3.081016
v -401.813171 1.876088 -1.125662
v -401.812744 1.066967 -1.125699
v -401.812744 0.019329 -1.125693
v -401.812744 0.009499 0.976848
v -401.812744 -0.000334 3.078577
v -401.812744 0.330064 3.080754
v -403.568726 -0.000332 3.055763
v -403.568726 0.009498 0.976257
v -403.568726 0.019331 -1.103024
v -403.568695 1.018619 0.976943
v -403.568665 1.071775 -1.103020
v -403.568542 1.876235 -1.103016
v -403.568695 1.146567 0.976943
v -403.568695 1.870426 -0.859726
v -403.568695 1.017869 1.308113
v -403.568726 0.330459 3.058433
v -403.341400 -0.000334 3.055984
v -403.341400 0.009499 0.976966
v -403.341400 0.019328 -1.103043
v -403.341400 1.018616 0.976943
v -403.341400 1.066084 -1.103051
v -403.341919 1.876061 -1.103009
v -403.341400 1.146564 0.976943
v -403.341400 1.870423 -0.859726
v -403.341400 1.017866 1.308113
v -403.341400 0.329992 3.058044
v -403.554291 1.846922 -1.137490
v -403.554169 1.038054 1.208244
v -403.554352 1.846954 -1.034846
v -403.365387 1.038029 1.207297
v -403.366302 1.846494 -1.106573
v -403.366180 1.846550 -1.035519
v -403.555511 1.088889 1.224019
v -403.638092 1.089365 1.224393
v -403.638092 1.038628 1.208770
v -403.635101 1.898519 -1.137414
v -403.635101 1.848296 -1.137445
v -403.639679 1.512989 0.022296
v -403.639679 1.564296 0.039853
v -403.555206 1.897614 -1.137433
v -403.555634 1.564465 0.038609
v -403.553558 1.512871 0.022278
v -403.284576 1.846884 -1.137548
v -403.284576 1.896518 -1.137474
v -403.279999 1.564300 0.037181
v -403.279999 1.512992 0.019624
v -403.365570 1.512992 0.019624
v -403.281586 1.088300 1.222586
v -403.281586 1.037801 1.206266
v -403.366058 1.846903 -0.835488
v -403.283722 1.846449 -0.836419
v -403.283722 1.897519 -0.818165
v -403.555389 1.898436 -0.816551
v -403.635956 1.899137 -0.815717
v -403.635956 1.847590 -0.832577
v -403.553497 1.846955 -0.833664
v -403.554962 0.274736 3.120078
v -403.554901 0.297666 3.053070
v -403.364777 0.297836 3.050804
v -403.364777 0.274525 3.118932
v -403.555573 0.326052 3.137548
v -403.640289 0.326304 3.137462
v -403.640289 0.274996 3.119905
v -403.639679 0.696392 2.063360
v -403.639679 0.747700 2.080917
v -403.555634 0.747868 2.079673
v -403.553558 0.696275 2.063342
v -403.279999 0.747704 2.078245
v -403.279999 0.696395 2.060688
v -403.365570 0.696395 2.060688
v -403.279449 0.325792 3.136296
v -403.279449 0.274484 3.118740
v -403.553101 1.876220 -1.119971
v -403.553162 1.071287 -1.119978
v -403.553223 0.019331 -1.119981
v -403.553223 0.009498 0.976307
v -403.553223 -0.000332 3.072716
v -403.553223 0.330419 3.075355
v -403.355347 1.876075 -1.119964
v -403.354858 1.066522 -1.120003
v -403.354858 0.019329 -1.119997
v -403.354858 0.009499 0.976906
v -403.354858 -0.000334 3.072903
v -403.354858 0.330028 3.075027
v -403.531036 1.876203 -1.125668
v -403.531067 1.070756 -1.125678
v -403.531097 0.019330 -1.125680
v -403.531097 0.009498 0.976370
v -403.531097 -0.000333 3.078427
v -403.531097 0.330375 3.081016
v -403.373810 1.876088 -1.125662
v -403.373383 1.066967 -1.125699
v -403.373383 0.019329 -1.125693
v -403.373383 0.009499 0.976848
v -403.373383 -0.000334 3.078577
v -403.373413 0.330064 3.080754
vt 0.903585 0.065058
vt 0.932815 0.065058
vt 0.932817 0.206581
vt 0.903639 0.207025
vt 0.903585 0.065058
vt 0.903639 0.207025
vt 0.932817 0.206581
vt 0.932815 0.065058
vt 0.903123 0.967287
vt 0.735336 0.967287
vt 0.734809 0.259325
vt 0.903788 0.259744
vt 0.932919 0.258072
vt 0.961066 0.252594
vt 0.960851 0.967287
vt 0.933213 0.967287
vt 0.259379 0.995479
vt 0.259309 0.338105
vt 0.313682 0.338105
vt 0.313618 0.995479
vt 0.904098 0.259804
vt 0.932365 0.259065
vt 0.932498 0.967287
vt 0.903915 0.967287
vt 0.903123 0.967287
vt 0.735336 0.967287
vt 0.734809 0.259325
vt 0.903788 0.259744
vt 0.932919 0.258072
vt 0.961066 0.252594
vt 0.960851 0.967287
vt 0.933213 0.967287
vt 0.543269 0.995479
vt 0.543199 0.338105
vt 0.620582 0.338135
vt 0.620589 0.995474
vt 0.904098 0.259804
vt 0.932365 0.259065
vt 0.932498 0.967287
vt 0.903915 0.967287
vt 0.903123 0.967287
vt 0.735336 0.967287
vt 0.734809 0.259325
vt 0.903788 0.259744
vt 0.932919 0.258072
vt 0.961066 0.252594
vt 0.960851 0.967287
vt 0.933213 0.967287
vt 0.259379 0.995479
vt 0.259309 0.338105
vt 0.343385 0.338139
vt 0.343393 0.995478
vt 0.904098 0.259804
vt 0.932365 0.259065
vt 0.932498 0.967287
vt 0.903915 0.967287
vt 0.903123 0.967287
vt 0.735336 0.967287
vt 0.734809 0.259325
vt 0.903788 0.259744
vt 0.932919 0.258072
vt 0.961066 0.252594
vt 0.960851 0.967287
vt 0.933213 0.967287
vt 0.008516 0.605178
vt 0.665890 0.605108
vt 0.665858 0.686499
vt 0.008519 0.686506
vt 0.904098 0.259804
vt 0.932365 0.259065
vt 0.932498 0.967287
vt 0.903915 0.967287
vt 0.903123 0.967287
vt 0.735336 0.967287
vt 0.734809 0.259325
vt 0.903788 0.259744
vt 0.932919 0.258072
vt 0.961066 0.252594
vt 0.960851 0.967287
vt 0.933213 0.967287
vt 0.008516 0.907994
vt 0.665890 0.907924
vt 0.665859 0.986675
vt 0.008520 0.986682
vt 0.904098 0.259804
vt 0.932365 0.259065
vt 0.932498 0.967287
vt 0.903915 0.967287
vt 0.903123 0.967287
vt 0.735336 0.967287
vt 0.734809 0.259325
vt 0.903788 0.259744
vt 0.932919 0.258072
vt 0.961066 0.252594
vt 0.960851 0.967287
vt 0.933213 0.967287
vt 0.008516 0.605178
vt 0.665890 0.605108
vt 0.665877 0.651081
vt 0.008538 0.651088
vt 0.904098 0.259804
vt 0.932365 0.259065
vt 0.932498 0.967287
vt 0.903915 0.967287
vt 0.490891 0.140944
vt 0.490891 0.101371
vt 0.100209 0.101371
vt 0.100209 0.140944
vt 0.531541 0.188384
vt 0.531541 0.140944
vt 0.079623 0.140944
vt 0.079623 0.188384
vt 0.472135 0.231197
vt 0.472135 0.188384
vt 0.007252 0.188384
vt 0.007252 0.231197
vt 0.634254 0.318130
vt 0.634254 0.273692
vt 0.122720 0.273692
vt 0.122720 0.318130
vt 0.531541 0.188384
vt 0.531541 0.140944
vt 0.079623 0.140944
vt 0.079623 0.188384
vt 0.903585 0.065058
vt 0.903639 0.207025
vt 0.932817 0.206581
vt 0.932815 0.065058
vt 0.903123 0.967287
vt 0.735336 0.967287
vt 0.734809 0.259325
vt 0.903788 0.259744
vt 0.932919 0.258072
vt 0.961066 0.252594
vt 0.960851 0.967287
vt 0.933213 0.967287
vt 0.259379 0.995479
vt 0.259309 0.338105
vt 0.313682 0.338105
vt 0.313618 0.995479
vt 0.904098 0.259804
vt 0.932365 0.259065
vt 0.932498 0.967287
vt 0.903915 0.967287
vt 0.903123 0.967287
vt 0.735336 0.967287
vt 0.734809 0.259325
vt 0.903788 0.259744
vt 0.932919 0.258072
vt 0.961066 0.252594
vt 0.960851 0.967287
vt 0.933213 0.967287
vt 0.543269 0.995479
vt 0.543199 0.338105
vt 0.620582 0.338135
vt 0.620589 0.995474
vt 0.904098 0.259804
vt 0.932365 0.259065
vt 0.932498 0.967287
vt 0.903915 0.967287
vt 0.903123 0.967287
vt 0.735336 0.967287
vt 0.734809 0.259325
vt 0.903788 0.259744
vt 0.932919 0.258072
vt 0.961066 0.252594
vt 0.960851 0.967287
vt 0.933213 0.967287
vt 0.259379 0.995479
vt 0.259309 0.338105
vt 0.343385 0.338139
vt 0.343393 0.995478
vt 0.904098 0.259804
vt 0.932365 0.259065
vt 0.932498 0.967287
vt 0.903915 0.967287
vt 0.903123 0.967287
vt 0.735336 0.967287
vt 0.734809 0.259325
vt 0.903788 0.259744
vt 0.932919 0.258072
vt 0.961066 0.252594
vt 0.960851 0.967287
vt 0.933213 0.967287
vt 0.008516 0.605178
vt 0.665890 0.605108
vt 0.665858 0.686499
vt 0.008519 0.686506
vt 0.904098 0.259804
vt 0.932365 0.259065
vt 0.932498 0.967287
vt 0.903915 0.967287
vt 0.903123 0.967287
vt 0.735336 0.967287
vt 0.734809 0.259325
vt 0.903788 0.259744
vt 0.932919 0.258072
vt 0.961066 0.252594
vt 0.960851 0.967287
vt 0.933213 0.967287
vt 0.008516 0.907994
vt 0.665890 0.907924
vt 0.665859 0.986675
vt 0.008520 0.986682
vt 0.904098 0.259804
vt 0.932365 0.259065
vt 0.932498 0.967287
vt 0.903915 0.967287
vt 0.667155 0.065963
vt 0.667155 0.014946
vt 0.222477 0.014946
vt 0.222477 0.065963
vt 0.490891 0.140944
vt 0.490891 0.101371
vt 0.100209 0.101371
vt 0.100209 0.140944
vt 0.531541 0.188384
vt 0.531541 0.140944
vt 0.079623 0.140944
vt 0.079623 0.188384
vt 0.472135 0.231197
vt 0.472135 0.188384
vt 0.007252 0.188384
vt 0.007252 0.231197
vt 0.634254 0.318130
vt 0.634254 0.273692
vt 0.122720 0.273692
vt 0.122720 0.318130
vt 0.531541 0.188384
vt 0.531541 0.140944
vt 0.079623 0.140944
vt 0.079623 0.188384
vt 0.932919 0.258072
vt 0.961066 0.252594
vt 0.960851 0.967287
vt 0.933213 0.967287
vt 0.668756 0.065000
vt 0.668756 0.013987
vt 0.231550 0.013987
vt 0.231550 0.065000
vt 0.000703 0.320938
vt 0.000703 1.000277
vt 0.483098 1.000277
vt 0.483099 0.320938
vt 0.015306 0.013987
vt 0.015306 0.317147
vt 0.677328 0.317147
vt 0.677328 0.013987
vt 0.000703 0.320938
vt 0.000703 1.000277
vt 0.483098 1.000277
vt 0.483099 0.320938
vt 0.015306 0.013987
vt 0.015306 0.317147
vt 0.677328 0.317147
vt 0.677328 0.013987
vt 0.903123 0.967287
vt 0.735336 0.967287
vt 0.734809 0.259325
vt 0.903788 0.259744
vt 0.008516 0.605178
vt 0.665890 0.605108
vt 0.665877 0.651081
vt 0.008538 0.651088
vt 0.904098 0.259804
vt 0.932365 0.259065
vt 0.932498 0.967287
vt 0.903915 0.967287
vt 0.003892 0.317147
vt 0.677328 0.317147
vt 0.677328 0.002504
vt 0.003892 0.001472
vt 0.003892 0.001472
vt 0.003892 0.113088
vt 0.677328 0.002504
vt 0.003892 0.052363
vt 0.677328 0.002504
vt 0.003892 0.001472
vt 0.573563 0.002504
vt 0.677328 0.052363
vt 0.677328 0.002504
vt 0.601603 0.269784
vt 0.677328 0.269214
vt 0.573563 0.317147
vt 0.677328 0.317147
vt 0.003892 0.001472
vt 0.677328 0.002504
vt 0.677328 0.002504
vt 0.003892 0.001472
vt 0.677328 0.002504
vt 0.003892 0.001472
vt 0.003892 0.001472
vt 0.677328 0.002504
vt 0.003892 0.317147
vt 0.003892 0.001472
vt 0.677328 0.002504
vt 0.677328 0.317147
vt 0.003892 0.001472
vt 0.677328 0.002504
vt 0.003892 0.113088
vt 0.003892 0.052363
vt 0.003892 0.001472
vt 0.677328 0.002504
vt 0.573563 0.002504
vt 0.677328 0.002504
vt 0.677328 0.052363
vt 0.072543 0.001472
vt 0.072543 0.110844
vt 0.078764 0.110724
vt 0.078764 0.001472
vt 0.076626 0.269784
vt 0.076541 0.001593
vt 0.083662 0.001593
vt 0.083737 0.269784
vt 0.076774 0.317147
vt 0.076636 0.001472
vt 0.083746 0.001472
vt 0.083880 0.317147
vt 0.677328 0.269214
vt 0.601603 0.269784
vt 0.677328 0.317147
vt 0.573563 0.317147
vt 0.871086 0.747507
vt 0.871089 0.704933
vt 0.796084 0.704654
vt 0.796084 0.747224
vt 0.961220 0.830756
vt 0.932815 0.830885
vt 0.932817 0.249351
vt 0.961182 0.249351
vt 0.932949 0.249351
vt 0.961050 0.249351
vt 0.961229 0.983733
vt 0.932815 0.983638
vt 0.932815 0.830885
vt 0.903599 0.830919
vt 0.903655 0.249351
vt 0.932817 0.249351
vt 0.903944 0.249351
vt 0.932528 0.249351
vt 0.932815 0.983638
vt 0.903585 0.983543
vt 0.903585 0.983543
vt 0.863533 0.983417
vt 0.863793 0.249351
vt 0.903439 0.249351
vt 0.903599 0.830919
vt 0.863545 0.830800
vt 0.863594 0.249351
vt 0.903655 0.249351
vt 0.903585 0.065058
vt 0.932815 0.065058
vt 0.932816 0.109473
vt 0.903602 0.109611
vt 0.961182 0.249351
vt 0.961220 0.830756
vt 0.932815 0.830885
vt 0.932817 0.249351
vt 0.932817 0.249351
vt 0.961186 0.249351
vt 0.961229 0.983733
vt 0.932815 0.983638
vt 0.932815 0.830885
vt 0.903599 0.830919
vt 0.903655 0.249351
vt 0.932817 0.249351
vt 0.903655 0.249351
vt 0.932817 0.249351
vt 0.932815 0.983638
vt 0.903585 0.983543
vt 0.903585 0.983543
vt 0.796084 0.983138
vt 0.796084 0.249351
vt 0.903655 0.249351
vt 0.903599 0.830919
vt 0.796084 0.830534
vt 0.796084 0.249351
vt 0.903655 0.249351
vt 0.903585 0.065058
vt 0.932815 0.065058
vt 0.932817 0.206581
vt 0.903639 0.207025
vt 0.961226 0.926303
vt 0.932815 0.971293
vt 0.932815 0.971293
vt 0.903585 0.971198
vt 0.903585 0.971198
vt 0.796084 0.970793
vt 0.961229 0.971388
vt 0.932815 0.971293
vt 0.932815 0.971293
vt 0.903585 0.971198
vt 0.903585 0.971198
vt 0.863533 0.971072
vt 0.863537 0.926313
vt 0.961229 0.971388
vt 0.870520 0.107573
vt 0.870523 0.065058
vt 0.796084 0.065058
vt 0.796084 0.107555
vt 0.863533 0.065058
vt 0.863533 0.036422
vt 0.903585 0.036422
vt 0.903585 0.065058
vt 0.961220 0.747224
vt 0.932815 0.747224
vt 0.932817 0.250386
vt 0.961182 0.250386
vt 0.932949 0.065058
vt 0.961050 0.065058
vt 0.961229 0.747224
vt 0.932815 0.747224
vt 0.932815 0.747224
vt 0.903599 0.747224
vt 0.903655 0.250386
vt 0.932817 0.250386
vt 0.903944 0.065058
vt 0.932528 0.065058
vt 0.932815 0.747224
vt 0.903585 0.747224
vt 0.903585 0.747224
vt 0.863533 0.747224
vt 0.863793 0.107731
vt 0.903439 0.065058
vt 0.903599 0.747224
vt 0.863545 0.747224
vt 0.863594 0.250386
vt 0.903655 0.250386
vt 0.961182 0.250386
vt 0.961220 0.747224
vt 0.932815 0.747224
vt 0.932817 0.250386
vt 0.932817 0.065058
vt 0.961186 0.109120
vt 0.961229 0.747224
vt 0.932815 0.747224
vt 0.932815 0.747224
vt 0.903599 0.747224
vt 0.903655 0.250386
vt 0.932817 0.250386
vt 0.903655 0.065058
vt 0.932817 0.065058
vt 0.932815 0.747224
vt 0.903585 0.747224
vt 0.796084 0.065058
vt 0.796084 0.036422
vt 0.903585 0.036422
vt 0.903585 0.065058
vt 0.903585 0.747224
vt 0.796084 0.747224
vt 0.796084 0.065058
vt 0.903655 0.065058
vt 0.903599 0.747224
vt 0.796084 0.747224
vt 0.796084 0.250386
vt 0.903655 0.250386
vt 0.961182 0.065058
vt 0.863810 0.065058
vt 0.069561 0.269784
vt 0.069462 0.001593
vt 0.069708 0.317147
vt 0.069571 0.001472
vt 0.677328 0.002504
vt 0.003892 0.001472
vt 0.677328 0.002504
vt 0.003892 0.001472
vt 0.064935 0.001472
vt 0.064935 0.110931
vt 0.008118 0.269784
vt 0.007853 0.001593
vt 0.014564 0.001593
vt 0.014824 0.269784
vt 0.008219 0.317147
vt 0.008073 0.001472
vt 0.014771 0.001472
vt 0.014917 0.317147
vt 0.677328 0.085916
vt 0.003892 0.085916
vt 0.003892 0.085916
vt 0.677328 0.085916
vt 0.003892 0.085916
vt 0.677328 0.085916
vt 0.677328 0.085916
vt 0.003892 0.085916
vt 0.011078 0.001472
vt 0.011078 0.111512
vt 0.017298 0.111479
vt 0.017298 0.001472
vt 0.020814 0.269784
vt 0.020573 0.001593
vt 0.020914 0.317147
vt 0.020768 0.001472
vt 0.677328 0.085916
vt 0.003892 0.085916
vt 0.677328 0.085916
vt 0.003892 0.085916
vt 0.023586 0.001472
vt 0.023586 0.111428
vt 0.003892 0.317147
vt 0.677328 0.317147
vt 0.677328 0.002504
vt 0.003892 0.001472
vt 0.003892 0.001472
vt 0.003892 0.113088
vt 0.677328 0.002504
vt 0.003892 0.052363
vt 0.677328 0.002504
vt 0.003892 0.001472
vt 0.573563 0.002504
vt 0.677328 0.052363
vt 0.677328 0.002504
vt 0.601603 0.269784
vt 0.677328 0.269214
vt 0.573563 0.317147
vt 0.677328 0.317147
vt 0.003892 0.001472
vt 0.677328 0.002504
vt 0.677328 0.002504
vt 0.003892 0.001472
vt 0.677328 0.002504
vt 0.003892 0.001472
vt 0.003892 0.001472
vt 0.677328 0.002504
vt 0.003892 0.317147
vt 0.003892 0.001472
vt 0.677328 0.002504
vt 0.677328 0.317147
vt 0.003892 0.001472
vt 0.677328 0.002504
vt 0.003892 0.113088
vt 0.003892 0.052363
vt 0.003892 0.001472
vt 0.677328 0.002504
vt 0.573563 0.002504
vt 0.677328 0.002504
vt 0.677328 0.052363
vt 0.072543 0.001472
vt 0.072543 0.110844
vt 0.078764 0.110724
vt 0.078764 0.001472
vt 0.076626 0.269784
vt 0.076541 0.001593
vt 0.083662 0.001593
vt 0.083737 0.269784
vt 0.076774 0.317147
vt 0.076636 0.001472
vt 0.083746 0.001472
vt 0.083880 0.317147
vt 0.677328 0.269214
vt 0.601603 0.269784
vt 0.677328 0.317147
vt 0.573563 0.317147
vt 0.871086 0.747507
vt 0.871089 0.704933
vt 0.796084 0.704654
vt 0.796084 0.747224
vt 0.961220 0.830756
vt 0.932815 0.830885
vt 0.932817 0.249351
vt 0.961182 0.249351
vt 0.932949 0.249351
vt 0.961050 0.249351
vt 0.961229 0.983733
vt 0.932815 0.983638
vt 0.932815 0.830885
vt 0.903599 0.830919
vt 0.903655 0.249351
vt 0.932817 0.249351
vt 0.903944 0.249351
vt 0.932528 0.249351
vt 0.932815 0.983638
vt 0.903585 0.983543
vt 0.903585 0.983543
vt 0.863533 0.983417
vt 0.863793 0.249351
vt 0.903439 0.249351
vt 0.903599 0.830919
vt 0.863545 0.830800
vt 0.863594 0.249351
vt 0.903655 0.249351
vt 0.903585 0.065058
vt 0.932815 0.065058
vt 0.932816 0.109473
vt 0.903602 0.109611
vt 0.961182 0.249351
vt 0.961220 0.830756
vt 0.932815 0.830885
vt 0.932817 0.249351
vt 0.932817 0.249351
vt 0.961186 0.249351
vt 0.961229 0.983733
vt 0.932815 0.983638
vt 0.932815 0.830885
vt 0.903599 0.830919
vt 0.903655 0.249351
vt 0.932817 0.249351
vt 0.903655 0.249351
vt 0.932817 0.249351
vt 0.932815 0.983638
vt 0.903585 0.983543
vt 0.903585 0.983543
vt 0.796084 0.983138
vt 0.796084 0.249351
vt 0.903655 0.249351
vt 0.903599 0.830919
vt 0.796084 0.830534
vt 0.796084 0.249351
vt 0.903655 0.249351
vt 0.903585 0.065058
vt 0.932815 0.065058
vt 0.932817 0.206581
vt 0.903639 0.207025
vt 0.961226 0.926303
vt 0.932815 0.971293
vt 0.932815 0.971293
vt 0.903585 0.971198
vt 0.903585 0.971198
vt 0.796084 0.970793
vt 0.961229 0.971388
vt 0.932815 0.971293
vt 0.932815 0.971293
vt 0.903585 0.971198
vt 0.903585 0.971198
vt 0.863533 0.971072
vt 0.863537 0.926313
vt 0.961229 0.971388
vt 0.870520 0.107573
vt 0.870523 0.065058
vt 0.796084 0.065058
vt 0.796084 0.107555
vt 0.863533 0.065058
vt 0.863533 0.036422
vt 0.903585 0.036422
vt 0.903585 0.065058
vt 0.961220 0.747224
vt 0.932815 0.747224
vt 0.932817 0.250386
vt 0.961182 0.250386
vt 0.932949 0.065058
vt 0.961050 0.065058
vt 0.961229 0.747224
vt 0.932815 0.747224
vt 0.932815 0.747224
vt 0.903599 0.747224
vt 0.903655 0.250386
vt 0.932817 0.250386
vt 0.903944 0.065058
vt 0.932528 0.065058
vt 0.932815 0.747224
vt 0.903585 0.747224
vt 0.903585 0.747224
vt 0.863533 0.747224
vt 0.863793 0.107731
vt 0.903439 0.065058
vt 0.903599 0.747224
vt 0.863545 0.747224
vt 0.863594 0.250386
vt 0.903655 0.250386
vt 0.961182 0.250386
vt 0.961220 0.747224
vt 0.932815 0.747224
vt 0.932817 0.250386
vt 0.932817 0.065058
vt 0.961186 0.109120
vt 0.961229 0.747224
vt 0.932815 0.747224
vt 0.932815 0.747224
vt 0.903599 0.747224
vt 0.903655 0.250386
vt 0.932817 0.250386
vt 0.903655 0.065058
vt 0.932817 0.065058
vt 0.932815 0.747224
vt 0.903585 0.747224
vt 0.796084 0.065058
vt 0.796084 0.036422
vt 0.903585 0.036422
vt 0.903585 0.065058
vt 0.903585 0.747224
vt 0.796084 0.747224
vt 0.796084 0.065058
vt 0.903655 0.065058
vt 0.903599 0.747224
vt 0.796084 0.747224
vt 0.796084 0.250386
vt 0.903655 0.250386
vt 0.961182 0.065058
vt 0.863810 0.065058
vt 0.069561 0.269784
vt 0.069462 0.001593
vt 0.069708 0.317147
vt 0.069571 0.001472
vt 0.677328 0.002504
vt 0.003892 0.001472
vt 0.677328 0.002504
vt 0.003892 0.001472
vt 0.064935 0.001472
vt 0.064935 0.110931
vt 0.008118 0.269784
vt 0.007853 0.001593
vt 0.014564 0.001593
vt 0.014824 0.269784
vt 0.008219 0.317147
vt 0.008073 0.001472
vt 0.014771 0.001472
vt 0.014917 0.317147
vt 0.677328 0.085916
vt 0.003892 0.085916
vt 0.003892 0.085916
vt 0.677328 0.085916
vt 0.003892 0.085916
vt 0.677328 0.085916
vt 0.677328 0.085916
vt 0.003892 0.085916
vt 0.011078 0.001472
vt 0.011078 0.111512
vt 0.017298 0.111479
vt 0.017298 0.001472
vt 0.020814 0.269784
vt 0.020573 0.001593
vt 0.020914 0.317147
vt 0.020768 0.001472
vt 0.677328 0.085916
vt 0.003892 0.085916
vt 0.677328 0.085916
vt 0.003892 0.085916
vt 0.023586 0.001472
vt 0.023586 0.111428
vn 0.999947 0.010212 0.001417
vn 0.999947 0.010212 0.001417
vn 0.999947 0.010212 0.001417
vn 0.999947 0.010212 0.001417
vn -1.000000 0.000698 -0.000146
vn -1.000000 0.000698 -0.000146
vn -1.000000 0.000698 -0.000146
vn -1.000000 0.000698 -0.000146
vn 0.000294 1.000000 0.000281
vn 0.000262 1.000000 0.000170
vn 0.000262 1.000000 0.000170
vn 0.000294 1.000000 0.000281
vn -0.000150 -0.999611 0.027900
vn -0.000150 -0.999611 0.027900
vn -0.000150 -0.999611 0.027900
vn -0.000150 -0.999611 0.027900
vn 0.000230 1.000000 0.000058
vn 0.000230 1.000000 0.000058
vn 0.001633 0.000014 0.999999
vn 0.001633 0.000014 0.999999
vn 0.001633 0.000014 0.999999
vn 0.001633 0.000014 0.999999
vn 0.000234 1.000000 0.000002
vn 0.000232 1.000000 0.000021
vn 0.000232 1.000000 0.000021
vn 0.000234 1.000000 0.000002
vn -0.000099 -0.999585 0.028791
vn -0.000099 -0.999585 0.028791
vn -0.000099 -0.999585 0.028791
vn -0.000099 -0.999585 0.028791
vn 0.000229 1.000000 0.000039
vn 0.000229 1.000000 0.000039
vn 0.001090 0.000006 0.999999
vn 0.001090 0.000006 0.999999
vn 0.001090 0.000006 0.999999
vn 0.001090 0.000006 0.999999
vn 0.000234 1.000000 0.000002
vn 0.000232 1.000000 0.000020
vn 0.000232 1.000000 0.000020
vn 0.000234 1.000000 0.000002
vn -0.000099 -0.999585 0.028791
vn -0.000099 -0.999585 0.028791
vn -0.000099 -0.999585 0.028791
vn -0.000099 -0.999585 0.028791
vn 0.000229 1.000000 0.000038
vn 0.000229 1.000000 0.000038
vn 0.001089 0.000006 0.999999
vn 0.001089 0.000006 0.999999
vn 0.001089 0.000006 0.999999
vn 0.001089 0.000006 0.999999
vn 0.000234 1.000000 0.000002
vn 0.000232 1.000000 0.000019
vn 0.000232 1.000000 0.000019
vn 0.000234 1.000000 0.000002
vn -0.000099 -0.999585 0.028791
vn -0.000099 -0.999585 0.028791
vn -0.000099 -0.999585 0.028791
vn -0.000099 -0.999585 0.028791
vn 0.000229 1.000000 0.000037
vn 0.000229 1.000000 0.000037
vn 0.001089 0.000006 0.999999
vn 0.001089 0.000006 0.999999
vn 0.001089 0.000006 0.999999
vn 0.001089 0.000006 0.999999
vn 0.000234 1.000000 0.000002
vn 0.000232 1.000000 0.000021
vn 0.000232 1.000000 0.000021
vn 0.000234 1.000000 0.000002
vn -0.000099 -0.999585 0.028791
vn -0.000099 -0.999585 0.028791
vn -0.000099 -0.999585 0.028791
vn -0.000099 -0.999585 0.028791
vn 0.000229 1.000000 0.000040
vn 0.000229 1.000000 0.000040
vn 0.001089 0.000006 0.999999
vn 0.001089 0.000006 0.999999
vn 0.001089 0.000006 0.999999
vn 0.001089 0.000006 0.999999
vn 0.000234 1.000000 0.000002
vn 0.000204 0.999999 -0.001187
vn 0.000204 0.999999 -0.001187
vn 0.000234 1.000000 0.000002
vn -0.000099 -0.999585 0.028790
vn -0.000099 -0.999585 0.028790
vn -0.000099 -0.999585 0.028790
vn -0.000099 -0.999585 0.028790
vn 0.000173 0.999997 -0.002375
vn 0.000173 0.999997 -0.002375
vn 0.001089 0.000000 0.999999
vn 0.001089 0.000000 0.999999
vn 0.001089 0.000000 0.999999
vn 0.001089 0.000000 0.999999
vn 0.000000 0.000000 1.000000
vn 0.000000 0.000000 1.000000
vn 0.000000 0.000000 1.000000
vn 0.000000 0.000000 1.000000
vn 0.000000 0.000000 1.000000
vn 0.000000 0.000000 1.000000
vn 0.000000 0.000000 1.000000
vn 0.000000 0.000000 1.000000
vn 0.000000 0.000000 1.000000
vn 0.000000 0.000000 1.000000
vn 0.000000 0.000000 1.000000
vn 0.000000 0.000000 1.000000
vn 0.000000 0.000000 1.000000
vn 0.000000 0.000000 1.000000
vn 0.000000 0.000000 1.000000
vn 0.000000 0.000000 1.000000
vn 0.000604 -0.043334 0.999061
vn 0.000604 -0.043334 0.999061
vn 0.000604 -0.043334 0.999061
vn 0.000604 -0.043334 0.999061
vn -1.000000 0.000698 -0.000146
vn -1.000000 0.000698 -0.000146
vn -1.000000 0.000698 -0.000146
vn -1.000000 0.000698 -0.000146
vn 0.000234 1.000000 0.000002
vn 0.000232 1.000000 0.000030
vn 0.000232 1.000000 0.000030
vn 0.000234 1.000000 0.000002
vn -0.000099 -0.999586 0.028791
vn -0.000099 -0.999586 0.028791
vn -0.000099 -0.999586 0.028791
vn -0.000099 -0.999586 0.028791
vn 0.000229 1.000000 0.000058
vn 0.000229 1.000000 0.000058
vn 0.001089 0.000006 0.999999
vn 0.001089 0.000006 0.999999
vn 0.001089 0.000006 0.999999
vn 0.001089 0.000006 0.999999
vn 0.000235 1.000000 0.000002
vn 0.000232 1.000000 0.000021
vn 0.000232 1.000000 0.000021
vn 0.000235 1.000000 0.000002
vn -0.000099 -0.999586 0.028791
vn -0.000099 -0.999586 0.028791
vn -0.000099 -0.999586 0.028791
vn -0.000099 -0.999586 0.028791
vn 0.000230 1.000000 0.000041
vn 0.000230 1.000000 0.000041
vn 0.001089 0.000006 0.999999
vn 0.001089 0.000006 0.999999
vn 0.001089 0.000006 0.999999
vn 0.001089 0.000006 0.999999
vn 0.000234 1.000000 0.000002
vn 0.000232 1.000000 0.000020
vn 0.000232 1.000000 0.000020
vn 0.000234 1.000000 0.000002
vn -0.000099 -0.999586 0.028791
vn -0.000099 -0.999586 0.028791
vn -0.000099 -0.999586 0.028791
vn -0.000099 -0.999586 0.028791
vn 0.000229 1.000000 0.000038
vn 0.000229 1.000000 0.000038
vn 0.001089 0.000006 0.999999
vn 0.001089 0.000006 0.999999
vn 0.001089 0.000006 0.999999
vn 0.001089 0.000006 0.999999
vn 0.000235 1.000000 0.000002
vn 0.000232 1.000000 0.000020
vn 0.000232 1.000000 0.000020
vn 0.000235 1.000000 0.000002
vn -0.000099 -0.999586 0.028790
vn -0.000099 -0.999586 0.028790
vn -0.000099 -0.999586 0.028790
vn -0.000099 -0.999586 0.028790
vn 0.000230 1.000000 0.000039
vn 0.000230 1.000000 0.000039
vn 0.001089 0.000006 0.999999
vn 0.001089 0.000006 0.999999
vn 0.001089 0.000006 0.999999
vn 0.001089 0.000006 0.999999
vn 0.000234 1.000000 0.000002
vn 0.000232 1.000000 0.000020
vn 0.000232 1.000000 0.000020
vn 0.000234 1.000000 0.000002
vn -0.000099 -0.999586 0.028791
vn -0.000099 -0.999586 0.028791
vn -0.000099 -0.999586 0.028791
vn -0.000099 -0.999586 0.028791
vn 0.000229 1.000000 0.000039
vn 0.000229 1.000000 0.000039
vn 0.001089 0.000006 0.999999
vn 0.001089 0.000006 0.999999
vn 0.001089 0.000006 0.999999
vn 0.001089 0.000006 0.999999
vn 0.000000 0.003524 0.999994
vn 0.000000 0.003524 0.999994
vn 0.000000 0.003524 0.999994
vn 0.000000 0.003524 0.999994
vn 0.000000 0.000000 1.000000
vn 0.000000 0.000000 1.000000
vn 0.000000 0.000000 1.000000
vn 0.000000 0.000000 1.000000
vn 0.000000 0.000000 1.000000
vn 0.000000 0.000000 1.000000
vn 0.000000 0.000000 1.000000
vn 0.000000 0.000000 1.000000
vn 0.000000 0.000000 1.000000
vn 0.000000 0.000000 1.000000
vn 0.000000 0.000000 1.000000
vn 0.000000 0.000000 1.000000
vn 0.000000 0.000000 1.000000
vn 0.000000 0.000000 1.000000
vn 0.000000 0.000000 1.000000
vn 0.000000 0.000000 1.000000
vn 0.000896 -0.043486 0.999054
vn 0.000896 -0.043486 0.999054
vn 0.000896 -0.043486 0.999054
vn 0.000896 -0.043486 0.999054
vn -0.000100 -0.999629 0.027241
vn -0.000100 -0.999629 0.027241
vn -0.000100 -0.999629 0.027241
vn -0.000100 -0.999629 0.027241
vn 0.000000 0.003517 0.999994
vn 0.000000 0.003517 0.999994
vn 0.000000 0.003517 0.999994
vn 0.000000 0.003517 0.999994
vn 0.000000 -0.999989 -0.004700
vn 0.000000 -0.999989 -0.004700
vn 0.000000 -0.999989 -0.004700
vn 0.000000 -0.999989 -0.004700
vn 0.000006 -0.000028 -1.000000
vn 0.000012 -0.000056 -1.000000
vn 0.000012 -0.000056 -1.000000
vn 0.000006 -0.000028 -1.000000
vn 0.000000 -0.999989 -0.004700
vn 0.000000 -0.999989 -0.004700
vn 0.000000 0.000000 -1.000000
vn 0.000000 0.000000 -1.000000
vn 0.000234 1.000000 0.000002
vn 0.000190 0.999998 -0.001794
vn 0.000190 0.999998 -0.001794
vn 0.000234 1.000000 0.000002
vn 0.000145 0.999994 -0.003590
vn 0.000145 0.999994 -0.003590
vn 0.001089 -0.008420 0.999964
vn 0.001089 -0.008420 0.999964
vn 0.001089 -0.008420 0.999964
vn 0.001089 -0.008420 0.999964
vn -1.000000 -0.000009 -0.000011
vn -0.957530 0.000034 -0.288332
vn -0.932299 0.000030 -0.361688
vn -1.000000 -0.000012 -0.000005
vn -0.932105 -0.002896 0.362176
vn -0.970907 -0.001933 0.239451
vn -1.000000 0.000000 -0.000044
vn -1.000000 -0.000026 0.000000
vn -1.000000 0.000000 -0.000104
vn -0.932454 0.000055 -0.361289
vn 0.002575 -0.999986 -0.004696
vn -0.000004 -0.999989 -0.004703
vn -0.000004 -0.999989 -0.004695
vn 0.001589 -0.999988 -0.004693
vn -0.001596 -0.999988 -0.004696
vn -0.002583 -0.999986 -0.004710
vn 1.000000 -0.000006 0.000000
vn 1.000000 0.000045 0.000000
vn 0.944431 0.000004 -0.328710
vn 0.964968 0.000119 -0.262369
vn 0.944326 -0.001964 0.329005
vn 0.975976 -0.001319 0.217872
vn 1.000000 0.000022 -0.000071
vn 1.000000 -0.000026 0.000000
vn -0.514772 -0.006821 0.857300
vn -0.514772 -0.006821 0.857300
vn -0.515931 0.000061 -0.856630
vn -0.515670 0.000046 -0.856787
vn -0.515410 0.000031 -0.856944
vn 0.944402 0.000294 -0.328794
vn 1.000000 0.000066 -0.000212
vn 0.001414 -0.999999 0.000650
vn 0.000664 -1.000000 0.000379
vn -0.010164 -0.999948 -0.000196
vn -0.009624 -0.999954 0.000402
vn 0.005734 0.931490 0.363722
vn 0.007606 0.931329 0.364099
vn 0.006468 0.929736 0.368171
vn 0.005002 0.929793 0.368049
vn 0.005321 0.928522 0.371240
vn 0.004263 0.928521 0.371255
vn -0.999994 0.001092 -0.003288
vn -0.999994 0.001092 -0.003288
vn -0.999999 0.000390 -0.001332
vn -0.999999 0.000390 -0.001332
vn -1.000000 0.000086 -0.000229
vn -1.000000 0.000086 -0.000229
vn -0.005753 -0.929868 -0.367849
vn -0.005753 -0.929868 -0.367849
vn -0.004960 -0.928426 -0.371484
vn -0.004960 -0.928426 -0.371484
vn -0.006545 -0.931275 -0.364258
vn -0.006545 -0.931275 -0.364258
vn -0.000385 0.000866 -1.000000
vn -0.000385 0.000866 -1.000000
vn -0.000283 0.001086 -0.999999
vn -0.000283 0.001086 -0.999999
vn -0.004022 -0.930058 -0.367391
vn -0.004535 -0.931660 -0.363303
vn -0.004535 -0.931660 -0.363303
vn -0.004022 -0.930058 -0.367391
vn -0.003510 -0.928447 -0.371449
vn -0.003510 -0.928447 -0.371449
vn 0.999994 0.001102 -0.003292
vn 0.999994 0.001102 -0.003292
vn 0.999999 0.000613 -0.001324
vn 0.999999 0.000613 -0.001324
vn 1.000000 0.000000 -0.000229
vn 1.000000 0.000000 -0.000229
vn 0.003536 0.929849 0.367926
vn 0.003205 0.928520 0.371270
vn 0.003861 0.931647 0.363344
vn -0.000181 0.001305 -0.999999
vn -0.000181 0.001305 -0.999999
vn -0.000838 -1.000000 -0.000163
vn 0.002122 -0.999998 0.000314
vn -0.000838 -1.000000 -0.000163
vn 0.999996 0.000977 -0.002755
vn 0.999996 0.000977 -0.002755
vn 0.003704 0.999989 -0.002851
vn 0.006849 0.999973 -0.002538
vn 0.006849 0.999973 -0.002538
vn 0.003704 0.999989 -0.002851
vn 0.009995 0.999948 -0.002225
vn 0.009995 0.999948 -0.002225
vn -0.999996 0.000957 -0.002727
vn -0.999996 0.000957 -0.002727
vn -0.014120 -0.999900 -0.000549
vn -0.011245 -0.999936 -0.001392
vn -0.011245 -0.999936 -0.001392
vn 0.005601 -0.940447 -0.339894
vn -0.002092 -0.946148 -0.323727
vn -0.002617 -0.946140 -0.323746
vn -0.009391 -0.940425 -0.339872
vn 0.000867 -0.323040 0.946385
vn 0.000867 -0.323040 0.946385
vn -0.002409 -0.323106 0.946360
vn -0.002409 -0.323106 0.946360
vn 0.004158 0.928886 0.370343
vn 0.003507 0.928914 0.370279
vn 0.003005 0.928851 0.370441
vn 0.002759 0.928862 0.370415
vn -0.999999 0.000309 -0.001075
vn -0.999999 0.000309 -0.001075
vn -1.000000 0.000000 -0.000508
vn -1.000000 0.000000 -0.000508
vn -0.013946 -0.928260 -0.371671
vn -0.013946 -0.928260 -0.371671
vn -0.012585 -0.937446 -0.347904
vn 0.008736 -0.928322 -0.371675
vn 0.008736 -0.928322 -0.371675
vn 0.009904 -0.937467 -0.347932
vn 1.000000 0.000000 -0.001048
vn 1.000000 0.000000 -0.001048
vn 1.000000 0.000000 -0.000457
vn 1.000000 0.000000 -0.000457
vn 0.004144 -0.322970 0.946400
vn 0.004144 -0.322970 0.946400
vn 0.002856 0.928942 0.370214
vn 0.002512 0.928874 0.370389
vn -0.125983 0.000021 -0.992032
vn -0.125929 0.000015 -0.992039
vn -0.125876 0.000009 -0.992046
vn -0.000301 -0.999989 -0.004679
vn 0.000002 -0.999989 -0.004681
vn 0.000305 -0.999989 -0.004684
vn -0.125450 -0.007503 0.992072
vn -0.125450 -0.007503 0.992072
vn 0.564246 0.000175 -0.825607
vn 0.564358 0.000368 -0.825530
vn 0.564134 -0.000017 -0.825683
vn 0.002969 -0.999985 -0.004714
vn 0.000007 -0.999989 -0.004712
vn 0.000007 -0.999989 -0.004697
vn 0.001847 -0.999987 -0.004697
vn -0.001833 -0.999987 -0.004697
vn -0.002956 -0.999985 -0.004709
vn 0.564061 -0.005279 0.825716
vn 0.564061 -0.005279 0.825716
vn 0.148601 0.000122 -0.988897
vn 0.148461 0.000058 -0.988918
vn 0.148321 -0.000007 -0.988939
vn 0.000366 -0.999989 -0.004678
vn 0.000007 -0.999989 -0.004680
vn -0.000351 -0.999989 -0.004681
vn 0.148775 -0.006786 0.988848
vn 0.148775 -0.006786 0.988848
vn -1.000000 0.000036 -0.000006
vn -0.957479 0.000040 -0.288504
vn -0.932212 0.000080 -0.361913
vn -1.000000 0.000047 -0.000004
vn -0.932105 -0.002930 0.362176
vn -0.970907 -0.001919 0.239449
vn -1.000000 -0.000022 -0.000031
vn -1.000000 0.000026 -0.000002
vn -1.000000 -0.000066 -0.000078
vn -0.932370 0.000020 -0.361506
vn 0.002578 -0.999986 -0.004700
vn -0.000002 -0.999989 -0.004702
vn -0.000002 -0.999989 -0.004695
vn 0.001589 -0.999988 -0.004696
vn -0.001594 -0.999988 -0.004694
vn -0.002581 -0.999986 -0.004705
vn 1.000000 0.000000 0.000000
vn 1.000000 0.000013 0.000000
vn 0.944249 -0.000011 -0.329231
vn 0.964883 0.000119 -0.262682
vn 0.944235 -0.002097 0.329265
vn 0.975938 -0.001389 0.218042
vn 1.000000 0.000022 -0.000075
vn 1.000000 0.000000 0.000000
vn -0.514629 -0.006849 0.857386
vn -0.514629 -0.006849 0.857386
vn -0.515721 0.000074 -0.856757
vn -0.515460 0.000058 -0.856914
vn -0.515200 0.000041 -0.857070
vn 0.944308 0.000309 -0.329062
vn 1.000000 0.000066 -0.000226
vn 0.001411 -0.999999 0.000649
vn 0.000661 -1.000000 0.000378
vn -0.010163 -0.999948 -0.000196
vn -0.009624 -0.999954 0.000402
vn 0.005735 0.931455 0.363811
vn 0.007609 0.931276 0.364235
vn 0.006470 0.929709 0.368239
vn 0.005003 0.929775 0.368093
vn 0.005322 0.928494 0.371309
vn 0.004263 0.928512 0.371279
vn -0.999994 0.000920 -0.003288
vn -0.999994 0.000920 -0.003288
vn -0.999999 0.000697 -0.001332
vn -0.999999 0.000697 -0.001332
vn -1.000000 0.000086 -0.000229
vn -1.000000 0.000086 -0.000229
vn -0.005752 -0.929894 -0.367782
vn -0.005752 -0.929894 -0.367782
vn -0.004960 -0.928426 -0.371484
vn -0.004960 -0.928426 -0.371484
vn -0.006543 -0.931328 -0.364124
vn -0.006543 -0.931328 -0.364124
vn -0.000385 0.000866 -1.000000
vn -0.000385 0.000866 -1.000000
vn -0.000283 0.001086 -0.999999
vn -0.000283 0.001086 -0.999999
vn -0.004024 -0.930012 -0.367506
vn -0.004537 -0.931608 -0.363437
vn -0.004537 -0.931608 -0.363437
vn -0.004024 -0.930012 -0.367506
vn -0.003510 -0.928454 -0.371430
vn -0.003510 -0.928454 -0.371430
vn 0.999994 0.000613 -0.003292
vn 0.999994 0.000613 -0.003292
vn 0.999999 0.000390 -0.001324
vn 0.999999 0.000390 -0.001324
vn 1.000000 0.000087 -0.000229
vn 1.000000 0.000087 -0.000229
vn 0.003536 0.929840 0.367946
vn 0.003205 0.928528 0.371249
vn 0.003861 0.931631 0.363385
vn -0.000181 0.001305 -0.999999
vn -0.000181 0.001305 -0.999999
vn -0.000838 -1.000000 -0.000163
vn 0.002119 -0.999998 0.000313
vn -0.000838 -1.000000 -0.000163
vn 0.999996 0.000000 -0.002755
vn 0.999996 0.000000 -0.002755
vn 0.003704 0.999989 -0.002851
vn 0.006849 0.999973 -0.002538
vn 0.006849 0.999973 -0.002538
vn 0.003704 0.999989 -0.002851
vn 0.009995 0.999948 -0.002225
vn 0.009995 0.999948 -0.002225
vn -0.999996 0.000000 -0.002727
vn -0.999996 0.000000 -0.002727
vn -0.014118 -0.999900 -0.000548
vn -0.011241 -0.999936 -0.001391
vn -0.011241 -0.999936 -0.001391
vn 0.005599 -0.940459 -0.339861
vn -0.002092 -0.946146 -0.323735
vn -0.002617 -0.946133 -0.323769
vn -0.009391 -0.940419 -0.339887
vn 0.000867 -0.323040 0.946385
vn 0.000867 -0.323040 0.946385
vn -0.002409 -0.323070 0.946372
vn -0.002409 -0.323070 0.946372
vn 0.004159 0.928858 0.370412
vn 0.003507 0.928905 0.370303
vn 0.003005 0.928851 0.370441
vn 0.002759 0.928862 0.370415
vn -0.999999 0.000557 -0.001075
vn -0.999999 0.000557 -0.001075
vn -1.000000 0.000495 -0.000508
vn -1.000000 0.000495 -0.000508
vn -0.013946 -0.928260 -0.371671
vn -0.013946 -0.928260 -0.371671
vn -0.012585 -0.937440 -0.347919
vn 0.008734 -0.928371 -0.371552
vn 0.008734 -0.928371 -0.371552
vn 0.009901 -0.937488 -0.347876
vn 0.999999 0.000557 -0.001048
vn 0.999999 0.000557 -0.001048
vn 1.000000 0.000495 -0.000457
vn 1.000000 0.000495 -0.000457
vn 0.004144 -0.323006 0.946388
vn 0.004144 -0.323006 0.946388
vn 0.002855 0.928950 0.370194
vn 0.002512 0.928874 0.370389
vn -0.125983 0.000034 -0.992032
vn -0.125929 0.000022 -0.992039
vn -0.125876 0.000009 -0.992046
vn -0.000301 -0.999989 -0.004680
vn 0.000002 -0.999989 -0.004682
vn 0.000305 -0.999989 -0.004684
vn -0.125285 -0.007498 0.992093
vn -0.125285 -0.007498 0.992093
vn 0.564095 0.000179 -0.825710
vn 0.564321 0.000374 -0.825555
vn 0.563869 -0.000017 -0.825864
vn 0.002959 -0.999985 -0.004710
vn 0.000003 -0.999989 -0.004713
vn 0.000006 -0.999989 -0.004699
vn 0.001844 -0.999987 -0.004697
vn -0.001832 -0.999987 -0.004701
vn -0.002954 -0.999985 -0.004716
vn 0.563833 -0.005367 0.825872
vn 0.563833 -0.005367 0.825872
vn 0.148830 0.000115 -0.988863
vn 0.148690 0.000054 -0.988884
vn 0.148549 -0.000007 -0.988905
vn 0.000367 -0.999989 -0.004680
vn 0.000008 -0.999989 -0.004681
vn -0.000351 -0.999989 -0.004681
vn 0.148775 -0.006805 0.988848
vn 0.148775 -0.006805 0.988848
s off
g polySurface23399
f 2/1/1 1/2/2 6/3/3 7/4/4
f 11/5/5 9/6/6 8/7/7 10/8/8
s 3
f 2/9/9 3/10/10 12/11/11 11/12/12
s off
f 10/13/13 13/14/14 4/15/15 1/16/16
s 3
f 12/17/11 3/18/10 5/19/17 14/20/18
s off
f 11/21/19 10/22/20 1/23/21 2/24/22
s 6
f 16/25/23 17/26/24 22/27/25 21/28/26
s off
f 20/29/27 23/30/28 18/31/29 15/32/30
s 6
f 22/33/25 17/34/24 19/35/31 24/36/32
s off
f 21/37/33 20/38/34 15/39/35 16/40/36
s 9
f 26/41/37 27/42/38 32/43/39 31/44/40
s off
f 30/45/41 33/46/42 28/47/43 25/48/44
s 9
f 32/49/39 27/50/38 29/51/45 34/52/46
s off
f 31/53/47 30/54/48 25/55/49 26/56/50
s 12
f 36/57/51 37/58/52 42/59/53 41/60/54
s off
f 40/61/55 43/62/56 38/63/57 35/64/58
s 12
f 42/65/53 37/66/52 39/67/59 44/68/60
s off
f 41/69/61 40/70/62 35/71/63 36/72/64
s 15
f 46/73/65 47/74/66 52/75/67 51/76/68
s off
f 50/77/69 53/78/70 48/79/71 45/80/72
s 15
f 52/81/67 47/82/66 49/83/73 54/84/74
s off
f 51/85/75 50/86/76 45/87/77 46/88/78
s 18
f 56/89/79 57/90/80 62/91/81 61/92/82
s off
f 60/93/83 63/94/84 58/95/85 55/96/86
s 18
f 62/97/81 57/98/80 59/99/87 64/100/88
s off
f 61/101/89 60/102/90 55/103/91 56/104/92
f 67/105/93 68/106/94 66/107/95 65/108/96
f 71/109/97 72/110/98 70/111/99 69/112/100
f 75/113/101 76/114/102 74/115/103 73/116/104
f 79/117/105 80/118/106 78/119/107 77/120/108
f 83/121/109 84/122/110 82/123/111 81/124/112
f 93/125/113 91/126/114 90/127/115 92/128/116
s 22
f 86/129/117 87/130/118 94/131/119 93/132/120
s off
f 92/133/121 95/134/122 88/135/123 85/136/124
s 22
f 94/137/119 87/138/118 89/139/125 96/140/126
s off
f 93/141/127 92/142/128 85/143/129 86/144/130
s 25
f 98/145/131 99/146/132 104/147/133 103/148/134
s off
f 102/149/135 105/150/136 100/151/137 97/152/138
s 25
f 104/153/133 99/154/132 101/155/139 106/156/140
s off
f 103/157/141 102/158/142 97/159/143 98/160/144
s 28
f 108/161/145 109/162/146 114/163/147 113/164/148
s off
f 112/165/149 115/166/150 110/167/151 107/168/152
s 28
f 114/169/147 109/170/146 111/171/153 116/172/154
s off
f 113/173/155 112/174/156 107/175/157 108/176/158
s 31
f 118/177/159 119/178/160 124/179/161 123/180/162
s off
f 122/181/163 125/182/164 120/183/165 117/184/166
s 31
f 124/185/161 119/186/160 121/187/167 126/188/168
s off
f 123/189/169 122/190/170 117/191/171 118/192/172
s 34
f 128/193/173 129/194/174 134/195/175 133/196/176
s off
f 132/197/177 135/198/178 130/199/179 127/200/180
s 34
f 134/201/175 129/202/174 131/203/181 136/204/182
s off
f 133/205/183 132/206/184 127/207/185 128/208/186
f 139/209/187 140/210/188 138/211/189 137/212/190
f 143/213/191 144/214/192 142/215/193 141/216/194
f 147/217/195 148/218/196 146/219/197 145/220/198
f 151/221/199 152/222/200 150/223/201 149/224/202
f 155/225/203 156/226/204 154/227/205 153/228/206
f 159/229/207 160/230/208 158/231/209 157/232/210
f 163/233/211 164/234/212 162/235/213 161/236/214
f 169/237/215 170/238/216 168/239/217 167/240/218
s 39
f 170/241/219 172/242/220 171/243/221 168/244/222
s 40
f 174/245/223 166/246/224 165/247/225 173/248/226
s 39
f 172/249/220 176/250/227 175/251/228 171/252/221
s 40
f 176/253/229 174/254/223 173/255/226 175/256/230
s 41
f 177/257/231 178/258/232 180/259/233 179/260/234
f 180/261/233 178/262/232 165/263/235 166/264/236
s off
f 179/265/237 163/266/238 161/267/239 177/268/240
s 43
f 184/269/241 185/270/242 183/271/243 182/272/244
f 181/273/245 190/274/246 182/275/244
f 187/276/247 185/277/242 184/278/241
f 189/279/248 187/280/247 184/281/241
f 187/276/247 188/282/249 186/283/250 185/277/242
f 190/274/246 189/284/248 184/285/241 182/275/244
s 44
f 181/286/251 182/287/252 250/288/253 251/289/254
f 249/290/255 250/291/253 182/292/252 183/293/256
s 43
f 194/294/257 192/295/258 193/296/259 195/297/260
f 191/298/261 192/299/258 200/300/262
f 197/301/263 194/302/257 195/303/260
f 199/304/264 194/305/257 197/306/263
f 251/307/265 252/308/266 190/309/246 181/310/245
f 247/311/267 248/312/268 185/313/242 186/314/250
f 248/315/268 249/316/269 183/317/243 185/318/242
f 197/301/263 195/303/260 196/319/270 198/320/271
f 200/300/262 192/299/258 194/321/257 199/322/264
s 45
f 205/323/272 206/324/273 203/325/274 201/326/275
s 46
f 227/327/276 228/328/277 213/329/278 215/330/279
f 208/331/280 207/332/281 215/333/279 213/334/278
s 47
f 228/335/282 229/336/283 212/337/284 213/338/285
f 209/339/286 208/340/287 213/341/285 212/342/284
s 48
f 212/343/288 216/344/289 202/345/290 209/346/291
f 229/347/292 230/348/293 216/349/289 212/350/288
s 49
f 211/351/294 210/352/295 214/353/296 201/354/297
s 48
f 221/355/298 224/356/299 225/357/300 220/358/301
f 223/359/302 204/360/303 221/361/298 220/362/301
s 50
f 225/363/304 226/364/305 219/365/306 220/366/307
f 222/367/308 223/368/309 220/369/307 219/370/306
s 46
f 219/371/310 215/372/279 207/373/281 222/374/311
f 226/375/312 227/376/276 215/377/279 219/378/310
s 49
f 218/379/313 217/380/314 201/381/297 214/382/296
s 45
f 224/356/315 206/383/273 217/384/316 225/357/317
s 50
f 217/385/318 218/386/319 226/364/305 225/363/304
s 51
f 218/387/320 214/388/321 227/376/322 226/375/323
f 214/389/321 210/390/324 228/328/325 227/327/322
s 47
f 210/391/326 211/392/327 229/336/283 228/335/282
s 45
f 211/393/328 201/394/275 203/395/274
f 211/393/328 203/395/274 230/348/329 229/347/330
f 206/383/273 205/396/272 217/384/316
s 48
f 233/397/331 234/398/332 231/399/333 232/400/334
s 52
f 231/401/335 235/402/336 236/403/337 237/404/338
s 46
f 207/405/281 208/406/280 239/407/339 240/408/340
f 236/409/341 235/410/342 240/411/340 239/412/339
s 47
f 208/413/287 209/414/286 238/415/343 239/416/344
f 237/417/345 236/418/346 239/419/344 238/420/343
s 48
f 238/421/347 241/422/348 232/423/334 237/424/349
f 209/425/291 202/426/290 241/427/348 238/428/347
f 244/429/350 204/430/303 223/431/302 243/432/351
f 246/433/352 233/434/331 244/435/350 243/436/351
s 50
f 223/437/309 222/438/308 242/439/353 243/440/354
f 245/441/355 246/442/356 243/443/354 242/444/353
s 52
f 235/445/336 231/446/335 246/447/357 245/448/358
s 46
f 242/449/359 240/450/340 235/451/342 245/452/360
f 222/453/311 207/454/281 240/455/340 242/456/359
s 48
f 246/433/352 234/457/332 233/434/331
f 237/424/349 232/423/334 231/458/333
s 43
f 259/459/361 260/460/362 248/312/268 247/311/267
f 260/461/362 261/462/363 249/316/269 248/315/268
s 44
f 261/463/364 262/464/365 250/291/253 249/290/255
f 251/289/254 250/288/253 262/465/365 263/466/366
s 43
f 263/467/367 264/468/368 252/308/266 251/307/265
f 196/469/270 195/470/260 254/471/369 253/472/370
f 195/473/260 193/474/259 255/475/371 254/476/369
s 44
f 193/477/372 192/478/373 256/479/374 255/480/375
f 257/481/376 256/482/374 192/483/373 191/484/377
s 43
f 191/485/261 200/486/262 258/487/378 257/488/379
f 265/489/380 266/490/381 260/460/362 259/459/361
f 266/491/381 267/492/382 261/462/363 260/461/362
s 44
f 267/493/383 268/494/384 262/464/365 261/463/364
f 263/466/366 262/465/365 268/495/384 269/496/385
s 43
f 269/497/386 270/498/387 264/468/368 263/467/367
f 253/472/370 254/471/369 266/490/381 265/489/380
f 254/476/369 255/475/371 267/492/382 266/491/381
s 44
f 255/480/375 256/479/374 268/494/384 267/493/383
f 269/496/385 268/495/384 256/482/374 257/481/376
s 43
f 257/488/379 258/487/378 270/498/387 269/497/386
s 53
f 274/499/388 275/500/389 273/501/390 272/502/391
f 271/503/392 280/504/393 272/505/391
f 277/506/394 275/507/389 274/508/388
f 279/509/395 277/510/394 274/511/388
f 277/506/394 278/512/396 276/513/397 275/507/389
f 280/504/393 279/514/395 274/515/388 272/505/391
s 54
f 271/516/398 272/517/399 340/518/400 341/519/401
f 339/520/402 340/521/400 272/522/399 273/523/403
s 53
f 284/524/404 282/525/405 283/526/406 285/527/407
f 281/528/408 282/529/405 290/530/409
f 287/531/410 284/532/404 285/533/407
f 289/534/411 284/535/404 287/536/410
f 341/537/412 342/538/413 280/539/393 271/540/392
f 337/541/414 338/542/415 275/543/389 276/544/397
f 338/545/415 339/546/416 273/547/390 275/548/389
f 287/531/410 285/533/407 286/549/417 288/550/418
f 290/530/409 282/529/405 284/551/404 289/552/411
s 55
f 295/553/419 296/554/420 293/555/421 291/556/422
s 56
f 317/557/423 318/558/424 303/559/425 305/560/426
f 298/561/427 297/562/428 305/563/426 303/564/425
s 57
f 318/565/429 319/566/430 302/567/431 303/568/432
f 299/569/433 298/570/434 303/571/432 302/572/431
s 58
f 302/573/435 306/574/436 292/575/437 299/576/438
f 319/577/439 320/578/440 306/579/436 302/580/435
s 59
f 301/581/441 300/582/442 304/583/443 291/584/444
s 58
f 311/585/445 314/586/446 315/587/447 310/588/448
f 313/589/449 294/590/450 311/591/445 310/592/448
s 60
f 315/593/451 316/594/452 309/595/453 310/596/454
f 312/597/455 313/598/456 310/599/454 309/600/453
s 56
f 309/601/457 305/602/426 297/603/428 312/604/458
f 316/605/459 317/606/423 305/607/426 309/608/457
s 59
f 308/609/460 307/610/461 291/611/444 304/612/443
s 55
f 314/586/462 296/613/420 307/614/463 315/587/464
s 60
f 307/615/465 308/616/466 316/594/452 315/593/451
s 61
f 308/617/467 304/618/468 317/606/469 316/605/470
f 304/619/468 300/620/471 318/558/472 317/557/469
s 57
f 300/621/473 301/622/474 319/566/430 318/565/429
s 55
f 301/623/475 291/624/422 293/625/421
f 301/623/475 293/625/421 320/578/476 319/577/477
f 296/613/420 295/626/419 307/614/463
s 58
f 323/627/478 324/628/479 321/629/480 322/630/481
s 62
f 321/631/482 325/632/483 326/633/484 327/634/485
s 56
f 297/635/428 298/636/427 329/637/486 330/638/487
f 326/639/488 325/640/489 330/641/487 329/642/486
s 57
f 298/643/434 299/644/433 328/645/490 329/646/491
f 327/647/492 326/648/493 329/649/491 328/650/490
s 58
f 328/651/494 331/652/495 322/653/481 327/654/496
f 299/655/438 292/656/437 331/657/495 328/658/494
f 334/659/497 294/660/450 313/661/449 333/662/498
f 336/663/499 323/664/478 334/665/497 333/666/498
s 60
f 313/667/456 312/668/455 332/669/500 333/670/501
f 335/671/502 336/672/503 333/673/501 332/674/500
s 62
f 325/675/483 321/676/482 336/677/504 335/678/505
s 56
f 332/679/506 330/680/487 325/681/489 335/682/507
f 312/683/458 297/684/428 330/685/487 332/686/506
s 58
f 336/663/499 324/687/479 323/664/478
f 327/654/496 322/653/481 321/688/480
s 53
f 349/689/508 350/690/509 338/542/415 337/541/414
f 350/691/509 351/692/510 339/546/416 338/545/415
s 54
f 351/693/511 352/694/512 340/521/400 339/520/402
f 341/519/401 340/518/400 352/695/512 353/696/513
s 53
f 353/697/514 354/698/515 342/538/413 341/537/412
f 286/699/417 285/700/407 344/701/516 343/702/517
f 285/703/407 283/704/406 345/705/518 344/706/516
s 54
f 283/707/519 282/708/520 346/709/521 345/710/522
f 347/711/523 346/712/521 282/713/520 281/714/524
s 53
f 281/715/408 290/716/409 348/717/525 347/718/526
f 355/719/527 356/720/528 350/690/509 349/689/508
f 356/721/528 357/722/529 351/692/510 350/691/509
s 54
f 357/723/530 358/724/531 352/694/512 351/693/511
f 353/696/513 352/695/512 358/725/531 359/726/532
s 53
f 359/727/533 360/728/534 354/698/515 353/697/514
f 343/702/517 344/701/516 356/720/528 355/719/527
f 344/706/516 345/705/518 357/722/529 356/721/528
s 54
f 345/710/522 346/709/521 358/724/531 357/723/530
f 359/726/532 358/725/531 346/712/521 347/711/523
s 53
f 347/718/526 348/717/525 360/728/534 359/727/533
