# This file uses centimeters as units for non-parametric coordinates.

g default
v -356.683990 0.052901 3.059517
v -356.684204 1.028180 5.139168
v -356.684204 0.052901 5.139168
v -356.684204 2.003459 5.139168
v -356.683380 0.052901 0.989906
v -354.604156 0.052902 3.070839
v -352.524292 1.028180 3.070564
v -352.524292 0.052902 3.070564
v -354.604492 1.028180 5.150581
v -354.604492 0.052902 5.150581
v -352.524719 1.028180 5.056358
v -352.524719 0.052902 5.056358
v -352.524292 2.003459 3.070564
v -354.604492 2.003459 5.150581
v -352.524719 2.003459 5.056358
v -352.534363 1.028180 0.990913
v -354.614044 0.052901 0.990700
v -352.534363 0.052901 0.990913
v -352.534363 2.003459 0.990913
v -358.764130 0.052902 3.069374
v -358.752777 0.052901 0.989540
v -358.763824 1.028180 5.149239
v -358.763824 0.052902 5.149239
v -360.843872 1.028180 3.069038
v -360.832458 1.028180 0.989326
v -360.843872 0.052902 3.069038
v -360.832458 0.052901 0.989326
v -360.843872 1.028180 5.065407
v -360.843872 0.052902 5.065407
v -358.763824 2.003459 5.149239
v -360.843872 2.003459 3.069038
v -360.832458 2.003459 0.989326
v -360.843872 2.003459 5.065407
v -358.762634 0.052902 -1.090599
v -356.682831 0.052901 -1.079247
v -360.842499 1.028180 -1.090294
v -360.842499 0.052902 -1.090294
v -358.762299 1.028180 -3.170311
v -356.682617 1.028180 -3.158928
v -358.762299 0.052902 -3.170311
v -356.682617 0.052901 -3.158928
v -360.842072 1.028180 -3.086906
v -360.842072 0.052902 -3.086906
v -360.842499 2.003459 -1.090294
v -358.762299 2.003459 -3.170311
v -356.682617 2.003459 -3.158928
v -360.842072 2.003459 -3.086906
v -354.602692 0.052902 -1.089134
v -354.602997 1.028180 -3.168999
v -354.602997 0.052902 -3.168999
v -352.522980 1.028180 -1.088799
v -352.522980 0.052902 -1.088799
v -352.522980 1.028180 -3.074348
v -352.522980 0.052902 -3.074348
v -354.602997 2.003459 -3.168999
v -352.522980 2.003459 -1.088799
v -352.522980 2.003459 -3.074348
v -352.458191 1.995095 5.220284
v -352.458191 2.063392 5.220284
v -352.458160 2.063392 4.809547
v -352.458160 1.995095 4.809547
v -352.875702 2.064153 4.809547
v -352.872314 1.995854 5.223366
v -352.875702 2.064151 5.223366
v -352.874969 2.064530 3.080948
v -352.457672 2.064151 3.080956
v -352.457672 1.995854 3.080956
v -352.553162 1.996992 3.080948
v -352.556763 1.995095 4.809547
v -352.872894 1.995854 5.127602
v -352.553406 1.996617 5.131355
v -352.874695 2.065099 1.005646
v -352.457031 2.064909 1.000877
v -352.457031 1.996613 1.000877
v -352.554321 1.996992 1.000870
v -354.605408 2.064909 5.227119
v -354.605408 1.996613 5.227119
v -354.605347 2.064909 4.809242
v -354.605408 1.996613 5.128502
v -356.685547 2.064909 5.227631
v -356.685547 1.996613 5.227631
v -356.690308 2.065099 4.809959
v -356.685547 1.996992 5.130325
v -356.692719 2.065289 3.080116
v -356.684692 2.065669 1.000000
v -354.604675 2.064909 3.080437
v -354.604553 2.065289 1.008034
v -360.904938 1.995095 5.226479
v -360.904938 2.063392 5.226479
v -360.494202 2.063392 5.226524
v -360.494202 1.995095 5.226524
v -360.494202 2.064153 4.808983
v -360.908020 1.995854 4.812370
v -360.908020 2.064151 4.808983
v -358.765625 2.064530 4.809700
v -358.765625 2.064151 5.227005
v -358.765625 1.995854 5.227005
v -358.765625 1.996992 5.131531
v -360.494202 1.995095 5.127907
v -360.812042 1.995854 4.811775
v -360.815582 1.996617 5.131264
v -360.911774 2.064909 3.079269
v -360.911774 1.996613 3.079269
v -360.493896 2.064909 3.079315
v -360.813171 1.996613 3.079269
v -360.912292 2.064909 0.999123
v -360.912292 1.996613 0.999123
v -360.494629 2.065099 0.994354
v -360.815002 1.996992 0.999130
v -358.764801 2.065289 0.991966
v -358.765106 2.064909 3.080017
v -360.911163 1.995095 -3.220284
v -360.911163 2.063392 -3.220284
v -360.911194 2.063392 -2.809547
v -360.911194 1.995095 -2.809547
v -360.493652 2.064153 -2.809547
v -360.497040 1.995854 -3.223366
v -360.493652 2.064151 -3.223366
v -360.494385 2.064530 -1.080948
v -360.911682 2.064151 -1.080956
v -360.911682 1.995854 -1.080956
v -360.816223 1.996992 -1.080948
v -360.812592 1.995095 -2.809547
v -360.496429 1.995854 -3.126579
v -360.815948 1.996617 -3.129303
v -358.763947 2.064909 -3.227119
v -358.763947 1.996613 -3.227119
v -358.763977 2.064909 -2.809242
v -358.763947 1.996613 -3.128502
v -356.683777 2.064909 -3.227631
v -356.683777 1.996613 -3.227631
v -356.679016 2.065099 -2.809959
v -356.683777 1.996992 -3.130325
v -356.676636 2.065289 -1.080116
v -358.764709 2.064909 -1.080437
v -352.464386 1.995095 -3.226479
v -352.464386 2.063392 -3.226479
v -352.875122 2.063392 -3.226524
v -352.875122 1.995095 -3.226524
v -352.875122 2.064153 -2.808983
v -352.461304 1.995854 -2.812370
v -352.461304 2.064151 -2.808983
v -354.603699 2.064530 -2.809700
v -354.603699 2.064151 -3.227005
v -354.603699 1.995854 -3.227005
v -354.603699 1.996992 -3.131531
v -352.875122 1.995095 -3.127907
v -352.556122 1.995854 -2.811775
v -352.551392 1.996617 -3.131264
v -352.457550 2.064909 -1.079269
v -352.457550 1.996613 -1.079269
v -352.875427 2.064909 -1.079315
v -352.556152 1.996613 -1.079269
v -354.604218 2.064909 -1.080017
v -352.611298 2.003459 5.150581
v -352.611298 1.028180 5.150581
v -352.611298 0.052902 5.150581
v -352.610901 0.052902 3.070580
v -352.620972 0.052901 0.990898
v -352.609589 0.052902 -1.088814
v -352.609619 0.052902 -3.168602
v -352.609619 1.028180 -3.168602
v -352.609619 2.003459 -3.168602
v -352.548431 2.003459 5.118736
v -352.548431 1.028180 5.118736
v -352.548431 0.052902 5.118736
v -352.548004 0.052902 3.054649
v -352.558075 0.052901 0.990906
v -352.546722 0.052902 -1.072884
v -352.546722 0.052902 -3.136742
v -352.546722 1.028180 -3.136742
v -352.546722 2.003459 -3.136742
v -360.744415 2.003459 5.148842
v -360.744415 1.028180 5.148842
v -360.744415 0.052902 5.148842
v -360.744446 0.052902 3.069061
v -360.733032 0.052901 0.989342
v -360.743042 0.052902 -1.090317
v -360.742645 0.052902 -3.170311
v -360.742645 1.028180 -3.170311
v -360.742645 2.003459 -3.170311
v -360.817505 2.003459 5.129456
v -360.817505 1.028180 5.129456
v -360.817505 0.052902 5.129456
v -360.817535 0.052902 3.059372
v -360.806122 0.052901 0.989334
v -360.816132 0.052902 -1.080627
v -360.815735 0.052902 -3.150940
v -360.815735 1.028180 -3.150940
v -360.815735 2.003459 -3.150940
vt 0.000000 0.322036
vt 0.000000 1.000000
vt 0.678011 1.000000
vt 0.678011 0.322036
vt 0.000855 0.317870
vt 0.000855 0.001086
vt 0.677156 0.317870
vt 0.000000 0.322036
vt 0.000000 1.000000
vt 0.678011 1.000000
vt 0.678011 0.322036
vt 0.000855 0.317870
vt 0.000855 0.001086
vt 0.677156 0.001086
vt 0.000000 0.322036
vt 0.000000 1.000000
vt 0.678011 1.000000
vt 0.678011 0.322036
vt 0.000000 0.322036
vt 0.000000 1.000000
vt 0.678011 1.000000
vt 0.678011 0.322036
vt 0.000855 0.001086
vt 0.677156 0.001086
vt 0.677156 0.317870
vt 0.000855 0.317870
vt 0.677156 0.317870
vt 0.000855 0.317870
vt 0.677156 0.001086
vt 0.677156 0.317870
vt 0.677156 0.001086
vt 0.000855 0.001086
vt 0.000855 0.001086
vt 0.677156 0.001086
vt 0.000855 0.317870
vt 0.677156 0.317870
vt 0.677156 0.001086
vt 0.000855 0.001086
vt 0.000855 0.001086
vt 0.677156 0.001086
vt 0.677156 0.317870
vt 0.000855 0.317870
vt 0.000855 0.317870
vt 0.677156 0.317870
vt 0.000855 0.317870
vt 0.677156 0.317870
vt 0.677156 0.001086
vt 0.000855 0.001086
vt 0.000000 0.322036
vt 0.000000 1.000000
vt 0.678011 1.000000
vt 0.678011 0.322036
vt 0.000855 0.317870
vt 0.000855 0.001086
vt 0.677156 0.317870
vt 0.000000 0.322036
vt 0.000000 1.000000
vt 0.678011 1.000000
vt 0.678011 0.322036
vt 0.000855 0.317870
vt 0.000855 0.001086
vt 0.677156 0.001086
vt 0.000000 0.322036
vt 0.000000 1.000000
vt 0.678011 1.000000
vt 0.678011 0.322036
vt 0.000000 0.322036
vt 0.000000 1.000000
vt 0.678011 1.000000
vt 0.678011 0.322036
vt 0.000855 0.001086
vt 0.677156 0.001086
vt 0.677156 0.317870
vt 0.000855 0.317870
vt 0.677156 0.317870
vt 0.000855 0.317870
vt 0.677156 0.001086
vt 0.677156 0.317870
vt 0.677156 0.001086
vt 0.000855 0.001086
vt 0.000855 0.001086
vt 0.677156 0.001086
vt 0.000855 0.317870
vt 0.677156 0.317870
vt 0.677156 0.001086
vt 0.000855 0.001086
vt 0.000855 0.001086
vt 0.677156 0.001086
vt 0.677156 0.317870
vt 0.000855 0.317870
vt 0.000855 0.317870
vt 0.677156 0.317870
vt 0.000855 0.317870
vt 0.677156 0.317870
vt 0.677156 0.001086
vt 0.000855 0.001086
vt 0.000000 0.322036
vt 0.000000 1.000000
vt 0.678011 1.000000
vt 0.678011 0.322036
vt 0.000855 0.317870
vt 0.000855 0.001086
vt 0.677156 0.317870
vt 0.000000 0.322036
vt 0.000000 1.000000
vt 0.678011 1.000000
vt 0.678011 0.322036
vt 0.000855 0.317870
vt 0.000855 0.001086
vt 0.677156 0.001086
vt 0.000000 0.322036
vt 0.000000 1.000000
vt 0.678011 1.000000
vt 0.678011 0.322036
vt 0.000000 0.322036
vt 0.000000 1.000000
vt 0.678011 1.000000
vt 0.678011 0.322036
vt 0.000855 0.001086
vt 0.677156 0.001086
vt 0.677156 0.317870
vt 0.000855 0.317870
vt 0.677156 0.317870
vt 0.000855 0.317870
vt 0.677156 0.001086
vt 0.677156 0.317870
vt 0.677156 0.001086
vt 0.000855 0.001086
vt 0.000855 0.001086
vt 0.677156 0.001086
vt 0.000855 0.317870
vt 0.677156 0.317870
vt 0.677156 0.001086
vt 0.000855 0.001086
vt 0.000855 0.001086
vt 0.677156 0.001086
vt 0.677156 0.317870
vt 0.000855 0.317870
vt 0.000855 0.317870
vt 0.677156 0.317870
vt 0.000855 0.317870
vt 0.677156 0.317870
vt 0.677156 0.001086
vt 0.000855 0.001086
vt 0.000000 0.322036
vt 0.000000 1.000000
vt 0.678011 1.000000
vt 0.678011 0.322036
vt 0.000855 0.317870
vt 0.000855 0.001086
vt 0.677156 0.317870
vt 0.000000 0.322036
vt 0.000000 1.000000
vt 0.678011 1.000000
vt 0.678011 0.322036
vt 0.000855 0.317870
vt 0.000855 0.001086
vt 0.677156 0.001086
vt 0.000000 0.322036
vt 0.000000 1.000000
vt 0.678011 1.000000
vt 0.678011 0.322036
vt 0.000000 0.322036
vt 0.000000 1.000000
vt 0.678011 1.000000
vt 0.678011 0.322036
vt 0.000855 0.001086
vt 0.677156 0.001086
vt 0.677156 0.317870
vt 0.000855 0.317870
vt 0.677156 0.317870
vt 0.000855 0.317870
vt 0.677156 0.001086
vt 0.677156 0.317870
vt 0.677156 0.001086
vt 0.000855 0.001086
vt 0.000855 0.001086
vt 0.677156 0.001086
vt 0.000855 0.317870
vt 0.677156 0.317870
vt 0.677156 0.001086
vt 0.000855 0.001086
vt 0.000855 0.001086
vt 0.677156 0.001086
vt 0.677156 0.317870
vt 0.000855 0.317870
vt 0.000855 0.317870
vt 0.677156 0.317870
vt 0.000855 0.317870
vt 0.677156 0.317870
vt 0.677156 0.001086
vt 0.000855 0.001086
vt 0.903585 0.065745
vt 0.932815 0.065745
vt 0.932817 0.249916
vt 0.903655 0.250496
vt 0.903585 0.036422
vt 0.734896 0.036422
vt 0.734896 0.007293
vt 0.903585 0.007293
vt 0.734925 0.250108
vt 0.734896 0.065745
vt 0.903585 0.984793
vt 0.734896 0.984262
vt 0.932815 0.984888
vt 0.961182 0.242181
vt 0.961229 0.984982
vt 0.961229 0.065745
vt 0.903585 0.984793
vt 0.734896 0.984262
vt 0.734925 0.250108
vt 0.903655 0.250496
vt 0.932817 0.249916
vt 0.932815 0.984888
vt 0.961182 0.242181
vt 0.961229 0.984982
vt 0.903585 0.984793
vt 0.734896 0.984262
vt 0.734925 0.250108
vt 0.903655 0.250496
vt 0.932817 0.249916
vt 0.961182 0.242181
vt 0.961229 0.984982
vt 0.932815 0.984888
vt 0.903585 0.984793
vt 0.734896 0.984262
vt 0.734925 0.250108
vt 0.903655 0.250496
vt 0.932817 0.249916
vt 0.961182 0.242181
vt 0.961229 0.984982
vt 0.932815 0.984888
vt 0.000000 1.000000
vt 0.000000 0.321078
vt 0.677219 0.321078
vt 0.677219 1.000000
vt 0.000000 0.321078
vt 0.677219 0.321078
vt 0.677219 1.000000
vt 0.000000 1.000000
vt 0.000000 0.321078
vt 0.677219 0.321078
vt 0.677219 1.000000
vt 0.000000 1.000000
vt 0.000000 0.321078
vt 0.677219 0.321078
vt 0.677219 1.000000
vt 0.000000 1.000000
vt 0.734896 0.065745
vt 0.734896 0.036422
vt 0.903585 0.036422
vt 0.903585 0.065745
vt 0.903655 0.250496
vt 0.932817 0.249916
vt 0.932815 0.984888
vt 0.903585 0.984793
vt 0.903655 0.250496
vt 0.932817 0.249916
vt 0.932815 0.984888
vt 0.903585 0.984793
vt 0.903585 0.065745
vt 0.932815 0.065745
vt 0.932817 0.249916
vt 0.903655 0.250496
vt 0.903585 0.036422
vt 0.734896 0.036422
vt 0.734896 0.007293
vt 0.903585 0.007293
vt 0.734925 0.250108
vt 0.734896 0.065745
vt 0.903585 0.984793
vt 0.734896 0.984262
vt 0.932815 0.984888
vt 0.961182 0.242181
vt 0.961229 0.984982
vt 0.961229 0.065745
vt 0.903585 0.984793
vt 0.734896 0.984262
vt 0.734925 0.250108
vt 0.903655 0.250496
vt 0.932817 0.249916
vt 0.932815 0.984888
vt 0.961182 0.242181
vt 0.961229 0.984982
vt 0.903585 0.984793
vt 0.734896 0.984262
vt 0.734925 0.250108
vt 0.903655 0.250496
vt 0.932817 0.249916
vt 0.961182 0.242181
vt 0.961229 0.984982
vt 0.932815 0.984888
vt 0.903585 0.984793
vt 0.734896 0.984262
vt 0.734925 0.250108
vt 0.903655 0.250496
vt 0.932817 0.249916
vt 0.961182 0.242181
vt 0.961229 0.984982
vt 0.932815 0.984888
vt 0.000000 1.000000
vt 0.000000 0.321078
vt 0.677219 0.321078
vt 0.677219 1.000000
vt 0.000000 0.321078
vt 0.677219 0.321078
vt 0.677219 1.000000
vt 0.000000 1.000000
vt 0.000000 0.321078
vt 0.677219 0.321078
vt 0.677219 1.000000
vt 0.000000 1.000000
vt 0.000000 0.321078
vt 0.677219 0.321078
vt 0.677219 1.000000
vt 0.000000 1.000000
vt 0.734896 0.065745
vt 0.734896 0.036422
vt 0.903585 0.036422
vt 0.903585 0.065745
vt 0.903655 0.250496
vt 0.932817 0.249916
vt 0.932815 0.984888
vt 0.903585 0.984793
vt 0.903655 0.250496
vt 0.932817 0.249916
vt 0.932815 0.984888
vt 0.903585 0.984793
vt 0.903585 0.065745
vt 0.932815 0.065745
vt 0.932817 0.249916
vt 0.903655 0.250496
vt 0.903585 0.036422
vt 0.734896 0.036422
vt 0.734896 0.007293
vt 0.903585 0.007293
vt 0.734925 0.250108
vt 0.734896 0.065745
vt 0.903585 0.984793
vt 0.734896 0.984262
vt 0.932815 0.984888
vt 0.961182 0.242181
vt 0.961229 0.984982
vt 0.961229 0.065745
vt 0.903585 0.984793
vt 0.734896 0.984262
vt 0.734925 0.250108
vt 0.903655 0.250496
vt 0.932817 0.249916
vt 0.932815 0.984888
vt 0.961182 0.242181
vt 0.961229 0.984982
vt 0.903585 0.984793
vt 0.734896 0.984262
vt 0.734925 0.250108
vt 0.903655 0.250496
vt 0.932817 0.249916
vt 0.961182 0.242181
vt 0.961229 0.984982
vt 0.932815 0.984888
vt 0.903585 0.984793
vt 0.734896 0.984262
vt 0.734925 0.250108
vt 0.903655 0.250496
vt 0.932817 0.249916
vt 0.961182 0.242181
vt 0.961229 0.984982
vt 0.932815 0.984888
vt 0.000000 1.000000
vt 0.000000 0.321078
vt 0.677219 0.321078
vt 0.677219 1.000000
vt 0.000000 0.321078
vt 0.677219 0.321078
vt 0.677219 1.000000
vt 0.000000 1.000000
vt 0.000000 0.321078
vt 0.677219 0.321078
vt 0.677219 1.000000
vt 0.000000 1.000000
vt 0.000000 0.321078
vt 0.677219 0.321078
vt 0.677219 1.000000
vt 0.000000 1.000000
vt 0.734896 0.065745
vt 0.734896 0.036422
vt 0.903585 0.036422
vt 0.903585 0.065745
vt 0.903655 0.250496
vt 0.932817 0.249916
vt 0.932815 0.984888
vt 0.903585 0.984793
vt 0.903655 0.250496
vt 0.932817 0.249916
vt 0.932815 0.984888
vt 0.903585 0.984793
vt 0.903585 0.065745
vt 0.932815 0.065745
vt 0.932817 0.249916
vt 0.903655 0.250496
vt 0.903585 0.036422
vt 0.734896 0.036422
vt 0.734896 0.007293
vt 0.903585 0.007293
vt 0.734925 0.250108
vt 0.734896 0.065745
vt 0.903585 0.984793
vt 0.734896 0.984262
vt 0.932815 0.984888
vt 0.961182 0.242181
vt 0.961229 0.984982
vt 0.961229 0.065745
vt 0.903585 0.984793
vt 0.734896 0.984262
vt 0.734925 0.250108
vt 0.903655 0.250496
vt 0.932817 0.249916
vt 0.932815 0.984888
vt 0.961182 0.242181
vt 0.961229 0.984982
vt 0.903585 0.984793
vt 0.734896 0.984262
vt 0.734925 0.250108
vt 0.903655 0.250496
vt 0.932817 0.249916
vt 0.961182 0.242181
vt 0.961229 0.984982
vt 0.932815 0.984888
vt 0.903585 0.984793
vt 0.734896 0.984262
vt 0.734925 0.250108
vt 0.903655 0.250496
vt 0.932817 0.249916
vt 0.961182 0.242181
vt 0.961229 0.984982
vt 0.932815 0.984888
vt 0.000000 1.000000
vt 0.000000 0.321078
vt 0.677219 0.321078
vt 0.677219 1.000000
vt 0.000000 0.321078
vt 0.677219 0.321078
vt 0.677219 1.000000
vt 0.000000 1.000000
vt 0.000000 0.321078
vt 0.677219 0.321078
vt 0.677219 1.000000
vt 0.000000 1.000000
vt 0.000000 0.321078
vt 0.677219 0.321078
vt 0.677219 1.000000
vt 0.000000 1.000000
vt 0.734896 0.065745
vt 0.734896 0.036422
vt 0.903585 0.036422
vt 0.903585 0.065745
vt 0.903655 0.250496
vt 0.932817 0.249916
vt 0.932815 0.984888
vt 0.903585 0.984793
vt 0.903655 0.250496
vt 0.932817 0.249916
vt 0.932815 0.984888
vt 0.903585 0.984793
vt 0.637261 0.317870
vt 0.637261 0.317870
vt 0.637261 0.001086
vt 0.039996 1.000000
vt 0.637261 0.001086
vt 0.638015 0.322036
vt 0.039996 0.322036
vt 0.638015 1.000000
vt 0.678011 0.960006
vt 0.000000 0.960006
vt 0.678011 0.960006
vt 0.000000 0.960006
vt 0.040751 0.001086
vt 0.040751 0.317870
vt 0.040751 0.001086
vt 0.040751 0.317870
vt 0.657708 0.317870
vt 0.657708 0.317870
vt 0.657708 0.001086
vt 0.019498 1.000000
vt 0.657708 0.001086
vt 0.658514 0.322036
vt 0.019498 0.322036
vt 0.658514 1.000000
vt 0.678011 0.980504
vt 0.000000 0.980504
vt 0.678011 0.980504
vt 0.000000 0.980504
vt 0.020304 0.001086
vt 0.020304 0.317870
vt 0.020304 0.001086
vt 0.020304 0.317870
vt 0.050148 0.317870
vt 0.050148 0.317870
vt 0.050148 0.001086
vt 0.000000 0.950586
vt 0.050148 0.001086
vt 0.000000 0.950586
vt 0.678011 0.950586
vt 0.628594 1.000000
vt 0.678011 0.950586
vt 0.628594 0.322036
vt 0.049418 0.322036
vt 0.049418 1.000000
vt 0.627863 0.001086
vt 0.627863 0.317870
vt 0.627863 0.001086
vt 0.627863 0.317870
vt 0.024984 0.317870
vt 0.024984 0.317870
vt 0.024984 0.001086
vt 0.000000 0.975812
vt 0.024984 0.001086
vt 0.000000 0.975812
vt 0.678011 0.975812
vt 0.653822 1.000000
vt 0.678011 0.975812
vt 0.653822 0.322036
vt 0.024190 0.322036
vt 0.024190 1.000000
vt 0.653028 0.001086
vt 0.653028 0.317870
vt 0.653028 0.001086
vt 0.653028 0.317870
vn 0.000000 -1.000000 0.000000
vn 0.000000 -1.000000 0.000000
vn 0.000000 -1.000000 0.000000
vn -0.000000 -1.000000 0.000000
vn -0.002744 0.000000 0.999996
vn -0.002744 0.000000 0.999996
vn -0.000323 0.000000 1.000000
vn -0.000323 0.000000 1.000000
vn -0.000000 -1.000000 0.000000
vn 0.000000 -1.000000 0.000000
vn 0.000000 -1.000000 0.000000
vn -0.000000 -1.000000 0.000000
vn -0.000323 0.000000 1.000000
vn -0.002744 0.000000 0.999996
vn 0.983531 0.000000 0.180742
vn 0.999997 0.000000 -0.002314
vn 0.999997 0.000000 -0.002314
vn 0.983531 0.000000 0.180742
vn 0.743442 0.000000 0.668800
vn 0.743443 0.000000 0.668800
vn -0.000000 -1.000000 0.000000
vn -0.000000 -1.000000 -0.000000
vn 0.000000 -1.000000 -0.000000
vn 0.000000 -1.000000 -0.000000
vn 0.743443 0.000000 0.668800
vn 0.983531 0.000000 0.180742
vn 1.000000 0.000000 0.000315
vn 1.000000 0.000000 0.000315
vn 0.999997 0.000000 -0.002314
vn 1.000000 0.000000 0.000315
vn -0.000000 -1.000000 0.000000
vn -0.000000 -1.000000 0.000000
vn -0.000000 -1.000000 0.000000
vn -0.000000 -1.000000 0.000000
vn -0.999996 0.000000 -0.002744
vn -0.999996 0.000000 -0.002744
vn -1.000000 0.000000 -0.000330
vn -1.000000 0.000000 -0.000330
vn -0.000000 -1.000000 0.000000
vn 0.000000 -1.000000 0.000000
vn -1.000000 0.000000 -0.000330
vn -0.999996 0.000000 -0.002744
vn -0.129370 0.000000 0.991596
vn 0.002321 0.000000 0.999997
vn 0.002321 0.000000 0.999997
vn -0.129369 0.000000 0.991597
vn -0.980996 0.000000 0.194026
vn -0.980997 0.000000 0.194025
vn -0.980996 0.000000 0.194027
vn 0.002321 0.000000 0.999997
vn -0.129372 0.000000 0.991596
vn -0.000000 -1.000000 -0.000000
vn -0.000000 -1.000000 0.000000
vn -0.000000 -1.000000 -0.000000
vn 0.000000 -1.000000 -0.000000
vn 0.002737 0.000000 -0.999996
vn 0.002737 0.000000 -0.999996
vn 0.000315 0.000000 -1.000000
vn 0.000315 0.000000 -1.000000
vn -0.000000 -1.000000 -0.000000
vn 0.000000 -1.000000 0.000000
vn 0.000315 0.000000 -1.000000
vn 0.002737 0.000000 -0.999996
vn -0.981007 0.000000 -0.193972
vn -0.999997 0.000000 0.002307
vn -0.999997 0.000000 0.002307
vn -0.981007 0.000000 -0.193973
vn -0.129176 0.000000 -0.991622
vn -0.129176 0.000000 -0.991622
vn -0.129175 0.000000 -0.991622
vn -0.999997 0.000000 0.002307
vn -0.981007 0.000000 -0.193972
vn -0.000000 -1.000000 -0.000000
vn -0.000000 -1.000000 -0.000000
vn 0.999996 0.000000 0.002737
vn 0.999996 0.000000 0.002737
vn 0.000000 -1.000000 0.000000
vn 0.000000 -1.000000 0.000000
vn 0.999996 0.000000 0.002737
vn 0.983519 0.000000 -0.180806
vn 0.743326 0.000000 -0.668930
vn 0.743326 0.000000 -0.668930
vn 0.983519 0.000000 -0.180806
vn 0.000000 -1.000000 -0.000000
vn 0.000000 -1.000000 -0.000000
vn 0.983519 0.000000 -0.180807
vn -0.002322 0.000000 -0.999997
vn -0.002322 0.000000 -0.999997
vn 0.743325 0.000000 -0.668930
vn -0.002322 0.000000 -0.999997
vn 1.000000 0.000000 0.000074
vn 1.000000 0.000000 0.000074
vn 1.000000 0.000000 0.000178
vn 1.000000 0.000000 0.000178
vn -0.004407 -0.999986 -0.003064
vn -0.000212 -0.999992 -0.004121
vn -0.000212 -0.999992 -0.004121
vn -0.004407 -0.999986 -0.003064
vn 0.000988 1.000000 0.000111
vn 0.001129 0.999999 0.000003
vn 0.001821 0.999998 0.000003
vn 0.001594 0.999999 0.000166
vn 0.001025 0.999999 0.000324
vn 0.000636 1.000000 0.000247
vn 1.000000 0.000000 0.000295
vn 1.000000 0.000000 0.000295
vn -0.007346 -0.999973 0.000671
vn -0.007346 -0.999973 0.000671
vn -0.006865 -0.999976 -0.000478
vn -0.006865 -0.999976 -0.000478
vn 0.000455 1.000000 0.000137
vn 0.000282 1.000000 0.000092
vn 1.000000 0.000000 0.000029
vn 1.000000 0.000000 0.000029
vn -0.004899 -0.999988 -0.000045
vn -0.004899 -0.999988 -0.000045
vn 0.000237 1.000000 0.000099
vn 0.000242 1.000000 0.000115
vn -0.000265 -1.000000 -0.000965
vn -0.000265 -1.000000 -0.000965
vn -0.000092 1.000000 0.000283
vn -0.000137 1.000000 0.000455
vn 0.000044 -0.999988 -0.004901
vn 0.000044 -0.999988 -0.004901
vn 0.000146 1.000000 0.000023
vn 0.000203 1.000000 0.000144
vn -0.000023 1.000000 0.000146
vn -0.000000 1.000000 -0.000000
vn 0.004790 0.000117 0.999989
vn 0.004790 0.000117 0.999989
vn 0.007412 0.000181 0.999973
vn 0.007412 0.000181 0.999973
vn 0.001207 0.000027 0.999999
vn 0.001207 0.000027 0.999999
vn -0.000027 0.000000 1.000000
vn -0.000027 0.000000 1.000000
vn -0.000112 0.000000 1.000000
vn -0.000112 0.000000 1.000000
vn -0.000195 0.000000 1.000000
vn -0.000195 0.000000 1.000000
vn 0.003048 -0.999986 -0.004409
vn 0.004106 -0.999992 -0.000214
vn 0.004106 -0.999992 -0.000214
vn 0.003048 -0.999986 -0.004409
vn -0.000111 1.000000 0.000988
vn -0.000003 0.999999 0.001129
vn -0.000002 0.999998 0.001820
vn -0.000166 0.999999 0.001593
vn -0.000324 0.999999 0.001025
vn -0.000247 1.000000 0.000636
vn -0.000289 0.000000 1.000000
vn -0.000289 0.000000 1.000000
vn -0.000672 -0.999973 -0.007347
vn -0.000672 -0.999973 -0.007347
vn 0.000478 -0.999976 -0.006867
vn 0.000478 -0.999976 -0.006867
vn -0.000098 1.000000 0.000237
vn -0.000115 1.000000 0.000242
vn 0.000965 -1.000000 -0.000265
vn 0.000965 -1.000000 -0.000265
vn -0.000282 1.000000 -0.000092
vn -0.000455 1.000000 -0.000137
vn 0.004900 -0.999988 0.000044
vn 0.004900 -0.999988 0.000044
vn -0.000144 1.000000 0.000203
vn -0.000146 1.000000 -0.000023
vn -0.999989 0.000000 0.004791
vn -0.999989 0.000000 0.004791
vn -0.999973 0.000000 0.007413
vn -0.999973 0.000000 0.007413
vn -0.999999 0.000000 0.001209
vn -0.999999 0.000000 0.001209
vn -1.000000 0.000000 -0.000022
vn -1.000000 0.000000 -0.000022
vn -1.000000 0.000000 -0.000074
vn -1.000000 0.000000 -0.000074
vn -1.000000 0.000000 -0.000178
vn -1.000000 0.000000 -0.000178
vn 0.004423 -0.999986 0.002991
vn 0.000218 -0.999992 0.004051
vn 0.000218 -0.999992 0.004051
vn 0.004423 -0.999986 0.002991
vn -0.000988 1.000000 -0.000111
vn -0.001129 0.999999 -0.000003
vn -0.001820 0.999998 -0.000003
vn -0.001594 0.999999 -0.000166
vn -0.001025 0.999999 -0.000324
vn -0.000636 1.000000 -0.000247
vn -1.000000 0.000000 -0.000288
vn -1.000000 0.000000 -0.000288
vn 0.007356 -0.999973 -0.000674
vn 0.007356 -0.999973 -0.000674
vn 0.006866 -0.999976 0.000478
vn 0.006866 -0.999976 0.000478
vn -0.000237 1.000000 -0.000098
vn -0.000242 1.000000 -0.000115
vn 0.000265 -1.000000 0.000964
vn 0.000265 -1.000000 0.000964
vn 0.000092 1.000000 -0.000283
vn 0.000137 1.000000 -0.000455
vn -0.000044 -0.999988 0.004900
vn -0.000044 -0.999988 0.004900
vn -0.000203 1.000000 -0.000144
vn 0.000023 1.000000 -0.000146
vn -0.004790 0.000120 -0.999989
vn -0.004790 0.000120 -0.999989
vn -0.007413 0.000185 -0.999973
vn -0.007413 0.000185 -0.999973
vn -0.001207 0.000027 -0.999999
vn -0.001207 0.000027 -0.999999
vn 0.000028 0.000000 -1.000000
vn 0.000028 0.000000 -1.000000
vn 0.000111 0.000000 -1.000000
vn 0.000111 0.000000 -1.000000
vn 0.000195 0.000000 -1.000000
vn 0.000195 0.000000 -1.000000
vn -0.003134 -0.999985 0.004388
vn -0.004189 -0.999991 0.000207
vn -0.004189 -0.999991 0.000207
vn -0.003134 -0.999985 0.004388
vn 0.000111 1.000000 -0.000988
vn 0.000003 0.999999 -0.001129
vn 0.000002 0.999998 -0.001820
vn 0.000166 0.999999 -0.001593
vn 0.000324 0.999999 -0.001025
vn 0.000247 1.000000 -0.000636
vn 0.000289 0.000000 -1.000000
vn 0.000289 0.000000 -1.000000
vn 0.000668 -0.999973 0.007333
vn 0.000668 -0.999973 0.007333
vn -0.000478 -0.999976 0.006867
vn -0.000478 -0.999976 0.006867
vn 0.000098 1.000000 -0.000237
vn 0.000115 1.000000 -0.000242
vn -0.000965 -0.999999 0.000265
vn -0.000965 -0.999999 0.000265
vn 0.000144 1.000000 -0.000203
vn 0.999988 0.000258 -0.004791
vn 0.999988 0.000258 -0.004791
vn 0.999973 0.000000 -0.007413
vn 0.999973 0.000000 -0.007413
vn 0.999999 0.000258 -0.001209
vn 0.999999 0.000258 -0.001209
vn 0.232297 0.000000 0.972645
vn 0.232297 0.000000 0.972645
vn 0.232297 0.000000 0.972645
vn 0.000000 -1.000000 0.000000
vn 0.000000 -1.000000 0.000000
vn 0.000000 -1.000000 0.000000
vn 0.000000 -1.000000 -0.000000
vn 0.000000 -1.000000 -0.000000
vn 0.232392 0.000000 -0.972622
vn 0.232392 0.000000 -0.972622
vn 0.232392 0.000000 -0.972622
vn -0.659210 0.000000 0.751959
vn -0.659209 0.000000 0.751960
vn -0.659211 0.000000 0.751958
vn 0.000000 -1.000000 0.000000
vn 0.000000 -1.000000 0.000000
vn 0.000000 -1.000000 -0.000000
vn 0.000000 -1.000000 -0.000000
vn 0.000000 -1.000000 0.000000
vn -0.659259 0.000000 -0.751916
vn -0.659259 0.000000 -0.751916
vn -0.659259 0.000000 -0.751916
vn 0.000000 -1.000000 0.000000
vn 0.000000 -1.000000 0.000000
vn 0.000000 -1.000000 -0.000000
vn 0.000000 -1.000000 -0.000000
vn 0.000000 -1.000000 0.000000
s 1
g polySurface23285
f 6/1/1 10/2/2 3/3/3 1/4/4
s 2
f 10/47/5 9/7/6 2/5/7 3/6/8
s 1
f 8/8/9 12/9/10 166/484/11 167/487/12
s 2
f 4/12/13 2/13/7 9/14/6 14/46/14
f 11/39/15 7/40/16 13/41/17 15/42/18
f 164/481/19 165/483/20 11/37/15 15/44/18
s 1
f 167/486/12 168/488/21 18/17/22 8/18/9
f 1/19/4 5/20/23 17/21/24 6/22/1
s 2
f 165/482/20 166/485/25 12/31/26 11/36/15
f 18/29/27 16/27/28 7/28/16 8/48/29
f 12/33/26 8/34/29 7/30/16 11/35/15
f 19/25/30 13/45/17 7/23/16 16/24/28
s 1
f 20/49/31 176/502/32 177/505/33 21/52/34
s 2
f 26/95/35 24/55/36 25/53/37 27/54/38
s 1
f 23/56/39 175/500/40 176/503/32 20/59/31
s 2
f 32/60/41 25/61/37 24/62/36 31/94/42
f 174/499/43 22/88/44 30/89/45 173/497/46
f 31/91/42 24/86/36 28/85/47 33/92/48
s 1
f 20/63/31 1/64/4 3/65/3 23/66/39
f 21/67/34 5/68/23 1/69/4 20/70/31
s 2
f 24/74/36 26/80/35 29/79/49 28/84/47
f 3/77/8 2/75/7 22/76/44 23/96/50
f 175/501/51 23/82/50 22/78/44 174/498/43
f 4/73/13 30/93/45 22/71/44 2/72/7
s 1
f 34/97/52 40/98/53 41/99/54 35/100/55
s 2
f 40/143/56 38/103/57 39/101/58 41/102/59
s 1
f 178/507/60 179/508/61 40/106/53 34/107/52
s 2
f 46/108/62 39/109/58 38/110/57 45/142/63
f 42/135/64 36/136/65 44/137/66 47/138/67
f 45/139/63 38/134/57 180/511/68 181/512/69
s 1
f 34/111/52 21/112/34 177/504/33 178/506/60
f 35/115/55 5/116/23 21/117/34 34/118/52
s 2
f 38/122/57 40/128/56 179/509/70 180/510/68
f 27/125/38 25/123/37 36/124/65 37/144/71
f 43/129/72 37/130/71 36/126/65 42/131/64
f 32/121/41 44/141/66 36/119/65 25/120/37
s 1
f 169/490/73 52/146/74 18/147/22 168/489/21
s 2
f 52/191/75 51/151/76 16/149/28 18/150/27
s 1
f 170/492/77 54/153/78 52/154/74 169/491/73
s 2
f 19/156/30 16/157/28 51/158/76 56/190/79
f 53/183/80 171/495/81 172/496/82 57/186/83
f 56/187/79 51/182/76 53/181/80 57/188/83
s 1
f 48/159/84 35/160/55 41/161/54 50/162/85
f 17/163/24 5/164/23 35/165/55 48/166/84
s 2
f 51/170/76 52/176/75 54/175/86 53/180/80
f 41/173/59 39/171/58 49/172/87 50/192/88
f 54/177/86 170/493/89 171/494/81 53/179/80
f 46/169/62 55/189/90 49/167/87 39/168/58
s 3
f 59/193/91 58/194/92 61/195/93 60/196/94
s 4
f 58/197/95 63/198/96 70/199/97 71/200/98
s 5
f 62/201/99 64/202/100 59/193/101 60/196/102
f 66/203/103 65/204/104 62/201/99 60/196/102
s 3
f 60/196/94 61/195/93 67/205/105 66/203/106
s 4
f 61/195/107 69/206/108 68/207/109 67/205/110
f 61/195/107 58/194/95 71/208/98 69/206/108
s 5
f 73/209/111 72/210/112 65/211/104 66/212/103
s 3
f 66/212/106 67/213/105 74/214/113 73/209/114
s 4
f 67/213/110 68/215/109 75/216/115 74/214/116
s 5
f 64/217/100 62/218/99 78/219/117 76/220/118
s 4
f 77/221/119 79/222/120 70/223/97 63/224/96
s 5
f 76/225/118 78/226/117 82/227/121 80/228/122
s 4
f 81/229/123 83/230/124 79/231/120 77/232/119
s 5
f 65/233/104 72/234/112 87/235/125 86/236/126
f 78/237/117 62/238/99 65/239/104 86/240/126
f 82/241/121 78/242/117 86/243/126 84/244/127
f 84/245/127 86/246/126 87/247/125 85/248/128
s 6
f 64/249/129 63/250/130 58/251/131 59/252/132
f 76/253/133 77/254/134 63/255/130 64/256/129
f 80/257/135 81/258/136 77/259/134 76/260/133
f 89/261/137 88/262/138 91/263/139 90/264/140
s 4
f 88/265/141 93/266/142 100/267/143 101/268/144
s 5
f 92/269/145 94/270/146 89/261/147 90/264/148
f 96/271/149 95/272/150 92/269/145 90/264/148
s 6
f 90/264/140 91/263/139 97/273/151 96/271/152
s 4
f 91/263/153 99/274/154 98/275/155 97/273/156
f 91/263/153 88/262/141 101/276/144 99/274/154
s 5
f 80/277/122 82/278/121 95/279/150 96/280/149
s 6
f 96/280/152 97/281/151 81/282/136 80/277/135
s 4
f 97/281/156 98/283/155 83/284/124 81/282/123
s 5
f 94/285/146 92/286/145 104/287/157 102/288/158
s 4
f 103/289/159 105/290/160 100/291/143 93/292/142
s 5
f 102/293/158 104/294/157 108/295/161 106/296/162
s 4
f 107/297/163 109/298/164 105/299/160 103/300/159
s 5
f 95/301/150 82/302/121 84/303/127 111/304/165
f 104/305/157 92/306/145 95/307/150 111/308/165
f 108/309/161 104/310/157 111/311/165 110/312/166
f 110/313/166 111/314/165 84/315/127 85/316/128
s 7
f 94/317/167 93/318/168 88/319/169 89/320/170
f 102/321/171 103/322/172 93/323/168 94/324/167
f 106/325/173 107/326/174 103/327/172 102/328/171
f 113/329/175 112/330/176 115/331/177 114/332/178
s 4
f 112/333/179 117/334/180 124/335/181 125/336/182
s 5
f 116/337/183 118/338/184 113/329/185 114/332/186
f 120/339/187 119/340/188 116/337/183 114/332/186
s 7
f 114/332/178 115/331/177 121/341/189 120/339/190
s 4
f 115/331/191 123/342/192 122/343/193 121/341/194
f 115/331/191 112/330/179 125/344/182 123/342/192
s 5
f 106/345/162 108/346/161 119/347/188 120/348/187
s 7
f 120/348/190 121/349/189 107/350/174 106/345/173
s 4
f 121/349/194 122/351/193 109/352/164 107/350/163
s 5
f 118/353/184 116/354/183 128/355/195 126/356/196
s 4
f 127/357/197 129/358/198 124/359/181 117/360/180
s 5
f 126/361/196 128/362/195 132/363/199 130/364/200
s 4
f 131/365/201 133/366/202 129/367/198 127/368/197
s 5
f 119/369/188 108/370/161 110/371/166 135/372/203
f 128/373/195 116/374/183 119/375/188 135/376/203
f 132/377/199 128/378/195 135/379/203 134/380/204
f 134/381/204 135/382/203 110/383/166 85/384/128
s 8
f 118/385/205 117/386/206 112/387/207 113/388/208
f 126/389/209 127/390/210 117/391/206 118/392/205
f 130/393/211 131/394/212 127/395/210 126/396/209
f 137/397/213 136/398/214 139/399/215 138/400/216
s 4
f 136/401/217 141/402/218 148/403/219 149/404/220
s 5
f 140/405/221 142/406/222 137/397/223 138/400/224
f 144/407/225 143/408/226 140/405/221 138/400/224
s 8
f 138/400/216 139/399/215 145/409/227 144/407/228
s 4
f 139/399/229 147/410/230 146/411/231 145/409/232
f 139/399/229 136/398/217 149/412/220 147/410/230
s 5
f 130/413/200 132/414/199 143/415/226 144/416/225
s 8
f 144/416/228 145/417/227 131/418/212 130/413/211
s 4
f 145/417/232 146/419/231 133/420/202 131/418/201
s 5
f 142/421/222 140/422/221 152/423/233 150/424/234
s 4
f 151/425/235 153/426/236 148/427/219 141/428/218
s 5
f 150/429/234 152/430/233 72/431/112 73/432/111
s 4
f 74/433/116 75/434/115 153/435/236 151/436/235
s 5
f 143/437/226 132/438/199 134/439/204 154/440/237
f 152/441/233 140/442/221 143/443/226 154/444/237
f 72/445/112 152/446/233 154/447/237 87/448/125
f 87/449/125 154/450/237 134/451/204 85/452/128
s 3
f 142/453/238 141/454/239 136/455/240 137/456/241
f 150/457/242 151/458/243 141/459/239 142/460/238
f 73/461/114 74/462/113 151/463/243 150/464/242
s 2
f 14/43/14 9/38/6 156/467/244 155/465/245
f 9/26/6 10/32/5 157/469/246 156/466/244
s 1
f 158/471/247 157/468/248 10/10/2 6/11/1
f 6/15/1 17/16/24 159/472/249 158/470/247
f 48/145/84 160/474/250 159/473/249 17/148/24
f 50/152/85 161/476/251 160/475/250 48/155/84
s 2
f 162/478/252 161/477/253 50/178/88 49/174/87
f 163/480/254 162/479/252 49/184/87 55/185/90
f 155/465/245 156/467/244 165/483/20 164/481/19
f 156/466/244 157/469/246 166/485/25 165/482/20
s 1
f 167/487/12 166/484/11 157/468/248 158/471/247
f 158/470/247 159/472/249 168/488/21 167/486/12
f 160/474/250 169/490/73 168/489/21 159/473/249
f 161/476/251 170/492/77 169/491/73 160/475/250
s 2
f 171/494/81 170/493/89 161/477/253 162/478/252
f 172/496/82 171/495/81 162/479/252 163/480/254
f 183/515/255 174/499/43 173/497/46 182/513/256
f 184/517/257 175/501/51 174/498/43 183/514/255
s 1
f 176/503/32 175/500/40 184/516/258 185/519/259
f 177/505/33 176/502/32 185/518/259 186/521/260
f 178/506/60 177/504/33 186/520/260 187/522/261
f 187/523/261 188/524/262 179/508/61 178/507/60
s 2
f 180/510/68 179/509/70 188/525/263 189/526/264
f 181/512/69 180/511/68 189/527/264 190/528/265
f 28/87/47 183/515/255 182/513/256 33/90/48
f 29/81/49 184/517/257 183/514/255 28/83/47
s 1
f 185/519/259 184/516/258 29/57/266 26/58/267
f 186/521/260 185/518/259 26/50/267 27/51/268
f 187/522/261 186/520/260 27/113/268 37/114/269
f 37/104/269 43/105/270 188/524/262 187/523/261
s 2
f 189/526/264 188/525/263 43/127/72 42/132/64
f 190/528/265 189/527/264 42/133/64 47/140/67
