# This file uses centimeters as units for non-parametric coordinates.

g default
v -334.976318 0.052901 3.068798
v -334.965637 0.052901 5.149075
v -334.976318 0.052901 0.989010
v -332.896606 1.028180 3.069103
v -332.886047 1.028180 5.149166
v -332.896606 0.052901 3.069103
v -332.886047 0.052901 5.149166
v -332.896606 1.028180 0.989330
v -332.896606 0.052901 0.989330
v -332.896606 2.003458 3.069103
v -332.886047 2.003458 5.149166
v -332.896606 2.003458 0.989330
v -337.045746 0.052901 3.068264
v -337.045746 0.052901 0.988491
v -337.042175 0.052901 5.141315
v -334.976318 0.052901 -1.090778
v -334.965210 0.052901 -3.170567
v -332.896606 1.028180 -1.090443
v -332.896606 0.052901 -1.090443
v -332.885468 1.028180 -3.170216
v -332.885468 0.052901 -3.170216
v -332.896606 2.003458 -1.090443
v -332.885468 2.003458 -3.170216
v -337.045746 0.052901 -1.091282
v -337.041870 0.052901 -3.163876
v -334.954102 0.052902 -5.250355
v -334.954376 1.028180 -7.330219
v -334.954376 0.052902 -7.330219
v -332.874359 1.028180 -5.250019
v -332.874359 0.052902 -5.250019
v -332.874359 1.028180 -7.260052
v -332.874359 0.052902 -7.260052
v -334.954376 2.003458 -7.330219
v -332.874359 2.003458 -5.250019
v -332.874359 2.003458 -7.260052
v -337.034119 1.028180 -7.319866
v -337.034210 0.052901 -5.240261
v -337.034119 0.052901 -7.319866
v -337.034119 2.003458 -7.319866
v -334.955566 0.052902 7.229183
v -337.035370 0.052901 7.218067
v -332.875702 1.028180 7.228893
v -332.875702 0.052902 7.228893
v -334.955902 1.028180 9.308918
v -337.035706 1.028180 9.297794
v -334.955902 0.052902 9.308918
v -337.035706 0.052901 9.297794
v -332.876129 1.028180 9.239178
v -332.876129 0.052902 9.239178
v -332.875702 2.003458 7.228893
v -334.955902 2.003458 9.308918
v -337.035706 2.003458 9.297794
v -332.876129 2.003458 9.239178
v -347.435120 0.052902 7.227703
v -347.423981 0.052901 5.147915
v -347.434814 1.028180 9.307568
v -347.434814 0.052902 9.307568
v -349.514832 1.028180 7.227367
v -349.503723 1.028180 5.147564
v -349.514832 0.052902 7.227367
v -349.503723 0.052901 5.147564
v -349.514832 1.028180 9.224056
v -349.514832 0.052902 9.224056
v -347.434814 2.003458 9.307568
v -349.514832 2.003458 7.227367
v -349.503723 2.003458 5.147564
v -349.514832 2.003458 9.224056
v -345.355072 1.028180 9.297230
v -345.355011 0.052901 7.217625
v -345.355072 0.052901 9.297230
v -345.347809 0.052901 5.141209
v -345.355072 2.003458 9.297230
v -347.433655 0.052902 -5.251812
v -345.353851 0.052901 -5.240696
v -349.513519 1.028180 -5.251522
v -349.513519 0.052902 -5.251522
v -347.433319 1.028180 -7.331547
v -345.353516 1.028180 -7.320431
v -347.433319 0.052902 -7.331547
v -345.353516 0.052901 -7.320431
v -349.513092 1.028180 -7.248463
v -349.513092 0.052902 -7.248463
v -349.513519 2.003458 -5.251522
v -347.433319 2.003458 -7.331547
v -345.353516 2.003458 -7.320431
v -349.513092 2.003458 -7.248463
v -349.503174 1.028180 -3.171803
v -347.423553 0.052901 -3.171711
v -349.503174 0.052901 -3.171803
v -345.347443 0.052901 -3.164074
v -349.503174 2.003458 -3.171803
v -339.115479 0.052902 -1.091305
v -339.114960 0.052901 -3.160366
v -339.115479 0.052902 0.988468
v -341.195923 0.052902 -1.091305
v -341.195038 0.052901 -3.160366
v -341.195923 0.052902 0.988468
v -339.115479 0.052902 3.068241
v -339.115356 0.052901 5.137524
v -341.195923 0.052902 3.068241
v -341.195465 0.052901 5.137524
v -343.276367 0.052902 3.068241
v -343.276367 0.052902 0.988468
v -343.275574 0.052901 5.137524
v -345.344757 0.052901 3.068424
v -345.344757 0.052901 0.988651
v -343.276367 0.052902 -1.091305
v -343.275177 0.052901 -3.160366
v -345.344757 0.052901 -1.091122
v -343.274719 0.052901 7.206951
v -341.194946 0.052901 7.206951
v -343.275024 1.028180 9.286678
v -343.275024 0.052901 9.286678
v -341.195251 1.028180 9.286678
v -341.195251 0.052901 9.286678
v -343.275024 2.003458 9.286678
v -341.195251 2.003458 9.286678
v -339.115143 0.052901 7.206951
v -339.115479 1.028180 9.286678
v -339.115479 0.052901 9.286678
v -339.115479 2.003458 9.286678
v -347.412872 0.052901 -1.091450
v -347.412842 0.052901 0.988338
v -349.492615 1.028180 -1.091755
v -349.492615 0.052901 -1.091755
v -349.492615 1.028180 0.988018
v -349.492615 0.052901 0.988018
v -349.492615 2.003458 -1.091755
v -349.492615 2.003458 0.988018
v -347.412872 0.052901 3.068127
v -349.492615 1.028180 3.067791
v -349.492615 0.052901 3.067791
v -349.492615 2.003458 3.067791
v -339.114502 0.052901 -5.229580
v -341.194275 0.052901 -5.229580
v -339.114197 1.028180 -7.309307
v -339.114197 0.052901 -7.309307
v -341.193970 1.028180 -7.309307
v -341.193970 0.052901 -7.309307
v -339.114197 2.003458 -7.309307
v -341.193970 2.003458 -7.309307
v -343.274078 0.052901 -5.229580
v -343.273743 1.028180 -7.309307
v -343.273743 0.052901 -7.309307
v -343.273743 2.003458 -7.309307
v -343.282318 2.065313 -3.161594
v -345.360962 2.065467 -3.160275
v -345.361298 2.066166 -1.079357
v -343.282318 2.065361 -1.079006
v -341.198944 2.065574 -1.079250
v -341.201630 2.065218 -3.159817
v -345.361664 2.066965 0.999584
v -343.282104 2.066917 1.000004
v -341.202789 2.066467 1.000004
v -349.171448 2.066640 3.080242
v -349.173004 2.066561 5.156536
v -347.443329 2.067249 5.154392
v -347.441772 2.067257 3.080578
v -347.441498 2.066925 0.996227
v -349.171356 2.066285 0.997677
v -345.363495 2.067257 5.159771
v -345.365692 2.067676 3.080158
v -349.588104 1.997316 5.159931
v -349.588104 2.065613 5.159092
v -349.589172 2.066023 3.080395
v -349.589172 1.997726 3.080395
v -349.491821 1.997884 5.159092
v -349.490540 1.997726 3.080395
v -349.586334 2.064980 0.999157
v -349.586334 1.996683 0.999996
v -349.490051 1.997252 0.999157
v -349.170441 2.065692 -1.080280
v -347.440765 2.066308 -1.079945
v -347.441376 2.065526 -3.166592
v -349.171753 2.065383 -3.164898
v -349.588165 2.065075 -1.080128
v -349.588165 1.996778 -1.080128
v -349.489532 1.996778 -1.080128
v -349.589294 2.064838 -3.161205
v -349.589294 1.996542 -3.161205
v -349.492004 1.996920 -3.161205
v -349.588776 1.994787 -7.381565
v -349.588776 2.063084 -7.381565
v -349.588837 2.063084 -6.970829
v -349.588837 1.994787 -6.970829
v -349.171295 2.063845 -6.970829
v -349.174683 1.995546 -7.384655
v -349.171295 2.063843 -7.384655
v -349.171997 2.064222 -5.242237
v -349.589325 2.063843 -5.242245
v -349.589325 1.995546 -5.242245
v -349.493835 1.996684 -5.242237
v -349.490204 1.994787 -6.970829
v -349.185791 1.995546 -7.290516
v -349.493561 1.996309 -7.295902
v -347.440796 2.064601 -7.388409
v -347.440796 1.996305 -7.388409
v -347.440826 2.064601 -6.970531
v -347.440796 1.996305 -7.289791
v -345.360474 2.063795 -7.385349
v -345.361328 1.995498 -7.385349
v -345.357941 2.064744 -6.970242
v -345.360474 1.996068 -7.289051
v -345.355804 2.065431 -5.240566
v -347.441559 2.064601 -5.241726
v -343.281982 2.064744 -6.969204
v -343.282318 2.065361 -5.239544
v -341.198944 2.065574 -5.239048
v -341.200348 2.064934 -6.968884
v -343.282135 2.064127 -7.386929
v -343.282135 1.995830 -7.386929
v -343.282135 1.995830 -7.288311
v -341.201843 2.063629 -7.383877
v -341.202698 1.995332 -7.383877
v -341.201843 1.995901 -7.287579
v -339.123352 2.064886 -6.967731
v -339.123688 2.065503 -5.238064
v -337.036377 2.065028 -5.239483
v -337.038055 2.064886 -6.969875
v -339.123688 2.065455 -3.160854
v -337.042084 2.067257 -3.159771
v -339.123505 2.064269 -7.385456
v -339.123505 1.995972 -7.385456
v -339.123505 1.995972 -7.286839
v -337.041779 2.064341 -7.387432
v -337.041779 1.996044 -7.387432
v -337.041779 1.996423 -7.290127
v -339.123688 2.065503 -1.079006
v -337.039886 2.067676 -1.080158
v -339.123474 2.066917 1.000004
v -337.043915 2.066965 1.000423
v -332.820740 1.994597 -7.387745
v -332.820740 2.062894 -7.387745
v -333.231476 2.062894 -7.387791
v -333.231476 1.994597 -7.387791
v -333.231476 2.063655 -6.970249
v -332.817657 1.995356 -6.973637
v -332.817657 2.063653 -6.970249
v -334.960052 2.064033 -6.970966
v -334.960052 2.063653 -7.388271
v -334.960052 1.995356 -7.388271
v -334.960052 1.996494 -7.292797
v -333.231476 1.994597 -7.289173
v -332.912109 1.995356 -6.984753
v -332.907013 1.996119 -7.292530
v -332.813904 2.064412 -5.239758
v -332.813904 1.996115 -5.239758
v -333.231781 2.064412 -5.239803
v -332.912506 1.996115 -5.239758
v -332.817474 2.065613 -3.159092
v -332.817474 1.997316 -3.159931
v -333.232574 2.066561 -3.156536
v -332.913757 1.997884 -3.159092
v -334.962250 2.067249 -3.154392
v -334.960571 2.064412 -5.240505
v -339.123260 2.067241 5.161594
v -337.044617 2.067396 5.160275
v -337.044281 2.068095 3.079357
v -339.123260 2.067289 3.079014
v -341.206635 2.067502 3.079250
v -341.203949 2.067147 5.159817
v -333.234131 2.068569 -1.080242
v -334.963806 2.069185 -1.080578
v -334.964081 2.068853 1.003773
v -333.234222 2.068213 1.002323
v -332.816406 2.067952 -1.080395
v -332.816406 1.999654 -1.080395
v -332.915039 1.999654 -1.080395
v -332.819244 2.066908 1.000843
v -332.819244 1.998611 1.000004
v -332.915527 1.999180 1.000843
v -333.235138 2.067620 3.080280
v -334.964813 2.068237 3.079945
v -334.964203 2.067454 5.166599
v -333.233826 2.067312 5.164906
v -332.817413 2.067003 3.080128
v -332.817413 1.998706 3.080128
v -332.916046 1.998706 3.080128
v -332.816284 2.066767 5.161213
v -332.816284 1.998470 5.161213
v -332.913574 1.998848 5.161205
v -332.816803 1.996715 9.381565
v -332.816803 2.065012 9.381565
v -332.816742 2.065012 8.970829
v -332.816742 1.996715 8.970829
v -333.234283 2.065773 8.970829
v -333.230896 1.997474 9.384655
v -333.234283 2.065771 9.384655
v -333.233582 2.066151 7.242237
v -332.816254 2.065771 7.242245
v -332.816254 1.997474 7.242245
v -332.911743 1.998612 7.242237
v -332.915375 1.996715 8.970829
v -333.219788 1.997474 9.291920
v -332.912018 1.998237 9.298695
v -334.964783 2.066530 9.388409
v -334.964783 1.998233 9.388409
v -334.964752 2.066530 8.970539
v -334.964783 1.998233 9.289791
v -337.045105 2.065723 9.385349
v -337.044250 1.997427 9.385349
v -337.047638 2.066672 8.970242
v -337.045105 1.997996 9.289051
v -337.049774 2.067359 7.240574
v -334.964020 2.066530 7.241726
v -339.123596 2.066672 8.969212
v -339.123260 2.067289 7.239544
v -341.206635 2.067502 7.239048
v -341.205231 2.066862 8.968884
v -339.123444 2.066055 9.386936
v -339.123444 1.997758 9.386936
v -339.123444 1.997758 9.288319
v -341.203735 2.065557 9.383877
v -341.202881 1.997261 9.383877
v -341.203735 1.997829 9.287579
v -343.282227 2.066814 8.967731
v -343.281891 2.067431 7.238071
v -345.369202 2.066957 7.239483
v -345.367523 2.066814 8.969875
v -343.281891 2.067383 5.160854
v -343.282074 2.066197 9.385456
v -343.282074 1.997900 9.385456
v -343.282074 1.997900 9.286839
v -345.363800 2.066269 9.387432
v -345.363800 1.997972 9.387432
v -345.363800 1.998351 9.290127
v -343.281891 2.067431 3.079014
v -349.584839 1.996525 9.387745
v -349.584839 2.064823 9.387745
v -349.174103 2.064822 9.387791
v -349.174103 1.996525 9.387791
v -349.174103 2.065584 8.970249
v -349.587921 1.997284 8.973637
v -349.587921 2.065581 8.970249
v -347.445526 2.065961 8.970966
v -347.445526 2.065581 9.388271
v -347.445526 1.997284 9.388271
v -347.445526 1.998423 9.292797
v -349.174103 1.996525 9.289173
v -349.492554 1.997284 8.984753
v -349.496704 1.998047 9.292530
v -349.591675 2.066340 7.239758
v -349.591675 1.998043 7.239758
v -349.173798 2.066340 7.239803
v -349.493073 1.998043 7.239758
v -347.445007 2.066340 7.240505
v -332.968384 2.003458 9.308918
v -332.968384 1.028180 9.308918
v -332.968384 0.052902 9.308918
v -332.967957 0.052902 7.228909
v -332.978271 0.052901 5.149158
v -332.988861 0.052901 3.069088
v -332.988861 0.052901 0.989307
v -332.988861 0.052901 -1.090466
v -332.977692 0.052901 -3.170231
v -332.966583 0.052902 -5.250042
v -332.966614 0.052902 -7.329815
v -332.966614 1.028180 -7.329815
v -332.966614 2.003458 -7.329815
v -332.908478 2.003458 9.290348
v -332.908478 1.028180 9.290348
v -332.908478 0.052902 9.290348
v -332.908081 0.052902 7.228901
v -332.918427 0.052901 5.149158
v -332.928986 0.052901 3.069096
v -332.928986 0.052901 0.989323
v -332.928986 0.052901 -1.090450
v -332.917816 0.052901 -3.170223
v -332.906738 0.052902 -5.250027
v -332.906769 0.052902 -7.311230
v -332.906769 1.028180 -7.311230
v -332.906769 2.003458 -7.311230
v -349.429230 2.003458 9.307171
v -349.429230 1.028180 9.307171
v -349.429230 0.052902 9.307171
v -349.429260 0.052902 7.227390
v -349.418121 0.052901 5.147594
v -349.407013 0.052901 3.067814
v -349.407013 0.052901 0.988041
v -349.407013 0.052901 -1.091732
v -349.417603 0.052901 -3.171795
v -349.427917 0.052902 -5.251537
v -349.427490 0.052902 -7.331547
v -349.427490 1.028180 -7.331547
v -349.427490 2.003458 -7.331547
v -349.489868 2.003458 9.281651
v -349.489868 1.028180 9.281651
v -349.489868 0.052902 9.281651
v -349.489868 0.052902 7.215542
v -349.478760 0.052901 5.139690
v -349.467651 0.052901 3.063854
v -349.467651 0.052901 0.988026
v -349.467651 0.052901 -1.087803
v -349.478210 0.052901 -3.163906
v -349.488586 0.052902 -5.239697
v -349.488159 0.052902 -7.308483
v -349.488159 1.028180 -7.308483
v -349.488159 2.003458 -7.308483
vt 0.000000 0.322036
vt 0.000000 1.000000
vt 0.678011 1.000000
vt 0.678011 0.322036
vt 0.677156 0.001086
vt 0.677156 0.317870
vt 0.000855 0.317870
vt 0.000855 0.001086
vt 0.000000 0.322036
vt 0.000000 1.000000
vt 0.678011 1.000000
vt 0.678011 0.322036
vt 0.677156 0.001086
vt 0.677156 0.317870
vt 0.000855 0.317870
vt 0.000855 0.001086
vt 0.677156 0.001086
vt 0.677156 0.317870
vt 0.000855 0.317870
vt 0.000855 0.001086
vt 0.677156 0.001086
vt 0.677156 0.317870
vt 0.000855 0.317870
vt 0.000855 0.001086
vt 0.000000 0.322036
vt 0.000000 1.000000
vt 0.678011 1.000000
vt 0.678011 0.322036
vt 0.000000 0.322036
vt 0.000000 1.000000
vt 0.678011 1.000000
vt 0.678011 0.322036
vt 0.000000 0.322036
vt 0.000000 1.000000
vt 0.678011 1.000000
vt 0.678011 0.322036
vt 0.677156 0.001086
vt 0.677156 0.317870
vt 0.000855 0.317870
vt 0.000855 0.001086
vt 0.000000 0.322036
vt 0.000000 1.000000
vt 0.678011 1.000000
vt 0.678011 0.322036
vt 0.677156 0.001086
vt 0.677156 0.317870
vt 0.000855 0.317870
vt 0.000855 0.001086
vt 0.677156 0.001086
vt 0.677156 0.317870
vt 0.000855 0.317870
vt 0.000855 0.001086
vt 0.677156 0.001086
vt 0.677156 0.317870
vt 0.000855 0.317870
vt 0.000855 0.001086
vt 0.000000 0.322036
vt 0.000000 1.000000
vt 0.678011 1.000000
vt 0.678011 0.322036
vt 0.000000 0.322036
vt 0.000000 1.000000
vt 0.678011 1.000000
vt 0.678011 0.322036
vt 0.000000 0.322036
vt 0.000000 1.000000
vt 0.678011 1.000000
vt 0.678011 0.322036
vt 0.000855 0.317870
vt 0.000855 0.001086
vt 0.677156 0.317870
vt 0.000000 0.322036
vt 0.000000 1.000000
vt 0.678011 1.000000
vt 0.678011 0.322036
vt 0.000855 0.317870
vt 0.000855 0.001086
vt 0.677156 0.001086
vt 0.000000 0.322036
vt 0.000000 1.000000
vt 0.678011 1.000000
vt 0.678011 0.322036
vt 0.000000 0.322036
vt 0.000000 1.000000
vt 0.678011 1.000000
vt 0.678011 0.322036
vt 0.000855 0.001086
vt 0.677156 0.001086
vt 0.677156 0.317870
vt 0.000855 0.317870
vt 0.677156 0.317870
vt 0.000855 0.317870
vt 0.677156 0.001086
vt 0.677156 0.317870
vt 0.677156 0.001086
vt 0.000855 0.001086
vt 0.000855 0.001086
vt 0.677156 0.001086
vt 0.000855 0.317870
vt 0.677156 0.317870
vt 0.677156 0.001086
vt 0.000855 0.001086
vt 0.000855 0.001086
vt 0.677156 0.001086
vt 0.677156 0.317870
vt 0.000855 0.317870
vt 0.000855 0.317870
vt 0.677156 0.317870
vt 0.000855 0.317870
vt 0.677156 0.317870
vt 0.677156 0.001086
vt 0.000855 0.001086
vt 0.000000 0.322036
vt 0.000000 1.000000
vt 0.678011 1.000000
vt 0.678011 0.322036
vt 0.000855 0.317870
vt 0.000855 0.001086
vt 0.677156 0.317870
vt 0.000000 0.322036
vt 0.000000 1.000000
vt 0.678011 1.000000
vt 0.678011 0.322036
vt 0.000855 0.317870
vt 0.000855 0.001086
vt 0.677156 0.001086
vt 0.000000 0.322036
vt 0.000000 1.000000
vt 0.678011 1.000000
vt 0.678011 0.322036
vt 0.000000 0.322036
vt 0.000000 1.000000
vt 0.678011 1.000000
vt 0.678011 0.322036
vt 0.000855 0.001086
vt 0.677156 0.001086
vt 0.677156 0.317870
vt 0.000855 0.317870
vt 0.677156 0.317870
vt 0.000855 0.317870
vt 0.677156 0.001086
vt 0.677156 0.317870
vt 0.677156 0.001086
vt 0.000855 0.001086
vt 0.000855 0.001086
vt 0.677156 0.001086
vt 0.000855 0.317870
vt 0.677156 0.317870
vt 0.677156 0.001086
vt 0.000855 0.001086
vt 0.000855 0.001086
vt 0.677156 0.001086
vt 0.677156 0.317870
vt 0.000855 0.317870
vt 0.000855 0.317870
vt 0.677156 0.317870
vt 0.000855 0.317870
vt 0.677156 0.317870
vt 0.677156 0.001086
vt 0.000855 0.001086
vt 0.000000 0.322036
vt 0.000000 1.000000
vt 0.678011 1.000000
vt 0.678011 0.322036
vt 0.000855 0.317870
vt 0.000855 0.001086
vt 0.677156 0.317870
vt 0.000000 0.322036
vt 0.000000 1.000000
vt 0.678011 1.000000
vt 0.678011 0.322036
vt 0.000855 0.317870
vt 0.000855 0.001086
vt 0.677156 0.001086
vt 0.000000 0.322036
vt 0.000000 1.000000
vt 0.678011 1.000000
vt 0.678011 0.322036
vt 0.000000 0.322036
vt 0.000000 1.000000
vt 0.678011 1.000000
vt 0.678011 0.322036
vt 0.000855 0.001086
vt 0.677156 0.001086
vt 0.677156 0.317870
vt 0.000855 0.317870
vt 0.677156 0.317870
vt 0.000855 0.317870
vt 0.677156 0.001086
vt 0.677156 0.317870
vt 0.677156 0.001086
vt 0.000855 0.001086
vt 0.000855 0.001086
vt 0.677156 0.001086
vt 0.000855 0.317870
vt 0.677156 0.317870
vt 0.677156 0.001086
vt 0.000855 0.001086
vt 0.000855 0.001086
vt 0.677156 0.001086
vt 0.677156 0.317870
vt 0.000855 0.317870
vt 0.000855 0.317870
vt 0.677156 0.317870
vt 0.000855 0.317870
vt 0.677156 0.317870
vt 0.677156 0.001086
vt 0.000855 0.001086
vt 0.000000 0.322036
vt 0.000000 1.000000
vt 0.678011 1.000000
vt 0.678011 0.322036
vt 0.000855 0.317870
vt 0.000855 0.001086
vt 0.677156 0.317870
vt 0.000000 0.322036
vt 0.000000 1.000000
vt 0.678011 1.000000
vt 0.678011 0.322036
vt 0.000855 0.317870
vt 0.000855 0.001086
vt 0.677156 0.001086
vt 0.000000 0.322036
vt 0.000000 1.000000
vt 0.678011 1.000000
vt 0.678011 0.322036
vt 0.000000 0.322036
vt 0.000000 1.000000
vt 0.678011 1.000000
vt 0.678011 0.322036
vt 0.000855 0.001086
vt 0.677156 0.001086
vt 0.677156 0.317870
vt 0.000855 0.317870
vt 0.677156 0.317870
vt 0.000855 0.317870
vt 0.677156 0.001086
vt 0.677156 0.317870
vt 0.677156 0.001086
vt 0.000855 0.001086
vt 0.000855 0.001086
vt 0.677156 0.001086
vt 0.000855 0.317870
vt 0.677156 0.317870
vt 0.677156 0.001086
vt 0.000855 0.001086
vt 0.000855 0.001086
vt 0.677156 0.001086
vt 0.677156 0.317870
vt 0.000855 0.317870
vt 0.000855 0.317870
vt 0.677156 0.317870
vt 0.000855 0.317870
vt 0.677156 0.317870
vt 0.677156 0.001086
vt 0.000855 0.001086
vt 0.000000 0.322036
vt 0.000000 1.000000
vt 0.678011 1.000000
vt 0.678011 0.322036
vt 0.000000 0.322036
vt 0.000000 1.000000
vt 0.678011 1.000000
vt 0.678011 0.322036
vt 0.000000 0.322036
vt 0.000000 1.000000
vt 0.678011 1.000000
vt 0.678011 0.322036
vt 0.000000 0.322036
vt 0.000000 1.000000
vt 0.678011 1.000000
vt 0.678011 0.322036
vt 0.000000 0.322036
vt 0.000000 1.000000
vt 0.678011 1.000000
vt 0.678011 0.322036
vt 0.000000 0.322036
vt 0.000000 1.000000
vt 0.678011 1.000000
vt 0.678011 0.322036
vt 0.000000 0.322036
vt 0.000000 1.000000
vt 0.678011 1.000000
vt 0.678011 0.322036
vt 0.000000 0.322036
vt 0.000000 1.000000
vt 0.678011 1.000000
vt 0.678011 0.322036
vt 0.000000 0.322036
vt 0.000000 1.000000
vt 0.678011 1.000000
vt 0.678011 0.322036
vt 0.000000 0.322036
vt 0.000000 1.000000
vt 0.678011 1.000000
vt 0.678011 0.322036
vt 0.000000 0.322036
vt 0.000000 1.000000
vt 0.678011 1.000000
vt 0.678011 0.322036
vt 0.000000 0.322036
vt 0.000000 1.000000
vt 0.678011 1.000000
vt 0.678011 0.322036
vt 0.000000 0.322036
vt 0.000000 1.000000
vt 0.678011 1.000000
vt 0.678011 0.322036
vt 0.000000 0.322036
vt 0.000000 1.000000
vt 0.678011 1.000000
vt 0.678011 0.322036
vt 0.000000 0.322036
vt 0.000000 1.000000
vt 0.678011 1.000000
vt 0.678011 0.322036
vt 0.000000 0.322036
vt 0.000000 1.000000
vt 0.678011 1.000000
vt 0.678011 0.322036
vt 0.000000 0.322036
vt 0.000000 1.000000
vt 0.678011 1.000000
vt 0.678011 0.322036
vt 0.677156 0.001086
vt 0.677156 0.317870
vt 0.000855 0.317870
vt 0.000855 0.001086
vt 0.000000 0.322036
vt 0.000000 1.000000
vt 0.678011 1.000000
vt 0.678011 0.322036
vt 0.677156 0.001086
vt 0.677156 0.317870
vt 0.000855 0.317870
vt 0.000855 0.001086
vt 0.677156 0.001086
vt 0.677156 0.317870
vt 0.000855 0.317870
vt 0.000855 0.001086
vt 0.677156 0.001086
vt 0.677156 0.317870
vt 0.000855 0.317870
vt 0.000855 0.001086
vt 0.000000 0.322036
vt 0.000000 1.000000
vt 0.678011 1.000000
vt 0.678011 0.322036
vt 0.000000 0.322036
vt 0.000000 1.000000
vt 0.678011 1.000000
vt 0.678011 0.322036
vt 0.000000 0.322036
vt 0.000000 1.000000
vt 0.678011 1.000000
vt 0.678011 0.322036
vt 0.677156 0.001086
vt 0.677156 0.317870
vt 0.000855 0.317870
vt 0.000855 0.001086
vt 0.000000 0.322036
vt 0.000000 1.000000
vt 0.678011 1.000000
vt 0.678011 0.322036
vt 0.677156 0.001086
vt 0.677156 0.317870
vt 0.000855 0.317870
vt 0.000855 0.001086
vt 0.677156 0.001086
vt 0.677156 0.317870
vt 0.000855 0.317870
vt 0.000855 0.001086
vt 0.677156 0.001086
vt 0.677156 0.317870
vt 0.000855 0.317870
vt 0.000855 0.001086
vt 0.000000 0.322036
vt 0.000000 1.000000
vt 0.678011 1.000000
vt 0.678011 0.322036
vt 0.000000 0.322036
vt 0.000000 1.000000
vt 0.678011 1.000000
vt 0.678011 0.322036
vt 0.000000 0.322036
vt 0.000000 1.000000
vt 0.678011 1.000000
vt 0.678011 0.322036
vt 0.677156 0.001086
vt 0.677156 0.317870
vt 0.000855 0.317870
vt 0.000855 0.001086
vt 0.000000 0.322036
vt 0.000000 1.000000
vt 0.678011 1.000000
vt 0.678011 0.322036
vt 0.677156 0.001086
vt 0.677156 0.317870
vt 0.000855 0.317870
vt 0.000855 0.001086
vt 0.677156 0.001086
vt 0.677156 0.317870
vt 0.000855 0.317870
vt 0.000855 0.001086
vt 0.677156 0.001086
vt 0.677156 0.317870
vt 0.000855 0.317870
vt 0.000855 0.001086
vt 0.000000 0.322036
vt 0.000000 1.000000
vt 0.678011 1.000000
vt 0.678011 0.322036
vt 0.000000 0.322036
vt 0.000000 1.000000
vt 0.678011 1.000000
vt 0.678011 0.322036
vt 0.000000 0.322036
vt 0.000000 1.000000
vt 0.678011 1.000000
vt 0.678011 0.322036
vt 0.677156 0.001086
vt 0.677156 0.317870
vt 0.000855 0.317870
vt 0.000855 0.001086
vt 0.000000 0.322036
vt 0.000000 1.000000
vt 0.678011 1.000000
vt 0.678011 0.322036
vt 0.677156 0.001086
vt 0.677156 0.317870
vt 0.000855 0.317870
vt 0.000855 0.001086
vt 0.677156 0.001086
vt 0.677156 0.317870
vt 0.000855 0.317870
vt 0.000855 0.001086
vt 0.677156 0.001086
vt 0.677156 0.317870
vt 0.000855 0.317870
vt 0.000855 0.001086
vt 0.000000 0.322036
vt 0.000000 1.000000
vt 0.678011 1.000000
vt 0.678011 0.322036
vt 0.000000 0.322036
vt 0.000000 1.000000
vt 0.678011 1.000000
vt 0.678011 0.322036
vt 0.000000 0.322036
vt 0.000000 1.000000
vt 0.678011 1.000000
vt 0.678011 0.322036
vt 0.677156 0.001086
vt 0.677156 0.317870
vt 0.000855 0.317870
vt 0.000855 0.001086
vt 0.000000 0.322036
vt 0.000000 1.000000
vt 0.678011 1.000000
vt 0.678011 0.322036
vt 0.677156 0.001086
vt 0.677156 0.317870
vt 0.000855 0.317870
vt 0.000855 0.001086
vt 0.677156 0.001086
vt 0.677156 0.317870
vt 0.000855 0.317870
vt 0.000855 0.001086
vt 0.677156 0.001086
vt 0.677156 0.317870
vt 0.000855 0.317870
vt 0.000855 0.001086
vt 0.000000 0.322036
vt 0.000000 1.000000
vt 0.678011 1.000000
vt 0.678011 0.322036
vt 0.000000 0.322036
vt 0.000000 1.000000
vt 0.678011 1.000000
vt 0.678011 0.322036
vt 0.000000 0.322036
vt 0.000000 1.000000
vt 0.678011 1.000000
vt 0.678011 0.322036
vt 0.677156 0.001086
vt 0.677156 0.317870
vt 0.000855 0.317870
vt 0.000855 0.001086
vt 0.000000 0.322036
vt 0.000000 1.000000
vt 0.678011 1.000000
vt 0.678011 0.322036
vt 0.677156 0.001086
vt 0.677156 0.317870
vt 0.000855 0.317870
vt 0.000855 0.001086
vt 0.677156 0.001086
vt 0.677156 0.317870
vt 0.000855 0.317870
vt 0.000855 0.001086
vt 0.677156 0.001086
vt 0.677156 0.317870
vt 0.000855 0.317870
vt 0.000855 0.001086
vt 0.000000 0.322036
vt 0.000000 1.000000
vt 0.678011 1.000000
vt 0.678011 0.322036
vt 0.000000 0.322036
vt 0.000000 1.000000
vt 0.678011 1.000000
vt 0.678011 0.322036
vt 0.000703 0.320938
vt 0.677477 0.320938
vt 0.677477 1.000277
vt 0.000703 1.000277
vt 0.000703 0.320938
vt 0.677477 0.320938
vt 0.677477 1.000277
vt 0.000703 1.000277
vt 0.677477 0.320938
vt 0.677477 1.000277
vt 0.000703 1.000277
vt 0.000703 0.320938
vt 0.677477 0.320938
vt 0.677477 1.000277
vt 0.000703 1.000277
vt 0.000703 0.320938
vt 0.000703 0.320938
vt 0.677477 0.320938
vt 0.677477 1.000277
vt 0.000703 1.000277
vt 0.000703 0.320938
vt 0.677477 0.320938
vt 0.677477 1.000277
vt 0.000703 1.000277
vt 0.677477 0.320938
vt 0.677477 1.000277
vt 0.000703 1.000277
vt 0.000703 0.320938
vt 0.677477 0.320938
vt 0.677477 1.000277
vt 0.000703 1.000277
vt 0.000703 0.320938
vt 0.903585 0.984793
vt 0.734896 0.984262
vt 0.734925 0.250108
vt 0.903655 0.250496
vt 0.932817 0.249916
vt 0.961182 0.242181
vt 0.961229 0.984982
vt 0.932815 0.984888
vt 0.903585 0.984793
vt 0.734896 0.984262
vt 0.734925 0.250108
vt 0.903655 0.250496
vt 0.932817 0.249916
vt 0.961182 0.242181
vt 0.961229 0.984982
vt 0.932815 0.984888
vt 0.903655 0.250496
vt 0.932817 0.249916
vt 0.932815 0.984888
vt 0.903585 0.984793
vt 0.903655 0.250496
vt 0.932817 0.249916
vt 0.932815 0.984888
vt 0.903585 0.984793
vt 0.000703 0.320938
vt 0.677477 0.320938
vt 0.677477 1.000277
vt 0.000703 1.000277
vt 0.000703 0.320938
vt 0.677477 0.320938
vt 0.677477 1.000277
vt 0.000703 1.000277
vt 0.677477 0.320938
vt 0.677477 1.000277
vt 0.000703 1.000277
vt 0.000703 0.320938
vt 0.677477 0.320938
vt 0.677477 1.000277
vt 0.000703 1.000277
vt 0.000703 0.320938
vt 0.903585 0.984793
vt 0.734896 0.984262
vt 0.734925 0.250108
vt 0.903655 0.250496
vt 0.932817 0.249916
vt 0.961182 0.242181
vt 0.961229 0.984982
vt 0.932815 0.984888
vt 0.903585 0.984793
vt 0.734896 0.984262
vt 0.734925 0.250108
vt 0.903655 0.250496
vt 0.932817 0.249916
vt 0.961182 0.242181
vt 0.961229 0.984982
vt 0.932815 0.984888
vt 0.903655 0.250496
vt 0.932817 0.249916
vt 0.932815 0.984888
vt 0.903585 0.984793
vt 0.903655 0.250496
vt 0.932817 0.249916
vt 0.932815 0.984888
vt 0.903585 0.984793
vt 0.903585 0.065745
vt 0.932815 0.065745
vt 0.932817 0.249916
vt 0.903655 0.250496
vt 0.903585 0.036422
vt 0.734896 0.036422
vt 0.734896 0.007293
vt 0.903585 0.007293
vt 0.734925 0.250108
vt 0.734896 0.065745
vt 0.903585 0.984793
vt 0.734896 0.984262
vt 0.932815 0.984888
vt 0.961182 0.242181
vt 0.961229 0.984982
vt 0.961229 0.065745
vt 0.903585 0.984793
vt 0.734896 0.984262
vt 0.734925 0.250108
vt 0.903655 0.250496
vt 0.932817 0.249916
vt 0.932815 0.984888
vt 0.961182 0.242181
vt 0.961229 0.984982
vt 0.903585 0.984793
vt 0.734896 0.984262
vt 0.734925 0.250108
vt 0.903655 0.250496
vt 0.932817 0.249916
vt 0.961182 0.242181
vt 0.961229 0.984982
vt 0.932815 0.984888
vt 0.903585 0.984793
vt 0.734896 0.984262
vt 0.734925 0.250108
vt 0.903655 0.250496
vt 0.932817 0.249916
vt 0.961182 0.242181
vt 0.961229 0.984982
vt 0.932815 0.984888
vt 0.000000 1.000000
vt 0.000000 0.321078
vt 0.677219 0.321078
vt 0.677219 1.000000
vt 0.000000 0.321078
vt 0.677219 0.321078
vt 0.677219 1.000000
vt 0.000000 1.000000
vt 0.000000 0.321078
vt 0.677219 0.321078
vt 0.677219 1.000000
vt 0.000000 1.000000
vt 0.000000 0.321078
vt 0.677219 0.321078
vt 0.677219 1.000000
vt 0.000000 1.000000
vt 0.734896 0.065745
vt 0.734896 0.036422
vt 0.903585 0.036422
vt 0.903585 0.065745
vt 0.903655 0.250496
vt 0.932817 0.249916
vt 0.932815 0.984888
vt 0.903585 0.984793
vt 0.903655 0.250496
vt 0.932817 0.249916
vt 0.932815 0.984888
vt 0.903585 0.984793
vt 0.000703 0.320938
vt 0.677477 0.320938
vt 0.677477 1.000277
vt 0.000703 1.000277
vt 0.000703 0.320938
vt 0.677477 0.320938
vt 0.677477 1.000277
vt 0.000703 1.000277
vt 0.677477 0.320938
vt 0.677477 1.000277
vt 0.000703 1.000277
vt 0.000703 0.320938
vt 0.677477 0.320938
vt 0.677477 1.000277
vt 0.000703 1.000277
vt 0.000703 0.320938
vt 0.903585 0.984793
vt 0.734896 0.984262
vt 0.734925 0.250108
vt 0.903655 0.250496
vt 0.932817 0.249916
vt 0.961182 0.242181
vt 0.961229 0.984982
vt 0.932815 0.984888
vt 0.903585 0.984793
vt 0.734896 0.984262
vt 0.734925 0.250108
vt 0.903655 0.250496
vt 0.932817 0.249916
vt 0.961182 0.242181
vt 0.961229 0.984982
vt 0.932815 0.984888
vt 0.903655 0.250496
vt 0.932817 0.249916
vt 0.932815 0.984888
vt 0.903585 0.984793
vt 0.903655 0.250496
vt 0.932817 0.249916
vt 0.932815 0.984888
vt 0.903585 0.984793
vt 0.000703 0.320938
vt 0.677477 0.320938
vt 0.677477 1.000277
vt 0.000703 1.000277
vt 0.000703 0.320938
vt 0.677477 0.320938
vt 0.677477 1.000277
vt 0.000703 1.000277
vt 0.677477 0.320938
vt 0.677477 1.000277
vt 0.000703 1.000277
vt 0.000703 0.320938
vt 0.677477 0.320938
vt 0.677477 1.000277
vt 0.000703 1.000277
vt 0.000703 0.320938
vt 0.903585 0.984793
vt 0.734896 0.984262
vt 0.734925 0.250108
vt 0.903655 0.250496
vt 0.932817 0.249916
vt 0.961182 0.242181
vt 0.961229 0.984982
vt 0.932815 0.984888
vt 0.903585 0.984793
vt 0.734896 0.984262
vt 0.734925 0.250108
vt 0.903655 0.250496
vt 0.932817 0.249916
vt 0.961182 0.242181
vt 0.961229 0.984982
vt 0.932815 0.984888
vt 0.903655 0.250496
vt 0.932817 0.249916
vt 0.932815 0.984888
vt 0.903585 0.984793
vt 0.903655 0.250496
vt 0.932817 0.249916
vt 0.932815 0.984888
vt 0.903585 0.984793
vt 0.000703 0.320938
vt 0.677477 0.320938
vt 0.677477 1.000277
vt 0.000703 1.000277
vt 0.000703 0.320938
vt 0.677477 0.320938
vt 0.677477 1.000277
vt 0.000703 1.000277
vt 0.677477 0.320938
vt 0.677477 1.000277
vt 0.000703 1.000277
vt 0.000703 0.320938
vt 0.677477 0.320938
vt 0.677477 1.000277
vt 0.000703 1.000277
vt 0.000703 0.320938
vt 0.903585 0.065745
vt 0.932815 0.065745
vt 0.932817 0.249916
vt 0.903655 0.250496
vt 0.903585 0.036422
vt 0.734896 0.036422
vt 0.734896 0.007293
vt 0.903585 0.007293
vt 0.734925 0.250108
vt 0.734896 0.065745
vt 0.903585 0.984793
vt 0.734896 0.984262
vt 0.932815 0.984888
vt 0.961182 0.242181
vt 0.961229 0.984982
vt 0.961229 0.065745
vt 0.903585 0.984793
vt 0.734896 0.984262
vt 0.734925 0.250108
vt 0.903655 0.250496
vt 0.932817 0.249916
vt 0.932815 0.984888
vt 0.961182 0.242181
vt 0.961229 0.984982
vt 0.903585 0.984793
vt 0.734896 0.984262
vt 0.734925 0.250108
vt 0.903655 0.250496
vt 0.932817 0.249916
vt 0.961182 0.242181
vt 0.961229 0.984982
vt 0.932815 0.984888
vt 0.903585 0.984793
vt 0.734896 0.984262
vt 0.734925 0.250108
vt 0.903655 0.250496
vt 0.932817 0.249916
vt 0.961182 0.242181
vt 0.961229 0.984982
vt 0.932815 0.984888
vt 0.000000 1.000000
vt 0.000000 0.321078
vt 0.677219 0.321078
vt 0.677219 1.000000
vt 0.000000 0.321078
vt 0.677219 0.321078
vt 0.677219 1.000000
vt 0.000000 1.000000
vt 0.000000 0.321078
vt 0.677219 0.321078
vt 0.677219 1.000000
vt 0.000000 1.000000
vt 0.000000 0.321078
vt 0.677219 0.321078
vt 0.677219 1.000000
vt 0.000000 1.000000
vt 0.734896 0.065745
vt 0.734896 0.036422
vt 0.903585 0.036422
vt 0.903585 0.065745
vt 0.903655 0.250496
vt 0.932817 0.249916
vt 0.932815 0.984888
vt 0.903585 0.984793
vt 0.903655 0.250496
vt 0.932817 0.249916
vt 0.932815 0.984888
vt 0.903585 0.984793
vt 0.000703 0.320938
vt 0.677477 0.320938
vt 0.677477 1.000277
vt 0.000703 1.000277
vt 0.000703 0.320938
vt 0.677477 0.320938
vt 0.677477 1.000277
vt 0.000703 1.000277
vt 0.677477 0.320938
vt 0.677477 1.000277
vt 0.000703 1.000277
vt 0.000703 0.320938
vt 0.677477 0.320938
vt 0.677477 1.000277
vt 0.000703 1.000277
vt 0.000703 0.320938
vt 0.000703 0.320938
vt 0.677477 0.320938
vt 0.677477 1.000277
vt 0.000703 1.000277
vt 0.000703 0.320938
vt 0.677477 0.320938
vt 0.677477 1.000277
vt 0.000703 1.000277
vt 0.677477 0.320938
vt 0.677477 1.000277
vt 0.000703 1.000277
vt 0.000703 0.320938
vt 0.677477 0.320938
vt 0.677477 1.000277
vt 0.000703 1.000277
vt 0.000703 0.320938
vt 0.903585 0.984793
vt 0.734896 0.984262
vt 0.734925 0.250108
vt 0.903655 0.250496
vt 0.932817 0.249916
vt 0.961182 0.242181
vt 0.961229 0.984982
vt 0.932815 0.984888
vt 0.903585 0.984793
vt 0.734896 0.984262
vt 0.734925 0.250108
vt 0.903655 0.250496
vt 0.932817 0.249916
vt 0.961182 0.242181
vt 0.961229 0.984982
vt 0.932815 0.984888
vt 0.903655 0.250496
vt 0.932817 0.249916
vt 0.932815 0.984888
vt 0.903585 0.984793
vt 0.903655 0.250496
vt 0.932817 0.249916
vt 0.932815 0.984888
vt 0.903585 0.984793
vt 0.000703 0.320938
vt 0.677477 0.320938
vt 0.677477 1.000277
vt 0.000703 1.000277
vt 0.000703 0.320938
vt 0.677477 0.320938
vt 0.677477 1.000277
vt 0.000703 1.000277
vt 0.677477 0.320938
vt 0.677477 1.000277
vt 0.000703 1.000277
vt 0.000703 0.320938
vt 0.677477 0.320938
vt 0.677477 1.000277
vt 0.000703 1.000277
vt 0.000703 0.320938
vt 0.903585 0.984793
vt 0.734896 0.984262
vt 0.734925 0.250108
vt 0.903655 0.250496
vt 0.932817 0.249916
vt 0.961182 0.242181
vt 0.961229 0.984982
vt 0.932815 0.984888
vt 0.903585 0.984793
vt 0.734896 0.984262
vt 0.734925 0.250108
vt 0.903655 0.250496
vt 0.932817 0.249916
vt 0.961182 0.242181
vt 0.961229 0.984982
vt 0.932815 0.984888
vt 0.903655 0.250496
vt 0.932817 0.249916
vt 0.932815 0.984888
vt 0.903585 0.984793
vt 0.903655 0.250496
vt 0.932817 0.249916
vt 0.932815 0.984888
vt 0.903585 0.984793
vt 0.903585 0.065745
vt 0.932815 0.065745
vt 0.932817 0.249916
vt 0.903655 0.250496
vt 0.903585 0.036422
vt 0.734896 0.036422
vt 0.734896 0.007293
vt 0.903585 0.007293
vt 0.734925 0.250108
vt 0.734896 0.065745
vt 0.903585 0.984793
vt 0.734896 0.984262
vt 0.932815 0.984888
vt 0.961182 0.242181
vt 0.961229 0.984982
vt 0.961229 0.065745
vt 0.903585 0.984793
vt 0.734896 0.984262
vt 0.734925 0.250108
vt 0.903655 0.250496
vt 0.932817 0.249916
vt 0.932815 0.984888
vt 0.961182 0.242181
vt 0.961229 0.984982
vt 0.903585 0.984793
vt 0.734896 0.984262
vt 0.734925 0.250108
vt 0.903655 0.250496
vt 0.932817 0.249916
vt 0.961182 0.242181
vt 0.961229 0.984982
vt 0.932815 0.984888
vt 0.903585 0.984793
vt 0.734896 0.984262
vt 0.734925 0.250108
vt 0.903655 0.250496
vt 0.932817 0.249916
vt 0.961182 0.242181
vt 0.961229 0.984982
vt 0.932815 0.984888
vt 0.000000 1.000000
vt 0.000000 0.321078
vt 0.677219 0.321078
vt 0.677219 1.000000
vt 0.000000 0.321078
vt 0.677219 0.321078
vt 0.677219 1.000000
vt 0.000000 1.000000
vt 0.000000 0.321078
vt 0.677219 0.321078
vt 0.677219 1.000000
vt 0.000000 1.000000
vt 0.000000 0.321078
vt 0.677219 0.321078
vt 0.677219 1.000000
vt 0.000000 1.000000
vt 0.734896 0.065745
vt 0.734896 0.036422
vt 0.903585 0.036422
vt 0.903585 0.065745
vt 0.903655 0.250496
vt 0.932817 0.249916
vt 0.932815 0.984888
vt 0.903585 0.984793
vt 0.903655 0.250496
vt 0.932817 0.249916
vt 0.932815 0.984888
vt 0.903585 0.984793
vt 0.000703 0.320938
vt 0.677477 0.320938
vt 0.677477 1.000277
vt 0.000703 1.000277
vt 0.000703 0.320938
vt 0.677477 0.320938
vt 0.677477 1.000277
vt 0.000703 1.000277
vt 0.677477 0.320938
vt 0.677477 1.000277
vt 0.000703 1.000277
vt 0.000703 0.320938
vt 0.677477 0.320938
vt 0.677477 1.000277
vt 0.000703 1.000277
vt 0.000703 0.320938
vt 0.903585 0.984793
vt 0.734896 0.984262
vt 0.734925 0.250108
vt 0.903655 0.250496
vt 0.932817 0.249916
vt 0.961182 0.242181
vt 0.961229 0.984982
vt 0.932815 0.984888
vt 0.903585 0.984793
vt 0.734896 0.984262
vt 0.734925 0.250108
vt 0.903655 0.250496
vt 0.932817 0.249916
vt 0.961182 0.242181
vt 0.961229 0.984982
vt 0.932815 0.984888
vt 0.903655 0.250496
vt 0.932817 0.249916
vt 0.932815 0.984888
vt 0.903585 0.984793
vt 0.903655 0.250496
vt 0.932817 0.249916
vt 0.932815 0.984888
vt 0.903585 0.984793
vt 0.000703 0.320938
vt 0.677477 0.320938
vt 0.677477 1.000277
vt 0.000703 1.000277
vt 0.000703 0.320938
vt 0.677477 0.320938
vt 0.677477 1.000277
vt 0.000703 1.000277
vt 0.677477 0.320938
vt 0.677477 1.000277
vt 0.000703 1.000277
vt 0.000703 0.320938
vt 0.677477 0.320938
vt 0.677477 1.000277
vt 0.000703 1.000277
vt 0.000703 0.320938
vt 0.903585 0.984793
vt 0.734896 0.984262
vt 0.734925 0.250108
vt 0.903655 0.250496
vt 0.932817 0.249916
vt 0.961182 0.242181
vt 0.961229 0.984982
vt 0.932815 0.984888
vt 0.903585 0.984793
vt 0.734896 0.984262
vt 0.734925 0.250108
vt 0.903655 0.250496
vt 0.932817 0.249916
vt 0.961182 0.242181
vt 0.961229 0.984982
vt 0.932815 0.984888
vt 0.903655 0.250496
vt 0.932817 0.249916
vt 0.932815 0.984888
vt 0.903585 0.984793
vt 0.903655 0.250496
vt 0.932817 0.249916
vt 0.932815 0.984888
vt 0.903585 0.984793
vt 0.000703 0.320938
vt 0.677477 0.320938
vt 0.677477 1.000277
vt 0.000703 1.000277
vt 0.000703 0.320938
vt 0.677477 0.320938
vt 0.677477 1.000277
vt 0.000703 1.000277
vt 0.677477 0.320938
vt 0.677477 1.000277
vt 0.000703 1.000277
vt 0.000703 0.320938
vt 0.677477 0.320938
vt 0.677477 1.000277
vt 0.000703 1.000277
vt 0.000703 0.320938
vt 0.903585 0.065745
vt 0.932815 0.065745
vt 0.932817 0.249916
vt 0.903655 0.250496
vt 0.903585 0.036422
vt 0.734896 0.036422
vt 0.734896 0.007293
vt 0.903585 0.007293
vt 0.734925 0.250108
vt 0.734896 0.065745
vt 0.903585 0.984793
vt 0.734896 0.984262
vt 0.932815 0.984888
vt 0.961182 0.242181
vt 0.961229 0.984982
vt 0.961229 0.065745
vt 0.903585 0.984793
vt 0.734896 0.984262
vt 0.734925 0.250108
vt 0.903655 0.250496
vt 0.932817 0.249916
vt 0.932815 0.984888
vt 0.961182 0.242181
vt 0.961229 0.984982
vt 0.903585 0.984793
vt 0.734896 0.984262
vt 0.734925 0.250108
vt 0.903655 0.250496
vt 0.932817 0.249916
vt 0.961182 0.242181
vt 0.961229 0.984982
vt 0.932815 0.984888
vt 0.903585 0.984793
vt 0.734896 0.984262
vt 0.734925 0.250108
vt 0.903655 0.250496
vt 0.932817 0.249916
vt 0.961182 0.242181
vt 0.961229 0.984982
vt 0.932815 0.984888
vt 0.000000 1.000000
vt 0.000000 0.321078
vt 0.677219 0.321078
vt 0.677219 1.000000
vt 0.000000 0.321078
vt 0.677219 0.321078
vt 0.677219 1.000000
vt 0.000000 1.000000
vt 0.000000 0.321078
vt 0.677219 0.321078
vt 0.677219 1.000000
vt 0.000000 1.000000
vt 0.000000 0.321078
vt 0.677219 0.321078
vt 0.677219 1.000000
vt 0.000000 1.000000
vt 0.734896 0.065745
vt 0.734896 0.036422
vt 0.903585 0.036422
vt 0.903585 0.065745
vt 0.903655 0.250496
vt 0.932817 0.249916
vt 0.932815 0.984888
vt 0.903585 0.984793
vt 0.903655 0.250496
vt 0.932817 0.249916
vt 0.932815 0.984888
vt 0.903585 0.984793
vt 0.639904 0.317870
vt 0.639904 0.317870
vt 0.639904 0.001086
vt 0.037346 1.000000
vt 0.639904 0.001086
vt 0.640666 0.322036
vt 0.037346 0.322036
vt 0.640666 1.000000
vt 0.678011 0.962657
vt 0.000000 0.962657
vt 0.678011 0.962657
vt 0.000000 0.962657
vt 0.678011 0.962657
vt 0.000000 0.962657
vt 0.678011 0.962657
vt 0.000000 0.962657
vt 0.678011 0.962657
vt 0.000000 0.962657
vt 0.678011 0.962657
vt 0.000000 0.962657
vt 0.038107 0.001086
vt 0.038107 0.317870
vt 0.038107 0.001086
vt 0.038107 0.317870
vt 0.659372 0.317870
vt 0.659372 0.317870
vt 0.659372 0.001086
vt 0.017829 1.000000
vt 0.659372 0.001086
vt 0.660182 0.322036
vt 0.017829 0.322036
vt 0.660182 1.000000
vt 0.678011 0.982172
vt 0.000000 0.982172
vt 0.678011 0.982172
vt 0.000000 0.982172
vt 0.678011 0.982172
vt 0.000000 0.982172
vt 0.678011 0.982172
vt 0.000000 0.982172
vt 0.678011 0.982172
vt 0.000000 0.982172
vt 0.678011 0.982172
vt 0.000000 0.982172
vt 0.018640 0.001086
vt 0.018640 0.317870
vt 0.018640 0.001086
vt 0.018640 0.317870
vt 0.047383 0.317870
vt 0.047383 0.317870
vt 0.047383 0.001086
vt 0.000000 0.953358
vt 0.047383 0.001086
vt 0.000000 0.953358
vt 0.678011 0.953358
vt 0.000000 0.953358
vt 0.678011 0.953358
vt 0.000000 0.953358
vt 0.678011 0.953358
vt 0.000000 0.953358
vt 0.678011 0.953358
vt 0.000000 0.953358
vt 0.678011 0.953358
vt 0.631366 1.000000
vt 0.678011 0.953358
vt 0.631366 0.322036
vt 0.046645 0.322036
vt 0.046645 1.000000
vt 0.630629 0.001086
vt 0.630629 0.317870
vt 0.630629 0.001086
vt 0.630629 0.317870
vt 0.022763 0.317870
vt 0.022763 0.317870
vt 0.022763 0.001086
vt 0.000000 0.978038
vt 0.022763 0.001086
vt 0.000000 0.978038
vt 0.678011 0.978038
vt 0.000000 0.978038
vt 0.678011 0.978038
vt 0.000000 0.978038
vt 0.678011 0.978038
vt 0.000000 0.978038
vt 0.678011 0.978038
vt 0.000000 0.978038
vt 0.678011 0.978038
vt 0.656048 1.000000
vt 0.678011 0.978038
vt 0.656048 0.322036
vt 0.021963 0.322036
vt 0.021963 1.000000
vt 0.655248 0.001086
vt 0.655248 0.317870
vt 0.655248 0.001086
vt 0.655248 0.317870
vn 0.000000 -1.000000 0.000000
vn 0.000000 -1.000000 0.000000
vn 0.000000 -1.000000 0.000000
vn 0.000000 -1.000000 0.000000
vn 0.999997 0.000000 -0.002538
vn 0.999997 0.000000 -0.002538
vn 0.999987 0.000000 -0.005025
vn 0.999987 0.000000 -0.005025
vn 0.000000 -1.000000 0.000000
vn 0.000000 -1.000000 0.000000
vn 1.000000 0.000000 0.000000
vn 1.000000 0.000000 0.000000
vn 0.999997 0.000000 -0.002538
vn 0.999987 0.000000 -0.005025
vn 1.000000 0.000000 0.000000
vn 0.000000 -1.000000 -0.000000
vn -0.000000 -1.000000 -0.000000
vn -0.000000 -1.000000 0.000000
vn 0.000000 -1.000000 0.000000
vn 0.000000 -1.000000 0.000000
vn -0.000000 -1.000000 -0.000000
vn 0.000000 -1.000000 0.000000
vn 0.000000 -1.000000 0.000000
vn 0.999996 0.000000 0.002678
vn 0.999996 0.000000 0.002678
vn 0.000000 -1.000000 -0.000000
vn 0.000000 -1.000000 -0.000000
vn 0.999986 0.000000 0.005348
vn 0.999986 0.000000 0.005348
vn 0.999996 0.000000 0.002678
vn 0.999986 0.000000 0.005348
vn 0.000000 -1.000000 -0.000000
vn -0.000000 -1.000000 0.000000
vn -0.000000 -1.000000 0.000000
vn 0.000000 -1.000000 -0.000000
vn 0.000000 -1.000000 -0.000000
vn 0.000000 -1.000000 -0.000000
vn 0.999996 0.000000 0.002671
vn 0.999996 0.000000 0.002671
vn 0.000000 -1.000000 -0.000000
vn 0.000000 -1.000000 -0.000000
vn 0.999996 0.000000 0.002671
vn 0.960428 0.000000 -0.278530
vn 0.608120 0.000000 -0.793845
vn 0.608120 0.000000 -0.793845
vn 0.960428 0.000000 -0.278530
vn 0.000000 -1.000000 -0.000000
vn 0.000000 -1.000000 -0.000000
vn 0.000000 -1.000000 -0.000000
vn 0.000000 -1.000000 0.000000
vn 0.960428 0.000000 -0.278529
vn -0.005027 0.000000 -0.999987
vn -0.005027 0.000000 -0.999987
vn -0.002387 0.000000 -0.999997
vn -0.002387 0.000000 -0.999997
vn 0.608120 0.000000 -0.793845
vn -0.005027 0.000000 -0.999987
vn -0.002387 0.000000 -0.999997
vn 0.000000 -1.000000 0.000000
vn 0.000000 -1.000000 0.000000
vn 0.000000 -1.000000 0.000000
vn 0.000000 -1.000000 0.000000
vn -0.002674 0.000000 0.999996
vn -0.002674 0.000000 0.999996
vn -0.005346 0.000000 0.999986
vn -0.005347 0.000000 0.999986
vn 0.000000 -1.000000 0.000000
vn 0.000000 -1.000000 0.000000
vn 0.000000 -1.000000 0.000000
vn 0.000000 -1.000000 0.000000
vn -0.005346 0.000000 0.999986
vn -0.002674 0.000000 0.999996
vn 0.960507 0.000000 0.278256
vn 0.999997 0.000000 -0.002381
vn 0.999997 0.000000 -0.002381
vn 0.960508 0.000000 0.278254
vn 0.608223 0.000000 0.793766
vn 0.608224 0.000000 0.793765
vn 0.608226 0.000000 0.793764
vn 0.960506 0.000000 0.278258
vn 0.999997 0.000000 -0.002381
vn -0.000000 -1.000000 0.000000
vn -0.000000 -1.000000 0.000000
vn -0.000000 -1.000000 0.000000
vn -0.000000 -1.000000 0.000000
vn -0.999996 0.000000 -0.002671
vn -0.999996 0.000000 -0.002671
vn -0.999986 0.000000 -0.005341
vn -0.999986 0.000000 -0.005341
vn -0.000000 -1.000000 0.000000
vn 0.000000 -1.000000 0.000000
vn -0.999986 0.000000 -0.005341
vn -0.999996 0.000000 -0.002671
vn -0.197963 0.000000 0.980210
vn 0.002386 0.000000 0.999997
vn 0.002386 0.000000 0.999997
vn -0.197966 0.000000 0.980209
vn -0.979163 0.000000 0.203074
vn -0.979163 0.000000 0.203074
vn -0.000000 -1.000000 0.000000
vn -0.000000 -1.000000 0.000000
vn 0.000000 -1.000000 -0.000000
vn -0.979163 0.000000 0.203074
vn 0.005022 0.000000 0.999987
vn 0.005022 0.000000 0.999987
vn 0.002386 0.000000 0.999997
vn -0.197960 0.000000 0.980210
vn 0.005022 0.000000 0.999987
vn -0.000000 -1.000000 -0.000000
vn -0.000000 -1.000000 -0.000000
vn -0.000000 -1.000000 -0.000000
vn -0.000000 -1.000000 -0.000000
vn 0.002672 0.000000 -0.999996
vn 0.002672 0.000000 -0.999996
vn 0.005347 0.000000 -0.999986
vn 0.005347 0.000000 -0.999986
vn -0.000000 -1.000000 -0.000000
vn 0.000000 -1.000000 0.000000
vn 0.005347 0.000000 -0.999986
vn 0.002672 0.000000 -0.999996
vn -0.980665 0.000000 -0.195694
vn -0.999997 0.000000 0.002380
vn -0.999997 0.000000 0.002380
vn -0.980665 0.000000 -0.195695
vn -0.180645 0.000000 -0.983548
vn -0.180643 0.000000 -0.983549
vn -0.000000 -1.000000 -0.000000
vn -0.000000 -1.000000 -0.000000
vn 0.000000 -1.000000 0.000000
vn -0.180647 0.000000 -0.983548
vn -0.999987 0.000000 0.005025
vn -0.999987 0.000000 0.005025
vn -0.999997 0.000000 0.002380
vn -0.980665 0.000000 -0.195694
vn -0.999987 0.000000 0.005025
vn -0.000000 -1.000000 0.000000
vn -0.000000 -1.000000 0.000000
vn -0.000000 -1.000000 0.000000
vn 0.000000 -1.000000 0.000000
vn 0.000000 -1.000000 0.000000
vn 0.000000 -1.000000 0.000000
vn -0.000000 -1.000000 -0.000000
vn -0.000000 -1.000000 -0.000000
vn 0.000000 -1.000000 -0.000000
vn 0.000000 -1.000000 -0.000000
vn 0.000000 -1.000000 -0.000000
vn 0.000000 -1.000000 0.000000
vn 0.000000 -1.000000 -0.000000
vn 0.000000 -1.000000 -0.000000
vn 0.000000 -1.000000 0.000000
vn 0.000000 -1.000000 0.000000
vn 0.000000 -1.000000 0.000000
vn 0.000000 -1.000000 0.000000
vn 0.000000 -1.000000 0.000000
vn 0.000000 -1.000000 0.000000
vn 0.002536 0.000000 0.999997
vn 0.002536 0.000000 0.999997
vn 0.000000 -1.000000 0.000000
vn 0.000000 -1.000000 0.000000
vn 0.000000 0.000000 1.000000
vn 0.000000 0.000000 1.000000
vn 0.002536 0.000000 0.999997
vn 0.000000 0.000000 1.000000
vn 0.000000 -1.000000 0.000000
vn 0.000000 -1.000000 0.000000
vn -0.002672 0.000000 0.999996
vn -0.002672 0.000000 0.999996
vn -0.002672 0.000000 0.999996
vn 0.000000 -1.000000 0.000000
vn 0.000000 -1.000000 -0.000000
vn -0.999997 0.000000 0.002538
vn -0.999997 0.000000 0.002538
vn 0.000000 -1.000000 0.000000
vn 0.000000 -1.000000 0.000000
vn -1.000000 0.000000 0.000000
vn -1.000000 0.000000 0.000000
vn -0.999997 0.000000 0.002538
vn -1.000000 0.000000 0.000000
vn 0.000000 -1.000000 -0.000000
vn 0.000000 -1.000000 -0.000000
vn -0.999996 0.000000 -0.002671
vn -0.999996 0.000000 -0.002671
vn -0.999996 0.000000 -0.002671
vn 0.000000 -1.000000 0.000000
vn 0.000000 -1.000000 -0.000000
vn -0.002538 0.000000 -0.999997
vn -0.002538 0.000000 -0.999997
vn 0.000000 -1.000000 0.000000
vn 0.000000 -1.000000 0.000000
vn 0.000000 0.000000 -1.000000
vn 0.000000 0.000000 -1.000000
vn -0.002538 0.000000 -0.999997
vn 0.000000 0.000000 -1.000000
vn 0.000000 -1.000000 0.000000
vn 0.000000 -1.000000 0.000000
vn 0.002674 0.000000 -0.999996
vn 0.002674 0.000000 -0.999996
vn 0.002674 0.000000 -0.999996
vn 0.000057 1.000000 -0.000044
vn 0.000037 1.000000 -0.000191
vn 0.000127 1.000000 -0.000360
vn 0.000116 1.000000 -0.000358
vn -0.000034 1.000000 0.000000
vn -0.000026 1.000000 -0.000334
vn 0.000047 1.000000 -0.000363
vn 0.000106 1.000000 -0.000456
vn 0.000000 1.000000 -0.000464
vn -0.001232 0.999999 -0.000091
vn -0.000899 1.000000 0.000072
vn -0.000207 1.000000 0.000171
vn -0.000238 1.000000 -0.000073
vn -0.001336 0.999999 -0.000228
vn -0.000203 1.000000 -0.000262
vn -0.000092 1.000000 0.000141
vn -0.000029 1.000000 -0.000083
vn -0.001509 0.999999 -0.000003
vn -0.002094 0.999998 -0.000110
vn 0.002919 -0.999996 0.000153
vn 0.002919 -0.999996 0.000153
vn 0.002916 -0.999996 0.000078
vn 0.002916 -0.999996 0.000078
vn -0.002308 0.999997 -0.000228
vn 0.002922 -0.999996 0.000229
vn 0.002922 -0.999996 0.000229
vn -1.000000 0.000000 -0.000425
vn -1.000000 0.000000 -0.000425
vn -1.000000 0.000000 -0.000601
vn -1.000000 0.000000 -0.000601
vn -1.000000 0.000000 -0.000242
vn -1.000000 0.000000 -0.000242
vn -0.001071 0.999999 -0.000200
vn -0.000127 1.000000 -0.000312
vn -0.000718 1.000000 -0.000353
vn -0.000127 1.000000 -0.000338
vn -0.001850 0.999998 -0.000125
vn 0.002427 -0.999997 0.000056
vn 0.002427 -0.999997 0.000056
vn -0.001251 0.999999 -0.000324
vn 0.004902 -0.999988 0.000157
vn 0.004902 -0.999988 0.000157
vn -1.000000 0.000000 0.000712
vn -1.000000 0.000000 0.000712
vn -1.000000 0.000000 0.000279
vn -1.000000 0.000000 0.000279
vn -1.000000 0.000000 -0.000149
vn -1.000000 0.000000 -0.000149
vn -1.000000 0.000000 -0.000216
vn -1.000000 0.000000 -0.000216
vn 0.004376 -0.999985 0.003185
vn 0.000202 -0.999991 0.004251
vn 0.000202 -0.999991 0.004251
vn 0.004376 -0.999985 0.003185
vn -0.000988 1.000000 -0.000111
vn -0.001129 0.999999 -0.000003
vn -0.001821 0.999998 -0.000002
vn -0.001594 0.999999 -0.000166
vn -0.001238 0.999999 -0.000424
vn -0.000739 1.000000 -0.000365
vn -1.000000 0.000000 -0.000134
vn -1.000000 0.000000 -0.000134
vn 0.007323 -0.999973 -0.000666
vn 0.007323 -0.999973 -0.000666
vn 0.006866 -0.999976 0.000534
vn 0.006866 -0.999976 0.000534
vn -0.000210 1.000000 -0.000363
vn -0.000139 1.000000 -0.000572
vn 0.000091 -0.999999 0.001474
vn 0.000091 -0.999999 0.001474
vn -0.000034 1.000000 -0.000899
vn 0.000040 0.999999 -0.001509
vn -0.000115 -0.999996 0.002921
vn -0.000115 -0.999996 0.002921
vn -0.000224 1.000000 -0.000260
vn -0.000087 1.000000 -0.000201
vn -0.004799 0.000117 -0.999989
vn -0.004799 0.000117 -0.999989
vn -0.007430 0.000181 -0.999972
vn -0.007430 0.000181 -0.999972
vn -0.000348 0.000023 -1.000000
vn -0.000348 0.000023 -1.000000
vn 0.000356 -0.000002 -1.000000
vn 0.000356 -0.000002 -1.000000
vn -0.000021 0.999999 -0.001232
vn -0.000013 1.000000 -0.000160
vn -0.000034 0.999999 -0.001335
vn -0.000034 1.000000 -0.000133
vn -0.000002 0.999998 -0.002093
vn -0.000041 -0.999996 0.002919
vn -0.000041 -0.999996 0.002919
vn -0.000033 0.999997 -0.002308
vn 0.000033 -0.999996 0.002918
vn 0.000033 -0.999996 0.002918
vn 0.000354 -0.000002 -1.000000
vn 0.000354 -0.000002 -1.000000
vn 0.000354 -0.000002 -1.000000
vn 0.000354 -0.000002 -1.000000
vn -0.000005 0.999999 -0.001070
vn -0.000054 1.000000 -0.000253
vn 0.000205 1.000000 -0.000718
vn 0.000075 1.000000 -0.000528
vn -0.000338 1.000000 -0.000159
vn -0.000370 1.000000 -0.000605
vn -0.000081 0.999998 -0.001849
vn 0.000150 -0.999997 0.002425
vn 0.000150 -0.999997 0.002425
vn 0.000176 0.999999 -0.001251
vn -0.000007 -0.999988 0.004902
vn -0.000007 -0.999988 0.004902
vn -0.000855 0.000002 -1.000000
vn -0.000855 0.000002 -1.000000
vn -0.000676 0.000000 -1.000000
vn -0.000676 0.000000 -1.000000
vn -0.000405 1.000000 -0.000233
vn -0.000666 1.000000 -0.000150
vn -0.000222 1.000000 -0.000356
vn -0.000511 1.000000 -0.000101
vn 0.000111 0.000000 -1.000000
vn 0.000111 0.000000 -1.000000
vn 0.000194 0.000000 -1.000000
vn 0.000194 0.000000 -1.000000
vn -0.003164 -0.999985 0.004381
vn -0.004231 -0.999991 0.000204
vn -0.004231 -0.999991 0.000204
vn -0.003164 -0.999985 0.004381
vn 0.000111 1.000000 -0.000988
vn 0.000003 0.999999 -0.001129
vn 0.000002 0.999998 -0.001820
vn 0.000166 0.999999 -0.001594
vn 0.000350 0.999999 -0.001238
vn 0.000291 1.000000 -0.000739
vn -0.000062 0.000000 -1.000000
vn -0.000062 0.000000 -1.000000
vn 0.000667 -0.999973 0.007328
vn 0.000667 -0.999973 0.007328
vn -0.000458 -0.999976 0.006867
vn -0.000458 -0.999976 0.006867
vn 0.000362 1.000000 -0.000691
vn 0.000570 1.000000 -0.000621
vn -0.001468 -0.999999 0.000574
vn -0.001468 -0.999999 0.000574
vn 0.000897 0.999999 -0.000999
vn 0.001506 0.999998 -0.000925
vn -0.002912 -0.999995 0.000849
vn -0.002912 -0.999995 0.000849
vn 0.000203 1.000000 -0.000723
vn 0.000091 1.000000 -0.000982
vn 0.999989 -0.000258 -0.004790
vn 0.999989 -0.000258 -0.004790
vn 0.999973 0.000000 -0.007413
vn 0.999973 0.000000 -0.007413
vn 1.000000 -0.000043 -0.000225
vn 1.000000 -0.000043 -0.000225
vn 1.000000 0.000215 0.000601
vn 1.000000 0.000215 0.000601
vn -0.000057 1.000000 0.000044
vn -0.000037 1.000000 0.000191
vn -0.000243 1.000000 0.000012
vn -0.000116 1.000000 -0.000106
vn 0.000034 1.000000 -0.000000
vn 0.000026 1.000000 -0.000129
vn 0.001231 0.999999 -0.000373
vn -0.000110 1.000000 -0.000276
vn 0.001336 0.999999 0.000228
vn -0.000145 1.000000 0.000146
vn 0.002092 0.999998 -0.000354
vn -0.002917 -0.999996 0.000310
vn -0.002917 -0.999996 0.000310
vn 0.002308 0.999997 0.000228
vn -0.002922 -0.999996 -0.000229
vn -0.002922 -0.999996 -0.000229
vn 1.000000 0.000215 0.000425
vn 1.000000 0.000215 0.000425
vn 1.000000 0.000215 0.000242
vn 1.000000 0.000215 0.000242
vn 0.001071 0.999999 0.000200
vn 0.000011 1.000000 0.000196
vn 0.000718 1.000000 0.000353
vn 0.000127 1.000000 0.000338
vn 0.001850 0.999998 0.000125
vn -0.002427 -0.999997 -0.000056
vn -0.002427 -0.999997 -0.000056
vn 0.001251 0.999999 0.000324
vn -0.004900 -0.999988 -0.000157
vn -0.004900 -0.999988 -0.000157
vn 1.000000 0.000000 -0.000712
vn 1.000000 0.000000 -0.000712
vn 1.000000 0.000000 -0.000279
vn 1.000000 0.000000 -0.000279
vn 1.000000 0.000000 0.000149
vn 1.000000 0.000000 0.000149
vn 1.000000 0.000000 0.000216
vn 1.000000 0.000000 0.000216
vn -0.004350 -0.999985 -0.003295
vn -0.000193 -0.999991 -0.004357
vn -0.000193 -0.999991 -0.004357
vn -0.004350 -0.999985 -0.003295
vn 0.000988 1.000000 0.000111
vn 0.001129 0.999999 0.000003
vn 0.001821 0.999998 0.000002
vn 0.001594 0.999999 0.000166
vn 0.001238 0.999999 0.000424
vn 0.000739 1.000000 0.000365
vn 1.000000 0.000000 0.000134
vn 1.000000 0.000000 0.000134
vn -0.007307 -0.999973 0.000662
vn -0.007307 -0.999973 0.000662
vn -0.006866 -0.999976 -0.000534
vn -0.006866 -0.999976 -0.000534
vn 0.000210 1.000000 0.000363
vn 0.000139 1.000000 0.000571
vn -0.000091 -0.999999 -0.001473
vn -0.000091 -0.999999 -0.001473
vn 0.000034 1.000000 0.000899
vn -0.000040 0.999999 0.001510
vn 0.000115 -0.999996 -0.002921
vn 0.000115 -0.999996 -0.002921
vn 0.000224 1.000000 0.000260
vn 0.000087 1.000000 0.000201
vn 0.004799 0.000117 0.999989
vn 0.004799 0.000117 0.999989
vn 0.007430 0.000181 0.999972
vn 0.007430 0.000181 0.999972
vn 0.000348 0.000023 1.000000
vn 0.000348 0.000023 1.000000
vn -0.000354 -0.000002 1.000000
vn -0.000354 -0.000002 1.000000
vn 0.000021 0.999999 0.001232
vn 0.000013 1.000000 0.000160
vn 0.000034 0.999999 0.001335
vn 0.000034 1.000000 0.000133
vn 0.000002 0.999998 0.002094
vn 0.000041 -0.999996 -0.002920
vn 0.000041 -0.999996 -0.002920
vn 0.000033 0.999997 0.002308
vn -0.000033 -0.999996 -0.002919
vn -0.000033 -0.999996 -0.002919
vn -0.000354 -0.000002 1.000000
vn -0.000354 -0.000002 1.000000
vn -0.000356 -0.000002 1.000000
vn -0.000356 -0.000002 1.000000
vn 0.000005 0.999999 0.001070
vn -0.000062 1.000000 0.000137
vn -0.000205 1.000000 0.000718
vn -0.000190 1.000000 0.000180
vn -0.000009 1.000000 0.000043
vn 0.000081 0.999998 0.001849
vn -0.000150 -0.999997 -0.002427
vn -0.000150 -0.999997 -0.002427
vn -0.000176 0.999999 0.001250
vn 0.000007 -0.999988 -0.004904
vn 0.000007 -0.999988 -0.004904
vn 0.000855 0.000002 1.000000
vn 0.000855 0.000002 1.000000
vn 0.000676 0.000000 1.000000
vn 0.000676 0.000000 1.000000
vn 0.000057 1.000000 -0.000114
vn -0.000111 0.000000 1.000000
vn -0.000111 0.000000 1.000000
vn -0.000194 0.000000 1.000000
vn -0.000194 0.000000 1.000000
vn 0.003095 -0.999986 -0.004398
vn 0.004164 -0.999991 -0.000209
vn 0.004164 -0.999991 -0.000209
vn 0.003095 -0.999986 -0.004398
vn -0.000111 1.000000 0.000988
vn -0.000003 0.999999 0.001129
vn -0.000002 0.999998 0.001820
vn -0.000166 0.999999 0.001594
vn -0.000350 0.999999 0.001238
vn -0.000291 1.000000 0.000739
vn 0.000063 0.000000 1.000000
vn 0.000063 0.000000 1.000000
vn -0.000670 -0.999973 -0.007339
vn -0.000670 -0.999973 -0.007339
vn 0.000458 -0.999976 -0.006868
vn 0.000458 -0.999976 -0.006868
vn -0.000362 1.000000 0.000228
vn -0.000571 1.000000 0.000157
vn 0.001470 -0.999999 -0.000110
vn 0.001470 -0.999999 -0.000110
vn -0.000203 1.000000 0.000260
vn -0.999989 0.000000 0.004790
vn -0.999989 0.000000 0.004790
vn -0.999973 0.000000 0.007413
vn -0.999973 0.000000 0.007413
vn -1.000000 0.000000 0.000225
vn -1.000000 0.000000 0.000225
vn 0.149730 0.000000 0.988727
vn 0.149726 0.000000 0.988728
vn 0.149734 0.000000 0.988726
vn 0.000000 -1.000000 0.000000
vn 0.000000 -1.000000 0.000000
vn 0.000000 -1.000000 0.000000
vn 0.000000 -1.000000 -0.000000
vn 0.000000 -1.000000 0.000000
vn 0.000000 -1.000000 0.000000
vn 0.000000 -1.000000 -0.000000
vn 0.000000 -1.000000 -0.000000
vn 0.000000 -1.000000 0.000000
vn 0.150087 0.000000 -0.988673
vn 0.150087 0.000000 -0.988673
vn 0.150087 0.000000 -0.988673
vn -0.703337 0.000000 0.710856
vn -0.703340 0.000000 0.710854
vn -0.703335 0.000000 0.710859
vn 0.000000 -1.000000 0.000000
vn 0.000000 -1.000000 0.000000
vn 0.000000 -1.000000 0.000000
vn 0.000000 -1.000000 -0.000000
vn 0.000000 -1.000000 0.000000
vn 0.000000 -1.000000 -0.000000
vn 0.000000 -1.000000 -0.000000
vn 0.000000 -1.000000 -0.000000
vn 0.000000 -1.000000 0.000000
vn -0.696267 0.000000 -0.717783
vn -0.696266 0.000000 -0.717784
vn -0.696265 0.000000 -0.717785
vn 0.000000 -1.000000 0.000000
vn 0.000000 -1.000000 0.000000
vn 0.000000 -1.000000 0.000000
vn 0.000000 -1.000000 -0.000000
vn 0.000000 -1.000000 0.000000
vn 0.000000 -1.000000 0.000000
vn 0.000000 -1.000000 -0.000000
vn 0.000000 -1.000000 -0.000000
vn 0.000000 -1.000000 0.000000
s 1
g polySurface23279
f 365/1202/1 6/2/2 7/3/3 364/1201/4
s 2
f 6/5/5 4/6/6 5/7/7 7/8/8
s 1
f 366/1204/9 9/10/10 6/11/2 365/1203/1
s 2
f 9/13/11 8/14/12 4/15/6 6/16/5
f 4/17/6 10/18/13 11/19/14 5/20/7
f 8/21/12 12/22/15 10/23/13 4/24/6
s 1
f 1/25/16 13/26/17 14/27/18 3/28/19
f 2/29/20 15/30/21 13/31/17 1/32/16
f 367/1206/22 19/34/23 9/35/10 366/1205/9
s 2
f 19/37/24 18/38/25 8/39/12 9/40/11
s 1
f 368/1208/26 21/42/27 19/43/23 367/1207/22
s 2
f 21/45/28 20/46/29 18/47/25 19/48/24
f 18/49/25 22/50/30 12/51/15 8/52/12
f 20/53/29 23/54/31 22/55/30 18/56/25
s 1
f 16/57/32 24/58/33 25/59/34 17/60/35
f 3/61/19 14/62/18 24/63/33 16/64/32
f 369/1210/36 30/66/37 21/67/27 368/1209/26
s 2
f 30/111/38 29/71/39 20/69/29 21/70/28
s 1
f 370/1212/40 32/73/41 30/74/37 369/1211/36
s 2
f 23/76/31 20/77/29 29/78/39 34/110/42
f 31/103/43 371/1215/44 372/1216/45 35/106/46
f 34/107/42 29/102/39 31/101/43 35/108/46
s 1
f 26/79/47 37/80/48 38/81/49 28/82/50
f 17/83/35 25/84/34 37/85/48 26/86/47
s 2
f 29/90/39 30/96/38 32/95/51 31/100/43
f 38/93/52 36/91/53 27/92/54 28/112/55
f 32/97/51 370/1213/56 371/1214/44 31/99/43
f 39/89/57 33/109/58 27/87/54 36/88/53
s 1
f 40/113/59 46/114/60 47/115/61 41/116/62
s 2
f 46/159/63 44/119/64 45/117/65 47/118/66
s 1
f 43/120/67 49/121/68 362/1196/69 363/1199/70
s 2
f 52/124/71 45/125/65 44/126/64 51/158/72
f 48/151/73 42/152/74 50/153/75 53/154/76
f 360/1193/77 361/1195/78 48/149/73 53/156/76
s 1
f 363/1198/70 364/1200/4 7/129/3 43/130/67
f 41/131/62 15/132/21 2/133/20 40/134/59
s 2
f 361/1194/78 362/1197/79 49/143/80 48/148/73
f 7/141/8 5/139/7 42/140/74 43/160/81
f 49/145/80 43/146/81 42/142/74 48/147/73
f 11/137/14 50/157/75 42/135/74 5/136/7
s 1
f 54/161/82 376/1222/83 377/1225/84 55/164/85
s 2
f 60/207/86 58/167/87 59/165/88 61/166/89
s 1
f 57/168/90 375/1220/91 376/1223/83 54/171/82
s 2
f 66/172/92 59/173/88 58/174/87 65/206/93
f 374/1219/94 56/200/95 64/201/96 373/1217/97
f 65/203/93 58/198/87 62/197/98 67/204/99
s 1
f 54/175/82 69/176/100 70/177/101 57/178/90
f 55/179/85 71/180/102 69/181/100 54/182/82
s 2
f 58/186/87 60/192/86 63/191/103 62/196/98
f 70/189/104 68/187/105 56/188/95 57/208/106
f 375/1221/107 57/194/106 56/190/95 374/1218/94
f 72/185/108 64/205/96 56/183/95 68/184/105
s 1
f 73/209/109 79/210/110 80/211/111 74/212/112
s 2
f 79/255/113 77/215/114 78/213/115 80/214/116
s 1
f 382/1235/117 383/1236/118 79/218/110 73/219/109
s 2
f 85/220/119 78/221/115 77/222/114 84/254/120
f 81/247/121 75/248/122 83/249/123 86/250/124
f 84/251/120 77/246/114 384/1239/125 385/1240/126
s 1
f 73/223/109 88/224/127 381/1232/128 382/1234/117
f 74/227/112 90/228/129 88/229/127 73/230/109
s 2
f 77/234/114 79/240/113 383/1237/130 384/1238/125
f 89/237/131 87/235/132 75/236/122 76/256/133
f 82/241/134 76/242/133 75/238/122 81/243/121
f 91/233/135 83/253/123 75/231/122 87/232/132
s 1
f 92/257/136 93/258/137 25/259/34 24/260/33
f 94/261/138 92/262/136 24/263/33 14/264/18
f 95/265/139 96/266/140 93/267/137 92/268/136
f 97/269/141 95/270/139 92/271/136 94/272/138
f 98/273/142 94/274/138 14/275/18 13/276/17
f 99/277/143 98/278/142 13/279/17 15/280/21
f 100/281/144 97/282/141 94/283/138 98/284/142
f 101/285/145 100/286/144 98/287/142 99/288/143
f 102/289/146 103/290/147 97/291/141 100/292/144
f 104/293/148 102/294/146 100/295/144 101/296/145
f 105/297/149 106/298/150 103/299/147 102/300/146
f 71/301/102 105/302/149 102/303/146 104/304/148
f 107/305/151 108/306/152 96/307/140 95/308/139
f 103/309/147 107/310/151 95/311/139 97/312/141
f 109/313/153 90/314/129 108/315/152 107/316/151
f 106/317/150 109/318/153 107/319/151 103/320/147
f 110/321/154 113/322/155 70/323/101 69/324/100
s 2
f 113/325/156 112/326/157 68/327/105 70/328/104
s 1
f 111/329/158 115/330/159 113/331/155 110/332/154
s 2
f 115/333/160 114/334/161 112/335/157 113/336/156
f 112/337/157 116/338/162 72/339/108 68/340/105
f 114/341/161 117/342/163 116/343/162 112/344/157
s 1
f 110/345/154 104/346/148 101/347/145 111/348/158
f 69/349/100 71/350/102 104/351/148 110/352/154
f 118/353/164 120/354/165 115/355/159 111/356/158
s 2
f 120/357/166 119/358/167 114/359/161 115/360/160
s 1
f 41/361/62 47/362/61 120/363/165 118/364/164
s 2
f 47/365/66 45/366/65 119/367/167 120/368/166
f 119/369/167 121/370/168 117/371/163 114/372/161
f 45/373/65 52/374/71 121/375/168 119/376/167
s 1
f 118/377/164 99/378/143 15/379/21 41/380/62
f 111/381/158 101/382/145 99/383/143 118/384/164
f 122/385/169 380/1230/170 381/1233/128 88/388/127
s 2
f 125/389/171 124/390/172 87/391/132 89/392/131
s 1
f 123/393/173 379/1228/174 380/1231/170 122/396/169
s 2
f 127/397/175 126/398/176 124/399/172 125/400/171
f 124/401/172 128/402/177 91/403/135 87/404/132
f 126/405/176 129/406/178 128/407/177 124/408/172
s 1
f 122/409/169 109/410/153 106/411/150 123/412/173
f 88/413/127 90/414/129 109/415/153 122/416/169
f 130/417/179 378/1226/180 379/1229/174 123/420/173
s 2
f 132/421/181 131/422/182 126/423/176 127/424/175
s 1
f 55/425/85 377/1224/84 378/1227/180 130/428/179
s 2
f 61/429/89 59/430/88 131/431/182 132/432/181
f 131/433/182 133/434/183 129/435/178 126/436/176
f 59/437/88 66/438/92 133/439/183 131/440/182
s 1
f 130/441/179 105/442/149 71/443/102 55/444/85
f 123/445/173 106/446/150 105/447/149 130/448/179
f 134/449/184 137/450/185 38/451/49 37/452/48
s 2
f 137/453/186 136/454/187 36/455/53 38/456/52
s 1
f 135/457/188 139/458/189 137/459/185 134/460/184
s 2
f 139/461/190 138/462/191 136/463/187 137/464/186
f 136/465/187 140/466/192 39/467/57 36/468/53
f 138/469/191 141/470/193 140/471/192 136/472/187
s 1
f 134/473/184 93/474/137 96/475/140 135/476/188
f 37/477/48 25/478/34 93/479/137 134/480/184
f 142/481/194 144/482/195 139/483/189 135/484/188
s 2
f 144/485/196 143/486/197 138/487/191 139/488/190
s 1
f 74/489/112 80/490/111 144/491/195 142/492/194
s 2
f 80/493/116 78/494/115 143/495/197 144/496/196
f 143/497/197 145/498/198 141/499/193 138/500/191
f 78/501/115 85/502/119 145/503/198 143/504/197
s 1
f 142/505/194 108/506/152 90/507/129 74/508/112
f 135/509/188 96/510/140 108/511/152 142/512/194
s 3
f 146/513/199 147/514/200 148/515/201 149/516/202
f 151/517/203 146/518/199 149/519/202 150/520/204
f 148/521/201 152/522/205 153/523/206 149/524/202
f 149/525/202 153/526/206 154/527/207 150/528/204
f 155/529/208 156/530/209 157/531/210 158/532/211
f 160/533/212 155/534/208 158/535/211 159/536/213
f 157/537/210 161/538/214 162/539/215 158/540/211
f 158/541/211 162/542/215 152/543/205 159/544/213
f 164/545/216 156/546/209 155/547/208 165/548/217
s 4
f 166/549/218 168/550/219 167/551/220 163/552/221
s 3
f 165/553/217 155/554/208 160/555/212 169/556/222
s 4
f 170/557/223 171/558/224 168/559/219 166/560/218
s 5
f 165/561/225 166/562/226 163/563/227 164/564/228
f 169/565/229 170/566/230 166/567/226 165/568/225
s 3
f 172/569/231 160/570/212 159/571/213 173/572/232
f 175/573/233 172/574/231 173/575/232 174/576/234
f 159/577/213 152/578/205 148/579/201 173/580/232
f 173/581/232 148/582/201 147/583/200 174/584/234
f 169/585/222 160/586/212 172/587/231 176/588/235
s 4
f 177/589/236 178/590/237 171/591/224 170/592/223
s 3
f 176/593/235 172/594/231 175/595/233 179/596/238
s 4
f 180/597/239 181/598/240 178/599/237 177/600/236
s 5
f 176/601/241 177/602/242 170/603/230 169/604/229
f 179/605/243 180/606/244 177/607/242 176/608/241
f 183/609/245 182/610/246 185/611/247 184/612/248
s 4
f 182/613/249 187/614/250 194/615/251 195/616/252
s 3
f 186/617/253 188/618/254 183/609/255 184/612/256
f 190/619/257 189/620/258 186/617/253 184/612/256
s 5
f 184/612/248 185/611/247 191/621/259 190/619/260
s 4
f 185/611/261 193/622/262 192/623/263 191/621/264
f 185/611/261 182/610/249 195/624/252 193/622/262
s 3
f 179/625/238 175/626/233 189/627/258 190/628/257
s 5
f 190/628/260 191/629/259 180/630/244 179/625/243
s 4
f 191/629/264 192/631/263 181/632/240 180/630/239
s 3
f 188/633/254 186/634/253 198/635/265 196/636/266
s 4
f 197/637/267 199/638/268 194/639/251 187/640/250
s 3
f 196/641/266 198/642/265 202/643/269 200/644/270
s 4
f 201/645/271 203/646/272 199/647/268 197/648/267
s 3
f 189/649/258 175/650/233 174/651/234 205/652/273
f 198/653/265 186/654/253 189/655/258 205/656/273
f 202/657/269 198/658/265 205/659/273 204/660/274
f 204/661/274 205/662/273 174/663/234 147/664/200
s 6
f 188/665/275 187/666/276 182/667/277 183/668/278
f 196/669/279 197/670/280 187/671/276 188/672/275
f 200/673/281 201/674/282 197/675/280 196/676/279
s 3
f 206/677/283 202/678/269 204/679/274 207/680/284
f 209/681/285 206/682/283 207/683/284 208/684/286
f 204/685/274 147/686/200 146/687/199 207/688/284
f 207/689/284 146/690/199 151/691/203 208/692/286
f 200/693/270 202/694/269 206/695/283 210/696/287
s 4
f 211/697/288 212/698/289 203/699/272 201/700/271
s 3
f 210/701/287 206/702/283 209/703/285 213/704/290
s 4
f 214/705/291 215/706/292 212/707/289 211/708/288
s 6
f 210/709/293 211/710/294 201/711/282 200/712/281
f 213/713/295 214/714/296 211/715/294 210/716/293
s 3
f 216/717/297 209/718/285 208/719/286 217/720/298
f 219/721/299 216/722/297 217/723/298 218/724/300
f 208/725/286 151/726/203 220/727/301 217/728/298
f 217/729/298 220/730/301 221/731/302 218/732/300
f 213/733/290 209/734/285 216/735/297 222/736/303
s 4
f 223/737/304 224/738/305 215/739/292 214/740/291
s 3
f 222/741/303 216/742/297 219/743/299 225/744/306
s 4
f 226/745/307 227/746/308 224/747/305 223/748/304
s 6
f 222/749/309 223/750/310 214/751/296 213/752/295
f 225/753/311 226/754/312 223/755/310 222/756/309
s 3
f 220/757/301 151/758/203 150/759/204 228/760/313
f 221/761/302 220/762/301 228/763/313 229/764/314
f 150/765/204 154/766/207 230/767/315 228/768/313
f 228/769/313 230/770/315 231/771/316 229/772/314
s 6
f 233/773/317 232/774/318 235/775/319 234/776/320
s 4
f 232/777/321 237/778/322 244/779/323 245/780/324
s 3
f 236/781/325 238/782/326 233/773/327 234/776/328
f 240/783/329 239/784/330 236/781/325 234/776/328
s 6
f 234/776/320 235/775/319 241/785/331 240/783/332
s 4
f 235/775/333 243/786/334 242/787/335 241/785/336
f 235/775/333 232/774/321 245/788/324 243/786/334
s 3
f 225/789/306 219/790/299 239/791/330 240/792/329
s 6
f 240/792/332 241/793/331 226/794/312 225/789/311
s 4
f 241/793/336 242/795/335 227/796/308 226/794/307
s 3
f 238/797/326 236/798/325 248/799/337 246/800/338
s 4
f 247/801/339 249/802/340 244/803/323 237/804/322
s 3
f 246/805/338 248/806/337 252/807/341 250/808/342
s 4
f 251/809/343 253/810/344 249/811/340 247/812/339
s 3
f 239/813/330 219/814/299 218/815/300 255/816/345
f 248/817/337 236/818/325 239/819/330 255/820/345
f 252/821/341 248/822/337 255/823/345 254/824/346
f 254/825/346 255/826/345 218/827/300 221/828/302
s 7
f 238/829/347 237/830/348 232/831/349 233/832/350
f 246/833/351 247/834/352 237/835/348 238/836/347
f 250/837/353 251/838/354 247/839/352 246/840/351
s 3
f 256/841/355 257/842/356 258/843/357 259/844/358
f 261/845/359 256/846/355 259/847/358 260/848/360
f 258/849/357 231/850/316 230/851/315 259/852/358
f 259/853/358 230/854/315 154/855/207 260/856/360
f 262/857/361 252/858/341 254/859/346 263/860/362
f 265/861/363 262/862/361 263/863/362 264/864/364
f 254/865/346 221/866/302 229/867/314 263/868/362
f 263/869/362 229/870/314 231/871/316 264/872/364
f 250/873/342 252/874/341 262/875/361 266/876/365
s 4
f 267/877/366 268/878/367 253/879/344 251/880/343
s 3
f 266/881/365 262/882/361 265/883/363 269/884/368
s 4
f 270/885/369 271/886/370 268/887/367 267/888/366
s 7
f 266/889/371 267/890/372 251/891/354 250/892/353
f 269/893/373 270/894/374 267/895/372 266/896/371
s 3
f 272/897/375 265/898/363 264/899/364 273/900/376
f 275/901/377 272/902/375 273/903/376 274/904/378
f 264/905/364 231/906/316 258/907/357 273/908/376
f 273/909/376 258/910/357 257/911/356 274/912/378
f 269/913/368 265/914/363 272/915/375 276/916/379
s 4
f 277/917/380 278/918/381 271/919/370 270/920/369
s 3
f 276/921/379 272/922/375 275/923/377 279/924/382
s 4
f 280/925/383 281/926/384 278/927/381 277/928/380
s 7
f 276/929/385 277/930/386 270/931/374 269/932/373
f 279/933/387 280/934/388 277/935/386 276/936/385
f 283/937/389 282/938/390 285/939/391 284/940/392
s 4
f 282/941/393 287/942/394 294/943/395 295/944/396
s 3
f 286/945/397 288/946/398 283/937/399 284/940/400
f 290/947/401 289/948/402 286/945/397 284/940/400
s 7
f 284/940/392 285/939/391 291/949/403 290/947/404
s 4
f 285/939/405 293/950/406 292/951/407 291/949/408
f 285/939/405 282/938/393 295/952/396 293/950/406
s 3
f 279/953/382 275/954/377 289/955/402 290/956/401
s 7
f 290/956/404 291/957/403 280/958/388 279/953/387
s 4
f 291/957/408 292/959/407 281/960/384 280/958/383
s 3
f 288/961/398 286/962/397 298/963/409 296/964/410
s 4
f 297/965/411 299/966/412 294/967/395 287/968/394
s 3
f 296/969/410 298/970/409 302/971/413 300/972/414
s 4
f 301/973/415 303/974/416 299/975/412 297/976/411
s 3
f 289/977/402 275/978/377 274/979/378 305/980/417
f 298/981/409 286/982/397 289/983/402 305/984/417
f 302/985/413 298/986/409 305/987/417 304/988/418
f 304/989/418 305/990/417 274/991/378 257/992/356
s 8
f 288/993/419 287/994/420 282/995/421 283/996/422
f 296/997/423 297/998/424 287/999/420 288/1000/419
f 300/1001/425 301/1002/426 297/1003/424 296/1004/423
s 3
f 306/1005/427 302/1006/413 304/1007/418 307/1008/428
f 309/1009/429 306/1010/427 307/1011/428 308/1012/430
f 304/1013/418 257/1014/356 256/1015/355 307/1016/428
f 307/1017/428 256/1018/355 261/1019/359 308/1020/430
f 300/1021/414 302/1022/413 306/1023/427 310/1024/431
s 4
f 311/1025/432 312/1026/433 303/1027/416 301/1028/415
s 3
f 310/1029/431 306/1030/427 309/1031/429 313/1032/434
s 4
f 314/1033/435 315/1034/436 312/1035/433 311/1036/432
s 8
f 310/1037/437 311/1038/438 301/1039/426 300/1040/425
f 313/1041/439 314/1042/440 311/1043/438 310/1044/437
s 3
f 316/1045/441 309/1046/429 308/1047/430 317/1048/442
f 319/1049/443 316/1050/441 317/1051/442 318/1052/444
f 308/1053/430 261/1054/359 320/1055/445 317/1056/442
f 317/1057/442 320/1058/445 161/1059/214 318/1060/444
f 313/1061/434 309/1062/429 316/1063/441 321/1064/446
s 4
f 322/1065/447 323/1066/448 315/1067/436 314/1068/435
s 3
f 321/1069/446 316/1070/441 319/1071/443 324/1072/449
s 4
f 325/1073/450 326/1074/451 323/1075/448 322/1076/447
s 8
f 321/1077/452 322/1078/453 314/1079/440 313/1080/439
f 324/1081/454 325/1082/455 322/1083/453 321/1084/452
s 3
f 320/1085/445 261/1086/359 260/1087/360 327/1088/456
f 161/1089/214 320/1090/445 327/1091/456 162/1092/215
f 260/1093/360 154/1094/207 153/1095/206 327/1096/456
f 327/1097/456 153/1098/206 152/1099/205 162/1100/215
s 8
f 329/1101/457 328/1102/458 331/1103/459 330/1104/460
s 4
f 328/1105/461 333/1106/462 340/1107/463 341/1108/464
s 3
f 332/1109/465 334/1110/466 329/1101/467 330/1104/468
f 336/1111/469 335/1112/470 332/1109/465 330/1104/468
s 8
f 330/1104/460 331/1103/459 337/1113/471 336/1111/472
s 4
f 331/1103/473 339/1114/474 338/1115/475 337/1113/476
f 331/1103/473 328/1102/461 341/1116/464 339/1114/474
s 3
f 324/1117/449 319/1118/443 335/1119/470 336/1120/469
s 8
f 336/1120/472 337/1121/471 325/1122/455 324/1117/454
s 4
f 337/1121/476 338/1123/475 326/1124/451 325/1122/450
s 3
f 334/1125/466 332/1126/465 344/1127/477 342/1128/478
s 4
f 343/1129/479 345/1130/480 340/1131/463 333/1132/462
s 3
f 342/1133/478 344/1134/477 156/1135/209 164/1136/216
s 4
f 163/1137/221 167/1138/220 345/1139/480 343/1140/479
s 3
f 335/1141/470 319/1142/443 318/1143/444 346/1144/481
f 344/1145/477 332/1146/465 335/1147/470 346/1148/481
f 156/1149/209 344/1150/477 346/1151/481 157/1152/210
f 157/1153/210 346/1154/481 318/1155/444 161/1156/214
s 5
f 334/1157/482 333/1158/483 328/1159/484 329/1160/485
f 342/1161/486 343/1162/487 333/1163/483 334/1164/482
f 164/1165/228 163/1166/227 343/1167/487 342/1168/486
s 2
f 51/155/72 44/150/64 348/1171/488 347/1169/489
f 44/138/64 46/144/63 349/1173/490 348/1170/488
s 1
f 350/1175/491 349/1172/492 46/122/60 40/123/59
f 40/127/59 2/128/20 351/1176/493 350/1174/491
f 1/1/16 352/1178/494 351/1177/493 2/4/20
f 3/9/19 353/1180/495 352/1179/494 1/12/16
f 16/33/32 354/1182/496 353/1181/495 3/36/19
f 17/41/35 355/1184/497 354/1183/496 16/44/32
f 26/65/47 356/1186/498 355/1185/497 17/68/35
f 28/72/50 357/1188/499 356/1187/498 26/75/47
s 2
f 358/1190/500 357/1189/501 28/98/55 27/94/54
f 359/1192/502 358/1191/500 27/104/54 33/105/58
f 347/1169/489 348/1171/488 361/1195/78 360/1193/77
f 348/1170/488 349/1173/490 362/1197/79 361/1194/78
s 1
f 363/1199/70 362/1196/69 349/1172/492 350/1175/491
f 350/1174/491 351/1176/493 364/1200/4 363/1198/70
f 352/1178/494 365/1202/1 364/1201/4 351/1177/493
f 353/1180/495 366/1204/9 365/1203/1 352/1179/494
f 354/1182/496 367/1206/22 366/1205/9 353/1181/495
f 355/1184/497 368/1208/26 367/1207/22 354/1183/496
f 356/1186/498 369/1210/36 368/1209/26 355/1185/497
f 357/1188/499 370/1212/40 369/1211/36 356/1187/498
s 2
f 371/1214/44 370/1213/56 357/1189/501 358/1190/500
f 372/1216/45 371/1215/44 358/1191/500 359/1192/502
f 387/1243/503 374/1219/94 373/1217/97 386/1241/504
f 388/1245/505 375/1221/107 374/1218/94 387/1242/503
s 1
f 376/1223/83 375/1220/91 388/1244/506 389/1247/507
f 377/1225/84 376/1222/83 389/1246/507 390/1249/508
f 378/1227/180 377/1224/84 390/1248/508 391/1251/509
f 379/1229/174 378/1226/180 391/1250/509 392/1253/510
f 380/1231/170 379/1228/174 392/1252/510 393/1255/511
f 381/1233/128 380/1230/170 393/1254/511 394/1257/512
f 382/1234/117 381/1232/128 394/1256/512 395/1258/513
f 395/1259/513 396/1260/514 383/1236/118 382/1235/117
s 2
f 384/1238/125 383/1237/130 396/1261/515 397/1262/516
f 385/1240/126 384/1239/125 397/1263/516 398/1264/517
f 62/199/98 387/1243/503 386/1241/504 67/202/99
f 63/193/103 388/1245/505 387/1242/503 62/195/98
s 1
f 389/1247/507 388/1244/506 63/169/518 60/170/519
f 390/1249/508 389/1246/507 60/162/519 61/163/520
f 391/1251/509 390/1248/508 61/426/520 132/427/521
f 392/1253/510 391/1250/509 132/418/521 127/419/522
f 393/1255/511 392/1252/510 127/394/522 125/395/523
f 394/1257/512 393/1254/511 125/386/523 89/387/524
f 395/1258/513 394/1256/512 89/225/524 76/226/525
f 76/216/525 82/217/526 396/1260/514 395/1259/513
s 2
f 397/1262/516 396/1261/515 82/239/134 81/244/121
f 398/1264/517 397/1263/516 81/245/121 86/252/124
