# This file uses centimeters as units for non-parametric coordinates.

g default
v -294.073547 0.052903 -1.075954
v -292.003815 0.052902 -1.075932
v -294.072998 0.052902 -3.145023
v -291.996399 0.052902 -3.152027
v -294.073975 0.052903 1.003483
v -292.004028 0.052902 1.003681
v -296.153992 0.052903 -1.075954
v -296.153076 0.052902 -3.145023
v -296.154236 0.052903 1.003483
v -289.913635 0.052903 7.244534
v -291.993408 0.052902 7.233410
v -287.833740 1.028181 7.244244
v -287.833740 0.052903 7.244244
v -289.913940 1.028181 9.324261
v -291.993713 1.028181 9.313145
v -289.913940 0.052903 9.324261
v -291.993713 0.052902 9.313145
v -287.834167 1.028181 9.248959
v -287.834167 0.052903 9.248959
v -287.833740 2.003460 7.244244
v -289.913940 2.003460 9.324261
v -291.993713 2.003460 9.313145
v -287.834167 2.003460 9.248959
v -287.844055 1.028181 5.164524
v -289.923706 0.052902 5.164417
v -287.844055 0.052902 5.164524
v -291.997498 0.052902 5.159595
v -287.844055 2.003460 5.164524
v -306.551880 0.052902 7.222294
v -308.632141 0.052902 7.232975
v -304.472107 0.052902 7.222294
v -306.552185 1.028181 9.302021
v -308.632233 1.028181 9.312588
v -306.552185 0.052902 9.302021
v -308.632233 0.052902 9.312588
v -304.472412 1.028181 9.302021
v -304.472412 0.052902 9.302021
v -306.552185 2.003460 9.302021
v -308.632233 2.003460 9.312588
v -304.472412 2.003460 9.302021
v -306.553192 0.052902 5.152531
v -304.473328 0.052902 5.152531
v -308.629791 0.052902 5.159687
v -302.392303 0.052902 7.222294
v -300.312500 0.052902 7.222294
v -302.392639 1.028181 9.302021
v -302.392639 0.052902 9.302021
v -300.312866 1.028181 9.302021
v -300.312866 0.052902 9.302021
v -302.392639 2.003460 9.302021
v -300.312866 2.003460 9.302021
v -302.393433 0.052902 5.152531
v -300.313538 0.052902 5.152531
v -298.232727 0.052902 7.222294
v -296.152954 0.052902 7.222294
v -298.233093 1.028181 9.302021
v -298.233093 0.052902 9.302021
v -296.153290 1.028181 9.302021
v -296.153290 0.052902 9.302021
v -298.233093 2.003460 9.302021
v -296.153290 2.003460 9.302021
v -298.233643 0.052902 5.152531
v -296.153748 0.052902 5.152531
v -294.073181 0.052902 7.222294
v -294.073517 1.028181 9.302021
v -294.073517 0.052902 9.302021
v -294.073517 2.003460 9.302021
v -294.073853 0.052902 5.152531
v -310.712250 0.052903 7.243038
v -310.701111 0.052902 5.163265
v -310.711945 1.028181 9.322918
v -310.711945 0.052903 9.322918
v -312.791962 1.028181 7.242718
v -312.780853 1.028181 5.162930
v -312.791962 0.052903 7.242718
v -312.780853 0.052902 5.162930
v -312.791962 1.028181 9.240543
v -312.791962 0.052903 9.240543
v -310.711945 2.003460 9.322918
v -312.791962 2.003460 7.242718
v -312.780853 2.003460 5.162930
v -312.791962 2.003460 9.240543
v -289.934357 0.052902 3.084133
v -289.934387 0.052902 1.004353
v -287.854645 1.028181 3.084469
v -287.854645 0.052902 3.084469
v -287.854645 1.028181 1.004681
v -287.854645 0.052902 1.004681
v -287.854645 2.003460 3.084469
v -287.854645 2.003460 1.004681
v -292.004272 0.052902 3.083286
v -289.934357 0.052902 -1.075428
v -289.923279 0.052902 -3.155216
v -287.854645 1.028181 -1.075092
v -287.854645 0.052902 -1.075092
v -287.843536 1.028181 -3.154881
v -287.843536 0.052902 -3.154881
v -287.854645 2.003460 -1.075092
v -287.843536 2.003460 -3.154881
v -310.710754 0.052903 -5.236477
v -308.630981 0.052902 -5.225361
v -312.790649 1.028181 -5.236187
v -312.790649 0.052903 -5.236187
v -310.710449 1.028181 -7.316212
v -308.630676 1.028181 -7.305088
v -310.710449 0.052903 -7.316212
v -308.630676 0.052902 -7.305088
v -312.790222 1.028181 -7.234264
v -312.790222 0.052903 -7.234264
v -312.790649 2.003460 -5.236187
v -310.710449 2.003460 -7.316212
v -308.630676 2.003460 -7.305088
v -312.790222 2.003460 -7.234264
v -312.780334 1.028181 -3.156467
v -310.700684 0.052902 -3.156361
v -312.780334 0.052902 -3.156467
v -308.630005 0.052902 -3.152233
v -312.780334 2.003460 -3.156467
v -294.072510 0.052902 -5.214237
v -291.992249 0.052902 -5.224918
v -296.152283 0.052902 -5.214237
v -294.072205 1.028181 -7.293972
v -291.992157 1.028181 -7.304531
v -294.072205 0.052902 -7.293972
v -291.992157 0.052902 -7.304531
v -296.151978 1.028181 -7.293972
v -296.151978 0.052902 -7.293972
v -294.072205 2.003460 -7.293972
v -291.992157 2.003460 -7.304531
v -296.151978 2.003460 -7.293972
v -298.232086 0.052902 -5.214237
v -300.311890 0.052902 -5.214237
v -298.231750 1.028181 -7.293972
v -298.231750 0.052902 -7.293972
v -300.311523 1.028181 -7.293972
v -300.311523 0.052902 -7.293972
v -298.231750 2.003460 -7.293972
v -300.311523 2.003460 -7.293972
v -298.233215 0.052902 -3.145023
v -300.313293 0.052902 -3.145023
v -302.391663 0.052902 -5.214237
v -304.471436 0.052902 -5.214237
v -302.391296 1.028181 -7.293972
v -302.391296 0.052902 -7.293972
v -304.471100 1.028181 -7.293972
v -304.471100 0.052902 -7.293972
v -302.391296 2.003460 -7.293972
v -304.471100 2.003460 -7.293972
v -302.393433 0.052902 -3.145023
v -304.473511 0.052902 -3.145023
v -306.551208 0.052902 -5.214237
v -306.550873 1.028181 -7.293972
v -306.550873 0.052902 -7.293972
v -306.550873 2.003460 -7.293972
v -306.553650 0.052902 -3.145023
v -289.912140 0.052903 -5.234989
v -289.912445 1.028181 -7.314869
v -289.912445 0.052903 -7.314869
v -287.832428 1.028181 -5.234669
v -287.832428 0.052903 -5.234669
v -287.832428 1.028181 -7.239140
v -287.832428 0.052903 -7.239140
v -289.912445 2.003460 -7.314869
v -287.832428 2.003460 -5.234669
v -287.832428 2.003460 -7.239140
v -310.690033 0.052902 -1.076084
v -310.690002 0.052902 1.003696
v -312.769745 1.028181 -1.076420
v -312.769745 0.052902 -1.076420
v -312.769745 1.028181 1.003368
v -312.769745 0.052902 1.003368
v -312.769745 2.003460 -1.076420
v -312.769745 2.003460 1.003368
v -308.623230 0.052902 -1.075779
v -308.622803 0.052902 1.003826
v -310.690033 0.052902 3.083477
v -312.769745 1.028181 3.083141
v -312.769745 0.052902 3.083141
v -312.769745 2.003460 3.083141
v -308.622375 0.052902 3.083439
v -294.074432 0.052903 3.082920
v -296.154419 0.052903 3.082920
v -298.234436 0.052903 -1.075954
v -298.234436 0.052903 1.003483
v -300.314880 0.052903 -1.075954
v -300.314636 0.052903 1.003483
v -298.234436 0.052903 3.082920
v -300.314453 0.052903 3.082920
v -302.395325 0.052903 -1.075954
v -302.394867 0.052903 1.003483
v -304.475769 0.052903 -1.075954
v -304.475098 0.052903 1.003483
v -302.394440 0.052903 3.082920
v -304.474426 0.052903 3.082920
v -306.556213 0.052903 -1.075954
v -306.555298 0.052903 1.003483
v -306.554443 0.052903 3.082920
v -287.754425 1.995158 9.381863
v -287.754425 2.063455 9.381863
v -287.754395 2.063455 8.971127
v -287.754395 1.995158 8.971127
v -288.171936 2.064216 8.971127
v -288.143341 1.995917 9.384953
v -288.171936 2.064214 9.384953
v -288.171204 2.064593 7.242535
v -287.753906 2.064214 7.242542
v -287.753906 1.995917 7.242542
v -287.849365 1.997055 7.242535
v -287.852997 1.995158 8.971127
v -288.143951 1.995917 9.289692
v -287.849640 1.996680 9.293949
v -288.170563 2.065754 5.165203
v -287.753021 2.065209 5.161510
v -287.753021 1.996912 5.161510
v -287.850311 1.997291 5.161503
v -289.900665 2.064972 9.388706
v -289.900665 1.996675 9.388706
v -289.900604 2.064972 8.970837
v -289.900665 1.996675 9.290089
v -291.980957 2.064166 9.385647
v -291.980133 1.995869 9.385647
v -291.983521 2.065115 8.970539
v -291.980957 1.996439 9.289349
v -291.985687 2.065802 7.240871
v -291.980499 2.065838 5.160572
v -289.899933 2.064972 7.242023
v -289.900116 2.065897 5.166897
v -294.059479 2.065114 8.969509
v -294.059113 2.065732 7.239841
v -296.142517 2.065945 7.239346
v -296.141083 2.065305 8.969181
v -294.059143 2.065684 5.161892
v -296.139832 2.065589 5.160114
v -294.059296 2.064498 9.387234
v -294.059296 1.996201 9.387234
v -294.059296 1.996201 9.288616
v -296.139618 2.064000 9.384174
v -296.138763 1.995703 9.384174
v -296.139618 1.996272 9.287876
v -298.218109 2.065257 8.968029
v -298.217743 2.065874 7.238369
v -300.301178 2.066087 7.237873
v -300.299713 2.065447 8.967709
v -298.217773 2.065826 5.161152
v -300.298462 2.065732 5.159374
v -298.217926 2.064640 9.385754
v -298.217926 1.996343 9.385754
v -298.217926 1.996343 9.287136
v -300.298248 2.064143 9.382702
v -300.297394 1.995845 9.382702
v -300.298248 1.996414 9.286404
v -302.376740 2.065400 8.966557
v -302.376404 2.066016 7.236889
v -304.459808 2.066229 7.236393
v -304.458344 2.065589 8.966228
v -302.376404 2.065969 5.160419
v -304.457092 2.065874 5.158634
v -302.376587 2.064783 9.384281
v -302.376587 1.996485 9.384281
v -302.376587 1.996485 9.285664
v -304.456879 2.064285 9.381222
v -304.456024 1.995987 9.381222
v -304.456879 1.996556 9.284924
v -306.535370 2.065542 8.965084
v -306.535034 2.066158 7.235416
v -308.620728 2.065921 7.235752
v -308.619049 2.065779 8.964977
v -306.535034 2.066111 5.159679
v -308.615265 2.066182 5.156963
v -306.535217 2.064925 9.382809
v -306.535217 1.996627 9.382809
v -306.535217 1.996627 9.284191
v -308.615326 2.065234 9.382534
v -308.615326 1.996936 9.382534
v -308.615326 1.997315 9.285221
v -312.834747 1.995727 9.380589
v -312.834747 2.064024 9.380589
v -312.424011 2.064024 9.380634
v -312.424011 1.995727 9.380634
v -312.424011 2.064785 8.963093
v -312.837830 1.996486 8.966480
v -312.837830 2.064783 8.963093
v -310.695435 2.065163 8.963810
v -310.695435 2.064783 9.381115
v -310.695435 1.996486 9.381115
v -310.695435 1.997624 9.285641
v -312.424011 1.995727 9.282017
v -312.743469 1.996486 8.965878
v -312.748627 1.997249 9.285374
v -312.841583 2.065542 7.234959
v -312.841583 1.997245 7.234959
v -312.423737 2.065542 7.235004
v -312.742981 1.997245 7.234959
v -312.838531 2.064735 5.154652
v -312.838531 1.996439 5.155499
v -312.423431 2.065684 5.152096
v -312.742218 1.997008 5.154659
v -310.693756 2.066371 5.149960
v -310.694916 2.065542 7.235706
v -312.422394 2.065684 3.076160
v -310.692749 2.066301 3.076504
v -310.692230 2.066514 0.993099
v -312.422089 2.065874 0.994534
v -308.617737 2.066561 3.078266
v -308.614532 2.066253 0.999432
v -312.840118 2.065067 3.076321
v -312.840118 1.996770 3.076321
v -312.741516 1.996770 3.076321
v -312.837067 2.064569 0.996014
v -312.837067 1.996273 0.996861
v -312.740753 1.996841 0.996014
v -312.420929 2.065826 -1.082478
v -310.691284 2.066443 -1.082134
v -310.691620 2.066206 -3.167835
v -312.420807 2.066063 -3.166157
v -308.617004 2.066633 -1.079426
v -308.612274 2.066514 -3.160480
v -312.838654 2.065209 -1.082317
v -312.838654 1.996912 -1.082317
v -312.740051 1.996912 -1.082317
v -312.838379 2.065518 -3.162464
v -312.838379 1.997221 -3.162464
v -312.741058 1.997601 -3.162457
v -312.836426 1.996012 -7.381870
v -312.836426 2.064309 -7.381870
v -312.836456 2.064309 -6.971134
v -312.836456 1.996012 -6.971134
v -312.418915 2.065070 -6.971134
v -312.422333 1.996771 -7.384953
v -312.418915 2.065068 -7.384953
v -312.419647 2.065447 -5.242535
v -312.836945 2.065068 -5.242542
v -312.836945 1.996771 -5.242542
v -312.741486 1.997909 -5.242542
v -312.737854 1.996012 -6.971134
v -312.421722 1.996771 -7.290043
v -312.741211 1.997534 -7.294643
v -310.690796 2.065826 -7.388706
v -310.690796 1.997530 -7.388706
v -310.690826 2.065826 -6.970837
v -310.690796 1.997530 -7.290089
v -308.610504 2.065020 -7.385654
v -308.611328 1.996723 -7.385654
v -308.607941 2.065969 -6.970539
v -308.610504 1.997292 -7.289356
v -308.605804 2.066657 -5.240871
v -310.691559 2.065826 -5.242023
v -306.532013 2.065969 -6.969509
v -306.532349 2.066586 -5.239841
v -304.448944 2.066799 -5.239346
v -304.450409 2.066159 -6.969181
v -306.533691 2.066894 -3.158634
v -304.454376 2.066443 -3.158268
v -306.532166 2.065352 -7.387234
v -306.532166 1.997055 -7.387234
v -306.532166 1.997055 -7.288616
v -304.451874 2.064854 -7.384174
v -304.452728 1.996557 -7.384174
v -304.451874 1.997126 -7.287876
v -302.373383 2.066111 -6.968037
v -302.373718 2.066728 -5.238369
v -300.290314 2.066941 -5.237873
v -300.291748 2.066301 -6.967709
v -302.375061 2.066894 -3.157902
v -300.295746 2.066443 -3.157536
v -302.373535 2.065494 -7.385761
v -302.373535 1.997197 -7.385761
v -302.373535 1.997197 -7.287144
v -300.293243 2.064996 -7.382702
v -300.294098 1.996699 -7.382702
v -300.293243 1.997268 -7.286404
v -298.214722 2.066253 -6.966557
v -298.215057 2.066870 -5.236897
v -296.131683 2.067083 -5.236393
v -296.133087 2.066443 -6.966236
v -298.216400 2.066894 -3.157162
v -296.137115 2.066443 -3.156796
v -298.214874 2.065637 -7.384281
v -298.214874 1.997340 -7.384281
v -298.214874 1.997340 -7.285664
v -296.134583 2.065138 -7.381229
v -296.135437 1.996842 -7.381229
v -296.134583 1.997411 -7.284931
v -294.056091 2.066395 -6.965084
v -294.056427 2.067012 -5.235416
v -291.970978 2.066466 -5.236698
v -291.972626 2.066324 -6.965916
v -294.057770 2.066894 -3.156429
v -291.977936 2.066490 -3.156635
v -294.056244 2.065779 -7.382809
v -294.056244 1.997482 -7.382809
v -294.056244 1.997482 -7.284191
v -291.976349 2.065779 -7.383472
v -291.976349 1.997482 -7.383472
v -291.976349 1.997861 -7.286160
v -287.757172 1.995964 -7.382465
v -287.757172 2.064261 -7.382465
v -288.167908 2.064260 -7.382496
v -288.167908 1.995964 -7.382496
v -288.167908 2.065022 -6.964954
v -287.754059 1.996723 -6.968372
v -287.754059 2.065020 -6.964954
v -289.896484 2.065399 -6.965687
v -289.896484 2.065020 -7.382984
v -289.896484 1.996723 -7.382984
v -289.896484 1.997861 -7.287525
v -288.167908 1.995964 -7.283894
v -287.848053 1.996722 -6.967762
v -287.842529 1.997486 -7.287251
v -287.750305 2.065778 -5.236835
v -287.750305 1.997481 -5.236835
v -288.168182 2.065778 -5.236866
v -287.848938 1.997481 -5.236835
v -287.753387 2.064972 -3.156528
v -287.753387 1.996675 -3.157368
v -288.168488 2.065921 -3.153980
v -287.849670 1.997244 -3.156528
v -289.898163 2.066608 -3.151844
v -289.897003 2.065778 -5.237598
v -288.169525 2.065921 -1.078053
v -289.899170 2.066537 -1.078388
v -289.899689 2.066751 1.005016
v -288.169830 2.066110 1.003567
v -291.979401 2.066466 -1.078030
v -291.979889 2.066040 1.001461
v -287.751801 2.065304 -1.078205
v -287.751801 1.997006 -1.078205
v -287.850403 1.997006 -1.078205
v -287.754852 2.064806 1.002087
v -287.754852 1.996509 1.001247
v -287.851166 1.997077 1.002087
v -288.170990 2.066063 3.080578
v -289.900665 2.066679 3.080242
v -291.980133 2.066537 3.079655
v -287.753265 2.065446 3.080425
v -287.753265 1.997149 3.080425
v -287.851898 1.997149 3.080425
v -294.059113 2.065732 3.079311
v -296.142517 2.065945 3.079548
v -294.059143 2.065684 1.003254
v -296.139832 2.065589 1.001842
v -298.217743 2.065874 3.079311
v -300.301178 2.066087 3.079548
v -298.217773 2.065826 1.003254
v -300.298462 2.065732 1.001842
v -302.376404 2.066016 3.079311
v -304.459808 2.066229 3.079548
v -302.376404 2.065969 1.003254
v -304.457123 2.065874 1.001842
v -306.535034 2.066158 3.079311
v -306.535034 2.066111 1.003254
v -304.459808 2.066229 -1.077190
v -306.535034 2.066158 -1.077435
v -300.301178 2.066087 -1.077190
v -302.376404 2.066016 -1.077435
v -296.142517 2.065945 -1.077190
v -298.217743 2.065874 -1.077435
v -294.059113 2.065732 -1.077435
v -312.707916 2.003460 9.322506
v -312.707916 1.028181 9.322506
v -312.707916 0.052903 9.322506
v -312.707947 0.052903 7.242733
v -312.696869 0.052902 5.162952
v -312.685760 0.052902 3.083157
v -312.685760 0.052902 1.003376
v -312.685760 0.052902 -1.076405
v -312.696320 0.052902 -3.156460
v -312.706635 0.052903 -5.236195
v -312.706238 0.052903 -7.316212
v -312.706238 1.028181 -7.316212
v -312.706238 2.003460 -7.316212
v -312.762695 2.003460 9.300884
v -312.762695 1.028181 9.300884
v -312.762695 0.052903 9.300884
v -312.762695 0.052903 7.242725
v -312.751587 0.052902 5.162937
v -312.740479 0.052902 3.083149
v -312.740479 0.052902 1.003368
v -312.740479 0.052902 -1.076420
v -312.751099 0.052902 -3.156467
v -312.761383 0.052903 -5.236195
v -312.760956 0.052903 -7.294598
v -312.760956 1.028181 -7.294598
v -312.760956 2.003460 -7.294598
v -287.931427 2.003460 9.324261
v -287.931427 1.028181 9.324261
v -287.931427 0.052903 9.324261
v -287.931030 0.052903 7.244267
v -287.941284 0.052902 5.164516
v -287.951904 0.052902 3.084446
v -287.951904 0.052902 1.004650
v -287.951904 0.052902 -1.075123
v -287.940796 0.052902 -3.154903
v -287.929657 0.052903 -5.234684
v -287.929688 0.052903 -7.314465
v -287.929688 1.028181 -7.314465
v -287.929688 2.003460 -7.314465
v -287.864746 2.003460 -7.301655
v -287.864746 1.028181 -7.301655
v -287.864746 0.052903 -7.301655
v -287.864716 0.052903 -5.243793
v -287.875854 0.052902 -3.160969
v -287.886932 0.052902 -1.078144
v -287.886932 0.052902 1.004665
v -287.886932 0.052902 3.087490
v -287.876343 0.052902 5.170597
v -287.866028 0.052903 7.253376
v -287.866455 0.052903 9.311466
v -287.866455 1.028181 9.311466
v -287.866455 2.003460 9.311466
vt 0.000000 0.322036
vt 0.000000 1.000000
vt 0.678011 1.000000
vt 0.678011 0.322036
vt 0.000000 0.322036
vt 0.000000 1.000000
vt 0.678011 1.000000
vt 0.678011 0.322036
vt 0.000000 0.322036
vt 0.000000 1.000000
vt 0.678011 1.000000
vt 0.678011 0.322036
vt 0.000000 0.322036
vt 0.000000 1.000000
vt 0.678011 1.000000
vt 0.678011 0.322036
vt 0.000000 0.322036
vt 0.000000 1.000000
vt 0.678011 1.000000
vt 0.678011 0.322036
vt 0.000418 0.319453
vt 0.000418 0.000000
vt 0.677156 0.319453
vt 0.000000 0.322036
vt 0.000000 1.000000
vt 0.678011 1.000000
vt 0.678011 0.322036
vt 0.000418 0.319453
vt 0.000418 0.000000
vt 0.677156 0.000000
vt 0.000000 0.322036
vt 0.000000 1.000000
vt 0.678011 1.000000
vt 0.678011 0.322036
vt 0.000000 0.322036
vt 0.000000 1.000000
vt 0.678011 1.000000
vt 0.678011 0.322036
vt 0.000418 0.000000
vt 0.677156 0.000000
vt 0.677156 0.319453
vt 0.000418 0.319453
vt 0.677156 0.319453
vt 0.000418 0.319453
vt 0.677156 0.000000
vt 0.677156 0.319453
vt 0.677156 0.000000
vt 0.000418 0.000000
vt 0.000418 0.000000
vt 0.677156 0.000000
vt 0.000418 0.319453
vt 0.677156 0.319453
vt 0.677156 0.000000
vt 0.000418 0.000000
vt 0.000418 0.000000
vt 0.677156 0.000000
vt 0.677156 0.319453
vt 0.000418 0.319453
vt 0.000418 0.319453
vt 0.677156 0.319453
vt 0.000418 0.319453
vt 0.677156 0.319453
vt 0.677156 0.000000
vt 0.000418 0.000000
vt 0.000000 0.322036
vt 0.000000 1.000000
vt 0.678011 1.000000
vt 0.678011 0.322036
vt 0.677156 0.000000
vt 0.677156 0.319453
vt 0.000418 0.319453
vt 0.000418 0.000000
vt 0.000000 0.322036
vt 0.000000 1.000000
vt 0.678011 1.000000
vt 0.678011 0.322036
vt 0.677156 0.000000
vt 0.677156 0.319453
vt 0.000418 0.319453
vt 0.000418 0.000000
vt 0.677156 0.000000
vt 0.677156 0.319453
vt 0.000418 0.319453
vt 0.000418 0.000000
vt 0.677156 0.000000
vt 0.677156 0.319453
vt 0.000418 0.319453
vt 0.000418 0.000000
vt 0.000000 0.322036
vt 0.000000 1.000000
vt 0.678011 1.000000
vt 0.678011 0.322036
vt 0.000000 0.322036
vt 0.000000 1.000000
vt 0.678011 1.000000
vt 0.678011 0.322036
vt 0.000000 0.322036
vt 0.000000 1.000000
vt 0.678011 1.000000
vt 0.678011 0.322036
vt 0.677156 0.000000
vt 0.677156 0.319453
vt 0.000418 0.319453
vt 0.000418 0.000000
vt 0.000000 0.322036
vt 0.000000 1.000000
vt 0.678011 1.000000
vt 0.678011 0.322036
vt 0.677156 0.000000
vt 0.677156 0.319453
vt 0.000418 0.319453
vt 0.000418 0.000000
vt 0.677156 0.000000
vt 0.677156 0.319453
vt 0.000418 0.319453
vt 0.000418 0.000000
vt 0.677156 0.000000
vt 0.677156 0.319453
vt 0.000418 0.319453
vt 0.000418 0.000000
vt 0.000000 0.322036
vt 0.000000 1.000000
vt 0.678011 1.000000
vt 0.678011 0.322036
vt 0.000000 0.322036
vt 0.000000 1.000000
vt 0.678011 1.000000
vt 0.678011 0.322036
vt 0.000000 0.322036
vt 0.000000 1.000000
vt 0.678011 1.000000
vt 0.678011 0.322036
vt 0.677156 0.000000
vt 0.677156 0.319453
vt 0.000418 0.319453
vt 0.000418 0.000000
vt 0.000000 0.322036
vt 0.000000 1.000000
vt 0.678011 1.000000
vt 0.678011 0.322036
vt 0.677156 0.000000
vt 0.677156 0.319453
vt 0.000418 0.319453
vt 0.000418 0.000000
vt 0.677156 0.000000
vt 0.677156 0.319453
vt 0.000418 0.319453
vt 0.000418 0.000000
vt 0.677156 0.000000
vt 0.677156 0.319453
vt 0.000418 0.319453
vt 0.000418 0.000000
vt 0.000000 0.322036
vt 0.000000 1.000000
vt 0.678011 1.000000
vt 0.678011 0.322036
vt 0.000000 0.322036
vt 0.000000 1.000000
vt 0.678011 1.000000
vt 0.678011 0.322036
vt 0.000000 0.322036
vt 0.000000 1.000000
vt 0.678011 1.000000
vt 0.678011 0.322036
vt 0.677156 0.000000
vt 0.677156 0.319453
vt 0.000418 0.319453
vt 0.000418 0.000000
vt 0.000000 0.322036
vt 0.000000 1.000000
vt 0.678011 1.000000
vt 0.678011 0.322036
vt 0.677156 0.000000
vt 0.677156 0.319453
vt 0.000418 0.319453
vt 0.000418 0.000000
vt 0.677156 0.000000
vt 0.677156 0.319453
vt 0.000418 0.319453
vt 0.000418 0.000000
vt 0.677156 0.000000
vt 0.677156 0.319453
vt 0.000418 0.319453
vt 0.000418 0.000000
vt 0.000000 0.322036
vt 0.000000 1.000000
vt 0.678011 1.000000
vt 0.678011 0.322036
vt 0.000000 0.322036
vt 0.000000 1.000000
vt 0.678011 1.000000
vt 0.678011 0.322036
vt 0.000000 0.322036
vt 0.000000 1.000000
vt 0.678011 1.000000
vt 0.678011 0.322036
vt 0.000418 0.319453
vt 0.000418 0.000000
vt 0.677156 0.319453
vt 0.000000 0.322036
vt 0.000000 1.000000
vt 0.678011 1.000000
vt 0.678011 0.322036
vt 0.000418 0.319453
vt 0.000418 0.000000
vt 0.677156 0.000000
vt 0.000000 0.322036
vt 0.000000 1.000000
vt 0.678011 1.000000
vt 0.678011 0.322036
vt 0.000000 0.322036
vt 0.000000 1.000000
vt 0.678011 1.000000
vt 0.678011 0.322036
vt 0.000418 0.000000
vt 0.677156 0.000000
vt 0.677156 0.319453
vt 0.000418 0.319453
vt 0.677156 0.319453
vt 0.000418 0.319453
vt 0.677156 0.000000
vt 0.677156 0.319453
vt 0.677156 0.000000
vt 0.000418 0.000000
vt 0.000418 0.000000
vt 0.677156 0.000000
vt 0.000418 0.319453
vt 0.677156 0.319453
vt 0.677156 0.000000
vt 0.000418 0.000000
vt 0.000418 0.000000
vt 0.677156 0.000000
vt 0.677156 0.319453
vt 0.000418 0.319453
vt 0.000418 0.319453
vt 0.677156 0.319453
vt 0.000418 0.319453
vt 0.677156 0.319453
vt 0.677156 0.000000
vt 0.000418 0.000000
vt 0.000000 0.322036
vt 0.000000 1.000000
vt 0.678011 1.000000
vt 0.678011 0.322036
vt 0.677156 0.000000
vt 0.677156 0.319453
vt 0.000418 0.319453
vt 0.000418 0.000000
vt 0.000000 0.322036
vt 0.000000 1.000000
vt 0.678011 1.000000
vt 0.678011 0.322036
vt 0.677156 0.000000
vt 0.677156 0.319453
vt 0.000418 0.319453
vt 0.000418 0.000000
vt 0.677156 0.000000
vt 0.677156 0.319453
vt 0.000418 0.319453
vt 0.000418 0.000000
vt 0.677156 0.000000
vt 0.677156 0.319453
vt 0.000418 0.319453
vt 0.000418 0.000000
vt 0.000000 0.322036
vt 0.000000 1.000000
vt 0.678011 1.000000
vt 0.678011 0.322036
vt 0.000000 0.322036
vt 0.000000 1.000000
vt 0.678011 1.000000
vt 0.678011 0.322036
vt 0.000000 0.322036
vt 0.000000 1.000000
vt 0.678011 1.000000
vt 0.678011 0.322036
vt 0.677156 0.000000
vt 0.677156 0.319453
vt 0.000418 0.319453
vt 0.000418 0.000000
vt 0.000000 0.322036
vt 0.000000 1.000000
vt 0.678011 1.000000
vt 0.678011 0.322036
vt 0.677156 0.000000
vt 0.677156 0.319453
vt 0.000418 0.319453
vt 0.000418 0.000000
vt 0.677156 0.000000
vt 0.677156 0.319453
vt 0.000418 0.319453
vt 0.000418 0.000000
vt 0.677156 0.000000
vt 0.677156 0.319453
vt 0.000418 0.319453
vt 0.000418 0.000000
vt 0.000000 0.322036
vt 0.000000 1.000000
vt 0.678011 1.000000
vt 0.678011 0.322036
vt 0.000000 0.322036
vt 0.000000 1.000000
vt 0.678011 1.000000
vt 0.678011 0.322036
vt 0.000000 0.322036
vt 0.000000 1.000000
vt 0.678011 1.000000
vt 0.678011 0.322036
vt 0.000418 0.319453
vt 0.000418 0.000000
vt 0.677156 0.319453
vt 0.000000 0.322036
vt 0.000000 1.000000
vt 0.678011 1.000000
vt 0.678011 0.322036
vt 0.000418 0.319453
vt 0.000418 0.000000
vt 0.677156 0.000000
vt 0.000000 0.322036
vt 0.000000 1.000000
vt 0.678011 1.000000
vt 0.678011 0.322036
vt 0.000000 0.322036
vt 0.000000 1.000000
vt 0.678011 1.000000
vt 0.678011 0.322036
vt 0.000418 0.000000
vt 0.677156 0.000000
vt 0.677156 0.319453
vt 0.000418 0.319453
vt 0.677156 0.319453
vt 0.000418 0.319453
vt 0.677156 0.000000
vt 0.677156 0.319453
vt 0.677156 0.000000
vt 0.000418 0.000000
vt 0.000418 0.000000
vt 0.677156 0.000000
vt 0.000418 0.319453
vt 0.677156 0.319453
vt 0.677156 0.000000
vt 0.000418 0.000000
vt 0.000418 0.000000
vt 0.677156 0.000000
vt 0.677156 0.319453
vt 0.000418 0.319453
vt 0.000418 0.319453
vt 0.677156 0.319453
vt 0.000418 0.319453
vt 0.677156 0.319453
vt 0.677156 0.000000
vt 0.000418 0.000000
vt 0.000000 0.322036
vt 0.000000 1.000000
vt 0.678011 1.000000
vt 0.678011 0.322036
vt 0.677156 0.000000
vt 0.677156 0.319453
vt 0.000418 0.319453
vt 0.000418 0.000000
vt 0.000000 0.322036
vt 0.000000 1.000000
vt 0.678011 1.000000
vt 0.678011 0.322036
vt 0.677156 0.000000
vt 0.677156 0.319453
vt 0.000418 0.319453
vt 0.000418 0.000000
vt 0.677156 0.000000
vt 0.677156 0.319453
vt 0.000418 0.319453
vt 0.000418 0.000000
vt 0.677156 0.000000
vt 0.677156 0.319453
vt 0.000418 0.319453
vt 0.000418 0.000000
vt 0.000000 0.322036
vt 0.000000 1.000000
vt 0.678011 1.000000
vt 0.678011 0.322036
vt 0.000000 0.322036
vt 0.000000 1.000000
vt 0.678011 1.000000
vt 0.678011 0.322036
vt 0.000000 0.322036
vt 0.000000 1.000000
vt 0.678011 1.000000
vt 0.678011 0.322036
vt 0.677156 0.000000
vt 0.677156 0.319453
vt 0.000418 0.319453
vt 0.000418 0.000000
vt 0.000000 0.322036
vt 0.000000 1.000000
vt 0.678011 1.000000
vt 0.678011 0.322036
vt 0.677156 0.000000
vt 0.677156 0.319453
vt 0.000418 0.319453
vt 0.000418 0.000000
vt 0.677156 0.000000
vt 0.677156 0.319453
vt 0.000418 0.319453
vt 0.000418 0.000000
vt 0.677156 0.000000
vt 0.677156 0.319453
vt 0.000418 0.319453
vt 0.000418 0.000000
vt 0.000000 0.322036
vt 0.000000 1.000000
vt 0.678011 1.000000
vt 0.678011 0.322036
vt 0.000000 0.322036
vt 0.000000 1.000000
vt 0.678011 1.000000
vt 0.678011 0.322036
vt 0.000000 0.322036
vt 0.000000 1.000000
vt 0.678011 1.000000
vt 0.678011 0.322036
vt 0.677156 0.000000
vt 0.677156 0.319453
vt 0.000418 0.319453
vt 0.000418 0.000000
vt 0.000000 0.322036
vt 0.000000 1.000000
vt 0.678011 1.000000
vt 0.678011 0.322036
vt 0.677156 0.000000
vt 0.677156 0.319453
vt 0.000418 0.319453
vt 0.000418 0.000000
vt 0.677156 0.000000
vt 0.677156 0.319453
vt 0.000418 0.319453
vt 0.000418 0.000000
vt 0.677156 0.000000
vt 0.677156 0.319453
vt 0.000418 0.319453
vt 0.000418 0.000000
vt 0.000000 0.322036
vt 0.000000 1.000000
vt 0.678011 1.000000
vt 0.678011 0.322036
vt 0.000000 0.322036
vt 0.000000 1.000000
vt 0.678011 1.000000
vt 0.678011 0.322036
vt 0.000000 0.322036
vt 0.000000 1.000000
vt 0.678011 1.000000
vt 0.678011 0.322036
vt 0.677156 0.000000
vt 0.677156 0.319453
vt 0.000418 0.319453
vt 0.000418 0.000000
vt 0.000000 0.322036
vt 0.000000 1.000000
vt 0.678011 1.000000
vt 0.678011 0.322036
vt 0.677156 0.000000
vt 0.677156 0.319453
vt 0.000418 0.319453
vt 0.000418 0.000000
vt 0.677156 0.000000
vt 0.677156 0.319453
vt 0.000418 0.319453
vt 0.000418 0.000000
vt 0.677156 0.000000
vt 0.677156 0.319453
vt 0.000418 0.319453
vt 0.000418 0.000000
vt 0.000000 0.322036
vt 0.000000 1.000000
vt 0.678011 1.000000
vt 0.678011 0.322036
vt 0.000000 0.322036
vt 0.000000 1.000000
vt 0.678011 1.000000
vt 0.678011 0.322036
vt 0.000000 0.322036
vt 0.000000 1.000000
vt 0.678011 1.000000
vt 0.678011 0.322036
vt 0.000418 0.319453
vt 0.000418 0.000000
vt 0.677156 0.319453
vt 0.000000 0.322036
vt 0.000000 1.000000
vt 0.678011 1.000000
vt 0.678011 0.322036
vt 0.000418 0.319453
vt 0.000418 0.000000
vt 0.677156 0.000000
vt 0.000000 0.322036
vt 0.000000 1.000000
vt 0.678011 1.000000
vt 0.678011 0.322036
vt 0.000000 0.322036
vt 0.000000 1.000000
vt 0.678011 1.000000
vt 0.678011 0.322036
vt 0.000418 0.000000
vt 0.677156 0.000000
vt 0.677156 0.319453
vt 0.000418 0.319453
vt 0.677156 0.319453
vt 0.000418 0.319453
vt 0.677156 0.000000
vt 0.677156 0.319453
vt 0.677156 0.000000
vt 0.000418 0.000000
vt 0.000418 0.000000
vt 0.677156 0.000000
vt 0.000418 0.319453
vt 0.677156 0.319453
vt 0.677156 0.000000
vt 0.000418 0.000000
vt 0.000418 0.000000
vt 0.677156 0.000000
vt 0.677156 0.319453
vt 0.000418 0.319453
vt 0.000418 0.319453
vt 0.677156 0.319453
vt 0.000418 0.319453
vt 0.677156 0.319453
vt 0.677156 0.000000
vt 0.000418 0.000000
vt 0.000000 0.322036
vt 0.000000 1.000000
vt 0.678011 1.000000
vt 0.678011 0.322036
vt 0.677156 0.000000
vt 0.677156 0.319453
vt 0.000418 0.319453
vt 0.000418 0.000000
vt 0.000000 0.322036
vt 0.000000 1.000000
vt 0.678011 1.000000
vt 0.678011 0.322036
vt 0.677156 0.000000
vt 0.677156 0.319453
vt 0.000418 0.319453
vt 0.000418 0.000000
vt 0.677156 0.000000
vt 0.677156 0.319453
vt 0.000418 0.319453
vt 0.000418 0.000000
vt 0.677156 0.000000
vt 0.677156 0.319453
vt 0.000418 0.319453
vt 0.000418 0.000000
vt 0.000000 0.322036
vt 0.000000 1.000000
vt 0.678011 1.000000
vt 0.678011 0.322036
vt 0.000000 0.322036
vt 0.000000 1.000000
vt 0.678011 1.000000
vt 0.678011 0.322036
vt 0.000000 0.322036
vt 0.000000 1.000000
vt 0.678011 1.000000
vt 0.678011 0.322036
vt 0.677156 0.000000
vt 0.677156 0.319453
vt 0.000418 0.319453
vt 0.000418 0.000000
vt 0.000000 0.322036
vt 0.000000 1.000000
vt 0.678011 1.000000
vt 0.678011 0.322036
vt 0.677156 0.000000
vt 0.677156 0.319453
vt 0.000418 0.319453
vt 0.000418 0.000000
vt 0.677156 0.000000
vt 0.677156 0.319453
vt 0.000418 0.319453
vt 0.000418 0.000000
vt 0.677156 0.000000
vt 0.677156 0.319453
vt 0.000418 0.319453
vt 0.000418 0.000000
vt 0.000000 0.322036
vt 0.000000 1.000000
vt 0.678011 1.000000
vt 0.678011 0.322036
vt 0.000000 0.322036
vt 0.000000 1.000000
vt 0.678011 1.000000
vt 0.678011 0.322036
vt 0.000000 0.322036
vt 0.000000 1.000000
vt 0.678011 1.000000
vt 0.678011 0.322036
vt 0.000000 0.322036
vt 0.000000 1.000000
vt 0.678011 1.000000
vt 0.678011 0.322036
vt 0.000000 0.322036
vt 0.000000 1.000000
vt 0.678011 1.000000
vt 0.678011 0.322036
vt 0.000000 0.322036
vt 0.000000 1.000000
vt 0.678011 1.000000
vt 0.678011 0.322036
vt 0.000000 0.322036
vt 0.000000 1.000000
vt 0.678011 1.000000
vt 0.678011 0.322036
vt 0.000000 0.322036
vt 0.000000 1.000000
vt 0.678011 1.000000
vt 0.678011 0.322036
vt 0.000000 0.322036
vt 0.000000 1.000000
vt 0.678011 1.000000
vt 0.678011 0.322036
vt 0.000000 0.322036
vt 0.000000 1.000000
vt 0.678011 1.000000
vt 0.678011 0.322036
vt 0.000000 0.322036
vt 0.000000 1.000000
vt 0.678011 1.000000
vt 0.678011 0.322036
vt 0.000000 0.322036
vt 0.000000 1.000000
vt 0.678011 1.000000
vt 0.678011 0.322036
vt 0.000000 0.322036
vt 0.000000 1.000000
vt 0.678011 1.000000
vt 0.678011 0.322036
vt 0.000000 0.322036
vt 0.000000 1.000000
vt 0.678011 1.000000
vt 0.678011 0.322036
vt 0.000000 0.322036
vt 0.000000 1.000000
vt 0.678011 1.000000
vt 0.678011 0.322036
vt 0.000000 0.322036
vt 0.000000 1.000000
vt 0.678011 1.000000
vt 0.678011 0.322036
vt 0.000000 0.322036
vt 0.000000 1.000000
vt 0.678011 1.000000
vt 0.678011 0.322036
vt 0.000000 0.322036
vt 0.000000 1.000000
vt 0.678011 1.000000
vt 0.678011 0.322036
vt 0.000000 0.322036
vt 0.000000 1.000000
vt 0.678011 1.000000
vt 0.678011 0.322036
vt 0.000000 0.322036
vt 0.000000 1.000000
vt 0.678011 1.000000
vt 0.678011 0.322036
vt 0.000000 0.322036
vt 0.000000 1.000000
vt 0.678011 1.000000
vt 0.678011 0.322036
vt 0.000000 0.322036
vt 0.000000 1.000000
vt 0.678011 1.000000
vt 0.678011 0.322036
vt 0.000000 0.322036
vt 0.000000 1.000000
vt 0.678011 1.000000
vt 0.678011 0.322036
vt 0.000000 0.322036
vt 0.000000 1.000000
vt 0.678011 1.000000
vt 0.678011 0.322036
vt 0.000000 0.322036
vt 0.000000 1.000000
vt 0.678011 1.000000
vt 0.678011 0.322036
vt 0.000000 0.322036
vt 0.000000 1.000000
vt 0.678011 1.000000
vt 0.678011 0.322036
vt 0.000000 0.322036
vt 0.000000 1.000000
vt 0.678011 1.000000
vt 0.678011 0.322036
vt 0.000000 0.322036
vt 0.000000 1.000000
vt 0.678011 1.000000
vt 0.678011 0.322036
vt 0.000000 0.322036
vt 0.000000 1.000000
vt 0.678011 1.000000
vt 0.678011 0.322036
vt 0.000000 0.322036
vt 0.000000 1.000000
vt 0.678011 1.000000
vt 0.678011 0.322036
vt 0.903585 0.065745
vt 0.932815 0.065745
vt 0.932817 0.249916
vt 0.903655 0.250496
vt 0.903585 0.036422
vt 0.734896 0.036422
vt 0.734896 0.007293
vt 0.903585 0.007293
vt 0.734925 0.250108
vt 0.734896 0.065745
vt 0.903585 0.984793
vt 0.734896 0.984262
vt 0.932815 0.984888
vt 0.961182 0.242181
vt 0.961229 0.984982
vt 0.961229 0.065745
vt 0.903585 0.984793
vt 0.734896 0.984262
vt 0.734925 0.250108
vt 0.903655 0.250496
vt 0.932817 0.249916
vt 0.932815 0.984888
vt 0.961182 0.242181
vt 0.961229 0.984982
vt 0.903585 0.984793
vt 0.734896 0.984262
vt 0.734925 0.250108
vt 0.903655 0.250496
vt 0.932817 0.249916
vt 0.961182 0.242181
vt 0.961229 0.984982
vt 0.932815 0.984888
vt 0.903585 0.984793
vt 0.734896 0.984262
vt 0.734925 0.250108
vt 0.903655 0.250496
vt 0.932817 0.249916
vt 0.961182 0.242181
vt 0.961229 0.984982
vt 0.932815 0.984888
vt 0.000000 1.000000
vt 0.000000 0.321078
vt 0.677219 0.321078
vt 0.677219 1.000000
vt 0.000000 0.321078
vt 0.677219 0.321078
vt 0.677219 1.000000
vt 0.000000 1.000000
vt 0.000000 0.321078
vt 0.677219 0.321078
vt 0.677219 1.000000
vt 0.000000 1.000000
vt 0.000000 0.321078
vt 0.677219 0.321078
vt 0.677219 1.000000
vt 0.000000 1.000000
vt 0.734896 0.065745
vt 0.734896 0.036422
vt 0.903585 0.036422
vt 0.903585 0.065745
vt 0.903655 0.250496
vt 0.932817 0.249916
vt 0.932815 0.984888
vt 0.903585 0.984793
vt 0.903655 0.250496
vt 0.932817 0.249916
vt 0.932815 0.984888
vt 0.903585 0.984793
vt 0.000703 0.320938
vt 0.677477 0.320938
vt 0.677477 1.000277
vt 0.000703 1.000277
vt 0.000703 0.320938
vt 0.677477 0.320938
vt 0.677477 1.000277
vt 0.000703 1.000277
vt 0.677477 0.320938
vt 0.677477 1.000277
vt 0.000703 1.000277
vt 0.000703 0.320938
vt 0.677477 0.320938
vt 0.677477 1.000277
vt 0.000703 1.000277
vt 0.000703 0.320938
vt 0.903585 0.984793
vt 0.734896 0.984262
vt 0.734925 0.250108
vt 0.903655 0.250496
vt 0.932817 0.249916
vt 0.961182 0.242181
vt 0.961229 0.984982
vt 0.932815 0.984888
vt 0.903585 0.984793
vt 0.734896 0.984262
vt 0.734925 0.250108
vt 0.903655 0.250496
vt 0.932817 0.249916
vt 0.961182 0.242181
vt 0.961229 0.984982
vt 0.932815 0.984888
vt 0.903655 0.250496
vt 0.932817 0.249916
vt 0.932815 0.984888
vt 0.903585 0.984793
vt 0.903655 0.250496
vt 0.932817 0.249916
vt 0.932815 0.984888
vt 0.903585 0.984793
vt 0.000703 0.320938
vt 0.677477 0.320938
vt 0.677477 1.000277
vt 0.000703 1.000277
vt 0.000703 0.320938
vt 0.677477 0.320938
vt 0.677477 1.000277
vt 0.000703 1.000277
vt 0.677477 0.320938
vt 0.677477 1.000277
vt 0.000703 1.000277
vt 0.000703 0.320938
vt 0.677477 0.320938
vt 0.677477 1.000277
vt 0.000703 1.000277
vt 0.000703 0.320938
vt 0.903585 0.984793
vt 0.734896 0.984262
vt 0.734925 0.250108
vt 0.903655 0.250496
vt 0.932817 0.249916
vt 0.961182 0.242181
vt 0.961229 0.984982
vt 0.932815 0.984888
vt 0.903585 0.984793
vt 0.734896 0.984262
vt 0.734925 0.250108
vt 0.903655 0.250496
vt 0.932817 0.249916
vt 0.961182 0.242181
vt 0.961229 0.984982
vt 0.932815 0.984888
vt 0.903655 0.250496
vt 0.932817 0.249916
vt 0.932815 0.984888
vt 0.903585 0.984793
vt 0.903655 0.250496
vt 0.932817 0.249916
vt 0.932815 0.984888
vt 0.903585 0.984793
vt 0.000703 0.320938
vt 0.677477 0.320938
vt 0.677477 1.000277
vt 0.000703 1.000277
vt 0.000703 0.320938
vt 0.677477 0.320938
vt 0.677477 1.000277
vt 0.000703 1.000277
vt 0.677477 0.320938
vt 0.677477 1.000277
vt 0.000703 1.000277
vt 0.000703 0.320938
vt 0.677477 0.320938
vt 0.677477 1.000277
vt 0.000703 1.000277
vt 0.000703 0.320938
vt 0.903585 0.984793
vt 0.734896 0.984262
vt 0.734925 0.250108
vt 0.903655 0.250496
vt 0.932817 0.249916
vt 0.961182 0.242181
vt 0.961229 0.984982
vt 0.932815 0.984888
vt 0.903585 0.984793
vt 0.734896 0.984262
vt 0.734925 0.250108
vt 0.903655 0.250496
vt 0.932817 0.249916
vt 0.961182 0.242181
vt 0.961229 0.984982
vt 0.932815 0.984888
vt 0.903655 0.250496
vt 0.932817 0.249916
vt 0.932815 0.984888
vt 0.903585 0.984793
vt 0.903655 0.250496
vt 0.932817 0.249916
vt 0.932815 0.984888
vt 0.903585 0.984793
vt 0.000703 0.320938
vt 0.677477 0.320938
vt 0.677477 1.000277
vt 0.000703 1.000277
vt 0.000703 0.320938
vt 0.677477 0.320938
vt 0.677477 1.000277
vt 0.000703 1.000277
vt 0.677477 0.320938
vt 0.677477 1.000277
vt 0.000703 1.000277
vt 0.000703 0.320938
vt 0.677477 0.320938
vt 0.677477 1.000277
vt 0.000703 1.000277
vt 0.000703 0.320938
vt 0.903585 0.984793
vt 0.734896 0.984262
vt 0.734925 0.250108
vt 0.903655 0.250496
vt 0.932817 0.249916
vt 0.961182 0.242181
vt 0.961229 0.984982
vt 0.932815 0.984888
vt 0.903585 0.984793
vt 0.734896 0.984262
vt 0.734925 0.250108
vt 0.903655 0.250496
vt 0.932817 0.249916
vt 0.961182 0.242181
vt 0.961229 0.984982
vt 0.932815 0.984888
vt 0.903655 0.250496
vt 0.932817 0.249916
vt 0.932815 0.984888
vt 0.903585 0.984793
vt 0.903655 0.250496
vt 0.932817 0.249916
vt 0.932815 0.984888
vt 0.903585 0.984793
vt 0.903585 0.065745
vt 0.932815 0.065745
vt 0.932817 0.249916
vt 0.903655 0.250496
vt 0.903585 0.036422
vt 0.734896 0.036422
vt 0.734896 0.007293
vt 0.903585 0.007293
vt 0.734925 0.250108
vt 0.734896 0.065745
vt 0.903585 0.984793
vt 0.734896 0.984262
vt 0.932815 0.984888
vt 0.961182 0.242181
vt 0.961229 0.984982
vt 0.961229 0.065745
vt 0.903585 0.984793
vt 0.734896 0.984262
vt 0.734925 0.250108
vt 0.903655 0.250496
vt 0.932817 0.249916
vt 0.932815 0.984888
vt 0.961182 0.242181
vt 0.961229 0.984982
vt 0.903585 0.984793
vt 0.734896 0.984262
vt 0.734925 0.250108
vt 0.903655 0.250496
vt 0.932817 0.249916
vt 0.961182 0.242181
vt 0.961229 0.984982
vt 0.932815 0.984888
vt 0.903585 0.984793
vt 0.734896 0.984262
vt 0.734925 0.250108
vt 0.903655 0.250496
vt 0.932817 0.249916
vt 0.961182 0.242181
vt 0.961229 0.984982
vt 0.932815 0.984888
vt 0.000000 1.000000
vt 0.000000 0.321078
vt 0.677219 0.321078
vt 0.677219 1.000000
vt 0.000000 0.321078
vt 0.677219 0.321078
vt 0.677219 1.000000
vt 0.000000 1.000000
vt 0.000000 0.321078
vt 0.677219 0.321078
vt 0.677219 1.000000
vt 0.000000 1.000000
vt 0.000000 0.321078
vt 0.677219 0.321078
vt 0.677219 1.000000
vt 0.000000 1.000000
vt 0.734896 0.065745
vt 0.734896 0.036422
vt 0.903585 0.036422
vt 0.903585 0.065745
vt 0.903655 0.250496
vt 0.932817 0.249916
vt 0.932815 0.984888
vt 0.903585 0.984793
vt 0.903655 0.250496
vt 0.932817 0.249916
vt 0.932815 0.984888
vt 0.903585 0.984793
vt 0.000703 0.320938
vt 0.677477 0.320938
vt 0.677477 1.000277
vt 0.000703 1.000277
vt 0.000703 0.320938
vt 0.677477 0.320938
vt 0.677477 1.000277
vt 0.000703 1.000277
vt 0.677477 0.320938
vt 0.677477 1.000277
vt 0.000703 1.000277
vt 0.000703 0.320938
vt 0.677477 0.320938
vt 0.677477 1.000277
vt 0.000703 1.000277
vt 0.000703 0.320938
vt 0.903585 0.984793
vt 0.734896 0.984262
vt 0.734925 0.250108
vt 0.903655 0.250496
vt 0.932817 0.249916
vt 0.961182 0.242181
vt 0.961229 0.984982
vt 0.932815 0.984888
vt 0.903585 0.984793
vt 0.734896 0.984262
vt 0.734925 0.250108
vt 0.903655 0.250496
vt 0.932817 0.249916
vt 0.961182 0.242181
vt 0.961229 0.984982
vt 0.932815 0.984888
vt 0.903655 0.250496
vt 0.932817 0.249916
vt 0.932815 0.984888
vt 0.903585 0.984793
vt 0.903655 0.250496
vt 0.932817 0.249916
vt 0.932815 0.984888
vt 0.903585 0.984793
vt 0.000703 0.320938
vt 0.677477 0.320938
vt 0.677477 1.000277
vt 0.000703 1.000277
vt 0.000703 0.320938
vt 0.677477 0.320938
vt 0.677477 1.000277
vt 0.000703 1.000277
vt 0.677477 0.320938
vt 0.677477 1.000277
vt 0.000703 1.000277
vt 0.000703 0.320938
vt 0.677477 0.320938
vt 0.677477 1.000277
vt 0.000703 1.000277
vt 0.000703 0.320938
vt 0.903585 0.984793
vt 0.734896 0.984262
vt 0.734925 0.250108
vt 0.903655 0.250496
vt 0.932817 0.249916
vt 0.961182 0.242181
vt 0.961229 0.984982
vt 0.932815 0.984888
vt 0.903585 0.984793
vt 0.734896 0.984262
vt 0.734925 0.250108
vt 0.903655 0.250496
vt 0.932817 0.249916
vt 0.961182 0.242181
vt 0.961229 0.984982
vt 0.932815 0.984888
vt 0.903655 0.250496
vt 0.932817 0.249916
vt 0.932815 0.984888
vt 0.903585 0.984793
vt 0.903655 0.250496
vt 0.932817 0.249916
vt 0.932815 0.984888
vt 0.903585 0.984793
vt 0.903585 0.065745
vt 0.932815 0.065745
vt 0.932817 0.249916
vt 0.903655 0.250496
vt 0.903585 0.036422
vt 0.734896 0.036422
vt 0.734896 0.007293
vt 0.903585 0.007293
vt 0.734925 0.250108
vt 0.734896 0.065745
vt 0.903585 0.984793
vt 0.734896 0.984262
vt 0.932815 0.984888
vt 0.961182 0.242181
vt 0.961229 0.984982
vt 0.961229 0.065745
vt 0.903585 0.984793
vt 0.734896 0.984262
vt 0.734925 0.250108
vt 0.903655 0.250496
vt 0.932817 0.249916
vt 0.932815 0.984888
vt 0.961182 0.242181
vt 0.961229 0.984982
vt 0.903585 0.984793
vt 0.734896 0.984262
vt 0.734925 0.250108
vt 0.903655 0.250496
vt 0.932817 0.249916
vt 0.961182 0.242181
vt 0.961229 0.984982
vt 0.932815 0.984888
vt 0.903585 0.984793
vt 0.734896 0.984262
vt 0.734925 0.250108
vt 0.903655 0.250496
vt 0.932817 0.249916
vt 0.961182 0.242181
vt 0.961229 0.984982
vt 0.932815 0.984888
vt 0.000000 1.000000
vt 0.000000 0.321078
vt 0.677219 0.321078
vt 0.677219 1.000000
vt 0.000000 0.321078
vt 0.677219 0.321078
vt 0.677219 1.000000
vt 0.000000 1.000000
vt 0.000000 0.321078
vt 0.677219 0.321078
vt 0.677219 1.000000
vt 0.000000 1.000000
vt 0.000000 0.321078
vt 0.677219 0.321078
vt 0.677219 1.000000
vt 0.000000 1.000000
vt 0.734896 0.065745
vt 0.734896 0.036422
vt 0.903585 0.036422
vt 0.903585 0.065745
vt 0.903655 0.250496
vt 0.932817 0.249916
vt 0.932815 0.984888
vt 0.903585 0.984793
vt 0.903655 0.250496
vt 0.932817 0.249916
vt 0.932815 0.984888
vt 0.903585 0.984793
vt 0.000703 0.320938
vt 0.677477 0.320938
vt 0.677477 1.000277
vt 0.000703 1.000277
vt 0.000703 0.320938
vt 0.677477 0.320938
vt 0.677477 1.000277
vt 0.000703 1.000277
vt 0.677477 0.320938
vt 0.677477 1.000277
vt 0.000703 1.000277
vt 0.000703 0.320938
vt 0.677477 0.320938
vt 0.677477 1.000277
vt 0.000703 1.000277
vt 0.000703 0.320938
vt 0.903585 0.984793
vt 0.734896 0.984262
vt 0.734925 0.250108
vt 0.903655 0.250496
vt 0.932817 0.249916
vt 0.961182 0.242181
vt 0.961229 0.984982
vt 0.932815 0.984888
vt 0.903585 0.984793
vt 0.734896 0.984262
vt 0.734925 0.250108
vt 0.903655 0.250496
vt 0.932817 0.249916
vt 0.961182 0.242181
vt 0.961229 0.984982
vt 0.932815 0.984888
vt 0.903655 0.250496
vt 0.932817 0.249916
vt 0.932815 0.984888
vt 0.903585 0.984793
vt 0.903655 0.250496
vt 0.932817 0.249916
vt 0.932815 0.984888
vt 0.903585 0.984793
vt 0.000703 0.320938
vt 0.677477 0.320938
vt 0.677477 1.000277
vt 0.000703 1.000277
vt 0.000703 0.320938
vt 0.677477 0.320938
vt 0.677477 1.000277
vt 0.000703 1.000277
vt 0.677477 0.320938
vt 0.677477 1.000277
vt 0.000703 1.000277
vt 0.000703 0.320938
vt 0.677477 0.320938
vt 0.677477 1.000277
vt 0.000703 1.000277
vt 0.000703 0.320938
vt 0.903585 0.984793
vt 0.734896 0.984262
vt 0.734925 0.250108
vt 0.903655 0.250496
vt 0.932817 0.249916
vt 0.961182 0.242181
vt 0.961229 0.984982
vt 0.932815 0.984888
vt 0.903585 0.984793
vt 0.734896 0.984262
vt 0.734925 0.250108
vt 0.903655 0.250496
vt 0.932817 0.249916
vt 0.961182 0.242181
vt 0.961229 0.984982
vt 0.932815 0.984888
vt 0.903655 0.250496
vt 0.932817 0.249916
vt 0.932815 0.984888
vt 0.903585 0.984793
vt 0.903655 0.250496
vt 0.932817 0.249916
vt 0.932815 0.984888
vt 0.903585 0.984793
vt 0.000703 0.320938
vt 0.677477 0.320938
vt 0.677477 1.000277
vt 0.000703 1.000277
vt 0.000703 0.320938
vt 0.677477 0.320938
vt 0.677477 1.000277
vt 0.000703 1.000277
vt 0.677477 0.320938
vt 0.677477 1.000277
vt 0.000703 1.000277
vt 0.000703 0.320938
vt 0.677477 0.320938
vt 0.677477 1.000277
vt 0.000703 1.000277
vt 0.000703 0.320938
vt 0.903585 0.984793
vt 0.734896 0.984262
vt 0.734925 0.250108
vt 0.903655 0.250496
vt 0.932817 0.249916
vt 0.961182 0.242181
vt 0.961229 0.984982
vt 0.932815 0.984888
vt 0.903585 0.984793
vt 0.734896 0.984262
vt 0.734925 0.250108
vt 0.903655 0.250496
vt 0.932817 0.249916
vt 0.961182 0.242181
vt 0.961229 0.984982
vt 0.932815 0.984888
vt 0.903655 0.250496
vt 0.932817 0.249916
vt 0.932815 0.984888
vt 0.903585 0.984793
vt 0.903655 0.250496
vt 0.932817 0.249916
vt 0.932815 0.984888
vt 0.903585 0.984793
vt 0.000703 0.320938
vt 0.677477 0.320938
vt 0.677477 1.000277
vt 0.000703 1.000277
vt 0.000703 0.320938
vt 0.677477 0.320938
vt 0.677477 1.000277
vt 0.000703 1.000277
vt 0.677477 0.320938
vt 0.677477 1.000277
vt 0.000703 1.000277
vt 0.000703 0.320938
vt 0.677477 0.320938
vt 0.677477 1.000277
vt 0.000703 1.000277
vt 0.000703 0.320938
vt 0.903585 0.984793
vt 0.734896 0.984262
vt 0.734925 0.250108
vt 0.903655 0.250496
vt 0.932817 0.249916
vt 0.961182 0.242181
vt 0.961229 0.984982
vt 0.932815 0.984888
vt 0.903585 0.984793
vt 0.734896 0.984262
vt 0.734925 0.250108
vt 0.903655 0.250496
vt 0.932817 0.249916
vt 0.961182 0.242181
vt 0.961229 0.984982
vt 0.932815 0.984888
vt 0.903655 0.250496
vt 0.932817 0.249916
vt 0.932815 0.984888
vt 0.903585 0.984793
vt 0.903655 0.250496
vt 0.932817 0.249916
vt 0.932815 0.984888
vt 0.903585 0.984793
vt 0.903585 0.065745
vt 0.932815 0.065745
vt 0.932817 0.249916
vt 0.903655 0.250496
vt 0.903585 0.036422
vt 0.734896 0.036422
vt 0.734896 0.007293
vt 0.903585 0.007293
vt 0.734925 0.250108
vt 0.734896 0.065745
vt 0.903585 0.984793
vt 0.734896 0.984262
vt 0.932815 0.984888
vt 0.961182 0.242181
vt 0.961229 0.984982
vt 0.961229 0.065745
vt 0.903585 0.984793
vt 0.734896 0.984262
vt 0.734925 0.250108
vt 0.903655 0.250496
vt 0.932817 0.249916
vt 0.932815 0.984888
vt 0.961182 0.242181
vt 0.961229 0.984982
vt 0.903585 0.984793
vt 0.734896 0.984262
vt 0.734925 0.250108
vt 0.903655 0.250496
vt 0.932817 0.249916
vt 0.961182 0.242181
vt 0.961229 0.984982
vt 0.932815 0.984888
vt 0.903585 0.984793
vt 0.734896 0.984262
vt 0.734925 0.250108
vt 0.903655 0.250496
vt 0.932817 0.249916
vt 0.961182 0.242181
vt 0.961229 0.984982
vt 0.932815 0.984888
vt 0.000000 1.000000
vt 0.000000 0.321078
vt 0.677219 0.321078
vt 0.677219 1.000000
vt 0.000000 0.321078
vt 0.677219 0.321078
vt 0.677219 1.000000
vt 0.000000 1.000000
vt 0.000000 0.321078
vt 0.677219 0.321078
vt 0.677219 1.000000
vt 0.000000 1.000000
vt 0.000000 0.321078
vt 0.677219 0.321078
vt 0.677219 1.000000
vt 0.000000 1.000000
vt 0.734896 0.065745
vt 0.734896 0.036422
vt 0.903585 0.036422
vt 0.903585 0.065745
vt 0.903655 0.250496
vt 0.932817 0.249916
vt 0.932815 0.984888
vt 0.903585 0.984793
vt 0.903655 0.250496
vt 0.932817 0.249916
vt 0.932815 0.984888
vt 0.903585 0.984793
vt 0.000703 0.320938
vt 0.677477 0.320938
vt 0.677477 1.000277
vt 0.000703 1.000277
vt 0.000703 0.320938
vt 0.677477 0.320938
vt 0.677477 1.000277
vt 0.000703 1.000277
vt 0.677477 0.320938
vt 0.677477 1.000277
vt 0.000703 1.000277
vt 0.000703 0.320938
vt 0.677477 0.320938
vt 0.677477 1.000277
vt 0.000703 1.000277
vt 0.000703 0.320938
vt 0.903585 0.984793
vt 0.734896 0.984262
vt 0.734925 0.250108
vt 0.903655 0.250496
vt 0.932817 0.249916
vt 0.961182 0.242181
vt 0.961229 0.984982
vt 0.932815 0.984888
vt 0.903585 0.984793
vt 0.734896 0.984262
vt 0.734925 0.250108
vt 0.903655 0.250496
vt 0.932817 0.249916
vt 0.961182 0.242181
vt 0.961229 0.984982
vt 0.932815 0.984888
vt 0.903655 0.250496
vt 0.932817 0.249916
vt 0.932815 0.984888
vt 0.903585 0.984793
vt 0.903655 0.250496
vt 0.932817 0.249916
vt 0.932815 0.984888
vt 0.903585 0.984793
vt 0.000703 0.320938
vt 0.677477 0.320938
vt 0.677477 1.000277
vt 0.000703 1.000277
vt 0.000703 0.320938
vt 0.677477 0.320938
vt 0.677477 1.000277
vt 0.000703 1.000277
vt 0.677477 0.320938
vt 0.677477 1.000277
vt 0.000703 1.000277
vt 0.000703 0.320938
vt 0.677477 0.320938
vt 0.677477 1.000277
vt 0.000703 1.000277
vt 0.000703 0.320938
vt 0.903585 0.984793
vt 0.734896 0.984262
vt 0.734925 0.250108
vt 0.903655 0.250496
vt 0.932817 0.249916
vt 0.961182 0.242181
vt 0.961229 0.984982
vt 0.932815 0.984888
vt 0.903585 0.984793
vt 0.734896 0.984262
vt 0.734925 0.250108
vt 0.903655 0.250496
vt 0.932817 0.249916
vt 0.961182 0.242181
vt 0.961229 0.984982
vt 0.932815 0.984888
vt 0.903655 0.250496
vt 0.932817 0.249916
vt 0.932815 0.984888
vt 0.903585 0.984793
vt 0.903655 0.250496
vt 0.932817 0.249916
vt 0.932815 0.984888
vt 0.903585 0.984793
vt 0.000703 0.320938
vt 0.677477 0.320938
vt 0.677477 1.000277
vt 0.000703 1.000277
vt 0.000703 0.320938
vt 0.677477 0.320938
vt 0.677477 1.000277
vt 0.000703 1.000277
vt 0.677477 0.320938
vt 0.677477 1.000277
vt 0.000703 1.000277
vt 0.000703 0.320938
vt 0.677477 0.320938
vt 0.677477 1.000277
vt 0.000703 1.000277
vt 0.000703 0.320938
vt 0.000703 0.320938
vt 0.677477 0.320938
vt 0.677477 1.000277
vt 0.000703 1.000277
vt 0.000703 0.320938
vt 0.677477 0.320938
vt 0.677477 1.000277
vt 0.000703 1.000277
vt 0.677477 0.320938
vt 0.677477 1.000277
vt 0.000703 1.000277
vt 0.000703 0.320938
vt 0.677477 0.320938
vt 0.677477 1.000277
vt 0.000703 1.000277
vt 0.000703 0.320938
vt 0.000703 0.320938
vt 0.677477 0.320938
vt 0.677477 1.000277
vt 0.000703 1.000277
vt 0.000703 0.320938
vt 0.677477 0.320938
vt 0.677477 1.000277
vt 0.000703 1.000277
vt 0.677477 0.320938
vt 0.677477 1.000277
vt 0.000703 1.000277
vt 0.000703 0.320938
vt 0.677477 0.320938
vt 0.677477 1.000277
vt 0.000703 1.000277
vt 0.000703 0.320938
vt 0.000703 0.320938
vt 0.677477 0.320938
vt 0.677477 1.000277
vt 0.000703 1.000277
vt 0.000703 0.320938
vt 0.677477 0.320938
vt 0.677477 1.000277
vt 0.000703 1.000277
vt 0.677477 0.320938
vt 0.677477 1.000277
vt 0.000703 1.000277
vt 0.000703 0.320938
vt 0.677477 0.320938
vt 0.677477 1.000277
vt 0.000703 1.000277
vt 0.000703 0.320938
vt 0.000703 0.320938
vt 0.677477 0.320938
vt 0.677477 1.000277
vt 0.000703 1.000277
vt 0.000703 0.320938
vt 0.677477 0.320938
vt 0.677477 1.000277
vt 0.000703 1.000277
vt 0.677477 0.320938
vt 0.677477 1.000277
vt 0.000703 1.000277
vt 0.000703 0.320938
vt 0.677477 0.320938
vt 0.677477 1.000277
vt 0.000703 1.000277
vt 0.000703 0.320938
vt 0.000703 0.320938
vt 0.677477 0.320938
vt 0.677477 1.000277
vt 0.000703 1.000277
vt 0.000703 0.320938
vt 0.677477 0.320938
vt 0.677477 1.000277
vt 0.000703 1.000277
vt 0.677477 0.320938
vt 0.677477 1.000277
vt 0.000703 1.000277
vt 0.000703 0.320938
vt 0.677477 0.320938
vt 0.677477 1.000277
vt 0.000703 1.000277
vt 0.000703 0.320938
vt 0.000703 0.320938
vt 0.677477 0.320938
vt 0.677477 1.000277
vt 0.000703 1.000277
vt 0.000703 0.320938
vt 0.677477 0.320938
vt 0.677477 1.000277
vt 0.000703 1.000277
vt 0.677477 0.320938
vt 0.677477 1.000277
vt 0.000703 1.000277
vt 0.000703 0.320938
vt 0.677477 0.320938
vt 0.677477 1.000277
vt 0.000703 1.000277
vt 0.000703 0.320938
vt 0.000703 0.320938
vt 0.677477 0.320938
vt 0.677477 1.000277
vt 0.000703 1.000277
vt 0.000703 0.320938
vt 0.677477 0.320938
vt 0.677477 1.000277
vt 0.000703 1.000277
vt 0.677477 0.320938
vt 0.677477 1.000277
vt 0.000703 1.000277
vt 0.000703 0.320938
vt 0.677477 0.320938
vt 0.677477 1.000277
vt 0.000703 1.000277
vt 0.000703 0.320938
vt 0.027753 0.319453
vt 0.027753 0.319453
vt 0.027753 0.000000
vt 0.000000 0.972615
vt 0.027753 0.000000
vt 0.000000 0.972615
vt 0.678011 0.972615
vt 0.000000 0.972615
vt 0.678011 0.972615
vt 0.000000 0.972615
vt 0.678011 0.972615
vt 0.000000 0.972615
vt 0.678011 0.972615
vt 0.000000 0.972615
vt 0.678011 0.972615
vt 0.650624 1.000000
vt 0.678011 0.972615
vt 0.650624 0.322036
vt 0.027387 0.322036
vt 0.027387 1.000000
vt 0.649820 0.000000
vt 0.649820 0.319453
vt 0.649820 0.000000
vt 0.649820 0.319453
vt 0.012749 0.319453
vt 0.012749 0.319453
vt 0.012749 0.000000
vt 0.000000 0.987647
vt 0.012749 0.000000
vt 0.000000 0.987647
vt 0.678011 0.987647
vt 0.000000 0.987647
vt 0.678011 0.987647
vt 0.000000 0.987647
vt 0.678011 0.987647
vt 0.000000 0.987647
vt 0.678011 0.987647
vt 0.000000 0.987647
vt 0.678011 0.987647
vt 0.665657 1.000000
vt 0.678011 0.987647
vt 0.665657 0.322036
vt 0.012354 0.322036
vt 0.012354 1.000000
vt 0.664825 0.000000
vt 0.664825 0.319453
vt 0.664825 0.000000
vt 0.664825 0.319453
vt 0.637277 0.319453
vt 0.637277 0.319453
vt 0.637277 0.000000
vt 0.039954 1.000000
vt 0.637277 0.000000
vt 0.638058 0.322036
vt 0.039954 0.322036
vt 0.638058 1.000000
vt 0.678011 0.960049
vt 0.000000 0.960049
vt 0.678011 0.960049
vt 0.000000 0.960049
vt 0.678011 0.960049
vt 0.000000 0.960049
vt 0.678011 0.960049
vt 0.000000 0.960049
vt 0.678011 0.960049
vt 0.000000 0.960049
vt 0.678011 0.960049
vt 0.000000 0.960049
vt 0.040296 0.000000
vt 0.040296 0.319453
vt 0.040296 0.000000
vt 0.040296 0.319453
vt 0.013299 0.319453
vt 0.013299 0.319453
vt 0.013299 0.000000
vt 0.000000 0.987096
vt 0.013299 0.000000
vt 0.000000 0.987096
vt 0.678011 0.987096
vt 0.000000 0.987096
vt 0.678011 0.987096
vt 0.000000 0.987096
vt 0.678011 0.987096
vt 0.000000 0.987096
vt 0.678011 0.987096
vt 0.000000 0.987096
vt 0.678011 0.987096
vt 0.665106 1.000000
vt 0.678011 0.987096
vt 0.665106 0.322036
vt 0.012905 0.322036
vt 0.012905 1.000000
vt 0.664275 0.000000
vt 0.664275 0.319453
vt 0.664275 0.000000
vt 0.664275 0.319453
vn -0.000000 -1.000000 0.000000
vn -0.000000 -1.000000 0.000000
vn -0.000000 -1.000000 0.000000
vn -0.000000 -1.000000 0.000000
vn -0.000000 -1.000000 0.000000
vn -0.000000 -1.000000 0.000000
vn 0.000000 -1.000000 0.000000
vn 0.000000 -1.000000 0.000000
vn 0.000000 -1.000000 -0.000000
vn 0.000000 -1.000000 0.000000
vn 0.000000 -1.000000 0.000000
vn 0.000000 -1.000000 0.000000
vn 0.000000 -1.000000 0.000000
vn -0.002672 0.000000 0.999996
vn -0.002672 0.000000 0.999996
vn -0.005347 0.000000 0.999986
vn -0.005347 0.000000 0.999986
vn -0.000000 -1.000000 0.000000
vn 0.000000 -1.000000 0.000000
vn 0.000000 -1.000000 0.000000
vn 0.000000 -1.000000 0.000000
vn -0.005347 0.000000 0.999986
vn -0.002672 0.000000 0.999996
vn 0.971693 0.000000 0.236246
vn 0.999997 0.000000 -0.002373
vn 0.999997 0.000000 -0.002373
vn 0.971693 0.000000 0.236246
vn 0.097066 0.000000 0.995278
vn 0.600577 0.000000 0.799567
vn 0.600580 0.000000 0.799565
vn 0.097069 0.000000 0.995278
vn 0.000000 -1.000000 0.000000
vn -0.000000 -1.000000 0.000000
vn -0.000000 -1.000000 -0.000000
vn 0.000000 -1.000000 0.000000
vn 0.097062 0.000000 0.995278
vn 0.600574 0.000000 0.799569
vn 0.999987 0.000000 -0.005025
vn 0.999987 0.000000 -0.005025
vn 0.999997 0.000000 -0.002373
vn 0.971693 0.000000 0.236246
vn 0.999987 0.000000 -0.005025
vn 0.000000 -1.000000 0.000000
vn 0.000000 -1.000000 0.000000
vn -0.000000 -1.000000 -0.000000
vn -0.000000 -1.000000 0.000000
vn 0.002540 0.000000 0.999997
vn 0.002540 0.000000 0.999997
vn 0.005023 0.000000 0.999987
vn 0.005024 0.000000 0.999987
vn 0.000000 -1.000000 0.000000
vn 0.000000 -1.000000 0.000000
vn 0.000000 0.000000 1.000000
vn 0.000000 0.000000 1.000000
vn 0.002540 0.000000 0.999997
vn 0.005023 0.000000 0.999987
vn 0.000000 0.000000 1.000000
vn 0.000000 -1.000000 -0.000000
vn 0.000000 -1.000000 -0.000000
vn 0.000000 -1.000000 -0.000000
vn 0.000000 -1.000000 0.000000
vn 0.000000 -1.000000 -0.000000
vn 0.000000 0.000000 1.000000
vn 0.000000 0.000000 1.000000
vn 0.000000 -1.000000 -0.000000
vn 0.000000 -1.000000 -0.000000
vn 0.000000 0.000000 1.000000
vn 0.000000 0.000000 1.000000
vn 0.000000 0.000000 1.000000
vn 0.000000 0.000000 1.000000
vn 0.000000 -1.000000 -0.000000
vn 0.000000 -1.000000 -0.000000
vn 0.000000 -1.000000 -0.000000
vn 0.000000 -1.000000 0.000000
vn 0.000000 0.000000 1.000000
vn 0.000000 0.000000 1.000000
vn 0.000000 -1.000000 0.000000
vn 0.000000 -1.000000 0.000000
vn 0.000000 0.000000 1.000000
vn 0.000000 0.000000 1.000000
vn 0.000000 0.000000 1.000000
vn 0.000000 0.000000 1.000000
vn 0.000000 -1.000000 -0.000000
vn 0.000000 -1.000000 -0.000000
vn 0.000000 -1.000000 0.000000
vn 0.000000 -1.000000 0.000000
vn -0.002674 0.000000 0.999996
vn -0.002674 0.000000 0.999996
vn -0.002674 0.000000 0.999996
vn -0.000000 -1.000000 -0.000000
vn -0.000000 -1.000000 0.000000
vn -0.000000 -1.000000 0.000000
vn -0.000000 -1.000000 0.000000
vn -0.000000 -1.000000 0.000000
vn -0.999996 0.000000 -0.002671
vn -0.999996 0.000000 -0.002671
vn -0.999986 0.000000 -0.005341
vn -0.999986 0.000000 -0.005341
vn -0.000000 -1.000000 0.000000
vn 0.000000 -1.000000 0.000000
vn -0.999986 0.000000 -0.005341
vn -0.999996 0.000000 -0.002671
vn -0.186968 0.000000 0.982366
vn 0.002380 0.000000 0.999997
vn 0.002380 0.000000 0.999997
vn -0.186968 0.000000 0.982366
vn -0.974616 0.000000 0.223882
vn -0.974616 0.000000 0.223884
vn -0.974617 0.000000 0.223880
vn 0.002380 0.000000 0.999997
vn -0.186968 0.000000 0.982366
vn 0.000000 -1.000000 0.000000
vn 0.000000 -1.000000 0.000000
vn 0.999997 0.000000 -0.002545
vn 0.999997 0.000000 -0.002545
vn 0.000000 -1.000000 0.000000
vn 0.000000 -1.000000 0.000000
vn 1.000000 0.000000 0.000000
vn 1.000000 0.000000 0.000000
vn 0.999997 0.000000 -0.002545
vn 1.000000 0.000000 0.000000
vn 0.000000 -1.000000 0.000000
vn -0.000000 -1.000000 -0.000000
vn 0.000000 -1.000000 -0.000000
vn 0.000000 -1.000000 0.000000
vn 0.000000 -1.000000 -0.000000
vn 0.999996 0.000000 0.002671
vn 0.999996 0.000000 0.002671
vn 0.000000 -1.000000 -0.000000
vn -0.000000 -1.000000 -0.000000
vn 0.999986 0.000000 0.005341
vn 0.999986 0.000000 0.005341
vn 0.999996 0.000000 0.002671
vn 0.999986 0.000000 0.005341
vn 0.000000 -1.000000 -0.000000
vn 0.000000 -1.000000 -0.000000
vn -0.000000 -1.000000 -0.000000
vn -0.000000 -1.000000 0.000000
vn -0.000000 -1.000000 0.000000
vn -0.000000 -1.000000 -0.000000
vn 0.002674 0.000000 -0.999996
vn 0.002674 0.000000 -0.999996
vn 0.005347 0.000000 -0.999986
vn 0.005347 0.000000 -0.999986
vn 0.000000 -1.000000 -0.000000
vn 0.000000 -1.000000 0.000000
vn 0.005347 0.000000 -0.999986
vn 0.002674 0.000000 -0.999996
vn -0.974587 0.000000 -0.224009
vn -0.999997 0.000000 0.002373
vn -0.999997 0.000000 0.002373
vn -0.974587 0.000000 -0.224010
vn -0.186991 0.000000 -0.982362
vn -0.186989 0.000000 -0.982362
vn -0.000000 -1.000000 -0.000000
vn 0.000000 -1.000000 -0.000000
vn 0.000000 -1.000000 0.000000
vn -0.186993 0.000000 -0.982361
vn -0.999987 0.000000 0.005025
vn -0.999987 0.000000 0.005025
vn -0.999997 0.000000 0.002373
vn -0.974587 0.000000 -0.224009
vn -0.999987 0.000000 0.005025
vn 0.000000 -1.000000 0.000000
vn 0.000000 -1.000000 0.000000
vn 0.000000 -1.000000 0.000000
vn 0.000000 -1.000000 -0.000000
vn -0.002538 0.000000 -0.999997
vn -0.002538 0.000000 -0.999997
vn -0.005024 0.000000 -0.999987
vn -0.005024 0.000000 -0.999987
vn 0.000000 -1.000000 0.000000
vn 0.000000 -1.000000 0.000000
vn 0.000000 0.000000 -1.000000
vn 0.000000 0.000000 -1.000000
vn -0.002538 0.000000 -0.999997
vn -0.005024 0.000000 -0.999987
vn 0.000000 0.000000 -1.000000
vn 0.000000 -1.000000 -0.000000
vn 0.000000 -1.000000 0.000000
vn 0.000000 0.000000 -1.000000
vn 0.000000 0.000000 -1.000000
vn 0.000000 -1.000000 -0.000000
vn 0.000000 -1.000000 0.000000
vn 0.000000 0.000000 -1.000000
vn 0.000000 0.000000 -1.000000
vn 0.000000 0.000000 -1.000000
vn 0.000000 0.000000 -1.000000
vn 0.000000 -1.000000 0.000000
vn 0.000000 -1.000000 0.000000
vn 0.000000 -1.000000 -0.000000
vn 0.000000 -1.000000 -0.000000
vn 0.000000 0.000000 -1.000000
vn 0.000000 0.000000 -1.000000
vn 0.000000 -1.000000 -0.000000
vn 0.000000 -1.000000 -0.000000
vn 0.000000 0.000000 -1.000000
vn 0.000000 0.000000 -1.000000
vn 0.000000 0.000000 -1.000000
vn 0.000000 0.000000 -1.000000
vn 0.000000 -1.000000 0.000000
vn 0.000000 -1.000000 0.000000
vn 0.000000 -1.000000 0.000000
vn 0.000000 -1.000000 0.000000
vn 0.002672 0.000000 -0.999996
vn 0.002672 0.000000 -0.999996
vn 0.002672 0.000000 -0.999996
vn 0.000000 -1.000000 0.000000
vn -0.000000 -1.000000 -0.000000
vn 0.000000 -1.000000 -0.000000
vn 0.999996 0.000000 0.002671
vn 0.999996 0.000000 0.002671
vn -0.000000 -1.000000 -0.000000
vn 0.000000 -1.000000 -0.000000
vn 0.999996 0.000000 0.002671
vn 0.097323 0.000000 -0.995253
vn 0.600568 0.000000 -0.799574
vn 0.600567 0.000000 -0.799574
vn 0.097324 0.000000 -0.995253
vn 0.971678 0.000000 -0.236307
vn 0.971679 0.000000 -0.236307
vn 0.000000 -1.000000 -0.000000
vn 0.000000 -1.000000 -0.000000
vn 0.971678 0.000000 -0.236308
vn -0.002383 0.000000 -0.999997
vn -0.002383 0.000000 -0.999997
vn 0.600567 0.000000 -0.799575
vn 0.097324 0.000000 -0.995253
vn -0.002383 0.000000 -0.999997
vn 0.000000 -1.000000 -0.000000
vn 0.000000 -1.000000 -0.000000
vn -0.999997 0.000000 0.002545
vn -0.999997 0.000000 0.002545
vn 0.000000 -1.000000 -0.000000
vn 0.000000 -1.000000 0.000000
vn -1.000000 0.000000 0.000000
vn -1.000000 0.000000 0.000000
vn -0.999997 0.000000 0.002545
vn -1.000000 0.000000 0.000000
vn 0.000000 -1.000000 0.000000
vn 0.000000 -1.000000 -0.000000
vn 0.000000 -1.000000 0.000000
vn 0.000000 -1.000000 0.000000
vn -0.999996 0.000000 -0.002671
vn -0.999996 0.000000 -0.002671
vn -0.999996 0.000000 -0.002671
vn 0.000000 -1.000000 -0.000000
vn -0.000000 -1.000000 -0.000000
vn 0.000000 -1.000000 -0.000000
vn 0.000000 -1.000000 0.000000
vn 0.000000 -1.000000 0.000000
vn 0.000000 -1.000000 0.000000
vn 0.000000 -1.000000 -0.000000
vn 0.000000 -1.000000 -0.000000
vn 0.000000 -1.000000 -0.000000
vn 0.000000 -1.000000 0.000000
vn 0.000000 -1.000000 -0.000000
vn 0.000000 -1.000000 0.000000
vn 0.000000 -1.000000 -0.000000
vn 0.000000 -1.000000 -0.000000
vn 0.000000 -1.000000 -0.000000
vn 0.000000 -1.000000 0.000000
vn 0.000000 -1.000000 0.000000
vn 0.000000 -1.000000 -0.000000
vn 1.000000 0.000000 0.000074
vn 1.000000 0.000000 0.000074
vn 1.000000 0.000000 0.000178
vn 1.000000 0.000000 0.000178
vn -0.004395 -0.999986 -0.003102
vn -0.000206 -0.999991 -0.004158
vn -0.000206 -0.999991 -0.004158
vn -0.004395 -0.999986 -0.003102
vn 0.000988 1.000000 0.000111
vn 0.001129 0.999999 0.000003
vn 0.001820 0.999998 0.000003
vn 0.001594 0.999999 0.000166
vn 0.001238 0.999999 0.000424
vn 0.000739 1.000000 0.000365
vn 1.000000 0.000000 0.000354
vn 1.000000 0.000000 0.000354
vn -0.007338 -0.999973 0.000670
vn -0.007338 -0.999973 0.000670
vn -0.006867 -0.999976 -0.000536
vn -0.006867 -0.999976 -0.000536
vn 0.001251 0.999999 0.000325
vn 0.000718 1.000000 0.000353
vn 1.000000 0.000000 0.000154
vn 1.000000 0.000000 0.000154
vn -0.004901 -0.999988 -0.000159
vn -0.004901 -0.999988 -0.000159
vn 0.000210 1.000000 0.000363
vn 0.000139 1.000000 0.000571
vn -0.000089 -0.999999 -0.001460
vn -0.000089 -0.999999 -0.001460
vn 0.000034 1.000000 0.000899
vn -0.000040 0.999999 0.001510
vn 0.000115 -0.999996 -0.002920
vn 0.000115 -0.999996 -0.002920
vn 0.000127 1.000000 0.000338
vn 0.000224 1.000000 0.000260
vn 0.000087 1.000000 0.000201
vn -0.000037 1.000000 0.000191
vn 0.004910 0.001029 0.999987
vn 0.004910 0.001029 0.999987
vn 0.007667 0.001607 0.999969
vn 0.007667 0.001607 0.999969
vn 0.000341 0.000222 1.000000
vn 0.000341 0.000222 1.000000
vn -0.000354 -0.000002 1.000000
vn -0.000354 -0.000002 1.000000
vn 0.000021 0.999999 0.001232
vn 0.000013 1.000000 0.000160
vn 0.000034 0.999999 0.001335
vn 0.000034 1.000000 0.000133
vn -0.000057 1.000000 0.000044
vn 0.000034 1.000000 -0.000000
vn 0.000002 0.999998 0.002094
vn 0.000041 -0.999996 -0.002919
vn 0.000041 -0.999996 -0.002919
vn 0.000033 0.999997 0.002308
vn -0.000033 -0.999996 -0.002919
vn -0.000033 -0.999996 -0.002919
vn -0.000354 -0.000002 1.000000
vn -0.000354 -0.000002 1.000000
vn -0.000356 -0.000002 1.000000
vn -0.000356 -0.000002 1.000000
vn 0.000034 0.999999 0.001335
vn 0.000034 1.000000 0.000133
vn 0.000034 0.999999 0.001335
vn 0.000034 1.000000 0.000133
vn 0.000034 1.000000 -0.000000
vn 0.000034 1.000000 -0.000000
vn 0.000034 0.999997 0.002307
vn -0.000033 -0.999996 -0.002919
vn -0.000033 -0.999996 -0.002919
vn 0.000034 0.999997 0.002307
vn -0.000033 -0.999996 -0.002919
vn -0.000033 -0.999996 -0.002919
vn -0.000354 -0.000002 1.000000
vn -0.000354 -0.000002 1.000000
vn -0.000354 -0.000002 1.000000
vn -0.000354 -0.000002 1.000000
vn 0.000034 0.999999 0.001336
vn 0.000034 1.000000 0.000133
vn 0.000034 0.999999 0.001335
vn 0.000034 1.000000 0.000133
vn 0.000034 1.000000 -0.000000
vn 0.000034 1.000000 -0.000000
vn 0.000033 0.999997 0.002308
vn -0.000033 -0.999996 -0.002919
vn -0.000033 -0.999996 -0.002919
vn 0.000033 0.999997 0.002308
vn -0.000033 -0.999996 -0.002918
vn -0.000033 -0.999996 -0.002918
vn -0.000356 -0.000002 1.000000
vn -0.000356 -0.000002 1.000000
vn -0.000354 -0.000002 1.000000
vn -0.000354 -0.000002 1.000000
vn 0.000061 0.999999 0.001070
vn -0.000007 1.000000 0.000134
vn -0.000092 1.000000 0.000718
vn -0.000082 1.000000 0.000171
vn 0.000038 1.000000 0.000038
vn 0.000003 1.000000 0.000122
vn 0.000137 0.999998 0.001849
vn -0.000206 -0.999997 -0.002426
vn -0.000206 -0.999997 -0.002426
vn -0.000063 0.999999 0.001250
vn -0.000102 -0.999988 -0.004903
vn -0.000102 -0.999988 -0.004903
vn 0.000316 0.000002 1.000000
vn 0.000316 0.000002 1.000000
vn -0.000407 0.000000 1.000000
vn -0.000407 0.000000 1.000000
vn -0.000111 0.000000 1.000000
vn -0.000111 0.000000 1.000000
vn -0.000194 0.000000 1.000000
vn -0.000194 0.000000 1.000000
vn 0.003169 -0.999985 -0.004380
vn 0.004223 -0.999991 -0.000204
vn 0.004223 -0.999991 -0.000204
vn 0.003169 -0.999985 -0.004380
vn -0.000111 1.000000 0.000989
vn -0.000003 0.999999 0.001130
vn -0.000002 0.999998 0.001821
vn -0.000166 0.999999 0.001594
vn -0.000293 0.999999 0.001238
vn -0.000234 1.000000 0.000739
vn -0.000480 0.000000 1.000000
vn -0.000480 0.000000 1.000000
vn -0.000667 -0.999973 -0.007327
vn -0.000667 -0.999973 -0.007327
vn 0.000406 -0.999976 -0.006868
vn 0.000406 -0.999976 -0.006868
vn -0.000363 1.000000 0.000210
vn -0.000571 1.000000 0.000139
vn 0.001460 -0.999999 -0.000092
vn 0.001460 -0.999999 -0.000092
vn -0.000899 1.000000 0.000034
vn -0.001510 0.999999 -0.000040
vn 0.002922 -0.999996 0.000115
vn 0.002922 -0.999996 0.000115
vn -0.000148 1.000000 0.000244
vn -0.000160 1.000000 0.000138
vn -0.999988 0.000000 0.004791
vn -0.999988 0.000000 0.004791
vn -0.999973 0.000000 0.007413
vn -0.999973 0.000000 0.007413
vn -1.000000 0.000215 0.000351
vn -1.000000 0.000215 0.000351
vn -1.000000 0.000215 -0.000352
vn -1.000000 0.000215 -0.000352
vn -0.001232 0.999999 0.000021
vn -0.000189 1.000000 0.000033
vn -0.001336 0.999999 0.000034
vn -0.000177 1.000000 0.000030
vn 0.000057 1.000000 0.000017
vn 0.000074 1.000000 0.000017
vn -0.002094 0.999998 0.000002
vn 0.002920 -0.999996 0.000041
vn 0.002920 -0.999996 0.000041
vn -0.002308 0.999997 0.000033
vn 0.002918 -0.999996 -0.000033
vn 0.002918 -0.999996 -0.000033
vn -1.000000 0.000215 -0.000352
vn -1.000000 0.000215 -0.000352
vn -1.000000 0.000215 -0.000352
vn -1.000000 0.000215 -0.000352
vn -0.001070 0.999999 0.000061
vn -0.000171 1.000000 -0.000010
vn -0.000718 1.000000 -0.000092
vn -0.000191 1.000000 -0.000096
vn 0.000017 1.000000 0.000060
vn -0.000111 1.000000 -0.000009
vn -0.001849 0.999998 0.000137
vn 0.002428 -0.999997 -0.000206
vn 0.002428 -0.999997 -0.000206
vn -0.001250 0.999999 -0.000063
vn 0.004906 -0.999988 -0.000102
vn 0.004906 -0.999988 -0.000102
vn -1.000000 0.000000 0.000316
vn -1.000000 0.000000 0.000316
vn -1.000000 0.000000 -0.000411
vn -1.000000 0.000000 -0.000411
vn -1.000000 0.000000 -0.000074
vn -1.000000 0.000000 -0.000074
vn -1.000000 0.000000 -0.000178
vn -1.000000 0.000000 -0.000178
vn 0.004390 -0.999985 0.003127
vn 0.000207 -0.999991 0.004182
vn 0.000207 -0.999991 0.004182
vn 0.004390 -0.999985 0.003127
vn -0.000988 1.000000 -0.000111
vn -0.001129 0.999999 -0.000002
vn -0.001820 0.999998 -0.000002
vn -0.001593 0.999999 -0.000166
vn -0.001238 0.999999 -0.000293
vn -0.000739 1.000000 -0.000234
vn -1.000000 0.000000 -0.000486
vn -1.000000 0.000000 -0.000486
vn 0.007335 -0.999973 -0.000669
vn 0.007335 -0.999973 -0.000669
vn 0.006871 -0.999976 0.000406
vn 0.006871 -0.999976 0.000406
vn -0.000210 1.000000 -0.000363
vn -0.000139 1.000000 -0.000571
vn 0.000092 -0.999999 0.001458
vn 0.000092 -0.999999 0.001458
vn -0.000034 1.000000 -0.000899
vn 0.000040 0.999999 -0.001510
vn -0.000115 -0.999996 0.002919
vn -0.000115 -0.999996 0.002919
vn -0.000247 1.000000 -0.000151
vn -0.000141 1.000000 -0.000168
vn -0.004792 0.000120 -0.999989
vn -0.004792 0.000120 -0.999989
vn -0.007413 0.000185 -0.999973
vn -0.007413 0.000185 -0.999973
vn -0.000351 0.000023 -1.000000
vn -0.000351 0.000023 -1.000000
vn 0.000354 -0.000002 -1.000000
vn 0.000354 -0.000002 -1.000000
vn -0.000021 0.999999 -0.001232
vn -0.000024 1.000000 -0.000192
vn -0.000034 0.999999 -0.001335
vn -0.000026 1.000000 -0.000167
vn 0.000024 1.000000 0.000087
vn -0.000000 1.000000 0.000137
vn -0.000002 0.999998 -0.002094
vn -0.000041 -0.999996 0.002919
vn -0.000041 -0.999996 0.002919
vn -0.000033 0.999997 -0.002308
vn 0.000033 -0.999996 0.002919
vn 0.000033 -0.999996 0.002919
vn 0.000355 -0.000002 -1.000000
vn 0.000355 -0.000002 -1.000000
vn 0.000354 -0.000002 -1.000000
vn 0.000354 -0.000002 -1.000000
vn -0.000034 0.999999 -0.001335
vn -0.000026 1.000000 -0.000150
vn -0.000034 0.999999 -0.001335
vn -0.000026 1.000000 -0.000133
vn 0.000000 1.000000 0.000171
vn -0.000000 1.000000 0.000205
vn -0.000033 0.999997 -0.002307
vn 0.000033 -0.999996 0.002919
vn 0.000033 -0.999996 0.002919
vn -0.000033 0.999997 -0.002307
vn 0.000033 -0.999996 0.002920
vn 0.000033 -0.999996 0.002920
vn 0.000354 -0.000002 -1.000000
vn 0.000354 -0.000002 -1.000000
vn 0.000356 -0.000002 -1.000000
vn 0.000356 -0.000002 -1.000000
vn -0.000034 0.999999 -0.001335
vn -0.000026 1.000000 -0.000116
vn -0.000034 0.999999 -0.001336
vn -0.000026 1.000000 -0.000099
vn -0.000000 1.000000 0.000240
vn -0.000000 1.000000 0.000274
vn -0.000033 0.999997 -0.002308
vn 0.000033 -0.999996 0.002920
vn 0.000033 -0.999996 0.002920
vn -0.000033 0.999997 -0.002308
vn 0.000033 -0.999996 0.002918
vn 0.000033 -0.999996 0.002918
vn 0.000354 -0.000002 -1.000000
vn 0.000354 -0.000002 -1.000000
vn 0.000354 -0.000002 -1.000000
vn 0.000354 -0.000002 -1.000000
vn 0.000013 0.999999 -0.001070
vn 0.000078 1.000000 -0.000094
vn 0.000240 1.000000 -0.000718
vn 0.000225 1.000000 -0.000138
vn -0.000000 1.000000 0.000223
vn 0.000060 1.000000 0.000032
vn -0.000063 0.999998 -0.001849
vn 0.000132 -0.999997 0.002427
vn 0.000132 -0.999997 0.002427
vn 0.000211 0.999999 -0.001251
vn -0.000044 -0.999988 0.004905
vn -0.000044 -0.999988 0.004905
vn -0.000539 0.000002 -1.000000
vn -0.000539 0.000002 -1.000000
vn -0.000042 0.000000 -1.000000
vn -0.000042 0.000000 -1.000000
vn 0.000074 0.000000 -1.000000
vn 0.000074 0.000000 -1.000000
vn 0.000179 0.000000 -1.000000
vn 0.000179 0.000000 -1.000000
vn -0.003198 -0.999985 0.004373
vn -0.004251 -0.999991 0.000202
vn -0.004251 -0.999991 0.000202
vn -0.003198 -0.999985 0.004373
vn 0.000111 1.000000 -0.000988
vn 0.000002 0.999999 -0.001129
vn 0.000002 0.999998 -0.001820
vn 0.000166 0.999999 -0.001593
vn 0.000367 0.999999 -0.001238
vn 0.000308 1.000000 -0.000739
vn 0.000259 0.000000 -1.000000
vn 0.000259 0.000000 -1.000000
vn 0.000667 -0.999973 0.007323
vn 0.000667 -0.999973 0.007323
vn -0.000478 -0.999976 0.006869
vn -0.000478 -0.999976 0.006869
vn 0.000362 1.000000 -0.000210
vn 0.000571 1.000000 -0.000139
vn -0.001458 -0.999999 0.000092
vn -0.001458 -0.999999 0.000092
vn 0.000898 1.000000 -0.000034
vn 0.001509 0.999999 0.000040
vn -0.002919 -0.999996 -0.000115
vn -0.002919 -0.999996 -0.000115
vn 0.000209 1.000000 -0.000229
vn 0.000167 1.000000 -0.000099
vn 0.999988 0.000000 -0.004828
vn 0.999988 0.000000 -0.004828
vn 0.999972 0.000000 -0.007486
vn 0.999972 0.000000 -0.007486
vn 1.000000 -0.000215 -0.000344
vn 1.000000 -0.000215 -0.000344
vn 1.000000 0.000000 0.000359
vn 1.000000 0.000000 0.000359
vn 0.001232 0.999999 -0.000021
vn 0.000127 1.000000 -0.000001
vn 0.001335 0.999999 -0.000034
vn 0.000083 1.000000 -0.000030
vn -0.000144 1.000000 0.000118
vn -0.000234 1.000000 -0.000017
vn 0.002093 0.999998 -0.000002
vn -0.002919 -0.999996 -0.000041
vn -0.002919 -0.999996 -0.000041
vn 0.002307 0.999997 -0.000033
vn -0.002918 -0.999996 0.000033
vn -0.002918 -0.999996 0.000033
vn 1.000000 0.000215 0.000352
vn 1.000000 0.000215 0.000352
vn 1.000000 0.000000 0.000352
vn 1.000000 0.000000 0.000352
vn 0.001070 0.999999 0.000069
vn 0.000082 1.000000 0.000136
vn -0.000191 1.000000 0.000075
vn 0.001849 0.999998 -0.000006
vn -0.002425 -0.999997 0.000075
vn -0.002425 -0.999997 0.000075
vn 1.000000 0.000000 -0.000440
vn 1.000000 0.000000 -0.000440
vn -0.000113 1.000000 0.000012
vn 0.000034 1.000000 -0.000000
vn -0.000121 1.000000 -0.000004
vn 0.000034 1.000000 -0.000000
vn 0.000034 1.000000 -0.000000
vn 0.000034 1.000000 -0.000000
vn 0.000034 1.000000 -0.000000
vn 0.000034 1.000000 -0.000000
vn 0.000034 1.000000 -0.000000
vn 0.000034 1.000000 -0.000000
vn 0.000034 1.000000 -0.000000
vn 0.000034 1.000000 -0.000000
vn 0.000081 1.000000 0.000004
vn 0.000090 1.000000 0.000004
vn 0.000026 1.000000 0.000171
vn 0.000075 1.000000 0.000144
vn 0.000026 1.000000 0.000205
vn 0.000026 1.000000 0.000188
vn 0.000026 1.000000 0.000240
vn 0.000026 1.000000 0.000222
vn -0.000093 1.000000 0.000224
vn -0.679862 0.000000 0.733340
vn -0.679860 0.000000 0.733342
vn -0.679863 0.000000 0.733339
vn -0.000000 -1.000000 0.000000
vn 0.000000 -1.000000 0.000000
vn -0.000000 -1.000000 0.000000
vn 0.000000 -1.000000 0.000000
vn 0.000000 -1.000000 0.000000
vn 0.000000 -1.000000 0.000000
vn -0.000000 -1.000000 -0.000000
vn -0.000000 -1.000000 -0.000000
vn 0.000000 -1.000000 0.000000
vn -0.679939 0.000000 -0.733269
vn -0.679937 0.000000 -0.733271
vn -0.679936 0.000000 -0.733272
vn 0.000000 -1.000000 0.000000
vn -0.000000 -1.000000 0.000000
vn -0.000000 -1.000000 0.000000
vn 0.000000 -1.000000 0.000000
vn 0.000000 -1.000000 0.000000
vn 0.000000 -1.000000 0.000000
vn -0.000000 -1.000000 -0.000000
vn -0.000000 -1.000000 -0.000000
vn 0.000000 -1.000000 0.000000
vn -0.000000 -1.000000 -0.000000
vn -0.000000 -1.000000 -0.000000
vn 0.000000 -1.000000 -0.000000
vn 0.000000 -1.000000 0.000000
vn 0.000000 -1.000000 0.000000
vn 0.000000 -1.000000 0.000000
vn 0.000000 -1.000000 0.000000
vn 0.000000 -1.000000 0.000000
vn 0.000000 -1.000000 0.000000
s 1
g polySurface23267
f 1/1/1 3/2/2 4/3/3 2/4/4
f 5/5/5 1/6/1 2/7/4 6/8/6
f 7/9/7 8/10/8 3/11/2 1/12/1
f 9/13/9 7/14/7 1/15/1 5/16/5
f 10/17/10 16/18/11 17/19/12 11/20/13
s 2
f 16/63/14 14/23/15 15/21/16 17/22/17
s 1
f 488/1639/18 507/1675/19 508/1676/20 487/1636/21
s 2
f 22/28/22 15/29/16 14/30/15 21/62/23
f 18/55/24 12/56/25 20/57/26 23/58/27
f 486/1635/28 509/1679/29 510/1680/30 485/1633/31
s 1
f 506/1672/32 507/1674/19 488/1638/18 489/1640/33
f 11/35/13 27/36/34 25/37/35 10/38/10
s 2
f 487/1637/36 508/1677/37 509/1678/29 486/1634/28
f 26/45/38 24/43/39 12/44/25 13/64/40
f 19/49/41 13/50/40 12/46/25 18/51/24
f 28/41/42 20/61/26 12/39/25 24/40/39
s 1
f 29/65/43 34/66/44 35/67/45 30/68/46
s 2
f 34/69/47 32/70/48 33/71/49 35/72/50
s 1
f 31/73/51 37/74/52 34/75/44 29/76/43
s 2
f 37/77/53 36/78/54 32/79/48 34/80/47
f 32/81/48 38/82/55 39/83/56 33/84/49
f 36/85/54 40/86/57 38/87/55 32/88/48
s 1
f 29/89/43 41/90/58 42/91/59 31/92/51
f 30/93/46 43/94/60 41/95/58 29/96/43
f 44/97/61 47/98/62 37/99/52 31/100/51
s 2
f 47/101/63 46/102/64 36/103/54 37/104/53
s 1
f 45/105/65 49/106/66 47/107/62 44/108/61
s 2
f 49/109/67 48/110/68 46/111/64 47/112/63
f 46/113/64 50/114/69 40/115/57 36/116/54
f 48/117/68 51/118/70 50/119/69 46/120/64
s 1
f 44/121/61 52/122/71 53/123/72 45/124/65
f 31/125/51 42/126/59 52/127/71 44/128/61
f 54/129/73 57/130/74 49/131/66 45/132/65
s 2
f 57/133/75 56/134/76 48/135/68 49/136/67
s 1
f 55/137/77 59/138/78 57/139/74 54/140/73
s 2
f 59/141/79 58/142/80 56/143/76 57/144/75
f 56/145/76 60/146/81 51/147/70 48/148/68
f 58/149/80 61/150/82 60/151/81 56/152/76
s 1
f 54/153/73 62/154/83 63/155/84 55/156/77
f 45/157/65 53/158/72 62/159/83 54/160/73
f 64/161/85 66/162/86 59/163/78 55/164/77
s 2
f 66/165/87 65/166/88 58/167/80 59/168/79
s 1
f 11/169/13 17/170/12 66/171/86 64/172/85
s 2
f 17/173/17 15/174/16 65/175/88 66/176/87
f 65/177/88 67/178/89 61/179/82 58/180/80
f 15/181/16 22/182/22 67/183/89 65/184/88
s 1
f 64/185/85 68/186/90 27/187/34 11/188/13
f 55/189/77 63/190/84 68/191/90 64/192/85
f 69/193/91 462/1590/92 463/1593/93 70/196/94
s 2
f 75/239/95 73/199/96 74/197/97 76/198/98
s 1
f 72/200/99 461/1588/100 462/1591/92 69/203/91
s 2
f 81/204/101 74/205/97 73/206/96 80/238/102
f 460/1587/103 71/232/104 79/233/105 459/1585/106
f 80/235/102 73/230/96 77/229/107 82/236/108
s 1
f 69/207/91 30/208/46 35/209/45 72/210/99
f 70/211/94 43/212/60 30/213/46 69/214/91
s 2
f 73/218/96 75/224/95 78/223/109 77/228/107
f 35/221/50 33/219/49 71/220/104 72/240/110
f 461/1589/111 72/226/110 71/222/104 460/1586/103
f 39/217/56 79/237/105 71/215/104 33/216/49
s 1
f 505/1670/112 506/1673/32 489/1641/33 490/1642/113
s 2
f 86/245/114 85/246/115 24/247/39 26/248/38
s 1
f 504/1668/116 505/1671/112 490/1643/113 491/1644/117
s 2
f 88/253/118 87/254/119 85/255/115 86/256/114
f 85/257/115 89/258/120 28/259/42 24/260/39
f 87/261/119 90/262/121 89/263/120 85/264/115
s 1
f 83/265/122 91/266/123 6/267/6 84/268/124
f 25/269/35 27/270/34 91/271/123 83/272/122
f 503/1666/125 504/1669/116 491/1645/117 492/1646/126
s 2
f 95/277/127 94/278/128 87/279/119 88/280/118
s 1
f 502/1664/129 503/1667/125 492/1647/126 493/1648/130
s 2
f 97/285/131 96/286/132 94/287/128 95/288/127
f 94/289/128 98/290/133 90/291/121 87/292/119
f 96/293/132 99/294/134 98/295/133 94/296/128
s 1
f 92/297/135 2/298/4 4/299/3 93/300/136
f 84/301/124 6/302/6 2/303/4 92/304/135
f 100/305/137 106/306/138 107/307/139 101/308/140
s 2
f 106/351/141 104/311/142 105/309/143 107/310/144
s 1
f 468/1603/145 469/1604/146 106/314/138 100/315/137
s 2
f 112/316/147 105/317/143 104/318/142 111/350/148
f 108/343/149 102/344/150 110/345/151 113/346/152
f 111/347/148 104/342/142 470/1607/153 471/1608/154
s 1
f 100/319/137 115/320/155 467/1600/156 468/1602/145
f 101/323/140 117/324/157 115/325/155 100/326/137
s 2
f 104/330/142 106/336/141 469/1605/158 470/1606/153
f 116/333/159 114/331/160 102/332/150 103/352/161
f 109/337/162 103/338/161 102/334/150 108/339/149
f 118/329/163 110/349/151 102/327/150 114/328/160
s 1
f 119/353/164 124/354/165 125/355/166 120/356/167
s 2
f 124/357/168 122/358/169 123/359/170 125/360/171
s 1
f 121/361/172 127/362/173 124/363/165 119/364/164
s 2
f 127/365/174 126/366/175 122/367/169 124/368/168
f 122/369/169 128/370/176 129/371/177 123/372/170
f 126/373/175 130/374/178 128/375/176 122/376/169
s 1
f 119/377/164 3/378/2 8/379/8 121/380/172
f 120/381/167 4/382/3 3/383/2 119/384/164
f 131/385/179 134/386/180 127/387/173 121/388/172
s 2
f 134/389/181 133/390/182 126/391/175 127/392/174
s 1
f 132/393/183 136/394/184 134/395/180 131/396/179
s 2
f 136/397/185 135/398/186 133/399/182 134/400/181
f 133/401/182 137/402/187 130/403/178 126/404/175
f 135/405/186 138/406/188 137/407/187 133/408/182
s 1
f 131/409/179 139/410/189 140/411/190 132/412/183
f 121/413/172 8/414/8 139/415/189 131/416/179
f 141/417/191 144/418/192 136/419/184 132/420/183
s 2
f 144/421/193 143/422/194 135/423/186 136/424/185
s 1
f 142/425/195 146/426/196 144/427/192 141/428/191
s 2
f 146/429/197 145/430/198 143/431/194 144/432/193
f 143/433/194 147/434/199 138/435/188 135/436/186
f 145/437/198 148/438/200 147/439/199 143/440/194
s 1
f 141/441/191 149/442/201 150/443/202 142/444/195
f 132/445/183 140/446/190 149/447/201 141/448/191
f 151/449/203 153/450/204 146/451/196 142/452/195
s 2
f 153/453/205 152/454/206 145/455/198 146/456/197
s 1
f 101/457/140 107/458/139 153/459/204 151/460/203
s 2
f 107/461/144 105/462/143 152/463/206 153/464/205
f 152/465/206 154/466/207 148/467/200 145/468/198
f 105/469/143 112/470/147 154/471/207 152/472/206
s 1
f 151/473/203 155/474/208 117/475/157 101/476/140
f 142/477/195 150/478/202 155/479/208 151/480/203
f 501/1662/209 502/1665/129 493/1649/130 494/1650/210
s 2
f 160/527/211 159/487/212 96/485/132 97/486/131
s 1
f 500/1660/213 501/1663/209 494/1651/210 495/1652/214
s 2
f 99/492/134 96/493/132 159/494/212 164/526/215
f 497/1656/216 498/1657/217 499/1659/218 496/1655/219
f 164/523/215 159/518/212 161/517/220 165/524/221
s 1
f 156/495/222 120/496/167 125/497/166 158/498/223
f 93/499/136 4/500/3 120/501/167 156/502/222
s 2
f 159/506/212 160/512/211 162/511/224 161/516/220
f 125/509/171 123/507/170 157/508/225 158/528/226
f 499/1658/218 500/1661/227 495/1653/228 496/1654/219
f 129/505/177 163/525/229 157/503/225 123/504/170
s 1
f 166/529/230 466/1598/231 467/1601/156 115/532/155
s 2
f 169/533/232 168/534/233 114/535/160 116/536/159
s 1
f 167/537/234 465/1596/235 466/1599/231 166/540/230
s 2
f 171/541/236 170/542/237 168/543/233 169/544/232
f 168/545/233 172/546/238 118/547/163 114/548/160
f 170/549/237 173/550/239 172/551/238 168/552/233
s 1
f 166/553/230 174/554/240 175/555/241 167/556/234
f 115/557/155 117/558/157 174/559/240 166/560/230
f 176/561/242 464/1594/243 465/1597/235 167/564/234
s 2
f 178/565/244 177/566/245 170/567/237 171/568/236
s 1
f 70/569/94 463/1592/93 464/1595/243 176/572/242
s 2
f 76/573/98 74/574/97 177/575/245 178/576/244
f 177/577/245 179/578/246 173/579/239 170/580/237
f 74/581/97 81/582/101 179/583/246 177/584/245
s 1
f 176/585/242 180/586/247 43/587/60 70/588/94
f 167/589/234 175/590/241 180/591/247 176/592/242
f 181/593/248 5/594/5 6/595/6 91/596/123
f 68/597/90 181/598/248 91/599/123 27/600/34
f 182/601/249 9/602/9 5/603/5 181/604/248
f 63/605/84 182/606/249 181/607/248 68/608/90
f 183/609/250 139/610/189 8/611/8 7/612/7
f 184/613/251 183/614/250 7/615/7 9/616/9
f 185/617/252 140/618/190 139/619/189 183/620/250
f 186/621/253 185/622/252 183/623/250 184/624/251
f 187/625/254 184/626/251 9/627/9 182/628/249
f 62/629/83 187/630/254 182/631/249 63/632/84
f 188/633/255 186/634/253 184/635/251 187/636/254
f 53/637/72 188/638/255 187/639/254 62/640/83
f 189/641/256 149/642/201 140/643/190 185/644/252
f 190/645/257 189/646/256 185/647/252 186/648/253
f 191/649/258 150/650/202 149/651/201 189/652/256
f 192/653/259 191/654/258 189/655/256 190/656/257
f 193/657/260 190/658/257 186/659/253 188/660/255
f 52/661/71 193/662/260 188/663/255 53/664/72
f 194/665/261 192/666/259 190/667/257 193/668/260
f 42/669/59 194/670/261 193/671/260 52/672/71
f 195/673/262 155/674/208 150/675/202 191/676/258
f 196/677/263 195/678/262 191/679/258 192/680/259
f 174/681/240 117/682/157 155/683/208 195/684/262
f 175/685/241 174/686/240 195/687/262 196/688/263
f 197/689/264 196/690/263 192/691/259 194/692/261
f 41/693/58 197/694/264 194/695/261 42/696/59
f 180/697/247 175/698/241 196/699/263 197/700/264
f 43/701/60 180/702/247 197/703/264 41/704/58
s 3
f 199/705/265 198/706/266 201/707/267 200/708/268
s 4
f 198/709/269 203/710/270 210/711/271 211/712/272
s 5
f 202/713/273 204/714/274 199/705/275 200/708/276
f 206/715/277 205/716/278 202/713/273 200/708/276
s 3
f 200/708/268 201/707/267 207/717/279 206/715/280
s 4
f 201/707/281 209/718/282 208/719/283 207/717/284
f 201/707/281 198/706/269 211/720/272 209/718/282
s 5
f 213/721/285 212/722/286 205/723/278 206/724/277
s 3
f 206/724/280 207/725/279 214/726/287 213/721/288
s 4
f 207/725/284 208/727/283 215/728/289 214/726/290
s 5
f 204/729/274 202/730/273 218/731/291 216/732/292
s 4
f 217/733/293 219/734/294 210/735/271 203/736/270
s 5
f 216/737/292 218/738/291 222/739/295 220/740/296
s 4
f 221/741/297 223/742/298 219/743/294 217/744/293
s 5
f 205/745/278 212/746/286 227/747/299 226/748/300
f 218/749/291 202/750/273 205/751/278 226/752/300
f 222/753/295 218/754/291 226/755/300 224/756/301
f 224/757/301 226/758/300 227/759/299 225/760/302
s 6
f 204/761/303 203/762/304 198/763/305 199/764/306
f 216/765/307 217/766/308 203/767/304 204/768/303
f 220/769/309 221/770/310 217/771/308 216/772/307
s 5
f 228/773/311 222/774/295 224/775/301 229/776/312
f 231/777/313 228/778/311 229/779/312 230/780/314
f 224/781/301 225/782/302 232/783/315 229/784/312
f 229/785/312 232/786/315 233/787/316 230/788/314
f 220/789/296 222/790/295 228/791/311 234/792/317
s 4
f 235/793/318 236/794/319 223/795/298 221/796/297
s 5
f 234/797/317 228/798/311 231/799/313 237/800/320
s 4
f 238/801/321 239/802/322 236/803/319 235/804/318
s 6
f 234/805/323 235/806/324 221/807/310 220/808/309
f 237/809/325 238/810/326 235/811/324 234/812/323
s 5
f 240/813/327 231/814/313 230/815/314 241/816/328
f 243/817/329 240/818/327 241/819/328 242/820/330
f 230/821/314 233/822/316 244/823/331 241/824/328
f 241/825/328 244/826/331 245/827/332 242/828/330
f 237/829/320 231/830/313 240/831/327 246/832/333
s 4
f 247/833/334 248/834/335 239/835/322 238/836/321
s 5
f 246/837/333 240/838/327 243/839/329 249/840/336
s 4
f 250/841/337 251/842/338 248/843/335 247/844/334
s 6
f 246/845/339 247/846/340 238/847/326 237/848/325
f 249/849/341 250/850/342 247/851/340 246/852/339
s 5
f 252/853/343 243/854/329 242/855/330 253/856/344
f 255/857/345 252/858/343 253/859/344 254/860/346
f 242/861/330 245/862/332 256/863/347 253/864/344
f 253/865/344 256/866/347 257/867/348 254/868/346
f 249/869/336 243/870/329 252/871/343 258/872/349
s 4
f 259/873/350 260/874/351 251/875/338 250/876/337
s 5
f 258/877/349 252/878/343 255/879/345 261/880/352
s 4
f 262/881/353 263/882/354 260/883/351 259/884/350
s 6
f 258/885/355 259/886/356 250/887/342 249/888/341
f 261/889/357 262/890/358 259/891/356 258/892/355
s 5
f 264/893/359 255/894/345 254/895/346 265/896/360
f 267/897/361 264/898/359 265/899/360 266/900/362
f 254/901/346 257/902/348 268/903/363 265/904/360
f 265/905/360 268/906/363 269/907/364 266/908/362
f 261/909/352 255/910/345 264/911/359 270/912/365
s 4
f 271/913/366 272/914/367 263/915/354 262/916/353
s 5
f 270/917/365 264/918/359 267/919/361 273/920/368
s 4
f 274/921/369 275/922/370 272/923/367 271/924/366
s 6
f 270/925/371 271/926/372 262/927/358 261/928/357
f 273/929/373 274/930/374 271/931/372 270/932/371
f 277/933/375 276/934/376 279/935/377 278/936/378
s 4
f 276/937/379 281/938/380 288/939/381 289/940/382
s 5
f 280/941/383 282/942/384 277/933/385 278/936/386
f 284/943/387 283/944/388 280/941/383 278/936/386
s 6
f 278/936/378 279/935/377 285/945/389 284/943/390
s 4
f 279/935/391 287/946/392 286/947/393 285/945/394
f 279/935/391 276/934/379 289/948/382 287/946/392
s 5
f 273/949/368 267/950/361 283/951/388 284/952/387
s 6
f 284/952/390 285/953/389 274/954/374 273/949/373
s 4
f 285/953/394 286/955/393 275/956/370 274/954/369
s 5
f 282/957/384 280/958/383 292/959/395 290/960/396
s 4
f 291/961/397 293/962/398 288/963/381 281/964/380
s 5
f 290/965/396 292/966/395 296/967/399 294/968/400
s 4
f 295/969/401 297/970/402 293/971/398 291/972/397
s 5
f 283/973/388 267/974/361 266/975/362 299/976/403
f 292/977/395 280/978/383 283/979/388 299/980/403
f 296/981/399 292/982/395 299/983/403 298/984/404
f 298/985/404 299/986/403 266/987/362 269/988/364
s 7
f 282/989/405 281/990/406 276/991/407 277/992/408
f 290/993/409 291/994/410 281/995/406 282/996/405
f 294/997/411 295/998/412 291/999/410 290/1000/409
s 5
f 300/1001/413 296/1002/399 298/1003/404 301/1004/414
f 303/1005/415 300/1006/413 301/1007/414 302/1008/416
f 298/1009/404 269/1010/364 304/1011/417 301/1012/414
f 301/1013/414 304/1014/417 305/1015/418 302/1016/416
f 294/1017/400 296/1018/399 300/1019/413 306/1020/419
s 4
f 307/1021/420 308/1022/421 297/1023/402 295/1024/401
s 5
f 306/1025/419 300/1026/413 303/1027/415 309/1028/422
s 4
f 310/1029/423 311/1030/424 308/1031/421 307/1032/420
s 7
f 306/1033/425 307/1034/426 295/1035/412 294/1036/411
f 309/1037/427 310/1038/428 307/1039/426 306/1040/425
s 5
f 312/1041/429 303/1042/415 302/1043/416 313/1044/430
f 315/1045/431 312/1046/429 313/1047/430 314/1048/432
f 302/1049/416 305/1050/418 316/1051/433 313/1052/430
f 313/1053/430 316/1054/433 317/1055/434 314/1056/432
f 309/1057/422 303/1058/415 312/1059/429 318/1060/435
s 4
f 319/1061/436 320/1062/437 311/1063/424 310/1064/423
s 5
f 318/1065/435 312/1066/429 315/1067/431 321/1068/438
s 4
f 322/1069/439 323/1070/440 320/1071/437 319/1072/436
s 7
f 318/1073/441 319/1074/442 310/1075/428 309/1076/427
f 321/1077/443 322/1078/444 319/1079/442 318/1080/441
f 325/1081/445 324/1082/446 327/1083/447 326/1084/448
s 4
f 324/1085/449 329/1086/450 336/1087/451 337/1088/452
s 5
f 328/1089/453 330/1090/454 325/1081/455 326/1084/456
f 332/1091/457 331/1092/458 328/1089/453 326/1084/456
s 7
f 326/1084/448 327/1083/447 333/1093/459 332/1091/460
s 4
f 327/1083/461 335/1094/462 334/1095/463 333/1093/464
f 327/1083/461 324/1082/449 337/1096/452 335/1094/462
s 5
f 321/1097/438 315/1098/431 331/1099/458 332/1100/457
s 7
f 332/1100/460 333/1101/459 322/1102/444 321/1097/443
s 4
f 333/1101/464 334/1103/463 323/1104/440 322/1102/439
s 5
f 330/1105/454 328/1106/453 340/1107/465 338/1108/466
s 4
f 339/1109/467 341/1110/468 336/1111/451 329/1112/450
s 5
f 338/1113/466 340/1114/465 344/1115/469 342/1116/470
s 4
f 343/1117/471 345/1118/472 341/1119/468 339/1120/467
s 5
f 331/1121/458 315/1122/431 314/1123/432 347/1124/473
f 340/1125/465 328/1126/453 331/1127/458 347/1128/473
f 344/1129/469 340/1130/465 347/1131/473 346/1132/474
f 346/1133/474 347/1134/473 314/1135/432 317/1136/434
s 8
f 330/1137/475 329/1138/476 324/1139/477 325/1140/478
f 338/1141/479 339/1142/480 329/1143/476 330/1144/475
f 342/1145/481 343/1146/482 339/1147/480 338/1148/479
s 5
f 348/1149/483 344/1150/469 346/1151/474 349/1152/484
f 351/1153/485 348/1154/483 349/1155/484 350/1156/486
f 346/1157/474 317/1158/434 352/1159/487 349/1160/484
f 349/1161/484 352/1162/487 353/1163/488 350/1164/486
f 342/1165/470 344/1166/469 348/1167/483 354/1168/489
s 4
f 355/1169/490 356/1170/491 345/1171/472 343/1172/471
s 5
f 354/1173/489 348/1174/483 351/1175/485 357/1176/492
s 4
f 358/1177/493 359/1178/494 356/1179/491 355/1180/490
s 8
f 354/1181/495 355/1182/496 343/1183/482 342/1184/481
f 357/1185/497 358/1186/498 355/1187/496 354/1188/495
s 5
f 360/1189/499 351/1190/485 350/1191/486 361/1192/500
f 363/1193/501 360/1194/499 361/1195/500 362/1196/502
f 350/1197/486 353/1198/488 364/1199/503 361/1200/500
f 361/1201/500 364/1202/503 365/1203/504 362/1204/502
f 357/1205/492 351/1206/485 360/1207/499 366/1208/505
s 4
f 367/1209/506 368/1210/507 359/1211/494 358/1212/493
s 5
f 366/1213/505 360/1214/499 363/1215/501 369/1216/508
s 4
f 370/1217/509 371/1218/510 368/1219/507 367/1220/506
s 8
f 366/1221/511 367/1222/512 358/1223/498 357/1224/497
f 369/1225/513 370/1226/514 367/1227/512 366/1228/511
s 5
f 372/1229/515 363/1230/501 362/1231/502 373/1232/516
f 375/1233/517 372/1234/515 373/1235/516 374/1236/518
f 362/1237/502 365/1238/504 376/1239/519 373/1240/516
f 373/1241/516 376/1242/519 377/1243/520 374/1244/518
f 369/1245/508 363/1246/501 372/1247/515 378/1248/521
s 4
f 379/1249/522 380/1250/523 371/1251/510 370/1252/509
s 5
f 378/1253/521 372/1254/515 375/1255/517 381/1256/524
s 4
f 382/1257/525 383/1258/526 380/1259/523 379/1260/522
s 8
f 378/1261/527 379/1262/528 370/1263/514 369/1264/513
f 381/1265/529 382/1266/530 379/1267/528 378/1268/527
s 5
f 384/1269/531 375/1270/517 374/1271/518 385/1272/532
f 387/1273/533 384/1274/531 385/1275/532 386/1276/534
f 374/1277/518 377/1278/520 388/1279/535 385/1280/532
f 385/1281/532 388/1282/535 389/1283/536 386/1284/534
f 381/1285/524 375/1286/517 384/1287/531 390/1288/537
s 4
f 391/1289/538 392/1290/539 383/1291/526 382/1292/525
s 5
f 390/1293/537 384/1294/531 387/1295/533 393/1296/540
s 4
f 394/1297/541 395/1298/542 392/1299/539 391/1300/538
s 8
f 390/1301/543 391/1302/544 382/1303/530 381/1304/529
f 393/1305/545 394/1306/546 391/1307/544 390/1308/543
f 397/1309/547 396/1310/548 399/1311/549 398/1312/550
s 4
f 396/1313/551 401/1314/552 408/1315/553 409/1316/554
s 5
f 400/1317/555 402/1318/556 397/1309/557 398/1312/558
f 404/1319/559 403/1320/560 400/1317/555 398/1312/558
s 8
f 398/1312/550 399/1311/549 405/1321/561 404/1319/562
s 4
f 399/1311/563 407/1322/564 406/1323/565 405/1321/566
f 399/1311/563 396/1310/551 409/1324/554 407/1322/564
s 5
f 393/1325/540 387/1326/533 403/1327/560 404/1328/559
s 8
f 404/1328/562 405/1329/561 394/1330/546 393/1325/545
s 4
f 405/1329/566 406/1331/565 395/1332/542 394/1330/541
s 5
f 402/1333/556 400/1334/555 412/1335/567 410/1336/568
s 4
f 411/1337/569 413/1338/570 408/1339/553 401/1340/552
s 5
f 410/1341/568 412/1342/567 416/1343/571 414/1344/572
s 4
f 415/1345/573 417/1346/574 413/1347/570 411/1348/569
s 5
f 403/1349/560 387/1350/533 386/1351/534 419/1352/575
f 412/1353/567 400/1354/555 403/1355/560 419/1356/575
f 416/1357/571 412/1358/567 419/1359/575 418/1360/576
f 418/1361/576 419/1362/575 386/1363/534 389/1364/536
s 3
f 402/1365/577 401/1366/578 396/1367/579 397/1368/580
f 410/1369/581 411/1370/582 401/1371/578 402/1372/577
f 414/1373/583 415/1374/584 411/1375/582 410/1376/581
s 5
f 420/1377/585 416/1378/571 418/1379/576 421/1380/586
f 423/1381/587 420/1382/585 421/1383/586 422/1384/588
f 418/1385/576 389/1386/536 424/1387/589 421/1388/586
f 421/1389/586 424/1390/589 425/1391/590 422/1392/588
f 414/1393/572 416/1394/571 420/1395/585 426/1396/591
s 4
f 427/1397/592 428/1398/593 417/1399/574 415/1400/573
s 5
f 426/1401/591 420/1402/585 423/1403/587 429/1404/594
s 4
f 430/1405/595 431/1406/596 428/1407/593 427/1408/592
s 3
f 426/1409/597 427/1410/598 415/1411/584 414/1412/583
f 429/1413/599 430/1414/600 427/1415/598 426/1416/597
s 5
f 432/1417/601 423/1418/587 422/1419/588 433/1420/602
f 212/1421/286 432/1422/601 433/1423/602 227/1424/299
f 422/1425/588 425/1426/590 434/1427/603 433/1428/602
f 433/1429/602 434/1430/603 225/1431/302 227/1432/299
f 429/1433/594 423/1434/587 432/1435/601 435/1436/604
s 4
f 436/1437/605 437/1438/606 431/1439/596 430/1440/595
s 5
f 435/1441/604 432/1442/601 212/1443/286 213/1444/285
s 4
f 214/1445/290 215/1446/289 437/1447/606 436/1448/605
s 3
f 435/1449/607 436/1450/608 430/1451/600 429/1452/599
f 213/1453/288 214/1454/287 436/1455/608 435/1456/607
s 5
f 232/1457/315 225/1458/302 434/1459/603 438/1460/609
f 233/1461/316 232/1462/315 438/1463/609 439/1464/610
f 434/1465/603 425/1466/590 440/1467/611 438/1468/609
f 438/1469/609 440/1470/611 441/1471/612 439/1472/610
f 244/1473/331 233/1474/316 439/1475/610 442/1476/613
f 245/1477/332 244/1478/331 442/1479/613 443/1480/614
f 439/1481/610 441/1482/612 444/1483/615 442/1484/613
f 442/1485/613 444/1486/615 445/1487/616 443/1488/614
f 256/1489/347 245/1490/332 443/1491/614 446/1492/617
f 257/1493/348 256/1494/347 446/1495/617 447/1496/618
f 443/1497/614 445/1498/616 448/1499/619 446/1500/617
f 446/1501/617 448/1502/619 449/1503/620 447/1504/618
f 268/1505/363 257/1506/348 447/1507/618 450/1508/621
f 269/1509/364 268/1510/363 450/1511/621 304/1512/417
f 447/1513/618 449/1514/620 451/1515/622 450/1516/621
f 450/1517/621 451/1518/622 305/1519/418 304/1520/417
f 451/1521/622 449/1522/620 452/1523/623 453/1524/624
f 305/1525/418 451/1526/622 453/1527/624 316/1528/433
f 452/1529/623 353/1530/488 352/1531/487 453/1532/624
f 453/1533/624 352/1534/487 317/1535/434 316/1536/433
f 448/1537/619 445/1538/616 454/1539/625 455/1540/626
f 449/1541/620 448/1542/619 455/1543/626 452/1544/623
f 454/1545/625 365/1546/504 364/1547/503 455/1548/626
f 455/1549/626 364/1550/503 353/1551/488 452/1552/623
f 444/1553/615 441/1554/612 456/1555/627 457/1556/628
f 445/1557/616 444/1558/615 457/1559/628 454/1560/625
f 456/1561/627 377/1562/520 376/1563/519 457/1564/628
f 457/1565/628 376/1566/519 365/1567/504 454/1568/625
f 440/1569/611 425/1570/590 424/1571/589 458/1572/629
f 441/1573/612 440/1574/611 458/1575/629 456/1576/627
f 424/1577/589 389/1578/536 388/1579/535 458/1580/629
f 458/1581/629 388/1582/535 377/1583/520 456/1584/627
s 2
f 473/1611/630 460/1587/103 459/1585/106 472/1609/631
f 474/1613/632 461/1589/111 460/1586/103 473/1610/630
s 1
f 475/1615/633 462/1591/92 461/1588/100 474/1612/634
f 476/1617/635 463/1593/93 462/1590/92 475/1614/633
f 477/1619/636 464/1595/243 463/1592/93 476/1616/635
f 478/1621/637 465/1597/235 464/1594/243 477/1618/636
f 479/1623/638 466/1599/231 465/1596/235 478/1620/637
f 480/1625/639 467/1601/156 466/1598/231 479/1622/638
f 468/1602/145 467/1600/156 480/1624/639 481/1626/640
f 469/1604/146 468/1603/145 481/1627/640 482/1628/641
s 2
f 470/1606/153 469/1605/158 482/1629/642 483/1630/643
f 484/1632/644 471/1608/154 470/1607/153 483/1631/643
f 77/231/107 473/1611/630 472/1609/631 82/234/108
f 78/225/109 474/1613/632 473/1610/630 77/227/107
s 1
f 475/1615/633 474/1612/634 78/201/645 75/202/646
f 476/1617/635 475/1614/633 75/194/646 76/195/647
f 477/1619/636 476/1616/635 76/570/647 178/571/648
f 478/1621/637 477/1618/636 178/562/648 171/563/649
f 479/1623/638 478/1620/637 171/538/649 169/539/650
f 480/1625/639 479/1622/638 169/530/650 116/531/651
f 481/1626/640 480/1624/639 116/321/651 103/322/652
f 103/312/652 109/313/653 482/1628/641 481/1627/640
s 2
f 483/1630/643 482/1629/642 109/335/162 108/340/149
f 484/1632/644 483/1631/643 108/341/149 113/348/152
f 21/59/23 14/54/15 486/1635/28 485/1633/31
f 14/42/15 16/48/14 487/1637/36 486/1634/28
s 1
f 488/1639/18 487/1636/21 16/26/11 10/27/10
f 10/31/10 25/32/35 489/1640/33 488/1638/18
f 83/241/122 490/1642/113 489/1641/33 25/244/35
f 84/249/124 491/1644/117 490/1643/113 83/252/122
f 92/273/135 492/1646/126 491/1645/117 84/276/124
f 93/281/136 493/1648/130 492/1647/126 92/284/135
f 156/481/222 494/1650/210 493/1649/130 93/484/136
f 158/488/223 495/1652/214 494/1651/210 156/491/222
s 2
f 496/1654/219 495/1653/228 158/514/226 157/510/225
f 497/1656/216 496/1655/219 157/520/225 163/521/229
f 161/519/220 499/1659/218 498/1657/217 165/522/221
f 162/513/224 500/1661/227 499/1658/218 161/515/220
s 1
f 501/1663/209 500/1660/213 162/489/654 160/490/655
f 502/1665/129 501/1662/209 160/482/655 97/483/656
f 503/1667/125 502/1664/129 97/282/656 95/283/657
f 504/1669/116 503/1666/125 95/274/657 88/275/658
f 505/1671/112 504/1668/116 88/250/658 86/251/659
f 506/1673/32 505/1670/112 86/242/659 26/243/660
f 507/1674/19 506/1672/32 26/33/660 13/34/661
f 13/24/661 19/25/662 508/1676/20 507/1675/19
s 2
f 509/1678/29 508/1677/37 19/47/41 18/52/24
f 510/1680/30 509/1679/29 18/53/24 23/60/27
