# This file uses centimeters as units for non-parametric coordinates.

g default
v -77.289276 0.599121 1.057916
v -77.289276 0.499218 1.057916
v -75.266327 0.599121 1.057916
v -75.266327 0.499218 1.057916
v -75.266327 0.599121 0.942084
v -75.266327 0.499218 0.942084
v -77.289276 0.599121 0.942084
v -77.289276 0.499218 0.942084
v -77.289276 0.373008 0.968831
v -77.289276 0.373008 1.031169
v -75.266327 0.373008 0.968831
v -75.266327 0.373008 1.031169
v -75.266327 0.308557 0.968831
v -75.266327 0.308557 1.031169
v -77.289276 0.308557 0.968831
v -77.289276 0.308557 1.031169
vt 0.752796 1.284514
vt 0.690112 1.284514
vt 0.690034 -0.190042
vt 0.752874 -0.190042
vt 0.835903 -0.190033
vt 0.898587 -0.190033
vt 0.898665 1.284522
vt 0.835825 1.284522
vt 0.981615 -0.190042
vt 0.981693 1.284514
vt 0.898665 1.284522
vt 0.898587 -0.190033
vt 0.835903 -0.190033
vt 0.835825 1.284522
vt 0.752796 1.284514
vt 0.752874 -0.190042
vt 0.807124 0.411276
vt 0.689386 0.411276
vt 0.689386 0.329169
vt 0.807124 0.329169
vt 0.752796 1.284514
vt 0.690112 1.284514
vt 0.690034 -0.190042
vt 0.752874 -0.190042
vt 0.835903 -0.190033
vt 0.898587 -0.190033
vt 0.898665 1.284522
vt 0.835825 1.284522
vt 0.981615 -0.190042
vt 0.981693 1.284514
vt 0.898665 1.284522
vt 0.898587 -0.190033
vt 0.835903 -0.190033
vt 0.835825 1.284522
vt 0.752796 1.284514
vt 0.752874 -0.190042
vt 0.807124 0.411276
vt 0.689386 0.411276
vt 0.689386 0.329169
vt 0.807124 0.329169
vt 0.807124 0.411276
vt 0.807124 0.329169
vt 0.689386 0.329169
vt 0.689386 0.411276
vt 0.807124 0.411276
vt 0.807124 0.329169
vt 0.689386 0.329169
vt 0.689386 0.411276
vn 0.000000 0.707107 0.707107
vn 0.000000 -0.707107 0.707107
vn 0.000000 -0.707107 0.707107
vn 0.000000 0.707107 0.707107
vn 0.000000 0.707107 -0.707107
vn 0.000000 -0.707107 -0.707107
vn 0.000000 -0.707107 -0.707107
vn 0.000000 0.707107 -0.707107
vn 1.000000 0.000000 0.000000
vn 1.000000 0.000000 0.000000
vn 1.000000 0.000000 0.000000
vn 1.000000 0.000000 0.000000
vn 0.000000 0.707107 -0.707107
vn 0.000000 0.707107 0.707107
vn 0.000000 0.707107 0.707107
vn 0.000000 0.707107 -0.707107
vn 0.000000 -0.707107 -0.707107
vn 0.000000 -0.707107 0.707107
vn 0.000000 -0.707107 0.707107
vn 0.000000 -0.707107 -0.707107
vn 1.000000 0.000000 0.000000
vn 1.000000 0.000000 0.000000
vn 1.000000 0.000000 0.000000
vn 1.000000 0.000000 0.000000
vn -1.000000 0.000000 0.000000
vn -1.000000 0.000000 0.000000
vn -1.000000 0.000000 0.000000
vn -1.000000 0.000000 0.000000
vn -1.000000 0.000000 0.000000
vn -1.000000 0.000000 0.000000
vn -1.000000 0.000000 0.000000
vn -1.000000 0.000000 0.000000
s 1
g polySurface26777
f 1/1/1 2/2/2 4/3/3 3/4/4
f 5/5/5 6/6/6 8/7/7 7/8/8
f 4/9/3 2/10/2 8/11/7 6/12/6
f 5/13/5 7/14/8 1/15/1 3/16/4
s off
f 5/17/9 3/18/10 4/19/11 6/20/12
s 3
f 9/21/13 10/22/14 12/23/15 11/24/16
f 13/25/17 14/26/18 16/27/19 15/28/20
f 12/29/15 10/30/14 16/31/19 14/32/18
f 13/33/17 15/34/20 9/35/13 11/36/16
s off
f 13/37/21 11/38/22 12/39/23 14/40/24
f 7/41/25 8/42/26 2/43/27 1/44/28
f 15/45/29 16/46/30 10/47/31 9/48/32
