# This file uses centimeters as units for non-parametric coordinates.

g default
v -79.017654 0.012053 1.150990
v -78.715668 0.012053 1.150990
v -78.967621 0.674792 1.100953
v -78.765701 0.674792 1.100953
v -78.967621 0.674792 0.899045
v -78.765701 0.674792 0.899045
v -79.017654 0.012053 0.849009
v -78.715668 0.012053 0.849009
v -79.017426 0.915066 1.150757
v -78.715897 0.915066 1.150757
v -78.715897 0.915066 0.849242
v -79.017426 0.915066 0.849242
v -78.866661 1.032678 0.999999
vt 0.375000 0.000000
vt 0.625000 0.000000
vt 0.625000 0.250000
vt 0.375000 0.250000
vt 0.375000 0.500000
vt 0.500000 0.375000
vt 0.625000 0.500000
vt 0.375000 0.500000
vt 0.625000 0.500000
vt 0.625000 0.750000
vt 0.375000 0.750000
vt 0.625000 1.000000
vt 0.375000 1.000000
vt 0.875000 0.000000
vt 0.875000 0.250000
vt 0.125000 0.000000
vt 0.125000 0.250000
vt 0.625000 0.250000
vt 0.375000 0.250000
vn 0.000000 0.075285 0.997162
vn 0.000000 0.075285 0.997162
vn 0.000000 -0.064469 0.997920
vn 0.000000 -0.064469 0.997920
vn 0.000000 0.788463 -0.615082
vn 0.000000 0.788463 -0.615082
vn 0.000000 0.788463 -0.615082
vn 0.000000 -0.064469 -0.997920
vn 0.000000 -0.064469 -0.997920
vn 0.000000 0.075285 -0.997162
vn 0.000000 0.075285 -0.997162
vn 0.000000 -1.000000 0.000000
vn 0.000000 -1.000000 0.000000
vn 0.000000 -1.000000 0.000000
vn 0.000000 -1.000000 0.000000
vn 0.997163 0.075274 0.000000
vn 0.997163 0.075274 0.000000
vn 0.997919 -0.064472 0.000000
vn 0.997919 -0.064472 0.000000
vn -0.997162 0.075287 0.000000
vn -0.997162 0.075287 0.000000
vn -0.997920 -0.064471 0.000000
vn -0.997920 -0.064471 0.000000
vn 0.000000 -0.202964 0.979186
vn 0.000000 -0.202964 0.979186
vn 0.979187 -0.202959 0.000000
vn 0.979187 -0.202959 0.000000
vn 0.000000 -0.202964 -0.979186
vn 0.000000 -0.202964 -0.979186
vn -0.979185 -0.202970 0.000000
vn -0.979185 -0.202970 0.000000
vn -0.615097 0.788451 0.000000
vn -0.615097 0.788451 0.000000
vn -0.615097 0.788451 0.000000
vn 0.000000 0.788463 0.615082
vn 0.000000 0.788463 0.615082
vn 0.000000 0.788463 0.615082
vn 0.615097 0.788451 0.000000
vn 0.615097 0.788451 0.000000
vn 0.615097 0.788451 0.000000
s 1
g polySurface18847
f 1/1/1 2/2/2 4/3/3 3/4/4
s off
f 12/5/5 13/6/6 11/7/7
s 3
f 5/8/8 6/9/9 8/10/10 7/11/11
s off
f 7/11/12 8/10/13 2/12/14 1/13/15
s 5
f 2/2/16 8/14/17 6/15/18 4/3/19
s 6
f 7/16/20 1/1/21 3/4/22 5/17/23
s 1
f 3/4/4 4/3/3 10/18/24 9/19/25
s 5
f 4/3/19 6/9/18 11/7/26 10/18/27
s 3
f 6/9/9 5/8/8 12/5/28 11/7/29
s 6
f 5/8/23 3/4/22 9/19/30 12/5/31
s off
f 9/19/32 13/6/33 12/5/34
f 9/19/35 10/18/36 13/6/37
f 11/7/38 13/6/39 10/18/40
