# This file uses centimeters as units for non-parametric coordinates.

g default
v -62.379883 0.025963 2.216023
v -62.077896 0.025963 2.216023
v -62.329849 0.688702 2.165987
v -62.127945 0.688702 2.165987
v -62.329849 0.688702 1.964079
v -62.127945 0.688702 1.964079
v -62.379883 0.025963 1.914042
v -62.077896 0.025963 1.914042
v -62.379654 0.928976 2.215791
v -62.078140 0.928976 2.215791
v -62.078140 0.928976 1.914275
v -62.379654 0.928976 1.914275
v -62.228897 1.046588 2.065033
v -64.287567 0.322857 2.104290
v -62.263153 0.322857 2.104290
v -64.287567 0.612417 2.138052
v -62.263153 0.612417 2.138052
v -64.287567 0.612417 2.009465
v -62.263153 0.612417 2.009465
v -64.287567 0.322857 2.043227
v -62.263153 0.322857 2.043227
v -64.465332 0.025963 2.216023
v -64.163345 0.025963 2.216023
v -64.415298 0.688702 2.165987
v -64.213394 0.688702 2.165987
v -64.415298 0.688702 1.964079
v -64.213394 0.688702 1.964079
v -64.465332 0.025963 1.914042
v -64.163345 0.025963 1.914042
v -64.465103 0.928976 2.215791
v -64.163589 0.928976 2.215791
v -64.163589 0.928976 1.914275
v -64.465103 0.928976 1.914275
v -64.314346 1.046588 2.065033
v -64.337341 0.322857 -0.038258
v -64.337341 0.322857 1.986156
v -64.371109 0.612417 -0.038258
v -64.371109 0.612417 1.986156
v -64.242523 0.612417 -0.038258
v -64.242523 0.612417 1.986156
v -64.276276 0.322857 -0.038258
v -64.276276 0.322857 1.986156
v -64.449081 0.025963 -0.216022
v -64.449081 0.025963 0.085964
v -64.399033 0.688702 -0.165989
v -64.399033 0.688702 0.035915
v -64.197128 0.688702 -0.165989
v -64.197128 0.688702 0.035915
v -64.147095 0.025963 -0.216022
v -64.147095 0.025963 0.085964
v -64.448837 0.928976 -0.215794
v -64.448837 0.928976 0.085720
v -64.147324 0.928976 0.085720
v -64.147324 0.928976 -0.215794
v -64.298080 1.046588 -0.065037
vt 0.375000 0.000000
vt 0.625000 0.000000
vt 0.625000 0.250000
vt 0.375000 0.250000
vt 0.375000 0.500000
vt 0.500000 0.375000
vt 0.625000 0.500000
vt 0.375000 0.500000
vt 0.625000 0.500000
vt 0.625000 0.750000
vt 0.375000 0.750000
vt 0.625000 1.000000
vt 0.375000 1.000000
vt 0.875000 0.000000
vt 0.875000 0.250000
vt 0.125000 0.000000
vt 0.125000 0.250000
vt 0.625000 0.250000
vt 0.375000 0.250000
vt 0.375000 0.000000
vt 0.625000 0.000000
vt 0.625000 0.250000
vt 0.375000 0.250000
vt 0.625000 0.500000
vt 0.375000 0.500000
vt 0.625000 0.750000
vt 0.375000 0.750000
vt 0.625000 1.000000
vt 0.375000 1.000000
vt 0.875000 0.000000
vt 0.875000 0.250000
vt 0.125000 0.000000
vt 0.125000 0.250000
vt 0.375000 0.000000
vt 0.625000 0.000000
vt 0.625000 0.250000
vt 0.375000 0.250000
vt 0.375000 0.500000
vt 0.500000 0.375000
vt 0.625000 0.500000
vt 0.375000 0.500000
vt 0.625000 0.500000
vt 0.625000 0.750000
vt 0.375000 0.750000
vt 0.625000 1.000000
vt 0.375000 1.000000
vt 0.875000 0.000000
vt 0.875000 0.250000
vt 0.125000 0.000000
vt 0.125000 0.250000
vt 0.625000 0.250000
vt 0.375000 0.250000
vt 0.375000 0.000000
vt 0.625000 0.000000
vt 0.625000 0.250000
vt 0.375000 0.250000
vt 0.625000 0.500000
vt 0.375000 0.500000
vt 0.625000 0.750000
vt 0.375000 0.750000
vt 0.625000 1.000000
vt 0.375000 1.000000
vt 0.875000 0.000000
vt 0.875000 0.250000
vt 0.125000 0.000000
vt 0.125000 0.250000
vt 0.375000 0.000000
vt 0.625000 0.000000
vt 0.625000 0.250000
vt 0.375000 0.250000
vt 0.375000 0.500000
vt 0.500000 0.375000
vt 0.625000 0.500000
vt 0.375000 0.500000
vt 0.625000 0.500000
vt 0.625000 0.750000
vt 0.375000 0.750000
vt 0.625000 1.000000
vt 0.375000 1.000000
vt 0.875000 0.000000
vt 0.875000 0.250000
vt 0.125000 0.000000
vt 0.125000 0.250000
vt 0.625000 0.250000
vt 0.375000 0.250000
vn 0.000000 0.075285 0.997162
vn 0.000000 0.075285 0.997162
vn 0.000000 -0.064469 0.997920
vn 0.000000 -0.064469 0.997920
vn 0.000000 0.788453 -0.615095
vn 0.000000 0.788453 -0.615095
vn 0.000000 0.788453 -0.615095
vn 0.000000 -0.064469 -0.997920
vn 0.000000 -0.064469 -0.997920
vn 0.000000 0.075285 -0.997162
vn 0.000000 0.075285 -0.997162
vn 0.000000 -1.000000 0.000000
vn 0.000000 -1.000000 0.000000
vn 0.000000 -1.000000 0.000000
vn 0.000000 -1.000000 0.000000
vn 0.997160 0.075306 0.000000
vn 0.997160 0.075306 0.000000
vn 0.997920 -0.064467 0.000000
vn 0.997920 -0.064467 0.000000
vn -0.997163 0.075279 0.000000
vn -0.997163 0.075279 0.000000
vn -0.997919 -0.064477 0.000000
vn -0.997919 -0.064477 0.000000
vn 0.000000 -0.202964 0.979186
vn 0.000000 -0.202964 0.979186
vn 0.979183 -0.202981 0.000000
vn 0.979183 -0.202981 0.000000
vn 0.000000 -0.202964 -0.979186
vn 0.000000 -0.202964 -0.979186
vn -0.979184 -0.202973 0.000000
vn -0.979184 -0.202973 0.000000
vn -0.615098 0.788451 0.000000
vn -0.615098 0.788451 0.000000
vn -0.615098 0.788451 0.000000
vn 0.000000 0.788453 0.615095
vn 0.000000 0.788453 0.615095
vn 0.000000 0.788453 0.615095
vn 0.615098 0.788451 0.000000
vn 0.615098 0.788451 0.000000
vn 0.615098 0.788451 0.000000
vn 0.000000 -0.115812 0.993271
vn 0.000000 -0.115812 0.993271
vn 0.000000 -0.115812 0.993271
vn 0.000000 -0.115812 0.993271
vn 0.000000 1.000000 0.000000
vn 0.000000 1.000000 0.000000
vn 0.000000 1.000000 0.000000
vn 0.000000 1.000000 0.000000
vn 0.000000 -0.115812 -0.993271
vn 0.000000 -0.115812 -0.993271
vn 0.000000 -0.115812 -0.993271
vn 0.000000 -0.115812 -0.993271
vn 0.000000 -1.000000 0.000000
vn 0.000000 -1.000000 0.000000
vn 0.000000 -1.000000 0.000000
vn 0.000000 -1.000000 0.000000
vn 1.000000 0.000017 0.000000
vn 1.000000 0.000017 0.000000
vn 1.000000 0.000017 0.000000
vn 1.000000 0.000017 0.000000
vn -1.000000 -0.000017 0.000000
vn -1.000000 -0.000017 0.000000
vn -1.000000 -0.000017 0.000000
vn -1.000000 -0.000017 0.000000
vn 0.000000 0.075285 0.997162
vn 0.000000 0.075285 0.997162
vn 0.000000 -0.064469 0.997920
vn 0.000000 -0.064469 0.997920
vn 0.000000 0.788453 -0.615095
vn 0.000000 0.788453 -0.615095
vn 0.000000 0.788453 -0.615095
vn 0.000000 -0.064469 -0.997920
vn 0.000000 -0.064469 -0.997920
vn 0.000000 0.075285 -0.997162
vn 0.000000 0.075285 -0.997162
vn 0.000000 -1.000000 0.000000
vn 0.000000 -1.000000 0.000000
vn 0.000000 -1.000000 0.000000
vn 0.000000 -1.000000 0.000000
vn 0.997161 0.075305 0.000000
vn 0.997161 0.075305 0.000000
vn 0.997920 -0.064462 0.000000
vn 0.997920 -0.064462 0.000000
vn -0.997162 0.075287 0.000000
vn -0.997162 0.075287 0.000000
vn -0.997920 -0.064471 0.000000
vn -0.997920 -0.064471 0.000000
vn 0.000000 -0.202964 0.979186
vn 0.000000 -0.202964 0.979186
vn 0.979185 -0.202970 0.000000
vn 0.979185 -0.202970 0.000000
vn 0.000000 -0.202964 -0.979186
vn 0.000000 -0.202964 -0.979186
vn -0.979185 -0.202970 0.000000
vn -0.979185 -0.202970 0.000000
vn -0.615098 0.788451 0.000000
vn -0.615098 0.788451 0.000000
vn -0.615098 0.788451 0.000000
vn 0.000000 0.788453 0.615095
vn 0.000000 0.788453 0.615095
vn 0.000000 0.788453 0.615095
vn 0.615098 0.788451 0.000000
vn 0.615098 0.788451 0.000000
vn 0.615098 0.788451 0.000000
vn -0.993269 -0.115832 0.000000
vn -0.993269 -0.115832 0.000000
vn -0.993269 -0.115832 0.000000
vn -0.993269 -0.115832 0.000000
vn 0.000000 1.000000 0.000000
vn 0.000000 1.000000 0.000000
vn 0.000000 1.000000 0.000000
vn 0.000000 1.000000 0.000000
vn 0.993275 -0.115781 0.000000
vn 0.993275 -0.115781 0.000000
vn 0.993275 -0.115781 0.000000
vn 0.993275 -0.115781 0.000000
vn 0.000000 -1.000000 0.000000
vn 0.000000 -1.000000 0.000000
vn 0.000000 -1.000000 0.000000
vn 0.000000 -1.000000 0.000000
vn 0.000000 0.000000 1.000000
vn 0.000000 0.000000 1.000000
vn 0.000000 0.000000 1.000000
vn 0.000000 0.000000 1.000000
vn 0.000000 0.000000 -1.000000
vn 0.000000 0.000000 -1.000000
vn 0.000000 0.000000 -1.000000
vn 0.000000 0.000000 -1.000000
vn -0.997161 0.075305 0.000000
vn -0.997161 0.075305 0.000000
vn -0.997921 -0.064456 0.000000
vn -0.997921 -0.064456 0.000000
vn 0.615095 0.788453 0.000000
vn 0.615095 0.788453 0.000000
vn 0.615095 0.788453 0.000000
vn 0.997920 -0.064467 0.000000
vn 0.997920 -0.064467 0.000000
vn 0.997163 0.075279 0.000000
vn 0.997163 0.075279 0.000000
vn 0.000000 -1.000000 0.000000
vn 0.000000 -1.000000 0.000000
vn 0.000000 -1.000000 0.000000
vn 0.000000 -1.000000 0.000000
vn 0.000000 0.075303 0.997161
vn 0.000000 0.075303 0.997161
vn 0.000000 -0.064462 0.997920
vn 0.000000 -0.064462 0.997920
vn 0.000000 0.075281 -0.997162
vn 0.000000 0.075281 -0.997162
vn 0.000000 -0.064473 -0.997919
vn 0.000000 -0.064473 -0.997919
vn -0.979188 -0.202957 0.000000
vn -0.979188 -0.202957 0.000000
vn 0.000000 -0.202968 0.979185
vn 0.000000 -0.202968 0.979185
vn 0.979188 -0.202953 0.000000
vn 0.979188 -0.202953 0.000000
vn 0.000000 -0.202968 -0.979185
vn 0.000000 -0.202968 -0.979185
vn 0.000000 0.788441 -0.615111
vn 0.000000 0.788441 -0.615111
vn 0.000000 0.788441 -0.615111
vn -0.615095 0.788453 0.000000
vn -0.615095 0.788453 0.000000
vn -0.615095 0.788453 0.000000
vn 0.000000 0.788441 0.615111
vn 0.000000 0.788441 0.615111
vn 0.000000 0.788441 0.615111
s 1
g polySurface19662
f 1/1/1 2/2/2 4/3/3 3/4/4
s off
f 12/5/5 13/6/6 11/7/7
s 3
f 5/8/8 6/9/9 8/10/10 7/11/11
s off
f 7/11/12 8/10/13 2/12/14 1/13/15
s 5
f 2/2/16 8/14/17 6/15/18 4/3/19
s 6
f 7/16/20 1/1/21 3/4/22 5/17/23
s 1
f 3/4/4 4/3/3 10/18/24 9/19/25
s 5
f 4/3/19 6/9/18 11/7/26 10/18/27
s 3
f 6/9/9 5/8/8 12/5/28 11/7/29
s 6
f 5/8/23 3/4/22 9/19/30 12/5/31
s off
f 9/19/32 13/6/33 12/5/34
f 9/19/35 10/18/36 13/6/37
f 11/7/38 13/6/39 10/18/40
f 14/20/41 15/21/42 17/22/43 16/23/44
f 16/23/45 17/22/46 19/24/47 18/25/48
f 18/25/49 19/24/50 21/26/51 20/27/52
f 20/27/53 21/26/54 15/28/55 14/29/56
f 15/21/57 21/30/58 19/31/59 17/22/60
f 20/32/61 14/20/62 16/23/63 18/33/64
s 16
f 22/34/65 23/35/66 25/36/67 24/37/68
s off
f 33/38/69 34/39/70 32/40/71
s 18
f 26/41/72 27/42/73 29/43/74 28/44/75
s off
f 28/44/76 29/43/77 23/45/78 22/46/79
s 20
f 23/35/80 29/47/81 27/48/82 25/36/83
s 21
f 28/49/84 22/34/85 24/37/86 26/50/87
s 16
f 24/37/68 25/36/67 31/51/88 30/52/89
s 20
f 25/36/83 27/42/82 32/40/90 31/51/91
s 18
f 27/42/73 26/41/72 33/38/92 32/40/93
s 21
f 26/41/87 24/37/86 30/52/94 33/38/95
s off
f 30/52/96 34/39/97 33/38/98
f 30/52/99 31/51/100 34/39/101
f 32/40/102 34/39/103 31/51/104
f 35/53/105 36/54/106 38/55/107 37/56/108
f 37/56/109 38/55/110 40/57/111 39/58/112
f 39/58/113 40/57/114 42/59/115 41/60/116
f 41/60/117 42/59/118 36/61/119 35/62/120
f 36/54/121 42/63/122 40/64/123 38/55/124
f 41/65/125 35/53/126 37/56/127 39/66/128
s 31
f 43/67/129 44/68/130 46/69/131 45/70/132
s off
f 54/71/133 55/72/134 53/73/135
s 33
f 47/74/136 48/75/137 50/76/138 49/77/139
s off
f 49/77/140 50/76/141 44/78/142 43/79/143
s 35
f 44/68/144 50/80/145 48/81/146 46/69/147
s 36
f 49/82/148 43/67/149 45/70/150 47/83/151
s 31
f 45/70/132 46/69/131 52/84/152 51/85/153
s 35
f 46/69/147 48/75/146 53/73/154 52/84/155
s 33
f 48/75/137 47/74/136 54/71/156 53/73/157
s 36
f 47/74/151 45/70/150 51/85/158 54/71/159
s off
f 51/85/160 55/72/161 54/71/162
f 51/85/163 52/84/164 55/72/165
f 53/73/166 55/72/167 52/84/168
