# This file uses centimeters as units for non-parametric coordinates.

g default
v -78.765083 0.699565 1.072182
v -78.765083 0.699565 0.927817
v -78.765083 0.879551 0.927817
v -78.765083 0.879551 1.072182
v -78.709656 0.019470 1.138012
v -78.709656 0.019470 0.861987
v -78.762817 0.648822 0.910307
v -78.762817 0.648822 1.089692
v -78.829239 1.018186 0.967743
v -78.861504 1.035474 1.000000
v -78.829239 1.018186 1.032257
v -78.786926 0.662019 0.925047
v -78.786934 0.662019 1.074953
v -78.765167 0.675061 0.903669
v -78.765167 0.675061 1.096331
v -78.765167 0.904055 0.903669
v -78.765167 0.904055 1.096331
v -78.789345 0.699565 0.927847
v -78.789345 0.699565 1.072153
v -78.789345 0.879551 0.927847
v -78.789345 0.879551 1.072153
v -78.720474 0.906463 0.858967
v -78.720474 0.906463 1.141032
v -78.729630 0.920008 0.868126
v -78.729630 0.920008 1.131874
v -78.830658 0.978323 0.969158
v -78.830658 0.978323 1.030842
v -78.782349 0.952887 0.920845
v -78.782349 0.952887 1.079155
v -78.789314 0.699565 0.903581
v -78.933685 0.699565 0.903581
v -78.933685 0.879551 0.903581
v -78.789314 0.879551 0.903581
v -79.013351 0.019470 0.861987
v -78.960190 0.648822 0.910307
v -78.893753 1.018186 0.967743
v -78.936035 0.662019 0.925047
v -78.957832 0.675061 0.903668
v -78.957832 0.904055 0.903668
v -78.933655 0.699565 0.927847
v -78.933655 0.879551 0.927847
v -79.002533 0.906463 0.858967
v -78.993378 0.920008 0.868126
v -78.892342 0.978323 0.969158
v -78.940659 0.952887 0.920845
v -78.957916 0.699565 0.927817
v -78.957916 0.699565 1.072182
v -78.957916 0.879551 1.072182
v -78.957916 0.879551 0.927817
v -79.013351 0.019470 1.138012
v -78.960190 0.648822 1.089692
v -78.893753 1.018186 1.032257
v -78.936035 0.662019 1.074953
v -78.957832 0.675061 1.096331
v -78.957832 0.904055 1.096331
v -78.933655 0.699565 1.072152
v -78.933655 0.879551 1.072152
v -79.002533 0.906463 1.141032
v -78.993378 0.920008 1.131874
v -78.892342 0.978323 1.030842
v -78.940659 0.952887 1.079155
v -78.933685 0.699565 1.096419
v -78.789314 0.699565 1.096419
v -78.789314 0.879551 1.096419
v -78.933685 0.879551 1.096419
v -78.951920 0.648822 1.096767
v -78.951920 0.648822 0.903233
v -79.000626 0.019470 0.851100
v -79.000626 0.019470 1.148899
v -78.770996 0.648822 1.096767
v -78.770996 0.648822 0.903233
v -78.722244 0.019470 0.851100
v -78.722244 0.019470 1.148899
v -78.997925 0.011733 0.861987
v -78.724945 0.011733 0.861987
v -78.997925 0.011733 1.138012
v -78.724945 0.011733 1.138012
v -78.861786 1.018186 1.034820
v -78.861771 0.978323 1.033293
v -78.862198 0.952887 1.085447
v -78.862656 0.920008 1.142355
v -78.862732 0.906463 1.152243
v -78.862335 0.904055 1.096331
v -78.862137 0.879551 1.096419
v -78.862137 0.879551 1.072152
v -78.862137 0.879551 0.927847
v -78.862137 0.879551 0.903581
v -78.862343 0.904055 0.903668
v -78.862732 0.906463 0.847757
v -78.862656 0.920008 0.857644
v -78.862198 0.952887 0.914552
v -78.861771 0.978323 0.966706
v -78.861786 1.018186 0.965179
v -78.896896 1.018186 1.000594
v -78.895348 0.978323 1.000568
v -78.948364 0.952887 1.001458
v -79.006203 0.920008 1.002429
v -79.016251 0.906463 1.002598
v -78.967201 0.904055 1.001775
v -78.967300 0.879551 1.001330
v -78.940674 0.879551 1.001329
v -78.862190 0.879551 1.001329
v -78.782333 0.879551 1.001329
v -78.755707 0.879551 1.001330
v -78.755798 0.904055 1.001775
v -78.706749 0.906463 1.002598
v -78.716797 0.920008 1.002429
v -78.774643 0.952887 1.001458
v -78.827660 0.978323 1.000568
v -78.826111 1.018186 1.000594
vt 0.018916 0.017805
vt 0.179093 0.017805
vt 0.179132 0.553722
vt 0.018359 0.553722
vt 0.163840 0.578184
vt 0.034168 0.578184
vt 0.179249 0.600604
vt 0.018721 0.600604
vt 0.159217 0.621175
vt 0.038792 0.621175
vt 0.179262 0.792839
vt 0.159217 0.772268
vt 0.097513 0.792839
vt 0.097895 0.772268
vt 0.018721 0.792839
vt 0.038792 0.772268
vt 0.144716 0.639392
vt 0.053293 0.639392
vt 0.144716 0.754051
vt 0.098162 0.754051
vt 0.053293 0.754051
vt 0.199388 0.966265
vt 0.167909 0.944907
vt 0.269109 0.944907
vt 0.268529 0.966265
vt 0.245542 0.864078
vt 0.267678 0.864078
vt 0.244545 0.835513
vt 0.267697 0.835513
vt 0.174340 0.933759
vt 0.211493 0.897936
vt 0.268306 0.897936
vt 0.268990 0.933758
vt 0.333057 0.017805
vt 0.339776 0.017805
vt 0.339647 0.553722
vt 0.332921 0.553722
vt 0.321638 0.578184
vt 0.197371 0.578184
vt 0.339763 0.600604
vt 0.319731 0.621175
vt 0.199307 0.621175
vt 0.339776 0.792839
vt 0.319731 0.772268
vt 0.199307 0.772268
vt 0.260044 0.772268
vt 0.260219 0.792839
vt 0.305230 0.639392
vt 0.213808 0.639392
vt 0.305230 0.754051
vt 0.213808 0.754051
vt 0.259918 0.754051
vt 0.302284 0.846215
vt 0.337453 0.823907
vt 0.408979 0.823907
vt 0.409286 0.846215
vt 0.385658 0.930636
vt 0.408558 0.930636
vt 0.384617 0.960471
vt 0.408567 0.960471
vt 0.350096 0.895273
vt 0.311291 0.857859
vt 0.409207 0.857859
vt 0.408869 0.895273
vt 0.500291 0.017805
vt 0.500161 0.553722
vt 0.549556 0.827667
vt 0.549119 0.839645
vt 0.525813 0.839645
vt 0.484869 0.578184
vt 0.355198 0.578184
vt 0.500278 0.600604
vt 0.480246 0.621175
vt 0.359821 0.621175
vt 0.500291 0.792839
vt 0.480246 0.772268
vt 0.359821 0.772268
vt 0.421143 0.772268
vt 0.421512 0.792839
vt 0.465745 0.639392
vt 0.374322 0.639392
vt 0.465745 0.754051
vt 0.374322 0.754051
vt 0.420875 0.754051
vt 0.655633 0.953901
vt 0.620463 0.976209
vt 0.548250 0.976209
vt 0.547602 0.953901
vt 0.572258 0.869481
vt 0.549138 0.869481
vt 0.573299 0.839645
vt 0.607820 0.904843
vt 0.646625 0.942258
vt 0.547768 0.942258
vt 0.548483 0.904843
vt 0.507010 0.017805
vt 0.506909 0.553722
vt 0.105416 0.954282
vt 0.127951 0.954282
vt 0.128149 0.965750
vt 0.518429 0.578184
vt 0.520336 0.621175
vt 0.660831 0.600604
vt 0.640760 0.621175
vt 0.660831 0.792839
vt 0.640760 0.772268
vt 0.660831 0.792839
vt 0.579860 0.792839
vt 0.580022 0.772268
vt 0.520336 0.772268
vt 0.534837 0.639392
vt 0.626259 0.639392
vt 0.626259 0.754051
vt 0.580149 0.754051
vt 0.534837 0.754051
vt 0.196039 0.823530
vt 0.227518 0.844888
vt 0.127282 0.844888
vt 0.127557 0.823530
vt 0.149886 0.925716
vt 0.127960 0.925716
vt 0.150882 0.954282
vt 0.221087 0.856036
vt 0.183934 0.891859
vt 0.127662 0.891859
vt 0.127338 0.856036
vt 0.060539 0.745797
vt 0.060539 0.648080
vt 0.137600 0.648080
vt 0.137600 0.745797
vt 0.217996 0.643180
vt 0.221015 0.647639
vt 0.217996 0.647639
vt 0.654518 0.553722
vt 0.642696 0.578184
vt 0.185787 0.553722
vt 0.186078 0.017805
vt 0.221015 0.745193
vt 0.217996 0.745193
vt 0.661194 0.553722
vt 0.179430 0.017805
vt 0.217996 0.749606
vt 0.653989 0.017805
vt 0.660636 0.017805
vt 0.297558 0.647639
vt 0.300577 0.643180
vt 0.300577 0.647639
vt 0.297558 0.745193
vt 0.300577 0.745193
vt 0.300577 0.749606
vt 0.419143 0.644280
vt 0.461028 0.644280
vt 0.461028 0.697888
vt 0.419143 0.697888
vt 0.289014 0.864078
vt 0.290011 0.835513
vt 0.323063 0.897936
vt 0.360216 0.933758
vt 0.366647 0.944907
vt 0.335168 0.966265
vt 0.018721 0.792839
vt 0.419143 0.749557
vt 0.461028 0.749557
vt 0.443479 0.953901
vt 0.478649 0.976209
vt 0.452487 0.942258
vt 0.491292 0.904843
vt 0.526854 0.869481
vt 0.408360 0.972449
vt 0.267278 0.824044
vt 0.106413 0.925716
vt 0.072365 0.891859
vt 0.035211 0.856036
vt 0.028780 0.844888
vt 0.060260 0.823530
vt 0.377984 0.749557
vt 0.377984 0.697888
vt 0.514437 0.846215
vt 0.479267 0.823907
vt 0.505429 0.857859
vt 0.466624 0.895273
vt 0.431062 0.930636
vt 0.432103 0.960471
vt 0.377984 0.644280
vt 0.506909 0.553722
vt 0.507010 0.017805
vt 0.653989 0.017805
vt 0.654518 0.553722
vn 0.792969 -0.471813 0.385478
vn 0.792969 -0.471805 -0.385486
vn 0.731521 0.597435 -0.328555
vn 0.731505 0.597483 0.328502
vn 0.613363 0.439801 -0.656019
vn 0.613337 0.439898 0.655979
vn 0.636148 -0.434186 -0.637808
vn 0.636144 -0.434190 0.637809
vn 0.817598 0.407165 0.407125
vn 0.817593 0.407170 -0.407130
vn 0.566945 -0.565536 -0.598951
vn 0.823430 -0.433004 0.366703
vn 0.704440 -0.709762 0.001406
vn 0.686716 -0.726924 0.001383
vn 0.566037 -0.565993 0.599379
vn 0.823226 -0.434751 -0.365089
vn -0.301201 0.904741 0.301201
vn -0.301212 0.904738 -0.301200
vn -0.301201 -0.904740 0.301202
vn 0.000000 -1.000000 0.000000
vn -0.301212 -0.904737 -0.301201
vn 0.594015 -0.529190 -0.605891
vn 0.902777 -0.430106 0.001561
vn 0.551427 0.616319 -0.562209
vn 0.553185 0.613285 -0.563798
vn 0.857768 0.514035 0.001486
vn 0.855901 0.517138 0.001486
vn 0.395559 0.824535 -0.404567
vn 0.262575 0.926534 -0.269423
vn 0.463598 0.886046 0.000770
vn 0.662754 0.748836 0.001132
vn -0.316035 -0.427666 -0.846891
vn -0.791000 -0.473303 -0.387690
vn -0.730210 0.597996 -0.330446
vn -0.275531 0.575934 -0.769664
vn -0.612158 0.439886 -0.657087
vn -0.636032 -0.434284 -0.637856
vn 0.407098 0.407110 -0.817639
vn -0.407082 0.407113 -0.817645
vn -0.566897 -0.565627 -0.598911
vn 0.407095 -0.407117 -0.817637
vn -0.407082 -0.407115 -0.817644
vn 0.000002 -0.705851 -0.708360
vn -0.000011 -0.689065 -0.724699
vn 0.301201 0.904741 0.301201
vn 0.301201 -0.904741 0.301201
vn 0.000000 -1.000000 0.000001
vn -0.000593 -0.433727 -0.901044
vn -0.000590 0.514300 -0.857610
vn -0.000605 0.511291 -0.859407
vn -0.000445 0.743875 -0.668319
vn -0.000308 0.882882 -0.469595
vn -0.791003 -0.473303 0.387684
vn -0.730192 0.598053 0.330383
vn -0.000116 1.000000 0.000423
vn -0.857661 0.514213 0.001490
vn -0.552549 0.612720 0.565034
vn -0.612143 0.439989 0.657032
vn -0.636037 -0.434287 0.637849
vn -0.817587 0.407194 -0.407118
vn -0.817586 0.407194 0.407119
vn -0.566052 -0.565967 0.599388
vn -0.823255 -0.434709 -0.365075
vn -0.823365 -0.433161 0.366662
vn -0.686654 -0.726983 0.001384
vn -0.704379 -0.709822 0.001407
vn 0.301200 0.904741 -0.301201
vn 0.301200 -0.904741 -0.301202
vn 0.000000 -1.000000 -0.000000
vn -0.594689 -0.528857 -0.605521
vn -0.902813 -0.430031 0.001550
vn -0.553547 0.613110 -0.563633
vn -0.551863 0.616221 -0.561888
vn -0.855847 0.517227 0.001490
vn -0.262872 0.926532 -0.269142
vn -0.395971 0.824522 -0.404192
vn -0.662739 0.748849 0.001129
vn -0.463643 0.886022 0.000773
vn -0.316040 -0.427668 0.846888
vn -0.275505 0.576000 0.769624
vn -0.000601 0.511257 0.859428
vn 0.407084 0.407106 0.817647
vn -0.407084 0.407106 0.817647
vn -0.407085 -0.407107 0.817647
vn -0.000013 -0.689054 0.724710
vn 0.000000 -0.705841 0.708371
vn 0.407084 -0.407106 0.817647
vn 0.000000 -1.000000 -0.000001
vn 0.593041 -0.528376 0.607554
vn -0.000592 -0.433727 0.901044
vn 0.550423 0.615984 0.563558
vn 0.552153 0.612936 0.565188
vn -0.000588 0.514312 0.857603
vn 0.394676 0.824464 0.405573
vn 0.261824 0.926535 0.270150
vn -0.000306 0.882885 0.469589
vn -0.000445 0.743871 0.668323
vn -0.225536 -0.933623 0.278356
vn 0.277401 0.576453 0.768603
vn 0.277426 0.576396 -0.768637
vn 0.318419 -0.427729 -0.845966
vn 0.227239 -0.933302 0.278047
vn 0.318423 -0.427739 0.845959
vn -0.225537 -0.933623 -0.278356
vn 0.227240 -0.933302 -0.278047
vn 0.000000 -1.000000 0.000000
vn -0.593702 -0.527959 0.607271
vn -0.395044 0.824486 0.405170
vn -0.262151 0.926530 0.269851
vn -0.550911 0.615815 0.563267
s 1
g polySurface19180
f 5/1/1 6/2/2 7/3/3 8/4/4
f 8/4/4 7/3/3 12/5/5 13/6/6
f 13/6/6 12/5/5 14/7/7 15/8/8
f 15/8/8 14/7/7 2/9/9 1/10/10
f 14/7/7 16/11/11 3/12/12 2/9/9
f 3/12/12 16/11/11 105/13/13 104/14/14
f 17/15/15 15/8/8 1/10/10 4/16/16
f 1/10/10 2/9/9 18/17/17 19/18/18
f 2/9/9 3/12/12 20/19/19 18/17/17
f 20/19/19 3/12/12 104/14/14 103/20/20
f 4/16/16 1/10/10 19/18/18 21/21/21
f 16/22/11 22/23/22 106/24/23 105/25/13
f 26/26/24 9/28/25 110/29/26 109/27/27
f 24/30/28 28/31/29 108/32/30 107/33/31
f 28/31/29 26/26/24 109/27/27 108/32/30
f 68/34/32 34/35/33 35/36/34 67/37/35
f 67/37/35 35/36/34 37/38/36
f 38/40/37 31/41/38 30/42/39 14/7/7
f 38/40/37 39/43/40 32/44/41 31/41/38
f 16/11/11 33/45/42 87/46/43 88/47/44
f 16/11/11 14/7/7 30/42/39 33/45/42
f 31/41/38 40/48/45 18/49/17 30/42/39
f 31/41/38 32/44/41 41/50/46 40/48/45
f 33/45/42 20/51/19 86/52/47 87/46/43
f 33/45/42 30/42/39 18/49/17 20/51/19
f 22/53/22 16/54/11 88/55/44 89/56/48
f 9/59/25 26/57/24 92/58/49 93/60/50
f 28/61/29 24/62/28 90/63/51 91/64/52
f 26/57/24 28/61/29 91/64/52 92/58/49
f 34/35/33 50/65/53 51/66/54 35/36/34
f 10/67/55 94/68/56 52/69/57
f 35/36/34 51/66/54 53/70/58 37/71/36
f 37/71/36 53/70/58 54/72/59 38/40/37
f 38/40/37 54/72/59 47/73/60 46/74/61
f 54/72/59 55/75/62 48/76/63 47/73/60
f 39/43/40 49/77/64 100/78/65 99/79/66
f 39/43/40 38/40/37 46/74/61 49/77/64
f 46/74/61 47/73/60 56/80/67 40/81/45
f 47/73/60 48/76/63 57/82/68 56/80/67
f 49/77/64 41/83/46 101/84/69 100/78/65
f 49/77/64 46/74/61 40/81/45 41/83/46
f 42/85/70 39/86/40 99/87/66 98/88/71
f 36/91/72 44/89/73 95/90/74 94/68/56
f 45/92/75 43/93/76 97/94/77 96/95/78
f 44/89/73 45/92/75 96/95/78 95/90/74
f 50/65/53 69/96/79 66/97/80 51/66/54
f 52/98/57 78/99/81 10/100/55
f 51/66/54 66/97/80 53/101/58
f 62/102/82 54/72/59 15/103/8 63/104/83
f 15/103/8 17/105/15 64/106/84 63/104/83
f 64/106/84 17/107/15 83/108/85 84/109/86
f 55/75/62 54/72/59 62/102/82 65/110/87
f 56/111/67 62/102/82 63/104/83 19/112/18
f 63/104/83 64/106/84 21/113/21 19/112/18
f 21/113/21 64/106/84 84/109/86 85/114/88
f 65/110/87 62/102/82 56/111/67 57/115/68
f 17/116/15 23/117/89 82/118/90 83/119/85
f 27/120/91 11/122/92 78/99/81 79/121/93
f 25/123/94 29/124/95 80/125/96 81/126/97
f 29/124/95 27/120/91 79/121/93 80/125/96
f 40/127/45 56/128/67 19/129/18 18/130/17
f 50/131/53 76/132/98 69/133/79
f 66/97/80 70/134/99 13/135/6 53/101/58
f 71/136/100 67/37/35 37/38/36 12/39/5
f 72/137/101 68/34/32 67/37/35 71/136/100
f 69/133/79 76/132/98 77/138/102 73/139/103
f 70/134/99 8/140/4 13/135/6
f 7/3/3 71/136/100 12/39/5
f 6/141/2 72/137/101 71/136/100 7/3/3
f 73/139/103 77/138/102 5/142/1
f 70/134/99 73/143/103 5/144/1 8/140/4
f 74/145/104 34/146/33 68/147/32
f 75/148/105 74/145/104 68/147/32 72/149/101
f 6/150/2 75/148/105 72/149/101
f 50/131/53 34/146/33 74/145/104 76/132/98
f 77/138/102 76/132/98 74/145/104 75/148/105
f 5/142/1 77/138/102 75/148/105 6/150/2
f 43/93/76 42/85/70 98/88/71 97/94/77
f 24/62/28 22/53/22 89/56/48 90/63/51
f 22/23/22 24/30/28 107/33/31 106/24/23
f 23/117/89 25/123/94 81/126/97 82/118/90
f 86/151/47 20/152/19 103/153/20 102/154/106
f 27/155/91 109/27/27 110/29/26 11/156/92
f 29/157/95 108/32/30 109/27/27 27/155/91
f 25/158/94 107/33/31 108/32/30 29/157/95
f 23/159/89 106/24/23 107/33/31 25/158/94
f 105/25/13 106/24/23 23/159/89 17/160/15
f 104/14/14 105/13/13 17/161/15 4/16/16
f 103/20/20 104/14/14 4/16/16 21/21/21
f 85/162/88 102/154/106 103/153/20 21/163/21
f 48/76/63 100/78/65 101/84/69 57/82/68
f 55/75/62 99/79/66 100/78/65 48/76/63
f 58/164/107 98/88/71 99/87/66 55/165/62
f 97/94/77 98/88/71 58/164/107 59/166/108
f 96/95/78 97/94/77 59/166/108 61/167/109
f 60/168/110 95/90/74 96/95/78 61/167/109
f 52/69/57 94/68/56 95/90/74 60/168/110
f 10/169/55 9/59/25 93/60/50
f 10/170/55 110/29/26 9/28/25
f 54/72/59 53/101/58 13/135/6 15/103/8
f 12/39/5 37/38/36 38/40/37 14/7/7
f 60/171/110 79/121/93 78/99/81 52/98/57
f 61/172/109 80/125/96 79/121/93 60/171/110
f 59/173/108 81/126/97 80/125/96 61/172/109
f 58/174/107 82/118/90 81/126/97 59/173/108
f 83/119/85 82/118/90 58/174/107 55/175/62
f 84/109/86 83/108/85 55/75/62 65/110/87
f 85/114/88 84/109/86 65/110/87 57/115/68
f 57/176/68 101/177/69 102/154/106 85/162/88
f 32/44/41 87/46/43 86/52/47 41/50/46
f 39/43/40 88/47/44 87/46/43 32/44/41
f 42/178/70 89/56/48 88/55/44 39/179/40
f 90/63/51 89/56/48 42/178/70 43/180/76
f 91/64/52 90/63/51 43/180/76 45/181/75
f 44/182/73 92/58/49 91/64/52 45/181/75
f 36/183/72 93/60/50 92/58/49 44/182/73
f 86/151/47 102/154/106 101/177/69 41/184/46
f 10/100/55 78/99/81 11/122/92
f 10/170/55 11/156/92 110/29/26
f 10/169/55 93/60/50 36/183/72
f 10/67/55 36/91/72 94/68/56
f 66/185/80 69/186/79 73/187/103 70/188/99
