# This file uses centimeters as units for non-parametric coordinates.

g default
v -62.127319 0.699565 2.138227
v -62.127319 0.699565 1.993862
v -62.127319 0.879551 1.993862
v -62.127319 0.879551 2.138227
v -62.071884 0.019470 2.204057
v -62.071884 0.019470 1.928031
v -62.125046 0.648822 1.976352
v -62.125046 0.648822 2.155736
v -62.191483 1.018186 2.033788
v -62.223740 1.035474 2.066044
v -62.191483 1.018186 2.098301
v -62.149155 0.662019 1.991092
v -62.149170 0.662019 2.140997
v -62.127396 0.675061 1.969714
v -62.127396 0.675061 2.162376
v -62.127396 0.904055 1.969714
v -62.127396 0.904055 2.162376
v -62.151581 0.699565 1.993892
v -62.151581 0.699565 2.138197
v -62.151581 0.879551 1.993892
v -62.151581 0.879551 2.138197
v -62.082703 0.906463 1.925012
v -62.082703 0.906463 2.207077
v -62.091858 0.920008 1.934171
v -62.091858 0.920008 2.197918
v -62.192886 0.978323 2.035203
v -62.192886 0.978323 2.096887
v -62.144577 0.952887 1.986889
v -62.144577 0.952887 2.145200
v -62.151550 0.699565 1.969626
v -62.295914 0.699565 1.969626
v -62.295914 0.879551 1.969626
v -62.151550 0.879551 1.969626
v -62.375580 0.019470 1.928031
v -62.322418 0.648822 1.976352
v -62.255997 1.018186 2.033788
v -62.298264 0.662019 1.991092
v -62.320068 0.675061 1.969713
v -62.320068 0.904055 1.969713
v -62.295883 0.699565 1.993892
v -62.295883 0.879551 1.993892
v -62.364761 0.906463 1.925012
v -62.355606 0.920008 1.934171
v -62.254578 0.978323 2.035203
v -62.302887 0.952887 1.986889
v -62.320145 0.699565 1.993862
v -62.320145 0.699565 2.138227
v -62.320145 0.879551 2.138227
v -62.320145 0.879551 1.993862
v -62.375580 0.019470 2.204057
v -62.322418 0.648822 2.155736
v -62.255997 1.018186 2.098301
v -62.298264 0.662019 2.140997
v -62.320068 0.675061 2.162376
v -62.320068 0.904055 2.162376
v -62.295883 0.699565 2.138196
v -62.295883 0.879551 2.138196
v -62.364761 0.906463 2.207077
v -62.355606 0.920008 2.197918
v -62.254578 0.978323 2.096887
v -62.302887 0.952887 2.145200
v -62.295914 0.699565 2.162464
v -62.151550 0.699565 2.162464
v -62.151550 0.879551 2.162464
v -62.295914 0.879551 2.162464
v -62.314148 0.648822 2.162812
v -62.314148 0.648822 1.969278
v -62.362854 0.019470 1.917145
v -62.362854 0.019470 2.214943
v -62.133224 0.648822 2.162812
v -62.133224 0.648822 1.969278
v -62.084473 0.019470 1.917145
v -62.084473 0.019470 2.214943
v -62.360153 0.011733 1.928031
v -62.087173 0.011733 1.928031
v -62.360153 0.011733 2.204057
v -62.087173 0.011733 2.204057
v -62.224014 1.018186 2.100865
v -62.223999 0.978323 2.099338
v -62.224426 0.952887 2.151492
v -62.224884 0.920008 2.208400
v -62.224960 0.906463 2.218287
v -62.224564 0.904055 2.162376
v -62.224365 0.879551 2.162464
v -62.224365 0.879551 2.138196
v -62.224365 0.879551 1.993892
v -62.224365 0.879551 1.969626
v -62.224579 0.904055 1.969713
v -62.224960 0.906463 1.913802
v -62.224884 0.920008 1.923688
v -62.224426 0.952887 1.980597
v -62.223999 0.978323 2.032751
v -62.224014 1.018186 2.031224
v -62.259125 1.018186 2.066639
v -62.257584 0.978323 2.066613
v -62.310593 0.952887 2.067503
v -62.368439 0.920008 2.068474
v -62.378494 0.906463 2.068642
v -62.329437 0.904055 2.067819
v -62.329529 0.879551 2.067374
v -62.302902 0.879551 2.067374
v -62.224426 0.879551 2.067374
v -62.144562 0.879551 2.067374
v -62.117935 0.879551 2.067374
v -62.118027 0.904055 2.067819
v -62.068985 0.906463 2.068643
v -62.079025 0.920008 2.068474
v -62.136887 0.952887 2.067503
v -62.189896 0.978323 2.066613
v -62.188339 1.018186 2.066639
v -64.287964 0.599121 2.128559
v -64.287964 0.499218 2.128559
v -62.265121 0.599121 2.128559
v -62.265121 0.499218 2.128559
v -62.265121 0.599121 2.012727
v -62.265121 0.499218 2.012727
v -64.287964 0.599121 2.012727
v -64.287964 0.499218 2.012727
v -64.212769 0.699565 2.138227
v -64.212769 0.699565 1.993862
v -64.212769 0.879551 1.993862
v -64.212769 0.879551 2.138227
v -64.157333 0.019470 2.204057
v -64.157333 0.019470 1.928031
v -64.210495 0.648822 1.976352
v -64.210495 0.648822 2.155736
v -64.276932 1.018186 2.033788
v -64.309189 1.035474 2.066044
v -64.276932 1.018186 2.098301
v -64.231384 0.662019 1.993936
v -64.231400 0.662019 2.138154
v -64.212845 0.675061 1.969714
v -64.212845 0.675061 2.162376
v -64.212845 0.904055 1.969714
v -64.212845 0.904055 2.162376
v -64.237030 0.699565 1.993892
v -64.237030 0.699565 2.138197
v -64.237030 0.879551 1.993892
v -64.237030 0.879551 2.138197
v -64.169052 0.904055 1.925915
v -64.169052 0.904055 2.206173
v -64.177307 0.920008 1.934171
v -64.177307 0.920008 2.197918
v -64.276932 0.974000 2.033788
v -64.281174 0.978565 2.038031
v -64.281174 0.978565 2.094059
v -64.276932 0.974000 2.098301
v -64.276932 0.982402 2.033788
v -64.276932 0.982402 2.098301
v -64.230026 0.952887 1.986889
v -64.230026 0.952887 2.145200
v -64.237000 0.699565 1.969626
v -64.381363 0.699565 1.969626
v -64.381363 0.879551 1.969626
v -64.237000 0.879551 1.969626
v -64.461044 0.019470 1.928031
v -64.407867 0.648822 1.976352
v -64.341446 1.018186 2.033788
v -64.386978 0.662019 1.993936
v -64.405518 0.675061 1.969713
v -64.405518 0.904055 1.969713
v -64.381332 0.699565 1.993892
v -64.381332 0.879551 1.993892
v -64.449326 0.904055 1.925915
v -64.441055 0.920008 1.934171
v -64.341446 0.974000 2.033788
v -64.337204 0.978565 2.038031
v -64.341446 0.982402 2.033788
v -64.388336 0.952887 1.986889
v -64.405594 0.699565 1.993862
v -64.405594 0.699565 2.138227
v -64.405594 0.879551 2.138227
v -64.405594 0.879551 1.993862
v -64.461044 0.019470 2.204057
v -64.407867 0.648822 2.155736
v -64.341446 1.018186 2.098301
v -64.386978 0.662019 2.138154
v -64.405518 0.675061 2.162376
v -64.405518 0.904055 2.162376
v -64.381332 0.699565 2.138196
v -64.381332 0.879551 2.138196
v -64.449326 0.904055 2.206173
v -64.441055 0.920008 2.197918
v -64.341446 0.974000 2.098301
v -64.337204 0.978565 2.094059
v -64.341446 0.982402 2.098301
v -64.388336 0.952887 2.145200
v -64.381363 0.699565 2.162464
v -64.237000 0.699565 2.162464
v -64.237000 0.879551 2.162464
v -64.381363 0.879551 2.162464
v -64.399597 0.648822 2.162812
v -64.380463 0.662019 2.143841
v -64.380463 0.662019 1.988248
v -64.399597 0.648822 1.969278
v -64.448303 0.019470 1.917145
v -64.448303 0.019470 2.214943
v -64.218674 0.648822 2.162812
v -64.237839 0.662019 2.143841
v -64.237839 0.662019 1.988248
v -64.218674 0.648822 1.969278
v -64.169922 0.019470 1.917145
v -64.169922 0.019470 2.214943
v -64.445602 0.011733 1.928031
v -64.172638 0.011733 1.928031
v -64.445602 0.011733 2.204057
v -64.172638 0.011733 2.204057
v -64.451126 0.908871 2.207981
v -64.451126 0.908871 1.924109
v -64.167252 0.908871 1.924109
v -64.167252 0.908871 2.207981
v -64.309464 1.018186 2.100865
v -64.309464 0.982402 2.100865
v -64.309433 0.978565 2.096285
v -64.309464 0.974000 2.100865
v -64.309875 0.952887 2.151492
v -64.310333 0.920008 2.208400
v -64.310425 0.908871 2.219263
v -64.310410 0.904055 2.217312
v -64.310028 0.904055 2.162376
v -64.309814 0.879551 2.162464
v -64.309814 0.879551 2.138196
v -64.309814 0.879551 1.993892
v -64.309814 0.879551 1.969626
v -64.310028 0.904055 1.969713
v -64.310410 0.904055 1.914777
v -64.310425 0.908871 1.912827
v -64.310333 0.920008 1.923688
v -64.309875 0.952887 1.980597
v -64.309464 0.974000 2.031224
v -64.309433 0.978565 2.035804
v -64.309464 0.982402 2.031224
v -64.309464 1.018186 2.031224
v -64.344589 1.018186 2.066639
v -64.344589 0.982402 2.066639
v -64.339920 0.978565 2.066561
v -64.344589 0.974000 2.066639
v -64.396042 0.952887 2.067503
v -64.453888 0.920008 2.068474
v -64.464935 0.908871 2.068659
v -64.462952 0.904055 2.068626
v -64.414886 0.904055 2.067819
v -64.414993 0.879551 2.067374
v -64.388351 0.879551 2.067374
v -64.309875 0.879551 2.067374
v -64.230011 0.879551 2.067374
v -64.203384 0.879551 2.067374
v -64.203476 0.904055 2.067819
v -64.155426 0.904055 2.068626
v -64.153442 0.908871 2.068659
v -64.164474 0.920008 2.068474
v -64.222336 0.952887 2.067503
v -64.273788 0.974000 2.066639
v -64.278442 0.978565 2.066561
v -64.273788 0.982402 2.066639
v -64.273788 1.018186 2.066639
v -64.287964 0.373008 2.039474
v -64.287964 0.373008 2.101812
v -62.265121 0.373008 2.039474
v -62.265121 0.373008 2.101812
v -62.265121 0.308557 2.039474
v -62.265121 0.308557 2.101812
v -64.287964 0.308557 2.039474
v -64.287964 0.308557 2.101812
v -64.365250 0.599120 -0.042291
v -64.365250 0.499218 -0.042291
v -64.365250 0.599121 1.980551
v -64.365250 0.499218 1.980551
v -64.249420 0.599121 1.980551
v -64.249420 0.499218 1.980551
v -64.249420 0.599120 -0.042291
v -64.249420 0.499218 -0.042291
v -64.374908 0.699565 0.032904
v -64.230545 0.699565 0.032904
v -64.230545 0.879551 0.032904
v -64.374908 0.879551 0.032904
v -64.440750 0.019470 0.088340
v -64.164719 0.019470 0.088340
v -64.213043 0.648822 0.035178
v -64.392426 0.648822 0.035178
v -64.270477 1.018186 -0.031259
v -64.302734 1.035474 -0.063516
v -64.334991 1.018186 -0.031259
v -64.230621 0.662019 0.014289
v -64.374847 0.662019 0.014273
v -64.206406 0.675061 0.032828
v -64.399063 0.675061 0.032828
v -64.206406 0.904055 0.032828
v -64.399063 0.904055 0.032828
v -64.230576 0.699565 0.008643
v -64.374878 0.699565 0.008643
v -64.230576 0.879551 0.008643
v -64.374878 0.879551 0.008643
v -64.162598 0.904055 0.076621
v -64.442856 0.904055 0.076621
v -64.170853 0.920008 0.068366
v -64.434601 0.920008 0.068366
v -64.270477 0.974000 -0.031259
v -64.274719 0.978565 -0.035501
v -64.330750 0.978565 -0.035501
v -64.334991 0.974000 -0.031259
v -64.270477 0.982402 -0.031259
v -64.334991 0.982402 -0.031259
v -64.223572 0.952887 0.015647
v -64.381882 0.952887 0.015647
v -64.206314 0.699565 0.008673
v -64.206314 0.699565 -0.135690
v -64.206314 0.879551 -0.135690
v -64.206314 0.879551 0.008673
v -64.164719 0.019470 -0.215371
v -64.213043 0.648822 -0.162194
v -64.270477 1.018186 -0.095773
v -64.230621 0.662019 -0.141305
v -64.206406 0.675061 -0.159845
v -64.206406 0.904055 -0.159845
v -64.230576 0.699565 -0.135659
v -64.230576 0.879551 -0.135659
v -64.162598 0.904055 -0.203653
v -64.170853 0.920008 -0.195382
v -64.270477 0.974000 -0.095773
v -64.274719 0.978565 -0.091531
v -64.270477 0.982402 -0.095773
v -64.223572 0.952887 -0.142663
v -64.230545 0.699565 -0.159921
v -64.374908 0.699565 -0.159921
v -64.374908 0.879551 -0.159921
v -64.230545 0.879551 -0.159921
v -64.440750 0.019470 -0.215371
v -64.392426 0.648822 -0.162194
v -64.334991 1.018186 -0.095773
v -64.374847 0.662019 -0.141305
v -64.399063 0.675061 -0.159845
v -64.399063 0.904055 -0.159845
v -64.374878 0.699565 -0.135659
v -64.374878 0.879551 -0.135659
v -64.442856 0.904055 -0.203653
v -64.434601 0.920008 -0.195382
v -64.334991 0.974000 -0.095773
v -64.330750 0.978565 -0.091531
v -64.334991 0.982402 -0.095773
v -64.381882 0.952887 -0.142663
v -64.399155 0.699565 -0.135690
v -64.399155 0.699565 0.008673
v -64.399155 0.879551 0.008673
v -64.399155 0.879551 -0.135690
v -64.399506 0.648822 -0.153924
v -64.380524 0.662019 -0.134790
v -64.224930 0.662019 -0.134790
v -64.205963 0.648822 -0.153924
v -64.153839 0.019470 -0.202630
v -64.451630 0.019470 -0.202630
v -64.399506 0.648822 0.026999
v -64.380524 0.662019 0.007834
v -64.224930 0.662019 0.007834
v -64.205963 0.648822 0.026999
v -64.153839 0.019470 0.075751
v -64.451630 0.019470 0.075751
v -64.164719 0.011733 -0.199929
v -64.164719 0.011733 0.073035
v -64.440750 0.011733 -0.199929
v -64.440750 0.011733 0.073035
v -64.444672 0.908871 -0.205453
v -64.160797 0.908871 -0.205453
v -64.160797 0.908871 0.078421
v -64.444672 0.908871 0.078421
v -64.337555 1.018186 -0.063791
v -64.337555 0.982402 -0.063791
v -64.332977 0.978565 -0.063760
v -64.337555 0.974000 -0.063791
v -64.388184 0.952887 -0.064203
v -64.445084 0.920008 -0.064660
v -64.455948 0.908871 -0.064752
v -64.453995 0.904055 -0.064737
v -64.399063 0.904055 -0.064355
v -64.399155 0.879551 -0.064142
v -64.374878 0.879551 -0.064142
v -64.230576 0.879551 -0.064142
v -64.206314 0.879551 -0.064142
v -64.206406 0.904055 -0.064355
v -64.151459 0.904055 -0.064737
v -64.149521 0.908871 -0.064752
v -64.160370 0.920008 -0.064660
v -64.217285 0.952887 -0.064203
v -64.267914 0.974000 -0.063791
v -64.272491 0.978565 -0.063760
v -64.267914 0.982402 -0.063791
v -64.267914 1.018186 -0.063791
v -64.303329 1.018186 -0.098916
v -64.303329 0.982402 -0.098916
v -64.303253 0.978565 -0.094247
v -64.303329 0.974000 -0.098916
v -64.304184 0.952887 -0.150369
v -64.305161 0.920008 -0.208215
v -64.305344 0.908871 -0.219262
v -64.305313 0.904055 -0.217279
v -64.304504 0.904055 -0.169214
v -64.304062 0.879551 -0.169320
v -64.304062 0.879551 -0.142678
v -64.304062 0.879551 -0.064203
v -64.304062 0.879551 0.015662
v -64.304062 0.879551 0.042289
v -64.304504 0.904055 0.042197
v -64.305313 0.904055 0.090247
v -64.305344 0.908871 0.092231
v -64.305161 0.920008 0.081198
v -64.304184 0.952887 0.023337
v -64.303329 0.974000 -0.028116
v -64.303253 0.978565 -0.032769
v -64.303329 0.982402 -0.028116
v -64.303329 1.018186 -0.028116
v -64.276169 0.373008 -0.042291
v -64.338501 0.373008 -0.042291
v -64.276169 0.373008 1.980551
v -64.338501 0.373008 1.980551
v -64.276169 0.308557 1.980551
v -64.338501 0.308557 1.980551
v -64.276169 0.308557 -0.042291
v -64.338501 0.308557 -0.042291
vt 0.018916 0.017805
vt 0.179093 0.017805
vt 0.179132 0.553722
vt 0.018359 0.553722
vt 0.163840 0.578184
vt 0.034168 0.578184
vt 0.179249 0.600604
vt 0.018721 0.600604
vt 0.159217 0.621175
vt 0.038792 0.621175
vt 0.179262 0.792839
vt 0.159217 0.772268
vt 0.097513 0.792839
vt 0.097895 0.772268
vt 0.018721 0.792839
vt 0.038792 0.772268
vt 0.144716 0.639392
vt 0.053293 0.639392
vt 0.144716 0.754051
vt 0.098162 0.754051
vt 0.053293 0.754051
vt 0.199388 0.966265
vt 0.167909 0.944907
vt 0.269109 0.944907
vt 0.268529 0.966265
vt 0.245542 0.864078
vt 0.244545 0.835513
vt 0.267697 0.835513
vt 0.267678 0.864078
vt 0.174340 0.933759
vt 0.211493 0.897936
vt 0.268306 0.897936
vt 0.268990 0.933758
vt 0.333057 0.017805
vt 0.339776 0.017805
vt 0.339647 0.553722
vt 0.332921 0.553722
vt 0.321638 0.578184
vt 0.339763 0.600604
vt 0.319731 0.621175
vt 0.199307 0.621175
vt 0.339776 0.792839
vt 0.319731 0.772268
vt 0.199307 0.772268
vt 0.260044 0.772268
vt 0.260219 0.792839
vt 0.305230 0.639392
vt 0.213808 0.639392
vt 0.305230 0.754051
vt 0.213808 0.754051
vt 0.259918 0.754051
vt 0.302284 0.846215
vt 0.337453 0.823907
vt 0.408979 0.823907
vt 0.409286 0.846215
vt 0.384617 0.960471
vt 0.385658 0.930636
vt 0.408558 0.930636
vt 0.408567 0.960471
vt 0.350096 0.895273
vt 0.311291 0.857859
vt 0.409207 0.857859
vt 0.408869 0.895273
vt 0.500291 0.017805
vt 0.500161 0.553722
vt 0.549556 0.827667
vt 0.549119 0.839645
vt 0.525813 0.839645
vt 0.484869 0.578184
vt 0.355198 0.578184
vt 0.500278 0.600604
vt 0.480246 0.621175
vt 0.359821 0.621175
vt 0.500291 0.792839
vt 0.480246 0.772268
vt 0.359821 0.772268
vt 0.421143 0.772268
vt 0.421512 0.792839
vt 0.465745 0.639392
vt 0.374322 0.639392
vt 0.465745 0.754051
vt 0.374322 0.754051
vt 0.420875 0.754051
vt 0.655633 0.953901
vt 0.620463 0.976209
vt 0.548250 0.976209
vt 0.547602 0.953901
vt 0.573299 0.839645
vt 0.572258 0.869481
vt 0.549138 0.869481
vt 0.607820 0.904843
vt 0.646625 0.942258
vt 0.547768 0.942258
vt 0.548483 0.904843
vt 0.507010 0.017805
vt 0.506909 0.553722
vt 0.105416 0.954282
vt 0.127951 0.954282
vt 0.128149 0.965750
vt 0.518429 0.578184
vt 0.520336 0.621175
vt 0.660831 0.600604
vt 0.640760 0.621175
vt 0.660831 0.792839
vt 0.640760 0.772268
vt 0.660831 0.792839
vt 0.579860 0.792839
vt 0.580022 0.772268
vt 0.520336 0.772268
vt 0.534837 0.639392
vt 0.626259 0.639392
vt 0.626259 0.754051
vt 0.580149 0.754051
vt 0.534837 0.754051
vt 0.196039 0.823530
vt 0.227518 0.844888
vt 0.127282 0.844888
vt 0.127557 0.823530
vt 0.149886 0.925716
vt 0.150882 0.954282
vt 0.127960 0.925716
vt 0.221087 0.856036
vt 0.183934 0.891859
vt 0.127662 0.891859
vt 0.127338 0.856036
vt 0.060539 0.745797
vt 0.060539 0.648080
vt 0.137600 0.648080
vt 0.137600 0.745797
vt 0.217996 0.643180
vt 0.221015 0.647639
vt 0.217996 0.647639
vt 0.654518 0.553722
vt 0.642696 0.578184
vt 0.185787 0.553722
vt 0.197371 0.578184
vt 0.186078 0.017805
vt 0.221015 0.745193
vt 0.217996 0.745193
vt 0.661194 0.553722
vt 0.179430 0.017805
vt 0.217996 0.749606
vt 0.653989 0.017805
vt 0.660636 0.017805
vt 0.297558 0.647639
vt 0.300577 0.643180
vt 0.300577 0.647639
vt 0.297558 0.745193
vt 0.300577 0.745193
vt 0.300577 0.749606
vt 0.419143 0.644280
vt 0.461028 0.644280
vt 0.461028 0.697888
vt 0.419143 0.697888
vt 0.289014 0.864078
vt 0.290011 0.835513
vt 0.323063 0.897936
vt 0.360216 0.933758
vt 0.366647 0.944907
vt 0.335168 0.966265
vt 0.018721 0.792839
vt 0.419143 0.749557
vt 0.461028 0.749557
vt 0.443479 0.953901
vt 0.478649 0.976209
vt 0.452487 0.942258
vt 0.491292 0.904843
vt 0.526854 0.869481
vt 0.408360 0.972449
vt 0.267278 0.824044
vt 0.106413 0.925716
vt 0.072365 0.891859
vt 0.035211 0.856036
vt 0.028780 0.844888
vt 0.060260 0.823530
vt 0.377984 0.749557
vt 0.377984 0.697888
vt 0.514437 0.846215
vt 0.479267 0.823907
vt 0.505429 0.857859
vt 0.466624 0.895273
vt 0.431062 0.930636
vt 0.432103 0.960471
vt 0.377984 0.644280
vt 0.506909 0.553722
vt 0.507010 0.017805
vt 0.653989 0.017805
vt 0.654518 0.553722
vt 0.752796 1.284514
vt 0.690112 1.284514
vt 0.690034 -0.190042
vt 0.752874 -0.190042
vt 0.835903 -0.190033
vt 0.898587 -0.190033
vt 0.898665 1.284522
vt 0.835825 1.284522
vt 0.981615 -0.190042
vt 0.981693 1.284514
vt 0.898665 1.284522
vt 0.898587 -0.190033
vt 0.835903 -0.190033
vt 0.835825 1.284522
vt 0.752796 1.284514
vt 0.752874 -0.190042
vt 0.807124 0.411276
vt 0.689386 0.411276
vt 0.689386 0.329169
vt 0.807124 0.329169
vt 0.018916 0.017805
vt 0.179093 0.017805
vt 0.179132 0.553722
vt 0.018359 0.553722
vt 0.163840 0.578184
vt 0.034168 0.578184
vt 0.179249 0.600604
vt 0.018721 0.600604
vt 0.159217 0.621175
vt 0.038792 0.621175
vt 0.179262 0.792839
vt 0.159217 0.772268
vt 0.097513 0.792839
vt 0.097895 0.772268
vt 0.018721 0.792839
vt 0.038792 0.772268
vt 0.144716 0.639392
vt 0.053293 0.639392
vt 0.144716 0.754051
vt 0.098162 0.754051
vt 0.053293 0.754051
vt 0.199388 0.966265
vt 0.168569 0.946888
vt 0.269096 0.946888
vt 0.268529 0.966265
vt 0.167249 0.942925
vt 0.269121 0.942925
vt 0.244545 0.869281
vt 0.247535 0.863705
vt 0.267642 0.863705
vt 0.267697 0.869281
vt 0.244545 0.859249
vt 0.244545 0.835513
vt 0.267697 0.835513
vt 0.267697 0.859249
vt 0.174340 0.933759
vt 0.211493 0.897936
vt 0.268306 0.897936
vt 0.268990 0.933758
vt 0.333057 0.017805
vt 0.339776 0.017805
vt 0.339647 0.553722
vt 0.332921 0.553722
vt 0.324355 0.578184
vt 0.318921 0.578184
vt 0.200059 0.578184
vt 0.194683 0.578184
vt 0.339763 0.600604
vt 0.319731 0.621175
vt 0.199307 0.621175
vt 0.339776 0.792839
vt 0.319731 0.772268
vt 0.199307 0.772268
vt 0.260044 0.772268
vt 0.260219 0.792839
vt 0.305230 0.639392
vt 0.213808 0.639392
vt 0.305230 0.754051
vt 0.213808 0.754051
vt 0.259918 0.754051
vt 0.303885 0.844145
vt 0.337453 0.823907
vt 0.408979 0.823907
vt 0.409272 0.844145
vt 0.300682 0.848285
vt 0.409300 0.848285
vt 0.387740 0.931026
vt 0.384617 0.925202
vt 0.408567 0.925202
vt 0.408540 0.931026
vt 0.384617 0.960471
vt 0.384617 0.935680
vt 0.408567 0.935680
vt 0.408567 0.960471
vt 0.350096 0.895273
vt 0.311291 0.857859
vt 0.409207 0.857859
vt 0.408869 0.895273
vt 0.500291 0.017805
vt 0.500161 0.553722
vt 0.549556 0.827667
vt 0.549119 0.839645
vt 0.525813 0.839645
vt 0.484869 0.578184
vt 0.355198 0.578184
vt 0.500278 0.600604
vt 0.480246 0.621175
vt 0.359821 0.621175
vt 0.500291 0.792839
vt 0.480246 0.772268
vt 0.359821 0.772268
vt 0.421143 0.772268
vt 0.421512 0.792839
vt 0.465745 0.639392
vt 0.374322 0.639392
vt 0.465745 0.754051
vt 0.374322 0.754051
vt 0.420875 0.754051
vt 0.654031 0.955971
vt 0.620463 0.976209
vt 0.548250 0.976209
vt 0.547632 0.955971
vt 0.657234 0.951831
vt 0.547573 0.951831
vt 0.570176 0.869091
vt 0.573299 0.874915
vt 0.549119 0.874915
vt 0.549176 0.869091
vt 0.573299 0.839645
vt 0.573299 0.864437
vt 0.549119 0.864437
vt 0.607820 0.904843
vt 0.646625 0.942258
vt 0.547768 0.942258
vt 0.548483 0.904843
vt 0.507010 0.017805
vt 0.506909 0.553722
vt 0.105416 0.954282
vt 0.127951 0.954282
vt 0.128149 0.965750
vt 0.521146 0.578184
vt 0.515712 0.578184
vt 0.520336 0.621175
vt 0.660831 0.600604
vt 0.640760 0.621175
vt 0.660831 0.792839
vt 0.640760 0.772268
vt 0.660831 0.792839
vt 0.579860 0.792839
vt 0.580022 0.772268
vt 0.520336 0.772268
vt 0.534837 0.639392
vt 0.626259 0.639392
vt 0.626259 0.754051
vt 0.580149 0.754051
vt 0.534837 0.754051
vt 0.196039 0.823530
vt 0.226858 0.842906
vt 0.127288 0.842906
vt 0.127557 0.823530
vt 0.228179 0.846870
vt 0.127276 0.846870
vt 0.150882 0.920513
vt 0.147892 0.926090
vt 0.127977 0.926090
vt 0.127951 0.920513
vt 0.150882 0.930546
vt 0.150882 0.954282
vt 0.127951 0.930546
vt 0.221087 0.856036
vt 0.183934 0.891859
vt 0.127662 0.891859
vt 0.127338 0.856036
vt 0.060539 0.745797
vt 0.060539 0.648080
vt 0.137600 0.648080
vt 0.137600 0.745797
vt 0.217996 0.643180
vt 0.221015 0.647639
vt 0.217996 0.647639
vt 0.654518 0.553722
vt 0.640008 0.578184
vt 0.185787 0.553722
vt 0.186078 0.017805
vt 0.221015 0.745193
vt 0.217996 0.745193
vt 0.653989 0.017805
vt 0.661194 0.553722
vt 0.645384 0.578184
vt 0.179430 0.017805
vt 0.217996 0.749606
vt 0.660636 0.017805
vt 0.297558 0.647639
vt 0.300577 0.643180
vt 0.300577 0.647639
vt 0.297558 0.745193
vt 0.300577 0.745193
vt 0.300577 0.749606
vt 0.419143 0.644280
vt 0.461028 0.644280
vt 0.461028 0.697888
vt 0.419143 0.697888
vt 0.290011 0.859249
vt 0.290011 0.835513
vt 0.287021 0.863705
vt 0.290011 0.869281
vt 0.323063 0.897936
vt 0.360216 0.933758
vt 0.367308 0.942925
vt 0.365987 0.946888
vt 0.335168 0.966265
vt 0.018721 0.792839
vt 0.419143 0.749557
vt 0.461028 0.749557
vt 0.445081 0.955971
vt 0.478649 0.976209
vt 0.441878 0.951831
vt 0.452487 0.942258
vt 0.491292 0.904843
vt 0.525813 0.874915
vt 0.528936 0.869091
vt 0.525813 0.864437
vt 0.408360 0.972449
vt 0.267278 0.824044
vt 0.105416 0.930546
vt 0.108407 0.926090
vt 0.105416 0.920513
vt 0.072365 0.891859
vt 0.035211 0.856036
vt 0.028120 0.846870
vt 0.029441 0.842906
vt 0.060260 0.823530
vt 0.377984 0.749557
vt 0.377984 0.697888
vt 0.512835 0.844145
vt 0.479267 0.823907
vt 0.516038 0.848285
vt 0.505429 0.857859
vt 0.466624 0.895273
vt 0.432103 0.925202
vt 0.428980 0.931026
vt 0.432103 0.935680
vt 0.432103 0.960471
vt 0.377984 0.644280
vt 0.752796 1.284514
vt 0.690112 1.284514
vt 0.690034 -0.190042
vt 0.752874 -0.190042
vt 0.835903 -0.190033
vt 0.898587 -0.190033
vt 0.898665 1.284522
vt 0.835825 1.284522
vt 0.981615 -0.190042
vt 0.981693 1.284514
vt 0.898665 1.284522
vt 0.898587 -0.190033
vt 0.835903 -0.190033
vt 0.835825 1.284522
vt 0.752796 1.284514
vt 0.752874 -0.190042
vt 0.807124 0.411276
vt 0.689386 0.411276
vt 0.689386 0.329169
vt 0.807124 0.329169
vt 0.752796 1.284514
vt 0.690112 1.284514
vt 0.690034 -0.190042
vt 0.752874 -0.190042
vt 0.835903 -0.190033
vt 0.898587 -0.190033
vt 0.898665 1.284522
vt 0.835825 1.284522
vt 0.981615 -0.190042
vt 0.981693 1.284514
vt 0.898665 1.284522
vt 0.898587 -0.190033
vt 0.835903 -0.190033
vt 0.835825 1.284522
vt 0.752796 1.284514
vt 0.752874 -0.190042
vt 0.807124 0.411276
vt 0.689386 0.411276
vt 0.689386 0.329169
vt 0.807124 0.329169
vt 0.018916 0.017805
vt 0.179093 0.017805
vt 0.179132 0.553722
vt 0.018359 0.553722
vt 0.163840 0.578184
vt 0.034168 0.578184
vt 0.179249 0.600604
vt 0.018721 0.600604
vt 0.159217 0.621175
vt 0.038792 0.621175
vt 0.179262 0.792839
vt 0.159217 0.772268
vt 0.097513 0.792839
vt 0.097895 0.772268
vt 0.018721 0.792839
vt 0.038792 0.772268
vt 0.144716 0.639392
vt 0.053293 0.639392
vt 0.144716 0.754051
vt 0.098162 0.754051
vt 0.053293 0.754051
vt 0.199388 0.966265
vt 0.168569 0.946888
vt 0.269096 0.946888
vt 0.268529 0.966265
vt 0.167249 0.942925
vt 0.269121 0.942925
vt 0.244545 0.869281
vt 0.247535 0.863705
vt 0.267642 0.863705
vt 0.267697 0.869281
vt 0.244545 0.859249
vt 0.244545 0.835513
vt 0.267697 0.835513
vt 0.267697 0.859249
vt 0.174340 0.933759
vt 0.211493 0.897936
vt 0.268306 0.897936
vt 0.268990 0.933758
vt 0.333057 0.017805
vt 0.339776 0.017805
vt 0.339647 0.553722
vt 0.332921 0.553722
vt 0.324355 0.578184
vt 0.318921 0.578184
vt 0.200059 0.578184
vt 0.194683 0.578184
vt 0.339763 0.600604
vt 0.319731 0.621175
vt 0.199307 0.621175
vt 0.339776 0.792839
vt 0.319731 0.772268
vt 0.199307 0.772268
vt 0.260044 0.772268
vt 0.260219 0.792839
vt 0.305230 0.639392
vt 0.213808 0.639392
vt 0.305230 0.754051
vt 0.213808 0.754051
vt 0.259918 0.754051
vt 0.303885 0.844145
vt 0.337453 0.823907
vt 0.408979 0.823907
vt 0.409272 0.844145
vt 0.300682 0.848285
vt 0.409300 0.848285
vt 0.387740 0.931026
vt 0.384617 0.925202
vt 0.408567 0.925202
vt 0.408540 0.931026
vt 0.384617 0.960471
vt 0.384617 0.935680
vt 0.408567 0.935680
vt 0.408567 0.960471
vt 0.350096 0.895273
vt 0.311291 0.857859
vt 0.409207 0.857859
vt 0.408869 0.895273
vt 0.500291 0.017805
vt 0.500161 0.553722
vt 0.549556 0.827667
vt 0.549119 0.839645
vt 0.525813 0.839645
vt 0.484869 0.578184
vt 0.355198 0.578184
vt 0.500278 0.600604
vt 0.480246 0.621175
vt 0.359821 0.621175
vt 0.500291 0.792839
vt 0.480246 0.772268
vt 0.359821 0.772268
vt 0.421143 0.772268
vt 0.421512 0.792839
vt 0.465745 0.639392
vt 0.374322 0.639392
vt 0.465745 0.754051
vt 0.374322 0.754051
vt 0.420875 0.754051
vt 0.654031 0.955971
vt 0.620463 0.976209
vt 0.548250 0.976209
vt 0.547632 0.955971
vt 0.657234 0.951831
vt 0.547573 0.951831
vt 0.570176 0.869091
vt 0.573299 0.874915
vt 0.549119 0.874915
vt 0.549176 0.869091
vt 0.573299 0.839645
vt 0.573299 0.864437
vt 0.549119 0.864437
vt 0.607820 0.904843
vt 0.646625 0.942258
vt 0.547768 0.942258
vt 0.548483 0.904843
vt 0.507010 0.017805
vt 0.506909 0.553722
vt 0.105416 0.954282
vt 0.127951 0.954282
vt 0.128149 0.965750
vt 0.521146 0.578184
vt 0.515712 0.578184
vt 0.520336 0.621175
vt 0.660831 0.600604
vt 0.640760 0.621175
vt 0.660831 0.792839
vt 0.640760 0.772268
vt 0.660831 0.792839
vt 0.579860 0.792839
vt 0.580022 0.772268
vt 0.520336 0.772268
vt 0.534837 0.639392
vt 0.626259 0.639392
vt 0.626259 0.754051
vt 0.580149 0.754051
vt 0.534837 0.754051
vt 0.196039 0.823530
vt 0.226858 0.842906
vt 0.127288 0.842906
vt 0.127557 0.823530
vt 0.228179 0.846870
vt 0.127276 0.846870
vt 0.150882 0.920513
vt 0.147892 0.926090
vt 0.127977 0.926090
vt 0.127951 0.920513
vt 0.150882 0.930546
vt 0.150882 0.954282
vt 0.127951 0.930546
vt 0.221087 0.856036
vt 0.183934 0.891859
vt 0.127662 0.891859
vt 0.127338 0.856036
vt 0.060539 0.745797
vt 0.060539 0.648080
vt 0.137600 0.648080
vt 0.137600 0.745797
vt 0.217996 0.643180
vt 0.221015 0.647639
vt 0.217996 0.647639
vt 0.654518 0.553722
vt 0.640008 0.578184
vt 0.185787 0.553722
vt 0.186078 0.017805
vt 0.221015 0.745193
vt 0.217996 0.745193
vt 0.653989 0.017805
vt 0.661194 0.553722
vt 0.645384 0.578184
vt 0.179430 0.017805
vt 0.217996 0.749606
vt 0.660636 0.017805
vt 0.297558 0.647639
vt 0.300577 0.643180
vt 0.300577 0.647639
vt 0.297558 0.745193
vt 0.300577 0.745193
vt 0.300577 0.749606
vt 0.419143 0.644280
vt 0.461028 0.644280
vt 0.461028 0.697888
vt 0.419143 0.697888
vt 0.290011 0.859249
vt 0.290011 0.835513
vt 0.287021 0.863705
vt 0.290011 0.869281
vt 0.323063 0.897936
vt 0.360216 0.933758
vt 0.367308 0.942925
vt 0.365987 0.946888
vt 0.335168 0.966265
vt 0.018721 0.792839
vt 0.419143 0.749557
vt 0.461028 0.749557
vt 0.445081 0.955971
vt 0.478649 0.976209
vt 0.441878 0.951831
vt 0.452487 0.942258
vt 0.491292 0.904843
vt 0.525813 0.874915
vt 0.528936 0.869091
vt 0.525813 0.864437
vt 0.408360 0.972449
vt 0.267278 0.824044
vt 0.105416 0.930546
vt 0.108407 0.926090
vt 0.105416 0.920513
vt 0.072365 0.891859
vt 0.035211 0.856036
vt 0.028120 0.846870
vt 0.029441 0.842906
vt 0.060260 0.823530
vt 0.377984 0.749557
vt 0.377984 0.697888
vt 0.512835 0.844145
vt 0.479267 0.823907
vt 0.516038 0.848285
vt 0.505429 0.857859
vt 0.466624 0.895273
vt 0.432103 0.925202
vt 0.428980 0.931026
vt 0.432103 0.935680
vt 0.432103 0.960471
vt 0.377984 0.644280
vt 0.752796 1.284514
vt 0.690112 1.284514
vt 0.690034 -0.190042
vt 0.752874 -0.190042
vt 0.835903 -0.190033
vt 0.898587 -0.190033
vt 0.898665 1.284522
vt 0.835825 1.284522
vt 0.981615 -0.190042
vt 0.981693 1.284514
vt 0.898665 1.284522
vt 0.898587 -0.190033
vt 0.835903 -0.190033
vt 0.835825 1.284522
vt 0.752796 1.284514
vt 0.752874 -0.190042
vt 0.807124 0.411276
vt 0.689386 0.411276
vt 0.689386 0.329169
vt 0.807124 0.329169
vn 0.792998 -0.471771 0.385470
vn 0.792998 -0.471767 -0.385475
vn 0.731499 0.597477 -0.328528
vn 0.731493 0.597494 0.328510
vn 0.613309 0.439860 -0.656029
vn 0.613291 0.439893 0.656024
vn 0.636185 -0.434156 -0.637792
vn 0.636178 -0.434158 0.637797
vn 0.817504 0.407271 0.407207
vn 0.817499 0.407277 -0.407212
vn 0.566906 -0.565692 -0.598840
vn 0.823292 -0.433217 0.366762
vn 0.704278 -0.709923 0.001407
vn 0.686550 -0.727082 0.001384
vn 0.566038 -0.566064 0.599311
vn 0.823155 -0.434814 -0.365173
vn -0.301201 0.904741 0.301201
vn -0.301213 0.904737 -0.301200
vn -0.301201 -0.904741 0.301201
vn 0.000000 -1.000000 -0.000000
vn -0.301213 -0.904737 -0.301200
vn 0.594013 -0.529203 -0.605881
vn 0.902783 -0.430094 0.001559
vn 0.551432 0.616325 -0.562197
vn 0.553049 0.613265 -0.563952
vn 0.857673 0.514194 0.001493
vn 0.855893 0.517150 0.001488
vn 0.395565 0.824535 -0.404562
vn 0.262594 0.926538 -0.269394
vn 0.463640 0.886023 0.000770
vn 0.662746 0.748843 0.001131
vn -0.315993 -0.427752 -0.846863
vn -0.790943 -0.473430 -0.387650
vn -0.730203 0.598002 -0.330450
vn -0.275530 0.575930 -0.769668
vn -0.612114 0.439885 -0.657128
vn -0.636048 -0.434309 -0.637824
vn 0.407096 0.407111 -0.817639
vn -0.407083 0.407113 -0.817645
vn -0.566927 -0.565656 -0.598855
vn 0.407093 -0.407117 -0.817637
vn -0.407081 -0.407114 -0.817645
vn 0.000003 -0.705850 -0.708361
vn -0.000010 -0.689066 -0.724699
vn 0.301201 0.904741 0.301201
vn 0.301201 -0.904741 0.301200
vn 0.000000 -1.000000 -0.000000
vn -0.000592 -0.433737 -0.901039
vn -0.000575 0.514303 -0.857609
vn -0.000575 0.511218 -0.859451
vn -0.000445 0.743865 -0.668330
vn -0.000308 0.882882 -0.469595
vn -0.790972 -0.473341 0.387701
vn -0.730223 0.597967 0.330469
vn -0.000196 1.000000 0.000384
vn -0.857686 0.514171 0.001489
vn -0.552616 0.612826 0.564854
vn -0.612147 0.439822 0.657139
vn -0.636052 -0.434311 0.637818
vn -0.817528 0.407212 -0.407218
vn -0.817528 0.407212 0.407218
vn -0.566058 -0.566041 0.599312
vn -0.823179 -0.434768 -0.365175
vn -0.823326 -0.433140 0.366775
vn -0.686612 -0.727023 0.001384
vn -0.704336 -0.709865 0.001407
vn 0.301201 0.904741 -0.301201
vn 0.301201 -0.904741 -0.301201
vn 0.000000 -1.000000 -0.000000
vn -0.594668 -0.528847 -0.605550
vn -0.902809 -0.430038 0.001551
vn -0.553629 0.613105 -0.563557
vn -0.551910 0.616209 -0.561856
vn -0.855851 0.517220 0.001490
vn -0.262856 0.926535 -0.269147
vn -0.395950 0.824521 -0.404214
vn -0.662701 0.748883 0.001128
vn -0.463613 0.886038 0.000773
vn -0.316034 -0.427666 0.846891
vn -0.275566 0.575900 0.769677
vn -0.000571 0.511256 0.859428
vn 0.407085 0.407107 0.817647
vn -0.407085 0.407107 0.817647
vn -0.407085 -0.407106 0.817647
vn -0.000013 -0.689054 0.724710
vn 0.000000 -0.705840 0.708372
vn 0.407085 -0.407106 0.817647
vn 0.000000 -1.000000 -0.000000
vn 0.593043 -0.528370 0.607556
vn -0.000593 -0.433731 0.901042
vn 0.550439 0.615989 0.563537
vn 0.552050 0.612932 0.565292
vn -0.000575 0.514302 0.857609
vn 0.394670 0.824477 0.405552
vn 0.261857 0.926536 0.270115
vn -0.000307 0.882882 0.469595
vn -0.000445 0.743870 0.668324
vn -0.225490 -0.933634 0.278355
vn 0.277395 0.576454 0.768605
vn 0.277401 0.576430 -0.768621
vn 0.318418 -0.427727 -0.845967
vn 0.227288 -0.933289 0.278052
vn 0.318422 -0.427733 0.845962
vn -0.225439 -0.933665 -0.278293
vn 0.227286 -0.933289 -0.278052
vn 0.000000 -1.000000 -0.000000
vn -0.593676 -0.527951 0.607302
vn -0.395007 0.824493 0.405192
vn -0.262134 0.926530 0.269868
vn -0.550926 0.615867 0.563195
vn 0.000000 0.707107 0.707107
vn -0.000000 -0.707107 0.707107
vn -0.000000 -0.707107 0.707107
vn 0.000000 0.707107 0.707107
vn 0.000000 0.707107 -0.707107
vn -0.000000 -0.707107 -0.707107
vn -0.000000 -0.707107 -0.707107
vn 0.000000 0.707107 -0.707107
vn 1.000000 0.000000 0.000000
vn 1.000000 0.000000 0.000000
vn 1.000000 0.000000 0.000000
vn 1.000000 0.000000 0.000000
vn 0.792863 -0.472056 0.385398
vn 0.792858 -0.472057 -0.385406
vn 0.743332 0.584116 -0.325986
vn 0.743383 0.584066 0.325959
vn 0.935390 0.003665 -0.353599
vn 0.935505 0.003579 0.353296
vn 0.593534 -0.535450 -0.600842
vn 0.593586 -0.535478 0.600766
vn 0.817481 0.407330 0.407195
vn 0.817475 0.407336 -0.407200
vn 0.561780 -0.575637 -0.594176
vn 0.823292 -0.433217 0.366762
vn 0.686507 -0.727122 0.001383
vn 0.686507 -0.727122 0.001383
vn 0.560925 -0.576044 0.594590
vn 0.823119 -0.434894 -0.365160
vn -0.301201 0.904741 0.301201
vn -0.301213 0.904737 -0.301200
vn -0.301201 -0.904741 0.301201
vn 0.000000 -1.000000 -0.000000
vn -0.301213 -0.904737 -0.301200
vn 0.321268 -0.888722 -0.327047
vn 0.555429 -0.831564 0.000951
vn 0.678006 0.249201 -0.691525
vn 0.980903 0.194490 0.001683
vn 0.317781 0.890569 -0.325427
vn 0.697886 -0.056397 -0.713985
vn 0.999057 -0.043394 0.001665
vn 0.549958 0.835192 0.000917
vn 0.597630 -0.521172 -0.609276
vn 0.543861 0.629692 -0.554710
vn 0.847538 0.530733 0.001476
vn 0.904133 -0.427248 0.001565
vn 0.356692 0.859884 -0.365199
vn 0.246610 0.935487 -0.253077
vn 0.437696 0.899123 0.000727
vn 0.607829 0.794067 0.001033
vn -0.315766 -0.427804 -0.846922
vn -0.790752 -0.473626 -0.387801
vn -0.742232 0.584409 -0.327961
vn -0.274169 0.562157 -0.780263
vn -0.934660 0.003404 -0.355528
vn -0.294074 -0.009890 -0.955732
vn 0.295949 -0.009633 -0.955155
vn -0.593235 -0.535543 -0.601054
vn 0.407096 0.407111 -0.817639
vn -0.407083 0.407113 -0.817645
vn -0.561806 -0.575549 -0.594237
vn 0.407093 -0.407117 -0.817637
vn -0.407081 -0.407114 -0.817645
vn 0.000003 -0.705850 -0.708361
vn 0.000003 -0.705851 -0.708361
vn 0.301201 0.904741 0.301201
vn 0.301201 -0.904741 0.301200
vn 0.000000 -1.000000 -0.000000
vn -0.000381 -0.829749 -0.558136
vn -0.000662 0.193215 -0.981156
vn -0.000365 0.831302 -0.555822
vn -0.000661 -0.043374 -0.999059
vn -0.000606 -0.423370 -0.905957
vn -0.000554 0.527584 -0.849503
vn -0.000405 0.789469 -0.613791
vn -0.000290 0.896282 -0.443486
vn -0.790763 -0.473613 0.387795
vn -0.742233 0.584414 0.327948
vn -0.246919 0.935073 0.254302
vn -0.847566 0.530687 0.001479
vn -0.543419 0.629278 0.555612
vn -0.934634 0.003471 0.355595
vn -0.593258 -0.535494 0.601076
vn -0.817520 0.407232 -0.407215
vn -0.817520 0.407232 0.407215
vn -0.560961 -0.575946 0.594650
vn -0.823207 -0.434736 -0.365151
vn -0.823371 -0.433070 0.366758
vn -0.686670 -0.726968 0.001385
vn -0.686670 -0.726968 0.001385
vn 0.301201 0.904741 -0.301201
vn 0.301201 -0.904741 -0.301201
vn 0.000000 -1.000000 -0.000000
vn -0.321609 -0.888652 -0.326902
vn -0.555935 -0.831225 0.000978
vn -0.678540 0.249241 -0.690987
vn -0.980749 0.195265 0.001708
vn -0.698325 -0.056353 -0.713559
vn -0.317934 0.890639 -0.325084
vn -0.549791 0.835302 0.000931
vn -0.999057 -0.043389 0.001706
vn -0.544387 0.629643 -0.554249
vn -0.597975 -0.521278 -0.608847
vn -0.904044 -0.427437 0.001581
vn -0.246898 0.935477 -0.252834
vn -0.356998 0.859914 -0.364830
vn -0.607701 0.794165 0.001030
vn -0.437717 0.899112 0.000727
vn -0.315775 -0.427793 0.846923
vn -0.274180 0.562167 0.780252
vn -0.000561 0.527583 0.849503
vn -0.294148 -0.009818 0.955709
vn 0.407085 0.407107 0.817647
vn -0.407085 0.407107 0.817647
vn -0.407085 -0.407106 0.817647
vn 0.000000 -0.705840 0.708371
vn 0.000000 -0.705840 0.708372
vn 0.407085 -0.407106 0.817647
vn 0.000000 -1.000000 -0.000000
vn 0.320430 -0.888785 0.327698
vn -0.000382 -0.829781 0.558089
vn 0.676623 0.248167 0.693249
vn -0.000662 0.193175 0.981164
vn 0.316841 0.890600 0.326257
vn 0.695904 -0.056288 0.715925
vn -0.000660 -0.043360 0.999059
vn -0.000364 0.831286 0.555844
vn 0.596315 -0.521094 0.610631
vn 0.542866 0.629426 0.555985
vn -0.000604 -0.423333 0.905974
vn 0.355877 0.859828 0.366125
vn 0.245922 0.935480 0.253769
vn -0.000289 0.896281 0.443487
vn -0.000405 0.789478 0.613779
vn -0.225221 -0.933720 0.278287
vn 0.276127 0.562707 0.779176
vn 0.296266 -0.009710 0.955056
vn 0.276039 0.562722 -0.779196
vn 0.318337 -0.427891 -0.845915
vn 0.227041 -0.933388 0.277919
vn 0.318345 -0.427893 0.845911
vn -0.225221 -0.933719 -0.278287
vn 0.227041 -0.933388 -0.277919
vn 0.000000 -1.000000 -0.000000
vn -0.321249 -0.888461 0.327775
vn -0.677164 0.249013 0.692417
vn -0.356146 0.859877 0.365747
vn -0.246200 0.935477 0.253511
vn -0.317189 0.890593 0.325937
vn -0.696632 -0.056261 0.715219
vn -0.596847 -0.521010 0.610182
vn 0.247310 0.935061 -0.253967
vn 0.246569 0.935093 0.254568
vn -0.247577 0.935110 -0.253527
vn 0.000000 0.707107 -0.707107
vn 0.000000 0.707107 0.707107
vn 0.000000 0.707107 0.707107
vn 0.000000 0.707107 -0.707107
vn 0.000000 -0.707107 -0.707107
vn 0.000000 -0.707107 0.707107
vn 0.000000 -0.707107 0.707107
vn 0.000000 -0.707107 -0.707107
vn 1.000000 0.000000 0.000000
vn 1.000000 0.000000 0.000000
vn 1.000000 0.000000 0.000000
vn 1.000000 0.000000 0.000000
vn -0.707107 0.707107 -0.000000
vn -0.707107 -0.707107 0.000000
vn -0.707107 -0.707107 0.000000
vn -0.707107 0.707107 -0.000000
vn 0.707107 0.707107 -0.000000
vn 0.707107 -0.707107 0.000000
vn 0.707107 -0.707107 0.000000
vn 0.707107 0.707107 -0.000000
vn 0.000000 0.000000 1.000000
vn 0.000000 0.000000 1.000000
vn 0.000000 0.000000 1.000000
vn 0.000000 0.000000 1.000000
vn -0.385540 -0.471924 0.792873
vn 0.385540 -0.471922 0.792874
vn 0.325972 0.584073 0.743372
vn -0.325952 0.584123 0.743341
vn 0.353487 0.003680 0.935432
vn -0.353452 0.003671 0.935445
vn 0.600833 -0.535427 0.593564
vn -0.600766 -0.535529 0.593540
vn -0.407214 0.407233 0.817520
vn 0.407214 0.407233 0.817519
vn 0.594215 -0.575517 0.561862
vn -0.366774 -0.433141 0.823326
vn -0.001384 -0.727054 0.686579
vn -0.001384 -0.727054 0.686579
vn -0.594621 -0.575938 0.561001
vn 0.365164 -0.434828 0.823152
vn -0.301201 0.904741 -0.301201
vn 0.301201 0.904741 -0.301201
vn -0.301201 -0.904741 -0.301202
vn 0.000000 -1.000000 -0.000001
vn 0.301201 -0.904741 -0.301201
vn 0.327600 -0.888482 0.321369
vn -0.000975 -0.831496 0.555530
vn 0.691740 0.249722 0.677595
vn -0.001699 0.194615 0.980878
vn 0.325441 0.890577 0.317744
vn 0.713967 -0.056515 0.697895
vn -0.001702 -0.043365 0.999058
vn -0.000930 0.835149 0.550023
vn 0.609207 -0.521266 0.597619
vn 0.554633 0.629720 0.543907
vn -0.001474 0.530695 0.847561
vn -0.001581 -0.427142 0.904183
vn 0.365334 0.859797 0.356764
vn 0.253074 0.935490 0.246602
vn -0.000728 0.899117 0.437707
vn -0.001027 0.794056 0.607843
vn 0.846991 -0.427686 -0.315739
vn 0.387895 -0.473551 -0.790751
vn 0.327918 0.584403 -0.742256
vn 0.780251 0.562161 -0.274196
vn 0.355457 0.003536 -0.934686
vn 0.955682 -0.009705 -0.294240
vn 0.955111 -0.009560 0.296093
vn 0.601087 -0.535427 -0.593306
vn 0.817684 0.407078 0.407039
vn 0.817684 0.407078 -0.407039
vn 0.594234 -0.575502 -0.561856
vn 0.817680 -0.407087 0.407037
vn 0.817711 -0.407011 -0.407052
vn 0.708442 -0.705769 0.000000
vn 0.708442 -0.705769 -0.000000
vn -0.301201 0.904741 0.301201
vn -0.301201 -0.904741 0.301202
vn 0.000000 -1.000000 0.000000
vn 0.559306 -0.828961 -0.000375
vn 0.980935 0.194334 -0.000654
vn 0.555963 0.831207 -0.000373
vn 0.999049 -0.043601 -0.000683
vn 0.905941 -0.423403 -0.000613
vn 0.849488 0.527608 -0.000564
vn 0.614014 0.789295 -0.000406
vn 0.443477 0.896286 -0.000289
vn -0.387882 -0.473572 -0.790745
vn -0.327974 0.584423 -0.742215
vn -0.254289 0.935098 -0.246837
vn -0.001474 0.530695 -0.847561
vn -0.555615 0.629315 -0.543374
vn -0.355795 0.003522 -0.934557
vn -0.601097 -0.535500 -0.593231
vn 0.407214 0.407233 -0.817519
vn -0.407214 0.407233 -0.817519
vn -0.594623 -0.575957 -0.560978
vn 0.365147 -0.434753 -0.823200
vn -0.366759 -0.433061 -0.823375
vn -0.001385 -0.726972 -0.686665
vn -0.001385 -0.726972 -0.686666
vn 0.301201 0.904741 0.301201
vn 0.301201 -0.904741 0.301201
vn 0.000000 -1.000000 0.000001
vn 0.327306 -0.888489 -0.321648
vn -0.000974 -0.831495 -0.555531
vn 0.691220 0.249645 -0.678154
vn -0.001699 0.194956 -0.980810
vn 0.713670 -0.056521 -0.698198
vn 0.325216 0.890578 -0.317972
vn -0.000926 0.835334 -0.549742
vn -0.001695 -0.043396 -0.999057
vn 0.554293 0.629584 -0.544411
vn 0.608887 -0.521239 -0.597969
vn -0.001579 -0.427499 -0.904014
vn 0.252830 0.935478 -0.246895
vn 0.364952 0.859871 -0.356975
vn -0.001027 0.794256 -0.607582
vn -0.000729 0.899101 -0.437741
vn -0.847017 -0.427650 -0.315718
vn -0.780229 0.562220 -0.274137
vn -0.849503 0.527583 -0.000561
vn -0.955775 -0.009749 -0.293936
vn -0.817684 0.407078 0.407039
vn -0.817684 0.407078 -0.407039
vn -0.817710 -0.407011 -0.407052
vn -0.708411 -0.705800 0.000000
vn -0.708411 -0.705800 0.000000
vn -0.817657 -0.407146 0.407025
vn 0.000000 -1.000000 0.000000
vn -0.327535 -0.888799 0.320559
vn -0.557562 -0.830135 -0.000383
vn -0.693032 0.248308 0.676794
vn -0.981259 0.192692 -0.000667
vn -0.326191 0.890589 0.316940
vn -0.715709 -0.056149 0.696138
vn -0.999062 -0.043305 -0.000670
vn -0.555790 0.831322 -0.000371
vn -0.610626 -0.520965 0.596432
vn -0.555985 0.629425 0.542867
vn -0.905975 -0.423332 -0.000604
vn -0.366037 0.859885 0.355829
vn -0.253773 0.935472 0.245949
vn -0.443491 0.896279 -0.000288
vn -0.613677 0.789557 -0.000408
vn -0.278459 -0.933664 -0.225238
vn -0.779129 0.562806 0.276056
vn -0.955134 -0.009603 0.296019
vn 0.779201 0.562689 0.276092
vn 0.846004 -0.427710 0.318341
vn -0.278154 -0.933303 0.227105
vn -0.846036 -0.427656 0.318330
vn 0.278415 -0.933675 -0.225246
vn 0.278095 -0.933321 0.227100
vn 0.000000 -1.000000 0.000000
vn -0.327460 -0.888692 -0.320930
vn -0.692549 0.248526 -0.677208
vn -0.365686 0.859943 -0.356051
vn -0.253514 0.935467 -0.246234
vn -0.325951 0.890605 -0.317142
vn -0.715333 -0.056308 -0.696512
vn -0.610186 -0.521078 -0.596784
vn 0.253839 0.935078 0.247378
vn -0.254568 0.935092 0.246572
vn 0.253617 0.935066 -0.247650
vn 0.707107 0.707107 0.000000
vn -0.707107 0.707107 0.000000
vn -0.707107 0.707107 0.000000
vn 0.707107 0.707107 0.000000
vn 0.707107 -0.707107 0.000000
vn -0.707107 -0.707107 0.000000
vn -0.707107 -0.707107 0.000000
vn 0.707107 -0.707107 0.000000
vn 0.000000 0.000000 1.000000
vn 0.000000 0.000000 1.000000
vn 0.000000 0.000000 1.000000
vn 0.000000 0.000000 1.000000
s 1
g polySurface19661
f 5/1/1 6/2/2 7/3/3 8/4/4
f 8/4/4 7/3/3 12/5/5 13/6/6
f 13/6/6 12/5/5 14/7/7 15/8/8
f 15/8/8 14/7/7 2/9/9 1/10/10
f 14/7/7 16/11/11 3/12/12 2/9/9
f 3/12/12 16/11/11 105/13/13 104/14/14
f 17/15/15 15/8/8 1/10/10 4/16/16
f 1/10/10 2/9/9 18/17/17 19/18/18
f 2/9/9 3/12/12 20/19/19 18/17/17
f 20/19/19 3/12/12 104/14/14 103/20/20
f 4/16/16 1/10/10 19/18/18 21/21/21
f 16/22/11 22/23/22 106/24/23 105/25/13
f 26/26/24 9/27/25 110/28/26 109/29/27
f 24/30/28 28/31/29 108/32/30 107/33/31
f 28/31/29 26/26/24 109/29/27 108/32/30
f 68/34/32 34/35/33 35/36/34 67/37/35
f 67/37/35 35/36/34 37/38/36
f 38/39/37 31/40/38 30/41/39 14/7/7
f 38/39/37 39/42/40 32/43/41 31/40/38
f 16/11/11 33/44/42 87/45/43 88/46/44
f 16/11/11 14/7/7 30/41/39 33/44/42
f 31/40/38 40/47/45 18/48/17 30/41/39
f 31/40/38 32/43/41 41/49/46 40/47/45
f 33/44/42 20/50/19 86/51/47 87/45/43
f 33/44/42 30/41/39 18/48/17 20/50/19
f 22/52/22 16/53/11 88/54/44 89/55/48
f 9/56/25 26/57/24 92/58/49 93/59/50
f 28/60/29 24/61/28 90/62/51 91/63/52
f 26/57/24 28/60/29 91/63/52 92/58/49
f 34/35/33 50/64/53 51/65/54 35/36/34
f 10/66/55 94/67/56 52/68/57
f 35/36/34 51/65/54 53/69/58 37/70/36
f 37/70/36 53/69/58 54/71/59 38/39/37
f 38/39/37 54/71/59 47/72/60 46/73/61
f 54/71/59 55/74/62 48/75/63 47/72/60
f 39/42/40 49/76/64 100/77/65 99/78/66
f 39/42/40 38/39/37 46/73/61 49/76/64
f 46/73/61 47/72/60 56/79/67 40/80/45
f 47/72/60 48/75/63 57/81/68 56/79/67
f 49/76/64 41/82/46 101/83/69 100/77/65
f 49/76/64 46/73/61 40/80/45 41/82/46
f 42/84/70 39/85/40 99/86/66 98/87/71
f 36/88/72 44/89/73 95/90/74 94/67/56
f 45/91/75 43/92/76 97/93/77 96/94/78
f 44/89/73 45/91/75 96/94/78 95/90/74
f 50/64/53 69/95/79 66/96/80 51/65/54
f 52/97/57 78/98/81 10/99/55
f 51/65/54 66/96/80 53/100/58
f 62/101/82 54/71/59 15/102/8 63/103/83
f 15/102/8 17/104/15 64/105/84 63/103/83
f 64/105/84 17/106/15 83/107/85 84/108/86
f 55/74/62 54/71/59 62/101/82 65/109/87
f 56/110/67 62/101/82 63/103/83 19/111/18
f 63/103/83 64/105/84 21/112/21 19/111/18
f 21/112/21 64/105/84 84/108/86 85/113/88
f 65/109/87 62/101/82 56/110/67 57/114/68
f 17/115/15 23/116/89 82/117/90 83/118/85
f 27/119/91 11/120/92 78/98/81 79/121/93
f 25/122/94 29/123/95 80/124/96 81/125/97
f 29/123/95 27/119/91 79/121/93 80/124/96
f 40/126/45 56/127/67 19/128/18 18/129/17
f 50/130/53 76/131/98 69/132/79
f 66/96/80 70/133/99 13/134/6 53/100/58
f 71/135/100 67/37/35 37/38/36 12/136/5
f 72/137/101 68/34/32 67/37/35 71/135/100
f 69/132/79 76/131/98 77/138/102 73/139/103
f 70/133/99 8/140/4 13/134/6
f 7/3/3 71/135/100 12/136/5
f 6/141/2 72/137/101 71/135/100 7/3/3
f 73/139/103 77/138/102 5/142/1
f 70/133/99 73/143/103 5/144/1 8/140/4
f 74/145/104 34/146/33 68/147/32
f 75/148/105 74/145/104 68/147/32 72/149/101
f 6/150/2 75/148/105 72/149/101
f 50/130/53 34/146/33 74/145/104 76/131/98
f 77/138/102 76/131/98 74/145/104 75/148/105
f 5/142/1 77/138/102 75/148/105 6/150/2
f 43/92/76 42/84/70 98/87/71 97/93/77
f 24/61/28 22/52/22 89/55/48 90/62/51
f 22/23/22 24/30/28 107/33/31 106/24/23
f 23/116/89 25/122/94 81/125/97 82/117/90
f 86/151/47 20/152/19 103/153/20 102/154/106
f 27/155/91 109/29/27 110/28/26 11/156/92
f 29/157/95 108/32/30 109/29/27 27/155/91
f 25/158/94 107/33/31 108/32/30 29/157/95
f 23/159/89 106/24/23 107/33/31 25/158/94
f 105/25/13 106/24/23 23/159/89 17/160/15
f 104/14/14 105/13/13 17/161/15 4/16/16
f 103/20/20 104/14/14 4/16/16 21/21/21
f 85/162/88 102/154/106 103/153/20 21/163/21
f 48/75/63 100/77/65 101/83/69 57/81/68
f 55/74/62 99/78/66 100/77/65 48/75/63
f 58/164/107 98/87/71 99/86/66 55/165/62
f 97/93/77 98/87/71 58/164/107 59/166/108
f 96/94/78 97/93/77 59/166/108 61/167/109
f 60/168/110 95/90/74 96/94/78 61/167/109
f 52/68/57 94/67/56 95/90/74 60/168/110
f 10/169/55 9/56/25 93/59/50
f 10/170/55 110/28/26 9/27/25
f 54/71/59 53/100/58 13/134/6 15/102/8
f 12/136/5 37/38/36 38/39/37 14/7/7
f 60/171/110 79/121/93 78/98/81 52/97/57
f 61/172/109 80/124/96 79/121/93 60/171/110
f 59/173/108 81/125/97 80/124/96 61/172/109
f 58/174/107 82/117/90 81/125/97 59/173/108
f 83/118/85 82/117/90 58/174/107 55/175/62
f 84/108/86 83/107/85 55/74/62 65/109/87
f 85/113/88 84/108/86 65/109/87 57/114/68
f 57/176/68 101/177/69 102/154/106 85/162/88
f 32/43/41 87/45/43 86/51/47 41/49/46
f 39/42/40 88/46/44 87/45/43 32/43/41
f 42/178/70 89/55/48 88/54/44 39/179/40
f 90/62/51 89/55/48 42/178/70 43/180/76
f 91/63/52 90/62/51 43/180/76 45/181/75
f 44/182/73 92/58/49 91/63/52 45/181/75
f 36/183/72 93/59/50 92/58/49 44/182/73
f 86/151/47 102/154/106 101/177/69 41/184/46
f 10/99/55 78/98/81 11/120/92
f 10/170/55 11/156/92 110/28/26
f 10/169/55 93/59/50 36/183/72
f 10/66/55 36/88/72 94/67/56
f 66/185/80 69/186/79 73/187/103 70/188/99
s 2
f 111/189/111 112/190/112 114/191/113 113/192/114
f 115/193/115 116/194/116 118/195/117 117/196/118
f 114/197/113 112/198/112 118/199/117 116/200/116
f 115/201/115 117/202/118 111/203/111 113/204/114
s off
f 115/205/119 113/206/120 114/207/121 116/208/122
s 4
f 123/209/123 124/210/124 125/211/125 126/212/126
f 126/212/126 125/211/125 130/213/127 131/214/128
f 131/214/128 130/213/127 132/215/129 133/216/130
f 133/216/130 132/215/129 120/217/131 119/218/132
f 132/215/129 134/219/133 121/220/134 120/217/131
f 121/220/134 134/219/133 248/221/135 247/222/136
f 135/223/137 133/216/130 119/218/132 122/224/138
f 119/218/132 120/217/131 136/225/139 137/226/140
f 120/217/131 121/220/134 138/227/141 136/225/139
f 138/227/141 121/220/134 247/222/136 246/228/142
f 122/224/138 119/218/132 137/226/140 139/229/143
f 134/230/133 140/231/144 249/232/145 248/233/135
f 140/231/144 210/234/146 250/235/147 249/232/145
f 144/236/148 145/237/149 254/238/150 253/239/151
f 148/240/152 127/241/153 256/242/154 255/243/155
f 145/237/149 148/240/152 255/243/155 254/238/150
f 142/244/156 150/245/157 252/246/158 251/247/159
f 150/245/157 144/236/148 253/239/151 252/246/158
f 196/248/160 156/249/161 157/250/162 195/251/163
f 195/251/163 157/250/162 159/252/164 194/253/165
f 200/254/166 132/215/129 130/255/127
f 160/256/167 153/257/168 152/258/169 132/215/129
f 160/256/167 161/259/170 154/260/171 153/257/168
f 134/219/133 155/261/172 224/262/173 225/263/174
f 134/219/133 132/215/129 152/258/169 155/261/172
f 153/257/168 162/264/175 136/265/139 152/258/169
f 153/257/168 154/260/171 163/266/176 162/264/175
f 155/261/172 138/267/141 223/268/177 224/262/173
f 155/261/172 152/258/169 136/265/139 138/267/141
f 140/269/144 134/270/133 225/271/174 226/272/178
f 210/273/146 140/269/144 226/272/178 227/274/179
f 145/275/149 144/276/148 230/277/180 231/278/181
f 127/279/153 148/280/152 232/281/182 233/282/183
f 148/280/152 145/275/149 231/278/181 232/281/182
f 150/283/157 142/284/156 228/285/184 229/286/185
f 144/276/148 150/283/157 229/286/185 230/277/180
f 156/249/161 174/287/186 175/288/187 157/250/162
f 128/289/188 234/290/189 176/291/190
f 157/250/162 175/288/187 177/292/191 159/293/164
f 159/293/164 177/292/191 178/294/192 160/256/167
f 160/256/167 178/294/192 171/295/193 170/296/194
f 178/294/192 179/297/195 172/298/196 171/295/193
f 161/259/170 173/299/197 243/300/198 242/301/199
f 161/259/170 160/256/167 170/296/194 173/299/197
f 170/296/194 171/295/193 180/302/200 162/303/175
f 171/295/193 172/298/196 181/304/201 180/302/200
f 173/299/197 163/305/176 244/306/202 243/300/198
f 173/299/197 170/296/194 162/303/175 163/305/176
f 164/307/203 161/308/170 242/309/199 241/310/204
f 209/311/205 164/307/203 241/310/204 240/312/206
f 167/313/207 166/314/208 237/315/209 236/316/210
f 158/317/211 168/318/212 235/319/213 234/290/189
f 168/318/212 167/313/207 236/316/210 235/319/213
f 169/320/214 165/321/215 239/322/216 238/323/217
f 166/314/208 169/320/214 238/323/217 237/315/209
f 174/287/186 197/324/218 192/325/219 175/288/187
f 176/326/190 212/327/220 128/328/188
f 175/288/187 192/325/219 193/329/221 177/330/191
f 178/294/192 177/330/191 193/329/221
f 188/331/222 178/294/192 133/332/130 189/333/223
f 133/332/130 135/334/137 190/335/224 189/333/223
f 190/335/224 135/336/137 220/337/225 221/338/226
f 179/297/195 178/294/192 188/331/222 191/339/227
f 180/340/200 188/331/222 189/333/223 137/341/140
f 189/333/223 190/335/224 139/342/143 137/341/140
f 139/342/143 190/335/224 221/338/226 222/343/228
f 191/339/227 188/331/222 180/340/200 181/344/201
f 135/345/137 141/346/229 219/347/230 220/348/225
f 141/346/229 211/349/231 218/350/232 219/347/230
f 147/351/233 146/352/234 214/353/235 215/354/236
f 149/355/237 129/356/238 212/327/220 213/357/239
f 146/352/234 149/355/237 213/357/239 214/353/235
f 143/358/240 151/359/241 216/360/242 217/361/243
f 151/359/241 147/351/233 215/354/236 216/360/242
f 162/362/175 180/363/200 137/364/140 136/365/139
f 174/366/186 206/367/244 197/368/218
f 192/325/219 198/369/245 199/370/246 193/329/221
f 201/371/247 195/251/163 194/253/165 200/254/166
f 202/372/248 196/248/160 195/251/163 201/371/247
f 197/368/218 206/367/244 207/373/249 203/374/250
f 192/325/219 197/324/218 203/375/250 198/369/245
f 198/369/245 126/376/126 131/377/128 199/370/246
f 125/211/125 201/371/247 200/254/166 130/255/127
f 124/378/124 202/372/248 201/371/247 125/211/125
f 203/374/250 207/373/249 123/379/123
f 198/369/245 203/375/250 123/380/123 126/376/126
f 204/381/251 156/382/161 196/383/160
f 205/384/252 204/381/251 196/383/160 202/385/248
f 124/386/124 205/384/252 202/385/248
f 174/366/186 156/382/161 204/381/251 206/367/244
f 207/373/249 206/367/244 204/381/251 205/384/252
f 123/379/123 207/373/249 205/384/252 124/386/124
f 165/321/215 209/311/205 240/312/206 239/322/216
f 142/284/156 210/273/146 227/274/179 228/285/184
f 210/234/146 142/244/156 251/247/159 250/235/147
f 211/349/231 143/358/240 217/361/243 218/350/232
f 223/387/177 138/388/141 246/389/142 245/390/253
f 149/391/237 255/243/155 256/242/154 129/392/238
f 146/393/234 254/238/150 255/243/155 149/391/237
f 253/239/151 254/238/150 146/393/234 147/394/233
f 151/395/241 252/246/158 253/239/151 147/394/233
f 143/396/240 251/247/159 252/246/158 151/395/241
f 211/397/231 250/235/147 251/247/159 143/396/240
f 249/232/145 250/235/147 211/397/231 141/398/229
f 248/233/135 249/232/145 141/398/229 135/399/137
f 247/222/136 248/221/135 135/400/137 122/224/138
f 246/228/142 247/222/136 122/224/138 139/229/143
f 222/401/228 245/390/253 246/389/142 139/402/143
f 172/298/196 243/300/198 244/306/202 181/304/201
f 179/297/195 242/301/199 243/300/198 172/298/196
f 182/403/254 241/310/204 242/309/199 179/404/195
f 240/312/206 241/310/204 182/403/254 208/405/255
f 239/322/216 240/312/206 208/405/255 183/406/256
f 238/323/217 239/322/216 183/406/256 187/407/257
f 184/408/258 237/315/209 238/323/217 187/407/257
f 236/316/210 237/315/209 184/408/258 185/409/259
f 235/319/213 236/316/210 185/409/259 186/410/260
f 176/291/190 234/290/189 235/319/213 186/410/260
f 128/411/261 127/279/153 233/282/183
f 128/412/261 256/242/154 127/241/153
f 133/332/130 199/370/246 131/377/128
f 178/294/192 193/329/221 199/370/246 133/332/130
f 160/256/167 194/253/165 159/252/164
f 200/254/166 194/253/165 160/256/167 132/215/129
f 186/413/260 213/357/239 212/327/220 176/326/190
f 185/414/259 214/353/235 213/357/239 186/413/260
f 215/354/236 214/353/235 185/414/259 184/415/258
f 187/416/257 216/360/242 215/354/236 184/415/258
f 183/417/256 217/361/243 216/360/242 187/416/257
f 208/418/255 218/350/232 217/361/243 183/417/256
f 219/347/230 218/350/232 208/418/255 182/419/254
f 220/348/225 219/347/230 182/419/254 179/420/195
f 221/338/226 220/337/225 179/297/195 191/339/227
f 222/343/228 221/338/226 191/339/227 181/344/201
f 181/421/201 244/422/202 245/390/253 222/401/228
f 154/260/171 224/262/173 223/268/177 163/266/176
f 161/259/170 225/263/174 224/262/173 154/260/171
f 164/423/203 226/272/178 225/271/174 161/424/170
f 227/274/179 226/272/178 164/423/203 209/425/205
f 228/285/184 227/274/179 209/425/205 165/426/215
f 229/286/185 228/285/184 165/426/215 169/427/214
f 166/428/208 230/277/180 229/286/185 169/427/214
f 231/278/181 230/277/180 166/428/208 167/429/207
f 232/281/182 231/278/181 167/429/207 168/430/212
f 158/431/211 233/282/183 232/281/182 168/430/212
f 223/387/177 245/390/253 244/422/202 163/432/176
f 128/328/262 212/327/220 129/356/238
f 128/412/262 129/392/238 256/242/154
f 128/411/263 233/282/183 158/431/211
f 128/289/263 158/317/211 234/290/189
s 5
f 257/433/264 258/434/265 260/435/266 259/436/267
f 261/437/268 262/438/269 264/439/270 263/440/271
f 260/441/266 258/442/265 264/443/270 262/444/269
f 261/445/268 263/446/271 257/447/264 259/448/267
s off
f 261/449/272 259/450/273 260/451/274 262/452/275
s 7
f 265/453/276 266/454/277 268/455/278 267/456/279
f 269/457/280 270/458/281 272/459/282 271/460/283
f 268/461/278 266/462/277 272/463/282 270/464/281
f 269/465/280 271/466/283 265/467/276 267/468/279
s off
f 269/469/284 267/470/285 268/471/286 270/472/287
s 9
f 277/473/288 278/474/289 279/475/290 280/476/291
f 280/476/291 279/475/290 284/477/292 285/478/293
f 285/478/293 284/477/292 286/479/294 287/480/295
f 287/480/295 286/479/294 274/481/296 273/482/297
f 286/479/294 288/483/298 275/484/299 274/481/296
f 275/484/299 288/483/298 402/485/300 401/486/301
f 289/487/302 287/480/295 273/482/297 276/488/303
f 273/482/297 274/481/296 290/489/304 291/490/305
f 274/481/296 275/484/299 292/491/306 290/489/304
f 292/491/306 275/484/299 401/486/301 400/492/307
f 276/488/303 273/482/297 291/490/305 293/493/308
f 288/494/298 294/495/309 403/496/310 402/497/300
f 294/495/309 364/498/311 404/499/312 403/496/310
f 298/500/313 299/501/314 408/502/315 407/503/316
f 302/504/317 281/505/318 410/506/319 409/507/320
f 299/501/314 302/504/317 409/507/320 408/502/315
f 296/508/321 304/509/322 406/510/323 405/511/324
f 304/509/322 298/500/313 407/503/316 406/510/323
f 350/512/325 310/513/326 311/514/327 349/515/328
f 349/515/328 311/514/327 313/516/329 348/517/330
f 354/518/331 286/479/294 284/519/292
f 314/520/332 307/521/333 306/522/334 286/479/294
f 314/520/332 315/523/335 308/524/336 307/521/333
f 288/483/298 309/525/337 378/526/338 379/527/339
f 288/483/298 286/479/294 306/522/334 309/525/337
f 307/521/333 316/528/340 290/529/304 306/522/334
f 307/521/333 308/524/336 317/530/341 316/528/340
f 309/525/337 292/531/306 377/532/342 378/526/338
f 309/525/337 306/522/334 290/529/304 292/531/306
f 294/533/309 288/534/298 379/535/339 380/536/343
f 364/537/311 294/533/309 380/536/343 381/538/344
f 299/539/314 298/540/313 384/541/345 385/542/346
f 281/543/318 302/544/317 386/545/347 387/546/348
f 302/544/317 299/539/314 385/542/346 386/545/347
f 304/547/322 296/548/321 382/549/349 383/550/350
f 298/540/313 304/547/322 383/550/350 384/541/345
f 310/513/326 328/551/351 329/552/352 311/514/327
f 282/553/353 388/554/354 330/555/355
f 311/514/327 329/552/352 331/556/356 313/557/329
f 313/557/329 331/556/356 332/558/357 314/520/332
f 314/520/332 332/558/357 325/559/358 324/560/359
f 332/558/357 333/561/360 326/562/361 325/559/358
f 315/523/335 327/563/362 397/564/363 396/565/364
f 315/523/335 314/520/332 324/560/359 327/563/362
f 324/560/359 325/559/358 334/566/365 316/567/340
f 325/559/358 326/562/361 335/568/366 334/566/365
f 327/563/362 317/569/341 398/570/367 397/564/363
f 327/563/362 324/560/359 316/567/340 317/569/341
f 318/571/368 315/572/335 396/573/364 395/574/369
f 363/575/370 318/571/368 395/574/369 394/576/371
f 321/577/372 320/578/373 391/579/374 390/580/375
f 312/581/376 322/582/377 389/583/378 388/554/354
f 322/582/377 321/577/372 390/580/375 389/583/378
f 323/584/379 319/585/380 393/586/381 392/587/382
f 320/578/373 323/584/379 392/587/382 391/579/374
f 328/551/351 351/588/383 346/589/384 329/552/352
f 330/590/355 366/591/385 282/592/353
f 329/552/352 346/589/384 347/593/386 331/594/356
f 332/558/357 331/594/356 347/593/386
f 342/595/387 332/558/357 287/596/295 343/597/388
f 287/596/295 289/598/302 344/599/389 343/597/388
f 344/599/389 289/600/302 374/601/390 375/602/391
f 333/561/360 332/558/357 342/595/387 345/603/392
f 334/604/365 342/595/387 343/597/388 291/605/305
f 343/597/388 344/599/389 293/606/308 291/605/305
f 293/606/308 344/599/389 375/602/391 376/607/393
f 345/603/392 342/595/387 334/604/365 335/608/366
f 289/609/302 295/610/394 373/611/395 374/612/390
f 295/610/394 365/613/396 372/614/397 373/611/395
f 301/615/398 300/616/399 368/617/400 369/618/401
f 303/619/402 283/620/403 366/591/385 367/621/404
f 300/616/399 303/619/402 367/621/404 368/617/400
f 297/622/405 305/623/406 370/624/407 371/625/408
f 305/623/406 301/615/398 369/618/401 370/624/407
f 316/626/340 334/627/365 291/628/305 290/629/304
f 328/630/351 360/631/409 351/632/383
f 346/589/384 352/633/410 353/634/411 347/593/386
f 355/635/412 349/515/328 348/517/330 354/518/331
f 356/636/413 350/512/325 349/515/328 355/635/412
f 351/632/383 360/631/409 361/637/414 357/638/415
f 346/589/384 351/588/383 357/639/415 352/633/410
f 352/633/410 280/640/291 285/641/293 353/634/411
f 279/475/290 355/635/412 354/518/331 284/519/292
f 278/642/289 356/636/413 355/635/412 279/475/290
f 357/638/415 361/637/414 277/643/288
f 352/633/410 357/639/415 277/644/288 280/640/291
f 358/645/416 310/646/326 350/647/325
f 359/648/417 358/645/416 350/647/325 356/649/413
f 278/650/289 359/648/417 356/649/413
f 328/630/351 310/646/326 358/645/416 360/631/409
f 361/637/414 360/631/409 358/645/416 359/648/417
f 277/643/288 361/637/414 359/648/417 278/650/289
f 319/585/380 363/575/370 394/576/371 393/586/381
f 296/548/321 364/537/311 381/538/344 382/549/349
f 364/498/311 296/508/321 405/511/324 404/499/312
f 365/613/396 297/622/405 371/625/408 372/614/397
f 377/651/342 292/652/306 400/653/307 399/654/418
f 303/655/402 409/507/320 410/506/319 283/656/403
f 300/657/399 408/502/315 409/507/320 303/655/402
f 407/503/316 408/502/315 300/657/399 301/658/398
f 305/659/406 406/510/323 407/503/316 301/658/398
f 297/660/405 405/511/324 406/510/323 305/659/406
f 365/661/396 404/499/312 405/511/324 297/660/405
f 403/496/310 404/499/312 365/661/396 295/662/394
f 402/497/300 403/496/310 295/662/394 289/663/302
f 401/486/301 402/485/300 289/664/302 276/488/303
f 400/492/307 401/486/301 276/488/303 293/493/308
f 376/665/393 399/654/418 400/653/307 293/666/308
f 326/562/361 397/564/363 398/570/367 335/568/366
f 333/561/360 396/565/364 397/564/363 326/562/361
f 336/667/419 395/574/369 396/573/364 333/668/360
f 394/576/371 395/574/369 336/667/419 362/669/420
f 393/586/381 394/576/371 362/669/420 337/670/421
f 392/587/382 393/586/381 337/670/421 341/671/422
f 338/672/423 391/579/374 392/587/382 341/671/422
f 390/580/375 391/579/374 338/672/423 339/673/424
f 389/583/378 390/580/375 339/673/424 340/674/425
f 330/555/355 388/554/354 389/583/378 340/674/425
f 282/675/426 281/543/318 387/546/348
f 282/676/426 410/506/319 281/505/318
f 287/596/295 353/634/411 285/641/293
f 332/558/357 347/593/386 353/634/411 287/596/295
f 314/520/332 348/517/330 313/516/329
f 354/518/331 348/517/330 314/520/332 286/479/294
f 340/677/425 367/621/404 366/591/385 330/590/355
f 339/678/424 368/617/400 367/621/404 340/677/425
f 369/618/401 368/617/400 339/678/424 338/679/423
f 341/680/422 370/624/407 369/618/401 338/679/423
f 337/681/421 371/625/408 370/624/407 341/680/422
f 362/682/420 372/614/397 371/625/408 337/681/421
f 373/611/395 372/614/397 362/682/420 336/683/419
f 374/612/390 373/611/395 336/683/419 333/684/360
f 375/602/391 374/601/390 333/561/360 345/603/392
f 376/607/393 375/602/391 345/603/392 335/608/366
f 335/685/366 398/686/367 399/654/418 376/665/393
f 308/524/336 378/526/338 377/532/342 317/530/341
f 315/523/335 379/527/339 378/526/338 308/524/336
f 318/687/368 380/536/343 379/535/339 315/688/335
f 381/538/344 380/536/343 318/687/368 363/689/370
f 382/549/349 381/538/344 363/689/370 319/690/380
f 383/550/350 382/549/349 319/690/380 323/691/379
f 320/692/373 384/541/345 383/550/350 323/691/379
f 385/542/346 384/541/345 320/692/373 321/693/372
f 386/545/347 385/542/346 321/693/372 322/694/377
f 312/695/376 387/546/348 386/545/347 322/694/377
f 377/651/342 399/654/418 398/686/367 317/696/341
f 282/592/427 366/591/385 283/620/403
f 282/676/427 283/656/403 410/506/319
f 282/675/428 387/546/348 312/695/376
f 282/553/428 312/581/376 388/554/354
s 10
f 411/697/429 412/698/430 414/699/431 413/700/432
f 415/701/433 416/702/434 418/703/435 417/704/436
f 414/705/431 412/706/430 418/707/435 416/708/434
f 415/709/433 417/710/436 411/711/429 413/712/432
s off
f 415/713/437 413/714/438 414/715/439 416/716/440
