# This file uses centimeters as units for non-parametric coordinates.

g default
v -66.099121 0.025963 1.150990
v -65.797134 0.025963 1.150990
v -66.049088 0.688702 1.100954
v -65.847183 0.688702 1.100954
v -66.049088 0.688702 0.899046
v -65.847183 0.688702 0.899046
v -66.099121 0.025963 0.849010
v -65.797134 0.025963 0.849010
v -66.098892 0.928976 1.150758
v -65.797379 0.928976 1.150758
v -65.797379 0.928976 0.849242
v -66.098892 0.928976 0.849242
v -65.948135 1.046588 1.000000
v -72.363281 0.025963 1.150990
v -72.061295 0.025963 1.150990
v -72.313248 0.688702 1.100954
v -72.111343 0.688702 1.100954
v -72.313248 0.688702 0.899046
v -72.111343 0.688702 0.899046
v -72.363281 0.025963 0.849010
v -72.061295 0.025963 0.849010
v -72.363052 0.928976 1.150758
v -72.061539 0.928976 1.150758
v -72.061539 0.928976 0.849242
v -72.363052 0.928976 0.849242
v -72.212296 1.046588 1.000000
v -70.297607 0.025963 1.150990
v -69.995621 0.025963 1.150990
v -70.247574 0.688702 1.100954
v -70.045670 0.688702 1.100954
v -70.247574 0.688702 0.899046
v -70.045670 0.688702 0.899046
v -70.297607 0.025963 0.849010
v -69.995621 0.025963 0.849010
v -70.297379 0.928976 1.150758
v -69.995865 0.928976 1.150758
v -69.995865 0.928976 0.849242
v -70.297379 0.928976 0.849242
v -70.146622 1.046588 1.000000
v -68.194046 0.025963 1.150990
v -67.892059 0.025963 1.150990
v -68.144012 0.688702 1.100954
v -67.942108 0.688702 1.100954
v -68.144012 0.688702 0.899046
v -67.942108 0.688702 0.899046
v -68.194046 0.025963 0.849010
v -67.892059 0.025963 0.849010
v -68.193817 0.928976 1.150758
v -67.892303 0.928976 1.150758
v -67.892303 0.928976 0.849242
v -68.193817 0.928976 0.849242
v -68.043060 1.046588 1.000000
v -74.262665 0.322857 1.039257
v -65.995087 0.322857 1.039257
v -74.262665 0.612417 1.073019
v -65.995087 0.612417 1.073019
v -74.262665 0.612417 0.944432
v -65.995087 0.612417 0.944432
v -74.262665 0.322857 0.978194
v -65.995087 0.322857 0.978194
v -74.440430 0.025963 1.150990
v -74.138443 0.025963 1.150990
v -74.390396 0.688702 1.100954
v -74.188492 0.688702 1.100954
v -74.390396 0.688702 0.899046
v -74.188492 0.688702 0.899046
v -74.440430 0.025963 0.849010
v -74.138443 0.025963 0.849010
v -74.440201 0.928976 1.150758
v -74.138687 0.928976 1.150758
v -74.138687 0.928976 0.849242
v -74.440201 0.928976 0.849242
v -74.289444 1.046588 1.000000
vt 0.375000 0.000000
vt 0.625000 0.000000
vt 0.625000 0.250000
vt 0.375000 0.250000
vt 0.375000 0.500000
vt 0.500000 0.375000
vt 0.625000 0.500000
vt 0.375000 0.500000
vt 0.625000 0.500000
vt 0.625000 0.750000
vt 0.375000 0.750000
vt 0.625000 1.000000
vt 0.375000 1.000000
vt 0.875000 0.000000
vt 0.875000 0.250000
vt 0.125000 0.000000
vt 0.125000 0.250000
vt 0.625000 0.250000
vt 0.375000 0.250000
vt 0.375000 0.000000
vt 0.625000 0.000000
vt 0.625000 0.250000
vt 0.375000 0.250000
vt 0.375000 0.500000
vt 0.500000 0.375000
vt 0.625000 0.500000
vt 0.375000 0.500000
vt 0.625000 0.500000
vt 0.625000 0.750000
vt 0.375000 0.750000
vt 0.625000 1.000000
vt 0.375000 1.000000
vt 0.875000 0.000000
vt 0.875000 0.250000
vt 0.125000 0.000000
vt 0.125000 0.250000
vt 0.625000 0.250000
vt 0.375000 0.250000
vt 0.375000 0.000000
vt 0.625000 0.000000
vt 0.625000 0.250000
vt 0.375000 0.250000
vt 0.375000 0.500000
vt 0.500000 0.375000
vt 0.625000 0.500000
vt 0.375000 0.500000
vt 0.625000 0.500000
vt 0.625000 0.750000
vt 0.375000 0.750000
vt 0.625000 1.000000
vt 0.375000 1.000000
vt 0.875000 0.000000
vt 0.875000 0.250000
vt 0.125000 0.000000
vt 0.125000 0.250000
vt 0.625000 0.250000
vt 0.375000 0.250000
vt 0.375000 0.000000
vt 0.625000 0.000000
vt 0.625000 0.250000
vt 0.375000 0.250000
vt 0.375000 0.500000
vt 0.500000 0.375000
vt 0.625000 0.500000
vt 0.375000 0.500000
vt 0.625000 0.500000
vt 0.625000 0.750000
vt 0.375000 0.750000
vt 0.625000 1.000000
vt 0.375000 1.000000
vt 0.875000 0.000000
vt 0.875000 0.250000
vt 0.125000 0.000000
vt 0.125000 0.250000
vt 0.625000 0.250000
vt 0.375000 0.250000
vt 0.375000 0.000000
vt 0.625000 0.000000
vt 0.625000 0.250000
vt 0.375000 0.250000
vt 0.625000 0.500000
vt 0.375000 0.500000
vt 0.625000 0.750000
vt 0.375000 0.750000
vt 0.625000 1.000000
vt 0.375000 1.000000
vt 0.875000 0.000000
vt 0.875000 0.250000
vt 0.125000 0.000000
vt 0.125000 0.250000
vt 0.375000 0.000000
vt 0.625000 0.000000
vt 0.625000 0.250000
vt 0.375000 0.250000
vt 0.375000 0.500000
vt 0.500000 0.375000
vt 0.625000 0.500000
vt 0.375000 0.500000
vt 0.625000 0.500000
vt 0.625000 0.750000
vt 0.375000 0.750000
vt 0.625000 1.000000
vt 0.375000 1.000000
vt 0.875000 0.000000
vt 0.875000 0.250000
vt 0.125000 0.000000
vt 0.125000 0.250000
vt 0.625000 0.250000
vt 0.375000 0.250000
vn 0.000000 0.075285 0.997162
vn 0.000000 0.075285 0.997162
vn 0.000000 -0.064469 0.997920
vn 0.000000 -0.064469 0.997920
vn 0.000000 0.788453 -0.615095
vn 0.000000 0.788453 -0.615095
vn 0.000000 0.788453 -0.615095
vn 0.000000 -0.064469 -0.997920
vn 0.000000 -0.064469 -0.997920
vn 0.000000 0.075285 -0.997162
vn 0.000000 0.075285 -0.997162
vn 0.000000 -1.000000 0.000000
vn 0.000000 -1.000000 0.000000
vn 0.000000 -1.000000 0.000000
vn 0.000000 -1.000000 0.000000
vn 0.997161 0.075296 0.000000
vn 0.997161 0.075296 0.000000
vn 0.997919 -0.064478 0.000000
vn 0.997919 -0.064478 0.000000
vn -0.997163 0.075278 0.000000
vn -0.997163 0.075278 0.000000
vn -0.997920 -0.064464 0.000000
vn -0.997920 -0.064464 0.000000
vn 0.000000 -0.202964 0.979186
vn 0.000000 -0.202964 0.979186
vn 0.979180 -0.202992 0.000000
vn 0.979180 -0.202992 0.000000
vn 0.000000 -0.202964 -0.979186
vn 0.000000 -0.202964 -0.979186
vn -0.979190 -0.202947 0.000000
vn -0.979190 -0.202947 0.000000
vn -0.615098 0.788451 0.000000
vn -0.615098 0.788451 0.000000
vn -0.615098 0.788451 0.000000
vn 0.000000 0.788453 0.615095
vn 0.000000 0.788453 0.615095
vn 0.000000 0.788453 0.615095
vn 0.615098 0.788451 0.000000
vn 0.615098 0.788451 0.000000
vn 0.615098 0.788451 0.000000
vn 0.000000 0.075285 0.997162
vn 0.000000 0.075285 0.997162
vn 0.000000 -0.064469 0.997920
vn 0.000000 -0.064469 0.997920
vn 0.000000 0.788453 -0.615095
vn 0.000000 0.788453 -0.615095
vn 0.000000 0.788453 -0.615095
vn 0.000000 -0.064469 -0.997920
vn 0.000000 -0.064469 -0.997920
vn 0.000000 0.075285 -0.997162
vn 0.000000 0.075285 -0.997162
vn 0.000000 -1.000000 0.000000
vn 0.000000 -1.000000 0.000000
vn 0.000000 -1.000000 0.000000
vn 0.000000 -1.000000 0.000000
vn 0.997160 0.075315 0.000000
vn 0.997160 0.075315 0.000000
vn 0.997920 -0.064463 0.000000
vn 0.997920 -0.064463 0.000000
vn -0.997163 0.075271 0.000000
vn -0.997163 0.075271 0.000000
vn -0.997919 -0.064473 0.000000
vn -0.997919 -0.064473 0.000000
vn 0.000000 -0.202964 0.979186
vn 0.000000 -0.202964 0.979186
vn 0.979183 -0.202981 0.000000
vn 0.979183 -0.202981 0.000000
vn 0.000000 -0.202964 -0.979186
vn 0.000000 -0.202964 -0.979186
vn -0.979187 -0.202959 0.000000
vn -0.979187 -0.202959 0.000000
vn -0.615098 0.788451 0.000000
vn -0.615098 0.788451 0.000000
vn -0.615098 0.788451 0.000000
vn 0.000000 0.788453 0.615095
vn 0.000000 0.788453 0.615095
vn 0.000000 0.788453 0.615095
vn 0.615098 0.788451 0.000000
vn 0.615098 0.788451 0.000000
vn 0.615098 0.788451 0.000000
vn 0.000000 0.075285 0.997162
vn 0.000000 0.075285 0.997162
vn 0.000000 -0.064469 0.997920
vn 0.000000 -0.064469 0.997920
vn 0.000000 0.788453 -0.615095
vn 0.000000 0.788453 -0.615095
vn 0.000000 0.788453 -0.615095
vn 0.000000 -0.064469 -0.997920
vn 0.000000 -0.064469 -0.997920
vn 0.000000 0.075285 -0.997162
vn 0.000000 0.075285 -0.997162
vn 0.000000 -1.000000 0.000000
vn 0.000000 -1.000000 0.000000
vn 0.000000 -1.000000 0.000000
vn 0.000000 -1.000000 0.000000
vn 0.997160 0.075308 0.000000
vn 0.997160 0.075308 0.000000
vn 0.997920 -0.064468 0.000000
vn 0.997920 -0.064468 0.000000
vn -0.997162 0.075284 0.000000
vn -0.997162 0.075284 0.000000
vn -0.997919 -0.064480 0.000000
vn -0.997919 -0.064480 0.000000
vn 0.000000 -0.202964 0.979186
vn 0.000000 -0.202964 0.979186
vn 0.979182 -0.202984 0.000000
vn 0.979182 -0.202984 0.000000
vn 0.000000 -0.202964 -0.979186
vn 0.000000 -0.202964 -0.979186
vn -0.979182 -0.202984 0.000000
vn -0.979182 -0.202984 0.000000
vn -0.615098 0.788451 0.000000
vn -0.615098 0.788451 0.000000
vn -0.615098 0.788451 0.000000
vn 0.000000 0.788453 0.615095
vn 0.000000 0.788453 0.615095
vn 0.000000 0.788453 0.615095
vn 0.615098 0.788451 0.000000
vn 0.615098 0.788451 0.000000
vn 0.615098 0.788451 0.000000
vn 0.000000 0.075285 0.997162
vn 0.000000 0.075285 0.997162
vn 0.000000 -0.064469 0.997920
vn 0.000000 -0.064469 0.997920
vn 0.000000 0.788453 -0.615095
vn 0.000000 0.788453 -0.615095
vn 0.000000 0.788453 -0.615095
vn 0.000000 -0.064469 -0.997920
vn 0.000000 -0.064469 -0.997920
vn 0.000000 0.075285 -0.997162
vn 0.000000 0.075285 -0.997162
vn 0.000000 -1.000000 0.000000
vn 0.000000 -1.000000 0.000000
vn 0.000000 -1.000000 0.000000
vn 0.000000 -1.000000 0.000000
vn 0.997161 0.075302 0.000000
vn 0.997161 0.075302 0.000000
vn 0.997920 -0.064469 0.000000
vn 0.997920 -0.064469 0.000000
vn -0.997163 0.075272 0.000000
vn -0.997163 0.075272 0.000000
vn -0.997920 -0.064473 0.000000
vn -0.997920 -0.064473 0.000000
vn 0.000000 -0.202964 0.979186
vn 0.000000 -0.202964 0.979186
vn 0.979183 -0.202981 0.000000
vn 0.979183 -0.202981 0.000000
vn 0.000000 -0.202964 -0.979186
vn 0.000000 -0.202964 -0.979186
vn -0.979187 -0.202959 0.000000
vn -0.979187 -0.202959 0.000000
vn -0.615098 0.788451 0.000000
vn -0.615098 0.788451 0.000000
vn -0.615098 0.788451 0.000000
vn 0.000000 0.788453 0.615095
vn 0.000000 0.788453 0.615095
vn 0.000000 0.788453 0.615095
vn 0.615098 0.788451 0.000000
vn 0.615098 0.788451 0.000000
vn 0.615098 0.788451 0.000000
vn 0.000000 -0.115812 0.993271
vn 0.000000 -0.115812 0.993271
vn 0.000000 -0.115812 0.993271
vn 0.000000 -0.115812 0.993271
vn 0.000000 1.000000 0.000000
vn 0.000000 1.000000 0.000000
vn 0.000000 1.000000 0.000000
vn 0.000000 1.000000 0.000000
vn 0.000000 -0.115812 -0.993271
vn 0.000000 -0.115812 -0.993271
vn 0.000000 -0.115812 -0.993271
vn 0.000000 -0.115812 -0.993271
vn 0.000000 -1.000000 0.000000
vn 0.000000 -1.000000 0.000000
vn 0.000000 -1.000000 0.000000
vn 0.000000 -1.000000 0.000000
vn 1.000000 0.000017 0.000000
vn 1.000000 0.000017 0.000000
vn 1.000000 0.000017 0.000000
vn 1.000000 0.000017 0.000000
vn -1.000000 -0.000009 0.000000
vn -1.000000 -0.000009 0.000000
vn -1.000000 -0.000009 0.000000
vn -1.000000 -0.000009 0.000000
vn 0.000000 0.075285 0.997162
vn 0.000000 0.075285 0.997162
vn 0.000000 -0.064469 0.997920
vn 0.000000 -0.064469 0.997920
vn 0.000000 0.788441 -0.615111
vn 0.000000 0.788441 -0.615111
vn 0.000000 0.788441 -0.615111
vn 0.000000 -0.064469 -0.997920
vn 0.000000 -0.064469 -0.997920
vn 0.000000 0.075285 -0.997162
vn 0.000000 0.075285 -0.997162
vn 0.000000 -1.000000 0.000000
vn 0.000000 -1.000000 0.000000
vn 0.000000 -1.000000 0.000000
vn 0.000000 -1.000000 0.000000
vn 0.997160 0.075309 0.000000
vn 0.997160 0.075309 0.000000
vn 0.997920 -0.064458 0.000000
vn 0.997920 -0.064458 0.000000
vn -0.997162 0.075282 0.000000
vn -0.997162 0.075282 0.000000
vn -0.997920 -0.064460 0.000000
vn -0.997920 -0.064460 0.000000
vn 0.000000 -0.202964 0.979186
vn 0.000000 -0.202964 0.979186
vn 0.979186 -0.202966 0.000000
vn 0.979186 -0.202966 0.000000
vn 0.000000 -0.202964 -0.979186
vn 0.000000 -0.202964 -0.979186
vn -0.979190 -0.202944 0.000000
vn -0.979190 -0.202944 0.000000
vn -0.615098 0.788451 0.000000
vn -0.615098 0.788451 0.000000
vn -0.615098 0.788451 0.000000
vn 0.000000 0.788441 0.615111
vn 0.000000 0.788441 0.615111
vn 0.000000 0.788441 0.615111
vn 0.615098 0.788451 0.000000
vn 0.615098 0.788451 0.000000
vn 0.615098 0.788451 0.000000
s 1
g polySurface19697
f 1/1/1 2/2/2 4/3/3 3/4/4
s off
f 12/5/5 13/6/6 11/7/7
s 3
f 5/8/8 6/9/9 8/10/10 7/11/11
s off
f 7/11/12 8/10/13 2/12/14 1/13/15
s 5
f 2/2/16 8/14/17 6/15/18 4/3/19
s 6
f 7/16/20 1/1/21 3/4/22 5/17/23
s 1
f 3/4/4 4/3/3 10/18/24 9/19/25
s 5
f 4/3/19 6/9/18 11/7/26 10/18/27
s 3
f 6/9/9 5/8/8 12/5/28 11/7/29
s 6
f 5/8/23 3/4/22 9/19/30 12/5/31
s off
f 9/19/32 13/6/33 12/5/34
f 9/19/35 10/18/36 13/6/37
f 11/7/38 13/6/39 10/18/40
s 10
f 14/20/41 15/21/42 17/22/43 16/23/44
s off
f 25/24/45 26/25/46 24/26/47
s 12
f 18/27/48 19/28/49 21/29/50 20/30/51
s off
f 20/30/52 21/29/53 15/31/54 14/32/55
s 14
f 15/21/56 21/33/57 19/34/58 17/22/59
s 15
f 20/35/60 14/20/61 16/23/62 18/36/63
s 10
f 16/23/44 17/22/43 23/37/64 22/38/65
s 14
f 17/22/59 19/28/58 24/26/66 23/37/67
s 12
f 19/28/49 18/27/48 25/24/68 24/26/69
s 15
f 18/27/63 16/23/62 22/38/70 25/24/71
s off
f 22/38/72 26/25/73 25/24/74
f 22/38/75 23/37/76 26/25/77
f 24/26/78 26/25/79 23/37/80
s 19
f 27/39/81 28/40/82 30/41/83 29/42/84
s off
f 38/43/85 39/44/86 37/45/87
s 21
f 31/46/88 32/47/89 34/48/90 33/49/91
s off
f 33/49/92 34/48/93 28/50/94 27/51/95
s 23
f 28/40/96 34/52/97 32/53/98 30/41/99
s 24
f 33/54/100 27/39/101 29/42/102 31/55/103
s 19
f 29/42/84 30/41/83 36/56/104 35/57/105
s 23
f 30/41/99 32/47/98 37/45/106 36/56/107
s 21
f 32/47/89 31/46/88 38/43/108 37/45/109
s 24
f 31/46/103 29/42/102 35/57/110 38/43/111
s off
f 35/57/112 39/44/113 38/43/114
f 35/57/115 36/56/116 39/44/117
f 37/45/118 39/44/119 36/56/120
s 28
f 40/58/121 41/59/122 43/60/123 42/61/124
s off
f 51/62/125 52/63/126 50/64/127
s 30
f 44/65/128 45/66/129 47/67/130 46/68/131
s off
f 46/68/132 47/67/133 41/69/134 40/70/135
s 32
f 41/59/136 47/71/137 45/72/138 43/60/139
s 33
f 46/73/140 40/58/141 42/61/142 44/74/143
s 28
f 42/61/124 43/60/123 49/75/144 48/76/145
s 32
f 43/60/139 45/66/138 50/64/146 49/75/147
s 30
f 45/66/129 44/65/128 51/62/148 50/64/149
s 33
f 44/65/143 42/61/142 48/76/150 51/62/151
s off
f 48/76/152 52/63/153 51/62/154
f 48/76/155 49/75/156 52/63/157
f 50/64/158 52/63/159 49/75/160
f 53/77/161 54/78/162 56/79/163 55/80/164
f 55/80/165 56/79/166 58/81/167 57/82/168
f 57/82/169 58/81/170 60/83/171 59/84/172
f 59/84/173 60/83/174 54/85/175 53/86/176
f 54/78/177 60/87/178 58/88/179 56/79/180
f 59/89/181 53/77/182 55/80/183 57/90/184
s 43
f 61/91/185 62/92/186 64/93/187 63/94/188
s off
f 72/95/189 73/96/190 71/97/191
s 45
f 65/98/192 66/99/193 68/100/194 67/101/195
s off
f 67/101/196 68/100/197 62/102/198 61/103/199
s 47
f 62/92/200 68/104/201 66/105/202 64/93/203
s 48
f 67/106/204 61/91/205 63/94/206 65/107/207
s 43
f 63/94/188 64/93/187 70/108/208 69/109/209
s 47
f 64/93/203 66/99/202 71/97/210 70/108/211
s 45
f 66/99/193 65/98/192 72/95/212 71/97/213
s 48
f 65/98/207 63/94/206 69/109/214 72/95/215
s off
f 69/109/216 73/96/217 72/95/218
f 69/109/219 70/108/220 73/96/221
f 71/97/222 73/96/223 70/108/224
