# Blender v2.92.0 OBJ File: 'OGConvert.blend'
# www.blender.org
o lightPostModern
v 0.080000 6.045242 -0.320000
v 0.080000 6.205242 -0.320000
v 0.080000 6.205242 -0.080000
v 0.080000 6.045242 -0.080000
v 0.080000 1.520000 -0.080000
v 0.080000 1.520000 0.080000
v 0.080000 6.203873 -0.059116
v 0.080000 6.199790 -0.038589
v 0.080000 6.193062 -0.018770
v 0.080000 6.183805 0.000000
v 0.080000 6.172178 0.017402
v 0.080000 6.158379 0.033138
v 0.080000 6.142643 0.046937
v 0.080000 6.125242 0.058564
v 0.080000 6.106471 0.067821
v 0.080000 6.086653 0.074549
v 0.080000 6.066125 0.078632
v 0.080000 6.045242 0.080000
v -0.140800 0.880000 0.140800
v 0.140800 0.880000 0.140800
v -0.080000 1.520000 0.080000
v 0.140800 0.880000 -0.140800
v -0.140800 0.880000 -0.140800
v -0.080000 1.520000 -0.080000
v 0.140800 0.000000 -0.140800
v 0.140800 -0.000000 0.140800
v -0.140800 -0.000000 0.140800
v -0.140800 0.000000 -0.140800
v -0.080000 6.045242 -0.080000
v -0.080000 6.205242 -0.080000
v -0.080000 6.203873 -0.059116
v -0.080000 6.199790 -0.038589
v -0.080000 6.193062 -0.018770
v -0.080000 6.183805 0.000000
v -0.080000 6.172178 0.017402
v -0.080000 6.158379 0.033138
v -0.080000 6.142643 0.046937
v -0.080000 6.125242 0.058564
v -0.080000 6.106471 0.067821
v -0.080000 6.086653 0.074549
v -0.080000 6.066125 0.078632
v -0.080000 6.045242 0.080000
v -0.080000 6.205242 -0.320000
v -0.080000 6.045242 -0.320000
v -0.125107 6.000135 -0.320000
v 0.125107 6.000135 -0.320000
v 0.125107 6.250348 -0.320000
v -0.125107 6.250348 -0.320000
v 0.125107 6.250348 -0.480000
v -0.125107 6.250348 -0.480000
v 0.125107 6.000135 -0.480000
v -0.125107 6.000135 -0.480000
v 0.196417 6.250348 -0.719999
v 0.196417 6.250348 -1.174636
v 0.098209 6.250348 -1.280000
v -0.098209 6.250348 -1.280000
v -0.196417 6.250348 -1.174636
v -0.196417 6.250348 -0.719999
v 0.196417 6.000135 -0.719999
v 0.196417 6.000135 -1.174636
v 0.098209 6.000135 -1.280000
v -0.098209 6.000135 -1.280000
v -0.196417 6.000135 -1.174636
v -0.196417 6.000135 -0.719999
vt 0.068482 0.027113
vt 0.068778 0.001426
vt 0.107299 0.001876
vt 0.107004 0.027563
vt 0.098650 0.754062
vt 0.124331 0.754362
vt 0.110649 0.002135
vt 0.113936 0.002829
vt 0.117104 0.003946
vt 0.120100 0.005467
vt 0.122872 0.007366
vt 0.125372 0.009611
vt 0.127558 0.012163
vt 0.129392 0.014979
vt 0.130843 0.018010
vt 0.131886 0.021204
vt 0.132504 0.024507
vt 0.132685 0.027862
vt 0.180750 0.846200
vt 0.135537 0.846200
vt 0.145299 0.742983
vt 0.170988 0.742983
vt 0.183603 0.142678
vt 0.228816 0.142678
vt 0.219054 0.245639
vt 0.193365 0.245639
vt 0.132685 0.857295
vt 0.087486 0.856768
vt 0.031587 0.245935
vt 0.020430 0.143232
vt 0.065630 0.142705
vt 0.057269 0.245636
vt 0.085862 0.998046
vt 0.131060 0.998574
vt 0.180750 0.986742
vt 0.135537 0.986742
vt 0.018805 0.001954
vt 0.064004 0.001426
vt 0.183603 0.001426
vt 0.228816 0.001426
vt 0.039948 0.972436
vt 0.040244 0.998123
vt 0.043594 0.997865
vt 0.046881 0.997171
vt 0.050049 0.996053
vt 0.053045 0.994532
vt 0.055817 0.992633
vt 0.058317 0.990388
vt 0.060503 0.987836
vt 0.062337 0.985020
vt 0.063788 0.981990
vt 0.064831 0.978795
vt 0.065449 0.975492
vt 0.065630 0.972137
vt 0.001722 0.998573
vt 0.001426 0.972886
vt 0.145299 0.020269
vt 0.170988 0.020269
vt 0.219054 0.972003
vt 0.193365 0.972003
vt 0.340730 0.196443
vt 0.340730 0.158415
vt 0.366420 0.158415
vt 0.366420 0.196443
vt 0.340730 0.199788
vt 0.366420 0.199788
vt 0.340730 0.203146
vt 0.366420 0.203146
vt 0.340730 0.206461
vt 0.366420 0.206461
vt 0.340730 0.209675
vt 0.366420 0.209675
vt 0.340730 0.212734
vt 0.366420 0.212734
vt 0.340730 0.215585
vt 0.366420 0.215585
vt 0.170988 0.004167
vt 0.145299 0.004167
vt 0.145299 0.001426
vt 0.170988 0.001426
vt 0.170988 0.007138
vt 0.145299 0.007138
vt 0.170988 0.010289
vt 0.145299 0.010289
vt 0.170988 0.013565
vt 0.145299 0.013565
vt 0.170988 0.016911
vt 0.145299 0.016911
vt 0.238872 0.320623
vt 0.231668 0.353555
vt 0.231668 0.313381
vt 0.271629 0.313381
vt 0.264425 0.320623
vt 0.264425 0.346312
vt 0.238872 0.346312
vt 0.271629 0.353555
vt 0.243118 0.310528
vt 0.243118 0.285176
vt 0.283292 0.285176
vt 0.283292 0.310528
vt 0.297704 0.129757
vt 0.337877 0.129741
vt 0.337883 0.155424
vt 0.297710 0.155439
vt 0.243118 0.027116
vt 0.243118 0.001426
vt 0.283292 0.001426
vt 0.283292 0.027116
vt 0.337873 0.184113
vt 0.297700 0.184098
vt 0.297705 0.158415
vt 0.337878 0.158430
vt 0.357672 0.315286
vt 0.357672 0.353821
vt 0.331982 0.353821
vt 0.331982 0.315286
vt 0.231668 0.247148
vt 0.231668 0.175110
vt 0.247437 0.158415
vt 0.278973 0.158415
vt 0.294741 0.175110
vt 0.294741 0.247148
vt 0.297609 0.090971
vt 0.337782 0.090955
vt 0.231668 0.138646
vt 0.231668 0.065650
vt 0.247437 0.155563
vt 0.278973 0.155563
vt 0.294741 0.138646
vt 0.294741 0.065650
vt 0.337781 0.222889
vt 0.297608 0.222875
vt 0.297594 0.355449
vt 0.297594 0.315286
vt 0.329130 0.315286
vt 0.329130 0.355449
vt 0.297594 0.017994
vt 0.337766 0.017978
vt 0.337766 0.295868
vt 0.297594 0.295853
vt 0.297710 0.001442
vt 0.337883 0.001426
vt 0.337878 0.312434
vt 0.297705 0.312419
vn 1.0000 0.0000 0.0000
vn -0.6244 0.0000 -0.7811
vn 0.0000 0.0946 0.9955
vn 0.0000 0.0946 -0.9955
vn 0.9955 0.0946 0.0000
vn -0.9955 0.0946 0.0000
vn 0.0000 -0.0000 1.0000
vn -1.0000 0.0000 0.0000
vn 0.0000 0.0000 -1.0000
vn 0.0000 1.0000 0.0000
vn 0.0000 0.9914 0.1305
vn 0.0000 0.9979 0.0654
vn 0.0000 0.9659 0.2588
vn 0.0000 0.9239 0.3827
vn 0.0000 0.8660 0.5000
vn 0.0000 0.7934 0.6088
vn 0.0000 0.7071 0.7071
vn 0.0000 0.6088 0.7934
vn 0.0000 0.5000 0.8660
vn 0.0000 0.3827 0.9239
vn 0.0000 0.2588 0.9659
vn 0.0000 0.1305 0.9914
vn 0.0000 0.0654 0.9979
vn 0.0000 -1.0000 0.0000
vn 0.9586 -0.0000 0.2848
vn -0.9586 -0.0000 0.2848
vn 0.7315 0.0000 -0.6818
vn -0.7315 0.0000 -0.6818
s 1
f 1/1/1 2/2/1 3/3/1
f 3/3/1 4/4/2 1/1/1
f 3/3/1 5/5/1 4/4/2
f 3/3/1 6/6/1 5/5/1
f 3/3/1 7/7/1 6/6/1
f 7/7/1 8/8/1 6/6/1
f 8/8/1 9/9/1 6/6/1
f 9/9/1 10/10/1 6/6/1
f 10/10/1 11/11/1 6/6/1
f 11/11/1 12/12/1 6/6/1
f 12/12/1 13/13/1 6/6/1
f 13/13/1 14/14/1 6/6/1
f 14/14/1 15/15/1 6/6/1
f 15/15/1 16/16/1 6/6/1
f 16/16/1 17/17/1 6/6/1
f 17/17/1 18/18/1 6/6/1
f 19/19/3 20/20/3 6/21/3
f 6/21/3 21/22/3 19/19/3
f 22/23/4 23/24/4 24/25/4
f 24/25/4 5/26/4 22/23/4
f 20/27/5 22/28/5 5/5/5
f 5/5/5 6/6/5 20/27/5
f 24/29/6 23/30/6 19/31/6
f 19/31/6 21/32/6 24/29/6
f 25/33/1 22/28/1 20/27/1
f 20/27/1 26/34/1 25/33/1
f 27/35/7 26/36/7 20/20/7
f 20/20/7 19/19/7 27/35/7
f 23/30/8 28/37/8 27/38/8
f 27/38/8 19/31/8 23/30/8
f 25/39/9 28/40/9 23/24/9
f 23/24/9 22/23/9 25/39/9
f 29/41/8 24/29/8 21/32/8
f 21/32/8 30/42/8 29/41/8
f 21/32/8 31/43/8 30/42/8
f 21/32/8 32/44/8 31/43/8
f 21/32/8 33/45/8 32/44/8
f 21/32/8 34/46/8 33/45/8
f 21/32/8 35/47/8 34/46/8
f 21/32/8 36/48/8 35/47/8
f 21/32/8 37/49/8 36/48/8
f 21/32/8 38/50/8 37/49/8
f 21/32/8 39/51/8 38/50/8
f 21/32/8 40/52/8 39/51/8
f 21/32/8 41/53/8 40/52/8
f 21/32/8 42/54/8 41/53/8
f 29/41/8 30/42/8 43/55/8
f 43/55/8 44/56/8 29/41/8
f 21/22/7 6/21/7 18/57/7
f 18/57/7 42/58/7 21/22/7
f 5/26/9 24/25/9 29/59/9
f 29/59/9 4/60/9 5/26/9
f 3/61/10 2/62/10 43/63/10
f 43/63/10 30/64/10 3/61/10
f 7/65/11 3/61/12 30/64/12
f 30/64/12 31/66/11 7/65/11
f 8/67/13 7/65/11 31/66/11
f 31/66/11 32/68/13 8/67/13
f 9/69/14 8/67/13 32/68/13
f 32/68/13 33/70/14 9/69/14
f 10/71/15 9/69/14 33/70/14
f 33/70/14 34/72/15 10/71/15
f 11/73/16 10/71/15 34/72/15
f 34/72/15 35/74/16 11/73/16
f 12/75/17 11/73/16 35/74/16
f 35/74/16 36/76/17 12/75/17
f 37/77/18 13/78/18 12/79/17
f 12/79/17 36/80/17 37/77/18
f 38/81/19 14/82/19 13/78/18
f 13/78/18 37/77/18 38/81/19
f 39/83/20 15/84/20 14/82/19
f 14/82/19 38/81/19 39/83/20
f 40/85/21 16/86/21 15/84/20
f 15/84/20 39/83/20 40/85/21
f 41/87/22 17/88/22 16/86/21
f 16/86/21 40/85/21 41/87/22
f 42/58/23 18/57/23 17/88/22
f 17/88/22 41/87/22 42/58/23
f 1/89/7 45/90/7 46/91/7
f 46/91/7 47/92/7 1/89/7
f 47/92/7 2/93/7 1/89/7
f 47/92/7 43/94/7 2/93/7
f 44/95/7 48/96/7 45/90/7
f 45/90/7 1/89/7 44/95/7
f 44/95/7 43/94/7 48/96/7
f 43/94/7 47/92/7 48/96/7
f 47/97/10 49/98/10 50/99/10
f 50/99/10 48/100/10 47/97/10
f 51/101/1 49/102/1 47/103/1
f 47/103/1 46/104/1 51/101/1
f 51/105/24 46/106/24 45/107/24
f 45/107/24 52/108/24 51/105/24
f 50/109/8 52/110/8 45/111/8
f 45/111/8 48/112/8 50/109/8
f 1/113/24 4/114/24 29/115/24
f 29/115/24 44/116/24 1/113/24
f 53/117/10 54/118/10 55/119/10
f 55/119/10 49/98/10 53/117/10
f 55/119/10 50/99/10 49/98/10
f 55/119/10 56/120/10 50/99/10
f 56/120/10 57/121/10 50/99/10
f 57/121/10 58/122/10 50/99/10
f 59/123/25 53/124/25 49/102/25
f 49/102/25 51/101/25 59/123/25
f 60/125/24 59/126/24 51/105/24
f 51/105/24 61/127/24 60/125/24
f 51/105/24 52/108/24 61/127/24
f 52/108/24 62/128/24 61/127/24
f 52/108/24 63/129/24 62/128/24
f 52/108/24 64/130/24 63/129/24
f 58/131/26 64/132/26 52/110/26
f 52/110/26 50/109/26 58/131/26
f 55/133/9 61/134/9 62/135/9
f 62/135/9 56/136/9 55/133/9
f 60/137/1 54/138/1 53/124/1
f 53/124/1 59/123/1 60/137/1
f 57/139/8 63/140/8 64/132/8
f 64/132/8 58/131/8 57/139/8
f 61/141/27 55/142/27 54/138/27
f 54/138/27 60/137/27 61/141/27
f 56/143/28 62/144/28 63/140/28
f 63/140/28 57/139/28 56/143/28
