# Blender v2.92.0 OBJ File: 'kenney_OGConvert.blend'
# www.blender.org
o roadCornerLarger
v -2.718734 0.010000 2.136430
v -2.442280 0.010000 2.081439
v -2.442280 0.020000 2.081439
v -2.718734 0.020000 2.136430
v -3.000000 0.010000 2.154866
v -3.000000 0.020000 2.154866
v -2.175369 0.020000 1.990836
v -2.175369 0.010000 1.990836
v -1.922567 0.020000 1.866168
v -1.922567 0.010000 1.866168
v -1.688201 0.020000 1.709569
v -1.688201 0.010000 1.709569
v -1.476280 0.020000 1.523719
v -1.476280 0.010000 1.523719
v -1.290431 0.010000 1.311799
v -1.290431 0.020000 1.311799
v -1.133832 0.010000 1.077433
v -1.133832 0.020000 1.077433
v -1.009164 0.010000 0.824631
v -1.009164 0.020000 0.824631
v -0.918560 0.010000 0.557720
v -0.918560 0.020000 0.557720
v -0.863570 0.010000 0.281266
v -0.863570 0.020000 0.281266
v -0.845135 0.010000 0.000000
v -0.845135 0.020000 0.000000
v -2.203386 -0.000000 1.923196
v -2.461229 -0.000000 2.010722
v -2.461229 0.020000 2.010722
v -2.203386 0.020000 1.923196
v -2.728290 0.020000 2.063844
v -2.728290 -0.000000 2.063844
v -3.000000 0.020000 2.081654
v -3.000000 -0.000000 2.081654
v -1.959174 -0.000000 1.802764
v -1.959174 0.020000 1.802764
v -1.732770 -0.000000 1.651486
v -1.732770 0.020000 1.651486
v -1.528049 -0.000000 1.471951
v -1.528049 0.020000 1.471951
v -1.348514 0.020000 1.267230
v -1.348514 -0.000000 1.267230
v -1.197236 0.020000 1.040826
v -1.197236 -0.000000 1.040826
v -1.076804 0.020000 0.796614
v -1.076804 -0.000000 0.796614
v -0.989278 0.020000 0.538771
v -0.989278 -0.000000 0.538771
v -0.936156 0.020000 0.271710
v -0.936156 -0.000000 0.271710
v -0.918347 0.020000 0.000000
v -0.918347 0.000000 0.000000
v -0.988185 0.010000 2.011814
v -1.267992 0.010000 2.257197
v -1.267992 0.020000 2.257197
v -0.988185 0.020000 2.011814
v -1.577433 0.020000 2.463959
v -1.577433 0.010000 2.463959
v -0.742802 0.020000 1.732009
v -0.742802 0.010000 1.732009
v -0.536040 0.020000 1.422567
v -0.536040 0.010000 1.422567
v -0.371438 0.020000 1.088786
v -0.371438 0.010000 1.088786
v -0.251810 0.020000 0.736375
v -0.251810 0.010000 0.736375
v -0.179205 0.020000 0.371365
v -0.179205 0.010000 0.371365
v -0.154865 0.020000 0.000000
v -0.154865 0.010000 0.000000
v -1.911214 0.020000 2.628562
v -1.911214 0.010000 2.628562
v -2.263624 0.020000 2.748189
v -2.263624 0.010000 2.748189
v -2.628634 0.020000 2.820795
v -2.628634 0.010000 2.820795
v -3.000000 0.020000 2.845135
v -3.000000 0.010000 2.845135
v -2.244676 -0.000000 2.818907
v -1.883196 -0.000000 2.696201
v -1.883196 0.020000 2.696201
v -2.244676 0.020000 2.818907
v -1.540825 0.020000 2.527363
v -1.540825 -0.000000 2.527363
v -1.223423 0.020000 2.315280
v -1.223423 -0.000000 2.315280
v -0.936416 0.020000 2.063583
v -0.936416 -0.000000 2.063583
v -0.684719 -0.000000 1.776577
v -0.684719 0.020000 1.776577
v -2.619079 -0.000000 2.893382
v -2.619079 0.020000 2.893382
v -3.000000 -0.000000 2.918347
v -3.000000 0.020000 2.918347
v -0.472637 -0.000000 1.459174
v -0.472637 0.020000 1.459174
v -0.303798 -0.000000 1.116803
v -0.303798 0.020000 1.116803
v -0.181093 -0.000000 0.755324
v -0.181093 0.020000 0.755324
v -0.106619 -0.000000 0.380921
v -0.106619 0.020000 0.380921
v -0.081653 0.000000 0.000000
v -0.081653 0.020000 0.000000
v -0.025665 -0.000000 0.391579
v 0.000000 0.000000 0.000000
v -0.102222 -0.000000 0.776457
v -0.228361 -0.000000 1.148050
v -0.401924 -0.000000 1.500000
v -0.619940 -0.000000 1.826284
v -0.878679 -0.000000 2.121320
v -1.173716 -0.000000 2.380060
v -1.500000 -0.000000 2.598076
v -1.851950 -0.000000 2.771638
v -2.223542 -0.000000 2.897778
v -2.608421 -0.000000 2.974334
v -3.000000 -0.000000 3.000000
v -1.000000 0.000000 0.000000
v -1.017110 -0.000000 0.261053
v -1.068148 -0.000000 0.517638
v -1.152241 -0.000000 0.765367
v -1.267949 -0.000000 1.000000
v -1.413293 -0.000000 1.217523
v -1.585786 -0.000000 1.414214
v -1.782477 -0.000000 1.586707
v -2.000000 -0.000000 1.732051
v -2.234633 -0.000000 1.847759
v -2.482362 -0.000000 1.931852
v -2.738948 -0.000000 1.982890
v -3.000000 -0.000000 2.000000
vt 0.997900 0.599779
vt 0.995797 0.552744
vt 0.997900 0.552744
vt 0.995797 0.599779
vt 0.997900 0.641701
vt 0.995797 0.641701
vt 0.995797 0.501401
vt 0.997900 0.501401
vt 0.995797 0.446627
vt 0.997900 0.446627
vt 0.995797 0.389361
vt 0.997900 0.389361
vt 0.995797 0.330582
vt 0.997900 0.330582
vt 0.997900 0.271296
vt 0.995797 0.271296
vt 0.997900 0.212517
vt 0.995797 0.212517
vt 0.997900 0.155251
vt 0.995797 0.155251
vt 0.997900 0.100478
vt 0.995797 0.100478
vt 0.997900 0.049134
vt 0.995797 0.049134
vt 0.997900 0.002100
vt 0.995797 0.002100
vt 0.987391 0.484437
vt 0.991598 0.534036
vt 0.987391 0.534036
vt 0.991598 0.484437
vt 0.991598 0.579473
vt 0.987391 0.579473
vt 0.991598 0.619970
vt 0.987391 0.619970
vt 0.987391 0.431524
vt 0.991598 0.431524
vt 0.987391 0.376204
vt 0.991598 0.376204
vt 0.987391 0.319422
vt 0.991598 0.319422
vt 0.991598 0.262150
vt 0.987391 0.262150
vt 0.991598 0.205368
vt 0.987391 0.205368
vt 0.991598 0.150048
vt 0.987391 0.150048
vt 0.991598 0.097135
vt 0.987391 0.097135
vt 0.991598 0.047536
vt 0.987391 0.047536
vt 0.991598 0.002100
vt 0.987391 0.002100
vt 0.981089 0.435805
vt 0.983192 0.513413
vt 0.981089 0.513413
vt 0.983192 0.435805
vt 0.983192 0.589023
vt 0.981089 0.589023
vt 0.983192 0.357528
vt 0.981089 0.357528
vt 0.983192 0.279920
vt 0.981089 0.279920
vt 0.983192 0.204310
vt 0.981089 0.204310
vt 0.983192 0.131991
vt 0.981089 0.131991
vt 0.983192 0.064201
vt 0.981089 0.064201
vt 0.983193 0.002099
vt 0.981089 0.002099
vt 0.983192 0.661342
vt 0.981089 0.661342
vt 0.983192 0.729132
vt 0.981089 0.729132
vt 0.983192 0.791234
vt 0.981089 0.791234
vt 0.983192 0.846584
vt 0.981089 0.846584
vt 0.976890 0.747841
vt 0.972683 0.678306
vt 0.976890 0.678306
vt 0.972683 0.747841
vt 0.972683 0.604126
vt 0.976890 0.604126
vt 0.972683 0.526570
vt 0.976890 0.526570
vt 0.972683 0.446966
vt 0.976890 0.446966
vt 0.976890 0.366674
vt 0.972683 0.366674
vt 0.976890 0.811540
vt 0.972683 0.811540
vt 0.976890 0.868315
vt 0.972683 0.868315
vt 0.976890 0.287069
vt 0.972683 0.287069
vt 0.976890 0.209514
vt 0.972683 0.209514
vt 0.976890 0.135334
vt 0.972683 0.135334
vt 0.976890 0.065799
vt 0.972683 0.065799
vt 0.976890 0.002099
vt 0.972683 0.002099
vt 0.612235 0.809807
vt 0.676064 0.859285
vt 0.665175 0.870173
vt 0.567628 0.743047
vt 0.624452 0.800433
vt 0.580964 0.735348
vt 0.532116 0.671036
vt 0.546342 0.665143
vt 0.506307 0.595005
vt 0.521181 0.591020
vt 0.490643 0.516256
vt 0.505910 0.514246
vt 0.485391 0.436136
vt 0.500790 0.436136
vt 0.490643 0.356017
vt 0.505910 0.358027
vt 0.506307 0.277268
vt 0.521181 0.281253
vt 0.532116 0.201237
vt 0.546342 0.207130
vt 0.567628 0.129226
vt 0.580964 0.136925
vt 0.612235 0.062466
vt 0.624452 0.071840
vt 0.665175 0.002100
vt 0.676064 0.012988
vt 0.773923 0.598499
vt 0.823902 0.632184
vt 0.813013 0.643073
vt 0.740985 0.549205
vt 0.786140 0.589125
vt 0.714764 0.496032
vt 0.754321 0.541505
vt 0.728990 0.490139
vt 0.695707 0.439893
vt 0.710581 0.435907
vt 0.684141 0.381745
vt 0.699408 0.379735
vt 0.680263 0.322586
vt 0.695662 0.322586
vt 0.684141 0.263427
vt 0.699408 0.265437
vt 0.695707 0.205280
vt 0.710581 0.209265
vt 0.714764 0.149140
vt 0.728990 0.155033
vt 0.740985 0.095968
vt 0.754321 0.103667
vt 0.773923 0.046673
vt 0.786140 0.056047
vt 0.813013 0.002100
vt 0.823902 0.012988
vt 0.414627 0.832406
vt 0.481192 0.882318
vt 0.469048 0.894462
vt 0.368771 0.763778
vt 0.428252 0.821951
vt 0.332266 0.689752
vt 0.383645 0.755191
vt 0.348133 0.683180
vt 0.305735 0.611594
vt 0.322324 0.607149
vt 0.289632 0.530642
vt 0.306660 0.528400
vt 0.284234 0.448281
vt 0.301408 0.448281
vt 0.289632 0.365919
vt 0.306660 0.368161
vt 0.305735 0.284967
vt 0.322324 0.289412
vt 0.332266 0.206809
vt 0.348133 0.213381
vt 0.368771 0.132783
vt 0.383645 0.141370
vt 0.414627 0.064155
vt 0.428252 0.074610
vt 0.469048 0.002100
vt 0.481192 0.014244
vt 0.918578 0.578236
vt 0.968484 0.609152
vt 0.956340 0.621296
vt 0.886760 0.530617
vt 0.932204 0.567781
vt 0.861429 0.479251
vt 0.901633 0.522029
vt 0.877296 0.472678
vt 0.843020 0.425018
vt 0.859609 0.420573
vt 0.831846 0.368847
vt 0.848874 0.366605
vt 0.828101 0.311697
vt 0.845275 0.311697
vt 0.831846 0.254548
vt 0.848874 0.256790
vt 0.843020 0.198377
vt 0.859609 0.202822
vt 0.861429 0.144144
vt 0.877296 0.150717
vt 0.886760 0.092779
vt 0.901633 0.101366
vt 0.918578 0.045159
vt 0.932204 0.055614
vt 0.956340 0.002100
vt 0.968484 0.014244
vt 0.125761 0.789544
vt 0.280035 0.745735
vt 0.177373 0.848397
vt 0.082273 0.724459
vt 0.047652 0.654254
vt 0.022490 0.580131
vt 0.007219 0.503358
vt 0.240945 0.701161
vt 0.002100 0.425248
vt 0.208007 0.651866
vt 0.181786 0.598694
vt 0.007219 0.347138
vt 0.162729 0.542554
vt 0.151163 0.484407
vt 0.022490 0.270365
vt 0.147285 0.425248
vt 0.151163 0.366089
vt 0.047652 0.196242
vt 0.162729 0.307942
vt 0.082273 0.126037
vt 0.181786 0.251802
vt 0.208008 0.198630
vt 0.125761 0.060952
vt 0.240945 0.149335
vt 0.177373 0.002100
vt 0.280035 0.104761
vn -0.1305 0.0000 -0.9914
vn -0.2588 0.0000 -0.9659
vn -0.1307 0.0000 -0.9914
vn -0.0654 0.0000 -0.9979
vn -0.0001 0.0023 -1.0000
vn -0.3827 0.0000 -0.9239
vn -0.5000 0.0000 -0.8660
vn -0.6088 0.0000 -0.7934
vn -0.7071 0.0000 -0.7071
vn -0.7934 0.0000 -0.6088
vn -0.8660 0.0000 -0.5000
vn -0.9239 0.0000 -0.3827
vn -0.9659 0.0000 -0.2588
vn -0.9914 0.0000 -0.1305
vn -0.9979 0.0000 -0.0654
vn 0.3827 0.0000 0.9239
vn 0.2588 0.0000 0.9659
vn 0.1305 0.0000 0.9914
vn 0.1306 0.0001 0.9914
vn 0.0654 0.0000 0.9979
vn 0.0002 0.0048 1.0000
vn 0.5000 0.0000 0.8660
vn 0.6088 0.0000 0.7934
vn 0.7071 0.0000 0.7071
vn 0.7934 0.0000 0.6088
vn 0.8660 0.0000 0.5000
vn 0.9239 0.0000 0.3827
vn 0.9659 0.0000 0.2588
vn 0.9914 0.0000 0.1305
vn 0.9979 0.0000 0.0654
vn 0.1306 0.0000 0.9914
vn 0.0000 0.0018 1.0000
vn -0.1307 0.0001 -0.9914
vn -0.0001 0.0034 -1.0000
vn 0.0000 -1.0000 -0.0000
s 1
f 1/1/1 3/2/2 2/3/2
f 3/2/2 1/1/1 4/4/3
f 5/5/4 4/4/3 1/1/1
f 4/4/5 5/5/4 6/6/4
f 7/7/6 2/3/2 3/2/2
f 2/3/2 7/7/6 8/8/6
f 9/9/7 8/8/6 7/7/6
f 8/8/6 9/9/7 10/10/7
f 11/11/8 10/10/7 9/9/7
f 10/10/7 11/11/8 12/12/8
f 13/13/9 12/12/8 11/11/8
f 12/12/8 13/13/9 14/14/9
f 13/13/9 15/15/10 14/14/9
f 15/15/10 13/13/9 16/16/10
f 16/16/10 17/17/11 15/15/10
f 17/17/11 16/16/10 18/18/11
f 18/18/11 19/19/12 17/17/11
f 19/19/12 18/18/11 20/20/12
f 20/20/12 21/21/13 19/19/12
f 21/21/13 20/20/12 22/22/13
f 22/22/13 23/23/14 21/21/13
f 23/23/14 22/22/13 24/24/14
f 24/24/14 25/25/15 23/23/14
f 25/25/15 24/24/14 26/26/15
f 27/27/16 29/28/17 28/29/17
f 29/28/17 27/27/16 30/30/16
f 31/31/18 28/29/17 29/28/17
f 28/29/17 31/31/18 32/32/19
f 33/33/20 32/32/19 31/31/18
f 32/32/21 33/33/20 34/34/20
f 35/35/22 30/30/16 27/27/16
f 30/30/16 35/35/22 36/36/22
f 37/37/23 36/36/22 35/35/22
f 36/36/22 37/37/23 38/38/23
f 39/39/24 38/38/23 37/37/23
f 38/38/23 39/39/24 40/40/24
f 39/39/24 41/41/25 40/40/24
f 41/41/25 39/39/24 42/42/25
f 42/42/25 43/43/26 41/41/25
f 43/43/26 42/42/25 44/44/26
f 44/44/26 45/45/27 43/43/26
f 45/45/27 44/44/26 46/46/27
f 46/46/27 47/47/28 45/45/27
f 47/47/28 46/46/27 48/48/28
f 48/48/28 49/49/29 47/47/28
f 49/49/29 48/48/28 50/50/29
f 50/50/29 51/51/30 49/49/29
f 51/51/30 50/50/29 52/52/30
f 53/53/24 55/54/23 54/55/23
f 55/54/23 53/53/24 56/56/24
f 57/57/22 54/55/23 55/54/23
f 54/55/23 57/57/22 58/58/22
f 53/53/24 59/59/25 56/56/24
f 59/59/25 53/53/24 60/60/25
f 60/60/25 61/61/26 59/59/25
f 61/61/26 60/60/25 62/62/26
f 62/62/26 63/63/27 61/61/26
f 63/63/27 62/62/26 64/64/27
f 64/64/27 65/65/28 63/63/27
f 65/65/28 64/64/27 66/66/28
f 66/66/28 67/67/29 65/65/28
f 67/67/29 66/66/28 68/68/29
f 68/68/29 69/69/30 67/67/29
f 69/69/30 68/68/29 70/70/30
f 71/71/16 58/58/22 57/57/22
f 58/58/22 71/71/16 72/72/16
f 73/73/17 72/72/16 71/71/16
f 72/72/16 73/73/17 74/74/17
f 75/75/18 74/74/17 73/73/17
f 74/74/17 75/75/18 76/76/31
f 77/77/20 76/76/31 75/75/18
f 76/76/32 77/77/20 78/78/20
f 79/79/2 81/80/6 80/81/6
f 81/80/6 79/79/2 82/82/2
f 83/83/7 80/81/6 81/80/6
f 80/81/6 83/83/7 84/84/7
f 85/85/8 84/84/7 83/83/7
f 84/84/7 85/85/8 86/86/8
f 87/87/9 86/86/8 85/85/8
f 86/86/8 87/87/9 88/88/9
f 87/87/9 89/89/10 88/88/9
f 89/89/10 87/87/9 90/90/10
f 91/91/1 82/82/2 79/79/2
f 82/82/2 91/91/1 92/92/33
f 93/93/4 92/92/33 91/91/1
f 92/92/34 93/93/4 94/94/4
f 90/90/10 95/95/11 89/89/10
f 95/95/11 90/90/10 96/96/11
f 96/96/11 97/97/12 95/95/11
f 97/97/12 96/96/11 98/98/12
f 98/98/12 99/99/13 97/97/12
f 99/99/13 98/98/12 100/100/13
f 100/100/13 101/101/14 99/99/13
f 101/101/14 100/100/13 102/102/14
f 102/102/14 103/103/15 101/101/14
f 103/103/15 102/102/14 104/104/15
f 102/105/35 69/106/35 104/107/35
f 69/106/35 102/105/35 100/108/35
f 69/106/35 100/108/35 67/109/35
f 67/109/35 100/108/35 65/110/35
f 65/110/35 100/108/35 98/111/35
f 65/110/35 98/111/35 63/112/35
f 63/112/35 98/111/35 96/113/35
f 63/112/35 96/113/35 61/114/35
f 61/114/35 96/113/35 90/115/35
f 61/114/35 90/115/35 59/116/35
f 59/116/35 90/115/35 87/117/35
f 59/116/35 87/117/35 56/118/35
f 56/118/35 87/117/35 85/119/35
f 56/118/35 85/119/35 55/120/35
f 55/120/35 85/119/35 83/121/35
f 55/120/35 83/121/35 57/122/35
f 57/122/35 83/121/35 81/123/35
f 57/122/35 81/123/35 71/124/35
f 71/124/35 81/123/35 82/125/35
f 71/124/35 82/125/35 73/126/35
f 73/126/35 82/125/35 92/127/35
f 73/126/35 92/127/35 75/128/35
f 75/128/35 92/127/35 94/129/35
f 75/128/35 94/129/35 77/130/35
f 24/131/35 51/132/35 26/133/35
f 51/132/35 24/131/35 22/134/35
f 51/132/35 22/134/35 49/135/35
f 49/135/35 22/134/35 20/136/35
f 49/135/35 20/136/35 47/137/35
f 47/137/35 20/136/35 45/138/35
f 45/138/35 20/136/35 18/139/35
f 45/138/35 18/139/35 43/140/35
f 43/140/35 18/139/35 16/141/35
f 43/140/35 16/141/35 41/142/35
f 41/142/35 16/141/35 13/143/35
f 41/142/35 13/143/35 40/144/35
f 40/144/35 13/143/35 11/145/35
f 40/144/35 11/145/35 38/146/35
f 38/146/35 11/145/35 9/147/35
f 38/146/35 9/147/35 36/148/35
f 36/148/35 9/147/35 7/149/35
f 36/148/35 7/149/35 30/150/35
f 30/150/35 7/149/35 3/151/35
f 30/150/35 3/151/35 29/152/35
f 29/152/35 3/151/35 4/153/35
f 29/152/35 4/153/35 31/154/35
f 31/154/35 4/153/35 6/155/35
f 31/154/35 6/155/35 33/156/35
f 105/157/35 103/158/35 106/159/35
f 103/158/35 105/157/35 107/160/35
f 103/158/35 107/160/35 101/161/35
f 101/161/35 107/160/35 108/162/35
f 101/161/35 108/162/35 99/163/35
f 99/163/35 108/162/35 97/164/35
f 97/164/35 108/162/35 109/165/35
f 97/164/35 109/165/35 95/166/35
f 95/166/35 109/165/35 110/167/35
f 95/166/35 110/167/35 89/168/35
f 89/168/35 110/167/35 111/169/35
f 89/168/35 111/169/35 88/170/35
f 88/170/35 111/169/35 112/171/35
f 88/170/35 112/171/35 86/172/35
f 86/172/35 112/171/35 113/173/35
f 86/172/35 113/173/35 84/174/35
f 84/174/35 113/173/35 114/175/35
f 84/174/35 114/175/35 80/176/35
f 80/176/35 114/175/35 115/177/35
f 80/176/35 115/177/35 79/178/35
f 79/178/35 115/177/35 116/179/35
f 79/178/35 116/179/35 91/180/35
f 91/180/35 116/179/35 117/181/35
f 91/180/35 117/181/35 93/182/35
f 50/183/35 118/184/35 52/185/35
f 118/184/35 50/183/35 48/186/35
f 118/184/35 48/186/35 119/187/35
f 119/187/35 48/186/35 46/188/35
f 119/187/35 46/188/35 120/189/35
f 120/189/35 46/188/35 121/190/35
f 121/190/35 46/188/35 44/191/35
f 121/190/35 44/191/35 122/192/35
f 122/192/35 44/191/35 42/193/35
f 122/192/35 42/193/35 123/194/35
f 123/194/35 42/193/35 39/195/35
f 123/194/35 39/195/35 124/196/35
f 124/196/35 39/195/35 37/197/35
f 124/196/35 37/197/35 125/198/35
f 125/198/35 37/197/35 35/199/35
f 125/198/35 35/199/35 126/200/35
f 126/200/35 35/199/35 27/201/35
f 126/200/35 27/201/35 127/202/35
f 127/202/35 27/201/35 28/203/35
f 127/202/35 28/203/35 128/204/35
f 128/204/35 28/203/35 32/205/35
f 128/204/35 32/205/35 129/206/35
f 129/206/35 32/205/35 34/207/35
f 129/206/35 34/207/35 130/208/35
f 68/209/35 25/210/35 70/211/35
f 25/210/35 68/209/35 66/212/35
f 25/210/35 66/212/35 64/213/35
f 25/210/35 64/213/35 62/214/35
f 25/210/35 62/214/35 60/215/35
f 25/210/35 60/215/35 23/216/35
f 23/216/35 60/215/35 53/217/35
f 23/216/35 53/217/35 21/218/35
f 21/218/35 53/217/35 19/219/35
f 19/219/35 53/217/35 54/220/35
f 19/219/35 54/220/35 17/221/35
f 17/221/35 54/220/35 15/222/35
f 15/222/35 54/220/35 58/223/35
f 15/222/35 58/223/35 14/224/35
f 14/224/35 58/223/35 12/225/35
f 12/225/35 58/223/35 72/226/35
f 12/225/35 72/226/35 10/227/35
f 10/227/35 72/226/35 74/228/35
f 10/227/35 74/228/35 8/229/35
f 8/229/35 74/228/35 2/230/35
f 2/230/35 74/228/35 76/231/35
f 2/230/35 76/231/35 1/232/35
f 1/232/35 76/231/35 78/233/35
f 1/232/35 78/233/35 5/234/35
