# Blender v2.92.0 OBJ File: 'kenney_OGConvert.blend'
# www.blender.org
o roadCrossing
v -1.345135 0.010000 -0.081652
v -1.345135 0.020000 -0.081652
v -1.345135 0.020000 0.500000
v -1.345135 0.010000 0.500000
v -1.345135 0.010000 -1.500000
v -1.345135 0.020000 -1.500000
v -1.345135 0.020000 -0.918347
v -1.345135 0.010000 -0.918347
v -0.581653 0.010000 -0.845135
v -0.000000 0.010000 -0.845135
v -0.000000 0.020000 -0.845135
v -0.581653 0.020000 -0.845135
v -1.418347 0.010000 -0.154865
v -2.000000 0.010000 -0.154865
v -2.000000 0.020000 -0.154865
v -1.418347 0.020000 -0.154865
v -0.654865 0.020000 -0.081653
v -0.654865 0.010000 -0.081653
v -0.654865 0.010000 0.500000
v -0.654865 0.020000 0.500000
v -1.418347 0.020000 -0.081652
v -2.000000 0.020000 -0.081652
v -1.418347 0.020000 0.500000
v -1.408791 0.020000 -0.154238
v -1.399399 0.020000 -0.152370
v -1.390330 0.020000 -0.149292
v -1.381741 0.020000 -0.145056
v -1.373779 0.020000 -0.139736
v -1.366578 0.020000 -0.133421
v -1.360264 0.020000 -0.126221
v -1.354944 0.020000 -0.118259
v -1.350708 0.020000 -0.109669
v -1.347630 0.020000 -0.100601
v -1.345761 0.020000 -0.091209
v -0.654865 0.020000 -1.500000
v -0.654865 0.010000 -1.500000
v -0.654865 0.010000 -0.918347
v -0.654865 0.020000 -0.918347
v -0.581653 0.020000 -0.918347
v -0.581653 0.020000 -1.500000
v -0.591209 0.020000 -0.845761
v -0.600601 0.020000 -0.847630
v -0.609670 0.020000 -0.850708
v -0.618259 0.020000 -0.854943
v -0.626222 0.020000 -0.860264
v -0.633422 0.020000 -0.866578
v -0.639736 0.020000 -0.873778
v -0.645056 0.020000 -0.881741
v -0.649292 0.020000 -0.890330
v -0.652370 0.020000 -0.899399
v -0.654239 0.020000 -0.908791
v -0.000000 0.020000 -0.918347
v -0.000000 0.020000 -0.154865
v -0.000000 0.010000 -0.154865
v -0.581653 0.010000 -0.154865
v -0.581653 0.020000 -0.154865
v -2.000000 0.020000 -0.845135
v -2.000000 0.010000 -0.845135
v -1.418347 0.010000 -0.845135
v -1.418347 0.020000 -0.845135
v -0.581653 0.000000 -1.500000
v -0.581653 0.000000 -0.918347
v -0.581653 0.000000 -0.081653
v -0.000000 0.000000 -0.081653
v -0.000000 0.020000 -0.081653
v -0.581653 0.020000 -0.081653
v -1.418347 0.020000 -0.918347
v -1.418347 0.000000 -0.918347
v -2.000000 0.000000 -0.918347
v -2.000000 0.020000 -0.918347
v -0.000000 0.000000 -0.918347
v -0.581653 0.020000 0.500000
v -0.581653 -0.000000 0.500000
v -1.418347 0.020000 -1.500000
v -1.418347 0.000000 -1.500000
v -2.000000 0.000000 -0.081652
v -1.418347 0.000000 -0.081652
v -1.418347 -0.000000 0.500000
v -0.591209 0.020000 -0.154238
v -0.600601 0.020000 -0.152370
v -0.609670 0.020000 -0.149292
v -0.618259 0.020000 -0.145056
v -0.626221 0.020000 -0.139736
v -0.633421 0.020000 -0.133421
v -0.639736 0.020000 -0.126221
v -0.645056 0.020000 -0.118259
v -0.649292 0.020000 -0.109670
v -0.652370 0.020000 -0.100601
v -0.654239 0.020000 -0.091209
v -1.345761 0.020000 -0.908791
v -1.347630 0.020000 -0.899398
v -1.350708 0.020000 -0.890330
v -1.354944 0.020000 -0.881741
v -1.360264 0.020000 -0.873778
v -1.366578 0.020000 -0.866578
v -1.373779 0.020000 -0.860264
v -1.381741 0.020000 -0.854943
v -1.390330 0.020000 -0.850708
v -1.399399 0.020000 -0.847629
v -1.408791 0.020000 -0.845761
v -0.654239 0.010000 -0.091209
v -0.652370 0.010000 -0.100601
v -0.649292 0.010000 -0.109670
v -0.645056 0.010000 -0.118259
v -0.639736 0.010000 -0.126221
v -0.633421 0.010000 -0.133421
v -0.626221 0.010000 -0.139736
v -0.618259 0.010000 -0.145056
v -0.609670 0.010000 -0.149292
v -0.600601 0.010000 -0.152370
v -0.591209 0.010000 -0.154238
v -1.408791 0.010000 -0.154238
v -1.399399 0.010000 -0.152370
v -1.390330 0.010000 -0.149292
v -1.381741 0.010000 -0.145056
v -1.373779 0.010000 -0.139736
v -1.366578 0.010000 -0.133421
v -1.360264 0.010000 -0.126221
v -1.354944 0.010000 -0.118259
v -1.350708 0.010000 -0.109669
v -1.347630 0.010000 -0.100601
v -1.345761 0.010000 -0.091209
v -1.345761 0.010000 -0.908791
v -1.347630 0.010000 -0.899398
v -1.350708 0.010000 -0.890330
v -1.354944 0.010000 -0.881741
v -1.360264 0.010000 -0.873778
v -1.366578 0.010000 -0.866578
v -1.373779 0.010000 -0.860264
v -1.381741 0.010000 -0.854943
v -1.390330 0.010000 -0.850708
v -1.399399 0.010000 -0.847629
v -1.408791 0.010000 -0.845761
v -0.591209 0.010000 -0.845761
v -0.600601 0.010000 -0.847630
v -0.609670 0.010000 -0.850708
v -0.618259 0.010000 -0.854943
v -0.626222 0.010000 -0.860264
v -0.633422 0.010000 -0.866578
v -0.639736 0.010000 -0.873778
v -0.645056 0.010000 -0.881741
v -0.649292 0.010000 -0.890330
v -0.652370 0.010000 -0.899399
v -0.654239 0.010000 -0.908791
v -0.500000 0.000000 -1.000000
v -0.500000 0.000000 -1.500000
v -0.000000 0.000000 -1.000000
v -1.500000 0.000000 -1.500000
v -1.500000 0.000000 -1.000000
v -2.000000 0.000000 -1.000000
v -0.500000 0.000000 0.000000
v 0.000000 0.000000 0.000000
v -0.500000 -0.000000 0.500000
v -1.500000 0.000000 0.000000
v -2.000000 0.000000 0.000000
v -1.500000 -0.000000 0.500000
vt 0.986080 0.019768
vt 0.982362 0.236057
vt 0.982362 0.019768
vt 0.986080 0.236057
vt 0.981689 0.671235
vt 0.977970 0.887524
vt 0.977970 0.671235
vt 0.981689 0.887524
vt 0.489607 0.967653
vt 0.485888 0.753291
vt 0.489607 0.753291
vt 0.485888 0.967653
vt 0.961470 0.885597
vt 0.957752 0.671235
vt 0.961471 0.671235
vt 0.957752 0.885597
vt 0.971580 0.690111
vt 0.967861 0.906186
vt 0.967861 0.690111
vt 0.971580 0.906186
vt 0.726067 0.537002
vt 0.753291 0.320713
vt 0.753291 0.537002
vt 0.726067 0.320713
vt 0.509778 0.537002
vt 0.753058 0.540556
vt 0.752364 0.544048
vt 0.751219 0.547421
vt 0.749644 0.550614
vt 0.747666 0.553575
vt 0.745318 0.556253
vt 0.742640 0.558601
vt 0.739679 0.560579
vt 0.736485 0.562154
vt 0.733113 0.563299
vt 0.729621 0.563994
vt 0.509778 0.564226
vt 0.726067 0.564226
vt 0.941252 0.671235
vt 0.937534 0.887310
vt 0.937534 0.671235
vt 0.941252 0.887310
vt 0.030419 0.780516
vt 0.246709 0.753291
vt 0.246709 0.780516
vt 0.003195 0.780516
vt 0.003428 0.776962
vt 0.004123 0.773469
vt 0.005268 0.770097
vt 0.006843 0.766903
vt 0.008821 0.763943
vt 0.011169 0.761265
vt 0.013846 0.758917
vt 0.016807 0.756939
vt 0.020001 0.755364
vt 0.023373 0.754219
vt 0.026866 0.753524
vt 0.030419 0.753291
vt 0.030419 0.996805
vt 0.003195 0.996805
vt 0.475779 0.985670
vt 0.479497 0.771308
vt 0.479497 0.985670
vt 0.475779 0.771308
vt 0.947643 0.908421
vt 0.951361 0.694059
vt 0.951361 0.908421
vt 0.947643 0.694059
vt 0.834349 0.671235
vt 0.826912 0.887524
vt 0.826912 0.671235
vt 0.834349 0.887524
vt 0.917315 0.885597
vt 0.909878 0.671235
vt 0.917315 0.671235
vt 0.909878 0.885597
vt 0.896050 0.885597
vt 0.903487 0.671235
vt 0.903487 0.885597
vt 0.896050 0.671235
vt 0.923706 0.885597
vt 0.931143 0.671235
vt 0.931143 0.885597
vt 0.923706 0.671235
vt 0.848176 0.671235
vt 0.840739 0.887524
vt 0.840739 0.671235
vt 0.848176 0.887524
vt 0.862004 0.671235
vt 0.854567 0.887310
vt 0.854567 0.671235
vt 0.862004 0.887310
vt 0.889660 0.885597
vt 0.882223 0.671235
vt 0.889660 0.671235
vt 0.882223 0.885597
vt 0.875832 0.671235
vt 0.868395 0.887310
vt 0.868395 0.671235
vt 0.875832 0.887310
vt 0.537002 0.786906
vt 0.509778 0.570617
vt 0.537002 0.570617
vt 0.509778 0.786906
vt 0.753291 0.786906
vt 0.753291 0.814130
vt 0.510011 0.790460
vt 0.510706 0.793952
vt 0.511850 0.797324
vt 0.513425 0.800518
vt 0.515404 0.803479
vt 0.517752 0.806157
vt 0.520429 0.808505
vt 0.523390 0.810483
vt 0.526584 0.812058
vt 0.529956 0.813203
vt 0.533449 0.813897
vt 0.537002 0.814130
vt 0.759915 0.694905
vt 0.759682 0.914748
vt 0.759682 0.698459
vt 0.786906 0.914748
vt 0.760610 0.691413
vt 0.761754 0.688041
vt 0.763330 0.684847
vt 0.765308 0.681886
vt 0.767656 0.679208
vt 0.770334 0.676860
vt 0.773294 0.674882
vt 0.776488 0.673307
vt 0.779860 0.672162
vt 0.783353 0.671468
vt 0.786906 0.671235
vt 0.495997 0.753291
vt 0.495997 0.753291
vt 0.495997 0.753291
vt 0.820521 0.887524
vt 0.793297 0.887524
vt 0.820521 0.671235
vt 0.793297 0.671235
vt 0.971580 0.686572
vt 0.967861 0.686572
vt 0.971580 0.683113
vt 0.967861 0.683113
vt 0.971580 0.679796
vt 0.967861 0.679796
vt 0.971580 0.676675
vt 0.967861 0.676675
vt 0.971580 0.673805
vt 0.967861 0.673805
vt 0.971580 0.671235
vt 0.967861 0.671235
vt 0.479497 0.755632
vt 0.475779 0.753291
vt 0.479497 0.753291
vt 0.475779 0.755632
vt 0.479497 0.758303
vt 0.475779 0.758303
vt 0.479497 0.761259
vt 0.475779 0.761259
vt 0.479497 0.764448
vt 0.475779 0.764448
vt 0.479497 0.767817
vt 0.475779 0.767817
vt 0.961470 0.889150
vt 0.957752 0.889150
vt 0.961470 0.892704
vt 0.957752 0.892704
vt 0.961470 0.896198
vt 0.957752 0.896198
vt 0.961470 0.899573
vt 0.957752 0.899573
vt 0.961470 0.902771
vt 0.957752 0.902771
vt 0.961470 0.905738
vt 0.957752 0.905738
vt 0.957752 0.908421
vt 0.961470 0.908421
vt 0.986080 0.003195
vt 0.982362 0.006156
vt 0.982362 0.003195
vt 0.986080 0.006156
vt 0.982362 0.009350
vt 0.986080 0.009350
vt 0.982362 0.012722
vt 0.986080 0.012722
vt 0.982362 0.016215
vt 0.986080 0.016215
vt 0.977970 0.891077
vt 0.981689 0.891077
vt 0.977970 0.894570
vt 0.981689 0.894570
vt 0.977970 0.897942
vt 0.981689 0.897942
vt 0.977970 0.901136
vt 0.981689 0.901136
vt 0.977970 0.904097
vt 0.981689 0.904097
vt 0.951361 0.671235
vt 0.947643 0.673918
vt 0.947643 0.671235
vt 0.951361 0.673918
vt 0.951361 0.676885
vt 0.947643 0.676885
vt 0.951361 0.680083
vt 0.947643 0.680083
vt 0.951361 0.683458
vt 0.947643 0.683458
vt 0.951361 0.686953
vt 0.947643 0.686953
vt 0.951361 0.690506
vt 0.947643 0.690506
vt 0.489607 0.971144
vt 0.485888 0.971144
vt 0.489607 0.974513
vt 0.485888 0.974513
vt 0.489607 0.977703
vt 0.485888 0.977703
vt 0.489607 0.980658
vt 0.485888 0.980658
vt 0.489607 0.983330
vt 0.485888 0.983330
vt 0.937534 0.906896
vt 0.941252 0.909361
vt 0.937534 0.909361
vt 0.941252 0.906896
vt 0.941252 0.904117
vt 0.937534 0.904117
vt 0.941252 0.901071
vt 0.937534 0.901071
vt 0.941252 0.897810
vt 0.937534 0.897810
vt 0.941252 0.894390
vt 0.937534 0.894390
vt 0.941252 0.890870
vt 0.937534 0.890870
vt 0.790045 0.634481
vt 0.759682 0.448555
vt 0.790045 0.448555
vt 0.759682 0.664844
vt 0.975971 0.634481
vt 0.975971 0.664844
vt 0.253099 0.969581
vt 0.469388 0.939218
vt 0.469388 0.969581
vt 0.283462 0.939218
vt 0.253099 0.753291
vt 0.283462 0.753291
vt 0.790045 0.256238
vt 0.975971 0.225875
vt 0.975971 0.256238
vt 0.759682 0.225875
vt 0.790045 0.442164
vt 0.759682 0.442164
vt 0.945608 0.189122
vt 0.975971 0.219485
vt 0.759682 0.219485
vt 0.975971 0.003195
vt 0.945608 0.003195
vt 0.759682 0.189122
vt 0.287098 0.503387
vt 0.503387 0.246709
vt 0.503387 0.503387
vt 0.287098 0.246709
vt 0.283545 0.246476
vt 0.283545 0.503620
vt 0.280052 0.245781
vt 0.280052 0.504315
vt 0.276680 0.244636
vt 0.276680 0.505460
vt 0.273486 0.243061
vt 0.273486 0.507035
vt 0.270525 0.241083
vt 0.270525 0.509013
vt 0.267848 0.238735
vt 0.267848 0.511361
vt 0.265500 0.236058
vt 0.265500 0.514039
vt 0.263522 0.233096
vt 0.263521 0.517000
vt 0.261946 0.229903
vt 0.261946 0.520193
vt 0.260802 0.226531
vt 0.260802 0.523565
vt 0.260107 0.223038
vt 0.260107 0.527058
vt 0.259874 0.219484
vt 0.259874 0.530612
vt 0.003195 0.003195
vt 0.259874 0.003195
vt 0.259874 0.746901
vt 0.003195 0.219484
vt 0.003195 0.746901
vt 0.502388 0.753291
vt 0.502388 0.753291
vt 0.502388 0.753291
vt 0.753291 0.314322
vt 0.753059 0.006749
vt 0.753291 0.003195
vt 0.753059 0.310769
vt 0.752364 0.010241
vt 0.752364 0.307276
vt 0.751219 0.013614
vt 0.751219 0.303904
vt 0.749644 0.016807
vt 0.749644 0.300710
vt 0.747666 0.019768
vt 0.747666 0.297749
vt 0.745318 0.022446
vt 0.745318 0.295072
vt 0.742640 0.024794
vt 0.742640 0.292724
vt 0.739679 0.026772
vt 0.739679 0.290746
vt 0.736486 0.028347
vt 0.736485 0.289171
vt 0.733113 0.029492
vt 0.733113 0.288026
vt 0.729621 0.030187
vt 0.729621 0.287331
vt 0.726067 0.030419
vt 0.726067 0.287098
vt 0.509778 0.030419
vt 0.509778 0.287098
vn -0.9995 0.0000 0.0327
vn -1.0000 0.0000 0.0000
vn -0.9995 0.0000 -0.0327
vn -0.0327 -0.0006 -0.9995
vn -0.0000 0.0000 -1.0000
vn 0.0329 0.0000 -0.9995
vn 0.0327 0.0000 -0.9995
vn 0.0327 -0.0006 0.9995
vn 0.0000 -0.0000 1.0000
vn -0.0329 0.0000 0.9995
vn -0.0327 0.0000 0.9995
vn 0.9995 0.0000 0.0327
vn 1.0000 0.0000 -0.0000
vn 0.5363 0.8441 0.0000
vn -0.0000 -1.0000 -0.0000
vn 0.9995 0.0000 -0.0327
vn 0.0327 0.0000 0.9995
vn -0.0327 0.0000 -0.9995
vn -0.9084 -0.4180 0.0000
vn -0.0035 -1.0000 -0.0000
vn 0.9914 0.0000 0.1305
vn 0.9659 0.0000 0.2588
vn 0.9239 0.0000 0.3827
vn 0.8660 0.0000 0.5000
vn 0.7934 0.0000 0.6088
vn 0.7071 0.0000 0.7071
vn 0.6088 0.0000 0.7934
vn 0.5000 0.0000 0.8660
vn 0.3827 0.0000 0.9239
vn 0.2588 0.0000 0.9659
vn 0.1305 0.0000 0.9914
vn -0.1305 0.0000 0.9914
vn -0.2588 0.0000 0.9659
vn -0.3827 0.0000 0.9239
vn -0.5000 0.0000 0.8660
vn -0.6088 0.0000 0.7934
vn -0.7071 0.0000 0.7071
vn -0.7934 0.0000 0.6087
vn -0.8660 0.0000 0.5000
vn -0.9239 0.0000 0.3827
vn -0.9659 0.0000 0.2588
vn -0.9914 0.0000 0.1305
vn -0.9914 0.0000 -0.1305
vn -0.9659 0.0000 -0.2588
vn -0.9239 0.0000 -0.3827
vn -0.8660 0.0000 -0.5000
vn -0.7934 0.0000 -0.6087
vn -0.7071 0.0000 -0.7071
vn -0.6088 0.0000 -0.7934
vn -0.5000 0.0000 -0.8660
vn -0.3827 0.0000 -0.9239
vn -0.2588 0.0000 -0.9659
vn -0.1305 0.0000 -0.9914
vn 0.1305 0.0000 -0.9914
vn 0.2588 0.0000 -0.9659
vn 0.3827 0.0000 -0.9239
vn 0.5000 0.0000 -0.8660
vn 0.6088 0.0000 -0.7933
vn 0.7071 0.0000 -0.7071
vn 0.7933 0.0000 -0.6088
vn 0.7934 0.0000 -0.6088
vn 0.8660 0.0000 -0.5000
vn 0.9239 0.0000 -0.3827
vn 0.9659 0.0000 -0.2588
vn 0.9914 0.0000 -0.1305
vn 0.0002 -1.0000 -0.0000
vn 0.0004 -1.0000 -0.0006
vn 0.5080 0.6717 0.5393
s 1
f 1/1/1 3/2/2 2/3/1
f 3/2/2 1/1/1 4/4/2
f 5/5/2 7/6/3 6/7/2
f 7/6/3 5/5/2 8/8/3
f 9/9/4 11/10/5 10/11/5
f 11/10/5 9/9/6 12/12/7
f 13/13/8 15/14/9 14/15/9
f 15/14/9 13/13/10 16/16/11
f 17/17/12 19/18/13 18/19/12
f 19/18/13 17/17/12 20/20/13
f 21/21/14 15/22/15 16/23/15
f 15/22/15 21/21/14 22/24/15
f 16/23/15 23/25/15 21/21/14
f 24/26/15 23/25/15 16/23/15
f 25/27/15 23/25/15 24/26/15
f 26/28/15 23/25/15 25/27/15
f 27/29/15 23/25/15 26/28/15
f 28/30/15 23/25/15 27/29/15
f 29/31/15 23/25/15 28/30/15
f 30/32/15 23/25/15 29/31/15
f 31/33/15 23/25/15 30/32/15
f 32/34/15 23/25/15 31/33/15
f 33/35/15 23/25/15 32/34/15
f 34/36/15 23/25/15 33/35/15
f 34/36/15 3/37/15 23/25/15
f 3/37/15 34/36/15 2/38/15
f 35/39/13 37/40/16 36/41/13
f 37/40/16 35/39/13 38/42/16
f 39/43/15 35/44/15 40/45/15
f 35/44/15 39/43/15 12/46/15
f 35/44/15 12/46/15 41/47/15
f 35/44/15 41/47/15 42/48/15
f 35/44/15 42/48/15 43/49/15
f 35/44/15 43/49/15 44/50/15
f 35/44/15 44/50/15 45/51/15
f 35/44/15 45/51/15 46/52/15
f 35/44/15 46/52/15 47/53/15
f 35/44/15 47/53/15 48/54/15
f 35/44/15 48/54/15 49/55/15
f 35/44/15 49/55/15 50/56/15
f 35/44/15 50/56/15 51/57/15
f 35/44/15 51/57/15 38/58/15
f 52/59/15 12/46/15 39/43/15
f 12/46/15 52/59/15 11/60/15
f 53/61/9 55/62/17 54/63/9
f 55/62/17 53/61/9 56/64/17
f 57/65/5 59/66/18 58/67/5
f 59/66/18 57/65/5 60/68/18
f 61/69/2 39/70/2 40/71/2
f 39/70/2 61/69/2 62/72/2
f 63/73/5 65/74/5 64/75/5
f 65/74/5 63/73/5 66/76/5
f 67/77/9 69/78/9 68/79/9
f 69/78/9 67/77/9 70/80/9
f 52/81/9 62/82/9 71/83/9
f 62/82/9 52/81/9 39/84/9
f 63/85/2 72/86/2 66/87/2
f 72/86/2 63/85/2 73/88/2
f 74/89/13 68/90/13 75/91/13
f 68/90/13 74/89/13 67/92/13
f 76/93/5 21/94/5 77/95/5
f 21/94/5 76/93/5 22/96/5
f 21/97/13 78/98/13 77/99/13
f 78/98/13 21/97/13 23/100/13
f 66/101/15 53/102/15 65/103/15
f 53/102/15 66/101/19 56/104/15
f 56/104/15 66/101/19 72/105/2
f 56/104/15 72/105/15 20/106/15
f 56/104/15 20/106/15 79/107/15
f 79/107/15 20/106/15 80/108/15
f 80/108/15 20/106/15 81/109/15
f 81/109/15 20/106/15 82/110/15
f 82/110/15 20/106/15 83/111/15
f 83/111/15 20/106/15 84/112/15
f 84/112/15 20/106/15 85/113/15
f 85/113/15 20/106/15 86/114/15
f 86/114/15 20/106/15 87/115/15
f 87/115/15 20/106/15 88/116/15
f 88/116/15 20/106/15 89/117/15
f 89/117/15 20/106/15 17/118/15
f 90/119/15 6/120/15 7/121/15
f 6/120/15 90/119/15 74/122/15
f 74/122/15 90/119/15 91/123/15
f 74/122/15 91/123/15 92/124/15
f 74/122/15 92/124/15 93/125/15
f 74/122/15 93/125/15 94/126/15
f 74/122/15 94/126/15 95/127/15
f 74/122/15 95/127/15 96/128/15
f 74/122/15 96/128/15 97/129/15
f 74/122/15 97/129/15 98/130/15
f 74/122/15 98/130/15 99/131/15
f 74/122/15 99/131/15 100/132/15
f 74/122/15 100/132/15 60/133/15
f 74/134/15 60/135/15 67/136/20
f 67/137/20 60/138/15 70/139/15
f 70/139/15 60/138/15 57/140/15
f 89/141/21 18/19/12 101/142/21
f 18/19/12 89/141/21 17/17/12
f 88/143/22 101/142/21 102/144/22
f 101/142/21 88/143/22 89/141/21
f 87/145/23 102/144/22 103/146/23
f 102/144/22 87/145/23 88/143/22
f 86/147/24 103/146/23 104/148/24
f 103/146/23 86/147/24 87/145/23
f 85/149/25 104/148/24 105/150/25
f 104/148/24 85/149/25 86/147/24
f 84/151/26 105/150/25 106/152/26
f 105/150/25 84/151/26 85/149/25
f 107/153/27 84/154/26 106/155/26
f 84/154/26 107/153/27 83/156/27
f 108/157/28 83/156/27 107/153/27
f 83/156/27 108/157/28 82/158/28
f 109/159/29 82/158/28 108/157/28
f 82/158/28 109/159/29 81/160/29
f 110/161/30 81/160/29 109/159/29
f 81/160/29 110/161/30 80/162/30
f 111/163/31 80/162/30 110/161/30
f 80/162/30 111/163/31 79/164/31
f 55/62/17 79/164/31 111/163/31
f 79/164/31 55/62/17 56/64/17
f 112/165/32 16/16/11 13/13/10
f 16/16/11 112/165/32 24/166/32
f 113/167/33 24/166/32 112/165/32
f 24/166/32 113/167/33 25/168/33
f 114/169/34 25/168/33 113/167/33
f 25/168/33 114/169/34 26/170/34
f 115/171/35 26/170/34 114/169/34
f 26/170/34 115/171/35 27/172/35
f 116/173/36 27/172/35 115/171/35
f 27/172/35 116/173/36 28/174/36
f 117/175/37 28/174/36 116/173/36
f 28/174/36 117/175/37 29/176/37
f 117/175/37 30/177/38 29/176/37
f 30/177/38 117/175/37 118/178/38
f 118/179/38 31/180/39 30/181/38
f 31/180/39 118/179/38 119/182/39
f 119/182/39 32/183/40 31/180/39
f 32/183/40 119/182/39 120/184/40
f 120/184/40 33/185/41 32/183/40
f 33/185/41 120/184/40 121/186/41
f 121/186/41 34/187/42 33/185/41
f 34/187/42 121/186/41 122/188/42
f 122/188/42 2/3/1 34/187/42
f 2/3/1 122/188/42 1/1/1
f 8/8/3 90/189/43 7/6/3
f 90/189/43 8/8/3 123/190/43
f 123/190/43 91/191/44 90/189/43
f 91/191/44 123/190/43 124/192/44
f 124/192/44 92/193/45 91/191/44
f 92/193/45 124/192/44 125/194/45
f 125/194/45 93/195/46 92/193/45
f 93/195/46 125/194/45 126/196/46
f 126/196/46 94/197/47 93/195/46
f 94/197/47 126/196/46 127/198/47
f 127/199/47 95/200/48 94/201/47
f 95/200/48 127/199/47 128/202/48
f 129/203/49 95/200/48 128/202/48
f 95/200/48 129/203/49 96/204/49
f 130/205/50 96/204/49 129/203/49
f 96/204/49 130/205/50 97/206/50
f 131/207/51 97/206/50 130/205/50
f 97/206/50 131/207/51 98/208/51
f 132/209/52 98/208/51 131/207/51
f 98/208/51 132/209/52 99/210/52
f 133/211/53 99/210/52 132/209/52
f 99/210/52 133/211/53 100/212/53
f 60/68/18 133/211/53 59/66/18
f 133/211/53 60/68/18 100/212/53
f 134/213/54 12/12/7 9/9/6
f 12/12/7 134/213/54 41/214/54
f 135/215/55 41/214/54 134/213/54
f 41/214/54 135/215/55 42/216/55
f 136/217/56 42/216/55 135/215/55
f 42/216/55 136/217/56 43/218/56
f 137/219/57 43/218/56 136/217/56
f 43/218/56 137/219/57 44/220/57
f 138/221/58 44/220/57 137/219/57
f 44/220/57 138/221/58 45/222/58
f 139/223/59 45/224/58 138/225/58
f 45/224/58 139/223/59 46/226/59
f 47/227/60 139/223/59 140/228/61
f 139/223/59 47/227/60 46/226/59
f 48/229/62 140/228/61 141/230/62
f 140/228/61 48/229/62 47/227/60
f 49/231/63 141/230/62 142/232/63
f 141/230/62 49/231/63 48/229/62
f 50/233/64 142/232/63 143/234/64
f 142/232/63 50/233/64 49/231/63
f 51/235/65 143/234/64 144/236/65
f 143/234/64 51/235/65 50/233/64
f 38/42/16 144/236/65 37/40/16
f 144/236/65 38/42/16 51/235/65
f 145/237/15 61/238/15 146/239/15
f 145/237/15 62/240/15 61/238/15
f 147/241/15 62/240/15 145/237/15
f 62/240/15 147/241/15 71/242/15
f 68/243/15 148/244/15 75/245/15
f 148/244/15 68/243/15 149/246/15
f 149/246/15 68/243/15 69/247/15
f 149/246/15 69/247/15 150/248/15
f 151/249/15 64/250/15 152/251/15
f 64/250/15 151/249/15 63/252/15
f 63/252/15 151/249/15 153/253/15
f 63/252/15 153/253/15 73/254/15
f 154/255/15 77/256/15 78/257/15
f 77/256/15 154/255/15 76/258/15
f 76/258/15 154/255/15 155/259/15
f 78/257/15 156/260/15 154/255/15
f 55/261/15 10/262/15 54/263/15
f 10/262/15 55/261/15 9/264/15
f 9/264/15 55/261/15 134/265/15
f 134/265/15 55/261/15 111/266/15
f 134/265/15 111/266/15 135/267/15
f 135/267/15 111/266/15 110/268/15
f 135/267/15 110/268/15 136/269/15
f 136/269/15 110/268/15 109/270/15
f 136/269/15 109/270/15 137/271/15
f 137/271/15 109/270/15 108/272/15
f 137/271/15 108/272/15 138/273/15
f 138/273/15 108/272/15 107/274/15
f 138/273/15 107/274/15 139/275/15
f 139/275/15 107/274/15 106/276/15
f 139/275/15 106/276/15 140/277/15
f 140/277/15 106/276/15 105/278/15
f 140/277/15 105/278/15 141/279/15
f 141/279/15 105/278/15 104/280/15
f 141/279/15 104/280/15 142/281/15
f 142/281/15 104/280/15 103/282/15
f 142/281/15 103/282/15 143/283/15
f 143/283/15 103/282/15 102/284/15
f 143/283/15 102/284/15 144/285/15
f 144/285/15 102/284/15 101/286/15
f 144/285/15 101/286/15 37/287/15
f 37/287/15 101/286/15 18/288/15
f 5/289/15 37/287/15 18/288/15
f 37/287/15 5/289/15 36/290/15
f 5/289/15 18/288/15 19/291/15
f 5/289/15 19/291/15 8/292/15
f 4/293/66 8/292/67 19/291/15
f 8/294/67 4/295/66 1/296/68
f 1/297/68 123/298/15 8/299/67
f 123/298/15 1/297/68 122/300/15
f 123/298/15 122/300/15 124/301/15
f 124/301/15 122/300/15 121/302/15
f 124/301/15 121/302/15 125/303/15
f 125/303/15 121/302/15 120/304/15
f 125/303/15 120/304/15 126/305/15
f 126/305/15 120/304/15 119/306/15
f 126/305/15 119/306/15 127/307/15
f 127/307/15 119/306/15 118/308/15
f 127/307/15 118/308/15 128/309/15
f 128/309/15 118/308/15 117/310/15
f 128/309/15 117/310/15 129/311/15
f 129/311/15 117/310/15 116/312/15
f 129/311/15 116/312/15 130/313/15
f 130/313/15 116/312/15 115/314/15
f 130/313/15 115/314/15 131/315/15
f 131/315/15 115/314/15 114/316/15
f 131/315/15 114/316/15 132/317/15
f 132/317/15 114/316/15 113/318/15
f 132/317/15 113/318/15 133/319/15
f 133/319/15 113/318/15 112/320/15
f 133/319/15 112/320/15 59/321/15
f 59/321/15 112/320/15 13/322/15
f 59/321/15 13/322/15 58/323/15
f 58/323/15 13/322/15 14/324/15
