# Blender v2.92.0 OBJ File: 'kenney_OGConvert.blend'
# www.blender.org
o roadBump
v 0.000000 -0.000000 1.500000
v 0.000000 -0.000000 0.500000
v 0.000000 0.080000 0.750000
v 0.000000 0.080000 1.250000
v -1.000000 0.080000 0.750000
v -1.000000 -0.000000 0.500000
v -1.000000 -0.000000 1.500000
v -1.000000 0.080000 1.250000
v -0.918347 0.080000 1.250000
v -0.918347 0.080000 0.750000
v -0.081652 0.080000 0.750000
v -0.081652 0.080000 1.250000
v -0.918347 -0.000000 0.500000
v -0.918347 0.000000 0.000000
v -1.000000 0.000000 0.000000
v 0.000000 0.000000 0.000000
v -0.081653 0.000000 0.000000
v -0.081653 -0.000000 0.500000
v 0.000000 -0.000000 2.000000
v -0.081652 -0.000000 1.500000
v -0.081652 -0.000000 2.000000
v -0.918347 -0.000000 2.000000
v -0.918347 -0.000000 1.500000
v -1.000000 -0.000000 2.000000
v -0.845135 0.100000 1.250000
v -0.845135 0.100000 0.750000
v -0.918347 0.100000 0.750000
v -0.918347 0.100000 1.250000
v -0.845135 0.090000 0.750000
v -0.845135 0.090000 1.250000
v -0.845135 0.010000 0.500000
v -0.845135 0.020000 0.500000
v -0.845135 0.010000 0.000000
v -0.845135 0.020000 0.000000
v -0.845135 0.020000 1.500000
v -0.845135 0.010000 1.500000
v -0.845135 0.020000 2.000000
v -0.845135 0.010000 2.000000
v -0.918347 0.020000 0.000000
v -0.918347 0.020000 0.500000
v -0.918347 0.020000 1.500000
v -0.918347 0.020000 2.000000
v -0.154865 0.020000 0.000000
v -0.154865 0.010000 0.000000
v -0.154865 0.010000 0.500000
v -0.154865 0.020000 0.500000
v -0.154865 0.090000 0.750000
v -0.154865 0.100000 0.750000
v -0.154865 0.090000 1.250000
v -0.154865 0.100000 1.250000
v -0.154865 0.010000 1.500000
v -0.154865 0.020000 1.500000
v -0.154865 0.010000 2.000000
v -0.154865 0.020000 2.000000
v -0.081653 0.020000 0.500000
v -0.081653 0.020000 0.000000
v -0.081652 0.020000 1.500000
v -0.081652 0.020000 2.000000
v -0.081652 0.100000 1.250000
v -0.081652 0.100000 0.750000
vt 0.774129 0.500000
vt 0.734330 0.126887
vt 0.774129 0.002516
vt 0.734330 0.375629
vt 0.779160 0.375629
vt 0.818959 0.002516
vt 0.818959 0.500000
vt 0.779160 0.126887
vt 0.646391 0.624371
vt 0.605770 0.375629
vt 0.646391 0.375629
vt 0.605770 0.624371
vt 0.600738 0.624371
vt 0.560117 0.375629
vt 0.600738 0.375629
vt 0.560117 0.624371
vt 0.646391 0.251258
vt 0.605770 0.002516
vt 0.646391 0.002516
vt 0.605770 0.251258
vt 0.600738 0.251258
vt 0.560117 0.002516
vt 0.600738 0.002516
vt 0.560117 0.251258
vt 0.600738 0.997484
vt 0.560117 0.748742
vt 0.600738 0.748742
vt 0.560117 0.997484
vt 0.646391 0.997484
vt 0.605770 0.748742
vt 0.646391 0.748742
vt 0.605770 0.997484
vt 0.729298 0.624371
vt 0.692876 0.375629
vt 0.729298 0.375629
vt 0.692876 0.624371
vt 0.465481 0.375629
vt 0.460506 0.624371
vt 0.460506 0.375629
vt 0.465481 0.624371
vt 0.505280 0.251258
vt 0.500305 0.251258
vt 0.505280 0.002516
vt 0.500305 0.002516
vt 0.500305 0.748742
vt 0.505280 0.748742
vt 0.500305 0.997484
vt 0.505280 0.997484
vt 0.415676 0.002516
vt 0.405726 0.251258
vt 0.405726 0.002516
vt 0.415676 0.251258
vt 0.445525 0.375629
vt 0.455475 0.375629
vt 0.445525 0.624371
vt 0.455475 0.624371
vt 0.405726 0.748742
vt 0.415676 0.748742
vt 0.405726 0.997484
vt 0.415676 0.997484
vt 0.729298 0.251258
vt 0.692876 0.002516
vt 0.729298 0.002516
vt 0.692876 0.251258
vt 0.515287 0.002516
vt 0.510312 0.251258
vt 0.510312 0.002516
vt 0.515287 0.251258
vt 0.550111 0.375629
vt 0.555085 0.375629
vt 0.550111 0.624371
vt 0.555085 0.624371
vt 0.510312 0.748742
vt 0.515287 0.748742
vt 0.510312 0.997484
vt 0.515287 0.997484
vt 0.687844 0.251258
vt 0.651423 0.002516
vt 0.687844 0.002516
vt 0.651422 0.251258
vt 0.400695 0.748742
vt 0.390745 0.997484
vt 0.390745 0.748742
vt 0.400695 0.997484
vt 0.360896 0.624371
vt 0.350946 0.624371
vt 0.360896 0.375629
vt 0.350946 0.375629
vt 0.400695 0.251258
vt 0.390745 0.251258
vt 0.400695 0.002516
vt 0.390745 0.002516
vt 0.687844 0.997484
vt 0.651422 0.748742
vt 0.687844 0.748742
vt 0.651422 0.997484
vt 0.729298 0.997484
vt 0.692876 0.748742
vt 0.729298 0.748742
vt 0.692876 0.997484
vt 0.687844 0.624371
vt 0.651422 0.375629
vt 0.687844 0.375629
vt 0.651422 0.624371
vt 0.345914 0.251258
vt 0.002516 0.002516
vt 0.345914 0.002516
vt 0.002516 0.251258
vt 0.345914 0.997484
vt 0.002516 0.748742
vt 0.345914 0.748742
vt 0.002516 0.997484
vt 0.345914 0.624371
vt 0.002516 0.375629
vt 0.345914 0.375629
vt 0.002516 0.624371
vn -1.0000 0.0000 0.0000
vn 1.0000 -0.0000 -0.0000
vn 0.0000 -1.0000 -0.0000
vn 0.0000 -0.9524 0.3048
vn 0.0000 -0.9524 -0.3048
s 1
f 1/1/1 3/2/1 2/3/1
f 3/2/1 1/1/1 4/4/1
f 5/5/2 7/6/2 6/7/2
f 7/6/2 5/5/2 8/8/2
f 9/9/3 5/10/3 10/11/3
f 5/10/3 9/9/3 8/12/3
f 4/13/3 11/14/3 3/15/3
f 11/14/3 4/13/3 12/16/3
f 13/17/3 15/18/3 14/19/3
f 15/18/3 13/17/3 6/20/3
f 2/21/3 17/22/3 16/23/3
f 17/22/3 2/21/3 18/24/3
f 19/25/3 20/26/3 1/27/3
f 20/26/3 19/25/3 21/28/3
f 22/29/3 7/30/3 23/31/3
f 7/30/3 22/29/3 24/32/3
f 10/11/4 6/20/4 13/17/4
f 6/20/4 10/11/4 5/10/4
f 3/15/4 18/24/4 2/21/4
f 18/24/4 3/15/4 11/14/4
f 23/31/5 8/12/5 9/9/5
f 8/12/5 23/31/5 7/30/5
f 1/27/5 12/16/5 4/13/5
f 12/16/5 1/27/5 20/26/5
f 25/33/3 27/34/3 26/35/3
f 27/34/3 25/33/3 28/36/3
f 29/37/1 25/38/1 26/39/1
f 25/38/1 29/37/1 30/40/1
f 26/39/1 31/41/1 29/37/1
f 31/41/1 26/39/1 32/42/1
f 32/42/1 33/43/1 31/41/1
f 33/43/1 32/42/1 34/44/1
f 30/40/1 35/45/1 25/38/1
f 35/45/1 30/40/1 36/46/1
f 36/46/1 37/47/1 35/45/1
f 37/47/1 36/46/1 38/48/1
f 39/49/2 13/50/2 14/51/2
f 13/50/2 39/49/2 40/52/2
f 40/52/2 10/53/2 13/50/2
f 10/53/2 40/52/2 27/54/2
f 27/54/2 9/55/2 10/53/2
f 9/55/2 27/54/2 28/56/2
f 28/56/2 23/57/2 9/55/2
f 23/57/2 28/56/2 41/58/2
f 41/58/2 22/59/2 23/57/2
f 22/59/2 41/58/2 42/60/2
f 32/61/3 39/62/3 34/63/3
f 39/62/3 32/61/3 40/64/3
f 43/65/2 45/66/2 44/67/2
f 45/66/2 43/65/2 46/68/2
f 46/68/2 47/69/2 45/66/2
f 47/69/2 46/68/2 48/70/2
f 48/70/2 49/71/2 47/69/2
f 49/71/2 48/70/2 50/72/2
f 50/72/2 51/73/2 49/71/2
f 51/73/2 50/72/2 52/74/2
f 52/74/2 53/75/2 51/73/2
f 53/75/2 52/74/2 54/76/2
f 55/77/3 43/78/3 56/79/3
f 43/78/3 55/77/3 46/80/3
f 20/81/1 58/82/1 57/83/1
f 58/82/1 20/81/1 21/84/1
f 57/83/1 12/85/1 20/81/1
f 12/85/1 57/83/1 59/86/1
f 59/86/1 11/87/1 12/85/1
f 11/87/1 59/86/1 60/88/1
f 60/88/1 18/89/1 11/87/1
f 18/89/1 60/88/1 55/90/1
f 55/90/1 17/91/1 18/89/1
f 17/91/1 55/90/1 56/92/1
f 58/93/3 52/94/3 57/95/3
f 52/94/3 58/93/3 54/96/3
f 37/97/3 41/98/3 35/99/3
f 41/98/3 37/97/3 42/100/3
f 59/101/3 48/102/3 60/103/3
f 48/102/3 59/101/3 50/104/3
f 26/35/4 40/64/4 32/61/4
f 40/64/4 26/35/4 27/34/4
f 60/103/4 46/80/4 55/77/4
f 46/80/4 60/103/4 48/102/4
f 35/99/5 28/36/5 25/33/5
f 28/36/5 35/99/5 41/98/5
f 57/95/5 50/104/5 59/101/5
f 50/104/5 57/95/5 52/94/5
f 45/105/3 33/106/3 44/107/3
f 33/106/3 45/105/3 31/108/3
f 53/109/3 36/110/3 51/111/3
f 36/110/3 53/109/3 38/112/3
f 49/113/3 29/114/3 47/115/3
f 29/114/3 49/113/3 30/116/3
f 47/115/4 31/108/4 45/105/4
f 31/108/4 47/115/4 29/114/4
f 51/111/5 30/116/5 49/113/5
f 30/116/5 51/111/5 36/110/5
