# Blender v2.92.0 OBJ File: 'OGConvert.blend'
# www.blender.org
o roadRampWall
v -7.346779 2.000000 8.000000
v -7.346779 0.000000 0.000000
v -8.000000 0.000000 0.000000
v -8.000000 2.000000 8.000000
v 0.000000 2.000000 8.000000
v 0.000000 0.000000 0.000000
v -0.653221 0.000000 0.000000
v -0.653221 2.000000 8.000000
v -8.000000 -0.000000 8.000000
v 0.000000 -0.000000 8.000000
v -1.238919 2.080000 8.000000
v -0.653221 2.160000 8.000000
v -1.238919 2.160000 8.000000
v -6.761082 2.080000 8.000000
v -7.346779 2.160000 8.000000
v -6.761082 2.160000 8.000000
v -6.761082 0.160000 0.000000
v -7.346779 0.160000 0.000000
v -6.761082 0.080000 0.000000
v -0.653221 0.160000 0.000000
v -1.238919 0.160000 0.000000
v -1.238919 0.080000 0.000000
vt 0.403487 0.496550
vt 0.403487 0.002287
vt 0.442640 0.002287
vt 0.442640 0.496550
vt 0.907226 0.496550
vt 0.907226 0.002287
vt 0.946379 0.002287
vt 0.946379 0.496550
vt 0.902653 0.002287
vt 0.902652 0.481793
vt 0.782776 0.481793
vt 0.782776 0.486366
vt 0.902652 0.965872
vt 0.782776 0.965872
vt 0.002287 0.980630
vt 0.002287 0.501124
vt 0.122163 0.501124
vt 0.122163 0.980630
vt 0.217560 0.501124
vt 0.217560 0.501124
vt 0.217560 0.501124
vt 0.002287 0.496550
vt 0.198966 0.536230
vt 0.194171 0.902324
vt 0.194171 0.501124
vt 0.203761 0.501124
vt 0.203761 0.536230
vt 0.198966 0.867218
vt 0.203761 0.902324
vt 0.203761 0.867218
vt 0.126737 0.995387
vt 0.126737 0.501124
vt 0.161843 0.501124
vt 0.161843 0.995387
vt 0.990632 0.002287
vt 0.995284 0.003450
vt 0.995284 0.497713
vt 0.990632 0.496550
vt 0.166416 0.503450
vt 0.175720 0.501124
vt 0.175720 0.995387
vt 0.166416 0.997713
vt 0.180294 0.501124
vt 0.189598 0.503450
vt 0.189598 0.997713
vt 0.180294 0.995387
vt 0.950953 0.496550
vt 0.950953 0.002287
vt 0.986058 0.002287
vt 0.986058 0.496550
vt 0.212987 0.995387
vt 0.208335 0.996550
vt 0.208335 0.502287
vt 0.212987 0.501124
vt 0.447214 0.496550
vt 0.447214 0.002287
vt 0.778202 0.002287
vt 0.778202 0.496550
vn 0.0000 0.9701 -0.2425
vn -1.0000 0.0000 0.0000
vn 1.0000 0.0000 0.0000
vn 0.0000 0.0000 1.0000
vn 0.0000 0.0000 -1.0000
s 1
f 1/1/1 2/2/1 3/3/1
f 3/3/1 4/4/1 1/1/1
f 5/5/1 6/6/1 7/7/1
f 7/7/1 8/8/1 5/5/1
f 3/9/2 9/10/2 4/11/2
f 6/12/3 5/13/3 10/14/3
f 9/15/4 10/16/4 5/17/4
f 5/17/4 4/18/4 9/15/4
f 5/19/4 8/20/5 4/21/4
f 8/22/5 1/1/4 4/4/4
f 11/23/4 1/24/4 8/25/5
f 8/25/5 12/26/4 11/23/4
f 12/26/4 13/27/4 11/23/4
f 1/24/4 11/23/4 14/28/4
f 14/28/4 15/29/4 1/24/4
f 14/28/4 16/30/4 15/29/4
f 16/31/1 17/32/1 18/33/1
f 18/33/1 15/34/1 16/31/1
f 19/35/3 17/36/3 16/37/3
f 16/37/3 14/38/3 19/35/3
f 18/39/2 2/40/2 1/41/2
f 1/41/2 15/42/2 18/39/2
f 7/43/3 20/44/3 12/45/3
f 12/45/3 8/46/3 7/43/3
f 12/47/1 20/48/1 21/49/1
f 21/49/1 13/50/1 12/47/1
f 21/51/2 22/52/2 11/53/2
f 11/53/2 13/54/2 21/51/2
f 11/55/1 22/56/1 19/57/1
f 19/57/1 14/58/1 11/55/1
