# Blender v2.92.0 OBJ File: 'kenney_OGConvert.blend'
# www.blender.org
o roadCornerSmall
v -0.846460 0.010000 0.020214
v -0.846460 0.020000 0.020214
v -0.850412 0.020000 0.040082
v -0.850412 0.010000 0.040082
v -0.856924 0.010000 0.059264
v -0.856924 0.020000 0.059264
v -0.865883 0.020000 0.077433
v -0.865883 0.010000 0.077433
v -0.845135 0.010000 0.000000
v -0.845135 0.020000 0.000000
v -0.918347 0.020000 0.000000
v -0.877137 0.020000 0.094276
v -0.890494 0.020000 0.109506
v -0.905724 0.020000 0.122863
v -0.922567 0.020000 0.134117
v -0.919046 0.020000 0.010658
v -0.921130 0.020000 0.021133
v -0.924563 0.020000 0.031247
v -0.940736 0.020000 0.143077
v -0.929287 0.020000 0.040826
v -0.935221 0.020000 0.049707
v -0.942263 0.020000 0.057737
v -0.959918 0.020000 0.149588
v -0.950293 0.020000 0.064780
v -0.959174 0.020000 0.070713
v -0.968753 0.020000 0.075437
v -0.979786 0.020000 0.153540
v -0.978867 0.020000 0.078871
v -0.989342 0.020000 0.080954
v -1.000000 0.020000 0.154865
v -1.000000 0.020000 0.081653
v -0.935221 -0.000000 0.049707
v -0.942263 -0.000000 0.057737
v -0.968753 -0.000000 0.075437
v -0.978867 -0.000000 0.078871
v -0.921130 -0.000000 0.021133
v -0.924563 -0.000000 0.031247
v -0.918347 0.000000 0.000000
v -0.919046 -0.000000 0.010658
v -0.950293 -0.000000 0.064780
v -0.959174 -0.000000 0.070713
v -0.989342 -0.000000 0.080954
v -0.929287 -0.000000 0.040826
v -1.000000 -0.000000 0.081653
v -0.959918 0.010000 0.149588
v -0.940736 0.010000 0.143077
v -0.922567 0.010000 0.134117
v -0.905724 0.010000 0.122863
v -1.000000 0.010000 0.154865
v -0.979786 0.010000 0.153540
v -0.890494 0.010000 0.109506
v -0.877137 0.010000 0.094276
v -0.485514 0.010000 0.670491
v -0.577432 0.010000 0.731909
v -0.577432 0.020000 0.731909
v -0.485514 0.020000 0.670491
v -0.676581 0.010000 0.780803
v -0.676581 0.020000 0.780803
v -0.154865 0.020000 0.000000
v -0.154865 0.010000 0.000000
v -0.162095 0.010000 0.110312
v -0.162095 0.020000 0.110312
v -0.219197 0.020000 0.323419
v -0.219197 0.010000 0.323419
v -0.268091 0.010000 0.422568
v -0.268091 0.020000 0.422568
v -0.183662 0.010000 0.218737
v -0.183662 0.020000 0.218737
v -0.089509 0.020000 0.119868
v -0.081653 0.020000 0.000000
v -0.112944 0.020000 0.237686
v -0.151558 0.020000 0.351436
v -0.204688 0.020000 0.459174
v -0.271426 0.020000 0.559055
v -0.329509 0.020000 0.514486
v -0.350630 0.020000 0.649370
v -0.402399 0.020000 0.597601
v -0.440945 0.020000 0.728574
v -0.540826 0.020000 0.795312
v -0.648564 0.020000 0.848442
v -0.762314 0.020000 0.887056
v -0.781263 0.020000 0.816338
v -0.880132 0.020000 0.910491
v -0.889688 0.020000 0.837905
v -1.000000 0.020000 0.918347
v -1.000000 0.020000 0.845135
v -0.329509 0.010000 0.514486
v -0.402399 0.010000 0.597601
v -0.781263 0.010000 0.816338
v -0.204688 -0.000000 0.459174
v -0.271426 -0.000000 0.559055
v -0.151558 -0.000000 0.351436
v -0.112944 -0.000000 0.237686
v -0.089509 -0.000000 0.119868
v -0.889688 0.010000 0.837905
v -1.000000 0.010000 0.845135
v -0.762314 -0.000000 0.887056
v -0.648564 -0.000000 0.848442
v -0.350630 -0.000000 0.649370
v -0.540826 -0.000000 0.795312
v -1.000000 -0.000000 0.918347
v -0.880132 -0.000000 0.910491
v -0.440945 -0.000000 0.728574
v -0.081653 0.000000 0.000000
v -0.008555 -0.000000 0.130526
v 0.000000 0.000000 0.000000
v -0.034074 -0.000000 0.258819
v -0.076120 -0.000000 0.382683
v -0.133975 -0.000000 0.500000
v -0.206647 -0.000000 0.608761
v -0.292893 -0.000000 0.707107
v -0.391238 -0.000000 0.793353
v -0.500000 -0.000000 0.866025
v -0.617316 -0.000000 0.923880
v -0.741181 -0.000000 0.965926
v -0.869474 -0.000000 0.991445
v -1.000000 -0.000000 1.000000
v -1.000000 0.000000 0.000000
vt 0.128737 0.547820
vt 0.122385 0.554969
vt 0.122385 0.547820
vt 0.128737 0.554969
vt 0.128737 0.563453
vt 0.122385 0.573127
vt 0.122385 0.563453
vt 0.128737 0.573127
vt 0.128737 0.542129
vt 0.122385 0.542129
vt 0.022093 0.671572
vt 0.063461 0.648363
vt 0.030577 0.681247
vt 0.014944 0.660873
vt 0.009253 0.649333
vt 0.005116 0.637148
vt 0.002606 0.624528
vt 0.001765 0.611688
vt 0.002606 0.598848
vt 0.005116 0.586227
vt 0.058987 0.643262
vt 0.055218 0.637621
vt 0.052218 0.631536
vt 0.009253 0.574043
vt 0.050037 0.625112
vt 0.048713 0.618458
vt 0.048269 0.611688
vt 0.014944 0.562502
vt 0.048713 0.604918
vt 0.050037 0.598264
vt 0.052218 0.591839
vt 0.022093 0.551803
vt 0.055218 0.585755
vt 0.058987 0.580114
vt 0.030577 0.542129
vt 0.063461 0.575013
vt 0.144971 0.568582
vt 0.132267 0.575135
vt 0.132267 0.568582
vt 0.144971 0.575135
vt 0.132267 0.595373
vt 0.144971 0.601926
vt 0.132267 0.601926
vt 0.144971 0.595373
vt 0.144971 0.551056
vt 0.132267 0.556439
vt 0.132267 0.551056
vt 0.144971 0.556439
vt 0.144971 0.542129
vt 0.132267 0.546259
vt 0.132267 0.542129
vt 0.144971 0.546259
vt 0.132267 0.581862
vt 0.144971 0.588646
vt 0.132267 0.588646
vt 0.144971 0.581862
vt 0.144971 0.608194
vt 0.132267 0.608194
vt 0.132267 0.562314
vt 0.144971 0.562314
vt 0.144971 0.614069
vt 0.132267 0.614069
vt 0.128737 0.645852
vt 0.122385 0.633012
vt 0.128737 0.633012
vt 0.122385 0.645852
vt 0.122385 0.620172
vt 0.128737 0.620172
vt 0.122385 0.607551
vt 0.128737 0.607551
vt 0.128737 0.670657
vt 0.122385 0.658472
vt 0.128737 0.658472
vt 0.122385 0.670657
vt 0.122385 0.595367
vt 0.128737 0.595367
vt 0.128737 0.583826
vt 0.122385 0.583826
vt 0.991883 0.413016
vt 0.998235 0.483237
vt 0.991883 0.483237
vt 0.998235 0.413016
vt 0.998235 0.552858
vt 0.991883 0.552858
vt 0.998235 0.001765
vt 0.991883 0.044513
vt 0.991883 0.001765
vt 0.998235 0.044513
vt 0.998235 0.149877
vt 0.991883 0.210691
vt 0.991883 0.149877
vt 0.998235 0.210691
vt 0.991883 0.094167
vt 0.998235 0.094167
vt 0.888926 0.769363
vt 0.972121 0.793848
vt 0.939237 0.826732
vt 0.846533 0.705918
vt 0.812785 0.637483
vt 0.925821 0.741052
vt 0.788257 0.565228
vt 0.886808 0.682665
vt 0.855750 0.619686
vt 0.773371 0.490389
vt 0.833178 0.553191
vt 0.819478 0.484319
vt 0.768381 0.414248
vt 0.814885 0.414248
vt 0.773371 0.338107
vt 0.819478 0.344177
vt 0.788257 0.263269
vt 0.833178 0.275305
vt 0.812785 0.191014
vt 0.855749 0.208810
vt 0.846533 0.122578
vt 0.886808 0.145831
vt 0.888926 0.059133
vt 0.925821 0.087444
vt 0.939237 0.001765
vt 0.972121 0.034648
vt 0.991883 0.275567
vt 0.998235 0.275567
vt 0.991883 0.343395
vt 0.998235 0.343395
vt 0.998235 0.620687
vt 0.991883 0.620687
vt 0.988354 0.185586
vt 0.975650 0.249030
vt 0.975650 0.185586
vt 0.988354 0.249030
vt 0.988354 0.128217
vt 0.975650 0.128217
vt 0.988354 0.077906
vt 0.975650 0.077906
vt 0.988354 0.035513
vt 0.975650 0.035513
vt 0.991883 0.685563
vt 0.998235 0.746376
vt 0.991883 0.746376
vt 0.998235 0.685563
vt 0.988354 0.616842
vt 0.975650 0.540700
vt 0.988354 0.540700
vt 0.975650 0.616842
vt 0.975650 0.317466
vt 0.988354 0.317466
vt 0.975650 0.464559
vt 0.988354 0.464559
vt 0.988354 0.763935
vt 0.975650 0.691680
vt 0.988354 0.691680
vt 0.975650 0.763935
vt 0.975650 0.389721
vt 0.988354 0.389721
vt 0.988354 0.001765
vt 0.975650 0.001765
vt 0.673392 0.837612
vt 0.764851 0.863407
vt 0.728176 0.900082
vt 0.627230 0.768526
vt 0.590481 0.694006
vt 0.714540 0.806038
vt 0.563773 0.615327
vt 0.672148 0.742593
vt 0.638399 0.674158
vt 0.547563 0.533834
vt 0.613872 0.601903
vt 0.598986 0.527064
vt 0.542129 0.450923
vt 0.593995 0.450923
vt 0.547563 0.368012
vt 0.598985 0.374782
vt 0.563773 0.286520
vt 0.613872 0.299944
vt 0.590481 0.207840
vt 0.638399 0.227689
vt 0.627230 0.133320
vt 0.672148 0.159253
vt 0.673392 0.064234
vt 0.714540 0.095808
vt 0.728176 0.001765
vt 0.764851 0.038440
vt 0.067434 0.587225
vt 0.118856 0.593995
vt 0.066990 0.593995
vt 0.068757 0.580571
vt 0.070938 0.574147
vt 0.073939 0.568062
vt 0.077708 0.562421
vt 0.082181 0.557320
vt 0.087282 0.552847
vt 0.092923 0.549078
vt 0.099008 0.546077
vt 0.105432 0.543896
vt 0.112086 0.542572
vt 0.118856 0.542129
vt 0.006357 0.468529
vt 0.440229 0.538600
vt 0.001765 0.538600
vt 0.020057 0.399656
vt 0.042629 0.333162
vt 0.073687 0.270182
vt 0.112700 0.211795
vt 0.159000 0.159000
vt 0.211795 0.112700
vt 0.270182 0.073687
vt 0.333162 0.042629
vt 0.399656 0.020057
vt 0.468529 0.006357
vt 0.441070 0.525760
vt 0.443580 0.513139
vt 0.447717 0.500955
vt 0.453408 0.489414
vt 0.460557 0.478715
vt 0.469041 0.469041
vt 0.538600 0.001765
vt 0.478715 0.460557
vt 0.489414 0.453408
vt 0.500955 0.447717
vt 0.513139 0.443580
vt 0.525760 0.441070
vt 0.538600 0.440228
vn -0.9914 0.0000 -0.1305
vn -0.9659 0.0000 -0.2588
vn -0.9239 0.0000 -0.3827
vn -0.8660 0.0000 -0.5000
vn -0.9979 0.0000 -0.0654
vn 0.0000 -1.0000 0.0000
vn 0.7934 0.0000 0.6088
vn 0.7071 0.0000 0.7071
vn 0.3827 0.0000 0.9239
vn 0.2588 0.0000 0.9659
vn 0.9659 0.0000 0.2588
vn 0.9239 0.0000 0.3827
vn 0.9979 0.0000 0.0654
vn 0.9914 0.0000 0.1305
vn 0.6088 0.0000 0.7934
vn 0.5000 0.0000 0.8660
vn 0.1305 0.0000 0.9914
vn 0.1480 0.0313 0.9885
vn 0.8660 0.0000 0.5000
vn 0.0345 0.0577 0.9977
vn 0.0654 -0.0000 0.9979
vn -0.2588 0.0000 -0.9659
vn -0.3827 0.0000 -0.9239
vn -0.5000 0.0000 -0.8660
vn -0.6088 0.0000 -0.7934
vn -0.0654 0.0000 -0.9979
vn -0.1322 0.0047 -0.9912
vn -0.1305 0.0000 -0.9914
vn -0.0068 0.0289 -0.9996
vn -0.7071 0.0000 -0.7071
vn -0.7934 0.0000 -0.6088
vn 0.0003 0.0059 1.0000
vn 0.1304 0.0002 0.9915
vn -0.1308 0.0006 -0.9914
vn -0.0009 0.0107 -0.9999
s 1
f 1/1/1 3/2/2 2/3/1
f 3/2/2 1/1/1 4/4/2
f 5/5/3 7/6/4 6/7/3
f 7/6/4 5/5/3 8/8/4
f 4/4/2 6/7/3 3/2/2
f 6/7/3 4/4/2 5/5/3
f 9/9/5 2/3/1 10/10/5
f 2/3/1 9/9/5 1/1/1
f 2/11/6 11/12/6 10/13/6
f 11/12/6 2/11/6 3/14/6
f 11/12/6 3/14/6 6/15/6
f 11/12/6 6/15/6 7/16/6
f 11/12/6 7/16/6 12/17/6
f 11/12/6 12/17/6 13/18/6
f 11/12/6 13/18/6 14/19/6
f 11/12/6 14/19/6 15/20/6
f 11/12/6 15/20/6 16/21/6
f 16/21/6 15/20/6 17/22/6
f 17/22/6 15/20/6 18/23/6
f 18/23/6 15/20/6 19/24/6
f 18/23/6 19/24/6 20/25/6
f 20/25/6 19/24/6 21/26/6
f 21/26/6 19/24/6 22/27/6
f 22/27/6 19/24/6 23/28/6
f 22/27/6 23/28/6 24/29/6
f 24/29/6 23/28/6 25/30/6
f 25/30/6 23/28/6 26/31/6
f 26/31/6 23/28/6 27/32/6
f 26/31/6 27/32/6 28/33/6
f 28/33/6 27/32/6 29/34/6
f 29/34/6 27/32/6 30/35/6
f 29/34/6 30/35/6 31/36/6
f 21/37/7 33/38/8 32/39/7
f 33/38/8 21/37/7 22/40/8
f 34/41/9 28/42/10 35/43/10
f 28/42/10 34/41/9 26/44/9
f 17/45/11 37/46/12 36/47/11
f 37/46/12 17/45/11 18/48/12
f 11/49/13 39/50/14 38/51/13
f 39/50/14 11/49/13 16/52/14
f 40/53/15 25/54/16 41/55/16
f 25/54/16 40/53/15 24/56/15
f 16/52/14 36/47/11 39/50/14
f 36/47/11 16/52/14 17/45/11
f 41/55/16 26/44/9 34/41/9
f 26/44/9 41/55/16 25/54/16
f 35/43/10 29/57/17 42/58/18
f 29/57/17 35/43/10 28/42/10
f 18/48/12 43/59/19 37/46/12
f 43/59/19 18/48/12 20/60/19
f 42/58/20 31/61/21 44/62/21
f 31/61/21 42/58/18 29/57/17
f 20/60/19 32/39/7 43/59/19
f 32/39/7 20/60/19 21/37/7
f 45/63/22 19/64/23 46/65/23
f 19/64/23 45/63/22 23/66/22
f 46/65/23 15/67/24 47/68/24
f 15/67/24 46/65/23 19/64/23
f 47/68/24 14/69/25 48/70/25
f 14/69/25 47/68/24 15/67/24
f 49/71/26 27/72/27 50/73/28
f 27/72/29 49/71/26 30/74/26
f 50/73/28 23/66/22 45/63/22
f 23/66/22 50/73/28 27/72/27
f 48/70/25 13/75/30 51/76/30
f 13/75/30 48/70/25 14/69/25
f 52/77/31 13/75/30 12/78/31
f 13/75/30 52/77/31 51/76/30
f 8/8/4 12/78/31 7/6/4
f 12/78/31 8/8/4 52/77/31
f 33/38/8 24/56/15 40/53/15
f 24/56/15 33/38/8 22/40/8
f 53/79/15 55/80/16 54/81/16
f 55/80/16 53/79/15 56/82/15
f 54/81/16 58/83/9 57/84/9
f 58/83/9 54/81/16 55/80/16
f 59/85/13 61/86/14 60/87/13
f 61/86/14 59/85/13 62/88/14
f 63/89/12 65/90/19 64/91/12
f 65/90/19 63/89/12 66/92/19
f 62/88/14 67/93/11 61/86/14
f 67/93/11 62/88/14 68/94/11
f 69/95/6 59/96/6 70/97/6
f 59/96/6 69/95/6 71/98/6
f 59/96/6 71/98/6 72/99/6
f 59/96/6 72/99/6 62/100/6
f 62/100/6 72/99/6 73/101/6
f 62/100/6 73/101/6 68/102/6
f 68/102/6 73/101/6 63/103/6
f 63/103/6 73/101/6 74/104/6
f 63/103/6 74/104/6 66/105/6
f 66/105/6 74/104/6 75/106/6
f 75/106/6 74/104/6 76/107/6
f 75/106/6 76/107/6 77/108/6
f 77/108/6 76/107/6 78/109/6
f 77/108/6 78/109/6 56/110/6
f 56/110/6 78/109/6 79/111/6
f 56/110/6 79/111/6 55/112/6
f 55/112/6 79/111/6 80/113/6
f 55/112/6 80/113/6 58/114/6
f 58/114/6 80/113/6 81/115/6
f 58/114/6 81/115/6 82/116/6
f 82/116/6 81/115/6 83/117/6
f 82/116/6 83/117/6 84/118/6
f 84/118/6 83/117/6 85/119/6
f 84/118/6 85/119/6 86/120/6
f 68/94/11 64/91/12 67/93/11
f 64/91/12 68/94/11 63/89/12
f 66/92/19 87/121/7 65/90/19
f 87/121/7 66/92/19 75/122/7
f 75/122/7 88/123/8 87/121/7
f 88/123/8 75/122/7 77/124/8
f 88/123/8 56/82/15 53/79/15
f 56/82/15 88/123/8 77/124/8
f 57/84/9 82/125/10 89/126/10
f 82/125/10 57/84/9 58/83/9
f 90/127/4 74/128/31 73/129/4
f 74/128/31 90/127/4 91/130/31
f 92/131/3 73/129/4 72/132/3
f 73/129/4 92/131/3 90/127/4
f 93/133/2 72/132/3 71/134/2
f 72/132/3 93/133/2 92/131/3
f 94/135/1 71/134/2 69/136/1
f 71/134/2 94/135/1 93/133/2
f 95/137/32 86/138/21 96/139/21
f 86/138/21 95/137/33 84/140/17
f 97/141/22 80/142/23 98/143/23
f 80/142/23 97/141/22 81/144/22
f 89/126/10 84/140/17 95/137/33
f 84/140/17 89/126/10 82/125/10
f 91/130/31 76/145/30 74/128/31
f 76/145/30 91/130/31 99/146/30
f 98/143/23 79/147/24 100/148/24
f 79/147/24 98/143/23 80/142/23
f 101/149/26 83/150/34 102/151/28
f 83/150/35 101/149/26 85/152/26
f 100/148/24 78/153/25 103/154/25
f 78/153/25 100/148/24 79/147/24
f 103/154/25 76/145/30 99/146/30
f 76/145/30 103/154/25 78/153/25
f 102/151/28 81/144/22 97/141/22
f 81/144/22 102/151/28 83/150/34
f 104/155/5 69/136/1 70/156/5
f 69/136/1 104/155/5 94/135/1
f 105/157/6 104/158/6 106/159/6
f 104/158/6 105/157/6 107/160/6
f 104/158/6 107/160/6 108/161/6
f 104/158/6 108/161/6 94/162/6
f 94/162/6 108/161/6 109/163/6
f 94/162/6 109/163/6 93/164/6
f 93/164/6 109/163/6 92/165/6
f 92/165/6 109/163/6 110/166/6
f 92/165/6 110/166/6 90/167/6
f 90/167/6 110/166/6 91/168/6
f 91/168/6 110/166/6 111/169/6
f 91/168/6 111/169/6 99/170/6
f 99/170/6 111/169/6 112/171/6
f 99/170/6 112/171/6 103/172/6
f 103/172/6 112/171/6 113/173/6
f 103/172/6 113/173/6 100/174/6
f 100/174/6 113/173/6 114/175/6
f 100/174/6 114/175/6 98/176/6
f 98/176/6 114/175/6 115/177/6
f 98/176/6 115/177/6 97/178/6
f 97/178/6 115/177/6 116/179/6
f 97/178/6 116/179/6 102/180/6
f 102/180/6 116/179/6 117/181/6
f 102/180/6 117/181/6 101/182/6
f 39/183/6 118/184/6 38/185/6
f 118/184/6 39/183/6 36/186/6
f 118/184/6 36/186/6 37/187/6
f 118/184/6 37/187/6 43/188/6
f 118/184/6 43/188/6 32/189/6
f 118/184/6 32/189/6 33/190/6
f 118/184/6 33/190/6 40/191/6
f 118/184/6 40/191/6 41/192/6
f 118/184/6 41/192/6 34/193/6
f 118/184/6 34/193/6 35/194/6
f 118/184/6 35/194/6 42/195/6
f 118/184/6 42/195/6 44/196/6
f 61/197/6 9/198/6 60/199/6
f 9/198/6 61/197/6 67/200/6
f 9/198/6 67/200/6 64/201/6
f 9/198/6 64/201/6 65/202/6
f 9/198/6 65/202/6 87/203/6
f 9/198/6 87/203/6 88/204/6
f 9/198/6 88/204/6 53/205/6
f 9/198/6 53/205/6 54/206/6
f 9/198/6 54/206/6 57/207/6
f 9/198/6 57/207/6 89/208/6
f 9/198/6 89/208/6 95/209/6
f 9/198/6 95/209/6 1/210/6
f 1/210/6 95/209/6 4/211/6
f 4/211/6 95/209/6 5/212/6
f 5/212/6 95/209/6 8/213/6
f 8/213/6 95/209/6 52/214/6
f 52/214/6 95/209/6 51/215/6
f 51/215/6 95/209/6 96/216/6
f 51/215/6 96/216/6 48/217/6
f 48/217/6 96/216/6 47/218/6
f 47/218/6 96/216/6 46/219/6
f 46/219/6 96/216/6 45/220/6
f 45/220/6 96/216/6 50/221/6
f 50/221/6 96/216/6 49/222/6
