# Blender v2.92.0 OBJ File: 'kenney_OGConvert.blend'
# www.blender.org
o roadEnd
v -0.918347 0.020000 1.000000
v -0.918347 -0.000000 1.000000
v -0.904092 -0.000000 1.108276
v -0.904092 0.020000 1.108276
v -0.589327 0.010000 1.333375
v -0.672567 0.010000 1.298896
v -0.672567 0.020000 1.298896
v -0.589327 0.020000 1.333375
v -0.500000 0.010000 1.345135
v -0.500000 0.020000 1.345135
v -0.833375 0.010000 1.089327
v -0.833375 0.020000 1.089327
v -0.798896 0.020000 1.172568
v -0.798896 0.010000 1.172568
v -0.255952 0.010000 1.244047
v -0.327432 0.010000 1.298896
v -0.327432 0.020000 1.298896
v -0.255952 0.020000 1.244047
v -0.845135 0.010000 1.000000
v -0.845135 0.020000 1.000000
v -0.744047 0.020000 1.244047
v -0.744047 0.010000 1.244047
v -0.410672 0.010000 1.333375
v -0.410672 0.020000 1.333375
v -0.154865 0.020000 1.000000
v -0.154865 0.010000 1.000000
v -0.166625 0.010000 1.089327
v -0.166625 0.020000 1.089327
v -0.201104 0.010000 1.172568
v -0.201104 0.020000 1.172568
v -0.391723 -0.000000 1.404092
v -0.290826 -0.000000 1.362300
v -0.290826 0.020000 1.362300
v -0.391723 0.020000 1.404092
v -0.095907 -0.000000 1.108276
v -0.095907 0.020000 1.108276
v -0.137700 0.020000 1.209174
v -0.137700 -0.000000 1.209174
v -0.081652 -0.000000 1.000000
v -0.081652 0.020000 1.000000
v -0.709173 -0.000000 1.362300
v -0.608276 -0.000000 1.404092
v -0.608276 0.020000 1.404092
v -0.709173 0.020000 1.362300
v -0.204183 0.020000 1.295816
v -0.204183 -0.000000 1.295816
v -0.500000 -0.000000 1.418347
v -0.500000 0.020000 1.418347
v -0.862299 -0.000000 1.209174
v -0.862299 0.020000 1.209174
v -0.795816 -0.000000 1.295816
v -0.795816 0.020000 1.295816
v -0.154865 0.020000 0.000000
v -0.154865 0.010000 0.000000
v -0.845135 0.010000 0.000000
v -0.845135 0.020000 0.000000
v -0.918347 0.020000 0.000000
v -0.918347 0.000000 0.000000
v -0.081653 0.020000 0.000000
v -0.081653 0.000000 0.000000
v -1.000000 0.000000 0.000000
v -0.933012 -0.000000 1.250000
v -0.982963 -0.000000 1.129410
v -1.000000 -0.000000 1.000000
v -0.853553 -0.000000 1.353553
v -0.750000 -0.000000 1.433013
v -0.629409 -0.000000 1.482963
v -0.500000 -0.000000 1.500000
v -0.370590 -0.000000 1.482963
v -0.250000 -0.000000 1.433013
v -0.146446 -0.000000 1.353553
v -0.066987 -0.000000 1.250000
v -0.017037 -0.000000 1.129410
v 0.000000 -0.000000 1.000000
v 0.000000 0.000000 0.000000
vt 0.991530 0.384990
vt 0.983828 0.426006
vt 0.983828 0.384990
vt 0.991530 0.426006
vt 0.725730 0.654349
vt 0.729580 0.684394
vt 0.725730 0.684394
vt 0.729580 0.654349
vt 0.725730 0.620837
vt 0.729580 0.620837
vt 0.998460 0.419657
vt 0.994609 0.452791
vt 0.994609 0.419657
vt 0.998460 0.452791
vt 0.725730 0.522586
vt 0.729580 0.552632
vt 0.725730 0.552632
vt 0.729580 0.522586
vt 0.998460 0.384990
vt 0.994609 0.384990
vt 0.994609 0.482133
vt 0.998460 0.482133
vt 0.729580 0.586143
vt 0.725730 0.586143
vt 0.729580 0.708927
vt 0.725730 0.708927
vt 0.998460 0.880633
vt 0.994609 0.915300
vt 0.994609 0.880633
vt 0.998460 0.915300
vt 0.994609 0.948434
vt 0.998460 0.948434
vt 0.994609 0.977775
vt 0.998460 0.977775
vt 0.722650 0.599625
vt 0.714949 0.559005
vt 0.722650 0.559005
vt 0.714949 0.599625
vt 0.991530 0.921649
vt 0.983828 0.958866
vt 0.983828 0.921649
vt 0.991530 0.958866
vt 0.991530 0.880633
vt 0.983828 0.880633
vt 0.722650 0.718719
vt 0.714949 0.682299
vt 0.722650 0.682299
vt 0.714949 0.718719
vt 0.983828 0.989746
vt 0.991530 0.989746
vt 0.714949 0.641679
vt 0.722650 0.641679
vt 0.983828 0.463223
vt 0.991530 0.463223
vt 0.722650 0.748455
vt 0.714949 0.748455
vt 0.714949 0.522586
vt 0.722650 0.522586
vt 0.983828 0.494103
vt 0.991530 0.494103
vt 0.998460 0.497183
vt 0.994609 0.497183
vt 0.998460 0.001540
vt 0.994609 0.001540
vt 0.991530 0.001540
vt 0.983828 0.001540
vt 0.683677 0.162631
vt 0.711869 0.547698
vt 0.683677 0.547698
vt 0.690287 0.082085
vt 0.706380 0.120938
vt 0.711869 0.162631
vt 0.679149 0.128234
vt 0.665872 0.096181
vt 0.664686 0.048722
vt 0.644752 0.068657
vt 0.631323 0.023122
vt 0.617227 0.047536
vt 0.592471 0.007029
vt 0.585174 0.034260
vt 0.550777 0.001540
vt 0.550777 0.029731
vt 0.516380 0.034260
vt 0.509084 0.007029
vt 0.484327 0.047536
vt 0.470232 0.023122
vt 0.456803 0.068657
vt 0.436869 0.048722
vt 0.435683 0.096181
vt 0.422406 0.128234
vt 0.411268 0.082085
vt 0.417877 0.162631
vt 0.417877 0.547698
vt 0.395175 0.120938
vt 0.389686 0.162631
vt 0.389686 0.547698
vt 0.991530 0.497183
vt 0.983828 0.497183
vt 0.355165 0.194073
vt 0.386606 0.579139
vt 0.355165 0.579139
vt 0.360812 0.097806
vt 0.380046 0.144242
vt 0.386606 0.194073
vt 0.349676 0.152380
vt 0.333582 0.113527
vt 0.330215 0.057932
vt 0.307982 0.080164
vt 0.290340 0.027334
vt 0.274619 0.054563
vt 0.243904 0.008100
vt 0.235767 0.038471
vt 0.194073 0.001540
vt 0.194073 0.032982
vt 0.152379 0.038471
vt 0.144242 0.008100
vt 0.113527 0.054563
vt 0.097806 0.027334
vt 0.080164 0.080164
vt 0.057932 0.057932
vt 0.054564 0.113527
vt 0.038471 0.152380
vt 0.027334 0.097806
vt 0.032982 0.194073
vt 0.032982 0.579139
vt 0.008100 0.144242
vt 0.001540 0.194073
vt 0.001540 0.579139
vt 0.714949 0.134440
vt 0.980749 0.519506
vt 0.714949 0.519506
vt 0.719477 0.100043
vt 0.732754 0.067990
vt 0.753874 0.040465
vt 0.781399 0.019345
vt 0.813452 0.006068
vt 0.847849 0.001540
vt 0.882246 0.006068
vt 0.914299 0.019345
vt 0.941823 0.040465
vt 0.962943 0.067990
vt 0.976220 0.100043
vt 0.980749 0.134440
vn 0.9979 0.0000 -0.0654
vn 0.9659 0.0000 -0.2588
vn -0.2588 0.0000 0.9659
vn -0.5000 0.0000 0.8660
vn -0.0000 0.0000 1.0000
vn -0.9659 0.0000 0.2588
vn -0.8660 0.0000 0.5000
vn 0.7071 0.0000 0.7071
vn 0.5000 0.0000 0.8660
vn -0.9979 0.0000 0.0654
vn -0.7071 0.0000 0.7071
vn 0.2588 0.0000 0.9659
vn 0.9979 0.0000 0.0654
vn 0.9659 0.0000 0.2588
vn 0.8660 0.0000 0.5000
vn -0.2588 0.0000 -0.9659
vn -0.5000 0.0000 -0.8660
vn -0.9659 0.0000 -0.2588
vn -0.8660 0.0000 -0.5000
vn -0.9979 0.0000 -0.0654
vn 0.5000 0.0000 -0.8660
vn 0.2588 0.0000 -0.9659
vn -0.7071 0.0000 -0.7071
vn -0.0000 0.0000 -1.0000
vn 0.8660 0.0000 -0.5000
vn 0.7071 0.0000 -0.7071
vn 1.0000 0.0000 -0.0000
vn -1.0000 0.0000 0.0000
vn 0.0000 -1.0000 -0.0000
s 1
f 1/1/1 3/2/2 2/3/1
f 3/2/2 1/1/1 4/4/2
f 5/5/3 7/6/4 6/7/4
f 7/6/4 5/5/3 8/8/3
f 9/9/5 8/8/3 5/5/3
f 8/8/3 9/9/5 10/10/5
f 11/11/6 13/12/7 12/13/6
f 13/12/7 11/11/6 14/14/7
f 15/15/8 17/16/9 16/17/9
f 17/16/9 15/15/8 18/18/8
f 19/19/10 12/13/6 20/20/10
f 12/13/6 19/19/10 11/11/6
f 14/14/7 21/21/11 13/12/7
f 21/21/11 14/14/7 22/22/11
f 16/17/9 24/23/12 23/24/12
f 24/23/12 16/17/9 17/16/9
f 6/7/4 21/25/11 22/26/11
f 21/25/11 6/7/4 7/6/4
f 25/27/13 27/28/14 26/29/13
f 27/28/14 25/27/13 28/30/14
f 23/24/12 10/10/5 9/9/5
f 10/10/5 23/24/12 24/23/12
f 28/30/14 29/31/15 27/28/14
f 29/31/15 28/30/14 30/32/15
f 30/32/15 15/33/8 29/31/15
f 15/33/8 30/32/15 18/34/8
f 31/35/16 33/36/17 32/37/17
f 33/36/17 31/35/16 34/38/16
f 35/39/18 37/40/19 36/41/18
f 37/40/19 35/39/18 38/42/19
f 39/43/20 36/41/18 40/44/20
f 36/41/18 39/43/20 35/39/18
f 41/45/21 43/46/22 42/47/22
f 43/46/22 41/45/21 44/48/21
f 38/42/19 45/49/23 37/40/19
f 45/49/23 38/42/19 46/50/23
f 42/47/22 48/51/24 47/52/24
f 48/51/24 42/47/22 43/46/22
f 4/4/2 49/53/25 3/2/2
f 49/53/25 4/4/2 50/54/25
f 47/52/24 34/38/16 31/35/16
f 34/38/16 47/52/24 48/51/24
f 51/55/26 44/48/21 41/45/21
f 44/48/21 51/55/26 52/56/26
f 32/37/17 45/57/23 46/58/23
f 45/57/23 32/37/17 33/36/17
f 50/54/25 51/59/26 49/53/25
f 51/59/26 50/54/25 52/60/26
f 53/61/27 26/29/13 54/62/27
f 26/29/13 53/61/27 25/27/13
f 55/63/28 20/20/10 56/64/28
f 20/20/10 55/63/28 19/19/10
f 57/65/27 2/3/1 58/66/27
f 2/3/1 57/65/27 1/1/1
f 20/67/29 57/68/29 56/69/29
f 57/68/29 20/67/29 50/70/29
f 57/68/29 50/70/29 4/71/29
f 57/68/29 4/71/29 1/72/29
f 12/73/29 50/70/29 20/67/29
f 13/74/29 50/70/29 12/73/29
f 13/74/29 52/75/29 50/70/29
f 21/76/29 52/75/29 13/74/29
f 21/76/29 44/77/29 52/75/29
f 7/78/29 44/77/29 21/76/29
f 7/78/29 43/79/29 44/77/29
f 8/80/29 43/79/29 7/78/29
f 8/80/29 48/81/29 43/79/29
f 10/82/29 48/81/29 8/80/29
f 24/83/29 48/81/29 10/82/29
f 24/83/29 34/84/29 48/81/29
f 17/85/29 34/84/29 24/83/29
f 17/85/29 33/86/29 34/84/29
f 18/87/29 33/86/29 17/85/29
f 18/87/29 45/88/29 33/86/29
f 30/89/29 45/88/29 18/87/29
f 28/90/29 45/88/29 30/89/29
f 28/90/29 37/91/29 45/88/29
f 25/92/29 37/91/29 28/90/29
f 53/93/29 37/91/29 25/92/29
f 53/93/29 36/94/29 37/91/29
f 53/93/29 40/95/29 36/94/29
f 40/95/29 53/93/29 59/96/29
f 60/97/28 40/44/20 59/98/28
f 40/44/20 60/97/28 39/43/20
f 2/99/29 61/100/29 58/101/29
f 61/100/29 2/99/29 62/102/29
f 61/100/29 62/102/29 63/103/29
f 61/100/29 63/103/29 64/104/29
f 3/105/29 62/102/29 2/99/29
f 49/106/29 62/102/29 3/105/29
f 49/106/29 65/107/29 62/102/29
f 51/108/29 65/107/29 49/106/29
f 51/108/29 66/109/29 65/107/29
f 41/110/29 66/109/29 51/108/29
f 41/110/29 67/111/29 66/109/29
f 42/112/29 67/111/29 41/110/29
f 42/112/29 68/113/29 67/111/29
f 47/114/29 68/113/29 42/112/29
f 31/115/29 68/113/29 47/114/29
f 31/115/29 69/116/29 68/113/29
f 32/117/29 69/116/29 31/115/29
f 32/117/29 70/118/29 69/116/29
f 46/119/29 70/118/29 32/117/29
f 46/119/29 71/120/29 70/118/29
f 38/121/29 71/120/29 46/119/29
f 35/122/29 71/120/29 38/121/29
f 35/122/29 72/123/29 71/120/29
f 39/124/29 72/123/29 35/122/29
f 60/125/29 72/123/29 39/124/29
f 60/125/29 73/126/29 72/123/29
f 60/125/29 74/127/29 73/126/29
f 74/127/29 60/125/29 75/128/29
f 26/129/29 55/130/29 54/131/29
f 55/130/29 26/129/29 27/132/29
f 55/130/29 27/132/29 29/133/29
f 55/130/29 29/133/29 15/134/29
f 55/130/29 15/134/29 16/135/29
f 55/130/29 16/135/29 23/136/29
f 55/130/29 23/136/29 9/137/29
f 55/130/29 9/137/29 5/138/29
f 55/130/29 5/138/29 6/139/29
f 55/130/29 6/139/29 22/140/29
f 55/130/29 22/140/29 14/141/29
f 55/130/29 14/141/29 11/142/29
f 55/130/29 11/142/29 19/143/29
