# Blender v2.92.0 OBJ File: 'OGConvert.blend'
# www.blender.org
o tentClosedLong
v 0.000000 3.440000 0.000000
v 0.000000 4.160000 0.000000
v 0.000000 4.159999 8.000000
v 0.000000 3.440000 0.160000
v 0.000000 3.440000 7.839999
v 0.000000 3.440000 8.000000
v -0.160000 3.440000 8.000000
v -15.840000 3.440000 8.000000
v -16.000000 3.440000 8.000000
v -16.000000 4.159999 8.000000
v -16.000000 4.160000 0.000000
v -15.840000 3.440000 0.000000
v -16.000000 3.440000 0.000000
v -0.160000 3.440000 0.000000
v -16.000000 3.440000 0.160000
v -16.000000 3.440000 7.839999
v -0.160000 3.440000 0.160000
v -2.120000 3.440000 0.160000
v -13.880000 3.440000 0.160000
v -15.840000 3.440000 0.160000
v -15.840000 3.440000 7.839999
v -0.160000 3.440000 7.839999
v -3.620000 5.600000 4.380001
v -3.620000 5.600000 3.620000
v -12.380000 5.600000 3.620000
v -12.380000 5.600000 4.380001
v -0.160000 -0.000000 0.160000
v -0.160000 -0.000000 7.839999
v -15.840000 -0.000000 0.160000
v -15.840000 -0.000000 7.839999
v -13.880000 -0.000000 0.160000
v -2.120000 -0.000000 0.160000
v 0.000000 0.000000 0.000000
v 0.000000 -0.000000 0.160000
v -0.160000 0.000000 0.000000
v -16.000000 0.000000 0.000000
v -16.000000 -0.000000 0.160000
v -15.840000 0.000000 0.000000
v -15.840000 -0.000000 8.000000
v -16.000000 -0.000000 8.000000
v -16.000000 -0.000000 7.839999
v 0.000000 -0.000000 7.839999
v -0.160000 -0.000000 8.000000
v 0.000000 -0.000000 8.000000
vt 0.250000 0.603911
vt 0.250000 0.626185
vt 0.002510 0.626185
vt 0.245050 0.603911
vt 0.007460 0.603911
vt 0.002510 0.603911
vt 0.490135 0.507459
vt 0.490135 0.502510
vt 0.512409 0.502510
vt 0.490135 0.992540
vt 0.490135 0.997490
vt 0.512409 0.997490
vt 0.383714 0.002510
vt 0.631205 0.002510
vt 0.631205 0.497490
vt 0.383714 0.497490
vt 0.356421 0.007459
vt 0.356421 0.002510
vt 0.378695 0.002510
vt 0.356421 0.492540
vt 0.356421 0.497490
vt 0.378695 0.497490
vt 0.628869 0.502510
vt 0.651143 0.502510
vt 0.651143 0.507459
vt 0.628869 0.750000
vt 0.651143 0.745050
vt 0.651143 0.750000
vt 0.883714 0.492540
vt 0.878765 0.492540
vt 0.878765 0.431905
vt 0.883714 0.007459
vt 0.878765 0.068095
vt 0.878765 0.007459
vt 0.641174 0.007459
vt 0.641174 0.492540
vt 0.878765 0.497490
vt 0.641174 0.497490
vt 0.641174 0.002510
vt 0.878765 0.002510
vt 0.636224 0.007459
vt 0.636224 0.492540
vt 0.495704 0.114499
vt 0.519215 0.114499
vt 0.519215 0.385501
vt 0.495704 0.385501
vt 0.113950 0.631205
vt 0.220371 0.631205
vt 0.220371 0.868795
vt 0.113950 0.868795
vt 0.002510 0.631205
vt 0.108931 0.631205
vt 0.108931 0.868795
vt 0.002510 0.868795
vt 0.517429 0.987591
vt 0.517429 0.502510
vt 0.623849 0.502510
vt 0.623849 0.987591
vt 0.351680 0.737625
vt 0.291045 0.737625
vt 0.291045 0.631205
vt 0.351680 0.631205
vt 0.286025 0.737625
vt 0.225390 0.737625
vt 0.225390 0.631205
vt 0.286025 0.631205
vt 0.250000 0.497490
vt 0.245050 0.497490
vt 0.245050 0.492540
vt 0.250000 0.492540
vt 0.777502 0.608931
vt 0.772552 0.608931
vt 0.772552 0.502510
vt 0.777502 0.502510
vt 0.883714 0.497490
vt 0.787471 0.502510
vt 0.787471 0.608931
vt 0.782521 0.608931
vt 0.782521 0.502510
vt 0.757564 0.502510
vt 0.757564 0.507460
vt 0.361649 0.737625
vt 0.356699 0.737625
vt 0.356699 0.631205
vt 0.361649 0.631205
vt 0.250000 0.007459
vt 0.250000 0.002510
vt 0.245050 0.007459
vt 0.245050 0.002510
vt 0.787471 0.613950
vt 0.787471 0.720371
vt 0.782521 0.720371
vt 0.782521 0.613950
vt 0.883714 0.002510
vt 0.378695 0.631205
vt 0.378695 0.737625
vt 0.373745 0.737625
vt 0.373745 0.631205
vt 0.383714 0.997490
vt 0.383714 0.992540
vt 0.230340 0.742645
vt 0.230340 0.747595
vt 0.225390 0.747595
vt 0.225390 0.742645
vt 0.636224 0.002510
vt 0.757564 0.745050
vt 0.757564 0.750000
vt 0.767533 0.608930
vt 0.762583 0.608930
vt 0.762583 0.502510
vt 0.767533 0.502510
vt 0.777502 0.720371
vt 0.772552 0.720371
vt 0.772552 0.613950
vt 0.777502 0.613950
vt 0.636224 0.497490
vt 0.383714 0.507459
vt 0.383714 0.502510
vt 0.767533 0.613950
vt 0.767533 0.720371
vt 0.762583 0.720371
vt 0.762583 0.613950
vt 0.007460 0.497490
vt 0.002510 0.497490
vt 0.002510 0.492540
vt 0.007460 0.492540
vn 1.0000 0.0000 0.0000
vn 0.0000 0.0000 1.0000
vn 0.0000 1.0000 0.0000
vn 0.0000 0.0000 -1.0000
vn -1.0000 0.0000 0.0000
vn 0.0000 -1.0000 0.0000
vn 0.0000 0.9292 0.3696
vn 0.0000 0.9292 -0.3696
vn -0.3696 0.9292 0.0000
vn 0.3696 0.9292 0.0000
s 1
f 1/1/1 2/2/1 3/3/1
f 3/3/1 4/4/1 1/1/1
f 3/3/1 5/5/1 4/4/1
f 3/3/1 6/6/1 5/5/1
f 7/7/2 6/8/2 3/9/2
f 3/9/2 8/10/2 7/7/2
f 3/9/2 9/11/2 8/10/2
f 3/9/2 10/12/2 9/11/2
f 3/13/3 2/14/3 11/15/3
f 11/15/3 10/16/3 3/13/3
f 12/17/4 13/18/4 11/19/4
f 11/19/4 14/20/4 12/17/4
f 11/19/4 1/21/4 14/20/4
f 11/19/4 2/22/4 1/21/4
f 11/23/5 13/24/5 15/25/5
f 15/25/5 10/26/5 11/23/5
f 15/25/5 16/27/5 10/26/5
f 16/27/5 9/28/5 10/26/5
f 14/29/6 17/30/6 18/31/6
f 18/31/6 12/32/6 14/29/6
f 18/31/6 19/33/6 12/32/6
f 19/33/6 20/34/6 12/32/6
f 21/35/6 18/31/6 17/30/6
f 21/35/6 19/33/6 18/31/6
f 21/35/6 20/34/6 19/33/6
f 17/30/6 22/36/6 21/35/6
f 22/36/6 17/30/6 4/37/6
f 4/37/6 5/38/6 22/36/6
f 20/34/6 21/35/6 16/39/6
f 16/39/6 15/40/6 20/34/6
f 8/41/6 21/35/6 22/36/6
f 22/36/6 7/42/6 8/41/6
f 23/43/3 24/44/3 25/45/3
f 25/45/3 26/46/3 23/43/3
f 10/16/7 3/13/7 23/43/7
f 23/43/7 26/46/7 10/16/7
f 24/44/8 2/14/8 11/15/8
f 11/15/8 25/45/8 24/44/8
f 26/46/9 25/45/9 11/15/9
f 11/15/9 10/16/9 26/46/9
f 3/13/10 2/14/10 24/44/10
f 24/44/10 23/43/10 3/13/10
f 27/47/1 17/48/1 22/49/1
f 22/49/1 28/50/1 27/47/1
f 20/51/5 29/52/5 30/53/5
f 30/53/5 21/54/5 20/51/5
f 30/55/2 28/56/2 22/57/2
f 22/57/2 21/58/2 30/55/2
f 31/59/4 29/60/4 20/61/4
f 20/61/4 19/62/4 31/59/4
f 27/63/4 32/64/4 18/65/4
f 18/65/4 17/66/4 27/63/4
f 33/67/1 1/1/1 4/4/1
f 4/4/1 34/68/1 33/67/1
f 33/67/6 34/68/6 27/69/6
f 27/69/6 35/70/6 33/67/6
f 27/71/2 34/72/2 4/73/2
f 4/73/2 17/74/2 27/71/2
f 1/75/6 4/37/6 17/30/6
f 17/30/6 14/29/6 1/75/6
f 14/76/5 35/77/5 27/78/5
f 27/78/5 17/79/5 14/76/5
f 33/67/4 35/70/4 14/20/4
f 14/20/4 1/21/4 33/67/4
f 13/24/5 36/80/5 37/81/5
f 37/81/5 15/25/5 13/24/5
f 37/82/2 29/83/2 20/84/2
f 20/84/2 15/85/2 37/82/2
f 38/86/4 36/87/4 13/18/4
f 13/18/4 12/17/4 38/86/4
f 38/86/6 29/88/6 37/89/6
f 37/89/6 36/87/6 38/86/6
f 38/90/1 12/91/1 20/92/1
f 20/92/1 29/93/1 38/90/1
f 12/32/6 20/34/6 15/40/6
f 15/40/6 13/94/6 12/32/6
f 30/95/1 21/96/1 8/97/1
f 8/97/1 39/98/1 30/95/1
f 40/99/2 39/100/2 8/10/2
f 8/10/2 9/11/2 40/99/2
f 30/101/6 39/102/6 40/103/6
f 40/103/6 41/104/6 30/101/6
f 21/35/6 8/41/6 9/105/6
f 9/105/6 16/39/6 21/35/6
f 16/27/5 41/106/5 40/107/5
f 40/107/5 9/28/5 16/27/5
f 30/108/4 41/109/4 16/110/4
f 16/110/4 21/111/4 30/108/4
f 42/112/4 28/113/4 22/114/4
f 22/114/4 5/115/4 42/112/4
f 5/38/6 6/116/6 7/42/6
f 7/42/6 22/36/6 5/38/6
f 43/117/2 44/118/2 6/8/2
f 6/8/2 7/7/2 43/117/2
f 22/119/5 28/120/5 43/121/5
f 43/121/5 7/122/5 22/119/5
f 42/123/6 44/124/6 43/125/6
f 43/125/6 28/126/6 42/123/6
f 42/123/1 5/5/1 6/6/1
f 6/6/1 44/124/1 42/123/1
