# Blender v2.92.0 OBJ File: 'kenney_OGConvert.blend'
# www.blender.org
o tent
v 0.000000 0.430000 0.000000
v 0.000000 0.520000 0.000000
v 0.000000 0.520000 1.000000
v 0.000000 0.430000 0.020000
v 0.000000 0.430000 0.980000
v 0.000000 0.430000 1.000000
v -0.020000 0.430000 1.000000
v -0.980000 0.430000 1.000000
v -1.000000 0.430000 1.000000
v -1.000000 0.520000 1.000000
v -1.000000 0.520000 0.000000
v -0.980000 0.430000 0.000000
v -1.000000 0.430000 0.000000
v -0.020000 0.430000 0.000000
v -1.000000 0.430000 0.020000
v -1.000000 0.430000 0.980000
v -0.980000 0.430000 0.020000
v -0.980000 0.430000 0.980000
v -0.020000 0.430000 0.020000
v -0.020000 0.430000 0.980000
v -0.452500 0.700000 0.547500
v -0.452500 0.700000 0.452500
v -0.547500 0.700000 0.452500
v -0.547500 0.700000 0.547500
v 0.000000 0.000000 0.000000
v 0.000000 -0.000000 0.020000
v -0.020000 -0.000000 0.020000
v -0.020000 0.000000 0.000000
v -0.980000 0.000000 0.000000
v -0.980000 -0.000000 0.020000
v -1.000000 -0.000000 0.020000
v -1.000000 0.000000 0.000000
v -0.980000 -0.000000 0.980000
v -0.980000 -0.000000 1.000000
v -1.000000 -0.000000 1.000000
v -1.000000 -0.000000 0.980000
v 0.000000 -0.000000 0.980000
v 0.000000 -0.000000 1.000000
v -0.020000 -0.000000 1.000000
v -0.020000 -0.000000 0.980000
vt 0.564499 0.206756
vt 0.599880 0.206756
vt 0.599880 0.599880
vt 0.564499 0.214619
vt 0.564499 0.592017
vt 0.564499 0.599880
vt 0.380464 0.612407
vt 0.380464 0.604544
vt 0.415845 0.604544
vt 0.380464 0.989805
vt 0.380464 0.997668
vt 0.415845 0.997668
vt 0.604544 0.395456
vt 0.604544 0.002332
vt 0.997668 0.002332
vt 0.997668 0.395456
vt 0.010195 0.037713
vt 0.002332 0.037713
vt 0.002332 0.002332
vt 0.387593 0.037713
vt 0.395456 0.037713
vt 0.395456 0.002332
vt 0.002332 0.604544
vt 0.037713 0.604544
vt 0.037713 0.612407
vt 0.002332 0.997668
vt 0.037713 0.989805
vt 0.037713 0.997668
vt 0.428372 0.604544
vt 0.428372 0.981943
vt 0.420510 0.981943
vt 0.420510 0.604544
vt 0.595887 0.604544
vt 0.595887 0.604544
vt 0.595887 0.604544
vt 0.595887 0.604544
vt 0.604544 0.793244
vt 0.604544 0.400120
vt 0.981943 0.400120
vt 0.981943 0.407983
vt 0.981943 0.785381
vt 0.981943 0.793244
vt 0.989805 0.407983
vt 0.989805 0.785381
vt 0.782433 0.217567
vt 0.782433 0.180221
vt 0.819779 0.180221
vt 0.819779 0.217567
vt 0.395456 0.206756
vt 0.395456 0.214619
vt 0.387593 0.214619
vt 0.387593 0.206756
vt 0.503534 0.604544
vt 0.503534 0.773587
vt 0.495672 0.773587
vt 0.495672 0.604544
vt 0.578696 0.604544
vt 0.570834 0.612407
vt 0.570834 0.604544
vt 0.578696 0.612407
vt 0.440899 0.773587
vt 0.433037 0.773587
vt 0.433037 0.604544
vt 0.440899 0.604544
vt 0.010195 0.206756
vt 0.010195 0.214619
vt 0.002332 0.214619
vt 0.002332 0.206756
vt 0.528588 0.773587
vt 0.520726 0.773587
vt 0.520726 0.604544
vt 0.528588 0.604544
vt 0.583360 0.604544
vt 0.591223 0.612407
vt 0.583360 0.612407
vt 0.591223 0.604544
vt 0.206756 0.604544
vt 0.206756 0.612407
vt 0.516061 0.604544
vt 0.516061 0.773587
vt 0.508199 0.773587
vt 0.508199 0.604544
vt 0.453426 0.604544
vt 0.453426 0.773587
vt 0.445564 0.773587
vt 0.445564 0.604544
vt 0.541115 0.604544
vt 0.541115 0.612407
vt 0.533253 0.612407
vt 0.533253 0.604544
vt 0.545780 0.604544
vt 0.553642 0.612407
vt 0.545780 0.612407
vt 0.553642 0.604544
vt 0.491007 0.773587
vt 0.483145 0.773587
vt 0.483145 0.604544
vt 0.491007 0.604544
vt 0.211421 0.997668
vt 0.211421 0.989805
vt 0.206756 0.989805
vt 0.206756 0.997668
vt 0.395456 0.592017
vt 0.395456 0.599880
vt 0.387593 0.599880
vt 0.387593 0.592017
vt 0.558307 0.604544
vt 0.566169 0.612407
vt 0.558307 0.612407
vt 0.566169 0.604544
vt 0.465953 0.773587
vt 0.458091 0.773587
vt 0.458091 0.604544
vt 0.465953 0.604544
vt 0.211421 0.612407
vt 0.211421 0.604544
vt 0.478480 0.604544
vt 0.478480 0.773587
vt 0.470618 0.773587
vt 0.470618 0.604544
vn 1.0000 0.0000 -0.0000
vn 0.0000 -0.0000 1.0000
vn 0.0000 1.0000 0.0000
vn -0.0000 0.0000 -1.0000
vn -1.0000 0.0000 0.0000
vn -0.0397 -0.9992 -0.0000
vn 0.0000 -1.0000 -0.0000
vn -0.0400 -0.9992 0.0000
vn 0.0000 0.9292 0.3696
vn -0.0000 0.9292 -0.3696
vn -0.3696 0.9292 0.0000
vn 0.3696 0.9292 0.0000
s 1
f 1/1/1 2/2/1 3/3/1
f 3/3/1 4/4/1 1/1/1
f 3/3/1 5/5/1 4/4/1
f 3/3/1 6/6/1 5/5/1
f 7/7/2 6/8/2 3/9/2
f 3/9/2 8/10/2 7/7/2
f 3/9/2 9/11/2 8/10/2
f 3/9/2 10/12/2 9/11/2
f 3/13/3 2/14/3 11/15/3
f 11/15/3 10/16/3 3/13/3
f 12/17/4 13/18/4 11/19/4
f 11/19/4 14/20/4 12/17/4
f 11/19/4 1/21/4 14/20/4
f 11/19/4 2/22/4 1/21/4
f 11/23/5 13/24/5 15/25/5
f 15/25/5 10/26/5 11/23/5
f 15/25/5 16/27/5 10/26/5
f 16/27/5 9/28/5 10/26/5
f 17/29/6 18/30/7 16/31/7
f 16/31/7 15/32/7 17/29/7
f 18/33/7 17/34/6 12/35/8
f 8/36/7 18/33/2 12/35/7
f 8/37/7 12/38/7 14/39/7
f 8/37/7 14/39/7 19/40/7
f 8/37/7 19/40/7 20/41/7
f 20/41/7 7/42/7 8/37/7
f 20/41/7 19/40/7 4/43/7
f 4/43/7 5/44/7 20/41/7
f 21/45/3 22/46/3 23/47/3
f 23/47/3 24/48/3 21/45/3
f 10/16/9 3/13/9 21/45/9
f 21/45/9 24/48/9 10/16/9
f 22/46/10 2/14/10 11/15/10
f 11/15/10 23/47/10 22/46/10
f 24/48/11 23/47/11 11/15/11
f 11/15/11 10/16/11 24/48/11
f 3/13/12 2/14/12 22/46/12
f 22/46/12 21/45/12 3/13/12
f 25/49/7 26/50/7 27/51/7
f 27/51/7 28/52/7 25/49/7
f 14/53/5 28/54/5 27/55/5
f 27/55/5 19/56/5 14/53/5
f 25/49/4 28/52/4 14/20/4
f 14/20/4 1/21/4 25/49/4
f 1/57/3 19/58/3 4/59/3
f 19/58/3 1/57/3 14/60/3
f 25/49/1 1/1/1 4/4/1
f 4/4/1 26/50/1 25/49/1
f 27/61/2 26/62/2 4/63/2
f 4/63/2 19/64/2 27/61/2
f 29/65/7 30/66/7 31/67/7
f 31/67/7 32/68/7 29/65/7
f 31/69/2 30/70/2 17/71/2
f 17/71/2 15/72/2 31/69/2
f 12/73/3 15/74/3 17/75/3
f 15/74/3 12/73/3 13/76/3
f 13/24/5 32/77/5 31/78/5
f 31/78/5 15/25/5 13/24/5
f 29/79/1 12/80/1 17/81/1
f 17/81/1 30/82/1 29/79/1
f 29/65/4 32/68/4 13/18/4
f 13/18/4 12/17/4 29/65/4
f 33/83/1 18/84/1 8/85/1
f 8/85/1 34/86/1 33/83/1
f 33/87/7 34/88/7 35/89/7
f 35/89/7 36/90/7 33/87/7
f 18/91/3 9/92/3 8/93/3
f 9/92/3 18/91/3 16/94/3
f 33/95/4 36/96/4 16/97/4
f 16/97/4 18/98/4 33/95/4
f 35/99/2 34/100/2 8/10/2
f 8/10/2 9/11/2 35/99/2
f 16/27/5 36/101/5 35/102/5
f 35/102/5 9/28/5 16/27/5
f 37/103/1 5/5/1 6/6/1
f 6/6/1 38/104/1 37/103/1
f 37/103/7 38/104/7 39/105/7
f 39/105/7 40/106/7 37/103/7
f 5/107/3 7/108/3 6/109/3
f 7/108/3 5/107/3 20/110/3
f 37/111/4 40/112/4 20/113/4
f 20/113/4 5/114/4 37/111/4
f 39/115/2 38/116/2 6/8/2
f 6/8/2 7/7/2 39/115/2
f 20/117/5 40/118/5 39/119/5
f 39/119/5 7/120/5 20/117/5
