# Blender v2.92.0 OBJ File: 'OGConvert.blend'
# www.blender.org
o tentRoofDouble
v -8.960000 3.760000 0.000000
v -8.960000 3.440000 0.000000
v -8.960000 3.440000 0.160000
v -8.960000 3.760000 7.920000
v -8.960000 3.440000 3.880000
v -8.960000 3.440000 4.040000
v -8.960000 3.440000 7.759999
v -8.960000 3.440000 7.920000
v -6.473600 5.039999 7.920000
v -6.473600 5.040000 0.000000
v -6.966400 5.040000 0.000000
v -6.966400 5.039999 7.920000
v -4.480000 3.760000 3.880000
v -4.480000 3.760000 0.000000
v -4.480000 3.760000 4.040000
v -4.480000 3.760000 7.920000
v 0.000000 3.760000 7.920000
v -1.993600 5.039999 7.920000
v -2.486400 5.039999 7.920000
v -8.800000 3.440000 7.920000
v -4.640000 3.440000 7.920000
v -4.480000 3.440000 7.920000
v -4.320000 3.440000 7.920000
v -0.160000 3.440000 7.920000
v 0.000000 3.440000 7.920000
v -1.993600 5.040000 0.000000
v -2.486400 5.040000 0.000000
v 0.000000 3.760000 0.000000
v 0.000000 3.440000 0.000000
v -0.160000 3.440000 0.000000
v -4.320000 3.440000 0.000000
v -4.480000 3.440000 0.000000
v -4.640000 3.440000 0.000000
v -8.800000 3.440000 0.000000
v 0.000000 3.440000 0.160000
v 0.000000 3.440000 3.880000
v 0.000000 3.440000 4.040000
v 0.000000 3.440000 7.759999
v -8.960000 -0.000000 0.160000
v -8.800000 -0.000000 0.160000
v -8.800000 3.440000 0.160000
v -8.800000 -0.000000 7.759999
v -8.800000 3.440000 7.759999
v -8.800000 -0.000000 7.920000
v -8.800000 -0.000000 3.880000
v -8.960000 -0.000000 3.880000
v -8.800000 3.440000 3.880000
v -8.960000 -0.000000 7.759999
v -8.960000 -0.000000 7.920000
v -4.480000 0.000000 0.000000
v -4.480000 -0.000000 0.160000
v -4.640000 -0.000000 0.160000
v -4.640000 0.000000 0.000000
v -4.320000 0.000000 0.000000
v -4.320000 -0.000000 0.160000
v -8.960000 -0.000000 4.040000
v -8.800000 -0.000000 4.040000
v -8.800000 3.440000 4.040000
v -4.480000 -0.000000 7.759999
v -4.480000 -0.000000 7.920000
v -4.640000 -0.000000 7.920000
v -4.640000 -0.000000 7.759999
v -4.320000 -0.000000 7.759999
v -4.320000 -0.000000 7.920000
v -4.480000 -0.000000 3.880000
v -4.480000 -0.000000 4.040000
v -4.640000 -0.000000 4.040000
v -4.640000 -0.000000 3.880000
v -4.320000 -0.000000 3.880000
v -4.320000 -0.000000 4.040000
v -4.640000 3.760000 4.040000
v -4.640000 3.760000 3.880000
v -4.320000 3.760000 3.880000
v -4.320000 3.760000 4.040000
v -4.480000 3.440000 0.160000
v -4.640000 3.440000 0.160000
v -4.320000 3.440000 0.160000
v -4.640000 3.440000 7.759999
v -4.480000 3.440000 7.759999
v -4.320000 3.440000 7.759999
v -8.800000 0.000000 0.000000
v -8.960000 0.000000 0.000000
v -0.160000 -0.000000 7.920000
v 0.000000 -0.000000 7.920000
v -0.160000 3.440000 7.759999
v 0.000000 -0.000000 7.759999
v -0.160000 -0.000000 7.759999
v -0.160000 3.440000 0.160000
v 0.000000 -0.000000 3.880000
v 0.000000 -0.000000 4.040000
v -0.160000 -0.000000 4.040000
v -0.160000 -0.000000 3.880000
v 0.000000 0.000000 0.000000
v 0.000000 -0.000000 0.160000
v -0.160000 0.000000 0.000000
v -0.160000 3.440000 3.880000
v -0.160000 -0.000000 0.160000
v -0.160000 3.440000 4.040000
vt 0.788643 0.431718
vt 0.804652 0.431718
vt 0.804652 0.439722
vt 0.788643 0.827924
vt 0.804652 0.625819
vt 0.804652 0.633823
vt 0.804652 0.819920
vt 0.804652 0.827924
vt 0.594049 0.329719
vt 0.990255 0.329719
vt 0.990255 0.352928
vt 0.594049 0.352928
vt 0.796154 0.214235
vt 0.990255 0.214235
vt 0.788150 0.214235
vt 0.594049 0.214235
vt 0.990255 0.425221
vt 0.594049 0.425221
vt 0.137812 0.646076
vt 0.137812 0.870192
vt 0.073778 0.770461
vt 0.073778 0.745808
vt 0.579909 0.646076
vt 0.579909 0.646076
vt 0.579909 0.646076
vt 0.782147 0.431718
vt 0.782147 0.879951
vt 0.766138 0.879951
vt 0.766138 0.871947
vt 0.766138 0.663839
vt 0.766138 0.655835
vt 0.766138 0.647831
vt 0.766138 0.439722
vt 0.766138 0.431718
vt 0.208342 0.870193
vt 0.144309 0.770461
vt 0.208342 0.646076
vt 0.144309 0.745808
vt 0.594049 0.118733
vt 0.990255 0.118733
vt 0.990255 0.141941
vt 0.594049 0.141941
vt 0.067282 0.646076
vt 0.067282 0.870192
vt 0.003248 0.770461
vt 0.003248 0.745808
vt 0.587552 0.646076
vt 0.587552 0.646076
vt 0.587552 0.646076
vt 0.587552 0.003248
vt 0.587552 0.451481
vt 0.571544 0.451481
vt 0.571544 0.443477
vt 0.571544 0.235369
vt 0.571544 0.227365
vt 0.571544 0.219361
vt 0.571544 0.011253
vt 0.571544 0.003248
vt 0.278872 0.870192
vt 0.214839 0.770461
vt 0.278872 0.646076
vt 0.214839 0.745808
vt 0.399454 0.623571
vt 0.399454 0.639579
vt 0.003248 0.639579
vt 0.391450 0.623571
vt 0.205353 0.623571
vt 0.197349 0.623571
vt 0.011253 0.623571
vt 0.003248 0.623571
vt 0.586406 0.652573
vt 0.586406 0.652573
vt 0.586406 0.652573
vt 0.594049 0.003248
vt 0.990255 0.003248
vt 0.573412 0.818165
vt 0.565408 0.818165
vt 0.565408 0.646076
vt 0.573412 0.646076
vt 0.457405 0.646076
vt 0.457405 0.818165
vt 0.449401 0.818165
vt 0.449401 0.646076
vt 0.991242 0.960980
vt 0.983238 0.960980
vt 0.983238 0.788891
vt 0.991242 0.788891
vt 0.976741 0.819920
vt 0.976741 0.827924
vt 0.338383 0.818165
vt 0.338383 0.826169
vt 0.330379 0.826169
vt 0.330379 0.818165
vt 0.346387 0.818165
vt 0.346387 0.826169
vt 0.991242 0.603808
vt 0.983238 0.603808
vt 0.983238 0.431718
vt 0.991242 0.431718
vt 0.500908 0.832666
vt 0.492904 0.832666
vt 0.492904 0.824662
vt 0.500908 0.824662
vt 0.500908 0.840670
vt 0.492904 0.840670
vt 0.529910 0.832666
vt 0.521906 0.832666
vt 0.521906 0.824662
vt 0.529910 0.824662
vt 0.529910 0.840670
vt 0.521906 0.840670
vt 0.338383 0.832666
vt 0.338383 0.840671
vt 0.330379 0.840671
vt 0.330379 0.832666
vt 0.991242 0.610304
vt 0.991242 0.782394
vt 0.983238 0.782394
vt 0.983238 0.610304
vt 0.811149 0.842425
vt 0.803144 0.842425
vt 0.803144 0.834421
vt 0.811149 0.834421
vt 0.825649 0.842425
vt 0.817645 0.842425
vt 0.817645 0.834421
vt 0.825649 0.834421
vt 0.594049 0.879951
vt 0.594049 0.871947
vt 0.544411 0.832666
vt 0.536407 0.832666
vt 0.536407 0.824662
vt 0.544411 0.824662
vt 0.544411 0.840670
vt 0.536407 0.840670
vt 0.442904 0.646076
vt 0.442904 0.834174
vt 0.434900 0.834174
vt 0.434900 0.646076
vt 0.352884 0.832666
vt 0.352884 0.840671
vt 0.344880 0.840671
vt 0.344880 0.832666
vt 0.558912 0.832666
vt 0.550907 0.832666
vt 0.550907 0.824662
vt 0.558912 0.824662
vt 0.558912 0.840670
vt 0.550907 0.840670
vt 0.383393 0.996752
vt 0.375389 0.996752
vt 0.375389 0.824662
vt 0.383393 0.824662
vt 0.405898 0.824662
vt 0.405898 0.996752
vt 0.397894 0.996752
vt 0.397894 0.824662
vt 0.486407 0.646076
vt 0.486407 0.818165
vt 0.478403 0.818165
vt 0.478403 0.646076
vt 0.976741 0.625819
vt 0.976741 0.633823
vt 0.515409 0.832666
vt 0.507405 0.832666
vt 0.507405 0.824662
vt 0.515409 0.824662
vt 0.515409 0.840670
vt 0.507405 0.840670
vt 0.399454 0.011253
vt 0.399454 0.003248
vt 0.976741 0.431718
vt 0.976741 0.439722
vt 0.471906 0.824662
vt 0.471906 0.996752
vt 0.463902 0.996752
vt 0.463902 0.824662
vt 0.391450 0.011253
vt 0.391450 0.003248
vt 0.573412 0.839163
vt 0.573412 0.847167
vt 0.565408 0.847167
vt 0.565408 0.839163
vt 0.594049 0.439722
vt 0.594049 0.431718
vt 0.573413 0.824662
vt 0.573413 0.832666
vt 0.565408 0.832666
vt 0.565408 0.824662
vt 0.011253 0.451481
vt 0.003248 0.451481
vt 0.500908 0.646076
vt 0.500908 0.818165
vt 0.492904 0.818165
vt 0.492904 0.646076
vt 0.293373 0.834174
vt 0.285369 0.834174
vt 0.285369 0.646076
vt 0.301377 0.834174
vt 0.301377 0.646076
vt 0.579909 0.652573
vt 0.579909 0.652573
vt 0.579909 0.652573
vt 0.003248 0.443477
vt 0.011253 0.443477
vt 0.315878 0.834174
vt 0.307874 0.834174
vt 0.307874 0.646076
vt 0.323882 0.834174
vt 0.323882 0.646076
vt 0.586406 0.659069
vt 0.586406 0.659069
vt 0.586406 0.659069
vt 0.428403 0.646076
vt 0.428403 0.834174
vt 0.420399 0.834174
vt 0.420399 0.646076
vt 0.840150 0.842425
vt 0.832146 0.842425
vt 0.832146 0.834421
vt 0.840150 0.834421
vt 0.205353 0.451481
vt 0.197349 0.451481
vt 0.197349 0.443477
vt 0.205353 0.443477
vt 0.399454 0.451481
vt 0.391450 0.451481
vt 0.399454 0.443477
vt 0.515409 0.818165
vt 0.507405 0.818165
vt 0.507405 0.646076
vt 0.515409 0.646076
vt 0.471906 0.646076
vt 0.471906 0.818165
vt 0.463902 0.818165
vt 0.463902 0.646076
vt 0.383393 0.818165
vt 0.375389 0.818165
vt 0.375389 0.646076
vt 0.391397 0.818165
vt 0.391397 0.646076
vt 0.579909 0.659069
vt 0.579909 0.659069
vt 0.579909 0.659069
vt 0.391450 0.443477
vt 0.796648 0.842425
vt 0.788643 0.842425
vt 0.788643 0.834421
vt 0.796648 0.834421
vt 0.529910 0.818165
vt 0.521906 0.818165
vt 0.521906 0.646076
vt 0.529910 0.646076
vt 0.544411 0.818165
vt 0.536407 0.818165
vt 0.536407 0.646076
vt 0.544411 0.646076
vt 0.457405 0.824662
vt 0.457405 0.996752
vt 0.449401 0.996752
vt 0.449401 0.824662
vt 0.558912 0.818165
vt 0.550907 0.818165
vt 0.550907 0.646076
vt 0.558912 0.646076
vt 0.486407 0.824662
vt 0.486407 0.996752
vt 0.478403 0.996752
vt 0.478403 0.824662
vt 0.405898 0.818165
vt 0.397894 0.818165
vt 0.397894 0.646076
vt 0.413902 0.818165
vt 0.413902 0.646076
vt 0.586406 0.665566
vt 0.586406 0.665566
vt 0.586406 0.665566
vt 0.368892 0.824662
vt 0.368892 0.996752
vt 0.360888 0.996752
vt 0.360888 0.824662
vt 0.360888 0.818165
vt 0.352884 0.818165
vt 0.352884 0.646076
vt 0.368892 0.818165
vt 0.368892 0.646076
vt 0.579909 0.665566
vt 0.579909 0.665566
vt 0.579909 0.665566
vt 0.330379 0.646076
vt 0.346387 0.646076
vt 0.586406 0.672063
vt 0.586406 0.672063
vt 0.586406 0.672063
vn -1.0000 0.0000 0.0000
vn 0.0000 1.0000 0.0000
vn 0.5403 0.8415 0.0000
vn -0.5403 0.8415 0.0000
vn 0.0000 0.0000 1.0000
vn -0.0000 0.0000 -1.0000
vn 1.0000 0.0000 0.0000
vn -0.5404 0.8414 0.0000
vn -0.3178 0.9482 -0.0000
vn 0.0000 0.0000 0.0000
vn 0.0000 -1.0000 -0.0000
vn -1.0000 -0.0001 -0.0000
vn 1.0000 0.0001 -0.0000
s 1
f 1/1/1 2/2/1 3/3/1
f 3/3/1 4/4/1 1/1/1
f 3/3/1 5/5/1 4/4/1
f 5/5/1 6/6/1 4/4/1
f 6/6/1 7/7/1 4/4/1
f 7/7/1 8/8/1 4/4/1
f 9/9/2 10/10/2 11/11/2
f 11/11/2 12/12/2 9/9/2
f 13/13/3 14/14/3 10/10/3
f 10/10/3 15/15/3 13/13/3
f 10/10/3 16/16/3 15/15/3
f 10/10/3 9/9/3 16/16/3
f 12/12/4 11/11/4 1/17/4
f 1/17/4 4/18/4 12/12/4
f 16/19/5 17/20/5 18/21/5
f 18/21/5 19/22/5 16/19/5
f 17/23/5 16/24/5 4/25/5
f 17/26/5 4/27/5 8/28/5
f 17/26/5 8/28/5 20/29/5
f 17/26/5 20/29/5 21/30/5
f 17/26/5 21/30/5 22/31/5
f 17/26/5 22/31/5 23/32/5
f 17/26/5 23/32/5 24/33/5
f 24/33/5 25/34/5 17/26/5
f 16/35/5 9/36/5 4/37/5
f 9/36/5 12/38/5 4/37/5
f 18/39/2 26/40/2 27/41/2
f 27/41/2 19/42/2 18/39/2
f 14/43/6 1/44/6 11/45/6
f 11/45/6 10/46/6 14/43/6
f 1/47/6 14/48/6 28/49/6
f 1/50/6 28/51/6 29/52/6
f 1/50/6 29/52/6 30/53/6
f 1/50/6 30/53/6 31/54/6
f 1/50/6 31/54/6 32/55/6
f 1/50/6 32/55/6 33/56/6
f 1/50/6 33/56/6 34/57/6
f 34/57/6 2/58/6 1/50/6
f 14/59/6 27/60/6 28/61/6
f 27/60/6 26/62/6 28/61/6
f 29/63/7 28/64/7 17/65/7
f 17/65/7 35/66/7 29/63/7
f 17/65/7 36/67/7 35/66/7
f 17/65/7 37/68/7 36/67/7
f 17/65/7 38/69/7 37/68/7
f 17/65/7 25/70/7 38/69/7
f 19/42/4 27/41/4 14/14/8
f 14/14/8 16/16/8 19/42/4
f 14/14/8 13/13/9 16/16/8
f 13/71/9 15/72/10 16/73/8
f 17/74/3 28/75/3 26/40/3
f 26/40/3 18/39/3 17/74/3
f 39/76/5 40/77/5 41/78/5
f 41/78/5 3/79/5 39/76/5
f 42/80/7 43/81/7 20/82/7
f 20/82/7 44/83/7 42/80/7
f 45/84/6 46/85/6 5/86/6
f 5/86/6 47/87/6 45/84/6
f 7/7/1 48/88/1 49/89/1
f 49/89/1 8/8/1 7/7/1
f 50/90/11 51/91/11 52/92/11
f 52/92/11 53/93/11 50/90/11
f 51/91/11 50/90/11 54/94/11
f 54/94/11 55/95/11 51/91/11
f 56/96/5 57/97/5 58/98/5
f 58/98/5 6/99/5 56/96/5
f 59/100/11 60/101/11 61/102/11
f 61/102/11 62/103/11 59/100/11
f 60/101/11 59/100/11 63/104/11
f 63/104/11 64/105/11 60/101/11
f 65/106/11 66/107/11 67/108/11
f 67/108/11 68/109/11 65/106/11
f 66/107/11 65/106/11 69/110/11
f 69/110/11 70/111/11 66/107/11
f 43/112/11 20/113/11 8/114/11
f 8/114/11 7/115/11 43/112/11
f 45/116/7 47/117/7 58/118/7
f 58/118/7 57/119/7 45/116/7
f 47/120/11 58/121/11 6/122/11
f 6/122/11 5/123/11 47/120/11
f 45/124/11 57/125/11 56/126/11
f 56/126/11 46/127/11 45/124/11
f 49/128/5 44/129/5 20/29/5
f 20/29/5 8/28/5 49/128/5
f 13/130/11 15/131/11 71/132/11
f 71/132/11 72/133/11 13/130/11
f 15/131/11 13/130/11 73/134/11
f 73/134/11 74/135/11 15/131/11
f 72/136/1 68/137/1 67/138/1
f 67/138/1 71/139/1 72/136/1
f 42/140/11 44/141/11 49/142/11
f 49/142/11 48/143/11 42/140/11
f 32/144/11 75/145/11 76/146/11
f 76/146/11 33/147/11 32/144/11
f 75/145/11 32/144/11 31/148/11
f 31/148/11 77/149/11 75/145/11
f 42/150/6 48/151/6 7/152/6
f 7/152/6 43/153/6 42/150/6
f 33/154/1 53/155/1 52/156/1
f 52/156/1 76/157/1 33/154/1
f 78/158/1 62/159/1 61/160/1
f 61/160/1 21/161/1 78/158/1
f 5/5/1 46/162/1 56/163/1
f 56/163/1 6/6/1 5/5/1
f 79/164/11 22/165/11 21/166/11
f 21/166/11 78/167/11 79/164/11
f 22/165/11 79/164/11 80/168/11
f 80/168/11 23/169/11 22/165/11
f 81/170/6 82/171/6 2/58/6
f 2/58/6 34/57/6 81/170/6
f 2/2/1 82/172/1 39/173/1
f 39/173/1 3/3/1 2/2/1
f 81/174/7 34/175/7 41/176/7
f 41/176/7 40/177/7 81/174/7
f 81/170/11 40/178/11 39/179/11
f 39/179/11 82/171/11 81/170/11
f 34/180/11 41/181/11 3/182/11
f 3/182/11 2/183/11 34/180/11
f 83/184/5 84/185/5 25/34/5
f 25/34/5 24/33/5 83/184/5
f 38/186/11 25/187/11 24/188/11
f 24/188/11 85/189/11 38/186/11
f 86/190/7 38/69/7 25/70/7
f 25/70/7 84/191/7 86/190/7
f 85/192/1 87/193/1 83/194/1
f 83/194/1 24/195/1 85/192/1
f 65/196/6 68/197/6 72/198/6
f 72/198/6 69/199/6 65/196/6
f 72/198/6 73/200/6 69/199/6
f 72/201/12 13/202/1 73/203/13
f 86/190/11 84/191/11 83/204/11
f 83/204/11 87/205/11 86/190/11
f 66/206/5 70/207/5 74/208/5
f 74/208/5 67/209/5 66/206/5
f 74/208/5 71/210/5 67/209/5
f 74/211/5 15/212/5 71/213/5
f 69/214/7 73/215/7 74/216/7
f 74/216/7 70/217/7 69/214/7
f 29/218/11 35/219/11 88/220/11
f 88/220/11 30/221/11 29/218/11
f 89/222/11 90/223/11 91/224/11
f 91/224/11 92/225/11 89/222/11
f 93/226/7 29/63/7 35/66/7
f 35/66/7 94/227/7 93/226/7
f 93/226/6 95/228/6 30/53/6
f 30/53/6 29/52/6 93/226/6
f 89/229/6 92/230/6 96/231/6
f 96/231/6 36/232/6 89/229/6
f 63/233/7 80/234/7 23/235/7
f 23/235/7 64/236/7 63/233/7
f 60/237/5 64/238/5 23/239/5
f 23/239/5 61/240/5 60/237/5
f 23/239/5 21/241/5 61/240/5
f 23/242/5 22/243/5 21/244/5
f 93/226/11 94/227/11 97/245/11
f 97/245/11 95/228/11 93/226/11
f 36/246/11 37/247/11 98/248/11
f 98/248/11 96/249/11 36/246/11
f 91/250/5 90/251/5 37/252/5
f 37/252/5 98/253/5 91/250/5
f 97/254/5 94/255/5 35/256/5
f 35/256/5 88/257/5 97/254/5
f 30/258/1 95/259/1 97/260/1
f 97/260/1 88/261/1 30/258/1
f 89/222/7 36/67/7 37/68/7
f 37/68/7 90/223/7 89/222/7
f 86/262/6 87/263/6 85/264/6
f 85/264/6 38/265/6 86/262/6
f 54/266/7 31/267/7 77/268/7
f 77/268/7 55/269/7 54/266/7
f 51/270/5 55/271/5 77/272/5
f 77/272/5 52/273/5 51/270/5
f 77/272/5 76/274/5 52/273/5
f 77/275/5 75/276/5 76/277/5
f 96/278/1 92/279/1 91/280/1
f 91/280/1 98/281/1 96/278/1
f 59/282/6 62/283/6 78/284/6
f 78/284/6 63/285/6 59/282/6
f 78/284/6 80/286/6 63/285/6
f 78/287/12 79/288/1 80/289/13
f 50/90/6 53/93/6 33/290/6
f 33/290/6 54/94/6 50/90/6
f 33/290/6 31/291/6 54/94/6
f 33/292/12 32/293/1 31/294/13
