# Blender v2.92.0 OBJ File: 'OGConvert.blend'
# www.blender.org
o treeSmall
v 0.000000 1.711095 0.709305
v 0.614277 1.711095 0.354653
v 1.013164 3.366764 0.584951
v 0.000000 3.366764 1.169902
v 0.000000 3.366764 -1.169901
v -1.013164 3.366764 -0.584950
v -0.552441 8.164376 -0.318952
v 0.000000 8.164376 -0.637904
v 0.000000 1.711095 -0.709305
v 0.000000 1.470538 -0.425583
v -0.368566 1.470538 -0.212791
v -0.614277 1.711095 -0.354653
v -0.614277 1.711095 0.354653
v -1.013164 3.366764 0.584951
v 0.552441 8.164376 0.318952
v 0.000000 8.164376 0.637905
v 0.614277 1.711095 -0.354653
v 1.013164 3.366764 -0.584950
v 0.368566 1.470538 -0.212791
v 0.368566 1.470538 0.212792
v 0.000000 1.470538 0.425583
v 0.150338 1.470538 0.150338
v -0.150338 1.470538 0.150338
v -0.368566 1.470538 0.212792
v -0.150338 1.470538 -0.150338
v 0.150338 1.470538 -0.150338
v -0.552441 8.164376 0.318952
v -0.295998 8.558600 -0.170894
v -0.295998 8.558600 0.170895
v 0.552441 8.164376 -0.318952
v 0.295998 8.558600 -0.170894
v 0.295998 8.558600 0.170895
v 0.000000 8.558600 -0.341789
v 0.000000 8.558600 0.341790
v 0.236752 0.000000 -0.236752
v 0.236752 -0.000000 0.236752
v -0.236752 -0.000000 0.236752
v -0.236752 0.000000 -0.236752
vt 0.732309 0.740430
vt 0.639215 0.734463
vt 0.622760 0.517701
vt 0.776304 0.527543
vt 0.236102 0.258094
vt 0.307821 0.208873
vt 0.307821 0.813891
vt 0.268715 0.840729
vt 0.386567 0.208073
vt 0.425813 0.183393
vt 0.451953 0.209322
vt 0.430133 0.251288
vt 0.825813 0.002167
vt 0.918238 0.004175
vt 0.933080 0.213965
vt 0.780638 0.210653
vt 0.690860 0.002167
vt 0.774582 0.007533
vt 0.087528 0.050507
vt 0.180186 0.039719
vt 0.083275 0.275886
vt 0.455491 0.161603
vt 0.511308 0.165742
vt 0.537448 0.191671
vt 0.502070 0.179262
vt 0.500626 0.198727
vt 0.507770 0.213461
vt 0.461191 0.195803
vt 0.462635 0.176338
vt 0.710910 0.782612
vt 0.776304 0.783207
vt 0.523161 0.258186
vt 0.380530 0.983726
vt 0.384010 0.463725
vt 0.537448 0.475102
vt 0.464194 0.989929
vt 0.603200 0.839177
vt 0.583728 0.805451
vt 0.667622 0.805451
vt 0.648150 0.839177
vt 0.667622 0.950759
vt 0.583728 0.950759
vt 0.603200 0.917033
vt 0.648150 0.917033
vt 0.580725 0.878105
vt 0.670625 0.878105
vt 0.882083 0.846574
vt 0.933080 0.856822
vt 0.892506 0.907387
vt 0.865182 0.901896
vt 0.798962 0.844767
vt 0.820646 0.900928
vt 0.655054 0.779032
vt 0.101436 0.008639
vt 0.157031 0.002167
vt 0.002167 0.244458
vt 0.185384 0.850430
vt 0.141159 0.833294
vt 0.312154 0.392448
vt 0.590118 0.771273
vt 0.541781 0.578413
vt 0.541781 0.878105
vt 0.464154 0.002167
vt 0.526256 0.006772
vt 0.523983 0.037424
vt 0.461881 0.032819
vt 0.253896 0.881824
vt 0.209247 0.887022
vt 0.625595 0.801118
vt 0.727938 0.983990
vt 0.674959 0.997833
vt 0.675547 0.814242
vt 0.709189 0.805451
vt 0.937413 0.002167
vt 0.995122 0.002167
vt 0.990133 0.195335
vt 0.953488 0.195335
vt 0.760308 0.997833
vt 0.729744 0.814242
vn 0.4861 -0.2342 0.8419
vn -0.4977 0.0956 -0.8621
vn -0.3498 -0.7146 -0.6058
vn -0.4861 -0.2342 0.8419
vn 0.4977 0.0956 0.8621
vn 0.4861 -0.2342 -0.8419
vn 0.0000 -1.0000 0.0000
vn -0.3498 -0.7146 0.6058
vn -0.9954 0.0956 0.0000
vn -0.8383 0.5453 0.0000
vn 0.8383 0.5453 0.0000
vn 0.0000 1.0000 0.0000
vn 0.4191 0.5453 0.7259
vn -0.4191 0.5453 0.7259
vn 0.3498 -0.7146 0.6058
vn 0.3498 -0.7146 -0.6058
vn -0.4977 0.0956 0.8621
vn 0.9954 0.0956 0.0000
vn 0.4977 0.0956 -0.8621
vn -0.4861 -0.2342 -0.8419
vn -0.6996 -0.7146 0.0000
vn 0.9722 -0.2342 0.0000
vn -0.4191 0.5453 -0.7259
vn 0.4191 0.5453 -0.7259
vn 0.6996 -0.7146 0.0000
vn -0.9722 -0.2342 0.0000
vn 0.0000 0.0587 -0.9983
vn 0.0000 0.0587 0.9983
vn 0.9983 0.0587 0.0000
vn -0.9983 0.0587 0.0000
s 1
f 1/1/1 2/2/1 3/3/1
f 3/3/1 4/4/1 1/1/1
f 5/5/2 6/6/2 7/7/2
f 7/7/2 8/8/2 5/5/2
f 9/9/3 10/10/3 11/11/3
f 11/11/3 12/12/3 9/9/3
f 13/13/4 1/14/4 4/15/4
f 4/15/4 14/16/4 13/13/4
f 4/4/5 3/3/5 15/17/5
f 15/17/5 16/18/5 4/4/5
f 17/19/6 9/20/6 5/5/6
f 5/5/6 18/21/6 17/19/6
f 19/22/7 20/23/7 21/24/7
f 21/24/7 22/25/7 19/22/7
f 21/24/7 23/26/7 22/25/7
f 21/24/7 24/27/7 23/26/7
f 24/27/7 25/28/7 23/26/7
f 19/22/7 22/25/7 26/29/7
f 26/29/7 10/10/7 19/22/7
f 26/29/7 25/28/7 10/10/7
f 25/28/7 11/11/7 10/10/7
f 25/28/7 24/27/7 11/11/7
f 21/30/8 1/1/8 13/31/8
f 13/32/8 24/27/8 21/24/8
f 7/33/9 6/34/9 14/35/9
f 14/35/9 27/36/9 7/33/9
f 28/37/10 7/38/10 27/39/10
f 27/39/10 29/40/10 28/37/10
f 15/41/11 30/42/11 31/43/11
f 31/43/11 32/44/11 15/41/11
f 32/44/12 31/43/12 33/45/12
f 33/45/12 34/46/12 32/44/12
f 33/45/12 28/37/12 34/46/12
f 28/37/12 29/40/12 34/46/12
f 16/47/13 15/48/13 32/49/13
f 32/49/13 34/50/13 16/47/13
f 27/51/14 16/47/14 34/50/14
f 34/50/14 29/52/14 27/51/14
f 20/53/15 2/2/15 1/1/15
f 1/1/15 21/30/15 20/53/15
f 9/20/16 17/19/16 19/54/16
f 19/54/16 10/55/16 9/20/16
f 14/16/17 4/15/17 16/47/17
f 16/47/17 27/51/17 14/16/17
f 3/56/18 18/21/18 30/57/18
f 30/57/18 15/58/18 3/56/18
f 18/21/19 5/5/19 8/8/19
f 8/8/19 30/57/19 18/21/19
f 9/9/20 12/12/20 6/34/20
f 6/34/20 5/59/20 9/9/20
f 11/11/21 24/27/21 13/32/21
f 13/32/21 12/12/21 11/11/21
f 17/60/22 18/61/22 3/3/22
f 3/3/22 2/2/22 17/60/22
f 8/62/23 7/38/23 28/37/23
f 28/37/23 33/45/23 8/62/23
f 35/63/7 36/64/7 37/65/7
f 37/65/7 38/66/7 35/63/7
f 30/57/24 8/8/24 33/67/24
f 33/67/24 31/68/24 30/57/24
f 17/60/25 2/2/25 20/53/25
f 20/53/25 19/69/25 17/60/25
f 14/35/26 6/34/26 12/12/26
f 12/12/26 13/32/26 14/35/26
f 35/70/27 38/71/27 25/72/27
f 25/72/27 26/73/27 35/70/27
f 37/74/28 36/75/28 22/76/28
f 22/76/28 23/77/28 37/74/28
f 36/78/29 35/70/29 26/73/29
f 26/73/29 22/79/29 36/78/29
f 25/28/30 38/66/30 37/65/30
f 37/65/30 23/26/30 25/28/30
