# This file uses centimeters as units for non-parametric coordinates.

g default
v -64.650726 1.293293 -2.329823
v -64.638840 1.403279 -2.329823
v -64.748337 1.403279 -2.329823
v -64.736450 1.293293 -2.329823
v -64.736450 1.307213 2.329823
v -64.650726 1.307213 2.329823
v -64.638840 1.396651 2.328546
v -64.748337 1.396651 2.328546
v -64.650726 1.573594 -2.329823
v -64.638840 1.683580 -2.329823
v -64.748337 1.683580 -2.329823
v -64.736450 1.573594 -2.329823
v -64.736450 1.590871 2.329823
v -64.650726 1.590871 2.329823
v -64.638840 1.680309 2.328546
v -64.748337 1.680309 2.328546
v -64.691727 0.774113 -1.445235
v -64.595963 0.774113 -1.541006
v -64.691727 2.028266 -1.445235
v -64.595963 2.028266 -1.541006
v -64.782715 2.028266 -1.536217
v -64.686935 2.028266 -1.631988
v -64.782715 0.774113 -1.536217
v -64.686935 0.774113 -1.631988
v -60.838390 0.657850 -2.329823
v -60.826496 0.900603 -2.329823
v -64.783737 0.900603 -2.329823
v -64.771851 0.657850 -2.329823
v -64.771851 0.667952 2.325099
v -60.838390 0.667952 2.325099
v -60.826496 0.895190 2.323038
v -64.783737 0.895190 2.323038
v -61.035069 0.871166 2.323038
v -61.045704 0.695363 2.325099
v -61.045704 0.685260 -2.329823
v -61.035069 0.876578 -2.329823
v -64.570679 0.871166 2.323038
v -64.560059 0.695363 2.325099
v -64.560059 0.685260 -2.329823
v -64.570679 0.876578 -2.329823
v -64.783737 0.897882 0.009619
v -64.570679 0.873857 0.009619
v -61.035069 0.873857 0.009619
v -60.826496 0.897882 0.009619
v -60.838390 0.364594 0.010655
v -61.045704 0.690340 0.010655
v -64.560059 0.690340 0.010655
v -64.771851 0.364594 0.010655
v -60.868565 1.293293 -2.329823
v -60.856670 1.403279 -2.329823
v -60.966175 1.403279 -2.329823
v -60.954281 1.293293 -2.329823
v -60.954281 1.307213 2.329823
v -60.868565 1.307213 2.329823
v -60.856670 1.396651 2.328546
v -60.966175 1.396651 2.328546
v -60.868565 1.573594 -2.329823
v -60.856670 1.683580 -2.329823
v -60.966175 1.683580 -2.329823
v -60.954281 1.573594 -2.329823
v -60.954281 1.590871 2.329823
v -60.868565 1.590871 2.329823
v -60.856670 1.680309 2.328546
v -60.966175 1.680309 2.328546
v -60.915607 0.774113 -1.445235
v -60.819836 0.774113 -1.541006
v -60.915607 2.028266 -1.445235
v -60.819836 2.028266 -1.541006
v -61.006588 2.028266 -1.536217
v -60.910816 2.028266 -1.631988
v -61.006588 0.774113 -1.536217
v -60.910816 0.774113 -1.631988
v -60.915607 0.868532 1.653653
v -60.819836 0.868532 1.557882
v -60.915607 2.013736 1.653653
v -60.819836 2.013736 1.557882
v -61.006588 2.013736 1.562670
v -60.910816 2.013736 1.466899
v -61.006588 0.868532 1.562671
v -60.910816 0.868532 1.466899
v -64.691727 0.868532 1.653653
v -64.595963 0.868532 1.557882
v -64.691727 2.013736 1.653653
v -64.595963 2.013736 1.557882
v -64.782715 2.013736 1.562670
v -64.686935 2.013736 1.466899
v -64.782715 0.868532 1.562671
v -64.686935 0.868532 1.466899
v -64.706589 0.355120 -0.042861
v -64.706589 0.465106 -0.054756
v -64.706589 0.465106 0.054749
v -64.706589 0.355120 0.042855
v -60.903728 0.372397 0.042855
v -60.903728 0.372397 -0.042861
v -60.904774 0.461834 -0.054756
v -60.904774 0.461834 0.054749
v -64.691727 0.118478 0.103071
v -64.595963 0.118478 0.007299
v -64.691727 2.013736 0.103070
v -64.595963 2.013736 0.007299
v -64.782715 2.013736 0.012088
v -64.686935 2.013736 -0.083683
v -64.782715 0.118478 0.012088
v -64.686935 0.118478 -0.083683
v -60.915607 0.118478 0.103071
v -60.819836 0.118478 0.007299
v -60.915607 2.013736 0.103070
v -60.819836 2.013736 0.007299
v -61.006588 2.013736 0.012088
v -60.910816 2.013736 -0.083683
v -61.006588 0.118478 0.012088
v -60.910816 0.118478 -0.083683
vt -0.936764 0.429465
vt -0.936764 0.371267
vt -1.283352 0.371267
vt -1.283352 0.429465
vt -0.890054 0.430656
vt 1.687571 0.430656
vt 1.687570 0.484741
vt -0.890053 0.484741
vt 1.687569 0.371135
vt -0.890054 0.371135
vt -0.890054 0.312688
vt 1.687570 0.312688
vt 1.687570 0.255350
vt -0.890053 0.255351
vt 1.739801 0.372323
vt 1.739801 0.428138
vt 2.062576 0.428138
vt 2.062576 0.372323
vt -0.936764 0.429465
vt -0.936764 0.371267
vt -1.283352 0.371267
vt -1.283352 0.429465
vt -0.890054 0.430656
vt 1.687571 0.430656
vt 1.687570 0.484741
vt -0.890053 0.484741
vt 1.687569 0.371135
vt -0.890054 0.371135
vt -0.890054 0.312688
vt 1.687570 0.312688
vt 1.687570 0.255350
vt -0.890053 0.255351
vt 1.739801 0.372323
vt 1.739801 0.428138
vt 2.062576 0.428138
vt 2.062576 0.372323
vt 0.375000 0.000000
vt 0.625000 0.000000
vt 0.625000 0.250000
vt 0.375000 0.250000
vt 0.625000 0.500000
vt 0.375000 0.500000
vt 0.625000 0.750000
vt 0.375000 0.750000
vt 0.625000 1.000000
vt 0.375000 1.000000
vt 0.875000 0.000000
vt 0.875000 0.250000
vt 0.125000 0.000000
vt 0.125000 0.250000
vt -0.955032 0.429465
vt -0.936764 0.429465
vt -0.936764 0.371267
vt -0.955032 0.371267
vt -0.890054 0.430656
vt 0.405967 0.430656
vt 0.405967 0.433507
vt -0.890054 0.433507
vt 0.405966 0.371135
vt -0.890054 0.371135
vt -0.890054 0.368054
vt 0.405966 0.368054
vt 0.405967 0.255350
vt 0.405967 0.312688
vt -0.890054 0.312688
vt -0.890053 0.255351
vt 1.739801 0.428138
vt 1.756814 0.428138
vt 1.756814 0.372323
vt 1.739801 0.372323
vt -0.890054 0.315835
vt 0.405967 0.315835
vt -1.264692 0.429465
vt -1.264692 0.371267
vt 0.405967 0.481829
vt -0.890053 0.481829
vt 2.045197 0.428138
vt 2.045197 0.372323
vt -1.283352 0.429465
vt -1.283352 0.371267
vt 0.405967 0.484741
vt -0.890053 0.484741
vt 2.062576 0.428138
vt 2.062576 0.372323
vt 1.687570 0.312688
vt 1.687570 0.315835
vt 1.687569 0.368054
vt 1.687569 0.371135
vt 1.687571 0.430656
vt 1.687571 0.433507
vt 1.687570 0.481829
vt 1.687570 0.484741
vt 1.687570 0.255350
vt -0.936764 0.429465
vt -0.936764 0.371267
vt -1.283352 0.371267
vt -1.283352 0.429465
vt -0.890054 0.430656
vt 1.687571 0.430656
vt 1.687570 0.484741
vt -0.890053 0.484741
vt 1.687569 0.371135
vt -0.890054 0.371135
vt -0.890054 0.312688
vt 1.687570 0.312688
vt -0.890053 0.255351
vt 1.687570 0.255350
vt 1.739801 0.372323
vt 1.739801 0.428138
vt 2.062576 0.428138
vt 2.062576 0.372323
vt -0.936764 0.429465
vt -0.936764 0.371267
vt -1.283352 0.371267
vt -1.283352 0.429465
vt -0.890054 0.430656
vt 1.687571 0.430656
vt 1.687570 0.484741
vt -0.890053 0.484741
vt 1.687569 0.371135
vt -0.890054 0.371135
vt -0.890054 0.312688
vt 1.687570 0.312688
vt -0.890053 0.255351
vt 1.687570 0.255350
vt 1.739801 0.372323
vt 1.739801 0.428138
vt 2.062576 0.428138
vt 2.062576 0.372323
vt 0.375000 0.000000
vt 0.625000 0.000000
vt 0.625000 0.250000
vt 0.375000 0.250000
vt 0.625000 0.500000
vt 0.375000 0.500000
vt 0.625000 0.750000
vt 0.375000 0.750000
vt 0.625000 1.000000
vt 0.375000 1.000000
vt 0.875000 0.000000
vt 0.875000 0.250000
vt 0.125000 0.000000
vt 0.125000 0.250000
vt 0.375000 0.000000
vt 0.625000 0.000000
vt 0.625000 0.250000
vt 0.375000 0.250000
vt 0.625000 0.500000
vt 0.375000 0.500000
vt 0.625000 0.750000
vt 0.375000 0.750000
vt 0.625000 1.000000
vt 0.375000 1.000000
vt 0.875000 0.000000
vt 0.875000 0.250000
vt 0.125000 0.000000
vt 0.125000 0.250000
vt 0.375000 0.000000
vt 0.625000 0.000000
vt 0.625000 0.250000
vt 0.375000 0.250000
vt 0.625000 0.500000
vt 0.375000 0.500000
vt 0.625000 0.750000
vt 0.375000 0.750000
vt 0.625000 1.000000
vt 0.375000 1.000000
vt 0.875000 0.000000
vt 0.875000 0.250000
vt 0.125000 0.000000
vt 0.125000 0.250000
vt -0.936764 0.429465
vt -0.936764 0.371267
vt -1.283352 0.371267
vt -1.283352 0.429465
vt -0.890054 0.430656
vt 1.687571 0.430656
vt 1.687570 0.484741
vt -0.890053 0.484741
vt 1.687569 0.371135
vt -0.890054 0.371135
vt -0.890054 0.312688
vt 1.687570 0.312688
vt 1.687570 0.255350
vt -0.890053 0.255351
vt 1.739801 0.372323
vt 1.739801 0.428138
vt 2.062576 0.428138
vt 2.062576 0.372323
vt 0.375000 0.000000
vt 0.625000 0.000000
vt 0.625000 0.250000
vt 0.375000 0.250000
vt 0.625000 0.500000
vt 0.375000 0.500000
vt 0.625000 0.750000
vt 0.375000 0.750000
vt 0.625000 1.000000
vt 0.375000 1.000000
vt 0.875000 0.000000
vt 0.875000 0.250000
vt 0.125000 0.000000
vt 0.125000 0.250000
vt 0.375000 0.000000
vt 0.625000 0.000000
vt 0.625000 0.250000
vt 0.375000 0.250000
vt 0.625000 0.500000
vt 0.375000 0.500000
vt 0.625000 0.750000
vt 0.375000 0.750000
vt 0.625000 1.000000
vt 0.375000 1.000000
vt 0.875000 0.000000
vt 0.875000 0.250000
vt 0.125000 0.000000
vt 0.125000 0.250000
vn 0.000000 0.014276 0.999898
vn 0.000000 0.014276 0.999898
vn 0.000000 0.014276 0.999898
vn 0.000000 0.014276 0.999898
vn 0.000000 -0.999996 0.002987
vn 0.000000 -0.999996 0.002987
vn 0.000000 -0.999996 0.002987
vn 0.000000 -0.999996 0.002987
vn 0.992967 -0.118391 0.000093
vn 0.992967 -0.118391 0.000093
vn 0.992967 -0.118391 0.000093
vn 0.992967 -0.118391 0.000093
vn 0.000000 0.999999 0.001423
vn 0.000000 0.999999 0.001423
vn 0.000000 0.999999 0.001423
vn 0.000000 0.999999 0.001423
vn -0.992975 -0.118327 0.000093
vn -0.992975 -0.118327 0.000093
vn -0.992975 -0.118327 0.000093
vn -0.992975 -0.118327 0.000093
vn 0.000000 0.000000 -1.000000
vn 0.000000 0.000000 -1.000000
vn 0.000000 0.000000 -1.000000
vn 0.000000 0.000000 -1.000000
vn 0.000000 0.014276 0.999898
vn 0.000000 0.014276 0.999898
vn 0.000000 0.014276 0.999898
vn 0.000000 0.014276 0.999898
vn 0.000000 -0.999993 0.003708
vn 0.000000 -0.999993 0.003708
vn 0.000000 -0.999993 0.003708
vn 0.000000 -0.999993 0.003708
vn 0.992967 -0.118390 0.000178
vn 0.992967 -0.118390 0.000178
vn 0.992967 -0.118390 0.000178
vn 0.992967 -0.118390 0.000178
vn 0.000000 1.000000 0.000702
vn 0.000000 1.000000 0.000702
vn 0.000000 1.000000 0.000702
vn 0.000000 1.000000 0.000702
vn -0.992975 -0.118326 0.000178
vn -0.992975 -0.118326 0.000178
vn -0.992975 -0.118326 0.000178
vn -0.992975 -0.118326 0.000178
vn 0.000000 0.000000 -1.000000
vn 0.000000 0.000000 -1.000000
vn 0.000000 0.000000 -1.000000
vn 0.000000 0.000000 -1.000000
vn 0.707132 0.000000 0.707081
vn 0.707132 0.000000 0.707081
vn 0.707132 0.000000 0.707081
vn 0.707132 0.000000 0.707081
vn 0.000000 1.000000 0.000000
vn 0.000000 1.000000 0.000000
vn 0.000000 1.000000 0.000000
vn 0.000000 1.000000 0.000000
vn -0.707077 0.000000 -0.707137
vn -0.707077 0.000000 -0.707137
vn -0.707077 0.000000 -0.707137
vn -0.707077 0.000000 -0.707137
vn 0.000000 -1.000000 0.000000
vn 0.000000 -1.000000 0.000000
vn 0.000000 -1.000000 0.000000
vn 0.000000 -1.000000 0.000000
vn 0.707144 0.000000 -0.707069
vn 0.707144 0.000000 -0.707069
vn 0.707144 0.000000 -0.707069
vn 0.707144 0.000000 -0.707069
vn -0.707084 0.000000 0.707129
vn -0.707084 0.000000 0.707129
vn -0.707084 0.000000 0.707129
vn -0.707084 0.000000 0.707129
vn 0.000041 0.010970 0.999940
vn 0.000082 0.010220 0.999948
vn 0.000082 0.010220 0.999948
vn 0.000041 0.010970 0.999940
vn -0.647708 -0.760449 -0.046816
vn -0.648419 -0.761281 0.001921
vn -0.345277 -0.938498 0.002180
vn -0.345196 -0.938229 -0.023794
vn 0.999521 -0.030951 0.000046
vn 0.999521 -0.030951 0.000046
vn 0.999529 -0.030642 -0.001938
vn 0.999529 -0.030642 -0.001938
vn -0.057309 0.998356 0.001161
vn -0.057309 0.998356 0.001161
vn -0.114431 0.993431 0.001156
vn -0.114430 0.993431 0.001156
vn -0.999522 -0.030925 0.000046
vn -0.999522 -0.030925 0.000046
vn -0.999529 -0.030625 -0.001937
vn -0.999529 -0.030625 -0.001937
vn 0.000000 0.000000 -1.000000
vn 0.000000 0.000000 -1.000000
vn 0.000000 0.000000 -1.000000
vn 0.000000 0.000000 -1.000000
vn 0.056114 0.998424 0.001161
vn 0.056114 0.998424 0.001161
vn -0.000040 0.010971 0.999940
vn -0.000040 0.010971 0.999940
vn 0.340328 -0.940304 0.002184
vn 0.340248 -0.940030 -0.023970
vn -0.000000 0.000000 -1.000000
vn -0.000000 0.000000 -1.000000
vn 0.112050 0.993702 0.001156
vn 0.112052 0.993702 0.001156
vn -0.000081 0.010220 0.999948
vn -0.000081 0.010220 0.999948
vn 0.640362 -0.768071 0.001937
vn 0.639650 -0.767214 -0.047232
vn -0.000000 0.000000 -1.000000
vn -0.000000 0.000000 -1.000000
vn 0.112053 0.993702 0.001156
vn 0.056115 0.998424 0.001161
vn -0.057310 0.998356 0.001161
vn -0.114431 0.993430 0.001156
vn 0.999509 -0.031260 0.002031
vn 0.999509 -0.031260 0.002031
vn -0.647590 -0.760304 0.050653
vn -0.345126 -0.938134 0.028151
vn 0.340174 -0.939936 0.028337
vn 0.639524 -0.767071 0.051102
vn -0.999510 -0.031226 0.002029
vn -0.999510 -0.031226 0.002029
vn 0.000000 0.014276 0.999898
vn 0.000000 0.014276 0.999898
vn 0.000000 0.014276 0.999898
vn 0.000000 0.014276 0.999898
vn 0.000000 -0.999996 0.002988
vn 0.000000 -0.999996 0.002988
vn 0.000000 -0.999996 0.002988
vn 0.000000 -0.999996 0.002988
vn 0.992959 -0.118455 0.000093
vn 0.992959 -0.118455 0.000093
vn 0.992959 -0.118455 0.000093
vn 0.992959 -0.118455 0.000093
vn 0.000000 0.999999 0.001423
vn 0.000000 0.999999 0.001423
vn 0.000000 0.999999 0.001423
vn 0.000000 0.999999 0.001423
vn -0.992959 -0.118455 0.000093
vn -0.992959 -0.118455 0.000093
vn -0.992959 -0.118455 0.000093
vn -0.992959 -0.118455 0.000093
vn 0.000000 0.000000 -1.000000
vn 0.000000 0.000000 -1.000000
vn 0.000000 0.000000 -1.000000
vn 0.000000 0.000000 -1.000000
vn 0.000000 0.014276 0.999898
vn 0.000000 0.014276 0.999898
vn 0.000000 0.014276 0.999898
vn 0.000000 0.014276 0.999898
vn 0.000000 -0.999993 0.003708
vn 0.000000 -0.999993 0.003708
vn 0.000000 -0.999993 0.003708
vn 0.000000 -0.999993 0.003708
vn 0.992959 -0.118455 0.000178
vn 0.992959 -0.118455 0.000178
vn 0.992959 -0.118455 0.000178
vn 0.992959 -0.118455 0.000178
vn 0.000000 1.000000 0.000702
vn 0.000000 1.000000 0.000702
vn 0.000000 1.000000 0.000702
vn 0.000000 1.000000 0.000702
vn -0.992959 -0.118455 0.000178
vn -0.992959 -0.118455 0.000178
vn -0.992959 -0.118455 0.000178
vn -0.992959 -0.118455 0.000178
vn 0.000000 0.000000 -1.000000
vn 0.000000 0.000000 -1.000000
vn 0.000000 0.000000 -1.000000
vn 0.000000 0.000000 -1.000000
vn 0.707104 0.000000 0.707110
vn 0.707104 0.000000 0.707110
vn 0.707104 0.000000 0.707110
vn 0.707104 0.000000 0.707110
vn 0.000000 1.000000 0.000000
vn 0.000000 1.000000 0.000000
vn 0.000000 1.000000 0.000000
vn 0.000000 1.000000 0.000000
vn -0.707105 0.000000 -0.707109
vn -0.707105 0.000000 -0.707109
vn -0.707105 0.000000 -0.707109
vn -0.707105 0.000000 -0.707109
vn 0.000000 -1.000000 0.000000
vn 0.000000 -1.000000 0.000000
vn 0.000000 -1.000000 0.000000
vn 0.000000 -1.000000 0.000000
vn 0.707115 0.000000 -0.707099
vn 0.707115 0.000000 -0.707099
vn 0.707115 0.000000 -0.707099
vn 0.707115 0.000000 -0.707099
vn -0.707114 0.000000 0.707099
vn -0.707114 0.000000 0.707099
vn -0.707114 0.000000 0.707099
vn -0.707114 0.000000 0.707099
vn 0.707105 0.000001 0.707109
vn 0.707105 0.000001 0.707109
vn 0.707105 0.000001 0.707109
vn 0.707105 0.000001 0.707109
vn 0.000000 1.000000 0.000000
vn 0.000000 1.000000 0.000000
vn 0.000000 1.000000 0.000000
vn 0.000000 1.000000 0.000000
vn -0.707104 -0.000001 -0.707109
vn -0.707104 -0.000001 -0.707109
vn -0.707104 -0.000001 -0.707109
vn -0.707104 -0.000001 -0.707109
vn 0.000000 -1.000000 0.000000
vn 0.000000 -1.000000 0.000000
vn 0.000000 -1.000000 0.000000
vn 0.000000 -1.000000 0.000000
vn 0.707114 0.000001 -0.707099
vn 0.707114 0.000001 -0.707099
vn 0.707114 0.000001 -0.707099
vn 0.707114 0.000001 -0.707099
vn -0.707115 0.000001 0.707099
vn -0.707115 0.000001 0.707099
vn -0.707115 0.000001 0.707099
vn -0.707115 0.000001 0.707099
vn 0.707133 0.000001 0.707081
vn 0.707133 0.000001 0.707081
vn 0.707133 0.000001 0.707081
vn 0.707133 0.000001 0.707081
vn 0.000000 1.000000 0.000000
vn 0.000000 1.000000 0.000000
vn 0.000000 1.000000 0.000000
vn 0.000000 1.000000 0.000000
vn -0.707076 -0.000001 -0.707137
vn -0.707076 -0.000001 -0.707137
vn -0.707076 -0.000001 -0.707137
vn -0.707076 -0.000001 -0.707137
vn 0.000000 -1.000000 0.000000
vn 0.000000 -1.000000 0.000000
vn 0.000000 -1.000000 0.000000
vn 0.000000 -1.000000 0.000000
vn 0.707144 0.000000 -0.707070
vn 0.707144 0.000000 -0.707070
vn 0.707144 0.000000 -0.707070
vn 0.707144 0.000000 -0.707070
vn -0.707085 0.000001 0.707128
vn -0.707085 0.000001 0.707128
vn -0.707085 0.000001 0.707128
vn -0.707085 0.000001 0.707128
vn 0.999932 0.011633 0.000000
vn 0.999932 0.011633 0.000000
vn 0.999932 0.011633 0.000000
vn 0.999932 0.011633 0.000000
vn 0.004543 -0.999990 0.000000
vn 0.004543 -0.999990 0.000000
vn 0.004543 -0.999990 0.000000
vn 0.004543 -0.999990 0.000000
vn 0.000218 -0.118445 -0.992961
vn 0.000218 -0.118445 -0.992961
vn 0.000218 -0.118445 -0.992961
vn 0.000218 -0.118445 -0.992961
vn 0.000860 1.000000 0.000000
vn 0.000860 1.000000 0.000000
vn 0.000860 1.000000 0.000000
vn 0.000860 1.000000 0.000000
vn 0.000218 -0.118445 0.992961
vn 0.000218 -0.118445 0.992961
vn 0.000218 -0.118445 0.992961
vn 0.000218 -0.118445 0.992961
vn -1.000000 -0.000044 0.000000
vn -1.000000 -0.000044 0.000000
vn -1.000000 -0.000044 0.000000
vn -1.000000 -0.000044 0.000000
vn 0.707133 0.000000 0.707081
vn 0.707133 0.000000 0.707081
vn 0.707133 0.000000 0.707081
vn 0.707133 0.000000 0.707081
vn 0.000000 1.000000 0.000000
vn 0.000000 1.000000 0.000000
vn 0.000000 1.000000 0.000000
vn 0.000000 1.000000 0.000000
vn -0.707076 -0.000000 -0.707137
vn -0.707076 -0.000000 -0.707137
vn -0.707076 -0.000000 -0.707137
vn -0.707076 -0.000000 -0.707137
vn 0.000000 -1.000000 0.000000
vn 0.000000 -1.000000 0.000000
vn 0.000000 -1.000000 0.000000
vn 0.000000 -1.000000 0.000000
vn 0.707144 0.000000 -0.707069
vn 0.707144 0.000000 -0.707069
vn 0.707144 0.000000 -0.707069
vn 0.707144 0.000000 -0.707069
vn -0.707085 0.000000 0.707129
vn -0.707085 0.000000 0.707129
vn -0.707085 0.000000 0.707129
vn -0.707085 0.000000 0.707129
vn 0.707105 0.000000 0.707109
vn 0.707105 0.000000 0.707109
vn 0.707105 0.000000 0.707109
vn 0.707105 0.000000 0.707109
vn 0.000000 1.000000 0.000000
vn 0.000000 1.000000 0.000000
vn 0.000000 1.000000 0.000000
vn 0.000000 1.000000 0.000000
vn -0.707105 -0.000000 -0.707109
vn -0.707105 -0.000000 -0.707109
vn -0.707105 -0.000000 -0.707109
vn -0.707105 -0.000000 -0.707109
vn 0.000000 -1.000000 -0.000000
vn 0.000000 -1.000000 -0.000000
vn 0.000000 -1.000000 -0.000000
vn 0.000000 -1.000000 -0.000000
vn 0.707115 0.000000 -0.707099
vn 0.707115 0.000000 -0.707099
vn 0.707115 0.000000 -0.707099
vn 0.707115 0.000000 -0.707099
vn -0.707115 0.000000 0.707099
vn -0.707115 0.000000 0.707099
vn -0.707115 0.000000 0.707099
vn -0.707115 0.000000 0.707099
s off
g polySurface10082
f 6/1/1 7/2/2 8/3/3 5/4/4
f 1/5/5 6/6/6 5/7/7 4/8/8
f 7/9/9 6/6/10 1/5/11 2/10/12
f 3/11/13 8/12/14 7/9/15 2/10/16
f 5/13/17 8/12/18 3/11/19 4/14/20
f 2/15/21 1/16/22 4/17/23 3/18/24
f 14/19/25 15/20/26 16/21/27 13/22/28
f 9/23/29 14/24/30 13/25/31 12/26/32
f 15/27/33 14/24/34 9/23/35 10/28/36
f 11/29/37 16/30/38 15/27/39 10/28/40
f 13/31/41 16/30/42 11/29/43 12/32/44
f 10/33/45 9/34/46 12/35/47 11/36/48
f 17/37/49 18/38/50 20/39/51 19/40/52
f 19/40/53 20/39/54 22/41/55 21/42/56
f 21/42/57 22/41/58 24/43/59 23/44/60
f 23/44/61 24/43/62 18/45/63 17/46/64
f 18/38/65 24/47/66 22/48/67 20/39/68
f 23/49/69 17/37/70 19/40/71 21/50/72
s 19
f 34/51/73 30/52/74 31/53/75 33/54/76
s 20
f 25/55/77 45/56/78 46/57/79 35/58/80
s 21
f 44/59/81 45/56/82 25/55/83 26/60/84
s 22
f 36/61/85 43/62/86 44/59/87 26/60/88
s 23
f 48/63/89 41/64/90 27/65/91 28/66/92
s 24
f 25/67/93 35/68/94 36/69/95 26/70/96
s 22
f 40/71/97 42/72/98 43/62/86 36/61/85
s 19
f 38/73/99 34/51/73 33/54/76 37/74/100
s 20
f 35/58/80 46/57/79 47/75/101 39/76/102
s 24
f 36/69/95 35/68/94 39/77/103 40/78/104
s 22
f 27/65/105 41/64/106 42/72/98 40/71/97
s 19
f 29/79/107 38/73/99 37/74/100 32/80/108
s 20
f 47/75/101 48/81/109 28/82/110 39/76/102
s 24
f 40/78/104 39/77/103 28/83/111 27/84/112
s 22
f 41/64/106 32/85/113 37/86/114 42/72/98
f 43/62/86 42/72/98 37/86/114 33/87/115
f 44/59/87 43/62/86 33/87/115 31/88/116
s 21
f 31/88/117 30/89/118 45/56/82 44/59/81
s 20
f 46/57/79 45/56/78 30/89/119 34/90/120
f 47/75/101 46/57/79 34/90/120 38/91/121
f 38/91/121 29/92/122 48/81/109 47/75/101
s 23
f 29/93/123 32/85/124 41/64/90 48/63/89
s off
f 54/94/125 55/95/126 56/96/127 53/97/128
f 49/98/129 54/99/130 53/100/131 52/101/132
f 55/102/133 54/99/134 49/98/135 50/103/136
f 51/104/137 56/105/138 55/102/139 50/103/140
f 52/106/141 53/107/142 56/105/143 51/104/144
f 50/108/145 49/109/146 52/110/147 51/111/148
f 62/112/149 63/113/150 64/114/151 61/115/152
f 57/116/153 62/117/154 61/118/155 60/119/156
f 63/120/157 62/117/158 57/116/159 58/121/160
f 59/122/161 64/123/162 63/120/163 58/121/164
f 60/124/165 61/125/166 64/123/167 59/122/168
f 58/126/169 57/127/170 60/128/171 59/129/172
f 65/130/173 66/131/174 68/132/175 67/133/176
f 67/133/177 68/132/178 70/134/179 69/135/180
f 69/135/181 70/134/182 72/136/183 71/137/184
f 71/137/185 72/136/186 66/138/187 65/139/188
f 66/131/189 72/140/190 70/141/191 68/132/192
f 71/142/193 65/130/194 67/133/195 69/143/196
f 73/144/197 74/145/198 76/146/199 75/147/200
f 75/147/201 76/146/202 78/148/203 77/149/204
f 77/149/205 78/148/206 80/150/207 79/151/208
f 79/151/209 80/150/210 74/152/211 73/153/212
f 74/145/213 80/154/214 78/155/215 76/146/216
f 79/156/217 73/144/218 75/147/219 77/157/220
f 81/158/221 82/159/222 84/160/223 83/161/224
f 83/161/225 84/160/226 86/162/227 85/163/228
f 85/163/229 86/162/230 88/164/231 87/165/232
f 87/165/233 88/164/234 82/166/235 81/167/236
f 82/159/237 88/168/238 86/169/239 84/160/240
f 87/170/241 81/158/242 83/161/243 85/171/244
f 94/172/245 95/173/246 96/174/247 93/175/248
f 89/176/249 94/177/250 93/178/251 92/179/252
f 95/180/253 94/177/254 89/176/255 90/181/256
f 91/182/257 96/183/258 95/180/259 90/181/260
f 93/184/261 96/183/262 91/182/263 92/185/264
f 90/186/265 89/187/266 92/188/267 91/189/268
f 97/190/269 98/191/270 100/192/271 99/193/272
f 99/193/273 100/192/274 102/194/275 101/195/276
f 101/195/277 102/194/278 104/196/279 103/197/280
f 103/197/281 104/196/282 98/198/283 97/199/284
f 98/191/285 104/200/286 102/201/287 100/192/288
f 103/202/289 97/190/290 99/193/291 101/203/292
f 105/204/293 106/205/294 108/206/295 107/207/296
f 107/207/297 108/206/298 110/208/299 109/209/300
f 109/209/301 110/208/302 112/210/303 111/211/304
f 111/211/305 112/210/306 106/212/307 105/213/308
f 106/205/309 112/214/310 110/215/311 108/206/312
f 111/216/313 105/204/314 107/207/315 109/217/316
