# This file uses centimeters as units for non-parametric coordinates.

g default
v -55.905979 -0.019467 -0.047405
v -55.925610 -0.019467 0.000000
v -55.905979 -0.019467 0.047406
v -55.858566 -0.019467 0.067041
v -55.811161 -0.019467 0.047406
v -55.791523 -0.019467 0.000000
v -55.811161 -0.019467 -0.047405
v -55.858566 -0.019467 -0.067041
v -55.905979 1.854433 -0.047405
v -55.925610 1.854433 0.000000
v -55.905979 1.854433 0.047406
v -55.858566 1.854433 0.067041
v -55.811161 1.854433 0.047406
v -55.791523 1.854433 0.000000
v -55.811161 1.854433 -0.047405
v -55.858566 1.854433 -0.067041
v -55.858566 -0.019467 0.000000
v -55.858566 1.854433 0.000000
v -59.683262 -0.019467 -0.047405
v -59.702896 -0.019467 0.000000
v -59.683262 -0.019467 0.047406
v -59.635849 -0.019467 0.067041
v -59.588448 -0.019467 0.047406
v -59.568806 -0.019467 0.000000
v -59.588448 -0.019467 -0.047405
v -59.635849 -0.019467 -0.067041
v -59.683262 1.854433 -0.047405
v -59.702896 1.854433 0.000000
v -59.683262 1.854433 0.047406
v -59.635849 1.854433 0.067041
v -59.588448 1.854433 0.047406
v -59.568806 1.854433 0.000000
v -59.588448 1.854433 -0.047405
v -59.635849 1.854433 -0.067041
v -59.635853 -0.019467 0.000000
v -59.635853 1.854433 0.000000
v -55.865612 1.604396 0.046821
v -55.865612 1.744602 0.046764
v -55.865612 1.744602 -0.043598
v -55.865612 1.604396 -0.043655
v -59.641903 0.008431 -0.043380
v -59.641903 0.008431 0.046546
v -59.641903 0.145022 0.046526
v -59.641903 0.145022 -0.043360
v -55.865612 0.003346 0.043616
v -55.865612 0.143886 0.043672
v -55.865612 0.143886 -0.046804
v -55.865612 0.003346 -0.046748
v -59.641903 1.590537 -0.046507
v -59.641903 1.590537 0.043375
v -59.641903 1.725606 0.043395
v -59.641903 1.725606 -0.046528
v -55.858566 1.736486 -0.036705
v -55.858566 1.721283 0.000000
v -55.858566 1.736486 0.036705
v -55.858566 1.773191 0.051908
v -55.858566 1.809895 0.036705
v -55.858566 1.825099 0.000000
v -55.858566 1.809895 -0.036705
v -55.858566 1.773191 -0.051908
v -59.640125 1.736486 -0.036705
v -59.640125 1.721283 0.000000
v -59.640125 1.736486 0.036705
v -59.640125 1.773191 0.051908
v -59.640125 1.809895 0.036705
v -59.640125 1.825099 0.000000
v -59.640125 1.809895 -0.036705
v -59.640125 1.773191 -0.051908
vt -0.608056 0.699420
vt -0.608056 0.673746
vt 1.039430 0.673757
vt 1.039428 0.699505
vt -0.608057 0.647963
vt 1.039431 0.647958
vt -0.608058 0.622153
vt 1.039431 0.622149
vt -0.608058 0.596340
vt 1.039431 0.596340
vt -0.608058 0.570528
vt 1.039431 0.570532
vt -0.608057 0.544718
vt 1.039431 0.544723
vt -0.608056 0.518935
vt 1.039430 0.518924
vt -0.608056 0.493260
vt 1.039428 0.493176
vt 0.444096 0.500000
vt 0.460469 0.531600
vt 0.499999 0.500000
vt 0.460469 0.468400
vt 0.499999 0.455311
vt 0.539530 0.468400
vt 0.555903 0.500000
vt 0.539530 0.531600
vt 0.499999 0.544689
vt 0.460469 0.531600
vt 0.444096 0.500000
vt 0.499999 0.500000
vt 0.460469 0.468400
vt 0.499999 0.455311
vt 0.539530 0.468400
vt 0.555903 0.500000
vt 0.539530 0.531600
vt 0.499999 0.544689
vt -0.608056 0.699420
vt -0.608056 0.673746
vt 1.039430 0.673757
vt 1.039428 0.699505
vt -0.608057 0.647963
vt 1.039431 0.647958
vt -0.608058 0.622153
vt 1.039431 0.622149
vt -0.608058 0.596340
vt 1.039431 0.596340
vt -0.608058 0.570528
vt 1.039431 0.570532
vt -0.608057 0.544718
vt 1.039431 0.544723
vt -0.608056 0.518935
vt 1.039430 0.518924
vt -0.608056 0.493260
vt 1.039428 0.493176
vt 0.466523 0.500000
vt 0.476328 0.522349
vt 0.500000 0.500000
vt 0.476328 0.477651
vt 0.500000 0.468394
vt 0.523672 0.477651
vt 0.533477 0.500000
vt 0.523672 0.522349
vt 0.500000 0.531607
vt 0.476328 0.522349
vt 0.466523 0.500000
vt 0.500000 0.500000
vt 0.476328 0.477651
vt 0.500000 0.468394
vt 0.523672 0.477651
vt 0.533477 0.500000
vt 0.523672 0.522349
vt 0.500000 0.531606
vt -1.394356 0.309436
vt 1.917297 0.309436
vt 1.917297 0.255351
vt -1.394355 0.255350
vt 1.844930 0.368957
vt -1.468500 0.368957
vt 1.844930 0.427403
vt -1.468499 0.427403
vt 1.917297 0.484741
vt -1.394355 0.484741
vt -1.467358 0.309436
vt 1.839084 0.309436
vt 1.839084 0.255351
vt -1.467357 0.255350
vt 1.910805 0.368957
vt -1.394401 0.368957
vt 1.910806 0.427403
vt -1.394401 0.427403
vt 1.839084 0.484741
vt -1.467357 0.484741
vt -0.461411 0.666184
vt -0.461410 0.648808
vt 1.966167 0.648820
vt 1.966164 0.666194
vt -0.461411 0.631325
vt 1.966169 0.631322
vt -0.461411 0.613833
vt 1.966169 0.613830
vt -0.461411 0.596340
vt 1.966169 0.596340
vt -0.461411 0.578848
vt 1.966169 0.578851
vt -0.461411 0.561356
vt 1.966169 0.561359
vt -0.461410 0.543873
vt 1.966167 0.543861
vt -0.461411 0.526497
vt 1.966164 0.526487
vn -0.707123 0.000000 -0.707090
vn -1.000000 0.000000 0.000000
vn -1.000000 0.000000 0.000000
vn -0.707123 0.000000 -0.707090
vn -0.707117 0.000000 0.707097
vn -0.707117 0.000000 0.707097
vn 0.000028 0.000000 1.000000
vn 0.000028 0.000000 1.000000
vn 0.707089 0.000000 0.707125
vn 0.707089 0.000000 0.707125
vn 1.000000 0.000000 0.000000
vn 1.000000 0.000000 0.000000
vn 0.707095 0.000000 -0.707119
vn 0.707095 0.000000 -0.707119
vn 0.000028 0.000000 -1.000000
vn 0.000028 0.000000 -1.000000
vn 0.000000 -1.000000 0.000000
vn 0.000000 -1.000000 0.000000
vn 0.000000 -1.000000 0.000000
vn 0.000000 -1.000000 -0.000000
vn 0.000000 -1.000000 -0.000000
vn 0.000000 -1.000000 -0.000000
vn 0.000000 -1.000000 0.000000
vn 0.000000 -1.000000 0.000000
vn 0.000000 -1.000000 0.000000
vn 0.000000 -1.000000 0.000000
vn 0.000000 -1.000000 0.000000
vn 0.000000 -1.000000 0.000000
vn 0.000000 -1.000000 0.000000
vn 0.000000 -1.000000 0.000000
vn 0.000000 -1.000000 0.000000
vn 0.000000 -1.000000 0.000000
vn 0.000000 -1.000000 0.000000
vn 0.000000 -1.000000 0.000000
vn 0.000000 -1.000000 0.000000
vn 0.000000 -1.000000 0.000000
vn 0.000000 -1.000000 0.000000
vn 0.000000 -1.000000 0.000000
vn 0.000000 -1.000000 0.000000
vn 0.000000 -1.000000 0.000000
vn 0.000000 1.000000 0.000000
vn 0.000000 1.000000 0.000000
vn 0.000000 1.000000 0.000000
vn 0.000000 1.000000 0.000000
vn 0.000000 1.000000 0.000000
vn 0.000000 1.000000 0.000000
vn 0.000000 1.000000 0.000000
vn 0.000000 1.000000 0.000000
vn 0.000000 1.000000 0.000000
vn 0.000000 1.000000 0.000000
vn 0.000000 1.000000 0.000000
vn 0.000000 1.000000 0.000000
vn 0.000000 1.000000 -0.000005
vn 0.000000 1.000000 -0.000005
vn 0.000000 1.000000 -0.000005
vn 0.000000 1.000000 0.000005
vn 0.000000 1.000000 0.000005
vn 0.000000 1.000000 0.000005
vn 0.000000 1.000000 0.000000
vn 0.000000 1.000000 0.000000
vn 0.000000 1.000000 0.000000
vn 0.000000 1.000000 0.000000
vn 0.000000 1.000000 0.000000
vn 0.000000 1.000000 0.000000
vn -0.707099 0.000000 -0.707115
vn -1.000000 0.000000 0.000000
vn -1.000000 0.000000 0.000000
vn -0.707099 0.000000 -0.707115
vn -0.707093 0.000000 0.707121
vn -0.707093 0.000000 0.707121
vn 0.000043 0.000000 1.000000
vn 0.000043 0.000000 1.000000
vn 0.707074 0.000000 0.707139
vn 0.707074 0.000000 0.707139
vn 1.000000 0.000000 0.000000
vn 1.000000 0.000000 0.000000
vn 0.707080 0.000000 -0.707133
vn 0.707080 0.000000 -0.707133
vn 0.000043 0.000000 -1.000000
vn 0.000043 0.000000 -1.000000
vn 0.000000 -1.000000 -0.000000
vn 0.000000 -1.000000 0.000000
vn 0.000000 -1.000000 -0.000000
vn 0.000000 -1.000000 -0.000000
vn 0.000000 -1.000000 -0.000000
vn 0.000000 -1.000000 0.000000
vn 0.000000 -1.000000 0.000000
vn 0.000000 -1.000000 -0.000000
vn 0.000000 -1.000000 -0.000000
vn 0.000001 1.000000 0.000001
vn 0.000002 1.000000 0.000000
vn -0.000000 1.000000 -0.000001
vn 0.000001 1.000000 -0.000002
vn -0.000000 1.000000 -0.000003
vn -0.000001 1.000000 -0.000003
vn -0.000002 1.000000 -0.000002
vn -0.000001 1.000000 0.000000
vn -0.000000 1.000000 0.000001
vn 0.389289 -0.921116 0.000000
vn 0.389289 -0.921116 0.000000
vn 0.389289 -0.921116 0.000000
vn 0.389289 -0.921116 0.000000
vn -0.000186 0.000279 1.000000
vn -0.000186 0.000279 1.000000
vn -0.000186 0.000279 1.000000
vn -0.000186 0.000279 1.000000
vn -0.390037 0.920799 0.000000
vn -0.390037 0.920799 0.000000
vn -0.390037 0.920799 0.000000
vn -0.390037 0.920799 0.000000
vn -0.000186 0.000279 -1.000000
vn -0.000186 0.000279 -1.000000
vn -0.000186 0.000279 -1.000000
vn -0.000186 0.000279 -1.000000
vn -0.387471 -0.921882 0.000000
vn -0.387471 -0.921882 0.000000
vn -0.387471 -0.921882 0.000000
vn -0.387471 -0.921882 0.000000
vn -0.000185 -0.000277 1.000000
vn -0.000185 -0.000277 1.000000
vn -0.000185 -0.000277 1.000000
vn -0.000185 -0.000277 1.000000
vn 0.386335 0.922359 0.000000
vn 0.386335 0.922359 0.000000
vn 0.386335 0.922359 0.000000
vn 0.386335 0.922359 0.000000
vn -0.000186 -0.000280 -1.000000
vn -0.000186 -0.000280 -1.000000
vn -0.000186 -0.000280 -1.000000
vn -0.000186 -0.000280 -1.000000
vn 0.000000 -0.707109 -0.707104
vn 0.000000 -1.000000 0.000005
vn 0.000000 -1.000000 0.000005
vn 0.000000 -0.707109 -0.707104
vn 0.000000 -0.707106 0.707108
vn 0.000000 -0.707106 0.707108
vn 0.000000 0.000000 1.000000
vn 0.000000 0.000000 1.000000
vn 0.000000 0.707104 0.707110
vn 0.000000 0.707104 0.707110
vn 0.000000 1.000000 0.000005
vn 0.000000 1.000000 0.000005
vn 0.000000 0.707107 -0.707106
vn 0.000000 0.707107 -0.707106
vn 0.000000 0.000000 -1.000000
vn 0.000000 0.000000 -1.000000
s 1
g polySurface6359
f 1/1/1 2/2/2 10/3/3 9/4/4
f 2/2/2 3/5/5 11/6/6 10/3/3
f 3/5/5 4/7/7 12/8/8 11/6/6
f 4/7/7 5/9/9 13/10/10 12/8/8
f 5/9/9 6/11/11 14/12/12 13/10/10
f 6/11/11 7/13/13 15/14/14 14/12/12
f 7/13/13 8/15/15 16/16/16 15/14/14
f 8/15/15 1/17/1 9/18/4 16/16/16
s off
f 2/19/17 1/20/18 17/21/19
f 3/22/20 2/19/21 17/21/22
f 4/23/23 3/22/24 17/21/25
f 5/24/26 4/23/27 17/21/28
f 6/25/29 5/24/30 17/21/31
f 7/26/32 6/25/33 17/21/34
f 8/27/35 7/26/36 17/21/37
f 1/20/38 8/27/39 17/21/40
f 9/28/41 10/29/42 18/30/43
f 10/29/44 11/31/45 18/30/46
f 11/31/47 12/32/48 18/30/49
f 12/32/50 13/33/51 18/30/52
f 13/33/53 14/34/54 18/30/55
f 14/34/56 15/35/57 18/30/58
f 15/35/59 16/36/60 18/30/61
f 16/36/62 9/28/63 18/30/64
s 18
f 19/37/65 20/38/66 28/39/67 27/40/68
f 20/38/66 21/41/69 29/42/70 28/39/67
f 21/41/69 22/43/71 30/44/72 29/42/70
f 22/43/71 23/45/73 31/46/74 30/44/72
f 23/45/73 24/47/75 32/48/76 31/46/74
f 24/47/75 25/49/77 33/50/78 32/48/76
f 25/49/77 26/51/79 34/52/80 33/50/78
f 26/51/79 19/53/65 27/54/68 34/52/80
s 19
f 20/55/81 19/56/82 35/57/83
f 21/58/84 20/55/81 35/57/83
f 22/59/85 21/58/84 35/57/83
f 23/60/86 22/59/85 35/57/83
f 24/61/87 23/60/86 35/57/83
f 25/62/88 24/61/87 35/57/83
f 26/63/89 25/62/88 35/57/83
f 19/56/82 26/63/89 35/57/83
s 20
f 27/64/90 28/65/91 36/66/92
f 28/65/91 29/67/93 36/66/92
f 29/67/93 30/68/94 36/66/92
f 30/68/94 31/69/95 36/66/92
f 31/69/95 32/70/96 36/66/92
f 32/70/96 33/71/97 36/66/92
f 33/71/97 34/72/98 36/66/92
f 34/72/98 27/64/90 36/66/92
s off
f 37/73/99 42/74/100 41/75/101 40/76/102
f 43/77/103 42/74/104 37/73/105 38/78/106
f 44/79/107 43/77/108 38/78/109 39/80/110
f 41/81/111 44/79/112 39/80/113 40/82/114
f 45/83/115 50/84/116 49/85/117 48/86/118
f 51/87/119 50/84/120 45/83/121 46/88/122
f 52/89/123 51/87/124 46/88/125 47/90/126
f 49/91/127 52/89/128 47/90/129 48/92/130
s 29
f 53/93/131 54/94/132 62/95/133 61/96/134
f 54/94/132 55/97/135 63/98/136 62/95/133
f 55/97/135 56/99/137 64/100/138 63/98/136
f 56/99/137 57/101/139 65/102/140 64/100/138
f 57/101/139 58/103/141 66/104/142 65/102/140
f 58/103/141 59/105/143 67/106/144 66/104/142
f 59/105/143 60/107/145 68/108/146 67/106/144
f 60/107/145 53/109/131 61/110/134 68/108/146
