# This file uses centimeters as units for non-parametric coordinates.

g default
v -79.479385 0.865408 -1.112705
v -79.479385 0.865408 -1.161365
v -79.479385 1.352850 -1.112705
v -79.479385 1.352850 -1.161365
v -79.546219 1.352850 -1.112705
v -79.546219 1.352850 -1.161365
v -79.546219 0.865408 -1.112705
v -79.546219 0.865408 -1.161365
v -79.574814 0.620560 1.008054
v -79.556656 0.620560 1.051907
v -79.512802 0.620560 1.070070
v -79.468948 0.620560 1.051907
v -79.450775 0.620560 1.008054
v -79.468948 0.620560 0.964203
v -79.512802 0.620560 0.946037
v -79.556656 0.620560 0.964203
v -79.574814 1.612566 1.008054
v -79.556656 1.612566 1.051907
v -79.512802 1.612566 1.070070
v -79.468948 1.612566 1.051907
v -79.450775 1.612566 1.008054
v -79.468948 1.612566 0.964203
v -79.512802 1.612566 0.946037
v -79.556656 1.612566 0.964203
v -79.471634 1.209100 0.304126
v -79.470352 1.289305 -0.430242
v -79.471191 1.316182 -1.159317
v -79.471634 1.287862 0.316875
v -79.470352 1.371193 -0.423656
v -79.471191 1.396800 -1.159317
v -79.554260 1.287862 0.316875
v -79.555557 1.371193 -0.423656
v -79.554718 1.396800 -1.159317
v -79.554260 1.209100 0.304126
v -79.555557 1.289305 -0.430242
v -79.554718 1.316182 -1.159317
v -79.471344 1.159559 1.013725
v -79.471344 1.081529 0.994865
v -79.554565 1.081529 0.994865
v -79.554565 1.159559 1.013725
v -79.481842 1.356749 1.007254
v -79.481842 1.478862 0.337803
v -79.481842 1.560505 -0.400714
v -79.481842 1.587761 -1.159317
v -79.481842 1.415355 1.019585
v -79.481842 1.538147 0.346292
v -79.481842 1.620243 -0.396461
v -79.481842 1.647650 -1.159317
v -79.543762 1.415355 1.019585
v -79.543762 1.538147 0.346292
v -79.543762 1.620243 -0.396461
v -79.543762 1.647650 -1.159317
v -79.543762 1.356749 1.007254
v -79.543762 1.478862 0.337803
v -79.543762 1.560505 -0.400714
v -79.543762 1.587761 -1.159317
v -79.471512 1.386052 1.013420
v -79.471512 1.508504 0.342048
v -79.471512 1.590374 -0.398587
v -79.471512 1.617706 -1.159317
v -79.512802 1.425123 1.021641
v -79.512802 1.548028 0.347706
v -79.512802 1.630199 -0.395751
v -79.512802 1.657632 -1.159317
v -79.554092 1.386052 1.013420
v -79.554092 1.508504 0.342048
v -79.554092 1.590374 -0.398587
v -79.554092 1.617706 -1.159317
v -79.512802 1.346981 1.005198
v -79.512802 1.468981 0.336388
v -79.512802 1.550549 -0.401424
v -79.512802 1.577780 -1.159317
v -79.512802 1.617706 -1.159317
v -79.479385 0.770712 0.324422
v -79.479385 0.770712 0.257591
v -79.479385 1.258154 0.324422
v -79.479385 1.258154 0.257591
v -79.546219 1.258154 0.324422
v -79.546219 1.258154 0.257591
v -79.546219 0.770712 0.324422
v -79.546219 0.770712 0.257591
v -79.556656 0.818715 -0.469893
v -79.574814 0.818715 -0.426041
v -79.556656 0.818715 -0.382189
v -79.512802 0.818715 -0.364025
v -79.468948 0.818715 -0.382189
v -79.450775 0.818715 -0.426041
v -79.468948 0.818715 -0.469893
v -79.512802 0.818715 -0.488057
v -79.556656 1.810722 -0.469893
v -79.574814 1.810722 -0.426041
v -79.556656 1.810722 -0.382189
v -79.512802 1.810722 -0.364025
v -79.468948 1.810722 -0.382189
v -79.450775 1.810722 -0.426041
v -79.468948 1.810722 -0.469893
v -79.512802 1.810722 -0.488057
v -79.549942 1.779472 -0.463179
v -79.512802 1.779472 -0.478562
v -79.475662 1.779472 -0.463179
v -79.460281 1.779472 -0.426040
v -79.475662 1.779472 -0.388902
v -79.512802 1.779472 -0.373518
v -79.549942 1.779472 -0.388902
v -79.565323 1.779472 -0.426040
v -79.569397 1.795942 -0.482640
v -79.512802 1.795942 -0.506084
v -79.456207 1.795942 -0.482640
v -79.432755 1.795942 -0.426040
v -79.456207 1.795942 -0.369441
v -79.512802 1.795942 -0.345997
v -79.569397 1.795942 -0.369441
v -79.592850 1.795942 -0.426040
v -79.565338 1.833881 -0.478574
v -79.512802 1.833881 -0.500335
v -79.460266 1.833881 -0.478574
v -79.438507 1.833881 -0.426040
v -79.460266 1.833881 -0.373506
v -79.512802 1.833881 -0.351746
v -79.565338 1.833881 -0.373506
v -79.587097 1.833881 -0.426040
v -79.553360 1.839371 -0.466602
v -79.512802 1.839371 -0.483404
v -79.472229 1.839371 -0.466602
v -79.455429 1.839371 -0.426040
v -79.472229 1.839371 -0.385478
v -79.512802 1.839371 -0.368677
v -79.553360 1.839371 -0.385478
v -79.570160 1.839371 -0.426040
v -79.546524 1.863527 -0.459762
v -79.512802 1.863527 -0.473730
v -79.479080 1.863527 -0.459762
v -79.465118 1.863527 -0.426040
v -79.479080 1.863527 -0.392319
v -79.512802 1.863527 -0.378351
v -79.546524 1.863527 -0.392319
v -79.560486 1.863527 -0.426040
v -79.534546 1.870115 -0.447790
v -79.512802 1.870115 -0.456799
v -79.491058 1.870115 -0.447790
v -79.482040 1.870115 -0.426040
v -79.491058 1.870115 -0.404291
v -79.512802 1.870115 -0.395282
v -79.534546 1.870115 -0.404291
v -79.543549 1.870115 -0.426040
v -79.555496 1.892796 -0.468740
v -79.512802 1.892796 -0.486425
v -79.470093 1.892796 -0.468740
v -79.452423 1.892796 -0.426040
v -79.470093 1.892796 -0.383342
v -79.512802 1.892796 -0.365655
v -79.555496 1.892796 -0.383342
v -79.573181 1.892796 -0.426040
v -79.572174 1.926834 -0.485420
v -79.512802 1.926834 -0.510016
v -79.453415 1.926834 -0.485420
v -79.428833 1.926834 -0.426040
v -79.453415 1.926834 -0.366661
v -79.512802 1.926834 -0.342065
v -79.572174 1.926834 -0.366661
v -79.596771 1.926834 -0.426040
v -79.538818 1.948794 -0.452058
v -79.512802 1.948794 -0.462835
v -79.486786 1.948794 -0.452058
v -79.476013 1.948794 -0.426040
v -79.486786 1.948794 -0.400022
v -79.512802 1.948794 -0.389246
v -79.538818 1.948794 -0.400022
v -79.549591 1.948794 -0.426040
v -79.512802 1.979538 -0.426040
v -79.565323 1.572614 1.008055
v -79.549942 1.572614 0.970916
v -79.512802 1.572614 0.955532
v -79.475662 1.572614 0.970916
v -79.460281 1.572614 1.008054
v -79.475662 1.572614 1.045193
v -79.512802 1.572614 1.060576
v -79.549942 1.572614 1.045193
v -79.592850 1.589084 1.008055
v -79.569397 1.589084 0.951454
v -79.512802 1.589084 0.928010
v -79.456207 1.589084 0.951454
v -79.432755 1.589084 1.008054
v -79.456207 1.589084 1.064654
v -79.512802 1.589084 1.088098
v -79.569397 1.589084 1.064654
v -79.587097 1.627023 1.008055
v -79.565338 1.627023 0.955521
v -79.512802 1.627023 0.933760
v -79.460266 1.627023 0.955521
v -79.438507 1.627023 1.008054
v -79.460266 1.627023 1.060589
v -79.512802 1.627023 1.082349
v -79.565338 1.627023 1.060589
v -79.570160 1.632513 1.008055
v -79.553360 1.632513 0.967492
v -79.512802 1.632513 0.950691
v -79.472229 1.632513 0.967491
v -79.455429 1.632513 1.008055
v -79.472229 1.632513 1.048616
v -79.512802 1.632513 1.065418
v -79.553360 1.632513 1.048616
v -79.560486 1.656669 1.008054
v -79.546524 1.656669 0.974333
v -79.512802 1.656669 0.960365
v -79.479080 1.656669 0.974334
v -79.465118 1.656669 1.008055
v -79.479080 1.656669 1.041776
v -79.512802 1.656669 1.055743
v -79.546524 1.656669 1.041776
v -79.543549 1.663257 1.008055
v -79.534546 1.663257 0.986305
v -79.512802 1.663257 0.977296
v -79.491058 1.663257 0.986305
v -79.482040 1.663257 1.008054
v -79.491058 1.663257 1.029804
v -79.512802 1.663257 1.038812
v -79.534546 1.663257 1.029804
v -79.573181 1.685938 1.008054
v -79.555496 1.685938 0.965355
v -79.512802 1.685938 0.947668
v -79.470093 1.685938 0.965356
v -79.452408 1.685938 1.008054
v -79.470093 1.685938 1.050754
v -79.512802 1.685938 1.068439
v -79.555496 1.685938 1.050754
v -79.596771 1.719976 1.008055
v -79.572174 1.719976 0.948674
v -79.512802 1.719976 0.924079
v -79.453415 1.719976 0.948675
v -79.428833 1.719976 1.008054
v -79.453415 1.719976 1.067433
v -79.512802 1.719976 1.092030
v -79.572174 1.719976 1.067434
v -79.549591 1.741936 1.008055
v -79.538818 1.741936 0.982037
v -79.512802 1.741936 0.971259
v -79.486786 1.741936 0.982037
v -79.476013 1.741936 1.008055
v -79.486786 1.741936 1.034073
v -79.512802 1.741936 1.044849
v -79.538818 1.741936 1.034072
v -79.512802 1.772680 1.008055
v -79.432220 0.680050 0.327770
v -79.432220 0.768715 -0.405285
v -79.432220 0.798334 -1.159317
v -79.432220 0.789002 0.345407
v -79.432220 0.878730 -0.396438
v -79.432220 0.908704 -1.159317
v -79.593369 0.789002 0.345407
v -79.593369 0.878730 -0.396438
v -79.593369 0.908704 -1.159317
v -79.593369 0.680050 0.327770
v -79.593369 0.768715 -0.405285
v -79.593369 0.798334 -1.159317
v -79.593369 0.512199 1.134059
v -79.432220 0.512199 1.134059
v -79.432220 0.619138 1.161366
v -79.593369 0.619138 1.161366
v -79.439957 0.574763 0.310136
v -79.439957 0.663428 -0.414102
v -79.439957 0.689520 -1.159317
v -79.450439 0.683714 0.327773
v -79.450439 0.773443 -0.405255
v -79.450439 0.799890 -1.159317
v -79.575165 0.683714 0.327773
v -79.575165 0.773443 -0.405255
v -79.575165 0.799890 -1.159317
v -79.585648 0.574763 0.310136
v -79.585648 0.663428 -0.414102
v -79.585648 0.689520 -1.159317
v -79.585648 0.410438 1.105845
v -79.439957 0.410438 1.105845
v -79.450439 0.517377 1.133151
v -79.575165 0.517377 1.133151
v -79.439957 0.472399 1.121666
v -79.585648 0.472399 1.121666
v -79.585648 0.637890 0.320354
v -79.585648 0.727171 -0.408976
v -79.585648 0.753469 -1.159317
v -79.439957 0.753469 -1.159317
v -79.439957 0.727171 -0.408976
v -79.439957 0.637890 0.320354
v -81.577103 0.620560 0.946037
v -81.620956 0.620560 0.964203
v -81.639130 0.620560 1.008054
v -81.620956 0.620560 1.051907
v -81.577103 0.620560 1.070070
v -81.533249 0.620560 1.051907
v -81.515091 0.620560 1.008054
v -81.533249 0.620560 0.964203
v -81.577103 1.612566 0.946037
v -81.620956 1.612566 0.964203
v -81.639130 1.612566 1.008054
v -81.620956 1.612566 1.051907
v -81.577103 1.612566 1.070070
v -81.533249 1.612566 1.051907
v -81.515091 1.612566 1.008054
v -81.533249 1.612566 0.964203
v -81.535934 1.209100 0.304126
v -81.534653 1.289305 -0.430242
v -81.535492 1.316182 -1.159317
v -81.535934 1.287862 0.316875
v -81.534653 1.371193 -0.423656
v -81.535492 1.396800 -1.159317
v -81.618576 1.287862 0.316875
v -81.619858 1.371193 -0.423656
v -81.619019 1.396800 -1.159317
v -81.618576 1.209100 0.304126
v -81.619858 1.289305 -0.430242
v -81.619019 1.316182 -1.159317
v -81.535645 1.159559 1.013725
v -81.535645 1.081529 0.994865
v -81.618866 1.081529 0.994865
v -81.618866 1.159559 1.013725
v -81.546143 1.356749 1.007254
v -81.546143 1.478862 0.337803
v -81.546143 1.560505 -0.400714
v -81.546143 1.587761 -1.159317
v -81.546143 1.415355 1.019585
v -81.546143 1.538147 0.346292
v -81.546143 1.620243 -0.396461
v -81.546143 1.647650 -1.159317
v -81.608063 1.415355 1.019585
v -81.608063 1.538147 0.346292
v -81.608063 1.620243 -0.396461
v -81.608063 1.647650 -1.159317
v -81.608063 1.356749 1.007254
v -81.608063 1.478862 0.337803
v -81.608063 1.560505 -0.400714
v -81.608063 1.587761 -1.159317
v -81.535828 1.386052 1.013420
v -81.535828 1.508504 0.342048
v -81.535828 1.590374 -0.398587
v -81.535828 1.617706 -1.159317
v -81.577103 1.425123 1.021641
v -81.577103 1.548028 0.347706
v -81.577103 1.630199 -0.395751
v -81.577103 1.657632 -1.159317
v -81.618393 1.386052 1.013420
v -81.618393 1.508504 0.342048
v -81.618393 1.590374 -0.398587
v -81.618393 1.617706 -1.159317
v -81.577103 1.346981 1.005198
v -81.577103 1.468981 0.336388
v -81.577103 1.550549 -0.401424
v -81.577103 1.577780 -1.159317
v -81.577103 1.617706 -1.159317
v -81.543701 0.770712 0.324422
v -81.543701 0.770712 0.257591
v -81.543701 1.258154 0.324422
v -81.543701 1.258154 0.257591
v -81.610519 1.258154 0.324422
v -81.610519 1.258154 0.257591
v -81.610519 0.770712 0.324422
v -81.610519 0.770712 0.257591
v -81.533249 0.818715 -0.469893
v -81.577103 0.818715 -0.488057
v -81.620956 0.818715 -0.469893
v -81.639114 0.818715 -0.426040
v -81.620956 0.818715 -0.382189
v -81.577103 0.818715 -0.364024
v -81.533249 0.818715 -0.382189
v -81.515091 0.818715 -0.426040
v -81.533249 1.810722 -0.469893
v -81.577103 1.810722 -0.488057
v -81.620956 1.810722 -0.469893
v -81.639114 1.810722 -0.426040
v -81.620956 1.810722 -0.382189
v -81.577103 1.810722 -0.364024
v -81.533249 1.810722 -0.382189
v -81.515091 1.810722 -0.426040
v -81.539978 1.779472 -0.463179
v -81.524582 1.779472 -0.426040
v -81.539978 1.779472 -0.388902
v -81.577103 1.779472 -0.373519
v -81.614243 1.779472 -0.388902
v -81.629623 1.779472 -0.426040
v -81.614243 1.779472 -0.463179
v -81.577103 1.779472 -0.478562
v -81.520508 1.795942 -0.482640
v -81.497055 1.795942 -0.426040
v -81.520508 1.795942 -0.369441
v -81.577103 1.795942 -0.345997
v -81.633713 1.795942 -0.369441
v -81.657150 1.795942 -0.426040
v -81.633713 1.795942 -0.482640
v -81.577103 1.795942 -0.506084
v -81.524567 1.833881 -0.478575
v -81.502808 1.833881 -0.426040
v -81.524567 1.833881 -0.373506
v -81.577103 1.833881 -0.351746
v -81.629639 1.833881 -0.373506
v -81.651398 1.833881 -0.426040
v -81.629639 1.833881 -0.478575
v -81.577103 1.833881 -0.500336
v -81.536545 1.839371 -0.466603
v -81.519745 1.839371 -0.426040
v -81.536545 1.839371 -0.385478
v -81.577103 1.839371 -0.368677
v -81.617661 1.839371 -0.385478
v -81.634476 1.839371 -0.426040
v -81.617661 1.839371 -0.466603
v -81.577103 1.839371 -0.483404
v -81.543381 1.863527 -0.459762
v -81.529419 1.863527 -0.426040
v -81.543381 1.863527 -0.392319
v -81.577103 1.863527 -0.378351
v -81.610825 1.863527 -0.392319
v -81.624786 1.863527 -0.426040
v -81.610825 1.863527 -0.459762
v -81.577103 1.863527 -0.473730
v -81.555359 1.870115 -0.447790
v -81.546356 1.870115 -0.426040
v -81.555359 1.870115 -0.404291
v -81.577103 1.870115 -0.395282
v -81.598862 1.870115 -0.404291
v -81.607864 1.870115 -0.426040
v -81.598862 1.870115 -0.447790
v -81.577103 1.870115 -0.456799
v -81.534409 1.892796 -0.468740
v -81.516724 1.892796 -0.426040
v -81.534409 1.892796 -0.383342
v -81.577103 1.892796 -0.365655
v -81.619812 1.892796 -0.383342
v -81.637482 1.892796 -0.426040
v -81.619812 1.892796 -0.468740
v -81.577103 1.892796 -0.486426
v -81.517731 1.926834 -0.485420
v -81.493134 1.926834 -0.426040
v -81.517731 1.926834 -0.366661
v -81.577103 1.926834 -0.342065
v -81.636475 1.926834 -0.366661
v -81.661087 1.926834 -0.426040
v -81.636475 1.926834 -0.485420
v -81.577103 1.926834 -0.510016
v -81.551086 1.948794 -0.452058
v -81.540314 1.948794 -0.426040
v -81.551086 1.948794 -0.400023
v -81.577103 1.948794 -0.389246
v -81.603119 1.948794 -0.400023
v -81.613892 1.948794 -0.426040
v -81.603119 1.948794 -0.452058
v -81.577103 1.948794 -0.462835
v -81.577103 1.979538 -0.426040
v -81.577103 1.572614 0.955532
v -81.539978 1.572614 0.970916
v -81.524582 1.572614 1.008055
v -81.539978 1.572614 1.045193
v -81.577103 1.572614 1.060576
v -81.614243 1.572614 1.045193
v -81.629623 1.572614 1.008054
v -81.614243 1.572614 0.970916
v -81.577103 1.589084 0.928010
v -81.520508 1.589084 0.951454
v -81.497055 1.589084 1.008055
v -81.520508 1.589084 1.064654
v -81.577103 1.589084 1.088098
v -81.633713 1.589084 1.064654
v -81.657150 1.589084 1.008054
v -81.633713 1.589084 0.951454
v -81.577103 1.627023 0.933760
v -81.524567 1.627023 0.955521
v -81.502808 1.627023 1.008055
v -81.524567 1.627023 1.060589
v -81.577103 1.627023 1.082349
v -81.629639 1.627023 1.060589
v -81.651398 1.627023 1.008054
v -81.629639 1.627023 0.955521
v -81.577103 1.632513 0.950691
v -81.536545 1.632513 0.967492
v -81.519745 1.632513 1.008054
v -81.536545 1.632513 1.048616
v -81.577103 1.632513 1.065418
v -81.617661 1.632513 1.048616
v -81.634476 1.632513 1.008055
v -81.617661 1.632513 0.967491
v -81.577103 1.656669 0.960365
v -81.543381 1.656669 0.974333
v -81.529419 1.656669 1.008054
v -81.543381 1.656669 1.041776
v -81.577103 1.656669 1.055743
v -81.610825 1.656669 1.041776
v -81.624786 1.656669 1.008055
v -81.610825 1.656669 0.974333
v -81.577103 1.663257 0.977296
v -81.555359 1.663257 0.986305
v -81.546356 1.663257 1.008054
v -81.555359 1.663257 1.029804
v -81.577103 1.663257 1.038812
v -81.598862 1.663257 1.029804
v -81.607864 1.663257 1.008054
v -81.598846 1.663257 0.986305
v -81.577103 1.685938 0.947668
v -81.534409 1.685938 0.965355
v -81.516724 1.685938 1.008054
v -81.534409 1.685938 1.050754
v -81.577103 1.685938 1.068439
v -81.619812 1.685938 1.050754
v -81.637482 1.685938 1.008054
v -81.619812 1.685938 0.965355
v -81.577103 1.719976 0.924079
v -81.517731 1.719976 0.948674
v -81.493134 1.719976 1.008054
v -81.517731 1.719976 1.067434
v -81.577103 1.719976 1.092030
v -81.636475 1.719976 1.067433
v -81.661087 1.719976 1.008054
v -81.636475 1.719976 0.948675
v -81.577103 1.741936 0.971259
v -81.551086 1.741936 0.982037
v -81.540314 1.741936 1.008054
v -81.551086 1.741936 1.034072
v -81.577103 1.741936 1.044849
v -81.603119 1.741936 1.034073
v -81.613892 1.741936 1.008055
v -81.603119 1.741936 0.982037
v -81.577103 1.772680 1.008055
v -81.543701 0.865408 -1.112705
v -81.543701 0.865408 -1.161365
v -81.543701 1.352850 -1.112705
v -81.543701 1.352850 -1.161365
v -81.610519 1.352850 -1.112705
v -81.610519 1.352850 -1.161365
v -81.610519 0.865408 -1.112705
v -81.610519 0.865408 -1.161365
v -81.496536 0.680050 0.327770
v -81.496536 0.768715 -0.405285
v -81.496536 0.798334 -1.159317
v -81.496536 0.789002 0.345407
v -81.496536 0.878730 -0.396438
v -81.496536 0.908704 -1.159317
v -81.657684 0.789002 0.345407
v -81.657684 0.878730 -0.396438
v -81.657684 0.908704 -1.159317
v -81.657684 0.680050 0.327770
v -81.657684 0.768715 -0.405285
v -81.657684 0.798334 -1.159317
v -81.657684 0.512199 1.134059
v -81.496536 0.512199 1.134059
v -81.496536 0.619138 1.161366
v -81.657684 0.619138 1.161366
v -81.504257 0.574763 0.310136
v -81.504257 0.663428 -0.414102
v -81.504257 0.689520 -1.159317
v -81.514740 0.683714 0.327773
v -81.514740 0.773443 -0.405255
v -81.514740 0.799890 -1.159317
v -81.639465 0.683714 0.327773
v -81.639465 0.773443 -0.405255
v -81.639465 0.799890 -1.159317
v -81.649948 0.574763 0.310136
v -81.649948 0.663428 -0.414102
v -81.649948 0.689520 -1.159317
v -81.649948 0.410438 1.105845
v -81.504257 0.410438 1.105845
v -81.514740 0.517377 1.133151
v -81.639465 0.517377 1.133151
v -81.504257 0.472399 1.121666
v -81.649948 0.472399 1.121666
v -81.649948 0.637890 0.320354
v -81.649948 0.727171 -0.408976
v -81.649948 0.753469 -1.159317
v -81.504257 0.753469 -1.159317
v -81.504257 0.727171 -0.408976
v -81.504257 0.637890 0.320354
v -79.512802 0.755672 -0.023133
v -79.512802 0.779262 -0.238847
v -79.512802 0.804181 -0.017166
v -79.512802 0.827897 -0.234020
v -81.577103 0.804181 -0.017166
v -81.577103 0.827897 -0.234020
v -81.577103 0.755672 -0.023133
v -81.577103 0.779262 -0.238847
v -79.512802 0.725370 0.203909
v -79.512802 0.754214 -0.011156
v -79.512802 0.773720 0.211077
v -79.512802 0.802716 -0.005125
v -81.577103 0.773720 0.211077
v -81.577103 0.802716 -0.005125
v -81.577103 0.725370 0.203909
v -81.577103 0.754214 -0.011156
v -79.512802 0.648208 0.655399
v -79.512802 0.687502 0.442023
v -79.512802 0.696150 0.664953
v -79.512802 0.735651 0.450449
v -81.577103 0.696150 0.664953
v -81.577103 0.735651 0.450449
v -81.577103 0.648208 0.655399
v -81.577103 0.687502 0.442023
v -79.512802 0.600423 0.883953
v -79.512802 0.645009 0.671636
v -79.512802 0.648112 0.894714
v -79.512802 0.692934 0.681275
v -81.577103 0.648112 0.894714
v -81.577103 0.692934 0.681275
v -81.577103 0.600423 0.883953
v -81.577103 0.645009 0.671636
v -79.512802 0.547775 1.106742
v -79.512802 0.598110 0.895735
v -79.512802 0.595154 1.118815
v -79.512802 0.645755 0.906693
v -81.577103 0.595154 1.118815
v -81.577103 0.645755 0.906693
v -81.577103 0.547775 1.106742
v -81.577103 0.598110 0.895735
v -79.512802 0.689542 0.430133
v -79.512802 0.723621 0.215847
v -79.512802 0.737702 0.438496
v -79.512802 0.771961 0.223077
v -81.577103 0.737702 0.438496
v -81.577103 0.771961 0.223077
v -81.577103 0.689542 0.430133
v -81.577103 0.723621 0.215847
v -79.512802 0.780428 -0.250857
v -79.512802 0.798751 -0.467092
v -79.512802 0.829068 -0.246094
v -79.512802 0.847488 -0.463470
v -81.577103 0.829068 -0.246094
v -81.577103 0.847488 -0.463470
v -81.577103 0.780428 -0.250857
v -81.577103 0.798751 -0.467092
v -79.512802 0.821290 -0.936746
v -79.512802 0.823759 -1.153753
v -79.512802 0.870147 -0.935608
v -79.512802 0.872628 -1.153762
v -81.577103 0.870147 -0.935608
v -81.577103 0.872628 -1.153762
v -81.577103 0.821290 -0.936746
v -81.577103 0.823759 -1.153753
v -79.512802 0.813247 -0.707802
v -79.512802 0.821006 -0.924683
v -79.512802 0.862061 -0.705454
v -79.512802 0.869861 -0.923481
v -81.577103 0.862061 -0.705454
v -81.577103 0.869861 -0.923481
v -81.577103 0.813247 -0.707802
v -81.577103 0.821006 -0.924683
v -79.512802 0.799623 -0.479126
v -79.512802 0.812668 -0.695749
v -79.512802 0.848365 -0.475569
v -79.512802 0.861479 -0.693336
v -81.577103 0.848365 -0.475569
v -81.577103 0.861479 -0.693336
v -81.577103 0.799623 -0.479126
v -81.577103 0.812668 -0.695749
vt 0.658640 0.425823
vt 0.658640 0.457687
vt 0.058627 0.457688
vt 0.058627 0.425823
vt 0.058627 0.311242
vt 0.058627 0.253952
vt 0.658640 0.253952
vt 0.658640 0.311242
vt 0.058627 0.368532
vt 0.658640 0.368532
vt 0.058627 0.340071
vt 0.658640 0.340071
vt -0.077670 0.699576
vt -0.077670 0.673767
vt 0.865151 0.673767
vt 0.865151 0.699576
vt -0.077670 0.647958
vt 0.865151 0.647958
vt -0.077670 0.622149
vt 0.865151 0.622149
vt -0.077670 0.596340
vt 0.865151 0.596340
vt -0.077670 0.570532
vt 0.865151 0.570532
vt -0.077670 0.544723
vt 0.865151 0.544723
vt -0.077670 0.518914
vt 0.865151 0.518914
vt -0.077670 0.493105
vt 0.865151 0.493105
vt 0.848684 0.309436
vt -0.330987 0.309436
vt -0.330986 0.368957
vt 0.848684 0.368957
vt -1.506255 0.309436
vt -1.506255 0.368957
vt -0.330986 0.427403
vt 0.848684 0.427403
vt -1.506254 0.427403
vt -0.330986 0.484741
vt 0.848684 0.484741
vt -1.506254 0.484741
vt -0.330986 0.484741
vt 0.848684 0.255351
vt -0.330986 0.255351
vt -0.330986 0.255351
vt -1.506254 0.255350
vt 1.959410 0.309436
vt 1.959409 0.255351
vt 0.848684 0.255351
vt 1.959408 0.368957
vt 1.959409 0.427403
vt 0.848684 0.484741
vt 1.959409 0.484741
vt 2.221279 0.311954
vt 2.678777 0.311954
vt 2.678777 0.367768
vt 2.221279 0.367768
vt 0.003050 0.525281
vt 0.003050 0.543165
vt -0.799481 0.543165
vt -0.799481 0.525281
vt -0.799481 0.561049
vt 0.003049 0.561049
vt 0.805580 0.525281
vt 0.805580 0.543165
vt 0.805580 0.561049
vt 1.608110 0.525281
vt 1.608110 0.543165
vt 1.608110 0.561049
vt 0.003050 0.578933
vt -0.799481 0.578933
vt -0.799481 0.596817
vt 0.003049 0.596817
vt 0.805580 0.578933
vt 0.805580 0.596817
vt 1.608110 0.578933
vt 1.608110 0.596817
vt 0.003050 0.614702
vt -0.799481 0.614702
vt -0.799481 0.632586
vt 0.003049 0.632586
vt 0.805580 0.614702
vt 0.805580 0.632586
vt 1.608110 0.614702
vt 1.608110 0.632586
vt 0.003050 0.650470
vt -0.799481 0.650470
vt 0.003050 0.668354
vt -0.799481 0.668354
vt 0.805580 0.650470
vt 0.805580 0.668354
vt 1.608110 0.650470
vt 1.608110 0.668354
vt 1.443388 0.004033
vt 2.756431 0.004033
vt 2.099909 1.317077
vt 1.443388 0.004033
vt 2.756431 0.004033
vt 2.099909 1.317077
vt 1.443388 0.004033
vt 2.756431 0.004033
vt 2.099909 1.317077
vt 1.443388 0.004033
vt 2.756431 0.004033
vt 2.099909 1.317077
vt 1.443388 0.004033
vt 2.756431 0.004033
vt 2.099909 1.317077
vt 1.443388 0.004033
vt 2.756431 0.004033
vt 2.099909 1.317077
vt 1.443388 0.004033
vt 2.756431 0.004033
vt 2.099909 1.317077
vt 1.443388 0.004033
vt 2.756431 0.004033
vt 2.099909 1.317077
vt 0.058627 0.368532
vt 0.058627 0.311242
vt 0.658640 0.311242
vt 0.658640 0.368532
vt 0.658640 0.425823
vt 0.658640 0.483113
vt 0.058627 0.483113
vt 0.058627 0.425823
vt 0.058627 0.253952
vt 0.658640 0.253952
vt -0.077670 0.653714
vt -0.077670 0.627905
vt 0.865151 0.627905
vt 0.865151 0.653714
vt -0.077670 0.602096
vt 0.865151 0.602096
vt -0.077670 0.576288
vt 0.865151 0.576288
vt -0.077670 0.550479
vt 0.865151 0.550479
vt -0.077670 0.524670
vt 0.865151 0.524670
vt -0.077670 0.498861
vt 0.865151 0.498861
vt -0.077670 0.473052
vt 0.865151 0.473052
vt -0.077670 0.447243
vt 0.865151 0.447243
vt 0.086896 0.751121
vt 0.086896 0.772387
vt 0.015807 0.772387
vt 0.015807 0.751121
vt 0.584520 0.751121
vt 0.584520 0.772387
vt 0.513431 0.772387
vt 0.513431 0.751121
vt 0.442342 0.772387
vt 0.442342 0.751121
vt 0.371253 0.772387
vt 0.371253 0.751121
vt 0.300164 0.772387
vt 0.300164 0.751121
vt 0.229074 0.772387
vt 0.229074 0.751121
vt 0.157985 0.772387
vt 0.157985 0.751121
vt 0.086896 0.805950
vt 0.015807 0.805950
vt 0.584520 0.805950
vt 0.513431 0.805950
vt 0.442342 0.805950
vt 0.371253 0.805950
vt 0.300164 0.805950
vt 0.229074 0.805950
vt 0.157985 0.805950
vt 0.086896 0.814624
vt 0.015807 0.814624
vt 0.584520 0.814624
vt 0.513431 0.814624
vt 0.442342 0.814624
vt 0.371252 0.814624
vt 0.300164 0.814624
vt 0.229075 0.814624
vt 0.157985 0.814624
vt 0.086896 0.837379
vt 0.015807 0.837379
vt 0.584520 0.837379
vt 0.513431 0.837379
vt 0.442342 0.837379
vt 0.371252 0.837379
vt 0.300164 0.837379
vt 0.229074 0.837379
vt 0.157985 0.837379
vt 0.086896 0.847218
vt 0.015807 0.847218
vt 0.584520 0.847218
vt 0.513431 0.847218
vt 0.442342 0.847218
vt 0.371253 0.847218
vt 0.300164 0.847218
vt 0.229074 0.847218
vt 0.157985 0.847218
vt 0.086896 0.876972
vt 0.015807 0.876972
vt 0.584520 0.876972
vt 0.513431 0.876972
vt 0.442342 0.876972
vt 0.371253 0.876972
vt 0.300164 0.876972
vt 0.229074 0.876972
vt 0.157985 0.876972
vt 0.086896 0.907350
vt 0.015807 0.907350
vt 0.584520 0.907350
vt 0.513431 0.907350
vt 0.442342 0.907350
vt 0.371253 0.907350
vt 0.300164 0.907350
vt 0.229074 0.907350
vt 0.157985 0.907350
vt 0.656001 0.905093
vt 0.733623 0.862569
vt 0.794159 0.876306
vt 0.794159 0.936444
vt 0.854694 0.862569
vt 0.932317 0.905093
vt 0.879769 0.829406
vt 0.989544 0.829406
vt 0.854694 0.796243
vt 0.932317 0.753720
vt 0.794159 0.782507
vt 0.794159 0.722369
vt 0.733623 0.796243
vt 0.656001 0.753720
vt 0.708549 0.829406
vt 0.598774 0.830643
vt 0.794159 0.829406
vt 0.086896 0.751121
vt 0.086896 0.772387
vt 0.015807 0.772387
vt 0.015807 0.751121
vt 0.584520 0.751121
vt 0.584520 0.772387
vt 0.513431 0.772387
vt 0.513431 0.751121
vt 0.442342 0.772387
vt 0.442342 0.751121
vt 0.371253 0.772387
vt 0.371253 0.751121
vt 0.300164 0.772387
vt 0.300164 0.751121
vt 0.229074 0.772387
vt 0.229074 0.751121
vt 0.157985 0.772387
vt 0.157985 0.751121
vt 0.086896 0.805950
vt 0.015807 0.805950
vt 0.584520 0.805950
vt 0.513431 0.805950
vt 0.442342 0.805950
vt 0.371253 0.805950
vt 0.300164 0.805950
vt 0.229074 0.805950
vt 0.157985 0.805950
vt 0.086896 0.814624
vt 0.015807 0.814624
vt 0.584520 0.814624
vt 0.513431 0.814624
vt 0.442342 0.814624
vt 0.371252 0.814624
vt 0.300164 0.814624
vt 0.229075 0.814624
vt 0.157985 0.814624
vt 0.086896 0.837379
vt 0.015807 0.837379
vt 0.584520 0.837379
vt 0.513431 0.837379
vt 0.442342 0.837379
vt 0.371252 0.837379
vt 0.300164 0.837379
vt 0.229074 0.837379
vt 0.157985 0.837379
vt 0.086896 0.847218
vt 0.015807 0.847218
vt 0.584520 0.847218
vt 0.513431 0.847218
vt 0.442342 0.847218
vt 0.371253 0.847218
vt 0.300164 0.847218
vt 0.229074 0.847218
vt 0.157985 0.847218
vt 0.086896 0.876972
vt 0.015807 0.876972
vt 0.584520 0.876972
vt 0.513431 0.876972
vt 0.442342 0.876972
vt 0.371253 0.876972
vt 0.300164 0.876972
vt 0.229074 0.876972
vt 0.157985 0.876972
vt 0.086896 0.907350
vt 0.015807 0.907350
vt 0.584520 0.907350
vt 0.513431 0.907350
vt 0.442342 0.907350
vt 0.371253 0.907350
vt 0.300164 0.907350
vt 0.229074 0.907350
vt 0.157985 0.907350
vt 0.656001 0.905093
vt 0.733623 0.862569
vt 0.794159 0.876306
vt 0.794159 0.936444
vt 0.854694 0.862569
vt 0.932317 0.905093
vt 0.879769 0.829406
vt 0.989544 0.829406
vt 0.854694 0.796243
vt 0.932317 0.753720
vt 0.794159 0.782507
vt 0.794159 0.722369
vt 0.733623 0.796243
vt 0.656001 0.753720
vt 0.708549 0.829406
vt 0.598774 0.830643
vt 0.794159 0.829406
vt 0.771406 0.309436
vt -0.060877 0.309436
vt -0.060877 0.368957
vt 0.771406 0.368957
vt -0.890054 0.309436
vt -0.890054 0.368957
vt -0.060877 0.427404
vt 0.771406 0.427403
vt -0.890054 0.427403
vt -0.060877 0.484741
vt 0.771406 0.484741
vt -0.890053 0.484741
vt -0.060877 0.484741
vt 0.771406 0.255351
vt -0.060877 0.255351
vt -0.060877 0.255351
vt -0.890053 0.255350
vt -1.283352 0.310627
vt -0.936764 0.310627
vt -0.936764 0.368825
vt -1.283352 0.368825
vt 1.687571 0.309436
vt 1.687570 0.255351
vt 0.771406 0.255351
vt 1.687569 0.368957
vt 1.687570 0.427404
vt 0.771406 0.484741
vt 1.687570 0.484741
vt 1.739801 0.311954
vt 2.062576 0.311954
vt 2.062576 0.367768
vt 1.739801 0.367768
vt 0.771406 0.309436
vt -0.060877 0.309436
vt -0.060877 0.343923
vt 0.771406 0.343923
vt -0.890054 0.309436
vt -0.890054 0.343923
vt 0.771406 0.368957
vt -0.060877 0.368957
vt -0.060877 0.427404
vt 0.771406 0.427403
vt -0.890054 0.368957
vt -0.890054 0.427403
vt 0.771406 0.451519
vt -0.060877 0.451519
vt -0.060877 0.484741
vt 0.771406 0.484741
vt -0.060877 0.451519
vt -0.890053 0.451519
vt -0.890053 0.484741
vt -0.060877 0.484741
vt 0.771406 0.255351
vt -0.060877 0.255351
vt -0.060877 0.255351
vt -0.890053 0.255350
vt -1.283352 0.310627
vt -0.936764 0.310627
vt -0.936764 0.344347
vt -1.283352 0.344347
vt 1.687571 0.309436
vt 1.687570 0.255351
vt 0.771406 0.255351
vt 1.687570 0.343923
vt 1.687570 0.427404
vt 1.687569 0.368957
vt 0.771406 0.484741
vt 1.687570 0.484741
vt 1.687570 0.451519
vt 0.771406 0.451519
vt 1.739801 0.311954
vt 2.062576 0.311954
vt 2.062576 0.344293
vt 1.739801 0.344293
vt -0.936764 0.368825
vt -1.283352 0.368825
vt 2.062576 0.367768
vt 1.739801 0.367768
vt -0.077670 0.699576
vt -0.077670 0.673767
vt 0.865151 0.673767
vt 0.865151 0.699576
vt -0.077670 0.647958
vt 0.865151 0.647958
vt -0.077670 0.622149
vt 0.865151 0.622149
vt -0.077670 0.596340
vt 0.865151 0.596340
vt -0.077670 0.570532
vt 0.865151 0.570532
vt -0.077670 0.544723
vt 0.865151 0.544723
vt -0.077670 0.518914
vt 0.865151 0.518914
vt -0.077670 0.493105
vt 0.865151 0.493105
vt 0.848684 0.430656
vt -0.330987 0.430656
vt -0.330986 0.371135
vt 0.848684 0.371135
vt -1.506255 0.430656
vt -1.506255 0.371135
vt -0.330986 0.312688
vt 0.848684 0.312688
vt -1.506254 0.312688
vt -0.330986 0.255351
vt 0.848684 0.255350
vt -1.506254 0.255350
vt -0.330986 0.255351
vt 0.848684 0.484741
vt -0.330986 0.484741
vt -0.330986 0.484741
vt -1.506254 0.484741
vt 1.959410 0.430656
vt 1.959409 0.484741
vt 0.848684 0.484741
vt 1.959408 0.371134
vt 1.959409 0.312688
vt 0.848684 0.255350
vt 1.959409 0.255350
vt 2.221279 0.311954
vt 2.678777 0.311954
vt 2.678777 0.367768
vt 2.221279 0.367768
vt 0.003050 0.668354
vt 0.003050 0.650470
vt -0.799481 0.650470
vt -0.799481 0.668354
vt -0.799481 0.632586
vt 0.003049 0.632586
vt 0.805580 0.668354
vt 0.805580 0.650470
vt 0.805580 0.632586
vt 1.608110 0.668354
vt 1.608110 0.650470
vt 1.608110 0.632586
vt 0.003050 0.614702
vt -0.799481 0.614702
vt -0.799481 0.596817
vt 0.003049 0.596817
vt 0.805580 0.614702
vt 0.805580 0.596817
vt 1.608110 0.614702
vt 1.608110 0.596817
vt 0.003050 0.578933
vt -0.799481 0.578933
vt -0.799481 0.561049
vt 0.003049 0.561049
vt 0.805580 0.578933
vt 0.805580 0.561049
vt 1.608110 0.578933
vt 1.608110 0.561049
vt 0.003050 0.543165
vt -0.799481 0.543165
vt 0.003050 0.525281
vt -0.799481 0.525281
vt 0.805580 0.543165
vt 0.805580 0.525281
vt 1.608110 0.543165
vt 1.608110 0.525281
vt 1.443388 0.004033
vt 2.756431 0.004033
vt 2.099909 1.317077
vt 1.443388 0.004033
vt 2.756431 0.004033
vt 2.099909 1.317077
vt 1.443388 0.004033
vt 2.756431 0.004033
vt 2.099909 1.317077
vt 1.443388 0.004033
vt 2.756431 0.004033
vt 2.099909 1.317077
vt 1.443388 0.004033
vt 2.756431 0.004033
vt 2.099909 1.317077
vt 1.443388 0.004033
vt 2.756431 0.004033
vt 2.099909 1.317077
vt 1.443388 0.004033
vt 2.756431 0.004033
vt 2.099909 1.317077
vt 1.443388 0.004033
vt 2.756431 0.004033
vt 2.099909 1.317077
vt 0.058627 0.368532
vt 0.058627 0.311242
vt 0.658640 0.311242
vt 0.658640 0.368532
vt 0.658640 0.425823
vt 0.658640 0.483113
vt 0.058627 0.483113
vt 0.058627 0.425823
vt 0.058627 0.253952
vt 0.658640 0.253952
vt -0.077670 0.653714
vt -0.077670 0.627905
vt 0.865151 0.627905
vt 0.865151 0.653714
vt -0.077670 0.602096
vt 0.865151 0.602096
vt -0.077670 0.576288
vt 0.865151 0.576288
vt -0.077670 0.550479
vt 0.865151 0.550479
vt -0.077670 0.524670
vt 0.865151 0.524670
vt -0.077670 0.498861
vt 0.865151 0.498861
vt -0.077670 0.473052
vt 0.865151 0.473052
vt -0.077670 0.447243
vt 0.865151 0.447243
vt 0.086896 0.751121
vt 0.086896 0.772387
vt 0.015807 0.772387
vt 0.015807 0.751121
vt 0.584520 0.751121
vt 0.584520 0.772387
vt 0.513431 0.772387
vt 0.513431 0.751121
vt 0.442342 0.772387
vt 0.442342 0.751121
vt 0.371253 0.772387
vt 0.371253 0.751121
vt 0.300164 0.772387
vt 0.300164 0.751121
vt 0.229074 0.772387
vt 0.229074 0.751121
vt 0.157985 0.772387
vt 0.157985 0.751121
vt 0.086896 0.805950
vt 0.015807 0.805950
vt 0.584520 0.805950
vt 0.513431 0.805950
vt 0.442342 0.805950
vt 0.371253 0.805950
vt 0.300164 0.805950
vt 0.229074 0.805950
vt 0.157985 0.805950
vt 0.086896 0.814624
vt 0.015807 0.814624
vt 0.584520 0.814624
vt 0.513431 0.814624
vt 0.442342 0.814624
vt 0.371252 0.814624
vt 0.300164 0.814624
vt 0.229075 0.814624
vt 0.157985 0.814624
vt 0.086896 0.837379
vt 0.015807 0.837379
vt 0.584520 0.837379
vt 0.513431 0.837379
vt 0.442342 0.837379
vt 0.371252 0.837379
vt 0.300164 0.837379
vt 0.229074 0.837379
vt 0.157985 0.837379
vt 0.086896 0.847218
vt 0.015807 0.847218
vt 0.584520 0.847218
vt 0.513431 0.847218
vt 0.442342 0.847218
vt 0.371253 0.847218
vt 0.300164 0.847218
vt 0.229074 0.847218
vt 0.157985 0.847218
vt 0.086896 0.876972
vt 0.015807 0.876972
vt 0.584520 0.876972
vt 0.513431 0.876972
vt 0.442342 0.876972
vt 0.371253 0.876972
vt 0.300164 0.876972
vt 0.229074 0.876972
vt 0.157985 0.876972
vt 0.086896 0.907350
vt 0.015807 0.907350
vt 0.584520 0.907350
vt 0.513431 0.907350
vt 0.442342 0.907350
vt 0.371253 0.907350
vt 0.300164 0.907350
vt 0.229074 0.907350
vt 0.157985 0.907350
vt 0.656001 0.905093
vt 0.733623 0.862569
vt 0.794159 0.876306
vt 0.794159 0.936444
vt 0.854694 0.862569
vt 0.932317 0.905093
vt 0.879769 0.829406
vt 0.989544 0.829406
vt 0.854694 0.796243
vt 0.932317 0.753720
vt 0.794159 0.782507
vt 0.794159 0.722369
vt 0.733623 0.796243
vt 0.656001 0.753720
vt 0.708549 0.829406
vt 0.598774 0.830643
vt 0.794159 0.829406
vt 0.086896 0.751121
vt 0.086896 0.772387
vt 0.015807 0.772387
vt 0.015807 0.751121
vt 0.584520 0.751121
vt 0.584520 0.772387
vt 0.513431 0.772387
vt 0.513431 0.751121
vt 0.442342 0.772387
vt 0.442342 0.751121
vt 0.371253 0.772387
vt 0.371253 0.751121
vt 0.300164 0.772387
vt 0.300164 0.751121
vt 0.229074 0.772387
vt 0.229074 0.751121
vt 0.157985 0.772387
vt 0.157985 0.751121
vt 0.086896 0.805950
vt 0.015807 0.805950
vt 0.584520 0.805950
vt 0.513431 0.805950
vt 0.442342 0.805950
vt 0.371253 0.805950
vt 0.300164 0.805950
vt 0.229074 0.805950
vt 0.157985 0.805950
vt 0.086896 0.814624
vt 0.015807 0.814624
vt 0.584520 0.814624
vt 0.513431 0.814624
vt 0.442342 0.814624
vt 0.371252 0.814624
vt 0.300164 0.814624
vt 0.229075 0.814624
vt 0.157985 0.814624
vt 0.086896 0.837379
vt 0.015807 0.837379
vt 0.584520 0.837379
vt 0.513431 0.837379
vt 0.442342 0.837379
vt 0.371252 0.837379
vt 0.300164 0.837379
vt 0.229074 0.837379
vt 0.157985 0.837379
vt 0.086896 0.847218
vt 0.015807 0.847218
vt 0.584520 0.847218
vt 0.513431 0.847218
vt 0.442342 0.847218
vt 0.371253 0.847218
vt 0.300164 0.847218
vt 0.229074 0.847218
vt 0.157985 0.847218
vt 0.086896 0.876972
vt 0.015807 0.876972
vt 0.584520 0.876972
vt 0.513431 0.876972
vt 0.442342 0.876972
vt 0.371253 0.876972
vt 0.300164 0.876972
vt 0.229074 0.876972
vt 0.157985 0.876972
vt 0.086896 0.907350
vt 0.015807 0.907350
vt 0.584520 0.907350
vt 0.513431 0.907350
vt 0.442342 0.907350
vt 0.371253 0.907350
vt 0.300164 0.907350
vt 0.229074 0.907350
vt 0.157985 0.907350
vt 0.656001 0.905093
vt 0.733623 0.862569
vt 0.794159 0.876306
vt 0.794159 0.936444
vt 0.854694 0.862569
vt 0.932317 0.905093
vt 0.879769 0.829406
vt 0.989544 0.829406
vt 0.854694 0.796243
vt 0.932317 0.753720
vt 0.794159 0.782507
vt 0.794159 0.722369
vt 0.733623 0.796243
vt 0.656001 0.753720
vt 0.708549 0.829406
vt 0.598774 0.830643
vt 0.794159 0.829406
vt 0.658640 0.425823
vt 0.658640 0.457687
vt 0.058627 0.457688
vt 0.058627 0.425823
vt 0.058627 0.311242
vt 0.058627 0.253952
vt 0.658640 0.253952
vt 0.658640 0.311242
vt 0.058627 0.368532
vt 0.658640 0.368532
vt 0.058627 0.340071
vt 0.658640 0.340071
vt 0.771406 0.430656
vt -0.060877 0.430656
vt -0.060877 0.371135
vt 0.771406 0.371135
vt -0.890054 0.430656
vt -0.890054 0.371135
vt -0.060877 0.312688
vt 0.771406 0.312688
vt -0.890054 0.312688
vt -0.060877 0.255351
vt 0.771406 0.255351
vt -0.890053 0.255351
vt -0.060877 0.255351
vt 0.771406 0.484741
vt -0.060877 0.484741
vt -0.060877 0.484741
vt -0.890053 0.484741
vt -1.283352 0.429465
vt -0.936764 0.429465
vt -0.936764 0.371267
vt -1.283352 0.371267
vt 1.687571 0.430656
vt 1.687570 0.484741
vt 0.771406 0.484741
vt 1.687569 0.371135
vt 1.687570 0.312688
vt 0.771406 0.255351
vt 1.687570 0.255350
vt 1.739801 0.428138
vt 2.062576 0.428138
vt 2.062576 0.372323
vt 1.739801 0.372323
vt 0.771406 0.430656
vt -0.060877 0.430656
vt -0.060877 0.396169
vt 0.771406 0.396169
vt -0.890054 0.430656
vt -0.890054 0.396169
vt 0.771406 0.371135
vt -0.060877 0.371135
vt -0.060877 0.312688
vt 0.771406 0.312688
vt -0.890054 0.371135
vt -0.890054 0.312688
vt 0.771406 0.288572
vt -0.060877 0.288572
vt -0.060877 0.255351
vt 0.771406 0.255351
vt -0.060877 0.288572
vt -0.890053 0.288572
vt -0.890053 0.255351
vt -0.060877 0.255351
vt 0.771406 0.484741
vt -0.060877 0.484741
vt -0.060877 0.484741
vt -0.890053 0.484741
vt -1.283352 0.429465
vt -0.936764 0.429465
vt -0.936764 0.395745
vt -1.283352 0.395745
vt 1.687571 0.430656
vt 1.687570 0.484741
vt 0.771406 0.484741
vt 1.687570 0.396169
vt 1.687570 0.312688
vt 1.687569 0.371135
vt 0.771406 0.255351
vt 1.687570 0.255350
vt 1.687570 0.288572
vt 0.771406 0.288572
vt 1.739801 0.428138
vt 2.062576 0.428138
vt 2.062576 0.395799
vt 1.739801 0.395799
vt -0.936764 0.371267
vt -1.283352 0.371267
vt 2.062576 0.372323
vt 1.739801 0.372323
vt 0.498523 0.130515
vt 0.498523 0.023960
vt 1.814352 0.023954
vt 1.814352 0.130527
vt 1.814352 0.148100
vt 1.814351 0.254559
vt 0.498523 0.254579
vt 0.498523 0.148116
vt 0.498523 0.006386
vt 1.814351 0.006429
vt 0.005331 0.130515
vt 0.005331 0.023960
vt 1.321159 0.023954
vt 1.321159 0.130527
vt 1.321159 0.148100
vt 1.321159 0.254559
vt 0.005331 0.254579
vt 0.005331 0.148116
vt 0.005331 0.006386
vt 1.321159 0.006429
vt 0.005331 0.130515
vt 0.005331 0.023960
vt 1.321159 0.023954
vt 1.321159 0.130527
vt 1.321159 0.148100
vt 1.321159 0.254559
vt 0.005331 0.254579
vt 0.005331 0.148116
vt 0.005331 0.006386
vt 1.321159 0.006429
vt 0.498523 0.130515
vt 0.498523 0.023960
vt 1.814352 0.023954
vt 1.814352 0.130527
vt 1.814352 0.148100
vt 1.814351 0.254559
vt 0.498523 0.254579
vt 0.498523 0.148116
vt 0.498523 0.006386
vt 1.814351 0.006429
vt 0.337801 0.254605
vt 0.337801 0.148685
vt 1.653624 0.148673
vt 1.653624 0.254586
vt 1.653624 0.024329
vt 1.653623 0.130137
vt 0.337802 0.130156
vt 0.337801 0.024340
vt 0.337802 0.130890
vt 1.653624 0.130933
vt 0.337801 0.006535
vt 1.653623 0.006578
vt -0.141881 0.254937
vt -0.141881 0.148382
vt 1.173947 0.148370
vt 1.173946 0.254918
vt 1.173947 0.024020
vt 1.173946 0.130475
vt -0.141881 0.130494
vt -0.141881 0.024031
vt -0.141881 0.130808
vt 1.173946 0.130850
vt -0.141881 0.006430
vt 1.173946 0.006472
vt 0.337799 0.254937
vt 0.337799 0.148382
vt 1.653627 0.148370
vt 1.653627 0.254918
vt 1.653627 0.024020
vt 1.653627 0.130475
vt 0.337799 0.130494
vt 0.337799 0.024031
vt 0.337799 0.130808
vt 1.653627 0.130850
vt 0.337799 0.006430
vt 1.653627 0.006472
vt 0.498523 0.130515
vt 0.498523 0.023960
vt 1.814352 0.023954
vt 1.814352 0.130527
vt 1.814352 0.148100
vt 1.814351 0.254559
vt 0.498523 0.254579
vt 0.498523 0.148116
vt 0.498523 0.006386
vt 1.814351 0.006429
vt 0.005331 0.130515
vt 0.005331 0.023960
vt 1.321159 0.023954
vt 1.321159 0.130527
vt 1.321159 0.148100
vt 1.321159 0.254559
vt 0.005331 0.254579
vt 0.005331 0.148116
vt 0.005331 0.006386
vt 1.321159 0.006429
vt -0.141881 0.254937
vt -0.141881 0.148382
vt 1.173947 0.148370
vt 1.173946 0.254918
vt 1.173947 0.024020
vt 1.173946 0.130475
vt -0.141881 0.130494
vt -0.141881 0.024031
vt -0.141881 0.130808
vt 1.173946 0.130850
vt -0.141881 0.006430
vt 1.173946 0.006472
vn -1.000000 0.000000 0.000000
vn -1.000000 0.000000 0.000000
vn -1.000000 0.000000 0.000000
vn -1.000000 0.000000 0.000000
vn 0.000000 0.000000 -1.000000
vn 0.000000 0.000000 -1.000000
vn 0.000000 0.000000 -1.000000
vn 0.000000 0.000000 -1.000000
vn 0.000000 0.000000 1.000000
vn 0.000000 0.000000 1.000000
vn 0.000000 0.000000 1.000000
vn 0.000000 0.000000 1.000000
vn 1.000000 0.000000 0.000000
vn 1.000000 0.000000 0.000000
vn 1.000000 0.000000 0.000000
vn 1.000000 0.000000 0.000000
vn -1.000000 0.000000 -0.000007
vn -0.707143 0.000000 0.707070
vn -0.707143 0.000000 0.707070
vn -1.000000 0.000000 -0.000007
vn 0.000000 0.000000 1.000000
vn 0.000000 0.000000 1.000000
vn 0.707038 0.000000 0.707175
vn 0.707038 0.000000 0.707175
vn 1.000000 0.000000 -0.000008
vn 1.000000 0.000000 -0.000008
vn 0.707046 0.000000 -0.707167
vn 0.707046 0.000000 -0.707167
vn 0.000000 0.000000 -1.000000
vn 0.000000 0.000000 -1.000000
vn -0.707151 0.000000 -0.707062
vn -0.707151 0.000000 -0.707062
vn 1.000000 -0.000061 0.000656
vn 1.000000 -0.000056 0.000285
vn 1.000000 -0.000056 0.000285
vn 1.000000 -0.000061 0.000656
vn 0.999999 0.000083 -0.001144
vn 0.999999 0.000083 -0.001144
vn 0.000000 0.989205 0.146540
vn 0.000000 0.997306 0.073360
vn 0.000000 0.997306 0.073360
vn 0.000000 0.989205 0.146540
vn 0.000000 0.999395 0.034786
vn 0.000000 0.999395 0.034786
vn -1.000000 -0.000060 0.000656
vn -1.000000 -0.000095 0.000296
vn -1.000000 -0.000095 0.000296
vn -1.000000 -0.000060 0.000656
vn -0.999999 0.000050 -0.001144
vn -0.999999 0.000050 -0.001144
vn 0.000000 -0.989403 -0.145196
vn 0.000000 -0.997350 -0.072754
vn 0.000000 -0.997350 -0.072754
vn 0.000000 -0.989403 -0.145196
vn 0.000000 -0.999321 -0.036838
vn 0.000000 -0.999321 -0.036838
vn 0.000000 -0.983369 -0.181619
vn 0.000000 -0.983369 -0.181619
vn 1.000000 0.000072 -0.000403
vn 1.000000 0.000072 -0.000403
vn 0.000000 0.983469 0.181075
vn 0.000000 0.983469 0.181075
vn -1.000000 0.000120 -0.000424
vn -1.000000 0.000120 -0.000424
vn 0.000000 0.000000 -1.000000
vn 0.000000 0.000000 -1.000000
vn 0.000000 0.000000 -1.000000
vn 0.000000 0.000000 -1.000000
vn 0.699960 -0.706661 -0.103374
vn 1.000000 0.000006 -0.000003
vn 1.000000 0.000069 -0.000004
vn 0.699804 -0.702737 -0.128197
vn 0.699738 0.702811 0.128153
vn 0.699949 0.706676 0.103348
vn 0.699953 -0.712287 -0.052087
vn 1.000000 0.000017 -0.000001
vn 0.699958 0.712282 0.052082
vn 0.699741 -0.713936 -0.025649
vn 1.000000 0.000090 -0.000001
vn 0.699708 0.713969 0.025650
vn -0.000017 0.989473 0.144717
vn -0.000024 0.983777 0.179399
vn -0.699751 0.702796 0.128165
vn -0.699981 0.706643 0.103358
vn 0.000002 0.997337 0.072932
vn -0.699992 0.712249 0.052085
vn 0.000013 0.999355 0.035907
vn -0.699723 0.713953 0.025649
vn -1.000000 0.000016 -0.000003
vn -1.000000 0.000075 -0.000004
vn -0.699792 -0.702751 -0.128188
vn -0.699994 -0.706627 -0.103378
vn -1.000000 -0.000031 -0.000001
vn -0.699977 -0.712262 -0.052095
vn -1.000000 -0.000020 -0.000000
vn -0.699709 -0.713967 -0.025650
vn -0.000010 -0.989468 -0.144755
vn 0.000017 -0.983768 -0.179445
vn -0.000033 -0.997336 -0.072945
vn -0.000030 -0.999355 -0.035904
vn -0.000001 0.000000 -1.000000
vn -0.000001 0.000000 -1.000000
vn -0.000000 0.000000 -1.000000
vn 0.000000 0.000000 -1.000000
vn 0.000000 0.000000 -1.000000
vn -0.000001 0.000000 -1.000000
vn -0.000001 0.000000 -1.000000
vn 0.000000 0.000000 -1.000000
vn 0.000000 0.000000 -1.000000
vn 1.000000 0.000000 0.000000
vn 1.000000 0.000000 0.000000
vn 1.000000 0.000000 0.000000
vn 1.000000 0.000000 0.000000
vn -1.000000 0.000000 0.000000
vn -1.000000 0.000000 0.000000
vn -1.000000 0.000000 0.000000
vn -1.000000 0.000000 0.000000
vn 0.000000 0.000000 -1.000000
vn 0.000000 0.000000 -1.000000
vn 0.000000 0.000000 -1.000000
vn 0.000000 0.000000 -1.000000
vn 0.000000 0.000000 1.000000
vn 0.000000 0.000000 1.000000
vn 0.000000 0.000000 1.000000
vn 0.000000 0.000000 1.000000
vn -0.707147 0.000000 -0.707066
vn -1.000000 0.000000 0.000000
vn -1.000000 0.000000 0.000000
vn -0.707147 0.000000 -0.707066
vn -0.707144 0.000000 0.707070
vn -0.707144 0.000000 0.707070
vn 0.000000 0.000000 1.000000
vn 0.000000 0.000000 1.000000
vn 0.707039 0.000000 0.707175
vn 0.707039 0.000000 0.707175
vn 1.000000 0.000000 0.000000
vn 1.000000 0.000000 0.000000
vn 0.707042 0.000000 -0.707171
vn 0.707042 0.000000 -0.707171
vn 0.000000 0.000000 -1.000000
vn 0.000000 0.000000 -1.000000
vn -0.363118 -0.858070 -0.363126
vn -0.633866 -0.443172 -0.633887
vn 0.000000 -0.443197 -0.896424
vn 0.000000 -0.858083 -0.513511
vn 0.633866 -0.443172 -0.633887
vn 0.363119 -0.858071 -0.363124
vn 0.896439 -0.443168 0.000001
vn 0.513529 -0.858072 0.000001
vn 0.633857 -0.443185 0.633886
vn 0.363116 -0.858071 0.363126
vn 0.000001 -0.443209 0.896419
vn 0.000000 -0.858083 0.513511
vn -0.633863 -0.443173 0.633889
vn -0.363116 -0.858072 0.363125
vn -0.896439 -0.443168 -0.000001
vn -0.513529 -0.858072 -0.000001
vn -0.529137 0.663338 -0.529147
vn 0.000010 0.663309 -0.748346
vn 0.529175 0.663276 -0.529186
vn 0.748369 0.663283 0.000000
vn 0.529177 0.663268 0.529195
vn 0.000011 0.663298 0.748356
vn -0.529134 0.663339 0.529149
vn -0.748305 0.663355 0.000000
vn -0.475508 0.740161 -0.475452
vn -0.000011 0.740178 -0.672411
vn 0.475427 0.740227 -0.475429
vn 0.672277 0.740300 -0.000010
vn 0.475390 0.740265 0.475408
vn -0.000015 0.740159 0.672432
vn -0.475515 0.740144 0.475470
vn -0.672486 0.740110 -0.000001
vn -0.491199 0.719379 -0.491139
vn -0.000020 0.719391 -0.694605
vn 0.491145 0.719430 -0.491118
vn 0.694512 0.719482 -0.000010
vn 0.491107 0.719470 0.491098
vn -0.000033 0.719356 0.694642
vn -0.491211 0.719346 0.491176
vn -0.694651 0.719347 -0.000001
vn -0.698255 0.157987 -0.698198
vn -0.000048 0.157938 -0.987449
vn 0.698299 0.157874 -0.698179
vn 0.987464 0.157843 -0.000000
vn 0.698307 0.157857 0.698176
vn -0.000065 0.157884 0.987458
vn -0.698263 0.157978 0.698192
vn -0.987437 0.158015 0.000018
vn -0.510792 -0.691537 -0.510753
vn -0.000045 -0.691551 -0.722328
vn 0.510784 -0.691580 -0.510703
vn 0.722354 -0.691524 0.000000
vn 0.510783 -0.691584 0.510699
vn -0.000042 -0.691565 0.722314
vn -0.510809 -0.691527 0.510749
vn -0.722360 -0.691518 0.000009
vn -0.677966 0.284206 -0.677930
vn -0.000049 0.284188 -0.958768
vn 0.678001 0.284214 -0.677891
vn 0.958776 0.284163 0.000000
vn 0.677995 0.284226 0.677892
vn -0.000039 0.284213 0.958761
vn -0.677967 0.284217 0.677924
vn -0.958752 0.284245 0.000001
vn -0.378393 0.844799 -0.378330
vn -0.000003 0.844805 -0.535075
vn 0.378347 0.844830 -0.378307
vn 0.535029 0.844834 -0.000000
vn 0.378343 0.844831 0.378307
vn -0.000003 0.844803 0.535078
vn -0.378390 0.844798 0.378334
vn -0.535131 0.844769 0.000000
vn -0.000048 1.000000 0.000008
vn -0.513496 -0.858092 -0.000014
vn -0.896405 -0.443235 -0.000012
vn -0.633852 -0.443208 -0.633875
vn -0.363129 -0.858058 -0.363146
vn -0.000005 -0.443171 -0.896437
vn -0.000007 -0.858069 -0.513534
vn 0.633856 -0.443178 -0.633893
vn 0.363083 -0.858091 -0.363113
vn 0.896420 -0.443206 -0.000002
vn 0.513461 -0.858113 0.000000
vn 0.633845 -0.443203 0.633886
vn 0.363085 -0.858090 0.363114
vn -0.000009 -0.443197 0.896425
vn -0.000014 -0.858059 0.513552
vn -0.633843 -0.443184 0.633901
vn -0.363096 -0.858071 0.363148
vn -0.748344 0.663311 -0.000003
vn -0.529167 0.663293 -0.529174
vn -0.000002 0.663330 -0.748327
vn 0.529166 0.663300 -0.529166
vn 0.748405 0.663242 0.000019
vn 0.529216 0.663235 0.529197
vn 0.000005 0.663290 0.748363
vn -0.529140 0.663324 0.529161
vn -0.672490 0.740106 0.000000
vn -0.475519 0.740139 -0.475475
vn -0.000025 0.740169 -0.672421
vn 0.475421 0.740239 -0.475416
vn 0.672316 0.740264 0.000013
vn 0.475430 0.740235 0.475413
vn -0.000015 0.740180 0.672409
vn -0.475509 0.740157 0.475457
vn -0.694683 0.719316 -0.000018
vn -0.491241 0.719328 -0.491171
vn -0.000022 0.719367 -0.694631
vn 0.491141 0.719429 -0.491124
vn 0.694511 0.719482 -0.000005
vn 0.491107 0.719467 0.491103
vn -0.000037 0.719355 0.694643
vn -0.491206 0.719346 0.491180
vn -0.987449 0.157936 -0.000035
vn -0.698300 0.157903 -0.698171
vn -0.000022 0.157901 -0.987455
vn 0.698238 0.157810 -0.698255
vn 0.987480 0.157742 -0.000002
vn 0.698241 0.157798 0.698255
vn -0.000091 0.157864 0.987461
vn -0.698229 0.157936 0.698235
vn -0.722342 -0.691536 -0.000001
vn -0.510790 -0.691551 -0.510736
vn -0.000033 -0.691566 -0.722314
vn 0.510749 -0.691568 -0.510753
vn 0.722331 -0.691548 -0.000003
vn 0.510748 -0.691571 0.510751
vn -0.000046 -0.691555 0.722324
vn -0.510789 -0.691539 0.510752
vn -0.958765 0.284199 -0.000001
vn -0.677978 0.284206 -0.677918
vn -0.000041 0.284215 -0.958761
vn 0.677975 0.284263 -0.677897
vn 0.958742 0.284279 -0.000002
vn 0.677969 0.284277 0.677897
vn -0.000037 0.284213 0.958761
vn -0.677980 0.284197 0.677920
vn -0.535166 0.844747 0.000001
vn -0.378410 0.844791 -0.378331
vn 0.000002 0.844810 -0.535066
vn 0.378348 0.844829 -0.378308
vn 0.535028 0.844834 0.000000
vn 0.378344 0.844830 0.378309
vn -0.000004 0.844810 0.535066
vn -0.378405 0.844793 0.378331
vn -0.000047 1.000000 0.000001
vn 1.000000 -0.000021 0.000000
vn 1.000000 -0.000006 0.000000
vn 1.000000 -0.000006 0.000000
vn 1.000000 -0.000021 0.000000
vn 1.000000 -0.000011 0.000000
vn 1.000000 -0.000011 0.000000
vn 0.000000 0.986776 0.162088
vn 0.000000 0.996816 0.079736
vn 0.000000 0.996816 0.079736
vn 0.000000 0.986776 0.162088
vn 0.000000 0.999229 0.039260
vn 0.000000 0.999229 0.039260
vn -1.000000 0.000000 0.000000
vn -1.000000 0.000000 0.000000
vn -1.000000 0.000000 0.000000
vn -1.000000 0.000000 0.000000
vn -1.000000 -0.000001 0.000000
vn -1.000000 -0.000001 0.000000
vn 0.000000 -0.986776 -0.162092
vn 0.000000 -0.996817 -0.079730
vn 0.000000 -0.996817 -0.079730
vn 0.000000 -0.986776 -0.162092
vn 0.000000 -0.999229 -0.039251
vn 0.000000 -0.999229 -0.039251
vn 0.000000 -0.247414 0.968910
vn 0.000000 -0.247414 0.968910
vn 0.000000 -0.247414 0.968910
vn 0.000000 -0.247414 0.968910
vn 0.000000 -0.979010 -0.203813
vn 0.000000 -0.979010 -0.203813
vn 1.000000 -0.000042 0.000000
vn 1.000000 -0.000042 0.000000
vn 0.000000 0.979012 0.203804
vn 0.000000 0.979012 0.203804
vn -1.000000 -0.000001 0.000000
vn -1.000000 -0.000001 0.000000
vn 0.000000 0.000000 -1.000000
vn 0.000000 0.000000 -1.000000
vn 0.000000 0.000000 -1.000000
vn 0.000000 0.000000 -1.000000
vn 1.000000 0.000038 0.000000
vn 1.000000 -0.000006 0.000000
vn 0.993844 0.110453 0.008681
vn 0.993840 0.109356 0.017956
vn 1.000000 -0.000030 0.000000
vn 0.993832 0.110828 0.003886
vn 0.000000 0.986787 0.162021
vn 0.000000 0.996926 0.078350
vn 0.000000 0.996926 0.078350
vn 0.000000 0.986787 0.162021
vn 0.000000 0.999386 0.035051
vn 0.000000 0.999386 0.035051
vn -0.993840 0.109362 0.017956
vn -0.993844 0.110451 0.008681
vn -1.000000 0.000008 0.000000
vn -1.000000 0.000000 0.000000
vn -0.993832 0.110829 0.003886
vn -1.000000 0.000013 0.000000
vn 0.000000 -0.986788 -0.162017
vn 0.000000 -0.996928 -0.078329
vn 0.000000 -0.996928 -0.078329
vn 0.000000 -0.986788 -0.162017
vn 0.000000 -0.999388 -0.034991
vn 0.000000 -0.999388 -0.034991
vn 0.000000 -0.247382 0.968918
vn 0.000000 -0.247382 0.968918
vn 0.000000 -0.247396 0.968914
vn 0.000000 -0.247396 0.968914
vn 0.000000 -0.979335 -0.202244
vn 0.000000 -0.979335 -0.202244
vn 0.993828 0.108636 0.022436
vn 1.000000 0.000057 0.000000
vn 0.000000 0.979330 0.202269
vn 0.000000 0.979330 0.202269
vn -1.000000 -0.000003 0.000000
vn -0.993827 0.108651 0.022436
vn 0.000000 0.000000 -1.000000
vn 0.000000 0.000000 -1.000000
vn 0.000000 0.000000 -1.000000
vn 0.000000 0.000000 -1.000000
vn 0.000000 -0.247411 0.968911
vn 0.000000 -0.247411 0.968911
vn -0.975383 0.215964 0.044594
vn -0.975434 0.217380 0.035691
vn -0.975451 0.219539 0.017255
vn -0.975407 0.220278 0.007724
vn 0.000000 0.000000 -1.000000
vn 0.000000 0.000000 -1.000000
vn 0.975397 0.220318 0.007724
vn 0.975447 0.219556 0.017255
vn 0.975445 0.217334 0.035692
vn 0.975402 0.215875 0.044595
vn 0.000000 0.000000 -1.000000
vn -0.707046 0.000000 -0.707167
vn -0.707046 0.000000 -0.707167
vn 0.000000 0.000000 -1.000000
vn -1.000000 0.000000 -0.000008
vn -1.000000 0.000000 -0.000008
vn -0.707038 0.000000 0.707175
vn -0.707038 0.000000 0.707175
vn 0.000000 0.000000 1.000000
vn 0.000000 0.000000 1.000000
vn 0.707143 0.000000 0.707070
vn 0.707143 0.000000 0.707070
vn 1.000000 0.000000 -0.000007
vn 1.000000 0.000000 -0.000007
vn 0.707151 0.000000 -0.707062
vn 0.707151 0.000000 -0.707062
vn 1.000000 -0.000061 0.000656
vn 1.000000 -0.000084 0.000285
vn 1.000000 -0.000084 0.000285
vn 1.000000 -0.000061 0.000656
vn 0.999999 0.000052 -0.001144
vn 0.999999 0.000052 -0.001144
vn 0.000000 0.989206 0.146535
vn 0.000000 0.997306 0.073359
vn 0.000000 0.997306 0.073359
vn 0.000000 0.989206 0.146535
vn 0.000000 0.999395 0.034786
vn 0.000000 0.999395 0.034786
vn -1.000000 -0.000061 0.000656
vn -1.000000 -0.000096 0.000285
vn -1.000000 -0.000096 0.000285
vn -1.000000 -0.000061 0.000656
vn -0.999999 0.000018 -0.001144
vn -0.999999 0.000018 -0.001144
vn 0.000000 -0.989404 -0.145191
vn 0.000000 -0.997350 -0.072753
vn 0.000000 -0.997350 -0.072753
vn 0.000000 -0.989404 -0.145191
vn 0.000000 -0.999321 -0.036841
vn 0.000000 -0.999321 -0.036841
vn 0.000000 -0.983370 -0.181612
vn 0.000000 -0.983370 -0.181612
vn 1.000000 0.000099 -0.000403
vn 1.000000 0.000099 -0.000403
vn 0.000000 0.983471 0.181068
vn 0.000000 0.983471 0.181068
vn -1.000000 0.000089 -0.000403
vn -1.000000 0.000089 -0.000403
vn 0.000000 0.000000 -1.000000
vn 0.000000 0.000000 -1.000000
vn 0.000000 0.000000 -1.000000
vn 0.000000 0.000000 -1.000000
vn 0.700167 -0.706458 -0.103357
vn 1.000000 0.000007 -0.000003
vn 1.000000 0.000069 -0.000004
vn 0.699983 -0.702564 -0.128168
vn 0.699931 0.702622 0.128136
vn 0.700157 0.706471 0.103335
vn 0.700169 -0.712075 -0.052083
vn 1.000000 -0.000020 -0.000001
vn 0.700175 0.712070 0.052074
vn 0.699936 -0.713745 -0.025648
vn 1.000000 0.000016 -0.000000
vn 0.699916 0.713764 0.025645
vn -0.000004 0.989472 0.144723
vn -0.000007 0.983775 0.179409
vn -0.699816 0.702730 0.128173
vn -0.699998 0.706625 0.103360
vn 0.000015 0.997337 0.072931
vn -0.699999 0.712242 0.052084
vn 0.000030 0.999355 0.035903
vn -0.699768 0.713910 0.025648
vn -1.000000 -0.000010 -0.000002
vn -1.000000 -0.000018 -0.000002
vn -0.699795 -0.702748 -0.128190
vn -0.699986 -0.706636 -0.103374
vn -1.000000 -0.000016 -0.000001
vn -0.699994 -0.712247 -0.052092
vn -1.000000 -0.000031 -0.000000
vn -0.699762 -0.713916 -0.025652
vn 0.000012 -0.989468 -0.144754
vn 0.000009 -0.983768 -0.179445
vn 0.000017 -0.997336 -0.072947
vn 0.000018 -0.999355 -0.035910
vn -0.000001 0.000000 -1.000000
vn -0.000001 0.000000 -1.000000
vn -0.000000 0.000000 -1.000000
vn 0.000000 0.000000 -1.000000
vn 0.000000 0.000000 -1.000000
vn -0.000001 0.000000 -1.000000
vn -0.000001 0.000000 -1.000000
vn 0.000000 0.000000 -1.000000
vn 0.000000 0.000000 -1.000000
vn 1.000000 0.000000 0.000000
vn 1.000000 0.000000 0.000000
vn 1.000000 0.000000 0.000000
vn 1.000000 0.000000 0.000000
vn -1.000000 0.000000 0.000000
vn -1.000000 0.000000 0.000000
vn -1.000000 0.000000 0.000000
vn -1.000000 0.000000 0.000000
vn 0.000000 0.000000 -1.000000
vn 0.000000 0.000000 -1.000000
vn 0.000000 0.000000 -1.000000
vn 0.000000 0.000000 -1.000000
vn 0.000000 0.000000 1.000000
vn 0.000000 0.000000 1.000000
vn 0.000000 0.000000 1.000000
vn 0.000000 0.000000 1.000000
vn 0.707145 0.000000 -0.707068
vn 0.000000 0.000000 -1.000000
vn 0.000000 0.000000 -1.000000
vn 0.707145 0.000000 -0.707068
vn -0.707145 0.000000 -0.707068
vn -0.707145 0.000000 -0.707068
vn -1.000000 0.000000 0.000004
vn -1.000000 0.000000 0.000004
vn -0.707146 0.000000 0.707068
vn -0.707146 0.000000 0.707068
vn 0.000000 0.000000 1.000000
vn 0.000000 0.000000 1.000000
vn 0.707146 0.000000 0.707068
vn 0.707146 0.000000 0.707068
vn 1.000000 0.000000 0.000004
vn 1.000000 0.000000 0.000004
vn 0.363053 -0.858100 -0.363120
vn 0.633841 -0.443192 -0.633898
vn 0.896412 -0.443222 0.000009
vn 0.513424 -0.858135 0.000013
vn 0.633841 -0.443188 0.633900
vn 0.363091 -0.858071 0.363151
vn 0.000042 -0.443206 0.896420
vn 0.000043 -0.858091 0.513498
vn -0.633882 -0.443167 0.633874
vn -0.363063 -0.858123 0.363056
vn -0.896448 -0.443148 -0.000002
vn -0.513460 -0.858113 0.000000
vn -0.633875 -0.443213 -0.633849
vn -0.363059 -0.858132 -0.363038
vn 0.000043 -0.443190 -0.896428
vn 0.000045 -0.858112 -0.513463
vn 0.529095 0.663383 -0.529133
vn 0.748274 0.663390 0.000022
vn 0.529138 0.663338 0.529147
vn 0.000005 0.663330 0.748327
vn -0.529108 0.663380 0.529123
vn -0.748282 0.663381 -0.000002
vn -0.529131 0.663359 -0.529128
vn 0.000015 0.663360 -0.748300
vn 0.475446 0.740210 -0.475436
vn 0.672373 0.740213 0.000022
vn 0.475469 0.740206 0.475421
vn -0.000014 0.740180 0.672409
vn -0.475428 0.740189 0.475487
vn -0.672317 0.740263 0.000001
vn -0.475428 0.740196 -0.475476
vn -0.000002 0.740161 -0.672429
vn 0.491182 0.719381 -0.491152
vn 0.694606 0.719390 0.000020
vn 0.491204 0.719370 0.491147
vn -0.000003 0.719318 0.694681
vn -0.491230 0.719300 0.491223
vn -0.694681 0.719318 0.000002
vn -0.491228 0.719314 -0.491204
vn 0.000009 0.719315 -0.694684
vn 0.698253 0.157978 -0.698201
vn 0.987444 0.157967 0.000036
vn 0.698277 0.157930 0.698189
vn 0.000062 0.157891 0.987457
vn -0.698338 0.157845 0.698147
vn -0.987475 0.157777 0.000011
vn -0.698364 0.157821 -0.698127
vn 0.000097 0.157883 -0.987458
vn 0.510794 -0.691534 -0.510755
vn 0.722313 -0.691566 -0.000003
vn 0.510775 -0.691552 0.510749
vn 0.000040 -0.691518 0.722359
vn -0.510800 -0.691530 0.510754
vn -0.722396 -0.691480 0.000001
vn -0.510795 -0.691553 -0.510728
vn 0.000052 -0.691549 -0.722330
vn 0.677977 0.284182 -0.677929
vn 0.958779 0.284151 -0.000019
vn 0.677958 0.284171 0.677952
vn 0.000015 0.284196 0.958766
vn -0.677932 0.284188 0.677972
vn -0.958761 0.284215 -0.000006
vn -0.677941 0.284213 -0.677952
vn 0.000019 0.284209 -0.958762
vn 0.378383 0.844793 -0.378355
vn 0.535098 0.844790 0.000010
vn 0.378389 0.844800 0.378331
vn -0.000009 0.844798 0.535085
vn -0.378349 0.844810 0.378350
vn -0.535079 0.844802 -0.000018
vn -0.378374 0.844814 -0.378315
vn 0.000027 0.844810 -0.535066
vn 0.000012 1.000000 0.000001
vn 0.000036 -0.858123 -0.513444
vn 0.000039 -0.443212 -0.896417
vn 0.633837 -0.443213 -0.633887
vn 0.363048 -0.858110 -0.363102
vn 0.896403 -0.443241 0.000002
vn 0.513391 -0.858155 0.000001
vn 0.633826 -0.443218 0.633895
vn 0.363049 -0.858102 0.363120
vn 0.000039 -0.443215 0.896416
vn 0.000036 -0.858102 0.513479
vn -0.633869 -0.443186 0.633874
vn -0.363032 -0.858142 0.363042
vn -0.896439 -0.443167 -0.000014
vn -0.513426 -0.858134 -0.000013
vn -0.633873 -0.443213 -0.633851
vn -0.363057 -0.858133 -0.363039
vn 0.000017 0.663344 -0.748315
vn 0.529139 0.663333 -0.529151
vn 0.748309 0.663350 0.000001
vn 0.529143 0.663315 0.529171
vn 0.000016 0.663305 0.748350
vn -0.529147 0.663340 0.529135
vn -0.748318 0.663341 0.000015
vn -0.529130 0.663354 -0.529134
vn 0.000008 0.740173 -0.672417
vn 0.475516 0.740140 -0.475476
vn 0.672490 0.740106 -0.000002
vn 0.475525 0.740130 0.475482
vn 0.000000 0.740140 0.672453
vn -0.475470 0.740152 0.475503
vn -0.672317 0.740263 0.000031
vn -0.475381 0.740247 -0.475444
vn 0.000007 0.719361 -0.694637
vn 0.491239 0.719329 -0.491172
vn 0.694716 0.719284 -0.000003
vn 0.491245 0.719327 0.491169
vn -0.000008 0.719310 0.694689
vn -0.491228 0.719298 0.491228
vn -0.694612 0.719385 0.000001
vn -0.491139 0.719404 -0.491163
vn 0.000044 0.157924 -0.987451
vn 0.698295 0.157959 -0.698165
vn 0.987449 0.157937 -0.000011
vn 0.698280 0.157961 0.698179
vn 0.000049 0.157913 0.987453
vn -0.698330 0.157828 0.698159
vn -0.987476 0.157770 -0.000062
vn -0.698286 0.157836 -0.698201
vn 0.000033 -0.691538 -0.722341
vn 0.510790 -0.691538 -0.510752
vn 0.722311 -0.691568 -0.000006
vn 0.510779 -0.691545 0.510754
vn 0.000041 -0.691514 0.722363
vn -0.510806 -0.691524 0.510757
vn -0.722371 -0.691505 -0.000023
vn -0.510767 -0.691559 -0.510748
vn 0.000015 0.284234 -0.958755
vn 0.677955 0.284197 -0.677945
vn 0.958778 0.284156 -0.000001
vn 0.677960 0.284173 0.677950
vn 0.000007 0.284185 0.958770
vn -0.677917 0.284227 0.677970
vn -0.958739 0.284290 -0.000002
vn -0.677921 0.284250 -0.677957
vn 0.000026 0.844810 -0.535066
vn 0.378359 0.844806 -0.378349
vn 0.535076 0.844804 0.000017
vn 0.378395 0.844797 0.378332
vn 0.000006 0.844816 0.535057
vn -0.378365 0.844807 0.378340
vn -0.535092 0.844794 -0.000001
vn -0.378355 0.844826 -0.378308
vn -0.000007 1.000000 -0.000010
vn -1.000000 0.000000 0.000000
vn -1.000000 0.000000 0.000000
vn -1.000000 0.000000 0.000000
vn -1.000000 0.000000 0.000000
vn 0.000000 0.000000 -1.000000
vn 0.000000 0.000000 -1.000000
vn 0.000000 0.000000 -1.000000
vn 0.000000 0.000000 -1.000000
vn 0.000000 0.000000 1.000000
vn 0.000000 0.000000 1.000000
vn 0.000000 0.000000 1.000000
vn 0.000000 0.000000 1.000000
vn 1.000000 0.000000 0.000000
vn 1.000000 0.000000 0.000000
vn 1.000000 0.000000 0.000000
vn 1.000000 0.000000 0.000000
vn 1.000000 0.000044 0.000000
vn 1.000000 0.000011 0.000000
vn 1.000000 0.000011 0.000000
vn 1.000000 0.000044 0.000000
vn 1.000000 -0.000030 0.000000
vn 1.000000 -0.000030 0.000000
vn 0.000000 0.986775 0.162094
vn 0.000000 0.996816 0.079735
vn 0.000000 0.996816 0.079735
vn 0.000000 0.986775 0.162094
vn 0.000000 0.999229 0.039259
vn 0.000000 0.999229 0.039259
vn -1.000000 0.000023 0.000000
vn -1.000000 0.000006 0.000000
vn -1.000000 0.000006 0.000000
vn -1.000000 0.000023 0.000000
vn -1.000000 -0.000028 0.000000
vn -1.000000 -0.000028 0.000000
vn 0.000000 -0.986776 -0.162090
vn 0.000000 -0.996817 -0.079728
vn 0.000000 -0.996817 -0.079728
vn 0.000000 -0.986776 -0.162090
vn 0.000000 -0.999229 -0.039251
vn 0.000000 -0.999229 -0.039251
vn 0.000000 -0.247414 0.968910
vn 0.000000 -0.247414 0.968910
vn 0.000000 -0.247414 0.968910
vn 0.000000 -0.247414 0.968910
vn 0.000000 -0.979010 -0.203813
vn 0.000000 -0.979010 -0.203813
vn 1.000000 0.000037 0.000000
vn 1.000000 0.000037 0.000000
vn 0.000000 0.979009 0.203815
vn 0.000000 0.979009 0.203815
vn -1.000000 0.000005 0.000000
vn -1.000000 0.000005 0.000000
vn 0.000000 0.000000 -1.000000
vn 0.000000 0.000000 -1.000000
vn 0.000000 0.000000 -1.000000
vn 0.000000 0.000000 -1.000000
vn 1.000000 0.000002 0.000000
vn 1.000000 0.000038 0.000000
vn 0.993841 0.110474 0.008681
vn 0.993834 0.109411 0.017955
vn 1.000000 0.000037 0.000000
vn 0.993831 0.110837 0.003886
vn 0.000000 0.986787 0.162021
vn 0.000000 0.996926 0.078350
vn 0.000000 0.996926 0.078350
vn 0.000000 0.986787 0.162021
vn 0.000000 0.999386 0.035051
vn 0.000000 0.999386 0.035051
vn -0.993840 0.109363 0.017956
vn -0.993843 0.110456 0.008681
vn -1.000000 -0.000035 0.000000
vn -1.000000 -0.000001 0.000000
vn -0.993833 0.110819 0.003886
vn -1.000000 -0.000054 0.000000
vn 0.000000 -0.986788 -0.162017
vn 0.000000 -0.996928 -0.078329
vn 0.000000 -0.996928 -0.078329
vn 0.000000 -0.986788 -0.162017
vn 0.000000 -0.999388 -0.034991
vn 0.000000 -0.999388 -0.034991
vn 0.000000 -0.247394 0.968915
vn 0.000000 -0.247394 0.968915
vn 0.000000 -0.247402 0.968913
vn 0.000000 -0.247402 0.968913
vn 0.000000 -0.979335 -0.202244
vn 0.000000 -0.979335 -0.202244
vn 0.993820 0.108711 0.022435
vn 1.000000 -0.000034 0.000000
vn 0.000000 0.979330 0.202269
vn 0.000000 0.979330 0.202269
vn -1.000000 0.000015 0.000000
vn -0.993829 0.108634 0.022436
vn 0.000000 0.000000 -1.000000
vn 0.000000 0.000000 -1.000000
vn 0.000000 0.000000 -1.000000
vn 0.000000 0.000000 -1.000000
vn 0.000000 -0.247411 0.968911
vn 0.000000 -0.247411 0.968911
vn -0.975394 0.215913 0.044595
vn -0.975434 0.217383 0.035691
vn -0.975440 0.219590 0.017255
vn -0.975396 0.220325 0.007724
vn 0.000000 0.000000 -1.000000
vn 0.000000 0.000000 -1.000000
vn 0.975408 0.220271 0.007724
vn 0.975447 0.219556 0.017255
vn 0.975413 0.217476 0.035690
vn 0.975350 0.216112 0.044593
vn 0.000000 0.994073 0.108712
vn 0.000000 0.994073 0.108712
vn 0.000000 0.994073 0.108712
vn 0.000000 0.994073 0.108712
vn 0.000000 -0.994073 -0.108713
vn 0.000000 -0.994073 -0.108713
vn 0.000000 -0.994073 -0.108713
vn 0.000000 -0.994073 -0.108713
vn 0.000000 0.098766 -0.995111
vn 0.000000 0.098766 -0.995111
vn 0.000000 0.098766 -0.995111
vn 0.000000 0.098766 -0.995111
vn 0.000000 -0.122099 0.992518
vn 0.000000 -0.122099 0.992518
vn 0.000000 -0.122099 0.992518
vn 0.000000 -0.122099 0.992518
vn 0.000000 0.991126 0.132925
vn 0.000000 0.991126 0.132925
vn 0.000000 0.991126 0.132925
vn 0.000000 0.991126 0.132925
vn 0.000000 -0.991126 -0.132925
vn 0.000000 -0.991126 -0.132925
vn 0.000000 -0.991126 -0.132925
vn 0.000000 -0.991126 -0.132925
vn 0.000000 0.123396 -0.992357
vn 0.000000 0.123396 -0.992357
vn 0.000000 0.123396 -0.992357
vn 0.000000 0.123396 -0.992357
vn 0.000000 -0.146638 0.989190
vn 0.000000 -0.146638 0.989190
vn 0.000000 -0.146638 0.989190
vn 0.000000 -0.146638 0.989190
vn 0.000000 0.983463 0.181107
vn 0.000000 0.983463 0.181107
vn 0.000000 0.983463 0.181107
vn 0.000000 0.983463 0.181107
vn 0.000000 -0.983463 -0.181107
vn 0.000000 -0.983463 -0.181107
vn 0.000000 -0.983463 -0.181107
vn 0.000000 -0.983463 -0.181107
vn 0.000000 0.172372 -0.985032
vn 0.000000 0.172372 -0.985032
vn 0.000000 0.172372 -0.985032
vn 0.000000 0.172372 -0.985032
vn 0.000000 -0.195439 0.980716
vn 0.000000 -0.195439 0.980716
vn 0.000000 -0.195439 0.980716
vn 0.000000 -0.195439 0.980716
vn 0.000000 0.978654 0.205517
vn 0.000000 0.978654 0.205517
vn 0.000000 0.978654 0.205517
vn 0.000000 0.978654 0.205517
vn 0.000000 -0.978654 -0.205515
vn 0.000000 -0.978654 -0.205515
vn 0.000000 -0.978654 -0.205515
vn 0.000000 -0.978654 -0.205515
vn 0.000000 0.197194 -0.980365
vn 0.000000 0.197194 -0.980365
vn 0.000000 0.197194 -0.980365
vn 0.000000 0.197194 -0.980365
vn 0.000000 -0.220120 0.975473
vn 0.000000 -0.220120 0.975473
vn 0.000000 -0.220120 0.975473
vn 0.000000 -0.220120 0.975473
vn 0.000000 0.972706 0.232039
vn 0.000000 0.972706 0.232039
vn 0.000000 0.972706 0.232039
vn 0.000000 0.972706 0.232039
vn 0.000000 -0.972707 -0.232038
vn 0.000000 -0.972707 -0.232038
vn 0.000000 -0.972707 -0.232038
vn 0.000000 -0.972707 -0.232038
vn 0.000000 0.224154 -0.974554
vn 0.000000 0.224154 -0.974554
vn 0.000000 0.224154 -0.974554
vn 0.000000 0.224154 -0.974554
vn 0.000000 -0.246937 0.969032
vn 0.000000 -0.246937 0.969032
vn 0.000000 -0.246937 0.969032
vn 0.000000 -0.246937 0.969032
vn 0.000000 0.987589 0.157061
vn 0.000000 0.987589 0.157061
vn 0.000000 0.987589 0.157061
vn 0.000000 0.987589 0.157061
vn 0.000000 -0.987589 -0.157061
vn 0.000000 -0.987589 -0.157061
vn 0.000000 -0.987589 -0.157061
vn 0.000000 -0.987589 -0.157061
vn 0.000000 0.147925 -0.988999
vn 0.000000 0.147925 -0.988999
vn 0.000000 0.147925 -0.988999
vn 0.000000 0.147925 -0.988999
vn 0.000000 -0.171085 0.985256
vn 0.000000 -0.171085 0.985256
vn 0.000000 -0.171085 0.985256
vn 0.000000 -0.171085 0.985256
vn 0.000000 0.996429 0.084436
vn 0.000000 0.996429 0.084436
vn 0.000000 0.996429 0.084436
vn 0.000000 0.996429 0.084436
vn 0.000000 -0.996429 -0.084436
vn 0.000000 -0.996429 -0.084436
vn 0.000000 -0.996429 -0.084436
vn 0.000000 -0.996429 -0.084436
vn 0.000000 0.074094 -0.997251
vn 0.000000 0.074094 -0.997251
vn 0.000000 0.074094 -0.997251
vn 0.000000 0.074094 -0.997251
vn 0.000000 -0.097468 0.995239
vn 0.000000 -0.097468 0.995239
vn 0.000000 -0.097468 0.995239
vn 0.000000 -0.097468 0.995239
vn 0.000000 0.999935 0.011374
vn 0.000000 0.999935 0.011374
vn 0.000000 0.999935 0.011374
vn 0.000000 0.999935 0.011374
vn 0.000000 -0.999935 -0.011374
vn 0.000000 -0.999935 -0.011374
vn 0.000000 -0.999935 -0.011374
vn 0.000000 -0.999935 -0.011374
vn 0.000000 -0.000185 -1.000000
vn 0.000000 -0.000185 -1.000000
vn 0.000000 -0.000185 -1.000000
vn 0.000000 -0.000185 -1.000000
vn 0.000000 -0.023291 0.999729
vn 0.000000 -0.023291 0.999729
vn 0.000000 -0.023291 0.999729
vn 0.000000 -0.023291 0.999729
vn 0.000000 0.999361 0.035753
vn 0.000000 0.999361 0.035753
vn 0.000000 0.999361 0.035753
vn 0.000000 0.999361 0.035753
vn 0.000000 -0.999361 -0.035753
vn 0.000000 -0.999361 -0.035753
vn 0.000000 -0.999361 -0.035753
vn 0.000000 -0.999361 -0.035753
vn 0.000000 0.024598 -0.999697
vn 0.000000 0.024598 -0.999697
vn 0.000000 0.024598 -0.999697
vn 0.000000 0.024598 -0.999697
vn 0.000000 -0.048044 0.998845
vn 0.000000 -0.048044 0.998845
vn 0.000000 -0.048044 0.998845
vn 0.000000 -0.048044 0.998845
vn 0.000000 0.998192 0.060112
vn 0.000000 0.998192 0.060112
vn 0.000000 0.998192 0.060112
vn 0.000000 0.998192 0.060112
vn 0.000000 -0.998192 -0.060113
vn 0.000000 -0.998192 -0.060113
vn 0.000000 -0.998192 -0.060113
vn 0.000000 -0.998192 -0.060113
vn 0.000000 0.049361 -0.998781
vn 0.000000 0.049361 -0.998781
vn 0.000000 0.049361 -0.998781
vn 0.000000 0.049361 -0.998781
vn 0.000000 -0.072787 0.997348
vn 0.000000 -0.072787 0.997348
vn 0.000000 -0.072787 0.997348
vn 0.000000 -0.072787 0.997348
s off
g polySurface6172
f 5/1/1 6/2/2 8/3/3 7/4/4
f 2/5/5 8/6/6 6/7/7 4/8/8
f 7/4/9 1/9/10 3/10/11 5/1/12
f 1/9/13 2/11/14 4/12/15 3/10/16
s 5
f 9/13/17 10/14/18 18/15/19 17/16/20
f 10/14/18 11/17/21 19/18/22 18/15/19
f 11/17/21 12/19/23 20/20/24 19/18/22
f 12/19/23 13/21/25 21/22/26 20/20/24
f 13/21/25 14/23/27 22/24/28 21/22/26
f 14/23/27 15/25/29 23/26/30 22/24/28
f 15/25/29 16/27/31 24/28/32 23/26/30
f 16/27/31 9/29/17 17/30/20 24/28/32
s 6
f 25/31/33 26/32/34 29/33/35 28/34/36
f 26/32/34 27/35/37 30/36/38 29/33/35
s 7
f 28/34/39 29/33/40 32/37/41 31/38/42
f 29/33/40 30/36/43 33/39/44 32/37/41
s 8
f 31/38/45 32/37/46 35/40/47 34/41/48
f 32/37/46 33/39/49 36/42/50 35/43/47
s 9
f 34/44/51 35/45/52 26/32/53 25/31/54
f 35/46/52 36/47/55 27/35/56 26/32/53
f 25/31/54 38/48/57 39/49/58 34/50/51
s 6
f 28/34/36 37/51/59 38/48/60 25/31/33
s 7
f 31/38/42 40/52/61 37/51/62 28/34/39
s 8
f 34/53/48 39/54/63 40/52/64 31/38/45
s off
f 27/55/65 36/56/66 33/57/67 30/58/68
s 11
f 42/59/69 58/60/70 57/61/71 41/62/72
f 45/63/73 57/61/71 58/60/70 46/64/74
f 43/65/75 59/66/76 58/60/70 42/59/69
f 46/64/74 58/60/70 59/66/76 47/67/77
f 44/68/78 60/69/79 59/66/76 43/65/75
f 47/67/77 59/66/76 60/69/79 48/70/80
f 45/63/73 46/64/74 62/71/81 61/72/82
f 49/73/83 61/72/82 62/71/81 50/74/84
f 46/64/74 47/67/77 63/75/85 62/71/81
f 50/74/84 62/71/81 63/75/85 51/76/86
f 47/67/77 48/70/80 64/77/87 63/75/85
f 51/76/86 63/75/85 64/77/87 52/78/88
f 49/73/83 50/74/84 66/79/89 65/80/90
f 53/81/91 65/80/90 66/79/89 54/82/92
f 50/74/84 51/76/86 67/83/93 66/79/89
f 54/82/92 66/79/89 67/83/93 55/84/94
f 51/76/86 52/78/88 68/85/95 67/83/93
f 55/84/94 67/83/93 68/85/95 56/86/96
f 53/81/91 54/82/92 70/87/97 69/88/98
f 42/89/69 41/90/72 69/88/98 70/87/97
f 54/82/92 55/84/94 71/91/99 70/87/97
f 43/92/75 42/89/69 70/87/97 71/91/99
f 55/84/94 56/86/96 72/93/100 71/91/99
f 44/94/78 43/92/75 71/91/99 72/93/100
s 12
f 60/95/101 44/96/102 73/97/103
f 48/98/104 60/99/101 73/100/103
f 64/101/105 48/102/104 73/103/103
f 52/104/106 64/105/105 73/106/103
f 68/107/107 52/108/106 73/109/103
f 56/110/108 68/111/107 73/112/103
f 72/113/109 56/114/108 73/115/103
f 44/116/102 72/117/109 73/118/103
s off
f 74/119/110 75/120/111 77/121/112 76/122/113
f 78/123/114 79/124/115 81/125/116 80/126/117
f 75/120/118 81/127/119 79/128/120 77/121/121
f 80/126/122 74/119/123 76/122/124 78/123/125
s 17
f 82/129/126 83/130/127 91/131/128 90/132/129
f 83/130/127 84/133/130 92/134/131 91/131/128
f 84/133/130 85/135/132 93/136/133 92/134/131
f 85/135/132 86/137/134 94/138/135 93/136/133
f 86/137/134 87/139/136 95/140/137 94/138/135
f 87/139/136 88/141/138 96/142/139 95/140/137
f 88/141/138 89/143/140 97/144/141 96/142/139
f 89/143/140 82/145/126 90/146/129 97/144/141
s 18
f 98/147/142 106/148/143 107/149/144 99/150/145
f 99/151/145 107/152/144 108/153/146 100/154/147
f 100/154/147 108/153/146 109/155/148 101/156/149
f 101/156/149 109/155/148 110/157/150 102/158/151
f 102/158/151 110/157/150 111/159/152 103/160/153
f 103/160/153 111/159/152 112/161/154 104/162/155
f 104/162/155 112/161/154 113/163/156 105/164/157
f 105/164/157 113/163/156 106/148/143 98/147/142
f 106/148/143 114/165/158 115/166/159 107/149/144
f 107/152/144 115/167/159 116/168/160 108/153/146
f 108/153/146 116/168/160 117/169/161 109/155/148
f 109/155/148 117/169/161 118/170/162 110/157/150
f 110/157/150 118/170/162 119/171/163 111/159/152
f 111/159/152 119/171/163 120/172/164 112/161/154
f 112/161/154 120/172/164 121/173/165 113/163/156
f 113/163/156 121/173/165 114/165/158 106/148/143
f 114/165/158 122/174/166 123/175/167 115/166/159
f 115/167/159 123/176/167 124/177/168 116/168/160
f 116/168/160 124/177/168 125/178/169 117/169/161
f 117/169/161 125/178/169 126/179/170 118/170/162
f 118/170/162 126/179/170 127/180/171 119/171/163
f 119/171/163 127/180/171 128/181/172 120/172/164
f 120/172/164 128/181/172 129/182/173 121/173/165
f 121/173/165 129/182/173 122/174/166 114/165/158
f 122/174/166 130/183/174 131/184/175 123/175/167
f 123/176/167 131/185/175 132/186/176 124/177/168
f 124/177/168 132/186/176 133/187/177 125/178/169
f 125/178/169 133/187/177 134/188/178 126/179/170
f 126/179/170 134/188/178 135/189/179 127/180/171
f 127/180/171 135/189/179 136/190/180 128/181/172
f 128/181/172 136/190/180 137/191/181 129/182/173
f 129/182/173 137/191/181 130/183/174 122/174/166
f 130/183/174 138/192/182 139/193/183 131/184/175
f 131/185/175 139/194/183 140/195/184 132/186/176
f 132/186/176 140/195/184 141/196/185 133/187/177
f 133/187/177 141/196/185 142/197/186 134/188/178
f 134/188/178 142/197/186 143/198/187 135/189/179
f 135/189/179 143/198/187 144/199/188 136/190/180
f 136/190/180 144/199/188 145/200/189 137/191/181
f 137/191/181 145/200/189 138/192/182 130/183/174
f 138/192/182 146/201/190 147/202/191 139/193/183
f 139/194/183 147/203/191 148/204/192 140/195/184
f 140/195/184 148/204/192 149/205/193 141/196/185
f 141/196/185 149/205/193 150/206/194 142/197/186
f 142/197/186 150/206/194 151/207/195 143/198/187
f 143/198/187 151/207/195 152/208/196 144/199/188
f 144/199/188 152/208/196 153/209/197 145/200/189
f 145/200/189 153/209/197 146/201/190 138/192/182
f 146/201/190 154/210/198 155/211/199 147/202/191
f 147/203/191 155/212/199 156/213/200 148/204/192
f 148/204/192 156/213/200 157/214/201 149/205/193
f 149/205/193 157/214/201 158/215/202 150/206/194
f 150/206/194 158/215/202 159/216/203 151/207/195
f 151/207/195 159/216/203 160/217/204 152/208/196
f 152/208/196 160/217/204 161/218/205 153/209/197
f 153/209/197 161/218/205 154/210/198 146/201/190
f 154/219/198 162/220/206 163/221/207 155/222/199
f 155/222/199 163/221/207 164/223/208 156/224/200
f 156/224/200 164/223/208 165/225/209 157/226/201
f 157/226/201 165/225/209 166/227/210 158/228/202
f 158/228/202 166/227/210 167/229/211 159/230/203
f 159/230/203 167/229/211 168/231/212 160/232/204
f 160/232/204 168/231/212 169/233/213 161/234/205
f 161/234/205 169/233/213 162/220/206 154/219/198
f 162/220/206 170/235/214 163/221/207
f 163/221/207 170/235/214 164/223/208
f 164/223/208 170/235/214 165/225/209
f 165/225/209 170/235/214 166/227/210
f 166/227/210 170/235/214 167/229/211
f 167/229/211 170/235/214 168/231/212
f 168/231/212 170/235/214 169/233/213
f 169/233/213 170/235/214 162/220/206
s 19
f 171/236/215 179/237/216 180/238/217 172/239/218
f 172/240/218 180/241/217 181/242/219 173/243/220
f 173/243/220 181/242/219 182/244/221 174/245/222
f 174/245/222 182/244/221 183/246/223 175/247/224
f 175/247/224 183/246/223 184/248/225 176/249/226
f 176/249/226 184/248/225 185/250/227 177/251/228
f 177/251/228 185/250/227 186/252/229 178/253/230
f 178/253/230 186/252/229 179/237/216 171/236/215
f 179/237/216 187/254/231 188/255/232 180/238/217
f 180/241/217 188/256/232 189/257/233 181/242/219
f 181/242/219 189/257/233 190/258/234 182/244/221
f 182/244/221 190/258/234 191/259/235 183/246/223
f 183/246/223 191/259/235 192/260/236 184/248/225
f 184/248/225 192/260/236 193/261/237 185/250/227
f 185/250/227 193/261/237 194/262/238 186/252/229
f 186/252/229 194/262/238 187/254/231 179/237/216
f 187/254/231 195/263/239 196/264/240 188/255/232
f 188/256/232 196/265/240 197/266/241 189/257/233
f 189/257/233 197/266/241 198/267/242 190/258/234
f 190/258/234 198/267/242 199/268/243 191/259/235
f 191/259/235 199/268/243 200/269/244 192/260/236
f 192/260/236 200/269/244 201/270/245 193/261/237
f 193/261/237 201/270/245 202/271/246 194/262/238
f 194/262/238 202/271/246 195/263/239 187/254/231
f 195/263/239 203/272/247 204/273/248 196/264/240
f 196/265/240 204/274/248 205/275/249 197/266/241
f 197/266/241 205/275/249 206/276/250 198/267/242
f 198/267/242 206/276/250 207/277/251 199/268/243
f 199/268/243 207/277/251 208/278/252 200/269/244
f 200/269/244 208/278/252 209/279/253 201/270/245
f 201/270/245 209/279/253 210/280/254 202/271/246
f 202/271/246 210/280/254 203/272/247 195/263/239
f 203/272/247 211/281/255 212/282/256 204/273/248
f 204/274/248 212/283/256 213/284/257 205/275/249
f 205/275/249 213/284/257 214/285/258 206/276/250
f 206/276/250 214/285/258 215/286/259 207/277/251
f 207/277/251 215/286/259 216/287/260 208/278/252
f 208/278/252 216/287/260 217/288/261 209/279/253
f 209/279/253 217/288/261 218/289/262 210/280/254
f 210/280/254 218/289/262 211/281/255 203/272/247
f 211/281/255 219/290/263 220/291/264 212/282/256
f 212/283/256 220/292/264 221/293/265 213/284/257
f 213/284/257 221/293/265 222/294/266 214/285/258
f 214/285/258 222/294/266 223/295/267 215/286/259
f 215/286/259 223/295/267 224/296/268 216/287/260
f 216/287/260 224/296/268 225/297/269 217/288/261
f 217/288/261 225/297/269 226/298/270 218/289/262
f 218/289/262 226/298/270 219/290/263 211/281/255
f 219/290/263 227/299/271 228/300/272 220/291/264
f 220/292/264 228/301/272 229/302/273 221/293/265
f 221/293/265 229/302/273 230/303/274 222/294/266
f 222/294/266 230/303/274 231/304/275 223/295/267
f 223/295/267 231/304/275 232/305/276 224/296/268
f 224/296/268 232/305/276 233/306/277 225/297/269
f 225/297/269 233/306/277 234/307/278 226/298/270
f 226/298/270 234/307/278 227/299/271 219/290/263
f 227/308/271 235/309/279 236/310/280 228/311/272
f 228/311/272 236/310/280 237/312/281 229/313/273
f 229/313/273 237/312/281 238/314/282 230/315/274
f 230/315/274 238/314/282 239/316/283 231/317/275
f 231/317/275 239/316/283 240/318/284 232/319/276
f 232/319/276 240/318/284 241/320/285 233/321/277
f 233/321/277 241/320/285 242/322/286 234/323/278
f 234/323/278 242/322/286 235/309/279 227/308/271
f 235/309/279 243/324/287 236/310/280
f 236/310/280 243/324/287 237/312/281
f 237/312/281 243/324/287 238/314/282
f 238/314/282 243/324/287 239/316/283
f 239/316/283 243/324/287 240/318/284
f 240/318/284 243/324/287 241/320/285
f 241/320/285 243/324/287 242/322/286
f 242/322/286 243/324/287 235/309/279
s 20
f 244/325/288 245/326/289 248/327/290 247/328/291
f 245/326/289 246/329/292 249/330/293 248/327/290
s 21
f 247/328/294 248/327/295 251/331/296 250/332/297
f 248/327/295 249/330/298 252/333/299 251/331/296
s 22
f 250/332/300 251/331/301 254/334/302 253/335/303
f 251/331/301 252/333/304 255/336/305 254/337/302
s 23
f 253/338/306 254/339/307 245/326/308 244/325/309
f 254/340/307 255/341/310 246/329/311 245/326/308
s off
f 256/342/312 257/343/313 258/344/314 259/345/315
s 23
f 244/325/309 257/346/316 256/347/317 253/348/306
s 20
f 247/328/291 258/349/318 257/346/319 244/325/288
s 21
f 250/332/297 259/350/320 258/349/321 247/328/294
s 22
f 253/351/303 256/352/322 259/350/323 250/332/300
s off
f 246/353/324 255/354/325 252/355/326 249/356/327
s 26
f 260/357/328 261/358/329 282/359/330 283/360/331
f 261/358/329 262/361/332 281/362/333 282/359/330
s 27
f 263/363/334 264/364/335 267/365/336 266/366/337
f 264/364/335 265/367/338 268/368/339 267/365/336
s 28
f 278/369/340 279/370/341 270/371/342 269/372/343
f 279/373/341 280/374/344 271/375/345 270/376/342
s 29
f 269/377/346 270/378/347 261/358/348 260/357/349
f 270/379/347 271/380/350 262/361/351 261/358/348
s 30
f 272/381/352 273/382/353 276/383/354 277/384/355
s 29
f 260/357/349 273/385/356 272/386/357 269/387/346
s 26
f 283/360/331 276/388/358 273/385/359 260/357/328
s 27
f 266/366/337 275/389/360 274/390/361 263/363/334
s 28
f 269/391/343 272/392/362 277/393/363 278/394/340
s 31
f 262/395/364 271/396/365 280/397/366 281/398/367
s 30
f 277/384/355 276/383/354 274/399/368 275/400/369
s 28
f 278/394/340 277/393/363 275/389/370 266/366/371
f 266/366/371 267/365/372 279/370/341 278/369/340
f 267/365/372 268/368/373 280/374/344 279/373/341
s 31
f 281/398/367 280/397/366 268/401/374 265/402/375
s 26
f 282/359/330 281/362/333 265/367/376 264/364/377
f 283/360/331 282/359/330 264/364/377 263/363/378
f 263/363/378 274/390/379 276/388/358 283/360/331
s 32
f 284/403/380 285/404/381 293/405/382 292/406/383
f 285/404/381 286/407/384 294/408/385 293/405/382
f 286/407/384 287/409/386 295/410/387 294/408/385
f 287/409/386 288/411/388 296/412/389 295/410/387
f 288/411/388 289/413/390 297/414/391 296/412/389
f 289/413/390 290/415/392 298/416/393 297/414/391
f 290/415/392 291/417/394 299/418/395 298/416/393
f 291/417/394 284/419/380 292/420/383 299/418/395
s 33
f 300/421/396 301/422/397 304/423/398 303/424/399
f 301/422/397 302/425/400 305/426/401 304/423/398
s 34
f 303/424/402 304/423/403 307/427/404 306/428/405
f 304/423/403 305/426/406 308/429/407 307/427/404
s 35
f 306/428/408 307/427/409 310/430/410 309/431/411
f 307/427/409 308/429/412 311/432/413 310/433/410
s 36
f 309/434/414 310/435/415 301/422/416 300/421/417
f 310/436/415 311/437/418 302/425/419 301/422/416
f 300/421/417 313/438/420 314/439/421 309/440/414
s 33
f 303/424/399 312/441/422 313/438/423 300/421/396
s 34
f 306/428/405 315/442/424 312/441/425 303/424/402
s 35
f 309/443/411 314/444/426 315/442/427 306/428/408
s off
f 302/445/428 311/446/429 308/447/430 305/448/431
s 38
f 317/449/432 333/450/433 332/451/434 316/452/435
f 320/453/436 332/451/434 333/450/433 321/454/437
f 318/455/438 334/456/439 333/450/433 317/449/432
f 321/454/437 333/450/433 334/456/439 322/457/440
f 319/458/441 335/459/442 334/456/439 318/455/438
f 322/457/440 334/456/439 335/459/442 323/460/443
f 320/453/436 321/454/437 337/461/444 336/462/445
f 324/463/446 336/462/445 337/461/444 325/464/447
f 321/454/437 322/457/440 338/465/448 337/461/444
f 325/464/447 337/461/444 338/465/448 326/466/449
f 322/457/440 323/460/443 339/467/450 338/465/448
f 326/466/449 338/465/448 339/467/450 327/468/451
f 324/463/446 325/464/447 341/469/452 340/470/453
f 328/471/454 340/470/453 341/469/452 329/472/455
f 325/464/447 326/466/449 342/473/456 341/469/452
f 329/472/455 341/469/452 342/473/456 330/474/457
f 326/466/449 327/468/451 343/475/458 342/473/456
f 330/474/457 342/473/456 343/475/458 331/476/459
f 328/471/454 329/472/455 345/477/460 344/478/461
f 317/479/432 316/480/435 344/478/461 345/477/460
f 329/472/455 330/474/457 346/481/462 345/477/460
f 318/482/438 317/479/432 345/477/460 346/481/462
f 330/474/457 331/476/459 347/483/463 346/481/462
f 319/484/441 318/482/438 346/481/462 347/483/463
s 39
f 335/485/464 319/486/465 348/487/466
f 323/488/467 335/489/464 348/490/466
f 339/491/468 323/492/467 348/493/466
f 327/494/469 339/495/468 348/496/466
f 343/497/470 327/498/469 348/499/466
f 331/500/471 343/501/470 348/502/466
f 347/503/472 331/504/471 348/505/466
f 319/506/465 347/507/472 348/508/466
s off
f 349/509/473 350/510/474 352/511/475 351/512/476
f 353/513/477 354/514/478 356/515/479 355/516/480
f 350/510/481 356/517/482 354/518/483 352/511/484
f 355/516/485 349/509/486 351/512/487 353/513/488
s 44
f 357/519/489 358/520/490 366/521/491 365/522/492
f 358/520/490 359/523/493 367/524/494 366/521/491
f 359/523/493 360/525/495 368/526/496 367/524/494
f 360/525/495 361/527/497 369/528/498 368/526/496
f 361/527/497 362/529/499 370/530/500 369/528/498
f 362/529/499 363/531/501 371/532/502 370/530/500
f 363/531/501 364/533/503 372/534/504 371/532/502
f 364/533/503 357/535/489 365/536/492 372/534/504
s 45
f 373/537/505 381/538/506 382/539/507 374/540/508
f 374/541/508 382/542/507 383/543/509 375/544/510
f 375/544/510 383/543/509 384/545/511 376/546/512
f 376/546/512 384/545/511 385/547/513 377/548/514
f 377/548/514 385/547/513 386/549/515 378/550/516
f 378/550/516 386/549/515 387/551/517 379/552/518
f 379/552/518 387/551/517 388/553/519 380/554/520
f 380/554/520 388/553/519 381/538/506 373/537/505
f 381/538/506 389/555/521 390/556/522 382/539/507
f 382/542/507 390/557/522 391/558/523 383/543/509
f 383/543/509 391/558/523 392/559/524 384/545/511
f 384/545/511 392/559/524 393/560/525 385/547/513
f 385/547/513 393/560/525 394/561/526 386/549/515
f 386/549/515 394/561/526 395/562/527 387/551/517
f 387/551/517 395/562/527 396/563/528 388/553/519
f 388/553/519 396/563/528 389/555/521 381/538/506
f 389/555/521 397/564/529 398/565/530 390/556/522
f 390/557/522 398/566/530 399/567/531 391/558/523
f 391/558/523 399/567/531 400/568/532 392/559/524
f 392/559/524 400/568/532 401/569/533 393/560/525
f 393/560/525 401/569/533 402/570/534 394/561/526
f 394/561/526 402/570/534 403/571/535 395/562/527
f 395/562/527 403/571/535 404/572/536 396/563/528
f 396/563/528 404/572/536 397/564/529 389/555/521
f 397/564/529 405/573/537 406/574/538 398/565/530
f 398/566/530 406/575/538 407/576/539 399/567/531
f 399/567/531 407/576/539 408/577/540 400/568/532
f 400/568/532 408/577/540 409/578/541 401/569/533
f 401/569/533 409/578/541 410/579/542 402/570/534
f 402/570/534 410/579/542 411/580/543 403/571/535
f 403/571/535 411/580/543 412/581/544 404/572/536
f 404/572/536 412/581/544 405/573/537 397/564/529
f 405/573/537 413/582/545 414/583/546 406/574/538
f 406/575/538 414/584/546 415/585/547 407/576/539
f 407/576/539 415/585/547 416/586/548 408/577/540
f 408/577/540 416/586/548 417/587/549 409/578/541
f 409/578/541 417/587/549 418/588/550 410/579/542
f 410/579/542 418/588/550 419/589/551 411/580/543
f 411/580/543 419/589/551 420/590/552 412/581/544
f 412/581/544 420/590/552 413/582/545 405/573/537
f 413/582/545 421/591/553 422/592/554 414/583/546
f 414/584/546 422/593/554 423/594/555 415/585/547
f 415/585/547 423/594/555 424/595/556 416/586/548
f 416/586/548 424/595/556 425/596/557 417/587/549
f 417/587/549 425/596/557 426/597/558 418/588/550
f 418/588/550 426/597/558 427/598/559 419/589/551
f 419/589/551 427/598/559 428/599/560 420/590/552
f 420/590/552 428/599/560 421/591/553 413/582/545
f 421/591/553 429/600/561 430/601/562 422/592/554
f 422/593/554 430/602/562 431/603/563 423/594/555
f 423/594/555 431/603/563 432/604/564 424/595/556
f 424/595/556 432/604/564 433/605/565 425/596/557
f 425/596/557 433/605/565 434/606/566 426/597/558
f 426/597/558 434/606/566 435/607/567 427/598/559
f 427/598/559 435/607/567 436/608/568 428/599/560
f 428/599/560 436/608/568 429/600/561 421/591/553
f 429/609/561 437/610/569 438/611/570 430/612/562
f 430/612/562 438/611/570 439/613/571 431/614/563
f 431/614/563 439/613/571 440/615/572 432/616/564
f 432/616/564 440/615/572 441/617/573 433/618/565
f 433/618/565 441/617/573 442/619/574 434/620/566
f 434/620/566 442/619/574 443/621/575 435/622/567
f 435/622/567 443/621/575 444/623/576 436/624/568
f 436/624/568 444/623/576 437/610/569 429/609/561
f 437/610/569 445/625/577 438/611/570
f 438/611/570 445/625/577 439/613/571
f 439/613/571 445/625/577 440/615/572
f 440/615/572 445/625/577 441/617/573
f 441/617/573 445/625/577 442/619/574
f 442/619/574 445/625/577 443/621/575
f 443/621/575 445/625/577 444/623/576
f 444/623/576 445/625/577 437/610/569
s 46
f 446/626/578 454/627/579 455/628/580 447/629/581
f 447/630/581 455/631/580 456/632/582 448/633/583
f 448/633/583 456/632/582 457/634/584 449/635/585
f 449/635/585 457/634/584 458/636/586 450/637/587
f 450/637/587 458/636/586 459/638/588 451/639/589
f 451/639/589 459/638/588 460/640/590 452/641/591
f 452/641/591 460/640/590 461/642/592 453/643/593
f 453/643/593 461/642/592 454/627/579 446/626/578
f 454/627/579 462/644/594 463/645/595 455/628/580
f 455/631/580 463/646/595 464/647/596 456/632/582
f 456/632/582 464/647/596 465/648/597 457/634/584
f 457/634/584 465/648/597 466/649/598 458/636/586
f 458/636/586 466/649/598 467/650/599 459/638/588
f 459/638/588 467/650/599 468/651/600 460/640/590
f 460/640/590 468/651/600 469/652/601 461/642/592
f 461/642/592 469/652/601 462/644/594 454/627/579
f 462/644/594 470/653/602 471/654/603 463/645/595
f 463/646/595 471/655/603 472/656/604 464/647/596
f 464/647/596 472/656/604 473/657/605 465/648/597
f 465/648/597 473/657/605 474/658/606 466/649/598
f 466/649/598 474/658/606 475/659/607 467/650/599
f 467/650/599 475/659/607 476/660/608 468/651/600
f 468/651/600 476/660/608 477/661/609 469/652/601
f 469/652/601 477/661/609 470/653/602 462/644/594
f 470/653/602 478/662/610 479/663/611 471/654/603
f 471/655/603 479/664/611 480/665/612 472/656/604
f 472/656/604 480/665/612 481/666/613 473/657/605
f 473/657/605 481/666/613 482/667/614 474/658/606
f 474/658/606 482/667/614 483/668/615 475/659/607
f 475/659/607 483/668/615 484/669/616 476/660/608
f 476/660/608 484/669/616 485/670/617 477/661/609
f 477/661/609 485/670/617 478/662/610 470/653/602
f 478/662/610 486/671/618 487/672/619 479/663/611
f 479/664/611 487/673/619 488/674/620 480/665/612
f 480/665/612 488/674/620 489/675/621 481/666/613
f 481/666/613 489/675/621 490/676/622 482/667/614
f 482/667/614 490/676/622 491/677/623 483/668/615
f 483/668/615 491/677/623 492/678/624 484/669/616
f 484/669/616 492/678/624 493/679/625 485/670/617
f 485/670/617 493/679/625 486/671/618 478/662/610
f 486/671/618 494/680/626 495/681/627 487/672/619
f 487/673/619 495/682/627 496/683/628 488/674/620
f 488/674/620 496/683/628 497/684/629 489/675/621
f 489/675/621 497/684/629 498/685/630 490/676/622
f 490/676/622 498/685/630 499/686/631 491/677/623
f 491/677/623 499/686/631 500/687/632 492/678/624
f 492/678/624 500/687/632 501/688/633 493/679/625
f 493/679/625 501/688/633 494/680/626 486/671/618
f 494/680/626 502/689/634 503/690/635 495/681/627
f 495/682/627 503/691/635 504/692/636 496/683/628
f 496/683/628 504/692/636 505/693/637 497/684/629
f 497/684/629 505/693/637 506/694/638 498/685/630
f 498/685/630 506/694/638 507/695/639 499/686/631
f 499/686/631 507/695/639 508/696/640 500/687/632
f 500/687/632 508/696/640 509/697/641 501/688/633
f 501/688/633 509/697/641 502/689/634 494/680/626
f 502/698/634 510/699/642 511/700/643 503/701/635
f 503/701/635 511/700/643 512/702/644 504/703/636
f 504/703/636 512/702/644 513/704/645 505/705/637
f 505/705/637 513/704/645 514/706/646 506/707/638
f 506/707/638 514/706/646 515/708/647 507/709/639
f 507/709/639 515/708/647 516/710/648 508/711/640
f 508/711/640 516/710/648 517/712/649 509/713/641
f 509/713/641 517/712/649 510/699/642 502/698/634
f 510/699/642 518/714/650 511/700/643
f 511/700/643 518/714/650 512/702/644
f 512/702/644 518/714/650 513/704/645
f 513/704/645 518/714/650 514/706/646
f 514/706/646 518/714/650 515/708/647
f 515/708/647 518/714/650 516/710/648
f 516/710/648 518/714/650 517/712/649
f 517/712/649 518/714/650 510/699/642
s off
f 523/715/651 524/716/652 526/717/653 525/718/654
f 520/719/655 526/720/656 524/721/657 522/722/658
f 525/718/659 519/723/660 521/724/661 523/715/662
f 519/723/663 520/725/664 522/726/665 521/724/666
s 51
f 527/727/667 528/728/668 531/729/669 530/730/670
f 528/728/668 529/731/671 532/732/672 531/729/669
s 52
f 530/730/673 531/729/674 534/733/675 533/734/676
f 531/729/674 532/732/677 535/735/678 534/733/675
s 53
f 533/734/679 534/733/680 537/736/681 536/737/682
f 534/733/680 535/735/683 538/738/684 537/739/681
s 54
f 536/740/685 537/741/686 528/728/687 527/727/688
f 537/742/686 538/743/689 529/731/690 528/728/687
s off
f 539/744/691 540/745/692 541/746/693 542/747/694
s 54
f 527/727/688 540/748/695 539/749/696 536/750/685
s 51
f 530/730/670 541/751/697 540/748/698 527/727/667
s 52
f 533/734/676 542/752/699 541/751/700 530/730/673
s 53
f 536/753/682 539/754/701 542/752/702 533/734/679
s off
f 529/755/703 538/756/704 535/757/705 532/758/706
s 57
f 543/759/707 544/760/708 565/761/709 566/762/710
f 544/760/708 545/763/711 564/764/712 565/761/709
s 58
f 546/765/713 547/766/714 550/767/715 549/768/716
f 547/766/714 548/769/717 551/770/718 550/767/715
s 59
f 561/771/719 562/772/720 553/773/721 552/774/722
f 562/775/720 563/776/723 554/777/724 553/778/721
s 60
f 552/779/725 553/780/726 544/760/727 543/759/728
f 553/781/726 554/782/729 545/763/730 544/760/727
s 61
f 555/783/731 556/784/732 559/785/733 560/786/734
s 60
f 543/759/728 556/787/735 555/788/736 552/789/725
s 57
f 566/762/710 559/790/737 556/787/738 543/759/707
s 58
f 549/768/716 558/791/739 557/792/740 546/765/713
s 59
f 552/793/722 555/794/741 560/795/742 561/796/719
s 62
f 545/797/743 554/798/744 563/799/745 564/800/746
s 61
f 560/786/734 559/785/733 557/801/747 558/802/748
s 59
f 561/796/719 560/795/742 558/791/749 549/768/750
f 549/768/750 550/767/751 562/772/720 561/771/719
f 550/767/751 551/770/752 563/776/723 562/775/720
s 62
f 564/800/746 563/799/745 551/803/753 548/804/754
s 57
f 565/761/709 564/764/712 548/769/755 547/766/756
f 566/762/710 565/761/709 547/766/756 546/765/757
f 546/765/757 557/792/758 559/790/737 566/762/710
s off
f 569/805/759 570/806/760 572/807/761 571/808/762
f 573/809/763 574/810/764 568/811/765 567/812/766
f 568/813/767 574/814/768 572/807/769 570/806/770
f 573/809/771 567/812/772 569/805/773 571/808/774
f 577/815/775 578/816/776 580/817/777 579/818/778
f 581/819/779 582/820/780 576/821/781 575/822/782
f 576/823/783 582/824/784 580/817/785 578/816/786
f 581/819/787 575/822/788 577/815/789 579/818/790
f 585/825/791 586/826/792 588/827/793 587/828/794
f 589/829/795 590/830/796 584/831/797 583/832/798
f 584/833/799 590/834/800 588/827/801 586/826/802
f 589/829/803 583/832/804 585/825/805 587/828/806
f 593/835/807 594/836/808 596/837/809 595/838/810
f 597/839/811 598/840/812 592/841/813 591/842/814
f 592/843/815 598/844/816 596/837/817 594/836/818
f 597/839/819 591/842/820 593/835/821 595/838/822
f 601/845/823 602/846/824 604/847/825 603/848/826
f 605/849/827 606/850/828 600/851/829 599/852/830
f 600/853/831 606/854/832 604/847/833 602/846/834
f 605/849/835 599/852/836 601/855/837 603/856/838
f 609/857/839 610/858/840 612/859/841 611/860/842
f 613/861/843 614/862/844 608/863/845 607/864/846
f 608/865/847 614/866/848 612/859/849 610/858/850
f 613/861/851 607/864/852 609/867/853 611/868/854
f 617/869/855 618/870/856 620/871/857 619/872/858
f 621/873/859 622/874/860 616/875/861 615/876/862
f 616/877/863 622/878/864 620/871/865 618/870/866
f 621/873/867 615/876/868 617/879/869 619/880/870
f 625/881/871 626/882/872 628/883/873 627/884/874
f 629/885/875 630/886/876 624/887/877 623/888/878
f 624/889/879 630/890/880 628/883/881 626/882/882
f 629/885/883 623/888/884 625/881/885 627/884/886
f 633/891/887 634/892/888 636/893/889 635/894/890
f 637/895/891 638/896/892 632/897/893 631/898/894
f 632/899/895 638/900/896 636/893/897 634/892/898
f 637/895/899 631/898/900 633/891/901 635/894/902
f 641/901/903 642/902/904 644/903/905 643/904/906
f 645/905/907 646/906/908 640/907/909 639/908/910
f 640/909/911 646/910/912 644/903/913 642/902/914
f 645/905/915 639/908/916 641/911/917 643/912/918
