# This file uses centimeters as units for non-parametric coordinates.

g default
v -65.963570 0.586871 1.089732
v -65.943939 0.586871 1.137136
v -65.896530 0.586871 1.156773
v -65.849129 0.586871 1.137136
v -65.829483 0.586871 1.089732
v -65.849129 0.586871 1.042327
v -65.896530 0.586871 1.022690
v -65.943939 0.586871 1.042327
v -65.963570 1.659255 1.089732
v -65.943939 1.659255 1.137136
v -65.896530 1.659255 1.156773
v -65.849129 1.659255 1.137136
v -65.829483 1.659255 1.089732
v -65.849129 1.659255 1.042327
v -65.896530 1.659255 1.022690
v -65.943939 1.659255 1.042327
v -65.852036 1.223097 0.328767
v -65.850639 1.309800 -0.465101
v -65.851540 1.338856 -1.253250
v -65.852036 1.308240 0.342550
v -65.850639 1.398324 -0.457983
v -65.851540 1.426005 -1.253250
v -65.941368 1.308240 0.342550
v -65.942757 1.398324 -0.457983
v -65.941841 1.426005 -1.253250
v -65.941368 1.223097 0.328767
v -65.942757 1.309800 -0.465101
v -65.941841 1.338856 -1.253250
v -65.851723 1.169542 1.095861
v -65.851723 1.085190 1.075474
v -65.941673 1.085190 1.075474
v -65.941673 1.169542 1.095861
v -65.863052 1.382709 1.088866
v -65.863052 1.514717 0.365173
v -65.863052 1.602975 -0.433182
v -65.863052 1.632439 -1.253250
v -65.863052 1.446064 1.102196
v -65.863052 1.578805 0.374350
v -65.863052 1.667553 -0.428583
v -65.863052 1.697181 -1.253250
v -65.930008 1.446064 1.102196
v -65.930008 1.578805 0.374350
v -65.930008 1.667553 -0.428583
v -65.930008 1.697181 -1.253250
v -65.930008 1.382709 1.088866
v -65.930008 1.514717 0.365173
v -65.930008 1.602975 -0.433182
v -65.930008 1.632439 -1.253250
v -65.851891 1.414387 1.095531
v -65.851891 1.546761 0.369761
v -65.851891 1.635263 -0.430882
v -65.851891 1.664810 -1.253250
v -65.896530 1.456624 1.104419
v -65.896530 1.589486 0.375878
v -65.896530 1.678316 -0.427817
v -65.896530 1.707971 -1.253250
v -65.941170 1.414387 1.095531
v -65.941170 1.546761 0.369761
v -65.941170 1.635263 -0.430882
v -65.941170 1.664810 -1.253250
v -65.896530 1.372150 1.086643
v -65.896530 1.504035 0.363644
v -65.896530 1.592212 -0.433948
v -65.896530 1.621649 -1.253250
v -65.896530 1.664810 -1.253250
v -65.860405 0.749189 0.350708
v -65.860405 0.749189 0.278463
v -65.860405 1.276126 0.350708
v -65.860405 1.276126 0.278463
v -65.932648 1.276126 0.350708
v -65.932648 1.276126 0.278463
v -65.932648 0.749189 0.350708
v -65.932648 0.749189 0.278463
v -65.943939 0.801082 -0.507965
v -65.963570 0.801082 -0.460560
v -65.943939 0.801082 -0.413155
v -65.896530 0.801082 -0.393519
v -65.849129 0.801082 -0.413155
v -65.829483 0.801082 -0.460560
v -65.849129 0.801082 -0.507965
v -65.896530 0.801082 -0.527601
v -65.943939 1.873465 -0.507965
v -65.963570 1.873465 -0.460560
v -65.943939 1.873465 -0.413155
v -65.896530 1.873465 -0.393519
v -65.849129 1.873465 -0.413155
v -65.829483 1.873465 -0.460560
v -65.849129 1.873465 -0.507965
v -65.896530 1.873465 -0.527601
v -65.936676 1.839684 -0.500707
v -65.896530 1.839684 -0.517337
v -65.856384 1.839684 -0.500707
v -65.839752 1.839684 -0.460559
v -65.856384 1.839684 -0.420412
v -65.896530 1.839684 -0.403782
v -65.936676 1.839684 -0.420412
v -65.953308 1.839684 -0.460559
v -65.957726 1.857488 -0.521745
v -65.896530 1.857488 -0.547089
v -65.835342 1.857488 -0.521745
v -65.809998 1.857488 -0.460559
v -65.835342 1.857488 -0.399374
v -65.896530 1.857488 -0.374031
v -65.957726 1.857488 -0.399374
v -65.983063 1.857488 -0.460559
v -65.953323 1.898501 -0.517351
v -65.896530 1.898501 -0.540874
v -65.839737 1.898501 -0.517351
v -65.816216 1.898501 -0.460559
v -65.839737 1.898501 -0.403769
v -65.896530 1.898501 -0.380245
v -65.953323 1.898501 -0.403769
v -65.976845 1.898501 -0.460559
v -65.940376 1.904436 -0.504408
v -65.896530 1.904436 -0.522572
v -65.852676 1.904436 -0.504408
v -65.834526 1.904436 -0.460559
v -65.852676 1.904436 -0.416711
v -65.896530 1.904436 -0.398548
v -65.940376 1.904436 -0.416711
v -65.958549 1.904436 -0.460559
v -65.932983 1.930549 -0.497013
v -65.896530 1.930549 -0.512113
v -65.860077 1.930549 -0.497013
v -65.844978 1.930549 -0.460559
v -65.860077 1.930549 -0.424106
v -65.896530 1.930549 -0.409007
v -65.932983 1.930549 -0.424106
v -65.948082 1.930549 -0.460559
v -65.920044 1.937671 -0.484071
v -65.896530 1.937671 -0.493810
v -65.873016 1.937671 -0.484071
v -65.863274 1.937671 -0.460559
v -65.873016 1.937671 -0.437048
v -65.896530 1.937671 -0.427310
v -65.920044 1.937671 -0.437048
v -65.929779 1.937671 -0.460559
v -65.942688 1.962190 -0.506719
v -65.896530 1.962190 -0.525838
v -65.850365 1.962190 -0.506719
v -65.831261 1.962190 -0.460559
v -65.850365 1.962190 -0.414402
v -65.896530 1.962190 -0.395282
v -65.942688 1.962190 -0.414402
v -65.961807 1.962190 -0.460559
v -65.960716 1.998986 -0.524751
v -65.896530 1.998986 -0.551340
v -65.832344 1.998986 -0.524751
v -65.805748 1.998986 -0.460559
v -65.832344 1.998986 -0.396369
v -65.896530 1.998986 -0.369780
v -65.960716 1.998986 -0.396369
v -65.987305 1.998986 -0.460559
v -65.924652 2.022725 -0.488686
v -65.896530 2.022725 -0.500336
v -65.868401 2.022725 -0.488686
v -65.856758 2.022725 -0.460559
v -65.868401 2.022725 -0.432434
v -65.896530 2.022725 -0.420784
v -65.924652 2.022725 -0.432434
v -65.936310 2.022725 -0.460559
v -65.896530 2.055960 -0.460559
v -65.953308 1.616065 1.089732
v -65.936676 1.616065 1.049584
v -65.896530 1.616065 1.032954
v -65.856384 1.616065 1.049584
v -65.839752 1.616065 1.089732
v -65.856384 1.616065 1.129879
v -65.896530 1.616065 1.146509
v -65.936676 1.616065 1.129879
v -65.983063 1.633869 1.089732
v -65.957726 1.633869 1.028546
v -65.896530 1.633869 1.003202
v -65.835342 1.633869 1.028545
v -65.809998 1.633869 1.089732
v -65.835342 1.633869 1.150916
v -65.896530 1.633869 1.176262
v -65.957718 1.633869 1.150917
v -65.976845 1.674883 1.089731
v -65.953323 1.674883 1.032940
v -65.896530 1.674883 1.009418
v -65.839737 1.674883 1.032941
v -65.816216 1.674883 1.089732
v -65.839737 1.674883 1.146523
v -65.896530 1.674883 1.170047
v -65.953323 1.674883 1.146523
v -65.958549 1.680817 1.089731
v -65.940376 1.680817 1.045883
v -65.896530 1.680817 1.027720
v -65.852676 1.680817 1.045883
v -65.834526 1.680817 1.089731
v -65.852676 1.680817 1.133581
v -65.896530 1.680817 1.151744
v -65.940376 1.680817 1.133581
v -65.948082 1.706930 1.089732
v -65.932983 1.706930 1.053278
v -65.896530 1.706930 1.038178
v -65.860077 1.706930 1.053279
v -65.844978 1.706930 1.089731
v -65.860077 1.706930 1.126185
v -65.896530 1.706930 1.141285
v -65.932983 1.706930 1.126185
v -65.929779 1.714052 1.089732
v -65.920044 1.714052 1.066220
v -65.896530 1.714052 1.056481
v -65.873016 1.714052 1.066219
v -65.863274 1.714052 1.089732
v -65.873016 1.714052 1.113243
v -65.896530 1.714052 1.122981
v -65.920044 1.714052 1.113243
v -65.961807 1.738571 1.089732
v -65.942688 1.738571 1.043572
v -65.896530 1.738571 1.024453
v -65.850365 1.738571 1.043573
v -65.831261 1.738571 1.089732
v -65.850365 1.738571 1.135890
v -65.896530 1.738571 1.155010
v -65.942688 1.738571 1.135890
v -65.987305 1.775367 1.089732
v -65.960716 1.775367 1.025540
v -65.896530 1.775367 0.998952
v -65.832336 1.775367 1.025541
v -65.805748 1.775367 1.089732
v -65.832344 1.775367 1.153922
v -65.896530 1.775367 1.180511
v -65.960716 1.775367 1.153923
v -65.936310 1.799106 1.089732
v -65.924652 1.799106 1.061605
v -65.896530 1.799106 1.049955
v -65.868401 1.799106 1.061605
v -65.856758 1.799106 1.089731
v -65.868401 1.799106 1.117857
v -65.896530 1.799106 1.129509
v -65.924652 1.799106 1.117858
v -65.896530 1.832341 1.089731
v -65.809425 0.651181 0.354326
v -65.809425 0.747030 -0.438123
v -65.809425 0.779049 -1.253250
v -65.809425 0.768960 0.373393
v -65.809425 0.865959 -0.428559
v -65.809425 0.898362 -1.253250
v -65.983635 0.768960 0.373393
v -65.983635 0.865959 -0.428559
v -65.983635 0.898362 -1.253250
v -65.983635 0.651181 0.354326
v -65.983635 0.747030 -0.438123
v -65.983635 0.779049 -1.253250
v -65.983635 0.469730 1.225945
v -65.809425 0.469730 1.225945
v -65.809425 0.585334 1.255465
v -65.983635 0.585334 1.255465
v -65.817780 0.537363 0.335264
v -65.817780 0.633212 -0.447654
v -65.817780 0.661418 -1.253250
v -65.829109 0.655142 0.354330
v -65.829109 0.752141 -0.438090
v -65.829109 0.780731 -1.253250
v -65.963951 0.655142 0.354330
v -65.963951 0.752141 -0.438090
v -65.963951 0.780731 -1.253250
v -65.975281 0.537363 0.335264
v -65.975281 0.633212 -0.447654
v -65.975281 0.661418 -1.253250
v -65.975281 0.359724 1.195446
v -65.817780 0.359724 1.195446
v -65.829109 0.475328 1.224964
v -65.963951 0.475328 1.224964
v -65.817780 0.426705 1.212549
v -65.975281 0.426705 1.212549
v -65.975281 0.605605 0.346312
v -65.975281 0.702120 -0.442113
v -65.975281 0.730549 -1.253250
v -65.817780 0.730549 -1.253250
v -65.817780 0.702120 -0.442113
v -65.817780 0.605605 0.346312
v -69.673813 0.586871 1.022690
v -69.721230 0.586871 1.042327
v -69.740860 0.586871 1.089731
v -69.721230 0.586871 1.137136
v -69.673813 0.586871 1.156773
v -69.626419 0.586871 1.137136
v -69.606773 0.586871 1.089732
v -69.626419 0.586871 1.042327
v -69.673813 1.659255 1.022690
v -69.721230 1.659255 1.042327
v -69.740860 1.659255 1.089731
v -69.721230 1.659255 1.137136
v -69.673813 1.659255 1.156773
v -69.626419 1.659255 1.137136
v -69.606773 1.659255 1.089732
v -69.626419 1.659255 1.042327
v -69.629318 1.223097 0.328767
v -69.627930 1.309800 -0.465101
v -69.628830 1.338856 -1.253250
v -69.629318 1.308240 0.342550
v -69.627930 1.398324 -0.457983
v -69.628830 1.426005 -1.253250
v -69.718651 1.308240 0.342550
v -69.720039 1.398324 -0.457983
v -69.719131 1.426005 -1.253250
v -69.718651 1.223097 0.328767
v -69.720039 1.309800 -0.465101
v -69.719131 1.338856 -1.253250
v -69.629013 1.169542 1.095861
v -69.629013 1.085190 1.075474
v -69.718956 1.085190 1.075474
v -69.718956 1.169542 1.095861
v -69.640343 1.382709 1.088866
v -69.640343 1.514717 0.365173
v -69.640343 1.602975 -0.433182
v -69.640343 1.632439 -1.253250
v -69.640343 1.446064 1.102196
v -69.640343 1.578805 0.374350
v -69.640343 1.667553 -0.428583
v -69.640343 1.697181 -1.253250
v -69.707291 1.446064 1.102196
v -69.707291 1.578805 0.374350
v -69.707291 1.667553 -0.428583
v -69.707291 1.697181 -1.253250
v -69.707291 1.382709 1.088866
v -69.707291 1.514717 0.365173
v -69.707291 1.602975 -0.433182
v -69.707291 1.632439 -1.253250
v -69.629189 1.414387 1.095531
v -69.629189 1.546761 0.369761
v -69.629189 1.635263 -0.430882
v -69.629189 1.664810 -1.253250
v -69.673813 1.456624 1.104419
v -69.673813 1.589486 0.375878
v -69.673813 1.678316 -0.427817
v -69.673813 1.707971 -1.253250
v -69.718452 1.414387 1.095531
v -69.718452 1.546761 0.369761
v -69.718452 1.635263 -0.430882
v -69.718452 1.664810 -1.253250
v -69.673813 1.372150 1.086643
v -69.673813 1.504035 0.363644
v -69.673813 1.592212 -0.433948
v -69.673813 1.621649 -1.253250
v -69.673813 1.664810 -1.253250
v -69.637695 0.749189 0.350708
v -69.637695 0.749189 0.278463
v -69.637695 1.276126 0.350708
v -69.637695 1.276126 0.278463
v -69.709946 1.276126 0.350708
v -69.709946 1.276126 0.278463
v -69.709946 0.749189 0.350708
v -69.709946 0.749189 0.278463
v -69.626419 0.801082 -0.507965
v -69.673813 0.801082 -0.527601
v -69.721230 0.801082 -0.507965
v -69.740860 0.801082 -0.460560
v -69.721230 0.801082 -0.413155
v -69.673813 0.801082 -0.393519
v -69.626419 0.801082 -0.413155
v -69.606773 0.801082 -0.460560
v -69.626419 1.873465 -0.507965
v -69.673813 1.873465 -0.527601
v -69.721230 1.873465 -0.507965
v -69.740860 1.873465 -0.460560
v -69.721230 1.873465 -0.413155
v -69.673813 1.873465 -0.393519
v -69.626419 1.873465 -0.413155
v -69.606773 1.873465 -0.460560
v -69.633675 1.839684 -0.500707
v -69.617043 1.839684 -0.460560
v -69.633675 1.839684 -0.420412
v -69.673813 1.839684 -0.403783
v -69.713966 1.839684 -0.420412
v -69.730598 1.839684 -0.460560
v -69.713966 1.839684 -0.500707
v -69.673813 1.839684 -0.517337
v -69.612633 1.857488 -0.521745
v -69.587296 1.857488 -0.460560
v -69.612633 1.857488 -0.399374
v -69.673813 1.857488 -0.374031
v -69.735001 1.857488 -0.399374
v -69.760345 1.857488 -0.460560
v -69.735001 1.857488 -0.521745
v -69.673813 1.857488 -0.547090
v -69.617027 1.898501 -0.517351
v -69.593506 1.898501 -0.460560
v -69.617027 1.898501 -0.403769
v -69.673813 1.898501 -0.380245
v -69.730606 1.898501 -0.403769
v -69.754135 1.898501 -0.460560
v -69.730606 1.898501 -0.517351
v -69.673813 1.898501 -0.540874
v -69.629967 1.904436 -0.504409
v -69.611809 1.904436 -0.460560
v -69.629967 1.904436 -0.416711
v -69.673813 1.904436 -0.398548
v -69.717667 1.904436 -0.416711
v -69.735832 1.904436 -0.460560
v -69.717667 1.904436 -0.504409
v -69.673813 1.904436 -0.522572
v -69.637367 1.930549 -0.497014
v -69.622269 1.930549 -0.460560
v -69.637367 1.930549 -0.424106
v -69.673813 1.930549 -0.409007
v -69.710274 1.930549 -0.424106
v -69.725372 1.930549 -0.460560
v -69.710274 1.930549 -0.497014
v -69.673813 1.930549 -0.512113
v -69.650307 1.937671 -0.484071
v -69.640572 1.937671 -0.460560
v -69.650307 1.937671 -0.437048
v -69.673813 1.937671 -0.427310
v -69.697327 1.937671 -0.437048
v -69.707069 1.937671 -0.460560
v -69.697327 1.937671 -0.484071
v -69.673813 1.937671 -0.493810
v -69.627663 1.962190 -0.506719
v -69.608536 1.962190 -0.460560
v -69.627663 1.962190 -0.414402
v -69.673813 1.962190 -0.395282
v -69.719978 1.962190 -0.414402
v -69.739098 1.962190 -0.460560
v -69.719978 1.962190 -0.506719
v -69.673813 1.962190 -0.525838
v -69.609627 1.998986 -0.524751
v -69.583038 1.998986 -0.460560
v -69.609627 1.998986 -0.396369
v -69.673813 1.998986 -0.369780
v -69.738007 1.998986 -0.396369
v -69.764603 1.998986 -0.460560
v -69.738007 1.998986 -0.524751
v -69.673813 1.998986 -0.551340
v -69.645691 2.022725 -0.488686
v -69.634048 2.022725 -0.460560
v -69.645691 2.022725 -0.432434
v -69.673813 2.022725 -0.420784
v -69.701942 2.022725 -0.432434
v -69.713600 2.022725 -0.460560
v -69.701942 2.022725 -0.488686
v -69.673813 2.022725 -0.500336
v -69.673813 2.055960 -0.460560
v -69.673813 1.616065 1.032954
v -69.633675 1.616065 1.049584
v -69.617043 1.616065 1.089731
v -69.633675 1.616065 1.129879
v -69.673813 1.616065 1.146509
v -69.713966 1.616065 1.129878
v -69.730598 1.616065 1.089732
v -69.713966 1.616065 1.049584
v -69.673813 1.633869 1.003202
v -69.612633 1.633869 1.028546
v -69.587296 1.633869 1.089732
v -69.612633 1.633869 1.150917
v -69.673813 1.633869 1.176262
v -69.735001 1.633869 1.150917
v -69.760345 1.633869 1.089732
v -69.735001 1.633869 1.028545
v -69.673813 1.674883 1.009418
v -69.617027 1.674883 1.032940
v -69.593506 1.674883 1.089731
v -69.617027 1.674883 1.146523
v -69.673813 1.674883 1.170047
v -69.730606 1.674883 1.146523
v -69.754135 1.674883 1.089732
v -69.730606 1.674883 1.032941
v -69.673813 1.680817 1.027719
v -69.629967 1.680817 1.045883
v -69.611809 1.680817 1.089732
v -69.629967 1.680817 1.133581
v -69.673813 1.680817 1.151744
v -69.717667 1.680817 1.133581
v -69.735832 1.680817 1.089732
v -69.717667 1.680817 1.045883
v -69.673813 1.706930 1.038178
v -69.637367 1.706930 1.053278
v -69.622269 1.706930 1.089732
v -69.637367 1.706930 1.126185
v -69.673813 1.706930 1.141285
v -69.710274 1.706930 1.126185
v -69.725372 1.706930 1.089731
v -69.710274 1.706930 1.053278
v -69.673813 1.714052 1.056481
v -69.650307 1.714052 1.066220
v -69.640572 1.714052 1.089732
v -69.650307 1.714052 1.113243
v -69.673813 1.714052 1.122981
v -69.697327 1.714052 1.113243
v -69.707069 1.714052 1.089732
v -69.697334 1.714052 1.066219
v -69.673813 1.738571 1.024453
v -69.627663 1.738571 1.043572
v -69.608536 1.738571 1.089732
v -69.627663 1.738571 1.135890
v -69.673813 1.738571 1.155010
v -69.719978 1.738571 1.135890
v -69.739098 1.738571 1.089732
v -69.719978 1.738571 1.043572
v -69.673813 1.775367 0.998952
v -69.609627 1.775367 1.025540
v -69.583038 1.775367 1.089732
v -69.609627 1.775367 1.153923
v -69.673813 1.775367 1.180511
v -69.738007 1.775367 1.153922
v -69.764603 1.775367 1.089732
v -69.738007 1.775367 1.025541
v -69.673813 1.799106 1.049955
v -69.645691 1.799106 1.061605
v -69.634048 1.799106 1.089732
v -69.645691 1.799106 1.117858
v -69.673813 1.799106 1.129509
v -69.701942 1.799106 1.117857
v -69.713600 1.799106 1.089731
v -69.701942 1.799106 1.061605
v -69.673813 1.832341 1.089731
v -69.637695 0.851557 -1.202861
v -69.637695 0.851557 -1.255465
v -69.637695 1.378495 -1.202861
v -69.637695 1.378495 -1.255465
v -69.709946 1.378495 -1.202861
v -69.709946 1.378495 -1.255465
v -69.709946 0.851557 -1.202861
v -69.709946 0.851557 -1.255465
v -69.586716 0.651181 0.354326
v -69.586716 0.747030 -0.438123
v -69.586716 0.779049 -1.253250
v -69.586716 0.768960 0.373393
v -69.586716 0.865959 -0.428559
v -69.586716 0.898362 -1.253250
v -69.760918 0.768960 0.373393
v -69.760918 0.865959 -0.428559
v -69.760918 0.898362 -1.253250
v -69.760918 0.651181 0.354326
v -69.760918 0.747030 -0.438123
v -69.760918 0.779049 -1.253250
v -69.760918 0.469730 1.225945
v -69.586716 0.469730 1.225945
v -69.586716 0.585334 1.255465
v -69.760918 0.585334 1.255465
v -69.595078 0.537363 0.335264
v -69.595078 0.633212 -0.447654
v -69.595078 0.661418 -1.253250
v -69.606400 0.655142 0.354330
v -69.606400 0.752141 -0.438090
v -69.606400 0.780731 -1.253250
v -69.741234 0.655142 0.354330
v -69.741234 0.752141 -0.438090
v -69.741234 0.780731 -1.253250
v -69.752563 0.537363 0.335264
v -69.752563 0.633212 -0.447654
v -69.752563 0.661418 -1.253250
v -69.752563 0.359724 1.195446
v -69.595078 0.359724 1.195446
v -69.606400 0.475328 1.224964
v -69.741234 0.475328 1.224964
v -69.595078 0.426705 1.212549
v -69.752563 0.426705 1.212549
v -69.752563 0.605605 0.346312
v -69.752563 0.702120 -0.442113
v -69.752563 0.730549 -1.253250
v -69.595078 0.730549 -1.253250
v -69.595078 0.702120 -0.442113
v -69.595078 0.605605 0.346312
v -65.896530 0.732930 -0.025007
v -65.896530 0.758432 -0.258200
v -65.896530 0.785370 -0.018556
v -65.896530 0.811007 -0.252981
v -69.673813 0.785370 -0.018556
v -69.673813 0.811007 -0.252981
v -69.673813 0.732930 -0.025007
v -69.673813 0.758432 -0.258200
v -65.896530 0.700173 0.220432
v -65.896530 0.731354 -0.012059
v -65.896530 0.752441 0.228179
v -65.896530 0.783786 -0.005540
v -69.673813 0.752441 0.228179
v -69.673813 0.783786 -0.005540
v -69.673813 0.700173 0.220432
v -69.673813 0.731354 -0.012059
v -65.896530 0.616759 0.708503
v -65.896530 0.659237 0.477839
v -65.896530 0.668585 0.718831
v -65.896530 0.711287 0.486947
v -69.673813 0.668585 0.718831
v -69.673813 0.711287 0.486947
v -69.673813 0.616759 0.708503
v -69.673813 0.659237 0.477839
v -65.896530 0.565102 0.955574
v -65.896530 0.613301 0.726055
v -65.896530 0.616655 0.967209
v -65.896530 0.665109 0.736476
v -69.673813 0.616655 0.967209
v -69.673813 0.665109 0.736476
v -69.673813 0.565102 0.955574
v -69.673813 0.613301 0.726055
v -65.896530 0.508188 1.196414
v -65.896530 0.562602 0.968311
v -65.896530 0.559406 1.209468
v -65.896530 0.614108 0.980158
v -69.673813 0.559406 1.209468
v -69.673813 0.614108 0.980158
v -69.673813 0.508188 1.196414
v -69.673813 0.562602 0.968311
v -65.896530 0.661442 0.464984
v -65.896530 0.698282 0.233336
v -65.896530 0.713504 0.474025
v -65.896530 0.750539 0.241152
v -69.673813 0.713504 0.474025
v -69.673813 0.750539 0.241152
v -69.673813 0.661442 0.464984
v -69.673813 0.698282 0.233336
v -65.896530 0.759692 -0.271183
v -65.896530 0.779500 -0.504937
v -65.896530 0.812273 -0.266033
v -65.896530 0.832186 -0.501023
v -69.673813 0.812273 -0.266033
v -69.673813 0.832186 -0.501023
v -69.673813 0.759692 -0.271183
v -69.673813 0.779500 -0.504937
v -65.896530 0.803865 -1.012646
v -65.896530 0.806534 -1.247236
v -65.896530 0.856681 -1.011415
v -65.896530 0.859363 -1.247245
v -69.673813 0.856681 -1.011415
v -69.673813 0.859363 -1.247245
v -69.673813 0.803865 -1.012646
v -69.673813 0.806534 -1.247236
v -65.896530 0.795170 -0.765152
v -65.896530 0.803558 -0.999604
v -65.896530 0.847939 -0.762613
v -65.896530 0.856372 -0.998305
v -69.673813 0.847939 -0.762613
v -69.673813 0.856372 -0.998305
v -69.673813 0.795170 -0.765152
v -69.673813 0.803558 -0.999604
v -65.896530 0.780443 -0.517947
v -65.896530 0.794545 -0.752121
v -65.896530 0.833134 -0.514102
v -65.896530 0.847311 -0.749514
v -69.673813 0.833134 -0.514102
v -69.673813 0.847311 -0.749514
v -69.673813 0.780443 -0.517947
v -69.673813 0.794545 -0.752121
v -65.860405 0.851557 -1.202861
v -65.860405 0.851557 -1.255465
v -65.860405 1.378495 -1.202861
v -65.860405 1.378495 -1.255465
v -65.932648 1.378495 -1.202861
v -65.932648 1.378495 -1.255465
v -65.932648 0.851557 -1.202861
v -65.932648 0.851557 -1.255465
vt -0.077670 0.699576
vt -0.077670 0.673767
vt 0.865151 0.673767
vt 0.865151 0.699576
vt -0.077670 0.647958
vt 0.865151 0.647958
vt -0.077670 0.622149
vt 0.865151 0.622149
vt -0.077670 0.596340
vt 0.865151 0.596340
vt -0.077670 0.570532
vt 0.865151 0.570532
vt -0.077670 0.544723
vt 0.865151 0.544723
vt -0.077670 0.518914
vt 0.865151 0.518914
vt -0.077670 0.493105
vt 0.865151 0.493105
vt 0.848684 0.309436
vt -0.330987 0.309436
vt -0.330986 0.368957
vt 0.848684 0.368957
vt -1.506255 0.309436
vt -1.506255 0.368957
vt -0.330986 0.427403
vt 0.848684 0.427403
vt -1.506254 0.427403
vt -0.330986 0.484741
vt 0.848684 0.484741
vt -1.506254 0.484741
vt -0.330986 0.484741
vt 0.848684 0.255351
vt -0.330986 0.255351
vt -0.330986 0.255351
vt -1.506254 0.255350
vt 1.959410 0.309436
vt 1.959409 0.255351
vt 0.848684 0.255351
vt 1.959408 0.368957
vt 1.959409 0.427403
vt 0.848684 0.484741
vt 1.959409 0.484741
vt 2.221279 0.311954
vt 2.678777 0.311954
vt 2.678777 0.367768
vt 2.221279 0.367768
vt 0.003050 0.525281
vt 0.003050 0.543165
vt -0.799481 0.543165
vt -0.799481 0.525281
vt -0.799481 0.561049
vt 0.003049 0.561049
vt 0.805580 0.525281
vt 0.805580 0.543165
vt 0.805580 0.561049
vt 1.608110 0.525281
vt 1.608110 0.543165
vt 1.608110 0.561049
vt 0.003050 0.578933
vt -0.799481 0.578933
vt -0.799481 0.596817
vt 0.003049 0.596817
vt 0.805580 0.578933
vt 0.805580 0.596817
vt 1.608110 0.578933
vt 1.608110 0.596817
vt 0.003050 0.614702
vt -0.799481 0.614702
vt -0.799481 0.632586
vt 0.003049 0.632586
vt 0.805580 0.614702
vt 0.805580 0.632586
vt 1.608110 0.614702
vt 1.608110 0.632586
vt 0.003050 0.650470
vt -0.799481 0.650470
vt 0.003050 0.668354
vt -0.799481 0.668354
vt 0.805580 0.650470
vt 0.805580 0.668354
vt 1.608110 0.650470
vt 1.608110 0.668354
vt 1.443388 0.004033
vt 2.756431 0.004033
vt 2.099909 1.317077
vt 1.443388 0.004033
vt 2.756431 0.004033
vt 2.099909 1.317077
vt 1.443388 0.004033
vt 2.756431 0.004033
vt 2.099909 1.317077
vt 1.443388 0.004033
vt 2.756431 0.004033
vt 2.099909 1.317077
vt 1.443388 0.004033
vt 2.756431 0.004033
vt 2.099909 1.317077
vt 1.443388 0.004033
vt 2.756431 0.004033
vt 2.099909 1.317077
vt 1.443388 0.004033
vt 2.756431 0.004033
vt 2.099909 1.317077
vt 1.443388 0.004033
vt 2.756431 0.004033
vt 2.099909 1.317077
vt 0.058627 0.368532
vt 0.058627 0.311242
vt 0.658640 0.311242
vt 0.658640 0.368532
vt 0.658640 0.425823
vt 0.658640 0.483113
vt 0.058627 0.483113
vt 0.058627 0.425823
vt 0.058627 0.253952
vt 0.658640 0.253952
vt -0.077670 0.653714
vt -0.077670 0.627905
vt 0.865151 0.627905
vt 0.865151 0.653714
vt -0.077670 0.602096
vt 0.865151 0.602096
vt -0.077670 0.576288
vt 0.865151 0.576288
vt -0.077670 0.550479
vt 0.865151 0.550479
vt -0.077670 0.524670
vt 0.865151 0.524670
vt -0.077670 0.498861
vt 0.865151 0.498861
vt -0.077670 0.473052
vt 0.865151 0.473052
vt -0.077670 0.447243
vt 0.865151 0.447243
vt 0.086896 0.751121
vt 0.086896 0.772387
vt 0.015807 0.772387
vt 0.015807 0.751121
vt 0.584520 0.751121
vt 0.584520 0.772387
vt 0.513431 0.772387
vt 0.513431 0.751121
vt 0.442342 0.772387
vt 0.442342 0.751121
vt 0.371253 0.772387
vt 0.371253 0.751121
vt 0.300164 0.772387
vt 0.300164 0.751121
vt 0.229074 0.772387
vt 0.229074 0.751121
vt 0.157985 0.772387
vt 0.157985 0.751121
vt 0.086896 0.805950
vt 0.015807 0.805950
vt 0.584520 0.805950
vt 0.513431 0.805950
vt 0.442342 0.805950
vt 0.371253 0.805950
vt 0.300164 0.805950
vt 0.229074 0.805950
vt 0.157985 0.805950
vt 0.086896 0.814624
vt 0.015807 0.814624
vt 0.584520 0.814624
vt 0.513431 0.814624
vt 0.442342 0.814624
vt 0.371252 0.814624
vt 0.300164 0.814624
vt 0.229075 0.814624
vt 0.157985 0.814624
vt 0.086896 0.837379
vt 0.015807 0.837379
vt 0.584520 0.837379
vt 0.513431 0.837379
vt 0.442342 0.837379
vt 0.371252 0.837379
vt 0.300164 0.837379
vt 0.229074 0.837379
vt 0.157985 0.837379
vt 0.086896 0.847218
vt 0.015807 0.847218
vt 0.584520 0.847218
vt 0.513431 0.847218
vt 0.442342 0.847218
vt 0.371253 0.847218
vt 0.300164 0.847218
vt 0.229074 0.847218
vt 0.157985 0.847218
vt 0.086896 0.876972
vt 0.015807 0.876972
vt 0.584520 0.876972
vt 0.513431 0.876972
vt 0.442342 0.876972
vt 0.371253 0.876972
vt 0.300164 0.876972
vt 0.229074 0.876972
vt 0.157985 0.876972
vt 0.086896 0.907350
vt 0.015807 0.907350
vt 0.584520 0.907350
vt 0.513431 0.907350
vt 0.442342 0.907350
vt 0.371253 0.907350
vt 0.300164 0.907350
vt 0.229074 0.907350
vt 0.157985 0.907350
vt 0.656001 0.905093
vt 0.733623 0.862569
vt 0.794159 0.876306
vt 0.794159 0.936444
vt 0.854694 0.862569
vt 0.932317 0.905093
vt 0.879769 0.829406
vt 0.989544 0.829406
vt 0.854694 0.796243
vt 0.932317 0.753720
vt 0.794159 0.782507
vt 0.794159 0.722369
vt 0.733623 0.796243
vt 0.656001 0.753720
vt 0.708549 0.829406
vt 0.598774 0.830643
vt 0.794159 0.829406
vt 0.086896 0.751121
vt 0.086896 0.772387
vt 0.015807 0.772387
vt 0.015807 0.751121
vt 0.584520 0.751121
vt 0.584520 0.772387
vt 0.513431 0.772387
vt 0.513431 0.751121
vt 0.442342 0.772387
vt 0.442342 0.751121
vt 0.371253 0.772387
vt 0.371253 0.751121
vt 0.300164 0.772387
vt 0.300164 0.751121
vt 0.229074 0.772387
vt 0.229074 0.751121
vt 0.157985 0.772387
vt 0.157985 0.751121
vt 0.086896 0.805950
vt 0.015807 0.805950
vt 0.584520 0.805950
vt 0.513431 0.805950
vt 0.442342 0.805950
vt 0.371253 0.805950
vt 0.300164 0.805950
vt 0.229074 0.805950
vt 0.157985 0.805950
vt 0.086896 0.814624
vt 0.015807 0.814624
vt 0.584520 0.814624
vt 0.513431 0.814624
vt 0.442342 0.814624
vt 0.371252 0.814624
vt 0.300164 0.814624
vt 0.229075 0.814624
vt 0.157985 0.814624
vt 0.086896 0.837379
vt 0.015807 0.837379
vt 0.584520 0.837379
vt 0.513431 0.837379
vt 0.442342 0.837379
vt 0.371252 0.837379
vt 0.300164 0.837379
vt 0.229074 0.837379
vt 0.157985 0.837379
vt 0.086896 0.847218
vt 0.015807 0.847218
vt 0.584520 0.847218
vt 0.513431 0.847218
vt 0.442342 0.847218
vt 0.371253 0.847218
vt 0.300164 0.847218
vt 0.229074 0.847218
vt 0.157985 0.847218
vt 0.086896 0.876972
vt 0.015807 0.876972
vt 0.584520 0.876972
vt 0.513431 0.876972
vt 0.442342 0.876972
vt 0.371253 0.876972
vt 0.300164 0.876972
vt 0.229074 0.876972
vt 0.157985 0.876972
vt 0.086896 0.907350
vt 0.015807 0.907350
vt 0.584520 0.907350
vt 0.513431 0.907350
vt 0.442342 0.907350
vt 0.371253 0.907350
vt 0.300164 0.907350
vt 0.229074 0.907350
vt 0.157985 0.907350
vt 0.656001 0.905093
vt 0.733623 0.862569
vt 0.794159 0.876306
vt 0.794159 0.936444
vt 0.854694 0.862569
vt 0.932317 0.905093
vt 0.879769 0.829406
vt 0.989544 0.829406
vt 0.854694 0.796243
vt 0.932317 0.753720
vt 0.794159 0.782507
vt 0.794159 0.722369
vt 0.733623 0.796243
vt 0.656001 0.753720
vt 0.708549 0.829406
vt 0.598774 0.830643
vt 0.794159 0.829406
vt 0.771406 0.309436
vt -0.060877 0.309436
vt -0.060877 0.368957
vt 0.771406 0.368957
vt -0.890054 0.309436
vt -0.890054 0.368957
vt -0.060877 0.427404
vt 0.771406 0.427403
vt -0.890054 0.427403
vt -0.060877 0.484741
vt 0.771406 0.484741
vt -0.890053 0.484741
vt -0.060877 0.484741
vt 0.771406 0.255351
vt -0.060877 0.255351
vt -0.060877 0.255351
vt -0.890053 0.255350
vt -1.283352 0.310627
vt -0.936764 0.310627
vt -0.936764 0.368825
vt -1.283352 0.368825
vt 1.687571 0.309436
vt 1.687570 0.255351
vt 0.771406 0.255351
vt 1.687569 0.368957
vt 1.687570 0.427404
vt 0.771406 0.484741
vt 1.687570 0.484741
vt 1.739801 0.311954
vt 2.062576 0.311954
vt 2.062576 0.367768
vt 1.739801 0.367768
vt 0.771406 0.309436
vt -0.060877 0.309436
vt -0.060877 0.343923
vt 0.771406 0.343923
vt -0.890054 0.309436
vt -0.890054 0.343923
vt 0.771406 0.368957
vt -0.060877 0.368957
vt -0.060877 0.427404
vt 0.771406 0.427403
vt -0.890054 0.368957
vt -0.890054 0.427403
vt 0.771406 0.451519
vt -0.060877 0.451519
vt -0.060877 0.484741
vt 0.771406 0.484741
vt -0.060877 0.451519
vt -0.890053 0.451519
vt -0.890053 0.484741
vt -0.060877 0.484741
vt 0.771406 0.255351
vt -0.060877 0.255351
vt -0.060877 0.255351
vt -0.890053 0.255350
vt -1.283352 0.310627
vt -0.936764 0.310627
vt -0.936764 0.344347
vt -1.283352 0.344347
vt 1.687571 0.309436
vt 1.687570 0.255351
vt 0.771406 0.255351
vt 1.687570 0.343923
vt 1.687570 0.427404
vt 1.687569 0.368957
vt 0.771406 0.484741
vt 1.687570 0.484741
vt 1.687570 0.451519
vt 0.771406 0.451519
vt 1.739801 0.311954
vt 2.062576 0.311954
vt 2.062576 0.344293
vt 1.739801 0.344293
vt -0.936764 0.368825
vt -1.283352 0.368825
vt 2.062576 0.367768
vt 1.739801 0.367768
vt -0.077670 0.699576
vt -0.077670 0.673767
vt 0.865151 0.673767
vt 0.865151 0.699576
vt -0.077670 0.647958
vt 0.865151 0.647958
vt -0.077670 0.622149
vt 0.865151 0.622149
vt -0.077670 0.596340
vt 0.865151 0.596340
vt -0.077670 0.570532
vt 0.865151 0.570532
vt -0.077670 0.544723
vt 0.865151 0.544723
vt -0.077670 0.518914
vt 0.865151 0.518914
vt -0.077670 0.493105
vt 0.865151 0.493105
vt 0.848684 0.430656
vt -0.330987 0.430656
vt -0.330986 0.371135
vt 0.848684 0.371135
vt -1.506255 0.430656
vt -1.506255 0.371135
vt -0.330986 0.312688
vt 0.848684 0.312688
vt -1.506254 0.312688
vt -0.330986 0.255351
vt 0.848684 0.255350
vt -1.506254 0.255350
vt -0.330986 0.255351
vt 0.848684 0.484741
vt -0.330986 0.484741
vt -0.330986 0.484741
vt -1.506254 0.484741
vt 1.959410 0.430656
vt 1.959409 0.484741
vt 0.848684 0.484741
vt 1.959408 0.371134
vt 1.959409 0.312688
vt 0.848684 0.255350
vt 1.959409 0.255350
vt 2.221279 0.311954
vt 2.678777 0.311954
vt 2.678777 0.367768
vt 2.221279 0.367768
vt 0.003050 0.668354
vt 0.003050 0.650470
vt -0.799481 0.650470
vt -0.799481 0.668354
vt -0.799481 0.632586
vt 0.003049 0.632586
vt 0.805580 0.668354
vt 0.805580 0.650470
vt 0.805580 0.632586
vt 1.608110 0.668354
vt 1.608110 0.650470
vt 1.608110 0.632586
vt 0.003050 0.614702
vt -0.799481 0.614702
vt -0.799481 0.596817
vt 0.003049 0.596817
vt 0.805580 0.614702
vt 0.805580 0.596817
vt 1.608110 0.614702
vt 1.608110 0.596817
vt 0.003050 0.578933
vt -0.799481 0.578933
vt -0.799481 0.561049
vt 0.003049 0.561049
vt 0.805580 0.578933
vt 0.805580 0.561049
vt 1.608110 0.578933
vt 1.608110 0.561049
vt 0.003050 0.543165
vt -0.799481 0.543165
vt 0.003050 0.525281
vt -0.799481 0.525281
vt 0.805580 0.543165
vt 0.805580 0.525281
vt 1.608110 0.543165
vt 1.608110 0.525281
vt 1.443388 0.004033
vt 2.756431 0.004033
vt 2.099909 1.317077
vt 1.443388 0.004033
vt 2.756431 0.004033
vt 2.099909 1.317077
vt 1.443388 0.004033
vt 2.756431 0.004033
vt 2.099909 1.317077
vt 1.443388 0.004033
vt 2.756431 0.004033
vt 2.099909 1.317077
vt 1.443388 0.004033
vt 2.756431 0.004033
vt 2.099909 1.317077
vt 1.443388 0.004033
vt 2.756431 0.004033
vt 2.099909 1.317077
vt 1.443388 0.004033
vt 2.756431 0.004033
vt 2.099909 1.317077
vt 1.443388 0.004033
vt 2.756431 0.004033
vt 2.099909 1.317077
vt 0.058627 0.368532
vt 0.058627 0.311242
vt 0.658640 0.311242
vt 0.658640 0.368532
vt 0.658640 0.425823
vt 0.658640 0.483113
vt 0.058627 0.483113
vt 0.058627 0.425823
vt 0.058627 0.253952
vt 0.658640 0.253952
vt -0.077670 0.653714
vt -0.077670 0.627905
vt 0.865151 0.627905
vt 0.865151 0.653714
vt -0.077670 0.602096
vt 0.865151 0.602096
vt -0.077670 0.576288
vt 0.865151 0.576288
vt -0.077670 0.550479
vt 0.865151 0.550479
vt -0.077670 0.524670
vt 0.865151 0.524670
vt -0.077670 0.498861
vt 0.865151 0.498861
vt -0.077670 0.473052
vt 0.865151 0.473052
vt -0.077670 0.447243
vt 0.865151 0.447243
vt 0.086896 0.751121
vt 0.086896 0.772387
vt 0.015807 0.772387
vt 0.015807 0.751121
vt 0.584520 0.751121
vt 0.584520 0.772387
vt 0.513431 0.772387
vt 0.513431 0.751121
vt 0.442342 0.772387
vt 0.442342 0.751121
vt 0.371253 0.772387
vt 0.371253 0.751121
vt 0.300164 0.772387
vt 0.300164 0.751121
vt 0.229074 0.772387
vt 0.229074 0.751121
vt 0.157985 0.772387
vt 0.157985 0.751121
vt 0.086896 0.805950
vt 0.015807 0.805950
vt 0.584520 0.805950
vt 0.513431 0.805950
vt 0.442342 0.805950
vt 0.371253 0.805950
vt 0.300164 0.805950
vt 0.229074 0.805950
vt 0.157985 0.805950
vt 0.086896 0.814624
vt 0.015807 0.814624
vt 0.584520 0.814624
vt 0.513431 0.814624
vt 0.442342 0.814624
vt 0.371252 0.814624
vt 0.300164 0.814624
vt 0.229075 0.814624
vt 0.157985 0.814624
vt 0.086896 0.837379
vt 0.015807 0.837379
vt 0.584520 0.837379
vt 0.513431 0.837379
vt 0.442342 0.837379
vt 0.371252 0.837379
vt 0.300164 0.837379
vt 0.229074 0.837379
vt 0.157985 0.837379
vt 0.086896 0.847218
vt 0.015807 0.847218
vt 0.584520 0.847218
vt 0.513431 0.847218
vt 0.442342 0.847218
vt 0.371253 0.847218
vt 0.300164 0.847218
vt 0.229074 0.847218
vt 0.157985 0.847218
vt 0.086896 0.876972
vt 0.015807 0.876972
vt 0.584520 0.876972
vt 0.513431 0.876972
vt 0.442342 0.876972
vt 0.371253 0.876972
vt 0.300164 0.876972
vt 0.229074 0.876972
vt 0.157985 0.876972
vt 0.086896 0.907350
vt 0.015807 0.907350
vt 0.584520 0.907350
vt 0.513431 0.907350
vt 0.442342 0.907350
vt 0.371253 0.907350
vt 0.300164 0.907350
vt 0.229074 0.907350
vt 0.157985 0.907350
vt 0.656001 0.905093
vt 0.733623 0.862569
vt 0.794159 0.876306
vt 0.794159 0.936444
vt 0.854694 0.862569
vt 0.932317 0.905093
vt 0.879769 0.829406
vt 0.989544 0.829406
vt 0.854694 0.796243
vt 0.932317 0.753720
vt 0.794159 0.782507
vt 0.794159 0.722369
vt 0.733623 0.796243
vt 0.656001 0.753720
vt 0.708549 0.829406
vt 0.598774 0.830643
vt 0.794159 0.829406
vt 0.086896 0.751121
vt 0.086896 0.772387
vt 0.015807 0.772387
vt 0.015807 0.751121
vt 0.584520 0.751121
vt 0.584520 0.772387
vt 0.513431 0.772387
vt 0.513431 0.751121
vt 0.442342 0.772387
vt 0.442342 0.751121
vt 0.371253 0.772387
vt 0.371253 0.751121
vt 0.300164 0.772387
vt 0.300164 0.751121
vt 0.229074 0.772387
vt 0.229074 0.751121
vt 0.157985 0.772387
vt 0.157985 0.751121
vt 0.086896 0.805950
vt 0.015807 0.805950
vt 0.584520 0.805950
vt 0.513431 0.805950
vt 0.442342 0.805950
vt 0.371253 0.805950
vt 0.300164 0.805950
vt 0.229074 0.805950
vt 0.157985 0.805950
vt 0.086896 0.814624
vt 0.015807 0.814624
vt 0.584520 0.814624
vt 0.513431 0.814624
vt 0.442342 0.814624
vt 0.371252 0.814624
vt 0.300164 0.814624
vt 0.229075 0.814624
vt 0.157985 0.814624
vt 0.086896 0.837379
vt 0.015807 0.837379
vt 0.584520 0.837379
vt 0.513431 0.837379
vt 0.442342 0.837379
vt 0.371252 0.837379
vt 0.300164 0.837379
vt 0.229074 0.837379
vt 0.157985 0.837379
vt 0.086896 0.847218
vt 0.015807 0.847218
vt 0.584520 0.847218
vt 0.513431 0.847218
vt 0.442342 0.847218
vt 0.371253 0.847218
vt 0.300164 0.847218
vt 0.229074 0.847218
vt 0.157985 0.847218
vt 0.086896 0.876972
vt 0.015807 0.876972
vt 0.584520 0.876972
vt 0.513431 0.876972
vt 0.442342 0.876972
vt 0.371253 0.876972
vt 0.300164 0.876972
vt 0.229074 0.876972
vt 0.157985 0.876972
vt 0.086896 0.907350
vt 0.015807 0.907350
vt 0.584520 0.907350
vt 0.513431 0.907350
vt 0.442342 0.907350
vt 0.371253 0.907350
vt 0.300164 0.907350
vt 0.229074 0.907350
vt 0.157985 0.907350
vt 0.656001 0.905093
vt 0.733623 0.862569
vt 0.794159 0.876306
vt 0.794159 0.936444
vt 0.854694 0.862569
vt 0.932317 0.905093
vt 0.879769 0.829406
vt 0.989544 0.829406
vt 0.854694 0.796243
vt 0.932317 0.753720
vt 0.794159 0.782507
vt 0.794159 0.722369
vt 0.733623 0.796243
vt 0.656001 0.753720
vt 0.708549 0.829406
vt 0.598774 0.830643
vt 0.794159 0.829406
vt 0.658640 0.425823
vt 0.658640 0.457687
vt 0.058627 0.457688
vt 0.058627 0.425823
vt 0.058627 0.311242
vt 0.058627 0.253952
vt 0.658640 0.253952
vt 0.658640 0.311242
vt 0.058627 0.368532
vt 0.658640 0.368532
vt 0.058627 0.340071
vt 0.658640 0.340071
vt 0.771406 0.430656
vt -0.060877 0.430656
vt -0.060877 0.371135
vt 0.771406 0.371135
vt -0.890054 0.430656
vt -0.890054 0.371135
vt -0.060877 0.312688
vt 0.771406 0.312688
vt -0.890054 0.312688
vt -0.060877 0.255351
vt 0.771406 0.255351
vt -0.890053 0.255351
vt -0.060877 0.255351
vt 0.771406 0.484741
vt -0.060877 0.484741
vt -0.060877 0.484741
vt -0.890053 0.484741
vt -1.283352 0.429465
vt -0.936764 0.429465
vt -0.936764 0.371267
vt -1.283352 0.371267
vt 1.687571 0.430656
vt 1.687570 0.484741
vt 0.771406 0.484741
vt 1.687569 0.371135
vt 1.687570 0.312688
vt 0.771406 0.255351
vt 1.687570 0.255350
vt 1.739801 0.428138
vt 2.062576 0.428138
vt 2.062576 0.372323
vt 1.739801 0.372323
vt 0.771406 0.430656
vt -0.060877 0.430656
vt -0.060877 0.396169
vt 0.771406 0.396169
vt -0.890054 0.430656
vt -0.890054 0.396169
vt 0.771406 0.371135
vt -0.060877 0.371135
vt -0.060877 0.312688
vt 0.771406 0.312688
vt -0.890054 0.371135
vt -0.890054 0.312688
vt 0.771406 0.288572
vt -0.060877 0.288572
vt -0.060877 0.255351
vt 0.771406 0.255351
vt -0.060877 0.288572
vt -0.890053 0.288572
vt -0.890053 0.255351
vt -0.060877 0.255351
vt 0.771406 0.484741
vt -0.060877 0.484741
vt -0.060877 0.484741
vt -0.890053 0.484741
vt -1.283352 0.429465
vt -0.936764 0.429465
vt -0.936764 0.395745
vt -1.283352 0.395745
vt 1.687571 0.430656
vt 1.687570 0.484741
vt 0.771406 0.484741
vt 1.687570 0.396169
vt 1.687570 0.312688
vt 1.687569 0.371135
vt 0.771406 0.255351
vt 1.687570 0.255350
vt 1.687570 0.288572
vt 0.771406 0.288572
vt 1.739801 0.428138
vt 2.062576 0.428138
vt 2.062576 0.395799
vt 1.739801 0.395799
vt -0.936764 0.371267
vt -1.283352 0.371267
vt 2.062576 0.372323
vt 1.739801 0.372323
vt 0.227337 0.130515
vt 0.227337 0.023960
vt 2.599790 0.023954
vt 2.599790 0.130527
vt 2.599790 0.148100
vt 2.599788 0.254559
vt 0.227337 0.254579
vt 0.227337 0.148116
vt 0.227337 0.006386
vt 2.599789 0.006429
vt -0.661895 0.130515
vt -0.661895 0.023960
vt 1.710559 0.023954
vt 1.710559 0.130527
vt 1.710559 0.148100
vt 1.710557 0.254559
vt -0.661895 0.254579
vt -0.661895 0.148116
vt -0.661895 0.006386
vt 1.710557 0.006429
vt -0.661895 0.130515
vt -0.661895 0.023960
vt 1.710559 0.023954
vt 1.710559 0.130527
vt 1.710559 0.148100
vt 1.710557 0.254559
vt -0.661895 0.254579
vt -0.661895 0.148116
vt -0.661895 0.006386
vt 1.710557 0.006429
vt 0.227337 0.130515
vt 0.227337 0.023960
vt 2.599790 0.023954
vt 2.599790 0.130527
vt 2.599790 0.148100
vt 2.599788 0.254559
vt 0.227337 0.254579
vt 0.227337 0.148116
vt 0.227337 0.006386
vt 2.599789 0.006429
vt -0.062447 0.254605
vt -0.062447 0.148685
vt 2.309996 0.148673
vt 2.309996 0.254586
vt 2.309996 0.024329
vt 2.309995 0.130137
vt -0.062446 0.130156
vt -0.062447 0.024340
vt -0.062446 0.130890
vt 2.309996 0.130933
vt -0.062447 0.006535
vt 2.309995 0.006578
vt -0.927320 0.254937
vt -0.927320 0.148382
vt 1.445134 0.148370
vt 1.445132 0.254918
vt 1.445134 0.024020
vt 1.445132 0.130475
vt -0.927320 0.130494
vt -0.927320 0.024031
vt -0.927320 0.130808
vt 1.445132 0.130850
vt -0.927320 0.006430
vt 1.445132 0.006472
vt -0.062451 0.254937
vt -0.062451 0.148382
vt 2.310003 0.148370
vt 2.310001 0.254918
vt 2.310002 0.024020
vt 2.310001 0.130475
vt -0.062450 0.130494
vt -0.062450 0.024031
vt -0.062451 0.130808
vt 2.310002 0.130850
vt -0.062451 0.006430
vt 2.310001 0.006472
vt 0.227337 0.130515
vt 0.227337 0.023960
vt 2.599790 0.023954
vt 2.599790 0.130527
vt 2.599790 0.148100
vt 2.599788 0.254559
vt 0.227337 0.254579
vt 0.227337 0.148116
vt 0.227337 0.006386
vt 2.599789 0.006429
vt -0.661895 0.130515
vt -0.661895 0.023960
vt 1.710559 0.023954
vt 1.710559 0.130527
vt 1.710559 0.148100
vt 1.710557 0.254559
vt -0.661895 0.254579
vt -0.661895 0.148116
vt -0.661895 0.006386
vt 1.710557 0.006429
vt -0.927320 0.254937
vt -0.927320 0.148382
vt 1.445134 0.148370
vt 1.445132 0.254918
vt 1.445134 0.024020
vt 1.445132 0.130475
vt -0.927320 0.130494
vt -0.927320 0.024031
vt -0.927320 0.130808
vt 1.445132 0.130850
vt -0.927320 0.006430
vt 1.445132 0.006472
vt 0.658640 0.425823
vt 0.658640 0.457687
vt 0.058627 0.457688
vt 0.058627 0.425823
vt 0.058627 0.311242
vt 0.058627 0.253952
vt 0.658640 0.253952
vt 0.658640 0.311242
vt 0.058627 0.368532
vt 0.658640 0.368532
vt 0.058627 0.340071
vt 0.658640 0.340071
vn -1.000000 0.000000 0.000003
vn -0.707131 0.000000 0.707083
vn -0.707131 0.000000 0.707083
vn -1.000000 0.000000 0.000003
vn 0.000028 0.000000 1.000000
vn 0.000028 0.000000 1.000000
vn 0.707054 0.000000 0.707160
vn 0.707054 0.000000 0.707160
vn 1.000000 0.000000 0.000003
vn 1.000000 0.000000 0.000003
vn 0.707062 0.000000 -0.707151
vn 0.707062 0.000000 -0.707151
vn 0.000028 0.000000 -1.000000
vn 0.000028 0.000000 -1.000000
vn -0.707139 0.000000 -0.707074
vn -0.707139 0.000000 -0.707074
vn 1.000000 -0.000080 0.000663
vn 1.000000 -0.000092 0.000296
vn 1.000000 -0.000092 0.000296
vn 1.000000 -0.000080 0.000663
vn 0.999999 0.000026 -0.001135
vn 0.999999 0.000026 -0.001135
vn 0.000000 0.989205 0.146537
vn 0.000000 0.997306 0.073357
vn 0.000000 0.997306 0.073357
vn 0.000000 0.989205 0.146537
vn 0.000000 0.999395 0.034786
vn 0.000000 0.999395 0.034786
vn -1.000000 -0.000081 0.000663
vn -1.000000 -0.000052 0.000282
vn -1.000000 -0.000052 0.000282
vn -1.000000 -0.000081 0.000663
vn -0.999999 0.000078 -0.001155
vn -0.999999 0.000078 -0.001155
vn 0.000000 -0.989403 -0.145196
vn 0.000000 -0.997350 -0.072751
vn 0.000000 -0.997350 -0.072751
vn 0.000000 -0.989403 -0.145196
vn 0.000000 -0.999321 -0.036839
vn 0.000000 -0.999321 -0.036839
vn 0.000000 -0.983368 -0.181624
vn 0.000000 -0.983368 -0.181624
vn 1.000000 0.000051 -0.000402
vn 1.000000 0.000051 -0.000402
vn 0.000000 0.983469 0.181075
vn 0.000000 0.983469 0.181075
vn -1.000000 0.000021 -0.000392
vn -1.000000 0.000021 -0.000392
vn 0.000000 0.000000 -1.000000
vn 0.000000 0.000000 -1.000000
vn 0.000000 0.000000 -1.000000
vn 0.000000 0.000000 -1.000000
vn 0.700034 -0.706587 -0.103379
vn 1.000000 0.000039 -0.000003
vn 1.000000 -0.000006 -0.000003
vn 0.699841 -0.702700 -0.128200
vn 0.699832 0.702715 0.128168
vn 0.700004 0.706621 0.103355
vn 0.699997 -0.712244 -0.052088
vn 1.000000 0.000018 -0.000002
vn 0.699994 0.712247 0.052082
vn 0.699718 -0.713959 -0.025648
vn 1.000000 -0.000048 -0.000000
vn 0.699763 0.713915 0.025649
vn 0.000007 0.989472 0.144726
vn -0.000012 0.983772 0.179421
vn -0.699766 0.702781 0.128165
vn -0.700007 0.706618 0.103354
vn 0.000010 0.997337 0.072929
vn -0.700040 0.712202 0.052081
vn -0.000008 0.999355 0.035906
vn -0.699783 0.713895 0.025650
vn -1.000000 -0.000008 -0.000002
vn -1.000000 0.000028 -0.000004
vn -0.699777 -0.702766 -0.128184
vn -0.700006 -0.706615 -0.103374
vn -1.000000 0.000007 -0.000001
vn -0.700050 -0.712192 -0.052093
vn -1.000000 0.000060 -0.000001
vn -0.699814 -0.713865 -0.025651
vn 0.000003 -0.989467 -0.144761
vn 0.000019 -0.983765 -0.179463
vn -0.000010 -0.997336 -0.072943
vn -0.000007 -0.999355 -0.035905
vn 0.000000 0.000000 -1.000000
vn 0.000000 0.000000 -1.000000
vn 0.000000 0.000000 -1.000000
vn -0.000003 0.000000 -1.000000
vn 0.000000 0.000000 -1.000000
vn 0.000003 0.000000 -1.000000
vn 0.000000 0.000000 -1.000000
vn 0.000000 0.000000 -1.000000
vn 0.000000 0.000000 -1.000000
vn 1.000000 0.000000 0.000000
vn 1.000000 0.000000 0.000000
vn 1.000000 0.000000 0.000000
vn 1.000000 0.000000 0.000000
vn -1.000000 0.000000 0.000000
vn -1.000000 0.000000 0.000000
vn -1.000000 0.000000 0.000000
vn -1.000000 0.000000 0.000000
vn 0.000000 0.000000 -1.000000
vn 0.000000 0.000000 -1.000000
vn 0.000000 0.000000 -1.000000
vn 0.000000 0.000000 -1.000000
vn 0.000000 0.000000 1.000000
vn 0.000000 0.000000 1.000000
vn 0.000000 0.000000 1.000000
vn 0.000000 0.000000 1.000000
vn -0.707133 0.000000 -0.707080
vn -1.000000 0.000000 0.000002
vn -1.000000 0.000000 0.000002
vn -0.707133 0.000000 -0.707080
vn -0.707132 0.000000 0.707082
vn -0.707132 0.000000 0.707082
vn 0.000028 0.000000 1.000000
vn 0.000028 0.000000 1.000000
vn 0.707055 0.000000 0.707159
vn 0.707055 0.000000 0.707159
vn 1.000000 0.000000 0.000002
vn 1.000000 0.000000 0.000002
vn 0.707056 0.000000 -0.707157
vn 0.707056 0.000000 -0.707157
vn 0.000028 0.000000 -1.000000
vn 0.000028 0.000000 -1.000000
vn -0.363015 -0.858152 -0.363036
vn -0.633860 -0.443209 -0.633867
vn 0.000015 -0.443218 -0.896414
vn 0.000014 -0.858111 -0.513464
vn 0.633851 -0.443239 -0.633855
vn 0.363085 -0.858098 -0.363094
vn 0.896389 -0.443269 0.000000
vn 0.513480 -0.858101 -0.000001
vn 0.633848 -0.443240 0.633857
vn 0.363082 -0.858100 0.363093
vn 0.000015 -0.443218 0.896414
vn 0.000014 -0.858111 0.513464
vn -0.633858 -0.443210 0.633868
vn -0.363012 -0.858154 0.363035
vn -0.896441 -0.443164 0.000000
vn -0.513361 -0.858173 -0.000001
vn -0.529106 0.663384 -0.529121
vn 0.000006 0.663314 -0.748342
vn 0.529169 0.663302 -0.529161
vn 0.748375 0.663275 -0.000002
vn 0.529167 0.663304 0.529160
vn 0.000006 0.663313 0.748342
vn -0.529120 0.663369 0.529126
vn -0.748248 0.663419 0.000010
vn -0.475437 0.740189 -0.475478
vn -0.000011 0.740210 -0.672375
vn 0.475471 0.740211 -0.475411
vn 0.672427 0.740163 -0.000001
vn 0.475478 0.740197 0.475425
vn -0.000008 0.740195 0.672392
vn -0.475423 0.740207 0.475465
vn -0.672365 0.740220 0.000002
vn -0.491178 0.719354 -0.491197
vn -0.000003 0.719367 -0.694630
vn 0.491163 0.719393 -0.491155
vn 0.694601 0.719395 0.000002
vn 0.491162 0.719398 0.491148
vn -0.000019 0.719358 0.694640
vn -0.491151 0.719374 0.491195
vn -0.694609 0.719388 -0.000006
vn -0.698255 0.157901 -0.698217
vn 0.000017 0.157872 -0.987460
vn 0.698202 0.157926 -0.698265
vn 0.987443 0.157973 0.000010
vn 0.698205 0.157983 0.698248
vn -0.000018 0.157911 0.987453
vn -0.698239 0.157906 0.698232
vn -0.987449 0.157939 0.000011
vn -0.510781 -0.691543 -0.510755
vn 0.000002 -0.691519 -0.722358
vn 0.510775 -0.691543 -0.510762
vn 0.722343 -0.691535 0.000013
vn 0.510806 -0.691506 0.510781
vn 0.000002 -0.691514 0.722363
vn -0.510787 -0.691534 0.510763
vn -0.722361 -0.691516 0.000006
vn -0.677957 0.284209 -0.677937
vn 0.000003 0.284238 -0.958754
vn 0.677953 0.284209 -0.677942
vn 0.958766 0.284196 0.000014
vn 0.677955 0.284232 0.677930
vn 0.000006 0.284213 0.958761
vn -0.677960 0.284198 0.677940
vn -0.958764 0.284202 0.000001
vn -0.378345 0.844793 -0.378391
vn -0.000037 0.844833 -0.535030
vn 0.378365 0.844832 -0.378285
vn 0.535155 0.844754 0.000008
vn 0.378384 0.844817 0.378299
vn -0.000035 0.844830 0.535034
vn -0.378342 0.844794 0.378391
vn -0.535042 0.844825 0.000001
vn 0.000030 1.000000 0.000006
vn -0.513359 -0.858174 0.000020
vn -0.896418 -0.443209 0.000032
vn -0.633859 -0.443208 -0.633869
vn -0.363016 -0.858151 -0.363037
vn 0.000018 -0.443208 -0.896419
vn 0.000018 -0.858101 -0.513481
vn 0.633852 -0.443205 -0.633877
vn 0.363062 -0.858107 -0.363096
vn 0.896405 -0.443236 -0.000004
vn 0.513389 -0.858156 -0.000011
vn 0.633849 -0.443211 0.633877
vn 0.363032 -0.858125 0.363082
vn 0.000003 -0.443172 0.896437
vn 0.000002 -0.858084 0.513510
vn -0.633848 -0.443211 0.633877
vn -0.363032 -0.858125 0.363082
vn -0.748281 0.663382 0.000010
vn -0.529120 0.663373 -0.529120
vn 0.000011 0.663318 -0.748338
vn 0.529131 0.663348 -0.529141
vn 0.748306 0.663354 0.000012
vn 0.529145 0.663346 0.529128
vn -0.000007 0.663332 0.748326
vn -0.529129 0.663341 0.529152
vn -0.672368 0.740217 -0.000002
vn -0.475430 0.740197 -0.475473
vn -0.000004 0.740185 -0.672403
vn 0.475462 0.740208 -0.475424
vn 0.672381 0.740206 -0.000002
vn 0.475451 0.740231 0.475400
vn -0.000020 0.740178 0.672411
vn -0.475451 0.740164 0.475503
vn -0.694612 0.719385 0.000005
vn -0.491161 0.719359 -0.491206
vn -0.000016 0.719344 -0.694654
vn 0.491164 0.719395 -0.491151
vn 0.694598 0.719398 0.000005
vn 0.491167 0.719400 0.491140
vn -0.000015 0.719350 0.694647
vn -0.491184 0.719336 0.491216
vn -0.987450 0.157930 0.000009
vn -0.698251 0.157880 -0.698226
vn -0.000019 0.157866 -0.987460
vn 0.698229 0.157962 -0.698229
vn 0.987447 0.157951 0.000022
vn 0.698251 0.157888 0.698224
vn -0.000032 0.157884 0.987458
vn -0.698239 0.157924 0.698228
vn -0.722347 -0.691530 0.000002
vn -0.510784 -0.691537 -0.510760
vn -0.000008 -0.691532 -0.722346
vn 0.510776 -0.691563 -0.510734
vn 0.722332 -0.691546 0.000019
vn 0.510788 -0.691536 0.510757
vn -0.000010 -0.691512 0.722365
vn -0.510781 -0.691531 0.510772
vn -0.958770 0.284184 -0.000004
vn -0.677952 0.284221 -0.677937
vn -0.000006 0.284229 -0.958757
vn 0.677955 0.284197 -0.677945
vn 0.958772 0.284176 0.000059
vn 0.677949 0.284238 0.677934
vn 0.000009 0.284260 0.958747
vn -0.677951 0.284200 0.677948
vn -0.535068 0.844809 0.000009
vn -0.378348 0.844791 -0.378393
vn -0.000037 0.844828 -0.535038
vn 0.378368 0.844829 -0.378288
vn 0.535158 0.844752 0.000017
vn 0.378400 0.844808 0.378304
vn -0.000015 0.844846 0.535009
vn -0.378355 0.844798 0.378371
vn 0.000041 1.000000 -0.000008
vn 1.000000 0.000000 0.000000
vn 1.000000 0.000007 0.000000
vn 1.000000 0.000007 0.000000
vn 1.000000 0.000000 0.000000
vn 1.000000 0.000012 0.000000
vn 1.000000 0.000012 0.000000
vn 0.000000 0.986776 0.162091
vn 0.000000 0.996816 0.079736
vn 0.000000 0.996816 0.079736
vn 0.000000 0.986776 0.162091
vn 0.000000 0.999229 0.039260
vn 0.000000 0.999229 0.039260
vn -1.000000 0.000019 0.000000
vn -1.000000 0.000004 0.000000
vn -1.000000 0.000004 0.000000
vn -1.000000 0.000019 0.000000
vn -1.000000 -0.000021 0.000000
vn -1.000000 -0.000021 0.000000
vn 0.000000 -0.986776 -0.162090
vn 0.000000 -0.996816 -0.079731
vn 0.000000 -0.996816 -0.079731
vn 0.000000 -0.986776 -0.162090
vn 0.000000 -0.999229 -0.039250
vn 0.000000 -0.999229 -0.039250
vn 0.000000 -0.247412 0.968911
vn 0.000000 -0.247412 0.968911
vn 0.000000 -0.247412 0.968911
vn 0.000000 -0.247412 0.968911
vn 0.000000 -0.979011 -0.203808
vn 0.000000 -0.979011 -0.203808
vn 1.000000 -0.000001 0.000000
vn 1.000000 -0.000001 0.000000
vn 0.000000 0.979011 0.203810
vn 0.000000 0.979011 0.203810
vn -1.000000 0.000010 0.000000
vn -1.000000 0.000010 0.000000
vn 0.000000 0.000000 -1.000000
vn 0.000000 0.000000 -1.000000
vn 0.000000 0.000000 -1.000000
vn 0.000000 0.000000 -1.000000
vn 1.000000 0.000034 0.000000
vn 1.000000 0.000006 0.000000
vn 0.993843 0.110457 0.008679
vn 0.993840 0.109358 0.017952
vn 1.000000 -0.000038 0.000000
vn 0.993835 0.110802 0.003885
vn 0.000000 0.986788 0.162017
vn 0.000000 0.996926 0.078351
vn 0.000000 0.996926 0.078351
vn 0.000000 0.986788 0.162017
vn 0.000000 0.999386 0.035051
vn 0.000000 0.999386 0.035051
vn -0.993844 0.109325 0.017952
vn -0.993844 0.110445 0.008679
vn -1.000000 -0.000009 0.000000
vn -1.000000 -0.000033 0.000000
vn -0.993833 0.110822 0.003885
vn -1.000000 0.000023 0.000000
vn 0.000000 -0.986788 -0.162018
vn 0.000000 -0.996928 -0.078329
vn 0.000000 -0.996928 -0.078329
vn 0.000000 -0.986788 -0.162018
vn 0.000000 -0.999388 -0.034992
vn 0.000000 -0.999388 -0.034992
vn 0.000000 -0.247405 0.968912
vn 0.000000 -0.247405 0.968912
vn 0.000000 -0.247405 0.968912
vn 0.000000 -0.247405 0.968912
vn 0.000000 -0.979335 -0.202246
vn 0.000000 -0.979335 -0.202246
vn 0.993832 0.108604 0.022431
vn 1.000000 0.000019 0.000000
vn 0.000000 0.979332 0.202259
vn 0.000000 0.979332 0.202259
vn -1.000000 -0.000025 0.000000
vn -0.993834 0.108582 0.022431
vn 0.000000 0.000000 -1.000000
vn 0.000000 0.000000 -1.000000
vn 0.000000 0.000000 -1.000000
vn 0.000000 0.000000 -1.000000
vn 0.000000 -0.247406 0.968912
vn 0.000000 -0.247406 0.968912
vn -0.975408 0.215850 0.044586
vn -0.975443 0.217341 0.035684
vn -0.975450 0.219545 0.017251
vn -0.975412 0.220255 0.007722
vn 0.000000 0.000000 -1.000000
vn 0.000000 0.000000 -1.000000
vn 0.975407 0.220274 0.007722
vn 0.975448 0.219554 0.017251
vn 0.975443 0.217341 0.035684
vn 0.975408 0.215851 0.044586
vn 0.000085 0.000000 -1.000000
vn -0.707117 0.000000 -0.707097
vn -0.707117 0.000000 -0.707097
vn 0.000085 0.000000 -1.000000
vn -1.000000 0.000000 -0.000004
vn -1.000000 0.000000 -0.000004
vn -0.707113 0.000000 0.707100
vn -0.707113 0.000000 0.707100
vn 0.000085 0.000000 1.000000
vn 0.000085 0.000000 1.000000
vn 0.707074 0.000000 0.707140
vn 0.707074 0.000000 0.707140
vn 1.000000 0.000000 0.000003
vn 1.000000 0.000000 0.000003
vn 0.707083 0.000000 -0.707131
vn 0.707083 0.000000 -0.707131
vn 1.000000 -0.000080 0.000663
vn 1.000000 -0.000069 0.000292
vn 1.000000 -0.000069 0.000292
vn 1.000000 -0.000080 0.000663
vn 0.999999 0.000086 -0.001135
vn 0.999999 0.000086 -0.001135
vn 0.000000 0.989205 0.146541
vn 0.000000 0.997306 0.073360
vn 0.000000 0.997306 0.073360
vn 0.000000 0.989205 0.146541
vn 0.000000 0.999395 0.034784
vn 0.000000 0.999395 0.034784
vn -1.000000 -0.000024 0.000663
vn -1.000000 -0.000075 0.000287
vn -1.000000 -0.000075 0.000287
vn -1.000000 -0.000024 0.000663
vn -0.999999 0.000017 -0.001145
vn -0.999999 0.000017 -0.001145
vn 0.000000 -0.989403 -0.145192
vn 0.000000 -0.997350 -0.072751
vn 0.000000 -0.997350 -0.072751
vn 0.000000 -0.989403 -0.145192
vn 0.000000 -0.999321 -0.036838
vn 0.000000 -0.999321 -0.036838
vn 0.000000 -0.983369 -0.181617
vn 0.000000 -0.983369 -0.181617
vn 1.000000 0.000066 -0.000392
vn 1.000000 0.000066 -0.000392
vn 0.000000 0.983469 0.181077
vn 0.000000 0.983469 0.181077
vn -1.000000 0.000120 -0.000392
vn -1.000000 0.000120 -0.000392
vn 0.000000 0.000000 -1.000000
vn 0.000000 0.000000 -1.000000
vn 0.000000 0.000000 -1.000000
vn 0.000000 0.000000 -1.000000
vn 0.700118 -0.706507 -0.103355
vn 1.000000 0.000007 -0.000002
vn 1.000000 -0.000005 -0.000003
vn 0.699890 -0.702659 -0.128159
vn 0.699904 0.702647 0.128145
vn 0.700122 0.706505 0.103342
vn 0.700148 -0.712096 -0.052085
vn 1.000000 0.000018 -0.000001
vn 0.700135 0.712108 0.052078
vn 0.699899 -0.713782 -0.025649
vn 1.000000 0.000017 -0.000000
vn 0.699880 0.713800 0.025646
vn 0.000030 0.989472 0.144726
vn 0.000038 0.983775 0.179404
vn -0.699805 0.702743 0.128160
vn -0.699991 0.706633 0.103353
vn 0.000035 0.997337 0.072936
vn -0.700004 0.712237 0.052084
vn 0.000048 0.999355 0.035904
vn -0.699780 0.713898 0.025648
vn -1.000000 0.000058 -0.000003
vn -1.000000 0.000022 -0.000003
vn -0.699831 -0.702711 -0.128193
vn -0.700031 -0.706590 -0.103377
vn -1.000000 0.000037 -0.000002
vn -0.700023 -0.712218 -0.052090
vn -1.000000 -0.000020 -0.000000
vn -0.699765 -0.713913 -0.025649
vn 0.000019 -0.989468 -0.144750
vn 0.000008 -0.983769 -0.179442
vn 0.000045 -0.997336 -0.072944
vn 0.000059 -0.999355 -0.035908
vn 0.000000 0.000000 -1.000000
vn 0.000000 0.000000 -1.000000
vn -0.000000 0.000000 -1.000000
vn -0.000003 0.000000 -1.000000
vn -0.000000 0.000000 -1.000000
vn 0.000003 0.000000 -1.000000
vn 0.000000 0.000000 -1.000000
vn 0.000000 0.000000 -1.000000
vn 0.000000 0.000000 -1.000000
vn 1.000000 0.000000 0.000000
vn 1.000000 0.000000 0.000000
vn 1.000000 0.000000 0.000000
vn 1.000000 0.000000 0.000000
vn -1.000000 0.000000 0.000000
vn -1.000000 0.000000 0.000000
vn -1.000000 0.000000 0.000000
vn -1.000000 0.000000 0.000000
vn 0.000000 0.000000 -1.000000
vn 0.000000 0.000000 -1.000000
vn 0.000000 0.000000 -1.000000
vn 0.000000 0.000000 -1.000000
vn 0.000000 0.000000 1.000000
vn 0.000000 0.000000 1.000000
vn 0.000000 0.000000 1.000000
vn 0.000000 0.000000 1.000000
vn 0.707073 0.000000 -0.707140
vn 0.000085 0.000000 -1.000000
vn 0.000085 0.000000 -1.000000
vn 0.707073 0.000000 -0.707140
vn -0.707110 0.000000 -0.707104
vn -0.707110 0.000000 -0.707104
vn -1.000000 0.000000 0.000000
vn -1.000000 0.000000 0.000000
vn -0.707110 0.000000 0.707104
vn -0.707110 0.000000 0.707104
vn 0.000085 0.000000 1.000000
vn 0.000085 0.000000 1.000000
vn 0.707073 0.000000 0.707140
vn 0.707073 0.000000 0.707140
vn 1.000000 0.000000 0.000000
vn 1.000000 0.000000 0.000000
vn 0.363097 -0.858107 -0.363061
vn 0.633902 -0.443190 -0.633838
vn 0.896433 -0.443180 -0.000001
vn 0.513479 -0.858102 -0.000001
vn 0.633896 -0.443201 0.633836
vn 0.363095 -0.858108 0.363060
vn 0.000024 -0.443215 0.896416
vn 0.000018 -0.858110 0.513466
vn -0.633872 -0.443164 0.633887
vn -0.363135 -0.858067 0.363118
vn -0.896452 -0.443141 0.000007
vn -0.513569 -0.858048 0.000011
vn -0.633867 -0.443169 -0.633888
vn -0.363108 -0.858084 -0.363106
vn 0.000024 -0.443194 -0.896426
vn 0.000018 -0.858110 -0.513466
vn 0.529175 0.663337 -0.529111
vn 0.748348 0.663307 0.000000
vn 0.529179 0.663328 0.529117
vn 0.000013 0.663326 0.748330
vn -0.529131 0.663324 0.529171
vn -0.748312 0.663346 0.000000
vn -0.529129 0.663324 -0.529173
vn 0.000009 0.663336 -0.748322
vn 0.475465 0.740216 -0.475408
vn 0.672385 0.740201 0.000000
vn 0.475456 0.740232 0.475393
vn 0.000019 0.740214 0.672372
vn -0.475451 0.740174 0.475488
vn -0.672386 0.740201 0.000009
vn -0.475424 0.740198 -0.475477
vn 0.000018 0.740191 -0.672396
vn 0.491175 0.719406 -0.491123
vn 0.694586 0.719410 0.000000
vn 0.491170 0.719409 0.491124
vn 0.000044 0.719387 0.694610
vn -0.491164 0.719364 0.491196
vn -0.694616 0.719381 0.000009
vn -0.491145 0.719369 -0.491207
vn 0.000024 0.719357 -0.694641
vn 0.698254 0.157935 -0.698210
vn 0.987449 0.157937 0.000002
vn 0.698251 0.157899 0.698221
vn 0.000073 0.157914 0.987453
vn -0.698187 0.157903 0.698285
vn -0.987461 0.157862 -0.000007
vn -0.698177 0.157876 -0.698301
vn 0.000039 0.157907 -0.987454
vn 0.510763 -0.691546 -0.510769
vn 0.722311 -0.691568 0.000006
vn 0.510770 -0.691542 0.510767
vn 0.000026 -0.691535 0.722343
vn -0.510722 -0.691559 0.510793
vn -0.722279 -0.691602 -0.000004
vn -0.510732 -0.691549 -0.510796
vn 0.000031 -0.691526 -0.722352
vn 0.677962 0.284161 -0.677953
vn 0.958777 0.284159 0.000007
vn 0.677962 0.284180 0.677945
vn 0.000022 0.284185 0.958770
vn -0.677912 0.284167 0.678000
vn -0.958774 0.284169 -0.000000
vn -0.677914 0.284178 -0.677994
vn 0.000027 0.284195 -0.958767
vn 0.378401 0.844806 -0.378307
vn 0.535133 0.844768 -0.000000
vn 0.378400 0.844806 0.378307
vn 0.000028 0.844828 0.535038
vn -0.378308 0.844815 0.378380
vn -0.535042 0.844825 -0.000001
vn -0.378310 0.844813 -0.378383
vn 0.000027 0.844826 -0.535041
vn 0.000099 1.000000 -0.000006
vn 0.000002 -0.858100 -0.513483
vn 0.000013 -0.443194 -0.896426
vn 0.633909 -0.443182 -0.633837
vn 0.363118 -0.858098 -0.363061
vn 0.896453 -0.443139 -0.000018
vn 0.513479 -0.858103 -0.000025
vn 0.633901 -0.443166 0.633856
vn 0.363075 -0.858115 0.363063
vn 0.000031 -0.443193 0.896426
vn 0.000027 -0.858109 0.513468
vn -0.633882 -0.443150 0.633886
vn -0.363130 -0.858075 0.363104
vn -0.896440 -0.443166 -0.000000
vn -0.513598 -0.858031 0.000001
vn -0.633860 -0.443188 -0.633882
vn -0.363150 -0.858047 -0.363149
vn 0.000020 0.663331 -0.748326
vn 0.529162 0.663341 -0.529119
vn 0.748323 0.663335 0.000016
vn 0.529180 0.663334 0.529110
vn 0.000015 0.663326 0.748331
vn -0.529112 0.663343 0.529165
vn -0.748320 0.663338 -0.000001
vn -0.529139 0.663309 -0.529181
vn 0.000026 0.740182 -0.672406
vn 0.475427 0.740251 -0.475393
vn 0.672354 0.740230 0.000025
vn 0.475477 0.740209 0.475408
vn 0.000022 0.740215 0.672371
vn -0.475430 0.740194 0.475478
vn -0.672426 0.740164 -0.000008
vn -0.475475 0.740145 -0.475509
vn 0.000022 0.719332 -0.694667
vn 0.491215 0.719379 -0.491123
vn 0.694639 0.719359 -0.000006
vn 0.491200 0.719380 0.491137
vn 0.000039 0.719386 0.694611
vn -0.491161 0.719363 0.491200
vn -0.694685 0.719314 0.000004
vn -0.491216 0.719284 -0.491261
vn 0.000083 0.157870 -0.987460
vn 0.698305 0.157871 -0.698174
vn 0.987466 0.157833 -0.000025
vn 0.698265 0.157883 0.698211
vn 0.000075 0.157896 0.987456
vn -0.698181 0.157863 0.698299
vn -0.987457 0.157891 0.000021
vn -0.698219 0.157875 -0.698259
vn 0.000047 -0.691530 -0.722347
vn 0.510765 -0.691540 -0.510775
vn 0.722303 -0.691577 0.000006
vn 0.510770 -0.691535 0.510777
vn 0.000033 -0.691528 0.722350
vn -0.510719 -0.691567 0.510785
vn -0.722306 -0.691574 0.000001
vn -0.510758 -0.691541 -0.510781
vn 0.000008 0.284218 -0.958760
vn 0.677965 0.284160 -0.677951
vn 0.958788 0.284122 0.000009
vn 0.677962 0.284167 0.677950
vn 0.000021 0.284208 0.958763
vn -0.677917 0.284183 0.677988
vn -0.958773 0.284172 0.000002
vn -0.677910 0.284185 -0.677995
vn 0.000008 0.844837 -0.535023
vn 0.378390 0.844826 -0.378273
vn 0.535115 0.844779 -0.000006
vn 0.378387 0.844814 0.378303
vn 0.000028 0.844831 0.535033
vn -0.378312 0.844819 0.378367
vn -0.535041 0.844826 0.000000
vn -0.378315 0.844803 -0.378399
vn 0.000081 1.000000 -0.000000
vn -1.000000 0.000000 0.000000
vn -1.000000 0.000000 0.000000
vn -1.000000 0.000000 0.000000
vn -1.000000 0.000000 0.000000
vn 0.000000 0.000000 -1.000000
vn 0.000000 0.000000 -1.000000
vn 0.000000 0.000000 -1.000000
vn 0.000000 0.000000 -1.000000
vn 0.000000 0.000000 1.000000
vn 0.000000 0.000000 1.000000
vn 0.000000 0.000000 1.000000
vn 0.000000 0.000000 1.000000
vn 1.000000 0.000000 0.000000
vn 1.000000 0.000000 0.000000
vn 1.000000 0.000000 0.000000
vn 1.000000 0.000000 0.000000
vn 1.000000 0.000018 0.000000
vn 1.000000 0.000017 0.000000
vn 1.000000 0.000017 0.000000
vn 1.000000 0.000018 0.000000
vn 1.000000 0.000027 0.000000
vn 1.000000 0.000027 0.000000
vn 0.000000 0.986776 0.162088
vn 0.000000 0.996816 0.079735
vn 0.000000 0.996816 0.079735
vn 0.000000 0.986776 0.162088
vn 0.000000 0.999229 0.039260
vn 0.000000 0.999229 0.039260
vn -1.000000 -0.000019 0.000000
vn -1.000000 -0.000009 0.000000
vn -1.000000 -0.000009 0.000000
vn -1.000000 -0.000019 0.000000
vn -1.000000 0.000002 0.000000
vn -1.000000 0.000002 0.000000
vn 0.000000 -0.986776 -0.162087
vn 0.000000 -0.996817 -0.079729
vn 0.000000 -0.996817 -0.079729
vn 0.000000 -0.986776 -0.162087
vn 0.000000 -0.999229 -0.039250
vn 0.000000 -0.999229 -0.039250
vn 0.000000 -0.247416 0.968909
vn 0.000000 -0.247416 0.968909
vn 0.000000 -0.247416 0.968909
vn 0.000000 -0.247416 0.968909
vn 0.000000 -0.979012 -0.203804
vn 0.000000 -0.979012 -0.203804
vn 1.000000 0.000029 0.000000
vn 1.000000 0.000029 0.000000
vn 0.000000 0.979011 0.203806
vn 0.000000 0.979011 0.203806
vn -1.000000 -0.000018 0.000000
vn -1.000000 -0.000018 0.000000
vn 0.000000 0.000000 -1.000000
vn 0.000000 0.000000 -1.000000
vn 0.000000 0.000000 -1.000000
vn 0.000000 0.000000 -1.000000
vn 1.000000 0.000034 0.000000
vn 1.000000 0.000004 0.000000
vn 0.993851 0.110389 0.008673
vn 0.993850 0.109273 0.017941
vn 1.000000 -0.000037 0.000000
vn 0.993841 0.110751 0.003883
vn 0.000000 0.986787 0.162022
vn 0.000000 0.996926 0.078352
vn 0.000000 0.996926 0.078352
vn 0.000000 0.986787 0.162022
vn 0.000000 0.999385 0.035052
vn 0.000000 0.999385 0.035052
vn -0.993840 0.109358 0.017952
vn -0.993842 0.110462 0.008679
vn -1.000000 0.000026 0.000000
vn -1.000000 0.000033 0.000000
vn -0.993832 0.110828 0.003885
vn -1.000000 0.000022 0.000000
vn 0.000000 -0.986788 -0.162017
vn 0.000000 -0.996928 -0.078329
vn 0.000000 -0.996928 -0.078329
vn 0.000000 -0.986788 -0.162017
vn 0.000000 -0.999388 -0.034991
vn 0.000000 -0.999388 -0.034991
vn 0.000000 -0.247407 0.968912
vn 0.000000 -0.247407 0.968912
vn 0.000000 -0.247404 0.968912
vn 0.000000 -0.247404 0.968912
vn 0.000000 -0.979335 -0.202244
vn 0.000000 -0.979335 -0.202244
vn 0.993842 0.108520 0.022417
vn 1.000000 0.000022 0.000000
vn 0.000000 0.979331 0.202267
vn 0.000000 0.979331 0.202267
vn -1.000000 0.000036 0.000000
vn -0.993830 0.108619 0.022431
vn 0.000000 0.000000 -1.000000
vn 0.000000 0.000000 -1.000000
vn 0.000000 0.000000 -1.000000
vn 0.000000 0.000000 -1.000000
vn 0.000000 -0.247401 0.968913
vn 0.000000 -0.247401 0.968913
vn -0.975405 0.215862 0.044586
vn -0.975443 0.217340 0.035684
vn -0.975450 0.219544 0.017251
vn -0.975409 0.220268 0.007722
vn 0.000000 0.000000 -1.000000
vn 0.000000 0.000000 -1.000000
vn 0.975430 0.220173 0.007717
vn 0.975478 0.219420 0.017240
vn 0.975482 0.217173 0.035661
vn 0.975447 0.215682 0.044558
vn 0.000000 0.994073 0.108712
vn 0.000000 0.994073 0.108712
vn 0.000000 0.994073 0.108712
vn 0.000000 0.994073 0.108712
vn 0.000000 -0.994073 -0.108712
vn 0.000000 -0.994073 -0.108712
vn 0.000000 -0.994073 -0.108712
vn 0.000000 -0.994073 -0.108712
vn 0.000000 0.098773 -0.995110
vn 0.000000 0.098773 -0.995110
vn 0.000000 0.098773 -0.995110
vn 0.000000 0.098773 -0.995110
vn 0.000000 -0.122090 0.992519
vn 0.000000 -0.122090 0.992519
vn 0.000000 -0.122090 0.992519
vn 0.000000 -0.122090 0.992519
vn 0.000000 0.991126 0.132925
vn 0.000000 0.991126 0.132925
vn 0.000000 0.991126 0.132925
vn 0.000000 0.991126 0.132925
vn 0.000000 -0.991126 -0.132924
vn 0.000000 -0.991126 -0.132924
vn 0.000000 -0.991126 -0.132924
vn 0.000000 -0.991126 -0.132924
vn 0.000000 0.123380 -0.992360
vn 0.000000 0.123380 -0.992360
vn 0.000000 0.123380 -0.992360
vn 0.000000 0.123380 -0.992360
vn 0.000000 -0.146630 0.989191
vn 0.000000 -0.146630 0.989191
vn 0.000000 -0.146630 0.989191
vn 0.000000 -0.146630 0.989191
vn 0.000000 0.983463 0.181107
vn 0.000000 0.983463 0.181107
vn 0.000000 0.983463 0.181107
vn 0.000000 0.983463 0.181107
vn 0.000000 -0.983463 -0.181108
vn 0.000000 -0.983463 -0.181108
vn 0.000000 -0.983463 -0.181108
vn 0.000000 -0.983463 -0.181108
vn 0.000000 0.172374 -0.985031
vn 0.000000 0.172374 -0.985031
vn 0.000000 0.172374 -0.985031
vn 0.000000 0.172374 -0.985031
vn 0.000000 -0.195444 0.980715
vn 0.000000 -0.195444 0.980715
vn 0.000000 -0.195444 0.980715
vn 0.000000 -0.195444 0.980715
vn 0.000000 0.978654 0.205516
vn 0.000000 0.978654 0.205516
vn 0.000000 0.978654 0.205516
vn 0.000000 0.978654 0.205516
vn 0.000000 -0.978654 -0.205517
vn 0.000000 -0.978654 -0.205517
vn 0.000000 -0.978654 -0.205517
vn 0.000000 -0.978654 -0.205517
vn 0.000000 0.197194 -0.980365
vn 0.000000 0.197194 -0.980365
vn 0.000000 0.197194 -0.980365
vn 0.000000 0.197194 -0.980365
vn 0.000000 -0.220149 0.975466
vn 0.000000 -0.220149 0.975466
vn 0.000000 -0.220149 0.975466
vn 0.000000 -0.220149 0.975466
vn 0.000000 0.972707 0.232038
vn 0.000000 0.972707 0.232038
vn 0.000000 0.972707 0.232038
vn 0.000000 0.972707 0.232038
vn 0.000000 -0.972706 -0.232040
vn 0.000000 -0.972706 -0.232040
vn 0.000000 -0.972706 -0.232040
vn 0.000000 -0.972706 -0.232040
vn 0.000000 0.224153 -0.974554
vn 0.000000 0.224153 -0.974554
vn 0.000000 0.224153 -0.974554
vn 0.000000 0.224153 -0.974554
vn 0.000000 -0.246975 0.969022
vn 0.000000 -0.246975 0.969022
vn 0.000000 -0.246975 0.969022
vn 0.000000 -0.246975 0.969022
vn 0.000000 0.987589 0.157061
vn 0.000000 0.987589 0.157061
vn 0.000000 0.987589 0.157061
vn 0.000000 0.987589 0.157061
vn 0.000000 -0.987589 -0.157061
vn 0.000000 -0.987589 -0.157061
vn 0.000000 -0.987589 -0.157061
vn 0.000000 -0.987589 -0.157061
vn 0.000000 0.147929 -0.988998
vn 0.000000 0.147929 -0.988998
vn 0.000000 0.147929 -0.988998
vn 0.000000 0.147929 -0.988998
vn 0.000000 -0.171093 0.985255
vn 0.000000 -0.171093 0.985255
vn 0.000000 -0.171093 0.985255
vn 0.000000 -0.171093 0.985255
vn 0.000000 0.996429 0.084436
vn 0.000000 0.996429 0.084436
vn 0.000000 0.996429 0.084436
vn 0.000000 0.996429 0.084436
vn 0.000000 -0.996429 -0.084436
vn 0.000000 -0.996429 -0.084436
vn 0.000000 -0.996429 -0.084436
vn 0.000000 -0.996429 -0.084436
vn 0.000000 0.074091 -0.997251
vn 0.000000 0.074091 -0.997251
vn 0.000000 0.074091 -0.997251
vn 0.000000 0.074091 -0.997251
vn 0.000000 -0.097474 0.995238
vn 0.000000 -0.097474 0.995238
vn 0.000000 -0.097474 0.995238
vn 0.000000 -0.097474 0.995238
vn 0.000000 0.999935 0.011374
vn 0.000000 0.999935 0.011374
vn 0.000000 0.999935 0.011374
vn 0.000000 0.999935 0.011374
vn 0.000000 -0.999935 -0.011374
vn 0.000000 -0.999935 -0.011374
vn 0.000000 -0.999935 -0.011374
vn 0.000000 -0.999935 -0.011374
vn 0.000000 -0.000176 -1.000000
vn 0.000000 -0.000176 -1.000000
vn 0.000000 -0.000176 -1.000000
vn 0.000000 -0.000176 -1.000000
vn 0.000000 -0.023296 0.999729
vn 0.000000 -0.023296 0.999729
vn 0.000000 -0.023296 0.999729
vn 0.000000 -0.023296 0.999729
vn 0.000000 0.999361 0.035753
vn 0.000000 0.999361 0.035753
vn 0.000000 0.999361 0.035753
vn 0.000000 0.999361 0.035753
vn 0.000000 -0.999361 -0.035753
vn 0.000000 -0.999361 -0.035753
vn 0.000000 -0.999361 -0.035753
vn 0.000000 -0.999361 -0.035753
vn 0.000000 0.024600 -0.999697
vn 0.000000 0.024600 -0.999697
vn 0.000000 0.024600 -0.999697
vn 0.000000 0.024600 -0.999697
vn 0.000000 -0.048058 0.998845
vn 0.000000 -0.048058 0.998845
vn 0.000000 -0.048058 0.998845
vn 0.000000 -0.048058 0.998845
vn 0.000000 0.998192 0.060112
vn 0.000000 0.998192 0.060112
vn 0.000000 0.998192 0.060112
vn 0.000000 0.998192 0.060112
vn 0.000000 -0.998192 -0.060112
vn 0.000000 -0.998192 -0.060112
vn 0.000000 -0.998192 -0.060112
vn 0.000000 -0.998192 -0.060112
vn 0.000000 0.049349 -0.998782
vn 0.000000 0.049349 -0.998782
vn 0.000000 0.049349 -0.998782
vn 0.000000 0.049349 -0.998782
vn 0.000000 -0.072783 0.997348
vn 0.000000 -0.072783 0.997348
vn 0.000000 -0.072783 0.997348
vn 0.000000 -0.072783 0.997348
vn -1.000000 0.000000 0.000000
vn -1.000000 0.000000 0.000000
vn -1.000000 0.000000 0.000000
vn -1.000000 0.000000 0.000000
vn 0.000000 0.000000 -1.000000
vn 0.000000 0.000000 -1.000000
vn 0.000000 0.000000 -1.000000
vn 0.000000 0.000000 -1.000000
vn 0.000000 0.000000 1.000000
vn 0.000000 0.000000 1.000000
vn 0.000000 0.000000 1.000000
vn 0.000000 0.000000 1.000000
vn 1.000000 0.000000 0.000000
vn 1.000000 0.000000 0.000000
vn 1.000000 0.000000 0.000000
vn 1.000000 0.000000 0.000000
s 1
g polySurface6173
f 1/1/1 2/2/2 10/3/3 9/4/4
f 2/2/2 3/5/5 11/6/6 10/3/3
f 3/5/5 4/7/7 12/8/8 11/6/6
f 4/7/7 5/9/9 13/10/10 12/8/8
f 5/9/9 6/11/11 14/12/12 13/10/10
f 6/11/11 7/13/13 15/14/14 14/12/12
f 7/13/13 8/15/15 16/16/16 15/14/14
f 8/15/15 1/17/1 9/18/4 16/16/16
s 2
f 17/19/17 18/20/18 21/21/19 20/22/20
f 18/20/18 19/23/21 22/24/22 21/21/19
s 3
f 20/22/23 21/21/24 24/25/25 23/26/26
f 21/21/24 22/24/27 25/27/28 24/25/25
s 4
f 23/26/29 24/25/30 27/28/31 26/29/32
f 24/25/30 25/27/33 28/30/34 27/31/31
s 5
f 26/32/35 27/33/36 18/20/37 17/19/38
f 27/34/36 28/35/39 19/23/40 18/20/37
f 17/19/38 30/36/41 31/37/42 26/38/35
s 2
f 20/22/20 29/39/43 30/36/44 17/19/17
s 3
f 23/26/26 32/40/45 29/39/46 20/22/23
s 4
f 26/41/32 31/42/47 32/40/48 23/26/29
s off
f 19/43/49 28/44/50 25/45/51 22/46/52
s 7
f 34/47/53 50/48/54 49/49/55 33/50/56
f 37/51/57 49/49/55 50/48/54 38/52/58
f 35/53/59 51/54/60 50/48/54 34/47/53
f 38/52/58 50/48/54 51/54/60 39/55/61
f 36/56/62 52/57/63 51/54/60 35/53/59
f 39/55/61 51/54/60 52/57/63 40/58/64
f 37/51/57 38/52/58 54/59/65 53/60/66
f 41/61/67 53/60/66 54/59/65 42/62/68
f 38/52/58 39/55/61 55/63/69 54/59/65
f 42/62/68 54/59/65 55/63/69 43/64/70
f 39/55/61 40/58/64 56/65/71 55/63/69
f 43/64/70 55/63/69 56/65/71 44/66/72
f 41/61/67 42/62/68 58/67/73 57/68/74
f 45/69/75 57/68/74 58/67/73 46/70/76
f 42/62/68 43/64/70 59/71/77 58/67/73
f 46/70/76 58/67/73 59/71/77 47/72/78
f 43/64/70 44/66/72 60/73/79 59/71/77
f 47/72/78 59/71/77 60/73/79 48/74/80
f 45/69/75 46/70/76 62/75/81 61/76/82
f 34/77/53 33/78/56 61/76/82 62/75/81
f 46/70/76 47/72/78 63/79/83 62/75/81
f 35/80/59 34/77/53 62/75/81 63/79/83
f 47/72/78 48/74/80 64/81/84 63/79/83
f 36/82/62 35/80/59 63/79/83 64/81/84
s 8
f 52/83/85 36/84/86 65/85/87
f 40/86/88 52/87/85 65/88/87
f 56/89/89 40/90/88 65/91/87
f 44/92/90 56/93/89 65/94/87
f 60/95/91 44/96/90 65/97/87
f 48/98/92 60/99/91 65/100/87
f 64/101/93 48/102/92 65/103/87
f 36/104/86 64/105/93 65/106/87
s off
f 66/107/94 67/108/95 69/109/96 68/110/97
f 70/111/98 71/112/99 73/113/100 72/114/101
f 67/108/102 73/115/103 71/116/104 69/109/105
f 72/114/106 66/107/107 68/110/108 70/111/109
s 13
f 74/117/110 75/118/111 83/119/112 82/120/113
f 75/118/111 76/121/114 84/122/115 83/119/112
f 76/121/114 77/123/116 85/124/117 84/122/115
f 77/123/116 78/125/118 86/126/119 85/124/117
f 78/125/118 79/127/120 87/128/121 86/126/119
f 79/127/120 80/129/122 88/130/123 87/128/121
f 80/129/122 81/131/124 89/132/125 88/130/123
f 81/131/124 74/133/110 82/134/113 89/132/125
s 14
f 90/135/126 98/136/127 99/137/128 91/138/129
f 91/139/129 99/140/128 100/141/130 92/142/131
f 92/142/131 100/141/130 101/143/132 93/144/133
f 93/144/133 101/143/132 102/145/134 94/146/135
f 94/146/135 102/145/134 103/147/136 95/148/137
f 95/148/137 103/147/136 104/149/138 96/150/139
f 96/150/139 104/149/138 105/151/140 97/152/141
f 97/152/141 105/151/140 98/136/127 90/135/126
f 98/136/127 106/153/142 107/154/143 99/137/128
f 99/140/128 107/155/143 108/156/144 100/141/130
f 100/141/130 108/156/144 109/157/145 101/143/132
f 101/143/132 109/157/145 110/158/146 102/145/134
f 102/145/134 110/158/146 111/159/147 103/147/136
f 103/147/136 111/159/147 112/160/148 104/149/138
f 104/149/138 112/160/148 113/161/149 105/151/140
f 105/151/140 113/161/149 106/153/142 98/136/127
f 106/153/142 114/162/150 115/163/151 107/154/143
f 107/155/143 115/164/151 116/165/152 108/156/144
f 108/156/144 116/165/152 117/166/153 109/157/145
f 109/157/145 117/166/153 118/167/154 110/158/146
f 110/158/146 118/167/154 119/168/155 111/159/147
f 111/159/147 119/168/155 120/169/156 112/160/148
f 112/160/148 120/169/156 121/170/157 113/161/149
f 113/161/149 121/170/157 114/162/150 106/153/142
f 114/162/150 122/171/158 123/172/159 115/163/151
f 115/164/151 123/173/159 124/174/160 116/165/152
f 116/165/152 124/174/160 125/175/161 117/166/153
f 117/166/153 125/175/161 126/176/162 118/167/154
f 118/167/154 126/176/162 127/177/163 119/168/155
f 119/168/155 127/177/163 128/178/164 120/169/156
f 120/169/156 128/178/164 129/179/165 121/170/157
f 121/170/157 129/179/165 122/171/158 114/162/150
f 122/171/158 130/180/166 131/181/167 123/172/159
f 123/173/159 131/182/167 132/183/168 124/174/160
f 124/174/160 132/183/168 133/184/169 125/175/161
f 125/175/161 133/184/169 134/185/170 126/176/162
f 126/176/162 134/185/170 135/186/171 127/177/163
f 127/177/163 135/186/171 136/187/172 128/178/164
f 128/178/164 136/187/172 137/188/173 129/179/165
f 129/179/165 137/188/173 130/180/166 122/171/158
f 130/180/166 138/189/174 139/190/175 131/181/167
f 131/182/167 139/191/175 140/192/176 132/183/168
f 132/183/168 140/192/176 141/193/177 133/184/169
f 133/184/169 141/193/177 142/194/178 134/185/170
f 134/185/170 142/194/178 143/195/179 135/186/171
f 135/186/171 143/195/179 144/196/180 136/187/172
f 136/187/172 144/196/180 145/197/181 137/188/173
f 137/188/173 145/197/181 138/189/174 130/180/166
f 138/189/174 146/198/182 147/199/183 139/190/175
f 139/191/175 147/200/183 148/201/184 140/192/176
f 140/192/176 148/201/184 149/202/185 141/193/177
f 141/193/177 149/202/185 150/203/186 142/194/178
f 142/194/178 150/203/186 151/204/187 143/195/179
f 143/195/179 151/204/187 152/205/188 144/196/180
f 144/196/180 152/205/188 153/206/189 145/197/181
f 145/197/181 153/206/189 146/198/182 138/189/174
f 146/207/182 154/208/190 155/209/191 147/210/183
f 147/210/183 155/209/191 156/211/192 148/212/184
f 148/212/184 156/211/192 157/213/193 149/214/185
f 149/214/185 157/213/193 158/215/194 150/216/186
f 150/216/186 158/215/194 159/217/195 151/218/187
f 151/218/187 159/217/195 160/219/196 152/220/188
f 152/220/188 160/219/196 161/221/197 153/222/189
f 153/222/189 161/221/197 154/208/190 146/207/182
f 154/208/190 162/223/198 155/209/191
f 155/209/191 162/223/198 156/211/192
f 156/211/192 162/223/198 157/213/193
f 157/213/193 162/223/198 158/215/194
f 158/215/194 162/223/198 159/217/195
f 159/217/195 162/223/198 160/219/196
f 160/219/196 162/223/198 161/221/197
f 161/221/197 162/223/198 154/208/190
s 15
f 163/224/199 171/225/200 172/226/201 164/227/202
f 164/228/202 172/229/201 173/230/203 165/231/204
f 165/231/204 173/230/203 174/232/205 166/233/206
f 166/233/206 174/232/205 175/234/207 167/235/208
f 167/235/208 175/234/207 176/236/209 168/237/210
f 168/237/210 176/236/209 177/238/211 169/239/212
f 169/239/212 177/238/211 178/240/213 170/241/214
f 170/241/214 178/240/213 171/225/200 163/224/199
f 171/225/200 179/242/215 180/243/216 172/226/201
f 172/229/201 180/244/216 181/245/217 173/230/203
f 173/230/203 181/245/217 182/246/218 174/232/205
f 174/232/205 182/246/218 183/247/219 175/234/207
f 175/234/207 183/247/219 184/248/220 176/236/209
f 176/236/209 184/248/220 185/249/221 177/238/211
f 177/238/211 185/249/221 186/250/222 178/240/213
f 178/240/213 186/250/222 179/242/215 171/225/200
f 179/242/215 187/251/223 188/252/224 180/243/216
f 180/244/216 188/253/224 189/254/225 181/245/217
f 181/245/217 189/254/225 190/255/226 182/246/218
f 182/246/218 190/255/226 191/256/227 183/247/219
f 183/247/219 191/256/227 192/257/228 184/248/220
f 184/248/220 192/257/228 193/258/229 185/249/221
f 185/249/221 193/258/229 194/259/230 186/250/222
f 186/250/222 194/259/230 187/251/223 179/242/215
f 187/251/223 195/260/231 196/261/232 188/252/224
f 188/253/224 196/262/232 197/263/233 189/254/225
f 189/254/225 197/263/233 198/264/234 190/255/226
f 190/255/226 198/264/234 199/265/235 191/256/227
f 191/256/227 199/265/235 200/266/236 192/257/228
f 192/257/228 200/266/236 201/267/237 193/258/229
f 193/258/229 201/267/237 202/268/238 194/259/230
f 194/259/230 202/268/238 195/260/231 187/251/223
f 195/260/231 203/269/239 204/270/240 196/261/232
f 196/262/232 204/271/240 205/272/241 197/263/233
f 197/263/233 205/272/241 206/273/242 198/264/234
f 198/264/234 206/273/242 207/274/243 199/265/235
f 199/265/235 207/274/243 208/275/244 200/266/236
f 200/266/236 208/275/244 209/276/245 201/267/237
f 201/267/237 209/276/245 210/277/246 202/268/238
f 202/268/238 210/277/246 203/269/239 195/260/231
f 203/269/239 211/278/247 212/279/248 204/270/240
f 204/271/240 212/280/248 213/281/249 205/272/241
f 205/272/241 213/281/249 214/282/250 206/273/242
f 206/273/242 214/282/250 215/283/251 207/274/243
f 207/274/243 215/283/251 216/284/252 208/275/244
f 208/275/244 216/284/252 217/285/253 209/276/245
f 209/276/245 217/285/253 218/286/254 210/277/246
f 210/277/246 218/286/254 211/278/247 203/269/239
f 211/278/247 219/287/255 220/288/256 212/279/248
f 212/280/248 220/289/256 221/290/257 213/281/249
f 213/281/249 221/290/257 222/291/258 214/282/250
f 214/282/250 222/291/258 223/292/259 215/283/251
f 215/283/251 223/292/259 224/293/260 216/284/252
f 216/284/252 224/293/260 225/294/261 217/285/253
f 217/285/253 225/294/261 226/295/262 218/286/254
f 218/286/254 226/295/262 219/287/255 211/278/247
f 219/296/255 227/297/263 228/298/264 220/299/256
f 220/299/256 228/298/264 229/300/265 221/301/257
f 221/301/257 229/300/265 230/302/266 222/303/258
f 222/303/258 230/302/266 231/304/267 223/305/259
f 223/305/259 231/304/267 232/306/268 224/307/260
f 224/307/260 232/306/268 233/308/269 225/309/261
f 225/309/261 233/308/269 234/310/270 226/311/262
f 226/311/262 234/310/270 227/297/263 219/296/255
f 227/297/263 235/312/271 228/298/264
f 228/298/264 235/312/271 229/300/265
f 229/300/265 235/312/271 230/302/266
f 230/302/266 235/312/271 231/304/267
f 231/304/267 235/312/271 232/306/268
f 232/306/268 235/312/271 233/308/269
f 233/308/269 235/312/271 234/310/270
f 234/310/270 235/312/271 227/297/263
s 16
f 236/313/272 237/314/273 240/315/274 239/316/275
f 237/314/273 238/317/276 241/318/277 240/315/274
s 17
f 239/316/278 240/315/279 243/319/280 242/320/281
f 240/315/279 241/318/282 244/321/283 243/319/280
s 18
f 242/320/284 243/319/285 246/322/286 245/323/287
f 243/319/285 244/321/288 247/324/289 246/325/286
s 19
f 245/326/290 246/327/291 237/314/292 236/313/293
f 246/328/291 247/329/294 238/317/295 237/314/292
s off
f 248/330/296 249/331/297 250/332/298 251/333/299
s 19
f 236/313/293 249/334/300 248/335/301 245/336/290
s 16
f 239/316/275 250/337/302 249/334/303 236/313/272
s 17
f 242/320/281 251/338/304 250/337/305 239/316/278
s 18
f 245/339/287 248/340/306 251/338/307 242/320/284
s off
f 238/341/308 247/342/309 244/343/310 241/344/311
s 22
f 252/345/312 253/346/313 274/347/314 275/348/315
f 253/346/313 254/349/316 273/350/317 274/347/314
s 23
f 255/351/318 256/352/319 259/353/320 258/354/321
f 256/352/319 257/355/322 260/356/323 259/353/320
s 24
f 270/357/324 271/358/325 262/359/326 261/360/327
f 271/361/325 272/362/328 263/363/329 262/364/326
s 25
f 261/365/330 262/366/331 253/346/332 252/345/333
f 262/367/331 263/368/334 254/349/335 253/346/332
s 26
f 264/369/336 265/370/337 268/371/338 269/372/339
s 25
f 252/345/333 265/373/340 264/374/341 261/375/330
s 22
f 275/348/315 268/376/342 265/373/343 252/345/312
s 23
f 258/354/321 267/377/344 266/378/345 255/351/318
s 24
f 261/379/327 264/380/346 269/381/347 270/382/324
s 27
f 254/383/348 263/384/349 272/385/350 273/386/351
s 26
f 269/372/339 268/371/338 266/387/352 267/388/353
s 24
f 270/382/324 269/381/347 267/377/354 258/354/355
f 258/354/355 259/353/356 271/358/325 270/357/324
f 259/353/356 260/356/357 272/362/328 271/361/325
s 27
f 273/386/351 272/385/350 260/389/358 257/390/359
s 22
f 274/347/314 273/350/317 257/355/360 256/352/361
f 275/348/315 274/347/314 256/352/361 255/351/362
f 255/351/362 266/378/363 268/376/342 275/348/315
s 28
f 276/391/364 277/392/365 285/393/366 284/394/367
f 277/392/365 278/395/368 286/396/369 285/393/366
f 278/395/368 279/397/370 287/398/371 286/396/369
f 279/397/370 280/399/372 288/400/373 287/398/371
f 280/399/372 281/401/374 289/402/375 288/400/373
f 281/401/374 282/403/376 290/404/377 289/402/375
f 282/403/376 283/405/378 291/406/379 290/404/377
f 283/405/378 276/407/364 284/408/367 291/406/379
s 29
f 292/409/380 293/410/381 296/411/382 295/412/383
f 293/410/381 294/413/384 297/414/385 296/411/382
s 30
f 295/412/386 296/411/387 299/415/388 298/416/389
f 296/411/387 297/414/390 300/417/391 299/415/388
s 31
f 298/416/392 299/415/393 302/418/394 301/419/395
f 299/415/393 300/417/396 303/420/397 302/421/394
s 32
f 301/422/398 302/423/399 293/410/400 292/409/401
f 302/424/399 303/425/402 294/413/403 293/410/400
f 292/409/401 305/426/404 306/427/405 301/428/398
s 29
f 295/412/383 304/429/406 305/426/407 292/409/380
s 30
f 298/416/389 307/430/408 304/429/409 295/412/386
s 31
f 301/431/395 306/432/410 307/430/411 298/416/392
s off
f 294/433/412 303/434/413 300/435/414 297/436/415
s 34
f 309/437/416 325/438/417 324/439/418 308/440/419
f 312/441/420 324/439/418 325/438/417 313/442/421
f 310/443/422 326/444/423 325/438/417 309/437/416
f 313/442/421 325/438/417 326/444/423 314/445/424
f 311/446/425 327/447/426 326/444/423 310/443/422
f 314/445/424 326/444/423 327/447/426 315/448/427
f 312/441/420 313/442/421 329/449/428 328/450/429
f 316/451/430 328/450/429 329/449/428 317/452/431
f 313/442/421 314/445/424 330/453/432 329/449/428
f 317/452/431 329/449/428 330/453/432 318/454/433
f 314/445/424 315/448/427 331/455/434 330/453/432
f 318/454/433 330/453/432 331/455/434 319/456/435
f 316/451/430 317/452/431 333/457/436 332/458/437
f 320/459/438 332/458/437 333/457/436 321/460/439
f 317/452/431 318/454/433 334/461/440 333/457/436
f 321/460/439 333/457/436 334/461/440 322/462/441
f 318/454/433 319/456/435 335/463/442 334/461/440
f 322/462/441 334/461/440 335/463/442 323/464/443
f 320/459/438 321/460/439 337/465/444 336/466/445
f 309/467/416 308/468/419 336/466/445 337/465/444
f 321/460/439 322/462/441 338/469/446 337/465/444
f 310/470/422 309/467/416 337/465/444 338/469/446
f 322/462/441 323/464/443 339/471/447 338/469/446
f 311/472/425 310/470/422 338/469/446 339/471/447
s 35
f 327/473/448 311/474/449 340/475/450
f 315/476/451 327/477/448 340/478/450
f 331/479/452 315/480/451 340/481/450
f 319/482/453 331/483/452 340/484/450
f 335/485/454 319/486/453 340/487/450
f 323/488/455 335/489/454 340/490/450
f 339/491/456 323/492/455 340/493/450
f 311/494/449 339/495/456 340/496/450
s off
f 341/497/457 342/498/458 344/499/459 343/500/460
f 345/501/461 346/502/462 348/503/463 347/504/464
f 342/498/465 348/505/466 346/506/467 344/499/468
f 347/504/469 341/497/470 343/500/471 345/501/472
s 40
f 349/507/473 350/508/474 358/509/475 357/510/476
f 350/508/474 351/511/477 359/512/478 358/509/475
f 351/511/477 352/513/479 360/514/480 359/512/478
f 352/513/479 353/515/481 361/516/482 360/514/480
f 353/515/481 354/517/483 362/518/484 361/516/482
f 354/517/483 355/519/485 363/520/486 362/518/484
f 355/519/485 356/521/487 364/522/488 363/520/486
f 356/521/487 349/523/473 357/524/476 364/522/488
s 41
f 365/525/489 373/526/490 374/527/491 366/528/492
f 366/529/492 374/530/491 375/531/493 367/532/494
f 367/532/494 375/531/493 376/533/495 368/534/496
f 368/534/496 376/533/495 377/535/497 369/536/498
f 369/536/498 377/535/497 378/537/499 370/538/500
f 370/538/500 378/537/499 379/539/501 371/540/502
f 371/540/502 379/539/501 380/541/503 372/542/504
f 372/542/504 380/541/503 373/526/490 365/525/489
f 373/526/490 381/543/505 382/544/506 374/527/491
f 374/530/491 382/545/506 383/546/507 375/531/493
f 375/531/493 383/546/507 384/547/508 376/533/495
f 376/533/495 384/547/508 385/548/509 377/535/497
f 377/535/497 385/548/509 386/549/510 378/537/499
f 378/537/499 386/549/510 387/550/511 379/539/501
f 379/539/501 387/550/511 388/551/512 380/541/503
f 380/541/503 388/551/512 381/543/505 373/526/490
f 381/543/505 389/552/513 390/553/514 382/544/506
f 382/545/506 390/554/514 391/555/515 383/546/507
f 383/546/507 391/555/515 392/556/516 384/547/508
f 384/547/508 392/556/516 393/557/517 385/548/509
f 385/548/509 393/557/517 394/558/518 386/549/510
f 386/549/510 394/558/518 395/559/519 387/550/511
f 387/550/511 395/559/519 396/560/520 388/551/512
f 388/551/512 396/560/520 389/552/513 381/543/505
f 389/552/513 397/561/521 398/562/522 390/553/514
f 390/554/514 398/563/522 399/564/523 391/555/515
f 391/555/515 399/564/523 400/565/524 392/556/516
f 392/556/516 400/565/524 401/566/525 393/557/517
f 393/557/517 401/566/525 402/567/526 394/558/518
f 394/558/518 402/567/526 403/568/527 395/559/519
f 395/559/519 403/568/527 404/569/528 396/560/520
f 396/560/520 404/569/528 397/561/521 389/552/513
f 397/561/521 405/570/529 406/571/530 398/562/522
f 398/563/522 406/572/530 407/573/531 399/564/523
f 399/564/523 407/573/531 408/574/532 400/565/524
f 400/565/524 408/574/532 409/575/533 401/566/525
f 401/566/525 409/575/533 410/576/534 402/567/526
f 402/567/526 410/576/534 411/577/535 403/568/527
f 403/568/527 411/577/535 412/578/536 404/569/528
f 404/569/528 412/578/536 405/570/529 397/561/521
f 405/570/529 413/579/537 414/580/538 406/571/530
f 406/572/530 414/581/538 415/582/539 407/573/531
f 407/573/531 415/582/539 416/583/540 408/574/532
f 408/574/532 416/583/540 417/584/541 409/575/533
f 409/575/533 417/584/541 418/585/542 410/576/534
f 410/576/534 418/585/542 419/586/543 411/577/535
f 411/577/535 419/586/543 420/587/544 412/578/536
f 412/578/536 420/587/544 413/579/537 405/570/529
f 413/579/537 421/588/545 422/589/546 414/580/538
f 414/581/538 422/590/546 423/591/547 415/582/539
f 415/582/539 423/591/547 424/592/548 416/583/540
f 416/583/540 424/592/548 425/593/549 417/584/541
f 417/584/541 425/593/549 426/594/550 418/585/542
f 418/585/542 426/594/550 427/595/551 419/586/543
f 419/586/543 427/595/551 428/596/552 420/587/544
f 420/587/544 428/596/552 421/588/545 413/579/537
f 421/597/545 429/598/553 430/599/554 422/600/546
f 422/600/546 430/599/554 431/601/555 423/602/547
f 423/602/547 431/601/555 432/603/556 424/604/548
f 424/604/548 432/603/556 433/605/557 425/606/549
f 425/606/549 433/605/557 434/607/558 426/608/550
f 426/608/550 434/607/558 435/609/559 427/610/551
f 427/610/551 435/609/559 436/611/560 428/612/552
f 428/612/552 436/611/560 429/598/553 421/597/545
f 429/598/553 437/613/561 430/599/554
f 430/599/554 437/613/561 431/601/555
f 431/601/555 437/613/561 432/603/556
f 432/603/556 437/613/561 433/605/557
f 433/605/557 437/613/561 434/607/558
f 434/607/558 437/613/561 435/609/559
f 435/609/559 437/613/561 436/611/560
f 436/611/560 437/613/561 429/598/553
s 42
f 438/614/562 446/615/563 447/616/564 439/617/565
f 439/618/565 447/619/564 448/620/566 440/621/567
f 440/621/567 448/620/566 449/622/568 441/623/569
f 441/623/569 449/622/568 450/624/570 442/625/571
f 442/625/571 450/624/570 451/626/572 443/627/573
f 443/627/573 451/626/572 452/628/574 444/629/575
f 444/629/575 452/628/574 453/630/576 445/631/577
f 445/631/577 453/630/576 446/615/563 438/614/562
f 446/615/563 454/632/578 455/633/579 447/616/564
f 447/619/564 455/634/579 456/635/580 448/620/566
f 448/620/566 456/635/580 457/636/581 449/622/568
f 449/622/568 457/636/581 458/637/582 450/624/570
f 450/624/570 458/637/582 459/638/583 451/626/572
f 451/626/572 459/638/583 460/639/584 452/628/574
f 452/628/574 460/639/584 461/640/585 453/630/576
f 453/630/576 461/640/585 454/632/578 446/615/563
f 454/632/578 462/641/586 463/642/587 455/633/579
f 455/634/579 463/643/587 464/644/588 456/635/580
f 456/635/580 464/644/588 465/645/589 457/636/581
f 457/636/581 465/645/589 466/646/590 458/637/582
f 458/637/582 466/646/590 467/647/591 459/638/583
f 459/638/583 467/647/591 468/648/592 460/639/584
f 460/639/584 468/648/592 469/649/593 461/640/585
f 461/640/585 469/649/593 462/641/586 454/632/578
f 462/641/586 470/650/594 471/651/595 463/642/587
f 463/643/587 471/652/595 472/653/596 464/644/588
f 464/644/588 472/653/596 473/654/597 465/645/589
f 465/645/589 473/654/597 474/655/598 466/646/590
f 466/646/590 474/655/598 475/656/599 467/647/591
f 467/647/591 475/656/599 476/657/600 468/648/592
f 468/648/592 476/657/600 477/658/601 469/649/593
f 469/649/593 477/658/601 470/650/594 462/641/586
f 470/650/594 478/659/602 479/660/603 471/651/595
f 471/652/595 479/661/603 480/662/604 472/653/596
f 472/653/596 480/662/604 481/663/605 473/654/597
f 473/654/597 481/663/605 482/664/606 474/655/598
f 474/655/598 482/664/606 483/665/607 475/656/599
f 475/656/599 483/665/607 484/666/608 476/657/600
f 476/657/600 484/666/608 485/667/609 477/658/601
f 477/658/601 485/667/609 478/659/602 470/650/594
f 478/659/602 486/668/610 487/669/611 479/660/603
f 479/661/603 487/670/611 488/671/612 480/662/604
f 480/662/604 488/671/612 489/672/613 481/663/605
f 481/663/605 489/672/613 490/673/614 482/664/606
f 482/664/606 490/673/614 491/674/615 483/665/607
f 483/665/607 491/674/615 492/675/616 484/666/608
f 484/666/608 492/675/616 493/676/617 485/667/609
f 485/667/609 493/676/617 486/668/610 478/659/602
f 486/668/610 494/677/618 495/678/619 487/669/611
f 487/670/611 495/679/619 496/680/620 488/671/612
f 488/671/612 496/680/620 497/681/621 489/672/613
f 489/672/613 497/681/621 498/682/622 490/673/614
f 490/673/614 498/682/622 499/683/623 491/674/615
f 491/674/615 499/683/623 500/684/624 492/675/616
f 492/675/616 500/684/624 501/685/625 493/676/617
f 493/676/617 501/685/625 494/677/618 486/668/610
f 494/686/618 502/687/626 503/688/627 495/689/619
f 495/689/619 503/688/627 504/690/628 496/691/620
f 496/691/620 504/690/628 505/692/629 497/693/621
f 497/693/621 505/692/629 506/694/630 498/695/622
f 498/695/622 506/694/630 507/696/631 499/697/623
f 499/697/623 507/696/631 508/698/632 500/699/624
f 500/699/624 508/698/632 509/700/633 501/701/625
f 501/701/625 509/700/633 502/687/626 494/686/618
f 502/687/626 510/702/634 503/688/627
f 503/688/627 510/702/634 504/690/628
f 504/690/628 510/702/634 505/692/629
f 505/692/629 510/702/634 506/694/630
f 506/694/630 510/702/634 507/696/631
f 507/696/631 510/702/634 508/698/632
f 508/698/632 510/702/634 509/700/633
f 509/700/633 510/702/634 502/687/626
s off
f 515/703/635 516/704/636 518/705/637 517/706/638
f 512/707/639 518/708/640 516/709/641 514/710/642
f 517/706/643 511/711/644 513/712/645 515/703/646
f 511/711/647 512/713/648 514/714/649 513/712/650
s 47
f 519/715/651 520/716/652 523/717/653 522/718/654
f 520/716/652 521/719/655 524/720/656 523/717/653
s 48
f 522/718/657 523/717/658 526/721/659 525/722/660
f 523/717/658 524/720/661 527/723/662 526/721/659
s 49
f 525/722/663 526/721/664 529/724/665 528/725/666
f 526/721/664 527/723/667 530/726/668 529/727/665
s 50
f 528/728/669 529/729/670 520/716/671 519/715/672
f 529/730/670 530/731/673 521/719/674 520/716/671
s off
f 531/732/675 532/733/676 533/734/677 534/735/678
s 50
f 519/715/672 532/736/679 531/737/680 528/738/669
s 47
f 522/718/654 533/739/681 532/736/682 519/715/651
s 48
f 525/722/660 534/740/683 533/739/684 522/718/657
s 49
f 528/741/666 531/742/685 534/740/686 525/722/663
s off
f 521/743/687 530/744/688 527/745/689 524/746/690
s 53
f 535/747/691 536/748/692 557/749/693 558/750/694
f 536/748/692 537/751/695 556/752/696 557/749/693
s 54
f 538/753/697 539/754/698 542/755/699 541/756/700
f 539/754/698 540/757/701 543/758/702 542/755/699
s 55
f 553/759/703 554/760/704 545/761/705 544/762/706
f 554/763/704 555/764/707 546/765/708 545/766/705
s 56
f 544/767/709 545/768/710 536/748/711 535/747/712
f 545/769/710 546/770/713 537/751/714 536/748/711
s 57
f 547/771/715 548/772/716 551/773/717 552/774/718
s 56
f 535/747/712 548/775/719 547/776/720 544/777/709
s 53
f 558/750/694 551/778/721 548/775/722 535/747/691
s 54
f 541/756/700 550/779/723 549/780/724 538/753/697
s 55
f 544/781/706 547/782/725 552/783/726 553/784/703
s 58
f 537/785/727 546/786/728 555/787/729 556/788/730
s 57
f 552/774/718 551/773/717 549/789/731 550/790/732
s 55
f 553/784/703 552/783/726 550/779/733 541/756/734
f 541/756/734 542/755/735 554/760/704 553/759/703
f 542/755/735 543/758/736 555/764/707 554/763/704
s 58
f 556/788/730 555/787/729 543/791/737 540/792/738
s 53
f 557/749/693 556/752/696 540/757/739 539/754/740
f 558/750/694 557/749/693 539/754/740 538/753/741
f 538/753/741 549/780/742 551/778/721 558/750/694
s off
f 561/793/743 562/794/744 564/795/745 563/796/746
f 565/797/747 566/798/748 560/799/749 559/800/750
f 560/801/751 566/802/752 564/795/753 562/794/754
f 565/797/755 559/800/756 561/793/757 563/796/758
f 569/803/759 570/804/760 572/805/761 571/806/762
f 573/807/763 574/808/764 568/809/765 567/810/766
f 568/811/767 574/812/768 572/805/769 570/804/770
f 573/807/771 567/810/772 569/803/773 571/806/774
f 577/813/775 578/814/776 580/815/777 579/816/778
f 581/817/779 582/818/780 576/819/781 575/820/782
f 576/821/783 582/822/784 580/815/785 578/814/786
f 581/817/787 575/820/788 577/813/789 579/816/790
f 585/823/791 586/824/792 588/825/793 587/826/794
f 589/827/795 590/828/796 584/829/797 583/830/798
f 584/831/799 590/832/800 588/825/801 586/824/802
f 589/827/803 583/830/804 585/823/805 587/826/806
f 593/833/807 594/834/808 596/835/809 595/836/810
f 597/837/811 598/838/812 592/839/813 591/840/814
f 592/841/815 598/842/816 596/835/817 594/834/818
f 597/837/819 591/840/820 593/843/821 595/844/822
f 601/845/823 602/846/824 604/847/825 603/848/826
f 605/849/827 606/850/828 600/851/829 599/852/830
f 600/853/831 606/854/832 604/847/833 602/846/834
f 605/849/835 599/852/836 601/855/837 603/856/838
f 609/857/839 610/858/840 612/859/841 611/860/842
f 613/861/843 614/862/844 608/863/845 607/864/846
f 608/865/847 614/866/848 612/859/849 610/858/850
f 613/861/851 607/864/852 609/867/853 611/868/854
f 617/869/855 618/870/856 620/871/857 619/872/858
f 621/873/859 622/874/860 616/875/861 615/876/862
f 616/877/863 622/878/864 620/871/865 618/870/866
f 621/873/867 615/876/868 617/869/869 619/872/870
f 625/879/871 626/880/872 628/881/873 627/882/874
f 629/883/875 630/884/876 624/885/877 623/886/878
f 624/887/879 630/888/880 628/881/881 626/880/882
f 629/883/883 623/886/884 625/879/885 627/882/886
f 633/889/887 634/890/888 636/891/889 635/892/890
f 637/893/891 638/894/892 632/895/893 631/896/894
f 632/897/895 638/898/896 636/891/897 634/890/898
f 637/893/899 631/896/900 633/899/901 635/900/902
f 643/901/903 644/902/904 646/903/905 645/904/906
f 640/905/907 646/906/908 644/907/909 642/908/910
f 645/904/911 639/909/912 641/910/913 643/901/914
f 639/909/915 640/911/916 642/912/917 641/910/918
