# This file uses centimeters as units for non-parametric coordinates.

g default
v -81.535637 1.212290 0.335070
v -81.535637 1.296584 -0.393435
v -81.535637 1.314592 -1.153139
v -81.524704 1.300564 0.342245
v -81.524704 1.385915 -0.394995
v -81.524704 1.415703 -1.153139
v -81.625374 1.300564 0.342245
v -81.625374 1.385915 -0.394995
v -81.625374 1.415703 -1.153139
v -81.614441 1.212290 0.335070
v -81.614441 1.296584 -0.393435
v -81.614441 1.314592 -1.153139
v -81.614441 1.086959 0.993787
v -81.535637 1.086959 0.993787
v -81.524704 1.169180 1.023724
v -81.625374 1.169180 1.023724
v -81.535637 1.473059 0.335070
v -81.535637 1.554267 -0.393435
v -81.535637 1.572275 -1.153139
v -81.524704 1.561333 0.342245
v -81.524704 1.643598 -0.394995
v -81.524704 1.673386 -1.153139
v -81.625374 1.561333 0.342245
v -81.625374 1.643598 -0.394995
v -81.625374 1.673386 -1.153139
v -81.614441 1.473059 0.335070
v -81.614441 1.554267 -0.393435
v -81.614441 1.572275 -1.153139
v -81.614441 1.347728 0.993787
v -81.535637 1.347728 0.993787
v -81.524704 1.429949 1.023724
v -81.625374 1.429949 1.023724
v -81.573334 0.808020 -0.339931
v -81.485291 0.808020 -0.427974
v -81.573334 1.960971 -0.339931
v -81.485291 1.960971 -0.427974
v -81.656967 1.960971 -0.423572
v -81.568924 1.960971 -0.511615
v -81.656967 0.808020 -0.423572
v -81.568924 0.808020 -0.511615
v -81.573334 0.612026 1.083436
v -81.485291 0.612026 0.995393
v -81.573334 1.764977 1.083436
v -81.485291 1.764977 0.995393
v -81.656967 1.764977 0.999795
v -81.568924 1.764977 0.911752
v -81.656967 0.612026 0.999795
v -81.568924 0.612026 0.911752
v -79.433060 0.583588 0.320364
v -79.433060 0.671703 -0.408141
v -79.433060 0.701138 -1.153139
v -79.422119 0.805343 0.342245
v -79.422119 0.894515 -0.394995
v -79.422119 0.924302 -1.153139
v -81.657913 0.805343 0.342245
v -81.657913 0.894515 -0.394995
v -81.657913 0.924302 -1.153139
v -81.646980 0.583588 0.320364
v -81.646980 0.671703 -0.408141
v -81.646980 0.701138 -1.153139
v -81.646980 0.427632 1.104697
v -79.433060 0.427632 1.104697
v -79.422119 0.636533 1.153139
v -81.657913 0.636533 1.153139
v -79.613861 0.783257 0.342245
v -79.613861 0.614447 1.153139
v -79.623642 0.452831 1.104697
v -79.623642 0.608787 0.320364
v -79.623642 0.696902 -0.408141
v -79.623642 0.726336 -1.153139
v -79.613861 0.902216 -1.153139
v -79.613861 0.872428 -0.394995
v -81.462051 0.783257 0.342245
v -81.462051 0.614447 1.153139
v -81.452286 0.452831 1.104697
v -81.452286 0.608787 0.320364
v -81.452286 0.696902 -0.408141
v -81.452286 0.726336 -1.153139
v -81.462051 0.902216 -1.153139
v -81.462051 0.872428 -0.394995
v -79.460793 1.212290 0.335070
v -79.460793 1.296584 -0.393435
v -79.460793 1.314592 -1.153139
v -79.449860 1.300564 0.342245
v -79.449860 1.385915 -0.394995
v -79.449860 1.415703 -1.153139
v -79.550529 1.300564 0.342245
v -79.550529 1.385915 -0.394995
v -79.550529 1.415703 -1.153139
v -79.539597 1.212290 0.335070
v -79.539597 1.296584 -0.393435
v -79.539597 1.314592 -1.153139
v -79.539597 1.086959 0.993787
v -79.460793 1.086959 0.993787
v -79.449860 1.169180 1.023724
v -79.550529 1.169180 1.023724
v -79.460793 1.473059 0.335070
v -79.460793 1.554267 -0.393435
v -79.460793 1.572275 -1.153139
v -79.449860 1.561333 0.342245
v -79.449860 1.643598 -0.394995
v -79.449860 1.673386 -1.153139
v -79.550529 1.561333 0.342245
v -79.550529 1.643598 -0.394995
v -79.550529 1.673386 -1.153139
v -79.539597 1.473059 0.335070
v -79.539597 1.554267 -0.393435
v -79.539597 1.572275 -1.153139
v -79.539597 1.347728 0.993787
v -79.460793 1.347728 0.993787
v -79.449860 1.429949 1.023724
v -79.550529 1.429949 1.023724
v -79.504044 0.808020 -0.339931
v -79.416000 0.808020 -0.427974
v -79.504044 1.960971 -0.339931
v -79.416000 1.960971 -0.427974
v -79.587677 1.960971 -0.423572
v -79.499634 1.960971 -0.511615
v -79.587677 0.808020 -0.423572
v -79.499634 0.808020 -0.511615
v -79.504044 0.612026 1.083436
v -79.416000 0.612026 0.995393
v -79.504044 1.764977 1.083436
v -79.416000 1.764977 0.995393
v -79.587677 1.764977 0.999795
v -79.499634 1.764977 0.911752
v -79.587677 0.612026 0.999795
v -79.499634 0.612026 0.911752
vt 0.771406 0.430656
vt -0.060877 0.430656
vt -0.060877 0.371135
vt 0.771406 0.371135
vt -0.890054 0.430656
vt -0.890054 0.371135
vt 0.771406 0.312688
vt -0.060877 0.312688
vt -0.890054 0.312688
vt -0.060877 0.255351
vt 0.771406 0.255351
vt -0.890053 0.255351
vt -0.060877 0.255351
vt 0.771406 0.484741
vt -0.060877 0.484741
vt -0.060877 0.484741
vt -0.890053 0.484741
vt -0.936764 0.429465
vt -0.936764 0.371267
vt -1.283352 0.371267
vt -1.283352 0.429465
vt 1.687571 0.430656
vt 1.687570 0.484741
vt 0.771406 0.484741
vt 1.687569 0.371135
vt 1.687570 0.312688
vt 0.771406 0.255351
vt 1.687570 0.255350
vt 1.739801 0.372323
vt 1.739801 0.428138
vt 2.062576 0.428138
vt 2.062576 0.372323
vt 0.771406 0.430656
vt -0.060877 0.430656
vt -0.060877 0.371135
vt 0.771406 0.371135
vt -0.890054 0.430656
vt -0.890054 0.371135
vt 0.771406 0.312688
vt -0.060877 0.312688
vt -0.890054 0.312688
vt -0.060877 0.255351
vt 0.771406 0.255351
vt -0.890053 0.255351
vt -0.060877 0.255351
vt 0.771406 0.484741
vt -0.060877 0.484741
vt -0.060877 0.484741
vt -0.890053 0.484741
vt -0.936764 0.429465
vt -0.936764 0.371267
vt -1.283352 0.371267
vt -1.283352 0.429465
vt 1.687571 0.430656
vt 1.687570 0.484741
vt 0.771406 0.484741
vt 1.687569 0.371135
vt 1.687570 0.312688
vt 0.771406 0.255351
vt 1.687570 0.255350
vt 1.739801 0.372323
vt 1.739801 0.428138
vt 2.062576 0.428138
vt 2.062576 0.372323
vt 0.375000 0.000000
vt 0.625000 0.000000
vt 0.625000 0.250000
vt 0.375000 0.250000
vt 0.625000 0.500000
vt 0.375000 0.500000
vt 0.625000 0.750000
vt 0.375000 0.750000
vt 0.625000 1.000000
vt 0.375000 1.000000
vt 0.875000 0.000000
vt 0.875000 0.250000
vt 0.125000 0.000000
vt 0.125000 0.250000
vt 0.375000 0.000000
vt 0.625000 0.000000
vt 0.625000 0.250000
vt 0.375000 0.250000
vt 0.625000 0.500000
vt 0.375000 0.500000
vt 0.625000 0.750000
vt 0.375000 0.750000
vt 0.625000 1.000000
vt 0.375000 1.000000
vt 0.875000 0.000000
vt 0.875000 0.250000
vt 0.125000 0.000000
vt 0.125000 0.250000
vt 0.771406 0.430656
vt -0.060877 0.430656
vt -0.060877 0.371135
vt 0.771406 0.371135
vt -0.890054 0.430656
vt -0.890054 0.371135
vt -0.060877 0.368054
vt 0.771406 0.368054
vt -0.890054 0.368054
vt 0.771406 0.312688
vt -0.060877 0.312688
vt -0.060877 0.255351
vt 0.771406 0.255351
vt -0.890054 0.312688
vt -0.890053 0.255351
vt -0.060877 0.255351
vt 0.771406 0.433507
vt -0.060877 0.433506
vt -0.060877 0.433506
vt -0.890054 0.433507
vt -0.955032 0.429465
vt -0.936764 0.429465
vt -0.936764 0.371267
vt -0.955032 0.371267
vt 1.687571 0.430656
vt 1.687571 0.433507
vt 0.771406 0.433507
vt 1.687569 0.371135
vt 1.687569 0.368054
vt 0.771406 0.255351
vt 1.687570 0.255350
vt 1.687570 0.312688
vt 1.739801 0.428138
vt 1.756814 0.428138
vt 1.756814 0.372323
vt 1.739801 0.372323
vt 0.771406 0.315835
vt 1.687570 0.315835
vt -1.264692 0.429465
vt -1.264692 0.371267
vt 1.687570 0.481829
vt 0.771406 0.481829
vt 0.771406 0.481829
vt -0.060877 0.481829
vt -0.060877 0.481829
vt -0.890053 0.481829
vt 2.045197 0.428138
vt 2.045197 0.372323
vt -0.890054 0.315835
vt -0.060877 0.315835
vt -1.283352 0.429465
vt -1.283352 0.371267
vt 1.687570 0.484741
vt 0.771406 0.484741
vt 0.771406 0.484741
vt -0.060877 0.484741
vt -0.060877 0.484741
vt -0.890053 0.484741
vt 2.062576 0.428138
vt 2.062576 0.372323
vt 0.771406 0.430656
vt -0.060877 0.430656
vt -0.060877 0.371135
vt 0.771406 0.371135
vt -0.890054 0.430656
vt -0.890054 0.371135
vt 0.771406 0.312688
vt -0.060877 0.312688
vt -0.890054 0.312688
vt -0.060877 0.255351
vt 0.771406 0.255351
vt -0.890053 0.255351
vt -0.060877 0.255351
vt 0.771406 0.484741
vt -0.060877 0.484741
vt -0.060877 0.484741
vt -0.890053 0.484741
vt -0.936764 0.429465
vt -0.936764 0.371267
vt -1.283352 0.371267
vt -1.283352 0.429465
vt 1.687571 0.430656
vt 1.687570 0.484741
vt 0.771406 0.484741
vt 1.687569 0.371135
vt 1.687570 0.312688
vt 0.771406 0.255351
vt 1.687570 0.255350
vt 1.739801 0.372323
vt 1.739801 0.428138
vt 2.062576 0.428138
vt 2.062576 0.372323
vt 0.771406 0.430656
vt -0.060877 0.430656
vt -0.060877 0.371135
vt 0.771406 0.371135
vt -0.890054 0.430656
vt -0.890054 0.371135
vt 0.771406 0.312688
vt -0.060877 0.312688
vt -0.890054 0.312688
vt -0.060877 0.255351
vt 0.771406 0.255351
vt -0.890053 0.255351
vt -0.060877 0.255351
vt 0.771406 0.484741
vt -0.060877 0.484741
vt -0.060877 0.484741
vt -0.890053 0.484741
vt -0.936764 0.429465
vt -0.936764 0.371267
vt -1.283352 0.371267
vt -1.283352 0.429465
vt 1.687571 0.430656
vt 1.687570 0.484741
vt 0.771406 0.484741
vt 1.687569 0.371135
vt 1.687570 0.312688
vt 0.771406 0.255351
vt 1.687570 0.255350
vt 1.739801 0.372323
vt 1.739801 0.428138
vt 2.062576 0.428138
vt 2.062576 0.372323
vt 0.375000 0.000000
vt 0.625000 0.000000
vt 0.625000 0.250000
vt 0.375000 0.250000
vt 0.625000 0.500000
vt 0.375000 0.500000
vt 0.625000 0.750000
vt 0.375000 0.750000
vt 0.625000 1.000000
vt 0.375000 1.000000
vt 0.875000 0.000000
vt 0.875000 0.250000
vt 0.125000 0.000000
vt 0.125000 0.250000
vt 0.375000 0.000000
vt 0.625000 0.000000
vt 0.625000 0.250000
vt 0.375000 0.250000
vt 0.625000 0.500000
vt 0.375000 0.500000
vt 0.625000 0.750000
vt 0.375000 0.750000
vt 0.625000 1.000000
vt 0.375000 1.000000
vt 0.875000 0.000000
vt 0.875000 0.250000
vt 0.125000 0.000000
vt 0.125000 0.250000
vn 0.992359 -0.121953 -0.018745
vn 0.992978 -0.117972 -0.008842
vn 0.992978 -0.117972 -0.008842
vn 0.992359 -0.121953 -0.018745
vn 0.993455 -0.114166 -0.003593
vn 0.993455 -0.114166 -0.003593
vn 0.000000 0.988340 0.152263
vn 0.000000 0.988340 0.152263
vn 0.000000 0.997017 0.077186
vn 0.000000 0.997017 0.077186
vn 0.000000 0.999229 0.039259
vn 0.000000 0.999229 0.039259
vn -0.992359 -0.121955 -0.018745
vn -0.992984 -0.117920 -0.008842
vn -0.992984 -0.117920 -0.008842
vn -0.992359 -0.121955 -0.018745
vn -0.993462 -0.114104 -0.003593
vn -0.993462 -0.114104 -0.003593
vn 0.000000 -0.997590 -0.069390
vn 0.000000 -0.988530 -0.151023
vn 0.000000 -0.988530 -0.151023
vn 0.000000 -0.997590 -0.069390
vn 0.000000 -0.999719 -0.023698
vn 0.000000 -0.999719 -0.023698
vn 0.000000 -0.342138 0.939650
vn 0.000000 -0.342138 0.939650
vn 0.000000 -0.342138 0.939650
vn 0.000000 -0.342138 0.939650
vn 0.000000 -0.982377 -0.186909
vn 0.000000 -0.982377 -0.186909
vn 0.992238 -0.122130 -0.023400
vn 0.992238 -0.122130 -0.023400
vn 0.000000 0.981918 0.189309
vn 0.000000 0.981918 0.189309
vn -0.992233 -0.122176 -0.023400
vn -0.992233 -0.122176 -0.023400
vn 0.000000 0.000000 -1.000000
vn 0.000000 0.000000 -1.000000
vn 0.000000 0.000000 -1.000000
vn 0.000000 0.000000 -1.000000
vn 0.992363 -0.121962 -0.018490
vn 0.992979 -0.117980 -0.008586
vn 0.992979 -0.117980 -0.008586
vn 0.992363 -0.121962 -0.018490
vn 0.993455 -0.114166 -0.003593
vn 0.993455 -0.114166 -0.003593
vn 0.000000 0.988653 0.150220
vn 0.000000 0.988653 0.150220
vn 0.000000 0.997174 0.075126
vn 0.000000 0.997174 0.075126
vn 0.000000 0.999229 0.039259
vn 0.000000 0.999229 0.039259
vn -0.992362 -0.121964 -0.018490
vn -0.992985 -0.117928 -0.008586
vn -0.992985 -0.117928 -0.008586
vn -0.992362 -0.121964 -0.018490
vn -0.993462 -0.114104 -0.003593
vn -0.993462 -0.114104 -0.003593
vn 0.000000 -0.997733 -0.067304
vn 0.000000 -0.988844 -0.148956
vn 0.000000 -0.988844 -0.148956
vn 0.000000 -0.997733 -0.067304
vn 0.000000 -0.999719 -0.023698
vn 0.000000 -0.999719 -0.023698
vn 0.000000 -0.342137 0.939650
vn 0.000000 -0.342137 0.939650
vn 0.000000 -0.342137 0.939650
vn 0.000000 -0.342137 0.939650
vn 0.000000 -0.982377 -0.186909
vn 0.000000 -0.982377 -0.186909
vn 0.992238 -0.122130 -0.023400
vn 0.992238 -0.122130 -0.023400
vn 0.000000 0.981918 0.189309
vn 0.000000 0.981918 0.189309
vn -0.992233 -0.122176 -0.023400
vn -0.992233 -0.122176 -0.023400
vn 0.000000 0.000000 -1.000000
vn 0.000000 0.000000 -1.000000
vn 0.000000 0.000000 -1.000000
vn 0.000000 0.000000 -1.000000
vn 0.707106 0.000000 0.707107
vn 0.707106 0.000000 0.707107
vn 0.707106 0.000000 0.707107
vn 0.707106 0.000000 0.707107
vn 0.000000 1.000000 0.000000
vn 0.000000 1.000000 0.000000
vn 0.000000 1.000000 0.000000
vn 0.000000 1.000000 0.000000
vn -0.707106 0.000000 -0.707107
vn -0.707106 0.000000 -0.707107
vn -0.707106 0.000000 -0.707107
vn -0.707106 0.000000 -0.707107
vn 0.000000 -1.000000 0.000000
vn 0.000000 -1.000000 0.000000
vn 0.000000 -1.000000 0.000000
vn 0.000000 -1.000000 0.000000
vn 0.707138 0.000000 -0.707075
vn 0.707138 0.000000 -0.707075
vn 0.707138 0.000000 -0.707075
vn 0.707138 0.000000 -0.707075
vn -0.707138 0.000000 0.707075
vn -0.707138 0.000000 0.707075
vn -0.707138 0.000000 0.707075
vn -0.707138 0.000000 0.707075
vn 0.707107 0.000000 0.707107
vn 0.707107 0.000000 0.707107
vn 0.707107 0.000000 0.707107
vn 0.707107 0.000000 0.707107
vn 0.000000 1.000000 0.000000
vn 0.000000 1.000000 0.000000
vn 0.000000 1.000000 0.000000
vn 0.000000 1.000000 0.000000
vn -0.707106 0.000000 -0.707107
vn -0.707106 0.000000 -0.707107
vn -0.707106 0.000000 -0.707107
vn -0.707106 0.000000 -0.707107
vn 0.000000 -1.000000 0.000000
vn 0.000000 -1.000000 0.000000
vn 0.000000 -1.000000 0.000000
vn 0.000000 -1.000000 0.000000
vn 0.707138 0.000000 -0.707076
vn 0.707138 0.000000 -0.707076
vn 0.707138 0.000000 -0.707076
vn 0.707138 0.000000 -0.707076
vn -0.707138 0.000000 0.707075
vn -0.707138 0.000000 0.707075
vn -0.707138 0.000000 0.707075
vn -0.707138 0.000000 0.707075
vn 0.998772 -0.048899 -0.007944
vn 0.998799 -0.048836 -0.003909
vn 0.998799 -0.048836 -0.003909
vn 0.998772 -0.048899 -0.007944
vn 0.998798 -0.048974 -0.001928
vn 0.998798 -0.048974 -0.001928
vn -0.112937 0.980462 0.161057
vn -0.114070 0.990310 0.079215
vn -0.057128 0.995188 0.079605
vn -0.056559 0.985196 0.161832
vn -0.114342 0.992676 0.039002
vn -0.057265 0.997589 0.039195
vn -0.998773 -0.048877 -0.007939
vn -0.998802 -0.048779 -0.003906
vn -0.998802 -0.048779 -0.003906
vn -0.998773 -0.048877 -0.007939
vn -0.998802 -0.048897 -0.001927
vn -0.998802 -0.048897 -0.001927
vn -0.064870 -0.985413 -0.157332
vn -0.065475 -0.994668 -0.079674
vn -0.130669 -0.988261 -0.079162
vn -0.129467 -0.979182 -0.156338
vn -0.065631 -0.997066 -0.039394
vn -0.130980 -0.990612 -0.039139
vn -0.001029 -0.270037 0.962849
vn -0.002059 -0.252872 0.967498
vn -0.002059 -0.252872 0.967498
vn -0.001029 -0.270037 0.962849
vn -0.128603 -0.972655 -0.193398
vn -0.064435 -0.978761 -0.194614
vn 0.998744 -0.049102 -0.009999
vn 0.998744 -0.049102 -0.009999
vn -0.056119 0.977468 0.203488
vn -0.112061 0.972844 0.202528
vn -0.998744 -0.049092 -0.009992
vn -0.998744 -0.049092 -0.009992
vn 0.000000 0.000000 -1.000000
vn 0.000000 0.000000 -1.000000
vn 0.000000 0.000000 -1.000000
vn 0.000000 0.000000 -1.000000
vn 0.055380 0.985262 0.161840
vn 0.054947 0.977533 0.203496
vn 0.001008 -0.270040 0.962849
vn 0.001008 -0.270040 0.962849
vn 0.063091 -0.978845 -0.194632
vn 0.063518 -0.985499 -0.157347
vn 0.064110 -0.994757 -0.079681
vn 0.064263 -0.997155 -0.039398
vn 0.000000 0.000000 -1.000000
vn 0.000000 0.000000 -1.000000
vn 0.056072 0.997657 0.039198
vn 0.055938 0.995255 0.079610
vn 0.110589 0.980724 0.161095
vn 0.109727 0.973101 0.202570
vn 0.002015 -0.252879 0.967496
vn 0.002015 -0.252879 0.967496
vn 0.125931 -0.972991 -0.193468
vn 0.126778 -0.979524 -0.156395
vn 0.127955 -0.988613 -0.079190
vn 0.128260 -0.990967 -0.039153
vn 0.000000 0.000000 -1.000000
vn 0.000000 0.000000 -1.000000
vn 0.111967 0.992946 0.039012
vn 0.111701 0.990578 0.079237
vn 0.992359 -0.121952 -0.018745
vn 0.992979 -0.117964 -0.008842
vn 0.992979 -0.117964 -0.008842
vn 0.992359 -0.121952 -0.018745
vn 0.993459 -0.114135 -0.003593
vn 0.993459 -0.114135 -0.003593
vn 0.000000 0.988340 0.152263
vn 0.000000 0.988340 0.152263
vn 0.000000 0.997017 0.077186
vn 0.000000 0.997017 0.077186
vn 0.000000 0.999229 0.039259
vn 0.000000 0.999229 0.039259
vn -0.992359 -0.121956 -0.018745
vn -0.992986 -0.117903 -0.008842
vn -0.992986 -0.117903 -0.008842
vn -0.992359 -0.121956 -0.018745
vn -0.993465 -0.114083 -0.003593
vn -0.993465 -0.114083 -0.003593
vn 0.000000 -0.997589 -0.069393
vn 0.000000 -0.988530 -0.151027
vn 0.000000 -0.988530 -0.151027
vn 0.000000 -0.997589 -0.069393
vn 0.000000 -0.999719 -0.023697
vn 0.000000 -0.999719 -0.023697
vn 0.000000 -0.342138 0.939650
vn 0.000000 -0.342138 0.939650
vn 0.000000 -0.342138 0.939650
vn 0.000000 -0.342138 0.939650
vn 0.000000 -0.982377 -0.186909
vn 0.000000 -0.982377 -0.186909
vn 0.992240 -0.122115 -0.023400
vn 0.992240 -0.122115 -0.023400
vn 0.000000 0.981918 0.189309
vn 0.000000 0.981918 0.189309
vn -0.992231 -0.122192 -0.023400
vn -0.992231 -0.122192 -0.023400
vn 0.000000 0.000000 -1.000000
vn 0.000000 0.000000 -1.000000
vn 0.000000 0.000000 -1.000000
vn 0.000000 0.000000 -1.000000
vn 0.992363 -0.121961 -0.018490
vn 0.992980 -0.117972 -0.008586
vn 0.992980 -0.117972 -0.008586
vn 0.992363 -0.121961 -0.018490
vn 0.993459 -0.114135 -0.003593
vn 0.993459 -0.114135 -0.003593
vn 0.000000 0.988653 0.150220
vn 0.000000 0.988653 0.150220
vn 0.000000 0.997174 0.075126
vn 0.000000 0.997174 0.075126
vn 0.000000 0.999229 0.039259
vn 0.000000 0.999229 0.039259
vn -0.992362 -0.121964 -0.018490
vn -0.992987 -0.117911 -0.008586
vn -0.992987 -0.117911 -0.008586
vn -0.992362 -0.121964 -0.018490
vn -0.993465 -0.114083 -0.003593
vn -0.993465 -0.114083 -0.003593
vn 0.000000 -0.997732 -0.067307
vn 0.000000 -0.988843 -0.148960
vn 0.000000 -0.988843 -0.148960
vn 0.000000 -0.997732 -0.067307
vn 0.000000 -0.999719 -0.023697
vn 0.000000 -0.999719 -0.023697
vn 0.000000 -0.342137 0.939650
vn 0.000000 -0.342137 0.939650
vn 0.000000 -0.342137 0.939650
vn 0.000000 -0.342137 0.939650
vn 0.000000 -0.982377 -0.186909
vn 0.000000 -0.982377 -0.186909
vn 0.992240 -0.122115 -0.023400
vn 0.992240 -0.122115 -0.023400
vn 0.000000 0.981918 0.189309
vn 0.000000 0.981918 0.189309
vn -0.992231 -0.122192 -0.023400
vn -0.992231 -0.122192 -0.023400
vn 0.000000 0.000000 -1.000000
vn 0.000000 0.000000 -1.000000
vn 0.000000 0.000000 -1.000000
vn 0.000000 0.000000 -1.000000
vn 0.707106 0.000000 0.707107
vn 0.707106 0.000000 0.707107
vn 0.707106 0.000000 0.707107
vn 0.707106 0.000000 0.707107
vn 0.000000 1.000000 0.000000
vn 0.000000 1.000000 0.000000
vn 0.000000 1.000000 0.000000
vn 0.000000 1.000000 0.000000
vn -0.707106 0.000000 -0.707107
vn -0.707106 0.000000 -0.707107
vn -0.707106 0.000000 -0.707107
vn -0.707106 0.000000 -0.707107
vn 0.000000 -1.000000 0.000000
vn 0.000000 -1.000000 0.000000
vn 0.000000 -1.000000 0.000000
vn 0.000000 -1.000000 0.000000
vn 0.707138 0.000000 -0.707075
vn 0.707138 0.000000 -0.707075
vn 0.707138 0.000000 -0.707075
vn 0.707138 0.000000 -0.707075
vn -0.707138 0.000000 0.707075
vn -0.707138 0.000000 0.707075
vn -0.707138 0.000000 0.707075
vn -0.707138 0.000000 0.707075
vn 0.707107 0.000000 0.707107
vn 0.707107 0.000000 0.707107
vn 0.707107 0.000000 0.707107
vn 0.707107 0.000000 0.707107
vn 0.000000 1.000000 0.000000
vn 0.000000 1.000000 0.000000
vn 0.000000 1.000000 0.000000
vn 0.000000 1.000000 0.000000
vn -0.707106 0.000000 -0.707107
vn -0.707106 0.000000 -0.707107
vn -0.707106 0.000000 -0.707107
vn -0.707106 0.000000 -0.707107
vn 0.000000 -1.000000 0.000000
vn 0.000000 -1.000000 0.000000
vn 0.000000 -1.000000 0.000000
vn 0.000000 -1.000000 0.000000
vn 0.707138 0.000000 -0.707076
vn 0.707138 0.000000 -0.707076
vn 0.707138 0.000000 -0.707076
vn 0.707138 0.000000 -0.707076
vn -0.707138 0.000000 0.707075
vn -0.707138 0.000000 0.707075
vn -0.707138 0.000000 0.707075
vn -0.707138 0.000000 0.707075
s 1
g polySurface10059
f 1/1/1 2/2/2 5/3/3 4/4/4
f 2/2/2 3/5/5 6/6/6 5/3/3
s 2
f 7/7/7 4/4/8 5/3/9 8/8/10
f 5/3/9 6/6/11 9/9/12 8/8/10
s 3
f 7/7/13 8/8/14 11/10/15 10/11/16
f 8/8/14 9/9/17 12/12/18 11/13/15
s 4
f 2/2/19 1/1/20 10/14/21 11/15/22
f 3/5/23 2/2/19 11/16/22 12/17/24
s off
f 14/18/25 15/19/26 16/20/27 13/21/28
s 4
f 1/1/20 14/22/29 13/23/30 10/24/21
s 1
f 4/4/4 15/25/31 14/22/32 1/1/1
s 2
f 15/25/33 4/4/8 7/7/7 16/26/34
s 3
f 10/27/16 13/28/35 16/26/36 7/7/13
s off
f 6/29/37 3/30/38 12/31/39 9/32/40
s 7
f 17/33/41 18/34/42 21/35/43 20/36/44
f 18/34/42 19/37/45 22/38/46 21/35/43
s 8
f 23/39/47 20/36/48 21/35/49 24/40/50
f 21/35/49 22/38/51 25/41/52 24/40/50
s 9
f 23/39/53 24/40/54 27/42/55 26/43/56
f 24/40/54 25/41/57 28/44/58 27/45/55
s 10
f 18/34/59 17/33/60 26/46/61 27/47/62
f 19/37/63 18/34/59 27/48/62 28/49/64
s off
f 30/50/65 31/51/66 32/52/67 29/53/68
s 10
f 17/33/60 30/54/69 29/55/70 26/56/61
s 7
f 20/36/44 31/57/71 30/54/72 17/33/41
s 8
f 31/57/73 20/36/48 23/39/47 32/58/74
s 9
f 26/59/56 29/60/75 32/58/76 23/39/53
s off
f 22/61/77 19/62/78 28/63/79 25/64/80
f 33/65/81 34/66/82 36/67/83 35/68/84
f 35/68/85 36/67/86 38/69/87 37/70/88
f 37/70/89 38/69/90 40/71/91 39/72/92
f 39/72/93 40/71/94 34/73/95 33/74/96
f 34/66/97 40/75/98 38/76/99 36/67/100
f 39/77/101 33/65/102 35/68/103 37/78/104
f 41/79/105 42/80/106 44/81/107 43/82/108
f 43/82/109 44/81/110 46/83/111 45/84/112
f 45/84/113 46/83/114 48/85/115 47/86/116
f 47/86/117 48/85/118 42/87/119 41/88/120
f 42/80/121 48/89/122 46/90/123 44/81/124
f 47/91/125 41/79/126 43/82/127 45/92/128
s 25
f 49/93/129 50/94/130 53/95/131 52/96/132
f 50/94/130 51/97/133 54/98/134 53/95/131
s 26
f 52/96/135 53/95/136 72/99/137 65/100/138
f 53/95/136 54/98/139 71/101/140 72/99/137
s 27
f 55/102/141 56/103/142 59/104/143 58/105/144
f 56/103/142 57/106/145 60/107/146 59/108/143
s 28
f 68/109/147 69/110/148 50/94/149 49/93/150
f 69/111/148 70/112/151 51/97/152 50/94/149
s 29
f 67/113/153 62/114/154 63/115/155 66/116/156
s 28
f 49/93/150 62/117/157 67/118/158 68/119/147
s 25
f 52/96/132 63/120/159 62/117/160 49/93/129
s 26
f 65/100/138 66/121/161 63/120/162 52/96/135
s 27
f 58/122/144 61/123/163 64/124/164 55/102/141
s 30
f 51/125/165 70/126/166 71/127/167 54/128/168
s 26
f 73/129/169 74/130/170 66/121/161 65/100/138
s 29
f 75/131/171 67/113/153 66/116/156 74/132/172
s 28
f 68/119/147 67/118/158 75/133/173 76/134/174
f 76/135/174 77/136/175 69/110/148 68/109/147
f 77/137/175 78/138/176 70/112/151 69/111/148
s 30
f 71/127/167 70/126/166 78/139/177 79/140/178
s 26
f 72/99/137 71/101/140 79/141/179 80/142/180
f 65/100/138 72/99/137 80/142/180 73/129/169
f 55/102/181 64/124/182 74/130/170 73/129/169
s 29
f 61/143/183 75/131/171 74/132/172 64/144/184
s 28
f 76/134/174 75/133/173 61/145/185 58/146/186
f 58/147/186 59/148/187 77/136/175 76/135/174
f 59/149/187 60/150/188 78/138/176 77/137/175
s 30
f 79/140/178 78/139/177 60/151/189 57/152/190
s 26
f 80/142/180 79/141/179 57/106/191 56/103/192
f 73/129/169 80/142/180 56/103/192 55/102/181
s 31
f 81/153/193 82/154/194 85/155/195 84/156/196
f 82/154/194 83/157/197 86/158/198 85/155/195
s 32
f 87/159/199 84/156/200 85/155/201 88/160/202
f 85/155/201 86/158/203 89/161/204 88/160/202
s 33
f 87/159/205 88/160/206 91/162/207 90/163/208
f 88/160/206 89/161/209 92/164/210 91/165/207
s 34
f 82/154/211 81/153/212 90/166/213 91/167/214
f 83/157/215 82/154/211 91/168/214 92/169/216
s off
f 94/170/217 95/171/218 96/172/219 93/173/220
s 34
f 81/153/212 94/174/221 93/175/222 90/176/213
s 31
f 84/156/196 95/177/223 94/174/224 81/153/193
s 32
f 95/177/225 84/156/200 87/159/199 96/178/226
s 33
f 90/179/208 93/180/227 96/178/228 87/159/205
s off
f 86/181/229 83/182/230 92/183/231 89/184/232
s 37
f 97/185/233 98/186/234 101/187/235 100/188/236
f 98/186/234 99/189/237 102/190/238 101/187/235
s 38
f 103/191/239 100/188/240 101/187/241 104/192/242
f 101/187/241 102/190/243 105/193/244 104/192/242
s 39
f 103/191/245 104/192/246 107/194/247 106/195/248
f 104/192/246 105/193/249 108/196/250 107/197/247
s 40
f 98/186/251 97/185/252 106/198/253 107/199/254
f 99/189/255 98/186/251 107/200/254 108/201/256
s off
f 110/202/257 111/203/258 112/204/259 109/205/260
s 40
f 97/185/252 110/206/261 109/207/262 106/208/253
s 37
f 100/188/236 111/209/263 110/206/264 97/185/233
s 38
f 111/209/265 100/188/240 103/191/239 112/210/266
s 39
f 106/211/248 109/212/267 112/210/268 103/191/245
s off
f 102/213/269 99/214/270 108/215/271 105/216/272
f 113/217/273 114/218/274 116/219/275 115/220/276
f 115/220/277 116/219/278 118/221/279 117/222/280
f 117/222/281 118/221/282 120/223/283 119/224/284
f 119/224/285 120/223/286 114/225/287 113/226/288
f 114/218/289 120/227/290 118/228/291 116/219/292
f 119/229/293 113/217/294 115/220/295 117/230/296
f 121/231/297 122/232/298 124/233/299 123/234/300
f 123/234/301 124/233/302 126/235/303 125/236/304
f 125/236/305 126/235/306 128/237/307 127/238/308
f 127/238/309 128/237/310 122/239/311 121/240/312
f 122/232/313 128/241/314 126/242/315 124/233/316
f 127/243/317 121/231/318 123/234/319 125/244/320
