# This file uses centimeters as units for non-parametric coordinates.

g default
v -64.000275 -0.129172 -0.162533
v -64.000244 -0.061318 -0.162405
v -62.788403 -0.061318 -0.163773
v -62.787651 -0.129172 -0.163880
v -62.466911 -0.129172 -0.161293
v -62.467049 -0.061318 -0.161214
v -64.316322 -0.129171 -0.161537
v -64.316246 -0.061320 -0.161410
v -62.467033 -0.061318 0.048315
v -62.788403 -0.061318 0.048619
v -64.000038 -0.061318 0.048811
v -64.316795 -0.061320 0.048710
v -64.316879 -0.129171 0.048665
v -64.000084 -0.129172 0.048786
v -62.787788 -0.129172 0.048616
v -62.466900 -0.129172 0.048316
v -64.000267 -0.129172 0.162533
v -64.000244 -0.061318 0.162404
v -62.788403 -0.061318 0.163773
v -62.787647 -0.129172 0.163880
v -62.466908 -0.129172 0.161293
v -62.467041 -0.061318 0.161214
v -64.316315 -0.129171 0.161536
v -64.316238 -0.061320 0.161410
v -62.514801 0.725348 -0.096478
v -62.514801 0.784447 -0.096478
v -62.514801 0.784447 0.094680
v -62.514801 0.725348 0.094680
v -64.252365 0.784447 0.094680
v -64.252365 0.784447 -0.096478
v -64.252365 0.725348 -0.096478
v -64.252365 0.725348 0.094680
v -64.204407 2.542992 0.106893
v -64.204407 2.542992 -0.113090
v -64.313774 2.542992 0.106893
v -64.313774 2.542992 -0.113090
v -64.313774 -0.086360 0.106893
v -64.204407 -0.086360 0.106893
v -64.313774 -0.086362 -0.113090
v -64.204407 -0.086360 -0.113090
v -62.578110 2.542992 -0.113090
v -62.578110 2.542992 0.106893
v -62.468742 2.542992 -0.113090
v -62.468742 2.542992 0.106893
v -62.468742 -0.086360 -0.113090
v -62.578110 -0.086360 -0.113090
v -62.468742 -0.086362 0.106893
v -62.578110 -0.086360 0.106893
v -62.515335 2.531828 -0.065215
v -64.213181 2.531828 -0.065215
v -62.515335 2.531829 0.058639
v -64.213181 2.531828 0.058640
v -64.215485 0.738541 0.067668
v -62.567486 0.738541 0.067668
v -64.215485 -0.067264 0.067668
v -62.567486 -0.067264 0.067668
v -62.517296 0.773464 0.057807
v -64.216110 0.773464 0.057811
v -62.517296 0.773464 -0.064717
v -64.216110 0.773464 -0.064717
v -64.230881 -0.071909 -0.070390
v -64.230881 0.733020 -0.070390
v -62.557407 -0.071909 -0.070390
v -62.557407 0.733020 -0.070390
vt 0.432239 0.622142
vt 0.432239 0.367697
vt 0.432239 0.622142
vt 0.432239 0.367697
vt 0.442097 0.367697
vt 0.442097 0.622142
vt 0.432239 0.304090
vt 0.374526 0.304090
vt 0.432239 0.304090
vt 0.442097 0.304090
vt 0.374526 0.304090
vt 0.432239 0.304090
vt 0.374526 0.304090
vt 0.374526 0.293076
vt 0.432239 0.293076
vt 0.432239 0.304090
vt 0.432239 0.367697
vt 0.432239 0.304090
vt 0.432239 0.304090
vt 0.442097 0.304090
vt 0.442097 0.367697
vt 0.432239 0.367697
vt 0.432239 0.304090
vt 0.432239 0.367697
vt 0.432239 0.293076
vt 0.432239 0.304090
vt 0.432239 0.342997
vt 0.432239 0.342997
vt 0.397668 0.622142
vt 0.374526 0.342997
vt 0.397621 0.367697
vt 0.396937 0.367697
vt 0.396937 0.304090
vt 0.396937 0.304090
vt 0.396937 0.293076
vt 0.396937 0.304090
vt 0.396937 0.367697
vt 0.397621 0.367697
vt 0.397609 0.622142
vt 0.374526 0.342997
vt 0.442097 0.342997
vt 0.432239 0.342997
vt 0.432239 0.622142
vt 0.432239 0.367697
vt 0.413580 0.367697
vt 0.413574 0.622142
vt 0.432239 0.622142
vt 0.413606 0.622142
vt 0.413580 0.367697
vt 0.432239 0.367697
vt 0.442097 0.367697
vt 0.442097 0.622142
vt 0.374526 0.325060
vt 0.432239 0.325060
vt 0.432239 0.304090
vt 0.374526 0.304090
vt 0.432239 0.304090
vt 0.442097 0.304090
vt 0.442097 0.325060
vt 0.432239 0.325060
vt 0.432239 0.325060
vt 0.374526 0.325060
vt 0.374526 0.304090
vt 0.432239 0.304090
vt 0.374526 0.304090
vt 0.374526 0.293076
vt 0.432239 0.293076
vt 0.432239 0.304090
vt 0.413212 0.367697
vt 0.432239 0.367697
vt 0.432239 0.304090
vt 0.413212 0.304090
vt 0.432239 0.304090
vt 0.442097 0.304090
vt 0.442097 0.367697
vt 0.432239 0.367697
vt 0.413212 0.367697
vt 0.413212 0.304090
vt 0.432239 0.304090
vt 0.432239 0.367697
vt 0.413212 0.304090
vt 0.413212 0.293076
vt 0.432239 0.293076
vt 0.432239 0.304090
vt 0.226760 0.098953
vt 0.461340 0.098953
vt 0.461338 0.138236
vt 0.226761 0.138236
vt 0.226761 0.098953
vt 0.226761 0.088325
vt 0.461337 0.088325
vt 0.461337 0.098953
vt 0.226760 0.138236
vt 0.226761 0.098953
vt 0.461338 0.098953
vt 0.461340 0.138236
vt 0.226760 0.088325
vt 0.461340 0.088325
vt 0.379501 0.067333
vt 0.379501 0.030469
vt 0.393110 0.030469
vt 0.393110 0.067333
vt 0.005869 0.088435
vt 0.005869 0.067333
vt 0.393110 0.067333
vt 0.393110 0.088435
vt 0.393110 0.067333
vt 0.393110 0.088435
vt 0.005869 0.088435
vt 0.005869 0.067333
vt 0.005869 0.030469
vt 0.393110 0.030469
vt 0.005869 0.067333
vt 0.005869 0.030469
vt 0.393110 0.030469
vt 0.393110 0.067333
vt 0.005869 0.067333
vt 0.005869 0.030469
vt 0.019458 0.030469
vt 0.019458 0.067333
vt 0.379501 0.067333
vt 0.379501 0.030469
vt 0.393110 0.030469
vt 0.393110 0.067333
vt 0.005869 0.088435
vt 0.005869 0.067333
vt 0.393110 0.067333
vt 0.393110 0.088435
vt 0.393110 0.067333
vt 0.393110 0.088435
vt 0.005869 0.088435
vt 0.005869 0.067333
vt 0.005869 0.030469
vt 0.393110 0.030469
vt 0.005869 0.067333
vt 0.005869 0.030469
vt 0.393110 0.030469
vt 0.393110 0.067333
vt 0.005869 0.067333
vt 0.005869 0.030469
vt 0.019458 0.030469
vt 0.019458 0.067333
vt 0.516770 0.881168
vt 0.362282 0.881168
vt 0.362282 0.865504
vt 0.516770 0.865504
vt 0.225894 0.144889
vt 0.501337 0.144889
vt 0.501337 0.278387
vt 0.225894 0.278387
vt 0.516770 0.991581
vt 0.362282 0.991581
vt 0.362282 0.878297
vt 0.516770 0.878297
vt 0.516770 0.868178
vt 0.516770 0.758791
vt 0.362282 0.758791
vt 0.362282 0.868178
vt 0.532447 0.928638
vt 0.532447 0.994678
vt 0.690833 0.994678
vt 0.690833 0.928638
vn -0.000000 -1.000000 0.000000
vn -0.000000 -1.000000 -0.000000
vn -0.000001 -1.000000 -0.000000
vn -0.000001 -1.000000 0.000000
vn -0.000000 1.000000 0.000000
vn -0.000002 1.000000 0.000000
vn -0.000002 1.000000 -0.000000
vn -0.000000 1.000000 -0.000000
vn -0.002134 0.001804 -0.999996
vn 0.003447 0.001580 -0.999993
vn 0.003447 0.001580 -0.999993
vn -0.002134 0.001804 -0.999996
vn -0.000000 -1.000000 0.000000
vn -0.000000 -1.000000 -0.000000
vn 0.999998 0.001996 -0.000064
vn 0.999998 0.002025 0.000002
vn 0.999998 0.002025 0.000002
vn 0.999998 0.001996 -0.000064
vn -0.000001 1.000000 0.000000
vn -0.000001 1.000000 0.000000
vn 0.008014 0.001430 -0.999967
vn 0.008014 0.001430 -0.999967
vn -0.000001 -1.000000 -0.000000
vn -0.000001 -1.000000 0.000000
vn -0.003149 0.001878 -0.999993
vn -0.003149 0.001878 -0.999993
vn -0.000004 1.000000 0.000000
vn -0.000004 1.000000 -0.000000
vn -0.999999 0.001255 0.001170
vn -0.999996 0.001263 -0.002632
vn -0.999996 0.001263 -0.002632
vn -0.999999 0.001255 0.001170
vn -0.000000 -1.000000 -0.000000
vn -0.000001 -1.000000 -0.000000
vn -0.000000 1.000000 -0.000000
vn -0.000002 1.000000 -0.000000
vn -0.002135 0.001808 0.999996
vn -0.002135 0.001808 0.999996
vn 0.003447 0.001584 0.999993
vn 0.003447 0.001584 0.999993
vn -0.000000 -1.000000 -0.000000
vn 0.999998 0.002053 0.000068
vn 0.999998 0.002053 0.000068
vn -0.000001 1.000000 0.000000
vn 0.008014 0.001430 0.999967
vn 0.008014 0.001430 0.999967
vn -0.000001 -1.000000 -0.000000
vn -0.003149 0.001878 0.999993
vn -0.003149 0.001878 0.999993
vn -0.000004 1.000000 -0.000001
vn -0.999987 0.001246 0.004972
vn -0.999987 0.001246 0.004972
vn 0.000000 1.000000 0.000000
vn 0.000000 1.000000 0.000000
vn 0.000000 1.000000 0.000000
vn 0.000000 1.000000 0.000000
vn 0.000000 0.000000 -1.000000
vn 0.000000 0.000000 -1.000000
vn 0.000000 0.000000 -1.000000
vn 0.000000 0.000000 -1.000000
vn -0.000000 -1.000000 0.000000
vn -0.000000 -1.000000 0.000000
vn -0.000000 -1.000000 0.000000
vn -0.000000 -1.000000 0.000000
vn -0.000000 0.000000 1.000000
vn -0.000000 0.000000 1.000000
vn -0.000000 0.000000 1.000000
vn -0.000000 0.000000 1.000000
vn 0.000000 1.000000 0.000000
vn 0.000000 1.000000 0.000000
vn 0.000000 1.000000 0.000000
vn 0.000000 1.000000 0.000000
vn 0.000000 0.000000 1.000000
vn 0.000000 0.000000 1.000000
vn 0.000000 0.000000 1.000000
vn 0.000000 0.000000 1.000000
vn 0.000000 0.000000 -1.000000
vn 0.000000 0.000000 -1.000000
vn 0.000000 0.000000 -1.000000
vn 0.000000 0.000000 -1.000000
vn 1.000000 0.000000 0.000000
vn 1.000000 0.000000 0.000000
vn 1.000000 0.000000 0.000000
vn 1.000000 0.000000 0.000000
vn -1.000000 0.000000 0.000000
vn -1.000000 0.000000 0.000000
vn -1.000000 0.000000 0.000000
vn -1.000000 0.000000 0.000000
vn 0.000009 -1.000000 0.000004
vn 0.000009 -1.000000 0.000004
vn 0.000009 -1.000000 0.000004
vn 0.000009 -1.000000 0.000004
vn 0.000000 1.000000 0.000000
vn 0.000000 1.000000 0.000000
vn 0.000000 1.000000 0.000000
vn 0.000000 1.000000 0.000000
vn 0.000000 0.000000 -1.000000
vn 0.000000 0.000000 -1.000000
vn 0.000000 0.000000 -1.000000
vn 0.000000 0.000000 -1.000000
vn 0.000000 0.000000 1.000000
vn 0.000000 0.000000 1.000000
vn 0.000000 0.000000 1.000000
vn 0.000000 0.000000 1.000000
vn -1.000000 0.000000 0.000000
vn -1.000000 0.000000 0.000000
vn -1.000000 0.000000 0.000000
vn -1.000000 0.000000 0.000000
vn 1.000000 0.000000 0.000000
vn 1.000000 0.000000 0.000000
vn 1.000000 0.000000 0.000000
vn 1.000000 0.000000 0.000000
vn -0.000009 -1.000000 -0.000004
vn -0.000009 -1.000000 -0.000004
vn -0.000009 -1.000000 -0.000004
vn -0.000009 -1.000000 -0.000004
vn -0.000000 1.000000 0.000000
vn -0.000000 1.000000 0.000000
vn -0.000000 1.000000 0.000000
vn -0.000000 1.000000 0.000000
vn 0.000000 0.000000 1.000000
vn 0.000000 0.000000 1.000000
vn 0.000000 0.000000 1.000000
vn 0.000000 0.000000 1.000000
vn 0.000002 -0.000472 1.000000
vn 0.000002 -0.000472 1.000000
vn 0.000002 -0.000472 1.000000
vn 0.000002 -0.000472 1.000000
vn 0.000000 -0.000283 -1.000000
vn 0.000000 -0.000283 -1.000000
vn 0.000000 -0.000283 -1.000000
vn 0.000000 -0.000283 -1.000000
vn 0.000000 0.000000 -1.000000
vn 0.000000 0.000000 -1.000000
vn 0.000000 0.000000 -1.000000
vn 0.000000 0.000000 -1.000000
s 1
g polySurface26229
f 4/1/1 15/39/2 14/38/3 1/2/4
s 2
f 3/3/5 2/4/6 11/31/7 10/29/8
s 3
f 2/4/9 3/3/10 4/6/11 1/5/12
s 1
f 15/40/2 4/8/1 5/7/13 16/42/14
s 4
f 6/9/15 9/28/16 16/41/17 5/10/18
s 2
f 9/27/19 6/12/20 3/11/5 10/30/8
s 3
f 3/13/10 6/16/21 5/15/22 4/14/11
s 1
f 14/37/3 13/36/23 7/18/24 1/17/4
s 3
f 8/19/25 2/22/9 1/21/12 7/20/26
s 2
f 11/32/7 2/24/6 8/23/27 12/33/28
s 5
f 12/34/29 8/26/30 7/25/31 13/35/32
s 1
f 20/43/33 17/44/34 14/45/3 15/46/2
s 2
f 19/47/35 10/48/8 11/49/7 18/50/36
s 6
f 18/50/37 17/51/38 20/52/39 19/47/40
s 1
f 15/53/2 16/54/14 21/55/41 20/56/33
s 4
f 22/57/42 21/58/43 16/59/17 9/60/16
s 2
f 9/61/19 10/62/8 19/63/35 22/64/44
s 6
f 19/65/40 20/66/39 21/67/45 22/68/46
s 1
f 14/69/3 17/70/34 23/71/47 13/72/23
s 6
f 24/73/48 23/74/49 17/75/38 18/76/37
s 2
f 11/77/7 12/78/28 24/79/50 18/80/36
s 5
f 12/81/29 13/82/32 23/83/51 24/84/52
s off
f 29/85/53 27/86/54 26/87/55 30/88/56
f 31/89/57 30/90/58 26/91/59 25/92/60
f 32/93/61 31/94/62 25/95/63 28/96/64
f 29/85/65 32/97/66 28/98/67 27/86/68
f 36/99/69 35/100/70 33/101/71 34/102/72
f 37/103/73 38/104/74 33/105/75 35/106/76
f 36/107/77 34/108/78 40/109/79 39/110/80
f 38/104/81 40/111/82 34/112/83 33/105/84
f 39/113/85 37/114/86 35/115/87 36/116/88
f 40/117/89 38/118/90 37/119/91 39/120/92
f 44/121/93 43/122/94 41/123/95 42/124/96
f 45/125/97 46/126/98 41/127/99 43/128/100
f 44/129/101 42/130/102 48/131/103 47/132/104
f 46/126/105 48/133/106 42/134/107 41/127/108
f 47/135/109 45/136/110 43/137/111 44/138/112
f 48/139/113 46/140/114 45/141/115 47/142/116
f 49/143/117 50/144/118 52/145/119 51/146/120
f 55/147/121 56/148/122 54/149/123 53/150/124
f 51/151/125 52/152/126 58/153/127 57/154/128
f 49/155/129 59/156/130 60/157/131 50/158/132
f 61/159/133 62/160/134 64/161/135 63/162/136
