# This file uses centimeters as units for non-parametric coordinates.

g default
v -46.641552 0.214460 -0.709122
v -46.641552 0.272640 -0.709122
v -46.356682 0.272640 -0.709122
v -46.356682 0.214460 -0.709122
v -46.641552 0.272640 0.695084
v -46.641552 0.214460 0.695084
v -46.356682 0.214460 0.695084
v -46.356682 0.272640 0.695084
v -46.967319 0.401133 -0.709122
v -46.967319 0.459313 -0.709122
v -46.682442 0.459313 -0.709122
v -46.682442 0.401133 -0.709122
v -46.967319 0.459313 0.695084
v -46.967319 0.401133 0.695084
v -46.682442 0.401133 0.695084
v -46.682442 0.459313 0.695084
v -47.293083 0.587806 -0.709122
v -47.293083 0.645986 -0.709122
v -47.008213 0.645986 -0.709122
v -47.008213 0.587806 -0.709122
v -47.293083 0.645986 0.695084
v -47.293083 0.587806 0.695084
v -47.008213 0.587806 0.695084
v -47.008213 0.645986 0.695084
v -47.618843 0.774479 -0.709122
v -47.618843 0.832659 -0.709122
v -47.333973 0.832659 -0.709122
v -47.333973 0.774479 -0.709122
v -47.618843 0.832659 0.695084
v -47.618843 0.774479 0.695084
v -47.333973 0.774479 0.695084
v -47.333973 0.832659 0.695084
v -47.944607 0.961152 -0.709122
v -47.944607 1.019332 -0.709122
v -47.659737 1.019332 -0.709122
v -47.659737 0.961152 -0.709122
v -47.944607 1.019333 0.695084
v -47.944607 0.961152 0.695084
v -47.659737 0.961152 0.695084
v -47.659737 1.019333 0.695084
v -48.270367 1.147825 -0.709122
v -48.270367 1.206006 -0.709122
v -47.985497 1.206006 -0.709122
v -47.985497 1.147825 -0.709122
v -48.270367 1.206006 0.695084
v -48.270367 1.147825 0.695084
v -47.985497 1.147825 0.695084
v -47.985497 1.206006 0.695084
v -48.596130 1.334498 -0.709122
v -48.596130 1.392678 -0.709122
v -48.311260 1.392678 -0.709122
v -48.311260 1.334498 -0.709122
v -48.596130 1.392679 0.695084
v -48.596130 1.334498 0.695084
v -48.311260 1.334498 0.695084
v -48.311260 1.392679 0.695084
v -48.921894 1.521171 -0.709122
v -48.921894 1.579352 -0.709122
v -48.637020 1.579352 -0.709122
v -48.637020 1.521171 -0.709122
v -48.921894 1.579352 0.695084
v -48.921894 1.521171 0.695084
v -48.637020 1.521171 0.695084
v -48.637020 1.579352 0.695084
v -49.247658 1.707844 -0.709122
v -49.247658 1.766025 -0.709122
v -48.962788 1.766025 -0.709122
v -48.962788 1.707844 -0.709122
v -49.247658 1.766025 0.695084
v -49.247658 1.707844 0.695084
v -48.962788 1.707844 0.695084
v -48.962788 1.766025 0.695084
v -49.573421 1.894517 -0.709122
v -49.573421 1.952698 -0.709122
v -49.288548 1.952698 -0.709122
v -49.288548 1.894517 -0.709122
v -49.573421 1.952698 0.695084
v -49.573421 1.894517 0.695084
v -49.288548 1.894517 0.695084
v -49.288548 1.952698 0.695084
v -49.899181 2.081190 -0.709122
v -49.899181 2.139371 -0.709122
v -49.614311 2.139371 -0.709122
v -49.614311 2.081190 -0.709122
v -49.899181 2.139371 0.695084
v -49.899181 2.081190 0.695084
v -49.614311 2.081190 0.695084
v -49.614311 2.139371 0.695084
v -50.224945 2.267863 -0.709122
v -50.224945 2.326044 -0.709122
v -49.940075 2.326044 -0.709122
v -49.940075 2.267863 -0.709122
v -50.224945 2.326044 0.695084
v -50.224945 2.267863 0.695084
v -49.940075 2.267863 0.695084
v -49.940075 2.326044 0.695084
v -50.875423 2.644433 -0.712326
v -50.875423 2.702613 -0.712326
v -50.590553 2.702613 -0.712326
v -50.590553 2.644433 -0.712326
v -50.875423 2.702613 0.691879
v -50.875423 2.644433 0.691879
v -50.590553 2.644433 0.691879
v -50.590553 2.702613 0.691879
v -50.549660 2.457760 -0.712326
v -50.549660 2.515940 -0.712326
v -50.264790 2.515940 -0.712326
v -50.264790 2.457760 -0.712326
v -50.549660 2.515940 0.691879
v -50.549660 2.457759 0.691879
v -50.264790 2.457759 0.691879
v -50.264790 2.515940 0.691879
v -49.362267 2.015525 -0.734634
v -49.362267 2.015525 -0.677658
v -49.487461 1.798684 -0.677658
v -49.487461 1.798684 -0.734634
v -46.123245 0.177629 -0.734634
v -46.123245 0.177629 -0.677658
v -46.248436 -0.039213 -0.677658
v -46.248436 -0.039213 -0.734634
v -50.930290 2.904061 -0.677658
v -50.930290 2.904061 -0.734634
v -51.054886 2.686880 -0.734634
v -51.054874 2.686873 -0.677658
v -49.362267 2.015525 0.677658
v -49.362267 2.015525 0.734634
v -49.487461 1.798684 0.734634
v -49.487461 1.798684 0.677658
v -46.123245 0.177629 0.677658
v -46.123245 0.177629 0.734634
v -46.248436 -0.039213 0.734634
v -46.248436 -0.039213 0.677658
v -50.930290 2.904061 0.734634
v -50.930290 2.904061 0.677658
v -51.054886 2.686880 0.677658
v -51.054874 2.686873 0.734634
vt 0.494060 0.098953
vt 0.494058 0.138236
vt 0.494057 0.088325
vt 0.494057 0.098953
vt 0.494058 0.098953
vt 0.494060 0.138236
vt 0.494060 0.088325
vt 0.343629 0.088325
vt 0.343629 0.138236
vt 0.343629 0.098953
vt 0.343629 0.098953
vt 0.343630 0.088325
vt 0.343630 0.138236
vt 0.343630 0.098953
vt 0.235244 0.098953
vt 0.235244 0.088325
vt 0.385672 0.088325
vt 0.385672 0.098953
vt 0.235245 0.138236
vt 0.235245 0.098953
vt 0.385673 0.098953
vt 0.385676 0.138236
vt 0.235245 0.098953
vt 0.235245 0.088325
vt 0.385676 0.088325
vt 0.385676 0.098953
vt 0.235245 0.138236
vt 0.385673 0.138236
vt 0.077780 0.098953
vt 0.077780 0.088325
vt 0.228208 0.088325
vt 0.228208 0.098953
vt 0.077781 0.138236
vt 0.077780 0.098953
vt 0.228209 0.098953
vt 0.228212 0.138236
vt 0.077781 0.098953
vt 0.077781 0.088325
vt 0.228212 0.088325
vt 0.228212 0.098953
vt 0.077780 0.138236
vt 0.228209 0.138236
vt 0.343629 0.098953
vt 0.343629 0.088325
vt 0.494057 0.088325
vt 0.494057 0.098953
vt 0.343630 0.138236
vt 0.343629 0.098953
vt 0.494058 0.098953
vt 0.494060 0.138236
vt 0.343630 0.098953
vt 0.343630 0.088325
vt 0.494060 0.088325
vt 0.494060 0.098953
vt 0.343629 0.138236
vt 0.494058 0.138236
vt 0.235244 0.098953
vt 0.235244 0.088325
vt 0.385672 0.088325
vt 0.385672 0.098953
vt 0.235245 0.138236
vt 0.235245 0.098953
vt 0.385673 0.098953
vt 0.385676 0.138236
vt 0.235245 0.098953
vt 0.235245 0.088325
vt 0.385676 0.088325
vt 0.385676 0.098953
vt 0.235245 0.138236
vt 0.385673 0.138236
vt 0.077780 0.098953
vt 0.077780 0.088325
vt 0.228208 0.088325
vt 0.228208 0.098953
vt 0.077781 0.138236
vt 0.077780 0.098953
vt 0.228209 0.098953
vt 0.228212 0.138236
vt 0.077781 0.098953
vt 0.077781 0.088325
vt 0.228212 0.088325
vt 0.228212 0.098953
vt 0.077780 0.138236
vt 0.228209 0.138236
vt 0.343629 0.098953
vt 0.343629 0.088325
vt 0.494057 0.088325
vt 0.494057 0.098953
vt 0.343630 0.138236
vt 0.343629 0.098953
vt 0.494058 0.098953
vt 0.494060 0.138236
vt 0.343630 0.098953
vt 0.343630 0.088325
vt 0.494060 0.088325
vt 0.494060 0.098953
vt 0.343629 0.138236
vt 0.494058 0.138236
vt 0.235244 0.098953
vt 0.235244 0.088325
vt 0.385672 0.088325
vt 0.385672 0.098953
vt 0.235245 0.138236
vt 0.235245 0.098953
vt 0.385673 0.098953
vt 0.385676 0.138236
vt 0.235245 0.098953
vt 0.235245 0.088325
vt 0.385676 0.088325
vt 0.385676 0.098953
vt 0.235245 0.138236
vt 0.385673 0.138236
vt 0.077780 0.098953
vt 0.077780 0.088325
vt 0.228208 0.088325
vt 0.228208 0.098953
vt 0.077781 0.138236
vt 0.077780 0.098953
vt 0.228209 0.098953
vt 0.228212 0.138236
vt 0.077781 0.098953
vt 0.077781 0.088325
vt 0.228212 0.088325
vt 0.228212 0.098953
vt 0.077780 0.138236
vt 0.228209 0.138236
vt 0.343629 0.098953
vt 0.343629 0.088325
vt 0.494057 0.088325
vt 0.494057 0.098953
vt 0.343630 0.138236
vt 0.343629 0.098953
vt 0.494058 0.098953
vt 0.494060 0.138236
vt 0.343630 0.098953
vt 0.343630 0.088325
vt 0.494060 0.088325
vt 0.494060 0.098953
vt 0.343629 0.138236
vt 0.494058 0.138236
vt 0.235244 0.098953
vt 0.235244 0.088325
vt 0.385672 0.088325
vt 0.385672 0.098953
vt 0.235245 0.138236
vt 0.235245 0.098953
vt 0.385673 0.098953
vt 0.385676 0.138236
vt 0.235245 0.098953
vt 0.235245 0.088325
vt 0.385676 0.088325
vt 0.385676 0.098953
vt 0.235245 0.138236
vt 0.385673 0.138236
vt 0.077780 0.098953
vt 0.077780 0.088325
vt 0.228208 0.088325
vt 0.228208 0.098953
vt 0.077781 0.138236
vt 0.077780 0.098953
vt 0.228209 0.098953
vt 0.228212 0.138236
vt 0.077781 0.098953
vt 0.077781 0.088325
vt 0.228212 0.088325
vt 0.228212 0.098953
vt 0.077780 0.138236
vt 0.228209 0.138236
vt 0.235244 0.098953
vt 0.235244 0.088325
vt 0.385672 0.088325
vt 0.385672 0.098953
vt 0.235245 0.138236
vt 0.235245 0.098953
vt 0.385673 0.098953
vt 0.385676 0.138236
vt 0.235245 0.098953
vt 0.235245 0.088325
vt 0.385676 0.088325
vt 0.385676 0.098953
vt 0.235245 0.138236
vt 0.385673 0.138236
vt 0.343629 0.098953
vt 0.343629 0.088325
vt 0.494057 0.088325
vt 0.494057 0.098953
vt 0.343630 0.138236
vt 0.343629 0.098953
vt 0.494058 0.098953
vt 0.494060 0.138236
vt 0.343630 0.098953
vt 0.343630 0.088325
vt 0.494060 0.088325
vt 0.494060 0.098953
vt 0.343629 0.138236
vt 0.494058 0.138236
vt 0.195266 0.098918
vt 0.494060 0.098953
vt 0.494058 0.138236
vt 0.195267 0.138234
vt 0.195269 0.098794
vt 0.195269 0.088483
vt 0.494057 0.088325
vt 0.494057 0.098953
vt 0.195267 0.138175
vt 0.195267 0.098955
vt 0.494058 0.098953
vt 0.494060 0.138236
vt 0.195267 0.088483
vt 0.494060 0.088325
vt 0.296334 0.098953
vt 0.296334 0.088325
vt 0.492242 0.088483
vt 0.492242 0.098794
vt 0.296411 0.138236
vt 0.296334 0.098953
vt 0.492292 0.098955
vt 0.492258 0.138175
vt 0.296411 0.098953
vt 0.296411 0.088325
vt 0.492308 0.088483
vt 0.492298 0.098918
vt 0.296334 0.138236
vt 0.492292 0.138234
vt 0.195266 0.098918
vt 0.494060 0.098953
vt 0.494058 0.138236
vt 0.195267 0.138234
vt 0.195269 0.098794
vt 0.195269 0.088483
vt 0.494057 0.088325
vt 0.494057 0.098953
vt 0.195267 0.138175
vt 0.195267 0.098955
vt 0.494058 0.098953
vt 0.494060 0.138236
vt 0.195267 0.088483
vt 0.494060 0.088325
vt 0.296334 0.098953
vt 0.296334 0.088325
vt 0.492242 0.088483
vt 0.492242 0.098794
vt 0.296411 0.138236
vt 0.296334 0.098953
vt 0.492292 0.098955
vt 0.492258 0.138175
vt 0.296411 0.098953
vt 0.296411 0.088325
vt 0.492308 0.088483
vt 0.492298 0.098918
vt 0.296334 0.138236
vt 0.492292 0.138234
vt 0.296411 0.138236
vt 0.296334 0.098953
vt 0.303942 0.098953
vt 0.304014 0.138233
vt 0.488557 0.098953
vt 0.494058 0.098953
vt 0.494060 0.138236
vt 0.488559 0.138235
vt 0.296411 0.138236
vt 0.296334 0.098953
vt 0.303942 0.098953
vt 0.304014 0.138233
vt 0.488557 0.098953
vt 0.494058 0.098953
vt 0.494060 0.138236
vt 0.488559 0.138235
vn -1.000000 0.000000 0.000000
vn -1.000000 0.000000 0.000000
vn -1.000000 0.000000 0.000000
vn -1.000000 0.000000 0.000000
vn 0.000000 -1.000000 -0.000000
vn 0.000000 -1.000000 -0.000000
vn 0.000000 -1.000000 -0.000000
vn 0.000000 -1.000000 -0.000000
vn 1.000000 0.000000 0.000000
vn 1.000000 0.000000 0.000000
vn 1.000000 0.000000 0.000000
vn 1.000000 0.000000 0.000000
vn 0.000000 1.000000 -0.000000
vn 0.000000 1.000000 -0.000000
vn 0.000000 1.000000 -0.000000
vn 0.000000 1.000000 -0.000000
vn -1.000000 0.000000 0.000000
vn -1.000000 0.000000 0.000000
vn -1.000000 0.000000 0.000000
vn -1.000000 0.000000 0.000000
vn 0.000000 -1.000000 -0.000000
vn 0.000000 -1.000000 -0.000000
vn 0.000000 -1.000000 -0.000000
vn 0.000000 -1.000000 -0.000000
vn 1.000000 0.000000 0.000000
vn 1.000000 0.000000 0.000000
vn 1.000000 0.000000 0.000000
vn 1.000000 0.000000 0.000000
vn 0.000000 1.000000 -0.000000
vn 0.000000 1.000000 -0.000000
vn 0.000000 1.000000 -0.000000
vn 0.000000 1.000000 -0.000000
vn -1.000000 0.000000 0.000000
vn -1.000000 0.000000 0.000000
vn -1.000000 0.000000 0.000000
vn -1.000000 0.000000 0.000000
vn 0.000000 -1.000000 -0.000000
vn 0.000000 -1.000000 -0.000000
vn 0.000000 -1.000000 -0.000000
vn 0.000000 -1.000000 -0.000000
vn 1.000000 0.000000 0.000000
vn 1.000000 0.000000 0.000000
vn 1.000000 0.000000 0.000000
vn 1.000000 0.000000 0.000000
vn 0.000000 1.000000 -0.000000
vn 0.000000 1.000000 -0.000000
vn 0.000000 1.000000 -0.000000
vn 0.000000 1.000000 -0.000000
vn -1.000000 0.000000 0.000000
vn -1.000000 0.000000 0.000000
vn -1.000000 0.000000 0.000000
vn -1.000000 0.000000 0.000000
vn 0.000000 -1.000000 -0.000000
vn 0.000000 -1.000000 -0.000000
vn 0.000000 -1.000000 -0.000000
vn 0.000000 -1.000000 -0.000000
vn 1.000000 0.000000 0.000000
vn 1.000000 0.000000 0.000000
vn 1.000000 0.000000 0.000000
vn 1.000000 0.000000 0.000000
vn 0.000000 1.000000 -0.000000
vn 0.000000 1.000000 -0.000000
vn 0.000000 1.000000 -0.000000
vn 0.000000 1.000000 -0.000000
vn -1.000000 0.000000 0.000000
vn -1.000000 0.000000 0.000000
vn -1.000000 0.000000 0.000000
vn -1.000000 0.000000 0.000000
vn 0.000000 -1.000000 0.000000
vn 0.000000 -1.000000 0.000000
vn 0.000000 -1.000000 0.000000
vn 0.000000 -1.000000 0.000000
vn 1.000000 0.000000 0.000000
vn 1.000000 0.000000 0.000000
vn 1.000000 0.000000 0.000000
vn 1.000000 0.000000 0.000000
vn 0.000000 1.000000 -0.000000
vn 0.000000 1.000000 -0.000000
vn 0.000000 1.000000 -0.000000
vn 0.000000 1.000000 -0.000000
vn -1.000000 0.000000 0.000000
vn -1.000000 0.000000 0.000000
vn -1.000000 0.000000 0.000000
vn -1.000000 0.000000 0.000000
vn 0.000000 -1.000000 -0.000000
vn 0.000000 -1.000000 -0.000000
vn 0.000000 -1.000000 -0.000000
vn 0.000000 -1.000000 -0.000000
vn 1.000000 0.000000 0.000000
vn 1.000000 0.000000 0.000000
vn 1.000000 0.000000 0.000000
vn 1.000000 0.000000 0.000000
vn 0.000000 1.000000 0.000000
vn 0.000000 1.000000 0.000000
vn 0.000000 1.000000 0.000000
vn 0.000000 1.000000 0.000000
vn -1.000000 0.000000 0.000000
vn -1.000000 0.000000 0.000000
vn -1.000000 0.000000 0.000000
vn -1.000000 0.000000 0.000000
vn 0.000000 -1.000000 -0.000000
vn 0.000000 -1.000000 -0.000000
vn 0.000000 -1.000000 -0.000000
vn 0.000000 -1.000000 -0.000000
vn 1.000000 0.000000 0.000000
vn 1.000000 0.000000 0.000000
vn 1.000000 0.000000 0.000000
vn 1.000000 0.000000 0.000000
vn 0.000000 1.000000 -0.000000
vn 0.000000 1.000000 -0.000000
vn 0.000000 1.000000 -0.000000
vn 0.000000 1.000000 -0.000000
vn -1.000000 0.000000 0.000000
vn -1.000000 0.000000 0.000000
vn -1.000000 0.000000 0.000000
vn -1.000000 0.000000 0.000000
vn 0.000000 -1.000000 -0.000000
vn 0.000000 -1.000000 -0.000000
vn 0.000000 -1.000000 -0.000000
vn 0.000000 -1.000000 -0.000000
vn 1.000000 0.000000 0.000000
vn 1.000000 0.000000 0.000000
vn 1.000000 0.000000 0.000000
vn 1.000000 0.000000 0.000000
vn 0.000000 1.000000 0.000000
vn 0.000000 1.000000 0.000000
vn 0.000000 1.000000 0.000000
vn 0.000000 1.000000 0.000000
vn -1.000000 0.000000 0.000000
vn -1.000000 0.000000 0.000000
vn -1.000000 0.000000 0.000000
vn -1.000000 0.000000 0.000000
vn 0.000000 -1.000000 0.000000
vn 0.000000 -1.000000 0.000000
vn 0.000000 -1.000000 0.000000
vn 0.000000 -1.000000 0.000000
vn 1.000000 0.000000 0.000000
vn 1.000000 0.000000 0.000000
vn 1.000000 0.000000 0.000000
vn 1.000000 0.000000 0.000000
vn 0.000000 1.000000 0.000000
vn 0.000000 1.000000 0.000000
vn 0.000000 1.000000 0.000000
vn 0.000000 1.000000 0.000000
vn -1.000000 0.000000 0.000000
vn -1.000000 0.000000 0.000000
vn -1.000000 0.000000 0.000000
vn -1.000000 0.000000 0.000000
vn 0.000000 -1.000000 0.000000
vn 0.000000 -1.000000 0.000000
vn 0.000000 -1.000000 0.000000
vn 0.000000 -1.000000 0.000000
vn 1.000000 0.000000 0.000000
vn 1.000000 0.000000 0.000000
vn 1.000000 0.000000 0.000000
vn 1.000000 0.000000 0.000000
vn 0.000000 1.000000 -0.000000
vn 0.000000 1.000000 -0.000000
vn 0.000000 1.000000 -0.000000
vn 0.000000 1.000000 -0.000000
vn -1.000000 0.000000 0.000000
vn -1.000000 0.000000 0.000000
vn -1.000000 0.000000 0.000000
vn -1.000000 0.000000 0.000000
vn 0.000000 -1.000000 0.000000
vn 0.000000 -1.000000 0.000000
vn 0.000000 -1.000000 0.000000
vn 0.000000 -1.000000 0.000000
vn 1.000000 0.000000 0.000000
vn 1.000000 0.000000 0.000000
vn 1.000000 0.000000 0.000000
vn 1.000000 0.000000 0.000000
vn 0.000000 1.000000 -0.000000
vn 0.000000 1.000000 -0.000000
vn 0.000000 1.000000 -0.000000
vn 0.000000 1.000000 -0.000000
vn -1.000000 0.000000 0.000000
vn -1.000000 0.000000 0.000000
vn -1.000000 0.000000 0.000000
vn -1.000000 0.000000 0.000000
vn 0.000000 -1.000000 0.000000
vn 0.000000 -1.000000 0.000000
vn 0.000000 -1.000000 0.000000
vn 0.000000 -1.000000 0.000000
vn 1.000000 0.000000 0.000000
vn 1.000000 0.000000 0.000000
vn 1.000000 0.000000 0.000000
vn 1.000000 0.000000 0.000000
vn 0.000000 1.000000 -0.000000
vn 0.000000 1.000000 -0.000000
vn 0.000000 1.000000 -0.000000
vn 0.000000 1.000000 -0.000000
vn -1.000000 0.000000 0.000000
vn -1.000000 0.000000 0.000000
vn -1.000000 0.000000 0.000000
vn -1.000000 0.000000 0.000000
vn 0.000000 -1.000000 0.000000
vn 0.000000 -1.000000 0.000000
vn 0.000000 -1.000000 0.000000
vn 0.000000 -1.000000 0.000000
vn 1.000000 0.000000 0.000000
vn 1.000000 0.000000 0.000000
vn 1.000000 0.000000 0.000000
vn 1.000000 0.000000 0.000000
vn 0.000000 1.000000 -0.000000
vn 0.000000 1.000000 -0.000000
vn 0.000000 1.000000 -0.000000
vn 0.000000 1.000000 -0.000000
vn -1.000000 0.000000 0.000000
vn -1.000000 0.000000 0.000000
vn -1.000000 0.000000 0.000000
vn -1.000000 0.000000 0.000000
vn 0.000000 -1.000000 -0.000000
vn 0.000000 -1.000000 -0.000000
vn 0.000000 -1.000000 -0.000000
vn 0.000000 -1.000000 -0.000000
vn 1.000000 0.000000 0.000000
vn 1.000000 0.000000 0.000000
vn 1.000000 0.000000 0.000000
vn 1.000000 0.000000 0.000000
vn 0.000000 1.000000 0.000000
vn 0.000000 1.000000 0.000000
vn 0.000000 1.000000 0.000000
vn 0.000000 1.000000 0.000000
vn 0.000000 0.000000 1.000000
vn 0.000000 0.000000 1.000000
vn 0.000000 0.000000 1.000000
vn 0.000000 0.000000 1.000000
vn 0.493511 0.869740 0.000000
vn 0.493511 0.869740 0.000000
vn 0.493511 0.869740 0.000000
vn 0.493511 0.869740 0.000000
vn 0.000000 0.000000 -1.000000
vn 0.000000 0.000000 -1.000000
vn 0.000000 0.000000 -1.000000
vn 0.000000 0.000000 -1.000000
vn -0.493510 -0.869740 0.000000
vn -0.493510 -0.869740 0.000000
vn -0.493510 -0.869740 0.000000
vn -0.493510 -0.869740 0.000000
vn 0.493008 0.870025 0.000000
vn 0.493008 0.870025 0.000000
vn 0.493008 0.870025 0.000000
vn 0.493008 0.870025 0.000000
vn 0.000000 0.000000 -1.000000
vn 0.000000 0.000000 -1.000000
vn 0.000000 0.000000 -1.000000
vn 0.000000 0.000000 -1.000000
vn -0.493008 -0.870025 -0.000002
vn -0.493008 -0.870025 -0.000002
vn -0.493008 -0.870025 -0.000002
vn -0.493008 -0.870025 -0.000002
vn 0.000000 0.000000 1.000000
vn 0.000000 0.000000 1.000000
vn 0.000000 0.000000 1.000000
vn 0.000000 0.000000 1.000000
vn 0.000000 0.000000 1.000000
vn 0.000000 0.000000 1.000000
vn 0.000000 0.000000 1.000000
vn 0.000000 0.000000 1.000000
vn 0.493511 0.869740 0.000000
vn 0.493511 0.869740 0.000000
vn 0.493511 0.869740 0.000000
vn 0.493511 0.869740 0.000000
vn 0.000000 0.000000 -1.000000
vn 0.000000 0.000000 -1.000000
vn 0.000000 0.000000 -1.000000
vn 0.000000 0.000000 -1.000000
vn -0.493510 -0.869740 0.000000
vn -0.493510 -0.869740 0.000000
vn -0.493510 -0.869740 0.000000
vn -0.493510 -0.869740 0.000000
vn 0.493008 0.870025 0.000000
vn 0.493008 0.870025 0.000000
vn 0.493008 0.870025 0.000000
vn 0.493008 0.870025 0.000000
vn 0.000000 0.000000 -1.000000
vn 0.000000 0.000000 -1.000000
vn 0.000000 0.000000 -1.000000
vn 0.000000 0.000000 -1.000000
vn -0.493008 -0.870025 -0.000002
vn -0.493008 -0.870025 -0.000002
vn -0.493008 -0.870025 -0.000002
vn -0.493008 -0.870025 -0.000002
vn 0.000000 0.000000 1.000000
vn 0.000000 0.000000 1.000000
vn 0.000000 0.000000 1.000000
vn 0.000000 0.000000 1.000000
vn -0.867409 0.497597 0.000115
vn -0.867409 0.497597 0.000115
vn -0.867409 0.497597 0.000115
vn -0.867409 0.497597 0.000115
vn 0.866035 -0.499984 -0.000000
vn 0.866035 -0.499984 -0.000000
vn 0.866035 -0.499984 -0.000000
vn 0.866035 -0.499984 -0.000000
vn -0.867409 0.497597 0.000115
vn -0.867409 0.497597 0.000115
vn -0.867409 0.497597 0.000115
vn -0.867409 0.497597 0.000115
vn 0.866035 -0.499984 -0.000000
vn 0.866035 -0.499984 -0.000000
vn 0.866035 -0.499984 -0.000000
vn 0.866035 -0.499984 -0.000000
s off
g polySurface26096
f 6/11/1 5/8/2 2/3/3 1/4/4
f 7/13/5 6/10/6 1/5/7 4/6/8
f 8/14/9 7/12/10 4/7/11 3/1/12
f 5/9/13 8/14/14 3/1/15 2/2/16
f 14/15/17 13/16/18 10/17/19 9/18/20
f 15/19/21 14/20/22 9/21/23 12/22/24
f 16/23/25 15/24/26 12/25/27 11/26/28
f 13/27/29 16/23/30 11/26/31 10/28/32
f 22/29/33 21/30/34 18/31/35 17/32/36
f 23/33/37 22/34/38 17/35/39 20/36/40
f 24/37/41 23/38/42 20/39/43 19/40/44
f 21/41/45 24/37/46 19/40/47 18/42/48
f 30/43/49 29/44/50 26/45/51 25/46/52
f 31/47/53 30/48/54 25/49/55 28/50/56
f 32/51/57 31/52/58 28/53/59 27/54/60
f 29/55/61 32/51/62 27/54/63 26/56/64
f 38/57/65 37/58/66 34/59/67 33/60/68
f 39/61/69 38/62/70 33/63/71 36/64/72
f 40/65/73 39/66/74 36/67/75 35/68/76
f 37/69/77 40/65/78 35/68/79 34/70/80
f 46/71/81 45/72/82 42/73/83 41/74/84
f 47/75/85 46/76/86 41/77/87 44/78/88
f 48/79/89 47/80/90 44/81/91 43/82/92
f 45/83/93 48/79/94 43/82/95 42/84/96
f 54/85/97 53/86/98 50/87/99 49/88/100
f 55/89/101 54/90/102 49/91/103 52/92/104
f 56/93/105 55/94/106 52/95/107 51/96/108
f 53/97/109 56/93/110 51/96/111 50/98/112
f 62/99/113 61/100/114 58/101/115 57/102/116
f 63/103/117 62/104/118 57/105/119 60/106/120
f 64/107/121 63/108/122 60/109/123 59/110/124
f 61/111/125 64/107/126 59/110/127 58/112/128
f 70/113/129 69/114/130 66/115/131 65/116/132
f 71/117/133 70/118/134 65/119/135 68/120/136
f 72/121/137 71/122/138 68/123/139 67/124/140
f 69/125/141 72/121/142 67/124/143 66/126/144
f 78/127/145 77/128/146 74/129/147 73/130/148
f 79/131/149 78/132/150 73/133/151 76/134/152
f 80/135/153 79/136/154 76/137/155 75/138/156
f 77/139/157 80/135/158 75/138/159 74/140/160
f 86/141/161 85/142/162 82/143/163 81/144/164
f 87/145/165 86/146/166 81/147/167 84/148/168
f 88/149/169 87/150/170 84/151/171 83/152/172
f 85/153/173 88/149/174 83/152/175 82/154/176
f 94/155/177 93/156/178 90/157/179 89/158/180
f 95/159/181 94/160/182 89/161/183 92/162/184
f 96/163/185 95/164/186 92/165/187 91/166/188
f 93/167/189 96/163/190 91/166/191 90/168/192
f 102/169/193 101/170/194 98/171/195 97/172/196
f 103/173/197 102/174/198 97/175/199 100/176/200
f 104/177/201 103/178/202 100/179/203 99/180/204
f 101/181/205 104/177/206 99/180/207 98/182/208
f 110/183/209 109/184/210 106/185/211 105/186/212
f 111/187/213 110/188/214 105/189/215 108/190/216
f 112/191/217 111/192/218 108/193/219 107/194/220
f 109/195/221 112/191/222 107/194/223 106/196/224
f 115/197/225 119/198/226 118/199/227 114/200/228
f 113/201/229 114/202/230 118/203/231 117/204/232
f 116/205/233 113/206/234 117/207/235 120/208/236
f 115/197/237 116/209/238 120/210/239 119/198/240
f 122/211/241 121/212/242 114/213/243 113/214/244
f 123/215/245 122/216/246 113/217/247 116/218/248
f 124/219/249 123/220/250 116/221/251 115/222/252
f 121/223/253 124/219/254 115/222/255 114/224/256
f 127/225/257 131/226/258 130/227/259 126/228/260
f 125/229/261 126/230/262 130/231/263 129/232/264
f 128/233/265 125/234/266 129/235/267 132/236/268
f 127/225/269 128/237/270 132/238/271 131/226/272
f 134/239/273 133/240/274 126/241/275 125/242/276
f 135/243/277 134/244/278 125/245/279 128/246/280
f 136/247/281 135/248/282 128/249/283 127/250/284
f 133/251/285 136/247/286 127/250/287 126/252/288
f 124/253/289 121/254/290 122/255/291 123/256/292
f 117/257/293 118/258/294 119/259/295 120/260/296
f 136/261/297 133/262/298 134/263/299 135/264/300
f 129/265/301 130/266/302 131/267/303 132/268/304
