# This file uses centimeters as units for non-parametric coordinates.

g default
v -111.055542 0.283093 1.512971
v -111.055542 0.283093 -1.474509
v -111.055542 0.492079 -2.641346
v -111.055542 0.660429 -2.664567
v -111.055542 0.892635 -1.329381
v -111.055542 1.246749 -0.177210
v -111.055542 1.507982 -0.148185
v -111.055542 1.525397 0.176905
v -111.055542 1.258360 0.240761
v -111.055542 0.904245 1.288745
v -111.055542 0.660429 2.664568
v -111.055542 0.492079 2.641347
v -102.941162 0.660429 2.664568
v -102.941162 0.660429 -2.664567
v -102.941162 0.892635 -1.329381
v -102.941162 0.904245 1.288745
v -102.941162 1.246749 -0.177210
v -102.941162 1.258360 0.240761
v -102.941162 1.507982 -0.148185
v -102.941162 1.525397 0.176905
v -102.941162 0.283093 1.512971
v -102.941162 0.283093 -1.474509
v -102.941162 0.492079 -2.641346
v -102.941162 0.492079 2.641347
vt 0.000000 0.070806
vt 1.000000 0.070806
vt 0.749455 0.114379
vt 0.258170 0.116558
vt 0.469499 0.183007
vt 0.547930 0.180828
vt 0.542484 0.229847
vt 0.481481 0.233115
vt 0.216094 0.000000
vt 0.776688 0.000000
vt 0.995643 0.039216
vt 0.004357 0.039216
vt 0.000000 0.070806
vt 0.258170 0.116558
vt 0.749455 0.114379
vt 1.000000 0.070806
vt 0.469499 0.183007
vt 0.481481 0.233115
vt 0.542484 0.229847
vt 0.547930 0.180828
vt 0.216094 0.000000
vt 0.004357 0.039216
vt 0.995643 0.039216
vt 0.776688 0.000000
vt 1.000000 0.070806
vt 0.749455 0.114379
vt 0.258170 0.116558
vt 0.000000 0.070806
vt 0.547930 0.180828
vt 0.542484 0.229847
vt 0.481481 0.233115
vt 0.469499 0.183007
vt 0.216094 0.000000
vt 0.776688 0.000000
vt 0.995643 0.039216
vt 0.004357 0.039216
vn 1.000000 0.000032 0.000000
vn 1.000000 0.000032 0.000000
vn 1.000000 0.000032 0.000000
vn 1.000000 0.000032 0.000000
vn 1.000000 0.000024 0.000000
vn 1.000000 0.000024 0.000000
vn 1.000000 0.000024 0.000000
vn 1.000000 0.000024 0.000000
vn 1.000000 -0.000028 0.000000
vn 1.000000 -0.000028 0.000000
vn 1.000000 -0.000028 0.000000
vn 1.000000 -0.000028 0.000000
vn 1.000000 0.000009 0.000000
vn 1.000000 0.000009 0.000000
vn 1.000000 0.000009 0.000000
vn 1.000000 0.000009 0.000000
vn 1.000000 0.000049 0.000000
vn 1.000000 0.000049 0.000000
vn 1.000000 0.000049 0.000000
vn 1.000000 0.000049 0.000000
vn -1.000000 0.000000 0.000000
vn -1.000000 0.000000 0.000000
vn -1.000000 0.000000 0.000000
vn -1.000000 0.000000 0.000000
vn -1.000000 0.000000 0.000000
vn -1.000000 0.000000 0.000000
vn -1.000000 0.000000 0.000000
vn -1.000000 0.000000 0.000000
vn -1.000000 0.000000 0.000000
vn -1.000000 0.000000 0.000000
vn -1.000000 0.000000 0.000000
vn -1.000000 0.000000 0.000000
vn -1.000000 0.000000 0.000000
vn -1.000000 0.000000 0.000000
vn -1.000000 0.000000 0.000000
vn -1.000000 0.000000 0.000000
vn -1.000000 0.000000 0.000000
vn -1.000000 0.000000 0.000000
vn -1.000000 0.000000 0.000000
vn -1.000000 0.000000 0.000000
vn 0.000000 0.985212 -0.171341
vn 0.000000 0.972471 -0.233024
vn 0.000000 0.972471 -0.233024
vn 0.000000 0.985212 -0.171341
vn 0.000000 0.968758 0.248009
vn 0.000000 0.984658 0.174496
vn 0.000000 0.984658 0.174496
vn 0.000000 0.968758 0.248009
vn 0.000000 0.110429 -0.993884
vn 0.000000 0.110429 -0.993884
vn 0.000000 0.110429 -0.993884
vn 0.000000 0.110429 -0.993884
vn 0.000000 0.998568 -0.053494
vn 0.000000 0.998568 -0.053494
vn 0.000000 0.998568 -0.053494
vn 0.000000 0.998568 -0.053494
vn 0.000000 0.232571 0.972579
vn 0.000000 0.232571 0.972579
vn 0.000000 0.232571 0.972579
vn 0.000000 0.232571 0.972579
vn 0.000000 0.955872 -0.293783
vn 0.000000 0.955872 -0.293783
vn 0.000000 0.947377 0.320120
vn 0.000000 0.947377 0.320120
vn 0.000000 -0.995811 0.091439
vn 0.000000 -0.996076 -0.088497
vn 0.000000 -0.996076 -0.088497
vn 0.000000 -0.995811 0.091439
vn 0.000000 -0.984337 -0.176299
vn 0.000000 -0.984337 -0.176299
vn 0.000000 -0.983278 0.182112
vn 0.000000 -0.983278 0.182112
vn 0.000000 -0.136637 -0.990621
vn 0.000000 -0.136637 -0.990621
vn 0.000000 -0.136637 -0.990621
vn 0.000000 -0.136637 -0.990621
vn 0.000000 -0.136640 0.990621
vn 0.000000 -0.136640 0.990621
vn 0.000000 -0.136640 0.990621
vn 0.000000 -0.136640 0.990621
s off
g polySurface26758
f 13/1/1 14/2/2 15/3/3 16/4/4
f 18/5/5 17/6/6 19/7/7 20/8/8
f 16/4/9 15/3/10 17/6/11 18/5/12
f 21/9/13 22/10/14 23/11/15 24/12/16
f 24/12/17 23/11/18 14/2/19 13/1/20
f 11/13/21 10/14/22 5/15/23 4/16/24
f 9/17/25 8/18/26 7/19/27 6/20/28
f 10/14/29 9/17/30 6/20/31 5/15/32
f 1/21/33 12/22/34 3/23/35 2/24/36
f 12/22/37 11/13/38 4/16/39 3/23/40
s 11
f 4/25/41 5/26/42 15/3/43 14/2/44
s 12
f 10/27/45 11/28/46 13/1/47 16/4/48
s off
f 6/29/49 7/30/50 19/7/51 17/6/52
f 7/30/53 8/31/54 20/8/55 19/7/56
f 8/31/57 9/32/58 18/5/59 20/8/60
s 11
f 5/26/42 6/29/61 17/6/62 15/3/43
s 12
f 9/32/63 10/27/45 16/4/48 18/5/64
s 16
f 1/33/65 2/34/66 22/10/67 21/9/68
f 2/34/66 3/35/69 23/11/70 22/10/67
f 12/36/71 1/33/65 21/9/68 24/12/72
s off
f 3/35/73 4/25/74 14/2/75 23/11/76
f 11/28/77 12/36/78 24/12/79 13/1/80
