# This file uses centimeters as units for non-parametric coordinates.

g default
v -85.172592 0.284899 4.275035
v -76.762070 0.286782 4.275035
v -85.172592 0.283770 -4.179080
v -76.762070 0.283770 -4.179080
v -82.475067 0.283770 4.275035
v -82.475067 0.283770 -4.179080
v -79.510818 0.283770 4.275035
v -79.510818 0.283770 -4.179080
v -85.172592 0.283770 -1.480112
v -76.762070 0.283770 -1.480112
v -85.172592 0.283770 1.505776
v -76.762070 0.283770 1.505776
v -80.994171 0.283605 0.011090
v -86.409058 0.731521 -1.980642
v -82.915329 0.731521 -5.473581
v -86.409058 1.333817 -5.473581
v -79.082489 0.731521 -5.473581
v -75.525620 0.731521 -1.980642
v -75.525620 1.333817 -5.473581
v -86.409058 0.731521 1.894128
v -75.525620 0.731521 1.894128
v -86.409058 1.333817 5.473580
v -82.915329 0.731521 5.473580
v -79.082489 0.731521 5.473580
v -75.525620 1.333817 5.473580
v -82.912598 0.550715 -5.463046
v -79.085144 0.550715 -5.463046
v -75.533325 1.146266 -5.463046
v -75.533325 0.550715 -1.976807
v -75.533325 0.550715 1.890405
v -75.533325 1.146266 5.463044
v -79.085144 0.550715 5.463044
v -82.912598 0.550715 5.463044
v -86.401352 1.146266 5.463044
v -86.401352 0.550715 1.890405
v -86.401352 0.550715 -1.976807
v -86.401352 1.146266 -5.463046
v -85.056534 1.309142 -4.113152
v -82.431198 1.018436 -4.113152
v -85.056534 1.018436 -1.488362
v -76.878128 1.018436 -1.488362
v -76.878128 1.309142 -4.113152
v -79.550949 1.018436 -4.113152
v -85.056534 1.018436 1.423350
v -76.878128 1.018436 1.423350
v -85.056534 1.309142 4.113147
v -82.431198 1.018436 4.113147
v -79.550949 1.018436 4.113147
v -76.878128 1.309142 4.113147
v -83.502792 1.841962 -2.362092
v -81.875000 1.720237 -2.362092
v -83.502792 1.720237 -0.854735
v -78.431870 1.720237 -0.854735
v -78.431870 1.841962 -2.362092
v -80.089127 1.720237 -2.362092
v -83.502792 1.720237 0.817399
v -78.431870 1.720237 0.817399
v -83.502792 1.841962 2.362090
v -81.875000 1.720237 2.362090
v -80.089127 1.720237 2.362090
v -78.431870 1.841962 2.362090
v -81.808456 3.242444 -0.236527
v -80.125183 3.242444 -0.236527
v -81.808456 3.242444 0.235278
v -80.125183 3.242444 0.235278
v -81.808456 3.659811 -0.236527
v -81.808456 3.659811 0.235278
v -80.125183 3.659811 0.235278
v -80.125183 3.659811 -0.236527
vt 0.375000 0.420679
vt 0.375000 0.500000
vt 0.455359 0.500000
vt 0.499551 0.376697
vt 0.455359 0.500000
vt 0.543743 0.500000
vt 0.625000 0.500000
vt 0.625000 0.420679
vt 0.375000 0.332715
vt 0.375000 0.420679
vt 0.625000 0.420679
vt 0.625000 0.332715
vt 0.375000 0.250000
vt 0.455359 0.250000
vt 0.543743 0.250000
vt 0.625000 0.250000
vt 0.455359 0.500000
vt 0.375000 0.500000
vt 0.375000 0.500000
vt 0.455359 0.500000
vt 0.375000 0.420679
vt 0.375000 0.420679
vt 0.543743 0.500000
vt 0.543743 0.500000
vt 0.625000 0.420679
vt 0.625000 0.500000
vt 0.625000 0.500000
vt 0.625000 0.420679
vt 0.375000 0.332715
vt 0.375000 0.332715
vt 0.625000 0.332715
vt 0.625000 0.332715
vt 0.375000 0.250000
vt 0.455359 0.250000
vt 0.455359 0.250000
vt 0.375000 0.250000
vt 0.543743 0.250000
vt 0.543743 0.250000
vt 0.625000 0.250000
vt 0.625000 0.250000
vt 0.455359 0.500000
vt 0.543743 0.500000
vt 0.625000 0.500000
vt 0.625000 0.420679
vt 0.625000 0.332715
vt 0.625000 0.250000
vt 0.543743 0.250000
vt 0.455359 0.250000
vt 0.375000 0.250000
vt 0.375000 0.332715
vt 0.375000 0.420679
vt 0.375000 0.500000
vt 0.375000 0.500000
vt 0.455359 0.500000
vt 0.375000 0.420679
vt 0.625000 0.500000
vt 0.625000 0.420679
vt 0.543743 0.500000
vt 0.375000 0.332715
vt 0.625000 0.332715
vt 0.455359 0.250000
vt 0.375000 0.250000
vt 0.543743 0.250000
vt 0.625000 0.250000
vt 0.375000 0.500000
vt 0.455359 0.500000
vt 0.375000 0.420679
vt 0.625000 0.500000
vt 0.625000 0.420679
vt 0.543743 0.500000
vt 0.375000 0.332715
vt 0.625000 0.332715
vt 0.455359 0.250000
vt 0.375000 0.250000
vt 0.543743 0.250000
vt 0.625000 0.250000
vt 0.401786 0.473560
vt 0.597914 0.473560
vt 0.401786 0.277572
vt 0.625000 0.332715
vt 0.584372 0.250000
vt 0.000000 0.000000
vt 1.000000 0.000000
vt 1.000000 1.000000
vt 0.000000 1.000000
vt 0.000000 0.000000
vt 1.000000 0.000000
vt 1.000000 1.000000
vt 0.000000 1.000000
vt 0.000000 1.000000
vt 0.000000 0.000000
vt 1.000000 0.000000
vt 1.000000 1.000000
vt 0.000000 1.000000
vt 0.000000 0.000000
vt 1.000000 0.000000
vt 1.000000 1.000000
vt 1.000000 0.582364
vt 0.000000 0.579746
vt 0.000207 0.000000
vt 0.999791 0.000000
vn -0.145409 -0.989113 -0.022636
vn -0.154159 -0.976504 -0.150584
vn -0.022709 -0.989816 -0.140528
vn 0.000027 -1.000000 0.000060
vn 0.022290 -0.989777 -0.140872
vn 0.153615 -0.976516 -0.151059
vn 0.145412 -0.989112 -0.022636
vn -0.147371 -0.988835 0.022097
vn 0.147224 -0.988853 0.022228
vn -0.156864 -0.974827 0.158446
vn -0.022597 -0.988295 0.150872
vn 0.022311 -0.988270 0.151081
vn 0.156211 -0.974870 0.158828
vn -0.229868 -0.946966 -0.224537
vn -0.045035 -0.959317 -0.278718
vn -0.288203 -0.956518 -0.044860
vn 0.044202 -0.959159 -0.279391
vn 0.229073 -0.946986 -0.225263
vn 0.288208 -0.956517 -0.044860
vn -0.291982 -0.955424 0.043719
vn 0.291589 -0.955537 0.043869
vn -0.044684 -0.953280 0.298766
vn -0.233823 -0.943156 0.236185
vn 0.044007 -0.953217 0.299066
vn 0.232757 -0.943301 0.236660
vn -0.004922 -0.057777 -0.998317
vn -0.004922 -0.057777 -0.998317
vn 0.004834 -0.057774 -0.998318
vn 0.004834 -0.057774 -0.998318
vn 0.009668 -0.057376 -0.998306
vn 0.009668 -0.057376 -0.998306
vn 0.999097 -0.042329 -0.003611
vn 0.999089 -0.042071 -0.007223
vn 0.999089 -0.042071 -0.007223
vn 0.999097 -0.042329 -0.003611
vn 0.999098 -0.042321 0.003523
vn 0.999098 -0.042321 0.003523
vn 0.999091 -0.042054 0.007046
vn 0.999091 -0.042054 0.007046
vn 0.004835 -0.057779 0.998318
vn 0.009669 -0.057381 0.998305
vn 0.009669 -0.057381 0.998305
vn 0.004835 -0.057779 0.998318
vn -0.004922 -0.057782 0.998317
vn -0.004922 -0.057782 0.998317
vn -0.009845 -0.057388 0.998303
vn -0.009845 -0.057388 0.998303
vn -0.999097 -0.042349 0.003523
vn -0.999089 -0.042095 0.007046
vn -0.999089 -0.042095 0.007046
vn -0.999097 -0.042349 0.003523
vn -0.999097 -0.042347 -0.003611
vn -0.999097 -0.042347 -0.003611
vn -0.999088 -0.042090 -0.007223
vn -0.999088 -0.042090 -0.007223
vn -0.009844 -0.057383 -0.998304
vn -0.009844 -0.057383 -0.998304
vn 0.071079 0.977547 -0.198368
vn -0.025443 0.999377 -0.024479
vn -0.101780 0.990859 -0.088540
vn 0.058139 0.955757 -0.288354
vn -0.199898 0.977236 0.071068
vn -0.311900 0.948318 0.058400
vn 0.199900 0.977236 0.071068
vn 0.026669 0.999374 -0.023261
vn 0.102774 0.990841 -0.087584
vn 0.311901 0.948318 0.058400
vn -0.069870 0.977875 -0.197176
vn -0.057149 0.956085 -0.287464
vn -0.198256 0.977689 -0.069422
vn -0.310585 0.948832 -0.057053
vn 0.198258 0.977688 -0.069421
vn 0.310586 0.948832 -0.057053
vn -0.023766 0.999376 0.026146
vn 0.071079 0.977547 0.198368
vn 0.058139 0.955757 0.288354
vn -0.100365 0.990881 0.089893
vn -0.069870 0.977875 0.197176
vn -0.057148 0.956085 0.287464
vn 0.024992 0.999377 0.024928
vn 0.101361 0.990866 0.088937
vn 0.075493 0.871905 -0.483821
vn 0.037780 0.875051 -0.482553
vn -0.553273 0.832146 0.037702
vn -0.559289 0.825542 0.075343
vn 0.559415 0.825457 0.075336
vn 0.553399 0.832063 0.037698
vn -0.037132 0.875319 -0.482119
vn -0.074201 0.872483 -0.482978
vn -0.552559 0.832659 -0.036836
vn 0.552685 0.832576 -0.036833
vn 0.037783 0.875118 0.482432
vn 0.075498 0.871972 0.483699
vn -0.557906 0.826632 -0.073619
vn -0.037134 0.875385 0.481997
vn -0.074205 0.872550 0.482856
vn 0.558031 0.826548 -0.073612
vn 0.030323 0.812195 -0.582598
vn -0.673964 0.738173 0.029560
vn 0.674187 0.737970 0.029552
vn -0.029801 0.812419 -0.582312
vn -0.673503 0.738620 -0.028882
vn 0.673725 0.738418 -0.028874
vn 0.030329 0.812357 0.582372
vn -0.029806 0.812580 0.582087
vn -1.000000 0.000000 0.000000
vn -1.000000 0.000000 0.000000
vn -1.000000 0.000000 0.000000
vn -1.000000 0.000000 0.000000
vn 1.000000 0.000000 0.000000
vn 1.000000 0.000000 0.000000
vn 1.000000 0.000000 0.000000
vn 1.000000 0.000000 0.000000
vn 0.000000 0.000000 1.000000
vn 0.000000 0.000000 1.000000
vn 0.000000 0.000000 1.000000
vn 0.000000 0.000000 1.000000
vn 0.000000 0.000000 -1.000000
vn 0.000000 0.000000 -1.000000
vn 0.000000 0.000000 -1.000000
vn 0.000000 0.000000 -1.000000
vn 0.000000 1.000000 0.000000
vn 0.000000 1.000000 0.000000
vn 0.000000 1.000000 0.000000
vn 0.000000 1.000000 0.000000
s 1
g polySurface26775
f 9/1/1 3/2/2 6/3/3 13/4/4
f 13/4/4 6/5/3 8/6/5
f 8/6/5 4/7/6 10/8/7 13/4/4
f 11/9/8 9/10/1 13/4/4
f 10/11/7 12/12/9 13/4/4
f 1/13/10 11/9/8 13/4/4 5/14/11
f 7/15/12 5/14/11 13/4/4
f 12/12/9 2/16/13 7/15/12 13/4/4
f 6/17/3 3/18/2 37/19/14 26/20/15
f 3/18/2 9/21/1 36/22/16 37/19/14
f 8/23/5 6/17/3 26/20/15 27/24/17
f 10/25/7 4/26/6 28/27/18 29/28/19
f 4/26/6 8/23/5 27/24/17 28/27/18
f 9/21/1 11/29/8 35/30/20 36/22/16
f 12/31/9 10/25/7 29/28/19 30/32/21
f 1/33/10 5/34/11 33/35/22 34/36/23
f 11/29/8 1/33/10 34/36/23 35/30/20
f 32/37/24 33/35/22 5/34/11 7/38/12
f 7/38/12 2/39/13 31/40/25 32/37/24
f 2/39/13 12/31/9 30/32/21 31/40/25
s 2
f 26/20/26 15/41/27 17/42/28 27/24/29
f 28/27/30 27/24/29 17/42/28 19/43/31
s 3
f 29/28/32 28/27/33 19/43/34 18/44/35
f 30/32/36 29/28/32 18/44/35 21/45/37
f 31/40/38 30/32/36 21/45/37 25/46/39
s 4
f 32/37/40 31/40/41 25/46/42 24/47/43
f 23/48/44 33/35/45 32/37/40 24/47/43
f 34/36/46 33/35/45 23/48/44 22/49/47
s 5
f 35/30/48 34/36/49 22/49/50 20/50/51
f 36/22/52 35/30/48 20/50/51 14/51/53
f 37/19/54 36/22/52 14/51/53 16/52/55
s 2
f 26/20/26 37/19/56 16/52/57 15/41/27
s 6
f 15/41/58 16/52/59 38/53/60 39/54/61
f 16/52/59 14/51/62 40/55/63 38/53/60
f 18/44/64 19/43/65 42/56/66 41/57/67
f 19/43/65 17/42/68 43/58/69 42/56/66
f 14/51/62 20/50/70 44/59/71 40/55/63
f 21/45/72 18/44/64 41/57/67 45/60/73
f 22/49/74 23/48/75 47/61/76 46/62/77
f 20/50/70 22/49/74 46/62/77 44/59/71
f 47/61/76 23/48/75 24/47/78 48/63/79
f 24/47/78 25/46/80 49/64/81 48/63/79
f 25/46/80 21/45/72 45/60/73 49/64/81
f 43/58/69 17/42/68 15/41/58 39/54/61
f 39/54/61 38/53/60 50/65/82 51/66/83
f 38/53/60 40/55/63 52/67/84 50/65/85
f 41/57/67 42/56/66 54/68/86 53/69/87
f 42/56/66 43/58/69 55/70/88 54/68/89
f 40/55/63 44/59/71 56/71/90 52/67/84
f 45/60/73 41/57/67 53/69/87 57/72/91
f 46/62/77 47/61/76 59/73/92 58/74/93
f 44/59/71 46/62/77 58/74/94 56/71/90
f 59/73/92 47/61/76 48/63/79 60/75/95
f 48/63/79 49/64/81 61/76/96 60/75/95
f 49/64/81 45/60/73 57/72/91 61/76/97
f 55/70/88 43/58/69 39/54/61 51/66/83
f 51/66/83 50/65/82 62/77/98
f 50/65/85 52/67/84 62/77/99
f 53/69/87 54/68/86 63/78/100
f 54/68/89 55/70/88 63/78/101
f 52/67/84 56/71/90 64/79/102 62/77/99
f 57/72/91 53/69/87 63/78/100 65/80/103
f 58/74/93 59/73/92 64/79/104
f 56/71/90 58/74/94 64/79/102
f 64/79/104 59/73/92 60/75/95 65/81/105
f 60/75/95 61/76/96 65/81/105
f 61/76/97 57/72/91 65/80/103
f 63/78/101 55/70/88 51/66/83 62/77/98
s off
f 62/82/106 64/83/107 67/84/108 66/85/109
f 65/86/110 63/87/111 69/88/112 68/89/113
f 67/90/114 64/91/115 65/92/116 68/93/117
f 69/94/118 63/95/119 62/96/120 66/97/121
f 67/98/122 68/99/123 69/100/124 66/101/125
