# This file uses centimeters as units for non-parametric coordinates.

g default
v -64.709503 -0.057090 0.200199
v -65.118057 -0.057088 0.200233
v -65.118027 -0.133038 0.200142
v -64.709457 -0.133148 0.199795
v -64.711578 -0.133458 -0.200233
v -65.118591 -0.133148 -0.199738
v -64.711670 -0.057399 -0.200073
v -65.118561 -0.057090 -0.200138
v -64.989288 0.298677 0.053120
v -64.957764 0.298677 0.084637
v -64.957764 1.626887 0.084637
v -64.989288 1.626887 0.053120
v -64.914703 0.298677 0.096157
v -64.914703 1.626887 0.096157
v -64.871613 0.298677 0.084595
v -64.871613 1.626887 0.084595
v -64.840088 0.298677 0.053047
v -64.840088 1.626887 0.053047
v -64.828506 0.298677 0.009968
v -64.828506 1.626887 0.009968
v -64.840042 0.298677 -0.033100
v -64.840042 1.626887 -0.033100
v -64.871552 0.298677 -0.064613
v -64.871552 1.626887 -0.064613
v -64.914612 0.298677 -0.076134
v -64.914612 1.626887 -0.076134
v -64.957703 0.298677 -0.064571
v -64.957703 1.626887 -0.064571
v -64.989243 0.298677 -0.033024
v -64.989243 1.626887 -0.033024
v -65.000824 0.298677 0.010056
v -65.000824 1.626887 0.010056
v -64.989288 2.516563 0.053120
v -64.957764 2.516563 0.084637
v -64.914658 2.516563 0.010014
v -64.914703 2.516563 0.096157
v -64.871613 2.516563 0.084595
v -64.840088 2.516563 0.053047
v -64.828506 2.516563 0.009968
v -64.840042 2.516563 -0.033100
v -64.871552 2.516563 -0.064613
v -64.914612 2.516563 -0.076134
v -64.957703 2.516563 -0.064571
v -64.989243 2.516563 -0.033024
v -65.000824 2.516563 0.010056
v -64.864548 2.232119 0.096848
v -64.827820 2.232119 0.060116
v -64.827820 2.409723 0.060116
v -64.864548 2.409723 0.096848
v -64.814346 2.232119 0.009960
v -64.814346 2.409723 0.009960
v -64.827774 2.232119 -0.040180
v -64.827774 2.409723 -0.040180
v -64.864456 2.232119 -0.076874
v -64.864456 2.409723 -0.076874
v -64.914612 2.232119 -0.090286
v -64.914612 2.409723 -0.090286
v -64.964752 2.232119 -0.076824
v -64.964752 2.409723 -0.076824
v -65.001495 2.232119 -0.040092
v -65.001495 2.409723 -0.040092
v -65.014954 2.232119 0.010063
v -65.014954 2.409723 0.010063
v -65.001556 2.232119 0.060204
v -65.001556 2.409723 0.060204
v -64.964828 2.232119 0.096897
v -64.964828 2.409723 0.096897
v -64.914703 2.232119 0.110310
v -64.914703 2.409723 0.110310
v -64.832306 2.177544 0.057526
v -64.867142 2.177544 0.092358
v -64.914658 2.177544 0.010014
v -64.819550 2.177544 0.009964
v -64.832260 2.177544 -0.037582
v -64.867065 2.177544 -0.072380
v -64.914612 2.177544 -0.085098
v -64.962158 2.177544 -0.072334
v -64.996994 2.177544 -0.037502
v -65.009766 2.177544 0.010059
v -64.997040 2.177544 0.057610
v -64.962234 2.177544 0.092403
v -64.914703 2.177544 0.105125
v -64.867142 2.464297 0.092358
v -64.832306 2.464297 0.057526
v -64.914658 2.464297 0.010014
v -64.819550 2.464297 0.009964
v -64.832260 2.464297 -0.037582
v -64.867065 2.464297 -0.072380
v -64.914612 2.464297 -0.085098
v -64.962158 2.464297 -0.072334
v -64.996994 2.464297 -0.037502
v -65.009766 2.464297 0.010059
v -64.997040 2.464297 0.057610
v -64.962234 2.464297 0.092403
v -64.914703 2.464297 0.105125
v -64.818817 2.185034 0.065311
v -64.859360 2.185034 0.105850
v -64.859360 2.457185 0.105850
v -64.818817 2.457185 0.065311
v -64.803955 2.185034 0.009956
v -64.803955 2.457185 0.009956
v -64.818756 2.185034 -0.045383
v -64.818756 2.457185 -0.045383
v -64.859268 2.185034 -0.085884
v -64.859268 2.457185 -0.085884
v -64.914612 2.185034 -0.100685
v -64.914612 2.457185 -0.100685
v -64.969955 2.185034 -0.085827
v -64.969955 2.457185 -0.085827
v -65.010483 2.185034 -0.045288
v -65.010483 2.457185 -0.045288
v -65.025360 2.185034 0.010067
v -65.025360 2.457185 0.010067
v -65.010544 2.185034 0.065411
v -65.010544 2.457185 0.065411
v -64.970062 2.185034 0.105907
v -64.970062 2.457185 0.105907
v -64.914719 2.185034 0.120708
v -64.914719 2.457185 0.120708
v -64.819336 2.221715 0.065006
v -64.859650 2.221715 0.105320
v -64.859650 2.419749 0.105320
v -64.819336 2.419749 0.065006
v -64.804565 2.221715 0.009956
v -64.804565 2.419749 0.009956
v -64.819275 2.221715 -0.045078
v -64.819275 2.419749 -0.045078
v -64.859558 2.221715 -0.085350
v -64.859558 2.419749 -0.085350
v -64.914612 2.221715 -0.100071
v -64.914612 2.419749 -0.100071
v -64.969635 2.221715 -0.085297
v -64.969635 2.419749 -0.085297
v -65.009979 2.221715 -0.044983
v -65.009979 2.419749 -0.044983
v -65.024750 2.221715 0.010067
v -65.024750 2.419749 0.010067
v -65.010040 2.221715 0.065102
v -65.010040 2.419749 0.065102
v -64.969727 2.221715 0.105373
v -64.969727 2.419749 0.105373
v -64.914719 2.221715 0.120094
v -64.914719 2.419749 0.120094
v -64.709503 0.325564 0.200199
v -65.118057 0.325566 0.200233
v -65.118027 0.270484 0.200142
v -64.709457 0.270373 0.199795
v -64.711578 0.270064 -0.200233
v -65.118591 0.270373 -0.199738
v -64.711670 0.325255 -0.200073
v -65.118561 0.325564 -0.200138
v -64.792099 0.285413 0.165905
v -64.792099 -0.077097 0.165905
v -64.792099 0.285413 -0.165909
v -64.792099 -0.077097 -0.165909
v -65.035965 0.285413 -0.165909
v -65.035965 -0.077097 -0.165909
v -65.035965 0.285413 0.165905
v -65.035965 -0.077097 0.165905
v -64.735977 0.285413 0.111073
v -64.735977 -0.077097 0.111073
v -65.092072 0.285413 0.111073
v -65.092072 -0.077097 0.111073
v -65.092072 0.285413 -0.111710
v -65.092072 -0.077097 -0.111710
v -64.735977 0.285413 -0.111710
v -64.735977 -0.077097 -0.111710
v -64.753204 -0.077097 0.147575
v -64.753204 0.285413 0.147575
v -65.074707 -0.077097 0.147724
v -65.074707 0.285413 0.147724
v -65.074799 -0.077097 -0.147945
v -65.074799 0.285413 -0.147945
v -64.753418 -0.077097 -0.148098
v -64.753418 0.285413 -0.148098
vt 0.380150 0.364365
vt 0.432231 0.363858
vt 0.432239 0.304090
vt 0.380252 0.303892
vt 0.432239 0.304090
vt 0.442097 0.304090
vt 0.441960 0.364002
vt 0.432290 0.363948
vt 0.380225 0.364420
vt 0.380196 0.303856
vt 0.380148 0.303927
vt 0.380248 0.293259
vt 0.432239 0.293076
vt 0.432239 0.304090
vt 0.432239 0.304090
vt 0.442097 0.304090
vt 0.441960 0.364002
vt 0.432290 0.363948
vt 0.380148 0.303927
vt 0.380248 0.293259
vt 0.432239 0.293076
vt 0.432239 0.304090
vt 0.326625 0.312631
vt 0.336537 0.312631
vt 0.336537 0.538185
vt 0.326625 0.538185
vt 0.346448 0.312631
vt 0.346448 0.538185
vt 0.336537 0.538185
vt 0.227513 0.312631
vt 0.237425 0.312631
vt 0.237425 0.538185
vt 0.227513 0.538185
vt 0.247336 0.312631
vt 0.247336 0.538185
vt 0.237425 0.538185
vt 0.257247 0.312631
vt 0.257247 0.538185
vt 0.247336 0.538185
vt 0.267158 0.312631
vt 0.267158 0.538185
vt 0.257247 0.538185
vt 0.277069 0.312631
vt 0.277069 0.538185
vt 0.267158 0.538185
vt 0.286981 0.312631
vt 0.286981 0.538185
vt 0.277069 0.538185
vt 0.286981 0.538185
vt 0.296892 0.312631
vt 0.296892 0.538185
vt 0.306803 0.312631
vt 0.306803 0.538185
vt 0.296892 0.538185
vt 0.316714 0.312631
vt 0.316714 0.538185
vt 0.306803 0.538185
vt 0.326625 0.538185
vt 0.316714 0.538185
vt 0.298862 0.495742
vt 0.291743 0.504029
vt 0.282019 0.484421
vt 0.282019 0.507063
vt 0.272294 0.504029
vt 0.265176 0.495742
vt 0.262570 0.484421
vt 0.265176 0.473100
vt 0.272294 0.464812
vt 0.282019 0.461779
vt 0.291743 0.464812
vt 0.298862 0.473100
vt 0.301467 0.484421
vt 0.286981 0.406516
vt 0.286981 0.538185
vt 0.296892 0.538185
vt 0.296892 0.406516
vt 0.277069 0.538185
vt 0.286981 0.538185
vt 0.277069 0.406516
vt 0.267158 0.538185
vt 0.277069 0.538185
vt 0.267158 0.406516
vt 0.257247 0.538185
vt 0.267158 0.538185
vt 0.257247 0.406516
vt 0.247336 0.538185
vt 0.257247 0.538185
vt 0.247336 0.406516
vt 0.237425 0.538185
vt 0.247336 0.538185
vt 0.237425 0.406516
vt 0.227513 0.538185
vt 0.237425 0.538185
vt 0.227513 0.406516
vt 0.336537 0.538185
vt 0.346448 0.538185
vt 0.346448 0.406516
vt 0.336537 0.406516
vt 0.326625 0.538185
vt 0.336537 0.538185
vt 0.326625 0.406516
vt 0.316714 0.538185
vt 0.326625 0.538185
vt 0.316714 0.406516
vt 0.306803 0.538185
vt 0.316714 0.538185
vt 0.306803 0.406516
vt 0.296892 0.538185
vt 0.306803 0.538185
vt 0.327652 0.561200
vt 0.337999 0.561205
vt 0.337999 0.591842
vt 0.327652 0.591846
vt 0.348175 0.561172
vt 0.348175 0.591842
vt 0.224918 0.561172
vt 0.234519 0.561205
vt 0.234519 0.591842
vt 0.224918 0.591842
vt 0.244865 0.561200
vt 0.244865 0.591846
vt 0.255214 0.561200
vt 0.255214 0.591846
vt 0.265562 0.561200
vt 0.265562 0.591846
vt 0.275910 0.561200
vt 0.275910 0.591846
vt 0.286259 0.561200
vt 0.286259 0.591846
vt 0.296607 0.561200
vt 0.296607 0.591846
vt 0.306955 0.561200
vt 0.306955 0.591846
vt 0.317304 0.561200
vt 0.317304 0.591846
vt 0.337896 0.550607
vt 0.327623 0.550607
vt 0.333230 0.540729
vt 0.348175 0.550607
vt 0.342902 0.540729
vt 0.234609 0.550607
vt 0.224918 0.550607
vt 0.230163 0.540729
vt 0.244844 0.550607
vt 0.239835 0.540729
vt 0.255171 0.550607
vt 0.250887 0.540729
vt 0.265534 0.550607
vt 0.261111 0.540729
vt 0.275914 0.550607
vt 0.271059 0.540729
vt 0.286278 0.550607
vt 0.280731 0.540729
vt 0.296595 0.550607
vt 0.291231 0.540729
vt 0.306955 0.550607
vt 0.302282 0.540729
vt 0.317305 0.550607
vt 0.311679 0.540729
vt 0.323006 0.540729
vt 0.327660 0.601728
vt 0.337905 0.601728
vt 0.332678 0.609977
vt 0.348175 0.601728
vt 0.344005 0.609978
vt 0.224918 0.601728
vt 0.234584 0.601728
vt 0.229887 0.609978
vt 0.244857 0.601728
vt 0.240663 0.609977
vt 0.255230 0.601728
vt 0.249508 0.609977
vt 0.265548 0.601728
vt 0.260559 0.609977
vt 0.275891 0.601728
vt 0.271059 0.609977
vt 0.286242 0.601728
vt 0.281559 0.609977
vt 0.296578 0.601728
vt 0.291783 0.609977
vt 0.306941 0.601728
vt 0.302558 0.609977
vt 0.317312 0.601728
vt 0.311954 0.609977
vt 0.322454 0.609977
vt 0.338027 0.552438
vt 0.327654 0.552406
vt 0.327651 0.599942
vt 0.338024 0.599903
vt 0.348175 0.552344
vt 0.348175 0.600017
vt 0.234488 0.552438
vt 0.224918 0.552344
vt 0.224918 0.600017
vt 0.234491 0.599903
vt 0.244865 0.552406
vt 0.244865 0.599942
vt 0.255216 0.552406
vt 0.255212 0.599942
vt 0.265563 0.552406
vt 0.265563 0.599942
vt 0.275910 0.552406
vt 0.275911 0.599942
vt 0.286257 0.552406
vt 0.286259 0.599942
vt 0.296608 0.552406
vt 0.296608 0.599942
vt 0.306955 0.552406
vt 0.306956 0.599942
vt 0.317303 0.552406
vt 0.317303 0.599942
vt 0.338000 0.559340
vt 0.327652 0.559336
vt 0.327652 0.593628
vt 0.338000 0.593628
vt 0.348175 0.559340
vt 0.348175 0.593591
vt 0.234517 0.559336
vt 0.224918 0.559336
vt 0.224918 0.593591
vt 0.234517 0.593628
vt 0.244865 0.559336
vt 0.244865 0.593628
vt 0.255214 0.559336
vt 0.255214 0.593628
vt 0.265562 0.559336
vt 0.265562 0.593628
vt 0.275910 0.559336
vt 0.275910 0.593628
vt 0.286259 0.559336
vt 0.286259 0.593628
vt 0.296607 0.559336
vt 0.296607 0.593628
vt 0.306955 0.559336
vt 0.306955 0.593628
vt 0.317304 0.559336
vt 0.317304 0.593628
vt 0.380150 0.364365
vt 0.432231 0.363858
vt 0.432239 0.304090
vt 0.380252 0.303892
vt 0.432239 0.304090
vt 0.442097 0.304090
vt 0.441960 0.364002
vt 0.432290 0.363948
vt 0.380225 0.364420
vt 0.380196 0.303856
vt 0.380148 0.303927
vt 0.380248 0.293259
vt 0.432239 0.293076
vt 0.432239 0.304090
vt 0.432239 0.304090
vt 0.442097 0.304090
vt 0.441960 0.364002
vt 0.432290 0.363948
vt 0.380148 0.303927
vt 0.380248 0.293259
vt 0.432239 0.293076
vt 0.432239 0.304090
vt 0.749866 0.725829
vt 0.749866 0.673743
vt 0.757465 0.672612
vt 0.757465 0.725838
vt 0.821184 0.725999
vt 0.821184 0.669138
vt 0.872713 0.669239
vt 0.872713 0.727059
vt 0.881368 0.670618
vt 0.881368 0.727463
vt 0.949243 0.729907
vt 0.949243 0.677648
vt 0.999358 0.673743
vt 0.999358 0.725829
vt 0.764543 0.725859
vt 0.764543 0.672217
vt 0.804475 0.669208
vt 0.804475 0.725859
vt 0.932412 0.730741
vt 0.932411 0.677019
vt 0.940573 0.677239
vt 0.940573 0.730605
vt 0.889422 0.727857
vt 0.889422 0.672568
vt 0.812577 0.669179
vt 0.812577 0.725922
vn -0.000515 -1.000000 0.000527
vn -0.000515 -1.000000 0.000527
vn -0.000515 -1.000000 0.000527
vn -0.000515 -1.000000 0.000527
vn -0.000531 -0.001580 -0.999999
vn -0.000531 -0.001580 -0.999999
vn -0.000531 -0.001580 -0.999999
vn -0.000531 -0.001580 -0.999999
vn 0.000382 1.000000 -0.000390
vn 0.000382 1.000000 -0.000390
vn 0.000382 1.000000 -0.000390
vn 0.000382 1.000000 -0.000390
vn 0.999985 0.000940 -0.005358
vn 0.999985 0.000940 -0.005358
vn 0.999985 0.000940 -0.005358
vn 0.999985 0.000940 -0.005358
vn 0.000466 -0.003262 0.999995
vn 0.000466 -0.003262 0.999995
vn 0.000466 -0.003262 0.999995
vn 0.000466 -0.003262 0.999995
vn -0.999999 0.000063 0.001335
vn -0.999999 0.000063 0.001335
vn -0.999999 0.000063 0.001335
vn -0.999999 0.000063 0.001335
vn -0.866013 0.000000 0.500021
vn -0.499783 0.000000 0.866151
vn -0.499783 0.000000 0.866151
vn -0.866013 0.000000 0.500021
vn 0.000366 0.000000 1.000000
vn 0.000366 0.000000 1.000000
vn 0.500309 0.000000 0.865847
vn 0.500309 0.000000 0.865847
vn 0.865909 0.000000 0.500202
vn 0.865909 0.000000 0.500202
vn 1.000000 0.000000 0.000462
vn 1.000000 0.000000 0.000462
vn 0.866064 0.000000 -0.499933
vn 0.866064 0.000000 -0.499933
vn 0.499861 0.000000 -0.866106
vn 0.499861 0.000000 -0.866106
vn -0.000366 0.000000 -1.000000
vn -0.000366 0.000000 -1.000000
vn -0.500204 0.000000 -0.865907
vn -0.500204 0.000000 -0.865907
vn -0.865848 0.000000 -0.500307
vn -0.865848 0.000000 -0.500307
vn -1.000000 0.000000 -0.000451
vn -1.000000 0.000000 -0.000451
vn 0.000000 1.000000 0.000000
vn 0.000000 1.000000 0.000000
vn 0.000000 1.000000 -0.000000
vn 0.000000 1.000000 -0.000000
vn 0.000000 1.000000 -0.000000
vn 0.000000 1.000000 0.000000
vn 0.000000 1.000000 0.000000
vn 0.000000 1.000000 0.000000
vn 0.000000 1.000000 0.000000
vn 0.000000 1.000000 0.000000
vn 0.000000 1.000000 -0.000002
vn 0.000000 1.000000 -0.000002
vn 0.000000 1.000000 0.000000
vn -0.000366 0.000000 -1.000000
vn -0.500204 0.000000 -0.865907
vn 0.499861 0.000000 -0.866106
vn 0.866064 0.000000 -0.499933
vn 1.000000 0.000000 0.000462
vn 0.865909 0.000000 0.500202
vn 0.500309 0.000000 0.865847
vn 0.000366 0.000000 1.000000
vn -0.499783 0.000000 0.866151
vn -0.866013 0.000000 0.500021
vn -1.000000 0.000000 -0.000451
vn -0.865848 0.000000 -0.500307
vn 0.500231 0.000000 0.865892
vn 0.865850 0.000000 0.500304
vn 0.865850 0.000000 0.500304
vn 0.500231 0.000000 0.865892
vn 1.000000 0.000000 0.000499
vn 1.000000 0.000000 0.000499
vn 0.866098 0.000000 -0.499874
vn 0.866098 0.000000 -0.499874
vn 0.499791 0.000000 -0.866146
vn 0.499791 0.000000 -0.866146
vn -0.000571 0.000000 -1.000000
vn -0.000571 0.000000 -1.000000
vn -0.500118 0.000000 -0.865957
vn -0.500118 0.000000 -0.865957
vn -0.865884 0.000000 -0.500245
vn -0.865884 0.000000 -0.500245
vn -1.000000 0.000000 -0.000501
vn -1.000000 0.000000 -0.000501
vn -0.866135 0.000000 0.499810
vn -0.866135 0.000000 0.499810
vn -0.499692 0.000000 0.866203
vn -0.499692 0.000000 0.866203
vn 0.000429 0.000000 1.000000
vn 0.000429 0.000000 1.000000
vn 0.192099 -0.975084 0.110947
vn 0.110925 -0.975095 0.192055
vn 0.000000 -1.000000 0.000000
vn 0.221827 -0.975086 0.000117
vn 0.191991 -0.975126 -0.110767
vn 0.110756 -0.975129 -0.191978
vn -0.000106 -0.975113 -0.221710
vn -0.110907 -0.975111 -0.191987
vn -0.191989 -0.975108 -0.110927
vn -0.221641 -0.975129 -0.000116
vn -0.191862 -0.975155 0.110730
vn -0.110719 -0.975150 0.191893
vn 0.000110 -0.975112 0.221711
vn 0.106113 0.977234 0.183725
vn 0.183735 0.977230 0.106125
vn 0.000000 1.000000 0.000000
vn 0.212128 0.977242 0.000113
vn 0.183610 0.977274 -0.105944
vn 0.105936 0.977273 -0.183619
vn -0.000107 0.977257 -0.212058
vn -0.106074 0.977255 -0.183635
vn -0.183641 0.977251 -0.106098
vn -0.212025 0.977264 -0.000112
vn -0.183509 0.977297 0.105904
vn -0.105886 0.977295 0.183528
vn 0.000108 0.977255 0.212070
vn 0.734827 -0.529015 0.424466
vn 0.424447 -0.528992 0.734855
vn 0.421714 0.537659 0.730123
vn 0.730069 0.537720 0.421731
vn 0.848532 -0.529144 0.000429
vn 0.843019 0.537884 0.000428
vn 0.734849 -0.529356 -0.424004
vn 0.730072 0.538082 -0.421263
vn 0.423987 -0.529294 -0.734903
vn 0.421244 0.538009 -0.730137
vn -0.000437 -0.529104 -0.848557
vn -0.000441 0.537804 -0.843070
vn -0.424471 -0.528998 -0.734837
vn -0.421730 0.537663 -0.730111
vn -0.734701 -0.529145 -0.424524
vn -0.729985 0.537787 -0.421790
vn -0.848360 -0.529420 -0.000431
vn -0.842914 0.538048 -0.000429
vn -0.734725 -0.529489 0.424053
vn -0.730002 0.538135 0.421317
vn -0.423992 -0.529329 0.734875
vn -0.421253 0.538005 0.730135
vn 0.000404 -0.529111 0.848552
vn 0.000404 0.537787 0.843081
vn 0.424447 -0.528992 0.734855
vn 0.734827 -0.529015 0.424466
vn 0.801838 0.377440 0.463244
vn 0.463171 0.377497 0.801854
vn 0.730069 0.537720 0.421731
vn 0.421714 0.537659 0.730123
vn 0.461425 -0.385933 0.798839
vn 0.798820 -0.385880 0.461501
vn 0.848532 -0.529144 0.000429
vn 0.926001 0.377520 0.000459
vn 0.843019 0.537884 0.000428
vn 0.922500 -0.385998 0.000463
vn 0.734849 -0.529356 -0.424004
vn 0.801957 0.377780 -0.462760
vn 0.730072 0.538082 -0.421263
vn 0.798918 -0.386272 -0.461004
vn 0.423987 -0.529294 -0.734903
vn 0.462682 0.377835 -0.801977
vn 0.421244 0.538009 -0.730137
vn 0.460928 -0.386305 -0.798946
vn -0.000437 -0.529104 -0.848557
vn -0.000509 0.377636 -0.925954
vn -0.000441 0.537804 -0.843070
vn -0.000507 -0.386109 -0.922453
vn -0.424471 -0.528998 -0.734837
vn -0.463118 0.377532 -0.801867
vn -0.421730 0.537663 -0.730111
vn -0.461351 -0.386059 -0.798820
vn -0.734701 -0.529145 -0.424524
vn -0.801717 0.377621 -0.463307
vn -0.729985 0.537787 -0.421790
vn -0.798660 -0.386166 -0.461539
vn -0.848360 -0.529420 -0.000431
vn -0.925893 0.377786 -0.000463
vn -0.842914 0.538048 -0.000429
vn -0.922372 -0.386304 -0.000462
vn -0.734725 -0.529489 0.424053
vn -0.801840 0.377934 0.462837
vn -0.730002 0.538135 0.421317
vn -0.798788 -0.386442 0.461085
vn -0.423992 -0.529329 0.734875
vn -0.462652 0.377828 0.801997
vn -0.421253 0.538005 0.730135
vn -0.460900 -0.386295 0.798966
vn 0.000404 -0.529111 0.848552
vn 0.000412 0.377650 0.925948
vn 0.000404 0.537787 0.843081
vn 0.000410 -0.386092 0.922460
vn -0.000515 -1.000000 0.000527
vn -0.000515 -1.000000 0.000527
vn -0.000515 -1.000000 0.000527
vn -0.000515 -1.000000 0.000527
vn -0.000531 -0.002178 -0.999997
vn -0.000531 -0.002178 -0.999997
vn -0.000531 -0.002178 -0.999997
vn -0.000531 -0.002178 -0.999997
vn 0.000382 1.000000 -0.000390
vn 0.000382 1.000000 -0.000390
vn 0.000382 1.000000 -0.000390
vn 0.000382 1.000000 -0.000390
vn 0.999985 0.001295 -0.005359
vn 0.999985 0.001295 -0.005359
vn 0.999985 0.001295 -0.005359
vn 0.999985 0.001295 -0.005359
vn 0.000466 -0.004497 0.999990
vn 0.000466 -0.004497 0.999990
vn 0.000466 -0.004497 0.999990
vn 0.000466 -0.004497 0.999990
vn -0.999999 0.000086 0.001335
vn -0.999999 0.000086 0.001335
vn -0.999999 0.000086 0.001335
vn -0.999999 0.000086 0.001335
vn 0.218422 0.000000 0.975854
vn 0.218422 0.000000 0.975854
vn 0.706911 0.000000 0.707303
vn 0.706911 0.000000 0.707303
vn 0.214087 0.000000 -0.976815
vn 0.214087 0.000000 -0.976815
vn -0.214940 0.000000 -0.976627
vn -0.214940 0.000000 -0.976627
vn -0.703008 0.000000 -0.711182
vn -0.703008 0.000000 -0.711182
vn -0.217630 0.000000 0.976031
vn -0.217630 0.000000 0.976031
vn 0.975794 0.000000 0.218693
vn 0.975794 0.000000 0.218693
vn 0.975134 0.000000 -0.221618
vn 0.975134 0.000000 -0.221618
vn -0.975630 0.000000 0.219423
vn -0.975630 0.000000 0.219423
vn -0.705806 0.000000 0.708405
vn -0.705806 0.000000 0.708405
vn -0.975369 0.000000 -0.220581
vn -0.975369 0.000000 -0.220581
vn 0.701629 0.000000 -0.712542
vn 0.701629 0.000000 -0.712542
s off
g Componentsb_polySurface24980
f 3/1/1 6/2/2 5/3/3 4/4/4
f 7/5/5 5/6/6 6/7/7 8/8/8
f 2/9/9 1/10/10 7/5/11 8/8/12
f 1/11/13 4/12/14 5/13/15 7/14/16
f 2/15/17 3/16/18 4/17/19 1/18/20
f 8/19/21 6/20/22 3/21/23 2/22/24
s 7
f 9/23/25 10/24/26 11/25/27 12/26/28
f 10/24/26 13/27/29 14/28/30 11/29/27
f 13/30/29 15/31/31 16/32/32 14/33/30
f 15/31/31 17/34/33 18/35/34 16/36/32
f 17/34/33 19/37/35 20/38/36 18/39/34
f 19/37/35 21/40/37 22/41/38 20/42/36
f 21/40/37 23/43/39 24/44/40 22/45/38
f 23/43/39 25/46/41 26/47/42 24/48/40
f 26/49/42 25/46/41 27/50/43 28/51/44
f 27/50/43 29/52/45 30/53/46 28/54/44
f 29/52/45 31/55/47 32/56/48 30/57/46
f 31/55/47 9/23/25 12/58/28 32/59/48
s 8
f 33/60/49 34/61/50 35/62/51
f 34/61/50 36/63/52 35/62/51
f 36/63/52 37/64/53 35/62/51
f 37/64/53 38/65/54 35/62/51
f 38/65/54 39/66/55 35/62/51
f 39/66/55 40/67/56 35/62/51
f 40/67/56 41/68/57 35/62/51
f 41/68/57 42/69/58 35/62/51
f 42/69/58 43/70/59 35/62/51
f 43/70/59 44/71/60 35/62/51
f 44/71/60 45/72/61 35/62/51
f 45/72/61 33/60/49 35/62/51
s 7
f 42/73/62 26/74/42 28/75/44 43/76/63
f 24/77/40 26/78/42 42/73/62 41/79/64
f 22/80/38 24/81/40 41/79/64 40/82/65
f 20/83/36 22/84/38 40/82/65 39/85/66
f 18/86/34 20/87/36 39/85/66 38/88/67
f 16/89/32 18/90/34 38/88/67 37/91/68
f 14/92/30 16/93/32 37/91/68 36/94/69
f 11/95/27 14/96/30 36/97/69 34/98/70
f 12/99/28 11/100/27 34/98/70 33/101/71
f 32/102/48 12/103/28 33/101/71 45/104/72
f 30/105/46 32/106/48 45/104/72 44/107/73
f 28/108/44 30/109/46 44/107/73 43/76/63
s 9
f 46/110/74 47/111/75 48/112/76 49/113/77
f 47/111/75 50/114/78 51/115/79 48/112/76
f 50/116/78 52/117/80 53/118/81 51/119/79
f 52/117/80 54/120/82 55/121/83 53/118/81
f 54/120/82 56/122/84 57/123/85 55/121/83
f 56/122/84 58/124/86 59/125/87 57/123/85
f 58/124/86 60/126/88 61/127/89 59/125/87
f 60/126/88 62/128/90 63/129/91 61/127/89
f 62/128/90 64/130/92 65/131/93 63/129/91
f 64/130/92 66/132/94 67/133/95 65/131/93
f 66/132/94 68/134/96 69/135/97 67/133/95
f 68/134/96 46/110/74 49/113/77 69/135/97
s 10
f 70/136/98 71/137/99 72/138/100
f 73/139/101 70/136/98 72/140/100
f 74/141/102 73/142/101 72/143/100
f 75/144/103 74/141/102 72/145/100
f 76/146/104 75/144/103 72/147/100
f 77/148/105 76/146/104 72/149/100
f 78/150/106 77/148/105 72/151/100
f 79/152/107 78/150/106 72/153/100
f 80/154/108 79/152/107 72/155/100
f 81/156/109 80/154/108 72/157/100
f 82/158/110 81/156/109 72/159/100
f 71/137/99 82/158/110 72/160/100
s 11
f 83/161/111 84/162/112 85/163/113
f 84/162/112 86/164/114 85/165/113
f 86/166/114 87/167/115 85/168/113
f 87/167/115 88/169/116 85/170/113
f 88/169/116 89/171/117 85/172/113
f 89/171/117 90/173/118 85/174/113
f 90/173/118 91/175/119 85/176/113
f 91/175/119 92/177/120 85/178/113
f 92/177/120 93/179/121 85/180/113
f 93/179/121 94/181/122 85/182/113
f 94/181/122 95/183/123 85/184/113
f 95/183/123 83/161/111 85/185/113
s 10
f 71/137/99 70/136/98 96/186/124 97/187/125
s 11
f 84/162/112 83/161/111 98/188/126 99/189/127
s 10
f 70/136/98 73/139/101 100/190/128 96/186/124
s 11
f 86/164/114 84/162/112 99/189/127 101/191/129
s 10
f 73/142/101 74/141/102 102/192/130 100/193/128
s 11
f 87/167/115 86/166/114 101/194/129 103/195/131
s 10
f 74/141/102 75/144/103 104/196/132 102/192/130
s 11
f 88/169/116 87/167/115 103/195/131 105/197/133
s 10
f 75/144/103 76/146/104 106/198/134 104/196/132
s 11
f 89/171/117 88/169/116 105/197/133 107/199/135
s 10
f 76/146/104 77/148/105 108/200/136 106/198/134
s 11
f 90/173/118 89/171/117 107/199/135 109/201/137
s 10
f 77/148/105 78/150/106 110/202/138 108/200/136
s 11
f 91/175/119 90/173/118 109/201/137 111/203/139
s 10
f 78/150/106 79/152/107 112/204/140 110/202/138
s 11
f 92/177/120 91/175/119 111/203/139 113/205/141
s 10
f 79/152/107 80/154/108 114/206/142 112/204/140
s 11
f 93/179/121 92/177/120 113/205/141 115/207/143
s 10
f 80/154/108 81/156/109 116/208/144 114/206/142
s 11
f 94/181/122 93/179/121 115/207/143 117/209/145
s 10
f 81/156/109 82/158/110 118/210/146 116/208/144
s 11
f 95/183/123 94/181/122 117/209/145 119/211/147
s 10
f 82/158/110 71/137/99 97/187/125 118/210/146
s 11
f 83/161/111 95/183/123 119/211/147 98/188/126
s 9
f 97/187/148 96/186/149 120/212/150 121/213/151
f 99/189/152 98/188/153 122/214/154 123/215/155
f 96/186/149 100/190/156 124/216/157 120/212/150
f 101/191/158 99/189/152 123/215/155 125/217/159
f 100/193/156 102/192/160 126/218/161 124/219/157
f 103/195/162 101/194/158 125/220/159 127/221/163
f 102/192/160 104/196/164 128/222/165 126/218/161
f 105/197/166 103/195/162 127/221/163 129/223/167
f 104/196/164 106/198/168 130/224/169 128/222/165
f 107/199/170 105/197/166 129/223/167 131/225/171
f 106/198/168 108/200/172 132/226/173 130/224/169
f 109/201/174 107/199/170 131/225/171 133/227/175
f 108/200/172 110/202/176 134/228/177 132/226/173
f 111/203/178 109/201/174 133/227/175 135/229/179
f 110/202/176 112/204/180 136/230/181 134/228/177
f 113/205/182 111/203/178 135/229/179 137/231/183
f 112/204/180 114/206/184 138/232/185 136/230/181
f 115/207/186 113/205/182 137/231/183 139/233/187
f 114/206/184 116/208/188 140/234/189 138/232/185
f 117/209/190 115/207/186 139/233/187 141/235/191
f 116/208/188 118/210/192 142/236/193 140/234/189
f 119/211/194 117/209/190 141/235/191 143/237/195
f 118/210/192 97/187/148 121/213/151 142/236/193
f 98/188/153 119/211/194 143/237/195 122/214/154
f 137/231/183 135/229/179 61/127/89 63/129/91
f 139/233/187 137/231/183 63/129/91 65/131/93
f 141/235/191 139/233/187 65/131/93 67/133/95
f 143/237/195 141/235/191 67/133/95 69/135/97
f 122/214/154 143/237/195 69/135/97 49/113/77
f 123/215/155 122/214/154 49/113/77 48/112/76
f 125/217/159 123/215/155 48/112/76 51/115/79
f 127/221/163 125/220/159 51/119/79 53/118/81
f 129/223/167 127/221/163 53/118/81 55/121/83
f 131/225/171 129/223/167 55/121/83 57/123/85
f 133/227/175 131/225/171 57/123/85 59/125/87
f 135/229/179 133/227/175 59/125/87 61/127/89
f 132/226/173 134/228/177 60/126/88 58/124/86
f 130/224/169 132/226/173 58/124/86 56/122/84
f 128/222/165 130/224/169 56/122/84 54/120/82
f 126/218/161 128/222/165 54/120/82 52/117/80
f 124/219/157 126/218/161 52/117/80 50/116/78
f 120/212/150 124/216/157 50/114/78 47/111/75
f 121/213/151 120/212/150 47/111/75 46/110/74
f 142/236/193 121/213/151 46/110/74 68/134/96
f 140/234/189 142/236/193 68/134/96 66/132/94
f 138/232/185 140/234/189 66/132/94 64/130/92
f 136/230/181 138/232/185 64/130/92 62/128/90
f 134/228/177 136/230/181 62/128/90 60/126/88
s off
f 146/238/196 149/239/197 148/240/198 147/241/199
f 150/242/200 148/243/201 149/244/202 151/245/203
f 145/246/204 144/247/205 150/242/206 151/245/207
f 144/248/208 147/249/209 148/250/210 150/251/211
f 145/252/212 146/253/213 147/254/214 144/255/215
f 151/256/216 149/257/217 146/258/218 145/259/219
s 18
f 152/260/220 153/261/221 168/262/222 169/263/223
f 154/264/224 155/265/225 157/266/226 156/267/227
f 156/267/227 157/266/226 172/268/228 173/269/229
f 158/270/230 159/271/231 153/272/221 152/273/220
f 160/274/232 161/275/233 167/276/234 166/277/235
f 162/278/236 163/279/237 170/280/238 171/281/239
f 164/282/240 165/283/241 163/279/237 162/278/236
f 166/277/235 167/276/234 174/284/242 175/285/243
f 169/263/223 168/262/222 161/275/233 160/274/232
f 171/281/239 170/280/238 159/271/231 158/270/230
f 173/269/229 172/268/228 165/283/241 164/282/240
f 175/285/243 174/284/242 155/265/225 154/264/224
