# This file uses centimeters as units for non-parametric coordinates.

g default
v -29.579498 0.013989 -1.626199
v -26.327087 0.013989 -1.626199
v -26.327103 0.013989 1.626199
v -29.579498 0.013989 1.626199
v -26.327087 -0.078109 1.626199
v -29.579498 -0.078425 1.626199
v -26.327087 -0.078125 -1.626199
v -29.579498 -0.078441 -1.626199
vt 0.006384 0.605683
vt 0.218582 0.605683
vt 0.218582 0.391100
vt 0.006384 0.391100
vt 0.218582 0.593524
vt 0.218582 0.605683
vt 0.006384 0.593524
vt 0.006384 0.605683
vt 0.018339 0.605683
vt 0.006384 0.605683
vt 0.006384 0.391100
vt 0.018339 0.391100
vt 0.206489 0.391100
vt 0.218582 0.391100
vt 0.206489 0.605683
vt 0.218582 0.605683
vt 0.218582 0.391100
vt 0.218582 0.403309
vt 0.006384 0.391100
vt 0.006384 0.403309
vt 0.006384 0.605683
vt 0.218582 0.605683
vt 0.218582 0.391100
vt 0.006384 0.391100
vn 0.000000 1.000000 -0.000000
vn 0.000000 1.000000 -0.000000
vn 0.000000 1.000000 -0.000000
vn 0.000000 1.000000 -0.000000
vn 0.000000 0.000000 1.000000
vn 0.000000 0.000000 1.000000
vn 0.000000 0.000000 1.000000
vn 0.000000 0.000000 1.000000
vn 1.000000 0.000102 0.000002
vn 1.000000 0.000102 0.000002
vn 1.000000 0.000102 0.000002
vn 1.000000 0.000102 0.000002
vn -1.000000 0.000000 0.000000
vn -1.000000 0.000000 0.000000
vn -1.000000 0.000000 0.000000
vn -1.000000 0.000000 0.000000
vn -0.000000 0.000000 -1.000000
vn -0.000000 0.000000 -1.000000
vn -0.000000 0.000000 -1.000000
vn -0.000000 0.000000 -1.000000
vn 0.000097 -1.000000 0.000005
vn 0.000097 -1.000000 0.000005
vn 0.000097 -1.000000 0.000005
vn 0.000097 -1.000000 0.000005
s off
g polySurface23020
f 2/2/1 1/1/2 4/4/3 3/3/4
f 3/6/5 4/8/6 6/7/7 5/5/8
f 7/9/9 2/10/10 3/11/11 5/12/12
f 4/14/13 1/16/14 8/15/15 6/13/16
f 8/20/17 1/19/18 2/17/19 7/18/20
f 7/22/21 5/23/22 6/24/23 8/21/24
