# This file uses centimeters as units for non-parametric coordinates.

g default
v -99.356613 0.282233 3.101294
v -88.632187 0.282233 3.101294
v -99.356613 0.282233 -3.101293
v -88.632187 0.282233 -3.101293
v -97.169388 0.282233 3.101294
v -97.169388 0.282233 -3.101293
v -90.860931 0.282233 3.101294
v -90.860931 0.282233 -3.101293
v -99.356613 0.282233 -1.121123
v -88.632187 0.282233 -1.121123
v -99.356613 0.282233 1.069552
v -88.632187 0.282233 1.069552
v -94.000626 0.277166 -0.027062
v -100.697739 0.733366 -1.630290
v -97.647568 0.800560 -4.505373
v -100.697739 1.331327 -4.505373
v -90.396362 0.800560 -4.505373
v -87.291077 0.733366 -1.630290
v -87.291077 1.331327 -4.505373
v -100.697739 0.733366 1.559080
v -87.291077 0.733366 1.559080
v -100.697739 1.331327 4.505372
v -97.647568 0.800560 4.505372
v -90.396362 0.800560 4.505372
v -87.291077 1.331327 4.505372
v -98.624954 1.294393 -0.907684
v -98.624893 1.315229 -2.529530
v -89.375168 1.315242 -2.529527
v -89.374619 1.294402 -0.907682
v -98.624954 1.294406 0.867664
v -89.374619 1.294414 0.867662
v -98.624893 1.315248 2.530089
v -89.375168 1.315259 2.530087
v -98.625015 2.820720 -0.175081
v -98.624893 2.116892 -1.109577
v -89.374802 2.820726 -0.175081
v -89.375168 2.116905 -1.109576
v -98.625015 2.820727 0.134879
v -89.374802 2.820732 0.134879
v -98.624893 2.116911 1.110024
v -89.375168 2.116923 1.110023
v -94.001022 0.287299 3.101294
v -94.000931 0.669884 4.505372
v -94.001816 1.200654 2.530088
v -94.001816 1.958767 1.110024
v -94.001816 2.662580 0.134879
v -94.001816 2.662573 -0.175081
v -94.001816 1.958749 -1.109576
v -94.001816 1.200637 -2.529529
v -94.000931 0.669884 -4.505373
v -94.001022 0.287299 -3.101293
v -97.645187 0.619755 -4.496700
v -94.000931 0.489079 -4.496700
v -90.398682 0.619755 -4.496700
v -87.297806 1.143776 -4.496700
v -87.297806 0.552561 -1.627133
v -87.297806 0.552561 1.556016
v -87.297806 1.143776 4.496699
v -90.398682 0.619755 4.496699
v -94.000931 0.489079 4.496699
v -97.645187 0.619755 4.496699
v -100.690994 1.143776 4.496699
v -100.690994 0.552561 1.556016
v -100.690994 0.552561 -1.627133
v -100.690994 1.143776 -4.496700
v -98.625015 3.124633 -0.175081
v -94.001816 2.966485 -0.175081
v -98.625015 3.124639 0.134879
v -94.001816 2.966492 0.134879
v -89.374802 3.124638 -0.175081
v -89.374802 3.124644 0.134879
v -88.269272 1.244915 -3.577984
v -88.269012 0.917833 -1.291125
v -88.269012 0.917839 1.234554
v -88.269272 1.244923 3.578245
v -89.786713 1.011023 3.479971
v -94.001450 0.889941 3.479972
v -98.231033 1.011016 3.479973
v -99.718124 1.244865 3.571857
v -99.718124 0.919650 1.232318
v -99.718124 0.919644 -1.288789
v -99.718124 1.244856 -3.571593
v -98.231033 1.011005 -3.479639
v -94.001450 0.889930 -3.479639
v -89.786713 1.011013 -3.479638
vt 0.375000 0.420679
vt 0.375000 0.500000
vt 0.455359 0.500000
vt 0.499551 0.376697
vt 0.455359 0.500000
vt 0.500091 0.500000
vt 0.543743 0.500000
vt 0.625000 0.500000
vt 0.625000 0.420679
vt 0.375000 0.332715
vt 0.375000 0.420679
vt 0.625000 0.420679
vt 0.625000 0.332715
vt 0.375000 0.250000
vt 0.455359 0.250000
vt 0.500091 0.250000
vt 0.625000 0.250000
vt 0.543743 0.250000
vt 0.415179 0.500000
vt 0.415179 0.420679
vt 0.500808 0.420679
vt 0.500808 0.500000
vt 0.500808 0.420679
vt 0.415179 0.420679
vt 0.415179 0.332715
vt 0.500808 0.332715
vt 0.500808 0.332715
vt 0.415179 0.332715
vt 0.415179 0.250000
vt 0.500808 0.250000
vt 0.455359 0.500000
vt 0.375000 0.500000
vt 0.375000 0.500000
vt 0.455359 0.500000
vt 0.375000 0.420679
vt 0.375000 0.420679
vt 0.500091 0.500000
vt 0.500091 0.500000
vt 0.625000 0.420679
vt 0.625000 0.500000
vt 0.625000 0.500000
vt 0.625000 0.420679
vt 0.543743 0.500000
vt 0.543743 0.500000
vt 0.375000 0.332715
vt 0.375000 0.332715
vt 0.625000 0.332715
vt 0.625000 0.332715
vt 0.375000 0.250000
vt 0.455359 0.250000
vt 0.455359 0.250000
vt 0.375000 0.250000
vt 0.500091 0.250000
vt 0.500091 0.250000
vt 0.543743 0.250000
vt 0.625000 0.250000
vt 0.625000 0.250000
vt 0.543743 0.250000
vt 0.455359 0.500000
vt 0.375000 0.500000
vt 0.393989 0.500000
vt 0.431372 0.500000
vt 0.375000 0.420679
vt 0.375000 0.420679
vt 0.500091 0.500000
vt 0.500519 0.500000
vt 0.625000 0.420679
vt 0.625000 0.500000
vt 0.605931 0.500000
vt 0.625000 0.420679
vt 0.543743 0.500000
vt 0.567998 0.500000
vt 0.375000 0.332715
vt 0.375000 0.332715
vt 0.625000 0.332715
vt 0.625000 0.332715
vt 0.375000 0.250000
vt 0.455359 0.250000
vt 0.431372 0.250000
vt 0.393989 0.250000
vt 0.500091 0.250000
vt 0.500519 0.250000
vt 0.543743 0.250000
vt 0.625000 0.250000
vt 0.605931 0.250000
vt 0.567998 0.250000
vt 0.415179 0.500000
vt 0.375000 0.420679
vt 0.500808 0.500000
vt 0.375000 0.332715
vt 0.415179 0.250000
vt 0.500808 0.250000
vt 0.584372 0.500000
vt 0.584372 0.250000
vt 0.625000 0.332715
vt 0.625000 0.420679
vt 0.584372 0.250000
vt 0.584372 0.500000
vt 0.584372 0.332715
vt 0.584372 0.420679
vt 0.584372 0.420679
vt 0.584372 0.332715
vn -0.130790 -0.990981 -0.029161
vn -0.000579 -1.000000 -0.000639
vn -0.028003 -0.990524 -0.134454
vn -0.000004 -1.000000 -0.000014
vn 0.000044 -0.995435 -0.095437
vn 0.027609 -0.990483 -0.134835
vn 0.000574 -1.000000 -0.000646
vn 0.130788 -0.990981 -0.029162
vn -0.131469 -0.990913 0.028427
vn 0.131467 -0.990913 0.028428
vn -0.000581 -1.000000 0.000625
vn -0.028003 -0.990526 0.134437
vn 0.000044 -0.995438 0.095409
vn 0.000576 -1.000000 0.000632
vn 0.027610 -0.990486 0.134818
vn 0.026648 0.839499 -0.542707
vn 0.027314 0.798489 -0.601389
vn 0.000010 0.798789 -0.601612
vn 0.000009 0.839798 -0.542899
vn 0.000014 1.000000 -0.000022
vn 0.034187 0.999415 -0.000022
vn 0.034187 0.999415 -0.000022
vn 0.000014 1.000000 -0.000022
vn 0.000010 0.810862 0.585237
vn 0.027727 0.810549 0.585015
vn 0.026837 0.844981 0.534123
vn 0.000010 0.845286 0.534314
vn -0.093663 -0.935343 -0.341116
vn -0.093663 -0.935343 -0.341116
vn -0.056110 -0.962622 -0.264973
vn -0.317467 -0.941301 -0.114751
vn -0.258945 -0.964174 -0.057583
vn -0.317467 -0.941301 -0.114751
vn 0.000094 -0.982402 -0.186781
vn 0.317468 -0.941300 -0.114751
vn 0.317468 -0.941300 -0.114751
vn 0.258945 -0.964174 -0.057583
vn 0.091931 -0.934996 -0.342536
vn 0.055336 -0.962461 -0.265719
vn 0.091931 -0.934996 -0.342536
vn -0.260275 -0.963902 0.056130
vn 0.260275 -0.963902 0.056130
vn -0.093662 -0.935343 0.341116
vn -0.056110 -0.962622 0.264974
vn -0.093662 -0.935343 0.341116
vn -0.320115 -0.940752 0.111854
vn -0.320115 -0.940752 0.111854
vn 0.000094 -0.982402 0.186782
vn 0.091931 -0.934996 0.342537
vn 0.091931 -0.934996 0.342537
vn 0.055336 -0.962461 0.265719
vn 0.320116 -0.940752 0.111854
vn 0.320116 -0.940752 0.111854
vn 0.099669 0.984126 -0.146840
vn 0.167300 0.981230 -0.095903
vn 0.166697 0.971699 -0.167374
vn 0.097821 0.972899 -0.209518
vn -0.162631 0.971253 0.173838
vn -0.175400 0.980623 0.087257
vn -0.232481 0.970419 0.065119
vn -0.207658 0.969539 0.129891
vn -0.000116 0.980483 -0.196604
vn -0.000067 0.968196 -0.250193
vn 0.174060 0.980851 0.087376
vn 0.161404 0.971415 0.174074
vn 0.206315 0.969786 0.130186
vn 0.230973 0.970769 0.065267
vn -0.164417 0.981960 -0.093388
vn -0.098334 0.984481 -0.145354
vn -0.096593 0.973293 -0.208258
vn -0.164123 0.972508 -0.165203
vn -0.173460 0.981144 -0.085249
vn -0.231053 0.970859 -0.063612
vn 0.172126 0.981369 -0.085365
vn 0.229549 0.971207 -0.063756
vn 0.167298 0.981227 0.095942
vn 0.099668 0.984118 0.146895
vn 0.097818 0.972887 0.209580
vn 0.166690 0.971691 0.167425
vn -0.158817 0.972586 -0.169863
vn -0.204839 0.970536 -0.126888
vn -0.000116 0.980469 0.196676
vn -0.000067 0.968177 0.250265
vn -0.098333 0.984473 0.145408
vn -0.164416 0.981957 0.093425
vn -0.164116 0.972501 0.165253
vn -0.096589 0.973280 0.208319
vn 0.157603 0.972743 -0.170093
vn 0.203504 0.970779 -0.127176
vn -1.000000 0.000069 -0.000037
vn -1.000000 0.000069 -0.000018
vn -1.000000 -0.000014 -0.000012
vn -0.000005 0.919081 -0.394070
vn 0.072739 0.936311 -0.343557
vn -1.000000 0.000063 0.000018
vn -1.000000 0.000056 0.000036
vn -1.000000 -0.000018 0.000012
vn 0.072734 0.936299 0.343590
vn -0.000005 0.919072 0.394089
vn 1.000000 0.000244 -0.000110
vn 1.000000 0.000242 0.000108
vn 1.000000 0.000624 0.000162
vn 1.000000 0.000627 -0.000166
vn 1.000000 0.000571 0.000323
vn 1.000000 0.000577 -0.000331
vn 1.000000 -0.000260 0.000000
vn 1.000000 -0.000260 0.000000
vn -1.000000 -0.000090 0.000000
vn -1.000000 -0.000090 0.000000
vn -0.071982 0.936607 0.342908
vn -0.026818 0.844983 0.534121
vn -0.027706 0.810552 0.585011
vn -0.034160 0.999416 -0.000021
vn -0.034160 0.999416 -0.000021
vn -0.027294 0.798492 -0.601386
vn -0.026629 0.839501 -0.542705
vn -0.071986 0.936619 -0.342874
vn 0.000010 -0.047923 -0.998851
vn -0.004945 -0.047580 -0.998855
vn -0.004945 -0.047580 -0.998855
vn 0.000010 -0.047923 -0.998851
vn 0.004883 -0.047578 -0.998856
vn 0.004883 -0.047578 -0.998856
vn 0.008027 -0.047232 -0.998852
vn 0.008027 -0.047232 -0.998852
vn 0.999309 -0.036986 -0.003804
vn 0.999295 -0.036762 -0.007608
vn 0.999295 -0.036762 -0.007608
vn 0.999309 -0.036986 -0.003804
vn 0.999309 -0.036977 0.003711
vn 0.999309 -0.036977 0.003711
vn 0.999297 -0.036744 0.007423
vn 0.999297 -0.036744 0.007423
vn 0.004883 -0.047578 0.998856
vn 0.008028 -0.047232 0.998852
vn 0.008028 -0.047232 0.998852
vn 0.004883 -0.047578 0.998856
vn 0.000010 -0.047923 0.998851
vn 0.000010 -0.047923 0.998851
vn -0.004946 -0.047580 0.998855
vn -0.004946 -0.047580 0.998855
vn -0.008174 -0.047237 0.998850
vn -0.008174 -0.047237 0.998850
vn -0.999306 -0.037055 0.003720
vn -0.999294 -0.036821 0.007440
vn -0.999294 -0.036821 0.007440
vn -0.999306 -0.037055 0.003720
vn -0.999306 -0.037068 -0.003813
vn -0.999306 -0.037068 -0.003813
vn -0.999292 -0.036846 -0.007626
vn -0.999292 -0.036846 -0.007626
vn -0.008173 -0.047237 -0.998850
vn -0.008173 -0.047237 -0.998850
vn 0.000000 0.000000 -1.000000
vn 0.000000 0.000000 -1.000000
vn 0.000000 0.000000 -1.000000
vn 0.000000 0.000000 -1.000000
vn -1.000000 0.000000 0.000000
vn -1.000000 0.000000 0.000000
vn 0.000000 0.000000 1.000000
vn 0.000000 0.000000 1.000000
vn 0.000000 0.000000 1.000000
vn 0.000000 0.000000 1.000000
vn 0.000000 0.000000 -1.000000
vn 0.000000 0.000000 -1.000000
vn 0.000000 0.000000 1.000000
vn 0.000000 0.000000 1.000000
vn 1.000000 0.000000 0.000000
vn 1.000000 0.000000 0.000000
vn 0.286875 0.957004 0.042960
vn 0.250413 0.964331 0.085785
vn 0.285965 0.957321 -0.041948
vn 0.248600 0.964978 -0.083757
vn -0.287628 0.956831 -0.041774
vn -0.250047 0.964634 -0.083410
vn -0.288539 0.956512 0.042782
vn -0.251863 0.963985 0.085429
s 1
g polySurface26770
f 9/1/1 3/2/2 6/3/3 13/4/4
f 6/5/3 51/6/5 13/4/4
f 8/7/6 4/8/7 10/9/8 13/4/4
f 11/10/9 9/11/1 13/4/4
f 10/12/8 12/13/10 13/4/4
f 1/14/11 11/10/9 13/4/4 5/15/12
f 13/4/4 42/16/13 5/15/12
f 12/13/10 2/17/14 7/18/15 13/4/4
s 2
f 35/19/16 34/20/17 47/21/18 48/22/19
s 3
f 67/23/20 66/24/21 68/25/22 69/26/23
s 4
f 46/27/24 38/28/25 40/29/26 45/30/27
s 1
f 6/31/3 3/32/28 65/33/29 52/34/30
f 3/32/31 9/35/1 64/36/32 65/33/33
f 51/37/5 6/31/3 52/34/30 53/38/34
f 10/39/8 4/40/35 55/41/36 56/42/37
f 4/40/38 8/43/6 54/44/39 55/41/40
f 9/35/1 11/45/9 63/46/41 64/36/32
f 12/47/10 10/39/8 56/42/37 57/48/42
f 1/49/43 5/50/12 61/51/44 62/52/45
f 11/45/9 1/49/46 62/52/47 63/46/41
f 5/50/12 42/53/13 60/54/48 61/51/44
f 7/55/15 2/56/49 58/57/50 59/58/51
f 2/56/52 12/47/10 57/48/42 58/57/53
s 2
f 15/59/54 16/60/55 82/61/56 83/62/57
s 5
f 16/60/58 14/63/59 81/64/60 82/61/61
s 2
f 50/65/62 15/59/54 83/62/57 84/66/63
s 6
f 18/67/64 19/68/65 72/69/66 73/70/67
s 2
f 19/68/68 17/71/69 85/72/70 72/69/71
s 5
f 14/63/59 20/73/72 80/74/73 81/64/60
s 6
f 21/75/74 18/67/64 73/70/67 74/76/75
s 4
f 22/77/76 23/78/77 78/79/78 79/80/79
s 5
f 20/73/72 22/77/80 79/80/81 80/74/73
s 4
f 23/78/77 43/81/82 77/82/83 78/79/78
f 24/83/84 25/84/85 75/85/86 76/86/87
s 6
f 25/84/88 21/75/74 74/76/75 75/85/89
s 7
f 27/87/90 26/88/91 35/19/92
s 2
f 49/89/93 27/87/94 35/19/16 48/22/19
s 7
f 30/90/95 32/91/96 40/29/97
s 4
f 32/91/98 44/92/99 45/30/27 40/29/26
s 8
f 37/93/100 41/94/101 31/95/102 29/96/103
f 33/97/104 31/95/102 41/94/101
f 29/96/103 28/98/105 37/93/100
s 7
f 40/29/97 35/19/92 26/88/91 30/90/95
s 8
f 39/99/106 41/94/101 37/93/100 36/100/107
s 7
f 38/28/108 34/20/109 35/19/92 40/29/97
s 1
f 42/53/13 7/55/15 59/58/51 60/54/48
s 4
f 77/82/83 43/81/82 24/83/84 76/86/87
f 45/30/27 44/92/99 33/97/110 41/94/111
f 39/99/112 46/27/24 45/30/27 41/94/111
s 3
f 70/101/113 67/23/20 69/26/23 71/102/114
s 2
f 48/22/19 47/21/18 36/100/115 37/93/116
f 28/98/117 49/89/93 48/22/19 37/93/116
f 17/71/69 50/65/62 84/66/63 85/72/70
s 1
f 8/43/6 51/37/5 53/38/34 54/44/39
f 13/4/4 51/6/5 8/7/6
f 13/4/4 7/18/15 42/16/13
s 9
f 53/38/118 52/34/119 15/59/120 50/65/121
f 54/44/122 53/38/118 50/65/121 17/71/123
f 55/41/124 54/44/122 17/71/123 19/68/125
s 10
f 56/42/126 55/41/127 19/68/128 18/67/129
f 57/48/130 56/42/126 18/67/129 21/75/131
f 58/57/132 57/48/130 21/75/131 25/84/133
s 11
f 59/58/134 58/57/135 25/84/136 24/83/137
f 60/54/138 59/58/134 24/83/137 43/81/139
f 61/51/140 60/54/138 43/81/139 23/78/141
f 62/52/142 61/51/140 23/78/141 22/77/143
s 12
f 63/46/144 62/52/145 22/77/146 20/73/147
f 64/36/148 63/46/144 20/73/147 14/63/149
f 65/33/150 64/36/148 14/63/149 16/60/151
s 9
f 52/34/119 65/33/152 16/60/153 15/59/120
s 13
f 47/21/154 34/20/155 66/24/156 67/23/157
s 7
f 34/20/109 38/28/108 68/25/158 66/24/159
s 14
f 38/28/160 46/27/161 69/26/162 68/25/163
s 13
f 36/100/164 47/21/154 67/23/157 70/101/165
s 14
f 46/27/161 39/99/166 71/102/167 69/26/162
s 8
f 39/99/106 36/100/107 70/101/168 71/102/169
s 6
f 29/96/170 73/70/67 72/69/66 28/98/171
f 31/95/172 74/76/75 73/70/67 29/96/170
f 33/97/173 75/85/89 74/76/75 31/95/172
s 4
f 76/86/87 75/85/86 33/97/110
f 44/92/99 77/82/83 76/86/87 33/97/110
f 78/79/78 77/82/83 44/92/99 32/91/98
f 79/80/79 78/79/78 32/91/98
s 5
f 30/90/174 80/74/73 79/80/81 32/91/175
f 26/88/176 81/64/60 80/74/73 30/90/174
f 27/87/177 82/61/61 81/64/60 26/88/176
s 2
f 83/62/57 82/61/56 27/87/94
f 84/66/63 83/62/57 27/87/94 49/89/93
f 85/72/70 84/66/63 49/89/93 28/98/117
f 72/69/71 85/72/70 28/98/117
