# This file uses centimeters as units for non-parametric coordinates.

g default
v -57.580051 -0.070308 -0.136483
v -57.299110 -0.070310 -0.136483
v -57.580051 -0.070308 0.136483
v -57.299110 -0.070310 0.136483
v -57.580124 2.543344 0.136483
v -57.299252 2.543343 0.136483
v -57.580124 2.543344 -0.136238
v -57.299252 2.543343 -0.136238
vt 0.946303 0.105463
vt 0.991419 0.105468
vt 0.946302 0.069330
vt 0.991419 0.069330
vt 0.503660 0.030047
vt 0.503660 0.068347
vt 0.993934 0.068347
vt 0.993931 0.030089
vt 0.993934 0.068347
vt 0.993931 0.030089
vt 0.503660 0.030047
vt 0.503660 0.068347
vt 0.503660 0.106657
vt 0.993931 0.106614
vt 0.503660 0.106657
vt 0.993931 0.106614
vt 0.946302 0.069330
vt 0.946303 0.105463
vt 0.991419 0.105468
vt 0.991419 0.069330
vn -0.000007 -1.000000 0.000000
vn -0.000007 -1.000000 0.000000
vn -0.000007 -1.000000 0.000000
vn -0.000007 -1.000000 0.000000
vn 0.000000 0.000000 1.000000
vn 0.000000 0.000000 1.000000
vn 0.000000 0.000000 1.000000
vn 0.000000 0.000000 1.000000
vn 0.000000 0.000094 -1.000000
vn 0.000000 0.000094 -1.000000
vn 0.000000 0.000094 -1.000000
vn 0.000000 0.000094 -1.000000
vn 1.000000 0.000055 0.000000
vn 1.000000 0.000055 0.000000
vn 1.000000 0.000055 0.000000
vn 1.000000 0.000055 0.000000
vn -1.000000 -0.000027 0.000000
vn -1.000000 -0.000027 0.000000
vn -1.000000 -0.000027 0.000000
vn -1.000000 -0.000027 0.000000
vn 0.000003 1.000000 0.000000
vn 0.000003 1.000000 0.000000
vn 0.000003 1.000000 0.000000
vn 0.000003 1.000000 0.000000
s off
g polySurface26232
f 3/3/1 1/1/2 2/2/3 4/4/4
f 3/5/5 4/6/6 6/7/7 5/8/8
f 7/9/9 8/10/10 2/11/11 1/12/12
f 4/6/13 2/13/14 8/14/15 6/7/16
f 1/12/17 3/15/18 5/16/19 7/9/20
f 6/17/21 8/18/22 7/19/23 5/20/24
