# This file uses centimeters as units for non-parametric coordinates.

g default
v -59.243275 0.910120 -0.026922
v -59.243275 2.374535 -0.026895
v -58.645954 2.374535 -0.026922
v -58.630848 0.910120 -0.026922
v -59.983356 0.910120 -0.026922
v -59.983356 2.374535 -0.026895
v -59.386036 2.374535 -0.026922
v -59.370930 0.910120 -0.026922
v -58.459476 0.725348 -0.096478
v -58.459476 0.784447 -0.096478
v -58.459476 0.784447 0.094680
v -58.459476 0.725348 0.094680
v -60.142921 0.784447 0.094680
v -60.142921 0.784447 -0.096478
v -60.142921 0.725348 -0.096478
v -60.142921 0.725348 0.094680
v -58.505558 2.542992 -0.113090
v -58.505558 2.542992 0.106893
v -58.396191 2.542992 -0.113090
v -58.396191 2.542992 0.106893
v -58.396191 -0.086360 -0.113090
v -58.505558 -0.086360 -0.113090
v -58.396191 -0.086362 0.106893
v -58.505558 -0.086360 0.106893
v -60.119457 2.542992 0.106893
v -60.119457 2.542992 -0.113090
v -60.228825 2.542992 0.106893
v -60.228825 2.542992 -0.113090
v -60.228825 -0.086360 0.106893
v -60.119457 -0.086360 0.106893
v -60.228825 -0.086362 -0.113090
v -60.119457 -0.086360 -0.113090
v -58.492474 2.510303 0.039195
v -60.136341 2.509857 0.041429
v -60.136341 2.509852 -0.073438
v -58.492474 2.510298 -0.071204
v -58.492619 -0.071909 -0.066304
v -58.492619 0.733020 -0.066304
v -60.118984 -0.071909 -0.066304
v -60.118984 0.733020 -0.066304
v -60.128803 0.738541 0.071754
v -58.484615 0.738541 0.071754
v -60.128803 -0.067264 0.071754
v -58.484615 -0.067264 0.071754
v -58.494839 0.771442 -0.070348
v -58.494839 0.771437 0.038318
v -60.134827 0.772379 -0.075128
v -60.134827 0.772374 0.043101
v -60.055538 0.844879 0.018916
v -58.572536 0.844930 0.019069
v -58.572475 2.440742 0.018996
v -60.055599 2.440796 0.018844
v -60.055599 2.440792 -0.050832
v -58.572475 2.440738 -0.050984
v -58.572536 0.844934 -0.051061
v -60.055538 0.844883 -0.050904
v -59.243275 0.910120 -0.007966
v -59.243275 2.374535 -0.007939
v -58.645954 2.374535 -0.007966
v -58.630848 0.910120 -0.007966
v -59.304577 0.854379 -0.036672
v -58.583248 0.854379 -0.036672
v -59.304867 0.854063 0.007972
v -58.582958 0.854062 0.007972
v -59.304867 2.430581 0.007972
v -58.582958 2.430581 0.007972
v -59.304577 2.430264 -0.036672
v -58.583248 2.430264 -0.036672
v -59.236134 0.914827 0.011226
v -58.651691 0.914827 0.011226
v -58.651691 2.369816 0.011226
v -59.236134 2.369816 0.011226
v -59.236073 2.369799 -0.039601
v -58.651752 2.369799 -0.039601
v -58.651752 0.914844 -0.039601
v -59.236073 0.914844 -0.039601
v -58.568729 2.443787 -0.015405
v -59.319096 2.443787 -0.015405
v -59.319096 0.840857 -0.015405
v -58.568729 0.840856 -0.015405
v -60.044651 0.854379 -0.036672
v -59.323330 0.854379 -0.036672
v -60.044949 0.854063 0.007972
v -59.323032 0.854062 0.007972
v -60.044949 2.430581 0.007972
v -59.323032 2.430581 0.007972
v -60.044651 2.430264 -0.036672
v -59.323330 2.430264 -0.036672
v -59.976208 0.914827 0.011226
v -59.391773 0.914827 0.011226
v -59.391773 2.369816 0.011226
v -59.976208 2.369816 0.011226
v -59.976154 2.369799 -0.039601
v -59.391834 2.369799 -0.039601
v -59.391834 0.914844 -0.039601
v -59.976154 0.914844 -0.039601
v -59.308811 2.443787 -0.015405
v -60.059177 2.443787 -0.015405
v -60.059177 0.840857 -0.015405
v -59.308811 0.840856 -0.015405
v -59.983356 0.910120 -0.007966
v -59.983356 2.374535 -0.007939
v -59.386036 2.374535 -0.007966
v -59.370930 0.910120 -0.007966
v -59.250446 1.627499 0.078944
v -59.282681 1.593737 0.058070
v -59.291744 1.583041 -0.003610
v -59.262714 1.640766 0.053821
v -59.281101 1.620078 0.038302
v -59.295155 1.608979 -0.005795
v -59.234493 1.611157 0.054996
v -59.254559 1.590971 0.038993
v -59.265987 1.576286 -0.005929
v -59.236042 1.641750 0.055957
v -59.381718 1.624063 0.078933
v -59.349499 1.590301 0.058070
v -59.339024 1.580771 -0.003621
v -59.394192 1.611155 0.053805
v -59.374439 1.591894 0.038306
v -59.363743 1.577174 -0.005719
v -59.366024 1.640892 0.055034
v -59.346745 1.619788 0.039004
v -59.334126 1.605545 -0.005467
v -59.393208 1.637270 0.056769
v -59.264027 1.603760 0.033164
v -59.318592 1.627313 0.033141
v -59.373158 1.603787 0.033149
v -59.395649 1.547054 0.033172
v -59.373158 1.490357 0.033153
v -59.318592 1.466831 0.033141
v -59.264187 1.490367 0.033160
v -59.241680 1.547077 0.033164
v -59.252224 1.616192 0.043563
v -59.318592 1.644838 0.043559
v -59.384983 1.616212 0.043559
v -59.412487 1.547056 0.043559
v -59.384975 1.477924 0.043559
v -59.318600 1.449319 0.043563
v -59.252224 1.477956 0.043567
v -59.225010 1.547073 0.043559
v -59.239941 1.629414 0.029521
v -59.318592 1.663453 0.029506
v -59.397694 1.629414 0.029513
v -59.430309 1.547068 0.029521
v -59.397549 1.464733 0.029513
v -59.318592 1.430693 0.029513
v -59.239941 1.464738 0.029525
v -59.207180 1.547072 0.029532
v -59.250965 1.617665 0.009677
v -59.318600 1.646873 0.009673
v -59.386387 1.617631 0.009673
v -59.414227 1.547071 0.009677
v -59.386379 1.476511 0.009673
v -59.318592 1.447275 0.009669
v -59.250584 1.476081 0.006831
v -59.222446 1.547071 0.006824
v -58.603123 1.873751 0.025073
v -58.582989 1.873707 0.036490
v -58.562794 1.873755 0.025069
v -58.582989 1.873750 -0.012029
v -58.603062 2.077733 0.025069
v -58.582989 2.077781 0.036490
v -58.562794 2.077736 0.025069
v -58.582989 2.077735 -0.012029
v -58.603123 1.248732 0.025069
v -58.582989 1.248688 0.036490
v -58.562794 1.248733 0.025069
v -58.582989 1.248731 -0.012029
v -58.603123 1.452714 0.025073
v -58.582989 1.452760 0.036490
v -58.562794 1.452716 0.025073
v -58.582989 1.452715 -0.012029
v -60.065113 1.248732 0.025069
v -60.044979 1.248688 0.036490
v -60.024784 1.248733 0.025069
v -60.044979 1.248731 -0.012029
v -60.065113 1.452714 0.025073
v -60.044979 1.452760 0.036490
v -60.024784 1.452716 0.025073
v -60.044979 1.452715 -0.012029
v -60.065113 1.873751 0.025073
v -60.044979 1.873707 0.036490
v -60.024784 1.873755 0.025069
v -60.044979 1.873750 -0.012029
v -60.065052 2.077733 0.025069
v -60.044979 2.077781 0.036490
v -60.024784 2.077736 0.025069
v -60.044979 2.077735 -0.012029
v -59.919304 -0.129172 -0.162533
v -59.919270 -0.061318 -0.162405
v -58.714836 -0.061318 -0.163773
v -58.714119 -0.129172 -0.163880
v -58.393139 -0.129172 -0.161293
v -58.393276 -0.061318 -0.161214
v -60.235554 -0.129171 -0.161537
v -60.235485 -0.061320 -0.161410
v -58.393253 -0.061318 0.048315
v -58.714859 -0.061318 0.048619
v -59.919083 -0.061318 0.048811
v -60.236042 -0.061320 0.048710
v -60.236126 -0.129171 0.048665
v -59.919117 -0.129172 0.048786
v -58.714252 -0.129172 0.048616
v -58.393131 -0.129172 0.048316
v -59.919300 -0.129172 0.162533
v -59.919262 -0.061318 0.162404
v -58.714832 -0.061318 0.163773
v -58.714111 -0.129172 0.163880
v -58.393135 -0.129172 0.161293
v -58.393261 -0.061318 0.161214
v -60.235550 -0.129171 0.161536
v -60.235477 -0.061320 0.161410
vt 0.578854 0.345372
vt 0.578854 0.622143
vt 0.470760 0.622143
vt 0.470760 0.345372
vt 0.578854 0.345372
vt 0.578854 0.622143
vt 0.470760 0.622143
vt 0.470760 0.345372
vt 0.226760 0.098953
vt 0.461340 0.098953
vt 0.461338 0.138236
vt 0.226761 0.138236
vt 0.226761 0.098953
vt 0.226761 0.088325
vt 0.461337 0.088325
vt 0.461337 0.098953
vt 0.226760 0.138236
vt 0.226761 0.098953
vt 0.461338 0.098953
vt 0.461340 0.138236
vt 0.226760 0.088325
vt 0.461340 0.088325
vt 0.379501 0.067333
vt 0.379501 0.030469
vt 0.393110 0.030469
vt 0.393110 0.067333
vt 0.005869 0.088435
vt 0.005869 0.067333
vt 0.393110 0.067333
vt 0.393110 0.088435
vt 0.393110 0.067333
vt 0.393110 0.088435
vt 0.005869 0.088435
vt 0.005869 0.067333
vt 0.005869 0.030469
vt 0.393110 0.030469
vt 0.005869 0.067333
vt 0.005869 0.030469
vt 0.393110 0.030469
vt 0.393110 0.067333
vt 0.005869 0.067333
vt 0.005869 0.030469
vt 0.019458 0.030469
vt 0.019458 0.067333
vt 0.379501 0.067333
vt 0.379501 0.030469
vt 0.393110 0.030469
vt 0.393110 0.067333
vt 0.005869 0.088435
vt 0.005869 0.067333
vt 0.393110 0.067333
vt 0.393110 0.088435
vt 0.393110 0.067333
vt 0.393110 0.088435
vt 0.005869 0.088435
vt 0.005869 0.067333
vt 0.005869 0.030469
vt 0.393110 0.030469
vt 0.005869 0.067333
vt 0.005869 0.030469
vt 0.393110 0.030469
vt 0.393110 0.067333
vt 0.005869 0.067333
vt 0.005869 0.030469
vt 0.019458 0.030469
vt 0.019458 0.067333
vt 0.213116 0.015367
vt 0.213116 0.027833
vt -0.305490 0.027833
vt -0.305490 0.015367
vt 0.255766 0.750678
vt 0.255766 0.825812
vt 0.373883 0.825812
vt 0.373883 0.750678
vt 0.225894 0.144889
vt 0.501337 0.144889
vt 0.501337 0.278387
vt 0.225894 0.278387
vt 1.176321 0.015367
vt 1.596707 0.015367
vt 1.596707 0.027833
vt 1.176321 0.027833
vt -1.004995 0.015367
vt -0.305490 0.015367
vt -0.305490 0.027833
vt -1.004995 0.027833
vt 0.213116 0.015367
vt 0.213116 0.027833
vt 0.213116 0.015367
vt 0.213116 0.000891
vt -0.305490 0.000891
vt -0.305490 0.015367
vt -1.004995 0.000891
vt -1.004995 0.015367
vt 1.596707 0.000891
vt 1.176321 0.000891
vt 1.176321 0.015367
vt 1.596707 0.015367
vt -1.004995 0.015367
vt -1.004995 0.027833
vt 1.596707 0.015367
vt 1.596707 0.027833
vt 0.578854 0.345372
vt 0.578854 0.622143
vt 0.470760 0.622143
vt 0.470760 0.345372
vt 1.176321 0.007440
vt 1.596707 0.007440
vt 1.596707 0.015367
vt 1.176321 0.015367
vt 0.213116 0.015367
vt -0.305490 0.015367
vt -0.305490 0.007530
vt 0.213116 0.007530
vt -1.004995 0.007440
vt -1.004995 0.015367
vt 1.596707 0.015367
vt 1.596707 0.027833
vt 1.176321 0.027833
vt -1.004995 0.015367
vt -0.305490 0.027833
vt -1.004995 0.027833
vt 0.213116 0.027833
vt 0.213116 0.015367
vt 0.213116 0.000891
vt -0.305490 0.000891
vt -0.305490 0.015367
vt -1.004995 0.000891
vt -1.004995 0.015367
vt 1.596707 0.000891
vt 1.176321 0.000891
vt 1.176321 0.015367
vt 1.596707 0.015367
vt -1.004995 0.015367
vt -1.004995 0.027833
vt 1.596707 0.015367
vt 1.596707 0.027833
vt 1.596707 0.000891
vt -1.004995 0.000891
vt 1.176321 0.007440
vt 1.596707 0.007440
vt 1.596707 0.015367
vt 1.176321 0.015367
vt 0.213116 0.015367
vt -0.305490 0.015367
vt -0.305490 0.007530
vt 0.213116 0.007530
vt -1.004995 0.007440
vt -1.004995 0.015367
vt 1.596707 0.015367
vt 1.596707 0.027833
vt 1.176321 0.027833
vt -1.004995 0.015367
vt -0.305490 0.027833
vt -1.004995 0.027833
vt 0.213116 0.027833
vt 0.213116 0.015367
vt 0.213116 0.000891
vt -0.305490 0.000891
vt -0.305490 0.015367
vt -1.004995 0.000891
vt -1.004995 0.015367
vt 1.596707 0.000891
vt 1.176321 0.000891
vt 1.176321 0.015367
vt 1.596707 0.015367
vt -1.004995 0.015367
vt -1.004995 0.027833
vt 1.596707 0.015367
vt 1.596707 0.027833
vt 1.596707 0.000891
vt -1.004995 0.000891
vt 0.578854 0.345372
vt 0.578854 0.622143
vt 0.470760 0.622143
vt 0.470760 0.345372
vt 0.528689 0.305290
vt 0.528689 0.317926
vt 0.525028 0.317926
vt 0.525028 0.305290
vt 0.528689 0.292653
vt 0.525028 0.292653
vt 0.532363 0.317926
vt 0.532363 0.305290
vt 0.532363 0.292653
vt 0.528689 0.317926
vt 0.528689 0.305290
vt 0.528689 0.292653
vt 0.525043 0.317851
vt 0.528894 0.323081
vt 0.528894 0.317851
vt 0.532194 0.317851
vt 0.528689 0.305290
vt 0.528689 0.317926
vt 0.525028 0.317926
vt 0.525028 0.305290
vt 0.528689 0.292653
vt 0.525028 0.292653
vt 0.532363 0.317926
vt 0.532363 0.305290
vt 0.532363 0.292653
vt 0.528689 0.317926
vt 0.528689 0.305290
vt 0.528689 0.292653
vt 0.525043 0.317851
vt 0.528894 0.323081
vt 0.528894 0.317851
vt 0.532194 0.317851
vt 0.489111 0.321972
vt 0.477708 0.323221
vt 0.477157 0.319050
vt 0.489112 0.316960
vt 0.501589 0.321925
vt 0.501520 0.316791
vt 0.513675 0.321812
vt 0.513587 0.316369
vt 0.525218 0.321706
vt 0.525160 0.315950
vt 0.536395 0.321662
vt 0.536389 0.315772
vt 0.547557 0.321706
vt 0.547637 0.315947
vt 0.559113 0.321812
vt 0.559201 0.316379
vt 0.570330 0.322723
vt 0.570977 0.318251
vt 0.476640 0.311887
vt 0.489108 0.311981
vt 0.501475 0.312006
vt 0.513521 0.312064
vt 0.525120 0.312116
vt 0.536397 0.312049
vt 0.547666 0.312265
vt 0.559263 0.312233
vt 0.571601 0.311980
vt 0.477105 0.299879
vt 0.489105 0.304000
vt 0.501522 0.304269
vt 0.513578 0.304911
vt 0.525149 0.305563
vt 0.536389 0.305918
vt 0.547632 0.305414
vt 0.559217 0.304763
vt 0.571054 0.301118
vt 0.477773 0.296257
vt 0.489112 0.296718
vt 0.501579 0.296731
vt 0.513663 0.296762
vt 0.525214 0.296796
vt 0.536444 0.296879
vt 0.547626 0.296691
vt 0.559082 0.296659
vt 0.570253 0.296603
vt 0.488803 0.293759
vt 0.494617 0.293759
vt 0.494617 0.328168
vt 0.488803 0.328168
vt 0.500430 0.293759
vt 0.500430 0.328168
vt 0.512058 0.293759
vt 0.512058 0.328168
vt 0.551737 0.315881
vt 0.547640 0.307357
vt 0.551737 0.298833
vt 0.564028 0.307357
vt 0.564028 0.306958
vt 0.551737 0.315482
vt 0.547640 0.306958
vt 0.551737 0.298434
vt 0.488803 0.293759
vt 0.494617 0.293759
vt 0.494617 0.328168
vt 0.488803 0.328168
vt 0.500430 0.293759
vt 0.500430 0.328168
vt 0.512058 0.293759
vt 0.512058 0.328168
vt 0.551737 0.315881
vt 0.547640 0.307357
vt 0.551737 0.298833
vt 0.564028 0.307357
vt 0.564028 0.306958
vt 0.551737 0.315482
vt 0.547640 0.306958
vt 0.551737 0.298434
vt 0.488803 0.293759
vt 0.494617 0.293759
vt 0.494617 0.328168
vt 0.488803 0.328168
vt 0.500430 0.293759
vt 0.500430 0.328168
vt 0.512058 0.293759
vt 0.512058 0.328168
vt 0.551737 0.315881
vt 0.547640 0.307357
vt 0.551737 0.298833
vt 0.564028 0.307357
vt 0.564028 0.306958
vt 0.551737 0.315482
vt 0.547640 0.306958
vt 0.551737 0.298434
vt 0.488803 0.293759
vt 0.494617 0.293759
vt 0.494617 0.328168
vt 0.488803 0.328168
vt 0.500430 0.293759
vt 0.500430 0.328168
vt 0.512058 0.293759
vt 0.512058 0.328168
vt 0.551737 0.315881
vt 0.547640 0.307357
vt 0.551737 0.298833
vt 0.564028 0.307357
vt 0.564028 0.306958
vt 0.551737 0.315482
vt 0.547640 0.306958
vt 0.551737 0.298434
vt 0.432239 0.622142
vt 0.397609 0.622142
vt 0.397621 0.367697
vt 0.432239 0.367697
vt 0.432239 0.622142
vt 0.432239 0.367697
vt 0.397621 0.367697
vt 0.397668 0.622142
vt 0.442097 0.622142
vt 0.442097 0.367697
vt 0.374526 0.342997
vt 0.374526 0.304090
vt 0.432239 0.304090
vt 0.432239 0.342997
vt 0.432239 0.304090
vt 0.432239 0.342997
vt 0.442097 0.342997
vt 0.442097 0.304090
vt 0.432239 0.342997
vt 0.432239 0.304090
vt 0.374526 0.304090
vt 0.374526 0.342997
vt 0.374526 0.304090
vt 0.432239 0.304090
vt 0.432239 0.293076
vt 0.374526 0.293076
vt 0.396937 0.367697
vt 0.396937 0.304090
vt 0.432239 0.304090
vt 0.432239 0.367697
vt 0.432239 0.304090
vt 0.432239 0.367697
vt 0.442097 0.367697
vt 0.442097 0.304090
vt 0.396937 0.367697
vt 0.432239 0.367697
vt 0.432239 0.304090
vt 0.396937 0.304090
vt 0.396937 0.304090
vt 0.432239 0.304090
vt 0.432239 0.293076
vt 0.396937 0.293076
vt 0.432239 0.622142
vt 0.432239 0.367697
vt 0.413580 0.367697
vt 0.413574 0.622142
vt 0.432239 0.622142
vt 0.413606 0.622142
vt 0.413580 0.367697
vt 0.432239 0.367697
vt 0.442097 0.367697
vt 0.442097 0.622142
vt 0.374526 0.325060
vt 0.432239 0.325060
vt 0.432239 0.304090
vt 0.374526 0.304090
vt 0.432239 0.304090
vt 0.442097 0.304090
vt 0.442097 0.325060
vt 0.432239 0.325060
vt 0.432239 0.325060
vt 0.374526 0.325060
vt 0.374526 0.304090
vt 0.432239 0.304090
vt 0.374526 0.304090
vt 0.374526 0.293076
vt 0.432239 0.293076
vt 0.432239 0.304090
vt 0.413212 0.367697
vt 0.432239 0.367697
vt 0.432239 0.304090
vt 0.413212 0.304090
vt 0.432239 0.304090
vt 0.442097 0.304090
vt 0.442097 0.367697
vt 0.432239 0.367697
vt 0.413212 0.367697
vt 0.413212 0.304090
vt 0.432239 0.304090
vt 0.432239 0.367697
vt 0.413212 0.304090
vt 0.413212 0.293076
vt 0.432239 0.293076
vt 0.432239 0.304090
vn -0.000022 0.000009 -1.000000
vn -0.000022 0.000009 -1.000000
vn -0.000022 0.000009 -1.000000
vn -0.000022 0.000009 -1.000000
vn -0.000022 0.000009 -1.000000
vn -0.000022 0.000009 -1.000000
vn -0.000022 0.000009 -1.000000
vn -0.000022 0.000009 -1.000000
vn 0.000000 1.000000 0.000000
vn 0.000000 1.000000 0.000000
vn 0.000000 1.000000 0.000000
vn 0.000000 1.000000 0.000000
vn 0.000000 0.000000 -1.000000
vn 0.000000 0.000000 -1.000000
vn 0.000000 0.000000 -1.000000
vn 0.000000 0.000000 -1.000000
vn -0.000000 -1.000000 0.000000
vn -0.000000 -1.000000 0.000000
vn -0.000000 -1.000000 0.000000
vn -0.000000 -1.000000 0.000000
vn -0.000000 0.000000 1.000000
vn -0.000000 0.000000 1.000000
vn -0.000000 0.000000 1.000000
vn -0.000000 0.000000 1.000000
vn 0.000000 1.000000 0.000000
vn 0.000000 1.000000 0.000000
vn 0.000000 1.000000 0.000000
vn 0.000000 1.000000 0.000000
vn 0.000000 0.000000 -1.000000
vn 0.000000 0.000000 -1.000000
vn 0.000000 0.000000 -1.000000
vn 0.000000 0.000000 -1.000000
vn 0.000000 0.000000 1.000000
vn 0.000000 0.000000 1.000000
vn 0.000000 0.000000 1.000000
vn 0.000000 0.000000 1.000000
vn -1.000000 0.000000 0.000000
vn -1.000000 0.000000 0.000000
vn -1.000000 0.000000 0.000000
vn -1.000000 0.000000 0.000000
vn 1.000000 0.000000 0.000000
vn 1.000000 0.000000 0.000000
vn 1.000000 0.000000 0.000000
vn 1.000000 0.000000 0.000000
vn -0.000009 -1.000000 -0.000004
vn -0.000009 -1.000000 -0.000004
vn -0.000009 -1.000000 -0.000004
vn -0.000009 -1.000000 -0.000004
vn 0.000000 1.000000 0.000000
vn 0.000000 1.000000 0.000000
vn 0.000000 1.000000 0.000000
vn 0.000000 1.000000 0.000000
vn 0.000000 0.000000 1.000000
vn 0.000000 0.000000 1.000000
vn 0.000000 0.000000 1.000000
vn 0.000000 0.000000 1.000000
vn 0.000000 0.000000 -1.000000
vn 0.000000 0.000000 -1.000000
vn 0.000000 0.000000 -1.000000
vn 0.000000 0.000000 -1.000000
vn 1.000000 0.000000 0.000000
vn 1.000000 0.000000 0.000000
vn 1.000000 0.000000 0.000000
vn 1.000000 0.000000 0.000000
vn -1.000000 0.000000 0.000000
vn -1.000000 0.000000 0.000000
vn -1.000000 0.000000 0.000000
vn -1.000000 0.000000 0.000000
vn 0.000009 -1.000000 0.000004
vn 0.000009 -1.000000 0.000004
vn 0.000009 -1.000000 0.000004
vn 0.000009 -1.000000 0.000004
vn -0.000271 1.000000 -0.000046
vn -0.000271 1.000000 -0.000046
vn -0.000271 1.000000 -0.000046
vn -0.000271 1.000000 -0.000046
vn -0.000000 0.000000 -1.000000
vn -0.000000 0.000000 -1.000000
vn -0.000000 0.000000 -1.000000
vn -0.000000 0.000000 -1.000000
vn 0.000000 0.000000 1.000000
vn 0.000000 0.000000 1.000000
vn 0.000000 0.000000 1.000000
vn 0.000000 0.000000 1.000000
vn 0.143891 0.145806 0.978793
vn -0.122768 0.145120 0.981768
vn -0.122768 0.145120 0.981768
vn 0.143891 0.145806 0.978793
vn -0.123275 -0.150256 0.980931
vn -0.123275 -0.150256 0.980931
vn 0.143597 -0.150281 0.978159
vn 0.143597 -0.150281 0.978159
vn 0.143770 -0.150422 -0.978112
vn 0.143770 -0.150422 -0.978112
vn -0.123454 -0.150396 -0.980887
vn -0.123454 -0.150396 -0.980887
vn -0.122950 0.145368 -0.981708
vn -0.122950 0.145368 -0.981708
vn 0.144065 0.146055 -0.978730
vn 0.144065 0.146055 -0.978730
vn -0.000036 -1.000000 0.000062
vn -0.000036 -1.000000 0.000062
vn -0.000036 -1.000000 0.000062
vn -0.000036 -1.000000 0.000062
vn -1.000000 0.000038 -0.000000
vn -1.000000 0.000038 -0.000000
vn -1.000000 0.000038 -0.000000
vn -1.000000 0.000038 -0.000000
vn -0.000035 1.000000 0.000055
vn -0.000035 1.000000 0.000055
vn -0.000035 1.000000 0.000055
vn -0.000035 1.000000 0.000055
vn 1.000000 0.000034 -0.000000
vn 1.000000 0.000034 -0.000000
vn 1.000000 0.000034 -0.000000
vn 1.000000 0.000034 -0.000000
vn 0.000022 -0.000009 1.000000
vn 0.000022 -0.000009 1.000000
vn 0.000022 -0.000009 1.000000
vn 0.000022 -0.000009 1.000000
vn -0.000000 -0.999660 -0.026065
vn -0.000000 -0.999660 -0.026065
vn -0.000001 -0.870673 0.491863
vn -0.000001 -0.870673 0.491863
vn 0.000000 0.870677 0.491856
vn 0.000000 0.870677 0.491856
vn 0.000000 0.999660 -0.026072
vn 0.000000 0.999660 -0.026072
vn 0.999659 0.000000 -0.026115
vn 0.999659 0.000000 -0.026115
vn 0.854204 0.000000 0.519938
vn 0.854204 0.000000 0.519938
vn -0.999659 0.000000 -0.026115
vn -0.999659 0.000000 -0.026115
vn -0.854204 0.000000 0.519938
vn -0.854204 0.000000 0.519938
vn -0.023659 -0.026754 0.999362
vn 0.023659 -0.026754 0.999362
vn 0.023659 -0.026754 0.999362
vn -0.023659 -0.026754 0.999362
vn 0.023659 0.026754 0.999362
vn 0.023659 0.026754 0.999362
vn -0.023659 0.026754 0.999362
vn -0.023659 0.026754 0.999362
vn -0.021375 0.024210 -0.999478
vn -0.021375 0.024210 -0.999478
vn 0.021375 0.024210 -0.999478
vn 0.021375 0.024210 -0.999478
vn 0.021375 -0.024211 -0.999478
vn 0.021375 -0.024211 -0.999478
vn -0.021375 -0.024211 -0.999478
vn -0.021375 -0.024211 -0.999478
vn 0.000000 -1.000000 0.000348
vn 0.000000 -1.000000 0.000348
vn 0.000000 -1.000000 0.000348
vn 0.000000 -1.000000 0.000348
vn -0.999999 0.000000 0.001201
vn -0.999999 0.000000 0.001201
vn -0.999999 0.000000 0.001201
vn -0.999999 0.000000 0.001201
vn 0.000000 1.000000 0.000345
vn 0.000000 1.000000 0.000345
vn 0.000000 1.000000 0.000345
vn 0.000000 1.000000 0.000345
vn 0.999999 0.000000 0.001201
vn 0.999999 0.000000 0.001201
vn 0.999999 0.000000 0.001201
vn 0.999999 0.000000 0.001201
vn 0.000000 0.843855 -0.536572
vn 0.000000 0.843855 -0.536572
vn -0.825892 0.000000 -0.563829
vn -0.825892 0.000000 -0.563829
vn -0.000000 -0.843857 -0.536568
vn -0.000000 -0.843857 -0.536568
vn 0.825892 0.000000 -0.563829
vn 0.825892 0.000000 -0.563829
vn -0.000000 -0.999660 -0.026067
vn -0.000000 -0.999660 -0.026067
vn -0.000001 -0.870673 0.491863
vn -0.000001 -0.870673 0.491863
vn 0.000000 0.870678 0.491853
vn 0.000000 0.870678 0.491853
vn 0.000000 0.999660 -0.026077
vn 0.000000 0.999660 -0.026077
vn 0.999656 0.000000 -0.026234
vn 0.999656 0.000000 -0.026234
vn 0.854328 0.000000 0.519735
vn 0.854328 0.000000 0.519735
vn -0.999656 0.000000 -0.026237
vn -0.999656 0.000000 -0.026237
vn -0.854204 0.000000 0.519938
vn -0.854204 0.000000 0.519938
vn -0.023657 -0.026754 0.999362
vn 0.023657 -0.026754 0.999362
vn 0.023657 -0.026754 0.999362
vn -0.023657 -0.026754 0.999362
vn 0.023657 0.026754 0.999362
vn 0.023657 0.026754 0.999362
vn -0.023657 0.026754 0.999362
vn -0.023657 0.026754 0.999362
vn -0.021377 0.024210 -0.999478
vn -0.021377 0.024210 -0.999478
vn 0.021375 0.024210 -0.999478
vn 0.021375 0.024210 -0.999478
vn 0.021375 -0.024210 -0.999478
vn 0.021375 -0.024210 -0.999478
vn -0.021377 -0.024210 -0.999478
vn -0.021377 -0.024210 -0.999478
vn 0.000000 -1.000000 0.000346
vn 0.000000 -1.000000 0.000346
vn 0.000000 -1.000000 0.000346
vn 0.000000 -1.000000 0.000346
vn -0.999999 0.000000 0.001201
vn -0.999999 0.000000 0.001201
vn -0.999999 0.000000 0.001201
vn -0.999999 0.000000 0.001201
vn 0.000000 1.000000 0.000347
vn 0.000000 1.000000 0.000347
vn 0.000000 1.000000 0.000347
vn 0.000000 1.000000 0.000347
vn 1.000000 0.000000 0.001051
vn 1.000000 0.000000 0.001051
vn 1.000000 0.000000 0.001051
vn 1.000000 0.000000 0.001051
vn 0.000000 0.843851 -0.536577
vn 0.000000 0.843851 -0.536577
vn -0.825754 0.000000 -0.564031
vn -0.825754 0.000000 -0.564031
vn -0.000000 -0.843856 -0.536570
vn -0.000000 -0.843856 -0.536570
vn 0.825892 0.000000 -0.563829
vn 0.825892 0.000000 -0.563829
vn 0.000022 -0.000009 1.000000
vn 0.000022 -0.000009 1.000000
vn 0.000022 -0.000009 1.000000
vn 0.000022 -0.000009 1.000000
vn -0.600686 -0.497097 0.626156
vn 0.131028 0.241953 0.961400
vn -0.211094 0.860553 -0.463560
vn -0.424864 0.843765 -0.327951
vn -0.718070 -0.625279 0.305617
vn -0.384458 0.893653 -0.231464
vn 0.898908 -0.190978 -0.394326
vn 0.838826 -0.486272 -0.244767
vn 0.855571 -0.484044 -0.183575
vn 0.673846 0.738233 0.030710
vn 0.499774 -0.597360 0.627206
vn -0.281265 0.154153 0.947168
vn -0.877019 -0.153304 -0.455340
vn -0.852114 -0.421911 -0.309666
vn 0.635898 -0.710342 0.301740
vn -0.889346 -0.400476 -0.220641
vn 0.139418 0.904642 -0.402722
vn 0.486544 0.828007 -0.278711
vn 0.463468 0.856239 -0.228151
vn -0.745717 0.666262 0.000961
vn -0.000221 -0.982604 0.185716
vn -0.710951 -0.676769 0.191136
vn 0.038314 0.037496 0.998562
vn 0.000346 0.052297 0.998632
vn 0.707421 -0.682003 0.185545
vn -0.037400 0.036477 0.998635
vn 0.982648 0.000113 0.185481
vn -0.053267 -0.000324 0.998580
vn 0.707326 0.682077 0.185640
vn -0.037972 -0.036930 0.998596
vn -0.005796 0.981442 0.191673
vn 0.000158 -0.052417 0.998625
vn -0.708882 0.676028 0.201178
vn 0.038811 -0.037499 0.998543
vn -0.979727 0.004822 0.200279
vn 0.054540 -0.000016 0.998512
vn 0.713091 0.688144 0.134015
vn 0.001092 0.992309 0.123781
vn -0.713916 0.689466 0.122318
vn -0.992672 -0.000843 0.120835
vn -0.713870 -0.689510 0.122338
vn -0.000105 -0.990863 0.134874
vn 0.710317 -0.686453 0.155668
vn 0.987986 0.001326 0.154540
vn 0.000960 0.010297 -0.999947
vn 0.000500 -0.000843 -1.000000
vn 0.002221 -0.001370 -0.999997
vn 0.003455 -0.000401 -0.999994
vn 0.001717 0.000827 -0.999998
vn -0.006440 -0.007589 -0.999950
vn 0.001953 -0.012235 -0.999923
vn 0.009892 0.007358 -0.999924
vn -0.961382 0.000136 0.275219
vn -0.000939 0.000048 1.000000
vn -0.000939 0.000048 1.000000
vn -0.961382 0.000136 0.275219
vn 0.961388 0.000000 0.275195
vn 0.961388 0.000000 0.275195
vn -0.000963 0.000116 -1.000000
vn -0.000963 0.000116 -1.000000
vn 0.000097 -1.000000 -0.000899
vn 0.000097 -1.000000 -0.000899
vn 0.000097 -1.000000 -0.000899
vn 0.000097 -1.000000 -0.000899
vn -0.000083 1.000000 -0.000957
vn -0.000083 1.000000 -0.000957
vn -0.000083 1.000000 -0.000957
vn -0.000083 1.000000 -0.000957
vn -0.961379 -0.000005 0.275227
vn -0.000649 -0.000012 1.000000
vn -0.000649 -0.000012 1.000000
vn -0.961379 -0.000005 0.275227
vn 0.961376 -0.000009 0.275240
vn 0.961376 -0.000009 0.275240
vn -0.000635 0.000000 -1.000000
vn -0.000635 0.000000 -1.000000
vn 0.000041 -1.000000 -0.000904
vn 0.000041 -1.000000 -0.000904
vn 0.000041 -1.000000 -0.000904
vn 0.000041 -1.000000 -0.000904
vn -0.000030 1.000000 -0.000933
vn -0.000030 1.000000 -0.000933
vn -0.000030 1.000000 -0.000933
vn -0.000030 1.000000 -0.000933
vn -0.961379 -0.000001 0.275227
vn -0.000649 -0.000001 1.000000
vn -0.000649 -0.000001 1.000000
vn -0.961379 -0.000001 0.275227
vn 0.961376 0.000000 0.275240
vn 0.961376 0.000000 0.275240
vn -0.000635 0.000000 -1.000000
vn -0.000635 0.000000 -1.000000
vn 0.000041 -1.000000 -0.000904
vn 0.000041 -1.000000 -0.000904
vn 0.000041 -1.000000 -0.000904
vn 0.000041 -1.000000 -0.000904
vn -0.000030 1.000000 -0.000933
vn -0.000030 1.000000 -0.000933
vn -0.000030 1.000000 -0.000933
vn -0.000030 1.000000 -0.000933
vn -0.961382 0.000152 0.275219
vn -0.000939 0.000045 1.000000
vn -0.000939 0.000045 1.000000
vn -0.961382 0.000152 0.275219
vn 0.961388 0.000000 0.275195
vn 0.961388 0.000000 0.275195
vn -0.000963 0.000145 -1.000000
vn -0.000963 0.000145 -1.000000
vn 0.000097 -1.000000 -0.000891
vn 0.000097 -1.000000 -0.000891
vn 0.000097 -1.000000 -0.000891
vn 0.000097 -1.000000 -0.000891
vn -0.000083 1.000000 -0.000957
vn -0.000083 1.000000 -0.000957
vn -0.000083 1.000000 -0.000957
vn -0.000083 1.000000 -0.000957
vn -0.000000 -1.000000 0.000000
vn -0.000000 -1.000000 -0.000000
vn -0.000000 -1.000000 -0.000000
vn -0.000000 -1.000000 0.000000
vn -0.000000 1.000000 0.000000
vn -0.000000 1.000000 0.000000
vn -0.000000 1.000000 -0.000000
vn -0.000000 1.000000 -0.000000
vn -0.001127 0.001730 -0.999998
vn -0.001127 0.001730 -0.999998
vn -0.001127 0.001730 -0.999998
vn -0.001127 0.001730 -0.999998
vn -0.000000 -1.000000 0.000000
vn -0.000000 -1.000000 0.000000
vn -0.000000 -1.000000 0.000000
vn -0.000000 -1.000000 0.000000
vn 0.999998 0.001853 -0.000073
vn 0.999998 0.001829 -0.000011
vn 0.999998 0.001829 -0.000011
vn 0.999998 0.001853 -0.000073
vn -0.000001 1.000000 0.000000
vn -0.000001 1.000000 0.000000
vn -0.000001 1.000000 0.000000
vn -0.000001 1.000000 0.000000
vn 0.008009 0.001428 -0.999967
vn 0.008009 0.001428 -0.999967
vn 0.008009 0.001428 -0.999967
vn 0.008009 0.001428 -0.999967
vn -0.000001 -1.000000 -0.000000
vn -0.000001 -1.000000 -0.000000
vn -0.000001 -1.000000 0.000000
vn -0.000001 -1.000000 0.000000
vn -0.003147 0.001879 -0.999993
vn -0.003147 0.001879 -0.999993
vn -0.003147 0.001879 -0.999993
vn -0.003147 0.001879 -0.999993
vn -0.000004 1.000000 -0.000000
vn -0.000004 1.000000 0.000000
vn -0.000004 1.000000 0.000000
vn -0.000004 1.000000 -0.000000
vn -0.999999 0.001164 0.001185
vn -0.999996 0.001143 -0.002686
vn -0.999996 0.001143 -0.002686
vn -0.999999 0.001164 0.001185
vn -0.000000 -1.000000 -0.000000
vn -0.000000 -1.000000 -0.000000
vn -0.000000 1.000000 -0.000000
vn -0.000000 1.000000 -0.000000
vn -0.001127 0.001737 0.999998
vn -0.001127 0.001737 0.999998
vn -0.001127 0.001737 0.999998
vn -0.001127 0.001737 0.999998
vn -0.000000 -1.000000 -0.000000
vn -0.000000 -1.000000 -0.000000
vn 0.999998 0.001804 0.000051
vn 0.999998 0.001804 0.000051
vn -0.000001 1.000000 0.000000
vn -0.000001 1.000000 0.000000
vn 0.008009 0.001427 0.999967
vn 0.008009 0.001427 0.999967
vn 0.008009 0.001427 0.999967
vn 0.008009 0.001427 0.999967
vn -0.000001 -1.000000 -0.000000
vn -0.000001 -1.000000 -0.000000
vn -0.003147 0.001879 0.999993
vn -0.003147 0.001879 0.999993
vn -0.003147 0.001879 0.999993
vn -0.003147 0.001879 0.999993
vn -0.000004 1.000000 -0.000001
vn -0.000004 1.000000 -0.000001
vn -0.999987 0.001184 0.005056
vn -0.999987 0.001184 0.005056
s off
g polySurface26824
f 4/1/1 1/4/2 2/3/3 3/2/4
f 8/5/5 5/8/6 6/7/7 7/6/8
f 13/9/9 11/10/10 10/11/11 14/12/12
f 15/13/13 14/14/14 10/15/15 9/16/16
f 16/17/17 15/18/18 9/19/19 12/20/20
f 13/9/21 16/21/22 12/22/23 11/10/24
f 20/23/25 19/24/26 17/25/27 18/26/28
f 21/27/29 22/28/30 17/29/31 19/30/32
f 20/31/33 18/32/34 24/33/35 23/34/36
f 22/28/37 24/35/38 18/36/39 17/29/40
f 23/37/41 21/38/42 19/39/43 20/40/44
f 24/41/45 22/42/46 21/43/47 23/44/48
f 28/45/49 27/46/50 25/47/51 26/48/52
f 29/49/53 30/50/54 25/51/55 27/52/56
f 28/53/57 26/54/58 32/55/59 31/56/60
f 30/50/61 32/57/62 26/58/63 25/51/64
f 31/59/65 29/60/66 27/61/67 28/62/68
f 32/63/69 30/64/70 29/65/71 31/66/72
f 35/67/73 34/68/74 33/69/75 36/70/76
f 39/71/77 40/72/78 38/73/79 37/74/80
f 43/75/81 44/76/82 42/77/83 41/78/84
s 18
f 48/79/85 46/80/86 50/81/87 49/82/88
f 46/83/86 33/84/89 51/85/90 50/86/87
f 33/84/89 34/87/91 52/88/92 51/85/90
f 52/88/92 34/87/91 48/79/85 49/82/88
s 19
f 53/89/93 35/90/94 36/91/95 54/92/96
f 36/91/95 45/93/97 55/94/98 54/92/96
f 45/95/97 47/96/99 56/97/100 55/98/98
f 47/96/99 35/90/94 53/89/93 56/97/100
s off
f 53/89/101 54/92/102 51/85/103 52/88/104
f 54/92/105 55/99/106 50/100/107 51/85/108
f 55/101/109 56/97/110 49/82/111 50/102/112
f 56/97/113 53/89/114 52/88/115 49/82/116
f 60/103/117 59/104/118 58/105/119 57/106/120
s 24
f 79/107/121 80/108/122 64/109/123 63/110/124
s 25
f 65/111/125 66/112/126 77/113/127 78/114/128
s 26
f 80/115/129 77/113/130 66/112/131 64/116/132
s 27
f 78/114/133 79/107/134 63/110/135 65/111/136
s 28
f 63/110/137 64/117/138 70/118/139 69/119/140
f 64/120/138 66/112/141 71/121/142 70/122/139
f 66/112/141 65/111/143 72/123/144 71/121/142
f 72/123/144 65/111/143 63/110/137 69/119/140
s 29
f 73/124/145 67/125/146 68/126/147 74/127/148
f 68/126/147 62/128/149 75/129/150 74/127/148
f 62/130/149 61/131/151 76/132/152 75/133/150
f 61/131/151 67/125/146 73/124/145 76/132/152
s off
f 73/124/153 74/127/154 71/121/155 72/123/156
f 74/127/157 75/134/158 70/135/159 71/121/160
f 75/136/161 76/132/162 69/119/163 70/137/164
f 76/132/165 73/124/166 72/123/167 69/119/168
s 25
f 78/114/128 77/113/127 68/126/169 67/125/170
s 27
f 67/125/171 61/131/172 79/107/134 78/114/133
s 24
f 61/131/173 62/138/174 80/108/122 79/107/121
s 26
f 62/139/175 68/126/176 77/113/130 80/115/129
s 34
f 99/140/177 100/141/178 84/142/179 83/143/180
s 35
f 85/144/181 86/145/182 97/146/183 98/147/184
s 36
f 100/148/185 97/146/186 86/145/187 84/149/188
s 37
f 98/147/189 99/140/190 83/143/191 85/144/192
s 38
f 83/143/193 84/150/194 90/151/195 89/152/196
f 84/153/194 86/145/197 91/154/198 90/155/195
f 86/145/197 85/144/199 92/156/200 91/154/198
f 92/156/200 85/144/199 83/143/193 89/152/196
s 39
f 93/157/201 87/158/202 88/159/203 94/160/204
f 88/159/203 82/161/205 95/162/206 94/160/204
f 82/163/205 81/164/207 96/165/208 95/166/206
f 81/164/207 87/158/202 93/157/201 96/165/208
s off
f 93/157/209 94/160/210 91/154/211 92/156/212
f 94/160/213 95/167/214 90/168/215 91/154/216
f 95/169/217 96/165/218 89/152/219 90/170/220
f 96/165/221 93/157/222 92/156/223 89/152/224
s 35
f 98/147/184 97/146/183 88/159/225 87/158/226
s 37
f 87/158/227 81/164/228 99/140/190 98/147/189
s 34
f 81/164/229 82/171/230 100/141/178 99/140/177
s 36
f 82/172/231 88/159/232 97/146/186 100/148/185
s off
f 104/173/233 103/174/234 102/175/235 101/176/236
s 44
f 106/177/237 105/178/238 108/179/239 109/180/240
f 107/181/241 106/177/237 109/180/240 110/182/242
f 109/180/240 108/179/239 111/183/243 112/184/244
f 113/185/245 110/182/242 109/180/240 112/184/244
f 112/184/244 111/183/243 105/186/238 106/187/237
f 113/185/245 112/184/244 106/187/237 107/188/241
f 111/189/243 114/190/246 105/191/238
f 114/190/246 111/189/243 108/192/239
f 105/191/238 114/190/246 108/192/239
s 45
f 116/193/247 115/194/248 118/195/249 119/196/250
f 117/197/251 116/193/247 119/196/250 120/198/252
f 119/196/250 118/195/249 121/199/253 122/200/254
f 123/201/255 120/198/252 119/196/250 122/200/254
f 122/200/254 121/199/253 115/202/248 116/203/247
f 123/201/255 122/200/254 116/203/247 117/204/251
f 121/205/253 124/206/256 115/207/248
f 124/206/256 121/205/253 118/208/249
f 115/207/248 124/206/256 118/208/249
s 46
f 126/209/257 125/210/258 133/211/259 134/212/260
f 127/213/261 126/209/257 134/212/260 135/214/262
f 128/215/263 127/213/261 135/214/262 136/216/264
f 129/217/265 128/215/263 136/216/264 137/218/266
f 130/219/267 129/217/265 137/218/266 138/220/268
f 131/221/269 130/219/267 138/220/268 139/222/270
f 132/223/271 131/221/269 139/222/270 140/224/272
f 125/225/258 132/223/271 140/224/272 133/226/259
f 134/212/260 133/211/259 141/227/273 142/228/274
f 135/214/262 134/212/260 142/228/274 143/229/275
f 136/216/264 135/214/262 143/229/275 144/230/276
f 137/218/266 136/216/264 144/230/276 145/231/277
f 138/220/268 137/218/266 145/231/277 146/232/278
f 139/222/270 138/220/268 146/232/278 147/233/279
f 140/224/272 139/222/270 147/233/279 148/234/280
f 133/226/259 140/224/272 148/234/280 141/235/273
f 142/228/274 141/227/273 149/236/281 150/237/282
f 143/229/275 142/228/274 150/237/282 151/238/283
f 144/230/276 143/229/275 151/238/283 152/239/284
f 145/231/277 144/230/276 152/239/284 153/240/285
f 146/232/278 145/231/277 153/240/285 154/241/286
f 147/233/279 146/232/278 154/241/286 155/242/287
f 148/234/280 147/233/279 155/242/287 156/243/288
f 141/235/273 148/234/280 156/243/288 149/244/281
f 150/237/282 149/236/281 125/245/258 126/246/257
f 151/238/283 150/237/282 126/246/257 127/247/261
f 152/239/284 151/238/283 127/247/261 128/248/263
f 153/240/285 152/239/284 128/248/263 129/249/265
f 154/241/286 153/240/285 129/249/265 130/250/267
f 155/242/287 154/241/286 130/250/267 131/251/269
f 156/243/288 155/242/287 131/251/269 132/252/271
f 149/244/281 156/243/288 132/252/271 125/253/258
s 47
f 157/254/289 158/255/290 162/256/291 161/257/292
f 158/255/290 159/258/293 163/259/294 162/256/291
f 163/259/294 159/258/293 160/260/295 164/261/296
f 164/261/296 160/260/295 157/254/289 161/257/292
s off
f 159/262/297 158/263/298 157/264/299 160/265/300
f 164/266/301 161/267/302 162/268/303 163/269/304
s 50
f 165/270/305 166/271/306 170/272/307 169/273/308
f 166/271/306 167/274/309 171/275/310 170/272/307
f 171/275/310 167/274/309 168/276/311 172/277/312
f 172/277/312 168/276/311 165/270/305 169/273/308
s off
f 167/278/313 166/279/314 165/280/315 168/281/316
f 172/282/317 169/283/318 170/284/319 171/285/320
s 53
f 173/286/321 174/287/322 178/288/323 177/289/324
f 174/287/322 175/290/325 179/291/326 178/288/323
f 179/291/326 175/290/325 176/292/327 180/293/328
f 180/293/328 176/292/327 173/286/321 177/289/324
s off
f 175/294/329 174/295/330 173/296/331 176/297/332
f 180/298/333 177/299/334 178/300/335 179/301/336
s 56
f 181/302/337 182/303/338 186/304/339 185/305/340
f 182/303/338 183/306/341 187/307/342 186/304/339
f 187/307/342 183/306/341 184/308/343 188/309/344
f 188/309/344 184/308/343 181/302/337 185/305/340
s off
f 183/310/345 182/311/346 181/312/347 184/313/348
f 188/314/349 185/315/350 186/316/351 187/317/352
s 59
f 192/318/353 203/319/354 202/320/355 189/321/356
s 60
f 191/322/357 190/323/358 199/324/359 198/325/360
s off
f 190/323/361 191/322/362 192/326/363 189/327/364
s 62
f 203/328/365 192/329/366 193/330/367 204/331/368
s 63
f 194/332/369 197/333/370 204/334/371 193/335/372
s 64
f 197/336/373 194/337/374 191/338/375 198/339/376
s off
f 191/340/377 194/341/378 193/342/379 192/343/380
s 66
f 202/344/381 201/345/382 195/346/383 189/347/384
s off
f 196/348/385 190/349/386 189/350/387 195/351/388
s 68
f 199/352/389 190/353/390 196/354/391 200/355/392
s 69
f 200/356/393 196/357/394 195/358/395 201/359/396
s 59
f 208/360/397 205/361/398 202/362/355 203/363/354
s 60
f 207/364/399 198/365/360 199/366/359 206/367/400
s off
f 206/367/401 205/368/402 208/369/403 207/364/404
s 62
f 203/370/365 204/371/368 209/372/405 208/373/406
s 63
f 210/374/407 209/375/408 204/376/371 197/377/370
s 64
f 197/378/373 198/379/376 207/380/409 210/381/410
s off
f 207/382/411 208/383/412 209/384/413 210/385/414
s 66
f 202/386/381 205/387/415 211/388/416 201/389/382
s off
f 212/390/417 211/391/418 205/392/419 206/393/420
s 68
f 199/394/389 200/395/392 212/396/421 206/397/422
s 69
f 200/398/393 201/399/396 211/400/423 212/401/424
