# This file uses centimeters as units for non-parametric coordinates.

g default
v -62.084885 -0.125390 -0.180748
v -60.587967 -0.125392 -0.180748
v -62.084885 -0.125390 0.180747
v -60.587967 -0.125392 0.180747
v -62.080116 2.548057 0.112689
v -60.592884 2.548057 0.112689
v -62.080116 2.548058 -0.112493
v -60.592884 2.548057 -0.112493
v -60.592808 -0.021720 0.112689
v -62.080082 -0.021718 0.112689
v -62.080082 -0.021718 -0.112681
v -60.592808 -0.021720 -0.112681
vt 0.946303 0.105463
vt 0.991419 0.105468
vt 0.946302 0.069330
vt 0.991419 0.069330
vt 0.503660 0.030047
vt 0.503660 0.068347
vt 0.993934 0.068347
vt 0.993931 0.030089
vt 0.993934 0.068347
vt 0.993931 0.030089
vt 0.503660 0.030047
vt 0.503660 0.068347
vt 0.503660 0.106657
vt 0.993931 0.106614
vt 0.503660 0.106657
vt 0.993931 0.106614
vt 0.946302 0.069330
vt 0.946303 0.105463
vt 0.991419 0.105468
vt 0.991419 0.069330
vt 0.522672 0.068347
vt 0.522672 0.106655
vt 0.522672 0.030049
vt 0.522672 0.068347
vt 0.522672 0.030049
vt 0.522672 0.106655
vn -0.000001 -1.000000 -0.000001
vn -0.000001 -1.000000 -0.000001
vn -0.000001 -1.000000 -0.000001
vn -0.000001 -1.000000 -0.000001
vn 0.000001 0.548795 0.835957
vn 0.000001 0.548795 0.835957
vn 0.000000 0.286394 0.958112
vn 0.000000 0.286394 0.958112
vn 0.000000 0.286453 -0.958094
vn 0.000000 0.286453 -0.958094
vn 0.000001 0.548836 -0.835930
vn 0.000001 0.548836 -0.835930
vn 0.998913 0.046613 0.000000
vn 0.998913 0.046613 0.000000
vn 0.999728 0.023328 0.000000
vn 0.999728 0.023328 0.000000
vn -0.998931 0.046238 0.000000
vn -0.998931 0.046238 0.000000
vn -0.999733 0.023119 0.000000
vn -0.999733 0.023119 0.000000
vn 0.000000 1.000000 0.000000
vn 0.000000 1.000000 0.000000
vn 0.000000 1.000000 0.000000
vn 0.000000 1.000000 0.000000
vn 0.000000 -0.000000 1.000000
vn 0.000000 -0.000000 1.000000
vn -1.000000 -0.000013 -0.000000
vn -1.000000 -0.000013 -0.000000
vn 0.000000 0.000073 -1.000000
vn 0.000000 0.000073 -1.000000
vn 1.000000 0.000031 0.000000
vn 1.000000 0.000031 0.000000
s off
g polySurface26744
f 3/3/1 1/1/2 2/2/3 4/4/4
s 2
f 3/5/5 4/6/6 9/21/7 10/23/8
s 3
f 11/24/9 12/25/10 2/11/11 1/12/12
s 4
f 4/6/13 2/13/14 12/26/15 9/21/16
s 5
f 1/12/17 3/15/18 10/22/19 11/24/20
s off
f 6/17/21 8/18/22 7/19/23 5/20/24
s 2
f 10/23/8 9/21/7 6/7/25 5/8/26
s 5
f 11/24/20 10/22/19 5/16/27 7/9/28
s 3
f 7/9/29 8/10/30 12/25/10 11/24/9
s 4
f 9/21/16 12/26/15 8/14/31 6/7/32
