# This file uses centimeters as units for non-parametric coordinates.

g default
v -122.393341 0.253693 0.073945
v -122.393341 0.253693 -1.197976
v -122.393341 0.630604 -1.198102
v -122.393341 1.030735 -1.197960
v -122.393341 1.217349 -1.398793
v -122.393341 1.478581 -1.369768
v -122.393341 1.495996 -1.077595
v -122.393341 1.228959 -1.013738
v -122.393341 0.874845 0.022971
v -122.393341 0.631028 1.398793
v -122.393341 0.462678 1.375573
v -112.460358 0.631028 1.398793
v -112.460358 0.630604 -1.198102
v -112.460358 1.030735 -1.197960
v -112.460358 0.874845 0.022971
v -112.460358 1.217349 -1.398793
v -112.460358 1.228959 -1.013738
v -112.460358 1.478581 -1.369768
v -112.460358 1.495996 -1.077595
v -112.460358 0.253693 0.073945
v -112.460358 0.253693 -1.197976
v -112.460358 0.462678 1.375573
vt 0.216094 0.000000
vt 0.776688 0.000000
vt 0.997821 0.055011
vt 0.749455 0.114379
vt 0.547930 0.180828
vt 0.542484 0.229847
vt 0.481481 0.233115
vt 0.469499 0.183007
vt 0.258170 0.116558
vt 0.000000 0.070806
vt 0.004357 0.039216
vt 0.000000 0.070806
vt 0.997821 0.055011
vt 0.749455 0.114379
vt 0.258170 0.116558
vt 0.469499 0.183007
vt 0.547930 0.180828
vt 0.542484 0.229847
vt 0.481481 0.233115
vt 0.216094 0.000000
vt 0.776688 0.000000
vt 0.004357 0.039216
vt 0.997821 0.055011
vt 0.749455 0.114379
vt 0.258170 0.116558
vt 0.000000 0.070806
vt 0.547930 0.180828
vt 0.542484 0.229847
vt 0.481481 0.233115
vt 0.469499 0.183007
vt 0.216094 0.000000
vt 0.776688 0.000000
vt 0.004357 0.039216
vn 1.000000 -0.000054 0.000000
vn 1.000000 -0.000054 0.000000
vn 1.000000 -0.000054 0.000000
vn 1.000000 -0.000054 0.000000
vn 1.000000 -0.000011 0.000000
vn 1.000000 -0.000011 0.000000
vn 1.000000 -0.000011 0.000000
vn 1.000000 -0.000011 0.000000
vn 1.000000 -0.000044 0.000000
vn 1.000000 -0.000044 0.000000
vn 1.000000 -0.000044 0.000000
vn 1.000000 -0.000044 0.000000
vn 1.000000 0.000025 0.000000
vn 1.000000 0.000025 0.000000
vn 1.000000 0.000025 0.000000
vn 1.000000 0.000025 0.000000
vn 1.000000 0.000074 0.000000
vn 1.000000 0.000074 0.000000
vn 1.000000 0.000074 0.000000
vn -1.000000 0.000054 0.000000
vn -1.000000 0.000054 0.000000
vn -1.000000 0.000054 0.000000
vn -1.000000 0.000054 0.000000
vn -1.000000 0.000000 0.000000
vn -1.000000 0.000000 0.000000
vn -1.000000 0.000000 0.000000
vn -1.000000 0.000000 0.000000
vn -1.000000 0.000088 0.000000
vn -1.000000 0.000088 0.000000
vn -1.000000 0.000088 0.000000
vn -1.000000 0.000088 0.000000
vn -1.000000 0.000000 0.000000
vn -1.000000 0.000000 0.000000
vn -1.000000 0.000000 0.000000
vn -1.000000 0.000000 0.000000
vn -1.000000 -0.000140 0.000000
vn -1.000000 -0.000140 0.000000
vn -1.000000 -0.000140 0.000000
vn 0.000000 0.000354 -1.000000
vn 0.000000 -0.399401 -0.916776
vn 0.000000 -0.399401 -0.916776
vn 0.000000 0.000354 -1.000000
vn 0.000000 0.968348 0.249605
vn 0.000000 0.984658 0.174496
vn 0.000000 0.984658 0.174496
vn 0.000000 0.968348 0.249605
vn 0.000000 0.110431 -0.993884
vn 0.000000 0.110431 -0.993884
vn 0.000000 0.110431 -0.993884
vn 0.000000 0.110431 -0.993884
vn 0.000000 0.998228 -0.059500
vn 0.000000 0.998228 -0.059500
vn 0.000000 0.998228 -0.059500
vn 0.000000 0.998228 -0.059500
vn 0.000000 0.232573 0.972579
vn 0.000000 0.232573 0.972579
vn 0.000000 0.232573 0.972579
vn 0.000000 0.232573 0.972579
vn 0.000000 -0.732564 -0.680698
vn 0.000000 -0.732564 -0.680698
vn 0.000000 0.946317 0.323239
vn 0.000000 0.946317 0.323239
vn 0.000000 -0.996834 0.079515
vn 0.000000 -0.707225 -0.706988
vn 0.000000 -0.707225 -0.706988
vn 0.000000 -0.996834 0.079515
vn 0.000000 -0.000335 -1.000000
vn 0.000000 -0.000335 -1.000000
vn 0.000000 -0.987355 0.158527
vn 0.000000 -0.987355 0.158527
vn 0.000000 -0.136637 0.990621
vn 0.000000 -0.136637 0.990621
vn 0.000000 -0.136637 0.990621
vn 0.000000 -0.136637 0.990621
s off
g polySurface26738
f 12/26/1 13/23/2 14/24/3 15/25/4
f 17/30/5 16/27/6 18/28/7 19/29/8
f 15/25/9 14/24/10 16/27/11 17/30/12
f 20/31/13 21/32/14 13/23/15 22/33/16
f 22/33/17 13/23/18 12/26/19
f 10/12/20 9/15/21 4/14/22 3/13/23
f 8/16/24 7/19/25 6/18/26 5/17/27
f 9/15/28 8/16/29 5/17/30 4/14/31
f 1/20/32 11/22/33 3/13/34 2/21/35
f 11/22/36 10/12/37 3/13/38
s 11
f 3/3/39 4/4/40 14/24/41 13/23/42
s 12
f 9/9/43 10/10/44 12/26/45 15/25/46
s off
f 5/5/47 6/6/48 18/28/49 16/27/50
f 6/6/51 7/7/52 19/29/53 18/28/54
f 7/7/55 8/8/56 17/30/57 19/29/58
s 11
f 4/4/40 5/5/59 16/27/60 14/24/41
s 12
f 8/8/61 9/9/43 15/25/46 17/30/62
s 16
f 1/1/63 2/2/64 21/32/65 20/31/66
f 2/2/64 3/3/67 13/23/68 21/32/65
f 11/11/69 1/1/63 20/31/66 22/33/70
s off
f 10/10/71 11/11/72 22/33/73 12/26/74
