# This file uses centimeters as units for non-parametric coordinates.

g default
v -33.652443 -0.006860 -1.629197
v -33.652447 -0.006860 1.629197
v -30.622215 -0.006860 -1.629197
v -30.622215 -0.006860 1.629197
v -33.652443 -0.066385 -1.629197
v -30.622215 -0.066385 -1.629197
v -33.652447 -0.066385 1.629197
v -30.622215 -0.066385 1.629197
vt 0.585795 0.240384
vt 0.998892 0.240298
vt 0.585623 0.622946
vt 0.998606 0.623248
vt 0.587120 0.240416
vt 0.586891 0.622914
vt 0.593761 0.622719
vt 0.593996 0.240615
vt 0.587120 0.240416
vt 0.593996 0.240615
vt 0.593761 0.622719
vt 0.586891 0.622914
vt 0.586017 0.241153
vt 0.586204 0.246027
vt 0.998475 0.246244
vt 0.998668 0.241358
vt 0.585765 0.615279
vt 0.585715 0.621677
vt 0.998515 0.621785
vt 0.998473 0.615291
vt 0.585795 0.240384
vt 0.585623 0.622946
vt 0.998606 0.623248
vt 0.998892 0.240298
vn -0.000000 1.000000 0.000000
vn -0.000000 1.000000 0.000000
vn -0.000000 1.000000 0.000000
vn -0.000000 1.000000 0.000000
vn -0.000000 0.000000 -1.000000
vn -0.000000 0.000000 -1.000000
vn -0.000000 0.000000 -1.000000
vn -0.000000 0.000000 -1.000000
vn -0.000000 0.000000 1.000000
vn -0.000000 0.000000 1.000000
vn -0.000000 0.000000 1.000000
vn -0.000000 0.000000 1.000000
vn -1.000000 0.000000 -0.000001
vn -1.000000 0.000000 -0.000001
vn -1.000000 0.000000 -0.000001
vn -1.000000 0.000000 -0.000001
vn 1.000000 0.000000 0.000000
vn 1.000000 0.000000 0.000000
vn 1.000000 0.000000 0.000000
vn 1.000000 0.000000 0.000000
vn 0.000000 -1.000000 -0.000000
vn 0.000000 -1.000000 -0.000000
vn 0.000000 -1.000000 -0.000000
vn 0.000000 -1.000000 -0.000000
s off
g polySurface21998
f 1/1/1 2/2/2 4/4/3 3/3/4
f 1/5/5 3/6/6 6/7/7 5/8/8
f 2/9/9 7/10/10 8/11/11 4/12/12
f 1/13/13 5/14/14 7/15/15 2/16/16
f 6/17/17 3/18/18 4/19/19 8/20/20
f 5/21/21 6/22/22 8/23/23 7/24/24
