# This file uses centimeters as units for non-parametric coordinates.

g default
v -62.030872 0.725348 -0.100368
v -62.030872 0.784447 -0.100368
v -62.030872 0.784447 0.098577
v -62.030872 0.725348 0.098577
v -60.642540 0.784447 0.098577
v -60.642540 0.784447 -0.100368
v -60.642540 0.725348 -0.100368
v -60.642540 0.725348 0.098577
v -60.700214 2.542992 -0.113090
v -60.700214 2.542992 0.106893
v -60.590847 2.542992 -0.113090
v -60.590847 2.542992 0.106893
v -60.590847 -0.086360 -0.113090
v -60.700214 -0.086360 -0.113090
v -60.590847 -0.086362 0.106893
v -60.700214 -0.086360 0.106893
v -61.963211 2.542992 0.106893
v -61.963211 2.542992 -0.113090
v -62.072578 2.542992 0.106893
v -62.072578 2.542992 -0.113090
v -62.072578 -0.086360 0.106893
v -61.963211 -0.086360 0.106893
v -62.072578 -0.086362 -0.113090
v -61.963211 -0.086360 -0.113090
v -60.657398 2.531828 -0.061366
v -62.006763 2.531828 -0.061366
v -60.657398 2.531829 0.062490
v -62.006763 2.531828 0.062490
v -60.657398 0.773464 0.061896
v -62.006763 0.773464 0.061896
v -62.021534 -0.071909 -0.066304
v -62.021534 0.733020 -0.066304
v -60.697510 -0.071909 -0.066304
v -60.697510 0.733020 -0.066304
v -60.657398 0.773464 -0.060632
v -62.006763 0.773464 -0.060632
v -60.690697 0.737487 0.071754
v -62.004860 0.737487 0.071754
v -60.690697 -0.069785 0.071754
v -62.004860 -0.069785 0.071754
v -61.745201 -0.129172 -0.162768
v -61.745312 -0.061318 -0.162643
v -60.921806 -0.061318 -0.163773
v -60.921055 -0.129172 -0.163880
v -60.586094 -0.129172 -0.161293
v -60.586220 -0.061318 -0.161214
v -62.075584 -0.129171 -0.161537
v -62.075500 -0.061320 -0.161410
v -60.586208 -0.061318 0.048315
v -60.921829 -0.061318 0.048619
v -61.745140 -0.061318 0.048778
v -62.076103 -0.061320 0.048710
v -62.076176 -0.129171 0.048665
v -61.745056 -0.129172 0.048756
v -60.921188 -0.129172 0.048616
v -60.586086 -0.129172 0.048316
v -61.745193 -0.129172 0.162768
v -61.745308 -0.061318 0.162643
v -60.921803 -0.061318 0.163773
v -60.921051 -0.129172 0.163880
v -60.586090 -0.129172 0.161293
v -60.586220 -0.061318 0.161214
v -62.075581 -0.129171 0.161536
v -62.075497 -0.061320 0.161410
vt 0.033302 0.098953
vt 0.226760 0.098953
vt 0.226761 0.138236
vt 0.033305 0.138236
vt 0.033306 0.098953
vt 0.033306 0.088325
vt 0.226761 0.088325
vt 0.226761 0.098953
vt 0.033302 0.138236
vt 0.033305 0.098953
vt 0.226761 0.098953
vt 0.226760 0.138236
vt 0.033302 0.088325
vt 0.226760 0.088325
vt 0.379501 0.067333
vt 0.379501 0.030469
vt 0.393110 0.030469
vt 0.393110 0.067333
vt 0.005869 0.088435
vt 0.005869 0.067333
vt 0.393110 0.067333
vt 0.393110 0.088435
vt 0.393110 0.067333
vt 0.393110 0.088435
vt 0.005869 0.088435
vt 0.005869 0.067333
vt 0.005869 0.030469
vt 0.393110 0.030469
vt 0.005869 0.067333
vt 0.005869 0.030469
vt 0.393110 0.030469
vt 0.393110 0.067333
vt 0.005869 0.067333
vt 0.005869 0.030469
vt 0.019458 0.030469
vt 0.019458 0.067333
vt 0.379501 0.067333
vt 0.379501 0.030469
vt 0.393110 0.030469
vt 0.393110 0.067333
vt 0.005869 0.088435
vt 0.005869 0.067333
vt 0.393110 0.067333
vt 0.393110 0.088435
vt 0.393110 0.067333
vt 0.393110 0.088435
vt 0.005869 0.088435
vt 0.005869 0.067333
vt 0.005869 0.030469
vt 0.393110 0.030469
vt 0.005869 0.067333
vt 0.005869 0.030469
vt 0.393110 0.030469
vt 0.393110 0.067333
vt 0.005869 0.067333
vt 0.005869 0.030469
vt 0.019458 0.030469
vt 0.019458 0.067333
vt 0.349203 0.878570
vt 0.255766 0.878570
vt 0.255766 0.862906
vt 0.349203 0.862906
vt 0.349203 0.991581
vt 0.255766 0.991581
vt 0.255766 0.864008
vt 0.349203 0.864008
vt 0.533746 0.855895
vt 0.533746 0.912843
vt 0.627183 0.912843
vt 0.627183 0.855895
vt 0.349203 0.859324
vt 0.349203 0.762449
vt 0.255766 0.762449
vt 0.255766 0.859324
vt 0.001904 0.144889
vt 0.222060 0.144889
vt 0.222060 0.278387
vt 0.001904 0.278387
vt 0.374526 0.342997
vt 0.374526 0.304090
vt 0.432239 0.304090
vt 0.432239 0.342997
vt 0.432239 0.304090
vt 0.432239 0.342997
vt 0.442097 0.342997
vt 0.442097 0.304090
vt 0.432239 0.342997
vt 0.432239 0.304090
vt 0.374526 0.304090
vt 0.374526 0.342997
vt 0.374526 0.304090
vt 0.432239 0.304090
vt 0.432239 0.293076
vt 0.374526 0.293076
vt 0.396937 0.367697
vt 0.396937 0.304090
vt 0.432239 0.304090
vt 0.432239 0.367697
vt 0.432239 0.304090
vt 0.432239 0.367697
vt 0.442097 0.367697
vt 0.442097 0.304090
vt 0.396937 0.367697
vt 0.432239 0.367697
vt 0.432239 0.304090
vt 0.396937 0.304090
vt 0.396937 0.304090
vt 0.432239 0.304090
vt 0.432239 0.293076
vt 0.396937 0.293076
vt 0.374526 0.325060
vt 0.432239 0.325060
vt 0.432239 0.304090
vt 0.374526 0.304090
vt 0.432239 0.304090
vt 0.442097 0.304090
vt 0.442097 0.325060
vt 0.432239 0.325060
vt 0.432239 0.325060
vt 0.374526 0.325060
vt 0.374526 0.304090
vt 0.432239 0.304090
vt 0.374526 0.304090
vt 0.374526 0.293076
vt 0.432239 0.293076
vt 0.432239 0.304090
vt 0.413212 0.367697
vt 0.432239 0.367697
vt 0.432239 0.304090
vt 0.413212 0.304090
vt 0.432239 0.304090
vt 0.442097 0.304090
vt 0.442097 0.367697
vt 0.432239 0.367697
vt 0.413212 0.367697
vt 0.413212 0.304090
vt 0.432239 0.304090
vt 0.432239 0.367697
vt 0.413212 0.304090
vt 0.413212 0.293076
vt 0.432239 0.293076
vt 0.432239 0.304090
vt 0.432239 0.622142
vt 0.413606 0.622142
vt 0.413589 0.456614
vt 0.432239 0.456614
vt 0.432239 0.622142
vt 0.432239 0.456614
vt 0.397638 0.456614
vt 0.397668 0.622142
vt 0.442097 0.456614
vt 0.442097 0.622142
vt 0.432239 0.622142
vt 0.397609 0.622142
vt 0.397617 0.456614
vt 0.432239 0.456614
vt 0.432239 0.622142
vt 0.432239 0.456614
vt 0.413578 0.456614
vt 0.413574 0.622142
vt 0.442097 0.456614
vt 0.442097 0.622142
vn 0.000000 1.000000 0.000000
vn 0.000000 1.000000 0.000000
vn 0.000000 1.000000 0.000000
vn 0.000000 1.000000 0.000000
vn 0.000000 0.000000 -1.000000
vn 0.000000 0.000000 -1.000000
vn 0.000000 0.000000 -1.000000
vn 0.000000 0.000000 -1.000000
vn 0.000000 -1.000000 0.000000
vn 0.000000 -1.000000 0.000000
vn 0.000000 -1.000000 0.000000
vn 0.000000 -1.000000 0.000000
vn -0.000000 0.000000 1.000000
vn -0.000000 0.000000 1.000000
vn -0.000000 0.000000 1.000000
vn -0.000000 0.000000 1.000000
vn 0.000000 1.000000 0.000000
vn 0.000000 1.000000 0.000000
vn 0.000000 1.000000 0.000000
vn 0.000000 1.000000 0.000000
vn 0.000000 0.000000 -1.000000
vn 0.000000 0.000000 -1.000000
vn 0.000000 0.000000 -1.000000
vn 0.000000 0.000000 -1.000000
vn 0.000000 0.000000 1.000000
vn 0.000000 0.000000 1.000000
vn 0.000000 0.000000 1.000000
vn 0.000000 0.000000 1.000000
vn -1.000000 0.000000 0.000000
vn -1.000000 0.000000 0.000000
vn -1.000000 0.000000 0.000000
vn -1.000000 0.000000 0.000000
vn 1.000000 0.000000 0.000000
vn 1.000000 0.000000 0.000000
vn 1.000000 0.000000 0.000000
vn 1.000000 0.000000 0.000000
vn -0.000009 -1.000000 -0.000004
vn -0.000009 -1.000000 -0.000004
vn -0.000009 -1.000000 -0.000004
vn -0.000009 -1.000000 -0.000004
vn 0.000000 1.000000 0.000000
vn 0.000000 1.000000 0.000000
vn 0.000000 1.000000 0.000000
vn 0.000000 1.000000 0.000000
vn 0.000000 0.000000 1.000000
vn 0.000000 0.000000 1.000000
vn 0.000000 0.000000 1.000000
vn 0.000000 0.000000 1.000000
vn 0.000000 0.000000 -1.000000
vn 0.000000 0.000000 -1.000000
vn 0.000000 0.000000 -1.000000
vn 0.000000 0.000000 -1.000000
vn 1.000000 0.000000 0.000000
vn 1.000000 0.000000 0.000000
vn 1.000000 0.000000 0.000000
vn 1.000000 0.000000 0.000000
vn -1.000000 0.000000 0.000000
vn -1.000000 0.000000 0.000000
vn -1.000000 0.000000 0.000000
vn -1.000000 0.000000 0.000000
vn 0.000009 -1.000000 0.000004
vn 0.000009 -1.000000 0.000004
vn 0.000009 -1.000000 0.000004
vn 0.000009 -1.000000 0.000004
vn -0.000000 1.000000 0.000000
vn -0.000000 1.000000 0.000000
vn -0.000000 1.000000 0.000000
vn -0.000000 1.000000 0.000000
vn 0.000000 -0.000337 1.000000
vn 0.000000 -0.000337 1.000000
vn 0.000000 -0.000337 1.000000
vn 0.000000 -0.000337 1.000000
vn 0.000000 0.000000 -1.000000
vn 0.000000 0.000000 -1.000000
vn 0.000000 0.000000 -1.000000
vn 0.000000 0.000000 -1.000000
vn 0.000000 -0.000418 -1.000000
vn 0.000000 -0.000418 -1.000000
vn 0.000000 -0.000418 -1.000000
vn 0.000000 -0.000418 -1.000000
vn 0.000000 0.000000 1.000000
vn 0.000000 0.000000 1.000000
vn 0.000000 0.000000 1.000000
vn 0.000000 0.000000 1.000000
vn -0.000000 -1.000000 0.000000
vn -0.000000 -1.000000 0.000000
vn -0.000000 -1.000000 0.000000
vn -0.000000 -1.000000 0.000000
vn 0.999998 0.001854 -0.000046
vn 0.999998 0.001829 0.000011
vn 0.999998 0.001829 0.000011
vn 0.999998 0.001854 -0.000046
vn -0.000001 1.000000 0.000000
vn -0.000001 1.000000 0.000000
vn -0.000000 1.000000 0.000000
vn -0.000000 1.000000 -0.000000
vn 0.003157 0.001566 -0.999994
vn 0.007674 0.001426 -0.999970
vn 0.007674 0.001426 -0.999970
vn 0.003157 0.001566 -0.999994
vn -0.000001 -1.000000 -0.000000
vn -0.000001 -1.000000 -0.000000
vn -0.000001 -1.000000 0.000000
vn -0.000001 -1.000000 0.000000
vn -0.003730 0.001855 -0.999991
vn -0.002545 0.001780 -0.999995
vn -0.002545 0.001780 -0.999995
vn -0.003730 0.001855 -0.999991
vn -0.000002 1.000000 -0.000000
vn -0.000002 1.000000 0.000000
vn -0.000004 1.000000 0.000000
vn -0.000004 1.000000 -0.000000
vn -0.999999 0.001180 0.001243
vn -0.999995 0.001176 -0.002841
vn -0.999995 0.001176 -0.002841
vn -0.999999 0.001180 0.001243
vn -0.000000 -1.000000 0.000000
vn -0.000000 -1.000000 -0.000000
vn 0.999998 0.001804 0.000068
vn 0.999998 0.001804 0.000068
vn -0.000000 1.000000 -0.000000
vn -0.000001 1.000000 0.000000
vn 0.003157 0.001567 0.999994
vn 0.003157 0.001567 0.999994
vn 0.007674 0.001427 0.999970
vn 0.007674 0.001427 0.999970
vn -0.000001 -1.000000 -0.000000
vn -0.000001 -1.000000 -0.000000
vn -0.003732 0.001847 0.999991
vn -0.003732 0.001847 0.999991
vn -0.002546 0.001777 0.999995
vn -0.002546 0.001777 0.999995
vn -0.000004 1.000000 -0.000000
vn -0.000002 1.000000 -0.000000
vn -0.999985 0.001184 0.005327
vn -0.999985 0.001184 0.005327
s off
g polySurface26230
f 3/1/1 5/2/2 6/3/3 2/4/4
f 1/5/5 2/6/6 6/7/7 7/8/8
f 4/9/9 1/10/10 7/11/11 8/12/12
f 3/1/13 4/13/14 8/14/15 5/2/16
f 12/15/17 11/16/18 9/17/19 10/18/20
f 13/19/21 14/20/22 9/21/23 11/22/24
f 12/23/25 10/24/26 16/25/27 15/26/28
f 14/20/29 16/27/30 10/28/31 9/21/32
f 15/29/33 13/30/34 11/31/35 12/32/36
f 16/33/37 14/34/38 13/35/39 15/36/40
f 20/37/41 19/38/42 17/39/43 18/40/44
f 21/41/45 22/42/46 17/43/47 19/44/48
f 20/45/49 18/46/50 24/47/51 23/48/52
f 22/42/53 24/49/54 18/50/55 17/43/56
f 23/51/57 21/52/58 19/53/59 20/54/60
f 24/55/61 22/56/62 21/57/63 23/58/64
f 25/59/65 26/60/66 28/61/67 27/62/68
f 27/63/69 28/64/70 30/65/71 29/66/72
f 31/67/73 32/68/74 34/69/75 33/70/76
f 25/71/77 35/72/78 36/73/79 26/74/80
f 40/75/81 39/76/82 37/77/83 38/78/84
s 20
f 55/79/85 44/80/86 45/81/87 56/82/88
s 21
f 46/83/89 49/84/90 56/85/91 45/86/92
s 22
f 49/87/93 46/88/94 43/89/95 50/90/96
s 23
f 43/91/97 46/92/98 45/93/99 44/94/100
s 20
f 54/95/101 53/96/102 47/97/103 41/98/104
s 23
f 48/99/105 42/100/106 41/101/107 47/102/108
s 22
f 51/103/109 42/104/110 48/105/111 52/106/112
s 24
f 52/107/113 48/108/114 47/109/115 53/110/116
s 20
f 55/111/85 56/112/88 61/113/117 60/114/118
s 21
f 62/115/119 61/116/120 56/117/91 49/118/90
s 22
f 49/119/93 50/120/96 59/121/121 62/122/122
s 25
f 59/123/123 60/124/124 61/125/125 62/126/126
s 20
f 54/127/101 57/128/127 63/129/128 53/130/102
s 25
f 64/131/129 63/132/130 57/133/131 58/134/132
s 22
f 51/135/109 52/136/112 64/137/133 58/138/134
s 24
f 52/139/113 53/140/116 63/141/135 64/142/136
s 22
f 59/143/121 50/144/96 51/145/109 58/146/134
f 43/147/95 42/148/110 51/149/109 50/150/96
s 23
f 41/151/107 42/148/106 43/147/97 44/152/100
s 20
f 44/153/86 55/154/85 54/155/101 41/156/104
f 60/157/118 57/158/127 54/159/101 55/160/85
s 25
f 58/146/132 57/161/131 60/162/124 59/143/123
