# This file uses centimeters as units for non-parametric coordinates.

g default
v -46.123241 0.177629 -0.741386
v -46.123241 0.177629 0.741386
v -46.248440 -0.039213 0.741386
v -46.248440 -0.039213 -0.741386
v -50.930290 2.904061 0.741386
v -50.930290 2.904061 -0.741386
v -51.054886 2.686880 -0.741386
v -51.054874 2.686873 0.741386
v -46.688404 0.498174 0.741386
v -46.688404 0.498174 -0.741386
v -46.812752 0.281184 -0.741386
v -46.812752 0.281183 0.741386
v -47.327587 0.860701 0.741386
v -47.327587 0.860701 -0.741386
v -47.457478 0.646854 -0.741386
v -47.457474 0.646852 0.741386
v -47.967594 1.223697 0.741386
v -47.967594 1.223697 -0.741386
v -48.106102 1.014738 -0.741386
v -48.106098 1.014735 0.741386
v -48.607567 1.586672 0.741386
v -48.607567 1.586672 -0.741386
v -48.746365 1.377881 -0.741386
v -48.746365 1.377877 0.741386
v -49.278141 1.967005 0.741386
v -49.278141 1.967005 -0.741386
v -49.412846 1.755890 -0.741386
v -49.412842 1.755885 0.741386
v -49.924564 2.333638 0.741386
v -49.924564 2.333638 -0.741386
v -50.051105 2.117895 -0.741386
v -50.051098 2.117889 0.741386
v -50.594158 2.713415 0.741386
v -50.594158 2.713415 -0.741386
v -50.731503 2.503796 -0.741386
v -50.731491 2.503790 0.741386
v -50.144852 2.341177 0.741386
v -50.144852 2.341177 -0.741386
v -49.514591 1.983710 0.741386
v -49.514591 1.983710 -0.741386
v -48.852043 1.607931 0.741386
v -48.852043 1.607931 -0.741386
v -48.211319 1.244529 0.741386
v -48.211319 1.244529 -0.741386
v -47.553913 0.871665 0.741386
v -47.553913 0.871665 -0.741386
v -46.903484 0.502761 0.741386
v -46.903484 0.502761 -0.741386
v -50.836212 2.734064 0.741386
v -50.836212 2.734064 -0.741386
vt 0.494060 0.098953
vt 0.494058 0.138236
vt 0.494057 0.088325
vt 0.494057 0.098953
vt 0.494058 0.098953
vt 0.494060 0.138236
vt 0.494060 0.088325
vt 0.296334 0.098953
vt 0.296334 0.088325
vt 0.296411 0.138236
vt 0.296334 0.098953
vt 0.296411 0.098953
vt 0.296411 0.088325
vt 0.296334 0.138236
vt 0.296411 0.138236
vt 0.296334 0.098953
vt 0.303942 0.098953
vt 0.304014 0.138233
vt 0.488557 0.098953
vt 0.494058 0.098953
vt 0.494060 0.138236
vt 0.488559 0.138235
vt 0.470811 0.088325
vt 0.470812 0.138236
vt 0.470812 0.098953
vt 0.470811 0.098953
vt 0.466401 0.088325
vt 0.466401 0.138236
vt 0.466401 0.098953
vt 0.444520 0.088325
vt 0.444521 0.138236
vt 0.444521 0.098953
vt 0.444520 0.098953
vt 0.439889 0.088325
vt 0.439889 0.138236
vt 0.439889 0.098953
vt 0.418195 0.088325
vt 0.418196 0.138236
vt 0.418196 0.098953
vt 0.418195 0.098953
vt 0.413216 0.088325
vt 0.413216 0.138236
vt 0.413216 0.098953
vt 0.391872 0.088325
vt 0.391873 0.138236
vt 0.391873 0.098953
vt 0.391872 0.098953
vt 0.386887 0.088325
vt 0.386887 0.138236
vt 0.386887 0.098953
vt 0.364290 0.088325
vt 0.364291 0.138236
vt 0.364291 0.098953
vt 0.364290 0.098953
vt 0.359480 0.088325
vt 0.359480 0.138236
vt 0.359480 0.098953
vt 0.337702 0.088325
vt 0.337702 0.138236
vt 0.337702 0.098953
vt 0.337702 0.098953
vt 0.333234 0.088325
vt 0.333234 0.138236
vt 0.333234 0.098953
vt 0.310160 0.088325
vt 0.310160 0.138236
vt 0.310160 0.098953
vt 0.310160 0.098953
vt 0.305255 0.088325
vt 0.305255 0.138236
vt 0.305255 0.098953
vt 0.328641 0.088325
vt 0.328641 0.138236
vt 0.328641 0.098953
vt 0.328641 0.098953
vt 0.354564 0.088325
vt 0.354565 0.138236
vt 0.354565 0.098953
vt 0.354564 0.098953
vt 0.381816 0.088325
vt 0.381817 0.138236
vt 0.381817 0.098953
vt 0.381816 0.098953
vt 0.408170 0.088325
vt 0.408171 0.138236
vt 0.408171 0.098953
vt 0.408170 0.098953
vt 0.435211 0.088325
vt 0.435212 0.138236
vt 0.435212 0.098953
vt 0.435211 0.098953
vt 0.461964 0.088325
vt 0.461965 0.138236
vt 0.461965 0.098953
vt 0.461964 0.098953
vt 0.300204 0.088325
vt 0.300204 0.138236
vt 0.300204 0.098953
vt 0.300204 0.098953
vn 0.544020 0.839072 0.000000
vn 0.544020 0.839072 0.000000
vn 0.874954 0.484207 0.000000
vn 0.874954 0.484207 0.000000
vn -0.000000 0.000000 -1.000000
vn -0.000000 0.000000 -1.000000
vn -0.000000 0.000000 -1.000000
vn -0.000000 0.000000 -1.000000
vn -0.493010 -0.870024 -0.000000
vn -0.492675 -0.870214 0.000000
vn -0.492675 -0.870214 0.000000
vn -0.493010 -0.870024 -0.000000
vn 0.000000 0.000000 1.000000
vn 0.000000 0.000000 1.000000
vn 0.000000 0.000000 1.000000
vn 0.000000 0.000000 1.000000
vn -0.867409 0.497596 0.000004
vn -0.867409 0.497596 0.000004
vn -0.867409 0.497596 0.000004
vn -0.867409 0.497596 0.000004
vn 0.866020 -0.500010 -0.000000
vn 0.866020 -0.500010 -0.000000
vn 0.866020 -0.500010 -0.000000
vn 0.866020 -0.500010 -0.000000
vn 0.493347 0.869833 0.000000
vn 0.493347 0.869833 0.000000
vn 0.265410 0.964136 0.000000
vn 0.265410 0.964136 0.000000
vn 0.000000 0.000000 -1.000000
vn 0.000000 0.000000 -1.000000
vn -0.000000 0.000000 -1.000000
vn 0.000000 0.000000 -1.000000
vn -0.493735 -0.869613 -0.000000
vn -0.493540 -0.869723 -0.000000
vn -0.493540 -0.869723 -0.000000
vn -0.493735 -0.869613 -0.000000
vn 0.000000 0.000000 1.000000
vn 0.000000 0.000000 1.000000
vn -0.000000 0.000000 1.000000
vn 0.000000 0.000000 1.000000
vn 0.353361 0.935487 0.000000
vn 0.353361 0.935487 0.000000
vn 0.365995 0.930617 0.000000
vn 0.365995 0.930617 0.000000
vn -0.000000 0.000000 -1.000000
vn -0.000000 0.000000 -1.000000
vn 0.000000 0.000000 -1.000000
vn -0.493347 -0.869833 -0.000000
vn -0.493347 -0.869833 -0.000000
vn -0.000000 0.000000 1.000000
vn -0.000000 0.000000 1.000000
vn -0.000000 0.000000 1.000000
vn 0.367886 0.929871 0.000000
vn 0.367886 0.929871 0.000000
vn 0.384960 0.922933 0.000000
vn 0.384960 0.922933 0.000000
vn 0.000000 0.000000 -1.000000
vn -0.000000 0.000000 -1.000000
vn -0.000000 0.000000 -1.000000
vn -0.493348 -0.869832 -0.000001
vn -0.493348 -0.869832 -0.000001
vn 0.000000 0.000000 1.000000
vn 0.000000 0.000000 1.000000
vn 0.000000 0.000000 1.000000
vn 0.388275 0.921544 0.000000
vn 0.388275 0.921544 0.000000
vn 0.388955 0.921257 0.000000
vn 0.388955 0.921257 0.000000
vn 0.000000 0.000000 -1.000000
vn 0.000000 0.000000 -1.000000
vn 0.000000 0.000000 -1.000000
vn -0.493348 -0.869832 -0.000001
vn -0.493348 -0.869832 -0.000001
vn 0.000000 0.000000 1.000000
vn 0.000000 0.000000 1.000000
vn 0.000000 0.000000 1.000000
vn 0.383415 0.923576 0.000000
vn 0.383415 0.923576 0.000000
vn 0.375920 0.926652 0.000000
vn 0.375920 0.926652 0.000000
vn 0.000000 0.000000 -1.000000
vn 0.000000 0.000000 -1.000000
vn 0.000000 0.000000 -1.000000
vn -0.493346 -0.869833 -0.000001
vn -0.493346 -0.869833 -0.000001
vn 0.000000 0.000000 1.000000
vn 0.000000 0.000000 1.000000
vn 0.000000 0.000000 1.000000
vn 0.378835 0.925464 0.000000
vn 0.378835 0.925464 0.000000
vn 0.361966 0.932191 0.000000
vn 0.361966 0.932191 0.000000
vn 0.000000 0.000000 -1.000000
vn 0.000000 0.000000 -1.000000
vn 0.000000 0.000000 -1.000000
vn -0.493345 -0.869834 -0.000001
vn -0.493345 -0.869834 -0.000001
vn 0.000000 0.000000 1.000000
vn 0.000000 0.000000 1.000000
vn 0.000000 0.000000 1.000000
vn 0.355115 0.934823 0.000000
vn 0.355115 0.934823 0.000000
vn 0.378783 0.925486 0.000000
vn 0.378783 0.925486 0.000000
vn 0.000000 0.000000 -1.000000
vn 0.000000 0.000000 -1.000000
vn 0.000000 0.000000 1.000000
vn 0.000000 0.000000 1.000000
s 1
g polySurface26739
f 49/96/1 50/99/2 6/8/3 5/9/4
s 2
f 50/98/5 35/70/6 7/10/7 6/11/8
s 3
f 36/71/9 8/12/10 7/13/11 35/69/12
s 4
f 36/71/13 49/97/14 5/14/15 8/12/16
s off
f 8/15/17 5/16/18 6/17/19 7/18/20
f 1/19/21 2/20/22 3/21/23 4/22/24
s 1
f 2/3/25 1/4/26 10/26/27 9/23/28
s 2
f 1/5/29 4/6/30 11/28/31 10/25/32
s 3
f 3/1/33 12/29/34 11/27/35 4/7/36
s 4
f 2/2/37 9/24/38 12/29/39 3/1/40
s 1
f 47/92/41 48/95/42 14/33/43 13/30/44
s 2
f 48/94/45 11/28/31 15/35/46 14/32/47
s 3
f 12/29/34 16/36/48 15/34/49 11/27/35
s 4
f 12/29/39 47/93/50 13/31/51 16/36/52
s 1
f 45/88/53 46/91/54 18/40/55 17/37/56
s 2
f 46/90/57 15/35/46 19/42/58 18/39/59
s 3
f 16/36/48 20/43/60 19/41/61 15/34/49
s 4
f 16/36/52 45/89/62 17/38/63 20/43/64
s 1
f 43/84/65 44/87/66 22/47/67 21/44/68
s 2
f 44/86/69 19/42/58 23/49/70 22/46/71
s 3
f 20/43/60 24/50/72 23/48/73 19/41/61
s 4
f 20/43/64 43/85/74 21/45/75 24/50/76
s 1
f 41/80/77 42/83/78 26/54/79 25/51/80
s 2
f 42/82/81 23/49/70 27/56/82 26/53/83
s 3
f 24/50/72 28/57/84 27/55/85 23/48/73
s 4
f 24/50/76 41/81/86 25/52/87 28/57/88
s 1
f 39/76/89 40/79/90 30/61/91 29/58/92
s 2
f 40/78/93 27/56/82 31/63/94 30/60/95
s 3
f 28/57/84 32/64/96 31/62/97 27/55/85
s 4
f 28/57/88 39/77/98 29/59/99 32/64/100
s 1
f 37/72/101 38/75/102 34/68/103 33/65/104
s 2
f 38/74/105 31/63/94 35/70/6 34/67/106
s 3
f 32/64/96 36/71/9 35/69/12 31/62/97
s 4
f 32/64/100 37/73/107 33/66/108 36/71/13
s 1
f 29/58/92 30/61/91 38/75/102 37/72/101
s 2
f 30/60/95 31/63/94 38/74/105
s 4
f 32/64/100 29/59/99 37/73/107
s 1
f 25/51/80 26/54/79 40/79/90 39/76/89
s 2
f 26/53/83 27/56/82 40/78/93
s 4
f 28/57/88 25/52/87 39/77/98
s 1
f 21/44/68 22/47/67 42/83/78 41/80/77
s 2
f 22/46/71 23/49/70 42/82/81
s 4
f 24/50/76 21/45/75 41/81/86
s 1
f 17/37/56 18/40/55 44/87/66 43/84/65
s 2
f 18/39/59 19/42/58 44/86/69
s 4
f 20/43/64 17/38/63 43/85/74
s 1
f 13/30/44 14/33/43 46/91/54 45/88/53
s 2
f 14/32/47 15/35/46 46/90/57
s 4
f 16/36/52 13/31/51 45/89/62
s 1
f 9/23/28 10/26/27 48/95/42 47/92/41
s 2
f 10/25/32 11/28/31 48/94/45
s 4
f 12/29/39 9/24/38 47/93/50
s 1
f 33/65/104 34/68/103 50/99/2 49/96/1
s 2
f 34/67/106 35/70/6 50/98/5
s 4
f 36/71/13 33/66/108 49/97/14
