# This file uses centimeters as units for non-parametric coordinates.

g default
v -52.128441 2.801712 -0.696190
v -52.128441 2.859893 -0.696190
v -51.882137 2.859893 -0.696190
v -51.882137 2.801712 -0.696190
v -52.128441 2.859893 0.708012
v -52.128441 2.801712 0.708012
v -51.882137 2.801712 0.708012
v -51.882137 2.859893 0.708012
v -52.401844 2.801712 -0.696190
v -52.401844 2.859893 -0.696190
v -52.155540 2.859893 -0.696190
v -52.155540 2.801712 -0.696190
v -52.401844 2.859893 0.708012
v -52.401844 2.801712 0.708012
v -52.155540 2.801712 0.708012
v -52.155540 2.859893 0.708012
v -52.670517 2.801712 -0.696190
v -52.670517 2.859893 -0.696190
v -52.424217 2.859893 -0.696190
v -52.424217 2.801712 -0.696190
v -52.670517 2.859893 0.708012
v -52.670517 2.801712 0.708012
v -52.424217 2.801712 0.708012
v -52.424217 2.859893 0.708012
v -52.939144 2.801712 -0.696190
v -52.939144 2.859893 -0.696190
v -52.692841 2.859893 -0.696190
v -52.692841 2.801712 -0.696190
v -52.939144 2.859893 0.708012
v -52.939144 2.801712 0.708012
v -52.692841 2.801712 0.708012
v -52.692841 2.859893 0.708012
v -53.217327 2.801712 -0.696190
v -53.217327 2.859893 -0.696190
v -52.971024 2.859893 -0.696190
v -52.971024 2.801712 -0.696190
v -53.217327 2.859893 0.708012
v -53.217327 2.801712 0.708012
v -52.971024 2.801712 0.708012
v -52.971024 2.859893 0.708012
v -53.489471 2.801712 -0.696190
v -53.489471 2.859893 -0.696190
v -53.243172 2.859893 -0.696190
v -53.243172 2.801712 -0.696190
v -53.489471 2.859893 0.708012
v -53.489471 2.801712 0.708012
v -53.243172 2.801712 0.708012
v -53.243172 2.859893 0.708012
v -53.762089 2.801712 -0.696190
v -53.762089 2.859893 -0.696190
v -53.515785 2.859893 -0.696190
v -53.515785 2.801712 -0.696190
v -53.762089 2.859893 0.708012
v -53.762089 2.801712 0.708012
v -53.515785 2.801712 0.708012
v -53.515785 2.859893 0.708012
v -54.034702 2.801712 -0.696190
v -54.034702 2.859893 -0.696190
v -53.788403 2.859893 -0.696190
v -53.788403 2.801712 -0.696190
v -54.034702 2.859893 0.708012
v -54.034702 2.801712 0.708012
v -53.788403 2.801712 0.708012
v -53.788403 2.859893 0.708012
v -54.302574 2.801712 -0.696190
v -54.302574 2.859893 -0.696190
v -54.056271 2.859893 -0.696190
v -54.056271 2.801712 -0.696190
v -54.302574 2.859893 0.708012
v -54.302574 2.801712 0.708012
v -54.056271 2.801712 0.708012
v -54.056271 2.859893 0.708012
v -51.855160 2.801712 -0.696190
v -51.855160 2.859893 -0.696190
v -51.608856 2.859893 -0.696190
v -51.608856 2.801712 -0.696190
v -51.855160 2.859893 0.708012
v -51.855160 2.801712 0.708012
v -51.608856 2.801712 0.708012
v -51.608856 2.859893 0.708012
v -54.573616 2.801712 -0.696190
v -54.573616 2.859893 -0.696190
v -54.327312 2.859893 -0.696190
v -54.327312 2.801712 -0.696190
v -54.573616 2.859893 0.708012
v -54.573616 2.801712 0.708012
v -54.327312 2.801712 0.708012
v -54.327312 2.859893 0.708012
v -51.590992 2.892628 0.691608
v -51.534016 2.892628 0.748585
v -51.534016 2.675250 0.748585
v -51.590992 2.675250 0.691608
v -54.649868 2.892628 0.748585
v -54.592892 2.892628 0.691608
v -54.592892 2.675250 0.691608
v -54.649868 2.675250 0.748585
v -51.534016 2.892628 -0.748585
v -51.590992 2.892628 -0.691608
v -51.590992 2.675250 -0.691608
v -51.534016 2.675250 -0.748585
v -54.592892 2.892628 -0.693901
v -54.649868 2.892628 -0.748585
v -54.649868 2.675250 -0.748585
v -54.592892 2.675250 -0.693901
vt 0.348857 0.098953
vt 0.348854 0.138236
vt 0.494057 0.088325
vt 0.494057 0.098953
vt 0.376080 0.098953
vt 0.376082 0.138236
vt 0.348857 0.088325
vt 0.343629 0.088325
vt 0.198426 0.138236
vt 0.225651 0.098953
vt 0.343629 0.098953
vt 0.198426 0.088325
vt 0.225652 0.138236
vt 0.198426 0.098953
vt 0.343629 0.098953
vt 0.343629 0.088325
vt 0.494057 0.088325
vt 0.494057 0.098953
vt 0.343630 0.138236
vt 0.343629 0.098953
vt 0.494058 0.098953
vt 0.494060 0.138236
vt 0.316404 0.098953
vt 0.316404 0.088325
vt 0.466835 0.088325
vt 0.466835 0.098953
vt 0.316403 0.138236
vt 0.466832 0.138236
vt 0.343629 0.098953
vt 0.343629 0.088325
vt 0.494057 0.088325
vt 0.494057 0.098953
vt 0.343630 0.138236
vt 0.343629 0.098953
vt 0.494058 0.098953
vt 0.494060 0.138236
vt 0.225652 0.098953
vt 0.225652 0.088325
vt 0.376082 0.088325
vt 0.376082 0.098953
vt 0.225651 0.138236
vt 0.376080 0.138236
vt 0.343629 0.098953
vt 0.343629 0.088325
vt 0.494057 0.088325
vt 0.494057 0.098953
vt 0.343630 0.138236
vt 0.343629 0.098953
vt 0.494058 0.098953
vt 0.494060 0.138236
vt 0.343630 0.098953
vt 0.343630 0.088325
vt 0.494060 0.088325
vt 0.494060 0.098953
vt 0.343629 0.138236
vt 0.494058 0.138236
vt 0.343629 0.098953
vt 0.343629 0.088325
vt 0.494057 0.088325
vt 0.494057 0.098953
vt 0.343630 0.138236
vt 0.343629 0.098953
vt 0.494058 0.098953
vt 0.494060 0.138236
vt 0.225652 0.098953
vt 0.225652 0.088325
vt 0.376082 0.088325
vt 0.376082 0.098953
vt 0.225651 0.138236
vt 0.376080 0.138236
vt 0.343629 0.098953
vt 0.343629 0.088325
vt 0.494057 0.088325
vt 0.494057 0.098953
vt 0.343630 0.138236
vt 0.343629 0.098953
vt 0.494058 0.098953
vt 0.494060 0.138236
vt 0.316404 0.098953
vt 0.316404 0.088325
vt 0.466835 0.088325
vt 0.466835 0.098953
vt 0.316403 0.138236
vt 0.466832 0.138236
vt 0.343629 0.098953
vt 0.343629 0.088325
vt 0.494057 0.088325
vt 0.494057 0.098953
vt 0.343630 0.138236
vt 0.343629 0.098953
vt 0.494058 0.098953
vt 0.494060 0.138236
vt 0.198426 0.098953
vt 0.198426 0.088325
vt 0.348857 0.088325
vt 0.348857 0.098953
vt 0.198426 0.138236
vt 0.348854 0.138236
vt 0.343629 0.098953
vt 0.343629 0.088325
vt 0.494057 0.088325
vt 0.494057 0.098953
vt 0.343630 0.138236
vt 0.343629 0.098953
vt 0.494058 0.098953
vt 0.494060 0.138236
vt 0.316404 0.098953
vt 0.316404 0.088325
vt 0.466835 0.088325
vt 0.466835 0.098953
vt 0.316403 0.138236
vt 0.466832 0.138236
vt 0.343629 0.098953
vt 0.343629 0.088325
vt 0.494057 0.088325
vt 0.494057 0.098953
vt 0.343630 0.138236
vt 0.343629 0.098953
vt 0.494058 0.098953
vt 0.494060 0.138236
vt 0.225652 0.098953
vt 0.225652 0.088325
vt 0.376082 0.088325
vt 0.376082 0.098953
vt 0.225651 0.138236
vt 0.376080 0.138236
vt 0.343629 0.098953
vt 0.343629 0.088325
vt 0.494057 0.088325
vt 0.494057 0.098953
vt 0.343630 0.138236
vt 0.343629 0.098953
vt 0.494058 0.098953
vt 0.494060 0.138236
vt 0.316404 0.098953
vt 0.316404 0.088325
vt 0.466835 0.088325
vt 0.466835 0.098953
vt 0.316403 0.138236
vt 0.466832 0.138236
vt 0.343629 0.098953
vt 0.343629 0.088325
vt 0.494057 0.088325
vt 0.494057 0.098953
vt 0.343630 0.138236
vt 0.343629 0.098953
vt 0.494058 0.098953
vt 0.494060 0.138236
vt 0.343630 0.098953
vt 0.343630 0.088325
vt 0.494060 0.088325
vt 0.494060 0.098953
vt 0.343629 0.138236
vt 0.494058 0.138236
vt 0.189801 0.098699
vt 0.184002 0.088704
vt 0.501166 0.088560
vt 0.495368 0.098794
vt 0.189801 0.138174
vt 0.189800 0.099015
vt 0.495370 0.098995
vt 0.495371 0.138194
vt 0.184001 0.098820
vt 0.189800 0.088543
vt 0.495372 0.088483
vt 0.501171 0.098865
vt 0.184001 0.138141
vt 0.501169 0.138147
vt 0.184002 0.098574
vt 0.189801 0.088579
vt 0.495368 0.088483
vt 0.501166 0.098717
vt 0.184002 0.138127
vt 0.184002 0.099062
vt 0.501169 0.099015
vt 0.501169 0.138174
vt 0.189800 0.098853
vt 0.184001 0.088712
vt 0.501170 0.088587
vt 0.495372 0.098894
vt 0.189800 0.138199
vt 0.495370 0.138194
vt 0.343416 0.098850
vt 0.495812 0.098916
vt 0.495808 0.138194
vt 0.343416 0.138148
vt 0.348746 0.098729
vt 0.343417 0.088616
vt 0.495806 0.088439
vt 0.490008 0.098794
vt 0.348748 0.138174
vt 0.348746 0.099015
vt 0.490009 0.098995
vt 0.490010 0.138194
vt 0.348747 0.088532
vt 0.490011 0.088483
vt 0.348673 0.098884
vt 0.489472 0.098894
vt 0.489469 0.138194
vt 0.348673 0.138197
vt 0.342875 0.098808
vt 0.348672 0.088524
vt 0.489468 0.088483
vt 0.495266 0.098754
vt 0.342875 0.138194
vt 0.342873 0.098995
vt 0.495268 0.099015
vt 0.495270 0.138174
vt 0.342876 0.088480
vt 0.495270 0.088520
vn -1.000000 0.000000 0.000000
vn -1.000000 0.000000 0.000000
vn -1.000000 0.000000 0.000000
vn -1.000000 0.000000 0.000000
vn 0.000000 -1.000000 0.000000
vn 0.000000 -1.000000 0.000000
vn 0.000000 -1.000000 0.000000
vn 0.000000 -1.000000 0.000000
vn 1.000000 0.000000 0.000000
vn 1.000000 0.000000 0.000000
vn 1.000000 0.000000 0.000000
vn 1.000000 0.000000 0.000000
vn 0.000000 1.000000 0.000000
vn 0.000000 1.000000 0.000000
vn 0.000000 1.000000 0.000000
vn 0.000000 1.000000 0.000000
vn -1.000000 0.000000 0.000000
vn -1.000000 0.000000 0.000000
vn -1.000000 0.000000 0.000000
vn -1.000000 0.000000 0.000000
vn 0.000000 -1.000000 0.000000
vn 0.000000 -1.000000 0.000000
vn 0.000000 -1.000000 0.000000
vn 0.000000 -1.000000 0.000000
vn 1.000000 0.000000 0.000000
vn 1.000000 0.000000 0.000000
vn 1.000000 0.000000 0.000000
vn 1.000000 0.000000 0.000000
vn 0.000000 1.000000 0.000000
vn 0.000000 1.000000 0.000000
vn 0.000000 1.000000 0.000000
vn 0.000000 1.000000 0.000000
vn -1.000000 0.000000 0.000000
vn -1.000000 0.000000 0.000000
vn -1.000000 0.000000 0.000000
vn -1.000000 0.000000 0.000000
vn 0.000000 -1.000000 0.000000
vn 0.000000 -1.000000 0.000000
vn 0.000000 -1.000000 0.000000
vn 0.000000 -1.000000 0.000000
vn 1.000000 0.000000 0.000000
vn 1.000000 0.000000 0.000000
vn 1.000000 0.000000 0.000000
vn 1.000000 0.000000 0.000000
vn 0.000000 1.000000 0.000000
vn 0.000000 1.000000 0.000000
vn 0.000000 1.000000 0.000000
vn 0.000000 1.000000 0.000000
vn -1.000000 0.000000 0.000000
vn -1.000000 0.000000 0.000000
vn -1.000000 0.000000 0.000000
vn -1.000000 0.000000 0.000000
vn 0.000000 -1.000000 0.000000
vn 0.000000 -1.000000 0.000000
vn 0.000000 -1.000000 0.000000
vn 0.000000 -1.000000 0.000000
vn 1.000000 0.000000 0.000000
vn 1.000000 0.000000 0.000000
vn 1.000000 0.000000 0.000000
vn 1.000000 0.000000 0.000000
vn 0.000000 1.000000 0.000000
vn 0.000000 1.000000 0.000000
vn 0.000000 1.000000 0.000000
vn 0.000000 1.000000 0.000000
vn -1.000000 0.000000 0.000000
vn -1.000000 0.000000 0.000000
vn -1.000000 0.000000 0.000000
vn -1.000000 0.000000 0.000000
vn 0.000000 -1.000000 0.000000
vn 0.000000 -1.000000 0.000000
vn 0.000000 -1.000000 0.000000
vn 0.000000 -1.000000 0.000000
vn 1.000000 0.000000 0.000000
vn 1.000000 0.000000 0.000000
vn 1.000000 0.000000 0.000000
vn 1.000000 0.000000 0.000000
vn 0.000000 1.000000 0.000000
vn 0.000000 1.000000 0.000000
vn 0.000000 1.000000 0.000000
vn 0.000000 1.000000 0.000000
vn -1.000000 0.000000 0.000000
vn -1.000000 0.000000 0.000000
vn -1.000000 0.000000 0.000000
vn -1.000000 0.000000 0.000000
vn 0.000000 -1.000000 0.000000
vn 0.000000 -1.000000 0.000000
vn 0.000000 -1.000000 0.000000
vn 0.000000 -1.000000 0.000000
vn 1.000000 0.000000 0.000000
vn 1.000000 0.000000 0.000000
vn 1.000000 0.000000 0.000000
vn 1.000000 0.000000 0.000000
vn 0.000000 1.000000 0.000000
vn 0.000000 1.000000 0.000000
vn 0.000000 1.000000 0.000000
vn 0.000000 1.000000 0.000000
vn -1.000000 0.000000 0.000000
vn -1.000000 0.000000 0.000000
vn -1.000000 0.000000 0.000000
vn -1.000000 0.000000 0.000000
vn 0.000000 -1.000000 0.000000
vn 0.000000 -1.000000 0.000000
vn 0.000000 -1.000000 0.000000
vn 0.000000 -1.000000 0.000000
vn 1.000000 0.000000 0.000000
vn 1.000000 0.000000 0.000000
vn 1.000000 0.000000 0.000000
vn 1.000000 0.000000 0.000000
vn 0.000000 1.000000 0.000000
vn 0.000000 1.000000 0.000000
vn 0.000000 1.000000 0.000000
vn 0.000000 1.000000 0.000000
vn -1.000000 0.000000 0.000000
vn -1.000000 0.000000 0.000000
vn -1.000000 0.000000 0.000000
vn -1.000000 0.000000 0.000000
vn 0.000000 -1.000000 0.000000
vn 0.000000 -1.000000 0.000000
vn 0.000000 -1.000000 0.000000
vn 0.000000 -1.000000 0.000000
vn 1.000000 0.000000 0.000000
vn 1.000000 0.000000 0.000000
vn 1.000000 0.000000 0.000000
vn 1.000000 0.000000 0.000000
vn 0.000000 1.000000 0.000000
vn 0.000000 1.000000 0.000000
vn 0.000000 1.000000 0.000000
vn 0.000000 1.000000 0.000000
vn -1.000000 0.000000 0.000000
vn -1.000000 0.000000 0.000000
vn -1.000000 0.000000 0.000000
vn -1.000000 0.000000 0.000000
vn 0.000000 -1.000000 0.000000
vn 0.000000 -1.000000 0.000000
vn 0.000000 -1.000000 0.000000
vn 0.000000 -1.000000 0.000000
vn 1.000000 0.000000 0.000000
vn 1.000000 0.000000 0.000000
vn 1.000000 0.000000 0.000000
vn 1.000000 0.000000 0.000000
vn 0.000000 1.000000 0.000000
vn 0.000000 1.000000 0.000000
vn 0.000000 1.000000 0.000000
vn 0.000000 1.000000 0.000000
vn -1.000000 0.000000 0.000000
vn -1.000000 0.000000 0.000000
vn -1.000000 0.000000 0.000000
vn -1.000000 0.000000 0.000000
vn 0.000000 -1.000000 0.000000
vn 0.000000 -1.000000 0.000000
vn 0.000000 -1.000000 0.000000
vn 0.000000 -1.000000 0.000000
vn 1.000000 0.000000 0.000000
vn 1.000000 0.000000 0.000000
vn 1.000000 0.000000 0.000000
vn 1.000000 0.000000 0.000000
vn 0.000000 1.000000 0.000000
vn 0.000000 1.000000 0.000000
vn 0.000000 1.000000 0.000000
vn 0.000000 1.000000 0.000000
vn -1.000000 0.000000 0.000000
vn -1.000000 0.000000 0.000000
vn -1.000000 0.000000 0.000000
vn -1.000000 0.000000 0.000000
vn 0.000000 -1.000000 0.000000
vn 0.000000 -1.000000 0.000000
vn 0.000000 -1.000000 0.000000
vn 0.000000 -1.000000 0.000000
vn 1.000000 0.000000 0.000000
vn 1.000000 0.000000 0.000000
vn 1.000000 0.000000 0.000000
vn 1.000000 0.000000 0.000000
vn 0.000000 1.000000 0.000000
vn 0.000000 1.000000 0.000000
vn 0.000000 1.000000 0.000000
vn 0.000000 1.000000 0.000000
vn 0.000000 1.000000 0.000000
vn 0.000000 1.000000 0.000000
vn 0.000000 1.000000 0.000000
vn 0.000000 1.000000 0.000000
vn 0.000000 0.000000 -1.000000
vn 0.000000 0.000000 -1.000000
vn 0.000000 0.000000 -1.000000
vn 0.000000 0.000000 -1.000000
vn 0.000000 -1.000000 0.000000
vn 0.000000 -1.000000 0.000000
vn 0.000000 -1.000000 0.000000
vn 0.000000 -1.000000 0.000000
vn 0.000000 0.000000 1.000000
vn 0.000000 0.000000 1.000000
vn 0.000000 0.000000 1.000000
vn 0.000000 0.000000 1.000000
vn 0.000000 1.000000 0.000000
vn 0.000000 1.000000 0.000000
vn 0.000000 1.000000 0.000000
vn 0.000000 1.000000 0.000000
vn 0.000000 0.000000 -1.000000
vn 0.000000 0.000000 -1.000000
vn 0.000000 0.000000 -1.000000
vn 0.000000 0.000000 -1.000000
vn 0.000000 -1.000000 0.000000
vn 0.000000 -1.000000 0.000000
vn 0.000000 -1.000000 0.000000
vn 0.000000 -1.000000 0.000000
vn -0.000764 0.000000 1.000000
vn -0.000764 0.000000 1.000000
vn -0.000764 0.000000 1.000000
vn -0.000764 0.000000 1.000000
vn -1.000000 0.000000 0.000000
vn -1.000000 0.000000 0.000000
vn -1.000000 0.000000 0.000000
vn -1.000000 0.000000 0.000000
vn 0.000000 1.000000 0.000000
vn 0.000000 1.000000 0.000000
vn 0.000000 1.000000 0.000000
vn 0.000000 1.000000 0.000000
vn 1.000000 0.000000 0.000000
vn 1.000000 0.000000 0.000000
vn 1.000000 0.000000 0.000000
vn 1.000000 0.000000 0.000000
vn 0.000000 -1.000000 0.000000
vn 0.000000 -1.000000 0.000000
vn 0.000000 -1.000000 0.000000
vn 0.000000 -1.000000 0.000000
vn -1.000000 0.000000 0.000000
vn -1.000000 0.000000 0.000000
vn -1.000000 0.000000 0.000000
vn -1.000000 0.000000 0.000000
vn 0.000000 1.000000 0.000000
vn 0.000000 1.000000 0.000000
vn 0.000000 1.000000 0.000000
vn 0.000000 1.000000 0.000000
vn 1.000000 0.000000 0.000000
vn 1.000000 0.000000 0.000000
vn 1.000000 0.000000 0.000000
vn 1.000000 0.000000 0.000000
vn 0.000000 -1.000000 0.000000
vn 0.000000 -1.000000 0.000000
vn 0.000000 -1.000000 0.000000
vn 0.000000 -1.000000 0.000000
s off
g polySurface26819
f 6/11/1 5/8/2 2/3/3 1/4/4
f 7/13/5 6/10/6 1/5/7 4/6/8
f 8/14/9 7/12/10 4/7/11 3/1/12
f 5/9/13 8/14/14 3/1/15 2/2/16
f 14/15/17 13/16/18 10/17/19 9/18/20
f 15/19/21 14/20/22 9/21/23 12/22/24
f 16/23/25 15/24/26 12/25/27 11/26/28
f 13/27/29 16/23/30 11/26/31 10/28/32
f 22/29/33 21/30/34 18/31/35 17/32/36
f 23/33/37 22/34/38 17/35/39 20/36/40
f 24/37/41 23/38/42 20/39/43 19/40/44
f 21/41/45 24/37/46 19/40/47 18/42/48
f 30/43/49 29/44/50 26/45/51 25/46/52
f 31/47/53 30/48/54 25/49/55 28/50/56
f 32/51/57 31/52/58 28/53/59 27/54/60
f 29/55/61 32/51/62 27/54/63 26/56/64
f 38/57/65 37/58/66 34/59/67 33/60/68
f 39/61/69 38/62/70 33/63/71 36/64/72
f 40/65/73 39/66/74 36/67/75 35/68/76
f 37/69/77 40/65/78 35/68/79 34/70/80
f 46/71/81 45/72/82 42/73/83 41/74/84
f 47/75/85 46/76/86 41/77/87 44/78/88
f 48/79/89 47/80/90 44/81/91 43/82/92
f 45/83/93 48/79/94 43/82/95 42/84/96
f 54/85/97 53/86/98 50/87/99 49/88/100
f 55/89/101 54/90/102 49/91/103 52/92/104
f 56/93/105 55/94/106 52/95/107 51/96/108
f 53/97/109 56/93/110 51/96/111 50/98/112
f 62/99/113 61/100/114 58/101/115 57/102/116
f 63/103/117 62/104/118 57/105/119 60/106/120
f 64/107/121 63/108/122 60/109/123 59/110/124
f 61/111/125 64/107/126 59/110/127 58/112/128
f 70/113/129 69/114/130 66/115/131 65/116/132
f 71/117/133 70/118/134 65/119/135 68/120/136
f 72/121/137 71/122/138 68/123/139 67/124/140
f 69/125/141 72/121/142 67/124/143 66/126/144
f 78/127/145 77/128/146 74/129/147 73/130/148
f 79/131/149 78/132/150 73/133/151 76/134/152
f 80/135/153 79/136/154 76/137/155 75/138/156
f 77/139/157 80/135/158 75/138/159 74/140/160
f 86/141/161 85/142/162 82/143/163 81/144/164
f 87/145/165 86/146/166 81/147/167 84/148/168
f 88/149/169 87/150/170 84/151/171 83/152/172
f 85/153/173 88/149/174 83/152/175 82/154/176
f 94/155/177 93/156/178 90/157/179 89/158/180
f 95/159/181 94/160/182 89/161/183 92/162/184
f 96/163/185 95/164/186 92/165/187 91/166/188
f 93/167/189 96/163/190 91/166/191 90/168/192
f 102/169/193 101/170/194 98/171/195 97/172/196
f 103/173/197 102/174/198 97/175/199 100/176/200
f 104/177/201 103/178/202 100/179/203 99/180/204
f 101/181/205 104/177/206 99/180/207 98/182/208
f 103/183/209 96/184/210 93/185/211 102/186/212
f 101/187/213 102/188/214 93/189/215 94/190/216
f 104/191/217 101/192/218 94/193/219 95/194/220
f 103/183/221 104/195/222 95/196/223 96/184/224
f 99/197/225 92/198/226 89/199/227 98/200/228
f 97/201/229 98/202/230 89/203/231 90/204/232
f 100/205/233 97/206/234 90/207/235 91/208/236
f 99/197/237 100/209/238 91/210/239 92/198/240
