# This file uses centimeters as units for non-parametric coordinates.

g default
v -29.579498 0.013989 0.003021
v -27.952423 0.013989 0.003021
v -29.579498 0.013989 -1.626199
v -27.952423 0.013989 -1.626199
v -26.327087 0.013989 0.003021
v -26.327087 0.013989 -1.626199
v -27.952423 0.013989 1.626199
v -26.327103 0.013989 1.626199
v -29.579498 0.013989 1.626199
v -26.327087 -0.078109 1.626199
v -27.952423 -0.078322 1.626199
v -29.579498 -0.078425 1.626199
v -26.327087 -0.078002 0.003021
v -26.327087 -0.078125 -1.626199
v -29.579498 -0.078477 0.003021
v -29.579498 -0.078441 -1.626199
v -27.952423 -0.078346 -1.626199
v -27.952423 -0.078322 0.003021
vt 0.006384 0.391100
vt 0.218582 0.391100
vt 0.006384 0.605683
vt 0.218582 0.605683
vt 0.006384 0.391100
vt 0.218582 0.391100
vt 0.218582 0.605683
vt 0.006384 0.605683
vt 0.006384 0.391100
vt 0.218582 0.391100
vt 0.218582 0.605683
vt 0.006384 0.605683
vt 0.006384 0.391100
vt 0.218582 0.391100
vt 0.218582 0.605683
vt 0.006384 0.605683
vt 0.006384 0.593524
vt 0.218582 0.593524
vt 0.218582 0.605683
vt 0.006384 0.605683
vt 0.006384 0.593524
vt 0.218582 0.593524
vt 0.218582 0.605683
vt 0.006384 0.605683
vt 0.006384 0.391100
vt 0.018339 0.391100
vt 0.018339 0.605683
vt 0.006384 0.605683
vt 0.006384 0.391100
vt 0.018339 0.391100
vt 0.018339 0.605683
vt 0.006384 0.605683
vt 0.206489 0.391100
vt 0.218582 0.391100
vt 0.218582 0.605683
vt 0.206489 0.605683
vt 0.206489 0.605683
vt 0.206489 0.391100
vt 0.218582 0.391100
vt 0.218582 0.605683
vt 0.006384 0.391100
vt 0.218582 0.391100
vt 0.218582 0.403309
vt 0.006384 0.403309
vt 0.006384 0.391100
vt 0.218582 0.391100
vt 0.218582 0.403309
vt 0.006384 0.403309
vt 0.006384 0.391100
vt 0.006384 0.605683
vt 0.218582 0.605683
vt 0.218582 0.391100
vt 0.006384 0.391100
vt 0.006384 0.605683
vt 0.218582 0.605683
vt 0.218582 0.391100
vt 0.006384 0.391100
vt 0.006384 0.605683
vt 0.218582 0.605683
vt 0.218582 0.391100
vt 0.006384 0.391100
vt 0.006384 0.605683
vt 0.218582 0.605683
vt 0.218582 0.391100
vn -0.000000 1.000000 0.000000
vn 0.000000 1.000000 -0.000000
vn 0.000000 1.000000 -0.000000
vn -0.000000 1.000000 -0.000000
vn 0.000000 1.000000 -0.000000
vn 0.000000 1.000000 -0.000000
vn 0.000000 1.000000 0.000000
vn 0.000000 1.000000 0.000000
vn -0.000000 1.000000 0.000000
vn 0.000000 0.000000 1.000000
vn 0.000000 0.000000 1.000000
vn 0.000000 0.000000 1.000000
vn 0.000000 0.000000 1.000000
vn -0.000000 0.000000 1.000000
vn -0.000000 0.000000 1.000000
vn 1.000000 0.000038 0.000002
vn 1.000000 0.000038 0.000002
vn 1.000000 0.000000 0.000000
vn 1.000000 0.000000 0.000000
vn 1.000000 0.000077 0.000005
vn 1.000000 0.000077 0.000005
vn -1.000000 0.000000 0.000000
vn -1.000000 0.000000 0.000000
vn -1.000000 0.000000 0.000000
vn -1.000000 0.000000 0.000000
vn -1.000000 0.000000 0.000000
vn -1.000000 0.000000 0.000000
vn 0.000000 0.000000 -1.000000
vn 0.000000 0.000000 -1.000000
vn 0.000000 0.000000 -1.000000
vn 0.000000 0.000000 -1.000000
vn -0.000000 0.000000 -1.000000
vn -0.000000 0.000000 -1.000000
vn 0.000078 -1.000000 0.000006
vn 0.000077 -1.000000 -0.000003
vn 0.000122 -1.000000 0.000021
vn 0.000122 -1.000000 0.000006
vn 0.000166 -1.000000 0.000045
vn 0.000165 -1.000000 0.000006
vn 0.000122 -1.000000 -0.000008
vn 0.000164 -1.000000 -0.000033
vn 0.000079 -1.000000 0.000016
s 1
g polySurface20755
f 1/1/1 2/2/2 4/4/3 3/3/4
f 2/5/2 5/6/5 6/7/6 4/8/3
f 7/9/7 8/10/8 5/11/5 2/12/2
f 9/13/9 7/14/7 2/15/2 1/16/1
s 2
f 11/17/10 10/18/11 8/19/12 7/20/13
f 12/21/14 11/22/10 7/23/13 9/24/15
s 3
f 5/25/16 13/26/17 14/27/18 6/28/19
f 8/29/20 10/30/21 13/31/17 5/32/16
s 4
f 12/33/22 9/34/23 1/35/24 15/36/25
f 16/37/26 15/38/25 1/39/24 3/40/27
s 5
f 4/41/28 6/42/29 14/43/30 17/44/31
f 3/45/32 4/46/28 17/47/31 16/48/33
s 6
f 15/49/34 16/50/35 17/51/36 18/52/37
f 18/53/37 17/54/36 14/55/38 13/56/39
f 11/57/40 18/58/37 13/59/39 10/60/41
f 12/61/42 15/62/34 18/63/37 11/64/40
