# This file uses centimeters as units for non-parametric coordinates.

g default
v -65.117302 -0.075022 -0.197733
v -64.710655 -0.075024 -0.197733
v -65.117302 -0.075022 0.197733
v -64.710655 -0.075024 0.197733
v -65.001534 2.522302 0.096139
v -64.826622 2.522301 0.096139
v -65.001534 2.522302 -0.073855
v -64.826622 2.522301 -0.073855
v -64.710686 0.330147 0.197733
v -65.117317 0.330149 0.197733
v -65.117317 0.330149 -0.197680
v -64.710686 0.330147 -0.197680
v -64.826553 0.333964 0.096140
v -65.001495 0.333966 0.096140
v -65.001495 0.333966 -0.073980
v -64.826553 0.333964 -0.073980
v -64.734657 0.128692 0.174409
v -65.093323 0.128694 0.174409
v -65.093323 0.128694 -0.174382
v -64.734657 0.128692 -0.174382
vt 0.946303 0.105463
vt 0.991419 0.105468
vt 0.946302 0.069330
vt 0.991419 0.069330
vt 0.503660 0.030047
vt 0.503660 0.068347
vt 0.993934 0.068347
vt 0.993931 0.030089
vt 0.993934 0.068347
vt 0.993931 0.030089
vt 0.503660 0.030047
vt 0.503660 0.068347
vt 0.503660 0.106657
vt 0.993931 0.106614
vt 0.503660 0.106657
vt 0.993931 0.106614
vt 0.946302 0.069330
vt 0.946303 0.105463
vt 0.991419 0.105468
vt 0.991419 0.069330
vt 0.579390 0.068347
vt 0.579389 0.106650
vt 0.579389 0.030054
vt 0.579390 0.068347
vt 0.579389 0.030054
vt 0.579389 0.106650
vt 0.580103 0.068347
vt 0.580103 0.106650
vt 0.580103 0.030054
vt 0.580103 0.068347
vt 0.580103 0.030054
vt 0.580103 0.106650
vt 0.541736 0.068347
vt 0.541736 0.106654
vt 0.541736 0.030051
vt 0.541736 0.068347
vt 0.541736 0.030051
vt 0.541736 0.106654
vn -0.000004 -1.000000 -0.000000
vn -0.000004 -1.000000 -0.000000
vn -0.000004 -1.000000 -0.000000
vn -0.000004 -1.000000 -0.000000
vn 0.000001 0.113753 0.993509
vn 0.000001 0.113753 0.993509
vn 0.000000 -0.000633 1.000000
vn 0.000000 -0.000633 1.000000
vn -0.000000 -0.000504 -1.000000
vn -0.000000 -0.000504 -1.000000
vn 0.000000 0.113882 -0.993494
vn 0.000000 0.113882 -0.993494
vn 0.993130 0.117020 0.000000
vn 0.993130 0.117020 0.000000
vn 1.000000 -0.000571 0.000000
vn 1.000000 -0.000571 0.000000
vn -0.993145 0.116889 0.000000
vn -0.993145 0.116889 0.000000
vn -1.000000 -0.000691 0.000000
vn -1.000000 -0.000691 0.000000
vn 0.000004 1.000000 0.000000
vn 0.000004 1.000000 0.000000
vn 0.000004 1.000000 0.000000
vn 0.000004 1.000000 0.000000
vn 0.000004 0.651066 0.759021
vn 0.000004 0.651066 0.759021
vn 0.000004 0.693705 0.720259
vn 0.000004 0.693705 0.720259
vn -0.758585 0.651574 0.000000
vn -0.758585 0.651574 0.000000
vn -0.718664 0.695358 0.000000
vn -0.718664 0.695358 0.000000
vn 0.000004 0.696137 -0.717909
vn 0.000004 0.696137 -0.717909
vn 0.000004 0.653656 -0.756792
vn 0.000004 0.653656 -0.756792
vn 0.758546 0.651619 0.000000
vn 0.758546 0.651619 0.000000
vn 0.718643 0.695379 0.000000
vn 0.718643 0.695379 0.000000
vn -0.000000 0.000000 1.000000
vn -0.000000 0.000000 1.000000
vn -1.000000 -0.000017 -0.000000
vn -1.000000 -0.000017 -0.000000
vn 0.000000 0.000057 -1.000000
vn 0.000000 0.000057 -1.000000
vn 1.000000 0.000031 0.000000
vn 1.000000 0.000031 0.000000
s off
g polySurface26875
f 3/3/1 1/1/2 2/2/3 4/4/4
s 2
f 3/5/5 4/6/6 17/33/7 18/35/8
s 3
f 19/36/9 20/37/10 2/11/11 1/12/12
s 4
f 4/6/13 2/13/14 20/38/15 17/33/16
s 5
f 1/12/17 3/15/18 18/34/19 19/36/20
s off
f 6/17/21 8/18/22 7/19/23 5/20/24
s 2
f 10/23/25 9/21/26 13/27/27 14/29/28
s 5
f 11/24/29 10/22/30 14/28/31 15/30/32
s 3
f 15/30/33 16/31/34 12/25/35 11/24/36
s 4
f 9/21/37 12/26/38 16/32/39 13/27/40
s 2
f 14/29/28 13/27/27 6/7/41 5/8/42
s 5
f 15/30/32 14/28/31 5/16/43 7/9/44
s 3
f 7/9/45 8/10/46 16/31/34 15/30/33
s 4
f 13/27/40 16/32/39 8/14/47 6/7/48
s 2
f 18/35/8 17/33/7 9/21/26 10/23/25
s 5
f 19/36/20 18/34/19 10/22/30 11/24/29
s 3
f 11/24/36 12/25/35 20/37/10 19/36/9
s 4
f 17/33/16 20/38/15 12/26/38 9/21/37
