# This file uses centimeters as units for non-parametric coordinates.

g default
v -114.155792 0.432279 -0.221501
v -114.377441 0.432282 -0.313450
v -114.377991 3.674991 -0.293051
v -114.172302 3.674984 -0.206855
v -114.599243 0.432285 -0.221631
v -114.583679 3.674999 -0.206856
v -114.691040 0.432287 0.000001
v -114.668549 3.675004 0.000468
v -114.599243 0.432285 0.221633
v -114.583679 3.674999 0.207791
v -114.377441 0.432282 0.313451
v -114.377991 3.674991 0.293986
v -114.155792 0.432279 0.221502
v -114.172302 3.674984 0.207791
v -114.064117 0.432279 0.000001
v -114.087433 3.674981 0.000468
v -114.376373 0.432139 0.000002
v -114.197723 6.746353 -0.179334
v -114.377472 6.746001 -0.254446
v -114.376984 6.745772 0.000883
v -114.557159 6.745642 -0.179339
v -114.631134 6.745490 0.000884
v -114.557159 6.745639 0.181108
v -114.377472 6.746002 0.256215
v -114.197723 6.746352 0.181102
v -114.123749 6.746494 0.000884
vt 0.014467 0.009572
vt 0.060725 0.009572
vt 0.060725 0.691967
vt 0.014467 0.691967
vt 0.106984 0.009572
vt 0.106984 0.691967
vt 0.153243 0.009572
vt 0.153243 0.691967
vt 0.199501 0.009572
vt 0.199501 0.691967
vt 0.245760 0.009572
vt 0.245760 0.691967
vt 0.292019 0.009572
vt 0.292019 0.691967
vt 0.338277 0.009572
vt 0.338277 0.691967
vt 0.384536 0.009572
vt 0.384536 0.691967
vt 0.899160 0.160626
vt 0.961430 0.186419
vt 0.899160 0.245167
vt 0.836890 0.186419
vt 0.811097 0.248689
vt 0.836890 0.310959
vt 0.899160 0.336753
vt 0.961430 0.310959
vt 0.987223 0.248689
vt 0.959233 0.539849
vt 0.896963 0.565642
vt 0.896963 0.474057
vt 0.834693 0.539849
vt 0.808900 0.477579
vt 0.834693 0.415309
vt 0.896963 0.389516
vt 0.959233 0.415309
vt 0.985026 0.477579
vt 0.647478 0.009572
vt 0.693736 0.009572
vt 0.693736 0.691930
vt 0.647478 0.691930
vt 0.601219 0.009572
vt 0.601219 0.691930
vt 0.554960 0.009572
vt 0.554960 0.691930
vt 0.508702 0.009572
vt 0.508702 0.691930
vt 0.462443 0.009572
vt 0.462443 0.691930
vt 0.416185 0.009572
vt 0.416185 0.691930
vt 0.739995 0.009572
vt 0.786254 0.009572
vt 0.786254 0.691930
vt 0.739995 0.691930
vn 0.713010 -0.015353 -0.700986
vn 0.000204 0.003573 -0.999994
vn 0.000235 0.006309 -0.999980
vn 0.718895 -0.012459 -0.695008
vn 0.000204 0.003573 -0.999994
vn -0.712640 0.025408 -0.701070
vn -0.718420 0.027669 -0.695059
vn 0.000235 0.006309 -0.999980
vn -0.712640 0.025408 -0.701070
vn -0.999388 0.034993 0.000002
vn -0.999325 0.036743 0.000001
vn -0.718420 0.027669 -0.695059
vn -0.999388 0.034993 0.000002
vn -0.712643 0.025205 0.701074
vn -0.718425 0.027475 0.695062
vn -0.999325 0.036743 0.000001
vn -0.712643 0.025205 0.701074
vn 0.000202 0.003284 0.999995
vn 0.000229 0.006029 0.999982
vn -0.718425 0.027475 0.695062
vn 0.000202 0.003284 0.999995
vn 0.713007 -0.015556 0.700985
vn 0.718891 -0.012654 0.695007
vn 0.000229 0.006029 0.999982
vn 0.713007 -0.015556 0.700985
vn 0.999754 -0.022165 0.000000
vn 0.999818 -0.019075 -0.000001
vn 0.718891 -0.012654 0.695007
vn 0.999754 -0.022165 0.000000
vn 0.713010 -0.015353 -0.700986
vn 0.718895 -0.012459 -0.695008
vn 0.999818 -0.019075 -0.000001
vn -0.001247 -0.998993 -0.044852
vn 0.030719 -0.999024 -0.031745
vn -0.001181 -0.999999 -0.000006
vn -0.033079 -0.998953 -0.031619
vn -0.001247 -0.998993 -0.044852
vn -0.001181 -0.999999 -0.000006
vn -0.046172 -0.998933 -0.000006
vn -0.033079 -0.998953 -0.031619
vn -0.001181 -0.999999 -0.000006
vn -0.033080 -0.998953 0.031606
vn -0.046172 -0.998933 -0.000006
vn -0.001181 -0.999999 -0.000006
vn -0.001247 -0.998993 0.044839
vn -0.033080 -0.998953 0.031606
vn -0.001181 -0.999999 -0.000006
vn 0.030720 -0.999024 0.031733
vn -0.001247 -0.998993 0.044839
vn -0.001181 -0.999999 -0.000006
vn 0.043947 -0.999034 -0.000006
vn 0.030720 -0.999024 0.031733
vn -0.001181 -0.999999 -0.000006
vn 0.030719 -0.999024 -0.031745
vn 0.043947 -0.999034 -0.000006
vn -0.001181 -0.999999 -0.000006
vn 0.080397 0.996596 -0.018248
vn 0.061459 0.997780 -0.025668
vn 0.061491 0.998108 0.000003
vn 0.061459 0.997780 -0.025668
vn 0.042545 0.998928 -0.018266
vn 0.061491 0.998108 0.000003
vn 0.042545 0.998928 -0.018266
vn 0.034463 0.999406 0.000007
vn 0.061491 0.998108 0.000003
vn 0.034463 0.999406 0.000007
vn 0.042543 0.998928 0.018276
vn 0.061491 0.998108 0.000003
vn 0.042543 0.998928 0.018276
vn 0.061456 0.997780 0.025674
vn 0.061491 0.998108 0.000003
vn 0.061456 0.997780 0.025674
vn 0.080395 0.996596 0.018252
vn 0.061491 0.998108 0.000003
vn 0.080395 0.996596 0.018252
vn 0.088503 0.996076 0.000000
vn 0.061491 0.998108 0.000003
vn 0.088503 0.996076 0.000000
vn 0.080397 0.996596 -0.018248
vn 0.061491 0.998108 0.000003
vn 0.000229 0.006029 0.999982
vn 0.718891 -0.012654 0.695007
vn 0.724718 -0.009753 0.688977
vn 0.000256 0.008794 0.999961
vn -0.718425 0.027475 0.695062
vn 0.000229 0.006029 0.999982
vn 0.000256 0.008794 0.999961
vn -0.724152 0.029742 0.688999
vn -0.999325 0.036743 0.000001
vn -0.718425 0.027475 0.695062
vn -0.724152 0.029742 0.688999
vn -0.999259 0.038482 -0.000001
vn -0.718420 0.027669 -0.695059
vn -0.999325 0.036743 0.000001
vn -0.999259 0.038482 -0.000001
vn -0.724144 0.029928 -0.688999
vn 0.000235 0.006309 -0.999980
vn -0.718420 0.027669 -0.695059
vn -0.724144 0.029928 -0.688999
vn 0.000265 0.009065 -0.999959
vn 0.718895 -0.012459 -0.695008
vn 0.000235 0.006309 -0.999980
vn 0.000265 0.009065 -0.999959
vn 0.724721 -0.009565 -0.688976
vn 0.999818 -0.019075 -0.000001
vn 0.718895 -0.012459 -0.695008
vn 0.724721 -0.009565 -0.688976
vn 0.999872 -0.016004 -0.000001
vn 0.718891 -0.012654 0.695007
vn 0.999818 -0.019075 -0.000001
vn 0.999872 -0.016004 -0.000001
vn 0.724718 -0.009753 0.688977
s off
g polySurface20232
f 1/1/1 2/2/2 3/3/3 4/4/4
f 2/2/5 5/5/6 6/6/7 3/3/8
f 5/5/9 7/7/10 8/8/11 6/6/12
f 7/7/13 9/9/14 10/10/15 8/8/16
f 9/9/17 11/11/18 12/12/19 10/10/20
f 11/11/21 13/13/22 14/14/23 12/12/24
f 13/13/25 15/15/26 16/16/27 14/14/28
f 15/15/29 1/17/30 4/18/31 16/16/32
f 2/19/33 1/20/34 17/21/35
f 5/22/36 2/19/37 17/21/38
f 7/23/39 5/22/40 17/21/41
f 9/24/42 7/23/43 17/21/44
f 11/25/45 9/24/46 17/21/47
f 13/26/48 11/25/49 17/21/50
f 15/27/51 13/26/52 17/21/53
f 1/20/54 15/27/55 17/21/56
f 18/28/57 19/29/58 20/30/59
f 19/29/60 21/31/61 20/30/62
f 21/31/63 22/32/64 20/30/65
f 22/32/66 23/33/67 20/30/68
f 23/33/69 24/34/70 20/30/71
f 24/34/72 25/35/73 20/30/74
f 25/35/75 26/36/76 20/30/77
f 26/36/78 18/28/79 20/30/80
f 12/37/81 14/38/82 25/39/83 24/40/84
f 10/41/85 12/37/86 24/40/87 23/42/88
f 8/43/89 10/41/90 23/42/91 22/44/92
f 6/45/93 8/43/94 22/44/95 21/46/96
f 3/47/97 6/45/98 21/46/99 19/48/100
f 4/49/101 3/47/102 19/48/103 18/50/104
f 16/51/105 4/52/106 18/53/107 26/54/108
f 14/38/109 16/51/110 26/54/111 25/39/112
