# This file uses centimeters as units for non-parametric coordinates.

v -126.378288 0.001522 -1.043208
v -124.377960 0.001522 -1.043202
v -126.378296 0.001522 0.956821
v -124.378845 0.001522 0.864958
v -124.377747 0.972642 -1.043202
v -126.378296 0.972642 0.956821
v -124.378845 0.972642 0.864958
v -126.378288 0.972642 -1.043212
v -124.296021 0.972596 1.043054
v -124.296021 1.036734 1.043054
v -124.296021 1.036734 0.696230
v -124.296021 0.972596 0.696230
v -124.650238 1.037495 0.696230
v -124.646851 0.972600 1.043129
v -124.650238 1.037493 1.043129
v -124.649597 1.037303 -1.043204
v -124.296120 1.037114 -1.043204
v -124.296120 0.972598 -1.043204
v -124.405884 0.972606 -1.043209
v -124.409485 0.972596 0.696230
v -124.647430 0.972600 0.918443
v -124.406036 0.972604 0.922197
v -126.378288 1.037493 1.043212
v -126.378288 0.972600 1.043212
v -126.378296 1.037872 0.695795
v -126.378304 0.972604 0.919343
v -126.378304 1.037999 -1.043169
v -126.378288 0.972600 0.699053
v -126.378304 0.972602 -1.043146
v -124.649658 0.972596 -1.043200
v -124.464020 0.972642 0.956821
v -124.464020 0.001522 0.956821
v -124.401154 0.972642 0.927336
v -124.401154 0.001522 0.927336
vt 0.000000 0.322036
vt 0.000000 1.000000
vt 0.678011 1.000000
vt 0.678011 0.322036
vt 0.677156 0.001086
vt 0.000855 0.001086
vt 0.000855 0.001086
vt 0.677156 0.001086
vt 0.677156 0.317870
vt 0.000855 0.317870
vt 0.000855 0.317870
vt 0.677156 0.317870
vt 0.677156 0.001086
vt 0.000855 0.001086
vt 0.000855 0.317870
vt 0.677156 0.317870
vt 0.000855 0.001086
vt 0.677156 0.001086
vt 0.677156 0.317870
vt 0.000855 0.317870
vt 0.903585 0.065745
vt 0.932815 0.065745
vt 0.932817 0.249916
vt 0.903655 0.250496
vt 0.903585 0.036422
vt 0.734896 0.036422
vt 0.734896 0.007293
vt 0.903585 0.007293
vt 0.734925 0.250108
vt 0.734896 0.065745
vt 0.903585 0.984793
vt 0.734896 0.984262
vt 0.932815 0.984888
vt 0.961182 0.242181
vt 0.961229 0.984982
vt 0.961229 0.065745
vt 0.903585 0.984793
vt 0.734896 0.984262
vt 0.734925 0.250108
vt 0.903655 0.250496
vt 0.932817 0.249916
vt 0.961182 0.242181
vt 0.961229 0.984982
vt 0.932815 0.984888
vt 0.000000 0.321078
vt 0.677219 0.321078
vt 0.677219 1.000000
vt 0.000000 1.000000
vt 0.734896 0.065745
vt 0.734896 0.036422
vt 0.903585 0.036422
vt 0.903585 0.065745
vt 0.903655 0.250496
vt 0.932817 0.249916
vt 0.932815 0.984888
vt 0.903585 0.984793
vt 0.734896 0.065745
vt 0.734896 0.036422
vt 0.903585 0.036422
vt 0.903585 0.065745
vt 0.903655 0.250496
vt 0.932817 0.249916
vt 0.932815 0.984888
vt 0.903585 0.984793
vt 0.903585 0.065745
vt 0.932815 0.065745
vt 0.932817 0.249916
vt 0.903655 0.250496
vt 0.903585 0.984793
vt 0.932815 0.984888
vt 0.637261 0.317870
vt 0.637261 0.001086
vt 0.039996 1.000000
vt 0.657708 0.317870
vt 0.657708 0.001086
vt 0.019498 1.000000
vn 0.985246 -0.000058 0.171142
vn 1.000000 -0.000115 0.000520
vn 1.000000 -0.000115 0.000520
vn 0.985246 -0.000058 0.171142
vn 0.739915 0.000000 0.672700
vn 0.739915 0.000000 0.672700
vn -1.000000 0.000000 -0.000004
vn -1.000000 0.000000 -0.000004
vn -1.000000 0.000000 -0.000004
vn -1.000000 0.000000 -0.000004
vn 0.000004 -0.000002 -1.000000
vn 0.000004 -0.000002 -1.000000
vn 0.000004 -0.000002 -1.000000
vn 0.000004 -0.000002 -1.000000
vn 1.000000 0.000000 0.000000
vn 1.000000 0.000000 0.000000
vn 1.000000 0.000000 -0.000029
vn 1.000000 0.000000 -0.000029
vn -0.000023 -1.000000 -0.000010
vn -0.000000 -1.000000 -0.000026
vn -0.000000 -1.000000 -0.000026
vn -0.000023 -1.000000 -0.000010
vn 0.000977 1.000000 0.000147
vn 0.001127 0.999999 0.000276
vn 0.002146 0.999998 0.000003
vn 0.001745 0.999999 0.000028
vn 0.001344 0.999999 0.000054
vn 0.000827 1.000000 0.000018
vn 1.000000 0.000000 -0.000057
vn 1.000000 0.000000 -0.000057
vn -0.000042 -1.000000 0.000006
vn -0.000042 -1.000000 0.000006
vn -0.000038 -1.000000 -0.000004
vn -0.000038 -1.000000 -0.000004
vn 0.000210 1.000000 0.000265
vn 0.000109 1.000000 0.000550
vn -0.000001 -1.000000 -0.000017
vn -0.000001 -1.000000 -0.000017
vn 0.000310 1.000000 -0.000019
vn 0.000131 0.000003 1.000000
vn 0.000131 0.000003 1.000000
vn 0.000213 0.000006 1.000000
vn 0.000213 0.000006 1.000000
vn 0.000048 0.000001 1.000000
vn 0.000048 0.000001 1.000000
vn -1.000000 -0.000085 0.000009
vn -1.000000 -0.000085 0.000009
vn -1.000000 -0.000170 0.000011
vn -1.000000 -0.000170 0.000011
vn -1.000000 0.000000 0.000007
vn -1.000000 0.000000 0.000007
vn -0.000006 -0.000036 -1.000000
vn -0.000006 -0.000036 -1.000000
vn -0.000016 -0.000125 -1.000000
vn -0.000016 -0.000125 -1.000000
vn -0.000026 -0.000213 -1.000000
vn -0.000026 -0.000213 -1.000000
vn 0.000000 0.000000 1.000000
vn 0.000000 0.000000 1.000000
vn 0.217522 0.000000 0.976055
vn 0.217522 0.000000 0.976055
vn 0.000000 -1.000000 0.000000
vn 0.000000 -1.000000 0.000000
vn 0.000000 -1.000000 0.000000
vn 0.000000 -1.000000 0.000000
vn 0.000000 -1.000000 0.000000
vn 0.000000 -1.000000 0.000000
vn 0.000000 -1.000000 -0.000000
vn 0.000000 -1.000000 -0.000000
vn 0.000000 -1.000000 -0.000000
vn 0.000000 -1.000000 0.000000
vn 0.000000 -1.000000 0.000000
vn 0.000000 -1.000000 0.000000
s 1
g polySurface26827
f 4/7/1 2/8/2 5/9/3 7/10/4
f 33/74/5 34/75/6 4/5/1 7/12/4
s off
f 8/15/7 1/14/8 3/13/9 6/16/10
f 8/19/11 5/20/12 2/17/13 1/18/14
s 4
f 10/21/15 9/22/16 12/23/17 11/24/18
s 5
f 9/25/19 14/26/20 21/27/21 22/28/22
s 6
f 13/29/23 15/30/24 10/21/25 11/24/26
f 17/31/27 16/32/28 13/29/23 11/24/26
s 4
f 11/24/18 12/23/17 18/33/29 17/31/30
s 5
f 12/23/31 20/34/32 19/35/33 18/33/34
f 12/23/31 9/22/19 22/36/22 20/34/32
s 6
f 15/37/24 13/38/23 25/39/35 23/40/36
s 5
f 24/41/37 26/42/38 21/43/21 14/44/20
s 6
f 25/45/35 13/46/23 16/47/28 27/48/39
s 7
f 15/49/40 14/50/41 9/51/42 10/52/43
f 23/53/44 24/54/45 14/55/41 15/56/40
s 8
f 25/57/46 28/58/47 24/59/48 23/60/49
f 27/61/50 29/62/51 28/63/47 25/64/46
s 9
f 17/65/52 18/66/53 30/67/54 16/68/55
f 16/68/55 30/67/54 29/70/56 27/69/57
s 1
f 6/11/58 3/6/59 32/72/60 31/71/61
f 31/71/61 32/72/60 34/75/6 33/74/5
s off
f 1/4/62 32/73/63 3/3/64
f 34/76/65 32/73/66 1/4/67
f 34/76/68 1/4/69 4/2/70
f 2/1/71 4/2/72 1/4/73
