# This file uses centimeters as units for non-parametric coordinates.

v -124.343445 1.047588 -1.021910
v -124.343903 1.047588 1.021613
v -126.377739 1.047588 -1.021910
v -126.378189 1.047588 1.021910
v -124.343445 -0.006707 -1.021910
v -124.343903 -0.006707 1.021613
v -126.377739 -0.006707 -1.021910
v -126.378189 -0.006707 1.021910
vt 0.677477 1.000277
vt 0.677328 0.317147
vt 0.677328 0.317147
vt 0.677477 0.320938
vt 0.677328 0.317147
vt 0.020353 0.317147
vt 0.000703 1.000277
vt 0.677328 0.317147
vt 0.015306 0.317147
vt 0.000703 0.320938
vt 0.020746 0.317147
vt 0.015306 0.317147
vt 0.677477 1.000277
vt 0.677328 0.013987
vt 0.677328 0.013987
vt 0.677477 0.320938
vt 0.677328 0.013987
vt 0.020353 0.013987
vt 0.000703 1.000277
vt 0.677328 0.013987
vt 0.015306 0.013987
vt 0.000703 0.320938
vt 0.020746 0.013987
vt 0.015306 0.013987
vn 0.000146 0.000000 1.000000
vn 0.000146 0.000000 1.000000
vn 0.000146 0.000000 1.000000
vn 0.000146 0.000000 1.000000
vn 1.000000 0.000000 0.000224
vn 1.000000 0.000000 0.000224
vn 1.000000 0.000000 0.000224
vn 1.000000 0.000000 0.000224
vn 0.000000 1.000000 0.000000
vn 0.000000 1.000000 0.000000
vn 0.000000 1.000000 0.000000
vn 0.000000 1.000000 0.000000
vn 0.000000 0.000000 -1.000000
vn 0.000000 0.000000 -1.000000
vn 0.000000 0.000000 -1.000000
vn 0.000000 0.000000 -1.000000
vn -1.000000 0.000000 -0.000220
vn -1.000000 0.000000 -0.000220
vn -1.000000 0.000000 -0.000220
vn -1.000000 0.000000 -0.000220
vn 0.000000 -1.000000 0.000000
vn 0.000000 -1.000000 0.000000
vn 0.000000 -1.000000 0.000000
vn 0.000000 -1.000000 0.000000
s off
g polySurface26834
f 2/5/1 4/12/2 8/24/3 6/17/4
f 1/3/5 2/6/6 6/18/7 5/15/8
f 2/4/9 1/1/10 3/7/11 4/10/12
f 1/2/13 5/14/14 7/21/15 3/9/16
f 3/8/17 7/20/18 8/23/19 4/11/20
f 6/16/21 8/22/22 7/19/23 5/13/24
