# This file uses centimeters as units for non-parametric coordinates.

v -129.452606 0.001522 -1.043409
v -129.452606 0.001522 0.957002
v -129.452606 0.972618 0.957001
v -127.453125 0.001522 -1.043255
v -127.453125 0.001522 0.957001
v -127.453125 0.972618 -1.043328
v -127.453125 0.972618 0.957001
v -129.452606 0.972618 -1.043361
v -127.453125 0.972620 1.043327
v -127.453125 1.037493 1.043327
v -127.453125 1.037493 0.696642
v -127.453125 0.972620 0.696794
v -127.453125 1.037746 -1.042999
v -127.453125 0.972619 -1.043110
v -127.453125 0.972619 0.919648
v -129.452606 1.037493 1.043409
v -129.452606 0.972619 1.043409
v -129.452606 1.037967 0.696718
v -129.452606 0.972619 0.921472
v -129.452606 1.038378 -1.043022
v -129.452606 0.972619 0.699617
v -129.452606 0.972619 -1.043139
vt 0.000000 0.322036
vt 0.000000 1.000000
vt 0.678011 1.000000
vt 0.678011 0.322036
vt 0.000855 0.317870
vt 0.000855 0.001086
vt 0.677156 0.001086
vt 0.000855 0.001086
vt 0.677156 0.001086
vt 0.677156 0.317870
vt 0.000855 0.317870
vt 0.677156 0.317870
vt 0.677156 0.001086
vt 0.000855 0.001086
vt 0.000855 0.317870
vt 0.677156 0.317870
vt 0.000855 0.001086
vt 0.677156 0.001086
vt 0.677156 0.317870
vt 0.000855 0.317870
vt 0.903585 0.065745
vt 0.932815 0.065745
vt 0.932817 0.249916
vt 0.903655 0.250496
vt 0.903585 0.984793
vt 0.932815 0.984888
vt 0.903585 0.984793
vt 0.734896 0.984262
vt 0.734925 0.250108
vt 0.903655 0.250496
vt 0.932817 0.249916
vt 0.961182 0.242181
vt 0.961229 0.984982
vt 0.932815 0.984888
vt 0.000000 0.321078
vt 0.677219 0.321078
vt 0.677219 1.000000
vt 0.000000 1.000000
vt 0.903655 0.250496
vt 0.932817 0.249916
vt 0.932815 0.984888
vt 0.903585 0.984793
vt 0.734896 0.065745
vt 0.734896 0.036422
vt 0.903585 0.036422
vt 0.903585 0.065745
vt 0.903655 0.250496
vt 0.932817 0.249916
vt 0.932815 0.984888
vt 0.903585 0.984793
vt 0.903585 0.984793
vt 0.903655 0.250496
vt 0.932817 0.249916
vt 0.932815 0.984888
vn 0.000000 -1.000000 0.000000
vn 0.000000 -1.000000 0.000000
vn 0.000000 -1.000000 0.000000
vn 0.000000 -1.000000 0.000000
vn 0.000000 0.000000 1.000000
vn 0.000000 0.000000 1.000000
vn 0.000000 0.000000 1.000000
vn 0.000000 0.000000 1.000000
vn 1.000000 0.000000 0.000000
vn 1.000000 0.000000 0.000000
vn 1.000000 0.000000 0.000000
vn 1.000000 0.000000 0.000000
vn -1.000000 0.000016 0.000000
vn -1.000000 0.000016 0.000000
vn -1.000000 0.000016 0.000000
vn -1.000000 0.000016 0.000000
vn 0.000047 -0.000013 -1.000000
vn 0.000047 -0.000013 -1.000000
vn 0.000047 -0.000013 -1.000000
vn 0.000047 -0.000013 -1.000000
vn 1.000000 0.000000 0.000000
vn 1.000000 0.000000 0.000000
vn 1.000000 0.000000 0.000000
vn 1.000000 0.000000 0.000000
vn 1.000000 0.000000 0.000000
vn 1.000000 0.000000 0.000000
vn 0.000119 1.000000 0.000684
vn 0.000198 1.000000 0.000437
vn 0.000198 1.000000 0.000437
vn 0.000119 1.000000 0.000684
vn 0.000000 -1.000000 0.000002
vn 0.000000 -1.000000 0.000002
vn 0.000000 -1.000000 0.000002
vn 0.000000 -1.000000 0.000002
vn 0.000277 1.000000 0.000191
vn 0.000277 1.000000 0.000191
vn 0.000041 0.000000 1.000000
vn 0.000041 0.000000 1.000000
vn 0.000041 0.000000 1.000000
vn 0.000041 0.000000 1.000000
vn -1.000000 0.000000 0.000000
vn -1.000000 0.000000 0.000000
vn -1.000000 0.000000 0.000000
vn -1.000000 0.000000 0.000000
vn -1.000000 0.000000 0.000000
vn -1.000000 0.000000 0.000000
vn 0.000013 0.001743 -0.999999
vn 0.000013 0.001743 -0.999999
vn 0.000013 0.001743 -0.999999
vn 0.000013 0.001743 -0.999999
s off
g polySurface26828
f 4/1/1 5/2/2 2/3/3 1/4/4
f 3/5/5 2/6/6 5/7/7 7/12/8
f 5/8/9 4/9/10 6/10/11 7/11/12
f 8/15/13 1/14/14 2/13/15 3/16/16
f 8/19/17 6/20/18 4/17/19 1/18/20
s 6
f 10/21/21 9/22/22 12/23/23 11/24/24
f 11/24/24 12/23/23 14/26/25 13/25/26
s 7
f 10/27/27 11/28/28 18/29/29 16/30/30
s off
f 17/31/31 19/32/32 15/33/33 9/34/34
s 7
f 18/35/29 11/36/28 13/37/35 20/38/36
s off
f 16/39/37 17/40/38 9/41/39 10/42/40
s 10
f 18/43/41 21/44/42 17/45/43 16/46/44
f 20/47/45 22/48/46 21/49/42 18/50/41
s off
f 13/52/47 14/53/48 22/54/49 20/51/50
