# Blender v2.92.0 OBJ File: 'quaternius_OGConvert.blend'
# www.blender.org
o Cupcake_Cylinder.006
v -0.000000 0.590773 -0.317779
v -0.000000 0.696924 -0.292490
v 0.206822 0.696924 -0.206822
v 0.224704 0.590773 -0.224704
v 0.235286 0.551831 -0.215707
v -0.224704 0.590773 -0.224704
v -0.206822 0.696924 -0.206822
v -0.000000 0.777420 -0.244827
v 0.174956 0.777420 -0.172358
v 0.317779 0.566355 -0.000000
v -0.215707 0.548973 -0.215707
v -0.000000 0.558365 -0.311477
v -0.292490 0.651973 0.000000
v -0.174956 0.777420 -0.172357
v 0.292490 0.651973 -0.000000
v 0.247425 0.739395 0.002598
v -0.000000 0.844303 -0.150482
v 0.112328 0.844303 -0.103955
v 0.315782 0.558365 -0.000000
v -0.315782 0.558365 0.000000
v -0.317779 0.566355 0.000000
v -0.247425 0.739395 0.002598
v -0.112328 0.844303 -0.103955
v 0.206822 0.624710 0.206822
v 0.174956 0.716332 0.177554
v 0.158856 0.819889 0.008374
v 0.224704 0.551544 0.224704
v -0.206822 0.624710 0.206822
v -0.174956 0.716332 0.177554
v -0.158856 0.819889 0.008374
v 0.000000 0.584712 0.292490
v 0.000000 0.682497 0.250023
v 0.112328 0.805082 0.120702
v -0.219101 0.525344 0.219101
v -0.224704 0.551544 0.224704
v -0.112328 0.805082 0.120702
v 0.000000 0.558365 0.306476
v 0.000000 0.783359 0.167230
v -0.122884 0.541699 0.266879
v -0.000000 0.547286 0.306476
v -0.024059 0.991255 0.091639
v 0.009159 0.853415 0.083480
v 0.000000 0.852185 0.087482
v -0.002872 0.852571 0.086227
v -0.020143 0.949793 -0.018156
v 0.003520 0.949793 -0.008355
v -0.043807 0.949793 -0.008355
v 0.013322 0.944650 0.015309
v -0.053609 0.944650 0.015309
v 0.003520 0.941531 0.038972
v -0.043807 0.941531 0.038972
v -0.020143 0.936954 0.048774
v 0.001825 0.877029 0.078894
v -0.051853 0.887410 0.056659
v 0.055504 0.887410 0.056659
v -0.074087 0.894486 0.002981
v 0.077738 0.894486 0.002981
v -0.051853 0.906152 -0.050697
v 0.055504 0.906152 -0.050697
v 0.001825 0.906152 -0.072931
v -0.000000 0.008339 -0.178354
v -0.000000 0.481770 -0.295835
v 0.209187 0.453399 -0.209187
v 0.126115 0.008339 -0.126116
v -0.126116 0.008339 -0.126115
v 0.178354 0.008339 -0.000000
v 0.126115 0.008339 0.126115
v -0.000000 0.008339 0.178354
v -0.126116 0.008339 0.126115
v -0.178354 0.008339 0.000000
v 0.295835 0.481770 -0.000000
v -0.209187 0.453399 -0.209187
v 0.209187 0.453399 0.209187
v -0.000000 0.481770 0.295835
v -0.209187 0.453399 0.209187
v -0.295835 0.481770 0.000000
v -0.000000 0.733558 -0.244256
v 0.173634 0.733558 -0.172335
v -0.173634 0.733558 -0.172335
v 0.245555 0.695820 0.001299
v -0.245555 0.695820 0.001299
v 0.173634 0.672932 0.174933
v -0.173634 0.672932 0.174933
v 0.000000 0.639352 0.246855
v 0.001426 0.641836 -0.285611
v 0.204355 0.641836 -0.201555
v -0.201503 0.641836 -0.201555
v 0.288411 0.609214 0.001374
v -0.285559 0.609214 0.001374
v 0.204355 0.589428 0.204303
v -0.201503 0.589428 0.204303
v 0.001426 0.577829 0.280919
vt 0.311875 0.412445
vt 0.219052 0.424348
vt 0.224088 0.392023
vt 0.456374 0.275630
vt 0.565304 0.199464
vt 0.574348 0.220755
vt 0.202590 0.442851
vt 0.272159 0.485711
vt 0.196473 0.468104
vt 0.095875 0.368542
vt 0.101697 0.343895
vt 0.464321 0.310378
vt 0.355366 0.276623
vt 0.440370 0.220766
vt 0.532899 0.155418
vt 0.541313 0.173813
vt 0.092275 0.420896
vt 0.099179 0.396001
vt 0.584135 0.077494
vt 0.486911 0.107258
vt 0.519806 0.057228
vt 0.458821 0.797834
vt 0.590822 0.844035
vt 0.447640 0.842901
vt 0.997303 0.008261
vt 0.970257 0.083850
vt 0.971975 0.002697
vt 0.431188 0.202729
vt 0.016504 0.389467
vt 0.023981 0.364809
vt 0.097023 0.471002
vt 0.006303 0.331389
vt 0.012882 0.311460
vt 0.446493 0.847600
vt 0.581322 0.879554
vt 0.450897 0.872098
vt 0.995597 0.088801
vt 0.960872 0.196463
vt 0.366945 0.140866
vt 0.421608 0.137634
vt 0.666151 0.359088
vt 0.691064 0.468489
vt 0.666151 0.472103
vt 0.744964 0.505520
vt 0.749486 0.591891
vt 0.680782 0.583204
vt 0.986284 0.200563
vt 0.971975 0.279265
vt 0.869777 0.770751
vt 0.806150 0.712303
vt 0.870828 0.712303
vt 0.750879 0.664779
vt 0.682950 0.696730
vt 0.877085 0.222602
vt 0.895948 0.294034
vt 0.859439 0.229776
vt 0.769038 0.770751
vt 0.637188 0.856531
vt 0.590299 0.859997
vt 0.667239 0.500126
vt 0.666151 0.498627
vt 0.667239 0.492820
vt 0.818412 0.631813
vt 0.855838 0.613104
vt 0.856131 0.628459
vt 0.817747 0.596982
vt 0.864519 0.602597
vt 0.138967 0.533205
vt 0.107199 0.549320
vt 0.106997 0.518721
vt 0.448556 0.064117
vt 0.418239 0.031449
vt 0.464276 0.040209
vt 0.844825 0.654524
vt 0.867775 0.638471
vt 0.722799 0.354613
vt 0.736827 0.389682
vt 0.722123 0.385514
vt 0.391228 0.080177
vt 0.397552 0.048388
vt 0.417350 0.078633
vt 0.411309 0.041989
vt 0.790694 0.542014
vt 0.163922 0.501311
vt 0.875733 0.654524
vt 0.252316 0.283975
vt 0.339025 0.033599
vt 0.339025 0.321401
vt 0.660757 0.466022
vt 0.492672 0.359536
vt 0.608714 0.290992
vt 0.473327 0.322903
vt 0.599122 0.261964
vt 0.875999 0.914185
vt 0.737960 0.971362
vt 0.680782 0.833323
vt 0.205700 0.002697
vt 0.284467 0.020907
vt 0.067346 0.919070
vt 0.098292 0.633276
vt 0.124958 0.904602
vt 0.205817 0.904602
vt 0.232379 0.617017
vt 0.326526 0.657274
vt 0.262556 0.919070
vt 0.526602 0.519396
vt 0.593958 0.800870
vt 0.368213 0.758272
vt 0.470497 0.505520
vt 0.354943 0.813477
vt 0.237211 0.340307
vt 0.710757 0.486769
vt 0.716728 0.354613
vt 0.716728 0.489230
vt 0.337216 0.367547
vt 0.239074 0.364419
vt 0.292659 0.593731
vt 0.720975 0.298512
vt 0.707190 0.176013
vt 0.753216 0.278861
vt 0.720975 0.053485
vt 0.666151 0.176006
vt 0.828727 0.349219
vt 0.843678 0.321430
vt 0.828727 0.002697
vt 0.753216 0.073152
vt 0.445067 0.255393
vt 0.355873 0.225762
vt 0.625871 0.107347
vt 0.592161 0.096477
vt 0.578416 0.900493
vt 0.444875 0.897033
vt 0.935921 0.002697
vt 0.874900 0.095777
vt 0.849072 0.092163
vt 0.357801 0.868795
vt 0.348982 0.900493
vt 0.101989 0.317882
vt 0.594953 0.249614
vt 0.660757 0.149532
vt 0.675388 0.881789
vt 0.093293 0.573991
vt 0.234758 0.577997
vt 0.331920 0.574296
vt 0.336731 0.573991
vt 0.336731 0.678104
vt 0.117879 0.270145
vt 0.103474 0.313369
vt 0.002697 0.286063
vt 0.027390 0.232108
vt 0.855733 0.231091
vt 0.121292 0.555705
vt 0.067791 0.568597
vt 0.096951 0.545069
vt 0.722123 0.442461
vt 0.735642 0.435082
vt 0.735642 0.478751
vt 0.363219 0.002697
vt 0.386037 0.049069
vt 0.756156 0.429687
vt 0.748107 0.390357
vt 0.308523 0.445162
vt 0.277704 0.460325
vt 0.350177 0.306536
vt 0.346047 0.207763
vt 0.691064 0.354613
vt 0.997303 0.282739
vt 0.955478 0.322287
vt 0.938296 0.342978
vt 0.837439 0.573148
vt 0.756156 0.364068
vt 0.587439 0.500126
vt 0.737960 0.776146
vt 0.818821 0.776146
vt 0.875999 0.833323
vt 0.818821 0.971362
vt 0.680782 0.914185
vt 0.002697 0.641015
vt 0.606595 0.531202
vt 0.344419 0.837118
vt 0.696458 0.358933
vt 0.336280 0.387033
vt 0.843678 0.030514
vt 0.344419 0.261344
vt 0.955478 0.014219
vt 0.633775 0.130371
vt 0.670065 0.876569
vn 0.3806 -0.1049 -0.9188
vn -0.3797 -0.1243 -0.9167
vn 0.3827 -0.0120 -0.9238
vn 0.9135 -0.0998 -0.3944
vn -0.8278 0.4954 -0.2632
vn -0.3827 -0.0120 -0.9238
vn 0.9214 -0.0280 -0.3877
vn 0.2330 0.7934 -0.5624
vn -0.9019 -0.2349 0.3626
vn -0.9214 -0.0280 -0.3877
vn -0.2330 0.7934 -0.5624
vn 0.9250 -0.0509 0.3765
vn 0.6640 0.7389 -0.1145
vn 0.9231 -0.0912 0.3735
vn -0.7499 0.5521 0.3645
vn -0.9250 -0.0509 0.3765
vn -0.6640 0.7389 -0.1145
vn 0.3929 -0.0674 0.9171
vn 0.6413 0.6801 0.3553
vn -0.3929 -0.0674 0.9171
vn -0.6413 0.6801 0.3553
vn 0.1937 0.6225 0.7583
vn -0.2880 0.7695 0.5700
vn -0.1937 0.6225 0.7583
vn -0.3906 -0.2716 0.8796
vn -0.0000 0.9559 0.2938
vn 0.2449 0.5056 0.8273
vn 0.6165 0.7060 0.3484
vn 0.6033 0.7937 -0.0774
vn 0.2275 0.8040 -0.5493
vn -0.3041 0.3365 0.8912
vn -0.8792 0.2610 0.3986
vn -0.8671 0.4198 -0.2679
vn -0.2751 0.6951 -0.6642
vn 0.2515 0.7538 -0.6071
vn -0.1653 0.6783 0.7159
vn -0.2487 0.7601 -0.6003
vn 0.1673 0.6747 0.7189
vn 0.6214 0.7010 0.3498
vn 0.6762 0.7265 -0.1222
vn -0.6605 0.7424 -0.1122
vn -0.6074 0.7152 0.3459
vn 0.3465 -0.2259 -0.9104
vn -0.3465 -0.2259 -0.9104
vn -0.3921 -0.1841 -0.9013
vn 0.0000 -1.0000 0.0000
vn 0.8976 -0.2369 -0.3718
vn -0.3805 -0.2721 -0.8838
vn -0.8958 -0.2674 0.3550
vn 0.8976 -0.2369 0.3718
vn 0.3465 -0.2259 0.9104
vn -0.3718 -0.2369 0.8976
vn -0.9104 -0.2259 0.3465
vn -0.8976 -0.2369 -0.3718
vn -0.8881 -0.2220 -0.4024
vn -0.9244 -0.0884 -0.3709
vn 0.3598 -0.1563 -0.9198
vn 0.3619 -0.7809 0.5091
vn 0.3720 -0.1118 -0.9215
vn -0.4128 -0.1799 0.8929
vn -0.3394 -0.2591 0.9043
vn -0.1904 0.6293 0.7535
vn 0.1904 0.6293 0.7535
vn -0.6432 0.6780 0.3558
vn 0.6432 0.6780 0.3558
vn -0.6758 0.7270 -0.1219
vn 0.6758 0.7270 -0.1219
vn -0.2430 0.7725 -0.5867
vn 0.2430 0.7725 -0.5867
vn -0.9214 -0.1377 0.3635
vn 0.7375 0.5813 0.3438
vn -0.9065 -0.1260 -0.4029
vn 0.7908 0.5504 -0.2677
vn -0.3292 0.5099 -0.7948
vn 0.3323 0.4961 -0.8022
vn -0.4002 -0.1252 0.9078
vn 0.3406 -0.1507 0.9281
vn 0.9051 -0.2263 0.3600
vn 0.9174 0.1657 -0.3620
vn 0.9124 -0.2376 -0.3333
vn 0.9145 -0.2002 0.3516
vn 0.3516 -0.2002 0.9145
vn 0.9984 -0.0000 0.0557
vn 0.6706 0.7322 -0.1186
vn 0.9155 0.0931 0.3915
vn 0.4084 -0.5472 0.7306
vn -0.1466 0.9237 -0.3540
vn -0.7110 0.6881 -0.1449
vn -0.9249 -0.0337 0.3787
vn -0.4044 -0.5845 0.7035
vn 0.1430 0.9276 -0.3452
vn 0.9148 -0.0788 -0.3961
vn -0.7690 0.5863 -0.2548
vn -0.9177 -0.1756 0.3563
vn 0.9247 -0.0762 0.3730
vn -0.7120 0.6168 0.3356
vn -0.2569 0.5852 0.7691
vn -0.2641 0.5777 0.7724
vn -0.3067 -0.0000 0.9518
vn 0.3718 -0.2369 -0.8976
vn -0.3718 -0.2369 -0.8976
vn -0.3709 -0.0884 -0.9244
vn 0.9104 -0.2259 -0.3465
vn -0.3767 -0.1768 -0.9093
vn -0.9051 -0.2263 0.3600
vn 0.9104 -0.2259 0.3465
vn 0.3718 -0.2369 0.8976
vn -0.3465 -0.2259 0.9104
vn -0.8976 -0.2369 0.3718
vn -0.9104 -0.2259 -0.3465
vn -0.8778 -0.2736 -0.3933
vn -0.8864 -0.2308 -0.4012
vn 0.3660 -0.1862 -0.9118
vn 0.3563 -0.0913 0.9299
vn 0.3767 -0.1768 -0.9093
vn -0.2968 -0.1531 0.9426
vn -0.9169 -0.1642 0.3638
vn 0.7718 0.5170 0.3701
vn -0.9028 -0.1592 -0.3995
vn 0.8436 0.4610 -0.2753
vn -0.2285 -0.8488 0.4767
vn 0.9143 -0.2286 -0.3343
vn 0.9036 -0.2620 -0.3388
vn 0.9032 -0.2352 0.3590
vn 0.2600 0.6125 0.7465
vn 0.2635 0.5633 0.7831
s off
f 85/1/1 3/2/1 86/3/1
f 87/4/2 2/5/2 85/6/2
f 78/7/3 8/8/3 9/9/3
f 86/3/4 15/10/4 88/11/4
f 6/12/5 89/13/5 87/4/5
f 79/14/6 8/15/6 77/16/6
f 78/7/7 16/17/7 80/18/7
f 9/19/8 17/20/8 18/21/8
f 76/22/9 34/23/9 20/24/9
f 79/25/10 22/26/10 14/27/10
f 14/28/11 17/20/11 8/15/11
f 80/18/12 25/29/12 82/30/12
f 9/9/13 26/31/13 16/17/13
f 88/11/14 24/32/14 90/33/14
f 21/34/15 91/35/15 89/36/15
f 81/37/16 29/38/16 22/26/16
f 14/28/17 30/39/17 23/40/17
f 82/41/18 32/42/18 84/43/18
f 16/44/19 33/45/19 25/46/19
f 83/47/20 32/48/20 29/38/20
f 22/49/21 36/50/21 30/51/21
f 25/46/22 38/52/22 32/53/22
f 92/54/23 39/55/23 37/56/23
f 29/57/24 38/52/24 36/50/24
f 39/58/25 35/59/25 34/23/25
f 44/60/26 43/61/26 42/62/26
f 53/63/27 50/64/27 52/65/27
f 55/66/28 48/67/28 50/64/28
f 59/68/29 48/69/29 57/70/29
f 60/71/30 46/72/30 59/73/30
f 54/74/31 52/65/31 51/75/31
f 56/76/32 51/77/32 49/78/32
f 56/79/33 47/80/33 58/81/33
f 58/81/34 45/82/34 60/71/34
f 17/20/35 59/73/35 18/21/35
f 36/50/36 53/63/36 54/74/36
f 17/20/37 58/81/37 60/71/37
f 33/45/38 53/63/38 38/52/38
f 26/83/39 55/66/39 33/45/39
f 18/84/40 57/70/40 26/31/40
f 23/40/41 56/79/41 58/81/41
f 30/51/42 54/74/42 56/85/42
f 63/86/43 61/87/43 62/88/43
f 61/89/44 72/90/44 62/91/44
f 62/91/45 11/92/45 12/93/45
f 67/94/46 69/95/46 65/96/46
f 63/86/47 66/97/47 64/98/47
f 6/12/48 12/93/48 11/92/48
f 35/59/49 20/24/49 34/23/49
f 66/99/50 73/100/50 67/101/50
f 68/102/51 73/100/51 74/103/51
f 68/102/52 75/104/52 69/105/52
f 70/106/53 75/107/53 76/22/53
f 70/106/54 72/108/54 65/109/54
f 21/34/55 11/110/55 20/24/55
f 76/22/56 11/110/56 72/108/56
f 62/88/57 5/111/57 63/86/57
f 92/112/58 24/113/58 31/114/58
f 12/115/59 4/116/59 5/111/59
f 34/23/60 75/107/60 39/58/60
f 74/103/61 39/117/61 75/104/61
f 28/118/62 84/119/62 83/120/62
f 24/121/63 84/119/63 31/122/63
f 13/123/64 83/120/64 81/124/64
f 15/125/65 82/126/65 24/121/65
f 7/127/66 81/128/66 79/14/66
f 3/2/67 80/18/67 15/10/67
f 7/127/68 77/16/68 2/5/68
f 3/129/69 77/16/69 78/130/69
f 89/36/70 28/131/70 13/132/70
f 10/133/71 90/134/71 27/135/71
f 87/136/72 13/132/72 7/137/72
f 4/116/73 88/11/73 10/138/73
f 87/4/74 1/139/74 6/12/74
f 85/6/75 4/140/75 1/139/75
f 91/35/76 31/141/76 28/131/76
f 74/103/77 27/142/77 40/143/77
f 19/144/78 10/145/78 27/146/78
f 10/138/79 5/111/79 4/116/79
f 71/147/80 5/111/80 19/148/80
f 71/147/81 27/149/81 73/150/81
f 74/103/82 73/100/82 27/142/82
f 92/54/83 37/56/83 40/151/83
f 48/69/84 46/152/84 41/153/84
f 50/154/85 48/69/85 41/153/85
f 52/155/86 50/156/86 41/157/86
f 45/82/87 47/80/87 41/158/87
f 47/80/88 49/159/88 41/158/88
f 49/78/89 51/77/89 41/160/89
f 51/77/90 52/161/90 41/160/90
f 46/72/91 45/82/91 41/158/91
f 85/1/1 2/162/1 3/2/1
f 87/4/2 7/127/2 2/5/2
f 78/7/3 77/163/3 8/8/3
f 86/3/92 3/2/92 15/10/92
f 6/12/93 21/164/93 89/13/93
f 79/14/6 14/28/6 8/15/6
f 78/7/7 9/9/7 16/17/7
f 9/19/8 8/15/8 17/20/8
f 76/22/94 75/107/94 34/23/94
f 79/25/10 81/37/10 22/26/10
f 14/28/11 23/40/11 17/20/11
f 80/18/12 16/17/12 25/29/12
f 9/9/13 18/84/13 26/31/13
f 88/11/95 15/10/95 24/32/95
f 21/34/96 35/59/96 91/35/96
f 81/37/16 83/47/16 29/38/16
f 14/28/17 22/165/17 30/39/17
f 82/41/18 25/166/18 32/42/18
f 16/44/19 26/83/19 33/45/19
f 83/47/20 84/167/20 32/48/20
f 22/49/21 29/57/21 36/50/21
f 25/46/22 33/45/22 38/52/22
f 92/54/97 91/168/97 39/55/97
f 91/168/98 35/169/98 39/55/98
f 39/55/99 40/151/99 37/56/99
f 29/57/24 32/53/24 38/52/24
f 53/63/27 55/66/27 50/64/27
f 55/66/28 57/170/28 48/67/28
f 59/68/29 46/152/29 48/69/29
f 60/71/30 45/82/30 46/72/30
f 54/74/31 53/63/31 52/65/31
f 56/76/32 54/171/32 51/77/32
f 56/79/33 49/159/33 47/80/33
f 58/81/34 47/80/34 45/82/34
f 17/20/35 60/71/35 59/73/35
f 36/50/36 38/52/36 53/63/36
f 17/20/37 23/40/37 58/81/37
f 33/45/38 55/66/38 53/63/38
f 26/83/39 57/170/39 55/66/39
f 18/84/40 59/68/40 57/70/40
f 23/40/41 30/39/41 56/79/41
f 30/51/42 36/50/42 54/74/42
f 63/86/100 64/98/100 61/87/100
f 61/89/101 65/172/101 72/90/101
f 62/91/102 72/90/102 11/92/102
f 65/96/46 61/173/46 64/174/46
f 64/174/46 66/175/46 65/96/46
f 66/175/46 67/94/46 65/96/46
f 67/94/46 68/176/46 69/95/46
f 69/95/46 70/177/46 65/96/46
f 63/86/103 71/147/103 66/97/103
f 6/12/104 1/139/104 12/93/104
f 35/59/105 21/34/105 20/24/105
f 66/99/106 71/178/106 73/100/106
f 68/102/107 67/101/107 73/100/107
f 68/102/108 74/103/108 75/104/108
f 70/106/109 69/179/109 75/107/109
f 70/106/110 76/22/110 72/108/110
f 21/34/111 6/180/111 11/110/111
f 76/22/112 20/24/112 11/110/112
f 62/88/113 12/115/113 5/111/113
f 92/112/114 90/181/114 24/113/114
f 12/115/115 1/182/115 4/116/115
f 74/103/116 40/143/116 39/117/116
f 28/118/62 31/122/62 84/119/62
f 24/121/63 82/126/63 84/119/63
f 13/123/64 28/118/64 83/120/64
f 15/125/65 80/183/65 82/126/65
f 7/127/66 13/184/66 81/128/66
f 3/2/67 78/7/67 80/18/67
f 7/127/68 79/14/68 77/16/68
f 3/129/69 2/5/69 77/16/69
f 89/36/117 91/35/117 28/131/117
f 10/133/118 88/185/118 90/134/118
f 87/136/119 89/36/119 13/132/119
f 4/116/120 86/3/120 88/11/120
f 87/4/74 85/6/74 1/139/74
f 85/6/75 86/186/75 4/140/75
f 91/35/121 92/187/121 31/141/121
f 10/138/122 19/148/122 5/111/122
f 71/147/123 63/86/123 5/111/123
f 71/147/124 19/148/124 27/149/124
f 40/151/125 27/135/125 92/54/125
f 27/135/126 90/134/126 92/54/126
