# Blender v3.0.1 OBJ File: ''
# www.blender.org
mtllib horizontal_2d_plane.mtl
o Mesh_Plane
v 0.501957 -0.000000 0.501957
v -0.501957 -0.000000 0.501957
v -0.501957 0.000000 -0.501957
v 0.501957 0.000000 -0.501957
v -0.501957 -0.000000 0.501957
v 0.501957 -0.000000 0.501957
v 0.501957 0.000000 -0.501957
v -0.501957 0.000000 -0.501957
vt 1.000000 0.000000
vt 0.000000 0.000000
vt 0.000000 1.000000
vt 1.000000 1.000000
vt 0.000000 0.000000
vt 1.000000 0.000000
vt 1.000000 1.000000
vt 0.000000 1.000000
vn 0.0000 -1.0000 -0.0000
vn 0.0000 1.0000 0.0000
usemtl Default_OBJ
s 1
f 1/1/1 2/2/1 3/3/1 4/4/1
f 5/5/2 6/6/2 7/7/2 8/8/2
