# Blender v2.92.0 OBJ File: 'OGConvert.blend'
# www.blender.org
o block
v 3.999600 1.173216 -3.999601
v 3.999601 -0.000000 3.999600
v 3.999600 0.000000 -3.999601
v 3.999601 1.173216 3.999600
v -3.999600 -0.000000 3.999601
v -3.999601 0.000000 -3.999600
v -3.999600 1.173216 3.999601
v -3.999601 1.173216 -3.999600
vt 0.574573 0.001754
vt 0.501754 0.498246
vt 0.501754 0.001754
vt 0.574573 0.498246
vt 0.001754 0.001754
vt 0.498246 0.498246
vt 0.001754 0.498246
vt 0.498246 0.001754
vt 0.498246 0.998246
vt 0.001754 0.501754
vt 0.498246 0.501754
vt 0.001754 0.998246
vt 0.727225 0.498246
vt 0.654406 0.001754
vt 0.727225 0.001754
vt 0.654406 0.498246
vt 0.730732 0.001754
vt 0.803551 0.498246
vt 0.730732 0.498246
vt 0.803551 0.001754
vt 0.578080 0.498246
vt 0.650899 0.001754
vt 0.650899 0.498246
vt 0.578080 0.001754
vn 1.0000 0.0000 -0.0000
vn 0.0000 -1.0000 -0.0000
vn 0.0000 1.0000 0.0000
vn -0.0000 0.0000 -1.0000
vn 0.0000 0.0000 1.0000
vn -1.0000 0.0000 0.0000
s 1
f 1/1/1 2/2/1 3/3/1
f 2/2/1 1/1/1 4/4/1
f 3/5/2 5/6/2 6/7/2
f 5/6/2 3/5/2 2/8/2
f 7/9/3 1/10/3 8/11/3
f 1/10/3 7/9/3 4/12/3
f 1/13/4 6/14/4 8/15/4
f 6/14/4 1/13/4 3/16/4
f 2/17/5 7/18/5 5/19/5
f 7/18/5 2/17/5 4/20/5
f 7/21/6 6/22/6 5/23/6
f 6/22/6 7/21/6 8/24/6
