# Blender v2.92.0 OBJ File: 'kenney_OGConvert.blend'
# www.blender.org
o end
v 0.499950 0.000000 -0.499950
v -0.499950 0.000000 -0.399960
v -0.499950 0.000000 -0.499950
v 0.499950 -0.000000 0.499950
v -0.499950 -0.000000 0.399960
v -0.499950 -0.000000 0.499950
v 0.499950 0.146652 -0.499950
v -0.499950 0.146652 -0.499950
v -0.499950 0.146652 0.499950
v 0.399960 0.146652 0.399960
v -0.499950 0.146652 0.399960
v 0.499950 0.146652 0.499950
v 0.399960 0.146652 -0.399960
v -0.499950 0.146652 -0.399960
v -0.499950 0.063327 0.399960
v 0.399960 0.063327 0.399960
v -0.499950 0.063327 -0.399960
v 0.399960 0.063327 -0.399960
vt 0.002567 0.002567
vt 0.052053 0.497433
vt 0.002567 0.497433
vt 0.497433 0.002567
vt 0.447947 0.497433
vt 0.497433 0.497433
vt 0.730574 0.947947
vt 0.657994 0.453080
vt 0.730574 0.453080
vt 0.657994 0.947947
vt 0.497433 0.997433
vt 0.052053 0.947947
vt 0.497433 0.947947
vt 0.002567 0.997433
vt 0.052053 0.552053
vt 0.002567 0.502567
vt 0.497433 0.552053
vt 0.497433 0.502567
vt 0.735707 0.453080
vt 0.808288 0.947947
vt 0.735707 0.947947
vt 0.808288 0.453080
vt 0.502567 0.947947
vt 0.575147 0.898460
vt 0.575147 0.947947
vt 0.543805 0.898460
vt 0.502567 0.898460
vt 0.854660 0.898460
vt 0.813421 0.453080
vt 0.854660 0.453080
vt 0.813421 0.898460
vt 0.652861 0.453080
vt 0.580280 0.947947
vt 0.580280 0.453080
vt 0.652861 0.947947
vt 0.543805 0.502567
vt 0.575147 0.453080
vt 0.575147 0.502567
vt 0.502567 0.453080
vt 0.502567 0.502567
vt 0.859793 0.453080
vt 0.901032 0.898460
vt 0.859793 0.898460
vt 0.901032 0.453080
vt 0.903593 0.398460
vt 0.944832 0.002567
vt 0.944832 0.398460
vt 0.903593 0.002567
vt 0.898460 0.002567
vt 0.502567 0.447947
vt 0.502567 0.002567
vt 0.898460 0.447947
vn -0.0000 -1.0000 -0.0000
vn -0.0000 0.0000 -1.0000
vn 0.0000 1.0000 0.0000
vn 0.0000 0.0000 1.0000
vn -1.0000 0.0000 0.0000
vn 1.0000 0.0000 -0.0000
s 1
f 1/1/1 2/2/1 3/3/1
f 2/2/1 1/1/1 4/4/1
f 2/2/1 4/4/1 5/5/1
f 5/5/1 4/4/1 6/6/1
f 7/7/2 3/8/2 8/9/2
f 3/8/2 7/7/2 1/10/2
f 9/11/3 10/12/3 11/13/3
f 12/14/3 10/12/3 9/11/3
f 12/14/3 13/15/3 10/12/3
f 7/16/3 13/15/3 12/14/3
f 7/16/3 14/17/3 13/15/3
f 14/17/3 7/16/3 8/18/3
f 4/19/4 9/20/4 6/21/4
f 9/20/4 4/19/4 12/22/4
f 9/23/5 5/24/5 6/25/5
f 5/24/5 9/23/5 15/26/5
f 15/26/5 9/23/5 11/27/5
f 10/28/2 15/29/2 11/30/2
f 15/29/2 10/28/2 16/31/2
f 7/32/6 4/33/6 1/34/6
f 4/33/6 7/32/6 12/35/6
f 17/36/5 3/37/5 2/38/5
f 3/37/5 17/36/5 8/39/5
f 8/39/5 17/36/5 14/40/5
f 18/41/4 14/42/4 17/43/4
f 14/42/4 18/41/4 13/44/4
f 10/45/5 18/46/5 16/47/5
f 18/46/5 10/45/5 13/48/5
f 15/49/3 18/50/3 17/51/3
f 18/50/3 15/49/3 16/52/3
f 15/26/5 2/38/5 5/24/5
f 2/38/5 15/26/5 17/36/5
