# Blender v2.92.0 OBJ File: 'OGConvert.blend'
# www.blender.org
o roundCornerC
v -2.955495 0.000000 -3.931166
v -3.999601 0.000000 -3.199680
v -3.999601 0.000000 -3.999600
v -1.929255 0.000000 -3.727034
v -0.938439 0.000000 -3.390698
v -0.000000 0.000000 -2.927910
v -3.999600 -0.000000 3.999601
v 0.870004 0.000000 -2.346593
v 1.656689 0.000000 -1.656689
v 2.346592 0.000000 -0.870005
v 2.927910 0.000000 -0.000000
v 3.390698 -0.000000 0.938438
v 3.727034 -0.000000 1.929254
v 3.931166 -0.000000 2.955494
v 3.999601 -0.000000 3.999600
v 3.199681 -0.000000 3.999600
v 3.199681 0.506616 3.999600
v 3.199681 1.173216 3.999600
v 3.999601 1.173216 3.999600
v -2.955495 1.173216 -3.931166
v -3.999601 1.173216 -3.999600
v -1.929255 1.173216 -3.727034
v -0.938439 1.173216 -3.390698
v -0.000000 1.173216 -2.927910
v 0.870004 1.173216 -2.346593
v 1.656689 1.173216 -1.656689
v 2.346592 1.173216 -0.870005
v 2.927910 1.173216 -0.000000
v 3.390698 1.173216 0.938438
v 3.727034 1.173216 1.929254
v 3.931166 1.173216 2.955494
v -3.999601 1.173216 -3.199680
v -3.059906 1.173216 -3.138089
v -2.136290 1.173216 -2.954370
v -1.244555 1.173216 -2.651667
v -0.399960 1.173216 -2.235159
v 0.383044 1.173216 -1.711973
v 1.091060 1.173216 -1.091060
v 1.711973 1.173216 -0.383044
v 2.235159 1.173216 0.399960
v 2.651667 1.173216 1.244554
v 2.954371 1.173216 2.136290
v 3.138090 1.173216 3.059906
v -3.059906 0.506616 -3.138089
v -3.999601 0.506616 -3.199680
v -2.136290 0.506616 -2.954370
v -1.244555 0.506616 -2.651667
v -0.399960 0.506616 -2.235159
v 0.383044 0.506616 -1.711973
v 1.091060 0.506616 -1.091060
v 1.711973 0.506616 -0.383044
v 2.235159 0.506616 0.399960
v 2.651667 0.506616 1.244554
v 2.954371 0.506616 2.136290
v 3.138090 0.506616 3.059906
v -3.999600 0.506616 3.999601
vt 0.005580 0.379202
vt 0.045265 0.435848
vt 0.001867 0.435848
vt 0.016655 0.323526
vt 0.034902 0.269771
vt 0.060009 0.218858
vt 0.435848 0.435848
vt 0.091548 0.171657
vt 0.128977 0.128977
vt 0.171657 0.091548
vt 0.218858 0.060009
vt 0.269771 0.034902
vt 0.323525 0.016655
vt 0.379202 0.005580
vt 0.435848 0.001867
vt 0.721534 0.830165
vt 0.721534 0.396184
vt 0.721534 0.439582
vt 0.570617 0.824580
vt 0.543132 0.781741
vt 0.570617 0.781741
vt 0.506967 0.781741
vt 0.506967 0.824580
vt 0.503233 0.445346
vt 0.439582 0.396184
vt 0.503233 0.396184
vt 0.439582 0.445346
vt 0.503233 0.497792
vt 0.439582 0.497792
vt 0.503233 0.552625
vt 0.439582 0.552625
vt 0.503233 0.608907
vt 0.439582 0.608907
vt 0.503233 0.665675
vt 0.439582 0.665675
vt 0.503233 0.721956
vt 0.439582 0.721956
vt 0.439582 0.776790
vt 0.503233 0.776790
vt 0.439582 0.829236
vt 0.503233 0.829236
vt 0.439582 0.878398
vt 0.503233 0.878398
vt 0.439582 0.923434
vt 0.503233 0.923434
vt 0.439582 0.963575
vt 0.503233 0.963575
vt 0.439582 0.998133
vt 0.503233 0.998133
vt 0.991696 0.032554
vt 0.923580 0.044547
vt 0.961009 0.001867
vt 0.892041 0.091747
vt 0.866934 0.142661
vt 0.958010 0.070966
vt 0.848687 0.196415
vt 0.929625 0.113446
vt 0.907028 0.159268
vt 0.837612 0.252092
vt 0.890606 0.207648
vt 0.833899 0.308738
vt 0.880639 0.257757
vt 0.877297 0.308738
vt 0.837612 0.365384
vt 0.880639 0.359719
vt 0.848687 0.421060
vt 0.890606 0.409828
vt 0.866934 0.474815
vt 0.907028 0.458208
vt 0.892041 0.525728
vt 0.929625 0.504029
vt 0.923580 0.572929
vt 0.958010 0.546510
vt 0.961009 0.615609
vt 0.991696 0.584922
vt 0.677901 0.447044
vt 0.641736 0.396184
vt 0.677901 0.396184
vt 0.641736 0.447044
vt 0.677901 0.498102
vt 0.641736 0.498102
vt 0.677901 0.548485
vt 0.641736 0.548485
vt 0.677901 0.597330
vt 0.641736 0.597330
vt 0.677901 0.643803
vt 0.641736 0.643803
vt 0.677901 0.687108
vt 0.641736 0.687108
vt 0.717800 0.439489
vt 0.681635 0.396184
vt 0.717800 0.396184
vt 0.681635 0.439489
vt 0.717800 0.485961
vt 0.681635 0.485961
vt 0.717800 0.534807
vt 0.681635 0.534807
vt 0.717800 0.585190
vt 0.681635 0.585190
vt 0.717800 0.636248
vt 0.681635 0.636248
vt 0.717800 0.687108
vt 0.681635 0.687108
vt 0.610516 0.439024
vt 0.638002 0.396184
vt 0.638002 0.439024
vt 0.574351 0.396184
vt 0.574351 0.439024
vt 0.610516 0.824580
vt 0.638002 0.824580
vt 0.830165 0.392450
vt 0.779184 0.005209
vt 0.830165 0.001867
vt 0.729075 0.015176
vt 0.680695 0.031598
vt 0.634874 0.054195
vt 0.592393 0.082580
vt 0.553981 0.116266
vt 0.520295 0.154678
vt 0.491910 0.197159
vt 0.469314 0.242980
vt 0.452891 0.291360
vt 0.442924 0.341469
vt 0.439582 0.392450
vt 0.543132 0.396184
vt 0.570617 0.396184
vn -0.0000 -1.0000 -0.0000
vn 0.0000 0.0000 1.0000
vn 0.1305 0.0000 -0.9914
vn 0.0654 0.0000 -0.9979
vn 0.2588 0.0000 -0.9659
vn 0.3827 0.0000 -0.9239
vn 0.5000 0.0000 -0.8660
vn 0.6088 0.0000 -0.7934
vn 0.7071 0.0000 -0.7071
vn 0.7934 0.0000 -0.6088
vn 0.8660 0.0000 -0.5000
vn 0.9239 0.0000 -0.3827
vn 0.9659 0.0000 -0.2588
vn 0.9914 0.0000 -0.1305
vn 0.9979 0.0000 -0.0654
vn 0.0000 1.0000 -0.0000
vn -0.1305 0.0000 0.9914
vn -0.0654 0.0000 0.9979
vn -0.2588 0.0000 0.9659
vn -0.3827 0.0000 0.9239
vn -0.5000 0.0000 0.8660
vn -0.6088 0.0000 0.7934
vn -0.7071 0.0000 0.7071
vn -0.7934 0.0000 0.6088
vn -0.8660 -0.0000 0.5000
vn -0.9239 -0.0000 0.3827
vn -0.9659 0.0000 0.2588
vn -0.9914 0.0000 0.1305
vn -0.9979 0.0000 0.0654
vn -1.0000 0.0000 0.0000
s 1
f 1/1/1 2/2/1 3/3/1
f 2/2/1 1/1/1 4/4/1
f 2/2/1 4/4/1 5/5/1
f 2/2/1 5/5/1 6/6/1
f 2/2/1 6/6/1 7/7/1
f 7/7/1 6/6/1 8/8/1
f 7/7/1 8/8/1 9/9/1
f 7/7/1 9/9/1 10/10/1
f 7/7/1 10/10/1 11/11/1
f 7/7/1 11/11/1 12/12/1
f 7/7/1 12/12/1 13/13/1
f 7/7/1 13/13/1 14/14/1
f 7/7/1 14/14/1 15/15/1
f 7/16/1 15/17/1 16/18/1
f 15/19/2 17/20/2 16/21/2
f 17/20/2 15/19/2 18/22/2
f 18/22/2 15/19/2 19/23/2
f 20/24/3 3/25/4 21/26/4
f 3/25/4 20/24/3 1/27/3
f 22/28/5 1/27/3 20/24/3
f 1/27/3 22/28/5 4/29/5
f 23/30/6 4/29/5 22/28/5
f 4/29/5 23/30/6 5/31/6
f 24/32/7 5/31/6 23/30/6
f 5/31/6 24/32/7 6/33/7
f 25/34/8 6/33/7 24/32/7
f 6/33/7 25/34/8 8/35/8
f 26/36/9 8/35/8 25/34/8
f 8/35/8 26/36/9 9/37/9
f 26/36/9 10/38/10 9/37/9
f 10/38/10 26/36/9 27/39/10
f 27/39/10 11/40/11 10/38/10
f 11/40/11 27/39/10 28/41/11
f 28/41/11 12/42/12 11/40/11
f 12/42/12 28/41/11 29/43/12
f 29/43/12 13/44/13 12/42/12
f 13/44/13 29/43/12 30/45/13
f 30/45/13 14/46/14 13/44/13
f 14/46/14 30/45/13 31/47/14
f 31/47/14 15/48/15 14/46/14
f 15/48/15 31/47/14 19/49/15
f 32/50/16 20/51/16 21/52/16
f 20/51/16 32/50/16 22/53/16
f 22/53/16 32/50/16 23/54/16
f 23/54/16 32/50/16 33/55/16
f 23/54/16 33/55/16 24/56/16
f 24/56/16 33/55/16 34/57/16
f 24/56/16 34/57/16 35/58/16
f 24/56/16 35/58/16 25/59/16
f 25/59/16 35/58/16 36/60/16
f 25/59/16 36/60/16 26/61/16
f 26/61/16 36/60/16 37/62/16
f 26/61/16 37/62/16 38/63/16
f 26/61/16 38/63/16 27/64/16
f 27/64/16 38/63/16 39/65/16
f 27/64/16 39/65/16 28/66/16
f 28/66/16 39/65/16 40/67/16
f 28/66/16 40/67/16 29/68/16
f 29/68/16 40/67/16 41/69/16
f 29/68/16 41/69/16 30/70/16
f 30/70/16 41/69/16 42/71/16
f 30/70/16 42/71/16 31/72/16
f 31/72/16 42/71/16 43/73/16
f 31/72/16 43/73/16 19/74/16
f 19/74/16 43/73/16 18/75/16
f 44/76/17 32/77/18 45/78/18
f 32/77/18 44/76/17 33/79/17
f 46/80/19 33/79/17 44/76/17
f 33/79/17 46/80/19 34/81/19
f 47/82/20 34/81/19 46/80/19
f 34/81/19 47/82/20 35/83/20
f 48/84/21 35/83/20 47/82/20
f 35/83/20 48/84/21 36/85/21
f 49/86/22 36/85/21 48/84/21
f 36/85/21 49/86/22 37/87/22
f 50/88/23 37/87/22 49/86/22
f 37/87/22 50/88/23 38/89/23
f 51/90/24 38/91/23 50/92/23
f 38/91/23 51/90/24 39/93/24
f 52/94/25 39/93/24 51/90/24
f 39/93/24 52/94/25 40/95/25
f 53/96/26 40/95/25 52/94/25
f 40/95/25 53/96/26 41/97/26
f 54/98/27 41/97/26 53/96/26
f 41/97/26 54/98/27 42/99/27
f 55/100/28 42/99/27 54/98/27
f 42/99/27 55/100/28 43/101/28
f 17/102/29 43/101/28 55/100/28
f 43/101/28 17/102/29 18/103/29
f 45/104/30 3/105/30 2/106/30
f 3/105/30 45/104/30 21/107/30
f 21/107/30 45/104/30 32/108/30
f 56/109/30 2/106/30 7/110/30
f 2/106/30 56/109/30 45/104/30
f 56/111/16 44/112/16 45/113/16
f 44/112/16 56/111/16 46/114/16
f 46/114/16 56/111/16 47/115/16
f 47/115/16 56/111/16 48/116/16
f 48/116/16 56/111/16 49/117/16
f 49/117/16 56/111/16 50/118/16
f 50/118/16 56/111/16 51/119/16
f 51/119/16 56/111/16 52/120/16
f 52/120/16 56/111/16 53/121/16
f 53/121/16 56/111/16 54/122/16
f 54/122/16 56/111/16 55/123/16
f 55/123/16 56/111/16 17/124/16
f 16/21/2 56/125/2 7/126/2
f 56/125/2 16/21/2 17/20/2
