# Blender v2.92.0 OBJ File: 'kenney_OGConvert.blend'
# www.blender.org
o roundCornerB
v 0.499950 0.146652 -0.499950
v 0.499950 -0.000000 0.499950
v 0.499950 0.000000 -0.499950
v 0.499950 0.146652 0.499950
v -0.499950 0.000000 -0.399960
v -0.499950 0.000000 -0.499950
v -0.499950 -0.000000 0.399960
v -0.499950 -0.000000 0.499950
v -0.399960 -0.000000 0.499950
v 0.399960 -0.000000 0.499950
v -0.499950 0.146652 -0.499950
v 0.399960 0.063327 0.499950
v 0.399960 0.146652 0.499950
v -0.499950 0.146652 0.499950
v -0.499950 0.063327 0.399960
v -0.499950 0.146652 0.399960
v -0.499950 0.146652 -0.399960
v -0.382488 0.146652 -0.392261
v -0.267036 0.146652 -0.369296
v -0.155569 0.146652 -0.331458
v -0.049995 0.146652 -0.279395
v 0.047880 0.146652 -0.213997
v 0.136382 0.146652 -0.136383
v 0.213997 0.146652 -0.047881
v 0.279395 0.146652 0.049995
v 0.331458 0.146652 0.155569
v 0.369296 0.146652 0.267036
v 0.392261 0.146652 0.382488
v -0.382488 0.063327 -0.392261
v -0.499950 0.063327 -0.399960
v -0.267036 0.063327 -0.369296
v -0.155569 0.063327 -0.331458
v -0.049995 0.063327 -0.279395
v 0.047880 0.063327 -0.213997
v 0.136382 0.063327 -0.136383
v 0.213997 0.063327 -0.047881
v 0.279395 0.063327 0.049995
v 0.331458 0.063327 0.155569
v 0.369296 0.063327 0.267036
v 0.392261 0.063327 0.382488
v -0.486899 0.146652 0.400816
v -0.474071 0.146652 0.403367
v -0.461685 0.146652 0.407571
v -0.449955 0.146652 0.413356
v -0.439080 0.146652 0.420623
v -0.429246 0.146652 0.429247
v -0.420622 0.146652 0.439080
v -0.413356 0.146652 0.449955
v -0.407571 0.146652 0.461686
v -0.403367 0.146652 0.474071
v -0.400815 0.146652 0.486899
v -0.399960 0.146652 0.499950
v -0.399960 0.063327 0.499950
v -0.400815 0.063327 0.486899
v -0.403367 0.063327 0.474071
v -0.407571 0.063327 0.461686
v -0.413356 0.063327 0.449955
v -0.420622 0.063327 0.439080
v -0.429246 0.063327 0.429247
v -0.439080 0.063327 0.420623
v -0.449955 0.063327 0.413356
v -0.461685 0.063327 0.407571
v -0.474071 0.063327 0.403367
v -0.486899 0.063327 0.400816
vt 0.730699 0.453116
vt 0.658127 0.929669
vt 0.658127 0.453116
vt 0.730699 0.929669
vt 0.002597 0.002597
vt 0.052077 0.497403
vt 0.002597 0.497403
vt 0.497403 0.002597
vt 0.447922 0.497403
vt 0.497403 0.497403
vt 0.497403 0.447922
vt 0.906513 0.453116
vt 0.906513 0.898442
vt 0.906513 0.848961
vt 0.652934 0.937127
vt 0.580362 0.453116
vt 0.652934 0.453116
vt 0.580362 0.937127
vt 0.808464 0.894148
vt 0.777127 0.845145
vt 0.808464 0.845145
vt 0.735893 0.845145
vt 0.735893 0.894148
vt 0.502597 0.943735
vt 0.575168 0.894673
vt 0.575168 0.943735
vt 0.543831 0.894673
vt 0.502597 0.894673
vt 0.002597 0.947922
vt 0.497403 0.997403
vt 0.002597 0.997403
vt 0.060724 0.944113
vt 0.117856 0.932748
vt 0.173016 0.914024
vt 0.225260 0.888260
vt 0.273694 0.855897
vt 0.317490 0.817490
vt 0.355897 0.773694
vt 0.388260 0.725260
vt 0.414024 0.673016
vt 0.497403 0.502597
vt 0.432748 0.617856
vt 0.444113 0.560724
vt 0.447922 0.502597
vt 0.854892 0.511210
vt 0.813658 0.453116
vt 0.854892 0.453116
vt 0.813658 0.511210
vt 0.854892 0.569366
vt 0.813658 0.569366
vt 0.854892 0.626588
vt 0.813658 0.626588
vt 0.854892 0.681897
vt 0.813658 0.681897
vt 0.854892 0.734347
vt 0.813658 0.734347
vt 0.854892 0.783041
vt 0.813658 0.783041
vt 0.901319 0.501528
vt 0.860086 0.453116
vt 0.901319 0.453116
vt 0.860086 0.501528
vt 0.901319 0.553753
vt 0.860086 0.553753
vt 0.901319 0.608900
vt 0.860086 0.608900
vt 0.901319 0.666024
vt 0.860086 0.666024
vt 0.901319 0.724148
vt 0.860086 0.724148
vt 0.901319 0.782277
vt 0.860086 0.782277
vt 0.863139 0.915481
vt 0.856680 0.866424
vt 0.863139 0.866000
vt 0.850332 0.867686
vt 0.844203 0.869767
vt 0.838398 0.872630
vt 0.833017 0.876225
vt 0.828151 0.880493
vt 0.823883 0.885359
vt 0.820287 0.890741
vt 0.817424 0.896546
vt 0.815344 0.902674
vt 0.814081 0.909022
vt 0.813658 0.915481
vt 0.742227 0.940576
vt 0.735893 0.899342
vt 0.742227 0.899342
vt 0.735893 0.940576
vt 0.748681 0.940576
vt 0.748681 0.899342
vt 0.755143 0.940576
vt 0.755143 0.899342
vt 0.761504 0.940576
vt 0.761504 0.899342
vt 0.767655 0.940576
vt 0.767655 0.899342
vt 0.773490 0.940576
vt 0.773490 0.899342
vt 0.906513 0.944869
vt 0.912160 0.903636
vt 0.912160 0.944869
vt 0.906513 0.903636
vt 0.918171 0.903636
vt 0.918171 0.944869
vt 0.924444 0.903636
vt 0.924444 0.944869
vt 0.930871 0.903636
vt 0.930871 0.944869
vt 0.937343 0.903636
vt 0.937343 0.944869
vt 0.943749 0.903636
vt 0.943749 0.944869
vt 0.543831 0.502178
vt 0.575168 0.453116
vt 0.575168 0.502178
vt 0.502597 0.453116
vt 0.502597 0.502178
vt 0.813658 0.860807
vt 0.862662 0.788235
vt 0.862662 0.860807
vt 0.813658 0.788235
vt 0.867855 0.788235
vt 0.867855 0.788235
vt 0.867855 0.788235
vt 0.947922 0.398442
vt 0.889796 0.006407
vt 0.947922 0.002597
vt 0.832664 0.017771
vt 0.777504 0.036495
vt 0.725260 0.062259
vt 0.676825 0.094622
vt 0.633030 0.133030
vt 0.594622 0.176825
vt 0.562259 0.225260
vt 0.536495 0.277504
vt 0.517771 0.332664
vt 0.506407 0.389796
vt 0.941464 0.398865
vt 0.502597 0.447922
vt 0.935116 0.400128
vt 0.928987 0.402208
vt 0.923182 0.405071
vt 0.917801 0.408667
vt 0.912934 0.412934
vt 0.908667 0.417801
vt 0.905071 0.423182
vt 0.902208 0.428987
vt 0.900128 0.435116
vt 0.898865 0.441464
vt 0.898442 0.447922
vt 0.777127 0.453116
vt 0.808464 0.453116
vn 1.0000 0.0000 -0.0000
vn -0.0000 -1.0000 -0.0000
vn 0.0000 1.0000 0.0000
vn 0.0000 0.5547 -0.8321
vn -0.0000 0.0000 -1.0000
vn 0.0000 0.0000 1.0000
vn -1.0000 0.0000 0.0000
vn -0.1305 0.0000 0.9914
vn -0.0654 0.0000 0.9979
vn -0.2588 0.0000 0.9659
vn -0.3827 0.0000 0.9239
vn -0.5000 -0.0000 0.8660
vn -0.6088 -0.0000 0.7934
vn -0.7071 0.0000 0.7071
vn -0.7934 -0.0000 0.6088
vn -0.8660 0.0000 0.5000
vn -0.9239 0.0000 0.3827
vn -0.9659 0.0000 0.2588
vn -0.9914 0.0000 0.1305
vn -0.9979 0.0000 0.0654
vn 0.9914 -0.0000 -0.1305
vn 0.9979 0.0000 -0.0654
vn 0.9659 0.0000 -0.2588
vn 0.9239 0.0000 -0.3827
vn 0.8660 0.0000 -0.5000
vn 0.7934 0.0000 -0.6088
vn 0.7071 0.0000 -0.7071
vn 0.6088 0.0000 -0.7934
vn 0.5000 0.0000 -0.8660
vn 0.3827 0.0000 -0.9239
vn 0.2588 0.0000 -0.9659
vn 0.1305 0.0000 -0.9914
vn 0.0654 0.0000 -0.9979
vn -0.8944 0.0000 0.4472
s 1
f 1/1/1 2/2/1 3/3/1
f 2/2/1 1/1/1 4/4/1
f 3/5/2 5/6/2 6/7/2
f 5/6/2 3/5/2 2/8/2
f 5/6/2 2/8/2 7/9/2
f 7/9/2 2/8/2 8/10/2
f 8/10/2 2/8/2 9/11/3
f 9/12/3 2/13/2 10/14/4
f 1/15/5 6/16/5 11/17/5
f 6/16/5 1/15/5 3/18/5
f 2/19/6 12/20/6 10/21/6
f 12/20/6 2/19/6 13/22/6
f 13/22/6 2/19/6 4/23/6
f 14/24/7 7/25/7 8/26/7
f 7/25/7 14/24/7 15/27/7
f 15/27/7 14/24/7 16/28/7
f 17/29/3 1/30/3 11/31/3
f 1/30/3 17/29/3 18/32/3
f 1/30/3 18/32/3 19/33/3
f 1/30/3 19/33/3 20/34/3
f 1/30/3 20/34/3 21/35/3
f 1/30/3 21/35/3 22/36/3
f 1/30/3 22/36/3 23/37/3
f 1/30/3 23/37/3 24/38/3
f 1/30/3 24/38/3 25/39/3
f 1/30/3 25/39/3 26/40/3
f 1/30/3 26/40/3 4/41/3
f 4/41/3 26/40/3 27/42/3
f 4/41/3 27/42/3 28/43/3
f 4/41/3 28/43/3 13/44/3
f 29/45/8 17/46/9 30/47/9
f 17/46/9 29/45/8 18/48/8
f 31/49/10 18/48/8 29/45/8
f 18/48/8 31/49/10 19/50/10
f 32/51/11 19/50/10 31/49/10
f 19/50/10 32/51/11 20/52/11
f 33/53/12 20/52/11 32/51/11
f 20/52/11 33/53/12 21/54/12
f 34/55/13 21/54/12 33/53/12
f 21/54/12 34/55/13 22/56/13
f 35/57/14 22/56/13 34/55/13
f 22/56/13 35/57/14 23/58/14
f 36/59/15 23/60/14 35/61/14
f 23/60/14 36/59/15 24/62/15
f 37/63/16 24/62/15 36/59/15
f 24/62/15 37/63/16 25/64/16
f 38/65/17 25/64/16 37/63/16
f 25/64/16 38/65/17 26/66/17
f 39/67/18 26/66/17 38/65/17
f 26/66/17 39/67/18 27/68/18
f 40/69/19 27/68/18 39/67/18
f 27/68/18 40/69/19 28/70/19
f 12/71/20 28/70/19 40/69/19
f 28/70/19 12/71/20 13/72/20
f 14/73/3 41/74/3 16/75/3
f 41/74/3 14/73/3 42/76/3
f 42/76/3 14/73/3 43/77/3
f 43/77/3 14/73/3 44/78/3
f 44/78/3 14/73/3 45/79/3
f 45/79/3 14/73/3 46/80/3
f 46/80/3 14/73/3 47/81/3
f 47/81/3 14/73/3 48/82/3
f 48/82/3 14/73/3 49/83/3
f 49/83/3 14/73/3 50/84/3
f 50/84/3 14/73/3 51/85/3
f 51/85/3 14/73/3 52/86/3
f 51/87/21 53/88/22 54/89/21
f 53/88/22 51/87/21 52/90/22
f 50/91/23 54/89/21 55/92/23
f 54/89/21 50/91/23 51/87/21
f 49/93/24 55/92/23 56/94/24
f 55/92/23 49/93/24 50/91/23
f 48/95/25 56/94/24 57/96/25
f 56/94/24 48/95/25 49/93/24
f 47/97/26 57/96/25 58/98/26
f 57/96/25 47/97/26 48/95/25
f 46/99/27 58/98/26 59/100/27
f 58/98/26 46/99/27 47/97/26
f 46/101/27 60/102/28 45/103/28
f 60/102/28 46/101/27 59/104/27
f 45/103/28 61/105/29 44/106/29
f 61/105/29 45/103/28 60/102/28
f 44/106/29 62/107/30 43/108/30
f 62/107/30 44/106/29 61/105/29
f 43/108/30 63/109/31 42/110/31
f 63/109/31 43/108/30 62/107/30
f 42/110/31 64/111/32 41/112/32
f 64/111/32 42/110/31 63/109/31
f 41/112/32 15/113/33 16/114/33
f 15/113/33 41/112/32 64/111/32
f 30/115/7 6/116/7 5/117/7
f 6/116/7 30/115/7 11/118/7
f 11/118/7 30/115/7 17/119/7
f 9/120/6 14/121/6 8/122/6
f 14/121/6 9/120/6 52/123/6
f 52/124/6 9/125/6 53/126/34
f 15/127/3 29/128/3 30/129/3
f 29/128/3 15/127/3 31/130/3
f 31/130/3 15/127/3 32/131/3
f 32/131/3 15/127/3 33/132/3
f 33/132/3 15/127/3 34/133/3
f 34/133/3 15/127/3 35/134/3
f 35/134/3 15/127/3 36/135/3
f 36/135/3 15/127/3 37/136/3
f 37/136/3 15/127/3 38/137/3
f 38/137/3 15/127/3 39/138/3
f 39/138/3 15/127/3 40/139/3
f 40/139/3 15/127/3 64/140/3
f 40/139/3 64/140/3 12/141/3
f 12/141/3 64/140/3 63/142/3
f 12/141/3 63/142/3 62/143/3
f 12/141/3 62/143/3 61/144/3
f 12/141/3 61/144/3 60/145/3
f 12/141/3 60/145/3 59/146/3
f 12/141/3 59/146/3 58/147/3
f 12/141/3 58/147/3 57/148/3
f 12/141/3 57/148/3 56/149/3
f 12/141/3 56/149/3 55/150/3
f 12/141/3 55/150/3 54/151/3
f 12/141/3 54/151/3 53/152/3
f 15/27/7 5/117/7 7/25/7
f 5/117/7 15/27/7 30/115/7
f 10/21/6 53/153/34 9/154/6
f 53/153/34 10/21/6 12/20/6
