# Blender v2.92.0 OBJ File: 'kenney_OGConvert.blend'
# www.blender.org
o split
v 0.499950 0.146652 -0.499950
v 0.499950 0.000000 -0.399960
v 0.499950 0.000000 -0.499950
v 0.499950 0.063327 -0.399960
v 0.499950 0.146652 -0.399960
v -0.499950 0.000000 -0.399960
v -0.499950 0.000000 -0.499950
v -0.499950 0.000000 -0.049995
v 0.499950 0.000000 -0.049995
v -0.499950 -0.000000 0.049995
v 0.499950 -0.000000 0.049995
v -0.499950 -0.000000 0.399960
v 0.499950 -0.000000 0.399960
v -0.499950 -0.000000 0.499950
v 0.499950 -0.000000 0.499950
v -0.499950 0.146652 -0.499950
v -0.499950 0.146652 0.499950
v 0.499950 0.146652 0.399960
v -0.499950 0.146652 0.399960
v 0.499950 0.146652 0.499950
v -0.499950 0.063327 0.399960
v -0.499950 0.146652 -0.399960
v -0.499950 0.063327 -0.399960
v 0.499950 0.063327 0.399960
v 0.499950 0.063327 -0.049995
v 0.499950 0.063327 0.049995
v 0.499950 0.146652 -0.049995
v 0.499950 0.146652 0.049995
v -0.499950 0.063327 -0.049995
v -0.499950 0.146652 -0.049995
v -0.499950 0.146652 0.049995
v -0.499950 0.063327 0.049995
vt 0.932843 0.002876
vt 0.860353 0.052301
vt 0.860353 0.002876
vt 0.891655 0.052301
vt 0.932843 0.052301
vt 0.002876 0.002876
vt 0.052301 0.497124
vt 0.002876 0.497124
vt 0.052301 0.002876
vt 0.225288 0.497124
vt 0.225288 0.002876
vt 0.274712 0.497124
vt 0.274712 0.002876
vt 0.447699 0.497124
vt 0.447699 0.002876
vt 0.497124 0.497124
vt 0.497124 0.002876
vt 0.153607 0.997124
vt 0.081117 0.502876
vt 0.153607 0.502876
vt 0.081117 0.997124
vt 0.287025 0.502876
vt 0.237600 0.997124
vt 0.237600 0.502876
vt 0.287025 0.997124
vt 0.159358 0.502876
vt 0.231848 0.997124
vt 0.159358 0.997124
vt 0.231848 0.502876
vt 0.002876 0.997124
vt 0.075366 0.947699
vt 0.075366 0.997124
vt 0.044063 0.947699
vt 0.002876 0.947699
vt 0.342201 0.502876
vt 0.292776 0.997124
vt 0.292776 0.502876
vt 0.342201 0.997124
vt 0.502876 0.502876
vt 0.544063 0.997124
vt 0.502876 0.997124
vt 0.544063 0.502876
vt 0.497124 0.997124
vt 0.455937 0.502876
vt 0.497124 0.502876
vt 0.455937 0.997124
vt 0.891655 0.225288
vt 0.860353 0.274712
vt 0.860353 0.225288
vt 0.891655 0.274712
vt 0.932843 0.225288
vt 0.932843 0.274712
vt 0.891655 0.447699
vt 0.860353 0.497124
vt 0.860353 0.447699
vt 0.932843 0.497124
vt 0.932843 0.447699
vt 0.044063 0.552301
vt 0.075366 0.502876
vt 0.075366 0.552301
vt 0.002876 0.502876
vt 0.002876 0.552301
vt 0.389140 0.997124
vt 0.347953 0.502876
vt 0.389140 0.502876
vt 0.347953 0.997124
vt 0.394892 0.502876
vt 0.436079 0.997124
vt 0.394892 0.997124
vt 0.436079 0.502876
vt 0.988019 0.002876
vt 0.938594 0.497124
vt 0.938594 0.002876
vt 0.988019 0.497124
vt 0.044063 0.774712
vt 0.075366 0.725288
vt 0.075366 0.774712
vt 0.044063 0.725288
vt 0.002876 0.774712
vt 0.002876 0.725288
vt 0.675863 0.002876
vt 0.502876 0.497124
vt 0.502876 0.002876
vt 0.675863 0.497124
vt 0.854601 0.002876
vt 0.681614 0.497124
vt 0.681614 0.002876
vt 0.854601 0.497124
vn 1.0000 0.0000 -0.0000
vn -0.0000 -1.0000 -0.0000
vn -0.0000 0.0000 -1.0000
vn 0.0000 1.0000 0.0000
vn 0.0000 0.0000 1.0000
vn -1.0000 0.0000 0.0000
s 1
f 1/1/1 2/2/1 3/3/1
f 2/2/1 1/1/1 4/4/1
f 4/4/1 1/1/1 5/5/1
f 3/6/2 6/7/2 7/8/2
f 6/7/2 3/6/2 2/9/2
f 6/7/2 2/9/2 8/10/2
f 8/10/2 2/9/2 9/11/2
f 8/10/2 9/11/2 10/12/2
f 10/12/2 9/11/2 11/13/2
f 10/12/2 11/13/2 12/14/2
f 12/14/2 11/13/2 13/15/2
f 12/14/2 13/15/2 14/16/2
f 14/16/2 13/15/2 15/17/2
f 1/18/3 7/19/3 16/20/3
f 7/19/3 1/18/3 3/21/3
f 17/22/4 18/23/4 19/24/4
f 18/23/4 17/22/4 20/25/4
f 15/26/5 17/27/5 14/28/5
f 17/27/5 15/26/5 20/29/5
f 17/30/6 12/31/6 14/32/6
f 12/31/6 17/30/6 21/33/6
f 21/33/6 17/30/6 19/34/6
f 22/35/4 1/36/4 16/37/4
f 1/36/4 22/35/4 5/38/4
f 4/39/5 22/40/5 23/41/5
f 22/40/5 4/39/5 5/42/5
f 18/43/3 21/44/3 19/45/3
f 21/44/3 18/43/3 24/46/3
f 25/47/1 11/48/1 9/49/1
f 11/48/1 25/47/1 26/50/1
f 26/50/1 25/47/1 27/51/1
f 26/50/1 27/51/1 28/52/1
f 24/53/1 15/54/1 13/55/1
f 15/54/1 24/53/1 20/56/1
f 20/56/1 24/53/1 18/57/1
f 23/58/6 7/59/6 6/60/6
f 7/59/6 23/58/6 16/61/6
f 16/61/6 23/58/6 22/62/6
f 27/63/3 29/64/3 30/65/3
f 29/64/3 27/63/3 25/66/3
f 26/67/5 31/68/5 32/69/5
f 31/68/5 26/67/5 28/70/5
f 31/71/4 27/72/4 30/73/4
f 27/72/4 31/71/4 28/74/4
f 32/75/6 8/76/6 10/77/6
f 8/76/6 32/75/6 29/78/6
f 29/78/6 32/75/6 31/79/6
f 29/78/6 31/79/6 30/80/6
f 29/81/4 4/82/4 23/83/4
f 4/82/4 29/81/4 25/84/4
f 21/33/6 10/77/6 12/31/6
f 10/77/6 21/33/6 32/75/6
f 21/85/4 26/86/4 32/87/4
f 26/86/4 21/85/4 24/88/4
f 26/50/1 13/55/1 11/48/1
f 13/55/1 26/50/1 24/53/1
f 4/4/1 9/49/1 2/2/1
f 9/49/1 4/4/1 25/47/1
f 29/78/6 6/60/6 8/76/6
f 6/60/6 29/78/6 23/58/6
