# Blender v2.92.0 OBJ File: 'kenney_OGConvert.blend'
# www.blender.org
o tunnelWide
v 0.499950 0.146652 -0.499950
v 0.499950 0.000000 -0.399960
v 0.499950 0.000000 -0.499950
v 0.499950 0.063327 -0.399960
v 0.499950 0.146652 -0.399960
v -0.499950 0.000000 -0.399960
v -0.499950 0.000000 -0.499950
v -0.499950 -0.000000 0.399960
v 0.499950 -0.000000 0.399960
v -0.499950 -0.000000 0.499950
v 0.499950 -0.000000 0.499950
v -0.399960 0.063327 0.399960
v 0.399960 0.063327 0.199980
v -0.399960 0.063327 0.199980
v 0.399960 0.063327 0.399960
v -0.499950 0.146652 -0.499950
v -0.499950 0.146652 0.499950
v -0.399960 0.146652 0.399960
v -0.499950 0.146652 0.399960
v 0.399960 0.146652 0.399960
v 0.499950 0.146652 0.399960
v 0.499950 0.146652 0.499950
v -0.499950 0.063327 0.399960
v -0.499950 0.146652 -0.399960
v -0.399960 0.146652 -0.399960
v 0.399960 0.146652 -0.399960
v -0.399960 0.063327 -0.399960
v 0.399960 0.063327 -0.399960
v 0.499950 0.063327 0.399960
v -0.499950 0.063327 -0.399960
v -0.399960 0.063327 -0.199980
v 0.399960 0.063327 -0.199980
v -0.399960 0.296637 0.399960
v 0.399960 0.296637 -0.399960
v -0.399960 0.296637 -0.399960
v 0.399960 0.296637 0.399960
v -0.399960 0.108247 0.186227
v -0.399960 0.148811 0.162531
v -0.399960 0.182853 0.130158
v -0.399960 0.208557 0.090836
v -0.399960 0.224550 0.046664
v -0.399960 0.229977 0.000000
v -0.399960 0.224550 -0.046663
v -0.399960 0.208557 -0.090835
v -0.399960 0.182853 -0.130158
v -0.399960 0.148811 -0.162531
v -0.399960 0.108247 -0.186227
v 0.399960 0.108247 -0.186227
v 0.399960 0.148811 -0.162531
v 0.399960 0.182853 -0.130158
v 0.399960 0.208557 -0.090836
v 0.399960 0.224550 -0.046664
v 0.399960 0.229977 -0.000000
v 0.399960 0.224550 0.046663
v 0.399960 0.208557 0.090835
v 0.399960 0.182853 0.130158
v 0.399960 0.148811 0.162531
v 0.399960 0.108247 0.186227
vt 0.835551 0.003297
vt 0.780850 0.040593
vt 0.780850 0.003297
vt 0.804471 0.040593
vt 0.835551 0.040593
vt 0.003297 0.003297
vt 0.040593 0.376261
vt 0.003297 0.376261
vt 0.040593 0.003297
vt 0.338965 0.376261
vt 0.338965 0.003297
vt 0.376261 0.376261
vt 0.376261 0.003297
vt 0.766813 0.681227
vt 0.692220 0.681226
vt 0.692220 0.382855
vt 0.766813 0.382855
vt 0.908924 0.755819
vt 0.854592 0.382855
vt 0.908924 0.382855
vt 0.854592 0.755819
vt 0.952814 0.382855
vt 0.915517 0.420151
vt 0.915517 0.382855
vt 0.915517 0.718523
vt 0.915517 0.755819
vt 0.952814 0.755819
vt 0.903439 0.003297
vt 0.957771 0.376261
vt 0.903439 0.376261
vt 0.957771 0.003297
vt 0.842145 0.376261
vt 0.896846 0.338965
vt 0.896846 0.376261
vt 0.873225 0.338965
vt 0.842145 0.338965
vt 0.996703 0.382855
vt 0.959407 0.755819
vt 0.959407 0.382855
vt 0.996703 0.420151
vt 0.996703 0.755819
vt 0.964364 0.003297
vt 0.964364 0.338965
vt 0.964364 0.040593
vt 0.743386 0.003297
vt 0.774256 0.301668
vt 0.743386 0.301668
vt 0.774256 0.003297
vt 0.685627 0.681226
vt 0.654756 0.382855
vt 0.685627 0.382855
vt 0.654756 0.681226
vt 0.804471 0.338965
vt 0.780850 0.376261
vt 0.780850 0.338965
vt 0.835551 0.376261
vt 0.835551 0.338965
vt 0.873225 0.040593
vt 0.896846 0.003297
vt 0.896846 0.040593
vt 0.842145 0.003297
vt 0.842145 0.040593
vt 0.141965 0.725116
vt 0.111095 0.687820
vt 0.141965 0.687820
vt 0.111095 0.725116
vt 0.148558 0.687820
vt 0.179428 0.725116
vt 0.148558 0.725116
vt 0.179428 0.687820
vt 0.186022 0.687820
vt 0.216892 0.725116
vt 0.186022 0.725116
vt 0.216892 0.687820
vt 0.718690 0.345558
vt 0.687820 0.308262
vt 0.718690 0.308262
vt 0.687820 0.345558
vt 0.847999 0.681227
vt 0.773406 0.681226
vt 0.773406 0.382855
vt 0.847999 0.382855
vt 0.382855 0.376261
vt 0.681226 0.338965
vt 0.681226 0.376261
vt 0.606634 0.338965
vt 0.457448 0.338965
vt 0.606634 0.040593
vt 0.382855 0.338965
vt 0.457448 0.040593
vt 0.382855 0.003297
vt 0.681227 0.003297
vt 0.681227 0.040593
vt 0.382855 0.040593
vt 0.301668 0.681226
vt 0.003297 0.382855
vt 0.301668 0.382855
vt 0.003297 0.681226
vt 0.687820 0.003297
vt 0.687820 0.301668
vt 0.599190 0.382855
vt 0.599190 0.681226
vt 0.467898 0.681226
vt 0.498978 0.606634
vt 0.498978 0.681226
vt 0.482223 0.601504
vt 0.467093 0.592665
vt 0.411953 0.681226
vt 0.454395 0.580590
vt 0.444807 0.565922
vt 0.438842 0.549446
vt 0.436818 0.532041
vt 0.411953 0.382855
vt 0.438842 0.514635
vt 0.444807 0.498159
vt 0.454395 0.483491
vt 0.467093 0.471416
vt 0.467898 0.382855
vt 0.482223 0.462578
vt 0.498978 0.382855
vt 0.498978 0.457448
vt 0.536652 0.382855
vt 0.505572 0.457448
vt 0.505572 0.382855
vt 0.522327 0.462578
vt 0.537457 0.471416
vt 0.592597 0.382855
vt 0.550155 0.483491
vt 0.559743 0.498159
vt 0.565708 0.514635
vt 0.567732 0.532041
vt 0.592597 0.681226
vt 0.565708 0.549446
vt 0.559743 0.565922
vt 0.550155 0.580590
vt 0.537457 0.592665
vt 0.536652 0.681226
vt 0.522327 0.601504
vt 0.505572 0.606634
vt 0.505572 0.681226
vt 0.033365 0.687820
vt 0.050602 0.986192
vt 0.033365 0.986192
vt 0.050602 0.687820
vt 0.017311 0.687820
vt 0.017311 0.986192
vt 0.003297 0.687820
vt 0.003297 0.986192
vt 0.390693 0.382855
vt 0.405360 0.681226
vt 0.390693 0.681227
vt 0.405360 0.382855
vt 0.374216 0.382855
vt 0.374216 0.681227
vt 0.356811 0.382855
vt 0.356811 0.681227
vt 0.339405 0.382855
vt 0.339405 0.681227
vt 0.322929 0.382855
vt 0.322929 0.681227
vt 0.308262 0.382855
vt 0.308262 0.681227
vt 0.090487 0.687820
vt 0.104502 0.986192
vt 0.090487 0.986192
vt 0.104501 0.687820
vt 0.074433 0.687820
vt 0.074433 0.986192
vt 0.057196 0.687820
vt 0.057196 0.986192
vn 1.0000 0.0000 -0.0000
vn -0.0000 -1.0000 -0.0000
vn 0.0000 -0.7071 0.7071
vn -0.0000 0.0000 -1.0000
vn 0.0000 1.0000 0.0000
vn 0.0000 0.0000 1.0000
vn -1.0000 0.0000 0.0000
vn -0.0000 -0.7071 -0.7071
vn -0.0000 -0.4013 -0.9160
vn -0.0000 -0.2928 -0.9562
vn -0.0000 -0.6008 -0.7994
vn -0.0000 -0.7682 -0.6402
vn -0.0000 -0.8946 -0.4468
vn -0.0000 -0.9733 -0.2295
vn 0.0000 -0.9733 0.2295
vn 0.0000 -0.8946 0.4468
vn 0.0000 -0.7682 0.6402
vn 0.0000 -0.6008 0.7994
vn 0.0000 -0.4013 0.9160
vn 0.0000 -0.2928 0.9562
s 1
f 1/1/1 2/2/1 3/3/1
f 2/2/1 1/1/1 4/4/1
f 4/4/1 1/1/1 5/5/1
f 3/6/2 6/7/2 7/8/2
f 6/7/2 3/6/2 2/9/2
f 6/7/2 2/9/2 8/10/2
f 8/10/2 2/9/2 9/11/2
f 8/10/2 9/11/2 10/12/2
f 10/12/2 9/11/2 11/13/2
f 12/14/3 14/15/2 13/16/2
f 13/16/2 15/17/3 12/14/3
f 1/18/4 7/19/4 16/20/4
f 7/19/4 1/18/4 3/21/4
f 17/22/5 18/23/5 19/24/5
f 18/23/5 17/22/5 20/25/5
f 20/25/5 17/22/5 21/26/5
f 21/26/5 17/22/5 22/27/5
f 11/28/6 17/29/6 10/30/6
f 17/29/6 11/28/6 22/31/6
f 17/32/7 8/33/7 10/34/7
f 8/33/7 17/32/7 23/35/7
f 23/35/7 17/32/7 19/36/7
f 24/37/5 1/38/5 16/39/5
f 1/38/5 24/37/5 25/40/5
f 1/38/5 25/40/5 5/41/5
f 5/42/5 25/43/5 26/44/2
f 26/45/4 27/46/8 25/47/4
f 27/46/8 26/45/4 28/48/8
f 15/49/3 18/50/6 12/51/3
f 18/50/6 15/49/3 20/52/6
f 29/53/1 11/54/1 9/55/1
f 11/54/1 29/53/1 22/56/1
f 22/56/1 29/53/1 21/57/1
f 30/58/7 7/59/7 6/60/7
f 7/59/7 30/58/7 16/61/7
f 16/61/7 30/58/7 24/62/7
f 18/63/4 23/64/4 19/65/4
f 23/64/4 18/63/4 12/66/4
f 27/67/6 24/68/6 30/69/6
f 24/68/6 27/67/6 25/70/6
f 4/71/6 26/72/6 28/73/6
f 26/72/6 4/71/6 5/74/6
f 21/75/4 15/76/4 20/77/4
f 15/76/4 21/75/4 29/78/4
f 31/79/2 27/80/8 28/81/8
f 28/81/8 32/82/2 31/79/2
f 4/4/1 9/55/1 2/2/1
f 9/55/1 4/4/1 29/53/1
f 23/35/7 6/60/7 8/33/7
f 6/60/7 23/35/7 30/58/7
f 23/83/5 27/84/5 30/85/5
f 27/84/5 23/83/5 31/86/5
f 31/86/5 23/83/5 14/87/5
f 31/86/5 14/87/5 32/88/5
f 14/87/5 23/83/5 12/89/5
f 13/90/5 32/88/5 14/87/5
f 29/91/5 32/88/5 13/90/5
f 4/92/5 32/88/5 29/91/5
f 32/88/5 4/92/5 28/93/5
f 29/91/5 13/90/5 15/94/5
f 33/95/5 34/96/5 35/97/5
f 34/96/5 33/95/5 36/98/5
f 34/99/4 25/47/4 35/100/4
f 25/47/4 34/99/4 26/45/4
f 20/52/6 33/101/6 18/50/6
f 33/101/6 20/52/6 36/102/6
f 18/103/7 14/104/7 12/105/7
f 14/104/7 18/103/7 37/106/7
f 37/106/7 18/103/7 38/107/7
f 38/107/7 18/103/7 33/108/7
f 38/107/7 33/108/7 39/109/7
f 39/109/7 33/108/7 40/110/7
f 40/110/7 33/108/7 41/111/7
f 41/111/7 33/108/7 42/112/7
f 35/113/7 42/112/7 33/108/7
f 35/113/7 43/114/7 42/112/7
f 35/113/7 44/115/7 43/114/7
f 35/113/7 45/116/7 44/115/7
f 35/113/7 46/117/7 45/116/7
f 25/118/7 46/117/7 35/113/7
f 25/118/7 47/119/7 46/117/7
f 27/120/7 47/119/7 25/118/7
f 47/119/7 27/120/7 31/121/7
f 26/122/1 32/123/1 28/124/1
f 32/123/1 26/122/1 48/125/1
f 48/125/1 26/122/1 49/126/1
f 49/126/1 26/122/1 34/127/1
f 49/126/1 34/127/1 50/128/1
f 50/128/1 34/127/1 51/129/1
f 51/129/1 34/127/1 52/130/1
f 52/130/1 34/127/1 53/131/1
f 36/132/1 53/131/1 34/127/1
f 36/132/1 54/133/1 53/131/1
f 36/132/1 55/134/1 54/133/1
f 36/132/1 56/135/1 55/134/1
f 36/132/1 57/136/1 56/135/1
f 20/137/1 57/136/1 36/132/1
f 20/137/1 58/138/1 57/136/1
f 20/137/1 13/139/1 58/138/1
f 13/139/1 20/137/1 15/140/1
f 58/141/9 14/142/10 37/143/9
f 14/142/10 58/141/9 13/144/10
f 57/145/11 37/143/9 38/146/11
f 37/143/9 57/145/11 58/141/9
f 56/147/12 38/146/11 39/148/12
f 38/146/11 56/147/12 57/145/11
f 55/149/13 39/150/12 40/151/13
f 39/150/12 55/149/13 56/152/12
f 54/153/14 40/151/13 41/154/14
f 40/151/13 54/153/14 55/149/13
f 53/155/2 41/154/14 42/156/2
f 41/154/14 53/155/2 54/153/14
f 52/157/15 42/156/2 43/158/15
f 42/156/2 52/157/15 53/155/2
f 51/159/16 43/158/15 44/160/16
f 43/158/15 51/159/16 52/157/15
f 50/161/17 44/160/16 45/162/17
f 44/160/16 50/161/17 51/159/16
f 49/163/18 45/164/17 46/165/18
f 45/164/17 49/163/18 50/166/17
f 48/167/19 46/165/18 47/168/19
f 46/165/18 48/167/19 49/163/18
f 32/169/20 47/168/19 31/170/20
f 47/168/19 32/169/20 48/167/19
