# Blender v2.92.0 OBJ File: 'OGConvert.blend'
# www.blender.org
o path_intersectionG
v 3.017701 0.200000 0.956000
v 2.115352 -0.000000 0.917839
v 3.000000 -0.000000 1.116000
v 1.879898 0.200000 0.701132
v -2.466485 0.000000 -2.040076
v -2.026623 0.200000 -1.170071
v -2.319070 0.200000 -2.104747
v -2.231234 0.000000 -1.288203
v -3.017701 0.200000 0.956000
v -4.000000 -0.000000 1.116000
v -3.000000 -0.000000 1.116000
v -4.000000 0.200000 0.956000
v -0.385670 -0.000000 0.668000
v 0.068909 0.200000 1.135354
v -0.293294 0.200000 0.508000
v -0.078505 -0.000000 1.200026
v 0.533516 0.000000 -3.156076
v 1.172079 0.200000 -3.942102
v 1.033515 0.000000 -4.022101
v 0.680930 0.200000 -3.091405
v -0.152965 0.200000 -1.404000
v 0.035378 0.000000 -1.564000
v -0.035378 0.000000 -1.564000
v 0.152965 0.200000 -1.404000
v -4.000000 0.200000 -0.956000
v -3.000000 0.000000 -1.116000
v -4.000000 0.000000 -1.116000
v -2.982299 0.200000 -0.956000
v 2.319070 0.200000 2.104747
v 2.966484 -0.000000 2.906102
v 2.466484 -0.000000 2.040076
v 2.827921 0.200000 2.986102
v 4.000000 0.200000 0.956000
v 4.000000 -0.000000 1.116000
v 2.982299 0.200000 -0.956000
v 4.000000 0.000000 -1.116000
v 3.000000 0.000000 -1.116000
v 4.000000 0.200000 -0.956000
v -2.966484 0.000000 -2.906102
v -2.827921 0.200000 -2.986102
v -1.172080 0.200000 -3.942102
v -0.533516 0.000000 -3.156076
v -1.033516 0.000000 -4.022101
v -0.680930 0.200000 -3.091405
v 2.026623 0.200000 -1.170071
v 2.231234 0.000000 -1.288203
v 2.319070 0.200000 -2.104747
v 2.966484 0.000000 -2.906102
v 2.827920 0.200000 -2.986102
v 2.466484 0.000000 -2.040076
v -1.000000 -0.000000 0.668000
v -1.017701 0.200000 0.508000
v 0.680930 0.200000 3.091406
v 0.533516 -0.000000 3.156076
v 1.172080 0.200000 3.942102
v 1.033516 -0.000000 4.022101
vt 0.404223 0.878819
vt 0.458046 0.781422
vt 0.422194 0.887212
vt 0.450334 0.742756
vt 0.440478 0.109697
vt 0.503832 0.211747
vt 0.424224 0.121064
vt 0.504516 0.182645
vt 0.857188 0.116247
vt 0.881830 0.001574
vt 0.881830 0.108279
vt 0.857188 0.011431
vt 0.592065 0.502234
vt 0.612105 0.580024
vt 0.569308 0.501699
vt 0.628359 0.568658
vt 0.937412 0.523939
vt 0.912770 0.407378
vt 0.937412 0.417235
vt 0.912770 0.512194
vt 0.881830 0.792252
vt 0.857188 0.822206
vt 0.857188 0.814656
vt 0.881830 0.824896
vt 0.857188 0.661456
vt 0.881830 0.544895
vt 0.881830 0.651599
vt 0.857188 0.552863
vt 0.330211 0.403474
vt 0.128110 0.373501
vt 0.130754 0.353844
vt 0.339511 0.426103
vt 0.569882 0.878936
vt 0.612708 0.998426
vt 0.553628 0.890303
vt 0.630008 0.988973
vt 0.912770 0.643649
vt 0.937412 0.527088
vt 0.937412 0.633792
vt 0.912770 0.538834
vt 0.909621 0.792252
vt 0.884979 0.910702
vt 0.884979 0.803998
vt 0.909621 0.900845
vt 0.381398 0.001574
vt 0.364098 0.011027
vt 0.157367 0.123988
vt 0.199148 0.241564
vt 0.140067 0.133441
vt 0.215401 0.230197
vt 0.244030 0.638256
vt 0.187329 0.744147
vt 0.218484 0.652214
vt 0.205299 0.752540
vt 0.909621 0.398181
vt 0.884979 0.279731
vt 0.909621 0.289588
vt 0.884979 0.386435
vt 0.881830 0.452256
vt 0.857188 0.437701
vt 0.857188 0.434552
vt 0.881830 0.349286
vt 0.881830 0.414838
vt 0.857188 0.357255
vt 0.778705 0.769803
vt 0.794959 0.758436
vt 0.836739 0.876012
vt 0.854039 0.866559
vt 0.124288 0.628776
vt 0.126932 0.609119
vt 0.334747 0.396029
vt 0.359120 0.393911
vt 0.937412 0.279731
vt 0.912770 0.289588
vt 0.615740 0.425472
vt 0.007113 0.370656
vt 0.001574 0.606171
vt 0.341260 0.982183
vt 0.140068 0.859629
vt 0.791076 0.243735
vt 0.587614 0.124906
vt 0.652846 0.017817
vt 0.854039 0.140371
vt 0.881830 0.789103
vt 0.857188 0.779246
vt 0.912770 0.256869
vt 0.937412 0.001574
vt 0.937412 0.276582
vt 0.912770 0.021288
vt 0.884979 0.256869
vt 0.909621 0.001574
vt 0.909621 0.276582
vt 0.884979 0.021288
vt 0.912770 0.761439
vt 0.937412 0.771296
vn -0.1707 0.6247 0.7620
vn -0.7452 0.6247 0.2332
vn 0.0000 0.6247 0.7809
vn -0.6763 0.6247 0.3904
vn -0.6763 0.6247 -0.3904
vn 0.0000 0.6247 -0.7809
vn -0.7452 0.6247 -0.2332
vn 0.6763 0.6247 -0.3904
vn 0.7452 0.6247 -0.2332
vn 0.1707 0.6247 -0.7620
vn 0.6763 0.6247 0.3904
vn -0.1707 0.6247 -0.7620
vn 0.1707 0.6247 0.7620
vn 0.7452 0.6247 0.2332
vn 0.5000 -0.0000 -0.8660
vn 0.0000 1.0000 0.0000
vn -1.0000 0.0000 0.0000
vn 0.5000 -0.0000 0.8660
vn -0.5000 -0.0000 -0.8660
vn 1.0000 0.0000 0.0000
s 1
f 1/1/1 2/2/1 3/3/1
f 2/2/1 1/1/1 4/4/1
f 5/5/2 6/6/2 7/7/2
f 6/6/2 5/5/2 8/8/2
f 9/9/3 10/10/3 11/11/3
f 10/10/3 9/9/3 12/12/3
f 13/13/4 14/14/4 15/15/4
f 14/14/4 13/13/4 16/16/4
f 17/17/5 18/18/5 19/19/5
f 18/18/5 17/17/5 20/20/5
f 21/21/6 22/22/6 23/23/6
f 22/22/6 21/21/6 24/24/6
f 25/25/6 26/26/6 27/27/6
f 26/26/6 25/25/6 28/28/6
f 22/29/7 20/30/7 17/31/7
f 20/30/7 22/29/7 24/32/7
f 29/33/8 30/34/8 31/35/8
f 30/34/8 29/33/8 32/36/8
f 29/33/9 2/2/9 4/4/9
f 2/2/9 29/33/9 31/35/9
f 33/37/3 3/38/3 34/39/3
f 3/38/3 33/37/3 1/40/3
f 35/41/6 36/42/6 37/43/6
f 36/42/6 35/41/6 38/44/6
f 39/45/4 7/7/4 40/46/4
f 7/7/4 39/45/4 5/5/4
f 41/47/8 42/48/8 43/49/8
f 42/48/8 41/47/8 44/50/8
f 45/51/10 37/52/10 46/53/10
f 37/52/10 45/51/10 35/54/10
f 47/55/11 48/56/11 49/57/11
f 48/56/11 47/55/11 50/58/11
f 28/28/12 8/59/12 26/26/12
f 8/59/12 28/28/12 6/60/12
f 15/61/3 51/62/3 13/63/3
f 51/62/3 15/61/3 52/64/3
f 52/64/13 11/11/13 51/62/13
f 11/11/13 52/64/13 9/9/13
f 16/16/2 53/65/2 14/14/2
f 53/65/2 16/16/2 54/66/2
f 54/66/4 55/67/4 53/65/4
f 55/67/4 54/66/4 56/68/4
f 45/51/14 50/69/14 47/70/14
f 50/69/14 45/51/14 46/53/14
f 44/50/9 23/71/9 42/48/9
f 23/71/9 44/50/9 21/72/9
f 18/18/15 48/73/15 19/19/15
f 48/73/15 18/18/15 49/74/15
f 41/47/16 7/7/16 6/6/16
f 7/7/16 41/47/16 40/46/16
f 52/75/16 41/47/16 6/6/16
f 52/75/16 44/50/16 41/47/16
f 15/15/16 44/50/16 52/75/16
f 15/15/16 21/72/16 44/50/16
f 14/14/16 21/72/16 15/15/16
f 14/14/16 24/32/16 21/72/16
f 14/14/16 20/30/16 24/32/16
f 53/65/16 20/30/16 14/14/16
f 53/65/16 18/76/16 20/30/16
f 55/67/16 18/76/16 53/65/16
f 4/4/16 18/76/16 55/67/16
f 45/51/16 18/76/16 4/4/16
f 47/70/16 18/76/16 45/51/16
f 18/76/16 47/70/16 49/77/16
f 55/67/16 29/33/16 4/4/16
f 29/33/16 55/67/16 32/36/16
f 4/4/16 35/54/16 45/51/16
f 1/1/16 35/54/16 4/4/16
f 33/78/16 35/54/16 1/1/16
f 35/54/16 33/78/16 38/79/16
f 52/75/16 6/6/16 9/80/16
f 9/80/16 6/6/16 28/81/16
f 9/80/16 28/81/16 25/82/16
f 9/80/16 25/82/16 12/83/16
f 10/84/17 25/25/17 27/27/17
f 25/25/17 10/84/17 12/85/17
f 32/86/18 56/87/18 30/88/18
f 56/87/18 32/86/18 55/89/18
f 40/90/19 43/91/19 39/92/19
f 43/91/19 40/90/19 41/93/19
f 38/94/20 34/39/20 36/95/20
f 34/39/20 38/94/20 33/37/20
