# Blender v2.92.0 OBJ File: 'kenney_OGConvert.blend'
# www.blender.org
o path_intersectionH
v 0.253328 0.025000 -0.146259
v 0.375000 0.000000 -0.139500
v 0.278904 0.000000 -0.161025
v 0.372787 0.025000 -0.119500
v 0.289884 0.025000 -0.263093
v 0.370810 0.000000 -0.363263
v 0.353490 0.025000 -0.373263
v 0.308310 0.000000 -0.255010
v 0.004422 0.000000 -0.195500
v 0.085116 0.025000 -0.386426
v 0.066689 0.000000 -0.394509
v 0.019121 0.025000 -0.175500
v -0.370811 0.000000 -0.363263
v -0.289884 0.025000 -0.263093
v -0.353490 0.025000 -0.373263
v -0.308311 0.000000 -0.255009
v 0.127213 0.025000 0.063500
v -0.125000 -0.000000 0.083500
v 0.125000 -0.000000 0.083500
v -0.127213 0.025000 0.063500
v 0.500000 0.025000 0.119500
v 0.375000 -0.000000 0.139500
v 0.500000 -0.000000 0.139500
v 0.377213 0.025000 0.119500
v -0.019121 0.025000 -0.175500
v -0.004422 0.000000 -0.195500
v -0.375000 -0.000000 0.139500
v -0.377213 0.025000 0.119500
v -0.500000 0.025000 -0.119500
v -0.375000 0.000000 -0.139500
v -0.500000 0.000000 -0.139500
v -0.372787 0.025000 -0.119500
v -0.146510 0.025000 -0.492763
v -0.066690 0.000000 -0.394509
v -0.129190 0.000000 -0.502763
v -0.085116 0.025000 -0.386426
v -0.278904 0.000000 -0.161025
v -0.253328 0.025000 -0.146259
v -0.500000 -0.000000 0.139500
v -0.500000 0.025000 0.119500
v 0.500000 0.000000 -0.139500
v 0.500000 0.025000 -0.119500
v 0.146510 0.025000 -0.492763
v 0.129189 0.000000 -0.502763
vt 0.286351 0.247372
vt 0.279610 0.126036
vt 0.301076 0.221866
vt 0.259666 0.128242
vt 0.714976 0.392237
vt 0.690045 0.292344
vt 0.714976 0.282372
vt 0.690045 0.400299
vt 0.335456 0.495590
vt 0.525854 0.415119
vt 0.533916 0.433495
vt 0.315511 0.480932
vt 0.502755 0.869786
vt 0.402862 0.789083
vt 0.512727 0.852514
vt 0.394801 0.807459
vt 0.077171 0.373139
vt 0.057226 0.624655
vt 0.057226 0.375345
vt 0.077171 0.626861
vt 0.021326 0.001381
vt 0.001381 0.126036
vt 0.001381 0.001381
vt 0.021326 0.123829
vt 0.714976 0.511510
vt 0.690045 0.541815
vt 0.690045 0.534177
vt 0.714976 0.544537
vt 0.001381 0.873964
vt 0.021326 0.876171
vt 0.634659 0.227758
vt 0.659590 0.109831
vt 0.659590 0.217785
vt 0.634659 0.117893
vt 0.659590 0.369634
vt 0.634659 0.467616
vt 0.634659 0.359662
vt 0.659590 0.475677
vt 0.659590 0.016107
vt 0.634659 0.001381
vt 0.714976 0.508749
vt 0.690045 0.494023
vt 0.001381 0.998619
vt 0.021326 0.998619
vt 0.687283 0.563363
vt 0.662352 0.683201
vt 0.662352 0.575246
vt 0.687283 0.673228
vt 0.634659 0.666076
vt 0.659590 0.686021
vt 0.714976 0.248450
vt 0.690045 0.130523
vt 0.714976 0.140496
vt 0.690045 0.236567
vt 0.286351 0.752628
vt 0.301076 0.778134
vt 0.662352 0.259666
vt 0.687283 0.001381
vt 0.687283 0.279610
vt 0.662352 0.021326
vt 0.659590 0.356900
vt 0.634659 0.346928
vt 0.631897 0.353895
vt 0.402862 0.210917
vt 0.512727 0.147486
vt 0.259666 0.001381
vt 0.315511 0.519068
vt 0.525854 0.584881
vt 0.631897 0.646105
vt 0.259666 0.871758
vt 0.259666 0.998619
vt 0.662352 0.540657
vt 0.687283 0.282372
vt 0.687283 0.560601
vt 0.662352 0.302317
vt 0.714976 0.001381
vt 0.690045 0.011353
vn 0.1707 0.6247 -0.7620
vn 0.6763 0.6247 0.3904
vn -0.7452 0.6247 -0.2332
vn -0.6763 0.6247 0.3904
vn 0.0000 0.6247 0.7809
vn 0.0000 0.6247 -0.7809
vn -0.1707 0.6247 0.7620
vn 0.1707 0.6247 0.7620
vn 0.6763 0.6247 -0.3904
vn -0.1707 0.6247 -0.7620
vn 0.7452 0.6247 0.2332
vn 0.7452 0.6247 -0.2332
vn -0.6763 0.6247 -0.3904
vn -0.7452 0.6247 0.2332
vn -0.5000 -0.0000 -0.8660
vn -1.0000 0.0000 0.0000
vn -0.0000 1.0000 0.0000
vn 1.0000 0.0000 -0.0000
vn 0.5000 -0.0000 -0.8660
s 1
f 1/1/1 2/2/1 3/3/1
f 2/2/1 1/1/1 4/4/1
f 5/5/2 6/6/2 7/7/2
f 6/6/2 5/5/2 8/8/2
f 9/9/3 10/10/3 11/11/3
f 10/10/3 9/9/3 12/12/3
f 13/13/4 14/14/4 15/15/4
f 14/14/4 13/13/4 16/16/4
f 17/17/5 18/18/5 19/19/5
f 18/18/5 17/17/5 20/20/5
f 21/21/5 22/22/5 23/23/5
f 22/22/5 21/21/5 24/24/5
f 25/25/6 9/26/6 26/27/6
f 9/26/6 25/25/6 12/28/6
f 24/24/7 19/19/7 22/22/7
f 19/19/7 24/24/7 17/17/7
f 20/20/8 27/29/8 18/18/8
f 27/29/8 20/20/8 28/30/8
f 29/31/6 30/32/6 31/33/6
f 30/32/6 29/31/6 32/34/6
f 33/35/9 34/36/9 35/37/9
f 34/36/9 33/35/9 36/38/9
f 32/34/10 37/39/10 30/32/10
f 37/39/10 32/34/10 38/40/10
f 1/41/11 8/8/11 5/5/11
f 8/8/11 1/41/11 3/42/11
f 28/30/5 39/43/5 27/29/5
f 39/43/5 28/30/5 40/44/5
f 4/45/6 41/46/6 2/47/6
f 41/46/6 4/45/6 42/48/6
f 36/38/12 26/49/12 34/36/12
f 26/49/12 36/38/12 25/50/12
f 11/51/13 43/52/13 44/53/13
f 43/52/13 11/51/13 10/54/13
f 16/16/14 38/55/14 14/14/14
f 38/55/14 16/16/14 37/56/14
f 15/57/15 35/58/15 13/59/15
f 35/58/15 15/57/15 33/60/15
f 39/61/16 29/31/16 31/33/16
f 29/31/16 39/61/16 40/62/16
f 43/63/17 5/64/17 7/65/17
f 5/64/17 43/63/17 1/1/17
f 17/17/17 1/1/17 43/63/17
f 17/17/17 4/4/17 1/1/17
f 24/24/17 4/4/17 17/17/17
f 21/21/17 4/4/17 24/24/17
f 4/4/17 21/21/17 42/66/17
f 17/17/17 43/63/17 10/10/17
f 17/17/17 10/10/17 12/12/17
f 17/17/17 12/12/17 20/20/17
f 20/20/17 12/12/17 25/67/17
f 20/20/17 25/67/17 36/68/17
f 20/20/17 36/68/17 33/69/17
f 20/20/17 33/69/17 38/55/17
f 33/69/17 14/14/17 38/55/17
f 14/14/17 33/69/17 15/15/17
f 20/20/17 38/55/17 28/30/17
f 28/30/17 38/55/17 32/70/17
f 28/30/17 32/70/17 29/71/17
f 28/30/17 29/71/17 40/44/17
f 42/72/18 23/73/18 41/74/18
f 23/73/18 42/72/18 21/75/18
f 43/52/19 6/76/19 44/53/19
f 6/76/19 43/52/19 7/77/19
