# Blender v2.92.0 OBJ File: 'kenney_OGConvert.blend'
# www.blender.org
o path_start
v -0.377213 0.025000 0.119500
v -0.500000 -0.000000 0.139500
v -0.375000 -0.000000 0.139500
v -0.500000 0.025000 0.119500
v -0.500000 0.025000 -0.119500
v -0.375000 0.000000 -0.139500
v -0.500000 0.000000 -0.139500
v -0.372787 0.025000 -0.119500
v 0.108453 0.025000 -0.243846
v 0.240000 0.000000 -0.056000
v 0.120000 0.000000 -0.263846
v 0.216906 0.025000 -0.056000
v -0.155513 -0.000000 0.090335
v -0.108453 0.025000 0.131846
v -0.145542 0.025000 0.067606
v -0.120000 -0.000000 0.151846
v 0.108453 0.025000 0.131846
v 0.120000 -0.000000 0.151846
v -0.164578 0.000000 -0.186634
v -0.108453 0.025000 -0.243846
v -0.120000 0.000000 -0.263846
v -0.151645 0.025000 -0.169036
v 0.063702 0.000000 -0.263846
v 0.063702 0.025000 -0.243846
vt 0.518000 0.166589
vt 0.544973 0.000988
vt 0.544973 0.169573
vt 0.518000 0.000988
vt 0.195665 0.000988
vt 0.168691 0.169573
vt 0.168691 0.000988
vt 0.195665 0.172557
vt 0.027962 0.821597
vt 0.281306 0.999012
vt 0.000988 0.837170
vt 0.281306 0.967865
vt 0.597318 0.539746
vt 0.563601 0.595731
vt 0.563601 0.509091
vt 0.597318 0.622705
vt 0.534651 0.821597
vt 0.561624 0.837170
vt 0.597318 0.483380
vt 0.563601 0.406220
vt 0.597318 0.379247
vt 0.563601 0.507115
vt 0.027962 0.529060
vt 0.000988 0.761242
vt 0.000988 0.513487
vt 0.027962 0.761242
vt 0.561624 0.513487
vt 0.534651 0.529060
vt 0.105122 0.453365
vt 0.128857 0.470808
vt 0.478665 0.465591
vt 0.448011 0.479039
vt 0.597318 0.377270
vt 0.563601 0.027962
vt 0.597318 0.000988
vt 0.563601 0.350296
vn 0.0000 0.6247 0.7809
vn -0.0000 0.6247 -0.7809
vn 0.6763 0.6247 -0.3904
vn -0.6763 0.6247 0.3904
vn 0.6763 0.6247 0.3904
vn -0.6763 0.6247 -0.3904
vn -0.0000 0.6246 -0.7810
vn -1.0000 0.0000 -0.0000
vn -0.1707 0.6247 -0.7620
vn 0.1707 0.6247 0.7620
vn 0.0000 1.0000 0.0000
s 1
f 1/1/1 2/2/1 3/3/1
f 2/2/1 1/1/1 4/4/1
f 5/5/2 6/6/2 7/7/2
f 6/6/2 5/5/2 8/8/2
f 9/9/3 10/10/3 11/11/3
f 10/10/3 9/9/3 12/12/3
f 13/13/4 14/14/4 15/15/4
f 14/14/4 13/13/4 16/16/4
f 17/17/5 10/10/5 12/12/5
f 10/10/5 17/17/5 18/18/5
f 19/19/6 20/20/6 21/21/6
f 20/20/6 19/19/6 22/22/6
f 20/23/7 23/24/2 21/25/2
f 23/24/2 20/23/7 11/11/2
f 11/11/2 20/23/7 9/9/7
f 9/9/7 20/23/7 24/26/8
f 17/17/1 16/27/1 18/18/1
f 16/27/1 17/17/1 14/28/1
f 8/8/9 19/29/9 6/6/9
f 19/29/9 8/8/9 22/30/9
f 13/31/10 1/1/10 3/3/10
f 1/1/10 13/31/10 15/32/10
f 2/33/8 5/34/8 7/35/8
f 5/34/8 2/33/8 4/36/8
f 9/9/11 17/17/11 12/12/11
f 17/17/11 9/9/11 14/28/11
f 14/28/11 9/9/11 24/26/11
f 14/28/11 24/26/11 20/23/11
f 14/28/11 20/23/11 22/30/11
f 14/28/11 22/30/11 15/32/11
f 15/32/11 22/30/11 1/1/11
f 1/1/11 22/30/11 8/8/11
f 1/1/11 8/8/11 5/5/11
f 1/1/11 5/5/11 4/4/11
