# Blender v2.92.0 OBJ File: 'OGConvert.blend'
# www.blender.org
o path_intersectionE
v 1.256543 -0.000000 0.725466
v 2.336770 0.200000 2.135406
v 2.466484 -0.000000 2.040076
v 0.948791 0.200000 0.627355
v 0.982299 0.200000 -1.404000
v 3.000000 0.000000 -1.116000
v 1.000000 0.000000 -1.564000
v 2.982299 0.200000 -0.956000
v 1.017701 0.200000 0.508000
v -1.172080 0.200000 -3.942102
v -0.533516 0.000000 -3.156076
v -1.033516 0.000000 -4.022101
v -0.680930 0.200000 -3.091406
v 3.017701 0.200000 0.956000
v 3.000000 -0.000000 1.116000
v -4.000000 0.200000 -0.956000
v -3.000000 0.000000 -1.116000
v -4.000000 0.000000 -1.116000
v -2.982299 0.200000 -0.956000
v 0.533516 -0.000000 3.156076
v 1.172080 0.200000 3.942102
v 0.663229 0.200000 3.060747
v 1.033516 -0.000000 4.022101
v -0.152965 0.200000 -1.404000
v -0.035378 0.000000 -1.564000
v -2.966484 0.000000 -2.906102
v -2.319070 0.200000 -2.104747
v -2.827920 0.200000 -2.986102
v -2.466484 0.000000 -2.040076
v -3.017701 0.200000 0.956000
v -4.000000 -0.000000 1.116000
v -3.000000 -0.000000 1.116000
v -4.000000 0.200000 0.956000
v -0.724750 0.200000 1.552696
v -0.854464 -0.000000 1.648026
v -2.026623 0.200000 -1.170071
v -2.231234 0.000000 -1.288203
v -1.292382 0.200000 0.569529
v -1.372153 -0.000000 0.751362
v 4.000000 0.000000 -1.116000
v 4.000000 0.200000 -0.956000
v 4.000000 0.200000 0.956000
v 4.000000 -0.000000 1.116000
v 2.966484 -0.000000 2.906102
v 2.827920 0.200000 2.986102
vt 0.354417 0.678792
vt 0.433613 0.882309
vt 0.415241 0.890455
vt 0.363839 0.639500
vt 0.147788 0.512774
vt 0.048686 0.744244
vt 0.129790 0.504981
vt 0.066683 0.752036
vt 0.346852 0.639101
vt 0.018706 0.123239
vt 0.060503 0.241465
vt 0.001380 0.133300
vt 0.076782 0.229490
vt 0.265747 0.878363
vt 0.283716 0.887364
vt 0.718619 0.225290
vt 0.743279 0.108649
vt 0.743279 0.215427
vt 0.718619 0.116622
vt 0.656736 0.758535
vt 0.698562 0.875553
vt 0.638392 0.765473
vt 0.715859 0.866700
vt 0.770698 0.557297
vt 0.746039 0.690271
vt 0.746039 0.579716
vt 0.770698 0.678518
vt 0.242875 0.001380
vt 0.285747 0.120312
vt 0.225578 0.010233
vt 0.301998 0.109545
vt 0.718619 0.470538
vt 0.743279 0.355786
vt 0.743279 0.462564
vt 0.718619 0.365650
vt 0.568618 0.522665
vt 0.586962 0.515727
vt 0.365412 0.211031
vt 0.366082 0.182521
vt 0.718619 0.678589
vt 0.743279 0.658862
vt 0.798118 0.248517
vt 0.773459 0.367049
vt 0.773459 0.260271
vt 0.798118 0.357185
vt 0.773459 0.118022
vt 0.798118 0.001380
vt 0.798118 0.108158
vt 0.773459 0.013134
vt 0.525748 0.403735
vt 0.501498 0.399869
vt 0.743279 0.015945
vt 0.718620 0.001380
vt 0.196199 0.395989
vt 0.220603 0.393267
vt 0.474364 0.998620
vt 0.491690 0.988559
vt 0.743279 0.353026
vt 0.718619 0.343162
vt 0.746039 0.256851
vt 0.770698 0.001380
vt 0.770698 0.276578
vt 0.746039 0.021108
vt 0.001409 0.859167
vt 0.202743 0.981768
vt 0.652855 0.243030
vt 0.449250 0.124155
vt 0.514525 0.017024
vt 0.715859 0.139625
vt 0.746039 0.534809
vt 0.770698 0.279338
vt 0.770698 0.554536
vt 0.746039 0.299066
vt 0.773459 0.235893
vt 0.798118 0.245757
vn 0.5746 0.6247 -0.5288
vn 0.1707 0.6247 -0.7620
vn 0.4636 0.8447 0.2677
vn 0.6763 0.6247 -0.3904
vn -0.1707 0.6247 0.7620
vn 0.0000 0.6247 -0.7809
vn -0.6763 0.6247 0.3904
vn 0.0000 0.6247 0.7809
vn -0.5746 0.6247 0.5288
vn -0.7452 0.6247 0.2332
vn 0.1707 0.6247 0.7620
vn -0.1707 0.6247 -0.7620
vn 0.7452 0.6247 -0.2332
vn -1.0000 0.0000 0.0000
vn -0.5000 -0.0000 -0.8660
vn -0.0000 1.0000 0.0000
vn 0.5000 -0.0000 0.8660
vn 1.0000 0.0000 0.0000
s 1
f 1/1/1 2/2/1 3/3/1
f 2/2/1 1/1/1 4/4/1
f 5/5/2 6/6/2 7/7/2
f 6/6/2 5/5/2 8/8/2
f 4/4/3 1/1/3 9/9/3
f 10/10/4 11/11/4 12/12/4
f 11/11/4 10/10/4 13/13/4
f 14/14/5 1/1/5 15/15/5
f 1/1/5 14/14/5 9/9/5
f 16/16/6 17/17/6 18/18/6
f 17/17/6 16/16/6 19/19/6
f 20/20/7 21/21/7 22/22/7
f 21/21/7 20/20/7 23/23/7
f 24/24/6 7/25/6 25/26/6
f 7/25/6 24/24/6 5/27/6
f 26/28/7 27/29/7 28/30/7
f 27/29/7 26/28/7 29/31/7
f 30/32/8 31/33/8 32/34/8
f 31/33/8 30/32/8 33/35/8
f 34/36/9 20/20/9 22/22/9
f 20/20/9 34/36/9 35/37/9
f 29/31/10 36/38/10 27/29/10
f 36/38/10 29/31/10 37/39/10
f 38/40/11 32/34/11 39/41/11
f 32/34/11 38/40/11 30/32/11
f 8/42/6 40/43/6 6/44/6
f 40/43/6 8/42/6 41/45/6
f 42/46/8 15/47/8 43/48/8
f 15/47/8 42/46/8 14/49/8
f 39/50/7 34/36/7 38/51/7
f 34/36/7 39/50/7 35/37/7
f 19/19/12 37/52/12 17/17/12
f 37/52/12 19/19/12 36/53/12
f 13/13/13 25/54/13 11/11/13
f 25/54/13 13/13/13 24/55/13
f 2/2/4 44/56/4 3/3/4
f 44/56/4 2/2/4 45/57/4
f 31/58/14 16/16/14 18/18/14
f 16/16/14 31/58/14 33/59/14
f 28/60/15 12/61/15 26/62/15
f 12/61/15 28/60/15 10/63/15
f 2/2/16 21/21/16 45/57/16
f 21/21/16 2/2/16 4/4/16
f 21/21/16 4/4/16 22/22/16
f 4/4/16 24/55/16 22/22/16
f 4/4/16 5/5/16 24/55/16
f 9/9/16 5/5/16 4/4/16
f 9/9/16 8/8/16 5/5/16
f 14/14/16 8/8/16 9/9/16
f 14/14/16 41/64/16 8/8/16
f 41/64/16 14/14/16 42/65/16
f 22/22/16 24/55/16 34/36/16
f 34/36/16 24/55/16 13/13/16
f 34/36/16 13/13/16 10/10/16
f 34/36/16 10/10/16 38/51/16
f 38/51/16 10/10/16 27/29/16
f 27/29/16 10/10/16 28/30/16
f 38/51/16 27/29/16 36/38/16
f 36/38/16 30/66/16 38/51/16
f 30/66/16 36/38/16 19/67/16
f 30/66/16 19/67/16 16/68/16
f 30/66/16 16/68/16 33/69/16
f 45/70/17 23/71/17 44/72/17
f 23/71/17 45/70/17 21/73/17
f 41/74/18 43/48/18 40/75/18
f 43/48/18 41/74/18 42/46/18
