# Blender v2.92.0 OBJ File: 'OGConvert.blend'
# www.blender.org
o river_intersectionB
v -3.066012 1.600000 -1.712701
v -1.231770 1.600000 -2.119198
v -1.226700 1.600000 -2.124707
v -3.000000 1.600000 -1.116000
v -3.999999 1.600000 -1.116000
v -4.000000 1.600000 -1.712701
v -1.000000 1.600000 -1.564000
v -1.219394 1.600000 -2.126343
v 0.049764 1.600000 -3.511595
v -0.854464 1.600000 -1.648026
v 0.516758 1.600000 -4.320452
v 0.533516 1.600000 -3.156076
v 1.033516 1.600000 -4.022101
v -0.000000 0.800000 -4.618803
v 1.172080 0.000000 -3.942102
v -0.000000 0.000000 -4.618803
v 1.172080 0.800000 -3.942102
v -0.000000 0.800000 4.618803
v -4.000000 -0.000000 2.309401
v -0.000000 -0.000000 4.618803
v -4.000000 0.800000 2.309401
v 4.000000 -0.000000 0.956000
v 3.999999 0.000000 -2.309401
v 4.000000 0.000000 -0.956000
v 3.999999 -0.000000 2.309401
v 2.827921 0.000000 -2.986102
v -4.000000 -0.000000 0.956000
v -4.000000 0.000000 -0.956000
v -4.000000 0.000000 -2.309401
v 3.999999 0.800000 2.309401
v -4.000000 0.800000 0.956000
v -4.000000 0.800000 -2.309401
v 4.000000 0.800000 -0.956000
v 3.999999 0.800000 -2.309401
v 3.111977 1.600000 -2.822102
v 2.966484 1.600000 -1.712701
v 3.483243 1.600000 -2.607751
v 2.966484 1.600000 -2.906102
v 2.466485 1.600000 -2.040076
v 1.256543 1.600000 -0.725465
v 3.000000 1.600000 -1.116000
v 3.999999 1.600000 -1.712701
v 4.000000 1.600000 -1.116000
v 3.000000 1.600000 1.116000
v 3.999999 1.600000 1.712701
v 4.000000 1.600000 1.116000
v 3.066013 1.600000 1.712701
v 1.066013 1.600000 2.160701
v 1.000000 1.600000 1.564000
v -1.066012 1.600000 2.160701
v -1.000000 1.600000 1.564000
v -3.000000 1.600000 1.116000
v -3.066012 1.600000 1.712701
v -3.999999 1.600000 1.116000
v -4.000000 1.600000 1.712701
v -4.000000 0.800000 -0.956000
v 2.827921 0.800000 -2.986102
v 4.000000 0.800000 0.956000
v -0.000000 1.600000 -4.618803
v -4.000000 1.600000 -2.309401
v 3.999999 1.600000 2.309401
v -0.000000 1.600000 4.618803
v 1.172080 1.300000 -3.942102
v -4.000000 1.600000 2.309401
v 3.999999 1.600000 -2.309401
v 4.000000 1.300000 -0.956000
v -3.999999 1.300000 0.956000
v -3.999999 1.300000 -0.956000
v 2.827921 1.300000 -2.986102
v 4.000000 1.300000 0.956000
v -2.982299 1.300000 0.956000
v -2.982299 1.300000 -0.956000
v 0.663229 1.300000 -3.060747
v 2.982299 1.300000 0.956000
v 3.017701 1.300000 -0.956000
v -0.724750 1.300000 -1.552696
v 0.948791 1.300000 -0.627354
v 1.017701 1.300000 -0.508000
v 0.982299 1.300000 1.404000
v -0.982299 1.300000 1.404000
v 2.336770 1.300000 -2.135406
v -0.982299 1.300000 -1.404000
vt 0.195530 0.807832
vt 0.163084 0.704953
vt 0.163212 0.704543
vt 0.163964 0.821680
vt 0.192673 0.871406
vt 0.222344 0.854275
vt 0.128822 0.709367
vt 0.163084 0.704132
vt 0.195530 0.601253
vt 0.128822 0.699718
vt 0.222344 0.554810
vt 0.163964 0.587405
vt 0.192673 0.537679
vt 0.824283 0.143362
vt 0.780133 0.221938
vt 0.778430 0.144286
vt 0.825986 0.221014
vt 0.046959 0.774073
vt 0.034904 0.996448
vt 0.002424 0.773508
vt 0.079439 0.997012
vt 0.394471 0.096171
vt 0.232097 0.002424
vt 0.299396 0.041279
vt 0.461770 0.135026
vt 0.461770 0.400229
vt 0.164798 0.041279
vt 0.069723 0.096171
vt 0.002424 0.135026
vt 0.232097 0.532831
vt 0.164798 0.493976
vt 0.069723 0.439084
vt 0.002424 0.400229
vt 0.079439 0.538243
vt 0.034904 0.537679
vt 0.764461 0.576402
vt 0.718526 0.654112
vt 0.718526 0.576402
vt 0.764461 0.654112
vt 0.834151 0.003348
vt 0.788298 0.004272
vt 0.834690 0.444996
vt 0.784243 0.409294
vt 0.830095 0.408370
vt 0.788837 0.445920
vt 0.262816 0.660118
vt 0.324703 0.642870
vt 0.278005 0.679488
vt 0.256864 0.652527
vt 0.302047 0.617097
vt 0.366985 0.537679
vt 0.358894 0.639947
vt 0.333066 0.701620
vt 0.366985 0.696792
vt 0.667743 0.524037
vt 0.633482 0.466618
vt 0.667743 0.466618
vt 0.633482 0.520246
vt 0.607758 0.635083
vt 0.642020 0.638873
vt 0.607758 0.757500
vt 0.642020 0.753710
vt 0.667743 0.868546
vt 0.633482 0.872336
vt 0.667743 0.925964
vt 0.633482 0.925964
vt 0.750301 0.658960
vt 0.672591 0.704895
vt 0.672591 0.658960
vt 0.750301 0.704895
vt 0.782540 0.331641
vt 0.828392 0.330717
vt 0.845775 0.533364
vt 0.795328 0.497662
vt 0.841181 0.496738
vt 0.799923 0.534288
vt 0.252015 0.571941
vt 0.252015 0.837144
vt 0.880003 0.002424
vt 0.870135 0.142437
vt 0.123974 0.538807
vt 0.091495 0.774637
vt 0.854644 0.220437
vt 0.871637 0.210910
vt 0.461770 0.614903
vt 0.461770 0.683426
vt 0.461770 0.649165
vt 0.123974 0.997576
vt 0.299146 0.706449
vt 0.877973 0.423594
vt 0.875948 0.407446
vt 0.879999 0.439742
vt 0.863347 0.444418
vt 0.689817 0.576402
vt 0.672591 0.585589
vt 0.672591 0.619850
vt 0.672591 0.654112
vt 0.599220 0.466618
vt 0.466618 0.696291
vt 0.599220 0.925964
vt 0.672591 0.750829
vt 0.706853 0.750829
vt 0.741114 0.750829
vt 0.750301 0.733604
vt 0.857050 0.330139
vt 0.874657 0.348612
vt 0.874446 0.338973
vt 0.456062 0.677963
vt 0.456062 0.736839
vt 0.456062 0.712224
vt 0.869838 0.496161
vt 0.887576 0.500144
vt 0.889602 0.516292
vt 0.891628 0.532440
vt 0.891632 0.095123
vt 0.873378 0.142663
vt 0.873894 0.091139
vt 0.891125 0.145750
vt 0.400291 0.785861
vt 0.389373 0.845490
vt 0.381411 0.787674
vt 0.408115 0.842671
vt 0.400291 0.575568
vt 0.389373 0.537679
vt 0.408115 0.543107
vt 0.381411 0.570715
vt 0.888083 0.449517
vt 0.870354 0.444637
vt 0.415059 0.710995
vt 0.431930 0.653774
vt 0.433989 0.710068
vt 0.412963 0.653688
vt 0.390714 0.661482
vt 0.371834 0.656629
vt 0.656945 0.286575
vt 0.663799 0.290532
vt 0.651312 0.304246
vt 0.891632 0.259130
vt 0.872889 0.355505
vt 0.873885 0.256042
vt 0.890618 0.360385
vt 0.433989 0.537679
vt 0.414758 0.552484
vt 0.456062 0.586525
vt 0.438837 0.542273
vt 0.456062 0.537679
vt 0.438837 0.591998
vt 0.371834 0.671956
vt 0.390714 0.670144
vt 0.456062 0.673114
vt 0.438837 0.667481
vt 0.764461 0.466618
vt 0.689817 0.466618
vt 0.461770 0.610055
vt 0.461770 0.537679
vt 0.461770 0.565516
vt 0.466618 0.299396
vt 0.570356 0.366270
vt 0.521510 0.394471
vt 0.517224 0.270179
vt 0.773582 0.175695
vt 0.773582 0.288499
vt 0.747859 0.403336
vt 0.638075 0.405368
vt 0.747859 0.461770
vt 0.638075 0.461770
vt 0.603814 0.190483
vt 0.612352 0.175695
vt 0.747859 0.060859
vt 0.638075 0.060859
vt 0.747859 0.002424
vt 0.638075 0.002424
vn 0.0000 1.0000 0.0000
vn 0.5000 0.0000 -0.8660
vn -0.5000 0.0000 0.8660
vn -0.0000 -1.0000 -0.0000
vn 0.5000 0.0000 0.8660
vn -1.0000 0.0000 0.0000
vn -0.5000 0.0000 -0.8660
vn 1.0000 0.0000 -0.0000
vn -0.9914 0.0000 0.1310
vn 0.5106 0.2126 -0.8332
vn 0.5000 -0.0002 -0.8660
vn 0.5109 -0.2100 -0.8336
vn 0.0000 0.4706 -0.8824
vn 0.0000 0.4706 0.8824
vn 0.7641 0.4706 0.4412
vn 0.6492 0.4706 0.5975
vn -0.5967 0.7248 0.3445
vn 0.1929 0.4706 0.8610
vn -0.7641 0.4706 -0.4412
vn 0.4488 0.4410 0.7773
vn 0.4487 0.4410 0.7773
vn -0.1929 0.4706 -0.8610
vn 0.1929 0.4706 -0.8610
vn -0.6492 0.4706 -0.5975
s 1
f 1/1/1 2/2/1 3/3/1
f 2/2/1 1/1/1 4/4/1
f 4/4/1 1/1/1 5/5/1
f 5/5/1 1/1/1 6/6/1
f 7/7/1 2/2/1 4/4/1
f 2/2/1 7/7/1 8/8/1
f 8/8/1 9/9/1 3/3/1
f 10/10/1 9/9/1 8/8/1
f 10/10/1 8/8/1 7/7/1
f 10/10/1 11/11/1 9/9/1
f 12/12/1 11/11/1 10/10/1
f 11/11/1 12/12/1 13/13/1
f 14/14/2 15/15/2 16/16/2
f 15/15/2 14/14/2 17/17/2
f 18/18/3 19/19/3 20/20/3
f 19/19/3 18/18/3 21/21/3
f 22/22/4 23/23/4 24/24/4
f 23/23/4 22/22/4 25/25/4
f 23/23/4 25/25/4 20/26/4
f 23/23/4 20/26/4 26/27/4
f 26/27/4 20/26/4 15/28/4
f 15/28/4 20/26/4 16/29/4
f 16/29/4 20/26/4 19/30/4
f 16/29/4 19/30/4 27/31/4
f 16/29/4 27/31/4 28/32/4
f 29/33/4 16/29/4 28/32/4
f 30/34/5 20/20/5 25/35/5
f 20/20/5 30/34/5 18/18/5
f 27/36/6 21/37/6 31/38/6
f 21/37/6 27/36/6 19/39/6
f 32/40/7 16/16/7 29/41/7
f 16/16/7 32/40/7 14/14/7
f 33/42/8 23/43/8 34/44/8
f 23/43/8 33/42/8 24/45/8
f 35/46/1 36/47/1 37/48/1
f 36/47/1 35/46/1 38/49/1
f 36/47/1 38/49/1 39/50/1
f 40/51/1 36/47/1 39/50/1
f 41/52/1 36/47/1 40/51/1
f 41/52/1 42/53/1 36/47/1
f 42/53/1 41/52/1 43/54/1
f 44/55/1 45/56/1 46/57/1
f 45/56/1 44/55/1 47/58/1
f 47/58/1 44/55/1 48/59/1
f 48/59/1 44/55/1 49/60/1
f 48/59/1 49/60/1 50/61/1
f 50/61/1 49/60/1 51/62/1
f 50/61/1 51/62/1 52/63/1
f 50/61/1 52/63/1 53/64/1
f 53/64/1 52/63/1 54/65/1
f 53/64/1 54/65/1 55/66/1
f 28/67/6 32/68/6 29/69/6
f 32/68/6 28/67/6 56/70/9
f 26/71/2 34/44/2 23/43/2
f 34/44/2 26/71/2 57/72/2
f 30/73/8 22/74/8 58/75/8
f 22/74/8 30/73/8 25/76/8
f 2/2/1 8/8/1 3/3/1
f 9/9/1 59/77/1 3/3/1
f 59/77/1 9/9/1 11/11/1
f 3/3/1 59/77/1 60/78/1
f 3/3/1 60/78/1 1/1/1
f 1/1/1 60/78/1 6/6/1
f 60/79/7 14/14/7 32/40/7
f 14/14/7 60/79/7 59/80/7
f 61/81/5 18/18/5 30/34/5
f 18/18/5 61/81/5 62/82/5
f 59/80/2 17/17/2 14/14/2
f 17/17/2 59/80/2 63/83/2
f 63/83/2 59/80/2 13/84/2
f 13/85/2 59/86/2 11/87/10
f 62/82/3 21/21/3 18/18/3
f 21/21/3 62/82/3 64/88/3
f 65/89/1 36/47/1 42/53/1
f 36/47/1 65/89/1 37/48/1
f 42/90/8 34/44/8 65/91/8
f 34/44/8 42/90/8 33/42/8
f 33/42/8 42/90/8 43/92/8
f 33/42/8 43/92/8 66/93/8
f 21/37/6 67/94/6 31/38/6
f 67/94/6 21/37/6 54/95/6
f 54/95/6 21/37/6 55/96/6
f 55/96/6 21/37/6 64/97/6
f 47/58/1 61/98/1 45/56/1
f 61/98/1 47/58/1 62/99/1
f 62/99/1 47/58/1 48/59/1
f 62/99/1 48/59/1 50/61/1
f 62/99/1 50/61/1 64/100/1
f 64/100/1 50/61/1 53/64/1
f 64/100/1 53/64/1 55/66/1
f 56/70/9 60/101/6 32/68/6
f 60/101/6 56/70/9 6/102/6
f 6/102/6 56/70/9 5/103/6
f 5/103/6 56/70/9 68/104/6
f 69/105/2 34/44/2 57/72/2
f 34/44/2 69/105/2 65/91/11
f 65/91/11 69/105/2 35/106/2
f 35/106/2 69/105/2 38/107/2
f 65/108/11 35/109/2 37/110/12
f 70/111/8 30/73/8 58/75/8
f 30/73/8 70/111/8 46/112/8
f 30/73/8 46/112/8 45/113/8
f 30/73/8 45/113/8 61/114/8
f 54/115/13 71/116/13 67/117/13
f 71/116/13 54/115/13 52/118/13
f 4/119/14 68/120/14 72/121/14
f 68/120/14 4/119/14 5/122/14
f 12/123/15 63/124/15 13/125/15
f 63/124/15 12/123/15 73/126/15
f 44/127/13 70/111/13 74/128/13
f 70/111/13 44/127/13 46/112/13
f 43/129/14 75/130/14 66/131/14
f 75/130/14 43/129/14 41/132/14
f 10/133/16 73/126/16 12/123/16
f 73/126/16 10/133/16 76/134/16
f 77/135/17 78/136/17 40/137/17
f 51/138/13 79/139/13 80/140/13
f 79/139/13 51/138/13 49/141/13
f 41/132/18 78/142/18 75/130/18
f 78/142/18 41/132/18 40/143/18
f 81/144/19 38/145/19 69/146/19
f 38/145/19 81/144/19 39/147/19
f 10/133/20 82/148/20 76/134/21
f 82/148/20 10/133/20 7/149/20
f 7/149/18 72/121/18 82/148/18
f 72/121/18 7/149/18 4/119/18
f 49/141/22 74/128/22 79/139/22
f 74/128/22 49/141/22 44/127/22
f 52/118/23 80/140/23 71/116/23
f 80/140/23 52/118/23 51/138/23
f 77/150/24 39/147/24 81/144/24
f 39/147/24 77/150/24 40/151/24
f 27/36/6 31/38/6 28/152/6
f 67/94/6 28/152/6 31/38/6
f 68/153/6 28/152/6 67/94/6
f 28/154/6 68/155/6 56/156/9
f 17/17/2 26/71/2 15/15/2
f 26/71/2 17/17/2 57/72/2
f 57/72/2 17/17/2 63/83/2
f 57/72/2 63/83/2 69/105/2
f 70/111/8 33/42/8 66/93/8
f 33/42/8 70/111/8 24/45/8
f 24/45/8 70/111/8 58/75/8
f 22/74/8 24/45/8 58/75/8
f 63/157/1 81/158/1 69/159/1
f 81/158/1 63/157/1 77/135/1
f 77/135/1 63/157/1 73/160/1
f 80/161/1 77/135/1 73/160/1
f 79/162/1 77/135/1 80/161/1
f 79/162/1 78/136/1 77/135/1
f 74/163/1 78/136/1 79/162/1
f 74/163/1 75/164/1 78/136/1
f 70/165/1 75/164/1 74/163/1
f 75/164/1 70/165/1 66/166/1
f 80/161/1 73/160/1 76/167/1
f 80/161/1 76/167/1 82/168/1
f 80/161/1 82/168/1 71/169/1
f 71/169/1 82/168/1 72/170/1
f 71/169/1 72/170/1 67/171/1
f 67/171/1 72/170/1 68/172/1
