# Blender v2.92.0 OBJ File: 'OGConvert.blend'
# www.blender.org
o stone_rocks
v 0.000000 -0.000000 4.618803
v 4.000000 0.000000 -2.309401
v 4.000000 -0.000000 2.309401
v -0.000000 0.000000 -4.618803
v -4.000000 -0.000000 2.309401
v -4.000000 0.000000 -2.309401
v 4.000000 0.800000 2.309401
v 0.000000 0.800000 4.618803
v 4.000000 0.800000 -2.309401
v -0.000000 0.800000 -4.618803
v -4.000000 0.800000 -2.309401
v -4.000000 0.800000 2.309401
v 1.517530 1.600000 1.632502
v 4.000000 1.600000 -2.309401
v 1.354784 1.600000 0.568953
v -0.000000 1.600000 -4.618803
v 0.189215 1.600000 0.410960
v -4.000000 1.600000 -2.309401
v -4.000000 1.600000 2.309401
v 4.000000 1.600000 2.309401
v 0.000000 1.600000 4.618803
v -1.197010 1.600000 3.251524
v -0.884606 1.600000 3.105054
v -2.017954 1.600000 2.496570
v 2.460023 1.948000 1.457595
v 3.007169 1.948000 1.601399
v 2.808114 1.948000 1.256624
v 2.659079 1.948000 1.802370
v 2.598111 1.600000 2.025629
v 2.236190 1.600000 1.398765
v 3.231002 1.600000 1.660229
v 2.869082 1.600000 1.033365
v -3.083671 1.948000 -1.731960
v -2.536525 1.948000 -1.588154
v -2.735581 1.948000 -1.932930
v -2.884615 1.948000 -1.387185
v -2.945584 1.600000 -1.163925
v -3.307504 1.600000 -1.790789
v -2.312693 1.600000 -1.529325
v -2.674613 1.600000 -2.156190
v 1.519071 1.795270 -0.568731
v 1.693597 1.990539 -1.214402
v 1.147018 1.990539 -0.819067
v 1.186246 1.795270 -3.412121
v 2.032730 1.600000 -2.684717
v 1.192514 1.600000 -3.473791
v 1.687174 2.680151 -2.635537
v 1.299567 2.680151 -2.999552
v -0.471734 3.248582 -2.384054
v 0.317829 2.215568 -2.968211
v -0.729635 2.215568 -2.490426
v 0.293952 3.248583 -2.733311
v 0.567641 3.248582 -1.666185
v -0.057527 3.248582 -1.577211
v 0.546810 2.345304 -1.308731
v -0.026027 1.600000 -0.967187
v 0.394100 1.990539 -1.260325
v 0.087706 1.730606 -1.253300
v 0.442233 1.990539 -0.922129
v 0.027525 1.600000 -0.590909
v 0.461064 2.680151 -2.814830
v 0.374299 2.215568 -2.915178
v 0.383266 2.455786 -2.846919
v 0.611498 2.215568 -3.023372
v 0.971278 2.680151 -3.047558
v 0.868082 1.600000 -3.325807
v -0.085824 2.345304 -1.401241
v -0.363266 3.248582 -1.621919
v -0.553874 2.345304 -1.469685
v 0.577191 1.990539 -1.233551
v -1.255750 2.345304 -1.675546
v -1.375579 1.600000 -1.946209
v -1.630290 1.600000 -1.830026
v -1.160805 1.855570 -1.932620
v -0.624173 2.345304 -1.963630
v -0.691869 2.102678 -2.038657
v -1.421086 1.723666 -0.771117
v -1.473614 1.600000 -0.729164
v -1.198766 2.345304 -1.275157
v 0.476977 2.680151 -2.703022
v 1.006570 2.680151 -2.205662
v 0.875639 3.248582 -2.187028
v -0.021945 2.215568 -3.618260
v 0.028477 1.600000 -4.114309
v -0.676370 2.215568 -2.116160
v -1.004850 2.215568 -2.943399
v -0.543913 2.215568 -3.380172
v -1.406980 1.795270 -3.309486
v 1.764287 1.600000 -2.230766
v 1.504592 1.990539 -1.985103
v 1.317548 2.680151 -2.010478
v 1.399570 1.990539 -1.807506
v -0.270792 1.600000 -0.553276
v -0.399266 2.345304 -0.871193
v 0.955038 1.990539 -1.872510
v 0.925086 2.680151 -2.067867
v -0.891596 2.215568 -2.147633
v 1.919132 1.990539 -1.595794
v -1.579744 1.600000 -3.380742
v -0.836738 2.345304 -0.935165
v 2.371810 1.600000 -1.660220
v 1.603222 1.600000 -0.360495
v 0.611677 2.086391 1.843871
v 0.806027 2.195624 1.947286
v 1.064321 1.847289 1.736523
v 0.597466 2.195624 1.919015
v -0.496932 1.977886 0.775068
v -0.624356 1.977886 1.077751
v -0.446935 1.977886 1.101801
v -1.179890 1.977886 0.682493
v -0.983466 1.977885 1.699803
v -1.414230 1.977885 1.641412
v -1.704725 1.977886 1.070535
v -1.514045 1.977885 1.814311
v -1.919076 1.977885 1.441836
v 1.094387 2.321156 1.100012
v 0.545418 2.321156 1.771965
v 1.153578 2.321156 1.486830
v 0.740664 2.321156 0.774722
v 0.472396 2.321156 1.294761
v 0.316741 2.321156 0.717259
v 0.018841 2.321156 1.233282
v -1.625934 1.600000 0.243424
v -0.099040 1.600000 0.450395
v -1.542406 1.788943 0.444050
v 0.652796 2.195624 2.280595
v 0.482116 2.195624 3.143348
v 0.923669 2.195624 2.716080
v -0.355834 2.195624 2.753489
v -0.020500 2.195624 3.378999
v -0.639414 2.195624 2.809835
v -0.411009 2.195624 2.702748
v 1.316458 1.788943 3.066211
v -0.420376 2.428058 2.636795
v -0.512504 2.645154 2.498518
v -0.495975 2.645154 2.606537
v -1.305394 2.645153 2.793759
v -1.191570 1.788943 3.191791
v -0.987273 2.645153 2.836881
v -2.356411 1.600000 1.508758
v -1.762823 1.600000 2.054631
v -1.332814 2.645154 1.836966
v -1.029950 2.645154 2.022665
v -0.952506 2.645154 1.888517
v -1.684111 2.645154 2.445485
v 1.304386 1.719659 0.610077
v -0.043413 1.600000 0.813919
v -0.150556 1.726374 1.091899
v -0.594199 2.321156 1.150184
v -0.610732 3.195168 1.496249
v -0.903457 3.195168 2.003309
v 1.272262 1.600000 1.747495
v 1.484337 1.600000 3.133404
v -0.064260 1.600000 3.859459
v 0.289516 3.195168 1.443987
v -0.335112 3.195168 2.525970
v 0.402187 3.195168 2.180289
v -0.006754 3.195168 1.403827
vt 0.449882 0.390200
vt 0.227145 0.004407
vt 0.449882 0.133005
vt 0.004407 0.133005
vt 0.227145 0.518797
vt 0.004407 0.390200
vt 0.207428 0.531567
vt 0.134736 0.691913
vt 0.164053 0.535522
vt 0.178111 0.687958
vt 0.335161 0.906154
vt 0.259616 0.657833
vt 0.302723 0.651665
vt 0.292054 0.912322
vt 0.335161 0.533779
vt 0.292053 0.539946
vt 0.047176 0.689276
vt 0.040385 0.947416
vt 0.004407 0.694145
vt 0.083153 0.942546
vt 0.040385 0.537350
vt 0.083153 0.532481
vt 0.164053 0.945828
vt 0.207428 0.941873
vt 0.730283 0.371610
vt 0.791212 0.420424
vt 0.717909 0.380236
vt 0.458697 0.390200
vt 0.671151 0.342776
vt 0.458697 0.133005
vt 0.695984 0.282169
vt 0.721893 0.282170
vt 0.705911 0.269366
vt 0.681434 0.004407
vt 0.738443 0.189971
vt 0.819800 0.189974
vt 0.904171 0.133005
vt 0.681434 0.518797
vt 0.904171 0.390200
vt 0.869342 0.365959
vt 0.871563 0.294407
vt 0.855802 0.305394
vt 0.858013 0.233798
vt 0.829598 0.233797
vt 0.089944 0.684406
vt 0.125922 0.527612
vt 0.221485 0.684003
vt 0.250802 0.937918
vt 0.125922 0.937677
vt 0.378268 0.527612
vt 0.345831 0.645498
vt 0.378268 0.899987
vt 0.250802 0.527612
vt 0.925266 0.742437
vt 0.903098 0.720056
vt 0.925266 0.720056
vt 0.903098 0.742437
vt 0.962967 0.775682
vt 0.987984 0.794536
vt 0.969048 0.807892
vt 0.984640 0.776821
vt 0.987984 0.763384
vt 0.969048 0.751252
vt 0.169418 0.978574
vt 0.190479 0.954642
vt 0.190479 0.988335
vt 0.169418 0.960043
vt 0.357202 0.952892
vt 0.378268 0.921136
vt 0.378268 0.961612
vt 0.357202 0.930631
vt 0.796181 0.952881
vt 0.836488 0.993575
vt 0.796181 0.993575
vt 0.836488 0.952881
vt 0.934081 0.720056
vt 0.956249 0.742437
vt 0.934081 0.742437
vt 0.956249 0.720056
vt 0.965072 0.481015
vt 0.990089 0.499869
vt 0.971153 0.513224
vt 0.986745 0.482153
vt 0.990089 0.468716
vt 0.971153 0.456584
vt 0.220355 0.964403
vt 0.199294 0.988335
vt 0.199294 0.954642
vt 0.220355 0.982934
vt 0.972889 0.666215
vt 0.993954 0.634459
vt 0.993954 0.674935
vt 0.972889 0.643954
vt 0.885609 0.952881
vt 0.845302 0.993575
vt 0.845302 0.952881
vt 0.885609 0.993575
vt 0.594855 0.831666
vt 0.618470 0.802865
vt 0.618238 0.840427
vt 0.407529 0.880051
vt 0.387082 0.917430
vt 0.396815 0.876806
vt 0.449950 0.920352
vt 0.454440 0.901611
vt 0.653339 0.918574
vt 0.594855 0.970241
vt 0.594855 0.907360
vt 0.653339 0.964539
vt 0.387082 0.850334
vt 0.394054 0.820943
vt 0.439183 0.862705
vt 0.662905 0.888798
vt 0.662596 0.860272
vt 0.672191 0.874386
vt 0.645712 0.869033
vt 0.644119 0.898546
vt 0.918009 0.149515
vt 0.912986 0.175942
vt 0.913442 0.162036
vt 0.927135 0.177539
vt 0.948444 0.152950
vt 0.942644 0.215056
vt 0.961997 0.217240
vt 0.961559 0.205844
vt 0.444714 0.828732
vt 0.396727 0.804525
vt 0.448806 0.803597
vt 0.477504 0.844384
vt 0.460318 0.858160
vt 0.458717 0.867992
vt 0.298844 0.967707
vt 0.284275 0.925777
vt 0.298844 0.921136
vt 0.279336 0.943320
vt 0.262718 0.979214
vt 0.259616 0.965042
vt 0.910635 0.591295
vt 0.911709 0.625645
vt 0.903098 0.592485
vt 0.953952 0.606206
vt 0.950820 0.594145
vt 0.559895 0.774251
vt 0.502286 0.767875
vt 0.502799 0.765115
vt 0.515431 0.770709
vt 0.526933 0.777528
vt 0.522123 0.803415
vt 0.554611 0.802685
vt 0.916344 0.634459
vt 0.937777 0.707193
vt 0.903098 0.679411
vt 0.959211 0.634459
vt 0.964074 0.686127
vt 0.964074 0.650964
vt 0.347233 0.939524
vt 0.307659 0.962880
vt 0.307659 0.921136
vt 0.347233 0.971017
vt 0.445381 0.788611
vt 0.391443 0.781403
vt 0.449057 0.771833
vt 0.451652 0.783187
vt 0.458566 0.784845
vt 0.911772 0.834049
vt 0.914786 0.799087
vt 0.941665 0.841698
vt 0.390343 0.943668
vt 0.414710 0.957896
vt 0.454440 0.956479
vt 0.415986 0.968161
vt 0.950505 0.947559
vt 0.911772 0.935801
vt 0.935751 0.938292
vt 0.919798 0.980771
vt 0.950505 0.983960
vt 0.995511 0.265987
vt 0.974245 0.227985
vt 0.995511 0.226054
vt 0.971424 0.268174
vt 0.963019 0.076609
vt 0.918937 0.095120
vt 0.932333 0.082398
vt 0.912986 0.124126
vt 0.965884 0.082207
vt 0.957753 0.121837
vt 0.949869 0.140701
vt 0.965884 0.125491
vt 0.453533 0.771630
vt 0.477504 0.765115
vt 0.582710 0.777784
vt 0.586040 0.765115
vt 0.586040 0.778791
vt 0.655459 0.852841
vt 0.628457 0.780304
vt 0.654863 0.797001
vt 0.672191 0.815043
vt 0.659513 0.786495
vt 0.681006 0.864424
vt 0.764238 0.875331
vt 0.683556 0.876133
vt 0.758866 0.866418
vt 0.735339 0.847353
vt 0.690583 0.847798
vt 0.954153 0.751252
vt 0.954153 0.847795
vt 0.914786 0.767753
vt 0.950820 0.568039
vt 0.961997 0.151832
vt 0.926111 0.291389
vt 0.946417 0.256082
vt 0.962609 0.278658
vt 0.912986 0.273089
vt 0.962609 0.235306
vt 0.914457 0.245473
vt 0.929591 0.226054
vt 0.616731 0.757705
vt 0.662244 0.766778
vt 0.911709 0.527612
vt 0.953952 0.544445
vt 0.749582 0.970677
vt 0.775499 0.917000
vt 0.775499 0.955346
vt 0.762540 0.893142
vt 0.749582 0.884948
vt 0.755513 0.818314
vt 0.726174 0.757705
vt 0.764238 0.787582
vt 0.725602 0.774334
vt 0.708093 0.836006
vt 0.687044 0.836215
vt 0.722209 0.771671
vt 0.523521 0.811318
vt 0.559895 0.832557
vt 0.512196 0.855917
vt 0.492800 0.861351
vt 0.486318 0.824705
vt 0.960092 0.416380
vt 0.985887 0.446734
vt 0.960092 0.438594
vt 0.985887 0.371033
vt 0.972990 0.380968
vt 0.454850 0.552232
vt 0.425975 0.620397
vt 0.415929 0.603269
vt 0.515178 0.736817
vt 0.436880 0.756300
vt 0.387082 0.671398
vt 0.481524 0.564515
vt 0.523065 0.750264
vt 0.583151 0.735312
vt 0.509666 0.527612
vt 0.561718 0.656484
vt 0.586040 0.562779
vt 0.582256 0.651373
vt 0.586040 0.667683
vt 0.773053 0.764619
vt 0.782965 0.762109
vt 0.782965 0.788652
vt 0.775457 0.757705
vt 0.732646 0.259218
vt 0.750790 0.261501
vt 0.747010 0.270726
vt 0.747196 0.223706
vt 0.790786 0.261502
vt 0.799964 0.239103
vt 0.780522 0.209200
vt 0.811081 0.239104
vt 0.804395 0.209201
vt 0.714907 0.899514
vt 0.681006 0.933941
vt 0.693138 0.898561
vt 0.735040 0.917142
vt 0.707862 0.935117
vt 0.740767 0.940265
vt 0.713990 0.959857
vt 0.745791 0.199585
vt 0.486318 0.953416
vt 0.505915 0.947863
vt 0.492570 0.963329
vt 0.545680 0.919278
vt 0.534238 0.951522
vt 0.506564 0.885835
vt 0.546003 0.888368
vt 0.502865 0.870166
vt 0.502718 0.884212
vt 0.561054 0.963329
vt 0.573742 0.765115
vt 0.573742 0.780040
vt 0.568709 0.776886
vt 0.841935 0.793237
vt 0.892025 0.808755
vt 0.840616 0.810422
vt 0.988348 0.527612
vt 0.962766 0.561435
vt 0.975557 0.531921
vt 0.988348 0.602501
vt 0.962766 0.583410
vt 0.970812 0.168619
vt 0.995593 0.192053
vt 0.970812 0.197645
vt 0.995593 0.149515
vt 0.948674 0.362219
vt 0.956303 0.343966
vt 0.964170 0.347502
vt 0.918744 0.318115
vt 0.912986 0.346181
vt 0.931706 0.305805
vt 0.964170 0.305620
vt 0.961398 0.300203
vt 0.850939 0.579714
vt 0.881756 0.527612
vt 0.894283 0.574615
vt 0.875333 0.531343
vt 0.846382 0.562618
vt 0.892006 0.598356
vt 0.848023 0.610115
vt 0.883144 0.612464
vt 0.870640 0.670115
vt 0.854612 0.634837
vt 0.874154 0.633466
vt 0.803940 0.647851
vt 0.801076 0.677725
vt 0.832381 0.675603
vt 0.831623 0.683506
vt 0.740767 0.884948
vt 0.836469 0.690939
vt 0.875270 0.687486
vt 0.912986 0.436084
vt 0.951277 0.447235
vt 0.935380 0.447770
vt 0.951277 0.371034
vt 0.912986 0.393814
vt 0.939130 0.374675
vt 0.718801 0.730039
vt 0.784571 0.728583
vt 0.726432 0.743050
vt 0.787367 0.663145
vt 0.594855 0.666739
vt 0.643039 0.748891
vt 0.763833 0.652308
vt 0.783705 0.647363
vt 0.632487 0.617391
vt 0.787367 0.561640
vt 0.622767 0.600818
vt 0.686237 0.563319
vt 0.660427 0.551434
vt 0.713467 0.527612
vt 0.876814 0.933825
vt 0.902958 0.881345
vt 0.886862 0.944066
vt 0.865326 0.872265
vt 0.860102 0.892623
vt 0.874293 0.697673
vt 0.894283 0.716400
vt 0.833031 0.726790
vt 0.891786 0.742437
vt 0.134736 0.954642
vt 0.143387 0.990103
vt 0.134736 0.974630
vt 0.160604 0.973059
vt 0.160604 0.991023
vt 0.916478 0.926987
vt 0.970773 0.883491
vt 0.957956 0.926987
vt 0.911772 0.911017
vt 0.911772 0.876993
vt 0.937217 0.856610
vt 0.985896 0.980603
vt 0.976025 0.938585
vt 0.985896 0.935801
vt 0.972679 0.954892
vt 0.959319 0.973515
vt 0.961421 0.987507
vt 0.899711 0.822646
vt 0.862877 0.827980
vt 0.899708 0.751252
vt 0.902958 0.809993
vt 0.840436 0.766139
vt 0.960785 0.067794
vt 0.941178 0.017828
vt 0.967416 0.017828
vt 0.920300 0.067794
vt 0.936802 0.004407
vt 0.932867 0.010652
vt 0.912986 0.010652
vt 0.796181 0.866061
vt 0.860721 0.841179
vt 0.850238 0.882031
vt 0.803844 0.836198
vt 0.799365 0.617734
vt 0.847220 0.835058
vt 0.860503 0.837231
vt 0.835509 0.830320
vt 0.872248 0.626312
vt 0.843149 0.591825
vt 0.796181 0.605787
vt 0.920166 0.458729
vt 0.912986 0.515062
vt 0.912986 0.456584
vt 0.956257 0.485082
vt 0.956257 0.506351
vt 0.834485 0.827062
vt 0.832437 0.790037
vt 0.801595 0.795531
vn 0.0000 -1.0000 -0.0000
vn 0.5000 0.0000 0.8660
vn 1.0000 0.0000 0.0000
vn 0.5000 0.0000 -0.8660
vn -0.5000 0.0000 -0.8660
vn -1.0000 0.0000 0.0000
vn -0.5000 0.0000 0.8660
vn 0.0000 1.0000 -0.0000
vn -0.8611 0.1065 0.4971
vn -0.8611 0.1065 0.4972
vn 0.4971 0.1076 0.8610
vn 0.8611 0.1065 -0.4972
vn 0.8611 0.1065 -0.4971
vn -0.4971 0.1076 -0.8610
vn 0.2733 0.8995 0.3410
vn 0.7058 0.2241 -0.6720
vn -0.4369 0.1883 -0.8796
vn 0.1316 0.3564 0.9250
vn -0.0737 0.2475 0.9661
vn -0.1222 0.2194 0.9680
vn -0.6920 0.7152 0.0985
vn -0.4299 0.2573 -0.8654
vn -0.1742 0.1883 0.9665
vn -0.4150 0.3600 -0.8355
vn -0.9162 0.3788 0.1304
vn 0.7145 0.1633 -0.6803
vn 0.6247 0.5060 -0.5947
vn -0.9702 0.1993 0.1381
vn -0.4622 0.7720 -0.4362
vn 0.8653 0.2241 0.4484
vn 0.8423 0.3161 0.4365
vn -0.1714 0.2573 0.9510
vn -0.1467 0.5619 0.8141
vn -0.9528 0.2718 0.1356
vn -0.8032 0.5846 0.1143
vn -0.3680 0.5619 -0.7408
vn -0.5760 0.6061 0.5484
vn 0.1629 0.3952 -0.9040
vn 0.5564 0.6401 -0.5298
vn -0.1654 0.3600 0.9182
vn -0.1276 0.6943 0.7083
vn 0.8759 0.1633 0.4539
vn 0.6821 0.6401 0.3535
vn 0.1101 0.5730 -0.8121
vn 0.0953 0.7046 -0.7032
vn 0.4260 0.7904 0.4402
vn 0.9406 0.3075 -0.1439
vn -0.1228 0.4049 0.9061
vn -0.6393 0.6746 -0.3691
vn -0.4997 0.6746 0.5434
vn 0.1248 0.3691 -0.9210
vn -0.8134 0.3433 -0.4696
vn -0.8521 0.1787 -0.4919
vn 0.5194 0.6413 -0.5648
vn 0.1295 0.2643 -0.9557
vn 0.7627 0.6362 -0.1167
vn 0.3479 0.5730 0.7420
vn -0.8398 0.2445 -0.4848
vn -0.2502 0.9071 -0.3384
vn 0.6420 0.7604 -0.0982
vn 0.3945 0.3691 0.8415
vn -0.5692 0.5411 0.6190
vn -0.6564 0.2445 0.7137
vn 0.9628 0.2266 -0.1473
vn 0.4165 0.1936 0.8883
vn 0.0437 0.2512 -0.9669
vn 0.0822 0.2264 -0.9706
vn -0.1410 0.3622 -0.9214
vn 0.4094 0.2643 0.8732
vn 0.1318 0.1936 -0.9722
vn 0.8952 0.4241 -0.1370
vn -0.6660 0.1787 0.7242
s 1
f 1/1/1 2/2/1 3/3/1
f 2/2/1 1/1/1 4/4/1
f 4/4/1 1/1/1 5/5/1
f 4/4/1 5/5/1 6/6/1
f 7/7/2 1/8/2 3/9/2
f 1/8/2 7/7/2 8/10/2
f 7/11/3 2/12/3 9/13/3
f 2/12/3 7/11/3 3/14/3
f 10/15/4 2/12/4 4/16/4
f 2/12/4 10/15/4 9/13/4
f 11/17/5 4/18/5 6/19/5
f 4/18/5 11/17/5 10/20/5
f 5/21/6 11/17/6 6/19/6
f 11/17/6 5/21/6 12/22/6
f 8/10/7 5/23/7 1/8/7
f 5/23/7 8/10/7 12/24/7
f 152/25/8 153/26/8 13/27/8
f 153/26/8 14/28/8 13/27/8
f 14/28/8 15/29/8 13/27/8
f 15/29/8 14/28/8 16/30/8
f 15/29/8 16/30/8 17/31/8
f 17/31/8 16/30/8 147/32/8
f 147/32/8 16/30/8 124/33/8
f 124/33/8 16/30/8 18/34/8
f 124/33/8 18/34/8 123/35/8
f 123/35/8 18/34/8 140/36/8
f 140/36/8 18/34/8 19/37/8
f 153/26/8 20/38/8 14/28/8
f 20/38/8 153/26/8 21/39/8
f 21/39/8 153/26/8 154/40/8
f 21/39/8 154/40/8 19/37/8
f 19/37/8 154/40/8 22/41/8
f 22/41/8 154/40/8 23/42/8
f 19/37/8 22/41/8 24/43/8
f 19/37/8 24/43/8 140/36/8
f 140/36/8 24/43/8 141/44/8
f 12/22/6 18/45/6 11/17/6
f 18/45/6 12/22/6 19/46/6
f 21/47/7 12/24/7 8/10/7
f 12/24/7 21/47/7 19/48/7
f 18/45/5 10/20/5 11/17/5
f 10/20/5 18/45/5 16/49/5
f 16/50/4 9/13/4 10/15/4
f 9/13/4 16/50/4 14/51/4
f 20/52/3 9/13/3 14/51/3
f 9/13/3 20/52/3 7/11/3
f 20/53/2 8/10/2 7/7/2
f 8/10/2 20/53/2 21/47/2
f 25/54/8 26/55/8 27/56/8
f 26/55/8 25/54/8 28/57/8
f 29/58/9 25/59/9 30/60/10
f 25/59/9 29/58/9 28/61/10
f 26/62/11 29/58/11 31/63/11
f 29/58/11 26/62/11 28/61/11
f 27/64/12 31/65/12 32/66/13
f 31/65/12 27/64/12 26/67/13
f 25/68/14 32/69/14 30/70/14
f 32/69/14 25/68/14 27/71/14
f 29/72/1 32/73/1 31/74/1
f 32/73/1 29/72/1 30/75/1
f 33/76/8 34/77/8 35/78/8
f 34/77/8 33/76/8 36/79/8
f 37/80/9 33/81/9 38/82/10
f 33/81/9 37/80/9 36/83/10
f 34/84/11 37/80/11 39/85/11
f 37/80/11 34/84/11 36/83/11
f 35/86/12 39/87/12 40/88/13
f 39/87/12 35/86/12 34/89/13
f 33/90/14 40/91/14 38/92/14
f 40/91/14 33/90/14 35/93/14
f 39/94/1 38/95/1 40/96/1
f 38/95/1 39/94/1 37/97/1
f 41/98/15 42/99/15 43/100/15
f 44/101/16 45/102/16 46/103/16
f 45/102/16 44/101/16 47/104/16
f 47/104/16 44/101/16 48/105/16
f 49/106/17 50/107/17 51/108/17
f 50/107/17 49/106/17 52/109/17
f 53/110/18 54/111/19 55/112/20
f 56/113/21 57/114/21 58/115/21
f 57/114/21 56/113/21 59/116/21
f 59/116/21 56/113/21 60/117/21
f 61/118/22 62/119/22 63/120/22
f 62/119/22 61/118/22 64/121/22
f 64/121/22 61/118/22 65/122/22
f 64/121/22 65/122/22 66/123/22
f 66/123/22 65/122/22 46/124/22
f 46/124/22 65/122/22 44/125/22
f 67/126/23 68/127/23 69/128/23
f 68/127/23 67/126/23 54/111/19
f 54/111/19 67/126/23 58/129/23
f 54/111/19 58/129/23 55/112/20
f 55/112/20 58/129/23 57/130/23
f 55/112/20 57/130/23 70/131/23
f 71/132/24 72/133/24 73/134/24
f 72/133/24 71/132/24 74/135/24
f 74/135/24 71/132/24 75/136/24
f 74/135/24 75/136/24 76/137/24
f 77/138/25 73/139/25 78/140/25
f 73/139/25 77/138/25 71/141/25
f 71/141/25 77/138/25 79/142/25
f 52/143/26 62/144/26 50/145/26
f 62/144/26 52/143/26 63/146/26
f 63/146/26 52/143/26 80/147/26
f 80/147/26 52/143/26 81/148/26
f 81/148/26 52/143/26 82/149/26
f 49/150/8 82/151/8 52/152/8
f 82/151/8 49/150/8 68/153/8
f 82/151/8 68/153/8 53/154/8
f 53/154/8 68/153/8 54/155/8
f 83/156/27 66/157/27 84/158/27
f 66/157/27 83/156/27 64/159/27
f 68/127/28 75/160/28 69/128/28
f 49/161/28 75/160/28 68/127/28
f 51/162/28 75/160/28 49/161/28
f 85/163/28 75/160/28 51/162/28
f 75/160/28 85/163/28 76/164/28
f 86/165/29 87/166/29 88/167/29
f 47/104/30 89/168/30 45/102/30
f 89/168/30 47/104/30 90/169/30
f 91/170/30 90/169/30 47/104/30
f 90/169/30 91/170/30 92/171/30
f 58/172/31 93/173/31 56/174/31
f 93/173/31 58/172/31 94/175/31
f 94/175/31 58/172/31 67/176/31
f 95/177/32 91/178/32 96/179/32
f 91/178/32 95/177/32 92/180/32
f 61/181/8 48/182/8 65/183/8
f 48/182/8 61/181/8 47/184/8
f 47/184/8 61/181/8 80/185/8
f 47/184/8 80/185/8 81/186/8
f 47/184/8 81/186/8 91/187/8
f 91/187/8 81/186/8 96/188/8
f 76/164/33 97/189/33 74/190/33
f 97/189/33 76/164/33 85/163/33
f 61/191/34 63/192/34 80/193/34
f 59/116/8 70/194/8 57/114/8
f 70/194/8 59/116/8 42/99/8
f 42/99/8 59/116/8 43/100/8
f 98/195/8 70/194/8 42/99/8
f 92/196/8 70/194/8 98/195/8
f 70/194/8 92/196/8 95/197/8
f 98/195/8 90/198/8 92/196/8
f 74/199/35 99/200/35 72/201/35
f 99/200/35 74/199/35 88/202/35
f 88/202/35 74/199/35 86/203/35
f 86/203/35 74/199/35 97/204/35
f 88/167/36 84/205/36 99/206/36
f 84/205/36 88/167/36 87/166/36
f 84/205/36 87/166/36 83/207/36
f 77/138/37 100/208/37 79/142/37
f 48/209/38 44/125/38 65/122/38
f 71/210/8 69/211/8 75/212/8
f 69/211/8 71/210/8 79/213/8
f 69/211/8 79/213/8 67/214/8
f 67/214/8 79/213/8 100/215/8
f 67/214/8 100/215/8 94/216/8
f 90/198/39 101/217/39 89/218/39
f 101/217/39 90/198/39 98/195/39
f 93/219/40 77/138/40 78/140/40
f 77/138/40 93/219/40 100/208/40
f 100/208/40 93/219/40 94/220/40
f 60/221/41 43/222/41 59/223/41
f 43/222/41 60/221/41 41/224/41
f 41/224/41 60/221/41 102/225/41
f 87/226/8 64/227/8 83/228/8
f 64/227/8 87/226/8 86/203/8
f 64/227/8 86/203/8 50/229/8
f 50/229/8 86/203/8 51/230/8
f 51/230/8 86/203/8 97/204/8
f 51/230/8 97/204/8 85/231/8
f 62/232/8 64/227/8 50/229/8
f 82/149/42 96/233/42 81/148/42
f 53/234/42 96/233/42 82/149/42
f 55/235/42 96/233/42 53/234/42
f 70/236/42 96/233/42 55/235/42
f 96/233/42 70/236/42 95/237/42
f 42/238/43 101/239/43 98/240/43
f 101/239/43 42/238/43 102/241/43
f 102/241/43 42/238/43 41/242/43
f 45/243/1 66/244/1 46/245/1
f 72/246/1 66/244/1 45/243/1
f 99/247/1 66/244/1 72/246/1
f 66/244/1 99/247/1 84/248/1
f 72/246/1 45/243/1 89/249/1
f 72/246/1 89/249/1 73/250/1
f 73/250/1 89/249/1 78/251/1
f 78/251/1 89/249/1 101/252/1
f 78/251/1 101/252/1 56/253/1
f 102/254/1 56/253/1 101/252/1
f 56/253/1 102/254/1 60/255/1
f 78/251/1 56/253/1 93/256/1
f 103/257/44 104/258/44 105/259/44
f 104/258/44 103/257/44 106/260/44
f 107/261/8 108/262/8 109/263/8
f 108/262/8 107/261/8 110/264/8
f 108/262/8 110/264/8 111/265/8
f 111/265/8 110/264/8 112/266/8
f 112/266/8 110/264/8 113/267/8
f 112/266/8 113/267/8 114/268/8
f 114/268/8 113/267/8 115/269/8
f 116/270/8 117/271/8 118/272/8
f 117/271/8 116/270/8 119/273/8
f 117/271/8 119/273/8 120/274/8
f 120/274/8 119/273/8 121/275/8
f 120/274/8 121/275/8 122/276/8
f 123/35/45 107/261/45 124/33/45
f 107/261/45 123/35/45 110/264/45
f 110/264/45 123/35/45 125/277/45
f 106/278/8 126/279/8 104/280/8
f 127/281/8 104/280/8 126/279/8
f 104/280/8 127/281/8 128/282/8
f 127/281/8 126/279/8 129/283/8
f 127/281/8 129/283/8 130/284/8
f 130/284/8 129/283/8 131/285/8
f 131/285/8 129/283/8 132/286/8
f 127/281/46 133/287/46 128/282/46
f 134/288/47 135/289/47 136/290/47
f 137/291/48 138/292/48 139/293/48
f 123/294/49 113/295/49 125/296/49
f 113/295/49 123/294/49 140/297/49
f 113/295/49 140/297/49 115/298/49
f 115/299/50 141/300/50 114/301/50
f 141/300/50 115/299/50 140/302/50
f 142/303/8 143/304/8 144/305/8
f 143/304/8 142/303/8 137/306/8
f 137/306/8 142/303/8 145/307/8
f 139/308/8 143/304/8 137/306/8
f 139/308/8 135/309/8 143/304/8
f 135/309/8 139/308/8 136/310/8
f 121/311/51 15/312/51 17/313/51
f 15/312/51 121/311/51 146/314/51
f 146/314/51 121/311/51 119/315/51
f 147/316/52 121/311/52 17/313/52
f 121/311/52 147/316/52 122/317/52
f 122/317/52 147/316/52 148/318/52
f 111/319/53 149/320/53 108/321/53
f 149/320/53 111/319/53 150/322/53
f 150/322/53 111/319/53 151/323/53
f 151/323/53 111/319/53 144/324/53
f 151/323/53 144/324/53 143/325/53
f 119/273/54 116/270/54 146/326/54
f 142/327/55 111/319/55 112/328/55
f 111/319/55 142/327/55 144/324/55
f 104/329/56 152/330/56 105/331/56
f 152/330/56 104/329/56 153/332/56
f 153/332/56 104/329/56 128/333/56
f 153/332/56 128/333/56 133/334/56
f 152/335/1 15/336/1 13/337/1
f 15/336/1 152/335/1 17/338/1
f 152/335/1 154/339/1 17/338/1
f 154/339/1 152/335/1 153/340/1
f 17/338/1 154/339/1 147/341/1
f 147/341/1 154/339/1 124/342/1
f 124/342/1 154/339/1 23/343/1
f 124/342/1 23/343/1 123/344/1
f 123/344/1 23/343/1 22/345/1
f 123/344/1 22/345/1 141/346/1
f 141/346/1 22/345/1 24/347/1
f 140/348/1 123/344/1 141/346/1
f 133/349/57 154/350/57 153/351/57
f 154/350/57 133/349/57 130/352/57
f 130/352/57 133/349/57 127/353/57
f 114/354/58 142/327/58 112/328/58
f 142/327/58 114/354/58 141/355/58
f 142/327/58 141/355/58 145/356/58
f 145/356/58 141/355/58 24/357/58
f 113/267/59 110/264/59 125/277/59
f 124/358/60 148/359/60 147/360/60
f 148/359/60 124/358/60 107/361/60
f 148/359/60 107/361/60 109/362/60
f 155/363/8 156/364/8 157/365/8
f 156/364/8 155/363/8 158/366/8
f 156/364/8 158/366/8 150/367/8
f 156/364/8 150/367/8 151/368/8
f 118/369/61 152/370/61 13/371/61
f 152/370/61 118/369/61 105/372/61
f 105/372/61 118/369/61 103/373/61
f 103/373/61 118/369/61 117/374/61
f 130/352/62 23/375/62 154/350/62
f 23/375/62 130/352/62 131/376/62
f 138/292/63 24/377/63 22/378/63
f 24/377/63 138/292/63 145/379/63
f 145/379/63 138/292/63 137/291/63
f 155/380/64 117/381/64 120/382/64
f 117/381/64 155/380/64 157/383/64
f 117/381/64 157/383/64 103/384/64
f 103/384/64 157/383/64 106/385/64
f 106/385/64 157/383/64 126/386/64
f 157/387/65 129/388/65 126/389/65
f 129/388/65 157/387/65 156/390/65
f 158/391/66 149/320/67 150/322/68
f 134/392/69 131/376/69 132/393/69
f 139/293/69 131/376/69 134/392/69
f 138/292/69 131/376/69 139/293/69
f 22/378/69 131/376/69 138/292/69
f 131/376/69 22/378/69 23/375/69
f 139/293/69 134/392/69 136/394/69
f 149/320/67 109/395/70 108/321/70
f 122/317/70 109/395/70 149/320/67
f 109/395/70 122/317/70 148/318/70
f 122/317/70 149/320/67 158/391/66
f 122/317/70 158/391/66 120/396/70
f 120/396/70 158/391/66 155/397/70
f 146/398/71 13/399/71 15/400/71
f 13/399/71 146/398/71 116/401/71
f 13/399/71 116/401/71 118/402/71
f 156/390/72 132/393/72 129/388/72
f 132/393/72 156/390/72 134/392/72
f 134/392/72 156/390/72 135/403/72
f 135/403/72 156/390/72 143/404/72
f 143/404/72 156/390/72 151/405/72
