# Blender v2.92.0 OBJ File: 'kenney_OGConvert.blend'
# www.blender.org
o blockSnowLarge
v 1.000000 1.000000 -1.000000
v 1.091514 0.841493 -1.000000
v 1.000000 0.841493 -1.091514
v -1.000000 1.000000 1.000000
v 1.000000 1.000000 1.000000
v -1.000000 1.000000 -1.000000
v 0.792738 0.799410 1.115811
v 0.707262 0.799410 1.115811
v 0.750000 0.798192 1.116514
v 0.835292 0.803059 1.113704
v 0.664709 0.803059 1.113704
v 0.877476 0.809123 1.110203
v 0.622525 0.809123 1.110203
v 0.919108 0.817576 1.105322
v 0.580892 0.817576 1.105322
v 0.960009 0.828382 1.099084
v 0.539992 0.828382 1.099084
v 1.000000 0.841493 1.091514
v 0.460009 0.854604 1.083944
v 0.419108 0.865410 1.077706
v 0.377476 0.873863 1.072825
v 0.335292 0.879927 1.069324
v 0.292738 0.883576 1.067217
v 0.250000 0.884794 1.066514
v -0.750000 0.884794 1.066514
v -0.792738 0.883576 1.067217
v -0.835291 0.879927 1.069324
v -0.877476 0.873863 1.072825
v -0.919108 0.865410 1.077706
v -0.960008 0.854604 1.083944
v -1.000000 0.841493 1.091514
v -0.707262 0.883576 1.067217
v 0.207262 0.883576 1.067217
v -0.664709 0.879927 1.069324
v 0.164709 0.879927 1.069324
v -0.622524 0.873863 1.072825
v 0.122525 0.873863 1.072825
v -0.580892 0.865410 1.077706
v 0.080892 0.865410 1.077706
v -0.539992 0.854604 1.083944
v 0.039992 0.854604 1.083944
v -0.460008 0.828382 1.099084
v -0.039992 0.828382 1.099084
v -0.419108 0.817576 1.105322
v -0.080892 0.817576 1.105322
v -0.377476 0.809123 1.110203
v -0.122524 0.809123 1.110203
v -0.335291 0.803059 1.113704
v -0.164708 0.803059 1.113704
v -0.292738 0.799410 1.115811
v -0.207262 0.799410 1.115811
v -0.250000 0.798192 1.116514
v 1.099084 0.828382 -0.960009
v 1.069324 0.879927 -0.335292
v 1.105322 0.817577 -0.919108
v 1.110203 0.809123 -0.877476
v 1.072825 0.873863 -0.377476
v 1.113704 0.803059 -0.835292
v 1.115811 0.799410 -0.792738
v 1.077706 0.865410 -0.419108
v 1.116514 0.798192 -0.750000
v 1.115811 0.799410 -0.707262
v 1.113704 0.803059 -0.664709
v 1.083944 0.854604 -0.460009
v 1.110203 0.809123 -0.622525
v 1.105322 0.817577 -0.580892
v 1.099084 0.828382 -0.539992
v 1.091514 0.841493 -0.500000
v 1.067217 0.883576 -0.292738
v 1.066514 0.884794 -0.250000
v 1.067217 0.883576 -0.207262
v 1.069324 0.879927 -0.164709
v 1.072825 0.873863 -0.122525
v 1.077706 0.865410 -0.080892
v 1.083944 0.854604 -0.039992
v 1.099084 0.828382 0.039992
v 1.105322 0.817577 0.080892
v 1.110203 0.809123 0.122524
v 1.113704 0.803059 0.164708
v 1.115811 0.799410 0.207262
v 1.116514 0.798192 0.250000
v 1.115811 0.799410 0.292738
v 1.113704 0.803059 0.335291
v 1.110203 0.809123 0.377476
v 1.105322 0.817577 0.419108
v 1.083944 0.854604 0.539992
v 1.099084 0.828382 0.460008
v 1.091514 0.841493 0.500000
v 1.077706 0.865410 0.580892
v 1.072825 0.873863 0.622524
v 1.069324 0.879927 0.664709
v 1.067217 0.883576 0.707262
v 1.066514 0.884794 0.750000
v 1.067217 0.883576 0.792738
v 1.069324 0.879927 0.835291
v 1.072825 0.873863 0.877476
v 1.077706 0.865410 0.919108
v 1.083944 0.854604 0.960008
v 1.091514 0.841493 1.000000
v -1.091514 0.841493 1.000000
v -1.000000 0.841493 -1.091514
v -1.091514 0.841493 -1.000000
v -1.083944 0.854604 -0.960008
v -1.077706 0.865410 -0.919108
v -1.072825 0.873863 -0.877475
v -1.069324 0.879927 -0.835291
v -1.067217 0.883576 -0.792738
v -1.066514 0.884794 -0.750000
v -1.067217 0.883576 -0.707262
v -1.069324 0.879927 -0.664708
v -1.072825 0.873863 -0.622524
v -1.077706 0.865410 -0.580892
v -1.083944 0.854604 -0.539991
v -1.099084 0.828382 -0.460008
v -1.105322 0.817577 -0.419108
v -1.110203 0.809123 -0.377475
v -1.069324 0.879927 0.164708
v -1.072825 0.873863 0.122524
v -1.113704 0.803059 -0.335291
v -1.115811 0.799410 -0.292738
v -1.077706 0.865410 0.080892
v -1.116514 0.798192 -0.250000
v -1.115811 0.799410 -0.207262
v -1.113704 0.803059 -0.164708
v -1.083944 0.854604 0.039992
v -1.110203 0.809123 -0.122524
v -1.105322 0.817577 -0.080892
v -1.091514 0.841493 0.000000
v -1.099084 0.828382 -0.039991
v -1.067217 0.883576 0.207262
v -1.066514 0.884794 0.250000
v -1.067217 0.883576 0.292738
v -1.069324 0.879927 0.335291
v -1.072825 0.873863 0.377476
v -1.077706 0.865410 0.419108
v -1.083944 0.854604 0.460008
v -1.099084 0.828382 0.539992
v -1.105322 0.817577 0.580892
v -1.110203 0.809123 0.622524
v -1.113704 0.803059 0.664709
v -1.115811 0.799410 0.707262
v -1.116514 0.798192 0.750000
v -1.115811 0.799410 0.792738
v -1.113704 0.803059 0.835291
v -1.110203 0.809123 0.877476
v -1.105322 0.817576 0.919108
v -1.099084 0.828382 0.960008
v -0.792738 0.799410 -1.115811
v -0.707262 0.799410 -1.115811
v -0.750000 0.798192 -1.116514
v -0.835291 0.803059 -1.113704
v -0.664709 0.803059 -1.113704
v -0.877476 0.809123 -1.110203
v -0.622524 0.809123 -1.110203
v -0.919108 0.817577 -1.105322
v -0.580892 0.817577 -1.105322
v -0.960008 0.828382 -1.099084
v -0.539992 0.828382 -1.099084
v -0.460008 0.854604 -1.083944
v -0.419108 0.865410 -1.077706
v -0.377476 0.873863 -1.072825
v -0.335291 0.879927 -1.069324
v -0.292738 0.883576 -1.067217
v -0.250000 0.884794 -1.066514
v 0.750000 0.884794 -1.066514
v 0.792738 0.883576 -1.067217
v 0.835291 0.879927 -1.069324
v 0.877475 0.873863 -1.072825
v 0.919108 0.865410 -1.077706
v 0.960008 0.854604 -1.083944
v 0.707262 0.883576 -1.067217
v -0.207262 0.883576 -1.067217
v 0.664708 0.879927 -1.069324
v -0.164708 0.879927 -1.069324
v 0.622524 0.873863 -1.072825
v -0.122524 0.873863 -1.072825
v 0.580892 0.865410 -1.077706
v -0.080892 0.865410 -1.077706
v 0.539991 0.854604 -1.083944
v -0.039992 0.854604 -1.083944
v 0.460008 0.828382 -1.099084
v 0.039992 0.828382 -1.099084
v 0.419108 0.817577 -1.105322
v 0.080892 0.817577 -1.105322
v 0.377475 0.809123 -1.110203
v 0.122524 0.809123 -1.110203
v 0.335291 0.803059 -1.113704
v 0.164709 0.803059 -1.113704
v 0.292738 0.799410 -1.115811
v 0.207262 0.799410 -1.115811
v 0.250000 0.798192 -1.116514
v -1.000000 -0.000000 1.000000
v 1.000000 0.000000 -1.000000
v 1.000000 -0.000000 1.000000
v -1.000000 0.000000 -1.000000
vt 0.694179 0.523836
vt 0.727084 0.502158
vt 0.737528 0.523836
vt 0.002232 0.002232
vt 0.476015 0.476015
vt 0.002232 0.476015
vt 0.476015 0.002232
vt 0.535336 0.948670
vt 0.535336 0.928421
vt 0.535669 0.938545
vt 0.534338 0.958750
vt 0.534338 0.918341
vt 0.532679 0.968743
vt 0.532679 0.908347
vt 0.530368 0.978606
vt 0.530368 0.898485
vt 0.527413 0.988295
vt 0.527413 0.888796
vt 0.523827 0.997768
vt 0.520241 0.869849
vt 0.480479 0.997768
vt 0.517286 0.860160
vt 0.514974 0.850297
vt 0.513316 0.840304
vt 0.512318 0.830224
vt 0.511985 0.820099
vt 0.511985 0.583208
vt 0.480479 0.523985
vt 0.512318 0.573084
vt 0.513316 0.563003
vt 0.514974 0.553010
vt 0.517286 0.543148
vt 0.520241 0.533459
vt 0.523827 0.523985
vt 0.512318 0.593332
vt 0.512318 0.809975
vt 0.513316 0.603413
vt 0.513316 0.799895
vt 0.514974 0.613406
vt 0.514974 0.789902
vt 0.517286 0.623268
vt 0.517286 0.780039
vt 0.520241 0.632957
vt 0.520241 0.770350
vt 0.527413 0.651904
vt 0.527413 0.751403
vt 0.530368 0.661593
vt 0.530368 0.741714
vt 0.532679 0.671456
vt 0.532679 0.731852
vt 0.534338 0.681449
vt 0.534338 0.721859
vt 0.535336 0.691529
vt 0.535336 0.711778
vt 0.535669 0.701654
vt 0.694179 0.497694
vt 0.741113 0.488220
vt 0.737527 0.497694
vt 0.694179 0.023911
vt 0.727017 0.340230
vt 0.744068 0.478531
vt 0.746380 0.468669
vt 0.728675 0.350223
vt 0.748038 0.458676
vt 0.749036 0.448596
vt 0.730987 0.360086
vt 0.749370 0.438471
vt 0.749036 0.428347
vt 0.748038 0.418266
vt 0.733942 0.369775
vt 0.746380 0.408273
vt 0.744068 0.398411
vt 0.741113 0.388722
vt 0.906234 0.545375
vt 0.906234 0.525998
vt 0.906234 0.535687
vt 0.726019 0.330150
vt 0.725686 0.320025
vt 0.726019 0.309901
vt 0.727017 0.299821
vt 0.728675 0.289827
vt 0.730987 0.279965
vt 0.733942 0.270276
vt 0.741113 0.251329
vt 0.744068 0.241640
vt 0.746380 0.231778
vt 0.748038 0.221784
vt 0.749036 0.211704
vt 0.749370 0.201580
vt 0.749036 0.191455
vt 0.748038 0.181375
vt 0.746380 0.171382
vt 0.744068 0.161519
vt 0.733942 0.132883
vt 0.741113 0.151830
vt 0.906234 0.521535
vt 0.906234 0.502158
vt 0.906234 0.511846
vt 0.730987 0.123194
vt 0.728675 0.113332
vt 0.727017 0.103338
vt 0.726019 0.093258
vt 0.725686 0.083134
vt 0.726019 0.073009
vt 0.727017 0.062929
vt 0.728675 0.052936
vt 0.730987 0.043073
vt 0.733942 0.033385
vt 0.737527 0.023911
vt 0.727084 0.002232
vt 0.513383 0.502306
vt 0.689716 0.476010
vt 0.656550 0.497843
vt 0.646385 0.475997
vt 0.649969 0.466525
vt 0.652923 0.456837
vt 0.655234 0.446976
vt 0.656892 0.436984
vt 0.657889 0.426904
vt 0.689716 0.002245
vt 0.658222 0.416780
vt 0.657889 0.406656
vt 0.656892 0.396576
vt 0.655234 0.386582
vt 0.652923 0.376720
vt 0.649969 0.367030
vt 0.642801 0.348081
vt 0.639847 0.338392
vt 0.637536 0.328529
vt 0.656892 0.200101
vt 0.655234 0.210093
vt 0.635879 0.318536
vt 0.634881 0.308455
vt 0.652923 0.219954
vt 0.634548 0.298331
vt 0.634881 0.288208
vt 0.635879 0.278128
vt 0.649969 0.229642
vt 0.637536 0.268136
vt 0.639847 0.258274
vt 0.646385 0.239114
vt 0.642801 0.248587
vt 0.657889 0.190021
vt 0.658222 0.179897
vt 0.657889 0.169773
vt 0.656892 0.159693
vt 0.655234 0.149700
vt 0.652923 0.139837
vt 0.649969 0.130148
vt 0.642801 0.111199
vt 0.639847 0.101509
vt 0.637536 0.091646
vt 0.635879 0.081653
vt 0.634881 0.071573
vt 0.634548 0.061449
vt 0.634881 0.051325
vt 0.635879 0.041245
vt 0.637536 0.031253
vt 0.639847 0.021392
vt 0.642801 0.011704
vt 0.646385 0.002232
vt 0.749036 0.948521
vt 0.749036 0.928273
vt 0.749370 0.938397
vt 0.748038 0.958602
vt 0.748038 0.918192
vt 0.746380 0.968595
vt 0.746380 0.908199
vt 0.744068 0.978457
vt 0.744068 0.898337
vt 0.741113 0.988146
vt 0.741113 0.888648
vt 0.737527 0.997620
vt 0.733942 0.869700
vt 0.694179 0.997620
vt 0.730987 0.860011
vt 0.728675 0.850149
vt 0.727017 0.840156
vt 0.726019 0.830075
vt 0.725686 0.819951
vt 0.725686 0.583059
vt 0.726019 0.572935
vt 0.727017 0.562855
vt 0.728675 0.552862
vt 0.730987 0.542999
vt 0.733942 0.533310
vt 0.726019 0.593184
vt 0.726019 0.809827
vt 0.727017 0.603264
vt 0.727017 0.799746
vt 0.728675 0.613257
vt 0.728675 0.789753
vt 0.730987 0.623120
vt 0.730987 0.779891
vt 0.733942 0.632809
vt 0.733942 0.770202
vt 0.741113 0.651756
vt 0.741113 0.751254
vt 0.744068 0.661445
vt 0.744068 0.741566
vt 0.746380 0.671307
vt 0.746380 0.731703
vt 0.748038 0.681300
vt 0.748038 0.721710
vt 0.749036 0.691381
vt 0.749036 0.711630
vt 0.749370 0.701505
vt 0.002232 0.954262
vt 0.476015 0.480479
vt 0.476015 0.954262
vt 0.002232 0.480479
vt 0.688070 0.523985
vt 0.688070 0.997768
vt 0.901773 0.497694
vt 0.901773 0.023910
vt 0.480479 0.003217
vt 0.480479 0.476982
vt 0.901771 0.523836
vt 0.901771 0.997620
vn 0.6547 0.3780 -0.6547
vn 0.0000 1.0000 0.0000
vn 0.0000 0.5001 0.8660
vn 0.0000 0.5000 0.8660
vn 0.0000 0.4998 0.8661
vn 0.0000 0.4999 0.8661
vn 0.8660 0.5000 -0.0000
vn 0.8662 0.4998 0.0001
vn 0.8659 0.5002 -0.0001
vn 0.8662 0.4997 0.0000
vn 0.8660 0.5001 -0.0000
vn 0.8559 0.5034 -0.1184
vn 0.8658 0.5004 0.0000
vn 0.8661 0.4999 0.0000
vn -0.0811 0.8902 -0.4483
vn 0.6547 0.3780 0.6547
vn -0.6547 0.3780 0.6547
vn -0.6547 0.3780 -0.6547
vn -0.8660 0.5000 -0.0000
vn -0.8659 0.5002 -0.0000
vn -0.8661 0.4999 0.0000
vn -0.8663 0.4996 0.0001
vn -0.8658 0.5003 -0.0001
vn -0.8663 0.4995 0.0002
vn -0.8659 0.5002 -0.0001
vn 0.0000 0.5001 -0.8660
vn 0.0000 0.4998 -0.8661
vn 0.0000 0.5000 -0.8660
vn -0.0000 0.4999 -0.8661
vn 0.0000 0.4998 -0.8662
vn -0.0000 -1.0000 -0.0000
vn 0.0000 -0.0000 1.0000
vn 1.0000 0.0000 -0.0000
vn -1.0000 0.0000 0.0000
vn -0.0000 0.0000 -1.0000
s 1
f 1/1/1 2/2/1 3/3/1
f 1/4/2 4/5/2 5/6/2
f 4/5/2 1/4/2 6/7/2
f 7/8/3 8/9/4 9/10/5
f 8/9/4 7/8/3 10/11/4
f 8/9/4 10/11/4 11/12/4
f 11/12/4 10/11/4 12/13/4
f 11/12/4 12/13/4 13/14/4
f 13/14/4 12/13/4 14/15/4
f 13/14/4 14/15/4 15/16/4
f 15/16/4 14/15/4 16/17/4
f 15/16/4 16/17/4 17/18/4
f 17/18/4 16/17/4 18/19/4
f 17/18/4 18/19/4 19/20/4
f 19/20/4 18/19/4 5/21/4
f 19/20/4 5/21/4 20/22/4
f 20/22/4 5/21/4 21/23/4
f 21/23/4 5/21/4 22/24/4
f 22/24/4 5/21/4 23/25/4
f 23/25/4 5/21/4 24/26/4
f 24/26/4 5/21/4 25/27/4
f 4/28/4 25/27/4 5/21/4
f 4/28/4 26/29/4 25/27/4
f 4/28/4 27/30/4 26/29/4
f 4/28/4 28/31/4 27/30/4
f 4/28/4 29/32/4 28/31/4
f 4/28/4 30/33/4 29/32/4
f 30/33/4 4/28/4 31/34/4
f 32/35/6 24/26/4 25/27/4
f 32/35/6 33/36/5 24/26/4
f 34/37/4 33/36/5 32/35/6
f 34/37/4 35/38/3 33/36/5
f 36/39/4 35/38/3 34/37/4
f 36/39/4 37/40/4 35/38/3
f 38/41/4 37/40/4 36/39/4
f 38/41/4 39/42/4 37/40/4
f 40/43/4 39/42/4 38/41/4
f 40/43/4 41/44/4 39/42/4
f 42/45/4 41/44/4 40/43/4
f 42/45/4 43/46/4 41/44/4
f 44/47/4 43/46/4 42/45/4
f 44/47/4 45/48/4 43/46/4
f 46/49/4 45/48/4 44/47/4
f 46/49/4 47/50/4 45/48/4
f 48/51/4 47/50/4 46/49/4
f 48/51/4 49/52/4 47/50/4
f 50/53/4 49/52/4 48/51/4
f 50/53/4 51/54/4 49/52/4
f 51/54/4 50/53/4 52/55/5
f 1/56/7 53/57/7 2/58/7
f 53/57/7 1/56/7 5/59/7
f 53/57/7 5/59/7 54/60/7
f 53/57/7 54/60/7 55/61/7
f 55/61/7 54/60/7 56/62/7
f 56/62/7 54/60/7 57/63/8
f 56/62/7 57/63/8 58/64/7
f 58/64/7 57/63/8 59/65/7
f 59/65/7 57/63/8 60/66/9
f 59/65/7 60/66/9 61/67/7
f 61/67/7 60/66/9 62/68/7
f 62/68/7 60/66/9 63/69/7
f 63/69/7 60/66/9 64/70/10
f 63/69/7 64/70/10 65/71/11
f 65/71/11 64/70/10 66/72/7
f 66/72/7 64/70/10 67/73/9
f 67/74/9 64/75/10 68/76/12
f 54/60/7 5/59/7 69/77/13
f 69/77/13 5/59/7 70/78/11
f 70/78/11 5/59/7 71/79/7
f 71/79/7 5/59/7 72/80/7
f 72/80/7 5/59/7 73/81/7
f 73/81/7 5/59/7 74/82/7
f 74/82/7 5/59/7 75/83/7
f 75/83/7 5/59/7 76/84/7
f 76/84/7 5/59/7 77/85/7
f 77/85/7 5/59/7 78/86/7
f 78/86/7 5/59/7 79/87/7
f 79/87/7 5/59/7 80/88/7
f 80/88/7 5/59/7 81/89/7
f 81/89/7 5/59/7 82/90/7
f 82/90/7 5/59/7 83/91/7
f 83/91/7 5/59/7 84/92/7
f 84/92/7 5/59/7 85/93/14
f 85/93/14 5/59/7 86/94/14
f 85/93/14 86/94/14 87/95/9
f 87/96/9 86/97/14 88/98/15
f 86/94/14 5/59/7 89/99/9
f 89/99/9 5/59/7 90/100/14
f 90/100/14 5/59/7 91/101/7
f 91/101/7 5/59/7 92/102/7
f 92/102/7 5/59/7 93/103/7
f 93/103/7 5/59/7 94/104/7
f 94/104/7 5/59/7 95/105/7
f 95/105/7 5/59/7 96/106/7
f 96/106/7 5/59/7 97/107/7
f 97/107/7 5/59/7 98/108/7
f 98/108/7 5/59/7 99/109/7
f 5/59/16 18/110/16 99/109/16
f 31/34/17 4/28/17 100/111/17
f 6/112/18 101/113/18 102/114/18
f 103/115/19 6/112/19 102/114/19
f 6/112/19 103/115/19 104/116/19
f 6/112/19 104/116/19 105/117/19
f 6/112/19 105/117/19 106/118/19
f 6/112/19 106/118/19 107/119/19
f 6/112/19 107/119/19 4/120/19
f 4/120/19 107/119/19 108/121/20
f 4/120/19 108/121/20 109/122/21
f 4/120/19 109/122/21 110/123/19
f 4/120/19 110/123/19 111/124/19
f 4/120/19 111/124/19 112/125/19
f 4/120/19 112/125/19 113/126/19
f 4/120/19 113/126/19 114/127/19
f 4/120/19 114/127/19 115/128/19
f 4/120/19 115/128/19 116/129/19
f 4/120/19 116/129/19 117/130/21
f 117/130/21 116/129/19 118/131/22
f 118/131/22 116/129/19 119/132/19
f 118/131/22 119/132/19 120/133/19
f 118/131/22 120/133/19 121/134/23
f 121/134/23 120/133/19 122/135/19
f 121/134/23 122/135/19 123/136/19
f 121/134/23 123/136/19 124/137/19
f 121/134/23 124/137/19 125/138/24
f 125/138/24 124/137/19 126/139/19
f 125/138/24 126/139/19 127/140/21
f 125/138/24 127/140/21 128/141/25
f 128/141/25 127/140/21 129/142/25
f 4/120/19 117/130/21 130/143/19
f 4/120/19 130/143/19 131/144/19
f 4/120/19 131/144/19 132/145/19
f 4/120/19 132/145/19 133/146/19
f 4/120/19 133/146/19 134/147/19
f 4/120/19 134/147/19 135/148/19
f 4/120/19 135/148/19 136/149/19
f 4/120/19 136/149/19 137/150/19
f 4/120/19 137/150/19 138/151/19
f 4/120/19 138/151/19 139/152/19
f 4/120/19 139/152/19 140/153/19
f 4/120/19 140/153/19 141/154/19
f 4/120/19 141/154/19 142/155/19
f 4/120/19 142/155/19 143/156/19
f 4/120/19 143/156/19 144/157/19
f 4/120/19 144/157/19 145/158/19
f 4/120/19 145/158/19 146/159/19
f 4/120/19 146/159/19 147/160/19
f 4/120/19 147/160/19 100/161/19
f 148/162/26 149/163/26 150/164/27
f 149/163/26 148/162/26 151/165/28
f 149/163/26 151/165/28 152/166/28
f 152/166/28 151/165/28 153/167/28
f 152/166/28 153/167/28 154/168/28
f 154/168/28 153/167/28 155/169/28
f 154/168/28 155/169/28 156/170/28
f 156/170/28 155/169/28 157/171/28
f 156/170/28 157/171/28 158/172/28
f 158/172/28 157/171/28 101/173/28
f 158/172/28 101/173/28 159/174/28
f 159/174/28 101/173/28 6/175/28
f 159/174/28 6/175/28 160/176/28
f 160/176/28 6/175/28 161/177/28
f 161/177/28 6/175/28 162/178/28
f 162/178/28 6/175/28 163/179/28
f 163/179/28 6/175/28 164/180/28
f 164/180/28 6/175/28 165/181/28
f 1/1/28 165/181/28 6/175/28
f 1/1/28 166/182/28 165/181/28
f 1/1/28 167/183/28 166/182/28
f 1/1/28 168/184/28 167/183/28
f 1/1/28 169/185/28 168/184/28
f 1/1/28 170/186/28 169/185/28
f 170/186/28 1/1/28 3/3/28
f 171/187/29 164/180/28 165/181/28
f 171/187/29 172/188/29 164/180/28
f 173/189/28 172/188/29 171/187/29
f 173/189/28 174/190/28 172/188/29
f 175/191/28 174/190/28 173/189/28
f 175/191/28 176/192/28 174/190/28
f 177/193/28 176/192/28 175/191/28
f 177/193/28 178/194/28 176/192/28
f 179/195/28 178/194/28 177/193/28
f 179/195/28 180/196/28 178/194/28
f 181/197/28 180/196/28 179/195/28
f 181/197/28 182/198/28 180/196/28
f 183/199/28 182/198/28 181/197/28
f 183/199/28 184/200/28 182/198/28
f 185/201/28 184/200/28 183/199/28
f 185/201/28 186/202/28 184/200/28
f 187/203/28 186/202/28 185/201/28
f 187/203/28 188/204/28 186/202/28
f 189/205/28 188/204/28 187/203/28
f 189/205/28 190/206/26 188/204/28
f 190/206/26 189/205/28 191/207/30
f 192/208/31 193/209/31 194/210/31
f 193/209/31 192/208/31 195/211/31
f 5/21/32 192/212/32 194/213/32
f 192/212/32 5/21/32 4/28/32
f 5/59/33 193/214/33 1/56/33
f 193/214/33 5/59/33 194/215/33
f 192/216/34 6/112/34 195/217/34
f 6/112/34 192/216/34 4/120/34
f 6/175/35 193/218/35 195/219/35
f 193/218/35 6/175/35 1/1/35
