# Blender v2.92.0 OBJ File: 'kenney_OGConvert.blend'
# www.blender.org
o blockSnowRoundedLow
v -0.400000 -0.000000 0.400000
v 0.400000 0.000000 -0.400000
v 0.400000 -0.000000 0.400000
v -0.400000 0.000000 -0.400000
v -0.500000 0.100000 0.400000
v -0.500000 0.400000 -0.400000
v -0.500000 0.100000 -0.400000
v -0.500000 0.400000 0.400000
v -0.400000 0.400000 -0.500000
v 0.400000 0.100000 -0.500000
v -0.400000 0.100000 -0.500000
v 0.400000 0.400000 -0.500000
v 0.500000 0.400000 0.400000
v 0.500000 0.100000 -0.400000
v 0.500000 0.400000 -0.400000
v 0.500000 0.100000 0.400000
v 0.400000 0.400000 0.500000
v -0.400000 0.100000 0.500000
v 0.400000 0.100000 0.500000
v -0.400000 0.400000 0.500000
v -0.443301 0.050000 0.475000
v -0.400000 0.013397 0.450000
v -0.400000 0.050000 0.486603
v -0.425000 0.013397 0.443301
v -0.450000 0.100000 0.486603
v -0.450000 0.013397 -0.400000
v -0.443301 0.013397 -0.425000
v -0.443301 0.013397 0.425000
v -0.475000 0.050000 0.443301
v -0.486602 0.100000 0.450000
v -0.486603 0.050000 -0.400000
v -0.475000 0.050000 -0.443301
v -0.425000 0.013397 -0.443301
v -0.400000 0.013397 -0.450000
v 0.425000 0.013397 -0.443301
v 0.400000 0.050000 -0.486603
v 0.443301 0.050000 -0.475000
v 0.400000 0.013397 -0.450000
v 0.443301 0.013397 -0.425000
v -0.443301 0.050000 -0.475000
v 0.450000 0.013397 -0.400000
v 0.400000 0.050000 0.486602
v 0.425000 0.013397 0.443301
v 0.443301 0.050000 0.475000
v 0.400000 0.013397 0.450000
v 0.486603 0.100000 0.450000
v 0.475000 0.050000 0.443301
v 0.450000 0.100000 0.486602
v 0.486603 0.050000 0.400000
v 0.475000 0.050000 -0.443301
v 0.486602 0.100000 -0.450000
v 0.486602 0.050000 -0.400000
v -0.400000 0.050000 -0.486602
v -0.486602 0.050000 0.400000
v 0.443301 0.013397 0.425000
v -0.450000 0.100000 -0.486602
v 0.450000 0.013397 0.400000
v 0.450000 0.100000 -0.486603
v -0.486603 0.100000 -0.450000
v -0.450000 0.013397 0.400000
v -0.486603 0.400000 -0.450000
v -0.450000 0.400000 -0.486602
v -0.486602 0.400000 0.450000
v -0.450000 0.400000 0.486603
v 0.450000 0.400000 -0.486603
v 0.486602 0.400000 -0.450000
v 0.486603 0.400000 0.450000
v 0.450000 0.400000 0.486602
v -0.400000 0.500000 -0.400000
v 0.400000 0.500000 0.400000
v 0.400000 0.500000 -0.400000
v -0.400000 0.500000 0.400000
v -0.425000 0.486602 0.443301
v -0.400000 0.486602 0.450000
v -0.450000 0.486602 0.400000
v -0.443301 0.486602 0.425000
v -0.475000 0.450000 0.443301
v -0.486602 0.450000 0.400000
v -0.443301 0.450000 0.475000
v -0.400000 0.450000 0.486603
v -0.400000 0.486603 -0.450000
v 0.400000 0.450000 -0.486603
v -0.400000 0.450000 -0.486602
v 0.400000 0.486603 -0.450000
v 0.450000 0.486602 0.400000
v 0.486602 0.450000 -0.400000
v 0.450000 0.486603 -0.400000
v 0.486603 0.450000 0.400000
v 0.400000 0.486602 0.450000
v -0.486603 0.450000 -0.400000
v -0.450000 0.486603 -0.400000
v 0.400000 0.450000 0.486602
v -0.443301 0.486603 -0.425000
v -0.425000 0.486603 -0.443301
v -0.475000 0.450000 -0.443301
v -0.443301 0.450000 -0.475000
v 0.443301 0.450000 0.475000
v 0.443301 0.486602 0.425000
v 0.475000 0.450000 0.443301
v 0.443301 0.450000 -0.475000
v 0.443301 0.486603 -0.425000
v 0.475000 0.450000 -0.443301
v 0.425000 0.486603 -0.443301
v 0.425000 0.486602 0.443301
vt 0.453774 0.453774
vt 0.046226 0.046226
vt 0.453774 0.046226
vt 0.046226 0.453774
vt 0.546226 0.362332
vt 0.699057 0.650512
vt 0.546226 0.650512
vt 0.699057 0.362332
vt 0.944340 0.438593
vt 0.791509 0.726773
vt 0.791509 0.438593
vt 0.944340 0.726773
vt 0.944340 0.290288
vt 0.791509 0.002108
vt 0.944340 0.002108
vt 0.791509 0.290288
vt 0.699057 0.002108
vt 0.546226 0.290287
vt 0.546226 0.002108
vt 0.699057 0.290287
vt 0.491981 0.475833
vt 0.479245 0.453774
vt 0.497892 0.453774
vt 0.475833 0.466509
vt 0.520755 0.314891
vt 0.520755 0.295114
vt 0.546226 0.313125
vt 0.046226 0.479245
vt 0.033490 0.475833
vt 0.502108 0.332902
vt 0.502108 0.319717
vt 0.520755 0.337729
vt 0.546226 0.339495
vt 0.046226 0.497892
vt 0.024167 0.491981
vt 0.024167 0.466509
vt 0.020755 0.453774
vt 0.024167 0.033490
vt 0.002108 0.046226
vt 0.008019 0.024167
vt 0.020755 0.046226
vt 0.033491 0.024167
vt 0.747391 0.395979
vt 0.766038 0.413990
vt 0.747391 0.409164
vt 0.766038 0.391152
vt 0.046226 0.020755
vt 0.497892 0.046226
vt 0.475833 0.033491
vt 0.491981 0.024167
vt 0.479245 0.046226
vt 0.791509 0.313125
vt 0.766038 0.337729
vt 0.766038 0.314891
vt 0.791509 0.339495
vt 0.766038 0.295114
vt 0.574153 0.851676
vt 0.549549 0.877148
vt 0.551316 0.851676
vt 0.569327 0.877148
vt 0.002108 0.453774
vt 0.008019 0.475833
vt 0.520755 0.357506
vt 0.466509 0.024167
vt 0.791509 0.415756
vt 0.766038 0.433767
vt 0.046226 0.002108
vt 0.024167 0.008019
vt 0.475833 0.008019
vt 0.453774 0.020755
vt 0.453774 0.002108
vt 0.544723 0.895795
vt 0.526712 0.877148
vt 0.531538 0.895795
vt 0.502108 0.851676
vt 0.506934 0.877148
vt 0.524945 0.851676
vt 0.791509 0.389386
vt 0.766038 0.357506
vt 0.791509 0.362332
vt 0.791509 0.366549
vt 0.766038 0.371375
vt 0.747391 0.319717
vt 0.747391 0.332903
vt 0.453774 0.479245
vt 0.453774 0.497892
vt 0.520755 0.645686
vt 0.944340 0.389386
vt 0.944340 0.366549
vt 0.944340 0.415756
vt 0.766038 0.721947
vt 0.766038 0.006934
vt 0.699057 0.339495
vt 0.699057 0.313125
vt 0.520755 0.006934
vt 0.502108 0.698846
vt 0.524945 0.698846
vt 0.574153 0.698846
vt 0.551316 0.698846
vt 0.944340 0.313125
vt 0.944340 0.339495
vt 0.944340 0.362332
vt 0.466509 0.475833
vt 0.475833 0.491981
vt 0.046226 0.546226
vt 0.453774 0.953774
vt 0.046226 0.953774
vt 0.453774 0.546226
vt 0.475833 0.533491
vt 0.479245 0.546226
vt 0.453774 0.520755
vt 0.466509 0.524167
vt 0.475833 0.508019
vt 0.453774 0.502108
vt 0.743175 0.332902
vt 0.724528 0.314891
vt 0.743175 0.319717
vt 0.724528 0.337729
vt 0.497892 0.546226
vt 0.491981 0.524167
vt 0.724528 0.357506
vt 0.724528 0.295114
vt 0.020755 0.546226
vt 0.002108 0.953774
vt 0.002108 0.546226
vt 0.020755 0.953774
vt 0.453774 0.979245
vt 0.046226 0.997892
vt 0.046226 0.979245
vt 0.453774 0.997892
vt 0.969811 0.433767
vt 0.969811 0.721947
vt 0.969811 0.295114
vt 0.969811 0.006934
vt 0.479245 0.953774
vt 0.724528 0.645686
vt 0.046226 0.520755
vt 0.497892 0.953774
vt 0.724528 0.006934
vt 0.046226 0.502108
vt 0.033491 0.524167
vt 0.024167 0.533490
vt 0.024167 0.508019
vt 0.969811 0.413990
vt 0.988458 0.395979
vt 0.988458 0.409164
vt 0.969811 0.391152
vt 0.008019 0.524167
vt 0.969811 0.371375
vt 0.969811 0.337729
vt 0.969811 0.357506
vt 0.466509 0.975833
vt 0.475833 0.991981
vt 0.526712 0.673374
vt 0.544723 0.654728
vt 0.549549 0.673374
vt 0.531538 0.654728
vt 0.475833 0.966509
vt 0.969811 0.314891
vt 0.033490 0.975833
vt 0.024167 0.991981
vt 0.988458 0.319717
vt 0.988458 0.332903
vt 0.024167 0.966509
vt 0.008019 0.975833
vt 0.491981 0.975833
vt 0.569327 0.673374
vt 0.506934 0.673374
vn -0.0000 -1.0000 -0.0000
vn -1.0000 -0.0000 0.0000
vn -0.0000 0.0000 -1.0000
vn 1.0000 -0.0000 -0.0000
vn 0.0000 0.0000 1.0000
vn -0.4380 -0.4823 0.7586
vn -0.1408 -0.8390 0.5256
vn -0.2285 -0.4696 0.8528
vn -0.2654 -0.8474 0.4598
vn -0.2506 -0.2506 0.9351
vn -0.4830 -0.2588 0.8365
vn -0.5256 -0.8390 -0.1408
vn -0.4598 -0.8474 -0.2654
vn -0.1732 -0.9695 -0.1732
vn -0.4598 -0.8474 0.2654
vn -0.7586 -0.4823 0.4380
vn -0.1732 -0.9695 0.1732
vn -0.8365 -0.2588 0.4830
vn -0.8528 -0.4696 -0.2285
vn -0.7586 -0.4823 -0.4380
vn -0.2654 -0.8474 -0.4598
vn -0.1408 -0.8390 -0.5256
vn 0.2654 -0.8474 -0.4598
vn 0.2285 -0.4696 -0.8528
vn 0.4380 -0.4823 -0.7586
vn 0.1408 -0.8390 -0.5256
vn 0.1732 -0.9695 -0.1732
vn 0.4598 -0.8474 -0.2655
vn -0.4380 -0.4823 -0.7586
vn 0.5256 -0.8390 -0.1408
vn 0.2285 -0.4696 0.8528
vn 0.2654 -0.8474 0.4598
vn 0.4380 -0.4823 0.7586
vn 0.1408 -0.8390 0.5256
vn 0.8365 -0.2588 0.4830
vn 0.7586 -0.4823 0.4380
vn 0.4830 -0.2588 0.8365
vn 0.8528 -0.4696 0.2285
vn 0.9351 -0.2506 0.2506
vn 0.9351 -0.2506 -0.2506
vn 0.7586 -0.4823 -0.4380
vn 0.8365 -0.2588 -0.4830
vn 0.8528 -0.4696 -0.2285
vn -0.2285 -0.4696 -0.8528
vn -0.9351 -0.2506 0.2506
vn -0.8528 -0.4696 0.2285
vn 0.1732 -0.9695 0.1732
vn 0.4598 -0.8474 0.2654
vn -0.4830 -0.2588 -0.8365
vn -0.2506 -0.2506 -0.9351
vn 0.5256 -0.8390 0.1408
vn 0.2506 -0.2506 -0.9351
vn 0.4830 -0.2588 -0.8365
vn -0.8365 -0.2588 -0.4830
vn 0.2506 -0.2506 0.9351
vn -0.9351 -0.2506 -0.2506
vn -0.5000 -0.8660 0.0000
vn -0.8660 -0.5000 0.0000
vn -0.9659 -0.2588 0.0000
vn -0.2588 -0.9659 -0.0000
vn -0.9659 0.0000 -0.2588
vn -0.8589 0.1278 -0.4959
vn -0.8660 0.0000 -0.5000
vn -0.9585 0.1235 -0.2568
vn -0.4959 0.1278 -0.8589
vn -0.5000 0.0000 -0.8660
vn -0.2588 0.0000 -0.9659
vn -0.2568 0.1235 -0.9585
vn -0.0000 -0.8660 -0.5000
vn -0.0000 -0.5000 -0.8660
vn -0.0000 -0.2588 -0.9659
vn -0.0000 -0.9659 -0.2588
vn 0.2588 -0.9659 -0.0000
vn 0.5000 -0.8660 -0.0000
vn 0.8660 -0.5000 -0.0000
vn 0.9659 -0.2588 -0.0000
vn 0.0000 -0.8660 0.5000
vn 0.0000 -0.9659 0.2588
vn -0.5000 0.0000 0.8660
vn -0.8660 0.0000 0.5000
vn -0.2588 0.0000 0.9659
vn 0.0000 -0.5000 0.8660
vn 0.0000 -0.2588 0.9659
vn -0.9659 0.0000 0.2588
vn 0.2588 0.0000 -0.9659
vn 0.5000 -0.0000 -0.8660
vn 0.9659 0.0000 -0.2588
vn 0.8660 -0.0000 -0.5000
vn 0.8660 0.0000 0.5000
vn 0.9659 -0.0000 0.2588
vn 0.5000 0.0000 0.8660
vn 0.2588 0.0000 0.9659
vn -0.5256 -0.8390 0.1408
vn 0.0000 1.0000 0.0000
vn -0.2654 0.8474 0.4598
vn -0.1408 0.8390 0.5256
vn -0.1732 0.9695 0.1732
vn -0.5256 0.8390 0.1408
vn -0.4598 0.8474 0.2654
vn -0.7586 0.4823 0.4380
vn -0.8528 0.4696 0.2285
vn -0.4380 0.4823 0.7586
vn -0.2285 0.4696 0.8528
vn -0.8365 0.2588 0.4830
vn -0.9351 0.2506 0.2506
vn -0.4830 0.2588 0.8365
vn -0.2506 0.2506 0.9351
vn -0.0000 0.8660 -0.5000
vn -0.0000 0.5000 -0.8660
vn -0.0000 0.9659 -0.2588
vn 0.5000 0.8660 -0.0000
vn 0.8660 0.5000 -0.0000
vn -0.0000 0.2588 -0.9659
vn 0.2588 0.9659 0.0000
vn 0.9659 0.2588 -0.0000
vn 0.0000 0.9659 0.2588
vn 0.0000 0.8660 0.5000
vn -0.9659 0.2588 0.0000
vn -0.8660 0.5000 0.0000
vn -0.5000 0.8660 0.0000
vn -0.2588 0.9659 0.0000
vn 0.0000 0.5000 0.8660
vn 0.0000 0.2588 0.9659
vn -0.5256 0.8390 -0.1408
vn -0.1732 0.9695 -0.1732
vn -0.4598 0.8474 -0.2654
vn -0.2654 0.8474 -0.4598
vn -0.8528 0.4696 -0.2285
vn -0.7586 0.4823 -0.4380
vn -0.4380 0.4823 -0.7586
vn -0.1408 0.8390 -0.5256
vn -0.2285 0.4696 -0.8528
vn 0.4380 0.4823 0.7586
vn 0.2506 0.2506 0.9351
vn 0.4830 0.2588 0.8365
vn 0.2285 0.4696 0.8528
vn 0.4598 0.8474 0.2654
vn 0.8528 0.4696 0.2285
vn 0.5256 0.8390 0.1408
vn 0.7586 0.4823 0.4380
vn 0.4380 0.4823 -0.7586
vn 0.4598 0.8474 -0.2654
vn 0.7586 0.4823 -0.4380
vn 0.2655 0.8474 -0.4598
vn 0.1408 0.8390 0.5256
vn 0.2654 0.8474 0.4598
vn 0.1732 0.9695 0.1732
vn 0.9351 0.2506 0.2506
vn 0.8365 0.2588 0.4830
vn 0.1732 0.9695 -0.1732
vn 0.5256 0.8390 -0.1408
vn 0.8528 0.4696 -0.2285
vn 0.2285 0.4696 -0.8528
vn 0.1408 0.8390 -0.5256
vn 0.8365 0.2588 -0.4830
vn 0.4830 0.2588 -0.8365
vn 0.9351 0.2506 -0.2506
vn 0.2506 0.2506 -0.9351
s 1
f 1/1/1 2/2/1 3/3/1
f 2/2/1 1/1/1 4/4/1
f 5/5/2 6/6/2 7/7/2
f 6/6/2 5/5/2 8/8/2
f 9/9/3 10/10/3 11/11/3
f 10/10/3 9/9/3 12/12/3
f 13/13/4 14/14/4 15/15/4
f 14/14/4 13/13/4 16/16/4
f 17/17/5 18/18/5 19/19/5
f 18/18/5 17/17/5 20/20/5
f 21/21/6 22/22/7 23/23/8
f 22/22/7 21/21/6 24/24/9
f 18/18/10 21/25/6 23/26/8
f 21/25/6 18/18/10 25/27/11
f 26/28/12 27/29/13 4/4/14
f 21/25/6 28/30/15 24/31/9
f 28/30/15 21/25/6 29/32/16
f 24/24/9 1/1/17 22/22/7
f 21/25/6 30/33/18 29/32/16
f 30/33/18 21/25/6 25/27/11
f 27/29/13 31/34/19 32/35/20
f 31/34/19 27/29/13 26/28/12
f 33/36/21 34/37/22 4/4/14
f 35/38/23 36/39/24 37/40/25
f 36/39/24 35/38/23 38/41/26
f 2/2/27 35/38/23 39/42/28
f 27/43/13 40/44/29 33/45/21
f 40/44/29 27/43/13 32/46/20
f 2/2/27 39/42/28 41/47/30
f 42/48/31 43/49/32 44/50/33
f 43/49/32 42/48/31 45/51/34
f 46/52/35 44/53/33 47/54/36
f 44/53/33 46/52/35 48/55/37
f 27/29/13 33/36/21 4/4/14
f 46/52/35 49/56/38 16/16/39
f 49/56/38 46/52/35 47/54/36
f 14/57/40 50/58/41 51/59/42
f 50/58/41 14/57/40 52/60/43
f 33/36/21 53/61/44 34/37/22
f 53/61/44 33/36/21 40/62/29
f 29/32/16 5/5/45 54/63/46
f 5/5/45 29/32/16 30/33/18
f 38/41/26 35/38/23 2/2/27
f 3/3/47 55/64/48 43/49/32
f 56/65/49 53/66/44 40/44/29
f 53/66/44 56/65/49 11/11/50
f 52/67/43 39/42/28 50/68/41
f 39/42/28 52/67/43 41/47/30
f 47/69/36 57/70/51 49/71/38
f 57/70/51 47/69/36 55/64/48
f 39/72/28 37/73/25 50/58/41
f 37/73/25 39/72/28 35/74/23
f 10/75/52 37/73/25 36/76/24
f 37/73/25 10/75/52 58/77/53
f 40/44/29 59/78/54 56/65/49
f 59/78/54 40/44/29 32/46/20
f 48/55/37 42/79/31 44/53/33
f 42/79/31 48/55/37 19/80/55
f 32/46/20 7/81/56 59/78/54
f 7/81/56 32/46/20 31/82/19
f 51/59/42 37/73/25 58/77/53
f 37/73/25 51/59/42 50/58/41
f 3/3/47 43/49/32 45/51/34
f 44/53/33 55/83/48 47/54/36
f 55/83/48 44/53/33 43/84/32
f 3/3/47 57/70/51 55/64/48
f 60/85/57 31/34/58 26/28/57
f 31/34/58 60/85/57 54/86/58
f 54/63/58 7/7/59 31/87/58
f 7/7/59 54/63/58 5/5/59
f 60/85/57 4/4/60 1/1/60
f 4/4/60 60/85/57 26/28/57
f 7/81/61 61/88/62 59/78/63
f 61/88/62 7/81/61 6/89/64
f 59/78/63 62/90/65 56/65/66
f 62/90/65 59/78/63 61/88/62
f 62/90/65 11/11/67 56/65/66
f 11/11/67 62/90/65 9/9/68
f 34/37/69 36/39/70 38/41/69
f 36/39/70 34/37/69 53/61/70
f 11/11/71 36/91/70 53/66/70
f 36/91/70 11/11/71 10/10/71
f 4/4/72 38/41/69 2/2/72
f 38/41/69 4/4/72 34/37/69
f 3/3/73 41/47/74 57/70/74
f 41/47/74 3/3/73 2/2/73
f 49/71/75 41/47/74 52/67/75
f 41/47/74 49/71/75 57/70/74
f 16/16/76 52/92/75 14/14/76
f 52/92/75 16/16/76 49/56/75
f 22/22/77 3/3/78 45/51/77
f 3/3/78 22/22/77 1/1/78
f 25/27/79 63/93/80 30/33/80
f 63/93/80 25/27/79 64/94/79
f 20/20/81 25/27/79 18/18/81
f 25/27/79 20/20/81 64/94/79
f 23/23/82 45/51/77 42/48/82
f 45/51/77 23/23/82 22/22/77
f 19/19/83 23/26/82 42/95/82
f 23/26/82 19/19/83 18/18/83
f 30/33/80 8/8/84 5/5/84
f 8/8/84 30/33/80 63/93/80
f 12/96/85 58/77/86 10/75/85
f 58/77/86 12/96/85 65/97/86
f 15/98/87 51/59/88 66/99/88
f 51/59/88 15/98/87 14/57/87
f 66/99/88 58/77/86 65/97/86
f 58/77/86 66/99/88 51/59/88
f 67/100/89 16/16/90 13/13/90
f 16/16/90 67/100/89 46/52/89
f 68/101/91 46/52/89 67/100/89
f 46/52/89 68/101/91 48/55/91
f 68/101/91 19/80/92 48/55/91
f 19/80/92 68/101/91 17/102/92
f 28/103/15 1/1/17 24/24/9
f 28/103/15 54/86/46 60/85/93
f 54/86/46 28/103/15 29/104/16
f 60/85/93 1/1/17 28/103/15
f 69/105/94 70/106/94 71/107/94
f 70/106/94 69/105/94 72/108/94
f 73/109/95 74/110/96 72/108/97
f 75/111/98 76/112/99 72/108/97
f 77/113/100 75/111/98 78/114/101
f 75/111/98 77/113/100 76/112/99
f 76/112/99 73/109/95 72/108/97
f 76/115/99 79/116/102 73/117/95
f 79/116/102 76/115/99 77/118/100
f 73/109/95 80/119/103 74/110/96
f 80/119/103 73/109/95 79/120/102
f 63/93/104 78/121/101 8/8/105
f 78/121/101 63/93/104 77/118/100
f 80/122/103 64/94/106 20/20/107
f 64/94/106 80/122/103 79/116/102
f 63/93/104 79/116/102 77/118/100
f 79/116/102 63/93/104 64/94/106
f 81/123/108 82/124/109 83/125/109
f 82/124/109 81/123/108 84/126/108
f 81/123/108 71/107/110 84/126/108
f 71/107/110 81/123/108 69/105/110
f 85/127/111 86/128/112 87/129/111
f 86/128/112 85/127/111 88/130/112
f 83/131/109 12/12/113 9/9/113
f 12/12/113 83/131/109 82/132/109
f 71/107/114 85/127/111 87/129/111
f 85/127/111 71/107/114 70/106/114
f 88/133/112 15/15/115 86/134/112
f 15/15/115 88/133/112 13/13/115
f 72/108/116 89/135/117 70/106/116
f 89/135/117 72/108/116 74/110/117
f 8/8/118 90/136/119 6/6/118
f 90/136/119 8/8/118 78/121/119
f 91/137/120 72/108/121 69/105/121
f 72/108/121 91/137/120 75/111/120
f 89/135/117 80/119/122 92/138/122
f 80/119/122 89/135/117 74/110/117
f 92/139/122 20/20/123 17/17/123
f 20/20/123 92/139/122 80/122/122
f 78/114/119 91/137/120 90/140/119
f 91/137/120 78/114/119 75/111/120
f 91/137/124 69/105/125 93/141/126
f 93/141/126 69/105/125 94/142/127
f 90/140/128 93/141/126 95/143/129
f 93/141/126 90/140/128 91/137/124
f 96/144/130 93/145/126 94/146/127
f 93/145/126 96/144/130 95/147/129
f 94/142/127 69/105/125 81/123/131
f 96/148/130 81/123/131 83/125/132
f 81/123/131 96/148/130 94/142/127
f 6/89/64 95/147/129 61/88/62
f 95/147/129 6/89/64 90/149/128
f 97/150/133 17/102/134 68/101/135
f 17/102/134 97/150/133 92/151/136
f 98/152/137 88/130/138 85/127/139
f 88/130/138 98/152/137 99/153/140
f 100/154/141 101/155/142 102/156/143
f 101/155/142 100/154/141 103/157/144
f 89/135/145 104/158/146 70/106/147
f 99/159/140 13/13/148 88/133/138
f 13/13/148 99/159/140 67/100/149
f 96/144/130 9/9/68 62/90/65
f 9/9/68 96/144/130 83/131/132
f 71/107/150 87/129/151 101/160/142
f 101/160/142 86/128/152 102/161/143
f 86/128/152 101/160/142 87/129/151
f 98/162/137 97/150/133 99/159/140
f 97/150/133 98/162/137 104/163/146
f 70/106/147 104/158/146 98/152/137
f 82/124/153 103/164/144 100/165/141
f 103/164/144 82/124/153 84/126/154
f 71/107/150 103/164/144 84/126/154
f 100/154/141 66/99/155 65/97/156
f 66/99/155 100/154/141 102/156/143
f 104/158/146 92/138/136 97/166/133
f 92/138/136 104/158/146 89/135/145
f 70/106/147 98/152/137 85/127/139
f 61/88/62 96/144/130 62/90/65
f 96/144/130 61/88/62 95/147/129
f 71/107/150 101/160/142 103/164/144
f 102/156/143 15/98/157 66/99/155
f 15/98/157 102/156/143 86/167/152
f 97/150/133 67/100/149 99/159/140
f 67/100/149 97/150/133 68/101/135
f 82/168/153 65/97/156 12/96/158
f 65/97/156 82/168/153 100/154/141
