# Blender v2.92.0 OBJ File: 'OGConvert.blend'
# www.blender.org
o blockSnowHexagonLow
v 0.000000 3.438553 3.695042
v -0.292845 2.424109 4.202264
v 0.292845 2.424109 4.202264
v 3.785690 2.424110 -1.847521
v 3.492845 2.424110 -2.354743
v 3.200000 3.438554 -1.847521
v 0.000000 3.438554 -3.695041
v 3.200000 3.438554 1.847521
v -3.200000 3.438554 -1.847521
v -3.200000 3.438554 1.847521
v -1.033832 2.154777 3.954009
v -1.307357 2.154777 3.796090
v -1.172845 2.146981 3.878948
v -0.890920 2.178131 4.020952
v -1.436786 2.178131 3.705795
v -0.744727 2.216942 4.079480
v -1.560570 2.216942 3.608454
v -0.595886 2.271043 4.129344
v -1.678177 2.271043 3.504486
v -0.445041 2.340198 4.170336
v -1.789094 2.340198 3.394344
v -1.996595 2.508021 3.162663
v -2.107513 2.577176 3.052520
v -2.225119 2.631276 2.948553
v -2.348905 2.670087 2.851212
v -2.478333 2.693441 2.760917
v -2.612845 2.701238 2.678059
v -2.751858 2.693442 2.602998
v -2.894770 2.670087 2.536057
v -3.040962 2.631276 2.477526
v -3.189804 2.577176 2.427659
v -3.340649 2.508021 2.386673
v -3.492845 2.424110 2.354743
v 2.907356 2.154777 2.872330
v 2.633832 2.154777 3.030249
v 2.772844 2.146981 2.955187
v 3.036785 2.178131 2.782035
v 2.490920 2.178131 3.097190
v 3.160570 2.216942 2.684693
v 2.344727 2.216942 3.155720
v 3.278176 2.271043 2.580726
v 2.195886 2.271043 3.205586
v 3.389094 2.340199 2.470583
v 2.045041 2.340198 3.246574
v 3.492845 2.424110 2.354743
v 1.740648 2.508021 3.310433
v 1.589802 2.577176 3.351421
v 1.440962 2.631276 3.401286
v 1.294770 2.670087 3.459817
v 1.151858 2.693441 3.526758
v 1.012845 2.701237 3.601819
v 0.878334 2.693441 3.684677
v 0.748905 2.670087 3.774972
v 0.625119 2.631276 3.872313
v 0.507514 2.577176 3.976281
v 0.396594 2.508021 4.086424
v 1.033831 2.154778 -3.954009
v 1.307356 2.154778 -3.796090
v 1.172845 2.146982 -3.878948
v 0.890920 2.178131 -4.020950
v 1.436785 2.178131 -3.705795
v 0.744727 2.216943 -4.079480
v 1.560570 2.216943 -3.608454
v 0.595886 2.271044 -4.129347
v 1.678177 2.271044 -3.504486
v 0.445041 2.340199 -4.170333
v 1.789095 2.340199 -3.394344
v 0.292845 2.424110 -4.202264
v 1.996595 2.508021 -3.162663
v 2.107513 2.577176 -3.052520
v 2.225118 2.631276 -2.948554
v 2.348905 2.670087 -2.851212
v 2.478333 2.693442 -2.760917
v 2.612845 2.701238 -2.678059
v 2.751858 2.693442 -2.602998
v 2.894770 2.670087 -2.536057
v 3.040962 2.631276 -2.477526
v 3.189803 2.577176 -2.427660
v 3.340649 2.508021 -2.386673
v -2.907357 2.154778 -2.872330
v -2.633832 2.154778 -3.030249
v -2.772845 2.146982 -2.955187
v -3.036785 2.178131 -2.782034
v -2.490920 2.178131 -3.097190
v -3.160570 2.216942 -2.684692
v -2.344727 2.216943 -3.155720
v -3.278176 2.271043 -2.580726
v -2.195886 2.271044 -3.205586
v -3.389095 2.340199 -2.470584
v -2.045041 2.340199 -3.246574
v -3.492845 2.424110 -2.354743
v -1.740648 2.508021 -3.310434
v -1.589803 2.577176 -3.351421
v -1.440962 2.631276 -3.401286
v -1.294770 2.670087 -3.459817
v -1.151858 2.693442 -3.526758
v -1.012845 2.701238 -3.601820
v -0.878333 2.693442 -3.684677
v -0.748905 2.670087 -3.774972
v -0.625119 2.631276 -3.872313
v -0.507513 2.577176 -3.976280
v -0.396595 2.508021 -4.086423
v -0.292845 2.424110 -4.202264
v -3.785690 2.424110 -1.847521
v -3.785690 2.424110 1.847521
v 3.785690 2.424110 1.847521
v -3.737243 2.508021 -1.699750
v -3.697317 2.577176 -1.548621
v -3.666082 2.631276 -1.394788
v -3.643674 2.670087 -1.238916
v -3.630191 2.693442 -1.081680
v -3.625690 2.701238 -0.923761
v -3.630191 2.693442 -0.765840
v -3.643674 2.670087 -0.608605
v -3.666082 2.631276 -0.452733
v -3.697317 2.577176 -0.298900
v -3.737243 2.508021 -0.147771
v -3.834135 2.340199 0.147771
v -3.874062 2.271043 0.298900
v -3.905298 2.216942 0.452733
v -3.927706 2.178131 0.608605
v -3.941189 2.154778 0.765841
v -3.945690 2.146982 0.923761
v -3.941189 2.154778 1.081680
v -3.927706 2.178131 1.238916
v -3.905298 2.216942 1.394788
v -3.874062 2.271043 1.548621
v -3.834135 2.340199 1.699750
v 3.834136 2.340199 -1.699750
v 3.874062 2.271043 -1.548621
v 3.905298 2.216942 -1.394788
v 3.927706 2.178131 -1.238916
v 3.941189 2.154778 -1.081680
v 3.945690 2.146982 -0.923761
v 3.941189 2.154778 -0.765840
v 3.927706 2.178131 -0.608605
v 3.905298 2.216942 -0.452733
v 3.874062 2.271043 -0.298900
v 3.737244 2.508021 0.147771
v 3.785690 2.424110 0.000000
v 3.834136 2.340199 -0.147771
v 3.697316 2.577176 0.298900
v 3.666082 2.631276 0.452733
v 3.643674 2.670087 0.608605
v 3.630191 2.693442 0.765841
v 3.625690 2.701238 0.923761
v 3.630191 2.693442 1.081680
v 3.643674 2.670087 1.238916
v 3.666082 2.631276 1.394788
v 3.697316 2.577176 1.548621
v 3.737244 2.508021 1.699750
v 0.000000 -0.000000 4.618800
v -4.000000 -0.000000 2.309401
v -1.071794 -0.000000 4.000000
v 4.000000 -0.000000 2.309401
v 1.071794 -0.000000 4.000000
v -4.000000 0.000000 -2.309401
v 0.000000 0.000000 -4.618803
v -1.071797 0.000000 -4.000000
v 4.000000 0.000000 -2.309401
v 1.071797 0.000000 -4.000000
vt 0.635300 0.770556
vt 0.578613 0.798470
vt 0.570849 0.770556
vt 0.866983 0.488455
vt 0.874746 0.516369
vt 0.810296 0.516369
vt 0.448260 0.104340
vt 0.624366 0.409365
vt 0.448260 0.307690
vt 0.800472 0.307690
vt 0.624366 0.002665
vt 0.800472 0.104340
vt 0.436516 0.623305
vt 0.437476 0.634583
vt 0.436516 0.628870
vt 0.437476 0.617912
vt 0.315783 0.766586
vt 0.315783 0.749233
vt 0.317623 0.771746
vt 0.317623 0.742906
vt 0.339947 0.730075
vt 0.339947 0.702370
vt 0.342810 0.736008
vt 0.342810 0.697390
vt 0.346608 0.742015
vt 0.346608 0.692650
vt 0.319309 0.613372
vt 0.299456 0.565975
vt 0.325051 0.615354
vt 0.300962 0.557843
vt 0.337812 0.617895
vt 0.348633 0.516369
vt 0.343554 0.619877
vt 0.348633 0.622559
vt 0.425987 0.736793
vt 0.431186 0.651096
vt 0.431186 0.740839
vt 0.392163 0.733398
vt 0.395557 0.623800
vt 0.395557 0.737698
vt 0.257343 0.748288
vt 0.260364 0.654117
vt 0.260364 0.753231
vt 0.294126 0.648787
vt 0.249493 0.626500
vt 0.294126 0.516369
vt 0.330255 0.778611
vt 0.325972 0.719544
vt 0.330255 0.715991
vt 0.317623 0.627889
vt 0.305377 0.673987
vt 0.299456 0.672354
vt 0.311442 0.676562
vt 0.317623 0.680068
vt 0.277644 0.654117
vt 0.277644 0.713548
vt 0.272138 0.710983
vt 0.205286 0.549365
vt 0.244163 0.590975
vt 0.197029 0.548893
vt 0.553738 0.609353
vt 0.553738 0.626735
vt 0.553242 0.618044
vt 0.555221 0.600700
vt 0.555221 0.635388
vt 0.557687 0.592122
vt 0.557687 0.643966
vt 0.561124 0.583656
vt 0.561124 0.652432
vt 0.565518 0.575339
vt 0.565518 0.660749
vt 0.570849 0.567207
vt 0.576180 0.677014
vt 0.635300 0.567207
vt 0.580574 0.685331
vt 0.584011 0.693797
vt 0.586477 0.702375
vt 0.587961 0.711028
vt 0.588456 0.719719
vt 0.587961 0.728410
vt 0.586477 0.737063
vt 0.584011 0.745641
vt 0.580574 0.754107
vt 0.576180 0.762424
vt 0.891857 0.677572
vt 0.891857 0.660191
vt 0.892353 0.668881
vt 0.890374 0.686225
vt 0.890374 0.651537
vt 0.887908 0.694804
vt 0.887908 0.642959
vt 0.884471 0.703269
vt 0.884471 0.634493
vt 0.880077 0.711587
vt 0.880077 0.626176
vt 0.874746 0.719719
vt 0.869415 0.609912
vt 0.810295 0.719719
vt 0.865021 0.601595
vt 0.861584 0.593129
vt 0.859118 0.584550
vt 0.857635 0.575897
vt 0.857139 0.567207
vt 0.857635 0.558516
vt 0.859118 0.549863
vt 0.861584 0.541284
vt 0.865021 0.532818
vt 0.869415 0.524501
vt 0.436516 0.601302
vt 0.437438 0.612583
vt 0.436516 0.607095
vt 0.437438 0.595229
vt 0.403104 0.768888
vt 0.403104 0.752217
vt 0.405019 0.774724
vt 0.405019 0.747019
vt 0.407882 0.780658
vt 0.407882 0.742040
vt 0.373393 0.613805
vt 0.354019 0.578581
vt 0.378728 0.615934
vt 0.353963 0.570908
vt 0.384648 0.617295
vt 0.354599 0.562662
vt 0.397606 0.618470
vt 0.397606 0.516369
vt 0.322953 0.708304
vt 0.330255 0.627889
vt 0.330255 0.710661
vt 0.381754 0.727308
vt 0.386834 0.623800
vt 0.386834 0.729990
vt 0.367312 0.709170
vt 0.376424 0.623800
vt 0.372322 0.713449
vt 0.376424 0.718021
vt 0.249493 0.767986
vt 0.252013 0.654117
vt 0.252013 0.772948
vt 0.244163 0.907577
vt 0.185411 0.885912
vt 0.189676 0.786889
vt 0.386834 0.785208
vt 0.381457 0.737477
vt 0.386834 0.735320
vt 0.407882 0.736710
vt 0.402935 0.679840
vt 0.407882 0.677488
vt 0.278478 0.718877
vt 0.278478 0.767942
vt 0.272138 0.766151
vt 0.346608 0.627889
vt 0.341102 0.684755
vt 0.335585 0.683156
vt 0.346608 0.687320
vt 0.858901 0.749390
vt 0.866983 0.747633
vt 0.127582 0.798594
vt 0.127582 0.769620
vt 0.182070 0.573706
vt 0.578613 0.539293
vt 0.134897 0.763214
vt 0.141359 0.756378
vt 0.146939 0.749142
vt 0.151613 0.741539
vt 0.155361 0.733599
vt 0.158167 0.725359
vt 0.160018 0.716853
vt 0.160908 0.708119
vt 0.160830 0.699194
vt 0.159787 0.690117
vt 0.157783 0.680926
vt 0.151869 0.662400
vt 0.149864 0.653209
vt 0.148821 0.644132
vt 0.148744 0.635207
vt 0.149633 0.626473
vt 0.151485 0.617967
vt 0.154291 0.609726
vt 0.158039 0.601787
vt 0.162713 0.594184
vt 0.168293 0.586948
vt 0.174754 0.580113
vt 0.725462 0.414694
vt 0.868279 0.482080
vt 0.431186 0.516369
vt 0.431186 0.645766
vt 0.424291 0.519735
vt 0.418961 0.516369
vt 0.418961 0.672158
vt 0.413902 0.519089
vt 0.409532 0.522494
vt 0.405871 0.526569
vt 0.402935 0.531296
vt 0.361983 0.623800
vt 0.361983 0.735923
vt 0.358454 0.628104
vt 0.355777 0.632883
vt 0.353963 0.638117
vt 0.266808 0.654117
vt 0.266808 0.778776
vt 0.265704 0.661136
vt 0.265694 0.685332
vt 0.437476 0.639913
vt 0.437476 0.658960
vt 0.437196 0.652461
vt 0.437531 0.664290
vt 0.437531 0.680219
vt 0.437196 0.671956
vt 0.437197 0.516369
vt 0.437197 0.589899
vt 0.436516 0.522405
vt 0.285040 0.718877
vt 0.285040 0.804675
vt 0.283808 0.725876
vt 0.356472 0.741252
vt 0.356472 0.803243
vt 0.353963 0.746191
vt 0.294126 0.718877
vt 0.294126 0.791427
vt 0.291379 0.724371
vt 0.418961 0.739902
vt 0.418961 0.792903
vt 0.414490 0.743215
vt 0.303739 0.685398
vt 0.303739 0.748018
vt 0.299456 0.688950
vt 0.367312 0.771046
vt 0.373001 0.723350
vt 0.373455 0.771046
vt 0.418961 0.677488
vt 0.418961 0.734572
vt 0.413511 0.678481
vt 0.311442 0.734071
vt 0.317623 0.685398
vt 0.317623 0.737577
vt 0.288620 0.710983
vt 0.294126 0.654117
vt 0.294126 0.713548
vt 0.586694 0.537535
vt 0.442930 0.770556
vt 0.442930 0.516369
vt 0.442930 0.702447
vt 0.554301 0.923069
vt 0.448260 0.795975
vt 0.720133 0.872231
vt 0.222798 0.002665
vt 0.442930 0.129759
vt 0.383946 0.095704
vt 0.448260 0.541788
vt 0.070774 0.516369
vt 0.002665 0.761262
vt 0.283290 0.654117
vt 0.283290 0.654117
vt 0.283290 0.654117
vt 0.070774 0.912122
vt 0.002665 0.383946
vt 0.002665 0.129758
vt 0.002665 0.315836
vt 0.997335 0.490950
vt 0.997335 0.745138
vt 0.442930 0.197868
vt 0.061649 0.418000
vt 0.442930 0.383946
vt 0.222798 0.511039
vt 0.720132 0.465532
vt 0.554301 0.414694
vn 0.0000 0.4472 0.8944
vn 0.7746 0.4472 -0.4472
vn -0.0000 1.0000 0.0000
vn -0.4330 0.4999 0.7500
vn -0.4330 0.5000 0.7500
vn 0.4330 0.5000 0.7500
vn 0.4330 0.5000 -0.7500
vn 0.4330 0.5001 -0.7500
vn -0.4330 0.5000 -0.7500
vn -0.7746 0.4472 -0.4472
vn -0.7746 0.4472 0.4472
vn 0.0000 0.4472 -0.8944
vn 0.7746 0.4472 0.4472
vn -0.8660 0.5000 0.0000
vn 0.8660 0.5000 0.0000
vn 0.8661 0.4999 0.0000
vn 0.8661 0.5000 0.0000
vn -0.4870 0.2266 0.8435
vn 0.4870 0.2266 0.8435
vn 0.4870 0.2265 0.8435
vn -0.9740 0.2266 0.0000
vn -0.4870 0.2266 -0.8435
vn -0.4870 0.2265 -0.8435
vn 0.4870 0.2266 -0.8435
vn 0.8128 -0.2264 0.5367
vn 0.0000 -1.0000 -0.0000
vn 0.9740 0.2266 0.0000
s 1
f 1/1/1 2/2/1 3/3/1
f 4/4/2 5/5/2 6/6/2
f 7/7/3 8/8/3 6/9/3
f 8/8/3 7/7/3 1/10/3
f 1/10/3 7/7/3 9/11/3
f 1/10/3 9/11/3 10/12/3
f 11/13/4 12/14/5 13/15/5
f 12/14/5 11/13/4 14/16/5
f 12/17/5 14/18/5 15/19/5
f 15/19/5 14/18/5 16/20/5
f 15/21/5 16/22/5 17/23/5
f 17/23/5 16/22/5 18/24/5
f 17/23/5 18/24/5 19/25/5
f 19/25/5 18/24/5 20/26/5
f 19/27/5 20/28/5 21/29/5
f 21/29/5 20/28/5 2/30/5
f 21/29/5 2/30/5 22/31/5
f 22/31/5 2/30/5 1/32/5
f 22/31/5 1/32/5 23/33/5
f 23/33/5 1/32/5 24/34/5
f 24/35/5 1/36/5 25/37/5
f 25/38/5 1/39/5 26/40/5
f 26/41/5 1/42/5 27/43/5
f 10/44/5 27/45/5 1/46/5
f 10/47/5 28/48/5 27/49/5
f 10/50/5 29/51/5 28/52/5
f 10/50/5 30/53/5 29/51/5
f 10/50/5 31/54/5 30/53/5
f 10/55/5 32/56/5 31/57/5
f 32/58/5 10/59/5 33/60/5
f 34/61/6 35/62/6 36/63/6
f 35/62/6 34/61/6 37/64/6
f 35/62/6 37/64/6 38/65/6
f 38/65/6 37/64/6 39/66/6
f 38/65/6 39/66/6 40/67/6
f 40/67/6 39/66/6 41/68/6
f 40/67/6 41/68/6 42/69/6
f 42/69/6 41/68/6 43/70/6
f 42/69/6 43/70/6 44/71/6
f 44/71/6 43/70/6 45/72/6
f 44/71/6 45/72/6 46/73/6
f 46/73/6 45/72/6 8/74/6
f 46/73/6 8/74/6 47/75/6
f 47/75/6 8/74/6 48/76/6
f 48/76/6 8/74/6 49/77/6
f 49/77/6 8/74/6 50/78/6
f 50/78/6 8/74/6 51/79/6
f 1/1/6 51/79/6 8/74/6
f 1/1/6 52/80/6 51/79/6
f 1/1/6 53/81/6 52/80/6
f 1/1/6 54/82/6 53/81/6
f 1/1/6 55/83/6 54/82/6
f 1/1/6 56/84/6 55/83/6
f 56/84/6 1/1/6 3/3/6
f 57/85/7 58/86/7 59/87/8
f 58/86/7 57/85/7 60/88/7
f 58/86/7 60/88/7 61/89/7
f 61/89/7 60/88/7 62/90/7
f 61/89/7 62/90/7 63/91/7
f 63/91/7 62/90/7 64/92/7
f 63/91/7 64/92/7 65/93/7
f 65/93/7 64/92/7 66/94/7
f 65/93/7 66/94/7 67/95/7
f 67/95/7 66/94/7 68/96/7
f 67/95/7 68/96/7 69/97/7
f 69/97/7 68/96/7 7/98/7
f 69/97/7 7/98/7 70/99/7
f 70/99/7 7/98/7 71/100/7
f 71/100/7 7/98/7 72/101/7
f 72/101/7 7/98/7 73/102/7
f 73/102/7 7/98/7 74/103/7
f 6/6/7 74/103/7 7/98/7
f 6/6/7 75/104/7 74/103/7
f 6/6/7 76/105/7 75/104/7
f 6/6/7 77/106/7 76/105/7
f 6/6/7 78/107/7 77/106/7
f 6/6/7 79/108/7 78/107/7
f 79/108/7 6/6/7 5/5/7
f 80/109/9 81/110/9 82/111/9
f 81/110/9 80/109/9 83/112/9
f 81/113/9 83/114/9 84/115/9
f 84/115/9 83/114/9 85/116/9
f 84/115/9 85/116/9 86/117/9
f 86/117/9 85/116/9 87/118/9
f 86/119/9 87/120/9 88/121/9
f 88/121/9 87/120/9 89/122/9
f 88/121/9 89/122/9 90/123/9
f 90/123/9 89/122/9 91/124/9
f 90/123/9 91/124/9 92/125/9
f 92/125/9 91/124/9 9/126/9
f 92/127/9 9/128/9 93/129/9
f 93/130/9 9/131/9 94/132/9
f 94/133/9 9/134/9 95/135/9
f 95/135/9 9/134/9 96/136/9
f 96/137/9 9/138/9 97/139/9
f 7/140/9 97/141/9 9/142/9
f 7/143/9 98/144/9 97/145/9
f 7/146/9 99/147/9 98/148/9
f 7/149/9 100/150/9 99/151/9
f 7/152/9 101/153/9 100/154/9
f 7/152/9 102/155/9 101/153/9
f 102/156/9 7/98/9 103/157/9
f 9/142/10 91/158/10 104/159/10
f 33/60/11 10/59/11 105/160/11
f 7/98/12 68/96/12 103/157/12
f 45/72/13 106/161/13 8/74/13
f 107/162/14 9/142/14 104/159/14
f 9/142/14 107/162/14 108/163/14
f 9/142/14 108/163/14 109/164/14
f 9/142/14 109/164/14 110/165/14
f 9/142/14 110/165/14 10/59/14
f 10/59/14 110/165/14 111/166/14
f 10/59/14 111/166/14 112/167/14
f 10/59/14 112/167/14 113/168/14
f 10/59/14 113/168/14 114/169/14
f 10/59/14 114/169/14 115/170/14
f 10/59/14 115/170/14 116/171/14
f 10/59/14 116/171/14 117/172/14
f 10/59/14 117/172/14 118/173/14
f 10/59/14 118/173/14 119/174/14
f 10/59/14 119/174/14 120/175/14
f 10/59/14 120/175/14 121/176/14
f 10/59/14 121/176/14 122/177/14
f 10/59/14 122/177/14 123/178/14
f 10/59/14 123/178/14 124/179/14
f 10/59/14 124/179/14 125/180/14
f 10/59/14 125/180/14 126/181/14
f 10/59/14 126/181/14 127/182/14
f 10/59/14 127/182/14 128/183/14
f 10/59/14 128/183/14 105/160/14
f 8/184/15 4/4/15 6/6/15
f 4/4/15 8/184/15 129/185/15
f 129/186/15 8/187/15 130/188/15
f 130/189/15 8/190/15 131/191/15
f 131/191/15 8/190/15 132/192/15
f 132/192/15 8/190/15 133/193/15
f 133/193/15 8/190/15 134/194/15
f 134/195/15 8/196/15 135/197/15
f 135/197/15 8/196/15 136/198/15
f 136/198/15 8/196/15 137/199/15
f 137/200/15 8/201/15 138/202/15
f 138/202/15 8/201/15 139/203/15
f 138/204/15 139/205/15 140/206/16
f 138/207/15 140/208/16 141/209/15
f 139/210/15 8/211/15 142/212/17
f 142/213/17 8/214/15 143/215/15
f 143/216/15 8/217/15 144/218/15
f 144/219/15 8/220/15 145/221/15
f 145/222/15 8/223/15 146/224/15
f 146/225/15 8/226/15 147/227/15
f 147/228/15 8/229/15 148/230/15
f 148/231/15 8/232/15 149/233/15
f 149/234/15 8/235/15 150/236/15
f 150/237/15 8/238/15 151/239/15
f 151/240/15 8/74/15 106/161/15
f 152/241/18 153/242/18 154/243/18
f 153/244/18 152/245/18 1/1/18
f 153/244/18 1/1/18 10/246/18
f 155/247/19 152/248/19 156/249/20
f 152/245/19 155/250/19 8/74/19
f 152/245/19 8/74/19 1/1/19
f 153/251/21 9/142/21 157/252/21
f 9/142/21 153/251/21 10/59/21
f 157/253/22 158/254/22 159/255/23
f 158/256/22 157/252/22 9/142/22
f 158/256/22 9/142/22 7/140/22
f 158/257/24 160/258/24 161/259/25
f 160/260/24 158/261/24 7/98/24
f 160/260/24 7/98/24 6/6/24
f 156/249/26 160/258/26 155/247/26
f 160/258/26 156/249/26 161/259/26
f 161/259/26 156/249/26 158/257/26
f 158/257/26 156/249/26 152/248/26
f 158/257/26 152/248/26 154/262/26
f 158/257/26 154/262/26 159/263/26
f 159/263/26 154/262/26 153/264/26
f 159/263/26 153/264/26 157/265/26
f 6/266/27 155/250/27 160/267/27
f 155/250/27 6/266/27 8/74/27
