# Blender v2.92.0 OBJ File: 'kenney_OGConvert.blend'
# www.blender.org
o blockMoving
v 0.400000 0.070786 0.500000
v -0.400000 -0.000000 0.500000
v 0.400000 -0.000000 0.500000
v -0.400000 0.070786 0.500000
v -0.400000 0.070786 -0.500000
v 0.400000 0.000000 -0.500000
v -0.400000 0.000000 -0.500000
v 0.400000 0.070786 -0.500000
v 0.500000 0.070786 0.400000
v 0.500000 0.000000 -0.400000
v 0.500000 0.070786 -0.400000
v 0.500000 -0.000000 0.400000
v -0.500000 -0.000000 0.400000
v -0.500000 0.070786 -0.400000
v -0.500000 0.000000 -0.400000
v -0.500000 0.070786 0.400000
v 0.400000 0.250000 0.500000
v -0.143688 0.179214 0.500000
v 0.400000 0.179214 0.500000
v -0.243688 0.179214 0.500000
v -0.400000 0.179214 0.500000
v -0.400000 0.250000 0.500000
v 0.500000 0.250000 0.400000
v 0.500000 0.179214 -0.400000
v 0.500000 0.250000 -0.400000
v 0.500000 0.179214 0.400000
v -0.400000 0.250000 -0.500000
v 0.400000 0.179214 -0.500000
v -0.400000 0.179214 -0.500000
v 0.400000 0.250000 -0.500000
v -0.500000 0.179214 0.400000
v -0.500000 0.250000 -0.400000
v -0.500000 0.179214 -0.400000
v -0.500000 0.250000 0.400000
v 0.486602 0.000000 -0.450000
v 0.486602 0.070786 -0.450000
v -0.450000 0.070786 0.486603
v -0.450000 -0.000000 0.486603
v -0.486602 0.070786 0.450000
v -0.486602 -0.000000 0.450000
v 0.450000 0.070786 -0.486603
v 0.450000 0.000000 -0.486603
v 0.450000 0.070786 0.486602
v 0.486603 -0.000000 0.450000
v 0.486603 0.070786 0.450000
v 0.450000 -0.000000 0.486602
v -0.450000 0.070786 -0.486602
v -0.450000 0.000000 -0.486602
v 0.450000 0.250000 0.486602
v 0.486603 0.179214 0.450000
v 0.486603 0.250000 0.450000
v 0.450000 0.179214 0.486602
v -0.486603 0.070786 -0.450000
v -0.486603 0.000000 -0.450000
v -0.486602 0.179214 0.450000
v -0.486602 0.250000 0.450000
v 0.450000 0.179214 -0.486603
v 0.450000 0.250000 -0.486603
v 0.486602 0.250000 -0.450000
v 0.486602 0.179214 -0.450000
v -0.450000 0.179214 0.486603
v -0.450000 0.250000 0.486603
v -0.486603 0.250000 -0.450000
v -0.486603 0.179214 -0.450000
v -0.450000 0.250000 -0.486602
v -0.450000 0.179214 -0.486602
v 0.386835 0.250000 0.400000
v 0.396945 0.250000 0.398236
v 0.397218 0.250000 0.397218
v 0.398236 0.250000 0.396945
v 0.400000 0.250000 0.386835
v 0.400000 0.250000 -0.386835
v 0.398236 0.250000 -0.396945
v 0.397218 0.250000 -0.397218
v 0.396945 0.250000 -0.398236
v 0.386835 0.250000 -0.400000
v -0.386835 0.250000 -0.400000
v -0.396945 0.250000 -0.398236
v -0.398236 0.250000 -0.396945
v -0.400000 0.250000 -0.386835
v -0.397218 0.250000 -0.397218
v -0.400000 0.250000 0.386835
v -0.398236 0.250000 0.396945
v -0.397218 0.250000 0.397218
v -0.396945 0.250000 0.398236
v -0.386835 0.250000 0.400000
v 0.441774 0.070786 -0.424118
v 0.450000 0.070786 -0.393417
v 0.424118 0.070786 -0.441774
v 0.393417 0.070786 -0.450000
v -0.393417 0.070786 -0.450000
v -0.424118 0.070786 -0.441774
v -0.441774 0.070786 -0.424118
v -0.450000 0.070786 -0.393417
v -0.450000 0.070786 0.393417
v -0.441774 0.070786 0.424118
v -0.424118 0.070786 0.441774
v -0.393417 0.070786 0.450000
v 0.393417 0.070786 0.450000
v 0.424118 0.070786 0.441774
v 0.441774 0.070786 0.424118
v 0.450000 0.070786 0.393417
v 0.441774 0.179214 0.424118
v 0.450000 0.179214 0.393417
v 0.424118 0.179214 0.441774
v 0.393417 0.179214 0.450000
v -0.143688 0.179214 0.450000
v -0.243688 0.179214 0.450000
v -0.393417 0.179214 0.450000
v -0.424118 0.179214 0.441774
v -0.441774 0.179214 0.424118
v -0.450000 0.179214 0.393417
v -0.450000 0.179214 -0.393417
v -0.441774 0.179214 -0.424118
v -0.424118 0.179214 -0.441774
v -0.393417 0.179214 -0.450000
v 0.393417 0.179214 -0.450000
v 0.424118 0.179214 -0.441774
v 0.441774 0.179214 -0.424118
v 0.450000 0.179214 -0.393417
v -0.300000 0.250000 -0.300000
v 0.300000 0.250000 0.300000
v 0.300000 0.250000 -0.300000
v -0.300000 0.250000 0.300000
vt 0.974941 0.729935
vt 0.997435 0.550174
vt 0.997435 0.729935
vt 0.974941 0.550174
vt 0.644225 0.804587
vt 0.666719 0.624826
vt 0.666719 0.804587
vt 0.644225 0.624826
vt 0.759102 0.282164
vt 0.736608 0.032611
vt 0.759103 0.032611
vt 0.736608 0.282164
vt 0.997435 0.505233
vt 0.974941 0.325472
vt 0.997435 0.325472
vt 0.974941 0.505233
vt 0.947316 0.729935
vt 0.969810 0.607767
vt 0.969810 0.729935
vt 0.969810 0.585297
vt 0.969810 0.550174
vt 0.947316 0.550174
vt 0.731478 0.282164
vt 0.708984 0.032611
vt 0.731478 0.032611
vt 0.708984 0.282164
vt 0.616601 0.804587
vt 0.639095 0.624826
vt 0.639095 0.804587
vt 0.616601 0.624826
vt 0.969810 0.505233
vt 0.947316 0.325472
vt 0.969810 0.325472
vt 0.947316 0.505233
vt 0.736608 0.016202
vt 0.759103 0.016202
vt 0.974941 0.535928
vt 0.997435 0.535928
vt 0.974941 0.519479
vt 0.997435 0.519479
vt 0.644225 0.616601
vt 0.666720 0.616601
vt 0.759102 0.306148
vt 0.736608 0.296949
vt 0.759102 0.296949
vt 0.736608 0.306148
vt 0.736608 0.002565
vt 0.759103 0.002565
vt 0.644225 0.818833
vt 0.666719 0.818833
vt 0.974941 0.738160
vt 0.997435 0.738160
vt 0.731478 0.306148
vt 0.708984 0.296949
vt 0.731478 0.296949
vt 0.708984 0.306148
vt 0.666719 0.849528
vt 0.644225 0.835282
vt 0.666719 0.835282
vt 0.644225 0.849528
vt 0.969810 0.519479
vt 0.947316 0.519479
vt 0.639095 0.616601
vt 0.616601 0.616601
vt 0.731478 0.016202
vt 0.708984 0.002565
vt 0.731478 0.002565
vt 0.708984 0.016202
vt 0.969810 0.535928
vt 0.947316 0.535928
vt 0.947316 0.738160
vt 0.969810 0.738160
vt 0.639095 0.849528
vt 0.616601 0.835282
vt 0.639095 0.835282
vt 0.616601 0.849528
vt 0.616601 0.818833
vt 0.639095 0.818833
vt 0.304453 0.006823
vt 0.034343 0.002565
vt 0.288564 0.002565
vt 0.018454 0.006823
vt 0.316084 0.018454
vt 0.006823 0.018454
vt 0.320342 0.034343
vt 0.002565 0.034343
vt 0.320342 0.288564
vt 0.002565 0.288564
vt 0.316084 0.304453
vt 0.006823 0.304453
vt 0.304453 0.316084
vt 0.018454 0.316084
vt 0.288564 0.320342
vt 0.034343 0.320342
vt 0.329655 0.611471
vt 0.326443 0.610910
vt 0.326356 0.610587
vt 0.325472 0.643248
vt 0.579693 0.643248
vt 0.326032 0.610500
vt 0.325472 0.607287
vt 0.309583 0.325472
vt 0.309583 0.607287
vt 0.309583 0.361433
vt 0.309583 0.643248
vt 0.648379 0.316084
vt 0.664268 0.002565
vt 0.664268 0.320342
vt 0.648379 0.006823
vt 0.636747 0.304453
vt 0.636747 0.018454
vt 0.632490 0.288564
vt 0.632490 0.034343
vt 0.325472 0.325472
vt 0.326032 0.358220
vt 0.325472 0.361433
vt 0.326356 0.358134
vt 0.326443 0.357810
vt 0.329655 0.357250
vt 0.579693 0.325472
vt 0.575509 0.357250
vt 0.578722 0.357810
vt 0.579133 0.358220
vt 0.579693 0.361433
vt 0.578809 0.358134
vt 0.595582 0.329729
vt 0.579693 0.607287
vt 0.595582 0.638991
vt 0.607213 0.341361
vt 0.607213 0.627360
vt 0.611471 0.357250
vt 0.611471 0.611471
vt 0.579133 0.610500
vt 0.578809 0.610587
vt 0.578722 0.610910
vt 0.575509 0.611471
vt 0.325472 0.006823
vt 0.328086 0.026679
vt 0.325472 0.036435
vt 0.341361 0.002565
vt 0.333697 0.021068
vt 0.343453 0.018454
vt 0.595582 0.002565
vt 0.593490 0.018454
vt 0.603246 0.021068
vt 0.611471 0.006823
vt 0.608857 0.026679
vt 0.611471 0.036435
vt 0.623102 0.018454
vt 0.611471 0.286472
vt 0.611471 0.316084
vt 0.623102 0.304453
vt 0.627360 0.034343
vt 0.627360 0.288564
vt 0.608857 0.296228
vt 0.603246 0.301839
vt 0.595582 0.320342
vt 0.593490 0.304453
vt 0.343453 0.304453
vt 0.341361 0.320342
vt 0.333697 0.301839
vt 0.328086 0.296228
vt 0.325472 0.316084
vt 0.325472 0.286472
vt 0.314713 0.325472
vt 0.314713 0.605121
vt 0.314713 0.355084
vt 0.320342 0.325472
vt 0.320342 0.325472
vt 0.320342 0.325472
vt 0.808076 0.300195
vt 0.819708 0.002565
vt 0.819708 0.311827
vt 0.808076 0.014197
vt 0.803819 0.284307
vt 0.803819 0.030085
vt 0.304453 0.638991
vt 0.301839 0.619135
vt 0.304453 0.609379
vt 0.288564 0.643248
vt 0.296228 0.624745
vt 0.286472 0.627360
vt 0.115793 0.643248
vt 0.115793 0.627360
vt 0.084015 0.643248
vt 0.084015 0.627360
vt 0.034343 0.643248
vt 0.036435 0.627360
vt 0.026679 0.624745
vt 0.018454 0.638991
vt 0.021068 0.619135
vt 0.018454 0.609379
vt 0.006823 0.627360
vt 0.018454 0.359341
vt 0.018454 0.329729
vt 0.006823 0.341361
vt 0.002565 0.611471
vt 0.002565 0.357250
vt 0.021068 0.349585
vt 0.026679 0.343975
vt 0.034343 0.325472
vt 0.036435 0.341361
vt 0.286472 0.341361
vt 0.288564 0.325472
vt 0.296228 0.343975
vt 0.301839 0.349585
vt 0.304453 0.329729
vt 0.304453 0.359341
vt 0.320342 0.330602
vt 0.320342 0.330602
vt 0.320342 0.330602
vt 0.829096 0.300195
vt 0.840727 0.002565
vt 0.840727 0.311827
vt 0.829096 0.014197
vt 0.824838 0.284307
vt 0.824838 0.030085
vt 0.547915 0.389027
vt 0.357249 0.579693
vt 0.357250 0.389027
vt 0.547915 0.579693
vt 0.907730 0.704507
vt 0.942186 0.527704
vt 0.942186 0.704507
vt 0.907730 0.527704
vt 0.320342 0.335732
vt 0.320342 0.335732
vt 0.320342 0.335732
vt 0.907730 0.709557
vt 0.942186 0.709557
vt 0.703854 0.278181
vt 0.669398 0.273743
vt 0.703854 0.273743
vt 0.669398 0.278181
vt 0.669398 0.264665
vt 0.703854 0.264665
vt 0.669398 0.019218
vt 0.703854 0.019218
vt 0.669398 0.009143
vt 0.703854 0.009143
vt 0.669398 0.002565
vt 0.703854 0.002565
vt 0.764233 0.007615
vt 0.798689 0.002565
vt 0.798689 0.007615
vt 0.764233 0.002565
vt 0.764233 0.184418
vt 0.798689 0.184418
vt 0.764233 0.193165
vt 0.798689 0.193165
vt 0.798689 0.201100
vt 0.764233 0.201100
vt 0.798689 0.209847
vt 0.764233 0.209847
vt 0.942186 0.502275
vt 0.907730 0.325472
vt 0.942186 0.325472
vt 0.907730 0.502275
vt 0.942186 0.511022
vt 0.907730 0.511022
vt 0.942186 0.518957
vt 0.907730 0.518957
vt 0.894375 0.608857
vt 0.884619 0.611471
vt 0.634582 0.611471
vt 0.624826 0.608857
vt 0.899986 0.603246
vt 0.619215 0.603246
vt 0.902600 0.593490
vt 0.616601 0.593490
vt 0.616601 0.343453
vt 0.902600 0.422811
vt 0.902600 0.391033
vt 0.902600 0.343453
vt 0.899986 0.333697
vt 0.619215 0.333697
vt 0.894375 0.328086
vt 0.624826 0.328086
vt 0.884619 0.325472
vt 0.634582 0.325472
vn 0.0000 0.0000 1.0000
vn -0.0000 0.0000 -1.0000
vn 1.0000 0.0000 -0.0000
vn -1.0000 0.0000 0.0000
vn 0.9659 0.0000 -0.2588
vn 0.8660 0.0000 -0.5000
vn -0.2588 0.0000 0.9659
vn -0.5000 0.0000 0.8660
vn -0.8660 0.0000 0.5000
vn -0.9659 0.0000 0.2588
vn 0.2588 0.0000 -0.9659
vn 0.5000 0.0000 -0.8660
vn 0.5000 0.0000 0.8660
vn 0.8660 0.0000 0.5000
vn 0.9659 0.0000 0.2588
vn -0.5000 0.0000 -0.8660
vn -0.2588 0.0000 -0.9659
vn 0.2588 0.0000 0.9659
vn -0.9659 0.0000 -0.2588
vn -0.8660 0.0000 -0.5000
vn -0.0000 -1.0000 -0.0000
vn -0.0000 1.0000 -0.0000
vn -0.0423 0.9991 0.0000
vn -0.9997 -0.0264 0.0000
vn -0.1262 0.9920 -0.0000
vn 0.0001 1.0000 0.0000
vn -0.3888 -0.0324 -0.9208
vn 0.9965 -0.0831 0.0000
vn -0.3927 -0.7276 -0.5625
vn 0.0000 0.0002 1.0000
vn -1.0000 0.0000 -0.0001
vn 1.0000 0.0000 0.0001
s 1
f 1/1/1 2/2/1 3/3/1
f 2/2/1 1/1/1 4/4/1
f 5/5/2 6/6/2 7/7/2
f 6/6/2 5/5/2 8/8/2
f 9/9/3 10/10/3 11/11/3
f 10/10/3 9/9/3 12/12/3
f 13/13/4 14/14/4 15/15/4
f 14/14/4 13/13/4 16/16/4
f 17/17/1 18/18/1 19/19/1
f 18/18/1 17/17/1 20/20/1
f 20/20/1 17/17/1 21/21/1
f 21/21/1 17/17/1 22/22/1
f 23/23/3 24/24/3 25/25/3
f 24/24/3 23/23/3 26/26/3
f 27/27/2 28/28/2 29/29/2
f 28/28/2 27/27/2 30/30/2
f 31/31/4 32/32/4 33/33/4
f 32/32/4 31/31/4 34/34/4
f 11/11/5 35/35/6 36/36/6
f 35/35/6 11/11/5 10/10/5
f 2/2/7 37/37/8 38/38/8
f 37/37/8 2/2/7 4/4/7
f 38/38/8 39/39/9 40/40/9
f 39/39/9 38/38/8 37/37/8
f 40/40/9 16/16/10 13/13/10
f 16/16/10 40/40/9 39/39/9
f 6/6/11 41/41/12 42/42/12
f 41/41/12 6/6/11 8/8/11
f 43/43/13 44/44/14 45/45/14
f 44/44/14 43/43/13 46/46/13
f 45/45/14 12/12/15 9/9/15
f 12/12/15 45/45/14 44/44/14
f 36/36/6 42/47/12 41/48/12
f 42/47/12 36/36/6 35/35/6
f 47/49/16 7/7/17 48/50/16
f 7/7/17 47/49/16 5/5/17
f 43/51/13 3/3/18 46/52/13
f 3/3/18 43/51/13 1/1/18
f 49/53/13 50/54/14 51/55/14
f 50/54/14 49/53/13 52/56/13
f 15/57/19 53/58/20 54/59/20
f 53/58/20 15/57/19 14/60/19
f 54/59/20 47/49/16 48/50/16
f 47/49/16 54/59/20 53/58/20
f 55/61/9 34/34/10 31/31/10
f 34/34/10 55/61/9 56/62/9
f 30/30/11 57/63/12 28/28/11
f 57/63/12 30/30/11 58/64/12
f 59/65/6 57/66/12 58/67/12
f 57/66/12 59/65/6 60/68/6
f 25/25/5 60/68/6 59/65/6
f 60/68/6 25/25/5 24/24/5
f 61/69/8 56/62/9 55/61/9
f 56/62/9 61/69/8 62/70/8
f 51/55/14 26/26/15 23/23/15
f 26/26/15 51/55/14 50/54/14
f 49/71/13 19/19/18 52/72/13
f 19/19/18 49/71/13 17/17/18
f 22/22/7 61/69/8 21/21/7
f 61/69/8 22/22/7 62/70/8
f 33/73/19 63/74/20 64/75/20
f 63/74/20 33/73/19 32/76/19
f 65/77/16 29/29/17 66/78/16
f 29/29/17 65/77/16 27/27/17
f 64/75/20 65/77/16 66/78/16
f 65/77/16 64/75/20 63/74/20
f 44/79/21 10/80/21 12/81/21
f 10/80/21 44/79/21 35/82/21
f 35/82/21 44/79/21 46/83/21
f 35/82/21 46/83/21 42/84/21
f 42/84/21 46/83/21 3/85/21
f 42/84/21 3/85/21 6/86/21
f 6/86/21 3/85/21 2/87/21
f 6/86/21 2/87/21 7/88/21
f 7/88/21 2/87/21 38/89/21
f 7/88/21 38/89/21 48/90/21
f 48/90/21 38/89/21 40/91/21
f 48/90/21 40/91/21 54/92/21
f 54/92/21 40/91/21 13/93/21
f 54/92/21 13/93/21 15/94/21
f 67/95/22 68/96/22 69/97/22
f 67/95/22 17/98/22 68/96/22
f 17/98/22 67/95/22 22/99/22
f 68/96/22 17/98/22 70/100/22
f 68/96/22 70/100/22 69/97/22
f 17/98/22 71/101/23 70/100/22
f 70/100/22 71/101/23 69/97/22
f 17/102/22 72/103/24 71/104/23
f 17/102/22 30/105/22 72/103/24
f 49/106/22 30/107/22 17/108/22
f 49/106/22 58/109/22 30/107/22
f 51/110/22 58/109/22 49/106/22
f 51/110/22 59/111/22 58/109/22
f 23/112/22 59/111/22 51/110/22
f 59/111/22 23/112/22 25/113/22
f 30/114/22 73/115/22 72/116/24
f 74/117/22 72/116/24 73/115/22
f 73/115/22 30/114/22 75/118/22
f 75/118/22 74/117/22 73/115/22
f 76/119/22 74/117/22 75/118/22
f 75/118/22 30/114/22 76/119/22
f 76/119/22 30/114/22 27/120/22
f 76/119/22 27/120/22 77/121/22
f 77/121/22 27/120/22 78/122/22
f 78/122/22 27/120/22 79/123/22
f 80/124/22 79/123/22 27/120/22
f 79/123/22 80/124/22 81/125/22
f 81/125/22 77/121/22 78/122/22
f 79/123/22 81/125/22 78/122/22
f 80/124/22 27/120/22 65/126/22
f 80/124/22 65/126/22 82/127/22
f 82/127/22 65/126/22 22/99/22
f 22/99/22 65/126/22 62/128/22
f 62/128/22 65/126/22 63/129/22
f 62/128/22 63/129/22 56/130/22
f 56/130/22 63/129/22 32/131/22
f 56/130/22 32/131/22 34/132/22
f 22/99/22 83/133/22 82/127/22
f 82/127/22 83/133/22 84/134/22
f 22/99/22 85/135/22 83/133/22
f 83/133/22 85/135/22 84/134/22
f 22/99/22 86/136/22 85/135/22
f 84/134/22 85/135/22 86/136/22
f 22/99/22 67/95/22 86/136/22
f 41/137/22 87/138/22 88/139/25
f 87/138/22 41/137/22 8/140/22
f 87/138/22 8/140/22 89/141/22
f 89/141/22 8/140/22 90/142/22
f 90/142/22 8/140/22 5/143/22
f 90/142/22 5/143/22 91/144/22
f 91/144/22 5/143/22 92/145/22
f 92/145/22 5/143/22 47/146/22
f 92/145/22 47/146/22 93/147/22
f 93/147/22 47/146/22 94/148/22
f 94/148/22 47/146/22 53/149/22
f 94/148/22 53/149/22 95/150/22
f 95/150/22 53/149/22 37/151/22
f 37/151/22 53/149/22 39/152/22
f 39/152/22 53/149/22 14/153/22
f 39/152/22 14/153/22 16/154/22
f 37/151/22 96/155/22 95/150/22
f 37/151/22 97/156/22 96/155/22
f 4/157/22 97/156/22 37/151/22
f 4/157/22 98/158/22 97/156/22
f 4/157/22 99/159/22 98/158/22
f 1/160/22 99/159/22 4/157/22
f 1/160/22 100/161/22 99/159/22
f 1/160/22 101/162/22 100/161/22
f 43/163/26 101/162/22 1/160/22
f 43/163/26 102/164/27 101/162/22
f 43/165/26 88/166/25 102/167/27
f 43/168/26 41/169/22 88/170/25
f 45/171/22 41/172/22 43/173/26
f 45/171/22 36/174/22 41/172/22
f 9/175/22 36/174/22 45/171/22
f 36/174/22 9/175/22 11/176/22
f 52/177/21 103/178/21 104/179/28
f 103/178/21 52/177/21 19/180/21
f 103/178/21 19/180/21 105/181/21
f 105/181/21 19/180/21 106/182/21
f 106/182/21 19/180/21 18/183/21
f 106/182/21 18/183/21 107/184/21
f 107/184/21 18/183/21 20/185/21
f 107/184/21 20/185/21 108/186/21
f 108/186/21 20/185/21 21/187/21
f 108/186/21 21/187/21 109/188/21
f 109/188/21 21/187/21 110/189/21
f 110/189/21 21/187/21 61/190/21
f 110/189/21 61/190/21 111/191/21
f 111/191/21 61/190/21 112/192/21
f 112/192/21 61/190/21 55/193/21
f 112/192/21 55/193/21 113/194/21
f 113/194/21 55/193/21 66/195/21
f 66/195/21 55/193/21 64/196/21
f 64/196/21 55/193/21 31/197/21
f 64/196/21 31/197/21 33/198/21
f 66/195/21 114/199/21 113/194/21
f 66/195/21 115/200/21 114/199/21
f 29/201/21 115/200/21 66/195/21
f 29/201/21 116/202/21 115/200/21
f 29/201/21 117/203/21 116/202/21
f 28/204/21 117/203/21 29/201/21
f 28/204/21 118/205/21 117/203/21
f 28/204/21 119/206/21 118/205/21
f 57/207/21 119/206/21 28/204/21
f 57/207/21 120/208/29 119/206/21
f 57/207/21 104/179/28 120/208/29
f 57/209/21 52/210/21 104/211/28
f 60/212/21 52/213/21 57/214/21
f 60/212/21 50/215/21 52/213/21
f 24/216/21 50/215/21 60/212/21
f 50/215/21 24/216/21 26/217/21
f 121/218/22 122/219/22 123/220/22
f 122/219/22 121/218/22 124/221/22
f 106/222/30 98/223/1 99/224/1
f 98/223/1 106/222/30 109/225/30
f 109/226/30 106/227/30 107/228/22
f 109/188/31 107/184/32 108/186/3
f 105/229/13 99/224/18 100/230/13
f 99/224/18 105/229/13 106/222/18
f 105/231/13 101/232/14 103/233/14
f 101/232/14 105/231/13 100/234/13
f 103/233/14 102/235/15 104/236/15
f 102/235/15 103/233/14 101/232/14
f 104/236/3 88/237/3 120/238/3
f 88/237/3 104/236/3 102/235/3
f 120/238/5 87/239/6 119/240/6
f 87/239/6 120/238/5 88/237/5
f 119/240/6 89/241/12 118/242/12
f 89/241/12 119/240/6 87/239/6
f 117/243/11 89/244/12 90/245/11
f 89/244/12 117/243/11 118/246/12
f 116/247/2 90/245/2 91/248/2
f 90/245/2 116/247/2 117/243/2
f 115/249/16 91/248/17 92/250/16
f 91/248/17 115/249/16 116/247/17
f 93/251/20 115/249/16 92/250/16
f 115/249/16 93/251/20 114/252/20
f 94/253/19 114/252/20 93/251/20
f 114/252/20 94/253/19 113/254/19
f 95/255/4 113/256/4 94/257/4
f 113/256/4 95/255/4 112/258/4
f 96/259/9 112/258/10 95/255/10
f 112/258/10 96/259/9 111/260/9
f 97/261/8 111/260/9 96/259/9
f 111/260/9 97/261/8 110/262/8
f 109/225/7 97/261/8 98/223/7
f 97/261/8 109/225/7 110/262/8
f 74/117/22 71/101/23 72/116/24
f 71/101/23 74/117/22 69/97/22
f 69/97/22 74/117/22 76/119/22
f 69/97/22 76/119/22 67/95/22
f 67/95/22 76/119/22 123/220/22
f 123/220/22 76/119/22 77/121/22
f 123/220/22 77/121/22 121/218/22
f 121/218/22 77/121/22 124/221/22
f 122/219/22 67/95/22 123/220/22
f 67/95/22 122/219/22 86/136/22
f 86/136/22 122/219/22 124/221/22
f 86/136/22 124/221/22 77/121/22
f 86/136/22 77/121/22 81/125/22
f 86/136/22 81/125/22 84/134/22
f 84/134/22 81/125/22 80/124/22
f 84/134/22 80/124/22 82/127/22
f 103/263/22 104/264/22 120/265/22
f 120/265/22 119/266/22 103/263/22
f 119/266/22 105/267/22 103/263/22
f 119/266/22 118/268/22 105/267/22
f 118/268/22 106/269/22 105/267/22
f 118/268/22 117/270/22 106/269/22
f 117/270/22 116/271/22 106/269/22
f 116/271/22 107/272/22 106/269/22
f 116/271/22 108/273/22 107/272/22
f 116/271/22 109/274/22 108/273/22
f 116/271/22 110/275/22 109/274/22
f 116/271/22 115/276/22 110/275/22
f 115/276/22 111/277/22 110/275/22
f 115/276/22 114/278/22 111/277/22
f 114/278/22 112/279/22 111/277/22
f 114/278/22 113/280/22 112/279/22
