# Blender v2.92.0 OBJ File: 'kenney_OGConvert.blend'
# www.blender.org
o blockDirtRampHalf
v -0.500000 -0.000000 0.500000
v 0.500000 0.000000 -0.500000
v 0.500000 -0.000000 0.500000
v -0.500000 0.000000 -0.500000
v 0.500000 0.500000 -0.500000
v -0.500000 0.500000 -0.500000
vt 0.474312 0.470397
vt 0.942751 0.001958
vt 0.942751 0.470397
vt 0.474312 0.001957
vt 0.001958 0.001957
vt 0.470397 0.525688
vt 0.001957 0.525688
vt 0.470397 0.001958
vt 0.683804 0.998042
vt 0.474312 0.579058
vt 0.683804 0.474312
vt 0.236177 0.529603
vt 0.001957 0.998043
vt 0.001957 0.529603
vt 0.236177 0.998043
vt 0.897211 0.474312
vt 0.897211 0.998043
vt 0.687719 0.893296
vn -0.0000 -1.0000 -0.0000
vn 0.0000 0.8944 0.4472
vn 1.0000 0.0000 -0.0000
vn -0.0000 0.0000 -1.0000
vn -1.0000 0.0000 0.0000
s 1
f 1/1/1 2/2/1 3/3/1
f 2/2/1 1/1/1 4/4/1
f 5/5/2 1/6/2 3/7/2
f 1/6/2 5/5/2 6/8/2
f 3/9/3 2/10/3 5/11/3
f 6/12/4 2/13/4 4/14/4
f 2/13/4 6/12/4 5/15/4
f 1/16/5 6/17/5 4/18/5
