# Blender v2.92.0 OBJ File: 'kenney_OGConvert.blend'
# www.blender.org
o fenceCornerCurved
v -0.322724 0.350000 -0.025000
v -0.377686 0.250000 -0.136451
v -0.377686 0.350000 -0.136451
v -0.322724 0.250000 -0.025000
v 0.373390 0.350000 0.461701
v 0.248946 0.250000 0.436948
v 0.373390 0.250000 0.461701
v 0.248946 0.350000 0.436948
v -0.436948 0.250000 -0.248945
v -0.461702 0.350000 -0.373390
v -0.461702 0.250000 -0.373390
v -0.436948 0.350000 -0.248945
v 0.254122 0.350000 0.417629
v 0.350000 0.250000 0.436701
v 0.254122 0.250000 0.417629
v 0.350000 0.350000 0.436701
v -0.171751 0.350000 0.171751
v -0.078323 0.250000 0.253686
v -0.171751 0.250000 0.171751
v -0.078323 0.350000 0.253686
v 0.025000 0.250000 0.322724
v 0.025000 0.350000 0.322724
v -0.340045 0.250000 -0.015000
v -0.396163 0.350000 -0.128797
v -0.396163 0.250000 -0.128797
v -0.340045 0.350000 -0.015000
v 0.128797 0.250000 0.396163
v 0.128797 0.350000 0.396163
v 0.015000 0.350000 0.340045
v -0.090499 0.250000 0.269553
v 0.015000 0.250000 0.340045
v -0.090499 0.350000 0.269553
v -0.185894 0.250000 0.185894
v -0.185894 0.350000 0.185894
v -0.253686 0.350000 0.078323
v -0.253686 0.250000 0.078323
v -0.269553 0.250000 0.090499
v -0.269553 0.350000 0.090499
v -0.269553 0.100000 0.090499
v -0.340045 0.200000 -0.015000
v -0.340045 0.100000 -0.015000
v -0.269553 0.200000 0.090499
v 0.136451 0.350000 0.377685
v 0.136451 0.250000 0.377685
v 0.500000 0.350000 0.470000
v 0.500000 0.250000 0.450000
v 0.500000 0.350000 0.450000
v 0.500000 0.250000 0.470000
v -0.078323 0.200000 0.253686
v 0.025000 0.100000 0.322724
v -0.078323 0.100000 0.253686
v 0.025000 0.200000 0.322724
v -0.377686 0.200000 -0.136451
v -0.417630 0.100000 -0.254122
v -0.417630 0.200000 -0.254122
v -0.377686 0.100000 -0.136451
v -0.253686 0.200000 0.078323
v -0.322724 0.100000 -0.025000
v -0.322724 0.200000 -0.025000
v -0.253686 0.100000 0.078323
v -0.470000 0.200000 -0.500000
v -0.450000 0.100000 -0.500000
v -0.470000 0.100000 -0.500000
v -0.450000 0.200000 -0.500000
v -0.417630 0.350000 -0.254122
v -0.436701 0.250000 -0.350000
v -0.436701 0.350000 -0.350000
v -0.417630 0.250000 -0.254122
v -0.450000 0.350000 -0.500000
v -0.446723 0.250000 -0.450000
v -0.450000 0.250000 -0.500000
v -0.446723 0.350000 -0.450000
v -0.470000 0.350000 -0.500000
v -0.470000 0.250000 -0.500000
v -0.446723 0.100000 -0.450000
v -0.446723 0.200000 -0.450000
v -0.436701 0.100000 -0.350000
v -0.436701 0.200000 -0.350000
v 0.136451 0.100000 0.377685
v 0.136451 0.200000 0.377685
v 0.450000 0.350000 0.446723
v 0.450000 0.250000 0.446723
v 0.450000 0.200000 0.446723
v 0.500000 0.100000 0.450000
v 0.450000 0.100000 0.446723
v 0.500000 0.200000 0.450000
v 0.450000 0.250000 0.450000
v 0.350000 0.250000 0.450000
v -0.450000 0.250000 -0.350000
v -0.450000 0.250000 -0.450000
v -0.396163 0.200000 -0.128797
v -0.396163 0.100000 -0.128797
v -0.185894 0.100000 0.185894
v -0.185894 0.200000 0.185894
v -0.171751 0.200000 0.171751
v -0.171751 0.100000 0.171751
v 0.254122 0.200000 0.417629
v 0.350000 0.100000 0.436701
v 0.254122 0.100000 0.417629
v 0.350000 0.200000 0.436701
v 0.248946 0.200000 0.436948
v 0.128797 0.100000 0.396163
v 0.248946 0.100000 0.436948
v 0.128797 0.200000 0.396163
v 0.500000 0.200000 0.470000
v 0.373390 0.100000 0.461701
v 0.500000 0.100000 0.470000
v 0.373390 0.200000 0.461701
v 0.350000 0.200000 0.450000
v 0.450000 0.200000 0.450000
v 0.015000 0.200000 0.340045
v -0.090499 0.200000 0.269553
v -0.436948 0.200000 -0.248945
v -0.450000 0.200000 -0.350000
v -0.461702 0.200000 -0.373390
v -0.450000 0.200000 -0.450000
v 0.450000 0.100000 0.450000
v 0.350000 0.100000 0.450000
v 0.015000 0.100000 0.340045
v -0.090499 0.100000 0.269553
v -0.436948 0.100000 -0.248945
v -0.450000 0.100000 -0.350000
v -0.461702 0.100000 -0.373390
v -0.450000 0.100000 -0.450000
v 0.350000 0.350000 0.450000
v 0.450000 0.350000 0.450000
v -0.450000 0.350000 -0.350000
v -0.450000 0.350000 -0.450000
v -0.350000 0.400000 -0.350000
v -0.350000 0.000000 -0.450000
v -0.350000 0.400000 -0.450000
v -0.350000 0.000000 -0.350000
v 0.350000 -0.000000 0.450000
v 0.450000 -0.000000 0.350000
v 0.450000 -0.000000 0.450000
v 0.350000 -0.000000 0.350000
v 0.350000 0.400000 0.350000
v 0.450000 0.400000 0.350000
v -0.450000 0.000000 -0.350000
v -0.450000 0.000000 -0.450000
v 0.450000 0.400000 0.450000
v 0.350000 0.400000 0.450000
v -0.450000 0.400000 -0.450000
v -0.450000 0.400000 -0.350000
vt 0.880873 0.191517
vt 0.825329 0.125981
vt 0.880873 0.125981
vt 0.825329 0.191517
vt 0.698363 0.337079
vt 0.753907 0.266612
vt 0.753907 0.337079
vt 0.698363 0.266612
vt 0.817390 0.555671
vt 0.761846 0.485312
vt 0.817390 0.485312
vt 0.761846 0.555671
vt 0.944356 0.256245
vt 0.888812 0.310424
vt 0.888812 0.256245
vt 0.944356 0.310424
vt 0.944356 0.003969
vt 0.888812 0.061332
vt 0.888812 0.003969
vt 0.944356 0.061332
vt 0.888812 0.123215
vt 0.944356 0.123215
vt 0.817390 0.691817
vt 0.761846 0.624901
vt 0.817390 0.624901
vt 0.761846 0.691817
vt 0.753907 0.196894
vt 0.698363 0.196894
vt 0.698363 0.129116
vt 0.753907 0.064439
vt 0.753907 0.129116
vt 0.698363 0.064439
vt 0.753907 0.003969
vt 0.698363 0.003969
vt 0.880873 0.253666
vt 0.825329 0.253666
vt 0.817390 0.755275
vt 0.761846 0.755275
vt 0.753907 0.755274
vt 0.698363 0.691817
vt 0.753907 0.691817
vt 0.698363 0.755274
vt 0.944356 0.188559
vt 0.888812 0.188558
vt 0.299934 0.892881
vt 0.310936 0.837337
vt 0.310936 0.892881
vt 0.299934 0.837337
vt 0.880873 0.691998
vt 0.825329 0.753880
vt 0.825329 0.691998
vt 0.880873 0.753880
vt 0.880873 0.441313
vt 0.825329 0.373511
vt 0.880873 0.373511
vt 0.825329 0.441313
vt 0.698363 0.407088
vt 0.753907 0.407088
vt 0.880873 0.568998
vt 0.825329 0.506850
vt 0.880873 0.506850
vt 0.825329 0.568998
vt 0.678157 0.829398
vt 0.667142 0.773854
vt 0.678157 0.773854
vt 0.667142 0.829398
vt 0.880873 0.058178
vt 0.825329 0.003969
vt 0.880873 0.003969
vt 0.825329 0.058178
vt 0.797543 0.877670
vt 0.769787 0.822126
vt 0.797543 0.822126
vt 0.769787 0.877670
vt 0.343227 0.829398
vt 0.332212 0.773854
vt 0.343227 0.773854
vt 0.332212 0.829398
vt 0.761846 0.415027
vt 0.817390 0.415027
vt 0.283148 0.892881
vt 0.255392 0.837337
vt 0.283148 0.837337
vt 0.255392 0.892881
vt 0.825329 0.319302
vt 0.880873 0.319302
vt 0.825329 0.819224
vt 0.880873 0.819224
vt 0.761848 0.877670
vt 0.734075 0.822126
vt 0.761848 0.822126
vt 0.734075 0.877670
vt 0.726136 0.877670
vt 0.698363 0.822126
vt 0.726136 0.822126
vt 0.698363 0.877670
vt 0.115306 0.712929
vt 0.149991 0.738422
vt 0.161774 0.765915
vt 0.110715 0.699147
vt 0.076152 0.654331
vt 0.115939 0.693924
vt 0.085772 0.648777
vt 0.055245 0.586872
vt 0.044981 0.591124
vt 0.033058 0.521513
vt 0.022328 0.524388
vt 0.019593 0.453817
vt 0.008579 0.455267
vt 0.015078 0.384942
vt 0.003969 0.384942
vt 0.019593 0.316068
vt 0.008579 0.314618
vt 0.033058 0.248372
vt 0.022328 0.245497
vt 0.055245 0.183013
vt 0.044981 0.178761
vt 0.085772 0.121108
vt 0.076152 0.115554
vt 0.115939 0.075961
vt 0.110715 0.070738
vt 0.115306 0.056956
vt 0.149991 0.031462
vt 0.169629 0.011825
vt 0.161774 0.003969
vt 0.151278 0.032750
vt 0.151278 0.737135
vt 0.169629 0.758060
vt 0.698363 0.624901
vt 0.753907 0.624901
vt 0.753907 0.814187
vt 0.698363 0.814187
vt 0.880873 0.634635
vt 0.825329 0.634635
vt 0.880873 0.886910
vt 0.825329 0.941090
vt 0.825329 0.886910
vt 0.880873 0.941090
vt 0.761846 0.266612
vt 0.817390 0.196894
vt 0.817390 0.266612
vt 0.761846 0.196894
vt 0.880873 0.626696
vt 0.825329 0.626696
vt 0.761846 0.407088
vt 0.817390 0.337079
vt 0.817390 0.407088
vt 0.761846 0.337079
vt 0.259371 0.121108
vt 0.284314 0.070738
vt 0.289537 0.075961
vt 0.249750 0.115554
vt 0.288904 0.056956
vt 0.323589 0.031462
vt 0.335372 0.003969
vt 0.324876 0.032749
vt 0.343227 0.011825
vt 0.228843 0.183013
vt 0.218580 0.178761
vt 0.206656 0.248372
vt 0.195926 0.245497
vt 0.193191 0.316068
vt 0.182177 0.314618
vt 0.188677 0.384942
vt 0.177568 0.384942
vt 0.193191 0.453817
vt 0.182177 0.455267
vt 0.206656 0.521513
vt 0.195926 0.524388
vt 0.228843 0.586872
vt 0.218580 0.591124
vt 0.259371 0.648777
vt 0.249750 0.654331
vt 0.289537 0.693924
vt 0.284314 0.699147
vt 0.288904 0.712929
vt 0.335372 0.765915
vt 0.323589 0.738422
vt 0.343227 0.758060
vt 0.324876 0.737135
vt 0.462503 0.712929
vt 0.497188 0.738422
vt 0.508970 0.765915
vt 0.457912 0.699147
vt 0.423349 0.654331
vt 0.463135 0.693924
vt 0.432969 0.648777
vt 0.402441 0.586872
vt 0.392178 0.591124
vt 0.380255 0.521513
vt 0.369524 0.524388
vt 0.366789 0.453817
vt 0.355775 0.455267
vt 0.362275 0.384942
vt 0.351166 0.384942
vt 0.366789 0.316068
vt 0.355775 0.314618
vt 0.380255 0.248372
vt 0.369524 0.245497
vt 0.402441 0.183013
vt 0.392178 0.178761
vt 0.432969 0.121108
vt 0.423349 0.115554
vt 0.463135 0.075961
vt 0.457912 0.070738
vt 0.462503 0.056956
vt 0.497188 0.031462
vt 0.516825 0.011825
vt 0.508970 0.003969
vt 0.498475 0.032750
vt 0.498475 0.737135
vt 0.516825 0.758060
vt 0.817390 0.814187
vt 0.761846 0.814187
vt 0.817390 0.129116
vt 0.761846 0.129116
vt 0.817390 0.064439
vt 0.761846 0.064439
vt 0.806388 0.877670
vt 0.817390 0.822126
vt 0.817390 0.877670
vt 0.806388 0.822126
vt 0.698363 0.555671
vt 0.753907 0.555671
vt 0.817390 0.003969
vt 0.761846 0.003969
vt 0.753907 0.485312
vt 0.698363 0.415027
vt 0.753907 0.415027
vt 0.698363 0.485312
vt 0.880873 0.311363
vt 0.825329 0.311363
vt 0.606567 0.121108
vt 0.631510 0.070738
vt 0.636734 0.075961
vt 0.596947 0.115554
vt 0.636101 0.056956
vt 0.670786 0.031462
vt 0.682569 0.003969
vt 0.672073 0.032749
vt 0.690424 0.011825
vt 0.576039 0.183013
vt 0.565776 0.178761
vt 0.553853 0.248372
vt 0.543123 0.245497
vt 0.540387 0.316068
vt 0.529374 0.314618
vt 0.535873 0.384942
vt 0.524764 0.384942
vt 0.540387 0.453817
vt 0.529374 0.455267
vt 0.553853 0.521513
vt 0.543123 0.524388
vt 0.576040 0.586872
vt 0.565776 0.591124
vt 0.606567 0.648777
vt 0.596947 0.654331
vt 0.636734 0.693924
vt 0.631510 0.699147
vt 0.636101 0.712929
vt 0.682569 0.765915
vt 0.670786 0.738422
vt 0.690424 0.758060
vt 0.672073 0.737135
vt 0.003969 0.996031
vt 0.058978 0.773854
vt 0.058978 0.996031
vt 0.003969 0.773854
vt 0.255392 0.773854
vt 0.310936 0.829398
vt 0.255392 0.829398
vt 0.310936 0.773854
vt 0.943886 0.541478
vt 0.888812 0.319302
vt 0.943886 0.319302
vt 0.888812 0.541478
vt 0.351166 0.829398
vt 0.406710 0.773854
vt 0.406710 0.829398
vt 0.351166 0.773854
vt 0.470193 0.829398
vt 0.414649 0.773854
vt 0.470193 0.773854
vt 0.414649 0.829398
vt 0.346647 0.892346
vt 0.318875 0.837337
vt 0.346647 0.837337
vt 0.318875 0.892346
vt 0.382358 0.892346
vt 0.354586 0.837337
vt 0.382358 0.837337
vt 0.354586 0.892346
vt 0.604562 0.773854
vt 0.659203 0.829398
vt 0.604562 0.829398
vt 0.659203 0.773854
vt 0.533676 0.773854
vt 0.478132 0.829398
vt 0.478132 0.773854
vt 0.533676 0.829398
vt 0.414649 0.891978
vt 0.442421 0.837337
vt 0.442421 0.891978
vt 0.414649 0.837337
vt 0.450360 0.891978
vt 0.478132 0.837337
vt 0.478132 0.891978
vt 0.450360 0.837337
vt 0.129864 0.996030
vt 0.184873 0.773854
vt 0.184873 0.996030
vt 0.137180 0.940486
vt 0.129864 0.940486
vt 0.137180 0.801626
vt 0.129864 0.773854
vt 0.686096 0.773854
vt 0.686096 0.773854
vt 0.686096 0.773854
vt 0.686096 0.773854
vt 0.399394 0.865109
vt 0.406710 0.837337
vt 0.406710 0.865109
vt 0.399394 0.837337
vt 0.129864 0.801626
vt 0.192812 0.773854
vt 0.247453 0.996031
vt 0.192812 0.996031
vt 0.240186 0.940486
vt 0.240186 0.884942
vt 0.247453 0.884942
vt 0.240186 0.857170
vt 0.240186 0.801626
vt 0.247453 0.801626
vt 0.247453 0.773854
vt 0.247453 0.857170
vt 0.247453 0.940486
vt 0.318875 0.801626
vt 0.320677 0.773854
vt 0.320677 0.801626
vt 0.318875 0.773854
vt 0.686096 0.781793
vt 0.686096 0.781793
vt 0.686096 0.781793
vt 0.686096 0.781793
vt 0.068720 0.829398
vt 0.121925 0.773854
vt 0.068720 0.968259
vt 0.066917 0.773854
vt 0.066917 0.829398
vt 0.066917 0.996031
vt 0.121925 0.996031
vt 0.066917 0.968259
vt 0.541615 0.829398
vt 0.596623 0.773854
vt 0.596623 0.829398
vt 0.541615 0.773854
vt 0.943886 0.688277
vt 0.942081 0.660505
vt 0.943886 0.660505
vt 0.942081 0.688277
vt 0.888812 0.771593
vt 0.942081 0.604961
vt 0.888812 0.549417
vt 0.943886 0.604961
vt 0.943886 0.549417
vt 0.942081 0.743821
vt 0.943886 0.771593
vt 0.943886 0.743821
vn 0.8660 0.0000 -0.5000
vn 0.9239 0.0000 -0.3827
vn -0.1305 0.0000 0.9914
vn -0.2588 0.0000 0.9659
vn -0.9659 0.0000 0.2588
vn -0.9914 0.0000 0.1305
vn 0.2588 0.0000 -0.9659
vn 0.1951 0.0000 -0.9808
vn 0.7071 0.0000 -0.7071
vn 0.6088 0.0000 -0.7934
vn 0.5000 0.0000 -0.8660
vn -0.8660 -0.0000 0.5000
vn -0.9239 -0.0000 0.3827
vn -0.3827 0.0000 0.9239
vn -0.5000 0.0000 0.8660
vn -0.6088 0.0000 0.7934
vn -0.7071 0.0000 0.7071
vn 0.7934 -0.0000 -0.6088
vn -0.7934 -0.0000 0.6088
vn 0.3827 0.0000 -0.9239
vn 1.0000 -0.0000 0.0000
vn 0.9659 0.0000 -0.2588
vn -0.0654 -0.0000 0.9979
vn 0.0000 0.0000 -1.0000
vn 0.9808 0.0000 -0.1951
vn 0.9979 0.0000 -0.0654
vn -0.9979 0.0000 0.0654
vn 0.0654 0.0000 -0.9979
vn 0.0000 -1.0000 -0.0000
vn 0.0000 1.0000 0.0000
vn -1.0000 0.0000 0.0000
vn 0.0000 -0.0000 1.0000
vn 0.4396 -0.1835 -0.8792
vn -0.1630 0.0000 -0.9866
vn -0.6115 -0.0000 -0.7912
vn -0.4396 0.1838 -0.8792
s 1
f 1/1/1 2/2/2 3/3/2
f 2/2/2 1/1/1 4/4/1
f 5/5/3 6/6/4 7/7/3
f 6/6/4 5/5/3 8/8/4
f 9/9/5 10/10/6 11/11/6
f 10/10/6 9/9/5 12/12/5
f 13/13/7 14/14/8 15/15/7
f 14/14/8 13/13/7 16/16/8
f 17/17/9 18/18/10 19/19/9
f 18/18/10 17/17/9 20/20/10
f 20/20/10 21/21/11 18/18/10
f 21/21/11 20/20/10 22/22/11
f 23/23/12 24/24/13 25/25/13
f 24/24/13 23/23/12 26/26/12
f 8/8/4 27/27/14 6/6/4
f 27/27/14 8/8/4 28/28/14
f 29/29/15 30/30/16 31/31/15
f 30/30/16 29/29/15 32/32/16
f 32/32/16 33/33/17 30/30/16
f 33/33/17 32/32/16 34/34/17
f 35/35/18 4/4/1 1/1/1
f 4/4/1 35/35/18 36/36/18
f 37/37/19 26/26/12 23/23/12
f 26/26/12 37/37/19 38/38/19
f 39/39/19 40/40/12 41/41/12
f 40/40/12 39/39/19 42/42/19
f 25/25/13 12/12/5 9/9/5
f 12/12/5 25/25/13 24/24/13
f 43/43/20 15/15/7 44/44/20
f 15/15/7 43/43/20 13/13/7
f 45/45/21 46/46/21 47/47/21
f 46/46/21 45/45/21 48/48/21
f 49/49/10 50/50/11 51/51/10
f 50/50/11 49/49/10 52/52/11
f 28/28/14 31/31/15 27/27/14
f 31/31/15 28/28/14 29/29/15
f 53/53/2 54/54/22 55/55/22
f 54/54/22 53/53/2 56/56/2
f 45/57/23 7/7/3 48/58/23
f 7/7/3 45/57/23 5/5/3
f 57/59/18 58/60/1 59/61/1
f 58/60/1 57/59/18 60/62/18
f 61/63/24 62/64/24 63/65/24
f 62/64/24 61/63/24 64/66/24
f 65/67/22 66/68/25 67/69/25
f 66/68/25 65/67/22 68/70/22
f 69/71/26 70/72/26 71/73/26
f 70/72/26 69/71/26 72/74/26
f 3/3/2 68/70/22 65/67/22
f 68/70/22 3/3/2 2/2/2
f 73/75/24 71/76/24 74/77/24
f 71/76/24 73/75/24 69/78/24
f 11/11/6 73/79/27 74/80/27
f 73/79/27 11/11/6 10/10/6
f 59/61/1 56/56/2 53/53/2
f 56/56/2 59/61/1 58/60/1
f 64/81/26 75/82/26 62/83/26
f 75/82/26 64/81/26 76/84/26
f 55/55/22 77/85/25 78/86/25
f 77/85/25 55/55/22 54/54/22
f 52/52/11 79/87/20 50/50/11
f 79/87/20 52/52/11 80/88/20
f 81/89/28 46/90/28 82/91/28
f 46/90/28 81/89/28 47/92/28
f 83/93/28 84/94/28 85/95/28
f 84/94/28 83/93/28 86/96/28
f 7/97/29 87/98/29 48/99/29
f 87/98/29 7/97/29 88/100/29
f 88/100/29 7/97/29 6/101/29
f 88/100/29 6/101/29 14/102/29
f 14/102/29 6/101/29 15/103/29
f 15/103/29 6/101/29 44/104/29
f 44/104/29 6/101/29 27/105/29
f 44/104/29 27/105/29 21/106/29
f 21/106/29 27/105/29 31/107/29
f 21/106/29 31/107/29 18/108/29
f 18/108/29 31/107/29 30/109/29
f 18/108/29 30/109/29 19/110/29
f 19/110/29 30/109/29 33/111/29
f 19/110/29 33/111/29 36/112/29
f 36/112/29 33/111/29 37/113/29
f 36/112/29 37/113/29 4/114/29
f 4/114/29 37/113/29 23/115/29
f 4/114/29 23/115/29 2/116/29
f 2/116/29 23/115/29 25/117/29
f 2/116/29 25/117/29 68/118/29
f 68/118/29 25/117/29 9/119/29
f 68/118/29 9/119/29 66/120/29
f 66/120/29 9/119/29 89/121/29
f 89/121/29 9/119/29 11/122/29
f 89/121/29 11/122/29 90/123/29
f 90/123/29 11/122/29 71/124/29
f 71/124/29 11/122/29 74/125/29
f 71/124/29 70/126/29 90/123/29
f 48/99/29 82/127/29 46/128/29
f 82/127/29 48/99/29 87/98/29
f 41/41/12 91/129/13 92/130/13
f 91/129/13 41/41/12 40/40/12
f 93/131/17 42/42/19 39/39/19
f 42/42/19 93/131/17 94/132/17
f 95/133/9 51/51/10 96/134/9
f 51/51/10 95/133/9 49/49/10
f 97/135/7 98/136/8 99/137/7
f 98/136/8 97/135/7 100/138/8
f 101/139/4 102/140/14 103/141/4
f 102/140/14 101/139/4 104/142/14
f 95/143/9 60/62/18 57/59/18
f 60/62/18 95/143/9 96/144/9
f 105/145/23 106/146/3 107/147/23
f 106/146/3 105/145/23 108/148/3
f 97/149/30 109/150/30 100/151/30
f 101/152/30 109/150/30 97/149/30
f 108/153/30 109/150/30 101/152/30
f 108/153/30 110/154/30 109/150/30
f 105/155/30 110/154/30 108/153/30
f 105/155/30 83/156/30 110/154/30
f 83/156/30 105/155/30 86/157/30
f 101/152/30 97/149/30 80/158/30
f 101/152/30 80/158/30 104/159/30
f 104/159/30 80/158/30 52/160/30
f 104/159/30 52/160/30 111/161/30
f 111/161/30 52/160/30 49/162/30
f 111/161/30 49/162/30 112/163/30
f 112/163/30 49/162/30 95/164/30
f 112/163/30 95/164/30 94/165/30
f 94/165/30 95/164/30 57/166/30
f 94/165/30 57/166/30 42/167/30
f 42/167/30 57/166/30 59/168/30
f 42/167/30 59/168/30 40/169/30
f 40/169/30 59/168/30 53/170/30
f 40/169/30 53/170/30 91/171/30
f 91/171/30 53/170/30 55/172/30
f 91/171/30 55/172/30 113/173/30
f 113/173/30 55/172/30 78/174/30
f 113/173/30 78/174/30 114/175/30
f 113/173/30 114/175/30 115/176/30
f 114/175/30 61/177/30 115/176/30
f 116/178/30 61/177/30 114/175/30
f 116/178/30 64/179/30 61/177/30
f 64/179/30 116/178/30 76/180/30
f 106/181/29 117/182/29 107/183/29
f 117/182/29 106/181/29 118/184/29
f 118/184/29 106/181/29 103/185/29
f 118/184/29 103/185/29 98/186/29
f 98/186/29 103/185/29 99/187/29
f 99/187/29 103/185/29 79/188/29
f 79/188/29 103/185/29 102/189/29
f 79/188/29 102/189/29 50/190/29
f 50/190/29 102/189/29 119/191/29
f 50/190/29 119/191/29 51/192/29
f 51/192/29 119/191/29 120/193/29
f 51/192/29 120/193/29 96/194/29
f 96/194/29 120/193/29 93/195/29
f 96/194/29 93/195/29 60/196/29
f 60/196/29 93/195/29 39/197/29
f 60/196/29 39/197/29 58/198/29
f 58/198/29 39/197/29 41/199/29
f 58/198/29 41/199/29 56/200/29
f 56/200/29 41/199/29 92/201/29
f 56/200/29 92/201/29 54/202/29
f 54/202/29 92/201/29 121/203/29
f 54/202/29 121/203/29 77/204/29
f 77/204/29 121/203/29 122/205/29
f 122/205/29 121/203/29 123/206/29
f 122/205/29 123/206/29 124/207/29
f 124/207/29 123/206/29 62/208/29
f 62/208/29 123/206/29 63/209/29
f 62/208/29 75/210/29 124/207/29
f 107/183/29 85/211/29 84/212/29
f 85/211/29 107/183/29 117/182/29
f 33/213/17 38/38/19 37/37/19
f 38/38/19 33/213/17 34/214/17
f 104/142/14 119/215/15 102/140/14
f 119/215/15 104/142/14 111/216/15
f 111/216/15 120/217/16 119/215/15
f 120/217/16 111/216/15 112/218/16
f 105/219/21 84/220/21 86/221/21
f 84/220/21 105/219/21 107/222/21
f 92/130/13 113/223/5 121/224/5
f 113/223/5 92/130/13 91/129/13
f 112/218/16 93/225/17 120/217/16
f 93/225/17 112/218/16 94/226/17
f 123/227/6 61/228/27 63/229/27
f 61/228/27 123/227/6 115/230/6
f 80/88/20 99/137/7 79/87/20
f 99/137/7 80/88/20 97/135/7
f 17/231/9 36/36/18 35/35/18
f 36/36/18 17/231/9 19/232/9
f 22/22/11 44/44/20 21/21/11
f 44/44/20 22/22/11 43/43/20
f 13/233/30 125/234/30 16/235/30
f 8/236/30 125/234/30 13/233/30
f 5/237/30 125/234/30 8/236/30
f 5/237/30 126/238/30 125/234/30
f 45/239/30 126/238/30 5/237/30
f 45/239/30 81/240/30 126/238/30
f 81/240/30 45/239/30 47/241/30
f 8/236/30 13/233/30 43/242/30
f 8/236/30 43/242/30 28/243/30
f 28/243/30 43/242/30 22/244/30
f 28/243/30 22/244/30 29/245/30
f 29/245/30 22/244/30 20/246/30
f 29/245/30 20/246/30 32/247/30
f 32/247/30 20/246/30 17/248/30
f 32/247/30 17/248/30 34/249/30
f 34/249/30 17/248/30 35/250/30
f 34/249/30 35/250/30 38/251/30
f 38/251/30 35/250/30 1/252/30
f 38/251/30 1/252/30 26/253/30
f 26/253/30 1/252/30 3/254/30
f 26/253/30 3/254/30 24/255/30
f 24/255/30 3/254/30 65/256/30
f 24/255/30 65/256/30 12/257/30
f 12/257/30 65/256/30 67/258/30
f 12/257/30 67/258/30 127/259/30
f 12/257/30 127/259/30 10/260/30
f 127/259/30 73/261/30 10/260/30
f 128/262/30 73/261/30 127/259/30
f 128/262/30 69/263/30 73/261/30
f 69/263/30 128/262/30 72/264/30
f 121/224/5 115/230/6 123/227/6
f 115/230/6 121/224/5 113/223/5
f 108/148/3 103/141/4 106/146/3
f 103/141/4 108/148/3 101/139/4
f 129/265/21 130/266/21 131/267/21
f 130/266/21 129/265/21 132/268/21
f 133/269/29 134/270/29 135/271/29
f 134/270/29 133/269/29 136/272/29
f 137/273/24 134/274/24 136/275/24
f 134/274/24 137/273/24 138/276/24
f 139/277/29 130/278/29 132/279/29
f 130/278/29 139/277/29 140/280/29
f 137/281/30 141/282/30 138/283/30
f 141/282/30 137/281/30 142/284/30
f 127/285/31 143/286/31 128/287/31
f 143/286/31 127/285/31 144/288/31
f 114/289/31 90/290/31 116/291/31
f 90/290/31 114/289/31 89/292/31
f 117/293/32 133/294/32 135/295/32
f 133/294/32 117/293/32 118/296/32
f 143/297/30 129/298/30 131/299/30
f 129/298/30 143/297/30 144/300/30
f 141/301/32 125/302/32 126/303/32
f 125/302/32 141/301/32 142/304/32
f 87/305/32 109/306/32 110/307/32
f 109/306/32 87/305/32 88/308/32
f 133/309/31 137/310/31 136/311/31
f 137/310/31 133/309/31 98/312/31
f 98/312/31 133/309/31 118/313/31
f 16/314/31 137/310/31 98/312/31
f 137/310/31 16/314/31 142/315/31
f 16/316/31 98/317/31 100/318/33
f 16/316/31 100/318/33 14/319/34
f 109/320/31 14/321/34 100/322/33
f 14/321/34 109/320/31 88/323/31
f 142/315/31 16/314/31 125/324/31
f 129/325/32 139/326/32 132/327/32
f 139/326/32 129/325/32 77/328/32
f 77/328/32 129/325/32 78/329/32
f 78/329/32 129/325/32 114/330/32
f 114/330/32 129/325/32 66/331/32
f 66/331/32 129/325/32 67/332/32
f 67/332/32 129/325/32 127/333/32
f 127/333/32 129/325/32 144/334/32
f 89/335/32 114/330/32 66/331/32
f 122/336/32 139/326/32 77/328/32
f 87/337/21 83/338/35 82/339/36
f 83/338/35 87/337/21 110/340/21
f 85/341/21 82/342/36 83/343/35
f 85/341/21 81/344/21 82/342/36
f 85/345/21 134/346/21 81/347/21
f 134/346/21 85/345/21 135/348/21
f 135/348/21 85/345/21 117/349/21
f 134/346/21 141/350/21 81/347/21
f 141/350/21 134/346/21 138/351/21
f 81/347/21 141/350/21 126/352/21
f 139/353/31 124/354/31 140/355/31
f 124/354/31 139/353/31 122/356/31
f 90/357/24 76/358/24 116/359/24
f 70/360/24 76/358/24 90/357/24
f 131/361/24 76/358/24 70/360/24
f 131/361/24 75/362/24 76/358/24
f 130/363/24 75/362/24 131/361/24
f 130/363/24 124/364/24 75/362/24
f 124/364/24 130/363/24 140/365/24
f 131/361/24 70/360/24 72/366/24
f 131/361/24 72/366/24 143/367/24
f 143/367/24 72/366/24 128/368/24
