# Blender v2.92.0 OBJ File: 'kenney_OGConvert.blend'
# www.blender.org
o flag
v 0.100550 0.870000 -0.020404
v 0.115429 0.589717 -0.019539
v 0.100550 0.589717 -0.020405
v 0.115429 0.870000 -0.019539
v 0.158834 0.870000 -0.006702
v 0.172491 0.589717 0.000872
v 0.158834 0.589717 -0.006702
v 0.172491 0.870000 0.000872
v 0.328834 0.870000 0.026702
v 0.342491 0.589717 0.019128
v 0.328834 0.589717 0.026702
v 0.342491 0.870000 0.019128
v 0.355550 0.589717 0.010000
v 0.355550 0.870000 0.010000
v 0.285429 0.870000 0.039539
v 0.300184 0.589717 0.036950
v 0.285429 0.589717 0.039539
v 0.300184 0.870000 0.036950
v 0.028609 0.870000 0.000872
v 0.028609 0.608689 0.000872
v 0.025865 0.870000 0.002790
v 0.240916 0.870000 0.036950
v 0.255671 0.589717 0.039539
v 0.240916 0.589717 0.036950
v 0.255671 0.870000 0.039539
v 0.070916 0.870000 -0.016950
v 0.085671 0.589717 -0.019539
v 0.070916 0.589717 -0.016950
v 0.085671 0.870000 -0.019539
v 0.130184 0.589717 -0.016950
v 0.130184 0.870000 -0.016950
v 0.212266 0.870000 0.026702
v 0.226407 0.589717 0.032659
v 0.212266 0.589717 0.026702
v 0.226407 0.870000 0.032659
v 0.270550 0.870000 0.040404
v 0.270550 0.589717 0.040404
v 0.314693 0.589717 0.032659
v 0.314693 0.870000 0.032659
v 0.042266 0.589717 -0.006702
v 0.028808 0.589717 0.000762
v 0.042266 0.870000 -0.006702
v 0.198609 0.870000 0.019128
v 0.198609 0.589717 0.019128
v 0.056407 0.589717 -0.012659
v 0.056407 0.870000 -0.012659
v 0.144693 0.870000 -0.012659
v 0.144693 0.589717 -0.012659
v -0.025550 0.900000 -0.025550
v 0.025550 0.900000 0.025550
v 0.025550 0.900000 -0.025550
v -0.025550 0.900000 0.025550
v 0.035000 -0.000000 0.035000
v 0.035000 0.000000 -0.035000
v -0.035000 -0.000000 0.035000
v -0.035000 0.000000 -0.035000
vt 0.001583 0.084599
vt 0.312005 0.084599
vt 0.312006 0.101065
vt 0.001583 0.101065
vt 0.001591 0.148965
vt 0.312014 0.148965
vt 0.312018 0.163990
vt 0.001595 0.163990
vt 0.001611 0.336793
vt 0.312034 0.336793
vt 0.312030 0.352017
vt 0.001607 0.352017
vt 0.312024 0.366599
vt 0.001602 0.366599
vt 0.001618 0.288554
vt 0.312041 0.288554
vt 0.312040 0.304929
vt 0.001617 0.304929
vt 0.001594 0.004647
vt 0.001595 0.001583
vt 0.291005 0.004647
vt 0.001616 0.239292
vt 0.312039 0.239292
vt 0.312041 0.255598
vt 0.001618 0.255598
vt 0.001585 0.051735
vt 0.312007 0.051735
vt 0.312006 0.068110
vt 0.001583 0.068109
vt 0.312008 0.117371
vt 0.001585 0.117371
vt 0.001610 0.207698
vt 0.312033 0.207698
vt 0.312037 0.223281
vt 0.001614 0.223281
vt 0.001619 0.272065
vt 0.312041 0.272065
vt 0.312037 0.321053
vt 0.001614 0.321053
vt 0.312017 0.004869
vt 0.312013 0.019871
vt 0.001590 0.019871
vt 0.001606 0.192673
vt 0.312029 0.192674
vt 0.312010 0.035611
vt 0.001587 0.035610
vt 0.001588 0.133382
vt 0.312010 0.133383
vt 0.138870 0.369765
vt 0.082275 0.426359
vt 0.082275 0.369765
vt 0.138870 0.426359
vt 0.325673 0.001583
vt 0.392734 0.998417
vt 0.315207 0.998417
vt 0.382268 0.001583
vt 0.395900 0.998417
vt 0.462961 0.001583
vt 0.473427 0.998417
vt 0.406366 0.001583
vt 0.543653 0.998417
vt 0.476592 0.001583
vt 0.554120 0.001583
vt 0.487058 0.998417
vt 0.567632 0.001583
vt 0.634807 0.998367
vt 0.557285 0.998367
vt 0.624223 0.001583
vt 0.079110 0.447292
vt 0.001583 0.369765
vt 0.079110 0.369765
vt 0.001583 0.447292
vn -0.0000 -0.0000 1.0000
vn -0.1156 -0.0000 0.9933
vn -0.4372 -0.0000 0.8993
vn -0.5297 -0.0000 0.8482
vn 0.4372 -0.0000 0.8993
vn 0.5297 -0.0000 0.8482
vn 0.5729 -0.0000 0.8196
vn 0.1156 -0.0000 0.9933
vn 0.2286 -0.0000 0.9735
vn 0.4854 0.0000 0.8743
vn -0.2286 -0.0000 0.9735
vn -0.3364 -0.0000 0.9417
vn 0.3364 -0.0000 0.9417
vn 0.4850 0.0000 0.8745
vn 0.0000 1.0000 0.0000
vn 0.9999 0.0105 -0.0000
vn -0.9999 0.0105 -0.0000
vn -0.0000 0.0105 -0.9999
vn 0.0000 0.0105 0.9999
vn -0.0000 -1.0000 -0.0000
s 1
f 1/1/1 3/2/1 2/3/2
f 2/3/2 4/4/2 1/1/1
f 5/5/3 7/6/3 6/7/4
f 6/7/4 8/8/4 5/5/3
f 9/9/5 11/10/5 10/11/6
f 10/11/6 12/12/6 9/9/5
f 12/12/6 10/11/6 13/13/7
f 13/13/7 14/14/7 12/12/6
f 15/15/8 17/16/8 16/17/9
f 16/17/9 18/18/9 15/15/8
f 19/19/6 21/20/7 20/21/10
f 22/22/11 24/23/11 23/24/2
f 23/24/2 25/25/2 22/22/11
f 26/26/9 28/27/9 27/28/8
f 27/28/8 29/29/8 26/26/9
f 4/4/2 2/3/2 30/30/11
f 30/30/11 31/31/11 4/4/2
f 32/32/3 34/33/3 33/34/12
f 33/34/12 35/35/12 32/32/3
f 36/36/1 37/37/1 17/16/8
f 17/16/8 15/15/8 36/36/1
f 18/18/9 16/17/9 38/38/13
f 38/38/13 39/39/13 18/18/9
f 29/29/8 27/28/8 3/2/1
f 3/2/1 1/1/1 29/29/8
f 20/21/10 41/40/14 40/41/5
f 40/41/5 42/42/5 20/21/10
f 42/42/5 19/19/6 20/21/10
f 43/43/4 44/44/4 34/33/3
f 34/33/3 32/32/3 43/43/4
f 39/39/13 38/38/13 11/10/5
f 11/10/5 9/9/5 39/39/13
f 42/42/5 40/41/5 45/45/13
f 45/45/13 46/46/13 42/42/5
f 47/47/12 48/48/12 7/6/3
f 7/6/3 5/5/3 47/47/12
f 35/35/12 33/34/12 24/23/11
f 24/23/11 22/22/11 35/35/12
f 8/8/4 6/7/4 44/44/4
f 44/44/4 43/43/4 8/8/4
f 46/46/13 45/45/13 28/27/9
f 28/27/9 26/26/9 46/46/13
f 31/31/11 30/30/11 48/48/12
f 48/48/12 47/47/12 31/31/11
f 25/25/2 23/24/2 37/37/1
f 37/37/1 36/36/1 25/25/2
f 49/49/15 50/50/15 51/51/15
f 50/50/15 49/49/15 52/52/15
f 51/53/16 53/54/16 54/55/16
f 53/54/16 51/53/16 50/56/16
f 55/57/17 49/58/17 56/59/17
f 49/58/17 55/57/17 52/60/17
f 49/61/18 54/62/18 56/63/18
f 54/62/18 49/61/18 51/64/18
f 50/65/19 55/66/19 53/67/19
f 55/66/19 50/65/19 52/68/19
f 53/69/20 56/70/20 54/71/20
f 56/70/20 53/69/20 55/72/20
