# Blender v2.92.0 OBJ File: 'OGConvert.blend'
# www.blender.org
o ladderBroken
v -0.880000 8.000000 -0.320000
v -0.880000 7.253332 -0.131200
v -0.880000 0.000000 -0.320000
v -0.880000 8.000000 0.320000
v -0.880000 7.253332 0.131200
v -0.880000 6.720000 0.131200
v -0.880000 5.253333 0.131200
v -0.880000 4.720000 0.131200
v -0.880000 3.253333 0.131200
v -0.880000 2.720000 0.131200
v -0.880000 1.253334 0.131200
v -0.880000 0.720000 0.131200
v -0.880000 0.720000 -0.131200
v -0.880000 -0.000000 0.320000
v -0.880000 6.720000 -0.131200
v -0.880000 5.253333 -0.131200
v -0.880000 4.720000 -0.131200
v -0.880000 3.253333 -0.131200
v -0.880000 2.720000 -0.131200
v -0.880000 1.253334 -0.131200
v 0.880000 8.000000 -0.320000
v 1.520001 0.000000 -0.320000
v 0.880000 0.000000 -0.320000
v 1.520001 8.000000 -0.320000
v 1.520001 8.000000 0.320000
v 0.880000 -0.000000 0.320000
v 1.520001 -0.000000 0.320000
v 0.880000 8.000000 0.320000
v -1.520000 -0.000000 0.320000
v -1.520000 8.000000 0.320000
v 0.880000 0.720000 -0.131200
v 0.880000 0.720000 0.131200
v 0.880000 1.253334 0.131200
v 0.880000 2.720000 0.131200
v 0.880000 3.253333 0.131200
v 0.880000 4.720000 0.131200
v 0.880000 5.253333 0.131200
v 0.880000 6.720000 0.131200
v 0.880000 7.253332 0.131200
v 0.880000 7.253332 -0.131200
v 0.880000 1.253334 -0.131200
v 0.880000 2.720000 -0.131200
v 0.880000 3.253333 -0.131200
v 0.880000 4.720000 -0.131200
v 0.880000 5.253333 -0.131200
v 0.880000 6.720000 -0.131200
v -1.520000 8.000000 -0.320000
v -1.520000 0.000000 -0.320000
v 0.000000 2.720000 -0.131200
v 0.080000 3.253333 -0.131200
v 0.000000 7.253332 -0.131200
v 0.000000 7.253332 0.131200
v 0.440000 6.720000 0.131200
v 0.440000 6.720000 -0.131200
v 0.080000 3.253333 0.131200
v 0.000000 2.720000 0.131200
v 0.080000 6.720000 -0.131200
v 0.360000 7.253332 0.131200
v 0.360000 7.253332 -0.131200
v -0.080000 1.253334 -0.131200
v 0.000000 0.720000 -0.131200
v 0.000000 0.720000 0.131200
v -0.080000 1.253334 0.131200
v -0.440000 1.253334 -0.131200
v -0.360000 0.720000 0.131200
v -0.360000 0.720000 -0.131200
v -0.440000 1.253334 0.131200
v 0.080000 6.720000 0.131200
v 0.440000 3.253333 0.131200
v 0.440000 3.253333 -0.131200
v 0.360000 2.720000 -0.131200
v 0.360000 2.720000 0.131200
vt 0.771775 0.822307
vt 0.752475 0.745984
vt 0.771775 0.004565
vt 0.706352 0.822307
vt 0.725652 0.745984
vt 0.725652 0.691468
vt 0.725652 0.541549
vt 0.725652 0.487033
vt 0.725652 0.337113
vt 0.725652 0.282597
vt 0.725652 0.132678
vt 0.725652 0.078162
vt 0.752475 0.078162
vt 0.706352 0.004565
vt 0.399008 0.004565
vt 0.399008 0.672425
vt 0.399008 0.617906
vt 0.184478 0.477108
vt 0.184478 0.477108
vt 0.184478 0.477108
vt 0.752475 0.541549
vt 0.752475 0.691468
vt 0.184478 0.004565
vt 0.184478 0.467978
vt 0.184478 0.413459
vt 0.166455 0.477108
vt 0.166455 0.477108
vt 0.166455 0.477108
vt 0.752475 0.337113
vt 0.752475 0.487033
vt 0.166455 0.477108
vt 0.166455 0.477108
vt 0.752475 0.132678
vt 0.752475 0.282597
vt 0.408138 0.004565
vt 0.473561 0.822353
vt 0.408138 0.822353
vt 0.473562 0.004565
vt 0.482692 0.004565
vt 0.548115 0.822353
vt 0.482692 0.822353
vt 0.548115 0.004565
vt 0.121371 0.773417
vt 0.055948 0.838840
vt 0.055948 0.773417
vt 0.121371 0.838840
vt 0.557245 0.004565
vt 0.622668 0.822353
vt 0.557245 0.822353
vt 0.622668 0.004565
vt 0.920882 0.822307
vt 0.901582 0.748710
vt 0.920882 0.004565
vt 0.855458 0.822307
vt 0.874758 0.748710
vt 0.874758 0.694194
vt 0.874758 0.544275
vt 0.874758 0.489759
vt 0.874758 0.339839
vt 0.874758 0.285323
vt 0.874758 0.135404
vt 0.874758 0.080888
vt 0.901582 0.080888
vt 0.855458 0.004565
vt 0.291743 0.004565
vt 0.291743 0.672425
vt 0.291743 0.617906
vt 0.291743 0.467978
vt 0.901582 0.544275
vt 0.901582 0.694194
vt 0.184478 0.486239
vt 0.184478 0.486239
vt 0.184478 0.486239
vt 0.184478 0.486239
vt 0.901582 0.339839
vt 0.901582 0.489759
vt 0.184478 0.486239
vt 0.004565 0.681555
vt 0.004565 0.477108
vt 0.004565 0.627036
vt 0.901582 0.135404
vt 0.901582 0.285323
vt 0.930012 0.822307
vt 0.995435 0.004565
vt 0.995435 0.822307
vt 0.930012 0.004565
vt 0.631799 0.004565
vt 0.697222 0.822353
vt 0.631799 0.822353
vt 0.697222 0.004565
vt 0.780905 0.822307
vt 0.846328 0.004565
vt 0.846328 0.822307
vt 0.780905 0.004565
vt 0.182705 0.788820
vt 0.248128 0.854243
vt 0.182705 0.854243
vt 0.248128 0.788820
vt 0.193609 0.779690
vt 0.248128 0.689733
vt 0.248128 0.779690
vt 0.193609 0.681555
vt 0.548115 0.831483
vt 0.521291 0.921440
vt 0.521291 0.831483
vt 0.548115 0.921440
vt 0.004565 0.413459
vt 0.004565 0.467978
vt 0.329165 0.863374
vt 0.355989 0.908352
vt 0.329165 0.908352
vt 0.355989 0.863374
vt 0.004565 0.916029
vt 0.031389 0.861600
vt 0.031389 0.916029
vt 0.004565 0.861600
vt 0.300874 0.617906
vt 0.309051 0.672425
vt 0.121371 0.477108
vt 0.066852 0.657022
vt 0.066852 0.477108
vt 0.121371 0.657022
vt 0.031389 0.754335
vt 0.004565 0.852470
vt 0.004565 0.754335
vt 0.031389 0.852470
vt 0.245482 0.863374
vt 0.218658 0.916530
vt 0.218658 0.863374
vt 0.245482 0.916530
vt 0.193609 0.617906
vt 0.201787 0.672425
vt 0.670398 0.886086
vt 0.697222 0.831483
vt 0.697222 0.886086
vt 0.670398 0.831483
vt 0.557245 0.831483
vt 0.602224 0.886002
vt 0.557245 0.886002
vt 0.610401 0.831483
vt 0.121371 0.902573
vt 0.094547 0.847970
vt 0.121371 0.847970
vt 0.094547 0.902573
vt 0.375427 0.689733
vt 0.320907 0.779690
vt 0.320907 0.681555
vt 0.375427 0.779690
vt 0.055948 0.902573
vt 0.082771 0.847970
vt 0.082771 0.902573
vt 0.055948 0.847970
vt 0.066852 0.764287
vt 0.121371 0.674330
vt 0.121371 0.764287
vt 0.066852 0.666152
vt 0.057721 0.681555
vt 0.049543 0.627036
vt 0.733175 0.895087
vt 0.706352 0.940065
vt 0.706352 0.895087
vt 0.733175 0.940065
vt 0.311777 0.681555
vt 0.257258 0.779690
vt 0.257258 0.689733
vt 0.311777 0.779690
vt 0.157324 0.477108
vt 0.130501 0.657022
vt 0.130501 0.477108
vt 0.157324 0.657022
vt 0.843192 0.831437
vt 0.870015 0.929572
vt 0.843192 0.929572
vt 0.870015 0.831437
vt 0.485338 0.831483
vt 0.512161 0.921440
vt 0.485338 0.921440
vt 0.512161 0.831483
vt 0.012743 0.690686
vt 0.057721 0.745205
vt 0.004565 0.745205
vt 0.057721 0.690686
vt 0.397234 0.863374
vt 0.370411 0.908352
vt 0.370411 0.863374
vt 0.397234 0.908352
vt 0.905969 0.831437
vt 0.879145 0.929572
vt 0.879145 0.831437
vt 0.905969 0.929572
vt 0.706352 0.831437
vt 0.759508 0.885957
vt 0.706352 0.885957
vt 0.751330 0.831437
vt 0.209528 0.917803
vt 0.182705 0.863374
vt 0.209528 0.863374
vt 0.182705 0.917803
vt 0.130501 0.666152
vt 0.157324 0.846065
vt 0.130501 0.846065
vt 0.157324 0.666152
vt 0.293212 0.863374
vt 0.320035 0.916530
vt 0.293212 0.916530
vt 0.320035 0.863374
vt 0.789083 0.831437
vt 0.834061 0.885956
vt 0.780905 0.885956
vt 0.834061 0.831437
vt 0.157324 0.909799
vt 0.130501 0.855196
vt 0.157324 0.855196
vt 0.130501 0.909799
vt 0.619532 0.831483
vt 0.646355 0.921440
vt 0.619532 0.921440
vt 0.646355 0.831483
vt 0.257258 0.863374
vt 0.284082 0.916530
vt 0.257258 0.916530
vt 0.284082 0.863374
vt 0.408138 0.831483
vt 0.461295 0.886003
vt 0.408138 0.886003
vt 0.453117 0.831483
vt 0.257258 0.788820
vt 0.322681 0.854243
vt 0.257258 0.854243
vt 0.322681 0.788820
vt 0.331811 0.854243
vt 0.397234 0.788820
vt 0.397234 0.854243
vt 0.331811 0.788820
vn 1.0000 0.0000 0.0000
vn -1.0000 0.0000 0.0000
vn -0.2756 -0.9613 -0.0000
vn -0.0238 0.0475 -0.9986
vn 0.0000 0.0000 -1.0000
vn 0.0000 -0.0000 1.0000
vn 0.0000 1.0000 0.0000
vn 0.0000 -1.0000 0.0000
vn 0.9889 -0.1483 0.0000
vn -0.9889 -0.1483 0.0000
vn 0.9889 0.1483 0.0000
vn -0.9889 0.1483 0.0000
s 1
f 1/1/1 2/2/1 3/3/1
f 2/2/1 1/1/1 4/4/1
f 2/2/1 4/4/1 5/5/1
f 5/5/1 4/4/1 6/6/1
f 6/6/1 4/4/1 7/7/1
f 7/7/1 4/4/1 8/8/1
f 8/8/1 4/4/1 9/9/1
f 9/9/1 4/4/1 10/10/1
f 10/10/1 4/4/1 11/11/1
f 11/11/1 4/4/1 12/12/1
f 13/13/1 3/3/1 2/2/1
f 3/3/1 13/13/1 14/14/1
f 14/14/1 13/13/1 12/12/1
f 14/14/1 12/12/1 4/4/1
f 13/15/1 2/16/1 15/17/1
f 13/18/1 15/19/1 16/20/2
f 6/6/1 16/21/2 15/22/1
f 16/21/2 6/6/1 7/7/1
f 13/23/1 16/24/2 17/25/1
f 13/26/1 17/27/1 18/28/1
f 8/8/1 18/29/1 17/30/1
f 18/29/1 8/8/1 9/9/1
f 13/26/1 18/28/1 19/31/3
f 13/26/1 19/31/3 20/32/4
f 10/10/1 20/33/4 19/34/3
f 20/33/4 10/10/1 11/11/1
f 21/35/5 22/36/5 23/37/5
f 22/36/5 21/35/5 24/38/5
f 25/39/6 26/40/6 27/41/6
f 26/40/6 25/39/6 28/42/6
f 24/43/7 28/44/7 25/45/7
f 28/44/7 24/43/7 21/46/7
f 4/47/6 29/48/6 14/49/6
f 29/48/6 4/47/6 30/50/6
f 23/51/2 31/52/2 21/53/2
f 31/52/2 23/51/2 26/54/2
f 31/52/2 26/54/2 32/55/2
f 32/55/2 26/54/2 33/56/2
f 33/56/2 26/54/2 34/57/2
f 34/57/2 26/54/2 35/58/2
f 35/58/2 26/54/2 36/59/2
f 36/59/2 26/54/2 37/60/2
f 37/60/2 26/54/2 38/61/2
f 38/61/2 26/54/2 39/62/2
f 40/63/2 21/53/2 31/52/2
f 21/53/2 40/63/2 28/64/2
f 28/64/2 40/63/2 39/62/2
f 28/64/2 39/62/2 26/54/2
f 40/65/2 31/66/2 41/67/2
f 40/65/2 41/67/2 42/68/2
f 33/56/2 42/69/2 41/70/2
f 42/69/2 33/56/2 34/57/2
f 40/71/2 42/72/2 43/73/1
f 40/71/2 43/73/1 44/74/2
f 35/58/2 44/75/2 43/76/1
f 44/75/2 35/58/2 36/59/2
f 40/71/2 44/74/2 45/77/2
f 40/78/2 45/79/2 46/80/2
f 37/60/2 46/81/2 45/82/2
f 46/81/2 37/60/2 38/61/2
f 29/83/2 47/84/2 48/85/2
f 47/84/2 29/83/2 30/86/2
f 47/87/5 3/88/5 48/89/5
f 3/88/5 47/87/5 1/90/5
f 25/91/1 22/92/1 24/93/1
f 22/92/1 25/91/1 27/94/1
f 1/95/7 30/96/7 4/97/7
f 30/96/7 1/95/7 47/98/7
f 18/99/5 49/100/5 19/101/5
f 49/100/5 18/99/5 50/102/5
f 51/103/7 5/104/7 52/105/7
f 5/104/7 51/103/7 2/106/7
f 16/24/5 44/107/5 17/25/5
f 44/107/5 16/24/5 45/108/5
f 53/109/8 46/110/8 38/111/8
f 46/110/8 53/109/8 54/112/8
f 55/113/9 49/114/9 50/115/9
f 49/114/9 55/113/9 56/116/9
f 2/16/5 57/117/5 15/17/5
f 57/117/5 2/16/5 51/118/5
f 37/119/6 8/120/6 36/121/6
f 8/120/6 37/119/6 7/122/6
f 50/123/7 9/124/7 55/125/7
f 9/124/7 50/123/7 18/126/7
f 40/127/7 58/128/7 39/129/7
f 58/128/7 40/127/7 59/130/7
f 60/131/5 31/66/5 61/132/5
f 31/66/5 60/131/5 41/67/5
f 62/133/10 60/134/10 61/135/10
f 60/134/10 62/133/10 63/136/10
f 39/137/6 53/138/6 38/139/6
f 53/138/6 39/137/6 58/140/6
f 64/141/11 65/142/11 66/143/11
f 65/142/11 64/141/11 67/144/11
f 52/145/6 6/146/6 68/147/6
f 6/146/6 52/145/6 5/148/6
f 53/149/10 59/150/10 54/151/10
f 59/150/10 53/149/10 58/152/10
f 33/153/6 62/154/6 32/155/6
f 62/154/6 33/153/6 63/156/6
f 59/157/5 46/80/5 54/158/5
f 46/80/5 59/157/5 40/78/5
f 64/159/7 11/160/7 67/161/7
f 11/160/7 64/159/7 20/162/7
f 55/163/6 10/164/6 56/165/6
f 10/164/6 55/163/6 9/166/6
f 45/167/7 7/168/7 37/169/7
f 7/168/7 45/167/7 16/170/7
f 6/171/8 57/172/8 68/173/8
f 57/172/8 6/171/8 15/174/8
f 62/175/8 31/176/8 32/177/8
f 31/176/8 62/175/8 61/178/8
f 67/179/6 12/180/6 65/181/6
f 12/180/6 67/179/6 11/182/6
f 43/183/7 69/184/7 35/185/7
f 69/184/7 43/183/7 70/186/7
f 41/187/7 63/188/7 33/189/7
f 63/188/7 41/187/7 60/190/7
f 20/191/5 66/192/5 13/193/5
f 66/192/5 20/191/5 64/194/5
f 71/195/12 69/196/12 70/197/12
f 69/196/12 71/195/12 72/198/12
f 8/199/8 44/200/8 36/201/8
f 44/200/8 8/199/8 17/202/8
f 12/203/8 66/204/8 65/205/8
f 66/204/8 12/203/8 13/206/8
f 70/207/5 42/208/5 71/209/5
f 42/208/5 70/207/5 43/210/5
f 51/211/11 68/212/11 57/213/11
f 68/212/11 51/211/11 52/214/11
f 10/215/8 49/216/8 56/217/8
f 49/216/8 10/215/8 19/218/8
f 72/219/8 42/220/8 34/221/8
f 42/220/8 72/219/8 71/222/8
f 35/223/6 72/224/6 34/225/6
f 72/224/6 35/223/6 69/226/6
f 26/227/8 22/228/8 27/229/8
f 22/228/8 26/227/8 23/230/8
f 29/231/8 3/232/8 14/233/8
f 3/232/8 29/231/8 48/234/8
