# Blender v2.92.0 OBJ File: 'kenney_OGConvert.blend'
# www.blender.org
o plant
v -0.222325 0.163502 0.038724
v -0.230709 0.120000 0.185162
v -0.144698 0.163502 0.173177
v -0.275709 0.120000 0.107219
v 0.000000 -0.000000 0.051962
v 0.178174 0.152605 0.006854
v 0.045000 0.000000 -0.025981
v 0.095022 0.152605 0.150876
v 0.144698 0.163502 0.173177
v 0.222325 0.163502 0.038724
v 0.045000 0.120000 -0.292381
v -0.077627 0.163503 -0.211901
v 0.077627 0.163503 -0.211901
v -0.045000 0.120000 -0.292381
v -0.178174 0.152605 0.006854
v -0.045000 0.000000 -0.025981
v -0.095022 0.152605 0.150876
v 0.083151 0.152605 -0.157730
v -0.083151 0.152605 -0.157730
v 0.230709 0.120000 0.185161
v 0.275709 0.120000 0.107219
vt 0.342605 0.502171
vt 0.527412 0.692884
vt 0.342605 0.739116
vt 0.527412 0.555528
vt 0.079273 0.497829
vt 0.338263 0.090384
vt 0.261161 0.497829
vt 0.002171 0.090384
vt 0.013335 0.002171
vt 0.327098 0.002171
vt 0.683039 0.229818
vt 0.809670 0.002171
vt 0.875395 0.229818
vt 0.822185 0.502171
vt 0.822185 0.767737
vt 0.726599 0.669097
vt 0.342605 0.090384
vt 0.601595 0.497829
vt 0.419707 0.497829
vt 0.678697 0.090384
vt 0.667532 0.002171
vt 0.353769 0.002171
vt 0.002171 0.590384
vt 0.261160 0.997829
vt 0.079273 0.997829
vt 0.338263 0.590384
vt 0.013336 0.502171
vt 0.327098 0.502171
vt 0.780485 0.234160
vt 0.780485 0.494656
vt 0.683039 0.397853
vt 0.531754 0.732033
vt 0.664754 0.502171
vt 0.722257 0.732033
vn -0.0808 0.9956 0.0466
vn -0.4118 0.8797 0.2378
vn -0.6555 0.6535 -0.3785
vn -0.4289 0.8688 -0.2476
vn 0.0808 0.9956 0.0466
vn 0.0000 0.8797 -0.4755
vn 0.0000 0.9956 -0.0933
vn 0.4289 0.8688 -0.2476
vn 0.6555 0.6535 -0.3785
vn 0.0000 0.8688 0.4952
vn 0.0000 0.6535 0.7569
vn 0.4118 0.8797 0.2378
s 1
f 1/1/1 2/2/2 3/3/1
f 2/2/2 1/1/1 4/4/2
f 5/5/3 6/6/4 7/7/3
f 6/6/4 5/5/3 8/8/4
f 6/6/4 9/9/5 10/10/5
f 9/9/5 6/6/4 8/8/4
f 11/11/6 12/12/7 13/13/7
f 12/14/7 11/15/6 14/16/6
f 15/17/8 5/18/9 16/19/9
f 5/18/9 15/17/8 17/20/8
f 15/17/8 3/21/1 17/20/8
f 3/21/1 15/17/8 1/22/1
f 18/23/10 16/24/11 7/25/11
f 16/24/11 18/23/10 19/26/10
f 13/27/7 19/26/10 18/23/10
f 19/26/10 13/27/7 12/28/7
f 10/29/5 20/30/12 21/31/12
f 20/32/12 10/33/5 9/34/5
