# Blender v2.92.0 OBJ File: 'OGConvert.blend'
# www.blender.org
o rocks
v -2.612395 -0.000000 1.521534
v -2.331942 0.488224 -0.340546
v -2.612395 0.000000 -0.502466
v -2.051488 0.976448 0.190158
v -2.051488 0.976448 1.197694
v 0.295154 2.140160 1.944990
v 0.313131 1.070080 2.424853
v 0.737695 2.140160 2.200491
v -0.859560 0.976448 -0.866786
v -0.663155 0.000000 -1.401070
v -0.859560 0.000000 -1.514466
v -0.507559 0.976448 -0.663558
v -0.859560 0.488224 2.209694
v -0.859560 -0.000000 2.533534
v -1.455524 0.976448 1.541774
v 2.013902 3.200000 -1.434816
v 2.523819 -0.000000 0.110784
v 2.523819 0.000000 -1.729217
v 2.013902 3.200000 -0.518875
v 2.268861 1.600000 -0.036416
v -0.263596 0.976448 1.541774
v -0.153238 3.200000 -1.434816
v -0.663155 0.000000 -1.729217
v -0.153238 3.200000 -0.183617
v -0.507559 0.976448 -0.337592
v -0.408197 1.600000 -0.036416
v 1.543723 2.140160 2.200491
v 0.183596 -0.000000 2.649217
v 1.802795 -0.000000 2.649217
v 1.818987 2.140160 1.723719
v 2.353323 1.070080 1.246948
v 1.818987 2.140160 0.770177
v 0.930333 1.600000 -2.354817
v 0.930333 0.000000 -2.649217
v 1.472118 3.200000 -1.747616
v 0.111782 0.976448 0.378527
v -0.107861 2.140160 1.246948
v 0.415806 2.140160 0.339932
v -0.389602 0.976448 1.246948
v -0.127285 -0.000000 2.110755
v -0.230437 0.976448 1.522630
v 0.930333 3.200000 0.441984
v 0.930333 2.140160 0.636994
v -0.097690 0.976448 0.257588
v 0.388547 3.200000 -1.747616
v 2.612395 -0.000000 1.246948
v 1.723562 3.200000 -0.015987
v -1.732111 0.976448 -0.363018
v 2.098278 -0.000000 0.356470
v 1.543723 2.140160 0.293405
v 1.525446 2.140160 0.293405
v 1.547669 2.107568 0.286572
vt 0.807675 0.179012
vt 0.866860 0.286607
vt 0.820142 0.312271
vt 0.911307 0.236662
vt 0.905101 0.170327
vt 0.814074 0.504520
vt 0.798179 0.609194
vt 0.769616 0.509720
vt 0.237212 0.842678
vt 0.331983 0.802882
vt 0.337574 0.813161
vt 0.227192 0.824255
vt 0.871721 0.026534
vt 0.825928 0.002661
vt 0.911307 0.110367
vt 0.508366 0.376206
vt 0.801155 0.233481
vt 0.802354 0.400912
vt 0.507770 0.292859
vt 0.654353 0.247917
vt 0.567278 0.699123
vt 0.486600 0.710354
vt 0.484597 0.628923
vt 0.200178 0.810037
vt 0.221871 0.516155
vt 0.221871 0.810567
vt 0.139157 0.514135
vt 0.157362 0.719154
vt 0.135813 0.718628
vt 0.119695 0.660865
vt 0.717919 0.509720
vt 0.807821 0.708669
vt 0.703970 0.708669
vt 0.595650 0.088188
vt 0.702170 0.130792
vt 0.596272 0.174955
vt 0.626564 0.459186
vt 0.768072 0.484992
vt 0.496711 0.404793
vt 0.811247 0.320097
vt 0.891610 0.424523
vt 0.807675 0.427139
vt 0.891610 0.317592
vt 0.441116 0.496285
vt 0.402845 0.542270
vt 0.399945 0.490126
vt 0.441116 0.599706
vt 0.439252 0.599427
vt 0.891159 0.599136
vt 0.883841 0.490313
vt 0.918713 0.593526
vt 0.861638 0.697710
vt 0.032219 0.490126
vt 0.053439 0.594979
vt 0.002661 0.583578
vt 0.071661 0.708967
vt 0.050988 0.704326
vt 0.252500 0.506326
vt 0.394624 0.796646
vt 0.227192 0.797561
vt 0.380489 0.651175
vt 0.309427 0.506015
vt 0.802354 0.130075
vt 0.783719 0.002661
vt 0.589314 0.044867
vt 0.851873 0.913238
vt 0.901174 0.801425
vt 0.901174 0.884774
vt 0.874754 0.755664
vt 0.802572 0.713990
vt 0.753271 0.913238
vt 0.703970 0.770918
vt 0.703970 0.884774
vt 0.548722 0.530071
vt 0.510702 0.615893
vt 0.527069 0.526123
vt 0.612207 0.512925
vt 0.483425 0.625642
vt 0.667792 0.496947
vt 0.631405 0.490313
vt 0.698649 0.583282
vt 0.628883 0.710354
vt 0.688223 0.640464
vt 0.287393 0.982629
vt 0.228120 0.984763
vt 0.237212 0.934361
vt 0.404432 0.484805
vt 0.431320 0.276171
vt 0.478104 0.357202
vt 0.325040 0.002661
vt 0.470043 0.086378
vt 0.470043 0.253814
vt 0.257089 0.484805
vt 0.180037 0.086378
vt 0.228799 0.435806
vt 0.180037 0.116239
vt 0.162164 0.474278
vt 0.162164 0.105920
vt 0.002661 0.382189
vt 0.002661 0.198010
vt 0.501087 0.247166
vt 0.483425 0.865966
vt 0.613580 0.891014
vt 0.526810 0.891014
vt 0.656965 0.865966
vt 0.483425 0.864302
vt 0.656965 0.792619
vt 0.514690 0.810149
vt 0.487658 0.763328
vt 0.633715 0.752349
vt 0.570195 0.715675
vt 0.394624 0.490126
vt 0.593526 0.219003
vt 0.791680 0.211222
vt 0.590157 0.218407
vt 0.576906 0.187278
vt 0.483425 0.205674
vt 0.590557 0.218402
vt 0.337574 0.997339
vt 0.476806 0.492824
vt 0.478104 0.490126
vt 0.478104 0.493497
vn -0.8671 0.4981 0.0000
vn -0.4674 0.3552 0.8096
vn 0.4336 0.4981 -0.7509
vn -0.4336 0.4981 0.7509
vn 0.9875 0.1574 0.0000
vn 0.0000 0.8073 0.5901
vn -0.9875 0.1574 -0.0000
vn -0.0000 0.2052 0.9787
vn 0.8947 0.4467 0.0000
vn 0.4938 0.1574 -0.8552
vn -0.8476 0.2052 -0.4894
vn 0.4336 0.4981 0.7509
vn -0.8476 0.2052 0.4894
vn -0.4938 0.1574 0.8552
vn -0.4938 0.1574 -0.8552
vn 0.8476 0.2052 0.4894
vn 0.0000 1.0000 0.0000
vn -0.8153 -0.1413 0.5615
vn -0.6000 0.7212 -0.3464
vn 0.0000 -1.0000 -0.0000
vn 0.8320 0.2774 0.4804
vn 0.0000 0.3548 -0.9349
vn 0.4938 0.1574 0.8552
vn 0.8476 0.2052 -0.4894
vn 0.8476 0.2052 -0.4893
vn -0.4336 0.4981 -0.7509
vn 0.0000 0.2052 -0.9787
s 1
f 1/1/1 2/2/1 3/3/1
f 2/2/1 1/1/1 4/4/1
f 4/4/1 1/1/1 5/5/1
f 6/6/2 7/7/2 8/8/2
f 9/9/3 10/10/3 11/11/3
f 10/10/3 9/9/3 12/12/3
f 13/13/4 1/1/4 14/14/4
f 1/1/4 13/13/4 5/5/4
f 5/5/4 13/13/4 15/15/4
f 16/16/5 17/17/5 18/18/5
f 17/17/5 16/16/5 19/19/5
f 17/17/5 19/19/5 20/20/5
f 15/21/6 13/22/6 21/23/6
f 10/24/7 22/25/7 23/26/7
f 22/25/7 10/24/7 24/27/7
f 24/27/7 10/24/7 12/28/7
f 24/27/7 12/28/7 25/29/7
f 24/27/7 25/29/7 26/30/7
f 27/31/8 28/32/8 29/33/8
f 28/32/8 27/31/8 7/7/8
f 7/7/8 27/31/8 8/8/8
f 30/34/9 31/35/9 32/36/9
f 33/37/10 18/18/10 34/38/10
f 18/18/10 33/37/10 16/16/10
f 16/16/10 33/37/10 35/39/10
f 36/40/11 37/41/11 38/42/11
f 37/41/11 36/40/11 39/43/11
f 40/44/12 13/45/12 14/46/12
f 13/45/12 40/44/12 41/47/12
f 13/45/12 41/47/12 21/48/12
f 41/49/13 37/50/13 39/51/13
f 37/50/13 41/49/13 6/6/13
f 6/6/13 41/49/13 40/52/13
f 6/6/13 40/52/13 7/7/13
f 7/7/13 40/52/13 28/32/13
f 42/53/14 38/54/14 43/55/14
f 24/27/14 38/54/14 42/53/14
f 26/30/14 38/54/14 24/27/14
f 44/56/14 38/54/14 26/30/14
f 38/54/14 44/56/14 36/57/14
f 22/58/15 34/59/15 23/60/15
f 34/59/15 22/58/15 33/61/15
f 33/61/15 22/58/15 45/62/15
f 30/34/16 46/63/16 31/35/16
f 46/63/16 30/34/16 29/64/16
f 29/64/16 30/34/16 27/65/16
f 35/66/17 19/67/17 16/68/17
f 19/67/17 35/66/17 47/69/17
f 47/69/17 35/66/17 42/70/17
f 42/70/17 35/66/17 45/71/17
f 42/70/17 45/71/17 24/72/17
f 24/72/17 45/71/17 22/73/17
f 44/74/17 39/75/17 36/76/17
f 39/75/17 44/74/17 25/77/17
f 15/21/17 39/75/17 25/77/17
f 21/23/17 39/75/17 15/21/17
f 39/75/17 21/23/17 41/78/17
f 15/21/17 25/77/17 9/79/17
f 9/79/17 25/77/17 12/80/17
f 15/21/17 9/79/17 48/81/17
f 15/21/17 48/81/17 5/82/17
f 5/82/17 48/81/17 4/83/17
f 44/56/18 26/30/18 25/29/18
f 2/84/19 4/85/19 48/86/19
f 29/87/20 49/88/20 46/89/20
f 34/90/20 49/88/20 29/87/20
f 18/91/20 49/88/20 34/90/20
f 49/88/20 18/91/20 17/92/20
f 34/90/20 29/87/20 28/93/20
f 34/90/20 28/93/20 23/94/20
f 23/94/20 28/93/20 40/95/20
f 23/94/20 40/95/20 10/96/20
f 14/97/20 10/96/20 40/95/20
f 10/96/20 14/97/20 11/98/20
f 11/98/20 14/97/20 1/99/20
f 11/98/20 1/99/20 3/100/20
f 47/101/21 20/20/21 19/19/21
f 50/102/17 30/103/17 32/104/17
f 30/103/17 50/102/17 27/105/17
f 27/105/17 50/102/17 51/106/17
f 27/105/17 51/106/17 8/107/17
f 8/107/17 51/106/17 43/108/17
f 8/107/17 43/108/17 38/109/17
f 8/107/17 38/109/17 6/110/17
f 6/110/17 38/109/17 37/111/17
f 35/112/22 33/61/22 45/62/22
f 17/17/23 52/113/23 49/114/23
f 52/113/23 17/17/23 20/20/23
f 52/113/23 20/20/23 47/101/23
f 52/113/23 47/101/23 51/115/23
f 51/115/23 47/101/23 43/116/23
f 43/116/23 47/101/23 42/117/23
f 50/118/24 49/114/24 52/113/25
f 49/114/24 50/118/24 32/36/24
f 49/114/24 32/36/24 46/63/24
f 46/63/24 32/36/24 31/35/24
f 2/84/26 11/11/26 3/119/26
f 11/11/26 2/84/26 9/9/26
f 9/9/26 2/84/26 48/86/26
f 50/120/27 52/121/27 51/122/27
