# Blender v2.92.0 OBJ File: 'kenney_OGConvert.blend'
# www.blender.org
o spikes
v 0.323050 0.100000 -0.206500
v 0.323050 0.100000 -0.318500
v 0.266250 0.250000 -0.262500
v -0.088750 0.250000 -0.262500
v -0.145550 0.100000 -0.206500
v -0.031950 0.100000 -0.206500
v 0.209450 0.100000 -0.206500
v 0.323050 0.100000 0.143500
v 0.323050 0.100000 0.031500
v 0.266250 0.250000 0.087500
v 0.031950 0.100000 0.143500
v 0.088750 0.250000 0.087500
v 0.031950 0.100000 0.031500
v -0.145550 0.100000 -0.318500
v -0.355000 0.100000 -0.350000
v 0.405000 0.050000 -0.400000
v -0.405000 0.050000 -0.400000
v 0.355000 0.100000 -0.350000
v 0.405000 0.050000 0.400000
v 0.405000 0.000000 -0.400000
v 0.405000 -0.000000 0.400000
v -0.145550 0.100000 0.143500
v -0.088750 0.250000 0.087500
v -0.145550 0.100000 0.031500
v -0.323050 0.100000 -0.206500
v -0.266250 0.250000 -0.262500
v -0.323050 0.100000 -0.318500
v -0.355000 0.100000 0.350000
v -0.405000 0.050000 0.400000
v 0.355000 0.100000 0.350000
v 0.145550 0.100000 0.143500
v 0.145550 0.100000 0.031500
v -0.209450 0.100000 -0.031500
v -0.209450 0.100000 -0.143500
v -0.266250 0.250000 -0.087500
v 0.209450 0.100000 0.143500
v 0.209450 0.100000 0.031500
v -0.209450 0.100000 -0.318500
v -0.266250 0.250000 0.087500
v -0.323050 0.100000 0.143500
v -0.209450 0.100000 0.143500
v -0.031950 0.100000 0.031500
v 0.088750 0.250000 -0.262500
v 0.031950 0.100000 -0.206500
v 0.145550 0.100000 -0.206500
v -0.031950 0.100000 -0.318500
v -0.145550 0.100000 0.318500
v -0.088750 0.250000 0.262500
v -0.145550 0.100000 0.206500
v 0.088750 0.250000 0.262500
v 0.145550 0.100000 0.206500
v 0.031950 0.100000 0.206500
v -0.209450 0.100000 -0.206500
v -0.323050 0.100000 -0.143500
v 0.145550 0.100000 0.318500
v 0.209450 0.100000 -0.031500
v 0.266250 0.250000 -0.087500
v 0.209450 0.100000 -0.143500
v -0.405000 0.000000 -0.400000
v -0.031950 0.100000 0.143500
v 0.323050 0.100000 -0.031500
v -0.323050 0.100000 -0.031500
v 0.088750 0.250000 -0.087500
v 0.145550 0.100000 -0.143500
v 0.031950 0.100000 -0.143500
v 0.209450 0.100000 -0.318500
v -0.405000 -0.000000 0.400000
v -0.031950 0.100000 0.206500
v -0.266250 0.250000 0.262500
v -0.323050 0.100000 0.318500
v -0.209450 0.100000 0.318500
v -0.209450 0.100000 0.031500
v -0.323050 0.100000 0.031500
v 0.209450 0.100000 0.318500
v 0.266250 0.250000 0.262500
v 0.209450 0.100000 0.206500
v -0.088750 0.250000 -0.087500
v -0.031950 0.100000 -0.143500
v -0.145550 0.100000 -0.143500
v 0.323050 0.100000 -0.143500
v -0.209450 0.100000 0.206500
v -0.323050 0.100000 0.206500
v 0.323050 0.100000 0.206500
v 0.145550 0.100000 -0.318500
v 0.031950 0.100000 -0.318500
v 0.031950 0.100000 -0.031500
v 0.031950 0.100000 0.318500
v -0.031950 0.100000 0.318500
v 0.323050 0.100000 0.318500
v 0.145550 0.100000 -0.031500
v -0.145550 0.100000 -0.031500
v -0.031950 0.100000 -0.031500
vt 0.405980 0.892631
vt 0.348986 0.892631
vt 0.377483 0.811075
vt 0.724516 0.378554
vt 0.753420 0.459968
vt 0.695612 0.459968
vt 0.258174 0.613731
vt 0.203698 0.546679
vt 0.258174 0.527339
vt 0.481346 0.976859
vt 0.424352 0.976859
vt 0.452849 0.895303
vt 0.902737 0.553171
vt 0.931234 0.471615
vt 0.959730 0.553171
vt 0.857374 0.087308
vt 0.885871 0.005753
vt 0.914367 0.087308
vt 0.480645 0.403998
vt 0.448519 0.790737
vt 0.448519 0.378554
vt 0.480645 0.765294
vt 0.584081 0.785648
vt 0.559948 0.378554
vt 0.584081 0.378554
vt 0.559948 0.785648
vt 0.925873 0.087308
vt 0.954370 0.005753
vt 0.982866 0.087308
vt 0.857374 0.185204
vt 0.885871 0.103649
vt 0.914367 0.185204
vt 0.659974 0.378554
vt 0.627780 0.760205
vt 0.627780 0.403998
vt 0.659974 0.785648
vt 0.548443 0.403998
vt 0.516317 0.790737
vt 0.516317 0.378554
vt 0.548443 0.765294
vt 0.884037 0.836622
vt 0.830234 0.817823
vt 0.884037 0.750232
vt 0.792065 0.024552
vt 0.845869 0.005753
vt 0.845869 0.092143
vt 0.902737 0.460110
vt 0.931234 0.378554
vt 0.959730 0.460110
vt 0.324156 0.527339
vt 0.324156 0.613731
vt 0.269680 0.594391
vt 0.060229 0.625237
vt 0.060229 0.711629
vt 0.005753 0.692289
vt 0.169951 0.625237
vt 0.198855 0.706650
vt 0.141048 0.706650
vt 0.126211 0.429441
vt 0.126211 0.515833
vt 0.071735 0.496493
vt 0.724516 0.471474
vt 0.753420 0.552887
vt 0.695612 0.552887
vt 0.100638 0.718156
vt 0.129542 0.799570
vt 0.071735 0.799570
vt 0.833424 0.929683
vt 0.861921 0.848128
vt 0.890417 0.929683
vt 0.724516 0.564393
vt 0.753420 0.645807
vt 0.695612 0.645807
vt 0.192192 0.527339
vt 0.192192 0.613731
vt 0.137716 0.594391
vt 0.324156 0.515833
vt 0.269680 0.448781
vt 0.324156 0.429441
vt 0.914367 0.283100
vt 0.857374 0.283100
vt 0.885871 0.201545
vt 0.792065 0.171240
vt 0.845869 0.103649
vt 0.845869 0.190039
vt 0.616275 0.403998
vt 0.616275 0.760205
vt 0.424352 0.790737
vt 0.424352 0.378554
vt 0.169951 0.718156
vt 0.198855 0.799570
vt 0.141048 0.799570
vt 0.100638 0.625237
vt 0.129542 0.706651
vt 0.071735 0.706650
vt 0.239264 0.718156
vt 0.268168 0.799570
vt 0.210360 0.799570
vt 0.308577 0.718156
vt 0.337481 0.799570
vt 0.279673 0.799570
vt 0.390138 0.613731
vt 0.335661 0.546679
vt 0.390138 0.527339
vt 0.959730 0.646231
vt 0.902737 0.646231
vt 0.931234 0.564676
vt 0.891231 0.553170
vt 0.834238 0.553170
vt 0.862735 0.471615
vt 0.492150 0.790737
vt 0.492150 0.378554
vt 0.724516 0.750232
vt 0.753420 0.831645
vt 0.695612 0.831645
vt 0.192192 0.515833
vt 0.137716 0.448781
vt 0.192192 0.429441
vt 0.239264 0.625237
vt 0.268168 0.706650
vt 0.210361 0.706650
vt 0.834238 0.646231
vt 0.862735 0.564676
vt 0.891231 0.646231
vt 0.377890 0.718156
vt 0.406794 0.799570
vt 0.348986 0.799570
vt 0.793829 0.378554
vt 0.822733 0.459968
vt 0.764925 0.459968
vt 0.005753 0.005753
vt 0.412847 0.417935
vt 0.005753 0.417935
vt 0.412847 0.005753
vt 0.390138 0.429441
vt 0.390138 0.515833
vt 0.335661 0.496493
vt 0.060229 0.613731
vt 0.005753 0.546679
vt 0.060229 0.527339
vt 0.126211 0.527339
vt 0.126211 0.613731
vt 0.071735 0.594391
vt 0.895543 0.831787
vt 0.924040 0.750232
vt 0.952536 0.831787
vt 0.780560 0.005753
vt 0.764530 0.022011
vt 0.424352 0.005753
vt 0.780560 0.367049
vt 0.764530 0.079818
vt 0.764530 0.112335
vt 0.707537 0.079818
vt 0.675478 0.079818
vt 0.618485 0.079818
vt 0.586427 0.079818
vt 0.529433 0.079818
vt 0.497375 0.079818
vt 0.440382 0.079818
vt 0.764530 0.170142
vt 0.764530 0.202659
vt 0.707537 0.170142
vt 0.675478 0.170142
vt 0.618485 0.170142
vt 0.586427 0.170142
vt 0.529433 0.170142
vt 0.497375 0.170142
vt 0.440382 0.170142
vt 0.440382 0.202659
vt 0.424352 0.367049
vt 0.440382 0.022011
vt 0.792065 0.299441
vt 0.792065 0.299441
vt 0.792065 0.299441
vt 0.971236 0.714209
vt 0.971236 0.981364
vt 0.971236 0.949305
vt 0.971236 0.892312
vt 0.792065 0.310947
vt 0.792065 0.310947
vt 0.792065 0.310947
vt 0.925873 0.196710
vt 0.925873 0.342755
vt 0.925873 0.285762
vt 0.792065 0.322453
vt 0.792065 0.322453
vt 0.792065 0.322453
vt 0.440382 0.112335
vt 0.982741 0.378554
vt 0.982741 0.702703
vt 0.982741 0.645710
vt 0.792065 0.333958
vt 0.792065 0.333958
vt 0.792065 0.333958
vt 0.982741 0.714209
vt 0.982741 0.949305
vt 0.982741 0.892312
vt 0.792065 0.367049
vt 0.792065 0.367049
vt 0.792065 0.367049
vt 0.792065 0.367049
vt 0.792065 0.367049
vt 0.497375 0.112335
vt 0.529433 0.112335
vt 0.586427 0.112335
vt 0.618485 0.112335
vt 0.675478 0.112335
vt 0.707537 0.112335
vt 0.497375 0.022011
vt 0.529433 0.022011
vt 0.764530 0.260466
vt 0.764530 0.292983
vt 0.707537 0.260466
vt 0.675478 0.260466
vt 0.618485 0.260466
vt 0.586427 0.260466
vt 0.529433 0.260466
vt 0.497375 0.260466
vt 0.440382 0.260466
vt 0.764530 0.350790
vt 0.707537 0.350790
vt 0.675478 0.350790
vt 0.618485 0.350790
vt 0.586427 0.350790
vt 0.529433 0.350790
vt 0.497375 0.350790
vt 0.440382 0.350790
vt 0.440382 0.292983
vt 0.994247 0.378554
vt 0.994247 0.702703
vt 0.994247 0.645710
vt 0.994247 0.613651
vt 0.675478 0.292983
vt 0.707537 0.292983
vt 0.792065 0.345464
vt 0.792065 0.345464
vt 0.792065 0.345464
vt 0.401643 0.429441
vt 0.401643 0.607545
vt 0.401643 0.575486
vt 0.586427 0.292983
vt 0.618485 0.292983
vt 0.492851 0.802243
vt 0.492851 0.802243
vt 0.492851 0.802243
vt 0.492851 0.802243
vt 0.497375 0.292983
vt 0.529433 0.292983
vt 0.971236 0.378554
vt 0.971236 0.702703
vt 0.971236 0.645710
vt 0.971236 0.613651
vt 0.504357 0.802243
vt 0.504357 0.802243
vt 0.504357 0.802243
vt 0.504357 0.802243
vt 0.504357 0.802243
vt 0.504357 0.802243
vt 0.497375 0.202659
vt 0.529433 0.202659
vt 0.586427 0.202659
vt 0.618485 0.202659
vt 0.675478 0.202659
vt 0.707537 0.202659
vt 0.586427 0.022011
vt 0.618485 0.022011
vt 0.675478 0.022011
vt 0.707537 0.022011
vt 0.060229 0.429441
vt 0.060229 0.515833
vt 0.005753 0.496493
vt 0.613752 0.883544
vt 0.559948 0.864745
vt 0.613752 0.797154
vt 0.071735 0.892631
vt 0.100231 0.811075
vt 0.128728 0.892631
vt 0.481346 0.883798
vt 0.424352 0.883798
vt 0.452849 0.802243
vt 0.141048 0.892631
vt 0.169544 0.811075
vt 0.198041 0.892631
vt 0.891231 0.460110
vt 0.834238 0.460110
vt 0.862735 0.378554
vt 0.752605 0.924706
vt 0.695612 0.924706
vt 0.724109 0.843151
vt 0.684107 0.785648
vt 0.684107 0.378554
vt 0.681584 0.883544
vt 0.627780 0.864745
vt 0.681584 0.797154
vt 0.818728 0.836622
vt 0.764925 0.817823
vt 0.818728 0.750232
vt 0.616941 0.976605
vt 0.559948 0.976605
vt 0.588445 0.895050
vt 0.845869 0.201545
vt 0.845869 0.287936
vt 0.792065 0.220345
vt 0.724516 0.657312
vt 0.753420 0.738726
vt 0.695612 0.738726
vt 0.958916 0.929683
vt 0.901923 0.929683
vt 0.930419 0.848128
vt 0.925873 0.180369
vt 0.954370 0.098814
vt 0.982866 0.180369
vt 0.308577 0.625237
vt 0.337481 0.706651
vt 0.279673 0.706650
vt 0.377890 0.625237
vt 0.406794 0.706650
vt 0.348986 0.706650
vt 0.793829 0.471474
vt 0.822733 0.552887
vt 0.764925 0.552887
vt 0.059556 0.723135
vt 0.059556 0.809525
vt 0.005753 0.741934
vt 0.793829 0.564393
vt 0.822733 0.645807
vt 0.764925 0.645807
vt 0.258174 0.429441
vt 0.258174 0.515833
vt 0.203698 0.496493
vt 0.267354 0.892631
vt 0.210360 0.892631
vt 0.238857 0.811075
vt 0.764925 0.929683
vt 0.793422 0.848128
vt 0.821918 0.929683
vt 0.793829 0.657312
vt 0.822733 0.738726
vt 0.764925 0.738726
vt 0.279673 0.892631
vt 0.308170 0.811075
vt 0.336667 0.892631
vn 0.9352 0.3541 -0.0000
vn 0.0000 0.3498 0.9368
vn -0.9352 0.3541 0.0000
vn -0.0000 0.7071 -0.7071
vn 1.0000 0.0000 -0.0000
vn -0.7071 0.7071 0.0000
vn 0.0000 0.7071 0.7071
vn -0.0000 0.3498 -0.9368
vn 0.7071 0.7071 -0.0000
vn -0.0000 0.0000 -1.0000
vn 0.0000 0.0000 1.0000
vn -0.0000 -1.0000 -0.0000
vn 0.0000 1.0000 0.0000
vn -0.1865 -0.9825 0.0000
vn -0.0515 0.9987 -0.0000
vn -0.0280 0.9996 -0.0000
vn 0.0479 0.0243 -0.9986
vn 0.0419 -0.9991 -0.0073
vn 0.0406 0.4880 -0.8719
vn 0.0001 1.0000 -0.0000
vn -0.2392 0.9710 0.0000
vn -0.4911 0.8711 -0.0000
vn 0.1662 0.9857 -0.0279
vn 0.0274 0.3307 -0.9433
vn -0.4000 0.2000 -0.8944
vn 0.1842 0.0925 -0.9785
vn 0.1499 0.9884 -0.0251
vn 0.0628 0.9980 0.0000
vn 0.1252 0.9919 -0.0210
vn 0.0336 0.9994 0.0000
vn -0.0203 -0.2415 -0.9702
vn 0.8134 0.5590 -0.1608
vn 0.2148 0.9767 -0.0000
vn -0.5148 -0.8573 -0.0000
vn 0.0505 0.3055 -0.9509
vn -0.2036 -0.2864 -0.9362
vn -0.4656 -0.7500 0.4699
vn -1.0000 0.0000 0.0000
s 1
f 1/1/1 2/2/1 3/3/1
f 4/4/2 5/5/2 6/6/2
f 3/7/2 7/8/2 1/9/2
f 8/10/1 9/11/1 10/12/1
f 11/13/3 12/14/3 13/15/3
f 5/16/3 4/17/3 14/18/3
f 15/19/4 16/20/4 17/21/4
f 16/20/4 15/19/4 18/22/4
f 19/23/5 20/24/5 16/25/5
f 20/24/5 19/23/5 21/26/5
f 22/27/3 23/28/3 24/29/3
f 25/30/3 26/31/3 27/32/3
f 17/33/6 28/34/6 15/35/6
f 28/34/6 17/33/6 29/36/6
f 30/37/7 29/38/7 19/39/7
f 29/38/7 30/37/7 28/40/7
f 31/41/1 32/42/1 12/43/1
f 33/44/1 34/45/1 35/46/1
f 36/47/3 10/48/3 37/49/3
f 26/50/8 38/51/8 27/52/8
f 39/53/2 40/54/2 41/55/2
f 23/56/8 42/57/8 24/58/8
f 43/59/2 44/60/2 45/61/2
f 12/62/8 32/63/8 13/64/8
f 4/65/8 46/66/8 14/67/8
f 47/68/3 48/69/3 49/70/3
f 50/71/8 51/72/8 52/73/8
f 26/74/2 25/75/2 53/76/2
f 35/77/8 34/78/8 54/79/8
f 55/80/1 51/81/1 50/82/1
f 56/83/3 57/84/3 58/85/3
f 18/86/9 19/23/9 16/25/9
f 19/23/9 18/86/9 30/87/9
f 17/21/10 20/88/10 59/89/10
f 20/88/10 17/21/10 16/20/10
f 23/90/2 22/91/2 60/92/2
f 57/93/2 56/94/2 61/95/2
f 35/96/2 62/97/2 33/98/2
f 63/99/8 64/100/8 65/101/8
f 3/102/8 2/103/8 66/104/8
f 60/105/1 42/106/1 23/107/1
f 6/108/1 46/109/1 4/110/1
f 19/39/11 67/111/11 21/112/11
f 67/111/11 19/39/11 29/38/11
f 48/113/8 68/114/8 49/115/8
f 69/116/2 70/117/2 71/118/2
f 39/119/8 72/120/8 73/121/8
f 74/122/3 75/123/3 76/124/3
f 10/125/8 9/126/8 37/127/8
f 77/128/8 78/129/8 79/130/8
f 67/131/12 20/132/12 21/133/12
f 20/132/12 67/131/12 59/134/12
f 57/135/8 80/136/8 58/137/8
f 69/138/8 81/139/8 82/140/8
f 75/141/8 83/142/8 76/143/8
f 70/144/3 69/145/3 82/146/3
f 18/147/13 2/148/13 30/149/13
f 2/148/13 18/147/13 15/150/13
f 2/148/13 15/150/13 66/151/13
f 66/151/13 15/150/13 84/152/13
f 66/151/13 84/152/13 7/153/13
f 7/153/13 84/152/13 58/154/13
f 58/154/13 84/152/13 56/155/13
f 56/155/13 84/152/13 37/156/13
f 37/156/13 84/152/13 36/157/13
f 36/157/13 84/152/13 76/158/13
f 76/158/13 84/152/13 74/159/13
f 84/152/13 15/150/13 85/160/13
f 85/160/13 15/150/13 46/161/13
f 85/160/13 46/161/13 44/162/13
f 44/162/13 46/161/13 65/163/13
f 65/163/13 46/161/13 86/164/13
f 86/164/13 46/161/13 13/165/13
f 13/165/13 46/161/13 11/166/13
f 11/166/13 46/161/13 52/167/13
f 52/167/13 46/161/13 87/168/13
f 88/169/13 87/168/13 46/161/13
f 28/170/13 87/168/13 88/169/13
f 28/170/13 89/171/13 74/159/13
f 30/149/13 89/171/13 28/170/13
f 89/171/13 30/149/13 2/148/13
f 89/172/13 2/173/13 1/174/14
f 89/175/13 1/176/14 80/177/15
f 89/175/13 80/177/15 61/178/16
f 89/179/13 61/180/16 9/181/17
f 89/182/13 9/183/17 8/184/18
f 89/185/13 8/186/18 83/187/19
f 28/170/13 55/188/20 87/168/13
f 28/170/13 74/159/13 55/188/20
f 55/188/20 74/159/13 84/152/13
f 55/189/20 84/190/13 45/191/21
f 55/192/20 45/193/21 64/194/22
f 55/195/20 64/196/22 90/197/23
f 55/198/20 90/199/23 32/200/24
f 55/198/20 32/200/24 31/201/25
f 55/198/20 31/201/25 51/202/26
f 11/166/13 51/203/26 31/204/25
f 51/203/26 11/166/13 52/167/13
f 86/164/13 32/205/24 90/206/23
f 32/205/24 86/164/13 13/165/13
f 44/162/13 64/207/22 45/208/21
f 64/207/22 44/162/13 65/163/13
f 36/157/13 83/209/19 8/210/18
f 83/209/19 36/157/13 76/158/13
f 46/161/13 15/150/13 14/211/13
f 14/211/13 15/150/13 38/212/13
f 14/211/13 38/212/13 5/213/13
f 5/213/13 38/212/13 79/214/13
f 79/214/13 38/212/13 91/215/13
f 91/215/13 38/212/13 24/216/13
f 24/216/13 38/212/13 22/217/13
f 22/217/13 38/212/13 49/218/13
f 49/218/13 38/212/13 47/219/13
f 38/212/13 15/150/13 27/220/13
f 27/220/13 15/150/13 25/221/13
f 25/221/13 15/150/13 54/222/13
f 54/222/13 15/150/13 62/223/13
f 62/223/13 15/150/13 73/224/13
f 73/224/13 15/150/13 40/225/13
f 40/225/13 15/150/13 82/226/13
f 82/226/13 15/150/13 70/227/13
f 28/170/13 70/227/13 15/150/13
f 28/170/13 88/169/13 47/219/13
f 28/170/13 47/219/13 71/228/13
f 28/170/13 71/228/13 70/227/13
f 71/228/13 47/219/13 38/212/13
f 71/229/13 38/230/13 53/231/27
f 71/229/13 53/231/27 34/232/28
f 25/221/13 34/233/28 53/234/27
f 34/233/28 25/221/13 54/222/13
f 71/235/13 34/236/28 33/237/29
f 71/238/13 33/239/29 72/240/30
f 62/223/13 72/241/30 33/242/29
f 72/241/30 62/223/13 73/224/13
f 71/243/13 72/244/30 41/245/31
f 71/243/13 41/245/31 81/246/19
f 40/225/13 81/247/19 41/248/31
f 81/247/19 40/225/13 82/226/13
f 88/249/13 46/250/13 6/251/32
f 88/249/13 6/251/32 78/252/33
f 88/253/13 78/254/33 92/255/34
f 88/253/13 92/255/34 42/256/35
f 88/253/13 42/256/35 60/257/36
f 88/253/13 60/257/36 68/258/37
f 22/217/13 68/259/37 60/260/36
f 68/259/37 22/217/13 49/218/13
f 91/215/13 42/261/35 92/262/34
f 42/261/35 91/215/13 24/216/13
f 5/213/13 78/263/33 6/264/32
f 78/263/33 5/213/13 79/214/13
f 56/155/13 9/265/17 61/266/16
f 9/265/17 56/155/13 37/156/13
f 7/153/13 80/267/15 1/268/14
f 80/267/15 7/153/13 58/154/13
f 10/269/2 36/270/2 8/271/2
f 61/272/1 80/273/1 57/274/1
f 44/275/3 43/276/3 85/277/3
f 88/278/1 68/279/1 48/280/1
f 87/281/3 50/282/3 52/283/3
f 71/284/1 81/285/1 69/286/1
f 53/287/1 38/288/1 26/289/1
f 67/290/38 17/33/38 59/291/38
f 17/33/38 67/290/38 29/36/38
f 90/292/1 64/293/1 63/294/1
f 92/295/1 78/296/1 77/297/1
f 41/298/1 72/299/1 39/300/1
f 91/301/3 77/302/3 79/303/3
f 48/304/2 47/305/2 88/306/2
f 89/307/1 83/308/1 75/309/1
f 40/310/3 39/311/3 73/312/3
f 50/313/2 87/314/2 55/315/2
f 77/316/2 91/317/2 92/318/2
f 12/319/2 11/320/2 31/321/2
f 86/322/3 63/323/3 65/324/3
f 43/325/8 84/326/8 85/327/8
f 75/328/2 74/329/2 89/330/2
f 45/331/1 84/332/1 43/333/1
f 62/334/3 35/335/3 54/336/3
f 63/337/2 86/338/2 90/339/2
f 7/340/3 3/341/3 66/342/3
