# Blender v2.92.0 OBJ File: 'quaternius_OGConvert.blend'
# www.blender.org
o Cylinder
v 0.000000 -1.000000 -0.093317
v 0.000000 1.000000 -0.071853
v 0.042426 -1.000000 -0.075743
v 0.050808 1.000000 -0.050808
v 0.060000 -1.000000 -0.033317
v 0.071853 1.000000 0.000000
v 0.042426 -1.000000 0.009110
v 0.050808 1.000000 0.050808
v -0.000000 -1.000000 0.026683
v -0.000000 1.000000 0.071853
v -0.042426 -1.000000 0.009110
v -0.050808 1.000000 0.050808
v -0.060000 -1.000000 -0.033317
v -0.071853 1.000000 -0.000000
v -0.042426 -1.000000 -0.075743
v -0.050808 1.000000 -0.050808
v 0.000000 -0.810409 -0.060000
v 0.042426 -0.810409 -0.042426
v 0.060000 -0.810409 0.000000
v 0.042426 -0.810409 0.042426
v -0.000000 -0.810409 0.060000
v -0.042426 -0.810409 0.042426
v -0.060000 -0.810409 -0.000000
v -0.042426 -0.810409 -0.042426
v 0.000000 -0.454924 -0.045185
v 0.042426 -0.454924 -0.027611
v 0.060000 -0.454924 0.014815
v 0.042426 -0.454924 0.057242
v -0.000000 -0.454924 0.074815
v -0.042426 -0.454924 0.057242
v -0.060000 -0.454924 0.014815
v -0.042426 -0.454924 -0.027611
v -0.000000 -0.024245 -0.070245
v 0.038709 -0.024245 -0.054211
v 0.054743 -0.024245 -0.015502
v 0.038709 -0.024245 0.023207
v -0.000000 -0.024245 0.039241
v -0.038709 -0.024245 0.023207
v -0.054743 -0.024245 -0.015502
v -0.038709 -0.024245 -0.054211
v 0.000000 0.522639 -0.052407
v 0.042426 0.522639 -0.034833
v 0.060000 0.522639 0.007593
v 0.042426 0.522639 0.050020
v -0.000000 0.522639 0.067593
v -0.042426 0.522639 0.050020
v -0.060000 0.522639 0.007593
v -0.042426 0.522639 -0.034833
v 0.050807 1.049221 -0.174956
v -0.000000 1.040962 -0.194313
v 0.071853 1.069159 -0.128224
v 0.050807 1.089098 -0.081492
v -0.000000 1.097356 -0.062135
v -0.050808 1.089098 -0.081492
v -0.071853 1.069159 -0.128224
v -0.050808 1.049221 -0.174956
v 0.050808 1.330146 -0.320263
v 0.000000 1.335824 -0.340528
v 0.071853 1.316437 -0.271340
v 0.050808 1.302729 -0.222417
v 0.000000 1.297050 -0.202152
v -0.050807 1.302729 -0.222417
v -0.071853 1.316437 -0.271340
v -0.050807 1.330146 -0.320263
v 0.049286 1.635850 -0.102458
v -0.000000 1.655105 -0.109241
v 0.069701 1.589364 -0.086083
v 0.049286 1.542878 -0.069708
v -0.000000 1.523623 -0.062925
v -0.049286 1.542878 -0.069708
v -0.069701 1.589364 -0.086083
v -0.049286 1.635850 -0.102458
v 0.049286 1.532833 0.288976
v -0.000000 1.547986 0.302657
v 0.069701 1.496251 0.255949
v 0.049286 1.459669 0.222921
v -0.000000 1.444517 0.209240
v -0.049286 1.459669 0.222921
v -0.069701 1.496251 0.255949
v -0.049286 1.532833 0.288976
v 0.040637 1.164755 0.294939
v -0.000000 1.154101 0.307970
v 0.057470 1.190476 0.263478
v 0.040637 1.216197 0.232017
v -0.000000 1.226851 0.218985
v -0.040637 1.216197 0.232017
v -0.057470 1.190476 0.263478
v -0.040637 1.164755 0.294939
v 0.019419 1.195952 0.037856
v -0.000000 1.188194 0.035730
v 0.027463 1.214681 0.042989
v 0.019419 1.233410 0.048121
v -0.000000 1.241168 0.050247
v -0.019419 1.233410 0.048121
v -0.027463 1.214681 0.042989
v -0.019419 1.195952 0.037856
v 0.071853 1.042492 -0.031241
v 0.050808 1.052461 0.017529
v -0.050808 1.052461 0.017529
v -0.071853 1.042492 -0.031241
v -0.000000 1.056591 0.037730
v -0.050808 1.032523 -0.080011
v 0.050808 1.032523 -0.080011
v -0.000000 1.028394 -0.100212
v 0.002704 -1.028019 -0.063458
v 0.029760 -1.028019 -0.052251
v 0.040967 -1.028019 -0.025195
v 0.029760 -1.028019 0.001861
v 0.002704 -1.028019 0.013068
v -0.024352 -1.028019 0.001861
v -0.035559 -1.028019 -0.025195
v -0.024352 -1.028019 -0.052251
vt 0.505909 0.193240
vt 0.523737 0.014411
vt 0.518804 0.193340
vt 0.099820 0.417988
vt 0.117124 0.239909
vt 0.116997 0.418182
vt 0.132560 0.239211
vt 0.129886 0.417599
vt 0.476657 0.583237
vt 0.458448 0.762095
vt 0.459448 0.583198
vt 0.447167 0.583145
vt 0.350693 0.752223
vt 0.330151 0.575729
vt 0.347329 0.575468
vt 0.106176 0.224157
vt 0.085936 0.206488
vt 0.120918 0.219739
vt 0.487724 0.014300
vt 0.488732 0.193247
vt 0.330121 0.752536
vt 0.317327 0.577596
vt 0.618305 0.425007
vt 0.636315 0.424365
vt 0.628499 0.432041
vt 0.302532 0.011675
vt 0.303127 0.083067
vt 0.289709 0.013541
vt 0.493664 0.763724
vt 0.506789 0.692770
vt 0.510841 0.763716
vt 0.319711 0.011414
vt 0.315950 0.081200
vt 0.466469 0.012560
vt 0.449357 0.083572
vt 0.454188 0.012506
vt 0.478846 0.083664
vt 0.483678 0.012599
vt 0.110475 0.916880
vt 0.111015 0.987371
vt 0.098125 0.987954
vt 0.093298 0.916686
vt 0.080948 0.987760
vt 0.523737 0.763816
vt 0.311436 0.214623
vt 0.489612 0.692778
vt 0.504996 0.559599
vt 0.333128 0.080939
vt 0.324259 0.212756
vt 0.461638 0.083625
vt 0.446979 0.216799
vt 0.476469 0.216891
vt 0.116747 0.783833
vt 0.123365 0.916297
vt 0.099570 0.783639
vt 0.519684 0.692870
vt 0.317912 0.373590
vt 0.492391 0.398134
vt 0.487819 0.559607
vt 0.333585 0.373351
vt 0.341438 0.212495
vt 0.463885 0.378237
vt 0.459260 0.216852
vt 0.118361 0.622216
vt 0.129636 0.783250
vt 0.106600 0.622749
vt 0.519829 0.398219
vt 0.517891 0.559699
vt 0.306212 0.375293
vt 0.508064 0.398127
vt 0.452680 0.378188
vt 0.479586 0.378272
vt 0.090928 0.622571
vt 0.271294 0.776151
vt 0.236916 0.876776
vt 0.222344 0.884052
vt 0.319442 0.769089
vt 0.304685 0.788607
vt 0.285381 0.781418
vt 0.579138 0.394894
vt 0.598785 0.361875
vt 0.598579 0.401550
vt 0.615672 0.593662
vt 0.623559 0.613692
vt 0.615672 0.629786
vt 0.086299 0.227644
vt 0.071887 0.214626
vt 0.616769 0.393964
vt 0.616769 0.354901
vt 0.596631 0.600888
vt 0.596631 0.636453
vt 0.577590 0.629786
vt 0.577590 0.593662
vt 0.312960 0.956787
vt 0.305042 0.973517
vt 0.270115 0.871128
vt 0.256703 0.871423
vt 0.036615 0.127220
vt 0.565211 0.002023
vt 0.527782 0.109392
vt 0.549462 0.004412
vt 0.563765 0.110858
vt 0.543224 0.112220
vt 0.555111 0.408926
vt 0.548391 0.331387
vt 0.575093 0.403895
vt 0.052704 0.221833
vt 0.021886 0.122782
vt 0.577590 0.417037
vt 0.596878 0.572171
vt 0.577590 0.568415
vt 0.527782 0.331232
vt 0.559679 0.244894
vt 0.002023 0.117412
vt 0.088052 0.019789
vt 0.302184 0.992112
vt 0.562938 0.327879
vt 0.575093 0.236181
vt 0.091231 0.036651
vt 0.550539 0.224223
vt 0.585445 0.225646
vt 0.566893 0.232135
vt 0.425172 0.930384
vt 0.439695 0.807710
vt 0.439695 0.944065
vt 0.614104 0.416678
vt 0.596807 0.412972
vt 0.607961 0.005685
vt 0.626431 0.115261
vt 0.607961 0.111108
vt 0.218298 0.038764
vt 0.208980 0.053052
vt 0.589490 0.115261
vt 0.589490 0.002023
vt 0.194682 0.066436
vt 0.209277 0.167130
vt 0.124705 0.165274
vt 0.127558 0.158423
vt 0.595098 0.330641
vt 0.614818 0.245602
vt 0.614054 0.336897
vt 0.196150 0.157280
vt 0.539291 0.418945
vt 0.561313 0.560550
vt 0.545302 0.556806
vt 0.573545 0.418435
vt 0.558246 0.412972
vt 0.624902 0.236181
vt 0.624902 0.350856
vt 0.586029 0.244658
vt 0.598717 0.249114
vt 0.527782 0.432855
vt 0.534890 0.547348
vt 0.623250 0.473508
vt 0.618149 0.459893
vt 0.630463 0.454977
vt 0.426708 0.817275
vt 0.351696 0.826703
vt 0.542384 0.570153
vt 0.536681 0.633472
vt 0.527782 0.564595
vt 0.128450 0.151215
vt 0.589490 0.125992
vt 0.612620 0.221719
vt 0.605340 0.221992
vt 0.619847 0.123503
vt 0.604222 0.119307
vt 0.417892 0.828379
vt 0.352676 0.833158
vt 0.551068 0.633472
vt 0.543419 0.633247
vt 0.596631 0.588697
vt 0.577590 0.580911
vt 0.508294 0.014291
vt 0.491283 0.002023
vt 0.511750 0.003564
vt 0.352854 0.775874
vt 0.339380 0.772527
vt 0.096553 0.239677
vt 0.314764 0.754771
vt 0.304720 0.767574
vt 0.479056 0.762141
vt 0.463185 0.783288
vt 0.628400 0.442895
vt 0.654846 0.442895
vt 0.647739 0.412972
vt 0.630561 0.412972
vt 0.098601 0.997977
vt 0.308190 0.002189
vt 0.319145 0.002023
vt 0.480316 0.002081
vt 0.618149 0.442028
vt 0.087647 0.997853
vt 0.461510 0.002023
vt 0.469342 0.002057
vt 0.443741 0.762031
vt 0.579138 0.355831
vt 0.623559 0.576217
vt 0.317896 0.793507
vt 0.585445 0.005878
vt 0.540990 0.239433
vt 0.079893 0.002023
vt 0.614104 0.568057
vt 0.415708 0.918569
vt 0.626431 0.002023
vt 0.218298 0.176235
vt 0.573545 0.556386
vt 0.579138 0.335752
vt 0.635564 0.468592
vt 0.630463 0.473870
vt 0.618149 0.467719
vt 0.623250 0.454615
vt 0.635564 0.460766
vt 0.619847 0.220803
vt 0.355649 0.840347
vt 0.557890 0.564595
vt 0.364430 0.754016
vt 0.483678 0.781787
vt 0.647269 0.424365
vt 0.654945 0.432041
vt 0.647030 0.450570
vt 0.636075 0.450570
vt 0.106821 0.997605
vn 0.3824 -0.0376 -0.9232
vn 0.9235 -0.0290 -0.3825
vn 0.9237 -0.0168 0.3826
vn 0.3827 -0.0082 0.9238
vn -0.3827 -0.0082 0.9238
vn -0.9237 -0.0168 0.3826
vn 0.7805 0.5863 0.2169
vn -0.3824 -0.0376 -0.9232
vn -0.9235 -0.0290 -0.3825
vn -0.2677 -0.7146 -0.6463
vn -0.9218 0.0671 -0.3818
vn -0.3777 0.1603 -0.9119
vn -0.9218 -0.0671 0.3818
vn -0.3777 -0.1603 0.9119
vn 0.3777 -0.1603 0.9119
vn 0.9218 -0.0671 0.3818
vn 0.9218 0.0671 -0.3818
vn 0.3777 0.1603 -0.9119
vn -0.9238 0.0159 -0.3826
vn -0.3824 0.0385 -0.9232
vn -0.9238 -0.0159 0.3826
vn -0.3824 -0.0385 0.9232
vn 0.3824 -0.0385 0.9232
vn 0.9238 -0.0159 0.3826
vn 0.9238 0.0159 -0.3826
vn 0.3824 0.0385 -0.9232
vn -0.9238 -0.0157 -0.3826
vn -0.3821 -0.0537 -0.9225
vn -0.9232 0.0382 0.3824
vn -0.3816 0.0761 0.9212
vn 0.3816 0.0761 0.9212
vn 0.9232 0.0382 0.3824
vn 0.9238 -0.0157 -0.3826
vn 0.3821 -0.0537 -0.9225
vn -0.9239 0.0073 -0.3827
vn -0.3825 0.0301 -0.9235
vn -0.9236 -0.0250 0.3826
vn -0.3822 -0.0478 0.9228
vn 0.3822 -0.0478 0.9228
vn 0.9236 -0.0250 0.3826
vn 0.9239 0.0073 -0.3827
vn 0.3825 0.0301 -0.9235
vn -0.8701 -0.2264 -0.4377
vn -0.8324 0.5343 0.1469
vn 0.2200 0.9032 0.3687
vn -0.7966 -0.5954 -0.1047
vn 0.7310 -0.6580 -0.1809
vn -0.2738 0.9020 0.3337
vn -0.2070 -0.9697 -0.1295
vn 0.1473 -0.9741 -0.1713
vn -0.8873 -0.2542 0.3847
vn -0.2619 0.5314 0.8056
vn 0.9217 0.2137 0.3239
vn 0.3818 -0.4246 -0.8209
vn -0.2941 -0.4246 -0.8563
vn -0.8601 0.2556 0.4416
vn 0.3756 0.5321 0.7588
vn 0.9229 -0.1929 -0.3333
vn 0.3453 0.9076 0.2389
vn 0.3701 -0.4864 0.7915
vn 0.9156 0.2307 -0.3292
vn -0.8931 0.2639 -0.3642
vn -0.3094 -0.5089 0.8033
vn 0.9183 -0.2083 0.3367
vn 0.3629 0.5419 -0.7581
vn -0.3225 0.5553 -0.7666
vn -0.8450 -0.0112 0.5347
vn -0.3248 0.9153 0.2380
vn -0.8932 -0.4339 -0.1181
vn 0.3492 -0.8998 -0.2615
vn 0.9070 0.4063 0.1106
vn -0.8942 0.4328 0.1139
vn -0.3203 -0.9112 -0.2591
vn 0.9079 -0.4032 -0.1146
vn 0.9219 -0.3510 -0.1640
vn -0.2802 -0.0458 -0.9588
vn 0.8633 -0.0494 -0.5023
vn 0.3034 0.0083 0.9528
vn -0.2711 0.0130 0.9625
vn -0.8721 -0.0469 -0.4871
vn 0.2949 -0.0427 -0.9546
vn 0.8896 -0.0244 0.4561
vn 0.0000 0.2643 -0.9644
vn -0.7406 -0.6570 -0.1409
vn -0.2339 0.9702 0.0638
vn 0.9100 0.4091 -0.0667
vn 0.3806 -0.9137 -0.1423
vn -0.2151 -0.9690 -0.1214
vn -0.8693 0.4900 -0.0645
vn 0.3772 0.9228 0.0783
vn 0.2945 -0.6385 -0.7111
vn -0.3208 -0.6693 -0.6701
vn -0.3546 0.5008 0.7895
vn 0.8893 -0.2708 -0.3684
vn -0.8980 -0.2940 -0.3274
vn 0.3343 0.4867 0.8071
vn -0.9065 0.2500 0.3401
vn 0.8978 0.2359 0.3719
vn 0.0000 -1.0000 -0.0000
vn 0.2778 -0.6878 -0.6706
vn 0.8208 -0.4590 0.3400
vn -0.7587 -0.5707 0.3142
vn 0.3538 -0.3810 0.8542
vn -0.6810 -0.6758 -0.2821
vn 0.7432 -0.5941 -0.3078
vn -0.3442 -0.4370 0.8310
vn 0.8324 0.5343 0.1469
vn -0.9229 -0.1929 -0.3333
vn -0.7805 0.5863 0.2169
vn 0.2738 0.9020 0.3337
vn -0.7310 -0.6580 -0.1809
vn 0.7966 -0.5954 -0.1047
vn -0.2200 0.9032 0.3687
vn -0.1473 -0.9741 -0.1713
vn 0.2070 -0.9697 -0.1295
vn -0.9183 -0.2083 0.3367
vn -0.3756 0.5321 0.7588
vn 0.8601 0.2556 0.4416
vn 0.2941 -0.4246 -0.8563
vn -0.3818 -0.4246 -0.8209
vn -0.9217 0.2137 0.3239
vn 0.2619 0.5314 0.8056
vn 0.8701 -0.2264 -0.4377
vn 0.3248 0.9153 0.2380
vn 0.3094 -0.5089 0.8033
vn 0.8931 0.2639 -0.3642
vn -0.9156 0.2307 -0.3292
vn -0.3701 -0.4864 0.7915
vn 0.8873 -0.2542 0.3847
vn 0.3225 0.5553 -0.7666
vn -0.3629 0.5419 -0.7581
vn -0.8896 -0.0244 0.4561
vn -0.3453 0.9076 0.2389
vn -0.9079 -0.4032 -0.1146
vn 0.3203 -0.9112 -0.2591
vn 0.8942 0.4328 0.1139
vn -0.9070 0.4063 0.1106
vn -0.3492 -0.8998 -0.2615
vn 0.8932 -0.4339 -0.1181
vn 0.7406 -0.6570 -0.1409
vn -0.2949 -0.0427 -0.9546
vn 0.8721 -0.0469 -0.4871
vn 0.2711 0.0130 0.9625
vn -0.3034 0.0083 0.9528
vn -0.8633 -0.0494 -0.5023
vn 0.2802 -0.0458 -0.9588
vn 0.8450 -0.0112 0.5347
vn -0.9219 -0.3510 -0.1640
vn -0.3772 0.9228 0.0783
vn 0.8693 0.4900 -0.0645
vn 0.2151 -0.9690 -0.1214
vn -0.3806 -0.9137 -0.1423
vn -0.9100 0.4091 -0.0667
vn 0.2339 0.9702 0.0638
vn 0.3208 -0.6693 -0.6701
vn -0.2945 -0.6385 -0.7111
vn -0.3343 0.4867 0.8071
vn 0.8980 -0.2940 -0.3274
vn -0.8893 -0.2708 -0.3684
vn 0.3546 0.5008 0.7895
vn -0.8978 0.2359 0.3719
vn 0.9065 0.2500 0.3401
s off
f 41/1/1 4/2/1 42/3/1
f 42/4/2 6/5/2 43/6/2
f 43/6/3 8/7/3 44/8/3
f 44/9/4 10/10/4 45/11/4
f 10/10/5 46/12/5 45/11/5
f 12/13/6 47/14/6 46/15/6
f 97/16/7 52/17/7 98/18/7
f 16/19/8 41/1/8 48/20/8
f 14/21/9 48/22/9 47/14/9
f 15/23/10 105/24/10 112/25/10
f 13/26/11 24/27/11 15/28/11
f 15/29/12 17/30/12 1/31/12
f 11/32/13 23/33/13 13/26/13
f 9/34/14 22/35/14 11/36/14
f 20/37/15 9/34/15 7/38/15
f 19/39/16 7/40/16 5/41/16
f 18/42/17 5/41/17 3/43/17
f 17/30/18 3/44/18 1/31/18
f 23/33/19 32/45/19 24/27/19
f 24/46/20 25/47/20 17/30/20
f 22/48/21 31/49/21 23/33/21
f 21/50/22 30/51/22 22/35/22
f 28/52/23 21/50/23 20/37/23
f 27/53/24 20/54/24 19/39/24
f 26/55/25 19/39/25 18/42/25
f 25/47/26 18/56/26 17/30/26
f 39/57/27 32/45/27 31/49/27
f 40/58/28 25/47/28 32/59/28
f 38/60/29 31/49/29 30/61/29
f 37/62/30 30/51/30 29/63/30
f 28/52/31 37/62/31 29/63/31
f 27/53/32 36/64/32 28/65/32
f 26/55/33 35/66/33 27/53/33
f 25/47/34 34/67/34 26/68/34
f 39/57/35 48/22/35 40/69/35
f 40/58/36 41/1/36 33/70/36
f 38/60/37 47/14/37 39/57/37
f 37/62/38 46/12/38 38/71/38
f 44/9/39 37/62/39 36/72/39
f 43/6/40 36/64/40 35/66/40
f 42/4/41 35/66/41 34/73/41
f 41/1/42 34/67/42 33/70/42
f 56/74/43 63/75/43 64/76/43
f 100/77/44 54/78/44 55/79/44
f 98/80/45 53/81/45 101/82/45
f 102/83/46 55/84/46 56/85/46
f 103/86/47 51/87/47 97/16/47
f 99/88/48 53/81/48 54/89/48
f 104/90/49 56/85/49 50/91/49
f 104/90/50 49/92/50 103/93/50
f 63/75/51 70/94/51 71/95/51
f 54/78/52 61/96/52 62/97/52
f 51/87/53 60/98/53 52/17/53
f 50/99/54 57/100/54 49/101/54
f 50/99/55 64/102/55 58/103/55
f 55/79/56 62/97/56 63/75/56
f 52/104/57 61/105/57 53/106/57
f 49/107/58 59/108/58 51/87/58
f 65/109/59 74/110/59 73/111/59
f 60/112/60 69/113/60 61/105/60
f 57/114/61 67/115/61 59/108/61
f 64/76/62 71/95/62 72/116/62
f 62/117/63 69/113/63 70/118/63
f 59/108/64 68/119/64 60/98/64
f 58/103/65 65/120/65 57/100/65
f 58/103/66 72/121/66 66/122/66
f 79/123/67 88/124/67 80/125/67
f 72/126/68 74/110/68 66/127/68
f 70/94/69 79/123/69 71/95/69
f 69/128/70 76/129/70 77/130/70
f 67/115/71 73/131/71 75/132/71
f 71/95/72 80/125/72 72/116/72
f 69/128/73 78/133/73 70/134/73
f 68/119/74 75/132/74 76/135/74
f 83/136/75 89/137/75 91/138/75
f 77/139/76 86/140/76 78/141/76
f 76/135/77 83/136/77 84/142/77
f 73/143/78 82/144/78 81/145/78
f 80/146/79 82/144/79 74/147/79
f 78/141/80 87/148/80 79/149/80
f 77/139/81 84/150/81 85/151/81
f 75/152/82 81/145/82 83/153/82
f 90/154/83 95/155/83 93/156/83
f 87/157/84 96/158/84 88/124/84
f 85/159/85 94/160/85 86/161/85
f 84/142/86 91/138/86 92/162/86
f 81/163/87 90/164/87 89/165/87
f 88/166/88 90/164/88 82/167/88
f 86/168/89 95/169/89 87/157/89
f 85/159/90 92/170/90 93/171/90
f 2/172/91 103/93/91 4/173/91
f 2/174/92 102/175/92 104/176/92
f 12/13/93 101/177/93 99/178/93
f 4/179/94 97/16/94 6/5/94
f 16/180/95 100/77/95 102/181/95
f 8/182/96 101/183/96 10/10/96
f 14/21/97 99/178/97 100/77/97
f 6/5/98 98/18/98 8/7/98
f 111/184/99 112/25/99 108/185/99
f 3/186/100 105/24/100 1/187/100
f 7/40/101 107/188/101 5/41/101
f 11/32/102 111/189/102 110/190/102
f 9/34/103 108/191/103 7/38/103
f 13/192/104 112/25/104 111/184/104
f 5/41/105 106/193/105 3/43/105
f 9/34/106 110/194/106 109/195/106
f 41/1/1 2/174/1 4/2/1
f 42/4/2 4/179/2 6/5/2
f 43/6/3 6/5/3 8/7/3
f 44/9/4 8/182/4 10/10/4
f 10/10/5 12/196/5 46/12/5
f 12/13/6 14/21/6 47/14/6
f 97/16/107 51/87/107 52/17/107
f 16/19/8 2/174/8 41/1/8
f 14/21/9 16/180/9 48/22/9
f 15/23/10 1/187/10 105/24/10
f 13/26/11 23/33/11 24/27/11
f 15/29/12 24/46/12 17/30/12
f 11/32/13 22/48/13 23/33/13
f 9/34/14 21/50/14 22/35/14
f 20/37/15 21/50/15 9/34/15
f 19/39/16 20/54/16 7/40/16
f 18/42/17 19/39/17 5/41/17
f 17/30/18 18/56/18 3/44/18
f 23/33/19 31/49/19 32/45/19
f 24/46/20 32/59/20 25/47/20
f 22/48/21 30/61/21 31/49/21
f 21/50/22 29/63/22 30/51/22
f 28/52/23 29/63/23 21/50/23
f 27/53/24 28/65/24 20/54/24
f 26/55/25 27/53/25 19/39/25
f 25/47/26 26/68/26 18/56/26
f 39/57/27 40/69/27 32/45/27
f 40/58/28 33/70/28 25/47/28
f 38/60/29 39/57/29 31/49/29
f 37/62/30 38/71/30 30/51/30
f 28/52/31 36/72/31 37/62/31
f 27/53/32 35/66/32 36/64/32
f 26/55/33 34/73/33 35/66/33
f 25/47/34 33/70/34 34/67/34
f 39/57/35 47/14/35 48/22/35
f 40/58/36 48/20/36 41/1/36
f 38/60/37 46/15/37 47/14/37
f 37/62/38 45/11/38 46/12/38
f 44/9/39 45/11/39 37/62/39
f 43/6/40 44/8/40 36/64/40
f 42/4/41 43/6/41 35/66/41
f 41/1/42 42/3/42 34/67/42
f 56/74/108 55/79/108 63/75/108
f 100/77/109 99/178/109 54/78/109
f 98/80/110 52/197/110 53/81/110
f 102/83/111 100/198/111 55/84/111
f 103/86/112 49/107/112 51/87/112
f 99/88/113 101/82/113 53/81/113
f 104/90/114 102/83/114 56/85/114
f 104/90/115 50/91/115 49/92/115
f 63/75/116 62/97/116 70/94/116
f 54/78/117 53/199/117 61/96/117
f 51/87/118 59/108/118 60/98/118
f 50/99/119 58/103/119 57/100/119
f 50/99/120 56/200/120 64/102/120
f 55/79/121 54/78/121 62/97/121
f 52/104/122 60/112/122 61/105/122
f 49/107/123 57/114/123 59/108/123
f 65/109/124 66/127/124 74/110/124
f 60/112/125 68/201/125 69/113/125
f 57/114/126 65/202/126 67/115/126
f 64/76/127 63/75/127 71/95/127
f 62/117/128 61/105/128 69/113/128
f 59/108/129 67/115/129 68/119/129
f 58/103/130 66/122/130 65/120/130
f 58/103/131 64/102/131 72/121/131
f 79/123/132 87/157/132 88/124/132
f 72/126/133 80/203/133 74/110/133
f 70/94/134 78/204/134 79/123/134
f 69/128/135 68/205/135 76/129/135
f 67/115/136 65/202/136 73/131/136
f 71/95/137 79/123/137 80/125/137
f 69/128/138 77/130/138 78/133/138
f 68/119/139 67/115/139 75/132/139
f 83/136/140 81/206/140 89/137/140
f 77/139/141 85/151/141 86/140/141
f 76/135/142 75/132/142 83/136/142
f 73/143/143 74/147/143 82/144/143
f 80/146/144 88/207/144 82/144/144
f 78/141/145 86/140/145 87/148/145
f 77/139/146 76/208/146 84/150/146
f 75/152/147 73/143/147 81/145/147
f 91/209/83 89/210/83 90/154/83
f 90/154/83 96/211/83 95/155/83
f 95/155/83 94/212/83 93/156/83
f 93/156/83 92/213/83 91/209/83
f 91/209/83 90/154/83 93/156/83
f 87/157/148 95/169/148 96/158/148
f 85/159/149 93/171/149 94/160/149
f 84/142/150 83/136/150 91/138/150
f 81/163/151 82/167/151 90/164/151
f 88/166/152 96/214/152 90/164/152
f 86/168/153 94/215/153 95/169/153
f 85/159/154 84/216/154 92/170/154
f 2/172/155 104/90/155 103/93/155
f 2/174/156 16/19/156 102/175/156
f 12/13/157 10/217/157 101/177/157
f 4/179/158 103/86/158 97/16/158
f 16/180/159 14/21/159 100/77/159
f 8/182/160 98/218/160 101/183/160
f 14/21/161 12/13/161 99/178/161
f 6/5/162 97/16/162 98/18/162
f 112/25/99 105/24/99 106/219/99
f 106/219/99 107/220/99 112/25/99
f 107/220/99 108/185/99 112/25/99
f 108/185/99 109/221/99 110/222/99
f 110/222/99 111/184/99 108/185/99
f 3/186/100 106/219/100 105/24/100
f 7/40/101 108/223/101 107/188/101
f 11/32/102 13/26/102 111/189/102
f 9/34/103 109/195/103 108/191/103
f 13/192/104 15/23/104 112/25/104
f 5/41/105 107/188/105 106/193/105
f 9/34/106 11/36/106 110/194/106
