# Blender v2.92.0 OBJ File: 'OGConvert.blend'
# www.blender.org
o Castle_Wall_01
v 4.000000 8.800000 0.000000
v 4.000000 8.800000 -4.000000
v 0.000000 8.800000 -4.000000
v 0.000000 8.800000 0.000000
v 4.000000 8.800001 -20.000000
v 4.000000 6.480001 -20.000000
v 4.000000 6.480000 -14.666640
v 4.000000 8.800001 -14.666640
v 4.000000 8.800000 -9.333360
v 4.000000 6.480000 -9.333360
v 4.000000 6.480000 -4.000000
v 4.000000 0.000000 0.000000
v 4.000000 0.000000 -4.000000
v 4.000000 3.240000 -4.000000
v 4.000000 3.240001 -20.000000
v 4.000000 0.000001 -20.000000
v 4.000000 0.000001 -24.000000
v 4.000000 8.800001 -24.000000
v 0.000000 6.480001 -20.000000
v 0.000000 8.800001 -20.000000
v 0.000000 6.480000 -14.666640
v 0.000000 0.000001 -20.000000
v 0.000000 3.240001 -20.000000
v 0.000000 3.240000 -4.000000
v 0.000000 0.000000 -4.000000
v 0.000000 0.000000 0.000000
v 0.000000 6.480000 -4.000000
v 0.000000 6.480000 -9.333360
v 0.000000 8.800000 -9.333360
v 0.000000 8.800001 -14.666640
v 0.000000 8.800001 -24.000000
v 0.000000 0.000001 -24.000000
v 0.800000 0.000001 -20.000000
v 0.800000 3.240001 -20.000000
v 3.200000 0.000001 -20.000000
v 3.200000 3.240001 -20.000000
v 3.200000 3.240000 -4.000000
v 3.200000 0.000000 -4.000000
v 0.800000 0.000000 -4.000000
v 0.800000 3.240000 -4.000000
vt 0.396302 0.756352
vt 0.520713 0.880763
vt 0.396302 0.880762
vt 0.609547 0.625350
vt 0.681705 0.749760
vt 0.508774 0.625350
vt 0.688297 0.787825
vt 0.760455 0.912236
vt 0.688297 0.912236
vt 0.127707 0.756352
vt 0.003296 0.922234
vt 0.003296 0.756352
vt 0.075454 0.459468
vt 0.176227 0.127707
vt 0.176227 0.625350
vt 0.950301 0.715667
vt 0.975184 0.614894
vt 0.975184 0.715667
vt 0.301882 0.127707
vt 0.276999 0.003296
vt 0.401410 0.003296
vt 0.396302 0.887354
vt 0.421185 0.988127
vt 0.396302 0.988127
vt 0.903025 0.003296
vt 0.927908 0.500939
vt 0.903025 0.500939
vt 0.950301 0.608303
vt 0.975184 0.507530
vt 0.975184 0.608303
vt 0.376528 0.625350
vt 0.401410 0.749760
vt 0.276999 0.749760
vt 0.427776 0.887354
vt 0.452658 0.988127
vt 0.427776 0.988127
vt 0.959381 0.500939
vt 0.934499 0.003296
vt 0.959381 0.003296
vt 0.688297 0.781234
vt 0.812708 0.507530
vt 0.812708 0.781234
vt 0.819299 0.781234
vt 0.943710 0.507530
vt 0.943710 0.781234
vt 0.527305 0.880763
vt 0.651716 0.756352
vt 0.651716 0.880763
vt 0.767047 0.912236
vt 0.839205 0.787825
vt 0.839205 0.912236
vt 0.134298 0.922234
vt 0.258709 0.756352
vt 0.258709 0.922234
vt 0.917955 0.912236
vt 0.845796 0.787825
vt 0.917955 0.787825
vt 0.265300 0.922231
vt 0.389711 0.756352
vt 0.389711 0.922231
vt 0.996704 0.912236
vt 0.924546 0.787825
vt 0.996704 0.787825
vt 0.520713 0.756352
vt 0.681705 0.003296
vt 0.681705 0.127707
vt 0.609547 0.127707
vt 0.609547 0.293588
vt 0.681705 0.293588
vt 0.681705 0.459468
vt 0.408002 0.003296
vt 0.508774 0.127707
vt 0.609547 0.459468
vt 0.408002 0.127707
vt 0.408002 0.749760
vt 0.408002 0.625350
vt 0.681705 0.625350
vt 0.760455 0.787825
vt 0.127706 0.922234
vt 0.276999 0.127707
vt 0.276999 0.625350
vt 0.003296 0.003296
vt 0.003296 0.749760
vt 0.075454 0.127707
vt 0.003296 0.127707
vt 0.003296 0.459468
vt 0.003296 0.293588
vt 0.075454 0.293588
vt 0.003296 0.625350
vt 0.075454 0.625350
vt 0.950301 0.614894
vt 0.401410 0.127707
vt 0.376528 0.127707
vt 0.421185 0.887354
vt 0.927908 0.003296
vt 0.950301 0.507530
vt 0.301882 0.625350
vt 0.401410 0.625350
vt 0.452658 0.887354
vt 0.934499 0.500939
vt 0.688297 0.507530
vt 0.819299 0.507530
vt 0.527305 0.756352
vt 0.767047 0.787825
vt 0.134298 0.756352
vt 0.845796 0.912236
vt 0.265300 0.756352
vt 0.924546 0.912236
vt 0.896434 0.500939
vt 0.795661 0.003296
vt 0.896434 0.003296
vt 0.688297 0.003296
vt 0.789070 0.500939
vt 0.688297 0.500939
vt 0.795661 0.500939
vt 0.789070 0.003296
vn 0.0000 1.0000 0.0000
vn 1.0000 -0.0000 0.0000
vn 0.0000 0.0000 1.0000
vn -1.0000 0.0000 -0.0000
vn 0.0000 -1.0000 -0.0000
vn 0.0000 0.0000 -1.0000
s 1
f 2/1/1 4/2/1 1/3/1
f 11/4/2 1/5/2 14/6/2
f 6/7/3 20/8/3 19/9/3
f 19/10/1 7/11/1 6/12/1
f 28/13/4 23/14/4 24/15/4
f 33/16/3 23/17/3 22/18/3
f 33/19/5 32/20/5 17/21/5
f 15/22/3 35/23/3 16/24/3
f 36/25/5 14/26/5 37/27/5
f 38/28/6 14/29/6 13/30/6
f 38/31/5 12/32/5 26/33/5
f 24/34/6 39/35/6 25/36/6
f 40/37/5 23/38/5 34/39/5
f 12/40/3 4/41/3 26/42/3
f 32/43/6 18/44/6 17/45/6
f 20/46/1 18/47/1 31/48/1
f 11/49/6 3/50/6 2/51/6
f 11/52/1 28/53/1 27/54/1
f 29/55/3 10/56/3 9/57/3
f 9/58/1 30/59/1 29/60/1
f 8/61/6 21/62/6 30/63/6
f 2/1/1 3/64/1 4/2/1
f 18/65/2 5/66/2 6/67/2
f 7/68/2 8/69/2 9/70/2
f 17/71/2 18/65/2 15/72/2
f 18/65/2 6/67/2 15/72/2
f 7/68/2 9/70/2 10/73/2
f 15/72/2 16/74/2 17/71/2
f 12/75/2 13/76/2 14/6/2
f 1/5/2 12/75/2 14/6/2
f 14/6/2 15/72/2 7/68/2
f 15/72/2 6/67/2 7/68/2
f 7/68/2 10/73/2 14/6/2
f 10/73/2 11/4/2 14/6/2
f 11/4/2 2/77/2 1/5/2
f 6/7/3 5/78/3 20/8/3
f 19/10/1 21/79/1 7/11/1
f 32/20/4 22/80/4 23/14/4
f 24/15/4 25/81/4 26/33/4
f 31/82/4 32/20/4 23/14/4
f 24/15/4 26/33/4 4/83/4
f 19/84/4 20/85/4 31/82/4
f 29/86/4 30/87/4 21/88/4
f 19/84/4 31/82/4 23/14/4
f 28/13/4 29/86/4 21/88/4
f 21/88/4 19/84/4 23/14/4
f 4/83/4 3/89/4 27/90/4
f 28/13/4 21/88/4 23/14/4
f 24/15/4 4/83/4 27/90/4
f 27/90/4 28/13/4 24/15/4
f 33/16/3 34/91/3 23/17/3
f 17/21/5 16/92/5 35/93/5
f 33/19/5 22/80/5 32/20/5
f 17/21/5 35/93/5 33/19/5
f 15/22/3 36/94/3 35/23/3
f 36/25/5 15/95/5 14/26/5
f 38/28/6 37/96/6 14/29/6
f 26/33/5 25/81/5 39/97/5
f 38/31/5 13/98/5 12/32/5
f 26/33/5 39/97/5 38/31/5
f 24/34/6 40/99/6 39/35/6
f 40/37/5 24/100/5 23/38/5
f 12/40/3 1/101/3 4/41/3
f 32/43/6 31/102/6 18/44/6
f 20/46/1 5/103/1 18/47/1
f 11/49/6 27/104/6 3/50/6
f 11/52/1 10/105/1 28/53/1
f 29/55/3 28/106/3 10/56/3
f 9/58/1 8/107/1 30/59/1
f 8/61/6 7/108/6 21/62/6
f 37/109/2 35/110/2 36/111/2
f 34/112/4 39/113/4 40/114/4
f 33/19/5 38/31/5 39/97/5
f 37/109/2 38/115/2 35/110/2
f 34/112/4 33/116/4 39/113/4
f 33/19/5 35/93/5 38/31/5
