# Blender v2.92.0 OBJ File: 'kenney_OGConvert.blend'
# www.blender.org
o Plate_Corner_01
v 3.000000 0.000000 -0.000001
v 3.000000 0.000000 -3.000000
v 3.000000 0.250000 -3.000000
v 3.000000 0.250000 -0.000001
v 0.000000 0.000000 0.000000
v -0.000001 0.000000 -3.000000
v 1.040350 0.250000 -0.000000
v 0.711510 0.300000 -0.000000
v 0.000000 0.300000 0.000000
v 0.961155 0.250000 -0.398123
v 0.657349 0.300000 -0.272283
v 0.735636 0.250000 -0.735636
v 0.503113 0.300000 -0.503113
v -0.000001 0.250000 -3.000000
v -0.000000 0.250000 -1.040350
v 0.398123 0.250000 -0.961155
v -0.000000 0.300000 -0.711510
v 0.272283 0.300000 -0.657349
vt 0.553895 0.501642
vt 0.595303 0.998538
vt 0.553895 0.998538
vt 0.498358 0.001462
vt 0.001462 0.498358
vt 0.001462 0.001462
vt 0.931532 0.161560
vt 0.997816 0.498718
vt 0.875696 0.124126
vt 0.598227 0.501643
vt 0.639635 0.998538
vt 0.598227 0.998538
vt 0.595303 0.501642
vt 0.498358 0.498357
vt 0.501995 0.497284
vt 0.501281 0.001462
vt 0.825160 0.002399
vt 0.838343 0.068236
vt 0.997350 0.174839
vt 0.639635 0.501643
vt 0.501282 0.501642
vt 0.542690 0.501642
vt 0.542690 0.826223
vt 0.326042 0.539765
vt 0.550971 0.880689
vt 0.501282 0.998538
vt 0.550971 0.998538
vt 0.498358 0.548047
vt 0.380509 0.548047
vt 0.001462 0.539765
vt 0.997816 0.119947
vt 0.952802 0.110865
vt 0.914615 0.085264
vt 0.889069 0.047040
vt 0.997646 0.002353
vt 0.880053 0.002013
vn 1.0000 0.0000 -0.0000
vn -0.0000 -1.0000 -0.0000
vn 0.0742 0.9962 -0.0462
vn 0.0000 1.0000 0.0000
vn 0.0641 0.9959 -0.0641
vn -0.0000 0.0000 -1.0000
vn 0.0150 0.9970 -0.0753
vn 0.0423 0.9982 -0.0430
vn 0.0753 0.9970 -0.0150
vn 0.0000 -0.0000 1.0000
vn -1.0000 -0.0000 0.0000
vn 0.0624 0.9975 -0.0321
vn 0.0711 0.9949 -0.0711
vn 0.0191 0.9960 -0.0871
s 1
f 2/1/1 4/2/1 1/3/1
f 1/4/2 6/5/2 2/6/2
f 10/7/3 4/8/4 12/9/5
f 6/10/6 3/11/6 2/12/6
f 2/1/1 3/13/1 4/2/1
f 1/4/2 5/14/2 6/5/2
f 3/15/4 14/16/4 12/9/5
f 14/16/4 15/17/7 16/18/8
f 14/16/4 16/18/8 12/9/5
f 7/19/9 4/8/4 10/7/3
f 4/8/4 3/15/4 12/9/5
f 6/10/6 14/20/6 3/11/6
f 1/21/10 4/22/10 7/23/10
f 15/24/11 6/5/11 5/14/11
f 7/23/10 8/25/10 5/26/10
f 8/25/10 9/27/10 5/26/10
f 5/26/10 1/21/10 7/23/10
f 5/14/11 9/28/11 17/29/11
f 15/24/11 14/30/11 6/5/11
f 5/14/11 17/29/11 15/24/11
f 10/7/3 8/31/9 7/19/9
f 11/32/12 12/9/5 13/33/13
f 13/33/13 18/34/14 9/35/4
f 12/9/5 18/34/14 13/33/13
f 16/18/8 17/36/7 18/34/14
f 10/7/3 11/32/12 8/31/9
f 11/32/12 10/7/3 12/9/5
f 17/36/7 9/35/4 18/34/14
f 9/35/4 8/31/9 11/32/12
f 13/33/13 9/35/4 11/32/12
f 12/9/5 16/18/8 18/34/14
f 16/18/8 15/17/7 17/36/7
