# Blender v2.92.0 OBJ File: 'OGConvert.blend'
# www.blender.org
o Roof_Corner_Green_01
v 26.236401 1.290248 0.000000
v 2.946184 18.369761 0.000001
v 0.000000 20.530319 0.000001
v 0.000000 18.546160 0.000001
v 4.000000 15.612880 0.000001
v 20.000000 3.879512 0.000000
v 24.000000 0.946184 0.000000
v 25.290239 0.000000 -0.000000
v 0.000000 1.290249 -26.236401
v 0.000000 18.369761 -2.946183
v 0.000000 0.000001 -25.290239
v 0.000000 0.946185 -24.000000
v 0.000000 3.879513 -20.000000
v 0.000000 15.612880 -3.999999
v 20.000000 0.946184 -4.000000
v 20.000000 1.532848 -3.200000
v 3.200000 1.532849 -20.000000
v 4.000000 0.946185 -20.000000
v 0.800000 15.026160 -3.999999
v 0.800000 3.292849 -20.000000
v 20.000000 3.292848 -0.800000
v 4.000000 15.026160 -0.799999
v 0.000000 0.946185 -20.000000
v 0.800000 0.946185 -20.000000
v 20.000000 0.946184 -3.200000
v 3.200000 0.946185 -20.000000
v 0.800000 0.946184 -4.000000
v 0.000000 0.946184 -4.000000
v 0.000000 0.946184 0.000000
v 4.000000 0.946184 0.000000
v 4.000000 0.946184 -0.800000
v 20.000000 0.946184 -0.800000
v 20.000000 0.946184 0.000000
vt 0.457243 0.433335
vt 0.445066 0.470415
vt 0.445067 0.396255
vt 0.916018 0.433335
vt 0.460306 0.317848
vt 0.916018 0.001531
vt 0.375589 0.444481
vt 0.406069 0.468855
vt 0.940191 0.001531
vt 0.919081 0.546262
vt 0.919081 0.011534
vt 0.005789 0.306441
vt 0.445067 0.001531
vt 0.375589 0.073678
vt 0.375589 0.429648
vt 0.389484 0.078865
vt 0.431171 0.391068
vt 0.097678 0.340741
vt 0.445067 0.099613
vt 0.457243 0.001532
vt 0.445067 0.025453
vt 0.457243 0.487958
vt 0.864844 0.468855
vt 0.001531 0.317849
vt 0.028200 0.314807
vt 0.940191 0.556265
vt 0.097678 0.266581
vt 0.097678 0.281413
vt 0.097678 0.325909
vt 0.431171 0.094426
vt 0.079676 0.314806
vt 0.094078 0.276226
vt 0.220533 0.497539
vt 0.212076 0.704057
vt 0.212076 0.491021
vt 0.337056 0.314806
vt 0.285580 0.314806
vt 0.355057 0.266580
vt 0.197429 0.703887
vt 0.180708 0.497873
vt 0.188898 0.491020
vt 0.427065 0.073678
vt 0.083277 0.305161
vt 0.220533 0.702054
vt 0.188898 0.702223
vt 0.154163 0.541765
vt 0.177645 0.491020
vt 0.171775 0.567138
vt 0.202495 0.837777
vt 0.209013 0.846234
vt 0.200491 0.846234
vt 0.239235 0.532733
vt 0.223596 0.499126
vt 0.230547 0.491021
vt 0.177645 0.575595
vt 0.171775 0.922351
vt 0.177645 0.913894
vt 0.177645 0.998468
vt 0.148293 0.956181
vt 0.154163 0.947724
vt 0.036754 0.778574
vt 0.030884 0.787032
vt 0.001531 0.744745
vt 0.036754 0.710915
vt 0.030884 0.702457
vt 0.148293 0.533308
vt 0.230547 0.532496
vt 0.200491 0.491021
vt 0.209013 0.491021
vt 0.289180 0.305161
vt 0.344762 0.266580
vt 0.416770 0.073678
vt 0.916018 0.487957
vn 0.0000 -0.0000 1.0000
vn 0.5090 0.6941 -0.5090
vn -1.0000 -0.0000 0.0000
vn 0.6277 -0.4603 -0.6277
vn -0.5090 -0.6941 0.5090
vn -0.5091 -0.6941 0.5090
vn -0.5090 -0.6941 0.5091
vn 0.0000 0.0000 -1.0000
vn 1.0000 0.0000 0.0000
vn 0.0000 1.0000 0.0000
vn 0.7071 0.0000 -0.7071
s 1
f 2/1/1 4/2/1 5/3/1
f 10/4/2 1/5/2 9/6/2
f 14/7/3 4/2/3 10/8/3
f 9/9/4 8/10/4 11/11/4
f 11/12/5 8/13/5 15/14/5
f 19/15/5 16/16/5 22/17/5
f 13/18/5 19/15/6 14/7/6
f 22/17/7 6/19/5 5/3/7
f 8/13/1 1/20/1 7/21/1
f 1/20/1 2/1/1 6/19/1
f 7/21/1 1/20/1 6/19/1
f 2/1/1 3/22/1 4/2/1
f 5/3/1 6/19/1 2/1/1
f 10/4/2 2/23/2 1/5/2
f 10/8/3 9/24/3 13/18/3
f 9/24/3 11/12/3 12/25/3
f 12/25/3 13/18/3 9/24/3
f 13/18/3 14/7/3 10/8/3
f 4/2/3 3/22/3 10/8/3
f 9/9/4 1/26/4 8/10/4
f 15/14/5 16/16/5 18/27/5
f 16/16/5 17/28/5 18/27/5
f 18/27/5 12/25/5 11/12/5
f 8/13/5 7/21/5 15/14/5
f 18/27/5 11/12/5 15/14/5
f 20/29/5 13/18/5 12/25/5
f 12/25/5 18/27/5 17/28/5
f 16/16/5 15/14/5 7/21/5
f 20/29/5 12/25/5 17/28/5
f 16/16/5 7/21/5 21/30/5
f 7/21/5 6/19/5 21/30/5
f 20/29/5 17/28/5 19/15/5
f 17/28/5 16/16/5 19/15/5
f 4/2/5 14/7/6 19/15/5
f 22/17/5 5/3/7 4/2/5
f 16/16/5 21/30/5 22/17/5
f 22/17/5 4/2/5 19/15/5
f 13/18/5 20/29/5 19/15/6
f 22/17/7 21/30/5 6/19/5
f 23/31/1 20/29/1 13/18/1
f 18/27/1 17/28/1 26/32/1
f 23/31/3 13/18/3 12/25/3
f 19/33/8 28/34/8 14/35/8
f 29/36/3 14/7/3 28/37/3
f 5/3/1 29/36/1 30/38/1
f 30/39/9 22/40/9 5/41/9
f 33/42/1 7/21/1 6/19/1
f 23/31/1 24/43/1 20/29/1
f 19/33/8 27/44/8 28/34/8
f 29/36/3 4/2/3 14/7/3
f 5/3/1 4/2/1 29/36/1
f 30/39/9 31/45/9 22/40/9
f 32/46/10 7/47/10 25/48/10
f 15/49/9 16/50/9 25/51/9
f 33/52/9 21/53/9 6/54/9
f 7/47/10 15/55/10 25/48/10
f 26/56/10 18/57/10 12/58/10
f 12/58/10 23/59/10 24/60/10
f 27/61/10 28/62/10 29/63/10
f 26/56/10 12/58/10 24/60/10
f 27/61/10 29/63/10 31/64/10
f 29/63/10 30/65/10 31/64/10
f 26/56/10 24/60/10 27/61/10
f 25/48/10 26/56/10 27/61/10
f 32/46/10 33/66/10 7/47/10
f 27/61/10 31/64/10 25/48/10
f 31/64/10 32/46/10 25/48/10
f 33/52/9 32/67/9 21/53/9
f 16/50/11 26/68/11 17/69/11
f 20/29/3 27/70/3 19/15/3
f 21/30/1 31/71/1 32/72/1
f 3/73/2 2/23/2 10/4/2
f 16/50/11 25/51/11 26/68/11
f 20/29/3 24/43/3 27/70/3
f 21/30/1 22/17/1 31/71/1
