# Blender v2.92.0 OBJ File: 'OGConvert.blend'
# www.blender.org
o Roof_Inner_Corner_Red_01
v 0.000000 17.600000 -3.999999
v 0.800000 17.013359 -3.999999
v 0.800000 0.000000 -4.000000
v 0.000000 0.000000 -4.000000
v 0.000000 17.600000 -20.000000
v 0.800000 17.013359 -20.000000
v 0.000000 19.584082 -24.000000
v 0.000000 17.600002 -24.000000
v 0.000000 17.600000 0.000001
v 0.000000 19.584080 0.000001
v 2.946184 17.423601 -24.000000
v 24.000000 1.984113 -24.000000
v 24.000000 0.000001 -24.000000
v 20.000000 2.933337 -24.000000
v 4.000000 14.666641 -24.000000
v 2.946184 17.423599 -2.946183
v 24.000000 17.423599 -2.946183
v 24.000000 19.584080 0.000001
v 24.000000 17.600000 0.000001
v 24.000000 14.666640 -3.999999
v 24.000000 2.933337 -20.000000
v 24.000000 0.000000 -4.000000
v 24.000000 0.000000 0.000000
v 23.200001 14.666640 -3.999999
v 23.200001 0.000000 -4.000000
v 23.200001 2.933337 -20.000000
v 23.200001 0.000001 -20.000000
v 4.000000 0.000001 -23.200001
v 20.000000 0.000001 -23.200001
v 20.000000 0.000001 -24.000000
v 24.000000 0.000001 -20.000000
v 20.000000 0.000000 -0.000000
v 20.000000 0.000000 -0.800000
v 4.000000 0.000000 -0.800000
v 4.000000 0.000000 -0.000000
v 0.000000 0.000000 -0.000000
v 0.800000 0.000001 -20.000000
v 0.000000 0.000001 -20.000000
v 0.000000 0.000001 -24.000000
v 4.000000 0.000001 -24.000000
v 4.000000 14.666641 -23.200001
v 20.000000 2.933337 -23.200001
v 20.000000 17.600000 0.000001
v 20.000000 17.013359 -0.799999
v 4.000000 17.600000 0.000001
v 4.000000 17.013359 -0.799999
vt 0.334586 0.483577
vt 0.322558 0.739372
vt 0.322558 0.474757
vt 0.303916 0.337922
vt 0.364056 0.468323
vt 0.303916 0.468323
vt 0.993292 0.737762
vt 0.981264 0.958274
vt 0.981264 0.737762
vt 0.719300 0.303916
vt 0.430629 0.352028
vt 0.382517 0.303916
vt 0.737762 0.309548
vt 0.749790 0.265446
vt 0.749790 0.309548
vt 0.003217 0.775456
vt 0.047319 0.775456
vt 0.003217 0.835596
vt 0.003217 0.972432
vt 0.015245 0.842030
vt 0.015245 0.972432
vt 0.223729 0.534897
vt 0.003217 0.474757
vt 0.267832 0.474757
vt 0.400320 0.430629
vt 0.664935 0.370490
vt 0.664935 0.430629
vt 0.304096 0.483577
vt 0.316124 0.739372
vt 0.304096 0.739372
vt 0.063357 0.442243
vt 0.063357 0.468323
vt 0.003217 0.468323
vt 0.749790 0.315982
vt 0.737762 0.360085
vt 0.737762 0.315982
vt 0.671369 0.430629
vt 0.935984 0.370490
vt 0.935984 0.430629
vt 0.353048 0.483577
vt 0.341020 0.739372
vt 0.341020 0.474757
vt 0.935984 0.671189
vt 0.671369 0.731328
vt 0.671369 0.671189
vt 0.984755 0.008433
vt 0.996783 0.159699
vt 0.984755 0.159699
vt 0.664935 0.671189
vt 0.400320 0.731328
vt 0.400320 0.671189
vt 0.334586 0.739372
vt 0.364056 0.311841
vt 0.993292 0.958274
vt 0.671189 0.015245
vt 0.671189 0.003217
vt 0.731328 0.003217
vt 0.731328 0.063357
vt 0.719300 0.063357
vt 0.731328 0.303916
vt 0.731328 0.364056
vt 0.671189 0.352028
vt 0.671189 0.364056
vt 0.370490 0.003217
vt 0.430629 0.003217
vt 0.430629 0.015245
vt 0.430629 0.364056
vt 0.370490 0.364056
vt 0.382518 0.063357
vt 0.370490 0.063357
vt 0.370490 0.303916
vt 0.737762 0.265446
vt 0.003217 0.842030
vt 0.003217 0.534897
vt 0.400320 0.370490
vt 0.316124 0.474757
vt 0.749790 0.360085
vt 0.671369 0.370490
vt 0.353048 0.739372
vt 0.935984 0.731328
vt 0.996783 0.003217
vt 0.664935 0.731328
vt 0.972248 0.370490
vt 0.984276 0.611049
vt 0.972248 0.611049
vt 0.370490 0.731328
vt 0.265180 0.519053
vt 0.319760 0.058146
vt 0.003217 0.450683
vt 0.003217 0.058146
vt 0.319760 0.313409
vt 0.316124 0.986365
vt 0.304096 0.745806
vt 0.316124 0.745806
vt 0.353048 0.986365
vt 0.341020 0.745806
vt 0.353048 0.745806
vt 0.322558 0.745806
vt 0.334586 0.986365
vt 0.322558 0.986365
vt 0.965815 0.731328
vt 0.984276 0.370490
vt 0.370490 0.370490
vt 0.297663 0.474757
vt 0.033048 0.835596
vt 0.364056 0.294200
vt 0.304096 0.986365
vt 0.341020 0.986365
vt 0.334586 0.745806
vt 0.965815 0.370490
vt 0.364056 0.003217
vt 0.870509 0.737762
vt 0.844429 0.978321
vt 0.844429 0.737762
vt 0.661585 0.978321
vt 0.617482 0.737762
vt 0.837995 0.737762
vt 0.611049 0.737762
vt 0.370490 0.993557
vt 0.370490 0.737762
vt 0.978321 0.003217
vt 0.737762 0.259012
vt 0.737762 0.003217
vt 0.003217 0.003217
vt 0.974830 0.978321
vt 0.617482 0.978321
vt 0.611049 0.993557
vt 0.978321 0.259012
vn 0.0000 0.0000 -1.0000
vn 1.0000 -0.0000 0.0000
vn 0.0000 -1.0000 -0.0000
vn -1.0000 0.0000 0.0000
vn 0.0000 0.0000 1.0000
vn -0.5913 -0.8064 0.0000
vn 0.5914 0.8064 0.0000
vn 0.0000 0.8064 -0.5914
vn 0.0000 -0.8064 0.5914
vn -0.5914 -0.8064 0.0000
vn 0.0000 -0.8064 0.5913
s 1
f 2/1/1 4/2/1 1/3/1
f 20/4/2 23/5/2 22/6/2
f 20/7/1 25/8/1 24/9/1
f 25/10/3 34/11/3 3/12/3
f 14/13/4 29/14/4 42/15/4
f 30/16/1 14/17/1 13/18/1
f 41/19/2 40/20/2 15/21/2
f 15/22/1 39/23/1 8/24/1
f 5/25/4 39/26/4 38/27/4
f 6/28/5 38/29/5 37/30/5
f 21/31/2 31/32/2 13/33/2
f 26/34/5 31/35/5 21/36/5
f 32/37/5 19/38/5 43/39/5
f 44/40/4 32/41/4 43/42/4
f 45/43/5 36/44/5 35/45/5
f 46/46/2 35/47/2 34/48/2
f 4/49/4 9/50/4 1/51/4
f 2/1/1 3/52/1 4/2/1
f 20/4/2 19/53/2 23/5/2
f 20/7/1 22/54/1 25/8/1
f 29/55/3 30/56/3 13/57/3
f 13/57/3 31/58/3 27/59/3
f 25/10/3 22/60/3 23/61/3
f 29/55/3 13/57/3 27/59/3
f 25/10/3 23/61/3 33/62/3
f 23/61/3 32/63/3 33/62/3
f 29/55/3 27/59/3 25/10/3
f 39/64/3 40/65/3 28/66/3
f 28/66/3 29/55/3 25/10/3
f 34/11/3 35/67/3 36/68/3
f 25/10/3 33/62/3 34/11/3
f 39/64/3 28/66/3 37/69/3
f 28/66/3 25/10/3 37/69/3
f 37/69/3 38/70/3 39/64/3
f 36/68/3 4/71/3 3/12/3
f 34/11/3 36/68/3 3/12/3
f 3/12/3 37/69/3 25/10/3
f 14/13/4 30/72/4 29/14/4
f 41/19/2 28/73/2 40/20/2
f 15/22/1 40/74/1 39/23/1
f 5/25/4 8/75/4 39/26/4
f 6/28/5 5/76/5 38/29/5
f 26/34/5 27/77/5 31/35/5
f 32/37/5 23/78/5 19/38/5
f 44/40/4 33/79/4 32/41/4
f 45/43/5 9/80/5 36/44/5
f 46/46/2 45/81/2 35/47/2
f 4/49/4 36/82/4 9/50/4
f 5/83/6 2/84/6 1/85/6
f 1/51/4 9/50/4 10/86/4
f 14/17/1 15/22/1 11/87/1
f 16/88/7 12/89/7 11/90/7
f 12/89/8 16/88/8 17/91/8
f 12/89/2 17/91/2 21/31/2
f 20/92/9 26/93/9 21/94/9
f 14/95/10 41/96/10 15/97/10
f 45/98/11 44/99/11 43/100/11
f 10/101/5 45/43/5 43/39/5
f 5/83/6 6/102/6 2/84/6
f 10/86/4 7/103/4 5/25/4
f 7/103/4 8/75/4 5/25/4
f 5/25/4 1/51/4 10/86/4
f 7/104/1 11/87/1 8/24/1
f 11/87/1 12/105/1 14/17/1
f 8/24/1 11/87/1 15/22/1
f 12/105/1 13/18/1 14/17/1
f 18/106/2 19/53/2 17/91/2
f 19/53/2 20/4/2 17/91/2
f 21/31/2 13/33/2 12/89/2
f 20/4/2 21/31/2 17/91/2
f 20/92/9 24/107/9 26/93/9
f 14/95/10 42/108/10 41/96/10
f 45/98/11 46/109/11 44/99/11
f 19/38/5 18/110/5 43/39/5
f 18/110/5 10/101/5 43/39/5
f 10/101/5 9/80/5 45/43/5
f 18/106/8 16/88/8 10/111/8
f 26/112/2 25/113/2 27/114/2
f 42/115/1 28/116/1 41/117/1
f 6/118/4 3/119/4 2/120/4
f 46/121/5 33/122/5 44/123/5
f 16/88/7 7/124/7 10/111/7
f 18/106/8 17/91/8 16/88/8
f 26/112/2 24/125/2 25/113/2
f 42/115/1 29/126/1 28/116/1
f 6/118/4 37/127/4 3/119/4
f 46/121/5 34/128/5 33/122/5
f 16/88/7 11/90/7 7/124/7
