# Blender v2.92.0 OBJ File: 'OGConvert.blend'
# www.blender.org
o Roof_Straight_Red_01
v 0.000000 0.000000 0.000000
v 24.000000 0.000000 0.000000
v 24.000000 2.400000 0.000000
v 0.000000 2.400000 0.000000
v 24.000000 0.000000 -4.000000
v 0.000000 0.000000 -4.000000
v 0.800000 0.000000 -4.000000
v 0.800000 0.000001 -20.000000
v 0.000000 0.000001 -20.000000
v 0.000000 0.000001 -24.000000
v 24.000000 0.000001 -24.000000
v 24.000000 0.000001 -20.000000
v 23.200001 0.000001 -20.000000
v 23.200001 0.000000 -4.000000
v 24.000000 8.266640 -4.000000
v 23.200001 8.266640 -4.000000
v 23.200001 8.266641 -20.000000
v 23.200001 20.000000 -11.999999
v 24.000000 8.266641 -20.000000
v 24.000000 2.400001 -24.000000
v 0.000000 2.400001 -24.000000
v 0.000000 8.266641 -20.000000
v 0.800000 8.266641 -20.000000
v 0.800000 20.000000 -11.999999
v 25.600000 1.078041 -24.901360
v 25.600000 20.000000 -11.999999
v -1.600000 20.000000 -11.999999
v -1.600000 1.078041 -24.901360
v 25.600000 1.979377 -26.223280
v 25.600000 20.901360 -13.321999
v 25.600000 22.840240 -11.999999
v 25.600000 20.901360 -10.677999
v 25.600000 1.979376 2.223304
v 25.600000 1.078040 0.901336
v -1.600000 1.979377 -26.223280
v -1.600000 20.901360 -13.321999
v -1.600000 1.078040 0.901336
v -1.600000 1.979376 2.223304
v -1.600000 20.901360 -10.677999
v -1.600000 22.840240 -11.999999
v 0.800000 8.266640 -4.000000
v 0.000000 8.266640 -4.000000
vt 0.803037 0.896921
vt 0.780219 0.620750
vt 0.803037 0.620750
vt 0.441007 0.652413
vt 0.473554 0.919379
vt 0.441007 0.910173
vt 0.480441 0.738333
vt 0.526470 0.710716
vt 0.526470 0.738333
vt 0.925592 0.174409
vt 0.934797 0.253004
vt 0.925592 0.253004
vt 0.862841 0.857780
vt 0.872046 0.936375
vt 0.862841 0.936375
vt 0.480442 0.812729
vt 0.526470 0.840346
vt 0.480442 0.840346
vt 0.934797 0.167522
vt 0.925592 0.088927
vt 0.934797 0.088927
vt 0.480442 0.942359
vt 0.526470 0.914742
vt 0.526470 0.942359
vt 0.003444 0.643208
vt 0.026262 0.919379
vt 0.003444 0.919379
vt 0.934797 0.082039
vt 0.925592 0.003444
vt 0.934797 0.003444
vt 0.809924 0.925288
vt 0.855953 0.952905
vt 0.809924 0.952905
vt 0.780219 0.896921
vt 0.310818 0.910173
vt 0.310818 0.919379
vt 0.278271 0.919379
vt 0.278271 0.643208
vt 0.310818 0.652413
vt 0.310818 0.643208
vt 0.441007 0.643208
vt 0.473554 0.643208
vt 0.441007 0.919379
vt 0.480441 0.643208
vt 0.934797 0.174409
vt 0.872046 0.857780
vt 0.526470 0.745221
vt 0.925592 0.167522
vt 0.480442 0.847234
vt 0.026262 0.643208
vt 0.925592 0.082039
vt 0.855953 0.857780
vt 0.809925 0.755767
vt 0.901982 0.620750
vt 0.994039 0.755767
vt 0.996556 0.458343
vt 0.812442 0.553468
vt 0.812442 0.458343
vt 0.003444 0.316438
vt 0.030447 0.003444
vt 0.030447 0.316438
vt 0.564400 0.316438
vt 0.591403 0.003444
vt 0.591403 0.316438
vt 0.994039 0.850892
vt 0.809925 0.850892
vt 0.904499 0.323326
vt 0.996556 0.553468
vt 0.003444 0.003444
vt 0.564400 0.003444
vt 0.107969 0.652413
vt 0.107969 0.910173
vt 0.698512 0.887715
vt 0.698512 0.629955
vt 0.107969 0.643208
vt 0.271383 0.652413
vt 0.271383 0.910173
vt 0.107969 0.919379
vt 0.698512 0.896921
vt 0.535098 0.887715
vt 0.535098 0.629955
vt 0.698512 0.620750
vt 0.528210 0.636320
vt 0.510119 0.341737
vt 0.528210 0.323326
vt 0.805554 0.350329
vt 0.787143 0.613862
vt 0.787143 0.350329
vt 0.300868 0.003444
vt 0.300868 0.316438
vt 0.900614 0.003444
vt 0.918704 0.316438
vt 0.900614 0.316438
vt 0.843610 0.284116
vt 0.598291 0.187845
vt 0.850336 0.266976
vt 0.003444 0.323326
vt 0.021534 0.617909
vt 0.003444 0.636320
vt 0.893726 0.316438
vt 0.875636 0.003444
vt 0.893726 0.003444
vt 0.293980 0.316438
vt 0.293980 0.003444
vt 0.269271 0.636320
vt 0.429837 0.617909
vt 0.269271 0.608703
vt 0.429837 0.608703
vt 0.269271 0.350943
vt 0.269271 0.323326
vt 0.429837 0.341737
vt 0.429837 0.350943
vt 0.510119 0.617909
vt 0.541823 0.446599
vt 0.535098 0.429460
vt 0.780416 0.333190
vt 0.805554 0.323326
vt 0.805554 0.613862
vt 0.918704 0.003444
vt 0.605017 0.170707
vt 0.850336 0.003444
vt 0.868748 0.003444
vt 0.868748 0.266976
vt 0.868747 0.293980
vt 0.262383 0.323326
vt 0.101817 0.341737
vt 0.262383 0.350943
vt 0.101817 0.350943
vt 0.262383 0.608703
vt 0.262383 0.636320
vt 0.101817 0.617909
vt 0.101817 0.608703
vt 0.021534 0.341737
vt 0.875636 0.316438
vn 0.0000 -0.0000 1.0000
vn -0.0000 -1.0000 -0.0000
vn 1.0000 0.0000 0.0000
vn 0.0000 0.0000 -1.0000
vn -1.0000 0.0000 0.0000
vn 0.0000 0.5633 0.8262
vn 0.0000 0.5633 -0.8262
vn 0.0000 -0.5633 0.8262
vn 0.0000 -0.8262 -0.5633
vn -0.0000 -0.5633 -0.8262
vn 0.0000 -0.8262 0.5633
s 1
f 2/1/1 4/2/1 1/3/1
f 8/4/2 11/5/2 13/6/2
f 5/7/3 3/8/3 2/9/3
f 5/10/4 16/11/4 15/12/4
f 19/13/1 13/14/1 12/15/1
f 20/16/3 12/17/3 11/18/3
f 9/19/1 23/20/1 22/21/1
f 9/22/5 21/23/5 10/24/5
f 10/25/4 20/26/4 11/27/4
f 42/28/4 7/29/4 6/30/4
f 4/31/5 6/32/5 1/33/5
f 2/1/1 3/34/1 4/2/1
f 14/35/2 5/36/2 2/37/2
f 2/37/2 1/38/2 7/39/2
f 1/38/2 6/40/2 7/39/2
f 14/35/2 2/37/2 7/39/2
f 8/4/2 9/41/2 10/42/2
f 14/35/2 7/39/2 8/4/2
f 11/5/2 12/43/2 13/6/2
f 13/6/2 14/35/2 8/4/2
f 8/4/2 10/42/2 11/5/2
f 5/7/3 15/44/3 3/8/3
f 5/10/4 14/45/4 16/11/4
f 19/13/1 17/46/1 13/14/1
f 20/16/3 19/47/3 12/17/3
f 9/19/1 8/48/1 23/20/1
f 9/22/5 22/49/5 21/23/5
f 10/25/4 21/50/4 20/26/4
f 42/28/4 41/51/4 7/29/4
f 4/31/5 42/52/5 6/32/5
f 17/53/3 18/54/3 16/55/3
f 23/56/5 7/57/5 41/58/5
f 31/59/6 39/60/6 32/61/6
f 30/62/7 40/63/7 31/64/7
f 16/55/3 14/65/3 13/66/3
f 13/66/3 17/53/3 16/55/3
f 41/58/5 24/67/5 23/56/5
f 23/56/5 8/68/5 7/57/5
f 31/59/6 40/69/6 39/60/6
f 30/62/7 36/70/7 40/63/7
f 23/71/7 17/72/7 20/26/7
f 16/73/6 41/74/6 4/2/6
f 20/26/7 21/50/7 23/71/7
f 21/50/7 22/75/7 23/71/7
f 23/71/7 24/76/7 18/77/7
f 17/72/7 19/78/7 20/26/7
f 23/71/7 18/77/7 17/72/7
f 4/2/6 3/34/6 16/73/6
f 3/34/6 15/79/6 16/73/6
f 16/73/6 18/80/6 24/81/6
f 41/74/6 42/82/6 4/2/6
f 16/73/6 24/81/6 41/74/6
f 25/83/8 21/84/8 28/85/8
f 32/86/3 34/87/3 26/88/3
f 35/89/7 30/62/7 29/90/7
f 28/91/9 29/92/9 25/93/9
f 36/94/5 35/95/5 27/96/5
f 37/97/10 3/98/10 34/99/10
f 34/100/11 38/101/11 37/102/11
f 33/103/6 39/60/6 38/104/6
f 25/83/8 26/105/8 19/106/8
f 26/105/8 18/107/8 19/106/8
f 18/107/8 17/108/8 19/106/8
f 24/109/8 27/110/8 22/111/8
f 27/110/8 28/85/8 22/111/8
f 22/111/8 23/112/8 24/109/8
f 25/83/8 19/106/8 20/113/8
f 21/84/8 22/111/8 28/85/8
f 25/83/8 20/113/8 21/84/8
f 25/114/3 29/115/3 26/88/3
f 29/115/3 30/116/3 26/88/3
f 30/116/3 31/117/3 26/88/3
f 31/117/3 32/86/3 26/88/3
f 32/86/3 33/118/3 34/87/3
f 35/89/7 36/70/7 30/62/7
f 28/91/9 35/119/9 29/92/9
f 35/95/5 28/120/5 27/96/5
f 27/96/5 37/121/5 38/122/5
f 38/122/5 39/123/5 27/96/5
f 39/123/5 40/124/5 27/96/5
f 40/124/5 36/94/5 27/96/5
f 37/97/10 27/125/10 42/126/10
f 27/125/10 24/127/10 42/126/10
f 24/127/10 41/128/10 42/126/10
f 18/129/10 26/130/10 15/131/10
f 26/130/10 34/99/10 15/131/10
f 15/131/10 16/132/10 18/129/10
f 37/97/10 42/126/10 4/133/10
f 3/98/10 15/131/10 34/99/10
f 37/97/10 4/133/10 3/98/10
f 34/100/11 33/134/11 38/101/11
f 33/103/6 32/61/6 39/60/6
