# Blender v2.92.0 OBJ File: 'OGConvert.blend'
# www.blender.org
o Wood_Broken_Wall_01
v 4.000000 17.600000 0.000001
v 4.000000 17.600000 -3.999999
v 0.000000 17.600000 -3.999999
v 0.000000 17.600000 0.000001
v 4.000000 0.000000 -0.000000
v 4.000000 0.000000 -4.000000
v 0.000000 0.000000 -4.000000
v 0.800000 0.000000 -4.000000
v 3.200000 0.000000 -4.000000
v 0.000000 0.000000 0.000000
v 3.200000 16.245119 -3.999999
v 0.800000 16.245119 -3.999999
v 3.200000 13.648080 -7.042319
v 0.800000 13.648080 -7.042319
v 3.200000 0.000001 -20.000000
v 3.200000 8.800001 -20.000000
v 3.200000 10.850561 -17.867760
v 3.200000 10.850561 -15.467760
v 3.200000 9.223601 -13.703360
v 3.200000 9.223601 -11.303360
v 3.200000 13.648080 -9.442319
v 4.000000 0.000001 -20.000000
v 4.000000 8.800001 -20.000000
v 4.000000 0.000001 -24.000000
v 4.000000 8.800001 -24.000000
v -0.000000 0.000001 -24.000000
v -0.000000 8.800001 -24.000000
v 0.800000 0.000001 -20.000000
v 0.000000 0.000001 -20.000000
v 0.800000 13.648080 -9.442319
v 0.800000 9.223601 -11.303360
v 0.800000 9.223601 -13.703360
v 0.800000 10.850561 -15.467760
v 0.800000 10.850561 -17.867760
v 0.800000 8.800001 -20.000000
v 0.000000 8.800001 -20.000000
vt 0.203820 0.578807
vt 0.298927 0.648726
vt 0.203820 0.648726
vt 0.097828 0.578807
vt 0.002721 0.997279
vt 0.002721 0.578807
vt 0.497279 0.478257
vt 0.516300 0.573364
vt 0.421193 0.573364
vt 0.179356 0.932573
vt 0.198378 0.962078
vt 0.103271 0.962078
vt 0.304370 0.648726
vt 0.323391 0.790566
vt 0.304370 0.790566
vt 0.616850 0.995356
vt 0.521742 0.786120
vt 0.616850 0.786120
vt 0.717399 0.786120
vt 0.622292 0.977755
vt 0.622292 0.786120
vt 0.440214 0.097828
vt 0.421193 0.002721
vt 0.516300 0.002721
vt 0.323391 0.648726
vt 0.304370 0.578807
vt 0.404919 0.788043
vt 0.500026 0.578807
vt 0.500026 0.788043
vt 0.399477 0.790566
vt 0.380455 0.648726
vt 0.399477 0.648726
vt 0.002721 0.478257
vt 0.002721 0.573365
vt 0.203820 0.932405
vt 0.298927 0.932405
vt 0.298927 0.578807
vt 0.097828 0.997279
vt 0.421193 0.478257
vt 0.440214 0.478257
vt 0.516300 0.478257
vt 0.179356 0.578807
vt 0.198378 0.578807
vt 0.103271 0.578807
vt 0.122292 0.932573
vt 0.122292 0.578807
vt 0.521742 0.995356
vt 0.717399 0.977755
vt 0.516300 0.097828
vt 0.497279 0.097828
vt 0.421193 0.097828
vt 0.399477 0.578807
vt 0.404919 0.578807
vt 0.380455 0.790566
vt 0.122292 0.846979
vt 0.728521 0.169670
vt 0.829835 0.064470
vt 0.902171 0.388978
vt 0.752457 0.561370
vt 0.851474 0.522686
vt 0.902171 0.571442
vt 0.509377 0.793485
vt 0.467426 0.850549
vt 0.467426 0.793485
vt 0.785348 0.786120
vt 0.842412 0.900235
vt 0.785348 0.900235
vt 0.722842 0.885136
vt 0.779906 0.927088
vt 0.722842 0.927088
vt 0.722842 0.828071
vt 0.779906 0.885136
vt 0.722842 0.786120
vt 0.779906 0.828071
vt 0.404919 0.793485
vt 0.461983 0.858492
vt 0.404919 0.858492
vt 0.179356 0.846979
vt 0.521742 0.388978
vt 0.521742 0.179742
vt 0.671456 0.169670
vt 0.572440 0.130986
vt 0.629505 0.130986
vt 0.902171 0.002721
vt 0.772770 0.064470
vt 0.902171 0.780678
vt 0.521742 0.780678
vt 0.695393 0.561370
vt 0.521742 0.394420
vt 0.594079 0.456170
vt 0.651144 0.456170
vt 0.794409 0.522686
vt 0.509377 0.850549
vt 0.842412 0.786120
vt 0.779906 0.786120
vt 0.461983 0.793485
vn 0.0000 1.0000 0.0000
vn 1.0000 -0.0000 0.0000
vn -0.0000 -1.0000 -0.0000
vn 0.0000 0.0000 -1.0000
vn 0.0000 0.0000 1.0000
vn -1.0000 0.0000 0.0000
vn 0.0000 0.7606 -0.6493
vn 0.0000 0.3877 -0.9218
vn 0.0000 0.7352 0.6779
vn 0.0000 0.7208 -0.6932
s 1
f 2/1/1 4/2/1 1/3/1
f 6/4/2 1/5/2 5/6/2
f 9/7/3 5/8/3 10/9/3
f 12/10/4 3/11/4 2/12/4
f 23/13/5 15/14/5 22/15/5
f 25/16/2 22/17/2 24/18/2
f 26/19/4 25/20/4 24/21/4
f 28/22/3 26/23/3 24/24/3
f 16/25/1 23/13/1 25/26/1
f 29/27/6 27/28/6 26/29/6
f 29/30/5 35/31/5 36/32/5
f 3/33/6 10/9/6 4/34/6
f 5/35/5 4/2/5 10/36/5
f 2/1/1 3/37/1 4/2/1
f 6/4/2 2/38/2 1/5/2
f 10/9/3 7/39/3 8/40/3
f 9/7/3 6/41/3 5/8/3
f 10/9/3 8/40/3 9/7/3
f 12/10/4 8/42/4 7/43/4
f 2/12/4 6/44/4 11/45/4
f 6/44/4 9/46/4 11/45/4
f 12/10/4 7/43/4 3/11/4
f 2/12/4 11/45/4 12/10/4
f 23/13/5 16/25/5 15/14/5
f 25/16/2 23/47/2 22/17/2
f 26/19/4 27/48/4 25/20/4
f 24/24/3 22/49/3 15/50/3
f 28/22/3 29/51/3 26/23/3
f 24/24/3 15/50/3 28/22/3
f 25/26/1 27/52/1 35/31/1
f 27/52/1 36/32/1 35/31/1
f 35/31/1 16/25/1 25/26/1
f 29/27/6 36/53/6 27/28/6
f 29/30/5 28/54/5 35/31/5
f 3/33/6 7/39/6 10/9/6
f 5/35/5 1/3/5 4/2/5
f 13/55/7 12/10/7 11/45/7
f 20/56/2 13/57/2 9/58/2
f 28/22/3 9/7/3 8/40/3
f 32/59/6 34/60/6 35/61/6
f 21/62/1 14/63/1 13/64/1
f 20/65/8 30/66/8 21/67/8
f 19/68/1 31/69/1 20/70/1
f 18/71/9 32/72/9 19/68/9
f 17/73/1 33/74/1 18/71/1
f 16/75/10 34/76/10 17/77/10
f 13/55/7 14/78/7 12/10/7
f 9/58/2 15/79/2 20/56/2
f 15/79/2 16/80/2 19/81/2
f 20/56/2 15/79/2 19/81/2
f 16/80/2 17/82/2 19/81/2
f 17/82/2 18/83/2 19/81/2
f 13/57/2 11/84/2 9/58/2
f 20/56/2 21/85/2 13/57/2
f 28/22/3 15/50/3 9/7/3
f 35/61/6 28/86/6 32/59/6
f 28/86/6 8/87/6 31/88/6
f 32/59/6 28/86/6 31/88/6
f 8/87/6 12/89/6 14/90/6
f 14/90/6 30/91/6 31/88/6
f 32/59/6 33/92/6 34/60/6
f 8/87/6 14/90/6 31/88/6
f 21/62/1 30/93/1 14/63/1
f 20/65/8 31/94/8 30/66/8
f 19/68/1 32/72/1 31/69/1
f 18/71/9 33/74/9 32/72/9
f 17/73/1 34/95/1 33/74/1
f 16/75/10 35/96/10 34/76/10
