# Blender v2.92.0 OBJ File: 'kenney_OGConvert.blend'
# www.blender.org
o Wood_Wall_Cross_01
v 0.500000 2.200000 0.000000
v 0.500000 2.200000 -0.500000
v 0.400000 2.200000 -0.500000
v 0.100000 2.200000 -0.500000
v -0.000000 2.200000 -0.500000
v 0.000000 2.200000 0.000000
v 0.500000 0.000000 -0.000000
v 0.500000 0.000000 -0.500000
v 0.500000 0.275000 -0.500000
v -0.000000 0.000000 -0.500000
v 0.100000 0.000000 -0.500000
v 0.400000 0.000000 -0.500000
v 0.000000 0.000000 0.000000
v 0.100000 0.000000 -2.500000
v 0.100000 2.200000 -2.500000
v 0.400000 0.000000 -2.500000
v 0.400000 0.000000 -0.750000
v 0.500000 0.000000 -2.500000
v -0.000000 0.000000 -2.500000
v -0.000001 0.000000 -3.000000
v 0.499999 0.000000 -3.000000
v 0.500000 1.925000 -2.500000
v 0.400000 1.925000 -2.500000
v 0.499999 2.200000 -3.000000
v 0.500000 2.200000 -2.500000
v -0.000001 2.200000 -3.000000
v -0.000000 2.200000 -2.500000
v 0.400000 2.200000 -2.500000
v 0.400000 2.200000 -2.250000
v 0.400000 0.275000 -0.500000
v 0.500000 0.000000 -0.750000
v 0.500000 2.200000 -2.250000
vt 0.729151 0.391209
vt 0.744681 0.391209
vt 0.744681 0.468860
vt 0.045660 0.391209
vt 0.344618 0.391209
vt 0.344618 0.468860
vt 0.812706 0.391209
vt 0.828236 0.468860
vt 0.750585 0.468860
vt 0.834140 0.474763
vt 0.849670 0.816429
vt 0.834140 0.816429
vt 0.428173 0.655382
vt 0.350521 0.997048
vt 0.350521 0.655382
vt 0.750585 0.816429
vt 0.828236 0.474763
vt 0.828236 0.816429
vt 0.766115 0.080603
vt 0.750585 0.002952
vt 0.828236 0.002952
vt 0.897501 0.045660
vt 0.913031 0.344618
vt 0.897500 0.344618
vt 0.301909 0.080603
vt 0.002952 0.080603
vt 0.002952 0.002952
vt 0.682560 0.080603
vt 0.667030 0.080603
vt 0.667030 0.002952
vt 0.667030 0.816429
vt 0.744681 0.474763
vt 0.744681 0.816429
vt 0.975152 0.344618
vt 0.959622 0.002952
vt 0.975152 0.002952
vt 0.891597 0.438583
vt 0.862868 0.464700
vt 0.834140 0.433098
vt 0.628204 0.350521
vt 0.643735 0.649479
vt 0.628204 0.649479
vt 0.913031 0.045660
vt 0.897501 0.002952
vt 0.913031 0.002952
vt 0.344618 0.119429
vt 0.682560 0.119429
vt 0.911791 0.773721
vt 0.896261 0.474763
vt 0.911791 0.474763
vt 0.896261 0.773721
vt 0.911791 0.816429
vt 0.896261 0.816429
vt 0.296165 0.773721
vt 0.280635 0.474763
vt 0.296165 0.474763
vt 0.812706 0.352383
vt 0.828236 0.391209
vt 0.917694 0.816429
vt 0.995346 0.474763
vt 0.995346 0.816429
vt 0.667030 0.468860
vt 0.682560 0.391209
vt 0.667030 0.391209
vt 0.002952 0.468860
vt 0.002952 0.391209
vt 0.750585 0.391209
vt 0.766115 0.391209
vt 0.849670 0.474763
vt 0.428173 0.997048
vt 0.750585 0.474763
vt 0.828236 0.080603
vt 0.812706 0.080603
vt 0.750585 0.080603
vt 0.344618 0.002952
vt 0.344618 0.080603
vt 0.744681 0.002952
vt 0.729151 0.080603
vt 0.744681 0.080603
vt 0.667030 0.474763
vt 0.959622 0.344618
vt 0.834140 0.029069
vt 0.891597 0.034553
vt 0.862868 0.002952
vt 0.643735 0.350521
vt 0.002952 0.352383
vt 0.667030 0.119429
vt 0.280635 0.773721
vt 0.828236 0.352383
vt 0.917695 0.474763
vt 0.350521 0.344618
vt 0.661127 0.002952
vt 0.661127 0.344618
vt 0.274731 0.773721
vt 0.002952 0.773721
vt 0.002952 0.474763
vt 0.350521 0.649479
vt 0.350521 0.350521
vt 0.622301 0.649479
vt 0.350521 0.002952
vn 0.0000 1.0000 0.0000
vn 1.0000 0.0000 -0.0000
vn -0.0000 -1.0000 -0.0000
vn 0.0000 0.0000 -1.0000
vn -1.0000 0.0000 0.0000
vn 0.0000 -0.0000 1.0000
vn -0.0000 -0.6727 -0.7399
vn 0.0000 0.6727 0.7399
s 1
f 4/1/1 5/2/1 6/3/1
f 9/4/2 2/5/2 1/6/2
f 12/7/3 7/8/3 13/9/3
f 5/10/4 11/11/4 10/12/4
f 5/13/5 13/14/5 6/15/5
f 7/16/6 6/17/6 13/18/6
f 14/19/3 20/20/3 21/21/3
f 22/22/6 16/23/6 18/24/6
f 22/25/2 18/26/2 21/27/2
f 28/28/1 25/29/1 24/30/1
f 19/31/5 26/32/5 20/33/5
f 19/34/6 15/35/6 27/36/6
f 29/37/5 28/38/5 23/39/5
f 23/40/7 31/41/7 17/42/7
f 23/43/6 25/44/6 28/45/6
f 32/46/2 9/4/2 22/25/2
f 29/47/1 25/29/1 28/28/1
f 9/48/4 3/49/4 2/50/4
f 30/51/4 8/52/4 12/53/4
f 30/54/8 32/55/8 29/56/8
f 17/57/3 8/58/3 12/7/3
f 20/59/4 24/60/4 21/61/4
f 6/3/1 1/62/1 3/63/1
f 1/62/1 2/64/1 3/63/1
f 3/63/1 4/1/1 6/3/1
f 1/6/2 7/65/2 9/4/2
f 7/65/2 8/66/2 9/4/2
f 13/9/3 10/67/3 11/68/3
f 12/7/3 8/58/3 7/8/3
f 13/9/3 11/68/3 12/7/3
f 5/10/4 4/69/4 11/11/4
f 5/13/5 10/70/5 13/14/5
f 7/16/6 1/71/6 6/17/6
f 21/21/3 18/72/3 16/73/3
f 14/19/3 19/74/3 20/20/3
f 21/21/3 16/73/3 14/19/3
f 22/22/6 23/43/6 16/23/6
f 21/27/2 24/75/2 22/25/2
f 24/75/2 25/76/2 22/25/2
f 24/30/1 26/77/1 15/78/1
f 26/77/1 27/79/1 15/78/1
f 15/78/1 28/28/1 24/30/1
f 19/31/5 27/80/5 26/32/5
f 19/34/6 14/81/6 15/35/6
f 23/39/5 17/82/5 30/83/5
f 17/82/5 12/84/5 30/83/5
f 30/83/5 29/37/5 23/39/5
f 23/40/7 22/85/7 31/41/7
f 23/43/6 22/22/6 25/44/6
f 8/66/2 31/86/2 9/4/2
f 31/86/2 22/25/2 9/4/2
f 22/25/2 25/76/2 32/46/2
f 29/47/1 32/87/1 25/29/1
f 9/48/4 30/51/4 3/49/4
f 30/51/4 9/48/4 8/52/4
f 30/54/8 9/88/8 32/55/8
f 17/57/3 31/89/3 8/58/3
f 20/59/4 26/90/4 24/60/4
f 11/91/5 15/92/5 14/93/5
f 14/19/3 16/73/3 17/57/3
f 17/94/2 16/95/2 23/96/2
f 4/1/1 3/63/1 29/47/1
f 3/97/2 30/98/2 29/99/2
f 11/91/5 4/100/5 15/92/5
f 12/7/3 11/68/3 17/57/3
f 11/68/3 14/19/3 17/57/3
f 29/47/1 28/28/1 15/78/1
f 15/78/1 4/1/1 29/47/1
f 23/43/6 28/45/6 15/35/6
f 4/69/4 3/49/4 30/51/4
f 15/35/6 14/81/6 23/43/6
f 14/81/6 16/23/6 23/43/6
f 30/51/4 12/53/4 11/11/4
f 11/11/4 4/69/4 30/51/4
