# Blender v2.92.0 OBJ File: 'kenney_OGConvert.blend'
# www.blender.org
o Wood_Window_Round_Sill_01
v 0.500000 2.200000 0.000000
v 0.500000 2.200000 -0.500000
v 0.400000 2.200000 -0.500000
v 0.100000 2.200000 -0.500000
v -0.000000 2.200000 -0.500000
v 0.000000 2.200000 0.000000
v 0.500000 0.000000 -0.000000
v 0.500000 0.000000 -0.500000
v -0.000000 0.000000 -0.500000
v 0.100000 0.000000 -0.500000
v 0.400000 0.000000 -0.500000
v 0.000000 0.000000 0.000000
v 0.100000 1.630770 -1.321570
v 0.100000 2.200000 -2.500000
v 0.400000 2.200000 -2.500000
v -0.000001 2.200000 -3.000000
v -0.000000 2.200000 -2.500000
v 0.500000 2.200000 -2.500000
v 0.499999 2.200000 -3.000000
v -0.000001 0.000000 -3.000000
v -0.000000 0.000000 -2.500000
v 0.500000 0.000000 -2.500000
v 0.400000 0.000000 -2.500000
v 0.100000 0.000000 -2.500000
v 0.499999 0.000000 -3.000000
v 0.400000 1.452340 -1.752340
v 0.400000 1.630770 -1.678430
v 0.400000 1.704680 -1.500000
v 0.400000 1.630770 -1.321570
v 0.400000 1.452340 -1.247660
v 0.400000 0.557662 -1.247660
v 0.100000 0.557662 -1.247660
v 0.100000 1.452340 -1.247660
v 0.400000 0.657662 -1.247660
v 0.100000 0.657662 -1.247660
v 0.400000 0.557662 -1.752340
v 0.100000 0.557662 -1.752340
v 0.400000 0.657662 -1.752340
v 0.100000 1.452340 -1.752340
v 0.100000 0.657662 -1.752340
v 0.100000 1.630770 -1.678430
v 0.100000 1.704680 -1.500000
v 0.500000 0.657662 -1.247660
v 0.500000 0.657662 -1.752340
v 0.500000 0.557662 -1.247660
v 0.500000 0.557662 -1.752340
vt 0.852134 0.477966
vt 0.871118 0.477966
vt 0.871118 0.572886
vt 0.301600 0.427751
vt 0.206681 0.845397
vt 0.206681 0.427751
vt 0.953790 0.477966
vt 0.972774 0.572886
vt 0.877854 0.572886
vt 0.801919 0.579622
vt 0.820903 0.996632
vt 0.801919 0.996632
vt 0.403257 0.427751
vt 0.308337 0.845397
vt 0.308337 0.427751
vt 0.504913 0.427751
vt 0.409993 0.844760
vt 0.409993 0.427751
vt 0.795182 0.098288
vt 0.776198 0.098288
vt 0.776198 0.003368
vt 0.003368 0.845397
vt 0.098288 0.427751
vt 0.098288 0.845397
vt 0.896838 0.098288
vt 0.877854 0.003368
vt 0.972774 0.003368
vt 0.759667 0.844760
vt 0.740683 0.427751
vt 0.759667 0.427751
vt 0.105025 0.845397
vt 0.199944 0.427751
vt 0.199944 0.845397
vt 0.511650 0.844760
vt 0.606569 0.427751
vt 0.606569 0.844760
vt 0.695978 0.779211
vt 0.714933 0.722259
vt 0.714933 0.779211
vt 0.613306 0.715522
vt 0.670258 0.619714
vt 0.670258 0.715522
vt 0.145303 0.315148
vt 0.241111 0.296164
vt 0.241111 0.315148
vt 0.632290 0.818067
vt 0.613306 0.722259
vt 0.632290 0.722259
vt 0.695978 0.798195
vt 0.689242 0.715522
vt 0.872315 0.636574
vt 0.853360 0.655558
vt 0.853360 0.636574
vt 0.872315 0.579622
vt 0.853360 0.579622
vt 0.695978 0.619714
vt 0.714962 0.715522
vt 0.695978 0.715522
vt 0.827639 0.579622
vt 0.846623 0.996632
vt 0.827639 0.996632
vt 0.795182 0.996632
vt 0.776198 0.579622
vt 0.795182 0.579622
vt 0.776198 0.572886
vt 0.795182 0.477966
vt 0.776198 0.477966
vt 0.301600 0.845397
vt 0.877854 0.477966
vt 0.896838 0.477966
vt 0.972774 0.477966
vt 0.820903 0.579622
vt 0.403257 0.845397
vt 0.504913 0.844760
vt 0.871118 0.003368
vt 0.852134 0.098288
vt 0.871118 0.098288
vt 0.003368 0.427751
vt 0.972774 0.098288
vt 0.953790 0.098288
vt 0.877854 0.098288
vt 0.740683 0.844760
vt 0.105025 0.427751
vt 0.511650 0.427751
vt 0.695978 0.722259
vt 0.613306 0.619714
vt 0.145303 0.296164
vt 0.689242 0.722259
vt 0.689242 0.818067
vt 0.613306 0.818067
vt 0.714933 0.798195
vt 0.689242 0.619714
vt 0.872315 0.655558
vt 0.714962 0.619714
vt 0.846623 0.579622
vt 0.776198 0.996632
vt 0.003368 0.003368
vt 0.159334 0.111430
vt 0.003368 0.421014
vt 0.383046 0.003368
vt 0.769461 0.421014
vt 0.627526 0.279079
vt 0.769461 0.003368
vt 0.613495 0.312952
vt 0.579622 0.326983
vt 0.545749 0.312952
vt 0.389783 0.421014
vt 0.531718 0.279079
vt 0.531718 0.109234
vt 0.389783 0.003368
vt 0.383046 0.421014
vt 0.145303 0.145303
vt 0.670258 0.462347
vt 0.613306 0.427751
vt 0.670258 0.427751
vt 0.670258 0.612978
vt 0.613306 0.462347
vt 0.766404 0.427751
vt 0.766404 0.597596
vt 0.766404 0.578612
vt 0.627526 0.109234
vt 0.627526 0.128218
vt 0.676994 0.427751
vt 0.733946 0.578382
vt 0.676994 0.578382
vt 0.241111 0.145303
vt 0.227080 0.111430
vt 0.193207 0.097399
vt 0.670258 0.892550
vt 0.613306 0.858677
vt 0.670258 0.858677
vt 0.613306 0.824804
vt 0.670258 0.824804
vt 0.733946 0.612978
vt 0.613306 0.612978
vt 0.733946 0.427751
vt 0.613306 0.892550
vt 0.676994 0.612978
vn 0.0000 1.0000 0.0000
vn 1.0000 0.0000 -0.0000
vn -0.0000 -1.0000 -0.0000
vn 0.0000 0.0000 -1.0000
vn -1.0000 -0.0000 0.0000
vn 0.0000 -0.0000 1.0000
vn 0.0000 -0.3827 -0.9239
vn 0.0000 -0.9239 -0.3827
vn 0.0000 -0.9239 0.3827
vn 0.0000 -0.3827 0.9239
s 1
f 4/1/1 5/2/1 6/3/1
f 8/4/2 1/5/2 7/6/2
f 11/7/3 7/8/3 12/9/3
f 5/10/4 10/11/4 9/12/4
f 5/13/5 12/14/5 6/15/5
f 7/16/6 6/17/6 12/18/6
f 15/19/1 18/20/1 19/21/1
f 21/22/5 16/23/5 20/24/5
f 24/25/3 20/26/3 25/27/3
f 18/28/6 23/29/6 22/30/6
f 18/31/2 25/32/2 19/33/2
f 20/34/4 19/35/4 25/36/4
f 34/37/6 32/38/6 31/39/6
f 32/40/3 36/41/3 31/42/3
f 32/43/5 40/44/5 37/45/5
f 34/46/1 44/47/1 38/48/1
f 31/39/6 43/49/6 34/37/6
f 36/41/3 45/50/3 31/42/3
f 38/51/4 46/52/4 36/53/4
f 40/54/4 36/53/4 37/55/4
f 46/56/2 43/57/2 45/58/2
f 21/59/6 14/60/6 17/61/6
f 8/62/4 3/63/4 2/64/4
f 6/3/1 1/65/1 3/66/1
f 1/65/1 2/67/1 3/66/1
f 3/66/1 4/1/1 6/3/1
f 8/4/2 2/68/2 1/5/2
f 12/9/3 9/69/3 10/70/3
f 11/7/3 8/71/3 7/8/3
f 12/9/3 10/70/3 11/7/3
f 5/10/4 4/72/4 10/11/4
f 5/13/5 9/73/5 12/14/5
f 7/16/6 1/74/6 6/17/6
f 19/21/1 16/75/1 14/76/1
f 16/75/1 17/77/1 14/76/1
f 14/76/1 15/19/1 19/21/1
f 21/22/5 17/78/5 16/23/5
f 25/27/3 22/79/3 23/80/3
f 24/25/3 21/81/3 20/26/3
f 25/27/3 23/80/3 24/25/3
f 18/28/6 15/82/6 23/29/6
f 18/31/2 22/83/2 25/32/2
f 20/34/4 16/84/4 19/35/4
f 34/37/6 35/85/6 32/38/6
f 32/40/3 37/86/3 36/41/3
f 32/43/5 35/87/5 40/44/5
f 40/88/1 35/89/1 34/46/1
f 34/46/1 43/90/1 44/47/1
f 38/48/1 40/88/1 34/46/1
f 31/39/6 45/91/6 43/49/6
f 36/41/3 46/92/3 45/50/3
f 38/51/4 44/93/4 46/52/4
f 40/54/4 38/51/4 36/53/4
f 46/56/2 44/94/2 43/57/2
f 21/59/6 24/95/6 14/60/6
f 8/62/4 11/96/4 3/63/4
f 4/97/5 13/98/5 10/99/5
f 13/98/5 4/97/5 14/100/5
f 14/76/1 3/66/1 15/19/1
f 15/101/2 26/102/2 23/103/2
f 15/101/2 27/104/2 26/102/2
f 15/101/2 28/105/2 27/104/2
f 15/101/2 29/106/2 28/105/2
f 3/107/2 29/106/2 15/101/2
f 29/106/2 3/107/2 30/108/2
f 30/108/2 3/107/2 31/109/2
f 11/110/2 31/109/2 3/107/2
f 31/109/2 11/110/2 23/103/2
f 24/25/3 11/7/3 10/70/3
f 10/99/5 32/43/5 24/111/5
f 32/43/5 10/99/5 33/112/5
f 10/99/5 13/98/5 33/112/5
f 30/113/7 13/114/7 29/115/7
f 34/116/4 33/117/4 30/113/4
f 30/118/2 31/119/2 34/120/2
f 31/109/2 23/103/2 36/121/2
f 36/121/2 23/103/2 38/122/2
f 38/122/2 23/103/2 26/102/2
f 40/123/6 26/124/6 39/125/6
f 39/126/5 14/100/5 40/44/5
f 41/127/5 14/100/5 39/126/5
f 42/128/5 14/100/5 41/127/5
f 13/98/5 14/100/5 42/128/5
f 29/129/8 42/130/8 28/131/8
f 28/131/9 41/132/9 27/133/9
f 27/134/10 39/125/10 26/124/10
f 40/44/5 14/100/5 37/45/5
f 24/111/5 37/45/5 14/100/5
f 24/111/5 32/43/5 37/45/5
f 32/43/5 33/112/5 35/87/5
f 14/76/1 4/1/1 3/66/1
f 24/25/3 23/80/3 11/7/3
f 30/113/7 33/117/7 13/114/7
f 34/116/4 35/135/4 33/117/4
f 40/123/6 38/136/6 26/124/6
f 29/129/8 13/137/8 42/130/8
f 28/131/9 42/130/9 41/132/9
f 27/134/10 41/138/10 39/125/10
