####
#
#	OBJ File Generated by LightWave3D
#	LightWave3D OBJ Export v2.3
#
####
o jims_rat_clubhull.obj
mtllib jims_rat_clubhull.mtl
g default
v 0.0344593 0.495658 0.0159651
v 0.0138181 0.506097 -0.0629749
v -0.0530527 0.483779 -0.0814422
v -0.128696 0.481137 -0.0529123
v -0.160029 0.480043 0.0159651
v -0.128696 0.481137 0.0848425
v -0.0530527 0.483779 0.113372
v 0.0216608 0.510229 0.088989
v 0.0499244 0.602023 0.0159651
v 0.014898 0.594614 -0.0869201
v -0.0195277 0.598419 -0.107479
v -0.116561 0.597941 -0.0307839
v -0.164027 0.594552 0.0159651
v -0.132695 0.595646 0.0848425
v -0.0570514 0.598287 0.113372
v 0.0185919 0.600929 0.0848425
v 0.00388354 0.40845 0.0159651
v -0.00451796 0.409428 -0.0130396
v -0.0468581 0.395193 0.0159651
v -0.00511908 0.410037 0.0324312
v 0.0410493 -0.0483942 0.002253
v 0.0338585 -0.0486453 -0.0219521
v -0.0308937 -0.00458263 0.002253
v 0.0338585 -0.0486453 0.0264581
v 0.0784508 -0.0890822 0.00119344
v 0.0614468 -0.0914719 -0.0365303
v -0.0765324 -0.110864 0.00119344
v 0.0614468 -0.0914719 0.034128
v 0.0242411 0.646701 0.0153666
v -0.0183178 0.669677 0.0479743
v -0.118453 0.651588 0.0159651
v -0.00881436 0.674945 -0.0137245
v -0.0595284 -0.108474 0.034128
v -0.0595284 -0.108474 -0.0365303
v -0.0271539 -0.166446 -0.0365303
v -0.0271539 -0.166446 0.0389172
v 0.0426004 -0.146441 0.0389172
v -0.054009 -0.161193 0.00119344
v 0.0426004 -0.146441 -0.0365303
v 0.0653733 -0.126278 0.00119344
v -0.0237028 -0.00433152 -0.0219521
v -0.0237028 -0.00433152 0.0264581
v -0.0358902 0.398772 -0.0130396
v -0.0364913 0.399381 0.0324312
v -0.0539251 0.683823 -0.0238093
v -0.0644125 0.674662 0.0516653
v -0.0244044 0.460625 -0.000232133
v -0.0364297 0.468814 -0.000232133
v -0.0352113 0.456335 -0.000232133
vn 0.731952 -0.286533 -0.618179
vn 0.993567 0.11208 0.0161788
vn 0.960756 -0.276944 0.0158322
vn 0.709082 0.398416 -0.581779
vn 0.993567 0.11208 0.0161788
vn 0.731952 -0.286533 -0.618179
vn -0.0561613 0.154978 -0.98632
vn 0.709082 0.398416 -0.581779
vn 0.731952 -0.286533 -0.618179
vn -0.0561613 0.154978 -0.98632
vn 0.731952 -0.286533 -0.618179
vn 0.0700509 -0.456268 -0.887081
vn -0.628185 0.379343 -0.679325
vn -0.0561613 0.154978 -0.98632
vn -0.656285 -0.31795 -0.68425
vn -0.927616 0.294076 -0.230321
vn -0.656285 -0.31795 -0.68425
vn -0.917273 -0.386045 0.0978797
vn -0.712908 0.334386 0.616399
vn -0.917273 -0.386045 0.0978797
vn -0.546857 -0.44153 0.711336
vn -0.712908 0.334386 0.616399
vn -0.927616 0.294076 -0.230321
vn -0.917273 -0.386045 0.0978797
vn 0.00805237 0.28727 0.957816
vn -0.546857 -0.44153 0.711336
vn 0.0831442 -0.421423 0.903045
vn 0.00805237 0.28727 0.957816
vn -0.712908 0.334386 0.616399
vn -0.546857 -0.44153 0.711336
vn 0.732807 -0.175611 0.657385
vn 0.00805237 0.28727 0.957816
vn 0.0831442 -0.421423 0.903045
vn 0.659692 0.380801 0.647917
vn 0.00805237 0.28727 0.957816
vn 0.732807 -0.175611 0.657385
vn 0.993567 0.11208 0.0161788
vn 0.659692 0.380801 0.647917
vn 0.732807 -0.175611 0.657385
vn 0.993567 0.11208 0.0161788
vn 0.732807 -0.175611 0.657385
vn 0.960756 -0.276944 0.0158322
vn 0.960756 -0.276944 0.0158322
vn 0.732807 -0.175611 0.657385
vn 0.546069 -0.30299 0.781029
vn 0.960756 -0.276944 0.0158322
vn 0.546069 -0.30299 0.781029
vn 0.995798 -0.0542969 0.0737488
vn 0.58369 -0.273775 -0.76443
vn 0.960756 -0.276944 0.0158322
vn 0.995798 -0.0542969 0.0737488
vn 0.731952 -0.286533 -0.618179
vn 0.960756 -0.276944 0.0158322
vn 0.58369 -0.273775 -0.76443
vn 0.0700509 -0.456268 -0.887081
vn 0.731952 -0.286533 -0.618179
vn 0.58369 -0.273775 -0.76443
vn 0.0700509 -0.456268 -0.887081
vn 0.58369 -0.273775 -0.76443
vn -0.381927 -0.492646 -0.781941
vn -0.656285 -0.31795 -0.68425
vn 0.0700509 -0.456268 -0.887081
vn -0.381927 -0.492646 -0.781941
vn -0.656285 -0.31795 -0.68425
vn -0.381927 -0.492646 -0.781941
vn -0.87399 -0.48322 0.0513733
vn -0.917273 -0.386045 0.0978797
vn -0.656285 -0.31795 -0.68425
vn -0.87399 -0.48322 0.0513733
vn -0.300071 -0.513188 0.804111
vn -0.546857 -0.44153 0.711336
vn -0.87399 -0.48322 0.0513733
vn -0.546857 -0.44153 0.711336
vn -0.917273 -0.386045 0.0978797
vn -0.87399 -0.48322 0.0513733
vn 0.0831442 -0.421423 0.903045
vn -0.546857 -0.44153 0.711336
vn -0.300071 -0.513188 0.804111
vn 0.546069 -0.30299 0.781029
vn 0.0831442 -0.421423 0.903045
vn -0.300071 -0.513188 0.804111
vn 0.732807 -0.175611 0.657385
vn 0.0831442 -0.421423 0.903045
vn 0.546069 -0.30299 0.781029
vn 0.995798 -0.0542969 0.0737488
vn 0.546069 -0.30299 0.781029
vn 0.578748 0.271306 0.769054
vn 0.915019 0.40341 0.000483664
vn 0.995798 -0.0542969 0.0737488
vn 0.578748 0.271306 0.769054
vn 0.605073 0.328744 -0.72513
vn 0.995798 -0.0542969 0.0737488
vn 0.915019 0.40341 0.000483664
vn 0.58369 -0.273775 -0.76443
vn 0.995798 -0.0542969 0.0737488
vn 0.605073 0.328744 -0.72513
vn -0.633191 0.148951 -0.759528
vn 0.58369 -0.273775 -0.76443
vn 0.605073 0.328744 -0.72513
vn -0.381927 -0.492646 -0.781941
vn 0.58369 -0.273775 -0.76443
vn -0.633191 0.148951 -0.759528
vn -0.87399 -0.48322 0.0513733
vn -0.381927 -0.492646 -0.781941
vn -0.633191 0.148951 -0.759528
vn -0.87399 -0.48322 0.0513733
vn -0.633191 0.148951 -0.759528
vn -0.983176 0.182661 0.000142806
vn -0.87399 -0.48322 0.0513733
vn -0.983176 0.182661 0.000142806
vn -0.61017 0.11315 0.784149
vn -0.300071 -0.513188 0.804111
vn -0.87399 -0.48322 0.0513733
vn -0.61017 0.11315 0.784149
vn 0.546069 -0.30299 0.781029
vn -0.300071 -0.513188 0.804111
vn -0.61017 0.11315 0.784149
vn 0.546069 -0.30299 0.781029
vn -0.61017 0.11315 0.784149
vn 0.578748 0.271306 0.769054
vn 0.928479 0.370841 0.0200768
vn 0.578748 0.271306 0.769054
vn 0.603102 0.0565228 0.795659
vn 0.915019 0.40341 0.000483664
vn 0.578748 0.271306 0.769054
vn 0.928479 0.370841 0.0200768
vn 0.605073 0.328744 -0.72513
vn 0.915019 0.40341 0.000483664
vn 0.928479 0.370841 0.0200768
vn 0.605073 0.328744 -0.72513
vn 0.928479 0.370841 0.0200768
vn 0.62084 0.0708115 -0.780732
vn 0.605073 0.328744 -0.72513
vn 0.62084 0.0708115 -0.780732
vn -0.422228 -0.00791762 -0.906455
vn -0.633191 0.148951 -0.759528
vn 0.605073 0.328744 -0.72513
vn -0.422228 -0.00791762 -0.906455
vn -0.633191 0.148951 -0.759528
vn -0.422228 -0.00791762 -0.906455
vn -0.990841 0.133745 0.0185978
vn -0.983176 0.182661 0.000142806
vn -0.633191 0.148951 -0.759528
vn -0.990841 0.133745 0.0185978
vn -0.417475 -0.00874535 0.908646
vn -0.61017 0.11315 0.784149
vn -0.990841 0.133745 0.0185978
vn -0.61017 0.11315 0.784149
vn -0.983176 0.182661 0.000142806
vn -0.990841 0.133745 0.0185978
vn 0.578748 0.271306 0.769054
vn -0.61017 0.11315 0.784149
vn -0.417475 -0.00874535 0.908646
vn 0.603102 0.0565228 0.795659
vn 0.578748 0.271306 0.769054
vn -0.417475 -0.00874535 0.908646
vn 0.779627 0.622543 0.0679777
vn 0.993567 0.11208 0.0161788
vn 0.709082 0.398416 -0.581779
vn 0.49568 0.843268 -0.207846
vn 0.779627 0.622543 0.0679777
vn 0.709082 0.398416 -0.581779
vn 0.779627 0.622543 0.0679777
vn 0.347749 0.830678 0.434793
vn 0.659692 0.380801 0.647917
vn 0.993567 0.11208 0.0161788
vn 0.779627 0.622543 0.0679777
vn 0.659692 0.380801 0.647917
vn 0.347749 0.830678 0.434793
vn -0.236792 0.845433 0.478719
vn 0.00805237 0.28727 0.957816
vn 0.659692 0.380801 0.647917
vn 0.347749 0.830678 0.434793
vn 0.00805237 0.28727 0.957816
vn -0.236792 0.845433 0.478719
vn -0.712908 0.334386 0.616399
vn 0.00805237 0.28727 0.957816
vn -0.681661 0.726368 -0.0879047
vn -0.927616 0.294076 -0.230321
vn -0.712908 0.334386 0.616399
vn -0.236792 0.845433 0.478719
vn -0.681661 0.726368 -0.0879047
vn -0.712908 0.334386 0.616399
vn -0.681661 0.726368 -0.0879047
vn -0.628185 0.379343 -0.679325
vn -0.927616 0.294076 -0.230321
vn -0.681661 0.726368 -0.0879047
vn -0.106576 0.915028 -0.389056
vn -0.628185 0.379343 -0.679325
vn -0.628185 0.379343 -0.679325
vn -0.106576 0.915028 -0.389056
vn -0.0561613 0.154978 -0.98632
vn -0.106576 0.915028 -0.389056
vn 0.49568 0.843268 -0.207846
vn 0.709082 0.398416 -0.581779
vn -0.0561613 0.154978 -0.98632
vn -0.106576 0.915028 -0.389056
vn 0.709082 0.398416 -0.581779
vn 0.928479 0.370841 0.0200768
vn 0.603102 0.0565228 0.795659
vn 0.907065 -0.420755 0.0140883
vn 0.907065 -0.420755 0.0140883
vn 0.603102 0.0565228 0.795659
vn 0.512332 -0.520737 0.682897
vn 0.62084 0.0708115 -0.780732
vn 0.928479 0.370841 0.0200768
vn 0.907065 -0.420755 0.0140883
vn 0.62084 0.0708115 -0.780732
vn 0.907065 -0.420755 0.0140883
vn 0.482352 -0.684979 -0.546022
vn -0.422228 -0.00791762 -0.906455
vn 0.62084 0.0708115 -0.780732
vn 0.482352 -0.684979 -0.546022
vn -0.422228 -0.00791762 -0.906455
vn 0.482352 -0.684979 -0.546022
vn -0.236371 -0.823404 -0.515882
vn -0.990841 0.133745 0.0185978
vn -0.422228 -0.00791762 -0.906455
vn -0.799707 -0.600225 0.0141085
vn -0.799707 -0.600225 0.0141085
vn -0.422228 -0.00791762 -0.906455
vn -0.236371 -0.823404 -0.515882
vn -0.417475 -0.00874535 0.908646
vn -0.990841 0.133745 0.0185978
vn -0.799707 -0.600225 0.0141085
vn -0.417475 -0.00874535 0.908646
vn -0.799707 -0.600225 0.0141085
vn -0.121634 -0.900584 0.417317
vn 0.603102 0.0565228 0.795659
vn -0.417475 -0.00874535 0.908646
vn 0.512332 -0.520737 0.682897
vn 0.512332 -0.520737 0.682897
vn -0.417475 -0.00874535 0.908646
vn -0.121634 -0.900584 0.417317
vn -0.799707 -0.600225 0.0141085
vn -0.236371 -0.823404 -0.515882
vn -0.121634 -0.900584 0.417317
vn 0.482352 -0.684979 -0.546022
vn 0.512332 -0.520737 0.682897
vn -0.121634 -0.900584 0.417317
vn -0.236371 -0.823404 -0.515882
vn 0.482352 -0.684979 -0.546022
vn -0.121634 -0.900584 0.417317
vn 0.482352 -0.684979 -0.546022
vn 0.907065 -0.420755 0.0140883
vn 0.512332 -0.520737 0.682897
vn -0.236792 0.845433 0.478719
vn -0.106576 0.915028 -0.389056
vn -0.681661 0.726368 -0.0879047
vn 0.49568 0.843268 -0.207846
vn -0.106576 0.915028 -0.389056
vn 0.347749 0.830678 0.434793
vn -0.106576 0.915028 -0.389056
vn -0.236792 0.845433 0.478719
vn 0.347749 0.830678 0.434793
vn 0.49568 0.843268 -0.207846
vn 0.347749 0.830678 0.434793
vn 0.779627 0.622543 0.0679777
vn 0 0 1
vn 0 0 1
vn 0 0 1
vn -0.0561613 0.154978 -0.98632
vn 0.0700509 -0.456268 -0.887081
vn -0.656285 -0.31795 -0.68425
vn -0.927616 0.294076 -0.230321
vn -0.628185 0.379343 -0.679325
vn -0.656285 -0.31795 -0.68425
g group_Default
usemtl Default
s off
f 2//1 9//2 1//3
f 10//4 9//5 2//6
f 11//7 10//8 2//9
f 11//10 2//11 3//12
f 12//13 11//14 4//15
f 13//16 4//17 5//18
f 14//19 5//20 6//21
f 14//22 13//23 5//24
f 15//25 6//26 7//27
f 15//28 14//29 6//30
f 8//31 15//32 7//33
f 16//34 15//35 8//36
f 9//37 16//38 8//39
f 9//40 8//41 1//42
f 1//43 8//44 20//45
f 1//46 20//47 17//48
f 18//49 1//50 17//51
f 2//52 1//53 18//54
f 3//55 2//56 18//57
f 3//58 18//59 43//60
f 4//61 3//62 43//63
f 4//64 43//65 19//66
f 5//67 4//68 19//69
f 44//70 6//71 19//72
f 6//73 5//74 19//75
f 7//76 6//77 44//78
f 20//79 7//80 44//81
f 8//82 7//83 20//84
f 17//85 20//86 24//87
f 21//88 17//89 24//90
f 22//91 17//92 21//93
f 18//94 17//95 22//96
f 41//97 18//98 22//99
f 43//100 18//101 41//102
f 19//103 43//104 41//105
f 19//106 41//107 23//108
f 19//109 23//110 42//111
f 44//112 19//113 42//114
f 20//115 44//116 42//117
f 20//118 42//119 24//120
f 25//121 24//122 28//123
f 21//124 24//125 25//126
f 22//127 21//128 25//129
f 22//130 25//131 26//132
f 22//133 26//134 34//135
f 41//136 22//137 34//138
f 41//139 34//140 27//141
f 23//142 41//143 27//144
f 33//145 42//146 27//147
f 42//148 23//149 27//150
f 24//151 42//152 33//153
f 28//154 24//155 33//156
f 29//157 9//158 10//159
f 32//160 29//161 10//162
f 29//163 30//164 16//165
f 9//166 29//167 16//168
f 30//169 46//170 15//171
f 16//172 30//173 15//174
f 46//175 14//176 15//177
f 31//178 13//179 14//180
f 46//181 31//182 14//183
f 31//184 12//185 13//186
f 31//187 45//188 12//189
f 12//190 45//191 11//192
f 45//193 32//194 10//195
f 11//196 45//197 10//198
f 25//199 28//200 40//201
f 40//202 28//203 37//204
f 26//205 25//206 40//207
f 26//208 40//209 39//210
f 34//211 26//212 39//213
f 34//214 39//215 35//216
f 27//217 34//218 38//219
f 38//220 34//221 35//222
f 33//223 27//224 38//225
f 33//226 38//227 36//228
f 28//229 33//230 37//231
f 37//232 33//233 36//234
f 38//235 35//236 36//237
f 39//238 37//239 36//240
f 35//241 39//242 36//243
f 39//244 40//245 37//246
f 46//247 45//248 31//249
f 32//250 45//251 30//252
f 45//253 46//254 30//255
f 32//256 30//257 29//258
g group_Default
usemtl Default
s 1
f 47//259 48//260 49//261
g group_Default
usemtl Default
s off
f 11//262 3//263 4//264
f 13//265 12//266 4//267
