####
#
#	OBJ File Generated by LightWave3D
#	LightWave3D OBJ Export v2.3
#
####
o jims_rat_swordhull.obj
mtllib jims_rat_swordhull.mtl
g default
v -0.144797 0.128093 -0
v -0.196558 0.786977 -0
v -0.0747695 0.607657 0.0197691
v -0.0398181 0.240133 0.0197691
v 0.0183074 0.0939773 0.0197691
v -0.0267472 0.0901923 0.0197691
v 0.0462571 0.11867 0.0197691
v 0.0306418 0.67769 -0
v -0.0228948 -0.0201251 0.0197691
v 0.0221598 -0.01634 0.0197691
v 0.0478355 -0.0738251 0.0197691
v -0.0955692 -0.107869 0.0197691
v -0.0718547 -0.154377 0.0197691
v 0.0245462 -0.129864 0.0197691
v -0.0747695 0.607657 -0.0197691
v -0.0398181 0.240133 -0.0197691
v 0.0183074 0.0939773 -0.0197691
v -0.0267472 0.0901923 -0.0197691
v 0.0462571 0.11867 -0.0197691
v -0.0228948 -0.0201251 -0.0197691
v 0.0221598 -0.01634 -0.0197691
v 0.0478355 -0.0738251 -0.0197691
v -0.0955692 -0.107869 -0.0197691
v -0.0718547 -0.154377 -0.0197691
v 0.0245462 -0.129864 -0.0197691
v -0.0361272 0.410519 -0.000467
v -0.0490409 0.419313 -0.000467
v -0.0477325 0.405912 -0.000467
vn -0.0227845 0.0344318 0.999147
vn -0.57416 0.818743 -0
vn -0.790095 -0.612984 3.50592e-008
vn -0.0678896 -0.00618624 0.997674
vn -0.0227845 0.0344318 0.999147
vn -0.790095 -0.612984 3.50592e-008
vn -0.0678896 -0.00618624 0.997674
vn -0.790095 -0.612984 3.50592e-008
vn -0.51502 -0.215799 0.829569
vn 0.960117 0.279598 -0
vn -0.57416 0.818743 -0
vn -0.0227845 0.0344318 0.999147
vn 0.510886 -0.19143 0.838063
vn -0.0678896 -0.00618624 0.997674
vn 0.571295 -0.35994 0.737608
vn -0.0227845 0.0344318 0.999147
vn -0.0678896 -0.00618624 0.997674
vn 0.510886 -0.19143 0.838063
vn 0.960117 0.279598 -0
vn -0.0227845 0.0344318 0.999147
vn 0.510886 -0.19143 0.838063
vn 0.571295 -0.35994 0.737608
vn -0.0678896 -0.00618624 0.997674
vn -0.51502 -0.215799 0.829569
vn 0.571295 -0.35994 0.737608
vn -0.51502 -0.215799 0.829569
vn 0.691984 0.113503 0.712934
vn 0.691984 0.113503 0.712934
vn -0.51502 -0.215799 0.829569
vn -0.616149 0.301042 0.727829
vn 0.691984 0.113503 0.712934
vn -0.616149 0.301042 0.727829
vn 0.671892 0.105534 0.733092
vn 0.671892 0.105534 0.733092
vn -0.616149 0.301042 0.727829
vn -0.48369 0.053471 0.873605
vn 0.671892 0.105534 0.733092
vn -0.48369 0.053471 0.873605
vn 0.570905 -0.660239 0.488008
vn 0.570905 -0.660239 0.488008
vn -0.48369 0.053471 0.873605
vn -0.585212 -0.715708 0.381169
vn -0.0227845 0.0344318 -0.999147
vn -0.0678896 -0.00618624 -0.997674
vn -0.790095 -0.612984 3.50592e-008
vn -0.57416 0.818743 -0
vn -0.0227845 0.0344318 -0.999147
vn -0.790095 -0.612984 3.50592e-008
vn -0.790095 -0.612984 3.50592e-008
vn -0.0678896 -0.00618624 -0.997674
vn -0.337801 -0.229462 -0.912819
vn -0.57416 0.818743 -0
vn 0.960117 0.279598 -0
vn -0.0227845 0.0344318 -0.999147
vn -0.0678896 -0.00618624 -0.997674
vn 0.599806 -0.34587 -0.721531
vn 0.654227 -0.167099 -0.737608
vn -0.0678896 -0.00618624 -0.997674
vn -0.0227845 0.0344318 -0.999147
vn 0.599806 -0.34587 -0.721531
vn -0.0227845 0.0344318 -0.999147
vn 0.960117 0.279598 -0
vn 0.599806 -0.34587 -0.721531
vn -0.0678896 -0.00618624 -0.997674
vn 0.654227 -0.167099 -0.737608
vn -0.337801 -0.229462 -0.912819
vn -0.337801 -0.229462 -0.912819
vn 0.671469 0.202126 -0.712934
vn -0.671767 0.137821 -0.727829
vn -0.337801 -0.229462 -0.912819
vn 0.654227 -0.167099 -0.737608
vn 0.671469 0.202126 -0.712934
vn -0.671767 0.137821 -0.727829
vn 0.674426 -0.087901 -0.733092
vn -0.739677 0.0817699 -0.667976
vn -0.671767 0.137821 -0.727829
vn 0.671469 0.202126 -0.712934
vn 0.674426 -0.087901 -0.733092
vn -0.739677 0.0817699 -0.667976
vn 0.436014 -0.504241 -0.745408
vn -0.151705 -0.911974 -0.381169
vn -0.739677 0.0817699 -0.667976
vn 0.674426 -0.087901 -0.733092
vn 0.436014 -0.504241 -0.745408
vn 0.599806 -0.34587 -0.721531
vn 0.960117 0.279598 -0
vn 0.510886 -0.19143 0.838063
vn 0.654227 -0.167099 -0.737608
vn 0.599806 -0.34587 -0.721531
vn 0.571295 -0.35994 0.737608
vn 0.599806 -0.34587 -0.721531
vn 0.510886 -0.19143 0.838063
vn 0.571295 -0.35994 0.737608
vn 0.671469 0.202126 -0.712934
vn 0.654227 -0.167099 -0.737608
vn 0.691984 0.113503 0.712934
vn 0.654227 -0.167099 -0.737608
vn 0.571295 -0.35994 0.737608
vn 0.691984 0.113503 0.712934
vn 0.674426 -0.087901 -0.733092
vn 0.671469 0.202126 -0.712934
vn 0.671892 0.105534 0.733092
vn 0.671469 0.202126 -0.712934
vn 0.691984 0.113503 0.712934
vn 0.671892 0.105534 0.733092
vn 0.436014 -0.504241 -0.745408
vn 0.674426 -0.087901 -0.733092
vn 0.570905 -0.660239 0.488008
vn 0.674426 -0.087901 -0.733092
vn 0.671892 0.105534 0.733092
vn 0.570905 -0.660239 0.488008
vn 0.436014 -0.504241 -0.745408
vn 0.570905 -0.660239 0.488008
vn -0.151705 -0.911974 -0.381169
vn -0.151705 -0.911974 -0.381169
vn 0.570905 -0.660239 0.488008
vn -0.585212 -0.715708 0.381169
vn -0.739677 0.0817699 -0.667976
vn -0.151705 -0.911974 -0.381169
vn -0.585212 -0.715708 0.381169
vn -0.48369 0.053471 0.873605
vn -0.739677 0.0817699 -0.667976
vn -0.585212 -0.715708 0.381169
vn -0.616149 0.301042 0.727829
vn -0.739677 0.0817699 -0.667976
vn -0.48369 0.053471 0.873605
vn -0.616149 0.301042 0.727829
vn -0.671767 0.137821 -0.727829
vn -0.739677 0.0817699 -0.667976
vn -0.51502 -0.215799 0.829569
vn -0.671767 0.137821 -0.727829
vn -0.616149 0.301042 0.727829
vn -0.51502 -0.215799 0.829569
vn -0.337801 -0.229462 -0.912819
vn -0.671767 0.137821 -0.727829
vn -0.790095 -0.612984 3.50592e-008
vn -0.337801 -0.229462 -0.912819
vn -0.51502 -0.215799 0.829569
vn 0 0 1
vn 0 0 1
vn 0 0 1
g group_Default
usemtl Default
s off
f 3//1 2//2 1//3
f 4//4 3//5 1//6
f 4//7 1//8 6//9
f 8//10 2//11 3//12
f 7//13 4//14 5//15
f 3//16 4//17 7//18
f 8//19 3//20 7//21
f 5//22 4//23 6//24
f 5//25 6//26 10//27
f 10//28 6//29 9//30
f 10//31 9//32 11//33
f 11//34 9//35 12//36
f 11//37 12//38 14//39
f 14//40 12//41 13//42
f 15//43 16//44 1//45
f 2//46 15//47 1//48
f 1//49 16//50 18//51
f 2//52 8//53 15//54
f 16//55 19//56 17//57
f 16//58 15//59 19//60
f 15//61 8//62 19//63
f 16//64 17//65 18//66
f 18//67 21//68 20//69
f 18//70 17//71 21//72
f 20//73 22//74 23//75
f 20//76 21//77 22//78
f 23//79 25//80 24//81
f 23//82 22//83 25//84
f 19//85 8//86 7//87
f 17//88 19//89 5//90
f 19//91 7//92 5//93
f 21//94 17//95 10//96
f 17//97 5//98 10//99
f 22//100 21//101 11//102
f 21//103 10//104 11//105
f 25//106 22//107 14//108
f 22//109 11//110 14//111
f 25//112 14//113 24//114
f 24//115 14//116 13//117
f 23//118 24//119 13//120
f 12//121 23//122 13//123
f 9//124 23//125 12//126
f 9//127 20//128 23//129
f 6//130 20//131 9//132
f 6//133 18//134 20//135
f 1//136 18//137 6//138
g group_Default
usemtl Default
s 1
f 26//139 27//140 28//141
