# Blender v2.92.0 OBJ File: 'quaternius_OGConvert.blend'
# www.blender.org
o Male_Hairstyle_2_Human_CylinderMesh.000
v 0.182913 -0.203180 -0.150085
v 0.209312 -0.143787 -0.148265
v 0.198851 -0.046048 -0.197807
v 0.228919 -0.023425 0.174400
v 0.238953 -0.147487 0.186924
v 0.239639 -0.063519 -0.039397
v 0.198411 0.051422 -0.178142
v 0.222993 0.066779 0.172564
v 0.251264 0.058624 -0.036362
v 0.173428 0.161433 -0.144193
v 0.193092 0.168377 0.172038
v 0.028338 0.178612 0.222974
v 0.218178 0.170072 -0.024399
v 0.129353 0.229295 -0.012625
v 0.246595 0.060546 0.040893
v 0.234809 -0.028943 0.088382
v -0.182913 -0.203180 -0.150085
v -0.209312 -0.143787 -0.148265
v -0.198851 -0.046048 -0.197807
v -0.228919 -0.023425 0.174400
v -0.235071 -0.147450 0.188098
v -0.239639 -0.034438 -0.039396
v -0.198411 0.051422 -0.178142
v -0.222993 0.066779 0.172565
v -0.251264 0.058624 -0.036362
v -0.173428 0.161433 -0.144193
v -0.193092 0.168377 0.172038
v -0.028337 0.178612 0.222974
v -0.218178 0.170072 -0.024399
v -0.129353 0.229295 -0.012625
v -0.000000 -0.262257 -0.240092
v -0.000000 -0.136501 -0.276882
v -0.000000 -0.054221 -0.285981
v -0.000000 0.046396 -0.265451
v 0.000000 0.178030 0.225828
v -0.000000 0.153629 -0.218201
v -0.000000 0.219460 -0.143626
v -0.000000 0.262257 -0.026901
v 0.000000 0.237223 0.157546
v -0.246595 0.060546 0.040893
v -0.234809 -0.058024 0.088382
v 0.167048 -0.194623 -0.122444
v 0.186556 -0.138442 -0.124973
v 0.174954 -0.044890 -0.175080
v 0.196192 -0.026222 0.171227
v 0.206447 -0.152796 0.184905
v 0.207028 -0.061608 -0.034723
v 0.174321 0.044481 -0.156684
v 0.190633 0.062087 0.168111
v 0.218746 0.055126 -0.031962
v 0.154346 0.141703 -0.125873
v 0.170489 0.145510 0.164607
v 0.023908 0.153775 0.201704
v 0.191717 0.150657 -0.020957
v 0.116637 0.198940 -0.010221
v 0.213910 0.057320 0.037695
v 0.201969 -0.028844 0.085145
v -0.167048 -0.194623 -0.122444
v -0.186556 -0.138442 -0.124973
v -0.174954 -0.044890 -0.175080
v -0.196192 -0.026222 0.171227
v -0.202173 -0.147737 0.185535
v -0.207028 -0.032528 -0.034722
v -0.174321 0.044481 -0.156684
v -0.190633 0.062087 0.168111
v -0.218746 0.055126 -0.031962
v -0.154346 0.141703 -0.125873
v -0.170489 0.145510 0.164607
v -0.023908 0.153775 0.201704
v -0.191717 0.150657 -0.020957
v -0.116637 0.198940 -0.010221
v -0.000000 -0.252467 -0.208578
v -0.000000 -0.127976 -0.245003
v -0.000000 -0.052569 -0.253023
v -0.000000 0.036842 -0.233865
v 0.000000 0.153545 0.203704
v -0.000000 0.135268 -0.190782
v -0.000000 0.190912 -0.127073
v -0.000000 0.229458 -0.023270
v 0.000000 0.206798 0.144767
v -0.213910 0.057320 0.037695
v -0.201969 -0.057924 0.085145
v 0.022082 0.134697 0.283125
v -0.006255 0.135269 0.285981
v 0.140829 0.098433 0.243437
v -0.034593 0.134697 0.283125
v -0.199291 0.116023 0.266560
v 0.017653 0.103545 0.273182
v -0.006255 0.104110 0.275115
v 0.153956 0.121834 0.246718
v -0.030163 0.103545 0.273182
v -0.210890 0.086302 0.258131
v 0.235867 -0.151659 0.136819
v 0.203242 -0.154967 0.134536
v -0.228285 -0.152445 0.136140
v -0.195687 -0.155982 0.134434
vt 0.294121 0.110289
vt 0.220345 0.112504
vt 0.252509 0.041432
vt 0.330357 0.139235
vt 0.240051 0.278966
vt 0.726784 0.853325
vt 0.747134 0.765137
vt 0.771460 0.824483
vt 0.154052 0.087037
vt 0.170003 0.008660
vt 0.113810 0.238578
vt 0.075602 0.069869
vt 0.087321 0.003074
vt 0.671875 0.809311
vt 0.730446 0.695502
vt 0.042979 0.202299
vt 0.003074 0.465112
vt 0.024541 0.382539
vt 0.075319 0.458532
vt 0.003074 0.165868
vt 0.180119 0.571169
vt 0.170312 0.438128
vt 0.034901 0.600942
vt 0.156246 0.629410
vt 0.155400 0.365999
vt 0.176337 0.630692
vt 0.786234 0.920202
vt 0.669675 0.913106
vt 0.631144 0.833159
vt 0.619338 0.753154
vt 0.583259 0.113337
vt 0.524970 0.210204
vt 0.506098 0.093564
vt 0.623171 0.099681
vt 0.545225 0.003074
vt 0.639497 0.008313
vt 0.549637 0.360045
vt 0.470926 0.282373
vt 0.561059 0.295022
vt 0.440460 0.123073
vt 0.146422 0.359851
vt 0.182141 0.265222
vt 0.460613 0.228645
vt 0.366677 0.162039
vt 0.411950 0.385839
vt 0.485449 0.372804
vt 0.080292 0.333836
vt 0.381911 0.251664
vt 0.336504 0.260285
vt 0.011130 0.285593
vt 0.257612 0.451083
vt 0.307019 0.589822
vt 0.196182 0.627778
vt 0.310545 0.452547
vt 0.268947 0.372551
vt 0.634552 0.312327
vt 0.862842 0.041055
vt 0.802779 0.100085
vt 0.797877 0.003074
vt 0.065512 0.992617
vt 0.187486 0.914011
vt 0.206162 0.996926
vt 0.039738 0.895238
vt 0.041271 0.959094
vt 0.705082 0.241929
vt 0.774015 0.184919
vt 0.768516 0.246896
vt 0.732578 0.012835
vt 0.150047 0.801074
vt 0.173166 0.863038
vt 0.718032 0.096199
vt 0.661665 0.033410
vt 0.645644 0.238577
vt 0.713535 0.146366
vt 0.017208 0.833191
vt 0.119887 0.731692
vt 0.894422 0.463608
vt 0.836492 0.468349
vt 0.865201 0.392090
vt 0.094409 0.690372
vt 0.003074 0.760535
vt 0.756862 0.582846
vt 0.749634 0.460540
vt 0.885365 0.597027
vt 0.780593 0.629197
vt 0.749953 0.391987
vt 0.763523 0.631779
vt 0.862842 0.224848
vt 0.649430 0.103536
vt 0.395252 0.540043
vt 0.463411 0.512610
vt 0.468357 0.608945
vt 0.357528 0.529256
vt 0.425336 0.391987
vt 0.450861 0.674939
vt 0.537884 0.727171
vt 0.474193 0.725007
vt 0.527265 0.529484
vt 0.529485 0.621786
vt 0.542950 0.410300
vt 0.599068 0.545999
vt 0.600935 0.623644
vt 0.531645 0.660551
vt 0.599857 0.722601
vt 0.613191 0.442497
vt 0.619338 0.481753
vt 0.643739 0.406699
vt 0.669136 0.479388
vt 0.206162 0.687166
vt 0.640740 0.613163
vt 0.746288 0.631460
vt 0.381655 0.694021
vt 0.877542 0.696406
vt 0.852664 0.785146
vt 0.854266 0.695502
vt 0.279420 0.773209
vt 0.310545 0.823294
vt 0.293523 0.839261
vt 0.876158 0.784355
vt 0.853926 0.848162
vt 0.158544 0.679972
vt 0.798529 0.700745
vt 0.286956 0.687166
vt 0.303068 0.769927
vt 0.336504 0.733319
vt 0.358458 0.827321
vt 0.336510 0.823076
vt 0.695023 0.306229
vt 0.671496 0.350242
vt 0.671240 0.307407
vt 0.214160 0.773777
vt 0.242640 0.687636
vt 0.236643 0.772377
vt 0.890016 0.129600
vt 0.924720 0.266096
vt 0.868990 0.128291
vt 0.822860 0.831566
vt 0.836076 0.744325
vt 0.846516 0.830338
vt 0.234426 0.834951
vt 0.212309 0.837878
vt 0.765731 0.689355
vt 0.748571 0.689190
vt 0.620021 0.689355
vt 0.242640 0.894446
vt 0.226729 0.910988
vt 0.272510 0.687166
vt 0.249419 0.777391
vt 0.248788 0.688634
vt 0.724473 0.342958
vt 0.701384 0.311938
vt 0.724473 0.306229
vt 0.829497 0.695502
vt 0.815345 0.740379
vt 0.385789 0.734783
vt 0.364605 0.811122
vt 0.368241 0.733319
vt 0.310545 0.665954
vt 0.198479 0.678340
vt 0.870795 0.660663
vt 0.782875 0.686927
vt 0.925195 0.554405
vt 0.900569 0.539714
vt 0.924093 0.538042
vt 0.178806 0.681018
vt 0.760049 0.766217
vt 0.061042 0.661173
vt 0.924252 0.520970
vt 0.912789 0.401331
vt 0.934771 0.391987
vt 0.901872 0.559002
vt 0.934771 0.635039
vt 0.917937 0.644563
vt 0.677079 0.300081
vt 0.753723 0.312599
vt 0.730852 0.346231
vt 0.730621 0.310728
vt 0.665093 0.314580
vt 0.645644 0.379430
vt 0.646047 0.306229
vt 0.330357 0.292862
vt 0.809197 0.903432
vt 0.485863 0.010092
vt 0.639496 0.350093
vt 0.858961 0.260318
vt 0.336504 0.404319
vt 0.479145 0.392711
vt 0.386757 0.727171
vt 0.877542 0.848878
vt 0.310545 0.689253
vt 0.358458 0.735068
vt 0.695023 0.352184
vt 0.220087 0.687166
vt 0.924720 0.003074
vt 0.943167 0.015626
vt 0.943167 0.255835
vt 0.272510 0.781273
vt 0.701171 0.347629
vt 0.846516 0.702798
vt 0.385789 0.818587
vt 0.809197 0.715731
vt 0.900755 0.519373
vt 0.753723 0.347629
vt 0.665093 0.385178
vn 0.9675 -0.0241 -0.2518
vn 0.5079 -0.2001 -0.8379
vn 0.4804 -0.3551 -0.8020
vn 0.9957 0.0667 0.0639
vn 0.9353 -0.0805 -0.3446
vn 0.3920 0.1836 -0.9014
vn 0.8860 0.3009 -0.3527
vn 0.9473 0.2796 0.1566
vn 0.3546 0.3483 -0.8677
vn 0.5137 0.8204 -0.2511
vn 0.2413 0.7275 -0.6422
vn 0.2312 0.9641 0.1308
vn 0.2309 0.7723 0.5918
vn 0.5602 0.8246 0.0787
vn 0.2672 0.9048 -0.3317
vn 0.0504 0.7546 0.6542
vn 0.9972 0.0347 0.0661
vn 0.9934 -0.0961 0.0624
vn 0.9589 0.2792 0.0510
vn -0.9686 -0.0219 -0.2478
vn -0.4906 -0.2447 -0.8363
vn -0.4804 -0.3551 -0.8020
vn -0.9938 -0.0616 0.0928
vn -0.9659 0.0554 -0.2528
vn -0.3921 0.1839 -0.9013
vn -0.8862 0.3080 -0.3460
vn -0.9473 0.2796 0.1566
vn -0.3653 0.3753 -0.8518
vn -0.5137 0.8204 -0.2511
vn -0.2413 0.7275 -0.6422
vn -0.2312 0.9641 0.1308
vn -0.2309 0.7723 0.5918
vn -0.5602 0.8246 0.0787
vn -0.2952 0.8858 -0.3580
vn -0.0504 0.7546 0.6542
vn -0.9964 -0.0285 0.0797
vn -0.9957 -0.0906 0.0209
vn -0.9589 0.2792 0.0510
vn -0.9749 -0.0017 0.2226
vn -0.5095 0.2416 0.8258
vn -0.4895 0.3638 0.7925
vn -0.9958 -0.0650 -0.0648
vn -0.9749 -0.0515 0.2166
vn -0.3923 -0.1927 0.8994
vn -0.8928 -0.2921 0.3429
vn -0.9576 -0.2380 -0.1622
vn -0.3617 -0.3738 0.8540
vn -0.4985 -0.8305 0.2485
vn -0.2382 -0.7315 0.6389
vn -0.2374 -0.9627 -0.1298
vn -0.2000 -0.7575 -0.6215
vn -0.5475 -0.8324 -0.0857
vn -0.2872 -0.8924 0.3480
vn -0.0489 -0.7411 -0.6696
vn -0.9972 -0.0358 -0.0658
vn -0.9926 0.0995 -0.0691
vn -0.9623 -0.2655 -0.0584
vn 0.9748 -0.0015 0.2229
vn 0.5195 0.2176 0.8263
vn 0.4895 0.3638 0.7925
vn 0.9970 -0.0643 -0.0432
vn 0.9388 0.1153 0.3246
vn 0.3907 -0.1882 0.9011
vn 0.8928 -0.2921 0.3429
vn 0.9576 -0.2380 -0.1622
vn 0.3511 -0.3477 0.8694
vn 0.4985 -0.8305 0.2485
vn 0.2382 -0.7315 0.6389
vn 0.2374 -0.9627 -0.1298
vn 0.2000 -0.7575 -0.6215
vn 0.5475 -0.8324 -0.0857
vn 0.2734 -0.9017 0.3348
vn 0.0489 -0.7411 -0.6696
vn 0.9968 0.0255 -0.0763
vn 0.9882 0.1344 -0.0728
vn 0.9623 -0.2655 -0.0584
vn -0.0781 0.1008 0.9918
vn 0.3245 -0.8023 0.5011
vn -0.0989 0.0289 0.9947
vn 0.0431 0.8048 0.5920
vn 0.7924 0.2361 0.5624
vn -0.0192 -0.9653 0.2605
vn 0.0902 -0.3650 -0.9266
vn 0.8027 -0.2544 0.5395
vn 0.1053 0.1112 0.9882
vn -0.1603 -0.9426 0.2928
vn -0.0695 -0.6548 0.7526
vn 0.1379 0.0111 0.9904
vn 0.0654 -0.8191 -0.5699
vn 0.1232 -0.8617 -0.4923
vn 0.2487 -0.0682 0.9662
vn -0.0174 -0.9783 -0.2065
vn -0.0013 -0.9954 0.0955
vn -0.6443 -0.3078 0.7001
vn -0.7176 -0.5882 -0.3728
vn -0.1490 0.8060 0.5729
vn -0.1723 -0.7988 -0.5764
vn 0.0684 -0.3285 0.9420
vn -0.0412 0.8164 0.5760
vn -0.0656 -0.8177 -0.5718
vn 0.0299 -0.7890 0.6137
vn 0.2379 0.7725 0.5887
vn -0.0564 -0.2520 0.9661
vn -0.0684 -0.3285 0.9420
vn 0.2330 -0.2620 0.9365
vn -0.8592 -0.2267 -0.4587
vn -0.1974 0.8630 0.4650
vn 0.0983 -0.9945 0.0366
vn -0.0955 -0.4519 -0.8869
vn 0.4906 -0.2447 -0.8363
vn 0.4068 -0.1004 -0.9080
vn 0.9834 -0.0351 0.1779
vn 0.9684 0.0535 -0.2435
vn 0.3921 0.1839 -0.9013
vn 0.8862 0.3080 -0.3460
vn 0.9404 0.3172 0.1228
vn 0.3653 0.3753 -0.8518
vn 0.3161 0.9280 0.1970
vn 0.2952 0.8858 -0.3580
vn 0.9950 0.0737 -0.0674
vn 0.9932 -0.0970 0.0638
vn -0.5079 -0.2001 -0.8379
vn -0.4068 -0.1004 -0.9080
vn -0.9826 0.0681 0.1729
vn -0.9335 -0.1054 -0.3426
vn -0.3920 0.1836 -0.9014
vn -0.8860 0.3009 -0.3527
vn -0.9404 0.3172 0.1228
vn -0.3546 0.3483 -0.8677
vn -0.3161 0.9280 0.1970
vn -0.2672 0.9048 -0.3317
vn -0.9906 0.0345 -0.1327
vn -0.9901 -0.1257 0.0630
vn -0.5195 0.2176 0.8263
vn -0.4086 0.0965 0.9076
vn -0.9835 0.0389 -0.1769
vn -0.9408 0.0867 0.3277
vn -0.3907 -0.1882 0.9011
vn -0.9472 -0.2985 -0.1166
vn -0.3511 -0.3477 0.8694
vn -0.3128 -0.9310 -0.1882
vn -0.2734 -0.9017 0.3348
vn -0.9951 -0.0734 0.0665
vn -0.9922 0.1013 -0.0721
vn 0.5095 0.2416 0.8258
vn 0.4086 0.0965 0.9076
vn 0.9838 0.0292 -0.1767
vn 0.9724 -0.0536 0.2269
vn 0.3923 -0.1927 0.8994
vn 0.9472 -0.2985 -0.1166
vn 0.3617 -0.3738 0.8540
vn 0.3128 -0.9310 -0.1882
vn 0.2872 -0.8924 0.3480
vn 0.9908 -0.0333 0.1311
vn 0.9953 0.0940 -0.0221
vn -0.1038 0.0916 0.9904
vn 0.0471 -0.7658 0.6413
vn -0.1379 0.0111 0.9904
vn 0.0751 0.8090 0.5829
vn -0.0288 -0.9645 0.2624
vn 0.1015 -0.3619 -0.9267
vn 0.6443 -0.3078 0.7001
vn 0.0781 0.1056 0.9913
vn 0.1603 -0.9426 0.2928
vn 0.1329 -0.9227 0.3619
vn -0.1329 -0.9227 0.3619
vn -0.4286 -0.6944 0.5781
vn 0.0989 0.0289 0.9947
vn 0.0395 -0.8232 -0.5664
vn 0.1860 -0.8115 -0.5540
vn 0.1375 0.0084 0.9905
vn 0.0837 -0.9794 -0.1839
vn -0.0991 -0.9843 0.1462
vn -0.8027 -0.2544 0.5395
vn -0.9078 0.3946 -0.1423
vn -0.1861 -0.8112 -0.5544
vn 0.0889 -0.3143 0.9451
vn -0.0751 0.8091 0.5829
vn -0.0404 -0.8158 -0.5769
vn 0.6336 -0.4443 0.6333
vn 0.2329 0.7659 0.5993
vn -0.0601 -0.3113 0.9484
vn -0.0889 -0.3143 0.9451
vn 0.2093 -0.3242 0.9225
vn 0.1564 -0.9850 0.0724
vn -0.0860 -0.4544 -0.8866
s off
f 2/1/1 3/2/1 6/3/1
f 1/4/2 32/5/2 2/1/2
f 32/5/3 3/2/3 2/1/3
f 16/6/4 8/7/4 4/8/4
f 6/3/5 7/9/5 9/10/5
f 3/2/6 34/11/6 7/9/6
f 9/10/7 10/12/7 13/13/7
f 15/14/8 11/15/8 8/7/8
f 7/9/9 36/16/9 10/12/9
f 13/17/10 10/18/10 14/19/10
f 37/20/11 10/12/11 36/16/11
f 39/21/12 14/19/12 38/22/12
f 11/23/13 39/21/13 12/24/13
f 14/19/14 11/23/14 13/17/14
f 14/19/15 37/25/15 38/22/15
f 12/24/16 39/21/16 35/26/16
f 4/8/17 93/27/17 16/6/17
f 15/14/18 6/28/18 9/29/18
f 13/30/19 15/14/19 9/29/19
f 18/31/20 22/32/20 19/33/20
f 17/34/21 32/35/21 31/36/21
f 19/33/22 32/35/22 18/31/22
f 20/37/23 40/38/23 41/39/23
f 22/32/24 23/40/24 19/33/24
f 19/41/25 34/11/25 33/42/25
f 25/43/26 26/44/26 23/40/26
f 27/45/27 40/38/27 24/46/27
f 23/47/28 36/16/28 34/11/28
f 29/48/29 30/49/29 26/44/29
f 37/20/30 36/16/30 26/50/30
f 30/51/31 39/21/31 38/22/31
f 27/52/32 28/53/32 39/21/32
f 30/51/33 29/54/33 27/52/33
f 30/51/34 37/25/34 26/55/34
f 28/53/35 35/26/35 39/21/35
f 95/56/36 20/37/36 41/39/36
f 40/38/37 22/32/37 41/39/37
f 29/48/38 25/43/38 40/38/38
f 43/57/39 47/58/39 44/59/39
f 42/60/40 73/61/40 72/62/40
f 44/63/41 73/61/41 43/64/41
f 49/65/42 57/66/42 45/67/42
f 47/58/43 48/68/43 44/59/43
f 44/63/44 75/69/44 74/70/44
f 50/71/45 51/72/45 48/68/45
f 52/73/46 56/74/46 49/65/46
f 48/75/47 77/76/47 75/69/47
f 54/77/48 55/78/48 51/79/48
f 78/80/49 77/76/49 51/81/49
f 55/78/50 80/82/50 79/83/50
f 52/84/51 53/85/51 80/82/51
f 55/78/52 54/77/52 52/84/52
f 55/78/53 78/86/53 51/79/53
f 53/85/54 76/87/54 80/82/54
f 94/88/55 45/67/55 57/66/55
f 56/74/56 47/58/56 57/66/56
f 54/89/57 50/71/57 56/74/57
f 59/90/58 60/91/58 63/92/58
f 58/93/59 73/94/59 59/90/59
f 73/94/60 60/91/60 59/90/60
f 82/95/61 65/96/61 61/97/61
f 63/92/62 64/98/62 66/99/62
f 60/91/63 75/100/63 64/98/63
f 66/99/64 67/101/64 70/102/64
f 81/103/65 68/104/65 65/96/65
f 64/98/66 77/105/66 67/101/66
f 70/106/67 67/107/67 71/108/67
f 78/80/68 67/109/68 77/76/68
f 80/82/69 71/108/69 79/83/69
f 68/110/70 80/82/70 69/111/70
f 71/108/71 68/110/71 70/106/71
f 71/108/72 78/86/72 79/83/72
f 69/111/73 80/82/73 76/87/73
f 61/97/74 96/112/74 82/95/74
f 81/103/75 63/92/75 66/99/75
f 70/102/76 81/103/76 66/99/76
f 5/113/77 45/114/77 46/115/77
f 6/116/78 43/117/78 2/118/78
f 4/119/79 49/120/79 45/114/79
f 35/26/80 83/121/80 12/24/80
f 11/15/81 90/122/81 8/7/81
f 16/123/82 47/124/82 6/116/82
f 93/125/83 57/126/83 16/127/83
f 1/128/84 43/129/84 42/130/84
f 20/131/85 62/132/85 61/133/85
f 72/134/86 17/135/86 31/136/86
f 22/137/87 59/138/87 63/139/87
f 20/131/88 65/140/88 24/141/88
f 69/111/89 89/142/89 91/143/89
f 68/110/90 91/143/90 92/144/90
f 24/141/91 68/145/91 27/146/91
f 41/147/92 63/148/92 82/149/92
f 95/150/93 62/151/93 21/152/93
f 17/153/94 59/138/94 18/154/94
f 68/155/95 87/156/95 27/157/95
f 28/53/96 87/158/96 86/159/96
f 53/85/97 85/160/97 88/161/97
f 88/162/98 84/163/98 89/164/98
f 28/53/99 84/165/99 35/26/99
f 76/87/100 88/161/100 89/142/100
f 90/122/101 49/166/101 8/7/101
f 90/167/102 12/24/102 83/121/102
f 91/168/103 87/169/103 92/170/103
f 84/163/104 91/168/104 89/164/104
f 83/171/105 85/172/105 90/173/105
f 85/174/106 52/73/106 49/65/106
f 87/158/107 28/53/107 27/52/107
f 93/175/108 46/176/108 94/177/108
f 95/178/109 82/179/109 96/180/109
f 1/4/110 31/181/110 32/5/110
f 32/5/111 33/42/111 3/2/111
f 16/6/112 15/14/112 8/7/112
f 6/3/113 3/2/113 7/9/113
f 3/2/114 33/42/114 34/11/114
f 9/10/115 7/9/115 10/12/115
f 15/14/116 13/30/116 11/15/116
f 7/9/117 34/11/117 36/16/117
f 39/21/118 11/23/118 14/19/118
f 14/19/119 10/18/119 37/25/119
f 4/8/120 5/182/120 93/27/120
f 15/14/121 16/6/121 6/28/121
f 17/34/122 18/31/122 32/35/122
f 19/33/123 33/183/123 32/35/123
f 20/37/124 24/46/124 40/38/124
f 22/32/125 25/43/125 23/40/125
f 19/41/126 23/47/126 34/11/126
f 25/43/127 29/48/127 26/44/127
f 27/45/128 29/48/128 40/38/128
f 23/47/129 26/50/129 36/16/129
f 30/51/130 27/52/130 39/21/130
f 30/51/131 38/22/131 37/25/131
f 95/56/132 21/184/132 20/37/132
f 40/38/133 25/43/133 22/32/133
f 42/60/134 43/64/134 73/61/134
f 44/63/135 74/70/135 73/61/135
f 49/65/136 56/74/136 57/66/136
f 47/58/137 50/71/137 48/68/137
f 44/63/138 48/75/138 75/69/138
f 50/71/45 54/89/45 51/72/45
f 52/73/139 54/89/139 56/74/139
f 48/75/140 51/81/140 77/76/140
f 55/78/141 52/84/141 80/82/141
f 55/78/142 79/83/142 78/86/142
f 94/88/143 46/185/143 45/67/143
f 56/74/144 50/71/144 47/58/144
f 58/93/145 72/186/145 73/94/145
f 73/94/146 74/187/146 60/91/146
f 82/95/147 81/103/147 65/96/147
f 63/92/148 60/91/148 64/98/148
f 60/91/149 74/187/149 75/100/149
f 66/99/64 64/98/64 67/101/64
f 81/103/150 70/102/150 68/104/150
f 64/98/151 75/100/151 77/105/151
f 80/82/152 68/110/152 71/108/152
f 71/108/153 67/107/153 78/86/153
f 61/97/154 62/188/154 96/112/154
f 81/103/155 82/95/155 63/92/155
f 5/113/156 4/119/156 45/114/156
f 6/116/157 47/124/157 43/117/157
f 4/119/158 8/189/158 49/120/158
f 35/26/159 84/165/159 83/121/159
f 16/123/160 57/190/160 47/124/160
f 93/125/161 94/191/161 57/126/161
f 1/128/162 2/192/162 43/129/162
f 20/131/163 21/193/163 62/132/163
f 31/136/164 1/194/164 72/134/164
f 1/194/165 42/195/165 72/134/165
f 72/134/166 58/196/166 17/135/166
f 22/137/167 18/154/167 59/138/167
f 20/131/168 61/133/168 65/140/168
f 69/111/169 76/87/169 89/142/169
f 68/110/170 69/111/170 91/143/170
f 24/141/171 65/140/171 68/145/171
f 41/147/172 22/197/172 63/148/172
f 95/150/173 96/198/173 62/151/173
f 17/153/174 58/199/174 59/138/174
f 68/155/175 92/200/175 87/156/175
f 53/85/176 52/84/176 85/160/176
f 88/162/177 83/171/177 84/163/177
f 28/53/178 86/159/178 84/165/178
f 76/87/179 53/85/179 88/161/179
f 90/122/180 85/201/180 49/166/180
f 90/167/181 11/23/181 12/24/181
f 91/168/182 86/202/182 87/169/182
f 84/163/183 86/202/183 91/168/183
f 83/171/184 88/162/184 85/172/184
f 93/175/185 5/203/185 46/176/185
f 95/178/186 41/204/186 82/179/186
