# Blender v2.92.0 OBJ File: 'quaternius_OGConvert.blend'
# www.blender.org
o Male_Hairstyle_4_Human_CylinderMesh.004
v 0.205085 -0.204048 -0.149070
v 0.190933 -0.106933 -0.202717
v 0.227686 -0.055901 0.182647
v 0.232016 -0.095643 -0.043400
v 0.190499 -0.009217 -0.183014
v 0.220994 -0.008016 0.167799
v 0.243660 -0.002315 -0.040470
v 0.165364 0.101181 -0.148969
v 0.182997 0.106022 0.176271
v 0.020582 0.114004 0.223625
v 0.210313 0.109839 -0.028754
v 0.121097 0.169365 -0.016919
v 0.238991 -0.000508 0.036583
v 0.221891 -0.092764 0.083050
v 0.184757 -0.001220 0.230417
v 0.021200 0.008935 0.283110
v 0.192367 -0.045924 0.233939
v 0.027816 -0.039055 0.288443
v -0.222368 -0.204048 -0.149070
v -0.208216 -0.106933 -0.202717
v -0.244969 -0.055901 0.182648
v -0.249299 -0.095643 -0.043400
v -0.207782 -0.009217 -0.183014
v -0.238276 -0.008016 0.167799
v -0.260943 -0.002315 -0.040470
v -0.182647 0.101181 -0.148969
v -0.200280 0.106022 0.176271
v -0.037864 0.114004 0.223625
v -0.227596 0.109839 -0.028754
v -0.138379 0.169365 -0.016919
v -0.008642 -0.198791 -0.281730
v -0.008642 -0.115121 -0.291201
v -0.008642 -0.014163 -0.270629
v -0.008641 0.113841 0.226107
v -0.008642 0.093336 -0.223253
v -0.008641 0.159475 -0.148349
v -0.008641 0.202401 -0.031232
v -0.008641 0.177295 0.153713
v -0.256274 -0.000508 0.036583
v -0.239174 -0.092764 0.083050
v -0.202040 -0.001220 0.230417
v -0.038483 0.008935 0.283110
v -0.008641 0.008715 0.285655
v -0.209650 -0.045924 0.233938
v -0.045098 -0.039055 0.288443
v -0.008641 -0.039894 0.291201
v 0.177914 -0.199291 -0.129194
v 0.166312 -0.105740 -0.179301
v 0.195153 -0.058827 0.173213
v 0.198387 -0.093377 -0.038944
v 0.165679 -0.016368 -0.160905
v 0.188613 -0.013368 0.158919
v 0.210105 -0.005724 -0.036183
v 0.145704 0.080853 -0.130095
v 0.161848 0.084661 0.160385
v 0.015267 0.092925 0.197483
v 0.183076 0.089808 -0.025178
v 0.107995 0.138090 -0.014443
v 0.205269 -0.003529 0.033473
v 0.188098 -0.089693 0.080924
v 0.164707 -0.010692 0.204644
v 0.015267 -0.001313 0.251240
v 0.170474 -0.052561 0.208787
v 0.021034 -0.043182 0.255383
v -0.195197 -0.199291 -0.129194
v -0.183595 -0.105740 -0.179301
v -0.212436 -0.058827 0.173213
v -0.215669 -0.093377 -0.038944
v -0.182962 -0.016368 -0.160905
v -0.205896 -0.013368 0.158919
v -0.227388 -0.005724 -0.036183
v -0.162987 0.080853 -0.130094
v -0.179131 0.084661 0.160386
v -0.032550 0.092925 0.197483
v -0.200358 0.089808 -0.025178
v -0.125278 0.138090 -0.014442
v -0.008642 -0.188826 -0.249224
v -0.008642 -0.113418 -0.257244
v -0.008642 -0.024008 -0.238086
v -0.008641 0.092695 0.199483
v -0.008642 0.074418 -0.195003
v -0.008641 0.130063 -0.131294
v -0.008641 0.168608 -0.027491
v -0.008641 0.145948 0.140546
v -0.222552 -0.003529 0.033474
v -0.205381 -0.089693 0.080924
v -0.181990 -0.010692 0.204644
v -0.032550 -0.001313 0.251240
v -0.008641 -0.001543 0.253240
v -0.187757 -0.052561 0.208787
v -0.038317 -0.043182 0.255383
v -0.008641 -0.043412 0.257383
vt 0.817926 0.307477
vt 0.739453 0.317664
vt 0.773991 0.206769
vt 0.811191 0.485537
vt 0.756036 0.337847
vt 0.831245 0.325803
vt 0.806866 0.122865
vt 0.773838 0.043990
vt 0.809380 0.046665
vt 0.680102 0.278333
vt 0.712573 0.179023
vt 0.682138 0.483269
vt 0.689437 0.336232
vt 0.617084 0.227523
vt 0.642585 0.142999
vt 0.732520 0.127795
vt 0.701874 0.009876
vt 0.612037 0.479804
vt 0.615647 0.351413
vt 0.351846 0.129808
vt 0.383564 0.046469
vt 0.427023 0.141700
vt 0.514359 0.054882
vt 0.498207 0.002805
vt 0.507489 0.270383
vt 0.522115 0.137643
vt 0.360469 0.277884
vt 0.467258 0.320194
vt 0.878184 0.164593
vt 0.823535 0.140027
vt 0.879408 0.143767
vt 0.955759 0.284288
vt 0.872244 0.279240
vt 0.961060 0.168986
vt 0.787606 0.002805
vt 0.995278 0.174716
vt 0.987369 0.290608
vt 0.997195 0.148732
vt 0.817926 0.012069
vt 0.216971 0.435434
vt 0.175426 0.533132
vt 0.137449 0.427064
vt 0.756036 0.623270
vt 0.831245 0.631466
vt 0.174970 0.697193
vt 0.207787 0.618135
vt 0.210985 0.693662
vt 0.078232 0.466583
vt 0.750920 0.485269
vt 0.115017 0.559672
vt 0.013523 0.520446
vt 0.100296 0.735869
vt 0.134765 0.611397
vt 0.689437 0.621034
vt 0.042675 0.599715
vt 0.002805 0.628806
vt 0.611475 0.064982
vt 0.596953 0.155503
vt 0.881612 0.004853
vt 0.879613 0.122752
vt 0.965213 0.007381
vt 0.962519 0.126259
vt 0.186128 0.742541
vt 0.997061 0.122517
vt 0.962349 0.147721
vt 0.216971 0.732326
vt 0.985925 0.644418
vt 0.941155 0.734662
vt 0.910696 0.637075
vt 0.480270 0.863065
vt 0.527108 0.734924
vt 0.553693 0.872282
vt 0.945249 0.886595
vt 0.973239 0.813876
vt 0.978908 0.883608
vt 0.857237 0.674220
vt 0.413713 0.736476
vt 0.473122 0.735219
vt 0.883869 0.761768
vt 0.802948 0.720601
vt 0.882367 0.913521
vt 0.902431 0.807882
vt 0.420766 0.863845
vt 0.351846 0.738557
vt 0.474114 0.325803
vt 0.484610 0.382716
vt 0.398610 0.352444
vt 0.400631 0.466052
vt 0.351846 0.462500
vt 0.595835 0.465604
vt 0.477070 0.468168
vt 0.882591 0.333254
vt 0.881323 0.436051
vt 0.836854 0.455646
vt 0.606428 0.339518
vt 0.881732 0.453045
vt 0.825352 0.794247
vt 0.955400 0.329762
vt 0.954514 0.434096
vt 0.957478 0.916005
vt 0.984600 0.430138
vt 0.985009 0.451255
vt 0.954923 0.451089
vt 0.797339 0.910287
vt 0.721194 0.916040
vt 0.754234 0.822305
vt 0.480270 0.612421
vt 0.553693 0.605017
vt 0.785747 0.741987
vt 0.757928 0.669244
vt 0.792083 0.673100
vt 0.667732 0.878659
vt 0.697830 0.796395
vt 0.420766 0.614108
vt 0.612037 0.829775
vt 0.637356 0.760574
vt 0.716144 0.749773
vt 0.693095 0.638994
vt 0.357770 0.630099
vt 0.474114 0.599407
vt 0.398610 0.572715
vt 0.484610 0.549172
vt 0.882591 0.577080
vt 0.881323 0.470244
vt 0.606428 0.582828
vt 0.955400 0.577677
vt 0.954514 0.468288
vt 0.768468 0.637075
vt 0.984600 0.472578
vt 0.985486 0.581966
vt 0.010383 0.153023
vt 0.031978 0.086808
vt 0.034711 0.154599
vt 0.002805 0.243491
vt 0.033948 0.311174
vt 0.014199 0.325465
vt 0.026966 0.240409
vt 0.167661 0.397647
vt 0.166915 0.421455
vt 0.178876 0.002805
vt 0.157426 0.028387
vt 0.152919 0.004474
vt 0.050075 0.061193
vt 0.034954 0.042682
vt 0.008984 0.079671
vt 0.339367 0.156223
vt 0.322805 0.089637
vt 0.346237 0.082951
vt 0.346237 0.246832
vt 0.300174 0.313763
vt 0.322407 0.243282
vt 0.315470 0.157330
vt 0.319200 0.328432
vt 0.199774 0.028799
vt 0.178586 0.027177
vt 0.204945 0.004980
vt 0.305682 0.063680
vt 0.321805 0.045473
vt 0.615647 0.600268
vt 0.611475 0.298273
vt 0.997195 0.002805
vt 0.357770 0.851220
vt 0.985486 0.325803
vt 0.985925 0.907309
vt 0.797339 0.646533
vn 0.9683 0.0031 -0.2499
vn 0.4838 -0.3681 -0.7940
vn 0.9894 0.1080 -0.0975
vn 0.9334 -0.1057 -0.3430
vn 0.3921 0.1835 -0.9015
vn 0.8861 0.3003 -0.3530
vn 0.9417 0.3029 0.1465
vn 0.3547 0.3483 -0.8677
vn 0.5139 0.8202 -0.2512
vn 0.2414 0.7274 -0.6423
vn 0.2311 0.9641 0.1309
vn 0.2141 0.7670 0.6049
vn 0.5610 0.8229 0.0901
vn 0.2670 0.9048 -0.3316
vn 0.0517 0.7510 0.6583
vn 0.9901 -0.1255 0.0629
vn 0.9587 0.2797 0.0515
vn 0.2715 0.4373 0.8574
vn 0.0710 0.4918 0.8678
vn 0.8498 0.2486 0.4648
vn 0.3167 0.1280 0.9399
vn 0.0721 0.1200 0.9902
vn 0.8165 0.2720 0.5093
vn -0.9683 0.0031 -0.2499
vn -0.4838 -0.3681 -0.7940
vn -0.9894 0.1080 -0.0975
vn -0.9659 0.0553 -0.2530
vn -0.3921 0.1837 -0.9014
vn -0.8863 0.3083 -0.3455
vn -0.9417 0.3029 0.1465
vn -0.3654 0.3754 -0.8518
vn -0.5139 0.8202 -0.2512
vn -0.2414 0.7274 -0.6423
vn -0.2311 0.9641 0.1309
vn -0.2141 0.7670 0.6049
vn -0.5610 0.8229 0.0901
vn -0.2954 0.8856 -0.3583
vn -0.0517 0.7510 0.6583
vn -0.9865 -0.1414 0.0822
vn -0.9587 0.2797 0.0515
vn -0.2715 0.4373 0.8574
vn -0.0710 0.4918 0.8678
vn -0.8498 0.2486 0.4648
vn -0.3116 0.1473 0.9387
vn -0.0836 0.1130 0.9901
vn -0.8593 0.1839 0.4773
vn -0.9748 -0.0015 0.2229
vn -0.4895 0.3638 0.7925
vn -0.9880 -0.1071 0.1114
vn -0.9724 -0.0536 0.2269
vn -0.3923 -0.1927 0.8994
vn -0.8928 -0.2921 0.3429
vn -0.9548 -0.2585 -0.1470
vn -0.3617 -0.3738 0.8540
vn -0.4985 -0.8305 0.2485
vn -0.2382 -0.7315 0.6389
vn -0.2374 -0.9627 -0.1298
vn -0.2000 -0.7575 -0.6215
vn -0.5475 -0.8324 -0.0857
vn -0.2872 -0.8924 0.3480
vn -0.0489 -0.7411 -0.6696
vn -0.9851 0.1473 -0.0891
vn -0.9623 -0.2655 -0.0584
vn -0.2452 -0.4142 -0.8765
vn -0.0678 -0.4943 -0.8666
vn -0.8678 -0.2304 -0.4402
vn -0.3027 -0.1351 -0.9435
vn -0.0820 -0.0981 -0.9918
vn -0.8617 -0.2608 -0.4353
vn 0.9748 -0.0015 0.2229
vn 0.4895 0.3638 0.7925
vn 0.9880 -0.1071 0.1114
vn 0.9388 0.1153 0.3246
vn 0.3907 -0.1882 0.9011
vn 0.8928 -0.2921 0.3429
vn 0.9548 -0.2585 -0.1470
vn 0.3511 -0.3477 0.8694
vn 0.4985 -0.8305 0.2485
vn 0.2382 -0.7315 0.6389
vn 0.2374 -0.9627 -0.1298
vn 0.2000 -0.7575 -0.6215
vn 0.5475 -0.8324 -0.0857
vn 0.2734 -0.9017 0.3348
vn 0.0489 -0.7411 -0.6696
vn 0.9882 0.1344 -0.0728
vn 0.9623 -0.2655 -0.0584
vn 0.2452 -0.4142 -0.8765
vn 0.0678 -0.4943 -0.8666
vn 0.8678 -0.2304 -0.4402
vn 0.3027 -0.1351 -0.9435
vn 0.0660 -0.1073 -0.9920
vn 0.8617 -0.2608 -0.4353
vn -0.1058 -0.9406 0.3227
vn 0.3388 -0.6985 0.6303
vn -0.0649 -0.9977 0.0175
vn -0.2012 -0.9365 0.2871
vn 0.0317 -0.9926 0.1174
vn 0.0345 -0.9733 0.2268
vn 0.0273 -0.9775 0.2090
vn 0.0166 -0.9374 0.3479
vn -0.0560 -0.6538 0.7546
vn 0.0919 -0.9955 0.0227
vn 0.1107 -0.9902 0.0857
vn -0.0147 -0.9945 0.1034
vn 0.0222 -0.9915 0.1283
vn -0.0548 -0.9762 0.2099
vn 0.4067 -0.1028 -0.9078
vn 0.9847 -0.1179 0.1283
vn 0.9659 0.0553 -0.2530
vn 0.3921 0.1837 -0.9014
vn 0.8863 0.3083 -0.3455
vn 0.9379 0.3213 0.1309
vn 0.3654 0.3754 -0.8518
vn 0.3206 0.9257 0.2008
vn 0.2954 0.8856 -0.3583
vn 0.9865 -0.1414 0.0822
vn 0.2968 0.4718 0.8303
vn 0.0704 0.4916 0.8679
vn 0.3116 0.1473 0.9387
vn 0.0836 0.1130 0.9901
vn 0.8593 0.1839 0.4773
vn -0.4067 -0.1028 -0.9078
vn -0.9847 -0.1179 0.1283
vn -0.9334 -0.1057 -0.3430
vn -0.3921 0.1835 -0.9015
vn -0.8861 0.3003 -0.3530
vn -0.9379 0.3213 0.1309
vn -0.3547 0.3483 -0.8677
vn -0.3206 0.9257 0.2008
vn -0.2670 0.9048 -0.3316
vn -0.9901 -0.1255 0.0629
vn -0.2968 0.4718 0.8303
vn -0.0704 0.4916 0.8679
vn -0.3167 0.1279 0.9399
vn -0.0721 0.1200 0.9902
vn -0.8165 0.2720 0.5093
vn -0.4086 0.0965 0.9076
vn -0.9842 0.1298 -0.1205
vn -0.9388 0.1153 0.3246
vn -0.3907 -0.1882 0.9011
vn -0.9472 -0.2985 -0.1166
vn -0.3511 -0.3477 0.8694
vn -0.3128 -0.9310 -0.1882
vn -0.2734 -0.9017 0.3348
vn -0.9882 0.1344 -0.0728
vn -0.2890 -0.4743 -0.8315
vn -0.0660 -0.1073 -0.9920
vn -0.8236 -0.1671 -0.5420
vn 0.4086 0.0965 0.9076
vn 0.9842 0.1298 -0.1205
vn 0.9724 -0.0536 0.2269
vn 0.3923 -0.1927 0.8994
vn 0.9472 -0.2985 -0.1166
vn 0.3617 -0.3738 0.8540
vn 0.3128 -0.9310 -0.1882
vn 0.2872 -0.8924 0.3480
vn 0.9851 0.1473 -0.0891
vn 0.2890 -0.4743 -0.8315
vn 0.0820 -0.0981 -0.9918
vn 0.8236 -0.1671 -0.5420
vn -0.0166 -0.9374 0.3479
vn 0.0560 -0.6538 0.7546
vn -0.0919 -0.9955 0.0227
vn -0.1107 -0.9902 0.0857
vn 0.0147 -0.9945 0.1034
vn -0.0222 -0.9915 0.1283
vn 0.0548 -0.9762 0.2099
vn 0.1058 -0.9406 0.3227
vn -0.3388 -0.6985 0.6303
vn 0.0649 -0.9977 0.0175
vn 0.2012 -0.9365 0.2871
vn -0.0317 -0.9926 0.1174
vn -0.0345 -0.9733 0.2268
vn -0.0273 -0.9775 0.2090
s off
f 1/1/1 2/2/1 4/3/1
f 31/4/2 2/5/2 1/6/2
f 14/7/3 6/8/3 3/9/3
f 4/3/4 5/10/4 7/11/4
f 2/5/5 33/12/5 5/13/5
f 7/11/6 8/14/6 11/15/6
f 13/16/7 9/17/7 6/8/7
f 5/13/8 35/18/8 8/19/8
f 11/20/9 8/21/9 12/22/9
f 36/23/10 8/21/10 35/24/10
f 38/25/11 12/22/11 37/26/11
f 9/27/12 38/25/12 10/28/12
f 12/22/13 9/27/13 11/20/13
f 12/22/14 36/23/14 37/26/14
f 10/29/15 38/30/15 34/31/15
f 13/16/16 4/3/16 7/11/16
f 11/15/17 13/16/17 7/11/17
f 10/29/18 15/32/18 9/33/18
f 34/31/19 16/34/19 10/29/19
f 9/17/20 15/35/20 6/8/20
f 15/32/21 18/36/21 17/37/21
f 16/34/22 46/38/22 18/36/22
f 6/8/23 17/39/23 3/9/23
f 19/40/24 22/41/24 20/42/24
f 20/43/25 31/4/25 19/44/25
f 24/45/26 40/46/26 21/47/26
f 22/41/27 23/48/27 20/42/27
f 20/43/28 33/12/28 32/49/28
f 25/50/29 26/51/29 23/48/29
f 27/52/30 39/53/30 24/45/30
f 23/54/31 35/18/31 33/12/31
f 29/55/32 30/56/32 26/51/32
f 36/23/33 35/24/33 26/57/33
f 30/58/34 38/25/34 37/26/34
f 27/59/35 28/60/35 38/30/35
f 30/56/36 29/55/36 27/52/36
f 30/58/37 36/23/37 26/57/37
f 28/60/38 34/31/38 38/30/38
f 39/53/39 22/41/39 40/46/39
f 29/55/40 25/50/40 39/53/40
f 41/61/41 28/60/41 27/59/41
f 42/62/42 34/31/42 28/60/42
f 27/52/43 24/45/43 41/63/43
f 41/61/44 45/64/44 42/62/44
f 42/62/45 46/38/45 43/65/45
f 24/45/46 44/66/46 41/63/46
f 47/67/47 50/68/47 48/69/47
f 48/70/48 77/71/48 47/72/48
f 52/73/49 60/74/49 49/75/49
f 50/68/50 51/76/50 48/69/50
f 48/70/51 79/77/51 78/78/51
f 53/79/52 54/80/52 51/76/52
f 55/81/53 59/82/53 52/73/53
f 51/83/54 81/84/54 79/77/54
f 57/85/55 58/86/55 54/87/55
f 82/88/56 81/89/56 54/87/56
f 58/86/57 84/90/57 83/91/57
f 55/92/58 56/93/58 84/94/58
f 58/86/59 57/85/59 55/95/59
f 58/86/60 82/88/60 54/87/60
f 56/93/61 80/96/61 84/94/61
f 59/82/62 50/68/62 60/74/62
f 57/97/63 53/79/63 59/82/63
f 61/98/64 56/93/64 55/92/64
f 62/99/65 80/96/65 56/93/65
f 55/81/66 52/73/66 61/100/66
f 61/98/67 64/101/67 62/99/67
f 62/99/68 92/102/68 89/103/68
f 49/75/69 61/100/69 52/73/69
f 65/104/70 66/105/70 68/106/70
f 77/71/71 66/107/71 65/108/71
f 86/109/72 70/110/72 67/111/72
f 68/106/73 69/112/73 71/113/73
f 66/107/74 79/77/74 69/114/74
f 71/113/75 72/115/75 75/116/75
f 85/117/76 73/118/76 70/110/76
f 69/114/77 81/84/77 72/119/77
f 75/120/78 72/121/78 76/122/78
f 82/88/79 72/121/79 81/89/79
f 84/90/80 76/122/80 83/91/80
f 73/123/81 84/94/81 74/124/81
f 76/122/82 73/125/82 75/120/82
f 76/122/83 82/88/83 83/91/83
f 74/124/84 84/94/84 80/96/84
f 85/117/85 68/106/85 71/113/85
f 75/116/86 85/117/86 71/113/86
f 74/124/87 87/126/87 73/123/87
f 80/96/88 88/127/88 74/124/88
f 73/118/89 87/128/89 70/110/89
f 87/126/90 91/129/90 90/130/90
f 88/127/91 92/102/91 91/129/91
f 87/128/92 67/111/92 70/110/92
f 14/131/93 49/132/93 60/133/93
f 4/134/94 47/135/94 1/136/94
f 14/131/95 50/137/95 4/134/95
f 1/136/96 77/138/96 31/139/96
f 46/140/97 64/141/97 18/142/97
f 18/142/98 63/143/98 17/144/98
f 17/144/99 49/132/99 3/145/99
f 40/146/100 67/147/100 21/148/100
f 22/149/101 65/150/101 68/151/101
f 40/146/102 68/151/102 86/152/102
f 19/153/103 77/138/103 65/150/103
f 46/140/104 91/154/104 92/155/104
f 45/156/105 90/157/105 91/154/105
f 44/158/106 67/147/106 90/157/106
f 31/4/107 32/49/107 2/5/107
f 14/7/108 13/16/108 6/8/108
f 4/3/109 2/2/109 5/10/109
f 2/5/110 32/49/110 33/12/110
f 7/11/111 5/10/111 8/14/111
f 13/16/112 11/15/112 9/17/112
f 5/13/113 33/12/113 35/18/113
f 38/25/114 9/27/114 12/22/114
f 12/22/115 8/21/115 36/23/115
f 13/16/116 14/7/116 4/3/116
f 10/29/117 16/34/117 15/32/117
f 34/31/118 43/65/118 16/34/118
f 15/32/119 16/34/119 18/36/119
f 16/34/120 43/65/120 46/38/120
f 6/8/121 15/35/121 17/39/121
f 20/43/122 32/49/122 31/4/122
f 24/45/123 39/53/123 40/46/123
f 22/41/124 25/50/124 23/48/124
f 20/43/125 23/54/125 33/12/125
f 25/50/126 29/55/126 26/51/126
f 27/52/127 29/55/127 39/53/127
f 23/54/128 26/159/128 35/18/128
f 30/58/129 27/160/129 38/25/129
f 30/58/130 37/26/130 36/23/130
f 39/53/131 25/50/131 22/41/131
f 41/61/132 42/62/132 28/60/132
f 42/62/133 43/65/133 34/31/133
f 41/61/134 44/161/134 45/64/134
f 42/62/135 45/64/135 46/38/135
f 24/45/136 21/47/136 44/66/136
f 48/70/137 78/78/137 77/71/137
f 52/73/138 59/82/138 60/74/138
f 50/68/139 53/79/139 51/76/139
f 48/70/140 51/83/140 79/77/140
f 53/79/52 57/97/52 54/80/52
f 55/81/141 57/97/141 59/82/141
f 51/83/142 54/162/142 81/84/142
f 58/86/143 55/95/143 84/90/143
f 58/86/144 83/91/144 82/88/144
f 59/82/145 53/79/145 50/68/145
f 61/98/146 62/99/146 56/93/146
f 62/99/65 89/103/65 80/96/65
f 61/98/67 63/163/67 64/101/67
f 62/99/147 64/101/147 92/102/147
f 49/75/148 63/164/148 61/100/148
f 77/71/149 78/78/149 66/107/149
f 86/109/150 85/117/150 70/110/150
f 68/106/151 66/105/151 69/112/151
f 66/107/152 78/78/152 79/77/152
f 71/113/75 69/112/75 72/115/75
f 85/117/153 75/116/153 73/118/153
f 69/114/154 79/77/154 81/84/154
f 84/90/155 73/125/155 76/122/155
f 76/122/156 72/121/156 82/88/156
f 85/117/157 86/109/157 68/106/157
f 74/124/158 88/127/158 87/126/158
f 80/96/88 89/103/88 88/127/88
f 87/126/90 88/127/90 91/129/90
f 88/127/159 89/103/159 92/102/159
f 87/128/160 90/165/160 67/111/160
f 14/131/161 3/145/161 49/132/161
f 4/134/162 50/137/162 47/135/162
f 14/131/163 60/133/163 50/137/163
f 1/136/164 47/135/164 77/138/164
f 46/140/165 92/155/165 64/141/165
f 18/142/166 64/141/166 63/143/166
f 17/144/167 63/143/167 49/132/167
f 40/146/168 86/152/168 67/147/168
f 22/149/169 19/153/169 65/150/169
f 40/146/170 22/149/170 68/151/170
f 19/153/171 31/139/171 77/138/171
f 46/140/172 45/156/172 91/154/172
f 45/156/173 44/158/173 90/157/173
f 44/158/174 21/148/174 67/147/174
