# Blender v2.92.0 OBJ File: 'OGConvert.blend'
# www.blender.org
o snow_tile_treeDouble
v -4.000000 -0.000000 4.000000
v 4.000000 0.000000 -4.000000
v 4.000000 -0.000000 4.000000
v -4.000000 0.000000 -4.000000
v 4.000000 0.800000 4.000000
v 4.000000 0.800000 -4.000000
v -4.000000 0.800000 4.000000
v -4.000000 0.800000 -4.000000
v -4.000000 1.600000 -4.000000
v 4.000000 1.600000 4.000000
v 4.000000 1.600000 -4.000000
v -4.000000 1.600000 4.000000
v 2.000000 7.680000 -1.744000
v 0.868629 4.800000 -0.868629
v 2.000000 4.800000 -0.400000
v 1.818981 7.680000 -1.818980
v 1.744000 7.680000 -2.000000
v 0.400000 4.800000 -2.000000
v 2.181019 7.680000 -2.181019
v 2.181019 7.680000 -1.818980
v 2.256000 7.680000 -2.000000
v 2.000000 7.680000 -2.256000
v 1.818981 7.680000 -2.181019
v 0.000000 3.200000 -2.000000
v 1.046446 4.400000 -2.953553
v 0.585786 3.200000 -3.414213
v 0.651472 4.400000 -2.000000
v 2.953554 4.400000 -1.046446
v 4.000000 3.200000 -2.000000
v 3.348528 4.400000 -2.000000
v 3.414214 3.200000 -0.585786
v 3.600000 4.800000 -2.000000
v 3.131371 4.800000 -0.868629
v 2.000000 4.400000 -0.651472
v 0.585786 3.200000 -0.585786
v 2.000000 3.200000 0.000000
v 1.046446 4.400000 -1.046446
v 2.000000 4.800000 -3.600000
v 0.868629 4.800000 -3.131371
v 2.953554 4.400000 -2.953553
v 3.414214 3.200000 -3.414213
v 2.000000 3.200000 -4.000000
v 2.000000 4.400000 -3.348528
v 3.131371 4.800000 -3.131371
v 3.600000 4.400000 -2.000000
v 3.131371 4.400000 -0.868629
v 0.868629 4.400000 -0.868629
v 0.400000 4.400000 -2.000000
v 2.000000 4.400000 -3.600000
v 0.868629 4.400000 -3.131371
v 3.414214 2.800000 -0.585786
v 3.414214 2.800000 -3.414213
v 4.000000 2.800000 -2.000000
v 2.000000 2.800000 0.000000
v 2.425000 2.800000 -1.575000
v 2.425000 2.800000 -2.425000
v 1.575000 2.800000 -1.575000
v 0.585786 2.800000 -0.585786
v 2.000000 2.800000 -4.000000
v 1.575000 2.800000 -2.425000
v 0.585786 2.800000 -3.414213
v 0.000000 2.800000 -2.000000
v 2.000000 4.400000 -0.400000
v 3.131371 4.400000 -3.131371
v 2.500000 1.600000 -2.500000
v 1.500000 1.600000 -2.500000
v 2.500000 1.600000 -1.500000
v 1.500000 1.600000 -1.500000
v -2.000000 7.680000 2.256000
v -3.131371 4.800000 3.131371
v -2.000000 4.800000 3.600000
v -2.181019 7.680000 2.181020
v -2.256000 7.680000 2.000000
v -3.600000 4.800000 2.000000
v -1.818981 7.680000 1.818981
v -1.818981 7.680000 2.181020
v -1.744000 7.680000 2.000000
v -2.000000 7.680000 1.744000
v -2.181019 7.680000 1.818981
v -4.000000 3.200000 2.000000
v -2.953554 4.400000 1.046447
v -3.414214 3.200000 0.585787
v -3.348528 4.400000 2.000000
v -1.046446 4.400000 2.953554
v 0.000000 3.200000 2.000000
v -0.651472 4.400000 2.000000
v -0.585786 3.200000 3.414214
v -0.400000 4.800000 2.000000
v -0.868629 4.800000 3.131371
v -2.000000 4.400000 3.348528
v -3.414214 3.200000 3.414214
v -2.000000 3.200000 4.000000
v -2.953554 4.400000 2.953554
v -2.000000 4.800000 0.400000
v -3.131371 4.800000 0.868629
v -1.046446 4.400000 1.046447
v -0.585786 3.200000 0.585787
v -2.000000 3.200000 0.000000
v -2.000000 4.400000 0.651472
v -0.868629 4.800000 0.868629
v -0.400000 4.400000 2.000000
v -0.868629 4.400000 3.131371
v -3.131371 4.400000 3.131371
v -3.600000 4.400000 2.000000
v -2.000000 4.400000 0.400000
v -3.131371 4.400000 0.868629
v -0.585786 2.800000 3.414214
v -0.585786 2.800000 0.585787
v 0.000000 2.800000 2.000000
v -2.000000 2.800000 4.000000
v -1.575000 2.800000 2.425000
v -1.575000 2.800000 1.575000
v -2.425000 2.800000 2.425000
v -3.414214 2.800000 3.414214
v -2.000000 2.800000 0.000000
v -2.425000 2.800000 1.575000
v -3.414214 2.800000 0.585787
v -4.000000 2.800000 2.000000
v -2.000000 4.400000 3.600000
v -0.868629 4.400000 0.868629
v -1.500000 1.600000 1.500000
v -2.500000 1.600000 1.500000
v -1.500000 1.600000 2.500000
v -2.500000 1.600000 2.500000
vt 0.004699 0.402615
vt 0.402615 0.004699
vt 0.402615 0.402615
vt 0.004699 0.004699
vt 0.451278 0.392748
vt 0.490543 0.776158
vt 0.451278 0.777786
vt 0.490543 0.391120
vt 0.644489 0.006326
vt 0.605223 0.392992
vt 0.605223 0.007954
vt 0.644489 0.391364
vt 0.499941 0.394375
vt 0.539207 0.777786
vt 0.499941 0.779413
vt 0.539207 0.392748
vt 0.732417 0.006326
vt 0.693152 0.392992
vt 0.693152 0.007954
vt 0.732417 0.391364
vt 0.402615 0.412012
vt 0.004699 0.809928
vt 0.004699 0.412012
vt 0.402615 0.809928
vt 0.412012 0.394375
vt 0.412012 0.779413
vt 0.771683 0.004699
vt 0.771683 0.389737
vt 0.578472 0.776158
vt 0.578472 0.391120
vt 0.683754 0.004699
vt 0.683754 0.389737
vt 0.804952 0.573652
vt 0.761671 0.423318
vt 0.822033 0.422039
vt 0.795294 0.573856
vt 0.889892 0.211724
vt 0.824361 0.357548
vt 0.841442 0.205935
vt 0.832113 0.358474
vt 0.723433 0.731923
vt 0.740070 0.738814
vt 0.730324 0.738814
vt 0.723433 0.722177
vt 0.746961 0.731923
vt 0.730324 0.715286
vt 0.746961 0.722177
vt 0.740070 0.715286
vt 0.217060 0.880136
vt 0.284395 0.936550
vt 0.221783 0.955457
vt 0.281210 0.885764
vt 0.091666 0.936550
vt 0.024332 0.880136
vt 0.088482 0.885764
vt 0.029054 0.955457
vt 0.814703 0.176166
vt 0.841442 0.024348
vt 0.824361 0.175961
vt 0.781080 0.025628
vt 0.983073 0.217480
vt 0.923645 0.287173
vt 0.918923 0.211852
vt 0.986257 0.268266
vt 0.812704 0.574578
vt 0.870483 0.427828
vt 0.221783 0.819326
vt 0.284395 0.844762
vt 0.819450 0.765562
vt 0.810122 0.918101
vt 0.761671 0.912312
vt 0.827202 0.766488
vt 0.091666 0.844762
vt 0.029054 0.819326
vt 0.966848 0.609412
vt 0.899514 0.644786
vt 0.904236 0.583976
vt 0.963664 0.650414
vt 0.870483 0.916822
vt 0.836860 0.766284
vt 0.986257 0.176478
vt 0.923645 0.151042
vt 0.832113 0.176888
vt 0.889892 0.030138
vt 0.904236 0.720107
vt 0.966848 0.701200
vt 0.814703 0.357753
vt 0.781080 0.207214
vt 0.923162 0.573652
vt 0.879881 0.423318
vt 0.940243 0.422039
vt 0.913504 0.573856
vt 0.870483 0.609414
vt 0.804952 0.755238
vt 0.822033 0.603625
vt 0.812704 0.756165
vt 0.740069 0.771739
vt 0.746961 0.755103
vt 0.746961 0.764848
vt 0.730324 0.771739
vt 0.740070 0.748211
vt 0.723433 0.764848
vt 0.730324 0.748211
vt 0.723433 0.755103
vt 0.313425 0.880136
vt 0.380759 0.936550
vt 0.318147 0.955457
vt 0.377575 0.885764
vt 0.188030 0.936550
vt 0.120696 0.880136
vt 0.184846 0.885764
vt 0.125418 0.955457
vt 0.487201 0.789532
vt 0.460463 0.941350
vt 0.477543 0.789737
vt 0.520824 0.940071
vt 0.963664 0.796757
vt 0.904236 0.866450
vt 0.899514 0.791129
vt 0.966848 0.847543
vt 0.930914 0.574578
vt 0.988693 0.427828
vt 0.318147 0.819326
vt 0.380759 0.844762
vt 0.663002 0.715286
vt 0.653673 0.867825
vt 0.605223 0.862036
vt 0.670754 0.716212
vt 0.188030 0.844762
vt 0.125418 0.819326
vt 0.986257 0.030135
vt 0.918923 0.065509
vt 0.923645 0.004699
vt 0.983073 0.071137
vt 0.714035 0.866546
vt 0.680412 0.716007
vt 0.966848 0.755754
vt 0.904236 0.730318
vt 0.469791 0.788811
vt 0.412012 0.935561
vt 0.923645 0.140830
vt 0.986257 0.121923
vt 0.795294 0.755443
vt 0.761671 0.604905
vt 0.841442 0.004699
vt 0.781080 0.005978
vt 0.889892 0.192074
vt 0.841442 0.186285
vt 0.810122 0.937751
vt 0.761671 0.931962
vt 0.595826 0.058536
vt 0.465850 0.004699
vt 0.541988 0.004699
vt 0.595826 0.134674
vt 0.531539 0.085165
vt 0.492478 0.068986
vt 0.515360 0.124225
vt 0.541988 0.188512
vt 0.412012 0.058536
vt 0.476299 0.108046
vt 0.412012 0.134674
vt 0.465850 0.188512
vt 0.009421 0.820140
vt 0.004699 0.880950
vt 0.884603 0.720921
vt 0.879881 0.645600
vt 0.009421 0.956271
vt 0.781080 0.187565
vt 0.904012 0.287987
vt 0.899290 0.212666
vt 0.648293 0.705888
vt 0.704417 0.694332
vt 0.709204 0.705888
vt 0.653080 0.694332
vt 0.605223 0.662818
vt 0.616779 0.658031
vt 0.616779 0.606694
vt 0.605223 0.601907
vt 0.653080 0.570393
vt 0.648293 0.558837
vt 0.752274 0.662818
vt 0.740718 0.658031
vt 0.752274 0.601908
vt 0.740718 0.606694
vt 0.704417 0.570393
vt 0.709204 0.558837
vt 0.870483 0.936472
vt 0.889892 0.010488
vt 0.822033 0.402389
vt 0.870483 0.408178
vt 0.761671 0.403668
vt 0.202150 0.820140
vt 0.197428 0.880950
vt 0.884603 0.584789
vt 0.202150 0.956271
vt 0.904012 0.151855
vt 0.460463 0.961000
vt 0.520824 0.959720
vt 0.870483 0.589765
vt 0.822033 0.583976
vt 0.653673 0.887474
vt 0.605223 0.881685
vt 0.595826 0.251747
vt 0.465850 0.197910
vt 0.541988 0.197910
vt 0.595826 0.327885
vt 0.531539 0.278376
vt 0.492479 0.262196
vt 0.515360 0.317436
vt 0.541988 0.381723
vt 0.412012 0.251747
vt 0.476299 0.301257
vt 0.412012 0.327885
vt 0.465850 0.381723
vt 0.105785 0.820140
vt 0.101063 0.880950
vt 0.904012 0.141644
vt 0.899290 0.066323
vt 0.105785 0.956271
vt 0.761671 0.585255
vt 0.884603 0.867264
vt 0.879881 0.791942
vt 0.709204 0.402389
vt 0.653080 0.413945
vt 0.648293 0.402389
vt 0.704417 0.413945
vt 0.752274 0.445459
vt 0.740718 0.450246
vt 0.740718 0.501583
vt 0.752274 0.506370
vt 0.704417 0.537884
vt 0.709204 0.549440
vt 0.605223 0.445459
vt 0.616779 0.450246
vt 0.605223 0.506370
vt 0.616779 0.501583
vt 0.653080 0.537884
vt 0.648293 0.549440
vt 0.714035 0.886195
vt 0.412012 0.955210
vt 0.940243 0.402389
vt 0.988693 0.408178
vt 0.879881 0.403668
vt 0.298514 0.820140
vt 0.293792 0.880950
vt 0.904012 0.005513
vt 0.298514 0.956271
vt 0.884603 0.731132
vt 0.576254 0.848314
vt 0.530222 0.788811
vt 0.578352 0.788811
vt 0.535344 0.848314
vt 0.607321 0.896872
vt 0.653353 0.956375
vt 0.605223 0.956375
vt 0.648231 0.896872
vt 0.662751 0.956375
vt 0.705758 0.896872
vt 0.710880 0.956375
vt 0.664848 0.896872
vt 0.925913 0.936164
vt 0.879881 0.876661
vt 0.928011 0.876661
vt 0.885003 0.936164
vt 0.879881 0.995301
vt 0.929620 0.945562
vt 0.929620 0.995301
vt 0.879881 0.945562
vt 0.945322 0.356887
vt 0.899290 0.297384
vt 0.947420 0.297384
vt 0.904412 0.356887
vt 0.939506 0.876661
vt 0.985538 0.936164
vt 0.937408 0.936164
vt 0.980416 0.876661
vt 0.530222 0.986115
vt 0.573230 0.926612
vt 0.578351 0.986115
vt 0.532319 0.926612
vt 0.532319 0.857711
vt 0.578352 0.917214
vt 0.530222 0.917214
vt 0.573230 0.857711
vt 0.939018 0.995301
vt 0.988757 0.945562
vt 0.988757 0.995301
vt 0.939018 0.945562
vn 0.0000 -1.0000 -0.0000
vn 1.0000 0.0000 0.0000
vn 0.0000 0.0000 1.0000
vn -1.0000 0.0000 0.0000
vn 0.0000 0.0000 -1.0000
vn 0.0000 1.0000 0.0000
vn -0.3514 0.3959 0.8484
vn -0.8484 0.3959 0.3514
vn -0.8258 0.4483 -0.3421
vn 0.8258 0.4483 0.3421
vn 0.8484 0.3959 0.3514
vn -0.3421 0.4483 0.8258
vn 0.3514 0.3959 0.8484
vn -0.8258 0.4483 0.3421
vn -0.3514 0.3959 -0.8484
vn 0.8258 0.4483 -0.3421
vn -0.3421 0.4483 -0.8258
vn 0.3514 0.3959 -0.8484
vn 0.3421 0.4483 0.8258
vn 0.8484 0.3959 -0.3514
vn 0.3421 0.4483 -0.8258
vn -0.8484 0.3959 -0.3514
vn 0.9239 -0.0000 0.3827
vn -0.9239 0.0000 0.3827
vn -0.3827 0.0000 -0.9239
vn 0.9239 0.0000 -0.3827
vn 0.3827 0.0000 -0.9239
vn -0.9239 0.0000 -0.3827
vn -0.3827 -0.0000 0.9239
vn 0.3827 -0.0000 0.9239
vn 0.0000 0.0624 -0.9981
vn 0.9981 0.0624 0.0000
vn -0.9981 0.0624 0.0000
vn 0.0000 0.0624 0.9981
s 1
f 1/1/1 2/2/1 3/3/1
f 2/2/1 1/1/1 4/4/1
f 5/5/2 2/6/2 6/7/2
f 2/6/2 5/5/2 3/8/2
f 5/9/3 1/10/3 3/11/3
f 1/10/3 5/9/3 7/12/3
f 1/13/4 8/14/4 4/15/4
f 8/14/4 1/13/4 7/16/4
f 8/17/5 2/18/5 4/19/5
f 2/18/5 8/17/5 6/20/5
f 9/21/6 10/22/6 11/23/6
f 10/22/6 9/21/6 12/24/6
f 10/25/2 6/7/2 11/26/2
f 6/7/2 10/25/2 5/5/2
f 9/27/5 6/20/5 8/17/5
f 6/20/5 9/27/5 11/28/5
f 7/16/4 9/29/4 8/14/4
f 9/29/4 7/16/4 12/30/4
f 10/31/3 7/12/3 5/9/3
f 7/12/3 10/31/3 12/32/3
f 13/33/7 14/34/7 15/35/7
f 14/34/7 13/33/7 16/36/7
f 14/37/8 17/38/8 18/39/8
f 17/38/8 14/37/8 16/40/8
f 19/41/6 20/42/6 21/43/6
f 20/42/6 19/41/6 22/44/6
f 20/42/6 22/44/6 13/45/6
f 13/45/6 22/44/6 23/46/6
f 13/45/6 23/46/6 16/47/6
f 16/47/6 23/46/6 17/48/6
f 24/49/9 25/50/9 26/51/9
f 25/50/9 24/49/9 27/52/9
f 28/53/10 29/54/10 30/55/10
f 29/54/10 28/53/10 31/56/10
f 20/57/11 32/58/11 21/59/11
f 32/58/11 20/57/11 33/60/11
f 34/61/12 35/62/12 36/63/12
f 35/62/12 34/61/12 37/64/12
f 20/65/13 15/35/13 33/66/13
f 15/35/13 20/65/13 13/33/13
f 35/67/14 27/52/14 24/49/14
f 27/52/14 35/67/14 37/68/14
f 23/69/15 38/70/15 39/71/15
f 38/70/15 23/69/15 22/72/15
f 40/73/16 29/54/16 41/74/16
f 29/54/16 40/73/16 30/55/16
f 25/75/17 42/76/17 26/77/17
f 42/76/17 25/75/17 43/78/17
f 22/72/18 44/79/18 38/70/18
f 44/79/18 22/72/18 19/80/18
f 28/81/19 36/63/19 31/82/19
f 36/63/19 28/81/19 34/61/19
f 19/83/20 32/58/20 44/84/20
f 32/58/20 19/83/20 21/59/20
f 43/78/21 41/85/21 42/76/21
f 41/85/21 43/78/21 40/86/21
f 18/39/22 23/87/22 39/88/22
f 23/87/22 18/39/22 17/38/22
f 69/89/7 70/90/7 71/91/7
f 70/90/7 69/89/7 72/92/7
f 70/93/8 73/94/8 74/95/8
f 73/94/8 70/93/8 72/96/8
f 75/97/6 76/98/6 77/99/6
f 76/98/6 75/97/6 78/100/6
f 76/98/6 78/100/6 69/101/6
f 69/101/6 78/100/6 79/102/6
f 69/101/6 79/102/6 72/103/6
f 72/103/6 79/102/6 73/104/6
f 80/105/9 81/106/9 82/107/9
f 81/106/9 80/105/9 83/108/9
f 84/109/10 85/110/10 86/111/10
f 85/110/10 84/109/10 87/112/10
f 76/113/11 88/114/11 77/115/11
f 88/114/11 76/113/11 89/116/11
f 90/117/12 91/118/12 92/119/12
f 91/118/12 90/117/12 93/120/12
f 76/121/13 71/91/13 89/122/13
f 71/91/13 76/121/13 69/89/13
f 91/123/14 83/108/14 80/105/14
f 83/108/14 91/123/14 93/124/14
f 79/125/15 94/126/15 95/127/15
f 94/126/15 79/125/15 78/128/15
f 96/129/16 85/110/16 97/130/16
f 85/110/16 96/129/16 86/111/16
f 81/131/17 98/132/17 82/133/17
f 98/132/17 81/131/17 99/134/17
f 78/128/18 100/135/18 94/126/18
f 100/135/18 78/128/18 75/136/18
f 84/137/19 92/119/19 87/138/19
f 92/119/19 84/137/19 90/117/19
f 75/139/20 88/114/20 100/140/20
f 88/114/20 75/139/20 77/115/20
f 99/134/21 97/141/21 98/132/21
f 97/141/21 99/134/21 96/142/21
f 74/95/22 79/143/22 95/144/22
f 79/143/22 74/95/22 73/94/22
f 33/60/23 45/145/23 32/58/23
f 45/145/23 33/60/23 46/146/23
f 47/147/24 18/39/24 48/148/24
f 18/39/24 47/147/24 14/37/24
f 39/71/25 49/149/25 50/150/25
f 49/149/25 39/71/25 38/70/25
f 51/151/1 52/152/1 53/153/1
f 52/152/1 51/151/1 54/154/1
f 52/152/1 54/154/1 55/155/1
f 52/152/1 55/155/1 56/156/1
f 55/155/1 54/154/1 57/157/1
f 57/157/1 54/154/1 58/158/1
f 56/156/1 59/159/1 52/152/1
f 59/159/1 56/156/1 60/160/1
f 59/159/1 60/160/1 61/161/1
f 61/161/1 60/160/1 57/157/1
f 61/161/1 57/157/1 58/158/1
f 61/161/1 58/158/1 62/162/1
f 29/54/26 52/163/26 41/74/26
f 52/163/26 29/54/26 53/164/26
f 42/76/27 52/165/27 59/166/27
f 52/165/27 42/76/27 41/85/27
f 31/56/23 53/164/23 29/54/23
f 53/164/23 31/56/23 51/167/23
f 48/148/28 39/88/28 50/168/28
f 39/88/28 48/148/28 18/39/28
f 36/63/29 58/169/29 54/170/29
f 58/169/29 36/63/29 35/62/29
f 46/171/1 30/172/1 45/173/1
f 30/172/1 46/171/1 28/174/1
f 28/174/1 46/171/1 63/175/1
f 28/174/1 63/175/1 34/176/1
f 34/176/1 63/175/1 37/177/1
f 37/177/1 63/175/1 47/178/1
f 37/177/1 47/178/1 27/179/1
f 27/179/1 47/178/1 48/180/1
f 30/172/1 64/181/1 45/173/1
f 64/181/1 30/172/1 40/182/1
f 64/181/1 40/182/1 49/183/1
f 49/183/1 40/182/1 43/184/1
f 49/183/1 43/184/1 25/185/1
f 49/183/1 25/185/1 50/186/1
f 50/186/1 25/185/1 27/179/1
f 50/186/1 27/179/1 48/180/1
f 38/70/27 64/187/27 49/149/27
f 64/187/27 38/70/27 44/79/27
f 32/58/26 64/188/26 44/84/26
f 64/188/26 32/58/26 45/145/26
f 33/66/30 63/189/30 46/190/30
f 63/189/30 33/66/30 15/35/30
f 15/35/29 47/191/29 63/189/29
f 47/191/29 15/35/29 14/34/29
f 58/192/24 24/49/24 62/193/24
f 24/49/24 58/192/24 35/67/24
f 26/77/25 59/166/25 61/194/25
f 59/166/25 26/77/25 42/76/25
f 62/193/28 26/51/28 61/195/28
f 26/51/28 62/193/28 24/49/28
f 31/82/30 54/170/30 51/196/30
f 54/170/30 31/82/30 36/63/30
f 89/116/23 101/197/23 88/114/23
f 101/197/23 89/116/23 102/198/23
f 103/199/24 74/95/24 104/200/24
f 74/95/24 103/199/24 70/93/24
f 95/127/25 105/201/25 106/202/25
f 105/201/25 95/127/25 94/126/25
f 107/203/1 108/204/1 109/205/1
f 108/204/1 107/203/1 110/206/1
f 108/204/1 110/206/1 111/207/1
f 108/204/1 111/207/1 112/208/1
f 111/207/1 110/206/1 113/209/1
f 113/209/1 110/206/1 114/210/1
f 112/208/1 115/211/1 108/204/1
f 115/211/1 112/208/1 116/212/1
f 115/211/1 116/212/1 117/213/1
f 117/213/1 116/212/1 113/209/1
f 117/213/1 113/209/1 114/210/1
f 117/213/1 114/210/1 118/214/1
f 85/110/26 108/215/26 97/130/26
f 108/215/26 85/110/26 109/216/26
f 98/132/27 108/217/27 115/218/27
f 108/217/27 98/132/27 97/141/27
f 87/112/23 109/216/23 85/110/23
f 109/216/23 87/112/23 107/219/23
f 104/200/28 95/144/28 106/220/28
f 95/144/28 104/200/28 74/95/28
f 92/119/29 114/221/29 110/222/29
f 114/221/29 92/119/29 91/118/29
f 102/223/1 86/224/1 101/225/1
f 86/224/1 102/223/1 84/226/1
f 84/226/1 102/223/1 119/227/1
f 84/226/1 119/227/1 90/228/1
f 90/228/1 119/227/1 93/229/1
f 93/229/1 119/227/1 103/230/1
f 93/229/1 103/230/1 83/231/1
f 83/231/1 103/230/1 104/232/1
f 86/224/1 120/233/1 101/225/1
f 120/233/1 86/224/1 96/234/1
f 120/233/1 96/234/1 105/235/1
f 105/235/1 96/234/1 99/236/1
f 105/235/1 99/236/1 81/237/1
f 105/235/1 81/237/1 106/238/1
f 106/238/1 81/237/1 83/231/1
f 106/238/1 83/231/1 104/232/1
f 94/126/27 120/239/27 105/201/27
f 120/239/27 94/126/27 100/135/27
f 88/114/26 120/240/26 100/140/26
f 120/240/26 88/114/26 101/197/26
f 89/122/30 119/241/30 102/242/30
f 119/241/30 89/122/30 71/91/30
f 71/91/29 103/243/29 119/241/29
f 103/243/29 71/91/29 70/90/29
f 114/244/24 80/105/24 118/245/24
f 80/105/24 114/244/24 91/123/24
f 82/133/25 115/218/25 117/246/25
f 115/218/25 82/133/25 98/132/25
f 118/245/28 82/107/28 117/247/28
f 82/107/28 118/245/28 80/105/28
f 87/138/30 110/222/30 107/248/30
f 110/222/30 87/138/30 92/119/30
f 60/249/31 65/250/31 66/251/31
f 65/250/31 60/249/31 56/252/31
f 56/253/32 67/254/32 65/255/32
f 67/254/32 56/253/32 55/256/32
f 68/257/33 60/258/33 66/259/33
f 60/258/33 68/257/33 57/260/33
f 55/261/34 68/262/34 67/263/34
f 68/262/34 55/261/34 57/264/34
f 67/265/1 66/266/1 65/267/1
f 66/266/1 67/265/1 68/268/1
f 116/269/31 121/270/31 122/271/31
f 121/270/31 116/269/31 112/272/31
f 112/273/32 123/274/32 121/275/32
f 123/274/32 112/273/32 111/276/32
f 124/277/33 116/278/33 122/279/33
f 116/278/33 124/277/33 113/280/33
f 111/281/34 124/282/34 123/283/34
f 124/282/34 111/281/34 113/284/34
f 123/285/1 122/286/1 121/287/1
f 122/286/1 123/285/1 124/288/1
