# Blender v2.92.0 OBJ File: 'kenney_OGConvert.blend'
# www.blender.org
o snow_detail_crystal
v 0.080100 0.285000 0.080100
v 0.080100 0.265000 -0.080100
v 0.080100 0.285000 -0.080100
v 0.080100 0.265000 0.080100
v -0.080100 0.265000 -0.080100
v 0.045000 0.000000 -0.045000
v -0.045000 0.000000 -0.045000
v -0.080100 0.265000 0.080100
v -0.045000 -0.000000 0.045000
v -0.080100 0.285000 -0.080100
v -0.080100 0.285000 0.080100
v 0.045000 -0.000000 0.045000
v 0.034443 0.350000 0.034443
v -0.034443 0.350000 0.034443
v -0.034443 0.350000 -0.034443
v 0.034443 0.350000 -0.034443
vt 0.248300 0.096915
vt 0.001700 0.127635
vt 0.001700 0.096915
vt 0.248300 0.127635
vt 0.251700 0.127635
vt 0.444270 0.538229
vt 0.305730 0.538229
vt 0.498300 0.127635
vt 0.555730 0.001700
vt 0.748300 0.412293
vt 0.501700 0.412293
vt 0.694270 0.001700
vt 0.501700 0.443013
vt 0.748300 0.443013
vt 0.998300 0.412293
vt 0.805730 0.001700
vt 0.944270 0.001700
vt 0.751700 0.412293
vt 0.001700 0.680168
vt 0.140239 0.541628
vt 0.140239 0.680168
vt 0.001700 0.541628
vt 0.055730 0.538229
vt 0.194270 0.538229
vt 0.998300 0.443013
vt 0.751700 0.443013
vt 0.251700 0.096915
vt 0.498300 0.096915
vt 0.928019 0.538229
vt 0.821981 0.538229
vt 0.571981 0.538229
vt 0.678019 0.538229
vt 0.071981 0.001700
vt 0.178019 0.001700
vt 0.321981 0.001700
vt 0.428019 0.001700
vt 0.249677 0.541628
vt 0.143638 0.647666
vt 0.143639 0.541628
vt 0.249677 0.647666
vn 1.0000 0.0000 -0.0000
vn -0.0000 -0.1313 -0.9913
vn -0.9913 -0.1313 0.0000
vn -1.0000 0.0000 0.0000
vn 0.0000 -0.1313 0.9913
vn -0.0000 -1.0000 -0.0000
vn 0.9913 -0.1313 -0.0000
vn 0.0000 -0.0000 1.0000
vn -0.0000 0.0000 -1.0000
vn 0.0000 0.5748 0.8183
vn -0.8183 0.5748 0.0000
vn 0.8183 0.5748 -0.0000
vn -0.0000 0.5748 -0.8183
vn 0.0000 1.0000 0.0000
s 1
f 1/1/1 2/2/1 3/3/1
f 2/2/1 1/1/1 4/4/1
f 5/5/2 6/6/2 7/7/2
f 6/6/2 5/5/2 2/8/2
f 7/9/3 8/10/3 5/11/3
f 8/10/3 7/9/3 9/12/3
f 8/10/4 10/13/4 5/11/4
f 10/13/4 8/10/4 11/14/4
f 4/15/5 9/16/5 12/17/5
f 9/16/5 4/15/5 8/18/5
f 9/19/6 6/20/6 12/21/6
f 6/20/6 9/19/6 7/22/6
f 4/4/7 6/23/7 2/2/7
f 6/23/7 4/4/7 12/24/7
f 1/25/8 8/18/8 4/15/8
f 8/18/8 1/25/8 11/26/8
f 10/27/9 2/8/9 5/5/9
f 2/8/9 10/27/9 3/28/9
f 13/29/10 11/26/10 1/25/10
f 11/26/10 13/29/10 14/30/10
f 11/14/11 15/31/11 10/13/11
f 15/31/11 11/14/11 14/32/11
f 16/33/12 1/1/12 3/3/12
f 1/1/12 16/33/12 13/34/12
f 15/35/13 3/28/13 10/27/13
f 3/28/13 15/35/13 16/36/13
f 15/37/14 13/38/14 16/39/14
f 13/38/14 15/37/14 14/40/14
