# Blender v2.92.0 OBJ File: 'OGConvert.blend'
# www.blender.org
o snow_tile_crystal
v -4.000000 -0.000000 4.000000
v 4.000000 0.000000 -4.000000
v 4.000000 -0.000000 4.000000
v -4.000000 0.000000 -4.000000
v 4.000000 0.800000 4.000000
v 4.000000 0.800000 -4.000000
v -4.000000 0.800000 4.000000
v -4.000000 0.800000 -4.000000
v -4.000000 1.600000 -4.000000
v 4.000000 1.600000 4.000000
v 4.000000 1.600000 -4.000000
v -4.000000 1.600000 4.000000
v 1.879078 5.857947 0.243616
v 2.175862 5.046277 1.489844
v 2.175862 5.046277 -0.253132
v 1.879078 5.857947 0.993096
v 0.058607 2.403409 1.107956
v 1.004441 2.149974 0.128756
v 1.004441 2.149974 1.107956
v 0.058607 2.403409 0.128756
v 1.155136 6.051927 0.243617
v 0.492277 5.497392 -0.253132
v 0.435958 5.287206 1.489844
v 0.435958 5.287206 -0.253132
v 2.119543 4.836091 -0.253132
v 2.119543 4.836091 1.489844
v 0.492277 5.497392 1.489844
v 1.155136 6.051927 0.993096
v -1.956417 4.646621 -1.270193
v -1.446015 4.219629 -0.310598
v -1.446015 4.219629 -1.652689
v -1.956417 4.646621 -0.693094
v -1.840382 1.642117 -0.604652
v -1.112089 1.837262 -1.358636
v -1.112089 1.837262 -0.604652
v -1.840382 1.642117 -1.358636
v -2.513852 4.497256 -1.270193
v -2.742376 3.872270 -1.652689
v -2.699011 3.710428 -0.310598
v -2.699011 3.710428 -1.652689
v -1.402650 4.057786 -1.652689
v -1.402650 4.057786 -0.310598
v -2.742376 3.872270 -0.310598
v -2.513852 4.497256 -0.693094
v -1.520306 1.642117 1.686494
v -1.195449 3.710427 3.001825
v -2.270104 3.710427 2.197881
v -0.916568 1.642117 2.138149
v -1.518996 4.646621 1.832387
v -0.444875 4.219630 1.998513
v -1.519530 4.219630 1.194568
v -1.056894 4.646621 2.178083
v -0.418898 4.057786 1.963788
v -1.084042 1.837262 1.103328
v -1.493553 4.057786 1.159844
v -0.480304 1.837262 1.554982
v -1.852913 4.497257 2.278743
v -2.296081 3.872270 2.232605
v -1.221426 3.872270 3.036550
v -1.390811 4.497257 2.624439
v -3.557131 1.996663 1.972654
v -2.308579 2.393326 2.508446
v -2.947192 2.393326 1.296072
v 2.256456 1.996663 2.117148
v 0.551295 1.600000 3.611310
v 2.378688 1.600000 2.147407
v 0.551295 3.794176 2.902289
v 1.394306 3.794176 2.226964
v 0.663467 4.948864 -1.511461
v 1.612272 2.850441 0.243623
v 0.951206 2.850441 -1.999678
v 1.146698 4.948864 0.128371
v -1.077727 4.948864 0.373352
v -1.077727 4.948864 -0.909386
v -1.790639 3.113981 0.229149
v -2.313559 1.600000 -1.020638
v -1.844281 2.393326 -0.091820
v -1.770712 1.865309 -0.710018
v -2.538202 2.393326 -0.091820
v -3.085618 1.600000 -1.020638
v 1.262811 3.794176 0.487783
v 1.489453 2.850441 0.342012
v 1.349611 3.338409 0.340508
v 1.639151 2.850441 0.850009
v 1.584813 3.794176 1.580482
v 2.173936 1.600000 1.452587
v -1.423519 3.113981 -1.016659
v -0.900305 4.948864 -1.511461
v -1.151908 3.113981 -1.938363
v -1.950530 2.393326 0.268730
v -0.537009 3.113982 -3.290978
v 0.041616 1.600000 -3.454499
v -0.119134 1.600000 -4.000000
v -0.047184 2.119154 -3.026457
v -0.138414 3.113981 -1.938363
v 0.031847 2.621120 -2.053032
v -2.308579 1.851210 -3.882354
v -2.377915 1.600000 -4.000000
v -1.358539 3.113982 -3.290978
v 1.033398 3.794176 0.487783
v -0.118419 3.794176 1.410491
v -0.118419 4.948864 1.141843
v 3.016832 2.850441 -0.253635
v 4.000000 1.600000 -0.010252
v 0.183276 2.850441 -1.999678
v 1.940951 2.850441 -2.423511
v 2.687412 2.850441 -1.371509
v 2.792283 1.996663 -3.127450
v -0.284809 1.600000 2.941516
v -0.704528 2.393326 2.348930
v -0.599962 3.794176 1.980030
v -1.031634 2.393326 2.086890
v -3.075917 1.600000 -1.631354
v -2.399782 3.113981 -1.798732
v -0.773670 2.393326 1.211498
v -0.372215 3.794176 1.207178
v 0.308173 2.850441 -2.423511
v 2.985036 1.600000 -3.454499
v -2.145915 3.113981 -2.660220
v -1.606116 1.600000 4.000000
v -1.606116 2.393326 3.071182
v -4.000000 1.600000 2.082286
vt 0.775854 0.385473
vt 0.395527 0.005711
vt 0.775854 0.004908
vt 0.395527 0.386275
vt 0.665785 0.401170
vt 0.703149 0.672474
vt 0.665785 0.677552
vt 0.703149 0.396092
vt 0.580584 0.697286
vt 0.618604 0.396092
vt 0.618604 0.695895
vt 0.580584 0.397483
vt 0.207696 0.400969
vt 0.245107 0.751814
vt 0.207696 0.754472
vt 0.245107 0.398310
vt 0.329301 0.401036
vt 0.292334 0.714609
vt 0.292334 0.406420
vt 0.329301 0.709224
vt 0.004908 0.385834
vt 0.385710 0.004908
vt 0.385710 0.385723
vt 0.004908 0.005020
vt 0.628420 0.406249
vt 0.628420 0.682631
vt 0.366269 0.395651
vt 0.366269 0.703839
vt 0.282517 0.749155
vt 0.282517 0.395651
vt 0.542565 0.698677
vt 0.542565 0.398874
vt 0.565567 0.708516
vt 0.602785 0.834807
vt 0.542565 0.786581
vt 0.640003 0.708494
vt 0.648448 0.798212
vt 0.648448 0.737151
vt 0.277541 0.764289
vt 0.200984 0.796419
vt 0.224249 0.774333
vt 0.190649 0.846779
vt 0.282517 0.774009
vt 0.268396 0.842816
vt 0.254704 0.875566
vt 0.282517 0.849162
vt 0.499626 0.440711
vt 0.469347 0.453381
vt 0.466986 0.435646
vt 0.469811 0.561343
vt 0.508715 0.508978
vt 0.432654 0.582686
vt 0.412829 0.532195
vt 0.407096 0.489137
vt 0.395527 0.542133
vt 0.854973 0.509528
vt 0.890240 0.448229
vt 0.918361 0.487427
vt 0.832179 0.477753
vt 0.918361 0.412159
vt 0.834733 0.429805
vt 0.861017 0.396092
vt 0.502279 0.680918
vt 0.425781 0.592502
vt 0.503068 0.625444
vt 0.481529 0.738717
vt 0.432313 0.620648
vt 0.430731 0.731971
vt 0.406679 0.759644
vt 0.395527 0.741813
vt 0.425423 0.617711
vt 0.732365 0.414306
vt 0.773100 0.452884
vt 0.712966 0.456021
vt 0.758223 0.412957
vt 0.832179 0.565896
vt 0.876693 0.520079
vt 0.876693 0.566631
vt 0.832179 0.519344
vt 0.824832 0.004908
vt 0.853231 0.059473
vt 0.787187 0.033350
vt 0.853231 0.016141
vt 0.355494 0.872982
vt 0.292334 0.734757
vt 0.369352 0.734757
vt 0.312226 0.872982
vt 0.785671 0.042973
vt 0.827828 0.187332
vt 0.790725 0.172656
vt 0.851714 0.069096
vt 0.776724 0.462005
vt 0.788579 0.576712
vt 0.716590 0.465142
vt 0.822362 0.574949
vt 0.897936 0.724978
vt 0.847584 0.586528
vt 0.884603 0.586528
vt 0.832042 0.724978
vt 0.369634 0.724425
vt 0.292615 0.724425
vt 0.039201 0.900958
vt 0.004908 0.936794
vt 0.004908 0.901117
vt 0.039201 0.936634
vt 0.897027 0.735230
vt 0.831134 0.735230
vt 0.071231 0.960698
vt 0.071231 0.877730
vt 0.822362 0.413662
vt 0.779406 0.396092
vt 0.478738 0.926756
vt 0.502666 0.880741
vt 0.502666 0.944627
vt 0.478738 0.899285
vt 0.695884 0.787868
vt 0.660870 0.824133
vt 0.660870 0.788288
vt 0.695884 0.823713
vt 0.952822 0.536420
vt 0.928177 0.508980
vt 0.978393 0.510402
vt 0.931229 0.535809
vt 0.144447 0.762338
vt 0.175477 0.870083
vt 0.120243 0.848492
vt 0.175477 0.774468
vt 0.978393 0.502431
vt 0.930523 0.396092
vt 0.958734 0.396891
vt 0.928177 0.501009
vt 0.395893 0.987133
vt 0.427342 0.880741
vt 0.442259 0.987133
vt 0.401293 0.880741
vt 0.974413 0.856195
vt 0.926010 0.748950
vt 0.954827 0.753331
vt 0.923120 0.848397
vt 0.118832 0.855650
vt 0.174066 0.877242
vt 0.452076 0.926649
vt 0.452076 0.899178
vt 0.974413 0.864003
vt 0.923120 0.856205
vt 0.395527 0.995092
vt 0.441893 0.995092
vt 0.121421 0.890233
vt 0.145171 0.899518
vt 0.948936 0.890148
vt 0.926880 0.886795
vt 0.593554 0.978908
vt 0.542621 0.882453
vt 0.606498 0.882453
vt 0.557668 0.978908
vt 0.908732 0.143923
vt 0.863047 0.119253
vt 0.926942 0.119253
vt 0.881257 0.143923
vt 0.863047 0.111293
vt 0.912942 0.004908
vt 0.926942 0.111293
vt 0.877047 0.004908
vt 0.954811 0.723146
vt 0.907752 0.693645
vt 0.970425 0.693645
vt 0.927862 0.723146
vt 0.876631 0.233635
vt 0.940188 0.225773
vt 0.940301 0.233635
vt 0.876519 0.225773
vt 0.787142 0.905254
vt 0.822354 0.869358
vt 0.822354 0.905254
vt 0.787142 0.869358
vt 0.970793 0.685895
vt 0.929371 0.586528
vt 0.964580 0.586528
vt 0.908120 0.685895
vt 0.893233 0.335453
vt 0.929002 0.335453
vt 0.785671 0.381324
vt 0.812371 0.353819
vt 0.812371 0.381293
vt 0.785671 0.353850
vt 0.542565 0.874853
vt 0.588456 0.844623
vt 0.606442 0.874853
vt 0.560989 0.844623
vt 0.923181 0.197148
vt 0.895803 0.197148
vt 0.532748 0.545608
vt 0.803338 0.856185
vt 0.822707 0.748950
vt 0.822707 0.859541
vt 0.715567 0.771302
vt 0.715567 0.822319
vt 0.188812 0.583577
vt 0.098027 0.669214
vt 0.085622 0.579957
vt 0.197880 0.648823
vt 0.821317 0.736143
vt 0.764643 0.737066
vt 0.819753 0.643985
vt 0.496433 0.396092
vt 0.468433 0.406503
vt 0.532748 0.401727
vt 0.632669 0.849609
vt 0.616315 0.893272
vt 0.621830 0.869753
vt 0.635748 0.899500
vt 0.674470 0.863005
vt 0.644517 0.967109
vt 0.671097 0.975628
vt 0.674470 0.956153
vt 0.758375 0.648264
vt 0.734980 0.739134
vt 0.712966 0.651429
vt 0.772814 0.586528
vt 0.803554 0.610065
vt 0.821317 0.608827
vt 0.097211 0.486471
vt 0.021976 0.503381
vt 0.018959 0.481676
vt 0.049831 0.512382
vt 0.104690 0.540290
vt 0.079859 0.543350
vt 0.044237 0.401728
vt 0.032057 0.395651
vt 0.101975 0.455183
vt 0.480285 0.870925
vt 0.486135 0.769460
vt 0.493568 0.769460
vt 0.481135 0.793055
vt 0.465233 0.815093
vt 0.395527 0.815093
vt 0.403722 0.870925
vt 0.712966 0.954512
vt 0.777326 0.869358
vt 0.777326 0.979869
vt 0.712966 0.871137
vt 0.090075 0.550710
vt 0.110567 0.501691
vt 0.197880 0.524021
vt 0.528684 0.759644
vt 0.025798 0.762338
vt 0.055909 0.867913
vt 0.004908 0.867913
vt 0.089063 0.829741
vt 0.096022 0.762338
vt 0.109016 0.829741
vt 0.892919 0.951703
vt 0.905751 0.875747
vt 0.905751 0.922248
vt 0.832523 0.896114
vt 0.832523 0.955664
vt 0.335392 0.951937
vt 0.297377 0.886221
vt 0.335392 0.882798
vt 0.292334 0.955814
vt 0.524856 0.819060
vt 0.503384 0.807663
vt 0.524856 0.769460
vt 0.514548 0.825369
vt 0.625372 0.844623
vt 0.004908 0.615480
vt 0.026916 0.617601
vt 0.076815 0.605544
vt 0.086283 0.543360
vt 0.023953 0.752521
vt 0.080102 0.664024
vt 0.086283 0.708502
vt 0.900697 0.753111
vt 0.837329 0.805178
vt 0.832523 0.763287
vt 0.712966 0.850711
vt 0.660870 0.778052
vt 0.703149 0.692447
vt 0.703149 0.772411
vt 0.660870 0.723489
vt 0.913303 0.865930
vt 0.913303 0.748950
vt 0.837329 0.847724
vt 0.980505 0.004908
vt 0.936758 0.105318
vt 0.936758 0.036774
vt 0.958632 0.145735
vt 0.980505 0.158152
vt 0.811491 0.197148
vt 0.800277 0.251903
vt 0.785671 0.246775
vt 0.866702 0.216533
vt 0.866702 0.309799
vt 0.859790 0.344003
vt 0.792058 0.320222
vt 0.950117 0.273001
vt 0.989454 0.343169
vt 0.950117 0.315849
vt 0.989454 0.197148
vt 0.969786 0.210502
vn 0.0000 -1.0000 -0.0000
vn 1.0000 0.0000 0.0000
vn 0.0000 0.0000 1.0000
vn -1.0000 0.0000 0.0000
vn 0.0000 0.0000 -1.0000
vn 0.0000 1.0000 0.0000
vn 0.9392 0.3434 0.0000
vn -0.2588 -0.9659 0.0000
vn 0.1488 0.5552 -0.8183
vn -0.9915 0.1297 0.0000
vn -0.0340 -0.1268 -0.9913
vn 0.9236 -0.3834 0.0000
vn -0.0340 -0.1268 0.9913
vn -0.9659 0.2588 0.0000
vn 0.2588 0.9659 0.0000
vn 0.9659 -0.2588 0.0000
vn -0.6417 0.7670 0.0000
vn 0.1488 0.5552 0.8183
vn 0.6417 0.7670 0.0000
vn 0.2588 -0.9659 0.0000
vn -0.1488 0.5552 -0.8183
vn -0.9236 -0.3834 0.0000
vn 0.0340 -0.1268 -0.9913
vn 0.9915 0.1297 0.0000
vn 0.0340 -0.1268 0.9913
vn -0.9659 -0.2588 0.0000
vn -0.2588 0.9659 0.0000
vn 0.9659 0.2588 0.0000
vn -0.9392 0.3434 0.0000
vn -0.1488 0.5552 0.8183
vn -0.5532 -0.3834 0.7395
vn 0.3844 0.7670 -0.5138
vn 0.5940 0.1297 -0.7940
vn 0.5786 0.2588 -0.7734
vn -0.7444 0.5552 -0.3711
vn 0.8007 -0.0000 0.5990
vn 0.1550 -0.9659 -0.2072
vn -0.7734 -0.1268 -0.6210
vn 0.8142 -0.1268 0.5666
vn -0.1550 0.9659 0.2072
vn -0.8007 -0.0000 -0.5990
vn -0.5626 0.3434 0.7520
vn 0.5661 0.5552 0.6093
vn -0.5786 -0.2588 0.7734
vn -0.3761 0.8995 0.2225
vn 0.5658 0.2241 0.7935
vn 0.9324 0.1883 -0.3086
vn -0.9343 0.3564 0.0000
vn -0.9461 0.2475 -0.2091
vn -0.9411 0.2194 -0.2573
vn -0.0000 0.7152 -0.6989
vn 0.9174 0.2573 -0.3037
vn -0.9324 0.1883 -0.3086
vn 0.8857 0.3600 -0.2932
vn -0.0000 0.3788 -0.9255
vn 0.5728 0.1633 0.8032
vn 0.5008 0.5060 0.7022
vn 0.0000 0.1993 -0.9799
vn 0.4970 0.7720 -0.3962
vn -0.5658 0.2241 0.7935
vn -0.5508 0.3161 0.7724
vn -0.9174 0.2573 -0.3037
vn -0.7853 0.5619 -0.2600
vn -0.0000 0.2718 -0.9624
vn -0.0000 0.5846 -0.8113
vn 0.7853 0.5619 -0.2600
vn -0.4618 0.6061 -0.6476
vn 0.8720 0.3952 0.2887
vn 0.4461 0.6401 0.6255
vn -0.8857 0.3600 -0.2932
vn -0.6832 0.6943 -0.2262
vn -0.5728 0.1633 0.8032
vn -0.4461 0.6401 0.6255
s 1
f 1/1/1 2/2/1 3/3/1
f 2/2/1 1/1/1 4/4/1
f 5/5/2 2/6/2 6/7/2
f 2/6/2 5/5/2 3/8/2
f 5/9/3 1/10/3 3/11/3
f 1/10/3 5/9/3 7/12/3
f 1/13/4 8/14/4 4/15/4
f 8/14/4 1/13/4 7/16/4
f 8/17/5 2/18/5 4/19/5
f 2/18/5 8/17/5 6/20/5
f 9/21/6 10/22/6 11/23/6
f 10/22/6 9/21/6 12/24/6
f 10/25/2 6/7/2 11/26/2
f 6/7/2 10/25/2 5/5/2
f 9/27/5 6/20/5 8/17/5
f 6/20/5 9/27/5 11/28/5
f 7/16/4 9/29/4 8/14/4
f 9/29/4 7/16/4 12/30/4
f 10/31/3 7/12/3 5/9/3
f 7/12/3 10/31/3 12/32/3
f 69/33/6 102/34/6 72/35/6
f 102/34/6 69/33/6 88/36/6
f 102/34/6 88/36/6 73/37/6
f 73/37/6 88/36/6 74/38/6
f 81/39/6 68/40/6 85/41/6
f 68/40/6 81/39/6 67/42/6
f 67/42/6 81/39/6 100/43/6
f 67/42/6 100/43/6 101/44/6
f 67/42/6 101/44/6 111/45/6
f 111/45/6 101/44/6 116/46/6
f 79/47/6 90/48/6 77/49/6
f 90/48/6 79/47/6 62/50/6
f 62/50/6 79/47/6 63/51/6
f 121/52/6 90/48/6 62/50/6
f 112/53/6 90/48/6 121/52/6
f 90/48/6 112/53/6 115/54/6
f 121/52/6 110/55/6 112/53/6
f 91/56/6 89/57/6 95/58/6
f 89/57/6 91/56/6 99/59/6
f 89/57/6 99/59/6 87/60/6
f 87/60/6 99/59/6 119/61/6
f 87/60/6 119/61/6 114/62/6
f 107/63/6 84/64/6 103/65/6
f 84/64/6 107/63/6 106/66/6
f 84/64/6 106/66/6 70/67/6
f 70/67/6 106/66/6 71/68/6
f 71/68/6 106/66/6 117/69/6
f 71/68/6 117/69/6 105/70/6
f 82/71/6 84/64/6 70/67/6
f 13/72/7 14/73/7 15/74/7
f 14/73/7 13/72/7 16/75/7
f 17/76/8 18/77/8 19/78/8
f 18/77/8 17/76/8 20/79/8
f 21/80/9 15/81/9 22/82/9
f 15/81/9 21/80/9 13/83/9
f 20/84/10 23/85/10 24/86/10
f 23/85/10 20/84/10 17/87/10
f 24/88/11 18/89/11 20/90/11
f 18/89/11 24/88/11 25/91/11
f 26/92/12 18/93/12 25/94/12
f 18/93/12 26/92/12 19/95/12
f 26/96/13 17/97/13 19/98/13
f 17/97/13 26/96/13 23/99/13
f 23/85/14 22/100/14 24/86/14
f 22/100/14 23/85/14 27/101/14
f 21/102/15 16/103/15 13/104/15
f 16/103/15 21/102/15 28/105/15
f 14/106/3 23/99/3 26/96/3
f 23/99/3 14/106/3 27/107/3
f 14/73/16 25/94/16 15/74/16
f 25/94/16 14/73/16 26/92/16
f 22/82/5 25/91/5 24/88/5
f 25/91/5 22/82/5 15/81/5
f 27/108/17 21/102/17 22/109/17
f 21/102/17 27/108/17 28/105/17
f 16/75/18 27/110/18 14/73/18
f 27/110/18 16/75/18 28/111/18
f 29/112/19 30/113/19 31/114/19
f 30/113/19 29/112/19 32/115/19
f 33/116/20 34/117/20 35/118/20
f 34/117/20 33/116/20 36/119/20
f 37/120/21 31/121/21 38/122/21
f 31/121/21 37/120/21 29/123/21
f 36/124/22 39/125/22 40/126/22
f 39/125/22 36/124/22 33/127/22
f 40/128/23 34/129/23 36/130/23
f 34/129/23 40/128/23 41/131/23
f 42/132/24 34/133/24 41/134/24
f 34/133/24 42/132/24 35/135/24
f 42/136/25 33/137/25 35/138/25
f 33/137/25 42/136/25 39/139/25
f 39/125/26 38/140/26 40/126/26
f 38/140/26 39/125/26 43/141/26
f 37/142/27 32/115/27 29/112/27
f 32/115/27 37/142/27 44/143/27
f 30/144/3 39/139/3 42/136/3
f 39/139/3 30/144/3 43/145/3
f 30/146/28 41/134/28 31/147/28
f 41/134/28 30/146/28 42/132/28
f 38/122/5 41/131/5 40/128/5
f 41/131/5 38/122/5 31/121/5
f 43/141/29 37/148/29 38/140/29
f 37/148/29 43/141/29 44/149/29
f 32/150/30 43/145/30 30/144/30
f 43/145/30 32/150/30 44/151/30
f 45/152/31 46/153/31 47/154/31
f 46/153/31 45/152/31 48/155/31
f 49/156/32 50/157/32 51/158/32
f 50/157/32 49/156/32 52/159/32
f 53/160/33 54/161/33 55/162/33
f 54/161/33 53/160/33 56/163/33
f 50/157/34 55/162/34 51/158/34
f 55/162/34 50/157/34 53/160/34
f 57/164/35 51/165/35 58/166/35
f 51/165/35 57/164/35 49/167/35
f 53/168/36 59/169/36 46/170/36
f 59/169/36 53/168/36 50/171/36
f 48/172/37 54/173/37 56/174/37
f 54/173/37 48/172/37 45/175/37
f 47/176/38 54/177/38 45/178/38
f 54/177/38 47/176/38 55/179/38
f 56/180/39 46/170/39 48/181/39
f 46/170/39 56/180/39 53/168/39
f 57/182/40 52/183/40 49/184/40
f 52/183/40 57/182/40 60/185/40
f 58/166/41 55/179/41 47/176/41
f 55/179/41 58/166/41 51/165/41
f 59/186/42 57/187/42 58/188/42
f 57/187/42 59/186/42 60/189/42
f 50/171/43 60/190/43 59/169/43
f 60/190/43 50/171/43 52/191/43
f 46/153/44 58/188/44 47/154/44
f 58/188/44 46/153/44 59/186/44
f 61/192/45 62/50/45 63/51/45
f 64/193/46 65/194/46 66/195/46
f 65/194/46 64/193/46 67/196/46
f 67/196/46 64/193/46 68/197/46
f 69/198/47 70/199/47 71/200/47
f 70/199/47 69/198/47 72/201/47
f 73/202/48 74/203/49 75/204/50
f 76/205/51 77/49/51 78/206/51
f 77/49/51 76/205/51 79/47/51
f 79/47/51 76/205/51 80/207/51
f 81/208/52 82/209/52 83/210/52
f 82/209/52 81/208/52 84/211/52
f 84/211/52 81/208/52 85/212/52
f 84/211/52 85/212/52 86/213/52
f 86/213/52 85/212/52 66/214/52
f 66/214/52 85/212/52 64/215/52
f 87/216/53 88/217/53 89/218/53
f 88/217/53 87/216/53 74/203/49
f 74/203/49 87/216/53 78/219/53
f 74/203/49 78/219/53 75/204/50
f 75/204/50 78/219/53 77/220/53
f 75/204/50 77/220/53 90/221/53
f 91/222/54 92/223/54 93/224/54
f 92/223/54 91/222/54 94/225/54
f 94/225/54 91/222/54 95/226/54
f 94/225/54 95/226/54 96/227/54
f 97/228/55 93/224/55 98/229/55
f 93/224/55 97/228/55 91/222/55
f 91/222/55 97/228/55 99/230/55
f 72/231/56 82/232/56 70/233/56
f 82/232/56 72/231/56 83/234/56
f 83/234/56 72/231/56 100/235/56
f 100/235/56 72/231/56 101/236/56
f 101/236/56 72/231/56 102/237/56
f 103/238/57 86/239/57 104/240/57
f 86/239/57 103/238/57 84/241/57
f 95/226/58 105/242/58 96/227/58
f 105/242/58 95/226/58 71/200/58
f 71/200/58 95/226/58 69/198/58
f 69/198/58 95/226/58 89/243/58
f 69/198/58 89/243/58 88/244/58
f 106/66/59 107/63/59 108/245/59
f 67/246/60 109/247/60 65/248/60
f 109/247/60 67/246/60 110/249/60
f 111/250/60 110/249/60 67/246/60
f 110/249/60 111/250/60 112/251/60
f 78/252/61 113/253/61 76/254/61
f 113/253/61 78/252/61 114/255/61
f 114/255/61 78/252/61 87/256/61
f 115/257/62 111/258/62 116/259/62
f 111/258/62 115/257/62 112/260/62
f 96/261/63 117/262/63 94/263/63
f 117/262/63 96/261/63 105/264/63
f 81/208/64 83/210/64 100/265/64
f 94/225/65 118/266/65 92/223/65
f 118/266/65 94/225/65 108/267/65
f 108/267/65 94/225/65 106/268/65
f 106/268/65 94/225/65 117/269/65
f 108/267/66 104/270/66 118/266/66
f 104/270/66 108/267/66 107/271/66
f 104/270/66 107/271/66 103/272/66
f 97/273/67 119/274/67 99/275/67
f 68/197/68 64/193/68 85/276/68
f 110/277/69 120/278/69 109/279/69
f 120/278/69 110/277/69 121/280/69
f 113/281/70 97/273/70 98/282/70
f 97/273/70 113/281/70 119/274/70
f 119/274/70 113/281/70 114/283/70
f 80/284/71 63/285/71 79/286/71
f 63/285/71 80/284/71 61/287/71
f 61/287/71 80/284/71 122/288/71
f 102/289/72 116/290/72 101/291/72
f 73/292/72 116/290/72 102/289/72
f 75/293/72 116/290/72 73/292/72
f 90/294/72 116/290/72 75/293/72
f 116/290/72 90/294/72 115/295/72
f 62/296/73 120/297/73 121/298/73
f 120/297/73 62/296/73 122/299/73
f 122/299/73 62/296/73 61/300/73
