# Blender v2.92.0 OBJ File: 'OGConvert.blend'
# www.blender.org
o snow_tile_riverStraight
v -4.000000 -0.000000 4.000000
v 4.000000 0.000000 -4.000000
v 4.000000 -0.000000 4.000000
v -4.000000 0.000000 -4.000000
v 4.000000 0.800000 4.000000
v 4.000000 0.800000 -4.000000
v -4.000000 0.800000 -4.000000
v -4.000000 0.800000 4.000000
v -3.000000 1.600000 -4.000000
v -2.000000 1.600000 4.000000
v -2.000000 1.600000 -4.000000
v -3.000000 1.600000 4.000000
v 3.000000 1.600000 4.000000
v 2.000000 0.800000 4.000000
v 3.000000 0.800000 4.000000
v 2.000000 1.200000 4.000000
v 2.000000 1.600000 4.000000
v -2.000000 0.800000 4.000000
v -3.000000 0.800000 4.000000
v -2.000000 1.200000 4.000000
v 2.000000 1.600000 -4.000000
v 3.000000 1.600000 -4.000000
v -2.000000 0.800000 -4.000000
v -3.000000 0.800000 -4.000000
v -2.000000 1.200000 -4.000000
v 2.000000 0.800000 -4.000000
v 3.000000 0.800000 -4.000000
v 2.000000 1.200000 -4.000000
v 4.000000 1.600000 4.000000
v 4.000000 1.600000 -4.000000
v -4.000000 1.600000 -4.000000
v -4.000000 1.600000 4.000000
vt 0.002629 0.497371
vt 0.497371 0.002629
vt 0.497371 0.497371
vt 0.002629 0.002629
vt 0.933676 0.497371
vt 0.884202 0.002629
vt 0.933676 0.002629
vt 0.884202 0.497371
vt 0.230521 0.997371
vt 0.181047 0.502629
vt 0.230521 0.502629
vt 0.181047 0.997371
vt 0.817101 0.002629
vt 0.755258 0.497371
vt 0.755258 0.002629
vt 0.817101 0.497371
vt 0.394718 0.564472
vt 0.345244 0.626315
vt 0.345244 0.564472
vt 0.369981 0.626315
vt 0.394718 0.626315
vt 0.454708 0.502629
vt 0.454708 0.935528
vt 0.454708 0.873686
vt 0.459967 0.502629
vt 0.459967 0.502629
vt 0.459967 0.502629
vt 0.235779 0.997371
vt 0.285253 0.502629
vt 0.285253 0.997371
vt 0.235779 0.502629
vt 0.454708 0.626315
vt 0.459967 0.507887
vt 0.459967 0.507887
vt 0.459967 0.507887
vt 0.369981 0.873686
vt 0.345244 0.935528
vt 0.345244 0.873686
vt 0.394718 0.935528
vt 0.394718 0.873686
vt 0.126315 0.502629
vt 0.064472 0.997371
vt 0.064472 0.502629
vt 0.126315 0.997371
vt 0.449450 0.564472
vt 0.399976 0.626315
vt 0.399976 0.564472
vt 0.424713 0.626315
vt 0.449450 0.626315
vt 0.467376 0.935528
vt 0.467376 0.502629
vt 0.467376 0.564472
vt 0.459967 0.513145
vt 0.459967 0.513145
vt 0.459967 0.513145
vt 0.290511 0.997371
vt 0.339986 0.502629
vt 0.339986 0.997371
vt 0.290512 0.502629
vt 0.467376 0.811843
vt 0.459967 0.518403
vt 0.459967 0.518403
vt 0.459967 0.518403
vt 0.424713 0.873686
vt 0.399976 0.935528
vt 0.399976 0.873686
vt 0.449450 0.935528
vt 0.449450 0.873686
vt 0.527366 0.997371
vt 0.502629 0.502629
vt 0.527366 0.502629
vt 0.502629 0.997371
vt 0.497371 0.997371
vt 0.472634 0.502629
vt 0.497371 0.502629
vt 0.472634 0.997371
vt 0.983150 0.497371
vt 0.983150 0.002629
vt 0.131573 0.502629
vt 0.131573 0.997371
vt 0.002629 0.997371
vt 0.002629 0.502629
vt 0.394718 0.502629
vt 0.345244 0.502629
vt 0.449450 0.502629
vt 0.399976 0.502629
vt 0.878944 0.002629
vt 0.878944 0.497371
vt 0.399976 0.997371
vt 0.449450 0.997371
vt 0.345244 0.997371
vt 0.394718 0.997371
vt 0.750000 0.002629
vt 0.502629 0.497371
vt 0.502629 0.002629
vt 0.750000 0.497371
vn 0.0000 -1.0000 -0.0000
vn 1.0000 0.0000 0.0000
vn -1.0000 0.0000 0.0000
vn 0.0000 1.0000 0.0000
vn 0.0000 0.0000 1.0000
vn 0.0000 0.0000 -1.0000
s 1
f 1/1/1 2/2/1 3/3/1
f 2/2/1 1/1/1 4/4/1
f 5/5/2 2/6/2 6/7/2
f 2/6/2 5/5/2 3/8/2
f 1/9/3 7/10/3 4/11/3
f 7/10/3 1/9/3 8/12/3
f 9/13/4 10/14/4 11/15/4
f 10/14/4 9/13/4 12/16/4
f 13/17/5 14/18/5 15/19/5
f 14/18/5 13/17/5 16/20/5
f 16/20/5 13/17/5 17/21/5
f 8/22/5 15/23/5 14/24/5
f 8/25/5 5/26/5 15/27/5
f 1/28/5 5/29/5 8/30/5
f 5/29/5 1/28/5 3/31/5
f 8/22/5 14/24/5 18/32/5
f 8/33/5 18/34/5 19/35/5
f 20/36/5 19/37/5 18/38/5
f 19/37/5 20/36/5 12/39/5
f 12/39/5 20/36/5 10/40/5
f 21/41/4 13/42/4 22/43/4
f 13/42/4 21/41/4 17/44/4
f 9/45/6 23/46/5 24/47/5
f 23/46/5 9/45/6 25/48/6
f 25/48/6 9/45/6 11/49/6
f 6/50/6 24/51/5 23/52/5
f 6/53/6 7/54/6 24/55/5
f 2/56/6 7/57/6 6/58/6
f 7/57/6 2/56/6 4/59/6
f 6/50/6 23/52/5 26/60/6
f 6/61/6 26/62/6 27/63/5
f 28/64/6 27/65/5 26/66/6
f 27/65/5 28/64/6 22/67/6
f 22/67/6 28/64/6 21/68/6
f 10/69/2 25/70/2 11/71/2
f 25/70/2 10/69/2 20/72/2
f 16/73/3 21/74/3 28/75/3
f 21/74/3 16/73/3 17/76/3
f 29/77/2 6/7/2 30/78/2
f 6/7/2 29/77/2 5/5/2
f 8/12/3 31/79/3 7/10/3
f 31/79/3 8/12/3 32/80/3
f 22/43/4 29/81/4 30/82/4
f 29/81/4 22/43/4 13/42/4
f 29/83/5 15/19/5 5/84/5
f 15/19/5 29/83/5 13/17/5
f 31/85/6 24/47/5 7/86/6
f 24/47/5 31/85/6 9/45/6
f 31/87/4 12/16/4 9/13/4
f 12/16/4 31/87/4 32/88/4
f 22/67/6 6/89/6 27/65/5
f 6/89/6 22/67/6 30/90/6
f 12/39/5 8/91/5 19/37/5
f 8/91/5 12/39/5 32/92/5
f 25/93/4 16/94/4 28/95/4
f 16/94/4 25/93/4 20/96/4
f 25/48/6 26/66/6 23/46/5
f 26/66/6 25/48/6 28/64/6
f 16/20/5 18/38/5 14/18/5
f 18/38/5 16/20/5 20/36/5
