# Blender v2.92.0 OBJ File: 'kenney_OGConvert.blend'
# www.blender.org
o snow_tile_endRound
v -0.500000 -0.000000 0.500000
v 0.500000 0.000000 -0.500000
v 0.500000 -0.000000 0.500000
v -0.500000 0.000000 -0.500000
v 0.500000 0.100000 0.500000
v 0.500000 0.100000 -0.500000
v -0.500000 0.100000 0.500000
v -0.500000 0.100000 -0.500000
v 0.500000 0.200000 0.500000
v 0.500000 0.200000 -0.500000
v -0.500000 0.200000 -0.500000
v -0.500000 0.200000 0.500000
v 0.275000 0.150000 0.500000
v 0.275000 0.200000 0.500000
v -0.275000 0.150000 0.500000
v 0.181250 0.150000 0.500000
v -0.181250 0.150000 0.500000
v -0.275000 0.200000 0.500000
v 0.265630 0.200000 -0.071175
v 0.238157 0.200000 -0.137500
v 0.194454 0.200000 -0.194454
v 0.137500 0.200000 -0.238157
v 0.071175 0.200000 -0.265630
v 0.275000 0.200000 -0.000000
v -0.000000 0.200000 -0.275000
v -0.071175 0.200000 -0.265630
v -0.137500 0.200000 -0.238157
v -0.194454 0.200000 -0.194454
v -0.238157 0.200000 -0.137500
v -0.265630 0.200000 -0.071175
v -0.275000 0.200000 0.000000
v 0.194454 0.150000 -0.194454
v 0.175074 0.150000 -0.046911
v 0.181250 0.150000 -0.000000
v 0.137500 0.150000 -0.238157
v 0.156967 0.150000 -0.090625
v 0.128163 0.150000 -0.128163
v 0.071175 0.150000 -0.265630
v 0.090625 0.150000 -0.156967
v 0.046911 0.150000 -0.175074
v -0.000000 0.150000 -0.275000
v -0.000000 0.150000 -0.181250
v -0.046911 0.150000 -0.175074
v -0.071175 0.150000 -0.265630
v -0.090625 0.150000 -0.156967
v -0.137500 0.150000 -0.238157
v -0.128163 0.150000 -0.128163
v -0.156967 0.150000 -0.090625
v -0.194454 0.150000 -0.194454
v -0.175074 0.150000 -0.046911
v -0.181250 0.150000 0.000000
v -0.238157 0.150000 -0.137500
v -0.265630 0.150000 -0.071175
v -0.275000 0.150000 0.000000
v 0.275000 0.150000 -0.000000
v 0.265630 0.150000 -0.071175
v 0.238157 0.150000 -0.137500
vt 0.002115 0.497885
vt 0.497885 0.002115
vt 0.497885 0.497885
vt 0.002115 0.002115
vt 0.828596 0.303921
vt 0.779019 0.002115
vt 0.828596 0.002115
vt 0.779019 0.303921
vt 0.779019 0.697241
vt 0.828596 0.697241
vt 0.704653 0.865011
vt 0.655076 0.390567
vt 0.704653 0.390567
vt 0.655076 0.865011
vt 0.551692 0.390567
vt 0.502115 0.886337
vt 0.502115 0.390567
vt 0.551692 0.886337
vt 0.878173 0.303921
vt 0.878173 0.002115
vt 0.601269 0.390567
vt 0.601269 0.886337
vt 0.605499 0.390567
vt 0.605499 0.865011
vt 0.853384 0.392418
vt 0.878173 0.392418
vt 0.853384 0.608744
vt 0.878172 0.697241
vt 0.737902 0.620992
vt 0.737902 0.620992
vt 0.737902 0.620992
vt 0.737902 0.390567
vt 0.737902 0.616762
vt 0.737902 0.437045
vt 0.878173 0.608744
vt 0.002115 0.502115
vt 0.118309 0.714713
vt 0.002115 0.997885
vt 0.131929 0.681832
vt 0.153595 0.653595
vt 0.181832 0.631929
vt 0.214713 0.618309
vt 0.497885 0.502115
vt 0.113663 0.750000
vt 0.113663 0.997885
vt 0.250000 0.613663
vt 0.285287 0.618309
vt 0.318168 0.631929
vt 0.346405 0.653595
vt 0.368071 0.681832
vt 0.381691 0.714713
vt 0.386337 0.750000
vt 0.497885 0.997885
vt 0.386337 0.997885
vt 0.542047 0.042047
vt 0.551655 0.115195
vt 0.548593 0.138452
vt 0.570283 0.020381
vt 0.560632 0.093523
vt 0.574912 0.074912
vt 0.603165 0.006761
vt 0.593523 0.060632
vt 0.615195 0.051655
vt 0.638452 0.002115
vt 0.638452 0.048593
vt 0.661709 0.051655
vt 0.673738 0.006761
vt 0.683381 0.060632
vt 0.706620 0.020381
vt 0.701991 0.074912
vt 0.716271 0.093523
vt 0.734856 0.042047
vt 0.725248 0.115195
vt 0.728310 0.138452
vt 0.728310 0.386337
vt 0.774788 0.386337
vt 0.756523 0.070283
vt 0.770143 0.103165
vt 0.774788 0.138452
vt 0.502115 0.138452
vt 0.548593 0.386337
vt 0.502115 0.386337
vt 0.506761 0.103165
vt 0.520381 0.070283
vt 0.733672 0.545912
vt 0.708883 0.510795
vt 0.733672 0.510795
vt 0.708883 0.545912
vt 0.733672 0.783134
vt 0.708883 0.783134
vt 0.853384 0.457841
vt 0.878173 0.457841
vt 0.853384 0.432675
vt 0.878173 0.432675
vt 0.853384 0.401852
vt 0.878173 0.401852
vt 0.853384 0.367474
vt 0.878173 0.367474
vt 0.878173 0.331883
vt 0.853384 0.331883
vt 0.878173 0.297504
vt 0.853384 0.297504
vt 0.878173 0.266682
vt 0.853384 0.266682
vt 0.878173 0.241515
vt 0.853384 0.241515
vt 0.708883 0.413141
vt 0.733672 0.390567
vt 0.733672 0.413141
vt 0.708883 0.390567
vt 0.708883 0.442068
vt 0.733672 0.442068
vt 0.733672 0.475376
vt 0.708883 0.475376
vn -0.0000 -1.0000 -0.0000
vn 1.0000 0.0000 -0.0000
vn 0.0000 -0.0000 1.0000
vn -1.0000 0.0000 0.0000
vn -0.0000 0.0000 -1.0000
vn 0.0000 -0.9138 0.4061
vn 0.0000 -0.4903 0.8716
vn 0.0000 1.0000 0.0000
vn -0.9914 -0.0000 0.1305
vn -0.9659 -0.0000 0.2588
vn 0.9914 0.0000 0.1305
vn 0.9659 0.0000 0.2588
vn 0.8660 0.0000 0.5000
vn 0.7071 0.0000 0.7071
vn 0.5000 0.0000 0.8660
vn 0.2588 0.0000 0.9659
vn -0.2588 0.0000 0.9659
vn -0.5000 0.0000 0.8660
vn -0.7071 0.0000 0.7071
vn -0.8660 0.0000 0.5000
s 1
f 1/1/1 2/2/1 3/3/1
f 2/2/1 1/1/1 4/4/1
f 5/5/2 2/6/2 6/7/2
f 2/6/2 5/5/2 3/8/2
f 5/5/3 1/9/3 3/8/3
f 1/9/3 5/5/3 7/10/3
f 1/11/4 8/12/4 4/13/4
f 8/12/4 1/11/4 7/14/4
f 8/15/5 2/16/5 4/17/5
f 2/16/5 8/15/5 6/18/5
f 9/19/2 6/7/2 10/20/2
f 6/7/2 9/19/2 5/5/2
f 11/21/5 6/18/5 8/15/5
f 6/18/5 11/21/5 10/22/5
f 7/14/4 11/23/4 8/12/4
f 11/23/4 7/14/4 12/24/4
f 5/5/3 13/25/3 7/10/3
f 13/25/3 5/5/3 9/19/3
f 13/25/3 9/19/3 14/26/3
f 15/27/3 7/10/3 13/25/3
f 7/10/3 15/27/3 12/28/3
f 15/29/3 13/30/3 16/31/6
f 15/32/3 16/33/6 17/34/7
f 12/28/3 15/27/3 18/35/3
f 10/36/8 19/37/8 9/38/8
f 19/37/8 10/36/8 20/39/8
f 20/39/8 10/36/8 21/40/8
f 21/40/8 10/36/8 22/41/8
f 22/41/8 10/36/8 23/42/8
f 23/42/8 10/36/8 11/43/8
f 9/38/8 19/37/8 24/44/8
f 9/38/8 24/44/8 14/45/8
f 23/42/8 11/43/8 25/46/8
f 25/46/8 11/43/8 26/47/8
f 26/47/8 11/43/8 27/48/8
f 27/48/8 11/43/8 28/49/8
f 28/49/8 11/43/8 29/50/8
f 29/50/8 11/43/8 30/51/8
f 30/51/8 11/43/8 31/52/8
f 12/53/8 31/52/8 11/43/8
f 31/52/8 12/53/8 18/54/8
f 32/55/8 33/56/8 34/57/8
f 33/56/8 32/55/8 35/58/8
f 33/56/8 35/58/8 36/59/8
f 36/59/8 35/58/8 37/60/8
f 37/60/8 35/58/8 38/61/8
f 37/60/8 38/61/8 39/62/8
f 39/62/8 38/61/8 40/63/8
f 40/63/8 38/61/8 41/64/8
f 40/63/8 41/64/8 42/65/8
f 42/65/8 41/64/8 43/66/8
f 43/66/8 41/64/8 44/67/8
f 43/66/8 44/67/8 45/68/8
f 45/68/8 44/67/8 46/69/8
f 45/68/8 46/69/8 47/70/8
f 47/70/8 46/69/8 48/71/8
f 48/71/8 46/69/8 49/72/8
f 48/71/8 49/72/8 50/73/8
f 50/73/8 49/72/8 51/74/8
f 51/74/8 49/72/8 17/75/8
f 17/75/8 49/72/8 15/76/8
f 15/76/8 49/72/8 52/77/8
f 15/76/8 52/77/8 53/78/8
f 15/76/8 53/78/8 54/79/8
f 55/80/8 16/81/8 13/82/8
f 16/81/8 55/80/8 56/83/8
f 16/81/8 56/83/8 57/84/8
f 16/81/8 57/84/8 32/55/8
f 16/81/8 32/55/8 34/57/8
f 55/85/9 19/86/10 56/87/10
f 19/86/10 55/85/9 24/88/9
f 13/89/4 24/88/4 55/85/4
f 24/88/4 13/89/4 14/90/4
f 18/35/2 54/91/2 31/92/2
f 54/91/2 18/35/2 15/27/2
f 31/92/11 53/93/12 30/94/12
f 53/93/12 31/92/11 54/91/11
f 30/94/12 52/95/13 29/96/13
f 52/95/13 30/94/12 53/93/12
f 29/96/13 49/97/14 28/98/14
f 49/97/14 29/96/13 52/95/13
f 27/99/15 49/97/14 46/100/15
f 49/97/14 27/99/15 28/98/14
f 26/101/16 46/100/15 44/102/16
f 46/100/15 26/101/16 27/99/15
f 25/103/3 44/102/16 41/104/3
f 44/102/16 25/103/3 26/101/16
f 23/105/17 41/104/3 38/106/17
f 41/104/3 23/105/17 25/103/3
f 22/107/18 38/108/17 35/109/18
f 38/108/17 22/107/18 23/110/17
f 21/111/19 35/109/18 32/112/19
f 35/109/18 21/111/19 22/107/18
f 57/113/20 21/111/19 32/112/19
f 21/111/19 57/113/20 20/114/20
f 56/87/10 20/114/20 57/113/20
f 20/114/20 56/87/10 19/86/10
f 33/56/8 16/81/8 34/57/8
f 16/81/8 33/56/8 17/75/8
f 17/75/8 33/56/8 36/59/8
f 17/75/8 36/59/8 37/60/8
f 17/75/8 37/60/8 39/62/8
f 17/75/8 39/62/8 40/63/8
f 17/75/8 40/63/8 42/65/8
f 17/75/8 42/65/8 43/66/8
f 17/75/8 43/66/8 45/68/8
f 17/75/8 45/68/8 47/70/8
f 17/75/8 47/70/8 48/71/8
f 17/75/8 48/71/8 50/73/8
f 17/75/8 50/73/8 51/74/8
