# Blender v2.92.0 OBJ File: 'OGConvert.blend'
# www.blender.org
o towerRound_bottomA
v 1.740000 2.560000 -3.013769
v 2.828427 1.600000 -2.828427
v 2.000000 1.600000 -3.464102
v 2.460731 2.560000 -2.460731
v -1.035276 1.600000 -3.863703
v 0.000000 0.000000 -4.000000
v -1.035276 0.000000 -3.863703
v -0.000000 1.600000 -4.000000
v -3.464102 -0.000000 2.000000
v -3.863703 1.600000 1.035276
v -3.863703 -0.000000 1.035276
v -3.464102 1.600000 2.000000
v -0.900690 2.560000 -3.361422
v -0.000000 2.560000 -3.480000
v -4.000000 1.600000 0.000000
v -4.000000 0.000000 0.000000
v -0.000000 1.600000 4.000000
v -0.900690 2.560000 3.361422
v -1.035276 1.600000 3.863703
v -0.000000 2.560000 3.480000
v 2.828427 -0.000000 2.828427
v 2.000000 1.600000 3.464102
v 2.000000 -0.000000 3.464102
v 2.828427 1.600000 2.828427
v 1.035276 0.000000 -3.863703
v 1.035276 1.600000 -3.863703
v 4.000000 1.600000 0.000000
v 3.863703 0.000000 -1.035276
v 3.863703 1.600000 -1.035276
v 4.000000 0.000000 0.000000
v 3.863703 -0.000000 1.035276
v 3.464102 -0.000000 2.000000
v 3.464102 0.000000 -2.000000
v 2.828427 0.000000 -2.828427
v 2.000000 0.000000 -3.464102
v 1.035276 -0.000000 3.863703
v 0.000000 -0.000000 4.000000
v -1.035276 -0.000000 3.863703
v -2.000000 -0.000000 3.464102
v -2.000000 0.000000 -3.464102
v -2.828427 -0.000000 2.828427
v -2.828427 0.000000 -2.828427
v -3.464102 0.000000 -2.000000
v -3.863703 0.000000 -1.035276
v 3.361422 2.560000 0.900690
v 3.480000 2.560000 0.000000
v 3.863703 1.600000 1.035276
v -2.828427 1.600000 -2.828427
v -3.464102 1.600000 -2.000000
v 3.464102 1.600000 -2.000000
v 0.900690 2.560000 3.361422
v 1.035276 1.600000 3.863703
v 1.740000 2.560000 3.013769
v -1.740000 2.560000 3.013769
v -2.000000 1.600000 3.464102
v 0.900690 2.560000 -3.361422
v -3.863703 1.600000 -1.035276
v 3.464102 1.600000 2.000000
v -3.361422 2.560000 -0.900690
v -3.480000 2.560000 0.000000
v 3.013769 2.560000 1.740000
v -1.740000 2.560000 -3.013769
v -2.000000 1.600000 -3.464102
v -3.361422 2.560000 0.900690
v -2.828427 1.600000 2.828427
v -2.460731 2.560000 -2.460731
v -2.460731 2.560000 2.460731
v 3.013769 2.560000 -1.740000
v -3.013769 2.560000 -1.740000
v 2.460731 2.560000 2.460731
v 3.361422 2.560000 -0.900690
v -3.013769 2.560000 1.740000
v -3.361422 4.000000 -0.900690
v -3.480000 4.000000 0.000000
v 0.900690 4.000000 -3.361421
v 1.740000 4.000000 -3.013769
v 3.361422 4.000000 -0.900690
v 3.013769 4.000000 -1.740000
v -0.900690 4.000000 3.361422
v -0.000000 4.000000 3.480000
v -2.460731 4.000000 2.460732
v -1.740000 4.000000 3.013769
v -1.740000 4.000000 -3.013769
v -0.900690 4.000000 -3.361421
v -3.361422 4.000000 0.900691
v -3.013769 4.000000 1.740000
v 3.361422 4.000000 0.900691
v 3.480000 4.000000 0.000000
v 3.013769 4.000000 1.740000
v 2.460731 4.000000 -2.460731
v 2.460731 4.000000 2.460732
v 1.740000 4.000000 3.013769
v 0.900690 4.000000 3.361422
v -0.000000 4.000000 -3.480000
v -2.460731 4.000000 -2.460731
v -3.013769 4.000000 -1.740000
vt 0.647662 0.221830
vt 0.588965 0.288206
vt 0.586065 0.226917
vt 0.650185 0.275151
vt 0.588965 0.047050
vt 0.489478 0.103590
vt 0.492377 0.048555
vt 0.586065 0.102086
vt 0.496989 0.350291
vt 0.588965 0.393757
vt 0.492377 0.395262
vt 0.593577 0.348786
vt 0.650185 0.065346
vt 0.647662 0.113227
vt 0.586065 0.448793
vt 0.489478 0.450298
vt 0.842860 0.102086
vt 0.903597 0.166601
vt 0.841871 0.163435
vt 0.904457 0.113227
vt 0.749172 0.636418
vt 0.850372 0.689832
vt 0.753784 0.691336
vt 0.845760 0.634913
vt 0.488489 0.164940
vt 0.585076 0.163435
vt 0.842860 0.448793
vt 0.749172 0.395262
vt 0.845760 0.393757
vt 0.746273 0.450298
vt 0.336276 0.018511
vt 0.211460 0.002079
vt 0.274950 0.002079
vt 0.391260 0.050256
vt 0.150134 0.018511
vt 0.436154 0.095150
vt 0.095150 0.050256
vt 0.467899 0.150134
vt 0.050256 0.095150
vt 0.484332 0.211460
vt 0.018511 0.150134
vt 0.002079 0.211460
vt 0.484332 0.274950
vt 0.467899 0.336276
vt 0.002079 0.274950
vt 0.436154 0.391260
vt 0.018511 0.336276
vt 0.391260 0.436154
vt 0.050256 0.391260
vt 0.336276 0.467899
vt 0.095150 0.436154
vt 0.274950 0.484332
vt 0.150134 0.467899
vt 0.211460 0.484332
vt 0.903597 0.513308
vt 0.904457 0.459934
vt 0.841871 0.510142
vt 0.489478 0.575129
vt 0.588965 0.634913
vt 0.492377 0.636418
vt 0.586065 0.573624
vt 0.753784 0.350291
vt 0.850372 0.348786
vt 0.850372 0.002079
vt 0.906980 0.065346
vt 0.845760 0.047050
vt 0.910993 0.026221
vt 0.904457 0.221830
vt 0.842860 0.226917
vt 0.749172 0.048555
vt 0.746273 0.103590
vt 0.646802 0.166601
vt 0.488489 0.511647
vt 0.585076 0.510142
vt 0.489478 0.228422
vt 0.745284 0.511647
vt 0.842860 0.573624
vt 0.746273 0.575129
vt 0.646802 0.513308
vt 0.647662 0.459934
vt 0.904457 0.568537
vt 0.654198 0.026221
vt 0.593577 0.002079
vt 0.496989 0.691336
vt 0.593577 0.689832
vt 0.496989 0.003583
vt 0.650185 0.412053
vt 0.753784 0.003583
vt 0.749172 0.289710
vt 0.850372 0.343124
vt 0.753784 0.344629
vt 0.845760 0.288206
vt 0.745284 0.164939
vt 0.650185 0.621859
vt 0.654198 0.669638
vt 0.906980 0.275151
vt 0.593577 0.343124
vt 0.492377 0.289710
vt 0.496989 0.344629
vt 0.654198 0.322930
vt 0.647662 0.568537
vt 0.906980 0.621859
vt 0.746273 0.228422
vt 0.910993 0.372928
vt 0.906980 0.412053
vt 0.654198 0.372928
vt 0.910993 0.669638
vt 0.910993 0.322930
vt 0.733731 0.511954
vt 0.734591 0.458580
vt 0.733731 0.165246
vt 0.734591 0.220476
vt 0.993909 0.410699
vt 0.997922 0.371574
vt 0.990526 0.165246
vt 0.991386 0.111872
vt 0.993909 0.273797
vt 0.991386 0.220476
vt 0.741127 0.024866
vt 0.737114 0.063992
vt 0.737114 0.410699
vt 0.741127 0.371574
vt 0.997922 0.321576
vt 0.130886 0.893752
vt 0.239477 0.908049
vt 0.184240 0.908049
vt 0.083051 0.866134
vt 0.292831 0.893753
vt 0.043993 0.827077
vt 0.340667 0.866134
vt 0.016375 0.779241
vt 0.379724 0.827077
vt 0.002079 0.725887
vt 0.407342 0.779241
vt 0.002079 0.670650
vt 0.421639 0.725887
vt 0.016375 0.617296
vt 0.421639 0.670651
vt 0.043993 0.569461
vt 0.407343 0.617297
vt 0.083051 0.530403
vt 0.379724 0.569461
vt 0.130887 0.502785
vt 0.340667 0.530403
vt 0.184241 0.488489
vt 0.292831 0.502785
vt 0.239477 0.488489
vt 0.741127 0.321576
vt 0.737114 0.273797
vt 0.737114 0.620504
vt 0.741127 0.668284
vt 0.993909 0.620504
vt 0.991386 0.567183
vt 0.734591 0.111872
vt 0.734591 0.567183
vt 0.990526 0.511954
vt 0.991386 0.458580
vt 0.997921 0.668284
vt 0.993909 0.063991
vt 0.997922 0.024866
vn 0.4396 0.4763 -0.7615
vn 0.6218 0.4763 -0.6218
vn -0.2588 0.0000 -0.9659
vn 0.0000 0.0000 -1.0000
vn -0.8660 0.0000 0.5000
vn -0.9659 -0.0000 0.2588
vn -0.2276 0.4763 -0.8493
vn -0.0000 0.4763 -0.8793
vn -1.0000 -0.0000 -0.0000
vn 0.0000 0.4763 0.8793
vn -0.2276 0.4763 0.8493
vn 0.7071 0.0000 0.7071
vn 0.5000 0.0000 0.8660
vn 0.2588 0.0000 -0.9659
vn 1.0000 0.0000 -0.0000
vn 0.9659 0.0000 -0.2588
vn 0.0000 -1.0000 -0.0000
vn 0.8493 0.4763 0.2276
vn 0.8793 0.4763 -0.0000
vn -0.8660 0.0000 -0.5000
vn -0.7071 -0.0000 -0.7071
vn 0.8660 0.0000 -0.5000
vn 0.4396 0.4763 0.7615
vn 0.2276 0.4763 0.8493
vn -0.4396 0.4763 0.7615
vn 0.2588 0.0000 0.9659
vn 0.0000 0.0000 1.0000
vn 0.2276 0.4763 -0.8493
vn -0.9659 0.0000 -0.2588
vn 0.5000 0.0000 -0.8660
vn 0.9659 0.0000 0.2588
vn 0.8660 0.0000 0.5000
vn -0.8793 0.4763 0.0000
vn -0.8493 0.4763 -0.2276
vn 0.7615 0.4763 0.4396
vn -0.4396 0.4763 -0.7615
vn -0.5000 0.0000 -0.8660
vn -0.8493 0.4763 0.2276
vn -0.7071 0.0000 0.7071
vn -0.2588 0.0000 0.9659
vn -0.6218 0.4763 -0.6218
vn -0.6218 0.4763 0.6218
vn 0.7071 -0.0000 -0.7071
vn 0.7615 0.4763 -0.4396
vn -0.7615 0.4763 -0.4396
vn 0.6218 0.4763 0.6218
vn -0.5000 0.0000 0.8660
vn 0.8493 0.4763 -0.2276
vn -0.7615 0.4763 0.4396
vn 0.0000 1.0000 0.0000
s 1
f 1/1/1 2/2/2 3/3/1
f 2/2/2 1/1/1 4/4/2
f 5/5/3 6/6/4 7/7/3
f 6/6/4 5/5/3 8/8/4
f 9/9/5 10/10/6 11/11/6
f 10/10/6 9/9/5 12/12/5
f 13/13/7 8/8/8 5/5/7
f 8/8/8 13/13/7 14/14/8
f 11/11/6 15/15/9 16/16/9
f 15/15/9 11/11/6 10/10/6
f 17/17/10 18/18/11 19/19/11
f 18/18/11 17/17/10 20/20/10
f 21/21/12 22/22/13 23/23/13
f 22/22/13 21/21/12 24/24/12
f 8/8/4 25/25/14 6/6/4
f 25/25/14 8/8/4 26/26/14
f 27/27/15 28/28/16 29/29/16
f 28/28/16 27/27/15 30/30/15
f 31/31/17 28/32/17 30/33/17
f 28/32/17 31/31/17 32/34/17
f 28/32/17 32/34/17 33/35/17
f 33/35/17 32/34/17 21/36/17
f 33/35/17 21/36/17 34/37/17
f 34/37/17 21/36/17 23/38/17
f 34/37/17 23/38/17 35/39/17
f 35/39/17 23/38/17 36/40/17
f 35/39/17 36/40/17 25/41/17
f 25/41/17 36/40/17 6/42/17
f 6/42/17 36/40/17 37/43/17
f 6/42/17 37/43/17 38/44/17
f 6/42/17 38/44/17 7/45/17
f 7/45/17 38/44/17 39/46/17
f 7/45/17 39/46/17 40/47/17
f 40/47/17 39/46/17 41/48/17
f 40/47/17 41/48/17 42/49/17
f 42/49/17 41/48/17 9/50/17
f 42/49/17 9/50/17 43/51/17
f 43/51/17 9/50/17 11/52/17
f 43/51/17 11/52/17 44/53/17
f 44/53/17 11/52/17 16/54/17
f 45/55/18 27/27/19 46/56/19
f 27/27/19 45/55/18 47/57/18
f 43/58/20 48/59/21 42/60/21
f 48/59/21 43/58/20 49/61/20
f 29/29/16 33/62/22 50/63/22
f 33/62/22 29/29/16 28/28/16
f 22/64/23 51/65/24 52/66/24
f 51/65/24 22/64/23 53/67/23
f 19/19/11 54/68/25 55/69/25
f 54/68/25 19/19/11 18/18/11
f 36/70/26 17/17/27 37/71/27
f 17/17/27 36/70/26 52/66/26
f 56/72/28 3/3/1 26/26/28
f 3/3/1 56/72/28 1/1/1
f 44/73/29 49/61/20 43/58/20
f 49/61/20 44/73/29 57/74/29
f 26/26/14 35/75/30 25/25/14
f 35/75/30 26/26/14 3/3/30
f 47/57/31 30/30/15 27/27/15
f 30/30/15 47/57/31 31/76/31
f 16/16/9 57/74/29 44/73/29
f 57/74/29 16/16/9 15/15/9
f 58/77/32 31/76/31 47/57/31
f 31/76/31 58/77/32 32/78/32
f 15/15/33 59/79/34 57/74/34
f 59/79/34 15/15/33 60/80/33
f 61/81/35 47/57/18 45/55/18
f 47/57/18 61/81/35 58/77/35
f 62/82/36 5/5/7 63/83/36
f 5/5/7 62/82/36 13/13/7
f 48/59/21 40/84/37 42/60/21
f 40/84/37 48/59/21 63/85/37
f 63/83/37 7/7/3 40/86/37
f 7/7/3 63/83/37 5/5/3
f 10/10/38 60/80/33 15/15/33
f 60/80/33 10/10/38 64/87/38
f 23/88/13 52/66/26 36/70/26
f 52/66/26 23/88/13 22/64/13
f 52/66/24 20/20/10 17/17/10
f 20/20/10 52/66/24 51/65/24
f 41/89/39 12/90/5 9/91/5
f 12/90/5 41/89/39 65/92/39
f 37/71/27 19/19/40 38/93/40
f 19/19/40 37/71/27 17/17/27
f 66/94/41 63/85/36 48/59/41
f 63/85/36 66/94/41 62/95/36
f 55/69/25 67/96/42 65/92/42
f 67/96/42 55/69/25 54/68/25
f 50/97/22 34/98/43 2/2/43
f 34/98/43 50/97/22 33/99/22
f 4/4/2 50/97/44 2/2/2
f 50/97/44 4/4/2 68/100/44
f 49/61/45 66/94/41 48/59/41
f 66/94/41 49/61/45 69/101/45
f 70/102/46 58/77/35 61/81/35
f 58/77/35 70/102/46 24/24/46
f 39/103/47 65/92/39 41/89/39
f 65/92/39 39/103/47 55/69/47
f 38/93/40 55/69/47 39/103/47
f 55/69/47 38/93/40 19/19/40
f 3/3/30 34/98/43 35/75/30
f 34/98/43 3/3/30 2/2/43
f 68/104/44 29/29/48 50/63/44
f 29/29/48 68/104/44 71/105/48
f 10/10/38 72/106/49 64/87/38
f 72/106/49 10/10/38 12/12/49
f 71/105/48 27/27/19 29/29/48
f 27/27/19 71/105/48 46/56/19
f 24/24/46 53/107/23 22/22/23
f 53/107/23 24/24/46 70/102/46
f 57/74/34 69/101/45 49/61/45
f 69/101/45 57/74/34 59/79/34
f 24/24/12 32/78/32 58/77/32
f 32/78/32 24/24/12 21/21/12
f 14/14/8 26/26/28 8/8/8
f 26/26/28 14/14/8 56/72/28
f 12/90/49 67/96/42 72/108/49
f 67/96/42 12/90/49 65/92/42
f 60/80/9 73/109/29 59/79/29
f 73/109/29 60/80/9 74/110/9
f 75/111/14 1/1/30 56/72/14
f 1/1/30 75/111/14 76/112/30
f 77/113/16 68/104/22 78/114/22
f 68/104/22 77/113/16 71/105/16
f 20/20/27 79/115/40 18/18/40
f 79/115/40 20/20/27 80/116/27
f 54/68/47 81/117/39 67/96/39
f 81/117/39 54/68/47 82/118/47
f 83/119/37 13/13/3 62/82/37
f 13/13/3 83/119/37 84/120/3
f 72/106/5 85/121/6 64/87/6
f 85/121/6 72/106/5 86/122/5
f 67/96/39 86/123/5 72/108/5
f 86/123/5 67/96/39 81/117/39
f 64/87/6 74/110/9 60/80/9
f 74/110/9 64/87/6 85/121/6
f 18/18/40 82/118/47 54/68/47
f 82/118/47 18/18/40 79/115/40
f 77/124/50 87/125/50 88/126/50
f 87/125/50 77/124/50 78/127/50
f 87/125/50 78/127/50 89/128/50
f 89/128/50 78/127/50 90/129/50
f 89/128/50 90/129/50 91/130/50
f 91/130/50 90/129/50 76/131/50
f 91/130/50 76/131/50 92/132/50
f 92/132/50 76/131/50 75/133/50
f 92/132/50 75/133/50 93/134/50
f 93/134/50 75/133/50 94/135/50
f 93/134/50 94/135/50 80/136/50
f 80/136/50 94/135/50 84/137/50
f 80/136/50 84/137/50 79/138/50
f 79/138/50 84/137/50 83/139/50
f 79/138/50 83/139/50 82/140/50
f 82/140/50 83/139/50 95/141/50
f 82/140/50 95/141/50 81/142/50
f 81/142/50 95/141/50 96/143/50
f 81/142/50 96/143/50 86/144/50
f 86/144/50 96/143/50 73/145/50
f 86/144/50 73/145/50 85/146/50
f 85/146/50 73/145/50 74/147/50
f 78/148/22 4/4/43 90/149/43
f 4/4/43 78/148/22 68/100/22
f 95/150/21 62/95/37 66/94/21
f 62/95/37 95/150/21 83/151/37
f 91/152/12 61/81/32 89/153/32
f 61/81/32 91/152/12 70/102/12
f 84/120/3 14/14/4 13/13/3
f 14/14/4 84/120/3 94/154/4
f 76/112/30 4/4/43 1/1/30
f 4/4/43 76/112/30 90/149/43
f 69/101/20 95/150/21 66/94/21
f 95/150/21 69/101/20 96/155/20
f 87/156/31 46/56/15 88/157/15
f 46/56/15 87/156/31 45/55/31
f 70/102/12 92/158/13 53/107/13
f 92/158/13 70/102/12 91/152/12
f 53/67/13 93/159/26 51/65/26
f 93/159/26 53/67/13 92/160/13
f 94/154/4 56/72/14 14/14/4
f 56/72/14 94/154/4 75/111/14
f 89/153/32 45/55/31 87/156/31
f 45/55/31 89/153/32 61/81/32
f 59/79/29 96/155/20 69/101/20
f 96/155/20 59/79/29 73/109/29
f 51/65/26 80/116/27 20/20/27
f 80/116/27 51/65/26 93/159/26
f 88/157/15 71/105/16 77/113/16
f 71/105/16 88/157/15 46/56/15
