# Blender v2.92.0 OBJ File: 'kenney_OGConvert.blend'
# www.blender.org
o towerSquare_sampleE
v 0.500000 1.000000 0.500000
v 0.250000 0.800000 0.500000
v 0.500000 0.800000 0.500000
v 0.250000 0.900000 0.500000
v 0.250000 1.000000 0.500000
v 0.500000 0.800000 -0.250000
v 0.435000 0.680000 -0.435000
v 0.500000 0.800000 -0.500000
v 0.435000 0.680000 0.435000
v 0.500000 0.800000 0.250000
v 0.500000 1.000000 -0.250000
v 0.500000 1.000000 -0.500000
v 0.500000 0.900000 -0.250000
v -0.435000 0.590000 0.435000
v -0.435000 0.680000 -0.435000
v -0.435000 0.590000 -0.435000
v -0.435000 0.680000 0.435000
v -0.500000 0.800000 -0.500000
v -0.250000 0.800000 -0.500000
v 0.250000 0.800000 -0.500000
v -0.500000 0.800000 0.500000
v -0.250000 0.800000 0.500000
v -0.500000 0.800000 -0.250000
v -0.500000 0.800000 0.250000
v -0.500000 1.000000 -0.500000
v -0.250000 0.900000 -0.500000
v -0.250000 1.000000 -0.500000
v 0.435000 0.590000 -0.435000
v 0.435000 0.590000 0.435000
v -0.500000 1.000000 0.250000
v -0.399556 1.000000 0.399556
v -0.399556 1.000000 0.250000
v -0.500000 1.000000 0.500000
v -0.250000 1.000000 0.500000
v -0.250000 1.000000 0.399556
v 0.399556 0.900000 -0.250000
v 0.399556 1.000000 -0.250000
v 0.399556 1.000000 -0.399556
v 0.250000 0.830000 -0.399556
v 0.399556 0.830000 -0.399556
v 0.250000 0.900000 -0.399556
v 0.250000 1.000000 -0.399556
v 0.250000 1.000000 -0.500000
v -0.250000 0.830000 0.399556
v -0.399556 0.830000 0.399556
v -0.250000 0.900000 0.399556
v -0.399556 1.000000 -0.250000
v -0.399556 0.830000 -0.399555
v -0.399556 1.000000 -0.399555
v -0.399556 0.830000 -0.250000
v -0.399556 0.900000 -0.250000
v 0.399556 1.000000 0.250000
v 0.500000 0.900000 0.250000
v 0.399556 0.900000 0.250000
v 0.500000 1.000000 0.250000
v -0.250000 0.900000 0.500000
v -0.500000 0.900000 -0.250000
v -0.500000 1.000000 -0.250000
v -0.250000 1.000000 -0.399556
v -0.250000 0.900000 -0.399556
v 0.250000 1.000000 0.399556
v 0.250000 0.900000 0.399556
v 0.250000 0.900000 -0.500000
v 0.399556 0.830000 0.399556
v 0.399556 0.830000 0.250000
v 0.399556 1.000000 0.399556
v -0.399556 0.900000 0.250000
v -0.500000 0.900000 0.250000
v -0.399556 0.830000 0.250000
v 0.399556 0.830000 -0.250000
v 0.250000 0.830000 0.399556
v -0.250000 0.830000 -0.399556
v -0.500000 -0.000000 0.500000
v -0.500000 0.200000 0.245000
v -0.500000 -0.000000 0.245000
v -0.500000 0.200000 0.500000
v -0.500000 0.000000 -0.190000
v -0.500000 0.200000 -0.500000
v -0.500000 0.000000 -0.500000
v -0.500000 0.200000 -0.190000
v 0.435000 0.320000 0.435000
v 0.217500 0.200000 0.500000
v 0.500000 0.200000 0.500000
v 0.217500 0.320000 0.435000
v 0.217500 -0.000000 0.500000
v 0.500000 -0.000000 0.500000
v -0.217500 0.000000 -0.500000
v -0.217500 0.200000 -0.500000
v -0.435000 0.320000 -0.190000
v -0.435000 0.500000 -0.435000
v -0.435000 0.320000 -0.435000
v -0.435000 0.500000 -0.190000
v 0.500000 0.200000 -0.190000
v 0.435000 0.000000 -0.190000
v 0.500000 0.000000 -0.190000
v 0.435000 0.160000 -0.190000
v 0.435000 0.320000 -0.190000
v -0.435000 0.160000 -0.190000
v -0.435000 0.000000 -0.190000
v -0.435000 0.320000 0.245000
v -0.435000 0.320000 0.435000
v 0.500000 0.000000 -0.500000
v 0.500000 0.200000 -0.500000
v -0.217500 -0.000000 0.500000
v -0.217500 0.200000 0.500000
v 0.435000 0.500000 0.435000
v 0.435000 0.320000 0.245000
v 0.435000 0.500000 0.245000
v 0.217500 0.000000 -0.500000
v 0.217500 0.200000 -0.500000
v 0.435000 0.320000 -0.435000
v -0.217500 0.320000 -0.435000
v -0.217500 0.000000 -0.435000
v -0.217500 0.160000 -0.435000
v 0.217500 0.160000 0.435000
v 0.217500 -0.000000 0.435000
v -0.217500 0.320000 0.435000
v -0.217500 0.500000 0.435000
v -0.435000 0.500000 0.435000
v 0.217500 0.500000 -0.435000
v 0.217500 0.320000 -0.435000
v 0.435000 0.500000 -0.435000
v 0.217500 0.000000 -0.435000
v 0.217500 0.160000 -0.435000
v 0.435000 0.160000 0.245000
v 0.500000 -0.000000 0.245000
v 0.435000 -0.000000 0.245000
v 0.500000 0.200000 0.245000
v -0.217500 0.160000 0.435000
v -0.217500 -0.000000 0.435000
v -0.435000 -0.000000 0.245000
v -0.435000 0.160000 0.245000
v 0.217500 0.500000 0.435000
v -0.435000 0.500000 0.245000
v 0.435000 0.500000 -0.190000
v -0.217500 0.500000 -0.435000
v -0.299212 0.830000 -0.299212
v 0.299212 0.830000 0.299212
v 0.299212 0.830000 -0.299212
v -0.299212 0.830000 0.299212
vt 0.975867 0.004327
vt 0.906283 0.091322
vt 0.906283 0.004327
vt 0.941075 0.091322
vt 0.975867 0.091322
vt 0.282712 0.091322
vt 0.240954 0.026945
vt 0.282712 0.004327
vt 0.240954 0.329690
vt 0.282712 0.265313
vt 0.282712 0.352309
vt 0.352309 0.091322
vt 0.352309 0.004327
vt 0.492575 0.813246
vt 0.492575 0.813246
vt 0.492575 0.813246
vt 0.146999 0.686325
vt 0.115681 0.383581
vt 0.146999 0.383581
vt 0.115681 0.686325
vt 0.360962 0.352309
vt 0.402292 0.026945
vt 0.402292 0.329690
vt 0.360962 0.004327
vt 0.501228 0.813246
vt 0.501228 0.813246
vt 0.501228 0.813246
vt 0.977401 0.908678
vt 0.977401 0.647691
vt 0.977401 0.821682
vt 0.639300 0.360962
vt 0.597969 0.686325
vt 0.597969 0.383581
vt 0.639300 0.708944
vt 0.509881 0.813246
vt 0.509881 0.813246
vt 0.509881 0.813246
vt 0.978288 0.360962
vt 0.978288 0.621948
vt 0.978288 0.447957
vt 0.073923 0.447957
vt 0.073923 0.360962
vt 0.073923 0.621948
vt 0.073923 0.708944
vt 0.754911 0.995673
vt 0.824495 0.908678
vt 0.824495 0.995673
vt 0.789703 0.908678
vt 0.754911 0.908678
vt 0.433605 0.026945
vt 0.433605 0.329690
vt 0.566656 0.686325
vt 0.566656 0.383581
vt 0.226942 0.717597
vt 0.191989 0.769640
vt 0.191989 0.717597
vt 0.226942 0.804592
vt 0.139947 0.804592
vt 0.139947 0.769640
vt 0.218345 0.924661
vt 0.183553 0.959614
vt 0.183553 0.924661
vt 0.218345 0.959614
vt 0.892295 0.647691
vt 0.833148 0.699734
vt 0.833148 0.647691
vt 0.857503 0.699734
vt 0.892295 0.699734
vt 0.235595 0.804592
vt 0.270548 0.769640
vt 0.322591 0.804592
vt 0.235595 0.717597
vt 0.270548 0.717597
vt 0.322591 0.769640
vt 0.900948 0.925768
vt 0.960095 0.873725
vt 0.960095 0.925768
vt 0.935740 0.873725
vt 0.900948 0.873725
vt 0.183553 0.872402
vt 0.235595 0.813246
vt 0.235595 0.872402
vt 0.183553 0.813246
vt 0.501228 0.821899
vt 0.501228 0.821899
vt 0.501228 0.821899
vt 0.244248 0.959614
vt 0.279040 0.924661
vt 0.279040 0.959614
vt 0.244248 0.924661
vt 0.218351 0.916008
vt 0.183553 0.881056
vt 0.218351 0.881056
vt 0.183553 0.916008
vt 0.433552 0.933234
vt 0.398760 0.968187
vt 0.398760 0.933234
vt 0.433552 0.968187
vt 0.600945 0.935194
vt 0.566147 0.900241
vt 0.600945 0.900241
vt 0.566147 0.935194
vt 0.941075 0.265313
vt 0.906283 0.352309
vt 0.906283 0.265313
vt 0.975867 0.352309
vt 0.975867 0.265313
vt 0.557339 0.935194
vt 0.522541 0.900241
vt 0.557339 0.900241
vt 0.522541 0.935194
vt 0.279046 0.916008
vt 0.244248 0.881056
vt 0.279046 0.881056
vt 0.244248 0.916008
vt 0.418239 0.804592
vt 0.383286 0.717597
vt 0.418239 0.717597
vt 0.383286 0.769640
vt 0.331244 0.769640
vt 0.331244 0.804592
vt 0.131294 0.943631
vt 0.106935 0.891588
vt 0.131294 0.891588
vt 0.072137 0.891588
vt 0.072137 0.943631
vt 0.442205 0.968187
vt 0.476997 0.933234
vt 0.476997 0.968187
vt 0.442205 0.933234
vt 0.513888 0.752550
vt 0.426892 0.717597
vt 0.513888 0.717597
vt 0.461845 0.752550
vt 0.426892 0.804592
vt 0.461845 0.804592
vt 0.209636 0.026945
vt 0.209636 0.329690
vt 0.039125 0.621948
vt 0.004326 0.621948
vt 0.004326 0.708944
vt 0.063483 0.943631
vt 0.028685 0.891588
vt 0.063484 0.891588
vt 0.004327 0.891588
vt 0.004327 0.943631
vt 0.244248 0.872403
vt 0.296291 0.813246
vt 0.296291 0.872403
vt 0.244248 0.813246
vt 0.492575 0.821899
vt 0.492575 0.821899
vt 0.492575 0.821899
vt 0.352309 0.352309
vt 0.317510 0.265313
vt 0.352309 0.265313
vt 0.935740 0.699734
vt 0.960095 0.647691
vt 0.960095 0.699734
vt 0.900948 0.647691
vt 0.900948 0.699734
vt 0.004327 0.360962
vt 0.004326 0.447957
vt 0.509881 0.821899
vt 0.509881 0.821899
vt 0.509881 0.821899
vt 0.789703 0.734687
vt 0.824495 0.647691
vt 0.824495 0.734687
vt 0.754911 0.647691
vt 0.754911 0.734687
vt 0.857503 0.873725
vt 0.833148 0.925768
vt 0.833148 0.873725
vt 0.892295 0.925768
vt 0.892295 0.873725
vt 0.352309 0.708944
vt 0.282712 0.620209
vt 0.352309 0.620209
vt 0.282712 0.708944
vt 0.352309 0.468836
vt 0.282712 0.360962
vt 0.352309 0.360962
vt 0.282712 0.468836
vt 0.472717 0.383581
vt 0.430546 0.459267
vt 0.430546 0.360962
vt 0.472717 0.459267
vt 0.360962 0.459267
vt 0.360962 0.360962
vt 0.569715 0.352309
vt 0.639299 0.254004
vt 0.639299 0.352309
vt 0.569715 0.254004
vt 0.240954 0.468836
vt 0.178318 0.383581
vt 0.240954 0.383581
vt 0.178318 0.468836
vt 0.398760 0.854996
vt 0.421378 0.924581
vt 0.398760 0.924581
vt 0.421378 0.868913
vt 0.421379 0.813246
vt 0.430032 0.868913
vt 0.452650 0.924581
vt 0.430032 0.924581
vt 0.452650 0.854996
vt 0.430032 0.813246
vt 0.240954 0.620208
vt 0.240954 0.686325
vt 0.073923 0.112201
vt 0.004327 0.004327
vt 0.073923 0.004327
vt 0.004327 0.112201
vt 0.360962 0.610639
vt 0.430546 0.708944
vt 0.360962 0.708944
vt 0.430546 0.610639
vt 0.178318 0.329690
vt 0.115681 0.263573
vt 0.178318 0.263573
vt 0.115681 0.329690
vt 0.639299 0.102631
vt 0.569715 0.004327
vt 0.639299 0.004327
vt 0.569715 0.102631
vt 0.115681 0.026945
vt 0.115681 0.112201
vt 0.632372 0.717597
vt 0.609753 0.828951
vt 0.609753 0.759355
vt 0.632372 0.828951
vt 0.509881 0.830552
vt 0.509881 0.830552
vt 0.509881 0.830552
vt 0.336216 0.924600
vt 0.358835 0.868923
vt 0.358835 0.924600
vt 0.358835 0.813246
vt 0.336216 0.855003
vt 0.472717 0.610639
vt 0.472717 0.686325
vt 0.535343 0.610639
vt 0.535343 0.686325
vt 0.464918 0.102631
vt 0.527544 0.026945
vt 0.527544 0.102631
vt 0.464918 0.026945
vt 0.527544 0.329690
vt 0.527544 0.254004
vt 0.367488 0.924600
vt 0.390107 0.855003
vt 0.390107 0.924600
vt 0.367488 0.813246
vt 0.501228 0.830552
vt 0.501228 0.830552
vt 0.501228 0.830552
vt 0.483922 0.868913
vt 0.461304 0.813246
vt 0.483922 0.813246
vt 0.461304 0.882830
vt 0.483922 0.924581
vt 0.327563 0.855003
vt 0.304944 0.868923
vt 0.304944 0.813246
vt 0.304944 0.924600
vt 0.327563 0.924600
vt 0.073923 0.352309
vt 0.004327 0.263573
vt 0.073923 0.263573
vt 0.004327 0.352309
vt 0.647953 0.995673
vt 0.746258 0.906938
vt 0.746258 0.995674
vt 0.723639 0.906938
vt 0.723639 0.755566
vt 0.647953 0.647691
vt 0.746258 0.647691
vt 0.746258 0.755566
vt 0.492575 0.830552
vt 0.492575 0.830552
vt 0.492575 0.830552
vt 0.968748 0.973055
vt 0.968748 0.647691
vt 0.968748 0.950436
vt 0.746258 0.329690
vt 0.897630 0.026945
vt 0.897630 0.329690
vt 0.746258 0.026945
vt 0.647953 0.352309
vt 0.746258 0.352309
vt 0.746258 0.004327
vt 0.670571 0.263573
vt 0.647953 0.263573
vt 0.670571 0.112201
vt 0.647953 0.004327
vt 0.647953 0.112201
vt 0.609753 0.879355
vt 0.632372 0.948939
vt 0.609753 0.948939
vt 0.632372 0.893272
vt 0.632372 0.837604
vt 0.535343 0.383581
vt 0.535343 0.459267
vt 0.178318 0.620208
vt 0.178318 0.686325
vt 0.178318 0.112201
vt 0.178318 0.026945
vt 0.464918 0.329690
vt 0.464918 0.254004
vt 0.583212 0.102631
vt 0.583212 0.254004
vt 0.969635 0.534953
vt 0.934682 0.360962
vt 0.969635 0.360962
vt 0.934682 0.534953
vt 0.891111 0.395880
vt 0.682870 0.604120
vt 0.682870 0.395880
vt 0.891111 0.604120
vt 0.039125 0.447957
vt 0.060004 0.112201
vt 0.060004 0.263573
vt 0.501228 0.839205
vt 0.501228 0.839205
vt 0.501228 0.839205
vt 0.557494 0.717597
vt 0.522541 0.891588
vt 0.522541 0.717597
vt 0.557494 0.891588
vt 0.174899 0.987237
vt 0.139947 0.813246
vt 0.174899 0.813246
vt 0.139947 0.987237
vt 0.417049 0.610639
vt 0.417049 0.459267
vt 0.601100 0.717597
vt 0.566147 0.891588
vt 0.566147 0.717597
vt 0.601100 0.891588
vt 0.106935 0.717597
vt 0.131294 0.717597
vt 0.317510 0.091322
vt 0.004327 0.717597
vt 0.028685 0.717597
vt 0.296632 0.620209
vt 0.296632 0.468836
vt 0.492575 0.839205
vt 0.492575 0.839205
vt 0.492575 0.839205
vt 0.699995 0.360962
vt 0.647953 0.413004
vt 0.647953 0.360962
vt 0.647953 0.586996
vt 0.647953 0.639038
vt 0.873986 0.360962
vt 0.926029 0.360962
vt 0.926029 0.413004
vt 0.699995 0.639038
vt 0.873986 0.639038
vt 0.926029 0.639038
vt 0.926029 0.586996
vt 0.361382 0.610639
vt 0.361382 0.459267
vt 0.004327 0.112201
vt 0.004327 0.263573
vt 0.638879 0.102631
vt 0.638879 0.254004
vt 0.352309 0.620209
vt 0.352309 0.468836
vn 0.0000 -0.0000 1.0000
vn 0.8793 -0.4763 -0.0000
vn 1.0000 -0.0000 -0.0000
vn 1.0000 0.0003 -0.0000
vn -1.0000 0.0000 0.0000
vn -0.0000 -0.4763 -0.8793
vn -0.0000 0.8192 0.5735
vn 0.0000 -0.4763 0.8793
vn 0.0000 0.0327 -0.9995
vn -0.8793 -0.4763 0.0000
vn -0.0000 0.0000 -1.0000
vn 0.0000 1.0000 0.0000
vn -0.0763 0.8635 0.4985
vn 0.0721 0.0000 -0.9974
vn 0.0000 0.4763 0.8793
vn -0.8793 0.4763 0.0000
vn -0.0143 -0.8659 0.4999
vn 0.8793 0.4763 -0.0000
vn -0.0000 0.4763 -0.8793
vn -0.0000 -1.0000 -0.0000
vn 0.7766 0.0469 0.6283
vn -1.0000 -0.0003 -0.0000
s 1
f 1/1/1 2/2/1 3/3/1
f 2/2/1 1/1/1 4/4/1
f 4/4/1 1/1/1 5/5/1
f 6/6/2 7/7/2 8/8/2
f 7/7/2 6/6/2 9/9/2
f 9/9/2 6/6/2 10/10/2
f 9/9/2 10/10/2 3/11/2
f 11/12/3 8/8/3 12/13/3
f 8/8/3 11/12/3 6/6/3
f 6/14/3 11/15/3 13/16/4
f 14/17/5 15/18/5 16/19/5
f 15/18/5 14/17/5 17/20/5
f 18/21/6 7/22/6 15/23/6
f 7/22/6 18/21/6 8/24/6
f 8/25/6 18/26/6 19/27/7
f 8/28/6 19/29/7 20/30/5
f 3/31/8 17/32/8 9/33/8
f 17/32/8 3/31/8 21/34/8
f 21/35/8 3/36/8 2/37/9
f 21/38/8 2/39/9 22/40/3
f 15/18/10 23/41/10 18/42/10
f 23/41/10 15/18/10 17/20/10
f 23/41/10 17/20/10 24/43/10
f 24/43/10 17/20/10 21/44/10
f 25/45/11 19/46/11 18/47/11
f 19/46/11 25/45/11 26/48/11
f 26/48/11 25/45/11 27/49/11
f 15/23/11 28/50/11 16/51/11
f 28/50/11 15/23/11 7/22/11
f 9/33/1 14/52/1 29/53/1
f 14/52/1 9/33/1 17/32/1
f 30/54/12 31/55/12 32/56/12
f 33/57/12 31/55/12 30/54/12
f 34/58/12 31/55/12 33/57/12
f 31/55/12 34/58/12 35/59/12
f 11/60/1 36/61/1 13/62/1
f 36/61/1 11/60/1 37/63/1
f 38/64/1 39/65/1 40/66/1
f 39/65/1 38/64/1 41/67/1
f 41/67/1 38/64/1 42/68/1
f 12/69/12 38/70/12 11/71/12
f 38/70/12 12/69/12 43/72/12
f 38/70/12 43/72/12 42/73/12
f 37/74/12 11/71/12 38/70/12
f 31/75/11 44/76/11 45/77/11
f 44/76/11 31/75/11 46/78/11
f 46/78/11 31/75/11 35/79/11
f 47/80/3 48/81/3 49/82/3
f 48/81/3 47/80/3 50/83/3
f 50/84/3 47/85/3 51/86/4
f 52/87/11 53/88/11 54/89/11
f 53/88/11 52/87/11 55/90/11
f 34/91/3 46/92/3 35/93/3
f 46/92/3 34/91/3 56/94/3
f 47/95/1 57/96/1 51/97/1
f 57/96/1 47/95/1 58/98/1
f 59/99/3 26/100/3 27/101/3
f 26/100/3 59/99/3 60/102/3
f 56/103/1 21/104/1 22/105/1
f 21/104/1 56/103/1 33/106/1
f 33/106/1 56/103/1 34/107/1
f 4/108/5 61/109/5 62/110/5
f 61/109/5 4/108/5 5/111/5
f 41/112/5 43/113/5 63/114/5
f 43/113/5 41/112/5 42/115/5
f 25/116/12 59/117/12 27/118/12
f 59/117/12 25/116/12 49/119/12
f 49/119/12 25/116/12 47/120/12
f 47/120/12 25/116/12 58/121/12
f 64/122/5 54/123/5 65/124/5
f 54/123/5 64/122/5 52/125/5
f 52/125/5 64/122/5 66/126/5
f 30/127/11 67/128/11 68/129/11
f 67/128/11 30/127/11 32/130/11
f 52/131/12 1/132/12 55/133/12
f 1/132/12 52/131/12 66/134/12
f 1/132/12 66/134/12 5/135/12
f 5/135/12 66/134/12 61/136/12
f 9/9/3 28/137/3 7/7/3
f 28/137/3 9/9/3 29/138/3
f 21/44/5 68/139/5 24/43/5
f 68/139/5 21/44/5 30/140/5
f 30/140/5 21/44/5 33/141/5
f 31/142/3 67/143/3 32/144/3
f 67/143/3 31/142/3 69/145/3
f 69/145/3 31/142/3 45/146/3
f 70/147/5 38/148/5 40/149/5
f 38/148/5 70/147/5 37/150/5
f 37/151/5 70/152/5 36/153/13
f 1/154/3 53/155/3 55/156/3
f 53/155/3 1/154/3 10/10/3
f 10/10/3 1/154/3 3/11/3
f 62/157/11 64/158/11 71/159/11
f 64/158/11 62/157/11 66/160/11
f 66/160/11 62/157/11 61/161/11
f 23/41/5 25/162/5 18/42/5
f 25/162/5 23/41/5 58/163/5
f 58/164/5 23/165/5 57/166/14
f 63/167/11 8/168/11 20/169/11
f 8/168/11 63/167/11 12/170/11
f 12/170/11 63/167/11 43/171/11
f 60/172/1 48/173/1 72/174/1
f 48/173/1 60/172/1 49/175/1
f 49/175/1 60/172/1 59/176/1
f 73/177/5 74/178/5 75/179/5
f 74/178/5 73/177/5 76/180/5
f 77/181/5 78/182/5 79/183/5
f 78/182/5 77/181/5 80/184/5
f 81/185/15 82/186/15 83/187/15
f 82/186/15 81/185/15 84/188/15
f 83/187/1 85/189/1 86/190/1
f 85/189/1 83/187/1 82/186/1
f 78/191/11 87/192/11 79/193/11
f 87/192/11 78/191/11 88/194/11
f 89/195/5 90/196/5 91/197/5
f 90/196/5 89/195/5 92/198/5
f 80/184/16 91/197/16 78/182/16
f 91/197/16 80/184/16 89/195/16
f 93/199/1 94/200/1 95/201/1
f 94/200/1 93/199/1 96/202/1
f 96/202/1 93/199/1 97/203/1
f 98/204/1 77/205/1 99/206/1
f 77/205/1 98/204/1 80/207/1
f 80/207/1 98/204/1 89/208/1
f 76/180/16 100/209/16 74/178/16
f 100/209/16 76/180/16 101/210/16
f 93/211/3 102/212/3 103/213/3
f 102/212/3 93/211/3 95/214/3
f 104/215/1 76/216/1 73/217/1
f 76/216/1 104/215/1 105/218/1
f 106/219/3 107/220/17 108/221/3
f 107/220/17 106/219/3 81/222/3
f 109/223/11 103/224/11 102/225/11
f 103/224/11 109/223/11 110/226/11
f 111/227/18 93/211/18 103/213/18
f 93/211/18 111/227/18 97/228/18
f 112/229/3 87/230/3 88/231/3
f 87/230/3 112/229/3 113/232/3
f 113/233/3 112/234/3 114/235/12
f 85/236/5 115/237/5 116/238/5
f 115/237/5 85/236/5 84/239/5
f 84/239/5 85/236/5 82/240/5
f 117/241/15 76/216/15 105/218/15
f 76/216/15 117/241/15 101/242/15
f 118/243/1 101/242/1 117/241/1
f 101/242/1 118/243/1 119/244/1
f 120/245/11 111/246/11 121/247/11
f 111/246/11 120/245/11 122/248/11
f 121/247/19 103/224/19 110/226/19
f 103/224/19 121/247/19 111/246/19
f 91/249/19 88/194/19 78/191/19
f 88/194/19 91/249/19 112/250/19
f 123/251/5 110/252/5 109/253/5
f 110/252/5 123/251/5 121/254/5
f 121/255/5 123/256/5 124/257/20
f 125/258/11 126/259/11 127/260/11
f 126/259/11 125/258/11 128/261/11
f 128/261/11 125/258/11 107/262/11
f 105/263/3 129/264/3 117/265/3
f 129/264/3 105/263/3 130/266/3
f 130/266/3 105/263/3 104/267/3
f 83/268/3 126/269/3 128/270/3
f 126/269/3 83/268/3 86/271/3
f 85/272/20 126/273/20 86/274/20
f 126/273/20 85/272/20 127/275/20
f 127/275/20 85/272/20 94/276/20
f 109/277/20 94/276/20 85/272/20
f 102/278/20 94/276/20 109/277/20
f 94/276/20 102/278/20 95/279/20
f 109/280/20 85/281/20 116/282/12
f 109/283/20 116/284/12 123/285/21
f 130/286/20 123/287/21 116/288/12
f 123/287/21 130/286/20 113/289/20
f 130/286/20 73/290/20 113/289/20
f 73/290/20 130/286/20 104/291/20
f 113/289/20 73/290/20 87/292/20
f 87/292/20 73/290/20 131/293/20
f 131/293/20 73/290/20 75/294/20
f 99/295/20 87/292/20 131/293/20
f 87/292/20 99/295/20 79/296/20
f 79/296/20 99/295/20 77/297/20
f 81/222/18 128/270/18 107/220/18
f 128/270/18 81/222/18 83/268/18
f 74/298/11 131/299/11 75/300/11
f 131/299/11 74/298/11 132/301/11
f 132/301/11 74/298/11 100/302/11
f 106/303/1 84/188/1 81/185/1
f 84/188/1 106/303/1 133/304/1
f 101/210/5 134/305/5 100/209/22
f 134/305/5 101/210/5 119/306/5
f 135/307/3 111/227/3 122/308/3
f 111/227/3 135/307/3 97/228/3
f 90/309/11 112/250/11 91/249/11
f 112/250/11 90/309/11 136/310/11
f 16/51/11 136/310/11 90/309/11
f 136/310/11 16/51/11 120/245/11
f 120/245/11 16/51/11 122/248/11
f 122/248/11 16/51/11 28/50/11
f 121/247/11 136/310/11 120/245/11
f 121/247/11 112/250/11 136/310/11
f 124/311/11 112/250/11 121/247/11
f 112/250/11 124/311/11 114/312/11
f 46/313/12 4/314/12 62/315/12
f 4/314/12 46/313/12 56/316/12
f 137/317/12 138/318/12 139/319/12
f 138/318/12 137/317/12 140/320/12
f 24/43/5 57/321/14 23/41/5
f 57/321/14 24/43/5 68/139/5
f 29/138/3 122/308/3 28/137/3
f 122/308/3 29/138/3 135/307/3
f 135/307/3 29/138/3 97/228/3
f 97/228/3 29/138/3 108/221/3
f 97/228/3 108/221/3 96/322/3
f 108/221/3 29/138/3 106/219/3
f 108/221/3 125/323/3 96/322/3
f 125/324/3 108/325/3 107/326/17
f 57/327/12 67/328/12 51/329/12
f 67/328/12 57/327/12 68/330/12
f 26/331/12 41/332/12 63/333/12
f 41/332/12 26/331/12 60/334/12
f 29/53/1 133/304/1 106/303/1
f 133/304/1 29/53/1 118/243/1
f 118/243/1 29/53/1 119/244/1
f 119/244/1 29/53/1 14/52/1
f 117/241/1 133/304/1 118/243/1
f 117/241/1 84/188/1 133/304/1
f 129/335/1 84/188/1 117/241/1
f 84/188/1 129/335/1 115/336/1
f 36/337/12 53/338/12 13/339/12
f 53/338/12 36/337/12 54/340/12
f 46/78/11 71/159/11 44/76/11
f 71/159/11 46/78/11 62/157/11
f 4/4/1 22/105/1 2/2/1
f 22/105/1 4/4/1 56/103/1
f 65/124/5 36/341/13 70/342/5
f 36/341/13 65/124/5 54/123/5
f 41/67/1 72/174/1 39/65/1
f 72/174/1 41/67/1 60/172/1
f 53/155/3 6/6/3 13/343/4
f 6/6/3 53/155/3 10/10/3
f 67/143/3 50/344/3 51/345/4
f 50/344/3 67/143/3 69/145/3
f 26/48/11 20/169/11 19/46/11
f 20/169/11 26/48/11 63/167/11
f 132/346/5 89/195/5 98/347/5
f 89/195/5 132/346/5 92/198/5
f 134/305/5 92/198/5 132/346/5
f 14/17/5 92/198/5 134/305/5
f 16/19/5 92/198/5 14/17/5
f 92/198/5 16/19/5 90/196/5
f 134/348/5 132/349/5 100/350/22
f 14/17/5 134/305/5 119/306/5
f 39/351/12 70/352/12 40/353/12
f 70/352/12 39/351/12 139/319/12
f 70/352/12 139/319/12 65/354/12
f 65/354/12 139/319/12 64/355/12
f 139/319/12 39/351/12 137/317/12
f 137/317/12 39/351/12 72/356/12
f 137/317/12 72/356/12 48/357/12
f 137/317/12 48/357/12 140/320/12
f 140/320/12 48/357/12 50/358/12
f 138/318/12 64/355/12 139/319/12
f 64/355/12 138/318/12 71/359/12
f 71/359/12 138/318/12 140/320/12
f 71/359/12 140/320/12 44/360/12
f 44/360/12 140/320/12 45/361/12
f 45/361/12 140/320/12 69/362/12
f 69/362/12 140/320/12 50/358/12
f 115/336/1 130/363/1 116/364/1
f 130/363/1 115/336/1 129/335/1
f 125/323/3 94/365/3 96/322/3
f 94/365/3 125/323/3 127/366/3
f 114/312/11 123/367/11 113/368/11
f 123/367/11 114/312/11 124/311/11
f 131/369/5 98/347/5 99/370/5
f 98/347/5 131/369/5 132/346/5
