# Blender v2.92.0 OBJ File: 'kenney_OGConvert.blend'
# www.blender.org
o towerRound_topA
v -0.420178 -0.000000 0.112586
v -0.435000 0.100000 0.000000
v -0.435000 0.000000 0.000000
v -0.420178 0.100000 0.112586
v 0.376721 0.100000 -0.217500
v 0.307591 0.000000 -0.307591
v 0.307591 0.100000 -0.307591
v 0.376721 0.000000 -0.217500
v 0.420178 0.100000 -0.112586
v 0.420178 0.000000 -0.112586
v -0.420178 0.000000 -0.112586
v -0.376721 0.100000 -0.217500
v -0.376721 0.000000 -0.217500
v -0.420178 0.100000 -0.112586
v 0.217500 -0.000000 0.376721
v 0.112586 0.100000 0.420178
v 0.112586 -0.000000 0.420178
v 0.217500 0.100000 0.376721
v -0.307591 -0.000000 0.307591
v -0.376721 0.100000 0.217500
v -0.376721 -0.000000 0.217500
v -0.307591 0.100000 0.307591
v 0.420178 0.100000 0.112586
v 0.435000 0.000000 -0.000000
v 0.435000 0.100000 -0.000000
v 0.420178 -0.000000 0.112586
v -0.217500 0.100000 -0.376721
v -0.112586 0.000000 -0.420178
v -0.217500 0.000000 -0.376721
v -0.112586 0.100000 -0.420178
v 0.376721 0.100000 0.217500
v 0.376721 -0.000000 0.217500
v 0.000000 -0.000000 0.435000
v -0.112586 0.100000 0.420178
v -0.112586 -0.000000 0.420178
v 0.000000 0.100000 0.435000
v 0.307591 0.100000 0.307591
v 0.307591 -0.000000 0.307591
v 0.112586 0.100000 -0.420178
v 0.217500 0.000000 -0.376721
v 0.112586 0.000000 -0.420178
v 0.217500 0.100000 -0.376721
v -0.217500 -0.000000 0.376721
v -0.217500 0.100000 0.376721
v -0.307591 0.100000 -0.307591
v -0.307591 0.000000 -0.307591
v -0.000000 0.000000 -0.435000
v -0.000000 0.100000 -0.435000
v -0.435000 0.400000 0.000000
v -0.435000 0.500000 0.000000
v -0.420178 0.500000 0.112586
v 0.376721 0.500000 -0.217500
v 0.307591 0.400000 -0.307591
v 0.307591 0.500000 -0.307591
v 0.420178 0.500000 -0.112586
v -0.376721 0.400000 -0.217500
v -0.420178 0.400000 -0.112586
v 0.112586 0.500000 0.420178
v 0.217500 0.500000 0.376721
v -0.376721 0.500000 0.217500
v -0.307591 0.500000 0.307591
v -0.307591 0.400000 0.307591
v 0.420178 0.400000 0.112586
v 0.435000 0.400000 -0.000000
v -0.217500 0.500000 -0.376721
v -0.112586 0.500000 -0.420178
v 0.435000 0.500000 -0.000000
v 0.376721 0.400000 0.217500
v -0.112586 0.400000 0.420178
v 0.000000 0.400000 0.435000
v 0.307591 0.400000 0.307591
v 0.307591 0.500000 0.307591
v 0.112586 0.400000 -0.420178
v 0.217500 0.400000 -0.376721
v -0.217500 0.400000 0.376721
v -0.307591 0.400000 -0.307591
v -0.307591 0.500000 -0.307591
v -0.000000 0.400000 -0.435000
v -0.000000 0.500000 -0.435000
v -0.235169 0.400000 -0.235169
v -0.235169 0.500000 -0.235169
v 0.332579 0.300000 -0.000000
v 0.321247 0.500000 -0.086078
v 0.321247 0.300000 -0.086078
v 0.332579 0.500000 -0.000000
v 0.332579 0.400000 -0.000000
v -0.166290 0.400000 0.288022
v -0.086078 0.300000 0.321247
v -0.166290 0.300000 0.288022
v -0.086078 0.400000 0.321247
v 0.288022 0.300000 -0.166290
v 0.235169 0.400000 -0.235169
v 0.235169 0.300000 -0.235169
v 0.235169 0.500000 -0.235169
v 0.288022 0.500000 -0.166290
v 0.166290 0.400000 -0.288022
v 0.166290 0.300000 -0.288022
v 0.000000 0.400000 0.332579
v 0.086078 0.300000 0.321247
v 0.000000 0.300000 0.332579
v 0.086078 0.500000 0.321247
v 0.000000 0.500000 0.332579
v -0.332579 0.400000 0.000000
v -0.332579 0.500000 0.000000
v -0.321247 0.500000 0.086078
v -0.332579 0.300000 0.000000
v -0.321247 0.300000 0.086078
v 0.086078 0.400000 -0.321247
v -0.000000 0.400000 -0.332579
v -0.000000 0.300000 -0.332579
v -0.086078 0.500000 -0.321247
v -0.086078 0.300000 -0.321247
v -0.000000 0.500000 -0.332579
v -0.235169 0.500000 0.235169
v -0.288022 0.300000 0.166290
v -0.288022 0.500000 0.166290
v -0.235169 0.300000 0.235169
v -0.235169 0.400000 0.235169
v 0.000000 0.500000 0.435000
v -0.288022 0.400000 -0.166290
v -0.321247 0.400000 -0.086078
v 0.166290 0.300000 0.288022
v 0.166290 0.500000 0.288022
v 0.229924 0.300000 -0.000000
v 0.222089 0.300000 -0.059509
v 0.199120 0.300000 -0.114962
v 0.162581 0.300000 -0.162581
v 0.086078 0.300000 -0.321247
v 0.114962 0.300000 -0.199120
v 0.059509 0.300000 -0.222089
v -0.000000 0.300000 -0.229924
v -0.059509 0.300000 -0.222089
v -0.114962 0.300000 -0.199120
v -0.166290 0.300000 -0.288022
v -0.162581 0.300000 -0.162581
v -0.199120 0.300000 -0.114962
v -0.235169 0.300000 -0.235169
v -0.222089 0.300000 -0.059509
v -0.229924 0.300000 0.000000
v -0.222089 0.300000 0.059509
v -0.199120 0.300000 0.114962
v -0.162581 0.300000 0.162581
v -0.114962 0.300000 0.199120
v -0.059509 0.300000 0.222089
v 0.000000 0.300000 0.229924
v 0.059509 0.300000 0.222089
v 0.114962 0.300000 0.199120
v 0.162581 0.300000 0.162581
v 0.199120 0.300000 0.114962
v 0.222089 0.300000 0.059509
v 0.235169 0.300000 0.235169
v 0.288022 0.300000 0.166290
v 0.321247 0.300000 0.086078
v -0.288022 0.300000 -0.166290
v -0.321247 0.300000 -0.086078
v 0.321247 0.400000 0.086078
v 0.288022 0.400000 0.166290
v 0.235169 0.400000 0.235169
v 0.235169 0.500000 0.235169
v -0.166290 0.500000 -0.288022
vt 0.726166 0.593621
vt 0.673726 0.534541
vt 0.726166 0.534541
vt 0.673725 0.593621
vt 0.516403 0.098095
vt 0.463962 0.046300
vt 0.516403 0.046300
vt 0.463962 0.098094
vt 0.516403 0.155730
vt 0.463962 0.155730
vt 0.726166 0.475540
vt 0.673726 0.420637
vt 0.726166 0.420637
vt 0.673726 0.475540
vt 0.996124 0.281533
vt 0.943683 0.229249
vt 0.996124 0.229249
vt 0.943683 0.281533
vt 0.726166 0.696179
vt 0.673725 0.648752
vt 0.726166 0.648752
vt 0.673725 0.696179
vt 0.516403 0.272684
vt 0.463962 0.215279
vt 0.516403 0.215279
vt 0.463962 0.272684
vt 0.673725 0.929391
vt 0.726166 0.871545
vt 0.726166 0.929391
vt 0.673725 0.871545
vt 0.516403 0.324031
vt 0.463962 0.324031
vt 0.996124 0.171368
vt 0.943683 0.111835
vt 0.996124 0.111835
vt 0.943683 0.171368
vt 0.516403 0.365823
vt 0.463962 0.365823
vt 0.996124 0.324656
vt 0.943683 0.324656
vt 0.673725 0.754839
vt 0.726166 0.703931
vt 0.726166 0.754839
vt 0.673725 0.703931
vt 0.996124 0.054707
vt 0.943683 0.003876
vt 0.996124 0.003876
vt 0.943683 0.054707
vt 0.673725 0.981604
vt 0.726166 0.981604
vt 0.673726 0.373575
vt 0.726166 0.373575
vt 0.726166 0.812009
vt 0.673725 0.812009
vt 0.516403 0.003876
vt 0.463962 0.003876
vt 0.259818 0.003876
vt 0.317340 0.019289
vt 0.200267 0.003876
vt 0.142746 0.019289
vt 0.368912 0.049065
vt 0.091173 0.049065
vt 0.411021 0.091173
vt 0.049065 0.091173
vt 0.440796 0.142746
vt 0.019289 0.142746
vt 0.456209 0.200267
vt 0.003876 0.200267
vt 0.456209 0.259818
vt 0.003876 0.259818
vt 0.440796 0.317340
vt 0.019289 0.317340
vt 0.411021 0.368912
vt 0.049065 0.368912
vt 0.368912 0.411021
vt 0.091173 0.411021
vt 0.317340 0.440796
vt 0.142746 0.440796
vt 0.259818 0.456209
vt 0.200267 0.456209
vt 0.516403 0.534541
vt 0.463962 0.534541
vt 0.463962 0.593621
vt 0.726166 0.098095
vt 0.673726 0.046300
vt 0.726166 0.046300
vt 0.726166 0.155730
vt 0.516403 0.420637
vt 0.516403 0.475540
vt 0.733919 0.229249
vt 0.733919 0.281532
vt 0.463962 0.648752
vt 0.463962 0.696179
vt 0.430247 0.463962
vt 0.430247 0.463962
vt 0.430247 0.463962
vt 0.673726 0.272684
vt 0.673726 0.215279
vt 0.463962 0.929391
vt 0.463962 0.871545
vt 0.726166 0.215279
vt 0.438000 0.463962
vt 0.438000 0.463962
vt 0.438000 0.463962
vt 0.673726 0.324031
vt 0.786360 0.111835
vt 0.786360 0.171368
vt 0.673726 0.365823
vt 0.786360 0.324656
vt 0.733919 0.324656
vt 0.516403 0.754839
vt 0.516403 0.703931
vt 0.786360 0.003876
vt 0.786360 0.054707
vt 0.516403 0.981604
vt 0.463962 0.981604
vt 0.516403 0.373575
vt 0.516403 0.812009
vt 0.463962 0.812009
vt 0.673726 0.003876
vt 0.786360 0.374210
vt 0.733919 0.332409
vt 0.786360 0.332409
vt 0.733919 0.374210
vt 0.108758 0.941126
vt 0.003876 0.895956
vt 0.108758 0.895956
vt 0.003876 0.941126
vt 0.445753 0.463962
vt 0.445753 0.463962
vt 0.445753 0.463962
vt 0.898994 0.544703
vt 0.951435 0.505782
vt 0.951435 0.544703
vt 0.898994 0.505782
vt 0.108758 0.853805
vt 0.056317 0.817546
vt 0.108758 0.817546
vt 0.003876 0.817546
vt 0.003876 0.853805
vt 0.838801 0.619462
vt 0.786360 0.580600
vt 0.838801 0.580600
vt 0.786360 0.619462
vt 0.898994 0.462073
vt 0.951435 0.416554
vt 0.951435 0.462073
vt 0.846554 0.416554
vt 0.846554 0.462073
vt 0.786360 0.932664
vt 0.733919 0.879258
vt 0.786360 0.879258
vt 0.733919 0.932664
vt 0.846554 0.970233
vt 0.898995 0.917149
vt 0.898995 0.970233
vt 0.846554 0.917149
vt 0.838801 0.787841
vt 0.786360 0.742312
vt 0.838801 0.742312
vt 0.733919 0.742312
vt 0.733919 0.787841
vt 0.357460 0.581034
vt 0.422495 0.618002
vt 0.372873 0.638556
vt 0.410711 0.574024
vt 0.357460 0.521483
vt 0.410711 0.528494
vt 0.372873 0.463962
vt 0.422495 0.484516
vt 0.838801 0.491406
vt 0.733919 0.447153
vt 0.838801 0.447153
vt 0.786360 0.491406
vt 0.733919 0.491406
vt 0.794113 0.879258
vt 0.837431 0.931699
vt 0.794113 0.931699
vt 0.837431 0.879258
vt 0.838801 0.871505
vt 0.733919 0.831906
vt 0.838801 0.831906
vt 0.733919 0.871505
vt 0.456209 0.463962
vt 0.456209 0.463962
vt 0.456209 0.463962
vt 0.733919 0.171368
vt 0.409901 0.882365
vt 0.357460 0.828655
vt 0.409901 0.828655
vt 0.357460 0.882365
vt 0.417654 0.881096
vt 0.451381 0.828655
vt 0.451381 0.881096
vt 0.417654 0.828655
vt 0.372873 0.820902
vt 0.410711 0.756370
vt 0.422495 0.800348
vt 0.410711 0.710841
vt 0.357460 0.763381
vt 0.422495 0.666862
vt 0.372873 0.646308
vt 0.357460 0.703830
vt 0.951435 0.372328
vt 0.846554 0.372328
vt 0.450089 0.941289
vt 0.417654 0.888849
vt 0.450089 0.888849
vt 0.417654 0.941289
vt 0.161054 0.756420
vt 0.038425 0.743050
vt 0.130650 0.748273
vt 0.015660 0.703620
vt 0.103391 0.732535
vt 0.081134 0.710278
vt 0.003876 0.659642
vt 0.065396 0.683019
vt 0.057249 0.652615
vt 0.003876 0.614112
vt 0.057249 0.621139
vt 0.015660 0.570134
vt 0.065396 0.590736
vt 0.081134 0.563476
vt 0.038425 0.530705
vt 0.103391 0.541219
vt 0.130650 0.525481
vt 0.070619 0.498510
vt 0.161054 0.517335
vt 0.192530 0.517335
vt 0.315159 0.530705
vt 0.222934 0.525481
vt 0.250193 0.541219
vt 0.337923 0.570135
vt 0.272450 0.563477
vt 0.288188 0.590736
vt 0.349707 0.614113
vt 0.296334 0.621139
vt 0.296334 0.652615
vt 0.349707 0.659642
vt 0.288188 0.683019
vt 0.337923 0.703620
vt 0.272450 0.710278
vt 0.250193 0.732535
vt 0.315159 0.743050
vt 0.222934 0.748273
vt 0.192530 0.756420
vt 0.282964 0.775244
vt 0.243535 0.798009
vt 0.070619 0.775244
vt 0.199557 0.809793
vt 0.110049 0.798009
vt 0.154027 0.809793
vt 0.110049 0.475746
vt 0.282964 0.498511
vt 0.243535 0.475746
vt 0.154027 0.463962
vt 0.199557 0.463962
vt 0.314527 0.904631
vt 0.262086 0.862655
vt 0.314527 0.862655
vt 0.262086 0.904631
vt 0.116511 0.934618
vt 0.181546 0.971585
vt 0.131924 0.992139
vt 0.116511 0.875067
vt 0.131924 0.817546
vt 0.169762 0.927607
vt 0.169762 0.882078
vt 0.181546 0.838100
vt 0.951435 0.332409
vt 0.898994 0.332409
vt 0.846554 0.332409
vt 0.262086 0.817545
vt 0.314527 0.817545
vt 0.899804 0.616988
vt 0.861966 0.552456
vt 0.911588 0.573010
vt 0.846554 0.609977
vt 0.899804 0.662518
vt 0.846554 0.669528
vt 0.911588 0.706496
vt 0.861966 0.727050
vt 0.838801 0.407180
vt 0.838801 0.374210
vt 0.733919 0.407180
vt 0.409901 0.943314
vt 0.357460 0.890117
vt 0.409901 0.890117
vt 0.357460 0.943314
vt 0.254333 0.838100
vt 0.189298 0.875067
vt 0.204711 0.817545
vt 0.189298 0.934618
vt 0.204711 0.992139
vt 0.242549 0.882078
vt 0.242549 0.927607
vt 0.254333 0.971585
vt 0.906747 0.969590
vt 0.949603 0.917149
vt 0.949603 0.969590
vt 0.906747 0.917149
vt 0.314527 0.940612
vt 0.262086 0.940612
vt 0.786360 0.659166
vt 0.733919 0.627214
vt 0.786360 0.627214
vt 0.733919 0.659166
vt 0.733919 0.698424
vt 0.786360 0.698424
vt 0.786360 0.536922
vt 0.838801 0.536922
vt 0.911588 0.755356
vt 0.846553 0.792324
vt 0.861966 0.734802
vt 0.899804 0.799335
vt 0.846554 0.851875
vt 0.899804 0.844864
vt 0.861966 0.909396
vt 0.911588 0.888842
vt 0.919341 0.669528
vt 0.984376 0.706496
vt 0.934754 0.727050
vt 0.972592 0.662517
vt 0.972592 0.616988
vt 0.919341 0.609977
vt 0.984376 0.573010
vt 0.934754 0.552456
vt 0.972592 0.799335
vt 0.934754 0.734802
vt 0.984376 0.755356
vt 0.972592 0.844864
vt 0.919341 0.792324
vt 0.984376 0.888842
vt 0.934754 0.909396
vt 0.919341 0.851875
vn -0.9659 0.0000 0.2588
vn -1.0000 -0.0000 0.0000
vn 0.8660 0.0000 -0.5000
vn 0.7071 0.0000 -0.7071
vn 0.9659 0.0000 -0.2588
vn -0.9659 0.0000 -0.2588
vn -0.8660 0.0000 -0.5000
vn 0.5000 0.0000 0.8660
vn 0.2588 -0.0000 0.9659
vn -0.7071 -0.0000 0.7071
vn -0.8660 0.0000 0.5000
vn 0.9659 0.0000 0.2588
vn 1.0000 0.0000 -0.0000
vn -0.5000 0.0000 -0.8660
vn -0.2588 0.0000 -0.9659
vn 0.8660 0.0000 0.5000
vn 0.0000 0.0000 1.0000
vn -0.2584 -0.0592 0.9642
vn -0.2588 0.0000 0.9659
vn 0.7071 -0.0000 0.7071
vn 0.2588 0.0000 -0.9659
vn 0.5000 0.0000 -0.8660
vn -0.5000 0.0000 0.8660
vn -0.5633 -0.0000 0.8263
vn -0.7071 0.0000 -0.7071
vn -0.0000 0.0000 -1.0000
vn -0.0000 -1.0000 -0.0000
vn -0.9595 0.0269 -0.2805
vn -0.7072 0.6539 -0.2690
vn -0.7092 0.6789 0.1900
vn 0.6359 0.6789 -0.3671
vn 0.5858 0.2924 -0.7559
vn 0.0630 0.2668 -0.9617
vn 0.7092 0.6789 -0.1900
vn -0.6359 0.6789 -0.3671
vn -0.7092 0.6789 -0.1900
vn 0.1900 0.6789 0.7092
vn 0.3671 0.6789 0.6359
vn -0.6359 0.6789 0.3671
vn -0.0629 0.2752 0.9593
vn -0.9614 -0.2643 -0.0762
vn 0.7092 0.6789 0.1900
vn 0.5330 0.0971 0.8405
vn -0.3671 0.6789 -0.6359
vn -0.1900 0.6789 -0.7092
vn 0.6173 0.5708 0.5414
vn 0.6359 0.6789 0.3671
vn -0.2717 0.6820 0.6790
vn -0.2769 0.1606 0.9474
vn 0.8411 0.2837 0.4606
vn 0.8193 0.5708 0.0537
vn 0.1900 0.6789 -0.7092
vn 0.3671 0.6789 -0.6359
vn -0.5836 0.2475 0.7734
vn -0.8411 0.2837 -0.4606
vn -0.8193 0.5708 -0.0537
vn 0.2769 0.1606 -0.9474
vn 0.5414 0.5708 -0.6173
vn -0.7343 0.6789 0.0000
vn -0.9914 -0.0000 0.1305
vn -0.0796 0.0000 -0.9968
vn -0.7374 0.0000 0.6754
vn -0.5192 0.6789 0.5192
vn -0.7934 0.0000 0.6088
vn -0.3671 0.6789 0.6359
vn -0.0438 0.0000 -0.9990
vn -0.0000 0.6789 -0.7343
vn -0.1305 0.0000 -0.9914
vn 0.9990 0.0000 -0.0438
vn 0.9914 -0.0000 -0.1305
vn 0.7343 0.6789 -0.0000
vn 0.0000 1.0000 0.0000
vn 0.0000 0.6789 0.7343
vn 0.0438 -0.0000 0.9990
vn 0.1305 0.0000 0.9914
vn 0.7934 0.0000 -0.6088
vn 0.5192 0.6789 -0.5192
vn 0.7374 -0.0000 -0.6755
vn -0.5414 0.5708 0.6173
vn -0.1900 0.6789 0.7092
vn 0.5192 0.6789 0.5192
vn -0.5192 0.6789 -0.5192
vn -0.6754 0.0000 -0.7374
vn -0.6088 0.0000 -0.7934
vn 0.6754 -0.0000 0.7374
vn 0.6088 0.0000 0.7934
s 1
f 1/1/1 2/2/2 3/3/2
f 2/2/2 1/1/1 4/4/1
f 5/5/3 6/6/4 7/7/4
f 6/6/4 5/5/3 8/8/3
f 9/9/5 8/8/3 5/5/3
f 8/8/3 9/9/5 10/10/5
f 11/11/6 12/12/7 13/13/7
f 12/12/7 11/11/6 14/14/6
f 15/15/8 16/16/9 17/17/9
f 16/16/9 15/15/8 18/18/8
f 19/19/10 20/20/11 21/21/11
f 20/20/11 19/19/10 22/22/10
f 23/23/12 24/24/13 25/25/13
f 24/24/13 23/23/12 26/26/12
f 27/27/14 28/28/15 29/29/14
f 28/28/15 27/27/14 30/30/15
f 25/25/13 10/10/5 9/9/5
f 10/10/5 25/25/13 24/24/13
f 31/31/16 26/26/12 23/23/12
f 26/26/12 31/31/16 32/32/16
f 3/3/2 14/14/6 11/11/6
f 14/14/6 3/3/2 2/2/2
f 33/33/17 34/34/18 35/35/19
f 34/34/18 33/33/17 36/36/17
f 37/37/20 32/32/16 31/31/16
f 32/32/16 37/37/20 38/38/20
f 38/39/20 18/18/8 15/15/8
f 18/18/8 38/39/20 37/40/20
f 39/41/21 40/42/22 41/43/21
f 40/42/22 39/41/21 42/44/22
f 43/45/23 22/46/10 19/47/10
f 22/46/10 43/45/23 44/48/24
f 45/49/25 29/29/14 46/50/25
f 29/29/14 45/49/25 27/27/14
f 13/13/7 45/51/25 46/52/25
f 45/51/25 13/13/7 12/12/7
f 30/30/15 47/53/26 28/28/15
f 47/53/26 30/30/15 48/54/26
f 42/55/22 6/6/4 40/56/22
f 6/6/4 42/55/22 7/7/4
f 48/54/26 41/43/21 47/53/26
f 41/43/21 48/54/26 39/41/21
f 35/35/19 44/48/24 43/45/23
f 44/48/24 35/35/19 34/34/18
f 17/17/9 36/36/17 33/33/17
f 36/36/17 17/17/9 16/16/9
f 21/21/11 4/4/1 1/1/1
f 4/4/1 21/21/11 20/20/11
f 24/57/27 26/58/27 10/59/27
f 8/60/27 10/59/27 26/58/27
f 32/61/27 8/60/27 26/58/27
f 6/62/27 8/60/27 32/61/27
f 38/63/27 6/62/27 32/61/27
f 40/64/27 6/62/27 38/63/27
f 15/65/27 40/64/27 38/63/27
f 41/66/27 40/64/27 15/65/27
f 17/67/27 41/66/27 15/65/27
f 47/68/27 41/66/27 17/67/27
f 33/69/27 47/68/27 17/67/27
f 28/70/27 47/68/27 33/69/27
f 35/71/27 28/70/27 33/69/27
f 29/72/27 28/70/27 35/71/27
f 43/73/27 29/72/27 35/71/27
f 46/74/27 29/72/27 43/73/27
f 19/75/27 46/74/27 43/73/27
f 13/76/27 46/74/27 19/75/27
f 21/77/27 13/76/27 19/75/27
f 11/78/27 13/76/27 21/77/27
f 1/79/27 11/78/27 21/77/27
f 3/80/27 11/78/27 1/79/27
f 2/2/2 4/4/1 49/81/28
f 50/82/29 49/81/28 4/4/1
f 51/83/30 50/82/29 4/4/1
f 5/5/3 7/7/4 52/84/31
f 7/7/4 53/85/32 52/84/31
f 54/86/33 52/84/31 53/85/32
f 9/9/5 5/5/3 55/87/34
f 52/84/31 55/87/34 5/5/3
f 12/12/7 14/14/6 56/88/35
f 57/89/36 56/88/35 14/14/6
f 16/16/9 18/18/8 58/90/37
f 59/91/38 58/90/37 18/18/8
f 20/20/11 22/22/10 60/92/39
f 61/93/40 60/92/39 22/22/10
f 62/94/41 61/95/40 22/96/10
f 23/23/12 25/25/13 63/97/42
f 64/98/43 63/97/42 25/25/13
f 27/27/14 65/99/44 30/30/15
f 66/100/45 30/30/15 65/99/44
f 25/25/13 9/9/5 67/101/46
f 55/87/34 67/101/46 9/9/5
f 64/102/43 25/103/13 67/104/46
f 31/31/16 23/23/12 68/105/47
f 63/97/42 68/105/47 23/23/12
f 14/14/6 2/2/2 57/89/36
f 49/81/28 57/89/36 2/2/2
f 34/34/18 36/36/17 69/106/48
f 70/107/49 69/106/48 36/36/17
f 37/37/20 31/31/16 71/108/50
f 68/105/47 71/108/50 31/31/16
f 18/18/8 37/40/20 59/91/38
f 71/109/50 59/91/38 37/40/20
f 72/110/51 59/91/38 71/109/50
f 39/41/21 73/111/52 42/44/22
f 74/112/53 42/44/22 73/111/52
f 22/46/10 44/48/24 62/113/41
f 75/114/54 62/113/41 44/48/24
f 45/49/25 76/115/55 27/27/14
f 65/99/44 27/27/14 76/115/55
f 77/116/56 65/99/44 76/115/55
f 45/51/25 12/12/7 76/117/55
f 56/88/35 76/117/55 12/12/7
f 30/30/15 66/100/45 48/54/26
f 78/118/57 48/54/26 66/100/45
f 79/119/58 78/118/57 66/100/45
f 42/55/22 74/120/53 7/7/4
f 53/85/32 7/7/4 74/120/53
f 80/121/10 77/122/56 76/123/55
f 77/122/56 80/121/10 81/124/10
f 82/125/59 83/126/1 84/127/30
f 83/126/1 82/125/59 85/128/60
f 85/129/60 82/130/59 86/131/61
f 87/132/22 88/133/52 89/134/53
f 88/133/52 87/132/22 90/135/21
f 91/136/39 92/137/62 93/138/63
f 92/137/62 91/136/39 94/139/64
f 94/139/64 91/136/39 95/140/11
f 93/141/63 96/142/23 97/143/65
f 96/142/23 93/141/63 92/144/62
f 98/145/66 99/146/45 100/147/67
f 99/146/45 98/145/66 101/148/15
f 101/148/15 98/145/66 102/149/68
f 64/150/43 85/151/17 86/152/17
f 85/151/17 64/150/43 67/153/46
f 50/154/29 103/155/26 49/156/28
f 103/155/26 50/154/26 104/157/26
f 105/158/5 103/159/69 104/160/70
f 103/159/69 105/158/5 106/161/71
f 106/161/71 105/158/5 107/162/34
f 34/34/18 75/114/54 44/48/24
f 75/114/54 34/34/18 69/106/48
f 48/54/26 78/118/57 39/41/21
f 73/111/52 39/41/21 78/118/57
f 74/163/53 92/164/72 53/165/32
f 92/164/72 74/163/53 96/166/72
f 96/166/72 74/163/53 73/167/52
f 96/166/72 73/167/52 108/168/72
f 108/168/72 73/167/52 78/169/57
f 108/168/72 78/169/72 109/170/72
f 110/171/73 111/172/9 112/173/37
f 111/172/9 110/171/73 109/174/74
f 111/172/9 109/174/74 113/175/75
f 94/176/25 53/177/25 92/178/25
f 53/177/32 94/176/25 54/179/33
f 114/180/76 115/181/31 116/182/3
f 115/181/31 114/180/76 117/183/77
f 117/184/77 114/185/76 118/186/78
f 36/36/17 16/16/9 70/107/49
f 58/90/37 70/107/49 16/16/9
f 119/187/79 70/107/49 58/90/37
f 4/4/1 20/20/11 51/83/30
f 60/92/39 51/83/30 20/20/11
f 70/188/49 102/189/2 98/190/2
f 102/189/2 70/188/49 119/191/79
f 118/192/20 61/193/40 62/194/41
f 61/193/40 118/192/20 114/195/20
f 76/196/55 120/197/72 80/198/72
f 120/197/72 76/196/55 121/199/72
f 121/199/72 76/196/55 56/200/35
f 121/199/72 56/200/35 103/201/72
f 103/201/72 56/200/35 49/202/72
f 49/202/28 56/200/35 57/203/36
f 101/148/15 122/204/44 99/146/45
f 122/204/44 101/148/15 123/205/14
f 118/206/78 89/207/53 117/208/77
f 89/207/53 118/206/78 87/209/22
f 124/210/72 93/211/63 125/212/72
f 97/213/65 125/212/72 93/211/63
f 126/214/72 125/212/72 97/213/65
f 127/215/72 126/214/72 97/213/65
f 128/216/80 127/215/72 97/213/65
f 129/217/72 127/215/72 128/216/80
f 130/218/72 129/217/72 128/216/80
f 110/219/73 130/218/72 128/216/80
f 131/220/72 130/218/72 110/219/73
f 112/221/37 131/220/72 110/219/73
f 132/222/72 131/220/72 112/221/37
f 133/223/72 132/222/72 112/221/37
f 134/224/38 133/223/72 112/221/37
f 135/225/72 133/223/72 134/224/38
f 136/226/72 135/225/72 134/224/38
f 137/227/81 136/226/72 134/224/38
f 138/228/72 136/226/72 137/227/81
f 139/229/72 138/228/72 137/227/81
f 137/227/81 117/230/77 139/229/72
f 139/229/72 117/230/77 140/231/72
f 138/228/72 140/231/72 136/226/72
f 139/229/72 140/231/72 138/228/72
f 140/231/72 117/230/77 141/232/72
f 140/231/72 141/232/72 136/226/72
f 117/230/77 89/233/53 141/232/72
f 141/232/72 89/233/53 142/234/72
f 136/226/72 142/234/72 135/225/72
f 141/232/72 142/234/72 136/226/72
f 142/234/72 89/233/53 143/235/72
f 133/223/72 143/235/72 132/222/72
f 135/225/72 143/235/72 133/223/72
f 142/234/72 143/235/72 135/225/72
f 89/233/53 88/236/52 143/235/72
f 143/235/72 88/236/52 144/237/72
f 143/235/72 144/237/72 132/222/72
f 144/237/72 88/236/52 145/238/72
f 88/236/52 100/239/67 145/238/72
f 145/238/72 100/239/67 146/240/72
f 100/239/67 99/241/45 146/240/72
f 146/240/72 99/241/45 147/242/72
f 147/242/72 99/241/45 148/243/72
f 99/241/45 122/244/44 148/243/72
f 148/243/72 122/244/44 149/245/72
f 149/245/72 122/244/44 150/246/72
f 122/244/44 151/247/82 150/246/72
f 150/246/72 151/247/82 124/210/72
f 124/210/72 151/247/82 93/211/63
f 151/247/82 152/248/35 93/211/63
f 93/211/63 152/248/35 91/249/39
f 152/248/35 153/250/36 91/249/39
f 91/249/39 153/250/36 84/251/30
f 82/252/59 84/251/30 153/250/36
f 124/210/72 125/212/72 150/246/72
f 126/214/72 150/246/72 125/212/72
f 149/245/72 150/246/72 126/214/72
f 127/215/72 149/245/72 126/214/72
f 148/243/72 149/245/72 127/215/72
f 147/242/72 148/243/72 127/215/72
f 129/217/72 147/242/72 127/215/72
f 130/218/72 147/242/72 129/217/72
f 146/240/72 147/242/72 130/218/72
f 131/220/72 146/240/72 130/218/72
f 145/238/72 146/240/72 131/220/72
f 144/237/72 145/238/72 131/220/72
f 132/222/72 144/237/72 131/220/72
f 154/253/47 117/230/77 137/227/81
f 115/254/31 117/230/77 154/253/47
f 107/255/34 115/254/31 154/253/47
f 155/256/42 107/255/34 154/253/47
f 106/257/71 107/255/34 155/256/42
f 90/135/21 100/147/67 88/133/52
f 100/147/67 90/135/21 98/145/66
f 152/258/35 156/259/6 153/260/36
f 156/259/6 152/258/35 157/261/7
f 55/262/34 85/263/72 67/264/46
f 85/263/72 55/262/34 52/265/31
f 85/263/72 52/265/31 54/266/33
f 85/263/72 54/266/72 83/267/72
f 83/267/72 54/266/72 95/268/72
f 95/268/72 54/266/72 94/269/72
f 123/205/14 151/270/82 122/204/44
f 151/270/82 123/205/14 158/271/83
f 158/271/83 123/205/14 159/272/84
f 153/260/36 86/273/61 82/274/59
f 86/273/61 153/260/36 156/259/6
f 90/275/72 70/276/72 98/277/72
f 70/276/49 90/275/72 69/278/48
f 69/278/48 90/275/72 87/279/72
f 69/278/48 87/279/72 75/280/72
f 75/280/72 87/279/72 118/281/72
f 75/280/54 118/281/72 62/282/41
f 134/283/38 80/121/85 137/284/81
f 80/121/85 134/283/38 160/285/8
f 80/121/85 160/285/8 81/124/86
f 112/173/37 160/285/8 134/283/38
f 160/285/8 112/173/37 111/172/9
f 113/286/13 78/287/57 79/288/58
f 78/287/57 113/286/13 109/289/13
f 86/290/72 63/291/42 64/292/43
f 63/291/42 86/290/72 68/293/47
f 68/293/47 86/290/72 71/294/50
f 71/294/50 86/290/72 156/295/72
f 71/294/50 156/295/72 157/296/72
f 71/294/50 157/296/72 158/297/72
f 116/182/3 107/162/34 105/158/5
f 107/162/34 116/182/3 115/181/31
f 72/298/51 158/299/4 159/300/4
f 158/299/4 72/298/51 71/301/50
f 151/302/82 157/261/7 152/258/35
f 157/261/7 151/302/82 158/303/83
f 120/304/16 137/305/81 80/306/85
f 137/305/81 120/304/16 154/307/47
f 103/159/69 155/308/42 121/309/12
f 155/308/42 103/159/69 106/161/71
f 121/309/12 154/307/47 120/304/16
f 154/307/47 121/309/12 155/308/42
f 97/143/65 108/310/19 128/311/80
f 108/310/19 97/143/65 96/142/23
f 84/127/30 95/140/11 91/136/39
f 95/140/11 84/127/30 83/126/1
f 159/312/72 59/313/38 72/314/51
f 59/313/38 159/312/72 123/315/72
f 59/313/38 123/315/72 58/316/37
f 58/316/37 123/315/72 101/317/72
f 58/316/37 101/317/72 119/318/79
f 119/318/79 101/317/72 102/319/72
f 128/311/80 109/174/74 110/171/73
f 109/174/74 128/311/80 108/310/19
f 66/320/45 113/321/72 79/322/58
f 113/321/72 66/320/45 111/323/72
f 111/323/72 66/320/45 160/324/72
f 160/324/72 66/320/45 65/325/44
f 160/324/72 65/325/44 81/326/72
f 81/326/72 65/325/44 77/327/56
f 116/328/72 61/329/72 114/330/72
f 61/329/72 116/328/72 105/331/72
f 61/329/40 105/331/72 60/332/39
f 60/332/39 105/331/72 104/333/72
f 60/332/39 104/333/72 50/334/29
f 60/332/39 50/334/29 51/335/30
