# Blender v2.92.0 OBJ File: 'kenney_OGConvert.blend'
# www.blender.org
o towerSquare_sampleB
v 0.435000 0.320000 0.435000
v 0.500000 0.200000 0.245000
v 0.435000 0.320000 0.245000
v 0.500000 0.200000 0.500000
v 0.500000 0.200000 -0.190000
v 0.500000 0.000000 -0.500000
v 0.500000 0.200000 -0.500000
v 0.500000 0.000000 -0.190000
v -0.217500 0.320000 0.435000
v -0.500000 0.200000 0.500000
v -0.217500 0.200000 0.500000
v -0.435000 0.320000 0.435000
v -0.500000 -0.000000 0.500000
v -0.500000 0.200000 0.245000
v -0.500000 -0.000000 0.245000
v -0.500000 0.200000 -0.190000
v -0.435000 0.320000 -0.435000
v -0.500000 0.200000 -0.500000
v -0.435000 0.320000 -0.190000
v -0.500000 0.000000 -0.190000
v -0.500000 0.000000 -0.500000
v 0.217500 -0.000000 0.500000
v 0.500000 -0.000000 0.500000
v 0.217500 0.200000 0.500000
v -0.217500 0.200000 -0.500000
v -0.217500 0.320000 -0.435000
v 0.500000 -0.000000 0.245000
v -0.217500 0.500000 0.435000
v -0.435000 0.500000 0.435000
v -0.217500 -0.000000 0.500000
v 0.435000 0.500000 0.435000
v 0.435000 0.500000 0.245000
v -0.435000 0.500000 -0.435000
v -0.435000 0.500000 -0.190000
v -0.217500 0.000000 -0.500000
v -0.435000 0.320000 0.245000
v 0.217500 0.500000 -0.435000
v 0.435000 0.320000 -0.435000
v 0.217500 0.320000 -0.435000
v 0.435000 0.500000 -0.435000
v 0.217500 0.000000 -0.500000
v 0.217500 0.200000 -0.500000
v 0.217500 0.320000 0.435000
v -0.217500 0.000000 -0.435000
v -0.217500 0.160000 -0.435000
v 0.217500 0.160000 0.435000
v 0.217500 -0.000000 0.435000
v 0.435000 0.500000 -0.190000
v 0.435000 0.320000 -0.190000
v -0.435000 -0.000000 0.245000
v -0.435000 0.160000 0.245000
v 0.217500 0.000000 -0.435000
v 0.217500 0.160000 -0.435000
v 0.435000 0.000000 -0.190000
v 0.435000 0.160000 -0.190000
v 0.435000 -0.000000 0.245000
v -0.217500 -0.000000 0.435000
v -0.435000 0.000000 -0.190000
v 0.435000 0.160000 0.245000
v 0.217500 0.500000 0.435000
v -0.435000 0.500000 0.245000
v -0.435000 0.160000 -0.190000
v -0.217500 0.160000 0.435000
v -0.217500 0.500000 -0.435000
v -0.500000 1.000000 0.250000
v -0.399556 0.900000 0.250000
v -0.500000 0.900000 0.250000
v -0.399556 1.000000 0.250000
v -0.399556 1.000000 -0.250000
v -0.500000 0.900000 -0.250000
v -0.399556 0.900000 -0.250000
v -0.500000 1.000000 -0.250000
v -0.250000 1.000000 -0.399556
v -0.250000 0.900000 -0.500000
v -0.250000 1.000000 -0.500000
v -0.250000 0.900000 -0.399556
v 0.399556 0.830000 0.399556
v 0.399556 0.900000 0.250000
v 0.399556 0.830000 0.250000
v 0.399556 1.000000 0.250000
v 0.399556 1.000000 0.399556
v 0.435000 0.680000 0.435000
v -0.435000 0.590000 0.435000
v 0.435000 0.590000 0.435000
v -0.435000 0.680000 0.435000
v 0.250000 0.900000 -0.399556
v 0.250000 1.000000 -0.500000
v 0.250000 0.900000 -0.500000
v 0.250000 1.000000 -0.399556
v -0.399556 0.830000 -0.399555
v -0.399556 1.000000 -0.399555
v -0.399556 0.830000 -0.250000
v -0.435000 0.680000 -0.435000
v -0.435000 0.590000 -0.435000
v 0.399556 1.000000 -0.399556
v 0.250000 0.830000 -0.399556
v 0.399556 0.830000 -0.399556
v -0.399556 1.000000 0.399556
v -0.250000 0.830000 0.399556
v -0.399556 0.830000 0.399556
v -0.250000 0.900000 0.399556
v -0.250000 1.000000 0.399556
v -0.500000 1.000000 0.500000
v -0.250000 1.000000 0.500000
v 0.500000 1.000000 -0.250000
v 0.500000 0.800000 -0.500000
v 0.500000 1.000000 -0.500000
v 0.500000 0.800000 -0.250000
v 0.500000 0.900000 -0.250000
v 0.500000 0.800000 0.500000
v -0.500000 0.800000 0.500000
v 0.250000 0.800000 0.500000
v -0.250000 0.800000 0.500000
v 0.500000 1.000000 0.500000
v 0.250000 0.900000 0.500000
v 0.250000 1.000000 0.500000
v 0.435000 0.680000 -0.435000
v 0.500000 0.800000 0.250000
v -0.500000 0.800000 -0.250000
v -0.500000 0.800000 -0.500000
v -0.500000 0.800000 0.250000
v 0.435000 0.590000 -0.435000
v 0.399556 1.000000 -0.250000
v 0.399556 0.900000 -0.250000
v 0.500000 0.900000 0.250000
v 0.500000 1.000000 0.250000
v -0.250000 0.800000 -0.500000
v 0.250000 0.800000 -0.500000
v -0.500000 1.000000 -0.500000
v 0.250000 1.000000 0.399556
v -0.250000 0.900000 0.500000
v 0.250000 0.900000 0.399556
v -0.329133 1.050000 -0.329133
v 0.299212 1.000000 -0.299212
v -0.299212 1.000000 -0.299212
v 0.329133 1.050000 -0.329133
v -0.399556 0.830000 0.250000
v 0.399556 0.830000 -0.250000
v 0.329133 1.050000 0.329133
v 0.299212 1.000000 0.299212
v 0.250000 0.830000 0.399556
v -0.299212 1.000000 0.299212
v -0.329133 1.050000 0.329133
v -0.250000 0.830000 -0.399556
v 0.329133 1.100000 0.329133
v -0.329133 1.100000 0.329133
v 0.329133 1.100000 -0.329133
v -0.329133 1.100000 -0.329133
v -0.039496 1.660000 -0.039496
v 0.039496 1.660000 0.039496
v 0.039496 1.660000 -0.039496
v -0.039496 1.660000 0.039496
v 0.299212 0.830000 -0.299212
v -0.299212 0.830000 -0.299212
v -0.299212 0.830000 0.299212
v 0.299212 0.830000 0.299212
vt 0.023456 0.097780
vt 0.078834 0.062839
vt 0.078834 0.097780
vt 0.004511 0.062839
vt 0.205622 0.062839
vt 0.295976 0.004546
vt 0.295976 0.062839
vt 0.205622 0.004546
vt 0.398529 0.514124
vt 0.363285 0.596463
vt 0.363285 0.514124
vt 0.398529 0.577518
vt 0.596022 0.295976
vt 0.537817 0.221652
vt 0.596022 0.221652
vt 0.537817 0.295976
vt 0.537817 0.094865
vt 0.501853 0.023456
vt 0.537817 0.004511
vt 0.501853 0.094865
vt 0.596022 0.094865
vt 0.596022 0.004511
vt 0.363285 0.304998
vt 0.304998 0.387337
vt 0.304998 0.304998
vt 0.363285 0.387337
vt 0.144127 0.577553
vt 0.179372 0.514159
vt 0.179372 0.596498
vt 0.144127 0.514159
vt 0.078834 0.004546
vt 0.004511 0.004546
vt 0.450987 0.514124
vt 0.450987 0.577518
vt 0.304998 0.514124
vt 0.304998 0.596463
vt 0.023456 0.150243
vt 0.078834 0.150243
vt 0.449468 0.023456
vt 0.449468 0.094865
vt 0.237659 0.514159
vt 0.237659 0.596498
vt 0.501853 0.221652
vt 0.501853 0.277031
vt 0.091669 0.387372
vt 0.144127 0.323978
vt 0.144127 0.387372
vt 0.091669 0.323978
vt 0.237659 0.387372
vt 0.179372 0.305033
vt 0.237659 0.305033
vt 0.179372 0.387372
vt 0.398529 0.323943
vt 0.398529 0.387337
vt 0.295976 0.605484
vt 0.277031 0.698753
vt 0.277031 0.640460
vt 0.295976 0.698753
vt 0.294000 0.326071
vt 0.294000 0.326071
vt 0.294000 0.326071
vt 0.032478 0.950648
vt 0.051423 0.904084
vt 0.051423 0.950648
vt 0.051423 0.857520
vt 0.032478 0.892443
vt 0.205622 0.150243
vt 0.277031 0.097780
vt 0.277031 0.150243
vt 0.205622 0.097780
vt 0.669657 0.892457
vt 0.688602 0.950744
vt 0.669657 0.950744
vt 0.688602 0.904114
vt 0.688602 0.857485
vt 0.079390 0.857520
vt 0.060445 0.915725
vt 0.060445 0.857520
vt 0.079390 0.950648
vt 0.284978 0.326071
vt 0.284978 0.326071
vt 0.284978 0.326071
vt 0.277031 0.845037
vt 0.295976 0.903324
vt 0.277031 0.903324
vt 0.295976 0.856695
vt 0.295976 0.810065
vt 0.765315 0.596463
vt 0.847654 0.522139
vt 0.847654 0.596463
vt 0.828709 0.522139
vt 0.828709 0.395352
vt 0.765315 0.304998
vt 0.847654 0.304998
vt 0.847654 0.395352
vt 0.294000 0.335093
vt 0.294000 0.335093
vt 0.294000 0.335093
vt 0.972858 0.277031
vt 0.972858 0.004511
vt 0.972858 0.258086
vt 0.629506 0.577518
vt 0.756294 0.323943
vt 0.756294 0.577518
vt 0.629506 0.323943
vt 0.547167 0.596463
vt 0.629506 0.596463
vt 0.629506 0.304998
vt 0.566113 0.522139
vt 0.547167 0.522139
vt 0.566113 0.395352
vt 0.547167 0.304998
vt 0.547167 0.395352
vt 0.889485 0.902909
vt 0.870540 0.856279
vt 0.889485 0.856279
vt 0.870540 0.914566
vt 0.889485 0.949539
vt 0.450987 0.323943
vt 0.450987 0.387337
vt 0.449468 0.221652
vt 0.449468 0.277031
vt 0.004511 0.904149
vt 0.023456 0.950779
vt 0.004511 0.950779
vt 0.023456 0.892492
vt 0.004511 0.857520
vt 0.277031 0.766068
vt 0.295976 0.754409
vt 0.295976 0.801044
vt 0.295976 0.707775
vt 0.277031 0.707775
vt 0.091669 0.577553
vt 0.091669 0.514159
vt 0.681380 0.275722
vt 0.710524 0.246446
vt 0.710524 0.275722
vt 0.681380 0.246446
vt 0.748689 0.246446
vt 0.719545 0.275722
vt 0.719545 0.246446
vt 0.748689 0.275722
vt 0.634190 0.275722
vt 0.605044 0.246446
vt 0.634190 0.246446
vt 0.605044 0.275722
vt 0.964716 0.494321
vt 0.944344 0.450730
vt 0.964716 0.450730
vt 0.915241 0.450730
vt 0.915241 0.494321
vt 0.503446 0.323943
vt 0.477217 0.577518
vt 0.477217 0.323943
vt 0.503446 0.577518
vt 0.885778 0.576208
vt 0.856676 0.546932
vt 0.885778 0.546932
vt 0.856676 0.576208
vt 0.246681 0.509336
vt 0.290271 0.459787
vt 0.290271 0.509336
vt 0.246681 0.459787
vt 0.284978 0.335093
vt 0.284978 0.335093
vt 0.284978 0.335093
vt 0.423276 0.277031
vt 0.397084 0.023456
vt 0.423276 0.023456
vt 0.397084 0.277031
vt 0.906220 0.304998
vt 0.856676 0.348588
vt 0.856676 0.304998
vt 0.877076 0.348588
vt 0.906220 0.348588
vt 0.907647 0.838398
vt 0.957192 0.794807
vt 0.957192 0.838398
vt 0.936791 0.794807
vt 0.907647 0.794807
vt 0.779631 0.856279
vt 0.750355 0.899870
vt 0.750355 0.856279
vt 0.779631 0.929146
vt 0.706764 0.929146
vt 0.706764 0.899870
vt 0.223110 0.296011
vt 0.295976 0.237718
vt 0.295976 0.296011
vt 0.223110 0.237718
vt 0.284978 0.344114
vt 0.284978 0.344114
vt 0.284978 0.344114
vt 0.538146 0.304998
vt 0.538146 0.596463
vt 0.294000 0.344114
vt 0.294000 0.344114
vt 0.294000 0.344114
vt 0.284978 0.317049
vt 0.284978 0.305033
vt 0.284978 0.313044
vt 0.263681 0.605520
vt 0.205394 0.678386
vt 0.205394 0.605520
vt 0.234538 0.678386
vt 0.263681 0.678386
vt 0.277031 0.202707
vt 0.023456 0.202707
vt 0.077377 0.237718
vt 0.004511 0.237718
vt 0.363203 0.077377
vt 0.363203 0.004511
vt 0.363203 0.223110
vt 0.363203 0.295976
vt 0.039211 0.577553
vt 0.065440 0.323978
vt 0.065440 0.577553
vt 0.039211 0.323978
vt 0.587769 0.930351
vt 0.617045 0.901075
vt 0.660635 0.930351
vt 0.587769 0.857485
vt 0.617045 0.857485
vt 0.660635 0.901075
vt 0.786854 0.246446
vt 0.757710 0.275722
vt 0.757710 0.246446
vt 0.786854 0.275722
vt 0.795875 0.275722
vt 0.825019 0.246446
vt 0.825019 0.275722
vt 0.795875 0.246446
vt 0.004511 0.596498
vt 0.004511 0.305033
vt 0.294000 0.353136
vt 0.294000 0.353136
vt 0.294000 0.353136
vt 0.295976 0.305033
vt 0.295976 0.317049
vt 0.295976 0.309038
vt 0.277031 0.176475
vt 0.023456 0.176475
vt 0.334100 0.223110
vt 0.304998 0.223110
vt 0.304998 0.295976
vt 0.846979 0.295976
vt 0.905266 0.223110
vt 0.905266 0.295976
vt 0.876122 0.223110
vt 0.846979 0.223110
vt 0.861519 0.929146
vt 0.832242 0.856279
vt 0.861519 0.856279
vt 0.832242 0.899870
vt 0.788652 0.899870
vt 0.788652 0.929146
vt 0.578747 0.886761
vt 0.505881 0.857485
vt 0.578747 0.857485
vt 0.535157 0.886761
vt 0.505881 0.930351
vt 0.535157 0.930351
vt 0.672358 0.275722
vt 0.643212 0.246446
vt 0.672358 0.246446
vt 0.643212 0.275722
vt 0.117514 0.886796
vt 0.088411 0.857520
vt 0.117514 0.857520
vt 0.088411 0.886796
vt 0.304998 0.004511
vt 0.304998 0.077377
vt 0.284978 0.353136
vt 0.284978 0.353136
vt 0.284978 0.353136
vt 0.697743 0.669475
vt 0.514602 0.655029
vt 0.689022 0.655029
vt 0.505881 0.669475
vt 0.234538 0.824118
vt 0.205394 0.896985
vt 0.205394 0.824118
vt 0.263681 0.896985
vt 0.263681 0.824118
vt 0.963836 0.193834
vt 0.934690 0.150243
vt 0.963836 0.150243
vt 0.914287 0.150243
vt 0.914287 0.193834
vt 0.290271 0.518358
vt 0.246681 0.567832
vt 0.246681 0.518358
vt 0.290271 0.567832
vt 0.294000 0.362158
vt 0.294000 0.362158
vt 0.294000 0.362158
vt 0.898626 0.783119
vt 0.715485 0.797709
vt 0.706764 0.783119
vt 0.889905 0.797709
vt 0.876122 0.077377
vt 0.905266 0.004511
vt 0.905266 0.077377
vt 0.846979 0.004511
vt 0.846979 0.077377
vt 0.936791 0.649075
vt 0.957192 0.605484
vt 0.957192 0.649075
vt 0.907647 0.605484
vt 0.907647 0.649075
vt 0.004511 0.784508
vt 0.187652 0.798954
vt 0.013232 0.798954
vt 0.196372 0.784508
vt 0.877076 0.494321
vt 0.856676 0.537911
vt 0.856676 0.494321
vt 0.906220 0.537911
vt 0.906220 0.494321
vt 0.313719 0.654959
vt 0.496859 0.669030
vt 0.304998 0.669030
vt 0.488138 0.654959
vt 0.004511 0.769936
vt 0.196372 0.769936
vt 0.898626 0.768546
vt 0.706764 0.768546
vt 0.697743 0.684047
vt 0.505881 0.684047
vt 0.304998 0.683582
vt 0.496859 0.683582
vt 0.149559 0.857520
vt 0.126536 0.880543
vt 0.126536 0.857520
vt 0.149559 0.880543
vt 0.004511 0.296011
vt 0.077377 0.266865
vt 0.077377 0.296011
vt 0.088930 0.605520
vt 0.111953 0.605520
vt 0.613324 0.848463
vt 0.590300 0.848463
vt 0.389417 0.851196
vt 0.412440 0.851196
vt 0.791183 0.605484
vt 0.814207 0.605484
vt 0.351899 0.387337
vt 0.305270 0.514124
vt 0.305270 0.387337
vt 0.351899 0.514124
vt 0.594981 0.221652
vt 0.548417 0.094865
vt 0.594981 0.094865
vt 0.548417 0.221652
vt 0.078834 0.051145
vt 0.205622 0.004511
vt 0.205622 0.051145
vt 0.078834 0.004511
vt 0.190757 0.514159
vt 0.237387 0.387372
vt 0.237387 0.514159
vt 0.190757 0.387372
vt 0.648634 0.004511
vt 0.605044 0.048101
vt 0.605044 0.004511
vt 0.634290 0.033758
vt 0.605044 0.193834
vt 0.605044 0.237424
vt 0.808710 0.033758
vt 0.794367 0.004511
vt 0.837957 0.004511
vt 0.808710 0.208177
vt 0.837957 0.048101
vt 0.634290 0.208177
vt 0.648634 0.237424
vt 0.794367 0.237424
vt 0.837957 0.237424
vt 0.837957 0.193834
vt 0.284978 0.362158
vt 0.284978 0.362158
vt 0.284978 0.362158
vt 0.294000 0.371179
vt 0.294000 0.371179
vt 0.294000 0.371179
vt 0.715485 0.847258
vt 0.889905 0.847258
vt 0.275957 0.305033
vt 0.246681 0.450765
vt 0.246681 0.305033
vt 0.275957 0.450765
vt 0.187652 0.848498
vt 0.013232 0.848498
vt 0.975221 0.993152
vt 0.945945 0.847419
vt 0.975221 0.847419
vt 0.945945 0.993152
vt 0.223110 0.266865
vt 0.914287 0.004511
vt 0.934690 0.004511
vt 0.334100 0.077377
vt 0.488138 0.605485
vt 0.313719 0.605485
vt 0.936924 0.847419
vt 0.907648 0.993152
vt 0.907648 0.847419
vt 0.936924 0.993152
vt 0.995489 0.751217
vt 0.966213 0.605485
vt 0.995489 0.605485
vt 0.966213 0.751217
vt 0.944344 0.304998
vt 0.964716 0.304998
vt 0.514602 0.605485
vt 0.689022 0.605485
vn 0.8793 0.4763 -0.0000
vn 1.0000 -0.0000 -0.0000
vn 0.0000 0.4763 0.8793
vn -1.0000 -0.0000 0.0000
vn -0.8793 0.4763 0.0000
vn 0.0000 0.0000 1.0000
vn -0.0000 0.4763 -0.8793
vn -0.0143 -0.8659 0.4999
vn 0.0000 0.0000 -1.0000
vn 0.0000 1.0000 0.0000
vn -0.0000 -1.0000 -0.0000
vn 0.7766 0.0469 0.6283
vn -1.0000 -0.0003 -0.0000
vn 1.0000 0.0003 -0.0000
vn 0.0000 -0.4763 0.8793
vn 0.0000 0.0327 -0.9995
vn 0.8793 -0.4763 -0.0000
vn -0.8793 -0.4763 0.0000
vn -0.0000 -0.4763 -0.8793
vn -0.0000 0.8192 0.5735
vn 0.0721 0.0000 -0.9974
vn -0.0000 -0.5135 -0.8581
vn -0.0763 0.8635 0.4985
vn 0.8581 -0.5135 -0.0000
vn 0.0000 -0.5135 0.8581
vn -0.8581 -0.5135 0.0000
vn 0.0000 0.4594 0.8882
vn -0.0000 0.4594 -0.8882
vn -0.8882 0.4594 0.0000
vn 0.8882 0.4594 -0.0000
s 1
f 1/1/1 2/2/1 3/3/1
f 2/2/1 1/1/1 4/4/1
f 5/5/2 6/6/2 7/7/2
f 6/6/2 5/5/2 8/8/2
f 9/9/3 10/10/3 11/11/3
f 10/10/3 9/9/3 12/12/3
f 13/13/4 14/14/4 15/15/4
f 14/14/4 13/13/4 10/16/4
f 16/17/5 17/18/5 18/19/5
f 17/18/5 16/17/5 19/20/5
f 20/21/4 18/19/4 21/22/4
f 18/19/4 20/21/4 16/17/4
f 4/23/6 22/24/6 23/25/6
f 22/24/6 4/23/6 24/26/6
f 17/27/7 25/28/7 18/29/7
f 25/28/7 17/27/7 26/30/7
f 4/4/2 27/31/2 2/2/2
f 27/31/2 4/4/2 23/32/2
f 28/33/6 12/12/6 9/9/6
f 12/12/6 28/33/6 29/34/6
f 30/35/6 10/10/6 13/36/6
f 10/10/6 30/35/6 11/11/6
f 31/37/2 3/3/8 32/38/2
f 3/3/8 31/37/2 1/1/2
f 19/20/4 33/39/4 17/18/4
f 33/39/4 19/20/4 34/40/4
f 18/29/9 35/41/9 21/42/9
f 35/41/9 18/29/9 25/28/9
f 10/16/5 36/43/5 14/14/5
f 36/43/5 10/16/5 12/44/5
f 37/45/9 38/46/9 39/47/9
f 38/46/9 37/45/9 40/48/9
f 41/49/9 7/50/9 6/51/9
f 7/50/9 41/49/9 42/52/9
f 1/53/3 24/26/3 4/23/3
f 24/26/3 1/53/3 43/54/3
f 26/55/2 35/56/2 25/57/2
f 35/56/2 26/55/2 44/58/2
f 44/59/2 26/60/2 45/61/10
f 22/62/4 46/63/4 47/64/4
f 46/63/4 22/62/4 43/65/4
f 43/65/4 22/62/4 24/66/4
f 48/67/2 38/68/2 40/69/2
f 38/68/2 48/67/2 49/70/2
f 14/71/9 50/72/9 15/73/9
f 50/72/9 14/71/9 51/74/9
f 51/74/9 14/71/9 36/75/9
f 52/76/4 42/77/4 41/78/4
f 42/77/4 52/76/4 39/79/4
f 39/80/4 52/81/4 53/82/11
f 5/83/6 54/84/6 8/85/6
f 54/84/6 5/83/6 55/86/6
f 55/86/6 5/83/6 49/87/6
f 22/88/11 27/89/11 23/90/11
f 27/89/11 22/88/11 56/91/11
f 56/91/11 22/88/11 54/92/11
f 41/93/11 54/92/11 22/88/11
f 6/94/11 54/92/11 41/93/11
f 54/92/11 6/94/11 8/95/11
f 41/96/11 22/97/11 47/98/10
f 41/99/11 47/100/10 52/101/12
f 57/102/11 52/103/12 47/104/10
f 52/103/12 57/102/11 44/105/11
f 57/102/11 13/106/11 44/105/11
f 13/106/11 57/102/11 30/107/11
f 44/105/11 13/106/11 35/108/11
f 35/108/11 13/106/11 50/109/11
f 50/109/11 13/106/11 15/110/11
f 58/111/11 35/108/11 50/109/11
f 35/108/11 58/111/11 21/112/11
f 21/112/11 58/111/11 20/113/11
f 39/47/7 7/50/7 42/52/7
f 7/50/7 39/47/7 38/46/7
f 59/114/9 27/115/9 56/116/9
f 27/115/9 59/114/9 2/117/9
f 2/117/9 59/114/9 3/118/9
f 31/119/6 43/54/6 1/53/6
f 43/54/6 31/119/6 60/120/6
f 12/44/4 61/121/4 36/43/13
f 61/121/4 12/44/4 29/122/4
f 62/123/6 20/124/6 58/125/6
f 20/124/6 62/123/6 16/126/6
f 16/126/6 62/123/6 19/127/6
f 11/128/2 63/129/2 9/130/2
f 63/129/2 11/128/2 57/131/2
f 57/131/2 11/128/2 30/132/2
f 38/68/1 5/5/1 7/7/1
f 5/5/1 38/68/1 49/70/1
f 33/133/9 26/30/9 17/27/9
f 26/30/9 33/133/9 64/134/9
f 65/135/9 66/136/9 67/137/9
f 66/136/9 65/135/9 68/138/9
f 69/139/6 70/140/6 71/141/6
f 70/140/6 69/139/6 72/142/6
f 73/143/2 74/144/2 75/145/2
f 74/144/2 73/143/2 76/146/2
f 77/147/4 78/148/4 79/149/4
f 78/148/4 77/147/4 80/150/4
f 80/150/4 77/147/4 81/151/4
f 82/152/6 83/153/6 84/154/6
f 83/153/6 82/152/6 85/155/6
f 86/156/4 87/157/4 88/158/4
f 87/157/4 86/156/4 89/159/4
f 69/160/2 90/161/2 91/162/2
f 90/161/2 69/160/2 92/163/2
f 92/164/2 69/165/2 71/166/14
f 83/167/4 93/168/4 94/169/4
f 93/168/4 83/167/4 85/170/4
f 95/171/6 96/172/6 97/173/6
f 96/172/6 95/171/6 86/174/6
f 86/174/6 95/171/6 89/175/6
f 98/176/9 99/177/9 100/178/9
f 99/177/9 98/176/9 101/179/9
f 101/179/9 98/176/9 102/180/9
f 65/181/10 98/182/10 68/183/10
f 103/184/10 98/182/10 65/181/10
f 104/185/10 98/182/10 103/184/10
f 98/182/10 104/185/10 102/186/10
f 105/187/2 106/188/2 107/189/2
f 106/188/2 105/187/2 108/190/2
f 108/191/2 105/192/2 109/193/14
f 110/194/15 85/155/15 82/152/15
f 85/155/15 110/194/15 111/195/15
f 111/196/15 110/197/15 112/198/16
f 111/199/15 112/200/16 113/201/2
f 114/202/6 112/203/6 110/204/6
f 112/203/6 114/202/6 115/205/6
f 115/205/6 114/202/6 116/206/6
f 108/190/17 117/207/17 106/188/17
f 117/207/17 108/190/17 82/208/17
f 82/208/17 108/190/17 118/209/17
f 82/208/17 118/209/17 110/210/17
f 93/168/18 119/211/18 120/212/18
f 119/211/18 93/168/18 85/170/18
f 119/211/18 85/170/18 121/213/18
f 121/213/18 85/170/18 111/214/18
f 93/215/9 122/216/9 94/217/9
f 122/216/9 93/215/9 117/218/9
f 107/219/10 95/220/10 105/221/10
f 95/220/10 107/219/10 87/222/10
f 95/220/10 87/222/10 89/223/10
f 123/224/10 105/221/10 95/220/10
f 105/225/6 124/226/6 109/227/6
f 124/226/6 105/225/6 123/228/6
f 80/229/9 125/230/9 78/231/9
f 125/230/9 80/229/9 126/232/9
f 120/233/19 117/218/19 93/215/19
f 117/218/19 120/233/19 106/234/19
f 106/235/19 120/236/19 127/237/20
f 106/238/19 127/239/20 128/240/4
f 82/208/2 122/241/2 117/207/2
f 122/241/2 82/208/2 84/242/2
f 111/214/4 67/243/4 121/213/4
f 67/243/4 111/214/4 65/244/4
f 65/244/4 111/214/4 103/245/4
f 129/246/9 127/247/9 120/248/9
f 127/247/9 129/246/9 74/249/9
f 74/249/9 129/246/9 75/250/9
f 129/251/10 73/252/10 75/253/10
f 73/252/10 129/251/10 91/254/10
f 91/254/10 129/251/10 69/255/10
f 69/255/10 129/251/10 72/256/10
f 80/257/10 114/258/10 126/259/10
f 114/258/10 80/257/10 81/260/10
f 114/258/10 81/260/10 116/261/10
f 116/261/10 81/260/10 130/262/10
f 104/263/2 101/264/2 102/265/2
f 101/264/2 104/263/2 131/266/2
f 115/267/4 130/268/4 132/269/4
f 130/268/4 115/267/4 116/270/4
f 119/211/4 129/271/4 120/212/4
f 129/271/4 119/211/4 72/272/4
f 72/273/4 119/274/4 70/275/21
f 133/276/22 134/277/22 135/278/22
f 134/277/22 133/276/22 136/279/22
f 131/280/6 111/281/6 113/282/6
f 111/281/6 131/280/6 103/283/6
f 103/283/6 131/280/6 104/284/6
f 98/285/2 66/286/2 68/287/2
f 66/286/2 98/285/2 137/288/2
f 137/288/2 98/285/2 100/289/2
f 138/290/4 95/291/4 97/292/4
f 95/291/4 138/290/4 123/293/4
f 123/294/4 138/295/4 124/296/23
f 139/297/24 134/298/24 136/299/24
f 134/298/24 139/297/24 140/300/24
f 88/301/9 106/302/9 128/303/9
f 106/302/9 88/301/9 107/304/9
f 107/304/9 88/301/9 87/305/9
f 132/306/9 77/307/9 141/308/9
f 77/307/9 132/306/9 81/309/9
f 81/309/9 132/306/9 130/310/9
f 139/311/25 142/312/25 140/313/25
f 142/312/25 139/311/25 143/314/25
f 76/315/6 90/316/6 144/317/6
f 90/316/6 76/315/6 91/318/6
f 91/318/6 76/315/6 73/319/6
f 135/320/26 143/321/26 133/322/26
f 143/321/26 135/320/26 142/323/26
f 145/324/6 143/314/6 139/311/6
f 143/314/6 145/324/6 146/325/6
f 145/326/2 136/299/2 147/327/2
f 136/299/2 145/326/2 139/297/2
f 148/328/9 136/279/9 133/276/9
f 136/279/9 148/328/9 147/329/9
f 143/321/4 148/330/4 133/322/4
f 148/330/4 143/321/4 146/331/4
f 149/332/10 150/333/10 151/334/10
f 150/333/10 149/332/10 152/335/10
f 114/336/2 125/337/2 126/338/2
f 125/337/2 114/336/2 118/209/2
f 118/209/2 114/336/2 110/210/2
f 150/339/27 146/325/27 145/324/27
f 146/325/27 150/339/27 152/340/27
f 149/341/28 147/329/28 148/328/28
f 147/329/28 149/341/28 151/342/28
f 146/331/29 149/343/29 148/330/29
f 149/343/29 146/331/29 152/344/29
f 151/345/30 145/326/30 147/327/30
f 145/326/30 151/345/30 150/346/30
f 46/347/6 57/348/6 47/349/6
f 57/348/6 46/347/6 63/350/6
f 50/351/4 62/352/4 58/353/4
f 62/352/4 50/351/4 51/354/4
f 59/355/2 54/356/2 55/357/2
f 54/356/2 59/355/2 56/358/2
f 45/359/9 52/360/9 44/361/9
f 52/360/9 45/359/9 53/362/9
f 96/363/10 138/364/10 97/365/10
f 138/364/10 96/363/10 153/366/10
f 138/364/10 153/366/10 79/367/10
f 79/367/10 153/366/10 77/368/10
f 153/366/10 96/363/10 154/369/10
f 154/369/10 96/363/10 144/370/10
f 154/369/10 144/370/10 90/371/10
f 154/369/10 90/371/10 155/372/10
f 155/372/10 90/371/10 92/373/10
f 156/374/10 77/368/10 153/366/10
f 77/368/10 156/374/10 141/375/10
f 141/375/10 156/374/10 155/372/10
f 141/375/10 155/372/10 99/376/10
f 99/376/10 155/372/10 100/377/10
f 100/377/10 155/372/10 137/378/10
f 137/378/10 155/372/10 92/373/10
f 84/154/6 60/120/6 31/119/6
f 60/120/6 84/154/6 28/33/6
f 28/33/6 84/154/6 29/34/6
f 29/34/6 84/154/6 83/153/6
f 9/9/6 60/120/6 28/33/6
f 9/9/6 43/54/6 60/120/6
f 63/350/6 43/54/6 9/9/6
f 43/54/6 63/350/6 46/347/6
f 51/354/4 19/20/4 62/352/4
f 19/20/4 51/354/4 34/40/4
f 61/121/4 34/40/4 51/354/4
f 83/167/4 34/40/4 61/121/4
f 94/169/4 34/40/4 83/167/4
f 34/40/4 94/169/4 33/39/4
f 61/379/4 51/380/4 36/381/13
f 83/167/4 61/121/4 29/122/4
f 84/242/2 40/69/2 122/241/2
f 40/69/2 84/242/2 48/67/2
f 48/67/2 84/242/2 49/70/2
f 49/70/2 84/242/2 32/38/2
f 49/70/2 32/38/2 55/357/2
f 32/38/2 84/242/2 31/37/2
f 32/38/2 59/355/2 55/357/2
f 59/382/2 32/383/2 3/384/8
f 140/300/2 153/385/2 134/298/2
f 153/385/2 140/300/2 156/386/2
f 70/387/10 66/388/10 71/389/10
f 66/388/10 70/387/10 67/390/10
f 101/179/9 141/308/9 99/177/9
f 141/308/9 101/179/9 132/306/9
f 140/313/6 155/391/6 156/392/6
f 155/391/6 140/313/6 142/312/6
f 101/393/10 115/394/10 132/395/10
f 115/394/10 101/393/10 131/396/10
f 125/337/2 108/190/2 109/397/14
f 108/190/2 125/337/2 118/209/2
f 66/286/2 92/398/2 71/399/14
f 92/398/2 66/286/2 137/288/2
f 115/205/6 113/282/6 112/203/6
f 113/282/6 115/205/6 131/280/6
f 94/217/9 64/134/9 33/133/9
f 64/134/9 94/217/9 37/45/9
f 37/45/9 94/217/9 40/48/9
f 40/48/9 94/217/9 122/216/9
f 39/47/9 64/134/9 37/45/9
f 39/47/9 26/30/9 64/134/9
f 53/362/9 26/30/9 39/47/9
f 26/30/9 53/362/9 45/359/9
f 121/213/4 70/400/21 119/211/4
f 70/400/21 121/213/4 67/243/4
f 155/401/4 135/320/4 154/402/4
f 135/320/4 155/401/4 142/323/4
f 124/403/10 125/404/10 109/405/10
f 125/404/10 124/403/10 78/406/10
f 74/407/10 86/408/10 88/409/10
f 86/408/10 74/407/10 76/410/10
f 79/149/4 124/411/23 138/412/4
f 124/411/23 79/149/4 78/148/4
f 135/278/9 153/413/9 154/414/9
f 153/413/9 135/278/9 134/277/9
f 86/174/6 144/317/6 96/172/6
f 144/317/6 86/174/6 76/315/6
f 74/249/9 128/303/9 127/247/9
f 128/303/9 74/249/9 88/301/9
