# Blender v2.92.0 OBJ File: 'OGConvert.blend'
# www.blender.org
o woodStructure
v 3.430000 3.240000 -3.240000
v 3.810000 3.240000 3.240000
v 3.810000 3.240000 -3.240000
v 3.430000 3.240000 3.240000
v 3.810000 2.480000 3.240000
v 3.430000 2.480000 -3.240000
v 3.810000 2.480000 -3.240000
v 3.430000 2.480000 3.240000
v -3.240000 2.480000 -3.430000
v 3.240000 2.480000 -3.810000
v 3.240000 2.480000 -3.430000
v -3.240000 2.480000 -3.810000
v -3.240000 3.240000 -3.810000
v 3.240000 3.240000 -3.430000
v 3.240000 3.240000 -3.810000
v -3.240000 3.240000 -3.430000
v -3.240000 2.480000 3.430000
v 3.240000 3.240000 3.430000
v 3.240000 2.480000 3.430000
v -3.240000 3.240000 3.430000
v 3.240000 3.240000 3.810000
v -3.240000 2.480000 3.810000
v 3.240000 2.480000 3.810000
v -3.240000 3.240000 3.810000
v -3.810000 2.480000 3.240000
v -3.810000 3.240000 -3.240000
v -3.810000 2.480000 -3.240000
v -3.810000 3.240000 3.240000
v -3.430000 3.240000 -3.240000
v -3.430000 2.480000 3.240000
v -3.430000 2.480000 -3.240000
v -3.430000 3.240000 3.240000
v -4.000000 4.000000 -4.000000
v -3.240000 4.000000 -3.240000
v -3.240000 4.000000 -4.000000
v -4.000000 4.000000 -3.240000
v -3.240000 0.000000 -4.000000
v -3.240000 0.000000 -3.240000
v -4.000000 0.000000 -4.000000
v -4.000000 0.000000 -3.240000
v -4.000000 4.000000 3.240000
v -3.240000 4.000000 4.000000
v -3.240000 4.000000 3.240000
v -4.000000 4.000000 4.000000
v -3.240000 -0.000000 3.240000
v -3.240000 -0.000000 4.000000
v -4.000000 -0.000000 4.000000
v -4.000000 -0.000000 3.240000
v 4.000000 4.000000 4.000000
v 3.240000 -0.000000 4.000000
v 4.000000 -0.000000 4.000000
v 3.240000 4.000000 4.000000
v 3.240000 -0.000000 3.240000
v 3.240000 4.000000 3.240000
v 4.000000 4.000000 3.240000
v 4.000000 -0.000000 3.240000
v 4.000000 0.000000 -3.240000
v 3.240000 0.000000 -3.240000
v 4.000000 4.000000 -3.240000
v 3.240000 4.000000 -3.240000
v 3.240000 4.000000 -4.000000
v 4.000000 0.000000 -4.000000
v 3.240000 0.000000 -4.000000
v 4.000000 4.000000 -4.000000
vt 0.246437 0.061960
vt 0.217625 0.553290
vt 0.217625 0.061960
vt 0.246437 0.553290
vt 0.894977 0.495665
vt 0.866165 0.004335
vt 0.894977 0.004335
vt 0.866165 0.495665
vt 0.327138 0.495665
vt 0.269513 0.004335
vt 0.327138 0.004335
vt 0.269513 0.495665
vt 0.393433 0.004335
vt 0.335808 0.495665
vt 0.335808 0.004335
vt 0.393433 0.495665
vt 0.941129 0.004335
vt 0.969941 0.495665
vt 0.941129 0.495665
vt 0.969941 0.004335
vt 0.047554 0.553290
vt 0.018741 0.061960
vt 0.047554 0.061960
vt 0.018741 0.553290
vt 0.534692 0.004335
vt 0.592317 0.495665
vt 0.534692 0.495665
vt 0.592317 0.004335
vt 0.658611 0.004335
vt 0.600986 0.495665
vt 0.600986 0.004335
vt 0.658611 0.495665
vt 0.667281 0.004335
vt 0.724906 0.495665
vt 0.667281 0.495665
vt 0.724906 0.004335
vt 0.791201 0.004335
vt 0.733575 0.495665
vt 0.733575 0.004335
vt 0.791201 0.495665
vt 0.903647 0.504335
vt 0.932459 0.995665
vt 0.903647 0.995665
vt 0.932459 0.504335
vt 0.113848 0.553290
vt 0.085036 0.061960
vt 0.113848 0.061960
vt 0.085036 0.553290
vt 0.459728 0.495665
vt 0.402102 0.004335
vt 0.459728 0.004335
vt 0.402102 0.495665
vt 0.526022 0.004335
vt 0.468397 0.495665
vt 0.468397 0.004335
vt 0.526022 0.495665
vt 0.180143 0.061960
vt 0.151330 0.553290
vt 0.151330 0.061960
vt 0.180143 0.553290
vt 0.932459 0.495665
vt 0.903647 0.004335
vt 0.932459 0.004335
vt 0.903647 0.495665
vt 0.194549 0.619585
vt 0.136924 0.561960
vt 0.194549 0.561960
vt 0.136924 0.619585
vt 0.061960 0.610916
vt 0.061960 0.307625
vt 0.004335 0.610916
vt 0.018741 0.495665
vt 0.047554 0.495665
vt 0.004335 0.307625
vt 0.468397 0.504335
vt 0.526022 0.807625
vt 0.468397 0.807625
vt 0.526022 0.504335
vt 0.667281 0.807625
vt 0.724906 0.504335
vt 0.724906 0.807625
vt 0.667281 0.504335
vt 0.136924 0.307625
vt 0.151330 0.119585
vt 0.194549 0.307625
vt 0.136924 0.004335
vt 0.180143 0.119585
vt 0.194549 0.004335
vt 0.260844 0.561960
vt 0.203219 0.619585
vt 0.203219 0.561960
vt 0.260844 0.619585
vt 0.128255 0.610916
vt 0.128255 0.307625
vt 0.070629 0.610916
vt 0.085036 0.495665
vt 0.113848 0.495665
vt 0.070629 0.307625
vt 0.733575 0.807625
vt 0.791201 0.504335
vt 0.791201 0.807625
vt 0.733575 0.504335
vt 0.269513 0.504335
vt 0.327138 0.807625
vt 0.269513 0.807625
vt 0.327138 0.504335
vt 0.534692 0.807625
vt 0.549098 0.619585
vt 0.592317 0.807625
vt 0.534692 0.504335
vt 0.549098 0.561960
vt 0.577910 0.561960
vt 0.577910 0.619585
vt 0.592317 0.504335
vt 0.600986 0.504335
vt 0.658611 0.807625
vt 0.600986 0.807625
vt 0.658611 0.504335
vt 0.128255 0.307625
vt 0.113848 0.119585
vt 0.128255 0.004335
vt 0.070629 0.307625
vt 0.085036 0.119585
vt 0.070629 0.004335
vt 0.061960 0.677210
vt 0.004335 0.619585
vt 0.061960 0.619585
vt 0.004335 0.677210
vt 0.335808 0.807625
vt 0.350214 0.619585
vt 0.393433 0.807625
vt 0.335808 0.504335
vt 0.350214 0.561960
vt 0.379027 0.561960
vt 0.379027 0.619585
vt 0.393433 0.504335
vt 0.799870 0.307625
vt 0.857495 0.004335
vt 0.857495 0.307625
vt 0.799870 0.004335
vt 0.203219 0.307625
vt 0.217625 0.119585
vt 0.260844 0.307625
vt 0.203219 0.004335
vt 0.246437 0.119585
vt 0.260844 0.004335
vt 0.402102 0.504335
vt 0.459728 0.807625
vt 0.402102 0.807625
vt 0.459728 0.504335
vt 0.857495 0.619585
vt 0.799870 0.316295
vt 0.857495 0.316295
vt 0.799870 0.619585
vt 0.061960 0.307625
vt 0.047554 0.119585
vt 0.061960 0.004335
vt 0.004335 0.307625
vt 0.018741 0.119585
vt 0.004335 0.004335
vt 0.128254 0.619585
vt 0.070629 0.677210
vt 0.070629 0.619585
vt 0.128254 0.677210
vt 0.136924 0.685880
vt 0.194549 0.628254
vt 0.194549 0.685880
vt 0.136924 0.628254
vt 0.203218 0.628254
vt 0.260844 0.685880
vt 0.203218 0.685880
vt 0.260844 0.628254
vt 0.004335 0.743505
vt 0.061960 0.685880
vt 0.061960 0.743505
vt 0.004335 0.685880
vt 0.070629 0.685880
vt 0.128254 0.743505
vt 0.070629 0.743505
vt 0.128254 0.685880
vn 0.0000 1.0000 0.0000
vn 0.0000 -1.0000 -0.0000
vn -1.0000 0.0000 0.0000
vn 1.0000 0.0000 0.0000
vn 0.0000 0.0000 -1.0000
vn 0.0000 -0.0000 1.0000
s 1
f 1/1/1 2/2/1 3/3/1
f 2/2/1 1/1/1 4/4/1
f 5/5/2 6/6/2 7/7/2
f 6/6/2 5/5/2 8/8/2
f 8/9/3 1/10/3 6/11/3
f 1/10/3 8/9/3 4/12/3
f 3/13/4 5/14/4 7/15/4
f 5/14/4 3/13/4 2/16/4
f 9/17/2 10/18/2 11/19/2
f 10/18/2 9/17/2 12/20/2
f 13/21/1 14/22/1 15/23/1
f 14/22/1 13/21/1 16/24/1
f 12/25/5 15/26/5 10/27/5
f 15/26/5 12/25/5 13/28/5
f 14/29/6 9/30/6 11/31/6
f 9/30/6 14/29/6 16/32/6
f 17/33/5 18/34/5 19/35/5
f 18/34/5 17/33/5 20/36/5
f 21/37/6 22/38/6 23/39/6
f 22/38/6 21/37/6 24/40/6
f 22/41/2 19/42/2 23/43/2
f 19/42/2 22/41/2 17/44/2
f 20/45/1 21/46/1 18/47/1
f 21/46/1 20/45/1 24/48/1
f 25/49/3 26/50/3 27/51/3
f 26/50/3 25/49/3 28/52/3
f 29/53/4 30/54/4 31/55/4
f 30/54/4 29/53/4 32/56/4
f 26/57/1 32/58/1 29/59/1
f 32/58/1 26/57/1 28/60/1
f 30/61/2 27/62/2 31/63/2
f 27/62/2 30/61/2 25/64/2
f 33/65/1 34/66/1 35/67/1
f 34/66/1 33/65/1 36/68/1
f 35/69/4 13/21/4 37/70/4
f 13/21/4 35/69/4 34/71/4
f 13/21/4 34/71/4 16/24/4
f 16/24/4 34/71/4 9/72/4
f 12/73/4 37/70/4 13/21/4
f 37/70/4 12/73/4 38/74/4
f 38/74/4 12/73/4 9/72/4
f 38/74/4 9/72/4 34/71/4
f 33/75/5 37/76/5 39/77/5
f 37/76/5 33/75/5 35/78/5
f 40/79/3 33/80/3 39/81/3
f 33/80/3 40/79/3 36/82/3
f 38/83/6 31/84/6 40/85/6
f 31/84/6 38/83/6 34/86/6
f 31/84/6 34/86/6 29/59/6
f 29/59/6 34/86/6 26/57/6
f 27/87/6 40/85/6 31/84/6
f 40/85/6 27/87/6 36/88/6
f 36/88/6 27/87/6 26/57/6
f 36/88/6 26/57/6 34/86/6
f 41/89/1 42/90/1 43/91/1
f 42/90/1 41/89/1 44/92/1
f 43/93/4 20/45/4 45/94/4
f 20/45/4 43/93/4 42/95/4
f 20/45/4 42/95/4 24/48/4
f 24/48/4 42/95/4 22/96/4
f 17/97/4 45/94/4 20/45/4
f 45/94/4 17/97/4 46/98/4
f 46/98/4 17/97/4 22/96/4
f 46/98/4 22/96/4 42/95/4
f 47/99/3 41/100/3 48/101/3
f 41/100/3 47/99/3 44/102/3
f 42/103/6 47/104/6 46/105/6
f 47/104/6 42/103/6 44/106/6
f 48/107/5 25/108/5 45/109/5
f 25/108/5 48/107/5 41/110/5
f 25/108/5 41/110/5 28/111/5
f 28/111/5 41/110/5 32/112/5
f 30/113/5 45/109/5 25/108/5
f 45/109/5 30/113/5 43/114/5
f 43/114/5 30/113/5 32/112/5
f 43/114/5 32/112/5 41/110/5
f 49/115/6 50/116/6 51/117/6
f 50/116/6 49/115/6 52/118/6
f 53/119/3 19/120/3 54/121/3
f 19/120/3 53/119/3 50/122/3
f 19/120/3 50/122/3 23/123/3
f 23/123/3 50/122/3 21/46/3
f 18/47/3 54/121/3 19/120/3
f 54/121/3 18/47/3 52/124/3
f 52/124/3 18/47/3 21/46/3
f 52/124/3 21/46/3 50/122/3
f 54/125/1 49/126/1 55/127/1
f 49/126/1 54/125/1 52/128/1
f 53/129/5 8/130/5 56/131/5
f 8/130/5 53/129/5 54/132/5
f 8/130/5 54/132/5 4/133/5
f 4/133/5 54/132/5 2/134/5
f 5/135/5 56/131/5 8/130/5
f 56/131/5 5/135/5 55/136/5
f 55/136/5 5/135/5 2/134/5
f 55/136/5 2/134/5 54/132/5
f 49/137/4 56/138/4 55/139/4
f 56/138/4 49/137/4 51/140/4
f 57/141/6 7/142/6 58/143/6
f 7/142/6 57/141/6 59/144/6
f 7/142/6 59/144/6 3/3/6
f 3/3/6 59/144/6 1/1/6
f 6/145/6 58/143/6 7/142/6
f 58/143/6 6/145/6 60/146/6
f 60/146/6 6/145/6 1/1/6
f 60/146/6 1/1/6 59/144/6
f 61/147/5 62/148/5 63/149/5
f 62/148/5 61/147/5 64/150/5
f 64/151/4 57/152/4 62/153/4
f 57/152/4 64/151/4 59/154/4
f 63/155/3 10/156/3 61/157/3
f 10/156/3 63/155/3 58/158/3
f 10/156/3 58/158/3 11/159/3
f 11/159/3 58/158/3 14/22/3
f 15/23/3 61/157/3 10/156/3
f 61/157/3 15/23/3 60/160/3
f 60/160/3 15/23/3 14/22/3
f 60/160/3 14/22/3 58/158/3
f 61/161/1 59/162/1 64/163/1
f 59/162/1 61/161/1 60/164/1
f 40/165/2 37/166/2 38/167/2
f 37/166/2 40/165/2 39/168/2
f 47/169/2 45/170/2 46/171/2
f 45/170/2 47/169/2 48/172/2
f 50/173/2 56/174/2 51/175/2
f 56/174/2 50/173/2 53/176/2
f 58/177/2 62/178/2 57/179/2
f 62/178/2 58/177/2 63/180/2
