# Blender v2.92.0 OBJ File: 'kenney_OGConvert.blend'
# www.blender.org
o cabinRoofCenter
v 0.602705 0.039808 0.635100
v 0.587578 0.000000 -0.635100
v 0.602705 0.039808 -0.635100
v 0.587578 -0.000000 0.635100
v 0.150676 0.755423 0.635100
v 0.150676 0.726891 -0.635100
v 0.150676 0.755423 -0.635100
v 0.150676 0.726891 0.635100
v 0.527367 0.182854 0.635100
v 0.527367 0.154322 -0.635100
v 0.527367 0.182854 -0.635100
v 0.527367 0.154322 0.635100
v -0.226014 0.612377 0.635100
v -0.226014 0.640909 -0.635100
v -0.226014 0.612377 -0.635100
v -0.226014 0.640909 0.635100
v -0.075338 0.841405 0.635100
v -0.075338 0.869937 -0.635100
v -0.075338 0.841405 -0.635100
v -0.075338 0.869937 0.635100
v -0.376691 0.383350 0.635100
v -0.376691 0.411882 -0.635100
v -0.376691 0.383350 -0.635100
v -0.376691 0.411882 0.635100
v -0.150676 0.726891 0.635100
v -0.150676 0.755423 -0.635100
v -0.150676 0.726891 -0.635100
v -0.150676 0.755423 0.635100
v 0.376691 0.411882 0.635100
v 0.376691 0.383350 -0.635100
v 0.376691 0.411882 -0.635100
v 0.376691 0.383350 0.635100
v -0.527367 0.154322 0.635100
v -0.527367 0.182854 -0.635100
v -0.527367 0.154322 -0.635100
v -0.527367 0.182854 0.635100
v 0.000000 0.893118 0.635100
v 0.602705 0.068340 0.635100
v 0.452029 0.268836 0.635100
v 0.452029 0.297368 0.635100
v 0.301352 0.497864 0.635100
v 0.226014 0.612377 0.635100
v 0.301352 0.526396 0.635100
v 0.226014 0.640909 0.635100
v 0.075338 0.841405 0.635100
v 0.075338 0.869937 0.635100
v 0.000000 0.955919 0.635100
v -0.301352 0.497864 0.635100
v -0.452029 0.268836 0.635100
v -0.602705 0.039808 0.635100
v -0.587578 -0.000000 0.635100
v -0.602705 0.068340 0.635100
v -0.452029 0.297368 0.635100
v -0.301352 0.526396 0.635100
v 0.452029 0.268836 -0.635100
v 0.452029 0.297368 -0.635100
v 0.301352 0.497864 -0.635100
v 0.301352 0.526396 -0.635100
v -0.602705 0.068340 -0.635100
v -0.602705 0.039808 -0.635100
v 0.075338 0.841405 -0.635100
v 0.075338 0.869937 -0.635100
v -0.587578 0.000000 -0.635100
v -0.000000 0.893118 -0.635100
v -0.452029 0.297368 -0.635100
v -0.452029 0.268836 -0.635100
v 0.226014 0.612377 -0.635100
v 0.226014 0.640909 -0.635100
v -0.301352 0.497864 -0.635100
v -0.301352 0.526396 -0.635100
v -0.000000 0.955919 -0.635100
v 0.602705 0.068340 -0.635100
vt 0.306864 0.352197
vt 0.295247 0.003610
vt 0.306864 0.003610
vt 0.295246 0.352197
vt 0.972400 0.352197
vt 0.965428 0.003610
vt 0.972400 0.003610
vt 0.965428 0.352197
vt 0.958207 0.352197
vt 0.951235 0.003610
vt 0.958207 0.003610
vt 0.951235 0.352197
vt 0.897040 0.708005
vt 0.890068 0.359418
vt 0.897040 0.359418
vt 0.890068 0.708005
vt 0.911233 0.708005
vt 0.904261 0.359418
vt 0.911233 0.359418
vt 0.904261 0.708005
vt 0.982197 0.708005
vt 0.975225 0.359418
vt 0.982197 0.359418
vt 0.975225 0.708005
vt 0.986593 0.352197
vt 0.979621 0.003610
vt 0.986593 0.003610
vt 0.979621 0.352197
vt 0.996390 0.708005
vt 0.989418 0.359418
vt 0.996390 0.359418
vt 0.989418 0.708005
vt 0.968004 0.708005
vt 0.961032 0.359418
vt 0.968004 0.359418
vt 0.961032 0.708005
vt 0.255023 0.690224
vt 0.020845 0.524821
vt 0.265948 0.686073
vt 0.223596 0.669549
vt 0.247193 0.690224
vt 0.192170 0.648873
vt 0.215766 0.669549
vt 0.160743 0.628198
vt 0.184340 0.648873
vt 0.129316 0.607522
vt 0.152913 0.628198
vt 0.097890 0.586847
vt 0.121486 0.607522
vt 0.090060 0.586847
vt 0.066464 0.566172
vt 0.058633 0.566172
vt 0.035037 0.545496
vt 0.027207 0.545496
vt 0.003610 0.524821
vt 0.027207 0.504146
vt 0.035037 0.504146
vt 0.058633 0.483470
vt 0.066464 0.483470
vt 0.090060 0.462795
vt 0.097890 0.462795
vt 0.129316 0.442120
vt 0.160743 0.421444
vt 0.192170 0.400769
vt 0.223596 0.380093
vt 0.255023 0.359418
vt 0.265948 0.363569
vt 0.247193 0.359418
vt 0.215766 0.380093
vt 0.184340 0.400769
vt 0.152913 0.421444
vt 0.121486 0.442120
vt 0.915629 0.352197
vt 0.908657 0.003610
vt 0.915629 0.003610
vt 0.908657 0.352197
vt 0.925426 0.708005
vt 0.918454 0.359418
vt 0.925426 0.359418
vt 0.918454 0.708005
vt 0.328028 0.352197
vt 0.321056 0.003610
vt 0.328028 0.003610
vt 0.321056 0.352197
vt 0.929822 0.352197
vt 0.922850 0.003610
vt 0.929822 0.003610
vt 0.922850 0.352197
vt 0.631282 0.352197
vt 0.339646 0.003610
vt 0.631282 0.003610
vt 0.339645 0.352197
vt 0.939619 0.708005
vt 0.932647 0.359418
vt 0.939619 0.359418
vt 0.932647 0.708005
vt 0.944015 0.352197
vt 0.937043 0.003610
vt 0.944015 0.003610
vt 0.937042 0.352197
vt 0.003610 0.003610
vt 0.003610 0.352197
vt 0.524581 0.690224
vt 0.290403 0.524821
vt 0.535506 0.686073
vt 0.493154 0.669549
vt 0.516751 0.690224
vt 0.461728 0.648873
vt 0.485324 0.669549
vt 0.430301 0.628198
vt 0.453897 0.648873
vt 0.398874 0.607522
vt 0.422471 0.628198
vt 0.367448 0.586847
vt 0.391044 0.607522
vt 0.359618 0.586847
vt 0.336021 0.566172
vt 0.328191 0.566172
vt 0.304595 0.545496
vt 0.296765 0.545496
vt 0.273168 0.524821
vt 0.296765 0.504146
vt 0.304595 0.504146
vt 0.328191 0.483470
vt 0.336021 0.483470
vt 0.359618 0.462795
vt 0.367448 0.462795
vt 0.398874 0.442120
vt 0.430301 0.421444
vt 0.461728 0.400769
vt 0.493154 0.380093
vt 0.524581 0.359418
vt 0.535506 0.363569
vt 0.516751 0.359418
vt 0.485324 0.380093
vt 0.453897 0.400769
vt 0.422471 0.421444
vt 0.391044 0.442120
vt 0.313836 0.352197
vt 0.313836 0.003610
vt 0.953811 0.708005
vt 0.946839 0.359418
vt 0.953811 0.359418
vt 0.946839 0.708005
vt 0.651286 0.708005
vt 0.619913 0.359418
vt 0.651286 0.359418
vt 0.619913 0.708005
vt 0.708469 0.352197
vt 0.677096 0.003610
vt 0.708469 0.003610
vt 0.677096 0.352197
vt 0.612693 0.708005
vt 0.581320 0.359418
vt 0.612693 0.359418
vt 0.581320 0.708005
vt 0.728473 0.708005
vt 0.697101 0.359418
vt 0.728474 0.359418
vt 0.697101 0.708005
vt 0.844254 0.708005
vt 0.812881 0.359418
vt 0.844254 0.359418
vt 0.812881 0.708005
vt 0.862843 0.352197
vt 0.831470 0.003610
vt 0.862843 0.003610
vt 0.831470 0.352197
vt 0.882848 0.708005
vt 0.851475 0.359418
vt 0.882848 0.359418
vt 0.851475 0.708005
vt 0.747063 0.352197
vt 0.715690 0.003610
vt 0.747063 0.003610
vt 0.715690 0.352197
vt 0.785656 0.352197
vt 0.754283 0.003610
vt 0.785656 0.003610
vt 0.754283 0.352197
vt 0.901436 0.352197
vt 0.870064 0.003610
vt 0.901436 0.003610
vt 0.870064 0.352197
vt 0.669875 0.352197
vt 0.638502 0.003610
vt 0.669875 0.003610
vt 0.638502 0.352197
vt 0.805661 0.708005
vt 0.774288 0.359418
vt 0.805661 0.359418
vt 0.774288 0.708005
vt 0.767067 0.708005
vt 0.735694 0.359418
vt 0.767067 0.359418
vt 0.735694 0.708005
vt 0.574099 0.708005
vt 0.542726 0.359418
vt 0.574099 0.359418
vt 0.542726 0.708005
vt 0.689880 0.708005
vt 0.658507 0.359418
vt 0.689880 0.359418
vt 0.658507 0.708005
vt 0.824250 0.352197
vt 0.792877 0.003610
vt 0.824250 0.003610
vt 0.792877 0.352197
vn 0.9348 -0.3552 -0.0000
vn 1.0000 0.0000 -0.0000
vn -1.0000 0.0000 0.0000
vn -0.0000 -0.0000 1.0000
vn 0.8354 -0.5496 -0.0000
vn -0.8354 -0.5496 0.0000
vn 0.0000 -0.0000 -1.0000
vn -0.9348 -0.3552 0.0000
vn -0.7521 0.6590 0.0000
vn 0.7521 0.6590 -0.0000
s 1
f 1/1/1 2/2/1 3/3/1
f 2/2/1 1/1/1 4/4/1
f 5/5/2 6/6/2 7/7/2
f 6/6/2 5/5/2 8/8/2
f 9/9/2 10/10/2 11/11/2
f 10/10/2 9/9/2 12/12/2
f 13/13/3 14/14/3 15/15/3
f 14/14/3 13/13/3 16/16/3
f 17/17/3 18/18/3 19/19/3
f 18/18/3 17/17/3 20/20/3
f 21/21/3 22/22/3 23/23/3
f 22/22/3 21/21/3 24/24/3
f 25/25/3 26/26/3 27/27/3
f 26/26/3 25/25/3 28/28/3
f 29/29/2 30/30/2 31/31/2
f 30/30/2 29/29/2 32/32/2
f 33/33/3 34/34/3 35/35/3
f 34/34/3 33/33/3 36/36/3
f 1/37/4 37/38/4 4/39/4
f 37/38/4 1/37/4 12/40/4
f 12/40/4 1/37/4 38/41/4
f 37/38/4 12/40/4 39/42/4
f 39/42/4 12/40/4 9/43/4
f 37/38/4 39/42/4 32/44/4
f 32/44/4 39/42/4 40/45/4
f 37/38/4 32/44/4 41/46/4
f 41/46/4 32/44/4 29/47/4
f 37/38/4 41/46/4 42/48/4
f 42/48/4 41/46/4 43/49/4
f 37/38/4 42/48/4 44/50/4
f 37/38/4 44/50/4 8/51/4
f 37/38/4 8/51/4 5/52/4
f 37/38/4 5/52/4 45/53/4
f 37/38/4 45/53/4 46/54/4
f 37/38/4 46/54/4 47/55/4
f 20/56/4 37/38/4 47/55/4
f 17/57/4 37/38/4 20/56/4
f 28/58/4 37/38/4 17/57/4
f 25/59/4 37/38/4 28/58/4
f 16/60/4 37/38/4 25/59/4
f 13/61/4 37/38/4 16/60/4
f 48/62/4 37/38/4 13/61/4
f 21/63/4 37/38/4 48/62/4
f 49/64/4 37/38/4 21/63/4
f 33/65/4 37/38/4 49/64/4
f 50/66/4 37/38/4 33/65/4
f 37/38/4 50/66/4 51/67/4
f 50/66/4 33/65/4 52/68/4
f 33/65/4 49/64/4 36/69/4
f 49/64/4 21/63/4 53/70/4
f 21/63/4 48/62/4 24/71/4
f 48/62/4 13/61/4 54/72/4
f 40/73/2 55/74/2 56/75/2
f 55/74/2 40/73/2 39/76/2
f 43/77/2 57/78/2 58/79/2
f 57/78/2 43/77/2 41/80/2
f 50/81/3 59/82/3 60/83/3
f 59/82/3 50/81/3 52/84/3
f 46/85/2 61/86/2 62/87/2
f 61/86/2 46/85/2 45/88/2
f 37/89/5 63/90/5 64/91/5
f 63/90/5 37/89/5 51/92/5
f 49/93/3 65/94/3 66/95/3
f 65/94/3 49/93/3 53/96/3
f 44/97/2 67/98/2 68/99/2
f 67/98/2 44/97/2 42/100/2
f 4/4/6 64/101/6 2/2/6
f 64/101/6 4/4/6 37/102/6
f 60/103/7 64/104/7 63/105/7
f 64/104/7 60/103/7 35/106/7
f 35/106/7 60/103/7 59/107/7
f 64/104/7 35/106/7 66/108/7
f 66/108/7 35/106/7 34/109/7
f 64/104/7 66/108/7 23/110/7
f 23/110/7 66/108/7 65/111/7
f 64/104/7 23/110/7 69/112/7
f 69/112/7 23/110/7 22/113/7
f 64/104/7 69/112/7 15/114/7
f 15/114/7 69/112/7 70/115/7
f 64/104/7 15/114/7 14/116/7
f 64/104/7 14/116/7 27/117/7
f 64/104/7 27/117/7 26/118/7
f 64/104/7 26/118/7 19/119/7
f 64/104/7 19/119/7 18/120/7
f 64/104/7 18/120/7 71/121/7
f 62/122/7 64/104/7 71/121/7
f 61/123/7 64/104/7 62/122/7
f 7/124/7 64/104/7 61/123/7
f 6/125/7 64/104/7 7/124/7
f 68/126/7 64/104/7 6/125/7
f 67/127/7 64/104/7 68/126/7
f 57/128/7 64/104/7 67/127/7
f 30/129/7 64/104/7 57/128/7
f 55/130/7 64/104/7 30/129/7
f 10/131/7 64/104/7 55/130/7
f 3/132/7 64/104/7 10/131/7
f 64/104/7 3/132/7 2/133/7
f 3/132/7 10/131/7 72/134/7
f 10/131/7 55/130/7 11/135/7
f 55/130/7 30/129/7 56/136/7
f 30/129/7 57/128/7 31/137/7
f 57/128/7 67/127/7 58/138/7
f 38/139/2 3/3/2 72/140/2
f 3/3/2 38/139/2 1/1/2
f 48/141/3 70/142/3 69/143/3
f 70/142/3 48/141/3 54/144/3
f 51/92/8 60/83/8 63/90/8
f 60/83/8 51/92/8 50/81/8
f 20/145/9 71/146/9 18/147/9
f 71/146/9 20/145/9 47/148/9
f 28/149/9 19/150/9 26/151/9
f 19/150/9 28/149/9 17/152/9
f 45/153/10 7/154/10 61/155/10
f 7/154/10 45/153/10 5/156/10
f 12/157/10 72/158/10 10/159/10
f 72/158/10 12/157/10 38/160/10
f 16/161/9 27/162/9 14/163/9
f 27/162/9 16/161/9 25/164/9
f 54/165/9 15/166/9 70/167/9
f 15/166/9 54/165/9 13/168/9
f 8/169/10 68/170/10 6/171/10
f 68/170/10 8/169/10 44/172/10
f 32/173/10 56/174/10 30/175/10
f 56/174/10 32/173/10 40/176/10
f 53/177/9 23/178/9 65/179/9
f 23/178/9 53/177/9 21/180/9
f 42/181/10 58/182/10 67/183/10
f 58/182/10 42/181/10 43/184/10
f 41/185/10 31/186/10 57/187/10
f 31/186/10 41/185/10 29/188/10
f 36/189/9 66/190/9 34/191/9
f 66/190/9 36/189/9 49/192/9
f 52/193/9 35/194/9 59/195/9
f 35/194/9 52/193/9 33/196/9
f 24/197/9 69/198/9 22/199/9
f 69/198/9 24/197/9 48/200/9
f 47/201/10 62/202/10 71/203/10
f 62/202/10 47/201/10 46/204/10
f 39/205/10 11/206/10 55/207/10
f 11/206/10 39/205/10 9/208/10
