# Blender v2.92.0 OBJ File: 'kenney_OGConvert.blend'
# www.blender.org
o snowFort
v -0.304853 0.086464 0.199822
v -0.265168 0.086464 0.216259
v -0.257290 0.086464 0.175728
v -0.268695 0.086464 0.234401
v -0.323633 0.086464 0.253317
v -0.319332 0.086464 0.207156
v -0.373354 0.086464 0.168203
v -0.387460 0.086464 0.204222
v 0.484686 0.155801 -0.120646
v 0.514896 0.155801 -0.019585
v 0.527334 0.155801 -0.083573
v 0.443238 0.155801 0.016714
v 0.480874 0.155801 -0.111443
v 0.454502 0.155801 -0.045295
v 0.419857 0.155801 -0.000145
v 0.436583 0.072760 0.043765
v 0.458035 0.072760 0.059233
v -0.276908 0.290500 0.112246
v -0.226415 -0.000000 0.274329
v -0.196249 -0.000000 0.286824
v -0.250053 0.052631 0.238962
v -0.285692 0.185147 0.159804
v -0.303568 0.185147 0.152399
v 0.394309 0.051515 0.112090
v 0.345578 0.044289 0.153681
v 0.392558 0.044289 0.117632
v 0.269542 0.290500 0.069004
v 0.444636 0.290500 -0.198272
v 0.580940 0.011680 -0.166513
v 0.553404 0.044289 -0.142236
v 0.531015 0.072760 -0.125028
v -0.497971 -0.000000 0.101619
v -0.378848 0.290500 0.030977
v -0.584396 0.000000 -0.011012
v -0.458678 0.067431 0.100394
v -0.467279 0.052631 0.100694
v 0.215302 0.290500 0.112246
v 0.316833 0.044289 0.175985
v 0.337309 0.044289 0.160273
v 0.288814 -0.000000 0.222964
v 0.292390 -0.000000 0.220220
v 0.395464 0.290500 -0.074935
v 0.397598 0.065961 0.100851
v 0.317242 0.290500 0.030977
v 0.582819 0.008659 -0.169346
v 0.458139 0.290500 -0.304832
v -0.284871 0.185147 0.159388
v -0.328300 0.185147 0.181387
v -0.447232 0.086464 0.098027
v -0.433074 0.124698 0.086494
v -0.395275 0.176915 0.084909
v 0.588261 0.000000 -0.177419
v 0.611835 0.044289 -0.091443
v 0.665792 0.000000 -0.110022
v 0.414757 0.072760 0.072209
v 0.398102 0.072760 0.094759
v 0.450938 0.072760 0.135400
v 0.460364 0.044289 0.169787
v 0.578173 0.072760 -0.084034
v 0.568279 0.044289 0.132629
v 0.341560 -0.000000 0.262964
v 0.611348 -0.000000 0.170068
v 0.352449 0.044289 0.206946
v 0.541586 0.072760 0.104187
v 0.560404 0.072760 0.007378
v -0.450426 0.086464 0.114459
v -0.468865 0.052631 0.108851
v -0.415639 0.185147 0.093723
v -0.420066 0.185147 0.116499
v -0.357284 0.150897 0.130043
v -0.366115 0.185147 0.154119
v -0.356241 0.185147 0.128906
v -0.369420 0.086464 0.158159
v -0.393905 0.052631 0.215712
v -0.317920 0.052631 0.274159
v -0.383323 0.052631 0.296679
v -0.520434 -0.000000 0.217177
v -0.389923 -0.000000 0.330629
v -0.487732 0.052631 0.205917
v -0.252517 0.052631 0.251638
v -0.389442 0.185147 0.084702
v -0.376834 0.052631 0.172123
v -0.406729 0.097720 0.122513
v -0.417468 0.086464 0.120866
v -0.382495 0.124235 0.126186
v 0.604186 0.000000 -0.330629
v 0.604186 0.000000 -0.298383
v 0.359256 0.000000 -0.330629
v 0.345965 0.000000 -0.229674
v 0.306998 0.000000 -0.135600
v 0.245010 0.000000 -0.054816
v 0.134643 -0.000000 0.286824
v 0.164226 -0.000000 0.007172
v 0.070152 -0.000000 0.046139
v -0.030803 -0.000000 0.308605
v -0.030803 -0.000000 0.059430
v -0.131757 -0.000000 0.046139
v -0.225832 -0.000000 0.007172
v -0.306616 0.000000 -0.054816
v -0.368603 0.000000 -0.135600
v -0.407570 0.000000 -0.229674
v -0.420861 0.000000 -0.330629
v -0.665792 0.000000 -0.330629
v -0.648256 0.000000 -0.165183
v -0.665792 0.000000 -0.298383
v -0.363684 0.185147 0.105237
v -0.338137 0.185147 0.124840
v -0.455594 0.052631 0.111431
v -0.404608 0.052631 0.150812
v -0.413250 0.052631 0.143922
v -0.108538 0.290500 -0.029215
v -0.180975 0.290500 -0.060388
v 0.259308 0.290500 -0.249865
v 0.269542 0.290500 -0.330629
v -0.030803 0.290500 0.180759
v -0.158196 0.290500 0.163333
v 0.096591 0.290500 0.163333
v -0.506242 0.290500 -0.198272
v -0.519744 0.290500 -0.304832
v -0.457070 0.290500 -0.074935
v 0.181573 0.290500 -0.109978
v 0.229304 0.290500 -0.174606
v -0.566803 0.196897 -0.330629
v -0.331148 0.290500 -0.330629
v -0.439133 0.290500 -0.330629
v -0.320914 0.290500 -0.249865
v 0.119370 0.290500 -0.060388
v 0.046932 0.290500 -0.029215
v -0.030803 0.290500 -0.018582
v -0.243179 0.290500 -0.109978
v 0.363840 0.290500 -0.330629
v -0.290909 0.290500 -0.174606
v -0.331148 0.290500 0.069004
v 0.493526 0.220112 -0.330629
vt 0.578235 0.893159
vt 0.570683 0.870962
vt 0.593039 0.868102
vt 0.560677 0.872242
vt 0.548433 0.901499
vt 0.573729 0.900787
vt 0.593039 0.931588
vt 0.572921 0.937999
vt 0.579615 0.101949
vt 0.524451 0.085459
vt 0.559379 0.078670
vt 0.504638 0.124573
vt 0.574592 0.104030
vt 0.538485 0.118425
vt 0.513840 0.137336
vt 0.770651 0.872528
vt 0.817031 0.861187
vt 0.821770 0.874210
vt 0.765485 0.858334
vt 0.874618 0.392341
vt 0.700997 0.340310
vt 0.700420 0.322530
vt 0.732729 0.358278
vt 0.753127 0.369781
vt 0.812171 0.389443
vt 0.753886 0.393172
vt 0.812513 0.399979
vt 0.775270 0.047268
vt 0.763703 0.065260
vt 0.770621 0.047265
vt 0.902130 0.117341
vt 0.996907 0.693973
vt 0.936472 0.752053
vt 0.878455 0.758202
vt 0.935998 0.756050
vt 0.890866 0.762847
vt 0.901907 0.765171
vt 0.714672 0.510894
vt 0.882066 0.459248
vt 0.727145 0.575257
vt 0.751848 0.490236
vt 0.743685 0.494752
vt 0.893914 0.137833
vt 0.759435 0.076227
vt 0.762450 0.068384
vt 0.728429 0.082873
vt 0.728956 0.081503
vt 0.990893 0.747884
vt 0.932772 0.784963
vt 0.784579 0.047412
vt 0.909355 0.099319
vt 0.877172 0.757354
vt 0.996907 0.642202
vt 0.812261 0.389091
vt 0.759144 0.372787
vt 0.752285 0.399378
vt 0.807461 0.407704
vt 0.762639 0.484574
vt 0.784926 0.478953
vt 0.814092 0.459256
vt 0.610604 0.045413
vt 0.563675 0.032546
vt 0.573816 0.003093
vt 0.604651 0.049409
vt 0.591400 0.064440
vt 0.606197 0.048384
vt 0.496852 0.193347
vt 0.474346 0.140119
vt 0.554664 0.150650
vt 0.462037 0.149210
vt 0.458712 0.149485
vt 0.785381 0.013740
vt 0.765935 0.003093
vt 0.789033 0.048159
vt 0.559630 0.050920
vt 0.582007 0.076661
vt 0.441366 0.056320
vt 0.370224 0.180073
vt 0.420931 0.032811
vt 0.421084 0.115225
vt 0.400801 0.174130
vt 0.481429 0.116496
vt 0.456891 0.070891
vt 0.509734 0.060619
vt 0.439854 0.120370
vt 0.489872 0.128206
vt 0.911293 0.794471
vt 0.944960 0.778550
vt 0.724864 0.048612
vt 0.756471 0.052402
vt 0.770651 0.904245
vt 0.821770 0.919520
vt 0.449552 0.152236
vt 0.429875 0.177880
vt 0.426277 0.182394
vt 0.417701 0.193570
vt 0.879357 0.906296
vt 0.888257 0.912530
vt 0.880203 0.916499
vt 0.877944 0.898734
vt 0.881942 0.896764
vt 0.894028 0.966805
vt 0.880724 0.938373
vt 0.905192 0.961303
vt 0.939993 0.322400
vt 0.919404 0.311739
vt 0.932738 0.305363
vt 0.939903 0.361019
vt 0.934591 0.363558
vt 0.848499 0.894444
vt 0.833511 0.937719
vt 0.827957 0.888253
vt 0.853164 0.935996
vt 0.755653 0.434115
vt 0.809818 0.432020
vt 0.337587 0.812500
vt 0.317563 0.898167
vt 0.304831 0.811118
vt 0.347772 0.882139
vt 0.682180 0.753375
vt 0.687497 0.737885
vt 0.687497 0.760131
vt 0.683782 0.733164
vt 0.682180 0.665080
vt 0.693833 0.661900
vt 0.693833 0.697069
vt 0.693777 0.656398
vt 0.872878 0.871874
vt 0.929519 0.843961
vt 0.929519 0.873318
vt 0.939993 0.381133
vt 0.915542 0.372666
vt 0.916941 0.392154
vt 0.726735 0.907717
vt 0.750146 0.916359
vt 0.732094 0.914335
vt 0.738103 0.862253
vt 0.714694 0.892192
vt 0.702124 0.876530
vt 0.703144 0.858334
vt 0.086722 0.045413
vt 0.003094 0.036721
vt 0.020695 0.036721
vt 0.003094 0.170414
vt 0.327102 0.180073
vt 0.276396 0.032811
vt 0.123510 0.003093
vt 0.058199 0.177669
vt 0.109549 0.198939
vt 0.303771 0.206913
vt 0.153644 0.232775
vt 0.305269 0.208864
vt 0.340126 0.293018
vt 0.187480 0.276870
vt 0.208750 0.328220
vt 0.352015 0.383325
vt 0.216005 0.383325
vt 0.340126 0.473633
vt 0.208750 0.438430
vt 0.187480 0.489781
vt 0.333306 0.490099
vt 0.153644 0.533876
vt 0.364037 0.579349
vt 0.109549 0.567711
vt 0.058199 0.588981
vt 0.302110 0.650587
vt 0.239033 0.638326
vt 0.003093 0.596236
vt 0.003093 0.729930
vt 0.177554 0.685501
vt 0.093401 0.720358
vt 0.020695 0.729930
vt 0.687448 0.703257
vt 0.938568 0.450291
vt 0.930485 0.439424
vt 0.938077 0.432721
vt 0.915542 0.471616
vt 0.939403 0.468253
vt 0.927030 0.476949
vt 0.916176 0.435720
vt 0.916223 0.410273
vt 0.936956 0.408615
vt 0.939403 0.398341
vt 0.910184 0.837774
vt 0.944184 0.808863
vt 0.759298 0.934985
vt 0.752029 0.934170
vt 0.916709 0.219294
vt 0.939612 0.246944
vt 0.915542 0.238367
vt 0.969177 0.204784
vt 0.969177 0.280298
vt 0.936479 0.299176
vt 0.916966 0.213266
vt 0.918745 0.184187
vt 0.922434 0.177796
vt 0.163895 0.800565
vt 0.004529 0.736117
vt 0.164751 0.761738
vt 0.864541 0.788313
vt 0.866691 0.831297
vt 0.703903 0.852147
vt 0.874618 0.253119
vt 0.703839 0.233178
vt 0.713392 0.151435
vt 0.872078 0.322035
vt 0.003459 0.786575
vt 0.882066 0.190291
vt 0.930968 0.016754
vt 0.980536 0.003093
vt 0.977363 0.154517
vt 0.893914 0.518195
vt 0.909355 0.565166
vt 0.746352 0.635208
vt 0.864541 0.701655
vt 0.863807 0.744096
vt 0.700420 0.742747
vt 0.701481 0.689223
vt 0.704357 0.641395
vt 0.993227 0.048397
vt 0.993227 0.150483
vt 0.190846 0.822583
vt 0.298644 0.901776
vt 0.170938 0.940975
vt 0.298644 0.736117
vt 0.242341 0.753399
vt 0.372093 0.709988
vt 0.542246 0.680687
vt 0.537381 0.723475
vt 0.164751 0.925548
vt 0.003459 0.896697
vt 0.163895 0.885359
vt 0.004529 0.948857
vt 0.866691 0.663885
vt 0.915542 0.171609
vt 0.163603 0.842730
vt 0.542246 0.848327
vt 0.372624 0.819258
vt 0.537381 0.810252
vt 0.003093 0.841345
vt 0.694233 0.167912
vt 0.621987 0.123810
vt 0.680152 0.116440
vt 0.694233 0.219384
vt 0.476096 0.219384
vt 0.650148 0.224970
vt 0.452492 0.248991
vt 0.609069 0.241348
vt 0.573792 0.267401
vt 0.424607 0.313788
vt 0.546723 0.301354
vt 0.529708 0.340894
vt 0.415095 0.383325
vt 0.523904 0.383325
vt 0.529708 0.425757
vt 0.424607 0.452862
vt 0.546723 0.465296
vt 0.452492 0.517660
vt 0.573792 0.499249
vt 0.609069 0.525303
vt 0.476096 0.547267
vt 0.650148 0.541681
vt 0.694233 0.547267
vt 0.694233 0.606210
vt 0.496852 0.573303
vt 0.554664 0.616000
vt 0.680152 0.650211
vt 0.621987 0.642841
vt 0.872878 0.679896
vt 0.966411 0.641395
vt 0.873611 0.696295
vt 0.199980 0.767143
vt 0.379130 0.867491
vt 0.701246 0.798317
vt 0.535722 0.767667
vt 0.370224 0.765536
vt 0.578520 0.830860
vt 0.570663 0.788974
vt 0.626882 0.846642
vt 0.378104 0.656398
vt 0.675993 0.861915
vt 0.548433 0.656398
vt 0.675993 0.696067
vt 0.873504 0.754958
vt 0.815038 0.422668
vt 0.878581 0.427941
vt 0.816797 0.439302
vt 0.818679 0.456208
vt 0.347772 0.752499
vt 0.317562 0.736117
vt 0.693833 0.703256
vt 0.693833 0.778770
vt 0.693833 0.741013
vt 0.853164 0.869313
vt 0.833511 0.858334
vt 0.724308 0.934591
vt 0.718602 0.934709
vt 0.700559 0.914865
vt 0.700420 0.934985
vn 0.0000 1.0000 -0.0000
vn -0.5585 0.2971 0.7745
vn -0.4648 0.4135 0.7829
vn -0.3491 0.4096 0.8428
vn -0.2388 0.4080 0.8812
vn -0.3492 0.4096 0.8428
vn -0.4635 0.4156 0.7826
vn 0.5560 0.4196 0.7175
vn 0.5593 0.4188 0.7154
vn 0.5529 0.4186 0.7205
vn 0.5646 0.4205 0.7102
vn 0.8657 0.4465 0.2264
vn 0.8279 0.4438 0.3429
vn 0.8786 0.4489 0.1629
vn 0.8322 0.4408 0.3365
vn -0.7171 0.4278 0.5502
vn -0.6464 0.4290 0.6309
vn -0.7806 0.4376 0.4464
vn -0.7045 0.4282 0.5659
vn -0.7168 0.4280 0.5504
vn 0.4643 0.4174 0.7812
vn 0.5538 0.4152 0.7217
vn 0.5609 0.4174 0.7150
vn 0.4581 0.4137 0.7868
vn 0.7839 0.4372 0.4409
vn 0.7815 0.4399 0.4424
vn 0.5974 0.4254 0.6799
vn 0.6495 0.4280 0.6284
vn 0.7225 0.6566 -0.2163
vn 0.8892 0.4479 0.0940
vn 0.4358 0.2643 0.8604
vn 0.4359 0.2642 0.8603
vn -0.5520 0.4214 0.7195
vn -0.5522 0.4215 0.7194
vn -0.5548 0.4210 0.7176
vn 0.4378 0.7447 -0.5037
vn 0.8862 0.4485 0.1163
vn 0.7227 0.4298 0.5413
vn 0.7272 0.4274 0.5371
vn -0.4865 0.6028 0.6324
vn -0.4865 0.6029 0.6324
vn -0.4865 0.6028 0.6325
vn 0.4704 0.6970 -0.5412
vn 0.2173 0.7447 0.6310
vn 0.6079 0.3761 -0.6993
vn 0.8262 0.5072 -0.2454
vn 0.8014 0.4925 -0.3395
vn 0.6567 0.7432 0.1277
vn 0.6566 0.7433 0.1276
vn 0.6557 0.7441 0.1275
vn -0.4378 0.7447 0.5037
vn -0.4379 0.7447 0.5037
vn 0.3981 0.4733 0.7858
vn 0.2034 0.7808 0.5907
vn 0.6551 0.7447 0.1273
vn -0.8541 0.4930 -0.1660
vn -0.8541 0.4930 -0.1659
vn -0.8532 0.4946 -0.1658
vn -0.9387 0.2926 -0.1825
vn -0.9310 0.0163 -0.3646
vn -0.9310 0.0162 -0.3646
vn -0.9307 0.0297 -0.3645
vn -0.9303 0.0419 -0.3644
vn -0.5689 0.3596 0.7396
vn -0.5777 0.1567 0.8011
vn -0.5776 0.1567 0.8011
vn -0.5702 0.4946 0.6559
vn 0.8541 0.4930 0.1660
vn 0.8537 0.4935 0.1660
vn 0.8539 0.4933 0.1660
vn -0.3188 0.2027 -0.9259
vn -0.3188 0.2026 -0.9259
vn -0.8531 0.4946 -0.1658
vn -0.9298 0.0535 -0.3641
vn -0.1907 0.0384 0.9809
vn -0.0000 -1.0000 -0.0000
vn 0.8531 0.4946 0.1658
vn 0.8418 0.5144 0.1636
vn -0.1905 -0.0586 0.9799
vn 0.2564 -0.2636 -0.9299
vn 0.4839 -0.2670 -0.8334
vn 0.4921 -0.2709 -0.8273
vn -0.9254 -0.2934 -0.2400
vn -0.9485 -0.2929 -0.1202
vn -0.9484 -0.2918 -0.1241
vn -0.0008 0.4036 0.9149
vn -0.0005 0.4035 0.9150
vn 0.2381 0.4056 0.8825
vn -0.2432 0.4055 0.8811
vn 0.2509 -0.2613 -0.9321
vn 0.2417 0.4083 0.8803
vn -0.8648 0.4491 0.2247
vn -0.8884 0.4488 0.0967
vn -0.8917 0.4489 0.0577
vn -0.7823 0.4419 0.4391
vn -0.8648 0.4468 0.2292
vn -0.6883 -0.2775 -0.6703
vn -0.8357 -0.2881 -0.4676
vn -0.8316 -0.2844 -0.4770
vn -0.6804 -0.2774 -0.6783
vn -0.4837 -0.2704 -0.8324
vn -0.8934 0.4492 0.0000
vn -0.0000 0.0000 -1.0000
vn 0.9238 -0.2932 -0.2464
vn 0.9488 -0.2917 -0.1212
vn 0.9258 -0.2911 -0.2411
vn -0.4931 -0.2668 -0.8280
vn -0.2514 -0.2632 -0.9314
vn -0.2574 -0.2612 -0.9303
vn 0.7148 0.4340 0.5484
vn 0.7148 0.4340 0.5485
vn -0.0005 -0.2600 -0.9656
vn 0.6824 -0.2775 -0.6763
vn 0.6909 -0.2776 -0.6675
vn -0.0004 -0.2599 -0.9656
vn 0.8934 0.4492 -0.0000
vn 0.8914 0.4494 0.0581
vn -0.2814 0.3839 -0.8795
vn -0.9245 -0.2914 -0.2459
vn 0.8364 -0.2841 -0.4687
vn 0.8306 -0.2877 -0.4769
vn 0.2373 0.4372 -0.8675
vn 0.9480 -0.2928 -0.1248
vn -0.5612 0.4164 0.7153
vn -0.5654 0.4172 0.7116
vn -0.5596 0.4188 0.7152
vn -0.5661 0.4190 0.7100
vn 0.2830 0.4944 0.8219
vn 0.2830 0.4946 0.8218
vn 0.2830 0.4945 0.8218
vn 0.2830 0.4892 0.8250
vn 0.2745 0.5375 0.7973
vn 0.2746 0.5375 0.7973
vn -0.5521 0.4215 0.7195
vn -0.5521 0.4215 0.7194
vn -0.5520 0.4215 0.7195
vn -0.5521 0.4214 0.7194
vn -0.5660 0.4190 0.7100
vn -0.5529 0.4185 0.7205
s 1
f 1/1/1 2/2/1 3/3/1
f 1/1/1 4/4/1 2/2/1
f 4/4/1 1/1/1 5/5/1
f 5/5/1 1/1/1 6/6/1
f 5/5/1 6/6/1 7/7/1
f 5/5/1 7/7/1 8/8/1
f 9/9/1 10/10/1 11/11/1
f 10/10/1 9/9/1 12/12/1
f 12/12/1 9/9/1 13/13/1
f 12/12/1 13/13/1 14/14/1
f 12/12/1 14/14/1 15/15/1
f 12/16/2 16/17/2 17/18/2
f 16/17/2 12/16/2 15/19/2
f 18/20/3 19/21/4 20/22/5
f 19/21/4 18/20/3 21/23/4
f 21/23/4 18/20/3 2/24/6
f 2/24/6 18/20/3 22/25/4
f 2/24/6 22/25/4 1/26/4
f 22/25/4 18/20/3 23/27/7
f 24/28/8 25/29/9 26/30/10
f 25/29/9 24/28/8 27/31/11
f 28/32/12 9/33/13 29/34/14
f 9/33/13 28/32/12 13/35/15
f 29/34/14 9/33/13 30/36/13
f 30/36/13 9/33/13 31/37/13
f 32/38/16 33/39/17 34/40/18
f 33/39/17 32/38/16 35/41/19
f 35/41/19 32/38/16 36/42/20
f 37/43/21 38/44/22 39/45/23
f 40/46/24 38/44/22 37/43/21
f 38/44/22 40/46/24 41/47/22
f 42/48/25 13/35/15 28/32/12
f 13/35/15 42/48/25 14/49/26
f 43/50/27 27/31/11 24/28/8
f 27/31/11 43/50/27 44/51/28
f 28/32/12 45/52/29 46/53/30
f 45/52/29 28/32/12 29/34/14
f 47/54/31 1/26/31 3/55/31
f 1/26/32 47/54/32 22/25/32
f 22/25/31 6/56/31 1/26/31
f 6/56/31 22/25/31 48/57/31
f 49/58/33 33/39/17 35/41/19
f 33/39/17 49/58/33 50/59/34
f 33/39/17 50/59/34 51/60/35
f 52/61/36 53/62/36 54/63/36
f 53/62/36 52/61/36 29/64/36
f 53/62/36 29/64/36 30/65/36
f 29/64/14 52/61/37 45/66/29
f 44/67/28 55/68/38 42/69/25
f 55/68/38 44/67/28 56/70/39
f 56/70/39 44/67/28 43/71/27
f 27/31/11 39/45/23 25/29/9
f 39/45/23 27/31/11 37/43/21
f 57/72/40 26/30/41 58/73/40
f 26/30/41 57/72/40 24/28/40
f 24/28/40 57/72/40 43/50/42
f 43/50/42 57/72/40 56/74/42
f 30/65/43 59/75/43 53/62/43
f 59/75/43 30/65/43 31/76/43
f 60/77/44 61/78/44 62/79/44
f 61/78/44 60/77/44 58/80/44
f 61/78/44 58/80/44 63/81/44
f 17/82/1 64/83/1 65/84/1
f 64/83/1 17/82/1 57/85/1
f 57/85/1 17/82/1 16/86/1
f 57/85/1 16/86/1 56/70/1
f 56/70/1 16/86/1 55/68/1
f 9/33/45 59/87/46 31/37/45
f 59/87/46 9/33/45 11/88/47
f 59/75/48 60/77/49 53/62/50
f 60/77/49 59/75/48 65/84/48
f 60/77/49 65/84/48 64/83/48
f 38/44/51 61/89/51 63/90/51
f 61/89/51 38/44/51 41/47/52
f 10/91/53 17/18/53 65/92/53
f 17/18/53 10/91/53 12/16/53
f 64/83/54 58/80/54 60/77/54
f 58/80/54 64/83/54 57/85/54
f 26/93/1 63/81/1 58/80/1
f 63/81/1 26/93/1 25/94/1
f 63/81/1 25/94/1 39/95/1
f 63/81/1 39/95/1 38/96/1
f 53/62/50 62/79/55 54/63/55
f 62/79/55 53/62/50 60/77/49
f 35/97/56 66/98/56 49/99/56
f 66/98/56 35/97/56 36/100/57
f 66/98/56 36/100/57 67/101/58
f 49/99/59 68/102/59 50/103/59
f 68/102/59 49/99/59 69/104/59
f 69/104/59 49/99/59 66/98/59
f 70/105/60 71/106/61 72/107/61
f 71/106/61 70/105/60 73/108/62
f 71/106/61 73/108/62 7/109/63
f 5/110/64 74/111/64 75/112/64
f 74/111/64 5/110/64 8/113/64
f 48/57/65 7/114/66 6/56/66
f 7/114/66 48/57/65 71/115/65
f 76/116/67 77/117/67 78/118/67
f 77/117/67 76/116/67 79/119/67
f 4/120/68 21/121/69 2/122/68
f 21/121/69 4/120/68 80/123/70
f 68/124/71 51/125/71 50/126/71
f 51/125/71 68/124/71 81/127/72
f 32/128/58 67/101/58 36/100/57
f 67/101/58 32/128/58 77/129/73
f 67/101/58 77/129/73 79/130/73
f 82/131/74 7/109/63 73/108/62
f 7/109/63 82/131/74 8/132/74
f 8/132/74 82/131/74 74/133/74
f 83/134/75 66/135/75 84/136/75
f 66/135/75 83/134/75 69/137/75
f 69/137/75 83/134/75 85/138/75
f 69/137/75 85/138/75 70/139/75
f 69/137/75 70/139/75 72/140/75
f 52/141/76 86/142/76 87/143/76
f 86/142/76 52/141/76 88/144/76
f 52/141/76 61/145/76 88/144/76
f 52/141/76 62/146/76 61/145/76
f 62/146/76 52/141/76 54/147/76
f 88/144/76 61/145/76 89/148/76
f 89/148/76 61/145/76 90/149/76
f 90/149/76 61/145/76 41/150/76
f 90/149/76 41/150/76 91/151/76
f 91/151/76 41/150/76 40/152/76
f 91/151/76 40/152/76 92/153/76
f 91/151/76 92/153/76 93/154/76
f 93/154/76 92/153/76 94/155/76
f 94/155/76 92/153/76 95/156/76
f 94/155/76 95/156/76 96/157/76
f 96/157/76 95/156/76 20/158/76
f 96/157/76 20/158/76 97/159/76
f 97/159/76 20/158/76 98/160/76
f 98/160/76 20/158/76 19/161/76
f 98/160/76 19/161/76 99/162/76
f 99/162/76 19/161/76 78/163/76
f 99/162/76 78/163/76 100/164/76
f 100/164/76 78/163/76 101/165/76
f 101/165/76 78/163/76 77/166/76
f 101/165/76 77/166/76 32/167/76
f 101/165/76 32/167/76 102/168/76
f 32/167/76 103/169/76 102/168/76
f 103/169/76 32/167/76 34/170/76
f 103/169/76 34/170/76 104/171/76
f 103/169/76 104/171/76 105/172/76
f 19/173/77 21/121/69 80/123/70
f 106/174/1 72/175/1 107/176/1
f 72/175/1 106/174/1 69/177/1
f 69/177/1 106/174/1 81/178/1
f 69/177/1 81/178/1 68/179/1
f 71/180/1 107/176/1 72/175/1
f 48/181/1 107/176/1 71/180/1
f 48/181/1 23/182/1 107/176/1
f 23/182/1 48/181/1 22/183/1
f 11/88/47 65/184/78 59/87/46
f 65/184/78 11/88/47 10/185/78
f 84/136/79 67/186/79 108/187/79
f 67/186/79 84/136/79 66/135/79
f 109/188/1 74/189/1 82/190/1
f 79/191/1 74/189/1 109/188/1
f 76/192/1 74/189/1 79/191/1
f 74/189/1 76/192/1 75/193/1
f 79/191/1 109/188/1 110/194/1
f 79/191/1 110/194/1 108/195/1
f 79/191/1 108/195/1 67/196/1
f 111/197/80 98/198/81 112/199/82
f 113/200/83 114/201/84 88/202/85
f 115/203/86 95/204/87 92/205/88
f 18/20/3 20/22/5 116/206/89
f 111/197/80 97/207/90 98/198/81
f 117/208/91 92/205/88 40/46/24
f 118/209/92 119/210/93 105/211/94
f 33/39/17 120/212/95 34/40/18
f 120/212/95 118/213/92 104/214/96
f 121/215/97 122/216/98 90/217/99
f 117/208/91 40/46/24 37/43/21
f 115/203/86 92/205/88 117/208/91
f 121/215/97 91/218/100 93/219/101
f 116/206/89 20/22/5 95/204/87
f 34/40/18 120/212/95 104/214/96
f 105/211/94 123/220/102 103/221/102
f 123/220/102 105/211/94 119/210/93
f 123/222/103 102/223/103 103/224/103
f 102/223/103 123/222/103 124/225/103
f 124/225/103 123/222/103 125/226/103
f 101/227/104 124/228/105 126/229/106
f 127/230/107 94/231/108 128/232/109
f 127/230/107 93/233/101 94/231/108
f 121/215/97 93/219/101 127/234/107
f 91/218/100 121/215/97 90/217/99
f 104/235/96 118/209/92 105/211/94
f 116/206/89 95/204/87 115/203/86
f 42/69/25 15/15/110 14/14/26
f 15/15/110 42/69/25 55/68/38
f 15/15/110 55/68/38 16/86/111
f 129/236/112 97/207/90 111/197/80
f 112/237/82 99/238/113 130/239/114
f 129/236/112 96/240/115 97/207/90
f 131/241/1 28/242/1 46/243/1
f 28/242/1 131/241/1 42/69/1
f 42/69/1 131/241/1 44/67/1
f 44/67/1 131/241/1 114/244/1
f 44/67/1 114/244/1 27/245/1
f 27/245/1 114/244/1 113/246/1
f 27/245/1 113/246/1 37/247/1
f 37/247/1 113/246/1 122/248/1
f 37/247/1 122/248/1 121/249/1
f 37/247/1 121/249/1 117/250/1
f 117/250/1 121/249/1 127/251/1
f 117/250/1 127/251/1 128/252/1
f 117/250/1 128/252/1 115/253/1
f 115/253/1 128/252/1 129/254/1
f 115/253/1 129/254/1 111/255/1
f 115/253/1 111/255/1 116/256/1
f 116/256/1 111/255/1 112/257/1
f 116/256/1 112/257/1 18/258/1
f 18/258/1 112/257/1 130/259/1
f 18/258/1 130/259/1 132/260/1
f 18/258/1 132/260/1 133/261/1
f 133/261/1 132/260/1 126/262/1
f 133/261/1 126/262/1 124/263/1
f 133/261/1 124/263/1 125/264/1
f 133/261/1 125/264/1 33/265/1
f 33/265/1 125/264/1 120/266/1
f 120/266/1 125/264/1 119/267/1
f 120/266/1 119/267/1 118/268/1
f 46/53/30 86/269/116 134/270/116
f 86/269/116 46/53/30 87/271/117
f 125/226/118 123/222/118 119/272/118
f 112/237/82 98/273/81 99/238/113
f 90/217/99 122/216/98 89/274/119
f 99/238/113 132/275/120 130/239/114
f 99/238/113 100/276/121 132/275/120
f 46/277/122 134/278/122 131/279/122
f 100/276/121 126/229/106 132/275/120
f 101/227/104 102/280/123 124/228/105
f 100/276/121 101/227/104 126/229/106
f 114/281/103 86/282/103 88/283/103
f 86/282/103 114/281/103 134/278/103
f 134/278/103 114/281/103 131/279/103
f 128/232/109 94/231/108 96/240/115
f 122/216/98 113/200/83 89/274/119
f 89/274/119 113/200/83 88/202/85
f 128/232/109 96/240/115 129/236/112
f 45/52/29 87/271/117 46/53/30
f 87/271/117 45/52/29 52/284/37
f 18/20/3 107/285/124 23/27/7
f 107/285/124 18/20/3 133/286/125
f 133/286/125 106/287/126 107/285/124
f 133/286/125 81/288/127 106/287/126
f 33/39/17 81/288/127 133/286/125
f 81/288/127 33/39/17 51/60/35
f 80/289/128 78/118/129 19/290/129
f 78/118/129 80/289/128 76/116/130
f 76/291/130 80/292/128 75/293/131
f 4/294/132 75/112/132 80/295/133
f 75/112/132 4/294/132 5/110/132
f 110/296/134 84/136/135 108/187/136
f 84/136/135 110/296/134 83/134/137
f 85/138/138 110/296/138 109/297/138
f 110/296/138 85/138/138 83/134/138
f 73/298/139 109/297/139 82/299/139
f 109/297/139 73/298/139 85/138/139
f 85/138/139 73/298/139 70/139/139
