# Blender v2.92.0 OBJ File: 'kenney_OGConvert.blend'
# www.blender.org
o treePine
v -0.000000 0.057596 -0.110428
v 0.112847 0.000000 -0.065152
v -0.000000 0.000000 -0.130305
v 0.095633 0.057596 -0.055214
v 0.095633 0.057596 0.055214
v 0.000000 -0.000000 0.130305
v 0.112847 -0.000000 0.065152
v 0.000000 0.057596 0.110428
v 0.083889 0.186340 -0.048433
v 0.083889 0.186340 0.048433
v -0.083889 0.186340 -0.048433
v -0.095633 0.057596 -0.055214
v -0.000000 0.186340 -0.096867
v 0.000000 0.186340 0.096867
v -0.112847 0.000000 -0.065152
v -0.112847 -0.000000 0.065152
v -0.095633 0.057596 0.055214
v -0.083889 0.186340 0.048433
v -0.325508 0.186340 0.187932
v -0.209415 0.455721 -0.120906
v -0.325508 0.186340 -0.187932
v -0.216632 0.438976 0.125072
v 0.264472 0.476532 0.138149
v -0.009245 0.787532 0.176901
v 0.011194 0.446755 0.283473
v 0.154798 0.759481 0.099094
v -0.000000 0.186340 -0.375865
v -0.000000 0.479608 -0.229925
v 0.014472 1.122457 0.126810
v -0.214998 0.810400 0.123775
v -0.019708 0.793958 0.238603
v -0.107616 1.117984 0.060894
v 0.152531 1.135038 0.071070
v 0.127336 1.134346 0.053468
v 0.152531 1.144400 -0.091031
v 0.012215 1.120867 0.151698
v -0.128101 1.116056 0.070226
v 0.125134 1.141466 -0.072412
v 0.012215 1.139589 -0.172503
v 0.018223 1.137950 -0.137062
v -0.100836 1.126430 -0.077394
v -0.128101 1.125417 -0.091874
v 0.000000 0.186340 0.375865
v 0.325508 0.186340 -0.187932
v 0.325508 0.186340 0.187932
v -0.005958 0.757587 -0.184232
v 0.264472 0.495771 -0.154540
v 0.011194 0.485233 -0.301903
v 0.166570 0.742109 -0.094442
v -0.157371 0.786200 -0.079115
v -0.242084 0.455457 -0.156579
v -0.019708 0.756953 -0.214246
v 0.175581 0.740511 -0.099418
v 0.175581 0.759013 0.127006
v -0.151306 0.799167 0.089384
v -0.214998 0.791897 -0.102649
v 0.195699 0.487548 -0.112987
v 0.201987 0.472958 0.116617
v 0.000000 0.448359 0.245475
v -0.242084 0.436218 0.136110
v -0.012215 1.598415 0.010402
vt 0.953340 0.431248
vt 0.996789 0.408357
vt 0.981691 0.441354
vt 0.966134 0.403285
vt 0.966134 0.346955
vt 0.981691 0.308415
vt 0.996789 0.341889
vt 0.953340 0.318588
vt 0.901189 0.399875
vt 0.901189 0.350463
vt 0.307367 0.623570
vt 0.255491 0.655234
vt 0.242476 0.627037
vt 0.318784 0.648304
vt 0.889965 0.424404
vt 0.889965 0.325579
vt 0.227176 0.665378
vt 0.211818 0.632106
vt 0.211818 0.565637
vt 0.242476 0.570707
vt 0.255491 0.542573
vt 0.227176 0.532439
vt 0.307367 0.574158
vt 0.326944 0.492781
vt 0.269381 0.393083
vt 0.326944 0.426314
vt 0.211818 0.426319
vt 0.269381 0.526017
vt 0.211818 0.492787
vt 0.318784 0.549479
vt 0.353836 0.401182
vt 0.491811 0.567794
vt 0.341715 0.592530
vt 0.490548 0.441986
vt 0.606611 0.223262
vt 0.794024 0.258942
vt 0.619640 0.299271
vt 0.761677 0.216120
vt 0.379857 0.691113
vt 0.528454 0.625905
vt 0.735314 0.764447
vt 0.550916 0.754817
vt 0.572903 0.697529
vt 0.714510 0.796836
vt 0.872013 0.168737
vt 0.873325 0.153115
vt 0.943580 0.127232
vt 0.800446 0.127479
vt 0.812012 0.122102
vt 0.809817 0.051363
vt 0.800446 0.044716
vt 0.928337 0.119912
vt 0.943580 0.044469
vt 0.929473 0.056194
vt 0.872609 0.018947
vt 0.872013 0.003211
vt 0.335293 0.290790
vt 0.169252 0.003211
vt 0.335293 0.099065
vt 0.212043 0.170228
vt 0.212044 0.219639
vt 0.169251 0.386662
vt 0.169252 0.244347
vt 0.126460 0.219644
vt 0.169252 0.145525
vt 0.003211 0.099082
vt 0.126460 0.170233
vt 0.003211 0.290807
vt 0.794024 0.074112
vt 0.628313 0.075231
vt 0.663043 0.003211
vt 0.759694 0.116884
vt 0.194730 0.566284
vt 0.078869 0.689331
vt 0.024175 0.619135
vt 0.205397 0.619292
vt 0.034310 0.695753
vt 0.207767 0.758497
vt 0.003211 0.755651
vt 0.218591 0.725128
vt 0.528454 0.754653
vt 0.510833 0.756810
vt 0.428177 0.697534
vt 0.528454 0.869241
vt 0.428101 0.702778
vt 0.503776 0.849045
vt 0.429065 0.889844
vt 0.428177 0.926710
vt 0.352907 0.850022
vt 0.327900 0.755003
vt 0.344673 0.756489
vt 0.327900 0.869592
vt 0.721087 0.373405
vt 0.534875 0.406159
vt 0.572313 0.308415
vt 0.702607 0.433928
vt 0.547012 0.597504
vt 0.702013 0.551319
vt 0.596586 0.691108
vt 0.721087 0.616414
vt 0.534875 0.869561
vt 0.735314 0.899295
vt 0.540822 0.927018
vt 0.715324 0.867557
vt 0.036941 0.393083
vt 0.195269 0.480033
vt 0.003211 0.471010
vt 0.205397 0.434519
vt 0.207367 0.822819
vt 0.064707 0.925446
vt 0.018409 0.870498
vt 0.218591 0.859935
vt 0.528454 0.382916
vt 0.404101 0.308415
vt 0.600190 0.227691
vt 0.568306 0.216732
vt 0.600190 0.078298
vt 0.470952 0.301994
vt 0.465240 0.282605
vt 0.341715 0.226906
vt 0.354702 0.221260
vt 0.565097 0.099542
vt 0.470952 0.003211
vt 0.465240 0.039955
vt 0.341714 0.077514
vt 0.358384 0.095706
vt 0.883544 0.308415
vt 0.757471 0.529773
vt 0.727508 0.493910
vt 0.835489 0.557553
vt 0.883544 0.549469
vt 0.897326 0.697529
vt 0.897326 0.946595
vt 0.854252 0.945857
vt 0.776457 0.917443
vt 0.741735 0.889768
vn 0.4791 0.2864 -0.8298
vn 0.4791 0.2864 0.8298
vn 0.9959 0.0908 -0.0000
vn -0.4979 0.0908 -0.8624
vn 0.4979 0.0908 -0.8624
vn 0.4979 0.0908 0.8624
vn -0.4791 0.2864 -0.8298
vn 0.9581 0.2864 -0.0000
vn -0.9581 0.2864 0.0000
vn -0.4791 0.2864 0.8298
vn -0.9959 0.0908 0.0000
vn -0.0000 -1.0000 -0.0000
vn -0.4979 0.0908 0.8624
vn -0.9183 0.3958 -0.0000
vn 0.4502 0.2910 0.8442
vn -0.4592 0.3958 -0.7953
vn -0.4580 0.3287 0.8259
vn -0.4580 0.3287 0.8260
vn 0.0675 -0.9961 -0.0575
vn 0.0676 -0.9961 -0.0575
vn 0.4539 0.3773 -0.8072
vn -0.4998 0.3168 -0.8061
vn 0.5107 0.1216 -0.8511
vn -0.1307 -0.9881 0.0807
vn 0.4592 0.3958 -0.7953
vn 0.9310 0.3642 0.0239
vn 0.9183 0.3958 -0.0000
vn 0.4592 0.3958 0.7953
vn -0.4540 0.2201 -0.8634
vn -0.9455 0.3246 -0.0265
vn -0.9455 0.3247 -0.0265
vn -0.4964 0.2319 0.8366
vn 0.5135 0.2281 0.8272
vn -0.4592 0.3958 0.7953
vn -0.9695 0.2446 0.0161
vn 0.0794 -0.9947 -0.0654
vn 0.9920 0.1255 -0.0103
vn -0.4952 0.2231 0.8397
vn -0.9719 0.2352 0.0136
vn -0.4980 0.2981 -0.8143
vn 0.4583 0.2736 0.8456
vn 0.4614 0.3496 -0.8154
vn 0.9412 0.3372 0.0195
s 1
f 1/1/1 2/2/1 3/3/1
f 2/2/1 1/1/1 4/4/1
f 5/5/2 6/6/2 7/7/2
f 6/6/2 5/5/2 8/8/2
f 9/9/3 5/5/3 4/4/3
f 5/5/3 9/9/3 10/10/3
f 11/11/4 1/12/4 12/13/4
f 1/12/4 11/11/4 13/14/4
f 13/15/5 4/4/5 1/1/5
f 4/4/5 13/15/5 9/9/5
f 10/10/6 8/8/6 5/5/6
f 8/8/6 10/10/6 14/16/6
f 12/13/7 3/17/7 15/18/7
f 3/17/7 12/13/7 1/12/7
f 4/4/8 7/7/8 2/2/8
f 7/7/8 4/4/8 5/5/8
f 16/19/9 12/13/9 15/18/9
f 12/13/9 16/19/9 17/20/9
f 8/21/10 16/19/10 6/22/10
f 16/19/10 8/21/10 17/20/10
f 17/20/11 11/11/11 12/13/11
f 11/11/11 17/20/11 18/23/11
f 6/24/12 2/25/12 7/26/12
f 2/25/12 6/24/12 3/27/12
f 3/27/12 6/24/12 16/28/12
f 3/27/12 16/28/12 15/29/12
f 14/30/13 17/20/13 8/21/13
f 17/20/13 14/30/13 18/23/13
f 19/31/14 20/32/14 21/33/14
f 20/32/14 19/31/14 22/34/14
f 23/35/15 24/36/15 25/37/15
f 24/36/15 23/35/15 26/38/15
f 20/32/16 27/39/16 21/33/16
f 27/39/16 20/32/16 28/40/16
f 29/41/17 30/42/18 31/43/18
f 30/42/18 29/41/17 32/44/17
f 33/45/19 34/46/19 35/47/20
f 34/46/19 33/45/19 36/48/19
f 34/46/19 36/48/19 29/49/19
f 29/49/19 36/48/19 32/50/19
f 32/50/19 36/48/19 37/51/19
f 38/52/20 35/47/20 34/46/19
f 35/47/20 38/52/20 39/53/19
f 39/53/19 38/52/20 40/54/19
f 39/53/19 40/54/19 41/55/20
f 39/53/19 41/55/20 42/56/20
f 42/56/20 41/55/20 32/50/19
f 42/56/20 32/50/19 37/51/19
f 43/57/12 44/58/12 45/59/12
f 44/58/12 43/57/12 10/60/12
f 10/60/12 43/57/12 14/61/12
f 14/61/12 43/57/12 19/62/12
f 14/61/12 19/62/12 18/63/12
f 18/63/12 19/62/12 11/64/12
f 9/65/12 44/58/12 10/60/12
f 44/58/12 9/65/12 27/66/12
f 27/66/12 9/65/12 13/67/12
f 27/66/12 13/67/12 11/64/12
f 27/66/12 11/64/12 21/68/12
f 21/68/12 11/64/12 19/62/12
f 46/69/21 47/70/21 48/71/21
f 47/70/21 46/69/21 49/72/21
f 50/73/22 48/74/22 51/75/22
f 48/74/22 50/73/22 46/76/22
f 52/77/23 38/78/23 53/79/23
f 38/78/23 52/77/23 40/80/23
f 54/81/24 26/82/24 53/83/24
f 26/82/24 54/81/24 31/84/24
f 53/83/24 26/82/24 49/85/24
f 26/82/24 31/84/24 24/86/24
f 24/86/24 31/84/24 55/87/24
f 55/87/24 31/84/24 30/88/24
f 55/87/24 30/88/24 50/89/24
f 49/85/24 52/90/24 53/83/24
f 52/90/24 49/85/24 46/91/24
f 52/90/24 46/91/24 50/89/24
f 52/90/24 50/89/24 56/92/24
f 56/92/24 50/89/24 30/88/24
f 28/93/25 44/94/25 27/95/25
f 44/94/25 28/93/25 57/96/25
f 49/72/26 23/35/26 47/70/26
f 23/35/26 49/72/26 26/38/26
f 57/96/27 45/97/27 44/94/27
f 45/97/27 57/96/27 58/98/27
f 58/98/28 43/99/28 45/97/28
f 43/99/28 58/98/28 59/100/28
f 56/101/29 40/102/29 52/103/29
f 40/102/29 56/101/29 41/104/29
f 30/42/30 41/104/31 56/101/30
f 41/104/31 30/42/30 32/44/31
f 25/105/32 55/106/32 60/107/32
f 55/106/32 25/105/32 24/108/32
f 34/109/33 31/110/33 54/111/33
f 31/110/33 34/109/33 29/112/33
f 59/113/34 19/31/34 43/114/34
f 19/31/34 59/113/34 22/34/34
f 60/107/35 50/73/35 51/75/35
f 50/73/35 60/107/35 55/106/35
f 23/115/36 58/116/36 47/117/36
f 58/116/36 23/115/36 25/118/36
f 58/116/36 25/118/36 59/119/36
f 59/119/36 25/118/36 60/120/36
f 59/119/36 60/120/36 22/121/36
f 57/122/36 47/117/36 58/116/36
f 47/117/36 57/122/36 48/123/36
f 48/123/36 57/122/36 28/124/36
f 48/123/36 28/124/36 51/125/36
f 51/125/36 22/121/36 60/120/36
f 51/125/36 28/124/36 20/126/36
f 51/125/36 20/126/36 22/121/36
f 38/78/37 54/111/37 53/79/37
f 54/111/37 38/78/37 34/109/37
f 61/127/38 37/128/38 36/129/38
f 37/128/39 61/127/39 42/130/39
f 61/127/40 39/131/40 42/130/40
f 61/132/41 36/133/41 33/134/41
f 61/132/42 35/135/42 39/136/42
f 33/134/43 35/135/43 61/132/43
