# Blender v2.93.1 OBJ File: 'flag.blend'
# www.blender.org
mtllib flag.mtl
o Cube
v 0.005000 0.500000 -1.000000
v 0.005000 -0.500000 -1.000000
v 0.005000 0.500000 1.000000
v 0.005000 -0.500000 1.000000
v -0.005000 0.500000 -1.000000
v -0.005000 -0.500000 -1.000000
v -0.005000 0.500000 1.000000
v -0.005000 -0.500000 1.000000
v -0.005000 -0.500000 -0.818182
v -0.005000 -0.500000 -0.636364
v -0.005000 -0.500000 -0.454545
v -0.005000 -0.500000 -0.272727
v -0.005000 -0.500000 -0.090909
v -0.005000 -0.500000 0.090909
v -0.005000 -0.500000 0.272727
v -0.005000 -0.500000 0.454545
v -0.005000 -0.500000 0.636364
v -0.005000 -0.500000 0.818182
v 0.005000 0.500000 -0.818182
v 0.005000 0.500000 -0.636364
v 0.005000 0.500000 -0.454545
v 0.005000 0.500000 -0.272727
v 0.005000 0.500000 -0.090909
v 0.005000 0.500000 0.090909
v 0.005000 0.500000 0.272727
v 0.005000 0.500000 0.454545
v 0.005000 0.500000 0.636364
v 0.005000 0.500000 0.818182
v -0.005000 0.500000 0.818182
v -0.005000 0.500000 0.636364
v -0.005000 0.500000 0.454545
v -0.005000 0.500000 0.272727
v -0.005000 0.500000 0.090909
v -0.005000 0.500000 -0.090909
v -0.005000 0.500000 -0.272727
v -0.005000 0.500000 -0.454545
v -0.005000 0.500000 -0.636364
v -0.005000 0.500000 -0.818182
v 0.005000 -0.500000 0.818182
v 0.005000 -0.500000 0.636364
v 0.005000 -0.500000 0.454545
v 0.005000 -0.500000 0.272727
v 0.005000 -0.500000 0.090909
v 0.005000 -0.500000 -0.090909
v 0.005000 -0.500000 -0.272727
v 0.005000 -0.500000 -0.454545
v 0.005000 -0.500000 -0.636364
v 0.005000 -0.500000 -0.818182
v 0.005000 0.333333 -1.000000
v 0.005000 0.166667 -1.000000
v 0.005000 -0.000000 -1.000000
v 0.005000 -0.166667 -1.000000
v 0.005000 -0.333333 -1.000000
v -0.005000 -0.333333 1.000000
v -0.005000 -0.166667 1.000000
v -0.005000 0.000000 1.000000
v -0.005000 0.166667 1.000000
v -0.005000 0.333333 1.000000
v 0.005000 0.333333 1.000000
v 0.005000 0.166667 1.000000
v 0.005000 -0.000000 1.000000
v 0.005000 -0.166667 1.000000
v 0.005000 -0.333333 1.000000
v -0.005000 0.333333 -1.000000
v -0.005000 0.166667 -1.000000
v -0.005000 -0.000000 -1.000000
v -0.005000 -0.166667 -1.000000
v -0.005000 -0.333333 -1.000000
v 0.005000 0.333333 -0.818182
v 0.005000 0.166667 -0.818182
v 0.005000 -0.000000 -0.818182
v 0.005000 -0.166667 -0.818182
v 0.005000 -0.333333 -0.818182
v 0.005000 0.333333 -0.636364
v 0.005000 0.166667 -0.636364
v 0.005000 -0.000000 -0.636364
v 0.005000 -0.166667 -0.636364
v 0.005000 -0.333333 -0.636364
v 0.005000 0.333333 -0.454545
v 0.005000 0.166667 -0.454545
v 0.005000 -0.000000 -0.454545
v 0.005000 -0.166667 -0.454545
v 0.005000 -0.333333 -0.454545
v 0.005000 0.333333 -0.272727
v 0.005000 0.166667 -0.272727
v 0.005000 -0.000000 -0.272727
v 0.005000 -0.166667 -0.272727
v 0.005000 -0.333333 -0.272727
v 0.005000 0.333333 -0.090909
v 0.005000 0.166667 -0.090909
v 0.005000 -0.000000 -0.090909
v 0.005000 -0.166667 -0.090909
v 0.005000 -0.333333 -0.090909
v 0.005000 0.333333 0.090909
v 0.005000 0.166667 0.090909
v 0.005000 -0.000000 0.090909
v 0.005000 -0.166667 0.090909
v 0.005000 -0.333333 0.090909
v 0.005000 0.333333 0.272727
v 0.005000 0.166667 0.272727
v 0.005000 -0.000000 0.272727
v 0.005000 -0.166667 0.272727
v 0.005000 -0.333333 0.272727
v 0.005000 0.333333 0.454545
v 0.005000 0.166667 0.454545
v 0.005000 -0.000000 0.454545
v 0.005000 -0.166667 0.454545
v 0.005000 -0.333333 0.454545
v 0.005000 0.333333 0.636364
v 0.005000 0.166667 0.636364
v 0.005000 -0.000000 0.636364
v 0.005000 -0.166667 0.636364
v 0.005000 -0.333333 0.636364
v 0.005000 0.333333 0.818182
v 0.005000 0.166667 0.818182
v 0.005000 -0.000000 0.818182
v 0.005000 -0.166667 0.818182
v 0.005000 -0.333333 0.818182
v -0.005000 0.333333 0.818182
v -0.005000 0.166667 0.818182
v -0.005000 -0.000000 0.818182
v -0.005000 -0.166667 0.818182
v -0.005000 -0.333333 0.818182
v -0.005000 0.333333 0.636364
v -0.005000 0.166667 0.636364
v -0.005000 -0.000000 0.636364
v -0.005000 -0.166667 0.636364
v -0.005000 -0.333333 0.636364
v -0.005000 0.333333 0.454545
v -0.005000 0.166667 0.454545
v -0.005000 -0.000000 0.454545
v -0.005000 -0.166667 0.454545
v -0.005000 -0.333333 0.454545
v -0.005000 0.333333 0.272727
v -0.005000 0.166667 0.272727
v -0.005000 -0.000000 0.272727
v -0.005000 -0.166667 0.272727
v -0.005000 -0.333333 0.272727
v -0.005000 0.333333 0.090909
v -0.005000 0.166667 0.090909
v -0.005000 -0.000000 0.090909
v -0.005000 -0.166667 0.090909
v -0.005000 -0.333333 0.090909
v -0.005000 0.333333 -0.090909
v -0.005000 0.166667 -0.090909
v -0.005000 -0.000000 -0.090909
v -0.005000 -0.166667 -0.090909
v -0.005000 -0.333333 -0.090909
v -0.005000 0.333333 -0.272727
v -0.005000 0.166667 -0.272727
v -0.005000 -0.000000 -0.272727
v -0.005000 -0.166667 -0.272727
v -0.005000 -0.333333 -0.272727
v -0.005000 0.333333 -0.454545
v -0.005000 0.166667 -0.454545
v -0.005000 -0.000000 -0.454545
v -0.005000 -0.166667 -0.454545
v -0.005000 -0.333333 -0.454545
v -0.005000 0.333333 -0.636364
v -0.005000 0.166667 -0.636364
v -0.005000 -0.000000 -0.636364
v -0.005000 -0.166667 -0.636364
v -0.005000 -0.333333 -0.636364
v -0.005000 0.333333 -0.818182
v -0.005000 0.166667 -0.818182
v -0.005000 -0.000000 -0.818182
v -0.005000 -0.166667 -0.818182
v -0.005000 -0.333333 -0.818182
vt 0.990148 0.895656
vt 0.985221 0.985221
vt 0.985221 0.895656
vt 1.000000 0.492611
vt 0.995074 0.410509
vt 1.000000 0.410509
vt 0.000000 0.089566
vt 0.082102 0.000000
vt 0.082102 0.089566
vt 0.995074 0.895656
vt 0.990148 0.985221
vt 0.990148 0.895656
vt 0.492611 0.089566
vt 0.574713 0.000000
vt 0.574713 0.089566
vt 1.000000 0.985221
vt 0.995074 0.903120
vt 1.000000 0.903120
vt 0.492611 0.985221
vt 0.574713 0.895656
vt 0.574713 0.985221
vt 0.492611 0.895656
vt 0.574713 0.806090
vt 0.492611 0.806090
vt 0.574713 0.716525
vt 0.492611 0.716525
vt 0.574713 0.626959
vt 0.492611 0.626959
vt 0.574713 0.537393
vt 0.492611 0.537393
vt 0.574713 0.447828
vt 0.492611 0.447828
vt 0.574713 0.358262
vt 0.492611 0.358262
vt 0.574713 0.268697
vt 0.492611 0.268697
vt 0.574713 0.179131
vt 0.492611 0.179131
vt 0.995074 0.000000
vt 0.990148 0.089566
vt 0.990148 0.000000
vt 0.995074 0.089566
vt 0.990148 0.179131
vt 0.995074 0.268697
vt 0.990148 0.268697
vt 0.995074 0.358262
vt 0.990148 0.358262
vt 0.995074 0.447828
vt 0.990148 0.447828
vt 0.995074 0.537393
vt 0.990148 0.537394
vt 0.995074 0.626959
vt 0.990148 0.626959
vt 0.995074 0.716525
vt 0.990148 0.716525
vt 0.995074 0.806090
vt 0.990148 0.806090
vt 0.000000 0.985221
vt 0.082102 0.895656
vt 0.082102 0.985221
vt 0.000000 0.895656
vt 0.082102 0.806090
vt 0.000000 0.806090
vt 0.082102 0.716525
vt 0.000000 0.716525
vt 0.082102 0.626959
vt 0.000000 0.626959
vt 0.082102 0.537393
vt 0.000000 0.537393
vt 0.082102 0.447828
vt 0.000000 0.447828
vt 0.082102 0.358262
vt 0.000000 0.358262
vt 0.082102 0.268697
vt 0.000000 0.268697
vt 0.082102 0.179131
vt 0.000000 0.179131
vt 0.990148 0.000000
vt 0.985222 0.089566
vt 0.985222 0.000000
vt 0.990148 0.089566
vt 0.985222 0.179131
vt 0.990148 0.268697
vt 0.985222 0.268697
vt 0.990148 0.358262
vt 0.985221 0.358262
vt 0.990148 0.447828
vt 0.985221 0.447828
vt 0.990148 0.537393
vt 0.985221 0.537394
vt 0.990148 0.626959
vt 0.985221 0.626959
vt 0.990148 0.716525
vt 0.985221 0.716525
vt 0.990148 0.806090
vt 0.985221 0.806090
vt 0.410509 0.179131
vt 0.492611 0.089566
vt 0.492611 0.179131
vt 0.328407 0.179131
vt 0.410509 0.089566
vt 0.246305 0.179131
vt 0.328407 0.089566
vt 0.164204 0.179131
vt 0.246305 0.089566
vt 0.164204 0.089566
vt 0.410509 0.268697
vt 0.492611 0.268697
vt 0.328407 0.268697
vt 0.246305 0.268697
vt 0.164204 0.268697
vt 0.410509 0.358262
vt 0.492611 0.358262
vt 0.328407 0.358262
vt 0.246305 0.358262
vt 0.164204 0.358262
vt 0.410509 0.447828
vt 0.492611 0.447828
vt 0.246305 0.447828
vt 0.328407 0.447828
vt 0.164204 0.447828
vt 0.410509 0.537394
vt 0.492611 0.537394
vt 0.328407 0.537394
vt 0.246305 0.537394
vt 0.164204 0.537394
vt 0.410509 0.626959
vt 0.492611 0.626959
vt 0.328407 0.626959
vt 0.246305 0.626959
vt 0.164204 0.626959
vt 0.410509 0.716525
vt 0.492611 0.716525
vt 0.328407 0.716525
vt 0.246305 0.716525
vt 0.164204 0.716525
vt 0.410509 0.806090
vt 0.492611 0.806090
vt 0.328407 0.806090
vt 0.246305 0.806090
vt 0.164204 0.806090
vt 0.410509 0.895656
vt 0.492611 0.895656
vt 0.328407 0.895656
vt 0.246305 0.895656
vt 0.164204 0.895656
vt 0.410509 0.985221
vt 0.492611 0.985221
vt 0.328407 0.985221
vt 0.246305 0.985221
vt 0.164204 0.985221
vt 0.903120 0.179131
vt 0.985221 0.089566
vt 0.985221 0.179131
vt 0.821018 0.179131
vt 0.903120 0.089566
vt 0.738916 0.179131
vt 0.821018 0.089566
vt 0.656814 0.179131
vt 0.738916 0.089566
vt 0.656814 0.089566
vt 0.903120 0.268697
vt 0.985221 0.268697
vt 0.821018 0.268697
vt 0.738916 0.268697
vt 0.656814 0.268697
vt 0.903120 0.358262
vt 0.985221 0.358262
vt 0.821018 0.358262
vt 0.738916 0.358262
vt 0.656814 0.358262
vt 0.903120 0.447828
vt 0.985221 0.447828
vt 0.738916 0.447828
vt 0.821018 0.447828
vt 0.656814 0.447828
vt 0.903120 0.537394
vt 0.985221 0.537394
vt 0.821018 0.537394
vt 0.738916 0.537394
vt 0.656814 0.537394
vt 0.903120 0.626959
vt 0.985221 0.626959
vt 0.821018 0.626959
vt 0.738916 0.626959
vt 0.656814 0.626959
vt 0.903120 0.716525
vt 0.985221 0.716525
vt 0.821018 0.716525
vt 0.738916 0.716525
vt 0.656814 0.716525
vt 0.903120 0.806090
vt 0.985221 0.806090
vt 0.821018 0.806090
vt 0.738916 0.806090
vt 0.656814 0.806090
vt 0.903120 0.895656
vt 0.985221 0.895656
vt 0.821018 0.895656
vt 0.738916 0.895656
vt 0.656814 0.895656
vt 0.903120 0.985221
vt 0.985221 0.985221
vt 0.821018 0.985221
vt 0.738916 0.985221
vt 0.656814 0.985221
vt 1.000000 0.574713
vt 0.995074 0.492611
vt 1.000000 0.492611
vt 1.000000 0.656814
vt 0.995074 0.574713
vt 1.000000 0.738916
vt 0.995074 0.656814
vt 1.000000 0.821018
vt 0.995074 0.738916
vt 0.995074 0.821018
vt 0.985221 0.000000
vt 0.903120 0.000000
vt 0.821018 0.000000
vt 0.738916 0.000000
vt 0.656814 0.000000
vt 0.492611 0.000000
vt 0.410509 0.000000
vt 0.328407 0.000000
vt 0.246305 0.000000
vt 0.164204 0.000000
vt 1.000000 0.082102
vt 0.995074 0.000000
vt 1.000000 0.000000
vt 1.000000 0.164204
vt 0.995074 0.082102
vt 1.000000 0.246305
vt 0.995074 0.164204
vt 1.000000 0.328407
vt 0.995074 0.246305
vt 0.995074 0.328407
vt 0.990148 0.985221
vt 0.995074 0.492611
vt 0.000000 0.000000
vt 0.995074 0.985221
vt 0.492611 0.000000
vt 0.995074 0.985221
vt 0.995074 0.179131
vt 0.990148 0.179131
vn 0.0000 1.0000 0.0000
vn 0.0000 0.0000 1.0000
vn -1.0000 0.0000 0.0000
vn 0.0000 -1.0000 0.0000
vn 1.0000 0.0000 0.0000
vn 0.0000 0.0000 -1.0000
usemtl Material
s off
f 29/1/1 3/2/1 28/3/1
f 3/4/2 58/5/2 59/6/2
f 38/7/3 64/8/3 164/9/3
f 39/10/4 8/11/4 18/12/4
f 28/13/5 59/14/5 114/15/5
f 5/16/6 49/17/6 64/18/6
f 1/19/5 69/20/5 49/21/5
f 19/22/5 74/23/5 69/20/5
f 20/24/5 79/25/5 74/23/5
f 21/26/5 84/27/5 79/25/5
f 22/28/5 89/29/5 84/27/5
f 23/30/5 94/31/5 89/29/5
f 24/32/5 99/33/5 94/31/5
f 25/34/5 104/35/5 99/33/5
f 26/36/5 109/37/5 104/35/5
f 27/38/5 114/15/5 109/37/5
f 2/39/4 9/40/4 6/41/4
f 48/42/4 10/43/4 9/40/4
f 10/43/4 46/44/4 11/45/4
f 11/45/4 45/46/4 12/47/4
f 12/47/4 44/48/4 13/49/4
f 13/49/4 43/50/4 14/51/4
f 14/51/4 42/52/4 15/53/4
f 15/53/4 41/54/4 16/55/4
f 16/55/4 40/56/4 17/57/4
f 40/56/4 18/12/4 17/57/4
f 7/58/3 119/59/3 58/60/3
f 29/61/3 124/62/3 119/59/3
f 30/63/3 129/64/3 124/62/3
f 31/65/3 134/66/3 129/64/3
f 32/67/3 139/68/3 134/66/3
f 33/69/3 144/70/3 139/68/3
f 34/71/3 149/72/3 144/70/3
f 35/73/3 154/74/3 149/72/3
f 36/75/3 159/76/3 154/74/3
f 37/77/3 164/9/3 159/76/3
f 5/78/1 19/79/1 1/80/1
f 38/81/1 20/82/1 19/79/1
f 20/82/1 36/83/1 21/84/1
f 21/84/1 35/85/1 22/86/1
f 22/86/1 34/87/1 23/88/1
f 23/88/1 33/89/1 24/90/1
f 24/90/1 32/91/1 25/92/1
f 25/92/1 31/93/1 26/94/1
f 26/94/1 30/95/1 27/96/1
f 30/95/1 28/3/1 27/96/1
f 163/97/3 9/98/3 10/99/3
f 162/100/3 168/101/3 163/97/3
f 161/102/3 167/103/3 162/100/3
f 160/104/3 166/105/3 161/102/3
f 159/76/3 165/106/3 160/104/3
f 158/107/3 10/99/3 11/108/3
f 157/109/3 163/97/3 158/107/3
f 156/110/3 162/100/3 157/109/3
f 155/111/3 161/102/3 156/110/3
f 154/74/3 160/104/3 155/111/3
f 153/112/3 11/108/3 12/113/3
f 152/114/3 158/107/3 153/112/3
f 151/115/3 157/109/3 152/114/3
f 150/116/3 156/110/3 151/115/3
f 149/72/3 155/111/3 150/116/3
f 148/117/3 12/113/3 13/118/3
f 148/117/3 152/114/3 153/112/3
f 146/119/3 152/114/3 147/120/3
f 145/121/3 151/115/3 146/119/3
f 144/70/3 150/116/3 145/121/3
f 143/122/3 13/118/3 14/123/3
f 142/124/3 148/117/3 143/122/3
f 141/125/3 147/120/3 142/124/3
f 140/126/3 146/119/3 141/125/3
f 139/68/3 145/121/3 140/126/3
f 138/127/3 14/123/3 15/128/3
f 137/129/3 143/122/3 138/127/3
f 136/130/3 142/124/3 137/129/3
f 135/131/3 141/125/3 136/130/3
f 134/66/3 140/126/3 135/131/3
f 133/132/3 15/128/3 16/133/3
f 132/134/3 138/127/3 133/132/3
f 131/135/3 137/129/3 132/134/3
f 130/136/3 136/130/3 131/135/3
f 129/64/3 135/131/3 130/136/3
f 128/137/3 16/133/3 17/138/3
f 127/139/3 133/132/3 128/137/3
f 126/140/3 132/134/3 127/139/3
f 125/141/3 131/135/3 126/140/3
f 124/62/3 130/136/3 125/141/3
f 123/142/3 17/138/3 18/143/3
f 122/144/3 128/137/3 123/142/3
f 121/145/3 127/139/3 122/144/3
f 120/146/3 126/140/3 121/145/3
f 119/59/3 125/141/3 120/146/3
f 54/147/3 18/143/3 8/148/3
f 54/147/3 122/144/3 123/142/3
f 55/149/3 121/145/3 122/144/3
f 56/150/3 120/146/3 121/145/3
f 57/151/3 119/59/3 120/146/3
f 113/152/5 39/153/5 40/154/5
f 112/155/5 118/156/5 113/152/5
f 111/157/5 117/158/5 112/155/5
f 110/159/5 116/160/5 111/157/5
f 109/37/5 115/161/5 110/159/5
f 108/162/5 40/154/5 41/163/5
f 107/164/5 113/152/5 108/162/5
f 106/165/5 112/155/5 107/164/5
f 105/166/5 111/157/5 106/165/5
f 104/35/5 110/159/5 105/166/5
f 103/167/5 41/163/5 42/168/5
f 102/169/5 108/162/5 103/167/5
f 101/170/5 107/164/5 102/169/5
f 100/171/5 106/165/5 101/170/5
f 99/33/5 105/166/5 100/171/5
f 98/172/5 42/168/5 43/173/5
f 98/172/5 102/169/5 103/167/5
f 96/174/5 102/169/5 97/175/5
f 95/176/5 101/170/5 96/174/5
f 94/31/5 100/171/5 95/176/5
f 93/177/5 43/173/5 44/178/5
f 92/179/5 98/172/5 93/177/5
f 91/180/5 97/175/5 92/179/5
f 90/181/5 96/174/5 91/180/5
f 89/29/5 95/176/5 90/181/5
f 88/182/5 44/178/5 45/183/5
f 87/184/5 93/177/5 88/182/5
f 86/185/5 92/179/5 87/184/5
f 85/186/5 91/180/5 86/185/5
f 84/27/5 90/181/5 85/186/5
f 83/187/5 45/183/5 46/188/5
f 82/189/5 88/182/5 83/187/5
f 81/190/5 87/184/5 82/189/5
f 80/191/5 86/185/5 81/190/5
f 79/25/5 85/186/5 80/191/5
f 78/192/5 46/188/5 47/193/5
f 77/194/5 83/187/5 78/192/5
f 76/195/5 82/189/5 77/194/5
f 75/196/5 81/190/5 76/195/5
f 74/23/5 80/191/5 75/196/5
f 73/197/5 47/193/5 48/198/5
f 72/199/5 78/192/5 73/197/5
f 71/200/5 77/194/5 72/199/5
f 70/201/5 76/195/5 71/200/5
f 69/20/5 75/196/5 70/201/5
f 53/202/5 48/198/5 2/203/5
f 52/204/5 73/197/5 53/202/5
f 51/205/5 72/199/5 52/204/5
f 50/206/5 71/200/5 51/205/5
f 49/21/5 70/201/5 50/206/5
f 68/207/6 2/208/6 6/209/6
f 67/210/6 53/211/6 68/207/6
f 66/212/6 52/213/6 67/210/6
f 65/214/6 51/215/6 66/212/6
f 64/18/6 50/216/6 65/214/6
f 118/156/5 4/217/5 39/153/5
f 117/158/5 63/218/5 118/156/5
f 116/160/5 62/219/5 117/158/5
f 115/161/5 61/220/5 116/160/5
f 114/15/5 60/221/5 115/161/5
f 168/101/3 6/222/3 9/98/3
f 167/103/3 68/223/3 168/101/3
f 166/105/3 67/224/3 167/103/3
f 165/106/3 66/225/3 166/105/3
f 164/9/3 65/226/3 165/106/3
f 63/227/2 8/228/2 4/229/2
f 62/230/2 54/231/2 63/227/2
f 61/232/2 55/233/2 62/230/2
f 60/234/2 56/235/2 61/232/2
f 59/6/2 57/236/2 60/234/2
f 29/1/1 7/237/1 3/2/1
f 3/4/2 7/238/2 58/5/2
f 38/7/3 5/239/3 64/8/3
f 39/10/4 4/240/4 8/11/4
f 28/13/5 3/241/5 59/14/5
f 5/16/6 1/242/6 49/17/6
f 1/19/5 19/22/5 69/20/5
f 19/22/5 20/24/5 74/23/5
f 20/24/5 21/26/5 79/25/5
f 21/26/5 22/28/5 84/27/5
f 22/28/5 23/30/5 89/29/5
f 23/30/5 24/32/5 94/31/5
f 24/32/5 25/34/5 99/33/5
f 25/34/5 26/36/5 104/35/5
f 26/36/5 27/38/5 109/37/5
f 27/38/5 28/13/5 114/15/5
f 2/39/4 48/42/4 9/40/4
f 48/42/4 47/243/4 10/43/4
f 10/43/4 47/243/4 46/44/4
f 11/45/4 46/44/4 45/46/4
f 12/47/4 45/46/4 44/48/4
f 13/49/4 44/48/4 43/50/4
f 14/51/4 43/50/4 42/52/4
f 15/53/4 42/52/4 41/54/4
f 16/55/4 41/54/4 40/56/4
f 40/56/4 39/10/4 18/12/4
f 7/58/3 29/61/3 119/59/3
f 29/61/3 30/63/3 124/62/3
f 30/63/3 31/65/3 129/64/3
f 31/65/3 32/67/3 134/66/3
f 32/67/3 33/69/3 139/68/3
f 33/69/3 34/71/3 144/70/3
f 34/71/3 35/73/3 149/72/3
f 35/73/3 36/75/3 154/74/3
f 36/75/3 37/77/3 159/76/3
f 37/77/3 38/7/3 164/9/3
f 5/78/1 38/81/1 19/79/1
f 38/81/1 37/244/1 20/82/1
f 20/82/1 37/244/1 36/83/1
f 21/84/1 36/83/1 35/85/1
f 22/86/1 35/85/1 34/87/1
f 23/88/1 34/87/1 33/89/1
f 24/90/1 33/89/1 32/91/1
f 25/92/1 32/91/1 31/93/1
f 26/94/1 31/93/1 30/95/1
f 30/95/1 29/1/1 28/3/1
f 163/97/3 168/101/3 9/98/3
f 162/100/3 167/103/3 168/101/3
f 161/102/3 166/105/3 167/103/3
f 160/104/3 165/106/3 166/105/3
f 159/76/3 164/9/3 165/106/3
f 158/107/3 163/97/3 10/99/3
f 157/109/3 162/100/3 163/97/3
f 156/110/3 161/102/3 162/100/3
f 155/111/3 160/104/3 161/102/3
f 154/74/3 159/76/3 160/104/3
f 153/112/3 158/107/3 11/108/3
f 152/114/3 157/109/3 158/107/3
f 151/115/3 156/110/3 157/109/3
f 150/116/3 155/111/3 156/110/3
f 149/72/3 154/74/3 155/111/3
f 148/117/3 153/112/3 12/113/3
f 148/117/3 147/120/3 152/114/3
f 146/119/3 151/115/3 152/114/3
f 145/121/3 150/116/3 151/115/3
f 144/70/3 149/72/3 150/116/3
f 143/122/3 148/117/3 13/118/3
f 142/124/3 147/120/3 148/117/3
f 141/125/3 146/119/3 147/120/3
f 140/126/3 145/121/3 146/119/3
f 139/68/3 144/70/3 145/121/3
f 138/127/3 143/122/3 14/123/3
f 137/129/3 142/124/3 143/122/3
f 136/130/3 141/125/3 142/124/3
f 135/131/3 140/126/3 141/125/3
f 134/66/3 139/68/3 140/126/3
f 133/132/3 138/127/3 15/128/3
f 132/134/3 137/129/3 138/127/3
f 131/135/3 136/130/3 137/129/3
f 130/136/3 135/131/3 136/130/3
f 129/64/3 134/66/3 135/131/3
f 128/137/3 133/132/3 16/133/3
f 127/139/3 132/134/3 133/132/3
f 126/140/3 131/135/3 132/134/3
f 125/141/3 130/136/3 131/135/3
f 124/62/3 129/64/3 130/136/3
f 123/142/3 128/137/3 17/138/3
f 122/144/3 127/139/3 128/137/3
f 121/145/3 126/140/3 127/139/3
f 120/146/3 125/141/3 126/140/3
f 119/59/3 124/62/3 125/141/3
f 54/147/3 123/142/3 18/143/3
f 54/147/3 55/149/3 122/144/3
f 55/149/3 56/150/3 121/145/3
f 56/150/3 57/151/3 120/146/3
f 57/151/3 58/60/3 119/59/3
f 113/152/5 118/156/5 39/153/5
f 112/155/5 117/158/5 118/156/5
f 111/157/5 116/160/5 117/158/5
f 110/159/5 115/161/5 116/160/5
f 109/37/5 114/15/5 115/161/5
f 108/162/5 113/152/5 40/154/5
f 107/164/5 112/155/5 113/152/5
f 106/165/5 111/157/5 112/155/5
f 105/166/5 110/159/5 111/157/5
f 104/35/5 109/37/5 110/159/5
f 103/167/5 108/162/5 41/163/5
f 102/169/5 107/164/5 108/162/5
f 101/170/5 106/165/5 107/164/5
f 100/171/5 105/166/5 106/165/5
f 99/33/5 104/35/5 105/166/5
f 98/172/5 103/167/5 42/168/5
f 98/172/5 97/175/5 102/169/5
f 96/174/5 101/170/5 102/169/5
f 95/176/5 100/171/5 101/170/5
f 94/31/5 99/33/5 100/171/5
f 93/177/5 98/172/5 43/173/5
f 92/179/5 97/175/5 98/172/5
f 91/180/5 96/174/5 97/175/5
f 90/181/5 95/176/5 96/174/5
f 89/29/5 94/31/5 95/176/5
f 88/182/5 93/177/5 44/178/5
f 87/184/5 92/179/5 93/177/5
f 86/185/5 91/180/5 92/179/5
f 85/186/5 90/181/5 91/180/5
f 84/27/5 89/29/5 90/181/5
f 83/187/5 88/182/5 45/183/5
f 82/189/5 87/184/5 88/182/5
f 81/190/5 86/185/5 87/184/5
f 80/191/5 85/186/5 86/185/5
f 79/25/5 84/27/5 85/186/5
f 78/192/5 83/187/5 46/188/5
f 77/194/5 82/189/5 83/187/5
f 76/195/5 81/190/5 82/189/5
f 75/196/5 80/191/5 81/190/5
f 74/23/5 79/25/5 80/191/5
f 73/197/5 78/192/5 47/193/5
f 72/199/5 77/194/5 78/192/5
f 71/200/5 76/195/5 77/194/5
f 70/201/5 75/196/5 76/195/5
f 69/20/5 74/23/5 75/196/5
f 53/202/5 73/197/5 48/198/5
f 52/204/5 72/199/5 73/197/5
f 51/205/5 71/200/5 72/199/5
f 50/206/5 70/201/5 71/200/5
f 49/21/5 69/20/5 70/201/5
f 68/207/6 53/211/6 2/208/6
f 67/210/6 52/213/6 53/211/6
f 66/212/6 51/215/6 52/213/6
f 65/214/6 50/216/6 51/215/6
f 64/18/6 49/17/6 50/216/6
f 118/156/5 63/218/5 4/217/5
f 117/158/5 62/219/5 63/218/5
f 116/160/5 61/220/5 62/219/5
f 115/161/5 60/221/5 61/220/5
f 114/15/5 59/14/5 60/221/5
f 168/101/3 68/223/3 6/222/3
f 167/103/3 67/224/3 68/223/3
f 166/105/3 66/225/3 67/224/3
f 165/106/3 65/226/3 66/225/3
f 164/9/3 64/8/3 65/226/3
f 63/227/2 54/231/2 8/228/2
f 62/230/2 55/233/2 54/231/2
f 61/232/2 56/235/2 55/233/2
f 60/234/2 57/236/2 56/235/2
f 59/6/2 58/5/2 57/236/2
