# Blender v2.92.0 OBJ File: 'quaternius_OGConvert.blend'
# www.blender.org
o Bottle2_Cylinder.009
v -0.067177 1.112676 -0.067177
v -0.095003 1.112676 -0.000000
v -0.067177 1.112676 0.067177
v -0.000000 1.112676 0.095003
v 0.067177 1.112676 0.067177
v 0.095003 1.112676 0.000000
v 0.067177 1.112676 -0.067177
v -0.000000 1.112676 -0.095003
v -0.000000 -0.001084 -0.194817
v -0.000000 0.028715 -0.225838
v 0.137756 -0.001084 -0.137756
v 0.159692 0.028715 -0.159692
v 0.194817 -0.001084 0.000000
v 0.225838 0.028715 0.000000
v 0.137756 -0.001084 0.137756
v 0.159692 0.028715 0.159692
v -0.000000 -0.001084 0.194817
v -0.000000 0.028715 0.225838
v -0.137756 -0.001084 0.137756
v -0.159692 0.028715 0.159692
v -0.194817 -0.001084 -0.000000
v -0.225838 0.028715 -0.000000
v -0.137756 -0.001084 -0.137756
v -0.159692 0.028715 -0.159692
v -0.000000 0.821177 -0.225838
v -0.000000 0.940300 -0.110320
v 0.078008 0.940300 -0.078008
v 0.159692 0.821177 -0.159692
v 0.110320 0.940300 0.000000
v 0.225838 0.821177 0.000000
v 0.078008 0.940300 0.078008
v 0.159692 0.821177 0.159692
v -0.000000 0.940300 0.110320
v -0.000000 0.821177 0.225838
v -0.078008 0.940300 0.078008
v -0.159692 0.821177 0.159692
v -0.110320 0.940300 -0.000000
v -0.225838 0.821177 -0.000000
v -0.078008 0.940300 -0.078008
v -0.159692 0.821177 -0.159692
v -0.077878 1.439211 -0.000000
v -0.055068 1.439211 -0.055068
v -0.000000 1.439211 0.077878
v -0.055068 1.439211 0.055068
v 0.077878 1.439211 0.000000
v 0.055068 1.439211 0.055068
v -0.000000 1.439211 -0.077878
v 0.055068 1.439211 -0.055068
v -0.079945 1.529230 -0.000000
v -0.056530 1.529230 -0.056530
v -0.000000 1.529230 0.079945
v -0.056530 1.529230 0.056530
v 0.079945 1.529230 0.000000
v 0.056530 1.529230 0.056530
v -0.000000 1.529230 -0.079945
v 0.056530 1.529230 -0.056530
v -0.000000 0.534746 -0.225838
v 0.159692 0.534746 -0.159692
v -0.159692 0.534746 -0.159692
v 0.225838 0.534746 0.000000
v 0.159692 0.534746 0.159692
v -0.000000 0.534746 0.225838
v -0.159692 0.534746 0.159692
v -0.225838 0.534746 -0.000000
v 0.159692 0.120148 -0.159692
v 0.225838 0.120148 0.000000
v 0.159692 0.120148 0.159692
v -0.000000 0.120148 0.225838
v -0.159692 0.120148 0.159692
v -0.225838 0.120148 -0.000000
v -0.000000 0.120148 -0.225838
v -0.159692 0.120148 -0.159692
v -0.066225 1.520876 -0.066225
v 0.066225 1.520876 0.066225
v -0.000000 1.520876 0.093656
v -0.000000 1.520876 -0.093656
v -0.093656 1.520876 -0.000000
v -0.066225 1.520876 0.066225
v 0.093656 1.520876 0.000000
v 0.066225 1.520876 -0.066225
v 0.064434 1.248929 -0.064435
v 0.091124 1.248929 0.000000
v 0.064434 1.248929 0.064435
v -0.064435 1.248929 0.064435
v -0.091124 1.248929 -0.000000
v -0.064435 1.248929 -0.064435
v -0.000000 1.248929 0.091124
v -0.000000 1.248929 -0.091124
v -0.079103 1.599921 -0.000000
v -0.054979 1.621996 -0.000000
v -0.038876 1.621996 -0.038876
v -0.055934 1.599921 -0.055934
v -0.000000 1.599921 0.079103
v -0.000000 1.621996 0.054979
v -0.038876 1.621996 0.038876
v -0.055934 1.599921 0.055934
v 0.079103 1.599921 0.000000
v 0.054979 1.621996 0.000000
v 0.038876 1.621996 0.038876
v 0.055934 1.599921 0.055934
v -0.000000 1.599921 -0.079103
v -0.000000 1.621996 -0.054979
v 0.038876 1.621996 -0.038876
v 0.055934 1.599921 -0.055934
v 0.098115 1.449668 0.000000
v -0.098116 1.449668 -0.000000
v 0.069378 1.449668 0.069378
v -0.069378 1.449668 0.069378
v -0.069378 1.449668 -0.069378
v 0.069378 1.449668 -0.069378
v -0.000000 1.449668 -0.098116
v -0.000000 1.449668 0.098116
vt 0.613481 0.517185
vt 0.539875 0.338761
vt 0.616516 0.337747
vt 0.187699 0.517384
vt 0.079352 0.337921
vt 0.187699 0.337921
vt 0.079352 0.517384
vt 0.002738 0.340231
vt 0.531363 0.519694
vt 0.454750 0.337921
vt 0.531363 0.340231
vt 0.454750 0.517384
vt 0.346402 0.337921
vt 0.346402 0.517384
vt 0.269789 0.340231
vt 0.264313 0.519694
vt 0.264313 0.340231
vt 0.159989 0.594038
vt 0.110736 0.702308
vt 0.107062 0.594038
vt 0.621879 0.020739
vt 0.723077 0.004319
vt 0.730211 0.022571
vt 0.920648 0.002738
vt 0.819742 0.020703
vt 0.812301 0.002738
vt 0.997262 0.079351
vt 0.913207 0.020703
vt 0.079352 0.020867
vt 0.180258 0.002738
vt 0.187699 0.020867
vt 0.920648 0.264313
vt 0.979297 0.180258
vt 0.997262 0.187699
vt 0.812301 0.264313
vt 0.913207 0.246348
vt 0.346402 0.020867
vt 0.447309 0.002738
vt 0.454750 0.020867
vt 0.735687 0.079352
vt 0.753652 0.180258
vt 0.735687 0.187699
vt 0.979297 0.086793
vt 0.828352 0.320991
vt 0.735687 0.369889
vt 0.777150 0.269789
vt 0.808098 0.369889
vt 0.777150 0.469989
vt 0.828352 0.526668
vt 0.735687 0.575566
vt 0.777150 0.475466
vt 0.808098 0.575566
vt 0.777150 0.675666
vt 0.427040 0.594038
vt 0.833829 0.447522
vt 0.900727 0.366885
vt 0.900727 0.475233
vt 0.721813 0.519017
vt 0.724849 0.339580
vt 0.730211 0.596953
vt 0.687306 0.703384
vt 0.692811 0.595191
vt 0.641734 0.702613
vt 0.639891 0.594296
vt 0.069637 0.595166
vt 0.078507 0.703279
vt 0.602453 0.594791
vt 0.609493 0.703039
vt 0.464465 0.595166
vt 0.423365 0.702308
vt 0.197414 0.595166
vt 0.156315 0.702308
vt 0.377787 0.702308
vt 0.374113 0.594038
vt 0.620910 0.078018
vt 0.729242 0.079851
vt 0.187699 0.078155
vt 0.264313 0.080465
vt 0.269789 0.080465
vt 0.346402 0.078155
vt 0.454750 0.078155
vt 0.531363 0.080465
vt 0.544268 0.079032
vt 0.545237 0.021752
vt 0.079352 0.078155
vt 0.002738 0.023177
vt 0.531363 0.023177
vt 0.269789 0.023177
vt 0.264313 0.023177
vt 0.641219 0.788053
vt 0.347804 0.788676
vt 0.345558 0.703279
vt 0.111667 0.787744
vt 0.080753 0.788676
vt 0.155384 0.787744
vt 0.378717 0.787744
vt 0.455594 0.703279
vt 0.422435 0.787744
vt 0.186297 0.788676
vt 0.610295 0.788462
vt 0.536840 0.518198
vt 0.002738 0.519694
vt 0.269789 0.519694
vt 0.629626 0.002738
vt 0.086793 0.002738
vt 0.819742 0.246348
vt 0.353844 0.002738
vt 0.753652 0.086793
vt 0.828352 0.418787
vt 0.828352 0.624464
vt 0.833829 0.394596
vt 0.719513 0.704900
vt 0.188543 0.703279
vt 0.002738 0.080465
vt 0.684930 0.788792
vt 0.453348 0.788676
vt 0.878134 0.545982
vt 0.834646 0.573305
vt 0.833828 0.546184
vt 0.878135 0.606104
vt 0.833828 0.644256
vt 0.833828 0.605902
vt 0.878944 0.579269
vt 0.834646 0.578781
vt 0.878135 0.644054
vt 0.834646 0.671377
vt 0.942169 0.518861
vt 0.898681 0.546184
vt 0.897863 0.519063
vt 0.942169 0.480911
vt 0.897863 0.480709
vt 0.834646 0.480709
vt 0.878134 0.508032
vt 0.833828 0.507830
vt 0.847799 0.302411
vt 0.892827 0.283760
vt 0.911478 0.328787
vt 0.892387 0.540195
vt 0.892387 0.513819
vt 0.866450 0.283760
vt 0.898614 0.269789
vt 0.925449 0.296624
vt 0.925449 0.334574
vt 0.956421 0.486698
vt 0.866450 0.347438
vt 0.833829 0.334574
vt 0.847799 0.328787
vt 0.833829 0.296624
vt 0.860663 0.269789
vt 0.892387 0.638267
vt 0.892387 0.611891
vt 0.898614 0.361409
vt 0.892827 0.347438
vt 0.878944 0.572817
vt 0.878944 0.670889
vt 0.942978 0.545696
vt 0.878944 0.481197
vt 0.911478 0.302411
vt 0.956421 0.513075
vt 0.860663 0.361409
vt 0.615947 0.907891
vt 0.178626 0.907993
vt 0.152207 0.907197
vt 0.419257 0.907197
vt 0.381895 0.907197
vt 0.114844 0.907197
vt 0.088425 0.907993
vt 0.355476 0.907993
vt 0.642376 0.907542
vt 0.836223 0.835321
vt 0.812392 0.800260
vt 0.844164 0.832032
vt 0.767459 0.908736
vt 0.809103 0.900796
vt 0.812392 0.908736
vt 0.809103 0.808200
vt 0.767459 0.800260
vt 0.735687 0.876964
vt 0.770748 0.900796
vt 0.743628 0.835321
vt 0.735687 0.832032
vt 0.844164 0.876964
vt 0.836223 0.873675
vt 0.854805 0.761499
vt 0.900456 0.792201
vt 0.855808 0.794784
vt 0.897863 0.598728
vt 0.943128 0.553288
vt 0.942567 0.598217
vt 0.898451 0.632023
vt 0.894334 0.879547
vt 0.850643 0.913901
vt 0.849640 0.880616
vt 0.894334 0.834614
vt 0.849640 0.833545
vt 0.895291 0.802842
vt 0.850643 0.800260
vt 0.855808 0.681142
vt 0.899498 0.715497
vt 0.854805 0.714427
vt 0.899498 0.760429
vt 0.735687 0.714427
vt 0.773827 0.692862
vt 0.747407 0.719282
vt 0.735687 0.761499
vt 0.747407 0.756644
vt 0.811189 0.692862
vt 0.849329 0.714427
vt 0.837609 0.719282
vt 0.837609 0.756644
vt 0.816044 0.794784
vt 0.811189 0.783063
vt 0.768972 0.794784
vt 0.773827 0.783063
vt 0.768972 0.681142
vt 0.445677 0.907993
vt 0.679733 0.908174
vt 0.770748 0.808200
vt 0.743628 0.873675
vt 0.898451 0.551660
vt 0.943128 0.629999
vt 0.895291 0.911319
vt 0.900456 0.683725
vt 0.816044 0.681142
vt 0.849329 0.761499
vn 0.9239 0.0000 -0.3827
vn 0.3827 0.0000 0.9239
vn -0.3827 0.0000 0.9239
vn -0.9239 0.0000 0.3827
vn -0.9239 0.0000 -0.3827
vn -0.3827 0.0000 -0.9239
vn 0.9239 0.0000 0.3827
vn 0.3814 0.0818 0.9208
vn 0.2758 -0.6932 -0.6659
vn 0.6659 -0.6932 -0.2758
vn 0.6659 -0.6932 0.2758
vn 0.2758 -0.6932 0.6659
vn -0.2758 -0.6932 0.6659
vn -0.6659 -0.6932 0.2758
vn -0.6659 -0.6932 -0.2758
vn -0.2758 -0.6932 -0.6659
vn 0.0000 -1.0000 0.0000
vn 0.6881 0.6673 -0.2850
vn 0.6881 0.6673 0.2850
vn 0.2850 0.6673 0.6881
vn -0.2850 0.6673 0.6881
vn -0.6881 0.6673 0.2850
vn -0.6881 0.6673 -0.2850
vn -0.2850 0.6673 -0.6881
vn 0.3827 0.0000 -0.9239
vn -0.3814 0.0818 -0.9208
vn 0.3814 0.0818 -0.9208
vn -0.3814 0.0818 0.9208
vn 0.9208 0.0818 -0.3814
vn -0.9208 0.0818 0.3814
vn 0.9208 0.0818 0.3814
vn -0.9208 0.0818 -0.3814
vn 0.2850 0.6673 -0.6881
vn 0.3826 0.0263 -0.9236
vn -0.3826 0.0263 -0.9236
vn -0.3826 0.0263 0.9236
vn 0.3826 0.0263 0.9236
vn -0.9236 0.0263 -0.3826
vn -0.9236 0.0263 0.3826
vn 0.9236 0.0263 0.3826
vn 0.9236 0.0263 -0.3826
vn -0.3827 0.0110 -0.9238
vn 0.3827 0.0110 0.9238
vn 0.9238 0.0110 0.3827
vn -0.3827 0.0110 0.9238
vn 0.9238 0.0110 -0.3827
vn 0.3827 0.0110 -0.9238
vn -0.9238 0.0110 0.3827
vn 0.0000 1.0000 0.0000
vn -0.6501 0.7105 -0.2693
vn -0.2693 0.7105 0.6501
vn 0.6501 0.7105 0.2693
vn 0.2693 0.7105 -0.6501
vn -0.2693 0.7105 -0.6501
vn -0.6501 0.7105 0.2693
vn 0.2693 0.7105 0.6501
vn 0.6501 0.7105 -0.2693
vn -0.9238 0.0110 -0.3827
vn 0.9220 0.0642 -0.3819
vn 0.9220 0.0642 0.3819
vn -0.9220 0.0642 0.3819
vn -0.9220 0.0642 -0.3819
vn 0.3819 0.0642 0.9220
vn -0.3819 0.0642 0.9220
vn -0.3819 0.0642 -0.9220
vn 0.3819 0.0642 -0.9220
vn -0.5086 0.8348 -0.2107
vn 0.2107 0.8348 0.5086
vn -0.2107 0.8348 -0.5086
vn 0.5086 0.8348 0.2107
vn 0.5086 0.8348 -0.2107
vn -0.5086 0.8348 0.2107
vn 0.2107 0.8348 -0.5086
vn -0.2107 0.8348 0.5086
vn -0.3820 0.0578 0.9223
vn 0.3820 0.0578 -0.9223
vn 0.9223 0.0578 -0.3820
vn -0.3820 0.0578 -0.9223
vn -0.9223 0.0578 -0.3820
vn -0.9223 0.0578 0.3820
vn 0.9223 0.0578 0.3820
vn 0.3820 0.0578 0.9223
vn 0.1868 -0.8728 0.4510
vn 0.4510 -0.8728 0.1868
vn -0.4510 -0.8728 0.1868
vn -0.4510 -0.8728 -0.1868
vn -0.1868 -0.8728 -0.4510
vn 0.4510 -0.8728 -0.1868
vn 0.1868 -0.8728 -0.4510
vn -0.1868 -0.8728 0.4510
s off
f 28/1/1 60/2/1 58/3/1
f 32/4/2 62/5/2 61/6/2
f 34/7/3 63/8/3 62/5/3
f 36/9/4 64/10/4 63/11/4
f 38/12/5 59/13/5 64/10/5
f 40/14/6 57/15/6 59/13/6
f 30/16/7 61/6/7 60/17/7
f 31/18/8 4/19/8 33/20/8
f 12/21/9 9/22/9 10/23/9
f 14/24/10 11/25/10 12/26/10
f 16/27/11 13/28/11 14/24/11
f 18/29/12 15/30/12 16/31/12
f 20/32/13 17/33/13 18/34/13
f 22/35/14 19/36/14 20/32/14
f 24/37/15 21/38/15 22/39/15
f 10/40/16 23/41/16 24/42/16
f 15/43/17 19/36/17 23/41/17
f 27/44/18 30/45/18 28/46/18
f 29/47/19 32/48/19 30/45/19
f 32/4/20 33/20/20 34/7/20
f 33/49/21 36/50/21 34/51/21
f 35/52/22 38/53/22 36/50/22
f 37/54/23 40/14/23 38/12/23
f 39/55/24 25/56/24 40/57/24
f 25/58/25 58/3/25 57/59/25
f 39/60/26 8/61/26 26/62/26
f 26/62/27 7/63/27 27/64/27
f 35/65/28 4/19/28 3/66/28
f 29/67/29 7/63/29 6/68/29
f 35/69/30 2/70/30 37/54/30
f 29/71/31 5/72/31 31/18/31
f 37/54/32 1/73/32 39/74/32
f 57/59/25 65/75/25 71/76/25
f 60/17/7 67/77/7 66/78/7
f 59/13/6 71/79/6 72/80/6
f 64/10/5 72/80/5 70/81/5
f 63/11/4 70/81/4 69/82/4
f 58/3/1 66/83/1 65/75/1
f 65/75/1 14/84/1 12/21/1
f 67/77/2 18/29/2 16/31/2
f 68/85/3 20/86/3 18/29/3
f 69/82/4 22/39/4 20/87/4
f 70/81/5 24/37/5 22/39/5
f 72/80/6 10/88/6 24/37/6
f 66/78/7 16/31/7 14/89/7
f 71/76/25 12/21/25 10/23/25
f 26/62/33 28/1/33 25/58/33
f 8/61/34 81/90/34 7/63/34
f 1/73/35 88/91/35 8/92/35
f 3/66/36 87/93/36 84/94/36
f 4/19/37 83/95/37 87/93/37
f 2/70/38 86/96/38 1/73/38
f 3/97/39 85/98/39 2/70/39
f 5/72/40 82/99/40 83/95/40
f 7/63/41 82/100/41 6/68/41
f 28/1/1 30/101/1 60/2/1
f 32/4/2 34/7/2 62/5/2
f 34/7/3 36/102/3 63/8/3
f 36/9/4 38/12/4 64/10/4
f 38/12/5 40/14/5 59/13/5
f 40/14/6 25/103/6 57/15/6
f 30/16/7 32/4/7 61/6/7
f 31/18/8 5/72/8 4/19/8
f 12/21/9 11/104/9 9/22/9
f 14/24/10 13/28/10 11/25/10
f 16/27/11 15/43/11 13/28/11
f 18/29/12 17/105/12 15/30/12
f 20/32/13 19/36/13 17/33/13
f 22/35/14 21/106/14 19/36/14
f 24/37/15 23/107/15 21/38/15
f 10/40/16 9/108/16 23/41/16
f 23/41/17 9/108/17 11/25/17
f 11/25/17 13/28/17 15/43/17
f 15/43/17 17/33/17 19/36/17
f 19/36/17 21/106/17 23/41/17
f 23/41/17 11/25/17 15/43/17
f 27/44/18 29/47/18 30/45/18
f 29/47/19 31/109/19 32/48/19
f 32/4/20 31/18/20 33/20/20
f 33/49/21 35/52/21 36/50/21
f 35/52/22 37/110/22 38/53/22
f 37/54/23 39/74/23 40/14/23
f 39/55/24 26/111/24 25/56/24
f 25/58/25 28/1/25 58/3/25
f 39/60/26 1/112/26 8/61/26
f 26/62/27 8/61/27 7/63/27
f 35/65/28 33/20/28 4/19/28
f 29/67/29 27/64/29 7/63/29
f 35/69/30 3/97/30 2/70/30
f 29/71/31 6/113/31 5/72/31
f 37/54/32 2/70/32 1/73/32
f 57/59/25 58/3/25 65/75/25
f 60/17/7 61/6/7 67/77/7
f 59/13/6 57/15/6 71/79/6
f 64/10/5 59/13/5 72/80/5
f 63/11/4 64/10/4 70/81/4
f 58/3/1 60/2/1 66/83/1
f 65/75/1 66/83/1 14/84/1
f 67/77/2 68/85/2 18/29/2
f 68/85/3 69/114/3 20/86/3
f 69/82/4 70/81/4 22/39/4
f 70/81/5 72/80/5 24/37/5
f 72/80/6 71/79/6 10/88/6
f 66/78/7 67/77/7 16/31/7
f 71/76/25 65/75/25 12/21/25
f 26/62/33 27/64/33 28/1/33
f 8/61/34 88/115/34 81/90/34
f 1/73/35 86/96/35 88/91/35
f 3/66/36 4/19/36 87/93/36
f 4/19/37 5/72/37 83/95/37
f 2/70/38 85/98/38 86/96/38
f 3/97/39 84/116/39 85/98/39
f 5/72/40 6/113/40 82/99/40
f 7/63/41 81/90/41 82/100/41
f 62/5/3 69/114/3 68/85/3
f 61/6/2 68/85/2 67/77/2
f 62/5/3 63/8/3 69/114/3
f 61/6/2 62/5/2 68/85/2
f 92/117/42 55/118/42 50/119/42
f 100/120/43 51/121/43 54/122/43
f 97/123/44 54/122/44 53/124/44
f 93/125/45 52/126/45 51/121/45
f 104/127/46 53/128/46 56/129/46
f 101/130/47 56/129/47 55/131/47
f 52/132/48 89/133/48 49/134/48
f 90/135/49 94/136/49 98/137/49
f 91/138/50 89/133/50 90/139/50
f 95/140/51 93/141/51 94/136/51
f 98/137/52 100/142/52 97/143/52
f 102/144/53 104/127/53 101/130/53
f 102/145/54 92/146/54 91/147/54
f 95/140/55 89/148/55 96/149/55
f 94/150/56 100/120/56 99/151/56
f 98/137/57 104/152/57 103/153/57
f 49/134/58 92/117/58 50/119/58
f 92/117/42 101/154/42 55/118/42
f 100/120/43 93/125/43 51/121/43
f 97/123/44 100/120/44 54/122/44
f 93/125/45 96/155/45 52/126/45
f 104/127/46 97/156/46 53/128/46
f 101/130/47 104/127/47 56/129/47
f 52/132/48 96/157/48 89/133/48
f 98/137/49 103/153/49 90/135/49
f 103/153/49 102/145/49 90/135/49
f 102/145/49 91/147/49 90/135/49
f 90/135/49 95/140/49 94/136/49
f 94/136/49 99/158/49 98/137/49
f 91/138/50 92/117/50 89/133/50
f 95/140/51 96/149/51 93/141/51
f 98/137/52 99/158/52 100/142/52
f 102/144/53 103/159/53 104/127/53
f 102/145/54 101/160/54 92/146/54
f 95/140/55 90/135/55 89/148/55
f 94/150/56 93/125/56 100/120/56
f 98/137/57 97/143/57 104/152/57
f 49/134/58 89/133/58 92/117/58
f 81/90/59 45/161/59 82/100/59
f 83/95/60 45/162/60 46/163/60
f 84/116/61 41/164/61 85/98/61
f 85/98/62 42/165/62 86/96/62
f 87/93/63 46/163/63 43/166/63
f 84/94/64 43/166/64 44/167/64
f 86/96/65 47/168/65 88/91/65
f 88/115/66 48/169/66 81/90/66
f 49/170/67 73/171/67 77/172/67
f 74/173/68 51/174/68 75/175/68
f 50/176/69 76/177/69 73/171/69
f 79/178/70 54/179/70 74/173/70
f 56/180/71 79/178/71 80/181/71
f 78/182/72 49/170/72 77/172/72
f 76/177/73 56/180/73 80/181/73
f 75/175/74 52/183/74 78/182/74
f 112/184/75 78/185/75 108/186/75
f 110/187/76 76/188/76 80/189/76
f 80/189/77 105/190/77 110/187/77
f 73/191/78 111/192/78 109/193/78
f 77/194/79 109/193/79 106/195/79
f 78/196/80 106/195/80 108/197/80
f 105/198/81 74/199/81 107/200/81
f 107/200/82 75/201/82 112/184/82
f 107/202/83 43/203/83 46/204/83
f 105/205/84 46/204/84 45/206/84
f 44/207/85 106/208/85 41/209/85
f 106/208/86 42/210/86 41/209/86
f 42/210/87 111/211/87 47/212/87
f 110/213/88 45/206/88 48/214/88
f 47/212/89 110/213/89 48/214/89
f 112/215/90 44/207/90 43/203/90
f 81/90/59 48/169/59 45/161/59
f 83/95/60 82/99/60 45/162/60
f 84/116/61 44/216/61 41/164/61
f 85/98/62 41/164/62 42/165/62
f 87/93/63 83/95/63 46/163/63
f 84/94/64 87/93/64 43/166/64
f 86/96/65 42/165/65 47/168/65
f 88/115/66 47/217/66 48/169/66
f 49/170/67 50/176/67 73/171/67
f 74/173/68 54/179/68 51/174/68
f 50/176/69 55/218/69 76/177/69
f 79/178/70 53/219/70 54/179/70
f 56/180/71 53/219/71 79/178/71
f 78/182/72 52/183/72 49/170/72
f 76/177/73 55/218/73 56/180/73
f 75/175/74 51/174/74 52/183/74
f 112/184/75 75/201/75 78/185/75
f 110/187/76 111/220/76 76/188/76
f 80/189/77 79/221/77 105/190/77
f 73/191/78 76/222/78 111/192/78
f 77/194/79 73/191/79 109/193/79
f 78/196/80 77/194/80 106/195/80
f 105/198/81 79/223/81 74/199/81
f 107/200/82 74/199/82 75/201/82
f 107/202/83 112/215/83 43/203/83
f 105/205/84 107/202/84 46/204/84
f 44/207/85 108/224/85 106/208/85
f 106/208/86 109/225/86 42/210/86
f 42/210/87 109/225/87 111/211/87
f 110/213/88 105/205/88 45/206/88
f 47/212/89 111/211/89 110/213/89
f 112/215/90 108/224/90 44/207/90
