# Blender v2.92.0 OBJ File: 'quaternius_OGConvert.blend'
# www.blender.org
o Orange_Cube.021
v -0.372458 0.032141 -0.000001
v -0.347431 0.032141 0.148687
v -0.357411 0.132938 -0.006908
v -0.340768 0.011360 -0.147482
v -0.347431 -0.116547 -0.000001
v -0.323877 -0.106242 0.138382
v -0.326888 0.137010 0.139682
v -0.326888 0.137010 -0.139661
v -0.323877 -0.106242 -0.138384
v -0.000002 0.032141 -0.372457
v -0.147282 0.009438 -0.347287
v 0.000002 0.147411 -0.350654
v 0.149619 0.005042 -0.347624
v -0.000002 -0.116547 -0.347430
v -0.138385 -0.106242 -0.323876
v -0.139669 0.137010 -0.326880
v 0.139673 0.137010 -0.326880
v 0.138381 -0.106242 -0.323876
v 0.372454 0.032141 -0.000001
v 0.347427 0.032141 -0.148689
v 0.350666 0.147411 0.000010
v 0.347427 0.032141 0.148687
v 0.347427 -0.116547 -0.000001
v 0.323872 -0.106242 -0.138384
v 0.326892 0.137010 -0.139661
v 0.326892 0.137010 0.139682
v 0.323873 -0.106242 0.138382
v -0.000002 0.032141 0.372455
v 0.148686 0.032141 0.347428
v 0.000002 0.147411 0.350674
v -0.148690 0.032141 0.347428
v -0.000002 -0.116547 0.347428
v 0.138381 -0.106242 0.323874
v 0.139673 0.137010 0.326900
v -0.139669 0.137010 0.326901
v -0.138385 -0.106242 0.323874
v -0.000002 -0.340315 -0.000001
v -0.000002 -0.315288 -0.148689
v 0.148686 -0.315288 -0.000001
v -0.000002 -0.315288 0.148687
v -0.148690 -0.315288 -0.000001
v -0.138385 -0.291734 -0.138384
v 0.138381 -0.291734 -0.138384
v 0.138381 -0.291734 0.138382
v -0.138385 -0.291734 0.138382
v -0.000000 0.343976 -0.147210
v -0.147210 0.343976 0.000000
v 0.000000 0.343976 0.147210
v 0.147210 0.343976 -0.000000
v 0.137007 0.320656 -0.137007
v -0.137007 0.320656 -0.137007
v -0.137007 0.320656 0.137007
v 0.137007 0.320656 0.137007
v -0.253949 -0.221806 -0.128079
v -0.272719 -0.240576 -0.000001
v -0.253949 -0.221806 0.128077
v -0.253949 -0.095937 0.253946
v -0.272719 0.032141 0.272716
v -0.251268 0.139010 0.254595
v -0.251423 0.251423 0.126805
v -0.270007 0.270007 0.000000
v -0.251423 0.251423 -0.126805
v -0.256310 0.126609 -0.256301
v -0.272719 0.032141 -0.272718
v -0.253949 -0.095937 -0.253948
v 0.128076 -0.221806 -0.253948
v -0.000002 -0.240576 -0.272718
v -0.128080 -0.221806 -0.253948
v -0.126805 0.251423 -0.251423
v -0.000000 0.270007 -0.270007
v 0.126805 0.251423 -0.251423
v 0.256314 0.126609 -0.256301
v 0.275604 0.018156 -0.268330
v 0.253945 -0.095937 -0.253948
v 0.253945 -0.221806 0.128077
v 0.272715 -0.240576 -0.000001
v 0.253945 -0.221806 -0.128079
v 0.251423 0.251423 -0.126805
v 0.270007 0.270007 -0.000000
v 0.251423 0.251423 0.126805
v 0.256314 0.126609 0.256322
v 0.272715 0.032141 0.272716
v 0.253945 -0.095937 0.253946
v -0.128080 -0.221806 0.253946
v -0.000002 -0.240576 0.272716
v 0.128076 -0.221806 0.253946
v 0.126805 0.251423 0.251423
v 0.000000 0.270007 0.270007
v -0.126805 0.251423 0.251423
v -0.215918 -0.183776 0.215915
v -0.213770 0.213770 0.213770
v -0.215919 -0.183776 -0.215917
v -0.213770 0.213770 -0.213770
v 0.215914 -0.183776 0.215915
v 0.213770 0.213770 0.213770
v 0.215914 -0.183776 -0.215917
v 0.213770 0.213770 -0.213770
v 0.000000 0.360638 0.048219
v 0.041919 0.361698 -0.000000
v -0.000000 0.361309 -0.044234
v -0.041915 0.361699 0.000000
v 0.000000 0.402130 0.000202
v 0.000000 0.396067 0.036226
v 0.031318 0.396859 0.000202
v 0.000000 0.396568 -0.032846
v -0.031314 0.396859 0.000202
vt 0.835263 0.232142
vt 0.720128 0.223337
vt 0.773760 0.169022
vt 0.676115 0.161071
vt 0.721920 0.106614
vt 0.773078 0.286190
vt 0.675538 0.260258
vt 0.125571 0.002161
vt 0.078206 0.067290
vt 0.052045 0.032055
vt 0.820948 0.127528
vt 0.879945 0.192421
vt 0.933324 0.119854
vt 0.821273 0.047593
vt 0.873159 0.073846
vt 0.936027 0.237591
vt 0.887048 0.292695
vt 0.946619 0.321519
vt 0.977637 0.173770
vt 0.173782 0.372167
vt 0.230650 0.432175
vt 0.171574 0.428491
vt 0.781065 0.361185
vt 0.720670 0.321519
vt 0.885349 0.361185
vt 0.834145 0.332385
vt 0.283613 0.022662
vt 0.324798 0.099276
vt 0.281701 0.075849
vt 0.075943 0.619645
vt 0.119240 0.519159
vt 0.156154 0.599648
vt 0.049211 0.464546
vt 0.115165 0.436665
vt 0.002161 0.553276
vt 0.058733 0.539044
vt 0.010433 0.493972
vt 0.192680 0.500403
vt 0.221544 0.578475
vt 0.264071 0.479016
vt 0.295560 0.548043
vt 0.242614 0.653281
vt 0.169858 0.682386
vt 0.263209 0.709039
vt 0.205795 0.738351
vt 0.309405 0.617812
vt 0.307075 0.666159
vt 0.047951 0.693465
vt 0.013224 0.628914
vt 0.593325 0.718024
vt 0.601103 0.636484
vt 0.642877 0.673015
vt 0.638982 0.592468
vt 0.681270 0.603555
vt 0.448740 0.543210
vt 0.563130 0.572709
vt 0.494650 0.618667
vt 0.545991 0.677232
vt 0.525425 0.499364
vt 0.627156 0.535490
vt 0.443561 0.646598
vt 0.395286 0.578845
vt 0.394697 0.677690
vt 0.346817 0.619055
vt 0.492106 0.704692
vt 0.443398 0.711388
vt 0.364157 0.506719
vt 0.410121 0.469757
vt 0.346393 0.447998
vt 0.385749 0.410639
vt 0.451323 0.366370
vt 0.534467 0.323267
vt 0.533728 0.377835
vt 0.591367 0.320665
vt 0.611675 0.359508
vt 0.484459 0.434120
vt 0.554343 0.407221
vt 0.597236 0.464943
vt 0.456734 0.382158
vt 0.891550 0.388595
vt 0.819631 0.425201
vt 0.812450 0.382158
vt 0.852845 0.618808
vt 0.832700 0.502402
vt 0.902748 0.545931
vt 0.875289 0.441608
vt 0.943187 0.477151
vt 0.781344 0.566929
vt 0.772516 0.459384
vt 0.949277 0.581048
vt 0.907369 0.652914
vt 0.997839 0.612896
vt 0.964087 0.680658
vt 0.982337 0.512949
vt 0.671215 0.305968
vt 0.625983 0.275431
vt 0.854486 0.710986
vt 0.801838 0.684258
vt 0.689906 0.054700
vt 0.773687 0.067759
vt 0.911780 0.730865
vt 0.741955 0.019834
vt 0.738783 0.631142
vt 0.685593 0.578537
vt 0.720513 0.515666
vt 0.702942 0.677860
vt 0.002161 0.093790
vt 0.051685 0.119052
vt 0.195457 0.225207
vt 0.283083 0.150868
vt 0.278075 0.233140
vt 0.341711 0.156672
vt 0.342070 0.233128
vt 0.207187 0.137664
vt 0.256992 0.308084
vt 0.179152 0.306588
vt 0.652004 0.447371
vt 0.317562 0.302181
vt 0.681270 0.524182
vt 0.098949 0.287584
vt 0.108263 0.211113
vt 0.027537 0.264561
vt 0.030608 0.192727
vt 0.087546 0.345384
vt 0.740095 0.414791
vt 0.125040 0.130368
vt 0.135427 0.056875
vt 0.212049 0.058011
vt 0.314647 0.507492
vt 0.333803 0.486132
vt 0.333803 0.508771
vt 0.422455 0.129183
vt 0.346393 0.190290
vt 0.357774 0.115269
vt 0.478050 0.235542
vt 0.393457 0.280327
vt 0.404825 0.208869
vt 0.353648 0.248274
vt 0.314647 0.443524
vt 0.335772 0.468462
vt 0.314647 0.472866
vt 0.530561 0.072674
vt 0.483142 0.002161
vt 0.556058 0.011624
vt 0.391626 0.049998
vt 0.453697 0.057289
vt 0.309405 0.446766
vt 0.251492 0.393659
vt 0.314565 0.513094
vt 0.333803 0.543677
vt 0.314565 0.542743
vt 0.586156 0.179034
vt 0.671215 0.135139
vt 0.658028 0.206703
vt 0.624152 0.045102
vt 0.606053 0.103685
vt 0.896655 0.021813
vt 0.820580 0.002161
vt 0.314596 0.439201
vt 0.335772 0.410801
vt 0.335772 0.435745
vt 0.459744 0.310349
vt 0.557181 0.255265
vt 0.329534 0.386181
vt 0.315891 0.373547
vt 0.342070 0.372167
vt 0.478868 0.145007
vt 0.510920 0.129274
vt 0.530306 0.160723
vt 0.495968 0.175649
vt 0.342070 0.398842
vt 0.314596 0.401491
vt 0.979043 0.274855
vt 0.342070 0.069675
vt 0.108207 0.690512
vt 0.758101 0.730865
vt 0.160629 0.367844
vt 0.314647 0.477189
vt 0.335772 0.446541
vt 0.333803 0.521527
vt 0.314596 0.405814
vn -0.9705 -0.1774 0.1634
vn -0.8398 -0.1972 0.5059
vn -0.8342 -0.5209 0.1808
vn -0.7123 -0.5149 0.4769
vn -0.9676 0.1579 0.1971
vn -0.8360 0.5251 0.1595
vn -0.8380 0.2075 0.5048
vn -0.6860 0.5108 0.5182
vn -0.9669 0.1208 -0.2248
vn -0.8803 0.1257 -0.4575
vn -0.8137 0.5558 -0.1700
vn -0.6851 0.5611 -0.4646
vn -0.9691 -0.1631 -0.1852
vn -0.8398 -0.5059 -0.1972
vn -0.8380 -0.1607 -0.5214
vn -0.7123 -0.4769 -0.5149
vn -0.1415 -0.1643 -0.9762
vn -0.5271 -0.1983 -0.8263
vn -0.1808 -0.5209 -0.8342
vn -0.4769 -0.5149 -0.7123
vn -0.1782 0.1829 -0.9669
vn -0.1989 0.5386 -0.8187
vn -0.4814 0.1664 -0.8605
vn -0.5182 0.5107 -0.6861
vn 0.1907 0.1664 -0.9674
vn 0.5098 0.1839 -0.8404
vn 0.1796 0.5556 -0.8118
vn 0.4646 0.5611 -0.6851
vn 0.1324 -0.1645 -0.9774
vn 0.1972 -0.5059 -0.8398
vn 0.5189 -0.2282 -0.8238
vn 0.5149 -0.4769 -0.7123
vn 0.9705 -0.1774 -0.1634
vn 0.8523 -0.1816 -0.4904
vn 0.8342 -0.5209 -0.1808
vn 0.7123 -0.5149 -0.4769
vn 0.9669 0.1828 -0.1782
vn 0.8187 0.5386 -0.1989
vn 0.8287 0.2070 -0.5199
vn 0.6860 0.5107 -0.5182
vn 0.9656 0.2030 0.1625
vn 0.8333 0.2318 0.5019
vn 0.8118 0.5557 0.1796
vn 0.6850 0.5612 0.4646
vn 0.9705 -0.1634 0.1774
vn 0.8398 -0.5059 0.1972
vn 0.8342 -0.1808 0.5209
vn 0.7123 -0.4769 0.5149
vn 0.1634 -0.1774 0.9705
vn 0.5059 -0.1972 0.8398
vn 0.1808 -0.5209 0.8342
vn 0.4769 -0.5149 0.7123
vn 0.1782 0.1827 0.9669
vn 0.1989 0.5387 0.8187
vn 0.5199 0.2069 0.8288
vn 0.5182 0.5108 0.6860
vn -0.1625 0.2030 0.9656
vn -0.5007 0.2415 0.8312
vn -0.1796 0.5557 0.8118
vn -0.4318 0.5894 0.6828
vn -0.1774 -0.1634 0.9705
vn -0.1972 -0.5059 0.8398
vn -0.5209 -0.1808 0.8342
vn -0.5149 -0.4769 0.7123
vn -0.1774 -0.9705 -0.1634
vn -0.1972 -0.8398 -0.5059
vn -0.5209 -0.8342 -0.1808
vn -0.5149 -0.7123 -0.4769
vn 0.1634 -0.9705 -0.1774
vn 0.5059 -0.8398 -0.1972
vn 0.1808 -0.8342 -0.5209
vn 0.4769 -0.7123 -0.5149
vn 0.1774 -0.9705 0.1634
vn 0.1972 -0.8398 0.5059
vn 0.5209 -0.8342 0.1808
vn 0.5149 -0.7123 0.4769
vn -0.1634 -0.9705 0.1774
vn -0.5059 -0.8398 0.1972
vn -0.1808 -0.8342 0.5209
vn -0.4769 -0.7123 0.5149
vn 0.7076 0.2172 -0.6724
vn 0.1972 0.8398 -0.5059
vn 0.5209 0.8342 -0.1808
vn 0.5149 0.7123 -0.4769
vn -0.7076 0.2172 -0.6724
vn -0.5059 0.8398 -0.1972
vn -0.1808 0.8342 -0.5209
vn -0.4769 0.7123 -0.5149
vn 0.7342 0.2177 0.6431
vn -0.1972 0.8398 0.5059
vn -0.5209 0.8342 0.1808
vn -0.5149 0.7123 0.4769
vn -0.7342 0.2177 0.6430
vn 0.5059 0.8398 0.1972
vn 0.1808 0.8342 0.5209
vn 0.4769 0.7123 0.5149
vn 0.1637 0.9728 -0.1637
vn -0.1774 0.9705 -0.1634
vn -0.1634 0.9705 0.1774
vn 0.1774 0.9705 0.1634
vn 0.1634 0.9705 -0.1774
vn -0.1637 0.9728 -0.1637
vn -0.1637 0.9728 0.1637
vn 0.1637 0.9728 0.1637
vn -0.9705 -0.1634 0.1774
vn -0.8342 -0.1808 0.5209
vn -0.8398 -0.5059 0.1972
vn -0.7123 -0.4769 0.5149
vn -0.9656 0.2031 0.1625
vn -0.8075 0.5551 0.1997
vn -0.8103 0.2523 0.5289
vn -0.6834 0.5828 0.4396
vn -0.9672 0.1294 -0.2184
vn -0.8227 0.2330 -0.5186
vn -0.8218 0.5340 -0.1987
vn -0.6861 0.5107 -0.5182
vn -0.9722 -0.1533 -0.1769
vn -0.8342 -0.5209 -0.1808
vn -0.8475 -0.1965 -0.4931
vn -0.7123 -0.5149 -0.4769
vn -0.1792 -0.2084 -0.9615
vn -0.5199 -0.2077 -0.8286
vn -0.1972 -0.5059 -0.8398
vn -0.5149 -0.4769 -0.7123
vn -0.1909 0.1661 -0.9674
vn -0.1796 0.5556 -0.8118
vn -0.5186 0.2330 -0.8227
vn -0.4646 0.5610 -0.6851
vn 0.1782 0.1829 -0.9669
vn 0.5212 0.1707 -0.8362
vn 0.1989 0.5386 -0.8187
vn 0.5182 0.5107 -0.6860
vn 0.1797 -0.2226 -0.9582
vn 0.1808 -0.5209 -0.8342
vn 0.5365 -0.2050 -0.8186
vn 0.4769 -0.5149 -0.7123
vn 0.9705 -0.1634 -0.1774
vn 0.8253 -0.2221 -0.5192
vn 0.8398 -0.5059 -0.1972
vn 0.7123 -0.4769 -0.5149
vn 0.9656 0.2031 -0.1625
vn 0.8118 0.5557 -0.1796
vn 0.8284 0.2052 -0.5213
vn 0.6851 0.5611 -0.4646
vn 0.9669 0.1827 0.1782
vn 0.8288 0.2069 0.5199
vn 0.8187 0.5387 0.1989
vn 0.6860 0.5108 0.5182
vn 0.9705 -0.1774 0.1634
vn 0.8342 -0.5209 0.1808
vn 0.8398 -0.1972 0.5059
vn 0.7123 -0.5149 0.4769
vn 0.1774 -0.1634 0.9705
vn 0.5209 -0.1808 0.8342
vn 0.1972 -0.5059 0.8398
vn 0.5149 -0.4769 0.7123
vn 0.1625 0.2030 0.9656
vn 0.1796 0.5557 0.8118
vn 0.5019 0.2318 0.8333
vn 0.4646 0.5612 0.6850
vn -0.1782 0.1827 0.9669
vn -0.5294 0.2066 0.8228
vn -0.1989 0.5387 0.8187
vn -0.5182 0.5108 0.6860
vn -0.1634 -0.1774 0.9705
vn -0.1808 -0.5209 0.8342
vn -0.5059 -0.1972 0.8398
vn -0.4769 -0.5149 0.7123
vn -0.1634 -0.9705 -0.1774
vn -0.1808 -0.8342 -0.5209
vn -0.5059 -0.8398 -0.1972
vn -0.4769 -0.7123 -0.5149
vn 0.1774 -0.9705 -0.1634
vn 0.5209 -0.8342 -0.1808
vn 0.1972 -0.8398 -0.5059
vn 0.5149 -0.7123 -0.4769
vn 0.1634 -0.9705 0.1774
vn 0.1808 -0.8342 0.5209
vn 0.5059 -0.8398 0.1972
vn 0.4769 -0.7123 0.5149
vn -0.1774 -0.9705 0.1634
vn -0.5209 -0.8342 0.1808
vn -0.1972 -0.8398 0.5059
vn -0.5149 -0.7123 0.4769
vn 0.1808 0.8342 -0.5209
vn 0.5059 0.8398 -0.1972
vn 0.4769 0.7123 -0.5149
vn -0.5209 0.8342 -0.1808
vn -0.1972 0.8398 -0.5059
vn -0.5149 0.7123 -0.4769
vn -0.1808 0.8342 0.5209
vn -0.5059 0.8398 0.1972
vn -0.4769 0.7123 0.5149
vn 0.5209 0.8342 0.1808
vn 0.1972 0.8398 0.5059
vn 0.5149 0.7123 0.4769
vn -0.1634 0.9705 -0.1774
vn -0.1718 0.9701 -0.1714
vn -0.1774 0.9705 0.1634
vn -0.1722 0.9701 0.1711
vn 0.1634 0.9705 0.1774
vn 0.1722 0.9701 0.1711
vn 0.1774 0.9705 -0.1634
vn 0.1718 0.9701 -0.1714
s off
f 1/1/1 6/2/1 2/3/1
f 2/3/2 57/4/2 58/5/2
f 5/6/3 56/7/3 6/2/3
f 6/8/4 90/9/4 57/10/4
f 1/1/5 7/11/5 3/12/5
f 7/11/6 61/13/6 3/12/6
f 58/5/7 7/11/7 2/3/7
f 7/11/8 91/14/8 60/15/8
f 1/1/9 8/16/9 4/17/9
f 8/16/10 64/18/10 4/17/10
f 3/12/11 62/19/11 8/16/11
f 8/20/12 93/21/12 63/22/12
f 4/17/13 5/6/13 1/1/13
f 5/6/14 54/23/14 55/24/14
f 4/17/15 65/25/15 9/26/15
f 9/27/16 92/28/16 54/29/16
f 14/30/17 11/31/17 10/32/17
f 11/31/18 65/33/18 64/34/18
f 14/30/19 68/35/19 15/36/19
f 15/36/20 92/37/20 65/33/20
f 10/32/21 16/38/21 12/39/21
f 12/39/22 69/40/22 70/41/22
f 64/34/23 16/38/23 11/31/23
f 16/38/24 93/21/24 69/40/24
f 10/32/25 17/42/25 13/43/25
f 13/43/26 72/44/26 73/45/26
f 12/39/27 71/46/27 17/42/27
f 17/42/28 97/47/28 72/44/28
f 13/43/29 14/30/29 10/32/29
f 14/30/30 66/48/30 67/49/30
f 13/50/31 74/51/31 18/52/31
f 18/52/32 96/53/32 66/54/32
f 19/55/33 24/56/33 20/57/33
f 24/56/34 73/58/34 20/57/34
f 23/59/35 77/60/35 24/56/35
f 24/56/36 96/53/36 74/51/36
f 19/55/37 25/61/37 21/62/37
f 21/62/38 78/63/38 79/64/38
f 20/57/39 72/65/39 25/61/39
f 25/61/40 97/66/40 78/63/40
f 19/55/41 26/67/41 22/68/41
f 22/68/42 81/69/42 82/70/42
f 21/71/43 80/72/43 26/73/43
f 26/73/44 95/74/44 81/75/44
f 19/55/45 27/76/45 23/59/45
f 23/59/46 75/77/46 76/78/46
f 22/68/47 83/79/47 27/76/47
f 27/80/48 94/81/48 75/82/48
f 28/83/49 33/84/49 29/85/49
f 29/85/50 83/86/50 82/87/50
f 32/88/51 86/89/51 33/84/51
f 33/84/52 94/81/52 83/86/52
f 28/83/53 34/90/53 30/91/53
f 30/91/54 87/92/54 88/93/54
f 29/85/55 81/94/55 34/90/55
f 34/95/56 95/74/56 87/96/56
f 28/83/57 35/97/57 31/98/57
f 31/99/58 59/100/58 58/5/58
f 30/91/59 89/101/59 35/97/59
f 35/102/60 91/14/60 59/100/60
f 28/83/61 36/103/61 32/88/61
f 32/88/62 84/104/62 85/105/62
f 31/98/63 57/106/63 36/103/63
f 36/107/64 90/9/64 84/108/64
f 37/109/65 42/110/65 38/111/65
f 38/111/66 68/112/66 67/113/66
f 41/114/67 54/29/67 42/110/67
f 42/110/68 92/28/68 68/112/68
f 37/109/69 43/115/69 39/116/69
f 39/117/70 77/60/70 76/78/70
f 38/111/71 66/118/71 43/115/71
f 43/119/72 96/53/72 77/60/72
f 37/109/73 44/120/73 40/121/73
f 40/121/74 86/122/74 85/123/74
f 39/116/75 75/124/75 44/120/75
f 44/125/76 94/81/76 86/89/76
f 37/109/77 45/126/77 41/114/77
f 41/114/78 56/127/78 55/128/78
f 40/121/79 84/108/79 45/126/79
f 45/126/80 90/9/80 56/127/80
f 99/129/81 105/130/81 104/131/81
f 46/132/82 71/133/82 70/134/82
f 49/135/83 78/136/83 50/137/83
f 50/137/84 97/138/84 71/133/84
f 101/139/85 105/140/85 100/141/85
f 47/142/86 62/143/86 61/144/86
f 46/132/87 69/145/87 51/146/87
f 51/147/88 93/21/88 62/148/88
f 99/149/89 103/150/89 98/151/89
f 48/152/90 89/153/90 88/154/90
f 47/142/91 60/155/91 52/156/91
f 52/157/92 91/14/92 89/158/92
f 101/159/93 103/160/93 106/161/93
f 49/135/94 80/72/94 79/162/94
f 48/152/95 87/96/95 53/163/95
f 53/163/96 95/74/96 80/72/96
f 102/164/97 104/165/97 105/166/97
f 100/167/98 46/132/98 51/146/98
f 101/168/99 47/142/99 52/156/99
f 98/169/100 48/152/100 53/163/100
f 99/170/101 49/135/101 50/137/101
f 102/164/102 105/166/102 106/171/102
f 102/164/103 106/171/103 103/172/103
f 102/164/104 103/172/104 104/165/104
f 1/1/105 5/6/105 6/2/105
f 2/3/106 6/2/106 57/4/106
f 5/6/107 55/24/107 56/7/107
f 6/8/108 56/127/108 90/9/108
f 1/1/109 2/3/109 7/11/109
f 7/11/110 60/15/110 61/13/110
f 58/5/111 59/100/111 7/11/111
f 7/11/112 59/100/112 91/14/112
f 1/1/113 3/12/113 8/16/113
f 8/16/114 63/173/114 64/18/114
f 3/12/115 61/13/115 62/19/115
f 8/20/116 62/148/116 93/21/116
f 4/17/117 9/26/117 5/6/117
f 5/6/118 9/26/118 54/23/118
f 4/17/119 64/18/119 65/25/119
f 9/27/120 65/174/120 92/28/120
f 14/30/121 15/36/121 11/31/121
f 11/31/122 15/36/122 65/33/122
f 14/30/123 67/49/123 68/35/123
f 15/36/124 68/35/124 92/37/124
f 10/32/125 11/31/125 16/38/125
f 12/39/126 16/38/126 69/40/126
f 64/34/127 63/22/127 16/38/127
f 16/38/128 63/22/128 93/21/128
f 10/32/129 12/39/129 17/42/129
f 13/43/130 17/42/130 72/44/130
f 12/39/131 70/41/131 71/46/131
f 17/42/132 71/46/132 97/47/132
f 13/43/133 18/175/133 14/30/133
f 14/30/134 18/175/134 66/48/134
f 13/50/135 73/58/135 74/51/135
f 18/52/136 74/51/136 96/53/136
f 19/55/137 23/59/137 24/56/137
f 24/56/138 74/51/138 73/58/138
f 23/59/139 76/78/139 77/60/139
f 24/56/140 77/60/140 96/53/140
f 19/55/141 20/57/141 25/61/141
f 21/62/142 25/61/142 78/63/142
f 20/57/143 73/58/143 72/65/143
f 25/61/144 72/65/144 97/66/144
f 19/55/145 21/62/145 26/67/145
f 22/68/146 26/67/146 81/69/146
f 21/71/147 79/162/147 80/72/147
f 26/73/148 80/72/148 95/74/148
f 19/55/149 22/68/149 27/76/149
f 23/59/150 27/76/150 75/77/150
f 22/68/151 82/70/151 83/79/151
f 27/80/152 83/86/152 94/81/152
f 28/83/153 32/88/153 33/84/153
f 29/85/154 33/84/154 83/86/154
f 32/88/155 85/105/155 86/89/155
f 33/84/156 86/89/156 94/81/156
f 28/83/157 29/85/157 34/90/157
f 30/91/158 34/90/158 87/92/158
f 29/85/159 82/87/159 81/94/159
f 34/95/160 81/75/160 95/74/160
f 28/83/161 30/91/161 35/97/161
f 31/99/162 35/102/162 59/100/162
f 30/91/163 88/93/163 89/101/163
f 35/102/164 89/158/164 91/14/164
f 28/83/165 31/98/165 36/103/165
f 32/88/166 36/103/166 84/104/166
f 31/98/167 58/176/167 57/106/167
f 36/107/168 57/10/168 90/9/168
f 37/109/169 41/114/169 42/110/169
f 38/111/170 42/110/170 68/112/170
f 41/114/171 55/128/171 54/29/171
f 42/110/172 54/29/172 92/28/172
f 37/109/173 38/111/173 43/115/173
f 39/117/174 43/119/174 77/60/174
f 38/111/175 67/113/175 66/118/175
f 43/119/176 66/54/176 96/53/176
f 37/109/177 39/116/177 44/120/177
f 40/121/178 44/120/178 86/122/178
f 39/116/179 76/177/179 75/124/179
f 44/125/180 75/82/180 94/81/180
f 37/109/181 40/121/181 45/126/181
f 41/114/182 45/126/182 56/127/182
f 40/121/183 85/123/183 84/108/183
f 45/126/184 84/108/184 90/9/184
f 99/129/81 100/178/81 105/130/81
f 46/132/185 50/137/185 71/133/185
f 49/135/186 79/162/186 78/136/186
f 50/137/187 78/136/187 97/138/187
f 101/139/85 106/179/85 105/140/85
f 47/142/188 51/146/188 62/143/188
f 46/132/189 70/134/189 69/145/189
f 51/147/190 69/40/190 93/21/190
f 99/149/89 104/180/89 103/150/89
f 48/152/191 52/156/191 89/153/191
f 47/142/192 61/144/192 60/155/192
f 52/157/193 60/15/193 91/14/193
f 101/159/93 98/181/93 103/160/93
f 49/135/194 53/163/194 80/72/194
f 48/152/195 88/154/195 87/96/195
f 53/163/196 87/96/196 95/74/196
f 47/142/197 101/168/197 51/146/197
f 101/168/198 100/167/198 51/146/198
f 48/152/199 98/169/199 52/156/199
f 98/169/200 101/168/200 52/156/200
f 49/135/201 99/170/201 53/163/201
f 99/170/202 98/169/202 53/163/202
f 46/132/203 100/167/203 50/137/203
f 100/167/204 99/170/204 50/137/204
