# Blender v2.92.0 OBJ File: 'quaternius_OGConvert.blend'
# www.blender.org
o Plate_Square_Plane.004
v -0.818523 0.111982 0.000000
v 0.000000 0.111982 0.818523
v 0.818523 0.111982 0.000000
v 0.000000 0.111982 -0.818523
v -0.526445 0.032294 0.431934
v -0.431934 0.032294 0.526445
v -0.498763 0.032294 0.498763
v 0.431934 0.032294 0.526445
v 0.526445 0.032294 0.431934
v 0.498763 0.032294 0.498763
v -0.431934 0.032294 -0.526445
v -0.526445 0.032294 -0.431934
v -0.498763 0.032294 -0.498763
v 0.526445 0.032294 -0.431934
v 0.431934 0.032294 -0.526445
v 0.498763 0.032294 -0.498763
v -0.672386 0.111982 -0.561392
v -0.561392 0.111982 -0.672386
v -0.639877 0.111982 -0.639877
v -0.561392 0.111982 0.672386
v -0.672386 0.111982 0.561392
v -0.639877 0.111982 0.639877
v 0.672386 0.111982 0.561392
v 0.561392 0.111982 0.672386
v 0.639877 0.111982 0.639877
v 0.561392 0.111982 -0.672386
v 0.672386 0.111982 -0.561392
v 0.639877 0.111982 -0.639877
v -0.707528 0.111982 -0.818523
v -0.818523 0.111982 -0.707528
v -0.786013 0.111982 -0.786013
v -0.818523 0.111982 0.707528
v -0.707528 0.111982 0.818523
v -0.786013 0.111982 0.786013
v 0.707528 0.111982 0.818523
v 0.818523 0.111982 0.707528
v 0.786013 0.111982 0.786013
v 0.818523 0.111982 -0.707528
v 0.707528 0.111982 -0.818523
v 0.786013 0.111982 -0.786013
v -0.477198 0.008173 -0.382687
v -0.382687 0.008173 -0.477198
v -0.449517 0.008173 -0.449517
v -0.382687 0.008173 0.477198
v -0.477198 0.008173 0.382687
v -0.449517 0.008173 0.449517
v 0.477198 0.008173 0.382687
v 0.382687 0.008173 0.477198
v 0.449517 0.008173 0.449517
v 0.382687 0.008173 -0.477198
v 0.477198 0.008173 -0.382687
v 0.449517 0.008173 -0.449517
v -0.818523 0.139697 0.000000
v 0.000000 0.139697 0.818523
v 0.818523 0.139697 0.000000
v 0.000000 0.139697 -0.818523
v -0.515209 0.057549 0.429926
v -0.429926 0.057549 0.515209
v -0.491822 0.058211 0.491822
v 0.429926 0.057549 0.515209
v 0.515209 0.057549 0.429926
v 0.491822 0.058211 0.491822
v -0.429926 0.057549 -0.515209
v -0.515209 0.057549 -0.429926
v -0.491822 0.058211 -0.491822
v 0.515209 0.057549 -0.429926
v 0.429926 0.057549 -0.515209
v 0.491822 0.058211 -0.491822
v -0.667334 0.139203 -0.560110
v -0.560110 0.139203 -0.667334
v -0.637082 0.139414 -0.637082
v -0.560110 0.139203 0.667334
v -0.667334 0.139203 0.560110
v -0.637082 0.139414 0.637082
v 0.667334 0.139203 0.560110
v 0.560110 0.139203 0.667334
v 0.637082 0.139414 0.637082
v 0.560110 0.139203 -0.667334
v 0.667334 0.139203 -0.560110
v 0.637082 0.139414 -0.637082
v -0.707528 0.139697 -0.818523
v -0.818523 0.139697 -0.707528
v -0.786013 0.139697 -0.786013
v -0.818523 0.139697 0.707528
v -0.707528 0.139697 0.818523
v -0.786013 0.139697 0.786013
v 0.707528 0.139697 0.818523
v 0.818523 0.139697 0.707528
v 0.786013 0.139697 0.786013
v 0.818523 0.139697 -0.707528
v 0.707528 0.139697 -0.818523
v 0.786013 0.139697 -0.786013
v -0.470834 0.035138 -0.381955
v -0.381955 0.035138 -0.470834
v -0.445487 0.035296 -0.445487
v -0.381955 0.035138 0.470834
v -0.470834 0.035138 0.381955
v -0.445487 0.035296 0.445487
v 0.470834 0.035138 0.381955
v 0.381955 0.035138 0.470834
v 0.445487 0.035296 0.445487
v 0.381955 0.035138 -0.470834
v 0.470834 0.035138 -0.381955
v 0.445487 0.035296 -0.445487
vt 0.090012 0.118734
vt 0.104978 0.366300
vt 0.090012 0.381266
vt 0.454340 0.079391
vt 0.498752 0.034980
vt 0.498752 0.250000
vt 0.381266 0.090012
vt 0.133700 0.104978
vt 0.118734 0.090012
vt 0.409988 0.381266
vt 0.395022 0.133700
vt 0.409988 0.118734
vt 0.420609 0.454340
vt 0.465020 0.498752
vt 0.250000 0.498752
vt 0.381266 0.409988
vt 0.079391 0.454340
vt 0.118734 0.409988
vt 0.079391 0.045660
vt 0.034980 0.001248
vt 0.250000 0.001248
vt 0.133700 0.395022
vt 0.045660 0.420609
vt 0.001248 0.465020
vt 0.001248 0.250000
vt 0.454340 0.420609
vt 0.045660 0.079391
vt 0.420609 0.045660
vt 0.098424 0.098424
vt 0.401576 0.098424
vt 0.444461 0.055539
vt 0.401576 0.401576
vt 0.098424 0.401576
vt 0.055539 0.444461
vt 0.055539 0.055539
vt 0.011128 0.011128
vt 0.001248 0.034980
vt 0.034980 0.498752
vt 0.444461 0.444461
vt 0.488872 0.488872
vt 0.498752 0.465020
vt 0.465020 0.001248
vt 0.386610 0.113390
vt 0.113390 0.113390
vt 0.104978 0.133700
vt 0.113390 0.386610
vt 0.386610 0.386610
vt 0.395022 0.366300
vt 0.366300 0.395022
vt 0.106912 0.633922
vt 0.093426 0.880656
vt 0.093426 0.619344
vt 0.498752 0.750000
vt 0.498752 0.965020
vt 0.452805 0.920219
vt 0.133922 0.893088
vt 0.380656 0.906574
vt 0.119344 0.906574
vt 0.393088 0.866077
vt 0.406574 0.619344
vt 0.406574 0.880656
vt 0.250000 0.501248
vt 0.465020 0.501248
vt 0.420219 0.547195
vt 0.079781 0.547195
vt 0.380656 0.593426
vt 0.119344 0.593426
vt 0.250000 0.998752
vt 0.034980 0.998752
vt 0.079781 0.952805
vt 0.133923 0.606912
vt 0.393088 0.633922
vt 0.001248 0.750000
vt 0.001248 0.534980
vt 0.047195 0.579781
vt 0.452805 0.579781
vt 0.047195 0.920219
vt 0.420219 0.952805
vt 0.100534 0.899466
vt 0.056389 0.943611
vt 0.399466 0.899466
vt 0.443611 0.943611
vt 0.399466 0.600533
vt 0.443611 0.556389
vt 0.100534 0.600533
vt 0.056389 0.556389
vt 0.001248 0.965020
vt 0.011128 0.988872
vt 0.034980 0.501248
vt 0.011128 0.511128
vt 0.498752 0.534980
vt 0.488872 0.511128
vt 0.465020 0.998752
vt 0.488872 0.988872
vt 0.385385 0.885385
vt 0.114615 0.885385
vt 0.106912 0.866077
vt 0.114615 0.614615
vt 0.385385 0.614615
vt 0.366078 0.606912
vt 0.509671 0.478992
vt 0.501248 0.455140
vt 0.509671 0.455140
vt 0.531509 0.026181
vt 0.523087 0.001248
vt 0.531509 0.001248
vt 0.520590 0.025100
vt 0.512167 0.001248
vt 0.520590 0.001248
vt 0.531509 0.474952
vt 0.523087 0.452584
vt 0.531509 0.452584
vt 0.520590 0.478992
vt 0.512167 0.455140
vt 0.520590 0.455140
vt 0.542428 0.023616
vt 0.534006 0.001248
vt 0.542428 0.001248
vt 0.509671 0.025100
vt 0.501248 0.001248
vt 0.509671 0.001248
vt 0.542428 0.474952
vt 0.534006 0.450020
vt 0.542428 0.450020
vt 0.512167 0.240120
vt 0.520590 0.240120
vt 0.512167 0.025100
vt 0.523087 0.239382
vt 0.531509 0.239382
vt 0.523087 0.026181
vt 0.534006 0.236818
vt 0.542428 0.236818
vt 0.534006 0.023616
vt 0.501248 0.240120
vt 0.509671 0.240120
vt 0.501248 0.025100
vt 0.366300 0.104978
vt 0.011128 0.488872
vt 0.488872 0.011128
vt 0.366078 0.893088
vt 0.501248 0.478992
vt 0.523087 0.474952
vt 0.512167 0.478992
vt 0.534006 0.474952
vn 0.0000 -0.8981 -0.4399
vn 0.0000 -1.0000 0.0000
vn 0.4399 -0.8981 0.0000
vn 0.0000 -0.8981 0.4399
vn -0.4792 -0.8777 0.0000
vn 0.0000 -0.8777 0.4792
vn 0.0000 -0.8777 -0.4792
vn 0.4792 -0.8777 0.0000
vn 0.1518 -0.9179 -0.3665
vn 0.3665 -0.9179 -0.1518
vn 0.1518 -0.9179 0.3665
vn 0.3665 -0.9179 0.1518
vn -0.1518 -0.9179 0.3665
vn -0.3665 -0.9179 0.1518
vn -0.1518 -0.9179 -0.3665
vn -0.3665 -0.9179 -0.1518
vn 0.1343 -0.9364 0.3243
vn 0.3243 -0.9364 0.1343
vn 0.1343 -0.9364 -0.3243
vn 0.3243 -0.9364 -0.1343
vn -0.1343 -0.9364 -0.3243
vn -0.3243 -0.9364 -0.1343
vn -0.1343 -0.9364 0.3243
vn -0.3243 -0.9364 0.1343
vn -0.4399 -0.8981 0.0000
vn 0.0000 0.8926 0.4508
vn 0.0000 1.0000 -0.0033
vn -0.4508 0.8926 0.0000
vn 0.0000 0.8926 -0.4508
vn 0.0033 1.0000 0.0000
vn 0.4729 0.8811 0.0000
vn -0.0033 1.0000 0.0000
vn 0.0000 1.0000 0.0000
vn 0.0000 1.0000 0.0033
vn 0.0000 0.8811 -0.4729
vn 0.0000 0.8811 0.4729
vn -0.4729 0.8811 0.0000
vn -0.1482 0.9186 0.3662
vn -0.3668 0.9186 0.1467
vn -0.1482 0.9186 -0.3662
vn -0.3668 0.9186 -0.1467
vn 0.1482 0.9186 -0.3662
vn 0.3668 0.9186 -0.1467
vn 0.1482 0.9186 0.3662
vn 0.3668 0.9186 0.1467
vn -0.0004 1.0000 0.0029
vn -0.0006 1.0000 0.0013
vn 0.0004 1.0000 0.0029
vn 0.0006 1.0000 0.0013
vn 0.0004 1.0000 -0.0029
vn 0.0006 1.0000 -0.0013
vn -0.0004 1.0000 -0.0029
vn -0.0006 1.0000 -0.0013
vn -0.1333 0.9352 -0.3282
vn -0.3283 0.9350 -0.1341
vn -0.1333 0.9352 0.3282
vn -0.3283 0.9350 0.1341
vn 0.1333 0.9352 0.3282
vn 0.3283 0.9350 0.1341
vn 0.1333 0.9352 -0.3282
vn 0.3283 0.9350 -0.1341
vn 0.4508 0.8926 0.0000
vn 0.9239 0.0000 -0.3827
vn 0.3827 0.0000 -0.9239
vn -0.9239 0.0000 -0.3827
vn -0.3827 0.0000 -0.9239
vn -0.9239 0.0000 0.3827
vn -0.3827 0.0000 0.9239
vn 0.9239 0.0000 0.3827
vn 0.3827 0.0000 0.9239
vn -1.0000 0.0000 0.0000
vn 0.0000 0.0000 -1.0000
vn 0.0000 0.0000 1.0000
vn 1.0000 0.0000 0.0000
vn 0.0041 1.0000 -0.0041
vn -0.0041 1.0000 -0.0041
vn -0.0041 1.0000 0.0041
vn 0.0041 1.0000 0.0041
vn -0.1467 0.9186 0.3668
vn -0.3662 0.9186 0.1482
vn -0.1467 0.9186 -0.3668
vn -0.3662 0.9186 -0.1482
vn 0.1467 0.9186 -0.3668
vn 0.3662 0.9186 -0.1482
vn 0.1467 0.9186 0.3668
vn 0.3662 0.9186 0.1482
vn -0.0013 1.0000 0.0006
vn -0.0029 1.0000 0.0004
vn 0.0013 1.0000 0.0006
vn 0.0029 1.0000 0.0004
vn 0.0013 1.0000 -0.0006
vn 0.0029 1.0000 -0.0004
vn -0.0013 1.0000 -0.0006
vn -0.0029 1.0000 -0.0004
vn -0.1341 0.9350 -0.3283
vn -0.3282 0.9352 -0.1333
vn -0.1341 0.9350 0.3283
vn -0.3282 0.9352 0.1333
vn 0.1341 0.9350 0.3283
vn 0.3282 0.9352 0.1333
vn 0.1341 0.9350 -0.3283
vn 0.3282 0.9352 -0.1333
s off
f 15/1/1 42/2/1 11/3/1
f 24/4/2 35/5/2 2/6/2
f 9/7/3 51/8/3 14/9/3
f 6/10/4 48/11/4 8/12/4
f 21/13/2 32/14/2 1/15/2
f 5/16/5 17/17/5 12/18/5
f 27/19/2 38/20/2 3/21/2
f 51/8/2 48/11/2 41/22/2
f 18/23/2 29/24/2 4/25/2
f 8/12/6 20/26/6 6/10/6
f 11/3/7 26/27/7 15/1/7
f 14/9/8 23/28/8 9/7/8
f 26/27/9 16/29/9 15/1/9
f 16/29/10 27/19/10 14/9/10
f 24/4/11 10/30/11 25/31/11
f 10/30/12 23/28/12 25/31/12
f 20/26/13 7/32/13 6/10/13
f 7/32/14 21/13/14 5/16/14
f 18/23/15 13/33/15 19/34/15
f 13/33/16 17/17/16 19/34/16
f 38/20/2 28/35/2 40/36/2
f 28/35/2 39/37/2 40/36/2
f 30/38/2 19/34/2 17/17/2
f 19/34/2 29/24/2 18/23/2
f 32/14/2 22/39/2 34/40/2
f 22/39/2 33/41/2 34/40/2
f 36/42/2 25/31/2 23/28/2
f 25/31/2 35/5/2 24/4/2
f 8/12/17 49/43/17 10/30/17
f 49/43/18 9/7/18 10/30/18
f 15/1/19 52/44/19 50/45/19
f 52/44/20 14/9/20 51/8/20
f 11/3/21 43/46/21 13/33/21
f 43/46/22 12/18/22 13/33/22
f 6/10/23 46/47/23 44/48/23
f 46/47/24 5/16/24 45/49/24
f 12/18/25 45/49/25 5/16/25
f 94/50/26 67/51/26 63/52/26
f 54/53/27 87/54/27 76/55/27
f 103/56/28 61/57/28 66/58/28
f 100/59/29 58/60/29 60/61/29
f 53/62/30 84/63/30 73/64/30
f 69/65/31 57/66/31 64/67/31
f 55/68/32 90/69/32 79/70/32
f 94/50/33 93/71/33 96/72/33
f 56/73/34 81/74/34 70/75/34
f 72/76/35 60/61/35 58/60/35
f 78/77/36 63/52/36 67/51/36
f 75/78/37 66/58/37 61/57/37
f 68/79/38 78/77/38 67/51/38
f 68/79/39 79/70/39 80/80/39
f 76/55/40 62/81/40 60/61/40
f 75/78/41 62/81/41 77/82/41
f 59/83/42 72/76/42 58/60/42
f 59/83/43 73/64/43 74/84/43
f 70/75/44 65/85/44 63/52/44
f 69/65/45 65/85/45 71/86/45
f 90/69/46 80/80/46 79/70/46
f 91/87/47 80/80/47 92/88/47
f 71/86/48 82/89/48 69/65/48
f 71/86/49 81/74/49 83/90/49
f 84/63/50 74/84/50 73/64/50
f 85/91/51 74/84/51 86/92/51
f 77/82/52 88/93/52 75/78/52
f 77/82/53 87/54/53 89/94/53
f 60/61/54 101/95/54 100/59/54
f 61/57/55 101/95/55 62/81/55
f 104/96/56 67/51/56 102/97/56
f 104/96/57 66/58/57 68/79/57
f 63/52/58 95/98/58 94/50/58
f 64/67/59 95/98/59 65/85/59
f 98/99/60 58/60/60 96/72/60
f 98/99/61 57/66/61 59/83/61
f 97/100/62 64/67/62 57/66/62
f 40/101/63 90/102/63 38/103/63
f 39/104/64 92/105/64 40/106/64
f 30/107/65 83/108/65 31/109/65
f 31/110/66 81/111/66 29/112/66
f 34/113/67 84/114/67 32/115/67
f 33/116/68 86/117/68 34/118/68
f 36/119/69 89/120/69 37/121/69
f 37/122/70 87/123/70 35/124/70
f 32/115/71 53/125/71 1/126/71
f 1/126/71 82/127/71 30/107/71
f 29/112/72 56/128/72 4/129/72
f 4/129/72 91/130/72 39/104/72
f 35/124/73 54/131/73 2/132/73
f 2/132/73 85/133/73 33/116/73
f 38/103/74 55/134/74 3/135/74
f 3/135/74 88/136/74 36/119/74
f 15/1/1 50/45/1 42/2/1
f 33/41/2 20/26/2 2/6/2
f 20/26/2 24/4/2 2/6/2
f 9/7/3 47/137/3 51/8/3
f 6/10/4 44/48/4 48/11/4
f 30/38/2 17/17/2 1/15/2
f 17/17/2 21/13/2 1/15/2
f 5/16/5 21/13/5 17/17/5
f 36/42/2 23/28/2 3/21/2
f 23/28/2 27/19/2 3/21/2
f 48/11/2 44/48/2 45/49/2
f 44/48/2 46/47/2 45/49/2
f 45/49/2 41/22/2 48/11/2
f 41/22/2 43/46/2 42/2/2
f 42/2/2 50/45/2 51/8/2
f 50/45/2 52/44/2 51/8/2
f 51/8/2 47/137/2 48/11/2
f 47/137/2 49/43/2 48/11/2
f 41/22/2 42/2/2 51/8/2
f 39/37/2 26/27/2 4/25/2
f 26/27/2 18/23/2 4/25/2
f 8/12/6 24/4/6 20/26/6
f 11/3/7 18/23/7 26/27/7
f 14/9/8 27/19/8 23/28/8
f 26/27/9 28/35/9 16/29/9
f 16/29/10 28/35/10 27/19/10
f 24/4/11 8/12/11 10/30/11
f 10/30/12 9/7/12 23/28/12
f 20/26/13 22/39/13 7/32/13
f 7/32/14 22/39/14 21/13/14
f 18/23/15 11/3/15 13/33/15
f 13/33/16 12/18/16 17/17/16
f 38/20/2 27/19/2 28/35/2
f 28/35/2 26/27/2 39/37/2
f 30/38/2 31/138/2 19/34/2
f 19/34/2 31/138/2 29/24/2
f 32/14/2 21/13/2 22/39/2
f 22/39/2 20/26/2 33/41/2
f 36/42/2 37/139/2 25/31/2
f 25/31/2 37/139/2 35/5/2
f 8/12/17 48/11/17 49/43/17
f 49/43/18 47/137/18 9/7/18
f 15/1/19 16/29/19 52/44/19
f 52/44/20 16/29/20 14/9/20
f 11/3/21 42/2/21 43/46/21
f 43/46/22 41/22/22 12/18/22
f 6/10/23 7/32/23 46/47/23
f 46/47/24 7/32/24 5/16/24
f 12/18/25 41/22/25 45/49/25
f 94/50/26 102/97/26 67/51/26
f 76/55/27 72/76/27 54/53/27
f 72/76/27 85/91/27 54/53/27
f 103/56/28 99/140/28 61/57/28
f 100/59/29 96/72/29 58/60/29
f 73/64/30 69/65/30 53/62/30
f 69/65/30 82/89/30 53/62/30
f 69/65/31 73/64/31 57/66/31
f 79/70/32 75/78/32 55/68/32
f 75/78/32 88/93/32 55/68/32
f 98/99/75 96/72/75 97/100/75
f 96/72/33 100/59/33 99/140/33
f 100/59/76 101/95/76 99/140/76
f 99/140/33 103/56/33 102/97/33
f 103/56/77 104/96/77 102/97/77
f 102/97/33 94/50/33 99/140/33
f 94/50/78 95/98/78 93/71/78
f 93/71/33 97/100/33 96/72/33
f 96/72/33 99/140/33 94/50/33
f 70/75/34 78/77/34 56/73/34
f 78/77/34 91/87/34 56/73/34
f 72/76/35 76/55/35 60/61/35
f 78/77/36 70/75/36 63/52/36
f 75/78/37 79/70/37 66/58/37
f 68/79/79 80/80/79 78/77/79
f 68/79/80 66/58/80 79/70/80
f 76/55/81 77/82/81 62/81/81
f 75/78/82 61/57/82 62/81/82
f 59/83/83 74/84/83 72/76/83
f 59/83/84 57/66/84 73/64/84
f 70/75/85 71/86/85 65/85/85
f 69/65/86 64/67/86 65/85/86
f 90/69/87 92/88/87 80/80/87
f 91/87/88 78/77/88 80/80/88
f 71/86/89 83/90/89 82/89/89
f 71/86/90 70/75/90 81/74/90
f 84/63/91 86/92/91 74/84/91
f 85/91/92 72/76/92 74/84/92
f 77/82/93 89/94/93 88/93/93
f 77/82/94 76/55/94 87/54/94
f 60/61/95 62/81/95 101/95/95
f 61/57/96 99/140/96 101/95/96
f 104/96/97 68/79/97 67/51/97
f 104/96/98 103/56/98 66/58/98
f 63/52/99 65/85/99 95/98/99
f 64/67/100 93/71/100 95/98/100
f 98/99/101 59/83/101 58/60/101
f 98/99/102 97/100/102 57/66/102
f 97/100/62 93/71/62 64/67/62
f 40/101/63 92/141/63 90/102/63
f 39/104/64 91/130/64 92/105/64
f 30/107/65 82/127/65 83/108/65
f 31/110/66 83/142/66 81/111/66
f 34/113/67 86/143/67 84/114/67
f 33/116/68 85/133/68 86/117/68
f 36/119/69 88/136/69 89/120/69
f 37/122/70 89/144/70 87/123/70
f 32/115/71 84/114/71 53/125/71
f 1/126/71 53/125/71 82/127/71
f 29/112/72 81/111/72 56/128/72
f 4/129/72 56/128/72 91/130/72
f 35/124/73 87/123/73 54/131/73
f 2/132/73 54/131/73 85/133/73
f 38/103/74 90/102/74 55/134/74
f 3/135/74 55/134/74 88/136/74
