# Blender v2.92.0 OBJ File: 'quaternius_OGConvert.blend'
# www.blender.org
o Salmon2_Cube.016
v -0.201998 0.083395 0.126676
v -0.201998 0.083395 -0.126649
v 0.033863 0.083395 0.133519
v 0.027515 0.083395 -0.116854
v 0.163679 0.083395 -0.105578
v 0.176549 0.083395 0.101998
v 0.259337 0.083395 -0.070140
v 0.266351 0.083395 0.048110
v -0.331250 0.083395 0.078065
v -0.331250 0.083395 -0.078065
v -0.201998 0.176931 0.111367
v -0.201998 0.176931 -0.111356
v 0.027515 0.190731 -0.102964
v 0.033863 0.190731 0.118020
v 0.130087 0.177025 -0.088880
v 0.142958 0.177025 0.086672
v 0.236285 0.122241 -0.061040
v 0.242885 0.124614 0.041801
v -0.319645 0.114225 0.067892
v -0.319645 0.114225 -0.067892
v -0.198694 0.213074 0.062081
v -0.198694 0.213074 -0.062142
v 0.012789 0.234748 -0.056242
v 0.018799 0.234748 0.066161
v 0.096133 0.212999 -0.048185
v 0.108319 0.212999 0.047104
v 0.202593 0.163511 -0.033726
v 0.208842 0.165758 0.022867
v -0.301529 0.164303 0.037361
v -0.301529 0.164303 -0.037361
v -0.230340 0.083395 -0.118235
v -0.230340 0.083395 0.118242
v -0.228452 0.166730 -0.103401
v -0.228452 0.166730 0.103413
v -0.226010 0.205141 -0.057391
v -0.226010 0.205141 0.057364
v -0.007277 0.083395 -0.121206
v -0.001891 0.083395 0.135492
v -0.007277 0.188307 -0.107401
v -0.001891 0.188307 0.120279
v -0.018635 0.235147 -0.058584
v -0.013535 0.235147 0.067242
v 0.132148 0.083395 0.117982
v 0.120777 0.083395 -0.115124
v 0.106278 0.180176 0.098109
v 0.094907 0.180176 -0.094816
v 0.076718 0.220704 0.053006
v 0.065952 0.220704 -0.050670
v -0.082165 0.083395 0.139597
v -0.082165 0.185057 0.124480
v -0.085342 0.233107 0.069796
v -0.085390 0.083395 -0.131810
v -0.085390 0.185057 -0.117452
v -0.088395 0.233107 -0.065179
v -0.110590 0.083395 0.137588
v -0.110590 0.183129 0.122875
v -0.111704 0.231608 0.068835
v -0.113050 0.083395 -0.131977
v -0.113050 0.183129 -0.117555
v -0.114033 0.231608 -0.065530
v -0.201998 0.083395 -0.000025
v 0.030689 0.083395 0.008623
v 0.170114 0.083395 -0.001790
v 0.262844 0.083395 -0.011015
v -0.331250 0.083395 0.000000
v 0.239585 0.123428 -0.009619
v -0.319645 0.114225 0.000000
v -0.233843 0.213074 -0.000019
v -0.013528 0.234748 0.005027
v 0.081623 0.212999 -0.000540
v 0.205717 0.164634 -0.005429
v -0.301529 0.164303 0.000000
v -0.258890 0.205141 -0.000005
v -0.230340 0.083395 -0.000006
v -0.046925 0.235147 0.004298
v -0.004584 0.083395 0.007582
v 0.048149 0.220704 0.001168
v 0.126462 0.083395 0.001429
v -0.121908 0.233107 0.002236
v -0.083778 0.083395 0.004477
v -0.148459 0.231608 0.001594
v -0.111820 0.083395 0.003289
vt 0.160758 0.599898
vt 0.066771 0.721399
vt 0.018405 0.599898
vt 0.164725 0.457195
vt 0.313289 0.565774
vt 0.160735 0.565774
vt 0.158610 0.117732
vt 0.218692 0.001858
vt 0.283576 0.109983
vt 0.469552 0.892632
vt 0.436346 0.813117
vt 0.513957 0.837233
vt 0.438865 0.604190
vt 0.411719 0.557358
vt 0.445680 0.562072
vt 0.372226 0.768132
vt 0.436346 0.723148
vt 0.436346 0.768132
vt 0.996776 0.281660
vt 0.878605 0.198612
vt 0.998142 0.169361
vt 0.332563 0.768132
vt 0.372226 0.686387
vt 0.435799 0.633601
vt 0.377080 0.598453
vt 0.992200 0.592098
vt 0.942277 0.698322
vt 0.890352 0.588237
vt 0.997656 0.451113
vt 0.880678 0.556349
vt 0.876505 0.449265
vt 0.793822 0.613821
vt 0.732267 0.691961
vt 0.679243 0.574605
vt 0.996716 0.117565
vt 0.941768 0.028835
vt 0.990213 0.001858
vt 0.500250 0.768138
vt 0.467420 0.133780
vt 0.541694 0.076165
vt 0.547064 0.180364
vt 0.512988 0.444967
vt 0.456578 0.411174
vt 0.826507 0.551017
vt 0.807027 0.448850
vt 0.558882 0.489360
vt 0.479641 0.566786
vt 0.348060 0.467694
vt 0.334876 0.343300
vt 0.396905 0.390272
vt 0.342186 0.425048
vt 0.469552 0.643618
vt 0.792793 0.124927
vt 0.743951 0.016005
vt 0.782573 0.001858
vt 0.799314 0.400504
vt 0.675671 0.305456
vt 0.799314 0.304088
vt 0.604317 0.386652
vt 0.606478 0.300322
vt 0.600602 0.358720
vt 0.521301 0.406875
vt 0.539350 0.337144
vt 0.459910 0.370681
vt 0.466903 0.296103
vt 0.799282 0.443441
vt 0.677672 0.531006
vt 0.668841 0.444905
vt 0.171147 0.285607
vt 0.302822 0.163445
vt 0.321528 0.281785
vt 0.870018 0.321689
vt 0.805662 0.417957
vt 0.803030 0.333840
vt 0.467194 0.255886
vt 0.547324 0.212055
vt 0.541782 0.298270
vt 0.997137 0.323612
vt 0.874730 0.415934
vt 0.169894 0.328077
vt 0.328847 0.421489
vt 0.166156 0.423431
vt 0.798534 0.269806
vt 0.680944 0.160575
vt 0.795020 0.159375
vt 0.677261 0.271152
vt 0.627125 0.163227
vt 0.014827 0.331319
vt 0.002059 0.425372
vt 0.384993 0.203628
vt 0.390533 0.287704
vt 0.022151 0.177136
vt 0.020067 0.289428
vt 0.392252 0.325603
vt 0.398735 0.426952
vt 0.392197 0.071790
vt 0.385441 0.172829
vt 0.513957 0.699063
vt 0.500650 0.609927
vt 0.506831 0.639902
vt 0.372226 0.849878
vt 0.332563 0.862127
vt 0.076313 0.010303
vt 0.033644 0.125480
vt 0.008273 0.565774
vt 0.001858 0.458676
vt 0.254759 0.721399
vt 0.303134 0.599898
vt 0.160765 0.721399
vt 0.326428 0.455714
vt 0.147503 0.006080
vt 0.866774 0.279696
vt 0.332563 0.674138
vt 0.364766 0.627300
vt 0.980849 0.712953
vt 0.994714 0.558110
vt 0.782710 0.719647
vt 0.881601 0.156220
vt 0.468182 0.031695
vt 0.690911 0.128219
vt 0.671805 0.401931
vt 0.573969 0.445522
vt 0.796913 0.561056
vt 0.162486 0.170290
vt 0.467291 0.165687
vt 0.998142 0.417813
vt 0.323904 0.324835
vt 0.607731 0.268534
vt 0.604919 0.425504
vt 0.600602 0.075262
vt 0.536854 0.043431
vt 0.591803 0.043537
vt 0.398751 0.039390
vt 0.468956 0.001858
vt 0.332563 0.067418
vt 0.803549 0.295982
vt 0.342911 0.036253
vn 0.0000 -1.0000 0.0000
vn -0.5071 0.6747 -0.5363
vn 0.7624 0.6378 -0.1095
vn -0.9404 0.3402 0.0000
vn 0.0181 0.2100 -0.9775
vn -0.9359 0.3523 0.0000
vn 0.8617 0.5030 -0.0669
vn -0.4398 0.1670 -0.8824
vn -0.0787 0.1427 -0.9866
vn 0.5218 0.3169 0.7920
vn 0.3196 0.3918 -0.8628
vn -0.6917 0.7222 0.0000
vn -0.2157 0.9693 0.1179
vn 0.3494 0.9163 -0.1958
vn -0.1839 0.7174 -0.6720
vn 0.4658 0.8185 0.3364
vn 0.4984 0.7233 -0.4780
vn 0.1941 0.7827 -0.5913
vn -0.5616 0.5692 0.6004
vn -0.3379 0.4072 0.8486
vn 0.0505 0.1469 0.9879
vn 0.0021 0.7513 0.6600
vn 0.3132 0.7670 0.5600
vn 0.2139 0.9703 -0.1131
vn 0.2811 0.1371 0.9498
vn 0.0437 0.7259 -0.6864
vn -0.0279 0.9995 0.0148
vn 0.1212 0.1295 -0.9841
vn -0.1170 0.1604 0.9801
vn -0.1277 0.8039 0.5810
vn -0.0280 0.9995 -0.0126
vn 0.2462 0.9655 0.0845
vn 0.4293 0.8993 -0.0831
vn -0.2168 0.9699 -0.1112
vn -0.5138 0.8058 0.2944
vn 0.8713 0.4881 -0.0517
vn 0.7832 0.6184 -0.0645
vn -0.5616 0.5693 -0.6005
vn 0.7521 0.6560 -0.0634
vn 0.1387 0.1271 -0.9822
vn 0.8536 0.5184 -0.0506
vn -0.3378 0.4072 -0.8486
vn -0.0590 0.1611 -0.9852
vn 0.4737 0.3905 0.7894
vn 0.3811 0.2931 -0.8769
vn -0.5138 0.8058 -0.2944
vn -0.2128 0.9697 0.1204
vn 0.4078 0.9094 -0.0811
vn -0.0969 0.8053 -0.5849
vn 0.5658 0.6817 0.4639
vn 0.4326 0.8235 -0.3670
vn 0.2608 0.7424 -0.6172
vn -0.5070 0.6749 0.5361
vn -0.4399 0.1670 0.8824
vn 0.0459 0.1434 0.9886
vn 0.0043 0.7500 0.6614
vn 0.2653 0.7971 0.5424
vn 0.2093 0.9710 -0.1153
vn 0.1517 0.2376 0.9595
vn 0.0561 0.7367 -0.6739
vn -0.0276 0.9995 0.0149
vn 0.1332 0.1386 -0.9813
vn -0.1333 0.1446 0.9805
vn -0.2057 0.7263 0.6558
vn -0.0268 0.9996 -0.0133
vn 0.2267 0.9691 0.0974
vn 0.3647 0.9245 0.1111
vn -0.2085 0.9709 -0.1180
vn 0.0313 0.7526 0.6578
vn 0.0545 0.1433 0.9882
vn 0.3077 0.2696 0.9125
vn -0.2809 0.1743 0.9438
vn 0.2169 0.9688 -0.1195
vn 0.2929 0.7987 0.5257
vn -0.4392 0.7012 0.5616
vn -0.2976 0.9393 -0.1705
vn -0.3379 0.1519 -0.9288
vn -0.3198 0.7738 -0.5468
vn 0.0355 0.7330 -0.6793
vn 0.0121 0.9999 -0.0064
vn 0.1167 0.1275 -0.9850
vn 0.1682 0.8040 -0.5703
vn 0.2106 0.2444 -0.9465
vn -0.0665 0.7420 0.6670
vn -0.0698 0.1456 0.9869
vn -0.0337 0.7348 -0.6774
vn -0.0579 0.9978 0.0313
vn -0.0060 0.1398 -0.9902
vn -0.0580 0.9979 -0.0288
vn 0.0123 0.9999 0.0053
vn -0.3019 0.9379 0.1709
vn 0.2410 0.9677 0.0734
vn -0.0106 0.7608 0.6489
vn 0.0528 0.1427 0.9884
vn 0.3265 0.2656 0.9071
vn -0.3379 0.1520 0.9288
vn 0.2140 0.9694 -0.1199
vn 0.2359 0.8129 0.5325
vn -0.3192 0.7743 0.5464
vn -0.3021 0.9378 -0.1709
vn -0.2803 0.1744 -0.9440
vn -0.4393 0.7010 -0.5619
vn 0.0602 0.7272 -0.6838
vn 0.1231 0.1295 -0.9839
vn 0.2478 0.7892 -0.5620
vn 0.1828 0.2485 -0.9512
vn -0.0879 0.7458 0.6604
vn -0.0657 0.1468 0.9870
vn -0.0484 0.7303 -0.6814
vn -0.0571 0.9979 0.0312
vn 0.0060 0.1431 -0.9897
vn -0.0557 0.9980 -0.0285
vn 0.0118 0.9999 0.0053
vn -0.2975 0.9394 0.1705
vn 0.2274 0.9707 0.0781
s off
f 74/1/1 10/2/1 31/3/1
f 82/4/1 1/5/1 61/6/1
f 63/7/1 8/8/1 6/9/1
f 33/10/2 30/11/2 35/12/2
f 66/13/3 27/14/3 71/15/3
f 67/16/4 29/17/4 72/18/4
f 4/19/5 46/20/5 44/21/5
f 65/22/6 19/23/6 67/16/6
f 64/24/7 17/25/7 66/13/7
f 31/26/8 20/27/8 33/28/8
f 58/29/9 12/30/9 59/31/9
f 6/32/10 18/33/10 16/34/10
f 5/35/11 17/36/11 7/37/11
f 73/38/12 30/11/12 72/18/12
f 81/39/13 21/40/13 57/41/13
f 26/42/14 71/15/14 70/43/14
f 59/31/15 22/44/15 60/45/15
f 16/46/16 28/47/16 26/42/16
f 15/48/17 27/14/17 17/25/17
f 13/49/18 48/50/18 46/51/18
f 34/52/19 29/17/19 19/23/19
f 32/53/20 19/54/20 9/55/20
f 38/56/21 50/57/21 49/58/21
f 50/57/22 42/59/22 51/60/22
f 14/61/23 47/62/23 24/63/23
f 24/63/24 77/64/24 69/65/24
f 3/66/25 45/67/25 14/68/25
f 62/69/1 43/70/1 3/71/1
f 39/72/26 54/73/26 41/74/26
f 75/75/27 51/76/27 42/77/27
f 37/78/28 53/79/28 39/72/28
f 76/80/1 49/81/1 80/82/1
f 55/83/29 11/84/29 1/85/29
f 56/86/30 21/87/30 11/84/30
f 37/88/1 80/82/1 52/89/1
f 54/90/31 75/75/31 41/91/31
f 44/92/1 62/69/1 4/93/1
f 23/94/32 77/64/32 48/50/32
f 25/95/33 71/15/33 27/14/33
f 22/96/34 81/39/34 60/97/34
f 73/38/35 29/17/35 36/98/35
f 64/24/36 18/99/36 8/100/36
f 65/22/6 20/101/6 10/102/6
f 67/16/4 30/11/4 20/101/4
f 66/13/37 28/47/37 18/99/37
f 7/103/1 63/7/1 5/104/1
f 82/4/1 2/105/1 58/106/1
f 9/107/1 74/1/1 32/108/1
f 74/1/1 65/109/1 10/2/1
f 82/4/1 55/110/1 1/5/1
f 63/7/1 64/111/1 8/8/1
f 33/10/38 20/101/38 30/11/38
f 66/13/39 17/25/39 27/14/39
f 67/16/4 19/23/4 29/17/4
f 4/19/40 13/112/40 46/20/40
f 65/22/6 9/113/6 19/23/6
f 64/24/41 7/114/41 17/25/41
f 31/26/42 10/115/42 20/27/42
f 58/29/43 2/116/43 12/30/43
f 6/32/44 8/117/44 18/33/44
f 5/35/45 15/118/45 17/36/45
f 73/38/46 35/12/46 30/11/46
f 81/39/47 68/119/47 21/40/47
f 26/42/48 28/47/48 71/15/48
f 59/31/49 12/30/49 22/44/49
f 16/46/50 18/99/50 28/47/50
f 15/48/51 25/95/51 27/14/51
f 13/49/52 23/94/52 48/50/52
f 34/52/53 36/98/53 29/17/53
f 32/53/54 34/120/54 19/54/54
f 38/56/55 40/121/55 50/57/55
f 50/57/56 40/121/56 42/59/56
f 14/61/57 45/122/57 47/62/57
f 24/63/58 47/62/58 77/64/58
f 3/66/59 43/123/59 45/67/59
f 62/69/1 78/124/1 43/70/1
f 39/72/60 53/79/60 54/73/60
f 75/75/61 79/125/61 51/76/61
f 37/78/62 52/126/62 53/79/62
f 76/80/1 38/127/1 49/81/1
f 55/83/63 56/86/63 11/84/63
f 56/86/64 57/128/64 21/87/64
f 37/88/1 76/80/1 80/82/1
f 54/90/65 79/125/65 75/75/65
f 44/92/1 78/124/1 62/69/1
f 23/94/66 69/65/66 77/64/66
f 25/95/67 70/43/67 71/15/67
f 22/96/68 68/119/68 81/39/68
f 73/38/12 72/18/12 29/17/12
f 64/24/7 66/13/7 18/99/7
f 65/22/6 67/16/6 20/101/6
f 67/16/4 72/18/4 30/11/4
f 66/13/3 71/15/3 28/47/3
f 7/103/1 64/111/1 63/7/1
f 82/4/1 61/6/1 2/105/1
f 9/107/1 65/109/1 74/1/1
f 78/124/1 6/9/1 43/70/1
f 40/121/69 24/129/69 42/59/69
f 3/66/70 40/121/70 38/56/70
f 43/123/71 16/34/71 45/67/71
f 1/85/72 34/120/72 32/53/72
f 47/62/73 70/43/73 77/64/73
f 45/122/74 26/42/74 47/62/74
f 11/130/75 36/131/75 34/132/75
f 68/119/76 35/133/76 73/134/76
f 2/116/77 33/28/77 12/30/77
f 12/135/78 35/133/78 22/96/78
f 61/6/1 31/3/1 2/105/1
f 39/72/79 23/136/79 13/112/79
f 69/65/80 42/77/80 24/63/80
f 4/19/81 39/72/81 13/112/81
f 62/69/1 38/127/1 76/80/1
f 46/51/82 25/95/82 15/48/82
f 44/21/83 15/118/83 5/35/83
f 56/86/84 51/60/84 57/128/84
f 49/58/85 56/86/85 55/83/85
f 53/79/86 60/45/86 54/73/86
f 79/125/87 57/41/87 51/76/87
f 52/126/88 59/31/88 53/79/88
f 80/82/1 55/110/1 82/4/1
f 52/89/1 82/4/1 58/106/1
f 60/97/89 79/125/89 54/90/89
f 4/93/1 76/80/1 37/88/1
f 41/91/90 69/65/90 23/94/90
f 32/108/1 61/6/1 1/5/1
f 68/119/91 36/131/91 21/40/91
f 48/50/92 70/43/92 25/95/92
f 5/104/1 78/124/1 44/92/1
f 78/124/1 63/7/1 6/9/1
f 40/121/93 14/68/93 24/129/93
f 3/66/94 14/68/94 40/121/94
f 43/123/95 6/32/95 16/34/95
f 1/85/96 11/84/96 34/120/96
f 47/62/97 26/42/97 70/43/97
f 45/122/98 16/46/98 26/42/98
f 11/130/99 21/40/99 36/131/99
f 68/119/100 22/96/100 35/133/100
f 2/116/101 31/26/101 33/28/101
f 12/135/102 33/137/102 35/133/102
f 61/6/1 74/1/1 31/3/1
f 39/72/103 41/74/103 23/136/103
f 69/65/80 75/75/80 42/77/80
f 4/19/104 37/78/104 39/72/104
f 62/69/1 3/71/1 38/127/1
f 46/51/105 48/50/105 25/95/105
f 44/21/106 46/20/106 15/118/106
f 56/86/107 50/57/107 51/60/107
f 49/58/108 50/57/108 56/86/108
f 53/79/109 59/31/109 60/45/109
f 79/125/110 81/39/110 57/41/110
f 52/126/111 58/29/111 59/31/111
f 80/82/1 49/81/1 55/110/1
f 52/89/1 80/82/1 82/4/1
f 60/97/112 81/39/112 79/125/112
f 4/93/1 62/69/1 76/80/1
f 41/91/113 75/75/113 69/65/113
f 32/108/1 74/1/1 61/6/1
f 68/119/114 73/134/114 36/131/114
f 48/50/115 77/64/115 70/43/115
f 5/104/1 63/7/1 78/124/1
