# Blender v2.92.0 OBJ File: 'quaternius_OGConvert.blend'
# www.blender.org
o Sushi_Roll2_Cylinder.010
v 0.000000 -0.077174 -0.146296
v 0.000000 0.077174 -0.146296
v 0.103447 -0.077174 -0.103447
v 0.103447 0.077174 -0.103447
v 0.146296 -0.077174 0.000000
v 0.146296 0.077174 0.000000
v 0.103447 -0.077174 0.103447
v 0.103447 0.077174 0.103447
v -0.000000 -0.077174 0.146296
v -0.000000 0.077174 0.146296
v -0.103447 -0.077174 0.103447
v -0.103447 0.077174 0.103447
v -0.146296 -0.077174 -0.000000
v -0.146296 0.077174 -0.000000
v -0.103447 -0.077174 -0.103447
v -0.103447 0.077174 -0.103447
v 0.000000 -0.076472 -0.124332
v 0.087916 -0.076472 -0.087916
v 0.087916 0.076472 -0.087916
v 0.000000 0.076472 -0.124332
v 0.124332 -0.076472 0.000000
v 0.124332 0.076472 0.000000
v 0.087916 -0.076472 0.087916
v 0.087916 0.076472 0.087916
v -0.000000 -0.076472 0.124332
v -0.000000 0.076472 0.124332
v -0.087916 -0.076472 0.087916
v -0.087916 0.076472 0.087916
v -0.124332 -0.076472 -0.000000
v -0.124332 0.076472 -0.000000
v -0.087916 -0.076472 -0.087916
v -0.087916 0.076472 -0.087916
v 0.000000 -0.065394 -0.124332
v 0.087916 -0.065394 -0.087916
v 0.087916 0.065394 -0.087916
v 0.000000 0.065394 -0.124332
v 0.124332 -0.065394 0.000000
v 0.124332 0.065394 0.000000
v 0.087916 -0.065394 0.087916
v 0.087916 0.065394 0.087916
v -0.000000 -0.065394 0.124332
v -0.000000 0.065394 0.124332
v -0.087916 -0.065394 0.087916
v -0.087916 0.065394 0.087916
v -0.124332 -0.065394 -0.000000
v -0.124332 0.065394 -0.000000
v -0.087916 -0.065394 -0.087916
v -0.087916 0.065394 -0.087916
v 0.047972 -0.070103 0.001779
v 0.047972 0.070103 0.001779
v 0.022598 -0.070103 0.042829
v 0.022598 0.070103 0.042829
v 0.013707 0.070103 -0.000198
v 0.013707 -0.070103 -0.000198
v 0.001474 -0.070103 0.046485
v 0.001474 0.070103 0.046485
v -0.008788 0.070103 -0.010958
v -0.008788 -0.070103 -0.010958
v -0.038062 -0.070103 0.027407
v -0.038062 0.070103 0.027407
v -0.031043 0.070103 -0.031608
v -0.031043 -0.070103 -0.031608
v -0.048125 -0.070103 -0.007247
v -0.048125 0.070103 -0.007247
v 0.004972 0.068914 0.002881
v 0.004972 -0.068914 0.002881
v -0.034821 -0.068914 -0.017793
v -0.034821 0.068914 -0.017793
v 0.019377 0.068914 -0.038064
v 0.019377 -0.068914 -0.038064
v -0.010712 -0.068914 -0.041769
v -0.010712 0.068914 -0.041769
v 0.035827 0.068914 0.011276
v 0.035827 -0.068914 0.011276
v 0.040419 0.068914 -0.016858
v 0.040419 -0.068914 -0.016858
vt 0.696706 0.111280
vt 0.905918 0.003780
vt 0.905918 0.111280
vt 0.377748 0.975935
vt 0.586960 0.841702
vt 0.586960 0.975935
vt 0.377748 0.841702
vt 0.586960 0.696706
vt 0.696706 0.743106
vt 0.905918 0.627979
vt 0.905918 0.743106
vt 0.696706 0.627979
vt 0.905918 0.476642
vt 0.696706 0.476642
vt 0.905918 0.377748
vt 0.003780 0.262869
vt 0.122491 0.342683
vt 0.111098 0.370188
vt 0.696706 0.370187
vt 0.905918 0.263051
vt 0.905918 0.370187
vt 0.696706 0.263051
vt 0.003780 0.111098
vt 0.031285 0.251476
vt 0.913478 0.468799
vt 0.928493 0.597784
vt 0.913478 0.597784
vt 0.973644 0.475590
vt 0.958629 0.377747
vt 0.973644 0.377747
vt 0.111098 0.744155
vt 0.251476 0.716650
vt 0.262869 0.744155
vt 0.262869 0.003780
vt 0.122491 0.031285
vt 0.111098 0.003780
vt 0.370188 0.636837
vt 0.342683 0.496459
vt 0.370188 0.485066
vt 0.370188 0.111098
vt 0.342683 0.251476
vt 0.342683 0.122491
vt 0.262869 0.377748
vt 0.122491 0.405252
vt 0.111098 0.377748
vt 0.031285 0.625444
vt 0.122491 0.716650
vt 0.251476 0.342683
vt 0.262869 0.370188
vt 0.031285 0.122491
vt 0.342683 0.625444
vt 0.251476 0.031285
vt 0.251476 0.405252
vt 0.003780 0.485066
vt 0.003780 0.636837
vt 0.031285 0.496459
vt 0.370188 0.262869
vt 0.973644 0.604206
vt 0.958629 0.475590
vt 0.981205 0.377747
vt 0.996220 0.475590
vt 0.981205 0.475590
vt 0.951069 0.689145
vt 0.936054 0.597784
vt 0.951069 0.597784
vt 0.996220 0.604206
vt 0.981205 0.604206
vt 0.928493 0.689145
vt 0.913478 0.689145
vt 0.973644 0.688253
vt 0.958629 0.604206
vt 0.951069 0.810785
vt 0.936054 0.696705
vt 0.951069 0.696705
vt 0.996220 0.688253
vt 0.981205 0.688253
vt 0.958629 0.695814
vt 0.973644 0.809894
vt 0.958629 0.809894
vt 0.951069 0.468799
vt 0.936054 0.377747
vt 0.951069 0.377747
vt 0.951069 0.934013
vt 0.936054 0.810785
vt 0.913478 0.377747
vt 0.928493 0.468799
vt 0.973644 0.933122
vt 0.958629 0.933122
vt 0.936054 0.468799
vt 0.696706 0.003780
vt 0.377748 0.696706
vt 0.696706 0.377748
vt 0.996220 0.377747
vt 0.936054 0.689145
vt 0.958629 0.688253
vt 0.973644 0.695814
vt 0.936054 0.934013
vt 0.928493 0.377747
vt 0.597939 0.377748
vt 0.689146 0.597939
vt 0.468954 0.689146
vt 0.468954 0.315178
vt 0.377748 0.094986
vt 0.597939 0.003780
vt 0.689146 0.468954
vt 0.597939 0.689146
vt 0.377748 0.597939
vt 0.377748 0.468954
vt 0.468954 0.377748
vt 0.689146 0.094986
vt 0.689146 0.223972
vt 0.597939 0.315178
vt 0.377748 0.223972
vt 0.468954 0.003780
vt 0.206563 0.941760
vt 0.147974 0.751715
vt 0.206563 0.751715
vt 0.280432 0.829303
vt 0.214123 0.786185
vt 0.278864 0.795541
vt 0.229833 0.761739
vt 0.294473 0.751715
vt 0.045699 0.751715
vt 0.003780 0.941761
vt 0.003780 0.751715
vt 0.783289 0.940711
vt 0.808950 0.750666
vt 0.808950 0.940711
vt 0.929187 0.118502
vt 0.978218 0.084701
vt 0.993828 0.128526
vt 0.696706 0.940711
vt 0.724308 0.750666
vt 0.724308 0.940711
vt 0.068329 0.751715
vt 0.045699 0.941761
vt 0.783289 0.750666
vt 0.913478 0.094056
vt 0.979787 0.050938
vt 0.336023 0.751715
vt 0.302033 0.941760
vt 0.302033 0.751715
vt 0.954400 0.003780
vt 0.916440 0.034627
vt 0.255046 0.876461
vt 0.217085 0.845615
vt 0.368657 0.751715
vt 0.343583 0.941760
vt 0.343583 0.751715
vt 0.147974 0.941760
vt 0.696706 0.750666
vt 0.068328 0.941761
vt 0.336023 0.941760
vt 0.993828 0.012256
vt 0.294473 0.867985
vt 0.368657 0.941760
vt 0.971730 0.196869
vt 0.927826 0.150101
vt 0.971730 0.136086
vt 0.971730 0.289148
vt 0.925836 0.258847
vt 0.962545 0.246788
vt 0.646549 0.883526
vt 0.689146 0.696706
vt 0.689146 0.883526
vt 0.927826 0.335916
vt 0.971730 0.349930
vt 0.646549 0.696706
vt 0.610756 0.883526
vt 0.610756 0.696706
vt 0.876495 0.937486
vt 0.816510 0.750666
vt 0.876495 0.750666
vt 0.114436 0.751715
vt 0.075889 0.938535
vt 0.075889 0.751715
vt 0.140414 0.938535
vt 0.140414 0.751715
vt 0.919782 0.937486
vt 0.925836 0.227170
vt 0.913478 0.188607
vt 0.913478 0.297410
vt 0.816510 0.937486
vt 0.114436 0.938535
vt 0.919782 0.750666
vt 0.962545 0.239228
vn 0.3827 0.0000 -0.9239
vn 0.9239 0.0000 -0.3827
vn 0.9239 0.0000 0.3827
vn 0.3827 0.0000 0.9239
vn -0.3827 0.0000 0.9239
vn -0.9239 0.0000 0.3827
vn -0.0132 0.9994 0.0319
vn -0.9239 0.0000 -0.3827
vn -0.3827 0.0000 -0.9239
vn 0.0132 0.9994 0.0319
vn 0.0319 -0.9994 -0.0132
vn 0.0319 0.9994 -0.0132
vn -0.0132 -0.9994 -0.0319
vn -0.0132 0.9994 -0.0319
vn -0.0319 -0.9994 0.0132
vn 0.0319 -0.9994 0.0132
vn -0.0319 0.9994 0.0132
vn 0.0319 0.9994 0.0132
vn 0.0132 -0.9994 -0.0319
vn 0.0132 0.9994 -0.0319
vn -0.0319 -0.9994 -0.0132
vn 0.0132 -0.9994 0.0319
vn -0.0132 -0.9994 0.0319
vn -0.0319 0.9994 -0.0132
vn 0.0000 1.0000 0.0000
vn 0.0000 -1.0000 0.0000
vn 0.8506 0.0000 0.5258
vn 0.0576 0.0000 -0.9983
vn 0.1705 0.0000 0.9853
vn -0.9603 0.0000 0.2789
vn 0.4315 0.0000 -0.9021
vn -0.4346 0.0000 0.9006
vn -0.8188 0.0000 -0.5741
vn 0.6802 0.0000 -0.7331
vn -0.7052 0.0000 -0.7091
vn 0.1222 0.0000 -0.9925
vn -0.4610 0.0000 0.8874
vn 0.9869 0.0000 0.1611
vn 0.7098 0.0000 -0.7044
vn -0.2625 0.0000 0.9649
s off
f 2/1/1 3/2/1 1/3/1
f 4/4/2 5/5/2 3/6/2
f 6/7/3 7/8/3 5/5/3
f 8/9/4 9/10/4 7/11/4
f 10/12/5 11/13/5 9/10/5
f 12/14/6 13/15/6 11/13/6
f 2/16/7 19/17/7 4/18/7
f 14/19/8 15/20/8 13/21/8
f 16/22/9 1/3/9 15/20/9
f 16/23/10 20/24/10 2/16/10
f 24/25/9 42/26/9 26/27/9
f 17/28/4 47/29/4 31/30/4
f 13/31/11 27/32/11 11/33/11
f 12/34/12 30/35/12 14/36/12
f 9/37/13 23/38/13 7/39/13
f 10/40/14 24/41/14 26/42/14
f 5/43/15 18/44/15 3/45/15
f 13/31/16 31/46/16 29/47/16
f 4/18/17 22/48/17 6/49/17
f 14/36/18 32/50/18 16/23/18
f 11/33/19 25/51/19 9/37/19
f 10/40/20 28/52/20 12/34/20
f 5/43/21 23/38/21 21/53/21
f 1/54/22 31/46/22 15/55/22
f 3/45/23 17/56/23 1/54/23
f 6/49/24 24/41/24 8/57/24
f 18/58/5 33/59/5 17/28/5
f 32/60/4 36/61/4 20/62/4
f 27/63/1 41/64/1 25/65/1
f 20/62/5 35/66/5 19/67/5
f 26/27/1 44/68/1 28/69/1
f 21/70/6 34/71/6 18/58/6
f 29/72/2 43/73/2 27/74/2
f 19/67/6 38/75/6 22/76/6
f 28/77/2 46/78/2 30/79/2
f 23/80/8 37/81/8 21/82/8
f 31/83/3 45/84/3 29/72/3
f 22/85/8 40/86/8 24/25/8
f 30/79/3 48/87/3 32/88/3
f 25/65/9 39/89/9 23/80/9
f 2/1/1 4/90/1 3/2/1
f 4/4/2 6/7/2 5/5/2
f 6/7/3 8/91/3 7/8/3
f 8/9/4 10/12/4 9/10/4
f 10/12/5 12/14/5 11/13/5
f 12/14/6 14/92/6 13/15/6
f 2/16/7 20/24/7 19/17/7
f 14/19/8 16/22/8 15/20/8
f 16/22/9 2/1/9 1/3/9
f 16/23/10 32/50/10 20/24/10
f 24/25/9 40/86/9 42/26/9
f 17/28/4 33/59/4 47/29/4
f 13/31/11 29/47/11 27/32/11
f 12/34/12 28/52/12 30/35/12
f 9/37/13 25/51/13 23/38/13
f 10/40/14 8/57/14 24/41/14
f 5/43/15 21/53/15 18/44/15
f 13/31/16 15/55/16 31/46/16
f 4/18/17 19/17/17 22/48/17
f 14/36/18 30/35/18 32/50/18
f 11/33/19 27/32/19 25/51/19
f 10/40/20 26/42/20 28/52/20
f 5/43/21 7/39/21 23/38/21
f 1/54/22 17/56/22 31/46/22
f 3/45/23 18/44/23 17/56/23
f 6/49/24 22/48/24 24/41/24
f 18/58/5 34/71/5 33/59/5
f 32/60/4 48/93/4 36/61/4
f 27/63/1 43/94/1 41/64/1
f 20/62/5 36/61/5 35/66/5
f 26/27/1 42/26/1 44/68/1
f 21/70/6 37/95/6 34/71/6
f 29/72/2 45/84/2 43/73/2
f 19/67/6 35/66/6 38/75/6
f 28/77/2 44/96/2 46/78/2
f 23/80/8 39/89/8 37/81/8
f 31/83/3 47/97/3 45/84/3
f 22/85/8 38/98/8 40/86/8
f 30/79/3 46/78/3 48/87/3
f 25/65/9 41/64/9 39/89/9
f 38/99/25 36/100/25 46/101/25
f 39/102/26 43/103/26 47/104/26
f 38/99/25 35/105/25 36/100/25
f 36/100/25 48/106/25 46/101/25
f 46/101/25 44/107/25 42/108/25
f 42/108/25 40/109/25 46/101/25
f 40/109/25 38/99/25 46/101/25
f 47/104/26 33/110/26 34/111/26
f 34/111/26 37/112/26 39/102/26
f 39/102/26 41/113/26 43/103/26
f 43/103/26 45/114/26 47/104/26
f 47/104/26 34/111/26 39/102/26
f 50/115/27 51/116/27 49/117/27
f 57/118/25 56/119/25 53/120/25
f 53/120/25 52/121/25 50/122/25
f 54/123/28 50/124/28 49/125/28
f 56/126/29 51/127/29 52/128/29
f 51/129/26 54/130/26 49/131/26
f 64/132/30 59/133/30 60/134/30
f 58/135/31 53/136/31 54/123/31
f 60/134/32 55/137/32 56/126/32
f 55/138/26 58/139/26 54/130/26
f 63/140/33 61/141/33 62/142/33
f 63/143/26 58/139/26 59/144/26
f 57/118/25 64/145/25 60/146/25
f 62/147/34 57/148/34 58/149/34
f 50/115/27 52/150/27 51/116/27
f 57/118/25 60/146/25 56/119/25
f 53/120/25 56/119/25 52/121/25
f 54/123/28 53/136/28 50/124/28
f 56/126/29 55/137/29 51/127/29
f 51/129/26 55/138/26 54/130/26
f 64/132/30 63/151/30 59/133/30
f 58/135/31 57/152/31 53/136/31
f 60/134/32 59/133/32 55/137/32
f 55/138/26 59/144/26 58/139/26
f 63/140/33 64/153/33 61/141/33
f 63/143/26 62/154/26 58/139/26
f 57/118/25 61/155/25 64/145/25
f 62/147/34 61/156/34 57/148/34
f 65/157/25 72/158/25 68/159/25
f 66/160/26 76/161/26 74/162/26
f 72/163/35 67/164/35 68/165/35
f 71/166/26 66/160/26 67/167/26
f 71/168/36 69/169/36 70/170/36
f 65/171/37 67/172/37 66/173/37
f 76/174/38 73/175/38 74/176/38
f 69/177/39 76/174/39 70/178/39
f 66/173/40 73/179/40 65/171/40
f 65/157/25 75/180/25 69/181/25
f 65/157/25 69/181/25 72/158/25
f 66/160/26 70/182/26 76/161/26
f 72/163/35 71/168/35 67/164/35
f 71/166/26 70/182/26 66/160/26
f 71/168/36 72/163/36 69/169/36
f 65/171/37 68/183/37 67/172/37
f 76/174/38 75/184/38 73/175/38
f 69/177/39 75/184/39 76/174/39
f 66/173/40 74/185/40 73/179/40
f 65/157/25 73/186/25 75/180/25
