# Blender v2.92.0 OBJ File: 'quaternius_OGConvert.blend'
# www.blender.org
o Axe_Small_Cylinder.007
v -0.028684 0.273157 -0.066048
v 0.021943 0.943089 -0.057527
v 0.030455 0.273157 -0.046703
v 0.081083 0.943089 -0.040678
v 0.054952 0.273157 0.000000
v 0.105579 0.943089 0.000000
v 0.030455 0.273157 0.046703
v 0.081083 0.943089 0.040678
v -0.028684 0.273157 0.066048
v 0.021943 0.943089 0.057527
v -0.087905 0.285086 0.046703
v -0.037196 0.943089 0.040678
v -0.112157 0.288538 0.000000
v -0.061693 0.943089 0.000000
v -0.087905 0.285086 -0.046703
v -0.037196 0.943089 -0.040678
v 0.003862 -0.116676 -0.066048
v 0.062623 -0.109997 -0.046703
v 0.086963 -0.107230 0.000000
v 0.062623 -0.109997 0.046703
v 0.003862 -0.116676 0.066048
v -0.044726 -0.121901 0.046703
v -0.069066 -0.124668 0.000000
v -0.044726 -0.121901 -0.046703
v 0.062939 -0.511431 -0.059422
v 0.105168 -0.522618 -0.042017
v 0.125712 -0.530595 0.000000
v 0.105168 -0.522618 0.042017
v 0.062939 -0.511431 0.059422
v -0.002812 -0.468096 0.042562
v -0.028842 -0.447230 0.000000
v -0.002812 -0.468096 -0.042562
v -0.000683 -0.928808 -0.071139
v 0.058908 -0.934895 -0.050303
v 0.097548 -0.899208 0.000000
v 0.058908 -0.934895 0.050303
v -0.000683 -0.928808 0.071139
v -0.060274 -0.891434 0.050303
v -0.076710 -0.853446 0.000000
v -0.060274 -0.891434 -0.050303
v -0.125023 0.911881 0.062564
v -0.125023 1.214648 0.062564
v -0.125023 0.911881 -0.062563
v -0.125023 1.214648 -0.062563
v 0.133730 0.878752 0.062563
v 0.133730 1.247777 0.062563
v 0.133730 0.878752 -0.062563
v 0.133730 1.247777 -0.062563
v 0.164714 1.242905 -0.025733
v 0.164714 0.883623 -0.025733
v 0.164714 0.883623 0.025733
v 0.164714 1.242905 0.025733
v -0.256510 0.871670 -0.016650
v -0.256510 0.871670 0.016650
v -0.256510 1.265464 0.016650
v -0.256510 1.265464 -0.016650
v -0.475673 0.756738 -0.016650
v -0.475673 0.756738 0.016650
v -0.471506 1.381901 0.016650
v -0.471506 1.381901 -0.016650
v -0.645070 0.597883 0.000000
v -0.645070 1.528522 0.000000
v -0.125023 0.966860 0.062564
v -0.125023 1.159669 0.062564
v -0.125023 1.159669 -0.062563
v -0.125023 0.966860 -0.062563
v 0.133730 0.966860 -0.062563
v 0.133730 1.159669 -0.062563
v 0.133730 1.159669 0.062563
v 0.133730 0.966860 0.062563
v 0.164714 0.966860 -0.025733
v 0.164714 1.159669 -0.025733
v 0.164714 0.966860 0.025733
v 0.164714 1.159669 0.025733
v -0.253326 1.149715 0.016650
v -0.253453 0.977159 0.016650
v -0.253326 1.149715 -0.016650
v -0.253453 0.977159 -0.016650
v -0.473438 0.921118 0.016650
v -0.471506 1.198353 0.016650
v -0.471506 1.198353 -0.016650
v -0.473438 0.921118 -0.016650
v -0.725404 0.796887 0.000000
v -0.735249 1.290912 0.000000
v -0.621300 1.513310 -0.010987
v -0.621300 1.513310 0.010987
v -0.621731 0.614356 0.010987
v -0.621731 0.614356 -0.010987
v -0.702163 1.281322 0.010987
v -0.693535 0.809750 0.010987
v -0.693535 0.809750 -0.010987
v -0.702163 1.281322 -0.010987
vt 0.925269 0.002652
vt 0.923757 0.293861
vt 0.898880 0.293457
vt 0.993806 0.818264
vt 0.976125 0.527113
vt 0.996425 0.527154
vt 0.958444 0.818264
vt 0.955825 0.527154
vt 0.829858 0.527244
vt 0.831369 0.818454
vt 0.804980 0.527648
vt 0.778696 0.533269
vt 0.792990 0.819095
vt 0.766461 0.534981
vt 0.287572 0.451359
vt 0.273517 0.473229
vt 0.239587 0.437270
vt 0.886890 0.002010
vt 0.872595 0.287836
vt 0.860360 0.286125
vt 0.955825 0.360557
vt 0.976125 0.361718
vt 0.794482 0.356083
vt 0.797274 0.214618
vt 0.809998 0.205329
vt 0.782164 0.355092
vt 0.816285 0.357993
vt 0.841046 0.360494
vt 0.876064 0.466014
vt 0.996425 0.360557
vt 0.888381 0.465023
vt 0.910185 0.463113
vt 0.950240 0.640238
vt 0.902603 0.816044
vt 0.932692 0.635091
vt 0.838792 0.186015
vt 0.856341 0.180867
vt 0.994389 0.181134
vt 0.891173 0.606488
vt 0.957861 0.181134
vt 0.976125 0.177632
vt 0.934946 0.460612
vt 0.903898 0.615776
vt 0.177235 0.441078
vt 0.235567 0.461621
vt 0.177484 0.467636
vt 0.876284 0.799361
vt 0.773645 0.038413
vt 0.782384 0.021745
vt 0.808703 0.005061
vt 0.833676 0.002010
vt 0.976125 0.017456
vt 0.997990 0.002010
vt 0.867544 0.782692
vt 0.218731 0.482162
vt 0.196040 0.480769
vt 0.235567 0.434355
vt 0.194320 0.419829
vt 0.220798 0.410468
vt 0.950240 0.003058
vt 0.976125 0.818223
vt 0.856340 0.818047
vt 0.805129 0.818888
vt 0.253642 0.478161
vt 0.239587 0.463266
vt 0.253642 0.415400
vt 0.287572 0.425363
vt 0.273517 0.410468
vt 0.899028 0.002218
vt 0.927576 0.819095
vt 0.954260 0.002010
vt 0.496548 0.265524
vt 0.554385 0.238450
vt 0.554765 0.288780
vt 0.002010 0.662798
vt 0.036442 0.602000
vt 0.056398 0.662798
vt 0.499160 0.133948
vt 0.386659 0.155621
vt 0.387419 0.117331
vt 0.056398 0.768449
vt 0.018019 0.782029
vt 0.002010 0.768449
vt 0.060418 0.424032
vt 0.114807 0.535539
vt 0.060418 0.535539
vt 0.172540 0.119679
vt 0.266200 0.147000
vt 0.172160 0.170008
vt 0.118827 0.448766
vt 0.134836 0.412534
vt 0.134836 0.448714
vt 0.118827 0.532573
vt 0.134836 0.568701
vt 0.118827 0.570870
vt 0.175937 0.290814
vt 0.269429 0.267465
vt 0.271815 0.338882
vt 0.114807 0.424032
vt 0.076427 0.410468
vt 0.098798 0.410468
vt 0.384996 0.239412
vt 0.497022 0.241631
vt 0.004434 0.252837
vt 0.116934 0.274511
vt 0.005194 0.291128
vt 0.021967 0.602000
vt 0.036442 0.499083
vt 0.648426 0.261458
vt 0.646842 0.341225
vt 0.134836 0.532521
vt 0.157206 0.448714
vt 0.157206 0.532521
vt 0.157206 0.568701
vt 0.002770 0.169046
vt 0.114322 0.142934
vt 0.114796 0.166827
vt 0.173215 0.448766
vt 0.157206 0.412534
vt 0.173215 0.410468
vt 0.558163 0.117644
vt 0.651654 0.140994
vt 0.555929 0.163462
vt 0.173215 0.532573
vt 0.173704 0.244997
vt 0.498685 0.157840
vt 0.080375 0.593569
vt 0.094850 0.593569
vt 0.080375 0.691440
vt 0.116460 0.250618
vt 0.747785 0.299499
vt 0.365560 0.108959
vt 0.264617 0.067233
vt 0.654040 0.069577
vt 0.748119 0.094489
vt 0.365893 0.313969
vt 0.336492 0.399500
vt 0.710775 0.399623
vt 0.094850 0.691440
vt 0.082837 0.758240
vt 0.021967 0.499083
vt 0.033980 0.422092
vt 0.040389 0.782029
vt 0.118827 0.410468
vt 0.384236 0.277702
vt 0.002010 0.130756
vt 0.173215 0.570870
vt 0.328549 0.008835
vt 0.718717 0.008958
vt 0.092388 0.758240
vt 0.024428 0.422092
vt 0.029204 0.410468
vt 0.087613 0.768763
vt 0.762441 0.303961
vt 0.721348 0.406449
vt 0.380216 0.319276
vt 0.347152 0.406448
vt 0.762441 0.089183
vt 0.380216 0.104497
vt 0.729378 0.002010
vt 0.339123 0.002010
vn 0.3109 -0.0114 -0.9504
vn 0.8838 -0.0626 -0.4636
vn 0.8838 -0.0626 0.4636
vn 0.3109 -0.0114 0.9504
vn -0.3039 0.0351 0.9520
vn -0.8833 0.0681 0.4637
vn 0.0000 1.0000 0.0000
vn -0.8833 0.0681 -0.4637
vn -0.3039 0.0351 -0.9520
vn 0.8825 0.0743 0.4643
vn -0.8711 -0.1112 0.4783
vn -0.8806 -0.0934 0.4645
vn 0.3099 0.0260 0.9504
vn -0.8865 -0.0924 -0.4535
vn 0.8831 0.0741 -0.4632
vn -0.3669 -0.0306 0.9298
vn -0.3164 -0.0336 -0.9480
vn 0.3108 0.0259 -0.9501
vn 0.3738 -0.0310 -0.9270
vn 0.3876 0.0295 0.9214
vn 0.8815 0.0856 -0.4644
vn -0.8788 -0.1096 -0.4645
vn -0.2840 -0.0586 0.9570
vn 0.9014 0.0825 0.4251
vn 0.3094 0.0304 -0.9504
vn -0.3642 -0.0552 -0.9297
vn -0.5313 -0.8472 0.0000
vn -0.2186 0.0475 -0.9747
vn -0.9091 0.1306 0.3957
vn 0.3284 -0.0179 0.9444
vn 0.8172 -0.0802 -0.5708
vn -0.8271 0.0975 -0.5536
vn -0.2893 0.0709 0.9546
vn 0.8911 -0.0681 0.4486
vn -0.9178 -0.3971 0.0000
vn 0.6785 -0.7346 0.0000
vn 0.2740 -0.0121 -0.9617
vn 0.8549 -0.0646 -0.5148
vn 0.8549 -0.0646 0.5148
vn 0.2740 -0.0121 0.9617
vn -0.2739 0.0299 0.9613
vn -0.8545 0.0706 0.5146
vn -0.8545 0.0706 -0.5146
vn -0.2739 0.0299 -0.9613
vn 0.8831 0.0741 0.4632
vn -0.8788 -0.1096 0.4645
vn -0.8865 -0.0924 0.4535
vn 0.3108 0.0259 0.9501
vn -0.8806 -0.0934 -0.4645
vn 0.8825 0.0743 -0.4643
vn -0.3164 -0.0336 0.9480
vn -0.3669 -0.0306 -0.9298
vn 0.3099 0.0260 -0.9504
vn 0.3284 -0.0179 -0.9444
vn 0.3094 0.0304 0.9504
vn 0.9014 0.0825 -0.4251
vn -0.8711 -0.1112 -0.4783
vn -0.3642 -0.0552 0.9297
vn 0.8815 0.0856 0.4644
vn 0.3876 0.0295 -0.9214
vn -0.2840 -0.0586 -0.9570
vn -0.1016 -0.9948 -0.0000
vn -0.2893 0.0709 -0.9546
vn -0.8271 0.0975 0.5536
vn 0.3738 -0.0310 0.9270
vn 0.8911 -0.0681 -0.4486
vn -0.9091 0.1306 -0.3957
vn -0.2186 0.0475 0.9747
vn 0.8172 -0.0802 0.5708
vn -0.3328 -0.0092 -0.9430
vn 0.3605 0.9328 -0.0000
vn -0.0000 0.0000 -1.0000
vn 0.1553 0.9879 0.0000
vn -0.1270 -0.9919 -0.0000
vn 0.0000 0.0000 1.0000
vn 0.7652 0.0000 0.6438
vn -0.1270 0.9919 0.0000
vn 0.1553 -0.9879 0.0000
vn 0.4762 0.8793 0.0000
vn 1.0000 0.0000 0.0000
vn 0.7652 0.0000 -0.6438
vn -0.3323 0.0096 0.9431
vn -0.3366 0.0000 -0.9416
vn 0.2925 -0.9563 0.0000
vn 0.4644 -0.8856 0.0000
vn -0.3366 0.0000 0.9416
vn -0.3369 0.0000 0.9415
vn -0.0245 0.0002 -0.9997
vn -0.0245 0.0002 0.9997
vn -0.0245 0.0000 0.9997
vn -0.0259 0.0004 -0.9997
vn -0.0285 -0.0105 0.9995
vn -0.0289 0.0101 -0.9995
vn 0.6980 -0.7161 0.0000
vn 0.6595 0.7517 0.0000
vn -0.3369 0.0000 -0.9415
vn -0.3323 0.0096 -0.9431
vn -0.3369 0.0002 0.9415
vn -0.3369 0.0002 -0.9415
vn -0.3328 -0.0092 0.9430
vn -0.0255 -0.0005 -0.9997
vn -0.0255 -0.0005 0.9997
vn -0.0289 0.0101 0.9995
vn -0.0285 -0.0105 -0.9995
vn -0.0259 0.0004 0.9997
vn -0.0245 0.0000 -0.9997
vn 0.5390 0.8423 0.0000
vn 0.5767 -0.8170 0.0000
vn -0.3456 0.1312 -0.9292
vn -0.3407 -0.1376 0.9300
vn -0.2860 -0.1051 -0.9525
vn -0.2873 0.1001 0.9526
vn -0.3167 -0.0058 0.9485
vn -0.3167 -0.0058 -0.9485
vn -0.2873 0.1001 -0.9526
vn -0.2860 -0.1051 0.9525
vn -0.3407 -0.1376 -0.9300
vn -0.3456 0.1312 0.9292
vn -0.3236 -0.0064 0.9462
vn -0.3236 -0.0064 -0.9462
s off
f 2/1/1 3/2/1 1/3/1
f 4/4/2 5/5/2 3/6/2
f 5/5/3 8/7/3 7/8/3
f 7/9/4 10/10/4 9/11/4
f 10/10/5 11/12/5 9/11/5
f 11/12/6 14/13/6 13/14/6
f 10/15/7 8/16/7 2/17/7
f 14/18/8 15/19/8 13/20/8
f 15/19/9 2/1/9 1/3/9
f 5/5/10 20/21/10 19/22/10
f 22/23/11 31/24/11 30/25/11
f 11/12/12 23/26/12 22/23/12
f 7/9/13 21/27/13 20/28/13
f 15/19/14 23/29/14 13/20/14
f 5/5/15 18/30/15 3/6/15
f 9/11/16 22/23/16 21/27/16
f 1/3/17 24/31/17 15/19/17
f 3/2/18 17/32/18 1/3/18
f 26/33/19 33/34/19 25/35/19
f 20/28/20 29/36/20 28/37/20
f 19/22/21 26/38/21 18/30/21
f 24/31/22 31/39/22 23/29/22
f 21/27/23 30/25/23 29/36/23
f 19/22/24 28/40/24 27/41/24
f 18/42/25 25/35/25 17/32/25
f 17/32/26 32/43/26 24/31/26
f 33/44/27 37/45/27 40/46/27
f 25/35/28 40/47/28 32/43/28
f 30/25/29 39/48/29 38/49/29
f 28/37/30 37/50/30 36/51/30
f 26/38/31 35/52/31 34/53/31
f 32/43/32 39/54/32 31/39/32
f 29/36/33 38/49/33 37/50/33
f 28/40/34 35/52/34 27/41/34
f 40/46/35 38/55/35 39/56/35
f 36/57/36 34/58/36 35/59/36
f 2/1/37 4/60/37 3/2/37
f 4/4/38 6/61/38 5/5/38
f 5/5/39 6/61/39 8/7/39
f 7/9/40 8/62/40 10/10/40
f 10/10/41 12/63/41 11/12/41
f 11/12/42 12/63/42 14/13/42
f 6/64/7 4/65/7 8/16/7
f 4/65/7 2/17/7 8/16/7
f 2/17/7 16/66/7 12/67/7
f 16/66/7 14/68/7 12/67/7
f 12/67/7 10/15/7 2/17/7
f 14/18/43 16/69/43 15/19/43
f 15/19/44 16/69/44 2/1/44
f 5/5/45 7/8/45 20/21/45
f 22/23/46 23/26/46 31/24/46
f 11/12/47 13/14/47 23/26/47
f 7/9/48 9/11/48 21/27/48
f 15/19/49 24/31/49 23/29/49
f 5/5/50 19/22/50 18/30/50
f 9/11/51 11/12/51 22/23/51
f 1/3/52 17/32/52 24/31/52
f 3/2/53 18/42/53 17/32/53
f 26/33/54 34/70/54 33/34/54
f 20/28/55 21/27/55 29/36/55
f 19/22/56 27/41/56 26/38/56
f 24/31/57 32/43/57 31/39/57
f 21/27/58 22/23/58 30/25/58
f 19/22/59 20/21/59 28/40/59
f 18/42/60 26/33/60 25/35/60
f 17/32/61 25/35/61 32/43/61
f 33/44/62 36/57/62 37/45/62
f 25/35/63 33/34/63 40/47/63
f 30/25/64 31/24/64 39/48/64
f 28/37/65 29/36/65 37/50/65
f 26/38/66 27/41/66 35/52/66
f 32/43/67 40/47/67 39/54/67
f 29/36/68 30/25/68 38/49/68
f 28/40/69 36/71/69 35/52/69
f 40/46/27 37/45/27 38/55/27
f 36/57/62 33/44/62 34/58/62
f 44/72/70 77/73/70 56/74/70
f 44/75/71 55/76/71 42/77/71
f 43/78/72 67/79/72 47/80/72
f 46/81/73 49/82/73 48/83/73
f 47/84/74 41/85/74 43/86/74
f 55/87/75 80/88/75 75/89/75
f 70/90/76 51/91/76 73/92/76
f 69/93/76 52/94/76 46/95/76
f 44/75/77 46/81/77 48/83/77
f 54/96/75 79/97/75 58/98/75
f 45/99/78 50/100/78 51/101/78
f 44/72/72 68/102/72 65/103/72
f 70/104/75 41/105/75 45/106/75
f 56/107/79 59/108/79 55/76/79
f 56/74/72 81/109/72 60/110/72
f 74/111/80 71/112/80 72/113/80
f 74/111/80 49/114/80 52/94/80
f 69/115/75 42/116/75 64/117/75
f 67/118/81 50/119/81 47/120/81
f 53/121/72 82/122/72 78/123/72
f 68/124/81 49/114/81 72/113/81
f 41/105/82 76/125/82 54/96/82
f 43/78/83 78/123/83 66/126/83
f 41/85/84 53/127/84 43/86/84
f 54/128/85 57/129/85 53/127/85
f 71/112/80 51/91/80 50/119/80
f 78/123/72 81/109/72 77/73/72
f 64/117/86 76/125/86 63/130/86
f 78/123/83 65/103/83 66/126/83
f 80/88/75 76/125/75 75/89/75
f 73/92/76 69/93/76 70/90/76
f 72/113/81 67/118/81 68/124/81
f 64/117/75 70/104/75 69/115/75
f 68/102/72 66/126/72 65/103/72
f 42/116/87 75/89/87 64/117/87
f 82/122/88 92/131/88 81/109/88
f 89/132/89 79/97/89 80/88/89
f 59/133/90 89/132/90 80/88/90
f 57/134/91 91/135/91 82/122/91
f 58/98/92 90/136/92 87/137/92
f 60/110/93 92/131/93 85/138/93
f 58/139/94 88/140/94 57/129/94
f 60/141/95 86/142/95 59/108/95
f 44/72/96 65/103/96 77/73/96
f 44/75/71 56/107/71 55/76/71
f 43/78/72 66/126/72 67/79/72
f 46/81/73 52/143/73 49/82/73
f 47/84/74 45/99/74 41/85/74
f 55/87/75 59/133/75 80/88/75
f 70/90/76 45/144/76 51/91/76
f 69/93/76 74/111/76 52/94/76
f 44/75/77 42/77/77 46/81/77
f 54/96/75 76/125/75 79/97/75
f 45/99/78 47/84/78 50/100/78
f 44/72/72 48/145/72 68/102/72
f 70/104/75 63/130/75 41/105/75
f 56/107/79 60/141/79 59/108/79
f 56/74/72 77/73/72 81/109/72
f 74/111/80 73/92/80 71/112/80
f 74/111/80 72/113/80 49/114/80
f 69/115/75 46/146/75 42/116/75
f 67/118/81 71/112/81 50/119/81
f 53/121/72 57/134/72 82/122/72
f 68/124/81 48/147/81 49/114/81
f 41/105/86 63/130/86 76/125/86
f 43/78/97 53/121/97 78/123/97
f 41/85/84 54/128/84 53/127/84
f 54/128/85 58/139/85 57/129/85
f 71/112/80 73/92/80 51/91/80
f 78/123/72 82/122/72 81/109/72
f 64/117/98 75/89/98 76/125/98
f 78/123/99 77/73/99 65/103/99
f 80/88/75 79/97/75 76/125/75
f 73/92/76 74/111/76 69/93/76
f 72/113/81 71/112/81 67/118/81
f 64/117/75 63/130/75 70/104/75
f 68/102/72 67/79/72 66/126/72
f 42/116/100 55/87/100 75/89/100
f 82/122/101 91/135/101 92/131/101
f 89/132/102 90/136/102 79/97/102
f 59/133/103 86/148/103 89/132/103
f 57/134/104 88/149/104 91/135/104
f 58/98/105 79/97/105 90/136/105
f 60/110/106 81/109/106 92/131/106
f 58/139/94 87/150/94 88/140/94
f 60/141/95 85/151/95 86/142/95
f 86/142/107 85/151/107 62/152/107
f 88/140/108 87/150/108 61/153/108
f 85/138/109 84/154/109 62/155/109
f 87/137/110 83/156/110 61/157/110
f 88/149/111 83/158/111 91/135/111
f 86/148/112 84/159/112 89/132/112
f 84/159/113 90/136/113 89/132/113
f 91/135/114 84/154/114 92/131/114
f 85/138/115 92/131/115 84/154/115
f 87/137/116 90/136/116 83/156/116
f 88/149/117 61/160/117 83/158/117
f 86/148/118 62/161/118 84/159/118
f 84/159/119 83/156/119 90/136/119
f 91/135/120 83/158/120 84/154/120
