# Blender v2.92.0 OBJ File: 'quaternius_OGConvert.blend'
# www.blender.org
o WaterBottle_3_Cylinder.003
v -0.000000 0.048782 -0.240338
v -0.000000 1.083096 -0.240338
v 0.120169 0.048782 -0.208139
v 0.120169 1.083096 -0.208139
v 0.208139 0.048782 -0.120169
v 0.208139 1.083096 -0.120169
v 0.240338 0.048782 -0.000000
v 0.240338 1.083096 -0.000000
v 0.208139 0.048782 0.120169
v 0.208139 1.083096 0.120169
v 0.120169 0.048782 0.208139
v 0.120169 1.083096 0.208139
v 0.000000 0.048782 0.240338
v 0.000000 1.083096 0.240338
v -0.120169 0.048782 0.208139
v -0.120169 1.083096 0.208139
v -0.208139 0.048782 0.120169
v -0.208139 1.083096 0.120169
v -0.240338 0.048782 0.000000
v -0.240338 1.083096 0.000000
v -0.208139 0.048782 -0.120169
v -0.208139 1.083096 -0.120169
v -0.120169 0.048782 -0.208139
v -0.120169 1.083096 -0.208139
v -0.000000 -0.001063 -0.181158
v 0.090579 -0.001063 -0.156887
v 0.156887 -0.001063 -0.090579
v 0.181158 -0.001063 -0.000000
v 0.156887 -0.001063 0.090579
v 0.090579 -0.001063 0.156887
v 0.000000 -0.001063 0.181158
v -0.090579 -0.001063 0.156887
v -0.156887 -0.001063 0.090579
v -0.181158 -0.001063 0.000000
v -0.156887 -0.001063 -0.090579
v -0.090579 -0.001063 -0.156887
v 0.111690 1.159367 -0.193453
v -0.000000 1.159367 -0.223380
v 0.193453 1.159367 -0.111690
v 0.223380 1.159367 -0.000000
v 0.193453 1.159367 0.111690
v 0.111690 1.159367 0.193453
v 0.000000 1.159367 0.223380
v -0.111690 1.159367 0.193453
v -0.193453 1.159367 0.111690
v -0.223380 1.159367 0.000000
v -0.193453 1.159367 -0.111690
v -0.111690 1.159367 -0.193453
v 0.045269 1.274111 -0.078408
v 0.000000 1.274111 -0.090538
v 0.078408 1.274111 -0.045269
v 0.090538 1.274111 0.000000
v 0.078408 1.274111 0.045269
v 0.045269 1.274111 0.078408
v 0.000000 1.274111 0.090538
v -0.045269 1.274111 0.078408
v -0.078408 1.274111 0.045269
v -0.090538 1.274111 0.000000
v -0.078408 1.274111 -0.045269
v -0.045269 1.274111 -0.078408
v 0.049426 1.341022 -0.085608
v 0.000000 1.341022 -0.098851
v 0.085608 1.341022 -0.049426
v 0.098852 1.341022 -0.000000
v 0.085608 1.341022 0.049426
v 0.049426 1.341022 0.085608
v 0.000000 1.341022 0.098851
v -0.049426 1.341022 0.085608
v -0.085608 1.341022 0.049426
v -0.098851 1.341022 0.000000
v -0.085608 1.341022 -0.049426
v -0.049426 1.341022 -0.085608
v -0.000000 1.320301 -0.114136
v -0.000000 1.433969 -0.114136
v 0.080706 1.320301 -0.080706
v 0.080706 1.433969 -0.080706
v 0.114136 1.320301 -0.000000
v 0.114136 1.433969 -0.000000
v 0.080706 1.320301 0.080706
v 0.080706 1.433969 0.080706
v 0.000000 1.320301 0.114136
v 0.000000 1.433969 0.114136
v -0.080706 1.320301 0.080706
v -0.080706 1.433969 0.080706
v -0.114136 1.320301 0.000000
v -0.114136 1.433969 0.000000
v -0.080706 1.320301 -0.080706
v -0.080706 1.433969 -0.080706
v -0.000000 0.460715 -0.249730
v 0.124865 0.460715 -0.216273
v 0.216273 0.460715 -0.124865
v 0.249730 0.460715 -0.000000
v 0.216273 0.460715 0.124865
v 0.124865 0.460715 0.216273
v 0.000000 0.460715 0.249730
v -0.124865 0.460715 0.216273
v -0.216273 0.460715 0.124865
v -0.249730 0.460715 0.000000
v -0.216273 0.460715 -0.124865
v -0.124865 0.460715 -0.216273
v -0.000000 0.583058 -0.247125
v 0.123562 0.583058 -0.214016
v 0.214016 0.583058 -0.123562
v 0.247125 0.583058 -0.000000
v 0.214016 0.583058 0.123562
v 0.123562 0.583058 0.214016
v 0.000000 0.583058 0.247125
v -0.123562 0.583058 0.214016
v -0.214016 0.583058 0.123562
v -0.247125 0.583058 0.000000
v -0.214016 0.583058 -0.123562
v -0.123563 0.583058 -0.214016
v -0.000000 0.642136 -0.235959
v 0.117980 0.642136 -0.204347
v 0.204347 0.642136 -0.117980
v 0.235959 0.642136 -0.000000
v 0.204347 0.642136 0.117980
v 0.117980 0.642136 0.204347
v 0.000000 0.642136 0.235959
v -0.117979 0.642136 0.204347
v -0.204346 0.642136 0.117980
v -0.235959 0.642136 0.000000
v -0.204347 0.642136 -0.117979
v -0.117980 0.642136 -0.204346
v -0.000000 0.752589 -0.237419
v -0.000000 1.012274 -0.238878
v 0.119439 1.012274 -0.206875
v 0.118709 0.752589 -0.205611
v 0.206875 1.012274 -0.119439
v 0.205611 0.752589 -0.118709
v 0.238878 1.012274 -0.000000
v 0.237419 0.752589 -0.000000
v 0.206875 1.012274 0.119439
v 0.205611 0.752589 0.118709
v 0.119439 1.012274 0.206875
v 0.118709 0.752589 0.205611
v 0.000000 1.012274 0.238878
v 0.000000 0.752589 0.237419
v -0.119439 1.012274 0.206875
v -0.118709 0.752589 0.205611
v -0.206875 1.012274 0.119439
v -0.205611 0.752589 0.118709
v -0.238878 1.012274 0.000000
v -0.237419 0.752589 0.000000
v -0.206875 1.012274 -0.119439
v -0.205611 0.752589 -0.118709
v -0.119439 1.012274 -0.206875
v -0.118710 0.752589 -0.205611
vt 0.212897 0.607054
vt 0.137892 0.650816
vt 0.137909 0.606489
vt 0.063241 0.607054
vt 0.062768 0.651385
vt 0.008901 0.608600
vt 0.717621 0.607604
vt 0.664079 0.650796
vt 0.663270 0.606471
vt 0.588600 0.606471
vt 0.513513 0.651937
vt 0.513618 0.607604
vt 0.497282 0.651068
vt 0.429545 0.606861
vt 0.496636 0.606695
vt 0.429781 0.651235
vt 0.352075 0.606861
vt 0.351838 0.651235
vt 0.284984 0.606695
vt 0.879990 0.607055
vt 0.804985 0.650816
vt 0.805003 0.606489
vt 0.354588 0.698976
vt 0.730335 0.607055
vt 0.268890 0.652940
vt 0.268112 0.608600
vt 0.798458 0.890464
vt 0.762644 0.822117
vt 0.798458 0.812521
vt 0.682389 0.741862
vt 0.733269 0.931747
vt 0.543384 0.880868
vt 0.733269 0.771238
vt 0.759486 0.745020
vt 0.691986 0.706048
vt 0.507570 0.812521
vt 0.507570 0.890464
vt 0.572759 0.771238
vt 0.543384 0.822117
vt 0.623639 0.741862
vt 0.614042 0.706048
vt 0.572759 0.931747
vt 0.546542 0.957965
vt 0.546542 0.745020
vt 0.623639 0.961123
vt 0.614042 0.996937
vt 0.682389 0.961123
vt 0.691986 0.996937
vt 0.759486 0.957965
vt 0.762644 0.880868
vt 0.102023 0.706983
vt 0.098136 0.802055
vt 0.039285 0.743205
vt 0.427032 0.698976
vt 0.588953 0.650796
vt 0.519126 0.699922
vt 0.589243 0.698861
vt 0.718762 0.651937
vt 0.659069 0.698861
vt 0.213338 0.651385
vt 0.259721 0.700856
vt 0.208089 0.699411
vt 0.137966 0.698882
vt 0.008095 0.652940
vt 0.068142 0.699411
vt 0.017327 0.700856
vt 0.729861 0.651385
vt 0.805059 0.698882
vt 0.735236 0.699411
vt 0.875182 0.699411
vt 0.291850 0.698820
vt 0.284337 0.651068
vt 0.889762 0.028471
vt 0.931304 0.056943
vt 0.889547 0.056892
vt 0.273427 0.805943
vt 0.178355 0.802055
vt 0.237205 0.743205
vt 0.039285 0.941125
vt 0.123564 0.896955
vt 0.102023 0.977347
vt 0.174467 0.977347
vt 0.178355 0.882274
vt 0.237205 0.941125
vt 0.083455 0.827484
vt 0.003063 0.805943
vt 0.174467 0.706983
vt 0.152926 0.787374
vt 0.273427 0.878387
vt 0.193036 0.856846
vt 0.083455 0.856846
vt 0.003063 0.878387
vt 0.123564 0.787374
vt 0.193036 0.827484
vt 0.098136 0.882274
vt 0.152926 0.896955
vt 0.323969 0.843358
vt 0.399819 0.919208
vt 0.296206 0.946972
vt 0.889610 0.145567
vt 0.931552 0.176277
vt 0.889610 0.174929
vt 0.889547 0.235624
vt 0.931302 0.263558
vt 0.889547 0.263925
vt 0.932178 0.003063
vt 0.931538 0.025912
vt 0.931538 0.087842
vt 0.889762 0.085192
vt 0.889547 0.200357
vt 0.931483 0.204040
vt 0.931772 0.294586
vt 0.889977 0.292344
vt 0.932178 0.110329
vt 0.890347 0.105788
vt 0.889762 0.303272
vt 0.931304 0.331744
vt 0.889547 0.331693
vt 0.889547 0.120139
vt 0.931552 0.144219
vt 0.889977 0.215025
vt 0.931302 0.232658
vt 0.931538 0.362643
vt 0.889762 0.359993
vt 0.274050 0.263083
vt 0.213484 0.003633
vt 0.269036 0.005188
vt 0.805026 0.260876
vt 0.730007 0.003633
vt 0.805131 0.003063
vt 0.883420 0.261468
vt 0.880577 0.003633
vt 0.350315 0.261334
vt 0.284337 0.003063
vt 0.351838 0.003231
vt 0.431304 0.261334
vt 0.429781 0.003231
vt 0.501443 0.261160
vt 0.497282 0.003063
vt 0.585957 0.260868
vt 0.508460 0.004204
vt 0.583899 0.003063
vt 0.659025 0.003063
vt 0.720840 0.262053
vt 0.713708 0.004204
vt 0.059873 0.261468
vt 0.008241 0.005188
vt 0.062914 0.003633
vt 0.138038 0.003063
vt 0.216327 0.261467
vt 0.272625 0.339725
vt 0.805022 0.337541
vt 0.726966 0.261468
vt 0.882598 0.338126
vt 0.350738 0.337976
vt 0.280177 0.261160
vt 0.430882 0.337976
vt 0.500289 0.337804
vt 0.586542 0.337530
vt 0.507570 0.262053
vt 0.663790 0.337530
vt 0.664019 0.260868
vt 0.720017 0.338703
vt 0.060683 0.338126
vt 0.003063 0.263083
vt 0.137929 0.337541
vt 0.137933 0.260876
vt 0.215505 0.338126
vt 0.266587 0.376823
vt 0.805070 0.374737
vt 0.727777 0.338126
vt 0.879141 0.375296
vt 0.352548 0.374960
vt 0.281331 0.337804
vt 0.429071 0.374960
vt 0.495342 0.374796
vt 0.512712 0.375846
vt 0.508973 0.338703
vt 0.660534 0.374726
vt 0.714221 0.375846
vt 0.064221 0.375296
vt 0.004466 0.339725
vt 0.137976 0.374737
vt 0.212047 0.375296
vt 0.267360 0.445982
vt 0.805047 0.443883
vt 0.731314 0.375296
vt 0.879576 0.444446
vt 0.352312 0.444163
vt 0.286277 0.374796
vt 0.429308 0.444163
vt 0.495989 0.443998
vt 0.587324 0.443870
vt 0.586777 0.374726
vt 0.661537 0.443870
vt 0.715556 0.444997
vt 0.063742 0.444446
vt 0.010544 0.376823
vt 0.137953 0.443883
vt 0.212483 0.444446
vt 0.880431 0.651385
vt 0.489770 0.698820
vt 0.709893 0.699922
vt 0.280177 0.919208
vt 0.280177 0.887150
vt 0.296206 0.859387
vt 0.356027 0.843358
vt 0.383790 0.859387
vt 0.399819 0.887150
vt 0.383790 0.946972
vt 0.356027 0.963001
vt 0.323969 0.963001
vt 0.890347 0.007544
vt 0.931538 0.300713
vt 0.931483 0.116456
vt 0.931772 0.210167
vt 0.730835 0.444446
vt 0.285631 0.443998
vt 0.512801 0.444997
vt 0.009733 0.445982
vt 0.954223 0.844304
vt 0.882848 0.898620
vt 0.883037 0.844304
vt 0.954034 0.898620
vt 0.883797 0.941773
vt 0.418432 0.909825
vt 0.490568 0.866673
vt 0.489618 0.909825
vt 0.419382 0.866673
vt 0.490378 0.812356
vt 0.489646 0.705103
vt 0.418522 0.755666
vt 0.418432 0.705103
vt 0.489735 0.755666
vt 0.418432 0.806229
vt 0.936713 0.799477
vt 0.898014 0.838177
vt 0.843284 0.706049
vt 0.875960 0.844304
vt 0.804585 0.898620
vt 0.804774 0.844304
vt 0.875771 0.898620
vt 0.805535 0.941773
vt 0.412305 0.743802
vt 0.373605 0.837231
vt 0.280177 0.798531
vt 0.954984 0.941773
vt 0.419192 0.812356
vt 0.489646 0.806229
vt 0.843285 0.838177
vt 0.804585 0.799478
vt 0.804585 0.744748
vt 0.898014 0.706048
vt 0.936713 0.744748
vt 0.876721 0.941773
vt 0.412305 0.798532
vt 0.318876 0.837231
vt 0.280177 0.743802
vt 0.318876 0.705103
vt 0.373606 0.705103
vn 0.2588 -0.0199 -0.9657
vn 0.7070 -0.0199 -0.7070
vn 0.9657 -0.0199 -0.2588
vn 0.9657 -0.0199 0.2588
vn 0.7070 -0.0199 0.7070
vn 0.2588 -0.0199 0.9657
vn -0.2588 -0.0199 0.9657
vn -0.7070 -0.0199 0.7070
vn -0.9657 -0.0199 0.2588
vn -0.9657 -0.0199 -0.2588
vn -0.6913 0.2100 0.6913
vn -0.7070 -0.0199 -0.7070
vn -0.2588 -0.0199 -0.9657
vn 0.1701 -0.7537 0.6348
vn 0.0000 -1.0000 0.0000
vn 0.4647 -0.7537 0.4647
vn 0.6348 -0.7537 0.1701
vn -0.1701 -0.7537 -0.6348
vn 0.1701 -0.7537 -0.6348
vn 0.6348 -0.7537 -0.1701
vn -0.4647 -0.7537 -0.4647
vn 0.4647 -0.7537 -0.4647
vn -0.6348 -0.7537 -0.1701
vn -0.6348 -0.7537 0.1701
vn -0.4647 -0.7537 0.4647
vn -0.1701 -0.7537 0.6348
vn -0.4713 0.7454 0.4713
vn -0.2530 0.2100 0.9444
vn 0.2530 0.2100 0.9444
vn 0.6913 0.2100 0.6913
vn 0.9444 0.2100 0.2530
vn -0.2531 0.2100 -0.9444
vn 0.2530 0.2100 -0.9444
vn 0.9444 0.2100 -0.2531
vn -0.6913 0.2100 -0.6913
vn 0.6913 0.2100 -0.6913
vn -0.9444 0.2100 -0.2530
vn -0.9444 0.2100 0.2531
vn 0.2570 -0.1192 -0.9590
vn 0.4713 0.7454 0.4713
vn -0.1725 0.7454 -0.6439
vn 0.4713 0.7454 -0.4713
vn -0.6439 0.7454 0.1725
vn 0.1725 0.7454 0.6439
vn 0.6439 0.7454 -0.1725
vn -0.6439 0.7454 -0.1725
vn -0.1725 0.7454 0.6439
vn 0.6439 0.7454 0.1725
vn -0.4713 0.7454 -0.4713
vn 0.1725 0.7454 -0.6439
vn 0.0000 1.0000 0.0000
vn -0.7021 -0.1192 0.7021
vn 0.7021 -0.1192 0.7021
vn -0.2570 -0.1192 -0.9590
vn 0.7021 -0.1192 -0.7021
vn -0.9590 -0.1192 0.2570
vn 0.2570 -0.1192 0.9590
vn 0.9590 -0.1192 -0.2570
vn -0.9590 -0.1192 -0.2570
vn -0.2570 -0.1192 0.9590
vn 0.9590 -0.1192 0.2570
vn -0.7021 -0.1192 -0.7021
vn -0.2588 -0.0220 -0.9657
vn -0.7069 -0.0220 -0.7069
vn -0.9657 -0.0220 -0.2588
vn -0.9657 -0.0220 0.2588
vn -0.7069 -0.0220 0.7069
vn -0.2588 -0.0220 0.9657
vn 0.2588 -0.0220 0.9657
vn 0.7069 -0.0220 0.7069
vn 0.9657 -0.0220 0.2588
vn 0.9657 -0.0220 -0.2588
vn 0.7069 -0.0220 -0.7069
vn 0.2588 -0.0220 -0.9657
vn -0.2588 0.0206 -0.9657
vn -0.7070 0.0206 -0.7070
vn -0.9657 0.0206 -0.2588
vn -0.9657 0.0206 0.2588
vn -0.7070 0.0206 0.7070
vn -0.2588 0.0206 0.9657
vn 0.2588 0.0206 0.9657
vn 0.7070 0.0206 0.7070
vn 0.9657 0.0206 0.2588
vn 0.9657 0.0206 -0.2588
vn 0.7070 0.0206 -0.7070
vn 0.2588 0.0206 -0.9657
vn -0.2546 0.1796 -0.9502
vn -0.6956 0.1796 -0.6956
vn -0.9502 0.1796 -0.2546
vn -0.9502 0.1796 0.2546
vn -0.6956 0.1796 0.6956
vn -0.2546 0.1796 0.9502
vn 0.2546 0.1796 0.9502
vn 0.6956 0.1796 0.6956
vn 0.9502 0.1796 0.2546
vn 0.9502 0.1796 -0.2546
vn 0.6956 0.1796 -0.6956
vn 0.2546 0.1796 -0.9502
vn -0.2588 -0.0128 -0.9658
vn -0.7070 -0.0128 -0.7070
vn -0.9658 -0.0128 -0.2588
vn -0.9658 -0.0128 0.2588
vn -0.7070 -0.0128 0.7070
vn -0.2588 -0.0128 0.9658
vn 0.2588 -0.0128 0.9658
vn 0.7070 -0.0128 0.7070
vn 0.9658 -0.0128 0.2588
vn 0.9658 -0.0128 -0.2588
vn 0.7070 -0.0128 -0.7070
vn 0.2588 -0.0128 -0.9658
vn 0.2531 0.2100 0.9444
vn 0.9444 0.2100 -0.2530
vn -0.7071 -0.0128 -0.7070
vn 0.3827 0.0000 -0.9239
vn 0.9239 0.0000 -0.3827
vn 0.9239 0.0000 0.3827
vn 0.3827 0.0000 0.9239
vn -0.3827 0.0000 0.9239
vn -0.9239 0.0000 0.3827
vn -0.9239 0.0000 -0.3827
vn -0.3827 0.0000 -0.9239
vn -0.2588 -0.0054 -0.9659
vn -0.7071 -0.0054 -0.7071
vn -0.9659 -0.0054 -0.2588
vn -0.9659 -0.0054 0.2588
vn -0.7071 -0.0054 0.7071
vn -0.2588 -0.0054 0.9659
vn 0.2588 -0.0054 0.9659
vn 0.7071 -0.0054 0.7071
vn 0.9659 -0.0054 0.2588
vn 0.9659 -0.0054 -0.2588
vn 0.7071 -0.0054 -0.7071
vn 0.2588 -0.0054 -0.9659
s off
f 126/1/1 4/2/1 127/3/1
f 4/2/2 129/4/2 127/3/2
f 6/5/3 131/6/3 129/4/3
f 131/7/4 10/8/4 133/9/4
f 10/8/5 135/10/5 133/9/5
f 135/10/6 14/11/6 137/12/6
f 14/13/7 139/14/7 137/15/7
f 16/16/8 141/17/8 139/14/8
f 18/18/9 143/19/9 141/17/9
f 143/20/10 22/21/10 145/22/10
f 16/16/11 45/23/11 18/18/11
f 22/21/12 147/24/12 145/22/12
f 24/25/13 126/1/13 147/26/13
f 13/27/14 30/28/14 11/29/14
f 28/30/15 32/31/15 36/32/15
f 11/29/16 29/33/16 9/34/16
f 9/34/17 28/30/17 7/35/17
f 1/36/18 36/32/18 23/37/18
f 1/36/19 26/38/19 25/39/19
f 7/35/20 27/40/20 5/41/20
f 23/37/21 35/42/21 21/43/21
f 3/44/22 27/40/22 26/38/22
f 21/43/23 34/45/23 19/46/23
f 19/46/24 33/47/24 17/48/24
f 17/48/25 32/31/25 15/49/25
f 15/49/26 31/50/26 13/27/26
f 44/51/27 57/52/27 45/53/27
f 14/13/28 44/54/28 16/16/28
f 12/55/29 43/56/29 14/11/29
f 10/8/30 42/57/30 12/55/30
f 8/58/31 41/59/31 10/8/31
f 2/60/32 48/61/32 38/62/32
f 4/2/33 38/62/33 37/63/33
f 8/64/34 39/65/34 40/66/34
f 24/67/35 47/68/35 48/69/35
f 4/2/36 39/65/36 6/5/36
f 22/21/37 46/70/37 47/68/37
f 18/18/38 46/71/38 20/72/38
f 50/73/39 61/74/39 49/75/39
f 41/76/40 54/77/40 42/78/40
f 48/79/41 50/80/41 38/81/41
f 37/82/42 51/83/42 39/84/42
f 45/53/43 58/85/43 46/86/43
f 43/87/44 54/77/44 55/88/44
f 40/89/45 51/83/45 52/90/45
f 46/86/46 59/91/46 47/92/46
f 43/87/47 56/93/47 44/51/47
f 40/89/48 53/94/48 41/76/48
f 47/92/49 60/95/49 48/79/49
f 38/81/50 49/96/50 37/82/50
f 71/97/51 67/98/51 63/99/51
f 56/100/52 69/101/52 57/102/52
f 53/103/53 66/104/53 54/105/53
f 50/73/54 72/106/54 62/107/54
f 49/75/55 63/108/55 51/109/55
f 58/110/56 69/101/56 70/111/56
f 54/105/57 67/112/57 55/113/57
f 51/109/58 64/114/58 52/115/58
f 58/116/59 71/117/59 59/118/59
f 55/119/60 68/120/60 56/100/60
f 52/121/61 65/122/61 53/103/61
f 59/118/62 72/123/62 60/124/62
f 100/125/63 1/126/63 23/127/63
f 99/128/64 23/129/64 21/130/64
f 98/131/65 21/130/65 19/132/65
f 97/133/66 19/134/66 17/135/66
f 96/136/67 17/135/67 15/137/67
f 95/138/68 15/137/68 13/139/68
f 94/140/69 13/141/69 11/142/69
f 9/143/70 94/140/70 11/142/70
f 92/144/71 9/143/71 7/145/71
f 91/146/72 7/147/72 5/148/72
f 3/149/73 91/146/73 5/148/73
f 89/150/74 3/149/74 1/126/74
f 112/151/75 89/150/75 100/125/75
f 111/152/76 100/153/76 99/128/76
f 110/154/77 99/128/77 98/131/77
f 109/155/78 98/156/78 97/133/78
f 108/157/79 97/133/79 96/136/79
f 107/158/80 96/136/80 95/138/80
f 106/159/81 95/160/81 94/140/81
f 105/161/82 94/140/82 93/162/82
f 104/163/83 93/162/83 92/144/83
f 103/164/84 92/165/84 91/146/84
f 102/166/85 91/146/85 90/167/85
f 101/168/86 90/167/86 89/150/86
f 124/169/87 101/168/87 112/151/87
f 123/170/88 112/171/88 111/152/88
f 122/172/89 111/152/89 110/154/89
f 121/173/90 110/174/90 109/155/90
f 120/175/91 109/155/91 108/157/91
f 119/176/92 108/157/92 107/158/92
f 106/159/93 119/177/93 107/178/93
f 117/179/94 106/159/94 105/161/94
f 116/180/95 105/161/95 104/163/95
f 115/181/96 104/182/96 103/164/96
f 114/183/97 103/164/97 102/166/97
f 113/184/98 102/166/98 101/168/98
f 148/185/99 113/184/99 124/169/99
f 146/186/100 124/187/100 123/170/100
f 144/188/101 123/170/101 122/172/101
f 142/189/102 122/190/102 121/173/102
f 140/191/103 121/173/103 120/175/103
f 138/192/104 120/175/104 119/176/104
f 136/193/105 119/177/105 118/194/105
f 134/195/106 118/194/106 117/179/106
f 132/196/107 117/179/107 116/180/107
f 130/197/108 116/198/108 115/181/108
f 128/199/109 115/181/109 114/183/109
f 125/200/110 114/183/110 113/184/110
f 126/1/1 2/60/1 4/2/1
f 4/2/2 6/5/2 129/4/2
f 6/5/3 8/64/3 131/6/3
f 131/7/4 8/58/4 10/8/4
f 10/8/5 12/55/5 135/10/5
f 135/10/6 12/55/6 14/11/6
f 14/13/7 16/16/7 139/14/7
f 16/16/8 18/18/8 141/17/8
f 18/18/9 20/72/9 143/19/9
f 143/20/10 20/201/10 22/21/10
f 16/16/11 44/54/11 45/23/11
f 22/21/12 24/67/12 147/24/12
f 24/25/13 2/60/13 126/1/13
f 13/27/14 31/50/14 30/28/14
f 36/32/15 25/39/15 26/38/15
f 26/38/15 27/40/15 28/30/15
f 28/30/15 29/33/15 30/28/15
f 30/28/15 31/50/15 32/31/15
f 32/31/15 33/47/15 34/45/15
f 34/45/15 35/42/15 36/32/15
f 36/32/15 26/38/15 28/30/15
f 28/30/15 30/28/15 32/31/15
f 32/31/15 34/45/15 36/32/15
f 11/29/16 30/28/16 29/33/16
f 9/34/17 29/33/17 28/30/17
f 1/36/18 25/39/18 36/32/18
f 1/36/19 3/44/19 26/38/19
f 7/35/20 28/30/20 27/40/20
f 23/37/21 36/32/21 35/42/21
f 3/44/22 5/41/22 27/40/22
f 21/43/23 35/42/23 34/45/23
f 19/46/24 34/45/24 33/47/24
f 17/48/25 33/47/25 32/31/25
f 15/49/26 32/31/26 31/50/26
f 44/51/27 56/93/27 57/52/27
f 14/13/28 43/202/28 44/54/28
f 12/55/111 42/57/111 43/56/111
f 10/8/30 41/59/30 42/57/30
f 8/58/31 40/203/31 41/59/31
f 2/60/32 24/25/32 48/61/32
f 4/2/33 2/60/33 38/62/33
f 8/64/112 6/5/112 39/65/112
f 24/67/35 22/21/35 47/68/35
f 4/2/36 37/63/36 39/65/36
f 22/21/37 20/201/37 46/70/37
f 18/18/38 45/23/38 46/71/38
f 50/73/39 62/107/39 61/74/39
f 41/76/40 53/94/40 54/77/40
f 48/79/41 60/95/41 50/80/41
f 37/82/42 49/96/42 51/83/42
f 45/53/43 57/52/43 58/85/43
f 43/87/44 42/78/44 54/77/44
f 40/89/45 39/84/45 51/83/45
f 46/86/46 58/85/46 59/91/46
f 43/87/47 55/88/47 56/93/47
f 40/89/48 52/90/48 53/94/48
f 47/92/49 59/91/49 60/95/49
f 38/81/50 50/80/50 49/96/50
f 63/99/51 61/204/51 71/97/51
f 61/204/51 62/205/51 71/97/51
f 62/205/51 72/206/51 71/97/51
f 71/97/51 70/207/51 69/208/51
f 69/208/51 68/209/51 67/98/51
f 67/98/51 66/210/51 63/99/51
f 66/210/51 65/211/51 63/99/51
f 65/211/51 64/212/51 63/99/51
f 71/97/51 69/208/51 67/98/51
f 56/100/52 68/120/52 69/101/52
f 53/103/53 65/122/53 66/104/53
f 50/73/54 60/213/54 72/106/54
f 49/75/55 61/74/55 63/108/55
f 58/110/56 57/102/56 69/101/56
f 54/105/57 66/104/57 67/112/57
f 51/109/58 63/108/58 64/114/58
f 58/116/59 70/214/59 71/117/59
f 55/119/60 67/215/60 68/120/60
f 52/121/61 64/216/61 65/122/61
f 59/118/62 71/117/62 72/123/62
f 100/125/63 89/150/63 1/126/63
f 99/128/64 100/153/64 23/129/64
f 98/131/65 99/128/65 21/130/65
f 97/133/66 98/156/66 19/134/66
f 96/136/67 97/133/67 17/135/67
f 95/138/68 96/136/68 15/137/68
f 94/140/69 95/160/69 13/141/69
f 9/143/70 93/162/70 94/140/70
f 92/144/71 93/162/71 9/143/71
f 91/146/72 92/165/72 7/147/72
f 3/149/73 90/167/73 91/146/73
f 89/150/74 90/167/74 3/149/74
f 112/151/75 101/168/75 89/150/75
f 111/152/76 112/171/76 100/153/76
f 110/154/77 111/152/77 99/128/77
f 109/155/78 110/174/78 98/156/78
f 108/157/79 109/155/79 97/133/79
f 107/158/80 108/157/80 96/136/80
f 106/159/81 107/178/81 95/160/81
f 105/161/82 106/159/82 94/140/82
f 104/163/83 105/161/83 93/162/83
f 103/164/84 104/182/84 92/165/84
f 102/166/85 103/164/85 91/146/85
f 101/168/86 102/166/86 90/167/86
f 124/169/87 113/184/87 101/168/87
f 123/170/88 124/187/88 112/171/88
f 122/172/89 123/170/89 111/152/89
f 121/173/90 122/190/90 110/174/90
f 120/175/91 121/173/91 109/155/91
f 119/176/92 120/175/92 108/157/92
f 106/159/93 118/194/93 119/177/93
f 117/179/94 118/194/94 106/159/94
f 116/180/95 117/179/95 105/161/95
f 115/181/96 116/198/96 104/182/96
f 114/183/97 115/181/97 103/164/97
f 113/184/98 114/183/98 102/166/98
f 148/185/99 125/200/99 113/184/99
f 146/186/113 148/217/113 124/187/113
f 144/188/101 146/186/101 123/170/101
f 142/189/102 144/218/102 122/190/102
f 140/191/103 142/189/103 121/173/103
f 138/192/104 140/191/104 120/175/104
f 136/193/105 138/219/105 119/177/105
f 134/195/106 136/193/106 118/194/106
f 132/196/107 134/195/107 117/179/107
f 130/197/108 132/220/108 116/198/108
f 128/199/109 130/197/109 115/181/109
f 125/200/110 128/199/110 114/183/110
f 74/221/114 75/222/114 73/223/114
f 76/224/115 77/225/115 75/222/115
f 78/226/116 79/227/116 77/228/116
f 80/229/117 81/230/117 79/227/117
f 82/231/118 83/232/118 81/233/118
f 84/234/119 85/235/119 83/232/119
f 80/236/51 78/237/51 86/238/51
f 86/239/120 87/240/120 85/241/120
f 88/242/121 73/243/121 87/240/121
f 87/244/15 75/245/15 79/246/15
f 74/221/114 76/224/114 75/222/114
f 76/224/115 78/247/115 77/225/115
f 78/226/116 80/229/116 79/227/116
f 80/229/117 82/248/117 81/230/117
f 82/231/118 84/234/118 83/232/118
f 84/234/119 86/249/119 85/235/119
f 78/237/51 76/250/51 86/238/51
f 76/250/51 74/251/51 86/238/51
f 74/251/51 88/252/51 86/238/51
f 86/238/51 84/253/51 82/254/51
f 82/254/51 80/236/51 86/238/51
f 86/239/120 88/242/120 87/240/120
f 88/242/121 74/255/121 73/243/121
f 87/244/15 73/256/15 75/245/15
f 75/245/15 77/257/15 79/246/15
f 79/246/15 81/258/15 83/259/15
f 83/259/15 85/260/15 79/246/15
f 85/260/15 87/244/15 79/246/15
f 147/26/122 125/200/122 148/185/122
f 145/22/123 148/217/123 146/186/123
f 143/20/124 146/186/124 144/188/124
f 141/17/125 144/218/125 142/189/125
f 139/14/126 142/189/126 140/191/126
f 137/15/127 140/191/127 138/192/127
f 135/10/128 138/219/128 136/193/128
f 133/9/129 136/193/129 134/195/129
f 131/7/130 134/195/130 132/196/130
f 129/4/131 132/220/131 130/197/131
f 127/3/132 130/197/132 128/199/132
f 125/200/133 127/3/133 128/199/133
f 147/26/122 126/1/122 125/200/122
f 145/22/123 147/24/123 148/217/123
f 143/20/124 145/22/124 146/186/124
f 141/17/125 143/19/125 144/218/125
f 139/14/126 141/17/126 142/189/126
f 137/15/127 139/14/127 140/191/127
f 135/10/128 137/12/128 138/219/128
f 133/9/129 135/10/129 136/193/129
f 131/7/130 133/9/130 134/195/130
f 129/4/131 131/6/131 132/220/131
f 127/3/132 129/4/132 130/197/132
f 125/200/133 126/1/133 127/3/133
