# Blender v2.92.0 OBJ File: 'kenney_OGConvert.blend'
# www.blender.org
o bed_floor
v 0.160146 0.027577 0.328777
v 0.112096 -0.000000 0.376828
v 0.160146 -0.000000 0.328777
v 0.112096 0.027577 0.376828
v -0.160146 -0.000000 0.102951
v -0.160146 0.027577 -0.047580
v -0.160146 0.000000 -0.102951
v -0.160146 0.027577 0.328777
v -0.160146 -0.000000 0.160146
v -0.160146 -0.000000 0.328777
v -0.160146 0.055153 -0.047580
v -0.160146 0.000000 -0.160146
v -0.160146 0.055153 -0.322448
v -0.160146 0.000000 -0.322448
v -0.112096 0.055153 -0.370498
v 0.112096 0.055153 -0.322448
v 0.112096 0.055153 -0.370498
v -0.112096 0.055153 -0.322448
v -0.112096 0.055153 -0.187148
v 0.160146 0.055153 -0.047580
v 0.160146 0.055153 -0.322448
v 0.112096 0.055153 -0.187148
v 0.160146 0.000000 -0.322448
v 0.160146 0.000000 -0.160146
v 0.160146 0.000000 -0.102951
v 0.160146 0.027577 -0.047580
v 0.160146 -0.000000 0.102951
v 0.160146 -0.000000 0.160146
v 0.112096 0.000000 -0.370498
v -0.112096 -0.000000 0.376828
v -0.112096 0.027577 0.376828
v -0.112096 0.000000 -0.370498
v -0.160146 0.065886 -0.099401
v 0.160146 0.062725 -0.092194
v 0.160146 0.065886 -0.099401
v -0.160146 0.062725 -0.092194
v 0.160146 0.091796 -0.120866
v -0.160146 0.087013 -0.120239
v 0.160146 0.087013 -0.120239
v -0.160146 0.091796 -0.120866
v -0.160146 0.055153 0.328777
v -0.160146 0.069489 -0.105722
v 0.160146 0.069489 -0.105722
v -0.160146 0.073475 -0.111047
v 0.160146 0.073475 -0.111048
v -0.102007 0.092053 -0.316359
v 0.102007 0.092053 -0.193236
v 0.102007 0.092053 -0.316359
v -0.102007 0.092053 -0.193236
v 0.112096 0.055153 0.376828
v -0.112096 0.055153 0.376828
v 0.160146 0.082312 -0.118369
v -0.160146 0.077774 -0.115287
v 0.160146 0.077774 -0.115287
v -0.160146 0.082312 -0.118369
v 0.160146 0.055153 0.328777
v 0.160146 0.060062 -0.084223
v -0.160146 0.060062 -0.084223
v -0.160146 0.055467 -0.057146
v 0.160146 0.055467 -0.057146
v -0.160146 0.056402 -0.066548
v 0.160146 0.056402 -0.066548
v 0.160146 0.057942 -0.075625
v -0.160146 0.057942 -0.075625
vt 0.730030 0.753546
vt 0.702720 0.805155
vt 0.700440 0.753546
vt 0.732310 0.805155
vt 0.766865 0.296643
vt 0.796455 0.458322
vt 0.766865 0.517794
vt 0.796455 0.054092
vt 0.766865 0.235212
vt 0.766865 0.054092
vt 0.826045 0.458322
vt 0.766865 0.579225
vt 0.826045 0.753546
vt 0.766865 0.753546
vt 0.294887 0.002483
vt 0.054092 0.054092
vt 0.054092 0.002483
vt 0.294887 0.054092
vt 0.346496 0.054092
vt 0.294887 0.199412
vt 0.002483 0.349316
vt 0.002483 0.054092
vt 0.054092 0.199412
vt 0.346496 0.349316
vt 0.759620 0.349316
vt 0.700440 0.054092
vt 0.759620 0.054092
vt 0.700440 0.228414
vt 0.700440 0.289844
vt 0.730030 0.349316
vt 0.700440 0.510995
vt 0.700440 0.572426
vt 0.702720 0.002483
vt 0.761900 0.002483
vt 0.862866 0.575550
vt 0.833291 0.816345
vt 0.833291 0.575550
vt 0.862866 0.816345
vt 0.956426 0.575550
vt 0.897407 0.816345
vt 0.897407 0.575550
vt 0.956426 0.816345
vt 0.769145 0.002483
vt 0.798735 0.002483
vt 0.769145 0.805155
vt 0.828325 0.805155
vt 0.890024 0.226572
vt 0.890024 0.570584
vt 0.881878 0.570584
vt 0.881878 0.226572
vt 0.976912 0.919563
vt 0.971736 0.919563
vt 0.971736 0.575550
vt 0.976912 0.575550
vt 0.826045 0.054092
vt 0.897294 0.226572
vt 0.897294 0.570584
vt 0.903566 0.226572
vt 0.903566 0.570584
vt 0.965532 0.221606
vt 0.833291 0.002483
vt 0.965532 0.002483
vt 0.833291 0.221606
vt 0.892441 0.575550
vt 0.892441 0.816345
vt 0.828325 0.002483
vt 0.966533 0.919563
vt 0.961392 0.919563
vt 0.961392 0.575550
vt 0.966533 0.575550
vt 0.759620 0.753546
vt 0.761900 0.805155
vt 0.872997 0.570584
vt 0.872997 0.226572
vt 0.391534 0.808487
vt 0.351461 0.947268
vt 0.351461 0.801948
vt 0.391534 0.940728
vt 0.958592 0.456531
vt 0.997517 0.226572
vt 0.997517 0.467367
vt 0.958592 0.237408
vt 0.908731 0.570584
vt 0.908731 0.226572
vt 0.002483 0.753546
vt 0.054092 0.805155
vt 0.294886 0.805155
vt 0.346495 0.753546
vt 0.913696 0.456531
vt 0.953626 0.226572
vt 0.953626 0.467367
vt 0.913696 0.237408
vt 0.843508 0.226572
vt 0.843508 0.570584
vt 0.833291 0.570584
vt 0.833291 0.226572
vt 0.853647 0.226572
vt 0.853647 0.570584
vt 0.863533 0.570584
vt 0.863533 0.226572
vt 0.396500 0.801948
vt 0.436573 0.940728
vt 0.396500 0.947268
vt 0.436573 0.808487
vt 0.695474 0.226113
vt 0.643865 0.002483
vt 0.695474 0.053566
vt 0.695474 0.286918
vt 0.695474 0.505817
vt 0.695474 0.566623
vt 0.695474 0.745898
vt 0.643865 0.796982
vt 0.403070 0.002483
vt 0.403070 0.796982
vt 0.351461 0.053566
vt 0.351461 0.226113
vt 0.351461 0.745898
vt 0.351461 0.566622
vt 0.441539 0.801948
vt 0.441539 0.801948
vt 0.441539 0.801948
vt 0.441539 0.801948
vn 0.7071 0.0000 0.7071
vn -1.0000 0.0000 0.0000
vn 0.0000 1.0000 0.0000
vn 1.0000 0.0000 -0.0000
vn 0.7071 0.0000 -0.7071
vn 0.0000 0.0000 1.0000
vn -0.0000 0.0000 -1.0000
vn -0.7071 0.0000 0.7071
vn -0.7071 0.0000 -0.7071
vn -0.0000 -0.8935 -0.4491
vn -0.0000 -0.9331 -0.3596
vn -0.0000 -0.1300 -0.9915
vn -0.0000 -0.2517 -0.9678
vn -0.0000 -0.8363 -0.5483
vn -0.0000 -0.7535 -0.6574
vn -0.0000 -0.4684 -0.8835
vn -0.0000 -0.6346 -0.7729
vn -0.0000 -0.9605 -0.2784
vn 0.9646 0.2637 -0.0000
vn -0.0000 0.1628 -0.9867
vn 0.0000 0.1628 0.9867
vn -0.0000 -0.9978 -0.0659
vn -0.0000 -0.9995 -0.0328
vn -0.0000 -0.9911 -0.1332
vn -0.0000 -0.9791 -0.2035
vn -0.9646 0.2637 0.0000
vn -0.0000 -1.0000 -0.0000
vn -0.2706 0.9239 0.2706
s 1
f 1/1/1 2/2/1 3/3/1
f 2/2/1 1/1/1 4/4/1
f 5/5/2 6/6/2 7/7/2
f 6/6/2 5/5/2 8/8/2
f 8/8/2 5/5/2 9/9/2
f 8/8/2 9/9/2 10/10/2
f 11/11/2 7/7/2 6/6/2
f 11/11/2 12/12/2 7/7/2
f 13/13/2 12/12/2 11/11/2
f 12/12/2 13/13/2 14/14/2
f 15/15/3 16/16/3 17/17/3
f 16/16/3 15/15/3 18/18/3
f 18/18/3 15/15/3 13/19/3
f 18/18/3 13/19/3 19/20/3
f 20/21/3 17/17/3 16/16/3
f 17/17/3 20/21/3 21/22/3
f 20/21/3 16/16/3 22/23/3
f 20/21/3 22/23/3 11/24/3
f 11/24/3 22/23/3 19/20/3
f 11/24/3 19/20/3 13/19/3
f 20/25/4 23/26/4 21/27/4
f 23/26/4 20/25/4 24/28/4
f 24/28/4 20/25/4 25/29/4
f 25/29/4 20/25/4 26/30/4
f 25/29/4 26/30/4 27/31/4
f 27/31/4 26/30/4 1/1/4
f 27/31/4 1/1/4 28/32/4
f 28/32/4 1/1/4 3/3/4
f 21/27/5 29/33/5 17/34/5
f 29/33/5 21/27/5 23/26/5
f 4/35/6 30/36/6 2/37/6
f 30/36/6 4/35/6 31/38/6
f 15/39/7 29/40/7 32/41/7
f 29/40/7 15/39/7 17/42/7
f 30/43/8 8/8/8 10/10/8
f 8/8/8 30/43/8 31/44/8
f 13/13/9 32/45/9 14/14/9
f 32/45/9 13/13/9 15/46/9
f 33/47/10 35/48/10 34/49/11
f 34/49/11 36/50/11 33/47/10
f 37/51/12 39/52/13 38/53/13
f 38/53/13 40/54/12 37/51/12
f 8/8/2 11/11/2 6/6/2
f 11/11/2 8/8/2 41/55/2
f 42/56/14 43/57/14 35/48/10
f 35/48/10 33/47/10 42/56/14
f 43/57/14 42/56/14 44/58/15
f 44/58/15 45/59/15 43/57/14
f 46/60/3 47/61/3 48/62/3
f 47/61/3 46/60/3 49/63/3
f 50/64/6 31/38/6 4/35/6
f 31/38/6 50/64/6 51/65/6
f 31/44/8 41/55/8 8/8/8
f 41/55/8 31/44/8 51/66/8
f 52/67/16 54/68/17 53/69/17
f 53/69/17 55/70/16 52/67/16
f 56/71/1 4/4/1 1/1/1
f 4/4/1 56/71/1 50/72/1
f 36/50/11 34/49/11 57/73/18
f 57/73/18 58/74/18 36/50/11
f 48/75/19 22/76/19 16/77/19
f 22/76/19 48/75/19 47/78/19
f 46/79/20 16/80/20 18/81/20
f 16/80/20 46/79/20 48/82/20
f 54/83/17 45/59/15 44/58/15
f 44/58/15 53/84/17 54/83/17
f 11/24/3 56/85/3 20/21/3
f 56/85/3 11/24/3 50/86/3
f 50/86/3 11/24/3 51/87/3
f 51/87/3 11/24/3 41/88/3
f 39/52/13 52/67/16 55/70/16
f 55/70/16 38/53/13 39/52/13
f 47/89/21 19/90/21 22/91/21
f 19/90/21 47/89/21 49/92/21
f 59/93/22 60/94/22 20/95/23
f 20/95/23 11/96/23 59/93/22
f 61/97/24 62/98/24 60/94/22
f 60/94/22 59/93/22 61/97/24
f 58/74/18 57/73/18 63/99/25
f 63/99/25 64/100/25 58/74/18
f 64/100/25 63/99/25 62/98/24
f 62/98/24 61/97/24 64/100/25
f 56/71/4 26/30/4 20/25/4
f 26/30/4 56/71/4 1/1/4
f 19/101/26 46/102/26 18/103/26
f 46/102/26 19/101/26 49/104/26
f 24/105/27 29/106/27 23/107/27
f 29/106/27 24/105/27 25/108/27
f 29/106/27 25/108/27 27/109/27
f 29/106/27 27/109/27 28/110/27
f 29/106/27 28/110/27 3/111/27
f 29/106/27 3/111/27 2/112/27
f 29/106/27 2/112/27 32/113/27
f 32/113/27 2/112/27 30/114/27
f 32/113/27 30/114/27 14/115/27
f 14/115/27 30/114/27 12/116/27
f 12/116/27 30/114/27 10/117/27
f 12/116/27 10/117/27 9/118/27
f 12/119/27 9/120/27 7/121/28
f 7/121/28 9/120/27 5/122/6
