# Blender v2.92.0 OBJ File: 'kenney_OGConvert.blend'
# www.blender.org
o bridge_side_wood
v 0.400000 0.300000 -0.500000
v -0.500000 0.300000 -0.400000
v 0.400000 0.300000 -0.400000
v -0.500000 0.300000 -0.500000
v 0.400000 0.000000 -0.450000
v 0.400000 0.250000 -0.500000
v 0.400000 0.000000 -0.500000
v 0.400000 0.250000 -0.450000
v 0.400000 0.150000 -0.450000
v 0.400000 0.150000 0.450000
v -0.500000 0.250000 0.450000
v -0.500000 0.150000 0.450000
v 0.400000 0.250000 0.450000
v 0.500000 0.350000 -0.400000
v 0.500000 0.000000 -0.500000
v 0.500000 0.350000 -0.500000
v 0.500000 0.050000 -0.400000
v 0.500000 0.100000 -0.400000
v 0.500000 -0.000000 0.500000
v 0.500000 0.050000 0.400000
v 0.500000 0.100000 0.400000
v 0.500000 0.350000 0.500000
v 0.500000 0.350000 0.400000
v 0.400000 0.350000 -0.500000
v 0.400000 0.350000 -0.400000
v -0.500000 -0.000000 0.450000
v -0.500000 0.150000 -0.450000
v -0.500000 0.000000 -0.450000
v -0.500000 0.200000 -0.400000
v -0.500000 0.250000 -0.450000
v -0.500000 0.200000 0.400000
v -0.500000 0.300000 0.400000
v -0.500000 0.300000 0.500000
v -0.500000 0.250000 0.500000
v -0.500000 0.250000 -0.500000
v 0.400000 -0.000000 0.500000
v 0.400000 0.250000 0.500000
v 0.400000 0.300000 0.500000
v 0.400000 0.350000 0.500000
v 0.400000 0.300000 0.400000
v 0.400000 0.150000 0.400000
v 0.400000 0.100000 -0.400000
v 0.400000 0.150000 -0.400000
v 0.400000 0.100000 0.400000
v 0.400000 -0.000000 0.450000
v 0.420000 0.150000 0.400000
v 0.420000 0.200000 0.400000
v 0.400000 0.350000 0.400000
v 0.520000 0.350000 -0.380000
v 0.520000 0.350000 -0.520000
v 0.380000 0.350000 -0.380000
v 0.380000 0.350000 -0.520000
v 0.520000 0.350000 0.520000
v 0.520000 0.350000 0.380000
v 0.380000 0.350000 0.520000
v 0.380000 0.350000 0.380000
v 0.420000 0.150000 -0.400000
v 0.420000 0.200000 -0.400000
v 0.520000 0.100000 0.400000
v 0.520000 0.050000 -0.400000
v 0.520000 0.100000 -0.400000
v 0.520000 0.050000 0.400000
v 0.520000 0.400000 0.520000
v 0.380000 0.400000 0.520000
v 0.520000 0.400000 -0.380000
v 0.520000 0.400000 -0.520000
v 0.380000 0.400000 0.380000
v 0.520000 0.400000 0.380000
v 0.380000 0.400000 -0.520000
v 0.380000 0.400000 -0.380000
vt 0.914693 0.003866
vt 0.875931 0.352724
vt 0.875931 0.003866
vt 0.914693 0.352724
vt 0.790654 0.821705
vt 0.810035 0.724800
vt 0.810035 0.821705
vt 0.790654 0.724800
vt 0.391487 0.406951
vt 0.391487 0.406951
vt 0.391487 0.406951
vt 0.775190 0.003866
vt 0.813952 0.352724
vt 0.775190 0.352724
vt 0.813952 0.003866
vt 0.534886 0.406971
vt 0.399219 0.368209
vt 0.534886 0.368209
vt 0.418600 0.406971
vt 0.391487 0.399219
vt 0.391487 0.399219
vt 0.391487 0.399219
vt 0.399219 0.755829
vt 0.418600 0.717067
vt 0.437981 0.717067
vt 0.534886 0.755829
vt 0.534886 0.717067
vt 0.166646 0.833333
vt 0.147265 0.794571
vt 0.166646 0.794571
vt 0.147265 0.833333
vt 0.263551 0.767458
vt 0.205408 0.418600
vt 0.263552 0.418600
vt 0.186027 0.437981
vt 0.166646 0.418600
vt 0.186027 0.748077
vt 0.166646 0.767458
vt 0.147265 0.748077
vt 0.147265 0.786839
vt 0.391487 0.414683
vt 0.391487 0.414683
vt 0.391487 0.414683
vt 0.166646 0.786839
vt 0.147265 0.437981
vt 0.166646 0.399219
vt 0.147265 0.399219
vt 0.542618 0.755829
vt 0.678285 0.717067
vt 0.678285 0.755829
vt 0.581380 0.717067
vt 0.561999 0.717067
vt 0.561999 0.368209
vt 0.542618 0.717067
vt 0.581380 0.368209
vt 0.922425 0.003866
vt 0.941806 0.352724
vt 0.922425 0.352724
vt 0.941806 0.003866
vt 0.941786 0.368209
vt 0.961167 0.717067
vt 0.941786 0.717067
vt 0.961167 0.368209
vt 0.120152 0.399219
vt 0.100771 0.748077
vt 0.100771 0.399219
vt 0.120152 0.748077
vt 0.139533 0.786839
vt 0.003866 0.786839
vt 0.003866 0.748077
vt 0.139533 0.748077
vt 0.934054 0.717067
vt 0.895292 0.368209
vt 0.934054 0.368209
vt 0.895292 0.717067
vt 0.968919 0.313962
vt 0.949538 0.003866
vt 0.968919 0.003866
vt 0.949538 0.313962
vt 0.023247 0.003866
vt 0.372106 0.352724
vt 0.023247 0.352724
vt 0.372106 0.003866
vt 0.391487 0.391487
vt 0.003866 0.352724
vt 0.003866 0.391487
vt 0.391487 0.352724
vt 0.705398 0.717067
vt 0.686017 0.755829
vt 0.686017 0.717067
vt 0.705398 0.724820
vt 0.782922 0.755829
vt 0.724779 0.724820
vt 0.763541 0.717067
vt 0.724779 0.368209
vt 0.763541 0.368209
vt 0.782922 0.717067
vt 0.848798 0.368209
vt 0.887560 0.717067
vt 0.848798 0.717067
vt 0.887560 0.368209
vt 0.542618 0.817829
vt 0.550370 0.810076
vt 0.596885 0.817829
vt 0.542618 0.763562
vt 0.550370 0.771314
vt 0.589132 0.771314
vt 0.589132 0.810076
vt 0.596885 0.763562
vt 0.453486 0.817829
vt 0.445733 0.810076
vt 0.453486 0.763562
vt 0.399219 0.817829
vt 0.406971 0.810076
vt 0.406971 0.771314
vt 0.445733 0.771314
vt 0.399219 0.763562
vt 0.368189 0.786839
vt 0.348808 0.748077
vt 0.368189 0.748077
vt 0.348808 0.755830
vt 0.271284 0.786839
vt 0.329427 0.755830
vt 0.290665 0.748077
vt 0.329427 0.399219
vt 0.271284 0.748077
vt 0.290665 0.399219
vt 0.193760 0.833333
vt 0.174378 0.794571
vt 0.193760 0.794571
vt 0.174378 0.833333
vt 0.817768 0.821705
vt 0.837149 0.763562
vt 0.837149 0.821705
vt 0.837149 0.724800
vt 0.817768 0.724800
vt 0.709315 0.360477
vt 0.399219 0.003866
vt 0.709315 0.003866
vt 0.399219 0.360477
vt 0.996032 0.313962
vt 0.976651 0.003866
vt 0.996032 0.003866
vt 0.976651 0.313962
vt 0.988280 0.678305
vt 0.968899 0.368209
vt 0.988280 0.368209
vt 0.968899 0.678305
vt 0.968899 0.996134
vt 0.976652 0.686037
vt 0.976652 0.996134
vt 0.968899 0.686037
vt 0.829437 0.003866
vt 0.821684 0.313962
vt 0.821684 0.003866
vt 0.829437 0.313962
vt 0.868199 0.003866
vt 0.868199 0.313962
vt 0.375921 0.717047
vt 0.383673 0.736428
vt 0.375921 0.736428
vt 0.383673 0.717047
vt 0.375921 0.744160
vt 0.383673 0.763541
vt 0.375921 0.763541
vt 0.383673 0.744160
vt 0.375921 0.709315
vt 0.383673 0.399219
vt 0.383673 0.709315
vt 0.375921 0.399219
vt 0.790654 0.717067
vt 0.790654 0.368209
vt 0.050360 0.794571
vt 0.030979 0.848838
vt 0.030979 0.794571
vt 0.050360 0.848838
vt 0.759625 0.817828
vt 0.740244 0.763562
vt 0.759625 0.763562
vt 0.740244 0.817828
vt 0.658884 0.817829
vt 0.604617 0.763562
vt 0.658884 0.763562
vt 0.604617 0.817829
vt 0.023247 0.848838
vt 0.003866 0.794571
vt 0.023247 0.794571
vt 0.003866 0.848838
vt 0.717047 0.003866
vt 0.717047 0.352724
vt 0.705398 0.817828
vt 0.686017 0.763562
vt 0.705398 0.763562
vt 0.686017 0.817828
vt 0.077473 0.794571
vt 0.058092 0.848838
vt 0.058092 0.794571
vt 0.077473 0.848838
vt 0.461218 0.763562
vt 0.515484 0.817829
vt 0.461218 0.817829
vt 0.515484 0.763562
vt 0.104587 0.794571
vt 0.085205 0.848838
vt 0.085205 0.794571
vt 0.104587 0.848838
vt 0.131700 0.794571
vt 0.112319 0.848838
vt 0.112319 0.794571
vt 0.131700 0.848838
vt 0.732511 0.817828
vt 0.713130 0.763562
vt 0.732511 0.763562
vt 0.713130 0.817828
vn 0.0000 1.0000 0.0000
vn -1.0000 0.0000 0.0000
vn -0.0000 -1.0000 -0.0000
vn 0.0000 0.0000 1.0000
vn 1.0000 -0.0000 -0.0000
vn -0.0000 0.0000 -1.0000
s 1
f 1/1/1 2/2/1 3/3/1
f 2/2/1 1/1/1 4/4/1
f 5/5/2 6/6/2 7/7/2
f 6/6/2 5/5/2 8/8/2
f 8/9/2 5/10/2 9/11/3
f 10/12/4 11/13/4 12/14/4
f 11/13/4 10/12/4 13/15/4
f 14/16/5 15/17/5 16/18/5
f 15/17/5 14/16/5 17/19/5
f 17/20/5 14/21/5 18/22/1
f 17/19/5 19/23/5 15/17/5
f 19/23/5 17/19/5 20/24/5
f 19/23/5 20/24/5 21/25/5
f 19/23/5 21/25/5 22/26/5
f 22/26/5 21/25/5 23/27/5
f 3/28/2 24/29/2 1/30/2
f 24/29/2 3/28/2 25/31/2
f 26/32/2 27/33/2 28/34/2
f 27/33/2 26/32/2 29/35/2
f 27/33/2 29/35/2 30/36/2
f 29/35/2 26/32/2 31/37/2
f 11/38/2 31/37/2 26/32/2
f 11/38/2 32/39/2 31/37/2
f 32/39/2 11/38/2 33/40/2
f 11/41/2 26/42/2 12/43/3
f 33/40/2 11/38/2 34/44/2
f 2/45/2 30/36/2 29/35/2
f 2/45/2 35/46/2 30/36/2
f 35/46/2 2/45/2 4/47/2
f 22/48/4 36/49/4 19/50/4
f 36/49/4 22/48/4 37/51/4
f 37/51/4 22/48/4 38/52/4
f 37/51/4 38/52/4 33/53/4
f 38/52/4 22/48/4 39/54/4
f 33/53/4 34/55/4 37/51/4
f 34/56/3 13/57/3 37/58/3
f 13/57/3 34/56/3 11/59/3
f 30/60/3 6/61/3 8/62/3
f 6/61/3 30/60/3 35/63/3
f 4/64/6 6/65/6 35/66/6
f 6/65/6 4/64/6 1/67/6
f 16/68/6 6/65/6 1/67/6
f 15/69/6 6/65/6 16/68/6
f 6/65/6 15/69/6 7/70/6
f 16/68/6 1/67/6 24/71/6
f 32/72/1 38/73/1 40/74/1
f 38/73/1 32/72/1 33/75/1
f 41/76/5 42/77/5 43/78/5
f 42/77/5 41/76/5 44/79/5
f 26/80/3 5/81/3 45/82/3
f 5/81/3 26/80/3 28/83/3
f 15/84/3 45/82/3 5/81/3
f 15/84/3 36/85/3 45/82/3
f 36/85/3 15/84/3 19/86/3
f 15/84/3 5/81/3 7/87/3
f 41/88/6 21/89/6 44/90/6
f 21/89/6 41/88/6 46/91/6
f 46/91/6 23/92/6 21/89/6
f 23/92/6 46/91/6 47/93/6
f 23/92/6 47/93/6 40/94/6
f 40/94/6 47/93/6 31/95/6
f 40/94/6 31/95/6 32/96/6
f 23/92/6 40/94/6 48/97/6
f 27/98/6 8/99/6 9/100/6
f 8/99/6 27/98/6 30/101/6
f 49/102/3 14/103/3 50/104/3
f 14/103/3 49/102/3 51/105/3
f 14/103/3 51/105/3 25/106/3
f 25/106/3 51/105/3 24/107/3
f 16/108/3 50/104/3 14/103/3
f 50/104/3 16/108/3 52/109/3
f 52/109/3 16/108/3 24/107/3
f 52/109/3 24/107/3 51/105/3
f 53/110/3 22/111/3 54/112/3
f 22/111/3 53/110/3 55/113/3
f 22/111/3 55/113/3 39/114/3
f 39/114/3 55/113/3 48/115/3
f 23/116/3 54/112/3 22/111/3
f 54/112/3 23/116/3 56/117/3
f 56/117/3 23/116/3 48/115/3
f 56/117/3 48/115/3 55/113/3
f 18/118/4 43/119/4 42/120/4
f 43/119/4 18/118/4 57/121/4
f 14/122/4 57/121/4 18/118/4
f 57/121/4 14/122/4 58/123/4
f 58/123/4 14/122/4 3/124/4
f 58/123/4 3/124/4 29/125/4
f 3/124/4 14/122/4 25/126/4
f 2/127/4 29/125/4 3/124/4
f 38/128/2 48/129/2 40/130/2
f 48/129/2 38/128/2 39/131/2
f 36/132/2 10/133/2 45/134/2
f 10/133/2 36/132/2 13/135/2
f 13/135/2 36/132/2 37/136/2
f 29/137/1 47/138/1 58/139/1
f 47/138/1 29/137/1 31/140/1
f 47/141/5 57/142/5 58/143/5
f 57/142/5 47/141/5 46/144/5
f 59/145/5 60/146/5 61/147/5
f 60/146/5 59/145/5 62/148/5
f 41/149/3 57/150/3 46/151/3
f 57/150/3 41/149/3 43/152/3
f 18/153/1 59/154/1 61/155/1
f 59/154/1 18/153/1 21/156/1
f 21/156/1 18/153/1 42/157/1
f 21/156/1 42/157/1 44/158/1
f 59/159/4 20/160/4 62/161/4
f 20/160/4 59/159/4 21/162/4
f 18/163/6 60/164/6 17/165/6
f 60/164/6 18/163/6 61/166/6
f 20/167/3 60/168/3 62/169/3
f 60/168/3 20/167/3 17/170/3
f 27/98/6 5/171/6 28/172/6
f 5/171/6 27/98/6 9/100/6
f 63/173/4 55/174/4 53/175/4
f 55/174/4 63/173/4 64/176/4
f 65/177/5 50/178/5 66/179/5
f 50/178/5 65/177/5 49/180/5
f 67/181/1 63/182/1 68/183/1
f 63/182/1 67/181/1 64/184/1
f 55/185/2 67/186/2 56/187/2
f 67/186/2 55/185/2 64/188/2
f 45/189/4 12/14/4 26/190/4
f 12/14/4 45/189/4 10/12/4
f 51/191/2 69/192/2 52/193/2
f 69/192/2 51/191/2 70/194/2
f 65/195/4 51/196/4 49/197/4
f 51/196/4 65/195/4 70/198/4
f 66/199/1 70/200/1 65/201/1
f 70/200/1 66/199/1 69/202/1
f 69/203/6 50/204/6 52/205/6
f 50/204/6 69/203/6 66/206/6
f 67/207/6 54/208/6 56/209/6
f 54/208/6 67/207/6 68/210/6
f 63/211/5 54/212/5 68/213/5
f 54/212/5 63/211/5 53/214/5
