# Blender v2.92.0 OBJ File: 'kenney_OGConvert.blend'
# www.blender.org
o cactus_tall
v 0.027750 0.750000 0.048064
v -0.055500 0.700000 0.096129
v 0.055500 0.700000 0.096129
v -0.027750 0.750000 0.048064
v -0.140808 0.183143 0.115937
v -0.092158 0.183143 0.018567
v -0.062158 0.183143 0.070528
v -0.170808 0.183143 0.063975
v 0.055500 0.700000 -0.096129
v 0.055500 0.750000 0.000000
v 0.111000 0.700000 0.000000
v 0.027750 0.750000 -0.048064
v -0.050000 0.000000 -0.086603
v -0.030000 0.250000 -0.090005
v 0.050000 0.000000 -0.086603
v -0.055500 0.700000 -0.096129
v -0.030000 0.310000 -0.090821
v 0.030000 0.310000 -0.090821
v 0.030000 0.250000 -0.090005
v -0.166789 0.213143 0.130937
v -0.196789 0.213143 0.078975
v 0.100000 0.000000 -0.000000
v -0.196789 0.543143 0.078975
v -0.166789 0.543143 0.130937
v -0.155808 0.573143 0.089956
v -0.050000 -0.000000 0.086603
v -0.100000 0.000000 0.000000
v -0.062866 0.243143 0.070937
v -0.092866 0.243143 0.018975
v -0.111000 0.700000 0.000000
v 0.095538 0.469911 0.020518
v 0.094831 0.409911 0.020110
v 0.065538 0.469911 0.072480
v 0.050000 -0.000000 0.086603
v 0.064831 0.409911 0.072071
v -0.114827 0.243143 0.100937
v -0.144827 0.243143 0.048975
v -0.144827 0.543143 0.048975
v -0.114827 0.543143 0.100937
v -0.030000 0.610000 -0.146602
v -0.000000 0.640000 -0.176602
v -0.030000 0.610000 -0.206602
v 0.030000 0.250000 -0.176602
v -0.030000 0.250000 -0.176602
v 0.169461 0.439911 0.132479
v 0.173481 0.409911 0.065518
v 0.199461 0.439911 0.080518
v 0.143481 0.409911 0.117479
v 0.117500 0.669911 0.102480
v 0.169461 0.669911 0.132480
v 0.158481 0.699911 0.091499
v 0.147500 0.469911 0.050518
v 0.199461 0.669911 0.080518
v 0.147500 0.669911 0.050518
v 0.030000 0.610000 -0.146602
v -0.030000 0.310000 -0.146602
v 0.030000 0.310000 -0.146602
v 0.117500 0.469911 0.102480
v -0.027750 0.750000 -0.048064
v -0.055500 0.750000 0.000000
v 0.030000 0.280000 -0.206602
v 0.030000 0.610000 -0.206602
v -0.030000 0.280000 -0.206602
vt 0.141075 0.809886
vt 0.186779 0.730725
vt 0.186779 0.836273
vt 0.141075 0.757112
vt 0.379964 0.843773
vt 0.437018 0.930129
vt 0.379965 0.930129
vt 0.437018 0.843773
vt 0.379964 0.051410
vt 0.459126 0.003964
vt 0.485513 0.051410
vt 0.406352 0.003964
vt 0.085787 0.669645
vt 0.105086 0.431985
vt 0.175104 0.670023
vt 0.084894 0.003964
vt 0.105430 0.374928
vt 0.159021 0.375155
vt 0.158676 0.432212
vt 0.184037 0.004383
vt 0.938983 0.317750
vt 0.996036 0.346443
vt 0.938983 0.346443
vt 0.996036 0.317750
vt 0.385194 0.717047
vt 0.480283 0.717047
vt 0.550493 0.904692
vt 0.493440 0.904692
vt 0.521967 0.876166
vt 0.498670 0.716901
vt 0.574741 0.542742
vt 0.593759 0.716901
vt 0.517688 0.542742
vt 0.517688 0.485686
vt 0.574741 0.485686
vt 0.598988 0.051241
vt 0.493440 0.051241
vt 0.191964 0.004383
vt 0.216062 0.223088
vt 0.200897 0.670023
vt 0.291106 0.003964
vt 0.216406 0.280145
vt 0.269652 0.222862
vt 0.290214 0.669645
vt 0.269997 0.279918
vt 0.003964 0.004383
vt 0.012876 0.670023
vt 0.934518 0.931353
vt 0.877465 0.874300
vt 0.934518 0.874300
vt 0.877465 0.931353
vt 0.363125 0.670023
vt 0.372037 0.004383
vt 0.550493 0.847639
vt 0.095371 0.836273
vt 0.095371 0.889047
vt 0.493440 0.847639
vt 0.996036 0.003964
vt 0.938983 0.003964
vt 0.934518 0.581107
vt 0.877465 0.866372
vt 0.877465 0.581107
vt 0.934518 0.866372
vt 0.316740 0.933108
vt 0.288213 0.904582
vt 0.316740 0.876055
vt 0.379964 0.835845
vt 0.437018 0.753501
vt 0.437018 0.835845
vt 0.379964 0.753501
vt 0.550493 0.724829
vt 0.493440 0.753356
vt 0.493440 0.724829
vt 0.550493 0.753356
vt 0.061017 0.896974
vt 0.061017 0.954028
vt 0.032490 0.925501
vt 0.831564 0.251317
vt 0.931056 0.222667
vt 0.906351 0.251224
vt 0.832237 0.194263
vt 0.881646 0.194202
vt 0.931056 0.003964
vt 0.881646 0.004025
vt 0.719350 0.411250
vt 0.634976 0.354199
vt 0.720036 0.354199
vt 0.606916 0.382725
vt 0.663152 0.411250
vt 0.607346 0.696507
vt 0.663543 0.696507
vt 0.781555 0.706461
vt 0.727964 0.925311
vt 0.727964 0.706614
vt 0.781555 0.925157
vt 0.942446 0.581107
vt 0.986191 0.866651
vt 0.942446 0.866364
vt 0.986192 0.581394
vt 0.251759 0.876055
vt 0.194706 0.933108
vt 0.194706 0.876055
vt 0.251759 0.933108
vt 0.003964 0.954028
vt 0.049667 0.809886
vt 0.049667 0.757112
vt 0.095371 0.730725
vt 0.003964 0.836273
vt 0.003964 0.730725
vt 0.121986 0.954028
vt 0.068944 0.896975
vt 0.121986 0.896975
vt 0.068944 0.954028
vt 0.095371 0.677951
vt 0.572601 0.003964
vt 0.519827 0.003964
vt 0.003964 0.896974
vt 0.691977 0.003964
vt 0.607602 0.061015
vt 0.606916 0.003964
vt 0.720036 0.032489
vt 0.663800 0.061015
vt 0.719606 0.346272
vt 0.663409 0.346272
vt 0.781067 0.004607
vt 0.727964 0.317733
vt 0.731662 0.003964
vt 0.752330 0.346580
vt 0.777705 0.289852
vt 0.823637 0.347508
vt 0.823637 0.290451
vt 0.493440 0.839712
vt 0.550493 0.839712
vt 0.931056 0.573180
vt 0.877465 0.259244
vt 0.931056 0.259398
vt 0.877465 0.573027
vt 0.823642 0.355436
vt 0.777708 0.412876
vt 0.752332 0.356036
vt 0.823642 0.412490
vt 0.781070 0.698117
vt 0.731662 0.698533
vt 0.727964 0.384768
vt 0.705575 0.951659
vt 0.656806 0.761486
vt 0.706312 0.732960
vt 0.656165 0.951659
vt 0.607396 0.761486
vt 0.606916 0.704434
vt 0.681703 0.704434
vt 0.359404 0.820583
vt 0.277055 0.677951
vt 0.359404 0.725495
vt 0.277055 0.868128
vt 0.194706 0.725495
vt 0.194706 0.820583
vt 0.259687 0.933108
vt 0.259687 0.876055
vt 0.833228 0.706461
vt 0.789482 0.896918
vt 0.789482 0.706747
vt 0.833228 0.896632
vt 0.437018 0.724974
vt 0.379964 0.724974
vn 0.0000 0.6930 0.7209
vn 0.0000 -1.0000 0.0000
vn 0.6243 0.6930 -0.3605
vn -0.0000 -0.0136 -0.9999
vn -0.6124 -0.7071 0.3536
vn 0.8659 -0.0136 -0.5000
vn -0.6124 0.7071 0.3536
vn -0.8659 -0.0136 0.5000
vn 0.8659 -0.0136 0.5000
vn -0.8659 -0.0136 -0.5000
vn 0.0000 1.0000 0.0000
vn 0.0000 -0.0136 0.9999
vn -0.3536 0.7071 -0.6124
vn 0.6243 0.6930 0.3605
vn 0.3536 0.7071 0.6124
vn -0.8660 -0.0000 0.5000
vn 0.6124 0.7071 -0.3536
vn 0.8660 0.0000 -0.5000
vn -0.7071 0.7071 0.0000
vn 0.6124 -0.7071 0.3536
vn -0.3536 0.7071 0.6124
vn 0.5000 -0.0000 -0.8660
vn 0.5000 -0.0000 0.8660
vn 0.8660 -0.0000 0.5000
vn 0.0000 -0.0000 1.0000
vn 0.6124 0.7071 0.3536
vn -0.0000 0.6930 -0.7209
vn -0.6243 0.6930 -0.3605
vn -0.6243 0.6930 0.3605
vn -0.6124 0.7071 -0.3536
vn -0.5000 -0.0000 -0.8660
vn 1.0000 0.0000 -0.0000
vn 0.0000 0.0000 -1.0000
vn -1.0000 0.0000 0.0000
vn -0.5000 -0.0000 0.8660
vn 0.7071 0.7071 0.0000
vn 0.0000 0.7071 0.7071
vn 0.0000 0.7071 -0.7071
vn 0.3536 0.7071 -0.6124
vn -0.8660 0.0000 -0.5000
vn -0.0000 -0.7071 -0.7071
s 1
f 1/1/1 2/2/1 3/3/1
f 2/2/1 1/1/1 4/4/1
f 5/5/2 6/6/2 7/7/2
f 6/6/2 5/5/2 8/8/2
f 9/9/3 10/10/3 11/11/3
f 10/10/3 9/9/3 12/12/3
f 13/13/4 14/14/4 15/15/4
f 14/14/4 13/13/4 16/16/4
f 14/14/4 16/16/4 17/17/4
f 17/17/4 16/16/4 18/18/4
f 19/19/4 15/15/4 14/14/4
f 15/15/4 19/19/4 9/20/4
f 9/20/4 19/19/4 18/18/4
f 9/20/4 18/18/4 16/16/4
f 20/21/5 8/22/5 5/23/5
f 8/22/5 20/21/5 21/24/5
f 11/11/6 15/25/6 9/9/6
f 15/25/6 11/11/6 22/26/6
f 23/27/7 24/28/7 25/29/7
f 26/30/8 6/31/8 27/32/8
f 6/31/8 26/30/8 7/33/8
f 7/33/8 26/30/8 28/34/8
f 29/35/8 27/32/8 6/31/8
f 29/35/8 30/36/8 27/32/8
f 30/36/8 29/35/8 2/37/8
f 2/37/8 29/35/8 28/34/8
f 2/37/8 28/34/8 26/30/8
f 11/38/9 31/39/9 22/40/9
f 31/39/9 11/38/9 3/41/9
f 22/40/9 31/39/9 32/42/9
f 31/39/9 3/41/9 33/43/9
f 33/43/9 3/41/9 34/44/9
f 32/42/9 34/44/9 22/40/9
f 34/44/9 32/42/9 35/45/9
f 34/44/9 35/45/9 33/43/9
f 13/13/10 30/46/10 16/16/10
f 30/46/10 13/13/10 27/47/10
f 29/48/11 36/49/11 28/50/11
f 36/49/11 29/48/11 37/51/11
f 3/41/12 26/52/12 34/44/12
f 26/52/12 3/41/12 2/53/12
f 23/27/13 25/29/13 38/54/13
f 10/55/14 3/3/14 11/56/14
f 3/3/14 10/55/14 1/1/14
f 24/28/15 39/57/15 25/29/15
f 20/21/16 23/58/16 21/24/16
f 23/58/16 20/21/16 24/59/16
f 25/29/17 39/57/17 38/54/17
f 39/60/18 37/61/18 38/62/18
f 37/61/18 39/60/18 36/63/18
f 40/64/19 41/65/19 42/66/19
f 14/67/2 43/68/2 19/69/2
f 43/68/2 14/67/2 44/70/2
f 45/71/20 46/72/20 47/73/20
f 46/72/20 45/71/20 48/74/20
f 49/75/21 50/76/21 51/77/21
f 32/78/22 47/79/22 46/80/22
f 47/79/22 32/78/22 31/81/22
f 47/79/22 31/81/22 52/82/22
f 52/82/22 53/83/22 47/79/22
f 53/83/22 52/82/22 54/84/22
f 28/85/23 5/86/23 7/87/23
f 5/86/23 28/85/23 20/88/23
f 20/88/23 28/85/23 36/89/23
f 20/88/23 36/89/23 24/90/23
f 24/90/23 36/89/23 39/91/23
f 50/92/24 47/93/24 53/94/24
f 47/93/24 50/92/24 45/95/24
f 55/96/25 56/97/25 57/98/25
f 56/97/25 55/96/25 40/99/25
f 31/100/11 58/101/11 52/102/11
f 58/101/11 31/100/11 33/103/11
f 51/77/26 50/76/26 53/104/26
f 12/105/11 1/1/11 10/55/11
f 1/1/11 12/105/11 59/106/11
f 1/1/11 59/106/11 4/4/11
f 4/4/11 59/106/11 60/107/11
f 59/106/27 9/108/27 16/109/27
f 9/108/27 59/106/27 12/105/27
f 56/110/11 18/111/11 57/112/11
f 18/111/11 56/110/11 17/113/11
f 16/109/28 60/107/28 59/106/28
f 60/107/28 16/109/28 30/114/28
f 60/115/29 2/37/29 4/116/29
f 2/37/29 60/115/29 30/36/29
f 49/75/30 51/77/30 54/117/30
f 8/118/31 29/119/31 6/120/31
f 29/119/31 8/118/31 21/121/31
f 29/119/31 21/121/31 37/122/31
f 37/122/31 21/121/31 23/123/31
f 37/122/31 23/123/31 38/124/31
f 55/125/32 61/126/32 62/127/32
f 61/126/32 55/125/32 43/128/32
f 43/128/32 55/125/32 57/129/32
f 43/128/32 57/129/32 19/130/32
f 19/130/32 57/129/32 18/131/32
f 48/74/2 32/132/2 46/72/2
f 32/132/2 48/74/2 35/133/2
f 42/134/33 61/135/33 63/136/33
f 61/135/33 42/134/33 62/137/33
f 14/138/34 56/139/34 44/140/34
f 56/139/34 14/138/34 17/141/34
f 40/142/34 44/140/34 56/139/34
f 42/143/34 44/140/34 40/142/34
f 44/140/34 42/143/34 63/144/34
f 50/145/35 58/146/35 45/147/35
f 58/146/35 50/145/35 49/148/35
f 33/149/35 45/147/35 58/146/35
f 35/150/35 45/147/35 33/149/35
f 45/147/35 35/150/35 48/151/35
f 34/152/2 15/153/2 22/154/2
f 15/153/2 34/152/2 26/155/2
f 15/153/2 26/155/2 13/156/2
f 13/156/2 26/155/2 27/157/2
f 55/158/36 62/159/36 41/65/36
f 40/64/37 55/158/37 41/65/37
f 42/66/38 41/65/38 62/159/38
f 54/117/39 51/77/39 53/104/39
f 58/160/40 54/161/40 52/162/40
f 54/161/40 58/160/40 49/163/40
f 44/70/41 61/164/41 43/68/41
f 61/164/41 44/70/41 63/165/41
