# Blender v2.92.0 OBJ File: 'kenney_OGConvert.blend'
# www.blender.org
o cliff_blockCave_rock
v -0.158659 0.797978 0.050000
v -0.200606 0.613792 -0.400000
v -0.046244 0.797978 -0.400000
v 0.066171 0.797978 0.500000
v 0.066171 0.797978 -0.400000
v -0.158659 0.797978 0.500000
v 0.166530 0.487419 -0.400000
v 0.166530 0.487419 0.500000
v -0.242553 0.429606 -0.400000
v -0.242552 0.429605 0.500000
v -0.314498 0.429606 -0.400000
v -0.314498 0.429605 0.500000
v -0.400000 -0.000000 0.050000
v -0.218539 0.000000 -0.400000
v -0.357249 0.214803 -0.400000
v -0.500000 -0.000000 0.500000
v -0.500000 1.000000 -0.500000
v -0.500000 0.000000 -0.500000
v -0.500000 1.000000 0.500000
v 0.400000 -0.000000 0.500000
v 0.400000 0.000000 -0.109450
v 0.500000 -0.000000 0.500000
v 0.500000 0.000000 -0.500000
v 0.273020 0.000000 -0.400000
v -0.400000 -0.000000 0.500000
v 0.274448 0.487419 -0.400000
v 0.337224 0.243710 -0.400000
v 0.274449 0.487419 0.500000
v 0.500000 1.000000 0.500000
v 0.500000 1.000000 -0.500000
vt 0.795895 0.821798
vt 0.734106 0.674284
vt 0.801685 0.674284
vt 0.882065 0.969313
vt 0.845215 0.674284
vt 0.882065 0.674284
vt 0.808364 0.969313
vt 0.808364 0.821798
vt 0.664076 0.673206
vt 0.558576 0.966978
vt 0.558576 0.672317
vt 0.664076 0.967867
vt 0.672317 0.674284
vt 0.672317 0.969313
vt 0.795895 0.969313
vt 0.954385 0.969312
vt 0.930800 0.674284
vt 0.954385 0.674284
vt 0.930800 0.969312
vt 0.408413 0.819832
vt 0.417760 0.672317
vt 0.480155 0.672317
vt 0.672317 0.005715
vt 0.996661 0.330740
vt 0.672317 0.333116
vt 0.996661 0.003339
vt 0.298368 0.331150
vt 0.298368 0.131366
vt 0.331149 0.331150
vt 0.331150 0.003339
vt 0.256743 0.036120
vt 0.003339 0.003339
vt 0.095605 0.036120
vt 0.036120 0.183635
vt 0.003339 0.331149
vt 0.036120 0.331149
vt 0.401735 0.769502
vt 0.237674 0.673499
vt 0.319704 0.673937
vt 0.237674 0.968159
vt 0.401735 0.969036
vt 0.996055 0.667605
vt 0.672317 0.339795
vt 0.996055 0.339795
vt 0.672317 0.667605
vt 0.924121 0.969313
vt 0.888744 0.674284
vt 0.924121 0.674284
vt 0.888744 0.969313
vt 0.551897 0.672317
vt 0.551897 0.967346
vt 0.408413 0.967346
vt 0.337828 0.003339
vt 0.665638 0.331149
vt 0.337828 0.331149
vt 0.665638 0.003339
vt 0.395697 0.672317
vt 0.023918 0.774122
vt 0.193396 0.793073
vt 0.003339 0.854012
vt 0.059295 0.774122
vt 0.179646 0.732695
vt 0.092194 0.672317
vt 0.129044 0.672317
vt 0.216981 0.793073
vt 0.230995 0.863488
vt 0.185524 0.933902
vt 0.024386 0.933902
vt 0.553744 0.404053
vt 0.604829 0.524809
vt 0.581245 0.524809
vt 0.665638 0.337828
vt 0.665638 0.665638
vt 0.632857 0.665638
vt 0.337828 0.337828
vt 0.480042 0.404053
vt 0.447143 0.505858
vt 0.411766 0.505858
vt 0.370609 0.665638
vt 0.337828 0.665638
vt 0.331150 0.337828
vt 0.003339 0.665638
vt 0.003339 0.337828
vt 0.331149 0.665638
vn 0.7528 -0.6309 0.1880
vn 0.0000 -1.0000 0.0000
vn -0.9515 -0.3075 0.0000
vn 0.9750 -0.2221 -0.0000
vn 0.7957 0.5138 0.3208
vn -1.0000 0.0000 0.0000
vn -0.9684 -0.2494 0.0000
vn 1.0000 0.0000 -0.0000
vn 0.9808 -0.1952 -0.0000
vn -0.0000 0.0000 -1.0000
vn -0.8907 0.2347 0.3893
vn 0.0000 -0.0000 1.0000
vn 0.0000 1.0000 0.0000
s 1
f 1/1/1 2/2/1 3/3/1
f 4/4/2 3/5/2 5/6/2
f 3/5/2 4/4/2 6/7/2
f 3/5/2 6/7/2 1/8/2
f 7/9/3 4/10/3 5/11/3
f 4/10/3 7/9/3 8/12/3
f 1/1/4 9/13/4 2/2/4
f 9/13/4 1/1/4 10/14/4
f 10/14/4 1/1/4 6/15/4
f 10/16/2 11/17/2 9/18/2
f 11/17/2 10/16/2 12/19/2
f 13/20/5 14/21/5 15/22/5
f 16/23/6 17/24/6 18/25/6
f 17/24/6 16/23/6 19/26/6
f 20/27/2 21/28/2 22/29/2
f 21/28/2 23/30/2 22/29/2
f 24/31/2 23/30/2 21/28/2
f 23/30/2 24/31/2 18/32/2
f 18/32/2 24/31/2 14/33/2
f 18/32/2 14/33/2 13/34/2
f 13/34/2 16/35/2 18/32/2
f 16/35/2 13/34/2 25/36/2
f 21/37/7 26/38/7 27/39/7
f 26/38/7 21/37/7 28/40/7
f 28/40/7 21/37/7 20/41/7
f 29/42/8 23/43/8 30/44/8
f 23/43/8 29/42/8 22/45/8
f 28/46/2 7/47/2 26/48/2
f 7/47/2 28/46/2 8/49/2
f 11/50/9 13/20/9 15/22/9
f 13/20/9 11/50/9 12/51/9
f 13/20/9 12/51/9 25/52/9
f 17/53/10 23/54/10 18/55/10
f 23/54/10 17/53/10 30/56/10
f 21/37/11 27/39/11 24/57/11
f 26/58/12 9/59/12 27/60/12
f 9/59/12 26/58/12 7/61/12
f 9/59/12 7/61/12 2/62/12
f 2/62/12 7/61/12 5/63/12
f 2/62/12 5/63/12 3/64/12
f 11/65/12 27/60/12 9/59/12
f 15/66/12 27/60/12 11/65/12
f 14/67/12 27/60/12 15/66/12
f 27/60/12 14/67/12 24/68/12
f 6/69/12 12/70/12 10/71/12
f 19/72/12 12/70/12 6/69/12
f 16/73/12 12/70/12 19/72/12
f 12/70/12 16/73/12 25/74/12
f 19/72/12 6/69/12 29/75/12
f 4/76/12 29/75/12 6/69/12
f 8/77/12 29/75/12 4/76/12
f 28/78/12 29/75/12 8/77/12
f 20/79/12 29/75/12 28/78/12
f 29/75/12 20/79/12 22/80/12
f 17/81/13 29/82/13 30/83/13
f 29/82/13 17/81/13 19/84/13
