# Blender v2.92.0 OBJ File: 'kenney_OGConvert.blend'
# www.blender.org
o cliff_topDiagonal_rock
v -0.768500 0.900000 -0.500000
v -0.619148 1.000000 -0.380852
v -0.668500 1.000000 -0.500000
v -0.689858 0.900000 -0.310142
v -0.070711 1.000000 0.070711
v -0.023191 0.900000 0.356525
v 0.047519 1.000000 0.285814
v -0.141421 0.900000 0.141421
v -0.474755 0.900000 -0.191912
v -0.404044 1.000000 -0.262623
v 0.191912 0.900000 0.474755
v 0.262623 1.000000 0.404044
v 0.138136 0.900000 0.445197
v 0.102038 0.925000 0.397962
v 0.030584 0.900000 0.386082
v 0.500000 0.900000 0.768500
v 0.380853 1.000000 0.619147
v 0.310142 0.900000 0.689858
v 0.500000 1.000000 0.668500
v -0.285814 1.000000 -0.047519
v -0.356525 0.900000 0.023192
v -0.380284 0.950000 -0.119715
v -0.445197 0.900000 -0.138136
v -0.386082 0.900000 -0.030584
v 0.500000 1.000000 0.500000
v -0.500000 1.000000 -0.500000
v 0.380853 -0.000000 0.619147
v 0.500000 -0.000000 0.500000
v 0.500000 -0.000000 0.668500
v 0.262623 -0.000000 0.404044
v -0.500000 0.000000 -0.500000
v -0.070711 -0.000000 0.070711
v 0.047519 -0.000000 0.285814
v -0.285814 0.000000 -0.047519
v -0.404044 0.000000 -0.262623
v -0.500000 0.000000 -0.315364
v -0.619148 0.000000 -0.380852
v -0.668500 0.000000 -0.500000
v 0.315364 -0.000000 0.500000
vt 0.042113 0.001607
vt 0.001607 0.077680
vt 0.001607 0.028092
vt 0.042113 0.080624
vt 0.001607 0.361330
vt 0.042113 0.461513
vt 0.001607 0.458569
vt 0.042113 0.364274
vt 0.858672 0.651361
vt 0.845913 0.555886
vt 0.886419 0.555886
vt 0.818166 0.651361
vt 0.858672 0.269462
vt 0.845913 0.173987
vt 0.886419 0.173987
vt 0.838976 0.197855
vt 0.842166 0.221724
vt 0.825103 0.245593
vt 0.818166 0.269462
vt 0.850021 0.001607
vt 0.858672 0.078512
vt 0.818166 0.078512
vt 0.878663 0.030249
vt 0.858672 0.460411
vt 0.845913 0.364936
vt 0.886419 0.364936
vt 0.818166 0.460411
vt 0.001607 0.551775
vt 0.042113 0.651958
vt 0.001607 0.649014
vt 0.042113 0.554719
vt 0.001607 0.170885
vt 0.042113 0.271069
vt 0.001607 0.268124
vt 0.461876 0.674195
vt 0.461876 0.791558
vt 0.461876 0.732876
vt 0.446336 0.674195
vt 0.446336 0.728226
vt 0.418999 0.687776
vt 0.409886 0.710313
vt 0.449550 0.696732
vt 0.458662 0.674195
vt 0.458662 0.728226
vt 0.926926 0.078512
vt 0.926926 0.651361
vt 0.878663 0.699624
vt 0.930140 0.622719
vt 0.998393 0.622719
vt 0.950131 0.670981
vt 0.957887 0.527244
vt 0.998393 0.049869
vt 0.957887 0.336294
vt 0.930140 0.431769
vt 0.930140 0.240819
vt 0.957887 0.145344
vt 0.945509 0.102754
vt 0.930140 0.049869
vt 0.950131 0.001607
vt 0.945509 0.569834
vt 0.814952 0.001607
vt 0.409886 0.049869
vt 0.409886 0.001607
vt 0.814952 0.049869
vt 0.406672 0.268124
vt 0.406672 0.361330
vt 0.406672 0.595152
vt 0.406672 0.551775
vt 0.406672 0.649014
vt 0.465089 0.674195
vt 0.465089 0.773620
vt 0.465089 0.718548
vt 0.406673 0.077680
vt 0.406672 0.170885
vt 0.814952 0.622719
vt 0.409886 0.670981
vt 0.409886 0.622719
vt 0.814952 0.670981
vt 0.406672 0.458569
vt 0.001607 0.695695
vt 0.406672 0.695696
vt 0.406673 0.028092
vn -0.6786 0.6786 0.2811
vn -0.6321 0.6926 0.3474
vn -0.3474 0.6926 0.6321
vn -0.2811 0.6786 0.6786
vn -0.4446 0.8579 0.2575
vn -0.6325 0.6923 0.3475
vn -0.4940 0.7550 0.4311
vn 0.0000 1.0000 0.0000
vn 0.0000 -1.0000 -0.0000
vn 0.0000 0.0000 -1.0000
vn -0.4817 -0.0000 0.8763
vn -0.8763 -0.0000 0.4817
vn -0.4817 0.0002 0.8763
vn 1.0000 0.0000 -0.0000
vn -0.3827 -0.0000 0.9239
vn -0.9239 -0.0000 0.3827
vn 0.7071 0.0000 -0.7071
s 1
f 1/1/1 2/2/1 3/3/1
f 2/2/1 1/1/1 4/4/1
f 5/5/2 6/6/2 7/7/2
f 6/6/2 5/5/2 8/8/2
f 2/9/3 9/10/3 10/11/3
f 9/10/3 2/9/3 4/12/3
f 7/13/3 11/14/3 12/15/3
f 11/14/3 7/13/3 13/16/3
f 13/16/3 7/13/3 14/17/3
f 14/17/3 7/13/3 15/18/3
f 15/18/3 7/13/3 6/19/3
f 16/20/4 17/21/4 18/22/4
f 17/21/4 16/20/4 19/23/4
f 20/24/3 8/25/3 5/26/3
f 8/25/3 20/24/3 21/27/3
f 12/28/2 18/29/2 17/30/2
f 18/29/2 12/28/2 11/31/2
f 10/32/2 21/33/2 20/34/2
f 21/35/5 10/36/6 22/37/7
f 22/38/7 10/39/6 23/40/2
f 23/40/2 10/39/6 9/41/2
f 24/42/2 21/43/2 22/44/2
f 25/45/8 17/21/8 19/23/8
f 17/21/8 25/45/8 12/15/8
f 12/15/8 25/45/8 26/46/8
f 12/15/8 26/46/8 5/26/8
f 12/15/8 5/26/8 7/13/8
f 5/26/8 26/46/8 20/24/8
f 20/24/8 26/46/8 10/11/8
f 10/11/8 26/46/8 2/9/8
f 2/9/8 26/46/8 3/47/8
f 27/48/9 28/49/9 29/50/9
f 28/49/9 27/48/9 30/51/9
f 28/49/9 30/51/9 31/52/9
f 31/52/9 30/51/9 32/53/9
f 32/53/9 30/51/9 33/54/9
f 31/52/9 32/53/9 34/55/9
f 31/52/9 34/55/9 35/56/9
f 31/52/9 35/56/9 36/57/9
f 31/52/9 36/57/9 37/58/9
f 31/52/9 37/58/9 38/59/9
f 30/51/9 27/48/9 39/60/8
f 3/61/10 31/62/10 38/63/10
f 31/62/10 3/61/10 26/64/10
f 5/5/11 34/65/11 32/66/11
f 34/65/11 5/5/11 20/34/11
f 39/67/12 12/28/12 30/68/12
f 12/28/12 39/67/12 17/30/12
f 17/30/12 39/67/12 27/69/12
f 35/70/13 37/71/11 36/72/11
f 37/73/11 35/74/13 10/32/11
f 37/73/11 10/32/11 2/2/11
f 34/65/12 10/32/12 35/74/12
f 10/32/12 34/65/12 20/34/12
f 25/75/14 29/76/14 28/77/14
f 29/76/14 25/75/14 19/78/14
f 33/79/12 5/5/12 32/66/12
f 5/5/12 33/79/12 7/7/12
f 12/28/11 33/79/11 30/68/11
f 33/79/11 12/28/11 7/7/11
f 19/80/15 27/69/15 29/81/15
f 27/69/15 19/80/15 17/30/15
f 38/82/16 2/2/16 3/3/16
f 2/2/16 38/82/16 37/73/16
f 26/64/17 28/77/17 31/62/17
f 28/77/17 26/64/17 25/75/17
