# Blender v2.92.0 OBJ File: 'kenney_OGConvert.blend'
# www.blender.org
o crops_dirtSingle
v -0.050000 0.100000 -0.086603
v 0.066000 0.050000 -0.114315
v -0.066000 0.050000 -0.114315
v 0.050000 0.100000 -0.086603
v 0.050000 0.100000 0.086603
v 0.100000 0.100000 -0.000000
v -0.050000 0.100000 0.086603
v -0.100000 0.100000 0.000000
v 0.132000 0.050000 -0.000000
v 0.066000 0.050000 0.114315
v -0.132000 0.050000 0.000000
v -0.066000 0.050000 0.114315
v 0.100000 -0.000000 0.173205
v 0.100000 0.000000 -0.173205
v 0.200000 0.000000 -0.000000
v -0.100000 -0.000000 0.173205
v -0.100000 0.000000 -0.173205
v -0.200000 0.000000 0.000000
vt 0.250000 0.144790
vt 0.085706 0.193655
vt 0.250000 0.098799
vt 0.125535 0.216650
vt 0.250000 0.432229
vt 0.125535 0.360370
vt 0.374465 0.360370
vt 0.374465 0.216650
vt 0.085706 0.383365
vt 0.250000 0.478220
vt 0.414294 0.193655
vt 0.414294 0.383365
vt 0.998930 0.432229
vt 0.750000 0.001070
vt 0.998930 0.144790
vt 0.750000 0.575949
vt 0.501070 0.144790
vt 0.501070 0.432229
vt 0.498930 0.432229
vt 0.498930 0.144790
vt 0.250000 0.575949
vt 0.001070 0.432229
vt 0.001070 0.144790
vt 0.250000 0.001070
vn -0.0000 0.4848 -0.8746
vn 0.0000 1.0000 0.0000
vn 0.7575 0.4848 0.4373
vn -0.7575 0.4848 -0.4373
vn 0.7575 0.4848 -0.4373
vn 0.0000 0.4848 0.8746
vn -0.0000 -1.0000 -0.0000
vn -0.5605 0.7623 0.3236
vn 0.5605 0.7623 0.3236
vn 0.0000 0.7623 0.6472
vn 0.5605 0.7623 -0.3236
vn -0.7575 0.4848 0.4373
vn -0.5605 0.7623 -0.3236
vn -0.0000 0.7623 -0.6472
s 1
f 1/1/1 2/2/1 3/3/1
f 2/2/1 1/1/1 4/4/1
f 4/4/2 5/5/2 6/6/2
f 5/5/2 4/4/2 1/1/2
f 5/5/2 1/1/2 7/7/2
f 7/7/2 1/1/2 8/8/2
f 5/5/3 9/9/3 6/6/3
f 9/9/3 5/5/3 10/10/3
f 11/11/4 1/1/4 3/3/4
f 1/1/4 11/11/4 8/8/4
f 4/4/5 9/9/5 2/2/5
f 9/9/5 4/4/5 6/6/5
f 5/5/6 12/12/6 10/10/6
f 12/12/6 5/5/6 7/7/6
f 13/13/7 14/14/7 15/15/7
f 14/14/7 13/13/7 16/16/7
f 14/14/7 16/16/7 17/17/7
f 17/17/7 16/16/7 18/18/7
f 11/11/8 16/19/8 12/12/8
f 16/19/8 11/11/8 18/20/8
f 9/9/9 13/21/9 15/22/9
f 13/21/9 9/9/9 10/10/9
f 10/10/10 16/19/10 13/21/10
f 16/19/10 10/10/10 12/12/10
f 14/23/11 9/9/11 15/22/11
f 9/9/11 14/23/11 2/2/11
f 11/11/12 7/7/12 8/8/12
f 7/7/12 11/11/12 12/12/12
f 17/24/13 11/11/13 3/3/13
f 11/11/13 17/24/13 18/20/13
f 17/24/14 2/2/14 14/23/14
f 2/2/14 17/24/14 3/3/14
