# Blender v2.92.0 OBJ File: 'OGConvert.blend'
# www.blender.org
o flower_purpleB
v -0.073000 -0.000000 0.126440
v 0.146000 0.000000 0.000000
v 0.146000 -0.000000 0.252879
v 0.146000 0.000000 -0.252879
v -0.073000 0.000000 -0.126440
v -0.292000 0.000000 0.000000
v 0.036500 1.060000 0.126440
v -0.182500 1.060000 0.000000
v -0.036500 1.060000 0.084293
v -0.073000 1.060000 0.063220
v -0.109500 1.060000 0.042147
v 0.036500 1.060000 -0.126440
v 0.036500 1.060000 -0.042147
v 0.036500 1.060000 0.000000
v 0.036500 1.060000 0.042147
v -0.109500 1.060000 -0.042147
v -0.073000 1.060000 -0.063220
v -0.036500 1.060000 -0.084293
v -0.477088 0.655640 0.246852
v 0.024763 0.655640 0.536596
v -0.229489 0.735640 0.816975
v -0.627269 0.495640 0.826974
v -0.402546 0.495640 0.956718
v -0.592776 0.735640 0.607231
v 0.822266 0.735640 0.209744
v 1.029815 0.495640 -0.129744
v 0.822266 0.735640 -0.209744
v 1.029815 0.495640 0.129744
v 0.452324 0.655640 -0.289744
v 0.452324 0.655640 0.289744
v -0.592776 0.735640 -0.607231
v -0.402546 0.495640 -0.956718
v -0.627269 0.495640 -0.826974
v -0.229489 0.735640 -0.816975
v -0.477088 0.655640 -0.246852
v 0.024763 0.655640 -0.536596
v -0.036500 1.668000 -0.393300
v 0.555861 1.364000 0.376200
v -0.036500 1.364000 -0.649800
v 0.259681 1.668000 0.119700
v -0.036500 1.060000 0.273600
v 0.200445 1.060000 -0.136800
v 0.437389 1.060000 0.273600
v -0.510389 1.060000 0.273600
v -0.273445 1.060000 -0.136800
v -0.036500 1.060000 -0.547200
v -0.628861 1.364000 0.376200
v -0.332681 1.668000 0.119700
vt 0.145335 0.784742
vt 0.074209 0.743678
vt 0.145335 0.702613
vt 0.003083 0.784742
vt 0.074209 0.825807
vt 0.145335 0.866872
vt 0.996917 0.622048
vt 0.934254 0.352670
vt 0.996917 0.317065
vt 0.871592 0.388274
vt 0.934254 0.657653
vt 0.976030 0.633916
vt 0.452129 0.133282
vt 0.479506 0.180700
vt 0.472662 0.168845
vt 0.210952 0.360945
vt 0.210952 0.324909
vt 0.210952 0.336921
vt 0.587519 0.649763
vt 0.629341 0.995633
vt 0.558175 0.995633
vt 0.611241 0.649763
vt 0.623102 0.649763
vt 0.700507 0.995633
vt 0.634963 0.649763
vt 0.658685 0.649763
vt 0.726416 0.317065
vt 0.786049 0.659570
vt 0.706672 0.659570
vt 0.865426 0.659570
vt 0.805793 0.317065
vt 0.534259 0.133282
vt 0.479506 0.133282
vt 0.493194 0.133282
vt 0.220872 0.363828
vt 0.220872 0.324909
vt 0.220872 0.337882
vt 0.749579 0.224522
vt 0.679164 0.013392
vt 0.749579 0.003083
vt 0.608749 0.023701
vt 0.588219 0.248147
vt 0.809671 0.739339
vt 0.706672 0.834525
vt 0.706672 0.760570
vt 0.809671 0.858895
vt 0.872005 0.830892
vt 0.872005 0.665735
vt 0.227038 0.333370
vt 0.309311 0.397935
vt 0.227038 0.451423
vt 0.309311 0.324909
vt 0.263173 0.818997
vt 0.182334 0.716444
vt 0.263173 0.702613
vt 0.151501 0.838104
vt 0.771652 0.042900
vt 0.880774 0.219988
vt 0.755745 0.265609
vt 0.826213 0.022991
vt 0.880774 0.003083
vt 0.235683 0.589263
vt 0.309311 0.464191
vt 0.309311 0.545642
vt 0.235683 0.457588
vt 0.571411 0.317065
vt 0.698556 0.415293
vt 0.520221 0.411680
vt 0.700507 0.319681
vt 0.622684 0.642020
vt 0.544862 0.640444
vt 0.700507 0.643597
vt 0.315476 0.629691
vt 0.416453 0.317065
vt 0.416453 0.701836
vt 0.315476 0.437306
vt 0.448765 0.233945
vt 0.582053 0.156991
vt 0.582053 0.310899
vt 0.493194 0.204409
vt 0.315476 0.156991
vt 0.465818 0.156991
vt 0.448765 0.080037
vt 0.582053 0.003083
vt 0.204787 0.374349
vt 0.204787 0.324909
vt 0.204787 0.341389
vt 0.220872 0.369994
vt 0.220872 0.369994
vt 0.220872 0.369994
vt 0.210952 0.391830
vt 0.210952 0.367110
vt 0.210952 0.375350
vt 0.506882 0.133282
vt 0.003083 0.671316
vt 0.102657 0.324909
vt 0.102657 0.696448
vt 0.003083 0.522701
vt 0.003083 0.374086
vt 0.514056 0.672978
vt 0.514056 0.519070
vt 0.514056 0.365161
vt 0.299353 0.029011
vt 0.120544 0.101506
vt 0.238006 0.003083
vt 0.003083 0.199929
vt 0.005699 0.275068
vt 0.309311 0.188894
vt 0.162483 0.311922
vt 0.309311 0.318744
vt 0.198621 0.639182
vt 0.198621 0.453413
vn -0.0000 -1.0000 -0.0000
vn -0.4993 0.0516 0.8649
vn -0.4994 0.0516 0.8648
vn -0.4995 0.0481 0.8650
vn 0.9947 0.1028 0.0000
vn -0.4993 0.0516 -0.8649
vn -0.4994 0.0516 -0.8649
vn 0.4530 0.4233 -0.7846
vn -0.3782 0.6541 0.6551
vn 0.1057 0.9774 -0.1830
vn 0.7564 0.6541 0.0000
vn -0.2114 0.9774 0.0000
vn -0.9060 0.4233 0.0000
vn -0.3782 0.6541 -0.6551
vn 0.1057 0.9774 0.1830
vn 0.4530 0.4233 0.7846
vn 0.7979 0.3887 -0.4607
vn 0.0000 -0.0000 1.0000
vn -0.8540 -0.1664 -0.4930
vn 0.8540 -0.1664 -0.4930
vn 0.0000 -0.3198 0.9475
vn 0.0000 0.6449 0.7643
vn 0.0000 1.0000 0.0000
vn -0.7979 0.3887 -0.4607
s 1
f 1/1/1 2/2/1 3/3/1
f 2/2/1 1/1/1 4/4/1
f 4/4/1 1/1/1 5/5/1
f 5/5/1 1/1/1 6/6/1
f 7/7/2 1/8/2 3/9/2
f 1/8/2 7/7/2 6/10/2
f 6/10/2 7/7/2 8/11/3
f 8/11/3 7/7/2 9/12/4
f 8/13/3 9/14/4 10/15/2
f 8/16/3 10/17/2 11/18/3
f 12/19/5 2/20/5 4/21/5
f 2/20/5 12/19/5 13/22/5
f 2/20/5 13/22/5 14/23/5
f 2/20/5 14/23/5 3/24/5
f 3/24/5 14/23/5 15/25/5
f 3/24/5 15/25/5 7/26/5
f 8/27/6 5/28/6 6/29/6
f 5/28/6 8/27/6 4/30/6
f 4/30/6 8/27/6 12/31/6
f 12/32/6 8/13/6 16/33/6
f 12/32/6 16/33/6 17/34/6
f 12/35/6 17/36/6 18/37/7
f 19/38/8 1/39/8 6/40/8
f 1/39/8 19/38/8 3/41/8
f 3/41/8 19/38/8 20/42/8
f 21/43/9 22/44/9 23/45/9
f 22/44/9 21/43/9 24/46/9
f 19/47/10 21/43/10 20/48/10
f 21/43/10 19/47/10 24/46/10
f 25/49/11 26/50/11 27/51/11
f 26/50/11 25/49/11 28/52/11
f 29/53/12 25/54/12 27/55/12
f 25/54/12 29/53/12 30/56/12
f 4/57/13 30/58/13 29/59/13
f 30/58/13 4/57/13 2/60/13
f 30/58/13 2/60/13 3/61/13
f 31/62/14 32/63/14 33/64/14
f 32/63/14 31/62/14 34/65/14
f 34/66/15 35/67/15 36/68/15
f 35/67/15 34/66/15 31/69/15
f 36/68/16 5/70/16 4/71/16
f 5/70/16 36/68/16 6/72/16
f 6/72/16 36/68/16 35/67/16
f 37/73/17 38/74/17 39/75/17
f 38/74/17 37/73/17 40/76/17
f 41/77/1 42/78/1 43/79/1
f 42/78/1 41/77/1 7/80/1
f 7/80/1 41/77/1 9/14/1
f 44/81/1 9/14/1 41/77/1
f 9/14/1 44/81/1 10/15/1
f 10/15/1 44/81/1 11/82/1
f 11/82/1 44/81/1 8/13/1
f 8/13/1 44/81/1 45/83/1
f 12/32/1 42/78/1 7/80/1
f 42/78/1 12/32/1 46/84/1
f 12/85/1 7/86/1 15/87/1
f 12/88/1 15/89/1 14/90/1
f 12/91/1 14/92/1 13/93/18
f 46/84/1 12/32/1 18/94/1
f 46/84/1 18/94/1 17/34/1
f 46/84/1 17/34/1 45/83/1
f 45/83/1 17/34/1 16/33/1
f 45/83/1 16/33/1 8/13/1
f 46/95/19 47/96/19 39/97/19
f 47/96/19 46/95/19 45/98/19
f 47/96/19 45/98/19 44/99/19
f 38/74/20 46/100/20 39/75/20
f 46/100/20 38/74/20 42/101/20
f 42/101/20 38/74/20 43/102/20
f 38/103/21 41/104/21 43/105/21
f 41/104/21 38/103/21 44/106/21
f 44/106/21 38/103/21 47/107/21
f 40/108/22 47/107/22 38/103/22
f 47/107/22 40/108/22 48/109/22
f 48/109/23 40/108/23 37/110/23
f 47/96/24 37/111/24 39/97/24
f 37/111/24 47/96/24 48/112/24
