# Blender v2.92.0 OBJ File: 'kenney_OGConvert.blend'
# www.blender.org
o grass_large
v -0.064370 0.077838 -0.113288
v -0.086272 0.046320 -0.153288
v -0.064370 0.077838 -0.153288
v -0.086272 0.046320 -0.113288
v -0.044370 0.086486 -0.153288
v -0.044370 0.086486 -0.113288
v 0.083656 -0.000000 0.169590
v 0.075558 0.032887 0.129590
v 0.083656 -0.000000 0.129590
v 0.075558 0.032887 0.169590
v 0.043275 0.095674 -0.009708
v 0.083275 0.000000 -0.001610
v 0.043275 0.000000 -0.001610
v 0.083275 0.095674 -0.009708
v 0.140734 0.098406 0.059077
v 0.118832 0.058560 0.019077
v 0.140734 0.098406 0.019077
v 0.118833 0.058560 0.059077
v 0.020271 0.098406 -0.137386
v 0.060271 0.109340 -0.157386
v 0.060271 0.098406 -0.137386
v 0.020271 0.109340 -0.157386
v -0.181498 0.046320 0.088511
v -0.141498 -0.000000 0.096610
v -0.181498 -0.000000 0.096610
v -0.141498 0.046320 0.088511
v -0.148686 0.120120 0.212096
v -0.128686 0.108108 0.172096
v -0.128686 0.108108 0.212096
v -0.148686 0.120120 0.172096
v -0.181498 0.077838 0.066610
v -0.141498 0.077838 0.066610
v -0.053989 0.228600 0.047912
v -0.093989 0.136037 0.026010
v -0.053989 0.136037 0.026010
v -0.093989 0.228600 0.047912
v 0.019702 0.180000 0.096228
v -0.002200 0.107116 0.056228
v 0.019702 0.180000 0.056228
v -0.002200 0.107116 0.096228
v -0.030985 0.138600 0.153688
v -0.070985 0.082479 0.131786
v -0.030985 0.082479 0.131786
v -0.070985 0.138600 0.153688
v -0.141498 0.086486 0.046610
v -0.181498 0.086486 0.046610
v 0.043275 0.160772 -0.031610
v 0.083275 0.178636 -0.051610
v 0.083275 0.160772 -0.031610
v 0.043275 0.178636 -0.051610
v -0.098686 -0.000000 0.212096
v -0.106784 0.064334 0.172096
v -0.098686 -0.000000 0.172096
v -0.106784 0.064334 0.212096
v -0.070985 0.154000 0.173688
v -0.030985 0.154000 0.173688
v -0.010298 -0.000000 0.056228
v -0.010298 -0.000000 0.096228
v -0.121449 0.000000 -0.002775
v -0.129547 0.082479 -0.042775
v -0.121449 0.000000 -0.042775
v -0.129547 0.082479 -0.002775
v 0.033656 0.061405 0.169590
v 0.053656 0.055265 0.129590
v 0.053656 0.055265 0.169590
v 0.033656 0.061405 0.129590
v -0.070985 -0.000000 0.123688
v -0.030985 -0.000000 0.123688
v 0.117972 0.076757 -0.155794
v 0.096070 0.045677 -0.195794
v 0.117972 0.076757 -0.195794
v 0.096070 0.045677 -0.155794
v -0.094370 0.000000 -0.153288
v -0.094370 0.000000 -0.113288
v 0.199142 0.076757 0.116778
v 0.159142 0.045677 0.094877
v 0.199142 0.045677 0.094877
v 0.159142 0.076757 0.116778
v -0.008514 0.096586 -0.039926
v -0.030416 0.162306 -0.079926
v -0.008514 0.096586 -0.079926
v -0.030416 0.162306 -0.039926
v -0.151449 0.138600 -0.042775
v -0.151449 0.138600 -0.002775
v 0.020271 0.058560 -0.115484
v 0.060271 0.000000 -0.107386
v 0.020271 0.000000 -0.107386
v 0.060271 0.058560 -0.115484
v -0.209856 0.064334 -0.078575
v -0.169856 0.000000 -0.070476
v -0.209856 0.000000 -0.070476
v -0.169856 0.064334 -0.078575
v -0.209856 0.108108 -0.100476
v -0.169856 0.108108 -0.100476
v 0.170783 0.032887 -0.072209
v 0.130783 0.000000 -0.080308
v 0.170783 0.000000 -0.080308
v 0.130783 0.032887 -0.072209
v -0.093989 -0.000000 0.017912
v -0.053989 -0.000000 0.017912
v -0.171448 0.154000 -0.002775
v -0.171449 0.154000 -0.042775
v 0.095155 0.034228 0.169590
v 0.095155 0.034228 0.129590
v -0.000416 0.000000 -0.039926
v -0.000416 0.000000 -0.079926
v -0.053989 0.254000 0.067912
v -0.093989 0.254000 0.067912
v -0.169856 0.120120 -0.120476
v -0.209856 0.120120 -0.120476
v 0.159142 0.085285 0.136778
v 0.199142 0.085285 0.136778
v -0.093989 0.116009 -0.042088
v -0.053989 0.069036 0.001715
v -0.093989 0.069036 0.001715
v -0.053989 0.116009 -0.042088
v 0.130783 0.061405 -0.030308
v 0.170783 0.055265 -0.050308
v 0.170783 0.061405 -0.030308
v 0.130783 0.055265 -0.050308
v -0.102468 0.037519 -0.113288
v -0.124370 0.063049 -0.153288
v -0.102468 0.037519 -0.153288
v -0.124370 0.063049 -0.113288
v -0.050416 0.180340 -0.039926
v -0.050416 0.180340 -0.079926
v 0.110734 -0.000000 0.019077
v 0.110734 -0.000000 0.059077
v 0.087972 0.000000 -0.195794
v 0.087972 0.000000 -0.155794
v 0.043275 0.077726 0.058390
v 0.083275 0.046254 0.014587
v 0.083275 0.077726 0.058390
v 0.043275 0.046254 0.014587
v 0.137972 0.085285 -0.195794
v 0.137972 0.085285 -0.155794
v 0.160734 0.109340 0.019077
v 0.160734 0.109340 0.059077
v 0.039702 0.200000 0.096228
v 0.039702 0.200000 0.056228
v 0.159142 -0.000000 0.086778
v 0.199142 -0.000000 0.086778
v 0.126256 0.057517 0.129590
v 0.126256 0.057517 0.169590
vt 0.128043 0.823292
vt 0.242587 0.725627
vt 0.242587 0.823292
vt 0.128043 0.725627
vt 0.242587 0.855320
vt 0.128043 0.855320
vt 0.622217 0.981530
vt 0.736761 0.905847
vt 0.736761 0.981530
vt 0.622217 0.905847
vt 0.251587 0.273443
vt 0.251587 0.004500
vt 0.366131 0.004500
vt 0.366131 0.273443
vt 0.498673 0.516322
vt 0.613217 0.516322
vt 0.613217 0.646367
vt 0.498673 0.646367
vt 0.489674 0.523170
vt 0.375130 0.523170
vt 0.375130 0.476613
vt 0.489674 0.476613
vt 0.860305 0.488753
vt 0.860305 0.622427
vt 0.745761 0.622427
vt 0.745761 0.488753
vt 0.869304 0.470333
vt 0.869304 0.405096
vt 0.983848 0.405096
vt 0.983848 0.470333
vt 0.860305 0.384202
vt 0.745761 0.384202
vt 0.004500 0.658719
vt 0.004500 0.386487
vt 0.119044 0.386487
vt 0.119044 0.658719
vt 0.128043 0.081067
vt 0.242587 0.081067
vt 0.242587 0.296169
vt 0.128043 0.296169
vt 0.375130 0.410029
vt 0.375130 0.238494
vt 0.489674 0.238494
vt 0.489674 0.410029
vt 0.803033 0.292030
vt 0.803033 0.375203
vt 0.745761 0.358174
vt 0.745761 0.275001
vt 0.251587 0.470034
vt 0.366131 0.470034
vt 0.366131 0.535585
vt 0.251587 0.535585
vt 0.869304 0.631426
vt 0.983848 0.631426
vt 0.983848 0.811051
vt 0.869304 0.811051
vt 0.489674 0.467613
vt 0.375130 0.467613
vt 0.869304 0.273367
vt 0.983848 0.273367
vt 0.242587 0.582093
vt 0.128043 0.582093
vt 0.983848 0.235642
vt 0.869304 0.235642
vt 0.869304 0.004500
vt 0.983848 0.004500
vt 0.622217 0.760932
vt 0.736761 0.817089
vt 0.622217 0.817089
vt 0.736761 0.760932
vt 0.375130 0.004500
vt 0.489674 0.004500
vt 0.251587 0.591618
vt 0.366131 0.591618
vt 0.366131 0.699095
vt 0.251587 0.699095
vt 0.242587 0.591092
vt 0.128043 0.591092
vt 0.860305 0.631426
vt 0.860305 0.733766
vt 0.745761 0.733766
vt 0.745761 0.631426
vt 0.498673 0.275694
vt 0.613217 0.275694
vt 0.613217 0.454096
vt 0.498673 0.454096
vt 0.004500 0.752935
vt 0.119044 0.752935
vt 0.119044 0.908973
vt 0.004500 0.908973
vt 0.489674 0.650548
vt 0.489674 0.817769
vt 0.375130 0.817769
vt 0.375130 0.650548
vt 0.736761 0.192157
vt 0.736761 0.375203
vt 0.622217 0.375203
vt 0.622217 0.192157
vt 0.736761 0.054012
vt 0.622217 0.054012
vt 0.869304 0.917012
vt 0.869304 0.820051
vt 0.983848 0.820051
vt 0.983848 0.917012
vt 0.004500 0.004500
vt 0.119044 0.004500
vt 0.004500 0.980881
vt 0.119044 0.980881
vt 0.498673 0.917758
vt 0.613217 0.816284
vt 0.613217 0.917758
vt 0.498673 0.816284
vt 0.498673 0.004500
vt 0.613217 0.004500
vt 0.004500 0.743936
vt 0.119044 0.743936
vt 0.622217 0.004500
vt 0.736761 0.004500
vt 0.185315 0.864319
vt 0.185315 0.947492
vt 0.128043 0.964284
vt 0.128043 0.881111
vt 0.736761 0.384202
vt 0.736761 0.549282
vt 0.622217 0.549282
vt 0.622217 0.384202
vt 0.251587 0.864319
vt 0.251587 0.947492
vt 0.194314 0.959583
vt 0.194314 0.876410
vt 0.469376 0.941313
vt 0.375130 0.826769
vt 0.469376 0.826769
vt 0.375130 0.941313
vt 0.946398 0.622427
vt 0.869304 0.622427
vt 0.869304 0.507883
vt 0.946398 0.507883
vt 0.613217 0.807284
vt 0.498673 0.807284
vt 0.366131 0.826844
vt 0.251587 0.826844
vt 0.366131 0.950388
vt 0.279691 0.835844
vt 0.366131 0.835844
vt 0.279691 0.950388
vt 0.860305 0.264367
vt 0.745761 0.264367
vt 0.745761 0.144482
vt 0.860305 0.144482
vt 0.251587 0.544584
vt 0.366131 0.544584
vt 0.498673 0.463095
vt 0.613217 0.463095
vt 0.745761 0.004500
vt 0.860305 0.004500
vt 0.736761 0.751933
vt 0.622217 0.751933
vt 0.869304 0.995306
vt 0.983848 0.995306
vt 0.128043 0.004500
vt 0.242587 0.004500
vt 0.860305 0.866068
vt 0.745761 0.866068
vt 0.613217 0.995500
vt 0.498673 0.995500
vn 0.8212 -0.5707 -0.0000
vn 0.3969 -0.9179 -0.0000
vn -0.9710 -0.2391 0.0000
vn 0.0000 0.0843 0.9964
vn -0.8763 0.4817 0.0000
vn 0.0000 0.8774 0.4797
vn 0.0000 0.1722 0.9851
vn 0.5149 0.8573 0.0000
vn 0.0000 0.5707 0.8212
vn -0.0000 0.2303 -0.9731
vn -0.9577 0.2878 0.0000
vn 0.0000 0.3636 -0.9316
vn 0.0000 0.9179 0.3969
vn 0.0000 0.7458 0.6661
vn 0.9922 0.1249 0.0000
vn 0.0000 0.7923 -0.6101
vn 0.8943 0.4475 -0.0000
vn 0.0000 0.3189 0.9478
vn -0.9972 0.0754 0.0000
vn 0.9952 0.0977 -0.0000
vn -0.2935 -0.9560 -0.0000
vn 0.0000 0.0977 -0.9952
vn -0.8174 0.5760 0.0000
vn 0.9851 -0.1722 -0.0000
vn -0.0000 0.5760 -0.8174
vn 0.9487 0.3162 -0.0000
vn 0.9316 0.3636 -0.0000
vn 0.0000 0.1370 0.9906
vn -0.7147 -0.6995 0.0000
vn 0.0000 0.1249 0.9922
vn 0.0000 0.4475 0.8943
vn -0.0000 0.2391 -0.9710
vn 0.0000 0.4817 0.8763
vn -0.0000 0.0594 -0.9982
vn 0.6101 0.7923 -0.0000
vn 0.9479 -0.3185 -0.0000
vn 0.9965 0.0836 -0.0000
vn -0.0000 0.6186 -0.7857
vn 0.0000 0.8573 0.5149
vn 0.0000 0.9199 -0.3923
vn 0.0000 0.6820 0.7314
vn -0.0000 0.9560 -0.2935
vn -0.7590 -0.6511 0.0000
vn 0.6697 0.7427 0.0000
vn -0.9906 0.1370 0.0000
vn -0.9846 0.1746 0.0000
vn -0.9775 -0.2110 0.0000
vn -0.0000 0.8121 -0.5835
vn -0.3923 0.9199 0.0000
vn -0.4797 0.8774 0.0000
vn -0.0000 0.3305 -0.9438
vn 0.0000 0.2284 0.9736
vn -0.0000 0.6995 -0.7147
vn -0.7071 0.7071 0.0000
vn 0.0000 0.1746 -0.9846
vn 0.5994 -0.8004 0.0000
s 1
f 1/1/1 2/2/1 3/3/1
f 2/2/1 1/1/1 4/4/1
f 1/1/2 5/5/2 6/6/2
f 5/5/2 1/1/2 3/3/2
f 7/7/3 8/8/3 9/9/3
f 8/8/3 7/7/3 10/10/3
f 11/11/4 13/12/4 12/13/4
f 12/13/4 14/14/4 11/11/4
f 15/15/5 17/16/5 16/17/5
f 16/17/5 18/18/5 15/15/5
f 19/19/6 21/20/6 20/21/6
f 20/21/6 22/22/6 19/19/6
f 23/23/7 25/24/7 24/25/7
f 24/25/7 26/26/7 23/23/7
f 27/27/8 29/28/8 28/29/8
f 28/29/8 30/30/8 27/27/8
f 31/31/9 23/23/9 26/26/9
f 26/26/9 32/32/9 31/31/9
f 33/33/10 35/34/10 34/35/10
f 34/35/10 36/36/10 33/33/10
f 37/37/11 39/38/11 38/39/11
f 38/39/11 40/40/11 37/37/11
f 41/41/12 43/42/12 42/43/12
f 42/43/12 44/44/12 41/41/12
f 31/45/13 32/46/13 45/47/13
f 45/47/13 46/48/13 31/45/13
f 47/49/14 49/50/14 48/51/14
f 48/51/14 50/52/14 47/49/14
f 51/53/15 53/54/15 52/55/15
f 52/55/15 54/56/15 51/53/15
f 55/57/16 56/58/16 41/41/16
f 41/41/16 44/44/16 55/57/16
f 54/59/17 52/60/17 28/29/17
f 28/29/17 29/28/17 54/59/17
f 47/49/18 11/11/18 14/14/18
f 14/14/18 49/50/18 47/49/18
f 40/40/19 38/39/19 57/61/19
f 57/61/19 58/62/19 40/40/19
f 59/63/20 61/64/20 60/65/20
f 60/65/20 62/66/20 59/63/20
f 63/67/21 64/68/21 65/69/21
f 64/68/21 63/67/21 66/70/21
f 43/42/22 68/71/22 67/72/22
f 67/72/22 42/43/22 43/42/22
f 69/73/23 71/74/23 70/75/23
f 70/75/23 72/76/23 69/73/23
f 4/4/24 73/77/24 2/2/24
f 73/77/24 4/4/24 74/78/24
f 75/79/25 77/80/25 76/81/25
f 76/81/25 78/82/25 75/79/25
f 79/83/26 81/84/26 80/85/26
f 80/85/26 82/86/26 79/83/26
f 62/87/27 60/88/27 83/89/27
f 83/89/27 84/90/27 62/87/27
f 85/91/28 87/92/28 86/93/28
f 86/93/28 88/94/28 85/91/28
f 10/10/29 64/68/29 8/8/29
f 64/68/29 10/10/29 65/69/29
f 89/95/30 91/96/30 90/97/30
f 90/97/30 92/98/30 89/95/30
f 93/99/31 89/95/31 92/98/31
f 92/98/31 94/100/31 93/99/31
f 95/101/32 97/102/32 96/103/32
f 96/103/32 98/104/32 95/101/32
f 19/19/33 85/91/33 88/94/33
f 88/94/33 21/20/33 19/19/33
f 35/34/34 100/105/34 99/106/34
f 99/106/34 34/35/34 35/34/34
f 101/107/35 84/90/35 83/89/35
f 83/89/35 102/108/35 101/107/35
f 103/109/36 9/110/36 104/111/36
f 9/110/36 103/109/36 7/112/36
f 105/113/37 106/114/37 81/84/37
f 81/84/37 79/83/37 105/113/37
f 107/115/38 33/33/38 36/36/38
f 36/36/38 108/116/38 107/115/38
f 93/99/39 94/100/39 109/117/39
f 109/117/39 110/118/39 93/99/39
f 111/119/40 112/120/40 75/121/40
f 75/121/40 78/122/40 111/119/40
f 113/123/41 115/124/41 114/125/41
f 114/125/41 116/126/41 113/123/41
f 117/127/42 119/128/42 118/129/42
f 118/129/42 120/130/42 117/127/42
f 121/131/43 122/132/43 123/133/43
f 122/132/43 121/131/43 124/134/43
f 125/135/44 82/136/44 80/137/44
f 80/137/44 126/138/44 125/135/44
f 18/18/45 16/17/45 127/139/45
f 127/139/45 128/140/45 18/18/45
f 72/76/46 70/75/46 129/141/46
f 129/141/46 130/142/46 72/76/46
f 74/143/47 123/144/47 73/145/47
f 123/144/47 74/143/47 121/146/47
f 131/147/48 133/148/48 132/149/48
f 132/149/48 134/150/48 131/147/48
f 69/73/49 136/151/49 135/152/49
f 135/152/49 71/74/49 69/73/49
f 15/15/50 138/153/50 137/154/50
f 137/154/50 17/16/50 15/15/50
f 132/149/51 12/155/51 13/156/51
f 13/156/51 134/150/51 132/149/51
f 115/124/52 99/157/52 100/158/52
f 100/158/52 114/125/52 115/124/52
f 118/159/53 95/101/53 98/104/53
f 98/104/53 120/160/53 118/159/53
f 139/161/54 140/162/54 39/38/54
f 39/38/54 37/37/54 139/161/54
f 77/80/55 142/163/55 141/164/55
f 141/164/55 76/81/55 77/80/55
f 103/109/56 143/165/56 144/166/56
f 143/165/56 103/109/56 104/111/56
