# Blender v2.92.0 OBJ File: 'kenney_OGConvert.blend'
# www.blender.org
o ground_pathBend
v -0.379000 0.000000 -0.500000
v -0.349054 0.000000 -0.349054
v -0.279000 0.000000 -0.500000
v -0.417356 0.000000 -0.417355
v -0.500000 0.000000 -0.279000
v -0.500000 0.000000 -0.379000
v -0.217000 -0.050000 -0.500000
v 0.120940 -0.050000 -0.141500
v 0.217000 -0.050000 -0.500000
v -0.141500 -0.050000 0.120940
v -0.500000 -0.050000 0.217000
v -0.306707 -0.050000 -0.306707
v -0.500000 -0.050000 -0.217000
v 0.279000 0.000000 -0.500000
v 0.261236 0.000000 -0.060500
v 0.379000 0.000000 -0.500000
v 0.174634 0.000000 -0.110500
v -0.060500 -0.000000 0.261236
v -0.110500 -0.000000 0.174634
v -0.500000 -0.000000 0.379000
v -0.500000 -0.000000 0.279000
v -0.500000 0.000000 -0.500000
v 0.500000 -0.000000 0.500000
v -0.500000 -0.000000 0.500000
v 0.500000 0.000000 -0.500000
vt 0.878244 0.000998
vt 0.848357 0.151643
vt 0.778443 0.000998
vt 0.916522 0.083478
vt 0.999002 0.221557
vt 0.999002 0.121757
vt 0.716567 0.000998
vt 0.379301 0.358782
vt 0.283433 0.000998
vt 0.641218 0.620699
vt 0.999002 0.716567
vt 0.806095 0.193905
vt 0.999002 0.283433
vt 0.221557 0.000998
vt 0.239285 0.439621
vt 0.121757 0.000998
vt 0.325715 0.389721
vt 0.560379 0.760715
vt 0.610279 0.674285
vt 0.999002 0.878244
vt 0.999002 0.778443
vt 0.999002 0.000998
vt 0.000998 0.999002
vt 0.999002 0.999002
vt 0.000998 0.000998
vn 0.0000 1.0000 0.0000
vn -0.1659 0.7676 -0.6191
vn -0.4532 0.7676 -0.4532
vn -0.6191 0.7676 -0.1659
vn 0.2797 0.7473 0.6027
vn 0.6027 0.7473 0.2797
s 1
f 1/1/1 2/2/1 3/3/1
f 2/2/1 1/1/1 4/4/1
f 2/2/1 4/4/1 5/5/1
f 5/5/1 4/4/1 6/6/1
f 7/7/1 8/8/1 9/9/1
f 8/8/1 7/7/1 10/10/1
f 10/10/1 7/7/1 11/11/1
f 11/11/1 7/7/1 12/12/1
f 11/11/1 12/12/1 13/13/1
f 14/14/1 15/15/1 16/16/1
f 15/15/1 14/14/1 17/17/1
f 15/15/1 17/17/1 18/18/1
f 18/18/1 17/17/1 19/19/1
f 18/18/1 19/19/1 20/20/1
f 20/20/1 19/19/1 21/21/1
f 22/22/1 4/4/1 1/1/1
f 4/4/1 22/22/1 6/6/1
f 23/23/1 18/18/1 24/24/1
f 18/18/1 23/23/1 15/15/1
f 15/15/1 23/23/1 25/25/1
f 15/15/1 25/25/1 16/16/1
f 24/24/1 18/18/1 20/20/1
f 10/10/2 21/21/2 19/19/2
f 21/21/2 10/10/2 11/11/2
f 8/8/3 19/19/3 17/17/3
f 19/19/3 8/8/3 10/10/3
f 9/9/4 17/17/4 14/14/4
f 17/17/4 9/9/4 8/8/4
f 2/2/5 13/13/5 12/12/5
f 13/13/5 2/2/5 5/5/5
f 3/3/6 12/12/6 7/7/6
f 12/12/6 3/3/6 2/2/6
