# Blender v2.92.0 OBJ File: 'kenney_OGConvert.blend'
# www.blender.org
o ground_riverCross
v 0.500000 0.000000 -0.500000
v 0.379000 0.000000 -0.379000
v 0.500000 0.000000 -0.379000
v 0.379000 0.000000 -0.500000
v -0.500000 0.000000 -0.500000
v -0.379000 0.000000 -0.379000
v -0.379000 0.000000 -0.500000
v -0.500000 0.000000 -0.379000
v -0.379000 -0.000000 0.379000
v -0.500000 -0.000000 0.500000
v -0.379000 -0.000000 0.500000
v -0.500000 -0.000000 0.379000
v 0.379000 -0.000000 0.379000
v 0.500000 -0.000000 0.500000
v 0.500000 -0.000000 0.379000
v 0.379000 -0.000000 0.500000
v 0.500000 0.000000 -0.279000
v 0.375000 -0.050000 -0.217000
v 0.500000 -0.050000 -0.217000
v 0.375000 0.000000 -0.279000
v 0.279000 0.000000 -0.500000
v 0.217000 -0.050000 -0.375000
v 0.279000 0.000000 -0.375000
v 0.217000 -0.050000 -0.500000
v -0.500000 0.000000 -0.279000
v -0.375000 -0.050000 -0.217000
v -0.375000 0.000000 -0.279000
v -0.500000 -0.050000 -0.217000
v -0.279000 0.000000 -0.500000
v -0.217000 -0.050000 -0.375000
v -0.217000 -0.050000 -0.500000
v -0.279000 0.000000 -0.375000
v -0.240034 -0.050000 -0.282120
v -0.292995 0.000000 -0.318567
v 0.240034 -0.050000 -0.282121
v 0.292995 0.000000 -0.318567
v -0.217000 -0.050000 0.375000
v -0.279000 -0.000000 0.500000
v -0.217000 -0.050000 0.500000
v -0.279000 -0.000000 0.375000
v 0.240034 -0.050000 0.282120
v 0.375000 -0.000000 0.279000
v 0.375000 -0.050000 0.217000
v 0.292995 -0.000000 0.318567
v -0.240034 -0.050000 0.282121
v -0.292995 -0.000000 0.318567
v 0.279000 -0.000000 0.375000
v 0.217000 -0.050000 0.375000
v -0.375000 -0.050000 0.217000
v -0.500000 -0.000000 0.279000
v -0.375000 -0.000000 0.279000
v -0.500000 -0.050000 0.217000
v 0.500000 -0.050000 0.217000
v 0.500000 -0.000000 0.279000
v 0.279000 -0.000000 0.500000
v 0.217000 -0.050000 0.500000
vt 0.000996 0.000996
vt 0.121514 0.121514
vt 0.000996 0.121514
vt 0.121514 0.000996
vt 0.997012 0.000996
vt 0.876494 0.121514
vt 0.876494 0.000996
vt 0.997012 0.121514
vt 0.876494 0.876494
vt 0.997012 0.997012
vt 0.876494 0.997012
vt 0.997012 0.876494
vt 0.121514 0.876494
vt 0.000996 0.997012
vt 0.000996 0.876494
vt 0.121514 0.997012
vt 0.000996 0.221116
vt 0.125498 0.282869
vt 0.000996 0.282869
vt 0.125498 0.221116
vt 0.221116 0.000996
vt 0.282869 0.125498
vt 0.221116 0.125498
vt 0.282869 0.000996
vt 0.997012 0.221116
vt 0.872510 0.282869
vt 0.872510 0.221116
vt 0.997012 0.282869
vt 0.776892 0.000996
vt 0.715139 0.125498
vt 0.715139 0.000996
vt 0.776892 0.125498
vt 0.738082 0.218008
vt 0.790832 0.181706
vt 0.259926 0.218007
vt 0.207176 0.181706
vt 0.715139 0.872510
vt 0.776892 0.997012
vt 0.715139 0.997012
vt 0.776892 0.872510
vt 0.259926 0.780000
vt 0.125498 0.776892
vt 0.125498 0.715139
vt 0.207176 0.816302
vt 0.738082 0.780001
vt 0.790832 0.816302
vt 0.221116 0.872510
vt 0.282869 0.872510
vt 0.872510 0.715139
vt 0.997012 0.776892
vt 0.872510 0.776892
vt 0.997012 0.715139
vt 0.000996 0.715139
vt 0.000996 0.776892
vt 0.221116 0.997012
vt 0.282869 0.997012
vt 0.000996 0.999004
vt 0.000996 0.999004
vt 0.000996 0.999004
vn 0.0000 1.0000 0.0000
vn 0.0000 0.7784 0.6278
vn -0.6278 0.7784 0.0000
vn 0.6278 0.7784 -0.0000
vn 0.6203 0.7691 0.1538
vn -0.6203 0.7691 0.1538
vn 0.2899 0.7450 0.6008
vn -0.2899 0.7450 0.6008
vn -0.2899 0.7450 -0.6008
vn 0.6203 0.7691 -0.1538
vn -0.6203 0.7691 -0.1538
vn -0.0000 0.7784 -0.6278
vn 0.2899 0.7450 -0.6008
vn 0.1284 0.9917 -0.0015
vn -0.5241 -0.6465 -0.5544
vn -0.0000 0.0000 -1.0000
s 1
f 1/1/1 2/2/1 3/3/1
f 2/2/1 1/1/1 4/4/1
f 5/5/1 6/6/1 7/7/1
f 6/6/1 5/5/1 8/8/1
f 9/9/1 10/10/1 11/11/1
f 10/10/1 9/9/1 12/12/1
f 13/13/1 14/14/1 15/15/1
f 14/14/1 13/13/1 16/16/1
f 17/17/2 18/18/2 19/19/2
f 18/18/2 17/17/2 20/20/2
f 21/21/3 22/22/3 23/23/3
f 22/22/3 21/21/3 24/24/3
f 25/25/2 26/26/2 27/27/2
f 26/26/2 25/25/2 28/28/2
f 29/29/4 30/30/4 31/31/4
f 30/30/4 29/29/4 32/32/4
f 32/32/5 33/33/5 30/30/5
f 33/33/5 32/32/5 34/34/5
f 23/23/6 35/35/6 36/36/6
f 35/35/6 23/23/6 22/22/6
f 34/34/7 26/26/7 33/33/7
f 26/26/7 34/34/7 27/27/7
f 20/20/8 35/35/8 18/18/8
f 35/35/8 20/20/8 36/36/8
f 37/37/4 38/38/4 39/39/4
f 38/38/4 37/37/4 40/40/4
f 41/41/9 42/42/9 43/43/9
f 42/42/9 41/41/9 44/44/9
f 45/45/10 40/40/10 37/37/10
f 40/40/10 45/45/10 46/46/10
f 41/41/11 47/47/11 44/44/11
f 47/47/11 41/41/11 48/48/11
f 49/49/12 50/50/12 51/51/12
f 50/50/12 49/49/12 52/52/12
f 53/53/12 42/42/12 54/54/12
f 42/42/12 53/53/12 43/43/12
f 48/48/3 55/55/3 47/47/3
f 55/55/3 48/48/3 56/56/3
f 49/49/13 46/46/13 45/45/13
f 46/46/13 49/49/13 51/51/13
f 3/3/1 20/20/1 17/17/1
f 20/20/1 3/3/1 2/2/1
f 20/20/1 2/2/1 4/4/1
f 20/20/1 4/4/1 21/21/1
f 20/20/1 21/21/1 36/36/1
f 36/36/1 21/21/1 23/23/1
f 7/7/1 32/32/1 29/29/1
f 32/32/1 7/7/1 34/34/1
f 34/34/1 7/7/1 27/27/1
f 27/27/1 7/7/1 6/6/1
f 27/27/1 6/6/1 25/25/1
f 25/25/1 6/6/1 8/8/1
f 42/42/1 15/15/1 54/54/1
f 15/15/1 42/42/1 13/13/1
f 13/13/1 42/42/1 16/16/1
f 16/16/1 42/42/1 55/55/1
f 55/55/1 42/42/1 44/44/1
f 55/55/1 44/44/1 47/47/1
f 40/40/1 11/11/1 38/38/1
f 11/11/1 40/40/1 46/46/1
f 11/11/1 46/46/1 51/51/1
f 11/11/1 51/51/1 9/9/1
f 9/9/1 51/51/1 50/50/1
f 9/9/1 50/50/1 12/12/1
f 31/31/1 22/22/1 24/24/1
f 22/22/1 31/31/1 37/37/1
f 22/22/1 37/37/1 39/39/1
f 37/57/1 31/58/1 30/59/14
f 37/37/1 30/30/14 45/45/1
f 45/45/1 30/30/14 33/33/1
f 45/45/1 33/33/1 49/49/1
f 49/49/1 33/33/1 26/26/1
f 49/49/1 26/26/1 52/52/1
f 52/52/1 26/26/1 28/28/1
f 56/56/1 22/22/1 39/39/1
f 48/48/15 22/22/1 56/56/16
f 48/48/15 35/35/1 22/22/1
f 41/41/1 35/35/1 48/48/15
f 41/41/1 18/18/1 35/35/1
f 43/43/1 18/18/1 41/41/1
f 43/43/1 19/19/1 18/18/1
f 19/19/1 43/43/1 53/53/1
