# Blender v2.92.0 OBJ File: 'kenney_OGConvert.blend'
# www.blender.org
o ground_riverBend
v 0.192569 -0.050000 -0.314427
v 0.174634 0.000000 -0.110500
v 0.252456 0.000000 -0.298380
v 0.120940 -0.050000 -0.141500
v -0.141500 -0.050000 0.120940
v -0.298380 -0.000000 0.252456
v -0.110500 -0.000000 0.174634
v -0.314427 -0.050000 0.192569
v 0.006996 -0.050000 0.006996
v 0.050836 -0.000000 0.050836
v -0.279000 0.000000 -0.500000
v -0.254915 -0.050000 -0.358500
v -0.217000 -0.050000 -0.500000
v -0.308608 0.000000 -0.389500
v -0.358500 -0.050000 -0.254915
v -0.389500 0.000000 -0.308608
v 0.217000 -0.050000 -0.500000
v 0.279000 0.000000 -0.500000
v -0.500000 -0.000000 0.279000
v -0.500000 -0.050000 0.217000
v -0.500000 -0.050000 -0.217000
v -0.500000 0.000000 -0.279000
v 0.349049 0.000000 -0.272498
v 0.379000 0.000000 -0.500000
v 0.261236 0.000000 -0.060500
v 0.121547 -0.000000 0.121547
v -0.060500 -0.000000 0.261236
v -0.272498 -0.000000 0.349049
v -0.500000 -0.000000 0.379000
v -0.379000 0.000000 -0.500000
v -0.417356 0.000000 -0.417355
v -0.500000 0.000000 -0.379000
v -0.500000 0.000000 -0.500000
v 0.500000 -0.000000 0.500000
v -0.500000 -0.000000 0.500000
v 0.500000 0.000000 -0.500000
vt 0.307816 0.186201
vt 0.325715 0.389721
vt 0.248048 0.202216
vt 0.379301 0.358782
vt 0.641218 0.620699
vt 0.797784 0.751952
vt 0.610279 0.674285
vt 0.813799 0.692184
vt 0.493018 0.506982
vt 0.449265 0.550735
vt 0.778443 0.000998
vt 0.754406 0.142216
vt 0.716567 0.000998
vt 0.807992 0.111278
vt 0.857784 0.245594
vt 0.888723 0.192008
vt 0.283433 0.000998
vt 0.221557 0.000998
vt 0.999002 0.778443
vt 0.999002 0.716567
vt 0.999002 0.283433
vt 0.999002 0.221557
vt 0.151648 0.228046
vt 0.121757 0.000998
vt 0.239285 0.439621
vt 0.378696 0.621304
vt 0.560379 0.760715
vt 0.771954 0.848352
vt 0.999002 0.878244
vt 0.878244 0.000998
vt 0.916522 0.083478
vt 0.999002 0.121757
vt 0.999002 0.000998
vt 0.000998 0.999002
vt 0.999002 0.999002
vt 0.000998 0.000998
vn -0.5830 0.7758 -0.2415
vn -0.2415 0.7758 -0.5830
vn -0.3841 0.7758 -0.5006
vn 0.6191 0.7676 0.1659
vn 0.4532 0.7676 0.4532
vn -0.6256 0.7758 -0.0824
vn -0.0824 0.7758 -0.6256
vn 0.1659 0.7676 0.6191
vn -0.5006 0.7758 -0.3841
vn 0.0000 1.0000 0.0000
s 1
f 1/1/1 2/2/1 3/3/1
f 2/2/1 1/1/1 4/4/1
f 5/5/2 6/6/2 7/7/2
f 6/6/2 5/5/2 8/8/2
f 9/9/3 7/7/3 10/10/3
f 7/7/3 9/9/3 5/5/3
f 11/11/4 12/12/4 13/13/4
f 12/12/4 11/11/4 14/14/4
f 14/14/5 15/15/5 12/12/5
f 15/15/5 14/14/5 16/16/5
f 17/17/6 3/3/6 18/18/6
f 3/3/6 17/17/6 1/1/6
f 8/8/7 19/19/7 6/6/7
f 19/19/7 8/8/7 20/20/7
f 16/16/8 21/21/8 15/15/8
f 21/21/8 16/16/8 22/22/8
f 4/4/9 10/10/9 2/2/9
f 10/10/9 4/4/9 9/9/9
f 18/18/10 23/23/10 24/24/10
f 23/23/10 18/18/10 25/25/10
f 25/25/10 18/18/10 3/3/10
f 25/25/10 3/3/10 26/26/10
f 26/26/10 3/3/10 2/2/10
f 26/26/10 2/2/10 10/10/10
f 26/26/10 10/10/10 27/27/10
f 27/27/10 10/10/10 7/7/10
f 27/27/10 7/7/10 28/28/10
f 28/28/10 7/7/10 6/6/10
f 28/28/10 6/6/10 29/29/10
f 29/29/10 6/6/10 19/19/10
f 30/30/10 14/14/10 11/11/10
f 14/14/10 30/30/10 16/16/10
f 16/16/10 30/30/10 31/31/10
f 16/16/10 31/31/10 22/22/10
f 22/22/10 31/31/10 32/32/10
f 33/33/10 31/31/10 30/30/10
f 31/31/10 33/33/10 32/32/10
f 34/34/10 27/27/10 35/35/10
f 27/27/10 34/34/10 26/26/10
f 26/26/10 34/34/10 25/25/10
f 25/25/10 34/34/10 36/36/10
f 25/25/10 36/36/10 23/23/10
f 23/23/10 36/36/10 24/24/10
f 35/35/10 27/27/10 28/28/10
f 35/35/10 28/28/10 29/29/10
f 13/13/10 1/1/10 17/17/10
f 1/1/10 13/13/10 4/4/10
f 4/4/10 13/13/10 9/9/10
f 9/9/10 13/13/10 5/5/10
f 5/5/10 13/13/10 8/8/10
f 8/8/10 13/13/10 12/12/10
f 8/8/10 12/12/10 15/15/10
f 8/8/10 15/15/10 20/20/10
f 20/20/10 15/15/10 21/21/10
