# Blender v2.92.0 OBJ File: 'kenney_OGConvert.blend'
# www.blender.org
o mushroom_tanTall
v -0.015405 0.250488 -0.012092
v -0.000648 0.196216 -0.074885
v -0.062406 0.196216 -0.039228
v -0.000648 0.250488 -0.020612
v -0.000648 0.250488 0.013468
v -0.062406 0.196216 0.032084
v -0.000648 0.196216 0.067740
v -0.015405 0.250488 0.004948
v 0.014109 0.250488 0.004948
v 0.014109 0.250488 -0.012092
v 0.061111 0.196216 0.032084
v 0.061111 0.196216 -0.039228
v -0.046966 0.176336 -0.030314
v -0.046966 0.176336 0.023170
v -0.000648 0.176336 -0.057057
v -0.018749 -0.000000 0.018749
v 0.018749 0.000000 -0.018749
v 0.018749 -0.000000 0.018749
v -0.018749 0.000000 -0.018749
v -0.000648 0.176336 0.049912
v 0.045671 0.176336 -0.030314
v 0.045671 0.176336 0.023170
v 0.011189 0.176336 0.011189
v -0.011189 0.176336 0.011189
v -0.011189 0.176336 -0.011189
v 0.011189 0.176336 -0.011189
vt 0.641626 0.595925
vt 0.479396 0.481718
vt 0.641626 0.350805
vt 0.602861 0.627207
vt 0.602861 0.295619
vt 0.323835 0.288904
vt 0.479396 0.150131
vt 0.565690 0.328779
vt 0.870655 0.764912
vt 0.920451 0.851163
vt 0.870655 0.822412
vt 0.970248 0.822412
vt 0.920451 0.736162
vt 0.970248 0.764912
vt 0.641626 0.921966
vt 0.424899 0.815844
vt 0.641626 0.711264
vt 0.589839 0.946956
vt 0.641626 0.264338
vt 0.641626 0.019217
vt 0.323835 0.620491
vt 0.565690 0.660366
vt 0.865037 0.649287
vt 0.813250 0.884979
vt 0.648310 0.753867
vt 0.865037 0.859990
vt 0.647244 0.682442
vt 0.809789 0.604007
vt 0.437697 0.432582
vt 0.559370 0.334396
vt 0.870655 0.730544
vt 0.997191 0.604007
vt 0.997191 0.730544
vt 0.870655 0.604007
vt 0.321026 0.205074
vt 0.437697 0.100994
vt 0.321026 0.536661
vt 0.559369 0.002809
vt 0.586378 0.665984
vt 0.423833 0.744419
vt 0.159109 0.002809
vt 0.002809 0.273528
vt 0.002809 0.093049
vt 0.119166 0.133477
vt 0.194680 0.133477
vt 0.315409 0.093049
vt 0.194680 0.208991
vt 0.119166 0.208991
vt 0.159109 0.363768
vt 0.315409 0.273528
vt 0.880423 0.598389
vt 0.779398 0.002809
vt 0.905935 0.002809
vt 0.804909 0.598389
vt 0.028320 0.369386
vt 0.129346 0.964966
vt 0.002809 0.964966
vt 0.103834 0.369386
vt 0.647244 0.598389
vt 0.748269 0.002809
vt 0.773780 0.598389
vt 0.672755 0.002809
vt 0.214383 0.369386
vt 0.315409 0.964966
vt 0.188872 0.964966
vt 0.289897 0.369386
vn -0.3780 0.6547 -0.6547
vn -0.3780 0.6547 0.6547
vn 0.0000 1.0000 -0.0000
vn 0.7559 0.6547 0.0000
vn 0.3780 0.6547 0.6547
vn 0.3780 0.6547 -0.6547
vn -0.7559 0.6547 0.0000
vn -0.7898 -0.6134 0.0000
vn -0.3949 -0.6134 -0.6840
vn -0.0000 -1.0000 -0.0000
vn -0.3949 -0.6134 0.6840
vn 0.3949 -0.6134 -0.6840
vn 0.3949 -0.6134 0.6840
vn 0.7898 -0.6134 -0.0000
vn -0.0000 0.0428 -0.9991
vn 0.0000 0.0428 0.9991
vn -0.9991 0.0428 0.0000
vn 0.9991 0.0428 -0.0000
s 1
f 1/1/1 2/2/1 3/3/1
f 2/2/1 1/1/1 4/4/1
f 5/5/2 6/6/2 7/7/2
f 6/6/2 5/5/2 8/8/2
f 4/9/3 9/10/3 10/11/3
f 9/10/3 4/9/3 5/12/3
f 5/12/3 4/9/3 1/13/3
f 5/12/3 1/13/3 8/14/3
f 10/15/4 11/16/4 12/17/4
f 11/16/4 10/15/4 9/18/4
f 9/19/5 7/7/5 11/20/5
f 7/7/5 9/19/5 5/5/5
f 4/4/6 12/21/6 2/2/6
f 12/21/6 4/4/6 10/22/6
f 6/23/7 1/24/7 3/25/7
f 1/24/7 6/23/7 8/26/7
f 13/27/8 6/23/8 3/25/8
f 6/23/8 13/27/8 14/28/8
f 3/3/9 15/29/9 13/30/9
f 15/29/9 3/3/9 2/2/9
f 16/31/10 17/32/10 18/33/10
f 17/32/10 16/31/10 19/34/10
f 7/7/11 14/35/11 20/36/11
f 14/35/11 7/7/11 6/6/11
f 2/2/12 21/37/12 15/29/12
f 21/37/12 2/2/12 12/21/12
f 11/20/13 20/36/13 22/38/13
f 20/36/13 11/20/13 7/7/13
f 11/16/14 21/39/14 12/17/14
f 21/39/14 11/16/14 22/40/14
f 20/41/10 21/42/10 22/43/10
f 21/42/10 20/41/10 23/44/10
f 23/44/10 20/41/10 24/45/10
f 24/45/10 20/41/10 14/46/10
f 24/45/10 14/46/10 25/47/10
f 21/42/10 26/48/10 15/49/10
f 26/48/10 21/42/10 23/44/10
f 15/49/10 26/48/10 25/47/10
f 15/49/10 25/47/10 13/50/10
f 13/50/10 25/47/10 14/46/10
f 25/51/15 17/52/15 19/53/15
f 17/52/15 25/51/15 26/54/15
f 23/55/16 16/56/16 18/57/16
f 16/56/16 23/55/16 24/58/16
f 16/59/17 25/60/17 19/61/17
f 25/60/17 16/59/17 24/62/17
f 26/63/18 18/64/18 17/65/18
f 18/64/18 26/63/18 23/66/18
