# Blender v2.92.0 OBJ File: 'kenney_OGConvert.blend'
# www.blender.org
o path_stoneEnd
v -0.341895 0.000000 -0.097876
v -0.420947 0.000000 -0.234800
v -0.341895 0.000000 -0.189159
v -0.420947 0.000000 -0.052235
v -0.500000 0.000000 -0.097876
v -0.500000 0.000000 -0.189159
v -0.195270 0.000000 -0.070600
v -0.195270 0.025000 -0.208906
v -0.195270 0.000000 -0.208906
v -0.195270 0.025000 -0.070600
v -0.500000 0.025000 -0.189159
v -0.420947 0.025000 -0.234800
v 0.044284 0.025000 -0.070600
v -0.075493 0.000000 -0.001446
v 0.044284 0.000000 -0.070600
v -0.075493 0.025000 -0.001446
v -0.075493 0.000000 -0.278059
v -0.075493 0.025000 -0.278059
v -0.420947 0.012500 -0.052235
v -0.500000 0.025000 -0.097876
v -0.460474 0.025000 -0.075056
v -0.341895 0.025000 -0.097876
v -0.381421 0.025000 -0.075056
v -0.341895 0.025000 -0.189159
v -0.106173 0.025000 0.208513
v -0.252421 -0.000000 0.292949
v -0.106173 -0.000000 0.208513
v -0.252421 0.050000 0.292949
v -0.179297 0.050000 0.250731
v -0.252421 0.050000 -0.044796
v -0.106173 -0.000000 0.039640
v -0.252421 0.000000 -0.044796
v -0.106173 0.050000 0.039640
v -0.398668 0.050000 0.039640
v -0.398668 -0.000000 0.039640
v 0.044284 0.000000 -0.208906
v 0.044284 0.025000 -0.208906
v -0.398668 -0.000000 0.208513
v -0.398668 0.050000 0.208513
v -0.106173 0.050000 0.124076
v 0.039181 0.025000 0.029796
v 0.118234 -0.000000 0.075437
v 0.039181 -0.000000 0.029796
v 0.118234 0.012500 0.075437
v 0.078707 0.025000 0.052616
v 0.039181 0.025000 0.212360
v -0.039872 -0.000000 0.166719
v 0.039181 -0.000000 0.212360
v -0.039872 0.025000 0.166719
v 0.118234 0.025000 0.121078
v 0.118234 -0.000000 0.166719
v 0.118234 0.025000 0.166719
v -0.039872 0.025000 0.075437
v -0.039872 -0.000000 0.075437
vt 0.669931 0.822490
vt 0.863779 0.822490
vt 0.766855 0.878449
vt 0.669931 0.710572
vt 0.766855 0.654613
vt 0.863779 0.710572
vt 0.334368 0.678349
vt 0.303717 0.508776
vt 0.334368 0.508776
vt 0.303717 0.678349
vt 0.884135 0.289569
vt 0.914787 0.233609
vt 0.914787 0.289569
vt 0.884135 0.233609
vt 0.734841 0.403182
vt 0.765493 0.233609
vt 0.765493 0.403182
vt 0.734841 0.233609
vt 0.334368 0.423989
vt 0.303717 0.423989
vt 0.787490 0.345528
vt 0.772165 0.401487
vt 0.772165 0.345528
vt 0.802816 0.401487
vt 0.802816 0.373507
vt 0.914787 0.401487
vt 0.884135 0.401487
vt 0.802816 0.233609
vt 0.772165 0.233609
vt 0.802816 0.289569
vt 0.877463 0.401487
vt 0.846811 0.345528
vt 0.877463 0.345528
vt 0.846811 0.401487
vt 0.877463 0.233609
vt 0.846811 0.233609
vt 0.600722 0.976616
vt 0.631374 0.769567
vt 0.631374 0.976616
vt 0.570071 0.769567
vt 0.570071 0.873091
vt 0.303717 0.763135
vt 0.334368 0.763135
vt 0.996664 0.003336
vt 0.935361 0.210384
vt 0.935361 0.003336
vt 0.996664 0.210384
vt 0.870451 0.527629
vt 0.931755 0.424105
vt 0.931754 0.527629
vt 0.870451 0.424105
vt 0.969078 0.678464
vt 0.938426 0.593678
vt 0.969078 0.593678
vt 0.938426 0.678464
vt 0.969078 0.424105
vt 0.938426 0.424105
vt 0.931754 0.734677
vt 0.870451 0.734677
vt 0.996664 0.262147
vt 0.935361 0.313909
vt 0.966012 0.313909
vt 0.870451 0.838202
vt 0.931754 0.838202
vt 0.840140 0.233609
vt 0.809488 0.345528
vt 0.809488 0.233609
vt 0.824814 0.345528
vt 0.840140 0.289569
vt 0.938426 0.908972
vt 0.969078 0.853013
vt 0.969078 0.908972
vt 0.938426 0.853013
vt 0.840140 0.373507
vt 0.809488 0.401487
vt 0.840140 0.401487
vt 0.938426 0.741095
vt 0.969078 0.741095
vt 0.669931 0.591982
vt 0.863779 0.591982
vt 0.766855 0.647941
vt 0.863779 0.480064
vt 0.669932 0.480064
vt 0.766855 0.424105
vt 0.969078 0.685136
vt 0.938426 0.685136
vt 0.003336 0.881725
vt 0.033988 0.769807
vt 0.033988 0.881725
vt 0.003336 0.769807
vt 0.369551 0.825468
vt 0.466475 0.993169
vt 0.369551 0.937268
vt 0.514937 0.965219
vt 0.563399 0.881368
vt 0.466475 0.769567
vt 0.563399 0.825467
vt 0.369551 0.508802
vt 0.516405 0.762895
vt 0.369551 0.678198
vt 0.663260 0.678198
vt 0.516405 0.424105
vt 0.663260 0.508802
vt 0.563399 0.937970
vt 0.184318 0.417317
vt 0.362274 0.209441
vt 0.362879 0.312937
vt 0.271783 0.054641
vt 0.181897 0.003336
vt 0.004547 0.314707
vt 0.003336 0.107717
vt 0.362879 0.105238
vt 0.928689 0.115137
vt 0.880227 0.031286
vt 0.928689 0.058535
vt 0.734841 0.059236
vt 0.831765 0.003336
vt 0.928689 0.171037
vt 0.734841 0.171037
vt 0.831765 0.226938
vt 0.369551 0.106860
vt 0.548860 0.417433
vt 0.369551 0.313909
vt 0.548860 0.003336
vt 0.728169 0.106860
vt 0.728169 0.313909
vt 0.150190 0.763135
vt 0.297045 0.508776
vt 0.297045 0.678349
vt 0.003336 0.678349
vt 0.003336 0.508776
vt 0.150190 0.423989
vn -0.0000 -1.0000 -0.0000
vn -1.0000 0.0000 0.0000
vn -0.5000 0.0000 -0.8660
vn 0.5000 -0.0000 0.8660
vn -0.5000 -0.0000 0.8660
vn 1.0000 0.0000 0.0000
vn 0.5000 0.0000 -0.8660
vn 0.0000 1.0000 0.0000
vn 0.0000 0.8770 0.4804
vn 0.4413 0.8605 0.2548
vn 0.4160 0.8770 -0.2402
s 1
f 1/1/1 2/2/1 3/3/1
f 2/2/1 1/1/1 4/4/1
f 2/2/1 4/4/1 5/5/1
f 2/2/1 5/5/1 6/6/1
f 7/7/2 8/8/2 9/9/2
f 8/8/2 7/7/2 10/10/2
f 11/11/3 2/12/3 6/13/3
f 2/12/3 11/11/3 12/14/3
f 13/15/4 14/16/4 15/17/4
f 14/16/4 13/15/4 16/18/4
f 8/8/3 17/19/3 9/9/3
f 17/19/3 8/8/3 18/20/3
f 19/21/5 5/22/5 4/23/5
f 5/22/5 19/21/5 20/24/5
f 20/24/5 19/21/5 21/25/5
f 5/26/2 11/11/2 6/13/2
f 11/11/2 5/26/2 20/27/2
f 22/28/4 4/23/4 1/29/4
f 4/23/4 22/28/4 19/21/4
f 19/21/4 22/28/4 23/30/4
f 22/31/6 3/32/6 24/33/6
f 3/32/6 22/31/6 1/34/6
f 12/35/7 3/32/7 2/36/7
f 3/32/7 12/35/7 24/33/7
f 25/37/4 26/38/4 27/39/4
f 26/38/4 25/37/4 28/40/4
f 28/40/4 25/37/4 29/41/4
f 16/42/5 7/7/5 14/43/5
f 7/7/5 16/42/5 10/10/5
f 30/44/7 31/45/7 32/46/7
f 31/45/7 30/44/7 33/47/7
f 34/48/3 32/49/3 35/50/3
f 32/49/3 34/48/3 30/51/3
f 13/52/6 36/53/6 37/54/6
f 36/53/6 13/52/6 15/55/6
f 18/56/7 36/53/7 17/57/7
f 36/53/7 18/56/7 37/54/7
f 38/58/2 34/48/2 35/50/2
f 34/48/2 38/58/2 39/59/2
f 40/60/6 31/45/6 33/47/6
f 31/45/6 40/60/6 27/61/6
f 27/61/6 40/60/6 25/62/6
f 28/63/5 38/58/5 26/64/5
f 38/58/5 28/63/5 39/59/5
f 41/65/7 42/66/7 43/67/7
f 42/66/7 41/65/7 44/68/7
f 44/68/7 41/65/7 45/69/7
f 46/70/5 47/71/5 48/72/5
f 47/71/5 46/70/5 49/73/5
f 50/74/6 42/66/6 44/68/6
f 42/66/6 50/74/6 51/75/6
f 51/75/6 50/74/6 52/76/6
f 47/71/2 53/77/2 54/78/2
f 53/77/2 47/71/2 49/73/2
f 48/79/1 42/80/1 51/81/1
f 42/80/1 48/79/1 43/82/1
f 43/82/1 48/79/1 47/83/1
f 43/82/1 47/83/1 54/84/1
f 53/77/3 43/85/3 54/78/3
f 43/85/3 53/77/3 41/86/3
f 52/87/4 48/88/4 51/89/4
f 48/88/4 52/87/4 46/90/4
f 12/91/8 22/92/8 24/93/8
f 22/92/8 12/91/8 23/94/8
f 23/94/8 12/91/8 21/95/8
f 21/95/8 12/91/8 11/96/8
f 21/95/8 11/96/8 20/97/8
f 18/98/8 13/99/8 37/100/8
f 13/99/8 18/98/8 16/101/8
f 16/101/8 18/98/8 8/102/8
f 16/101/8 8/102/8 10/103/8
f 21/95/9 19/104/9 23/94/9
f 30/105/8 40/106/8 33/107/8
f 40/106/8 30/105/8 29/108/8
f 29/108/8 30/105/8 28/109/8
f 28/109/8 30/105/8 34/110/8
f 28/109/8 34/110/8 39/111/8
f 29/108/10 25/112/10 40/106/10
f 45/113/11 50/114/11 44/115/11
f 50/114/8 46/116/8 52/117/8
f 46/116/8 50/114/8 45/113/8
f 46/116/8 45/113/8 41/118/8
f 46/116/8 41/118/8 49/119/8
f 49/119/8 41/118/8 53/120/8
f 27/121/1 32/122/1 31/123/1
f 32/122/1 27/121/1 26/124/1
f 32/122/1 26/124/1 38/125/1
f 32/122/1 38/125/1 35/126/1
f 15/127/1 17/128/1 36/129/1
f 17/128/1 15/127/1 14/130/1
f 17/128/1 14/130/1 7/131/1
f 17/128/1 7/131/1 9/132/1
