# Blender v2.92.0 OBJ File: 'OGConvert.blend'
# www.blender.org
o path_stoneCorner
v 2.991730 -0.000000 2.431665
v 3.763285 -0.000000 1.095293
v 3.763285 -0.000000 1.986207
v 2.991729 -0.000000 0.649835
v 2.220175 -0.000000 1.986207
v 2.220175 -0.000000 1.095293
v 1.266122 -0.000000 1.058702
v 0.660496 0.000000 -1.201528
v 1.615782 0.000000 -0.246243
v -0.038821 -0.000000 1.408360
v -0.644448 0.000000 -0.851870
v -0.994106 -0.000000 0.453075
v 1.075175 0.000000 -2.334801
v 1.707598 0.000000 -3.430188
v 1.707598 0.000000 -2.699930
v 1.075175 0.000000 -3.795317
v 0.442753 0.000000 -2.699930
v 0.442753 0.000000 -3.430188
v 2.608799 0.000000 -0.330541
v 3.480774 0.000000 -1.840847
v 3.480774 0.000000 -0.833976
v 2.608799 0.000000 -2.344283
v 1.736823 0.000000 -0.833976
v 1.736823 0.000000 -1.840847
v -0.235917 0.000000 -1.765231
v -1.024555 0.000000 -3.511873
v -0.126024 0.000000 -2.866212
v -1.244340 0.000000 -1.309910
v -2.032979 0.000000 -3.056552
v -2.142872 0.000000 -1.955570
v 2.220175 0.100000 1.095293
v 2.220175 0.200000 1.540750
v 2.220175 0.200000 1.986207
v 2.991729 0.200000 0.649835
v 2.605953 0.200000 0.872564
v 2.991730 0.200000 2.431665
v 3.763285 0.200000 1.986207
v 3.763285 0.200000 1.095293
v 0.660496 0.400000 -1.201528
v 1.615782 0.400000 -0.246243
v 1.736823 0.200000 -1.840847
v 2.608799 0.200000 -2.344283
v 3.480774 0.200000 -1.840847
v -0.235917 0.200000 -1.765231
v -1.244340 0.200000 -1.309910
v -0.038821 0.400000 1.408360
v -0.994106 0.400000 0.453075
v 1.266122 0.200000 1.058702
v 0.613651 0.400000 1.233530
v -0.644448 0.400000 -0.851870
v 0.442753 0.200000 -3.430188
v 1.075175 0.200000 -3.795317
v 0.442753 0.200000 -2.699930
v 1.075175 0.200000 -2.334801
v -2.142872 0.200000 -1.955570
v -0.126024 0.200000 -2.866212
v 2.608799 0.200000 -0.330541
v 1.736823 0.200000 -0.833976
v 1.707598 0.200000 -2.699930
v 1.707598 0.200000 -3.430188
v 3.480774 0.100000 -0.833976
v 3.044786 0.200000 -0.582259
v 3.480774 0.200000 -1.337412
v -2.032979 0.200000 -3.056552
v -1.024555 0.200000 -3.511873
v 1.440952 0.400000 0.406229
vt 0.581649 0.818621
vt 0.785631 0.818621
vt 0.683640 0.877505
vt 0.785631 0.700852
vt 0.581649 0.700852
vt 0.683640 0.641968
vt 0.630185 0.093018
vt 0.320869 0.093018
vt 0.475527 0.003726
vt 0.630185 0.271602
vt 0.320869 0.271602
vt 0.475527 0.360894
vt 0.087325 0.668301
vt 0.003726 0.813099
vt 0.003726 0.716567
vt 0.087325 0.861365
vt 0.170924 0.716567
vt 0.170924 0.813099
vt 0.752902 0.003726
vt 0.637637 0.203371
vt 0.637637 0.070274
vt 0.752902 0.269920
vt 0.868167 0.070274
vt 0.868167 0.203371
vt 0.003726 0.441459
vt 0.130391 0.660849
vt 0.003726 0.587719
vt 0.130391 0.368328
vt 0.257056 0.587719
vt 0.257056 0.441459
vt 0.994144 0.708043
vt 0.980925 0.641968
vt 0.994144 0.641968
vt 0.967706 0.675005
vt 0.967706 0.708043
vt 0.983055 0.003726
vt 0.969836 0.121242
vt 0.969836 0.003726
vt 0.996274 0.121242
vt 0.996274 0.062484
vt 0.967706 0.825506
vt 0.994144 0.825506
vt 0.962384 0.550191
vt 0.935947 0.617216
vt 0.935947 0.550191
vt 0.962384 0.617216
vt 0.935947 0.432817
vt 0.962384 0.432817
vt 0.178376 0.959533
vt 0.231251 0.844001
vt 0.231251 0.959533
vt 0.178376 0.844001
vt 0.962384 0.218605
vt 0.935947 0.351416
vt 0.935947 0.218605
vt 0.962384 0.351416
vt 0.935947 0.425365
vt 0.962384 0.425365
vt 0.264508 0.822130
vt 0.290946 0.745555
vt 0.290946 0.822130
vt 0.264508 0.745555
vt 0.928495 0.420933
vt 0.875619 0.596312
vt 0.875619 0.420933
vt 0.928495 0.596312
vt 0.902057 0.304075
vt 0.875619 0.304075
vt 0.928495 0.362504
vt 0.928495 0.121469
vt 0.875619 0.296623
vt 0.875619 0.121469
vt 0.928495 0.296623
vt 0.853410 0.842481
vt 0.826973 0.938806
vt 0.826973 0.842481
vt 0.853410 0.938806
vt 0.819521 0.896641
vt 0.793083 0.842481
vt 0.819521 0.842481
vt 0.793083 0.896641
vt 0.969836 0.186675
vt 0.996274 0.186675
vt 0.793083 0.992923
vt 0.819521 0.992923
vt 0.290946 0.599349
vt 0.264508 0.599349
vt 0.846218 0.589936
vt 0.819780 0.443699
vt 0.846218 0.443699
vt 0.819780 0.589936
vt 0.935947 0.211153
vt 0.962384 0.078401
vt 0.962384 0.211153
vt 0.935947 0.078401
vt 0.290946 0.925791
vt 0.264508 0.980729
vt 0.264508 0.925791
vt 0.290946 0.980729
vt 0.826973 0.992440
vt 0.853410 0.992440
vt 0.264508 0.829582
vt 0.290946 0.829582
vt 0.545518 0.800922
vt 0.532299 0.876671
vt 0.532299 0.800922
vt 0.558737 0.876671
vt 0.558737 0.838796
vt 0.558737 0.734596
vt 0.532299 0.668271
vt 0.558737 0.668271
vt 0.264508 0.368328
vt 0.290946 0.445722
vt 0.264508 0.445722
vt 0.290946 0.368328
vt 0.935947 0.003726
vt 0.962384 0.003726
vt 0.264508 0.591898
vt 0.290946 0.591898
vt 0.846218 0.368345
vt 0.819780 0.368345
vt 0.178376 0.756151
vt 0.231251 0.668301
vt 0.204814 0.668301
vt 0.875619 0.003726
vt 0.928495 0.003726
vt 0.320869 0.844674
vt 0.524847 0.844655
vt 0.422858 0.903540
vt 0.320869 0.726923
vt 0.524847 0.726905
vt 0.371863 0.697481
vt 0.473853 0.697471
vt 0.422926 0.668271
vt 0.754492 0.401554
vt 0.812328 0.434588
vt 0.812245 0.501305
vt 0.812328 0.567848
vt 0.697156 0.634516
vt 0.696822 0.368345
vt 0.581649 0.435013
vt 0.581817 0.568099
vt 0.574198 0.587693
vt 0.447533 0.368345
vt 0.574198 0.441456
vt 0.320869 0.441471
vt 0.447533 0.660819
vt 0.320869 0.587708
vt 0.876669 0.835030
vt 0.960255 0.690227
vt 0.960255 0.786758
vt 0.793083 0.786770
vt 0.876669 0.641968
vt 0.793083 0.690240
vt 0.235581 0.048202
vt 0.313417 0.092427
vt 0.313210 0.181967
vt 0.158984 0.360877
vt 0.313417 0.271254
vt 0.004139 0.271924
vt 0.158158 0.003726
vt 0.003726 0.093348
vn -0.0000 -1.0000 -0.0000
vn -1.0000 0.0000 0.0000
vn -0.5000 0.0000 -0.8660
vn -0.5000 0.0000 0.8660
vn 0.5000 0.0000 0.8660
vn 1.0000 0.0000 0.0000
vn 0.7071 -0.0000 -0.7071
vn 0.5000 0.0000 -0.8660
vn 0.4115 0.0000 0.9114
vn -0.7071 0.0000 0.7071
vn 0.2588 0.0000 0.9659
vn -0.2588 0.0000 -0.9659
vn -0.5835 0.0000 0.8121
vn 0.9951 0.0000 0.0993
vn -0.9951 0.0000 -0.0993
vn -0.4115 0.0000 -0.9114
vn 0.5835 0.0000 -0.8121
vn 0.9659 -0.0000 0.2588
vn -0.9659 0.0000 -0.2588
vn -0.0000 1.0000 0.0000
vn -0.3547 0.9123 -0.2048
vn 0.3197 0.9293 0.1846
vn 0.3603 0.8605 0.3603
s 1
f 1/1/1 2/2/1 3/3/1
f 2/2/1 1/1/1 4/4/1
f 4/4/1 1/1/1 5/5/1
f 4/4/1 5/5/1 6/6/1
f 7/7/1 8/8/1 9/9/1
f 8/8/1 7/7/1 10/10/1
f 8/8/1 10/10/1 11/11/1
f 11/11/1 10/10/1 12/12/1
f 13/13/1 14/14/1 15/15/1
f 14/14/1 13/13/1 16/16/1
f 16/16/1 13/13/1 17/17/1
f 16/16/1 17/17/1 18/18/1
f 19/19/1 20/20/1 21/21/1
f 20/20/1 19/19/1 22/22/1
f 22/22/1 19/19/1 23/23/1
f 22/22/1 23/23/1 24/24/1
f 25/25/1 26/26/1 27/27/1
f 26/26/1 25/25/1 28/28/1
f 26/26/1 28/28/1 29/29/1
f 29/29/1 28/28/1 30/30/1
f 5/31/2 31/32/2 6/33/2
f 31/32/2 5/31/2 32/34/2
f 32/34/2 5/31/2 33/35/2
f 31/36/3 4/37/3 6/38/3
f 4/37/3 31/36/3 34/39/3
f 34/39/3 31/36/3 35/40/3
f 36/41/4 5/31/4 1/42/4
f 5/31/4 36/41/4 33/35/4
f 37/43/5 1/44/5 3/45/5
f 1/44/5 37/43/5 36/46/5
f 37/43/6 2/47/6 38/48/6
f 2/47/6 37/43/6 3/45/6
f 39/49/7 9/50/7 8/51/7
f 9/50/7 39/49/7 40/52/7
f 41/53/3 22/54/3 24/55/3
f 22/54/3 41/53/3 42/56/3
f 42/56/8 20/57/8 22/54/8
f 20/57/8 42/56/8 43/58/8
f 44/59/9 28/60/9 25/61/9
f 28/60/9 44/59/9 45/62/9
f 46/63/10 12/64/10 10/65/10
f 12/64/10 46/63/10 47/66/10
f 48/67/11 10/65/11 7/68/11
f 10/65/11 48/67/11 46/63/11
f 46/63/11 48/67/11 49/69/11
f 50/70/12 8/71/12 11/72/12
f 8/71/12 50/70/12 39/73/12
f 51/74/3 16/75/3 18/76/3
f 16/75/3 51/74/3 52/77/3
f 17/78/2 51/79/2 18/80/2
f 51/79/2 17/78/2 53/81/2
f 34/39/8 2/82/8 4/37/8
f 2/82/8 34/39/8 38/83/8
f 54/84/4 17/78/4 13/85/4
f 17/78/4 54/84/4 53/81/4
f 45/62/13 30/86/13 28/60/13
f 30/86/13 45/62/13 55/87/13
f 44/88/14 27/89/14 56/90/14
f 27/89/14 44/88/14 25/91/14
f 57/92/4 23/93/4 19/94/4
f 23/93/4 57/92/4 58/95/4
f 59/96/5 13/97/5 15/98/5
f 13/97/5 59/96/5 54/99/5
f 52/77/8 14/100/8 16/75/8
f 14/100/8 52/77/8 60/101/8
f 59/96/6 14/102/6 60/103/6
f 14/102/6 59/96/6 15/98/6
f 61/104/5 19/105/5 21/106/5
f 19/105/5 61/104/5 57/107/5
f 57/107/5 61/104/5 62/108/5
f 63/109/6 20/110/6 43/111/6
f 20/110/6 63/109/6 21/106/6
f 21/106/6 63/109/6 61/104/6
f 30/112/15 64/113/15 29/114/15
f 64/113/15 30/112/15 55/115/15
f 23/93/2 41/116/2 24/117/2
f 41/116/2 23/93/2 58/95/2
f 64/113/16 26/118/16 29/114/16
f 26/118/16 64/113/16 65/119/16
f 65/120/17 27/89/17 26/121/17
f 27/89/17 65/120/17 56/90/17
f 66/122/18 9/50/18 40/52/18
f 9/50/18 66/122/18 7/123/18
f 7/123/18 66/122/18 48/124/18
f 12/125/19 50/70/19 11/72/19
f 50/70/19 12/125/19 47/126/19
f 38/127/20 36/128/20 37/129/20
f 36/128/20 38/127/20 34/130/20
f 36/128/20 34/130/20 33/131/20
f 33/131/20 34/130/20 35/132/20
f 33/131/20 35/132/20 32/133/20
f 31/134/21 32/133/21 35/132/21
f 62/135/22 61/136/22 63/137/22
f 43/138/20 62/135/20 63/137/20
f 62/135/20 43/138/20 42/139/20
f 62/135/20 42/139/20 57/140/20
f 57/140/20 42/139/20 58/141/20
f 58/141/20 42/139/20 41/142/20
f 65/143/20 44/144/20 56/145/20
f 44/144/20 65/143/20 45/146/20
f 45/146/20 65/143/20 64/147/20
f 45/146/20 64/147/20 55/148/20
f 60/149/20 54/150/20 59/151/20
f 54/150/20 60/149/20 52/152/20
f 54/150/20 52/152/20 53/153/20
f 53/153/20 52/152/20 51/154/20
f 49/155/23 48/156/23 66/157/23
f 39/158/20 66/157/20 40/159/20
f 66/157/20 39/158/20 49/155/20
f 49/155/20 39/158/20 50/160/20
f 49/155/20 50/160/20 46/161/20
f 46/161/20 50/160/20 47/162/20
