# Blender v2.92.0 OBJ File: 'kenney_OGConvert.blend'
# www.blender.org
o plant_flatTall
v 0.000000 0.179644 0.000000
v -0.000000 0.000000 -0.065917
v -0.065917 -0.000000 0.000000
v -0.135828 0.090863 0.000000
v -0.078172 0.074188 0.000000
v -0.100869 0.225997 0.000000
v 0.078172 0.074188 -0.000000
v 0.065917 -0.000000 -0.000000
v 0.100869 0.225997 -0.000000
v 0.135828 0.090863 -0.000000
v -0.000000 0.114308 -0.135828
v -0.000000 0.093331 -0.078172
v 0.000000 0.225997 0.000000
v -0.000000 0.284309 -0.100869
v 0.000000 0.284309 0.100869
v 0.000000 -0.000000 0.065917
v 0.000000 0.093331 0.078172
v 0.000000 0.114308 0.135828
vt 0.987294 0.944431
vt 0.787954 0.572599
vt 0.987294 0.522536
vt 0.603635 0.239700
vt 0.668778 0.051630
vt 0.687644 0.205186
vt 0.868118 0.423461
vt 0.730075 0.519403
vt 0.603635 0.893268
vt 0.634851 0.522536
vt 0.685336 0.678822
vt 0.784821 0.998433
vt 0.784821 0.718378
vt 0.301035 0.232328
vt 0.301035 0.628401
vt 0.155702 0.628401
vt 0.001566 0.376379
vt 0.128683 0.422629
vt 0.301035 0.130132
vt 0.078642 0.001566
vt 0.523427 0.001566
vt 0.446367 0.628401
vt 0.473386 0.422629
vt 0.600503 0.376379
vt 0.868118 0.001566
vn -0.6844 0.2511 -0.6844
vn 0.0000 -0.0000 1.0000
vn 0.6844 0.2511 -0.6844
vn 1.0000 0.0000 -0.0000
vn 0.6844 0.2511 0.6844
vn -0.6844 0.2511 0.6844
s 1
f 1/1/1 2/2/1 3/3/1
f 4/4/2 3/5/2 5/6/2
f 5/6/2 3/5/2 1/7/2
f 1/7/2 6/8/2 5/6/2
f 1/9/2 8/10/2 7/11/2
f 7/11/2 9/12/2 1/9/2
f 10/13/2 7/11/2 8/10/2
f 1/14/3 8/15/3 2/16/3
f 2/16/4 11/17/4 12/18/4
f 12/18/4 13/19/4 2/16/4
f 13/19/4 12/18/4 14/20/4
f 2/16/4 13/19/4 1/14/4
f 1/14/4 13/19/4 15/21/4
f 1/14/4 15/21/4 16/22/4
f 16/22/4 15/21/4 17/23/4
f 18/24/4 16/22/4 17/23/4
f 16/22/5 8/15/5 1/14/5
f 1/7/6 3/5/6 16/25/6
