# Blender v2.92.0 OBJ File: 'kenney_OGConvert.blend'
# www.blender.org
o rock_smallFlatA
v -0.136264 -0.000000 0.214789
v -0.218148 0.064944 -0.041777
v -0.247895 0.000000 -0.047474
v -0.119912 0.064944 0.189014
v 0.115041 0.064944 0.189014
v 0.247895 -0.000000 0.020009
v 0.218148 0.064944 0.017608
v 0.130728 -0.000000 0.214789
v -0.097306 0.064944 -0.129332
v 0.086299 0.000000 -0.214789
v -0.110575 0.000000 -0.146968
v 0.075943 0.064944 -0.189014
vt 0.533437 0.622997
vt 0.690919 0.927036
vt 0.611628 0.966497
vt 0.622111 0.624756
vt 0.838307 0.925833
vt 0.694409 0.819170
vt 0.782424 0.811623
vt 0.757913 0.948954
vt 0.926431 0.684809
vt 0.852597 0.934531
vt 0.841797 0.679902
vt 0.935935 0.908882
vt 0.690919 0.492454
vt 0.611628 0.472654
vt 0.529947 0.229274
vt 0.019916 0.071861
vt 0.365154 0.001745
vt 0.400708 0.532903
vt 0.001745 0.328579
vt 0.048422 0.532903
vt 0.838307 0.506689
vt 0.757913 0.472654
vt 0.935935 0.502431
vt 0.852597 0.472654
vt 0.982265 0.063447
vt 0.533437 0.201970
vt 0.678455 0.001745
vt 0.647167 0.469164
vt 0.998255 0.289358
vt 0.957179 0.469164
vn -0.8581 0.3610 0.3652
vn 0.7924 0.3806 0.4767
vn -0.3099 0.3076 -0.8996
vn 0.0000 0.3689 0.9295
vn -0.0000 -1.0000 -0.0000
vn 0.7760 0.3357 -0.5340
vn -0.5555 0.3217 -0.7667
vn 0.0000 1.0000 0.0000
s 1
f 1/1/1 2/2/1 3/3/1
f 2/2/1 1/1/1 4/4/1
f 5/5/2 6/6/2 7/7/2
f 6/6/2 5/5/2 8/8/2
f 9/9/3 10/10/3 11/11/3
f 10/10/3 9/9/3 12/12/3
f 5/13/4 1/1/4 8/14/4
f 1/1/4 5/13/4 4/4/4
f 8/15/5 10/16/5 6/17/5
f 10/16/5 8/15/5 1/18/5
f 10/16/5 1/18/5 11/19/5
f 11/19/5 1/18/5 3/20/5
f 12/21/6 6/6/6 10/22/6
f 6/6/6 12/21/6 7/7/6
f 2/23/7 11/11/7 3/24/7
f 11/11/7 2/23/7 9/9/7
f 12/25/8 5/26/8 7/27/8
f 5/26/8 12/25/8 4/28/8
f 4/28/8 12/25/8 9/29/8
f 4/28/8 9/29/8 2/30/8
