# Blender v2.92.0 OBJ File: 'kenney_OGConvert.blend'
# www.blender.org
o rock_largeC
v 0.202165 0.104632 0.507831
v -0.286011 -0.000000 0.293095
v 0.161732 -0.000000 0.406265
v -0.357514 0.104632 0.366369
v 0.274592 -0.000000 0.278735
v 0.343240 0.104632 0.348419
v -0.425764 -0.000000 0.050487
v -0.532205 0.104632 0.063109
v -0.360661 0.000000 -0.272058
v -0.450826 0.104632 -0.340072
v 0.246124 0.104632 0.084282
v 0.196899 -0.000000 0.067426
v 0.425764 0.000000 -0.230384
v 0.246124 0.104632 -0.507831
v 0.532205 0.104632 -0.287980
v 0.196899 0.000000 -0.406265
v 0.246124 0.173184 0.084282
v 0.532205 0.173184 -0.287980
v 0.216241 0.321112 0.219504
v 0.202165 0.173184 0.507831
v 0.343240 0.173184 0.348419
v 0.127364 0.321112 0.319934
v -0.357514 0.173184 0.366369
v 0.155058 0.321112 0.053098
v -0.532205 0.173184 0.063109
v -0.450826 0.173184 -0.340072
v 0.003445 0.104632 -0.505549
v 0.003445 0.173184 -0.505549
v 0.246124 0.173184 -0.507831
v 0.002756 0.000000 -0.404440
v 0.433747 0.247148 -0.234704
v 0.245173 0.321112 -0.250681
v 0.155058 0.321112 -0.319934
v 0.002170 0.321112 -0.318496
v -0.335289 0.321112 0.039759
v -0.284021 0.321112 -0.214245
v -0.225234 0.321112 0.230812
v 0.245173 0.321112 -0.064165
vt 0.407941 0.482653
vt 0.153801 0.439857
vt 0.376971 0.439857
vt 0.128979 0.482653
vt 0.414745 0.366744
vt 0.455158 0.391262
vt 0.670400 0.804159
vt 0.720962 0.655427
vt 0.720962 0.790724
vt 0.670400 0.635038
vt 0.051904 0.183921
vt 0.011224 0.361261
vt 0.001607 0.162733
vt 0.059598 0.342744
vt 0.580012 0.659491
vt 0.634059 0.592590
vt 0.628027 0.649392
vt 0.587552 0.588489
vt 0.425281 0.110319
vt 0.308265 0.001607
vt 0.468329 0.070731
vt 0.297230 0.055020
vt 0.547028 0.660635
vt 0.587552 0.886210
vt 0.554568 0.887354
vt 0.562130 0.346603
vt 0.531718 0.482629
vt 0.484575 0.391242
vt 0.591831 0.404176
vt 0.637273 0.998393
vt 0.670400 0.998393
vt 0.637273 0.804159
vt 0.554568 0.589633
vt 0.476293 0.602919
vt 0.471542 0.647650
vt 0.637273 0.635038
vt 0.550542 0.486986
vt 0.583526 0.485842
vt 0.724175 0.948767
vt 0.757302 0.718502
vt 0.757302 0.948767
vt 0.724175 0.718502
vt 0.634059 0.830767
vt 0.724175 0.602916
vt 0.757302 0.485842
vt 0.757302 0.602916
vt 0.724175 0.485842
vt 0.353323 0.276945
vt 0.206489 0.078865
vt 0.631508 0.001607
vt 0.512731 0.107703
vt 0.471542 0.070727
vt 0.604309 0.122905
vt 0.654698 0.101132
vt 0.637273 0.485842
vt 0.670400 0.485842
vt 0.807864 0.727547
vt 0.807864 0.911759
vt 0.744833 0.031412
vt 0.726093 0.119909
vt 0.937861 0.162725
vt 0.841597 0.327703
vt 0.847701 0.202637
vt 0.928172 0.361243
vt 0.810462 0.482629
vt 0.767439 0.404176
vt 0.807864 0.635077
vt 0.515430 0.838919
vt 0.473917 0.719067
vt 0.582205 0.210284
vt 0.610490 0.275890
vn -0.1870 -0.6461 0.7400
vn 0.5476 -0.6821 0.4846
vn -0.6308 -0.6856 0.3634
vn -0.7024 -0.6975 -0.1418
vn 0.8756 -0.3601 -0.3219
vn 0.4189 -0.7262 -0.5451
vn 0.7929 0.0000 0.6093
vn 0.4746 0.7735 0.4200
vn -0.2450 -0.0000 0.9695
vn 0.9386 0.0000 -0.3451
vn 0.8378 0.4508 -0.3080
vn -0.8665 -0.0000 0.4992
vn 0.7489 -0.0000 0.6627
vn -0.3423 0.0000 -0.9396
vn 0.7173 -0.4262 0.5512
vn 0.6093 0.0000 -0.7929
vn -0.0000 -1.0000 -0.0000
vn 0.3572 0.8102 -0.4648
vn -0.9802 0.0000 -0.1979
vn -0.2537 -0.6713 -0.6964
vn -0.0058 0.7843 -0.6203
vn -0.6053 0.7865 -0.1222
vn -0.1642 0.7422 0.6497
vn -0.0068 -0.6949 -0.7191
vn 0.6749 0.5248 0.5187
vn -0.2207 0.7643 -0.6059
vn 0.3651 0.9310 -0.0000
vn -0.5460 0.7765 0.3145
vn -0.0094 0.0000 -1.0000
vn 0.0000 1.0000 -0.0000
s 1
f 1/1/1 2/2/1 3/3/1
f 2/2/1 1/1/1 4/4/1
f 1/1/2 5/5/2 6/6/2
f 5/5/2 1/1/2 3/3/2
f 4/7/3 7/8/3 2/9/3
f 7/8/3 4/7/3 8/10/3
f 9/11/4 8/12/4 10/13/4
f 8/12/4 9/11/4 7/14/4
f 11/15/5 5/16/5 12/17/5
f 5/16/5 11/15/5 6/18/5
f 13/19/6 14/20/6 15/21/6
f 14/20/6 13/19/6 16/22/6
f 17/23/7 15/24/7 18/25/7
f 15/24/7 17/23/7 11/15/7
f 19/26/8 20/27/8 21/28/8
f 20/27/8 19/26/8 22/29/8
f 20/30/9 4/7/9 1/31/9
f 4/7/9 20/30/9 23/32/9
f 21/33/10 11/15/10 17/23/10
f 11/15/10 21/33/10 6/18/10
f 19/34/11 17/23/11 24/35/11
f 17/23/11 19/34/11 21/33/11
f 4/7/12 25/36/12 8/10/12
f 25/36/12 4/7/12 23/32/12
f 20/37/13 6/18/13 21/33/13
f 6/18/13 20/37/13 1/38/13
f 26/39/14 27/40/14 10/41/14
f 27/40/14 26/39/14 28/42/14
f 11/15/15 13/43/15 15/24/15
f 13/43/15 11/15/15 12/17/15
f 29/44/16 15/45/16 14/46/16
f 15/45/16 29/44/16 18/47/16
f 3/3/17 12/48/17 5/5/17
f 12/48/17 3/3/17 16/22/17
f 16/22/17 3/3/17 30/49/17
f 30/49/17 3/3/17 2/2/17
f 30/49/17 2/2/17 9/11/17
f 9/11/17 2/2/17 7/14/17
f 16/22/17 13/19/17 12/48/17
f 29/50/18 31/51/18 18/52/18
f 31/51/18 29/50/18 32/53/18
f 32/53/18 29/50/18 33/54/18
f 8/10/19 26/55/19 10/56/19
f 26/55/19 8/10/19 25/36/19
f 10/41/20 30/57/20 9/58/20
f 30/57/20 10/41/20 27/40/20
f 28/59/21 33/54/21 29/50/21
f 33/54/21 28/59/21 34/60/21
f 26/61/22 35/62/22 36/63/22
f 35/62/22 26/61/22 25/64/22
f 22/29/23 23/65/23 20/27/23
f 23/65/23 22/29/23 37/66/23
f 27/40/24 16/67/24 30/57/24
f 16/67/24 27/40/24 14/46/24
f 31/68/25 17/23/25 18/25/25
f 17/23/25 31/68/25 38/69/25
f 17/23/25 38/69/25 24/35/25
f 26/61/26 34/60/26 28/59/26
f 34/60/26 26/61/26 36/63/26
f 38/70/27 31/51/27 32/53/27
f 35/62/28 23/65/28 37/66/28
f 23/65/28 35/62/28 25/64/28
f 28/42/29 14/46/29 27/40/29
f 14/46/29 28/42/29 29/44/29
f 33/54/30 38/70/30 32/53/30
f 38/70/30 33/54/30 24/71/30
f 24/71/30 33/54/30 34/60/30
f 24/71/30 34/60/30 22/29/30
f 22/29/30 34/60/30 37/66/30
f 37/66/30 34/60/30 36/63/30
f 37/66/30 36/63/30 35/62/30
f 22/29/30 19/26/30 24/71/30
