# Blender v2.92.0 OBJ File: 'kenney_OGConvert.blend'
# www.blender.org
o statue_ring
v -0.300000 0.276795 -0.086602
v 0.166987 0.200000 -0.086603
v -0.166987 0.200000 -0.086603
v -0.000000 0.240055 -0.086603
v -0.181818 0.345027 -0.086602
v -0.300000 0.623205 -0.086602
v -0.181818 0.554973 -0.086602
v -0.000000 0.659945 -0.086603
v -0.000000 0.796410 -0.086603
v 0.300000 0.276795 -0.086603
v 0.181818 0.345027 -0.086603
v 0.300000 0.623205 -0.086603
v 0.181818 0.554973 -0.086603
v 0.300000 0.160000 0.200000
v 0.300000 0.000000 -0.200000
v 0.300000 0.160000 -0.200000
v 0.300000 -0.000000 0.200000
v -0.300000 0.160000 -0.200000
v -0.300000 0.000000 -0.200000
v -0.300000 -0.000000 0.200000
v 0.166987 0.200000 0.086603
v 0.300000 0.276795 0.086603
v 0.000000 0.796410 0.086603
v -0.300000 0.623205 0.086603
v -0.300000 0.160000 0.200000
v 0.300000 0.623205 0.086603
v 0.260000 0.200000 -0.160000
v 0.260000 0.200000 0.160000
v -0.260000 0.200000 -0.160000
v -0.166987 0.200000 0.086603
v -0.260000 0.200000 0.160000
v 0.000000 0.240055 0.086603
v 0.181818 0.345027 0.086603
v 0.181818 0.554973 0.086603
v 0.000000 0.659945 0.086603
v -0.300000 0.276795 0.086603
v -0.181818 0.345027 0.086603
v -0.181818 0.554973 0.086603
vt 0.332601 0.383535
vt 0.381260 0.087639
vt 0.381260 0.299254
vt 0.355881 0.193447
vt 0.289367 0.308652
vt 0.113106 0.383535
vt 0.156340 0.308652
vt 0.089827 0.193447
vt 0.003359 0.193447
vt 0.332601 0.003359
vt 0.289367 0.078242
vt 0.113106 0.003359
vt 0.156340 0.078242
vt 0.873977 0.256810
vt 0.772597 0.003359
vt 0.873977 0.003359
vt 0.772597 0.256810
vt 0.741541 0.390253
vt 0.640161 0.770429
vt 0.640161 0.390253
vt 0.741541 0.770429
vt 0.003359 0.390253
vt 0.256810 0.770429
vt 0.003359 0.770429
vt 0.256810 0.390253
vt 0.772597 0.373275
vt 0.856877 0.263527
vt 0.856877 0.373275
vt 0.772597 0.263527
vt 0.633443 0.770429
vt 0.523696 0.580341
vt 0.633443 0.580341
vt 0.523696 0.770429
vt 0.849639 0.390253
vt 0.748259 0.770429
vt 0.748259 0.390253
vt 0.849639 0.770429
vt 0.003359 0.996641
vt 0.113106 0.777146
vt 0.113106 0.996641
vt 0.003359 0.777146
vt 0.491633 0.415598
vt 0.445126 0.474533
vt 0.288872 0.415598
vt 0.491633 0.745084
vt 0.445126 0.686148
vt 0.335379 0.686148
vt 0.335379 0.474533
vt 0.288872 0.745084
vt 0.957737 0.643703
vt 0.856357 0.390253
vt 0.957737 0.390253
vt 0.856357 0.643703
vt 0.717220 0.383535
vt 0.765879 0.087639
vt 0.765879 0.299254
vt 0.740499 0.193447
vt 0.673986 0.308652
vt 0.497725 0.383535
vt 0.540959 0.308652
vt 0.474446 0.193447
vt 0.387978 0.193447
vt 0.717220 0.003359
vt 0.673986 0.078242
vt 0.497725 0.003359
vt 0.540959 0.078242
vt 0.119824 0.996641
vt 0.229571 0.777146
vt 0.229571 0.996641
vt 0.119824 0.777146
vt 0.523696 0.390253
vt 0.633443 0.390253
vt 0.523696 0.886894
vt 0.607976 0.777146
vt 0.607976 0.886894
vt 0.523696 0.777146
vt 0.263527 0.910173
vt 0.373275 0.777146
vt 0.373275 0.910173
vt 0.263527 0.777146
vt 0.966104 0.880830
vt 0.856357 0.765626
vt 0.966104 0.765626
vt 0.856357 0.880830
vt 0.856357 0.650421
vt 0.966104 0.650421
vt 0.880695 0.118564
vt 0.990442 0.233768
vt 0.880695 0.233768
vt 0.990442 0.118564
vt 0.263527 0.770429
vt 0.516978 0.770429
vt 0.379992 0.910173
vt 0.489740 0.777146
vt 0.489740 0.910173
vt 0.379992 0.777146
vt 0.263527 0.390253
vt 0.516978 0.390253
vt 0.880695 0.003359
vt 0.990442 0.003359
vn -0.0000 0.0000 -1.0000
vn 1.0000 -0.0000 -0.0000
vn -0.0000 -1.0000 -0.0000
vn 0.5000 -0.8660 -0.0000
vn -0.5000 0.8660 -0.0000
vn 0.0000 -0.0000 1.0000
vn 0.0000 1.0000 -0.0000
vn -1.0000 0.0000 0.0000
vn 0.5000 0.8660 0.0000
vn -0.5000 -0.8660 0.0000
vn -0.7071 0.7071 0.0000
vn 0.0000 0.7071 0.7071
vn 0.7071 0.7071 -0.0000
vn -0.0000 0.7071 -0.7071
s 1
f 1/1/1 2/2/1 3/3/1
f 2/2/1 1/1/1 4/4/1
f 4/4/1 1/1/1 5/5/1
f 5/5/1 1/1/1 6/6/1
f 5/5/1 6/6/1 7/7/1
f 7/7/1 6/6/1 8/8/1
f 8/8/1 6/6/1 9/9/1
f 4/4/1 10/10/1 2/2/1
f 10/10/1 4/4/1 11/11/1
f 10/10/1 11/11/1 12/12/1
f 12/12/1 8/8/1 9/9/1
f 12/12/1 11/11/1 13/13/1
f 12/12/1 13/13/1 8/8/1
f 14/14/2 15/15/2 16/16/2
f 15/15/2 14/14/2 17/17/2
f 18/18/1 15/19/1 19/20/1
f 15/19/1 18/18/1 16/21/1
f 20/22/3 15/23/3 17/24/3
f 15/23/3 20/22/3 19/25/3
f 21/26/4 10/27/4 22/28/4
f 10/27/4 21/26/4 2/29/4
f 6/30/5 23/31/5 9/32/5
f 23/31/5 6/30/5 24/33/5
f 14/34/6 20/35/6 17/36/6
f 20/35/6 14/34/6 25/37/6
f 26/38/2 10/39/2 12/40/2
f 10/39/2 26/38/2 22/41/2
f 27/42/7 2/43/7 28/44/7
f 2/43/7 27/42/7 29/45/7
f 2/43/7 29/45/7 3/46/7
f 3/46/7 29/45/7 30/47/7
f 21/48/7 28/44/7 2/43/7
f 28/44/7 21/48/7 31/49/7
f 31/49/7 21/48/7 30/47/7
f 31/49/7 30/47/7 29/45/7
f 20/50/8 18/51/8 19/52/8
f 18/51/8 20/50/8 25/53/8
f 22/54/6 30/55/6 21/56/6
f 30/55/6 22/54/6 32/57/6
f 32/57/6 22/54/6 33/58/6
f 33/58/6 22/54/6 26/59/6
f 33/58/6 26/59/6 34/60/6
f 34/60/6 26/59/6 35/61/6
f 35/61/6 26/59/6 23/62/6
f 32/57/6 36/63/6 30/55/6
f 36/63/6 32/57/6 37/64/6
f 36/63/6 37/64/6 24/65/6
f 24/65/6 35/61/6 23/62/6
f 24/65/6 37/64/6 38/66/6
f 24/65/6 38/66/6 35/61/6
f 36/67/8 6/68/8 1/69/8
f 6/68/8 36/67/8 24/70/8
f 9/32/9 26/71/9 12/72/9
f 26/71/9 9/32/9 23/31/9
f 36/73/10 3/74/10 30/75/10
f 3/74/10 36/73/10 1/76/10
f 33/77/8 13/78/8 11/79/8
f 13/78/8 33/77/8 34/80/8
f 5/81/9 32/82/9 4/83/9
f 32/82/9 5/81/9 37/84/9
f 4/83/5 33/85/5 11/86/5
f 33/85/5 4/83/5 32/82/5
f 35/87/10 13/88/10 34/89/10
f 13/88/10 35/87/10 8/90/10
f 25/91/11 29/45/11 18/92/11
f 29/45/11 25/91/11 31/49/11
f 38/93/2 5/94/2 7/95/2
f 5/94/2 38/93/2 37/96/2
f 28/44/12 25/91/12 14/97/12
f 25/91/12 28/44/12 31/49/12
f 27/42/13 14/97/13 16/98/13
f 14/97/13 27/42/13 28/44/13
f 38/99/4 8/90/4 35/87/4
f 8/90/4 38/99/4 7/100/4
f 18/92/14 27/42/14 16/98/14
f 27/42/14 18/92/14 29/45/14
