# Blender v2.92.0 OBJ File: 'OGConvert.blend'
# www.blender.org
o stone_largeD
v -4.275107 2.497530 1.249191
v -1.828760 4.546080 2.372880
v -2.934692 4.546080 0.929410
v -4.275107 1.883376 1.869566
v -2.921513 1.883376 3.636284
v -1.120496 4.546080 -1.215970
v -1.056379 4.546080 -0.509686
v -0.737246 4.546080 -2.218273
v -0.644358 4.546080 2.678334
v -0.289878 4.546080 -2.514292
v 0.569327 4.546080 2.571827
v 2.250257 4.546080 -1.095542
v 2.324948 4.546080 1.374138
v 2.705113 4.546080 0.608681
v -1.041511 1.883376 4.121132
v -2.330836 -0.000000 2.953362
v -0.826834 -0.000000 3.341242
v 3.553115 1.883376 -1.869148
v -0.478845 1.883376 -4.121132
v -1.541838 3.214728 -2.551822
v 4.275107 1.883376 0.835968
v 2.811458 1.883376 3.783014
v 2.297234 3.214728 3.124167
v -0.440650 1.179126 -3.796350
v 2.848868 0.000000 -1.450982
v 1.236084 0.000000 -2.351776
v -3.917850 1.883376 0.763455
v -4.061171 0.651890 1.198152
v 3.426463 -0.000000 0.713110
v -3.735198 -0.000000 1.120385
v 2.533499 0.941688 3.426881
v 0.944382 -0.000000 3.185809
v -1.695513 1.883376 -0.939218
v -1.899061 1.883376 -3.181390
v -0.880821 0.000000 -2.918999
v 2.841002 -0.000000 1.891929
v -1.350035 0.000000 -0.707039
v -1.512874 0.000000 -2.500777
vt 0.602254 0.539139
vt 0.726795 0.474782
vt 0.726452 0.560511
vt 0.565144 0.501581
vt 0.565564 0.396653
vt 0.351404 0.176024
vt 0.328487 0.212292
vt 0.358388 0.111485
vt 0.218439 0.372620
vt 0.342454 0.083214
vt 0.156014 0.333436
vt 0.166561 0.089614
vt 0.094476 0.220554
vt 0.095099 0.168855
vt 0.290640 0.388812
vt 0.389978 0.341556
vt 0.855313 0.508417
vt 0.998110 0.450513
vt 0.975242 0.539925
vt 0.883899 0.396653
vt 0.007000 0.836377
vt 0.111870 0.604715
vt 0.119981 0.883653
vt 0.001890 0.660647
vt 0.726702 0.692833
vt 0.726717 0.753995
vt 0.645978 0.772941
vt 0.004287 0.137827
vt 0.001890 0.336871
vt 0.047739 0.315562
vt 0.775003 0.696427
vt 0.828026 0.738982
vt 0.739170 0.508617
vt 0.730574 0.581245
vt 0.164981 0.870573
vt 0.233836 0.625523
vt 0.237080 0.737098
vt 0.565146 0.568983
vt 0.490646 0.542411
vt 0.160677 0.490745
vt 0.272881 0.534346
vt 0.451712 0.438672
vt 0.451277 0.547535
vt 0.890719 0.731679
vt 0.962698 0.645916
vt 0.757179 0.438205
vt 0.565516 0.675110
vt 0.565317 0.810424
vt 0.726765 0.650210
vt 0.117719 0.012047
vt 0.254770 0.866440
vt 0.883899 0.829765
vt 0.975761 0.760690
vt 0.998110 0.797003
vt 0.451675 0.661438
vt 0.565564 0.869272
vt 0.726795 0.772532
vt 0.160677 0.933706
vt 0.272881 0.888716
vt 0.451515 0.769689
vt 0.451277 0.220266
vt 0.556649 0.392874
vt 0.458391 0.299570
vt 0.668307 0.388286
vt 0.508124 0.093540
vt 0.795402 0.350548
vt 0.594529 0.029481
vt 0.749602 0.221653
vt 0.684348 0.001890
vt 0.814756 0.051960
vt 0.814756 0.308985
vt 0.396914 0.001890
vt 0.200064 0.461264
vt 0.447498 0.091637
vt 0.374743 0.206775
vt 0.314669 0.486965
vt 0.447498 0.359714
vt 0.436253 0.429127
vn -0.6764 0.5235 0.5182
vn 0.0000 1.0000 0.0000
vn -0.0827 -0.3893 0.9174
vn -0.2295 -0.3946 0.8897
vn -0.0682 -0.3883 0.9190
vn 0.4375 0.4416 -0.7833
vn -0.7817 0.5473 -0.2989
vn 0.7794 0.4926 0.3871
vn 0.0773 0.4660 0.8814
vn 0.4564 -0.3521 -0.8171
vn -0.9516 0.0023 -0.3074
vn 0.3840 0.7319 0.5629
vn 0.8913 -0.3861 -0.2379
vn -0.9088 -0.2965 -0.2935
vn -0.7185 -0.4250 0.5505
vn 0.0811 -0.3734 0.9241
vn -0.2177 0.4899 0.8442
vn -0.9717 0.2190 0.0882
vn 0.8474 0.4803 -0.2262
vn 0.2006 -0.6319 -0.7486
vn 0.8220 -0.3970 0.4083
vn -0.5866 0.2643 -0.7656
vn -0.5953 -0.2050 -0.7769
vn -0.4851 0.4768 -0.7331
vn -0.5098 -0.3829 -0.7704
vn 0.3675 -0.7581 0.5387
vn -0.9816 -0.1691 0.0891
vn -0.0000 -1.0000 -0.0000
s 1
f 1/1/1 2/2/1 3/3/1
f 2/2/1 1/1/1 4/4/1
f 2/2/1 4/4/1 5/5/1
f 6/6/2 7/7/2 8/8/2
f 9/9/2 8/8/2 7/7/2
f 9/9/2 10/10/2 8/8/2
f 11/11/2 10/10/2 9/9/2
f 11/11/2 12/12/2 10/10/2
f 13/13/2 12/12/2 11/11/2
f 12/12/2 13/13/2 14/14/2
f 9/9/2 7/7/2 2/15/2
f 2/15/2 7/7/2 3/16/2
f 15/17/3 16/18/4 17/19/5
f 16/18/4 15/17/3 5/20/4
f 10/21/6 18/22/6 19/23/6
f 18/22/6 10/21/6 12/24/6
f 6/25/7 8/26/7 20/27/7
f 13/13/8 21/28/8 14/14/8
f 21/28/8 13/13/8 22/29/8
f 22/29/8 13/13/8 23/30/8
f 23/31/9 15/17/9 22/32/9
f 15/17/9 23/31/9 9/33/9
f 9/33/9 23/31/9 11/34/9
f 24/35/10 25/36/10 26/37/10
f 25/36/10 24/35/10 18/22/10
f 18/22/10 24/35/10 19/23/10
f 4/4/11 27/38/11 28/39/11
f 11/11/12 23/30/12 13/13/12
f 21/40/13 25/36/13 18/22/13
f 25/36/13 21/40/13 29/41/13
f 4/4/14 1/1/14 27/38/14
f 16/42/15 28/39/15 30/43/15
f 28/39/15 16/42/15 4/4/15
f 4/4/15 16/42/15 5/5/15
f 31/44/16 17/19/5 32/45/16
f 17/19/5 31/44/16 15/17/3
f 15/17/3 31/44/16 22/32/16
f 9/33/17 5/20/17 15/17/17
f 5/20/17 9/33/17 2/46/17
f 33/47/18 20/27/18 34/48/18
f 20/27/18 33/47/18 6/25/18
f 6/25/18 33/47/18 7/49/18
f 12/12/19 21/28/19 18/50/19
f 21/28/19 12/12/19 14/14/19
f 24/35/20 26/37/20 35/51/20
f 21/52/21 36/53/21 29/54/21
f 36/53/21 21/52/21 22/32/21
f 36/53/21 22/32/21 31/44/21
f 1/1/22 33/47/22 27/38/22
f 33/47/22 1/1/22 7/49/22
f 7/49/22 1/1/22 3/3/22
f 28/39/23 37/55/23 30/43/23
f 37/55/23 28/39/23 33/47/23
f 33/47/23 28/39/23 27/38/23
f 20/27/24 19/56/24 34/48/24
f 19/56/24 20/27/24 10/57/24
f 10/57/24 20/27/24 8/26/24
f 34/58/25 35/51/25 38/59/25
f 35/51/25 34/58/25 24/35/25
f 24/35/25 34/58/25 19/23/25
f 32/45/26 36/53/26 31/44/26
f 38/60/27 33/47/27 34/48/27
f 33/47/27 38/60/27 37/55/27
f 36/61/28 25/62/28 29/63/28
f 25/62/28 36/61/28 26/64/28
f 26/64/28 36/61/28 32/65/28
f 26/64/28 32/65/28 35/66/28
f 35/66/28 32/65/28 17/67/28
f 35/66/28 17/67/28 37/68/28
f 37/68/28 17/67/28 16/69/28
f 37/68/28 16/69/28 30/70/28
f 38/71/28 35/66/28 37/68/28
f 18/50/2 22/29/2 21/28/2
f 22/29/2 18/50/2 19/72/2
f 22/29/2 19/72/2 15/73/2
f 15/73/2 19/72/2 34/74/2
f 15/73/2 34/74/2 33/75/2
f 33/75/2 5/76/2 15/73/2
f 5/76/2 33/75/2 27/77/2
f 5/76/2 27/77/2 4/78/2
