# Blender v2.92.0 OBJ File: 'kenney_OGConvert.blend'
# www.blender.org
o stone_smallTopB
v -0.078923 0.195493 -0.018008
v 0.048304 0.160000 -0.062510
v -0.087258 0.160000 -0.024033
v 0.039883 0.280000 -0.031751
v -0.026680 0.280000 -0.012858
v 0.029783 0.190000 -0.108237
v 0.071733 0.160000 -0.138784
v 0.059586 0.190000 -0.139918
v 0.031458 0.160000 -0.095972
v -0.311072 -0.000000 0.185416
v -0.232092 0.132941 -0.167766
v -0.296047 0.000000 -0.213995
v -0.221280 0.160000 -0.099737
v -0.227205 0.160000 0.057767
v -0.291440 0.038837 0.173714
v -0.021704 0.160000 -0.121046
v -0.009557 0.190000 -0.126792
v -0.004067 0.190000 -0.169940
v 0.043462 0.160000 -0.190317
v -0.014285 0.160000 -0.179354
v 0.038665 0.190000 -0.178052
v 0.192213 0.160000 0.054879
v 0.311072 -0.000000 0.008831
v 0.251665 0.117522 0.007145
v 0.064148 -0.000000 0.323131
v 0.047470 0.160000 0.239117
v -0.060343 0.280000 0.029990
v 0.033626 0.280000 0.134577
v -0.092555 0.160000 0.116784
v 0.039733 0.160000 0.165337
v -0.062944 0.280000 0.099134
v 0.110727 0.160000 -0.171613
v 0.065402 0.280000 0.094132
v 0.126789 0.160000 0.054527
v 0.111983 0.220000 0.054106
v 0.077933 0.280000 0.024989
v -0.155563 0.160000 0.164599
v 0.065460 0.160000 -0.239117
v -0.026680 0.160000 -0.212965
v 0.088459 0.000000 -0.323131
vt 0.894761 0.433019
vt 0.864063 0.547267
vt 0.864063 0.427683
vt 0.967852 0.533019
vt 0.967852 0.474302
vt 0.495833 0.741786
vt 0.522572 0.784957
vt 0.495833 0.778630
vt 0.522572 0.735168
vt 0.858078 0.766883
vt 0.732803 0.464625
vt 0.858078 0.427683
vt 0.707305 0.521927
vt 0.707305 0.655687
vt 0.821481 0.756268
vt 0.462331 0.723459
vt 0.489275 0.679389
vt 0.489275 0.729191
vt 0.462331 0.686606
vt 0.495533 0.666426
vt 0.522696 0.623618
vt 0.522696 0.673410
vt 0.495533 0.629580
vt 0.310347 0.803770
vt 0.456347 0.897089
vt 0.349108 0.866866
vt 0.456347 0.557908
vt 0.310347 0.604947
vt 0.716964 0.818070
vt 0.707305 0.780186
vt 0.790156 0.777784
vt 0.864063 0.659276
vt 0.967640 0.553251
vt 0.967640 0.672826
vt 0.864063 0.571986
vt 0.820897 0.892456
vt 0.820897 0.772867
vt 0.716964 0.876789
vt 0.883614 0.248023
vt 0.822365 0.053129
vt 0.887692 0.055125
vt 0.489549 0.673405
vt 0.462331 0.630431
vt 0.489549 0.623618
vt 0.462331 0.667273
vt 0.835020 0.834060
vt 0.938338 0.892450
vt 0.886679 0.885079
vt 0.938338 0.772868
vt 0.835020 0.790413
vt 0.484032 0.617634
vt 0.519144 0.569318
vt 0.519144 0.606230
vt 0.462331 0.587769
vt 0.484032 0.557908
vt 0.826882 0.886202
vt 0.665212 0.439825
vt 0.552563 0.545162
vt 0.531041 0.455402
vt 0.887692 0.316887
vt 0.840408 0.245871
vt 0.847769 0.295214
vt 0.812006 0.346546
vt 0.803122 0.317469
vt 0.768167 0.281882
vt 0.785411 0.206369
vt 0.778341 0.086973
vt 0.791212 0.237632
vt 0.674057 0.250005
vt 0.622378 0.370000
vt 0.598167 0.157578
vt 0.531041 0.157635
vt 0.537495 0.266620
vt 0.629959 0.002992
vt 0.662618 0.056819
vt 0.028205 0.855335
vt 0.152077 0.557908
vt 0.152077 0.897092
vt 0.002992 0.595840
vt 0.002992 0.677119
vt 0.997008 0.020464
vt 0.893676 0.122575
vt 0.893676 0.002992
vt 0.997008 0.078438
vt 0.945342 0.115167
vt 0.202403 0.551923
vt 0.525057 0.107829
vt 0.525057 0.447087
vt 0.202403 0.002992
vt 0.002992 0.277458
vt 0.552563 0.728683
vt 0.701320 0.427683
vt 0.701320 0.766843
vt 0.650416 0.421699
vt 0.158061 0.848474
vt 0.304363 0.557908
vt 0.304363 0.897090
vt 0.158061 0.779502
vt 0.196902 0.586973
vt 0.495833 0.722067
vt 0.522696 0.679394
vt 0.522696 0.729184
vt 0.495833 0.685223
vt 0.588195 0.772828
vt 0.531041 0.865653
vt 0.541280 0.806905
vt 0.544530 0.907166
vt 0.635706 0.807342
vt 0.631844 0.907166
vt 0.649996 0.851321
vn -0.2662 0.2218 -0.9380
vn 0.6935 0.3055 0.6524
vn -0.8960 0.4428 -0.0337
vn -0.4031 0.3269 0.8547
vn -0.1748 0.3485 -0.9209
vn 0.7285 0.3765 0.5723
vn -0.6966 0.4640 -0.5473
vn -0.3363 0.2177 0.9162
vn -0.9715 0.2343 -0.0365
vn 0.4776 0.8616 -0.1718
vn -0.9281 0.3532 -0.1181
vn 0.7713 0.1946 0.6060
vn -0.0000 1.0000 0.0000
vn 0.8269 0.5420 0.1499
vn -0.5952 0.6975 0.3991
vn -0.2475 0.4223 -0.8720
vn 0.8142 0.1971 -0.5460
vn -0.0000 -1.0000 -0.0000
vn -0.3134 0.4157 0.8538
vn -0.1952 0.9216 -0.3355
vn 0.7680 0.3808 -0.5150
vn 0.8309 0.3192 -0.4558
s 1
f 1/1/1 2/2/1 3/3/1
f 2/2/1 1/1/1 4/4/1
f 4/4/1 1/1/1 5/5/1
f 6/6/2 7/7/2 8/8/2
f 7/7/2 6/6/2 9/9/2
f 10/10/3 11/11/3 12/12/3
f 11/11/3 10/10/3 13/13/3
f 13/13/3 10/10/3 14/14/3
f 14/14/3 10/10/3 15/15/3
f 6/16/4 16/17/4 9/18/4
f 16/17/4 6/16/4 17/19/4
f 18/20/5 19/21/5 20/22/5
f 19/21/5 18/20/5 21/23/5
f 22/24/6 23/25/6 24/26/6
f 23/25/6 22/24/6 25/27/6
f 25/27/6 22/24/6 26/28/6
f 27/29/7 5/30/7 1/31/7
f 28/32/8 29/33/8 30/34/8
f 29/33/8 28/32/8 31/35/8
f 29/36/9 1/31/9 3/37/9
f 1/31/9 29/36/9 27/29/9
f 27/29/9 29/36/9 31/38/9
f 32/39/10 22/40/10 24/41/10
f 16/42/11 18/43/11 20/44/11
f 18/43/11 16/42/11 17/45/11
f 33/46/12 34/47/12 35/48/12
f 34/47/12 33/46/12 30/49/12
f 30/49/12 33/46/12 28/50/12
f 21/51/13 6/52/13 8/53/13
f 6/52/13 21/51/13 18/54/13
f 6/52/13 18/54/13 17/55/13
f 33/46/14 35/48/14 36/56/14
f 15/57/15 37/58/15 14/59/15
f 38/60/13 7/61/13 32/39/13
f 7/61/13 38/60/13 19/62/13
f 19/62/13 38/60/13 39/63/13
f 19/62/13 39/63/13 20/64/13
f 20/64/13 39/63/13 16/65/13
f 2/66/13 32/39/13 7/61/13
f 34/67/13 32/39/13 2/66/13
f 32/39/13 34/67/13 22/40/13
f 2/66/13 7/61/13 9/68/13
f 2/66/13 9/68/13 3/69/13
f 3/69/13 9/68/13 16/65/13
f 3/69/13 16/65/13 39/63/13
f 3/69/13 39/63/13 13/70/13
f 3/69/13 13/70/13 29/71/13
f 29/71/13 13/70/13 37/72/13
f 37/72/13 13/70/13 14/73/13
f 34/67/13 26/74/13 22/40/13
f 26/74/13 34/67/13 30/75/13
f 26/74/13 30/75/13 37/72/13
f 37/72/13 30/75/13 29/71/13
f 11/76/16 40/77/16 12/78/16
f 40/77/16 11/76/16 38/79/16
f 38/79/16 11/76/16 39/80/16
f 4/81/17 34/82/17 2/83/17
f 34/82/17 4/81/17 36/84/17
f 34/82/17 36/84/17 35/85/17
f 25/86/18 40/87/18 23/88/18
f 40/87/18 25/86/18 12/89/18
f 12/89/18 25/86/18 10/90/18
f 26/91/19 10/92/19 25/93/19
f 10/92/19 26/91/19 15/57/19
f 15/57/19 26/91/19 37/58/19
f 11/94/20 13/70/20 39/63/20
f 38/95/21 23/96/21 40/97/21
f 23/96/21 38/95/21 32/98/21
f 23/96/21 32/98/21 24/99/21
f 21/100/22 7/101/22 19/102/22
f 7/101/22 21/100/22 8/103/22
f 4/104/13 33/105/13 36/106/13
f 33/105/13 4/104/13 28/107/13
f 28/107/13 4/104/13 5/108/13
f 28/107/13 5/108/13 31/109/13
f 31/109/13 5/108/13 27/110/13
