# Blender v2.92.0 OBJ File: 'kenney_OGConvert.blend'
# www.blender.org
o tent_detailedOpen
v -0.136900 -0.000000 0.348200
v -0.136900 -0.000000 0.318200
v 0.000000 0.444136 0.318200
v -0.273800 -0.000000 0.318200
v -0.273800 0.111000 -0.318200
v -0.273800 0.000000 -0.318200
v -0.273800 0.111000 0.318200
v 0.014208 0.496880 0.288600
v 0.000000 0.518000 0.260184
v 0.014208 0.496880 0.260184
v 0.000000 0.518000 0.288600
v -0.000000 0.518000 -0.261368
v 0.014208 0.496880 -0.261368
v 0.273800 0.111000 0.318200
v 0.014208 0.496880 -0.289784
v 0.273800 0.111000 -0.318200
v 0.000000 0.518000 0.318200
v -0.000000 0.518000 -0.289784
v -0.000000 0.518000 -0.318200
v -0.409048 0.081000 -0.261368
v -0.014208 0.496880 -0.289784
v -0.409048 0.081000 -0.289784
v -0.014208 0.496880 -0.261368
v -0.409048 0.081000 0.260184
v -0.014208 0.496880 0.260184
v -0.409048 0.081000 0.288600
v -0.014208 0.496880 0.288600
v -0.205350 -0.000000 0.318200
v 0.136900 -0.000000 0.348200
v 0.136900 -0.000000 0.318200
v 0.273800 -0.000000 0.318200
v 0.205350 -0.000000 0.318200
v 0.409048 0.081000 -0.289784
v 0.409048 0.081000 -0.261368
v 0.409048 0.081000 0.260184
v 0.409048 0.081000 0.288600
v 0.273800 0.000000 -0.318200
v -0.064721 0.194500 -0.318200
v -0.064721 0.274500 -0.318200
v 0.064721 0.274500 -0.318200
v 0.064721 0.194500 -0.318200
v -0.014208 0.000000 -0.261368
v -0.014208 0.000000 -0.289784
v -0.014208 0.561131 -0.289784
v -0.014208 0.561131 -0.261368
v 0.014208 -0.000000 0.260184
v 0.014208 -0.000000 0.288600
v 0.014208 0.561131 0.288600
v 0.014208 0.561131 0.260184
v -0.014208 0.561131 0.288600
v -0.014208 -0.000000 0.288600
v 0.014208 0.561131 -0.261368
v 0.014208 0.561131 -0.289784
v 0.014208 0.000000 -0.261368
v 0.409048 -0.000000 0.288600
v 0.409048 -0.000000 0.260184
v 0.409048 0.111000 0.260184
v 0.409048 0.111000 0.288600
v 0.014208 0.000000 -0.289784
v -0.437464 0.000000 -0.261368
v -0.409048 0.000000 -0.261368
v -0.437464 0.111000 -0.261368
v -0.409048 0.111000 -0.261368
v 0.437464 0.111000 0.288600
v 0.437464 -0.000000 0.260184
v 0.437464 0.111000 0.260184
v 0.437464 -0.000000 0.288600
v -0.437464 -0.000000 0.288600
v -0.437464 0.111000 0.260184
v -0.437464 -0.000000 0.260184
v -0.437464 0.111000 0.288600
v -0.409048 -0.000000 0.260184
v -0.409048 0.111000 0.260184
v -0.409048 0.111000 -0.289784
v -0.409048 0.000000 -0.289784
v -0.014208 0.561131 0.260184
v -0.014208 -0.000000 0.260184
v 0.409048 0.000000 -0.261368
v 0.437464 0.000000 -0.289784
v 0.437464 0.000000 -0.261368
v 0.409048 0.000000 -0.289784
v -0.409048 0.111000 0.288600
v -0.409048 -0.000000 0.288600
v -0.437464 0.111000 -0.289784
v -0.437464 0.000000 -0.289784
v 0.437464 0.111000 -0.261368
v 0.409048 0.111000 -0.261368
v 0.437464 0.111000 -0.289784
v 0.409048 0.111000 -0.289784
vt 0.967224 0.488878
vt 0.989789 0.488878
vt 0.989790 0.824244
vt 0.482087 0.016210
vt 0.003396 0.082784
vt 0.003395 0.016210
vt 0.482087 0.082784
vt 0.862593 0.459822
vt 0.862593 0.438448
vt 0.878341 0.438448
vt 0.878341 0.459822
vt 0.878341 0.046144
vt 0.862593 0.046144
vt 0.574869 0.482087
vt 0.862593 0.024770
vt 0.574869 0.003395
vt 0.878341 0.482087
vt 0.878341 0.024770
vt 0.878341 0.003396
vt 0.046144 0.003396
vt 0.024770 0.432061
vt 0.024770 0.003396
vt 0.046144 0.432061
vt 0.438448 0.003396
vt 0.438448 0.432061
vt 0.459822 0.003396
vt 0.459822 0.432061
vt 0.459822 0.451178
vt 0.438448 0.451178
vt 0.046144 0.451178
vt 0.482087 0.451178
vt 0.024770 0.451178
vt 0.003396 0.451178
vt 0.875692 0.963781
vt 0.855025 0.916624
vt 0.875692 0.907566
vt 0.544433 0.694826
vt 0.878484 0.540365
vt 0.878743 0.591852
vt 0.974039 0.207627
vt 0.996604 0.003395
vt 0.996604 0.207627
vt 0.446552 0.858340
vt 0.399819 0.511895
vt 0.446552 0.490287
vt 0.794997 0.488878
vt 0.878484 0.488878
vt 0.488878 0.694826
vt 0.794997 0.900774
vt 0.878484 0.900774
vt 0.878484 0.849287
vt 0.932268 0.488878
vt 0.932268 0.856930
vt 0.885534 0.835323
vt 0.878743 0.797800
vt 0.003395 0.956132
vt 0.024063 0.908975
vt 0.024063 0.965190
vt 0.553610 0.024770
vt 0.553610 0.046144
vt 0.553610 0.438448
vt 0.553610 0.459822
vt 0.491383 0.003395
vt 0.491383 0.482087
vt 0.086888 0.490287
vt 0.003396 0.902184
vt 0.003396 0.490287
vt 0.086888 0.902184
vt 0.149696 0.647553
vt 0.209871 0.647553
vt 0.393028 0.696235
vt 0.209871 0.744918
vt 0.149696 0.744918
vt 0.046143 0.134050
vt 0.024769 0.134050
vt 0.024770 0.470597
vt 0.046144 0.470597
vt 0.488878 0.438448
vt 0.488878 0.459822
vt 0.910918 0.459822
vt 0.910918 0.438448
vt 0.939059 0.488878
vt 0.949746 0.521318
vt 0.939059 0.537203
vt 0.960433 0.488878
vt 0.960433 0.537203
vt 0.960433 0.910924
vt 0.939059 0.910924
vt 0.046144 0.483496
vt 0.024770 0.483496
vt 0.945874 0.051721
vt 0.967248 0.425442
vt 0.945874 0.425442
vt 0.967248 0.051721
vt 0.956561 0.035836
vt 0.945874 0.003395
vt 0.967248 0.003395
vt 0.798694 0.987039
vt 0.820068 0.938458
vt 0.820068 0.987039
vt 0.798694 0.938458
vt 0.820068 0.920465
vt 0.798694 0.920465
vt 0.143515 0.930349
vt 0.164889 0.908975
vt 0.164889 0.930349
vt 0.143515 0.908975
vt 0.545208 0.930130
vt 0.566582 0.991053
vt 0.545208 0.991053
vt 0.566582 0.907566
vt 0.545208 0.907566
vt 0.629703 0.991051
vt 0.651077 0.907566
vt 0.651077 0.991051
vt 0.629703 0.907566
vt 0.488878 0.024770
vt 0.488878 0.046144
vt 0.910918 0.046144
vt 0.910918 0.024770
vt 0.770529 0.987039
vt 0.791903 0.920465
vt 0.791903 0.987039
vt 0.770529 0.920465
vt 0.885534 0.863721
vt 0.906908 0.947214
vt 0.885534 0.947214
vt 0.906908 0.886287
vt 0.906908 0.863721
vt 0.686033 0.991051
vt 0.707408 0.968488
vt 0.707408 0.991051
vt 0.686033 0.968488
vt 0.707408 0.907566
vt 0.686033 0.907566
vt 0.438448 0.470597
vt 0.459822 0.483496
vt 0.438448 0.483496
vt 0.459822 0.470597
vt 0.798694 0.907566
vt 0.820068 0.907566
vt 0.459822 0.134050
vt 0.438447 0.134050
vt 0.399819 0.887696
vt 0.421193 0.948623
vt 0.399819 0.948623
vt 0.421193 0.865131
vt 0.399819 0.865131
vt 0.030854 0.930349
vt 0.052228 0.908975
vt 0.052228 0.930349
vt 0.030854 0.908975
vt 0.453343 0.538615
vt 0.474717 0.912362
vt 0.453343 0.912362
vt 0.474717 0.538615
vt 0.464030 0.522729
vt 0.453343 0.490287
vt 0.474717 0.490287
vt 0.917709 0.003395
vt 0.928396 0.035838
vt 0.917709 0.051724
vt 0.939083 0.003395
vt 0.939083 0.051724
vt 0.939083 0.425470
vt 0.917709 0.425470
vt 0.171680 0.930349
vt 0.193054 0.908975
vt 0.193054 0.930349
vt 0.171680 0.908975
vt 0.657868 0.991051
vt 0.679242 0.968488
vt 0.679242 0.991051
vt 0.657868 0.968488
vt 0.679242 0.907566
vt 0.657868 0.907566
vt 0.573373 0.907566
vt 0.594747 0.991053
vt 0.573373 0.991053
vt 0.594747 0.930130
vt 0.594747 0.907566
vt 0.059019 0.930349
vt 0.080393 0.908975
vt 0.080393 0.930349
vt 0.059019 0.908975
vt 0.967224 0.831035
vt 0.988598 0.914528
vt 0.967224 0.914528
vt 0.988598 0.853601
vt 0.988598 0.831035
vt 0.742364 0.987039
vt 0.763738 0.920465
vt 0.763738 0.987039
vt 0.742364 0.920465
vt 0.517043 0.907566
vt 0.538417 0.991053
vt 0.517043 0.991053
vt 0.538417 0.930130
vt 0.538417 0.907566
vt 0.488878 0.930131
vt 0.510252 0.991058
vt 0.488878 0.991058
vt 0.510252 0.907566
vt 0.488878 0.907566
vt 0.826859 0.938458
vt 0.848233 0.920465
vt 0.848233 0.938458
vt 0.826859 0.920465
vt 0.826859 0.987039
vt 0.848233 0.987039
vt 0.826859 0.907565
vt 0.848233 0.907566
vt 0.087184 0.930349
vt 0.108559 0.908975
vt 0.108559 0.930349
vt 0.087184 0.908975
vt 0.601538 0.930130
vt 0.622912 0.991053
vt 0.601538 0.991053
vt 0.622912 0.907565
vt 0.601538 0.907565
vt 0.115350 0.930349
vt 0.136724 0.908975
vt 0.136724 0.930349
vt 0.115350 0.908975
vt 0.742364 0.907566
vt 0.763738 0.907566
vt 0.714199 0.991051
vt 0.735573 0.907566
vt 0.735573 0.991051
vt 0.714199 0.907566
vt 0.770529 0.907566
vt 0.791903 0.907566
vn 0.9556 -0.2946 -0.0000
vn 0.4775 -0.6468 -0.5947
vn 0.4141 -0.1276 -0.9013
vn -1.0000 0.0000 0.0000
vn -0.4802 0.2853 -0.8295
vn -0.9560 0.2916 0.0319
vn 0.8297 0.5582 -0.0000
vn 0.4802 0.2853 0.8295
vn 0.9581 0.2863 -0.0000
vn 0.0000 0.8287 0.5597
vn 0.1499 0.1009 -0.9835
vn 0.0000 0.8287 -0.5597
vn -0.7252 0.6885 0.0000
vn -0.8297 0.5582 0.0000
vn 0.0000 -0.3413 -0.9400
vn 0.0000 -1.0000 -0.0000
vn -0.3947 0.1825 0.9005
vn -0.9556 -0.2946 -0.0000
vn -0.4141 -0.1276 -0.9013
vn -0.4775 -0.6468 -0.5947
vn 0.0000 -0.0000 1.0000
vn 0.3947 0.1825 0.9005
vn 0.7252 0.6885 -0.0000
vn 1.0000 -0.0000 -0.0000
vn -0.0000 0.0000 -1.0000
vn 0.0000 1.0000 0.0000
s 1
f 1/1/1 2/2/2 3/3/3
f 4/4/4 5/5/4 6/6/4
f 5/5/5 4/4/4 7/7/6
f 8/8/7 10/9/7 9/10/7
f 9/10/7 11/11/7 8/8/7
f 12/12/7 9/10/7 10/9/7
f 10/9/7 13/13/7 12/12/7
f 13/13/7 10/9/7 14/14/8
f 10/9/7 8/8/7 14/14/8
f 8/8/7 11/11/7 14/14/8
f 15/15/7 13/13/7 14/14/8
f 14/14/8 16/16/9 15/15/7
f 11/11/7 17/17/10 14/14/8
f 18/18/7 15/15/7 16/16/9
f 16/16/11 19/19/12 18/18/7
f 20/20/13 21/21/13 22/22/13
f 21/21/13 20/20/13 23/23/13
f 23/23/13 20/20/13 24/24/13
f 23/23/13 24/24/13 25/25/13
f 25/25/13 24/24/13 26/26/13
f 25/25/13 26/26/13 27/27/13
f 11/28/14 9/29/14 25/25/14
f 25/25/14 27/27/14 11/28/14
f 23/23/14 25/25/14 9/29/14
f 9/29/14 12/30/14 23/23/14
f 17/31/10 11/28/14 27/27/14
f 7/7/6 25/25/14 23/23/14
f 7/7/6 27/27/14 25/25/14
f 7/7/6 17/31/10 27/27/14
f 7/7/6 23/23/14 21/21/14
f 5/5/5 7/7/6 21/21/14
f 5/5/5 21/21/14 18/32/14
f 18/32/14 19/33/12 5/5/5
f 28/34/15 2/35/2 1/36/16
f 3/37/17 28/38/17 1/39/17
f 29/40/18 3/41/19 30/42/20
f 3/43/3 2/44/2 28/45/15
f 7/46/21 28/38/21 3/37/21
f 28/38/21 7/46/21 4/47/21
f 7/46/6 3/37/21 17/48/10
f 3/37/21 14/49/8 17/48/10
f 3/37/21 31/50/21 14/49/8
f 31/50/21 3/37/21 32/51/21
f 3/52/19 32/53/15 30/54/20
f 3/37/22 29/55/22 32/51/22
f 30/56/20 32/57/15 29/58/16
f 13/13/23 33/59/23 15/15/23
f 33/59/23 13/13/23 34/60/23
f 34/60/23 13/13/23 10/9/23
f 34/60/23 10/9/23 35/61/23
f 35/61/23 10/9/23 8/8/23
f 35/61/23 8/8/23 36/62/23
f 14/14/8 37/63/24 16/16/9
f 37/63/24 14/14/24 31/64/24
f 5/65/5 37/66/25 6/67/25
f 37/66/25 5/65/5 16/68/25
f 16/68/25 5/65/5 38/69/25
f 38/69/25 5/65/5 39/70/25
f 39/70/25 5/65/5 19/71/12
f 39/70/25 19/71/12 40/72/25
f 16/68/11 40/72/25 19/71/12
f 40/72/25 16/68/25 41/73/25
f 41/73/25 16/68/25 38/69/25
f 42/74/4 21/21/4 43/75/4
f 21/21/4 42/74/4 23/23/4
f 23/23/4 44/76/4 21/21/4
f 44/76/4 23/23/4 45/77/4
f 8/8/24 46/78/24 10/9/24
f 46/78/24 8/8/24 47/79/24
f 10/9/24 48/80/24 8/8/24
f 48/80/24 10/9/24 49/81/24
f 48/82/21 11/83/21 8/84/21
f 50/85/21 11/83/21 48/82/21
f 11/83/21 50/85/21 27/86/21
f 27/86/21 8/84/21 11/83/21
f 51/87/21 8/84/21 27/86/21
f 8/84/21 51/87/21 47/88/21
f 44/76/26 52/89/26 53/90/26
f 52/89/26 44/76/26 45/77/26
f 13/91/21 42/92/21 54/93/21
f 42/92/21 13/91/21 23/94/21
f 23/94/21 13/91/21 12/95/21
f 52/96/21 12/95/21 13/91/21
f 12/95/21 45/97/21 23/94/21
f 45/97/21 12/95/21 52/96/21
f 55/98/4 35/99/4 56/100/4
f 35/99/4 55/98/4 36/101/4
f 36/101/4 57/102/4 35/99/4
f 57/102/4 36/101/4 58/103/4
f 42/104/16 59/105/16 54/106/16
f 59/105/16 42/104/16 43/107/16
f 20/108/21 60/109/21 61/110/21
f 60/109/21 20/108/21 62/111/21
f 62/111/21 20/108/21 63/112/21
f 64/113/24 65/114/24 66/115/24
f 65/114/24 64/113/24 67/116/24
f 13/13/24 59/117/24 15/15/24
f 59/117/24 13/13/24 54/118/24
f 15/15/24 52/119/24 13/13/24
f 52/119/24 15/15/24 53/120/24
f 68/121/4 69/122/4 70/123/4
f 69/122/4 68/121/4 71/124/4
f 69/125/25 72/126/25 70/127/25
f 72/126/25 69/125/25 24/128/25
f 24/128/25 69/125/25 73/129/25
f 63/130/24 22/131/24 74/132/24
f 22/131/24 63/130/24 20/133/24
f 20/133/24 75/134/24 22/131/24
f 75/134/24 20/133/24 61/135/24
f 76/136/26 48/137/26 49/138/26
f 48/137/26 76/136/26 50/139/26
f 57/102/26 64/140/26 66/141/26
f 64/140/26 57/102/26 58/103/26
f 27/27/4 76/136/4 25/25/4
f 76/136/4 27/27/4 50/139/4
f 25/25/4 51/142/4 27/27/4
f 51/142/4 25/25/4 77/143/4
f 35/144/25 65/145/25 56/146/25
f 65/145/25 35/144/25 66/147/25
f 66/147/25 35/144/25 57/148/25
f 78/149/16 79/150/16 80/151/16
f 79/150/16 78/149/16 81/152/16
f 25/153/25 46/154/25 77/155/25
f 46/154/25 25/153/25 10/156/25
f 10/156/25 25/153/25 9/157/25
f 76/158/25 9/157/25 25/153/25
f 9/157/25 49/159/25 10/156/25
f 49/159/25 9/157/25 76/158/25
f 44/160/25 18/161/25 21/162/25
f 53/163/25 18/161/25 44/160/25
f 18/161/25 53/163/25 15/164/25
f 15/164/25 21/162/25 18/161/25
f 59/165/25 21/162/25 15/164/25
f 21/162/25 59/165/25 43/166/25
f 51/167/16 46/168/16 47/169/16
f 46/168/16 51/167/16 77/170/16
f 82/171/24 24/172/24 73/173/24
f 24/172/24 82/171/24 26/174/24
f 26/174/24 72/175/24 24/172/24
f 72/175/24 26/174/24 83/176/24
f 64/177/21 55/178/21 67/179/21
f 55/178/21 64/177/21 36/180/21
f 36/180/21 64/177/21 58/181/21
f 68/182/16 72/183/16 83/184/16
f 72/183/16 68/182/16 70/185/16
f 84/186/25 75/187/25 85/188/25
f 75/187/25 84/186/25 22/189/25
f 22/189/25 84/186/25 74/190/25
f 60/191/4 84/192/4 85/193/4
f 84/192/4 60/191/4 62/194/4
f 86/195/21 78/196/21 80/197/21
f 78/196/21 86/195/21 34/198/21
f 34/198/21 86/195/21 87/199/21
f 33/200/25 79/201/25 81/202/25
f 79/201/25 33/200/25 88/203/25
f 88/203/25 33/200/25 89/204/25
f 34/205/4 89/206/4 33/207/4
f 89/206/4 34/205/4 87/208/4
f 33/207/4 78/209/4 34/205/4
f 78/209/4 33/207/4 81/210/4
f 89/206/26 86/211/26 88/212/26
f 86/211/26 89/206/26 87/208/26
f 55/213/16 65/214/16 67/215/16
f 65/214/16 55/213/16 56/216/16
f 26/217/21 68/218/21 83/219/21
f 68/218/21 26/217/21 71/220/21
f 71/220/21 26/217/21 82/221/21
f 60/222/16 75/223/16 61/224/16
f 75/223/16 60/222/16 85/225/16
f 84/192/26 63/226/26 74/227/26
f 63/226/26 84/192/26 62/194/26
f 86/228/24 79/229/24 88/230/24
f 79/229/24 86/228/24 80/231/24
f 69/122/26 82/232/26 73/233/26
f 82/232/26 69/122/26 71/124/26
