# Blender v2.92.0 OBJ File: 'OGConvert.blend'
# www.blender.org
o tent_detailedClosed
v -2.190400 -0.000000 2.545600
v -2.190400 0.888000 -2.545600
v -2.190400 0.000000 -2.545600
v -2.190400 0.888000 2.545600
v -0.000000 4.143999 2.081472
v -0.113664 3.975040 -2.090944
v 0.000000 4.143999 -2.090944
v -0.113664 3.975040 2.081472
v -0.113664 3.975040 -2.318272
v 0.000000 4.143999 -2.545600
v 0.000000 4.143999 -2.318272
v -0.113664 3.975040 2.308800
v -0.000000 4.143999 2.545600
v -0.000000 4.143999 2.308800
v 0.080000 -0.000000 2.545600
v -0.080000 -0.000000 2.545600
v 0.080000 4.025082 2.545600
v -0.080000 4.025082 2.545600
v 2.190400 0.888000 2.545600
v 2.190400 -0.000000 2.545600
v -3.272384 0.648000 -2.090944
v -3.272384 0.648000 -2.318272
v -3.272384 0.648000 2.081472
v -3.272384 0.648000 2.308800
v 0.113664 3.975040 2.081472
v 0.113664 3.975040 2.308800
v 0.113664 3.975040 -2.090944
v 0.113664 3.975040 -2.318272
v 2.190400 0.888000 -2.545600
v 2.190400 0.000000 -2.545600
v -0.517771 1.556000 -2.545600
v -0.517771 2.196000 -2.545600
v 0.517771 2.196000 -2.545600
v 0.517771 1.556000 -2.545600
v 3.272384 0.648000 -2.318272
v 3.272384 0.648000 -2.090944
v 3.272384 0.648000 2.081472
v 3.272384 0.648000 2.308800
v -0.113664 4.489047 2.081472
v -0.113664 4.489047 2.308800
v -0.113664 -0.000000 2.308800
v -0.113664 -0.000000 2.081472
v 0.113664 4.489047 2.308800
v 0.113664 -0.000000 2.308800
v -0.113664 4.489047 -2.318272
v 0.113664 4.489047 -2.090944
v 0.113664 4.489047 -2.318272
v -0.113664 4.489047 -2.090944
v 0.113664 4.489047 2.081472
v 0.113664 -0.000000 2.081472
v -0.113664 0.000000 -2.090944
v 0.113664 0.000000 -2.090944
v -3.499712 0.888000 2.081472
v -3.272384 -0.000000 2.081472
v -3.499712 -0.000000 2.081472
v -3.272384 0.888000 2.081472
v -3.272384 -0.000000 2.308800
v -3.272384 0.888000 2.308800
v 3.499712 0.000000 -2.090944
v 3.272384 0.000000 -2.318272
v 3.499712 0.000000 -2.318272
v 3.272384 0.000000 -2.090944
v -0.113664 0.000000 -2.318272
v -3.499712 0.000000 -2.090944
v -3.272384 0.000000 -2.090944
v -3.499712 0.888000 -2.090944
v -3.272384 0.888000 -2.090944
v 3.499712 0.888000 -2.318272
v 3.272384 0.888000 -2.318272
v -3.499712 0.000000 -2.318272
v -3.272384 0.000000 -2.318272
v 3.272384 -0.000000 2.308800
v 3.272384 -0.000000 2.081472
v 3.272384 0.888000 2.081472
v 3.272384 0.888000 2.308800
v 3.499712 -0.000000 2.081472
v 3.499712 0.888000 2.081472
v -3.499712 -0.000000 2.308800
v -3.499712 0.888000 2.308800
v 0.113664 0.000000 -2.318272
v 3.272384 0.888000 -2.090944
v -3.499712 0.888000 -2.318272
v -3.272384 0.888000 -2.318272
v 3.499712 0.888000 2.308800
v 3.499712 -0.000000 2.308800
v 3.499712 0.888000 -2.090944
vt 0.943775 0.342158
vt 0.996666 0.707631
vt 0.943775 0.707632
vt 0.996666 0.342158
vt 0.285034 0.674314
vt 0.270417 0.374795
vt 0.285034 0.374795
vt 0.270416 0.674314
vt 0.003334 0.707631
vt 0.270417 0.358477
vt 0.003334 0.342158
vt 0.285034 0.342158
vt 0.285034 0.358477
vt 0.270416 0.690633
vt 0.285034 0.707632
vt 0.285034 0.690633
vt 0.580070 0.505139
vt 0.580070 0.493654
vt 0.869012 0.505139
vt 0.869012 0.493654
vt 0.877549 0.499396
vt 0.580070 0.342158
vt 0.643816 0.342158
vt 0.643816 0.656635
vt 0.580070 0.656635
vt 0.332661 0.019653
vt 0.003334 0.003334
vt 0.332661 0.003334
vt 0.003334 0.019653
vt 0.332661 0.319171
vt 0.003334 0.319171
vt 0.332661 0.335490
vt 0.003334 0.335490
vt 0.763962 0.945003
vt 0.763962 0.663303
vt 0.763962 0.673591
vt 0.306320 0.674314
vt 0.291702 0.690633
vt 0.291702 0.674314
vt 0.306320 0.690633
vt 0.573403 0.707631
vt 0.306320 0.374795
vt 0.306320 0.358476
vt 0.573403 0.342158
vt 0.291702 0.358476
vt 0.291702 0.342158
vt 0.291702 0.707631
vt 0.291702 0.374795
vt 0.770630 0.945003
vt 0.770630 0.663303
vt 0.770630 0.934715
vt 0.937108 0.707632
vt 0.884217 0.342158
vt 0.937108 0.342158
vt 0.884217 0.707631
vt 0.739070 0.003334
vt 0.675324 0.317811
vt 0.675324 0.003334
vt 0.739070 0.317811
vt 0.787022 0.123404
vt 0.832965 0.123404
vt 0.972803 0.160573
vt 0.832965 0.197741
vt 0.787022 0.197741
vt 0.668657 0.019653
vt 0.339329 0.003334
vt 0.668657 0.003334
vt 0.339329 0.019653
vt 0.668657 0.319171
vt 0.339329 0.319171
vt 0.668657 0.335490
vt 0.339329 0.335490
vt 0.734308 0.900064
vt 0.717989 0.930679
vt 0.717989 0.900064
vt 0.734308 0.930679
vt 0.734308 0.663303
vt 0.717989 0.663303
vt 0.580070 0.663303
vt 0.588230 0.688072
vt 0.580070 0.700201
vt 0.596389 0.663303
vt 0.596389 0.700201
vt 0.596389 0.985551
vt 0.580070 0.985551
vt 0.394884 0.714299
vt 0.383648 0.730618
vt 0.383648 0.714299
vt 0.394884 0.730618
vt 0.672016 0.939788
vt 0.688335 0.909172
vt 0.688335 0.939788
vt 0.672016 0.909172
vt 0.688335 0.672412
vt 0.672016 0.672412
vt 0.603057 0.700201
vt 0.619376 0.985551
vt 0.603057 0.985551
vt 0.619376 0.700201
vt 0.611216 0.688072
vt 0.603057 0.663303
vt 0.619376 0.663303
vt 0.626043 0.663303
vt 0.634203 0.688072
vt 0.626043 0.700201
vt 0.642362 0.663303
vt 0.642362 0.700201
vt 0.642362 0.985551
vt 0.626043 0.985551
vt 0.412787 0.714299
vt 0.401551 0.730618
vt 0.401551 0.714299
vt 0.412787 0.730618
vt 0.003334 0.714299
vt 0.019653 0.778045
vt 0.003334 0.778045
vt 0.019653 0.731528
vt 0.019653 0.714299
vt 0.187225 0.762004
vt 0.203544 0.723408
vt 0.203544 0.762004
vt 0.187225 0.723408
vt 0.187225 0.776299
vt 0.203544 0.776299
vt 0.210212 0.723408
vt 0.226531 0.714299
vt 0.226531 0.723408
vt 0.210212 0.714299
vt 0.757294 0.900064
vt 0.740976 0.930679
vt 0.740976 0.900064
vt 0.757294 0.930679
vt 0.757294 0.663303
vt 0.740976 0.663303
vt 0.026320 0.731528
vt 0.042639 0.778045
vt 0.026320 0.778045
vt 0.042639 0.714299
vt 0.026320 0.714299
vt 0.049307 0.731528
vt 0.065626 0.778045
vt 0.049307 0.778045
vt 0.065626 0.714299
vt 0.049307 0.714299
vt 0.233198 0.723408
vt 0.249517 0.714299
vt 0.249517 0.723408
vt 0.233198 0.714299
vt 0.688335 0.663303
vt 0.672016 0.663303
vt 0.285034 0.714299
vt 0.268716 0.752895
vt 0.268716 0.714299
vt 0.285034 0.752895
vt 0.268716 0.767190
vt 0.285034 0.767190
vt 0.072293 0.731528
vt 0.088612 0.778045
vt 0.072293 0.778045
vt 0.088612 0.714299
vt 0.072293 0.714299
vt 0.376980 0.714299
vt 0.360661 0.767190
vt 0.360661 0.714299
vt 0.376980 0.767190
vt 0.695003 0.672412
vt 0.711322 0.663303
vt 0.711322 0.672412
vt 0.695003 0.663303
vt 0.331007 0.752895
vt 0.314689 0.767190
vt 0.314689 0.752895
vt 0.331007 0.767190
vt 0.331007 0.714299
vt 0.314689 0.714299
vt 0.649030 0.700201
vt 0.665349 0.985551
vt 0.649030 0.985551
vt 0.665349 0.700201
vt 0.657189 0.688072
vt 0.649030 0.663303
vt 0.665349 0.663303
vt 0.095280 0.731528
vt 0.111598 0.778045
vt 0.095280 0.778045
vt 0.111598 0.714299
vt 0.095280 0.714299
vt 0.430691 0.714299
vt 0.419455 0.730618
vt 0.419455 0.714299
vt 0.430691 0.730618
vt 0.118266 0.714299
vt 0.134585 0.778045
vt 0.118266 0.778045
vt 0.134585 0.731528
vt 0.134585 0.714299
vt 0.141252 0.714299
vt 0.157571 0.778045
vt 0.141252 0.778045
vt 0.157571 0.731528
vt 0.157571 0.714299
vt 0.291702 0.776299
vt 0.308021 0.723408
vt 0.308021 0.776299
vt 0.291702 0.723408
vt 0.233198 0.762004
vt 0.249517 0.762004
vt 0.233198 0.776299
vt 0.249517 0.776299
vt 0.695003 0.909172
vt 0.711322 0.909172
vt 0.695003 0.939788
vt 0.711322 0.939788
vt 0.448594 0.714299
vt 0.437358 0.730618
vt 0.437358 0.714299
vt 0.448594 0.730618
vt 0.466498 0.714299
vt 0.455262 0.730618
vt 0.455262 0.714299
vt 0.466498 0.730618
vt 0.203544 0.714299
vt 0.187225 0.714299
vt 0.164239 0.714299
vt 0.180558 0.778045
vt 0.164239 0.778045
vt 0.180558 0.731528
vt 0.180558 0.714299
vt 0.353994 0.714299
vt 0.337675 0.767190
vt 0.337675 0.714299
vt 0.353994 0.767190
vt 0.210212 0.776299
vt 0.226531 0.776299
vt 0.308021 0.714299
vt 0.291702 0.714299
vt 0.484401 0.714299
vt 0.473166 0.730618
vt 0.473166 0.714299
vt 0.484401 0.730618
vn -1.0000 0.0000 0.0000
vn 0.8297 -0.5582 0.0000
vn 0.0000 0.0000 -1.0000
vn -0.7252 0.6885 0.0000
vn 0.8296 -0.5581 -0.0155
vn -0.8297 -0.5582 -0.0000
vn -0.8297 -0.5582 0.0001
vn -0.8297 -0.5581 -0.0028
vn 1.0000 0.0000 0.0000
vn 0.7252 0.6885 0.0000
vn 0.0000 0.0000 1.0000
vn 0.0000 1.0000 0.0000
vn 0.0000 -1.0000 -0.0000
s 1
f 1/1/1 2/2/1 3/3/1
f 2/2/1 1/1/1 4/4/1
f 5/5/2 6/6/2 7/7/2
f 6/6/2 5/5/2 8/8/2
f 4/9/2 6/6/2 8/8/2
f 4/9/2 9/10/2 6/6/2
f 2/11/2 9/10/2 4/9/2
f 9/10/2 2/11/2 10/12/2
f 9/10/2 10/12/2 11/13/2
f 4/9/2 8/8/2 12/14/2
f 12/14/2 13/15/2 4/9/2
f 13/15/2 12/14/2 14/16/2
f 14/16/2 8/8/2 5/5/2
f 8/8/2 14/16/2 12/14/2
f 15/17/3 16/18/3 17/19/3
f 18/20/3 17/19/3 16/18/3
f 13/21/3 17/19/3 18/20/3
f 16/18/3 1/22/3 18/20/3
f 4/23/3 18/20/3 1/22/3
f 17/19/3 19/24/3 15/17/3
f 20/25/3 15/17/3 19/24/3
f 21/26/4 9/27/4 22/28/4
f 9/27/4 21/26/4 6/29/4
f 6/29/4 21/26/4 23/30/4
f 6/29/4 23/30/4 8/31/4
f 8/31/4 23/30/4 24/32/4
f 8/31/4 24/32/4 12/33/4
f 4/34/2 13/35/2 18/36/5
f 25/37/6 14/38/6 5/39/6
f 14/38/6 25/37/6 26/40/6
f 25/37/6 19/41/6 26/40/6
f 27/42/6 19/41/6 25/37/6
f 5/39/6 27/42/6 25/37/6
f 28/43/6 19/41/6 27/42/6
f 28/43/6 29/44/6 19/41/6
f 11/45/7 29/44/6 28/43/6
f 29/44/6 11/45/6 10/46/6
f 26/40/6 19/41/6 13/47/6
f 13/47/6 14/38/6 26/40/6
f 27/42/6 5/39/6 7/48/6
f 13/49/6 19/50/6 17/51/8
f 19/52/9 30/53/9 29/54/9
f 30/53/9 19/52/9 20/55/9
f 2/56/3 30/57/3 3/58/3
f 30/57/3 2/56/3 29/59/3
f 29/59/3 2/56/3 31/60/3
f 31/60/3 2/56/3 32/61/3
f 32/61/3 2/56/3 10/62/3
f 32/61/3 10/62/3 33/63/3
f 29/59/3 33/63/3 10/62/3
f 33/63/3 29/59/3 34/64/3
f 34/64/3 29/59/3 31/60/3
f 27/65/10 35/66/10 28/67/10
f 35/66/10 27/65/10 36/68/10
f 36/68/10 27/65/10 25/69/10
f 36/68/10 25/69/10 37/70/10
f 37/70/10 25/69/10 26/71/10
f 37/70/10 26/71/10 38/72/10
f 12/73/1 39/74/1 8/75/1
f 39/74/1 12/73/1 40/76/1
f 8/75/1 41/77/1 12/73/1
f 41/77/1 8/75/1 42/78/1
f 43/79/11 14/80/11 26/81/11
f 40/82/11 14/80/11 43/79/11
f 14/80/11 40/82/11 12/83/11
f 12/83/11 26/81/11 14/80/11
f 41/84/11 26/81/11 12/83/11
f 26/81/11 41/84/11 44/85/11
f 45/86/12 46/87/12 47/88/12
f 46/87/12 45/86/12 48/89/12
f 43/90/9 25/91/9 49/92/9
f 25/91/9 43/90/9 26/93/9
f 26/93/9 50/94/9 25/91/9
f 50/94/9 26/93/9 44/95/9
f 8/96/3 50/97/3 42/98/3
f 50/97/3 8/96/3 25/99/3
f 25/99/3 8/96/3 5/100/3
f 39/101/3 5/100/3 8/96/3
f 5/100/3 49/102/3 25/99/3
f 49/102/3 5/100/3 39/101/3
f 46/103/11 7/104/11 27/105/11
f 48/106/11 7/104/11 46/103/11
f 7/104/11 48/106/11 6/107/11
f 6/107/11 27/105/11 7/104/11
f 51/108/11 27/105/11 6/107/11
f 27/105/11 51/108/11 52/109/11
f 39/110/12 43/111/12 49/112/12
f 43/111/12 39/110/12 40/113/12
f 53/114/3 54/115/3 55/116/3
f 54/115/3 53/114/3 23/117/3
f 23/117/3 53/114/3 56/118/3
f 24/119/9 54/120/9 23/121/9
f 54/120/9 24/119/9 57/122/9
f 23/121/9 58/123/9 24/119/9
f 58/123/9 23/121/9 56/124/9
f 59/125/13 60/126/13 61/127/13
f 60/126/13 59/125/13 62/128/13
f 6/129/1 45/130/1 9/131/1
f 45/130/1 6/129/1 48/132/1
f 9/131/1 51/133/1 6/129/1
f 51/133/1 9/131/1 63/134/1
f 21/135/11 64/136/11 65/137/11
f 64/136/11 21/135/11 66/138/11
f 66/138/11 21/135/11 67/139/11
f 35/140/3 61/141/3 60/142/3
f 61/141/3 35/140/3 68/143/3
f 68/143/3 35/140/3 69/144/3
f 65/145/13 70/146/13 71/147/13
f 70/146/13 65/145/13 64/148/13
f 44/95/13 42/149/13 50/94/13
f 42/149/13 44/95/13 41/150/13
f 72/151/1 37/152/1 73/153/1
f 37/152/1 72/151/1 38/154/1
f 38/154/1 74/155/1 37/152/1
f 74/155/1 38/154/1 75/156/1
f 37/157/3 76/158/3 73/159/3
f 76/158/3 37/157/3 77/160/3
f 77/160/3 37/157/3 74/161/3
f 78/162/1 53/163/1 55/164/1
f 53/163/1 78/162/1 79/165/1
f 52/166/13 63/167/13 80/168/13
f 63/167/13 52/166/13 51/169/13
f 36/170/1 69/171/1 35/172/1
f 69/171/1 36/170/1 81/173/1
f 35/172/1 62/174/1 36/170/1
f 62/174/1 35/172/1 60/175/1
f 9/176/3 80/177/3 63/178/3
f 80/177/3 9/176/3 28/179/3
f 28/179/3 9/176/3 11/180/3
f 45/181/3 11/180/3 9/176/3
f 11/180/3 47/182/3 28/179/3
f 47/182/3 11/180/3 45/181/3
f 24/183/11 78/184/11 57/185/11
f 78/184/11 24/183/11 79/186/11
f 79/186/11 24/183/11 58/187/11
f 82/188/12 67/189/12 83/190/12
f 67/189/12 82/188/12 66/191/12
f 82/192/3 71/193/3 70/194/3
f 71/193/3 82/192/3 22/195/3
f 22/195/3 82/192/3 83/196/3
f 84/197/11 72/198/11 85/199/11
f 72/198/11 84/197/11 38/200/11
f 38/200/11 84/197/11 75/201/11
f 84/202/9 76/203/9 77/204/9
f 76/203/9 84/202/9 85/205/9
f 21/206/9 71/147/9 22/207/9
f 71/147/9 21/206/9 65/145/9
f 22/207/9 67/208/9 21/206/9
f 67/208/9 22/207/9 83/209/9
f 27/210/9 80/168/9 28/211/9
f 80/168/9 27/210/9 52/166/9
f 28/211/9 46/212/9 27/210/9
f 46/212/9 28/211/9 47/213/9
f 69/214/12 86/215/12 68/216/12
f 86/215/12 69/214/12 81/217/12
f 53/218/12 58/219/12 56/220/12
f 58/219/12 53/218/12 79/221/12
f 57/122/13 55/222/13 54/120/13
f 55/222/13 57/122/13 78/223/13
f 86/224/11 62/225/11 59/226/11
f 62/225/11 86/224/11 36/227/11
f 36/227/11 86/224/11 81/228/11
f 64/229/1 82/230/1 70/231/1
f 82/230/1 64/229/1 66/232/1
f 86/233/9 61/127/9 68/234/9
f 61/127/9 86/233/9 59/125/9
f 85/205/13 73/235/13 76/203/13
f 73/235/13 85/205/13 72/236/13
f 74/237/12 84/238/12 77/239/12
f 84/238/12 74/237/12 75/240/12
