# Blender v2.92.0 OBJ File: 'OGConvert.blend'
# www.blender.org
o tent_detailedOpen
v -1.095200 -0.000000 2.785600
v -1.095200 -0.000000 2.545600
v 0.000000 3.553086 2.545600
v -2.190400 -0.000000 2.545600
v -2.190400 0.888000 -2.545600
v -2.190400 0.000000 -2.545600
v -2.190400 0.888000 2.545600
v 0.113664 3.975040 2.308800
v 0.000000 4.143999 2.081472
v 0.113664 3.975040 2.081472
v 0.000000 4.143999 2.308800
v 0.000000 4.143999 -2.090944
v 0.113664 3.975040 -2.090944
v 2.190400 0.888000 2.545600
v 0.113664 3.975040 -2.318272
v 2.190400 0.888000 -2.545600
v 0.000000 4.143999 2.545600
v 0.000000 4.143999 -2.318272
v 0.000000 4.143999 -2.545600
v -3.272384 0.648000 -2.090944
v -0.113664 3.975040 -2.318272
v -3.272384 0.648000 -2.318272
v -0.113664 3.975040 -2.090944
v -3.272384 0.648000 2.081472
v -0.113664 3.975040 2.081472
v -3.272384 0.648000 2.308800
v -0.113664 3.975040 2.308800
v -1.642800 -0.000000 2.545600
v 1.095200 -0.000000 2.785600
v 1.095200 -0.000000 2.545600
v 2.190400 -0.000000 2.545600
v 1.642800 -0.000000 2.545600
v 3.272384 0.648000 -2.318272
v 3.272384 0.648000 -2.090944
v 3.272384 0.648000 2.081472
v 3.272384 0.648000 2.308800
v 2.190400 0.000000 -2.545600
v -0.517771 1.556000 -2.545600
v -0.517771 2.196000 -2.545600
v 0.517771 2.196000 -2.545600
v 0.517771 1.556000 -2.545600
v -0.113664 0.000000 -2.090944
v -0.113664 0.000000 -2.318272
v -0.113664 4.489047 -2.318272
v -0.113664 4.489047 -2.090944
v 0.113664 -0.000000 2.081472
v 0.113664 -0.000000 2.308800
v 0.113664 4.489047 2.308800
v 0.113664 4.489047 2.081472
v -0.113664 4.489047 2.308800
v -0.113664 -0.000000 2.308800
v 0.113664 4.489047 -2.090944
v 0.113664 4.489047 -2.318272
v 0.113664 0.000000 -2.090944
v 3.272384 -0.000000 2.308800
v 3.272384 -0.000000 2.081472
v 3.272384 0.888000 2.081472
v 3.272384 0.888000 2.308800
v 0.113664 0.000000 -2.318272
v -3.499712 0.000000 -2.090944
v -3.272384 0.000000 -2.090944
v -3.499712 0.888000 -2.090944
v -3.272384 0.888000 -2.090944
v 3.499712 0.888000 2.308800
v 3.499712 -0.000000 2.081472
v 3.499712 0.888000 2.081472
v 3.499712 -0.000000 2.308800
v -3.499712 -0.000000 2.308800
v -3.499712 0.888000 2.081472
v -3.499712 -0.000000 2.081472
v -3.499712 0.888000 2.308800
v -3.272384 -0.000000 2.081472
v -3.272384 0.888000 2.081472
v -3.272384 0.888000 -2.318272
v -3.272384 0.000000 -2.318272
v -0.113664 4.489047 2.081472
v -0.113664 -0.000000 2.081472
v 3.272384 0.000000 -2.090944
v 3.499712 0.000000 -2.318272
v 3.499712 0.000000 -2.090944
v 3.272384 0.000000 -2.318272
v -3.272384 0.888000 2.308800
v -3.272384 -0.000000 2.308800
v -3.499712 0.888000 -2.318272
v -3.499712 0.000000 -2.318272
v 3.499712 0.888000 -2.090944
v 3.272384 0.888000 -2.090944
v 3.499712 0.888000 -2.318272
v 3.272384 0.888000 -2.318272
vt 0.671813 0.683133
vt 0.688987 0.683133
vt 0.688985 0.939485
vt 0.996517 0.705861
vt 0.943017 0.341549
vt 0.996517 0.341549
vt 0.943017 0.705861
vt 0.018050 0.688916
vt 0.003483 0.672649
vt 0.018050 0.672649
vt 0.003483 0.688916
vt 0.003483 0.374082
vt 0.018050 0.374082
vt 0.284218 0.705861
vt 0.018050 0.357815
vt 0.284218 0.341549
vt 0.003483 0.705861
vt 0.003483 0.357815
vt 0.003483 0.341548
vt 0.331764 0.019750
vt 0.003483 0.003483
vt 0.331764 0.003483
vt 0.003483 0.019750
vt 0.331764 0.318316
vt 0.003483 0.318316
vt 0.331764 0.334583
vt 0.003483 0.334583
vt 0.291183 0.358493
vt 0.305751 0.374760
vt 0.291183 0.374760
vt 0.305751 0.358493
vt 0.305751 0.673327
vt 0.291183 0.673327
vt 0.291183 0.341549
vt 0.571919 0.341548
vt 0.305751 0.689594
vt 0.571919 0.705861
vt 0.291183 0.689594
vt 0.291183 0.705861
vt 0.688987 0.661992
vt 0.621166 0.498287
vt 0.875400 0.380733
vt 0.875586 0.419918
vt 0.788881 0.918343
vt 0.806055 0.661992
vt 0.806055 0.918343
vt 0.875400 0.419918
vt 0.811861 0.341549
vt 0.875400 0.341549
vt 0.578884 0.498287
vt 0.811861 0.655027
vt 0.875400 0.655027
vt 0.875400 0.615842
vt 0.875400 0.576657
vt 0.875586 0.576657
vt 0.397442 0.723654
vt 0.384112 0.740064
vt 0.384112 0.712826
vt 0.667010 0.019750
vt 0.338729 0.003483
vt 0.667010 0.003483
vt 0.338729 0.019750
vt 0.667010 0.318316
vt 0.338729 0.318316
vt 0.667010 0.334583
vt 0.338729 0.334583
vt 0.936051 0.705861
vt 0.882551 0.341549
vt 0.936051 0.341549
vt 0.882551 0.705861
vt 0.737518 0.003483
vt 0.673975 0.316961
vt 0.673975 0.003483
vt 0.737518 0.316961
vt 0.785318 0.123171
vt 0.831115 0.123171
vt 0.970509 0.160222
vt 0.831115 0.197272
vt 0.785318 0.197272
vt 0.742417 0.932450
vt 0.758684 0.692960
vt 0.758684 0.932450
vt 0.742417 0.692960
vt 0.758684 0.661992
vt 0.742417 0.661992
vt 0.712219 0.692960
vt 0.695952 0.932450
vt 0.695952 0.692960
vt 0.712219 0.932450
vt 0.712219 0.661992
vt 0.695952 0.661992
vt 0.625349 0.661992
vt 0.633482 0.686681
vt 0.625349 0.698771
vt 0.641616 0.661992
vt 0.641616 0.698771
vt 0.641616 0.983197
vt 0.625349 0.983197
vt 0.415608 0.712826
vt 0.404407 0.729093
vt 0.404407 0.712826
vt 0.415608 0.729093
vt 0.648581 0.698771
vt 0.664848 0.983197
vt 0.648581 0.983197
vt 0.664848 0.698771
vt 0.656714 0.686681
vt 0.648581 0.661992
vt 0.664848 0.661992
vt 0.337648 0.766327
vt 0.353915 0.727286
vt 0.353915 0.766327
vt 0.337648 0.727286
vt 0.353915 0.712826
vt 0.337648 0.712826
vt 0.719184 0.661992
vt 0.735451 0.670768
vt 0.719184 0.670768
vt 0.735451 0.661992
vt 0.096411 0.729999
vt 0.112678 0.776365
vt 0.096411 0.776365
vt 0.112678 0.712826
vt 0.096411 0.712826
vt 0.205607 0.712826
vt 0.189340 0.766327
vt 0.189340 0.712826
vt 0.205607 0.766327
vt 0.719184 0.910259
vt 0.735451 0.910259
vt 0.719184 0.941227
vt 0.735451 0.941227
vt 0.267951 0.766327
vt 0.284218 0.712826
vt 0.284218 0.766327
vt 0.267951 0.712826
vt 0.003483 0.712826
vt 0.019750 0.776369
vt 0.003483 0.776369
vt 0.019750 0.730000
vt 0.019750 0.712826
vt 0.307450 0.712826
vt 0.291183 0.727286
vt 0.291183 0.712826
vt 0.307450 0.727286
vt 0.291183 0.766327
vt 0.307450 0.766327
vt 0.433773 0.712826
vt 0.422573 0.729093
vt 0.422573 0.712826
vt 0.433773 0.729093
vt 0.451939 0.712826
vt 0.440738 0.729093
vt 0.440738 0.712826
vt 0.451939 0.729093
vt 0.781916 0.901482
vt 0.765649 0.932450
vt 0.765649 0.901482
vt 0.781916 0.932450
vt 0.781916 0.661992
vt 0.765649 0.661992
vt 0.026715 0.730000
vt 0.042982 0.776369
vt 0.026715 0.776369
vt 0.042982 0.712826
vt 0.026715 0.712826
vt 0.228839 0.775103
vt 0.212572 0.766327
vt 0.228839 0.766327
vt 0.212572 0.775103
vt 0.578884 0.698773
vt 0.595151 0.983216
vt 0.578884 0.983216
vt 0.595151 0.698773
vt 0.587018 0.686682
vt 0.578884 0.661992
vt 0.595151 0.661992
vt 0.602116 0.661992
vt 0.610250 0.686682
vt 0.602116 0.698773
vt 0.618383 0.661992
vt 0.618383 0.698773
vt 0.618383 0.983216
vt 0.602116 0.983216
vt 0.712219 0.941227
vt 0.695952 0.941227
vt 0.252072 0.712826
vt 0.235805 0.727286
vt 0.235805 0.712826
vt 0.252072 0.727286
vt 0.235805 0.766327
vt 0.252072 0.766327
vt 0.119644 0.712826
vt 0.135911 0.776365
vt 0.119644 0.776365
vt 0.135911 0.729999
vt 0.135911 0.712826
vt 0.252072 0.775103
vt 0.235805 0.775103
vt 0.049947 0.712826
vt 0.066214 0.776369
vt 0.049947 0.776369
vt 0.066214 0.730000
vt 0.066214 0.712826
vt 0.314416 0.766327
vt 0.330683 0.712826
vt 0.330683 0.766327
vt 0.314416 0.712826
vt 0.142876 0.712826
vt 0.159143 0.776365
vt 0.142876 0.776365
vt 0.159143 0.729999
vt 0.159143 0.712826
vt 0.073179 0.730000
vt 0.089446 0.776369
vt 0.073179 0.776369
vt 0.089446 0.712826
vt 0.073179 0.712826
vt 0.360880 0.727286
vt 0.377147 0.712826
vt 0.377147 0.727286
vt 0.360880 0.712826
vt 0.360880 0.766327
vt 0.377147 0.766327
vt 0.470104 0.712826
vt 0.458904 0.729093
vt 0.458904 0.712826
vt 0.470104 0.729093
vt 0.205607 0.775103
vt 0.189340 0.775103
vt 0.166108 0.729999
vt 0.182375 0.776365
vt 0.166108 0.776365
vt 0.182375 0.712826
vt 0.166108 0.712826
vt 0.307450 0.775103
vt 0.291183 0.775103
vt 0.488269 0.712826
vt 0.477069 0.729093
vt 0.477069 0.712826
vt 0.488269 0.729093
vt 0.228839 0.712826
vt 0.212572 0.712826
vt 0.506435 0.712826
vt 0.495235 0.729093
vt 0.495235 0.712826
vt 0.506435 0.729093
vn 0.9556 -0.2946 -0.0000
vn -1.0000 0.0000 0.0000
vn -0.8297 -0.5582 0.0000
vn -0.8297 -0.5582 0.0001
vn -0.7252 0.6885 0.0000
vn 0.8297 -0.5582 0.0000
vn 0.0000 -1.0000 -0.0000
vn -0.3947 0.1825 0.9005
vn -0.9556 -0.2946 -0.0000
vn 0.0000 -0.0000 1.0000
vn 0.3947 0.1825 0.9005
vn 0.7252 0.6885 0.0000
vn 1.0000 0.0000 0.0000
vn 0.0000 0.0000 -1.0000
vn 0.0000 1.0000 0.0000
s 1
f 1/1/1 2/2/1 3/3/1
f 4/4/2 5/5/2 6/6/2
f 5/5/2 4/4/2 7/7/2
f 8/8/3 9/9/3 10/10/3
f 9/9/3 8/8/3 11/11/3
f 12/12/3 10/10/3 9/9/3
f 10/10/3 12/12/3 13/13/3
f 13/13/3 14/14/3 10/10/3
f 10/10/3 14/14/3 8/8/3
f 8/8/3 14/14/3 11/11/3
f 15/15/3 14/14/3 13/13/3
f 14/14/3 15/15/3 16/16/3
f 11/11/3 14/14/3 17/17/3
f 18/18/4 16/16/3 15/15/3
f 16/16/3 18/18/3 19/19/3
f 20/20/5 21/21/5 22/22/5
f 21/21/5 20/20/5 23/23/5
f 23/23/5 20/20/5 24/24/5
f 23/23/5 24/24/5 25/25/5
f 25/25/5 24/24/5 26/26/5
f 25/25/5 26/26/5 27/27/5
f 11/28/6 25/29/6 9/30/6
f 25/29/6 11/28/6 27/31/6
f 23/32/6 9/30/6 25/29/6
f 9/30/6 23/32/6 12/33/6
f 17/34/6 27/31/6 11/28/6
f 7/35/6 23/32/6 25/29/6
f 7/35/6 25/29/6 27/31/6
f 7/35/6 27/31/6 17/34/6
f 7/35/6 21/36/6 23/32/6
f 5/37/6 21/36/6 7/35/6
f 5/37/6 18/38/6 21/36/6
f 18/38/6 5/37/6 19/39/6
f 28/40/7 2/2/7 1/1/7
f 3/41/8 28/42/8 1/43/8
f 29/44/9 3/45/9 30/46/9
f 3/41/10 28/42/10 2/47/10
f 7/48/10 28/42/10 3/41/10
f 28/42/10 7/48/10 4/49/10
f 7/48/10 3/41/10 17/50/10
f 3/41/10 14/51/10 17/50/10
f 3/41/10 31/52/10 14/51/10
f 31/52/10 3/41/10 32/53/10
f 3/41/10 30/54/10 32/53/10
f 3/41/11 29/55/11 32/53/11
f 30/56/7 32/57/7 29/58/7
f 13/59/12 33/60/12 15/61/12
f 33/60/12 13/59/12 34/62/12
f 34/62/12 13/59/12 10/63/12
f 34/62/12 10/63/12 35/64/12
f 35/64/12 10/63/12 8/65/12
f 35/64/12 8/65/12 36/66/12
f 14/67/13 37/68/13 16/69/13
f 37/68/13 14/67/13 31/70/13
f 5/71/14 37/72/14 6/73/14
f 37/72/14 5/71/14 16/74/14
f 16/74/14 5/71/14 38/75/14
f 38/75/14 5/71/14 39/76/14
f 39/76/14 5/71/14 19/77/14
f 39/76/14 19/77/14 40/78/14
f 16/74/14 40/78/14 19/77/14
f 40/78/14 16/74/14 41/79/14
f 41/79/14 16/74/14 38/75/14
f 42/80/2 21/81/2 43/82/2
f 21/81/2 42/80/2 23/83/2
f 23/83/2 44/84/2 21/81/2
f 44/84/2 23/83/2 45/85/2
f 8/86/13 46/87/13 10/88/13
f 46/87/13 8/86/13 47/89/13
f 10/88/13 48/90/13 8/86/13
f 48/90/13 10/88/13 49/91/13
f 48/92/10 11/93/10 8/94/10
f 50/95/10 11/93/10 48/92/10
f 11/93/10 50/95/10 27/96/10
f 27/96/10 8/94/10 11/93/10
f 51/97/10 8/94/10 27/96/10
f 8/94/10 51/97/10 47/98/10
f 44/99/15 52/100/15 53/101/15
f 52/100/15 44/99/15 45/102/15
f 13/103/10 42/104/10 54/105/10
f 42/104/10 13/103/10 23/106/10
f 23/106/10 13/103/10 12/107/10
f 52/108/10 12/107/10 13/103/10
f 12/107/10 45/109/10 23/106/10
f 45/109/10 12/107/10 52/108/10
f 55/110/2 35/111/2 56/112/2
f 35/111/2 55/110/2 36/113/2
f 36/113/2 57/114/2 35/111/2
f 57/114/2 36/113/2 58/115/2
f 42/116/7 59/117/7 54/118/7
f 59/117/7 42/116/7 43/119/7
f 20/120/10 60/121/10 61/122/10
f 60/121/10 20/120/10 62/123/10
f 62/123/10 20/120/10 63/124/10
f 64/125/13 65/126/13 66/127/13
f 65/126/13 64/125/13 67/128/13
f 13/129/13 59/117/13 15/130/13
f 59/117/13 13/129/13 54/118/13
f 15/130/13 52/131/13 13/129/13
f 52/131/13 15/130/13 53/132/13
f 68/133/2 69/134/2 70/135/2
f 69/134/2 68/133/2 71/136/2
f 69/137/14 72/138/14 70/139/14
f 72/138/14 69/137/14 24/140/14
f 24/140/14 69/137/14 73/141/14
f 63/142/13 22/143/13 74/144/13
f 22/143/13 63/142/13 20/145/13
f 20/145/13 75/146/13 22/143/13
f 75/146/13 20/145/13 61/147/13
f 76/148/15 48/149/15 49/150/15
f 48/149/15 76/148/15 50/151/15
f 57/152/15 64/153/15 66/154/15
f 64/153/15 57/152/15 58/155/15
f 27/156/2 76/157/2 25/158/2
f 76/157/2 27/156/2 50/159/2
f 25/158/2 51/160/2 27/156/2
f 51/160/2 25/158/2 77/161/2
f 35/162/14 65/163/14 56/164/14
f 65/163/14 35/162/14 66/165/14
f 66/165/14 35/162/14 57/166/14
f 78/167/7 79/168/7 80/169/7
f 79/168/7 78/167/7 81/170/7
f 25/171/14 46/172/14 77/173/14
f 46/172/14 25/171/14 10/174/14
f 10/174/14 25/171/14 9/175/14
f 76/176/14 9/175/14 25/171/14
f 9/175/14 49/177/14 10/174/14
f 49/177/14 9/175/14 76/176/14
f 44/178/14 18/179/14 21/180/14
f 53/181/14 18/179/14 44/178/14
f 18/179/14 53/181/14 15/182/14
f 15/182/14 21/180/14 18/179/14
f 59/183/14 21/180/14 15/182/14
f 21/180/14 59/183/14 43/184/14
f 51/185/7 46/87/7 47/89/7
f 46/87/7 51/185/7 77/186/7
f 82/187/13 24/188/13 73/189/13
f 24/188/13 82/187/13 26/190/13
f 26/190/13 72/191/13 24/188/13
f 72/191/13 26/190/13 83/192/13
f 64/193/10 55/194/10 67/195/10
f 55/194/10 64/193/10 36/196/10
f 36/196/10 64/193/10 58/197/10
f 68/198/7 72/191/7 83/192/7
f 72/191/7 68/198/7 70/199/7
f 84/200/14 75/201/14 85/202/14
f 75/201/14 84/200/14 22/203/14
f 22/203/14 84/200/14 74/204/14
f 60/205/2 84/206/2 85/207/2
f 84/206/2 60/205/2 62/208/2
f 86/209/10 78/210/10 80/211/10
f 78/210/10 86/209/10 34/212/10
f 34/212/10 86/209/10 87/213/10
f 33/214/14 79/215/14 81/216/14
f 79/215/14 33/214/14 88/217/14
f 88/217/14 33/214/14 89/218/14
f 34/219/2 89/220/2 33/221/2
f 89/220/2 34/219/2 87/222/2
f 33/221/2 78/223/2 34/219/2
f 78/223/2 33/221/2 81/224/2
f 89/225/15 86/226/15 88/227/15
f 86/226/15 89/225/15 87/228/15
f 55/229/7 65/126/7 67/128/7
f 65/126/7 55/229/7 56/230/7
f 26/231/10 68/232/10 83/233/10
f 68/232/10 26/231/10 71/234/10
f 71/234/10 26/231/10 82/235/10
f 60/236/7 75/146/7 61/147/7
f 75/146/7 60/236/7 85/237/7
f 84/238/15 63/239/15 74/240/15
f 63/239/15 84/238/15 62/241/15
f 86/242/13 79/168/13 88/243/13
f 79/168/13 86/242/13 80/169/13
f 69/244/15 82/245/15 73/246/15
f 82/245/15 69/244/15 71/247/15
