# Blender v2.92.0 OBJ File: 'kenney_OGConvert.blend'
# www.blender.org
o tree_blocks_dark
v 0.045000 0.585000 0.045000
v 0.045000 0.310000 -0.045000
v 0.045000 0.585000 -0.045000
v 0.045000 0.310000 0.045000
v -0.069750 -0.000000 0.069750
v 0.069750 0.000000 -0.069750
v 0.069750 -0.000000 0.069750
v -0.069750 0.000000 -0.069750
v -0.045000 0.585000 -0.045000
v -0.045000 0.310000 -0.045000
v -0.045000 0.310000 0.045000
v -0.045000 0.585000 0.045000
v -0.300000 0.585000 0.300000
v -0.300000 0.801360 0.082500
v -0.300000 0.585000 0.082500
v -0.300000 0.801360 0.300000
v -0.085663 1.185000 -0.053828
v 0.250000 1.135000 -0.053828
v -0.085663 1.135000 -0.053828
v 0.300000 1.185000 -0.053828
v 0.300000 0.835000 -0.053828
v 0.250000 0.835000 -0.053828
v 0.250000 0.635000 0.250000
v 0.055342 0.635000 0.055351
v 0.250000 0.635000 -0.250000
v -0.082500 0.635000 0.250000
v -0.082500 0.635000 0.082500
v -0.250000 0.635000 0.055351
v -0.250000 0.635000 0.082500
v 0.055342 0.635000 -0.250000
v 0.250000 0.975000 -0.080000
v 0.300000 0.975000 -0.300000
v 0.300000 0.975000 -0.080000
v 0.250000 0.975000 -0.250000
v 0.082500 0.975000 -0.300000
v 0.082500 0.975000 -0.250000
v -0.300000 0.940000 -0.300000
v 0.055342 0.585000 -0.300000
v -0.300000 0.585000 -0.300000
v 0.055342 0.940000 -0.300000
v -0.250000 0.940000 0.055351
v -0.250000 0.801360 0.082500
v -0.250000 1.135000 0.250000
v -0.250000 1.135000 -0.250000
v -0.250000 0.940000 -0.250000
v -0.250000 0.801360 0.250000
v 0.082500 1.185000 -0.300000
v 0.300000 1.185000 -0.080000
v 0.300000 1.185000 -0.300000
v 0.082500 1.185000 -0.080000
v -0.085663 0.835000 0.300000
v -0.085663 1.135000 0.250000
v -0.085663 0.835000 0.250000
v -0.085663 1.185000 0.300000
v 0.250000 1.135000 -0.080000
v 0.250000 0.835000 0.250000
v 0.300000 0.835000 0.300000
v -0.082500 0.585000 0.082500
v 0.300000 1.185000 0.300000
v 0.082500 1.135000 -0.250000
v 0.082500 1.135000 -0.080000
v 0.055342 0.585000 0.055351
v -0.300000 0.585000 0.055351
v 0.055342 0.940000 -0.250000
v -0.082500 0.801360 0.300000
v -0.082500 0.585000 0.300000
v -0.082500 0.801360 0.250000
v -0.300000 0.940000 0.055351
vt 0.871532 0.633683
vt 0.832576 0.752713
vt 0.832576 0.633683
vt 0.871532 0.752713
vt 0.330523 0.622358
vt 0.390905 0.561976
vt 0.390905 0.622358
vt 0.330523 0.561976
vt 0.941600 0.886970
vt 0.902644 0.767940
vt 0.941600 0.767940
vt 0.902644 0.886970
vt 0.925122 0.287368
vt 0.974792 0.421625
vt 0.914409 0.421625
vt 0.964079 0.287368
vt 0.925122 0.168338
vt 0.964079 0.168338
vt 0.891931 0.633683
vt 0.952313 0.633683
vt 0.844341 0.421626
vt 0.894010 0.287368
vt 0.904723 0.421626
vt 0.855054 0.287368
vt 0.894010 0.168338
vt 0.855054 0.168338
vt 0.882245 0.886970
vt 0.821863 0.886970
vt 0.306153 0.891327
vt 0.212504 0.797182
vt 0.306153 0.797182
vt 0.212504 0.891327
vt 0.618237 0.623997
vt 0.639878 0.478706
vt 0.639878 0.623997
vt 0.618237 0.457063
vt 0.769729 0.457063
vt 0.769729 0.478706
vt 0.221267 0.221267
vt 0.137010 0.137014
vt 0.221267 0.004843
vt 0.077345 0.221267
vt 0.077345 0.148765
vt 0.004843 0.137014
vt 0.004843 0.148765
vt 0.137010 0.004843
vt 0.755664 0.426405
vt 0.777307 0.331178
vt 0.777307 0.426405
vt 0.755664 0.352821
vt 0.683162 0.331178
vt 0.683162 0.352820
vt 0.658520 0.787492
vt 0.812177 0.633683
vt 0.812177 0.787492
vt 0.658520 0.633683
vt 0.447372 0.148765
vt 0.315356 0.137014
vt 0.447372 0.137014
vt 0.375365 0.148765
vt 0.230953 0.221267
vt 0.230953 0.004843
vt 0.315356 0.004843
vt 0.375365 0.221267
vt 0.424667 0.457063
vt 0.330522 0.552290
vt 0.330522 0.457063
vt 0.424667 0.552290
vt 0.834655 0.321492
vt 0.704804 0.299850
vt 0.834655 0.299850
vt 0.683162 0.321492
vt 0.683162 0.168338
vt 0.704804 0.168338
vt 0.447372 0.315866
vt 0.378118 0.304537
vt 0.447372 0.304537
vt 0.317521 0.315866
vt 0.230953 0.230953
vt 0.378118 0.230953
vt 0.230953 0.447377
vt 0.317521 0.447377
vt 0.749416 0.892409
vt 0.658520 0.797182
vt 0.749416 0.797182
vt 0.658520 0.892409
vt 0.004843 0.623997
vt 0.026485 0.602355
vt 0.157997 0.623997
vt 0.004843 0.457063
vt 0.026485 0.457063
vt 0.157997 0.602355
vt 0.528817 0.891327
vt 0.507175 0.869684
vt 0.528817 0.797182
vt 0.435168 0.891327
vt 0.435168 0.869684
vt 0.507175 0.797182
vt 0.608551 0.457063
vt 0.457058 0.623997
vt 0.457058 0.457063
vt 0.608551 0.623997
vt 0.930908 0.610217
vt 0.779415 0.457063
vt 0.930908 0.457063
vt 0.779415 0.610217
vt 0.846505 0.078427
vt 0.937401 0.100070
vt 0.846505 0.100070
vt 0.915759 0.078427
vt 0.937401 0.004843
vt 0.915759 0.004843
vt 0.158652 0.787496
vt 0.154176 0.783016
vt 0.158652 0.633683
vt 0.004843 0.787496
vt 0.115219 0.783016
vt 0.115219 0.744059
vt 0.154176 0.744059
vt 0.004843 0.633683
vt 0.495177 0.765854
vt 0.648834 0.787496
vt 0.495177 0.787496
vt 0.627192 0.765854
vt 0.648834 0.633683
vt 0.627192 0.633683
vt 0.632152 0.797182
vt 0.538503 0.891327
vt 0.538503 0.797182
vt 0.632152 0.891327
vt 0.004843 0.995157
vt 0.095739 0.901012
vt 0.095739 0.995157
vt 0.004843 0.901012
vt 0.004843 0.891326
vt 0.098988 0.797182
vt 0.098988 0.891327
vt 0.004843 0.797182
vt 0.821863 0.990801
vt 0.912759 0.969158
vt 0.912759 0.990801
vt 0.843505 0.969158
vt 0.843505 0.896656
vt 0.821863 0.896656
vt 0.320837 0.623997
vt 0.167683 0.457063
vt 0.320837 0.457063
vt 0.167683 0.623997
vt 0.202818 0.891327
vt 0.130316 0.869684
vt 0.202818 0.869684
vt 0.108673 0.891327
vt 0.108673 0.797182
vt 0.130316 0.797182
vt 0.425482 0.891327
vt 0.353475 0.869684
vt 0.425482 0.869684
vt 0.331834 0.891327
vt 0.331834 0.797182
vt 0.353475 0.797182
vt 0.704804 0.004843
vt 0.683162 0.158652
vt 0.683162 0.004843
vt 0.704804 0.137010
vt 0.836819 0.158652
vt 0.836819 0.137010
vt 0.673476 0.230953
vt 0.589073 0.363120
vt 0.589073 0.230953
vt 0.604222 0.374875
vt 0.673476 0.374875
vt 0.604222 0.447377
vt 0.457058 0.447377
vt 0.457058 0.363120
vt 0.586909 0.221267
vt 0.673476 0.077345
vt 0.673476 0.221267
vt 0.601469 0.077345
vt 0.601469 0.004843
vt 0.586909 0.075976
vt 0.457058 0.004843
vt 0.457058 0.075976
vt 0.485491 0.787496
vt 0.331834 0.633683
vt 0.485491 0.633683
vt 0.331834 0.787496
vt 0.322148 0.633683
vt 0.168338 0.655325
vt 0.168338 0.633683
vt 0.300505 0.655325
vt 0.300505 0.787496
vt 0.322148 0.787496
vt 0.004843 0.447377
vt 0.148765 0.373793
vt 0.148765 0.447377
vt 0.075976 0.362465
vt 0.075976 0.230953
vt 0.004843 0.230953
vt 0.221267 0.362465
vt 0.221267 0.373793
vn 1.0000 0.0000 -0.0000
vn -0.0000 -1.0000 -0.0000
vn -0.0000 0.0000 -1.0000
vn 0.0000 0.0796 0.9968
vn 0.0000 -0.0000 1.0000
vn -0.0000 0.0796 -0.9968
vn -0.9968 0.0796 0.0000
vn -1.0000 -0.0000 0.0000
vn 0.9968 0.0796 -0.0000
vn 0.0000 1.0000 -0.0000
s 1
f 1/1/1 2/2/1 3/3/1
f 2/2/1 1/1/1 4/4/1
f 5/5/2 6/6/2 7/7/2
f 6/6/2 5/5/2 8/8/2
f 9/9/3 2/10/3 10/11/3
f 2/10/3 9/9/3 3/12/3
f 4/13/4 5/14/4 7/15/4
f 5/14/4 4/13/4 11/16/4
f 1/17/5 11/16/5 4/13/5
f 11/16/5 1/17/5 12/18/5
f 10/11/6 6/19/6 8/20/6
f 6/19/6 10/11/6 2/10/6
f 5/21/7 10/22/7 8/23/7
f 10/22/7 5/21/7 11/24/7
f 11/24/8 9/25/8 10/22/8
f 9/25/8 11/24/8 12/26/8
f 2/2/9 7/27/9 6/28/9
f 7/27/9 2/2/9 4/4/9
f 13/29/8 14/30/8 15/31/8
f 14/30/8 13/29/8 16/32/8
f 17/33/3 18/34/3 19/35/3
f 20/36/3 18/34/3 17/33/3
f 21/37/3 18/34/3 20/36/3
f 18/34/3 21/37/3 22/38/3
f 23/39/2 24/40/2 25/41/2
f 24/40/2 23/39/2 26/42/2
f 24/40/2 26/42/2 27/43/2
f 24/40/2 27/43/2 28/44/2
f 28/44/2 27/43/2 29/45/2
f 30/46/2 25/41/2 24/40/2
f 31/47/2 32/48/2 33/49/2
f 32/48/2 31/47/2 34/50/2
f 32/48/2 34/50/2 35/51/2
f 35/51/2 34/50/2 36/52/2
f 37/53/3 38/54/3 39/55/3
f 38/54/3 37/53/3 40/56/3
f 29/57/8 41/58/8 28/59/8
f 42/60/8 41/58/8 29/57/8
f 43/61/8 41/58/8 42/60/8
f 44/62/8 41/58/8 43/61/8
f 41/58/8 44/62/8 45/63/8
f 43/61/8 42/60/8 46/64/8
f 47/65/10 48/66/10 49/67/10
f 48/66/10 47/65/10 50/68/10
f 51/69/8 52/70/8 53/71/8
f 54/72/8 52/70/8 51/69/8
f 17/73/8 52/70/8 54/72/8
f 52/70/8 17/73/8 19/74/8
f 18/75/1 31/76/1 55/77/1
f 22/78/1 31/76/1 18/75/1
f 25/79/1 31/76/1 22/78/1
f 31/76/1 25/79/1 34/80/1
f 25/79/1 22/78/1 23/81/1
f 23/81/1 22/78/1 56/82/1
f 48/83/1 32/84/1 49/85/1
f 32/84/1 48/83/1 33/86/1
f 57/87/2 56/88/2 21/89/2
f 56/88/2 57/87/2 51/90/2
f 56/88/2 51/90/2 53/91/2
f 22/92/2 21/89/2 56/88/2
f 15/93/3 29/94/3 58/95/3
f 29/94/3 15/93/3 14/96/3
f 29/94/3 14/96/3 42/97/3
f 27/98/3 58/95/3 29/94/3
f 59/99/5 51/100/5 57/101/5
f 51/100/5 59/99/5 54/102/5
f 59/103/1 21/104/1 20/105/1
f 21/104/1 59/103/1 57/106/1
f 36/107/8 47/108/8 35/109/8
f 47/108/8 36/107/8 60/110/8
f 47/108/8 60/110/8 50/111/8
f 50/111/8 60/110/8 61/112/8
f 62/113/2 1/114/2 38/115/2
f 1/114/2 62/113/2 63/116/2
f 1/114/2 63/116/2 12/117/2
f 12/117/2 63/116/2 9/118/2
f 3/119/2 38/115/2 1/114/2
f 38/115/2 3/119/2 39/120/2
f 39/120/2 3/119/2 9/118/2
f 39/120/2 9/118/2 63/116/2
f 64/121/1 38/122/1 40/123/1
f 38/122/1 64/121/1 30/124/1
f 38/122/1 30/124/1 62/125/1
f 62/125/1 30/124/1 24/126/1
f 65/127/5 13/128/5 66/129/5
f 13/128/5 65/127/5 16/130/5
f 47/131/3 32/132/3 35/133/3
f 32/132/3 47/131/3 49/134/3
f 13/135/2 58/136/2 66/137/2
f 58/136/2 13/135/2 15/138/2
f 48/139/5 31/140/5 33/141/5
f 31/140/5 48/139/5 55/142/5
f 55/142/5 48/139/5 61/143/5
f 61/143/5 48/139/5 50/144/5
f 17/145/10 59/146/10 20/147/10
f 59/146/10 17/145/10 54/148/10
f 14/149/10 46/150/10 42/151/10
f 16/152/10 46/150/10 14/149/10
f 65/153/10 46/150/10 16/152/10
f 46/150/10 65/153/10 67/154/10
f 65/155/1 26/156/1 67/157/1
f 66/158/1 26/156/1 65/155/1
f 58/159/1 26/156/1 66/158/1
f 26/156/1 58/159/1 27/160/1
f 24/161/5 63/162/5 62/163/5
f 63/162/5 24/161/5 28/164/5
f 63/162/5 28/164/5 68/165/5
f 68/165/5 28/164/5 41/166/5
f 44/167/3 64/168/3 45/169/3
f 64/168/3 44/167/3 36/170/3
f 36/170/3 44/167/3 60/171/3
f 34/172/3 64/168/3 36/170/3
f 25/173/3 64/168/3 34/172/3
f 64/168/3 25/173/3 30/174/3
f 56/175/5 26/176/5 23/177/5
f 26/176/5 56/175/5 67/178/5
f 67/178/5 56/175/5 46/179/5
f 46/179/5 56/175/5 53/180/5
f 46/179/5 53/180/5 43/181/5
f 43/181/5 53/180/5 52/182/5
f 63/183/8 37/184/8 39/185/8
f 37/184/8 63/183/8 68/186/8
f 37/187/10 64/188/10 40/189/10
f 64/188/10 37/187/10 45/190/10
f 45/190/10 37/187/10 41/191/10
f 41/191/10 37/187/10 68/192/10
f 44/193/10 61/194/10 60/195/10
f 61/194/10 44/193/10 19/196/10
f 19/196/10 44/193/10 52/197/10
f 52/197/10 44/193/10 43/198/10
f 18/199/10 61/194/10 19/196/10
f 61/194/10 18/199/10 55/200/10
