# Blender v2.92.0 OBJ File: 'kenney_OGConvert.blend'
# www.blender.org
o tree_pineGroundA
v 0.084089 0.610497 0.048549
v 0.000000 0.380162 0.167507
v 0.145065 0.380162 0.083753
v 0.000000 0.610497 0.097098
v 0.000000 0.914469 0.000000
v 0.103721 0.610497 -0.059884
v -0.000000 0.610497 -0.119767
v -0.000000 0.380162 -0.132120
v 0.187350 0.180530 -0.108167
v -0.000000 0.180530 -0.216333
v 0.114419 0.380162 -0.066060
v -0.000000 0.610497 -0.097097
v 0.145065 0.380162 -0.083753
v -0.000000 0.380162 -0.167507
v 0.084089 0.610497 -0.048549
v 0.000000 0.610497 0.119767
v 0.103722 0.610497 0.059884
v -0.187350 0.180530 0.108167
v -0.114420 0.380162 -0.066060
v -0.187350 0.180530 -0.108166
v -0.114419 0.380162 0.066060
v -0.103721 0.610497 0.059884
v -0.103722 0.610497 -0.059884
v -0.084089 0.610497 -0.048549
v -0.145065 0.380162 -0.083753
v 0.187350 0.180530 0.108166
v 0.151498 0.180530 0.087467
v 0.000000 0.180530 0.216333
v 0.000000 0.180530 0.174935
v -0.151498 0.180530 0.087467
v -0.151498 0.180530 -0.087467
v 0.151498 0.180530 -0.087467
v -0.000000 0.180530 -0.174935
v -0.145065 0.380162 0.083753
v -0.084089 0.610497 0.048549
v 0.240192 -0.000000 0.138675
v 0.240192 0.000000 -0.138675
v 0.114420 0.380162 0.066060
v 0.000000 0.380162 0.132120
v -0.240192 -0.000000 0.138675
v -0.240192 0.000000 -0.138675
v 0.000000 -0.000000 0.277350
v -0.000000 0.000000 -0.277350
vt 0.773687 0.745503
vt 0.949906 0.647233
vt 0.949906 0.771651
vt 0.773687 0.673382
vt 0.370669 0.748200
vt 0.370669 0.978088
vt 0.319392 0.985332
vt 0.160828 0.630655
vt 0.050870 0.742272
vt 0.002964 0.661930
vt 0.190086 0.679722
vt 0.179183 0.908678
vt 0.040057 0.997036
vt 0.002964 0.934827
vt 0.200685 0.944739
vt 0.540654 0.748200
vt 0.489376 0.985332
vt 0.407348 0.950908
vt 0.050870 0.420903
vt 0.160828 0.532521
vt 0.002964 0.501246
vt 0.190086 0.483454
vt 0.206612 0.909240
vt 0.237363 0.950908
vt 0.179183 0.836558
vt 0.002964 0.810409
vt 0.365704 0.083306
vt 0.392334 0.098681
vt 0.365704 0.243991
vt 0.504861 0.002964
vt 0.504861 0.033713
vt 0.644018 0.083306
vt 0.617389 0.098681
vt 0.617389 0.228616
vt 0.392334 0.228616
vt 0.504861 0.324333
vt 0.504861 0.293584
vt 0.644018 0.243991
vt 0.752185 0.781563
vt 0.912813 0.833860
vt 0.540654 0.978088
vt 0.040057 0.748200
vt 0.200685 0.800498
vt 0.746258 0.406331
vt 0.558945 0.433263
vt 0.620363 0.330261
vt 0.707519 0.471299
vt 0.912812 0.585024
vt 0.752185 0.637322
vt 0.859934 0.330261
vt 0.859934 0.356544
vt 0.752185 0.392470
vt 0.967684 0.392470
vt 0.944921 0.405611
vt 0.967684 0.516888
vt 0.944921 0.503746
vt 0.859935 0.552813
vt 0.774948 0.405612
vt 0.752185 0.516888
vt 0.774948 0.503746
vt 0.859935 0.579097
vt 0.427122 0.330261
vt 0.514279 0.471299
vt 0.365704 0.433264
vt 0.553017 0.406331
vt 0.679203 0.114581
vt 0.789162 0.002964
vt 0.837068 0.083306
vt 0.649946 0.065514
vt 0.196013 0.465383
vt 0.210596 0.473802
vt 0.196013 0.554342
vt 0.273054 0.420903
vt 0.273054 0.437742
vt 0.350095 0.465383
vt 0.335512 0.473802
vt 0.335512 0.545923
vt 0.210596 0.545923
vt 0.273054 0.598821
vt 0.273054 0.581983
vt 0.350095 0.554342
vt 0.376597 0.909240
vt 0.649946 0.261783
vt 0.837068 0.243991
vt 0.789162 0.324333
vt 0.679203 0.212716
vt 0.359776 0.311973
vt 0.181370 0.002964
vt 0.359777 0.105967
vt 0.002964 0.105967
vt 0.181370 0.414976
vt 0.002964 0.311973
vt 0.514279 0.601234
vt 0.427122 0.742272
vt 0.365704 0.639269
vt 0.553017 0.666202
vt 0.707519 0.601234
vt 0.620363 0.742272
vt 0.558945 0.639269
vt 0.746258 0.666202
vn 0.4834 0.2559 0.8372
vn 0.4732 0.3229 -0.8196
vn 0.4696 0.3431 -0.8134
vn 0.4833 0.2559 -0.8372
vn 0.4834 0.2559 -0.8372
vn 0.4732 0.3229 0.8196
vn -0.9393 0.3431 0.0000
vn -0.9464 0.3229 0.0000
vn -0.4732 0.3229 -0.8196
vn -0.4834 0.2559 -0.8372
vn 0.0000 -1.0000 -0.0000
vn 0.9667 0.2559 -0.0000
vn -0.4732 0.3229 0.8196
vn -0.9667 0.2559 0.0000
vn 0.8975 0.4410 -0.0000
vn -0.4833 0.2559 0.8372
vn -0.4834 0.2559 0.8372
vn -0.8975 0.4410 0.0000
vn -0.4696 0.3431 0.8134
vn 0.9464 0.3229 0.0000
vn 0.9393 0.3431 -0.0000
vn 0.4488 0.4410 -0.7773
vn -0.4488 0.4410 -0.7773
vn -0.4488 0.4410 0.7773
vn 0.4696 0.3431 0.8134
vn 0.4488 0.4410 0.7773
vn -0.4696 0.3431 -0.8134
s 1
f 1/1/1 2/2/1 3/3/1
f 2/2/1 1/1/1 4/4/1
f 5/5/2 6/6/2 7/7/2
f 8/8/3 9/9/3 10/10/3
f 9/9/3 8/8/3 11/11/3
f 12/12/4 13/13/5 14/14/5
f 13/13/5 12/12/4 15/15/4
f 5/16/6 16/17/6 17/18/6
f 18/19/7 19/20/7 20/21/7
f 19/20/7 18/19/7 21/22/7
f 22/23/8 5/5/8 23/24/8
f 5/5/9 7/7/9 23/24/9
f 24/25/10 14/14/10 25/26/10
f 14/14/10 24/25/10 12/12/10
f 26/27/11 27/28/11 9/29/11
f 27/28/11 26/27/11 28/30/11
f 27/28/11 28/30/11 29/31/11
f 29/31/11 28/30/11 18/32/11
f 29/31/11 18/32/11 30/33/11
f 30/33/11 18/32/11 31/34/11
f 32/35/11 9/29/11 27/28/11
f 9/29/11 32/35/11 10/36/11
f 10/36/11 32/35/11 33/37/11
f 10/36/11 33/37/11 31/34/11
f 10/36/11 31/34/11 20/38/11
f 20/38/11 31/34/11 18/32/11
f 15/39/12 3/3/12 13/40/12
f 3/3/12 15/39/12 1/1/12
f 5/16/13 22/41/13 16/17/13
f 34/42/14 24/25/14 25/26/14
f 24/25/14 34/42/14 35/43/14
f 32/44/15 36/45/15 37/46/15
f 36/45/15 32/44/15 27/47/15
f 4/4/16 34/48/17 2/2/17
f 34/48/17 4/4/16 35/49/16
f 3/50/11 38/51/11 13/52/11
f 38/51/11 3/50/11 2/53/11
f 38/51/11 2/53/11 39/54/11
f 39/54/11 2/53/11 34/55/11
f 39/54/11 34/55/11 21/56/11
f 21/56/11 34/55/11 19/57/11
f 11/58/11 13/52/11 38/51/11
f 13/52/11 11/58/11 14/59/11
f 14/59/11 11/58/11 8/60/11
f 14/59/11 8/60/11 25/61/11
f 25/61/11 8/60/11 19/57/11
f 25/61/11 19/57/11 34/55/11
f 40/62/18 31/63/18 41/64/18
f 31/63/18 40/62/18 30/65/18
f 39/66/19 18/67/19 28/68/19
f 18/67/19 39/66/19 21/69/19
f 17/70/11 1/71/11 6/72/11
f 1/71/11 17/70/11 16/73/11
f 1/71/11 16/73/11 4/74/11
f 4/74/11 16/73/11 22/75/11
f 4/74/11 22/75/11 35/76/11
f 35/76/11 22/75/11 24/77/11
f 15/78/11 6/72/11 1/71/11
f 6/72/11 15/78/11 7/79/11
f 7/79/11 15/78/11 12/80/11
f 7/79/11 12/80/11 24/77/11
f 7/79/11 24/77/11 23/81/11
f 23/81/11 24/77/11 22/75/11
f 17/18/20 6/82/20 5/16/20
f 11/83/21 26/84/21 9/85/21
f 26/84/21 11/83/21 38/86/21
f 42/87/11 37/88/11 36/89/11
f 37/88/11 42/87/11 43/90/11
f 43/90/11 42/87/11 40/91/11
f 43/90/11 40/91/11 41/92/11
f 33/93/22 37/94/22 43/95/22
f 37/94/22 33/93/22 32/96/22
f 31/63/23 43/95/23 41/64/23
f 43/95/23 31/63/23 33/93/23
f 29/97/24 40/98/24 42/99/24
f 40/98/24 29/97/24 30/100/24
f 38/86/25 28/68/25 26/84/25
f 28/68/25 38/86/25 39/66/25
f 27/47/26 42/99/26 36/45/26
f 42/99/26 27/47/26 29/97/26
f 19/20/27 10/10/27 20/21/27
f 10/10/27 19/20/27 8/8/27
