# Blender v2.92.0 OBJ File: 'OGConvert.blend'
# www.blender.org
o tree_thin_fall
v -2.590827 7.626306 -1.040006
v -1.449584 6.118312 -1.296864
v -2.739124 6.118312 -1.296864
v -1.597882 7.626306 -1.040006
v 1.002598 8.128504 2.011791
v -0.878862 7.260500 1.609020
v 0.770058 7.260500 1.609020
v -1.111402 8.128504 2.011791
v 0.573963 5.936448 -2.663531
v 1.367030 4.428453 -1.803614
v 0.722260 4.428453 -2.920388
v 1.070436 5.936448 -1.803614
v -0.804814 6.118312 -0.180090
v -1.591434 5.689435 -1.051173
v -1.088513 5.689435 -0.180090
v 1.594518 7.260500 0.181013
v 2.059597 8.128504 0.181013
v -2.168402 8.128504 0.181013
v -0.868293 11.180504 -1.228685
v -1.111402 8.128504 -1.649764
v -1.682182 11.180504 0.181013
v -1.914856 7.992870 -0.490989
v -2.273852 7.992870 -0.490989
v -0.868293 11.180504 1.590712
v -3.383894 6.118312 -0.180090
v -3.087300 7.626306 -0.180090
v -2.453350 7.992870 -0.180090
v -2.597274 5.689435 -1.051173
v -3.100196 5.689435 -0.180090
v -1.591434 5.689435 0.690995
v -1.815109 5.689435 0.008425
v -2.597274 5.689435 0.690995
v -2.054753 5.689435 0.008425
v -2.054753 5.689435 -0.351481
v -1.815109 5.689435 -0.351481
v -2.590827 7.626306 0.679827
v -2.273852 7.992870 0.130810
v -1.262150 7.260500 -0.583119
v -1.396125 7.626306 -0.690553
v -0.878862 7.260500 -1.246993
v -1.811304 7.992870 -0.311630
v -2.066746 7.992870 0.130810
v -2.077771 7.959350 0.181013
v -1.449584 6.118312 0.936685
v -2.739124 6.118312 0.936685
v 0.759488 11.180504 -1.228685
v 1.002598 8.128504 -1.649764
v 1.573378 11.180504 0.181013
v 0.770058 7.260500 -1.246993
v 0.179953 7.260500 0.292681
v -0.179953 7.260500 0.292681
v -0.179953 7.260500 -0.067225
v 0.179953 7.260500 -0.067225
v -1.029462 7.260500 -0.180090
v -1.470633 7.260500 0.584043
v -1.595412 7.601200 0.684103
v -1.611333 7.626306 0.679827
v -0.642920 11.922384 0.181013
v -0.348661 11.922384 0.690684
v 0.239856 11.922384 0.690684
v 0.759488 11.180504 1.590712
v -0.567280 4.428453 -2.920388
v 0.580410 3.999576 -2.674699
v -0.425431 3.999576 -2.674699
v 0.573963 5.936448 -0.943697
v -0.567280 4.428453 -0.686840
v 0.722260 4.428453 -0.686840
v -0.418983 5.936448 -0.943697
v 0.256988 6.303012 -1.492715
v -0.102008 6.303012 -1.492715
v 0.534115 11.922384 0.181013
v -0.425431 3.999576 -0.932530
v -1.212050 4.428453 -1.803614
v -0.928351 3.999576 -1.803614
v 0.256988 6.303012 -2.114513
v 0.436485 6.303012 -1.803614
v -0.102008 6.303012 -2.114513
v -0.281506 6.303012 -1.803614
v 1.083331 3.999576 -1.803614
v 0.580410 3.999576 -0.932530
v -0.418983 5.936448 -2.663531
v 0.239856 11.922384 -0.328658
v -0.348661 11.922384 -0.328658
v -0.915456 5.936448 -1.803614
v 0.280775 3.999576 -1.542276
v -0.079131 3.999576 -1.542276
v -0.079131 3.999576 -1.808493
v 0.280775 3.999576 -1.808493
v 0.179953 4.000500 -0.179953
v 0.179953 5.820500 -0.459953
v 0.179953 5.820500 -0.100047
v 0.179953 4.000500 0.179953
v -0.283390 -0.000000 0.283390
v 0.283390 0.000000 -0.283390
v 0.283390 -0.000000 0.283390
v -0.283390 0.000000 -0.283390
v -0.177643 2.634968 -0.215260
v -0.179953 4.000500 -0.179953
v -0.117140 3.020924 -0.205281
v 0.173086 3.020924 -0.205281
v 0.113280 2.634968 -0.215260
v 0.140631 3.088642 -1.203238
v 0.215139 3.572944 -1.203238
v -0.144767 3.572944 -1.203238
v -0.219275 3.088642 -1.203238
v -1.313953 5.058803 -0.254461
v -1.313953 4.574500 -0.179953
v -0.179953 4.484802 0.105445
v -1.313953 4.574500 0.179953
v -0.179953 4.000500 0.179953
v -1.313953 5.058803 0.105445
v -0.179953 4.484802 -0.254461
v -0.179953 5.820500 -0.459953
v -0.179953 5.820500 -0.100047
vt 0.935250 0.759366
vt 0.850868 0.650874
vt 0.946033 0.650874
vt 0.861973 0.759366
vt 0.624259 0.231880
vt 0.762797 0.290723
vt 0.641113 0.290723
vt 0.780265 0.231880
vt 0.932695 0.019892
vt 0.820747 0.097179
vt 0.821289 0.004536
vt 0.932277 0.091227
vt 0.116029 0.858886
vt 0.147475 0.937112
vt 0.116029 0.951531
vt 0.147475 0.864850
vt 0.355444 0.368914
vt 0.472403 0.304362
vt 0.462285 0.368024
vt 0.389067 0.305056
vt 0.506815 0.228744
vt 0.578733 0.006121
vt 0.615187 0.230802
vt 0.495287 0.004536
vt 0.309566 0.543674
vt 0.261474 0.582429
vt 0.236411 0.543674
vt 0.287923 0.582429
vt 0.355444 0.230802
vt 0.378731 0.006121
vt 0.685905 0.837031
vt 0.576200 0.792972
vt 0.687161 0.770925
vt 0.575234 0.843874
vt 0.301230 0.605329
vt 0.346372 0.607011
vt 0.719076 0.791008
vt 0.718097 0.842572
vt 0.915150 0.452749
vt 0.979432 0.341440
vt 0.979432 0.415633
vt 0.926041 0.400894
vt 0.850868 0.415672
vt 0.910725 0.392060
vt 0.924005 0.369065
vt 0.939320 0.377899
vt 0.915150 0.304362
vt 0.850868 0.341478
vt 0.310023 0.670349
vt 0.288088 0.628228
vt 0.543054 0.294544
vt 0.553204 0.267296
vt 0.582351 0.295290
vt 0.534572 0.239445
vt 0.508382 0.238948
vt 0.505063 0.241399
vt 0.554842 0.867190
vt 0.470325 0.838635
vt 0.544553 0.838635
vt 0.459679 0.867190
vt 0.588843 0.594337
vt 0.614158 0.368914
vt 0.471901 0.593652
vt 0.566161 0.664291
vt 0.355444 0.664179
vt 0.460803 0.603409
vt 0.469042 0.707776
vt 0.566161 0.785944
vt 0.469042 0.734329
vt 0.442488 0.734315
vt 0.442488 0.707762
vt 0.355444 0.785832
vt 0.434160 0.796985
vt 0.490538 0.829563
vt 0.404425 0.814136
vt 0.719076 0.914594
vt 0.687161 0.929368
vt 0.576200 0.914973
vt 0.379752 0.295290
vt 0.459755 0.268760
vt 0.464498 0.294138
vt 0.460369 0.266877
vt 0.104963 0.618195
vt 0.212201 0.604382
vt 0.142503 0.639739
vt 0.108368 0.544793
vt 0.861411 0.617404
vt 0.935640 0.617404
vt 0.142503 0.683098
vt 0.212201 0.724308
vt 0.544096 0.978185
vt 0.470638 0.980064
vt 0.542921 0.980064
vt 0.115105 0.793718
vt 0.146754 0.814018
vt 0.590864 0.305056
vt 0.850868 0.876930
vt 0.935491 0.910400
vt 0.861262 0.910400
vt 0.946033 0.876930
vt 0.439679 0.980064
vt 0.355444 0.867190
vt 0.450607 0.867190
vt 0.366403 0.980064
vt 0.932695 0.141410
vt 0.821289 0.162352
vt 0.934790 0.522549
vt 0.914119 0.461821
vt 0.977370 0.498577
vt 0.911922 0.509260
vt 0.104963 0.704912
vt 0.108368 0.784645
vt 0.640884 0.304362
vt 0.779238 0.524748
vt 0.623230 0.524748
vt 0.761010 0.304362
vt 0.719076 0.747079
vt 0.685905 0.669516
vt 0.718097 0.675056
vt 0.687161 0.761852
vt 0.761962 0.591711
vt 0.640276 0.591711
vt 0.911922 0.562231
vt 0.934790 0.549034
vt 0.889053 0.548942
vt 0.889053 0.522457
vt 0.977370 0.571832
vt 0.789337 0.091031
vt 0.789760 0.141866
vt 0.272830 0.628228
vt 0.253892 0.595640
vt 0.030949 0.819299
vt 0.031582 0.863889
vt 0.005677 0.814952
vt 0.850868 0.571577
vt 0.914119 0.608332
vt 0.861652 0.768438
vt 0.934929 0.768438
vt 0.004536 0.936827
vt 0.031582 0.897323
vt 0.004536 0.907838
vt 0.004536 0.725057
vt 0.067423 0.683369
vt 0.273512 0.632080
vt 0.237859 0.670349
vt 0.004536 0.605131
vt 0.067423 0.640010
vt 0.789760 0.018770
vt 0.850868 0.498321
vt 0.719076 0.623493
vt 0.687161 0.603409
vt 0.575234 0.676358
vt 0.576200 0.747457
vt 0.366090 0.838635
vt 0.440317 0.838635
vt 0.221639 0.569413
vt 0.642226 0.004536
vt 0.762349 0.004536
vt 0.389633 0.594337
vt 0.285051 0.905044
vt 0.220799 0.793718
vt 0.285051 0.830817
vt 0.243423 0.877141
vt 0.220799 0.942173
vt 0.220432 0.890426
vt 0.210614 0.873415
vt 0.233605 0.860130
vt 0.156547 0.830846
vt 0.156547 0.905074
vt 0.576200 0.625456
vt 0.816366 0.304373
vt 0.807707 0.544944
vt 0.788311 0.410647
vt 0.813740 0.410637
vt 0.841796 0.304362
vt 0.833137 0.544933
vt 0.830126 0.849317
vt 0.788311 0.891157
vt 0.788311 0.849339
vt 0.830126 0.891134
vt 0.129144 0.535089
vt 0.139722 0.342533
vt 0.170966 0.535721
vt 0.140989 0.242680
vt 0.144593 0.314379
vt 0.166008 0.314703
vt 0.167547 0.243082
vt 0.161189 0.342858
vt 0.976407 0.136699
vt 0.941767 0.074306
vt 0.972592 0.056264
vt 0.951452 0.150479
vt 0.971698 0.617404
vt 0.984370 0.714192
vt 0.955106 0.693871
vt 0.995464 0.633019
vt 0.995464 0.751140
vt 0.983933 0.766095
vt 0.004536 0.115328
vt 0.058478 0.163196
vt 0.057925 0.199322
vt 0.022219 0.115596
vt 0.897154 0.171424
vt 0.922454 0.245060
vt 0.895901 0.245060
vt 0.918617 0.171424
vt 0.317034 0.334203
vt 0.233398 0.341225
vt 0.316469 0.298046
vt 0.233964 0.377382
vt 0.851478 0.171424
vt 0.825970 0.247463
vt 0.824962 0.171424
vt 0.847352 0.247463
vt 0.281540 0.766174
vt 0.255040 0.679421
vt 0.281540 0.680137
vt 0.255040 0.765458
vt 0.141543 0.206554
vt 0.169627 0.107320
vt 0.143070 0.106919
vt 0.739032 0.895710
vt 0.767649 0.600783
vt 0.779238 0.895710
vt 0.742118 0.600783
vt 0.346372 0.534186
vt 0.318593 0.433923
vt 0.345150 0.433508
vt 0.319815 0.534601
vt 0.986672 0.020298
vt 0.976407 0.004536
vt 0.815889 0.256109
vt 0.789337 0.171705
vt 0.815889 0.171424
vt 0.789337 0.256390
vt 0.886829 0.243965
vt 0.860550 0.175280
vt 0.886829 0.171424
vt 0.860550 0.247821
vt 0.895901 0.254133
vt 0.922192 0.293154
vt 0.895901 0.289386
vt 0.922192 0.257900
vt 0.221639 0.687164
vt 0.245968 0.767252
vt 0.221639 0.774995
vt 0.245968 0.679421
vt 0.343026 0.297631
vt 0.346372 0.681258
vt 0.325457 0.778544
vt 0.320907 0.679421
vt 0.320907 0.884724
vt 0.299992 0.776707
vt 0.346372 0.886561
vt 0.180038 0.425317
vt 0.197721 0.425041
vt 0.323842 0.904459
vt 0.299992 0.945704
vt 0.299992 0.895634
vt 0.323842 0.954530
vt 0.144409 0.004536
vt 0.170966 0.004937
vt 0.304550 0.005189
vt 0.346372 0.004536
vt 0.841796 0.840229
vt 0.801749 0.840245
vn 0.0000 0.1679 -0.9858
vn 0.0000 -0.4209 0.9071
vn 0.8537 0.1679 -0.4929
vn 0.7515 -0.4971 -0.4339
vn 0.7856 -0.4209 0.4536
vn -0.8579 0.1367 -0.4953
vn 0.0000 0.8317 -0.5553
vn -0.8579 0.1367 0.4953
vn -0.8537 0.1679 -0.4929
vn -0.4809 0.8317 -0.2776
vn -0.7515 -0.4971 -0.4339
vn 0.0000 -1.0000 0.0000
vn -0.4809 0.8317 0.2776
vn -0.7856 -0.4209 -0.4535
vn -0.7856 -0.4209 -0.4536
vn 0.0000 -0.4971 0.8677
vn 0.8579 0.1367 -0.4953
vn -0.7515 -0.4971 0.4339
vn -0.8537 0.1679 0.4929
vn -0.7856 -0.4209 0.4536
vn -0.5508 0.7716 0.3180
vn 0.0000 -0.4971 -0.8677
vn 0.0000 0.7716 0.6361
vn -0.0000 0.1679 0.9858
vn 0.7515 -0.4971 0.4339
vn 0.7856 -0.4209 -0.4536
vn 0.7856 -0.4209 -0.4535
vn 0.8537 0.1679 0.4929
vn 0.0000 0.8317 0.5553
vn 0.5508 0.7716 0.3180
vn 0.0000 0.1367 -0.9906
vn 0.0000 -0.4209 -0.9071
vn 0.0000 1.0000 0.0000
vn 0.4809 0.8317 0.2776
vn 0.4809 0.8317 -0.2776
vn 0.5508 0.7716 -0.3180
vn 0.0000 0.7716 -0.6361
vn -0.5508 0.7716 -0.3180
vn 0.0000 0.1367 0.9906
vn 0.8579 0.1367 0.4953
vn 1.0000 0.0000 0.0000
vn 0.0000 0.0258 -0.9997
vn 0.9875 -0.1519 -0.0424
vn -0.9823 0.1511 0.1108
vn -0.9884 0.1521 -0.0000
vn -0.0000 -0.1521 -0.9884
vn 0.0000 -0.9088 -0.4173
vn 0.0767 0.1516 0.9855
vn 0.0000 0.8750 0.4840
vn 0.4516 0.8922 0.0000
vn -0.9997 0.0258 0.0000
vn 0.0000 -0.2631 0.9648
vn 0.9884 -0.1521 0.0000
vn -0.4516 -0.8922 0.0000
vn 0.0000 -0.5534 -0.8329
vn 0.0000 0.6222 0.7829
vn -0.8329 -0.5534 0.0000
vn -0.0000 0.1521 0.9884
vn -1.0000 0.0000 0.0000
vn 0.7829 0.6222 0.0000
vn -0.0767 -0.1516 -0.9855
vn 0.0000 0.2631 -0.9648
vn 0.0000 0.0258 0.9997
vn 0.9997 0.0258 0.0000
s 1
f 1/1/1 2/2/1 3/3/1
f 2/2/1 1/1/1 4/4/1
f 5/5/2 6/6/2 7/7/2
f 6/6/2 5/5/2 8/8/2
f 9/9/3 10/10/3 11/11/3
f 10/10/3 9/9/3 12/12/3
f 13/13/4 14/14/4 2/15/4
f 14/14/4 13/13/4 15/16/4
f 5/17/5 16/18/5 17/19/5
f 16/18/5 5/17/5 7/20/5
f 18/21/6 19/22/6 20/23/6
f 19/22/6 18/21/6 21/24/6
f 1/25/7 22/26/7 4/27/7
f 22/26/7 1/25/7 23/28/7
f 8/29/8 21/24/8 18/21/8
f 21/24/8 8/29/8 24/30/8
f 25/31/9 1/32/9 3/33/9
f 1/32/9 25/31/9 26/34/9
f 1/25/10 27/35/10 23/28/10
f 27/35/10 1/25/10 26/36/10
f 28/37/11 25/31/11 3/33/11
f 25/31/11 28/37/11 29/38/11
f 30/39/12 14/40/12 15/41/12
f 14/40/12 30/39/12 31/42/12
f 31/42/12 30/39/12 32/43/12
f 31/42/12 32/43/12 33/44/12
f 33/44/12 32/43/12 34/45/12
f 35/46/12 14/40/12 31/42/12
f 14/40/12 35/46/12 28/47/12
f 28/47/12 35/46/12 34/45/12
f 28/47/12 34/45/12 32/43/12
f 28/47/12 32/43/12 29/48/12
f 27/35/13 36/49/13 37/50/13
f 36/49/13 27/35/13 26/36/13
f 38/51/14 39/52/14 40/53/15
f 41/54/15 40/53/15 39/52/14
f 41/54/15 20/23/15 40/53/15
f 20/23/15 41/54/15 18/21/15
f 18/21/15 41/54/15 42/55/15
f 18/21/15 42/55/15 43/56/15
f 44/57/16 32/58/16 30/59/16
f 32/58/16 44/57/16 45/60/16
f 46/61/17 17/19/17 47/62/17
f 17/19/17 46/61/17 48/63/17
f 7/64/12 49/65/12 16/66/12
f 49/65/12 7/64/12 50/67/12
f 50/67/12 7/64/12 6/68/12
f 50/67/12 6/68/12 51/69/12
f 51/69/12 6/68/12 52/70/12
f 53/71/12 49/65/12 50/67/12
f 49/65/12 53/71/12 40/72/12
f 40/72/12 53/71/12 52/70/12
f 40/72/12 52/70/12 6/68/12
f 40/72/12 6/68/12 54/73/12
f 54/73/12 6/68/12 55/74/12
f 38/75/12 40/72/12 54/73/12
f 32/76/18 25/31/18 29/38/18
f 25/31/18 32/76/18 45/77/18
f 45/77/19 26/34/19 25/31/19
f 26/34/19 45/77/19 36/78/19
f 6/79/20 56/80/20 55/81/20
f 8/29/20 56/80/20 6/79/20
f 8/29/20 57/82/20 56/80/20
f 18/21/20 57/82/20 8/29/20
f 57/82/20 18/21/20 43/56/20
f 58/83/21 24/84/21 59/85/21
f 24/84/21 58/83/21 21/86/21
f 3/3/22 14/87/22 28/88/22
f 14/87/22 3/3/22 2/2/22
f 60/89/23 24/84/23 61/90/23
f 24/84/23 60/89/23 59/85/23
f 56/91/24 45/60/24 44/57/24
f 45/60/24 56/91/24 36/92/24
f 36/92/24 56/91/24 57/93/24
f 44/94/25 15/16/25 13/13/25
f 15/16/25 44/94/25 30/95/25
f 17/19/26 49/96/26 47/62/26
f 49/96/26 17/19/26 16/18/27
f 62/97/22 63/98/22 64/99/22
f 63/98/22 62/97/22 11/100/22
f 65/101/24 66/102/24 67/103/24
f 66/102/24 65/101/24 68/104/24
f 65/105/28 10/10/28 12/12/28
f 10/10/28 65/105/28 67/106/28
f 69/107/29 68/108/29 65/109/29
f 68/108/29 69/107/29 70/110/29
f 71/111/30 61/90/30 48/112/30
f 61/90/30 71/111/30 60/89/30
f 19/113/31 47/114/31 20/115/31
f 47/114/31 19/113/31 46/116/31
f 72/117/18 73/118/18 74/119/18
f 73/118/18 72/117/18 66/120/18
f 20/115/32 49/121/32 40/122/32
f 49/121/32 20/115/32 47/114/32
f 75/123/33 69/107/33 76/124/33
f 69/107/33 75/123/33 77/125/33
f 69/107/33 77/125/33 70/110/33
f 70/110/33 77/125/33 78/126/33
f 76/124/34 65/109/34 12/127/34
f 65/109/34 76/124/34 69/107/34
f 67/106/25 79/128/25 10/10/25
f 79/128/25 67/106/25 80/129/25
f 22/26/33 42/130/33 41/131/33
f 42/130/33 22/26/33 23/28/33
f 42/130/33 23/28/33 37/50/33
f 37/50/33 23/28/33 27/35/33
f 55/132/28 13/13/28 54/133/28
f 13/13/28 55/132/28 44/94/28
f 44/94/28 55/132/28 56/134/28
f 81/135/7 75/123/7 9/136/7
f 75/123/7 81/135/7 77/125/7
f 81/137/1 11/100/1 62/97/1
f 11/100/1 81/137/1 9/138/1
f 9/136/35 76/124/35 12/127/35
f 76/124/35 9/136/35 75/123/35
f 4/139/3 13/13/3 2/15/3
f 13/13/3 4/139/3 38/140/3
f 38/140/3 4/139/3 39/141/3
f 13/13/3 38/140/3 54/133/3
f 46/142/36 71/111/36 48/112/36
f 71/111/36 46/142/36 82/143/36
f 37/50/29 43/144/29 42/130/29
f 36/49/29 43/144/29 37/50/29
f 43/144/29 36/49/29 57/145/29
f 19/146/37 82/143/37 46/142/37
f 82/143/37 19/146/37 83/147/37
f 10/10/4 63/148/4 11/11/4
f 63/148/4 10/10/4 79/128/4
f 81/135/10 78/126/10 77/125/10
f 78/126/10 81/135/10 84/149/10
f 64/150/11 73/118/11 62/151/11
f 73/118/11 64/150/11 74/119/11
f 66/120/19 84/152/19 73/118/19
f 84/152/19 66/120/19 68/153/19
f 67/103/16 72/154/16 80/155/16
f 72/154/16 67/103/16 66/102/16
f 19/146/38 58/83/38 83/147/38
f 58/83/38 19/146/38 21/86/38
f 78/126/13 68/108/13 70/110/13
f 68/108/13 78/126/13 84/149/13
f 4/27/35 41/131/35 39/156/35
f 41/131/35 4/27/35 22/26/35
f 61/157/39 8/8/39 5/5/39
f 8/8/39 61/157/39 24/158/39
f 61/159/40 17/19/40 48/63/40
f 17/19/40 61/159/40 5/17/40
f 80/160/12 63/161/12 79/162/12
f 63/161/12 80/160/12 85/163/12
f 85/163/12 80/160/12 72/164/12
f 85/163/12 72/164/12 86/165/12
f 86/165/12 72/164/12 87/166/12
f 88/167/12 63/161/12 85/163/12
f 63/161/12 88/167/12 64/168/12
f 64/168/12 88/167/12 87/166/12
f 64/168/12 87/166/12 72/164/12
f 64/168/12 72/164/12 74/169/12
f 82/143/33 60/89/33 71/111/33
f 60/89/33 82/143/33 83/147/33
f 60/89/33 83/147/33 59/85/33
f 59/85/33 83/147/33 58/83/33
f 73/118/9 81/170/9 62/151/9
f 81/170/9 73/118/9 84/152/9
f 53/171/41 89/172/41 90/173/41
f 89/172/41 53/171/41 91/174/41
f 91/174/41 53/171/41 50/175/41
f 92/176/41 89/172/41 91/174/41
f 93/177/12 94/178/12 95/179/12
f 94/178/12 93/177/12 96/180/12
f 96/181/42 97/182/42 94/183/42
f 97/182/42 96/181/42 98/184/42
f 97/182/42 98/184/42 99/185/42
f 99/185/42 98/184/42 100/186/42
f 94/183/42 100/186/42 89/187/42
f 89/187/42 100/186/42 98/184/42
f 100/186/42 94/183/42 101/188/42
f 101/188/42 94/183/42 97/182/42
f 100/189/43 102/190/43 103/191/43
f 102/190/43 100/189/43 101/192/43
f 97/193/44 104/194/44 105/195/44
f 104/194/44 97/193/44 99/196/44
f 105/195/45 86/197/45 87/198/45
f 86/197/45 105/195/45 104/194/45
f 34/199/46 106/200/46 107/201/46
f 106/200/46 34/199/46 35/202/46
f 101/203/47 105/204/47 102/205/47
f 105/204/47 101/203/47 97/206/47
f 108/207/48 109/208/48 110/209/48
f 109/208/48 108/207/48 111/210/48
f 104/211/49 100/212/49 103/213/49
f 100/212/49 104/211/49 99/214/49
f 106/215/50 108/216/50 112/217/50
f 108/216/50 106/215/50 111/218/50
f 112/219/46 89/187/46 98/184/46
f 89/187/46 112/219/46 90/220/46
f 90/220/46 112/219/46 113/221/46
f 93/222/51 98/223/51 96/224/51
f 98/223/51 93/222/51 110/225/51
f 50/226/52 114/227/52 91/228/52
f 114/227/52 50/226/52 51/229/52
f 85/230/53 102/190/53 88/231/53
f 102/190/53 85/230/53 103/191/53
f 109/232/54 98/233/54 110/234/54
f 98/233/54 109/232/54 107/235/54
f 87/236/55 102/237/55 105/238/55
f 102/237/55 87/236/55 88/239/55
f 85/240/56 104/241/56 103/242/56
f 104/241/56 85/240/56 86/243/56
f 107/244/57 33/245/57 34/246/57
f 33/245/57 107/244/57 109/247/57
f 91/228/58 110/209/58 92/248/58
f 110/209/58 91/228/58 108/207/58
f 108/207/58 91/228/58 114/227/58
f 108/249/59 114/250/59 112/251/59
f 52/252/59 112/251/59 114/250/59
f 112/251/59 52/252/59 113/253/59
f 52/252/59 114/250/59 51/254/59
f 111/210/58 33/255/58 109/208/58
f 33/255/58 111/210/58 31/256/58
f 31/257/60 106/258/60 35/259/60
f 106/258/60 31/257/60 111/260/60
f 107/201/61 112/219/61 98/184/61
f 112/219/61 107/201/61 106/200/61
f 52/261/62 90/220/62 113/221/62
f 90/220/62 52/261/62 53/262/62
f 92/248/63 93/263/63 95/264/63
f 93/263/63 92/248/63 110/209/63
f 89/172/64 95/265/64 94/266/64
f 95/265/64 89/172/64 92/176/64
