# Blender v2.92.0 OBJ File: 'OGConvert.blend'
# www.blender.org
o tree_palmBend
v -0.648351 10.236064 -3.246450
v 0.310733 9.076024 -4.051054
v -0.467287 9.076024 -4.051054
v 0.648349 10.236064 -3.246450
v -0.280000 10.400000 -0.280000
v 0.280000 10.400000 0.280000
v 0.280000 10.400000 -0.280000
v -0.280000 10.400000 0.280000
v 0.230940 10.400000 -0.400000
v 0.346410 10.400000 -0.200000
v -0.000000 10.400000 -0.400000
v -0.230940 10.400000 -0.400000
v -0.346410 10.400000 -0.200000
v -0.346410 10.400000 0.200000
v -0.461880 10.400000 0.000000
v 0.346410 10.400000 0.200000
v 0.461880 10.400000 0.000000
v 0.230940 10.400000 0.400000
v 0.000000 10.400000 0.400000
v -0.230940 10.400000 0.400000
v 0.648349 10.832184 -2.098927
v -0.648351 10.832184 -2.098927
v -2.141900 10.832184 0.487978
v -2.487334 10.236064 2.184714
v -1.493550 10.832184 1.610952
v -3.135683 10.236064 1.061739
v 2.141901 10.832184 0.487976
v 2.487334 10.236064 2.184712
v 3.135684 10.236064 1.061737
v 1.493550 10.832184 1.610952
v 0.648351 10.557512 3.246451
v -0.310733 9.241568 4.051055
v 0.467287 9.241568 4.051055
v -0.648349 10.557512 3.246451
v -0.648351 10.832184 -0.966309
v 0.486262 10.400000 -0.400000
v 0.648349 10.832184 -0.966309
v -0.486262 10.400000 -0.400000
v 1.493550 11.039288 -1.610952
v 1.161023 11.039288 0.078333
v 2.141900 11.039288 -0.487977
v 0.512673 11.039288 -1.044643
v -0.512673 10.832184 1.044644
v -0.103279 10.400000 0.621116
v -0.589541 10.400000 -0.221115
v -1.161023 10.832184 -0.078332
v 2.487334 10.557512 -2.184713
v 3.135683 10.557512 -1.061738
v -1.493550 11.039288 -1.610951
v -1.161024 11.039288 0.078334
v -0.512674 11.039288 -1.044641
v -2.141901 11.039288 -0.487976
v 3.663682 9.241568 -1.756424
v 3.274672 9.241568 -2.430208
v 1.161024 10.832184 -0.078333
v 0.512674 10.832184 1.044642
v -0.572799 10.741312 0.702348
v 0.572800 10.741312 0.702349
v -0.648349 11.039288 0.966310
v 0.648351 11.039288 0.966310
v -3.741959 9.241568 -1.620844
v -2.487334 10.557512 -2.184711
v -3.352949 9.241568 -2.294629
v -3.135684 10.557512 -1.061736
v 3.741959 9.076024 1.620845
v 3.352949 9.076024 2.294630
v 0.589541 10.400000 -0.221115
v 0.103279 10.400000 0.621116
v -0.648349 11.039288 2.098928
v 0.648351 11.039288 2.098928
v -3.663682 9.076024 1.756424
v -3.274672 9.076024 2.430209
v -0.321851 10.741312 -0.847232
v -0.894651 10.741312 0.144886
v 0.894650 10.741312 0.144885
v 0.321851 10.741312 -0.847233
v -0.400000 -0.000000 0.400000
v 0.400000 0.000000 -0.400000
v 0.400000 -0.000000 0.400000
v -0.400000 0.000000 -0.400000
v -1.200000 8.000000 1.200000
v -0.400000 8.000000 1.200000
v -0.400000 8.000000 0.400000
v -1.200000 8.000000 0.400000
v 0.524000 0.800000 0.524000
v 0.524000 0.800000 -0.524000
v -0.524000 0.800000 0.524000
v -0.524000 0.800000 -0.524000
v -1.200000 4.800000 -0.400000
v -0.400000 4.800000 -0.400000
v -0.400000 4.800000 -1.200000
v -1.200000 4.800000 -1.200000
vt 0.350019 0.658070
vt 0.419851 0.589589
vt 0.419851 0.645142
vt 0.350019 0.565483
vt 0.218871 0.206787
vt 0.233506 0.261408
vt 0.198878 0.241416
vt 0.253499 0.226780
vt 0.193209 0.234098
vt 0.201454 0.248378
vt 0.201454 0.219817
vt 0.209699 0.205537
vt 0.226189 0.205537
vt 0.250923 0.219817
vt 0.242678 0.205537
vt 0.226189 0.262659
vt 0.209699 0.262659
vt 0.242678 0.262659
vt 0.250923 0.248378
vt 0.259168 0.234098
vt 0.048587 0.078104
vt 0.073252 0.199255
vt 0.002293 0.158287
vt 0.119545 0.119072
vt 0.332832 0.119072
vt 0.450084 0.158287
vt 0.379126 0.199255
vt 0.403790 0.078104
vt 0.179895 0.383966
vt 0.272482 0.465902
vt 0.179895 0.465902
vt 0.272482 0.383966
vt 0.002293 0.470488
vt 0.070774 0.575695
vt 0.015221 0.575695
vt 0.094881 0.470488
vt 0.189582 0.159508
vt 0.184094 0.249886
vt 0.143289 0.239691
vt 0.218814 0.189748
vt 0.073252 0.268940
vt 0.189582 0.308688
vt 0.119545 0.349124
vt 0.143289 0.228504
vt 0.309089 0.239691
vt 0.268283 0.249886
vt 0.233563 0.189748
vt 0.262795 0.159508
vt 0.002293 0.309908
vt 0.048587 0.390092
vt 0.179895 0.084229
vt 0.272482 0.165101
vt 0.179895 0.165101
vt 0.272482 0.084229
vt 0.177754 0.563130
vt 0.130782 0.480984
vt 0.177754 0.470488
vt 0.099467 0.580623
vt 0.179895 0.303095
vt 0.272482 0.303095
vt 0.290069 0.223752
vt 0.249170 0.294592
vt 0.309089 0.228505
vt 0.262795 0.308688
vt 0.214319 0.567847
vt 0.262286 0.476671
vt 0.262286 0.571556
vt 0.182340 0.470488
vt 0.429318 0.550706
vt 0.350019 0.512766
vt 0.429318 0.470488
vt 0.350019 0.560896
vt 0.191468 0.262659
vt 0.260909 0.262659
vt 0.379126 0.268940
vt 0.332832 0.349124
vt 0.450084 0.309908
vt 0.403790 0.390092
vt 0.298297 0.480122
vt 0.345433 0.555685
vt 0.266872 0.571741
vt 0.345433 0.470488
vt 0.185289 0.183948
vt 0.267088 0.183948
vt 0.203208 0.294592
vt 0.162308 0.223753
vt 0.179895 0.002293
vt 0.272482 0.002293
vt 0.182340 0.633264
vt 0.239462 0.576142
vt 0.239462 0.633264
vt 0.182340 0.576142
vt 0.997707 0.724150
vt 0.887320 0.544706
vt 0.944423 0.543218
vt 0.957735 0.725192
vt 0.675843 0.002293
vt 0.700730 0.174336
vt 0.636035 0.006060
vt 0.757598 0.168954
vt 0.547035 0.575770
vt 0.522411 0.746212
vt 0.482601 0.742471
vt 0.603907 0.581115
vt 0.837726 0.002293
vt 0.824534 0.179593
vt 0.767431 0.178105
vt 0.877698 0.003335
vt 0.757598 0.681290
vt 0.697333 0.744750
vt 0.683101 0.688340
vt 0.754201 0.739368
vt 0.543556 0.002293
vt 0.603907 0.065249
vt 0.529405 0.058247
vt 0.600428 0.007638
vt 0.802893 0.670092
vt 0.867342 0.729536
vt 0.810240 0.728048
vt 0.877698 0.672041
vt 0.997707 0.055234
vt 0.930368 0.003781
vt 0.987471 0.002293
vt 0.922903 0.057183
vt 0.882284 0.351404
vt 0.939386 0.349916
vt 0.819287 0.380906
vt 0.762184 0.379418
vt 0.665361 0.406892
vt 0.608493 0.412273
vt 0.511542 0.342950
vt 0.454670 0.337606
vn 0.0000 0.5699 -0.8217
vn 0.0000 1.0000 0.0000
vn 0.0000 0.8874 -0.4610
vn -0.3992 0.8874 0.2305
vn 0.3992 0.8874 0.2305
vn 0.0000 0.5216 0.8532
vn 0.0000 0.7950 0.6067
vn 0.0000 0.7949 0.6067
vn 0.5254 0.7950 -0.3033
vn 0.3352 0.9220 -0.1936
vn 0.7389 0.5216 -0.4266
vn 0.0000 0.6631 -0.7485
vn -0.7389 0.5216 -0.4266
vn 0.7116 0.5699 0.4108
vn -0.5254 0.7950 -0.3033
vn -0.5254 0.7950 -0.3034
vn 0.0000 0.9220 0.3871
vn -0.7116 0.5699 0.4108
vn 0.6482 0.6631 0.3743
vn 0.6483 0.6631 0.3743
vn -0.6483 0.6631 0.3743
vn -0.3352 0.9220 -0.1936
vn 0.0000 -1.0000 -0.0000
vn 0.0000 0.3579 0.9337
vn 0.9621 -0.2726 0.0000
vn -0.9337 0.3579 0.0000
vn 0.0000 -0.2726 -0.9621
vn 0.9882 -0.1532 0.0000
vn -0.9882 -0.1532 0.0000
vn -0.9882 -0.1531 -0.0000
vn -0.9859 -0.1671 -0.0000
vn -0.0000 -0.1536 -0.9881
vn 0.0000 -0.1532 -0.9882
vn 0.0000 -0.1665 -0.9860
vn 0.0000 -0.1532 0.9882
vn 0.0000 -0.4472 0.8944
vn 0.0000 0.2251 0.9743
vn 0.0000 0.4472 -0.8944
vn 1.0000 0.0000 0.0000
vn -0.9860 -0.1666 0.0000
vn 0.0000 -0.1666 -0.9860
vn 0.9743 0.2251 0.0000
vn -1.0000 0.0000 0.0000
s 1
f 1/1/1 2/2/1 3/3/1
f 2/2/1 1/1/1 4/4/1
f 5/5/2 6/6/2 7/7/2
f 6/6/2 5/5/2 8/8/2
f 7/7/2 9/9/2 5/5/2
f 9/9/2 7/7/2 10/10/2
f 6/6/2 10/10/2 7/7/2
f 5/5/2 9/9/2 11/11/2
f 5/5/2 11/11/2 12/12/2
f 5/5/2 12/12/2 13/13/2
f 5/5/2 13/13/2 8/8/2
f 8/8/2 13/13/2 14/14/2
f 14/14/2 13/13/2 15/15/2
f 16/16/2 10/10/2 6/6/2
f 10/10/2 16/16/2 17/17/2
f 16/16/2 6/6/2 18/18/2
f 18/18/2 6/6/2 8/8/2
f 18/18/2 8/8/2 19/19/2
f 19/19/2 8/8/2 20/20/2
f 20/20/2 8/8/2 14/14/2
f 1/21/3 21/22/3 4/23/3
f 21/22/3 1/21/3 22/24/3
f 23/25/4 24/26/4 25/27/4
f 24/26/4 23/25/4 26/28/4
f 27/29/5 28/30/5 29/31/5
f 28/30/5 27/29/5 30/32/5
f 31/33/6 32/34/6 33/35/6
f 32/34/6 31/33/6 34/36/6
f 35/37/7 36/38/7 37/39/7
f 36/38/7 35/37/7 9/9/8
f 9/9/8 35/37/7 11/11/7
f 11/11/7 35/37/7 12/12/7
f 12/12/7 35/37/7 38/40/7
f 39/41/2 40/42/2 41/43/2
f 40/42/2 39/41/2 42/44/2
f 20/20/9 43/45/9 44/46/9
f 43/45/9 20/20/9 14/14/9
f 43/45/9 14/14/9 15/15/9
f 43/45/9 15/15/9 45/47/9
f 43/45/9 45/47/9 46/48/9
f 47/49/10 41/43/10 48/50/10
f 41/43/10 47/49/10 39/41/10
f 49/51/2 50/52/2 51/53/2
f 50/52/2 49/51/2 52/54/2
f 47/55/11 53/56/11 54/57/11
f 53/56/11 47/55/11 48/58/11
f 55/59/2 30/32/2 27/29/2
f 30/32/2 55/59/2 56/60/2
f 57/61/12 19/19/12 20/20/12
f 19/19/12 57/61/12 18/18/12
f 18/18/12 57/61/12 58/62/12
f 58/62/12 57/61/12 59/63/12
f 58/62/12 59/63/12 60/64/12
f 61/65/13 62/66/13 63/67/13
f 62/66/13 61/65/13 64/68/13
f 22/24/2 37/39/2 21/22/2
f 37/39/2 22/24/2 35/37/2
f 28/69/14 65/70/14 29/71/14
f 65/70/14 28/69/14 66/72/14
f 67/73/15 56/60/15 55/59/15
f 56/60/15 67/73/15 17/17/15
f 56/60/15 17/17/15 16/16/15
f 56/60/15 16/16/15 68/74/15
f 68/74/15 16/16/15 18/18/16
f 60/64/2 69/75/2 70/76/2
f 69/75/2 60/64/2 59/63/2
f 70/76/17 34/77/17 31/78/17
f 34/77/17 70/76/17 69/75/17
f 71/79/18 24/80/18 26/81/18
f 24/80/18 71/79/18 72/82/18
f 73/83/19 13/13/20 12/12/20
f 13/13/20 73/83/19 51/53/19
f 13/13/20 51/53/20 15/15/20
f 15/15/20 51/53/20 74/84/20
f 74/84/20 51/53/20 50/52/20
f 42/44/21 75/85/21 40/42/21
f 75/85/21 42/44/21 17/17/21
f 17/17/21 42/44/21 76/86/21
f 17/17/21 76/86/21 10/10/21
f 10/10/21 76/86/21 9/9/21
f 46/48/2 25/27/2 43/45/2
f 25/27/2 46/48/2 23/25/2
f 62/87/22 52/54/22 49/51/22
f 52/54/22 62/87/22 64/88/22
f 77/89/23 78/90/23 79/91/23
f 78/90/23 77/89/23 80/92/23
f 6/93/24 81/94/24 82/95/24
f 81/94/24 6/93/24 8/96/24
f 6/97/25 83/98/25 7/99/25
f 83/98/25 6/97/25 82/100/25
f 84/101/26 8/102/26 5/103/26
f 8/102/26 84/101/26 81/104/26
f 5/105/27 83/106/27 84/107/27
f 83/106/27 5/105/27 7/108/27
f 85/109/28 78/110/28 86/111/28
f 78/110/28 85/109/28 79/112/28
f 80/113/29 87/114/30 88/115/31
f 87/114/30 80/113/29 77/116/29
f 88/117/32 78/118/33 80/119/33
f 78/118/33 88/117/32 86/120/34
f 85/121/35 77/122/35 79/123/35
f 77/122/35 85/121/35 87/124/35
f 82/95/36 89/125/36 90/126/36
f 89/125/36 82/95/36 81/94/36
f 90/126/37 87/124/37 85/121/37
f 87/124/37 90/126/37 89/125/37
f 84/107/38 91/127/38 92/128/38
f 91/127/38 84/107/38 83/106/38
f 83/98/39 90/129/39 91/130/39
f 90/129/39 83/98/39 82/100/39
f 88/115/31 89/131/40 92/132/40
f 89/131/40 88/115/31 87/114/30
f 92/128/41 86/120/34 88/117/32
f 86/120/34 92/128/41 91/127/41
f 90/129/42 86/111/42 91/130/42
f 86/111/42 90/129/42 85/109/42
f 89/131/43 84/101/43 92/132/43
f 84/101/43 89/131/43 81/104/43
