####
#
#	OBJ File Generated by LightWave3D
#	LightWave3D OBJ Export v2.3
#
####
o hull1.obj
mtllib hull1.mtl
g default
v 0.041231 0.0873659 -0.0122132
v 0.0377907 0.0873659 0.0205187
v 0.0122132 0.0873659 0.041231
v -0.0205187 0.0873659 0.0377907
v -0.041231 0.0873659 0.0122132
v -0.0377907 0.0873659 -0.0205187
v -0.0122132 0.0873659 -0.041231
v 0.0205187 0.0873659 -0.0377907
v 0.0233202 0.0743841 -0.00690777
v 0.0213744 0.0743841 0.0116054
v 0.00690777 0.0743841 0.0233202
v -0.0116054 0.0743841 0.0213744
v -0.0233202 0.0743841 0.00690777
v -0.0213744 0.0743841 -0.0116054
v -0.00690777 0.0743841 -0.0233202
v 0.0116054 0.0743841 -0.0213744
v 0.0201801 -0.221125 -0.00597762
v 0.0100427 -0.221125 -0.0184963
v -0.00597762 -0.221125 -0.0201801
v -0.0184963 -0.221125 -0.0100427
v -0.0201801 -0.221125 0.00597762
v -0.0100427 -0.221125 0.0184963
v 0.00597762 -0.221125 0.0201801
v 0.0184963 -0.221125 0.0100427
v 0.00960603 0.0930415 -0.0176921
v -0.00571772 0.0930415 -0.0193027
v -0.0176921 0.0930415 -0.00960603
v -0.0193027 0.0930415 0.00571772
v -0.00960603 0.0930415 0.0176921
v 0.00571772 0.0930415 0.0193027
v 0.0176921 0.0930415 0.00960603
v 0.0193027 0.0930415 -0.00571772
v 0.00684717 1.0175 -0.0126109
v -0.00407558 1.0175 -0.0137589
v -0.0126109 1.0175 -0.00684717
v -0.0137589 1.0175 0.00407558
v -0.00684717 1.0175 0.0126109
v 0.00407558 1.0175 0.0137589
v 0.0126109 1.0175 0.00684717
v 0.0137589 1.0175 -0.00407558
v 0.0144247 0.114967 0.0015161
v -0.0144247 0.114967 -0.0015161
v -1.01915e-018 0.148438 3.23221e-017
v 0 1.02265 2.4655e-016
v 0 -0.229753 -6.02009e-017
vn 0.418592 -0.480017 -0.77095
vn 0.891946 0.203263 -0.403877
vn 0.804026 -0.566056 -0.181995
vn 0.349859 0.578314 -0.736988
vn 0.891946 0.203263 -0.403877
vn 0.418592 -0.480017 -0.77095
vn 0.804026 -0.566056 -0.181995
vn 0.916285 0.203263 0.345117
vn 0.78499 -0.479798 0.391899
vn 0.891946 0.203263 -0.403877
vn 0.916285 0.203263 0.345117
vn 0.804026 -0.566056 -0.181995
vn 0.78499 -0.479798 0.391899
vn 0.314583 -0.101206 0.943819
vn 0.347608 -0.385336 0.854801
vn 0.916285 0.203263 0.345117
vn 0.314583 -0.101206 0.943819
vn 0.78499 -0.479798 0.391899
vn 0.314583 -0.101206 0.943819
vn -0.399718 -0.413682 0.817981
vn 0.347608 -0.385336 0.854801
vn 0.314583 -0.101206 0.943819
vn -0.513433 0.204816 0.833329
vn -0.399718 -0.413682 0.817981
vn -0.513433 0.204816 0.833329
vn -0.773435 -0.566056 0.28527
vn -0.399718 -0.413682 0.817981
vn -0.513433 0.204816 0.833329
vn -0.952304 0.204816 0.226201
vn -0.773435 -0.566056 0.28527
vn -0.952304 0.204816 0.226201
vn -0.822733 -0.476534 -0.309881
vn -0.773435 -0.566056 0.28527
vn -0.952304 0.204816 0.226201
vn -0.833329 0.204816 -0.513433
vn -0.822733 -0.476534 -0.309881
vn -0.833329 0.204816 -0.513433
vn -0.362641 -0.476534 -0.800879
vn -0.822733 -0.476534 -0.309881
vn -0.833329 0.204816 -0.513433
vn -0.226201 0.204816 -0.952304
vn -0.362641 -0.476534 -0.800879
vn -0.226201 0.204816 -0.952304
vn 0.418592 -0.480017 -0.77095
vn -0.362641 -0.476534 -0.800879
vn -0.226201 0.204816 -0.952304
vn 0.349859 0.578314 -0.736988
vn 0.418592 -0.480017 -0.77095
vn 0.883853 -0.387633 -0.261809
vn 0.78499 -0.479798 0.391899
vn 0.727946 -0.464728 0.504105
vn 0.804026 -0.566056 -0.181995
vn 0.78499 -0.479798 0.391899
vn 0.883853 -0.387633 -0.261809
vn 0.418592 -0.480017 -0.77095
vn 0.804026 -0.566056 -0.181995
vn 0.883853 -0.387633 -0.261809
vn 0.388738 -0.579892 -0.715966
vn 0.418592 -0.480017 -0.77095
vn 0.883853 -0.387633 -0.261809
vn 0.418592 -0.480017 -0.77095
vn 0.388738 -0.579892 -0.715966
vn -0.15828 -0.464728 -0.871192
vn -0.362641 -0.476534 -0.800879
vn 0.418592 -0.480017 -0.77095
vn -0.15828 -0.464728 -0.871192
vn -0.362641 -0.476534 -0.800879
vn -0.15828 -0.464728 -0.871192
vn -0.727946 -0.464728 -0.504105
vn -0.822733 -0.476534 -0.309881
vn -0.362641 -0.476534 -0.800879
vn -0.727946 -0.464728 -0.504105
vn -0.822733 -0.476534 -0.309881
vn -0.727946 -0.464728 -0.504105
vn -0.883853 -0.387633 0.261809
vn -0.773435 -0.566056 0.28527
vn -0.822733 -0.476534 -0.309881
vn -0.883853 -0.387633 0.261809
vn -0.399718 -0.413682 0.817981
vn -0.883853 -0.387633 0.261809
vn -0.388738 -0.579892 0.715966
vn -0.399718 -0.413682 0.817981
vn -0.773435 -0.566056 0.28527
vn -0.883853 -0.387633 0.261809
vn -0.399718 -0.413682 0.817981
vn -0.388738 -0.579892 0.715966
vn 0.15828 -0.464728 0.871192
vn 0.347608 -0.385336 0.854801
vn -0.399718 -0.413682 0.817981
vn 0.15828 -0.464728 0.871192
vn 0.727946 -0.464728 0.504105
vn 0.347608 -0.385336 0.854801
vn 0.15828 -0.464728 0.871192
vn 0.78499 -0.479798 0.391899
vn 0.347608 -0.385336 0.854801
vn 0.727946 -0.464728 0.504105
vn 0.349859 0.578314 -0.736988
vn 0.456846 0.637365 -0.62053
vn 0.891946 0.203263 -0.403877
vn 0.456846 0.637365 -0.62053
vn 0.76182 0.637365 -0.115742
vn 0.891946 0.203263 -0.403877
vn 0.891946 0.203263 -0.403877
vn 0.76182 0.637365 -0.115742
vn 0.916285 0.203263 0.345117
vn 0.76182 0.637365 -0.115742
vn 0.569062 0.749578 0.338085
vn 0.916285 0.203263 0.345117
vn 0.916285 0.203263 0.345117
vn 0.569062 0.749578 0.338085
vn 0.314583 -0.101206 0.943819
vn 0.569062 0.749578 0.338085
vn 0.218851 0.551646 0.804854
vn 0.314583 -0.101206 0.943819
vn 0.218851 0.551646 0.804854
vn -0.513433 0.204816 0.833329
vn 0.314583 -0.101206 0.943819
vn 0.218851 0.551646 0.804854
vn -0.456846 0.637365 0.62053
vn -0.513433 0.204816 0.833329
vn -0.456846 0.637365 0.62053
vn -0.952304 0.204816 0.226201
vn -0.513433 0.204816 0.833329
vn -0.456846 0.637365 0.62053
vn -0.76182 0.637365 0.115742
vn -0.952304 0.204816 0.226201
vn -0.76182 0.637365 0.115742
vn -0.833329 0.204816 -0.513433
vn -0.952304 0.204816 0.226201
vn -0.76182 0.637365 0.115742
vn -0.569062 0.749578 -0.338085
vn -0.833329 0.204816 -0.513433
vn -0.569062 0.749578 -0.338085
vn -0.226201 0.204816 -0.952304
vn -0.833329 0.204816 -0.513433
vn -0.569062 0.749578 -0.338085
vn -0.218851 0.551646 -0.804854
vn -0.226201 0.204816 -0.952304
vn -0.218851 0.551646 -0.804854
vn 0.349859 0.578314 -0.736988
vn -0.226201 0.204816 -0.952304
vn -0.218851 0.551646 -0.804854
vn 0.456846 0.637365 -0.62053
vn 0.349859 0.578314 -0.736988
vn 0.456846 0.637365 -0.62053
vn 0.809727 0.47746 -0.341137
vn 0.76182 0.637365 -0.115742
vn 0.331343 0.477459 -0.813784
vn 0.809727 0.47746 -0.341137
vn 0.456846 0.637365 -0.62053
vn 0.76182 0.637365 -0.115742
vn 0.806652 0.396848 0.437977
vn 0.569062 0.749578 0.338085
vn 0.809727 0.47746 -0.341137
vn 0.806652 0.396848 0.437977
vn 0.76182 0.637365 -0.115742
vn 0.569062 0.749578 0.338085
vn 0.806652 0.396848 0.437977
vn 0.218851 0.551646 0.804854
vn 0.806652 0.396848 0.437977
vn 0.227745 0.597491 0.768854
vn 0.218851 0.551646 0.804854
vn -0.331343 0.47746 0.813784
vn -0.456846 0.637365 0.62053
vn 0.218851 0.551646 0.804854
vn 0.227745 0.597491 0.768854
vn -0.331343 0.47746 0.813784
vn 0.218851 0.551646 0.804854
vn -0.809727 0.47746 0.341137
vn -0.76182 0.637365 0.115742
vn -0.456846 0.637365 0.62053
vn -0.331343 0.47746 0.813784
vn -0.809727 0.47746 0.341137
vn -0.456846 0.637365 0.62053
vn -0.806652 0.396848 -0.437976
vn -0.569062 0.749578 -0.338085
vn -0.76182 0.637365 0.115742
vn -0.809727 0.47746 0.341137
vn -0.806652 0.396848 -0.437976
vn -0.76182 0.637365 0.115742
vn -0.806652 0.396848 -0.437976
vn -0.218851 0.551646 -0.804854
vn -0.569062 0.749578 -0.338085
vn -0.806652 0.396848 -0.437976
vn -0.227745 0.597491 -0.768854
vn -0.218851 0.551646 -0.804854
vn 0.331343 0.477459 -0.813784
vn 0.456846 0.637365 -0.62053
vn -0.218851 0.551646 -0.804854
vn -0.227745 0.597491 -0.768854
vn 0.331343 0.477459 -0.813784
vn -0.218851 0.551646 -0.804854
vn 0.331343 0.477459 -0.813784
vn -5.99535e-009 1 3.9969e-009
vn 0.809727 0.47746 -0.341137
vn 0.809727 0.47746 -0.341137
vn -5.99535e-009 1 3.9969e-009
vn 0.806652 0.396848 0.437977
vn 0.806652 0.396848 0.437977
vn -5.99535e-009 1 3.9969e-009
vn 0.227745 0.597491 0.768854
vn -5.99535e-009 1 3.9969e-009
vn -0.331343 0.47746 0.813784
vn 0.227745 0.597491 0.768854
vn -5.99535e-009 1 3.9969e-009
vn -0.809727 0.47746 0.341137
vn -0.331343 0.47746 0.813784
vn -5.99535e-009 1 3.9969e-009
vn -0.806652 0.396848 -0.437976
vn -0.809727 0.47746 0.341137
vn -5.99535e-009 1 3.9969e-009
vn -0.227745 0.597491 -0.768854
vn -0.806652 0.396848 -0.437976
vn -5.99535e-009 1 3.9969e-009
vn 0.331343 0.477459 -0.813784
vn -0.227745 0.597491 -0.768854
vn 0.104528 0 -0.994522
vn 0.104528 0 -0.994522
vn 0.104528 0 -0.994522
vn 0.883853 -0.387633 -0.261809
vn 0.727946 -0.464728 0.504105
vn 5.60389e-009 -1 4.07556e-009
vn 0.388738 -0.579892 -0.715966
vn 0.883853 -0.387633 -0.261809
vn 5.60389e-009 -1 4.07556e-009
vn -0.15828 -0.464728 -0.871192
vn 0.388738 -0.579892 -0.715966
vn 5.60389e-009 -1 4.07556e-009
vn -0.727946 -0.464728 -0.504105
vn -0.15828 -0.464728 -0.871192
vn 5.60389e-009 -1 4.07556e-009
vn -0.883853 -0.387633 0.261809
vn -0.727946 -0.464728 -0.504105
vn 5.60389e-009 -1 4.07556e-009
vn -0.388738 -0.579892 0.715966
vn -0.883853 -0.387633 0.261809
vn 5.60389e-009 -1 4.07556e-009
vn 0.15828 -0.464728 0.871192
vn -0.388738 -0.579892 0.715966
vn 5.60389e-009 -1 4.07556e-009
vn 0.727946 -0.464728 0.504105
vn 0.15828 -0.464728 0.871192
vn 5.60389e-009 -1 4.07556e-009
g group_Default
usemtl Default
s off
f 16//1 1//2 9//3
f 8//4 1//5 16//6
f 9//7 2//8 10//9
f 1//10 2//11 9//12
f 10//13 3//14 11//15
f 2//16 3//17 10//18
f 3//19 12//20 11//21
f 3//22 4//23 12//24
f 4//25 13//26 12//27
f 4//28 5//29 13//30
f 5//31 14//32 13//33
f 5//34 6//35 14//36
f 6//37 15//38 14//39
f 6//40 7//41 15//42
f 7//43 16//44 15//45
f 7//46 8//47 16//48
f 17//49 10//50 24//51
f 9//52 10//53 17//54
f 16//55 9//56 17//57
f 18//58 16//59 17//60
f 16//61 18//62 19//63
f 15//64 16//65 19//66
f 15//67 19//68 20//69
f 14//70 15//71 20//72
f 14//73 20//74 21//75
f 13//76 14//77 21//78
f 12//79 21//80 22//81
f 12//82 13//83 21//84
f 12//85 22//86 23//87
f 11//88 12//89 23//90
f 24//91 11//92 23//93
f 10//94 11//95 24//96
f 8//97 25//98 1//99
f 25//100 32//101 1//102
f 1//103 32//104 2//105
f 32//106 31//107 2//108
f 2//109 31//110 3//111
f 31//112 30//113 3//114
f 30//115 4//116 3//117
f 30//118 29//119 4//120
f 29//121 5//122 4//123
f 29//124 28//125 5//126
f 28//127 6//128 5//129
f 28//130 27//131 6//132
f 27//133 7//134 6//135
f 27//136 26//137 7//138
f 26//139 8//140 7//141
f 26//142 25//143 8//144
f 25//145 40//146 32//147
f 33//148 40//149 25//150
f 32//151 39//152 31//153
f 40//154 39//155 32//156
f 31//157 39//158 30//159
f 39//160 38//161 30//162
f 37//163 29//164 30//165
f 38//166 37//167 30//168
f 36//169 28//170 29//171
f 37//172 36//173 29//174
f 35//175 27//176 28//177
f 36//178 35//179 28//180
f 35//181 26//182 27//183
f 35//184 34//185 26//186
f 33//187 25//188 26//189
f 34//190 33//191 26//192
f 33//193 44//194 40//195
f 40//196 44//197 39//198
f 39//199 44//200 38//201
f 44//202 37//203 38//204
f 44//205 36//206 37//207
f 44//208 35//209 36//210
f 44//211 34//212 35//213
f 44//214 33//215 34//216
g group_Default
usemtl Default
s 1
f 43//217 41//218 42//219
g group_Default
usemtl Default
s off
f 17//220 24//221 45//222
f 18//223 17//224 45//225
f 19//226 18//227 45//228
f 20//229 19//230 45//231
f 21//232 20//233 45//234
f 22//235 21//236 45//237
f 23//238 22//239 45//240
f 24//241 23//242 45//243
